<?xml version="1.0" standalone="no"?>
<!DOCTYPE svg PUBLIC "-//W3C//DTD SVG 1.1//EN" "http://www.w3.org/Graphics/SVG/1.1/DTD/svg11.dtd">
<svg xmlns="http://www.w3.org/2000/svg">
<defs >
<font id="Mina" horiz-adv-x="462" ><font-face
    font-family="Mina"
    units-per-em="1000"
    panose-1="2 0 5 3 0 0 0 0 0 0"
    ascent="1075"
    descent="-515"
    alphabetic="0" />
<glyph unicode=" " glyph-name="space" horiz-adv-x="325" />
<glyph unicode="!" glyph-name="exclam" horiz-adv-x="269" d="M82 23V80Q82 105 106 105H161Q184 105 184 80V23Q184 0 161 0H106Q82 0 82 23ZM88 731H177L170 196H95L88 731Z" />
<glyph unicode="&quot;" glyph-name="quotedbl" horiz-adv-x="380" d="M85 665V732H160V665L150 531H96L85 665ZM220 665V732H295V665L285 531H231L220 665Z" />
<glyph unicode="#" glyph-name="numbersign" horiz-adv-x="687" d="M20 232L28 284H187L213 449H54L63 501H221L258 732H310L273 501H439L475 732H527L491 501H668L659 449H482L456 283H633L625 231H448L411 0H359L396 231L230 232L193 0H141L178 232H20ZM239
284L404 283L430 449H265L239 284Z" />
<glyph unicode="$" glyph-name="dollar" horiz-adv-x="575" d="M78 72L317 66Q446 66 446 156V224Q446 322 363 322H233Q128 322 88 378Q55 426 55 494V560Q56 659 106 698Q155 736 244 738V824H302V735Q367 730 493 714V656L253 665H232Q219 665 201 662Q183
660 165 650Q129 628 129 560V494Q129 396 233 396H363Q461 396 494 340Q520 294 520 224V156Q520 57 450 20Q398 -8 323 -8H302V-90H244V-3L78 17V72Z" />
<glyph unicode="%" glyph-name="percent" horiz-adv-x="955" d="M42 474V607Q42 673 70 702T171 732H272Q343 732 371 703T399 607V474Q399 408 371 379T270 349H169Q98 349 70 378T42 474ZM107 474Q107 438 120 426T169 414H270Q312 414 323 426T334 474V607Q334
643 321 655T272 667H171Q130 667 119 655T107 607V474ZM227 0L665 732H736L298 0H227ZM556 127V260Q556 326 584 355T685 385H786Q857 385 885 356T913 260V127Q913 61 885 32T784 2H683Q612 2 584 31T556 127ZM621 127Q621 91 634 79T683 67H784Q826 67 837 79T848
127V260Q848 296 835 308T786 320H685Q644 320 633 308T621 260V127Z" />
<glyph unicode="&amp;" glyph-name="ampersand" horiz-adv-x="637" d="M33 205Q33 297 114 366L200 439L137 524Q104 572 104 612Q104 662 137 694Q170 726 206 730Q242 733 278 733Q373 733 473 710V660H270Q225 660 203 650Q181 640 181 613Q181 586 216 538L451
220L565 339L588 315L537 208L496 163L613 0H525L443 111L371 44Q320 -4 247 -4Q138 -4 78 82Q33 142 33 205ZM247 68Q285 68 318 95L398 170L242 378L164 313Q105 265 105 210Q105 168 139 125Q183 68 247 68Z" />
<glyph unicode="&apos;" glyph-name="quotesingle" horiz-adv-x="185" d="M55 665V732H130V665L120 531H66L55 665Z" />
<glyph unicode="(" glyph-name="parenleft" horiz-adv-x="335" d="M75 326Q75 403 91 486T131 633T177 750T218 832L234 860H315Q308 849 297 830T258 751T207 631T167 487T149 326Q149 242 166 156T207 7T256 -107T298 -184L315 -210H234Q228 -201 217 -185T179
-113T130 1T92 149T75 326Z" />
<glyph unicode=")" glyph-name="parenright" horiz-adv-x="335" d="M20 -210Q27 -200 38 -183T77 -108T128 8T168 154T186 326Q186 402 169 485T128 632T79 749T37 832L20 860H101Q107 849 118 830T156 752T205 632T243 488T260 326Q260 238 244 150T204 0T157
-111T118 -186L101 -210H20Z" />
<glyph unicode="*" glyph-name="asterisk" horiz-adv-x="440" d="M50 566V606L189 635L194 561L50 566ZM118 414L142 549L214 532L155 402L118 414ZM176 717L215 733L290 615L222 584L176 717ZM208 476L249 538L359 447L338 415L208 476ZM251 571L371 647L390
612L299 515L251 571Z" />
<glyph unicode="+" glyph-name="plus" horiz-adv-x="516" d="M50 319V393H220V564H294V393H466V319H294V148H220V319H50Z" />
<glyph unicode="," glyph-name="comma" horiz-adv-x="270" d="M85 25V79Q85 106 110 106H161Q185 106 185 79V-11Q185 -38 175 -55T152 -79T124 -88T100 -90L90 -88V-56Q121 -57 121 -25V0H110Q85 0 85 25Z" />
<glyph unicode="-" glyph-name="hyphen" horiz-adv-x="354" d="M20 253V327H334V253H20Z" />
<glyph unicode="." glyph-name="period" horiz-adv-x="272" d="M85 23V80Q85 105 109 105H162Q187 105 187 80V23Q187 0 162 0H109Q85 0 85 23Z" />
<glyph unicode="/" glyph-name="slash" horiz-adv-x="400" d="M20 -72L301 770H380L99 -72H20Z" />
<glyph unicode="0" glyph-name="zero" horiz-adv-x="643" d="M70 162V570Q70 648 118 690Q167 732 242 732H406Q492 732 532 686Q573 641 573 570V162Q573 0 406 0H242Q167 0 118 39Q70 78 70 162ZM144 162Q144 116 172 95Q201 74 242 74H406Q499 74 499 162V570Q499
658 406 658H242Q192 658 168 634Q144 609 144 570V162Z" />
<glyph unicode="1" glyph-name="one" horiz-adv-x="362" d="M282 732V0H208V648L40 594V647L208 732H282Z" />
<glyph unicode="2" glyph-name="two" horiz-adv-x="597" d="M40 667V722Q197 742 344 742Q445 742 496 680Q547 618 547 532Q547 477 516 414Q485 351 443 300Q401 250 346 200Q261 121 190 74H547V0H47V68Q245 203 355 320Q402 370 437 428Q472 487 472 540Q472
593 440 630Q408 667 343 667H40Z" />
<glyph unicode="3" glyph-name="three" horiz-adv-x="594" d="M30 706Q108 735 269 735Q307 735 348 734Q428 733 474 686Q519 640 519 569V500Q519 390 453 364Q519 322 519 220V161Q519 -7 341 -7H282Q259 -7 232 -6Q205 -6 195 -6T162 -4Q140 -2 128 0L98 5Q66
10 36 21L37 68H335Q414 68 434 112Q443 131 443 161V220Q443 322 341 326L98 333V391L341 401Q445 406 445 500V569Q445 614 414 637Q384 660 341 660H30V706Z" />
<glyph unicode="4" glyph-name="four" horiz-adv-x="603" d="M419 265V472L456 547H493V265H583V206L493 187V2H419V187H54L20 224L341 732H429L135 265H419Z" />
<glyph unicode="5" glyph-name="five" horiz-adv-x="603" d="M283 449L380 446Q465 446 504 402Q544 357 544 280V166Q544 118 528 82Q511 47 484 30Q434 -4 380 -4Q279 -4 225 0Q171 4 76 20V75H380Q427 75 448 102Q470 129 470 168V278Q470 345 431 363Q411
372 380 372H226Q193 372 168 353Q144 334 144 297H78L100 732H522V658H168L156 416Q183 449 283 449Z" />
<glyph unicode="6" glyph-name="six" horiz-adv-x="623" d="M65 384Q65 567 116 652Q166 738 237 738Q400 738 539 719V664H250Q218 664 195 637Q172 610 161 566Q141 486 139 407Q318 428 406 428Q495 428 529 388Q563 348 563 279V148Q563 -1 402 -1H253Q209
-1 177 16Q145 32 118 73Q65 156 65 384ZM139 354Q139 230 155 178Q163 151 174 126Q198 73 253 73H402Q446 73 468 89Q490 105 490 154V279Q490 354 402 354H139Z" />
<glyph unicode="7" glyph-name="seven" horiz-adv-x="546" d="M30 658V732H489L516 684L251 0H163L421 658H30Z" />
<glyph unicode="8" glyph-name="eight" horiz-adv-x="634" d="M75 154V252Q75 286 89 310Q103 333 119 342Q135 351 160 359Q116 374 96 414Q75 453 75 499V564Q75 659 121 698Q167 737 251 737H397Q479 737 519 696Q559 655 559 564V499V488Q559 482 558 470Q556
459 550 439Q543 419 526 404Q509 388 484 383Q521 376 540 334Q560 292 559 252V154Q559 108 543 76Q527 43 500 28Q453 0 396 0H251Q202 0 167 12Q132 25 114 42Q97 58 88 82Q75 115 75 154ZM149 151Q149 74 251 74H396Q432 74 458 94Q485 114 485 151V256Q485
296 460 316Q435 337 399 337H240Q201 337 175 318Q149 299 149 256V151ZM149 494Q149 449 178 430Q206 410 240 410H399Q485 410 485 494V562Q485 616 464 640Q442 663 397 663H251Q197 663 173 644Q149 625 149 562V494Z" />
<glyph unicode="9" glyph-name="nine" horiz-adv-x="623" d="M60 458V589Q60 738 221 738H370Q414 738 446 722Q478 705 504 664Q558 581 558 353Q558 170 508 84Q457 -1 386 -1Q176 -1 84 18V73H373Q405 73 428 100Q451 127 462 171Q482 251 484 330Q306 309
217 309Q128 309 94 349Q60 389 60 458ZM133 458Q133 383 221 383H484Q484 506 468 560Q460 586 448 612Q425 664 370 664H221Q177 664 155 648Q133 632 133 583V458Z" />
<glyph unicode=":" glyph-name="colon" horiz-adv-x="272" d="M85 23V80Q85 105 109 105H162Q187 105 187 80V23Q187 0 162 0H109Q85 0 85 23ZM85 450V507Q85 532 109 532H162Q187 532 187 507V450Q187 427 162 427H109Q85 427 85 450Z" />
<glyph unicode=";" glyph-name="semicolon" horiz-adv-x="274" d="M85 25V79Q85 90 92 98T110 106H161Q172 106 178 99T185 79V-11Q185 -38 175 -55T152 -79T124 -88T100 -90L90 -88V-56Q121 -57 121 -25V0H110Q100 0 93 8T85 25ZM87 451V508Q87 533 111 533H164Q189
533 189 508V451Q189 428 164 428H111Q87 428 87 451Z" />
<glyph unicode="&lt;" glyph-name="less" horiz-adv-x="475" d="M50 314V394L425 556V476L149 354L425 222V140L50 314Z" />
<glyph unicode="=" glyph-name="equal" horiz-adv-x="467" d="M20 212V286H447V212H20ZM20 421V495H447V421H20Z" />
<glyph unicode="&gt;" glyph-name="greater" horiz-adv-x="475" d="M50 140V222L326 354L50 476V556L425 394V314L50 140Z" />
<glyph unicode="?" glyph-name="question" horiz-adv-x="541" d="M20 664V719Q33 721 68 725T113 731T156 735T200 739T248 740T302 739Q408 739 454 688T501 554V453Q501 356 434 318T258 296V195H183V357H325Q367 359 397 383T428 453V554Q428 612 396 638T291
664H20ZM170 23V80Q170 105 194 105H249Q272 105 272 80V23Q272 0 249 0H194Q170 0 170 23Z" />
<glyph unicode="@" glyph-name="at" horiz-adv-x="844" d="M65 0V348Q65 423 102 465Q118 483 152 498Q186 512 233 512H448Q511 512 556 480Q601 447 601 372V0H545L531 64L521 56Q434 -9 350 -9Q297 -9 260 24Q224 57 225 108V161Q225 222 259 258Q293 294 354
294H529Q530 332 530 351Q530 370 529 370Q529 410 509 424Q489 438 445 438H233Q189 438 164 420Q139 402 139 348V0Q139 -103 233 -103H582Q641 -103 663 -78Q685 -54 685 0V512Q685 568 657 597Q629 626 582 626H178V673Q308 700 455 700H466H582Q664 698 712
650Q759 603 759 512V0Q759 -178 582 -178H233Q155 -178 110 -132Q65 -86 65 0ZM299 114Q299 97 317 81Q335 65 357 65H373Q387 65 422 75Q457 85 473 92Q489 100 529 119V242L359 226Q330 223 314 204Q298 186 299 159V114Z" />
<glyph unicode="A" glyph-name="A" horiz-adv-x="670" d="M45 0L314 732H388L645 0H557L494 204H202L136 0H45ZM229 278H468L350 619L229 278Z" />
<glyph unicode="B" glyph-name="B" horiz-adv-x="596" d="M80 0V732H362Q461 732 506 674T552 542Q552 409 460 380Q498 371 527 327T556 204Q556 163 547 129T517 64T457 17T362 0H80ZM155 74H362Q482 74 482 206Q482 266 452 306T362 346H155V74ZM155 420H362Q478
420 478 542Q478 658 362 658H155V420Z" />
<glyph unicode="C" glyph-name="C" horiz-adv-x="578" d="M55 368Q55 558 106 649T299 740Q408 740 543 715V656H534Q525 657 510 658T476 660T433 662T388 664T342 665T299 666Q234 666 199 642T146 553T129 366Q129 68 299 68L543 75V16Q425 -6 299 -6Q55 -6 55 368Z" />
<glyph unicode="D" glyph-name="D" horiz-adv-x="657" d="M80 0V732H352Q417 732 465 708T541 646T585 557T607 460T612 363Q612 311 604 262T576 164T527 80T453 22T352 0H80ZM154 77H352Q415 77 458 117T519 220T538 364Q538 519 491 588T352 658H154V77Z" />
<glyph unicode="E" glyph-name="E" horiz-adv-x="567" d="M80 123V602Q80 669 113 700T198 732Q200 732 202 732T206 732L522 716V658H206Q182 658 170 649T156 630T154 602V402L482 392V333L154 323V123Q154 105 159 94T174 78T191 72T213 71Q213 71 214 71T216
71H522V14L216 -3Q212 -3 208 -3T200 -4Q175 -4 155 1T118 20T90 60T80 123Z" />
<glyph unicode="F" glyph-name="F" horiz-adv-x="567" d="M80 0V602Q80 669 113 700T198 732Q200 732 202 732T206 732L522 716V658H206Q182 658 170 649T156 630T154 602V402L482 392V333L154 323V0H80Z" />
<glyph unicode="G" glyph-name="G" horiz-adv-x="614" d="M55 370Q55 453 64 513T97 628T169 711T289 740Q328 740 409 732T543 713V654Q542 654 525 655T480 658T420 662T353 665T289 666Q194 666 162 598T129 368Q129 201 165 135T293 68Q294 68 295 68Q317
68 344 72T395 84T440 98T473 109L485 114V314H317V364Q408 389 491 389Q523 389 559 386V0H503L487 49Q389 -5 293 -5Q291 -5 289 -5Q230 -5 187 14T119 65T79 147T60 249T55 370Z" />
<glyph unicode="H" glyph-name="H" horiz-adv-x="638" d="M80 0V732H154V391H504V732H578V0H504V317H154V0H80Z" />
<glyph unicode="I" glyph-name="I" horiz-adv-x="214" d="M80 0V732H154V0H80Z" />
<glyph unicode="J" glyph-name="J" horiz-adv-x="359" d="M35 21L39 75Q105 59 134 59Q224 59 225 165V732H299V165Q299 51 247 18Q229 6 202 0T146 -6Q76 -6 35 21Z" />
<glyph unicode="K" glyph-name="K" horiz-adv-x="591" d="M80 0V732H154V404H236L466 732H556L304 367L556 0H466L236 330H155V0H80Z" />
<glyph unicode="L" glyph-name="L" horiz-adv-x="557" d="M80 126V732H154V126Q154 115 156 107T160 94T168 84T177 78T189 75T200 74T213 74Q213 74 214 74T216 74H522V0H216Q187 0 166 4T124 20T92 59T80 126Z" />
<glyph unicode="M" glyph-name="M" horiz-adv-x="801" d="M55 0L103 732H205L400 123L589 732H690L746 0H672L627 598L439 0H363L169 598L129 0H55Z" />
<glyph unicode="N" glyph-name="N" horiz-adv-x="680" d="M80 0V732H156L546 138V732H620V0H546L155 594V0H80Z" />
<glyph unicode="O" glyph-name="O" horiz-adv-x="676" d="M65 361Q65 445 74 507T102 611T143 677T201 716T269 733T349 737Q390 737 419 734T480 722T533 697T574 653T605 586T624 490T631 361Q631 266 619 200T585 93T526 32T448 3T349 -4Q299 -4 265 0T196
16T139 53T99 118T73 218T65 361ZM139 361Q139 264 148 207T185 119T249 79T349 70Q399 70 431 76T489 100T529 151T550 234T557 361Q557 411 554 450T547 520T533 572T515 610T491 635T464 651T430 659T392 662T349 663T307 663T270 660T235 652T207 636T183 610T164
573T150 520T142 450T139 361Z" />
<glyph unicode="P" glyph-name="P" horiz-adv-x="581" d="M60 0V732H361Q536 732 536 520Q536 460 525 417T497 352T454 317T408 301T361 298Q332 298 235 307T134 318V0H60ZM134 372H361Q409 372 435 401T461 520Q460 566 450 596T423 638T392 653T361 657H134V372Z" />
<glyph unicode="Q" glyph-name="Q" horiz-adv-x="676" d="M65 361Q65 462 78 532T114 642T174 703T251 731T347 737Q396 737 429 733T497 716T554 678T595 611T622 508T631 361Q631 266 618 200T584 93T524 32T446 3T347 -4Q297 -4 263 0T194 16T138 53T99 118T73
218T65 361ZM139 361Q139 264 148 207T184 119T247 79T347 70Q410 70 446 80T510 122T547 210T557 361Q557 411 554 450T547 520T533 572T515 610T490 635T463 651T428 659T390 662T347 663T305 663T268 660T234 652T206 636T182 610T164 573T150 520T142 450T139
361ZM317 -33H369Q395 -51 418 -59T465 -68Q496 -68 537 -53V-133Q511 -143 477 -143Q451 -143 425 -137T376 -117T337 -82T317 -33Z" />
<glyph unicode="R" glyph-name="R" horiz-adv-x="593" d="M60 0V732H372Q541 732 541 512Q541 320 414 302L568 0H488L334 299L134 313V0H60ZM134 379H372Q390 379 400 380T424 387T446 407T460 447T466 512Q466 600 440 628T372 657H134V379Z" />
<glyph unicode="S" glyph-name="S" horiz-adv-x="584" d="M65 494V560Q65 661 117 699T263 738Q331 738 513 714V654L263 664Q251 665 242 665Q191 665 165 644T139 560V494Q139 432 163 414T241 396H383Q539 396 539 224V156Q539 105 522 71T474 21T411 -2T337
-8Q302 -8 214 1T87 17V77Q197 66 337 66Q465 66 465 156V224Q465 271 447 296T383 322H243Q186 322 149 336T94 377T71 430T65 494Z" />
<glyph unicode="T" glyph-name="T" horiz-adv-x="578" d="M45 658V732H553V658H333V0H259V658H45Z" />
<glyph unicode="U" glyph-name="U" horiz-adv-x="677" d="M80 320V732H154V320Q154 280 157 247T164 190T177 146T194 115T215 93T240 80T269 73T300 70T336 69Q338 69 340 69T346 69T351 69Q372 69 384 69T415 72T445 78T471 91T495 112T514 144T529 187T538
245T542 320V732H617V320Q617 227 600 163T560 66T496 17T427 -2T351 -5Q349 -5 347 -5T342 -5T337 -5T332 -5Q298 -5 277 -4T226 3T178 22T139 58T107 116T88 202T80 320Z" />
<glyph unicode="V" glyph-name="V" horiz-adv-x="670" d="M45 732H126L340 118L564 732H645L376 0H302L45 732Z" />
<glyph unicode="W" glyph-name="W" horiz-adv-x="962" d="M45 732H126L339 129L520 732H604L536 498L669 123L856 732H937L708 0H634L497 374L376 0H302L45 732Z" />
<glyph unicode="X" glyph-name="X" horiz-adv-x="596" d="M45 732H126L306 425L490 732H571L355 371L566 0H485L306 308L129 0H48L257 371L45 732Z" />
<glyph unicode="Y" glyph-name="Y" horiz-adv-x="630" d="M45 732H126L315 348L524 732H605L352 260V0H278V260L45 732Z" />
<glyph unicode="Z" glyph-name="Z" horiz-adv-x="563" d="M35 0V74L431 658H35V732H528V658L132 74H528V0H35Z" />
<glyph unicode="[" glyph-name="bracketleft" horiz-adv-x="321" d="M85 -38V670Q85 698 89 723T107 777T149 824T221 842H301V768H221Q193 768 176 742T159 670V-38Q159 -83 176 -109T221 -136H301V-210H221Q178 -210 149 -193T107 -146T90 -91T85 -38Z" />
<glyph unicode="\" glyph-name="backslash" horiz-adv-x="400" d="M20 770H99L380 -72H301L20 770Z" />
<glyph unicode="]" glyph-name="bracketright" horiz-adv-x="321" d="M20 -136H100Q128 -136 145 -110T162 -38V670Q162 715 145 741T100 768H20V842H100Q143 842 172 825T214 778T231 723T236 670V-38Q236 -66 232 -91T214 -145T172 -192T100 -210H20V-136Z" />
<glyph unicode="^" glyph-name="asciicircum" horiz-adv-x="392" d="M50 531L167 661H238L342 531H271L201 602L122 531H50Z" />
<glyph unicode="_" glyph-name="underscore" horiz-adv-x="674" d="M20 -1V73H654V-1H20Z" />
<glyph unicode="`" glyph-name="grave" horiz-adv-x="242" d="M20 664H115L222 531H153L20 664Z" />
<glyph unicode="a" glyph-name="a" horiz-adv-x="519" d="M40 126V187Q40 248 75 284T173 320Q272 320 337 320Q364 320 379 320T395 320Q395 349 395 369Q395 373 395 376T395 381T395 385T395 387Q395 469 313 469Q223 469 57 457V511Q158 539 316 541Q317 541
319 541Q385 541 427 503T469 387V0H414L395 64L380 57Q366 50 342 40T290 19T230 1T173 -6Q116 -6 78 29T40 126ZM114 131Q114 68 173 68Q209 68 264 81T358 106L395 119V262L173 246Q143 243 129 225T114 181V131Z" />
<glyph unicode="b" glyph-name="b" horiz-adv-x="554" d="M60 0V785H132V499Q177 517 234 528T329 539Q383 539 419 516T473 451T497 365T504 263Q504 212 497 169T471 84T417 18T329 -6Q283 -6 221 17T133 59L113 0H60ZM133 114Q246 68 329 68Q430 68 430 263Q430
379 406 422T329 465Q233 465 133 439V114Z" />
<glyph unicode="c" glyph-name="c" horiz-adv-x="500" d="M50 266Q50 350 62 405T100 488T154 526T225 536Q313 536 453 510V456Q314 462 225 462Q198 462 183 457T153 434T131 373T124 262Q124 150 146 110T225 69Q266 69 324 71T422 77L460 80V24Q364 -3 225
-5Q184 -5 156 5T102 42T63 126T50 266Z" />
<glyph unicode="d" glyph-name="d" horiz-adv-x="554" d="M50 263Q50 321 56 364T80 450T134 516T225 539Q262 539 319 528T421 499V785H494V0H441L421 59Q396 41 334 18T225 -6Q173 -6 137 18T83 83T58 168T50 263ZM124 263Q124 68 225 68Q308 68 421 114V439Q321
465 225 465Q173 465 149 422T124 263Z" />
<glyph unicode="e" glyph-name="e" horiz-adv-x="525" d="M50 268Q50 356 62 409T105 490T175 526T282 535Q337 535 368 530T429 507T472 450T485 347Q485 225 348 225H124Q124 132 145 101T225 69Q232 69 246 69T267 69Q407 69 475 79V23Q376 -5 225 -5Q124 -5
87 53T50 268ZM124 298H348Q411 298 411 347Q411 424 389 442T283 461Q248 461 232 460T193 455T161 440T141 412T127 366T124 298Z" />
<glyph unicode="f" glyph-name="f" horiz-adv-x="400" d="M20 457V514L117 531V630Q117 652 118 667T126 707T145 747T181 774T240 786Q302 786 380 762V713L257 714Q256 714 254 714Q232 714 219 708T200 689T193 664T191 630V531H339V457H191V0H117V457H20Z" />
<glyph unicode="g" glyph-name="g" horiz-adv-x="554" d="M48 115Q48 143 63 167T107 198Q49 235 49 344Q49 437 94 485T222 533H534V477L453 459Q454 457 460 447T469 430T476 411T482 382T484 344Q484 316 478 287T455 225T404 170T319 149H163Q122 149 122
119Q122 85 163 85H376Q437 85 471 48T505 -53V-116Q505 -143 500 -166T480 -214T433 -255T355 -270H205Q132 -270 89 -231T45 -116V-31L85 34Q48 60 48 115ZM119 -116Q119 -196 205 -196H355Q431 -196 431 -116V-58Q431 -20 418 -5T363 11H164Q150 11 139 13T124
17L119 19V-116ZM123 344Q123 323 127 304T140 266T168 235T215 223H313Q340 223 360 234T390 263T405 299T410 337Q410 341 410 344Q407 402 387 430T312 459H222Q123 459 123 344Z" />
<glyph unicode="h" glyph-name="h" horiz-adv-x="544" d="M60 0V784H134V469Q137 470 156 481T179 495T201 506T225 518T248 526T274 534T300 538T330 540Q406 540 450 490T494 370V0H420V370Q420 418 396 442T330 466Q292 466 258 458T204 442T134 409V0H60Z" />
<glyph unicode="i" glyph-name="i" horiz-adv-x="197" d="M50 617V671Q50 696 74 696H124Q147 696 147 671V617Q147 594 124 594H74Q50 594 50 617ZM60 0V531H134V0H60Z" />
<glyph unicode="j" glyph-name="j" horiz-adv-x="217" d="M60 617V671Q60 696 84 696H134Q157 696 157 671V617Q157 594 134 594H84Q60 594 60 617ZM71 -270V531H145V-4Q145 -12 145 -20T145 -35Q145 -186 119 -270H71Z" />
<glyph unicode="k" glyph-name="k" horiz-adv-x="500" d="M60 0V782H134V342H174L377 531H480L244 305L480 0H388L174 268H134V0H60Z" />
<glyph unicode="l" glyph-name="l" horiz-adv-x="300" d="M60 189V783H134V189Q134 128 148 105T191 74Q273 53 280 53V0H192Q60 0 60 189Z" />
<glyph unicode="m" glyph-name="m" horiz-adv-x="898" d="M60 0V531H112L134 467Q140 471 158 481T184 496T208 509T235 520T261 529T291 535T323 537Q373 537 413 516T470 459Q564 537 684 537Q754 537 801 489T848 366V0H774V366Q774 410 749 436T684 463Q624
463 581 451T488 407V368V0H414V366Q414 410 389 436T323 463Q286 463 254 455T203 440T134 407V0H60Z" />
<glyph unicode="n" glyph-name="n" horiz-adv-x="544" d="M60 0V531H112L134 469Q137 470 156 481T179 495T201 506T225 518T248 526T274 534T300 538T330 540Q406 540 450 490T494 370V0H420V370Q420 417 395 441T330 466Q292 466 258 458T204 442T134 409V0H60Z" />
<glyph unicode="o" glyph-name="o" horiz-adv-x="568" d="M50 258Q50 419 101 477T284 536Q418 536 468 477T518 258Q518 109 468 52T284 -5Q152 -5 101 54T50 258ZM124 258Q124 193 133 154T166 97T214 74T284 69Q330 69 355 74T403 97T435 154T444 258Q444 329
437 370T407 431T360 457T284 462Q246 462 224 459T180 445T148 412T131 353T124 258Z" />
<glyph unicode="p" glyph-name="p" horiz-adv-x="554" d="M60 -270V531H113L132 472Q157 490 220 513T329 537Q381 537 417 513T471 448T496 363T504 268Q504 210 498 167T474 81T420 15T329 -8Q292 -8 235 3T132 32V-270H60ZM132 92Q232 66 329 66Q381 66 405
109T430 268Q430 463 329 463Q245 463 132 417V92Z" />
<glyph unicode="q" glyph-name="q" horiz-adv-x="555" d="M50 268Q50 397 96 467T234 537Q281 537 333 533T434 522T495 514V-270H421V29Q325 -10 234 -10Q178 -10 141 10T85 70T58 157T50 268ZM124 268Q124 266 124 264T124 259T124 255T124 251Q124 224 125
207T129 166T139 125T158 94T189 72T234 64Q290 64 324 68T421 89V463H234Q124 463 124 268Z" />
<glyph unicode="r" glyph-name="r" horiz-adv-x="426" d="M60 0V531H112L134 464Q139 467 159 479T186 494T211 507T239 519T266 528T299 535T332 537Q390 537 406 529V456Q382 462 332 462Q294 462 260 454T205 437T134 404V0H60Z" />
<glyph unicode="s" glyph-name="s" horiz-adv-x="506" d="M40 358V404Q40 469 72 502T178 536Q273 536 439 520V463H178Q155 463 141 459T122 446T115 428T114 404V358Q114 338 118 326T133 309T152 303T178 301H336Q399 301 432 266T466 172V123Q466 49 430 22T336
-5Q243 -5 62 14V69H336Q338 69 340 69Q347 69 354 70T370 77T386 94T392 123V172Q392 200 380 213T336 227H178Q105 227 73 255T40 358Z" />
<glyph unicode="t" glyph-name="t" horiz-adv-x="378" d="M20 458V514L119 532L137 680H193V532H348V458H193V190Q193 129 207 106T250 75Q332 54 339 54V1H251Q119 1 119 190V458H20Z" />
<glyph unicode="u" glyph-name="u" horiz-adv-x="544" d="M50 161V531H124V161Q124 114 149 90T214 65Q252 65 286 73T340 89T410 122V531H484V0H432L410 62Q407 61 388 50T365 36T343 25T319 13T296 5T270 -3T244 -7T214 -9Q138 -9 94 41T50 161Z" />
<glyph unicode="v" glyph-name="v" horiz-adv-x="536" d="M20 531H101L267 109L435 531H516L303 0H229L20 531Z" />
<glyph unicode="w" glyph-name="w" horiz-adv-x="801" d="M20 531H101L258 109L396 531H476L422 361L538 109L700 531H781L578 0H504L386 260L299 0H219L20 531Z" />
<glyph unicode="x" glyph-name="x" horiz-adv-x="524" d="M24 0L216 266L24 531H116L260 327L408 531H500L306 263L492 0H408L262 202L116 0H24Z" />
<glyph unicode="y" glyph-name="y" horiz-adv-x="554" d="M21 531H102L231 116Q238 92 251 83T280 74Q297 74 297 77L449 531H532L298 -168L223 -270H177L271 0Q185 0 151 110L21 531Z" />
<glyph unicode="z" glyph-name="z" horiz-adv-x="456" d="M30 457V531H426V457L142 75H426Q426 75 426 55Q426 46 426 32T426 10V1H45V75L334 457H30Z" />
<glyph unicode="{" glyph-name="braceleft" horiz-adv-x="320" d="M20 300V367Q22 367 33 368T48 369T63 371T77 375T89 382T100 391T107 403T110 420V656Q110 735 158 788T300 842V768Q246 768 215 744T184 656V420Q184 385 161 363T99 334Q135 329 159 306T183
251V-38Q183 -86 215 -112T300 -136V-210Q247 -210 208 -195T149 -153T119 -99T109 -38V247Q109 276 82 289T20 300Z" />
<glyph unicode="|" glyph-name="bar" horiz-adv-x="245" d="M86 -72V770H160V-72H86Z" />
<glyph unicode="}" glyph-name="braceright" horiz-adv-x="320" d="M20 -136Q73 -139 105 -113T137 -38V251Q137 282 161 305T221 334Q183 341 160 363T136 420V656Q136 719 105 743T20 768V842Q114 842 162 789T210 656V420Q210 411 213 404T219 391T230 382T242
376T257 372T271 370T287 368T300 367V300Q266 303 239 290T211 247V-38Q211 -70 202 -98T172 -153T112 -194T20 -210V-136Z" />
<glyph unicode="~" glyph-name="asciitilde" horiz-adv-x="438" d="M50 572Q58 578 77 595T105 619T131 633T167 640Q190 640 222 623T273 605Q284 605 294 607T315 615T333 624T351 635T366 645L388 603Q386 601 367 583T339 557T311 540T273 531Q250 531 217
548T164 566Q147 566 133 561T101 546T71 531L50 572Z" />
<glyph unicode="&#xa0;" glyph-name="nbspace" horiz-adv-x="325" />
<glyph unicode="&#xa1;" glyph-name="exclamdown" horiz-adv-x="269" d="M83 385V438Q83 459 107 461H156Q165 460 172 452Q180 445 180 435V386Q178 359 157 359H107Q83 359 83 385ZM88 -270L94 261H169L177 -270H88Z" />
<glyph unicode="&#xa2;" glyph-name="cent" horiz-adv-x="490" d="M53 122Q40 178 40 266Q40 353 53 410Q66 466 93 494Q120 522 148 530Q177 538 200 538H231V634H291V533Q366 524 443 510V456Q304 464 249 464Q194 464 181 461Q168 458 154 447Q140 436 132
415Q114 368 114 259Q114 150 137 108Q160 67 215 67Q309 67 412 75L450 78V22Q377 1 291 -4V-96H231V-7H203Q180 -7 150 2Q121 10 94 38Q66 65 53 122Z" />
<glyph unicode="&#xa3;" glyph-name="sterling" horiz-adv-x="596" d="M50 0V59L122 74V330H50V375L122 392V505Q122 635 171 684Q202 715 238 722Q290 732 332 732Q400 732 510 720L546 716V659H352Q246 659 228 639Q203 613 200 578Q196 543 196 505V392L467
375V330H196V74H545V0H50Z" />
<glyph unicode="&#xa4;" glyph-name="currency" horiz-adv-x="459" d="M132 443Q173 473 226 473Q279 473 323 439L371 486L406 446L359 399Q383 361 383 312Q383 262 355 220L408 167L366 130L317 179Q275 147 226 147Q176 147 136 176L89 129L52 171L97 215Q66
258 66 312Q66 365 94 405L51 449L91 485L132 443ZM152 385Q122 355 122 312Q122 269 152 237Q181 205 224 205Q267 205 297 237Q327 269 327 312Q327 356 297 386Q267 415 224 415Q182 415 152 385Z" />
<glyph unicode="&#xa5;" glyph-name="yen" horiz-adv-x="600" d="M509 321V262H327V212H509V153H327V0H253V153H82V212H253V262H82V321H252L20 732H101L290 394L496 732H580L328 321H509Z" />
<glyph unicode="&#xa6;" glyph-name="brokenbar" horiz-adv-x="246" d="M86 -72V256H160V-72H86ZM86 429V770H160V429H86Z" />
<glyph unicode="&#xa7;" glyph-name="section" horiz-adv-x="552" d="M56 353V415Q56 494 100 508Q55 521 55 590V660Q55 727 92 756Q129 784 185 784Q278 784 459 765V710H185Q157 710 144 699Q130 688 129 660V590Q129 543 185 543H364Q443 543 470 511Q498
479 497 416V354Q497 271 455 265Q496 259 496 183V110Q496 32 450 10Q414 -8 343 -8Q272 -8 92 11V66H358Q389 66 405 74Q421 83 422 110V183Q422 213 410 222Q397 230 364 230H185Q119 230 88 256Q56 281 56 353ZM129 353Q129 322 142 313Q154 304 185 304H364Q406
304 415 320Q422 331 422 354V416Q422 446 412 458Q403 470 364 470H185Q151 470 140 460Q129 450 129 414V353Z" />
<glyph unicode="&#xa8;" glyph-name="dieresis" horiz-adv-x="456" d="M50 582Q50 603 65 618Q80 632 101 632Q122 632 136 618Q151 603 151 582Q151 561 136 546Q122 531 101 531Q80 531 65 546Q50 561 50 582ZM305 582Q305 603 320 618Q335 632 356 632Q377
632 392 618Q406 603 406 582Q406 561 392 546Q377 531 356 531Q335 531 320 546Q305 561 305 582Z" />
<glyph unicode="&#xa9;" glyph-name="copyright" horiz-adv-x="811" d="M55 368Q55 732 282 732H552Q666 732 714 628Q756 538 756 368Q756 215 711 112Q688 60 648 30Q607 0 552 0H282Q229 0 188 26Q147 52 122 91Q98 130 82 181Q55 267 55 368ZM119 368Q119
248 161 156Q203 65 282 64H552Q614 65 653 143Q692 221 692 368Q692 528 658 598Q644 627 617 648Q590 668 552 668H282Q206 668 162 602Q119 536 119 368ZM270 194Q231 242 231 360Q231 479 270 531Q309 583 375 583Q419 583 553 559V507Q469 519 375 519Q295
519 295 362Q295 290 312 250Q329 211 375 211Q447 211 559 227V175Q459 147 375 147Q308 147 270 194Z" />
<glyph unicode="&#xaa;" glyph-name="ordfeminine" horiz-adv-x="364" d="M30 268V326H334V268H30ZM30 463V509Q30 550 57 574Q84 599 130 599Q200 598 235 598Q270 598 270 599V622V631Q270 681 209 681Q171 681 120 678Q69 675 42 674V716Q59 718 92 724Q166
739 217 739H221Q268 739 300 714Q332 688 332 636V378H292L271 427L262 422Q179 374 134 374Q89 374 60 398Q30 421 30 463ZM92 476Q92 436 136 436Q190 436 250 460L270 468V554L136 544Q92 540 92 503V476Z" />
<glyph unicode="&#xab;" glyph-name="guillemotleft" horiz-adv-x="549" d="M50 354L256 557L308 505L153 354L313 198L261 146L50 354ZM236 354L442 557L494 505L339 354L499 198L447 146L236 354Z" />
<glyph unicode="&#xac;" glyph-name="logicalnot" horiz-adv-x="527" d="M50 256V330H477V159H403V256H50Z" />
<glyph unicode="&#xad;" glyph-name="uni00AD" horiz-adv-x="354" d="M20 253V327H334V253H20Z" />
<glyph unicode="&#xae;" glyph-name="registered" horiz-adv-x="811" d="M55 368Q55 732 282 732H552Q666 732 714 628Q756 538 756 368Q756 215 711 112Q688 60 648 30Q607 0 552 0H282Q229 0 188 26Q147 52 122 91Q98 130 82 181Q55 267 55 368ZM119 368Q119
248 161 156Q203 65 282 64H552Q614 65 653 143Q692 221 692 368Q692 528 658 598Q644 627 617 648Q590 668 552 668H282Q206 668 162 602Q119 536 119 368ZM261 153V580H438Q572 580 572 452Q572 369 535 344Q516 332 506 328Q497 325 476 321L567 153H495L404
323L325 335V153H261ZM325 379H444Q483 379 496 393Q508 407 508 440Q508 473 502 488Q496 502 485 508Q468 516 444 516H325V379Z" />
<glyph unicode="&#xaf;" glyph-name="overscore" horiz-adv-x="392" d="M50 531V594H342V531H50Z" />
<glyph unicode="&#xb0;" glyph-name="degree" horiz-adv-x="303" d="M50 632Q50 675 80 705T152 735T223 705T253 632T224 560T152 530T80 559T50 632ZM97 632Q97 610 113 594T152 578Q174 578 190 594T206 632Q206 655 190 671T152 687T114 671T97 632Z" />
<glyph unicode="&#xb1;" glyph-name="plusminus" horiz-adv-x="527" d="M56 87V161H472V87H56ZM56 387V461H226V632H300V461H472V387H300V216H226V387H56Z" />
<glyph unicode="&#xb2;" glyph-name="uni00B2" horiz-adv-x="387" d="M32 826Q31 826 31 838Q31 850 32 862V873Q156 888 215 888Q345 888 345 752Q345 717 327 677Q309 637 290 610Q270 582 234 546Q198 510 186 500Q174 490 148 468H344V406H35V464Q43 471 76
496Q108 520 129 537Q150 554 182 584Q213 613 232 638Q280 699 280 744Q280 790 263 808Q246 826 204 826H32Z" />
<glyph unicode="&#xb3;" glyph-name="uni00B3" horiz-adv-x="406" d="M34 420L35 463L212 464Q252 464 268 478Q284 492 284 525V548Q284 615 216 617L74 622V669L216 676Q285 679 285 740V762Q285 822 216 822H30V865Q84 883 154 883H225Q286 883 316 850Q346
816 346 766V731Q346 698 332 674Q318 651 297 643Q346 612 346 549V521Q346 463 318 432Q290 402 220 402H137Q88 402 34 420Z" />
<glyph unicode="&#xb4;" glyph-name="acute" horiz-adv-x="242" d="M20 531L127 664H222L89 531H20Z" />
<glyph unicode="&#xb5;" glyph-name="mu" horiz-adv-x="594" d="M90 -270V531H164V161Q164 114 189 90Q214 65 253 65Q292 65 326 73Q360 81 380 90Q401 98 450 122V531H524V0H472L450 62Q447 61 428 50Q409 38 404 36Q400 34 383 24Q366 15 359 13Q352 11 336
5Q320 -1 310 -3Q278 -9 254 -9Q201 -9 164 16V-270H90Z" />
<glyph unicode="&#xb6;" glyph-name="paragraph" horiz-adv-x="581" d="M40 499V592Q40 659 86 696Q133 732 196 732H561V656H492V0H418V658H324V-270H250V372L241 367Q219 355 196 355Q122 355 81 396Q40 437 40 499ZM114 501Q114 460 140 444Q166 429 196 429H250V658H196Q152
658 133 637Q114 616 114 590V501Z" />
<glyph unicode="&#xb7;" glyph-name="middot" horiz-adv-x="272" d="M85 354V411Q85 436 109 436H162Q187 436 187 411V354Q187 331 162 331H109Q85 331 85 354Z" />
<glyph unicode="&#xb8;" glyph-name="cedilla" horiz-adv-x="252" d="M50 -136L103 -121Q135 -107 135 -37H202Q202 -115 181 -144T101 -173H50V-136Z" />
<glyph unicode="&#xb9;" glyph-name="uni00B9" horiz-adv-x="271" d="M206 882V406H144V813L16 778V827L144 882H206Z" />
<glyph unicode="&#xba;" glyph-name="ordmasculine" horiz-adv-x="390" d="M66 412Q30 452 30 554Q30 657 66 697Q101 737 196 737Q291 737 326 697Q360 657 360 554Q360 452 325 412Q290 373 196 373Q102 373 66 412ZM41 271V329H348V271H41ZM98 622Q92 596 92
552Q92 509 98 485Q105 461 122 450Q138 440 152 438Q167 435 197 435Q227 435 241 437Q255 439 270 449T292 484Q298 513 298 556Q298 599 293 623Q288 647 272 658Q256 670 242 672T195 675Q163 675 149 673Q135 671 119 660Q103 648 98 622Z" />
<glyph unicode="&#xbb;" glyph-name="guillemotright" horiz-adv-x="549" d="M50 198L210 354L55 505L107 557L313 354L102 146L50 198ZM236 198L396 354L241 505L293 557L499 354L288 146L236 198Z" />
<glyph unicode="&#xbc;" glyph-name="onequarter" horiz-adv-x="903" d="M742 269Q776 271 777 299V356Q777 373 769 380T742 387H610Q601 387 595 386T584 381T577 371T574 356V298Q574 283 584 276T610 269H742ZM748 436Q787 436 809 420T832 356V313Q832 302
832 295T829 277T820 259T804 249Q850 235 851 192V86V83Q851 36 831 18T759 0H595Q548 0 525 18T502 85V189Q502 200 505 210T515 227T530 240T550 250Q532 256 527 272T522 313V357Q522 381 529 397T549 422T577 433T612 437Q625 437 644 437T679 436T715 436T748
436ZM554 85Q554 71 561 64T578 55T601 53H750Q759 53 766 54T779 57T787 62T793 69T796 77T797 86V111V179Q797 197 787 205T750 214H601Q596 214 592 214T583 213T576 211T570 209T564 206T560 201T557 195T555 187T554 178V85ZM220 672Q226 661 266 617T340
529T375 464Q375 446 370 429T352 390T333 360T311 329Q282 291 233 291Q185 291 136 327Q123 336 55 392L83 427Q108 410 161 376Q204 349 233 349Q252 349 262 360Q315 422 315 456Q315 474 284 511T216 590T171 653Q161 683 152 740L190 748Q191 745 194 737T199
722T205 706T212 689T220 672ZM220 0L568 732H633L285 0H220Z" />
<glyph unicode="&#xbd;" glyph-name="onehalf" horiz-adv-x="900" d="M809 243Q802 237 790 230T764 216T735 203T705 192T680 183T663 177T656 174L844 47L823 7Q806 15 777 31T668 97T524 201L553 246L598 216Q726 248 760 277Q768 283 771 291T775 307Q775
321 766 335T742 358Q732 364 688 393T604 449L564 475L584 509Q598 502 620 491T693 453T770 406Q796 388 818 361T840 304Q840 271 809 243ZM220 672Q226 661 266 617T340 529T375 464Q375 446 370 429T352 390T333 360T311 329Q282 291 233 291Q185 291 136
327Q123 336 55 392L83 427Q108 410 161 376Q204 349 233 349Q252 349 262 360Q315 422 315 456Q315 474 284 511T216 590T171 653Q161 683 152 740L190 748Q191 745 194 737T199 722T205 706T212 689T220 672ZM215 0L563 732H628L280 0H215Z" />
<glyph unicode="&#xbe;" glyph-name="threequarters" horiz-adv-x="995" d="M382 721Q420 721 448 710T491 680T513 639T520 591Q520 585 520 579Q518 547 509 521Q505 507 498 492T482 458T460 421T434 385T403 354T367 330Q337 315 309 315Q239 315 164 401Q152
414 125 452T73 532T38 591L65 615L202 446Q218 425 232 412T258 389T283 377T308 373Q328 373 348 384Q384 403 416 453T460 539Q469 570 469 589Q469 628 443 648T368 669Q351 669 309 666T234 659L200 656L193 698Q207 700 229 704T302 714T382 721ZM840 269Q850
269 857 271T870 281T876 299V356Q876 363 875 368T870 377T863 383T853 386T841 387H708Q691 387 682 380T673 356V298Q673 283 683 276T708 269H840ZM847 436Q886 436 908 420T931 356V313Q931 308 931 305T931 295T929 285T927 276T924 268T919 260T912 254T903
249Q949 235 950 192V86V83Q950 59 946 44T930 18T901 4T858 0H693Q662 0 643 6T613 32T601 85V189Q601 212 613 227T649 250Q630 256 625 272T620 313V357Q620 381 627 397T647 422T675 433T710 437Q730 437 778 437T847 436ZM653 85Q653 65 665 59T699 53H849Q875
53 885 61T895 86V111V179Q895 183 895 186T894 192T892 198T888 203T883 207T877 210T869 212T860 213T849 214H699Q692 214 686 214T675 212T665 208T658 201T654 191T653 178V85ZM319 0L667 732H732L384 0H319Z" />
<glyph unicode="&#xbf;" glyph-name="questiondown" horiz-adv-x="543" d="M340 -268L271 -270Q250 -270 244 -269Q238 -268 237 -268Q40 -268 40 -80V22Q39 108 108 150Q158 179 226 179Q252 179 281 175V276H358L359 114Q312 115 276 115Q240 115 210 114T155
84Q130 55 127 15Q126 -65 126 -85Q126 -130 156 -162Q185 -194 243 -194H250L523 -193Q520 -193 521 -220Q522 -246 521 -248Q471 -256 444 -258Q418 -261 384 -264Q351 -268 340 -268ZM270 445Q270 455 278 462Q285 470 294 471H343Q367 469 367 448V394Q365
370 346 369H290Q272 375 270 394V445Z" />
<glyph unicode="&#xc0;" glyph-name="Agrave" horiz-adv-x="670" d="M184 930H278L386 797H316L184 930ZM45 0L314 732H388L645 0H557L494 204H202L136 0H45ZM229 278H468L350 619L229 278Z" />
<glyph unicode="&#xc1;" glyph-name="Aacute" horiz-adv-x="670" d="M316 797L424 930H518L386 797H316ZM45 0L314 732H388L645 0H557L494 204H202L136 0H45ZM229 278H468L350 619L229 278Z" />
<glyph unicode="&#xc2;" glyph-name="Acircumflex" horiz-adv-x="670" d="M205 797L322 927H393L497 797H426L355 868L277 797H205ZM45 0L314 732H388L645 0H557L494 204H202L136 0H45ZM229 278H468L350 619L229 278Z" />
<glyph unicode="&#xc3;" glyph-name="Atilde" horiz-adv-x="670" d="M408 867Q431 867 498 903L520 861Q517 859 496 842Q442 798 409 798Q379 798 347 815Q315 832 296 832Q278 832 264 826Q249 821 232 812Q216 802 203 797L182 838Q209 860 222 870Q236 881
258 892Q281 902 304 901T362 884Q395 867 402 867H408ZM45 0L314 732H388L645 0H557L494 204H202L136 0H45ZM229 278H468L350 619L229 278Z" />
<glyph unicode="&#xc4;" glyph-name="Adieresis" horiz-adv-x="670" d="M173 848Q173 869 188 884Q203 898 224 898Q245 898 260 884Q274 869 274 848Q274 827 260 812Q245 797 224 797Q203 797 188 812Q173 827 173 848ZM428 848Q428 869 443 884Q458 898 479
898Q500 898 514 884Q529 869 529 848Q529 827 514 812Q500 797 479 797Q458 797 443 812Q428 827 428 848ZM45 0L314 732H388L645 0H557L494 204H202L136 0H45ZM229 278H468L350 619L229 278Z" />
<glyph unicode="&#xc5;" glyph-name="Aring" horiz-adv-x="670" d="M264 780Q277 757 300 744Q324 730 352 730Q379 730 402 744Q426 757 439 780Q452 804 452 840Q452 875 422 905Q393 935 351 935Q309 935 280 905Q250 875 250 840Q250 804 264 780ZM296 832Q296
855 312 871Q329 887 352 887Q374 887 390 871Q406 855 406 832Q406 810 390 794Q374 778 352 778Q329 778 312 794Q296 810 296 832ZM45 0L314 732H388L645 0H557L494 204H202L136 0H45ZM229 278H468L350 619L229 278Z" />
<glyph unicode="&#xc6;" glyph-name="AE" horiz-adv-x="921" d="M512 733L556 732L876 716V657H556Q521 657 514 640Q508 627 506 604V397L836 387V328L506 318V121Q506 91 518 82Q530 74 539 74H557H568L875 73V12L568 -5H553Q432 -5 432 121V227H222L111 0H30L328
604Q354 657 372 674Q390 691 400 701Q410 711 426 716Q441 722 450 726T476 731Q494 732 500 732Q505 733 512 733ZM432 301V652L259 301H432Z" />
<glyph unicode="&#xc7;" glyph-name="Ccedilla" horiz-adv-x="578" d="M303 -36H370Q370 -114 349 -143Q328 -172 269 -172H218V-135L271 -120Q303 -106 303 -36ZM543 656Q363 666 298 666Q234 666 198 642Q163 617 146 552Q129 488 129 366Q129 68 299 68L543
75V16Q425 -6 299 -6Q55 -6 55 368Q55 558 106 649Q158 740 299 740Q408 740 543 715V656Z" />
<glyph unicode="&#xc8;" glyph-name="Egrave" horiz-adv-x="567" d="M176 925H271L378 792H309L176 925ZM80 602Q80 671 114 702Q149 732 200 732H206L522 716V658H206Q182 658 170 648Q157 639 156 630T154 602V402L482 392V333L154 323V123Q154 98 165 86Q176
74 186 72Q196 71 216 71H522V14L216 -3H201Q80 -3 80 123V602Z" />
<glyph unicode="&#xc9;" glyph-name="Eacute" horiz-adv-x="567" d="M287 792L394 925H489L356 792H287ZM80 602Q80 671 114 702Q149 732 200 732H206L522 716V658H206Q182 658 170 648Q157 639 156 630T154 602V402L482 392V333L154 323V123Q154 98 165 86Q176
74 186 72Q196 71 216 71H522V14L216 -3H201Q80 -3 80 123V602Z" />
<glyph unicode="&#xca;" glyph-name="Ecircumflex" horiz-adv-x="567" d="M170 797L287 927H358L462 797H391L320 868L242 797H170ZM80 602Q80 671 114 702Q149 732 200 732H206L522 716V658H206Q182 658 170 648Q157 639 156 630T154 602V402L482 392V333L154
323V123Q154 98 165 86Q176 74 186 72Q196 71 216 71H522V14L216 -3H201Q80 -3 80 123V602Z" />
<glyph unicode="&#xcb;" glyph-name="Edieresis" horiz-adv-x="567" d="M139 843Q139 864 154 878Q169 893 190 893Q211 893 226 878Q240 864 240 843Q240 822 226 807Q211 792 190 792Q169 792 154 807Q139 822 139 843ZM394 843Q394 864 409 878Q424 893 445
893Q466 893 480 878Q495 864 495 843Q495 822 480 807Q466 792 445 792Q424 792 409 807Q394 822 394 843ZM80 602Q80 671 114 702Q149 732 200 732H206L522 716V658H206Q182 658 170 648Q157 639 156 630T154 602V402L482 392V333L154 323V123Q154 98 165 86Q176
74 186 72Q196 71 216 71H522V14L216 -3H201Q80 -3 80 123V602Z" />
<glyph unicode="&#xcc;" glyph-name="Igrave" horiz-adv-x="214" d="M-50 930H44L152 797H82L-50 930ZM80 0V732H154V0H80Z" />
<glyph unicode="&#xcd;" glyph-name="Iacute" horiz-adv-x="214" d="M82 797L190 930H284L152 797H82ZM80 0V732H154V0H80Z" />
<glyph unicode="&#xce;" glyph-name="Icircumflex" horiz-adv-x="214" d="M-29 797L88 927H159L263 797H192L121 868L43 797H-29ZM80 0V732H154V0H80Z" />
<glyph unicode="&#xcf;" glyph-name="Idieresis" horiz-adv-x="214" d="M-61 848Q-61 869 -46 884Q-31 898 -10 898Q11 898 26 884Q40 869 40 848Q40 827 26 812Q11 797 -10 797Q-31 797 -46 812Q-61 827 -61 848ZM194 848Q194 869 209 884Q224 898 245 898Q266
898 280 884Q295 869 295 848Q295 827 280 812Q266 797 245 797Q224 797 209 812Q194 827 194 848ZM80 0V732H154V0H80Z" />
<glyph unicode="&#xd0;" glyph-name="Eth" horiz-adv-x="657" d="M15 346V400H80V731Q80 732 353 732Q463 732 520 669Q578 606 595 525Q612 442 612 376Q612 311 604 262Q596 212 576 164Q557 116 528 80Q499 44 454 22Q409 0 353 0H80V346H15ZM154 77H353Q446
77 490 158Q535 238 535 364Q535 653 353 653L154 652V400H293V346H154V77Z" />
<glyph unicode="&#xd1;" glyph-name="Ntilde" horiz-adv-x="680" d="M407 867Q430 867 497 903L519 861Q516 859 494 842Q441 798 408 798Q378 798 346 815Q314 832 296 832Q277 832 262 826Q248 821 232 812Q215 802 202 797L181 838Q208 860 222 870Q235 881
258 892Q280 902 303 901T360 884Q394 867 400 867H407ZM80 0V732H156L546 138V732H620V0H546L155 594V0H80Z" />
<glyph unicode="&#xd2;" glyph-name="Ograve" horiz-adv-x="676" d="M182 930H276L384 797H314L182 930ZM73 218Q65 279 65 362Q65 445 74 508Q83 570 102 611Q121 652 144 678Q166 703 201 716Q258 737 349 737Q480 737 533 697Q584 658 606 586Q631 498 631
382Q631 266 618 200Q606 133 584 93Q563 53 526 32Q488 10 448 3Q408 -4 354 -4Q299 -4 265 0Q231 4 196 16Q161 29 139 54Q117 78 99 118Q81 158 73 218ZM142 450Q139 410 139 337Q139 264 148 207Q158 150 186 119Q213 88 249 79Q285 70 342 70Q399 70 431 76Q463
83 489 100Q515 118 529 151Q557 217 557 361Q557 518 533 572Q523 595 515 610Q507 625 491 636Q475 646 464 652Q452 657 430 660Q407 662 392 662Q377 663 349 663T307 663T270 660Q247 657 235 652Q223 646 207 636Q191 625 182 610Q174 595 164 573T150 520Q145
490 142 450Z" />
<glyph unicode="&#xd3;" glyph-name="Oacute" horiz-adv-x="676" d="M314 797L422 930H516L384 797H314ZM73 218Q65 279 65 362Q65 445 74 508Q83 570 102 611Q121 652 144 678Q166 703 201 716Q258 737 349 737Q480 737 533 697Q584 658 606 586Q631 498 631
382Q631 266 618 200Q606 133 584 93Q563 53 526 32Q488 10 448 3Q408 -4 354 -4Q299 -4 265 0Q231 4 196 16Q161 29 139 54Q117 78 99 118Q81 158 73 218ZM142 450Q139 410 139 337Q139 264 148 207Q158 150 186 119Q213 88 249 79Q285 70 342 70Q399 70 431 76Q463
83 489 100Q515 118 529 151Q557 217 557 361Q557 518 533 572Q523 595 515 610Q507 625 491 636Q475 646 464 652Q452 657 430 660Q407 662 392 662Q377 663 349 663T307 663T270 660Q247 657 235 652Q223 646 207 636Q191 625 182 610Q174 595 164 573T150 520Q145
490 142 450Z" />
<glyph unicode="&#xd4;" glyph-name="Ocircumflex" horiz-adv-x="676" d="M203 797L320 927H391L495 797H424L353 868L275 797H203ZM73 218Q65 279 65 362Q65 445 74 508Q83 570 102 611Q121 652 144 678Q166 703 201 716Q258 737 349 737Q480 737 533 697Q584
658 606 586Q631 498 631 382Q631 266 618 200Q606 133 584 93Q563 53 526 32Q488 10 448 3Q408 -4 354 -4Q299 -4 265 0Q231 4 196 16Q161 29 139 54Q117 78 99 118Q81 158 73 218ZM142 450Q139 410 139 337Q139 264 148 207Q158 150 186 119Q213 88 249 79Q285
70 342 70Q399 70 431 76Q463 83 489 100Q515 118 529 151Q557 217 557 361Q557 518 533 572Q523 595 515 610Q507 625 491 636Q475 646 464 652Q452 657 430 660Q407 662 392 662Q377 663 349 663T307 663T270 660Q247 657 235 652Q223 646 207 636Q191 625 182
610Q174 595 164 573T150 520Q145 490 142 450Z" />
<glyph unicode="&#xd5;" glyph-name="Otilde" horiz-adv-x="676" d="M406 867Q429 867 496 903L518 861Q515 859 494 842Q440 798 407 798Q377 798 345 815Q313 832 294 832Q276 832 262 826Q247 821 230 812Q214 802 201 797L180 838Q207 860 220 870Q234 881
256 892Q279 902 302 901T360 884Q393 867 400 867H406ZM73 218Q65 279 65 362Q65 445 74 508Q83 570 102 611Q121 652 144 678Q166 703 201 716Q258 737 349 737Q480 737 533 697Q584 658 606 586Q631 498 631 382Q631 266 618 200Q606 133 584 93Q563 53 526
32Q488 10 448 3Q408 -4 354 -4Q299 -4 265 0Q231 4 196 16Q161 29 139 54Q117 78 99 118Q81 158 73 218ZM142 450Q139 410 139 337Q139 264 148 207Q158 150 186 119Q213 88 249 79Q285 70 342 70Q399 70 431 76Q463 83 489 100Q515 118 529 151Q557 217 557 361Q557
518 533 572Q523 595 515 610Q507 625 491 636Q475 646 464 652Q452 657 430 660Q407 662 392 662Q377 663 349 663T307 663T270 660Q247 657 235 652Q223 646 207 636Q191 625 182 610Q174 595 164 573T150 520Q145 490 142 450Z" />
<glyph unicode="&#xd6;" glyph-name="Odieresis" horiz-adv-x="676" d="M171 848Q171 869 186 884Q201 898 222 898Q243 898 258 884Q272 869 272 848Q272 827 258 812Q243 797 222 797Q201 797 186 812Q171 827 171 848ZM426 848Q426 869 441 884Q456 898 477
898Q498 898 512 884Q527 869 527 848Q527 827 512 812Q498 797 477 797Q456 797 441 812Q426 827 426 848ZM73 218Q65 279 65 362Q65 445 74 508Q83 570 102 611Q121 652 144 678Q166 703 201 716Q258 737 349 737Q480 737 533 697Q584 658 606 586Q631 498 631
382Q631 266 618 200Q606 133 584 93Q563 53 526 32Q488 10 448 3Q408 -4 354 -4Q299 -4 265 0Q231 4 196 16Q161 29 139 54Q117 78 99 118Q81 158 73 218ZM142 450Q139 410 139 337Q139 264 148 207Q158 150 186 119Q213 88 249 79Q285 70 342 70Q399 70 431 76Q463
83 489 100Q515 118 529 151Q557 217 557 361Q557 518 533 572Q523 595 515 610Q507 625 491 636Q475 646 464 652Q452 657 430 660Q407 662 392 662Q377 663 349 663T307 663T270 660Q247 657 235 652Q223 646 207 636Q191 625 182 610Q174 595 164 573T150 520Q145
490 142 450Z" />
<glyph unicode="&#xd7;" glyph-name="multiply" horiz-adv-x="458" d="M56 235L177 355L56 476L108 529L229 408L351 529L403 477L281 355L402 235L350 182L229 303L109 183L56 235Z" />
<glyph unicode="&#xd8;" glyph-name="Oslash" horiz-adv-x="676" d="M114 642Q136 682 175 704Q214 725 252 731T348 737Q474 737 528 700L549 732H610L566 664Q631 580 631 361Q631 181 584 93Q562 53 524 32Q487 10 447 3Q407 -4 348 -4Q218 -4 162 34L140 0H79L124
71Q65 151 65 350Q65 550 114 642ZM170 142L488 638Q460 659 405 662Q386 663 349 663Q312 663 294 662T249 656Q222 650 209 638Q196 627 180 606Q164 584 156 552Q139 476 139 340Q139 203 170 142ZM348 70Q411 70 448 80Q484 91 510 122Q537 154 547 210Q557
267 557 361Q557 531 523 596L204 100Q245 70 348 70Z" />
<glyph unicode="&#xd9;" glyph-name="Ugrave" horiz-adv-x="677" d="M181 930H276L383 797H314L181 930ZM80 320V732H154V320Q154 229 166 176Q177 122 208 100Q239 78 264 74Q289 69 318 69H351Q422 69 439 76Q456 83 471 92Q486 100 495 112Q504 125 514 144Q524
163 530 188Q542 243 542 320V732H617V320Q617 227 600 162Q582 98 560 66Q537 34 496 17Q454 0 427 -2Q400 -5 374 -5H332Q315 -5 302 -4Q288 -4 264 -2Q239 -1 226 4Q213 8 192 16Q172 23 160 36Q149 48 134 65Q119 82 111 106Q103 131 95 162Q80 219 80 320Z"
/>
<glyph unicode="&#xda;" glyph-name="Uacute" horiz-adv-x="677" d="M314 797L421 930H516L383 797H314ZM80 320V732H154V320Q154 229 166 176Q177 122 208 100Q239 78 264 74Q289 69 318 69H351Q422 69 439 76Q456 83 471 92Q486 100 495 112Q504 125 514 144Q524
163 530 188Q542 243 542 320V732H617V320Q617 227 600 162Q582 98 560 66Q537 34 496 17Q454 0 427 -2Q400 -5 374 -5H332Q315 -5 302 -4Q288 -4 264 -2Q239 -1 226 4Q213 8 192 16Q172 23 160 36Q149 48 134 65Q119 82 111 106Q103 131 95 162Q80 219 80 320Z"
/>
<glyph unicode="&#xdb;" glyph-name="Ucircumflex" horiz-adv-x="677" d="M202 797L320 927H390L494 797H424L352 868L274 797H202ZM80 320V732H154V320Q154 229 166 176Q177 122 208 100Q239 78 264 74Q289 69 318 69H351Q422 69 439 76Q456 83 471 92Q486 100
495 112Q504 125 514 144Q524 163 530 188Q542 243 542 320V732H617V320Q617 227 600 162Q582 98 560 66Q537 34 496 17Q454 0 427 -2Q400 -5 374 -5H332Q315 -5 302 -4Q288 -4 264 -2Q239 -1 226 4Q213 8 192 16Q172 23 160 36Q149 48 134 65Q119 82 111 106Q103
131 95 162Q80 219 80 320Z" />
<glyph unicode="&#xdc;" glyph-name="Udieresis" horiz-adv-x="677" d="M185 812Q170 827 170 842T174 868Q179 877 185 884Q200 898 221 898Q242 898 257 884Q272 869 272 848Q272 827 257 812Q242 797 221 797Q200 797 185 812ZM426 848Q426 869 440 884Q455
898 476 898Q498 898 512 884Q526 869 526 848Q526 827 512 812Q497 797 476 797Q456 797 441 812Q426 827 426 848ZM80 320V732H154V320Q154 229 166 176Q177 122 208 100Q239 78 264 74Q289 69 318 69H351Q422 69 439 76Q456 83 471 92Q486 100 495 112Q504 125
514 144Q524 163 530 188Q542 243 542 320V732H617V320Q617 227 600 162Q582 98 560 66Q537 34 496 17Q454 0 427 -2Q400 -5 374 -5H332Q315 -5 302 -4Q288 -4 264 -2Q239 -1 226 4Q213 8 192 16Q172 23 160 36Q149 48 134 65Q119 82 111 106Q103 131 95 162Q80
219 80 320Z" />
<glyph unicode="&#xdd;" glyph-name="Yacute" horiz-adv-x="630" d="M290 797L398 930H492L360 797H290ZM352 0H278V260L45 732H126L315 348L524 732H605L352 260V0Z" />
<glyph unicode="&#xde;" glyph-name="Thorn" horiz-adv-x="557" d="M134 168V0H60V729H134V588H331Q507 586 507 375Q507 215 424 170Q399 156 378 152Q357 149 340 149H272Q232 149 134 168ZM134 223H331H334Q378 223 405 254Q432 286 432 377Q430 471 393 494Q364
513 331 513H134V223Z" />
<glyph unicode="&#xdf;" glyph-name="germandbls" horiz-adv-x="570" d="M219 71L396 66Q427 66 451 84Q475 103 476 132V179Q476 200 454 212Q433 223 402 230Q372 236 341 246Q310 256 288 282Q267 307 267 351Q267 395 290 426Q312 456 388 512Q438 550 438
612Q438 703 283 703Q218 703 176 670Q134 637 134 566V0H60V566Q60 656 120 716Q180 777 283 777Q354 777 404 758Q454 740 478 710Q513 666 513 609Q513 557 480 506Q460 474 433 455Q424 447 407 434Q390 421 384 415Q377 409 366 399Q356 389 352 382Q341 365
341 348Q341 330 362 320Q384 309 415 302Q446 295 476 284Q507 274 528 248Q550 221 550 179V132Q550 28 444 -1Q418 -8 390 -8Q362 -8 328 -4Q295 -1 262 4Q230 10 219 11V71Z" />
<glyph unicode="&#xe0;" glyph-name="agrave" horiz-adv-x="519" d="M99 734H194L301 601H232L99 734ZM57 511Q165 541 319 541Q384 541 426 503Q469 465 469 387V0H414L395 64L380 57Q250 -6 173 -6Q116 -6 78 29Q40 64 40 126V187Q40 248 76 284Q111 320 173
320H340H395Q396 353 396 370Q396 386 395 387Q395 469 309 469Q223 469 57 457V511ZM114 131Q114 68 173 68Q209 68 264 81Q320 94 358 106L395 119V262L173 246Q143 243 128 225Q114 207 114 181V131Z" />
<glyph unicode="&#xe1;" glyph-name="aacute" horiz-adv-x="519" d="M227 601L334 734H429L296 601H227ZM57 511Q165 541 319 541Q384 541 426 503Q469 465 469 387V0H414L395 64L380 57Q250 -6 173 -6Q116 -6 78 29Q40 64 40 126V187Q40 248 76 284Q111 320 173
320H340H395Q396 353 396 370Q396 386 395 387Q395 469 309 469Q223 469 57 457V511ZM114 131Q114 68 173 68Q209 68 264 81Q320 94 358 106L395 119V262L173 246Q143 243 128 225Q114 207 114 181V131Z" />
<glyph unicode="&#xe2;" glyph-name="acircumflex" horiz-adv-x="519" d="M117 601L234 731H305L409 601H338L267 672L189 601H117ZM57 511Q165 541 319 541Q384 541 426 503Q469 465 469 387V0H414L395 64L380 57Q250 -6 173 -6Q116 -6 78 29Q40 64 40 126V187Q40
248 76 284Q111 320 173 320H340H395Q396 353 396 370Q396 386 395 387Q395 469 309 469Q223 469 57 457V511ZM114 131Q114 68 173 68Q209 68 264 81Q320 94 358 106L395 119V262L173 246Q143 243 128 225Q114 207 114 181V131Z" />
<glyph unicode="&#xe3;" glyph-name="atilde" horiz-adv-x="519" d="M315 671Q338 671 405 707L427 665Q424 663 402 646Q349 602 316 602Q286 602 254 619Q222 636 204 636Q185 636 170 630Q156 625 140 616Q123 606 110 601L89 642Q116 664 130 674Q143 685
166 696Q188 706 211 705T268 688Q302 671 308 671H315ZM57 511Q165 541 319 541Q384 541 426 503Q469 465 469 387V0H414L395 64L380 57Q250 -6 173 -6Q116 -6 78 29Q40 64 40 126V187Q40 248 76 284Q111 320 173 320H340H395Q396 353 396 370Q396 386 395 387Q395
469 309 469Q223 469 57 457V511ZM114 131Q114 68 173 68Q209 68 264 81Q320 94 358 106L395 119V262L173 246Q143 243 128 225Q114 207 114 181V131Z" />
<glyph unicode="&#xe4;" glyph-name="adieresis" horiz-adv-x="519" d="M83 652Q83 673 98 688Q113 702 134 702Q155 702 170 688Q184 673 184 652Q184 631 170 616Q155 601 134 601Q113 601 98 616Q83 631 83 652ZM338 652Q338 673 353 688Q368 702 389 702Q410
702 424 688Q439 673 439 652Q439 631 424 616Q410 601 389 601Q368 601 353 616Q338 631 338 652ZM57 511Q165 541 319 541Q384 541 426 503Q469 465 469 387V0H414L395 64L380 57Q250 -6 173 -6Q116 -6 78 29Q40 64 40 126V187Q40 248 76 284Q111 320 173 320H340H395Q396
353 396 370Q396 386 395 387Q395 469 309 469Q223 469 57 457V511ZM114 131Q114 68 173 68Q209 68 264 81Q320 94 358 106L395 119V262L173 246Q143 243 128 225Q114 207 114 181V131Z" />
<glyph unicode="&#xe5;" glyph-name="aring" horiz-adv-x="519" d="M161 673Q161 716 191 746Q221 776 263 776Q305 776 334 746Q364 716 364 673Q364 630 334 600Q305 571 263 571Q221 571 191 600Q161 630 161 673ZM224 712Q208 696 208 674Q208 651 224 635Q240
619 263 619Q286 619 302 634Q317 650 317 673Q317 696 301 712Q285 728 262 728Q240 728 224 712ZM57 511Q165 541 319 541Q384 541 426 503Q469 465 469 387V0H414L395 64L380 57Q250 -6 173 -6Q116 -6 78 29Q40 64 40 126V187Q40 248 76 284Q111 320 173 320H340H395Q396
353 396 370Q396 386 395 387Q395 469 309 469Q223 469 57 457V511ZM114 131Q114 68 173 68Q209 68 264 81Q320 94 358 106L395 119V262L173 246Q143 243 128 225Q114 207 114 181V131Z" />
<glyph unicode="&#xe6;" glyph-name="ae" horiz-adv-x="871" d="M57 517Q148 547 322 547Q403 547 443 489Q469 520 512 530Q556 541 620 541Q683 541 714 536Q745 531 775 513Q805 495 818 456Q831 417 831 353Q831 231 694 231H470Q470 138 491 106Q512 75 571
75Q753 75 821 85V29Q722 1 571 1Q511 1 480 18Q449 34 417 71L400 64Q312 25 255 12Q198 0 173 0Q116 0 78 35Q40 70 40 132V172Q40 233 76 269Q111 305 173 305Q284 304 340 304Q395 304 395 305Q396 348 396 370Q396 392 395 393Q395 475 312 475Q228 475 57
463V517ZM114 137Q114 74 173 74Q209 74 264 87Q320 100 358 112L395 125V253L173 237Q143 234 128 216Q114 198 114 172V137ZM470 304H694Q757 304 757 353Q757 430 734 448Q712 467 629 467Q526 467 506 446Q478 416 474 380Q470 344 470 304Z" />
<glyph unicode="&#xe7;" glyph-name="ccedilla" horiz-adv-x="500" d="M50 266Q50 350 62 406Q75 462 100 490Q125 517 154 528Q183 538 242 538Q302 538 453 510V456Q314 464 259 464Q204 464 191 461Q178 458 164 447Q150 436 142 415Q124 368 124 259Q124 150
147 108Q170 67 225 67Q319 67 422 75L460 78V22Q364 -5 225 -7Q184 -7 155 4Q126 14 101 42Q76 70 63 126Q50 182 50 266ZM260 -37H327Q327 -115 306 -144Q285 -173 226 -173H175V-136L228 -121Q260 -107 260 -37Z" />
<glyph unicode="&#xe8;" glyph-name="egrave" horiz-adv-x="525" d="M114 729H210L316 596H248L114 729ZM50 268Q50 356 62 410Q74 463 106 490Q137 518 176 526Q214 535 276 535Q337 535 368 530Q399 525 429 507Q459 489 472 450Q485 411 485 347Q485 225 348
225H124Q124 132 145 100Q166 69 225 69Q407 69 475 79V23Q376 -5 225 -5Q124 -5 87 53Q50 111 50 268ZM124 298H348Q411 298 411 347Q411 424 388 442Q366 461 283 461Q180 461 160 440Q132 410 128 374Q124 338 124 298Z" />
<glyph unicode="&#xe9;" glyph-name="eacute" horiz-adv-x="525" d="M238 596L344 729H440L306 596H238ZM50 268Q50 356 62 410Q74 463 106 490Q137 518 176 526Q214 535 276 535Q337 535 368 530Q399 525 429 507Q459 489 472 450Q485 411 485 347Q485 225 348
225H124Q124 132 145 100Q166 69 225 69Q407 69 475 79V23Q376 -5 225 -5Q124 -5 87 53Q50 111 50 268ZM124 298H348Q411 298 411 347Q411 424 388 442Q366 461 283 461Q180 461 160 440Q132 410 128 374Q124 338 124 298Z" />
<glyph unicode="&#xea;" glyph-name="ecircumflex" horiz-adv-x="525" d="M128 596L245 726H316L420 596H349L278 667L200 596H128ZM50 268Q50 356 62 410Q74 463 106 490Q137 518 176 526Q214 535 276 535Q337 535 368 530Q399 525 429 507Q459 489 472 450Q485
411 485 347Q485 225 348 225H124Q124 132 145 100Q166 69 225 69Q407 69 475 79V23Q376 -5 225 -5Q124 -5 87 53Q50 111 50 268ZM124 298H348Q411 298 411 347Q411 424 388 442Q366 461 283 461Q180 461 160 440Q132 410 128 374Q124 338 124 298Z" />
<glyph unicode="&#xeb;" glyph-name="edieresis" horiz-adv-x="525" d="M93 647Q93 668 108 682Q123 697 144 697Q165 697 180 682Q194 668 194 647Q194 626 180 611Q165 596 144 596Q123 596 108 611Q93 626 93 647ZM348 647Q348 668 363 682Q378 697 399 697Q420
697 434 682Q449 668 449 647Q449 626 434 611Q420 596 399 596Q378 596 363 611Q348 626 348 647ZM50 268Q50 356 62 410Q74 463 106 490Q137 518 176 526Q214 535 276 535Q337 535 368 530Q399 525 429 507Q459 489 472 450Q485 411 485 347Q485 225 348 225H124Q124
132 145 100Q166 69 225 69Q407 69 475 79V23Q376 -5 225 -5Q124 -5 87 53Q50 111 50 268ZM124 298H348Q411 298 411 347Q411 424 388 442Q366 461 283 461Q180 461 160 440Q132 410 128 374Q124 338 124 298Z" />
<glyph unicode="&#xec;" glyph-name="igrave" horiz-adv-x="194" d="M-70 729H24L132 596H62L-70 729ZM60 0V531H134V0H60Z" />
<glyph unicode="&#xed;" glyph-name="iacute" horiz-adv-x="194" d="M62 596L170 729H264L132 596H62ZM60 0V531H134V0H60Z" />
<glyph unicode="&#xee;" glyph-name="icircumflex" horiz-adv-x="194" d="M-49 596L68 726H139L243 596H172L101 667L23 596H-49ZM60 0V531H134V0H60Z" />
<glyph unicode="&#xef;" glyph-name="idieresis" horiz-adv-x="194" d="M-81 647Q-81 668 -66 682Q-51 697 -30 697Q-9 697 6 682Q20 668 20 647Q20 626 6 611Q-9 596 -30 596Q-51 596 -66 611Q-81 626 -81 647ZM174 647Q174 668 189 682Q204 697 225 697Q246
697 260 682Q275 668 275 647Q275 626 260 611Q246 596 225 596Q204 596 189 611Q174 626 174 647ZM60 0V531H134V0H60Z" />
<glyph unicode="&#xf0;" glyph-name="eth" horiz-adv-x="538" d="M79 62Q40 125 40 262Q40 398 80 464Q121 531 218 531H318Q374 531 388 516Q363 599 314 648L169 590L145 650L254 694Q208 718 143 718H124V783Q256 783 333 724L451 771L476 711L385 675Q498
536 498 264Q498 122 451 61Q404 0 318 0H218Q118 0 79 62ZM127 386Q114 343 114 271Q114 199 122 160Q129 120 145 102Q161 85 176 80Q192 76 218 76H318Q378 76 401 122Q424 169 424 273Q424 377 402 417Q381 457 318 457H218Q182 457 161 444Q140 430 127 386Z"
/>
<glyph unicode="&#xf1;" glyph-name="ntilde" horiz-adv-x="544" d="M334 670Q357 670 424 706L446 664Q443 662 422 644Q368 601 335 601Q305 601 273 618Q241 635 222 635Q204 635 190 630Q175 624 158 614Q142 605 129 600L108 641Q135 663 148 674Q162 684
184 694Q207 705 230 704T288 686Q321 670 328 670H334ZM60 0V531H112L134 469Q137 470 156 482Q175 493 180 495Q184 497 201 506Q218 516 225 518Q232 520 248 526Q264 532 274 534Q306 540 330 540Q406 540 450 490Q494 440 494 370V0H420V370Q420 417 395 442Q370
466 331 466Q292 466 258 458Q224 450 204 442Q183 433 134 409V0H60Z" />
<glyph unicode="&#xf2;" glyph-name="ograve" horiz-adv-x="568" d="M126 729H222L328 596H260L126 729ZM101 54Q50 113 50 266Q50 419 101 478Q152 536 285 536Q418 536 468 476Q518 417 518 263Q518 109 468 52Q418 -5 285 -5Q152 -5 101 54ZM130 352Q124 315
124 254Q124 193 134 154Q143 115 166 97Q190 79 214 74Q239 69 284 69Q330 69 356 74Q381 79 404 98Q426 116 435 154Q444 193 444 261Q444 329 436 370Q429 411 407 432Q385 452 360 457Q334 462 290 462Q246 462 224 459Q202 456 180 445T148 412Q137 390 130
352Z" />
<glyph unicode="&#xf3;" glyph-name="oacute" horiz-adv-x="568" d="M250 596L356 729H452L318 596H250ZM101 54Q50 113 50 266Q50 419 101 478Q152 536 285 536Q418 536 468 476Q518 417 518 263Q518 109 468 52Q418 -5 285 -5Q152 -5 101 54ZM130 352Q124 315
124 254Q124 193 134 154Q143 115 166 97Q190 79 214 74Q239 69 284 69Q330 69 356 74Q381 79 404 98Q426 116 435 154Q444 193 444 261Q444 329 436 370Q429 411 407 432Q385 452 360 457Q334 462 290 462Q246 462 224 459Q202 456 180 445T148 412Q137 390 130
352Z" />
<glyph unicode="&#xf4;" glyph-name="ocircumflex" horiz-adv-x="568" d="M143 596L260 726H331L435 596H364L293 667L215 596H143ZM101 54Q50 113 50 266Q50 419 101 478Q152 536 285 536Q418 536 468 476Q518 417 518 263Q518 109 468 52Q418 -5 285 -5Q152
-5 101 54ZM130 352Q124 315 124 254Q124 193 134 154Q143 115 166 97Q190 79 214 74Q239 69 284 69Q330 69 356 74Q381 79 404 98Q426 116 435 154Q444 193 444 261Q444 329 436 370Q429 411 407 432Q385 452 360 457Q334 462 290 462Q246 462 224 459Q202 456
180 445T148 412Q137 390 130 352Z" />
<glyph unicode="&#xf5;" glyph-name="otilde" horiz-adv-x="568" d="M350 666Q373 666 440 702L462 660Q459 658 438 640Q384 597 351 597Q321 597 289 614Q257 631 238 631Q220 631 206 626Q191 620 174 610Q158 601 145 596L124 637Q151 659 164 670Q178 680
200 690Q223 701 246 700T304 682Q337 666 344 666H350ZM101 54Q50 113 50 266Q50 419 101 478Q152 536 285 536Q418 536 468 476Q518 417 518 263Q518 109 468 52Q418 -5 285 -5Q152 -5 101 54ZM130 352Q124 315 124 254Q124 193 134 154Q143 115 166 97Q190 79
214 74Q239 69 284 69Q330 69 356 74Q381 79 404 98Q426 116 435 154Q444 193 444 261Q444 329 436 370Q429 411 407 432Q385 452 360 457Q334 462 290 462Q246 462 224 459Q202 456 180 445T148 412Q137 390 130 352Z" />
<glyph unicode="&#xf6;" glyph-name="odieresis" horiz-adv-x="568" d="M107 647Q107 668 122 682Q137 697 158 697Q179 697 194 682Q208 668 208 647Q208 626 194 611Q179 596 158 596Q137 596 122 611Q107 626 107 647ZM362 647Q362 668 377 682Q392 697 413
697Q434 697 448 682Q463 668 463 647Q463 626 448 611Q434 596 413 596Q392 596 377 611Q362 626 362 647ZM101 54Q50 113 50 266Q50 419 101 478Q152 536 285 536Q418 536 468 476Q518 417 518 263Q518 109 468 52Q418 -5 285 -5Q152 -5 101 54ZM130 352Q124
315 124 254Q124 193 134 154Q143 115 166 97Q190 79 214 74Q239 69 284 69Q330 69 356 74Q381 79 404 98Q426 116 435 154Q444 193 444 261Q444 329 436 370Q429 411 407 432Q385 452 360 457Q334 462 290 462Q246 462 224 459Q202 456 180 445T148 412Q137 390
130 352Z" />
<glyph unicode="&#xf7;" glyph-name="divide" horiz-adv-x="516" d="M50 316V390H466V316H50ZM212 173V227Q212 252 236 252H286Q309 252 309 227V173Q309 150 286 150H236Q212 150 212 173ZM212 472V526Q212 551 236 551H286Q309 551 309 526V472Q309 449 286
449H236Q212 449 212 472Z" />
<glyph unicode="&#xf8;" glyph-name="oslash" horiz-adv-x="568" d="M95 61Q50 118 50 268Q50 419 101 478Q152 536 284 536Q376 536 425 511L440 531H506L467 478Q518 419 518 264Q518 109 468 52Q418 -5 284 -5Q184 -5 132 27L112 0H51L95 61ZM130 352Q124 315
124 242Q124 170 144 127L381 450Q352 462 299 462Q246 462 224 459Q202 456 180 445T148 412Q137 390 130 352ZM177 88Q206 69 268 69Q330 69 356 74Q381 79 404 98Q426 116 435 154Q444 193 444 258Q444 373 420 415L177 88Z" />
<glyph unicode="&#xf9;" glyph-name="ugrave" horiz-adv-x="544" d="M110 729H204L312 596H242L110 729ZM50 161V531H124V161Q124 114 149 90Q174 65 213 65Q252 65 286 73Q320 81 340 90Q361 98 410 122V531H484V0H432L410 62Q407 61 388 50Q369 38 364 36Q360
34 343 24Q326 15 319 13Q312 11 296 5Q280 -1 270 -3Q238 -9 214 -9Q138 -9 94 41Q50 91 50 161Z" />
<glyph unicode="&#xfa;" glyph-name="uacute" horiz-adv-x="544" d="M232 596L340 729H434L302 596H232ZM50 161V531H124V161Q124 114 149 90Q174 65 213 65Q252 65 286 73Q320 81 340 90Q361 98 410 122V531H484V0H432L410 62Q407 61 388 50Q369 38 364 36Q360
34 343 24Q326 15 319 13Q312 11 296 5Q280 -1 270 -3Q238 -9 214 -9Q138 -9 94 41Q50 91 50 161Z" />
<glyph unicode="&#xfb;" glyph-name="ucircumflex" horiz-adv-x="544" d="M121 596L238 726H309L413 596H342L271 667L193 596H121ZM50 161V531H124V161Q124 114 149 90Q174 65 213 65Q252 65 286 73Q320 81 340 90Q361 98 410 122V531H484V0H432L410 62Q407 61
388 50Q369 38 364 36Q360 34 343 24Q326 15 319 13Q312 11 296 5Q280 -1 270 -3Q238 -9 214 -9Q138 -9 94 41Q50 91 50 161Z" />
<glyph unicode="&#xfc;" glyph-name="udieresis" horiz-adv-x="544" d="M89 647Q89 668 104 682Q119 697 140 697Q161 697 176 682Q190 668 190 647Q190 626 176 611Q161 596 140 596Q119 596 104 611Q89 626 89 647ZM344 647Q344 668 359 682Q374 697 395 697Q416
697 430 682Q445 668 445 647Q445 626 430 611Q416 596 395 596Q374 596 359 611Q344 626 344 647ZM50 161V531H124V161Q124 114 149 90Q174 65 213 65Q252 65 286 73Q320 81 340 90Q361 98 410 122V531H484V0H432L410 62Q407 61 388 50Q369 38 364 36Q360 34 343
24Q326 15 319 13Q312 11 296 5Q280 -1 270 -3Q238 -9 214 -9Q138 -9 94 41Q50 91 50 161Z" />
<glyph unicode="&#xfd;" glyph-name="yacute" horiz-adv-x="554" d="M242 596L349 729H444L311 596H242ZM21 531H102L231 116Q238 96 244 90Q251 84 256 81T266 76T276 74Q280 74 284 74Q293 76 297 77L449 531H532L298 -168L223 -270H177L271 0Q185 0 151 110L21 531Z" />
<glyph unicode="&#xfe;" glyph-name="thorn" horiz-adv-x="554" d="M70 -270V782H144V471Q171 490 232 515Q294 540 341 540Q388 540 424 517Q459 494 478 454Q514 378 514 267Q514 113 468 48Q449 23 416 6Q383 -10 342 -10Q301 -10 245 0Q189 11 144 29V-270H70ZM339
64Q389 64 414 108Q440 153 440 258Q440 362 413 414Q386 466 339 466Q261 461 144 416V89Q191 75 224 72Q257 69 270 68Q322 64 339 64Z" />
<glyph unicode="&#xff;" glyph-name="ydieresis" horiz-adv-x="554" d="M113 611Q98 626 98 641T102 666Q107 676 113 683Q128 697 149 697Q170 697 185 682Q200 668 200 647Q200 626 185 611Q170 596 149 596Q128 596 113 611ZM354 647Q354 668 368 682Q383 697
404 697Q426 697 440 682Q454 668 454 647Q454 626 440 611Q425 596 404 596Q384 596 369 611Q354 626 354 647ZM21 531H102L231 116Q238 96 244 90Q251 84 256 81T266 76T276 74Q280 74 284 74Q293 76 297 77L449 531H532L298 -168L223 -270H177L271 0Q185 0 151
110L21 531Z" />
<glyph unicode="&#x2013;" glyph-name="endash" horiz-adv-x="513" d="M20 250V325H493V250H20Z" />
<glyph unicode="&#x2014;" glyph-name="emdash" horiz-adv-x="736" d="M20 252V327H716V252H20Z" />
<glyph unicode="&#x2018;" glyph-name="quoteleft" horiz-adv-x="270" d="M169 742Q175 742 184 740V705H182Q150 705 150 671V643H162Q190 643 190 616V557Q190 527 162 527H106Q80 527 80 557V656Q80 742 169 742Z" />
<glyph unicode="&#x2019;" glyph-name="quoteright" horiz-adv-x="270" d="M80 653V712Q80 742 108 742H164Q190 742 190 712V613Q190 584 180 564Q169 545 154 538Q127 526 114 526H96L86 528V563H88Q120 563 120 598V625H108Q80 625 80 653Z" />
<glyph unicode="&#x201a;" glyph-name="quotesinglbase" horiz-adv-x="270" d="M80 27V86Q80 116 108 116H164Q190 116 190 86V-13Q190 -42 180 -62Q169 -82 154 -88Q126 -100 113 -100H96L86 -98V-63H88Q120 -63 120 -28V-1H108Q80 -1 80 27Z" />
<glyph unicode="&#x201c;" glyph-name="quotedblleft" horiz-adv-x="418" d="M235 557V656Q235 685 246 704Q267 742 320 742H329L340 740V705H338Q305 705 305 671V644H318Q345 644 345 616V557Q345 527 318 527H262Q235 527 235 557ZM162 742Q168 742 177 740V705H175Q143
705 143 671V644H155Q183 644 183 616V557Q183 527 155 527H99Q73 527 73 557V656Q73 742 162 742Z" />
<glyph unicode="&#x201d;" glyph-name="quotedblright" horiz-adv-x="418" d="M73 653V712Q73 742 100 742H156Q183 742 183 712V613Q183 584 172 564Q161 545 146 538Q120 526 106 526H89L78 528V563H80Q112 563 112 598V625H100Q73 625 73 653ZM235 653V712Q235
742 263 742H319Q345 742 345 712V613Q345 584 334 564Q324 545 308 538Q282 526 268 526H252L241 528V563H243Q275 563 275 598V625H263Q235 625 235 653Z" />
<glyph unicode="&#x201e;" glyph-name="quotedblbase" horiz-adv-x="418" d="M73 27V86Q73 116 100 116H156Q183 116 183 86V-13Q183 -42 172 -62Q161 -82 146 -88Q119 -100 106 -100H89L78 -98V-63H80Q112 -63 112 -28V-1H100Q73 -1 73 27ZM235 27V86Q235 116
263 116H319Q345 116 345 86V-13Q345 -42 334 -62Q324 -82 308 -88Q281 -100 268 -100H252L241 -98V-63H243Q275 -63 275 -28V-1H263Q235 -1 235 27Z" />
<glyph unicode="&#x2022;" glyph-name="bullet" horiz-adv-x="312" d="M85 341V421Q85 456 118 456H192Q227 456 227 421V341Q227 309 192 309H118Q85 309 85 341Z" />
<glyph unicode="&#x2039;" glyph-name="guilsinglleft" horiz-adv-x="357" d="M50 354L256 557L308 505L153 354L313 198L261 146L50 354Z" />
<glyph unicode="&#x203a;" glyph-name="guilsinglright" horiz-adv-x="357" d="M50 198L210 354L55 505L107 557L313 354L102 146L50 198Z" />
</font>
</defs>
</svg>
