<?xml version="1.0" standalone="no"?>
<!DOCTYPE svg PUBLIC "-//W3C//DTD SVG 1.1//EN" "http://www.w3.org/Graphics/SVG/1.1/DTD/svg11.dtd">
<svg xmlns="http://www.w3.org/2000/svg">
<defs >
<font id="PlusJakartaSans" horiz-adv-x="545" ><font-face
    font-family="Plus Jakarta Sans"
    units-per-em="1000"
    panose-1="0 0 0 0 0 0 0 0 0 0"
    ascent="1038"
    descent="-222"
    alphabetic="0" />
<glyph unicode=" " horiz-adv-x="170" />
<glyph unicode="!" horiz-adv-x="282" d="M106 214L101 745H181L176 214H106ZM101 0V110H181V0H101Z" />
<glyph unicode="&quot;" horiz-adv-x="395" d="M95 527L82 745H162L150 527H95ZM245 527L232 745H312L300 527H245Z" />
<glyph unicode="#" horiz-adv-x="790" d="M103 0L159 195H39V265H179L241 480H121V550H261L317 745H397L341 550H551L607 745H687L631 550H751V480H611L549 265H669V195H529L473 0H393L449 195H239L183 0H103ZM259 265H469L531 480H321L259 265Z" />
<glyph unicode="$" horiz-adv-x="646" d="M339 -12Q268 -12 210 15T112 87T55 188L127 215Q153 139 208 100T339 60Q387 60 423 75T480 119T500 184Q500 239 470 269T384 315L250 355Q171 378 129 432T86 555Q86 614 115 659T194 731T309 757Q376 757 429 733T520
668T573 579L503 551Q479 617 429 651T310 685Q267 685 235 670T184 627T166 561Q166 515 195 479T284 424L402 389Q490 363 535 314T580 191Q580 131 550 86T465 14T339 -12ZM296 -100V845H366V-100H296Z" />
<glyph unicode="%" horiz-adv-x="974" d="M138 0L748 745H845L235 0H138ZM247 367Q193 367 149 393T79 464T52 562Q52 616 78 660T149 731T247 757Q301 757 345 731T415 661T441 562Q441 508 415 464T345 394T247 367ZM247 439Q282 439 308 456T350 502T366 562Q366
594 351 622T309 667T247 685Q213 685 186 668T143 622T127 562Q127 531 142 503T185 457T247 439ZM727 -12Q673 -12 629 14T559 85T532 183Q532 237 558 281T629 352T727 378Q781 378 825 352T895 282T921 183Q921 129 895 85T825 15T727 -12ZM727 60Q762 60 788
77T830 123T846 183Q846 215 831 243T789 288T727 306Q693 306 666 289T623 243T607 183Q607 152 622 124T665 78T727 60Z" />
<glyph unicode="&amp;" horiz-adv-x="734" d="M264 -12Q204 -12 157 11T83 76T56 174Q56 222 74 259T118 323T172 370T219 401L271 433Q299 450 326 471T372 521T391 585Q391 627 363 655T293 683Q250 683 223 655T195 584Q195 556 208 529T242 478T285 430L695
0H588L222 378Q198 403 174 433T132 500T115 581Q115 633 139 672T203 734T293 757Q341 757 381 735T445 674T469 585Q469 532 445 493T385 425T320 378L270 347Q243 330 213 307T162 252T141 176Q141 122 176 92T266 62Q302 62 330 74T380 105T420 149T454 198L569
369H660L526 165Q510 140 487 110T433 52T361 6T264 -12Z" />
<glyph unicode="&apos;" horiz-adv-x="245" d="M95 527L82 745H162L150 527H95Z" />
<glyph unicode="(" horiz-adv-x="295" d="M210 -140Q131 -50 90 63T48 303Q48 431 89 543T210 745H275Q203 645 166 532T128 303Q128 187 165 74T275 -140H210Z" />
<glyph unicode=")" horiz-adv-x="295" d="M20 -140Q92 -39 129 74T167 303Q167 419 130 532T20 745H85Q165 656 206 544T247 303Q247 176 206 63T85 -140H20Z" />
<glyph unicode="*" horiz-adv-x="479" d="M152 383L94 425L180 539L53 582L75 650L203 608V745H275V608L403 650L425 582L298 539L384 425L326 383L239 497L152 383Z" />
<glyph unicode="+" horiz-adv-x="606" d="M266 0V213H53V288H266V500H341V288H553V213H341V0H266Z" />
<glyph unicode="," horiz-adv-x="270" d="M80 -130V-95Q110 -87 124 -64T138 0H100V110H180V26Q180 -39 155 -78T80 -130Z" />
<glyph unicode="-" horiz-adv-x="498" d="M74 233V303H424V233H74Z" />
<glyph unicode="." horiz-adv-x="286" d="M103 0V110H183V0H103Z" />
<glyph unicode="/" horiz-adv-x="429" d="M2 -120L340 704H427L89 -120H2Z" />
<glyph unicode="0" horiz-adv-x="732" d="M367 -12Q279 -12 213 36T109 171T72 373Q72 488 109 574T212 709T366 757Q454 757 520 709T623 575T660 373Q660 258 624 171T521 36T367 -12ZM367 63Q431 63 479 102T554 210T581 373Q581 466 554 535T479 643T366 682Q302
682 254 644T179 536T152 373Q152 281 179 211T254 102T367 63Z" />
<glyph unicode="1" horiz-adv-x="371" d="M181 0V675H41V745H261V0H181Z" />
<glyph unicode="2" horiz-adv-x="600" d="M58 0V50L266 279Q327 346 365 390T423 470T442 548Q442 615 403 651T299 687Q232 687 187 649T125 543L52 559Q65 620 99 664T184 732T298 757Q365 757 415 730T493 656T522 548Q522 506 505 467T452 383T362 278L173
70H542V0H58Z" />
<glyph unicode="3" horiz-adv-x="609" d="M294 -12Q236 -12 187 8T102 65T46 153L110 183Q133 125 182 92T294 58Q344 58 383 77T444 134T466 224Q466 277 444 314T382 370T293 389Q280 389 265 388T239 385L223 420L424 675H81V745H514V675L326 438L316 451Q383
449 435 420T516 340T546 224Q546 158 514 105T425 20T294 -12Z" />
<glyph unicode="4" horiz-adv-x="630" d="M425 0V176H46V241L425 745H495V241H586V176H495V0H425ZM107 212L98 241H425V676L450 669L107 212Z" />
<glyph unicode="5" horiz-adv-x="616" d="M302 -12Q244 -12 195 8T108 65T52 153L113 183Q136 125 188 92T302 58Q351 58 389 81T450 143T472 232Q472 283 450 322T389 383T303 406Q254 406 213 384T152 329L89 341L145 745H522V675H174L205 702L160 384L129 398Q164
441 211 459T307 478Q379 478 434 445T520 356T552 232Q552 163 520 108T431 20T302 -12Z" />
<glyph unicode="6" horiz-adv-x="597" d="M300 -12Q230 -12 176 19T91 106T60 234Q60 274 69 313T98 390T146 466L356 745H452L193 406L178 397Q193 422 213 435T257 455T310 461Q375 461 427 431T509 347T540 224Q540 157 509 104T423 19T300 -12ZM300 58Q346
58 382 79T439 139T460 224Q460 272 440 309T383 367T300 389Q254 389 218 368T161 309T140 224Q140 177 161 139T218 80T300 58Z" />
<glyph unicode="7" horiz-adv-x="543" d="M79 0L415 675H43V745H498V675L163 0H79Z" />
<glyph unicode="8" horiz-adv-x="628" d="M314 -12Q242 -12 186 17T97 98T64 215Q64 286 104 342T214 420V399Q161 422 132 467T103 565Q103 620 131 663T206 731T314 757Q375 757 422 733T496 665T524 565Q524 509 494 466T415 399L414 420Q483 398 523 342T564
215Q564 150 532 99T443 18T314 -12ZM314 58Q365 58 403 77T462 132T484 215Q484 262 463 297T403 352T314 372Q263 372 225 353T165 298T144 215Q144 168 165 133T224 78T314 58ZM314 442Q351 442 380 457T426 500T444 565Q444 602 427 629T380 671T314 687Q277
687 248 672T201 629T183 565Q183 528 200 501T247 458T314 442Z" />
<glyph unicode="9" horiz-adv-x="597" d="M145 0L404 339L419 348Q404 324 384 310T340 290T287 284Q222 284 170 314T88 398T57 521Q57 589 88 642T174 726T297 757Q367 757 421 726T506 639T537 511Q537 471 528 432T499 355T451 279L241 0H145ZM297 356Q344
356 380 377T436 436T457 521Q457 569 436 606T379 665T297 687Q251 687 215 666T158 607T137 521Q137 474 157 437T214 378T297 356Z" />
<glyph unicode=":" horiz-adv-x="286" d="M103 0V110H183V0H103ZM103 426V536H183V426H103Z" />
<glyph unicode=";" horiz-adv-x="306" d="M103 -130V-100Q133 -92 149 -67T166 0H123V110H203V26Q203 -39 178 -78T103 -130ZM123 426V536H203V426H123Z" />
<glyph unicode="&lt;" horiz-adv-x="606" d="M534 39L124 234V302L534 497V416L178 253V283L534 120V39Z" />
<glyph unicode="=" horiz-adv-x="606" d="M78 331V406H528V331H78ZM78 96V171H528V96H78Z" />
<glyph unicode="&gt;" horiz-adv-x="606" d="M72 39V120L428 283V253L72 416V497L482 302V234L72 39Z" />
<glyph unicode="?" horiz-adv-x="499" d="M167 214V224Q167 269 183 303T225 366T277 420Q315 456 345 492T375 578Q375 606 361 631T320 671T253 687Q197 687 157 652T106 559L35 574Q44 629 74 670T150 734T253 757Q313 757 358 732T429 667T455 578Q455 533
436 498T388 434T330 375Q297 342 272 307T247 224V214H167ZM170 0V110H250V0H170Z" />
<glyph unicode="@" horiz-adv-x="929" d="M482 -207Q394 -207 319 -176T186 -87T98 45T66 208Q66 295 98 370T186 501T319 588T482 620Q572 620 648 587T779 496T865 365T896 212Q896 149 877 102T820 27T731 0Q700 0 672 11T625 44T598 96L614 83Q598 56 575
38T522 10T459 0Q401 0 355 28T281 104T254 213Q254 274 281 322T354 398T459 427Q508 427 548 407T613 351L606 339V417H671V141Q671 104 687 87T732 70Q774 70 797 105T821 210Q821 282 796 344T726 452T619 524T482 550Q409 550 347 525T238 453T167 345T141
209Q141 137 165 75T235 -35T344 -110T484 -137Q529 -137 571 -128T647 -99L679 -159Q594 -207 482 -207ZM462 70Q501 70 531 89T578 140T596 214Q596 276 558 315T462 355Q424 355 394 337T346 286T329 213Q329 173 346 141T394 89T462 70Z" />
<glyph unicode="A" horiz-adv-x="652" d="M11 0L283 745H369L641 0H557L493 182H160L95 0H11ZM186 257H465L314 685H338L186 257Z" />
<glyph unicode="B" horiz-adv-x="693" d="M88 0V745H401Q464 745 510 722T582 656T608 558Q608 500 580 456T498 388L497 412Q541 396 572 367T621 300T638 217Q638 117 575 59T402 0H88ZM168 75H402Q473 75 515 112T558 216Q558 281 516 319T402 358H168V75ZM168
430H395Q455 430 491 465T528 555Q528 611 492 640T395 670H168V430Z" />
<glyph unicode="C" horiz-adv-x="781" d="M428 -12Q349 -12 283 16T169 96T93 218T66 372Q66 456 93 526T168 648T283 728T428 757Q504 757 564 730T666 661T726 571L651 538Q623 603 566 642T428 682Q346 682 282 643T182 535T146 372Q146 280 182 210T282 102T428
63Q508 63 565 102T651 206L726 173Q708 127 667 85T565 15T428 -12Z" />
<glyph unicode="D" horiz-adv-x="742" d="M88 0V745H333Q444 745 526 700T653 571T698 373Q698 260 653 176T526 46T333 0H88ZM168 75H333Q419 75 482 111T579 215T614 373Q614 464 579 530T481 633T333 670H168V75Z" />
<glyph unicode="E" horiz-adv-x="612" d="M88 0V745H568V670H168V411H548V336H168V75H568V0H88Z" />
<glyph unicode="F" horiz-adv-x="581" d="M88 0V745H548V670H168V411H518V336H168V0H88Z" />
<glyph unicode="G" horiz-adv-x="821" d="M428 -12Q349 -12 283 16T169 96T93 218T66 372Q66 456 93 526T168 648T283 728T428 757Q504 757 564 730T666 661T726 571L654 536Q626 604 568 643T428 682Q346 682 282 643T182 535T146 372Q146 280 182 210T282 102T428
63Q501 63 559 95T652 182T686 310V351L722 315H428V385H766V323Q766 250 740 189T668 82T561 13T428 -12Z" />
<glyph unicode="H" horiz-adv-x="736" d="M88 0V745H168V410H568V745H648V0H568V335H168V0H88Z" />
<glyph unicode="I" horiz-adv-x="256" d="M88 0V745H168V0H88Z" />
<glyph unicode="J" horiz-adv-x="383" d="M55 0V80H95Q151 80 183 113T215 205V745H295V205Q295 142 271 96T201 25T95 0H55Z" />
<glyph unicode="K" horiz-adv-x="654" d="M88 0V745H168V310L150 319L525 745H625L324 403L328 460L643 0H547L293 367L168 225V0H88Z" />
<glyph unicode="L" horiz-adv-x="531" d="M88 0V745H168V75H498V0H88Z" />
<glyph unicode="M" horiz-adv-x="836" d="M88 0V745H158L438 339H399L678 745H748V0H668V637L694 627L420 230H416L143 627L168 637V0H88Z" />
<glyph unicode="N" horiz-adv-x="736" d="M88 0V745H158L595 118H568V745H648V0H578L141 631H168V0H88Z" />
<glyph unicode="O" horiz-adv-x="878" d="M439 -12Q361 -12 294 16T175 96T95 218T66 373Q66 457 95 527T175 649T293 729T439 757Q517 757 584 729T703 649T783 527T812 373Q812 289 783 219T703 97T585 17T439 -12ZM439 63Q504 63 557 87T650 154T710 253T732
373Q732 436 711 492T650 591T558 658T439 682Q374 682 321 658T228 591T168 492T146 373Q146 309 167 253T228 154T321 87T439 63Z" />
<glyph unicode="P" horiz-adv-x="643" d="M88 0V745H344Q417 745 472 717T557 637T588 517Q588 449 558 398T473 319T344 290H168V0H88ZM168 365H348Q396 365 432 383T488 436T508 518Q508 565 488 599T432 651T348 670H168V365Z" />
<glyph unicode="Q" horiz-adv-x="878" d="M439 -12Q361 -12 294 16T175 96T95 218T66 373Q66 457 95 527T175 649T293 729T439 757Q517 757 584 729T703 649T783 527T812 373Q812 289 783 219T703 97T585 17T439 -12ZM439 63Q504 63 557 87T650 154T710 253T732
373Q732 436 711 492T650 591T558 658T439 682Q374 682 321 658T228 591T168 492T146 373Q146 309 167 253T228 154T321 87T439 63ZM654 -90L389 298H480L745 -90H654Z" />
<glyph unicode="R" horiz-adv-x="641" d="M88 0V745H344Q417 745 472 717T557 637T588 517Q588 438 547 382T434 303L608 0H514L332 321L386 290H168V0H88ZM168 365H348Q396 365 432 383T488 436T508 518Q508 565 488 599T432 651T348 670H168V365Z" />
<glyph unicode="S" horiz-adv-x="646" d="M339 -12Q268 -12 210 15T112 87T55 188L127 215Q153 139 208 100T339 60Q387 60 423 75T480 119T500 184Q500 239 470 269T384 315L250 355Q171 378 129 432T86 555Q86 614 115 659T194 731T309 757Q376 757 429 733T520
668T573 579L503 551Q479 617 429 651T310 685Q267 685 235 670T184 627T166 561Q166 515 195 479T284 424L402 389Q490 363 535 314T580 191Q580 131 550 86T465 14T339 -12Z" />
<glyph unicode="T" horiz-adv-x="512" d="M217 0V670H11V745H501V670H297V0H217Z" />
<glyph unicode="U" horiz-adv-x="700" d="M350 -12Q271 -12 211 21T118 111T85 243V745H165V243Q165 189 188 149T253 86T350 63Q405 63 446 85T511 148T535 243V745H615V243Q615 169 582 112T490 21T350 -12Z" />
<glyph unicode="V" horiz-adv-x="652" d="M284 0L11 745H94L334 71H318L557 745H641L368 0H284Z" />
<glyph unicode="W" horiz-adv-x="984" d="M225 0L11 745H92L277 78H260L450 745H535L724 78H706L892 745H973L759 0H674L483 670H501L310 0H225Z" />
<glyph unicode="X" horiz-adv-x="597" d="M11 0L253 380L19 745H109L312 427H285L487 745H577L343 380L586 0H496L285 332H312L99 0H11Z" />
<glyph unicode="Y" horiz-adv-x="623" d="M272 0V346L11 745H100L328 398H296L523 745H612L352 346V0H272Z" />
<glyph unicode="Z" horiz-adv-x="584" d="M22 0V54L448 670H47V745H553V691L128 75H562V0H22Z" />
<glyph unicode="[" horiz-adv-x="315" d="M88 -140V745H288V675H168V-70H288V-140H88Z" />
<glyph unicode="\" horiz-adv-x="429" d="M340 -120L2 705H89L427 -120H340Z" />
<glyph unicode="]" horiz-adv-x="315" d="M27 -140V-70H147V675H27V745H227V-140H27Z" />
<glyph unicode="^" horiz-adv-x="606" d="M99 425L268 745H338L507 425H421L288 684H321L185 425H99Z" />
<glyph unicode="_" horiz-adv-x="598" d="M74 -70V0H524V-70H74Z" />
<glyph unicode="`" horiz-adv-x="352" d="M217 640L103 790H206L293 640H217Z" />
<glyph unicode="a" horiz-adv-x="572" d="M232 -12Q181 -12 141 7T78 61T55 139Q55 181 73 215T129 274T226 308L436 343V275L244 243Q186 233 161 206T135 142Q135 106 163 81T237 56Q292 56 333 79T397 143T420 232V368Q420 416 385 446T294 476Q245 476 208
452T153 388L85 425Q100 459 132 487T207 531T294 548Q353 548 398 525T469 462T495 368V0H420V107L431 96Q417 66 388 42T319 3T232 -12Z" />
<glyph unicode="b" horiz-adv-x="667" d="M348 -12Q279 -12 224 19T140 109L152 120V0H77V757H152V416L140 437Q172 488 225 518T348 548Q424 548 483 512T577 412T612 268Q612 188 578 125T484 25T348 -12ZM344 63Q398 63 440 90T507 163T532 268Q532 327 508
373T441 446T344 473Q290 473 247 446T178 373T152 268Q152 210 177 164T246 90T344 63Z" />
<glyph unicode="c" horiz-adv-x="600" d="M322 -12Q243 -12 183 25T89 125T55 269Q55 349 89 412T183 511T322 548Q372 548 416 530T494 482T545 411L477 376Q457 419 416 446T322 473Q269 473 227 447T160 374T135 268Q135 210 159 164T226 90T322 63Q375 63
415 90T477 162L545 125Q528 86 494 55T416 6T322 -12Z" />
<glyph unicode="d" horiz-adv-x="667" d="M319 -12Q244 -12 184 24T90 124T55 268Q55 349 89 412T183 511T319 548Q388 548 442 518T527 437L515 416V757H590V0H515V120L527 109Q499 51 444 20T319 -12ZM323 63Q377 63 420 90T489 163T515 268Q515 326 490 372T421
446T323 473Q270 473 227 446T160 373T135 268Q135 210 159 164T226 90T323 63Z" />
<glyph unicode="e" horiz-adv-x="615" d="M321 -12Q246 -12 186 24T90 125T55 270Q55 351 89 413T181 512T313 548Q371 548 416 527T494 469T543 387T560 293Q560 283 559 271T556 245H103V315H513L477 285Q486 340 465 383T403 452T313 478Q263 478 221 452T154
380T135 269Q130 205 155 158T225 84T321 58Q380 58 420 86T485 156L549 122Q533 86 500 56T422 7T321 -12Z" />
<glyph unicode="f" horiz-adv-x="393" d="M132 0V461H25V536H132V584Q132 640 157 678T223 737T311 757Q321 757 334 756T355 752V684Q348 686 336 686T319 687Q271 687 239 664T207 584V536H338V461H207V0H132Z" />
<glyph unicode="g" horiz-adv-x="662" d="M331 -220Q276 -220 230 -203T150 -157T98 -88L167 -51Q183 -89 224 -117T329 -145Q378 -145 419 -126T485 -70T510 21V140L522 129Q494 71 439 40T319 8Q244 8 184 44T90 141T55 278Q55 354 89 415T183 512T319 548Q384
548 437 518T522 437L510 416V536H585V21Q585 -48 553 -102T463 -188T331 -220ZM323 83Q375 83 417 109T484 180T510 278Q510 331 485 375T417 446T323 473Q270 473 227 447T160 376T135 278Q135 225 159 181T226 110T323 83Z" />
<glyph unicode="h" horiz-adv-x="573" d="M77 0V757H152V432L135 436Q155 488 200 518T306 548Q363 548 408 522T480 451T507 348V0H432V319Q432 368 414 402T365 454T293 473Q253 473 221 455T171 402T152 319V0H77Z" />
<glyph unicode="i" horiz-adv-x="229" d="M77 0V536H152V0H77ZM77 635V745H152V635H77Z" />
<glyph unicode="j" horiz-adv-x="229" d="M-23 -220Q-30 -220 -42 -219T-63 -216V-147Q-42 -150 -21 -150Q20 -150 48 -125T77 -50V536H152V-50Q152 -105 128 -143T65 -200T-23 -220ZM77 635V745H152V635H77Z" />
<glyph unicode="k" horiz-adv-x="548" d="M77 0V757H152V227L120 232L421 536H518L308 321L537 0H447L232 297L280 293L127 135L152 197V0H77Z" />
<glyph unicode="l" horiz-adv-x="229" d="M77 0V757H152V0H77Z" />
<glyph unicode="m" horiz-adv-x="908" d="M77 0V536H152V434L140 449Q162 496 205 522T301 548Q363 548 413 513T484 422L463 421Q483 483 532 515T642 548Q696 548 741 522T814 451T842 348V0H767V319Q767 368 750 402T702 454T633 473Q595 473 564 455T515 402T497
319V0H422V319Q422 368 405 402T357 454T288 473Q249 473 219 455T170 402T152 319V0H77Z" />
<glyph unicode="n" horiz-adv-x="573" d="M77 0V536H152V432L135 436Q155 488 200 518T306 548Q363 548 408 522T480 451T507 348V0H432V319Q432 368 415 402T366 454T293 473Q252 473 220 455T170 402T152 319V0H77Z" />
<glyph unicode="o" horiz-adv-x="655" d="M328 -12Q252 -12 190 24T92 124T55 269Q55 349 91 412T188 511T328 548Q406 548 467 512T564 413T600 269Q600 187 563 124T465 24T328 -12ZM328 63Q382 63 425 90T494 164T520 269Q520 327 495 373T426 446T328 473Q274
473 231 446T161 373T135 269Q135 211 161 164T230 90T328 63Z" />
<glyph unicode="p" horiz-adv-x="667" d="M77 -200V536H152V416L140 437Q172 488 225 518T348 548Q424 548 483 512T577 412T612 268Q612 188 578 125T484 25T348 -12Q279 -12 224 19T140 109L152 120V-200H77ZM344 63Q398 63 440 90T507 163T532 268Q532 327
508 373T441 446T344 473Q290 473 247 446T178 373T152 268Q152 210 177 164T246 90T344 63Z" />
<glyph unicode="q" horiz-adv-x="667" d="M515 -200V120L527 109Q499 51 444 20T319 -12Q244 -12 184 24T90 124T55 268Q55 349 89 412T183 511T319 548Q388 548 442 518T527 437L515 416V536H590V-200H515ZM323 63Q377 63 420 90T489 163T515 268Q515 326 490
372T421 446T323 473Q270 473 227 446T160 373T135 268Q135 210 159 164T226 90T323 63Z" />
<glyph unicode="r" horiz-adv-x="338" d="M77 0V536H152V448L142 461Q161 499 199 521T293 543H327V468H280Q222 468 187 432T152 330V0H77Z" />
<glyph unicode="s" horiz-adv-x="509" d="M263 -12Q186 -12 128 27T44 133L107 163Q130 114 171 85T263 56Q311 56 344 79T377 141Q377 169 361 185T324 211T287 224L210 246Q136 267 103 305T70 393Q70 440 94 475T159 529T250 548Q318 548 373 513T452 414L388
384Q368 429 331 454T247 480Q202 480 175 457T148 399Q148 372 162 356T194 332T227 320L316 294Q381 275 417 235T454 141Q454 97 430 62T362 8T263 -12Z" />
<glyph unicode="t" horiz-adv-x="388" d="M282 -6Q210 -6 171 36T132 156V461H33V536H58Q92 536 112 558T132 615V660H207V536H325V461H207V156Q207 129 215 109T242 76T295 64Q303 64 314 65T333 67V0Q321 -3 306 -4T282 -6Z" />
<glyph unicode="u" horiz-adv-x="573" d="M267 -12Q211 -12 165 14T93 88T66 198V536H141V207Q141 164 158 132T207 81T280 63Q321 63 353 81T403 134T421 217V536H496V0H421V104L438 100Q419 48 373 18T267 -12Z" />
<glyph unicode="v" horiz-adv-x="517" d="M220 0L11 536H95L271 66H244L421 536H506L295 0H220Z" />
<glyph unicode="w" horiz-adv-x="797" d="M195 0L11 536H96L248 67H218L361 536H436L579 67H549L702 536H786L602 0H527L388 459H409L270 0H195Z" />
<glyph unicode="x" horiz-adv-x="487" d="M11 0L199 268L12 536H104L270 295H219L384 536H476L289 268L476 0H384L219 241H270L104 0H11Z" />
<glyph unicode="y" horiz-adv-x="536" d="M88 -220Q72 -220 56 -218T23 -209V-139Q33 -140 48 -142T80 -145Q129 -145 155 -125T206 -46L240 34L238 -32L11 536H92L278 67H257L442 536H525L280 -68Q264 -107 240 -142T178 -198T88 -220Z" />
<glyph unicode="z" horiz-adv-x="449" d="M22 0V65L345 490L359 461H39V536H425V471L103 46L89 75H427V0H22Z" />
<glyph unicode="{" horiz-adv-x="317" d="M256 -140Q192 -140 152 -102T112 1V194Q112 227 97 247T48 267H20V337H48Q81 337 96 357T112 410V604Q112 668 152 706T256 745H290V675H256Q226 675 209 656T192 604V414Q194 381 182 353T144 302Q168 283 181 254T192
192V1Q191 -30 208 -50T256 -70H290V-140H256Z" />
<glyph unicode="|" horiz-adv-x="300" d="M110 -190V845H190V-190H110Z" />
<glyph unicode="}" horiz-adv-x="317" d="M27 -140V-70H61Q91 -70 109 -50T125 1V192Q124 224 136 253T173 302Q148 324 136 352T125 414V604Q127 636 109 655T61 675H27V745H61Q126 745 165 707T205 604V410Q205 377 220 357T269 337H297V267H269Q236 267 221
247T205 194V1Q205 -63 166 -101T61 -140H27Z" />
<glyph unicode="~" horiz-adv-x="606" d="M402 220Q369 220 346 230T303 255T264 279T220 290Q191 290 172 273T148 223H81Q87 291 122 325T211 360Q244 360 267 350T310 325T349 301T393 290Q419 290 436 306T459 357H526Q520 290 488 255T402 220Z" />
<glyph unicode="&#xa0;" horiz-adv-x="170" />
<glyph unicode="&#xa1;" horiz-adv-x="282" d="M101 -209L106 322H176L181 -209H101ZM101 426V536H181V426H101Z" />
<glyph unicode="&#xa2;" horiz-adv-x="600" d="M322 93Q243 93 183 130T89 230T55 374Q55 454 89 517T183 616T322 653Q372 653 416 635T494 587T545 516L477 481Q457 524 416 551T322 578Q269 578 227 552T160 479T135 373Q135 315 159 269T226 195T322 168Q375
168 415 195T477 267L545 230Q528 191 494 160T416 111T322 93ZM280 0V745H350V0H280Z" />
<glyph unicode="&#xa3;" horiz-adv-x="643" d="M44 0V70H144V540Q144 605 172 653T253 729T373 757Q434 757 482 734T561 667T599 563L526 547Q519 615 478 651T373 687Q303 687 264 648T224 540V70H563V0H44ZM44 346V411H393V346H44Z" />
<glyph unicode="&#xa4;" horiz-adv-x="588" d="M104 30L55 79L131 155Q114 179 104 208T94 269Q94 300 104 329T131 383L55 459L104 508L180 432Q205 449 234 459T294 469Q324 469 353 460T408 432L484 508L533 459L457 383Q474 358 484 330T494 269Q494 237 484
208T457 155L533 79L484 30L408 106Q384 89 355 79T294 69Q265 69 236 78T180 106L104 30ZM294 145Q328 145 356 161T401 206T418 269Q418 304 401 332T356 377T294 394Q260 394 232 377T186 332T169 269Q169 235 186 207T231 162T294 145Z" />
<glyph unicode="&#xa5;" horiz-adv-x="623" d="M272 0V346L11 745H100L328 398H296L523 745H612L352 346V0H272ZM137 308V373H486V308H137ZM137 153V218H486V153H137Z" />
<glyph unicode="&#xa6;" horiz-adv-x="300" d="M110 428V845H190V428H110ZM110 -190V228H190V-190H110Z" />
<glyph unicode="&#xa7;" horiz-adv-x="529" d="M274 -105Q192 -105 132 -64T44 47L109 78Q134 26 177 -4T274 -35Q325 -35 360 -10T395 56Q395 85 379 102T341 130T300 145L218 169Q141 192 106 231T71 323Q71 372 96 408T165 465T260 486L257 436Q209 436 180
409T151 339Q151 308 165 289T199 260T235 245L329 217Q397 197 435 155T474 56Q474 10 449 -26T378 -84T274 -105ZM274 166V216Q325 216 360 244T395 317Q395 349 379 368T341 399T300 416L218 440Q141 463 106 502T71 594Q71 643 96 679T165 736T260 757Q331
757 389 720T471 617L406 586Q384 633 345 660T257 687Q209 687 180 663T151 600Q151 572 165 555T199 530T235 516L329 488Q397 468 435 426T474 327Q474 281 449 245T378 187T274 166Z" />
<glyph unicode="&#xa8;" horiz-adv-x="436" d="M103 640V740H203V640H103ZM283 640V740H383V640H283Z" />
<glyph unicode="&#xa9;" horiz-adv-x="895" d="M448 -12Q368 -12 298 17T175 100T93 223T63 373Q63 452 92 521T175 644T297 727T448 757Q528 757 597 727T720 644T802 522T832 373Q832 292 802 223T719 100T597 18T448 -12ZM448 58Q514 58 571 82T671 149T738
249T762 373Q762 438 738 495T671 595T571 662T448 687Q382 687 325 663T224 596T157 496T133 373Q133 307 157 250T224 149T324 82T448 58ZM454 163Q396 163 351 190T279 265T252 373Q252 434 278 481T350 555T454 582Q497 582 531 568T590 529T624 477L562 447Q550
476 523 497T454 518Q396 518 359 478T322 373Q322 308 359 268T454 227Q493 227 521 247T562 298L624 268Q614 240 590 216T532 178T454 163Z" />
<glyph unicode="&#xaa;" horiz-adv-x="455" d="M183 361Q126 361 91 390T55 468Q55 515 87 546T181 588L316 611V551L196 531Q162 525 147 510T132 471Q132 449 149 435T193 420Q226 420 251 434T291 472T305 527V624Q305 653 283 671T226 690Q195 690 171 674T135
631L73 662Q90 705 134 730T228 755Q295 755 336 719T378 624V369H308V439L322 436Q303 402 268 382T183 361Z" />
<glyph unicode="&#xab;" horiz-adv-x="540" d="M181 79L29 269L181 459H271L119 269L271 79H181ZM421 79L269 269L421 459H511L359 269L511 79H421Z" />
<glyph unicode="&#xac;" horiz-adv-x="606" d="M478 40V213H53V288H553V40H478Z" />
<glyph unicode="&#xae;" horiz-adv-x="639" d="M320 272Q249 272 191 306T98 399T63 528Q63 599 97 657T190 749T320 784Q373 784 419 764T501 709T556 628T576 528Q576 458 542 400T449 307T320 272ZM320 330Q375 330 419 356T491 427T518 528Q518 583 491 628T420
699T320 726Q264 726 219 700T148 628T121 528Q121 473 147 428T219 357T320 330ZM222 394V664H331Q373 664 400 642T427 577Q427 550 416 531T381 500L444 394H379L325 489H280V394H222ZM280 541H331Q348 541 358 551T368 577Q368 592 358 602T331 612H280V541Z"
/>
<glyph unicode="&#xaf;" horiz-adv-x="440" d="M103 660V730H373V660H103Z" />
<glyph unicode="&#xb0;" horiz-adv-x="482" d="M241 440Q196 440 160 460T102 517T81 598Q81 643 102 679T159 736T241 757Q287 757 323 736T380 679T401 598Q401 553 380 517T323 461T241 440ZM240 502Q280 502 309 528T338 598Q338 642 309 668T240 695Q200
695 172 669T144 598Q144 555 172 529T240 502Z" />
<glyph unicode="&#xb1;" horiz-adv-x="606" d="M266 145V318H53V393H266V565H341V393H553V318H341V145H266ZM53 0V75H553V0H53Z" />
<glyph unicode="&#xb2;" horiz-adv-x="427" d="M40 223V278L183 432Q225 477 250 505T286 555T297 601Q297 641 273 662T211 684Q171 684 143 662T104 597L36 616Q45 659 70 689T132 736T211 753Q260 753 296 734T353 683T374 607Q374 558 346 517T271 426L143
289H385V223H40Z" />
<glyph unicode="&#xb3;" horiz-adv-x="436" d="M213 215Q172 215 136 230T73 272T35 337L100 363Q114 326 144 305T213 283Q260 283 289 310T319 385Q319 432 290 458T213 485Q188 485 167 478L150 513L288 679H62V745H374V682L241 520L238 543Q285 542 320 522T376
467T396 386Q396 337 373 299T308 238T213 215Z" />
<glyph unicode="&#xb4;" horiz-adv-x="352" d="M103 640L190 790H293L179 640H103Z" />
<glyph unicode="&#xb5;" horiz-adv-x="573" d="M66 -140V536H141V207Q141 164 158 132T207 81T280 63Q321 63 353 81T403 134T421 217V536H496V0H421V102L432 87Q411 41 367 15T267 -12Q225 -12 188 3T124 46L141 67V-140H66Z" />
<glyph unicode="&#xb6;" horiz-adv-x="398" d="M208 -100V423Q163 423 127 444T70 503T48 584Q48 629 69 665T127 723T208 745H288V-100H208Z" />
<glyph unicode="&#xb7;" horiz-adv-x="286" d="M103 213V323H183V213H103Z" />
<glyph unicode="&#xb8;" horiz-adv-x="382" d="M207 -230Q178 -230 150 -220T103 -193L124 -140Q139 -154 158 -162T197 -170Q219 -170 232 -159T246 -129Q246 -106 223 -93T148 -74L172 10H226L213 -38Q265 -49 291 -73T318 -134Q318 -176 287 -203T207 -230Z" />
<glyph unicode="&#xb9;" horiz-adv-x="302" d="M120 223V678H21V745H197V223H120Z" />
<glyph unicode="&#xba;" horiz-adv-x="503" d="M252 361Q198 361 153 386T82 456T55 558Q55 615 81 659T152 729T252 755Q307 755 351 730T422 660T448 558Q448 500 422 456T351 387T252 361ZM252 430Q286 430 312 447T355 493T371 558Q371 595 355 623T313 669T252
686Q218 686 191 669T148 624T132 558Q132 522 147 493T190 447T252 430Z" />
<glyph unicode="&#xbb;" horiz-adv-x="540" d="M269 79L421 269L269 459H359L511 269L359 79H269ZM29 79L181 269L29 459H119L271 269L119 79H29Z" />
<glyph unicode="&#xbc;" horiz-adv-x="891" d="M101 328V683H21V745H173V328H101ZM121 0L567 745H649L203 0H121ZM722 0V93H527V153L718 417H792V153H852V93H792V0H722ZM580 127L568 153H722V360L741 354L580 127Z" />
<glyph unicode="&#xbd;" horiz-adv-x="852" d="M101 328V683H21V745H173V328H101ZM121 0L567 745H649L203 0H121ZM531 0V54L645 174Q676 206 694 227T722 266T731 300Q731 328 714 343T669 359Q642 359 621 343T592 296L528 316Q535 349 555 373T606 411T669 424Q729
424 766 391T803 307Q803 267 780 235T725 167L626 62H810V0H531Z" />
<glyph unicode="&#xbe;" horiz-adv-x="982" d="M180 321Q129 321 89 348T35 422L97 445Q108 417 130 402T180 386Q214 386 235 406T257 460Q257 494 236 513T180 532Q170 532 159 530T139 524L123 558L231 684H58V745H312V687L205 561L204 586Q260 585 294 551T329
461Q329 422 310 390T257 340T180 321ZM212 0L658 745H740L294 0H212ZM813 0V93H618V153L809 417H883V153H943V93H883V0H813ZM671 127L659 153H813V360L832 354L671 127Z" />
<glyph unicode="&#xbf;" horiz-adv-x="499" d="M246 -221Q186 -221 141 -196T70 -130T44 -42Q44 3 63 38T111 102T169 161Q202 194 227 230T252 312V322H332V312Q332 267 316 233T275 170T222 116Q185 80 155 44T124 -42Q124 -70 138 -95T180 -135T246 -151Q302
-151 342 -116T393 -23L464 -38Q455 -93 425 -134T349 -198T246 -221ZM249 426V536H329V426H249Z" />
<glyph unicode="&#xc0;" horiz-adv-x="652" d="M11 0L283 745H369L641 0H557L493 182H160L95 0H11ZM186 257H465L314 685H338L186 257ZM288 849L174 999H277L364 849H288Z" />
<glyph unicode="&#xc1;" horiz-adv-x="652" d="M11 0L283 745H369L641 0H557L493 182H160L95 0H11ZM186 257H465L314 685H338L186 257ZM288 849L375 999H478L364 849H288Z" />
<glyph unicode="&#xc2;" horiz-adv-x="652" d="M11 0L283 745H369L641 0H557L493 182H160L95 0H11ZM186 257H465L314 685H338L186 257ZM164 849L284 999H368L489 849H401L326 940L252 849H164Z" />
<glyph unicode="&#xc3;" horiz-adv-x="652" d="M11 0L283 745H369L641 0H557L493 182H160L95 0H11ZM186 257H465L314 685H338L186 257ZM385 849Q359 849 343 858T316 880T294 902T265 912Q249 912 239 899T229 853H167Q167 913 193 944T265 976Q291 976 307 967T334
945T356 923T385 913Q403 913 413 928T424 972H485Q485 917 458 883T385 849Z" />
<glyph unicode="&#xc4;" horiz-adv-x="652" d="M11 0L283 745H369L641 0H557L493 182H160L95 0H11ZM186 257H465L314 685H338L186 257ZM186 849V949H286V849H186ZM366 849V949H466V849H366Z" />
<glyph unicode="&#xc5;" horiz-adv-x="652" d="M11 0L283 745H369L641 0H557L493 182H160L95 0H11ZM186 257H465L314 685H338L186 257ZM326 829Q282 829 249 857T216 936Q216 986 248 1015T326 1044Q370 1044 403 1015T436 936Q436 887 403 858T326 829ZM326 883Q348
883 363 897T378 936Q378 960 363 974T326 989Q305 989 290 975T274 936Q274 912 289 898T326 883Z" />
<glyph unicode="&#xc6;" horiz-adv-x="985" d="M11 0L283 745H941V670H541V411H921V336H541V75H941V0H461V182H160L95 0H11ZM186 257H461V670H333L186 257Z" />
<glyph unicode="&#xc7;" horiz-adv-x="781" d="M428 -12Q349 -12 283 16T169 96T93 218T66 372Q66 456 93 526T168 648T283 728T428 757Q504 757 564 730T666 661T726 571L651 538Q623 603 566 642T428 682Q346 682 282 643T182 535T146 372Q146 280 182 210T282
102T428 63Q508 63 565 102T651 206L726 173Q708 127 667 85T565 15T428 -12ZM440 -230Q411 -230 383 -220T336 -193L357 -140Q372 -154 391 -162T430 -170Q452 -170 465 -159T479 -129Q479 -106 456 -93T381 -74L405 10H459L446 -38Q498 -49 524 -73T551 -134Q551
-176 520 -203T440 -230Z" />
<glyph unicode="&#xc8;" horiz-adv-x="612" d="M88 0V745H568V670H168V411H548V336H168V75H568V0H88ZM290 849L176 999H279L366 849H290Z" />
<glyph unicode="&#xc9;" horiz-adv-x="612" d="M88 0V745H568V670H168V411H548V336H168V75H568V0H88ZM290 849L377 999H480L366 849H290Z" />
<glyph unicode="&#xca;" horiz-adv-x="612" d="M88 0V745H568V670H168V411H548V336H168V75H568V0H88ZM166 849L286 999H370L491 849H403L328 940L254 849H166Z" />
<glyph unicode="&#xcb;" horiz-adv-x="612" d="M88 0V745H568V670H168V411H548V336H168V75H568V0H88ZM188 849V949H288V849H188ZM368 849V949H468V849H368Z" />
<glyph unicode="&#xcc;" horiz-adv-x="256" d="M88 0V745H168V0H88ZM90 849L-24 999H79L166 849H90Z" />
<glyph unicode="&#xcd;" horiz-adv-x="256" d="M88 0V745H168V0H88ZM90 849L177 999H280L166 849H90Z" />
<glyph unicode="&#xce;" horiz-adv-x="256" d="M88 0V745H168V0H88ZM-34 849L86 999H170L291 849H203L128 940L54 849H-34Z" />
<glyph unicode="&#xcf;" horiz-adv-x="256" d="M88 0V745H168V0H88ZM-12 849V949H88V849H-12ZM168 849V949H268V849H168Z" />
<glyph unicode="&#xd0;" horiz-adv-x="742" d="M28 338V408H328V338H28ZM88 0V745H333Q444 745 526 700T653 571T698 373Q698 260 653 176T526 46T333 0H88ZM168 75H333Q419 75 482 111T579 215T614 373Q614 464 579 530T481 633T333 670H168V75Z" />
<glyph unicode="&#xd1;" horiz-adv-x="736" d="M88 0V745H158L595 118H568V745H648V0H578L141 631H168V0H88ZM427 849Q401 849 385 858T358 880T336 902T307 912Q291 912 281 899T271 853H209Q209 913 235 944T307 976Q333 976 349 967T376 945T398 923T427 913Q445
913 455 928T466 972H527Q527 917 500 883T427 849Z" />
<glyph unicode="&#xd2;" horiz-adv-x="878" d="M439 -12Q361 -12 294 16T175 96T95 218T66 373Q66 457 95 527T175 649T293 729T439 757Q517 757 584 729T703 649T783 527T812 373Q812 289 783 219T703 97T585 17T439 -12ZM439 63Q504 63 557 87T650 154T710 253T732
373Q732 436 711 492T650 591T558 658T439 682Q374 682 321 658T228 591T168 492T146 373Q146 309 167 253T228 154T321 87T439 63ZM401 849L287 999H390L477 849H401Z" />
<glyph unicode="&#xd3;" horiz-adv-x="878" d="M439 -12Q361 -12 294 16T175 96T95 218T66 373Q66 457 95 527T175 649T293 729T439 757Q517 757 584 729T703 649T783 527T812 373Q812 289 783 219T703 97T585 17T439 -12ZM439 63Q504 63 557 87T650 154T710 253T732
373Q732 436 711 492T650 591T558 658T439 682Q374 682 321 658T228 591T168 492T146 373Q146 309 167 253T228 154T321 87T439 63ZM401 849L488 999H591L477 849H401Z" />
<glyph unicode="&#xd4;" horiz-adv-x="878" d="M439 -12Q361 -12 294 16T175 96T95 218T66 373Q66 457 95 527T175 649T293 729T439 757Q517 757 584 729T703 649T783 527T812 373Q812 289 783 219T703 97T585 17T439 -12ZM439 63Q504 63 557 87T650 154T710 253T732
373Q732 436 711 492T650 591T558 658T439 682Q374 682 321 658T228 591T168 492T146 373Q146 309 167 253T228 154T321 87T439 63ZM277 849L397 999H481L602 849H514L439 940L365 849H277Z" />
<glyph unicode="&#xd5;" horiz-adv-x="878" d="M439 -12Q361 -12 294 16T175 96T95 218T66 373Q66 457 95 527T175 649T293 729T439 757Q517 757 584 729T703 649T783 527T812 373Q812 289 783 219T703 97T585 17T439 -12ZM439 63Q504 63 557 87T650 154T710 253T732
373Q732 436 711 492T650 591T558 658T439 682Q374 682 321 658T228 591T168 492T146 373Q146 309 167 253T228 154T321 87T439 63ZM498 849Q472 849 456 858T429 880T407 902T378 912Q362 912 352 899T342 853H280Q280 913 306 944T378 976Q404 976 420 967T447
945T469 923T498 913Q516 913 526 928T537 972H598Q598 917 571 883T498 849Z" />
<glyph unicode="&#xd6;" horiz-adv-x="878" d="M439 -12Q361 -12 294 16T175 96T95 218T66 373Q66 457 95 527T175 649T293 729T439 757Q517 757 584 729T703 649T783 527T812 373Q812 289 783 219T703 97T585 17T439 -12ZM439 63Q504 63 557 87T650 154T710 253T732
373Q732 436 711 492T650 591T558 658T439 682Q374 682 321 658T228 591T168 492T146 373Q146 309 167 253T228 154T321 87T439 63ZM299 849V949H399V849H299ZM479 849V949H579V849H479Z" />
<glyph unicode="&#xd7;" horiz-adv-x="606" d="M138 0L85 53L250 218L86 382L139 435L303 271L467 435L520 382L356 218L521 53L468 0L303 165L138 0Z" />
<glyph unicode="&#xd8;" horiz-adv-x="878" d="M82 0L692 745H796L186 0H82ZM439 -12Q361 -12 294 16T175 96T95 218T66 373Q66 457 95 527T175 649T293 729T439 757Q517 757 584 729T703 649T783 527T812 373Q812 289 783 219T703 97T585 17T439 -12ZM439 63Q504
63 557 87T650 154T710 253T732 373Q732 436 711 492T650 591T558 658T439 682Q374 682 321 658T228 591T168 492T146 373Q146 309 167 253T228 154T321 87T439 63Z" />
<glyph unicode="&#xd9;" horiz-adv-x="700" d="M350 -12Q271 -12 211 21T118 111T85 243V745H165V243Q165 189 188 149T253 86T350 63Q405 63 446 85T511 148T535 243V745H615V243Q615 169 582 112T490 21T350 -12ZM312 849L198 999H301L388 849H312Z" />
<glyph unicode="&#xda;" horiz-adv-x="700" d="M350 -12Q271 -12 211 21T118 111T85 243V745H165V243Q165 189 188 149T253 86T350 63Q405 63 446 85T511 148T535 243V745H615V243Q615 169 582 112T490 21T350 -12ZM312 849L399 999H502L388 849H312Z" />
<glyph unicode="&#xdb;" horiz-adv-x="700" d="M350 -12Q271 -12 211 21T118 111T85 243V745H165V243Q165 189 188 149T253 86T350 63Q405 63 446 85T511 148T535 243V745H615V243Q615 169 582 112T490 21T350 -12ZM188 849L308 999H392L513 849H425L350 940L276
849H188Z" />
<glyph unicode="&#xdc;" horiz-adv-x="700" d="M350 -12Q271 -12 211 21T118 111T85 243V745H165V243Q165 189 188 149T253 86T350 63Q405 63 446 85T511 148T535 243V745H615V243Q615 169 582 112T490 21T350 -12ZM210 849V949H310V849H210ZM390 849V949H490V849H390Z" />
<glyph unicode="&#xdd;" horiz-adv-x="623" d="M272 0V346L11 745H100L328 398H296L523 745H612L352 346V0H272ZM274 849L361 999H464L350 849H274Z" />
<glyph unicode="&#xde;" horiz-adv-x="635" d="M80 0V745H160V600H336Q409 600 464 572T549 492T580 372Q580 304 550 253T465 174T336 145H160V0H80ZM160 220H340Q388 220 424 238T480 291T500 373Q500 420 480 454T424 506T340 525H160V220Z" />
<glyph unicode="&#xdf;" horiz-adv-x="603" d="M88 -150V540Q88 607 116 655T194 730T307 757Q370 757 417 733T491 667T518 566Q518 502 488 454T406 389L401 409Q475 382 511 334T548 215Q548 150 519 102T437 27T312 0H253V70H312Q383 70 425 110T468 215Q468
280 426 320T312 360H253V430H306Q345 430 374 447T421 493T438 561Q438 599 422 627T376 671T306 687Q265 687 233 669T182 618T163 540V-150H88Z" />
<glyph unicode="&#xe0;" horiz-adv-x="572" d="M232 -12Q181 -12 141 7T78 61T55 139Q55 181 73 215T129 274T226 308L436 343V275L244 243Q186 233 161 206T135 142Q135 106 163 81T237 56Q292 56 333 79T397 143T420 232V368Q420 416 385 446T294 476Q245 476
208 452T153 388L85 425Q100 459 132 487T207 531T294 548Q353 548 398 525T469 462T495 368V0H420V107L431 96Q417 66 388 42T319 3T232 -12ZM256 640L142 790H245L332 640H256Z" />
<glyph unicode="&#xe1;" horiz-adv-x="572" d="M232 -12Q181 -12 141 7T78 61T55 139Q55 181 73 215T129 274T226 308L436 343V275L244 243Q186 233 161 206T135 142Q135 106 163 81T237 56Q292 56 333 79T397 143T420 232V368Q420 416 385 446T294 476Q245 476
208 452T153 388L85 425Q100 459 132 487T207 531T294 548Q353 548 398 525T469 462T495 368V0H420V107L431 96Q417 66 388 42T319 3T232 -12ZM256 640L343 790H446L332 640H256Z" />
<glyph unicode="&#xe2;" horiz-adv-x="572" d="M232 -12Q181 -12 141 7T78 61T55 139Q55 181 73 215T129 274T226 308L436 343V275L244 243Q186 233 161 206T135 142Q135 106 163 81T237 56Q292 56 333 79T397 143T420 232V368Q420 416 385 446T294 476Q245 476
208 452T153 388L85 425Q100 459 132 487T207 531T294 548Q353 548 398 525T469 462T495 368V0H420V107L431 96Q417 66 388 42T319 3T232 -12ZM132 640L252 790H336L457 640H369L294 731L220 640H132Z" />
<glyph unicode="&#xe3;" horiz-adv-x="572" d="M232 -12Q181 -12 141 7T78 61T55 139Q55 181 73 215T129 274T226 308L436 343V275L244 243Q186 233 161 206T135 142Q135 106 163 81T237 56Q292 56 333 79T397 143T420 232V368Q420 416 385 446T294 476Q245 476
208 452T153 388L85 425Q100 459 132 487T207 531T294 548Q353 548 398 525T469 462T495 368V0H420V107L431 96Q417 66 388 42T319 3T232 -12ZM353 640Q327 640 311 649T284 671T262 693T233 703Q217 703 207 690T197 644H135Q135 704 161 735T233 767Q259 767
275 758T302 736T324 714T353 704Q371 704 381 719T392 763H453Q453 708 426 674T353 640Z" />
<glyph unicode="&#xe4;" horiz-adv-x="572" d="M232 -12Q181 -12 141 7T78 61T55 139Q55 181 73 215T129 274T226 308L436 343V275L244 243Q186 233 161 206T135 142Q135 106 163 81T237 56Q292 56 333 79T397 143T420 232V368Q420 416 385 446T294 476Q245 476
208 452T153 388L85 425Q100 459 132 487T207 531T294 548Q353 548 398 525T469 462T495 368V0H420V107L431 96Q417 66 388 42T319 3T232 -12ZM154 640V740H254V640H154ZM334 640V740H434V640H334Z" />
<glyph unicode="&#xe5;" horiz-adv-x="572" d="M232 -12Q181 -12 141 7T78 61T55 139Q55 181 73 215T129 274T226 308L436 343V275L244 243Q186 233 161 206T135 142Q135 106 163 81T237 56Q292 56 333 79T397 143T420 232V368Q420 416 385 446T294 476Q245 476
208 452T153 388L85 425Q100 459 132 487T207 531T294 548Q353 548 398 525T469 462T495 368V0H420V107L431 96Q417 66 388 42T319 3T232 -12ZM294 620Q250 620 217 648T184 727Q184 777 216 806T294 835Q338 835 371 806T404 727Q404 678 371 649T294 620ZM294
674Q316 674 331 688T346 727Q346 751 331 765T294 780Q273 780 258 766T242 727Q242 703 257 689T294 674Z" />
<glyph unicode="&#xe6;" horiz-adv-x="983" d="M232 -12Q181 -12 141 7T78 61T55 139Q55 181 73 215T129 274T226 308L420 340V368Q420 416 385 446T294 476Q245 476 208 452T153 388L85 425Q100 459 132 487T207 531T294 548Q365 548 416 515T487 425L465 426Q498
482 554 515T681 548Q739 548 784 527T862 469T911 387T928 293Q928 283 927 271T924 245H502Q504 188 530 146T599 81T689 58Q748 58 788 86T853 156L917 122Q901 86 868 56T790 7T689 -12Q624 -12 570 16T480 95L495 109V0H420V113L430 95Q415 65 386 41T318
2T232 -12ZM237 56Q292 56 333 79T397 143T420 232V272L244 243Q186 233 161 206T135 142Q135 106 163 81T237 56ZM504 315H847Q847 363 825 399T764 457T681 478Q638 478 600 458T536 402T504 315Z" />
<glyph unicode="&#xe7;" horiz-adv-x="600" d="M322 -12Q243 -12 183 25T89 125T55 269Q55 349 89 412T183 511T322 548Q372 548 416 530T494 482T545 411L477 376Q457 419 416 446T322 473Q269 473 227 447T160 374T135 268Q135 210 159 164T226 90T322 63Q375
63 415 90T477 162L545 125Q528 86 494 55T416 6T322 -12ZM334 -230Q305 -230 277 -220T230 -193L251 -140Q266 -154 285 -162T324 -170Q346 -170 359 -159T373 -129Q373 -106 350 -93T275 -74L299 10H353L340 -38Q392 -49 418 -73T445 -134Q445 -176 414 -203T334
-230Z" />
<glyph unicode="&#xe8;" horiz-adv-x="615" d="M321 -12Q246 -12 186 24T90 125T55 270Q55 351 89 413T181 512T313 548Q371 548 416 527T494 469T543 387T560 293Q560 283 559 271T556 245H103V315H513L477 285Q486 340 465 383T403 452T313 478Q263 478 221
452T154 380T135 269Q130 205 155 158T225 84T321 58Q380 58 420 86T485 156L549 122Q533 86 500 56T422 7T321 -12ZM270 640L156 790H259L346 640H270Z" />
<glyph unicode="&#xe9;" horiz-adv-x="615" d="M321 -12Q246 -12 186 24T90 125T55 270Q55 351 89 413T181 512T313 548Q371 548 416 527T494 469T543 387T560 293Q560 283 559 271T556 245H103V315H513L477 285Q486 340 465 383T403 452T313 478Q263 478 221
452T154 380T135 269Q130 205 155 158T225 84T321 58Q380 58 420 86T485 156L549 122Q533 86 500 56T422 7T321 -12ZM270 640L357 790H460L346 640H270Z" />
<glyph unicode="&#xea;" horiz-adv-x="615" d="M321 -12Q246 -12 186 24T90 125T55 270Q55 351 89 413T181 512T313 548Q371 548 416 527T494 469T543 387T560 293Q560 283 559 271T556 245H103V315H513L477 285Q486 340 465 383T403 452T313 478Q263 478 221
452T154 380T135 269Q130 205 155 158T225 84T321 58Q380 58 420 86T485 156L549 122Q533 86 500 56T422 7T321 -12ZM146 640L266 790H350L471 640H383L308 731L234 640H146Z" />
<glyph unicode="&#xeb;" horiz-adv-x="615" d="M321 -12Q246 -12 186 24T90 125T55 270Q55 351 89 413T181 512T313 548Q371 548 416 527T494 469T543 387T560 293Q560 283 559 271T556 245H103V315H513L477 285Q486 340 465 383T403 452T313 478Q263 478 221
452T154 380T135 269Q130 205 155 158T225 84T321 58Q380 58 420 86T485 156L549 122Q533 86 500 56T422 7T321 -12ZM168 640V740H268V640H168ZM348 640V740H448V640H348Z" />
<glyph unicode="&#xec;" horiz-adv-x="199" d="M62 0V536H137V0H62ZM61 640L-53 790H50L137 640H61Z" />
<glyph unicode="&#xed;" horiz-adv-x="199" d="M62 0V536H137V0H62ZM317 640L404 790H507L393 640H317Z" />
<glyph unicode="&#xee;" horiz-adv-x="199" d="M62 0V536H137V0H62ZM-63 640L57 790H141L262 640H174L99 731L25 640H-63Z" />
<glyph unicode="&#xef;" horiz-adv-x="199" d="M62 0V536H137V0H62ZM-41 640V740H59V640H-41ZM139 640V740H239V640H139Z" />
<glyph unicode="&#xf0;" horiz-adv-x="655" d="M334 -12Q274 -12 223 9T135 67T76 155T55 265Q55 343 90 405T187 502T327 538Q362 538 399 529T471 499T528 438L508 394Q509 450 494 500T450 591T381 662T294 708T195 725Q166 725 136 720T76 704L60 771Q132
795 198 795Q278 795 342 769T455 695T535 587T584 456T600 314Q600 198 564 126T467 21T334 -12ZM328 63Q382 63 425 90T494 163T520 266Q520 321 496 365T428 436T328 463Q272 463 229 437T160 365T135 264Q135 207 161 162T232 90T328 63ZM242 588V647L540 756V696L242
588Z" />
<glyph unicode="&#xf1;" horiz-adv-x="573" d="M77 0V536H152V432L135 436Q155 488 200 518T306 548Q363 548 408 522T480 451T507 348V0H432V319Q432 368 415 402T366 454T293 473Q252 473 220 455T170 402T152 319V0H77ZM346 640Q320 640 304 649T277 671T255
693T226 703Q210 703 200 690T190 644H128Q128 704 154 735T226 767Q252 767 268 758T295 736T317 714T346 704Q364 704 374 719T385 763H446Q446 708 419 674T346 640Z" />
<glyph unicode="&#xf2;" horiz-adv-x="655" d="M328 -12Q252 -12 190 24T92 124T55 269Q55 349 91 412T188 511T328 548Q406 548 467 512T564 413T600 269Q600 187 563 124T465 24T328 -12ZM328 63Q382 63 425 90T494 164T520 269Q520 327 495 373T426 446T328
473Q274 473 231 446T161 373T135 269Q135 211 161 164T230 90T328 63ZM290 640L176 790H279L366 640H290Z" />
<glyph unicode="&#xf3;" horiz-adv-x="655" d="M328 -12Q252 -12 190 24T92 124T55 269Q55 349 91 412T188 511T328 548Q406 548 467 512T564 413T600 269Q600 187 563 124T465 24T328 -12ZM328 63Q382 63 425 90T494 164T520 269Q520 327 495 373T426 446T328
473Q274 473 231 446T161 373T135 269Q135 211 161 164T230 90T328 63ZM290 640L377 790H480L366 640H290Z" />
<glyph unicode="&#xf4;" horiz-adv-x="655" d="M328 -12Q252 -12 190 24T92 124T55 269Q55 349 91 412T188 511T328 548Q406 548 467 512T564 413T600 269Q600 187 563 124T465 24T328 -12ZM328 63Q382 63 425 90T494 164T520 269Q520 327 495 373T426 446T328
473Q274 473 231 446T161 373T135 269Q135 211 161 164T230 90T328 63ZM166 640L286 790H370L491 640H403L328 731L254 640H166Z" />
<glyph unicode="&#xf5;" horiz-adv-x="655" d="M328 -12Q252 -12 190 24T92 124T55 269Q55 349 91 412T188 511T328 548Q406 548 467 512T564 413T600 269Q600 187 563 124T465 24T328 -12ZM328 63Q382 63 425 90T494 164T520 269Q520 327 495 373T426 446T328
473Q274 473 231 446T161 373T135 269Q135 211 161 164T230 90T328 63ZM387 640Q361 640 345 649T318 671T296 693T267 703Q251 703 241 690T231 644H169Q169 704 195 735T267 767Q293 767 309 758T336 736T358 714T387 704Q405 704 415 719T426 763H487Q487 708
460 674T387 640Z" />
<glyph unicode="&#xf6;" horiz-adv-x="655" d="M328 -12Q252 -12 190 24T92 124T55 269Q55 349 91 412T188 511T328 548Q406 548 467 512T564 413T600 269Q600 187 563 124T465 24T328 -12ZM328 63Q382 63 425 90T494 164T520 269Q520 327 495 373T426 446T328
473Q274 473 231 446T161 373T135 269Q135 211 161 164T230 90T328 63ZM188 640V740H288V640H188ZM368 640V740H468V640H368Z" />
<glyph unicode="&#xf7;" horiz-adv-x="606" d="M53 213V288H553V213H53ZM263 0V103H343V0H263ZM263 397V500H343V397H263Z" />
<glyph unicode="&#xf8;" horiz-adv-x="655" d="M41 0L510 536H615L146 0H41ZM328 -12Q252 -12 190 24T92 124T55 269Q55 349 91 412T188 511T328 548Q406 548 467 512T564 413T600 269Q600 187 563 124T465 24T328 -12ZM328 63Q382 63 425 90T494 164T520 269Q520
327 495 373T426 446T328 473Q274 473 231 446T161 373T135 269Q135 211 161 164T230 90T328 63Z" />
<glyph unicode="&#xf9;" horiz-adv-x="573" d="M267 -12Q211 -12 165 14T93 88T66 198V536H141V207Q141 164 158 132T207 81T280 63Q321 63 353 81T403 134T421 217V536H496V0H421V104L438 100Q419 48 373 18T267 -12ZM249 640L135 790H238L325 640H249Z" />
<glyph unicode="&#xfa;" horiz-adv-x="573" d="M267 -12Q211 -12 165 14T93 88T66 198V536H141V207Q141 164 158 132T207 81T280 63Q321 63 353 81T403 134T421 217V536H496V0H421V104L438 100Q419 48 373 18T267 -12ZM249 640L336 790H439L325 640H249Z" />
<glyph unicode="&#xfb;" horiz-adv-x="573" d="M267 -12Q211 -12 165 14T93 88T66 198V536H141V207Q141 164 158 132T207 81T280 63Q321 63 353 81T403 134T421 217V536H496V0H421V104L438 100Q419 48 373 18T267 -12ZM125 640L245 790H329L450 640H362L287 731L213
640H125Z" />
<glyph unicode="&#xfc;" horiz-adv-x="573" d="M267 -12Q211 -12 165 14T93 88T66 198V536H141V207Q141 164 158 132T207 81T280 63Q321 63 353 81T403 134T421 217V536H496V0H421V104L438 100Q419 48 373 18T267 -12ZM147 640V740H247V640H147ZM327 640V740H427V640H327Z"
/>
<glyph unicode="&#xfd;" horiz-adv-x="536" d="M88 -220Q72 -220 56 -218T23 -209V-139Q33 -140 48 -142T80 -145Q129 -145 155 -125T206 -46L240 34L238 -32L11 536H92L278 67H257L442 536H525L280 -68Q264 -107 240 -142T178 -198T88 -220ZM230 640L317 790H420L306
640H230Z" />
<glyph unicode="&#xfe;" horiz-adv-x="667" d="M77 -200V745H152V416L140 437Q172 488 225 518T348 548Q424 548 483 512T577 412T612 268Q612 188 578 125T484 25T348 -12Q279 -12 224 19T140 109L152 120V-200H77ZM344 63Q398 63 440 90T507 163T532 268Q532
327 508 373T441 446T344 473Q290 473 247 446T178 373T152 268Q152 210 177 164T246 90T344 63Z" />
<glyph unicode="&#xff;" horiz-adv-x="536" d="M88 -220Q72 -220 56 -218T23 -209V-139Q33 -140 48 -142T80 -145Q129 -145 155 -125T206 -46L240 34L238 -32L11 536H92L278 67H257L442 536H525L280 -68Q264 -107 240 -142T178 -198T88 -220ZM128 640V740H228V640H128ZM308
640V740H408V640H308Z" />
<glyph unicode="&#x2013;" horiz-adv-x="568" d="M74 233V303H494V233H74Z" />
<glyph unicode="&#x2014;" horiz-adv-x="898" d="M74 233V303H824V233H74Z" />
<glyph unicode="&#x2018;" horiz-adv-x="270" d="M80 527V611Q80 669 105 707T180 757V722Q150 714 137 693T122 637H160V527H80Z" />
<glyph unicode="&#x2019;" horiz-adv-x="270" d="M80 515V550Q110 558 123 579T138 635H100V745H180V661Q180 603 155 565T80 515Z" />
<glyph unicode="&#x201a;" horiz-adv-x="270" d="M80 -120V-85Q110 -77 123 -56T138 0H100V110H180V26Q180 -32 155 -70T80 -120Z" />
<glyph unicode="&#x201c;" horiz-adv-x="420" d="M230 527V611Q230 669 255 707T330 757V722Q300 714 287 693T272 637H310V527H230ZM80 527V611Q80 669 105 707T180 757V722Q150 714 137 693T122 637H160V527H80Z" />
<glyph unicode="&#x201d;" horiz-adv-x="420" d="M230 515V550Q260 558 273 579T288 635H250V745H330V661Q330 603 305 565T230 515ZM80 515V550Q110 558 123 579T138 635H100V745H180V661Q180 603 155 565T80 515Z" />
<glyph unicode="&#x201e;" horiz-adv-x="420" d="M80 -120V-85Q110 -77 123 -56T138 0H100V110H180V26Q180 -32 155 -70T80 -120ZM230 -120V-85Q260 -77 273 -56T288 0H250V110H330V26Q330 -32 305 -70T230 -120Z" />
<glyph unicode="&#x2022;" horiz-adv-x="536" d="M271 103Q223 103 185 125T125 185T103 271Q103 317 124 353T184 411T271 433Q317 433 353 412T410 353T433 271Q433 223 412 185T354 125T271 103Z" />
<glyph unicode="&#x2039;" horiz-adv-x="300" d="M181 79L29 269L181 459H271L119 269L271 79H181Z" />
<glyph unicode="&#x203a;" horiz-adv-x="300" d="M29 79L181 269L29 459H119L271 269L119 79H29Z" />
</font>
</defs>
</svg>
