<?xml version="1.0" standalone="no"?>
<!DOCTYPE svg PUBLIC "-//W3C//DTD SVG 1.1//EN" "http://www.w3.org/Graphics/SVG/1.1/DTD/svg11.dtd">
<svg xmlns="http://www.w3.org/2000/svg">
<defs >
<font id="HeptaSlab" horiz-adv-x="1173" ><font-face
    font-family="Hepta Slab ExtraLight"
    units-per-em="2000"
    panose-1="0 0 0 0 0 0 0 0 0 0"
    ascent="1976"
    descent="-526"
    alphabetic="0" />
<glyph unicode=" " horiz-adv-x="608" />
<glyph unicode="!" horiz-adv-x="590" d="M210 1504H390L358 373H241L210 1504ZM190 203H399V0H190V203Z" />
<glyph unicode="&quot;" horiz-adv-x="661" d="M130 1504H270L250 1007H151L130 1504ZM391 1504H531L511 1007H412L391 1504Z" />
<glyph unicode="#" horiz-adv-x="1362" d="M665 1504L337 0H200L528 1504H665ZM1162 1504L834 0H697L1025 1504H1162ZM1279 1065V942H176V1065H1279ZM1186 562V439H83V562H1186Z" />
<glyph unicode="$" horiz-adv-x="1423" d="M766 1693V-194H697V1693H766ZM809 -20Q596 -20 471 67T315 306H281L309 456Q336 293 463 202T788 111Q964 111 1056 183T1149 392Q1149 482 1108 542T973 641T722 703Q530 731 406 787T222 930T162 1137Q162 1320 288
1422T634 1524Q772 1524 868 1485T1021 1371T1093 1195H1128L1099 1048Q1073 1210 955 1301T654 1393Q497 1393 406 1328T315 1144Q315 1067 358 1012T495 918T746 851Q946 820 1068 764T1246 620T1302 402Q1302 202 1173 91T809 -20ZM159 0V456H309V0H159ZM1099
1048V1504H1249V1048H1099Z" />
<glyph unicode="%" horiz-adv-x="1698" d="M222 -1L1306 1505H1476L393 -1H222ZM445 753Q351 753 281 802T171 937T132 1140Q132 1313 217 1419T445 1526Q538 1526 608 1478T718 1343T757 1140Q757 1024 718 937T609 802T445 753ZM445 877Q499 877 539 908T601
999T624 1140Q624 1222 602 1281T539 1371T445 1402Q391 1402 351 1371T288 1281T266 1140Q266 1058 288 999T350 909T445 877ZM1254 -20Q1159 -20 1089 28T979 163T940 365Q940 481 979 567T1088 702T1254 750Q1348 750 1418 702T1527 568T1566 365Q1566 250 1528
164T1419 29T1254 -20ZM1254 103Q1308 103 1348 135T1410 226T1432 365Q1432 447 1410 506T1348 597T1254 629Q1200 629 1160 598T1097 507T1074 365Q1074 284 1096 226T1158 135T1254 103Z" />
<glyph unicode="&amp;" horiz-adv-x="1599" d="M1422 137H1539V0H1362L514 745Q414 828 353 898T265 1036T237 1180Q237 1289 285 1365T419 1482T621 1523L625 1393Q516 1393 449 1333T381 1173Q381 1114 409 1059T488 949T610 837L1422 137ZM1306 1065H1450Q1410
733 1303 490T1020 114T597 -19Q435 -19 321 39T147 196T87 414Q87 583 207 694T559 861L574 857Q721 909 792 987T863 1168Q863 1276 796 1334T625 1393L621 1523Q737 1523 824 1481T959 1361T1007 1174Q1007 1024 908 916T612 738L598 739Q411 693 323 611T234
411Q234 325 278 259T404 155T597 117Q801 117 945 233T1178 562T1306 1065Z" />
<glyph unicode="&apos;" horiz-adv-x="400" d="M130 1504H270L250 1007H151L130 1504Z" />
<glyph unicode="(" horiz-adv-x="665" d="M304 582Q304 342 347 152T461 -182T613 -420H432Q311 -247 232 3T153 582Q153 910 235 1161T446 1584H613Q532 1489 462 1347T348 1013T304 582Z" />
<glyph unicode=")" horiz-adv-x="665" d="M361 582Q361 822 318 1013T204 1346T52 1584H233Q355 1412 433 1161T512 582Q512 254 431 4T220 -420H52Q133 -325 203 -182T317 151T361 582Z" />
<glyph unicode="*" horiz-adv-x="848" d="M488 1580L455 1213L488 850H360L394 1214L360 1580H488ZM708 1452L772 1342L439 1187L140 976L76 1088L409 1242L708 1452ZM140 1452L439 1242L772 1088L708 976L409 1187L76 1342L140 1452Z" />
<glyph unicode="+" horiz-adv-x="1133" d="M498 305V660H141V784H498V1138H634V784H993L991 660H634V305H498Z" />
<glyph unicode="," horiz-adv-x="456" d="M189 198H333V-60Q333 -172 266 -229T87 -286V-162Q138 -162 163 -139T189 -60V198Z" />
<glyph unicode="-" horiz-adv-x="717" d="M637 626V502H80V626H637Z" />
<glyph unicode="." horiz-adv-x="470" d="M130 203H339V0H130V203Z" />
<glyph unicode="/" horiz-adv-x="724" d="M720 1580L176 -168H39L583 1580H720Z" />
<glyph unicode="0" horiz-adv-x="1392" d="M695 -21Q517 -21 391 72T199 339T132 756Q132 996 198 1168T391 1433T695 1525Q874 1525 1000 1433T1192 1169T1259 756Q1259 513 1193 339T1000 72T695 -21ZM695 124Q896 124 1001 290T1106 756Q1106 1054 1001 1217T695
1380Q496 1380 391 1217T285 756Q285 457 390 291T695 124Z" />
<glyph unicode="1" horiz-adv-x="996" d="M511 1504H602V137H917V0H137V137H453V1416L511 1504ZM151 1297H250Q316 1297 364 1321T439 1391T472 1504H527L489 1308H446Q422 1224 367 1188T221 1152H151V1297Z" />
<glyph unicode="2" horiz-adv-x="1297" d="M1193 376Q1193 183 1107 83T861 -18Q798 -18 748 -5T653 27T564 58T469 72Q422 72 375 56T291 0L235 3L288 164L319 138Q350 175 398 194T506 214Q560 214 602 201T682 170T760 140T852 127Q951 127 998 186T1045 376H1193ZM679
672Q813 774 890 866T968 1078Q968 1162 930 1230T819 1338T644 1378Q495 1378 405 1290T297 1047L149 1061Q165 1205 229 1309T400 1469T648 1525Q797 1525 903 1466T1067 1307T1124 1083Q1124 978 1084 890T967 724T783 567L505 362Q431 308 380 252T302 133T276
0H140V8Q140 94 169 173T260 326T415 473L679 672Z" />
<glyph unicode="3" horiz-adv-x="1213" d="M71 437L218 467Q249 310 344 220T603 129Q710 129 786 167T903 270T944 419Q944 510 895 578T756 684T543 722V824Q711 824 837 773T1033 628T1103 405Q1103 286 1045 191T875 39T601 -18Q367 -18 240 103T71 437ZM106
1084Q125 1304 250 1414T586 1525Q732 1525 837 1476T1000 1341T1058 1144Q1058 1031 995 946T816 812T543 764V866Q653 866 732 899T855 991T898 1127Q898 1199 861 1256T753 1345T586 1379Q441 1379 356 1303T254 1070L106 1084ZM461 866H543V722H461V866Z" />
<glyph unicode="4" horiz-adv-x="1288" d="M955 1504V137H1190V0H541V137H808V1381L753 1504H955ZM1190 579V454H71V579H1190ZM753 1504L876 1449L182 505L71 579L753 1504Z" />
<glyph unicode="5" horiz-adv-x="1328" d="M189 263L336 327Q385 232 474 181T682 129Q797 129 886 176T1025 308T1076 506Q1076 619 1027 704T891 838T691 886Q547 886 444 810T317 609L311 771L346 770Q365 852 412 910T535 999T713 1030Q865 1030 983 964T1168
779T1236 506Q1236 349 1165 231T969 47T681 -19Q506 -19 379 56T189 263ZM441 1504L317 609L177 635L291 1504H441ZM388 1367V1504H1116V1367H388Z" />
<glyph unicode="6" horiz-adv-x="1332" d="M693 129Q801 129 885 172T1016 296T1064 489Q1064 598 1018 681T888 810T693 856Q585 856 502 812T372 688T325 495L302 508L272 576H303L305 596Q323 725 376 816T517 955T729 1003Q877 1003 988 936T1161 752T1223
487Q1223 337 1159 223T976 45T695 -19L693 129ZM695 -19Q512 -19 389 66T203 308Q168 395 150 507T132 757Q132 991 190 1163T373 1430T698 1525Q880 1525 1009 1443T1208 1205L1060 1141Q1006 1261 916 1319T697 1377Q542 1377 452 1300T324 1083T285 757Q285
699 289 644T304 526L325 495Q325 384 370 302T499 174T693 129L695 -19Z" />
<glyph unicode="7" horiz-adv-x="1227" d="M1204 1504L569 0H406L1022 1432L1045 1504H1204ZM236 1314Q248 1416 296 1466T427 1517Q478 1517 524 1502T615 1468T712 1433T824 1418Q883 1418 948 1437T1045 1504L1016 1355L989 1367Q948 1320 895 1297T779 1273Q722
1273 674 1287T581 1320T494 1353T405 1368Q331 1368 281 1322T230 1186L184 1314H236ZM230 1504V1056H80V1504H230Z" />
<glyph unicode="8" horiz-adv-x="1280" d="M640 -19Q482 -19 363 36T177 187T110 409Q110 534 176 630T362 781T640 836Q798 836 917 782T1103 631T1170 409Q1170 284 1104 188T918 36T640 -19ZM640 127Q749 127 833 165T964 271T1012 427Q1012 515 965 582T833
688T640 726Q531 726 447 688T316 583T268 427Q268 339 315 272T447 166T640 127ZM640 747Q494 747 384 796T212 932T150 1132Q150 1246 211 1334T383 1473T640 1524Q786 1524 896 1474T1068 1335T1130 1132Q1130 1019 1069 932T897 796T640 747ZM640 857Q737 857
812 890T929 981T972 1116Q972 1193 930 1252T812 1345T640 1379Q543 1379 468 1346T351 1253T308 1116Q308 1040 350 982T468 890T640 857Z" />
<glyph unicode="9" horiz-adv-x="1332" d="M639 1381Q531 1381 448 1338T317 1214T269 1021Q269 912 315 829T445 700T639 654Q747 654 830 698T960 822T1007 1015L1030 1002L1060 934H1030L1027 914Q1009 785 957 694T816 555T604 507Q456 507 345 574T172 758T109
1023Q109 1173 173 1287T356 1465T638 1529L639 1381ZM638 1529Q821 1529 944 1444T1129 1202Q1165 1116 1182 1003T1200 753Q1200 519 1142 347T960 80T634 -15Q453 -15 324 67T125 305L272 369Q326 249 417 191T635 133Q790 133 880 210T1009 427T1048 753Q1048
812 1044 867T1029 984L1007 1015Q1007 1126 962 1208T834 1336T639 1381L638 1529Z" />
<glyph unicode=":" horiz-adv-x="470" d="M130 203H339V0H130V203ZM130 877H339V674H130V877Z" />
<glyph unicode=";" horiz-adv-x="474" d="M134 877H343V674H134V877ZM189 198H333V-60Q333 -172 266 -229T87 -286V-162Q138 -162 163 -139T189 -60V198Z" />
<glyph unicode="&lt;" horiz-adv-x="1128" d="M945 1022L218 723V720L945 421V270L84 645V798L945 1173V1022Z" />
<glyph unicode="=" horiz-adv-x="1200" d="M1073 1001V877H127V1001H1073ZM1073 566V443H127V566H1073Z" />
<glyph unicode="&gt;" horiz-adv-x="1128" d="M183 1022V1173L1044 798V645L183 270V421L910 720V723L183 1022Z" />
<glyph unicode="?" horiz-adv-x="1131" d="M116 876Q95 923 85 970T75 1067Q75 1201 141 1303T322 1464T582 1523Q738 1523 850 1461T1023 1296T1084 1067Q1084 969 1053 899T972 778T867 686T761 608T680 524T649 419V366H500V422Q500 501 530 559T609 663T712
750T815 836T894 937T925 1068Q925 1149 885 1219T767 1332T582 1375Q479 1375 400 1336T276 1228T231 1067Q231 1030 239 996T262 928L116 876ZM470 200H676V0H470V200Z" />
<glyph unicode="@" horiz-adv-x="2168" d="M974 -439Q782 -434 623 -370T349 -190T171 83T108 436Q108 676 186 875T407 1220T749 1444T1188 1523Q1384 1523 1545 1461T1823 1285T2004 1012T2068 661L1920 651Q1920 875 1828 1040T1570 1296T1188 1387Q981 1387
810 1319T515 1124T323 824T255 436Q255 218 346 53T599 -207T974 -303Q1121 -303 1248 -269T1476 -169L1556 -281Q1438 -356 1292 -398T974 -439ZM934 18Q840 18 759 69T628 218T576 458Q575 570 608 677T706 870T866 1006T1079 1056Q1197 1056 1286 1004T1427
854T1480 622Q1480 557 1466 493T1426 364L1344 294L1314 301Q1267 209 1208 146T1080 50T934 18ZM978 150Q1064 150 1136 190T1261 299T1343 452T1370 625Q1368 770 1293 847T1096 924Q975 924 891 856T762 679T720 451Q722 301 795 226T978 150ZM1577 18Q1475
18 1412 64T1329 199T1341 411L1472 604L1394 664L1485 1032H1629L1474 416Q1444 294 1468 222T1589 150Q1647 150 1705 178T1812 266T1890 421T1920 651L2068 661Q2068 500 2026 380T1914 179T1756 58T1577 18Z" />
<glyph unicode="A" horiz-adv-x="1641" d="M1227 617V485H419V617H1227ZM1468 137H1613V0H972V137H1311L797 1386L890 1322H744L837 1386L323 137H662V0H28V137H174L736 1504H905L1468 137Z" />
<glyph unicode="B" horiz-adv-x="1473" d="M629 1367L630 1504H830Q1053 1504 1180 1408T1308 1120Q1308 932 1182 844T812 756H404V828H816Q932 828 1005 864T1112 962T1147 1104Q1147 1238 1053 1302T801 1367H629ZM621 137H826Q999 137 1101 208T1203 419Q1203
486 1177 537T1101 624T979 677T814 695H404V789H814Q938 789 1039 770T1212 706T1324 589T1364 407Q1364 212 1237 106T885 0H621V137ZM55 1367V1504H689V1367H447V137H689V0H55V137H297V1367H55ZM926 794H1022V756H926V794Z" />
<glyph unicode="C" horiz-adv-x="1663" d="M850 -21Q685 -21 547 36T308 197T152 443T96 756Q96 925 150 1066T304 1309T543 1467T847 1524Q1010 1524 1129 1470T1321 1316T1422 1077H1470L1429 914Q1383 1132 1229 1254T851 1377Q673 1377 539 1299T330 1080T255
756Q255 617 299 501T422 301T610 172T850 126Q998 126 1118 184T1317 348T1426 597L1580 565Q1544 388 1443 256T1191 52T850 -21ZM1429 914V1504H1578V914H1429Z" />
<glyph unicode="D" horiz-adv-x="1667" d="M651 0V137H787Q975 137 1115 215T1334 434T1413 756Q1413 937 1335 1075T1116 1290T787 1367H651V1504H787Q1022 1504 1198 1409T1473 1145T1571 756Q1571 533 1473 363T1199 96T787 0H651ZM55 0V137H297V1367H55V1504H703V1367H446V137H703V0H55Z"
/>
<glyph unicode="E" horiz-adv-x="1577" d="M1065 825V692H381V825H1065ZM1315 432H1464V0H55V137H297V1367H55V1504H1446V1072H1297V1367H446V137H1315V432Z" />
<glyph unicode="F" horiz-adv-x="1413" d="M991 825V692H381V825H991ZM1368 1504V1072H1218V1367H446V137H736V0H55V137H297V1367H55V1504H1368Z" />
<glyph unicode="G" horiz-adv-x="1819" d="M843 -20Q680 -20 544 37T307 198T151 445T96 756Q96 925 150 1066T305 1309T544 1467T850 1524Q1012 1524 1130 1470T1321 1316T1421 1077H1468L1428 914Q1382 1132 1230 1254T854 1377Q675 1377 541 1299T331 1080T255
756Q255 617 299 502T422 303T610 173T850 127Q1003 127 1126 188T1330 361T1440 621L1554 589Q1522 406 1424 269T1177 56T843 -20ZM1490 0L1436 349V722H1586V0H1490ZM989 590V728H1796V590H989ZM1428 914V1504H1577V914H1428Z" />
<glyph unicode="H" horiz-adv-x="1796" d="M1401 825V692H381V825H1401ZM55 1367V1504H688V1367H446V137H688V0H55V137H297V1367H55ZM1109 1367V1504H1741V1367H1500V137H1741V0H1109V137H1351V1367H1109Z" />
<glyph unicode="I" horiz-adv-x="743" d="M55 1367V1504H688V1367H446V137H688V0H55V137H297V1367H55Z" />
<glyph unicode="J" horiz-adv-x="1211" d="M493 -19Q261 -19 153 110T45 477V582H195V477Q195 305 270 217T491 129Q639 129 716 216T793 477V1367H506V1504H1184V1367H942V475Q942 321 893 211T744 41T493 -19Z" />
<glyph unicode="K" horiz-adv-x="1767" d="M55 1367V1504H688V1367H446V137H688V0H55V137H297V1367H55ZM853 919L1534 137H1739V0H919V137H1345L767 805L853 919ZM365 551L1258 1367H891V1504H1653V1367H1450L413 426L365 551Z" />
<glyph unicode="L" horiz-adv-x="1332" d="M55 1367V1504H696V1367H446V137H1197V0H55V137H297V1367H55ZM1287 502V0H1137V502H1287Z" />
<glyph unicode="M" horiz-adv-x="2120" d="M982 0L441 1378L550 1504L1081 144H1041L1573 1504L1671 1378L1129 0H982ZM55 0V137H297V1367H55V1504H549L532 1367H438V137H689V0H55ZM1418 0V137H1674V1367H1569L1572 1504H2065V1367H1823V137H2065V0H1418Z" />
<glyph unicode="N" horiz-adv-x="1803" d="M1338 0L340 1504H514L1512 0H1338ZM55 1368V1504H513L511 1341H436V137H678V0H55V137H297V1368H55ZM1139 1367V1504H1771V1367H1529V0H1340L1287 205H1390V1367H1139Z" />
<glyph unicode="O" horiz-adv-x="1738" d="M869 -21Q698 -21 556 35T311 195T152 441T96 756Q96 926 152 1067T311 1310T555 1469T869 1525Q1041 1525 1182 1469T1427 1311T1586 1067T1643 756Q1643 584 1587 442T1428 196T1183 36T869 -21ZM869 125Q1052 125
1190 205T1406 428T1484 756Q1484 940 1407 1080T1191 1300T869 1379Q687 1379 549 1300T332 1081T254 756Q254 570 332 428T548 206T869 125Z" />
<glyph unicode="P" horiz-adv-x="1449" d="M55 0V137H297V1367H55V1504H446V137H688V0H55ZM425 692V825H860Q1041 825 1133 893T1226 1094Q1226 1232 1129 1299T858 1367H408V1504H864Q1121 1504 1250 1399T1379 1104Q1379 1031 1355 959T1273 826T1112 729T853 692H425Z" />
<glyph unicode="Q" horiz-adv-x="1736" d="M869 -20Q697 -19 555 37T310 197T152 443T96 756Q96 925 152 1066T311 1309T555 1467T869 1524Q1041 1524 1182 1468T1427 1309T1587 1066T1643 756Q1643 585 1587 443T1427 197T1183 37T869 -20ZM869 127Q1051 127
1189 207T1405 429T1483 756Q1483 939 1406 1079T1190 1298T869 1377Q687 1377 549 1298T333 1079T255 756Q255 571 333 429T549 207T869 127ZM1002 38Q931 10 888 -13T826 -62T807 -124Q807 -177 843 -202T964 -227H1573V-364H955Q795 -364 727 -304T658 -142Q658
-40 735 17T999 116L1002 38Z" />
<glyph unicode="R" horiz-adv-x="1554" d="M928 786Q1000 778 1054 742T1130 640L1314 137H1479V0H1204L1010 554Q982 631 944 661T830 692H756L928 786ZM591 1367V1504H864Q1121 1504 1250 1401T1379 1118Q1379 1021 1340 942T1228 809T1054 735V708L857 692H425V825H856Q976
825 1059 859T1184 956T1226 1107Q1226 1236 1129 1301T858 1367H591ZM55 1367V1504H688V1367H446V137H688V0H55V137H297V1367H55Z" />
<glyph unicode="S" horiz-adv-x="1330" d="M763 -20Q550 -20 424 67T269 306H234L262 456Q290 293 417 202T741 111Q917 111 1010 183T1103 392Q1103 482 1061 542T926 641T676 703Q483 731 360 787T176 930T116 1137Q116 1320 241 1422T587 1524Q725 1524 821
1485T974 1371T1047 1195H1081L1052 1048Q1026 1210 908 1301T607 1393Q450 1393 359 1328T268 1144Q268 1067 311 1012T449 918T699 851Q899 820 1021 764T1199 620T1256 402Q1256 202 1127 91T763 -20ZM112 0V456H262V0H112ZM1052 1048V1504H1202V1048H1052Z"
/>
<glyph unicode="T" horiz-adv-x="1523" d="M1472 1504V1023H1322V1367H836V137H1077V0H444V137H686V1367H201V1023H51V1504H1472Z" />
<glyph unicode="U" horiz-adv-x="1695" d="M1051 1504H1670V1367H1434V580Q1434 395 1367 261T1170 53T847 -20Q656 -20 526 53T328 260T261 580V1367H25V1504H652V1367H411V580Q411 439 459 337T605 179T849 124Q996 124 1095 179T1243 337T1293 580V1367H1051V1504Z" />
<glyph unicode="V" horiz-adv-x="1630" d="M1455 1367L899 0H731L175 1367H28V1504H688V1367H332L840 118L740 173H886L801 118L1309 1367H953V1504H1602V1367H1455Z" />
<glyph unicode="W" horiz-adv-x="2424" d="M1798 1504H2395V1367H2255L1797 0H1618L1154 1367L1284 1179H1143L1274 1367L802 0H626L168 1367H28V1504H623V1367H322L773 0L639 183H785L659 0L1135 1367H875V1504H1553V1367H1302L1771 0L1636 183H1782L1657 0L2112
1367H1798V1504Z" />
<glyph unicode="X" horiz-adv-x="1626" d="M1412 1367L858 703L902 820V678L866 795L1401 137H1590V0H949V137H1213L762 700L881 650H739L840 700L390 137H677V0H36V137H214L767 801L723 683V826L760 709L224 1367H36V1504H677V1367H412L863 804L745 854H887L786
804L1236 1367H949V1504H1590V1367H1412Z" />
<glyph unicode="Y" horiz-adv-x="1559" d="M1392 1367L845 661H715L167 1367H28V1504H625V1367H348L826 746L706 802H852L751 746L1228 1367H932V1504H1531V1367H1392ZM854 772V137H1095V0H462V137H704V772H854Z" />
<glyph unicode="Z" horiz-adv-x="1314" d="M70 137L1048 1361V1405L1239 1367L261 143V96L70 137ZM1239 1504V1367H248V1072H99V1504H1239ZM1102 432H1252V0H70V137H1102V432Z" />
<glyph unicode="[" horiz-adv-x="837" d="M813 1594V1458H432V-308H831V-445H282V1594H813Z" />
<glyph unicode="\" horiz-adv-x="727" d="M4 1580H143L687 -168H548L4 1580Z" />
<glyph unicode="]" horiz-adv-x="837" d="M24 1594H555V-445H6V-308H405V1458H24V1594Z" />
<glyph unicode="^" horiz-adv-x="1161" d="M653 1580L958 955H812L582 1447H579L349 955H203L508 1580H653Z" />
<glyph unicode="_" horiz-adv-x="1000" d="M1000 -142V-266H0V-142H1000Z" />
<glyph unicode="`" horiz-adv-x="582" d="M170 1599L499 1341L429 1250L83 1490L170 1599Z" />
<glyph unicode="a" horiz-adv-x="1247" d="M962 0Q921 0 900 26T878 99V419L891 452L884 573L878 636V717Q878 799 845 851T748 928T596 953Q463 953 391 901T294 743L156 772Q176 877 231 946T377 1050T601 1085Q739 1085 832 1047T974 929T1022 725V124H1179V0H962ZM460
-14Q294 -14 208 59T122 276Q122 408 198 477T442 582L921 684V581L466 478Q368 455 320 411T271 285Q271 197 325 154T483 110Q598 110 689 163T832 319T884 573L922 337H871Q846 170 742 78T460 -14Z" />
<glyph unicode="b" horiz-adv-x="1391" d="M213 -22V1456H-1V1580H357V692L351 567V434L357 240L226 -22H213ZM752 -20Q618 -20 513 30T339 174T247 397L351 532Q351 409 398 314T533 165T742 110Q865 110 952 163T1086 311T1133 534Q1133 658 1084 753T946 902T742
956Q623 956 535 902T399 753T351 532L328 757H362Q381 845 432 919T569 1039T774 1085Q885 1085 978 1045T1139 930T1244 754T1281 531Q1281 370 1216 246T1031 51T752 -20Z" />
<glyph unicode="c" horiz-adv-x="1250" d="M660 -19Q494 -19 372 51T182 244T114 529Q114 651 151 752T257 928T421 1043T633 1084Q746 1084 821 1048T939 948T993 802H1028L999 651Q986 741 940 809T820 916T649 955Q533 955 446 901T310 751T261 529Q261 407
310 314T449 167T661 114Q787 114 878 169T1011 319L1144 260Q1087 131 962 56T660 -19ZM999 651V1065H1143V651H999Z" />
<glyph unicode="d" horiz-adv-x="1449" d="M1035 0V398L1041 476V603L1035 743V1456H748V1580H1179V124H1383V0H1035ZM634 1085Q766 1085 870 1027T1043 862T1133 604L1041 535Q1041 658 994 753T858 901T649 955Q530 955 442 901T307 752T259 532Q259 408 308
313T445 164T649 109Q769 109 856 163T992 314T1041 535L1063 308H1029Q1011 220 959 146T822 26T618 -20Q507 -20 414 20T253 135T148 311T110 532Q110 694 175 819T357 1014T634 1085Z" />
<glyph unicode="e" horiz-adv-x="1266" d="M652 -19Q487 -19 366 51T179 244T113 529Q113 692 179 817T365 1013T644 1084Q804 1084 921 1014T1101 820T1164 534Q1164 515 1164 504T1161 485H1019Q1020 497 1020 511T1021 545Q1021 664 976 756T846 902T644 955Q529
955 442 901T307 751T259 529Q259 407 306 314T442 167T651 114Q777 114 869 173T1007 336L1143 285Q1084 144 955 63T652 -19ZM204 485V596H1118L1160 485H204Z" />
<glyph unicode="f" horiz-adv-x="873" d="M97 0V124H308V941H97V1065H308V1230Q308 1404 396 1501T662 1599Q807 1599 887 1535T995 1349L865 1309Q847 1388 797 1427T662 1467Q562 1467 507 1409T452 1230V1065H806V941H452V124H707V0H97Z" />
<glyph unicode="g" horiz-adv-x="1252" d="M616 -442Q476 -442 363 -416T182 -332T115 -181Q115 -87 182 -39T357 25V42L535 25Q424 25 361 -1T272 -69T246 -155Q246 -223 296 -261T430 -315T620 -331Q831 -331 928 -275T1026 -117Q1026 25 842 25H434Q314 25
246 68T177 194Q177 272 239 313T416 364V394L598 342H489Q403 342 358 319T313 247Q313 202 354 183T480 163H838Q941 163 1013 130T1123 34T1161 -114Q1161 -206 1109 -280T938 -398T616 -442ZM598 342Q471 342 372 388T216 517T159 712Q159 824 215 907T370
1037T598 1084Q729 1084 829 1035T983 899Q1009 859 1021 813T1034 712Q1034 600 978 517T824 388T598 342ZM598 460Q683 460 749 491T854 579T893 712Q893 788 855 845T750 934T598 966Q511 966 444 935T339 846T300 712Q300 636 338 579T444 491T598 460ZM1034
712L984 829L940 901L980 917Q977 927 976 937T974 960Q974 1002 994 1036T1052 1090T1145 1110Q1159 1110 1170 1109T1193 1105V966Q1174 969 1158 970T1126 972Q1084 972 1059 960T1022 930T1011 889Q1011 868 1017 844T1028 787T1034 712Z" />
<glyph unicode="h" horiz-adv-x="1438" d="M430 124H619V0H72V124H286V1456H72V1580H430V124ZM1044 124V684Q1044 814 986 888T802 962Q697 962 613 909T480 754T430 509L396 722H436Q456 839 511 920T653 1045T850 1088Q1024 1088 1106 988T1188 707V124H1392V0H856V124H1044Z"
/>
<glyph unicode="i" horiz-adv-x="730" d="M470 124H675V0H110V124H326V941H110V1065H470V124ZM299 1514H483V1323H299V1514Z" />
<glyph unicode="j" horiz-adv-x="644" d="M66 1065H448V-139Q448 -281 376 -360T155 -439Q31 -439 -34 -383T-121 -222L8 -184Q24 -246 59 -276T156 -307Q227 -307 265 -266T304 -139V941H66V1065ZM277 1514H461V1323H277V1514Z" />
<glyph unicode="k" horiz-adv-x="1420" d="M430 124H619V0H72V124H286V1456H72V1580H430V124ZM802 675L1225 124H1364V0H816V124H1047L700 588L802 675ZM387 287L357 402L1010 941H685V1065H1347V941H1197L387 287Z" />
<glyph unicode="l" horiz-adv-x="710" d="M435 124H654V0H72V124H291V1456H72V1580H435V124Z" />
<glyph unicode="m" horiz-adv-x="2152" d="M1571 0V124H1759V683Q1759 814 1701 888T1520 962Q1421 962 1344 910T1223 761T1179 528L1144 742H1185Q1210 916 1314 1002T1569 1088Q1738 1088 1820 988T1903 706V124H2107V0H1571ZM97 0V124H310V941H97V1065H454V124H643V0H97ZM847
0V124H1035V683Q1035 814 977 888T796 962Q697 962 620 910T499 761T454 528L420 742H461Q485 916 590 1002T845 1088Q1014 1088 1096 988T1179 706V124H1383V0H847Z" />
<glyph unicode="n" horiz-adv-x="1469" d="M460 124H650V0H97V124H316V941H97V1065H460V124ZM1074 124V681Q1074 812 1015 887T829 962Q726 962 642 911T509 763T460 528L427 741H467Q486 850 540 926T678 1043T873 1084Q1047 1084 1132 984T1218 700V124H1423V0H887V124H1074Z"
/>
<glyph unicode="o" horiz-adv-x="1330" d="M665 -19Q499 -19 374 51T179 245T109 529Q109 691 179 816T374 1013T665 1084Q831 1084 956 1013T1151 817T1221 529Q1221 368 1151 245T956 52T665 -19ZM665 114Q785 114 876 166T1019 311T1071 529Q1071 654 1020
749T877 897T665 951Q545 951 454 898T311 749T259 529Q259 405 310 312T453 166T665 114Z" />
<glyph unicode="p" horiz-adv-x="1467" d="M75 -420V-296H288V941H75V1065H432V684L428 570V507L432 417V-296H641V-420H75ZM834 -20Q702 -20 598 38T425 203T335 461L428 530Q428 407 475 313T610 164T819 110Q938 110 1026 164T1161 313T1209 532Q1209 657 1160
752T1023 901T819 956Q700 956 612 902T476 751T428 530L405 757H439Q457 845 509 919T646 1039T850 1085Q962 1085 1055 1045T1215 930T1320 754T1358 532Q1358 371 1293 246T1111 51T834 -20Z" />
<glyph unicode="q" horiz-adv-x="1388" d="M1179 -296H1389V-420H803V-296H1035V405L1040 487V561L1035 678V837L1166 1087H1179V-296ZM639 1085Q773 1085 878 1035T1053 891T1145 668L1041 532Q1041 656 994 751T858 900T649 955Q527 955 439 902T305 754T258
531Q258 407 307 312T445 163T649 109Q769 109 856 163T992 312T1041 532L1063 308H1029Q1011 220 959 146T822 26T618 -20Q507 -20 414 20T253 135T148 311T110 534Q110 696 176 820T360 1014T639 1085Z" />
<glyph unicode="r" horiz-adv-x="910" d="M460 124H668V0H97V124H316V941H97V1065H460V124ZM869 912Q851 917 831 920T786 923Q638 923 549 813T460 506L426 739H467Q481 845 525 921T639 1039T805 1081Q823 1081 837 1080T869 1075V912Z" />
<glyph unicode="s" horiz-adv-x="1093" d="M627 -19Q520 -19 447 13T330 98T274 218H238L267 336Q286 231 371 165T594 99Q711 99 775 146T840 285Q840 368 776 414T552 484Q323 520 226 597T129 802Q129 930 218 1007T466 1084Q571 1084 639 1052T745 967T793
849H829L800 736Q782 838 702 902T493 967Q389 967 331 923T272 806Q272 729 345 686T575 617Q797 582 890 502T983 286Q983 143 892 62T627 -19ZM123 0V336H267V0H123ZM800 736V1065H944V736H800Z" />
<glyph unicode="t" horiz-adv-x="854" d="M382 282Q382 198 414 156T512 113Q577 113 610 156T643 282V381H773V283Q773 187 745 120T658 17T509 -19Q416 -19 356 17T267 121T238 282L239 941H49V1065H239V1335H383V1065H759L758 941H383L382 282Z" />
<glyph unicode="u" horiz-adv-x="1384" d="M977 941H771V1065H1121V124H1329V0H977V941ZM382 1065V386Q382 255 440 180T625 104Q726 104 805 155T931 304T977 537L1012 324H970Q943 152 837 65T575 -23Q403 -23 321 79T238 362V941H45V1065H382Z" />
<glyph unicode="v" horiz-adv-x="1258" d="M753 1065H1225V941H1105L713 0H557L152 941H33V1065H516V941H308L701 0L566 151H703L586 0L961 941H753V1065Z" />
<glyph unicode="w" horiz-adv-x="1918" d="M1397 1065H1880V941H1750L1417 0H1250L913 944L1027 799H891L1005 944L688 0H520L170 941H39V1065H529V941H324L651 0L531 139H670L561 0L887 941H720V1065H1214V941H1051L1390 0L1268 139H1405L1302 0L1612 941H1397V1065Z" />
<glyph unicode="x" horiz-adv-x="1234" d="M1054 941L652 492L700 609V472L652 589L1062 124H1181V0H713V124H886L568 501L674 452H540L649 501L331 124H506V0H53V124H172L580 582L532 464V602L580 485L180 941H53V1065H520V941H355L665 572L559 622H693L584 572L895
941H727V1065H1181V941H1054Z" />
<glyph unicode="y" horiz-adv-x="1271" d="M742 1065H1238V941H1105L665 -142Q611 -276 499 -348T219 -420H114V-293H219Q331 -293 414 -247T536 -110L612 77L587 -47L180 941H33V1065H539V941H337L696 44L565 160H703L628 92L961 941H742V1065Z" />
<glyph unicode="z" horiz-adv-x="1145" d="M113 119L843 941V984L1032 946L303 125V77L113 119ZM1032 1065V946H278V727H135V1065H1032ZM898 339H1040V0H113V119H898V339Z" />
<glyph unicode="{" horiz-adv-x="941" d="M721 1473Q616 1473 564 1413T511 1243V847Q511 707 429 634T185 561V649Q368 649 368 842V1231Q368 1349 410 1433T532 1561T721 1606Q764 1606 808 1599T901 1578L874 1451Q828 1464 789 1468T721 1473ZM141 649H185V516H141V649ZM734
-319Q763 -319 798 -314T874 -299L901 -414Q840 -427 789 -434T695 -442Q539 -442 454 -347T368 -81V322Q368 419 323 467T185 516V635Q347 635 429 562T511 344V-62Q511 -319 734 -319Z" />
<glyph unicode="|" horiz-adv-x="616" d="M241 1580H374L376 -168H239L241 1580Z" />
<glyph unicode="}" horiz-adv-x="941" d="M220 -309Q326 -309 378 -249T430 -79V317Q430 457 512 530T755 603V515Q573 515 573 322V-67Q573 -185 531 -269T409 -397T220 -442Q177 -442 134 -435T40 -414L67 -287Q114 -300 153 -304T220 -309ZM799 515H755V648H799V515ZM207
1483Q179 1483 144 1479T67 1463L40 1578Q101 1592 152 1599T246 1606Q403 1606 488 1511T573 1245V842Q573 745 618 697T755 648V529Q595 529 513 602T430 820V1226Q430 1483 207 1483Z" />
<glyph unicode="~" horiz-adv-x="1168" d="M957 862L1087 849Q1067 703 991 636T800 568Q725 568 667 593T545 666Q494 705 456 723T374 741Q311 741 269 703T210 583L81 598Q102 738 175 807T371 876Q447 876 504 851T624 778Q672 740 712 721T796 702Q859 702
901 742T957 862Z" />
<glyph unicode="&#xa0;" horiz-adv-x="608" />
<glyph unicode="&#xa1;" horiz-adv-x="590" d="M210 -439L241 692H358L390 -439H210ZM190 862V1065H399V862H190Z" />
<glyph unicode="&#xa2;" horiz-adv-x="1292" d="M641 1504H709V0H641V1504ZM1171 484Q1103 354 976 279T679 204Q516 204 395 274T208 468T142 753Q142 915 206 1040T390 1237T678 1308Q829 1308 935 1251T1102 1092T1179 856L1030 855Q1015 951 969 1023T848
1137T672 1178Q556 1178 470 1125T337 975T289 753Q289 631 337 537T473 390T682 337Q802 337 893 391T1038 538L1171 484Z" />
<glyph unicode="&#xa3;" horiz-adv-x="1627" d="M1198 806V744H257V806H1198ZM1026 1524Q1273 1524 1387 1380T1512 968H1363Q1353 1170 1270 1273T1027 1377Q948 1377 891 1351T799 1276T747 1156T730 996V367Q730 277 709 206T643 85T531 8T370 -19Q215 -19
138 46T61 235Q61 353 134 417T364 478V355Q200 355 200 233Q200 171 245 139T369 107Q485 107 532 174T580 354V998Q580 1115 605 1211T683 1378T821 1486T1026 1524ZM1556 570Q1561 540 1562 512T1564 450Q1564 218 1461 98T1137 -21Q1040 -20 970 1T845 57T747
132T659 211L612 253Q561 296 503 325T364 355V478Q450 478 516 459T637 410L695 375Q751 336 798 293T893 211T998 148T1133 123Q1269 123 1342 208T1415 458Q1415 483 1414 509T1407 562L1556 570Z" />
<glyph unicode="&#xa4;" horiz-adv-x="1303" d="M652 224Q514 224 409 280T244 437T185 668Q185 801 244 903T408 1062T652 1120Q791 1120 896 1063T1060 903T1119 668Q1119 537 1060 437T896 281T652 224ZM652 356Q745 356 815 396T926 506T966 668Q966 763 926
835T816 947T652 988Q560 988 489 948T378 835T338 668Q338 577 378 507T489 396T652 356ZM360 470L453 377L221 143L127 237L360 470ZM1084 1192L1176 1100L945 867L852 961L1084 1192ZM454 960L361 867L127 1099L221 1193L454 960ZM1176 236L1084 144L851 377L944
470L1176 236Z" />
<glyph unicode="&#xa5;" horiz-adv-x="1590" d="M1273 696V633H333V696H1273ZM1273 501V438H333V501H1273ZM1408 1367L861 661H730L183 1367H44V1504H640V1367H364L842 746L721 802H867L766 746L1244 1367H948V1504H1547V1367H1408ZM869 772V137H1110V0H478V137H719V772H869Z"
/>
<glyph unicode="&#xa6;" horiz-adv-x="611" d="M241 494H370L372 -269H239L241 494ZM241 1504H370L372 742H239L241 1504Z" />
<glyph unicode="&#xa7;" horiz-adv-x="1192" d="M547 1247Q547 1148 586 1072T689 929T824 793T958 637T1061 434T1101 156Q1101 -8 1052 -123T919 -310T729 -415T510 -448L437 -383Q519 -383 610 -356T781 -267T912 -102T963 152Q963 296 924 400T822 585T689
735T557 877T454 1036T414 1241Q414 1327 443 1394T539 1499T719 1537L683 1599Q816 1599 909 1553T1074 1415L968 1340Q917 1404 863 1437T742 1471Q644 1471 596 1409T547 1247ZM645 -97Q645 3 606 79T503 221T368 358T234 514T131 718T91 995Q91 1159 140 1274T274
1461T464 1566T683 1599L755 1533Q674 1533 583 1506T411 1418T280 1254T229 1000Q229 857 268 752T370 566T503 415T636 273T738 114T778 -91Q778 -177 749 -243T653 -348T474 -386L510 -448Q380 -448 286 -403T119 -266L225 -191Q276 -256 330 -288T450 -320Q548
-320 596 -259T645 -97Z" />
<glyph unicode="&#xa8;" horiz-adv-x="687" d="M80 1505H257V1329H80V1505ZM430 1505H607V1329H430V1505Z" />
<glyph unicode="&#xa9;" horiz-adv-x="1776" d="M888 1528Q1065 1528 1210 1472T1460 1312T1623 1068T1681 756Q1681 526 1581 350T1302 75T889 -24Q713 -24 567 32T316 193T154 441T96 756Q96 927 153 1068T316 1312T567 1471T888 1528ZM889 110Q1079 110 1224
192T1451 419T1533 756Q1533 945 1451 1088T1224 1313T888 1394Q699 1394 554 1314T326 1089T244 756Q244 565 325 420T552 192T889 110ZM898 354Q780 354 692 403T554 540T505 742Q505 857 551 945T680 1084T869 1134Q953 1134 1005 1105T1083 1024T1118 909H1144L1123
798Q1107 892 1051 953T892 1014Q817 1014 761 979T674 883T643 742Q643 664 674 604T763 511T900 477Q980 477 1038 508T1122 595L1237 537Q1197 452 1109 403T898 354ZM1123 798V1110H1254V798H1123Z" />
<glyph unicode="&#xaa;" horiz-adv-x="979" d="M757 676Q721 676 703 696T684 753V1002L694 1027L689 1122L684 1174V1234Q684 1322 630 1365T470 1409Q372 1409 317 1371T242 1253L121 1277Q138 1359 181 1412T296 1492T473 1519Q636 1519 721 1452T807 1240V789H926V676H757ZM353
666Q228 666 161 722T94 888Q94 959 120 1007T201 1086T344 1136L718 1214V1129L361 1050Q289 1032 252 998T215 900Q215 837 255 806T375 775Q466 775 537 815T648 932T689 1122L719 934H680Q658 801 575 734T353 666Z" />
<glyph unicode="&#xab;" horiz-adv-x="977" d="M206 574V571L528 123H378L93 524V620L378 1022H528L206 574ZM618 574V571L940 123H790L505 524V620L790 1022H940L618 574Z" />
<glyph unicode="&#xac;" horiz-adv-x="1012" d="M743 626V502H80V626H743ZM853 254H716V626H853V254Z" />
<glyph unicode="&#xad;" horiz-adv-x="717" d="M637 626V502H80V626H637Z" />
<glyph unicode="&#xae;" horiz-adv-x="1155" d="M577 1597Q716 1597 821 1540T987 1382T1047 1148Q1047 1014 988 911T823 750T577 692Q439 692 333 750T168 911T108 1148Q108 1281 168 1382T334 1540T577 1597ZM578 765Q693 765 781 814T918 949T968 1148Q968
1260 919 1344T781 1476T578 1524Q463 1524 375 1477T237 1345T187 1148Q187 1036 237 950T375 814T578 765ZM531 1382H608Q688 1382 732 1348T777 1254Q777 1211 753 1181T683 1138V1130L602 1116H475V1178H605Q659 1178 681 1197T703 1248Q703 1284 680 1302T607
1320H531V1382ZM755 980H809V918H700L639 1085Q631 1106 622 1111T593 1116H573L636 1148Q667 1144 681 1136T705 1106L755 980ZM505 980H576V918H363V980H434V1320H363V1382H563V1320H505V980Z" />
<glyph unicode="&#xaf;" horiz-adv-x="749" d="M669 1487V1363H80V1487H669Z" />
<glyph unicode="&#xb0;" horiz-adv-x="716" d="M358 923Q264 923 194 962T85 1068T45 1223Q45 1310 84 1377T194 1483T358 1522Q452 1522 522 1484T631 1378T671 1223Q671 1135 632 1068T522 962T358 923ZM358 1033Q446 1033 500 1086T554 1223Q554 1308 500 1360T358
1413Q271 1413 217 1361T162 1223Q162 1140 216 1087T358 1033Z" />
<glyph unicode="&#xb1;" horiz-adv-x="1134" d="M496 451V806H139V930H496V1284H632V930H991L989 806H632V451H496ZM994 284V160H135V284H994Z" />
<glyph unicode="&#xb2;" horiz-adv-x="787" d="M431 1460Q493 1499 518 1533T543 1609Q543 1672 501 1708T389 1744Q317 1744 277 1703T226 1589L105 1597Q117 1722 192 1793T392 1865Q519 1865 595 1797T672 1621Q672 1544 628 1483T502 1371L345 1276Q261 1225
228 1168T194 1020H95Q95 1105 117 1169T179 1280T275 1361L431 1460ZM704 1248Q704 1128 652 1068T511 1007Q463 1007 431 1020T370 1047T307 1061Q283 1061 255 1051T203 1020H159L189 1125L216 1109Q241 1141 271 1153T330 1166Q363 1166 387 1155T435 1133T494
1122Q538 1122 560 1152T582 1248H704Z" />
<glyph unicode="&#xb3;" horiz-adv-x="729" d="M59 1258L184 1276Q198 1202 241 1159T364 1116Q439 1116 479 1153T520 1247Q520 1312 469 1351T332 1391V1472Q472 1471 559 1410T647 1234Q647 1137 576 1068T362 999Q226 999 154 1068T59 1258ZM77 1609Q92 1735
163 1798T352 1861Q477 1861 547 1797T618 1639Q618 1538 539 1477T332 1416V1496Q404 1496 448 1531T492 1623Q492 1675 455 1709T352 1744Q221 1744 204 1601L77 1609ZM280 1496H332V1391H280V1496Z" />
<glyph unicode="&#xb4;" horiz-adv-x="599" d="M420 1599L507 1490L161 1250L92 1341L420 1599Z" />
<glyph unicode="&#xb5;" horiz-adv-x="1384" d="M977 941H771V1065H1121V124H1329V0H977V941ZM382 581V386Q382 255 441 180T625 104Q726 104 806 155T932 304T978 537L1013 324H972Q955 209 905 132T780 16T609 -23Q457 -23 385 79T312 362V581H382ZM238 -420V941H45V1065H382V-420H238Z"
/>
<glyph unicode="&#xb6;" horiz-adv-x="1456" d="M513 -420V-283H700V1463H850V-420H513ZM1349 -420H1012V1504H1349V1367H1162V-283H1349V-420ZM834 692H596Q440 692 338 728T177 825T94 958T70 1104Q70 1293 199 1398T586 1504H850V1367H591Q418 1367 321 1300T223
1094Q223 962 315 894T589 825H834V692Z" />
<glyph unicode="&#xb7;" horiz-adv-x="504" d="M147 672H356V469H147V672Z" />
<glyph unicode="&#xb8;" horiz-adv-x="640" d="M120 -325Q148 -336 185 -343T268 -350Q344 -350 385 -331T426 -276Q426 -249 403 -233T337 -217H160V-121H342Q456 -121 508 -162T560 -268Q560 -344 485 -391T270 -439Q213 -439 166 -429T80 -402L120 -325ZM249
23H331L241 -121H160L249 23Z" />
<glyph unicode="&#xb9;" horiz-adv-x="614" d="M306 1846H393V1131H563V1018H101V1131H271V1794L306 1846ZM114 1734H162Q215 1734 246 1764T282 1846H317L292 1708H265Q252 1665 222 1645T143 1625H114V1734Z" />
<glyph unicode="&#xba;" horiz-adv-x="1040" d="M519 661Q390 661 292 715T139 866T84 1087Q84 1213 139 1310T292 1463T519 1519Q649 1519 747 1464T901 1311T956 1087Q956 962 901 866T748 716T519 661ZM519 776Q611 776 680 815T789 923T828 1087Q828 1181
789 1252T681 1364T519 1404Q429 1404 360 1364T252 1253T212 1087Q212 993 251 924T360 815T519 776Z" />
<glyph unicode="&#xbb;" horiz-adv-x="977" d="M771 574L449 1022H599L885 620V524L599 123H449L771 571V574ZM359 574L37 1022H187L473 620V524L187 123H37L359 571V574Z" />
<glyph unicode="&#xbc;" horiz-adv-x="1747" d="M306 1504H393V789H563V676H101V789H271V1452L306 1504ZM114 1392H162Q215 1392 246 1422T282 1504H317L292 1366H265Q252 1323 222 1303T143 1283H114V1392ZM275 0L1391 1504H1525L409 0H275ZM1548 828V113H1674V0H1283V113H1429V758L1398
828H1548ZM1674 344V249H1033V344H1674ZM1398 828L1497 794L1125 298L1033 344L1398 828Z" />
<glyph unicode="&#xbd;" horiz-adv-x="1813" d="M306 1504H393V789H563V676H101V789H271V1452L306 1504ZM114 1392H162Q215 1392 246 1422T282 1504H317L292 1366H265Q252 1323 222 1303T143 1283H114V1392ZM275 0L1391 1504H1525L409 0H275ZM1457 440Q1519 479
1544 513T1569 589Q1569 652 1527 688T1415 724Q1343 724 1303 683T1252 569L1131 577Q1143 702 1218 773T1418 845Q1545 845 1621 777T1698 601Q1698 524 1654 463T1528 351L1371 256Q1287 205 1254 148T1220 0H1121Q1121 85 1143 149T1205 260T1301 341L1457
440ZM1730 228Q1730 108 1678 48T1537 -13Q1489 -13 1457 0T1396 27T1333 41Q1309 41 1281 31T1229 0H1185L1215 105L1242 89Q1267 121 1297 133T1356 146Q1389 146 1413 135T1461 113T1520 102Q1564 102 1586 132T1608 228H1730Z" />
<glyph unicode="&#xbe;" horiz-adv-x="1776" d="M59 916L184 934Q198 860 241 817T364 774Q439 774 479 811T520 905Q520 970 469 1009T332 1049V1130Q472 1129 559 1068T647 892Q647 795 576 726T362 657Q226 657 154 726T59 916ZM77 1267Q92 1393 163 1456T352
1519Q477 1519 547 1455T618 1297Q618 1196 539 1135T332 1074V1154Q404 1154 448 1189T492 1281Q492 1333 455 1367T352 1402Q221 1402 204 1259L77 1267ZM280 1154H332V1049H280V1154ZM304 0L1420 1504H1554L438 0H304ZM1577 828V113H1703V0H1312V113H1458V758L1427
828H1577ZM1703 344V249H1062V344H1703ZM1427 828L1526 794L1154 298L1062 344L1427 828Z" />
<glyph unicode="&#xbf;" horiz-adv-x="1131" d="M1015 196Q1036 150 1046 102T1056 5Q1056 -129 990 -231T810 -392T549 -451Q393 -451 281 -389T109 -224T48 5Q48 103 79 173T160 294T265 386T370 464T451 548T482 653V706H632V650Q632 572 601 514T522 409T419
322T316 236T237 136T206 4Q206 -77 247 -147T364 -260T549 -303Q652 -303 731 -264T855 -156T901 5Q901 42 893 76T870 144L1015 196ZM661 872H455V1072H661V872Z" />
<glyph unicode="&#xc0;" horiz-adv-x="1641" d="M668 1998L996 1740L927 1649L581 1889L668 1998ZM1227 617V485H419V617H1227ZM1468 137H1613V0H972V137H1311L797 1386L890 1322H744L837 1386L323 137H662V0H28V137H174L736 1504H905L1468 137Z" />
<glyph unicode="&#xc1;" horiz-adv-x="1641" d="M1227 617V485H419V617H1227ZM1468 137H1613V0H972V137H1311L797 1386L890 1322H744L837 1386L323 137H662V0H28V137H174L736 1504H905L1468 137ZM978 1998L1065 1889L719 1649L650 1740L978 1998Z" />
<glyph unicode="&#xc2;" horiz-adv-x="1641" d="M1227 617V485H419V617H1227ZM1468 137H1613V0H972V137H1311L797 1386L890 1322H744L837 1386L323 137H662V0H28V137H174L736 1504H905L1468 137ZM867 1951L1158 1733L1097 1648L823 1820L549 1648L488 1733L778 1951H867Z" />
<glyph unicode="&#xc3;" horiz-adv-x="1641" d="M1227 617V485H419V617H1227ZM1468 137H1613V0H972V137H1311L797 1386L890 1322H744L837 1386L323 137H662V0H28V137H174L736 1504H905L1468 137ZM1044 1944L1155 1932Q1145 1810 1093 1750T951 1689Q899 1689 861
1710T782 1777Q751 1812 731 1825T685 1839Q644 1839 620 1807T586 1703L475 1715Q486 1837 537 1898T679 1959Q730 1959 769 1938T851 1869Q883 1834 903 1821T947 1808Q987 1808 1011 1841T1044 1944Z" />
<glyph unicode="&#xc4;" horiz-adv-x="1641" d="M1227 617V485H419V617H1227ZM1468 137H1613V0H972V137H1311L797 1386L890 1322H744L837 1386L323 137H662V0H28V137H174L736 1504H905L1468 137ZM559 1904H736V1728H559V1904ZM909 1904H1086V1728H909V1904Z" />
<glyph unicode="&#xc5;" horiz-adv-x="1641" d="M1227 617V485H419V617H1227ZM1468 137H1613V0H972V137H1311L797 1386L890 1322H744L837 1386L323 137H662V0H28V137H174L736 1504H905L1468 137ZM823 1625Q716 1625 648 1691T580 1856Q580 1957 648 2022T823 2087Q931
2087 998 2022T1066 1856Q1066 1757 999 1691T823 1625ZM823 1718Q885 1718 923 1757T962 1856Q962 1917 924 1955T823 1993Q762 1993 723 1955T683 1856Q683 1796 722 1757T823 1718Z" />
<glyph unicode="&#xc6;" horiz-adv-x="2461" d="M931 0V137H1173V1367H461V1504H2330V1072H2180V1367H1323V137H2198V432H2348V0H931ZM3 0V137H160L845 1461H1010L324 137H625V0H3ZM451 484V617H1267V484H451ZM1257 692V825H1948V692H1257Z" />
<glyph unicode="&#xc7;" horiz-adv-x="1663" d="M850 -21Q685 -21 547 36T308 197T152 443T96 756Q96 925 150 1066T304 1309T543 1467T847 1524Q1010 1524 1129 1470T1321 1316T1422 1077H1470L1429 914Q1383 1132 1229 1254T851 1377Q673 1377 539 1299T330
1080T255 756Q255 617 299 501T422 301T610 172T850 126Q998 126 1118 184T1317 348T1426 597L1580 565Q1544 388 1443 256T1191 52T850 -21ZM1429 914V1504H1578V914H1429ZM672 -325Q700 -336 737 -343T820 -350Q896 -350 937 -331T978 -276Q978 -249 955 -233T889
-217H712V-121H894Q1008 -121 1060 -162T1112 -268Q1112 -344 1037 -391T822 -439Q765 -439 718 -429T632 -402L672 -325ZM801 23H883L793 -121H712L801 23Z" />
<glyph unicode="&#xc8;" horiz-adv-x="1577" d="M653 1998L981 1740L912 1649L566 1889L653 1998ZM1065 825V692H381V825H1065ZM1315 432H1464V0H55V137H297V1367H55V1504H1446V1072H1297V1367H446V137H1315V432Z" />
<glyph unicode="&#xc9;" horiz-adv-x="1577" d="M1065 825V692H381V825H1065ZM1315 432H1464V0H55V137H297V1367H55V1504H1446V1072H1297V1367H446V137H1315V432ZM963 1998L1050 1889L704 1649L635 1740L963 1998Z" />
<glyph unicode="&#xca;" horiz-adv-x="1577" d="M1065 825V692H381V825H1065ZM1315 432H1464V0H55V137H297V1367H55V1504H1446V1072H1297V1367H446V137H1315V432ZM852 1951L1143 1733L1082 1648L808 1820L534 1648L473 1733L763 1951H852Z" />
<glyph unicode="&#xcb;" horiz-adv-x="1577" d="M1065 825V692H381V825H1065ZM1315 432H1464V0H55V137H297V1367H55V1504H1446V1072H1297V1367H446V137H1315V432ZM544 1904H721V1728H544V1904ZM894 1904H1071V1728H894V1904Z" />
<glyph unicode="&#xcc;" horiz-adv-x="743" d="M217 1998L546 1740L476 1649L130 1889L217 1998ZM55 1367V1504H688V1367H446V137H688V0H55V137H297V1367H55Z" />
<glyph unicode="&#xcd;" horiz-adv-x="743" d="M55 1367V1504H688V1367H446V137H688V0H55V137H297V1367H55ZM527 1998L614 1889L268 1649L199 1740L527 1998Z" />
<glyph unicode="&#xce;" horiz-adv-x="743" d="M55 1367V1504H688V1367H446V137H688V0H55V137H297V1367H55ZM417 1951L708 1733L647 1648L373 1820L99 1648L38 1733L328 1951H417Z" />
<glyph unicode="&#xcf;" horiz-adv-x="743" d="M55 1367V1504H688V1367H446V137H688V0H55V137H297V1367H55ZM109 1904H286V1728H109V1904ZM459 1904H636V1728H459V1904Z" />
<glyph unicode="&#xd0;" horiz-adv-x="1685" d="M906 825V692H125V825H906ZM669 0V137H805Q993 137 1133 215T1352 434T1431 756Q1431 937 1353 1075T1134 1290T805 1367H670V1504H805Q1040 1504 1216 1409T1491 1145T1589 756Q1589 533 1491 363T1217 96T805
0H669ZM73 0V137H315V1367H73V1504H721V1367H464V137H721V0H73Z" />
<glyph unicode="&#xd1;" horiz-adv-x="1803" d="M1338 0L340 1504H514L1512 0H1338ZM55 1368V1504H513L511 1341H436V137H678V0H55V137H297V1368H55ZM1139 1367V1504H1771V1367H1529V0H1340L1287 205H1390V1367H1139ZM1128 1944L1239 1932Q1229 1810 1177 1750T1035
1689Q983 1689 945 1710T866 1777Q835 1812 815 1825T769 1839Q728 1839 704 1807T670 1703L559 1715Q570 1837 621 1898T763 1959Q814 1959 853 1938T935 1869Q967 1834 987 1821T1031 1808Q1071 1808 1095 1841T1128 1944Z" />
<glyph unicode="&#xd2;" horiz-adv-x="1738" d="M714 1998L1043 1740L973 1649L627 1889L714 1998ZM869 -21Q698 -21 556 35T311 195T152 441T96 756Q96 926 152 1067T311 1310T555 1469T869 1525Q1041 1525 1182 1469T1427 1311T1586 1067T1643 756Q1643 584
1587 442T1428 196T1183 36T869 -21ZM869 125Q1052 125 1190 205T1406 428T1484 756Q1484 940 1407 1080T1191 1300T869 1379Q687 1379 549 1300T332 1081T254 756Q254 570 332 428T548 206T869 125Z" />
<glyph unicode="&#xd3;" horiz-adv-x="1738" d="M869 -21Q698 -21 556 35T311 195T152 441T96 756Q96 926 152 1067T311 1310T555 1469T869 1525Q1041 1525 1182 1469T1427 1311T1586 1067T1643 756Q1643 584 1587 442T1428 196T1183 36T869 -21ZM869 125Q1052
125 1190 205T1406 428T1484 756Q1484 940 1407 1080T1191 1300T869 1379Q687 1379 549 1300T332 1081T254 756Q254 570 332 428T548 206T869 125ZM1024 1998L1111 1889L765 1649L696 1740L1024 1998Z" />
<glyph unicode="&#xd4;" horiz-adv-x="1738" d="M869 -21Q698 -21 556 35T311 195T152 441T96 756Q96 926 152 1067T311 1310T555 1469T869 1525Q1041 1525 1182 1469T1427 1311T1586 1067T1643 756Q1643 584 1587 442T1428 196T1183 36T869 -21ZM869 125Q1052
125 1190 205T1406 428T1484 756Q1484 940 1407 1080T1191 1300T869 1379Q687 1379 549 1300T332 1081T254 756Q254 570 332 428T548 206T869 125ZM913 1951L1204 1733L1143 1648L869 1820L595 1648L534 1733L824 1951H913Z" />
<glyph unicode="&#xd5;" horiz-adv-x="1738" d="M869 -21Q698 -21 556 35T311 195T152 441T96 756Q96 926 152 1067T311 1310T555 1469T869 1525Q1041 1525 1182 1469T1427 1311T1586 1067T1643 756Q1643 584 1587 442T1428 196T1183 36T869 -21ZM869 125Q1052
125 1190 205T1406 428T1484 756Q1484 940 1407 1080T1191 1300T869 1379Q687 1379 549 1300T332 1081T254 756Q254 570 332 428T548 206T869 125ZM1090 1944L1201 1932Q1191 1810 1139 1750T997 1689Q945 1689 907 1710T828 1777Q797 1812 777 1825T731 1839Q690
1839 666 1807T632 1703L521 1715Q532 1837 583 1898T725 1959Q776 1959 815 1938T897 1869Q929 1834 949 1821T993 1808Q1033 1808 1057 1841T1090 1944Z" />
<glyph unicode="&#xd6;" horiz-adv-x="1738" d="M869 -21Q698 -21 556 35T311 195T152 441T96 756Q96 926 152 1067T311 1310T555 1469T869 1525Q1041 1525 1182 1469T1427 1311T1586 1067T1643 756Q1643 584 1587 442T1428 196T1183 36T869 -21ZM869 125Q1052
125 1190 205T1406 428T1484 756Q1484 940 1407 1080T1191 1300T869 1379Q687 1379 549 1300T332 1081T254 756Q254 570 332 428T548 206T869 125ZM605 1904H782V1728H605V1904ZM955 1904H1132V1728H955V1904Z" />
<glyph unicode="&#xd7;" horiz-adv-x="1123" d="M874 322L563 633L249 322L160 410L474 722L160 1036L249 1124L563 811L876 1124L963 1036L652 722L963 410L874 322Z" />
<glyph unicode="&#xd8;" horiz-adv-x="1738" d="M1520 1509L1620 1409L206 -5L106 95L1520 1509ZM869 -21Q698 -21 556 35T311 195T152 441T96 756Q96 926 152 1067T311 1310T555 1469T869 1525Q1041 1525 1182 1469T1427 1311T1586 1067T1643 756Q1643 584 1587
442T1428 196T1183 36T869 -21ZM869 125Q1052 125 1190 205T1406 428T1484 756Q1484 940 1407 1080T1191 1300T869 1379Q687 1379 549 1300T332 1081T254 756Q254 570 332 428T548 206T869 125Z" />
<glyph unicode="&#xd9;" horiz-adv-x="1695" d="M689 1998L1017 1740L948 1649L602 1889L689 1998ZM1051 1504H1670V1367H1434V580Q1434 395 1367 261T1170 53T847 -20Q656 -20 526 53T328 260T261 580V1367H25V1504H652V1367H411V580Q411 439 459 337T605 179T849
124Q996 124 1095 179T1243 337T1293 580V1367H1051V1504Z" />
<glyph unicode="&#xda;" horiz-adv-x="1695" d="M1051 1504H1670V1367H1434V580Q1434 395 1367 261T1170 53T847 -20Q656 -20 526 53T328 260T261 580V1367H25V1504H652V1367H411V580Q411 439 459 337T605 179T849 124Q996 124 1095 179T1243 337T1293 580V1367H1051V1504ZM999
1998L1086 1889L740 1649L671 1740L999 1998Z" />
<glyph unicode="&#xdb;" horiz-adv-x="1695" d="M1051 1504H1670V1367H1434V580Q1434 395 1367 261T1170 53T847 -20Q656 -20 526 53T328 260T261 580V1367H25V1504H652V1367H411V580Q411 439 459 337T605 179T849 124Q996 124 1095 179T1243 337T1293 580V1367H1051V1504ZM888
1951L1179 1733L1118 1648L844 1820L570 1648L509 1733L799 1951H888Z" />
<glyph unicode="&#xdc;" horiz-adv-x="1695" d="M1051 1504H1670V1367H1434V580Q1434 395 1367 261T1170 53T847 -20Q656 -20 526 53T328 260T261 580V1367H25V1504H652V1367H411V580Q411 439 459 337T605 179T849 124Q996 124 1095 179T1243 337T1293 580V1367H1051V1504ZM580
1904H757V1728H580V1904ZM930 1904H1107V1728H930V1904Z" />
<glyph unicode="&#xdd;" horiz-adv-x="1559" d="M1392 1367L845 661H715L167 1367H28V1504H625V1367H348L826 746L706 802H852L751 746L1228 1367H932V1504H1531V1367H1392ZM854 772V137H1095V0H462V137H704V772H854ZM933 1998L1020 1889L674 1649L605 1740L933 1998Z" />
<glyph unicode="&#xde;" horiz-adv-x="1383" d="M55 1367V1504H695V1367H446V137H695V0H55V137H297V1367H55ZM406 1007V1144H798Q1055 1144 1184 1042T1313 757Q1313 689 1289 621T1207 496T1046 405T788 371H425V508H795Q975 508 1068 572T1161 757Q1161 882
1064 944T792 1007H406Z" />
<glyph unicode="&#xdf;" horiz-adv-x="1453" d="M726 873Q804 873 867 896T975 962T1044 1061T1069 1183Q1069 1265 1034 1329T933 1430T772 1467Q682 1467 612 1431T501 1316T460 1110V0H97V124H316V941H97V1065H316V1110Q316 1266 372 1375T530 1541T772 1599Q895
1599 995 1553T1155 1419T1215 1208Q1215 1131 1192 1076T1126 982T1029 919T911 879V790L726 873ZM685 148Q729 130 773 123T862 116Q1018 116 1112 198T1207 425Q1207 578 1105 663T825 749H726V873H842Q961 873 1055 843T1217 754T1319 613T1355 422Q1355 283
1296 185T1128 35T866 -17Q805 -17 750 -7T641 23L685 148Z" />
<glyph unicode="&#xe0;" horiz-adv-x="1247" d="M447 1599L776 1341L706 1250L360 1490L447 1599ZM962 0Q921 0 900 26T878 99V419L891 452L884 573L878 636V717Q878 799 845 851T748 928T596 953Q463 953 391 901T294 743L156 772Q176 877 231 946T377 1050T601
1085Q739 1085 832 1047T974 929T1022 725V124H1179V0H962ZM460 -14Q294 -14 208 59T122 276Q122 408 198 477T442 582L921 684V581L466 478Q368 455 320 411T271 285Q271 197 325 154T483 110Q598 110 689 163T832 319T884 573L922 337H871Q846 170 742 78T460
-14Z" />
<glyph unicode="&#xe1;" horiz-adv-x="1247" d="M962 0Q921 0 900 26T878 99V419L891 452L884 573L878 636V717Q878 799 845 851T748 928T596 953Q463 953 391 901T294 743L156 772Q176 877 231 946T377 1050T601 1085Q739 1085 832 1047T974 929T1022 725V124H1179V0H962ZM460
-14Q294 -14 208 59T122 276Q122 408 198 477T442 582L921 684V581L466 478Q368 455 320 411T271 285Q271 197 325 154T483 110Q598 110 689 163T832 319T884 573L922 337H871Q846 170 742 78T460 -14ZM757 1599L844 1490L498 1250L429 1341L757 1599Z" />
<glyph unicode="&#xe2;" horiz-adv-x="1247" d="M962 0Q921 0 900 26T878 99V419L891 452L884 573L878 636V717Q878 799 845 851T748 928T596 953Q463 953 391 901T294 743L156 772Q176 877 231 946T377 1050T601 1085Q739 1085 832 1047T974 929T1022 725V124H1179V0H962ZM460
-14Q294 -14 208 59T122 276Q122 408 198 477T442 582L921 684V581L466 478Q368 455 320 411T271 285Q271 197 325 154T483 110Q598 110 689 163T832 319T884 573L922 337H871Q846 170 742 78T460 -14ZM647 1552L938 1334L877 1249L603 1421L329 1249L268 1334L558
1552H647Z" />
<glyph unicode="&#xe3;" horiz-adv-x="1247" d="M962 0Q921 0 900 26T878 99V419L891 452L884 573L878 636V717Q878 799 845 851T748 928T596 953Q463 953 391 901T294 743L156 772Q176 877 231 946T377 1050T601 1085Q739 1085 832 1047T974 929T1022 725V124H1179V0H962ZM460
-14Q294 -14 208 59T122 276Q122 408 198 477T442 582L921 684V581L466 478Q368 455 320 411T271 285Q271 197 325 154T483 110Q598 110 689 163T832 319T884 573L922 337H871Q846 170 742 78T460 -14ZM824 1545L935 1533Q925 1411 873 1351T731 1290Q679 1290
641 1311T562 1378Q531 1413 511 1426T465 1440Q424 1440 400 1408T366 1304L255 1316Q266 1438 317 1499T459 1560Q510 1560 549 1539T631 1470Q663 1435 683 1422T727 1409Q767 1409 791 1442T824 1545Z" />
<glyph unicode="&#xe4;" horiz-adv-x="1247" d="M962 0Q921 0 900 26T878 99V419L891 452L884 573L878 636V717Q878 799 845 851T748 928T596 953Q463 953 391 901T294 743L156 772Q176 877 231 946T377 1050T601 1085Q739 1085 832 1047T974 929T1022 725V124H1179V0H962ZM460
-14Q294 -14 208 59T122 276Q122 408 198 477T442 582L921 684V581L466 478Q368 455 320 411T271 285Q271 197 325 154T483 110Q598 110 689 163T832 319T884 573L922 337H871Q846 170 742 78T460 -14ZM339 1505H516V1329H339V1505ZM689 1505H866V1329H689V1505Z"
/>
<glyph unicode="&#xe5;" horiz-adv-x="1247" d="M962 0Q921 0 900 26T878 99V419L891 452L884 573L878 636V717Q878 799 845 851T748 928T596 953Q463 953 391 901T294 743L156 772Q176 877 231 946T377 1050T601 1085Q739 1085 832 1047T974 929T1022 725V124H1179V0H962ZM460
-14Q294 -14 208 59T122 276Q122 408 198 477T442 582L921 684V581L466 478Q368 455 320 411T271 285Q271 197 325 154T483 110Q598 110 689 163T832 319T884 573L922 337H871Q846 170 742 78T460 -14ZM603 1226Q496 1226 428 1292T360 1457Q360 1558 428 1623T603
1688Q711 1688 778 1623T846 1457Q846 1358 779 1292T603 1226ZM603 1319Q665 1319 703 1358T742 1457Q742 1518 704 1556T603 1594Q542 1594 503 1556T463 1457Q463 1397 502 1358T603 1319Z" />
<glyph unicode="&#xe6;" horiz-adv-x="2019" d="M1424 -19Q1277 -19 1165 42T986 211T905 463L1030 745H1054Q1073 841 1120 918T1244 1039T1433 1084Q1571 1084 1681 1014T1854 820T1917 534Q1917 523 1917 510T1916 485H1772Q1773 497 1774 511T1775 545Q1775
664 1731 756T1607 902T1415 955Q1305 955 1222 901T1093 751T1046 529Q1046 407 1092 313T1224 165T1424 111Q1535 111 1622 165T1757 312L1891 260Q1826 131 1705 56T1424 -19ZM465 -14Q296 -14 209 59T122 277Q122 416 204 484T442 584L945 684V582L466 480Q373
461 322 416T271 284Q271 192 329 151T487 110Q562 110 636 134T772 211T871 354T908 573L966 362H915Q886 175 770 81T465 -14ZM1046 465H915L908 573L902 659V710Q902 802 864 855T758 931T608 953Q487 953 405 905T291 736L162 764Q179 855 230 927T376 1042T619
1085Q747 1085 843 1052T992 940T1046 725V465ZM992 485V595H1871L1915 485H992Z" />
<glyph unicode="&#xe7;" horiz-adv-x="1250" d="M660 -19Q494 -19 372 51T182 244T114 529Q114 651 151 752T257 928T421 1043T633 1084Q746 1084 821 1048T939 948T993 802H1028L999 651Q986 741 940 809T820 916T649 955Q533 955 446 901T310 751T261 529Q261
407 310 314T449 167T661 114Q787 114 878 169T1011 319L1144 260Q1087 131 962 56T660 -19ZM999 651V1065H1143V651H999ZM462 -325Q490 -336 527 -343T610 -350Q686 -350 727 -331T768 -276Q768 -249 745 -233T679 -217H502V-121H684Q798 -121 850 -162T902 -268Q902
-344 827 -391T612 -439Q555 -439 508 -429T422 -402L462 -325ZM591 23H673L583 -121H502L591 23Z" />
<glyph unicode="&#xe8;" horiz-adv-x="1266" d="M490 1599L819 1341L749 1250L403 1490L490 1599ZM652 -19Q487 -19 366 51T179 244T113 529Q113 692 179 817T365 1013T644 1084Q804 1084 921 1014T1101 820T1164 534Q1164 515 1164 504T1161 485H1019Q1020 497
1020 511T1021 545Q1021 664 976 756T846 902T644 955Q529 955 442 901T307 751T259 529Q259 407 306 314T442 167T651 114Q777 114 869 173T1007 336L1143 285Q1084 144 955 63T652 -19ZM204 485V596H1118L1160 485H204Z" />
<glyph unicode="&#xe9;" horiz-adv-x="1266" d="M652 -19Q487 -19 366 51T179 244T113 529Q113 692 179 817T365 1013T644 1084Q804 1084 921 1014T1101 820T1164 534Q1164 515 1164 504T1161 485H1019Q1020 497 1020 511T1021 545Q1021 664 976 756T846 902T644
955Q529 955 442 901T307 751T259 529Q259 407 306 314T442 167T651 114Q777 114 869 173T1007 336L1143 285Q1084 144 955 63T652 -19ZM204 485V596H1118L1160 485H204ZM800 1599L887 1490L541 1250L472 1341L800 1599Z" />
<glyph unicode="&#xea;" horiz-adv-x="1266" d="M652 -19Q487 -19 366 51T179 244T113 529Q113 692 179 817T365 1013T644 1084Q804 1084 921 1014T1101 820T1164 534Q1164 515 1164 504T1161 485H1019Q1020 497 1020 511T1021 545Q1021 664 976 756T846 902T644
955Q529 955 442 901T307 751T259 529Q259 407 306 314T442 167T651 114Q777 114 869 173T1007 336L1143 285Q1084 144 955 63T652 -19ZM204 485V596H1118L1160 485H204ZM689 1552L980 1334L919 1249L645 1421L371 1249L310 1334L600 1552H689Z" />
<glyph unicode="&#xeb;" horiz-adv-x="1266" d="M652 -19Q487 -19 366 51T179 244T113 529Q113 692 179 817T365 1013T644 1084Q804 1084 921 1014T1101 820T1164 534Q1164 515 1164 504T1161 485H1019Q1020 497 1020 511T1021 545Q1021 664 976 756T846 902T644
955Q529 955 442 901T307 751T259 529Q259 407 306 314T442 167T651 114Q777 114 869 173T1007 336L1143 285Q1084 144 955 63T652 -19ZM204 485V596H1118L1160 485H204ZM381 1505H558V1329H381V1505ZM731 1505H908V1329H731V1505Z" />
<glyph unicode="&#xec;" horiz-adv-x="730" d="M237 1599L566 1341L496 1250L150 1490L237 1599ZM470 124H675V0H110V124H326V941H110V1065H470V124Z" />
<glyph unicode="&#xed;" horiz-adv-x="730" d="M470 124H675V0H110V124H326V941H110V1065H470V124ZM547 1599L634 1490L288 1250L219 1341L547 1599Z" />
<glyph unicode="&#xee;" horiz-adv-x="730" d="M470 124H675V0H110V124H326V941H110V1065H470V124ZM692 1552L983 1334L922 1249L648 1421L374 1249L313 1334L603 1552H692Z" />
<glyph unicode="&#xef;" horiz-adv-x="730" d="M470 124H675V0H110V124H326V941H110V1065H470V124ZM129 1505H306V1329H129V1505ZM479 1505H656V1329H479V1505Z" />
<glyph unicode="&#xf0;" horiz-adv-x="1320" d="M614 1084Q717 1084 794 1048T925 947T1014 795L1052 807L1201 565Q1201 426 1164 321T1053 141Q982 61 881 21T660 -19Q493 -19 369 52T177 248T109 536Q109 697 174 820T352 1014T614 1084ZM657 954Q542 954 453
901T311 754T259 537Q259 412 309 317T448 168T653 114Q772 114 862 168T1003 319T1054 541Q1054 662 1002 755T859 901T657 954ZM565 1640Q764 1517 906 1344T1124 971T1201 565L1054 541Q1054 747 980 933T777 1270T480 1521L565 1640ZM361 1162L311 1268L1011
1592L1061 1486L361 1162Z" />
<glyph unicode="&#xf1;" horiz-adv-x="1469" d="M460 124H650V0H97V124H316V941H97V1065H460V124ZM1074 124V681Q1074 812 1015 887T829 962Q726 962 642 911T509 763T460 528L427 741H467Q486 850 540 926T678 1043T873 1084Q1047 1084 1132 984T1218 700V124H1423V0H887V124H1074ZM985
1545L1096 1533Q1086 1411 1034 1351T892 1290Q840 1290 802 1311T723 1378Q692 1413 672 1426T626 1440Q585 1440 561 1408T527 1304L416 1316Q427 1438 478 1499T620 1560Q671 1560 710 1539T792 1470Q824 1435 844 1422T888 1409Q928 1409 952 1442T985 1545Z"
/>
<glyph unicode="&#xf2;" horiz-adv-x="1330" d="M510 1599L838 1341L769 1250L423 1490L510 1599ZM665 -19Q499 -19 374 51T179 245T109 529Q109 691 179 816T374 1013T665 1084Q831 1084 956 1013T1151 817T1221 529Q1221 368 1151 245T956 52T665 -19ZM665 114Q785
114 876 166T1019 311T1071 529Q1071 654 1020 749T877 897T665 951Q545 951 454 898T311 749T259 529Q259 405 310 312T453 166T665 114Z" />
<glyph unicode="&#xf3;" horiz-adv-x="1330" d="M665 -19Q499 -19 374 51T179 245T109 529Q109 691 179 816T374 1013T665 1084Q831 1084 956 1013T1151 817T1221 529Q1221 368 1151 245T956 52T665 -19ZM665 114Q785 114 876 166T1019 311T1071 529Q1071 654
1020 749T877 897T665 951Q545 951 454 898T311 749T259 529Q259 405 310 312T453 166T665 114ZM820 1599L907 1490L561 1250L492 1341L820 1599Z" />
<glyph unicode="&#xf4;" horiz-adv-x="1330" d="M665 -19Q499 -19 374 51T179 245T109 529Q109 691 179 816T374 1013T665 1084Q831 1084 956 1013T1151 817T1221 529Q1221 368 1151 245T956 52T665 -19ZM665 114Q785 114 876 166T1019 311T1071 529Q1071 654
1020 749T877 897T665 951Q545 951 454 898T311 749T259 529Q259 405 310 312T453 166T665 114ZM709 1552L1000 1334L939 1249L665 1421L391 1249L330 1334L620 1552H709Z" />
<glyph unicode="&#xf5;" horiz-adv-x="1330" d="M665 -19Q499 -19 374 51T179 245T109 529Q109 691 179 816T374 1013T665 1084Q831 1084 956 1013T1151 817T1221 529Q1221 368 1151 245T956 52T665 -19ZM665 114Q785 114 876 166T1019 311T1071 529Q1071 654
1020 749T877 897T665 951Q545 951 454 898T311 749T259 529Q259 405 310 312T453 166T665 114ZM886 1545L997 1533Q987 1411 935 1351T793 1290Q741 1290 703 1311T624 1378Q593 1413 573 1426T527 1440Q486 1440 462 1408T428 1304L317 1316Q328 1438 379 1499T521
1560Q572 1560 611 1539T693 1470Q725 1435 745 1422T789 1409Q829 1409 853 1442T886 1545Z" />
<glyph unicode="&#xf6;" horiz-adv-x="1330" d="M665 -19Q499 -19 374 51T179 245T109 529Q109 691 179 816T374 1013T665 1084Q831 1084 956 1013T1151 817T1221 529Q1221 368 1151 245T956 52T665 -19ZM665 114Q785 114 876 166T1019 311T1071 529Q1071 654
1020 749T877 897T665 951Q545 951 454 898T311 749T259 529Q259 405 310 312T453 166T665 114ZM401 1505H578V1329H401V1505ZM751 1505H928V1329H751V1505Z" />
<glyph unicode="&#xf7;" horiz-adv-x="1160" d="M1080 784V660H80V784H1080ZM472 520H681V317H472V520ZM472 1132H681V929H472V1132Z" />
<glyph unicode="&#xf8;" horiz-adv-x="1346" d="M1138 1105L1228 1020L206 -40L119 47L1138 1105ZM681 -19Q515 -19 390 51T195 245T125 529Q125 691 195 816T390 1013T680 1084Q846 1084 971 1013T1166 817T1236 529Q1236 368 1166 245T971 52T681 -19ZM681 114Q801
114 892 166T1034 311T1086 529Q1086 654 1035 749T892 897T681 951Q560 951 469 898T327 749T275 529Q275 405 326 312T469 166T681 114Z" />
<glyph unicode="&#xf9;" horiz-adv-x="1384" d="M481 1599L810 1341L740 1250L394 1490L481 1599ZM977 941H771V1065H1121V124H1329V0H977V941ZM382 1065V386Q382 255 440 180T625 104Q726 104 805 155T931 304T977 537L1012 324H970Q943 152 837 65T575 -23Q403
-23 321 79T238 362V941H45V1065H382Z" />
<glyph unicode="&#xfa;" horiz-adv-x="1384" d="M977 941H771V1065H1121V124H1329V0H977V941ZM382 1065V386Q382 255 440 180T625 104Q726 104 805 155T931 304T977 537L1012 324H970Q943 152 837 65T575 -23Q403 -23 321 79T238 362V941H45V1065H382ZM791 1599L878
1490L532 1250L463 1341L791 1599Z" />
<glyph unicode="&#xfb;" horiz-adv-x="1384" d="M977 941H771V1065H1121V124H1329V0H977V941ZM382 1065V386Q382 255 440 180T625 104Q726 104 805 155T931 304T977 537L1012 324H970Q943 152 837 65T575 -23Q403 -23 321 79T238 362V941H45V1065H382ZM680 1552L971
1334L910 1249L636 1421L362 1249L301 1334L591 1552H680Z" />
<glyph unicode="&#xfc;" horiz-adv-x="1384" d="M977 941H771V1065H1121V124H1329V0H977V941ZM382 1065V386Q382 255 440 180T625 104Q726 104 805 155T931 304T977 537L1012 324H970Q943 152 837 65T575 -23Q403 -23 321 79T238 362V941H45V1065H382ZM372 1505H549V1329H372V1505ZM722
1505H899V1329H722V1505Z" />
<glyph unicode="&#xfd;" horiz-adv-x="1271" d="M742 1065H1238V941H1105L665 -142Q611 -276 499 -348T219 -420H114V-293H219Q331 -293 414 -247T536 -110L612 77L587 -47L180 941H33V1065H539V941H337L696 44L565 160H703L628 92L961 941H742V1065ZM790 1599L877
1490L531 1250L462 1341L790 1599Z" />
<glyph unicode="&#xfe;" horiz-adv-x="1391" d="M-1 -420V-296H213V1456H-1V1580H357V678L351 595V472L357 432V-296H566V-420H-1ZM758 -20Q626 -20 521 38T349 203T258 461L351 530Q351 407 398 313T533 164T742 110Q862 110 949 164T1085 313T1133 532Q1133
657 1084 752T946 901T742 956Q623 956 535 902T399 751T351 530L328 757H362Q381 845 433 919T570 1039T774 1085Q885 1085 978 1045T1139 930T1244 754T1282 532Q1282 371 1217 246T1035 51T758 -20Z" />
<glyph unicode="&#xff;" horiz-adv-x="1271" d="M742 1065H1238V941H1105L665 -142Q611 -276 499 -348T219 -420H114V-293H219Q331 -293 414 -247T536 -110L612 77L587 -47L180 941H33V1065H539V941H337L696 44L565 160H703L628 92L961 941H742V1065ZM371 1505H548V1329H371V1505ZM721
1505H898V1329H721V1505Z" />
<glyph unicode="&#x2013;" horiz-adv-x="1160" d="M1080 626V502H80V626H1080Z" />
<glyph unicode="&#x2014;" horiz-adv-x="2160" d="M2080 626V502H80V626H2080Z" />
<glyph unicode="&#x2018;" horiz-adv-x="487" d="M274 1047H130V1305Q130 1418 198 1474T377 1531V1407Q326 1407 300 1384T274 1305V1047Z" />
<glyph unicode="&#x2019;" horiz-adv-x="487" d="M212 1507H356V1249Q356 1137 289 1080T110 1023V1147Q161 1147 186 1170T212 1249V1507Z" />
<glyph unicode="&#x201a;" horiz-adv-x="465" d="M189 198H333V-60Q333 -172 266 -229T87 -286V-162Q138 -162 163 -139T189 -60V198Z" />
<glyph unicode="&#x201c;" horiz-adv-x="777" d="M274 1043H130V1301Q130 1413 198 1470T377 1527V1403Q326 1403 300 1380T274 1301V1043ZM587 1043H443V1301Q443 1413 511 1470T689 1527V1403Q639 1403 613 1380T587 1301V1043Z" />
<glyph unicode="&#x201d;" horiz-adv-x="778" d="M212 1507H356V1249Q356 1137 289 1080T110 1023V1147Q161 1147 186 1170T212 1249V1507ZM526 1507H670V1249Q670 1137 603 1080T424 1023V1147Q475 1147 500 1170T526 1249V1507Z" />
<glyph unicode="&#x201e;" horiz-adv-x="784" d="M189 198H333V-60Q333 -172 266 -229T87 -286V-162Q138 -162 163 -139T189 -60V198ZM508 198H652V-60Q652 -172 585 -229T406 -286V-162Q457 -162 482 -139T508 -60V198Z" />
<glyph unicode="&#x2022;" horiz-adv-x="914" d="M271 742H643V376H271V742Z" />
<glyph unicode="&#x2039;" horiz-adv-x="565" d="M206 574V571L528 123H378L93 524V620L378 1022H528L206 574Z" />
<glyph unicode="&#x203a;" horiz-adv-x="565" d="M359 574L37 1022H187L473 620V524L187 123H37L359 571V574Z" />
</font>
</defs>
</svg>
