<?xml version="1.0" standalone="no"?>
<!DOCTYPE svg PUBLIC "-//W3C//DTD SVG 1.1//EN" "http://www.w3.org/Graphics/SVG/1.1/DTD/svg11.dtd">
<svg xmlns="http://www.w3.org/2000/svg">
<defs >
<font id="ReemKufiInk" horiz-adv-x="609" ><font-face
    font-family="Reem Kufi Ink"
    units-per-em="1000"
    panose-1="0 0 0 0 0 0 0 0 0 0"
    ascent="1100"
    descent="-400"
    alphabetic="0" />
<glyph unicode=" " horiz-adv-x="130" />
<glyph unicode="!" horiz-adv-x="202" d="M54 760H144V189H54V760ZM102 1Q74 1 56 16T38 57Q38 81 56 97T102 114Q129 114 146 98T164 57Q164 32 147 17T102 1Z" />
<glyph unicode="&quot;" horiz-adv-x="343" d="M154 730Q153 667 152 605T150 478H64V730H154ZM289 730Q288 667 287 605T285 478H199V730H289Z" />
<glyph unicode="#" horiz-adv-x="579" d="M263 652Q257 604 252 557T239 461H335Q340 510 346 557T358 652H450Q444 604 438 557T426 461H526Q524 439 522 417T518 373H416Q413 349 410 325T405 276H505Q503 254 500 232T495 187H394Q389 140 383 94T372 0H281Q286
47 291 93T302 187H208Q203 140 197 94T186 0H94Q99 47 105 93T115 187H25Q27 210 30 232T35 276H127Q130 300 132 324T138 373H48Q50 395 52 417T57 461H148Q154 510 160 557T172 652H263ZM230 373Q227 349 224 325T218 276H313Q316 300 319 324T324 373H230Z"
/>
<glyph unicode="$" horiz-adv-x="567" d="M256 -68V-7Q195 -2 141 19T46 68L93 151Q124 127 168 108T256 85V337Q214 354 174 377T108 437T82 532Q82 615 136 667T279 728V792H341V727Q397 722 440 706T519 669L480 588Q448 605 412 617T341 634V415Q342 414 343
414Q388 398 430 374T499 308T526 198Q526 145 501 101T430 28T318 -7V-68H256ZM318 88Q357 97 387 123T417 198Q417 240 388 267T318 312V88ZM279 440V633Q237 626 214 602T190 540Q190 506 215 483T279 440Z" />
<glyph unicode="%" horiz-adv-x="785" d="M204 271Q132 271 95 320T58 445Q58 521 95 570T204 619Q275 619 312 570T349 445Q349 369 312 320T204 271ZM586 -18Q515 -18 478 31T441 156Q441 232 478 281T586 330Q657 330 694 281T731 156Q731 80 694 31T586 -18ZM665
620L237 -2L137 0L564 620H665ZM529 156Q529 109 543 82T586 54Q615 54 628 81T642 156Q642 257 586 257Q529 257 529 156ZM147 445Q147 398 161 371T204 343Q232 343 245 370T259 445Q259 546 204 546Q175 546 161 522T147 445Z" />
<glyph unicode="&amp;" horiz-adv-x="728" d="M679 0H558L499 79Q468 40 417 15T295 -10Q227 -10 173 18T87 94T55 205Q55 257 81 300T149 374T242 419L215 455Q201 476 182 513T163 593Q163 635 184 672T245 734T343 758Q404 758 451 734T529 677L477 607Q446
636 417 653T359 670Q317 670 294 645T271 585Q271 567 278 549T293 517T303 500L487 256L552 428H649L549 173L679 0ZM443 152L297 346Q262 343 232 325T183 276T164 210Q164 173 183 145T236 100T309 84Q358 84 391 103T443 152Z" />
<glyph unicode="&apos;" horiz-adv-x="166" d="M131 730Q130 667 129 605T127 478H40V730H131Z" />
<glyph unicode="(" horiz-adv-x="404" d="M97 295Q97 396 121 484T183 641T264 756L345 712Q287 645 245 540T203 295Q203 156 245 51T345 -122L264 -166Q222 -121 184 -52T121 105T97 295Z" />
<glyph unicode=")" horiz-adv-x="405" d="M316 295Q316 194 292 106T230 -52T149 -166L69 -123Q127 -55 169 50T211 295Q211 388 192 465T140 605T69 711L149 756Q192 711 230 642T292 484T316 295Z" />
<glyph unicode="*" horiz-adv-x="335" d="M137 522Q118 511 100 500T61 478Q53 492 45 506T29 533Q49 544 68 555T106 576Q87 587 68 599T30 622Q37 635 44 647T59 673L137 628V720H201Q201 697 201 674T200 628Q220 639 240 650T279 672Q286 659 294 647T309
621Q289 610 269 598T229 575L307 530Q299 517 291 503T275 475Q256 486 237 498T198 521Q198 499 198 478T197 434H137V522Z" />
<glyph unicode="+" horiz-adv-x="551" d="M224 416H316V278H452V190H316V52H224V190H88V278H224V416Z" />
<glyph unicode="," horiz-adv-x="203" d="M169 88Q147 35 126 -17T82 -122H0Q20 -69 39 -17T78 88H169Z" />
<glyph unicode="-" horiz-adv-x="304" d="M54 261H240V173H54V261Z" />
<glyph unicode="." horiz-adv-x="169" d="M31 56Q31 80 48 96T87 113Q107 113 124 97T141 56Q141 31 124 16T87 0Q66 0 49 15T31 56V56Z" />
<glyph unicode="/" horiz-adv-x="390" d="M390 746Q320 555 250 364T109 -19H17Q88 172 158 363T299 746H390Z" />
<glyph unicode="0" horiz-adv-x="624" d="M312 -3Q231 -3 169 37T71 152T35 332Q35 446 69 520T166 630T312 666Q393 667 455 627T553 512T589 332Q589 224 554 149T456 36T312 -3ZM311 98Q368 98 405 128T461 211T480 334Q480 437 438 501T311 565Q255 565 218
536T163 454T144 332Q144 264 162 211T218 128T311 98Z" />
<glyph unicode="1" horiz-adv-x="332" d="M53 659H229V0H124V558H53V659Z" />
<glyph unicode="2" horiz-adv-x="551" d="M54 0Q116 63 174 122T279 236T352 345T379 447Q379 488 362 514T318 553T259 566Q217 566 192 549T154 508T142 460Q142 395 181 356L116 297Q92 312 75 340T49 400T40 457Q40 512 67 559T147 637T276 667Q340 667 387
638T460 560T487 455Q487 392 457 333T379 216T282 101H507V0H54Z" />
<glyph unicode="3" horiz-adv-x="524" d="M440 659L293 416Q337 413 375 393T437 330T461 219Q461 149 429 98T344 20T227 -8Q179 -8 131 12T51 64L104 150Q122 128 155 111T225 93Q277 93 315 128T353 225Q353 280 321 312T233 344Q204 344 185 340T150 330L146
334L287 558H92V659H440Z" />
<glyph unicode="4" horiz-adv-x="538" d="M12 157V158L417 667H418V237H503V157H418V0H313V157H12ZM313 424L169 237H313V424Z" />
<glyph unicode="5" horiz-adv-x="522" d="M244 -8Q191 -8 141 12T61 61L116 143Q136 121 169 107T236 92Q288 92 321 125T355 213Q355 270 324 307T230 345Q196 345 167 336T104 307H103V659H420V558H194V426Q224 433 255 433Q323 433 369 403T439 324T463 216Q463
153 435 102T357 22T244 -8Z" />
<glyph unicode="6" horiz-adv-x="548" d="M276 -8Q209 -8 155 24T68 115T36 258Q36 322 61 380T128 489T225 584T337 666L407 590Q315 546 258 488T175 373Q200 398 233 411T311 424Q362 424 407 397T480 323T508 214Q508 146 475 96T390 19T276 -8ZM272 86Q325
86 362 120T400 213Q400 269 363 302T272 336Q236 336 207 322T161 282T144 227V208Q144 176 161 148T207 103T272 86Z" />
<glyph unicode="7" horiz-adv-x="492" d="M466 659L205 0H87L313 558H32V659H466Z" />
<glyph unicode="8" horiz-adv-x="524" d="M26 209Q26 259 45 296T93 358T152 397Q124 417 105 444T86 515Q86 559 109 593T172 647T262 667Q312 667 351 648T414 595T438 520Q438 473 419 445T371 397Q401 383 430 358T479 296T499 209Q499 152 468 103T383 23T261
-8Q194 -8 141 22T57 102T26 209ZM133 213Q133 177 150 147T196 99T261 80Q297 80 327 98T376 147T394 213Q394 249 377 278T331 326T265 345Q230 346 200 329T152 281T133 213ZM188 503Q188 474 211 453T264 432Q293 432 315 453T338 503Q338 536 316 557T264
579Q234 579 211 558T188 503Z" />
<glyph unicode="9" horiz-adv-x="539" d="M234 214Q184 214 139 241T65 315T36 424Q36 496 69 548T155 629T269 657Q337 657 391 627T476 545T508 424Q508 345 479 281T402 165T296 68T180 -14L110 63Q194 104 256 152T352 248Q330 231 301 223T234 214ZM273 303Q329
303 365 336T401 419V439Q400 473 383 501T337 546T273 563Q219 563 182 527T145 431Q145 372 182 338T273 303Z" />
<glyph unicode=":" horiz-adv-x="178" d="M31 56Q31 80 48 96T87 113Q106 113 123 97T141 56Q141 31 124 16T87 0Q65 0 48 15T31 56ZM31 330Q31 354 48 370T87 387Q106 387 123 371T141 330Q141 305 124 290T87 274Q65 274 48 289T31 330Z" />
<glyph unicode=";" horiz-adv-x="204" d="M155 88Q133 35 112 -17T68 -122H-14Q6 -69 25 -17T64 88H155ZM63 309Q63 333 80 349T118 366Q138 366 155 350T173 309Q173 284 156 269T118 253Q98 253 81 268T63 309Z" />
<glyph unicode="&lt;" horiz-adv-x="594" d="M499 386L250 241L499 95V-14L56 241L499 496V386Z" />
<glyph unicode="=" horiz-adv-x="718" d="M102 198H614V110H102V198ZM102 395H614V307H102V395Z" />
<glyph unicode="&gt;" horiz-adv-x="584" d="M91 96L341 241L91 387V496L534 241L91 -14V96Z" />
<glyph unicode="?" horiz-adv-x="460" d="M163 187V248Q163 297 176 327T209 378T252 418Q283 444 305 472T327 545Q327 576 312 599T274 636T224 649Q175 649 145 619T100 547L16 585Q23 606 39 633T81 685T146 726T234 742Q290 742 335 721T407 657T434 553Q434
504 420 472T385 415T338 369Q318 351 301 333T274 291T264 226V187H163ZM214 1Q186 1 169 16T151 57Q151 81 169 97T214 114Q241 114 258 98T276 57Q276 32 259 17T214 1Z" />
<glyph unicode="@" horiz-adv-x="1032" d="M441 -220Q359 -220 287 -197T160 -125T74 -5T43 164Q43 226 62 293T123 424T229 539T386 620T598 651Q722 651 809 604T942 476T989 295Q989 234 971 180T920 83T841 17T740 -8Q696 -8 665 15T624 78Q595 45 547 18T447
-10Q392 -10 349 13T282 80T257 183Q257 254 288 311T373 401T498 435Q563 435 598 410T650 350L667 418H763L725 149Q721 121 729 103T765 84Q797 84 827 112T876 187T895 295Q895 371 860 433T755 533T583 571Q477 571 400 542T272 465T191 363T148 257T135 167Q135
61 177 -7T292 -108T456 -141Q515 -141 571 -123T677 -73L718 -132Q660 -177 585 -198T441 -220ZM486 73Q533 73 569 99T625 172L636 258Q630 299 597 326T514 353Q472 353 438 331T384 274T364 197Q364 144 398 109T486 73Z" />
<glyph unicode="A" horiz-adv-x="700" d="M28 0L347 755H353L672 0H551L480 182H207L132 0H28ZM243 272H444L346 522L243 272Z" />
<glyph unicode="B" horiz-adv-x="623" d="M294 725Q404 725 467 680T530 542Q530 485 505 443T434 377Q494 353 530 309T566 205Q566 132 531 87T441 21T322 0H103V725H294ZM317 97Q376 97 417 123T458 204Q458 244 436 267T380 300T310 310H207V97H317ZM313 411Q370
411 396 443T422 520Q422 574 389 599T299 624H207V411H313Z" />
<glyph unicode="C" horiz-adv-x="694" d="M637 55Q620 44 589 29T515 2T422 -8Q337 -7 270 22T156 101T83 217T58 357Q58 439 84 507T159 626T272 705T416 733Q482 733 536 715T627 674L585 576Q556 596 514 614T419 632Q351 632 294 596T202 499T167 362Q167
285 198 224T288 128T424 93Q480 93 522 110T592 149L637 55Z" />
<glyph unicode="D" horiz-adv-x="756" d="M103 0V725H304Q412 725 487 693T609 606T677 485T699 353Q699 272 671 207T592 95T476 25T339 0H103ZM207 101H319Q398 101 459 131T555 219T591 360Q591 428 569 477T509 559T426 608T332 624H207V101Z" />
<glyph unicode="E" horiz-adv-x="655" d="M103 725H578V624H207V415H538V314H207V101H592V0H103V725Z" />
<glyph unicode="F" horiz-adv-x="591" d="M103 725H537V624H207V404H495V304H207V0H103V725Z" />
<glyph unicode="G" horiz-adv-x="753" d="M674 64Q654 47 614 30T526 3T437 -8Q321 -8 236 38T105 165T58 347Q58 440 87 512T169 633T287 707T429 733Q494 733 549 718T645 680L610 583Q590 595 561 605T500 622T442 628Q358 628 296 595T200 501T166 356Q166
279 200 221T296 129T439 96Q475 96 509 103T568 124V258H427V359H674V64Z" />
<glyph unicode="H" horiz-adv-x="785" d="M683 725V0H578V314H207V0H103V725H207V414H578V725H683Z" />
<glyph unicode="I" horiz-adv-x="310" d="M103 725H207V0H103V725Z" />
<glyph unicode="J" horiz-adv-x="371" d="M268 135Q268 46 234 -17T140 -113T3 -150V-48Q73 -44 118 0T163 138V725H268V135Z" />
<glyph unicode="K" horiz-adv-x="683" d="M209 439L206 403L220 423L506 725H642L342 411L656 0H523L265 345L208 290L209 0H103V725H209V439Z" />
<glyph unicode="L" horiz-adv-x="625" d="M103 725H207V101H571V0H103V725Z" />
<glyph unicode="M" horiz-adv-x="930" d="M103 0V749H104L462 240L826 749H828V0H724V450L462 78H460L204 434V0H103Z" />
<glyph unicode="N" horiz-adv-x="840" d="M734 -25L206 502L208 0H103V748H107L635 214L633 725H737V-25H734Z" />
<glyph unicode="O" horiz-adv-x="856" d="M58 362Q58 437 86 504T166 622T284 703T427 733Q503 733 570 704T689 623T770 504T799 362Q799 285 770 218T690 100T571 21T427 -8Q351 -8 284 20T166 99T87 216T58 362ZM166 361Q166 287 201 226T296 129T430 93Q503
93 562 129T656 226T691 362Q691 437 656 498T561 596T428 632Q354 632 295 596T201 498T166 361Z" />
<glyph unicode="P" horiz-adv-x="602" d="M301 725Q421 725 489 665T557 497Q557 454 544 412T503 336T428 281T314 260H207V0H103V725H301ZM313 362Q354 362 381 375T424 410T446 454T453 495Q453 522 441 552T400 603T318 624H207V362H313Z" />
<glyph unicode="Q" horiz-adv-x="888" d="M58 362Q58 437 86 504T166 622T284 703T427 733Q503 733 570 704T689 623T770 504T799 362Q799 286 770 219T691 102H831V0H504Q466 -8 427 -8Q351 -8 284 20T166 99T87 216T58 362ZM166 361Q166 288 201 227T296 130T430
94Q503 94 562 130T656 227T691 362Q691 417 671 465T614 550T531 608T428 629Q354 629 295 593T201 495T166 361Z" />
<glyph unicode="R" horiz-adv-x="664" d="M300 725Q376 725 435 699T527 622T561 497Q561 435 534 377T442 287L622 0H500L332 261Q323 261 314 261H207V0H103V725H300ZM312 362Q368 362 398 383T441 435T453 493Q453 520 441 550T399 602T318 624H207V362H312Z" />
<glyph unicode="S" horiz-adv-x="582" d="M480 588Q442 608 398 622T313 636Q256 636 223 611T190 540Q190 509 212 486T269 446T343 414Q388 398 430 374T499 308T526 198Q526 141 497 94T415 20T286 -8Q216 -8 154 14T46 68L93 151Q128 124 179 104T276 84Q310
84 342 95T395 132T417 198Q417 232 398 256T349 297T283 327Q249 340 214 355T149 394T101 450T82 532Q82 591 109 634T186 702T298 729Q370 729 424 712T519 669L480 588Z" />
<glyph unicode="T" horiz-adv-x="582" d="M50 725H533V624H341V0H236V624H50V725Z" />
<glyph unicode="U" horiz-adv-x="735" d="M197 259Q197 213 219 176T281 116T367 94Q417 94 456 116T517 175T540 259V725H643V256Q643 177 606 118T507 25T367 -8Q290 -8 228 25T129 117T92 256V725H197V259Z" />
<glyph unicode="V" horiz-adv-x="722" d="M164 725L366 220L559 725H683L361 -34L39 725H164Z" />
<glyph unicode="W" horiz-adv-x="1010" d="M39 721H161L341 212L465 532L391 721H495L690 223L859 721H971L687 -32L517 401L328 -34L39 721Z" />
<glyph unicode="X" horiz-adv-x="681" d="M43 725H175L352 454L512 725H638L409 367L648 0H513L330 283L162 0H33L271 374L43 725Z" />
<glyph unicode="Y" horiz-adv-x="696" d="M294 239L26 725H155L350 359L542 725H670L399 239V0H294V239Z" />
<glyph unicode="Z" horiz-adv-x="714" d="M50 0Q61 16 90 59T158 161T241 288T328 420T407 538T465 624H177Q146 624 120 641T93 687V761H190V748Q190 731 196 728T218 725Q220 725 221 725H651L230 101H660V0H50Z" />
<glyph unicode="[" horiz-adv-x="364" d="M103 756H315V662H208V-57H315V-151H103V756Z" />
<glyph unicode="\" horiz-adv-x="396" d="M101 746L383 -19H280Q210 172 140 363T-2 746H101Z" />
<glyph unicode="]" horiz-adv-x="364" d="M262 -151H50V-57H157V663H50V756H262V-151Z" />
<glyph unicode="^" horiz-adv-x="476" d="M293 486Q288 494 276 509T253 541T235 565Q230 557 218 541T195 510T177 486H114Q144 532 174 577T235 669Q265 623 295 578T357 486H293Z" />
<glyph unicode="_" horiz-adv-x="608" d="M102 88H507V0H102V88Z" />
<glyph unicode="`" horiz-adv-x="281" d="M17 620H128L199 486H136L17 620Z" />
<glyph unicode="a" horiz-adv-x="591" d="M254 -10Q195 -10 147 15T71 88T43 209Q43 279 72 329T150 407T256 435Q314 435 352 412T412 355L419 418H512V0H411V66Q400 52 378 34T325 3T254 -10ZM281 73Q331 73 365 99T411 172V258Q399 299 363 326T278 353Q242
353 212 336T164 287T146 214Q146 174 164 142T214 92T281 73Z" />
<glyph unicode="b" horiz-adv-x="598" d="M338 -10Q286 -10 246 9T180 61V0H79V777H180V367Q205 397 250 416T351 435Q407 435 453 409T527 333T555 216Q555 145 525 95T445 17T338 -10ZM316 75Q355 75 386 93T434 144T452 216Q452 256 434 287T386 336T316 355Q266
355 229 329T180 260V172Q193 130 228 103T316 75Z" />
<glyph unicode="c" horiz-adv-x="460" d="M421 39Q393 16 354 3T274 -10Q206 -10 154 17T72 93T43 209Q43 277 74 326T155 401T264 428Q316 428 355 414T424 375L374 310Q357 324 331 335T273 346Q237 346 208 328T161 279T144 209Q144 171 161 140T210 91T282
73Q308 73 330 81T370 102L421 39Z" />
<glyph unicode="d" horiz-adv-x="598" d="M250 -10Q191 -10 144 17T70 96T43 215Q43 285 72 334T150 409T262 435Q308 435 350 417T418 366V777H519V0H417V61Q387 30 345 10T250 -10ZM281 75Q334 75 369 102T417 176V259Q406 301 369 328T281 355Q245 355 214
338T165 289T146 216Q146 177 164 145T214 94T281 75Z" />
<glyph unicode="e" horiz-adv-x="525" d="M275 -10Q203 -10 151 18T71 97T43 212Q43 274 74 324T159 405T277 435Q361 435 416 387T491 250L164 137Q182 108 211 92T277 76Q304 76 329 85T376 111L422 36Q390 15 352 3T275 -10ZM144 197L377 282Q364 311 339 333T270
355Q214 355 179 317T143 218Q143 207 144 197Z" />
<glyph unicode="f" horiz-adv-x="388" d="M114 0V328H43V418H114V589Q114 678 156 727T281 777Q303 777 329 771T377 750L334 677Q325 687 314 690T291 694Q256 694 236 670T215 587V418H347V328H215V0H114Z" />
<glyph unicode="g" horiz-adv-x="604" d="M283 -208Q211 -208 165 -183T80 -124L140 -55Q171 -85 204 -102T281 -119Q349 -119 386 -87T424 -1V75Q403 38 360 14T255 -10Q197 -10 149 19T72 98T43 211Q43 276 73 326T154 406T261 435Q315 435 359 415T425 363L432
418H525V-3Q525 -60 495 -106T411 -180T283 -208ZM145 214Q145 174 163 142T213 92T284 73Q337 73 374 100T424 171V257Q411 300 373 326T284 353Q245 353 214 335T164 286T145 214Z" />
<glyph unicode="h" horiz-adv-x="560" d="M79 0V777H178V344Q200 383 242 408T344 434Q403 434 441 400T480 309V0H379V274Q378 306 360 326T304 348Q251 348 216 304T180 191V0H79Z" />
<glyph unicode="i" horiz-adv-x="259" d="M79 418H180V0H79V418ZM74 824Q74 847 92 863T133 879Q155 879 173 863T191 824Q191 799 173 784T133 769Q111 769 93 784T74 824Z" />
<glyph unicode="j" horiz-adv-x="265" d="M89 -201L29 -139Q58 -115 74 -80T90 2V418H191V-2Q191 -74 167 -123T89 -201ZM83 824Q83 847 101 863T142 879Q164 879 182 863T200 824Q200 799 182 784T142 769Q120 769 102 784T83 824Z" />
<glyph unicode="k" horiz-adv-x="506" d="M79 0V777H180V259L393 427L454 373L301 251L474 0H356L232 196L180 155V0H79Z" />
<glyph unicode="l" horiz-adv-x="259" d="M79 777H180V0H79V777Z" />
<glyph unicode="m" horiz-adv-x="831" d="M170 418L178 342Q201 386 242 410T337 435Q388 435 422 412T466 346Q492 388 532 411T617 435Q679 435 715 401T752 310V0H652V272Q651 304 638 325T589 348Q553 348 526 326T483 269T466 194V0H365V272Q364 304 350
325T300 348Q265 348 238 326T195 269T180 193V0H79V418H170Z" />
<glyph unicode="n" horiz-adv-x="560" d="M170 418L177 340Q198 383 242 408T344 434Q403 434 441 400T480 309V0H379V274Q378 306 360 326T304 348Q251 348 216 304T180 191V0H79V418H170Z" />
<glyph unicode="o" horiz-adv-x="549" d="M43 213Q43 276 73 326T156 406T277 435Q346 435 397 406T477 327T506 213Q506 150 477 100T397 20T275 -10Q209 -10 157 17T74 94T43 213ZM145 212Q145 173 162 142T208 92T274 73Q331 73 367 113T404 212Q404 271 368
311T274 352Q237 352 208 333T162 282T145 212Z" />
<glyph unicode="p" horiz-adv-x="598" d="M329 -10Q285 -10 245 8T180 59V-201H79V425H166L175 357Q205 391 249 413T348 435Q407 435 454 407T528 329T555 210Q555 142 526 93T445 17T329 -10ZM309 70Q348 70 380 88T432 137T452 209Q452 250 434 282T385 332T316
350Q264 350 229 322T180 248V173Q188 128 224 99T309 70Z" />
<glyph unicode="q" horiz-adv-x="598" d="M247 -10Q192 -10 146 16T71 92T43 209Q43 278 73 328T153 407T263 435Q313 435 352 416T417 366V425H519V-201H418V58Q392 28 348 9T247 -10ZM281 70Q333 70 370 98T417 172V248Q405 294 370 322T281 350Q245 350 214
331T165 281T146 209Q146 170 164 139T214 89T281 70Z" />
<glyph unicode="r" horiz-adv-x="381" d="M169 418L177 319Q195 355 225 381T287 421T343 435L338 335Q291 338 256 317T200 261T180 186V0H79V418H169Z" />
<glyph unicode="s" horiz-adv-x="414" d="M200 -9Q154 -9 112 7T41 55L84 113Q110 88 138 75T192 62Q221 62 243 73T265 112Q265 134 251 146T214 166T167 181Q60 216 60 304Q60 337 76 366T127 414T211 433Q255 433 290 423T355 387L316 326Q298 344 274 353T229
364Q202 364 182 352T162 318Q161 290 185 278T240 255Q244 254 248 253T258 249Q304 234 334 208T365 132Q365 94 347 62T293 11T200 -9Z" />
<glyph unicode="t" horiz-adv-x="365" d="M119 601H221V417H333V338H221V0H119V338H45V417H119V601Z" />
<glyph unicode="u" horiz-adv-x="553" d="M213 -17Q155 -17 118 18T79 108V418H180V144Q182 111 199 91T253 69Q287 69 314 89T356 146T372 227V418H473V0H382L376 77Q355 36 312 10T213 -17Z" />
<glyph unicode="v" horiz-adv-x="500" d="M253 -12L18 418H137L259 162L371 418H483L258 -12H253Z" />
<glyph unicode="w" horiz-adv-x="676" d="M353 418L460 169L559 418H658L467 -25L333 260L210 -25L18 418H116L222 177L297 350L265 418H353Z" />
<glyph unicode="x" horiz-adv-x="475" d="M458 0H336L226 145L124 0H23L176 210L18 418H142L249 277L339 418H440L295 215L458 0Z" />
<glyph unicode="y" horiz-adv-x="500" d="M115 -201L211 14L18 418H131L262 129L390 418H483L213 -201H115Z" />
<glyph unicode="z" horiz-adv-x="472" d="M123 335Q91 335 68 355T45 415V458H122V444Q122 427 130 423T156 418H423L191 83H419V0H27L259 335H123Z" />
<glyph unicode="{" horiz-adv-x="361" d="M271 668Q250 668 239 660T224 630T219 564V450Q219 404 209 375T183 329T153 303Q166 294 181 278T207 236T219 170V40Q219 -3 223 -25T239 -55T271 -63H314V-151H248Q245 -151 238 -151Q214 -151 192 -149T152 -136T124
-97T114 -21V138Q114 167 106 195T80 241T33 261V348Q62 349 80 367T106 414T114 471V636Q114 681 124 706T152 741T192 754T239 756Q245 756 248 756H314V668H271Z" />
<glyph unicode="|" horiz-adv-x="279" d="M91 710H183V-235H91V710Z" />
<glyph unicode="}" horiz-adv-x="376" d="M105 -63Q126 -63 137 -56T153 -26T158 41V167Q158 207 169 234T196 277T224 302Q211 311 196 327T169 370T158 436V565Q158 609 154 631T138 660T105 668H62V756H128Q132 756 139 756Q162 756 184 754T223 742T251 707T262
637V478Q262 450 269 419T293 367T342 344V256Q311 256 294 234T269 182T262 123V-32Q262 -77 252 -101T224 -136T184 -149T137 -151Q131 -151 128 -151H62V-63H105Z" />
<glyph unicode="~" horiz-adv-x="430" d="M300 433Q263 433 239 450T194 484Q181 497 168 506T138 516Q116 516 105 493T94 433H31Q28 478 40 514T80 572T144 594Q173 594 195 578T236 545Q252 530 266 519T297 507Q320 507 328 531T336 594H399Q405 546 393 510T356
453T300 433Z" />
<glyph unicode="&#xa0;" horiz-adv-x="130" />
<glyph unicode="&#xa1;" horiz-adv-x="203" d="M54 -213V359H144V-213H54ZM102 547Q129 547 146 532T164 490Q164 466 147 450T102 433Q75 433 57 449T38 490Q38 516 56 531T102 547Z" />
<glyph unicode="&#xa2;" horiz-adv-x="460" d="M237 485H300V426Q339 422 369 409T424 375L374 310Q361 321 342 330T300 344V74Q340 79 370 102L421 39Q397 20 366 8T300 -9V-68H237V-8Q150 3 97 60T43 209Q43 271 69 318T140 393T237 426V485ZM237 341Q196 329
170 293T144 209Q144 163 169 128T237 80V341Z" />
<glyph unicode="&#xa3;" horiz-adv-x="639" d="M401 389V288H261V184Q261 164 258 141T243 101H434Q467 101 483 111T499 144V185H590V118Q590 67 562 34T456 0H59V101H104Q125 101 136 108T152 136T157 198V288H91V389H157V542Q157 590 184 626T259 684T371 705Q442
705 490 678T564 602L488 550Q474 570 450 587T372 604Q313 604 287 578T261 504V389H401Z" />
<glyph unicode="&#xa4;" horiz-adv-x="504" d="M379 443Q404 406 404 361Q404 337 397 316T377 277L406 248L362 204Q355 212 348 219T332 234Q315 223 294 217T250 210Q228 210 208 216T170 233L140 203L96 247L125 276Q113 294 106 315T99 361Q99 406 124 442Q117
449 111 456T96 470L140 514L168 486Q187 497 207 504T250 511Q273 511 294 504T334 485L362 514L406 470L379 443ZM161 360Q161 323 187 297T251 270Q289 270 315 296T342 360Q342 398 316 424T251 451Q214 451 188 425T161 360Z" />
<glyph unicode="&#xa5;" horiz-adv-x="696" d="M166 303H294V304L26 725H155L350 419L542 725H670L399 304V303H538V221H399V158H537V75H399V0H294V75H167V158H294V221H166V303Z" />
<glyph unicode="&#xa6;" horiz-adv-x="218" d="M67 119H158V-236H67V119ZM67 710H158V355H67V710Z" />
<glyph unicode="&#xa7;" horiz-adv-x="573" d="M421 152Q456 134 477 102T499 24Q499 -30 471 -75T392 -147T277 -174Q212 -174 152 -154T50 -99L102 -13Q145 -45 187 -62T271 -80Q319 -80 354 -57T390 10Q390 39 371 56T322 85T258 104Q225 112 192 125T130 157T85
204T67 273Q67 330 98 366T174 416Q130 441 110 476T90 554Q90 597 112 638T180 705T300 732Q357 732 407 714T496 667L450 590Q414 617 380 629T311 642Q254 642 227 619T199 567Q199 540 217 523T267 494T337 472Q369 463 402 452T462 421T506 373T523 302Q523
255 497 215T421 152ZM420 283Q421 310 402 329T353 360T293 377Q238 379 205 356T170 298Q169 268 187 248T235 215T302 192Q329 194 356 205T401 236T420 283Z" />
<glyph unicode="&#xa8;" horiz-adv-x="420" d="M60 529Q60 553 77 569T116 586Q136 586 153 570T171 529Q171 504 154 489T116 473Q95 473 78 488T60 529ZM249 529Q249 553 266 569T305 586Q325 586 342 570T360 529Q360 504 343 489T305 473Q284 473 267 488T249 529Z" />
<glyph unicode="&#xa9;" horiz-adv-x="852" d="M426 -13Q354 -13 291 13T180 85T105 194T78 330Q78 405 105 468T180 577T291 649T426 675Q498 675 561 650T672 578T748 468T775 330Q775 257 749 195T674 86T563 13T426 -13ZM426 69Q499 69 558 103T651 196T686
330Q686 406 652 465T558 559T426 593Q353 593 294 559T200 466T165 330Q165 255 198 196T290 103T426 69ZM574 199Q552 177 515 159T429 140Q377 142 335 168T269 237T244 331Q244 388 268 432T336 501T437 526Q466 526 500 518T557 490L517 413Q501 427 483 432T444
438Q402 438 376 407T349 334Q349 292 375 262T445 232Q467 232 488 241T527 268L574 199Z" />
<glyph unicode="&#xaa;" horiz-adv-x="398" d="M163 423Q108 423 70 461T31 573Q31 620 49 654T96 707T160 726Q198 726 223 713T262 678L266 716H339V429H261V470Q249 456 224 440T163 423ZM187 486Q216 486 236 504T261 551V602Q254 629 234 646T186 663Q154
663 132 639T109 575Q109 538 132 512T187 486Z" />
<glyph unicode="&#xab;" horiz-adv-x="606" d="M272 242Q277 247 300 266T355 312T418 364T472 409T501 433V341Q495 336 480 322T447 292T413 262T392 242Q397 236 412 223T446 192T480 162T501 142V51L272 242ZM47 242Q52 247 75 266T129 312T192 364T246 409T275
433V341Q269 336 254 322T221 292T187 262T166 242Q171 236 186 223T220 192T254 162T275 142V51L47 242Z" />
<glyph unicode="&#xac;" horiz-adv-x="496" d="M66 302H430V109H326V201H66V302Z" />
<glyph unicode="&#xad;" horiz-adv-x="600" d="M54 261H240V173H54V261Z" />
<glyph unicode="&#xae;" horiz-adv-x="499" d="M249 291Q189 291 140 319T60 396T30 507Q30 570 60 618T139 695T249 723Q310 723 359 695T439 619T469 507Q469 445 439 396T360 319T249 291ZM249 347Q294 347 330 368T387 425T408 507Q408 553 387 589T330 646T249
667Q205 667 169 646T112 589T91 507Q91 461 112 425T169 368T249 347ZM171 619H259Q297 619 317 601T337 548Q337 528 328 511T300 483L338 401H274L245 475H228V401H171V619ZM247 518Q264 518 270 526T277 546Q277 559 270 567T249 576H228V518H247Z" />
<glyph unicode="&#xaf;" horiz-adv-x="368" d="M61 540H308V469H61V540Z" />
<glyph unicode="&#xb0;" horiz-adv-x="285" d="M34 568Q34 612 65 641T140 671Q183 671 213 642T243 568Q243 525 213 495T140 464Q96 464 65 494T34 568ZM140 519Q160 519 174 533T188 567Q188 587 174 601T140 615Q120 615 106 601T92 567Q92 547 106 533T140 519Z" />
<glyph unicode="&#xb1;" horiz-adv-x="532" d="M224 579H316V440H452V352H316V214H224V352H88V440H224V579ZM88 173H452V84H88V173Z" />
<glyph unicode="&#xb2;" horiz-adv-x="404" d="M64 634Q81 660 119 677T200 694Q262 693 300 659T338 565Q338 529 321 497T277 437T220 383H353V299H74V355Q98 372 125 392T177 437T217 486T233 538Q233 576 217 592T172 609Q149 609 128 597T95 568L64 634Z" />
<glyph unicode="&#xb3;" horiz-adv-x="388" d="M165 296Q124 296 96 311T52 343L82 402Q90 392 109 377T154 362Q182 363 200 380T218 431Q218 467 199 483T151 499Q134 499 123 496T104 489L98 498L174 613H67V686H294L213 545Q249 539 279 511T310 434Q310 376
271 336T165 296Z" />
<glyph unicode="&#xb4;" horiz-adv-x="283" d="M238 620L108 486H45L126 620H238Z" />
<glyph unicode="&#xb5;" horiz-adv-x="553" d="M213 -17Q196 -17 180 -13V-201H79V418H180V144Q182 111 199 91T253 69Q287 69 314 89T356 146T372 227V418H473V0H382L375 77Q354 35 311 9T213 -17Z" />
<glyph unicode="&#xb6;" horiz-adv-x="560" d="M204 428Q158 428 121 450T61 510T39 594Q39 641 61 678T120 738T204 760H459V0H369V673H294V0H204V428Z" />
<glyph unicode="&#xb7;" horiz-adv-x="171" d="M31 286Q31 310 48 326T87 343Q107 343 124 327T141 286Q141 261 124 246T87 230Q66 230 49 245T31 286V286Z" />
<glyph unicode="&#xb8;" horiz-adv-x="397" d="M109 -151Q120 -162 136 -169T174 -177Q199 -177 219 -166T240 -133Q240 -117 227 -104T178 -90Q162 -90 144 -94T113 -102L96 -54L165 9L243 6L200 -44Q201 -44 202 -44Q256 -43 290 -65T325 -132Q325 -166 305
-188T254 -221T185 -232Q146 -232 120 -221T77 -193L109 -151Z" />
<glyph unicode="&#xb9;" horiz-adv-x="273" d="M42 661H197V282H103V570H42V661Z" />
<glyph unicode="&#xba;" horiz-adv-x="376" d="M31 572Q31 616 51 650T107 704T189 724Q236 724 271 704T325 650T345 572Q345 529 326 495T271 441T188 421Q120 421 76 462T31 572ZM110 572Q110 537 132 513T188 488Q222 488 244 512T266 572Q266 607 244 631T188
656Q154 656 132 632T110 572Z" />
<glyph unicode="&#xbb;" horiz-adv-x="606" d="M320 242L91 51V142Q97 148 112 161T145 192T179 222T200 242Q195 248 180 261T146 291T112 322T91 341V433Q96 428 119 409T174 364T236 312T291 267T320 242ZM545 242L317 51V142Q323 148 338 161T371 192T405
222T426 242Q420 248 405 261T372 291T338 322T317 341V433Q322 428 345 409T400 364T462 312T517 267T545 242Z" />
<glyph unicode="&#xbc;" horiz-adv-x="819" d="M646 687L239 0H145L552 687H646ZM787 157V99H742V0H655V99H481L480 125L680 388H742V157H787ZM45 661H200V282H106V570H45V661ZM655 157V256L580 157H655Z" />
<glyph unicode="&#xbd;" horiz-adv-x="884" d="M45 664H200V285H106V573H45V664ZM530 328Q547 354 585 371T666 388Q728 387 766 353T804 259Q804 223 787 191T743 131T686 77H819V-7H540V49Q564 66 591 86T643 131T683 180T699 232Q699 270 683 286T638 303Q615
303 594 291T561 262L530 328ZM637 687L230 0H135L542 687H637Z" />
<glyph unicode="&#xbe;" horiz-adv-x="837" d="M419 296Q378 296 350 311T306 343L336 402Q344 392 363 377T408 362Q436 363 454 380T472 431Q472 467 453 483T405 499Q388 499 377 496T358 489L352 498L428 613H321V686H548L467 545Q503 539 533 511T564 434Q564
376 525 336T419 296ZM670 687L263 0H168L575 687H670ZM784 157V99H739V0H652V99H478L477 125L677 388H739V157H784ZM652 157V256L577 157H652Z" />
<glyph unicode="&#xbf;" horiz-adv-x="439" d="M300 352V291Q300 242 287 212T253 161T211 121Q180 96 158 68T135 -6Q135 -37 150 -60T188 -97T238 -110Q287 -110 317 -79T362 -8L446 -46Q439 -67 423 -94T381 -146T316 -187T228 -203Q172 -203 127 -182T55 -118T28
-14Q28 34 42 67T78 124T124 170Q145 188 162 206T189 249T199 313V352H300ZM248 538Q276 538 294 523T312 482Q312 458 294 442T248 425Q221 425 204 441T186 482Q186 507 203 522T248 538Z" />
<glyph unicode="&#xc0;" horiz-adv-x="700" d="M28 0L347 755H353L672 0H551L480 182H207L132 0H28ZM243 272H444L346 522L243 272ZM194 924H305L376 790H313L194 924Z" />
<glyph unicode="&#xc1;" horiz-adv-x="700" d="M28 0L347 755H353L672 0H551L480 182H207L132 0H28ZM243 272H444L346 522L243 272ZM509 918L379 784H316L397 918H509Z" />
<glyph unicode="&#xc2;" horiz-adv-x="700" d="M28 0L347 755H353L672 0H551L480 182H207L132 0H28ZM243 272H444L346 522L243 272ZM422 800L342 883L267 800H175L343 974H344L515 800H422Z" />
<glyph unicode="&#xc3;" horiz-adv-x="700" d="M28 0L347 755H353L672 0H551L480 182H207L132 0H28ZM243 272H444L346 522L243 272ZM426 820Q394 820 373 834T334 864Q322 875 310 884T284 893Q265 893 255 873T245 819H192Q188 878 214 918T290 959Q316 959 335
945T370 915Q384 902 397 892T424 882Q444 882 452 903T459 959H512Q520 896 494 858T426 820Z" />
<glyph unicode="&#xc4;" horiz-adv-x="700" d="M28 0L347 755H353L672 0H551L480 182H207L132 0H28ZM243 272H444L346 522L243 272ZM195 845Q195 869 212 885T251 902Q271 902 288 886T306 845Q306 820 289 805T251 789Q230 789 213 804T195 845ZM384 845Q384
869 401 885T440 902Q460 902 477 886T495 845Q495 820 478 805T440 789Q419 789 402 804T384 845Z" />
<glyph unicode="&#xc5;" horiz-adv-x="700" d="M28 0L347 755H353L672 0H551L480 182H207L132 0H28ZM243 272H444L346 522L243 272ZM256 879Q256 920 283 945T353 971Q394 971 421 946T449 879Q449 839 422 813T353 787Q311 787 284 812T256 879ZM310 878Q310
859 322 847T353 834Q371 834 383 846T395 878Q395 898 383 910T353 922Q334 922 322 910T310 878Z" />
<glyph unicode="&#xc6;" horiz-adv-x="953" d="M478 725H876V624H583V413H836V312H583V101H890V0H478V176H240L132 0H11L478 725ZM478 259V564L291 259H478Z" />
<glyph unicode="&#xc7;" horiz-adv-x="694" d="M637 55Q620 44 589 29T515 2T422 -8Q337 -7 270 22T156 101T83 217T58 357Q58 439 84 507T159 626T272 705T416 733Q482 733 536 715T627 674L585 576Q556 596 514 614T419 632Q351 632 294 596T202 499T167 362Q167
285 198 224T288 128T424 93Q480 93 522 110T592 149L637 55ZM323 -151Q334 -162 350 -169T388 -177Q413 -177 433 -166T454 -133Q454 -117 441 -104T392 -90Q376 -90 358 -94T327 -102L310 -54L379 9L457 6L414 -44Q415 -44 416 -44Q470 -43 504 -65T539 -132Q539
-166 519 -188T468 -221T399 -232Q360 -232 334 -221T291 -193L323 -151Z" />
<glyph unicode="&#xc8;" horiz-adv-x="655" d="M103 725H578V624H207V415H538V314H207V101H592V0H103V725ZM180 910H291L362 776H299L180 910Z" />
<glyph unicode="&#xc9;" horiz-adv-x="655" d="M103 725H578V624H207V415H538V314H207V101H592V0H103V725ZM495 904L365 770H302L383 904H495Z" />
<glyph unicode="&#xca;" horiz-adv-x="655" d="M103 725H578V624H207V415H538V314H207V101H592V0H103V725ZM408 786L328 869L253 786H161L329 960H330L501 786H408Z" />
<glyph unicode="&#xcb;" horiz-adv-x="655" d="M103 725H578V624H207V415H538V314H207V101H592V0H103V725ZM182 832Q182 856 199 872T238 889Q258 889 275 873T293 832Q293 807 276 792T238 776Q217 776 200 791T182 832ZM371 832Q371 856 388 872T427 889Q447
889 464 873T482 832Q482 807 465 792T427 776Q406 776 389 791T371 832Z" />
<glyph unicode="&#xcc;" horiz-adv-x="310" d="M103 725H207V0H103V725ZM-1 910H110L181 776H118L-1 910Z" />
<glyph unicode="&#xcd;" horiz-adv-x="310" d="M103 725H207V0H103V725ZM315 904L185 770H122L203 904H315Z" />
<glyph unicode="&#xce;" horiz-adv-x="310" d="M103 725H207V0H103V725ZM227 786L147 869L72 786H-20L148 960H149L320 786H227Z" />
<glyph unicode="&#xcf;" horiz-adv-x="310" d="M103 725H207V0H103V725ZM1 832Q1 856 18 872T57 889Q77 889 94 873T112 832Q112 807 95 792T57 776Q36 776 19 791T1 832ZM190 832Q190 856 207 872T246 889Q266 889 283 873T301 832Q301 807 284 792T246 776Q225
776 208 791T190 832Z" />
<glyph unicode="&#xd0;" horiz-adv-x="756" d="M103 0V725H304Q412 725 487 693T609 606T677 485T699 353Q699 272 671 207T592 95T476 25T339 0H103ZM207 101H319Q398 101 459 131T555 219T591 360Q591 428 569 477T509 559T426 608T332 624H207V101ZM273 407H557V313H273V407Z"
/>
<glyph unicode="&#xd1;" horiz-adv-x="840" d="M734 -25L206 502L208 0H103V748H107L635 214L633 725H737V-25H734ZM483 792Q451 792 430 806T391 836Q379 847 367 856T341 865Q322 865 312 845T302 791H249Q245 850 271 890T347 931Q373 931 392 917T427 887Q441
874 454 864T481 854Q501 854 509 875T516 931H569Q577 868 551 830T483 792Z" />
<glyph unicode="&#xd2;" horiz-adv-x="856" d="M58 362Q58 437 86 504T166 622T284 703T427 733Q503 733 570 704T689 623T770 504T799 362Q799 285 770 218T690 100T571 21T427 -8Q351 -8 284 20T166 99T87 216T58 362ZM166 361Q166 287 201 226T296 129T430
93Q503 93 562 129T656 226T691 362Q691 437 656 498T561 596T428 632Q354 632 295 596T201 498T166 361ZM272 903H383L454 769H391L272 903Z" />
<glyph unicode="&#xd3;" horiz-adv-x="856" d="M58 362Q58 437 86 504T166 622T284 703T427 733Q503 733 570 704T689 623T770 504T799 362Q799 285 770 218T690 100T571 21T427 -8Q351 -8 284 20T166 99T87 216T58 362ZM166 361Q166 287 201 226T296 129T430
93Q503 93 562 129T656 226T691 362Q691 437 656 498T561 596T428 632Q354 632 295 596T201 498T166 361ZM587 897L457 763H394L475 897H587Z" />
<glyph unicode="&#xd4;" horiz-adv-x="856" d="M58 362Q58 437 86 504T166 622T284 703T427 733Q503 733 570 704T689 623T770 504T799 362Q799 285 770 218T690 100T571 21T427 -8Q351 -8 284 20T166 99T87 216T58 362ZM166 361Q166 287 201 226T296 129T430
93Q503 93 562 129T656 226T691 362Q691 437 656 498T561 596T428 632Q354 632 295 596T201 498T166 361ZM500 779L420 862L345 779H253L421 953H422L593 779H500Z" />
<glyph unicode="&#xd5;" horiz-adv-x="856" d="M58 362Q58 437 86 504T166 622T284 703T427 733Q503 733 570 704T689 623T770 504T799 362Q799 285 770 218T690 100T571 21T427 -8Q351 -8 284 20T166 99T87 216T58 362ZM166 361Q166 287 201 226T296 129T430
93Q503 93 562 129T656 226T691 362Q691 437 656 498T561 596T428 632Q354 632 295 596T201 498T166 361ZM504 799Q472 799 451 813T412 843Q400 854 388 863T362 872Q343 872 333 852T323 798H270Q266 857 292 897T368 938Q394 938 413 924T448 894Q462 881 475
871T502 861Q522 861 530 882T537 938H590Q598 875 572 837T504 799Z" />
<glyph unicode="&#xd6;" horiz-adv-x="856" d="M58 362Q58 437 86 504T166 622T284 703T427 733Q503 733 570 704T689 623T770 504T799 362Q799 285 770 218T690 100T571 21T427 -8Q351 -8 284 20T166 99T87 216T58 362ZM166 361Q166 287 201 226T296 129T430
93Q503 93 562 129T656 226T691 362Q691 437 656 498T561 596T428 632Q354 632 295 596T201 498T166 361ZM273 825Q273 849 290 865T329 882Q349 882 366 866T384 825Q384 800 367 785T329 769Q308 769 291 784T273 825ZM462 825Q462 849 479 865T518 882Q538 882
555 866T573 825Q573 800 556 785T518 769Q497 769 480 784T462 825Z" />
<glyph unicode="&#xd7;" horiz-adv-x="519" d="M279 249L372 342Q391 323 409 303T447 264Q425 242 402 219T357 172Q380 150 402 127T450 78L370 0Q347 23 323 46T276 92Q254 70 231 47T185 2Q166 21 147 40T108 78Q131 101 154 123T200 170L105 264L184 344L279 249Z" />
<glyph unicode="&#xd8;" horiz-adv-x="858" d="M756 685L696 615Q744 565 771 500T799 362Q799 285 770 218T690 100T571 21T427 -8Q369 -8 316 9T218 56L156 -16L90 44L151 115Q108 164 83 227T58 362Q58 437 86 504T166 622T284 703T427 733Q482 733 533 717T628
673L691 746L756 685ZM629 537L286 136Q317 115 353 104T430 93Q503 93 562 129T656 226T691 362Q691 412 675 456T629 537ZM166 361Q166 315 180 273T221 197L562 595Q532 613 499 622T428 632Q354 632 295 596T201 498T166 361Z" />
<glyph unicode="&#xd9;" horiz-adv-x="735" d="M197 259Q197 213 219 176T281 116T367 94Q417 94 456 116T517 175T540 259V725H643V256Q643 177 606 118T507 25T367 -8Q290 -8 228 25T129 117T92 256V725H197V259ZM212 910H323L394 776H331L212 910Z" />
<glyph unicode="&#xda;" horiz-adv-x="735" d="M197 259Q197 213 219 176T281 116T367 94Q417 94 456 116T517 175T540 259V725H643V256Q643 177 606 118T507 25T367 -8Q290 -8 228 25T129 117T92 256V725H197V259ZM527 904L397 770H334L415 904H527Z" />
<glyph unicode="&#xdb;" horiz-adv-x="735" d="M197 259Q197 213 219 176T281 116T367 94Q417 94 456 116T517 175T540 259V725H643V256Q643 177 606 118T507 25T367 -8Q290 -8 228 25T129 117T92 256V725H197V259ZM440 786L360 869L285 786H193L361 960H362L533
786H440Z" />
<glyph unicode="&#xdc;" horiz-adv-x="735" d="M197 259Q197 213 219 176T281 116T367 94Q417 94 456 116T517 175T540 259V725H643V256Q643 177 606 118T507 25T367 -8Q290 -8 228 25T129 117T92 256V725H197V259ZM213 832Q213 856 230 872T269 889Q289 889 306
873T324 832Q324 807 307 792T269 776Q248 776 231 791T213 832ZM402 832Q402 856 419 872T458 889Q478 889 495 873T513 832Q513 807 496 792T458 776Q437 776 420 791T402 832Z" />
<glyph unicode="&#xdd;" horiz-adv-x="696" d="M294 239L26 725H155L350 359L542 725H670L399 239V0H294V239ZM521 902L391 768H328L409 902H521Z" />
<glyph unicode="&#xde;" horiz-adv-x="602" d="M321 591Q433 591 495 532T557 363Q557 320 545 278T506 202T434 147T321 126H211V0H103V720H211V591H321ZM311 228Q361 228 391 248T435 299T449 361Q449 394 435 423T391 471T312 490H211V228H311Z" />
<glyph unicode="&#xdf;" horiz-adv-x="605" d="M108 455Q108 522 136 569T211 641T316 666Q380 666 423 647T488 595T510 525Q510 482 492 448T437 395Q490 375 523 328T557 197Q557 97 501 44T359 -10Q317 -10 288 2T245 27L284 88Q300 76 316 72T349 67Q401
67 428 106T456 202Q456 268 424 306T337 343H332L331 431Q365 431 386 450T408 502Q408 537 385 560T318 583Q259 583 234 541T209 422V0H108V340H43V423H108V455Z" />
<glyph unicode="&#xe0;" horiz-adv-x="591" d="M254 -10Q195 -10 147 15T71 88T43 209Q43 279 72 329T150 407T256 435Q314 435 352 412T412 355L419 418H512V0H411V66Q400 52 378 34T325 3T254 -10ZM281 73Q331 73 365 99T411 172V258Q399 299 363 326T278 353Q242
353 212 336T164 287T146 214Q146 174 164 142T214 92T281 73ZM159 634H270L341 500H278L159 634Z" />
<glyph unicode="&#xe1;" horiz-adv-x="591" d="M254 -10Q195 -10 147 15T71 88T43 209Q43 279 72 329T150 407T256 435Q314 435 352 412T412 355L419 418H512V0H411V66Q400 52 378 34T325 3T254 -10ZM281 73Q331 73 365 99T411 172V258Q399 299 363 326T278 353Q242
353 212 336T164 287T146 214Q146 174 164 142T214 92T281 73ZM428 628L298 494H235L316 628H428Z" />
<glyph unicode="&#xe2;" horiz-adv-x="591" d="M254 -10Q195 -10 147 15T71 88T43 209Q43 279 72 329T150 407T256 435Q314 435 352 412T412 355L419 418H512V0H411V66Q400 52 378 34T325 3T254 -10ZM281 73Q331 73 365 99T411 172V258Q399 299 363 326T278 353Q242
353 212 336T164 287T146 214Q146 174 164 142T214 92T281 73ZM386 500L306 583L231 500H139L307 674H308L479 500H386Z" />
<glyph unicode="&#xe3;" horiz-adv-x="591" d="M254 -10Q195 -10 147 15T71 88T43 209Q43 279 72 329T150 407T256 435Q314 435 352 412T412 355L419 418H512V0H411V66Q400 52 378 34T325 3T254 -10ZM281 73Q331 73 365 99T411 172V258Q399 299 363 326T278 353Q242
353 212 336T164 287T146 214Q146 174 164 142T214 92T281 73ZM387 474Q354 474 333 488T294 519Q283 530 271 539T245 548Q226 548 215 527T205 474H152Q148 533 174 573T250 614Q276 614 295 600T330 570Q344 557 357 547T384 537Q404 537 412 558T419 614H473Q480
550 454 512T387 474Z" />
<glyph unicode="&#xe4;" horiz-adv-x="591" d="M254 -10Q195 -10 147 15T71 88T43 209Q43 279 72 329T150 407T256 435Q314 435 352 412T412 355L419 418H512V0H411V66Q400 52 378 34T325 3T254 -10ZM281 73Q331 73 365 99T411 172V258Q399 299 363 326T278 353Q242
353 212 336T164 287T146 214Q146 174 164 142T214 92T281 73ZM158 543Q158 567 175 583T214 600Q234 600 251 584T269 543Q269 518 252 503T214 487Q193 487 176 502T158 543ZM347 543Q347 567 364 583T403 600Q423 600 440 584T458 543Q458 518 441 503T403 487Q382
487 365 502T347 543Z" />
<glyph unicode="&#xe5;" horiz-adv-x="591" d="M254 -10Q195 -10 147 15T71 88T43 209Q43 279 72 329T150 407T256 435Q314 435 352 412T412 355L419 418H512V0H411V66Q400 52 378 34T325 3T254 -10ZM281 73Q331 73 365 99T411 172V258Q399 299 363 326T278 353Q242
353 212 336T164 287T146 214Q146 174 164 142T214 92T281 73ZM204 559Q204 600 231 625T301 651Q342 651 369 626T397 559Q397 519 370 493T301 467Q259 467 232 492T204 559ZM258 558Q258 539 270 527T301 514Q319 514 331 526T343 558Q343 578 331 590T301 602Q282
602 270 590T258 558Z" />
<glyph unicode="&#xe6;" horiz-adv-x="820" d="M207 -11Q122 -11 83 26T43 119Q43 160 67 189T132 233T216 248Q249 248 280 241T338 220V263Q338 299 322 318T285 344T246 351Q206 351 175 332T121 286L70 351Q102 385 149 409T260 434Q309 434 348 419T410 374Q442
402 483 418T572 435Q656 435 711 387T786 250L459 137Q477 108 506 92T572 76Q599 76 624 85T671 111L717 36Q685 15 647 3T570 -10Q510 -10 464 10T388 66V65Q357 25 307 7T207 -11ZM439 197L672 282Q659 311 634 333T565 355Q509 355 474 317T438 218Q438 207
439 197ZM345 147Q320 165 296 173T239 182Q205 182 180 168T155 122Q155 94 175 77T235 60Q263 60 295 74T345 109V147Z" />
<glyph unicode="&#xe7;" horiz-adv-x="460" d="M421 39Q393 16 354 3T274 -10Q206 -10 154 17T72 93T43 209Q43 277 74 326T155 401T264 428Q316 428 355 414T424 375L374 310Q357 324 331 335T273 346Q237 346 208 328T161 279T144 209Q144 171 161 140T210 91T282
73Q308 73 330 81T370 102L421 39ZM149 -149Q160 -160 176 -167T214 -175Q239 -175 259 -164T280 -131Q280 -115 267 -102T218 -88Q202 -88 184 -92T153 -100L136 -52L205 11L283 8L240 -42Q241 -42 242 -42Q296 -41 330 -63T365 -130Q365 -164 345 -186T294 -219T225
-230Q186 -230 160 -219T117 -191L149 -149Z" />
<glyph unicode="&#xe8;" horiz-adv-x="525" d="M275 -10Q203 -10 151 18T71 97T43 212Q43 274 74 324T159 405T277 435Q361 435 416 387T491 250L164 137Q182 108 211 92T277 76Q304 76 329 85T376 111L422 36Q390 15 352 3T275 -10ZM144 197L377 282Q364 311
339 333T270 355Q214 355 179 317T143 218Q143 207 144 197ZM122 635H233L304 501H241L122 635Z" />
<glyph unicode="&#xe9;" horiz-adv-x="525" d="M275 -10Q203 -10 151 18T71 97T43 212Q43 274 74 324T159 405T277 435Q361 435 416 387T491 250L164 137Q182 108 211 92T277 76Q304 76 329 85T376 111L422 36Q390 15 352 3T275 -10ZM144 197L377 282Q364 311
339 333T270 355Q214 355 179 317T143 218Q143 207 144 197ZM391 628L261 494H198L279 628H391Z" />
<glyph unicode="&#xea;" horiz-adv-x="525" d="M275 -10Q203 -10 151 18T71 97T43 212Q43 274 74 324T159 405T277 435Q361 435 416 387T491 250L164 137Q182 108 211 92T277 76Q304 76 329 85T376 111L422 36Q390 15 352 3T275 -10ZM144 197L377 282Q364 311
339 333T270 355Q214 355 179 317T143 218Q143 207 144 197ZM349 500L269 583L194 500H102L270 674H271L442 500H349Z" />
<glyph unicode="&#xeb;" horiz-adv-x="525" d="M275 -10Q203 -10 151 18T71 97T43 212Q43 274 74 324T159 405T277 435Q361 435 416 387T491 250L164 137Q182 108 211 92T277 76Q304 76 329 85T376 111L422 36Q390 15 352 3T275 -10ZM144 197L377 282Q364 311
339 333T270 355Q214 355 179 317T143 218Q143 207 144 197ZM121 544Q121 568 138 584T177 601Q197 601 214 585T232 544Q232 519 215 504T177 488Q156 488 139 503T121 544ZM310 544Q310 568 327 584T366 601Q386 601 403 585T421 544Q421 519 404 504T366 488Q345
488 328 503T310 544Z" />
<glyph unicode="&#xec;" horiz-adv-x="259" d="M79 418H180V0H79V418ZM237 620H348L419 486H356L237 620Z" />
<glyph unicode="&#xed;" horiz-adv-x="259" d="M79 418H180V0H79V418ZM250 870L120 736H57L138 870H250Z" />
<glyph unicode="&#xee;" horiz-adv-x="259" d="M79 418H180V0H79V418ZM464 742L384 825L309 742H217L385 916H386L557 742H464Z" />
<glyph unicode="&#xef;" horiz-adv-x="259" d="M79 418H180V0H79V418ZM236 529Q236 553 253 569T292 586Q312 586 329 570T347 529Q347 504 330 489T292 473Q271 473 254 488T236 529ZM425 529Q425 553 442 569T481 586Q501 586 518 570T536 529Q536 504 519 489T481
473Q460 473 443 488T425 529Z" />
<glyph unicode="&#xf0;" horiz-adv-x="549" d="M265 -10Q204 -10 154 17T73 94T43 213Q43 276 71 326T146 406T251 435Q295 435 329 416T389 366Q374 427 347 479T281 577L193 522L159 589L230 633Q211 651 191 668T148 703L222 770Q272 736 318 687L402 739L436
673L367 630Q430 547 468 447T506 250Q506 201 490 155T443 71T368 12T265 -10ZM274 73Q331 73 367 113T404 212Q404 271 368 311T274 352Q237 352 208 333T162 282T145 212Q145 173 162 142T208 92T274 73Z" />
<glyph unicode="&#xf1;" horiz-adv-x="560" d="M170 418L177 340Q198 383 242 408T344 434Q403 434 441 400T480 309V0H379V274Q378 306 360 326T304 348Q251 348 216 304T180 191V0H79V418H170ZM357 467Q324 467 303 481T264 512Q253 523 241 532T215 541Q196
541 185 520T175 467H122Q118 526 144 566T220 607Q246 607 265 593T300 563Q314 550 327 540T354 530Q374 530 382 551T389 607H443Q450 543 424 505T357 467Z" />
<glyph unicode="&#xf2;" horiz-adv-x="549" d="M43 213Q43 276 73 326T156 406T277 435Q346 435 397 406T477 327T506 213Q506 150 477 100T397 20T275 -10Q209 -10 157 17T74 94T43 213ZM145 212Q145 173 162 142T208 92T274 73Q331 73 367 113T404 212Q404 271
368 311T274 352Q237 352 208 333T162 282T145 212ZM125 634H236L307 500H244L125 634Z" />
<glyph unicode="&#xf3;" horiz-adv-x="549" d="M43 213Q43 276 73 326T156 406T277 435Q346 435 397 406T477 327T506 213Q506 150 477 100T397 20T275 -10Q209 -10 157 17T74 94T43 213ZM145 212Q145 173 162 142T208 92T274 73Q331 73 367 113T404 212Q404 271
368 311T274 352Q237 352 208 333T162 282T145 212ZM394 628L264 494H201L282 628H394Z" />
<glyph unicode="&#xf4;" horiz-adv-x="549" d="M43 213Q43 276 73 326T156 406T277 435Q346 435 397 406T477 327T506 213Q506 150 477 100T397 20T275 -10Q209 -10 157 17T74 94T43 213ZM145 212Q145 173 162 142T208 92T274 73Q331 73 367 113T404 212Q404 271
368 311T274 352Q237 352 208 333T162 282T145 212ZM352 500L272 583L197 500H105L273 674H274L445 500H352Z" />
<glyph unicode="&#xf5;" horiz-adv-x="549" d="M43 213Q43 276 73 326T156 406T277 435Q346 435 397 406T477 327T506 213Q506 150 477 100T397 20T275 -10Q209 -10 157 17T74 94T43 213ZM145 212Q145 173 162 142T208 92T274 73Q331 73 367 113T404 212Q404 271
368 311T274 352Q237 352 208 333T162 282T145 212ZM353 474Q320 474 299 488T260 519Q249 530 237 539T211 548Q192 548 181 527T171 474H118Q114 533 140 573T216 614Q242 614 261 600T296 570Q310 557 323 547T350 537Q370 537 378 558T385 614H439Q446 550
420 512T353 474Z" />
<glyph unicode="&#xf6;" horiz-adv-x="549" d="M43 213Q43 276 73 326T156 406T277 435Q346 435 397 406T477 327T506 213Q506 150 477 100T397 20T275 -10Q209 -10 157 17T74 94T43 213ZM145 212Q145 173 162 142T208 92T274 73Q331 73 367 113T404 212Q404 271
368 311T274 352Q237 352 208 333T162 282T145 212ZM124 543Q124 567 141 583T180 600Q200 600 217 584T235 543Q235 518 218 503T180 487Q159 487 142 502T124 543ZM313 543Q313 567 330 583T369 600Q389 600 406 584T424 543Q424 518 407 503T369 487Q348 487
331 502T313 543Z" />
<glyph unicode="&#xf7;" horiz-adv-x="507" d="M69 297H433V208H69V297ZM199 107Q199 131 216 147T254 163Q274 163 291 147T309 107Q309 82 292 67T254 51Q233 51 216 66T199 107ZM199 402Q199 425 216 441T254 458Q274 458 291 442T309 402Q309 377 292 362T254
346Q233 346 216 361T199 402Z" />
<glyph unicode="&#xf8;" horiz-adv-x="525" d="M481 408L446 368Q475 338 490 299T506 213Q506 150 477 100T397 20T275 -10Q202 -10 146 23L104 -26L55 20L95 65Q70 93 57 130T43 213Q43 276 73 326T156 406T277 435Q341 435 393 408L430 450L481 408ZM381 293L207
92Q237 73 274 73Q331 73 367 113T404 212Q404 258 381 293ZM145 212Q145 174 162 142L333 338Q306 352 274 352Q237 352 208 333T162 282T145 212Z" />
<glyph unicode="&#xf9;" horiz-adv-x="553" d="M213 -17Q155 -17 118 18T79 108V418H180V144Q182 111 199 91T253 69Q287 69 314 89T356 146T372 227V418H473V0H382L376 77Q355 36 312 10T213 -17ZM128 634H239L310 500H247L128 634Z" />
<glyph unicode="&#xfa;" horiz-adv-x="553" d="M213 -17Q155 -17 118 18T79 108V418H180V144Q182 111 199 91T253 69Q287 69 314 89T356 146T372 227V418H473V0H382L376 77Q355 36 312 10T213 -17ZM397 628L267 494H204L285 628H397Z" />
<glyph unicode="&#xfb;" horiz-adv-x="553" d="M213 -17Q155 -17 118 18T79 108V418H180V144Q182 111 199 91T253 69Q287 69 314 89T356 146T372 227V418H473V0H382L376 77Q355 36 312 10T213 -17ZM355 500L275 583L200 500H108L276 674H277L448 500H355Z" />
<glyph unicode="&#xfc;" horiz-adv-x="553" d="M213 -17Q155 -17 118 18T79 108V418H180V144Q182 111 199 91T253 69Q287 69 314 89T356 146T372 227V418H473V0H382L376 77Q355 36 312 10T213 -17ZM126 543Q126 567 143 583T182 600Q202 600 219 584T237 543Q237
518 220 503T182 487Q161 487 144 502T126 543ZM315 543Q315 567 332 583T371 600Q391 600 408 584T426 543Q426 518 409 503T371 487Q350 487 333 502T315 543Z" />
<glyph unicode="&#xfd;" horiz-adv-x="500" d="M115 -201L211 14L18 418H131L262 129L390 418H483L213 -201H115ZM376 614L246 480H183L264 614H376Z" />
<glyph unicode="&#xfe;" horiz-adv-x="591" d="M328 -10Q283 -10 242 9T178 64V-201H78V777H179V361Q208 394 251 414T347 435Q406 435 452 407T526 329T553 210Q553 142 524 93T444 17T328 -10ZM308 70Q347 70 379 88T431 138T451 209Q451 250 432 281T383 331T315
350Q263 350 228 322T179 248V171Q188 127 224 99T308 70Z" />
<glyph unicode="&#xff;" horiz-adv-x="500" d="M115 -201L211 14L18 418H131L262 129L390 418H483L213 -201H115ZM106 529Q106 553 123 569T162 586Q182 586 199 570T217 529Q217 504 200 489T162 473Q141 473 124 488T106 529ZM295 529Q295 553 312 569T351 586Q371
586 388 570T406 529Q406 504 389 489T351 473Q330 473 313 488T295 529Z" />
<glyph unicode="&#x2013;" horiz-adv-x="516" d="M102 257H406V169H102V257Z" />
<glyph unicode="&#x2014;" horiz-adv-x="710" d="M101 257H609V169H101V257Z" />
<glyph unicode="&#x2018;" horiz-adv-x="183" d="M102 735L154 709Q132 687 120 652T113 584L34 577Q24 628 46 669T102 735Z" />
<glyph unicode="&#x2019;" horiz-adv-x="187" d="M84 563L32 588Q54 608 66 643T72 714L152 721Q158 693 150 662T124 605T84 563Z" />
<glyph unicode="&#x201a;" horiz-adv-x="187" d="M84 -83L32 -58Q54 -38 66 -3T72 68L152 75Q158 47 150 16T124 -41T84 -83Z" />
<glyph unicode="&#x201c;" horiz-adv-x="299" d="M233 735L285 709Q263 687 251 652T244 584L165 577Q155 628 177 669T233 735ZM106 735L158 709Q136 687 124 652T117 584L38 577Q28 628 50 669T106 735Z" />
<glyph unicode="&#x201d;" horiz-adv-x="297" d="M84 563L32 588Q54 608 66 643T72 714L152 721Q158 693 150 662T124 605T84 563ZM205 563L153 588Q175 608 187 643T193 714L273 721Q279 693 271 662T245 605T205 563Z" />
<glyph unicode="&#x201e;" horiz-adv-x="308" d="M84 -80L32 -55Q54 -35 66 0T72 71L152 78Q158 50 150 19T124 -38T84 -80ZM205 -80L153 -55Q175 -35 187 0T193 71L273 78Q279 50 271 19T245 -38T205 -80Z" />
<glyph unicode="&#x2022;" horiz-adv-x="485" d="M109 304Q109 342 127 372T175 421T242 440Q280 440 311 422T360 373T378 304Q378 267 360 237T311 189T242 171Q206 171 176 188T127 236T109 304V304Z" />
<glyph unicode="&#x2039;" horiz-adv-x="369" d="M47 242Q52 247 75 266T129 312T192 364T246 409T275 433V341Q269 336 254 322T221 292T187 262T166 242Q171 236 186 223T220 192T254 162T275 142V51L47 242Z" />
<glyph unicode="&#x203a;" horiz-adv-x="362" d="M320 242L91 51V142Q97 148 112 161T145 192T179 222T200 242Q195 248 180 261T146 291T112 322T91 341V433Q96 428 119 409T174 364T236 312T291 267T320 242Z" />
</font>
</defs>
</svg>
