<?xml version="1.0" standalone="no"?>
<!DOCTYPE svg PUBLIC "-//W3C//DTD SVG 1.1//EN" "http://www.w3.org/Graphics/SVG/1.1/DTD/svg11.dtd">
<svg xmlns="http://www.w3.org/2000/svg">
<defs >
<font id="Geologica" horiz-adv-x="1147" ><font-face
    font-family="Geologica Thin Roman"
    units-per-em="2000"
    panose-1="0 0 0 0 0 0 0 0 0 0"
    ascent="1950"
    descent="-550"
    alphabetic="0" />
<glyph unicode=" " horiz-adv-x="490" />
<glyph unicode="!" horiz-adv-x="645" d="M228 476L193 1400H453L418 476H228ZM323 -30Q259 -30 213 11T166 118Q166 163 187 196T244 248T323 267Q388 267 433 227T479 118Q479 74 458 41T402 -11T323 -30Z" />
<glyph unicode="&quot;" horiz-adv-x="816" d="M147 883L126 1400H330L309 883H147ZM507 883L486 1400H690L669 883H507Z" />
<glyph unicode="#" horiz-adv-x="1267" d="M167 48L249 387H78L114 545H286L358 853H186L224 1011H394L477 1352H640L559 1011H855L936 1353H1101L1019 1011H1189L1153 852H982L913 546H1083L1045 387H874L792 47H627L709 387H414L332 48H167ZM450 545L748 546L817
852L519 853L450 545Z" />
<glyph unicode="$" horiz-adv-x="1296" d="M661 -30Q524 -30 393 9T173 124L271 275Q319 232 383 202T518 156T661 140Q804 140 890 197T976 363Q976 452 914 508T701 607L552 645Q377 697 285 788T193 1025Q193 1147 255 1238T425 1379T675 1429Q806 1429 920
1390T1107 1284L1008 1139Q944 1196 853 1228T664 1261Q575 1261 509 1235T406 1159T370 1036Q370 947 430 896T642 802L802 763Q974 713 1064 624T1154 382Q1154 259 1096 167T928 22T661 -30ZM593 -160V1560H754V-160H593Z" />
<glyph unicode="%" horiz-adv-x="2063" d="M703 -34L580 39L1360 1434L1483 1366L703 -34ZM457 671Q351 671 264 721T126 857T74 1047Q74 1150 125 1235T264 1370T457 1420Q564 1420 650 1370T787 1235T839 1047Q839 943 788 858T650 722T457 671ZM457 823Q524
823 574 851T652 930T680 1047Q680 1146 619 1207T457 1268Q391 1268 341 1240T262 1162T233 1047Q233 948 295 886T457 823ZM1608 -20Q1501 -20 1415 30T1276 166T1224 356Q1224 459 1276 544T1414 679T1608 729Q1714 729 1800 679T1938 544T1989 356Q1989 252
1938 167T1801 31T1608 -20ZM1608 132Q1674 132 1724 160T1803 239T1831 356Q1831 455 1770 516T1608 577Q1541 577 1491 549T1412 471T1383 356Q1383 258 1445 195T1608 132Z" />
<glyph unicode="&amp;" horiz-adv-x="1498" d="M561 -30Q428 -30 326 22T166 165T108 372Q108 458 147 534T260 670T436 771Q374 833 338 884T286 985T271 1092Q271 1185 322 1262T460 1384T651 1430Q760 1430 846 1388T981 1271T1031 1099Q1031 988 953 899T723
737L1021 431Q1078 504 1126 597T1217 818L1395 746Q1368 667 1328 587T1240 433T1141 299L1421 0H1163L1011 159Q915 69 797 20T561 -30ZM575 156Q661 156 741 190T889 294L552 644Q439 605 378 535T317 378Q317 277 386 217T575 156ZM610 850Q723 891 780 951T838
1085Q838 1162 787 1210T654 1258Q574 1258 521 1211T467 1090Q467 1031 499 977T610 850Z" />
<glyph unicode="&apos;" horiz-adv-x="456" d="M147 883L126 1400H330L309 883H147Z" />
<glyph unicode="(" horiz-adv-x="691" d="M407 -230Q283 -21 221 215T159 692Q159 853 186 1011T269 1321T407 1610L575 1542Q520 1455 479 1355T409 1146T368 925T354 696Q354 466 409 243T575 -162L407 -230Z" />
<glyph unicode=")" horiz-adv-x="691" d="M284 -230L116 -162Q171 -74 212 26T282 234T323 456T337 684Q337 915 282 1138T116 1542L284 1610Q409 1402 470 1166T532 688Q532 527 505 369T422 59T284 -230Z" />
<glyph unicode="*" horiz-adv-x="1100" d="M390 584L222 704L411 934L121 1011L187 1210L465 1101L446 1400H655L637 1103L915 1212L981 1012L692 936L883 704L710 586L552 837L390 584Z" />
<glyph unicode="+" horiz-adv-x="1296" d="M564 179V586H138V747H564V1154H732V747H1158V586H732V179H564Z" />
<glyph unicode="," horiz-adv-x="538" d="M144 -302L67 -200Q142 -164 199 -114T278 -14Q232 -17 195 -1T136 47T114 122Q114 186 156 226T264 267Q339 267 384 218T430 82Q430 16 398 -51T303 -182T144 -302Z" />
<glyph unicode="-" horiz-adv-x="778" d="M119 467V658H659V467H119Z" />
<glyph unicode="." horiz-adv-x="538" d="M269 -30Q205 -30 159 11T112 118Q112 163 133 196T190 248T269 267Q334 267 379 227T425 118Q425 74 404 41T348 -11T269 -30Z" />
<glyph unicode="/" horiz-adv-x="913" d="M185 -230L1 -158L729 1610L912 1538L185 -230Z" />
<glyph unicode="0" horiz-adv-x="1359" d="M679 -30Q545 -30 439 27T258 185T144 418T105 700Q105 851 144 983T257 1215T438 1373T679 1430Q813 1430 919 1373T1100 1216T1214 983T1254 700Q1254 550 1215 418T1101 185T920 27T679 -30ZM679 168Q759 168 824
204T936 310T1009 477T1034 700Q1034 866 990 985T866 1168T679 1232Q600 1232 535 1196T422 1090T350 923T324 700Q324 534 368 415T493 232T679 168Z" />
<glyph unicode="1" horiz-adv-x="867" d="M437 0V1164L74 1031L16 1205L629 1430H645V0H437Z" />
<glyph unicode="2" horiz-adv-x="1181" d="M119 0V160L422 437Q566 569 654 664T782 837T822 993Q822 1108 744 1172T525 1237Q432 1237 347 1205T202 1112L120 1275Q205 1351 316 1390T549 1430Q694 1430 802 1379T971 1234T1032 1015Q1032 928 998 842T875 647T624
388L409 190H1067V0H119Z" />
<glyph unicode="3" horiz-adv-x="1164" d="M526 -30Q439 -30 355 -12T200 37T84 110L159 294Q222 235 319 200T512 165Q607 165 677 197T785 287T824 424Q824 544 737 611T504 678Q465 678 423 673T338 657L273 804L711 1212H95V1400H977V1227L560 822Q685 824
795 779T972 643T1040 412Q1040 280 974 181T792 26T526 -30Z" />
<glyph unicode="4" horiz-adv-x="1202" d="M732 0V287H35V456L537 1400H765L270 474H732V785H925V474H1141V287H925V0H732Z" />
<glyph unicode="5" horiz-adv-x="1168" d="M527 -30Q398 -30 280 7T84 106L156 288Q225 228 321 197T515 165Q613 165 685 197T796 291T835 439Q835 519 794 576T681 665T516 696Q457 696 394 682T265 639L173 738L245 1398L1017 1399V1203H404L362 838Q414 855
465 864T568 873Q706 873 815 821T987 669T1051 432Q1051 292 985 188T800 27T527 -30Z" />
<glyph unicode="6" horiz-adv-x="1282" d="M660 -30Q502 -30 380 38T188 234T118 545Q118 722 184 871T369 1136T647 1327T994 1430L1072 1258Q919 1242 800 1195T596 1077T456 922T376 743Q432 815 518 857T705 900Q840 900 948 843T1119 685T1182 452Q1182 351
1144 263T1036 110T871 7T660 -30ZM660 160Q749 160 818 196T926 294T966 438Q966 518 926 581T816 681T660 718Q573 718 504 681T394 581T353 438Q353 357 392 295T501 196T660 160Z" />
<glyph unicode="7" horiz-adv-x="1108" d="M175 0L765 1198H98V1400H1015V1233L415 0H175Z" />
<glyph unicode="8" horiz-adv-x="1226" d="M609 -30Q454 -30 341 26T167 177T106 390Q106 474 136 540T224 656T363 738Q281 771 218 849T155 1046Q155 1157 214 1244T376 1380T613 1430Q749 1430 853 1380T1017 1243T1076 1046Q1076 966 1047 905T969 802T867
738Q981 690 1050 603T1120 390Q1120 272 1056 177T878 26T609 -30ZM613 155Q690 155 756 183T863 266T904 402Q904 482 865 537T760 621T613 649Q488 649 405 586T322 402Q322 321 362 266T468 183T613 155ZM615 830Q690 830 748 855T839 928T872 1039Q872 1134
801 1198T615 1262Q539 1262 481 1233T391 1153T358 1039Q358 944 430 887T615 830Z" />
<glyph unicode="9" horiz-adv-x="1258" d="M273 -30L196 142Q347 160 464 209T665 331T803 494T881 682Q828 609 746 567T565 524Q433 524 328 581T161 739T99 972Q99 1102 164 1205T345 1369T610 1430Q764 1430 883 1364T1071 1172T1140 868Q1140 688 1075 537T892
268T616 75T273 -30ZM610 706Q694 706 760 741T865 837T904 974Q904 1052 867 1112T763 1206T610 1240Q525 1240 458 1206T353 1112T315 974Q315 898 354 837T460 741T610 706Z" />
<glyph unicode=":" horiz-adv-x="588" d="M294 733Q230 733 184 774T137 881Q137 926 158 959T215 1011T294 1030Q359 1030 404 990T450 881Q450 837 429 804T373 752T294 733ZM294 -30Q230 -30 184 11T137 118Q137 163 158 196T215 248T294 267Q359 267 404 227T450
118Q450 74 429 41T373 -11T294 -30Z" />
<glyph unicode=";" horiz-adv-x="588" d="M294 733Q230 733 184 774T137 881Q137 926 158 959T215 1011T294 1030Q359 1030 404 990T450 881Q450 837 429 804T373 752T294 733ZM169 -302L92 -200Q167 -164 224 -114T303 -14Q257 -17 220 -1T161 47T139 122Q139
186 181 226T289 267Q364 267 409 218T455 82Q455 16 423 -51T328 -182T169 -302Z" />
<glyph unicode="&lt;" horiz-adv-x="1296" d="M1105 182L138 574V733L1104 1122L1169 963L392 654L1169 342L1105 182Z" />
<glyph unicode="=" horiz-adv-x="1296" d="M138 777V938H1158V777H138ZM138 390V551H1158V390H138Z" />
<glyph unicode="&gt;" horiz-adv-x="1296" d="M192 182L128 342L904 651L128 963L191 1122L1158 730V572L192 182Z" />
<glyph unicode="?" horiz-adv-x="988" d="M333 433Q307 544 313 614T360 734T475 831Q578 897 612 943T646 1045Q646 1134 583 1178T406 1223Q324 1223 258 1200T137 1136L79 1319Q112 1348 167 1373T294 1414T449 1430Q577 1430 678 1389T837 1270T896 1085Q896
1024 875 971T801 864T659 751Q595 709 565 671T531 578T541 433H333ZM446 -30Q382 -30 336 11T290 118Q290 163 311 196T367 248T446 267Q511 267 557 227T603 118Q603 74 582 41T525 -11T446 -30Z" />
<glyph unicode="@" horiz-adv-x="1710" d="M859 -234Q632 -234 460 -144T192 109T95 485Q95 648 154 786T319 1026T568 1185T880 1242Q1097 1242 1262 1157T1520 922T1614 575Q1614 451 1566 353T1438 197T1260 140Q1175 140 1122 176T1049 276Q1004 209 935 175T780
140Q689 140 618 185T505 310T464 490Q464 599 511 688T639 829T820 881Q955 881 1050 778L1053 855H1185L1162 415Q1158 336 1183 300T1277 264Q1334 264 1379 302T1451 410T1478 574Q1478 734 1402 856T1191 1048T878 1118Q740 1118 623 1070T417 937T281 737T232
486Q232 309 312 176T534 -32T867 -107Q960 -107 1051 -89T1221 -36T1358 45L1413 -73Q1346 -123 1256 -159T1065 -214T859 -234ZM803 280Q902 280 958 348T1015 537Q1015 635 969 688T834 741Q736 741 679 673T622 486Q622 387 669 334T803 280Z" />
<glyph unicode="A" horiz-adv-x="1387" d="M21 0L565 1400H808L1366 0H1113L984 334H391L267 0H21ZM449 527H924L682 1137L449 527Z" />
<glyph unicode="B" horiz-adv-x="1268" d="M182 0V1400H663Q864 1400 988 1311T1112 1047Q1112 980 1081 921T999 816T895 750Q1009 715 1085 622T1162 393Q1162 278 1104 190T939 51T685 0H182ZM406 176H647Q791 176 861 232T931 403Q931 516 861 575T643 634H406V176ZM406
802H628Q709 802 768 828T860 903T893 1021Q893 1119 824 1171T625 1224H406V802Z" />
<glyph unicode="C" horiz-adv-x="1395" d="M820 -30Q602 -30 439 60T186 314T95 699Q95 859 148 992T299 1224T530 1376T822 1430Q982 1430 1098 1390T1302 1276L1186 1093Q1120 1154 1032 1184T838 1214Q721 1214 627 1178T467 1076T365 915T329 701Q329 539
392 424T572 249T848 188Q954 188 1052 219T1237 322L1341 133Q1240 54 1111 12T820 -30Z" />
<glyph unicode="D" horiz-adv-x="1425" d="M182 0V1400H620Q829 1400 989 1311T1239 1063T1330 699Q1330 546 1279 418T1132 196T907 52T620 0H182ZM406 209H593Q706 209 798 242T957 340T1060 494T1096 699Q1096 852 1034 962T858 1132T593 1192H406V209Z" />
<glyph unicode="E" horiz-adv-x="1225" d="M182 0V1400H1087V1202H406V824H994V637H406V200H1093V0H182Z" />
<glyph unicode="F" horiz-adv-x="1161" d="M182 0V1400H1047V1195H406V792H987V592H406V0H182Z" />
<glyph unicode="G" horiz-adv-x="1502" d="M877 -30Q710 -30 568 21T320 167T154 397T95 698Q95 864 152 998T311 1229T552 1378T855 1430Q931 1430 1009 1418T1162 1379T1306 1304L1208 1128Q1132 1176 1044 1200T861 1224Q739 1224 640 1188T471 1083T364 917T326
699Q326 529 398 410T596 230T888 168Q969 168 1034 183T1139 219V557H821V743H1340V89Q1285 52 1203 25T1033 -16T877 -30Z" />
<glyph unicode="H" horiz-adv-x="1491" d="M182 0V1400H406V844H1084V1400H1308V0H1084V638H406V0H182Z" />
<glyph unicode="I" horiz-adv-x="589" d="M182 0V1400H406V0H182Z" />
<glyph unicode="J" horiz-adv-x="1004" d="M368 -30Q274 -30 190 -6T31 63L104 247Q163 213 221 195T340 176Q466 176 533 236T600 431V1400H824V394Q824 266 771 171T616 23T368 -30Z" />
<glyph unicode="K" horiz-adv-x="1390" d="M182 0V1400H406V683L985 1400H1261L749 766L1338 0H1049L602 595L406 363V0H182Z" />
<glyph unicode="L" horiz-adv-x="1088" d="M182 0V1400H406V206H1016V0H182Z" />
<glyph unicode="M" horiz-adv-x="1828" d="M182 0V1400H399L970 471L883 470L1433 1400H1646V0H1427L1430 1102L1473 1087L997 302H833L348 1087L384 1102L387 0H182Z" />
<glyph unicode="N" horiz-adv-x="1504" d="M182 0V1400H396L1103 383V1400H1321V0H1107L401 1029V0H182Z" />
<glyph unicode="O" horiz-adv-x="1663" d="M832 -30Q674 -30 540 25T306 180T151 412T95 700Q95 856 150 989T305 1221T539 1375T832 1430Q989 1430 1123 1374T1357 1218T1512 986T1568 700Q1568 545 1513 412T1357 180T1123 26T832 -30ZM832 182Q938 182 1029
218T1189 323T1295 487T1334 700Q1334 857 1268 973T1087 1154T832 1218Q726 1218 635 1182T475 1077T368 914T329 700Q329 543 396 427T576 246T832 182Z" />
<glyph unicode="P" horiz-adv-x="1267" d="M182 0V1400H689Q838 1400 952 1349T1132 1201T1197 969Q1197 830 1137 735T963 590T684 540H406V0H182ZM406 732H687Q823 732 898 789T973 964Q973 1080 896 1142T689 1204H406V732Z" />
<glyph unicode="Q" horiz-adv-x="1663" d="M1386 -78L1240 92Q1152 35 1047 3T826 -30Q672 -30 539 25T307 178T151 410T95 700Q95 856 150 989T306 1221T540 1375T832 1430Q987 1430 1120 1375T1354 1220T1511 989T1568 703Q1568 556 1517 428T1375 203L1518
39L1386 -78ZM832 166Q909 166 979 187T1108 247L896 492L1021 602L1234 359Q1287 424 1318 510T1349 700Q1349 860 1280 978T1094 1162T832 1228Q724 1228 631 1191T468 1084T359 918T320 700Q320 540 388 420T572 233T832 166Z" />
<glyph unicode="R" horiz-adv-x="1329" d="M182 0V1400H711Q857 1400 963 1350T1128 1206T1187 985Q1187 881 1143 801T1018 670T833 600L1255 0H984L597 565H406V0H182ZM406 751H674Q810 751 885 809T961 975Q961 1086 894 1148T690 1210H406V751Z" />
<glyph unicode="S" horiz-adv-x="1256" d="M638 -30Q493 -30 355 11T121 131L231 302Q281 259 347 228T489 181T639 164Q776 164 860 216T945 368Q945 443 888 495T675 591L531 633Q333 690 243 784T152 1018Q152 1111 189 1186T295 1316T457 1400T661 1429Q802
1429 923 1388T1123 1278L1009 1112Q966 1151 909 1179T785 1222T651 1237Q567 1237 503 1213T402 1142T366 1030Q366 982 390 946T472 881T634 821L786 776Q980 719 1070 628T1160 390Q1160 265 1099 171T920 23T638 -30Z" />
<glyph unicode="T" horiz-adv-x="1120" d="M448 0V1195H54V1400H1066V1195H672V0H448Z" />
<glyph unicode="U" horiz-adv-x="1479" d="M739 -30Q552 -30 427 46T238 252T174 546V1400H398V548Q398 363 490 273T739 182Q896 182 988 272T1080 548V1400H1305V546Q1305 384 1242 254T1053 47T739 -30Z" />
<glyph unicode="V" horiz-adv-x="1323" d="M549 0L11 1400H263L672 299L1065 1400H1312L788 0H549Z" />
<glyph unicode="W" horiz-adv-x="2037" d="M468 0L46 1400H281L586 311L906 1400H1139L1457 312L1762 1400H1990L1570 0H1333L1020 1064L704 0H468Z" />
<glyph unicode="X" horiz-adv-x="1339" d="M53 0L507 718L77 1400H345L668 883L1013 1400H1273L821 712L1286 0H1017L659 551L314 0H53Z" />
<glyph unicode="Y" horiz-adv-x="1239" d="M507 0V605L13 1400H269L624 821L977 1400H1226L732 603V0H507Z" />
<glyph unicode="Z" horiz-adv-x="1167" d="M91 0V187L808 1195H114V1400H1078V1214L364 206H1084V0H91Z" />
<glyph unicode="[" horiz-adv-x="691" d="M196 -220V1600H582V1440H377V-60H582V-220H196Z" />
<glyph unicode="\" horiz-adv-x="913" d="M729 -230L1 1538L185 1610L912 -158L729 -230Z" />
<glyph unicode="]" horiz-adv-x="691" d="M495 -220H109V-60H314V1440H109V1600H495V-220Z" />
<glyph unicode="^" horiz-adv-x="1296" d="M186 825L540 1400H756L1110 825H906L648 1244L390 825H186Z" />
<glyph unicode="_" horiz-adv-x="1090" d="M26 -329V-153H1064V-329H26Z" />
<glyph unicode="`" horiz-adv-x="1000" d="M363 1170L156 1519H386L571 1170H363Z" />
<glyph unicode="a" horiz-adv-x="1104" d="M428 -30Q325 -30 247 8T126 117T82 284Q82 365 123 430T250 539T473 596T800 592L804 440Q668 459 570 456T410 432T318 375T288 293Q288 221 339 182T481 143Q558 143 619 171T715 250T751 370V633Q751 699 723 747T638
823T496 850Q418 850 342 827T197 753L135 915Q228 978 329 1004T523 1030Q661 1030 759 987T911 856T964 635V0H766V117Q716 46 627 8T428 -30Z" />
<glyph unicode="b" horiz-adv-x="1293" d="M729 -30Q630 -30 551 -1T413 79T319 198L351 247V0H153V1440H372V762L327 811Q393 907 492 963T726 1020Q874 1020 986 950T1162 760T1225 495Q1225 382 1189 286T1086 120T929 10T729 -30ZM689 165Q780 165 851 205T964
320T1005 495Q1005 596 965 670T853 785T689 825Q597 825 526 785T413 671T372 495Q372 394 413 320T525 206T689 165Z" />
<glyph unicode="c" horiz-adv-x="1031" d="M607 -30Q451 -30 329 38T138 225T68 495Q68 609 109 704T225 871T401 981T622 1020Q722 1020 807 994T965 912L859 744Q813 785 754 805T627 825Q523 825 448 786T332 674T290 496Q290 341 380 253T627 165Q701 165
767 192T877 265L982 98Q903 38 806 4T607 -30Z" />
<glyph unicode="d" horiz-adv-x="1293" d="M564 -30Q419 -30 307 38T132 225T68 495Q68 604 104 699T206 867T364 979T567 1020Q702 1020 801 966T966 816L920 767V1440H1140V0H942V238L974 188Q920 94 820 32T564 -30ZM604 165Q696 165 767 205T880 320T921 495Q921
596 880 670T768 785T604 825Q512 825 441 785T329 671T288 495Q288 394 329 320T441 206T604 165Z" />
<glyph unicode="e" horiz-adv-x="1145" d="M605 -30Q445 -30 324 35T136 219T68 493Q68 607 107 703T217 871T383 981T592 1020Q715 1020 811 977T970 855T1060 673T1069 446H279Q277 357 318 291T435 187T616 150Q700 150 778 175T921 251L1006 93Q958 54 890
27T748 -15T605 -30ZM292 608H853Q850 720 782 784T587 848Q465 848 385 784T292 608Z" />
<glyph unicode="f" horiz-adv-x="776" d="M250 0V1152Q250 1300 335 1385T572 1470Q627 1470 672 1459T757 1426L716 1252Q687 1268 660 1274T607 1280Q546 1280 508 1249T469 1143V990H729V808H469V0H250ZM51 808V990H279V808H51Z" />
<glyph unicode="g" horiz-adv-x="1197" d="M543 -450Q432 -450 343 -431T192 -374T96 -285T63 -169Q63 -118 90 -73T172 4T306 53Q247 83 219 121T190 208Q190 250 214 287T284 354T392 403T529 425L577 329Q515 330 472 320T405 291T381 246Q381 212 420 197T530
175L700 162Q825 152 913 121T1049 34T1097 -108Q1097 -181 1058 -243T945 -352T769 -424T543 -450ZM565 -298Q714 -298 799 -254T885 -138Q885 -84 828 -54T654 -16L472 -2Q408 -7 362 -26T291 -75T267 -143Q267 -189 303 -224T406 -278T565 -298ZM558 314Q434
314 336 361T180 488T123 667Q123 766 180 846T336 973T558 1020Q681 1020 779 973T934 846T992 667Q992 569 935 489T780 362T558 314ZM558 479Q626 479 679 502T762 568T792 667Q792 751 727 803T558 856Q489 856 437 832T354 766T324 667Q324 584 389 532T558
479ZM712 816L630 969L1161 990L1159 808L712 816Z" />
<glyph unicode="h" horiz-adv-x="1231" d="M153 0V1440H373V788L328 837Q394 929 487 974T683 1020Q818 1020 908 966T1043 825T1088 646V0H868V583Q868 687 803 752T626 818Q552 818 495 786T406 694T373 557V0H153Z" />
<glyph unicode="i" horiz-adv-x="526" d="M153 0V990H373V0H153ZM263 1167Q204 1167 161 1205T118 1305Q118 1366 161 1404T263 1443Q322 1443 365 1405T408 1305Q408 1243 365 1205T263 1167Z" />
<glyph unicode="j" horiz-adv-x="526" d="M76 -450Q11 -450 -38 -438T-129 -403L-78 -234Q-53 -246 -28 -253T32 -261Q98 -261 125 -224T153 -114V990H373V-135Q373 -231 337 -301T233 -411T76 -450ZM263 1167Q204 1167 161 1205T118 1305Q118 1366 161 1404T263
1443Q322 1443 365 1405T408 1305Q408 1243 365 1205T263 1167Z" />
<glyph unicode="k" horiz-adv-x="1116" d="M153 0V1440H373V588L763 990H1023L673 611L1074 0H811L513 468L373 326V0H153Z" />
<glyph unicode="l" horiz-adv-x="526" d="M153 0V1440H373V0H153Z" />
<glyph unicode="m" horiz-adv-x="1894" d="M153 0V990H373V854Q413 912 465 948T575 1002T693 1020Q814 1020 894 967T1008 831Q1082 939 1180 979T1377 1020Q1514 1020 1596 966T1714 827T1751 652V0H1531V588Q1531 691 1475 754T1310 818Q1239 818 1183 787T1095
702T1062 576V0H842V588Q842 691 786 754T621 818Q551 818 495 787T406 702T373 576V0H153Z" />
<glyph unicode="n" horiz-adv-x="1231" d="M153 0V990H373V864Q435 947 517 983T687 1020Q823 1020 912 966T1044 827T1088 652V0H868V584Q868 690 805 754T628 818Q554 818 497 785T406 694T373 557V0H153Z" />
<glyph unicode="o" horiz-adv-x="1209" d="M604 -30Q449 -30 328 41T137 232T68 495Q68 601 107 695T219 863T390 978T605 1020Q760 1020 881 949T1072 758T1141 495Q1141 390 1102 295T990 127T820 12T604 -30ZM604 165Q696 165 767 205T880 320T921 495Q921
596 880 670T768 785T604 825Q512 825 441 785T329 671T288 495Q288 394 329 320T441 206T604 165Z" />
<glyph unicode="p" horiz-adv-x="1293" d="M153 -420V990H351V851Q410 926 502 973T729 1020Q874 1020 986 952T1162 765T1225 495Q1225 386 1189 291T1087 123T929 11T726 -30Q610 -30 522 12T372 125V-420H153ZM689 165Q781 165 852 205T964 320T1005 495Q1005
596 964 670T852 785T689 825Q597 825 526 785T413 671T372 495Q372 394 413 320T525 206T689 165Z" />
<glyph unicode="q" horiz-adv-x="1293" d="M921 -420V223L966 174Q900 79 801 25T567 -30Q420 -30 307 40T131 230T68 495Q68 608 104 704T207 871T364 981T564 1020Q667 1020 746 992T881 915T974 802L942 752V990H1140V-420H921ZM604 165Q696 165 767 205T880
320T921 495Q921 596 880 670T768 785T604 825Q513 825 442 785T329 671T288 495Q288 394 329 320T441 206T604 165Z" />
<glyph unicode="r" horiz-adv-x="821" d="M153 0V990H373V853Q429 946 509 983T681 1021Q711 1021 738 1018T790 1009L761 782Q731 791 700 796T638 801Q523 801 448 731T373 539V0H153Z" />
<glyph unicode="s" horiz-adv-x="988" d="M487 -29Q364 -29 257 6T77 100L160 261Q229 207 315 176T486 145Q583 145 637 179T691 274Q691 332 645 359T468 417Q281 456 197 527T112 726Q112 815 161 883T298 991T499 1030Q610 1030 708 999T878 910L800 748Q763
781 714 805T611 842T502 856Q418 856 366 824T313 734Q313 675 363 647T535 591Q727 549 810 479T893 285Q893 190 842 120T700 10T487 -29Z" />
<glyph unicode="t" horiz-adv-x="859" d="M569 -30Q424 -30 337 54T250 311V1279H470V990H745V808H470V359Q470 255 509 213T621 170Q656 170 687 178T743 199L782 21Q739 -1 684 -15T569 -30ZM33 808V990H279V808H33Z" />
<glyph unicode="u" horiz-adv-x="1209" d="M535 -30Q402 -30 316 23T186 165T143 357V990H363V398Q363 296 423 235T591 173Q661 173 716 204T803 293T836 425V990H1056V0H858V117Q800 47 721 9T535 -30Z" />
<glyph unicode="v" horiz-adv-x="1043" d="M399 0L29 990H270L544 189H511L780 990H1014L651 0H399Z" />
<glyph unicode="w" horiz-adv-x="1578" d="M340 0L29 990H248L460 254L692 990H907L1124 254L1340 990H1549L1238 0H1011L793 711L567 0H340Z" />
<glyph unicode="x" horiz-adv-x="1072" d="M30 -1L388 497L51 990H328L539 655L743 990H1013L686 503L1041 0H759L531 348L300 2L30 -1Z" />
<glyph unicode="y" horiz-adv-x="1064" d="M238 -448Q184 -448 132 -436T30 -395L80 -207Q111 -227 148 -237T214 -247Q284 -247 324 -214T387 -112L420 -16L30 990H271L545 222L812 990H1045L617 -143Q571 -262 514 -328T388 -421T238 -448Z" />
<glyph unicode="z" horiz-adv-x="975" d="M91 0V158L605 794H102V990H876V833L374 196H884V0H91Z" />
<glyph unicode="{" horiz-adv-x="691" d="M582 -225Q382 -248 291 -172T225 69L280 462Q289 522 279 554T228 599T109 612V772Q188 772 228 784T278 828T280 921L226 1308Q201 1474 292 1551T582 1605V1445Q480 1454 442 1423T415 1315L467 927Q483 823 449 766T327
692V690Q417 673 450 616T469 455L415 65Q404 -10 441 -41T582 -65V-225Z" />
<glyph unicode="|" horiz-adv-x="583" d="M200 -220V1600H383V-220H200Z" />
<glyph unicode="}" horiz-adv-x="691" d="M109 -225V-65Q212 -73 249 -42T276 65L222 455Q207 558 241 615T364 690V692Q277 708 243 765T224 927L276 1315Q286 1391 249 1422T109 1445V1605Q308 1628 399 1551T465 1308L411 921Q402 861 412 829T463 784T582
772V612Q503 612 463 600T413 555T411 462L466 69Q491 -95 401 -171T109 -225Z" />
<glyph unicode="~" horiz-adv-x="1296" d="M876 510Q816 510 755 532T634 584T521 635T425 658Q367 658 312 623T214 525L126 649Q187 736 262 778T420 820Q481 820 543 798T664 746T775 695T872 672Q929 672 984 707T1083 810L1169 680Q1108 593 1032 552T876 510Z" />
<glyph unicode="&#xa0;" horiz-adv-x="490" />
<glyph unicode="&#xa1;" horiz-adv-x="670" d="M199 -404L234 520H424L459 -404H199ZM329 729Q265 729 219 770T172 878Q172 923 193 956T250 1007T329 1026Q394 1026 439 986T485 878Q485 833 464 800T408 748T329 729Z" />
<glyph unicode="&#xa2;" horiz-adv-x="1296" d="M623 -160V7Q498 24 403 90T254 261T200 495Q200 625 254 727T404 896T623 982V1150H783V986Q859 981 927 956T1052 887L957 746Q920 772 875 787T780 806V186Q839 192 889 213T976 263L1059 114Q999 67 931 40T783
5V-160H623ZM625 191V801Q548 792 493 753T408 648T378 496Q378 365 444 286T625 191Z" />
<glyph unicode="&#xa3;" horiz-adv-x="1296" d="M171 0V172Q263 197 323 232T412 321T442 455Q442 515 420 586T368 733T317 887T294 1036Q294 1153 354 1241T519 1380T760 1430Q837 1430 910 1411T1045 1360T1149 1289L1060 1141Q990 1200 916 1225T761 1251Q631
1251 569 1183T506 1013Q506 951 524 880T567 734T609 586T628 450Q628 381 600 311T487 177H1182V0H171ZM150 609V765H1017V609H150Z" />
<glyph unicode="&#xa4;" horiz-adv-x="1296" d="M270 122L148 243L300 395Q265 446 248 504T231 620Q231 681 248 739T300 847L148 999L270 1121L422 968Q474 1005 531 1021T648 1038Q709 1038 766 1021T874 968L1026 1121L1149 999L996 847Q1031 798 1049 740T1067
620Q1067 561 1049 503T996 395L1149 243L1026 122L874 275Q822 239 765 222T648 205Q586 205 530 222T422 275L270 122ZM648 375Q720 375 776 407T863 494T895 620Q895 692 863 748T775 835T648 867Q578 867 522 836T434 748T401 620Q401 550 433 495T521 407T648
375Z" />
<glyph unicode="&#xa5;" horiz-adv-x="1296" d="M541 0V291H161V438H541V610H161V758H461L59 1400H290L646 805L1015 1400H1238L831 758H1130V610H749V438H1130V291H749V0H541Z" />
<glyph unicode="&#xa6;" horiz-adv-x="583" d="M200 810V1480H383V810H200ZM200 -100V570H383V-100H200Z" />
<glyph unicode="&#xa7;" horiz-adv-x="1257" d="M611 -450Q473 -450 351 -405T153 -294L243 -128Q317 -196 418 -232T618 -269Q740 -269 814 -220T888 -85Q888 -31 863 4T775 67T604 124Q449 162 350 212T203 334T154 508Q154 586 191 651T295 763T450 836T639
860L633 727Q555 728 490 703T387 631T348 519Q348 421 432 372T673 285Q882 237 980 155T1079 -80Q1079 -193 1020 -276T855 -404T611 -450ZM643 126V257Q727 257 794 285T901 366T941 494Q941 552 909 589T805 655T615 712Q404 764 310 847T216 1076Q216 1178
273 1258T429 1384T658 1430Q784 1430 896 1392T1092 1282L1008 1113Q961 1157 902 1187T777 1234T647 1251Q537 1251 470 1204T402 1079Q402 1019 432 983T527 922T694 872Q914 821 1028 739T1142 509Q1142 393 1076 307T898 174T643 126Z" />
<glyph unicode="&#xa8;" horiz-adv-x="1000" d="M284 1165Q229 1165 188 1203T146 1300Q146 1340 165 1371T215 1419T284 1436Q338 1436 379 1398T421 1300Q421 1260 402 1230T352 1182T284 1165ZM717 1165Q662 1165 621 1203T579 1300Q579 1340 598 1371T648
1419T717 1436Q771 1436 812 1398T854 1300Q854 1260 835 1230T785 1182T717 1165Z" />
<glyph unicode="&#xa9;" horiz-adv-x="1676" d="M838 -37Q680 -37 546 18T312 173T156 406T100 693Q100 849 155 982T311 1214T546 1368T838 1423Q995 1423 1129 1367T1363 1211T1520 979T1576 693Q1576 538 1520 405T1364 173T1129 19T838 -37ZM838 77Q961 77
1071 120T1267 245T1402 440T1451 693Q1451 833 1402 946T1267 1140T1071 1265T838 1309Q715 1309 605 1266T410 1141T275 946T226 693Q226 554 274 441T408 246T604 121T838 77ZM862 285Q736 285 641 335T493 477T440 693Q440 811 494 903T644 1048T863 1101Q957
1101 1025 1079T1145 1014L1072 898Q1035 932 985 948T873 965Q742 965 665 892T587 693Q587 566 665 494T879 421Q936 421 993 438T1102 495L1166 376Q1108 333 1033 309T862 285Z" />
<glyph unicode="&#xaa;" horiz-adv-x="801" d="M316 702V702Q215 702 149 758T83 910Q83 981 133 1032T289 1106T563 1113L565 1004Q455 1020 381 1014T269 982T232 916Q232 873 266 849T358 825Q431 825 480 863T529 965V1132Q529 1192 490 1230T359 1268Q307
1268 257 1252T163 1205L120 1318Q181 1360 249 1378T385 1397Q529 1397 607 1332T686 1134V722H542V797Q508 750 448 726T316 702Z" />
<glyph unicode="&#xab;" horiz-adv-x="1059" d="M805 91L486 509L805 928L948 831L701 509L947 189L805 91ZM372 91L53 509L372 928L515 831L268 509L514 189L372 91Z" />
<glyph unicode="&#xac;" horiz-adv-x="1296" d="M989 395V777H138V938H1158V395H989Z" />
<glyph unicode="&#xad;" horiz-adv-x="0" />
<glyph unicode="&#xae;" horiz-adv-x="1222" d="M611 475Q462 475 344 542T156 725T87 986Q87 1131 156 1247T343 1430T611 1497Q759 1497 877 1429T1065 1244T1135 986Q1135 841 1066 726T878 543T611 475ZM611 552Q728 552 827 606T987 758T1048 986Q1048 1116
988 1213T828 1365T611 1419Q494 1419 395 1365T235 1214T174 986Q174 856 234 759T394 607T611 552ZM424 711V1260H643Q732 1260 786 1216T841 1096Q841 1036 801 997T697 945L869 711H753L596 928H520V711H424ZM520 1008H627Q682 1008 712 1030T742 1092Q742
1133 715 1156T634 1180H520V1008Z" />
<glyph unicode="&#xaf;" horiz-adv-x="1000" d="M175 1230V1382H826V1230H175Z" />
<glyph unicode="&#xb0;" horiz-adv-x="913" d="M457 671Q351 671 264 721T126 857T74 1047Q74 1150 125 1235T264 1370T457 1420Q564 1420 650 1370T787 1235T839 1047Q839 943 788 858T650 722T457 671ZM457 823Q524 823 574 851T652 930T680 1047Q680 1146 619
1207T457 1268Q391 1268 341 1240T262 1162T233 1047Q233 948 295 886T457 823Z" />
<glyph unicode="&#xb1;" horiz-adv-x="1296" d="M564 349V756H138V917H564V1324H732V917H1158V756H732V349H564ZM138 61V222H1158V61H138Z" />
<glyph unicode="&#xb2;" horiz-adv-x="832" d="M97 722V836L300 1014Q392 1096 450 1155T536 1263T563 1362Q563 1433 512 1472T370 1512Q309 1512 252 1491T154 1427L95 1546Q154 1598 230 1625T389 1652Q536 1652 625 1577T715 1379Q715 1316 688 1257T602 1131T443
977L310 859H739V722H97Z" />
<glyph unicode="&#xb3;" horiz-adv-x="820" d="M374 702Q282 702 200 730T74 798L127 929Q170 890 234 867T363 844Q453 844 508 887T563 1000Q563 1074 507 1114T359 1155Q335 1155 307 1152T248 1141L201 1247L486 1496H83V1632H678V1508L408 1256Q489 1256
560 1227T675 1138T719 990Q719 905 675 840T553 739T374 702Z" />
<glyph unicode="&#xb4;" horiz-adv-x="1000" d="M312 1170L500 1519H723L514 1170H312Z" />
<glyph unicode="&#xb5;" horiz-adv-x="1235" d="M153 -420V990H373V425Q373 350 405 293T493 205T618 173Q687 173 742 204T830 293T862 425V990H1082V0H885V117Q832 47 760 9T598 -30Q515 -30 451 -5T342 73L364 -420H153Z" />
<glyph unicode="&#xb6;" horiz-adv-x="1287" d="M514 -420V648L548 607Q402 607 295 657T129 796T70 1003Q70 1121 128 1210T294 1349T548 1400H1233V1257H1018V-420H855V1257H677V-420H514Z" />
<glyph unicode="&#xb7;" horiz-adv-x="538" d="M269 528Q205 528 159 569T112 676Q112 721 133 754T190 806T269 825Q334 825 379 785T425 676Q425 632 404 599T348 547T269 528Z" />
<glyph unicode="&#xb8;" horiz-adv-x="1000" d="M479 -450Q410 -450 351 -433T246 -386L295 -270Q320 -296 373 -310T472 -325Q514 -325 548 -310T582 -259Q582 -220 533 -205T425 -198L376 -110L431 40H559L523 -78Q625 -86 688 -130T752 -257Q752 -326 709 -369T602
-431T479 -450Z" />
<glyph unicode="&#xb9;" horiz-adv-x="635" d="M324 722V1458L87 1376L44 1502L463 1652H475V722H324Z" />
<glyph unicode="&#xba;" horiz-adv-x="854" d="M426 702Q321 702 239 749T110 874T63 1046Q63 1138 110 1216T239 1343T426 1391Q532 1391 614 1344T744 1218T791 1046Q791 955 744 876T615 750T426 702ZM426 844Q485 844 530 868T602 938T629 1046Q629 1139 572
1194T426 1249Q367 1249 322 1224T250 1154T224 1046Q224 953 281 899T426 844Z" />
<glyph unicode="&#xbb;" horiz-adv-x="1059" d="M688 91L545 189L791 510L545 831L688 928L1007 510L688 91ZM255 91L112 189L358 510L112 831L255 928L574 510L255 91Z" />
<glyph unicode="&#xbc;" horiz-adv-x="1830" d="M324 490V1226L87 1144L44 1270L463 1420H475V490H324ZM1490 0V183H1027V304L1356 910H1521L1198 317H1490V513H1630V317H1771V183H1630V0H1490ZM503 -34L381 39L1161 1434L1284 1366L503 -34Z" />
<glyph unicode="&#xbd;" horiz-adv-x="1861" d="M324 490V1226L87 1144L44 1270L463 1420H475V490H324ZM1126 0V114L1329 292Q1422 374 1480 433T1565 541T1592 640Q1592 711 1541 750T1400 790Q1340 790 1283 769T1184 705L1125 824Q1183 876 1259 903T1418 930Q1565
930 1655 855T1745 657Q1745 594 1718 535T1631 409T1473 255L1340 137H1768V0H1126ZM503 -34L381 39L1161 1434L1284 1366L503 -34Z" />
<glyph unicode="&#xbe;" horiz-adv-x="2015" d="M374 470Q282 470 200 498T74 566L127 697Q170 658 234 635T363 612Q453 612 508 655T563 768Q563 842 507 882T359 923Q335 923 307 920T248 909L201 1015L486 1264H83V1400H678V1276L408 1024Q489 1024 560 995T675
906T719 758Q719 673 675 608T553 507T374 470ZM1675 0V183H1212V304L1541 910H1706L1383 317H1675V513H1815V317H1956V183H1815V0H1675ZM688 -34L566 39L1346 1434L1469 1366L688 -34Z" />
<glyph unicode="&#xbf;" horiz-adv-x="977" d="M537 -434Q409 -434 308 -393T149 -274T90 -88Q90 -28 111 26T185 133T327 246Q391 287 421 325T455 418T445 564H653Q679 452 672 382T625 263T511 165Q410 99 375 54T340 -48Q340 -137 403 -181T580 -226Q663 -226
728 -203T849 -140L907 -323Q874 -352 819 -377T692 -418T537 -434ZM540 729Q476 729 430 770T383 878Q383 923 404 956T461 1007T540 1026Q605 1026 650 986T696 878Q696 833 675 800T619 748T540 729Z" />
<glyph unicode="&#xc0;" horiz-adv-x="1387" d="M21 0L565 1400H808L1366 0H1113L984 334H391L267 0H21ZM449 527H924L682 1137L449 527ZM601 1562L387 1889H624L816 1562H601Z" />
<glyph unicode="&#xc1;" horiz-adv-x="1387" d="M21 0L565 1400H808L1366 0H1113L984 334H391L267 0H21ZM449 527H924L682 1137L449 527ZM568 1562L763 1889H993L777 1562H568Z" />
<glyph unicode="&#xc2;" horiz-adv-x="1387" d="M21 0L565 1400H808L1366 0H1113L984 334H391L267 0H21ZM449 527H924L682 1137L449 527ZM298 1562L586 1889H798L1076 1562H855L688 1758L516 1562H298Z" />
<glyph unicode="&#xc3;" horiz-adv-x="1387" d="M21 0L565 1400H808L1366 0H1113L984 334H391L267 0H21ZM449 527H924L682 1137L449 527ZM392 1573L288 1664Q326 1755 387 1806T529 1858Q592 1858 646 1833T750 1783T848 1758Q893 1758 926 1788T982 1877L1085
1785Q1057 1693 995 1644T852 1595Q789 1595 733 1619T627 1668T528 1693Q484 1693 450 1664T392 1573Z" />
<glyph unicode="&#xc4;" horiz-adv-x="1387" d="M21 0L565 1400H808L1366 0H1113L984 334H391L267 0H21ZM449 527H924L682 1137L449 527ZM464 1557Q407 1557 364 1595T321 1693Q321 1732 341 1762T393 1810T464 1827Q519 1827 562 1790T605 1693Q605 1653 586
1623T534 1575T464 1557ZM910 1557Q854 1557 811 1595T768 1693Q768 1732 787 1762T839 1809T910 1827Q966 1827 1009 1790T1052 1693Q1052 1653 1032 1623T980 1575T910 1557Z" />
<glyph unicode="&#xc5;" horiz-adv-x="1387" d="M21 0L565 1400H808L1366 0H1113L984 334H391L267 0H21ZM449 527H924L682 1137L449 527ZM686 1467Q604 1467 536 1504T427 1606T386 1752Q386 1832 426 1896T535 1998T686 2036Q769 2036 836 1999T945 1897T986
1752Q986 1671 945 1607T837 1505T686 1467ZM686 1604Q753 1604 796 1645T839 1752Q839 1816 796 1858T686 1900Q620 1900 577 1858T533 1752Q533 1687 576 1646T686 1604Z" />
<glyph unicode="&#xc6;" horiz-adv-x="1779" d="M-45 0L627 1400H1639V1202H998V824H1566V636H998V200H1647V0H774V331H349L194 0H-45ZM426 515H774V1238L426 515Z" />
<glyph unicode="&#xc7;" horiz-adv-x="1395" d="M820 -30Q602 -30 439 60T186 314T95 699Q95 859 148 992T299 1224T530 1376T822 1430Q982 1430 1098 1390T1302 1276L1186 1093Q1120 1154 1032 1184T838 1214Q721 1214 627 1178T467 1076T365 915T329 701Q329
539 392 424T572 249T848 188Q954 188 1052 219T1237 322L1341 133Q1240 54 1111 12T820 -30ZM760 -450Q691 -450 632 -433T527 -386L576 -270Q601 -296 654 -310T753 -325Q795 -325 829 -310T863 -259Q863 -220 814 -205T706 -198L657 -110L712 40H840L804 -78Q906
-86 969 -130T1033 -257Q1033 -326 990 -369T883 -431T760 -450Z" />
<glyph unicode="&#xc8;" horiz-adv-x="1225" d="M182 0V1400H1087V1202H406V824H994V637H406V200H1093V0H182ZM541 1562L327 1889H564L756 1562H541Z" />
<glyph unicode="&#xc9;" horiz-adv-x="1225" d="M182 0V1400H1087V1202H406V824H994V637H406V200H1093V0H182ZM508 1562L703 1889H933L717 1562H508Z" />
<glyph unicode="&#xca;" horiz-adv-x="1225" d="M182 0V1400H1087V1202H406V824H994V637H406V200H1093V0H182ZM238 1562L526 1889H738L1016 1562H795L628 1758L456 1562H238Z" />
<glyph unicode="&#xcb;" horiz-adv-x="1225" d="M182 0V1400H1087V1202H406V824H994V637H406V200H1093V0H182ZM404 1557Q347 1557 304 1595T261 1693Q261 1732 281 1762T333 1810T404 1827Q459 1827 502 1790T545 1693Q545 1653 526 1623T474 1575T404 1557ZM850
1557Q794 1557 751 1595T708 1693Q708 1732 727 1762T779 1809T850 1827Q906 1827 949 1790T992 1693Q992 1653 972 1623T920 1575T850 1557Z" />
<glyph unicode="&#xcc;" horiz-adv-x="589" d="M182 0V1400H406V0H182ZM465 1562L251 1889H488L680 1562H465Z" />
<glyph unicode="&#xcd;" horiz-adv-x="589" d="M182 0V1400H406V0H182ZM181 1580L347 1929H570L381 1580H181Z" />
<glyph unicode="&#xce;" horiz-adv-x="589" d="M182 0V1400H406V0H182ZM-44 1580L199 1929H398L635 1580H422L294 1799L163 1580H-44Z" />
<glyph unicode="&#xcf;" horiz-adv-x="589" d="M182 0V1400H406V0H182ZM125 1575Q69 1575 31 1613T-7 1710Q-7 1770 31 1808T125 1846Q179 1846 217 1808T255 1710Q255 1651 217 1613T125 1575ZM464 1575Q409 1575 371 1613T333 1710Q333 1770 371 1808T464 1846Q519
1846 557 1808T595 1710Q595 1651 557 1613T464 1575Z" />
<glyph unicode="&#xd0;" horiz-adv-x="1465" d="M31 646V816H878V646H31ZM222 0V1400H660Q869 1400 1029 1311T1279 1063T1370 699Q1370 546 1319 418T1172 196T947 52T660 0H222ZM446 209H633Q746 209 838 242T997 340T1100 494T1136 699Q1136 852 1074 962T898
1132T633 1192H446V209Z" />
<glyph unicode="&#xd1;" horiz-adv-x="1504" d="M182 0V1400H396L1103 383V1400H1321V0H1107L401 1029V0H182ZM458 1573L354 1664Q392 1755 453 1806T595 1858Q658 1858 712 1833T816 1783T914 1758Q959 1758 992 1788T1048 1877L1151 1785Q1123 1693 1061 1644T918
1595Q855 1595 799 1619T693 1668T594 1693Q550 1693 516 1664T458 1573Z" />
<glyph unicode="&#xd2;" horiz-adv-x="1663" d="M832 -30Q674 -30 540 25T306 180T151 412T95 700Q95 856 150 989T305 1221T539 1375T832 1430Q989 1430 1123 1374T1357 1218T1512 986T1568 700Q1568 545 1513 412T1357 180T1123 26T832 -30ZM832 182Q938 182
1029 218T1189 323T1295 487T1334 700Q1334 857 1268 973T1087 1154T832 1218Q726 1218 635 1182T475 1077T368 914T329 700Q329 543 396 427T576 246T832 182ZM746 1562L532 1889H769L961 1562H746Z" />
<glyph unicode="&#xd3;" horiz-adv-x="1663" d="M832 -30Q674 -30 540 25T306 180T151 412T95 700Q95 856 150 989T305 1221T539 1375T832 1430Q989 1430 1123 1374T1357 1218T1512 986T1568 700Q1568 545 1513 412T1357 180T1123 26T832 -30ZM832 182Q938 182
1029 218T1189 323T1295 487T1334 700Q1334 857 1268 973T1087 1154T832 1218Q726 1218 635 1182T475 1077T368 914T329 700Q329 543 396 427T576 246T832 182ZM713 1562L908 1889H1138L922 1562H713Z" />
<glyph unicode="&#xd4;" horiz-adv-x="1663" d="M832 -30Q674 -30 540 25T306 180T151 412T95 700Q95 856 150 989T305 1221T539 1375T832 1430Q989 1430 1123 1374T1357 1218T1512 986T1568 700Q1568 545 1513 412T1357 180T1123 26T832 -30ZM832 182Q938 182
1029 218T1189 323T1295 487T1334 700Q1334 857 1268 973T1087 1154T832 1218Q726 1218 635 1182T475 1077T368 914T329 700Q329 543 396 427T576 246T832 182ZM443 1562L731 1889H943L1221 1562H1000L833 1758L661 1562H443Z" />
<glyph unicode="&#xd5;" horiz-adv-x="1663" d="M832 -30Q674 -30 540 25T306 180T151 412T95 700Q95 856 150 989T305 1221T539 1375T832 1430Q989 1430 1123 1374T1357 1218T1512 986T1568 700Q1568 545 1513 412T1357 180T1123 26T832 -30ZM832 182Q938 182
1029 218T1189 323T1295 487T1334 700Q1334 857 1268 973T1087 1154T832 1218Q726 1218 635 1182T475 1077T368 914T329 700Q329 543 396 427T576 246T832 182ZM537 1573L433 1664Q471 1755 532 1806T674 1858Q737 1858 791 1833T895 1783T993 1758Q1038 1758 1071
1788T1127 1877L1230 1785Q1202 1693 1140 1644T997 1595Q934 1595 878 1619T772 1668T673 1693Q629 1693 595 1664T537 1573Z" />
<glyph unicode="&#xd6;" horiz-adv-x="1663" d="M832 -30Q674 -30 540 25T306 180T151 412T95 700Q95 856 150 989T305 1221T539 1375T832 1430Q989 1430 1123 1374T1357 1218T1512 986T1568 700Q1568 545 1513 412T1357 180T1123 26T832 -30ZM832 182Q938 182
1029 218T1189 323T1295 487T1334 700Q1334 857 1268 973T1087 1154T832 1218Q726 1218 635 1182T475 1077T368 914T329 700Q329 543 396 427T576 246T832 182ZM609 1557Q552 1557 509 1595T466 1693Q466 1732 486 1762T538 1810T609 1827Q664 1827 707 1790T750
1693Q750 1653 731 1623T679 1575T609 1557ZM1055 1557Q999 1557 956 1595T913 1693Q913 1732 932 1762T984 1809T1055 1827Q1111 1827 1154 1790T1197 1693Q1197 1653 1177 1623T1125 1575T1055 1557Z" />
<glyph unicode="&#xd7;" horiz-adv-x="1296" d="M312 218L201 329L538 666L201 1002L312 1114L648 776L985 1114L1095 1001L759 665L1095 328L985 218L648 554L312 218Z" />
<glyph unicode="&#xd8;" horiz-adv-x="1663" d="M299 -78L161 45L287 198Q197 295 146 423T95 700Q95 856 151 989T306 1221T540 1375T832 1430Q942 1430 1040 1401T1219 1319L1355 1484L1493 1362L1367 1210Q1462 1112 1515 981T1568 700Q1568 545 1512 412T1356
180T1122 26T832 -30Q720 -30 619 0T433 84L299 -78ZM440 377L1083 1152Q1030 1187 966 1205T832 1224Q725 1224 633 1187T472 1081T364 916T325 700Q325 602 356 520T440 377ZM832 177Q939 177 1031 214T1192 320T1299 485T1338 700Q1338 802 1307 888T1220 1038L566
252Q623 216 690 197T832 177Z" />
<glyph unicode="&#xd9;" horiz-adv-x="1479" d="M739 -30Q552 -30 427 46T238 252T174 546V1400H398V548Q398 363 490 273T739 182Q896 182 988 272T1080 548V1400H1305V546Q1305 384 1242 254T1053 47T739 -30ZM654 1562L440 1889H677L869 1562H654Z" />
<glyph unicode="&#xda;" horiz-adv-x="1479" d="M739 -30Q552 -30 427 46T238 252T174 546V1400H398V548Q398 363 490 273T739 182Q896 182 988 272T1080 548V1400H1305V546Q1305 384 1242 254T1053 47T739 -30ZM621 1562L816 1889H1046L830 1562H621Z" />
<glyph unicode="&#xdb;" horiz-adv-x="1479" d="M739 -30Q552 -30 427 46T238 252T174 546V1400H398V548Q398 363 490 273T739 182Q896 182 988 272T1080 548V1400H1305V546Q1305 384 1242 254T1053 47T739 -30ZM351 1562L639 1889H851L1129 1562H908L741 1758L569
1562H351Z" />
<glyph unicode="&#xdc;" horiz-adv-x="1479" d="M739 -30Q552 -30 427 46T238 252T174 546V1400H398V548Q398 363 490 273T739 182Q896 182 988 272T1080 548V1400H1305V546Q1305 384 1242 254T1053 47T739 -30ZM517 1557Q460 1557 417 1595T374 1693Q374 1732
394 1762T446 1810T517 1827Q572 1827 615 1790T658 1693Q658 1653 639 1623T587 1575T517 1557ZM963 1557Q907 1557 864 1595T821 1693Q821 1732 840 1762T892 1809T963 1827Q1019 1827 1062 1790T1105 1693Q1105 1653 1085 1623T1033 1575T963 1557Z" />
<glyph unicode="&#xdd;" horiz-adv-x="1239" d="M507 0V605L13 1400H269L624 821L977 1400H1226L732 603V0H507ZM500 1562L695 1889H925L709 1562H500Z" />
<glyph unicode="&#xde;" horiz-adv-x="1284" d="M182 0V1400H406V1150H708Q858 1150 972 1099T1151 951T1216 719Q1216 580 1156 485T982 340T703 290H406V0H182ZM406 483H706Q842 483 917 540T992 714Q992 830 916 892T708 954H406V483Z" />
<glyph unicode="&#xdf;" horiz-adv-x="1266" d="M788 -29Q745 -29 680 -20T532 27L592 196Q642 168 683 158T766 147Q860 147 913 187T967 298Q967 365 923 407T822 488Q781 516 738 550T664 628T634 732Q634 776 652 812T697 880T747 940Q773 970 797 998T837
1056T852 1121Q852 1196 790 1238T629 1280Q504 1280 439 1209T373 1009V0H153V1037Q153 1166 211 1263T377 1415T631 1470Q762 1470 861 1431T1017 1321T1073 1156Q1073 1099 1053 1056T1002 976T943 903Q913 867 886 833T859 758Q859 708 901 673T993 603Q1043
569 1090 529T1168 435T1199 302Q1199 204 1147 129T1001 13T788 -29Z" />
<glyph unicode="&#xe0;" horiz-adv-x="1104" d="M428 -30Q325 -30 247 8T126 117T82 284Q82 365 123 430T250 539T473 596T800 592L804 440Q668 459 570 456T410 432T318 375T288 293Q288 221 339 182T481 143Q558 143 619 171T715 250T751 370V633Q751 699 723
747T638 823T496 850Q418 850 342 827T197 753L135 915Q228 978 329 1004T523 1030Q661 1030 759 987T911 856T964 635V0H766V117Q716 46 627 8T428 -30ZM439 1170L232 1519H462L647 1170H439Z" />
<glyph unicode="&#xe1;" horiz-adv-x="1104" d="M428 -30Q325 -30 247 8T126 117T82 284Q82 365 123 430T250 539T473 596T800 592L804 440Q668 459 570 456T410 432T318 375T288 293Q288 221 339 182T481 143Q558 143 619 171T715 250T751 370V633Q751 699 723
747T638 823T496 850Q418 850 342 827T197 753L135 915Q228 978 329 1004T523 1030Q661 1030 759 987T911 856T964 635V0H766V117Q716 46 627 8T428 -30ZM407 1170L595 1519H818L609 1170H407Z" />
<glyph unicode="&#xe2;" horiz-adv-x="1104" d="M428 -30Q325 -30 247 8T126 117T82 284Q82 365 123 430T250 539T473 596T800 592L804 440Q668 459 570 456T410 432T318 375T288 293Q288 221 339 182T481 143Q558 143 619 171T715 250T751 370V633Q751 699 723
747T638 823T496 850Q418 850 342 827T197 753L135 915Q228 978 329 1004T523 1030Q661 1030 759 987T911 856T964 635V0H766V117Q716 46 627 8T428 -30ZM146 1170L425 1519H630L899 1170H684L524 1389L357 1170H146Z" />
<glyph unicode="&#xe3;" horiz-adv-x="1104" d="M428 -30Q325 -30 247 8T126 117T82 284Q82 365 123 430T250 539T473 596T800 592L804 440Q668 459 570 456T410 432T318 375T288 293Q288 221 339 182T481 143Q558 143 619 171T715 250T751 370V633Q751 699 723
747T638 823T496 850Q418 850 342 827T197 753L135 915Q228 978 329 1004T523 1030Q661 1030 759 987T911 856T964 635V0H766V117Q716 46 627 8T428 -30ZM237 1189L137 1277Q173 1370 232 1424T370 1479Q431 1479 483 1453T584 1399T679 1372Q723 1372 755 1405T809
1501L908 1411Q882 1315 821 1263T683 1211Q622 1211 568 1237T465 1290T370 1317Q325 1317 292 1285T237 1189Z" />
<glyph unicode="&#xe4;" horiz-adv-x="1104" d="M428 -30Q325 -30 247 8T126 117T82 284Q82 365 123 430T250 539T473 596T800 592L804 440Q668 459 570 456T410 432T318 375T288 293Q288 221 339 182T481 143Q558 143 619 171T715 250T751 370V633Q751 699 723
747T638 823T496 850Q418 850 342 827T197 753L135 915Q228 978 329 1004T523 1030Q661 1030 759 987T911 856T964 635V0H766V117Q716 46 627 8T428 -30ZM306 1165Q251 1165 210 1203T168 1300Q168 1340 187 1371T237 1419T306 1436Q360 1436 401 1398T443 1300Q443
1260 424 1230T374 1182T306 1165ZM739 1165Q684 1165 643 1203T601 1300Q601 1340 620 1371T670 1419T739 1436Q793 1436 834 1398T876 1300Q876 1260 857 1230T807 1182T739 1165Z" />
<glyph unicode="&#xe5;" horiz-adv-x="1104" d="M428 -30Q325 -30 247 8T126 117T82 284Q82 365 123 430T250 539T473 596T800 592L804 440Q668 459 570 456T410 432T318 375T288 293Q288 221 339 182T481 143Q558 143 619 171T715 250T751 370V633Q751 699 723
747T638 823T496 850Q418 850 342 827T197 753L135 915Q228 978 329 1004T523 1030Q661 1030 759 987T911 856T964 635V0H766V117Q716 46 627 8T428 -30ZM522 1104Q448 1104 388 1137T291 1226T255 1353Q255 1423 291 1479T387 1570T522 1604Q595 1604 655 1570T751
1480T787 1353Q787 1283 751 1227T655 1137T522 1104ZM522 1226Q579 1226 613 1262T648 1353Q648 1407 614 1444T522 1481Q465 1481 430 1444T394 1353Q394 1299 429 1263T522 1226Z" />
<glyph unicode="&#xe6;" horiz-adv-x="1810" d="M443 -30Q277 -30 180 55T82 284Q82 393 155 471T386 584T797 592L799 441Q619 466 506 452T341 396T288 292Q288 221 339 182T480 143Q556 143 617 171T715 256T751 395L752 636Q752 733 688 789T491 846Q420 846
343 823T197 749L134 912Q227 974 328 1000T523 1026Q688 1026 796 963T943 769L860 785Q934 896 1044 958T1287 1020Q1440 1020 1548 944T1706 738T1735 446H981Q977 313 1064 232T1300 150Q1378 150 1452 175T1589 251L1673 93Q1628 54 1566 27T1434 -15T1294
-30Q1119 -30 986 58T797 311L875 324Q865 219 807 140T654 15T443 -30ZM993 608H1524Q1519 720 1455 784T1274 848Q1157 848 1081 784T993 608Z" />
<glyph unicode="&#xe7;" horiz-adv-x="1031" d="M607 -30Q451 -30 329 38T138 225T68 495Q68 609 109 704T225 871T401 981T622 1020Q722 1020 807 994T965 912L859 744Q813 785 754 805T627 825Q523 825 448 786T332 674T290 496Q290 341 380 253T627 165Q701
165 767 192T877 265L982 98Q903 38 806 4T607 -30ZM547 -450Q478 -450 419 -433T314 -386L363 -270Q388 -296 441 -310T540 -325Q582 -325 616 -310T650 -259Q650 -220 601 -205T493 -198L444 -110L499 40H627L591 -78Q693 -86 756 -130T820 -257Q820 -326 777
-369T670 -431T547 -450Z" />
<glyph unicode="&#xe8;" horiz-adv-x="1145" d="M605 -30Q445 -30 324 35T136 219T68 493Q68 607 107 703T217 871T383 981T592 1020Q715 1020 811 977T970 855T1060 673T1069 446H279Q277 357 318 291T435 187T616 150Q700 150 778 175T921 251L1006 93Q958 54
890 27T748 -15T605 -30ZM292 608H853Q850 720 782 784T587 848Q465 848 385 784T292 608ZM505 1170L298 1519H528L713 1170H505Z" />
<glyph unicode="&#xe9;" horiz-adv-x="1145" d="M605 -30Q445 -30 324 35T136 219T68 493Q68 607 107 703T217 871T383 981T592 1020Q715 1020 811 977T970 855T1060 673T1069 446H279Q277 357 318 291T435 187T616 150Q700 150 778 175T921 251L1006 93Q958 54
890 27T748 -15T605 -30ZM292 608H853Q850 720 782 784T587 848Q465 848 385 784T292 608ZM472 1170L660 1519H883L674 1170H472Z" />
<glyph unicode="&#xea;" horiz-adv-x="1145" d="M605 -30Q445 -30 324 35T136 219T68 493Q68 607 107 703T217 871T383 981T592 1020Q715 1020 811 977T970 855T1060 673T1069 446H279Q277 357 318 291T435 187T616 150Q700 150 778 175T921 251L1006 93Q958 54
890 27T748 -15T605 -30ZM292 608H853Q850 720 782 784T587 848Q465 848 385 784T292 608ZM211 1170L490 1519H695L964 1170H749L589 1389L422 1170H211Z" />
<glyph unicode="&#xeb;" horiz-adv-x="1145" d="M605 -30Q445 -30 324 35T136 219T68 493Q68 607 107 703T217 871T383 981T592 1020Q715 1020 811 977T970 855T1060 673T1069 446H279Q277 357 318 291T435 187T616 150Q700 150 778 175T921 251L1006 93Q958 54
890 27T748 -15T605 -30ZM292 608H853Q850 720 782 784T587 848Q465 848 385 784T292 608ZM371 1165Q316 1165 275 1203T233 1300Q233 1340 252 1371T302 1419T371 1436Q425 1436 466 1398T508 1300Q508 1260 489 1230T439 1182T371 1165ZM804 1165Q749 1165 708
1203T666 1300Q666 1340 685 1371T735 1419T804 1436Q858 1436 899 1398T941 1300Q941 1260 922 1230T872 1182T804 1165Z" />
<glyph unicode="&#xec;" horiz-adv-x="526" d="M153 0V990H373V0H153ZM434 1170L249 1519H477L640 1170H434Z" />
<glyph unicode="&#xed;" horiz-adv-x="526" d="M153 0V990H373V0H153ZM150 1170L316 1519H539L350 1170H150Z" />
<glyph unicode="&#xee;" horiz-adv-x="526" d="M153 0V990H373V0H153ZM181 1170L424 1519H623L860 1170H647L519 1389L388 1170H181Z" />
<glyph unicode="&#xef;" horiz-adv-x="526" d="M153 0V990H373V0H153ZM350 1165Q294 1165 256 1203T218 1300Q218 1360 256 1398T350 1436Q404 1436 442 1398T480 1300Q480 1241 442 1203T350 1165ZM689 1165Q634 1165 596 1203T558 1300Q558 1360 596 1398T689
1436Q744 1436 782 1398T820 1300Q820 1241 782 1203T689 1165Z" />
<glyph unicode="&#xf0;" horiz-adv-x="1188" d="M584 -30Q435 -30 319 37T135 216T68 466Q68 567 105 655T211 811T370 916T568 955Q619 955 671 945T771 912T859 854L827 840Q790 910 739 978T622 1110T477 1234T306 1349L478 1469Q680 1340 822 1188T1040 866T1115
513Q1115 400 1076 301T964 128T796 12T584 -30ZM584 161Q673 161 741 200T848 309T887 474Q887 569 849 639T742 747T584 786Q498 786 431 748T326 639T288 474Q288 379 326 309T431 200T584 161ZM304 1030V1173L613 1314V1320L910 1460V1317L613 1177V1171L304
1030Z" />
<glyph unicode="&#xf1;" horiz-adv-x="1231" d="M153 0V990H373V864Q435 947 517 983T687 1020Q823 1020 912 966T1044 827T1088 652V0H868V584Q868 690 805 754T628 818Q554 818 497 785T406 694T373 557V0H153ZM342 1189L242 1277Q278 1370 337 1424T475 1479Q536
1479 588 1453T689 1399T784 1372Q828 1372 860 1405T914 1501L1013 1411Q987 1315 926 1263T788 1211Q727 1211 673 1237T570 1290T475 1317Q430 1317 397 1285T342 1189Z" />
<glyph unicode="&#xf2;" horiz-adv-x="1209" d="M604 -30Q449 -30 328 41T137 232T68 495Q68 601 107 695T219 863T390 978T605 1020Q760 1020 881 949T1072 758T1141 495Q1141 390 1102 295T990 127T820 12T604 -30ZM604 165Q696 165 767 205T880 320T921 495Q921
596 880 670T768 785T604 825Q512 825 441 785T329 671T288 495Q288 394 329 320T441 206T604 165ZM522 1170L315 1519H545L730 1170H522Z" />
<glyph unicode="&#xf3;" horiz-adv-x="1209" d="M604 -30Q449 -30 328 41T137 232T68 495Q68 601 107 695T219 863T390 978T605 1020Q760 1020 881 949T1072 758T1141 495Q1141 390 1102 295T990 127T820 12T604 -30ZM604 165Q696 165 767 205T880 320T921 495Q921
596 880 670T768 785T604 825Q512 825 441 785T329 671T288 495Q288 394 329 320T441 206T604 165ZM489 1170L677 1519H900L691 1170H489Z" />
<glyph unicode="&#xf4;" horiz-adv-x="1209" d="M604 -30Q449 -30 328 41T137 232T68 495Q68 601 107 695T219 863T390 978T605 1020Q760 1020 881 949T1072 758T1141 495Q1141 390 1102 295T990 127T820 12T604 -30ZM604 165Q696 165 767 205T880 320T921 495Q921
596 880 670T768 785T604 825Q512 825 441 785T329 671T288 495Q288 394 329 320T441 206T604 165ZM228 1170L507 1519H712L981 1170H766L606 1389L439 1170H228Z" />
<glyph unicode="&#xf5;" horiz-adv-x="1209" d="M604 -30Q449 -30 328 41T137 232T68 495Q68 601 107 695T219 863T390 978T605 1020Q760 1020 881 949T1072 758T1141 495Q1141 390 1102 295T990 127T820 12T604 -30ZM604 165Q696 165 767 205T880 320T921 495Q921
596 880 670T768 785T604 825Q512 825 441 785T329 671T288 495Q288 394 329 320T441 206T604 165ZM319 1189L219 1277Q255 1370 314 1424T452 1479Q513 1479 565 1453T666 1399T761 1372Q805 1372 837 1405T891 1501L990 1411Q964 1315 903 1263T765 1211Q704
1211 650 1237T547 1290T452 1317Q407 1317 374 1285T319 1189Z" />
<glyph unicode="&#xf6;" horiz-adv-x="1209" d="M604 -30Q449 -30 328 41T137 232T68 495Q68 601 107 695T219 863T390 978T605 1020Q760 1020 881 949T1072 758T1141 495Q1141 390 1102 295T990 127T820 12T604 -30ZM604 165Q696 165 767 205T880 320T921 495Q921
596 880 670T768 785T604 825Q512 825 441 785T329 671T288 495Q288 394 329 320T441 206T604 165ZM388 1165Q333 1165 292 1203T250 1300Q250 1340 269 1371T319 1419T388 1436Q442 1436 483 1398T525 1300Q525 1260 506 1230T456 1182T388 1165ZM821 1165Q766
1165 725 1203T683 1300Q683 1340 702 1371T752 1419T821 1436Q875 1436 916 1398T958 1300Q958 1260 939 1230T889 1182T821 1165Z" />
<glyph unicode="&#xf7;" horiz-adv-x="1296" d="M138 586V747H1172V586H138ZM656 159Q601 159 563 196T524 286Q524 322 542 351T589 397T656 415Q710 415 749 378T788 286Q788 251 770 222T722 176T656 159ZM656 915Q601 915 563 952T524 1042Q524 1078 542 1107T589
1153T656 1171Q712 1171 750 1134T788 1042Q788 1007 771 979T723 933T656 915Z" />
<glyph unicode="&#xf8;" horiz-adv-x="1209" d="M232 -83L114 19L209 136Q143 207 106 299T68 495Q68 601 107 695T219 863T390 978T604 1020Q681 1020 749 1002T875 949L976 1074L1094 972L999 855Q1066 785 1103 693T1141 495Q1141 390 1102 295T990 127T820
12T604 -30Q529 -30 460 -11T333 41L232 -83ZM341 289L757 797Q726 816 689 826T609 836Q513 836 439 794T321 674T278 491Q278 430 295 379T341 289ZM600 155Q696 155 770 197T887 316T930 499Q930 561 914 612T867 702L450 193Q482 175 519 165T600 155Z" />
<glyph unicode="&#xf9;" horiz-adv-x="1209" d="M535 -30Q402 -30 316 23T186 165T143 357V990H363V398Q363 296 423 235T591 173Q661 173 716 204T803 293T836 425V990H1056V0H858V117Q800 47 721 9T535 -30ZM518 1170L311 1519H541L726 1170H518Z" />
<glyph unicode="&#xfa;" horiz-adv-x="1209" d="M535 -30Q402 -30 316 23T186 165T143 357V990H363V398Q363 296 423 235T591 173Q661 173 716 204T803 293T836 425V990H1056V0H858V117Q800 47 721 9T535 -30ZM486 1170L674 1519H897L688 1170H486Z" />
<glyph unicode="&#xfb;" horiz-adv-x="1209" d="M535 -30Q402 -30 316 23T186 165T143 357V990H363V398Q363 296 423 235T591 173Q661 173 716 204T803 293T836 425V990H1056V0H858V117Q800 47 721 9T535 -30ZM224 1170L503 1519H708L977 1170H762L602 1389L435
1170H224Z" />
<glyph unicode="&#xfc;" horiz-adv-x="1209" d="M535 -30Q402 -30 316 23T186 165T143 357V990H363V398Q363 296 423 235T591 173Q661 173 716 204T803 293T836 425V990H1056V0H858V117Q800 47 721 9T535 -30ZM385 1165Q330 1165 289 1203T247 1300Q247 1340 266
1371T316 1419T385 1436Q439 1436 480 1398T522 1300Q522 1260 503 1230T453 1182T385 1165ZM818 1165Q763 1165 722 1203T680 1300Q680 1340 699 1371T749 1419T818 1436Q872 1436 913 1398T955 1300Q955 1260 936 1230T886 1182T818 1165Z" />
<glyph unicode="&#xfd;" horiz-adv-x="1064" d="M238 -448Q184 -448 132 -436T30 -395L80 -207Q111 -227 148 -237T214 -247Q284 -247 324 -214T387 -112L420 -16L30 990H271L545 222L812 990H1045L617 -143Q571 -262 514 -328T388 -421T238 -448ZM417 1170L605
1519H828L619 1170H417Z" />
<glyph unicode="&#xfe;" horiz-adv-x="1293" d="M153 -420V1440H372V861Q434 932 522 976T726 1020Q874 1020 986 950T1162 760T1225 495Q1225 386 1189 291T1087 123T929 11T726 -30Q610 -30 522 12T372 125V-420H153ZM689 165Q781 165 852 205T964 320T1005
495Q1005 596 965 670T853 785T689 825Q597 825 526 785T413 671T372 495Q372 394 413 320T525 206T689 165Z" />
<glyph unicode="&#xff;" horiz-adv-x="1064" d="M238 -448Q184 -448 132 -436T30 -395L80 -207Q111 -227 148 -237T214 -247Q284 -247 324 -214T387 -112L420 -16L30 990H271L545 222L812 990H1045L617 -143Q571 -262 514 -328T388 -421T238 -448ZM316 1165Q261
1165 220 1203T178 1300Q178 1340 197 1371T247 1419T316 1436Q370 1436 411 1398T453 1300Q453 1260 434 1230T384 1182T316 1165ZM749 1165Q694 1165 653 1203T611 1300Q611 1340 630 1371T680 1419T749 1436Q803 1436 844 1398T886 1300Q886 1260 867 1230T817
1182T749 1165Z" />
<glyph unicode="&#x2013;" horiz-adv-x="1000" d="M45 476V652H955V476H45Z" />
<glyph unicode="&#x2014;" horiz-adv-x="2000" d="M231 476V652H1769V476H231Z" />
<glyph unicode="&#x2018;" horiz-adv-x="538" d="M273 843Q199 843 153 893T107 1028Q107 1095 139 1162T235 1293T393 1413L471 1310Q396 1275 339 1224T260 1124Q305 1127 342 1111T402 1063T424 989Q424 924 382 884T273 843Z" />
<glyph unicode="&#x2019;" horiz-adv-x="538" d="M144 851L67 953Q142 989 199 1039T278 1139Q232 1136 195 1152T136 1200T114 1275Q114 1339 156 1379T264 1420Q339 1420 384 1371T430 1235Q430 1169 398 1102T303 971T144 851Z" />
<glyph unicode="&#x201a;" horiz-adv-x="555" d="M144 -302L67 -200Q142 -164 199 -114T278 -14Q232 -17 195 -1T136 47T114 122Q114 186 156 226T264 267Q339 267 384 218T430 82Q430 16 398 -51T303 -182T144 -302Z" />
<glyph unicode="&#x201c;" horiz-adv-x="961" d="M273 843Q199 843 153 893T107 1028Q107 1095 139 1162T235 1293T393 1413L471 1310Q396 1275 339 1224T260 1124Q305 1127 342 1111T402 1063T424 989Q424 924 382 884T273 843ZM696 843Q622 843 576 893T530
1028Q530 1095 562 1162T658 1293T816 1413L894 1310Q819 1275 762 1224T683 1124Q728 1127 765 1111T825 1063T847 989Q847 924 805 884T696 843Z" />
<glyph unicode="&#x201d;" horiz-adv-x="961" d="M144 851L67 953Q142 989 199 1039T278 1139Q232 1136 195 1152T136 1200T114 1275Q114 1339 156 1379T264 1420Q339 1420 384 1371T430 1235Q430 1169 398 1102T303 971T144 851ZM567 851L490 953Q565 989 622
1039T701 1139Q655 1136 618 1152T559 1200T537 1275Q537 1339 579 1379T687 1420Q762 1420 807 1371T853 1235Q853 1169 821 1102T726 971T567 851Z" />
<glyph unicode="&#x201e;" horiz-adv-x="978" d="M144 -302L67 -200Q142 -164 199 -114T278 -14Q232 -17 195 -1T136 47T114 122Q114 186 156 226T264 267Q339 267 384 218T430 82Q430 16 398 -51T303 -182T144 -302ZM567 -302L490 -200Q565 -164 622 -114T701
-14Q655 -17 618 -1T559 47T537 122Q537 186 579 226T687 267Q762 267 807 218T853 82Q853 16 821 -51T726 -182T567 -302Z" />
<glyph unicode="&#x2022;" horiz-adv-x="1000" d="M500 345Q399 345 320 390T196 512T150 688Q150 787 195 864T320 986T500 1031Q601 1031 680 987T804 865T850 688Q850 589 805 512T680 390T500 345Z" />
<glyph unicode="&#x2039;" horiz-adv-x="626" d="M372 91L53 509L372 928L515 831L268 509L514 189L372 91Z" />
<glyph unicode="&#x203a;" horiz-adv-x="626" d="M255 91L112 189L358 510L112 831L255 928L574 510L255 91Z" />
</font>
</defs>
</svg>
