<?xml version="1.0" standalone="no"?>
<!DOCTYPE svg PUBLIC "-//W3C//DTD SVG 1.1//EN" "http://www.w3.org/Graphics/SVG/1.1/DTD/svg11.dtd">
<svg xmlns="http://www.w3.org/2000/svg">
<defs >
<font id="YujiSyuku" horiz-adv-x="970" ><font-face
    font-family="Yuji Syuku"
    units-per-em="1000"
    panose-1="2 11 6 0 0 0 0 0 0 0"
    ascent="1160"
    descent="-288"
    alphabetic="0" />
<glyph unicode=" " glyph-name="space" horiz-adv-x="250" />
<glyph unicode="!" glyph-name="exclam" horiz-adv-x="387" d="M250 628Q254 606 252 575T243 513T231 458L230 454Q220 414 219 365T215 276Q215 268 215 260T215 242Q217 218 215 197T196 164Q184 170 179 183T174 213T171 241Q165 293 164 347T158 454Q157
472 155 489T151 524Q150 528 150 531T149 539Q145 560 142 583T139 627T148 656Q163 674 185 676T226 667T250 628ZM249 80Q252 39 235 22T195 5Q175 6 158 19T136 56T151 107Q180 128 208 118T249 80Z" />
<glyph unicode="&quot;" glyph-name="quotedbl" horiz-adv-x="500" d="M357 808Q356 750 352 691T331 575Q314 606 309 640T301 710T286 779Q289 795 301 805T329 817T357 808ZM213 697Q212 689 212 681T211 662Q210 639 208 614T195 569Q180 604 176 637T169
703T153 770Q155 790 173 800T208 809Q224 789 224 770T219 729Q217 721 216 713T213 697Z" />
<glyph unicode="#" glyph-name="numbersign" horiz-adv-x="613" d="M507 615Q492 610 481 609T458 607Q448 607 439 607T419 606V604Q413 574 409 545T406 486Q413 486 420 486T434 487Q460 487 478 478T490 433Q478 432 468 432T448 433Q443 434 441 434H440Q431
435 422 435T404 434Q397 421 396 402T393 368Q392 348 390 329T377 292Q358 302 353 319T348 356T352 394Q353 399 353 402Q356 420 356 436Q345 437 334 437T311 436Q298 436 286 436T260 437Q255 422 254 406T250 374Q249 356 246 337T232 301Q213 311 208 328T204
365Q205 382 208 400T212 433Q208 433 204 433T195 431Q184 430 174 430T152 435Q142 432 131 419Q106 451 118 467T154 488Q185 493 215 487Q223 516 224 545T227 604Q218 604 211 604T198 605Q185 605 173 605T143 596Q139 605 138 609T137 620Q137 625 137 629Q137
633 134 643Q147 654 157 657T180 661Q191 661 203 660T232 657Q234 664 234 673T234 693Q233 711 234 727T245 752T278 752Q280 727 278 705T273 657Q285 653 300 654T330 656Q336 657 341 657T352 658Q359 658 365 658T379 657Q381 664 381 672T382 691Q383 709
386 727T401 755Q410 757 415 755T428 747L430 745Q430 746 437 741Q426 722 426 699T422 654Q425 654 429 654T437 654Q452 655 468 654T496 645T507 615ZM373 605Q359 604 348 604T324 605Q312 606 300 606T274 606Q272 590 270 576T266 544Q265 531 265 517T265
486Q290 488 313 488T364 489Q365 503 365 517T367 544Q369 560 370 575T373 605Z" />
<glyph unicode="$" glyph-name="dollar" horiz-adv-x="625" d="M501 220Q503 203 502 172T490 119Q486 112 477 109T457 95Q451 89 448 79T439 65Q422 52 395 49T341 43V43Q342 16 341 -7T331 -47Q322 -52 316 -47T305 -35Q300 -28 297 -26V32Q275 32 245 41T186
68T139 110T124 163Q126 183 145 197T195 200Q206 185 208 165T207 122Q221 103 245 94T294 75Q294 99 294 122T296 170Q297 203 297 236T297 305Q271 328 244 349T182 385Q171 403 161 420T146 454Q138 479 141 504Q146 555 188 589T290 629Q291 633 291 638T289
651Q289 655 289 660T288 670Q288 681 293 687T312 693Q334 677 331 636Q376 641 413 626T473 579T498 504Q485 492 464 490T425 494Q416 532 399 562T337 595Q333 569 333 538T335 475Q335 470 335 465T336 454Q337 435 337 418T335 385Q368 368 404 348T468 298T501
220ZM439 225Q423 251 398 267T341 294Q341 287 341 280T340 266Q339 218 339 171T341 75Q394 83 420 119T439 225ZM294 403Q296 416 296 428T293 454Q292 466 291 478T290 504Q290 510 290 517T291 530Q293 549 293 567T284 599Q268 597 256 591T229 581Q210 556
206 528T212 474Q214 469 216 464T222 454Q234 435 252 421T294 403Z" />
<glyph unicode="%" glyph-name="percent" horiz-adv-x="831" d="M731 164Q730 157 726 151T719 136Q718 130 718 124T719 113Q720 108 720 104T719 97Q718 92 707 76T683 43T663 22Q652 15 630 8T583 -1T540 1Q515 8 496 30T465 83T449 140Q441 205 457 253T509
329T592 359Q636 362 669 337T720 266T731 164ZM386 454Q385 449 385 444T382 434Q380 425 375 418T365 404Q358 394 353 384T350 362Q328 343 305 326T256 302T199 303Q156 316 131 359T100 454Q99 462 99 470T99 485Q100 531 116 572T167 639T254 660Q271 659
290 655T322 640Q341 626 357 595T381 526T386 454ZM679 648Q653 596 616 548T543 453Q504 402 464 352T391 247Q355 219 331 180T280 102Q259 71 237 44T180 -3Q166 19 175 47T207 105T252 163Q259 172 265 179T278 195Q322 253 373 321T472 454Q485 471 497 488T523
522Q552 559 576 592T628 651Q633 656 643 661T663 665T679 648ZM656 274Q647 297 627 310T585 323Q566 323 549 312T524 279Q510 239 513 197T527 115T549 44Q586 32 610 45T648 85Q662 112 667 146T669 215T656 274ZM313 454Q316 494 312 532T297 589Q285 610
264 616T219 616Q204 612 190 602T171 576Q163 553 162 520T168 454L174 430Q185 391 204 363T246 335Q257 336 268 343T290 366Q300 379 305 403T313 454Z" />
<glyph unicode="&amp;" glyph-name="ampersand" horiz-adv-x="1000" d="M838 36Q818 16 796 16T745 19Q734 20 722 21T696 23Q685 49 665 65T629 103Q596 46 533 18T390 -13Q352 -2 313 20T244 75Q228 94 224 123T224 184T239 247T260 298Q289 314 313 333T370
364Q334 398 311 454Q294 494 294 534Q294 563 306 590T346 638Q348 639 357 641T374 646Q394 655 422 661T482 668T541 663T588 642Q605 629 610 607T632 567Q638 528 631 503T612 455L611 453Q598 428 574 412T529 376Q515 377 504 375T481 368Q520 320 561 274T648
185Q650 189 652 192T656 199Q671 227 682 257T691 333Q684 337 677 338T662 340Q659 340 655 340T648 341Q639 358 636 380Q643 380 651 380T667 381Q697 382 728 382T786 375T827 352Q820 341 805 337T771 333Q752 320 742 298T725 249Q718 221 708 194T675 153Q684
139 696 129T727 114Q729 92 741 81T770 63T805 51T838 36ZM600 130Q545 180 495 234T393 341Q363 334 342 311T310 255T299 189Q299 149 316 113T367 59Q408 39 452 43T536 71T600 130ZM550 483Q563 511 563 540T544 595Q530 613 506 619T455 623T406 609T374
579Q364 560 365 534T370 491Q373 481 379 472T392 454Q406 438 422 425T450 399Q473 401 494 416T532 454Q542 467 550 483Z" />
<glyph unicode="&apos;" glyph-name="quotesingle" horiz-adv-x="372" d="M216 805Q225 794 222 781T214 755Q213 750 212 746T209 738Q206 722 205 705T204 671Q203 637 200 604T178 543Q162 561 160 596T159 667Q159 683 159 698T158 726Q157 732 156 737T154
748Q151 765 151 780T166 807Q177 815 193 814T216 805Z" />
<glyph unicode="(" glyph-name="parenleft" horiz-adv-x="586" d="M455 -54Q441 -56 435 -52T422 -41Q418 -37 414 -33T402 -28Q381 6 355 38T306 105T269 183Q265 197 265 212T262 243Q257 267 254 300T250 369T254 435Q255 440 255 445T257 454Q269 512 299
569T369 672T447 740Q456 733 454 725T443 709Q431 696 422 685T410 655Q375 621 352 569T317 454Q308 405 308 351Q307 283 321 217T365 98Q381 71 401 48T437 0T455 -54Z" />
<glyph unicode=")" glyph-name="parenright" horiz-adv-x="581" d="M327 406Q336 327 325 260T289 137T234 34Q212 24 202 2T175 -36Q167 -43 157 -48T130 -54Q144 -23 166 5T209 65T241 135Q254 179 261 224T269 316Q270 385 258 454Q246 521 219 576Q200 617
175 651T130 718Q126 722 126 725T130 729Q156 720 173 702T215 673Q242 629 272 574T319 454Q322 443 324 431T327 406Z" />
<glyph unicode="*" glyph-name="asterisk" horiz-adv-x="500" d="M367 594Q355 578 343 578Q330 578 319 591T295 615Q274 634 261 640Q262 631 264 623T268 607Q273 590 276 574T276 538Q264 527 250 531T233 547Q231 557 234 569T241 593Q245 603 247 613T249
631Q236 628 223 614T195 589Q185 582 175 581T151 586Q149 603 155 612T172 626Q188 634 208 638T242 652Q229 661 211 665T177 674T151 691Q150 708 158 716T179 722Q190 721 201 710T224 686T246 667Q247 673 246 682T242 700Q240 710 239 719T237 738Q237 756
245 766T276 767Q282 751 280 735T273 702Q271 693 269 685T266 667Q278 671 291 684T317 708Q328 716 340 718T366 709Q371 702 370 693T360 680Q337 672 317 665T273 650Q292 641 315 634T358 622Q372 608 367 594Z" />
<glyph unicode="+" glyph-name="plus" horiz-adv-x="687" d="M591 315Q541 309 496 309T402 311Q393 311 384 311T365 312Q366 291 366 270T364 226Q363 206 363 184T362 138Q362 135 362 132T362 125Q363 112 362 100T347 77Q329 83 325 94T309 116Q309 132 310
147T311 177Q313 213 314 247T312 315Q298 315 284 314T255 311Q215 308 175 308T97 319Q89 333 94 347T108 365Q129 364 151 364T197 365Q225 366 254 366T313 363Q315 382 315 406T313 454Q313 465 313 475T312 495Q312 518 314 541T328 577T365 582Q368 548
368 517T367 454Q366 431 366 408T365 363Q382 359 407 360T451 363Q454 363 456 363Q460 363 468 364Q490 366 514 367T560 364Q567 363 577 357T593 341T591 315Z" />
<glyph unicode="," glyph-name="comma" horiz-adv-x="416" d="M233 43Q233 15 224 -12T198 -60Q182 -78 159 -85T106 -83Q111 -69 127 -59T156 -36Q165 -26 170 -13T172 19Q131 25 114 57Q105 73 106 92T123 130Q149 142 169 140T202 127Q218 114 225 92T233 43Z" />
<glyph unicode="-" glyph-name="hyphen" horiz-adv-x="565" d="M480 293Q430 287 390 288T315 291Q301 291 288 292T261 293Q243 293 228 292T198 289Q171 287 145 287T86 297Q78 311 82 329T97 349Q151 353 197 352T293 349Q306 348 318 348T345 347Q354 347
364 347T384 349Q401 350 417 350T449 348Q456 347 466 340T482 321T480 293Z" />
<glyph unicode="." glyph-name="period" horiz-adv-x="422" d="M240 88Q248 49 230 30T185 10Q160 9 138 25T115 70Q114 90 127 109T170 133Q193 137 214 124T240 88Z" />
<glyph unicode="/" glyph-name="slash" horiz-adv-x="647" d="M563 702Q567 692 565 685T558 670Q555 665 553 660T550 648Q531 631 518 609T493 565T461 525Q458 518 456 511T452 496Q445 486 437 476T421 454Q347 349 281 239T141 23Q141 16 138 11T134 -2Q124
-4 121 -11T115 -25T101 -34Q85 -32 81 -23T79 -2Q84 17 99 39T125 77Q186 173 247 266T370 454Q381 471 392 488T414 521Q445 569 476 613T533 704Q538 707 546 707T563 702Z" />
<glyph unicode="0" glyph-name="zero" horiz-adv-x="670" d="M557 453Q565 397 563 337T553 221T536 124Q530 117 525 110T514 96Q491 67 467 42T411 1T331 -14Q279 -13 239 11T172 77T128 171T106 279Q102 320 104 365T114 454Q125 509 144 554T191 625Q233 663
283 673T382 671T470 628T529 555Q540 533 546 507T557 453ZM477 259Q479 306 479 356T472 454Q467 498 457 537T432 609Q412 630 380 637T317 640T266 621Q237 601 221 556T200 454Q194 393 197 326T209 200T228 104Q251 65 290 46T385 45Q432 79 452 130T477
259Z" />
<glyph unicode="1" glyph-name="one" horiz-adv-x="670" d="M468 23Q453 5 423 5T362 8Q353 9 345 10T328 11Q306 1 275 2T226 23Q233 49 258 58T312 71Q320 166 320 260T316 454Q315 486 314 517T312 582Q291 583 270 587T236 601T226 627Q228 635 245 641T287
650T340 654T388 654T419 647Q403 610 399 561T394 454Q394 422 394 387T395 314Q395 296 395 277T394 240Q393 186 393 140T403 68Q412 59 427 56T454 47T468 23Z" />
<glyph unicode="2" glyph-name="two" horiz-adv-x="670" d="M538 172Q561 150 557 119T543 58Q539 46 536 35T531 13Q477 4 414 4T288 4Q243 4 200 4T117 2Q117 11 118 20T121 39Q122 49 123 58T124 73Q141 89 145 109T159 148Q190 204 236 245T333 323T428 402Q437
413 442 426T450 454Q455 480 453 507T445 557Q435 592 405 609T338 626Q314 626 291 614T250 585T227 550Q220 531 221 504T217 454Q211 431 193 426T155 429T124 454Q118 482 130 515T164 581Q198 622 244 646T361 670Q422 669 466 638T526 562Q546 508 537 453Q530
407 497 361Q490 351 476 339T451 318Q416 290 376 267T296 218T227 160T184 81Q259 75 326 77T464 86Q477 93 483 106T495 134T510 160T538 172Z" />
<glyph unicode="3" glyph-name="three" horiz-adv-x="670" d="M538 118Q530 93 514 76T478 45T439 12Q392 -9 332 -11T221 7Q176 25 147 60T120 151Q132 171 158 176T203 164Q209 152 209 141T209 119Q208 110 208 101T211 81Q219 57 246 46T308 33T369 40Q385
45 406 61T445 99T464 144Q467 171 462 203T444 263T406 305Q386 317 367 318T324 317Q308 316 291 316T253 318Q251 332 253 341T260 359Q261 363 262 366T265 374Q316 375 359 390T426 437Q433 445 437 454Q459 494 447 550Q439 590 408 607T341 625Q306 625
274 608T224 561Q229 536 222 516T200 482Q183 479 172 483T152 493Q150 494 147 496T141 499Q131 538 145 568T190 621T259 657Q312 674 368 672T460 647Q476 637 491 618T517 576T530 535Q536 491 521 453Q508 421 483 398T423 367Q452 345 481 316T529 250Q543
222 547 189T538 118Z" />
<glyph unicode="4" glyph-name="four" horiz-adv-x="670" d="M561 202Q561 187 538 177T466 174Q465 168 465 163T464 151Q462 134 461 120T463 92Q467 76 478 68T501 54Q515 47 524 39T530 12Q500 5 461 3T384 0T319 2Q318 5 316 10Q314 14 313 19T315 32Q325
43 337 45T362 50T387 61Q388 73 388 92T387 131Q387 144 387 155T387 174Q338 178 285 177T180 174Q156 173 133 172T88 171Q84 186 78 199T65 225Q116 278 163 335T254 454Q290 504 324 554T391 656Q407 669 427 676T466 680T496 652Q496 643 492 639T483 630Q479
626 475 622T471 609Q470 569 470 531T469 454Q468 403 468 350T466 235Q510 247 535 233T561 202ZM389 458Q389 474 389 493T388 527T387 542Q374 519 359 497T328 454Q288 400 245 348T167 235Q196 237 225 237T285 236Q309 235 334 235T387 235Q391 265 391
304T390 385Q390 402 390 419T389 454V458Z" />
<glyph unicode="5" glyph-name="five" horiz-adv-x="670" d="M558 160Q556 147 550 138T537 119T528 90Q519 80 510 67T487 43Q441 4 372 -9T232 2Q209 10 183 27T142 69T136 123Q142 140 161 149T207 151Q220 139 222 118T228 75T244 43Q309 20 362 27T450 80Q467
103 474 129T481 183Q481 229 462 272T411 344T337 375Q316 376 294 369T249 344Q232 331 221 313T201 278T177 247Q160 252 154 266T148 298T148 331Q149 337 149 339Q151 365 154 394T161 454Q166 495 171 534T177 606Q177 612 177 617T175 627Q173 635 173 642T177
657Q206 655 239 655T308 654Q365 654 424 653T537 644Q544 632 540 615T530 586Q529 583 528 581Q491 573 451 574T370 578Q334 580 299 581T228 578Q224 549 222 518T217 454Q216 433 216 412T215 369Q246 385 282 397T358 413T435 402Q475 388 505 349T551 260T558
160Z" />
<glyph unicode="6" glyph-name="six" horiz-adv-x="670" d="M567 216Q567 156 544 101T473 17Q468 16 463 15T452 11Q419 2 379 -6T296 -8Q259 -2 227 25T170 93T133 181T120 276Q121 317 125 365T138 454Q141 467 144 478T151 499Q154 507 164 514T179 531Q189
549 192 569T206 602Q233 634 274 652T364 674T459 663T544 615Q545 610 546 606T549 598Q553 586 555 574T555 544Q540 525 521 523T486 531T461 561T460 603Q406 636 355 623T268 566Q229 519 215 454Q211 433 210 412T211 367Q234 390 275 407T363 429T444 423Q485
409 512 377T553 303T567 216ZM486 226Q487 270 473 305T431 362T367 381Q334 380 305 365T254 329T222 288Q204 254 204 212T219 134T254 77Q279 55 315 48T386 49T442 82Q449 90 456 108T470 150T481 193T486 226Z" />
<glyph unicode="7" glyph-name="seven" horiz-adv-x="670" d="M581 636Q587 624 581 611T562 585T540 562Q535 558 532 555T527 549Q501 510 476 454Q465 429 454 403T431 350Q406 295 385 242T353 132Q351 118 350 105T348 78Q346 50 342 26T322 -18Q304 -25
287 -21T257 -10Q242 16 244 49T260 119T287 190Q288 193 289 195Q315 260 349 326T417 454Q437 491 457 525T495 591Q420 592 342 590T201 586H199Q185 570 179 545T165 496T136 462Q109 472 111 493T121 535Q123 542 125 548T128 560Q133 584 133 609T145 653Q168
653 193 653T247 654Q309 655 377 655T507 653Q512 653 517 653T528 652Q546 652 560 650T581 636Z" />
<glyph unicode="8" glyph-name="eight" horiz-adv-x="670" d="M558 202Q564 156 547 115T496 45Q463 17 418 2T321 -11Q312 -10 303 -9T285 -5Q271 -1 256 1T222 1Q213 9 202 15T175 22Q144 50 127 92T110 179T138 264Q161 298 198 313T272 343Q249 350 234 358T205
376T167 392Q147 424 141 454Q131 498 144 538T187 608Q223 646 278 664T396 667Q426 660 456 640T510 594T538 538Q543 512 539 491T526 453Q507 420 474 400T409 361Q441 338 473 318T529 271T558 202ZM484 165Q484 197 467 222T422 264Q419 266 415 266T407
266Q403 266 399 266T392 268Q379 274 371 286T355 301Q342 307 331 307T314 305Q313 305 313 305Q294 303 269 292T224 267T196 240Q184 217 183 189T188 135T206 88T229 60Q247 48 273 42T329 36T384 39T425 52Q454 68 469 102T484 165ZM462 555Q449 590 414
606T337 623Q296 623 260 605T212 551Q202 519 210 496T238 454Q238 454 252 446T287 425T329 399T363 376Q389 388 413 408T453 454Q466 476 469 501T462 555Z" />
<glyph unicode="9" glyph-name="nine" horiz-adv-x="670" d="M548 368Q548 304 537 241T506 127T455 48Q427 22 390 10T318 -12Q289 -10 255 -2T192 22T145 60T131 114Q137 161 203 161Q221 150 224 133T229 98Q230 82 232 68T244 43Q257 29 279 27T325 28T365
40Q401 57 419 96T445 186T455 281Q432 259 397 248T321 236T241 245T169 276Q138 306 124 348T109 434Q109 439 109 444T110 454Q114 508 134 556T188 631Q219 655 260 664T345 670T426 651T485 610Q508 583 521 542T542 453Q548 413 548 368ZM464 406Q467 429
464 454Q460 495 444 535T399 602T331 626Q293 624 262 599T212 536T188 454Q183 412 197 372Q200 363 206 356T218 342Q227 332 233 322T240 298Q276 282 314 283T384 300T438 342T464 406Z" />
<glyph unicode=":" glyph-name="colon" horiz-adv-x="400" d="M256 180Q264 166 264 149T253 115Q240 93 210 93Q188 92 168 103T143 133Q136 163 150 182T183 208Q209 216 228 207T256 180ZM265 485Q267 476 267 469T264 454Q259 433 243 423T208 413Q189 413
172 423T148 454Q147 456 147 460Q143 487 156 506T202 530Q226 533 244 521T265 485Z" />
<glyph unicode=";" glyph-name="semicolon" horiz-adv-x="424" d="M274 164Q276 151 276 129T271 90Q264 62 246 36T203 -3T150 -10Q154 10 166 20T192 40Q203 49 210 61T215 95Q209 103 193 105T165 118Q146 149 155 170T185 201Q209 211 237 203T274 164ZM279
465Q279 458 278 454Q273 430 250 417T191 406Q178 417 169 429T155 454Q150 472 156 492Q164 521 189 527T237 523Q255 516 267 501T279 465Z" />
<glyph unicode="&lt;" glyph-name="less" horiz-adv-x="620" d="M504 481Q496 475 458 454Q428 438 388 417T306 375T233 339T187 317Q209 299 245 280T324 239T404 193Q424 186 451 176T493 149Q501 140 502 129T494 103Q446 122 406 143T327 188T243 233Q215
247 176 265T104 303Q113 326 133 338T176 358T220 377Q245 391 283 411T360 454Q392 473 420 490T462 519Q478 515 489 506T504 481Z" />
<glyph unicode="=" glyph-name="equal" horiz-adv-x="640" d="M551 234Q515 233 462 233T349 232T236 231T142 229Q108 228 99 244T112 290Q153 282 211 280T325 279Q331 279 337 279T349 279Q399 280 448 280T535 276Q538 271 540 268T545 259Q547 255 549 249T551
234ZM555 371Q510 361 448 360T324 360Q294 361 260 361T198 362Q171 362 147 361T103 355Q96 370 96 385T110 407Q135 412 171 412T245 410Q248 410 254 409Q291 407 331 406T399 405Q405 405 415 406T436 408Q456 409 477 410T508 412Q525 411 538 403T555 371Z"
/>
<glyph unicode="&gt;" glyph-name="greater" horiz-adv-x="620" d="M516 303Q485 284 445 266T377 233Q333 211 294 188T215 144T126 103Q115 119 118 131T132 154Q148 168 173 177T216 193Q236 205 265 221T327 254T387 287T433 317Q427 319 397 334T324 370T238
414T162 454Q124 475 116 481Q120 497 131 506T158 519Q172 507 200 490T260 454Q298 432 336 412T400 377Q420 367 443 359T487 338T516 303Z" />
<glyph unicode="?" glyph-name="question" horiz-adv-x="617" d="M519 476Q518 470 516 464T512 453Q500 425 477 407T426 371Q397 354 369 335T325 289Q315 272 312 245T305 194T285 159Q267 190 270 225T289 294T325 350Q341 368 359 381T393 408T419 443Q421
446 423 454Q433 482 431 512T416 568Q397 606 359 626T265 625Q241 616 219 589T189 539Q182 519 182 503T178 477T160 462Q144 457 131 464T110 483T100 500Q97 514 101 531T112 565T127 592Q154 630 209 651T322 673Q358 674 392 666T451 640Q490 613 506 576T519
476ZM342 35Q335 17 317 7T277 -2Q249 1 240 23T234 68Q238 87 250 102T281 121T325 112Q342 94 346 73T342 35Z" />
<glyph unicode="@" glyph-name="at" horiz-adv-x="880" d="M793 436Q801 357 782 287T707 160Q682 143 648 131T578 117T509 134Q503 142 500 156T496 182T495 194Q495 193 494 192Q488 183 474 166T440 132T395 110T343 117Q305 137 288 172T269 251Q268 302
286 356T333 454Q346 474 363 491Q389 517 421 535T489 554T564 529Q576 537 599 541T640 537Q645 525 641 515T629 495Q626 490 623 485T617 474Q616 470 614 464T610 453Q598 419 587 378T566 296T554 222T555 172Q600 163 634 177T691 221T726 291T739 374Q739
414 730 453Q722 489 705 521T661 575Q626 605 571 625T448 641Q390 638 338 614T248 548T189 454Q185 444 182 434T177 412Q161 330 178 256T241 128Q279 82 334 56T457 28Q497 28 530 37T597 60Q622 69 648 78T707 92Q686 56 647 32T560 -3T458 -16Q384 -17 313
4T198 65Q183 79 168 99T143 134Q94 214 94 297T128 454Q142 484 161 511Q208 578 279 623T432 678Q499 685 546 675T632 642T708 593Q712 590 716 587T724 581Q745 551 757 518T784 453Q786 449 788 445T793 436ZM547 453Q547 455 547 457T546 461Q542 486 531
496T504 508Q478 510 449 492T402 454Q401 453 400 452T398 449Q380 425 366 387T346 305T344 223T368 160Q412 163 438 187T479 248T509 326Q512 334 515 342T522 359Q532 385 540 409T547 453Z" />
<glyph unicode="A" glyph-name="A" horiz-adv-x="738" d="M693 29Q691 19 672 14T627 8Q599 7 568 9T511 15T471 20Q462 40 470 51T494 69T524 78Q527 92 523 113T512 158T498 201Q494 212 491 221T487 235Q432 237 367 235T251 230Q246 221 238 202T221 159T202
115T187 81Q192 70 210 68T245 61Q260 57 269 47T273 12Q248 7 220 7T165 10Q136 12 110 12T62 5Q57 12 54 20T42 33Q43 48 49 57T58 78Q83 76 101 83T133 105Q155 128 166 163T191 230Q212 282 232 339T275 454Q297 513 320 568T366 668Q380 671 401 672T435 668Q429
652 431 641T438 621Q442 612 444 603T442 579Q453 551 465 519T490 453Q516 383 541 308T587 167Q590 157 594 142T603 118Q606 113 610 109T618 100Q625 93 630 87T633 69Q636 68 642 67Q662 63 680 56T693 29ZM466 296Q459 315 446 360T416 454Q406 483 395
509T373 557L335 454Q323 421 310 387T288 326T273 287Q286 288 313 288T370 289T427 291T466 296Z" />
<glyph unicode="B" glyph-name="B" horiz-adv-x="700" d="M595 245Q605 209 600 171T578 101T533 50Q512 36 483 30T425 10Q378 14 335 13T249 9Q212 7 175 6T97 6Q92 17 94 22T100 31Q103 34 105 37T108 45Q120 50 134 52T168 53Q173 145 174 249T172 454Q171
494 169 532T164 605Q159 610 150 610T131 607Q122 605 114 604T100 605Q100 606 99 608Q96 617 94 630T104 648Q123 649 143 650T184 652Q243 655 305 657T421 652Q448 649 476 637T528 610T560 577Q577 548 577 515T566 453Q560 437 551 424Q533 397 507 379T450
359Q497 341 534 314T595 245ZM508 148Q510 177 509 208T498 263T466 299Q426 319 385 322T293 326Q283 327 272 327T250 327Q247 291 247 243T246 148T247 62Q247 56 247 53Q291 52 334 54T413 66Q448 76 473 95T508 148ZM475 454Q486 482 486 511T472 565Q458
588 434 596T379 605Q365 605 350 604T320 602Q302 601 284 600T247 600Q252 567 252 530T250 454Q249 432 248 410T247 367Q258 369 272 369T303 368Q322 368 342 368T381 371Q410 376 433 396T471 444Q473 446 473 449T475 454Z" />
<glyph unicode="C" glyph-name="C" horiz-adv-x="730" d="M653 202Q654 173 640 141T609 87Q590 63 560 39T503 6Q475 -2 436 -8T364 -14Q322 -14 294 1T237 39Q222 51 206 60T180 79Q156 104 136 147T106 243T99 349Q101 379 105 405T117 454Q125 479 135 500T156
540Q173 568 203 594T268 640T335 666Q403 680 463 664T569 622Q578 623 583 627T592 637Q597 643 602 648T620 652Q625 638 624 623T620 590Q619 582 618 574T616 556Q615 546 616 536T619 515Q621 498 622 482T616 453Q613 447 609 443Q594 444 587 453Q579 463
578 478T575 511Q575 521 575 530T572 548Q538 592 484 605T373 608Q320 598 275 568T209 496Q200 477 194 454Q181 405 183 348T200 238T241 145Q254 126 269 112T293 79Q319 72 342 60T393 46Q433 44 467 57T529 93T576 137Q578 141 580 145T584 154Q591 170
599 185T621 207T653 202Z" />
<glyph unicode="D" glyph-name="D" horiz-adv-x="810" d="M694 275Q688 215 663 167T600 84T520 29Q470 12 412 9T295 5Q243 5 194 3T103 -12Q105 5 112 18T128 41Q135 43 141 43T153 43Q159 42 165 42T180 45Q182 98 182 159T180 287Q179 328 179 370T178 454Q178
491 178 527T180 599Q170 604 159 604T137 604Q127 604 117 604T98 610Q100 639 122 648T171 659Q227 662 294 661T426 653T542 628T616 579Q635 554 651 523T678 453Q689 414 694 370T694 275ZM597 424Q596 432 595 439T591 453Q574 521 527 557T412 604T261 602Q261
568 261 531T262 454Q263 366 263 273T261 97Q261 86 260 73T253 48Q272 49 289 49T324 49Q357 49 387 50T443 57Q461 62 487 72T528 93Q551 111 567 148T591 233T601 331T597 424Z" />
<glyph unicode="E" glyph-name="E" horiz-adv-x="670" d="M552 22L545 15Q495 11 444 11T340 11Q283 11 227 11T118 4Q102 15 104 25T110 45Q115 54 115 57Q121 61 129 61T147 61Q152 61 157 61T168 61Q173 134 173 215T172 373Q172 394 172 414T171 454Q170 492
170 526T172 590Q165 592 158 592T143 593Q130 593 119 595T99 609Q100 612 101 617Q103 629 107 640T126 651Q164 650 210 649T303 647T382 647Q394 647 406 648T430 650Q464 653 496 653T552 636Q551 626 551 613T552 584Q554 556 554 527T545 481Q527 477 519
485T507 509Q503 529 502 554T491 593Q479 593 465 593T434 594Q386 594 333 594T246 590Q247 577 247 557T246 512Q246 498 246 484T246 454Q246 430 247 406T251 360Q290 364 331 365T413 368Q426 374 432 386T443 413T456 438Q463 442 468 441T479 436Q481 435
484 434T491 431Q485 409 484 381T484 324Q484 300 483 277T479 237Q456 235 449 248T438 279Q436 286 434 293T429 306Q383 313 333 314T246 298Q248 243 249 186T246 65Q283 63 327 62T415 64T495 77Q506 96 510 120T521 167T549 197Q564 167 563 131T556 62Q555
51 554 41T552 22Z" />
<glyph unicode="F" glyph-name="F" horiz-adv-x="650" d="M563 644Q555 618 555 592T557 541Q558 527 559 513T559 485Q538 476 528 483T513 507Q508 524 505 545T496 582T472 603Q451 603 432 603T394 603Q360 603 327 603T254 603Q254 569 254 531T253 454Q253
430 253 406T254 358Q280 352 309 353T368 356Q383 357 397 357T424 358Q438 374 446 396T465 437Q473 442 487 439T508 430Q501 413 501 391T504 345Q505 336 505 327T506 310Q507 281 501 259T468 231Q458 245 455 267T440 302Q382 301 340 301T254 294Q253 269
253 244T255 194Q256 157 256 122T250 56Q267 55 291 48T329 29Q325 7 311 0T275 -7Q264 -7 252 -6T228 -2Q213 0 199 1T171 2Q165 2 160 1T149 -2Q141 -5 133 -6T115 -3Q117 5 115 8T110 15Q108 17 107 18Q109 37 121 44T149 54T179 65Q179 110 179 154T180 242Q180
295 180 348T180 454Q178 527 174 600Q171 600 164 600Q154 599 143 599T120 608Q117 608 114 607T108 603Q102 599 98 598T91 608Q96 612 96 615T93 622Q91 625 90 629T91 640Q126 652 174 652T276 652Q305 651 334 651T393 651Q404 652 415 652T438 654Q474 658
507 658T563 644Z" />
<glyph unicode="G" glyph-name="G" horiz-adv-x="767" d="M715 283Q711 270 697 268T666 266Q659 266 652 266T638 264Q629 243 628 214T627 152Q628 121 627 90T617 35Q604 26 591 26T565 36Q535 16 492 5T402 -8T311 1T232 39Q223 46 217 58T201 80Q191 91 180
98T162 113Q132 154 118 207T103 318Q103 353 108 387T122 454Q139 513 170 561T246 634Q275 650 312 660T391 671Q423 672 455 666T516 644Q523 650 531 649T547 645Q553 643 558 642T568 641Q574 642 580 645T591 651Q599 656 606 659T623 658Q618 641 619 621T622
580Q623 570 624 560T625 541Q626 518 621 499T599 469Q582 477 580 491T577 521Q577 530 576 539T572 558Q559 596 513 613T413 628Q376 627 340 618T281 592Q250 570 230 534T200 454Q195 429 193 403T190 349Q191 288 205 229T245 124T309 57Q347 43 394 41T484
49T549 85Q546 109 546 137T548 193Q548 210 548 227T549 260Q540 269 526 269T498 267Q487 265 478 265T464 269Q459 306 477 311T530 315Q542 315 555 315T582 315Q588 315 594 315T606 317Q630 319 654 319T694 312T715 283Z" />
<glyph unicode="H" glyph-name="H" horiz-adv-x="800" d="M718 37Q714 19 698 13T659 5Q648 5 637 5T615 6Q592 8 574 8T548 0Q540 -1 527 4T507 23T511 55Q524 61 541 63T571 71Q571 101 571 133T570 196Q569 230 569 260T569 316Q507 324 445 323T324 320Q302
320 282 319T241 318Q241 289 241 263T242 213Q243 181 243 149T243 77Q251 66 265 60T293 48T314 30Q310 14 299 9T270 5Q264 5 257 5T243 7Q231 8 218 9T190 10Q183 10 177 9T164 5Q158 3 153 2T143 2Q127 5 116 20T110 48Q115 59 126 61T150 66T173 76Q173 173
173 270T171 454Q170 495 169 532T166 601Q158 605 149 606T130 606Q119 606 108 607T87 615Q86 623 88 627T94 636Q97 639 99 643T102 654Q123 652 145 653T189 656Q200 656 211 657T233 658Q262 659 285 653T321 625Q311 613 291 611T247 609Q240 584 240 541T240
454V452Q241 432 241 413T241 376Q296 371 354 372T468 375Q493 376 517 377T565 378Q569 395 569 413T568 453Q567 465 566 478T563 504Q561 529 559 553T558 601Q544 601 525 603T488 612Q482 622 485 630T492 645Q494 648 496 651T499 659Q517 658 535 658T571
660Q613 662 650 660T713 641Q707 622 687 618T640 614Q637 579 636 538T636 453Q636 426 637 399T639 344Q641 271 641 201T637 76Q651 60 674 57T718 37Z" />
<glyph unicode="I" glyph-name="I" horiz-adv-x="470" d="M365 627Q360 612 342 610T303 609Q297 609 291 609T279 609Q275 606 281 594Q283 590 284 586T286 577Q282 573 280 568T276 554Q275 529 275 505T274 454Q273 358 273 260T272 65Q295 64 322 54T361
23Q336 8 304 7T236 8Q215 9 195 9T155 7Q149 6 146 3T140 -5Q137 -11 132 -15T116 -17Q106 -3 108 11T119 37T135 58Q140 58 145 58T157 58Q169 58 181 58T202 62Q201 152 201 253T199 454Q198 532 193 604Q186 606 178 606T161 607Q147 607 134 608T111 617Q109
625 111 629T117 637Q120 640 122 643T124 652Q155 652 190 655T260 658Q294 658 322 652T365 627Z" />
<glyph unicode="J" glyph-name="J" horiz-adv-x="530" d="M437 635Q433 622 420 617T390 611T358 606Q353 572 352 534T352 454Q353 415 355 375T358 295Q360 222 354 156T322 41Q316 40 310 36T299 26Q294 22 291 19T284 17Q254 -6 206 -8T117 6Q88 18 68 38T43
87T59 149Q93 159 117 148T152 111T156 53Q181 34 209 40T258 69T283 119Q290 177 287 258T279 421Q279 429 278 437T277 454Q277 457 277 464Q274 505 273 542T273 608Q264 609 256 609T239 607Q228 606 218 606T199 611Q191 620 191 625T195 636Q197 639 198
643T199 654Q216 653 236 654T277 657Q291 658 305 659T333 660Q365 661 392 656T437 635Z" />
<glyph unicode="K" glyph-name="K" horiz-adv-x="730" d="M688 27Q678 14 657 7T610 0T564 4T532 19Q522 28 515 51T497 92Q460 151 416 213T334 330Q315 325 305 312T283 286T252 269Q255 220 255 178T252 86Q252 83 252 80T252 74Q271 65 286 53T326 38Q317
17 303 14T261 12Q258 12 255 12T248 12Q232 13 217 12T188 8Q166 5 146 5T108 12Q102 21 104 26T109 36Q112 39 114 43T116 54Q139 55 157 58T186 82Q182 125 182 170T184 261Q185 306 185 351T182 440Q182 444 182 447T181 454Q181 467 181 480T182 507Q183 535
183 561T174 607Q165 612 157 611T140 607Q132 605 125 605T111 610Q104 623 107 629T115 640Q119 643 121 647T124 657Q143 655 162 655T202 656Q211 657 220 657T238 657Q270 657 296 652T338 626Q328 615 310 613T271 610Q261 569 258 532T254 454Q254 426 254
397T252 334Q285 362 316 392T377 454Q410 489 441 525T502 600Q490 606 472 607T446 619Q449 626 451 633T455 650Q471 649 487 650T521 652Q536 653 551 653T580 654Q607 654 629 648T665 623Q649 614 626 613T588 600Q555 562 519 527T447 454Q416 422 389 384Q434
305 485 234T579 82Q597 73 620 69T662 56T688 27Z" />
<glyph unicode="L" glyph-name="L" horiz-adv-x="630" d="M565 206Q582 160 579 106T559 7Q514 0 455 1T333 6Q276 9 220 10T118 7Q109 28 120 40T153 60T192 72Q197 149 197 240T194 422Q194 430 194 438T194 454Q193 495 193 533T192 607Q179 613 168 611T146
606Q138 603 130 602T113 603Q112 605 111 607T107 610Q101 619 103 625T110 639Q114 644 117 650T118 666Q140 656 169 656T228 657Q239 658 250 658T272 659Q301 659 323 652T352 618Q345 611 337 610T318 609Q306 609 294 607T273 591Q270 527 270 454Q270 434
270 413T270 370Q271 296 271 217T266 57Q283 51 298 51T330 54Q337 55 344 56T359 57Q369 57 379 56T401 54Q417 52 433 51T464 54Q492 62 501 84T517 133Q523 156 532 177T565 206Z" />
<glyph unicode="M" glyph-name="M" horiz-adv-x="920" d="M841 37Q829 22 802 14T741 3T677 5T631 20Q629 27 631 31T637 39Q640 42 643 46T646 57Q657 57 671 61T697 73Q697 165 696 260T693 453Q692 491 692 529T692 606Q692 606 684 582T674 522Q659 489 644
453Q619 392 593 327T542 200Q534 179 524 152T506 101Q505 97 504 93T502 84Q498 69 493 54T477 30T444 26Q396 129 354 238T268 454Q255 486 243 516T216 577Q216 577 217 560T219 521T220 480L221 454Q224 389 225 318T228 180T231 58Q244 48 260 44T284 24Q274
10 253 5T206 -1T155 3T111 9Q104 35 124 51T167 73Q178 159 176 257T168 454Q166 491 165 527T161 598Q150 600 136 600T104 602Q104 607 102 611T98 618Q94 625 92 632T99 648Q116 648 132 649T166 654Q198 658 227 659T281 644Q284 639 284 635T283 626Q283
621 283 616T286 605Q303 568 318 530T350 454Q380 381 409 307T473 164Q506 232 533 305T586 453Q605 505 624 555T667 653Q685 659 712 661T765 660T810 647T831 618Q827 610 817 608T795 606Q787 606 779 605T765 601Q764 565 764 528T764 453Q764 428 765 403T766
352Q768 281 769 211T766 75Q774 64 788 60T818 52T841 37Z" />
<glyph unicode="N" glyph-name="N" horiz-adv-x="820" d="M740 637Q739 616 720 612T677 608Q669 606 667 599T662 583T650 568Q653 541 654 512T657 453Q658 419 658 384T658 312Q659 235 660 161T671 24Q660 8 637 6T605 15Q581 44 560 80T509 150Q455 214 405
296T305 454Q286 485 266 513T226 566Q225 536 224 509T223 454Q223 417 224 378T226 290Q226 272 226 253T224 214Q222 174 222 139T230 80Q235 66 248 59T275 47T296 31Q292 19 280 15T261 2Q243 9 224 9T185 5Q164 3 145 3T110 12Q104 20 105 25T110 36Q112
40 114 43T116 52Q129 57 143 60T171 68Q180 145 179 229T172 402Q172 415 172 428T170 454Q169 492 168 529T165 605Q153 601 140 602T118 608Q108 615 106 627T118 655Q131 654 144 654T170 655Q204 655 236 653T298 638Q298 633 296 631T290 627Q282 624 282
619Q310 578 338 537T395 454Q449 377 503 300T611 148Q609 225 609 301T607 453Q605 528 598 603Q591 606 584 607T570 608Q557 610 547 613T536 629Q535 646 560 653T620 662Q646 663 672 660T717 651T740 637Z" />
<glyph unicode="O" glyph-name="O" horiz-adv-x="766" d="M685 286Q683 249 671 219T644 161T620 98Q610 100 599 86T578 57Q536 35 489 11T386 -13Q334 -13 291 9T206 52Q206 66 196 70T178 81Q139 125 113 184T83 319Q80 389 98 454Q114 512 145 558T223 625Q239
642 260 656T313 663L317 670Q344 676 382 676T459 668T529 644T574 600Q580 599 584 600T593 601Q597 602 601 602T611 600Q610 588 610 578T614 559Q632 549 641 531T656 492T669 453Q671 449 673 445T677 437Q678 425 679 414T681 390Q683 363 685 336T685 286ZM591
453Q590 458 589 462T587 470Q584 486 574 510T551 556T530 588Q507 614 472 623T396 630T319 615T256 584Q233 559 217 526T190 454Q183 427 179 398T175 340Q174 276 190 215T241 109Q268 74 306 54T394 36Q453 38 496 73T564 163Q593 224 600 300T591 453Z"
/>
<glyph unicode="P" glyph-name="P" horiz-adv-x="660" d="M575 453Q573 431 568 411T554 370Q527 348 501 327T443 287Q423 286 402 284T359 279Q330 275 303 272T255 272Q255 267 255 258T253 236Q252 213 251 183T249 125T255 84Q261 66 276 60T308 49T341 35Q330
16 305 10T249 3Q235 3 221 3T193 4Q170 5 149 5T112 3Q107 13 109 19T114 31Q116 34 118 38T120 47Q142 46 156 54T182 79Q180 132 180 186T180 296Q180 335 180 374T179 454Q178 490 178 526T175 598Q158 598 137 599T102 608Q97 632 110 643T149 656Q163 657
179 657T214 655Q225 655 236 655T257 654Q273 654 289 655T320 657Q353 660 384 660T445 654Q469 648 496 628T544 580T571 527Q580 492 575 453ZM492 453Q498 490 489 526T453 584Q429 604 386 606T300 608Q291 607 282 607T265 607Q265 609 263 610T258 611Q258
599 255 589T247 568Q252 543 252 514T252 454Q251 419 251 383T254 314Q271 316 304 316T367 321Q410 326 439 353T482 416Q489 432 492 453Z" />
<glyph unicode="Q" glyph-name="Q" horiz-adv-x="780" d="M718 10Q715 -33 692 -50T637 -67Q591 -67 557 -44T502 6Q454 -4 417 -5T343 -2T261 15Q256 17 253 20T246 28Q240 34 233 39T211 42Q153 99 118 175T89 358Q92 409 104 454Q114 489 128 519T162 575Q194
616 241 642T344 677T454 678T551 639Q592 611 626 563T678 453Q690 413 693 370T690 280Q683 235 664 190T618 107T565 46Q577 19 603 8T661 -1T718 10ZM599 317Q599 385 582 453Q567 515 539 563T472 628Q433 645 390 636T310 604T252 558Q236 539 221 512T196
454Q192 443 191 435Q183 398 180 353T180 264T196 182T232 125Q253 157 282 183T351 211Q388 213 416 197T466 157T506 108Q510 103 514 98T522 88Q553 107 569 144T592 227T599 317ZM472 54Q461 66 450 84T424 120T388 147Q362 160 334 152T288 124T272 84Q275
57 308 44T381 31Q408 31 433 36T472 54Z" />
<glyph unicode="R" glyph-name="R" horiz-adv-x="700" d="M654 8Q621 -1 593 2T535 13Q515 37 501 71T475 144T447 217Q431 252 409 275T350 303Q335 305 319 305T288 304Q276 303 266 303T248 304Q246 277 246 250T249 196Q250 166 251 136T248 75Q255 60 272
56T306 47T332 29Q320 13 292 10T232 6Q224 6 215 6T198 6Q171 7 148 7T111 1Q103 22 111 32T132 50Q145 57 158 63T177 81Q175 180 174 270T170 454L167 601Q159 604 151 604T134 604Q124 603 115 603T97 611Q98 616 97 619T93 625Q92 628 91 631T92 639Q112 650
137 651T191 652Q202 652 213 652T235 653Q292 657 346 657T447 647T526 612Q553 591 567 557T576 470Q575 466 573 462T568 453Q562 441 557 429T549 402Q526 393 510 377T476 346T428 329Q470 304 497 264T545 176T586 81Q591 78 597 76T609 70Q629 62 646 50T654
8ZM485 492Q485 515 478 540T456 590Q420 609 381 611T295 612Q285 612 275 612T254 611Q245 602 245 586T246 552Q247 545 247 538T248 524Q248 508 247 490T245 454Q244 428 244 401T248 346Q296 338 347 346T430 379Q468 409 480 453Q485 473 485 492Z" />
<glyph unicode="S" glyph-name="S" horiz-adv-x="610" d="M516 130Q505 86 473 55T396 8Q352 -7 301 -6T197 16Q187 14 180 9T167 -4Q158 -13 149 -17T124 -9Q113 9 109 38T106 101T114 164T129 211Q152 203 160 186T172 147Q177 125 181 104T202 65Q219 48 243
41T293 33Q326 34 358 45T415 76T447 121Q453 164 444 190T416 233Q393 255 360 268T293 301Q280 309 270 320T246 338Q232 346 217 351T190 363Q167 378 151 402T126 454Q122 468 120 483T118 514Q118 546 128 577T161 633Q200 651 249 661T349 670T444 649Q448
651 451 654T456 661Q462 668 468 672T488 669Q494 645 495 610T494 541T480 490Q459 491 451 504T441 538T439 580Q439 582 439 583Q416 604 380 615T306 627Q276 627 250 619T206 592Q192 577 186 556T186 506Q188 495 196 482T213 460L219 454Q243 432 278 413T354
375T429 331Q462 309 486 281T519 216T516 130Z" />
<glyph unicode="T" glyph-name="T" horiz-adv-x="690" d="M634 622Q623 608 622 588T623 547Q623 545 624 540Q626 517 626 495T611 457Q592 459 584 472T571 503Q567 524 565 547T554 587Q521 596 474 598T390 598Q390 563 390 527T389 454Q389 435 389 417T388
379Q387 301 387 223T390 68Q401 59 417 56T449 47T469 25Q464 12 445 8T399 3T347 5Q334 5 322 5T300 6Q295 6 290 6T279 5Q260 3 243 5T225 28Q225 36 231 43T241 57Q258 50 280 62T311 92Q310 145 310 197T310 300Q310 339 310 377T310 454Q310 525 307 598Q269
605 228 600T154 590Q149 589 145 589T137 587Q135 576 134 564T132 540Q130 514 126 491T105 457Q95 456 90 459T80 468Q78 470 76 472T70 476Q76 517 76 562T89 641Q137 650 197 650T314 650Q332 649 349 649T382 649Q399 649 416 650T451 652Q505 655 554 653T634
622Z" />
<glyph unicode="U" glyph-name="U" horiz-adv-x="780" d="M719 628Q710 614 694 607T660 594T629 577Q629 544 629 514T628 453Q627 412 627 372T626 286Q626 277 627 268T629 247Q631 232 632 216T632 183Q630 164 622 147T606 113Q596 93 585 70T562 35Q549
21 522 10T464 -7T413 -13Q298 -13 230 51T154 231Q150 284 151 340T153 454Q155 492 156 530T157 606Q144 606 121 608T83 618Q79 628 84 639T99 657Q115 654 135 654T179 654Q191 655 203 655T228 655Q263 654 289 646T318 609Q285 596 247 606Q238 593 238 574T239
535Q239 527 239 520T240 506Q240 494 240 481T238 454Q236 414 233 370T230 285Q230 218 240 161T282 77Q304 59 340 49T416 39T491 58Q530 79 550 118T577 210T584 321Q584 353 583 386T580 453Q579 485 578 517T578 577Q568 589 554 597T528 615T510 641Q528
653 557 657T618 660T677 650T719 628Z" />
<glyph unicode="V" glyph-name="V" horiz-adv-x="770" d="M696 628Q674 606 646 590T597 549Q591 524 585 500T572 453Q541 346 503 246T433 34Q423 24 417 12T401 -12Q390 -18 380 -16T361 -11Q353 -9 350 -8Q307 99 272 219T198 454Q185 494 171 532T141 607Q132
610 124 609T107 607Q98 605 90 605T74 607Q67 618 70 626T77 643Q79 646 80 648T83 654Q103 653 123 654T163 656Q178 658 193 658T223 659Q250 658 273 651T314 623Q296 614 274 606T237 596Q245 561 254 526T275 454Q302 367 334 279T388 102Q423 186 458 272T522
453Q542 520 555 589Q548 600 534 604T505 613T480 625Q482 640 499 647T541 657T592 658T640 655Q658 653 673 646T696 628Z" />
<glyph unicode="W" glyph-name="W" horiz-adv-x="950" d="M893 628Q882 615 869 605T838 589Q830 577 827 560T806 538Q804 515 799 494T788 453Q784 439 780 424T771 393Q764 369 758 343T744 294Q741 285 734 276T725 258Q718 228 716 198T705 140Q702 130 698
121T688 102Q678 82 670 62T665 18Q647 2 636 4T616 19Q608 32 603 52T594 94T587 128Q575 176 560 231T529 344T500 453Q496 471 492 488T485 522Q475 508 470 490T462 454Q458 431 453 409T433 371Q432 331 422 296T398 227T373 157T359 77Q345 63 334 46T319
2Q313 -3 305 -3T288 0Q280 2 276 2Q251 65 234 136T202 281Q193 324 185 367T168 454Q161 485 154 515T139 573Q138 593 142 608Q132 610 124 610T107 608Q97 607 88 607T68 612Q55 630 60 640T75 655Q96 652 116 653T157 655Q168 656 178 656T198 657Q225 657
247 650T284 620Q268 609 243 603T202 592Q213 559 222 525T240 454Q259 374 276 292T316 133Q346 207 369 289T414 454Q428 504 443 551T476 644Q493 645 505 641T528 631Q535 590 545 545T567 453Q587 378 608 303T645 159Q661 197 678 245T713 346T741 453L744
467Q746 476 749 486T754 506Q760 526 765 545T767 576Q764 590 757 596T739 604Q726 607 714 609T693 624Q695 642 716 649T766 657Q791 657 817 653T864 642T893 628Z" />
<glyph unicode="X" glyph-name="X" horiz-adv-x="750" d="M688 634Q685 621 672 617T644 611T617 603Q585 568 556 530T498 453Q479 427 461 401T424 348Q443 309 467 276T517 211T565 144T601 64Q619 61 639 47T681 25Q675 9 661 3T629 -3Q619 -3 608 -2T586
1Q560 4 535 4T495 -10Q479 -8 470 -1T445 9Q442 18 442 30T453 48Q470 51 487 55T511 73Q482 132 446 182T374 285Q342 248 306 204T236 115Q230 108 220 100T209 80Q209 67 218 62T241 54Q255 51 268 47T291 33Q292 27 291 24T287 18Q285 16 284 13T283 6Q259
3 232 3T179 6Q148 8 121 8T75 2Q73 18 75 29T81 52Q83 55 83 57Q117 70 143 89T192 134Q233 179 264 232T334 332Q316 363 299 393T262 454Q240 489 216 520T162 579Q162 582 159 587Q157 591 156 595T157 606Q136 606 119 609T87 619Q88 633 93 642T103 662Q123
656 148 656T200 659Q213 660 225 661T250 662Q278 662 299 655T327 622Q314 611 292 609T252 599Q271 562 299 529T351 454L354 449Q357 445 363 433T375 411T386 399Q389 399 398 408T416 429T429 446L435 454Q463 491 492 527T543 603Q535 605 527 605T509 606Q496
606 484 607T460 615Q458 627 462 633T470 644Q473 647 476 650T480 658Q500 656 520 656T561 659Q573 660 585 660T608 661Q634 661 654 656T688 634Z" />
<glyph unicode="Y" glyph-name="Y" horiz-adv-x="740" d="M688 618Q654 616 631 604T589 571Q567 547 550 516T516 453Q508 437 496 421Q484 404 471 391T448 362Q438 345 425 329T401 303Q405 280 405 251T404 190Q404 156 404 124T409 68Q413 64 418 65T425
71Q434 61 447 56T471 44Q483 37 487 26T476 1Q452 4 428 4T378 4Q348 3 318 3T255 9Q254 35 268 46T299 65Q308 70 317 74T332 87Q332 95 332 110T333 146Q334 172 334 201T335 257T332 299Q329 319 314 339T284 378Q271 396 258 415T232 454Q214 482 197 509T162
563Q160 571 152 573T139 579Q139 587 138 594T133 606Q127 607 121 607T107 608Q99 608 91 608T72 611Q70 613 69 616T63 621Q60 635 64 641T74 652Q77 655 78 656Q98 653 122 654T170 657Q182 658 194 659T217 660Q248 661 270 653T300 621Q286 611 265 609T220
606Q240 569 266 531T322 454Q339 433 355 412T386 370Q401 391 415 412T445 454Q471 492 497 529T547 606Q539 607 526 606T498 604Q490 603 482 603T467 602Q452 610 455 629T472 656Q492 654 513 655T557 657Q570 658 583 659T608 660Q637 660 659 652T688 618Z"
/>
<glyph unicode="Z" glyph-name="Z" horiz-adv-x="680" d="M587 631Q511 547 443 454Q376 362 314 264T189 66Q217 67 243 67T296 66Q342 65 385 65T472 70Q484 87 498 108T523 152Q527 162 528 175T535 200T555 212Q565 202 567 190T569 163Q569 158 569 152T568
141Q566 120 567 100T584 66Q577 51 575 41T571 19Q562 15 553 12T539 0Q517 1 493 2T444 5Q385 8 323 10T202 11T96 0Q79 30 88 50T114 92Q119 98 124 105T135 121Q186 204 241 288T352 454Q378 493 403 530T453 605Q388 612 317 614T186 600Q176 587 174 567T170
527Q169 505 164 487T139 464Q123 478 120 506T120 566T127 623Q128 631 129 638T131 651Q161 649 204 651T298 657Q360 661 424 664T539 663Q554 662 567 654T587 631Z" />
<glyph unicode="[" glyph-name="bracketleft" horiz-adv-x="663" d="M553 -33Q555 -47 543 -53T516 -61T491 -63Q448 -64 402 -61T323 -54Q320 55 319 187T318 454Q318 522 318 588T320 717Q326 718 327 722T335 728Q353 723 377 723T426 725Q438 726 450 726T474
727Q497 727 517 724T550 709Q546 688 526 682T479 677Q471 677 463 677T447 679Q425 680 404 680T368 676Q369 621 369 566T369 454Q369 410 369 366T368 278Q368 207 368 136T368 -3Q380 -10 404 -10T454 -9Q462 -9 470 -9T486 -8Q512 -7 531 -11T553 -33Z" />
<glyph unicode="\" glyph-name="backslash" horiz-adv-x="647" d="M545 -34Q535 -32 532 -25T526 -11T512 -2Q511 6 508 11T505 23Q424 139 352 260T194 496Q192 504 190 511T185 525Q166 543 154 565T129 609T96 648Q95 655 93 660T88 670Q84 677 82 684T83 702Q89
706 92 706T101 706Q103 705 106 705T113 704Q139 658 170 614T232 521Q303 411 376 301T521 77Q523 73 526 69T532 60Q545 43 557 22T569 -15T545 -34Z" />
<glyph unicode="]" glyph-name="bracketright" horiz-adv-x="679" d="M358 695Q360 687 358 675T354 650Q351 638 349 625T347 599Q347 564 347 528T348 454Q348 432 348 410T349 364Q351 264 351 160T350 -50Q316 -58 274 -59T191 -59T117 -54Q116 -51 115 -48T113
-41Q111 -35 110 -30T110 -17Q149 -12 185 -11T259 -9Q270 -9 280 -9T302 -9Q301 89 301 184T302 372Q303 393 303 413T303 454Q303 468 303 482T303 511Q303 553 303 593T302 673Q275 680 243 680T179 677T125 670Q106 700 128 725Q148 716 177 718T236 723Q254
726 270 727T302 729Q324 728 339 722T358 695Z" />
<glyph unicode="^" glyph-name="asciicircum" horiz-adv-x="511" d="M401 634Q398 625 393 619T376 611Q372 615 360 632T331 675T299 724T273 767T260 788Q237 752 218 724T176 667Q172 657 164 644T146 621Q139 614 130 612T110 617Q130 658 154 689T201 757Q211
773 224 796T250 836Q273 829 284 810T306 773Q318 756 335 728T371 673T401 634Z" />
<glyph unicode="_" glyph-name="underscore" horiz-adv-x="550" d="M528 -85Q512 -100 491 -101T446 -100Q441 -99 436 -99T425 -98Q369 -96 310 -97T194 -99Q147 -101 105 -101T28 -101Q20 -93 22 -80T35 -53Q61 -53 92 -53T156 -53Q225 -53 299 -53T435 -56Q441
-56 447 -56T460 -56Q483 -55 503 -58T528 -85Z" />
<glyph unicode="`" glyph-name="grave" horiz-adv-x="390" d="M270 633Q239 646 219 664T169 708Q163 714 151 719T130 733T120 755Q120 765 132 776T157 788Q177 789 187 777T205 750Q208 745 210 740T216 731Q233 708 243 695T259 668T270 633Z" />
<glyph unicode="a" glyph-name="a" horiz-adv-x="580" d="M499 34Q503 27 502 24T498 17Q497 14 496 12T495 4Q467 -10 440 -6T395 18T376 69Q348 47 317 28T249 -5Q198 -4 162 22T105 89Q101 141 115 175T156 231Q195 263 255 272T380 287Q382 329 377 364T356
421T304 444Q273 445 248 426T205 381Q210 370 210 352T205 323Q169 313 153 325T135 357Q132 397 166 428Q184 444 205 454Q235 469 271 475T343 477T404 454Q418 445 427 431Q438 417 445 390T452 342Q452 314 451 286T448 227Q446 188 445 147T445 61Q450 46
468 44T499 34ZM379 249Q354 242 324 237T266 225T215 206T181 171Q178 131 185 101T212 53Q245 49 278 57T338 85T373 132Q378 147 379 170T381 216T379 249Z" />
<glyph unicode="b" glyph-name="b" horiz-adv-x="620" d="M506 373Q517 348 521 313T524 240T516 167T498 107Q479 61 449 38T372 -9Q318 -6 273 6T204 53Q200 48 197 43T191 31Q186 19 178 9T151 -1Q146 73 146 144T148 287Q148 329 149 370T149 454Q148 489
147 524T143 595Q139 601 130 602T110 602Q102 602 94 602T81 606Q79 626 94 636T131 648Q159 651 189 647T235 637Q223 597 218 551T213 454Q213 437 213 419T215 384Q232 412 257 429T312 454Q323 457 334 458T357 459Q368 459 379 458T402 454Q436 446 464 426T506
373ZM451 243Q451 284 444 319T422 377Q408 399 388 408T347 417Q313 417 282 398T238 354Q231 339 225 313T213 256T208 194T215 143Q221 125 233 115T257 90T272 49Q306 30 334 30Q373 31 399 63T438 144T451 243Z" />
<glyph unicode="c" glyph-name="c" horiz-adv-x="590" d="M485 390Q496 361 481 344T444 325Q426 325 411 339T399 385Q381 415 350 422T285 421T226 394Q207 368 197 330T187 250Q186 201 199 154T240 75Q261 51 291 41T359 41Q383 47 400 64T435 100T476 127Q484
112 478 87T461 47Q454 39 438 34T410 21Q394 11 386 1T367 -11Q344 -16 315 -14T259 -5T217 9Q182 27 156 66T116 154T104 247Q109 321 147 375T238 454Q281 474 326 474Q348 474 369 470T411 454Q453 432 485 390Z" />
<glyph unicode="d" glyph-name="d" horiz-adv-x="620" d="M539 29Q541 13 531 5T504 -6Q481 -9 455 -4T414 10Q407 30 410 51T413 72Q405 58 390 50T360 33T337 9Q310 0 290 1T249 7Q238 9 226 11T199 14Q169 34 146 70T110 151T97 244T114 336Q131 381 164 411T246
454Q292 466 349 457Q349 456 349 456T350 454Q353 447 359 445T375 443Q380 431 386 421T403 403Q403 414 403 427T402 454Q401 489 400 528T399 602Q395 602 391 601T382 600Q368 597 354 597T334 607Q333 616 335 621T340 631Q342 634 344 638T346 647Q357 649
366 651T385 654Q411 660 434 662T487 655Q489 644 486 637T479 624Q476 621 474 618T471 610Q471 571 471 532T472 453Q474 246 478 53Q485 45 497 44T522 40T539 29ZM406 224Q406 234 406 245T407 268Q408 289 408 308T404 341Q391 380 354 401T277 416Q239 410
215 382T180 314T170 231Q171 194 180 158T205 96T244 58Q272 44 298 50T345 74T377 111Q395 141 401 163T406 224Z" />
<glyph unicode="e" glyph-name="e" horiz-adv-x="600" d="M493 239Q460 237 419 236T334 235T253 234T190 231Q191 199 195 167T212 110Q232 72 276 53T376 57Q397 66 413 83T447 114T488 129Q493 119 489 110T480 90Q476 83 474 80Q466 65 457 48T431 23Q425
20 409 18T380 11Q373 8 356 2T321 -10T292 -15Q268 -14 249 -3T212 22T174 44Q142 77 126 126T109 228Q109 279 124 327T169 411Q180 425 195 435T227 454Q275 477 328 474Q348 473 368 469T406 454Q429 443 448 420Q470 380 484 332T493 239ZM419 286Q424 360
395 392T326 425Q295 425 264 407T212 358T191 284Q218 285 243 285T292 284Q325 284 356 284T419 286Z" />
<glyph unicode="f" glyph-name="f" horiz-adv-x="510" d="M459 567Q442 550 421 550Q399 551 382 568T364 609Q335 614 318 607T291 585Q278 564 278 532T280 468Q280 466 280 465Q287 465 293 465T306 466Q334 467 360 467T403 454Q414 447 421 430Q404 423 385
422T345 421Q328 421 311 420T280 414Q279 367 279 320T277 216Q277 209 277 203T276 190Q274 149 275 114T295 56Q314 51 333 47T368 33Q364 17 351 12T321 5Q311 5 301 6T280 8Q267 9 255 10T231 10Q221 9 213 6T198 0Q186 -5 175 -7T150 -2Q141 14 144 24T157
42Q168 50 183 56T208 68Q212 114 212 164T211 267Q210 304 210 341T211 414Q203 416 190 415T169 403Q162 410 154 410T136 409Q126 407 117 407T100 418Q99 426 101 431T106 440Q108 443 109 446T112 454V457Q135 462 158 462T211 465Q214 480 214 493T212 519Q211
528 211 537T211 554Q216 592 237 614T288 645Q325 656 368 650T445 621Q445 613 447 608T452 598Q456 592 458 586T459 567Z" />
<glyph unicode="g" glyph-name="g" horiz-adv-x="600" d="M516 442Q516 421 502 417T469 413Q459 413 451 412T435 408Q446 373 452 337T452 270Q447 244 431 224T382 192Q370 188 358 178T337 165Q313 160 288 162T238 169Q234 169 230 169T222 171Q207 166 200
152T180 128Q191 100 215 98T265 99Q274 100 282 101T298 102Q329 102 363 99T429 86T482 59T509 13Q510 8 510 -5T511 -32T509 -51Q507 -62 493 -78T463 -109T435 -128Q430 -130 425 -130T415 -130Q410 -130 405 -130T394 -132Q388 -133 385 -137T376 -144Q356
-151 324 -151T255 -145T187 -130T135 -110Q124 -81 120 -50T124 7T157 47Q139 64 128 89T130 149Q145 158 158 169T188 187Q184 198 174 202T154 213Q141 239 135 265T128 315Q129 364 153 401T219 454Q222 456 225 456T233 458Q265 466 299 464T368 457Q374 456
380 456T393 454Q407 453 419 452T444 450Q450 450 455 451T467 454Q468 454 469 454Q479 457 488 457T506 453Q511 451 516 442ZM370 247Q391 280 392 324T367 408Q365 409 360 411Q338 418 317 424T277 430Q258 429 242 421T211 391Q201 375 198 347T198 288T213
235T242 204Q283 188 316 202T370 247ZM440 9Q403 36 354 38T254 36Q241 36 229 35T204 34Q201 29 199 25T193 17Q184 5 178 -7T173 -38Q175 -61 193 -77T239 -102T299 -111Q339 -111 375 -99T432 -59T440 9Z" />
<glyph unicode="h" glyph-name="h" horiz-adv-x="670" d="M593 25Q592 12 585 8T566 3Q553 3 539 5T513 9Q504 9 494 9T474 7Q453 6 434 6T403 15Q404 31 413 38T433 49T455 60Q454 84 454 126T456 211Q456 228 456 244T457 276Q458 317 453 351T427 404Q414 417
394 421T341 418Q330 415 314 403T283 375T260 346Q249 327 244 289T239 206T243 123T252 61Q269 55 289 47T313 21Q307 9 292 6T257 2Q246 2 235 3T211 5Q183 8 158 8T119 0Q108 6 108 15T110 35Q111 41 111 43Q125 51 144 53T173 66Q175 139 175 209T175 353Q175
378 175 403T175 454Q175 490 175 527T176 603Q166 608 155 608T133 605Q126 604 120 604T107 603Q100 611 101 618T106 631Q108 634 109 637T111 643Q118 644 126 645T144 647Q174 652 207 654T260 643Q261 634 258 628T251 615Q248 610 245 605T241 593Q236 564
236 527T237 454Q238 434 238 416T238 381Q253 404 274 423T323 454Q354 467 387 467Q401 467 419 464T456 454Q488 443 506 425Q519 412 524 377T531 295T531 205T527 130Q527 125 526 120T523 109Q521 100 520 92T521 76Q525 62 541 55T573 42T593 25Z" />
<glyph unicode="i" glyph-name="i" horiz-adv-x="410" d="M326 24Q326 14 307 9T262 3T211 1Q204 1 197 1T185 0Q182 0 172 2Q163 5 152 6T131 3Q118 10 119 17T123 33Q125 36 126 40T127 47Q144 55 161 61T188 82Q188 141 188 191T187 293T188 405Q178 410 168
410T147 409Q141 409 136 409T127 409Q127 414 125 418T120 426Q116 431 115 436T123 449Q133 450 143 451T165 454Q191 457 216 459T265 456V454Q265 404 264 344T260 224T254 113Q254 111 254 105Q253 99 253 93T254 82Q257 71 268 65T292 53Q305 48 315 42T326
24ZM265 604Q276 580 269 561T240 535T188 538Q170 562 174 584T192 619Q208 633 230 632T265 604Z" />
<glyph unicode="j" glyph-name="j" horiz-adv-x="447" d="M324 444Q306 415 303 361T302 244Q302 234 302 224T304 204Q307 136 307 68T297 -54Q289 -91 273 -117T227 -153Q220 -155 199 -157T154 -160T113 -155Q98 -150 87 -140T58 -121Q51 -104 47 -82T49 -39Q69
-15 85 -16T115 -32Q130 -48 141 -73T157 -116Q188 -117 212 -102T240 -55Q247 -7 245 65T238 212Q235 265 233 314T232 400Q226 402 220 401T205 396Q197 393 187 391T164 391Q160 400 157 410T152 434Q174 447 205 454Q230 459 256 460T303 454Q309 453 314 450T324
444ZM310 558Q297 536 274 535T232 545T211 578Q209 607 227 621T266 633Q288 631 303 612T310 558Z" />
<glyph unicode="k" glyph-name="k" horiz-adv-x="620" d="M557 35Q555 20 544 14T517 5Q505 3 493 3T470 4Q465 5 461 5T453 5Q419 61 384 115T315 227Q293 214 277 195T243 159Q242 147 242 136T242 115Q242 104 242 94T240 71Q255 55 279 48T323 30Q319 15 301
9T261 3T227 8Q202 3 172 0T118 6Q113 13 114 17T118 26Q120 29 121 32T122 39Q132 49 147 53T177 62Q181 152 179 249T173 448V454Q172 491 171 528T168 602Q159 602 153 600T141 595Q133 592 126 590T108 591Q104 597 105 604T108 619Q110 623 111 626T112 634Q136
639 160 646T204 654Q218 654 229 649T250 629Q241 593 239 549T237 454Q238 399 239 343T241 234Q284 265 326 313T405 407Q398 408 380 410T338 414Q340 425 340 436T345 454Q346 456 348 458Q367 454 386 454T426 457Q434 458 442 458T459 459Q472 459 484 458T506
453Q513 451 519 448T531 439Q524 423 505 419T468 408Q438 377 413 342T359 273Q375 239 398 204T443 137T477 75Q499 68 521 60T557 35Z" />
<glyph unicode="l" glyph-name="l" horiz-adv-x="429" d="M326 28Q313 17 294 12T252 5Q242 5 232 5T211 5Q190 5 171 4T139 -2Q121 3 121 21T132 54Q145 53 155 55T174 62Q180 64 183 65Q185 159 185 258T184 454Q183 490 182 526T179 596Q176 596 171 596T158
597Q149 597 140 597T121 598Q113 606 113 610T117 619Q119 622 120 625T121 632Q133 641 150 644T184 652T212 665Q219 663 224 661T235 654Q242 650 251 646T273 643Q256 605 252 556T247 454Q247 429 248 404T249 354Q249 335 249 316T250 279Q251 227 251 179T248
81Q256 67 272 62T304 51T326 28Z" />
<glyph unicode="m" glyph-name="m" horiz-adv-x="890" d="M809 30Q805 16 790 11T755 6T717 6Q713 7 709 7T701 7Q692 7 683 8T664 11Q653 13 642 14T621 15Q621 37 635 42T667 52Q680 73 681 110T681 191Q681 196 681 201T680 212Q679 247 679 282T675 346Q671
373 658 391T614 411Q583 413 562 401T526 365Q503 328 496 274T488 170Q488 168 488 164Q488 129 490 101T508 52Q510 52 513 51Q529 48 541 42T552 15Q513 7 486 7T427 8Q413 9 397 9T361 10Q360 25 366 32T383 43Q393 47 403 50T419 61Q420 85 420 123T421 205T422
285Q422 327 414 360T380 408Q358 421 339 418T302 402Q281 386 265 362T236 318Q236 312 236 307T235 295Q234 229 234 164T247 49Q257 44 270 42T295 36T308 18Q294 6 276 6T239 8Q230 9 222 9T205 10Q196 10 188 9T171 6Q152 3 135 3T102 15Q104 35 114 40T138
47T162 61Q166 142 164 233T159 408Q158 412 158 415T158 423Q156 423 147 422Q135 420 122 420T102 430Q103 444 117 454Q132 466 155 469T199 471T231 459Q231 458 231 457T232 454Q233 443 232 425T229 394T227 380Q244 414 283 433T364 453Q405 454 438 434T480
368Q500 391 518 415T564 453Q579 460 597 463T640 462Q657 459 671 453Q702 440 718 413T740 348Q746 314 746 275T746 196Q745 162 745 129T748 65Q764 57 781 51T809 30Z" />
<glyph unicode="n" glyph-name="n" horiz-adv-x="670" d="M582 25Q579 13 561 8T520 2T482 2Q460 4 438 10T399 18Q399 35 408 42T430 53T451 67Q452 88 453 119T456 187T458 255Q458 300 451 338T422 399Q377 411 346 402T293 370Q267 341 256 294T244 194Q244
158 247 123T257 55Q268 47 284 45T310 33Q308 18 294 13T259 5Q248 4 236 4T212 5Q202 5 192 5T173 5Q168 5 164 5T154 4Q141 2 131 2T115 13Q112 26 119 36Q124 44 135 46T157 51T173 62Q181 141 179 230T173 407Q170 410 164 409T150 404Q144 402 138 401T127
399Q111 404 111 420T111 445Q123 447 135 449T160 454Q173 457 185 459T208 461Q217 461 225 460T240 454Q247 450 253 441Q253 432 251 427T247 416Q244 410 243 403T245 383Q258 390 270 403T296 429T330 448Q345 453 358 454Q375 456 391 454Q432 450 466 428T520
380Q520 377 520 371Q522 305 523 223T520 62Q536 53 554 47T582 25Z" />
<glyph unicode="o" glyph-name="o" horiz-adv-x="619" d="M524 293Q530 238 520 183T491 79Q474 73 463 60T439 36T403 23Q398 24 397 21T396 14Q396 5 392 4Q351 -12 310 -12Q265 -12 228 6T163 55Q131 90 114 137T95 235Q95 270 103 304T130 370Q134 377 142
382T158 397Q172 414 186 429T225 454Q230 456 238 458Q263 465 293 468T343 469Q371 466 398 454Q446 432 482 388T524 293ZM451 245Q450 272 442 303T422 361T403 397Q390 414 368 419T331 426Q294 429 266 416T219 380Q197 352 187 313T176 233Q177 172 200
117T267 36Q312 29 344 39T399 72Q428 102 440 148T451 245Z" />
<glyph unicode="p" glyph-name="p" horiz-adv-x="655" d="M537 147Q535 141 528 124T513 89T500 64Q482 37 450 25T381 13Q339 13 299 27T237 64Q233 42 232 10T232 -53T237 -104Q252 -114 270 -122T308 -136Q300 -159 277 -166T223 -173Q212 -173 200 -172T176
-170Q158 -169 142 -168T112 -168Q102 -163 102 -150T104 -128Q105 -125 105 -124Q122 -118 138 -112T166 -94Q167 -24 166 67T164 249Q164 291 164 331T163 407Q158 411 151 410T134 408Q125 406 116 406T99 410Q91 416 92 422T98 435Q101 439 102 442T105 450Q111
451 116 452T128 454Q133 455 138 456T149 458Q174 464 197 466T238 454Q240 453 242 451T246 446Q239 437 236 418T231 384T230 368Q253 395 276 419T330 454Q340 458 350 459T372 462Q401 463 428 454Q460 442 485 415T526 353Q546 307 550 253T537 147ZM472
225Q474 283 457 336T407 414Q370 424 346 418T303 396Q281 377 267 351T237 301Q231 258 231 216T242 139Q250 111 266 90T308 57Q328 49 349 49T384 53Q414 62 433 88T461 150T472 225Z" />
<glyph unicode="q" glyph-name="q" horiz-adv-x="663" d="M573 -131Q570 -155 552 -163T508 -172Q496 -172 484 -172T459 -170Q434 -168 411 -168T372 -175Q358 -168 357 -159T356 -140Q357 -134 357 -131Q374 -120 394 -116T431 -101Q432 -88 432 -67T432 -21Q432
13 432 45T435 93Q427 93 423 83T415 62T403 45Q393 43 384 41T364 35Q331 26 297 21T226 29Q198 49 171 80T127 152Q112 189 109 233T120 329Q132 372 164 405T238 454Q267 465 298 467T361 459Q365 458 368 457T376 454Q395 447 414 436T444 416Q456 423 464
434T482 453Q488 458 496 461T515 463L514 453Q508 397 508 333T508 200Q508 124 508 46T499 -107Q514 -117 536 -118T573 -131ZM435 187Q444 227 442 271T427 351T393 404Q375 418 347 422T290 424Q236 419 218 384T195 294Q191 247 194 202T213 122T255 74Q287
58 318 66T374 94Q397 113 413 138T435 187Z" />
<glyph unicode="r" glyph-name="r" horiz-adv-x="500" d="M432 410Q445 380 429 364T390 348Q371 348 356 362T348 407Q329 404 316 395T292 373Q279 357 269 338T245 304Q240 267 240 237T240 177Q240 155 240 132T238 83Q240 71 251 65T276 53Q291 49 303 44T317
29Q319 14 307 10T279 5Q264 5 249 7T226 9Q209 10 193 7T162 0Q151 -3 142 -5T123 -7Q111 1 112 10T117 30Q119 37 120 40Q137 45 150 51T172 70Q172 100 172 126T173 178Q173 238 173 293T164 414Q158 414 154 413T145 411Q136 410 129 410T111 414Q103 421 104
427T108 440Q110 445 111 448Q119 450 127 451T142 454Q146 455 153 457Q175 462 195 465T238 461Q238 460 238 458T239 454Q239 446 239 439T237 426Q236 414 236 404T241 385Q255 392 272 407T311 435Q327 444 345 448T385 448Q402 444 410 433T432 410Z" />
<glyph unicode="s" glyph-name="s" horiz-adv-x="540" d="M428 113Q427 97 420 84T408 54Q391 37 375 18T325 -8Q312 -10 293 -11T255 -11T227 -8Q223 -7 218 -3T206 6Q200 11 195 15T186 19Q179 19 176 14T169 2Q166 -4 162 -9T151 -13Q137 -10 132 0T127 24Q127
41 130 60T134 95Q134 100 134 105T133 116Q132 132 133 144T150 158Q170 124 188 89T235 28Q309 22 347 54Q364 68 370 90T369 144Q343 164 312 178T249 206T189 237T141 281Q141 284 140 291Q135 320 134 349T148 403Q154 412 166 424T194 447T219 461Q244 470
269 468T320 461Q326 460 331 459T343 457Q366 454 387 454Q402 454 414 458Q414 451 414 445T414 433Q415 382 410 351T375 320Q368 346 361 369T340 410T302 433Q283 437 262 431T223 410Q204 394 195 373T196 333Q211 307 246 291T318 257Q348 243 374 225T416
180T428 113Z" />
<glyph unicode="t" glyph-name="t" horiz-adv-x="513" d="M426 40Q416 17 386 5T320 -7Q293 -7 269 0T230 20Q217 52 213 95T209 186Q209 207 209 228T211 271Q212 302 212 333T212 395Q200 399 187 398T159 396Q155 395 152 395T144 394Q128 393 115 395T93 411Q91
417 92 420T96 426Q98 428 99 430T101 437Q111 443 130 444T171 446T212 449L213 454Q220 489 230 519T254 578Q261 577 266 578T275 582Q281 585 288 586T307 583Q294 558 289 527T284 454V453Q322 454 350 446T395 411Q375 403 343 400T289 399Q288 377 287 354T283
307Q279 244 277 179T284 58Q300 46 318 47T354 51Q356 51 357 51Q358 51 361 52Q380 54 397 54T426 40Z" />
<glyph unicode="u" glyph-name="u" horiz-adv-x="650" d="M564 20Q559 5 545 0T512 -6Q503 -6 493 -6T474 -5Q466 -4 459 -4T445 -4Q430 3 429 17T429 49Q429 56 429 63T430 77Q418 71 408 63T386 45Q364 27 339 11T274 -4Q253 -3 240 5T205 16Q176 51 167 99T157
201Q157 222 157 244T159 289Q160 320 160 350T159 409Q155 409 150 409T140 407Q129 405 119 405T102 413Q103 430 113 440T140 454Q148 456 156 457T173 458Q182 458 191 457T208 454Q233 448 243 436Q227 382 224 314T221 172Q222 147 225 122T236 77T259 51Q282
42 307 46T354 62T389 89Q408 110 417 140T430 205Q433 240 432 278T429 352Q429 364 428 375T427 398Q423 398 415 397Q403 396 390 397T370 413Q372 420 374 425T377 440Q394 442 410 446T440 454Q455 457 468 457Q474 457 479 456T490 453Q505 448 517 436Q504
432 504 417T496 391Q498 349 498 295T499 185Q499 174 499 164T497 142Q495 115 495 92T510 51Q525 45 538 37T564 20Z" />
<glyph unicode="v" glyph-name="v" horiz-adv-x="647" d="M578 417Q574 416 570 415T562 414Q551 411 538 409T509 408Q487 371 471 327T444 233Q412 181 390 120T349 -7Q346 -6 342 -7T334 -10Q327 -13 320 -13T306 -4Q274 53 252 120T209 254T154 377Q154 384
154 390T158 401Q153 403 147 402T133 400Q121 398 110 398T92 408Q85 417 88 426T95 442Q99 449 100 452Q115 448 134 448T175 449Q184 449 194 449T213 450Q244 450 269 443T303 412Q286 406 265 405T219 405Q248 329 278 255T334 103Q369 173 397 250T456 401Q442
405 425 408T396 418T383 439Q387 446 397 449T420 454Q426 455 432 455T444 455Q458 455 473 455T501 453Q527 450 547 442T578 417Z" />
<glyph unicode="w" glyph-name="w" horiz-adv-x="810" d="M746 409Q741 399 728 398T700 397Q693 398 687 398T674 397Q639 303 609 203T555 -5Q549 -5 545 -6T536 -9Q531 -11 526 -11T512 -5Q485 73 461 154T409 313Q386 244 357 165T310 8Q297 -6 285 -5T261
0Q258 1 255 2T249 4Q223 105 195 203T138 400Q123 397 110 397T84 405Q85 411 84 415T79 423Q76 429 75 435T84 451Q91 451 99 451T116 451Q138 452 162 452T208 450Q233 448 253 442T283 421Q269 411 249 406T203 400Q226 333 245 257T290 107Q326 179 351 262T406
424Q422 427 436 427T462 421Q464 415 462 412T457 408Q452 404 452 400Q470 326 493 257T536 114Q553 148 568 193T598 290T623 390Q604 393 590 402T565 424Q563 429 565 431T570 434Q573 435 575 436T578 443Q588 442 599 442T624 443Q635 444 646 444T670 444Q695
443 716 436T746 409Z" />
<glyph unicode="x" glyph-name="x" horiz-adv-x="630" d="M546 20Q536 9 519 5T480 0Q468 0 456 1T431 2Q406 4 384 4T345 0Q334 10 335 17T340 32Q342 35 343 39T345 47Q359 46 367 49T381 57Q387 61 390 62Q384 86 369 111T339 156T318 184Q288 156 264 121T214
54Q230 42 250 35T279 9Q265 2 248 0T210 -3Q202 -3 194 -3T176 -2Q159 -1 143 -1T111 -3Q108 0 108 4T101 9Q95 17 96 21T100 31Q102 34 103 38T104 47Q127 52 145 62T178 85Q194 104 213 132T251 188T279 234Q254 275 228 314T168 387Q164 391 164 394T166 401Q168
406 168 409Q158 410 151 409T136 406Q131 405 127 404T116 402Q109 408 108 419T105 442Q105 446 105 450T104 459Q127 452 151 452T199 453Q211 454 223 454T248 454Q269 453 286 447T314 425Q304 415 286 408T250 402Q265 371 283 344T318 287Q348 312 369 345T413
409Q402 415 384 415T353 418Q355 427 357 435T363 452Q378 451 395 452T429 454H430Q444 455 457 455T485 453Q499 451 510 446T528 429Q501 420 483 404T447 368Q422 340 401 307T353 246Q379 199 411 158T463 62Q490 58 508 45T546 20Z" />
<glyph unicode="y" glyph-name="y" horiz-adv-x="620" d="M569 425Q564 412 553 409T528 403T503 390Q493 380 491 372T482 346Q471 316 452 274T409 183T361 85T316 -9T279 -86Q271 -105 261 -122T234 -151Q210 -167 173 -161Q152 -157 143 -144T112 -121Q111
-100 119 -87T140 -66Q157 -58 176 -61T209 -81Q226 -71 242 -45T272 11T293 59Q290 68 283 72T270 82Q242 165 209 243T145 402Q127 401 111 402T84 409Q77 417 78 421T83 430Q85 432 87 435T88 444Q93 444 98 444T110 446Q129 448 153 450T201 451Q232 450 257
444T293 421Q277 414 260 408T222 396Q245 329 271 268T321 139Q359 195 385 260T438 393Q434 397 426 397T409 398Q401 397 393 397T380 402Q380 406 380 409T378 417Q376 425 376 431T386 444Q397 444 406 444T426 445Q469 446 502 444T569 425Z" />
<glyph unicode="z" glyph-name="z" horiz-adv-x="578" d="M459 68Q459 59 457 51T452 36Q450 29 448 23T447 11Q396 7 338 6T221 8T112 19Q107 42 116 55T138 80Q143 84 148 89T157 99Q171 116 181 138T204 179Q242 233 280 290T356 405Q335 415 314 412T269 403Q252
398 235 395T199 393Q182 381 176 358T166 308Q162 309 159 308T153 305Q150 302 147 302T138 305Q128 326 129 352T134 404Q135 414 136 423T138 442Q161 440 189 441T248 446Q305 451 362 451T459 431Q462 422 459 416T452 403Q448 397 445 391T441 374Q433 370
426 365T405 359Q353 287 305 211T207 60Q221 60 236 59T265 57Q296 54 324 54T372 65Q387 73 394 87T407 118T421 149T444 171Q454 167 457 149T460 108T459 68Z" />
<glyph unicode="{" glyph-name="braceleft" horiz-adv-x="602" d="M502 713Q498 699 487 695T460 690Q457 690 454 690T446 690Q434 691 421 691T397 686Q377 673 370 646T363 584T367 513Q367 510 367 508Q368 495 368 482T369 454Q370 412 361 378T323 330Q332
316 342 309T362 291T372 256Q373 246 372 233T368 203Q366 184 365 164T364 123Q365 111 365 99T365 75Q365 48 366 25T375 -7Q384 -18 399 -21T432 -24T467 -26T498 -37Q493 -57 469 -63T416 -67T368 -59Q341 -50 328 -27T310 29T305 101Q305 117 305 134T307
168Q308 201 308 232T305 289Q294 297 281 298T255 299Q239 299 225 302T200 319Q205 334 221 337T256 343Q274 345 289 350T308 371Q310 390 310 411T308 454Q307 481 306 509T304 565Q304 603 309 638T330 698Q345 708 365 714T417 723Q422 723 427 724T438 726Q458
728 477 728T502 713Z" />
<glyph unicode="|" glyph-name="bar" horiz-adv-x="400" d="M181 -166Q176 -160 176 -155T176 -143Q177 -138 177 -133T171 -121Q175 -93 175 -70T179 -24Q177 40 177 103T178 230Q180 308 180 386T175 542Q175 543 176 544Q178 551 179 561T179 594Q176 625 177
650T179 697Q181 721 181 742T176 783Q179 789 180 794T181 806Q182 814 184 821T194 835Q201 836 204 834T212 829Q213 827 215 825T221 821Q219 788 219 753T220 673Q220 645 220 613T221 542Q221 484 221 426T221 308Q222 235 222 161T221 12Q221 -1 221 -14T222
-39Q222 -82 221 -114T211 -161T181 -166Z" />
<glyph unicode="}" glyph-name="braceright" horiz-adv-x="593" d="M393 335Q390 319 378 316T350 313Q347 313 341 313Q328 313 317 312T297 302Q287 271 287 231T290 148Q291 130 291 113T292 79Q292 31 282 -6T237 -55Q219 -61 201 -61T163 -58Q152 -57 140
-56T115 -55Q120 -36 135 -33T168 -29Q180 -29 191 -28T211 -21Q224 -13 229 10T234 66T232 134V135Q232 137 232 141Q230 183 230 221T238 289T267 330Q242 349 234 380T225 454V498Q225 504 225 510T226 523Q227 560 227 594T221 653T203 687Q191 695 179 695T152
692Q139 690 126 689T100 694Q98 700 102 707T115 724Q152 726 189 725T252 712Q269 705 279 692T293 657Q294 652 293 647T289 637Q288 633 287 629T285 620Q283 596 284 569T288 514Q289 499 289 484T291 454Q293 411 288 372Q298 358 315 355T353 349T393 335Z"
/>
<glyph unicode="~" glyph-name="asciitilde" horiz-adv-x="745" d="M653 377Q647 366 640 350T630 324Q603 296 578 275T514 253Q477 253 442 271T369 318Q344 337 317 355T264 386T221 398Q197 398 180 388T139 355Q135 348 128 338T111 322T91 319Q81 340 91
356T114 384Q119 389 121 391Q136 406 152 421T187 444Q203 450 218 453T250 457Q278 457 308 442T384 405Q401 392 422 375T465 344T507 331Q528 331 544 334T573 348Q590 360 609 380T645 419Q659 410 659 399T653 377Z" />
<glyph unicode="&#xa0;" glyph-name="nbspace" horiz-adv-x="250" />
<glyph unicode="&#xa1;" glyph-name="exclamdown" horiz-adv-x="387" d="M250 -96Q246 -122 227 -134T185 -145T148 -124Q140 -115 140 -95T142 -52T149 -7Q149 -3 149 0T151 8Q153 25 155 42T158 78Q162 131 163 185T171 291Q173 304 173 319T179 348T196 368Q213
357 215 336T215 290Q215 281 215 273T215 256Q217 217 218 168T230 78L231 74Q237 51 243 20T251 -43T250 -96ZM249 452Q237 425 209 415T151 425Q132 454 136 476T157 513T195 527Q218 528 235 511T249 452Z" />
<glyph unicode="&#xa2;" glyph-name="cent" horiz-adv-x="631" d="M529 224Q532 208 527 197T513 175Q498 159 479 146T451 112Q440 110 432 107T415 99Q402 93 388 89T352 86Q352 79 352 72T354 58Q356 31 355 6T330 -30Q308 -23 305 1T302 51Q302 59 302 67T301
82Q235 86 191 123T125 218T104 337Q105 399 128 456T196 550T309 589Q312 605 312 627T315 667Q318 686 329 695T365 692Q365 682 364 674T361 657Q359 640 358 625T361 589Q403 580 440 567T501 527T529 453Q523 438 506 432T471 428T442 443Q448 548 356 554Q353
497 353 441T353 328Q354 281 354 233T352 134Q371 132 392 140T433 158Q439 161 444 164T455 169Q467 176 474 187T492 208Q499 215 507 219T529 224ZM306 142Q304 189 304 242T306 351Q307 405 307 458T306 559Q263 551 237 521T200 448T189 358Q190 309 201
262T231 181Q237 178 243 173T255 163Q266 153 278 145T306 142Z" />
<glyph unicode="&#xa3;" glyph-name="sterling" horiz-adv-x="718" d="M605 181Q616 154 610 123T596 62Q592 51 590 41T585 21Q573 9 558 9T526 12Q520 12 514 13T502 14Q460 16 419 14T336 9Q316 8 297 7T258 5Q250 5 242 6T226 10Q219 11 211 12T196 14Q183
13 169 8T142 3Q135 3 128 6T114 18Q119 34 130 45T154 67T175 92Q199 136 212 198T221 333Q204 336 193 336T170 333Q164 331 156 330T138 329Q130 338 131 349T135 371Q137 378 138 382Q148 386 161 386T189 386Q196 385 203 385T216 385Q221 429 221 471T231
550Q237 575 249 595T285 631Q321 654 367 662T461 676Q501 676 536 657T593 611Q596 598 596 590T595 574Q594 569 594 564T593 550Q564 527 519 542Q517 545 514 552Q509 560 505 570T502 595Q491 611 470 620T424 631T379 628Q351 621 335 600T310 550Q300 513
300 470T302 391Q317 385 334 384T368 384Q376 384 383 384T398 383Q415 382 429 378T453 361Q448 344 431 338T392 332Q384 332 376 332T359 333Q344 334 330 334T302 333Q296 283 288 235T264 146T221 75Q261 74 297 74T367 76Q405 76 440 76T511 75Q529 82 539
96T558 127T577 159T605 181Z" />
<glyph unicode="&#xa4;" glyph-name="currency" horiz-adv-x="694" d="M560 377Q560 375 560 370T560 360Q560 352 560 345T559 335Q554 317 541 290T524 239Q538 226 548 216T565 194Q571 184 566 171T546 146Q534 150 524 162T504 187T481 199Q426 171 367 165T253
180Q232 187 212 206Q190 181 166 168T111 180Q123 200 141 215T172 253Q156 277 146 306T134 367Q133 375 133 383T133 398Q133 426 145 455T179 511Q173 517 167 522T156 532Q136 549 125 563T123 590Q129 598 138 601T157 613Q171 608 183 588T221 553Q250 576
282 588T348 595Q410 586 437 575T476 553Q495 557 505 568T527 590T559 601Q573 581 570 567T556 541T533 521Q528 518 524 515T517 508Q537 480 550 445T560 377ZM499 377Q501 409 487 436T459 482Q456 487 453 491T448 499Q442 510 423 517T380 529T334 533T301
529Q243 507 233 479Q231 473 228 467T221 453Q212 434 205 413T202 367L208 343Q219 289 253 259T340 229Q375 229 409 241T454 269Q461 278 471 296T489 337T499 377Z" />
<glyph unicode="&#xa5;" glyph-name="yen" horiz-adv-x="760" d="M667 623Q660 619 653 619T637 618Q629 618 622 618T609 614Q596 607 594 596T584 571Q582 567 575 566T564 559Q561 555 561 547T558 531Q549 515 536 495T508 453Q497 436 488 420T473 390Q509
391 537 385T587 359Q576 347 555 345T511 342Q497 342 483 342T457 338Q438 334 428 322T422 282Q438 276 457 276T496 275Q502 276 508 276T520 276Q544 276 563 271T592 245Q573 231 550 229T500 228Q482 228 463 228T423 224Q424 206 423 189T421 156Q420 137
420 119T420 79Q435 66 456 60T497 44T523 13Q508 2 490 2T454 6Q451 6 448 7T441 8Q420 11 399 10T357 5Q331 2 308 1T268 11Q263 18 264 23T267 33Q269 36 270 40T271 49Q273 49 276 50Q286 52 296 53T318 53Q338 63 344 80T350 118Q350 127 350 138T349 161Q349
179 349 196T349 227Q313 222 274 222T203 218Q201 221 197 227Q189 238 183 250T186 273Q221 272 262 271T352 271Q351 291 344 308T319 337Q311 337 303 337T286 337Q262 337 240 336T205 324Q196 335 189 350T186 382Q205 379 222 379T257 381Q267 382 277 382T300
383Q290 401 278 419T253 454Q235 480 220 505T195 559Q185 568 175 579T164 606Q155 607 148 607T134 605Q129 604 123 603T109 603Q106 612 97 615Q94 623 95 628T99 640Q100 643 101 646T104 654Q126 653 148 653T191 654Q202 654 212 654T233 655Q262 655 287
650T330 624Q323 612 305 610T267 608Q262 608 259 608Q270 566 294 529T344 454Q358 433 371 411T394 365Q410 385 424 408T451 454Q473 492 493 532T534 610Q529 613 522 613T507 612Q496 611 484 611T463 618Q462 624 461 633T464 650T481 657Q495 657 510 657T542
658Q553 658 564 658T587 659Q615 659 637 652T667 623Z" />
<glyph unicode="&#xa6;" glyph-name="brokenbar" horiz-adv-x="503" d="M285 385Q277 375 263 378T233 393Q234 410 234 425T234 454Q234 464 234 473T234 492Q234 510 234 527T234 562Q234 569 234 576T234 590Q233 617 236 639T267 668Q287 646 287 619T284
563Q283 560 283 557T282 550Q279 522 280 498T282 454Q282 452 283 447Q284 429 285 414T285 385ZM285 278Q285 270 284 262T283 244Q281 215 280 181T282 113Q286 81 286 47T267 -5Q241 -1 237 24T234 78Q234 84 234 89T234 101Q233 137 233 170T233 233Q233
243 233 252T233 270Q249 282 263 285T285 278Z" />
<glyph unicode="&#xa7;" glyph-name="section.full" horiz-adv-x="1000" d="M697 355Q702 301 681 273T628 227Q651 214 662 188T672 132Q671 98 658 68T619 25Q595 13 565 7T503 -1Q449 -2 400 14T330 65Q319 83 319 106T332 157Q352 165 367 158T394 142Q398
133 398 124T397 106Q396 98 396 91T397 76Q404 57 433 47T497 36Q529 36 559 46T606 77Q627 102 615 142Q612 152 594 166T561 188Q533 201 487 214T398 245Q365 259 340 276T305 317Q295 346 304 372T335 419T383 452Q356 466 344 495T332 564Q340 598 366 620T430
654T507 666Q552 667 591 653T653 609T666 534Q651 524 632 524T596 527Q595 556 587 576T561 616Q529 629 494 627T429 612T383 577Q387 547 409 527T463 492T526 466Q561 454 594 441T655 407T697 355ZM643 324Q639 346 615 356T561 377Q521 393 481 409T413
433Q401 436 389 426T368 402T359 383Q357 361 372 344T403 317Q432 301 468 290T540 269T604 242Q606 245 608 247T613 252Q629 268 638 283T643 324Z" />
<glyph unicode="&#xa8;" glyph-name="dieresis" horiz-adv-x="503" d="M203 743Q206 706 190 690T154 675Q135 676 119 688T100 720T114 767Q140 787 165 777T203 743ZM403 743Q406 706 390 690T354 675Q335 676 319 688T300 720T314 767Q340 787 365 777T403 743Z" />
<glyph unicode="&#xa9;" glyph-name="copyright" horiz-adv-x="579" d="M504 556Q505 505 485 458T429 385L425 379Q424 377 423 375T419 371L417 369Q407 366 398 361T381 350Q374 346 366 341T356 335Q274 318 204 346Q175 359 158 375T123 413Q92 451 81 502T81
603Q89 634 110 664T163 717Q225 762 295 759Q330 759 341 751Q349 754 358 752Q398 740 424 717Q429 713 428 709Q450 700 458 672Q481 653 492 622T504 556ZM477 527Q482 564 471 597T443 656T408 696Q384 717 343 727T262 732Q215 725 172 691Q145 669 122 628T100
538Q100 510 111 482Q117 468 130 449T157 412T182 388Q203 374 235 366T301 358T357 368Q404 388 437 432T477 527ZM396 495Q397 483 391 470T379 449Q371 439 359 430T336 416Q325 413 309 411T281 408Q264 408 253 414T230 430Q224 434 218 438T207 446Q192
460 183 490T175 554Q175 566 177 576T182 596Q185 605 189 614T197 630Q208 647 229 662T269 680Q296 686 320 680T363 663Q367 663 372 669Q374 671 376 673T383 675Q385 669 385 663T383 650Q383 647 383 644T381 636Q381 632 381 628T383 620Q383 613 383 607T381
595Q380 593 379 591Q373 592 370 595Q367 599 366 605T365 619Q365 622 365 626T364 633Q350 651 328 656T284 657Q263 653 245 641T219 612Q215 605 213 596Q205 566 210 531T231 472Q236 464 242 459T252 446Q262 443 271 438T292 432Q316 431 335 443T365 469Q366
471 369 476Q373 485 379 493T396 495Z" />
<glyph unicode="&#xaa;" glyph-name="ordfeminine" horiz-adv-x="414" d="M347 336Q350 331 349 329T347 324Q344 319 345 315Q315 300 289 314T261 360Q242 345 220 331T172 309Q137 309 112 327T72 374Q69 411 79 435T107 474Q135 496 176 502T264 513Q266 557
257 589T211 623Q189 623 172 610T142 579Q145 571 145 559T142 538Q116 531 105 539T93 562Q90 590 114 612Q127 623 142 630Q173 645 213 647T281 630Q290 623 297 614Q304 604 309 585T314 551Q315 532 314 512T312 471Q310 443 309 414T310 355Q313 344 325
343T347 336ZM263 486Q239 479 211 475T159 461T125 432Q123 403 127 382T146 349Q181 345 215 360T259 404Q263 415 263 431T264 463T263 486Z" />
<glyph unicode="&#xab;" glyph-name="guillemetleft" horiz-adv-x="570" d="M489 431Q487 428 479 419T460 400Q437 378 414 350T374 296T351 257Q371 229 394 199T440 133Q455 126 459 115T472 89Q477 80 476 69T468 43Q437 62 421 83T391 128T354 173Q339 188
330 207T301 252Q310 279 321 298T350 333Q364 347 375 365T404 404Q421 424 438 440T464 469Q485 461 489 431ZM565 431Q563 428 555 419T536 400Q513 378 490 350T450 296T427 257Q447 229 470 199T516 133Q531 126 535 115T548 89Q553 80 552 69T544 43Q513
62 497 83T467 128T430 173Q415 188 406 207T377 252Q386 279 397 298T426 333Q440 347 451 365T480 404Q497 424 514 440T540 469Q561 461 565 431Z" />
<glyph unicode="&#xac;" glyph-name="logicalnot" horiz-adv-x="649" d="M507 117Q491 138 489 179T487 264Q487 291 487 315T483 359Q436 367 387 367T290 365Q234 363 181 363T80 376Q82 406 96 415T133 426Q187 430 245 430T365 429Q411 428 458 428T550 429Q554
396 554 357T553 282Q553 259 553 239T553 203Q553 199 554 192Q555 175 554 160T543 133T507 117Z" />
<glyph unicode="&#xad;" glyph-name="softhyphen" horiz-adv-x="539" d="M484 293Q433 287 382 288T286 291Q271 292 257 292T231 293Q213 293 198 292T168 289Q141 287 115 287T56 297Q48 311 52 329T67 349Q121 353 167 352T263 349Q276 348 288 348T315 347Q337
347 354 347T387 349Q407 350 423 350T453 348Q460 347 470 340T486 321T484 293Z" />
<glyph unicode="&#xae;" glyph-name="registered" horiz-adv-x="579" d="M504 556Q505 505 485 458T429 385L425 379Q424 377 423 375T419 371L417 369Q407 366 398 361T381 350Q374 346 366 341T356 335Q274 318 204 346Q175 359 158 375T123 413Q92 451 81 502T81
603Q89 634 110 664T163 717Q225 762 295 759Q330 759 341 751Q349 754 358 752Q398 740 424 717Q429 713 428 709Q450 700 458 672Q481 653 492 622T504 556ZM477 527Q482 564 471 597T443 656T408 696Q384 717 343 727T262 732Q215 725 172 691Q145 669 122 628T100
538Q100 510 111 482Q117 468 130 449T157 412T182 388Q203 374 235 366T301 358T357 368Q404 388 437 432T477 527ZM409 417Q395 414 384 415T361 419Q349 433 342 456T326 501Q319 515 310 524T287 535Q281 536 275 536T262 536Q258 535 254 535T246 536Q245
525 245 514T247 492Q247 480 247 468T246 444Q250 435 262 434T280 426Q275 419 264 418T240 416Q236 416 233 416T226 417Q216 417 207 417T191 414Q188 423 191 427T200 434Q205 437 210 439T218 446Q217 486 217 522T215 596L214 654Q210 656 207 656T200 655Q196
655 193 655T186 658Q186 661 184 664Q183 667 184 670Q192 674 202 674T223 675Q228 675 232 675T241 675Q275 677 306 676T357 659Q368 650 373 637T377 602Q377 600 376 599T374 595Q372 590 370 586T367 575Q353 569 345 558T318 546Q343 530 356 503T381 446Q384
445 391 442Q399 439 405 434T409 417ZM341 611Q341 630 329 650Q315 658 299 658T265 659Q261 659 257 659T249 658Q245 655 245 649T246 635Q246 627 246 624Q246 617 246 610T245 596Q244 585 244 574T246 552Q265 549 285 552T319 566Q334 578 339 595Q341
603 341 611Z" />
<glyph unicode="&#xaf;" glyph-name="overscore" horiz-adv-x="407" d="M303 702Q268 696 242 697T195 700Q189 701 183 701T172 702Q165 702 159 702T147 701Q136 701 126 701T105 706Q98 720 101 736T115 753Q131 757 147 756T185 754Q189 753 193 753T202 752Q211
751 219 751T235 753Q246 754 255 754T275 752Q281 751 290 745T305 729T303 702Z" />
<glyph unicode="&#xb0;" glyph-name="degree" horiz-adv-x="428" d="M344 593Q331 563 315 540T274 506T207 496Q202 496 197 497T187 500Q180 503 173 504T155 504Q141 515 124 526T95 561T82 628Q82 672 110 705T177 748Q196 753 229 752T296 732Q317 707 334
677T344 593ZM292 629Q292 646 283 663T260 694Q218 708 190 699T148 669T133 623Q133 594 151 570T206 543Q228 543 247 555T279 588T292 629Z" />
<glyph unicode="&#xb1;" glyph-name="plusminus" horiz-adv-x="643" d="M569 345Q519 339 474 339T380 341Q371 341 362 341T343 342Q344 321 344 300T342 256Q341 236 341 214T340 168Q340 165 340 162T340 155Q341 142 340 130T325 107Q307 113 303 124T287
146Q287 162 288 177T289 207Q291 243 292 277T290 345Q276 345 262 344T233 341Q193 338 153 338T75 349Q67 363 72 377T86 395Q107 394 129 394T175 395Q203 396 232 396T291 393Q293 412 293 436T291 484Q291 495 291 505T290 525Q290 548 292 571T306 607T343
612Q346 578 346 547T345 484Q344 461 344 438T343 393Q360 389 385 390T429 393Q432 393 434 393Q438 393 446 394Q468 396 492 397T538 394Q545 393 555 387T571 371T569 345ZM550 23Q503 17 464 17T381 20Q360 21 338 22T291 23Q274 23 257 23T223 21Q189 20
155 20T86 27Q78 41 82 54T97 69Q187 75 263 75T415 72Q424 72 434 72T454 74Q471 75 487 75T519 73Q526 72 536 66T552 50T550 23Z" />
<glyph unicode="&#xb2;" glyph-name="uni00B2" horiz-adv-x="400" d="M327 535Q341 522 338 504T330 467Q327 459 325 453T323 440Q290 434 253 434T177 434Q150 435 124 435T74 433Q74 439 75 444T77 455Q77 462 78 467T78 476Q88 485 91 497T99 521Q118 554
146 579T204 626T261 673Q266 680 269 688T274 704Q277 720 276 736T271 766Q265 787 247 797T207 808Q185 808 166 793T140 762Q136 751 137 735T134 704Q131 690 120 688T97 690T78 704Q75 721 82 741T102 781Q123 805 150 819T221 834Q257 834 283 815T320 769Q332
737 326 704Q322 676 302 649Q298 643 289 635T275 623Q247 601 214 583T153 541T114 481Q159 477 199 478T282 484Q293 489 297 501T306 523T327 535Z" />
<glyph unicode="&#xb3;" glyph-name="uni00B3" horiz-adv-x="400" d="M326 505Q319 482 301 470T266 441Q238 429 202 428T136 438Q109 449 91 470T75 525Q82 537 98 540T125 532Q128 525 128 519T128 505Q128 500 128 495T130 483Q134 469 150 462T187 454T224
458Q239 463 259 481T281 520Q284 545 276 574T247 617Q235 624 223 624T197 624Q188 624 178 624T155 625Q154 633 155 639T159 650Q161 655 162 658Q193 659 218 668T259 696Q263 701 265 706Q278 730 271 764Q266 788 248 798T208 809Q186 809 167 799T137 771Q141
755 136 744T123 723Q113 721 107 723T94 730Q90 732 88 733Q79 768 101 792T158 828Q190 839 223 838T279 822Q293 813 306 793T321 755Q325 728 316 706Q299 665 257 654Q274 641 292 624T320 584Q329 567 331 548T326 505Z" />
<glyph unicode="&#xb4;" glyph-name="acute" horiz-adv-x="390" d="M120 633Q124 655 130 668T147 694T174 731Q177 735 179 740T185 750Q193 765 203 777T233 788Q247 787 258 776T270 755Q270 742 261 734T240 720T221 708Q191 683 172 665T120 633Z" />
<glyph unicode="&#xb5;" glyph-name="uni00B5" horiz-adv-x="640" d="M554 20Q549 5 535 0T502 -6Q493 -6 483 -6T464 -5Q456 -4 449 -4T435 -4Q420 3 419 17T419 49Q419 56 419 63T420 77Q408 71 398 63T376 45Q354 27 329 11T264 -4Q243 -3 226 8T201 36Q200
2 200 -27T199 -88Q199 -118 189 -143T147 -189Q142 -162 142 -124T142 -39Q144 -19 145 19T147 105T147 201Q147 222 147 244T149 289Q150 320 150 350T149 409Q145 409 140 409T130 407Q119 405 109 405T92 413Q93 430 103 440T130 454Q138 456 146 457T163 458Q172
458 181 457T198 454Q223 448 233 436Q217 382 214 314T211 172Q212 147 215 122T226 77T249 51Q272 42 297 46T344 62T379 89Q398 110 407 140T420 205Q423 240 422 278T419 352Q419 364 418 375T417 398Q413 398 405 397Q393 396 380 397T360 413Q362 420 364
425T367 440Q384 442 400 446T430 454Q445 457 458 457Q464 457 469 456T480 453Q495 448 507 436Q494 432 494 417T486 391Q488 349 488 295T489 185Q489 174 489 164T487 142Q485 115 485 92T500 51Q515 45 528 37T554 20Z" />
<glyph unicode="&#xb6;" glyph-name="paragraph" horiz-adv-x="646" d="M544 603Q541 588 532 586T508 584Q502 585 496 585T481 584Q478 517 478 446T480 300Q481 249 481 198T481 95Q481 92 481 88T481 81Q482 62 480 43T462 13Q443 15 437 26T430 52Q430 61
431 71T434 93Q435 102 436 111T437 128Q437 162 436 197T434 269Q431 343 430 420T433 573Q425 584 407 586T369 588T333 584Q334 535 335 472T336 340T337 206Q337 193 337 181T338 156Q339 116 338 80T326 13Q307 18 298 30T287 60Q285 75 286 92T289 127Q290
136 291 144T292 161Q292 178 292 196T292 232Q292 249 292 267T292 302Q240 315 204 352T159 440Q153 482 162 514T192 569Q215 595 249 609T322 628Q343 630 371 629T429 627Q442 626 454 626T477 625Q482 625 487 625T496 625Q520 625 533 622T544 603Z" />
<glyph unicode="&#xb7;" glyph-name="middot" horiz-adv-x="420" d="M282 400Q286 348 264 326T214 305Q188 306 166 323T139 369T158 434Q195 460 230 447T282 400Z" />
<glyph unicode="&#xb8;" glyph-name="cedilla" horiz-adv-x="400" d="M289 -112Q289 -148 270 -157Q263 -176 239 -183T193 -190Q168 -190 145 -180T107 -160Q103 -155 103 -147T113 -139Q155 -154 190 -154Q210 -154 227 -142T245 -112Q245 -98 236 -86T213 -71Q206
-73 188 -73T163 -64Q166 -51 171 -46T181 -33Q192 -18 200 -3T217 27Q233 35 244 22Q244 11 236 -4T223 -37Q252 -44 270 -63T289 -112Z" />
<glyph unicode="&#xb9;" glyph-name="uni00B9" horiz-adv-x="400" d="M318 441Q309 430 291 430T254 432Q249 432 244 432T234 434Q220 427 202 428T173 441Q177 457 192 462T224 470Q229 526 229 583T227 699Q226 718 226 737T224 776Q205 777 188 782T173 803Q174
810 189 813T224 818T263 820T288 815Q279 793 276 764T273 699Q273 680 273 659T274 615Q274 604 274 593T273 571Q273 539 273 511T279 468Q284 462 293 460T309 455T318 441Z" />
<glyph unicode="&#xba;" glyph-name="ordmasculine" horiz-adv-x="411" d="M355 515Q359 477 352 438T332 365Q319 361 312 352T295 335T270 326Q265 327 265 320Q265 313 262 313Q234 302 205 302Q174 302 148 314T102 349Q56 399 55 475Q55 499 60 523T79 569Q82
574 87 578T99 588Q108 600 118 611T146 628Q149 629 155 631Q172 635 193 637T228 638Q248 636 267 628Q300 613 325 582T355 515ZM304 482Q303 500 297 522T284 563T270 588Q261 599 245 603T220 608Q194 610 174 601T141 576Q126 557 119 530T111 473Q112 431
128 392T175 335Q206 330 229 337T267 360Q288 381 296 413T304 482Z" />
<glyph unicode="&#xbb;" glyph-name="guillemetright" horiz-adv-x="570" d="M81 431Q85 461 106 469Q114 457 132 441T166 404Q183 383 194 365T220 333Q238 317 249 298T269 252Q250 226 241 207T216 173Q193 151 180 128T150 84T102 43Q96 57 95 68T98 89Q107
104 111 115T130 133Q152 169 176 199T219 257Q213 270 196 295T157 349T110 400Q100 410 92 419T81 431ZM261 431Q265 461 286 469Q294 457 312 441T346 404Q363 383 374 365T400 333Q418 317 429 298T449 252Q430 226 421 207T396 173Q373 151 360 128T330 84T282
43Q276 57 275 68T278 89Q287 104 291 115T310 133Q332 169 356 199T399 257Q393 270 376 295T337 349T290 400Q280 410 272 419T261 431Z" />
<glyph unicode="&#xbc;" glyph-name="onequarter" horiz-adv-x="814" d="M731 121Q731 112 717 106T674 104Q673 101 673 98T672 91Q671 81 671 73T672 55Q674 45 681 41T695 32Q703 28 709 23T712 7Q685 0 647 0T585 1Q585 3 584 6Q583 9 582 12T583 19Q592 29
603 29T626 37Q627 44 627 55T626 79Q626 86 626 93T626 104Q597 107 565 106T502 104Q487 104 474 104T447 103Q445 112 441 119T433 135Q464 167 492 201T546 272Q568 302 588 332T629 394Q643 405 662 408T692 391Q692 386 690 383T684 378Q681 376 679 373T677
365Q676 341 676 318T675 272Q675 242 675 210T674 141Q700 148 715 140T731 121ZM651 720Q654 709 651 702T644 688Q641 684 639 679T635 666Q615 650 601 629T574 586T540 548Q536 542 534 535T529 520Q521 510 513 500T496 479Q417 378 345 272T194 64Q194 56
191 51T186 39Q176 37 172 31T165 18T151 9Q135 12 131 21T131 42Q136 60 153 82T181 118Q247 211 313 301T445 482Q457 498 469 514T493 547Q526 593 559 636T621 723Q626 726 634 726T651 720ZM284 371Q275 360 257 360T220 362Q215 362 210 362T200 364Q186
357 168 358T139 371Q143 387 158 392T190 400Q195 456 195 513T193 629Q192 648 192 667T190 706Q171 707 154 712T139 733Q140 740 155 743T190 748T229 750T254 745Q244 723 242 694T239 629Q239 610 239 589T240 545Q240 534 240 523T239 501Q239 469 239 441T245
398Q250 392 259 390T275 385T284 371ZM627 275Q627 289 627 307T626 325Q618 311 609 298T591 272Q567 240 541 209T494 141Q512 142 529 142T565 141Q580 141 595 141T626 141Q628 159 628 182T628 231Q628 241 628 251T627 272V275Z" />
<glyph unicode="&#xbd;" glyph-name="onehalf" horiz-adv-x="845" d="M760 102Q774 89 771 71T763 34Q760 26 758 20T756 7Q723 1 686 1T610 1Q583 2 557 2T507 0Q507 6 508 11T510 22Q510 29 511 34T511 43Q521 52 524 64T532 88Q551 121 579 146T637 193T694
240Q699 247 702 255T707 271Q710 287 709 303T704 333Q698 354 680 364T640 375Q618 375 599 360T573 329Q569 318 570 302T567 271Q564 257 553 255T530 257T511 271Q508 288 515 308T535 348Q556 372 583 386T654 401Q690 401 716 382T753 336Q765 304 759 271Q755
243 735 216Q731 210 722 202T708 190Q680 168 647 150T586 108T547 48Q592 44 632 45T715 51Q726 56 730 68T739 90T760 102ZM651 720Q654 709 651 702T644 688Q641 684 639 679T635 666Q615 650 601 629T574 586T540 548Q536 542 534 535T529 520Q521 510 513
500T496 479Q417 378 345 272T194 64Q194 56 191 51T186 39Q176 37 172 31T165 18T151 9Q135 12 131 21T131 42Q136 60 153 82T181 118Q247 211 313 301T445 482Q457 498 469 514T493 547Q526 593 559 636T621 723Q626 726 634 726T651 720ZM284 371Q275 360 257
360T220 362Q215 362 210 362T200 364Q186 357 168 358T139 371Q143 387 158 392T190 400Q195 456 195 513T193 629Q192 648 192 667T190 706Q171 707 154 712T139 733Q140 740 155 743T190 748T229 750T254 745Q244 723 242 694T239 629Q239 610 239 589T240 545Q240
534 240 523T239 501Q239 469 239 441T245 398Q250 392 259 390T275 385T284 371Z" />
<glyph unicode="&#xbe;" glyph-name="threequarters" horiz-adv-x="917" d="M834 121Q834 112 820 106T777 104Q776 101 776 98T775 91Q774 81 774 73T775 55Q777 45 784 41T798 32Q806 28 812 23T815 7Q788 0 750 0T688 1Q688 3 687 6Q686 9 685 12T686 19Q695
29 706 29T729 37Q730 44 730 55T729 79Q729 86 729 93T729 104Q700 107 668 106T605 104Q590 104 577 104T550 103Q548 112 544 119T536 135Q567 167 595 201T649 272Q671 302 691 332T732 394Q746 405 765 408T795 391Q795 386 793 383T787 378Q784 376 782 373T780
365Q779 341 779 318T778 272Q778 242 778 210T777 141Q803 148 818 140T834 121ZM754 720Q757 709 754 702T747 688Q744 684 742 679T738 666Q718 650 704 629T677 586T643 548Q639 542 637 535T632 520Q624 510 616 500T599 479Q520 378 448 272T297 64Q297 56
294 51T289 39Q279 37 275 31T268 18T254 9Q238 12 234 21T234 42Q239 60 256 82T284 118Q350 211 416 301T548 482Q560 498 572 514T596 547Q629 593 662 636T724 723Q729 726 737 726T754 720ZM349 426Q342 403 324 391T289 362Q261 350 225 349T159 359Q132
370 114 391T98 446Q105 458 121 461T148 453Q151 446 151 440T151 426Q151 421 151 416T153 404Q157 390 173 383T210 375T247 379Q262 384 282 402T304 441Q307 466 299 495T270 538Q258 545 246 545T220 545Q211 545 201 545T178 546Q177 554 178 560T182 571Q184
576 185 579Q216 580 241 589T282 617Q286 622 288 627Q301 651 294 685Q289 709 271 719T231 730Q209 730 190 720T160 692Q164 676 159 665T146 644Q136 642 130 644T117 651Q113 653 111 654Q102 689 124 713T181 749Q213 760 246 759T302 743Q316 734 329 714T344
676Q348 649 339 627Q322 586 280 575Q297 562 315 545T343 505Q352 488 354 469T349 426ZM730 275Q730 289 730 307T729 325Q721 311 712 298T694 272Q670 240 644 209T597 141Q615 142 632 142T668 141Q683 141 698 141T729 141Q731 159 731 182T731 231Q731
241 731 251T730 272V275Z" />
<glyph unicode="&#xbf;" glyph-name="questiondown" horiz-adv-x="617" d="M98 48Q100 54 101 60T105 71Q117 99 140 118T191 153Q220 170 248 189T292 235Q303 253 305 279T312 330T332 365Q351 334 348 299T328 230T292 174Q277 156 259 143T224 116T198 81Q196
78 194 70Q184 42 186 12T201 -44Q220 -82 258 -102T352 -101Q376 -92 398 -65T428 -15Q435 6 435 21T439 47T457 62Q473 67 486 60T507 41T517 24Q521 11 517 -7T505 -41T490 -68Q463 -105 409 -126T295 -149Q259 -150 226 -142T166 -116Q127 -89 111 -51T98 48ZM275
489Q283 507 300 517T340 526Q369 523 378 501T383 456Q379 437 367 422T336 403T292 412Q275 430 272 451T275 489Z" />
<glyph unicode="&#xc0;" glyph-name="Agrave" horiz-adv-x="738" d="M693 29Q691 19 672 14T627 8Q599 7 568 9T511 15T471 20Q462 40 470 51T494 69T524 78Q527 92 523 113T512 158T498 201Q494 212 491 221T487 235Q432 237 367 235T251 230Q246 221 238 202T221
159T202 115T187 81Q192 70 210 68T245 61Q260 57 269 47T273 12Q248 7 220 7T165 10Q136 12 110 12T62 5Q57 12 54 20T42 33Q43 48 49 57T58 78Q83 76 101 83T133 105Q155 128 166 163T191 230Q212 282 232 339T275 454Q297 513 320 568T366 668Q380 671 401 672T435
668Q429 652 431 641T438 621Q442 612 444 603T442 579Q453 551 465 519T490 453Q516 383 541 308T587 167Q590 157 594 142T603 118Q606 113 610 109T618 100Q625 93 630 87T633 69Q636 68 642 67Q662 63 680 56T693 29ZM466 296Q459 315 446 360T416 454Q406
483 395 509T373 557L335 454Q323 421 310 387T288 326T273 287Q286 288 313 288T370 289T427 291T466 296ZM450 703Q419 716 399 734T349 778Q343 784 331 789T310 803T300 825Q300 835 312 846T337 858Q357 859 367 847T385 820Q388 815 390 810T396 801Q413
778 423 765T439 738T450 703Z" />
<glyph unicode="&#xc1;" glyph-name="Aacute" horiz-adv-x="738" d="M693 29Q691 19 672 14T627 8Q599 7 568 9T511 15T471 20Q462 40 470 51T494 69T524 78Q527 92 523 113T512 158T498 201Q494 212 491 221T487 235Q432 237 367 235T251 230Q246 221 238 202T221
159T202 115T187 81Q192 70 210 68T245 61Q260 57 269 47T273 12Q248 7 220 7T165 10Q136 12 110 12T62 5Q57 12 54 20T42 33Q43 48 49 57T58 78Q83 76 101 83T133 105Q155 128 166 163T191 230Q212 282 232 339T275 454Q297 513 320 568T366 668Q380 671 401 672T435
668Q429 652 431 641T438 621Q442 612 444 603T442 579Q453 551 465 519T490 453Q516 383 541 308T587 167Q590 157 594 142T603 118Q606 113 610 109T618 100Q625 93 630 87T633 69Q636 68 642 67Q662 63 680 56T693 29ZM466 296Q459 315 446 360T416 454Q406
483 395 509T373 557L335 454Q323 421 310 387T288 326T273 287Q286 288 313 288T370 289T427 291T466 296ZM340 701Q344 723 350 736T367 762T394 799Q397 803 399 808T405 818Q413 833 423 845T453 856Q467 855 478 844T490 823Q490 810 481 802T460 788T441
776Q411 751 392 733T340 701Z" />
<glyph unicode="&#xc2;" glyph-name="Acircumflex" horiz-adv-x="738" d="M693 29Q691 19 672 14T627 8Q599 7 568 9T511 15T471 20Q462 40 470 51T494 69T524 78Q527 92 523 113T512 158T498 201Q494 212 491 221T487 235Q432 237 367 235T251 230Q246 221 238
202T221 159T202 115T187 81Q192 70 210 68T245 61Q260 57 269 47T273 12Q248 7 220 7T165 10Q136 12 110 12T62 5Q57 12 54 20T42 33Q43 48 49 57T58 78Q83 76 101 83T133 105Q155 128 166 163T191 230Q212 282 232 339T275 454Q297 513 320 568T366 668Q380 671
401 672T435 668Q429 652 431 641T438 621Q442 612 444 603T442 579Q453 551 465 519T490 453Q516 383 541 308T587 167Q590 157 594 142T603 118Q606 113 610 109T618 100Q625 93 630 87T633 69Q636 68 642 67Q662 63 680 56T693 29ZM466 296Q459 315 446 360T416
454Q406 483 395 509T373 557L335 454Q323 421 310 387T288 326T273 287Q286 288 313 288T370 289T427 291T466 296ZM505 722Q502 714 497 709T477 701Q473 705 461 720T433 753T407 786T393 805Q357 757 346 750Q342 741 334 729T316 708Q309 702 300 700T280
704Q300 742 311 757T333 786Q344 800 358 818T392 849Q406 842 418 829T440 803Q459 781 475 761T505 722Z" />
<glyph unicode="&#xc3;" glyph-name="Atilde" horiz-adv-x="738" d="M693 29Q691 19 672 14T627 8Q599 7 568 9T511 15T471 20Q462 40 470 51T494 69T524 78Q527 92 523 113T512 158T498 201Q494 212 491 221T487 235Q432 237 367 235T251 230Q246 221 238 202T221
159T202 115T187 81Q192 70 210 68T245 61Q260 57 269 47T273 12Q248 7 220 7T165 10Q136 12 110 12T62 5Q57 12 54 20T42 33Q43 48 49 57T58 78Q83 76 101 83T133 105Q155 128 166 163T191 230Q212 282 232 339T275 454Q297 513 320 568T366 668Q380 671 401 672T435
668Q429 652 431 641T438 621Q442 612 444 603T442 579Q453 551 465 519T490 453Q516 383 541 308T587 167Q590 157 594 142T603 118Q606 113 610 109T618 100Q625 93 630 87T633 69Q636 68 642 67Q662 63 680 56T693 29ZM466 296Q459 315 446 360T416 454Q406
483 395 509T373 557L335 454Q323 421 310 387T288 326T273 287Q286 288 313 288T370 289T427 291T466 296ZM510 811Q518 805 518 797T517 780Q516 772 516 768Q505 752 492 737T459 719Q446 717 422 723T380 739Q375 742 371 745T363 751Q347 761 334 768T309
775Q301 774 294 770T280 758Q279 753 271 745T254 738Q248 749 251 759T258 777Q268 794 277 802T306 814Q326 817 347 812T388 796Q400 785 419 777T453 770Q466 772 483 782T510 811Z" />
<glyph unicode="&#xc4;" glyph-name="Adieresis" horiz-adv-x="738" d="M693 29Q691 19 672 14T627 8Q599 7 568 9T511 15T471 20Q462 40 470 51T494 69T524 78Q527 92 523 113T512 158T498 201Q494 212 491 221T487 235Q432 237 367 235T251 230Q246 221 238
202T221 159T202 115T187 81Q192 70 210 68T245 61Q260 57 269 47T273 12Q248 7 220 7T165 10Q136 12 110 12T62 5Q57 12 54 20T42 33Q43 48 49 57T58 78Q83 76 101 83T133 105Q155 128 166 163T191 230Q212 282 232 339T275 454Q297 513 320 568T366 668Q380 671
401 672T435 668Q429 652 431 641T438 621Q442 612 444 603T442 579Q453 551 465 519T490 453Q516 383 541 308T587 167Q590 157 594 142T603 118Q606 113 610 109T618 100Q625 93 630 87T633 69Q636 68 642 67Q662 63 680 56T693 29ZM466 296Q459 315 446 360T416
454Q406 483 395 509T373 557L335 454Q323 421 310 387T288 326T273 287Q286 288 313 288T370 289T427 291T466 296ZM343 783Q346 746 330 730T294 715Q275 716 259 728T240 760T254 807Q280 827 305 817T343 783ZM543 783Q546 746 530 730T494 715Q475 716 459
728T440 760T454 807Q480 827 505 817T543 783Z" />
<glyph unicode="&#xc5;" glyph-name="Aring" horiz-adv-x="738" d="M693 29Q691 19 672 14T627 8Q599 7 568 9T511 15T471 20Q462 40 470 51T494 69T524 78Q527 92 523 113T512 158T498 201Q494 212 491 221T487 235Q432 237 367 235T251 230Q246 221 238 202T221
159T202 115T187 81Q192 70 210 68T245 61Q260 57 269 47T273 12Q248 7 220 7T165 10Q136 12 110 12T62 5Q57 12 54 20T42 33Q43 48 49 57T58 78Q83 76 101 83T133 105Q155 128 166 163T191 230Q212 282 232 339T275 454Q297 513 320 568T366 668Q380 671 401 672T435
668Q429 652 431 641T438 621Q442 612 444 603T442 579Q453 551 465 519T490 453Q516 383 541 308T587 167Q590 157 594 142T603 118Q606 113 610 109T618 100Q625 93 630 87T633 69Q636 68 642 67Q662 63 680 56T693 29ZM466 296Q459 315 446 360T416 454Q406
483 395 509T373 557L335 454Q323 421 310 387T288 326T273 287Q286 288 313 288T370 289T427 291T466 296ZM487 762Q473 730 453 710T389 692Q385 692 382 693T375 695Q370 697 365 698T352 698Q342 706 330 714T309 738T300 787Q300 818 320 841T368 872Q382
876 405 875T453 861Q453 860 454 859Q468 842 479 821T487 762ZM441 787Q441 807 422 826Q384 838 365 822T345 783Q345 766 356 751T389 735Q409 734 425 751T441 787Z" />
<glyph unicode="&#xc6;" glyph-name="AE" horiz-adv-x="1050" d="M932 22L925 15Q875 11 824 11T720 11Q663 11 607 11T498 4Q482 15 484 25T490 45Q495 54 495 57Q500 61 507 61T523 61Q529 61 534 61T543 63Q548 104 550 147T552 235Q485 237 420 235T307 230Q299
221 284 202T252 159T219 115T193 81Q194 70 209 68T241 61Q255 57 260 47T252 12Q225 7 198 7T144 10Q115 12 89 12T39 5Q35 12 35 19T29 33Q34 48 42 60T60 78Q84 76 106 82T145 105Q165 125 192 162T244 231Q283 283 324 340T406 455Q427 484 450 515T507 594Q499
595 492 598T479 609Q480 612 481 617Q483 629 487 640T506 651Q544 650 590 649T683 647T762 647Q774 647 786 648T810 650Q844 653 876 653T932 636Q931 626 931 613T932 584Q934 556 934 527T925 481Q907 477 899 485T887 509Q883 529 882 554T871 593Q859 593
845 593T814 594Q766 594 713 594T626 590Q627 577 627 557T626 512Q626 498 626 484T626 454Q626 430 627 406T631 360Q670 364 711 365T793 368Q806 374 812 386T823 413T836 438Q843 442 848 441T859 436Q861 435 864 434T871 431Q865 409 864 381T864 324Q864
300 863 277T859 237Q836 235 829 248T818 279Q816 286 814 293T809 306Q763 313 713 314T626 298Q628 243 629 186T626 65Q663 63 707 62T795 64T875 77Q886 96 890 120T901 167T929 197Q944 167 943 131T936 62Q935 51 934 41T932 22ZM552 572L468 454Q444 421
420 387T376 326T349 287Q365 288 401 288T479 290T553 294Q553 319 553 343T552 391Q552 407 552 423T551 454Q550 486 550 515T552 572Z" />
<glyph unicode="&#xc7;" glyph-name="Ccedilla" horiz-adv-x="730" d="M653 202Q654 173 640 141T609 87Q590 63 560 39T503 6Q475 -2 436 -8T364 -14Q322 -14 294 1T237 39Q222 51 206 60T180 79Q156 104 136 147T106 243T99 349Q101 379 105 405T117 454Q125
479 135 500T156 540Q173 568 203 594T268 640T335 666Q403 680 463 664T569 622Q578 623 583 627T592 637Q597 643 602 648T620 652Q625 638 624 623T620 590Q619 582 618 574T616 556Q615 546 616 536T619 515Q621 498 622 482T616 453Q613 447 609 443Q594 444
587 453Q579 463 578 478T575 511Q575 521 575 530T572 548Q538 592 484 605T373 608Q320 598 275 568T209 496Q200 477 194 454Q181 405 183 348T200 238T241 145Q254 126 269 112T293 79Q319 72 342 60T393 46Q433 44 467 57T529 93T576 137Q578 141 580 145T584
154Q591 170 599 185T621 207T653 202ZM459 -112Q459 -148 440 -157Q433 -176 409 -183T363 -190Q338 -190 315 -180T277 -160Q273 -155 273 -147T283 -139Q325 -154 360 -154Q380 -154 397 -142T415 -112Q415 -98 406 -86T383 -71Q376 -73 358 -73T333 -64Q336
-51 341 -46T351 -33Q362 -18 370 -3T387 27Q403 35 414 22Q414 11 406 -4T393 -37Q422 -44 440 -63T459 -112Z" />
<glyph unicode="&#xc8;" glyph-name="Egrave" horiz-adv-x="670" d="M552 22L545 15Q495 11 444 11T340 11Q283 11 227 11T118 4Q102 15 104 25T110 45Q115 54 115 57Q121 61 129 61T147 61Q152 61 157 61T168 61Q173 134 173 215T172 373Q172 394 172 414T171
454Q170 492 170 526T172 590Q165 592 158 592T143 593Q130 593 119 595T99 609Q100 612 101 617Q103 629 107 640T126 651Q164 650 210 649T303 647T382 647Q394 647 406 648T430 650Q464 653 496 653T552 636Q551 626 551 613T552 584Q554 556 554 527T545 481Q527
477 519 485T507 509Q503 529 502 554T491 593Q479 593 465 593T434 594Q386 594 333 594T246 590Q247 577 247 557T246 512Q246 498 246 484T246 454Q246 430 247 406T251 360Q290 364 331 365T413 368Q426 374 432 386T443 413T456 438Q463 442 468 441T479 436Q481
435 484 434T491 431Q485 409 484 381T484 324Q484 300 483 277T479 237Q456 235 449 248T438 279Q436 286 434 293T429 306Q383 313 333 314T246 298Q248 243 249 186T246 65Q283 63 327 62T415 64T495 77Q506 96 510 120T521 167T549 197Q564 167 563 131T556
62Q555 51 554 41T552 22ZM410 703Q379 716 359 734T309 778Q303 784 291 789T270 803T260 825Q260 835 272 846T297 858Q317 859 327 847T345 820Q348 815 350 810T356 801Q373 778 383 765T399 738T410 703Z" />
<glyph unicode="&#xc9;" glyph-name="Eacute" horiz-adv-x="670" d="M552 22L545 15Q495 11 444 11T340 11Q283 11 227 11T118 4Q102 15 104 25T110 45Q115 54 115 57Q121 61 129 61T147 61Q152 61 157 61T168 61Q173 134 173 215T172 373Q172 394 172 414T171
454Q170 492 170 526T172 590Q165 592 158 592T143 593Q130 593 119 595T99 609Q100 612 101 617Q103 629 107 640T126 651Q164 650 210 649T303 647T382 647Q394 647 406 648T430 650Q464 653 496 653T552 636Q551 626 551 613T552 584Q554 556 554 527T545 481Q527
477 519 485T507 509Q503 529 502 554T491 593Q479 593 465 593T434 594Q386 594 333 594T246 590Q247 577 247 557T246 512Q246 498 246 484T246 454Q246 430 247 406T251 360Q290 364 331 365T413 368Q426 374 432 386T443 413T456 438Q463 442 468 441T479 436Q481
435 484 434T491 431Q485 409 484 381T484 324Q484 300 483 277T479 237Q456 235 449 248T438 279Q436 286 434 293T429 306Q383 313 333 314T246 298Q248 243 249 186T246 65Q283 63 327 62T415 64T495 77Q506 96 510 120T521 167T549 197Q564 167 563 131T556
62Q555 51 554 41T552 22ZM300 701Q304 723 310 736T327 762T354 799Q357 803 359 808T365 818Q373 833 383 845T413 856Q427 855 438 844T450 823Q450 810 441 802T420 788T401 776Q371 751 352 733T300 701Z" />
<glyph unicode="&#xca;" glyph-name="Ecircumflex" horiz-adv-x="670" d="M552 22L545 15Q495 11 444 11T340 11Q283 11 227 11T118 4Q102 15 104 25T110 45Q115 54 115 57Q121 61 129 61T147 61Q152 61 157 61T168 61Q173 134 173 215T172 373Q172 394 172 414T171
454Q170 492 170 526T172 590Q165 592 158 592T143 593Q130 593 119 595T99 609Q100 612 101 617Q103 629 107 640T126 651Q164 650 210 649T303 647T382 647Q394 647 406 648T430 650Q464 653 496 653T552 636Q551 626 551 613T552 584Q554 556 554 527T545 481Q527
477 519 485T507 509Q503 529 502 554T491 593Q479 593 465 593T434 594Q386 594 333 594T246 590Q247 577 247 557T246 512Q246 498 246 484T246 454Q246 430 247 406T251 360Q290 364 331 365T413 368Q426 374 432 386T443 413T456 438Q463 442 468 441T479 436Q481
435 484 434T491 431Q485 409 484 381T484 324Q484 300 483 277T479 237Q456 235 449 248T438 279Q436 286 434 293T429 306Q383 313 333 314T246 298Q248 243 249 186T246 65Q283 63 327 62T415 64T495 77Q506 96 510 120T521 167T549 197Q564 167 563 131T556
62Q555 51 554 41T552 22ZM465 722Q462 714 457 709T437 701Q433 705 421 720T393 753T367 786T353 805Q317 757 306 750Q302 741 294 729T276 708Q269 702 260 700T240 704Q260 742 271 757T293 786Q304 800 318 818T352 849Q366 842 378 829T400 803Q419 781
435 761T465 722Z" />
<glyph unicode="&#xcb;" glyph-name="Edieresis" horiz-adv-x="670" d="M552 22L545 15Q495 11 444 11T340 11Q283 11 227 11T118 4Q102 15 104 25T110 45Q115 54 115 57Q121 61 129 61T147 61Q152 61 157 61T168 61Q173 134 173 215T172 373Q172 394 172 414T171
454Q170 492 170 526T172 590Q165 592 158 592T143 593Q130 593 119 595T99 609Q100 612 101 617Q103 629 107 640T126 651Q164 650 210 649T303 647T382 647Q394 647 406 648T430 650Q464 653 496 653T552 636Q551 626 551 613T552 584Q554 556 554 527T545 481Q527
477 519 485T507 509Q503 529 502 554T491 593Q479 593 465 593T434 594Q386 594 333 594T246 590Q247 577 247 557T246 512Q246 498 246 484T246 454Q246 430 247 406T251 360Q290 364 331 365T413 368Q426 374 432 386T443 413T456 438Q463 442 468 441T479 436Q481
435 484 434T491 431Q485 409 484 381T484 324Q484 300 483 277T479 237Q456 235 449 248T438 279Q436 286 434 293T429 306Q383 313 333 314T246 298Q248 243 249 186T246 65Q283 63 327 62T415 64T495 77Q506 96 510 120T521 167T549 197Q564 167 563 131T556
62Q555 51 554 41T552 22ZM303 783Q306 746 290 730T254 715Q235 716 219 728T200 760T214 807Q240 827 265 817T303 783ZM503 783Q506 746 490 730T454 715Q435 716 419 728T400 760T414 807Q440 827 465 817T503 783Z" />
<glyph unicode="&#xcc;" glyph-name="Igrave" horiz-adv-x="470" d="M365 627Q360 612 342 610T303 609Q297 609 291 609T279 609Q275 606 281 594Q283 590 284 586T286 577Q282 573 280 568T276 554Q275 529 275 505T274 454Q273 358 273 260T272 65Q295 64 322
54T361 23Q336 8 304 7T236 8Q215 9 195 9T155 7Q149 6 146 3T140 -5Q137 -11 132 -15T116 -17Q106 -3 108 11T119 37T135 58Q140 58 145 58T157 58Q169 58 181 58T202 62Q201 152 201 253T199 454Q198 532 193 604Q186 606 178 606T161 607Q147 607 134 608T111
617Q109 625 111 629T117 637Q120 640 122 643T124 652Q155 652 190 655T260 658Q294 658 322 652T365 627ZM290 703Q259 716 239 734T189 778Q183 784 171 789T150 803T140 825Q140 835 152 846T177 858Q197 859 207 847T225 820Q228 815 230 810T236 801Q253
778 263 765T279 738T290 703Z" />
<glyph unicode="&#xcd;" glyph-name="Iacute" horiz-adv-x="470" d="M365 627Q360 612 342 610T303 609Q297 609 291 609T279 609Q275 606 281 594Q283 590 284 586T286 577Q282 573 280 568T276 554Q275 529 275 505T274 454Q273 358 273 260T272 65Q295 64 322
54T361 23Q336 8 304 7T236 8Q215 9 195 9T155 7Q149 6 146 3T140 -5Q137 -11 132 -15T116 -17Q106 -3 108 11T119 37T135 58Q140 58 145 58T157 58Q169 58 181 58T202 62Q201 152 201 253T199 454Q198 532 193 604Q186 606 178 606T161 607Q147 607 134 608T111
617Q109 625 111 629T117 637Q120 640 122 643T124 652Q155 652 190 655T260 658Q294 658 322 652T365 627ZM200 701Q204 723 210 736T227 762T254 799Q257 803 259 808T265 818Q273 833 283 845T313 856Q327 855 338 844T350 823Q350 810 341 802T320 788T301
776Q271 751 252 733T200 701Z" />
<glyph unicode="&#xce;" glyph-name="Icircumflex" horiz-adv-x="470" d="M365 627Q360 612 342 610T303 609Q297 609 291 609T279 609Q275 606 281 594Q283 590 284 586T286 577Q282 573 280 568T276 554Q275 529 275 505T274 454Q273 358 273 260T272 65Q295
64 322 54T361 23Q336 8 304 7T236 8Q215 9 195 9T155 7Q149 6 146 3T140 -5Q137 -11 132 -15T116 -17Q106 -3 108 11T119 37T135 58Q140 58 145 58T157 58Q169 58 181 58T202 62Q201 152 201 253T199 454Q198 532 193 604Q186 606 178 606T161 607Q147 607 134
608T111 617Q109 625 111 629T117 637Q120 640 122 643T124 652Q155 652 190 655T260 658Q294 658 322 652T365 627ZM345 722Q342 714 337 709T317 701Q313 705 301 720T273 753T247 786T233 805Q197 757 186 750Q182 741 174 729T156 708Q149 702 140 700T120
704Q140 742 151 757T173 786Q184 800 198 818T232 849Q246 842 258 829T280 803Q299 781 315 761T345 722Z" />
<glyph unicode="&#xcf;" glyph-name="Idieresis" horiz-adv-x="516" d="M383 627Q378 612 360 610T321 609Q315 609 309 609T297 609Q293 606 299 594Q301 590 302 586T304 577Q300 573 298 568T294 554Q293 529 293 505T292 454Q291 358 291 260T290 65Q313 64
340 54T379 23Q354 8 322 7T254 8Q233 9 213 9T173 7Q167 6 164 3T158 -5Q155 -11 150 -15T134 -17Q124 -3 126 11T137 37T153 58Q158 58 163 58T175 58Q187 58 199 58T220 62Q219 152 219 253T217 454Q216 532 211 604Q204 606 196 606T179 607Q165 607 152 608T129
617Q127 625 129 629T135 637Q138 640 140 643T142 652Q173 652 208 655T278 658Q312 658 340 652T383 627ZM211 783Q214 746 198 730T162 715Q143 716 127 728T108 760T122 807Q148 827 173 817T211 783ZM411 783Q414 746 398 730T362 715Q343 716 327 728T308
760T322 807Q348 827 373 817T411 783Z" />
<glyph unicode="&#xd0;" glyph-name="Eth" horiz-adv-x="817" d="M701 275Q695 215 670 167T607 84T527 29Q477 12 419 9T302 5Q250 5 201 3T110 -12Q112 5 119 18T135 41Q142 43 148 43T160 43Q166 42 172 42T187 45Q189 98 189 159T187 287Q187 296 187 305T186
323Q181 323 176 323T165 322Q138 322 111 322T60 327Q52 341 56 359T71 379Q105 381 132 381T185 381Q185 400 185 418T185 454Q185 491 185 527T187 599Q177 604 166 604T144 604Q134 604 124 604T105 610Q107 639 129 648T178 659Q234 662 301 661T433 653T549
628T623 579Q642 554 658 523T685 453Q696 414 701 370T701 275ZM434 323Q385 317 345 318T270 321Q270 263 270 206T268 97Q268 86 267 73T260 48Q279 49 296 49T331 49Q364 49 394 50T450 57Q468 62 494 72T535 93Q558 111 574 148T598 233T608 331T604 424Q603
432 602 439T598 453Q581 521 534 557T419 604T268 602Q268 568 268 531T269 454Q269 435 269 416T270 378Q285 377 299 377Q308 377 318 377T338 379Q355 380 371 380T403 378Q410 377 420 370T436 351T434 323Z" />
<glyph unicode="&#xd1;" glyph-name="Ntilde" horiz-adv-x="820" d="M740 637Q739 616 720 612T677 608Q669 606 667 599T662 583T650 568Q653 541 654 512T657 453Q658 419 658 384T658 312Q659 235 660 161T671 24Q660 8 637 6T605 15Q581 44 560 80T509 150Q455
214 405 296T305 454Q286 485 266 513T226 566Q225 536 224 509T223 454Q223 417 224 378T226 290Q226 272 226 253T224 214Q222 174 222 139T230 80Q235 66 248 59T275 47T296 31Q292 19 280 15T261 2Q243 9 224 9T185 5Q164 3 145 3T110 12Q104 20 105 25T110
36Q112 40 114 43T116 52Q129 57 143 60T171 68Q180 145 179 229T172 402Q172 415 172 428T170 454Q169 492 168 529T165 605Q153 601 140 602T118 608Q108 615 106 627T118 655Q131 654 144 654T170 655Q204 655 236 653T298 638Q298 633 296 631T290 627Q282
624 282 619Q310 578 338 537T395 454Q449 377 503 300T611 148Q609 225 609 301T607 453Q605 528 598 603Q591 606 584 607T570 608Q557 610 547 613T536 629Q535 646 560 653T620 662Q646 663 672 660T717 651T740 637ZM550 811Q558 805 558 797T557 780Q556
772 556 768Q545 752 532 737T499 719Q486 717 462 723T420 739Q415 742 411 745T403 751Q387 761 374 768T349 775Q341 774 334 770T320 758Q319 753 311 745T294 738Q288 749 291 759T298 777Q308 794 317 802T346 814Q366 817 387 812T428 796Q440 785 459 777T493
770Q506 772 523 782T550 811Z" />
<glyph unicode="&#xd2;" glyph-name="Ograve" horiz-adv-x="766" d="M685 286Q683 249 671 219T644 161T620 98Q610 100 599 86T578 57Q536 35 489 11T386 -13Q334 -13 291 9T206 52Q206 66 196 70T178 81Q139 125 113 184T83 319Q80 389 98 454Q114 512 145 558T223
625Q239 642 260 656T313 663L317 670Q344 676 382 676T459 668T529 644T574 600Q580 599 584 600T593 601Q597 602 601 602T611 600Q610 588 610 578T614 559Q632 549 641 531T656 492T669 453Q671 449 673 445T677 437Q678 425 679 414T681 390Q683 363 685 336T685
286ZM591 453Q590 458 589 462T587 470Q584 486 574 510T551 556T530 588Q507 614 472 623T396 630T319 615T256 584Q233 559 217 526T190 454Q183 427 179 398T175 340Q174 276 190 215T241 109Q268 74 306 54T394 36Q453 38 496 73T564 163Q593 224 600 300T591
453ZM450 703Q419 716 399 734T349 778Q343 784 331 789T310 803T300 825Q300 835 312 846T337 858Q357 859 367 847T385 820Q388 815 390 810T396 801Q413 778 423 765T439 738T450 703Z" />
<glyph unicode="&#xd3;" glyph-name="Oacute" horiz-adv-x="766" d="M685 286Q683 249 671 219T644 161T620 98Q610 100 599 86T578 57Q536 35 489 11T386 -13Q334 -13 291 9T206 52Q206 66 196 70T178 81Q139 125 113 184T83 319Q80 389 98 454Q114 512 145 558T223
625Q239 642 260 656T313 663L317 670Q344 676 382 676T459 668T529 644T574 600Q580 599 584 600T593 601Q597 602 601 602T611 600Q610 588 610 578T614 559Q632 549 641 531T656 492T669 453Q671 449 673 445T677 437Q678 425 679 414T681 390Q683 363 685 336T685
286ZM591 453Q590 458 589 462T587 470Q584 486 574 510T551 556T530 588Q507 614 472 623T396 630T319 615T256 584Q233 559 217 526T190 454Q183 427 179 398T175 340Q174 276 190 215T241 109Q268 74 306 54T394 36Q453 38 496 73T564 163Q593 224 600 300T591
453ZM340 701Q344 723 350 736T367 762T394 799Q397 803 399 808T405 818Q413 833 423 845T453 856Q467 855 478 844T490 823Q490 810 481 802T460 788T441 776Q411 751 392 733T340 701Z" />
<glyph unicode="&#xd4;" glyph-name="Ocircumflex" horiz-adv-x="766" d="M685 286Q683 249 671 219T644 161T620 98Q610 100 599 86T578 57Q536 35 489 11T386 -13Q334 -13 291 9T206 52Q206 66 196 70T178 81Q139 125 113 184T83 319Q80 389 98 454Q114 512
145 558T223 625Q239 642 260 656T313 663L317 670Q344 676 382 676T459 668T529 644T574 600Q580 599 584 600T593 601Q597 602 601 602T611 600Q610 588 610 578T614 559Q632 549 641 531T656 492T669 453Q671 449 673 445T677 437Q678 425 679 414T681 390Q683
363 685 336T685 286ZM591 453Q590 458 589 462T587 470Q584 486 574 510T551 556T530 588Q507 614 472 623T396 630T319 615T256 584Q233 559 217 526T190 454Q183 427 179 398T175 340Q174 276 190 215T241 109Q268 74 306 54T394 36Q453 38 496 73T564 163Q593
224 600 300T591 453ZM505 722Q502 714 497 709T477 701Q473 705 461 720T433 753T407 786T393 805Q357 757 346 750Q342 741 334 729T316 708Q309 702 300 700T280 704Q300 742 311 757T333 786Q344 800 358 818T392 849Q406 842 418 829T440 803Q459 781 475
761T505 722Z" />
<glyph unicode="&#xd5;" glyph-name="Otilde" horiz-adv-x="766" d="M685 286Q683 249 671 219T644 161T620 98Q610 100 599 86T578 57Q536 35 489 11T386 -13Q334 -13 291 9T206 52Q206 66 196 70T178 81Q139 125 113 184T83 319Q80 389 98 454Q114 512 145 558T223
625Q239 642 260 656T313 663L317 670Q344 676 382 676T459 668T529 644T574 600Q580 599 584 600T593 601Q597 602 601 602T611 600Q610 588 610 578T614 559Q632 549 641 531T656 492T669 453Q671 449 673 445T677 437Q678 425 679 414T681 390Q683 363 685 336T685
286ZM591 453Q590 458 589 462T587 470Q584 486 574 510T551 556T530 588Q507 614 472 623T396 630T319 615T256 584Q233 559 217 526T190 454Q183 427 179 398T175 340Q174 276 190 215T241 109Q268 74 306 54T394 36Q453 38 496 73T564 163Q593 224 600 300T591
453ZM510 811Q518 805 518 797T517 780Q516 772 516 768Q505 752 492 737T459 719Q446 717 422 723T380 739Q375 742 371 745T363 751Q347 761 334 768T309 775Q301 774 294 770T280 758Q279 753 271 745T254 738Q248 749 251 759T258 777Q268 794 277 802T306
814Q326 817 347 812T388 796Q400 785 419 777T453 770Q466 772 483 782T510 811Z" />
<glyph unicode="&#xd6;" glyph-name="Odieresis" horiz-adv-x="766" d="M685 286Q683 249 671 219T644 161T620 98Q610 100 599 86T578 57Q536 35 489 11T386 -13Q334 -13 291 9T206 52Q206 66 196 70T178 81Q139 125 113 184T83 319Q80 389 98 454Q114 512 145
558T223 625Q239 642 260 656T313 663L317 670Q344 676 382 676T459 668T529 644T574 600Q580 599 584 600T593 601Q597 602 601 602T611 600Q610 588 610 578T614 559Q632 549 641 531T656 492T669 453Q671 449 673 445T677 437Q678 425 679 414T681 390Q683 363
685 336T685 286ZM591 453Q590 458 589 462T587 470Q584 486 574 510T551 556T530 588Q507 614 472 623T396 630T319 615T256 584Q233 559 217 526T190 454Q183 427 179 398T175 340Q174 276 190 215T241 109Q268 74 306 54T394 36Q453 38 496 73T564 163Q593 224
600 300T591 453ZM343 783Q346 746 330 730T294 715Q275 716 259 728T240 760T254 807Q280 827 305 817T343 783ZM543 783Q546 746 530 730T494 715Q475 716 459 728T440 760T454 807Q480 827 505 817T543 783Z" />
<glyph unicode="&#xd7;" glyph-name="multiply" horiz-adv-x="578" d="M480 495Q443 448 405 412T322 333Q351 306 380 274T443 208Q447 204 450 201T458 194Q472 181 480 171T486 144Q475 138 467 139T451 142Q447 143 442 144T431 145Q386 192 353 229T283 297Q247
259 211 215T118 138Q102 143 96 156T93 178Q137 218 172 258T250 332Q237 346 220 363T185 396Q178 404 170 411T156 425Q139 441 125 459T110 494T132 524Q158 502 180 480T223 435Q240 418 255 401T286 369Q303 379 320 399T351 433Q367 453 384 473T424 507Q430
511 441 514T463 515T480 495Z" />
<glyph unicode="&#xd8;" glyph-name="Oslash" horiz-adv-x="760" d="M624 663Q627 652 624 645T616 629Q612 624 609 619T605 606Q603 604 601 603Q606 603 611 600Q610 588 610 578T614 559Q632 549 641 531T656 492T669 453Q671 449 673 445T677 437Q678 425
679 414T681 390Q683 363 685 336T685 286Q683 249 671 219T644 161T620 98Q610 100 599 86T578 57Q536 35 489 11T386 -13Q334 -13 291 9T206 52Q206 57 204 60Q201 56 197 51Q196 44 193 39T187 26Q177 24 173 17T166 2T151 -8Q134 -3 130 6T129 29Q134 42 145
59T169 92Q133 135 110 192T83 319Q80 389 98 454Q114 512 145 558T223 625Q239 642 260 656T313 663L317 670Q342 675 375 675T443 671T509 653T559 620Q567 632 575 643T590 667Q595 669 605 669T624 663ZM591 453Q590 458 589 462T587 470Q584 483 576 504T557
545Q546 528 536 514T512 492Q510 485 508 478T502 462Q493 451 484 440T466 418Q403 332 345 251T241 109Q268 74 306 54T394 36Q453 38 496 73T564 163Q593 224 600 300T591 453ZM533 584Q532 586 530 588Q507 614 472 623T396 630T319 615T256 584Q233 559 217
526T190 454Q183 427 179 398T175 340Q174 290 184 242T214 152Q250 201 303 272T412 420Q438 454 463 490Q479 512 497 535T533 584Z" />
<glyph unicode="&#xd9;" glyph-name="Ugrave" horiz-adv-x="780" d="M719 628Q710 614 694 607T660 594T629 577Q629 544 629 514T628 453Q627 412 627 372T626 286Q626 277 627 268T629 247Q631 232 632 216T632 183Q630 164 622 147T606 113Q596 93 585 70T562
35Q549 21 522 10T464 -7T413 -13Q298 -13 230 51T154 231Q150 284 151 340T153 454Q155 492 156 530T157 606Q144 606 121 608T83 618Q79 628 84 639T99 657Q115 654 135 654T179 654Q191 655 203 655T228 655Q263 654 289 646T318 609Q285 596 247 606Q238 593
238 574T239 535Q239 527 239 520T240 506Q240 494 240 481T238 454Q236 414 233 370T230 285Q230 218 240 161T282 77Q304 59 340 49T416 39T491 58Q530 79 550 118T577 210T584 321Q584 353 583 386T580 453Q579 485 578 517T578 577Q568 589 554 597T528 615T510
641Q528 653 557 657T618 660T677 650T719 628ZM460 703Q429 716 409 734T359 778Q353 784 341 789T320 803T310 825Q310 835 322 846T347 858Q367 859 377 847T395 820Q398 815 400 810T406 801Q423 778 433 765T449 738T460 703Z" />
<glyph unicode="&#xda;" glyph-name="Uacute" horiz-adv-x="780" d="M719 628Q710 614 694 607T660 594T629 577Q629 544 629 514T628 453Q627 412 627 372T626 286Q626 277 627 268T629 247Q631 232 632 216T632 183Q630 164 622 147T606 113Q596 93 585 70T562
35Q549 21 522 10T464 -7T413 -13Q298 -13 230 51T154 231Q150 284 151 340T153 454Q155 492 156 530T157 606Q144 606 121 608T83 618Q79 628 84 639T99 657Q115 654 135 654T179 654Q191 655 203 655T228 655Q263 654 289 646T318 609Q285 596 247 606Q238 593
238 574T239 535Q239 527 239 520T240 506Q240 494 240 481T238 454Q236 414 233 370T230 285Q230 218 240 161T282 77Q304 59 340 49T416 39T491 58Q530 79 550 118T577 210T584 321Q584 353 583 386T580 453Q579 485 578 517T578 577Q568 589 554 597T528 615T510
641Q528 653 557 657T618 660T677 650T719 628ZM350 701Q354 723 360 736T377 762T404 799Q407 803 409 808T415 818Q423 833 433 845T463 856Q477 855 488 844T500 823Q500 810 491 802T470 788T451 776Q421 751 402 733T350 701Z" />
<glyph unicode="&#xdb;" glyph-name="Ucircumflex" horiz-adv-x="780" d="M719 628Q710 614 694 607T660 594T629 577Q629 544 629 514T628 453Q627 412 627 372T626 286Q626 277 627 268T629 247Q631 232 632 216T632 183Q630 164 622 147T606 113Q596 93 585
70T562 35Q549 21 522 10T464 -7T413 -13Q298 -13 230 51T154 231Q150 284 151 340T153 454Q155 492 156 530T157 606Q144 606 121 608T83 618Q79 628 84 639T99 657Q115 654 135 654T179 654Q191 655 203 655T228 655Q263 654 289 646T318 609Q285 596 247 606Q238
593 238 574T239 535Q239 527 239 520T240 506Q240 494 240 481T238 454Q236 414 233 370T230 285Q230 218 240 161T282 77Q304 59 340 49T416 39T491 58Q530 79 550 118T577 210T584 321Q584 353 583 386T580 453Q579 485 578 517T578 577Q568 589 554 597T528
615T510 641Q528 653 557 657T618 660T677 650T719 628ZM525 722Q522 714 517 709T497 701Q493 705 481 720T453 753T427 786T413 805Q377 757 366 750Q362 741 354 729T336 708Q329 702 320 700T300 704Q320 742 331 757T353 786Q364 800 378 818T412 849Q426
842 438 829T460 803Q479 781 495 761T525 722Z" />
<glyph unicode="&#xdc;" glyph-name="Udieresis" horiz-adv-x="780" d="M719 628Q710 614 694 607T660 594T629 577Q629 544 629 514T628 453Q627 412 627 372T626 286Q626 277 627 268T629 247Q631 232 632 216T632 183Q630 164 622 147T606 113Q596 93 585 70T562
35Q549 21 522 10T464 -7T413 -13Q298 -13 230 51T154 231Q150 284 151 340T153 454Q155 492 156 530T157 606Q144 606 121 608T83 618Q79 628 84 639T99 657Q115 654 135 654T179 654Q191 655 203 655T228 655Q263 654 289 646T318 609Q285 596 247 606Q238 593
238 574T239 535Q239 527 239 520T240 506Q240 494 240 481T238 454Q236 414 233 370T230 285Q230 218 240 161T282 77Q304 59 340 49T416 39T491 58Q530 79 550 118T577 210T584 321Q584 353 583 386T580 453Q579 485 578 517T578 577Q568 589 554 597T528 615T510
641Q528 653 557 657T618 660T677 650T719 628ZM363 783Q366 746 350 730T314 715Q295 716 279 728T260 760T274 807Q300 827 325 817T363 783ZM563 783Q566 746 550 730T514 715Q495 716 479 728T460 760T474 807Q500 827 525 817T563 783Z" />
<glyph unicode="&#xdd;" glyph-name="Yacute" horiz-adv-x="740" d="M688 618Q654 616 631 604T589 571Q567 547 550 516T516 453Q508 437 496 421Q484 404 471 391T448 362Q438 345 425 329T401 303Q405 280 405 251T404 190Q404 156 404 124T409 68Q413 64 418
65T425 71Q434 61 447 56T471 44Q483 37 487 26T476 1Q452 4 428 4T378 4Q348 3 318 3T255 9Q254 35 268 46T299 65Q308 70 317 74T332 87Q332 95 332 110T333 146Q334 172 334 201T335 257T332 299Q329 319 314 339T284 378Q271 396 258 415T232 454Q214 482 197
509T162 563Q160 571 152 573T139 579Q139 587 138 594T133 606Q127 607 121 607T107 608Q99 608 91 608T72 611Q70 613 69 616T63 621Q60 635 64 641T74 652Q77 655 78 656Q98 653 122 654T170 657Q182 658 194 659T217 660Q248 661 270 653T300 621Q286 611 265
609T220 606Q240 569 266 531T322 454Q339 433 355 412T386 370Q401 391 415 412T445 454Q471 492 497 529T547 606Q539 607 526 606T498 604Q490 603 482 603T467 602Q452 610 455 629T472 656Q492 654 513 655T557 657Q570 658 583 659T608 660Q637 660 659 652T688
618ZM340 701Q344 723 350 736T367 762T394 799Q397 803 399 808T405 818Q413 833 423 845T453 856Q467 855 478 844T490 823Q490 810 481 802T460 788T441 776Q411 751 392 733T340 701Z" />
<glyph unicode="&#xde;" glyph-name="Thorn" horiz-adv-x="640" d="M257 524Q267 525 277 525T297 527Q330 530 362 530T425 524Q449 518 476 500T524 458T551 407Q560 372 555 333Q553 311 548 291T534 250Q516 229 496 218T454 198T413 177Q403 177 392 176T370
175Q341 173 311 172T254 171Q254 150 254 130T252 86Q252 83 252 80T252 74Q271 65 286 53T326 38Q317 17 303 14T261 12Q258 12 255 12T248 12Q232 13 217 12T188 8Q166 5 146 5T108 12Q102 21 104 26T109 36Q112 39 114 43T116 54Q139 55 157 58T186 82Q182
125 182 170T184 261Q185 306 185 351T182 440Q182 444 182 447T181 454Q181 467 181 480T182 507Q183 535 183 561T174 607Q165 612 157 611T140 607Q132 605 125 605T111 610Q104 623 107 629T115 640Q119 643 121 647T124 657Q143 655 162 655T202 656Q211 657
220 657T238 657Q270 657 296 652T338 626Q328 615 310 613T271 610Q265 587 262 566T257 524ZM252 334Q249 328 249 320T251 303Q253 295 253 286T252 269Q254 242 254 215Q274 216 299 217T347 221Q390 226 419 243T462 296Q469 312 472 333Q478 370 469 401T433
454Q409 474 365 476T277 478Q272 477 266 477T255 477Q254 467 254 454Q254 426 254 397T252 334Z" />
<glyph unicode="&#xdf;" glyph-name="germandbls" horiz-adv-x="700" d="M247 7Q237 7 227 7T204 6Q180 5 154 5T97 6Q92 17 94 22T100 31Q103 34 105 37T108 45Q120 50 134 52T168 53Q173 145 174 249T172 454Q171 471 172 482T176 502Q176 506 177 509T178 517Q178
542 186 557T199 585Q204 600 217 609T243 624Q266 641 294 646T366 652Q407 652 439 639T491 606Q496 607 499 605T506 601Q508 599 510 597T516 594Q563 547 563 490Q563 468 553 446T530 412Q523 393 501 377T450 359Q497 341 534 314T595 245Q605 209 600 171T578
101T533 50Q511 35 479 23T416 10Q397 10 379 13T344 23Q329 39 330 58T350 89Q363 90 372 85T390 74Q395 70 401 66T415 60Q487 80 508 148Q510 177 509 208T498 263T466 299Q432 316 408 322T363 326Q335 324 324 340T325 374Q336 376 345 375T362 373Q370 372
377 372T391 372Q416 377 435 398T467 445T483 490Q479 548 447 576T366 605Q335 605 311 591T274 559Q266 555 262 539T252 499Q249 486 248 464T247 418T247 377Q247 370 247 367Q245 363 246 359T248 350Q249 345 250 340T250 327Q247 291 247 243T246 148T247
62Q247 56 247 53Q247 49 248 44T250 34Q251 25 251 18T247 7Z" />
<glyph unicode="&#xe0;" glyph-name="agrave" horiz-adv-x="580" d="M499 34Q503 27 502 24T498 17Q497 14 496 12T495 4Q467 -10 440 -6T395 18T376 69Q348 47 317 28T249 -5Q198 -4 162 22T105 89Q101 141 115 175T156 231Q195 263 255 272T380 287Q382 329
377 364T356 421T304 444Q273 445 248 426T205 381Q210 370 210 352T205 323Q169 313 153 325T135 357Q132 397 166 428Q184 444 205 454Q235 469 271 475T343 477T404 454Q418 445 427 431Q438 417 445 390T452 342Q452 314 451 286T448 227Q446 188 445 147T445
61Q450 46 468 44T499 34ZM379 249Q354 242 324 237T266 225T215 206T181 171Q178 131 185 101T212 53Q245 49 278 57T338 85T373 132Q378 147 379 170T381 216T379 249ZM367 799Q336 812 316 830T266 874Q260 880 248 885T227 899T217 921Q217 931 229 942T254
954Q274 955 284 943T302 916Q305 911 307 906T313 897Q330 874 340 861T356 834T367 799Z" />
<glyph unicode="&#xe1;" glyph-name="aacute" horiz-adv-x="580" d="M499 34Q503 27 502 24T498 17Q497 14 496 12T495 4Q467 -10 440 -6T395 18T376 69Q348 47 317 28T249 -5Q198 -4 162 22T105 89Q101 141 115 175T156 231Q195 263 255 272T380 287Q382 329
377 364T356 421T304 444Q273 445 248 426T205 381Q210 370 210 352T205 323Q169 313 153 325T135 357Q132 397 166 428Q184 444 205 454Q235 469 271 475T343 477T404 454Q418 445 427 431Q438 417 445 390T452 342Q452 314 451 286T448 227Q446 188 445 147T445
61Q450 46 468 44T499 34ZM379 249Q354 242 324 237T266 225T215 206T181 171Q178 131 185 101T212 53Q245 49 278 57T338 85T373 132Q378 147 379 170T381 216T379 249ZM252 543Q256 565 262 578T279 604T306 641Q309 645 311 650T317 660Q325 675 335 687T365
698Q379 697 390 686T402 665Q402 652 393 644T372 630T353 618Q323 593 304 575T252 543Z" />
<glyph unicode="&#xe2;" glyph-name="acircumflex" horiz-adv-x="580" d="M499 34Q503 27 502 24T498 17Q497 14 496 12T495 4Q467 -10 440 -6T395 18T376 69Q348 47 317 28T249 -5Q198 -4 162 22T105 89Q101 141 115 175T156 231Q195 263 255 272T380 287Q382
329 377 364T356 421T304 444Q273 445 248 426T205 381Q210 370 210 352T205 323Q169 313 153 325T135 357Q132 397 166 428Q184 444 205 454Q235 469 271 475T343 477T404 454Q418 445 427 431Q438 417 445 390T452 342Q452 314 451 286T448 227Q446 188 445 147T445
61Q450 46 468 44T499 34ZM379 249Q354 242 324 237T266 225T215 206T181 171Q178 131 185 101T212 53Q245 49 278 57T338 85T373 132Q378 147 379 170T381 216T379 249ZM417 829Q414 821 409 816T389 808Q385 812 373 827T345 860T319 893T305 912Q269 864 258
857Q254 848 246 836T228 815Q221 809 212 807T192 811Q212 849 223 864T245 893Q256 907 270 925T304 956Q318 949 330 936T352 910Q371 888 387 868T417 829Z" />
<glyph unicode="&#xe3;" glyph-name="atilde" horiz-adv-x="580" d="M499 34Q503 27 502 24T498 17Q497 14 496 12T495 4Q467 -10 440 -6T395 18T376 69Q348 47 317 28T249 -5Q198 -4 162 22T105 89Q101 141 115 175T156 231Q195 263 255 272T380 287Q382 329
377 364T356 421T304 444Q273 445 248 426T205 381Q210 370 210 352T205 323Q169 313 153 325T135 357Q132 397 166 428Q184 444 205 454Q235 469 271 475T343 477T404 454Q418 445 427 431Q438 417 445 390T452 342Q452 314 451 286T448 227Q446 188 445 147T445
61Q450 46 468 44T499 34ZM379 249Q354 242 324 237T266 225T215 206T181 171Q178 131 185 101T212 53Q245 49 278 57T338 85T373 132Q378 147 379 170T381 216T379 249ZM420 917Q428 911 428 903T427 886Q426 878 426 874Q415 858 402 843T369 825Q356 823 332
829T290 845Q285 848 281 851T273 857Q257 867 244 874T219 881Q211 880 204 876T190 864Q189 859 181 851T164 844Q158 855 161 865T168 883Q178 900 187 908T216 920Q236 923 257 918T298 902Q310 891 329 883T363 876Q376 878 393 888T420 917Z" />
<glyph unicode="&#xe4;" glyph-name="adieresis" horiz-adv-x="580" d="M499 34Q503 27 502 24T498 17Q497 14 496 12T495 4Q467 -10 440 -6T395 18T376 69Q348 47 317 28T249 -5Q198 -4 162 22T105 89Q101 141 115 175T156 231Q195 263 255 272T380 287Q382 329
377 364T356 421T304 444Q273 445 248 426T205 381Q210 370 210 352T205 323Q169 313 153 325T135 357Q132 397 166 428Q184 444 205 454Q235 469 271 475T343 477T404 454Q418 445 427 431Q438 417 445 390T452 342Q452 314 451 286T448 227Q446 188 445 147T445
61Q450 46 468 44T499 34ZM379 249Q354 242 324 237T266 225T215 206T181 171Q178 131 185 101T212 53Q245 49 278 57T338 85T373 132Q378 147 379 170T381 216T379 249ZM257 882Q260 845 244 829T208 814Q189 815 173 827T154 859T168 906Q194 926 219 916T257
882ZM457 882Q460 845 444 829T408 814Q389 815 373 827T354 859T368 906Q394 926 419 916T457 882Z" />
<glyph unicode="&#xe5;" glyph-name="aring" horiz-adv-x="580" d="M499 34Q503 27 502 24T498 17Q497 14 496 12T495 4Q467 -10 440 -6T395 18T376 69Q348 47 317 28T249 -5Q198 -4 162 22T105 89Q101 141 115 175T156 231Q195 263 255 272T380 287Q382 329 377
364T356 421T304 444Q273 445 248 426T205 381Q210 370 210 352T205 323Q169 313 153 325T135 357Q132 397 166 428Q184 444 205 454Q235 469 271 475T343 477T404 454Q418 445 427 431Q438 417 445 390T452 342Q452 314 451 286T448 227Q446 188 445 147T445 61Q450
46 468 44T499 34ZM379 249Q354 242 324 237T266 225T215 206T181 171Q178 131 185 101T212 53Q245 49 278 57T338 85T373 132Q378 147 379 170T381 216T379 249ZM394 861Q380 829 360 809T296 791Q292 791 289 792T282 794Q277 796 272 797T259 797Q249 805 237
813T216 837T207 886Q207 917 227 940T275 971Q289 975 312 974T360 960Q360 959 361 958Q375 941 386 920T394 861ZM348 886Q348 906 329 925Q291 937 272 921T252 882Q252 865 263 850T296 834Q316 833 332 850T348 886Z" />
<glyph unicode="&#xe6;" glyph-name="ae" horiz-adv-x="873" d="M766 239Q733 237 692 236T607 235T526 234T463 231Q464 199 468 167T485 110Q505 72 549 53T649 57Q670 66 686 83T720 114T761 129Q766 119 762 110T753 90Q749 83 747 80Q739 65 730 48T704 23Q698
20 682 18T653 11Q646 8 629 2T594 -10T565 -15Q541 -14 522 -3T485 22T447 44Q436 56 426 70Q405 47 372 34T306 11T249 -9Q198 -5 162 22T105 89Q101 141 115 175T156 231Q195 263 255 272T380 287Q382 329 377 364T356 421T304 444Q273 445 248 426T205 381Q210
370 210 352T205 323Q169 313 153 325T135 357Q132 397 166 428Q184 444 205 454Q235 469 271 475T343 477T404 454Q418 445 427 431Q433 422 439 407Q440 409 442 411Q453 425 468 435T500 454Q548 477 601 474Q621 473 641 469T679 454Q702 443 721 420Q743 380
757 332T766 239ZM379 249Q354 242 324 237T266 225T215 206T181 171Q178 131 185 101T212 53Q245 49 278 57T338 85T373 132Q378 147 379 170T381 216T379 249ZM692 286Q697 360 668 392T599 425Q568 425 537 407T485 358T464 284Q491 285 516 285T565 284Q598
284 629 284T692 286Z" />
<glyph unicode="&#xe7;" glyph-name="ccedilla" horiz-adv-x="590" d="M485 390Q496 361 481 344T444 325Q426 325 411 339T399 385Q381 415 350 422T285 421T226 394Q207 368 197 330T187 250Q186 201 199 154T240 75Q261 51 291 41T359 41Q383 47 400 64T435
100T476 127Q484 112 478 87T461 47Q454 39 438 34T410 21Q394 11 386 1T367 -11Q344 -16 315 -14T259 -5T217 9Q182 27 156 66T116 154T104 247Q109 321 147 375T238 454Q281 474 326 474Q348 474 369 470T411 454Q453 432 485 390ZM387 -112Q387 -148 368 -157Q361
-176 337 -183T291 -190Q266 -190 243 -180T205 -160Q201 -155 201 -147T211 -139Q253 -154 288 -154Q308 -154 325 -142T343 -112Q343 -98 334 -86T311 -71Q304 -73 286 -73T261 -64Q264 -51 269 -46T279 -33Q290 -18 298 -3T315 27Q331 35 342 22Q342 11 334
-4T321 -37Q350 -44 368 -63T387 -112Z" />
<glyph unicode="&#xe8;" glyph-name="egrave" horiz-adv-x="600" d="M493 239Q460 237 419 236T334 235T253 234T190 231Q191 199 195 167T212 110Q232 72 276 53T376 57Q397 66 413 83T447 114T488 129Q493 119 489 110T480 90Q476 83 474 80Q466 65 457 48T431
23Q425 20 409 18T380 11Q373 8 356 2T321 -10T292 -15Q268 -14 249 -3T212 22T174 44Q142 77 126 126T109 228Q109 279 124 327T169 411Q180 425 195 435T227 454Q275 477 328 474Q348 473 368 469T406 454Q429 443 448 420Q470 380 484 332T493 239ZM419 286Q424
360 395 392T326 425Q295 425 264 407T212 358T191 284Q218 285 243 285T292 284Q325 284 356 284T419 286ZM367 799Q336 812 316 830T266 874Q260 880 248 885T227 899T217 921Q217 931 229 942T254 954Q274 955 284 943T302 916Q305 911 307 906T313 897Q330
874 340 861T356 834T367 799Z" />
<glyph unicode="&#xe9;" glyph-name="eacute" horiz-adv-x="600" d="M493 239Q460 237 419 236T334 235T253 234T190 231Q191 199 195 167T212 110Q232 72 276 53T376 57Q397 66 413 83T447 114T488 129Q493 119 489 110T480 90Q476 83 474 80Q466 65 457 48T431
23Q425 20 409 18T380 11Q373 8 356 2T321 -10T292 -15Q268 -14 249 -3T212 22T174 44Q142 77 126 126T109 228Q109 279 124 327T169 411Q180 425 195 435T227 454Q275 477 328 474Q348 473 368 469T406 454Q429 443 448 420Q470 380 484 332T493 239ZM419 286Q424
360 395 392T326 425Q295 425 264 407T212 358T191 284Q218 285 243 285T292 284Q325 284 356 284T419 286ZM252 543Q256 565 262 578T279 604T306 641Q309 645 311 650T317 660Q325 675 335 687T365 698Q379 697 390 686T402 665Q402 652 393 644T372 630T353
618Q323 593 304 575T252 543Z" />
<glyph unicode="&#xea;" glyph-name="ecircumflex" horiz-adv-x="600" d="M493 239Q460 237 419 236T334 235T253 234T190 231Q191 199 195 167T212 110Q232 72 276 53T376 57Q397 66 413 83T447 114T488 129Q493 119 489 110T480 90Q476 83 474 80Q466 65 457
48T431 23Q425 20 409 18T380 11Q373 8 356 2T321 -10T292 -15Q268 -14 249 -3T212 22T174 44Q142 77 126 126T109 228Q109 279 124 327T169 411Q180 425 195 435T227 454Q275 477 328 474Q348 473 368 469T406 454Q429 443 448 420Q470 380 484 332T493 239ZM419
286Q424 360 395 392T326 425Q295 425 264 407T212 358T191 284Q218 285 243 285T292 284Q325 284 356 284T419 286ZM417 829Q414 821 409 816T389 808Q385 812 373 827T345 860T319 893T305 912Q269 864 258 857Q254 848 246 836T228 815Q221 809 212 807T192
811Q212 849 223 864T245 893Q256 907 270 925T304 956Q318 949 330 936T352 910Q371 888 387 868T417 829Z" />
<glyph unicode="&#xeb;" glyph-name="edieresis" horiz-adv-x="600" d="M493 239Q460 237 419 236T334 235T253 234T190 231Q191 199 195 167T212 110Q232 72 276 53T376 57Q397 66 413 83T447 114T488 129Q493 119 489 110T480 90Q476 83 474 80Q466 65 457 48T431
23Q425 20 409 18T380 11Q373 8 356 2T321 -10T292 -15Q268 -14 249 -3T212 22T174 44Q142 77 126 126T109 228Q109 279 124 327T169 411Q180 425 195 435T227 454Q275 477 328 474Q348 473 368 469T406 454Q429 443 448 420Q470 380 484 332T493 239ZM419 286Q424
360 395 392T326 425Q295 425 264 407T212 358T191 284Q218 285 243 285T292 284Q325 284 356 284T419 286ZM257 882Q260 845 244 829T208 814Q189 815 173 827T154 859T168 906Q194 926 219 916T257 882ZM457 882Q460 845 444 829T408 814Q389 815 373 827T354
859T368 906Q394 926 419 916T457 882Z" />
<glyph unicode="&#xec;" glyph-name="igrave" horiz-adv-x="410" d="M326 24Q326 14 307 9T262 3T211 1Q204 1 197 1T185 0Q182 0 172 2Q163 5 152 6T131 3Q118 10 119 17T123 33Q125 36 126 40T127 47Q144 55 161 61T188 82Q188 141 188 191T187 293T188 405Q178
410 168 410T147 409Q141 409 136 409T127 409Q127 414 125 418T120 426Q116 431 115 436T123 449Q133 450 143 451T165 454Q191 457 216 459T265 456V454Q265 404 264 344T260 224T254 113Q254 111 254 105Q253 99 253 93T254 82Q257 71 268 65T292 53Q305 48
315 42T326 24ZM523 799Q492 812 472 830T422 874Q416 880 404 885T383 899T373 921Q373 931 385 942T410 954Q430 955 440 943T458 916Q461 911 463 906T469 897Q486 874 496 861T512 834T523 799Z" />
<glyph unicode="&#xed;" glyph-name="iacute" horiz-adv-x="410" d="M326 24Q326 14 307 9T262 3T211 1Q204 1 197 1T185 0Q182 0 172 2Q163 5 152 6T131 3Q118 10 119 17T123 33Q125 36 126 40T127 47Q144 55 161 61T188 82Q188 141 188 191T187 293T188 405Q178
410 168 410T147 409Q141 409 136 409T127 409Q127 414 125 418T120 426Q116 431 115 436T123 449Q133 450 143 451T165 454Q191 457 216 459T265 456V454Q265 404 264 344T260 224T254 113Q254 111 254 105Q253 99 253 93T254 82Q257 71 268 65T292 53Q305 48
315 42T326 24ZM160 543Q164 565 170 578T187 604T214 641Q217 645 219 650T225 660Q233 675 243 687T273 698Q287 697 298 686T310 665Q310 652 301 644T280 630T261 618Q231 593 212 575T160 543Z" />
<glyph unicode="&#xee;" glyph-name="icircumflex" horiz-adv-x="427" d="M326 24Q326 14 307 9T262 3T211 1Q204 1 197 1T185 0Q182 0 172 2Q163 5 152 6T131 3Q118 10 119 17T123 33Q125 36 126 40T127 47Q144 55 161 61T188 82Q188 141 188 191T187 293T188
405Q178 410 168 410T147 409Q141 409 136 409T127 409Q127 414 125 418T120 426Q116 431 115 436T123 449Q133 450 143 451T165 454Q191 457 216 459T265 456V454Q265 404 264 344T260 224T254 113Q254 111 254 105Q253 99 253 93T254 82Q257 71 268 65T292 53Q305
48 315 42T326 24ZM599 829Q596 821 591 816T571 808Q567 812 555 827T527 860T501 893T487 912Q451 864 440 857Q436 848 428 836T410 815Q403 809 394 807T374 811Q394 849 405 864T427 893Q438 907 452 925T486 956Q500 949 512 936T534 910Q553 888 569 868T599
829Z" />
<glyph unicode="&#xef;" glyph-name="idieresis" horiz-adv-x="502" d="M369 24Q369 14 350 9T305 3T254 1Q247 1 240 1T228 0Q225 0 215 2Q206 5 195 6T174 3Q161 10 162 17T166 33Q168 36 169 40T170 47Q187 55 204 61T231 82Q231 141 231 191T230 293T231 405Q221
410 211 410T190 409Q184 409 179 409T170 409Q170 414 168 418T163 426Q159 431 158 436T166 449Q176 450 186 451T208 454Q234 457 259 459T308 456V454Q308 404 307 344T303 224T297 113Q297 111 297 105Q296 99 296 93T297 82Q300 71 311 65T335 53Q348 48
358 42T369 24ZM218 882Q221 845 205 829T169 814Q150 815 134 827T115 859T129 906Q155 926 180 916T218 882ZM418 882Q421 845 405 829T369 814Q350 815 334 827T315 859T329 906Q355 926 380 916T418 882Z" />
<glyph unicode="&#xf0;" glyph-name="eth" horiz-adv-x="630" d="M513 711Q512 693 503 687T486 666Q479 665 464 656T429 637Q429 631 420 625Q431 614 441 602Q451 590 454 570T468 531Q473 521 483 514T496 499Q500 489 503 478T509 454Q515 427 519 393T525
328T527 286Q526 286 525 284Q529 231 519 178T491 79Q474 73 463 60T439 36T403 23Q398 24 397 21T396 14Q396 5 392 4Q351 -12 310 -12Q265 -12 228 6T163 55Q131 90 114 137T95 235Q95 270 103 304T130 370Q134 377 142 382T158 397Q172 414 186 429T225 454Q230
456 238 458Q263 465 293 468T343 469Q371 466 398 454Q418 445 436 432Q434 443 432 454Q418 519 379 566Q369 578 361 587Q348 578 337 570T310 554Q306 547 301 544T293 534Q288 533 284 531T276 525Q271 521 266 518T251 516Q225 531 243 554Q254 569 265 574T293
591Q305 599 314 606T331 618Q305 641 273 656T197 669Q180 674 167 678T139 704Q149 710 157 710T172 708Q175 707 178 707T186 706Q246 710 295 699T387 655Q397 661 405 666Q428 680 448 694T484 724Q489 725 497 722T513 711ZM451 245Q450 272 442 303T422
361T403 397Q390 414 368 419T331 426Q294 429 266 416T219 380Q197 352 187 313T176 233Q177 172 200 117T267 36Q312 29 344 39T399 72Q428 102 440 148T451 245Z" />
<glyph unicode="&#xf1;" glyph-name="ntilde" horiz-adv-x="670" d="M582 25Q579 13 561 8T520 2T482 2Q460 4 438 10T399 18Q399 35 408 42T430 53T451 67Q452 88 453 119T456 187T458 255Q458 300 451 338T422 399Q377 411 346 402T293 370Q267 341 256 294T244
194Q244 158 247 123T257 55Q268 47 284 45T310 33Q308 18 294 13T259 5Q248 4 236 4T212 5Q202 5 192 5T173 5Q168 5 164 5T154 4Q141 2 131 2T115 13Q112 26 119 36Q124 44 135 46T157 51T173 62Q181 141 179 230T173 407Q170 410 164 409T150 404Q144 402 138
401T127 399Q111 404 111 420T111 445Q123 447 135 449T160 454Q173 457 185 459T208 461Q217 461 225 460T240 454Q247 450 253 441Q253 432 251 427T247 416Q244 410 243 403T245 383Q258 390 270 403T296 429T330 448Q345 453 358 454Q375 456 391 454Q432 450
466 428T520 380Q520 377 520 371Q522 305 523 223T520 62Q536 53 554 47T582 25ZM450 917Q458 911 458 903T457 886Q456 878 456 874Q445 858 432 843T399 825Q386 823 362 829T320 845Q315 848 311 851T303 857Q287 867 274 874T249 881Q241 880 234 876T220
864Q219 859 211 851T194 844Q188 855 191 865T198 883Q208 900 217 908T246 920Q266 923 287 918T328 902Q340 891 359 883T393 876Q406 878 423 888T450 917Z" />
<glyph unicode="&#xf2;" glyph-name="ograve" horiz-adv-x="619" d="M524 293Q530 238 520 183T491 79Q474 73 463 60T439 36T403 23Q398 24 397 21T396 14Q396 5 392 4Q351 -12 310 -12Q265 -12 228 6T163 55Q131 90 114 137T95 235Q95 270 103 304T130 370Q134
377 142 382T158 397Q172 414 186 429T225 454Q230 456 238 458Q263 465 293 468T343 469Q371 466 398 454Q446 432 482 388T524 293ZM451 245Q450 272 442 303T422 361T403 397Q390 414 368 419T331 426Q294 429 266 416T219 380Q197 352 187 313T176 233Q177
172 200 117T267 36Q312 29 344 39T399 72Q428 102 440 148T451 245ZM367 799Q336 812 316 830T266 874Q260 880 248 885T227 899T217 921Q217 931 229 942T254 954Q274 955 284 943T302 916Q305 911 307 906T313 897Q330 874 340 861T356 834T367 799Z" />
<glyph unicode="&#xf3;" glyph-name="oacute" horiz-adv-x="619" d="M524 293Q530 238 520 183T491 79Q474 73 463 60T439 36T403 23Q398 24 397 21T396 14Q396 5 392 4Q351 -12 310 -12Q265 -12 228 6T163 55Q131 90 114 137T95 235Q95 270 103 304T130 370Q134
377 142 382T158 397Q172 414 186 429T225 454Q230 456 238 458Q263 465 293 468T343 469Q371 466 398 454Q446 432 482 388T524 293ZM451 245Q450 272 442 303T422 361T403 397Q390 414 368 419T331 426Q294 429 266 416T219 380Q197 352 187 313T176 233Q177
172 200 117T267 36Q312 29 344 39T399 72Q428 102 440 148T451 245ZM240 543Q244 565 250 578T267 604T294 641Q297 645 299 650T305 660Q313 675 323 687T353 698Q367 697 378 686T390 665Q390 652 381 644T360 630T341 618Q311 593 292 575T240 543Z" />
<glyph unicode="&#xf4;" glyph-name="ocircumflex" horiz-adv-x="619" d="M524 293Q530 238 520 183T491 79Q474 73 463 60T439 36T403 23Q398 24 397 21T396 14Q396 5 392 4Q351 -12 310 -12Q265 -12 228 6T163 55Q131 90 114 137T95 235Q95 270 103 304T130
370Q134 377 142 382T158 397Q172 414 186 429T225 454Q230 456 238 458Q263 465 293 468T343 469Q371 466 398 454Q446 432 482 388T524 293ZM451 245Q450 272 442 303T422 361T403 397Q390 414 368 419T331 426Q294 429 266 416T219 380Q197 352 187 313T176
233Q177 172 200 117T267 36Q312 29 344 39T399 72Q428 102 440 148T451 245ZM417 829Q414 821 409 816T389 808Q385 812 373 827T345 860T319 893T305 912Q269 864 258 857Q254 848 246 836T228 815Q221 809 212 807T192 811Q212 849 223 864T245 893Q256 907
270 925T304 956Q318 949 330 936T352 910Q371 888 387 868T417 829Z" />
<glyph unicode="&#xf5;" glyph-name="otilde" horiz-adv-x="619" d="M524 293Q530 238 520 183T491 79Q474 73 463 60T439 36T403 23Q398 24 397 21T396 14Q396 5 392 4Q351 -12 310 -12Q265 -12 228 6T163 55Q131 90 114 137T95 235Q95 270 103 304T130 370Q134
377 142 382T158 397Q172 414 186 429T225 454Q230 456 238 458Q263 465 293 468T343 469Q371 466 398 454Q446 432 482 388T524 293ZM451 245Q450 272 442 303T422 361T403 397Q390 414 368 419T331 426Q294 429 266 416T219 380Q197 352 187 313T176 233Q177
172 200 117T267 36Q312 29 344 39T399 72Q428 102 440 148T451 245ZM420 917Q428 911 428 903T427 886Q426 878 426 874Q415 858 402 843T369 825Q356 823 332 829T290 845Q285 848 281 851T273 857Q257 867 244 874T219 881Q211 880 204 876T190 864Q189 859
181 851T164 844Q158 855 161 865T168 883Q178 900 187 908T216 920Q236 923 257 918T298 902Q310 891 329 883T363 876Q376 878 393 888T420 917Z" />
<glyph unicode="&#xf6;" glyph-name="odieresis" horiz-adv-x="619" d="M524 293Q530 238 520 183T491 79Q474 73 463 60T439 36T403 23Q398 24 397 21T396 14Q396 5 392 4Q351 -12 310 -12Q265 -12 228 6T163 55Q131 90 114 137T95 235Q95 270 103 304T130 370Q134
377 142 382T158 397Q172 414 186 429T225 454Q230 456 238 458Q263 465 293 468T343 469Q371 466 398 454Q446 432 482 388T524 293ZM451 245Q450 272 442 303T422 361T403 397Q390 414 368 419T331 426Q294 429 266 416T219 380Q197 352 187 313T176 233Q177
172 200 117T267 36Q312 29 344 39T399 72Q428 102 440 148T451 245ZM257 882Q260 845 244 829T208 814Q189 815 173 827T154 859T168 906Q194 926 219 916T257 882ZM457 882Q460 845 444 829T408 814Q389 815 373 827T354 859T368 906Q394 926 419 916T457 882Z"
/>
<glyph unicode="&#xf7;" glyph-name="divide" horiz-adv-x="678" d="M581 320Q524 314 463 314T349 316Q334 317 320 317T292 318Q270 318 251 318T214 316Q181 314 153 314T98 322Q88 336 93 352T111 369Q148 371 181 371T251 369Q282 368 316 368T391 368Q408
368 423 369T450 370Q481 371 502 371T545 368Q553 367 565 362T584 346T581 320ZM385 530Q388 493 372 477T336 462Q317 463 301 475T282 507T296 554Q322 574 347 564T385 530ZM351 114Q314 111 298 127T283 163Q284 182 296 198T328 217T375 203Q395 177 385
152T351 114Z" />
<glyph unicode="&#xf8;" glyph-name="oslash" horiz-adv-x="619" d="M486 454Q488 443 485 436T476 420Q474 416 472 413T468 405Q490 381 505 353T524 293Q530 238 520 183T491 79Q474 73 463 60T439 36T403 23Q398 24 397 21T396 14Q396 5 392 4Q351 -12 310
-12Q271 -12 239 1T180 38Q173 31 172 26Q160 23 157 12T143 -3Q126 2 122 12T122 35Q126 44 132 54T147 75Q96 144 95 235Q95 270 103 304T130 370Q134 377 142 382T158 397Q172 414 186 429T225 454Q230 456 238 458Q263 465 293 468T343 469Q371 466 398 454Q417
445 434 433Q444 446 452 459Q457 461 467 461T486 454ZM451 245Q450 269 443 298T426 352Q412 332 400 314T371 286Q369 279 365 272T357 257Q347 247 338 237T320 215Q283 170 261 141T217 86Q238 53 267 36Q312 29 344 39T399 72Q428 102 440 148T451 245ZM194
133Q205 147 221 166T265 219Q279 236 292 252T319 286Q338 311 360 338T405 394Q404 396 403 397Q390 414 368 419T331 426Q294 429 266 416T219 380Q197 352 187 313T176 233Q177 180 194 133Z" />
<glyph unicode="&#xf9;" glyph-name="ugrave" horiz-adv-x="650" d="M380 799Q349 812 329 830T279 874Q273 880 261 885T240 899T230 921Q230 931 242 942T267 954Q287 955 297 943T315 916Q318 911 320 906T326 897Q343 874 353 861T369 834T380 799ZM564 20Q559
5 545 0T512 -6Q503 -6 493 -6T474 -5Q466 -4 459 -4T445 -4Q430 3 429 17T429 49Q429 56 429 63T430 77Q418 71 408 63T386 45Q364 27 339 11T274 -4Q253 -3 240 5T205 16Q176 51 167 99T157 201Q157 222 157 244T159 289Q160 320 160 350T159 409Q155 409 150
409T140 407Q129 405 119 405T102 413Q103 430 113 440T140 454Q148 456 156 457T173 458Q182 458 191 457T208 454Q233 448 243 436Q227 382 224 314T221 172Q222 147 225 122T236 77T259 51Q282 42 307 46T354 62T389 89Q408 110 417 140T430 205Q433 240 432
278T429 352Q429 364 428 375T427 398Q423 398 415 397Q403 396 390 397T370 413Q372 420 374 425T377 440Q394 442 410 446T440 454Q455 457 468 457Q474 457 479 456T490 453Q505 448 517 436Q504 432 504 417T496 391Q498 349 498 295T499 185Q499 174 499 164T497
142Q495 115 495 92T510 51Q525 45 538 37T564 20Z" />
<glyph unicode="&#xfa;" glyph-name="uacute" horiz-adv-x="650" d="M564 20Q559 5 545 0T512 -6Q503 -6 493 -6T474 -5Q466 -4 459 -4T445 -4Q430 3 429 17T429 49Q429 56 429 63T430 77Q418 71 408 63T386 45Q364 27 339 11T274 -4Q253 -3 240 5T205 16Q176
51 167 99T157 201Q157 222 157 244T159 289Q160 320 160 350T159 409Q155 409 150 409T140 407Q129 405 119 405T102 413Q103 430 113 440T140 454Q148 456 156 457T173 458Q182 458 191 457T208 454Q233 448 243 436Q227 382 224 314T221 172Q222 147 225 122T236
77T259 51Q282 42 307 46T354 62T389 89Q408 110 417 140T430 205Q433 240 432 278T429 352Q429 364 428 375T427 398Q423 398 415 397Q403 396 390 397T370 413Q372 420 374 425T377 440Q394 442 410 446T440 454Q455 457 468 457Q474 457 479 456T490 453Q505
448 517 436Q504 432 504 417T496 391Q498 349 498 295T499 185Q499 174 499 164T497 142Q495 115 495 92T510 51Q525 45 538 37T564 20ZM280 543Q284 565 290 578T307 604T334 641Q337 645 339 650T345 660Q353 675 363 687T393 698Q407 697 418 686T430 665Q430
652 421 644T400 630T381 618Q351 593 332 575T280 543Z" />
<glyph unicode="&#xfb;" glyph-name="ucircumflex" horiz-adv-x="650" d="M564 20Q559 5 545 0T512 -6Q503 -6 493 -6T474 -5Q466 -4 459 -4T445 -4Q430 3 429 17T429 49Q429 56 429 63T430 77Q418 71 408 63T386 45Q364 27 339 11T274 -4Q253 -3 240 5T205 16Q176
51 167 99T157 201Q157 222 157 244T159 289Q160 320 160 350T159 409Q155 409 150 409T140 407Q129 405 119 405T102 413Q103 430 113 440T140 454Q148 456 156 457T173 458Q182 458 191 457T208 454Q233 448 243 436Q227 382 224 314T221 172Q222 147 225 122T236
77T259 51Q282 42 307 46T354 62T389 89Q408 110 417 140T430 205Q433 240 432 278T429 352Q429 364 428 375T427 398Q423 398 415 397Q403 396 390 397T370 413Q372 420 374 425T377 440Q394 442 410 446T440 454Q455 457 468 457Q474 457 479 456T490 453Q505
448 517 436Q504 432 504 417T496 391Q498 349 498 295T499 185Q499 174 499 164T497 142Q495 115 495 92T510 51Q525 45 538 37T564 20ZM427 829Q424 821 419 816T399 808Q395 812 383 827T355 860T329 893T315 912Q279 864 268 857Q264 848 256 836T238 815Q231
809 222 807T202 811Q222 849 233 864T255 893Q266 907 280 925T314 956Q328 949 340 936T362 910Q381 888 397 868T427 829Z" />
<glyph unicode="&#xfc;" glyph-name="udieresis" horiz-adv-x="650" d="M564 20Q559 5 545 0T512 -6Q503 -6 493 -6T474 -5Q466 -4 459 -4T445 -4Q430 3 429 17T429 49Q429 56 429 63T430 77Q418 71 408 63T386 45Q364 27 339 11T274 -4Q253 -3 240 5T205 16Q176
51 167 99T157 201Q157 222 157 244T159 289Q160 320 160 350T159 409Q155 409 150 409T140 407Q129 405 119 405T102 413Q103 430 113 440T140 454Q148 456 156 457T173 458Q182 458 191 457T208 454Q233 448 243 436Q227 382 224 314T221 172Q222 147 225 122T236
77T259 51Q282 42 307 46T354 62T389 89Q408 110 417 140T430 205Q433 240 432 278T429 352Q429 364 428 375T427 398Q423 398 415 397Q403 396 390 397T370 413Q372 420 374 425T377 440Q394 442 410 446T440 454Q455 457 468 457Q474 457 479 456T490 453Q505
448 517 436Q504 432 504 417T496 391Q498 349 498 295T499 185Q499 174 499 164T497 142Q495 115 495 92T510 51Q525 45 538 37T564 20ZM275 882Q278 845 262 829T226 814Q207 815 191 827T172 859T186 906Q212 926 237 916T275 882ZM475 882Q478 845 462 829T426
814Q407 815 391 827T372 859T386 906Q412 926 437 916T475 882Z" />
<glyph unicode="&#xfd;" glyph-name="yacute" horiz-adv-x="620" d="M569 425Q564 412 553 409T528 403T503 390Q493 380 491 372T482 346Q471 316 452 274T409 183T361 85T316 -9T279 -86Q271 -105 261 -122T234 -151Q210 -167 173 -161Q152 -157 143 -144T112
-121Q111 -100 119 -87T140 -66Q157 -58 176 -61T209 -81Q226 -71 242 -45T272 11T293 59Q290 68 283 72T270 82Q242 165 209 243T145 402Q127 401 111 402T84 409Q77 417 78 421T83 430Q85 432 87 435T88 444Q93 444 98 444T110 446Q129 448 153 450T201 451Q232
450 257 444T293 421Q277 414 260 408T222 396Q245 329 271 268T321 139Q359 195 385 260T438 393Q434 397 426 397T409 398Q401 397 393 397T380 402Q380 406 380 409T378 417Q376 425 376 431T386 444Q397 444 406 444T426 445Q469 446 502 444T569 425ZM280
543Q284 565 290 578T307 604T334 641Q337 645 339 650T345 660Q353 675 363 687T393 698Q407 697 418 686T430 665Q430 652 421 644T400 630T381 618Q351 593 332 575T280 543Z" />
<glyph unicode="&#xfe;" glyph-name="thorn" horiz-adv-x="620" d="M506 373Q517 348 521 313T524 240T516 167T498 107Q479 61 449 38T372 -9Q322 -6 280 5T211 44Q211 -6 211 -35T213 -79T217 -104Q232 -114 250 -122T288 -136Q280 -159 257 -166T203 -173Q192
-173 180 -172T156 -170Q138 -169 122 -168T92 -168Q82 -163 82 -150T84 -128Q85 -125 85 -124Q102 -118 118 -112T146 -94Q146 -86 146 -67T146 -25T147 19T148 54Q145 113 145 171T148 286Q148 328 149 370T149 454Q148 489 147 524T143 595Q139 601 130 602T110
602Q102 602 94 602T81 606Q79 626 94 636T131 648Q159 651 189 647T235 637Q223 597 218 551T213 454Q213 437 213 419T215 384Q232 412 257 429T312 454Q323 457 334 458T357 459Q368 459 379 458T402 454Q436 446 464 426T506 373ZM334 30Q373 31 399 63T438
144T451 243Q451 284 444 319T422 377Q408 399 388 408T347 417Q313 417 282 398T238 354Q231 339 225 313T213 256T208 194T215 143Q223 116 243 93T272 49Q306 30 334 30Z" />
<glyph unicode="&#xff;" glyph-name="ydieresis" horiz-adv-x="620" d="M569 425Q564 412 553 409T528 403T503 390Q493 380 491 372T482 346Q471 316 452 274T409 183T361 85T316 -9T279 -86Q271 -105 261 -122T234 -151Q210 -167 173 -161Q152 -157 143 -144T112
-121Q111 -100 119 -87T140 -66Q157 -58 176 -61T209 -81Q226 -71 242 -45T272 11T293 59Q290 68 283 72T270 82Q242 165 209 243T145 402Q127 401 111 402T84 409Q77 417 78 421T83 430Q85 432 87 435T88 444Q93 444 98 444T110 446Q129 448 153 450T201 451Q232
450 257 444T293 421Q277 414 260 408T222 396Q245 329 271 268T321 139Q359 195 385 260T438 393Q434 397 426 397T409 398Q401 397 393 397T380 402Q380 406 380 409T378 417Q376 425 376 431T386 444Q397 444 406 444T426 445Q469 446 502 444T569 425ZM267
882Q270 845 254 829T218 814Q199 815 183 827T164 859T178 906Q204 926 229 916T267 882ZM467 882Q470 845 454 829T418 814Q399 815 383 827T364 859T378 906Q404 926 429 916T467 882Z" />
<glyph unicode="&#x2013;" glyph-name="endash" horiz-adv-x="635" d="M550 333Q503 327 464 327T381 330Q360 331 338 332T291 333Q274 333 257 332T223 330Q188 327 154 327T86 337Q78 351 82 369T97 389Q168 394 230 393T352 389Q368 389 383 388T415 387Q424
387 434 387T454 389Q471 390 487 390T519 388Q526 387 536 380T552 361T550 333Z" />
<glyph unicode="&#x2014;" glyph-name="emdash" horiz-adv-x="1000" d="M1000 287Q981 287 944 285T861 281T769 279Q663 279 543 280T291 283Q251 283 218 283T158 282Q109 281 73 281T0 287V339Q135 344 246 343T451 339Q470 338 488 338T525 337Q582 336 621
336T692 338Q721 339 746 339T803 338Q833 337 868 337T934 338Q954 339 971 339T1000 339V287Z" />
<glyph unicode="&#x2018;" glyph-name="quoteleft" horiz-adv-x="425" d="M315 790Q311 785 306 780T294 770Q275 753 259 732T254 682Q283 683 298 665T313 624Q314 605 304 589T273 567Q252 563 233 571T201 595T184 630Q178 673 196 707T242 767T296 803Q311
807 317 803T315 790Z" />
<glyph unicode="&#x2019;" glyph-name="quoteright" horiz-adv-x="422" d="M238 726Q242 701 234 674T211 624T180 587Q170 579 157 571T130 560T106 567Q117 582 135 596T165 629Q171 640 173 651T169 676Q153 684 135 689T109 711Q108 754 126 771T167 787Q191
786 212 769T238 726Z" />
<glyph unicode="&#x201a;" glyph-name="quotesinglbase" horiz-adv-x="416" d="M233 43Q233 15 224 -12T198 -60Q182 -78 159 -85T106 -83Q111 -69 127 -59T156 -36Q165 -26 170 -13T172 19Q131 25 114 57Q105 73 106 92T123 130Q149 142 169 140T202 127Q218
114 225 92T233 43Z" />
<glyph unicode="&#x201c;" glyph-name="quotedblleft" horiz-adv-x="718" d="M235 637Q234 666 246 693T274 742Q291 763 314 774T369 781Q366 764 350 753T318 727Q308 717 302 705T295 676Q318 675 336 662T361 627T353 579Q331 565 302 562T252 579Q243 591
239 606T235 637ZM405 637Q405 669 419 702T458 758T517 781Q519 764 511 753T490 731Q486 728 483 725T476 718Q468 709 463 698T458 669Q483 673 498 664T520 638Q526 623 524 605T513 571Q489 562 470 562Q436 561 421 583T405 637Z" />
<glyph unicode="&#x201d;" glyph-name="quotedblright" horiz-adv-x="578" d="M395 706Q396 678 385 650T356 601Q340 580 316 569T261 562Q264 579 280 590T312 616Q322 626 328 638T335 667Q312 669 294 682T269 717T277 764Q299 778 329 781T378 764Q387 752
391 737T395 706ZM225 706Q225 674 211 641T172 585T113 562Q111 579 119 590T140 612Q144 615 147 618T154 625Q162 634 168 645T172 674Q147 670 132 679T110 705Q104 720 106 738T117 772Q141 781 160 781Q195 782 210 760T225 706Z" />
<glyph unicode="&#x201e;" glyph-name="quotedblbase" horiz-adv-x="578" d="M395 56Q396 28 385 0T356 -49Q340 -70 316 -81T261 -88Q264 -71 280 -60T312 -34Q322 -24 328 -12T335 17Q312 19 294 32T269 67T277 114Q299 128 329 131T378 114Q387 102 391 87T395
56ZM225 56Q225 24 211 -9T172 -65T113 -88Q111 -71 119 -60T140 -38Q144 -35 147 -32T154 -25Q162 -16 168 -5T172 24Q147 20 132 29T110 55Q104 70 106 88T117 122Q141 131 160 131Q195 132 210 110T225 56Z" />
<glyph unicode="&#x2022;" glyph-name="bullet" horiz-adv-x="500" d="M354 379Q353 356 344 335T317 301Q315 297 312 294Q303 291 297 286T283 277Q264 273 245 274T208 283Q195 288 187 296T170 315Q157 331 151 355T150 406Q158 438 189 460Q203 470 219 476T253
481Q258 481 265 481T275 477Q277 478 283 478Q287 477 299 472T316 458Q328 454 332 439Q344 429 349 413T354 379Z" />
<glyph unicode="&#x2039;" glyph-name="guilsinglleft" horiz-adv-x="422" d="M341 431Q339 428 331 419T312 400Q289 378 266 350T226 296T203 257Q223 229 246 199T292 133Q307 126 311 115T324 89Q329 80 328 69T320 43Q289 62 273 83T243 128T206 173Q191
188 182 207T153 252Q162 279 173 298T202 333Q216 347 227 365T256 404Q273 424 290 440T316 469Q337 461 341 431Z" />
<glyph unicode="&#x203a;" glyph-name="guilsinglright" horiz-adv-x="422" d="M81 431Q85 461 106 469Q114 457 132 441T166 404Q183 383 194 365T220 333Q238 317 249 298T269 252Q250 226 241 207T216 173Q193 151 180 128T150 84T102 43Q96 57 95 68T98 89Q107
104 111 115T130 133Q152 169 176 199T219 257Q213 270 196 295T157 349T110 400Q100 410 92 419T81 431Z" />
</font>
</defs>
</svg>
