<?xml version="1.0" standalone="no"?>
<!DOCTYPE svg PUBLIC "-//W3C//DTD SVG 1.1//EN" "http://www.w3.org/Graphics/SVG/1.1/DTD/svg11.dtd">
<svg xmlns="http://www.w3.org/2000/svg">
<defs >
<font id="Notable" horiz-adv-x="759" ><font-face
    font-family="Notable"
    units-per-em="1000"
    panose-1="0 0 5 0 0 0 0 0 0 0"
    ascent="1143"
    descent="-157"
    alphabetic="0" />
<glyph unicode=" " glyph-name="space" horiz-adv-x="427" />
<glyph unicode="!" glyph-name="exclam" horiz-adv-x="348" d="M32 700H316V223H32V700ZM28 -5T28 91Q28 186 174 186Q320 186 320 91Q320 -5 174 -5Q28 -5 28 91Z" />
<glyph unicode="&quot;" glyph-name="quotedbl" horiz-adv-x="495" d="M28 700H226L201 395H53L28 700ZM269 700H466L442 395H293L269 700Z" />
<glyph unicode="#" glyph-name="numbersign" horiz-adv-x="1146" d="M998 483L902 228H1125V166H879L816 0H510L573 166H434L371 0H66L129 166H21V228H152L248 483H21V545H272L330 700H635L577 545H716L775 700H1080L1022 545H1125V483H998ZM693 483H553L457 228H596L693
483Z" />
<glyph unicode="$" glyph-name="dollar" horiz-adv-x="815" d="M793 163T754 112T641 30V-112H442V-5H430Q393 -5 360 -2V-112H161V40Q116 57 81 78T25 117L58 162Q98 129 161 103V281Q93 315 57 363T21 474Q21 533 55 582T154 663V813H353V706H370Q408 706 441
703V813H640V659Q677 644 706 627T751 595L717 550Q688 574 640 596V421Q716 389 754 342T793 228Q793 163 754 112ZM362 643T329 624T295 570Q295 544 320 525T415 486L441 479V643H425Q362 643 329 624ZM419 63T449 80T479 128Q479 182 372 212L360 216V63Q419
63 449 80Z" />
<glyph unicode="%" glyph-name="percent" horiz-adv-x="1408" d="M594 0H404L777 641H525Q563 613 583 574T604 484Q604 416 566 368T463 294T316 269Q235 269 170 294T67 367T28 484Q28 552 66 601T170 675T316 700H1000L594 0ZM353 328T366 365T380 484Q380
566 367 603T316 641Q279 641 266 604T252 484Q252 403 265 366T316 328Q353 328 366 365ZM1172 432T1237 407T1341 333T1379 216Q1379 147 1341 99T1238 25T1091 0Q1010 0 945 25T842 98T803 216Q803 284 841 332T945 406T1091 432Q1172 432 1237 407ZM1128 59T1141
96T1155 216Q1155 298 1142 335T1091 373Q1054 373 1041 336T1027 216Q1027 134 1040 97T1091 59Q1128 59 1141 96Z" />
<glyph unicode="&amp;" glyph-name="ampersand" horiz-adv-x="1048" d="M1012 270T962 171T790 30L828 -64H637Q594 -64 552 -49T481 -5Q323 -3 227 19T84 92T36 233Q36 333 101 383T289 445Q270 498 270 539Q270 627 346 666T533 706Q639 706 697 662T769 555H715Q704
591 678 616T610 642Q568 642 568 605Q568 586 576 561T603 491L612 470L698 258Q727 339 727 447H1012Q1012 270 962 171ZM322 139T349 102T439 63L335 328Q322 293 322 226Q322 139 349 102Z" />
<glyph unicode="&apos;" glyph-name="quotesingle" horiz-adv-x="255" d="M28 700H226L201 395H53L28 700Z" />
<glyph unicode="(" glyph-name="parenleft" horiz-adv-x="327" d="M299 -112T215 -74T80 67T28 351Q28 532 79 634T215 774T412 813V752Q349 752 319 709T279 584T269 351Q269 199 278 117T318 -8T412 -51V-112Q299 -112 215 -74Z" />
<glyph unicode=")" glyph-name="parenright" horiz-adv-x="327" d="M-85 -51Q-21 -51 9 -9T49 116T58 351Q58 503 49 584T10 709T-85 752V813Q29 813 113 775T248 635T299 351Q299 169 248 67T113 -73T-85 -112V-51Z" />
<glyph unicode="*" glyph-name="asterisk" horiz-adv-x="506" d="M368 450L436 356L321 273L253 366L185 273L70 356L138 450L28 486L72 621L182 585V700H324V585L434 621L478 486L368 450Z" />
<glyph unicode="+" glyph-name="plus" horiz-adv-x="711" d="M640 244H462V66H249V244H71V457H249V635H462V457H640V244Z" />
<glyph unicode="," glyph-name="comma" horiz-adv-x="255" d="M28 194H226L171 -112H28V194Z" />
<glyph unicode="-" glyph-name="hyphen" horiz-adv-x="526" d="M36 458H491V245H36V458Z" />
<glyph unicode="." glyph-name="period" horiz-adv-x="255" d="M28 194H226V0H28V194Z" />
<glyph unicode="/" glyph-name="slash" horiz-adv-x="597" d="M365 813H576L227 -112H21L365 813Z" />
<glyph unicode="0" glyph-name="zero" horiz-adv-x="735" d="M473 706T551 661T672 536T714 351Q714 246 672 166T552 40T368 -5Q263 -5 185 40T64 165T21 351Q21 455 63 535T184 661T368 706Q473 706 551 661ZM288 579T283 518Q279 480 279 359L448 555Q442 588
430 609Q410 647 368 647Q326 647 305 609Q288 579 283 518ZM447 122T452 183Q457 231 457 340L288 143Q294 109 305 92Q326 54 368 54Q410 54 430 92Q447 122 452 183Z" />
<glyph unicode="1" glyph-name="one" horiz-adv-x="499" d="M471 711V0H144V553L28 522V593L471 711Z" />
<glyph unicode="2" glyph-name="two" horiz-adv-x="703" d="M28 0L247 330Q360 495 360 559Q360 592 339 611T282 631Q233 631 197 604T141 539T115 468H54Q73 578 152 642T365 706Q436 706 500 682T603 609T643 487Q643 455 636 424Q629 396 612 361T576 296L422
60H675V0H28Z" />
<glyph unicode="3" glyph-name="three" horiz-adv-x="769" d="M271 -6T194 29T75 126T28 267H90Q97 204 129 160T208 95T308 72Q383 72 427 119T471 245Q471 325 417 373T240 422L349 635H97V695H702L592 480Q661 447 701 390T741 257Q741 178 697 119T572 27T381
-6Q271 -6 194 29Z" />
<glyph unicode="4" glyph-name="four" horiz-adv-x="837" d="M336 141H14L432 700H669V201H816V141H669V0H336V141ZM336 201V459L146 201H336Z" />
<glyph unicode="5" glyph-name="five" horiz-adv-x="741" d="M263 -5T186 30T68 126T21 267H82Q90 204 122 161T201 95T301 73Q369 73 408 109T447 200Q447 267 400 301T290 344T128 358L66 361L113 700H643V641H387L374 527Q541 522 630 458T720 272Q720 192
679 129T560 31T374 -5Q263 -5 186 30Z" />
<glyph unicode="6" glyph-name="six" horiz-adv-x="730" d="M273 -5T194 27T68 124T21 279Q21 324 37 370T92 483L218 700H545L432 504Q507 501 570 472T671 389T709 265Q709 181 664 120T542 27T369 -5Q273 -5 194 27ZM399 54T414 81Q427 107 430 155Q432 174
432 242V256Q432 325 430 344Q427 392 414 418Q400 444 369 444Q337 444 324 418Q310 393 307 344Q305 306 305 256V242Q305 193 307 155Q310 106 324 81Q338 54 369 54Q399 54 414 81Z" />
<glyph unicode="7" glyph-name="seven" horiz-adv-x="767" d="M387 641H28V700H753L488 0H149L387 641Z" />
<glyph unicode="8" glyph-name="eight" horiz-adv-x="857" d="M251 -6T140 46T28 215Q28 287 69 333T173 396Q124 411 93 447T61 538Q61 705 429 705Q796 705 796 538Q796 483 765 447T684 396Q746 379 787 333T829 215Q829 98 718 46T429 -6Q251 -6 140 46ZM458
428T471 446Q488 470 488 533V537V541Q488 604 471 628Q458 646 429 646Q399 646 387 628Q369 604 369 541V537V533Q369 470 387 446Q399 428 429 428Q458 428 471 446ZM461 53T474 77Q486 95 491 141Q493 157 493 215Q493 273 491 289Q488 326 474 346Q459 369
429 369Q398 369 383 346Q369 323 366 289Q364 257 364 215Q364 173 366 141Q371 97 383 77Q397 53 429 53Q461 53 474 77Z" />
<glyph unicode="9" glyph-name="nine" horiz-adv-x="730" d="M299 196Q223 199 160 228T59 311T21 435Q21 519 66 580T188 673T361 705Q457 705 536 673T662 577T709 422Q709 377 693 331T638 217L513 0H185L299 196ZM393 256T407 282Q420 308 423 356Q425 394
425 444V458Q425 507 423 545Q420 594 407 619Q392 646 361 646Q331 646 316 619Q303 594 300 545Q298 507 298 458V444Q298 394 300 356Q303 308 316 282Q330 256 361 256Q393 256 407 282Z" />
<glyph unicode=":" glyph-name="colon" horiz-adv-x="269" d="M36 635H233V441H36V635ZM36 194H233V0H36V194Z" />
<glyph unicode=";" glyph-name="semicolon" horiz-adv-x="269" d="M36 635H233V441H36V635ZM36 194H233L178 -112H36V194Z" />
<glyph unicode="&lt;" glyph-name="less" horiz-adv-x="700" d="M629 395L245 271L629 139V66L71 257V444L629 635V395Z" />
<glyph unicode="=" glyph-name="equal" horiz-adv-x="782" d="M71 599H711V400H71V599ZM71 302H711V103H71V302Z" />
<glyph unicode="&gt;" glyph-name="greater" horiz-adv-x="700" d="M629 444V257L71 66V306L454 430L71 562V635L629 444Z" />
<glyph unicode="?" glyph-name="question" horiz-adv-x="619" d="M166 283T189 325T257 419Q294 463 312 494T331 560Q331 592 310 612T252 632Q204 632 167 605T109 539T82 468H21Q40 579 117 642T326 706Q397 706 458 682T558 609T597 489Q597 436 575 400T512
320Q484 291 470 272T451 229H166Q166 283 189 325ZM163 -5T163 91Q163 186 309 186Q454 186 454 91Q454 -5 309 -5Q163 -5 163 91Z" />
<glyph unicode="@" glyph-name="at" horiz-adv-x="768" d="M288 -5T206 43T76 172T28 351Q28 447 76 528T206 658T384 706Q480 706 561 658T691 529T739 351Q739 281 715 219H417L384 294H289L261 219H215L324 510H446L540 297H656Q661 318 661 351Q661 426 624
489T524 590T384 628Q309 628 246 591T145 490T107 351Q107 276 144 212T245 111T384 73Q430 73 476 89L508 17Q447 -5 384 -5Q288 -5 206 43ZM365 336L332 408L305 336H365Z" />
<glyph unicode="A" glyph-name="A" horiz-adv-x="902" d="M282 700H574L884 0H506L401 232H181L91 0H18L282 700ZM373 293L282 496L203 293H373Z" />
<glyph unicode="B" glyph-name="B" horiz-adv-x="921" d="M36 700H703Q754 700 796 676T864 609T889 515Q889 466 865 422T801 351Q841 323 865 279T889 185Q889 135 864 93T797 25T703 0H36V700ZM438 379T468 396T516 444T534 510Q534 546 517 576T469 625T402
643H387V380Q392 379 402 379Q438 379 468 396ZM438 58T468 75T516 123T534 190Q534 225 517 255T469 303T402 321H387V59Q392 58 402 58Q438 58 468 75Z" />
<glyph unicode="C" glyph-name="C" horiz-adv-x="807" d="M616 65T660 126T717 274H779Q765 166 708 90Q676 48 636 28T547 1T420 -5Q310 -5 242 16T124 87Q28 183 28 351Q28 528 114 614Q170 670 239 688T420 706Q523 706 587 692T693 630Q727 591 746 536T768
427H711Q707 472 690 519T635 601T541 636Q487 636 454 589Q425 552 410 480Q399 425 399 351Q399 234 427 162Q463 65 541 65Q616 65 660 126Z" />
<glyph unicode="D" glyph-name="D" horiz-adv-x="925" d="M28 700H554Q697 700 801 598Q904 495 904 351Q904 205 801 102Q698 0 554 0H28V700ZM438 58Q495 58 520 95Q544 131 550 197Q555 240 555 351Q555 437 549 515Q543 574 519 605Q494 642 438 642H378V58H438Z" />
<glyph unicode="E" glyph-name="E" horiz-adv-x="784" d="M28 700H755V641H380V382H564V322H380V60H755V0H28V700Z" />
<glyph unicode="F" glyph-name="F" horiz-adv-x="783" d="M28 700H754V641H379V382H563V322H379V0H28V700Z" />
<glyph unicode="G" glyph-name="G" horiz-adv-x="876" d="M28 528T115 614Q171 670 240 688T421 706Q525 706 588 692T693 630Q727 591 746 536T769 427H712Q708 472 691 519T636 601T542 636Q489 636 454 589Q424 548 411 480Q399 420 399 351Q399 238 427 162Q464
65 542 65V342H848V0Q704 0 522 -4L421 -5Q311 -5 243 16T125 87Q28 184 28 351Q28 528 115 614Z" />
<glyph unicode="H" glyph-name="H" horiz-adv-x="957" d="M28 700H368V387H589V700H929V0H589V320H368V0H28V700Z" />
<glyph unicode="I" glyph-name="I" horiz-adv-x="383" d="M28 700H354V0H28V700Z" />
<glyph unicode="J" glyph-name="J" horiz-adv-x="728" d="M244 -5T172 13T64 78T28 210V265H87V210Q87 74 203 74Q255 74 286 106T318 210V700H700V210Q700 101 623 48T364 -5Q244 -5 172 13Z" />
<glyph unicode="K" glyph-name="K" horiz-adv-x="967" d="M28 700H379V0H28V700ZM379 351L543 700H892L717 351L939 0H586L379 351Z" />
<glyph unicode="L" glyph-name="L" horiz-adv-x="788" d="M28 700H379V60H759V0H28V700Z" />
<glyph unicode="M" glyph-name="M" horiz-adv-x="931" d="M87 466V0H28V700H320L466 408L582 700H902V0H582V525L378 0H291L87 466Z" />
<glyph unicode="N" glyph-name="N" horiz-adv-x="702" d="M28 700H322L614 350V700H674V0H439L89 466V0H28V700Z" />
<glyph unicode="O" glyph-name="O" horiz-adv-x="990" d="M362 -5T254 36T84 157T21 351Q21 463 84 543T254 664T496 706Q629 706 736 665T906 543T969 351Q969 238 907 158T737 36T496 -5Q362 -5 254 36ZM538 54T558 92Q575 121 581 195Q584 234 584 351Q584
469 579 518Q576 578 557 609Q537 647 496 647Q454 647 433 609Q416 579 411 518Q407 466 407 351Q407 221 410 195Q414 126 432 92Q453 54 496 54Q538 54 558 92Z" />
<glyph unicode="P" glyph-name="P" horiz-adv-x="880" d="M28 700H663Q751 700 805 650T859 513Q859 462 834 418T765 348T665 322L360 321V0H28V700ZM395 379Q431 379 461 396T509 444T527 510Q527 546 510 576T462 625T395 643H360V379H395Z" />
<glyph unicode="Q" glyph-name="Q" horiz-adv-x="990" d="M969 206T865 112L969 -64H742Q697 -64 654 -47T581 0Q534 -5 495 -5Q361 -5 254 36T84 157T21 351Q21 463 83 543T254 664T495 706Q628 706 736 665T906 543T969 351Q969 206 865 112ZM538 54T558 92Q575
121 581 195Q584 234 584 351Q584 453 579 518Q576 578 557 609Q537 647 495 647Q454 647 433 609Q416 579 411 518Q406 469 406 351Q406 230 410 195Q415 122 432 92Q453 54 495 54Q538 54 558 92Z" />
<glyph unicode="R" glyph-name="R" horiz-adv-x="907" d="M28 700H697Q746 700 787 676T853 610T878 519Q878 454 838 401T737 333Q791 318 825 276T860 181V0H525V217Q525 249 513 267Q499 288 481 298Q461 309 436 314Q410 319 387 320L360 321V0H28V700ZM395
379Q431 379 461 396T509 444T527 510Q527 546 510 576T462 625T395 643H360V378L395 379Z" />
<glyph unicode="S" glyph-name="S" horiz-adv-x="815" d="M675 417T734 365T793 228Q793 161 751 108T628 25T430 -5Q293 -5 189 30T25 117L58 162Q110 121 189 92T359 63Q418 63 448 80T479 128Q479 182 372 212L242 250Q136 282 79 339T21 474Q21 539 62 592T181
675T370 706Q475 706 563 682T708 624L675 578Q628 605 563 624T425 643Q362 643 329 624T295 570Q295 544 320 525T415 486L556 449Q675 417 734 365Z" />
<glyph unicode="T" glyph-name="T" horiz-adv-x="919" d="M284 641H21V700H898V641H634V0H284V641Z" />
<glyph unicode="U" glyph-name="U" horiz-adv-x="728" d="M183 -5T106 48T28 210V700H410V210Q410 139 441 107T525 74Q641 74 641 210V700H700V210Q700 125 664 79T556 14T364 -5Q183 -5 106 48Z" />
<glyph unicode="V" glyph-name="V" horiz-adv-x="843" d="M11 700H335L564 184L756 700H833L569 0H321L11 700Z" />
<glyph unicode="W" glyph-name="W" horiz-adv-x="1442" d="M11 700H351L585 171L782 700H932L1162 183L1354 700H1431L1167 0H864L719 328L595 0H321L11 700Z" />
<glyph unicode="X" glyph-name="X" horiz-adv-x="796" d="M222 353L48 700H398L538 422L690 700H768L574 348L748 0H398L259 279L105 0H28L222 353Z" />
<glyph unicode="Y" glyph-name="Y" horiz-adv-x="796" d="M238 321L21 700H413L557 414L697 700H774L588 321V0H238V321Z" />
<glyph unicode="Z" glyph-name="Z" horiz-adv-x="845" d="M408 642H28V700H816L437 58H816V0H28L408 642Z" />
<glyph unicode="[" glyph-name="bracketleft" horiz-adv-x="270" d="M28 813H384V752H228V-51H384V-112H28V813Z" />
<glyph unicode="\" glyph-name="backslash" horiz-adv-x="663" d="M21 813H232L642 -112H431L21 813Z" />
<glyph unicode="]" glyph-name="bracketright" horiz-adv-x="270" d="M-114 -51H43V752H-114V813H242V-112H-114V-51Z" />
<glyph unicode="^" glyph-name="asciicircum" horiz-adv-x="568" d="M466 245L364 544L267 245H28L184 700H383L540 245H466Z" />
<glyph unicode="_" glyph-name="underscore" horiz-adv-x="981" d="M21 0H960V-213H21V0Z" />
<glyph unicode="`" glyph-name="grave" horiz-adv-x="427" d="M21 882H306L462 746H178L21 882Z" />
<glyph unicode="a" glyph-name="a" horiz-adv-x="902" d="M282 700H574L884 0H506L401 232H181L91 0H18L282 700ZM373 293L282 496L203 293H373Z" />
<glyph unicode="b" glyph-name="b" horiz-adv-x="921" d="M36 700H703Q754 700 796 676T864 609T889 515Q889 466 865 422T801 351Q841 323 865 279T889 185Q889 135 864 93T797 25T703 0H36V700ZM438 379T468 396T516 444T534 510Q534 546 517 576T469 625T402
643H387V380Q392 379 402 379Q438 379 468 396ZM438 58T468 75T516 123T534 190Q534 225 517 255T469 303T402 321H387V59Q392 58 402 58Q438 58 468 75Z" />
<glyph unicode="c" glyph-name="c" horiz-adv-x="807" d="M616 65T660 126T717 274H779Q765 166 708 90Q676 48 636 28T547 1T420 -5Q310 -5 242 16T124 87Q28 183 28 351Q28 528 114 614Q170 670 239 688T420 706Q523 706 587 692T693 630Q727 591 746 536T768
427H711Q707 472 690 519T635 601T541 636Q487 636 454 589Q425 552 410 480Q399 425 399 351Q399 234 427 162Q463 65 541 65Q616 65 660 126Z" />
<glyph unicode="d" glyph-name="d" horiz-adv-x="925" d="M28 700H554Q697 700 801 598Q904 495 904 351Q904 205 801 102Q698 0 554 0H28V700ZM438 58Q495 58 520 95Q544 131 550 197Q555 240 555 351Q555 437 549 515Q543 574 519 605Q494 642 438 642H378V58H438Z" />
<glyph unicode="e" glyph-name="e" horiz-adv-x="784" d="M28 700H755V641H380V382H564V322H380V60H755V0H28V700Z" />
<glyph unicode="f" glyph-name="f" horiz-adv-x="783" d="M28 700H754V641H379V382H563V322H379V0H28V700Z" />
<glyph unicode="g" glyph-name="g" horiz-adv-x="876" d="M28 528T115 614Q171 670 240 688T421 706Q525 706 588 692T693 630Q727 591 746 536T769 427H712Q708 472 691 519T636 601T542 636Q489 636 454 589Q424 548 411 480Q399 420 399 351Q399 238 427 162Q464
65 542 65V342H848V0Q704 0 522 -4L421 -5Q311 -5 243 16T125 87Q28 184 28 351Q28 528 115 614Z" />
<glyph unicode="h" glyph-name="h" horiz-adv-x="957" d="M28 700H368V387H589V700H929V0H589V320H368V0H28V700Z" />
<glyph unicode="i" glyph-name="i" horiz-adv-x="383" d="M28 700H354V0H28V700Z" />
<glyph unicode="j" glyph-name="j" horiz-adv-x="728" d="M244 -5T172 13T64 78T28 210V265H87V210Q87 74 203 74Q255 74 286 106T318 210V700H700V210Q700 101 623 48T364 -5Q244 -5 172 13Z" />
<glyph unicode="k" glyph-name="k" horiz-adv-x="967" d="M28 700H379V0H28V700ZM379 351L543 700H892L717 351L939 0H586L379 351Z" />
<glyph unicode="l" glyph-name="l" horiz-adv-x="788" d="M28 700H379V60H759V0H28V700Z" />
<glyph unicode="m" glyph-name="m" horiz-adv-x="931" d="M87 466V0H28V700H320L466 408L582 700H902V0H582V525L378 0H291L87 466Z" />
<glyph unicode="n" glyph-name="n" horiz-adv-x="702" d="M28 700H322L614 350V700H674V0H439L89 466V0H28V700Z" />
<glyph unicode="o" glyph-name="o" horiz-adv-x="990" d="M362 -5T254 36T84 157T21 351Q21 463 84 543T254 664T496 706Q629 706 736 665T906 543T969 351Q969 238 907 158T737 36T496 -5Q362 -5 254 36ZM538 54T558 92Q575 121 581 195Q584 234 584 351Q584
469 579 518Q576 578 557 609Q537 647 496 647Q454 647 433 609Q416 579 411 518Q407 466 407 351Q407 221 410 195Q414 126 432 92Q453 54 496 54Q538 54 558 92Z" />
<glyph unicode="p" glyph-name="p" horiz-adv-x="880" d="M28 700H663Q751 700 805 650T859 513Q859 462 834 418T765 348T665 322L360 321V0H28V700ZM395 379Q431 379 461 396T509 444T527 510Q527 546 510 576T462 625T395 643H360V379H395Z" />
<glyph unicode="q" glyph-name="q" horiz-adv-x="990" d="M969 206T865 112L969 -64H742Q697 -64 654 -47T581 0Q534 -5 495 -5Q361 -5 254 36T84 157T21 351Q21 463 83 543T254 664T495 706Q628 706 736 665T906 543T969 351Q969 206 865 112ZM538 54T558 92Q575
121 581 195Q584 234 584 351Q584 453 579 518Q576 578 557 609Q537 647 495 647Q454 647 433 609Q416 579 411 518Q406 469 406 351Q406 230 410 195Q415 122 432 92Q453 54 495 54Q538 54 558 92Z" />
<glyph unicode="r" glyph-name="r" horiz-adv-x="907" d="M28 700H697Q746 700 787 676T853 610T878 519Q878 454 838 401T737 333Q791 318 825 276T860 181V0H525V217Q525 249 513 267Q499 288 481 298Q461 309 436 314Q410 319 387 320L360 321V0H28V700ZM395
379Q431 379 461 396T509 444T527 510Q527 546 510 576T462 625T395 643H360V378L395 379Z" />
<glyph unicode="s" glyph-name="s" horiz-adv-x="815" d="M675 417T734 365T793 228Q793 161 751 108T628 25T430 -5Q293 -5 189 30T25 117L58 162Q110 121 189 92T359 63Q418 63 448 80T479 128Q479 182 372 212L242 250Q136 282 79 339T21 474Q21 539 62 592T181
675T370 706Q475 706 563 682T708 624L675 578Q628 605 563 624T425 643Q362 643 329 624T295 570Q295 544 320 525T415 486L556 449Q675 417 734 365Z" />
<glyph unicode="t" glyph-name="t" horiz-adv-x="919" d="M284 641H21V700H898V641H634V0H284V641Z" />
<glyph unicode="u" glyph-name="u" horiz-adv-x="728" d="M183 -5T106 48T28 210V700H410V210Q410 139 441 107T525 74Q641 74 641 210V700H700V210Q700 125 664 79T556 14T364 -5Q183 -5 106 48Z" />
<glyph unicode="v" glyph-name="v" horiz-adv-x="843" d="M11 700H335L564 184L756 700H833L569 0H321L11 700Z" />
<glyph unicode="w" glyph-name="w" horiz-adv-x="1442" d="M11 700H351L585 171L782 700H932L1162 183L1354 700H1431L1167 0H864L719 328L595 0H321L11 700Z" />
<glyph unicode="x" glyph-name="x" horiz-adv-x="796" d="M222 353L48 700H398L538 422L690 700H768L574 348L748 0H398L259 279L105 0H28L222 353Z" />
<glyph unicode="y" glyph-name="y" horiz-adv-x="796" d="M238 321L21 700H413L557 414L697 700H774L588 321V0H238V321Z" />
<glyph unicode="z" glyph-name="z" horiz-adv-x="845" d="M408 642H28V700H816L437 58H816V0H28L408 642Z" />
<glyph unicode="{" glyph-name="braceleft" horiz-adv-x="327" d="M194 -112T143 -62T92 99Q92 195 89 235T73 296T28 317V383Q60 383 73 403T89 464T92 602Q92 712 143 762T269 813H412V752H341Q314 752 303 737T292 691L289 468Q289 418 262 385T182 351Q234
351 261 317T289 232L292 9Q292 -22 303 -36T341 -51H412V-112H269Q194 -112 143 -62Z" />
<glyph unicode="|" glyph-name="bar" horiz-adv-x="313" d="M57 813H256V-112H57V813Z" />
<glyph unicode="}" glyph-name="braceright" horiz-adv-x="327" d="M-85 -51H-14Q13 -51 24 -37T36 9L38 232Q38 283 65 317T145 351Q93 351 66 384T38 468L36 691Q36 722 25 737T-14 752H-85V813H58Q133 813 184 763T235 602Q235 505 238 465T254 404T299 383V317Q267
317 254 297T238 236T235 99Q235 -11 184 -61T58 -112H-85V-51Z" />
<glyph unicode="~" glyph-name="asciitilde" horiz-adv-x="753" d="M504 205T467 215T377 245Q319 265 284 274T206 284Q150 284 106 272T36 242V441Q62 465 106 481T206 498Q249 498 285 488T377 458Q430 438 467 428T547 418Q603 418 647 430T717 461V262Q691
238 647 222T547 205Q504 205 467 215Z" />
<glyph unicode="&#xa0;" glyph-name="uni00A0" horiz-adv-x="427" />
<glyph unicode="&#xa1;" glyph-name="exclamdown" horiz-adv-x="348" d="M28 514T28 609Q28 705 174 705Q320 705 320 609Q320 514 174 514Q28 514 28 609ZM32 478H316V0H32V478Z" />
<glyph unicode="&#xa2;" glyph-name="cent" horiz-adv-x="807" d="M779 274Q765 166 708 90Q673 42 626 22T510 -3V-112H311V2Q249 10 205 31T124 87Q28 183 28 351Q28 528 114 614Q155 655 202 675T311 701V813H510V703Q573 698 617 682T693 630Q727 591 746
536T768 427H711Q707 472 690 519T635 601T541 636Q487 636 454 589Q425 552 410 480Q399 425 399 351Q399 234 427 162Q463 65 541 65Q616 65 660 126T717 274H779Z" />
<glyph unicode="&#xa3;" glyph-name="sterling" horiz-adv-x="715" d="M680 60V0H36Q37 0 64 78Q86 144 96 187T106 276Q106 306 104 322H36V382H96L93 396Q85 436 85 469Q85 575 158 640T385 706Q568 706 648 594L593 567Q540 637 457 637Q409 637 384 611T358
539Q358 512 365 479T388 396L392 382H573V322H402Q405 298 405 274Q405 220 395 173T368 78L362 60H680Z" />
<glyph unicode="&#xa4;" glyph-name="currency" horiz-adv-x="708" d="M567 309T552 273L637 188L516 68L432 152Q396 137 354 137Q312 137 276 152L192 68L71 188L156 273Q141 309 141 351Q141 392 156 428L71 513L192 634L277 549Q313 564 354 564Q395 564 432
550L516 634L637 513L553 429Q567 392 567 351Q567 309 552 273ZM278 236T302 226T354 215Q381 215 405 225T450 255Q489 296 489 351Q489 405 450 446Q430 465 406 475T354 486Q327 486 303 476T259 446Q219 406 219 351Q219 295 259 255Q278 236 302 226Z" />
<glyph unicode="&#xa5;" glyph-name="yen" horiz-adv-x="752" d="M589 344H718V284H566V239H718V179H566V0H213V179H50V239H213V284H50V344H186L28 700H381L525 376L646 700H723L589 344Z" />
<glyph unicode="&#xa6;" glyph-name="brokenbar" horiz-adv-x="313" d="M57 813H256V426H57V813ZM57 277H256V-110H57V277Z" />
<glyph unicode="&#xa7;" glyph-name="section" horiz-adv-x="894" d="M830 201T844 175T858 108Q858 3 765 -57T474 -117Q353 -117 242 -99T50 -53L67 3Q138 -21 223 -37T388 -54Q452 -54 478 -38T508 11Q512 39 494 60T442 90L225 137Q138 160 83 214T28 347Q28
425 84 481Q60 499 48 526T36 593Q36 696 123 757T384 818Q489 818 581 803T737 764L721 712Q664 732 593 745T454 759Q385 759 355 742T324 685Q324 658 343 638T395 610L643 557Q740 535 802 484T865 354Q865 272 803 218Q830 201 844 175ZM172 401T192 380T246
350L636 269L691 256Q693 262 693 264Q696 293 678 314T627 343L232 426L176 441Q174 433 174 429Q172 401 192 380Z" />
<glyph unicode="&#xa8;" glyph-name="dieresis" horiz-adv-x="427" d="M67 742T44 760T21 814Q21 849 43 868T99 887Q131 887 153 868T176 814Q176 779 154 761T99 742Q67 742 44 760ZM304 742T282 760T259 814Q259 849 281 868T336 887Q368 887 390 868T413 814Q413
779 391 761T336 742Q304 742 282 760Z" />
<glyph unicode="&#xa9;" glyph-name="copyright" horiz-adv-x="768" d="M288 -5T206 43T76 172T28 351Q28 447 76 528T206 658T384 706Q480 706 561 658T691 529T739 351Q739 254 691 173T562 43T384 -5Q288 -5 206 43ZM459 73T522 110T623 212T661 351Q661 426
624 489T523 590T384 628Q309 628 246 591T145 490T107 351Q107 276 144 212T245 111T384 73Q459 73 522 110ZM340 179T307 189T250 224Q203 271 203 351Q203 436 245 478Q272 505 305 513T392 522Q442 522 472 515T523 485Q554 450 560 387H515Q512 421 496 448T450
476Q408 476 395 434T382 351Q382 226 450 226Q477 226 494 250T518 314H565Q558 261 530 225Q508 196 478 188T392 179Q340 179 307 189Z" />
<glyph unicode="&#xaa;" glyph-name="ordfeminine" horiz-adv-x="434" d="M144 700H270L406 395H241L205 473H107L77 395H28L144 700ZM186 517L152 593L123 517H186Z" />
<glyph unicode="&#xab;" glyph-name="guillemotleft" horiz-adv-x="860" d="M28 351L155 635H465L339 351L465 66H155L28 351ZM396 351L522 635H832L706 351L832 66H522L396 351Z" />
<glyph unicode="&#xac;" glyph-name="logicalnot" horiz-adv-x="711" d="M640 67H427V245H71V458H640V67Z" />
<glyph unicode="&#xad;" glyph-name="uni00AD" horiz-adv-x="0" />
<glyph unicode="&#xae;" glyph-name="registered" horiz-adv-x="768" d="M288 -5T206 43T76 172T28 351Q28 447 76 528T206 658T384 706Q480 706 561 658T691 529T739 351Q739 254 691 173T562 43T384 -5Q288 -5 206 43ZM460 73T523 110T624 212T661 351Q661 426
624 489T524 590T384 628Q309 628 246 591T145 490T107 351Q107 276 144 212T245 111T384 73Q460 73 523 110ZM207 503H478Q516 503 542 477T569 412Q569 383 553 360T509 327Q532 321 546 303T561 262V198H418V269Q418 285 413 291Q408 299 400 304Q388 310 380
311L360 314H348V198H207V503ZM363 352Q386 352 402 368T419 408Q419 431 403 447T363 464H348V351L363 352Z" />
<glyph unicode="&#xaf;" glyph-name="overscore" horiz-adv-x="483" d="M21 882H462V746H21V882Z" />
<glyph unicode="&#xb0;" glyph-name="degree" horiz-adv-x="690" d="M264 269T199 294T95 367T57 485Q57 553 95 601T198 675T345 700Q426 700 491 675T595 602T633 485Q633 416 595 368T492 294T345 269Q264 269 199 294ZM382 328T395 365T409 485Q409 567 396
604T345 641Q308 641 295 604T281 485Q281 403 294 366T345 328Q382 328 395 365Z" />
<glyph unicode="&#xb1;" glyph-name="plusminus" horiz-adv-x="597" d="M526 539V383H377V240H220V383H71V539H220V681H377V539H526ZM71 183H526V34H71V183Z" />
<glyph unicode="&#xb2;" glyph-name="uni00B2" horiz-adv-x="342" d="M125 540Q145 569 155 587T166 622Q166 633 159 638T141 644Q125 644 113 632T95 601H35Q43 650 80 678T177 706Q227 706 263 681T299 610Q299 597 296 582Q290 555 270 525L224 454H314V395H28L125
540Z" />
<glyph unicode="&#xb3;" glyph-name="uni00B3" horiz-adv-x="374" d="M112 389T72 422T28 510H87Q93 450 153 448Q176 448 190 462T204 501Q204 530 183 549T117 568L154 641H55V700H328L279 605Q310 590 328 565T346 506Q346 453 303 421T186 389Q112 389 72 422Z" />
<glyph unicode="&#xb4;" glyph-name="acute" horiz-adv-x="427" d="M178 882H462L306 746H21L178 882Z" />
<glyph unicode="&#xb5;" glyph-name="uni00B5" horiz-adv-x="728" d="M700 700V210Q700 125 664 79T556 14T364 -5Q165 -5 87 62V-64H28V700H410V210Q410 139 441 107T525 74Q641 74 641 210V700H700Z" />
<glyph unicode="&#xb6;" glyph-name="paragraph" horiz-adv-x="958" d="M368 328H279Q210 328 153 358T62 443T28 570Q28 641 62 696T154 781T281 812H674V-112H368V328ZM731 812H930V-112H731V812Z" />
<glyph unicode="&#xb7;" glyph-name="middot" horiz-adv-x="283" d="M93 252T68 280T42 354Q42 400 68 428T141 457Q188 457 214 429T240 354Q240 308 215 280T141 252Q93 252 68 280Z" />
<glyph unicode="&#xb8;" glyph-name="cedilla" horiz-adv-x="427" d="M135 -211T94 -193T50 -126H98Q101 -147 121 -156T167 -166Q198 -166 211 -154T224 -126Q224 -104 202 -95T127 -85L154 19H286L265 -46Q346 -62 346 -126Q346 -173 304 -192T199 -211Q135
-211 94 -193Z" />
<glyph unicode="&#xb9;" glyph-name="uni00B9" horiz-adv-x="250" d="M79 604L28 589V654L222 706V395H79V604Z" />
<glyph unicode="&#xba;" glyph-name="ordmasculine" horiz-adv-x="465" d="M141 389T81 431T21 547Q21 622 81 664T232 706Q324 706 384 664T444 547Q444 472 384 431T232 389Q141 389 81 431ZM259 432T269 459T280 547Q280 607 270 635T232 663Q206 663 196 635T186
547Q186 488 196 460T232 432Q259 432 269 459Z" />
<glyph unicode="&#xbb;" glyph-name="guillemotright" horiz-adv-x="860" d="M28 66L154 351L28 635H338L464 351L338 66H28ZM395 66L521 351L395 635H705L832 351L705 66H395Z" />
<glyph unicode="&#xbc;" glyph-name="onequarter" horiz-adv-x="823" d="M114 604L64 589V654L257 706V395H114V604ZM485 700H674L268 0H78L485 700ZM549 40H379L577 306H695V100H759V40H695V0H549V40ZM549 100V165L500 100H549Z" />
<glyph unicode="&#xbd;" glyph-name="onehalf" horiz-adv-x="806" d="M114 604L64 589V654L257 706V395H114V604ZM485 700H674L268 0H78L485 700ZM546 146Q567 176 577 194T587 228Q587 239 580 244T562 250Q546 250 534 238T516 206H456Q464 255 501 283T598
311Q648 311 684 286T720 215Q720 202 717 187Q711 162 691 131L645 60H734V0H449L546 146Z" />
<glyph unicode="&#xbe;" glyph-name="threequarters" horiz-adv-x="919" d="M141 389T101 422T57 510H115Q123 450 181 448Q205 448 218 462T232 501Q232 530 211 549T146 568L183 641H83V700H356L308 605Q339 590 356 565T374 506Q374 453 331 421T214 389Q141
389 101 422ZM569 700H758L352 0H162L569 700ZM633 40H463L661 306H779V100H843V40H779V0H633V40ZM633 100V165L584 100H633Z" />
<glyph unicode="&#xbf;" glyph-name="questiondown" horiz-adv-x="619" d="M456 705T456 609Q456 514 310 514Q165 514 165 609Q165 705 310 705Q456 705 456 609ZM453 417T430 375T362 281Q325 237 307 206T288 140Q288 108 309 88T367 68Q415 68 452 95T510
161T537 232H598Q579 121 502 58T293 -6Q222 -6 161 18T61 91T22 211Q22 264 44 300T107 380Q135 409 149 428T168 471H453Q453 417 430 375Z" />
<glyph unicode="&#xc0;" glyph-name="Agrave" horiz-adv-x="902" d="M282 700H574L884 0H506L401 232H181L91 0H18L282 700ZM373 293L282 496L203 293H373ZM128 882H413L569 746H285L128 882Z" />
<glyph unicode="&#xc1;" glyph-name="Aacute" horiz-adv-x="902" d="M282 700H574L884 0H506L401 232H181L91 0H18L282 700ZM373 293L282 496L203 293H373ZM442 882H726L570 746H285L442 882Z" />
<glyph unicode="&#xc2;" glyph-name="Acircumflex" horiz-adv-x="902" d="M282 700H574L884 0H506L401 232H181L91 0H18L282 700ZM373 293L282 496L203 293H373ZM428 882L648 746H207L428 882Z" />
<glyph unicode="&#xc3;" glyph-name="Atilde" horiz-adv-x="902" d="M282 700H574L884 0H506L401 232H181L91 0H18L282 700ZM373 293L282 496L203 293H373ZM609 882Q604 866 587 855T541 843Q518 843 500 848T452 864Q421 876 396 882T339 889Q263 889 221 848T169
746H248Q253 763 269 774T315 786Q338 786 357 781T404 765Q435 752 460 746T518 739Q594 739 636 780T687 882H609Z" />
<glyph unicode="&#xc4;" glyph-name="Adieresis" horiz-adv-x="902" d="M282 700H574L884 0H506L401 232H181L91 0H18L282 700ZM373 293L282 496L203 293H373ZM278 742T255 760T232 814Q232 849 254 868T310 887Q342 887 364 868T387 814Q387 779 365 761T310
742Q278 742 255 760ZM515 742T493 760T470 814Q470 849 492 868T547 887Q579 887 601 868T624 814Q624 779 602 761T547 742Q515 742 493 760Z" />
<glyph unicode="&#xc5;" glyph-name="Aring" horiz-adv-x="902" d="M282 700H574L884 0H506L401 232H181L91 0H18L282 700ZM373 293L282 496L203 293H373ZM363 736T322 754T280 821Q280 907 428 907Q575 907 575 821Q575 772 534 754T428 736Q363 736 322 754ZM443
781T447 792T452 821Q452 840 448 851T428 862Q412 862 408 851T403 821Q403 803 407 792T428 781Q443 781 447 792Z" />
<glyph unicode="&#xc6;" glyph-name="AE" horiz-adv-x="1421" d="M1017 641V382H1202V322H1017V60H1393V0H667V232H435L348 0H18L279 700H1393V641H1017ZM667 293V639H588L458 293H667Z" />
<glyph unicode="&#xc7;" glyph-name="Ccedilla" horiz-adv-x="807" d="M779 274Q765 166 708 90Q669 38 617 18T483 -4L469 -46Q550 -62 550 -126Q550 -173 508 -192T403 -211Q339 -211 298 -193T254 -126H302Q305 -147 325 -156T371 -166Q402 -166 415 -154T428
-126Q428 -104 406 -95T331 -85L352 -3Q273 3 219 24T124 87Q28 183 28 351Q28 528 114 614Q170 670 239 688T420 706Q523 706 587 692T693 630Q727 591 746 536T768 427H711Q707 472 690 519T635 601T541 636Q487 636 454 589Q425 552 410 480Q399 425 399 351Q399
234 427 162Q463 65 541 65Q616 65 660 126T717 274H779Z" />
<glyph unicode="&#xc8;" glyph-name="Egrave" horiz-adv-x="784" d="M28 700H755V641H380V382H564V322H380V60H755V0H28V700ZM92 882H377L533 746H249L92 882Z" />
<glyph unicode="&#xc9;" glyph-name="Eacute" horiz-adv-x="784" d="M28 700H755V641H380V382H564V322H380V60H755V0H28V700ZM406 882H690L534 746H249L406 882Z" />
<glyph unicode="&#xca;" glyph-name="Ecircumflex" horiz-adv-x="784" d="M28 700H755V641H380V382H564V322H380V60H755V0H28V700ZM392 882L612 746H171L392 882Z" />
<glyph unicode="&#xcb;" glyph-name="Edieresis" horiz-adv-x="784" d="M28 700H755V641H380V382H564V322H380V60H755V0H28V700ZM242 742T219 760T196 814Q196 849 218 868T274 887Q306 887 328 868T351 814Q351 779 329 761T274 742Q242 742 219 760ZM479 742T457
760T434 814Q434 849 456 868T511 887Q543 887 565 868T588 814Q588 779 566 761T511 742Q479 742 457 760Z" />
<glyph unicode="&#xcc;" glyph-name="Igrave" horiz-adv-x="383" d="M28 700H354V0H28V700ZM-109 882H176L332 746H48L-109 882Z" />
<glyph unicode="&#xcd;" glyph-name="Iacute" horiz-adv-x="383" d="M28 700H354V0H28V700ZM205 882H489L333 746H48L205 882Z" />
<glyph unicode="&#xce;" glyph-name="Icircumflex" horiz-adv-x="383" d="M28 700H354V0H28V700ZM191 882L411 746H-30L191 882Z" />
<glyph unicode="&#xcf;" glyph-name="Idieresis" horiz-adv-x="383" d="M28 700H354V0H28V700ZM41 742T18 760T-5 814Q-5 849 17 868T73 887Q105 887 127 868T150 814Q150 779 128 761T73 742Q41 742 18 760ZM278 742T256 760T233 814Q233 849 255 868T310 887Q342
887 364 868T387 814Q387 779 365 761T310 742Q278 742 256 760Z" />
<glyph unicode="&#xd0;" glyph-name="Eth" horiz-adv-x="925" d="M904 495T904 351Q904 205 801 102Q698 0 554 0H28V322H-50V382H28V700H554Q697 700 801 598Q904 495 904 351ZM555 240T555 351Q555 437 549 515Q543 574 519 605Q494 642 438 642H378V382H457V322H378V58H438Q495
58 520 95Q544 131 550 197Q555 240 555 351Z" />
<glyph unicode="&#xd1;" glyph-name="Ntilde" horiz-adv-x="702" d="M28 700H322L614 350V700H674V0H439L89 466V0H28V700ZM532 882Q527 866 510 855T464 843Q441 843 423 848T375 864Q344 876 319 882T262 889Q186 889 144 848T92 746H171Q176 763 192 774T238
786Q261 786 280 781T327 765Q358 752 383 746T441 739Q517 739 559 780T610 882H532Z" />
<glyph unicode="&#xd2;" glyph-name="Ograve" horiz-adv-x="990" d="M362 -5T254 36T84 157T21 351Q21 463 84 543T254 664T496 706Q629 706 736 665T906 543T969 351Q969 238 907 158T737 36T496 -5Q362 -5 254 36ZM538 54T558 92Q575 121 581 195Q584 234 584
351Q584 469 579 518Q576 578 557 609Q537 647 496 647Q454 647 433 609Q416 579 411 518Q407 466 407 351Q407 221 410 195Q414 126 432 92Q453 54 496 54Q538 54 558 92ZM196 888H481L637 752H353L196 888Z" />
<glyph unicode="&#xd3;" glyph-name="Oacute" horiz-adv-x="990" d="M362 -5T254 36T84 157T21 351Q21 463 84 543T254 664T496 706Q629 706 736 665T906 543T969 351Q969 238 907 158T737 36T496 -5Q362 -5 254 36ZM538 54T558 92Q575 121 581 195Q584 234 584
351Q584 469 579 518Q576 578 557 609Q537 647 496 647Q454 647 433 609Q416 579 411 518Q407 466 407 351Q407 221 410 195Q414 126 432 92Q453 54 496 54Q538 54 558 92ZM510 888H794L638 752H353L510 888Z" />
<glyph unicode="&#xd4;" glyph-name="Ocircumflex" horiz-adv-x="990" d="M362 -5T254 36T84 157T21 351Q21 463 84 543T254 664T496 706Q629 706 736 665T906 543T969 351Q969 238 907 158T737 36T496 -5Q362 -5 254 36ZM538 54T558 92Q575 121 581 195Q584 234
584 351Q584 469 579 518Q576 578 557 609Q537 647 496 647Q454 647 433 609Q416 579 411 518Q407 466 407 351Q407 221 410 195Q414 126 432 92Q453 54 496 54Q538 54 558 92ZM496 888L716 752H275L496 888Z" />
<glyph unicode="&#xd5;" glyph-name="Otilde" horiz-adv-x="990" d="M362 -5T254 36T84 157T21 351Q21 463 84 543T254 664T496 706Q629 706 736 665T906 543T969 351Q969 238 907 158T737 36T496 -5Q362 -5 254 36ZM538 54T558 92Q575 121 581 195Q584 234 584
351Q584 469 579 518Q576 578 557 609Q537 647 496 647Q454 647 433 609Q416 579 411 518Q407 466 407 351Q407 221 410 195Q414 126 432 92Q453 54 496 54Q538 54 558 92ZM677 888Q672 872 655 861T609 849Q586 849 568 854T520 870Q489 882 464 888T407 895Q331
895 289 854T237 752H316Q321 769 337 780T383 792Q406 792 425 787T472 771Q503 758 528 752T586 745Q662 745 704 786T755 888H677Z" />
<glyph unicode="&#xd6;" glyph-name="Odieresis" horiz-adv-x="990" d="M362 -5T254 36T84 157T21 351Q21 463 84 543T254 664T496 706Q629 706 736 665T906 543T969 351Q969 238 907 158T737 36T496 -5Q362 -5 254 36ZM538 54T558 92Q575 121 581 195Q584 234
584 351Q584 469 579 518Q576 578 557 609Q537 647 496 647Q454 647 433 609Q416 579 411 518Q407 466 407 351Q407 221 410 195Q414 126 432 92Q453 54 496 54Q538 54 558 92ZM346 748T323 766T300 820Q300 855 322 874T378 893Q410 893 432 874T455 820Q455 785
433 767T378 748Q346 748 323 766ZM583 748T561 766T538 820Q538 855 560 874T615 893Q647 893 669 874T692 820Q692 785 670 767T615 748Q583 748 561 766Z" />
<glyph unicode="&#xd7;" glyph-name="multiply" horiz-adv-x="665" d="M454 351L594 210L474 89L333 230L192 89L71 210L212 351L71 491L192 612L333 471L474 612L594 491L454 351Z" />
<glyph unicode="&#xd8;" glyph-name="Oslash" horiz-adv-x="990" d="M629 706T736 665T906 543T969 351Q969 238 907 158T737 36T496 -5Q362 -5 254 36T84 157T21 351Q21 463 84 543T254 664T496 706Q629 706 736 665ZM416 579T411 518Q407 470 407 367L574 561Q568
593 557 609Q537 647 496 647Q454 647 433 609Q416 579 411 518ZM575 121T581 195Q584 234 584 347L415 150Q421 115 432 92Q453 54 496 54Q538 54 558 92Q575 121 581 195Z" />
<glyph unicode="&#xd9;" glyph-name="Ugrave" horiz-adv-x="728" d="M183 -5T106 48T28 210V700H410V210Q410 139 441 107T525 74Q641 74 641 210V700H700V210Q700 125 664 79T556 14T364 -5Q183 -5 106 48ZM64 882H349L505 746H221L64 882Z" />
<glyph unicode="&#xda;" glyph-name="Uacute" horiz-adv-x="728" d="M183 -5T106 48T28 210V700H410V210Q410 139 441 107T525 74Q641 74 641 210V700H700V210Q700 125 664 79T556 14T364 -5Q183 -5 106 48ZM378 882H662L506 746H221L378 882Z" />
<glyph unicode="&#xdb;" glyph-name="Ucircumflex" horiz-adv-x="728" d="M183 -5T106 48T28 210V700H410V210Q410 139 441 107T525 74Q641 74 641 210V700H700V210Q700 125 664 79T556 14T364 -5Q183 -5 106 48ZM364 882L584 746H143L364 882Z" />
<glyph unicode="&#xdc;" glyph-name="Udieresis" horiz-adv-x="728" d="M183 -5T106 48T28 210V700H410V210Q410 139 441 107T525 74Q641 74 641 210V700H700V210Q700 125 664 79T556 14T364 -5Q183 -5 106 48ZM214 742T191 760T168 814Q168 849 190 868T246 887Q278
887 300 868T323 814Q323 779 301 761T246 742Q214 742 191 760ZM451 742T429 760T406 814Q406 849 428 868T483 887Q515 887 537 868T560 814Q560 779 538 761T483 742Q451 742 429 760Z" />
<glyph unicode="&#xdd;" glyph-name="Yacute" horiz-adv-x="796" d="M238 321L21 700H413L557 414L697 700H774L588 321V0H238V321ZM412 882H696L540 746H255L412 882Z" />
<glyph unicode="&#xde;" glyph-name="Thorn" horiz-adv-x="880" d="M28 700H360V550H663Q751 550 805 500T859 362Q859 311 834 267T765 197T665 171H360V0H28V700ZM395 228Q431 228 461 245T509 293T527 360Q527 396 510 426T462 474T395 492H360V228H395Z" />
<glyph unicode="&#xdf;" glyph-name="germandbls" horiz-adv-x="949" d="M28 450Q28 592 143 649T439 706Q547 706 636 683T780 613T835 493Q835 423 781 376Q839 354 878 302T917 185Q917 135 893 93T826 25T732 0H415V58H430Q466 58 496 75T544 123T562 189Q562
225 545 255T497 303T430 321H415V379Q420 378 430 378Q480 378 501 418T523 517Q523 572 503 609T439 647Q412 647 399 630T383 586T380 517V0H28V450Z" />
<glyph unicode="&#xe0;" glyph-name="agrave" horiz-adv-x="902" d="M282 700H574L884 0H506L401 232H181L91 0H18L282 700ZM373 293L282 496L203 293H373ZM128 882H413L569 746H285L128 882Z" />
<glyph unicode="&#xe1;" glyph-name="aacute" horiz-adv-x="902" d="M282 700H574L884 0H506L401 232H181L91 0H18L282 700ZM373 293L282 496L203 293H373ZM442 882H726L570 746H285L442 882Z" />
<glyph unicode="&#xe2;" glyph-name="acircumflex" horiz-adv-x="902" d="M282 700H574L884 0H506L401 232H181L91 0H18L282 700ZM373 293L282 496L203 293H373ZM428 882L648 746H207L428 882Z" />
<glyph unicode="&#xe3;" glyph-name="atilde" horiz-adv-x="902" d="M282 700H574L884 0H506L401 232H181L91 0H18L282 700ZM373 293L282 496L203 293H373ZM609 882Q604 866 587 855T541 843Q518 843 500 848T452 864Q421 876 396 882T339 889Q263 889 221 848T169
746H248Q253 763 269 774T315 786Q338 786 357 781T404 765Q435 752 460 746T518 739Q594 739 636 780T687 882H609Z" />
<glyph unicode="&#xe4;" glyph-name="adieresis" horiz-adv-x="902" d="M282 700H574L884 0H506L401 232H181L91 0H18L282 700ZM373 293L282 496L203 293H373ZM278 742T255 760T232 814Q232 849 254 868T310 887Q342 887 364 868T387 814Q387 779 365 761T310
742Q278 742 255 760ZM515 742T493 760T470 814Q470 849 492 868T547 887Q579 887 601 868T624 814Q624 779 602 761T547 742Q515 742 493 760Z" />
<glyph unicode="&#xe5;" glyph-name="aring" horiz-adv-x="902" d="M282 700H574L884 0H506L401 232H181L91 0H18L282 700ZM373 293L282 496L203 293H373ZM363 736T322 754T280 821Q280 907 428 907Q575 907 575 821Q575 772 534 754T428 736Q363 736 322 754ZM443
781T447 792T452 821Q452 840 448 851T428 862Q412 862 408 851T403 821Q403 803 407 792T428 781Q443 781 447 792Z" />
<glyph unicode="&#xe6;" glyph-name="ae" horiz-adv-x="1421" d="M1017 641V382H1202V322H1017V60H1393V0H667V232H435L348 0H18L279 700H1393V641H1017ZM667 293V639H588L458 293H667Z" />
<glyph unicode="&#xe7;" glyph-name="ccedilla" horiz-adv-x="807" d="M779 274Q765 166 708 90Q669 38 617 18T483 -4L469 -46Q550 -62 550 -126Q550 -173 508 -192T403 -211Q339 -211 298 -193T254 -126H302Q305 -147 325 -156T371 -166Q402 -166 415 -154T428
-126Q428 -104 406 -95T331 -85L352 -3Q273 3 219 24T124 87Q28 183 28 351Q28 528 114 614Q170 670 239 688T420 706Q523 706 587 692T693 630Q727 591 746 536T768 427H711Q707 472 690 519T635 601T541 636Q487 636 454 589Q425 552 410 480Q399 425 399 351Q399
234 427 162Q463 65 541 65Q616 65 660 126T717 274H779Z" />
<glyph unicode="&#xe8;" glyph-name="egrave" horiz-adv-x="784" d="M28 700H755V641H380V382H564V322H380V60H755V0H28V700ZM92 882H377L533 746H249L92 882Z" />
<glyph unicode="&#xe9;" glyph-name="eacute" horiz-adv-x="784" d="M28 700H755V641H380V382H564V322H380V60H755V0H28V700ZM406 882H690L534 746H249L406 882Z" />
<glyph unicode="&#xea;" glyph-name="ecircumflex" horiz-adv-x="784" d="M28 700H755V641H380V382H564V322H380V60H755V0H28V700ZM392 882L612 746H171L392 882Z" />
<glyph unicode="&#xeb;" glyph-name="edieresis" horiz-adv-x="784" d="M28 700H755V641H380V382H564V322H380V60H755V0H28V700ZM242 742T219 760T196 814Q196 849 218 868T274 887Q306 887 328 868T351 814Q351 779 329 761T274 742Q242 742 219 760ZM479 742T457
760T434 814Q434 849 456 868T511 887Q543 887 565 868T588 814Q588 779 566 761T511 742Q479 742 457 760Z" />
<glyph unicode="&#xec;" glyph-name="igrave" horiz-adv-x="383" d="M28 700H354V0H28V700ZM-109 882H176L332 746H48L-109 882Z" />
<glyph unicode="&#xed;" glyph-name="iacute" horiz-adv-x="383" d="M28 700H354V0H28V700ZM205 882H489L333 746H48L205 882Z" />
<glyph unicode="&#xee;" glyph-name="icircumflex" horiz-adv-x="383" d="M28 700H354V0H28V700ZM447 882L667 746H226L447 882Z" />
<glyph unicode="&#xef;" glyph-name="idieresis" horiz-adv-x="383" d="M28 700H354V0H28V700ZM297 742T274 760T251 814Q251 849 273 868T329 887Q361 887 383 868T406 814Q406 779 384 761T329 742Q297 742 274 760ZM534 742T512 760T489 814Q489 849 511 868T566
887Q598 887 620 868T643 814Q643 779 621 761T566 742Q534 742 512 760Z" />
<glyph unicode="&#xf0;" glyph-name="eth" horiz-adv-x="925" d="M904 495T904 351Q904 205 801 102Q698 0 554 0H28V322H-50V382H28V700H554Q697 700 801 598Q904 495 904 351ZM555 240T555 351Q555 437 549 515Q543 574 519 605Q494 642 438 642H378V382H457V322H378V58H438Q495
58 520 95Q544 131 550 197Q555 240 555 351Z" />
<glyph unicode="&#xf1;" glyph-name="ntilde" horiz-adv-x="702" d="M28 700H322L614 350V700H674V0H439L89 466V0H28V700ZM532 882Q527 866 510 855T464 843Q441 843 423 848T375 864Q344 876 319 882T262 889Q186 889 144 848T92 746H171Q176 763 192 774T238
786Q261 786 280 781T327 765Q358 752 383 746T441 739Q517 739 559 780T610 882H532Z" />
<glyph unicode="&#xf2;" glyph-name="ograve" horiz-adv-x="990" d="M362 -5T254 36T84 157T21 351Q21 463 84 543T254 664T496 706Q629 706 736 665T906 543T969 351Q969 238 907 158T737 36T496 -5Q362 -5 254 36ZM538 54T558 92Q575 121 581 195Q584 234 584
351Q584 469 579 518Q576 578 557 609Q537 647 496 647Q454 647 433 609Q416 579 411 518Q407 466 407 351Q407 221 410 195Q414 126 432 92Q453 54 496 54Q538 54 558 92ZM196 888H481L637 752H353L196 888Z" />
<glyph unicode="&#xf3;" glyph-name="oacute" horiz-adv-x="990" d="M362 -5T254 36T84 157T21 351Q21 463 84 543T254 664T496 706Q629 706 736 665T906 543T969 351Q969 238 907 158T737 36T496 -5Q362 -5 254 36ZM538 54T558 92Q575 121 581 195Q584 234 584
351Q584 469 579 518Q576 578 557 609Q537 647 496 647Q454 647 433 609Q416 579 411 518Q407 466 407 351Q407 221 410 195Q414 126 432 92Q453 54 496 54Q538 54 558 92ZM510 888H794L638 752H353L510 888Z" />
<glyph unicode="&#xf4;" glyph-name="ocircumflex" horiz-adv-x="990" d="M362 -5T254 36T84 157T21 351Q21 463 84 543T254 664T496 706Q629 706 736 665T906 543T969 351Q969 238 907 158T737 36T496 -5Q362 -5 254 36ZM538 54T558 92Q575 121 581 195Q584 234
584 351Q584 469 579 518Q576 578 557 609Q537 647 496 647Q454 647 433 609Q416 579 411 518Q407 466 407 351Q407 221 410 195Q414 126 432 92Q453 54 496 54Q538 54 558 92ZM496 888L716 752H275L496 888Z" />
<glyph unicode="&#xf5;" glyph-name="otilde" horiz-adv-x="990" d="M362 -5T254 36T84 157T21 351Q21 463 84 543T254 664T496 706Q629 706 736 665T906 543T969 351Q969 238 907 158T737 36T496 -5Q362 -5 254 36ZM538 54T558 92Q575 121 581 195Q584 234 584
351Q584 469 579 518Q576 578 557 609Q537 647 496 647Q454 647 433 609Q416 579 411 518Q407 466 407 351Q407 221 410 195Q414 126 432 92Q453 54 496 54Q538 54 558 92ZM677 888Q672 872 655 861T609 849Q586 849 568 854T520 870Q489 882 464 888T407 895Q331
895 289 854T237 752H316Q321 769 337 780T383 792Q406 792 425 787T472 771Q503 758 528 752T586 745Q662 745 704 786T755 888H677Z" />
<glyph unicode="&#xf6;" glyph-name="odieresis" horiz-adv-x="990" d="M362 -5T254 36T84 157T21 351Q21 463 84 543T254 664T496 706Q629 706 736 665T906 543T969 351Q969 238 907 158T737 36T496 -5Q362 -5 254 36ZM538 54T558 92Q575 121 581 195Q584 234
584 351Q584 469 579 518Q576 578 557 609Q537 647 496 647Q454 647 433 609Q416 579 411 518Q407 466 407 351Q407 221 410 195Q414 126 432 92Q453 54 496 54Q538 54 558 92ZM346 748T323 766T300 820Q300 855 322 874T378 893Q410 893 432 874T455 820Q455 785
433 767T378 748Q346 748 323 766ZM583 748T561 766T538 820Q538 855 560 874T615 893Q647 893 669 874T692 820Q692 785 670 767T615 748Q583 748 561 766Z" />
<glyph unicode="&#xf7;" glyph-name="divide" horiz-adv-x="711" d="M318 467T292 489T265 553Q265 594 291 616T356 639Q393 639 420 617T447 553Q447 512 420 490T356 467Q318 467 292 489ZM71 436H640V265H71V436ZM318 62T292 84T265 148Q265 189 291 211T356
234Q393 234 420 212T447 148Q447 107 420 85T356 62Q318 62 292 84Z" />
<glyph unicode="&#xf8;" glyph-name="oslash" horiz-adv-x="990" d="M629 706T736 665T906 543T969 351Q969 238 907 158T737 36T496 -5Q362 -5 254 36T84 157T21 351Q21 463 84 543T254 664T496 706Q629 706 736 665ZM416 579T411 518Q407 470 407 367L574 561Q568
593 557 609Q537 647 496 647Q454 647 433 609Q416 579 411 518ZM575 121T581 195Q584 234 584 347L415 150Q421 115 432 92Q453 54 496 54Q538 54 558 92Q575 121 581 195Z" />
<glyph unicode="&#xf9;" glyph-name="ugrave" horiz-adv-x="728" d="M183 -5T106 48T28 210V700H410V210Q410 139 441 107T525 74Q641 74 641 210V700H700V210Q700 125 664 79T556 14T364 -5Q183 -5 106 48ZM64 882H349L505 746H221L64 882Z" />
<glyph unicode="&#xfa;" glyph-name="uacute" horiz-adv-x="728" d="M183 -5T106 48T28 210V700H410V210Q410 139 441 107T525 74Q641 74 641 210V700H700V210Q700 125 664 79T556 14T364 -5Q183 -5 106 48ZM378 882H662L506 746H221L378 882Z" />
<glyph unicode="&#xfb;" glyph-name="ucircumflex" horiz-adv-x="728" d="M183 -5T106 48T28 210V700H410V210Q410 139 441 107T525 74Q641 74 641 210V700H700V210Q700 125 664 79T556 14T364 -5Q183 -5 106 48ZM364 882L584 746H143L364 882Z" />
<glyph unicode="&#xfc;" glyph-name="udieresis" horiz-adv-x="728" d="M183 -5T106 48T28 210V700H410V210Q410 139 441 107T525 74Q641 74 641 210V700H700V210Q700 125 664 79T556 14T364 -5Q183 -5 106 48ZM214 742T191 760T168 814Q168 849 190 868T246 887Q278
887 300 868T323 814Q323 779 301 761T246 742Q214 742 191 760ZM451 742T429 760T406 814Q406 849 428 868T483 887Q515 887 537 868T560 814Q560 779 538 761T483 742Q451 742 429 760Z" />
<glyph unicode="&#xfd;" glyph-name="yacute" horiz-adv-x="796" d="M238 321L21 700H413L557 414L697 700H774L588 321V0H238V321ZM412 882H696L540 746H255L412 882Z" />
<glyph unicode="&#xfe;" glyph-name="thorn" horiz-adv-x="880" d="M28 700H360V550H663Q751 550 805 500T859 362Q859 311 834 267T765 197T665 171H360V0H28V700ZM395 228Q431 228 461 245T509 293T527 360Q527 396 510 426T462 474T395 492H360V228H395Z" />
<glyph unicode="&#xff;" glyph-name="ydieresis" horiz-adv-x="796" d="M238 321L21 700H413L557 414L697 700H774L588 321V0H238V321ZM248 742T225 760T202 814Q202 849 224 868T280 887Q312 887 334 868T357 814Q357 779 335 761T280 742Q248 742 225 760ZM485
742T463 760T440 814Q440 849 462 868T517 887Q549 887 571 868T594 814Q594 779 572 761T517 742Q485 742 463 760Z" />
<glyph unicode="&#x2013;" glyph-name="endash" horiz-adv-x="1010" d="M36 458H974V245H36V458Z" />
<glyph unicode="&#x2014;" glyph-name="emdash" horiz-adv-x="1493" d="M36 458H1458V245H36V458Z" />
<glyph unicode="&#x2018;" glyph-name="quoteleft" horiz-adv-x="255" d="M29 395V700H227L172 395H29Z" />
<glyph unicode="&#x2019;" glyph-name="quoteright" horiz-adv-x="255" d="M28 700H226V395H83L28 700Z" />
<glyph unicode="&#x201a;" glyph-name="quotesinglbase" horiz-adv-x="255" d="M28 194H226L171 -112H28V194Z" />
<glyph unicode="&#x201c;" glyph-name="quotedblleft" horiz-adv-x="495" d="M28 700H172L226 395H28V700ZM269 700H412L466 395H269V700Z" />
<glyph unicode="&#x201d;" glyph-name="quotedblright" horiz-adv-x="495" d="M28 700H226V395H83L28 700ZM269 700H466V395H324L269 700Z" />
<glyph unicode="&#x201e;" glyph-name="quotedblbase" horiz-adv-x="495" d="M29 -111V194H226L171 -111H29ZM269 -111V194H467L412 -111H269Z" />
<glyph unicode="&#x2022;" glyph-name="bullet" horiz-adv-x="383" d="M124 205T84 248T43 356Q43 421 83 463T191 506Q259 506 299 464T340 356Q340 291 300 248T191 205Q124 205 84 248Z" />
</font>
</defs>
</svg>
