<?xml version="1.0" standalone="no"?>
<!DOCTYPE svg PUBLIC "-//W3C//DTD SVG 1.1//EN" "http://www.w3.org/Graphics/SVG/1.1/DTD/svg11.dtd">
<svg xmlns="http://www.w3.org/2000/svg">
<defs >
<font id="Strait" horiz-adv-x="468" ><font-face
    font-family="Strait"
    units-per-em="1000"
    panose-1="0 0 0 0 0 0 0 0 0 0"
    ascent="901"
    descent="-194"
    alphabetic="0" />
<glyph unicode=" " glyph-name="space" horiz-adv-x="250" />
<glyph unicode="!" glyph-name="exclam" horiz-adv-x="294" d="M114 179L102 696H192L180 179H114ZM147 99Q165 99 177 97T197 83T204 44Q204 16 197 5T178 -9T147 -12Q130 -12 117 -10T97 4T90 44Q90 72 97 83T117 96T147 99Z" />
<glyph unicode="&quot;" glyph-name="quotedbl" horiz-adv-x="331" d="M60 487L45 700H131L115 487H60ZM215 487L200 700H286L270 487H215Z" />
<glyph unicode="#" glyph-name="numbersign" horiz-adv-x="593" d="M88 452H167L202 646H272L237 452H402L437 646H507L472 452H553L540 387H461L436 247H517L504 182H424L392 0H322L354 182H189L157 0H87L119 182H40L52 247H131L156 387H76L88 452ZM201 247H366L391
387H226L201 247Z" />
<glyph unicode="$" glyph-name="dollar" horiz-adv-x="500" d="M216 -100V-11Q175 -8 135 1T60 25L78 87Q106 77 151 68T242 59Q298 59 327 84T356 169Q356 213 343 241T278 281L179 304Q131 316 106 337T71 395T62 490Q62 558 101 602T217 655V750H280V656Q321
653 355 644T417 625L399 565Q380 570 339 578T250 586Q222 586 197 580T157 552T142 487Q142 449 147 426T169 391T216 371L311 348Q351 339 379 323T424 271T440 167Q440 125 424 87T373 22T280 -11V-100H216Z" />
<glyph unicode="%" glyph-name="percent" horiz-adv-x="726" d="M282 475Q282 420 277 380T248 317T166 295Q109 295 85 317T56 379T51 475Q51 530 56 570T85 633T166 655Q224 655 248 633T277 571T282 475ZM253 0L428 646H473L298 0H253ZM220 394V555Q220 568
218 578T204 596T165 603Q139 603 128 596T115 579T113 555V394Q113 382 115 371T129 354T168 347Q194 347 205 353T218 371T220 394ZM674 174Q674 119 669 79T640 16T558 -6Q500 -6 477 16T448 78T443 174Q443 229 448 269T476 332T558 354Q616 354 640 332T669
270T674 174ZM612 93V254Q612 267 610 277T596 295T557 302Q531 302 520 295T507 278T505 254V93Q505 81 507 70T521 53T560 46Q586 46 597 52T610 70T612 93Z" />
<glyph unicode="&amp;" glyph-name="ampersand" horiz-adv-x="508" d="M284 346L563 0L466 -13L406 62Q388 28 347 8T216 -12Q153 -12 117 5T65 50T44 110T40 173Q40 202 45 232T65 288T108 331L165 363L143 391Q114 427 103 459T92 538Q92 567 98 594T121 643T174
678T269 691Q327 691 361 678T413 644T436 595T442 538Q442 497 438 473T417 431T364 392L284 346ZM175 565V511Q175 499 180 485T204 446L237 405L320 453Q345 467 352 479T359 510V565Q359 571 354 584T329 608T267 620Q226 620 206 609T181 585T175 565ZM222
59Q274 59 302 69T343 95T358 122L212 304L178 285Q144 266 134 250T123 214V123Q123 117 129 102T156 73T222 59Z" />
<glyph unicode="&apos;" glyph-name="quotesingle" horiz-adv-x="176" d="M60 487L45 700H131L115 487H60Z" />
<glyph unicode="(" glyph-name="parenleft" horiz-adv-x="340" d="M166 559V139Q166 87 174 45T210 -22T295 -47L290 -112Q212 -112 169 -88T106 -9T83 133T79 349Q79 477 83 565T106 707T168 785T290 810L295 745Q238 745 211 721T175 654T166 559Z" />
<glyph unicode=")" glyph-name="parenright" horiz-adv-x="340" d="M174 139V559Q174 612 166 654T130 720T45 745L50 810Q128 810 171 786T234 707T257 565T261 349Q261 222 257 134T234 -9T172 -87T50 -112L45 -47Q103 -47 130 -23T165 44T174 139Z" />
<glyph unicode="*" glyph-name="asterisk" horiz-adv-x="407" d="M235 626L346 663L367 605L255 567L324 473L274 435L203 529Q188 506 171 482T137 435L84 470L151 567L40 604L61 663L173 626V744H235V626Z" />
<glyph unicode="+" glyph-name="plus" horiz-adv-x="500" d="M60 352H215V507H285V352H440V282H285V127H215V282H60V352Z" />
<glyph unicode="," glyph-name="comma" horiz-adv-x="240" d="M121 99Q139 99 151 97T171 83T178 44Q178 34 177 26T174 11Q170 -5 163 -20T145 -51L91 -136L46 -112L87 -9Q76 -5 70 6T64 44Q64 72 71 83T91 96T121 99Z" />
<glyph unicode="-" glyph-name="hyphen" horiz-adv-x="393" d="M40 332H353V267H40V332Z" />
<glyph unicode="." glyph-name="period" horiz-adv-x="240" d="M121 99Q139 99 151 97T171 83T178 44Q178 16 171 5T152 -9T121 -12Q104 -12 91 -10T71 4T64 44Q64 72 71 83T91 96T121 99Z" />
<glyph unicode="/" glyph-name="slash" horiz-adv-x="352" d="M352 700L76 0H0L276 700H352Z" />
<glyph unicode="0" glyph-name="zero" horiz-adv-x="500" d="M453 323Q453 246 450 184T428 78T368 11T250 -12Q174 -12 132 11T72 78T51 184T47 323Q47 400 50 462T72 568T132 635T250 658Q326 658 368 635T428 568T449 462T453 323ZM365 166V480Q365 508 360
532T331 572T248 587Q192 587 168 572T140 533T135 480V166Q135 138 140 114T169 74T252 59Q309 59 332 74T360 113T365 166Z" />
<glyph unicode="1" glyph-name="one" horiz-adv-x="500" d="M325 658V70H435V0H123V70H239V556L109 506L84 570L308 658H325Z" />
<glyph unicode="2" glyph-name="two" horiz-adv-x="500" d="M436 489Q436 428 411 381T355 299L157 70H436V0H60V76L289 341Q320 376 334 408T348 489Q348 545 323 566T244 587Q202 587 163 580T88 561L69 625Q102 638 145 648T244 658Q333 658 384 615T436 489Z" />
<glyph unicode="3" glyph-name="three" horiz-adv-x="500" d="M227 658Q300 658 341 635T399 573T416 489Q416 431 393 395T329 339V334Q385 316 411 281T437 181Q437 132 420 88T357 17T227 -10Q167 -10 123 1T58 21L82 83Q121 74 152 69T227 63Q272 63 297 71T333
93T346 124T348 161Q348 185 345 212T324 261T264 285L141 294V356L251 365Q290 368 306 389T325 438T328 489Q328 514 322 536T295 573T224 587Q193 587 156 580T78 561L59 625Q81 634 128 646T227 658Z" />
<glyph unicode="4" glyph-name="four" horiz-adv-x="500" d="M396 440V228H469V158H396V0H316V158H30V221L173 650H253L112 228H316V354L341 440H396Z" />
<glyph unicode="5" glyph-name="five" horiz-adv-x="500" d="M166 369L270 361Q343 355 379 329T427 266T439 188Q439 152 432 117T404 53T343 7T235 -10Q173 -10 128 1T60 21L84 83Q123 74 154 69T235 63Q278 63 301 72T335 96T348 130T350 168Q350 194 347 221T326
268T265 291L124 302L86 340V650H405V580H166V369Z" />
<glyph unicode="6" glyph-name="six" horiz-adv-x="500" d="M421 625L402 561Q368 572 328 579T246 587Q193 587 168 566T142 499V361Q163 372 192 378T259 384Q322 384 359 369T415 327T440 266T446 192Q446 154 440 118T413 52T355 6T253 -12Q178 -12 137 11T78
82T57 200T53 368Q53 482 70 545T131 633T253 658Q303 658 345 648T421 625ZM358 130V237Q358 244 356 257T345 283T314 306T252 316Q195 316 142 302V130Q142 120 147 103T176 73T252 59Q292 59 313 67T344 87T356 111T358 130Z" />
<glyph unicode="7" glyph-name="seven" horiz-adv-x="500" d="M68 650H410V580Q410 526 407 480T392 388T352 287L208 0H120L270 294Q296 346 309 390T326 481T330 580H68V650Z" />
<glyph unicode="8" glyph-name="eight" horiz-adv-x="500" d="M51 165Q51 192 53 221T68 274T110 312Q81 330 69 356T54 414T51 481Q51 515 58 546T86 603T146 643T252 658Q327 658 369 638T430 582T448 501Q448 476 446 440T432 372T393 325Q421 308 432 281T445
223T448 165Q448 135 443 104T420 47T362 4T252 -12Q169 -12 126 11T67 75T51 165ZM139 523V423Q139 401 154 387T209 365L360 337V523Q360 528 358 538T347 560T315 579T252 587Q212 587 189 579T155 560T142 539T139 523ZM360 123V219Q360 241 345 255T290 277L139
305V123Q139 118 141 108T155 86T189 67T252 59Q293 59 315 67T346 86T358 107T360 123Z" />
<glyph unicode="9" glyph-name="nine" horiz-adv-x="500" d="M76 19L95 83Q133 74 173 67T249 60Q299 60 332 78T365 144V274Q346 267 321 260T257 252Q191 252 152 265T94 305T68 368T61 452Q61 491 67 528T94 594T153 641T259 658Q328 658 367 637T425 574T449
470T454 324Q454 245 450 183T427 77T367 11T252 -12Q215 -12 180 -7T117 6T76 19ZM149 505V397Q149 390 151 378T162 352T194 329T257 320Q286 320 312 324T365 334V505Q365 516 363 530T351 557T316 578T247 587Q198 587 178 573T153 540T149 505Z" />
<glyph unicode=":" glyph-name="colon" horiz-adv-x="240" d="M121 449Q139 449 151 447T171 433T178 394Q178 366 171 355T152 341T121 338Q104 338 91 340T71 354T64 394Q64 422 71 433T91 446T121 449ZM121 99Q139 99 151 97T171 83T178 44Q178 16 171 5T152
-9T121 -12Q104 -12 91 -10T71 4T64 44Q64 72 71 83T91 96T121 99Z" />
<glyph unicode=";" glyph-name="semicolon" horiz-adv-x="240" d="M121 449Q139 449 151 447T171 433T178 394Q178 366 171 355T152 341T121 338Q104 338 91 340T71 354T64 394Q64 422 71 433T91 446T121 449ZM121 99Q139 99 151 97T171 83T178 44Q178 34 177
26T174 11Q170 -5 163 -20T145 -51L91 -136L46 -112L87 -9Q76 -5 70 6T64 44Q64 72 71 83T91 96T121 99Z" />
<glyph unicode="&lt;" glyph-name="less" horiz-adv-x="500" d="M60 352L440 512V442L137 317L440 192V122L60 282V352Z" />
<glyph unicode="=" glyph-name="equal" horiz-adv-x="500" d="M60 452H440V382H60V452ZM60 252H440V182H60V252Z" />
<glyph unicode="&gt;" glyph-name="greater" horiz-adv-x="500" d="M440 282L60 122V192L362 317L60 442V512L440 352V282Z" />
<glyph unicode="?" glyph-name="question" horiz-adv-x="361" d="M149 641Q110 641 82 636T35 626L20 691Q54 702 91 707T149 712Q250 712 290 668T331 541Q331 480 308 433T253 351L200 290Q180 267 171 252T161 222T159 179H92Q92 220 94 245T105 289T135 332L188
393Q219 428 232 460T246 540Q246 577 240 599T213 631T149 641ZM129 99Q147 99 159 97T179 83T186 44Q186 16 179 5T160 -9T129 -12Q112 -12 99 -10T79 4T72 44Q72 72 79 83T99 96T129 99Z" />
<glyph unicode="@" glyph-name="at" horiz-adv-x="708" d="M420 60Q361 60 332 83T294 145T285 225Q285 278 302 308T354 351T438 367T550 372V461Q550 503 528 521T462 544T354 549Q306 549 270 545T209 521T172 461T159 347V157Q159 84 171 43T208 -17T269 -40T354
-45Q442 -45 513 -27T628 6L648 -50Q624 -60 577 -76T472 -104T354 -116Q305 -116 262 -111T184 -87T124 -29T84 79T70 252Q70 357 84 425T123 533T184 591T262 615T354 620Q435 620 498 609T596 561T632 450V97Q614 90 579 81T503 66T420 60ZM550 135V315Q503
315 461 312T393 292T367 237V214Q367 186 371 166T394 136T455 125Q483 125 506 128T550 135Z" />
<glyph unicode="A" glyph-name="A" horiz-adv-x="548" d="M35 0L201 700H347L513 0H425L384 177H164L123 0H35ZM277 636H271L180 247H367L277 636Z" />
<glyph unicode="B" glyph-name="B" horiz-adv-x="548" d="M90 700H256Q367 700 410 654T453 503Q453 442 437 406T383 351Q430 335 451 298T473 195Q473 127 453 84T387 21T261 0H90V700ZM366 483V522Q366 554 362 578T334 615T255 629H176V377H245Q306 377 331
390T361 428T366 483ZM386 176V215Q386 238 384 257T369 291T330 312T252 320H176V71H262Q324 71 350 84T381 121T386 176Z" />
<glyph unicode="C" glyph-name="C" horiz-adv-x="479" d="M296 712Q316 712 354 709T426 694L411 629Q392 634 364 637T297 641Q246 641 219 631T179 603T165 561T162 507V193Q162 164 164 140T179 97T218 69T297 59Q335 59 363 63T420 75L439 16Q416 6 377 -3T296
-12Q214 -12 169 7T104 68T80 180T75 349Q75 449 79 518T103 630T168 692T296 712Z" />
<glyph unicode="D" glyph-name="D" horiz-adv-x="587" d="M90 700H290Q373 700 418 683T483 625T507 517T512 349Q512 249 508 182T484 75T419 18T290 0H90V700ZM176 628V74H291Q341 74 368 83T408 110T422 152T425 205V497Q425 526 423 550T408 591T369 618T291
628H176Z" />
<glyph unicode="E" glyph-name="E" horiz-adv-x="473" d="M90 700H423L413 630H176V386H393V316H176V70H433V0H90V700Z" />
<glyph unicode="F" glyph-name="F" horiz-adv-x="433" d="M413 700L403 630H176V386H383V316H176V0H90V700H413Z" />
<glyph unicode="G" glyph-name="G" horiz-adv-x="552" d="M472 355V26Q452 15 422 7T358 -7T296 -12Q214 -12 169 7T104 68T80 180T75 349Q75 449 79 518T103 630T168 692T296 712Q331 712 372 706T446 690L431 625Q412 630 374 635T297 641Q246 641 219 632T179
605T165 563T162 510V193Q162 164 164 140T179 97T218 69T297 59Q326 59 348 61T392 68V295H297V355H472Z" />
<glyph unicode="H" glyph-name="H" horiz-adv-x="592" d="M502 700V0H416V316H176V0H90V700H176V386H416V700H502Z" />
<glyph unicode="I" glyph-name="I" horiz-adv-x="266" d="M176 700V0H90V700H176Z" />
<glyph unicode="J" glyph-name="J" horiz-adv-x="271" d="M186 700V157Q186 126 183 96T169 41T131 3T59 -12Q44 -12 26 -9V47Q63 48 78 59T96 89T100 135V700H186Z" />
<glyph unicode="K" glyph-name="K" horiz-adv-x="518" d="M176 0H90V700H176V0ZM386 700H477L293 350L478 0H386L202 350L386 700Z" />
<glyph unicode="L" glyph-name="L" horiz-adv-x="422" d="M90 700H176V70H402V0H90V700Z" />
<glyph unicode="M" glyph-name="M" horiz-adv-x="726" d="M316 170L184 563H178L165 0H82L103 700H213L360 258H366L513 700H623L644 0H561L548 563H542L410 170H316Z" />
<glyph unicode="N" glyph-name="N" horiz-adv-x="597" d="M216 700L417 116H423V700H507V0H381L180 584H174V0H90V700H216Z" />
<glyph unicode="O" glyph-name="O" horiz-adv-x="593" d="M296 -12Q214 -12 169 7T104 68T80 180T75 349Q75 449 79 518T103 630T168 692T296 712Q379 712 424 693T489 631T513 519T518 349Q518 249 514 180T490 69T425 7T296 -12ZM431 193V507Q431 536 429 560T414
603T375 631T297 641Q246 641 219 631T179 603T165 561T162 507V193Q162 164 164 140T179 97T218 69T297 59Q347 59 374 69T414 97T428 139T431 193Z" />
<glyph unicode="P" glyph-name="P" horiz-adv-x="513" d="M90 700H241Q321 700 369 679T440 608T463 474Q463 391 441 341T370 270T241 248H176V0H90V700ZM376 450V498Q376 527 374 551T359 592T320 619T242 629H176V319H242Q292 319 319 328T359 355T373 397T376 450Z" />
<glyph unicode="Q" glyph-name="Q" horiz-adv-x="593" d="M287 -124L266 -11Q195 -8 156 13T100 77T79 187T75 349Q75 449 79 518T103 630T168 692T296 712Q379 712 424 693T489 631T513 519T518 349Q518 255 515 189T495 79T440 15T334 -11V-16L340 -21L365 -124H287ZM431
193V507Q431 536 429 560T414 603T375 631T297 641Q246 641 219 631T179 603T165 561T162 507V193Q162 164 164 140T179 97T218 69T297 59Q347 59 374 69T414 97T428 139T431 193Z" />
<glyph unicode="R" glyph-name="R" horiz-adv-x="540" d="M392 0L282 269Q272 268 262 268T241 268H176V0H90V700H241Q321 700 369 680T440 612T463 484Q463 402 440 355T365 287L480 0H392ZM376 462V506Q376 533 374 556T359 595T320 620T242 629H176V339H242Q292
339 319 348T359 373T373 412T376 462Z" />
<glyph unicode="S" glyph-name="S" horiz-adv-x="490" d="M248 -12Q199 -12 148 -3T55 25L73 87Q101 77 146 68T237 59Q293 59 322 87T351 188Q351 214 347 239T326 283T273 306L174 320Q125 328 100 352T66 418T57 518Q57 608 105 660T246 712Q296 712 337 702T411
680L393 620Q374 625 334 633T247 641Q219 641 195 633T156 599T141 518Q141 463 154 432T214 394L308 380Q348 374 376 355T419 296T435 187Q435 132 417 87T358 15T248 -12Z" />
<glyph unicode="T" glyph-name="T" horiz-adv-x="400" d="M10 700H390V630H243V0H157V630H10V700Z" />
<glyph unicode="U" glyph-name="U" horiz-adv-x="611" d="M440 700H526V349Q526 249 522 180T498 69T433 7T305 -12Q223 -12 178 7T113 68T89 180T85 349V700H171V193Q171 164 173 140T188 99T227 72T306 62Q356 62 383 71T423 98T437 140T440 193V700Z" />
<glyph unicode="V" glyph-name="V" horiz-adv-x="532" d="M199 0L35 700H120L263 57H269L412 700H497L333 0H199Z" />
<glyph unicode="W" glyph-name="W" horiz-adv-x="845" d="M537 0L425 572H419L308 0H173L55 700H140L241 57H247L375 700H470L598 57H604L705 700H790L672 0H537Z" />
<glyph unicode="X" glyph-name="X" horiz-adv-x="515" d="M393 700H484L305 350L485 0H393L257 265L122 0H30L210 350L31 700H122L257 435L393 700Z" />
<glyph unicode="Y" glyph-name="Y" horiz-adv-x="478" d="M279 0H199V225L25 700H113L236 319H242L365 700H453L279 225V0Z" />
<glyph unicode="Z" glyph-name="Z" horiz-adv-x="487" d="M60 700H447V641L133 70H442V0H40V59L355 630H60V700Z" />
<glyph unicode="[" glyph-name="bracketleft" horiz-adv-x="340" d="M90 800H280V730H176V-30H280V-100H90V800Z" />
<glyph unicode="\" glyph-name="backslash" horiz-adv-x="352" d="M76 700L352 0H276L0 700H76Z" />
<glyph unicode="]" glyph-name="bracketright" horiz-adv-x="340" d="M250 -100H60V-30H164V730H60V800H250V-100Z" />
<glyph unicode="^" glyph-name="asciicircum" horiz-adv-x="500" d="M285 646L420 352H350L250 569L150 352H80L215 646H285Z" />
<glyph unicode="_" glyph-name="underscore" horiz-adv-x="430" d="M30 -12H400V-77H30V-12Z" />
<glyph unicode="`" glyph-name="grave" horiz-adv-x="430" d="M282 586L94 689L140 756L305 620L282 586Z" />
<glyph unicode="a" glyph-name="a" horiz-adv-x="497" d="M372 0L359 49Q333 20 307 7T254 -9T205 -12Q146 -12 117 11T79 73T70 153Q70 206 87 236T139 279T223 295T335 300V375Q335 431 311 447T246 464Q210 464 173 458T107 442L91 492Q122 507 164 518T256
530Q328 530 362 511T406 458T417 375V0H372ZM335 140V243Q288 243 246 240T178 221T152 165V142Q152 114 156 94T179 64T240 53Q299 53 317 78T335 140Z" />
<glyph unicode="b" glyph-name="b" horiz-adv-x="514" d="M90 720H167V486Q198 515 235 520T302 525Q362 525 391 499T429 420T439 284Q439 209 436 154T417 61T366 6T267 -12Q239 -12 193 -6T90 17V720ZM172 374V64Q195 60 218 57T265 53Q305 53 324 61T349 90T355
147V372Q355 400 351 420T328 450T267 461Q208 461 190 437T172 374Z" />
<glyph unicode="c" glyph-name="c" horiz-adv-x="405" d="M254 531Q274 531 307 526T371 507L355 454Q337 459 315 462T256 465Q207 465 187 453T162 421T158 374V146Q158 92 185 72T254 52Q278 52 305 56T361 68L373 14Q347 2 317 -5T246 -12Q183 -12 148 7T97
61T79 147T75 260Q75 323 78 373T98 458T151 512T254 531Z" />
<glyph unicode="d" glyph-name="d" horiz-adv-x="514" d="M75 229Q75 304 78 359T97 452T148 507T247 525Q303 525 347 512V720H424V0H379L366 49Q345 20 318 7T263 -9T212 -12Q153 -12 124 14T85 93T75 229ZM342 140V450Q320 455 297 458T249 461Q210 461 191
453T165 424T159 367V142Q159 114 163 94T186 64T247 53Q306 53 324 78T342 140Z" />
<glyph unicode="e" glyph-name="e" horiz-adv-x="478" d="M254 531Q330 531 366 511T412 455T423 375Q423 318 406 286T354 240T270 223T158 218V143Q158 87 182 71T247 54Q283 54 322 60T396 82L412 32Q374 10 335 -1T246 -12Q183 -12 148 7T97 61T79 147T75
260Q75 323 78 373T98 458T151 512T254 531ZM158 378V275Q206 275 247 278T315 298T341 353V376Q341 404 337 424T314 454T253 465Q194 465 176 441T158 378Z" />
<glyph unicode="f" glyph-name="f" horiz-adv-x="321" d="M329 721L323 669Q301 672 283 672Q240 672 221 647T201 554V520H295V461H201V0H119V461H50V505L119 519Q121 583 130 630T169 703T256 729Q272 729 290 727T329 721Z" />
<glyph unicode="g" glyph-name="g" horiz-adv-x="519" d="M347 -39V49Q316 21 279 16T212 10Q153 10 124 38T85 121T75 259Q75 323 78 373T97 459T148 512T247 531Q275 531 324 525T429 502V-36Q429 -83 419 -119T374 -174T268 -194Q218 -194 176 -183T103 -156L119
-106Q147 -115 184 -121T258 -128Q298 -128 322 -112T347 -39ZM342 161V455Q320 460 297 463T249 466Q210 466 191 458T165 429T159 372V163Q159 135 163 115T186 85T247 74Q306 74 324 99T342 161Z" />
<glyph unicode="h" glyph-name="h" horiz-adv-x="517" d="M437 0H355V371Q355 399 351 419T328 449T267 460Q208 460 190 436T172 373V0H90V720H167V475Q199 509 233 517T302 525Q362 525 390 502T428 441T437 360V0Z" />
<glyph unicode="i" glyph-name="i" horiz-adv-x="262" d="M172 520V0H90V520H172ZM131 732Q149 732 161 730T181 716T188 677Q188 649 181 638T162 624T131 621Q114 621 101 623T81 637T74 677Q74 705 81 716T101 729T131 732Z" />
<glyph unicode="j" glyph-name="j" horiz-adv-x="262" d="M90 520H172V-33Q172 -63 170 -91T156 -143T120 -180T51 -194Q13 -194 -18 -180L0 -122Q14 -126 25 -128T49 -130Q75 -130 82 -111T90 -54V520ZM131 732Q149 732 161 730T181 716T188 677Q188 649 181
638T162 624T131 621Q114 621 101 623T81 637T74 677Q74 705 81 716T101 729T131 732Z" />
<glyph unicode="k" glyph-name="k" horiz-adv-x="470" d="M172 0H90V720H172V0ZM345 520H432L283 276L440 0H353L196 276L345 520Z" />
<glyph unicode="l" glyph-name="l" horiz-adv-x="262" d="M90 0V720H172V0H90Z" />
<glyph unicode="m" glyph-name="m" horiz-adv-x="752" d="M672 0H590V377Q590 405 586 425T565 455T509 466Q455 466 439 442T422 379V0H340V377Q340 405 336 425T315 455T259 466Q205 466 189 442T172 379V0H90V520H135L148 471Q168 501 193 513T244 528T291
531Q336 531 362 516T402 476Q422 503 446 514T495 528T541 531Q599 531 626 508T663 447T672 366V0Z" />
<glyph unicode="n" glyph-name="n" horiz-adv-x="517" d="M437 0H355V377Q355 405 351 425T328 455T267 466Q208 466 190 442T172 379V0H90V520H135L148 471Q169 501 196 513T251 528T302 531Q362 531 390 508T428 447T437 366V0Z" />
<glyph unicode="o" glyph-name="o" horiz-adv-x="513" d="M256 -12Q188 -12 151 7T98 61T79 147T75 260Q75 323 78 373T98 458T151 512T256 531Q324 531 361 512T415 458T434 373T438 260Q438 197 435 147T415 62T362 7T256 -12ZM353 145V374Q353 400 349 421T325
454T256 466Q207 466 187 454T162 421T158 374V145Q158 119 162 98T186 65T256 53Q305 53 325 65T349 98T353 145Z" />
<glyph unicode="p" glyph-name="p" horiz-adv-x="514" d="M439 295Q439 220 436 165T417 73T366 18T267 0Q211 0 167 13V-182H90V520H135L148 471Q169 501 196 513T251 528T302 531Q362 531 391 507T429 430T439 295ZM172 379V75Q195 71 218 68T265 64Q305 64
324 72T349 101T355 158V377Q355 405 351 425T328 455T267 466Q208 466 190 442T172 379Z" />
<glyph unicode="q" glyph-name="q" horiz-adv-x="514" d="M424 -182H347V39Q316 11 279 6T212 0Q153 0 124 24T85 101T75 236Q75 311 78 366T97 458T148 513T247 531Q275 531 321 525T424 502V-182ZM342 151V455Q320 460 297 463T249 466Q210 466 191 458T165
429T159 372V153Q159 125 163 105T186 75T247 64Q306 64 324 89T342 151Z" />
<glyph unicode="r" glyph-name="r" horiz-adv-x="323" d="M172 0H90V520H135L151 459Q176 483 216 506T325 531L317 459Q258 459 224 441T172 405V0Z" />
<glyph unicode="s" glyph-name="s" horiz-adv-x="446" d="M200 301L281 290Q332 283 359 252T386 141Q386 99 371 64T320 9T225 -12Q175 -12 133 -3T60 21L76 71Q104 66 141 60T215 54Q264 54 285 73T306 141Q306 167 297 189T247 217L166 228Q123 234 102 254T73
304T65 368Q65 448 106 489T216 531Q263 531 303 522T371 498L356 442Q331 448 297 454T229 461Q205 461 186 456T156 435T145 383Q145 346 152 327T200 301Z" />
<glyph unicode="t" glyph-name="t" horiz-adv-x="338" d="M166 610H203V520H295V461H203V125Q203 88 210 67T254 46Q262 46 271 47T291 50L298 0Q282 -5 265 -8T227 -12Q176 -12 154 5T126 53T121 125V461H50V505L121 520L166 610Z" />
<glyph unicode="u" glyph-name="u" horiz-adv-x="517" d="M80 520H162V142Q162 114 166 94T189 64T250 53Q309 53 327 78T345 140V520H427V0H382L369 49Q348 20 321 7T266 -9T215 -12Q156 -12 127 11T89 73T80 153V520Z" />
<glyph unicode="v" glyph-name="v" horiz-adv-x="454" d="M161 0L40 520H121L224 54H230L333 520H414L293 0H161Z" />
<glyph unicode="w" glyph-name="w" horiz-adv-x="697" d="M434 0L351 444H345L263 0H139L40 520H121L204 54H210L297 520H400L487 54H493L576 520H657L558 0H434Z" />
<glyph unicode="x" glyph-name="x" horiz-adv-x="457" d="M322 520H409L275 266L417 0H330L228 190L127 0H40L182 266L48 520H135L228 343L322 520Z" />
<glyph unicode="y" glyph-name="y" horiz-adv-x="454" d="M39 -180L57 -122Q84 -128 112 -128Q144 -128 169 -113T206 -48L217 0H161L40 520H121L224 54H230L333 520H414L282 -45Q272 -88 254 -121T202 -174T108 -194Q70 -194 39 -180Z" />
<glyph unicode="z" glyph-name="z" horiz-adv-x="453" d="M70 520H388V466L154 65H393V0H60V54L296 455H70V520Z" />
<glyph unicode="{" glyph-name="braceleft" horiz-adv-x="340" d="M80 170Q80 182 81 197T82 228Q82 260 72 287T23 319V369Q49 372 61 387T78 424T82 469Q82 486 81 502T80 530Q80 632 96 693T157 782T290 810L295 745Q238 745 211 721T175 654T166 559Q166 485
161 443T141 381T99 352V344Q127 335 141 315T160 254T166 139Q166 87 174 45T210 -22T295 -47L290 -112Q203 -112 158 -84T96 6T80 170Z" />
<glyph unicode="|" glyph-name="bar" horiz-adv-x="326" d="M206 800V-100H120V800H206Z" />
<glyph unicode="}" glyph-name="braceright" horiz-adv-x="340" d="M260 170Q260 68 244 6T183 -84T50 -112L45 -47Q103 -47 130 -23T165 44T174 139Q174 213 179 254T199 315T241 344V352Q214 361 200 381T180 443T174 559Q174 612 166 654T130 720T45 745L50
810Q138 810 183 783T244 694T260 530Q260 518 259 502T258 469Q258 446 262 424T279 387T317 369V319Q279 315 269 288T258 228Q258 212 259 197T260 170Z" />
<glyph unicode="~" glyph-name="asciitilde" horiz-adv-x="500" d="M60 282V352Q78 336 100 329T145 321Q173 321 197 330T244 352T292 373T345 383Q397 383 440 352V282Q401 312 349 312Q321 312 297 303T250 281T203 260T149 250Q124 250 101 257T60 282Z" />
<glyph unicode="&#xa0;" glyph-name="uni00A0" horiz-adv-x="250" />
<glyph unicode="&#xa1;" glyph-name="exclamdown" horiz-adv-x="266" d="M133 419Q116 419 103 421T83 435T76 474Q76 502 83 513T103 527T133 530Q151 530 163 528T183 514T190 474Q190 447 183 436T164 422T133 419ZM166 339L178 -178H88L100 339H166Z" />
<glyph unicode="&#xa2;" glyph-name="cent" horiz-adv-x="500" d="M249 -100V57Q195 63 166 84T123 141T107 223T104 327Q104 383 107 429T123 510T165 566T249 595V750H312V598Q335 597 367 592T430 574L414 521Q393 526 367 529T300 532Q243 532 220 520T192
488T187 441V213Q187 159 218 139T297 119Q325 119 356 123T420 135L432 81Q407 71 378 64T312 55V-100H249Z" />
<glyph unicode="&#xa3;" glyph-name="sterling" horiz-adv-x="500" d="M46 348H128Q124 392 117 428T110 490Q110 566 154 612T292 658Q342 658 384 648T457 626L439 566Q420 571 379 579T290 587Q262 587 239 580T203 552T190 487Q190 466 196 430T207 348H382V288H210Q210
237 202 182T167 70H456V0H80V56Q106 107 119 163T132 288H46V348Z" />
<glyph unicode="&#xa4;" glyph-name="currency" horiz-adv-x="500" d="M472 490L387 405Q394 388 395 366T396 317Q396 291 395 269T387 228L472 144L423 95L337 181Q321 175 300 173T250 170Q222 170 201 173T163 181L77 95L28 144L113 229Q108 247 107 269T106
317Q106 343 107 365T113 404L28 490L77 539L163 452Q195 464 250 464Q279 464 300 461T337 453L423 539L472 490ZM325 278V355Q325 368 322 379T303 396T248 403Q213 403 198 397T180 379T177 355V278Q177 265 180 254T199 237T252 230Q289 230 304 236T322 254T325
278Z" />
<glyph unicode="&#xa5;" glyph-name="yen" horiz-adv-x="500" d="M290 198H440V138H290V0H210V138H62V198H210V244L191 288H62V348H165L36 646H124L247 348H253L376 646H464L335 348H440V288H309L290 244V198Z" />
<glyph unicode="&#xa6;" glyph-name="brokenbar" horiz-adv-x="326" d="M206 800V453H120V800H206ZM206 247V-100H120V247H206Z" />
<glyph unicode="&#xa7;" glyph-name="section" horiz-adv-x="490" d="M57 297Q57 356 81 398Q67 421 62 453T57 529Q57 611 105 661T246 712Q296 712 337 702T411 680L393 622Q374 627 334 634T247 641Q219 641 195 634T156 602T141 529Q141 478 154 450T214 415L308
402Q348 397 376 380T419 326T435 226Q435 163 408 115Q421 95 428 66T435 -6Q435 -56 417 -99T358 -168T248 -194Q199 -194 148 -185T55 -157L73 -97Q101 -106 146 -114T237 -123Q293 -123 322 -98T351 -5Q351 19 347 42T326 82T273 103L174 116Q125 123 100 145T66
205T57 297ZM214 183L308 170Q330 167 351 159V227Q351 251 347 274T326 314T273 335L174 348Q165 349 157 351T141 355V297Q141 246 154 218T214 183Z" />
<glyph unicode="&#xa8;" glyph-name="dieresis" horiz-adv-x="430" d="M125 717Q149 717 163 711T177 667Q177 629 163 623T125 616Q101 616 87 622T73 667Q73 705 87 711T125 717ZM305 717Q329 717 343 711T357 667Q357 629 343 623T305 616Q281 616 267 622T253
667Q253 705 267 711T305 717Z" />
<glyph unicode="&#xa9;" glyph-name="copyright" horiz-adv-x="543" d="M493 459Q493 401 489 355T465 276T400 226T270 209Q188 209 143 226T78 275T54 354T50 459Q50 518 54 564T77 643T142 693T270 710Q354 710 399 693T465 643T489 564T493 459ZM269 248Q332
248 366 257T416 283T434 321T437 365V554Q437 577 434 598T416 635T367 661T269 671Q206 671 172 662T122 636T104 598T101 554V365Q101 342 104 321T122 284T171 258T269 248ZM289 636Q299 636 319 633T359 624L349 577Q338 579 323 581T289 583Q260 583 248
577T234 558T231 529V389Q231 373 233 361T248 341T289 334Q306 334 321 336T353 343L366 301Q352 295 332 289T289 282Q230 282 205 300T175 358T170 459Q170 521 175 560T205 617T289 636Z" />
<glyph unicode="&#xaa;" glyph-name="ordfeminine" horiz-adv-x="403" d="M282 363L266 397Q246 371 220 363T172 355Q132 355 112 371T86 412T79 466Q79 515 100 535T160 561T253 567V612Q253 643 237 652T198 662Q176 662 151 657T105 646L92 684Q115 695 144
703T204 712Q252 712 275 699T306 663T313 607V363H282ZM253 458V522Q226 522 200 520T157 509T140 479V459Q140 436 149 421T194 405Q227 405 240 421T253 458Z" />
<glyph unicode="&#xab;" glyph-name="guillemotleft" horiz-adv-x="440" d="M115 308L190 96L119 84L30 308L119 532L190 520L115 308ZM315 308L390 96L319 84L230 308L319 532L390 520L315 308Z" />
<glyph unicode="&#xac;" glyph-name="logicalnot" horiz-adv-x="500" d="M60 352H440V149H374V282H60V352Z" />
<glyph unicode="&#xae;" glyph-name="registered" horiz-adv-x="543" d="M493 459Q493 401 489 355T465 276T400 226T270 209Q188 209 143 226T78 275T54 354T50 459Q50 518 54 564T77 643T142 693T270 710Q354 710 399 693T465 643T489 564T493 459ZM269 248Q332
248 366 257T416 283T434 321T437 365V554Q437 577 434 598T416 635T367 661T269 671Q206 671 172 662T122 636T104 598T101 554V365Q101 342 104 321T122 284T171 258T269 248ZM328 289L269 413H238V289H178V630H251Q319 630 348 606T377 522Q377 446 326 425L389
289H328ZM317 512V531Q317 545 315 555T301 572T262 578H238V465H262Q290 465 301 471T314 488T317 512Z" />
<glyph unicode="&#xaf;" glyph-name="overscore" horiz-adv-x="400" d="M80 698H320V635H80V698Z" />
<glyph unicode="&#xb0;" glyph-name="degree" horiz-adv-x="360" d="M310 565Q310 531 308 504T294 458T255 428T179 418Q131 418 105 428T67 457T53 504T50 565Q50 599 52 626T66 672T104 702T179 712Q228 712 255 702T293 673T307 626T310 565ZM239 526V603Q239
616 237 627T222 644T181 651Q151 651 139 645T124 627T121 603V526Q121 513 123 502T138 485T181 478Q210 478 222 484T236 502T239 526Z" />
<glyph unicode="&#xb1;" glyph-name="plusminus" horiz-adv-x="500" d="M60 352H215V507H285V352H440V282H285V127H215V282H60V352ZM60 70H440V0H60V70Z" />
<glyph unicode="&#xb2;" glyph-name="uni00B2" horiz-adv-x="335" d="M273 624Q273 592 259 566T227 521L132 416H273V365H56V414L180 553Q196 570 203 585T210 624Q210 648 199 657T162 667Q140 667 118 663T73 651L59 694Q80 703 107 711T162 719Q213 719 243
695T273 624Z" />
<glyph unicode="&#xb3;" glyph-name="uni00B3" horiz-adv-x="335" d="M153 719Q216 719 239 691T262 624Q262 597 253 578T226 546Q273 524 273 466Q273 439 263 415T227 375T153 360Q121 360 96 367T56 380L70 423Q101 418 117 416T153 413Q182 413 193 421T207
442T210 465Q210 482 205 497T173 514L100 519V561L165 565Q189 567 194 583T199 614Q199 625 197 637T184 658T151 667Q135 667 114 663T68 651L54 694Q69 701 97 710T153 719Z" />
<glyph unicode="&#xb4;" glyph-name="acute" horiz-adv-x="430" d="M134 620L299 756L345 689L157 586L134 620Z" />
<glyph unicode="&#xb5;" glyph-name="uni00B5" horiz-adv-x="516" d="M90 520H172V142Q172 114 177 94T202 64T263 53Q305 53 324 63T349 94T354 142V520H436V153Q436 86 418 50T361 1T263 -12Q193 -12 165 16V-182H90V520Z" />
<glyph unicode="&#xb6;" glyph-name="paragraph" horiz-adv-x="399" d="M227 0V232Q157 232 119 246T64 289T44 356T40 445Q40 495 43 534T63 601T118 643T227 658H309V0H227Z" />
<glyph unicode="&#xb7;" glyph-name="middot" horiz-adv-x="251" d="M125 365Q145 365 160 363T183 347T191 302Q191 270 183 256T160 240T125 237Q105 237 91 239T68 256T60 302Q60 334 68 347T90 362T125 365Z" />
<glyph unicode="&#xb8;" glyph-name="cedilla" horiz-adv-x="182" d="M94 0L87 -56H99Q146 -56 159 -74T172 -118Q172 -137 166 -154T141 -183T81 -194Q56 -194 37 -188T10 -177L20 -142Q36 -146 44 -148T71 -150Q98 -150 102 -141T107 -122Q107 -114 104 -104T78
-94H58L43 -70L53 0H94Z" />
<glyph unicode="&#xb9;" glyph-name="uni00B9" horiz-adv-x="335" d="M214 719V365H151V647L85 622L66 671L194 719H214Z" />
<glyph unicode="&#xba;" glyph-name="ordmasculine" horiz-adv-x="413" d="M204 355Q144 355 119 377T88 439T83 534Q83 589 88 629T118 691T204 713Q266 713 291 691T322 629T327 534Q327 479 322 439T292 377T204 355ZM263 456V611Q263 634 254 648T204 663Q163
663 154 649T144 611V456Q144 434 153 420T204 405Q245 405 254 419T263 456Z" />
<glyph unicode="&#xbb;" glyph-name="guillemotright" horiz-adv-x="440" d="M250 520L321 532L410 308L321 84L250 96L325 308L250 520ZM50 520L121 532L210 308L121 84L50 96L125 308L50 520Z" />
<glyph unicode="&#xbc;" glyph-name="onequarter" horiz-adv-x="726" d="M209 655V301H146V583L80 558L61 607L189 655H209ZM227 0L402 646H447L272 0H227ZM625 242V133H664V81H625V0H567V81H414V124L492 349H553L478 133H567V192L583 242H625Z" />
<glyph unicode="&#xbd;" glyph-name="onehalf" horiz-adv-x="726" d="M209 655V301H146V583L80 558L61 607L189 655H209ZM227 0L402 646H447L272 0H227ZM657 259Q657 227 643 201T611 156L516 51H657V0H440V49L564 188Q580 205 587 220T594 259Q594 283 583 292T546
302Q524 302 502 298T457 286L443 329Q464 338 491 346T546 354Q597 354 627 330T657 259Z" />
<glyph unicode="&#xbe;" glyph-name="threequarters" horiz-adv-x="726" d="M148 655Q211 655 234 627T257 560Q257 533 248 514T221 482Q268 460 268 402Q268 375 258 351T222 311T148 296Q116 296 91 303T51 316L65 359Q96 354 112 352T148 349Q177 349 188
357T202 378T205 401Q205 418 200 433T168 450L95 455V497L160 501Q184 503 189 519T194 550Q194 561 192 573T179 594T146 603Q130 603 109 599T63 587L49 630Q64 637 92 646T148 655ZM249 0L424 646H469L294 0H249ZM625 242V133H664V81H625V0H567V81H414V124L492
349H553L478 133H567V192L583 242H625Z" />
<glyph unicode="&#xbf;" glyph-name="questiondown" horiz-adv-x="361" d="M232 421Q215 421 202 423T182 437T175 476Q175 504 182 515T202 529T232 532Q250 532 262 530T282 516T289 476Q289 449 282 438T263 424T232 421ZM212 -121Q251 -121 279 -116T326 -106L341
-171Q307 -181 270 -186T212 -192Q112 -192 71 -148T30 -21Q30 41 53 87T108 169L161 230Q182 254 190 268T200 298T202 341H269Q269 300 267 275T256 231T226 188L173 127Q142 92 129 60T115 -20Q115 -57 121 -79T149 -111T212 -121Z" />
<glyph unicode="&#xc0;" glyph-name="Agrave" horiz-adv-x="548" d="M35 0L201 700H347L513 0H425L384 177H164L123 0H35ZM277 636H271L180 247H367L277 636ZM356 731L168 834L214 901L379 765L356 731Z" />
<glyph unicode="&#xc1;" glyph-name="Aacute" horiz-adv-x="548" d="M35 0L201 700H347L513 0H425L384 177H164L123 0H35ZM277 636H271L180 247H367L277 636ZM168 765L333 901L379 834L191 731L168 765Z" />
<glyph unicode="&#xc2;" glyph-name="Acircumflex" horiz-adv-x="548" d="M35 0L201 700H347L513 0H425L384 177H164L123 0H35ZM277 636H271L180 247H367L277 636ZM376 738L273 805L170 738L140 775L273 891L407 775L376 738Z" />
<glyph unicode="&#xc3;" glyph-name="Atilde" horiz-adv-x="548" d="M35 0L201 700H347L513 0H425L384 177H164L123 0H35ZM277 636H271L180 247H367L277 636ZM383 850L405 812Q374 781 357 773T321 765Q304 765 288 772T256 785T220 792Q205 792 192 787T164 772L142
810Q173 842 190 849T226 857Q244 857 259 851T291 837T327 830Q342 830 355 835T383 850Z" />
<glyph unicode="&#xc4;" glyph-name="Adieresis" horiz-adv-x="548" d="M35 0L201 700H347L513 0H425L384 177H164L123 0H35ZM277 636H271L180 247H367L277 636ZM184 862Q208 862 222 856T236 812Q236 774 222 768T184 761Q160 761 146 767T132 812Q132 850 146
856T184 862ZM364 862Q388 862 402 856T416 812Q416 774 402 768T364 761Q340 761 326 767T312 812Q312 850 326 856T364 862Z" />
<glyph unicode="&#xc5;" glyph-name="Aring" horiz-adv-x="548" d="M35 0L201 700H347L513 0H425L384 177H164L123 0H35ZM277 636H271L180 247H367L277 636ZM274 896Q300 896 319 891T350 868T361 812Q361 774 350 756T320 733T274 728Q248 728 229 733T198 756T187
812Q187 850 198 868T228 891T274 896ZM274 847Q261 847 251 842T241 812Q241 787 251 782T274 777Q288 777 297 782T307 812Q307 836 298 841T274 847Z" />
<glyph unicode="&#xc6;" glyph-name="AE" horiz-adv-x="756" d="M0 0L275 700H706L696 630H459V346H676V276H459V70H716V0H373V276H195L88 0H0ZM222 346H373V630H332L222 346Z" />
<glyph unicode="&#xc7;" glyph-name="Ccedilla" horiz-adv-x="479" d="M296 712Q316 712 354 709T426 694L411 629Q392 634 364 637T297 641Q246 641 219 631T179 603T165 561T162 507V193Q162 164 164 140T179 97T218 69T297 59Q335 59 363 63T420 75L439 16Q416
6 377 -3T296 -12Q214 -12 169 7T104 68T80 180T75 349Q75 449 79 518T103 630T168 692T296 712ZM278 0L271 -56H283Q330 -56 343 -74T356 -118Q356 -137 350 -154T325 -183T265 -194Q240 -194 221 -188T194 -177L204 -142Q220 -146 228 -148T255 -150Q282 -150
286 -141T291 -122Q291 -114 288 -104T262 -94H242L227 -70L237 0H278Z" />
<glyph unicode="&#xc8;" glyph-name="Egrave" horiz-adv-x="473" d="M90 700H423L413 630H176V386H393V316H176V70H433V0H90V700ZM339 731L151 834L197 901L362 765L339 731Z" />
<glyph unicode="&#xc9;" glyph-name="Eacute" horiz-adv-x="473" d="M90 700H423L413 630H176V386H393V316H176V70H433V0H90V700ZM151 765L316 901L362 834L174 731L151 765Z" />
<glyph unicode="&#xca;" glyph-name="Ecircumflex" horiz-adv-x="473" d="M90 700H423L413 630H176V386H393V316H176V70H433V0H90V700ZM359 738L256 805L153 738L123 775L256 891L390 775L359 738Z" />
<glyph unicode="&#xcb;" glyph-name="Edieresis" horiz-adv-x="473" d="M90 700H423L413 630H176V386H393V316H176V70H433V0H90V700ZM167 862Q191 862 205 856T219 812Q219 774 205 768T167 761Q143 761 129 767T115 812Q115 850 129 856T167 862ZM347 862Q371
862 385 856T399 812Q399 774 385 768T347 761Q323 761 309 767T295 812Q295 850 309 856T347 862Z" />
<glyph unicode="&#xcc;" glyph-name="Igrave" horiz-adv-x="266" d="M176 700V0H90V700H176ZM215 731L27 834L73 901L238 765L215 731Z" />
<glyph unicode="&#xcd;" glyph-name="Iacute" horiz-adv-x="266" d="M176 700V0H90V700H176ZM283 765L448 901L494 834L306 731L283 765Z" />
<glyph unicode="&#xce;" glyph-name="Icircumflex" horiz-adv-x="266" d="M176 700V0H90V700H176ZM491 738L388 805L285 738L255 775L388 891L522 775L491 738Z" />
<glyph unicode="&#xcf;" glyph-name="Idieresis" horiz-adv-x="266" d="M176 700V0H90V700H176ZM299 862Q323 862 337 856T351 812Q351 774 337 768T299 761Q275 761 261 767T247 812Q247 850 261 856T299 862ZM479 862Q503 862 517 856T531 812Q531 774 517 768T479
761Q455 761 441 767T427 812Q427 850 441 856T479 862Z" />
<glyph unicode="&#xd0;" glyph-name="Eth" horiz-adv-x="587" d="M36 381H90V700H290Q373 700 418 683T483 625T507 517T512 349Q512 249 508 182T484 75T419 18T290 0H90V321H36V381ZM176 628V381H316V321H176V74H291Q341 74 368 83T408 110T422 152T425 205V497Q425
526 423 550T408 591T369 618T291 628H176Z" />
<glyph unicode="&#xd1;" glyph-name="Ntilde" horiz-adv-x="597" d="M216 700L417 116H423V700H507V0H381L180 584H174V0H90V700H216ZM418 850L440 812Q409 781 392 773T356 765Q339 765 323 772T291 785T255 792Q240 792 227 787T199 772L177 810Q208 842 225
849T261 857Q279 857 294 851T326 837T362 830Q377 830 390 835T418 850Z" />
<glyph unicode="&#xd2;" glyph-name="Ograve" horiz-adv-x="593" d="M296 -12Q214 -12 169 7T104 68T80 180T75 349Q75 449 79 518T103 630T168 692T296 712Q379 712 424 693T489 631T513 519T518 349Q518 249 514 180T490 69T425 7T296 -12ZM431 193V507Q431
536 429 560T414 603T375 631T297 641Q246 641 219 631T179 603T165 561T162 507V193Q162 164 164 140T179 97T218 69T297 59Q347 59 374 69T414 97T428 139T431 193ZM379 731L191 834L237 901L402 765L379 731Z" />
<glyph unicode="&#xd3;" glyph-name="Oacute" horiz-adv-x="593" d="M296 -12Q214 -12 169 7T104 68T80 180T75 349Q75 449 79 518T103 630T168 692T296 712Q379 712 424 693T489 631T513 519T518 349Q518 249 514 180T490 69T425 7T296 -12ZM431 193V507Q431
536 429 560T414 603T375 631T297 641Q246 641 219 631T179 603T165 561T162 507V193Q162 164 164 140T179 97T218 69T297 59Q347 59 374 69T414 97T428 139T431 193ZM191 765L356 901L402 834L214 731L191 765Z" />
<glyph unicode="&#xd4;" glyph-name="Ocircumflex" horiz-adv-x="593" d="M296 -12Q214 -12 169 7T104 68T80 180T75 349Q75 449 79 518T103 630T168 692T296 712Q379 712 424 693T489 631T513 519T518 349Q518 249 514 180T490 69T425 7T296 -12ZM431 193V507Q431
536 429 560T414 603T375 631T297 641Q246 641 219 631T179 603T165 561T162 507V193Q162 164 164 140T179 97T218 69T297 59Q347 59 374 69T414 97T428 139T431 193ZM399 738L296 805L193 738L163 775L296 891L430 775L399 738Z" />
<glyph unicode="&#xd5;" glyph-name="Otilde" horiz-adv-x="593" d="M296 -12Q214 -12 169 7T104 68T80 180T75 349Q75 449 79 518T103 630T168 692T296 712Q379 712 424 693T489 631T513 519T518 349Q518 249 514 180T490 69T425 7T296 -12ZM431 193V507Q431
536 429 560T414 603T375 631T297 641Q246 641 219 631T179 603T165 561T162 507V193Q162 164 164 140T179 97T218 69T297 59Q347 59 374 69T414 97T428 139T431 193ZM406 850L428 812Q397 781 380 773T344 765Q327 765 311 772T279 785T243 792Q228 792 215 787T187
772L165 810Q196 842 213 849T249 857Q267 857 282 851T314 837T350 830Q365 830 378 835T406 850Z" />
<glyph unicode="&#xd6;" glyph-name="Odieresis" horiz-adv-x="593" d="M296 -12Q214 -12 169 7T104 68T80 180T75 349Q75 449 79 518T103 630T168 692T296 712Q379 712 424 693T489 631T513 519T518 349Q518 249 514 180T490 69T425 7T296 -12ZM431 193V507Q431
536 429 560T414 603T375 631T297 641Q246 641 219 631T179 603T165 561T162 507V193Q162 164 164 140T179 97T218 69T297 59Q347 59 374 69T414 97T428 139T431 193ZM207 862Q231 862 245 856T259 812Q259 774 245 768T207 761Q183 761 169 767T155 812Q155 850
169 856T207 862ZM387 862Q411 862 425 856T439 812Q439 774 425 768T387 761Q363 761 349 767T335 812Q335 850 349 856T387 862Z" />
<glyph unicode="&#xd7;" glyph-name="multiply" horiz-adv-x="500" d="M118 497L250 365L382 497L430 449L298 317L430 185L382 137L250 269L118 137L70 185L202 317L70 449L118 497Z" />
<glyph unicode="&#xd8;" glyph-name="Oslash" horiz-adv-x="593" d="M186 -56L198 -2Q137 13 112 54T81 167T75 349Q75 449 79 518T103 630T168 692T296 712Q326 712 351 709L361 755H406L395 702Q456 687 481 646T512 531T518 349Q518 249 514 180T490 69T425
7T296 -12Q266 -12 241 -10L231 -56H186ZM162 193Q162 151 168 119T213 71L336 639Q319 641 297 641Q246 641 219 631T179 603T165 561T162 507V193ZM431 193V507Q431 550 425 582T379 629L256 61Q274 59 297 59Q347 59 374 69T414 97T428 139T431 193Z" />
<glyph unicode="&#xd9;" glyph-name="Ugrave" horiz-adv-x="611" d="M440 700H526V349Q526 249 522 180T498 69T433 7T305 -12Q223 -12 178 7T113 68T89 180T85 349V700H171V193Q171 164 173 140T188 99T227 72T306 62Q356 62 383 71T423 98T437 140T440 193V700ZM388
731L200 834L246 901L411 765L388 731Z" />
<glyph unicode="&#xda;" glyph-name="Uacute" horiz-adv-x="611" d="M440 700H526V349Q526 249 522 180T498 69T433 7T305 -12Q223 -12 178 7T113 68T89 180T85 349V700H171V193Q171 164 173 140T188 99T227 72T306 62Q356 62 383 71T423 98T437 140T440 193V700ZM200
765L365 901L411 834L223 731L200 765Z" />
<glyph unicode="&#xdb;" glyph-name="Ucircumflex" horiz-adv-x="611" d="M440 700H526V349Q526 249 522 180T498 69T433 7T305 -12Q223 -12 178 7T113 68T89 180T85 349V700H171V193Q171 164 173 140T188 99T227 72T306 62Q356 62 383 71T423 98T437 140T440
193V700ZM408 738L305 805L202 738L172 775L305 891L439 775L408 738Z" />
<glyph unicode="&#xdc;" glyph-name="Udieresis" horiz-adv-x="611" d="M440 700H526V349Q526 249 522 180T498 69T433 7T305 -12Q223 -12 178 7T113 68T89 180T85 349V700H171V193Q171 164 173 140T188 99T227 72T306 62Q356 62 383 71T423 98T437 140T440 193V700ZM216
862Q240 862 254 856T268 812Q268 774 254 768T216 761Q192 761 178 767T164 812Q164 850 178 856T216 862ZM396 862Q420 862 434 856T448 812Q448 774 434 768T396 761Q372 761 358 767T344 812Q344 850 358 856T396 862Z" />
<glyph unicode="&#xdd;" glyph-name="Yacute" horiz-adv-x="478" d="M279 0H199V225L25 700H113L236 319H242L365 700H453L279 225V0ZM133 765L298 901L344 834L156 731L133 765Z" />
<glyph unicode="&#xde;" glyph-name="Thorn" horiz-adv-x="513" d="M176 700V576H241Q321 576 369 555T440 484T463 350Q463 267 441 217T370 146T241 124H176V0H90V700H176ZM376 326V374Q376 403 374 427T359 468T320 495T242 505H176V195H242Q292 195 319 204T359
231T373 273T376 326Z" />
<glyph unicode="&#xdf;" glyph-name="germandbls" horiz-adv-x="592" d="M232 13L251 68Q274 60 295 57T346 53Q394 53 414 65T439 106T443 183Q443 206 442 232T432 282T406 322T353 342L251 352V410H331Q374 410 391 425T412 475T416 566Q416 592 412 613T385
646T309 658Q255 658 233 646T206 613T201 566V0H119V461H50V505L119 519Q120 568 127 607T153 673T209 714T310 729Q382 729 421 711T478 661T498 593T502 520Q502 455 479 425T414 376V370Q470 353 500 312T530 186Q530 77 486 33T340 -12Q308 -12 280 -5T232
13Z" />
<glyph unicode="&#xe0;" glyph-name="agrave" horiz-adv-x="497" d="M372 0L359 49Q333 20 307 7T254 -9T205 -12Q146 -12 117 11T79 73T70 153Q70 206 87 236T139 279T223 295T335 300V375Q335 431 311 447T246 464Q210 464 173 458T107 442L91 492Q122 507 164
518T256 530Q328 530 362 511T406 458T417 375V0H372ZM335 140V243Q288 243 246 240T178 221T152 165V142Q152 114 156 94T179 64T240 53Q299 53 317 78T335 140ZM331 586L143 689L189 756L354 620L331 586Z" />
<glyph unicode="&#xe1;" glyph-name="aacute" horiz-adv-x="497" d="M372 0L359 49Q333 20 307 7T254 -9T205 -12Q146 -12 117 11T79 73T70 153Q70 206 87 236T139 279T223 295T335 300V375Q335 431 311 447T246 464Q210 464 173 458T107 442L91 492Q122 507 164
518T256 530Q328 530 362 511T406 458T417 375V0H372ZM335 140V243Q288 243 246 240T178 221T152 165V142Q152 114 156 94T179 64T240 53Q299 53 317 78T335 140ZM143 620L308 756L354 689L166 586L143 620Z" />
<glyph unicode="&#xe2;" glyph-name="acircumflex" horiz-adv-x="497" d="M372 0L359 49Q333 20 307 7T254 -9T205 -12Q146 -12 117 11T79 73T70 153Q70 206 87 236T139 279T223 295T335 300V375Q335 431 311 447T246 464Q210 464 173 458T107 442L91 492Q122
507 164 518T256 530Q328 530 362 511T406 458T417 375V0H372ZM335 140V243Q288 243 246 240T178 221T152 165V142Q152 114 156 94T179 64T240 53Q299 53 317 78T335 140ZM351 603L248 670L145 603L115 640L248 756L382 640L351 603Z" />
<glyph unicode="&#xe3;" glyph-name="atilde" horiz-adv-x="497" d="M372 0L359 49Q333 20 307 7T254 -9T205 -12Q146 -12 117 11T79 73T70 153Q70 206 87 236T139 279T223 295T335 300V375Q335 431 311 447T246 464Q210 464 173 458T107 442L91 492Q122 507 164
518T256 530Q328 530 362 511T406 458T417 375V0H372ZM335 140V243Q288 243 246 240T178 221T152 165V142Q152 114 156 94T179 64T240 53Q299 53 317 78T335 140ZM358 715L380 677Q349 646 332 638T296 630Q279 630 263 637T231 650T195 657Q180 657 167 652T139
637L117 675Q148 707 165 714T201 722Q219 722 234 716T266 702T302 695Q317 695 330 700T358 715Z" />
<glyph unicode="&#xe4;" glyph-name="adieresis" horiz-adv-x="497" d="M372 0L359 49Q333 20 307 7T254 -9T205 -12Q146 -12 117 11T79 73T70 153Q70 206 87 236T139 279T223 295T335 300V375Q335 431 311 447T246 464Q210 464 173 458T107 442L91 492Q122 507
164 518T256 530Q328 530 362 511T406 458T417 375V0H372ZM335 140V243Q288 243 246 240T178 221T152 165V142Q152 114 156 94T179 64T240 53Q299 53 317 78T335 140ZM159 717Q183 717 197 711T211 667Q211 629 197 623T159 616Q135 616 121 622T107 667Q107 705
121 711T159 717ZM339 717Q363 717 377 711T391 667Q391 629 377 623T339 616Q315 616 301 622T287 667Q287 705 301 711T339 717Z" />
<glyph unicode="&#xe5;" glyph-name="aring" horiz-adv-x="497" d="M372 0L359 49Q333 20 307 7T254 -9T205 -12Q146 -12 117 11T79 73T70 153Q70 206 87 236T139 279T223 295T335 300V375Q335 431 311 447T246 464Q210 464 173 458T107 442L91 492Q122 507 164
518T256 530Q328 530 362 511T406 458T417 375V0H372ZM335 140V243Q288 243 246 240T178 221T152 165V142Q152 114 156 94T179 64T240 53Q299 53 317 78T335 140ZM249 761Q275 761 294 756T325 733T336 677Q336 639 325 621T295 598T249 593Q223 593 204 598T173
621T162 677Q162 715 173 733T203 756T249 761ZM249 712Q236 712 226 707T216 677Q216 652 226 647T249 642Q263 642 272 647T282 677Q282 701 273 706T249 712Z" />
<glyph unicode="&#xe6;" glyph-name="ae" horiz-adv-x="737" d="M513 531Q589 531 625 512T671 458T682 381Q682 326 665 296T613 252T529 235T417 231V137Q417 85 442 70T506 54Q542 54 581 60T655 82L671 32Q633 10 594 -1T505 -12Q445 -12 412 5T362 53Q340
22 313 8T259 -9T212 -12Q150 -12 120 10T80 68T70 147Q70 198 87 226T139 268T223 285T335 288V376Q335 432 311 448T246 465Q210 465 173 459T107 443L91 493Q122 508 164 519T256 531Q306 531 336 521T384 494Q404 512 435 521T513 531ZM417 385V288Q467 288
508 291T575 308T600 356V376Q600 404 596 424T573 454T512 465Q456 465 437 443T417 385ZM335 140V231Q288 231 246 228T178 211T152 162V142Q152 114 156 94T179 64T240 53Q299 53 317 78T335 140Z" />
<glyph unicode="&#xe7;" glyph-name="ccedilla" horiz-adv-x="405" d="M254 531Q274 531 307 526T371 507L355 454Q337 459 315 462T256 465Q207 465 187 453T162 421T158 374V146Q158 92 185 72T254 52Q278 52 305 56T361 68L373 14Q347 2 317 -5T246 -12Q183
-12 148 7T97 61T79 147T75 260Q75 323 78 373T98 458T151 512T254 531ZM246 0L239 -56H251Q298 -56 311 -74T324 -118Q324 -137 318 -154T293 -183T233 -194Q208 -194 189 -188T162 -177L172 -142Q188 -146 196 -148T223 -150Q250 -150 254 -141T259 -122Q259
-114 256 -104T230 -94H210L195 -70L205 0H246Z" />
<glyph unicode="&#xe8;" glyph-name="egrave" horiz-adv-x="478" d="M254 531Q330 531 366 511T412 455T423 375Q423 318 406 286T354 240T270 223T158 218V143Q158 87 182 71T247 54Q283 54 322 60T396 82L412 32Q374 10 335 -1T246 -12Q183 -12 148 7T97 61T79
147T75 260Q75 323 78 373T98 458T151 512T254 531ZM158 378V275Q206 275 247 278T315 298T341 353V376Q341 404 337 424T314 454T253 465Q194 465 176 441T158 378ZM341 586L153 689L199 756L364 620L341 586Z" />
<glyph unicode="&#xe9;" glyph-name="eacute" horiz-adv-x="478" d="M254 531Q330 531 366 511T412 455T423 375Q423 318 406 286T354 240T270 223T158 218V143Q158 87 182 71T247 54Q283 54 322 60T396 82L412 32Q374 10 335 -1T246 -12Q183 -12 148 7T97 61T79
147T75 260Q75 323 78 373T98 458T151 512T254 531ZM158 378V275Q206 275 247 278T315 298T341 353V376Q341 404 337 424T314 454T253 465Q194 465 176 441T158 378ZM153 620L318 756L364 689L176 586L153 620Z" />
<glyph unicode="&#xea;" glyph-name="ecircumflex" horiz-adv-x="478" d="M254 531Q330 531 366 511T412 455T423 375Q423 318 406 286T354 240T270 223T158 218V143Q158 87 182 71T247 54Q283 54 322 60T396 82L412 32Q374 10 335 -1T246 -12Q183 -12 148 7T97
61T79 147T75 260Q75 323 78 373T98 458T151 512T254 531ZM158 378V275Q206 275 247 278T315 298T341 353V376Q341 404 337 424T314 454T253 465Q194 465 176 441T158 378ZM361 603L258 670L155 603L125 640L258 756L392 640L361 603Z" />
<glyph unicode="&#xeb;" glyph-name="edieresis" horiz-adv-x="478" d="M254 531Q330 531 366 511T412 455T423 375Q423 318 406 286T354 240T270 223T158 218V143Q158 87 182 71T247 54Q283 54 322 60T396 82L412 32Q374 10 335 -1T246 -12Q183 -12 148 7T97
61T79 147T75 260Q75 323 78 373T98 458T151 512T254 531ZM158 378V275Q206 275 247 278T315 298T341 353V376Q341 404 337 424T314 454T253 465Q194 465 176 441T158 378ZM169 717Q193 717 207 711T221 667Q221 629 207 623T169 616Q145 616 131 622T117 667Q117
705 131 711T169 717ZM349 717Q373 717 387 711T401 667Q401 629 387 623T349 616Q325 616 311 622T297 667Q297 705 311 711T349 717Z" />
<glyph unicode="&#xec;" glyph-name="igrave" horiz-adv-x="262" d="M172 520V0H90V520H172ZM469 586L281 689L327 756L492 620L469 586Z" />
<glyph unicode="&#xed;" glyph-name="iacute" horiz-adv-x="262" d="M172 520V0H90V520H172ZM281 620L446 756L492 689L304 586L281 620Z" />
<glyph unicode="&#xee;" glyph-name="icircumflex" horiz-adv-x="262" d="M172 520V0H90V520H172ZM489 603L386 670L283 603L253 640L386 756L520 640L489 603Z" />
<glyph unicode="&#xef;" glyph-name="idieresis" horiz-adv-x="262" d="M172 520V0H90V520H172ZM297 717Q321 717 335 711T349 667Q349 629 335 623T297 616Q273 616 259 622T245 667Q245 705 259 711T297 717ZM477 717Q501 717 515 711T529 667Q529 629 515 623T477
616Q453 616 439 622T425 667Q425 705 439 711T477 717Z" />
<glyph unicode="&#xf0;" glyph-name="eth" horiz-adv-x="513" d="M220 593L306 637Q271 678 207 702L234 761Q272 746 308 725T373 671L469 720L499 662L408 615Q422 584 430 544T438 452V240Q438 182 435 136T415 56T362 6T256 -12Q188 -12 151 5T98 56T79 135T75
240Q75 298 78 344T98 423T151 473T256 491Q288 491 313 487T357 475Q356 505 352 532T340 581L250 535L220 593ZM353 145V334Q353 360 349 381T325 414T256 426Q207 426 187 414T162 381T158 334V145Q158 119 162 98T186 65T256 53Q305 53 325 65T349 98T353 145Z"
/>
<glyph unicode="&#xf1;" glyph-name="ntilde" horiz-adv-x="517" d="M437 0H355V377Q355 405 351 425T328 455T267 466Q208 466 190 442T172 379V0H90V520H135L148 471Q169 501 196 513T251 528T302 531Q362 531 390 508T428 447T437 366V0ZM368 715L390 677Q359
646 342 638T306 630Q289 630 273 637T241 650T205 657Q190 657 177 652T149 637L127 675Q158 707 175 714T211 722Q229 722 244 716T276 702T312 695Q327 695 340 700T368 715Z" />
<glyph unicode="&#xf2;" glyph-name="ograve" horiz-adv-x="513" d="M256 -12Q188 -12 151 7T98 61T79 147T75 260Q75 323 78 373T98 458T151 512T256 531Q324 531 361 512T415 458T434 373T438 260Q438 197 435 147T415 62T362 7T256 -12ZM353 145V374Q353 400
349 421T325 454T256 466Q207 466 187 454T162 421T158 374V145Q158 119 162 98T186 65T256 53Q305 53 325 65T349 98T353 145ZM339 586L151 689L197 756L362 620L339 586Z" />
<glyph unicode="&#xf3;" glyph-name="oacute" horiz-adv-x="513" d="M256 -12Q188 -12 151 7T98 61T79 147T75 260Q75 323 78 373T98 458T151 512T256 531Q324 531 361 512T415 458T434 373T438 260Q438 197 435 147T415 62T362 7T256 -12ZM353 145V374Q353 400
349 421T325 454T256 466Q207 466 187 454T162 421T158 374V145Q158 119 162 98T186 65T256 53Q305 53 325 65T349 98T353 145ZM151 620L316 756L362 689L174 586L151 620Z" />
<glyph unicode="&#xf4;" glyph-name="ocircumflex" horiz-adv-x="513" d="M256 -12Q188 -12 151 7T98 61T79 147T75 260Q75 323 78 373T98 458T151 512T256 531Q324 531 361 512T415 458T434 373T438 260Q438 197 435 147T415 62T362 7T256 -12ZM353 145V374Q353
400 349 421T325 454T256 466Q207 466 187 454T162 421T158 374V145Q158 119 162 98T186 65T256 53Q305 53 325 65T349 98T353 145ZM359 603L256 670L153 603L123 640L256 756L390 640L359 603Z" />
<glyph unicode="&#xf5;" glyph-name="otilde" horiz-adv-x="513" d="M256 -12Q188 -12 151 7T98 61T79 147T75 260Q75 323 78 373T98 458T151 512T256 531Q324 531 361 512T415 458T434 373T438 260Q438 197 435 147T415 62T362 7T256 -12ZM353 145V374Q353 400
349 421T325 454T256 466Q207 466 187 454T162 421T158 374V145Q158 119 162 98T186 65T256 53Q305 53 325 65T349 98T353 145ZM366 715L388 677Q357 646 340 638T304 630Q287 630 271 637T239 650T203 657Q188 657 175 652T147 637L125 675Q156 707 173 714T209
722Q227 722 242 716T274 702T310 695Q325 695 338 700T366 715Z" />
<glyph unicode="&#xf6;" glyph-name="odieresis" horiz-adv-x="513" d="M256 -12Q188 -12 151 7T98 61T79 147T75 260Q75 323 78 373T98 458T151 512T256 531Q324 531 361 512T415 458T434 373T438 260Q438 197 435 147T415 62T362 7T256 -12ZM353 145V374Q353
400 349 421T325 454T256 466Q207 466 187 454T162 421T158 374V145Q158 119 162 98T186 65T256 53Q305 53 325 65T349 98T353 145ZM167 717Q191 717 205 711T219 667Q219 629 205 623T167 616Q143 616 129 622T115 667Q115 705 129 711T167 717ZM347 717Q371 717
385 711T399 667Q399 629 385 623T347 616Q323 616 309 622T295 667Q295 705 309 711T347 717Z" />
<glyph unicode="&#xf7;" glyph-name="divide" horiz-adv-x="500" d="M251 553Q269 553 281 551T301 537T308 498Q308 470 301 459T282 445T251 442Q234 442 221 444T201 458T194 498Q194 526 201 537T221 550T251 553ZM60 352H440V282H60V352ZM251 192Q269 192
281 190T301 176T308 137Q308 109 301 98T282 84T251 81Q234 81 221 83T201 97T194 137Q194 165 201 176T221 189T251 192Z" />
<glyph unicode="&#xf8;" glyph-name="oslash" horiz-adv-x="513" d="M146 -78L167 1Q121 17 102 52T79 140T75 260Q75 323 78 373T98 458T151 512T256 531Q282 531 304 528L321 592H366L347 518Q392 502 411 467T434 379T438 260Q438 197 435 147T415 62T362 7T256
-12Q230 -12 209 -9L191 -78H146ZM158 145Q158 120 161 100T184 67L288 464Q274 466 256 466Q207 466 187 454T162 421T158 374V145ZM353 145V374Q353 398 350 418T329 451L226 55Q239 53 256 53Q305 53 325 65T349 98T353 145Z" />
<glyph unicode="&#xf9;" glyph-name="ugrave" horiz-adv-x="517" d="M80 520H162V142Q162 114 166 94T189 64T250 53Q309 53 327 78T345 140V520H427V0H382L369 49Q348 20 321 7T266 -9T215 -12Q156 -12 127 11T89 73T80 153V520ZM341 586L153 689L199 756L364
620L341 586Z" />
<glyph unicode="&#xfa;" glyph-name="uacute" horiz-adv-x="517" d="M80 520H162V142Q162 114 166 94T189 64T250 53Q309 53 327 78T345 140V520H427V0H382L369 49Q348 20 321 7T266 -9T215 -12Q156 -12 127 11T89 73T80 153V520ZM153 620L318 756L364 689L176
586L153 620Z" />
<glyph unicode="&#xfb;" glyph-name="ucircumflex" horiz-adv-x="517" d="M80 520H162V142Q162 114 166 94T189 64T250 53Q309 53 327 78T345 140V520H427V0H382L369 49Q348 20 321 7T266 -9T215 -12Q156 -12 127 11T89 73T80 153V520ZM361 603L258 670L155 603L125
640L258 756L392 640L361 603Z" />
<glyph unicode="&#xfc;" glyph-name="udieresis" horiz-adv-x="517" d="M80 520H162V142Q162 114 166 94T189 64T250 53Q309 53 327 78T345 140V520H427V0H382L369 49Q348 20 321 7T266 -9T215 -12Q156 -12 127 11T89 73T80 153V520ZM169 717Q193 717 207 711T221
667Q221 629 207 623T169 616Q145 616 131 622T117 667Q117 705 131 711T169 717ZM349 717Q373 717 387 711T401 667Q401 629 387 623T349 616Q325 616 311 622T297 667Q297 705 311 711T349 717Z" />
<glyph unicode="&#xfd;" glyph-name="yacute" horiz-adv-x="454" d="M39 -180L57 -122Q84 -128 112 -128Q144 -128 169 -113T206 -48L217 0H161L40 520H121L224 54H230L333 520H414L282 -45Q272 -88 254 -121T202 -174T108 -194Q70 -194 39 -180ZM377 620L542
756L588 689L400 586L377 620Z" />
<glyph unicode="&#xfe;" glyph-name="thorn" horiz-adv-x="514" d="M167 720V481Q198 510 235 515T302 520Q362 520 391 496T429 419T439 284Q439 209 436 154T417 61T366 6T267 -12Q249 -12 224 -10T166 -1V-181H91Q91 -139 91 -106T90 -39T90 35T90 132T90 268T90
458T90 720H167ZM172 369V64Q195 60 218 57T265 53Q305 53 324 61T349 90T355 147V367Q355 395 351 415T328 445T267 456Q208 456 190 432T172 369Z" />
<glyph unicode="&#xff;" glyph-name="ydieresis" horiz-adv-x="454" d="M39 -180L57 -122Q84 -128 112 -128Q144 -128 169 -113T206 -48L217 0H161L40 520H121L224 54H230L333 520H414L282 -45Q272 -88 254 -121T202 -174T108 -194Q70 -194 39 -180ZM137 717Q161
717 175 711T189 667Q189 629 175 623T137 616Q113 616 99 622T85 667Q85 705 99 711T137 717ZM317 717Q341 717 355 711T369 667Q369 629 355 623T317 616Q293 616 279 622T265 667Q265 705 279 711T317 717Z" />
<glyph unicode="&#x2013;" glyph-name="endash" horiz-adv-x="592" d="M0 332H592V267H0V332Z" />
<glyph unicode="&#x2014;" glyph-name="emdash" horiz-adv-x="726" d="M0 332H726V267H0V332Z" />
<glyph unicode="&#x2018;" glyph-name="quoteleft" horiz-adv-x="185" d="M87 520Q70 520 57 522T37 536T30 575Q30 586 31 594T34 608Q39 624 46 639T63 670L117 755L162 731L121 628Q132 624 138 613T144 575Q144 548 137 537T118 523T87 520Z" />
<glyph unicode="&#x2019;" glyph-name="quoteright" horiz-adv-x="185" d="M98 734Q116 734 128 732T148 718T155 679Q155 669 154 661T151 646Q147 630 140 615T122 584L68 499L23 523L64 626Q53 630 47 641T41 679Q41 707 48 718T68 731T98 734Z" />
<glyph unicode="&#x201a;" glyph-name="quotesinglbase" horiz-adv-x="240" d="M121 99Q139 99 151 97T171 83T178 44Q178 34 177 26T174 11Q170 -5 163 -20T145 -51L91 -136L46 -112L87 -9Q76 -5 70 6T64 44Q64 72 71 83T91 96T121 99Z" />
<glyph unicode="&#x201c;" glyph-name="quotedblleft" horiz-adv-x="355" d="M87 520Q70 520 57 522T37 536T30 575Q30 586 31 594T34 608Q39 624 46 639T63 670L117 755L162 731L121 628Q132 624 138 613T144 575Q144 548 137 537T118 523T87 520ZM257 520Q240
520 227 522T207 536T200 575Q200 586 201 594T204 608Q209 624 216 639T233 670L287 755L332 731L291 628Q302 624 308 613T314 575Q314 548 307 537T288 523T257 520Z" />
<glyph unicode="&#x201d;" glyph-name="quotedblright" horiz-adv-x="355" d="M98 734Q116 734 128 732T148 718T155 679Q155 669 154 661T151 646Q147 630 140 615T122 584L68 499L23 523L64 626Q53 630 47 641T41 679Q41 707 48 718T68 731T98 734ZM268 734Q286
734 298 732T318 718T325 679Q325 669 324 661T321 646Q317 630 310 615T292 584L238 499L193 523L234 626Q223 630 217 641T211 679Q211 707 218 718T237 731T268 734Z" />
<glyph unicode="&#x201e;" glyph-name="quotedblbase" horiz-adv-x="355" d="M98 99Q116 99 128 97T148 83T155 44Q155 34 154 26T151 11Q147 -5 140 -20T122 -51L68 -136L23 -112L64 -9Q53 -5 47 6T41 44Q41 72 48 83T68 96T98 99ZM268 99Q286 99 298 97T318
83T325 44Q325 34 324 26T321 11Q317 -5 310 -20T292 -51L238 -136L193 -112L234 -9Q223 -5 217 6T211 44Q211 72 218 83T237 96T268 99Z" />
<glyph unicode="&#x2022;" glyph-name="bullet" horiz-adv-x="274" d="M137 376Q161 376 178 373T205 355T214 301Q214 264 205 248T179 229T137 226Q114 226 97 229T70 248T60 301Q60 339 69 354T96 373T137 376Z" />
<glyph unicode="&#x2039;" glyph-name="guilsinglleft" horiz-adv-x="240" d="M115 308L190 96L119 84L30 308L119 532L190 520L115 308Z" />
<glyph unicode="&#x203a;" glyph-name="guilsinglright" horiz-adv-x="240" d="M50 520L121 532L210 308L121 84L50 96L125 308L50 520Z" />
</font>
</defs>
</svg>
