<?xml version="1.0" standalone="no"?>
<!DOCTYPE svg PUBLIC "-//W3C//DTD SVG 1.1//EN" "http://www.w3.org/Graphics/SVG/1.1/DTD/svg11.dtd">
<svg xmlns="http://www.w3.org/2000/svg">
<defs >
<font id="Piazzolla" horiz-adv-x="506" ><font-face
    font-family="Piazzolla Thin"
    units-per-em="1000"
    panose-1="0 0 0 0 0 0 0 0 0 0"
    ascent="1110"
    descent="-310"
    alphabetic="0" />
<glyph unicode=" " horiz-adv-x="178" />
<glyph unicode="!" horiz-adv-x="285" d="M188 661L187 547L163 200H118L108 547L111 661Q121 663 130 664T149 665Q160 665 169 664T188 661ZM150 107Q164 96 175 78T191 38Q177 24 158 13T120 -2Q105 13 95 31T81 69Q94 83 112 94T150 107Z" />
<glyph unicode="&quot;" horiz-adv-x="399" d="M110 475L92 673Q102 675 112 675T132 676Q142 676 152 676T173 673L154 475H110ZM230 475L212 673Q222 675 232 675T252 676Q262 676 272 676T293 673L274 475H230Z" />
<glyph unicode="#" horiz-adv-x="622" d="M333 2L440 606H484L377 2H333ZM30 185L38 228H557L550 185H30ZM138 2L244 606H289L182 2H138ZM64 378L73 423H592L584 378H64Z" />
<glyph unicode="$" horiz-adv-x="591" d="M308 -142H261L295 736H341L308 -142ZM263 -9Q219 -9 172 -2T74 19L105 73Q169 57 239 53T385 56Q413 72 429 94T446 141Q446 171 420 194T353 237T267 278T180 324T114 383T88 461Q88 510 118 545T204 600T335 619Q374
619 415 614T499 597L478 541Q406 555 339 557T211 551Q189 539 177 519T164 474Q164 441 189 416T256 370T343 329T429 284T496 229T522 153Q522 103 490 67T399 11T263 -9ZM152 18L74 19L79 198H108L152 18ZM464 423L422 597H499L493 423H464Z" />
<glyph unicode="%" horiz-adv-x="856" d="M221 242Q152 242 111 290T70 419Q70 474 89 516T144 582T227 606Q273 606 307 584T361 522T380 429Q380 373 360 331T305 266T221 242ZM224 281Q266 281 291 320T317 426Q317 490 292 527T222 564Q186 564 162 543Q147
514 140 483T133 420Q133 356 158 319T224 281ZM191 -49L153 -20L671 652L709 623L191 -49ZM651 -5Q582 -5 541 43T500 172Q500 227 519 269T574 335T657 359Q703 359 737 337T791 275T810 182Q810 126 790 84T735 19T651 -5ZM654 34Q696 34 721 73T747 179Q747
243 722 280T652 317Q616 317 592 296Q577 267 570 236T563 173Q563 109 588 72T654 34Z" />
<glyph unicode="&amp;" horiz-adv-x="764" d="M581 0L220 368Q176 414 159 445T142 514Q142 582 192 620T332 664T544 641L529 580Q445 599 367 602T219 590L238 614Q216 573 211 542T220 481T269 416L647 31V0H581ZM314 -11Q246 -11 194 11T112 73T82 165Q82
228 122 279T239 365L266 347Q207 307 179 267T151 181Q151 138 176 108T242 61T331 43T426 58T510 109Q529 167 527 233T499 367L550 365Q578 282 574 213T537 94T449 16T314 -11ZM583 0V61L708 31V0H583ZM530 338L440 368V400H666V372Q625 361 589 353T530 338ZM508
463L461 641H544L541 463H508Z" />
<glyph unicode="&apos;" horiz-adv-x="242" d="M99 475L81 673Q91 675 101 675T121 676Q131 676 141 676T162 673L143 475H99Z" />
<glyph unicode="(" horiz-adv-x="328" d="M298 -204Q187 -121 126 2T65 271Q65 416 126 539T298 745L319 722Q229 635 182 520T135 271Q135 136 182 21T319 -181L298 -204Z" />
<glyph unicode=")" horiz-adv-x="328" d="M30 746Q141 664 202 541T263 272Q263 125 202 2T30 -203L8 -180Q98 -93 145 21T193 272Q193 406 146 521T8 722L30 746Z" />
<glyph unicode="*" horiz-adv-x="390" d="M192 548L104 591L75 623Q85 639 99 653L137 632L201 557L192 548ZM93 459Q87 466 82 473T71 490L101 520L193 558L201 547L132 478L93 459ZM217 414L199 453L190 550L203 555L248 467L253 424Q244 422 235 419T217 414ZM292
523L197 545V559L294 575L336 566Q338 548 335 528L292 523ZM203 550L191 555L205 652L226 690Q234 688 243 684T261 676L253 634L203 550Z" />
<glyph unicode="+" horiz-adv-x="533" d="M238 64V504H296V64H238ZM47 255V312H487V255H47Z" />
<glyph unicode="," horiz-adv-x="277" d="M96 -97L120 46L202 42Q188 6 169 -30T124 -102L96 -97ZM129 1L93 70Q110 85 128 94T166 108Q179 95 187 79T202 42L129 1Z" />
<glyph unicode="-" horiz-adv-x="313" d="M42 293L265 321L273 263L48 236L42 293Z" />
<glyph unicode="." horiz-adv-x="276" d="M124 -2Q109 11 98 29T83 68Q96 82 115 93T154 107Q169 94 179 75T193 37Q180 22 162 12T124 -2Z" />
<glyph unicode="/" horiz-adv-x="343" d="M38 -201L-6 -186L305 743L350 730L38 -201Z" />
<glyph unicode="0" horiz-adv-x="624" d="M305 -8Q235 -8 182 30T100 135T70 294Q70 388 101 459T187 571T315 612Q387 612 440 574T524 468T554 309Q554 216 523 145T436 33T305 -8ZM311 47Q358 47 394 79T451 169T471 305Q471 381 452 436T396 522T308 553Q280
553 252 543T204 513Q179 462 166 407T152 295Q152 221 172 165T227 78T311 47Z" />
<glyph unicode="1" horiz-adv-x="402" d="M36 0V27Q71 36 105 41T172 50L180 548H43V574L208 613H258V50L388 31V0H36Z" />
<glyph unicode="2" horiz-adv-x="596" d="M80 0V67Q81 110 105 147T167 217T248 281T329 343T391 407T415 477Q415 505 404 525T367 563L419 533Q348 549 280 549Q237 549 195 544T111 529L98 590Q150 602 196 608T283 614Q382 614 438 580T494 478Q494 433 470
395T408 323T328 259T247 198T184 135T159 66L158 0H80ZM114 0V54L492 63L493 0H114ZM436 0L484 200H515L517 0H436ZM101 387L98 590L176 591L131 387H101Z" />
<glyph unicode="3" horiz-adv-x="582" d="M90 19L107 73Q152 62 190 57T261 51Q336 51 379 81T423 168Q423 222 385 253T280 285H207V343H260Q304 343 338 357T391 398T410 461Q410 486 401 507T374 545Q336 556 283 556Q247 556 206 551T119 535L102 588Q152
602 198 609T284 616Q349 616 395 599T467 550T492 474Q492 420 457 379T358 319Q430 305 468 265T506 164Q506 109 476 71T393 12T268 -9Q228 -9 183 -2T90 19ZM95 200H126L172 19H90L95 200ZM107 410L102 588L184 589L137 410H107Z" />
<glyph unicode="4" horiz-adv-x="557" d="M205 0V25Q233 34 259 39T312 48L321 555L336 547L75 194L64 220H518V169H35L24 208L318 603H392V47L490 28V0H205Z" />
<glyph unicode="5" horiz-adv-x="599" d="M277 -9Q237 -9 193 -2T102 18L115 75Q162 63 203 57T282 51Q350 51 412 72Q427 96 434 120T442 167Q442 220 407 254T309 288H118L148 348H316Q412 348 465 304T519 179Q519 91 455 41T277 -9ZM185 18H102L107 194H136L185
18ZM118 288V603H179L177 318L118 288ZM472 542L148 546L118 603H472V542ZM460 418L412 603H493L490 418H460Z" />
<glyph unicode="6" horiz-adv-x="591" d="M297 -8Q183 -8 130 61T77 279Q77 449 146 532T355 616Q385 616 418 612T488 600L470 535Q404 558 330 558Q292 558 254 550T180 526L214 545Q185 497 170 427T154 277Q154 159 189 105T301 51Q362 51 396 84T431 179Q431
235 399 262T301 290H110V347H311Q406 347 457 304T508 180Q508 93 451 43T297 -8ZM455 425L410 600H488L484 425H455Z" />
<glyph unicode="7" horiz-adv-x="511" d="M52 388L48 603H126L83 388H52ZM69 537V603H445V542L69 537ZM482 580L224 0H154L424 603H482V580Z" />
<glyph unicode="8" horiz-adv-x="584" d="M288 -10Q225 -10 176 10T100 67T72 150Q72 208 115 254T238 327L254 304Q195 274 168 240T140 161Q140 107 184 76T301 45Q339 45 383 54Q411 69 427 92T444 139Q444 171 419 194T353 237T267 277T181 321T114 379T88
457Q88 503 115 539T190 596T299 617Q355 617 399 599T469 547T495 471Q495 414 453 365T336 287L319 311Q375 346 401 381T427 459Q427 509 391 535T291 562Q274 562 255 560T215 554Q190 540 176 518T161 471Q161 438 186 414T252 369T338 328T423 283T489 228T515
153Q515 107 486 70T405 12T288 -10Z" />
<glyph unicode="9" horiz-adv-x="590" d="M292 616Q406 616 459 547T513 328Q513 159 444 76T234 -8Q205 -8 172 -4T102 7L120 72Q186 51 261 51Q338 51 410 81L376 63Q404 110 420 180T436 330Q436 450 401 503T289 557Q228 557 194 523T159 429Q159 373 191
346T288 318H480V261H279Q183 261 133 304T82 428Q82 515 138 565T292 616ZM134 183L179 7H102L105 183H134Z" />
<glyph unicode=":" horiz-adv-x="282" d="M135 -2Q120 11 109 29T94 68Q107 82 126 93T165 107Q180 94 190 75T204 37Q191 22 173 12T135 -2ZM135 271Q120 284 109 302T94 341Q107 355 126 366T165 380Q180 367 190 348T204 310Q191 295 173 285T135 271Z" />
<glyph unicode=";" horiz-adv-x="283" d="M108 -97L132 46L214 42Q200 6 181 -30T136 -102L108 -97ZM141 1L105 70Q122 85 140 94T178 108Q191 95 199 79T214 42L141 1ZM136 270Q121 283 110 301T95 340Q108 354 127 365T166 379Q181 366 191 347T205 309Q192
294 174 284T136 270Z" />
<glyph unicode="&lt;" horiz-adv-x="475" d="M406 131L380 81L42 270V298L380 487L406 437L121 284L406 131Z" />
<glyph unicode="=" horiz-adv-x="650" d="M125 335V393H525V335H125ZM125 175V233H525V175H125Z" />
<glyph unicode="&gt;" horiz-adv-x="478" d="M72 437L98 487L437 298V270L98 80L72 131L357 284L72 437Z" />
<glyph unicode="?" horiz-adv-x="440" d="M217 664Q313 664 368 626T423 518Q423 476 405 446T361 394T306 352T257 310T232 257L223 200H174V263Q173 297 190 322T233 367T284 408T328 453T346 512Q346 555 310 578T207 602Q147 602 67 581L50 638Q92 651 134
657T217 664ZM129 638L79 455H50V638H129ZM210 107Q224 96 235 78T251 38Q237 24 218 13T180 -2Q164 13 154 31T141 69Q154 83 172 94T210 107Z" />
<glyph unicode="@" horiz-adv-x="985" d="M829 -140Q712 -189 603 -199T399 -186T233 -107T121 30T81 216Q81 312 115 393T212 534T356 627T535 660Q618 660 686 635T805 566T884 460T912 328Q912 264 889 208T824 110T729 45T614 21Q578 21 560 31T533 66L580
238L573 242L626 467H689L594 43L572 62Q635 52 690 67T788 119T855 207T879 323Q879 410 836 478T716 587T536 627Q447 627 370 597T236 511T146 382T113 218Q113 122 151 46T255 -81T410 -154T603 -167T817 -111L829 -140ZM416 21Q352 14 317 56T281 184Q281
244 298 297T345 389T414 451T499 474Q540 474 572 455T618 402L614 373Q585 401 547 415T458 431L493 435Q451 421 418 382T367 292T347 186T367 85L342 107Q386 80 432 73L408 64Q445 89 478 127T541 220T603 349L620 340Q572 218 522 140T416 21Z" />
<glyph unicode="A" horiz-adv-x="726" d="M635 46Q654 42 671 38T706 28V0H440V28L543 47L343 625H364L156 50Q187 45 216 40T276 28V0H21V28L89 50L317 655H412L635 46ZM191 217V270H527V217H191Z" />
<glyph unicode="B" horiz-adv-x="706" d="M459 341Q541 327 586 284T632 179Q632 96 568 48T390 0H48V27Q64 35 90 40T155 50L165 604L48 626V655H400Q493 655 547 614T602 505Q602 448 563 405T459 341ZM244 21L209 56H436Q489 68 518 100T547 179Q547 237 503
272T384 307H234V363H402Q517 404 517 490Q517 541 481 570T382 599H209L244 634V21Z" />
<glyph unicode="C" horiz-adv-x="687" d="M394 -8Q240 -8 157 78T74 325Q74 432 114 508T230 625T410 666Q448 666 492 660T582 643L564 575Q522 588 480 595T396 602Q347 602 299 592T205 560L238 584Q199 527 180 462T160 322Q160 192 223 123T403 53Q437 53
476 60T560 82L582 18Q477 -8 394 -8ZM494 17L551 214H582V18L494 17ZM551 447L495 643H582V447H551Z" />
<glyph unicode="D" horiz-adv-x="762" d="M402 655Q490 655 554 616T654 506T690 337Q690 236 653 161T548 43T392 0H48V27Q71 35 98 41T156 50L165 604L48 626V655H402ZM449 56Q525 90 564 158T603 327Q603 398 588 449T543 533T476 582T392 599H209L244 633V22L209
56H449Z" />
<glyph unicode="E" horiz-adv-x="711" d="M579 218H608V0H48V27Q76 36 102 41T155 50L165 604L48 626V655H598V458H569L534 599H209L244 634V365H431L462 451H488V223H462L431 310H244V21L209 56H542L579 218Z" />
<glyph unicode="F" horiz-adv-x="631" d="M574 655V456H544L509 599H209L244 634V348H414L444 433H471V206H444L413 292H244V50L380 30V0H48V27Q76 36 102 41T155 50L165 604L48 626V655H574Z" />
<glyph unicode="G" horiz-adv-x="739" d="M408 -8Q247 -8 160 78T72 325Q72 432 114 508T236 625T427 666Q465 666 510 660T602 643L579 575Q536 588 492 594T402 601Q349 601 296 590T191 558L244 584Q202 527 181 462T159 322Q159 191 226 121T416 51Q453 51
494 58T581 79L602 18Q548 5 500 -1T408 -8ZM517 18L521 277L383 298V328H689V302Q670 295 648 289T602 279V18H517ZM571 448L515 643H602V448H571Z" />
<glyph unicode="H" horiz-adv-x="821" d="M471 0V25Q499 34 525 40T576 50L586 604L471 626V655H771V629Q748 622 721 616T664 606V50L771 30V0H471ZM46 0V27Q74 36 100 41T153 50L163 604L46 626V655H347V629Q323 622 296 616T242 606V50L347 30V0H46ZM201 306V363H624V306H201Z"
/>
<glyph unicode="I" horiz-adv-x="402" d="M48 0V27Q76 36 102 41T155 50L165 604L48 626V655H351V629Q327 622 300 616T244 606V50L351 30V0H48Z" />
<glyph unicode="J" horiz-adv-x="522" d="M57 0L66 71Q95 62 120 57T167 52Q207 52 234 60T279 88T312 137L303 90L308 604L161 626V655H489V629Q468 622 444 616T388 606V216Q388 -9 157 -9Q134 -9 109 -7T57 0ZM57 0V222H85L137 0H57Z" />
<glyph unicode="K" horiz-adv-x="773" d="M48 0V27Q76 36 102 41T155 50L165 604L48 626V655H351V629Q327 622 300 616T244 606V50L351 30V0H48ZM440 0V25Q483 41 527 50T616 63L738 30V0H440ZM575 593L438 625V655H719V631Q684 615 648 606T575 593ZM351 323L354
377L666 34V10H569L278 334L572 645H640L641 626L351 323Z" />
<glyph unicode="L" horiz-adv-x="616" d="M531 264H559V0H48V27Q76 36 102 41T155 50L165 604L48 626V655H366V629Q339 622 308 616T244 606V56H493L531 264Z" />
<glyph unicode="M" horiz-adv-x="980" d="M825 50L937 30V0H629V27Q657 36 684 41T739 50V621L750 619L497 0H455L215 611L226 612L217 50L342 30V0H43V27Q71 36 98 41T152 50L172 604L51 626V655H279L495 101H474L702 655H927V629Q903 622 875 616T816 606L825 50Z" />
<glyph unicode="N" horiz-adv-x="811" d="M492 655H776V629Q749 621 723 615T670 606L669 0H583L201 577L220 583V50L343 30V0H49V27Q76 36 102 41T155 50L165 604L48 626V655H249L632 76L615 71L605 607L492 626V655Z" />
<glyph unicode="O" horiz-adv-x="744" d="M364 -9Q278 -9 212 32T110 146T73 319Q73 420 112 497T221 619T377 664Q464 664 530 623T634 508T671 337Q671 235 633 157T525 35T364 -9ZM372 48Q435 48 482 83T557 182T585 331Q585 414 559 475T485 569T370 603Q327
603 284 588T206 542L237 579Q159 458 159 321Q159 240 186 178T260 82T372 48Z" />
<glyph unicode="P" horiz-adv-x="652" d="M393 655Q459 655 505 633T576 569T601 468Q601 405 572 358T489 285T365 258H201V314H431Q476 344 496 379T517 461Q517 529 481 564T374 599H244V50L382 30V0H48V27Q65 36 91 41T155 50L165 604L48 626V655H393Z" />
<glyph unicode="Q" horiz-adv-x="749" d="M364 -8Q277 -8 212 33T110 147T73 319Q73 420 111 498T219 620T377 665Q464 665 530 624T634 508T671 337Q671 235 632 158T524 36T364 -8ZM689 -127L371 1L392 32Q441 24 486 13T588 -16L751 -68Q737 -85 722 -99T689
-127ZM371 49Q434 49 482 84T557 183T584 332Q584 415 558 476T484 570T369 603Q334 603 297 593T226 558Q192 503 175 444T158 322Q158 240 185 179T260 83T371 49Z" />
<glyph unicode="R" horiz-adv-x="726" d="M601 51L698 30V0H522L489 182Q479 241 453 264T372 287H207V343H416Q472 369 498 402T524 479Q524 535 488 567T388 599H244V50L351 30V0H48V27Q64 35 91 40T156 50L165 604L48 626V655H403Q496 655 552 611T608 495Q608
433 568 385T462 318Q510 306 536 274T575 181L601 51Z" />
<glyph unicode="S" horiz-adv-x="639" d="M286 -10Q238 -10 188 -3T87 20L119 78Q165 65 214 59T316 52Q347 52 378 54T440 61L406 51Q426 61 442 76T469 111T479 150Q479 183 452 208T381 254T290 298T199 347T128 409T100 495Q100 547 132 585T223 643T362 664Q405
664 449 658T535 641L513 581Q468 592 422 597T330 603Q298 603 267 600T205 591L242 602Q215 587 198 563T181 510Q181 474 208 447T279 398T370 355T462 307T532 247T560 165Q560 112 526 73T430 12T286 -10ZM171 19L87 20L91 212H123L171 19ZM497 455L451 641H535L529
455H497Z" />
<glyph unicode="T" horiz-adv-x="712" d="M651 655V403H622L585 599H396V51L532 30V0H173V27Q208 36 241 42T308 51L318 599H127L90 403H61V655H651Z" />
<glyph unicode="U" horiz-adv-x="781" d="M390 -10Q268 -10 203 45T138 204L145 604L28 626V655H329V629Q309 621 284 616T223 606V200Q223 126 268 88T398 50Q461 50 502 69T575 131L581 604L468 626V655H751V629Q729 621 703 615T643 606L644 214Q644 108 577
49T390 -10Z" />
<glyph unicode="V" horiz-adv-x="725" d="M315 0L79 645H173L382 39H364L583 645H652L410 0H315ZM145 596Q114 600 83 608T20 629V655H286V628L145 596ZM617 596Q575 600 533 608T450 629V655H706V628L617 596Z" />
<glyph unicode="W" horiz-adv-x="1053" d="M672 0L472 645H551L736 39H719L909 645H978L764 0H672ZM284 0L75 645H167L350 39H333L509 601L550 543L376 0H284ZM142 596Q111 600 81 608T21 629V655H281V628L142 596ZM535 596Q501 600 469 608T404 629V655H661V628L535
596ZM943 596Q903 600 863 608T784 629V655H1032V628L943 596Z" />
<glyph unicode="X" horiz-adv-x="786" d="M109 10V33L358 373H435L676 34V10H587L369 325H396L171 10H109ZM356 326L143 624V645H234L422 375H398L588 645H652V626L435 326H356ZM443 0V25Q485 41 528 50T616 63L751 30V0H443ZM31 0V25Q65 41 99 50T170 63L316
30V0H31ZM373 655V631Q329 615 284 606T193 593L67 625V655H373ZM733 655V631Q698 615 662 606T589 593L452 625V655H733Z" />
<glyph unicode="Y" horiz-adv-x="703" d="M326 218L95 624V645H183L375 291H348L543 645H604L605 626L367 218H326ZM178 0V27Q210 36 240 41T301 50L305 285H389V50L513 30V0H178ZM144 593L19 625V655H325V631Q281 615 236 606T144 593ZM540 593L404 625V655H685V631Q650
615 614 606T540 593Z" />
<glyph unicode="Z" horiz-adv-x="678" d="M68 0V26L485 605L152 598L121 449H90L87 655H599V630L183 50L537 59L567 210H598L602 0H68Z" />
<glyph unicode="[" horiz-adv-x="380" d="M128 -195V735H351V707L151 682L193 734V-193L151 -142L351 -167V-195H128Z" />
<glyph unicode="\" horiz-adv-x="343" d="M305 -201L-6 730L38 744L349 -186L305 -201Z" />
<glyph unicode="]" horiz-adv-x="380" d="M237 736V-194H14V-165L214 -140L172 -192V735L214 683L14 709V736H237Z" />
<glyph unicode="^" horiz-adv-x="434" d="M64 229L14 255L202 594H231L420 255L370 229L217 514L64 229Z" />
<glyph unicode="_" horiz-adv-x="643" d="M102 -152H542V-210H102V-152Z" />
<glyph unicode="`" horiz-adv-x="297" d="M235 565Q184 590 134 618T36 678L67 731H78L250 590L235 565Z" />
<glyph unicode="a" horiz-adv-x="527" d="M428 -6Q396 -6 370 17T333 86L345 389Q278 442 181 442Q162 442 143 440T107 432L151 455L133 312Q99 318 82 335T65 377Q65 410 88 437T152 481T240 497Q293 497 338 476T418 416V69L517 74Q512 48 499 30T467 3T428
-6ZM204 -10Q135 -9 94 27T52 122Q52 150 65 171T111 210T205 246T361 288V240L122 194L148 207Q143 192 141 175T138 144Q138 102 157 80T218 58Q248 58 281 69T351 107V90Q320 59 285 34T204 -10Z" />
<glyph unicode="b" horiz-adv-x="547" d="M88 24L123 76Q163 62 195 55T254 48Q333 48 376 98T420 242Q420 292 408 335T368 416L416 371Q348 426 280 426Q222 426 162 379V402Q190 432 219 455T281 496Q285 496 289 496T295 497Q358 497 403 465T473 378T498
253Q498 171 468 113T382 23T251 -9Q215 -9 174 -1T88 24ZM88 24L99 635L49 706Q78 722 108 732T171 747V38L88 24Z" />
<glyph unicode="c" horiz-adv-x="462" d="M249 -8Q190 -8 145 23T75 111T49 240Q49 319 78 376T158 465T275 497Q308 497 340 490T404 469L390 407Q327 437 251 437Q223 437 195 430T142 406L177 435Q153 394 141 347T128 251Q128 190 148 147T204 80T286 56Q314
56 345 65T409 92L415 77Q343 -8 249 -8ZM372 326L330 469H404L401 326H372Z" />
<glyph unicode="d" horiz-adv-x="569" d="M250 -9Q190 -9 145 21T75 106T49 235Q49 358 116 427T298 497Q329 497 363 492T433 475L420 407Q343 440 276 440Q240 440 207 431T141 403L173 426Q150 389 139 341T127 242Q127 184 144 144T191 83T261 62Q289 62 319
73T382 108V86Q357 59 327 35T262 -8Q259 -8 256 -8T250 -9ZM470 -6Q448 -6 428 5T393 39T374 94L383 635L333 706Q361 722 390 732T455 747V64L553 70Q547 45 535 28T505 3T470 -6ZM411 759L410 760H411V759Z" />
<glyph unicode="e" horiz-adv-x="501" d="M255 -8Q193 -8 147 22T75 108T49 237Q49 312 76 371T152 463T268 496Q321 496 361 474T423 411T445 316L442 251Q385 241 333 236T223 227T95 222V269L371 273L373 317Q373 373 342 406T259 440Q237 440 213 433T166
413Q145 376 134 334T123 249Q123 156 168 106T290 56Q356 56 439 94L445 79Q403 36 355 14T255 -8Z" />
<glyph unicode="f" horiz-adv-x="344" d="M37 439V455Q56 467 76 475T121 486Q123 551 137 600T177 681T239 730T320 746Q327 746 336 746T354 744V671Q336 674 319 674T285 675Q268 675 250 674T215 670Q204 649 199 601T194 486H338L333 439H37ZM196 463V44L292
25V0H46V24Q59 30 75 36T114 46L122 463H196Z" />
<glyph unicode="g" horiz-adv-x="546" d="M248 -207Q148 -207 91 -168T32 -57Q55 -23 88 2T165 42H182Q142 10 127 -13T112 -57Q112 -99 152 -123T262 -148Q338 -148 385 -119T432 -42Q432 -25 425 -7T403 28H152Q127 45 114 68T101 112Q101 139 118 162T164 201L162
98H395Q427 98 454 82T496 37T512 -28Q512 -81 479 -121T386 -184T248 -207ZM258 169Q163 169 111 210T59 325Q59 379 84 417T158 476T273 497Q368 497 421 456T475 340Q475 288 449 249T374 190T258 169ZM262 221Q325 221 360 252T396 337Q396 387 361 414T266
442Q244 442 219 439T169 428Q154 400 147 374T139 326Q139 278 172 250T262 221ZM408 444Q398 462 392 481T386 513Q386 550 410 570T478 591Q492 591 507 589T541 579L534 525H432L417 444H408Z" />
<glyph unicode="h" horiz-adv-x="582" d="M30 0V24Q43 30 59 36T100 46L111 635L57 705Q86 721 116 732T182 747V44L257 25V0H30ZM332 0V24Q345 30 361 36T401 46L411 381L483 417V44L559 25V0H332ZM175 378L174 398Q202 431 234 455T301 495Q307 496 313 496T324
496Q371 496 410 477T483 417L411 381Q359 427 298 427Q237 427 175 378Z" />
<glyph unicode="i" horiz-adv-x="289" d="M43 0V24Q58 31 75 37T113 46L122 391L70 456Q99 473 129 483T195 498V44L270 25V0H43ZM169 711Q185 696 196 677T211 637Q198 621 178 610T138 595Q122 609 111 628T95 669Q109 685 128 696T169 711Z" />
<glyph unicode="j" horiz-adv-x="268" d="M22 -200L14 -184L101 -58L111 391L58 456Q86 473 117 483T183 498V7Q183 -64 141 -115T22 -200ZM157 711Q173 696 184 677T199 637Q186 621 166 610T126 595Q110 609 99 628T83 669Q97 685 116 696T157 711Z" />
<glyph unicode="k" horiz-adv-x="523" d="M30 0V24Q44 30 60 36T100 46L111 635L57 705Q86 721 116 732T182 747V44L257 25V0H30ZM417 -8L211 257L401 478H461V467L267 244L269 297L503 13Q483 6 462 1T417 -8ZM411 428Q382 432 357 441T309 462V488H502V462L411 428Z" />
<glyph unicode="l" horiz-adv-x="286" d="M30 0V24Q43 30 59 36T100 46L111 635L57 705Q86 721 116 732T182 747V44L257 25V0H30Z" />
<glyph unicode="m" horiz-adv-x="888" d="M34 0V24Q47 30 63 36T104 46L113 391L61 456Q116 489 178 498L186 399V44L261 25V0H34ZM336 0V24Q349 30 365 36T405 46L416 381L492 409L487 396V44L563 25V0H336ZM416 381Q362 427 302 427Q241 427 179 378L178 398Q206
431 238 455T305 495Q311 496 317 496T328 496Q377 496 417 475T492 409L416 381ZM638 0V24Q651 30 667 36T707 46L717 381L790 417V44L865 25V0H638ZM717 381Q665 427 604 427Q543 427 481 378L480 398Q509 431 540 455T607 495Q613 496 619 496T630 496Q677 496
716 477T790 417L717 381Z" />
<glyph unicode="n" horiz-adv-x="586" d="M34 0V24Q47 30 63 36T104 46L113 391L61 456Q116 489 178 498L186 399V44L261 25V0H34ZM336 0V24Q349 30 365 36T405 46L416 381L487 417V44L563 25V0H336ZM179 378L178 398Q206 431 238 455T305 495Q311 496 317 496T328
496Q375 496 414 477T487 417L416 381Q362 427 302 427Q241 427 179 378Z" />
<glyph unicode="o" horiz-adv-x="534" d="M260 -9Q196 -9 149 21T75 107T49 236Q49 314 77 372T155 464T271 497Q336 497 384 466T459 380T486 251Q486 173 458 115T379 24T260 -9ZM266 44Q308 44 339 68T388 137T406 246Q406 308 389 351T339 417T264 440Q237
440 206 430T136 400L179 433Q155 388 142 341T129 241Q129 180 146 136T194 68T266 44Z" />
<glyph unicode="p" horiz-adv-x="550" d="M255 -9Q222 -9 186 -3T109 17L127 76Q167 62 199 55T258 48Q337 48 381 98T425 242Q425 292 412 335T372 416L420 371Q353 426 285 426Q226 426 167 379L166 402Q194 432 223 455T285 496Q289 496 293 496T300 497Q362
497 407 465T477 378T502 253Q502 171 472 113T386 23T255 -9ZM23 -196V-172Q37 -166 52 -160T92 -149L101 391L49 456Q79 472 107 483T166 498L174 399V-151L269 -171V-196H23Z" />
<glyph unicode="q" horiz-adv-x="543" d="M250 -9Q190 -9 145 21T75 106T49 235Q49 358 116 427T299 497Q329 497 363 492T433 475L420 407Q343 440 276 440Q240 440 207 431T141 403L173 426Q150 389 139 341T127 242Q127 184 144 144T191 83T262 62Q289 62 320
73T383 108V86Q357 59 327 35T262 -8Q259 -8 257 -8T250 -9ZM281 -196V-172Q301 -164 322 -159T368 -149L379 469L451 498V-151L515 -171V-196H281Z" />
<glyph unicode="r" horiz-adv-x="389" d="M365 413Q267 419 179 370V387Q208 421 239 447T305 493Q323 492 339 487T369 473L365 413ZM34 0V24Q48 30 64 36T104 46L113 391L61 456Q116 489 178 498L186 386V47L296 25V0H34Z" />
<glyph unicode="s" horiz-adv-x="486" d="M218 -7Q184 -7 145 -2T64 16L95 79Q141 65 184 58T271 51Q287 51 303 52T335 56L301 40Q322 50 337 69T353 112Q353 135 333 152T281 184T214 216T146 251T94 299T74 365Q74 427 128 462T272 497Q303 497 337 493T409
479L387 413Q344 426 303 432T226 439Q210 439 195 438T162 434L188 446Q167 436 158 418T148 381Q148 356 168 338T220 304T287 273T355 238T407 191T427 127Q427 64 369 29T218 -7ZM64 16L68 167H103L145 17L64 16ZM373 338L328 480L409 479L407 338H373Z" />
<glyph unicode="t" horiz-adv-x="368" d="M177 569V486H347L342 439H177V62L346 64Q332 40 311 24T264 0T212 -9Q174 -9 142 8T94 58L106 439H33V456Q64 489 99 517T177 569Z" />
<glyph unicode="u" horiz-adv-x="584" d="M470 64L569 70Q563 45 550 28T520 3T485 -6Q463 -6 443 5T409 39T389 94L397 391L345 456Q405 490 470 498V64ZM270 -7Q264 -8 258 -8T247 -9Q199 -9 160 11T87 73L156 112Q212 62 276 62Q336 62 396 109L398 89Q369
57 338 33T270 -7ZM87 73L96 391L43 456Q105 490 168 498V87L87 73Z" />
<glyph unicode="v" horiz-adv-x="499" d="M209 -5L34 478H123L271 35H253L408 478H469L313 56Q307 38 301 27T285 9T258 -1T209 -5ZM93 428Q67 433 44 441T-2 462V488H201V462L93 428ZM441 428Q376 436 313 462V488H499V462L441 428Z" />
<glyph unicode="w" horiz-adv-x="775" d="M487 -5L314 478H398L546 35H526L682 478H746L588 56Q582 38 576 27T561 9T534 -1T487 -5ZM210 -5L35 478H123L272 35H252L374 385L405 310L312 56Q305 37 299 26T284 8T257 -1T210 -5ZM93 428Q67 433 44 441T-2 462V488H201V462L93
428ZM370 428Q346 433 322 441T277 462V488H476V462L370 428ZM717 428Q684 432 652 440T589 462V488H775V462L717 428Z" />
<glyph unicode="x" horiz-adv-x="536" d="M50 10V30L235 278H303L480 33V10H405L244 240H270L104 10H50ZM13 0V24Q52 48 100 57L186 24V0H13ZM319 0V24Q348 38 377 46T437 58L524 24V0H319ZM129 430Q100 435 76 443T29 464V488H231V464L129 430ZM233 242L77 457V478H154L291
280H266L406 478H462V459L302 242H233ZM434 431Q406 435 381 443T333 464V488H506V464L434 431Z" />
<glyph unicode="y" horiz-adv-x="499" d="M-27 -184L-22 -127L158 -138Q183 -105 201 -76T233 -13T265 66L407 478H469L312 49Q265 -81 209 -142T74 -203Q51 -203 26 -198T-27 -184ZM203 9L34 478H122L273 25L203 9ZM94 428Q68 432 44 441T-2 462V488H201V462L94
428ZM441 428Q408 432 376 440T313 462V488H499V462L441 428Z" />
<glyph unicode="z" horiz-adv-x="509" d="M44 0V22L346 439L119 437L92 326H65L62 488H450V465L148 48L398 50L425 167H451L455 0H44Z" />
<glyph unicode="{" horiz-adv-x="374" d="M25 259V296H46Q104 296 135 325T167 413V576Q167 627 179 660T226 713T326 740V701Q282 692 263 676T239 635T234 571L232 417Q230 350 194 311T88 265L25 259ZM326 -198Q261 -191 227 -172T180 -119T167 -33V128Q167
185 136 215T46 246H25V283L88 277Q156 271 193 232T232 123L234 -30Q235 -66 239 -92T262 -134T326 -159V-198Z" />
<glyph unicode="|" horiz-adv-x="345" d="M149 -196V736H196V-196H149Z" />
<glyph unicode="}" horiz-adv-x="374" d="M349 283V246H328Q270 246 239 217T207 128V-33Q207 -84 195 -118T148 -171T48 -198V-159Q92 -150 111 -134T135 -93T140 -30L142 125Q144 192 180 231T287 277L349 283ZM48 740Q114 733 148 714T194 661T207 576V413Q207
357 237 327T328 296H349V259L286 265Q217 271 181 310T143 419L140 571Q139 608 135 634T112 676T48 701V740Z" />
<glyph unicode="~" horiz-adv-x="600" d="M94 229L79 245Q124 295 149 318T191 346T231 342L409 276L507 340L521 324Q477 274 452 251T409 223T370 227L192 293L94 229Z" />
<glyph unicode="&#xa0;" horiz-adv-x="178" />
<glyph unicode="&#xa1;" horiz-adv-x="286" d="M98 -173L99 -58L123 289H168L177 -58L174 -173Q165 -174 156 -175T136 -176Q126 -176 117 -175T98 -173ZM135 381Q122 393 111 411T95 451Q109 465 127 476T166 491Q181 476 191 458T204 420Q191 406 173 395T135 381Z" />
<glyph unicode="&#xa2;" horiz-adv-x="497" d="M259 -134L213 -133L273 624L319 623L259 -134ZM262 -8Q204 -8 160 23T90 110T64 240Q64 319 92 376T172 465T290 497Q322 497 354 490T418 469L404 407Q348 437 282 436T157 406L191 435Q168 394 155 347T142 251Q142
185 165 141T227 74T316 55T423 91L429 77Q390 34 349 13T262 -8ZM387 326L344 469H418L415 326H387Z" />
<glyph unicode="&#xa3;" horiz-adv-x="620" d="M74 288V304Q99 316 125 324T179 337Q186 420 207 476T267 564T361 607T498 612V539Q451 544 403 544T305 538Q263 491 254 337H457L453 288H74ZM47 0V27Q74 35 101 42T155 52L175 310H252L243 137Q240 99 229 65T197
0H47ZM177 0V60L513 64L514 0H177ZM454 0L502 196H532L535 0H454Z" />
<glyph unicode="&#xa4;" horiz-adv-x="638" d="M317 122Q266 122 226 145T162 210T139 302Q139 354 162 394T225 458T317 481Q369 481 409 458T472 395T496 302Q496 251 473 210T409 146T317 122ZM128 73L89 112L197 218L235 179L128 73ZM318 176Q353 176 381
193T426 238T443 302Q442 338 426 366T381 410T318 427Q282 427 253 411T208 366T192 302Q192 267 209 238T254 192T318 176ZM511 73L404 180L442 217L549 112L511 73ZM194 389L89 492L128 532L234 426L194 389ZM443 387L405 427L511 532L549 492L443 387Z" />
<glyph unicode="&#xa5;" horiz-adv-x="708" d="M113 262V304H588V262H113ZM113 130V172H588V130H113ZM332 226L116 581V603H196L377 292H350L536 603H594V583L370 226H332ZM196 0V25Q226 33 254 38T309 46L313 288H390V46L504 28V0H196ZM166 546L49 575V603H331V581Q291
566 250 558T166 546ZM529 546L404 575V603H662V581Q630 566 597 558T529 546Z" />
<glyph unicode="&#xa6;" horiz-adv-x="345" d="M149 387V736H196V387H149ZM149 -196V154H196V-196H149Z" />
<glyph unicode="&#xa7;" horiz-adv-x="634" d="M278 -200Q238 -200 196 -193T111 -172L138 -119Q256 -153 381 -136Q404 -121 418 -99T432 -56Q432 -28 409 -8T350 31T274 67T197 110T138 169T115 252Q115 307 148 346T241 401L270 367Q231 354 209 327T187 264Q187
226 210 201T269 156T345 118T422 78T481 27T504 -47Q504 -92 476 -126T397 -180T278 -200ZM186 -174L110 -171L115 8L143 4L186 -174ZM368 57L352 84Q399 96 430 129T461 202Q461 236 438 260T379 303T303 341T226 382T168 436T145 512Q145 580 203 620T360 660Q395
660 431 655T505 638L489 585Q429 600 371 602T255 594Q236 582 226 563T216 522Q216 491 238 469T297 428T374 392T451 350T510 294T533 214Q533 174 513 142T456 87T368 57ZM472 466L430 640L505 638L501 466H472Z" />
<glyph unicode="&#xa8;" horiz-adv-x="404" d="M146 703Q160 690 170 673T182 636Q171 623 153 613T116 600Q103 612 93 629T77 666Q91 679 108 689T146 703ZM315 703Q329 690 339 673T352 636Q340 623 322 613T286 600Q271 612 261 629T247 666Q260 679 277 689T315
703Z" />
<glyph unicode="&#xa9;" horiz-adv-x="850" d="M437 127Q344 127 293 178T242 327Q242 424 296 478T447 533Q471 533 498 530T554 519L541 473Q492 488 442 487T342 468Q303 409 303 327Q303 225 365 188T538 188L554 143Q522 135 493 131T437 127ZM494 143L532
264H554V143H494ZM532 399L494 520L554 519V399H532ZM424 -9Q352 -9 291 16T184 86T113 194T88 329Q88 401 113 462T183 568T290 639T423 664Q496 664 558 639T666 569T737 462T763 329Q763 256 738 194T666 87T558 16T424 -9ZM424 24Q512 24 580 63T689 172T729
329Q729 416 689 484T581 592T424 631Q336 631 268 592T161 485T121 329Q121 241 160 172T268 64T424 24Z" />
<glyph unicode="&#xaa;" horiz-adv-x="362" d="M297 408Q277 408 259 422T233 466L241 648Q221 663 194 671T133 680Q120 680 109 679T85 674L117 691L105 601Q83 604 70 615T57 642Q57 663 73 680T115 707T175 717Q247 717 293 667V457L356 462Q353 437 336 423T297
408ZM152 405Q105 406 78 428T50 488Q50 510 65 525T123 556T252 590V558L98 532L117 541Q114 532 112 522T110 502Q110 478 123 465T162 451Q180 451 201 458T246 478V470Q224 448 202 433T152 405Z" />
<glyph unicode="&#xab;" horiz-adv-x="434" d="M185 41L21 236V250L185 446L216 422L95 243L216 63L185 41ZM368 41L204 236V250L368 446L399 422L278 243L399 63L368 41Z" />
<glyph unicode="&#xac;" horiz-adv-x="639" d="M514 332V152H459V275H78V332H514Z" />
<glyph unicode="&#xad;" horiz-adv-x="313" d="M51 293L274 321L282 263L57 236L51 293Z" />
<glyph unicode="&#xae;" horiz-adv-x="726" d="M362 205Q285 205 224 240T128 336T93 476Q93 552 128 613T224 709T362 744Q440 744 501 709T598 613T634 475Q634 398 599 337T502 240T362 205ZM232 350V365Q240 369 250 371T273 376L277 591L232 602V619H323V376L364
367V350H232ZM362 236Q431 236 485 267T571 352T603 475Q603 544 572 597T486 682T362 713Q293 713 240 682T155 597T124 475Q124 407 155 353T240 267T362 236ZM422 350L412 428Q410 448 401 455T370 463H300V493H368Q393 493 408 507T424 543Q424 563 411 575T375
587H300V619H383Q424 619 448 601T473 553Q473 524 453 504T399 478L392 484Q426 480 442 467T463 427L474 350L449 382L507 367V350H422Z" />
<glyph unicode="&#xaf;" horiz-adv-x="437" d="M93 625V680H339V625H93Z" />
<glyph unicode="&#xb0;" horiz-adv-x="538" d="M268 303Q222 303 186 324T129 382T108 464Q108 511 129 546T186 603T268 624Q314 624 350 603T408 547T429 464Q429 419 408 383T351 325T268 303ZM268 344Q320 344 354 378T388 464Q388 517 354 551T268 585Q217
585 183 551T149 464Q149 412 183 378T268 344Z" />
<glyph unicode="&#xb1;" horiz-adv-x="562" d="M81 346V404H481V346H81ZM81 91V148H481V91H81ZM252 210V540H310V210H252Z" />
<glyph unicode="&#xb2;" horiz-adv-x="405" d="M75 376V416Q75 447 96 472T147 520T207 563T258 606T279 652Q279 665 274 677T252 702L286 679Q267 683 247 685T205 687Q179 687 152 684T96 675L86 721Q118 728 147 732T205 736Q268 736 303 715T339 654Q339
622 319 597T268 549T207 505T156 463T135 416V376H75ZM98 376V416L336 422V376H98ZM293 376L328 497H353V376H293ZM87 597L86 721L143 722L111 597H87Z" />
<glyph unicode="&#xb3;" horiz-adv-x="392" d="M80 388L93 428Q123 421 147 418T190 414Q233 414 258 429T284 476Q284 504 262 520T202 537H156V579H190Q228 579 252 596T276 642Q276 654 271 665T257 687Q244 690 231 691T202 692Q180 692 154 689T101 680L88
719Q118 727 147 732T204 737Q265 737 302 715T339 651Q339 620 317 597T255 562Q300 553 323 530T346 472Q346 424 305 398T195 371Q168 371 139 375T80 388ZM83 495H107L140 387L80 388L83 495ZM91 613L88 719L149 720L115 613H91Z" />
<glyph unicode="&#xb4;" horiz-adv-x="297" d="M49 565L34 590L206 731H217L248 678Q200 646 150 618T49 565Z" />
<glyph unicode="&#xb5;" horiz-adv-x="600" d="M492 64L592 70Q586 45 573 28T543 3T508 -6Q486 -6 466 5T432 39T411 94L420 391L368 456Q428 490 492 498V64ZM106 -196L118 391L66 456Q128 490 191 498L190 81L176 50L194 -185V-196H106ZM297 -7Q292 -8 287
-8T275 -9Q198 -9 139 52L179 112Q235 62 298 62Q358 62 419 109L420 89Q393 57 362 33T297 -7Z" />
<glyph unicode="&#xb6;" horiz-adv-x="652" d="M317 -122L305 -108L417 55V655H604V629Q577 621 551 616T497 606V133Q497 50 453 -11T317 -122ZM289 241Q186 241 126 297T66 450Q66 546 125 600T289 655V241ZM280 598L289 655H458V598H280Z" />
<glyph unicode="&#xb7;" horiz-adv-x="273" d="M131 222Q116 235 105 253T90 292Q103 306 122 317T161 331Q176 318 186 299T200 261Q187 246 169 236T131 222Z" />
<glyph unicode="&#xb8;" horiz-adv-x="305" d="M64 -213L69 -155Q107 -166 138 -172T203 -180Q210 -175 214 -166T218 -150Q218 -139 209 -130T175 -111T109 -88L132 -38Q207 -55 239 -79T272 -141Q272 -179 244 -201T168 -227T64 -213ZM131 14H165L143 -88H109L131 14Z" />
<glyph unicode="&#xb9;" horiz-adv-x="289" d="M48 376V397Q69 402 89 406T130 411L136 686H51V706L159 734H196V411L275 399V376H48Z" />
<glyph unicode="&#xba;" horiz-adv-x="369" d="M189 406Q124 406 86 447T48 557Q48 629 88 673T197 718Q261 718 300 677T340 567Q340 494 299 450T189 406ZM193 444Q231 444 254 475T278 563Q278 617 255 647T191 677Q173 677 153 671T106 653L141 677Q125 650
117 622T109 561Q109 505 132 475T193 444Z" />
<glyph unicode="&#xbb;" horiz-adv-x="434" d="M258 446L421 251V237L258 41L226 64L348 244L226 424L258 446ZM73 446L236 251V237L73 41L41 64L162 244L41 424L73 446Z" />
<glyph unicode="&#xbc;" horiz-adv-x="750" d="M58 247V268Q79 273 99 277T140 282L146 557H61V577L169 605H206V282L285 270V247H58ZM138 -49L100 -20L618 652L656 623L138 -49ZM515 0V19Q533 24 548 27T580 34L586 318L598 312L438 112L430 132H717V96H410L403
125L585 354H640V33L699 21V0H515Z" />
<glyph unicode="&#xbd;" horiz-adv-x="828" d="M58 247V268Q79 273 99 277T140 282L146 557H61V577L169 605H206V282L285 270V247H58ZM138 -49L100 -20L618 652L656 623L138 -49ZM491 0V40Q491 71 512 96T563 144T623 187T674 230T695 276Q695 289 690 301T668
326L702 303Q683 307 663 309T621 311Q595 311 568 308T512 299L502 345Q534 352 563 356T621 360Q684 360 719 339T755 278Q755 246 735 221T684 173T623 129T572 87T551 40V0H491ZM514 0V40L752 46V0H514ZM709 0L744 121H769V0H709ZM503 221L502 345L559 346L527
221H503Z" />
<glyph unicode="&#xbe;" horiz-adv-x="797" d="M90 259L103 299Q133 292 157 289T200 285Q243 285 268 300T294 347Q294 375 272 391T212 408H166V450H200Q238 450 262 467T286 513Q286 525 281 536T267 558Q254 561 241 562T212 563Q190 563 164 560T111 551L98
590Q128 598 157 603T214 608Q275 608 312 586T349 522Q349 491 327 468T265 433Q310 424 333 401T356 343Q356 295 315 269T205 242Q178 242 149 246T90 259ZM93 366H117L150 258L90 259L93 366ZM101 484L98 590L159 591L125 484H101ZM186 -49L148 -20L666 652L704
623L186 -49ZM563 0V19Q581 24 596 27T628 34L634 318L646 312L486 112L478 132H765V96H458L451 125L633 354H688V33L747 21V0H563Z" />
<glyph unicode="&#xbf;" horiz-adv-x="434" d="M229 -176Q133 -176 78 -137T23 -29Q23 13 41 43T86 95T140 137T189 179T215 233L223 289H271L272 226Q273 192 256 167T213 122T161 81T118 35T100 -23Q100 -67 136 -90T239 -113Q300 -113 379 -92L396 -149Q354
-162 312 -169T229 -176ZM317 -149L367 34H396V-149H317ZM236 381Q222 393 212 411T196 451Q210 465 228 476T267 491Q282 476 292 458T305 420Q292 406 274 395T236 381Z" />
<glyph unicode="&#xc0;" horiz-adv-x="726" d="M644 46Q663 42 680 38T715 28V0H449V28L552 47L352 625H373L165 50Q196 45 225 40T285 28V0H30V28L98 50L326 655H421L644 46ZM200 217V270H536V217H200ZM462 731Q411 756 361 784T263 844L294 897H305L477 756L462 731Z" />
<glyph unicode="&#xc1;" horiz-adv-x="726" d="M644 46Q663 42 680 38T715 28V0H449V28L552 47L352 625H373L165 50Q196 45 225 40T285 28V0H30V28L98 50L326 655H421L644 46ZM200 217V270H536V217H200ZM293 731L278 756L450 897H461L492 844Q444 812 394 784T293 731Z" />
<glyph unicode="&#xc2;" horiz-adv-x="726" d="M644 46Q663 42 680 38T715 28V0H449V28L552 47L352 625H373L165 50Q196 45 225 40T285 28V0H30V28L98 50L326 655H421L644 46ZM200 217V270H536V217H200ZM407 890L519 779L491 751L384 832L279 751L251 779L362 890H407Z" />
<glyph unicode="&#xc3;" horiz-adv-x="726" d="M644 46Q663 42 680 38T715 28V0H449V28L552 47L352 625H373L165 50Q196 45 225 40T285 28V0H30V28L98 50L326 655H421L644 46ZM200 217V270H536V217H200ZM235 755L219 771Q243 808 259 828T286 856T306 864T327
862L446 831L507 884L524 869Q493 821 475 801T444 777T415 777L296 808L235 755Z" />
<glyph unicode="&#xc4;" horiz-adv-x="726" d="M644 46Q663 42 680 38T715 28V0H449V28L552 47L352 625H373L165 50Q196 45 225 40T285 28V0H30V28L98 50L326 655H421L644 46ZM200 217V270H536V217H200ZM303 869Q317 856 327 839T339 802Q328 789 310 779T273
766Q260 778 250 795T234 832Q248 845 265 855T303 869ZM472 869Q486 856 496 839T509 802Q497 789 479 779T443 766Q428 778 418 795T404 832Q417 845 434 855T472 869Z" />
<glyph unicode="&#xc5;" horiz-adv-x="726" d="M644 46Q663 42 680 38T715 28V0H449V28L552 47L352 625H373L165 50Q196 45 225 40T285 28V0H30V28L98 50L326 655H421L644 46ZM200 217V270H536V217H200ZM371 729Q346 729 326 740T295 772T283 818Q283 843 294
863T326 894T371 906Q410 906 435 881T460 818Q460 792 449 772T417 741T371 729ZM371 768Q393 768 407 782T421 818Q421 840 407 854T371 868Q350 868 336 854T321 817Q321 797 335 783T371 768Z" />
<glyph unicode="&#xc6;" horiz-adv-x="980" d="M859 218H887V0H422V28L533 48L389 631L410 629L139 47Q169 43 197 38T254 27V0H20V28L73 50L339 607L231 627V655H858V458H830L795 599H437L463 633L623 22L581 56H823L859 218ZM732 226L690 338L732 451H758V226H732ZM196
217L197 270H529L528 217H196ZM502 312V367H742L741 312H502Z" />
<glyph unicode="&#xc7;" horiz-adv-x="687" d="M405 -8Q251 -8 168 78T85 325Q85 432 125 508T241 625T421 666Q459 666 503 660T593 643L575 575Q533 588 491 595T407 602Q358 602 310 592T216 560L249 584Q210 527 191 462T171 322Q171 192 234 123T414 53Q448
53 487 60T571 82L593 18Q488 -8 405 -8ZM505 17L562 214H593V18L505 17ZM562 447L506 643H593V447H562ZM322 -213L327 -155Q365 -166 396 -172T461 -180Q468 -175 472 -166T476 -150Q476 -139 467 -130T433 -111T367 -88L390 -38Q465 -55 497 -79T530 -141Q530
-179 502 -201T426 -227T322 -213ZM389 14H423L401 -88H367L389 14Z" />
<glyph unicode="&#xc8;" horiz-adv-x="711" d="M589 218H618V0H58V27Q86 36 112 41T165 50L175 604L58 626V655H608V458H579L544 599H219L254 634V365H441L472 451H498V223H472L441 310H254V21L219 56H552L589 218ZM465 731Q414 756 364 784T266 844L297 897H308L480
756L465 731Z" />
<glyph unicode="&#xc9;" horiz-adv-x="711" d="M589 218H618V0H58V27Q86 36 112 41T165 50L175 604L58 626V655H608V458H579L544 599H219L254 634V365H441L472 451H498V223H472L441 310H254V21L219 56H552L589 218ZM296 731L281 756L453 897H464L495 844Q447 812
397 784T296 731Z" />
<glyph unicode="&#xca;" horiz-adv-x="711" d="M589 218H618V0H58V27Q86 36 112 41T165 50L175 604L58 626V655H608V458H579L544 599H219L254 634V365H441L472 451H498V223H472L441 310H254V21L219 56H552L589 218ZM410 890L522 779L494 751L387 832L282 751L254
779L365 890H410Z" />
<glyph unicode="&#xcb;" horiz-adv-x="711" d="M589 218H618V0H58V27Q86 36 112 41T165 50L175 604L58 626V655H608V458H579L544 599H219L254 634V365H441L472 451H498V223H472L441 310H254V21L219 56H552L589 218ZM307 869Q321 856 331 839T343 802Q332 789 314
779T277 766Q264 778 254 795T238 832Q252 845 269 855T307 869ZM476 869Q490 856 500 839T513 802Q501 789 483 779T447 766Q432 778 422 795T408 832Q421 845 438 855T476 869Z" />
<glyph unicode="&#xcc;" horiz-adv-x="402" d="M58 0V27Q86 36 112 41T165 50L175 604L58 626V655H361V629Q337 622 310 616T254 606V50L361 30V0H58ZM302 731Q251 756 201 784T103 844L134 897H145L317 756L302 731Z" />
<glyph unicode="&#xcd;" horiz-adv-x="402" d="M58 0V27Q86 36 112 41T165 50L175 604L58 626V655H361V629Q337 622 310 616T254 606V50L361 30V0H58ZM133 731L118 756L290 897H301L332 844Q284 812 234 784T133 731Z" />
<glyph unicode="&#xce;" horiz-adv-x="402" d="M58 0V27Q86 36 112 41T165 50L175 604L58 626V655H361V629Q337 622 310 616T254 606V50L361 30V0H58ZM247 890L359 779L331 751L224 832L119 751L91 779L202 890H247Z" />
<glyph unicode="&#xcf;" horiz-adv-x="402" d="M58 0V27Q86 36 112 41T165 50L175 604L58 626V655H361V629Q337 622 310 616T254 606V50L361 30V0H58ZM143 869Q157 856 167 839T179 802Q168 789 150 779T113 766Q100 778 90 795T74 832Q88 845 105 855T143 869ZM312
869Q326 856 336 839T349 802Q337 789 319 779T283 766Q268 778 258 795T244 832Q257 845 274 855T312 869Z" />
<glyph unicode="&#xd0;" horiz-adv-x="786" d="M436 655Q524 655 588 616T688 506T724 337Q724 236 687 161T582 43T426 0H82V27Q105 35 132 41T190 50L199 604L82 626V655H436ZM483 56Q559 90 598 158T637 327Q637 398 622 449T577 533T510 582T426 599H243L278
633V22L243 56H483ZM87 360H427V312H87V360Z" />
<glyph unicode="&#xd1;" horiz-adv-x="811" d="M502 655H786V629Q759 621 733 615T680 606L679 0H593L211 577L230 583V50L353 30V0H59V27Q86 36 112 41T165 50L175 604L58 626V655H259L642 76L625 71L615 607L502 626V655ZM280 755L264 771Q288 808 304 828T331
856T351 864T372 862L491 831L552 884L569 869Q538 821 520 801T489 777T460 777L341 808L280 755Z" />
<glyph unicode="&#xd2;" horiz-adv-x="744" d="M375 -9Q289 -9 223 32T121 146T84 319Q84 420 123 497T232 619T388 664Q475 664 541 623T645 508T682 337Q682 235 644 157T536 35T375 -9ZM383 48Q446 48 493 83T568 182T596 331Q596 414 570 475T496 569T381
603Q338 603 295 588T217 542L248 579Q170 458 170 321Q170 240 197 178T271 82T383 48ZM472 731Q421 756 371 784T273 844L304 897H315L487 756L472 731Z" />
<glyph unicode="&#xd3;" horiz-adv-x="744" d="M375 -9Q289 -9 223 32T121 146T84 319Q84 420 123 497T232 619T388 664Q475 664 541 623T645 508T682 337Q682 235 644 157T536 35T375 -9ZM383 48Q446 48 493 83T568 182T596 331Q596 414 570 475T496 569T381
603Q338 603 295 588T217 542L248 579Q170 458 170 321Q170 240 197 178T271 82T383 48ZM303 731L288 756L460 897H471L502 844Q454 812 404 784T303 731Z" />
<glyph unicode="&#xd4;" horiz-adv-x="744" d="M375 -9Q289 -9 223 32T121 146T84 319Q84 420 123 497T232 619T388 664Q475 664 541 623T645 508T682 337Q682 235 644 157T536 35T375 -9ZM383 48Q446 48 493 83T568 182T596 331Q596 414 570 475T496 569T381
603Q338 603 295 588T217 542L248 579Q170 458 170 321Q170 240 197 178T271 82T383 48ZM417 890L529 779L501 751L394 832L289 751L261 779L372 890H417Z" />
<glyph unicode="&#xd5;" horiz-adv-x="744" d="M375 -9Q289 -9 223 32T121 146T84 319Q84 420 123 497T232 619T388 664Q475 664 541 623T645 508T682 337Q682 235 644 157T536 35T375 -9ZM383 48Q446 48 493 83T568 182T596 331Q596 414 570 475T496 569T381
603Q338 603 295 588T217 542L248 579Q170 458 170 321Q170 240 197 178T271 82T383 48ZM245 755L229 771Q253 808 269 828T296 856T316 864T337 862L456 831L517 884L534 869Q503 821 485 801T454 777T425 777L306 808L245 755Z" />
<glyph unicode="&#xd6;" horiz-adv-x="744" d="M375 -9Q289 -9 223 32T121 146T84 319Q84 420 123 497T232 619T388 664Q475 664 541 623T645 508T682 337Q682 235 644 157T536 35T375 -9ZM383 48Q446 48 493 83T568 182T596 331Q596 414 570 475T496 569T381
603Q338 603 295 588T217 542L248 579Q170 458 170 321Q170 240 197 178T271 82T383 48ZM313 869Q327 856 337 839T349 802Q338 789 320 779T283 766Q270 778 260 795T244 832Q258 845 275 855T313 869ZM482 869Q496 856 506 839T519 802Q507 789 489 779T453 766Q438
778 428 795T414 832Q427 845 444 855T482 869Z" />
<glyph unicode="&#xd7;" horiz-adv-x="496" d="M113 108L72 149L383 460L424 419L113 108ZM383 108L72 419L113 460L424 149L383 108Z" />
<glyph unicode="&#xd8;" horiz-adv-x="748" d="M259 51L194 -85L150 -67L217 73L259 51ZM367 -9Q280 -9 215 32T113 146T76 319Q76 420 114 497T222 619T380 664Q467 664 533 623T637 508T674 337Q674 235 636 157T528 35T367 -9ZM374 48Q437 48 485 83T560 182T587
331Q587 414 561 475T487 569T373 603Q336 603 299 592T229 558Q162 446 162 321Q162 240 189 178T263 82T374 48ZM474 614L533 736L577 718L517 593L474 614ZM217 73L474 614L517 593L259 51L217 73Z" />
<glyph unicode="&#xd9;" horiz-adv-x="781" d="M399 -10Q277 -10 212 45T147 204L154 604L37 626V655H338V629Q318 621 293 616T232 606V200Q232 126 277 88T407 50Q470 50 511 69T584 131L590 604L477 626V655H760V629Q738 621 712 615T652 606L653 214Q653 108
586 49T399 -10ZM498 731Q447 756 397 784T299 844L330 897H341L513 756L498 731Z" />
<glyph unicode="&#xda;" horiz-adv-x="781" d="M400 -10Q278 -10 213 45T148 204L155 604L38 626V655H339V629Q319 621 294 616T233 606V200Q233 126 278 88T408 50Q471 50 512 69T585 131L591 604L478 626V655H761V629Q739 621 713 615T653 606L654 214Q654 108
587 49T400 -10ZM329 731L314 756L486 897H497L528 844Q480 812 430 784T329 731Z" />
<glyph unicode="&#xdb;" horiz-adv-x="781" d="M400 -10Q278 -10 213 45T148 204L155 604L38 626V655H339V629Q319 621 294 616T233 606V200Q233 126 278 88T408 50Q471 50 512 69T585 131L591 604L478 626V655H761V629Q739 621 713 615T653 606L654 214Q654 108
587 49T400 -10ZM443 890L555 779L527 751L420 832L315 751L287 779L398 890H443Z" />
<glyph unicode="&#xdc;" horiz-adv-x="781" d="M399 -10Q277 -10 212 45T147 204L154 604L37 626V655H338V629Q318 621 293 616T232 606V200Q232 126 277 88T407 50Q470 50 511 69T584 131L590 604L477 626V655H760V629Q738 621 712 615T652 606L653 214Q653 108
586 49T399 -10ZM339 869Q353 856 363 839T375 802Q364 789 346 779T309 766Q296 778 286 795T270 832Q284 845 301 855T339 869ZM508 869Q522 856 532 839T545 802Q533 789 515 779T479 766Q464 778 454 795T440 832Q453 845 470 855T508 869Z" />
<glyph unicode="&#xdd;" horiz-adv-x="703" d="M335 218L104 624V645H192L384 291H357L552 645H613L614 626L376 218H335ZM187 0V27Q219 36 249 41T310 50L314 285H398V50L522 30V0H187ZM153 593L28 625V655H334V631Q290 615 245 606T153 593ZM549 593L413 625V655H694V631Q659
615 623 606T549 593ZM289 731L274 756L446 897H457L488 844Q440 812 390 784T289 731Z" />
<glyph unicode="&#xde;" horiz-adv-x="651" d="M48 0V27Q76 36 102 41T155 50L165 604L48 626V655H351V631Q327 623 300 617T244 607V49L351 30V0H48ZM201 146V201H434Q479 229 499 263T520 342Q520 408 484 442T378 476H201V530H394Q492 530 547 483T602 350Q602
288 573 242T490 171T365 146H201Z" />
<glyph unicode="&#xdf;" horiz-adv-x="654" d="M292 14L311 66Q354 56 393 52T475 47Q494 47 513 47T554 50L510 44Q530 51 543 71T557 112Q557 136 540 155T496 190T440 224T383 262T339 308T322 369Q322 400 337 422T374 463T419 498T456 537T471 588Q471 634
435 657T331 680Q309 680 284 678T230 670Q212 645 204 590T196 439H37V455Q56 466 76 474T121 486Q125 575 151 632T225 716T346 744Q436 744 489 705T543 600Q543 564 528 538T490 491T446 454T409 418T394 377Q394 354 410 336T453 302T509 270T566 234T609
188T626 126Q626 84 600 55T530 9T429 -7Q397 -7 363 -2T292 14ZM47 0V24Q62 31 78 37T113 46L121 439H196V0H47ZM362 14H292L296 160H322L362 14Z" />
<glyph unicode="&#xe0;" horiz-adv-x="523" d="M438 -6Q406 -6 380 17T343 86L355 389Q288 442 191 442Q172 442 153 440T117 432L161 455L143 312Q109 318 92 335T75 377Q75 410 98 437T162 481T250 497Q303 497 348 476T428 416V69L527 74Q522 48 509 30T477
3T438 -6ZM214 -10Q145 -9 104 27T62 122Q62 150 75 171T121 210T215 246T371 288V240L132 194L158 207Q153 192 151 175T148 144Q148 102 167 80T228 58Q258 58 291 69T361 107V90Q330 59 295 34T214 -10ZM356 565Q305 590 255 618T157 678L188 731H199L371 590L356
565Z" />
<glyph unicode="&#xe1;" horiz-adv-x="523" d="M438 -6Q406 -6 380 17T343 86L355 389Q288 442 191 442Q172 442 153 440T117 432L161 455L143 312Q109 318 92 335T75 377Q75 410 98 437T162 481T250 497Q303 497 348 476T428 416V69L527 74Q522 48 509 30T477
3T438 -6ZM214 -10Q145 -9 104 27T62 122Q62 150 75 171T121 210T215 246T371 288V240L132 194L158 207Q153 192 151 175T148 144Q148 102 167 80T228 58Q258 58 291 69T361 107V90Q330 59 295 34T214 -10ZM187 565L172 590L344 731H355L386 678Q338 646 288 618T187
565Z" />
<glyph unicode="&#xe2;" horiz-adv-x="523" d="M438 -6Q406 -6 380 17T343 86L355 389Q288 442 191 442Q172 442 153 440T117 432L161 455L143 312Q109 318 92 335T75 377Q75 410 98 437T162 481T250 497Q303 497 348 476T428 416V69L527 74Q522 48 509 30T477
3T438 -6ZM214 -10Q145 -9 104 27T62 122Q62 150 75 171T121 210T215 246T371 288V240L132 194L158 207Q153 192 151 175T148 144Q148 102 167 80T228 58Q258 58 291 69T361 107V90Q330 59 295 34T214 -10ZM301 724L413 613L385 585L278 666L173 585L145 613L256
724H301Z" />
<glyph unicode="&#xe3;" horiz-adv-x="523" d="M438 -6Q406 -6 380 17T343 86L355 389Q288 442 191 442Q172 442 153 440T117 432L161 455L143 312Q109 318 92 335T75 377Q75 410 98 437T162 481T250 497Q303 497 348 476T428 416V69L527 74Q522 48 509 30T477
3T438 -6ZM214 -10Q145 -9 104 27T62 122Q62 150 75 171T121 210T215 246T371 288V240L132 194L158 207Q153 192 151 175T148 144Q148 102 167 80T228 58Q258 58 291 69T361 107V90Q330 59 295 34T214 -10ZM129 589L113 605Q137 642 153 662T180 690T200 698T221
696L340 665L401 718L418 703Q387 655 369 635T338 611T309 611L190 642L129 589Z" />
<glyph unicode="&#xe4;" horiz-adv-x="523" d="M438 -6Q406 -6 380 17T343 86L355 389Q288 442 191 442Q172 442 153 440T117 432L161 455L143 312Q109 318 92 335T75 377Q75 410 98 437T162 481T250 497Q303 497 348 476T428 416V69L527 74Q522 48 509 30T477
3T438 -6ZM214 -10Q145 -9 104 27T62 122Q62 150 75 171T121 210T215 246T371 288V240L132 194L158 207Q153 192 151 175T148 144Q148 102 167 80T228 58Q258 58 291 69T361 107V90Q330 59 295 34T214 -10ZM197 703Q211 690 221 673T233 636Q222 623 204 613T167
600Q154 612 144 629T128 666Q142 679 159 689T197 703ZM366 703Q380 690 390 673T403 636Q391 623 373 613T337 600Q322 612 312 629T298 666Q311 679 328 689T366 703Z" />
<glyph unicode="&#xe5;" horiz-adv-x="523" d="M438 -6Q406 -6 380 17T343 86L355 389Q288 442 191 442Q172 442 153 440T117 432L161 455L143 312Q109 318 92 335T75 377Q75 410 98 437T162 481T250 497Q303 497 348 476T428 416V69L527 74Q522 48 509 30T477
3T438 -6ZM214 -10Q145 -9 104 27T62 122Q62 150 75 171T121 210T215 246T371 288V240L132 194L158 207Q153 192 151 175T148 144Q148 102 167 80T228 58Q258 58 291 69T361 107V90Q330 59 295 34T214 -10ZM265 563Q240 563 220 574T189 606T177 652Q177 677 188
697T220 728T265 740Q304 740 329 715T354 652Q354 626 343 606T311 575T265 563ZM265 602Q287 602 301 616T315 652Q315 674 301 688T265 702Q244 702 230 688T215 651Q215 631 229 617T265 602Z" />
<glyph unicode="&#xe6;" horiz-adv-x="788" d="M543 -8Q445 -8 392 61T338 257Q338 375 394 435T561 496Q612 496 651 473T711 410T732 316L728 253Q670 243 619 237T512 228T382 223L383 267L658 271L663 317Q663 374 632 407T546 441Q522 441 494 433T438 413Q425
378 418 339T411 261Q411 159 455 107T576 54Q609 54 647 63T726 92L732 78Q644 -8 543 -8ZM214 -10Q137 -9 96 24T55 120Q55 149 67 170T112 210T206 246T361 286V241L140 195Q136 180 135 167T133 140Q133 98 154 76T216 53Q254 53 296 72T387 128L389 109Q350
68 308 39T214 -10ZM368 371Q292 444 184 444Q147 444 107 433L148 455L130 313Q98 319 82 336T65 379Q65 412 88 438T150 480T237 496Q292 496 341 473T426 404L368 371Z" />
<glyph unicode="&#xe7;" horiz-adv-x="462" d="M259 -8Q200 -8 155 23T85 111T59 240Q59 319 88 376T168 465T285 497Q318 497 350 490T414 469L400 407Q337 437 261 437Q233 437 205 430T152 406L187 435Q163 394 151 347T138 251Q138 190 158 147T214 80T296
56Q324 56 355 65T419 92L425 77Q353 -8 259 -8ZM382 326L340 469H414L411 326H382ZM169 -213L174 -155Q212 -166 243 -172T308 -180Q315 -175 319 -166T323 -150Q323 -139 314 -130T280 -111T214 -88L237 -38Q312 -55 344 -79T377 -141Q377 -179 349 -201T273
-227T169 -213ZM236 14H270L248 -88H214L236 14Z" />
<glyph unicode="&#xe8;" horiz-adv-x="501" d="M265 -8Q203 -8 157 22T85 108T59 237Q59 312 86 371T162 463T278 496Q331 496 371 474T433 411T455 316L452 251Q395 241 343 236T233 227T105 222V269L381 273L383 317Q383 373 352 406T269 440Q247 440 223 433T176
413Q155 376 144 334T133 249Q133 156 178 106T300 56Q366 56 449 94L455 79Q413 36 365 14T265 -8ZM364 565Q313 590 263 618T165 678L196 731H207L379 590L364 565Z" />
<glyph unicode="&#xe9;" horiz-adv-x="501" d="M265 -8Q203 -8 157 22T85 108T59 237Q59 312 86 371T162 463T278 496Q331 496 371 474T433 411T455 316L452 251Q395 241 343 236T233 227T105 222V269L381 273L383 317Q383 373 352 406T269 440Q247 440 223 433T176
413Q155 376 144 334T133 249Q133 156 178 106T300 56Q366 56 449 94L455 79Q413 36 365 14T265 -8ZM195 565L180 590L352 731H363L394 678Q346 646 296 618T195 565Z" />
<glyph unicode="&#xea;" horiz-adv-x="501" d="M265 -8Q203 -8 157 22T85 108T59 237Q59 312 86 371T162 463T278 496Q331 496 371 474T433 411T455 316L452 251Q395 241 343 236T233 227T105 222V269L381 273L383 317Q383 373 352 406T269 440Q247 440 223 433T176
413Q155 376 144 334T133 249Q133 156 178 106T300 56Q366 56 449 94L455 79Q413 36 365 14T265 -8ZM309 724L421 613L393 585L286 666L181 585L153 613L264 724H309Z" />
<glyph unicode="&#xeb;" horiz-adv-x="501" d="M265 -8Q203 -8 157 22T85 108T59 237Q59 312 86 371T162 463T278 496Q331 496 371 474T433 411T455 316L452 251Q395 241 343 236T233 227T105 222V269L381 273L383 317Q383 373 352 406T269 440Q247 440 223 433T176
413Q155 376 144 334T133 249Q133 156 178 106T300 56Q366 56 449 94L455 79Q413 36 365 14T265 -8ZM205 703Q219 690 229 673T241 636Q230 623 212 613T175 600Q162 612 152 629T136 666Q150 679 167 689T205 703ZM374 703Q388 690 398 673T411 636Q399 623 381
613T345 600Q330 612 320 629T306 666Q319 679 336 689T374 703Z" />
<glyph unicode="&#xec;" horiz-adv-x="289" d="M43 0V24Q58 31 75 37T113 46L122 391L70 456Q99 473 129 483T195 498V44L270 25V0H43ZM244 565Q193 590 143 618T45 678L76 731H87L259 590L244 565Z" />
<glyph unicode="&#xed;" horiz-adv-x="289" d="M43 0V24Q58 31 75 37T113 46L122 391L70 456Q99 473 129 483T195 498V44L270 25V0H43ZM76 565L61 590L233 731H244L275 678Q227 646 177 618T76 565Z" />
<glyph unicode="&#xee;" horiz-adv-x="289" d="M43 0V24Q58 31 75 37T113 46L122 391L70 456Q99 473 129 483T195 498V44L270 25V0H43ZM445 724L557 613L529 585L422 666L317 585L289 613L400 724H445Z" />
<glyph unicode="&#xef;" horiz-adv-x="289" d="M43 0V24Q58 31 75 37T113 46L122 391L70 456Q99 473 129 483T195 498V44L270 25V0H43ZM341 703Q355 690 365 673T377 636Q366 623 348 613T311 600Q298 612 288 629T272 666Q286 679 303 689T341 703ZM510 703Q524
690 534 673T547 636Q535 623 517 613T481 600Q466 612 456 629T442 666Q455 679 472 689T510 703Z" />
<glyph unicode="&#xf0;" horiz-adv-x="542" d="M261 -9Q196 -9 149 21T75 105T49 234Q49 314 77 371T154 459T263 490Q303 490 344 474T423 421L418 368Q386 401 345 418T260 435Q238 435 215 429T171 411Q149 370 139 327T128 238Q128 179 145 136T193 68T267
44Q309 44 340 69T387 140T404 249Q404 338 374 418T279 573T116 722L148 745Q258 679 332 601T445 437T484 257Q484 177 457 117T380 24T261 -9ZM132 544L117 585L419 684L433 643L132 544Z" />
<glyph unicode="&#xf1;" horiz-adv-x="586" d="M43 0V24Q56 30 72 36T113 46L122 391L70 456Q125 489 187 498L195 399V44L270 25V0H43ZM345 0V24Q358 30 374 36T414 46L425 381L496 417V44L572 25V0H345ZM188 378L187 398Q215 431 247 455T314 495Q320 496 326
496T337 496Q384 496 423 477T496 417L425 381Q371 427 311 427Q250 427 188 378ZM174 589L158 605Q182 642 198 662T225 690T245 698T266 696L385 665L446 718L463 703Q432 655 414 635T383 611T354 611L235 642L174 589Z" />
<glyph unicode="&#xf2;" horiz-adv-x="534" d="M270 -9Q206 -9 159 21T85 107T59 236Q59 314 87 372T165 464T281 497Q346 497 394 466T469 380T496 251Q496 173 468 115T389 24T270 -9ZM276 44Q318 44 349 68T398 137T416 246Q416 308 399 351T349 417T274 440Q247
440 216 430T146 400L189 433Q165 388 152 341T139 241Q139 180 156 136T204 68T276 44ZM368 565Q317 590 267 618T169 678L200 731H211L383 590L368 565Z" />
<glyph unicode="&#xf3;" horiz-adv-x="534" d="M270 -9Q206 -9 159 21T85 107T59 236Q59 314 87 372T165 464T281 497Q346 497 394 466T469 380T496 251Q496 173 468 115T389 24T270 -9ZM276 44Q318 44 349 68T398 137T416 246Q416 308 399 351T349 417T274 440Q247
440 216 430T146 400L189 433Q165 388 152 341T139 241Q139 180 156 136T204 68T276 44ZM199 565L184 590L356 731H367L398 678Q350 646 300 618T199 565Z" />
<glyph unicode="&#xf4;" horiz-adv-x="534" d="M270 -9Q206 -9 159 21T85 107T59 236Q59 314 87 372T165 464T281 497Q346 497 394 466T469 380T496 251Q496 173 468 115T389 24T270 -9ZM276 44Q318 44 349 68T398 137T416 246Q416 308 399 351T349 417T274 440Q247
440 216 430T146 400L189 433Q165 388 152 341T139 241Q139 180 156 136T204 68T276 44ZM313 724L425 613L397 585L290 666L185 585L157 613L268 724H313Z" />
<glyph unicode="&#xf5;" horiz-adv-x="534" d="M270 -9Q206 -9 159 21T85 107T59 236Q59 314 87 372T165 464T281 497Q346 497 394 466T469 380T496 251Q496 173 468 115T389 24T270 -9ZM276 44Q318 44 349 68T398 137T416 246Q416 308 399 351T349 417T274 440Q247
440 216 430T146 400L189 433Q165 388 152 341T139 241Q139 180 156 136T204 68T276 44ZM141 589L125 605Q149 642 165 662T192 690T212 698T233 696L352 665L413 718L430 703Q399 655 381 635T350 611T321 611L202 642L141 589Z" />
<glyph unicode="&#xf6;" horiz-adv-x="534" d="M270 -9Q206 -9 159 21T85 107T59 236Q59 314 87 372T165 464T281 497Q346 497 394 466T469 380T496 251Q496 173 468 115T389 24T270 -9ZM276 44Q318 44 349 68T398 137T416 246Q416 308 399 351T349 417T274 440Q247
440 216 430T146 400L189 433Q165 388 152 341T139 241Q139 180 156 136T204 68T276 44ZM208 703Q222 690 232 673T244 636Q233 623 215 613T178 600Q165 612 155 629T139 666Q153 679 170 689T208 703ZM377 703Q391 690 401 673T414 636Q402 623 384 613T348 600Q333
612 323 629T309 666Q322 679 339 689T377 703Z" />
<glyph unicode="&#xf7;" horiz-adv-x="532" d="M45 255V312H485V255H45ZM248 50Q237 62 229 79T218 114Q231 126 248 134T283 144Q295 131 303 114T311 79Q299 68 283 60T248 50ZM248 423Q237 435 229 452T218 486Q231 499 248 507T283 516Q295 504 303 487T311
452Q299 440 283 433T248 423Z" />
<glyph unicode="&#xf8;" horiz-adv-x="542" d="M206 30L146 -112L101 -97L163 51L206 30ZM264 -9Q200 -9 153 21T79 107T52 236Q52 314 80 372T159 464T276 497Q340 497 388 466T464 380T491 251Q491 173 463 115T383 24T264 -9ZM270 44Q312 44 344 68T393 137T411
246Q411 308 394 351T344 417T268 440Q220 440 175 413Q153 373 142 329T131 241Q131 180 149 136T198 68T270 44ZM334 457L392 600L437 585L376 438L334 457ZM163 51L334 457L376 438L206 30L163 51Z" />
<glyph unicode="&#xf9;" horiz-adv-x="584" d="M480 64L579 70Q573 45 560 28T530 3T495 -6Q473 -6 453 5T419 39T399 94L407 391L355 456Q415 490 480 498V64ZM280 -7Q274 -8 268 -8T257 -9Q209 -9 170 11T97 73L166 112Q222 62 286 62Q346 62 406 109L408 89Q379
57 348 33T280 -7ZM97 73L106 391L53 456Q115 490 178 498V87L97 73ZM384 565Q333 590 283 618T185 678L216 731H227L399 590L384 565Z" />
<glyph unicode="&#xfa;" horiz-adv-x="584" d="M480 64L579 70Q573 45 560 28T530 3T495 -6Q473 -6 453 5T419 39T399 94L407 391L355 456Q415 490 480 498V64ZM280 -7Q274 -8 268 -8T257 -9Q209 -9 170 11T97 73L166 112Q222 62 286 62Q346 62 406 109L408 89Q379
57 348 33T280 -7ZM97 73L106 391L53 456Q115 490 178 498V87L97 73ZM215 565L200 590L372 731H383L414 678Q366 646 316 618T215 565Z" />
<glyph unicode="&#xfb;" horiz-adv-x="584" d="M480 64L579 70Q573 45 560 28T530 3T495 -6Q473 -6 453 5T419 39T399 94L407 391L355 456Q415 490 480 498V64ZM280 -7Q274 -8 268 -8T257 -9Q209 -9 170 11T97 73L166 112Q222 62 286 62Q346 62 406 109L408 89Q379
57 348 33T280 -7ZM97 73L106 391L53 456Q115 490 178 498V87L97 73ZM329 724L441 613L413 585L306 666L201 585L173 613L284 724H329Z" />
<glyph unicode="&#xfc;" horiz-adv-x="584" d="M480 64L579 70Q573 45 560 28T530 3T495 -6Q473 -6 453 5T419 39T399 94L407 391L355 456Q415 490 480 498V64ZM280 -7Q274 -8 268 -8T257 -9Q209 -9 170 11T97 73L166 112Q222 62 286 62Q346 62 406 109L408 89Q379
57 348 33T280 -7ZM97 73L106 391L53 456Q115 490 178 498V87L97 73ZM225 703Q239 690 249 673T261 636Q250 623 232 613T195 600Q182 612 172 629T156 666Q170 679 187 689T225 703ZM394 703Q408 690 418 673T431 636Q419 623 401 613T365 600Q350 612 340 629T326
666Q339 679 356 689T394 703Z" />
<glyph unicode="&#xfd;" horiz-adv-x="499" d="M-18 -184L-13 -127L167 -138Q192 -105 210 -76T242 -13T274 66L416 478H478L321 49Q274 -81 218 -142T83 -203Q60 -203 35 -198T-18 -184ZM212 9L43 478H131L282 25L212 9ZM103 428Q77 432 53 441T7 462V488H210V462L103
428ZM450 428Q417 432 385 440T322 462V488H508V462L450 428ZM183 565L168 590L340 731H351L382 678Q334 646 284 618T183 565Z" />
<glyph unicode="&#xfe;" horiz-adv-x="548" d="M19 -196V-172Q32 -166 48 -160T88 -149L99 635L45 705Q74 721 104 732T170 747V-151L265 -171V-196H19ZM105 17L122 76Q162 61 195 54T254 47Q333 47 377 98T421 242Q421 292 409 335T370 416L416 371Q349 427 280
427Q220 427 162 380L161 402Q187 430 217 453T282 496Q287 496 292 496T303 497Q392 492 445 427T499 253Q499 172 468 113T381 23T250 -9Q183 -9 105 17Z" />
<glyph unicode="&#xff;" horiz-adv-x="499" d="M-18 -184L-13 -127L167 -138Q192 -105 210 -76T242 -13T274 66L416 478H478L321 49Q274 -81 218 -142T83 -203Q60 -203 35 -198T-18 -184ZM212 9L43 478H131L282 25L212 9ZM103 428Q77 432 53 441T7 462V488H210V462L103
428ZM450 428Q417 432 385 440T322 462V488H508V462L450 428ZM193 703Q207 690 217 673T229 636Q218 623 200 613T163 600Q150 612 140 629T124 666Q138 679 155 689T193 703ZM362 703Q376 690 386 673T399 636Q387 623 369 613T333 600Q318 612 308 629T294 666Q307
679 324 689T362 703Z" />
<glyph unicode="&#x2013;" horiz-adv-x="564" d="M51 307H512V249H51V307Z" />
<glyph unicode="&#x2014;" horiz-adv-x="995" d="M51 307H943V249H51V307Z" />
<glyph unicode="&#x2018;" horiz-adv-x="242" d="M163 677L138 534L56 538Q86 612 134 682L163 677ZM129 578L166 511Q148 495 130 486T92 471Q79 485 71 501T56 538L129 578Z" />
<glyph unicode="&#x2019;" horiz-adv-x="243" d="M89 475L113 618L195 614Q181 578 162 542T117 470L89 475ZM122 573L86 642Q103 657 121 666T159 680Q172 667 180 651T195 614L122 573Z" />
<glyph unicode="&#x201a;" horiz-adv-x="241" d="M346 -97L370 46L452 42Q438 6 419 -30T374 -102L346 -97ZM379 1L343 70Q360 85 378 94T416 108Q429 95 437 79T452 42L379 1Z" />
<glyph unicode="&#x201c;" horiz-adv-x="375" d="M162 677L137 534L55 538Q85 612 134 682L162 677ZM129 578L165 511Q148 495 130 486T92 471Q79 485 71 501T55 538L129 578ZM297 677L272 534L190 538Q220 612 268 682L297 677ZM264 578L300 511Q283 495 265
486T227 471Q214 485 206 501T190 538L264 578Z" />
<glyph unicode="&#x201d;" horiz-adv-x="373" d="M215 475L239 618L321 614Q307 578 288 542T243 470L215 475ZM248 573L212 642Q229 657 247 666T285 680Q298 667 306 651T321 614L248 573ZM86 475L110 618L192 614Q178 578 159 542T114 470L86 475ZM119 573L83
642Q100 657 118 666T156 680Q169 667 177 651T192 614L119 573Z" />
<glyph unicode="&#x201e;" horiz-adv-x="376" d="M222 -97L246 46L328 42Q314 6 295 -30T250 -102L222 -97ZM255 1L219 70Q236 85 254 94T292 108Q305 95 313 79T328 42L255 1ZM346 -97L370 46L452 42Q438 6 419 -30T374 -102L346 -97ZM379 1L343 70Q360 85 378
94T416 108Q429 95 437 79T452 42L379 1Z" />
<glyph unicode="&#x2022;" horiz-adv-x="322" d="M186 341Q210 319 227 289T249 227Q229 204 199 188T138 165Q115 185 98 215T73 277Q95 300 124 317T186 341Z" />
<glyph unicode="&#x2039;" horiz-adv-x="249" d="M176 41L12 236V250L176 446L207 422L86 243L207 63L176 41Z" />
<glyph unicode="&#x203a;" horiz-adv-x="248" d="M73 446L236 251V237L73 41L41 64L162 244L41 424L73 446Z" />
</font>
</defs>
</svg>
