<?xml version="1.0" standalone="no"?>
<!DOCTYPE svg PUBLIC "-//W3C//DTD SVG 1.1//EN" "http://www.w3.org/Graphics/SVG/1.1/DTD/svg11.dtd">
<svg xmlns="http://www.w3.org/2000/svg">
<defs >
<font id="Solitreo" horiz-adv-x="474" ><font-face
    font-family="Solitreo"
    units-per-em="1000"
    panose-1="0 0 0 0 0 0 0 0 0 0"
    ascent="880"
    descent="-550"
    alphabetic="0" />
<glyph unicode=" " glyph-name="space" horiz-adv-x="317" />
<glyph unicode="!" glyph-name="exclam" horiz-adv-x="235" d="M79 192Q69 192 63 194T57 207Q57 223 78 290T130 466T191 714Q196 735 211 738T244 741Q262 741 273 738T285 718Q285 699 275 653T247 548T208 426T163 311T118 225T79 192ZM-6 -5Q-22 -5 -26 0T-30
15Q-30 26 -26 39T-17 73Q-12 90 1 96T41 102Q64 102 73 97T82 75Q82 51 69 33T35 5T-6 -5Z" />
<glyph unicode="&quot;" glyph-name="quotedbl" horiz-adv-x="325" d="M177 539Q152 539 152 557Q152 568 180 601T250 699Q253 704 259 707T275 711Q291 711 308 703T325 678Q325 669 309 647T268 600T218 557T177 539ZM25 538Q0 538 0 556Q0 567 28 600T98 698Q101
703 107 706T123 710Q137 710 155 701T173 677Q173 668 156 646T115 599T65 556T25 538Z" />
<glyph unicode="#" glyph-name="numbersign" horiz-adv-x="496" d="M217 32Q210 32 204 34T197 46Q197 56 214 103T256 220Q222 219 194 219T132 218Q100 143 79 104T44 50T22 35Q2 35 2 49Q2 61 19 107T60 222Q38 224 18 230T-2 259Q-2 273 10 274T36 276H78Q98
332 117 393Q95 395 75 402T54 430Q54 444 66 446T92 448Q100 448 110 448T133 447Q146 491 157 536T179 625Q183 644 196 646T226 649Q243 649 253 647T263 628Q263 608 250 559T217 446Q244 446 273 447T330 451Q343 494 354 537T374 623Q378 641 392 644T422
647Q438 647 448 645T459 625Q459 606 448 564T419 466Q426 468 435 471T449 474Q463 474 475 458T487 428Q487 413 471 407T433 400T396 396Q387 371 378 345T358 293Q368 295 378 298T392 302Q407 302 418 287T430 257Q430 243 416 237T380 229T331 224Q309 171
287 128T247 58T217 32ZM155 275Q184 275 215 276T276 280Q294 333 312 391Q283 390 255 390T197 389Q187 361 177 332T155 275Z" />
<glyph unicode="$" glyph-name="dollar" horiz-adv-x="381" d="M65 -67Q56 -67 49 -65T42 -52Q42 -42 47 -27T61 14Q39 28 20 57T0 111Q0 132 11 132Q19 132 30 119T54 91T79 69Q96 119 117 183T161 318Q123 361 111 398T99 488Q102 525 121 554T171 600T237 617H244Q250
637 253 656Q258 677 268 680T298 683Q318 683 324 679T331 660Q331 650 328 634T320 595Q363 569 363 527Q363 499 348 499Q339 499 333 508T320 529T308 546Q286 462 252 356Q286 319 314 277T343 179Q343 131 320 88T256 18T159 -10Q130 -10 113 -6Q100 -34
87 -50T65 -67ZM195 428Q206 465 215 502T234 575Q215 575 194 554T173 494Q173 475 179 460T195 428ZM154 49Q187 49 209 68T242 117T254 177Q254 201 244 220T219 256Q200 199 180 147T140 50Q143 49 146 49T154 49Z" />
<glyph unicode="%" glyph-name="percent" horiz-adv-x="577" d="M170 0Q163 0 150 1T126 6T115 20Q115 39 128 75T165 158T216 256T274 358T332 450T382 522Q361 522 344 523T313 529Q313 489 290 455T228 399T139 377Q86 377 63 404T40 472Q40 540 82 585T202
631Q234 631 256 623T291 600Q304 587 330 577T382 567Q406 567 418 575T438 590T457 598Q465 598 471 595T478 584Q478 578 460 543T411 451T344 323T271 175T206 21Q202 8 192 4T170 0ZM136 418Q161 418 183 434T220 478T235 538Q235 561 224 576T191 592Q163
592 142 572T110 523T98 467Q97 444 108 431T136 418ZM383 1Q329 1 306 28T283 95Q283 134 300 171T353 231T446 255Q505 255 531 228T557 162Q557 124 538 87T480 26T383 1ZM380 42Q407 42 429 59T465 103T479 162Q479 185 467 200T435 215Q413 215 392 198T356
154T342 96Q342 73 350 58T380 42Z" />
<glyph unicode="&amp;" glyph-name="ampersand" horiz-adv-x="704" d="M130 -11Q104 -11 78 6T33 51T15 106Q15 120 41 151T113 224T215 310Q179 398 179 474Q179 524 204 566T273 635T373 661Q416 661 442 643T480 597T492 537Q492 448 309 290Q335 234 371 187Q493
276 553 316T620 356Q651 356 651 323Q651 318 643 306T612 272T545 214T429 127Q496 71 569 71Q621 71 637 66T654 47Q654 0 558 0Q461 0 367 87Q207 -11 130 -11ZM282 366Q403 473 403 529Q403 553 391 569T353 585Q325 585 306 567T277 520T267 463Q267 417
282 366ZM131 67Q183 67 310 148Q279 186 249 239Q172 175 138 143T103 92Q103 81 111 74T131 67Z" />
<glyph unicode="&apos;" glyph-name="quotesingle" horiz-adv-x="228" d="M54 537Q29 537 29 556Q29 567 57 600T127 698Q130 703 136 706T152 710Q166 710 184 701T202 677Q202 668 185 646T144 598T95 555T54 537Z" />
<glyph unicode="(" glyph-name="parenleft" horiz-adv-x="323" d="M263 -147Q210 -146 171 -123T103 -63T57 20T29 111T14 196T10 262Q10 341 30 414T83 548T155 654T235 725T308 750Q323 750 323 736Q323 727 317 723T305 714Q295 707 272 687T219 632T163 543T118
418T100 250Q100 222 107 179T127 88T162 -1T212 -71T278 -102Q306 -105 306 -121Q306 -134 292 -140T263 -147Z" />
<glyph unicode=")" glyph-name="parenright" horiz-adv-x="322" d="M14 -143Q0 -143 0 -129Q0 -122 4 -118T17 -108Q27 -102 50 -82T103 -27T159 62T204 189T222 356Q222 385 215 428T195 518T160 608T110 678T44 709Q16 712 16 728Q16 737 28 745T58 753Q81 753
113 739T180 696T245 618T293 503T312 345Q312 266 292 193T239 59T167 -47T87 -118T14 -143Z" />
<glyph unicode="*" glyph-name="asterisk" horiz-adv-x="317" d="M82 279Q68 279 65 284T61 298Q61 304 69 325T92 381Q77 382 60 385T30 397T17 420Q17 431 27 434T49 437H71Q61 448 49 463T36 488Q36 502 54 511T86 521Q103 521 111 509T129 483Q133 493 136
503T141 523Q146 541 162 544T194 548Q211 548 221 545T232 524Q232 514 224 493T204 445Q217 448 237 454T264 461Q280 461 291 445T302 414Q302 401 285 395T247 386T210 382Q230 358 246 339T262 313Q262 294 235 294Q216 294 194 314T152 351Q147 343 136 326T110
294T82 279Z" />
<glyph unicode="+" glyph-name="plus" horiz-adv-x="317" d="M75 107Q59 107 56 111T53 126Q53 131 64 157T89 220Q75 221 57 224T27 236T14 258Q14 270 24 273T46 276Q57 276 73 275T109 274Q117 296 124 318T138 362Q143 380 158 383T190 386Q207 386 217 383T228
363Q228 353 221 332T200 284Q221 286 237 293T261 300Q277 300 288 283T299 255Q299 247 292 240T257 227T166 219Q162 210 151 192T126 155T99 121T75 107Z" />
<glyph unicode="," glyph-name="comma" horiz-adv-x="207" d="M39 -113Q16 -113 16 -93Q16 -81 27 -62T54 -6T84 92Q86 100 97 110T134 121Q153 121 168 115T184 89Q184 76 175 52T150 0T115 -54T76 -96T39 -113Z" />
<glyph unicode="-" glyph-name="hyphen" horiz-adv-x="317" d="M136 198Q87 198 51 205T14 238Q14 250 24 253T46 256Q57 256 73 255T108 254Q178 254 215 267T261 280Q277 280 288 263T299 235Q299 226 289 218T244 204T136 198Z" />
<glyph unicode="." glyph-name="period" horiz-adv-x="167" d="M28 0Q9 0 5 5T0 22Q0 36 5 50T15 89Q20 113 40 117T83 122Q104 122 116 119T128 92Q128 65 113 44T74 12T28 0Z" />
<glyph unicode="/" glyph-name="slash" horiz-adv-x="286" d="M35 -96Q5 -96 -7 -91T-20 -72Q-20 -60 -9 -18T21 87T65 224T118 376T173 526T226 655T272 745T306 779Q316 779 321 774T326 760Q326 752 325 748T321 738Q246 523 187 322T70 -75Q66 -88 57 -92T35 -96Z" />
<glyph unicode="0" glyph-name="zero" horiz-adv-x="492" d="M206 0Q109 0 60 61T10 227Q10 290 25 357T71 482T153 575T273 611Q340 611 384 582T450 500T472 380Q472 332 461 279T428 177T374 87T299 24T206 0ZM196 58Q234 58 262 83T311 150T345 240T365 336T371
418Q371 458 363 491T334 544T280 564Q244 564 216 538T166 470T132 378T112 282T105 199Q105 161 112 129T140 78T196 58Z" />
<glyph unicode="1" glyph-name="one" horiz-adv-x="356" d="M77 -18Q61 -18 48 -16T35 5Q35 18 44 51T69 130T105 228T148 333T193 429Q163 404 133 382T78 346T41 332Q20 332 20 351Q20 364 41 377Q75 398 117 427T209 504T309 626Q321 645 329 653T349 662Q354
662 359 658T365 646Q365 643 350 604T310 499T255 353T193 183T136 9Q130 -10 115 -14T77 -18Z" />
<glyph unicode="2" glyph-name="two" horiz-adv-x="515" d="M341 -4Q309 -4 276 5T210 26T143 41Q119 19 102 10T68 1Q37 1 20 18T2 73Q2 108 25 127T83 147Q94 147 105 146T129 140Q164 171 203 213T276 301T331 394T353 482Q353 511 334 525T288 539Q259 539
229 523T179 482T159 428Q159 412 169 402T193 392Q210 392 222 403T252 414Q263 414 269 408T275 392Q275 374 257 362T215 343T170 336Q136 336 109 352T82 406Q82 447 104 484T162 552T241 599T328 616Q393 616 427 581T461 495Q461 450 441 405T390 315T323
232T255 161T200 106Q242 78 277 69T340 59Q373 59 397 67T444 75Q455 75 455 60Q455 43 437 29T392 5T341 -4Z" />
<glyph unicode="3" glyph-name="three" horiz-adv-x="506" d="M136 -9Q105 -9 75 0T25 26T5 68Q5 88 20 99T55 111Q76 111 88 99Q97 90 102 76T116 51T146 40Q202 40 246 65T317 134T343 231Q343 280 317 306T259 332Q242 332 232 329T201 325Q179 325 179 341Q179
354 198 360Q259 374 294 412T329 498Q329 531 312 550T269 570Q242 570 233 556T215 525Q209 515 196 508T159 500Q123 500 123 533Q123 550 139 569T188 603T275 617Q311 617 345 606T402 570T425 505Q425 472 411 435T359 371Q399 353 419 316T439 229Q439 168
412 123T340 49T242 5T136 -9Z" />
<glyph unicode="4" glyph-name="four" horiz-adv-x="438" d="M154 -178Q136 -178 133 -173T130 -157Q130 -153 139 -128T165 -64T201 23Q155 27 106 29T6 32Q-31 32 -47 46T-63 77Q-63 103 -39 122Q5 158 52 205T145 305T234 407T310 500T366 570T393 603Q399
609 404 613T416 617Q429 617 429 601Q429 583 411 545T361 458T290 354T208 249T125 155T51 87Q92 88 138 90T229 95Q250 148 269 199T298 287Q304 307 321 310T357 314Q377 314 388 311T399 288Q399 281 389 253T363 183T325 95Q341 95 358 94T388 86T401 63Q401
54 394 39T374 12T348 0Q338 0 319 4T285 11Q260 -40 235 -83T189 -152T154 -178Z" />
<glyph unicode="5" glyph-name="five" horiz-adv-x="506" d="M128 -9Q97 -9 67 0T17 26T-3 68Q-3 88 12 99T48 111Q68 111 80 99Q89 90 94 76T108 51T139 40Q194 40 238 67T308 141T335 241Q335 276 320 299T282 335T235 347Q208 347 186 336T150 313T128 302Q115
302 109 305T103 320Q103 327 113 353T138 419T170 502T197 587Q203 607 220 611T256 615Q294 615 322 609T374 597T421 590Q450 590 465 598T501 607Q521 607 521 592Q521 578 508 569T474 554T434 547T398 545Q364 545 341 550T293 556Q287 556 284 555Q271 528
255 493T224 429T203 388Q232 401 263 401Q345 401 388 355T431 238Q431 161 389 106T278 21T128 -9Z" />
<glyph unicode="6" glyph-name="six" horiz-adv-x="482" d="M224 -2Q159 -2 111 27T37 111T11 237Q11 304 31 372T88 503T173 614T278 691T392 720Q433 720 433 703Q433 696 428 691T408 679Q383 668 345 649T265 598T186 518T126 401T103 237Q103 190 114 146T152
74T229 46Q264 46 289 66T330 117T354 183T362 248Q362 297 343 323T287 350Q265 350 248 344T212 337Q199 337 194 344T188 361Q188 384 213 393T284 402Q359 402 399 355T440 231Q440 170 413 117T338 31T224 -2Z" />
<glyph unicode="7" glyph-name="seven" horiz-adv-x="356" d="M18 -179Q9 -179 -5 -178T-32 -173T-44 -157Q-44 -145 -28 -104T14 -6T72 112T136 227Q126 232 112 238T88 254T77 275Q77 292 94 305T127 319Q137 319 149 309T173 290Q211 353 247 411T315 510H306Q277
510 243 514T181 528T137 551Q120 520 94 496T47 471Q30 471 27 476T23 491Q23 500 28 519T41 560T53 601Q58 621 74 625T109 630Q131 630 146 620T178 597T222 573T293 563Q319 563 340 567T373 580Q381 586 385 591T400 596Q408 596 415 592T423 580Q423 577
411 552T378 488T334 405T289 321T252 251Q263 249 277 247T302 239T313 223Q313 208 297 201T267 194Q248 194 224 200Q180 118 139 33T59 -156Q52 -170 42 -174T18 -179Z" />
<glyph unicode="8" glyph-name="eight" horiz-adv-x="428" d="M142 -13Q82 -13 44 30T5 140Q5 190 21 227T66 295T134 356Q108 390 98 420T87 495Q87 530 107 560T160 608T227 626Q282 626 316 602T356 548V541Q360 545 363 550T371 560Q382 574 390 580T404 587Q412
587 415 581T419 564Q419 549 412 539Q380 483 334 439T242 356Q265 331 286 305T322 249T336 179Q336 132 311 88T242 15T142 -13ZM199 404Q233 429 266 454T329 511Q326 514 323 519T315 532Q307 548 288 566T238 584Q212 584 187 565T162 500Q162 473 172 450T199
404ZM149 47Q178 47 199 67T233 117T245 177Q245 217 225 247T179 305Q151 282 126 258T85 206T69 141Q69 98 93 73T149 47Z" />
<glyph unicode="9" glyph-name="nine" horiz-adv-x="424" d="M68 -29Q39 -29 6 -18T-50 13T-73 62Q-73 80 -59 91T-26 102Q-8 102 5 93Q14 86 20 68T39 35T74 20Q109 20 143 45T207 110T259 193T293 273Q271 257 242 247T175 237Q110 237 66 276T22 387Q22 429
40 469T92 543T167 595T255 615Q281 615 308 607T350 587Q351 597 362 603T388 612T410 615Q431 615 441 612T452 592Q452 570 446 526T427 425T392 306T341 184T271 76T181 0T68 -29ZM188 290Q227 290 255 307T301 353T329 411T338 469Q338 505 320 532T256 559Q226
559 199 543T151 502T117 447T104 391Q104 351 127 321T188 290Z" />
<glyph unicode=":" glyph-name="colon" horiz-adv-x="187" d="M70 231Q51 231 46 235T40 251Q40 266 45 280T57 319Q61 343 82 347T123 351Q144 351 157 347T170 322Q170 294 154 274T115 242T70 231ZM28 0Q9 0 5 5T0 22Q0 36 5 50T15 89Q20 113 40 117T83 122Q104
122 116 119T128 92Q128 65 113 44T74 12T28 0Z" />
<glyph unicode=";" glyph-name="semicolon" horiz-adv-x="197" d="M80 231Q61 231 56 235T50 251Q50 266 55 280T67 319Q71 343 92 347T133 351Q154 351 167 348T180 322Q180 294 164 274T125 242T80 231ZM-16 -115Q-40 -115 -40 -96Q-40 -84 -29 -65T-1 -9T30
89Q32 99 42 109T80 120Q97 120 113 114T130 88Q130 78 121 55T96 3T61 -53T22 -97T-16 -115Z" />
<glyph unicode="&lt;" glyph-name="less" horiz-adv-x="224" d="M156 -2Q147 -2 136 9T97 43T12 102Q3 107 0 118T-4 140Q-4 158 2 170Q7 182 32 212T99 307Q102 312 108 315T124 319Q137 319 155 310T174 286Q174 277 160 259T126 219T86 178T51 149Q62 141 82
126T124 93T159 56T174 23Q174 -2 156 -2Z" />
<glyph unicode="=" glyph-name="equal" horiz-adv-x="317" d="M135 232Q114 232 85 233T34 243T12 272Q12 283 22 286T44 290Q56 290 71 289T106 288Q154 288 185 294T234 307T259 314Q272 314 284 300T297 268Q297 260 287 252T243 238T135 232ZM128 126Q107
126 78 128T28 138T6 166Q6 178 16 181T38 184Q49 184 65 183T100 182Q167 182 205 195T253 208Q267 208 279 192T291 162Q291 153 280 145T234 131T128 126Z" />
<glyph unicode="&gt;" glyph-name="greater" horiz-adv-x="199" d="M41 2Q25 2 8 13T-9 38Q-9 46 -4 51Q11 70 34 92T82 134T125 165Q109 179 84 201T40 248T20 295Q20 306 26 312T39 319Q47 319 58 307T94 270T168 208Q176 203 179 194T182 176Q182 166 180 157T173
140Q166 128 139 100T64 12Q61 8 56 5T41 2Z" />
<glyph unicode="?" glyph-name="question" horiz-adv-x="319" d="M98 191Q88 191 81 198T73 222Q73 229 75 236T79 253Q91 294 119 334T178 414T232 495T254 581Q254 625 229 644T176 663Q143 663 117 644T76 592Q66 573 56 565T35 557Q25 557 18 566T10 590Q10
627 38 657T110 705T202 723Q245 723 280 707T337 660T359 586Q359 540 343 504T300 437T243 374T183 304T132 215Q128 205 118 198T98 191ZM47 -11Q31 -11 27 -6T23 9Q23 20 27 33T36 67Q40 88 58 92T94 96Q114 96 124 93T135 69Q135 45 122 27T88 -1T47 -11Z"
/>
<glyph unicode="@" glyph-name="at" horiz-adv-x="965" d="M342 -185Q278 -185 224 -163T129 -100T66 -6T43 107Q43 185 68 269T142 431T260 573T416 673T607 710Q701 710 769 670T875 558T913 393Q913 351 899 304T860 212T800 131T727 72T644 50Q607 50 585
70T555 123Q466 29 404 29Q374 29 344 47T292 92T271 148Q271 185 288 231T335 325T400 412T476 477T552 502Q578 502 604 485T649 440T669 379T650 314Q665 297 665 284Q665 268 657 249T641 209T632 170Q632 152 640 141T665 129Q689 129 717 152T769 214T810
297T826 387Q826 459 802 514T730 599T614 630Q533 630 461 600T329 517T226 397T158 254T134 103Q134 42 158 -5T229 -80T341 -107Q422 -107 474 -95T555 -71T600 -59Q613 -59 613 -73Q613 -93 587 -113T520 -149T432 -175T342 -185ZM398 103Q421 103 449 120T505
167T556 237T588 319Q591 333 605 334Q605 375 592 400T559 426Q535 426 507 405T452 351T401 279T364 205T350 146Q350 128 365 116T398 103Z" />
<glyph unicode="A" glyph-name="A" horiz-adv-x="608" d="M96 -10Q86 -10 74 -1T52 22T43 51Q43 61 100 193Q75 193 59 206T42 239Q42 259 141 290Q144 296 154 320T178 380T209 455T240 532T266 597T283 638Q294 665 321 684T375 704Q388 704 400 678T424 611T445
523T460 433T470 360Q484 362 496 364T519 367Q542 367 553 359T564 337Q564 318 476 293Q479 259 480 219T483 142T484 80Q484 38 481 19T470 -5T452 -10Q436 -10 427 7T415 46T409 84Q405 132 402 179T394 272Q343 259 297 247T200 220Q111 -10 96 -10ZM237 316Q272
326 309 333T387 348Q378 434 369 498T352 605Q330 553 301 481T237 316Z" />
<glyph unicode="B" glyph-name="B" horiz-adv-x="637" d="M158 -3Q124 -3 89 11T29 48T5 99Q5 108 10 114T23 120Q34 120 49 109T85 87T137 76Q123 83 111 102T98 138Q98 153 108 187T132 269T162 372T187 484T198 594Q179 594 165 605T142 630T134 653Q134 667
157 676T215 690T279 695Q419 695 495 657T571 547Q571 487 521 438T373 359Q433 356 478 339T549 294T575 234Q575 191 548 155T477 89T377 40T265 8T158 -3ZM244 377Q260 388 288 399T350 424T413 453T462 492T481 542Q481 579 446 595T361 612Q334 612 306 609T251
600Q279 570 279 543Q279 515 244 377ZM153 76Q215 78 274 93T382 131T459 183T488 238Q488 253 469 266T419 288T351 303T280 309Q253 309 233 337Q172 96 153 76Z" />
<glyph unicode="C" glyph-name="C" horiz-adv-x="599" d="M259 -3Q224 -3 190 13T127 57T82 120T65 191Q65 250 89 318T154 453T248 573T358 661T470 694Q489 694 507 678T538 640T551 599Q551 585 540 585Q530 585 515 592T477 600Q442 600 399 573T314 502T236
404T180 296T158 196Q158 141 186 116T261 90Q312 90 356 103T435 133T492 164T524 177Q539 177 539 162Q539 145 519 118T461 63T373 16T259 -3Z" />
<glyph unicode="D" glyph-name="D" horiz-adv-x="645" d="M148 -6Q135 -6 119 9T92 47T80 93Q80 143 96 206T135 339T177 476T201 608Q165 623 148 645T131 684Q131 701 151 701Q209 701 272 682T396 629T505 548T583 449T612 337Q612 304 588 267T524 190T435
116T333 54T233 10T148 -6ZM167 84Q207 89 254 110T349 161T434 226T496 293T520 348Q520 379 500 414T446 482T368 543T274 587Q276 578 277 570T279 550Q279 525 268 479T241 377T209 264T181 160T167 84Z" />
<glyph unicode="E" glyph-name="E" horiz-adv-x="585" d="M178 -5Q132 -5 98 22T63 90Q63 115 75 163T104 272T140 399T170 525T182 630Q182 657 209 669T287 686T404 690Q605 690 605 661Q605 655 600 649T573 636T508 624T385 612Q359 610 325 605T267 595Q267
522 230 387Q244 385 258 384T287 383Q336 383 379 391T448 400Q480 400 480 382Q480 363 455 350T390 328T301 317T208 313Q154 142 154 106Q154 94 161 87T181 79Q266 79 329 91T432 116T487 128Q502 128 502 107Q502 89 472 70T392 33T286 6T178 -5Z" />
<glyph unicode="F" glyph-name="F" horiz-adv-x="523" d="M106 -4Q98 -4 86 10T65 41T56 71Q56 111 68 163T97 275T132 396T161 518T173 630Q173 654 191 668T254 687T375 693Q448 693 491 689T555 679T582 666T589 655Q589 650 580 644T537 632T436 617T252 598Q254
562 244 509T214 373Q287 369 338 375T435 382Q473 382 473 366Q473 349 451 337T395 315T322 301T249 294T195 293Q189 261 180 222T161 143T141 70T122 17T106 -4Z" />
<glyph unicode="G" glyph-name="G" horiz-adv-x="605" d="M405 -109Q379 -109 379 -80Q379 -48 392 -4T422 89T453 177H450Q401 94 340 46T219 -3Q190 -3 160 11T104 51T62 107T46 171Q46 223 63 281T111 399T181 511T266 607T360 673T453 697Q475 697 493 680T523
641T535 604Q535 589 524 589Q517 589 503 596T461 604Q418 604 373 576T286 501T210 397T157 280T137 170Q137 134 160 109T214 83Q246 83 286 106T368 172T446 268V271Q421 263 402 260T363 256Q336 256 317 270T298 298Q298 304 308 312T350 326T449 333Q486
333 508 303T530 232Q530 219 523 189T505 120T481 41T453 -33T426 -88T405 -109Z" />
<glyph unicode="H" glyph-name="H" horiz-adv-x="670" d="M120 -3Q112 -3 99 9T76 40T66 74Q66 98 110 270Q97 275 88 287T78 316Q78 329 130 345Q197 607 197 670Q197 687 201 693T220 700Q228 700 242 686T267 648T278 600Q278 561 229 368Q361 395 488 403Q539
611 539 670Q539 700 559 700Q571 700 585 686T611 649T622 605Q622 571 577 401Q623 394 623 374Q623 353 561 340Q536 246 519 184T492 84T476 28T465 3T455 -3Q448 -3 437 8T417 36T408 69Q408 94 468 326Q322 306 205 280Q182 197 167 133T142 33T120 -3Z"
/>
<glyph unicode="I" glyph-name="I" horiz-adv-x="310" d="M116 -1Q110 -1 99 10T78 38T68 67Q68 82 76 124T99 226T128 352T157 480T179 593T188 668Q188 685 192 691T212 698Q221 698 235 684T261 647T273 601Q273 589 264 546T241 440T210 309T177 173T147 58Q137
18 129 9T116 -1Z" />
<glyph unicode="J" glyph-name="J" horiz-adv-x="468" d="M202 -7Q166 -7 132 9T69 49T25 99T8 145Q8 174 26 174Q35 174 50 159T87 125T132 90T185 75Q218 75 246 145Q274 217 297 302T345 470T401 620Q375 616 343 609T278 594T220 581T182 575Q145 575 145
600Q145 615 170 630T233 658T315 682T395 698T452 704Q468 704 482 697T497 670Q497 651 452 518T333 134Q316 76 294 46T248 4T202 -7Z" />
<glyph unicode="K" glyph-name="K" horiz-adv-x="591" d="M104 0Q86 0 70 23T54 73Q54 93 63 135T87 234T119 351T150 472T174 582T184 666Q184 684 188 691T207 698Q216 698 229 684T251 646T261 596Q261 556 209 359Q293 473 361 547T473 656T529 692Q549 692
566 680T584 656Q584 648 560 622T498 560T418 481T336 397T272 320Q272 253 317 194T438 98Q476 80 507 63T538 26Q538 0 499 0Q455 0 408 19T319 72T247 152T204 251Q173 197 146 106Q130 53 123 27T104 0Z" />
<glyph unicode="L" glyph-name="L" horiz-adv-x="546" d="M181 -3Q149 -3 122 10T79 44T62 92Q62 113 72 155T97 251T130 364T163 482T189 591T199 675Q199 691 203 698T223 705Q232 705 246 693T270 664T281 627Q281 601 272 557T248 458T217 347T186 240T162
155T152 108Q152 81 178 81Q254 81 314 93T417 118T477 130Q492 130 492 113Q492 92 464 72T390 34T289 7T181 -3Z" />
<glyph unicode="M" glyph-name="M" horiz-adv-x="789" d="M104 0Q96 0 85 12T65 42T56 76Q56 97 65 137T89 230T120 343T151 462T175 575T185 668Q185 685 189 691T207 698Q215 698 233 685T266 655T283 623Q286 599 302 549T344 436T399 310Q455 376 507 443T602
565T677 653T725 687Q737 687 750 678T773 655T783 629Q783 606 773 559T745 448T709 316T672 180T642 58Q629 0 614 0Q598 0 586 25T574 89Q574 105 580 140T597 224T622 326T651 432T683 528Q637 471 593 414T509 311T437 236T382 208Q361 208 342 232T304 298T270
388T238 485Q227 414 211 348T180 226T152 129Q137 74 125 37T104 0Z" />
<glyph unicode="N" glyph-name="N" horiz-adv-x="677" d="M99 -3Q82 -3 68 20T53 68Q53 82 62 124T87 225T119 350T151 479T175 592T185 669Q185 701 202 701Q213 701 232 683T261 642Q422 224 465 130Q484 181 499 242T526 368T546 490T558 593T562 660Q562 703
583 703Q595 703 609 692T634 664T645 632Q645 613 641 570T628 468T608 345T582 219T550 107T512 27T471 -3Q446 -3 424 33T376 135T318 290T239 486Q211 387 191 299T155 142T126 36T99 -3Z" />
<glyph unicode="O" glyph-name="O" horiz-adv-x="613" d="M219 -3Q186 -3 157 15T104 62T67 126T54 194Q54 266 75 338T131 476T211 592T303 672T396 702Q452 702 496 667T566 574T592 453Q592 396 572 333T516 211T433 103T331 26T219 -3ZM225 76Q258 76 295
99T369 162T435 250T482 349T500 444Q500 521 471 569T401 617Q370 617 336 589T267 516T206 415T162 303T145 200Q145 145 169 111T225 76Z" />
<glyph unicode="P" glyph-name="P" horiz-adv-x="543" d="M95 -5Q86 -5 74 5T52 31T43 63Q43 82 55 126T85 231T121 357T152 486T166 599Q142 621 142 639Q142 651 161 663T210 686T274 703T340 710Q404 710 453 688T531 626T559 533Q559 461 512 404T380 305T182
242Q109 -5 95 -5ZM204 320Q284 341 344 374T437 446T471 527Q471 571 438 599T362 628Q329 628 304 621T243 598Q253 576 253 557Q253 501 204 320Z" />
<glyph unicode="Q" glyph-name="Q" horiz-adv-x="641" d="M480 -159Q435 -159 362 32Q301 0 237 0Q205 0 173 16T115 59T73 122T57 194Q57 254 74 323T124 458T198 579T291 666T396 699Q438 699 476 679T543 623T590 544T607 452Q607 388 584 319T521 187T429
78Q457 -1 481 -57T505 -136Q505 -159 480 -159ZM398 171Q449 231 482 304T516 449Q516 496 499 534T456 594T403 616Q387 616 368 608Q345 576 345 511Q345 348 398 171ZM254 76Q272 76 292 85T334 111Q263 333 263 457Q263 496 270 525Q234 481 206 427T162 314T145
201Q145 168 160 140T200 94T254 76Z" />
<glyph unicode="R" glyph-name="R" horiz-adv-x="584" d="M93 -4Q87 -4 76 6T56 32T47 63Q47 82 57 122T84 215T117 330T147 454T165 574Q152 582 142 599T132 629Q132 644 163 661T245 689T351 701Q405 701 451 683T526 632T554 550Q554 501 528 458T460 389Q406
356 373 338T321 309T296 294T289 284Q289 277 295 263T326 221T407 148Q464 101 491 77T526 42T534 21Q534 -3 501 -3Q477 -3 442 16T368 68T293 138T231 213T194 279Q182 240 169 192T141 99T115 25T93 -4ZM209 332Q234 351 267 368T334 404T397 443T445 490T463
550Q463 612 355 612Q306 612 241 587Q251 565 251 547Q251 482 209 332Z" />
<glyph unicode="S" glyph-name="S" horiz-adv-x="531" d="M225 1Q161 1 112 24T34 81T5 144Q5 174 23 174Q36 174 51 160T88 127T136 94T199 79Q246 79 286 96T352 139T378 193Q378 217 355 247T297 309T229 374T171 437T147 490Q147 535 175 573T247 639T343
683T439 699Q468 699 488 680T508 640Q508 628 483 622T422 608T348 586Q290 564 262 547T233 509Q233 493 256 469T315 414T385 348T444 273T468 194Q468 140 434 96T344 27T225 1Z" />
<glyph unicode="T" glyph-name="T" horiz-adv-x="535" d="M219 -1Q209 -1 197 9T176 36T167 67Q167 93 177 137T202 239T235 361T265 489T284 612Q235 611 191 608T113 604Q103 604 91 614T71 638T63 666Q63 671 67 675T86 683T134 689T225 692T373 694Q390 694
418 692T479 685T540 672T587 652T605 623Q605 604 572 604Q532 603 478 607T367 613Q363 584 353 533T329 420T301 296T275 180T254 92T244 52Q230 -1 219 -1Z" />
<glyph unicode="U" glyph-name="U" horiz-adv-x="598" d="M241 -9Q199 -9 164 19T107 93T85 192Q85 250 97 313T127 441T156 563T169 669Q169 686 173 692T192 699Q201 699 216 687T242 655T254 611Q254 590 246 552T226 465T202 368T181 275T173 203Q173 146
194 111T248 76Q288 76 322 107T385 191T434 305T466 429T477 542Q477 593 473 621T468 678Q468 699 486 699Q501 699 520 684T554 640T569 576Q569 503 556 422T517 265T452 126T360 28T241 -9Z" />
<glyph unicode="V" glyph-name="V" horiz-adv-x="532" d="M243 -7Q231 -7 214 12T187 57Q178 79 166 127T141 237T115 367T92 495T75 602T69 667Q69 698 86 698Q107 698 127 676T164 622Q167 617 172 585T185 502T201 396T218 285T234 188T247 127Q302 269 346
368T425 532T483 633T523 683T545 698Q561 698 577 687T593 659Q593 648 574 610T524 514T453 381T373 224T296 54Q283 21 269 7T243 -7Z" />
<glyph unicode="W" glyph-name="W" horiz-adv-x="782" d="M130 -1Q119 -1 106 10T82 43T72 91Q72 140 80 206T99 347T118 503T126 661Q126 698 148 698Q163 698 182 686T215 657T229 625Q229 618 224 583T211 497T194 387T176 273T161 175T154 115Q184 166 220
215T291 305T356 369T401 393Q435 393 448 243Q451 206 458 172T478 115T507 93Q535 93 560 117T604 183T635 277T646 384Q646 418 639 456T618 529T582 585T531 607Q508 607 490 618T461 644T450 670Q450 699 498 699Q576 699 628 657T708 540T735 372Q735 302
717 236T666 116T592 31T505 0Q464 0 439 28T401 99T381 189T372 277Q364 265 342 234T292 163T232 86T174 24T130 -1Z" />
<glyph unicode="X" glyph-name="X" horiz-adv-x="624" d="M506 -1Q481 -1 424 71Q366 142 301 249Q288 232 269 206T229 154T194 108T174 83Q162 69 146 50T110 15T72 0Q59 0 42 12T25 34Q25 44 30 51T49 72Q130 160 257 326Q122 569 122 672Q122 699 136 699Q156
699 175 692T208 675T222 651Q222 559 312 400Q453 595 500 645Q546 695 574 695Q582 695 594 685T616 662T626 643Q626 626 611 619T575 590Q538 554 358 322Q398 256 438 198T505 97T532 32Q532 16 524 8T506 -1Z" />
<glyph unicode="Y" glyph-name="Y" horiz-adv-x="575" d="M212 -11Q190 -11 190 25Q190 53 218 110Q224 122 236 147T263 199T288 248T302 275Q252 288 213 325T147 416T106 528T92 645Q92 663 102 679T132 696Q141 696 147 687T161 652T181 576Q191 535 207 496T244
424T285 372T324 353Q336 353 354 378T395 442T440 524T485 607T527 671T560 696Q582 696 594 681T607 649Q607 634 598 614T569 561Q520 480 469 394T370 224T282 64Q262 25 244 7T212 -11Z" />
<glyph unicode="Z" glyph-name="Z" horiz-adv-x="620" d="M160 0Q135 0 112 16T74 57T59 104Q59 127 80 158T136 224T208 291T278 350T330 393Q479 516 479 559Q479 574 459 583T406 598T337 603Q304 603 273 600T219 592T188 588Q174 588 159 599T134 625T124
653Q124 664 141 671T184 682T233 688T271 690Q316 690 362 684T446 666T503 641Q523 627 542 602T562 547Q562 526 543 495T492 427T420 356Q373 314 327 276T242 204T180 148T157 113Q157 87 183 87Q208 87 245 90T323 99T401 108T465 116T502 120Q537 120 537
96Q537 87 510 72T433 40T314 12T160 0Z" />
<glyph unicode="[" glyph-name="bracketleft" horiz-adv-x="307" d="M129 -162Q108 -162 95 -159T68 -146Q64 -154 55 -156T35 -159Q11 -159 -4 -156T-20 -135Q-20 -118 -14 -67T4 58T29 214T59 381T89 537T116 659T138 725Q143 733 149 734T163 736Q167 736 172
736T186 735Q221 735 249 747T293 760Q303 760 313 747T330 718T337 692Q337 683 332 679T321 672Q302 668 276 663T224 657Q197 657 174 666Q170 629 162 564T143 417T121 247T100 73T83 -83Q93 -84 98 -84T110 -84Q147 -84 173 -72T217 -59Q227 -59 232 -69T240
-94T242 -121Q242 -140 214 -151T129 -162Z" />
<glyph unicode="\" glyph-name="backslash" horiz-adv-x="307" d="M272 -96Q260 -96 251 -92T237 -75Q179 120 120 321T-14 738Q-15 743 -17 747T-19 760Q-19 768 -14 773T1 779Q14 779 34 746T80 655T133 526T189 377T241 225T285 87T316 -18T327 -72Q327 -86
315 -91T272 -96Z" />
<glyph unicode="]" glyph-name="bracketright" horiz-adv-x="320" d="M93 -162Q76 -162 49 -159T1 -145T-20 -118Q-20 -95 -10 -77T16 -59Q29 -59 45 -65T80 -79T121 -86Q130 -86 138 -86T153 -84Q157 -50 165 8T184 137T208 285T234 434T261 566T285 661Q269
658 252 658Q226 658 200 662T156 673T139 689Q139 700 146 717T163 747T183 760Q193 760 210 754T248 742T291 735Q299 735 305 735T317 736Q340 736 340 718Q340 715 336 680T325 587T308 456T289 301T270 140T254 -12T241 -139Q240 -152 229 -156T206 -160Q196
-160 177 -159T153 -147Q141 -155 126 -158T93 -162Z" />
<glyph unicode="^" glyph-name="asciicircum" horiz-adv-x="331" d="M28 369Q0 369 0 388Q0 397 15 413T55 459T105 531Q110 540 120 543T142 547Q160 547 172 541Q184 536 214 511T309 444Q314 442 317 436T321 419Q321 404 312 387T288 369Q279 369 259 384T217
420T175 462T149 492Q141 481 126 461T94 419T59 384T28 369Z" />
<glyph unicode="_" glyph-name="underscore" horiz-adv-x="472" d="M185 -87Q129 -87 86 -84T33 -71Q20 -59 20 -46Q20 -35 28 -32T58 -29Q78 -29 108 -29T176 -30Q254 -30 297 -26T362 -17T393 -7T414 -3Q428 -3 440 -18T452 -48Q452 -55 444 -62T410 -74T331
-83T185 -87Z" />
<glyph unicode="`" glyph-name="grave" horiz-adv-x="207" d="M173 519Q155 519 129 543T51 600Q38 609 22 621T6 652Q6 661 12 673T30 695T54 705Q65 705 91 679Q138 632 161 607T191 569T199 547Q199 537 191 528T173 519Z" />
<glyph unicode="a" glyph-name="a" horiz-adv-x="469" d="M142 -5Q112 -5 81 13T28 60T7 116Q7 160 26 211T77 311T147 401T224 466T297 491Q342 491 380 446Q398 424 408 405T418 366Q418 347 413 328T393 289Q405 274 405 263Q405 226 393 167T368 20Q365 -5
350 -5Q338 -5 330 7T317 39T310 77T307 108Q218 -5 142 -5ZM138 78Q170 78 207 107T278 185T326 296Q329 310 343 315Q343 408 306 408Q281 408 252 387T195 331T143 256T105 179T91 116Q91 99 105 89T138 78Z" />
<glyph unicode="b" glyph-name="b" horiz-adv-x="525" d="M74 -5Q65 -5 53 5T31 30T22 57Q22 65 31 100T54 190T85 312T115 454T139 601T148 741Q148 771 170 771Q181 771 195 757T221 723T232 684Q232 561 178 333Q297 494 394 494Q430 494 455 470T493 410T506
337Q506 299 493 254T456 162T400 79T328 18T245 -5Q172 -5 107 63Q83 -5 74 -5ZM233 72Q266 72 299 96T361 160T406 249T423 347Q423 406 387 406Q349 406 303 369T213 269T134 132Q181 72 233 72Z" />
<glyph unicode="c" glyph-name="c" horiz-adv-x="445" d="M193 -5Q154 -5 117 16T56 72T32 149Q32 187 48 233T92 324T156 408T232 468T312 491Q339 491 362 474T400 432T415 389Q415 379 409 375T395 370Q385 370 374 379T350 397T319 406Q297 406 271 389T219
342T170 278T135 208T121 145Q121 114 140 96T204 78Q252 78 284 88T337 109T371 120Q390 120 390 101Q390 86 371 68T321 34T256 6T193 -5Z" />
<glyph unicode="d" glyph-name="d" horiz-adv-x="499" d="M133 -5Q104 -5 78 14T35 61T18 118Q18 159 32 209T70 308T128 399T201 466T282 491Q353 491 381 406Q407 512 421 596T437 741Q439 771 459 771Q470 771 484 757T510 723T522 686Q522 674 515 631T494
525T464 391T430 249T396 122T366 30T344 -5Q331 -5 314 13Q307 20 302 29T297 52Q297 59 299 70T304 95Q206 -5 133 -5ZM144 75Q164 75 193 91T253 134T310 198T349 273Q349 335 331 371T286 408Q255 408 222 381T162 310T117 215T100 115Q100 97 113 86T144 75Z"
/>
<glyph unicode="e" glyph-name="e" horiz-adv-x="450" d="M195 -5Q143 -5 104 16T42 75T19 159Q19 199 32 244T70 332T127 412T197 469T274 491Q304 491 331 476T381 435T417 381T430 326Q430 293 411 270T362 233T298 212T233 205Q168 205 111 221Q97 177 97
143Q97 108 118 89T190 70Q226 70 260 79T318 96T349 105Q375 105 375 85Q375 72 358 56T314 27T256 4T195 -5ZM225 269Q276 269 314 285T352 329Q352 347 341 366T312 399T279 412Q242 412 202 374T134 278Q174 269 225 269Z" />
<glyph unicode="f" glyph-name="f" horiz-adv-x="376" d="M103 -7Q94 -7 84 2T67 23T60 44Q60 55 72 96T102 203T138 347Q119 343 105 340T80 337Q59 337 45 353T31 381Q31 396 61 407T156 430Q177 561 202 633T263 735T347 764Q383 764 409 745T448 694T462 626Q462
607 455 593T433 578Q409 578 394 632Q388 658 375 672T346 686Q336 686 325 678T301 646T274 573T244 443Q266 446 286 447T324 448Q352 448 369 441T387 420Q387 411 377 402T332 384T225 365Q154 77 128 22Q114 -7 103 -7Z" />
<glyph unicode="g" glyph-name="g" horiz-adv-x="475" d="M153 -267Q106 -267 68 -249T8 -204T-15 -152Q-15 -136 -6 -120T15 -104Q24 -104 36 -118T64 -151T99 -184T143 -199Q169 -199 188 -180T220 -129T243 -63T260 3T272 53Q194 -5 145 -5Q112 -5 85 13T41
62T24 127Q24 160 39 206T82 302T145 395T221 464T301 491Q341 491 366 464T404 397T417 316Q417 310 417 306T415 298Q427 281 427 265Q427 252 413 222T378 138T334 -1Q308 -102 284 -160T230 -242T153 -267ZM144 78Q169 78 200 94T262 137T318 201T358 276Q354
290 352 311T345 355T332 393T306 408Q283 408 256 388T202 335T153 263T118 186T105 116Q105 99 116 89T144 78Z" />
<glyph unicode="h" glyph-name="h" horiz-adv-x="536" d="M75 -5Q67 -5 55 5T33 30T23 57Q23 68 26 81T34 114Q45 157 60 219T90 352T119 494T141 627T149 732Q149 771 173 771Q186 771 200 757T225 722T235 683Q235 650 227 593T203 462T166 308T118 149H121Q177
249 219 312T291 412T342 466T377 487T401 491Q418 491 440 470T479 418T496 356Q496 341 491 309T475 235T452 152T422 75T389 17T354 -5Q332 -5 332 25Q332 49 343 87T370 171T397 259T409 335Q409 356 400 366T376 377Q357 377 330 350T273 279T212 186T154
94T106 23T75 -5Z" />
<glyph unicode="i" glyph-name="i" horiz-adv-x="238" d="M242 555Q226 555 207 569T173 601T159 633Q159 653 175 671T208 689Q218 689 233 670T259 625T270 581Q270 571 261 563T242 555ZM62 -4Q48 -4 38 7T28 34Q28 38 35 72T54 155T79 260T105 363T125 442Q139
491 154 491Q167 491 179 480T199 454T207 423Q207 395 193 339T156 208T105 46Q88 -4 62 -4Z" />
<glyph unicode="j" glyph-name="j" horiz-adv-x="254" d="M256 555Q240 555 221 568T187 600T172 633Q172 654 187 671T221 689Q233 689 247 670T272 625T283 581Q283 571 274 563T256 555ZM-76 -265Q-101 -265 -127 -253T-174 -223T-208 -186T-221 -151Q-221
-137 -211 -120T-191 -103Q-179 -103 -167 -117T-142 -149T-113 -182T-75 -196Q-50 -196 -30 -163T6 -71Q28 9 46 88T84 253T131 442Q146 491 160 491Q177 491 195 470T213 423Q213 407 205 367T182 271T150 151T114 19T80 -108Q37 -265 -76 -265Z" />
<glyph unicode="k" glyph-name="k" horiz-adv-x="469" d="M80 -5Q70 -5 58 6T38 33T29 58Q29 72 37 101T62 187Q78 244 95 314T126 459T150 607T159 743Q159 759 163 765T183 771Q193 771 207 757T231 723T242 684Q242 639 233 575T206 435T167 281T120 131Q142
163 175 209T246 304T318 395T380 464T418 491Q431 491 443 482T464 462T473 443Q473 433 455 414T411 369T359 314T314 253T296 193Q296 174 301 157T318 122Q336 97 363 79T411 46T433 20Q433 -5 394 -5Q387 -5 366 0T318 22T266 71T224 158Q191 112 166 80T126
30Q97 -5 80 -5Z" />
<glyph unicode="l" glyph-name="l" horiz-adv-x="245" d="M80 -5Q71 -5 59 5T38 29T29 51Q29 56 37 90T59 180T87 305T115 451T136 603T145 745Q145 759 149 765T166 771Q175 771 189 758T216 725T228 687Q228 618 219 541T195 386T163 238T129 113T99 27T80 -5Z" />
<glyph unicode="m" glyph-name="m" horiz-adv-x="796" d="M75 -5Q67 -5 54 6T32 30T22 52Q22 74 33 110T59 196T85 308T96 442Q96 473 101 484T117 495Q132 495 146 484T171 458T181 426Q181 339 115 136H118Q181 263 229 341T315 455T385 491Q404 491 425 472T461
422T476 359Q476 337 474 313T464 262H467Q526 375 578 433T678 491Q698 491 715 472T744 422T755 356Q755 329 748 285T729 191T701 97T665 24T626 -5Q614 -5 610 2T606 26Q606 52 616 85T639 159T663 244T674 337Q674 363 670 377T654 392Q632 392 606 364T553
290T499 194T449 98T406 25T373 -4Q360 -4 345 11T330 43Q330 60 340 84T365 144T389 228T400 342Q400 363 391 377T371 392Q353 392 328 361T270 278T198 162T114 32Q89 -5 75 -5Z" />
<glyph unicode="n" glyph-name="n" horiz-adv-x="533" d="M76 -5Q66 -5 54 5T32 31T23 57Q23 64 34 96T60 180T86 293T97 422Q97 495 118 495Q133 495 148 484T173 457T184 422Q184 404 177 361T157 267T129 169H132Q184 260 222 319T288 413T333 464T364 486T385
491Q411 491 435 472T476 423T492 363Q492 338 484 294T463 198T431 101T393 25T351 -5Q329 -5 329 25Q329 49 341 86T369 167T397 254T409 332Q409 350 403 371T381 393Q372 393 362 388T336 365T293 308T223 202T115 32Q102 12 93 4T76 -5Z" />
<glyph unicode="o" glyph-name="o" horiz-adv-x="453" d="M155 -5Q121 -5 94 16T52 75T36 162Q36 201 48 245T82 333T134 412T200 469T278 491Q317 491 348 468T398 406T417 318Q417 254 395 196T336 93T252 21T155 -5ZM160 63Q191 63 221 88T277 154T318 239T333
321Q333 344 327 368T310 410T290 428Q266 428 242 409T196 359T157 292T131 219T121 154Q121 122 132 93T160 63Z" />
<glyph unicode="p" glyph-name="p" horiz-adv-x="478" d="M3 -262Q-3 -262 -13 -252T-30 -227T-38 -202Q-38 -192 -30 -156T-6 -56Q90 333 90 468Q90 498 112 498Q124 498 140 486T169 454T181 413Q181 395 177 378Q266 494 358 494Q383 494 402 477T436 434T457
379T465 326Q465 282 444 236T387 147T306 70T214 17T124 -3Q106 -3 86 2Q75 -44 68 -76T54 -135T39 -194Q29 -230 21 -246T3 -262ZM104 75Q155 75 203 97T291 157T354 238T377 325Q377 408 338 408Q319 408 288 388T224 332T164 249T122 147L104 75Z" />
<glyph unicode="q" glyph-name="q" d="M223 -265Q215 -265 206 -255T191 -231T185 -210Q185 -197 192 -170T212 -108T237 -39T262 24T278 67Q244 34 204 15T129 -5Q106 -5 80 15T35 64T16 123Q16 160 34 208T82 306T151 398T231 465T310 491Q344 491 371 472T414
429T430 389Q430 366 412 366Q401 366 387 377T358 399T327 411Q299 411 268 390T206 333T150 258T109 180T94 116Q94 100 105 89T132 78Q159 78 192 94T257 140T314 210T352 299Q355 314 373 314Q385 314 398 307T421 289T431 269Q431 252 418 213T383 118T335
-5T283 -147Q356 -98 396 -98Q406 -98 415 -106T424 -125Q424 -137 397 -154T334 -194Q310 -210 287 -226T247 -254T223 -265Z" />
<glyph unicode="r" glyph-name="r" horiz-adv-x="351" d="M71 -7Q53 -7 43 13T33 48Q33 71 42 99T62 165T82 253T91 369Q91 388 90 411T88 454Q88 469 93 480T110 491Q134 491 149 463T165 403Q165 378 162 358Q249 490 327 490Q376 490 376 466Q376 454 366 443T330
421Q296 405 268 380T215 313T164 202T108 33Q102 13 92 3T71 -7Z" />
<glyph unicode="s" glyph-name="s" horiz-adv-x="426" d="M190 -5Q142 -5 100 11T32 52T6 96Q6 106 11 115T27 124Q42 124 58 111T100 85T170 72Q223 72 251 84T280 122Q280 145 252 170T188 215Q154 235 125 264T95 323Q95 350 119 379T179 433T252 475T317 491Q340
491 361 473T397 431T411 388Q411 371 395 371Q384 371 372 380T346 397T314 406Q302 406 281 399T239 378T202 350T187 319Q187 296 279 240Q314 218 342 184T371 110Q371 84 346 57T280 13T190 -5Z" />
<glyph unicode="t" glyph-name="t" horiz-adv-x="387" d="M169 -5Q137 -5 111 7T71 39T56 76Q56 120 81 195T138 381Q115 376 99 373T75 370Q59 370 44 386T28 418Q28 442 158 464Q176 547 176 611Q176 641 196 641Q204 641 219 633T249 609T263 568Q263 552 259
530T246 476Q275 478 297 480T337 482Q397 482 397 455Q397 450 386 442T338 423T228 399Q224 383 214 349T192 274T169 193T151 127T143 95Q143 76 165 76Q186 76 210 82T257 97T296 112T318 119Q336 119 336 100Q336 85 320 67T277 33T222 6T169 -5Z" />
<glyph unicode="u" glyph-name="u" horiz-adv-x="481" d="M129 -5Q97 -5 72 13T31 58T16 111Q16 149 26 198T53 299T89 394T128 464T164 491Q182 491 195 475T209 437Q209 429 182 373Q164 336 146 290T114 197T101 112Q101 96 111 86T135 75Q174 75 226 142Q261
187 292 242T347 355T385 463Q389 479 393 485T411 491Q420 491 432 479T454 449T463 415Q463 410 456 385T438 321T413 240T387 155T365 83T351 37Q339 -5 317 -5Q300 -5 293 9T285 44Q285 61 293 92T309 151Q267 83 219 39T129 -5Z" />
<glyph unicode="v" glyph-name="v" horiz-adv-x="422" d="M196 -7Q183 -7 164 12T136 53Q125 78 113 119T89 208T68 304T53 393T47 461Q47 491 65 491Q87 491 112 474T142 426Q149 387 153 333T166 219T198 103Q233 178 267 261T333 426Q343 452 354 471T376 491Q393
491 409 479T425 451Q425 442 415 415T389 348T353 264T313 178T277 102T250 49Q218 -7 196 -7Z" />
<glyph unicode="w" glyph-name="w" horiz-adv-x="673" d="M154 -7Q140 -7 125 6T100 40Q91 61 83 101T69 192T57 293T50 387T47 456Q47 497 72 497Q87 497 100 485T122 456T134 423Q139 385 139 333T142 219T158 88Q199 159 241 266Q265 327 284 379T322 463T357
495Q390 495 411 465T433 385Q433 338 430 291T426 197Q426 158 427 130T433 84Q476 129 507 189T555 302Q569 348 579 393T600 469T626 499Q645 499 660 484T675 448Q675 396 629 280Q610 226 583 175T527 83T473 17T429 -7Q394 -7 377 32Q368 52 363 92T357 181T356
282T360 373Q291 187 238 89Q186 -7 154 -7Z" />
<glyph unicode="x" glyph-name="x" horiz-adv-x="427" d="M40 -5Q30 -5 18 2T-2 20T-10 38Q-10 47 12 69Q61 118 97 157T157 227Q134 268 115 306T79 379Q58 421 53 442T47 475Q47 485 53 488T75 491Q86 491 103 486T134 472T148 450Q148 409 207 294Q248 349
278 387T328 447Q367 491 386 491Q399 491 411 484T433 466T442 448Q442 436 435 428T413 408Q382 383 346 337T250 217Q288 150 314 111T351 54Q367 29 367 16Q367 6 360 1T343 -5Q298 -5 199 156Q68 -5 40 -5Z" />
<glyph unicode="y" glyph-name="y" horiz-adv-x="469" d="M142 -265Q104 -265 67 -249T6 -208T-19 -159Q-19 -146 -7 -129T15 -111Q21 -111 27 -116T44 -133Q103 -199 143 -199Q164 -199 182 -173T224 -84T284 92Q214 -5 144 -5Q116 -5 90 13T48 61T31 126Q31
155 40 200T66 296T101 391T139 463T175 491Q195 491 209 475T224 441Q224 431 213 406T186 346T155 271T128 190T117 112Q117 96 127 86T151 75Q175 75 206 104T269 183T329 291Q346 328 364 375T402 480Q407 491 422 491Q433 491 445 480T466 452T475 415Q475
402 462 359T428 255T382 125T333 -9T292 -122Q241 -265 142 -265Z" />
<glyph unicode="z" glyph-name="z" horiz-adv-x="440" d="M118 -5Q90 -5 64 10T20 47T3 87Q3 105 26 132T87 189T164 246Q325 359 325 386Q325 405 223 405Q193 405 162 400T108 394Q97 394 85 404T63 427T54 451Q54 462 70 469T109 482T155 489T190 492Q286 492
344 469T403 389Q403 364 381 333T326 272T255 215Q219 190 185 167T129 125T107 95Q107 78 133 78Q224 78 282 86T372 94Q411 94 411 71Q411 55 383 41T311 17T216 1T118 -5Z" />
<glyph unicode="{" glyph-name="braceleft" horiz-adv-x="340" d="M193 -175Q139 -175 107 -130T61 1T47 206Q47 224 44 245T34 285T16 308Q0 317 0 326Q0 334 7 342T25 350Q54 350 78 379T126 453T172 550T222 646T281 721T353 750Q365 750 365 736Q365 717 349
714Q330 711 313 683T278 611T240 519T196 425T141 348T71 308Q92 280 103 239T121 151T131 58T142 -29T162 -98T198 -134Q205 -136 209 -143T214 -158Q214 -175 193 -175Z" />
<glyph unicode="|" glyph-name="bar" horiz-adv-x="213" d="M54 -159Q38 -159 19 -156T-1 -135Q-1 -117 5 -66T23 59T49 214T78 378T108 528T135 642T156 695Q161 700 169 700Q182 700 182 687Q182 685 178 653T168 565T153 440T135 293T117 137T101 -11T89 -138Q88
-151 77 -155T54 -159Z" />
<glyph unicode="}" glyph-name="braceright" horiz-adv-x="344" d="M22 -169Q9 -169 -8 -165T-25 -148Q-25 -137 -16 -131T0 -125Q25 -125 46 -104T88 -46T128 32T169 117T216 193T270 247Q236 268 218 308T192 397T182 497T177 595T168 673T143 715Q137 719 136
724T135 735Q135 750 148 750Q152 750 153 749Q191 735 211 698T241 610T256 504T268 400T287 316T327 271Q344 264 344 246Q344 230 324 230Q303 226 285 196T248 120T208 25T161 -69T100 -141T22 -169Z" />
<glyph unicode="~" glyph-name="asciitilde" horiz-adv-x="491" d="M17 210Q6 210 6 219Q6 228 27 248T87 286T184 303Q214 303 239 294T290 276T353 267Q380 267 399 274T436 289T473 297Q484 297 484 287Q484 276 462 258T402 225T315 210Q288 210 260 218T206
235T160 244Q123 244 99 236T56 219T17 210Z" />
<glyph unicode="&#xa0;" glyph-name="uni00A0" horiz-adv-x="317" />
<glyph unicode="&#xa1;" glyph-name="exclamdown" horiz-adv-x="215" d="M208 581Q187 581 179 585T171 605Q171 638 197 658T251 678Q266 678 269 674T273 660Q273 650 270 639T261 607Q257 591 245 586T208 581ZM24 0Q8 0 -2 2T-13 21Q-13 39 -4 80T21 176T57
286T98 391T138 469T174 499Q183 499 188 497T194 485Q194 471 175 410T128 250T72 24Q68 5 55 3T24 0Z" />
<glyph unicode="&#xa2;" glyph-name="cent" horiz-adv-x="482" d="M205 -91Q196 -91 187 -81T177 -60Q177 -54 180 -37T190 9Q154 16 122 38T69 91T48 155Q48 197 64 243T108 333T171 413T244 473T320 500Q353 593 371 593Q385 593 391 581T398 555Q398 545 393
528T380 487Q412 470 432 440T452 390Q452 371 436 371Q427 371 410 381T379 401T359 414Q356 402 347 369T326 292T303 205T283 131T272 91Q297 93 324 101T373 118T403 127Q422 127 422 108Q422 92 395 72T329 34T249 9Q218 -91 205 -91ZM208 88Q245 255 290
404Q263 388 236 359T186 293T151 222T137 157Q137 129 156 110T208 88Z" />
<glyph unicode="&#xa3;" glyph-name="sterling" horiz-adv-x="419" d="M360 -29Q350 -29 311 -22T198 -8T11 -1Q-2 -1 -13 1T-25 17Q-25 25 -19 32T-4 41Q12 44 27 71T57 141T87 229T117 315Q96 317 80 319T57 326Q40 338 40 352Q40 363 49 366T69 370Q77 370
98 369T138 368Q166 478 196 564T259 700T331 750Q357 750 367 738T377 705Q377 679 364 655T325 630Q319 630 314 631T303 632Q295 632 288 628T275 612Q269 599 263 570T250 506T236 435T220 373Q244 376 269 383T312 395T336 401Q351 401 362 386T374 356Q374
348 370 343T359 335Q346 331 319 326T260 317T199 312Q190 286 179 249T154 174T126 102T94 49Q140 50 208 53T347 56Q357 56 371 55T396 48T407 29Q407 21 401 7T384 -18T360 -29Z" />
<glyph unicode="&#xa4;" glyph-name="currency" horiz-adv-x="600" d="M136 46Q124 46 112 54T93 71T85 87Q85 105 109 124T163 175Q138 214 138 266Q138 337 186 395Q183 400 174 415T155 449T136 482T128 500Q128 521 143 521Q170 521 198 511Q215 504 222 496T234
476T248 446Q286 465 326 465Q366 465 397 450Q458 521 487 521Q497 521 509 513T529 495T538 476Q538 459 523 443T490 414T462 390Q484 354 484 307Q484 219 422 157Q471 80 471 69Q471 58 464 52T447 46Q417 46 363 116Q332 102 293 102Q254 102 221 120Q154
46 136 46ZM307 167Q341 167 363 186T398 234T411 294Q411 335 389 368T320 402Q291 402 267 382T228 332T213 271Q213 224 239 196T307 167Z" />
<glyph unicode="&#xa5;" glyph-name="yen" horiz-adv-x="563" d="M240 -10Q230 -10 216 -1T192 22T181 52Q181 67 185 87T197 136Q154 132 121 130T65 128Q57 128 49 137T35 158T29 178Q29 202 214 217Q216 227 217 241T221 272Q133 263 90 263Q79 263 67 280T55
313Q55 338 206 348Q175 406 150 459T111 554T96 622Q96 636 100 644T114 653Q136 653 158 637T193 593Q199 582 208 551T235 475T279 383Q351 478 396 532T468 612T506 645T526 653Q543 653 558 641T573 616Q573 609 559 588T521 539T470 481T419 423T377 378T355
354Q423 354 453 349T490 338T498 324Q498 310 452 299T308 280Q307 267 305 254T299 224Q359 227 401 227Q489 227 489 205Q489 173 282 146Q279 127 274 101T262 49T250 7T240 -10Z" />
<glyph unicode="&#xa6;" glyph-name="brokenbar" horiz-adv-x="328" d="M200 430Q192 430 182 441T163 467T155 494Q155 530 166 580T187 687T198 798Q198 814 201 821T217 828Q225 828 237 814T258 779T268 736Q268 723 263 688T249 610T232 525T214 457T200
430ZM104 -135Q96 -135 86 -124T68 -99T60 -71Q60 -36 70 15T91 122T101 233Q101 263 119 263Q128 263 140 249T161 214T171 172Q171 158 166 124T154 45T137 -40T120 -108T104 -135Z" />
<glyph unicode="&#xa7;" glyph-name="section" horiz-adv-x="464" d="M149 -127Q112 -127 78 -109T23 -67T2 -22Q2 -10 7 4T20 29T35 40Q45 40 51 31T64 10Q99 -49 146 -49Q227 -49 227 24Q227 64 166 119Q140 142 114 166Q57 222 54 278T92 384T210 471Q161 529
161 575Q161 605 178 634T225 686T287 724T351 739Q389 739 418 702Q439 676 446 644T447 589T419 566Q394 566 380 612Q365 658 338 658Q316 658 295 646T261 617T247 583Q247 559 265 535T310 484Q336 457 362 428Q388 399 406 360T424 278Q424 249 404 218T349
162T271 125Q317 74 317 17Q317 -21 297 -54T238 -107T149 -127ZM221 174Q252 178 278 195T320 236T336 283Q336 317 317 346T260 416Q141 356 141 284Q141 265 155 244Q164 230 172 221T191 201T221 174Z" />
<glyph unicode="&#xa8;" glyph-name="dieresis" horiz-adv-x="401" d="M293 554Q286 554 270 567T241 597T228 626Q228 645 243 662T274 680Q282 680 291 669T310 641T325 610T331 587Q331 554 293 554ZM154 554Q139 554 121 567T90 597T77 626Q77 645 92 662T123
680Q131 680 140 669T159 641T174 610T180 587Q180 572 172 563T154 554Z" />
<glyph unicode="&#xa9;" glyph-name="copyright" horiz-adv-x="708" d="M327 40Q249 40 194 72T109 160T79 289Q79 357 109 420T189 532T304 611T436 640Q514 640 571 607T661 516T693 384Q693 310 665 248T588 139T472 66T327 40ZM316 93Q458 93 540 171T622
393Q622 449 600 492T541 561T458 586Q401 586 346 564T246 499T174 398T147 265Q147 187 193 140T316 93ZM346 164Q318 164 293 179T251 219T234 267Q234 302 253 346T304 430T374 497T452 523Q469 523 485 505T501 472Q501 457 488 457Q481 457 473 460T454 464Q434
464 408 445T356 396T315 332T298 265Q298 247 311 236T342 224Q379 224 407 234T454 255T481 265Q495 265 495 248Q495 238 480 224T442 196T393 173T346 164Z" />
<glyph unicode="&#xaa;" glyph-name="ordfeminine" d="M196 389Q170 389 147 404T108 442T93 488Q93 523 108 568T151 655T215 724T294 751Q324 751 349 734T390 692T406 646Q406 627 402 608T394 565T385 506T381 417Q381 408 377 399T364 389Q350 389 338 411T322
464Q261 389 196 389ZM200 453Q225 453 253 476T307 541T347 635Q344 654 330 669T296 684Q272 684 249 665T206 615T174 552T162 493Q162 453 200 453Z" />
<glyph unicode="&#xab;" glyph-name="guillemotleft" horiz-adv-x="346" d="M167 -12Q158 -12 142 3T95 44T12 102Q3 108 0 118T-4 140Q-4 158 2 170Q7 182 36 218T107 318Q110 323 116 327T132 331Q146 331 164 322T182 297Q182 291 178 285Q165 265 142 238T94
187T51 149Q62 141 84 125T129 88T168 48T185 13Q185 -12 167 -12ZM285 -3Q276 -3 265 8T226 43T142 101Q133 107 130 117T126 138Q126 147 128 155T132 169Q137 181 158 206T222 295Q225 300 231 303T247 307Q261 307 279 298T297 274Q297 266 293 261Q273 232
241 200T181 148Q192 140 212 125T253 92T288 55T303 22Q303 -3 285 -3Z" />
<glyph unicode="&#xac;" glyph-name="logicalnot" horiz-adv-x="578" d="M443 175Q424 175 424 193Q424 203 436 226T461 284T473 356Q473 379 414 379Q339 379 265 376T115 373Q97 373 74 383T33 410T16 443Q16 463 34 463Q88 463 154 462T288 458T409 455T491
453Q516 453 539 427T562 350Q562 319 549 288T515 232T476 191T443 175Z" />
<glyph unicode="&#xad;" glyph-name="uni00AD" horiz-adv-x="0" />
<glyph unicode="&#xae;" glyph-name="registered" horiz-adv-x="589" d="M255 292Q174 292 130 339T86 462Q86 508 105 550T158 627T236 680T333 700Q371 700 410 683T477 627T504 526Q504 459 471 406T382 323T255 292ZM248 329Q343 329 398 382T454 532Q454
589 423 625T344 662Q293 662 245 635T165 561T134 449Q134 392 165 361T248 329ZM232 388Q227 388 220 396T212 412Q212 419 220 445T236 504T248 566Q235 575 235 586Q235 593 247 599T277 608T309 612Q337 612 357 600T378 563Q378 535 351 515T295 482Q295
474 307 463T334 439T361 415T373 398Q373 388 358 388Q346 388 328 401T291 432T263 467Q240 388 232 388ZM272 504Q300 518 320 532T341 562Q341 576 311 576Q299 576 281 570Q283 566 283 556Q283 546 272 504Z" />
<glyph unicode="&#xaf;" glyph-name="overscore" horiz-adv-x="400" d="M203 530Q122 530 94 537T66 561Q66 577 94 584T204 592Q286 592 314 585T343 560Q343 544 314 537T203 530Z" />
<glyph unicode="&#xb0;" glyph-name="degree" horiz-adv-x="388" d="M167 395Q119 395 90 427T60 510Q60 545 74 579T114 642T172 688T241 705Q289 705 318 673T347 590Q347 555 333 521T293 458T236 412T167 395ZM185 463Q208 463 226 480T255 523T266 569Q266
601 254 617T222 634Q200 634 181 616T151 573T140 527Q140 496 152 480T185 463Z" />
<glyph unicode="&#xb1;" glyph-name="plusminus" horiz-adv-x="608" d="M293 176Q283 176 273 185T255 206T247 229Q247 244 268 370Q227 368 193 366T133 364Q119 364 105 374T81 399T72 427Q72 438 77 444T98 450Q129 450 153 450T206 449T281 449Q295 549 295
607Q295 633 311 633Q324 633 341 621T372 593T386 564Q386 546 368 456Q427 460 459 463T512 467Q573 467 573 442Q573 403 351 378Q341 322 332 276T313 203T293 176ZM102 40Q89 40 77 49T56 71T48 93Q48 112 68 112Q123 112 182 115T296 122T395 129T464 132Q496
132 513 127T530 114Q530 100 501 89T423 68T317 53T204 43T102 40Z" />
<glyph unicode="&#xb2;" glyph-name="uni00B2" horiz-adv-x="410" d="M269 326Q238 326 206 338T142 354Q126 340 115 335T92 329Q52 329 52 375Q52 398 66 410T103 423Q111 423 117 422T132 418Q155 438 180 464T226 521T262 580T276 636Q276 656 264 665T235
675Q216 675 197 665T165 638T152 603Q152 592 159 586T174 580Q185 580 192 586T211 593Q226 593 226 580Q226 568 215 560T188 548T160 543Q138 543 120 553T102 588Q102 623 126 654T186 704T260 723Q302 723 324 701T346 646Q346 610 327 573T279 503T223 442T178
396Q205 378 227 372T268 366Q289 366 304 371T335 376Q342 376 342 366Q342 356 330 347T302 332T269 326Z" />
<glyph unicode="&#xb3;" glyph-name="uni00B3" horiz-adv-x="410" d="M150 327Q120 327 94 340T67 376Q67 389 77 396T100 404Q112 404 120 396Q126 390 129 381T138 365T157 358Q211 358 247 394T283 482Q283 512 267 529T229 546Q219 546 212 544T193 542Q179
542 179 551Q179 561 191 564Q229 572 252 596T275 652Q275 674 264 686T236 699Q218 699 213 690T202 670Q198 664 190 659T166 653Q143 653 143 675Q143 691 166 710T240 729Q263 729 285 722T322 699T337 657Q337 636 328 612T294 572Q346 546 346 479Q346 427
316 394T241 344T150 327Z" />
<glyph unicode="&#xb4;" glyph-name="acute" horiz-adv-x="337" d="M106 562Q96 562 89 571T81 591Q81 600 93 619T126 661T168 704T209 738T238 752Q254 752 266 733T279 701Q279 679 271 670T248 651Q195 620 159 591T106 562Z" />
<glyph unicode="&#xb5;" glyph-name="uni00B5" horiz-adv-x="575" d="M5 -220Q-9 -220 -24 -211T-39 -188Q-39 -174 -6 -103T80 117Q103 182 123 248T160 369T192 457T218 491Q227 491 239 486T260 473T269 459Q269 445 257 407T229 318T200 213T188 112Q188 96
197 86T221 75Q243 75 271 99T330 165T388 258T438 362T471 463Q477 491 492 491Q504 491 517 479T539 449T549 415Q549 402 536 362T499 243T437 37Q425 -5 401 -5Q371 -5 371 40Q371 70 393 150Q297 -5 214 -5Q186 -5 167 12T143 55Q102 -39 77 -94T39 -177T18
-212T5 -220Z" />
<glyph unicode="&#xb6;" glyph-name="paragraph" horiz-adv-x="521" d="M205 -5Q192 -5 177 9T161 35Q161 42 167 67T182 129T201 206T222 284T239 348T249 385Q202 348 165 348Q141 348 119 363T84 401T70 446Q70 526 111 599T226 723Q246 737 280 746T356 761T438
767Q491 767 513 742T535 680Q535 627 525 557T499 409T464 259T426 126T392 31T370 -5Q358 -5 342 9T326 36Q326 43 335 77T358 166T388 287T420 427T447 572T463 707Q430 697 369 688Q369 629 359 556T333 404T298 253T261 122T227 30T205 -5Z" />
<glyph unicode="&#xb7;" glyph-name="middot" horiz-adv-x="330" d="M165 196Q121 196 90 228T58 304Q58 348 89 379T165 411Q209 411 241 380T273 304Q273 275 259 250T220 211T165 196Z" />
<glyph unicode="&#xb8;" glyph-name="cedilla" horiz-adv-x="313" d="M89 -198Q70 -198 58 -191T45 -172Q45 -161 54 -151T80 -140Q90 -140 99 -145T122 -151Q160 -151 178 -145T202 -130T208 -112Q208 -101 193 -86T139 -71Q126 -71 121 -66T116 -54Q116 -47
122 -29T136 5T154 22Q170 22 183 17T197 0Q197 -11 189 -21T180 -43Q213 -45 238 -62T263 -102Q262 -146 223 -172T89 -198Z" />
<glyph unicode="&#xb9;" glyph-name="uni00B9" horiz-adv-x="309" d="M95 312Q84 312 76 314T67 327Q67 338 76 368T100 438T133 521T169 600Q141 576 112 557T71 538Q59 538 59 550Q59 559 71 567Q103 587 149 621T244 726Q252 738 257 743T269 749Q273 749 276
747T280 740Q280 738 271 713T245 645T210 551T170 442T132 330Q128 318 119 315T95 312Z" />
<glyph unicode="&#xba;" glyph-name="ordmasculine" horiz-adv-x="452" d="M211 391Q182 391 159 411T122 465T108 534Q108 589 132 638T199 719T292 751Q326 751 351 730T389 674T403 602Q403 565 389 528T349 459T288 410T211 391ZM214 448Q255 455 282 479T322
538T336 606Q336 634 326 656T291 691Q252 682 226 656T188 597T175 533Q175 508 184 486T214 448Z" />
<glyph unicode="&#xbb;" glyph-name="guillemotright" horiz-adv-x="338" d="M159 -10Q144 -10 126 1T108 28Q108 31 110 34T113 39Q129 58 154 83T207 130T253 164Q232 182 206 208T159 259T136 297V307Q138 331 155 331H156Q159 331 161 329Q170 326 182 311T220
270T296 207Q309 195 309 175Q309 165 307 156T300 139Q293 127 261 93T181 0Q178 -4 173 -7T159 -10ZM41 2Q26 2 9 12T-9 39Q-9 46 -4 51Q11 70 34 92T82 134T125 165Q104 183 83 203T46 243T28 276V286Q30 310 47 310H48Q50 309 51 309T53 308Q62 305 69 296T98
266T168 208Q176 203 179 194T182 176Q182 166 180 157T173 140Q166 128 139 100T64 12Q61 8 56 5T41 2Z" />
<glyph unicode="&#xbc;" glyph-name="onequarter" horiz-adv-x="595" d="M115 312Q104 312 96 314T87 327Q87 338 96 368T120 438T153 521T189 600Q161 576 132 557T91 538Q79 538 79 550Q79 559 91 567Q123 587 169 621T264 726Q272 738 277 743T289 749Q293
749 296 747T300 740Q300 738 291 713T265 645T230 551T190 442T152 330Q148 318 139 315T115 312ZM73 0Q42 0 31 4T20 21Q20 33 44 72T108 167T199 287T300 416T399 537T480 632T530 684Q538 691 545 695T561 700Q575 700 575 687Q575 676 566 664Q516 602 457
527T337 369T216 197T106 21Q94 0 73 0ZM384 -66Q374 -66 372 -63T370 -53Q370 -49 383 -16T415 62Q357 68 290 68Q266 68 256 77T246 97Q246 114 260 126Q294 153 330 191T402 270T467 347T515 407T538 435Q541 439 544 441T553 444Q560 444 560 434Q560 420 544
388T500 316T440 235T376 159T318 104Q345 104 375 105T433 108Q447 143 459 175T478 232Q481 245 492 247T515 249Q528 249 535 247T542 232Q542 225 528 189T494 109Q510 108 526 106T542 88Q542 78 533 63T510 48Q504 48 491 50T469 55Q445 6 422 -30T384 -66Z"
/>
<glyph unicode="&#xbd;" glyph-name="onehalf" horiz-adv-x="595" d="M115 312Q104 312 96 314T87 327Q87 338 96 368T120 438T153 521T189 600Q161 576 132 557T91 538Q79 538 79 550Q79 559 91 567Q123 587 169 621T264 726Q272 738 277 743T289 749Q293 749
296 747T300 740Q300 738 291 713T265 645T230 551T190 442T152 330Q148 318 139 315T115 312ZM73 0Q42 0 31 4T20 21Q20 33 44 72T108 167T199 287T300 416T399 537T480 632T530 684Q538 691 545 695T561 700Q575 700 575 687Q575 676 566 664Q516 602 457 527T337
369T216 197T106 21Q94 0 73 0ZM500 -24Q469 -24 437 -12T373 4Q357 -10 346 -15T323 -21Q283 -21 283 25Q283 48 297 60T334 73Q342 73 348 72T363 68Q386 88 411 114T457 171T493 230T507 286Q507 306 495 315T466 325Q447 325 428 315T396 288T383 253Q383 242
390 236T405 230Q416 230 423 236T442 243Q457 243 457 230Q457 218 446 210T419 198T391 193Q369 193 351 203T333 238Q333 273 357 304T417 354T491 373Q533 373 555 351T577 296Q577 260 558 223T510 153T454 92T409 46Q436 28 458 22T499 16Q520 16 535 21T566
26Q573 26 573 16Q573 6 561 -3T533 -18T500 -24Z" />
<glyph unicode="&#xbe;" glyph-name="threequarters" horiz-adv-x="615" d="M91 327Q61 327 35 340T8 376Q8 389 18 396T41 404Q53 404 61 396Q67 390 70 381T79 365T98 358Q152 358 188 394T224 482Q224 512 208 529T170 546Q160 546 153 544T134 542Q120 542
120 551Q120 561 132 564Q170 572 193 596T216 652Q216 674 205 686T177 699Q159 699 154 690T143 670Q139 664 131 659T107 653Q84 653 84 675Q84 691 107 710T181 729Q204 729 226 722T263 699T278 657Q278 636 269 612T235 572Q287 546 287 479Q287 427 257
394T182 344T91 327ZM93 0Q62 0 51 4T40 21Q40 33 64 72T128 167T219 287T320 416T419 537T500 632T550 684Q558 691 565 695T581 700Q595 700 595 687Q595 676 586 664Q536 602 477 527T357 369T236 197T126 21Q114 0 93 0ZM384 -66Q374 -66 372 -63T370 -53Q370
-49 383 -16T415 62Q357 68 290 68Q266 68 256 77T246 97Q246 114 260 126Q294 153 330 191T402 270T467 347T515 407T538 435Q541 439 544 441T553 444Q560 444 560 434Q560 420 544 388T500 316T440 235T376 159T318 104Q345 104 375 105T433 108Q447 143 459
175T478 232Q481 245 492 247T515 249Q528 249 535 247T542 232Q542 225 528 189T494 109Q510 108 526 106T542 88Q542 78 533 63T510 48Q504 48 491 50T469 55Q445 6 422 -30T384 -66Z" />
<glyph unicode="&#xbf;" glyph-name="questiondown" horiz-adv-x="300" d="M203 570Q186 570 176 573T166 594Q166 627 192 647T246 667Q261 667 264 663T268 649Q268 639 265 628T256 596Q252 577 236 574T203 570ZM105 0Q66 0 34 15T-18 58T-38 124Q-38 166
-23 198T16 259T68 317T123 381T169 462Q173 471 182 477T200 483Q209 483 215 477T222 455Q222 449 221 442T217 427Q206 390 181 354T127 281T78 207T58 129Q58 89 81 72T129 54Q159 54 183 72T220 119Q228 136 238 143T257 151Q267 151 273 143T280 121Q280
87 255 60T189 16T105 0Z" />
<glyph unicode="&#xc0;" glyph-name="Agrave" horiz-adv-x="608" d="M96 -10Q86 -10 74 -1T52 22T43 51Q43 61 100 193Q75 193 59 206T42 239Q42 259 141 290Q144 296 154 320T178 380T209 455T240 532T266 597T283 638Q294 665 321 684T375 704Q388 704 400 678T424
611T445 523T460 433T470 360Q484 362 496 364T519 367Q542 367 553 359T564 337Q564 318 476 293Q479 259 480 219T483 142T484 80Q484 38 481 19T470 -5T452 -10Q436 -10 427 7T415 46T409 84Q405 132 402 179T394 272Q343 259 297 247T200 220Q111 -10 96 -10ZM237
316Q272 326 309 333T387 348Q378 434 369 498T352 605Q330 553 301 481T237 316ZM380 744Q367 744 357 751T330 772Q294 801 268 816T227 846T212 881Q212 889 219 900T237 921T260 930Q268 930 284 917T321 882T361 838T392 797T405 771Q405 761 397 753T380
744Z" />
<glyph unicode="&#xc1;" glyph-name="Aacute" horiz-adv-x="608" d="M96 -10Q86 -10 74 -1T52 22T43 51Q43 61 100 193Q75 193 59 206T42 239Q42 259 141 290Q144 296 154 320T178 380T209 455T240 532T266 597T283 638Q294 665 321 684T375 704Q388 704 400 678T424
611T445 523T460 433T470 360Q484 362 496 364T519 367Q542 367 553 359T564 337Q564 318 476 293Q479 259 480 219T483 142T484 80Q484 38 481 19T470 -5T452 -10Q436 -10 427 7T415 46T409 84Q405 132 402 179T394 272Q343 259 297 247T200 220Q111 -10 96 -10ZM237
316Q272 326 309 333T387 348Q378 434 369 498T352 605Q330 553 301 481T237 316ZM348 750Q340 750 333 758T325 780Q325 788 338 806T371 847T413 891T455 925T484 939Q500 939 511 922T523 888Q523 867 517 859T491 838Q435 800 408 781T370 756T348 750Z" />
<glyph unicode="&#xc2;" glyph-name="Acircumflex" horiz-adv-x="608" d="M96 -10Q86 -10 74 -1T52 22T43 51Q43 61 100 193Q75 193 59 206T42 239Q42 259 141 290Q144 296 154 320T178 380T209 455T240 532T266 597T283 638Q294 665 321 684T375 704Q388 704
400 678T424 611T445 523T460 433T470 360Q484 362 496 364T519 367Q542 367 553 359T564 337Q564 318 476 293Q479 259 480 219T483 142T484 80Q484 38 481 19T470 -5T452 -10Q436 -10 427 7T415 46T409 84Q405 132 402 179T394 272Q343 259 297 247T200 220Q111
-10 96 -10ZM237 316Q272 326 309 333T387 348Q378 434 369 498T352 605Q330 553 301 481T237 316ZM505 726Q488 726 468 742T429 783T391 829Q362 815 335 794T286 756T249 739Q216 739 216 778Q216 791 232 807T272 841T322 873T368 897T395 906Q411 906 426
890T462 848Q490 814 504 796T524 768T530 750Q530 726 505 726Z" />
<glyph unicode="&#xc3;" glyph-name="Atilde" horiz-adv-x="608" d="M96 -10Q86 -10 74 -1T52 22T43 51Q43 61 100 193Q75 193 59 206T42 239Q42 259 141 290Q144 296 154 320T178 380T209 455T240 532T266 597T283 638Q294 665 321 684T375 704Q388 704 400 678T424
611T445 523T460 433T470 360Q484 362 496 364T519 367Q542 367 553 359T564 337Q564 318 476 293Q479 259 480 219T483 142T484 80Q484 38 481 19T470 -5T452 -10Q436 -10 427 7T415 46T409 84Q405 132 402 179T394 272Q343 259 297 247T200 220Q111 -10 96 -10ZM237
316Q272 326 309 333T387 348Q378 434 369 498T352 605Q330 553 301 481T237 316ZM425 747Q370 747 314 836Q297 829 282 809T254 772T224 754Q208 754 200 763T192 786Q192 809 210 836T255 882T310 902Q337 902 353 890T381 862T401 833T422 821Q433 821 441
831T459 855T478 879T501 890Q513 890 519 882T526 860Q526 837 513 811T476 766T425 747Z" />
<glyph unicode="&#xc4;" glyph-name="Adieresis" horiz-adv-x="608" d="M96 -10Q86 -10 74 -1T52 22T43 51Q43 61 100 193Q75 193 59 206T42 239Q42 259 141 290Q144 296 154 320T178 380T209 455T240 532T266 597T283 638Q294 665 321 684T375 704Q388 704 400
678T424 611T445 523T460 433T470 360Q484 362 496 364T519 367Q542 367 553 359T564 337Q564 318 476 293Q479 259 480 219T483 142T484 80Q484 38 481 19T470 -5T452 -10Q436 -10 427 7T415 46T409 84Q405 132 402 179T394 272Q343 259 297 247T200 220Q111 -10
96 -10ZM237 316Q272 326 309 333T387 348Q378 434 369 498T352 605Q330 553 301 481T237 316ZM453 743Q439 743 421 756T390 786T377 815Q377 834 392 851T423 869Q431 869 440 858T459 830T474 799T480 776Q480 760 471 752T453 743ZM303 743Q289 743 271 756T240
786T227 815Q227 834 241 851T272 869Q280 869 289 858T308 830T323 799T329 776Q329 761 321 752T303 743Z" />
<glyph unicode="&#xc5;" glyph-name="Aring" horiz-adv-x="608" d="M96 -10Q86 -10 74 -1T52 22T43 51Q43 61 100 193Q75 193 59 206T42 239Q42 259 141 290Q144 296 154 320T178 380T209 455T240 532T266 597T283 638Q294 665 321 684T375 704Q388 704 400 678T424
611T445 523T460 433T470 360Q484 362 496 364T519 367Q542 367 553 359T564 337Q564 318 476 293Q479 259 480 219T483 142T484 80Q484 38 481 19T470 -5T452 -10Q436 -10 427 7T415 46T409 84Q405 132 402 179T394 272Q343 259 297 247T200 220Q111 -10 96 -10ZM237
316Q272 326 309 333T387 348Q378 434 369 498T352 605Q330 553 301 481T237 316ZM355 743Q318 743 295 768T272 832Q272 858 286 882T322 922T368 938Q405 938 427 913T450 849Q450 823 437 799T401 759T355 743ZM358 796Q370 796 380 810T391 843Q391 861 384
871T364 882Q352 882 342 868T331 835Q331 817 338 807T358 796Z" />
<glyph unicode="&#xc6;" glyph-name="AE" horiz-adv-x="831" d="M66 -6Q43 -6 30 10T18 46Q18 49 28 76T55 149T93 249T138 361T183 471T225 565T258 627Q271 647 305 659T382 677T466 684T535 686Q630 686 688 683T778 675T820 662T832 647Q832 630 769 621T554
612Q555 595 551 557T539 472T516 377Q569 382 606 385T665 388Q744 388 744 357Q744 350 734 344T698 332T622 319T494 302Q443 131 443 113Q443 80 471 80Q508 80 552 87T639 104T718 121T777 129Q791 129 791 108Q791 90 761 71T681 34T575 7T467 -4Q437 -4
411 8T368 41T352 86Q352 142 398 289Q387 288 357 284T292 274T229 264T193 259Q166 192 141 131T96 32T66 -6ZM225 335Q263 343 312 351T421 366Q444 443 456 504T470 610Q355 604 342 588Q321 565 225 335Z" />
<glyph unicode="&#xc7;" glyph-name="Ccedilla" horiz-adv-x="603" d="M149 -192Q130 -192 118 -184T105 -162Q105 -151 112 -140T135 -129Q147 -129 156 -133T181 -137Q203 -137 224 -133T259 -121T273 -102Q273 -88 255 -75T199 -61Q175 -61 175 -44Q175 -33
184 -16T204 32Q148 54 107 98T66 215Q66 272 89 339T154 473T247 595T356 684T471 718Q489 718 507 703T538 665T551 625Q551 609 537 609Q525 609 514 616T477 624Q441 624 399 597T314 526T237 427T180 316T159 211Q159 156 193 135T274 114Q318 114 359 127T434
157T492 188T525 201Q541 201 541 185Q541 169 521 143T463 90T374 43T262 21Q256 7 252 -1T241 -22Q277 -27 303 -51T330 -99Q330 -136 284 -164T149 -192Z" />
<glyph unicode="&#xc8;" glyph-name="Egrave" horiz-adv-x="585" d="M178 -5Q132 -5 98 22T63 90Q63 115 75 163T104 272T140 399T170 525T182 630Q182 657 209 669T287 686T404 690Q605 690 605 661Q605 655 600 649T573 636T508 624T385 612Q359 610 325 605T267
595Q267 522 230 387Q244 385 258 384T287 383Q336 383 379 391T448 400Q480 400 480 382Q480 363 455 350T390 328T301 317T208 313Q154 142 154 106Q154 94 161 87T181 79Q266 79 329 91T432 116T487 128Q502 128 502 107Q502 89 472 70T392 33T286 6T178 -5ZM418
744Q405 744 395 751T368 772Q332 801 306 816T265 846T250 881Q250 889 257 900T275 921T298 930Q306 930 322 917T359 882T399 838T430 797T443 771Q443 761 435 753T418 744Z" />
<glyph unicode="&#xc9;" glyph-name="Eacute" horiz-adv-x="585" d="M178 -5Q132 -5 98 22T63 90Q63 115 75 163T104 272T140 399T170 525T182 630Q182 657 209 669T287 686T404 690Q605 690 605 661Q605 655 600 649T573 636T508 624T385 612Q359 610 325 605T267
595Q267 522 230 387Q244 385 258 384T287 383Q336 383 379 391T448 400Q480 400 480 382Q480 363 455 350T390 328T301 317T208 313Q154 142 154 106Q154 94 161 87T181 79Q266 79 329 91T432 116T487 128Q502 128 502 107Q502 89 472 70T392 33T286 6T178 -5ZM386
750Q378 750 371 758T363 780Q363 788 376 806T409 847T451 891T493 925T522 939Q538 939 549 922T561 888Q561 867 555 859T529 838Q473 800 446 781T408 756T386 750Z" />
<glyph unicode="&#xca;" glyph-name="Ecircumflex" horiz-adv-x="585" d="M178 -5Q132 -5 98 22T63 90Q63 115 75 163T104 272T140 399T170 525T182 630Q182 657 209 669T287 686T404 690Q605 690 605 661Q605 655 600 649T573 636T508 624T385 612Q359 610 325
605T267 595Q267 522 230 387Q244 385 258 384T287 383Q336 383 379 391T448 400Q480 400 480 382Q480 363 455 350T390 328T301 317T208 313Q154 142 154 106Q154 94 161 87T181 79Q266 79 329 91T432 116T487 128Q502 128 502 107Q502 89 472 70T392 33T286 6T178
-5ZM543 726Q526 726 506 742T467 783T429 829Q400 815 373 794T324 756T287 739Q254 739 254 778Q254 791 270 807T310 841T360 873T406 897T433 906Q449 906 464 890T500 848Q528 814 542 796T562 768T568 750Q568 726 543 726Z" />
<glyph unicode="&#xcb;" glyph-name="Edieresis" horiz-adv-x="585" d="M178 -5Q132 -5 98 22T63 90Q63 115 75 163T104 272T140 399T170 525T182 630Q182 657 209 669T287 686T404 690Q605 690 605 661Q605 655 600 649T573 636T508 624T385 612Q359 610 325
605T267 595Q267 522 230 387Q244 385 258 384T287 383Q336 383 379 391T448 400Q480 400 480 382Q480 363 455 350T390 328T301 317T208 313Q154 142 154 106Q154 94 161 87T181 79Q266 79 329 91T432 116T487 128Q502 128 502 107Q502 89 472 70T392 33T286 6T178
-5ZM491 743Q477 743 459 756T428 786T415 815Q415 834 430 851T461 869Q469 869 478 858T497 830T512 799T518 776Q518 760 509 752T491 743ZM341 743Q327 743 309 756T278 786T265 815Q265 834 279 851T310 869Q318 869 327 858T346 830T361 799T367 776Q367
761 359 752T341 743Z" />
<glyph unicode="&#xcc;" glyph-name="Igrave" horiz-adv-x="310" d="M116 -1Q110 -1 99 10T78 38T68 67Q68 82 76 124T99 226T128 352T157 480T179 593T188 668Q188 685 192 691T212 698Q221 698 235 684T261 647T273 601Q273 589 264 546T241 440T210 309T177
173T147 58Q137 18 129 9T116 -1ZM525 744Q512 744 502 751T475 772Q439 801 413 816T372 846T357 881Q357 889 364 900T382 921T405 930Q413 930 429 917T466 882T506 838T537 797T550 771Q550 761 542 753T525 744Z" />
<glyph unicode="&#xcd;" glyph-name="Iacute" horiz-adv-x="310" d="M116 -1Q110 -1 99 10T78 38T68 67Q68 82 76 124T99 226T128 352T157 480T179 593T188 668Q188 685 192 691T212 698Q221 698 235 684T261 647T273 601Q273 589 264 546T241 440T210 309T177
173T147 58Q137 18 129 9T116 -1ZM237 750Q229 750 222 758T214 780Q214 788 227 806T260 847T302 891T344 925T373 939Q389 939 400 922T412 888Q412 867 406 859T380 838Q324 800 297 781T259 756T237 750Z" />
<glyph unicode="&#xce;" glyph-name="Icircumflex" horiz-adv-x="310" d="M116 -1Q110 -1 99 10T78 38T68 67Q68 82 76 124T99 226T128 352T157 480T179 593T188 668Q188 685 192 691T212 698Q221 698 235 684T261 647T273 601Q273 589 264 546T241 440T210 309T177
173T147 58Q137 18 129 9T116 -1ZM394 726Q377 726 357 742T318 783T280 829Q251 815 224 794T175 756T138 739Q105 739 105 778Q105 791 121 807T161 841T211 873T257 897T284 906Q300 906 315 890T351 848Q379 814 393 796T413 768T419 750Q419 726 394 726Z"
/>
<glyph unicode="&#xcf;" glyph-name="Idieresis" horiz-adv-x="310" d="M116 -1Q110 -1 99 10T78 38T68 67Q68 82 76 124T99 226T128 352T157 480T179 593T188 668Q188 685 192 691T212 698Q221 698 235 684T261 647T273 601Q273 589 264 546T241 440T210 309T177
173T147 58Q137 18 129 9T116 -1ZM342 743Q328 743 310 756T279 786T266 815Q266 834 281 851T312 869Q320 869 329 858T348 830T363 799T369 776Q369 760 360 752T342 743ZM192 743Q178 743 160 756T129 786T116 815Q116 834 130 851T161 869Q169 869 178 858T197
830T212 799T218 776Q218 761 210 752T192 743Z" />
<glyph unicode="&#xd0;" glyph-name="Eth" horiz-adv-x="619" d="M162 -4Q149 -4 133 11T106 49T94 92Q94 122 135 275Q85 271 74 271Q66 271 52 275T26 288T14 308Q14 322 31 330T73 344T121 352T158 357Q210 544 215 609Q180 625 163 646T145 684Q145 703 165
703Q222 703 285 684T409 630T519 549T597 449T626 338Q626 306 602 269T538 193T449 119T347 56T247 12T162 -4ZM181 86Q212 90 257 109T350 158T440 220T508 287T534 349Q534 381 514 416T460 484T382 544T288 588Q293 571 293 555Q293 513 251 367Q268 368 291
367T333 357T351 330Q351 323 338 317T304 304T264 294T229 287Q214 237 205 202T191 140T181 86Z" />
<glyph unicode="&#xd1;" glyph-name="Ntilde" horiz-adv-x="677" d="M99 -3Q82 -3 68 20T53 68Q53 82 62 124T87 225T119 350T151 479T175 592T185 669Q185 701 202 701Q213 701 232 683T261 642Q422 224 465 130Q484 181 499 242T526 368T546 490T558 593T562
660Q562 703 583 703Q595 703 609 692T634 664T645 632Q645 613 641 570T628 468T608 345T582 219T550 107T512 27T471 -3Q446 -3 424 33T376 135T318 290T239 486Q211 387 191 299T155 142T126 36T99 -3ZM507 747Q452 747 396 836Q379 829 364 809T336 772T306
754Q290 754 282 763T274 786Q274 809 292 836T337 882T392 902Q419 902 435 890T463 862T483 833T504 821Q515 821 523 831T541 855T560 879T583 890Q595 890 601 882T608 860Q608 837 595 811T558 766T507 747Z" />
<glyph unicode="&#xd2;" glyph-name="Ograve" horiz-adv-x="613" d="M219 -3Q186 -3 157 15T104 62T67 126T54 194Q54 266 75 338T131 476T211 592T303 672T396 702Q452 702 496 667T566 574T592 453Q592 396 572 333T516 211T433 103T331 26T219 -3ZM225 76Q258
76 295 99T369 162T435 250T482 349T500 444Q500 521 471 569T401 617Q370 617 336 589T267 516T206 415T162 303T145 200Q145 145 169 111T225 76ZM464 744Q451 744 441 751T414 772Q378 801 352 816T311 846T296 881Q296 889 303 900T321 921T344 930Q352 930
368 917T405 882T445 838T476 797T489 771Q489 761 481 753T464 744Z" />
<glyph unicode="&#xd3;" glyph-name="Oacute" horiz-adv-x="613" d="M219 -3Q186 -3 157 15T104 62T67 126T54 194Q54 266 75 338T131 476T211 592T303 672T396 702Q452 702 496 667T566 574T592 453Q592 396 572 333T516 211T433 103T331 26T219 -3ZM225 76Q258
76 295 99T369 162T435 250T482 349T500 444Q500 521 471 569T401 617Q370 617 336 589T267 516T206 415T162 303T145 200Q145 145 169 111T225 76ZM432 750Q424 750 417 758T409 780Q409 788 422 806T455 847T497 891T539 925T568 939Q584 939 595 922T607 888Q607
867 601 859T575 838Q519 800 492 781T454 756T432 750Z" />
<glyph unicode="&#xd4;" glyph-name="Ocircumflex" horiz-adv-x="613" d="M219 -3Q186 -3 157 15T104 62T67 126T54 194Q54 266 75 338T131 476T211 592T303 672T396 702Q452 702 496 667T566 574T592 453Q592 396 572 333T516 211T433 103T331 26T219 -3ZM225
76Q258 76 295 99T369 162T435 250T482 349T500 444Q500 521 471 569T401 617Q370 617 336 589T267 516T206 415T162 303T145 200Q145 145 169 111T225 76ZM589 726Q572 726 552 742T513 783T475 829Q446 815 419 794T370 756T333 739Q300 739 300 778Q300 791
316 807T356 841T406 873T452 897T479 906Q495 906 510 890T546 848Q574 814 588 796T608 768T614 750Q614 726 589 726Z" />
<glyph unicode="&#xd5;" glyph-name="Otilde" horiz-adv-x="613" d="M219 -3Q186 -3 157 15T104 62T67 126T54 194Q54 266 75 338T131 476T211 592T303 672T396 702Q452 702 496 667T566 574T592 453Q592 396 572 333T516 211T433 103T331 26T219 -3ZM225 76Q258
76 295 99T369 162T435 250T482 349T500 444Q500 521 471 569T401 617Q370 617 336 589T267 516T206 415T162 303T145 200Q145 145 169 111T225 76ZM509 747Q454 747 398 836Q381 829 366 809T338 772T308 754Q292 754 284 763T276 786Q276 809 294 836T339 882T394
902Q421 902 437 890T465 862T485 833T506 821Q517 821 525 831T543 855T562 879T585 890Q597 890 603 882T610 860Q610 837 597 811T560 766T509 747Z" />
<glyph unicode="&#xd6;" glyph-name="Odieresis" horiz-adv-x="613" d="M219 -3Q186 -3 157 15T104 62T67 126T54 194Q54 266 75 338T131 476T211 592T303 672T396 702Q452 702 496 667T566 574T592 453Q592 396 572 333T516 211T433 103T331 26T219 -3ZM225 76Q258
76 295 99T369 162T435 250T482 349T500 444Q500 521 471 569T401 617Q370 617 336 589T267 516T206 415T162 303T145 200Q145 145 169 111T225 76ZM537 743Q523 743 505 756T474 786T461 815Q461 834 476 851T507 869Q515 869 524 858T543 830T558 799T564 776Q564
760 555 752T537 743ZM387 743Q373 743 355 756T324 786T311 815Q311 834 325 851T356 869Q364 869 373 858T392 830T407 799T413 776Q413 761 405 752T387 743Z" />
<glyph unicode="&#xd7;" glyph-name="multiply" horiz-adv-x="518" d="M87 94Q79 94 68 101T49 118T41 136Q41 148 65 169T128 221T206 292Q175 335 148 375T103 447T86 498Q86 519 103 519Q122 519 142 514T176 500T191 480Q191 446 262 350Q298 390 335 429T404
493T452 519Q467 519 485 504T503 474Q503 468 484 448T434 401T371 344T310 287Q327 265 348 239T389 188T421 144T434 116Q434 94 409 94Q363 94 253 231Q191 167 150 131T87 94Z" />
<glyph unicode="&#xd8;" glyph-name="Oslash" horiz-adv-x="613" d="M225 -3Q168 -3 119 48Q99 24 85 10T62 -5Q52 -5 44 3T36 21Q36 33 48 51T81 99Q54 148 54 194Q54 259 73 329T125 466T202 585T295 670T396 702Q470 702 527 640Q580 695 600 695Q624 695 624
671Q624 658 612 638T566 582Q597 522 597 456Q597 392 575 327T516 202T430 97T330 24T225 -3ZM146 181L469 575Q439 617 401 617Q372 617 338 590T270 519T208 419T162 307T145 200Q145 185 146 181ZM230 76Q264 76 301 100T375 164T441 252T487 348T505 438Q505
472 498 505Q332 315 171 112Q196 76 230 76Z" />
<glyph unicode="&#xd9;" glyph-name="Ugrave" horiz-adv-x="598" d="M241 -9Q199 -9 164 19T107 93T85 192Q85 250 97 313T127 441T156 563T169 669Q169 686 173 692T192 699Q201 699 216 687T242 655T254 611Q254 590 246 552T226 465T202 368T181 275T173 203Q173
146 194 111T248 76Q288 76 322 107T385 191T434 305T466 429T477 542Q477 593 473 621T468 678Q468 699 486 699Q501 699 520 684T554 640T569 576Q569 503 556 422T517 265T452 126T360 28T241 -9ZM406 744Q393 744 383 751T356 772Q320 801 294 816T253 846T238
881Q238 889 245 900T263 921T286 930Q294 930 310 917T347 882T387 838T418 797T431 771Q431 761 423 753T406 744Z" />
<glyph unicode="&#xda;" glyph-name="Uacute" horiz-adv-x="598" d="M241 -9Q199 -9 164 19T107 93T85 192Q85 250 97 313T127 441T156 563T169 669Q169 686 173 692T192 699Q201 699 216 687T242 655T254 611Q254 590 246 552T226 465T202 368T181 275T173 203Q173
146 194 111T248 76Q288 76 322 107T385 191T434 305T466 429T477 542Q477 593 473 621T468 678Q468 699 486 699Q501 699 520 684T554 640T569 576Q569 503 556 422T517 265T452 126T360 28T241 -9ZM374 750Q366 750 359 758T351 780Q351 788 364 806T397 847T439
891T481 925T510 939Q526 939 537 922T549 888Q549 867 543 859T517 838Q461 800 434 781T396 756T374 750Z" />
<glyph unicode="&#xdb;" glyph-name="Ucircumflex" horiz-adv-x="598" d="M241 -9Q199 -9 164 19T107 93T85 192Q85 250 97 313T127 441T156 563T169 669Q169 686 173 692T192 699Q201 699 216 687T242 655T254 611Q254 590 246 552T226 465T202 368T181 275T173
203Q173 146 194 111T248 76Q288 76 322 107T385 191T434 305T466 429T477 542Q477 593 473 621T468 678Q468 699 486 699Q501 699 520 684T554 640T569 576Q569 503 556 422T517 265T452 126T360 28T241 -9ZM531 726Q514 726 494 742T455 783T417 829Q388 815
361 794T312 756T275 739Q242 739 242 778Q242 791 258 807T298 841T348 873T394 897T421 906Q437 906 452 890T488 848Q516 814 530 796T550 768T556 750Q556 726 531 726Z" />
<glyph unicode="&#xdc;" glyph-name="Udieresis" horiz-adv-x="598" d="M241 -9Q199 -9 164 19T107 93T85 192Q85 250 97 313T127 441T156 563T169 669Q169 686 173 692T192 699Q201 699 216 687T242 655T254 611Q254 590 246 552T226 465T202 368T181 275T173
203Q173 146 194 111T248 76Q288 76 322 107T385 191T434 305T466 429T477 542Q477 593 473 621T468 678Q468 699 486 699Q501 699 520 684T554 640T569 576Q569 503 556 422T517 265T452 126T360 28T241 -9ZM479 743Q465 743 447 756T416 786T403 815Q403 834
418 851T449 869Q457 869 466 858T485 830T500 799T506 776Q506 760 497 752T479 743ZM329 743Q315 743 297 756T266 786T253 815Q253 834 267 851T298 869Q306 869 315 858T334 830T349 799T355 776Q355 761 347 752T329 743Z" />
<glyph unicode="&#xdd;" glyph-name="Yacute" horiz-adv-x="575" d="M212 -11Q190 -11 190 25Q190 53 218 110Q224 122 236 147T263 199T288 248T302 275Q252 288 213 325T147 416T106 528T92 645Q92 663 102 679T132 696Q141 696 147 687T161 652T181 576Q191
535 207 496T244 424T285 372T324 353Q336 353 354 378T395 442T440 524T485 607T527 671T560 696Q582 696 594 681T607 649Q607 634 598 614T569 561Q520 480 469 394T370 224T282 64Q262 25 244 7T212 -11ZM336 750Q328 750 321 758T313 780Q313 788 326 806T359
847T401 891T443 925T472 939Q488 939 499 922T511 888Q511 867 505 859T479 838Q423 800 396 781T358 756T336 750Z" />
<glyph unicode="&#xde;" glyph-name="Thorn" horiz-adv-x="503" d="M98 -5Q88 -5 77 5T59 31T51 61Q51 77 62 122T89 230T120 364T147 504T158 630Q158 647 162 654T184 661Q194 661 210 650T238 618T251 572Q251 554 245 520Q277 528 301 528Q331 528 361 514T416
476T456 424T471 366Q471 316 444 279T372 216T272 177T162 164Q149 117 138 79T117 18T98 -5ZM182 243Q215 243 251 251T317 274T367 312T387 365Q387 397 361 417T296 438Q263 438 226 422L182 243Z" />
<glyph unicode="&#xdf;" glyph-name="germandbls" horiz-adv-x="585" d="M92 -10Q73 -10 60 11T47 49Q47 73 67 126T115 269T160 490Q173 579 221 634T356 690Q389 690 418 674T471 631T507 572T521 508Q521 468 502 441T459 397T415 368T396 348Q396 339 415
325T458 290T502 238T521 165Q521 115 494 77T422 17T325 -5Q282 -5 258 12T233 52Q233 74 261 74Q274 74 291 70T321 65Q342 65 369 78T416 115T437 168Q437 196 424 216T390 253T349 284T315 315T301 352Q301 367 314 379T348 404T389 430T423 461T437 502Q437
532 424 555T389 593T345 607Q305 607 277 574T234 472Q185 234 149 112T92 -10Z" />
<glyph unicode="&#xe0;" glyph-name="agrave" horiz-adv-x="469" d="M142 -5Q112 -5 81 13T28 60T7 116Q7 160 26 211T77 311T147 401T224 466T297 491Q342 491 380 446Q398 424 408 405T418 366Q418 347 413 328T393 289Q405 274 405 263Q405 226 393 167T368
20Q365 -5 350 -5Q338 -5 330 7T317 39T310 77T307 108Q218 -5 142 -5ZM138 78Q170 78 207 107T278 185T326 296Q329 310 343 315Q343 408 306 408Q281 408 252 387T195 331T143 256T105 179T91 116Q91 99 105 89T138 78ZM350 529Q332 529 306 553T228 610Q215
619 199 631T183 662Q183 671 189 683T207 705T231 715Q242 715 268 689Q315 642 338 617T368 579T376 557Q376 547 368 538T350 529Z" />
<glyph unicode="&#xe1;" glyph-name="aacute" horiz-adv-x="469" d="M142 -5Q112 -5 81 13T28 60T7 116Q7 160 26 211T77 311T147 401T224 466T297 491Q342 491 380 446Q398 424 408 405T418 366Q418 347 413 328T393 289Q405 274 405 263Q405 226 393 167T368
20Q365 -5 350 -5Q338 -5 330 7T317 39T310 77T307 108Q218 -5 142 -5ZM138 78Q170 78 207 107T278 185T326 296Q329 310 343 315Q343 408 306 408Q281 408 252 387T195 331T143 256T105 179T91 116Q91 99 105 89T138 78ZM311 532Q301 532 294 541T286 561Q286
570 298 589T331 631T373 674T414 708T443 722Q459 722 471 703T484 671Q484 649 476 640T453 621Q400 590 364 561T311 532Z" />
<glyph unicode="&#xe2;" glyph-name="acircumflex" horiz-adv-x="469" d="M142 -5Q112 -5 81 13T28 60T7 116Q7 160 26 211T77 311T147 401T224 466T297 491Q342 491 380 446Q398 424 408 405T418 366Q418 347 413 328T393 289Q405 274 405 263Q405 226 393 167T368
20Q365 -5 350 -5Q338 -5 330 7T317 39T310 77T307 108Q218 -5 142 -5ZM138 78Q170 78 207 107T278 185T326 296Q329 310 343 315Q343 408 306 408Q281 408 252 387T195 331T143 256T105 179T91 116Q91 99 105 89T138 78ZM450 782Q439 782 420 798T379 839T339
885Q310 871 285 850T238 812T197 795Q184 795 174 804T164 831Q164 849 199 876T307 950Q318 957 326 959T340 962Q344 962 352 958T378 936T427 881Q450 853 464 840T478 802Q478 795 471 789T450 782Z" />
<glyph unicode="&#xe3;" glyph-name="atilde" horiz-adv-x="469" d="M142 -5Q112 -5 81 13T28 60T7 116Q7 160 26 211T77 311T147 401T224 466T297 491Q342 491 380 446Q398 424 408 405T418 366Q418 347 413 328T393 289Q405 274 405 263Q405 226 393 167T368
20Q365 -5 350 -5Q338 -5 330 7T317 39T310 77T307 108Q218 -5 142 -5ZM138 78Q170 78 207 107T278 185T326 296Q329 310 343 315Q343 408 306 408Q281 408 252 387T195 331T143 256T105 179T91 116Q91 99 105 89T138 78ZM385 785Q331 785 273 873Q253 863 239
844T213 808T184 792Q151 792 151 822Q151 847 169 874T215 920T269 940Q297 940 312 929T338 903T357 874T382 858Q442 928 461 928Q486 928 486 894Q486 871 471 846T433 803T385 785Z" />
<glyph unicode="&#xe4;" glyph-name="adieresis" horiz-adv-x="469" d="M142 -5Q112 -5 81 13T28 60T7 116Q7 160 26 211T77 311T147 401T224 466T297 491Q342 491 380 446Q398 424 408 405T418 366Q418 347 413 328T393 289Q405 274 405 263Q405 226 393 167T368
20Q365 -5 350 -5Q338 -5 330 7T317 39T310 77T307 108Q218 -5 142 -5ZM138 78Q170 78 207 107T278 185T326 296Q329 310 343 315Q343 408 306 408Q281 408 252 387T195 331T143 256T105 179T91 116Q91 99 105 89T138 78ZM401 554Q394 554 378 567T349 597T336
626Q336 645 351 662T382 680Q390 680 399 669T418 641T433 610T439 587Q439 554 401 554ZM262 554Q247 554 229 567T198 597T185 626Q185 645 200 662T231 680Q239 680 248 669T267 641T282 610T288 587Q288 572 280 563T262 554Z" />
<glyph unicode="&#xe5;" glyph-name="aring" horiz-adv-x="469" d="M142 -5Q112 -5 81 13T28 60T7 116Q7 160 26 211T77 311T147 401T224 466T297 491Q342 491 380 446Q398 424 408 405T418 366Q418 347 413 328T393 289Q405 274 405 263Q405 226 393 167T368
20Q365 -5 350 -5Q338 -5 330 7T317 39T310 77T307 108Q218 -5 142 -5ZM138 78Q170 78 207 107T278 185T326 296Q329 310 343 315Q343 408 306 408Q281 408 252 387T195 331T143 256T105 179T91 116Q91 99 105 89T138 78ZM345 531Q308 531 285 556T262 620Q262
646 276 670T312 710T358 726Q395 726 417 701T440 637Q440 611 427 587T391 547T345 531ZM348 584Q360 584 370 598T381 631Q381 649 374 659T354 670Q341 670 331 656T320 623Q320 584 348 584Z" />
<glyph unicode="&#xe6;" glyph-name="ae" horiz-adv-x="743" d="M158 -5Q129 -5 99 13T49 60T29 118Q29 157 45 206T90 305T155 397T233 465T314 491Q349 491 380 467T427 408Q501 491 575 491Q605 491 633 476T683 435T719 381T732 326Q732 295 715 273T669 235T607
213T544 205Q513 205 480 209T413 221Q399 179 399 149Q399 110 419 90T492 70Q529 70 562 79T619 96T651 105Q677 105 677 85Q677 71 660 55T614 26T554 4T492 -5Q428 -5 383 31T327 122Q281 60 241 28T158 -5ZM529 269Q579 269 617 285T655 330Q655 348 644 367T614
399T575 412Q555 412 530 395T480 347T437 278Q479 269 529 269ZM153 78Q188 78 227 109T304 197T368 325Q365 408 322 408Q296 408 267 387T211 331T161 257T125 180T111 116Q111 99 124 89T153 78Z" />
<glyph unicode="&#xe7;" glyph-name="ccedilla" horiz-adv-x="447" d="M85 -208Q65 -208 53 -201T40 -184Q40 -173 56 -169T116 -155Q147 -149 167 -139T187 -123Q187 -118 174 -115T143 -107T113 -98T99 -86Q99 -81 104 -67T117 -37T130 -9T137 7Q93 25 63 62T32
143Q32 185 48 232T92 325T156 408T232 468T312 491Q340 491 363 473T400 432T415 389Q415 380 410 375T396 370Q385 370 374 379T350 397T319 406Q296 406 270 389T217 342T169 278T134 209T121 145Q121 114 140 96T204 78Q246 78 280 88T337 109T371 120Q390
120 390 101Q390 87 372 70T324 36T262 8T200 -5Q189 -32 176 -53Q200 -53 222 -61T258 -83T272 -110Q272 -139 244 -161T172 -196T85 -208Z" />
<glyph unicode="&#xe8;" glyph-name="egrave" horiz-adv-x="450" d="M195 -5Q143 -5 104 16T42 75T19 159Q19 199 32 244T70 332T127 412T197 469T274 491Q304 491 331 476T381 435T417 381T430 326Q430 293 411 270T362 233T298 212T233 205Q168 205 111 221Q97
177 97 143Q97 108 118 89T190 70Q226 70 260 79T318 96T349 105Q375 105 375 85Q375 72 358 56T314 27T256 4T195 -5ZM225 269Q276 269 314 285T352 329Q352 347 341 366T312 399T279 412Q242 412 202 374T134 278Q174 269 225 269ZM331 529Q313 529 287 553T209
610Q196 619 180 631T164 662Q164 671 170 683T188 705T212 715Q223 715 249 689Q296 642 319 617T349 579T357 557Q357 547 349 538T331 529Z" />
<glyph unicode="&#xe9;" glyph-name="eacute" horiz-adv-x="450" d="M195 -5Q143 -5 104 16T42 75T19 159Q19 199 32 244T70 332T127 412T197 469T274 491Q304 491 331 476T381 435T417 381T430 326Q430 293 411 270T362 233T298 212T233 205Q168 205 111 221Q97
177 97 143Q97 108 118 89T190 70Q226 70 260 79T318 96T349 105Q375 105 375 85Q375 72 358 56T314 27T256 4T195 -5ZM225 269Q276 269 314 285T352 329Q352 347 341 366T312 399T279 412Q242 412 202 374T134 278Q174 269 225 269ZM292 532Q282 532 275 541T267
561Q267 570 279 589T312 631T354 674T395 708T424 722Q440 722 452 703T465 671Q465 649 457 640T434 621Q381 590 345 561T292 532Z" />
<glyph unicode="&#xea;" glyph-name="ecircumflex" horiz-adv-x="450" d="M195 -5Q143 -5 104 16T42 75T19 159Q19 199 32 244T70 332T127 412T197 469T274 491Q304 491 331 476T381 435T417 381T430 326Q430 293 411 270T362 233T298 212T233 205Q168 205 111
221Q97 177 97 143Q97 108 118 89T190 70Q226 70 260 79T318 96T349 105Q375 105 375 85Q375 72 358 56T314 27T256 4T195 -5ZM225 269Q276 269 314 285T352 329Q352 347 341 366T312 399T279 412Q242 412 202 374T134 278Q174 269 225 269ZM431 782Q420 782 401
798T360 839T320 885Q291 871 266 850T219 812T178 795Q165 795 155 804T145 831Q145 849 180 876T288 950Q299 957 307 959T321 962Q325 962 333 958T359 936T408 881Q431 853 445 840T459 802Q459 795 452 789T431 782Z" />
<glyph unicode="&#xeb;" glyph-name="edieresis" horiz-adv-x="450" d="M195 -5Q143 -5 104 16T42 75T19 159Q19 199 32 244T70 332T127 412T197 469T274 491Q304 491 331 476T381 435T417 381T430 326Q430 293 411 270T362 233T298 212T233 205Q168 205 111 221Q97
177 97 143Q97 108 118 89T190 70Q226 70 260 79T318 96T349 105Q375 105 375 85Q375 72 358 56T314 27T256 4T195 -5ZM225 269Q276 269 314 285T352 329Q352 347 341 366T312 399T279 412Q242 412 202 374T134 278Q174 269 225 269ZM382 554Q375 554 359 567T330
597T317 626Q317 645 332 662T363 680Q371 680 380 669T399 641T414 610T420 587Q420 554 382 554ZM243 554Q228 554 210 567T179 597T166 626Q166 645 181 662T212 680Q220 680 229 669T248 641T263 610T269 587Q269 572 261 563T243 554Z" />
<glyph unicode="&#xec;" glyph-name="igrave" horiz-adv-x="238" d="M62 -4Q48 -4 38 7T28 34Q28 38 35 72T54 155T79 260T105 363T125 442Q138 491 154 491Q167 491 179 480T199 454T207 423Q207 395 193 339T155 208T105 46Q90 -4 62 -4ZM219 529Q201 529 175
553T97 610Q84 619 68 631T52 662Q52 671 58 683T76 705T100 715Q111 715 137 689Q184 642 207 617T237 579T245 557Q245 547 237 538T219 529Z" />
<glyph unicode="&#xed;" glyph-name="iacute" horiz-adv-x="238" d="M62 -4Q48 -4 38 7T28 34Q28 38 35 72T54 155T79 260T105 363T125 442Q138 491 154 491Q167 491 179 480T199 454T207 423Q207 395 193 339T155 208T105 46Q90 -4 62 -4ZM180 788Q170 788 163
797T155 817Q155 826 167 845T200 887T242 930T283 964T312 978Q328 978 340 959T353 927Q353 905 345 896T322 877Q269 846 233 817T180 788Z" />
<glyph unicode="&#xee;" glyph-name="icircumflex" horiz-adv-x="238" d="M62 -4Q48 -4 38 7T28 34Q28 38 35 72T54 155T79 260T105 363T125 442Q138 491 154 491Q167 491 179 480T199 454T207 423Q207 395 193 339T155 208T105 46Q90 -4 62 -4ZM575 782Q564 782
545 798T504 839T464 885Q435 871 410 850T363 812T322 795Q309 795 299 804T289 831Q289 849 324 876T432 950Q443 957 451 959T465 962Q469 962 477 958T503 936T552 881Q575 853 589 840T603 802Q603 795 596 789T575 782Z" />
<glyph unicode="&#xef;" glyph-name="idieresis" horiz-adv-x="238" d="M62 -4Q48 -4 38 7T28 34Q28 38 35 72T54 155T79 260T105 363T125 442Q138 491 154 491Q167 491 179 480T199 454T207 423Q207 395 193 339T155 208T105 46Q90 -4 62 -4ZM526 554Q519 554
503 567T474 597T461 626Q461 645 476 662T507 680Q515 680 524 669T543 641T558 610T564 587Q564 554 526 554ZM387 554Q372 554 354 567T323 597T310 626Q310 645 325 662T356 680Q364 680 373 669T392 641T407 610T413 587Q413 572 405 563T387 554Z" />
<glyph unicode="&#xf0;" glyph-name="eth" horiz-adv-x="452" d="M155 -5Q121 -5 93 15T48 72T31 157Q31 216 49 268T98 360T171 424T257 447Q295 447 332 412Q328 472 307 523Q267 507 242 499T206 491Q174 491 174 509Q174 523 191 533T232 553T281 571Q245
623 214 623Q204 623 190 616T164 608Q146 608 146 631Q146 645 158 659T187 683T223 693Q297 693 358 601Q396 616 417 623T446 631Q469 631 469 615Q469 596 384 556Q424 472 424 376Q424 328 412 276T377 173T321 83T247 19T155 -5ZM162 66Q189 66 217 91T271
156T313 246T333 345Q303 382 274 382Q238 382 202 352T143 268T119 149Q119 118 131 92T162 66Z" />
<glyph unicode="&#xf1;" glyph-name="ntilde" horiz-adv-x="533" d="M76 -5Q66 -5 54 5T32 31T23 57Q23 64 34 96T60 180T86 293T97 422Q97 495 118 495Q133 495 148 484T173 457T184 422Q184 404 177 361T157 267T129 169H132Q184 260 222 319T288 413T333 464T364
486T385 491Q411 491 435 472T476 423T492 363Q492 338 484 294T463 198T431 101T393 25T351 -5Q329 -5 329 25Q329 49 341 86T369 167T397 254T409 332Q409 350 403 371T381 393Q372 393 362 388T336 365T293 308T223 202T115 32Q102 12 93 4T76 -5ZM390 785Q336
785 278 873Q258 863 244 844T218 808T189 792Q156 792 156 822Q156 847 174 874T220 920T274 940Q302 940 317 929T343 903T362 874T387 858Q447 928 466 928Q491 928 491 894Q491 871 476 846T438 803T390 785Z" />
<glyph unicode="&#xf2;" glyph-name="ograve" horiz-adv-x="453" d="M155 -5Q121 -5 94 16T52 75T36 162Q36 201 48 245T82 333T134 412T200 469T278 491Q317 491 348 468T398 406T417 318Q417 254 395 196T336 93T252 21T155 -5ZM160 63Q191 63 221 88T277 154T318
239T333 321Q333 344 327 368T310 410T290 428Q266 428 242 409T196 359T157 292T131 219T121 154Q121 122 132 93T160 63ZM349 529Q331 529 305 553T227 610Q214 619 198 631T182 662Q182 671 188 683T206 705T230 715Q241 715 267 689Q314 642 337 617T367 579T375
557Q375 547 367 538T349 529Z" />
<glyph unicode="&#xf3;" glyph-name="oacute" horiz-adv-x="453" d="M155 -5Q121 -5 94 16T52 75T36 162Q36 201 48 245T82 333T134 412T200 469T278 491Q317 491 348 468T398 406T417 318Q417 254 395 196T336 93T252 21T155 -5ZM160 63Q191 63 221 88T277 154T318
239T333 321Q333 344 327 368T310 410T290 428Q266 428 242 409T196 359T157 292T131 219T121 154Q121 122 132 93T160 63ZM310 532Q300 532 293 541T285 561Q285 570 297 589T330 631T372 674T413 708T442 722Q458 722 470 703T483 671Q483 649 475 640T452 621Q399
590 363 561T310 532Z" />
<glyph unicode="&#xf4;" glyph-name="ocircumflex" horiz-adv-x="453" d="M155 -5Q121 -5 94 16T52 75T36 162Q36 201 48 245T82 333T134 412T200 469T278 491Q317 491 348 468T398 406T417 318Q417 254 395 196T336 93T252 21T155 -5ZM160 63Q191 63 221 88T277
154T318 239T333 321Q333 344 327 368T310 410T290 428Q266 428 242 409T196 359T157 292T131 219T121 154Q121 122 132 93T160 63ZM449 782Q438 782 419 798T378 839T338 885Q309 871 284 850T237 812T196 795Q183 795 173 804T163 831Q163 849 198 876T306 950Q317
957 325 959T339 962Q343 962 351 958T377 936T426 881Q449 853 463 840T477 802Q477 795 470 789T449 782Z" />
<glyph unicode="&#xf5;" glyph-name="otilde" horiz-adv-x="453" d="M155 -5Q121 -5 94 16T52 75T36 162Q36 201 48 245T82 333T134 412T200 469T278 491Q317 491 348 468T398 406T417 318Q417 254 395 196T336 93T252 21T155 -5ZM160 63Q191 63 221 88T277 154T318
239T333 321Q333 344 327 368T310 410T290 428Q266 428 242 409T196 359T157 292T131 219T121 154Q121 122 132 93T160 63ZM384 785Q330 785 272 873Q252 863 238 844T212 808T183 792Q150 792 150 822Q150 847 168 874T214 920T268 940Q296 940 311 929T337 903T356
874T381 858Q441 928 460 928Q485 928 485 894Q485 871 470 846T432 803T384 785Z" />
<glyph unicode="&#xf6;" glyph-name="odieresis" horiz-adv-x="453" d="M155 -5Q121 -5 94 16T52 75T36 162Q36 201 48 245T82 333T134 412T200 469T278 491Q317 491 348 468T398 406T417 318Q417 254 395 196T336 93T252 21T155 -5ZM160 63Q191 63 221 88T277
154T318 239T333 321Q333 344 327 368T310 410T290 428Q266 428 242 409T196 359T157 292T131 219T121 154Q121 122 132 93T160 63ZM400 554Q393 554 377 567T348 597T335 626Q335 645 350 662T381 680Q389 680 398 669T417 641T432 610T438 587Q438 554 400 554ZM261
554Q246 554 228 567T197 597T184 626Q184 645 199 662T230 680Q238 680 247 669T266 641T281 610T287 587Q287 572 279 563T261 554Z" />
<glyph unicode="&#xf7;" glyph-name="divide" horiz-adv-x="612" d="M378 425Q362 425 341 440T305 476T289 511Q289 526 297 541T318 566T343 576Q352 576 363 562T385 527T403 486T410 452Q410 444 399 435T378 425ZM102 260Q77 260 59 281T40 320Q40 342 67
342Q249 342 362 351T538 361Q606 361 606 339Q606 329 580 316T496 289T341 268T102 260ZM290 29Q274 29 253 44T217 80T201 115Q201 129 209 144T230 169T255 179Q264 179 275 165T297 131T315 90T322 57Q322 49 311 39T290 29Z" />
<glyph unicode="&#xf8;" glyph-name="oslash" horiz-adv-x="457" d="M40 -5Q20 -5 20 14Q20 25 57 72Q36 112 36 157Q36 213 58 271T117 379T203 460T304 491Q352 491 388 457Q427 493 451 493Q475 493 475 473Q475 466 465 451T427 403Q444 366 444 323Q444 265
421 207T358 101T268 24T165 -5Q125 -5 88 29Q55 -5 40 -5ZM115 141Q137 167 165 200T223 268T278 333T320 383T341 407Q334 416 326 422T307 429Q273 429 239 401T177 329T132 235T115 141ZM171 57Q208 57 243 85T307 157T353 250T370 340Q287 247 229 182T135
78Q142 69 151 63T171 57Z" />
<glyph unicode="&#xf9;" glyph-name="ugrave" horiz-adv-x="481" d="M129 -5Q97 -5 72 13T31 58T16 111Q16 149 26 198T53 299T89 394T128 464T164 491Q182 491 195 475T209 437Q209 429 182 373Q164 336 146 290T114 197T101 112Q101 96 111 86T135 75Q174 75
226 142Q261 187 292 242T347 355T385 463Q389 479 393 485T411 491Q420 491 432 479T454 449T463 415Q463 410 456 385T438 321T413 240T387 155T365 83T351 37Q339 -5 317 -5Q300 -5 293 9T285 44Q285 61 293 92T309 151Q267 83 219 39T129 -5ZM328 529Q310 529
284 553T206 610Q193 619 177 631T161 662Q161 671 167 683T185 705T209 715Q220 715 246 689Q293 642 316 617T346 579T354 557Q354 547 346 538T328 529Z" />
<glyph unicode="&#xfa;" glyph-name="uacute" horiz-adv-x="481" d="M129 -5Q97 -5 72 13T31 58T16 111Q16 149 26 198T53 299T89 394T128 464T164 491Q182 491 195 475T209 437Q209 429 182 373Q164 336 146 290T114 197T101 112Q101 96 111 86T135 75Q174 75
226 142Q261 187 292 242T347 355T385 463Q389 479 393 485T411 491Q420 491 432 479T454 449T463 415Q463 410 456 385T438 321T413 240T387 155T365 83T351 37Q339 -5 317 -5Q300 -5 293 9T285 44Q285 61 293 92T309 151Q267 83 219 39T129 -5ZM289 532Q279 532
272 541T264 561Q264 570 276 589T309 631T351 674T392 708T421 722Q437 722 449 703T462 671Q462 649 454 640T431 621Q378 590 342 561T289 532Z" />
<glyph unicode="&#xfb;" glyph-name="ucircumflex" horiz-adv-x="481" d="M129 -5Q97 -5 72 13T31 58T16 111Q16 149 26 198T53 299T89 394T128 464T164 491Q182 491 195 475T209 437Q209 429 182 373Q164 336 146 290T114 197T101 112Q101 96 111 86T135 75Q174
75 226 142Q261 187 292 242T347 355T385 463Q389 479 393 485T411 491Q420 491 432 479T454 449T463 415Q463 410 456 385T438 321T413 240T387 155T365 83T351 37Q339 -5 317 -5Q300 -5 293 9T285 44Q285 61 293 92T309 151Q267 83 219 39T129 -5ZM428 782Q417
782 398 798T357 839T317 885Q288 871 263 850T216 812T175 795Q162 795 152 804T142 831Q142 849 177 876T285 950Q296 957 304 959T318 962Q322 962 330 958T356 936T405 881Q428 853 442 840T456 802Q456 795 449 789T428 782Z" />
<glyph unicode="&#xfc;" glyph-name="udieresis" horiz-adv-x="481" d="M129 -5Q97 -5 72 13T31 58T16 111Q16 149 26 198T53 299T89 394T128 464T164 491Q182 491 195 475T209 437Q209 429 182 373Q164 336 146 290T114 197T101 112Q101 96 111 86T135 75Q174
75 226 142Q261 187 292 242T347 355T385 463Q389 479 393 485T411 491Q420 491 432 479T454 449T463 415Q463 410 456 385T438 321T413 240T387 155T365 83T351 37Q339 -5 317 -5Q300 -5 293 9T285 44Q285 61 293 92T309 151Q267 83 219 39T129 -5ZM379 554Q372
554 356 567T327 597T314 626Q314 645 329 662T360 680Q368 680 377 669T396 641T411 610T417 587Q417 554 379 554ZM240 554Q225 554 207 567T176 597T163 626Q163 645 178 662T209 680Q217 680 226 669T245 641T260 610T266 587Q266 572 258 563T240 554Z" />
<glyph unicode="&#xfd;" glyph-name="yacute" horiz-adv-x="469" d="M142 -265Q104 -265 67 -249T6 -208T-19 -159Q-19 -146 -7 -129T15 -111Q21 -111 27 -116T44 -133Q103 -199 143 -199Q164 -199 182 -173T224 -84T284 92Q214 -5 144 -5Q116 -5 90 13T48 61T31
126Q31 155 40 200T66 296T101 391T139 463T175 491Q195 491 209 475T224 441Q224 431 213 406T186 346T155 271T128 190T117 112Q117 96 127 86T151 75Q175 75 206 104T269 183T329 291Q346 328 364 375T402 480Q407 491 422 491Q433 491 445 480T466 452T475
415Q475 402 462 359T428 255T382 125T333 -9T292 -122Q241 -265 142 -265ZM314 552Q304 552 297 561T289 581Q289 590 301 609T334 651T376 694T417 728T446 742Q462 742 474 723T487 691Q487 669 479 660T456 641Q403 610 367 581T314 552Z" />
<glyph unicode="&#xfe;" glyph-name="thorn" horiz-adv-x="526" d="M43 -220Q34 -220 22 -210T0 -186T-9 -157Q-9 -145 0 -104T24 -1T58 134T94 287T127 442T152 583T161 696Q161 712 165 719T185 726Q195 726 209 713T234 677T245 631Q245 594 218 454Q282 483
335 483Q361 483 389 467T443 424T484 366T500 302Q500 253 471 211T397 136T301 86T209 68Q163 68 135 90Q56 -220 43 -220ZM193 142Q230 142 270 155T344 192T399 243T420 302Q420 343 392 370T324 398Q272 398 198 353Q185 288 150 152Q171 142 193 142Z" />
<glyph unicode="&#xff;" glyph-name="ydieresis" horiz-adv-x="469" d="M142 -265Q104 -265 67 -249T6 -208T-19 -159Q-19 -146 -7 -129T15 -111Q21 -111 27 -116T44 -133Q103 -199 143 -199Q164 -199 182 -173T224 -84T284 92Q214 -5 144 -5Q116 -5 90 13T48
61T31 126Q31 155 40 200T66 296T101 391T139 463T175 491Q195 491 209 475T224 441Q224 431 213 406T186 346T155 271T128 190T117 112Q117 96 127 86T151 75Q175 75 206 104T269 183T329 291Q346 328 364 375T402 480Q407 491 422 491Q433 491 445 480T466 452T475
415Q475 402 462 359T428 255T382 125T333 -9T292 -122Q241 -265 142 -265ZM404 574Q397 574 381 587T352 617T339 646Q339 665 354 682T385 700Q393 700 402 689T421 661T436 630T442 607Q442 574 404 574ZM265 574Q250 574 232 587T201 617T188 646Q188 665 203
682T234 700Q242 700 251 689T270 661T285 630T291 607Q291 592 283 583T265 574Z" />
<glyph unicode="&#x2013;" glyph-name="endash" horiz-adv-x="610" d="M110 222Q97 222 82 238T67 270Q67 280 98 291T179 313T289 333T407 347T511 353Q572 353 572 328Q572 310 493 293T252 249Q192 239 161 231T110 222Z" />
<glyph unicode="&#x2014;" glyph-name="emdash" horiz-adv-x="917" d="M106 222Q93 222 80 238T67 272Q67 285 97 295T179 313T296 326T431 336T569 342T694 345T790 346Q889 346 889 318Q889 311 880 305T842 294T762 283T623 273T410 260Q387 259 352 255T278
245T203 234T141 226T106 222Z" />
<glyph unicode="&#x2018;" glyph-name="quoteleft" horiz-adv-x="235" d="M181 710Q206 710 206 691Q206 681 178 647T108 549Q105 545 99 541T83 537Q69 537 51 546T33 570Q33 579 50 601T91 649T140 692T181 710Z" />
<glyph unicode="&#x2019;" glyph-name="quoteright" horiz-adv-x="228" d="M54 537Q29 537 29 556Q29 567 57 600T127 698Q130 703 136 706T152 710Q166 710 184 701T202 677Q202 668 185 646T144 598T95 555T54 537Z" />
<glyph unicode="&#x201a;" glyph-name="quotesinglbase" horiz-adv-x="249" d="M65 -87Q40 -87 40 -69Q40 -58 67 -24T137 73Q140 78 146 81T163 85Q178 85 195 76T213 52Q213 41 196 19T153 -28T103 -70T65 -87Z" />
<glyph unicode="&#x201c;" glyph-name="quotedblleft" horiz-adv-x="325" d="M300 710Q325 710 325 692Q325 681 297 648T227 550Q224 546 219 542T202 538Q189 538 171 547T152 571Q152 580 169 602T210 649T260 692T300 710ZM148 709Q173 709 173 691Q173 681
145 647T75 549Q72 545 66 541T50 537Q34 537 17 545T0 570Q0 579 16 601T57 648T107 691T148 709Z" />
<glyph unicode="&#x201d;" glyph-name="quotedblright" horiz-adv-x="325" d="M177 539Q152 539 152 557Q152 568 180 601T250 699Q253 704 259 707T275 711Q291 711 308 703T325 678Q325 669 309 647T268 600T218 557T177 539ZM25 538Q0 538 0 556Q0 567 28 600T98
698Q101 703 107 706T123 710Q137 710 155 701T173 677Q173 668 156 646T115 599T65 556T25 538Z" />
<glyph unicode="&#x201e;" glyph-name="quotedblbase" horiz-adv-x="325" d="M177 -86Q152 -86 152 -68Q152 -56 180 -23T250 74Q253 79 259 83T275 87Q288 87 306 78T325 53Q325 43 308 21T266 -26T217 -68T177 -86ZM25 -87Q0 -87 0 -69Q0 -58 27 -24T97 73Q100
78 106 81T123 85Q138 85 155 76T173 52Q173 41 156 19T113 -28T63 -70T25 -87Z" />
<glyph unicode="&#x2022;" glyph-name="bullet" horiz-adv-x="382" d="M191 202Q147 202 115 233T83 309Q83 354 115 385T191 417Q235 417 266 386T298 309Q298 265 267 234T191 202Z" />
<glyph unicode="&#x2039;" glyph-name="guilsinglleft" horiz-adv-x="225" d="M167 -12Q158 -12 142 3T95 44T12 102Q3 108 0 118T-4 140Q-4 158 2 170Q7 182 36 218T107 318Q110 323 116 327T132 331Q146 331 164 322T182 297Q182 291 178 285Q165 265 142 238T94
187T51 149Q62 141 84 125T129 88T168 48T185 13Q185 -12 167 -12Z" />
<glyph unicode="&#x203a;" glyph-name="guilsinglright" horiz-adv-x="227" d="M51 -10Q36 -10 18 1T0 28Q0 31 2 34T5 39Q21 58 46 83T99 130T145 164Q124 182 98 208T51 259T28 297V307Q30 331 47 331H48Q51 331 53 329Q62 326 74 311T112 270T188 207Q201 195
201 175Q201 165 199 156T192 139Q185 127 153 93T73 0Q70 -4 65 -7T51 -10Z" />
</font>
</defs>
</svg>
