<?xml version="1.0" standalone="no"?>
<!DOCTYPE svg PUBLIC "-//W3C//DTD SVG 1.1//EN" "http://www.w3.org/Graphics/SVG/1.1/DTD/svg11.dtd">
<svg xmlns="http://www.w3.org/2000/svg">
<defs >
<font id="ZhiMangXing" horiz-adv-x="891" ><font-face
    font-family="Zhi Mang Xing"
    units-per-em="1000"
    panose-1="0 0 5 0 0 0 0 0 0 0"
    ascent="880"
    descent="-120"
    alphabetic="0" />
<glyph unicode=" " glyph-name="space" horiz-adv-x="202" />
<glyph unicode="!" glyph-name="exclam" horiz-adv-x="247" d="M100 656T100 673Q100 684 125 688T193 707T244 722T262 714T272 690T251 625T197 504T149 391T127 309T120 260T113 248Q99 248 87 286T74 384T90 515T135 634Q100 656 100 673ZM89 34T73 57T56
113Q56 147 72 169T113 192Q136 192 152 170T169 113Q169 81 153 58T113 34Q89 34 73 57Z" />
<glyph unicode="&quot;" glyph-name="quotedbl" horiz-adv-x="249" d="M50 548T50 721Q50 744 74 744Q115 744 124 726T133 652T124 545T100 494Q95 494 80 504T60 523Q50 548 50 721ZM170 727Q170 742 199 742Q217 742 230 736T247 722T253 709T257 692T258 675V636Q258
583 250 539T230 495Q188 495 178 527Q175 535 175 577V654L170 727Z" />
<glyph unicode="#" glyph-name="numbersign" horiz-adv-x="464" d="M395 373T406 373T426 352T436 320T430 305T412 299T389 298T360 301T333 303Q331 292 322 241T307 111Q306 108 299 105T286 102T260 122T239 149T237 170T241 198T247 234T259 300L184 297Q182
287 178 267T166 204T153 84Q150 74 145 74Q137 74 116 97T91 131Q86 150 89 180T108 290Q83 286 62 286T33 292Q19 302 19 312T22 334Q27 358 33 358L121 354Q139 440 148 478Q93 474 84 475Q60 475 60 503Q60 517 70 529T86 541Q116 541 162 539Q177 602 181
616Q181 619 177 634T174 656Q176 665 197 670T233 676Q251 676 254 656T246 572Q245 569 236 539L313 541Q337 646 332 646Q332 686 386 686Q404 686 407 666T399 582Q391 554 388 545Q426 549 442 549Q462 549 462 505Q462 480 372 484Q359 435 345 363Q395 373
406 373ZM216 460T194 355L270 357Q272 366 299 483L221 481Q216 460 194 355Z" />
<glyph unicode="$" glyph-name="dollar" horiz-adv-x="351" d="M111 14T115 85H105Q59 85 41 104T23 177Q23 257 59 291Q107 334 138 334H140Q146 380 149 404Q75 447 73 449Q36 474 36 520T87 631T195 729Q207 810 205 827T202 849Q203 861 214 861Q249 861 259
832T262 761L259 749Q293 745 326 717T359 650T337 588T284 564T235 596Q218 476 216 458Q334 376 334 306T289 180T178 98Q167 -68 150 -68Q143 -68 136 -45Q111 14 115 85ZM253 331T206 366Q202 337 193 248Q253 280 253 312Q253 331 206 366ZM106 215T128 220Q130
245 139 318Q118 304 96 278T74 232Q74 215 99 215Q106 215 128 220ZM154 599T137 577T120 543T121 526T128 517T136 510T147 503T160 495Q164 527 176 614Q154 599 137 577Z" />
<glyph unicode="%" glyph-name="percent" horiz-adv-x="595" d="M274 484T204 405Q178 379 148 379T100 391Q35 436 35 544Q35 620 84 736Q88 744 91 746T101 749T120 757T156 766T208 750T246 708Q274 646 274 583Q274 484 204 405ZM159 487T175 536T191 644T168
702Q158 702 148 690Q108 620 108 525Q108 512 113 500T132 487Q159 487 175 536ZM250 25Q250 18 243 18Q221 18 201 60T181 111T188 160T225 293T280 444Q332 575 412 757Q415 767 420 767Q430 767 443 739T456 704Q456 649 342 406Q306 330 277 232T248 53L250
25ZM575 318T575 256T539 121T448 49T367 102T340 209T346 292T371 366Q376 378 390 378Q422 441 455 441T512 423T550 374Q575 318 575 256ZM493 377T470 377T432 306T417 193T433 152Q455 152 474 201T493 300Q493 377 470 377Z" />
<glyph unicode="&amp;" glyph-name="ampersand" horiz-adv-x="515" d="M293 313Q290 313 290 314T294 324Q311 358 352 388T414 419Q424 419 435 402T448 374Q448 350 410 282T329 161Q383 101 404 101Q415 101 458 129T513 158T525 143T517 112Q485 32 400 32Q349
32 290 116Q213 29 127 29Q100 29 78 51T44 104Q20 166 20 209Q20 283 55 336T162 448Q145 501 145 544Q145 628 198 685T337 771Q357 776 372 776T412 752T440 706Q440 621 377 524T234 362Q237 345 250 311T275 261Q283 270 296 286Q326 321 330 323L293 313ZM184
326T174 313T161 295T150 277T137 255T127 232T118 205T113 177T110 144T115 123T128 117T144 120T159 131T173 145T189 164T204 183Q219 204 231 220Q206 255 185 328Q184 326 174 313ZM379 663Q378 669 371 669T356 665Q302 641 260 592T218 502L219 484Q327
560 374 637Q373 637 373 638L379 663Z" />
<glyph unicode="&apos;" glyph-name="quotesingle" horiz-adv-x="134" d="M97 494T78 504T54 522T50 578T58 721Q59 744 93 744T135 729T143 660T132 551T103 494Q97 494 78 504Z" />
<glyph unicode="(" glyph-name="parenleft" horiz-adv-x="344" d="M263 -178T249 -187T225 -197Q158 -181 116 -62T74 203T131 498T296 773Q305 784 326 801T361 819T374 806T369 764T353 725Q184 549 184 183Q184 -6 262 -173Q263 -178 249 -187Z" />
<glyph unicode=")" glyph-name="parenright" horiz-adv-x="344" d="M111 703T101 695T84 682T72 680Q66 704 95 758T151 820Q171 819 188 807T212 767Q274 653 274 409Q274 270 216 119T58 -151Q49 -161 25 -179T-11 -197T-26 -186Q-36 -144 -21 -129Q74 -29 119
122T164 434Q164 437 164 469T165 511T162 550T154 600Q138 665 120 708Q111 703 101 695Z" />
<glyph unicode="*" glyph-name="asterisk" horiz-adv-x="293" d="M203 509Q203 471 188 452T154 432Q146 432 139 439T132 463T133 494T136 520L138 540Q122 529 109 521L88 508Q76 501 67 501Q61 501 57 515T53 539T55 555T106 596Q45 645 45 658T55 677T83 683T144
659V709Q144 764 174 764Q189 764 194 751T200 707L199 656Q208 663 222 676Q254 704 266 704T287 690T295 665Q295 651 237 609Q255 597 266 589Q287 574 295 574L303 577Q308 577 308 558T295 526T259 513T202 536L203 509Z" />
<glyph unicode="+" glyph-name="plus" horiz-adv-x="400" d="M242 188Q242 165 212 165Q197 165 176 198T155 253Q155 255 158 273T162 307V326Q88 324 64 324Q30 324 30 372Q30 401 55 401Q95 401 161 398Q164 442 176 488T207 534Q220 534 243 520T266 493T263
467T253 433T243 395Q330 392 346 392T371 373T380 346Q380 320 343 320L234 325Q233 315 233 295L242 188Z" />
<glyph unicode="," glyph-name="comma" horiz-adv-x="190" d="M57 236Q57 242 62 242Q96 242 119 202T142 138T138 93T107 7T66 -59T43 -26T35 41T41 107T52 160Q61 196 61 209L57 236Z" />
<glyph unicode="-" glyph-name="hyphen" horiz-adv-x="350" d="M105 213T72 228T39 281Q39 299 54 299Q78 299 93 297T136 294T197 302T253 310T292 297T311 261Q311 216 144 213Q105 213 72 228Z" />
<glyph unicode="." glyph-name="period" horiz-adv-x="180" d="M63 44T47 67T30 123Q30 157 46 179T87 202Q110 202 126 180T143 123Q143 91 127 68T87 44Q63 44 47 67Z" />
<glyph unicode="/" glyph-name="slash" horiz-adv-x="494" d="M70 -72T59 -72Q34 -72 17 -26T0 35T8 68Q39 153 99 266T206 454T338 664T440 824T462 849Q475 849 487 808Q494 789 494 780Q494 744 437 651T326 478T219 312T124 130T71 -48L70 -61Q70 -72 59 -72Z" />
<glyph unicode="0" glyph-name="zero" horiz-adv-x="402" d="M392 382T354 269T237 81Q195 41 160 41Q137 41 120 60Q30 160 30 314Q30 417 67 539T168 730Q182 748 189 748Q190 748 196 745Q213 773 247 773Q265 773 287 762Q392 710 392 502Q392 382 354 269ZM311
646T261 681Q254 686 247 686Q225 686 212 653Q178 563 178 484Q178 442 184 414T191 378T183 370Q172 370 164 384T151 405T142 423L136 435Q121 348 121 278Q121 152 143 152Q150 152 162 167Q270 317 305 508Q311 548 311 568Q311 646 261 681Z" />
<glyph unicode="1" glyph-name="one" horiz-adv-x="205" d="M193 587T164 405T135 155Q135 139 144 109T153 67T138 54Q82 54 77 78Q75 85 65 120Q46 185 46 225Q46 448 134 729Q144 760 151 760Q154 760 163 751Q193 720 193 634Q193 587 164 405Z" />
<glyph unicode="2" glyph-name="two" horiz-adv-x="380" d="M295 227Q322 227 322 181Q322 159 304 141Q229 61 117 61Q96 61 86 76Q59 120 59 182T68 262T87 289Q164 363 215 433T298 588Q302 597 302 607T300 625T293 636T283 644T271 649T258 652Q226 655 203
655T174 631Q160 570 106 529Q91 518 79 518Q59 518 48 554T37 618Q37 674 110 719Q108 735 120 735Q124 735 130 731Q180 753 219 753T293 724Q300 718 314 707T343 683T369 638T381 567T351 462Q296 341 207 241Q200 230 200 229Q200 222 236 222L295 227Z" />
<glyph unicode="3" glyph-name="three" horiz-adv-x="360" d="M86 471Q86 479 89 481T98 486T105 490Q195 538 234 634Q237 640 237 650Q237 665 211 665Q199 665 192 664Q190 634 137 612T76 589Q44 589 44 653L47 701Q48 722 67 731Q100 744 138 754Q135 762
135 770T140 778T150 776T159 767T166 758Q176 760 196 760Q234 760 272 722Q278 716 287 701T303 679Q326 653 326 613T303 528T257 456T233 422T259 391T313 322T340 238T320 157Q274 65 150 38Q135 35 123 35T99 38T79 49T65 63T54 83T47 104T42 129T40 152Q37
180 37 200V206Q37 231 66 238Q84 242 117 246T158 253T171 255T175 248T156 213T137 184T140 181T153 184Q238 214 238 277Q238 307 215 331T161 356Q150 356 129 348T99 339T89 352T87 396L86 471Z" />
<glyph unicode="4" glyph-name="four" horiz-adv-x="442" d="M368 441T384 441T420 423T439 384T420 352Q398 341 352 325L337 184Q333 144 333 65Q333 53 328 42T315 30T303 33T294 41T286 52T279 66T273 79T268 91T264 101Q247 142 247 189Q247 190 253 292Q190
271 163 271Q79 271 60 350Q37 442 37 501Q37 635 308 778Q322 784 335 784T356 770Q365 756 372 713T380 652Q380 597 363 440Q368 441 384 441ZM245 593T186 519T127 422Q127 410 148 410Q157 410 172 412Q232 420 264 424Q266 447 270 490Q278 560 278 576T266
593Q245 593 186 519Z" />
<glyph unicode="5" glyph-name="five" horiz-adv-x="375" d="M160 766Q210 766 241 771T274 777Q296 777 315 757T335 719T322 691Q261 639 182 637Q170 623 153 585Q250 559 297 482T344 305T296 138Q225 37 153 37Q95 37 76 110Q61 166 61 190T89 231Q133 258
188 313Q194 319 199 319Q208 319 208 301T193 247T177 206T179 200Q183 200 195 209Q268 270 268 369Q268 415 242 441T167 467T80 420Q44 505 44 551T100 741Q106 760 109 764T119 768L160 766Z" />
<glyph unicode="6" glyph-name="six" horiz-adv-x="410" d="M99 239Q99 195 126 188Q122 208 122 234Q122 306 158 372T255 483Q277 498 297 498Q337 498 363 462T390 384V373Q376 196 261 80Q224 41 187 41T127 57Q120 62 103 81Q36 158 36 324Q36 434 72 524T181
706Q201 731 231 752T286 773T321 754T332 704T314 640T261 607Q258 607 248 609Q125 472 100 255L99 239ZM303 368T284 368Q274 368 266 360Q233 328 200 279T156 191Q189 205 231 251T298 337Q303 345 303 352Q303 368 284 368Z" />
<glyph unicode="7" glyph-name="seven" horiz-adv-x="344" d="M110 607Q94 607 86 597T70 586Q50 586 41 624T32 693Q32 762 48 762Q54 762 58 753T67 741T76 735T89 732T102 731Q115 731 133 731T265 736Q280 737 296 745T317 753Q333 753 356 726T379 683T367
655T349 628T304 529Q209 319 209 310T222 286T235 256T213 171T182 76T154 52T128 70Q109 123 109 185T121 308T145 406T182 516T217 614Q184 603 152 603L110 607Z" />
<glyph unicode="8" glyph-name="eight" horiz-adv-x="368" d="M352 636T352 575T262 404Q339 324 339 204Q339 126 300 86T183 45Q78 45 39 136Q20 183 20 217T32 282T70 345Q103 387 159 443Q103 514 103 571Q103 642 176 724Q217 769 255 769Q275 769 290 754Q299
745 301 729T305 694L303 690Q352 636 352 575ZM293 637T269 652Q196 591 180 571Q170 561 170 545T199 483Q264 550 290 609Q293 615 293 622Q293 637 269 652ZM283 236T283 265T225 363Q204 340 159 296T98 235T83 210Q83 192 154 192Q216 192 258 220Q283 236
283 265Z" />
<glyph unicode="9" glyph-name="nine" horiz-adv-x="372" d="M136 210T136 206Q136 190 147 190Q180 190 207 255T235 360Q235 368 232 368T221 360T206 341T184 322T156 313T127 319Q82 336 61 384T39 484T55 574Q99 680 188 752Q209 768 228 768T261 757Q358
691 358 500Q358 263 205 72Q184 46 155 46T111 74Q99 95 88 138T77 207T104 240Q113 243 121 249T131 258T144 274Q136 210 136 206ZM265 681T252 681Q246 681 239 674Q186 624 119 461Q115 449 115 448T117 446T140 453T187 488T228 536T265 595V609Q265 681
252 681Z" />
<glyph unicode=":" glyph-name="colon" horiz-adv-x="231" d="M70 290T54 313T37 369Q37 403 53 425T94 448Q117 448 133 426T150 369Q150 337 134 314T94 290Q70 290 54 313ZM102 275T86 298T69 354Q69 388 85 410T126 433Q149 433 165 411T182 354Q182 322 166
299T126 275Q102 275 86 298Z" />
<glyph unicode=";" glyph-name="semicolon" horiz-adv-x="232" d="M52 205Q52 219 64 219Q91 219 116 190T142 113Q142 76 114 9T71 -59T48 -27T40 29T43 89T51 151T56 182L52 205ZM104 274T88 297T71 353Q71 387 87 409T128 432Q151 432 167 410T184 353Q184
321 168 298T128 274Q104 274 88 297Z" />
<glyph unicode="&lt;" glyph-name="less" horiz-adv-x="400" d="M293 415T247 397T166 365Q195 357 252 324T346 285Q388 279 352 214Q332 179 314 177T270 189T206 231T152 267T108 288Q42 314 40 325Q40 336 65 381Q73 396 83 400T134 422Q240 469 285 493Q291
519 305 520Q316 522 331 507T348 474Q354 435 294 415Q293 415 247 397Z" />
<glyph unicode="=" glyph-name="equal" horiz-adv-x="400" d="M296 468Q365 468 365 401Q365 385 350 385L168 388Q81 388 69 381Q65 379 64 379Q51 379 44 401T37 436T44 461T63 473Q145 467 236 467L296 468ZM84 250Q65 250 57 268T49 305Q49 335 75 335Q138
335 166 333T214 330T266 328T315 327T346 326T367 304T376 272Q376 246 339 246L190 252L84 250Z" />
<glyph unicode="&gt;" glyph-name="greater" horiz-adv-x="400" d="M108 308T163 327T253 359Q217 368 166 399T90 441T64 464T74 497T104 519T149 507T213 465T267 429T311 408Q377 382 379 371Q379 360 354 315Q346 300 337 296T240 257T114 201Q108 175 94
174Q87 173 77 186Q53 217 51 248Q45 287 105 307Q108 308 163 327Z" />
<glyph unicode="?" glyph-name="question" horiz-adv-x="307" d="M167 341T192 347T227 353T243 349T250 338Q250 320 202 286T118 251Q75 251 75 325Q75 372 103 416T174 508T234 585Q243 609 243 613Q243 637 214 650T162 664T124 649T100 615T75 581T39 565Q34
565 29 586T24 619Q24 678 81 715T185 752Q216 752 248 720Q311 657 311 569Q311 522 287 480T234 413T179 365T151 330Q167 341 192 347ZM110 24T94 47T77 103Q77 137 93 159T134 182Q157 182 173 160T190 103Q190 71 174 48T134 24Q110 24 94 47Z" />
<glyph unicode="@" glyph-name="at" horiz-adv-x="583" d="M405 450Q403 427 397 386T389 317V315Q389 294 398 294Q478 370 478 577Q478 663 378 663Q296 663 233 613T140 487T110 326Q110 204 151 139Q173 103 209 103Q227 103 279 119T339 142L351 152Q377
164 361 77Q342 57 304 44T228 30T136 62Q100 83 69 156T37 305T61 455T130 591T244 691T397 729T522 677T563 494T504 274Q470 222 420 210Q389 210 367 248T338 323Q338 322 331 309T320 288T308 268T293 246T279 229Q263 211 244 211T205 239Q199 247 194 263T179
293T170 330T179 372Q242 496 311 541Q319 548 332 548T356 540T369 528T373 520T376 513Q379 499 379 495Q406 486 406 462L405 450ZM253 411T228 298Q305 365 350 498Q253 411 228 298Z" />
<glyph unicode="A" glyph-name="A" horiz-adv-x="601" d="M373 570T373 681V707Q373 724 381 732T399 742T437 744T497 723T529 666Q529 659 520 579T508 374Q542 388 562 403T590 419Q601 419 601 399T570 347T508 295Q508 273 510 225Q513 227 518 227T529 224T539
217T550 206T559 194T567 183T573 174Q591 147 591 132T585 96Q562 37 554 -7Q550 -28 530 -28Q508 -28 500 -17T487 2T479 22T473 42T469 66Q466 87 465 108L464 124Q460 172 454 270Q428 261 374 259Q358 187 342 127T288 30T196 -6Q180 -6 158 -1Q29 34 -18
162Q-30 195 -30 220Q-30 280 20 302Q128 351 231 351L324 349Q373 570 373 681ZM446 447T442 627Q434 581 418 489T393 351Q431 355 450 359Q446 447 442 627ZM237 258Q115 258 42 241Q1 233 1 211Q1 194 28 167T98 126T170 111T218 121T249 142T272 178Q286 209
301 258H237Z" />
<glyph unicode="B" glyph-name="B" horiz-adv-x="478" d="M128 642T96 638T41 624T13 614T3 616T-3 625T-6 636T-8 650T-9 664V691Q-9 716 1 716Q3 716 7 714Q100 752 201 752Q341 752 394 664Q424 613 424 567T382 476T260 375Q427 324 457 212Q463 193 463 172Q463
54 250 11Q210 2 185 2T141 13T122 43T134 86Q131 119 131 168T143 305Q133 306 127 313T120 330T123 360T128 386Q133 424 158 441Q171 609 174 642Q128 642 96 638ZM334 609T300 625T187 642Q218 625 218 584V576Q213 538 213 514T214 480Q334 571 334 595Q334
609 300 625ZM391 166T391 183T376 220Q335 272 232 303Q220 307 214 307T201 304Q184 208 183 151Q191 172 214 190T253 208T268 203Q268 196 246 189T210 167T196 124T223 95Q273 95 370 154Q391 166 391 183Z" />
<glyph unicode="C" glyph-name="C" horiz-adv-x="384" d="M359 144T259 39Q238 17 201 17Q141 17 102 47Q30 102 30 267Q30 376 74 497T186 718Q196 730 201 730T212 727T226 720T237 715V745Q231 757 231 766T239 775T256 772Q344 742 344 628Q344 563 311 495Q302
477 295 477Q290 477 280 493Q248 559 239 664Q224 664 217 653T193 595Q130 425 130 246Q130 147 152 77Q217 138 264 228T335 414Q359 335 359 274Q359 144 259 39Z" />
<glyph unicode="D" glyph-name="D" horiz-adv-x="490" d="M10 655Q10 668 21 675Q78 713 182 738Q225 747 253 747Q395 747 458 573Q480 511 480 442Q480 338 425 232T312 61Q280 27 244 27T188 55T168 126T184 224T234 292Q229 269 229 244T246 181T288 144T327
172Q389 284 389 427Q389 597 300 647Q274 661 250 661T198 647Q206 604 206 539T184 330T161 111V79Q161 53 149 45T124 37Q87 37 72 174Q66 229 62 248Q65 249 71 249Q89 249 113 223V249Q112 328 134 537Q135 545 135 566T131 611Q124 607 103 590Q54 550 34
550T13 585L14 616L10 655Z" />
<glyph unicode="E" glyph-name="E" horiz-adv-x="452" d="M145 459T284 459H301Q328 474 335 474Q352 474 377 447T403 383Q403 371 390 371Q386 371 353 377Q343 374 316 366T278 355T245 344T212 331T183 315T152 294Q114 257 100 236Q74 200 74 162T92 104T151
84T250 104T308 164Q308 177 302 189T283 202T201 162T128 121T124 129T131 150Q160 199 207 228T305 257T391 227T427 159T407 94Q346 14 175 14Q69 14 18 96Q-10 139 -10 179T15 276T81 363T188 415Q91 446 91 538Q91 593 137 632Q176 666 239 702T319 749T353
760T394 733Q406 735 411 735Q434 735 444 715Q452 696 452 690Q452 654 299 593Q293 591 291 591Q285 591 285 599T295 638L262 622Q204 592 191 578Q167 549 156 524T145 493Q145 459 284 459Z" />
<glyph unicode="F" glyph-name="F" horiz-adv-x="501" d="M535 525T543 525T551 513T525 461Q477 386 388 351Q365 224 299 100Q255 14 200 14Q169 14 133 44Q108 66 99 88Q86 119 78 147T69 208T89 277T143 340Q203 389 282 421L323 437Q325 456 325 514T313
632Q306 676 267 676Q249 676 235 668T217 635Q190 503 117 414Q87 377 66 377T29 405Q26 413 25 428T22 453T20 470Q20 520 84 588Q108 614 128 652T148 732L147 757Q147 770 154 770Q163 770 210 723Q242 744 284 744T357 709T395 617T402 468Q535 525 543 525ZM258
314Q237 309 197 305T137 297Q100 290 100 259T141 188T208 147T245 167Q283 235 305 326L258 314Z" />
<glyph unicode="G" glyph-name="G" horiz-adv-x="443" d="M231 325Q202 325 184 340T166 366T179 382T264 422T365 469T407 483T438 469T455 441T450 419T435 403T417 391T395 380T377 371Q355 361 355 349L358 340Q384 291 384 243Q384 171 333 94Q287 28 212
28Q162 28 120 47T61 108Q30 186 30 274Q30 338 39 377T52 437T70 492T88 542T110 596T132 645Q160 708 179 746Q189 769 217 769T278 759T325 732Q353 702 353 674T317 588Q306 572 306 540Q304 526 291 526Q283 526 277 531T270 541T266 557T262 570Q252 598
252 662Q252 675 244 675T202 589Q123 393 123 250Q123 173 135 125Q140 104 161 104T206 135Q273 222 273 299Q273 326 248 326L231 325Z" />
<glyph unicode="H" glyph-name="H" horiz-adv-x="472" d="M96 338Q114 338 173 355Q184 406 208 500Q246 645 246 661T236 677Q224 677 201 671T177 655Q177 648 192 631T208 608T207 599Q129 500 68 454Q58 446 48 446Q26 446 17 476Q15 483 7 500Q-10 538 -10
557T6 595Q76 665 180 740Q192 750 213 750T260 742T306 689T327 621T319 556T281 383L330 394Q349 558 396 724Q398 730 398 735T393 750T388 763T393 768T406 763Q447 736 447 711Q447 699 444 687Q417 563 402 409Q408 410 419 410T458 400T487 373Q487 367
480 361T447 333T412 307T393 301Q387 235 387 211T395 143T403 86T397 54T378 36Q370 36 357 47Q312 89 312 139T320 278Q289 270 252 257Q226 144 226 118L236 50Q236 34 226 18T204 2T183 11T166 39T156 59Q137 94 137 123T148 229Q116 233 103 249T73 296T55
337T62 347L96 338Z" />
<glyph unicode="I" glyph-name="I" horiz-adv-x="293" d="M207 718T193 718T165 697T150 668T155 638T160 593T143 495T116 396T91 371Q80 371 72 380T52 409T30 441T20 472T51 558T103 669Q89 686 89 692Q89 704 106 704Q111 704 119 700Q121 703 128 716T138
735T148 750T162 766Q181 778 198 778Q273 778 272 560Q272 554 272 551Q272 320 218 22Q213 0 196 0Q177 0 152 24T114 61Q79 96 67 112Q52 129 52 144T63 181T88 204T113 183T134 162T144 177T150 221Q158 280 182 430T207 653V684Q207 718 193 718Z" />
<glyph unicode="J" glyph-name="J" horiz-adv-x="376" d="M461 761Q486 761 506 749T526 716Q526 676 448 658Q408 649 372 650T301 651Q261 592 261 529Q261 495 276 429Q304 313 304 269T300 201T291 158T276 115Q257 68 213 56T125 44Q43 44 -30 86Q-60 103
-60 135Q-60 152 -57 168Q-52 206 -36 212Q43 244 123 244T203 231Q203 222 176 210T140 192Q117 181 100 162Q107 163 119 166Q145 171 160 171Q249 177 249 322Q249 364 235 446T221 571T232 653Q159 656 83 662Q28 666 25 703Q23 731 23 744Q23 765 41 765L344
760L461 761Z" />
<glyph unicode="K" glyph-name="K" horiz-adv-x="532" d="M210 669T210 664V651Q210 597 164 543T61 452Q47 444 38 444Q21 444 11 469T0 512T13 548Q99 662 202 732Q222 746 247 746T303 730Q345 708 345 646Q345 616 332 573T307 495T293 453Q341 498 407 602Q432
642 442 657Q494 739 505 762Q505 787 520 787Q530 787 543 775T564 756T572 743T566 726Q491 556 319 374Q317 372 317 369Q317 354 351 354Q400 341 428 279Q432 271 448 231T475 169Q485 145 500 145Q506 145 514 150T525 155Q540 155 540 118T535 67T505 34T463
15T417 49T359 170T321 275Q310 301 295 301T269 284T242 267Q227 197 227 155T230 94T233 66T219 43T192 30T158 52Q145 65 144 75Q142 94 140 125T138 179Q138 256 155 333T205 507Q252 649 252 669T234 689Q212 689 210 674Q210 669 210 664Z" />
<glyph unicode="L" glyph-name="L" horiz-adv-x="396" d="M226 747Q226 751 229 751T247 741T282 718T309 678T315 599T284 507Q273 493 267 493Q255 493 253 516T240 539Q233 539 232 524Q229 500 229 435Q221 264 171 157Q199 152 223 152Q318 152 363 204Q372
216 378 216T385 198Q385 147 375 104Q360 41 292 41T130 90Q95 42 65 42T-13 89T-60 166Q-60 182 -43 191T-5 200T83 178Q116 240 124 319T154 549T180 731T193 762T230 716V722L226 747ZM33 141Q30 141 30 131T38 120Q42 120 51 133L33 141Z" />
<glyph unicode="M" glyph-name="M" horiz-adv-x="715" d="M715 372T715 361T714 339Q698 149 619 61Q593 32 534 30Q462 56 462 157Q462 175 466 202T533 590Q445 412 420 156Q417 126 415 111Q411 79 388 79Q357 79 322 126Q310 142 310 166T311 219T317 283T323
339T332 403T342 458T353 522T364 579Q349 564 338 534T319 486T305 441T293 396T282 350T272 309Q265 283 249 212T229 123T222 93T218 77T212 64Q204 50 187 50T157 62T140 84T130 111T123 139T129 174T143 236T154 283T164 328T175 376T184 420T193 468T201
513T209 562Q219 628 221 654V661Q221 679 213 679T187 651T162 608T152 567Q138 428 80 341Q73 331 58 331T27 347T10 380Q10 482 79 616Q106 667 123 767Q150 727 156 714T171 701Q175 701 189 713T230 725T275 711T296 679T303 625Q309 630 324 644Q356 672
380 672T424 646T442 591Q454 605 486 660Q509 696 547 696Q610 696 610 639Q610 613 586 495T551 301T540 156V137Q573 165 604 207T651 275T698 358Q707 372 710 372Q715 372 715 361Z" />
<glyph unicode="N" glyph-name="N" horiz-adv-x="601" d="M310 54Q310 33 294 18T255 2T210 31T186 82Q186 107 199 133Q200 140 206 203T237 415T270 619V629Q270 653 253 653T217 635Q219 631 219 619T192 543T115 347Q100 311 75 311T30 341T10 392T17 433Q42
493 74 552T124 647T152 698T172 714T190 712Q209 735 241 735T305 715T338 615Q338 587 333 535T327 468Q408 699 471 757Q482 768 502 768Q547 768 558 751T570 687T561 586T533 450T509 341T503 289T506 264Q514 264 546 317T585 371T591 352Q591 285 576 210T532
96T480 57Q470 57 455 68T437 83Q404 119 404 188Q404 249 466 550Q485 646 492 683Q417 557 376 417T311 97L308 72L310 54Z" />
<glyph unicode="O" glyph-name="O" horiz-adv-x="427" d="M427 367T367 311Q328 165 272 79Q239 30 195 30Q172 30 141 48Q58 99 44 166T30 306Q30 496 126 696Q138 719 151 719Q153 719 198 701Q223 759 300 759Q340 759 359 744Q402 710 402 572Q402 526 395
465L419 513Q427 479 427 448Q427 367 367 311ZM321 661T314 677T293 693T271 682T249 651Q192 559 192 428Q192 395 210 360T259 324Q264 324 272 326Q321 473 321 644Q321 661 314 677ZM223 286T197 306T159 355Q137 413 137 458T143 533Q100 444 100 333T125
139Q134 109 153 109Q166 109 177 127Q220 187 254 278Q223 286 197 306Z" />
<glyph unicode="P" glyph-name="P" horiz-adv-x="416" d="M77 291Q77 481 125 641Q105 627 92 610Q59 567 27 567T-6 610Q-6 678 40 703Q80 726 133 744T226 763Q314 763 370 694T426 536Q426 481 407 422Q377 332 292 303Q246 287 207 287T148 306V263Q148 185
157 107L158 92Q158 59 127 43Q105 31 87 31T49 64Q16 117 -7 215Q-10 228 -10 236T-3 245T36 210T74 175T80 193L77 291ZM373 628T333 656T231 684Q194 684 171 669Q176 647 176 634T174 601T167 537T160 469Q187 501 244 501Q259 501 259 497T249 492Q181 492
181 451Q181 403 218 403Q225 403 237 405Q373 434 373 570Q373 628 333 656Z" />
<glyph unicode="Q" glyph-name="Q" horiz-adv-x="418" d="M398 109T398 75T378 19T325 -2Q275 -2 231 44Q209 17 182 17T124 41Q122 43 112 49T98 59T87 68Q74 79 68 93Q30 170 30 282Q30 439 102 639Q109 656 115 656T130 647Q133 653 145 677T163 713T183 745T209
775Q240 801 268 801T316 790Q365 762 377 717Q393 650 393 547T361 316T268 94Q299 65 319 65T357 87T384 109Q398 109 398 75ZM310 685T300 711T269 737T234 718Q138 603 138 416Q138 378 140 358T154 311T191 269Q196 266 196 263Q196 254 186 254T168 257Q130
273 105 331Q100 293 100 261Q100 125 155 87Q172 108 186 135Q180 163 180 175T182 187T201 166Q246 265 278 409T310 659Q310 685 300 711Z" />
<glyph unicode="R" glyph-name="R" horiz-adv-x="460" d="M32 723Q43 723 63 729Q171 763 231 763T341 745T425 686T460 600T442 518T390 452Q332 403 255 365Q321 330 321 242L320 199Q320 130 356 130Q393 130 432 162Q445 172 448 172Q456 172 456 160Q456
125 412 67Q386 36 353 36Q308 36 279 85T249 182L251 235Q251 302 230 320Q219 329 201 338L169 323Q156 226 156 167L157 80Q157 43 136 43Q128 43 112 52Q48 92 26 196Q25 201 25 204Q25 213 39 213T64 205T80 188T88 179Q97 179 97 196L93 243Q96 398 118 564Q125
608 128 620T131 637T130 646Q91 635 76 620T49 604T31 606T19 614T10 624Q-10 653 -10 675Q-10 727 8 727L32 723ZM380 641T336 652T258 664T199 660Q196 648 196 592T184 434Q304 479 374 596Q380 608 380 616Q380 641 336 652Z" />
<glyph unicode="S" glyph-name="S" horiz-adv-x="419" d="M444 688T444 678T434 656Q387 603 324 549Q310 537 303 537Q293 537 293 552T306 594T320 624T317 628T307 626Q192 585 147 497Q137 477 137 464Q137 438 177 415Q183 411 231 386Q328 334 353 302Q393
252 393 204Q393 185 383 165T356 134Q187 29 55 29Q-15 29 -15 93Q-15 114 -1 133Q-25 150 -25 169T2 209Q66 257 208 257Q223 257 244 247T278 224Q303 238 303 249T290 271Q271 285 220 308T154 339Q112 363 90 408T67 503T92 595T164 668Q234 715 339 754Q353
758 361 758Q384 758 400 740Q444 688 444 678ZM200 188T187 188T137 176T99 149Q99 143 106 143Q133 143 210 186Q200 188 187 188Z" />
<glyph unicode="T" glyph-name="T" horiz-adv-x="381" d="M173 261Q173 449 233 616Q190 621 181 621Q141 621 116 606T64 569Q26 537 -15 537Q-32 537 -41 544T-52 560T-55 584T-58 609T-60 627T-45 649Q41 725 212 725Q245 725 278 722L286 740Q291 733 299
721H318Q412 721 524 759Q532 761 535 761Q551 761 551 744T533 709Q444 611 296 613Q271 516 262 376T251 217T249 184T258 129T267 82Q267 53 237 53Q191 53 141 155Q131 173 131 189T139 206T158 190T173 174T176 182L173 261Z" />
<glyph unicode="U" glyph-name="U" horiz-adv-x="563" d="M430 527T430 344T458 161Q464 161 469 166Q527 226 533 302Q533 322 538 322T553 306T563 246T529 135T451 67Q427 67 407 86T380 135T368 206T357 297T348 374Q341 347 322 265T292 143Q265 51 207 51Q179
51 158 67T132 111Q120 167 120 245T138 408T176 553T196 626T191 637T175 625T150 591T128 553T106 505T86 461Q72 432 50 432T14 459T0 509T17 551Q81 623 150 744L164 733Q187 740 192 740T205 738T230 730T254 723T273 714T289 700Q301 677 301 650T295 599T249
431T200 209V200Q200 183 206 183T218 199Q292 379 377 639Q383 659 383 669L376 699Q376 710 387 716Q403 727 431 739T476 751T492 735T486 698Q430 527 430 344Z" />
<glyph unicode="V" glyph-name="V" horiz-adv-x="479" d="M239 145T256 145Q263 145 274 161Q290 188 311 233Q401 424 401 628Q401 678 397 716T393 759Q393 796 421 796Q439 796 448 764Q469 684 469 584Q469 340 327 91Q297 40 259 40Q237 40 215 60Q152 118
152 236Q152 424 238 640Q242 650 242 656Q242 671 230 671Q224 671 213 664T196 647T182 624T171 605Q114 527 81 508Q66 500 51 500T18 518T0 550T6 580Q43 661 175 742Q199 757 233 757T294 729T321 658Q321 634 316 618T303 572T292 534T282 499T272 461T263
426T255 388T249 352T244 314Q239 264 239 238Q239 145 256 145Z" />
<glyph unicode="W" glyph-name="W" horiz-adv-x="611" d="M586 606T586 439T494 115Q462 60 404 60Q341 60 317 133Q306 166 300 205T291 255Q283 239 263 189T228 112Q207 70 168 70Q139 70 116 92Q97 112 92 170Q91 189 90 205T88 235T91 269T97 307T109 350T123
392T140 438T158 480T177 524T196 564Q209 595 229 635Q164 566 90 540Q69 533 48 533T13 550T0 598T38 665T125 722T211 743T283 718T317 652Q317 637 306 606T261 494Q189 315 165 212Q163 204 163 197T170 189Q200 189 290 460Q283 469 283 478Q283 491 307
491Q356 491 373 489T390 478T383 464Q372 347 372 307T380 204T405 141Q420 141 435 178Q502 325 502 466T428 728Q417 744 417 759Q417 783 452 783T505 752Q586 606 586 439ZM98 684T65 651Q54 640 54 631T66 622Q99 622 165 695Q98 684 65 651Z" />
<glyph unicode="X" glyph-name="X" horiz-adv-x="473" d="M473 712T473 691T455 617T421 565Q409 565 403 644Q344 557 290 443Q290 288 306 225Q321 169 351 130Q380 149 426 229Q437 247 443 247Q456 247 456 193T424 74Q407 40 371 40Q362 40 337 46T288 77T248
136Q225 192 215 270Q167 152 145 102T102 51Q91 51 73 61Q43 77 33 106T23 180Q23 195 33 195T60 180L75 164Q80 164 84 177Q181 389 202 430Q202 502 196 569Q185 679 166 679Q160 679 150 661T119 595T83 522T50 495T16 514T0 556T30 638T83 723Q86 741 90 772Q97
768 103 741Q126 758 151 758T202 748Q280 719 284 642Q286 606 286 587Q345 688 387 749Q401 768 410 768T428 761T444 742T456 727Q473 712 473 691Z" />
<glyph unicode="Y" glyph-name="Y" horiz-adv-x="517" d="M587 777T587 755Q587 746 578 730Q455 515 423 250Q412 164 412 130Q412 113 424 113Q428 113 431 123T437 133Q444 133 456 111T469 77Q469 48 422 -55Q405 -94 385 -94Q381 -94 373 -90Q331 -65 331
44T361 340Q353 330 333 302T300 257T265 220Q224 179 179 179T104 211Q95 221 77 259T58 342T78 436T120 522T156 584Q184 625 243 711Q249 721 249 727Q249 741 226 741T182 732T159 719T154 705L155 692Q155 669 138 652T100 620T55 605T21 609T6 624Q0 638
0 668T23 714Q26 716 51 732T83 754T113 771T149 788Q191 803 225 803T291 778T322 710Q322 683 305 644T236 528T169 426Q130 355 130 316T148 277Q165 277 197 305T246 353T286 405T320 455T354 510T390 569Q445 662 479 726Q477 736 477 743Q477 777 522 777Q587
777 587 755Z" />
<glyph unicode="Z" glyph-name="Z" horiz-adv-x="436" d="M321 722Q426 722 460 635Q466 618 466 601Q466 554 424 511T304 400T193 302Q118 230 118 184Q118 156 155 156Q229 156 391 183L400 184Q413 184 413 171T407 142Q381 56 212 56Q154 56 117 70T60 130Q48
156 48 185Q48 243 97 302T239 458T357 586T383 625Q383 642 312 642Q275 642 205 636Q148 602 58 602Q33 602 22 609T10 645T17 691T55 722T153 760T235 784T254 777T266 752L273 735Q279 721 292 721L321 722Z" />
<glyph unicode="[" glyph-name="bracketleft" horiz-adv-x="350" d="M356 818Q372 818 380 798T388 765Q385 746 354 736T294 725T218 732Q213 425 154 72Q138 -25 133 -59Q132 -71 139 -71L266 -66Q285 -66 299 -77T311 -114Q305 -165 138 -165Q93 -165 66 -117T45
-23T139 657Q145 701 150 799Q151 808 163 815T187 824L331 816L356 818Z" />
<glyph unicode="\" glyph-name="backslash" horiz-adv-x="543" d="M0 828T0 834T11 840T56 816T109 769Q229 610 321 448T515 75Q543 18 543 -6T533 -51T516 -72Q502 -72 493 -54Q490 -48 472 -5Q410 138 389 180Q254 458 66 736Q21 784 3 822Q0 828 0 834Z" />
<glyph unicode="]" glyph-name="bracketright" horiz-adv-x="350" d="M205 832Q244 832 275 779T302 690Q293 602 272 390Q229 -30 212 -144Q205 -171 103 -173Q57 -174 -8 -158Q-41 -150 -36 -110T-13 -67Q8 -67 59 -73T147 -80Q147 190 186 502Q206 657 212
718Q213 738 206 743T170 748T114 744T68 740Q45 740 34 774Q12 837 40 837L205 832Z" />
<glyph unicode="^" glyph-name="asciicircum" horiz-adv-x="500" d="M323 563T290 650Q279 622 236 559T182 460Q177 440 161 440T121 461T97 501T114 544T163 603T205 653T230 694Q264 758 274 758Q282 758 327 728Q339 719 343 708T361 654Q390 559 415 497Q440
488 440 474Q440 463 424 450T389 436Q351 436 336 496Q323 563 290 650Z" />
<glyph unicode="_" glyph-name="underscore" horiz-adv-x="521" d="M0 -142T0 -83Q0 -62 26 -62Q64 -62 88 -64T170 -67Q211 -65 440 -65Q473 -65 497 -76T521 -108Q521 -132 416 -138Q322 -142 241 -142Q241 -142 149 -142Q0 -142 0 -83Z" />
<glyph unicode="`" glyph-name="grave" horiz-adv-x="400" d="M214 576T206 588T186 615T149 655T112 690T100 709Q100 719 121 731T155 743T172 742T180 738T188 731T196 720T205 705T218 684T231 664T254 629Q292 571 292 558T280 545T258 547T242 552T228 562L217
573Q214 576 206 588Z" />
<glyph unicode="a" glyph-name="a" horiz-adv-x="418" d="M155 35T112 35Q81 35 56 73Q49 83 41 104T22 144T10 192T22 247Q104 409 195 469Q207 478 223 478T263 460Q277 446 280 436Q285 414 285 409Q320 397 320 365Q320 343 308 266T294 150Q294 129 308 129Q324
129 365 185T413 241Q423 241 423 208L421 159Q421 131 396 83T332 34Q308 34 294 50Q289 55 279 70Q248 115 237 182Q155 35 112 35ZM120 298T86 150Q187 237 246 413Q120 298 86 150Z" />
<glyph unicode="b" glyph-name="b" horiz-adv-x="332" d="M155 158Q189 158 203 191Q212 211 226 259T240 323Q240 351 218 351Q215 351 211 350Q155 337 134 296Q104 240 104 174Q104 142 111 105T119 58Q119 18 96 18Q71 18 36 118Q21 161 16 174T10 203Q10
234 49 306Q69 567 123 779Q129 799 138 799Q149 799 154 782T160 755T151 665T130 416Q183 464 223 464Q248 464 266 445T295 396Q314 339 314 288Q314 157 223 35Q205 11 186 11Q161 11 138 64T115 148Q115 163 126 163L155 158Z" />
<glyph unicode="c" glyph-name="c" horiz-adv-x="277" d="M269 148T228 88T124 28Q74 28 45 88T15 216T51 364T147 492Q160 504 180 504T227 481Q241 468 241 427T217 299Q211 277 201 277Q182 277 172 384Q171 401 170 405Q121 351 94 283T66 150Q66 117 88 117Q126
117 208 185Q223 198 230 204T251 223T267 238Q269 229 269 212Q269 148 228 88Z" />
<glyph unicode="d" glyph-name="d" horiz-adv-x="384" d="M385 140Q385 85 356 85Q333 85 316 109T290 152T272 189T256 231Q255 228 250 210L242 183Q230 139 224 125T210 93T194 65T177 44Q159 23 134 23T84 52Q43 100 24 172Q15 202 15 241T39 327T111 432T200
489Q222 489 250 468Q256 522 270 621T287 750T308 781T335 762T344 723T341 688Q313 402 313 223Q313 196 328 196T360 219T383 243T389 235L382 192L385 140ZM224 395T213 395T185 385Q133 356 100 295T66 173Q66 136 89 136Q98 136 109 147Q165 206 220 365Q224
375 224 383Q224 395 213 395Z" />
<glyph unicode="e" glyph-name="e" horiz-adv-x="337" d="M317 30T163 30Q99 30 70 63T18 164Q10 190 10 219T36 298T95 385Q99 440 120 440Q131 440 135 427Q156 446 186 464T240 482T289 454T315 397T274 316Q197 220 153 220Q121 220 103 273Q102 271 94 257T82
235T72 216Q62 193 62 175Q62 134 103 134Q171 134 218 162T313 249Q317 205 317 182Q317 30 163 30ZM170 303T201 342T233 395T223 410T187 384T146 339Q144 327 144 321Q144 303 154 303Q170 303 201 342Z" />
<glyph unicode="f" glyph-name="f" horiz-adv-x="367" d="M53 456Q53 440 62 440Q66 440 71 445Q106 480 146 571T227 738Q238 761 257 761T286 747T297 716T287 685Q226 593 161 383Q204 399 252 443Q271 459 293 459T346 441T377 400T338 349T262 304Q305 247
324 195T344 77Q344 -97 208 -303Q194 -323 177 -329T136 -335T104 -329T88 -311T66 -277T44 -242Q10 -175 10 -78Q10 4 20 82Q34 180 50 287Q35 305 35 324T51 355Q27 409 24 425T20 458Q20 512 39 512Q46 512 51 503T56 485L53 456ZM190 -170T228 -62T267 142T192
278Q160 270 129 266Q84 70 84 -174Q84 -248 109 -248Q118 -248 130 -234Q190 -170 228 -62Z" />
<glyph unicode="g" glyph-name="g" horiz-adv-x="347" d="M136 -93Q136 -85 142 -83T152 -78T162 -70Q176 -60 185 -60T201 -63T210 -66Q221 -66 221 -25Q226 72 240 204Q211 158 164 107T89 55T43 80Q10 127 10 188Q10 278 105 384Q138 420 154 435T206 483T269
516T312 496T327 451T315 381Q323 376 323 367T321 347Q276 65 271 -23T265 -162L266 -215Q266 -228 259 -236T241 -245T205 -226T156 -206L133 -208Q121 -208 121 -197L134 -104L136 -93ZM258 383T258 394T250 405Q247 405 243 403Q184 374 139 326T72 219Q68
207 68 198Q68 178 83 178Q91 178 101 184Q147 215 188 266T253 371Q258 383 258 394Z" />
<glyph unicode="h" glyph-name="h" horiz-adv-x="347" d="M340 111T311 69Q289 41 273 41T241 57Q185 122 185 213Q185 243 192 275Q204 330 204 346T202 362Q196 362 123 87Q114 59 104 59Q77 59 40 152Q20 196 20 258Q20 328 28 376T39 435T46 472T54 506Q66
556 70 577Q45 577 45 592Q45 599 51 607Q106 694 129 761Q133 778 145 778Q161 778 169 747T177 693Q177 635 139 600Q94 321 94 307T98 293T112 311T146 382T184 460Q206 497 240 497Q294 497 294 396Q294 314 256 189Q255 185 255 181Q255 170 265 170T302 199T334
228T340 190Q340 111 311 69Z" />
<glyph unicode="i" glyph-name="i" horiz-adv-x="240" d="M205 705T177 647T124 562Q120 556 112 556Q87 556 87 596T122 708Q129 723 131 739T133 757T134 761T135 765T136 769T138 772T140 775Q143 777 156 777T187 766T205 738Q205 705 177 647ZM226 311T230
311T237 286T240 220T221 131T164 54Q143 38 126 38T97 45T76 70Q61 94 47 132T32 214T39 303T46 363T30 403T14 433T17 443T26 454T37 464T50 474Q73 493 92 493T125 480T140 435T124 314Q105 200 105 183T114 166Q134 166 215 294Q226 311 230 311Z" />
<glyph unicode="j" glyph-name="j" horiz-adv-x="184" d="M128 754T147 754T182 736T198 694T183 628T149 585Q135 585 126 618T117 674T125 738Q128 754 147 754ZM163 126T163 115T159 89T149 54T141 28Q132 -9 92 -24Q53 -210 -4 -332Q-27 -383 -73 -383Q-106
-383 -132 -354Q-189 -294 -232 -159Q-240 -133 -240 -116T-228 -85Q-142 9 40 85Q83 264 100 497Q102 518 114 518Q132 518 144 499T157 462T156 436Q139 249 117 115Q150 126 153 126Q163 126 163 115ZM-41 -69T-102 -112T-163 -176Q-163 -190 -137 -205T-93
-220T-62 -198Q-26 -144 3 -52Q-41 -69 -102 -112Z" />
<glyph unicode="k" glyph-name="k" horiz-adv-x="342" d="M322 138T320 103Q320 92 322 86T324 75Q324 59 303 51T255 43T201 73T99 212V187Q99 138 103 113T108 82Q108 49 70 49Q50 49 43 64T27 113T19 160T23 200T29 242T34 295Q48 515 96 801Q92 817 92 829T102
842T124 828Q141 811 151 778T161 725T157 677T142 592Q120 469 112 403Q114 405 126 416T141 431T155 443T171 456T187 465T206 474Q225 481 244 481Q288 481 310 449T332 370Q332 338 323 322T309 297T292 278L274 263Q261 252 224 234T182 213T176 206T181 197Q231
147 291 139L302 138Q322 138 320 103ZM198 371T147 313Q206 331 256 397Q198 371 147 313Z" />
<glyph unicode="l" glyph-name="l" horiz-adv-x="241" d="M87 785Q87 797 100 797Q105 797 113 795Q173 783 173 726Q173 712 170 696T159 627T146 552L136 483Q112 325 112 192Q112 163 126 163Q131 163 137 169Q207 257 218 276T235 296T241 283T236 232T229
184T225 160T219 140T208 119T197 101Q176 73 164 58T135 42T103 57T82 84T63 121Q28 189 28 264Q28 328 42 421T60 537Q37 537 37 557Q37 565 39 572T58 628Q92 725 92 755L87 785Z" />
<glyph unicode="m" glyph-name="m" horiz-adv-x="516" d="M347 388Q347 400 345 400Q341 400 336 384Q318 338 252 97Q242 62 231 62Q226 62 213 70Q162 107 162 161Q162 204 176 278Q192 370 192 377T190 385T182 375Q131 253 120 84Q118 54 100 54Q76 54 57
82Q22 132 22 194Q22 233 31 293T43 366Q60 471 74 471Q85 471 91 443T97 401T101 388Q112 388 123 411T150 458T189 482T233 465T258 422Q270 439 298 469Q313 490 328 490T374 475Q415 454 415 365T409 212V205Q409 190 415 190Q424 190 459 240T502 291Q516
291 516 220T465 77Q441 44 424 44L413 47Q373 68 356 95T339 181L347 388Z" />
<glyph unicode="n" glyph-name="n" horiz-adv-x="351" d="M351 223T346 187T310 91T249 30Q236 30 224 44Q165 115 165 179Q165 198 178 266Q196 368 196 379T193 391T185 383Q159 337 143 279T122 180T111 68Q111 43 98 43Q92 43 78 54Q24 100 24 180Q24 214
30 274T38 357Q49 496 65 496Q74 496 78 477T82 433T83 388T91 368T108 400T140 464T187 497T231 486Q274 464 274 394Q274 370 268 335T258 259T253 212T257 206Q265 206 297 246T342 286Q351 286 351 272Q351 223 346 187Z" />
<glyph unicode="o" glyph-name="o" horiz-adv-x="275" d="M257 165T187 71Q162 39 132 39T83 54Q18 108 18 239Q18 330 67 471Q71 481 74 483T84 486T103 496T139 507T191 488T229 437Q257 362 257 286Q257 165 187 71ZM174 443T151 443Q140 443 131 426Q91 331
91 199Q91 166 92 149Q174 212 174 351Q174 443 151 443Z" />
<glyph unicode="p" glyph-name="p" horiz-adv-x="331" d="M46 310Q46 336 31 353T15 376T21 384T36 388T52 400T65 445T70 493T79 508T95 502T105 491T114 474T121 460Q154 471 176 471Q233 471 274 416T316 302Q316 281 311 254Q280 120 215 70Q193 52 175 52T145
66T128 104Q119 145 119 199T131 253Q133 253 141 227T168 201T195 219Q211 247 226 289T241 355T219 379Q206 379 190 372Q128 347 108 259Q73 103 73 -13Q73 -68 79 -104L82 -127Q82 -139 72 -150T50 -161Q18 -161 18 -11Q18 83 45 293L46 310Z" />
<glyph unicode="q" glyph-name="q" horiz-adv-x="337" d="M198 508T229 508T279 489T301 451T312 412T322 383T317 341Q301 270 219 -134Q237 -131 258 -109T285 -87T291 -124T272 -209T217 -257Q169 -257 161 -188Q156 -155 156 -94T190 150Q156 102 142 87Q128
68 108 68T66 84Q18 122 18 213T59 373T173 490Q198 508 229 508ZM240 397T240 405T232 413Q230 413 226 411Q114 356 90 206Q89 199 89 190T94 180T109 189Q183 254 236 387Q240 397 240 405Z" />
<glyph unicode="r" glyph-name="r" horiz-adv-x="307" d="M326 275T326 234T298 150Q286 126 260 95T224 56Q197 37 181 37T156 39T141 47T129 57T118 71T109 85T100 101T93 115Q74 150 74 181T79 240T97 308T112 359Q97 340 72 318Q62 310 51 310T32 320T12 366T0
413T16 452T35 488Q40 506 50 506Q55 506 74 496T99 455Q101 443 108 443Q111 443 125 454T157 465T210 433Q222 421 222 399T220 368T214 356Q205 349 201 337T174 243T151 153T157 145Q165 145 221 193T302 264Q317 275 319 275Q326 275 326 234Z" />
<glyph unicode="s" glyph-name="s" horiz-adv-x="322" d="M198 500T224 500T286 480T322 432T301 382T252 360Q211 360 195 398Q193 404 189 404T156 392T117 375T107 366T121 354Q299 306 299 207Q299 172 272 135T194 73T98 49T34 74T15 146T48 216Q92 245 120
245Q127 245 127 242T112 229T79 203T61 176T85 165Q149 165 211 201Q225 208 225 217T204 237T134 266T56 298T27 343Q27 352 31 368T37 391Q42 426 68 439T183 493Q198 500 224 500Z" />
<glyph unicode="t" glyph-name="t" horiz-adv-x="269" d="M243 494Q274 494 274 454Q274 434 261 424Q229 395 151 384Q141 289 141 226T150 163Q156 163 192 195T232 227Q249 227 249 176T230 74T176 24Q161 24 146 34T124 55T103 87T86 112Q59 149 57 185T54
271T60 377Q29 378 9 399T-23 449T-35 483Q-35 496 -20 496L76 490Q81 521 92 576Q109 656 109 669L107 688Q107 704 125 704T169 686T195 652Q195 645 188 624Q179 592 164 490L243 494Z" />
<glyph unicode="u" glyph-name="u" horiz-adv-x="338" d="M90 514Q113 514 133 497Q135 495 145 487T162 474Q178 459 178 449T160 388T122 282Q96 213 96 206T101 199Q109 199 161 294T240 443Q250 462 268 462Q310 462 310 427Q310 407 284 314Q251 191 251
181T256 170T279 222T303 275Q307 275 313 266Q338 214 338 170T307 69Q293 42 268 42Q252 42 245 50Q225 73 221 81Q202 105 190 167Q183 154 172 130Q149 77 130 53Q118 36 100 36T59 62Q26 107 26 163T36 268T72 387L75 399Q75 407 68 407L45 401Q28 401 21
421Q5 457 5 499Q5 511 15 511L42 505L90 514Z" />
<glyph unicode="v" glyph-name="v" horiz-adv-x="278" d="M70 513Q104 513 140 479Q159 461 159 444Q159 413 106 194Q104 184 104 176T108 168T121 177Q153 217 166 256T185 313T196 366T203 414Q206 433 214 516Q217 535 225 535T237 520Q258 406 258 288T203
88Q175 44 139 44Q124 44 110 52Q71 70 48 117T25 211Q25 244 32 270T47 320Q58 356 58 365T40 383T16 404T0 457T-10 504T-3 511L22 509L70 513Z" />
<glyph unicode="w" glyph-name="w" horiz-adv-x="411" d="M223 373T229 373T241 373T250 372T257 370T264 366T268 360Q273 355 273 347T268 292T263 217Q263 137 274 137Q278 137 284 149Q314 210 314 315Q314 418 305 438T286 465T270 479T262 488Q262 498 279
498H294Q316 497 331 465Q393 334 393 215Q393 160 381 115Q358 32 301 32Q279 32 255 49T219 95T198 168Q187 132 162 88T115 43Q107 43 99 49Q37 95 37 211Q37 274 54 328Q60 345 77 391Q39 366 22 366T-6 388Q-20 418 -20 468Q-20 480 -10 480L4 478Q14 478
47 494T92 510Q120 510 138 476T156 419T151 373T127 280Q100 181 100 170T104 158T115 168Q155 230 185 349Q191 373 214 373Q223 373 229 373Z" />
<glyph unicode="x" glyph-name="x" horiz-adv-x="295" d="M335 493Q334 479 323 457Q268 359 188 244Q247 101 247 75Q247 64 241 56T226 47T209 54Q172 90 130 161Q128 158 119 146T108 130T101 116Q94 104 92 79T78 53T39 81T10 140Q10 185 73 274Q10 428 10
440T19 471T39 489T86 434T136 351Q164 381 238 451T325 522Q335 522 335 501V493Z" />
<glyph unicode="y" glyph-name="y" horiz-adv-x="379" d="M-2 472T18 470Q24 470 33 470T71 479T117 489T149 476T178 441T191 398T148 279T104 175T112 168Q128 168 179 226Q190 239 203 260T224 293T243 331T260 366Q279 406 293 442Q301 459 317 459T347 440T361
402Q361 369 309 124T252 -148T241 -270Q241 -301 220 -301Q213 -301 207 -298Q134 -268 134 -170V-103Q134 -82 147 -82Q159 -82 172 -99T187 -118L241 149Q196 95 170 77T108 58T49 92T27 169Q27 258 90 379Q62 372 45 372T19 390Q15 398 7 424T-2 457Q-2 472
18 470Z" />
<glyph unicode="z" glyph-name="z" horiz-adv-x="303" d="M164 479Q215 479 242 463T293 402Q303 385 303 367T289 334Q256 299 186 241T101 171L196 175Q226 175 238 171T254 157T258 125T239 100Q208 94 117 61Q98 54 78 54T44 75Q15 127 15 153T32 201Q63 239
130 303T207 379Q79 358 63 358T38 361T24 375Q10 403 10 429Q10 471 92 504Q98 507 105 507Q118 507 120 491Q123 478 144 478L164 479Z" />
<glyph unicode="{" glyph-name="braceleft" horiz-adv-x="450" d="M355 -67Q366 -67 378 -80T388 -119Q382 -165 258 -165Q214 -165 174 -134T125 -80Q116 -57 118 -38T136 21T165 96T187 182T182 266T149 316T112 331T84 338T75 365Q79 399 110 396Q131 393 141
393Q204 393 204 625Q204 703 205 714Q210 753 243 786T334 819L415 816L434 818Q445 818 454 806Q464 808 470 808Q493 808 500 788Q506 768 505 763Q501 727 339 666Q333 664 331 664Q316 664 340 705L357 729Q302 725 294 705Q278 660 274 587T266 491Q254 392
197 374Q287 330 273 227Q266 173 224 81T179 -31T198 -64T247 -77L355 -67Z" />
<glyph unicode="|" glyph-name="bar" horiz-adv-x="250" d="M130 835Q130 847 143 847Q177 847 196 828T216 776Q216 762 213 747Q194 630 182 396T170 5Q170 -82 150 -82Q142 -82 131 -59Q86 11 86 84Q86 186 90 357T103 587Q80 587 80 607Q80 612 107 695T135
805L130 835Z" />
<glyph unicode="}" glyph-name="braceright" horiz-adv-x="450" d="M342 308Q309 308 280 278Q229 227 248 118Q275 -25 260 -78Q241 -142 198 -160Q141 -184 78 -166Q59 -160 50 -158Q17 -150 23 -106Q25 -90 31 -79T45 -67T94 -74T156 -81Q206 -81 210 -47Q212
-34 204 -6Q123 253 202 324Q233 353 289 363Q204 410 217 515Q221 546 237 601T256 677Q261 713 237 730T179 748Q201 711 201 681Q201 673 194 673Q192 673 186 675Q41 737 45 772Q46 779 64 807Q64 807 62 818Q64 831 213 831Q271 831 316 768T341 655Q292 545
282 478Q269 374 356 374L376 375Q392 375 399 366T407 340T400 312T378 301L342 308Z" />
<glyph unicode="~" glyph-name="asciitilde" horiz-adv-x="400" d="M28 359T66 380T136 401T206 372T261 342T285 350T294 367T303 385T329 393T360 373T374 330T346 288T281 269T194 302T130 336T108 326T97 302T84 279T60 268T37 287T28 322Q28 359 66 380Z" />
<glyph unicode="&#xa0;" glyph-name="uni00A0" horiz-adv-x="202" />
<glyph unicode="&#xa2;" glyph-name="cent" horiz-adv-x="299" d="M168 744Q168 771 187 771Q232 771 232 700Q232 676 226 633Q252 630 278 611Q294 598 294 568T267 467Q250 427 241 427Q229 427 225 481T213 535Q192 383 185 303Q203 316 224 336Q268 378 275
378T282 352Q282 291 256 241T173 180Q151 20 135 20Q114 20 114 169Q114 179 114 183Q70 199 45 254T20 356Q20 428 59 496T165 615Q170 663 170 707L168 744ZM104 267T118 269Q123 311 148 482Q117 441 94 389T71 295Q71 267 97 267Q104 267 118 269Z" />
<glyph unicode="&#xa3;" glyph-name="sterling" horiz-adv-x="383" d="M276 375Q302 375 302 350Q302 303 269 303Q265 303 249 303T220 304Q247 243 247 214T234 157Q249 153 276 153Q329 153 395 190Q402 190 391 151T352 73T291 34T236 46T186 85Q142 37 113
37T67 42T42 61T29 86T22 112T18 134T16 146Q16 174 60 200Q67 205 163 176Q176 206 177 214Q169 251 137 304L102 301Q66 298 52 298T32 305T26 325T28 346T37 362T50 371T70 371T93 370Q48 438 48 482Q48 565 121 643T283 754Q297 758 305 758Q327 758 357 728T388
677T332 597T257 537Q247 537 247 552T255 594T264 624T259 628Q225 628 183 568T141 464Q141 455 187 371L276 375ZM126 109T136 125Q103 151 98 143Q98 128 108 119T120 109Q126 109 136 125Z" />
<glyph unicode="&#xa4;" glyph-name="currency" horiz-adv-x="450" d="M406 598T410 577Q410 558 390 532T369 504Q381 468 381 419T371 330Q375 324 382 313T392 298T400 285T408 272T414 262T419 251T423 242T426 232Q428 222 428 201T426 168T416 156T398 169L330
260Q298 228 247 228T154 265Q150 257 139 228Q112 157 104 157Q91 157 81 171T66 206Q58 245 58 262T71 297L100 341Q79 388 79 433T111 525Q87 551 71 567T48 592Q36 605 36 614T43 630T56 637Q84 637 151 577Q172 615 241 615Q283 615 321 580Q325 584 340 600Q379
641 386 641Q400 641 406 598Q406 598 410 577ZM173 519T159 490T144 440Q144 393 165 358T229 323T295 357T318 435Q318 490 294 506Q264 527 192 527Q173 519 159 490Z" />
<glyph unicode="&#xa5;" glyph-name="yen" horiz-adv-x="451" d="M30 736T50 734Q56 734 64 734T102 743T149 753T181 740T210 705T223 667T197 590T151 480T142 430Q146 430 149 433Q190 465 225 516T278 602T325 706Q333 723 349 723T384 704T403 666Q403 661
386 583T335 317Q366 320 389 327Q408 327 419 311T431 278Q431 249 333 249H322Q316 219 313 202V198Q354 201 383 208Q402 208 412 193T424 159Q424 131 335 131H327Q322 101 308 45T288 -25Q281 -44 262 -52T232 -38Q213 15 213 90Q213 107 216 134L154 129Q130
129 127 160Q127 175 132 186T143 198H227Q231 222 237 249L163 241Q138 241 134 273V278Q134 290 139 300T149 312H251L288 464Q222 347 151 347Q111 347 89 381T67 463T79 547T122 643Q94 636 77 636T51 654Q47 662 39 688T30 721Q30 736 50 734Z" />
<glyph unicode="&#xa6;" glyph-name="brokenbar" horiz-adv-x="250" d="M130 835Q130 847 143 847Q177 847 196 828T216 776Q216 762 213 747Q194 662 189 576T181 457T163 423Q152 423 140 446Q116 483 108 507T99 569L103 627Q86 627 86 648Q86 653 110 715T135
805L130 835ZM184 -21Q184 -48 178 -68T163 -89Q156 -89 144 -66Q98 4 98 63L104 224Q104 285 97 318Q97 330 106 330Q138 330 160 292T183 239L177 123L184 -21Z" />
<glyph unicode="&#xa8;" glyph-name="dieresis" horiz-adv-x="400" d="M359 647T359 630T343 594T303 575T263 590T248 629T262 673T310 695T356 657Q359 647 359 630ZM165 698T181 681T198 638T184 594T149 575T114 594T100 642Q100 698 147 698Q165 698 181 681Z" />
<glyph unicode="&#xa9;" glyph-name="copyright" horiz-adv-x="652" d="M358 666Q358 672 365 672Q399 664 419 634T439 570T425 494T396 453Q380 453 369 494T358 565Q354 572 349 572Q325 572 297 469T269 294Q269 276 274 241T283 205Q298 203 342 274T408
406Q415 405 420 383T425 335Q425 276 394 214T305 141Q243 147 214 187T185 284Q185 374 222 465T324 626Q329 633 334 633T358 623Q360 631 360 647L358 666ZM549 184T512 128T415 34T284 -3Q183 -3 112 76T40 262Q40 444 151 618Q162 636 172 636T193 630Q216
658 225 669T262 706T312 746Q374 781 440 781T564 706T622 506T575 254Q549 184 512 128ZM528 598T497 657T429 717Q351 717 275 639T154 457T110 279T147 137T242 71Q326 71 393 142T494 320T528 543Q528 598 497 657Z" />
<glyph unicode="&#xac;" glyph-name="logicalnot" horiz-adv-x="400" d="M320 444H331Q365 444 372 421Q376 406 376 400T372 358T367 274Q370 260 370 251Q370 217 346 217Q331 217 310 250T289 305Q289 310 291 314T295 325T297 337T298 351T299 365Q221 371
180 371L75 369Q41 369 41 415Q41 446 66 446Q67 446 192 441L320 444Z" />
<glyph unicode="&#xaf;" glyph-name="overscore" horiz-adv-x="400" d="M231 666Q274 666 299 673T331 680Q341 680 347 661T354 629T346 607T318 594Q294 590 260 590L128 585Q116 585 105 635V643Q105 659 110 665T126 671L231 666Z" />
<glyph unicode="&#xb0;" glyph-name="degree" horiz-adv-x="230" d="M208 773T237 740T266 658T242 580T166 550T86 585T56 653T63 702T82 720L88 733Q93 746 110 759T158 773Q208 773 237 740ZM149 729T145 707T134 685Q130 685 121 691Q117 674 117 655T124
620Q136 599 151 599Q191 599 191 656Q191 678 185 703T161 729Q149 729 145 707Z" />
<glyph unicode="&#xb1;" glyph-name="plusminus" horiz-adv-x="400" d="M349 142Q362 142 370 123T379 96Q379 70 342 70L183 76L67 74Q33 74 33 122Q33 151 58 151L349 142ZM242 188Q242 165 212 165Q197 165 176 198T155 253Q155 255 158 273T162 307V326Q88
324 64 324Q30 324 30 372Q30 401 55 401Q95 401 161 398Q164 442 176 488T207 534Q220 534 243 520T266 493T263 467T253 433T243 395Q330 392 346 392T371 373T380 346Q380 320 343 320L234 325Q233 315 233 295L242 188Z" />
<glyph unicode="&#xd7;" glyph-name="multiply" horiz-adv-x="400" d="M369 278T369 269T357 249T329 239T284 262Q245 293 208 323Q150 274 119 238Q100 207 81 207Q59 207 59 239Q59 258 66 276T84 298Q107 313 156 361Q106 395 73 423T40 457Q40 469 56 479T85
490T112 480T205 405Q268 456 311 481Q326 492 333 492T347 490T361 478T369 459T365 443T349 428T327 411T296 389T260 363Q271 355 284 346T306 330T323 317T338 306T349 297T358 290T364 284Q369 278 369 269Z" />
<glyph unicode="&#xf7;" glyph-name="divide" horiz-adv-x="400" d="M347 392Q360 392 368 373T377 346Q377 320 340 320L181 326L65 324Q31 324 31 372Q31 401 56 401L347 392Z" />
<glyph unicode="&#x2013;" glyph-name="endash" horiz-adv-x="500" d="M176 295Q195 296 282 303T404 310T462 299T486 267Q486 240 379 230T155 220Q-14 220 -14 279Q-14 300 12 300L176 295Z" />
<glyph unicode="&#x2014;" glyph-name="emdash" horiz-adv-x="1000" d="M975 310Q990 310 995 301T1000 271V246Q1000 235 987 234Q932 228 657 224T320 220Q251 220 182 220Q0 220 0 243V292Q0 302 5 302Q12 302 117 299T286 295L975 310Z" />
<glyph unicode="&#x2018;" glyph-name="quoteleft" horiz-adv-x="130" d="M135 699T135 674Q135 660 125 620T115 567T126 535T137 508T129 497T110 492Q83 492 57 514T31 569T63 650T116 699Q135 699 135 674Z" />
<glyph unicode="&#x2019;" glyph-name="quoteright" horiz-adv-x="130" d="M61 613Q61 635 49 658T37 687Q37 699 63 699T118 674T146 615T119 536T71 489Q53 489 53 525L61 613Z" />
<glyph unicode="&#x201a;" glyph-name="quotesinglbase" horiz-adv-x="130" d="M23 56Q23 78 12 101T0 130Q0 142 26 142T80 117T108 58T81 -21T33 -68Q16 -68 16 -31L23 56Z" />
<glyph unicode="&#x201c;" glyph-name="quotedblleft" horiz-adv-x="254" d="M261 512T234 512T180 535T154 590T186 671T238 719T259 695Q259 680 249 639T239 586T250 555T261 527Q261 512 234 512ZM126 699T126 683T120 634T114 584T122 551T130 530Q130 513
107 513T58 535T31 587T62 658T116 699Q126 699 126 683Z" />
<glyph unicode="&#x201d;" glyph-name="quotedblright" horiz-adv-x="254" d="M270 607T239 559T187 511T166 535Q166 545 174 583T182 641T173 679T163 704Q163 715 189 715T242 692T270 645Q270 607 239 559ZM58 521T53 528T47 545T56 592T66 646T58 673T49
689T57 699T76 704Q105 704 125 686T146 638T115 565T64 521Q58 521 53 528Z" />
<glyph unicode="&#x201e;" glyph-name="quotedblbase" horiz-adv-x="254" d="M222 34T191 -14T139 -62T118 -38Q118 -28 126 10T134 68T125 106T115 131Q115 142 141 142T194 119T222 72Q222 34 191 -14ZM12 -52T6 -45T0 -28T9 19T19 73T11 100T2 116T10 126T28
131Q57 131 78 113T99 65T68 -8T18 -52Q12 -52 6 -45Z" />
<glyph unicode="&#x2022;" glyph-name="bullet" horiz-adv-x="250" d="M79 380T79 381Q79 397 115 397T178 366T206 297T190 233T132 206T64 247T38 318Q38 376 80 378Q79 380 79 381Z" />
</font>
</defs>
</svg>
