<?xml version="1.0" standalone="no"?>
<!DOCTYPE svg PUBLIC "-//W3C//DTD SVG 1.1//EN" "http://www.w3.org/Graphics/SVG/1.1/DTD/svg11.dtd">
<svg xmlns="http://www.w3.org/2000/svg">
<defs >
<font id="KulimPark" horiz-adv-x="536" ><font-face
    font-family="Kulim Park"
    units-per-em="1000"
    panose-1="0 0 0 0 0 0 0 0 0 0"
    ascent="931"
    descent="-204"
    alphabetic="0" />
<glyph unicode=" " glyph-name="space" horiz-adv-x="380" />
<glyph unicode="!" glyph-name="exclam" horiz-adv-x="204" d="M139 700L136 180H69L64 700H139ZM102 -10Q81 -10 66 5T50 42Q50 63 65 78T102 94Q123 94 138 79T154 42Q154 21 139 6T102 -10Z" />
<glyph unicode="&quot;" glyph-name="quotedbl" horiz-adv-x="294" d="M254 700L246 463H187L179 700H254ZM115 700L107 463H48L40 700H115Z" />
<glyph unicode="#" glyph-name="numbersign" horiz-adv-x="779" d="M739 509L738 434H579L534 265H680V191H514L462 1H377L430 191L255 192L203 1H125L175 192H40V267H196L242 435H99V511L262 510L313 697H390L341 510H518L570 697H649L600 509H739ZM498 434L320
435L275 266H451L498 434Z" />
<glyph unicode="$" glyph-name="dollar" horiz-adv-x="544" d="M239 752H305V704Q349 702 395 690T483 655L430 591Q400 604 369 613T305 625V401Q370 383 414 360T481 300T504 199Q504 145 478 101T406 29T305 -7V-54H239V-7Q182 -1 129 23T40 81L101 137Q131
113 167 97T239 75V335Q180 353 137 379T72 444T54 537Q60 609 109 651T239 703V752ZM136 528Q136 483 164 460T239 420V623Q197 616 167 594T136 528ZM424 199Q424 243 395 271T305 317V75Q355 84 389 117T424 199Z" />
<glyph unicode="%" glyph-name="percent" horiz-adv-x="846" d="M203 399Q160 399 125 419T70 474T50 550Q50 593 70 627T125 682T203 702Q245 702 279 682T333 628T353 550Q353 506 333 472T278 418T203 399ZM222 -1L531 701H613L303 -1H222ZM203 468Q238 468
261 492T284 550Q284 584 260 608T203 632Q167 632 144 609T120 550Q120 516 144 492T203 468ZM645 -4Q602 -4 568 17T513 72T493 147Q493 190 513 224T567 279T645 299Q688 299 722 279T776 225T796 147Q796 103 775 69T720 16T645 -4ZM645 66Q681 66 704 90T727
147Q727 182 703 206T645 230Q609 230 586 207T562 147Q562 114 586 90T645 66Z" />
<glyph unicode="&amp;" glyph-name="ampersand" horiz-adv-x="696" d="M558 0L480 83Q415 26 350 7T228 -2T127 41T59 119T38 217T76 320T188 411L143 467Q115 504 114 546T134 626T193 688T284 712Q357 712 398 682T463 589L394 563Q379 603 354 621T284 638Q248
636 224 614T196 560T217 500L478 199Q489 221 494 244T501 296T502 370H574Q575 297 568 244T528 139L656 0H558ZM431 136L233 361Q167 325 140 283T117 198T150 124T222 78T321 76T431 136Z" />
<glyph unicode="&apos;" glyph-name="quotesingle" horiz-adv-x="155" d="M115 700L107 463H48L40 700H115Z" />
<glyph unicode="(" glyph-name="parenleft" horiz-adv-x="300" d="M260 -90H185Q118 -10 84 92T50 315Q50 445 86 539T184 705H258Q214 657 184 593T137 457T121 315Q121 242 136 168T183 27T260 -90Z" />
<glyph unicode=")" glyph-name="parenright" horiz-adv-x="302" d="M42 -90H117Q184 -10 218 92T252 315Q252 445 216 539T118 705H44Q88 657 118 593T165 457T181 315Q181 242 166 168T119 27T42 -90Z" />
<glyph unicode="*" glyph-name="asterisk" horiz-adv-x="404" d="M354 502L329 452L231 502V391H174V501L81 446L51 494L144 545L50 592L74 643L174 592V704H231V595L323 649L352 601L259 548L354 502Z" />
<glyph unicode="+" glyph-name="plus" horiz-adv-x="595" d="M545 265H50V335H545V265ZM333 548V53H263V548H333Z" />
<glyph unicode="," glyph-name="comma" horiz-adv-x="167" d="M20 56Q20 78 36 93T75 110Q97 110 113 93T127 53Q127 41 120 19T104 -30T85 -78T70 -113L40 -100Q47 -87 57 -56T72 3Q49 3 35 18T20 56Z" />
<glyph unicode="-" glyph-name="hyphen" horiz-adv-x="450" d="M400 265H50V335H400V265Z" />
<glyph unicode="." glyph-name="period" horiz-adv-x="164" d="M62 -5Q41 -4 26 11T10 47Q10 69 25 84T62 99Q83 99 98 84T114 47Q114 26 99 11T62 -5Z" />
<glyph unicode="/" glyph-name="slash" horiz-adv-x="505" d="M470 700L110 -104H35L395 700H470Z" />
<glyph unicode="0" glyph-name="zero" horiz-adv-x="672" d="M560 102Q523 53 467 24T336 -5Q259 -5 204 24T112 102Q76 151 58 215T40 350Q40 421 58 485T113 599Q149 647 205 676T336 705Q411 705 467 676T560 597Q597 548 614 484T632 350Q632 279 614 216T560
102ZM500 544Q474 581 433 602T336 623Q279 623 238 602T171 544Q144 506 132 456T120 350Q120 294 132 244T170 156Q197 119 238 97T336 75Q392 75 433 97T500 156Q527 194 539 244T551 350Q552 406 540 456T500 544Z" />
<glyph unicode="1" glyph-name="one" horiz-adv-x="290" d="M250 0H171V611L93 533L40 586L156 700H250V0Z" />
<glyph unicode="2" glyph-name="two" horiz-adv-x="557" d="M56 0V61Q56 114 77 147T134 203T214 249Q301 292 363 343T440 457Q449 500 428 538T367 602T276 627Q215 627 178 602T136 519H51Q56 604 113 655T284 705Q356 705 409 673T493 588T523 477Q523 408
488 358T392 266T261 187Q221 165 196 151T158 120T145 77H517V0H56Z" />
<glyph unicode="3" glyph-name="three" horiz-adv-x="532" d="M266 -8Q186 -8 131 31T44 139L122 162Q145 122 184 98T266 73Q306 73 339 90T392 135T412 197Q412 232 394 262T343 310T266 329H197V392H269Q331 392 364 428T398 512Q398 545 380 570T334 609T272
623Q226 623 192 598T144 524L63 543Q84 619 142 661T272 704Q328 704 375 680T450 612T479 512Q479 470 460 433T393 361Q444 332 468 288T492 197Q492 139 461 93T378 19T266 -8Z" />
<glyph unicode="4" glyph-name="four" horiz-adv-x="588" d="M548 190H442V0H364V190H40V265L311 701H442V264H548V190ZM364 264V610H340L123 264H364Z" />
<glyph unicode="5" glyph-name="five" horiz-adv-x="527" d="M254 -6Q186 -6 137 16T40 89L97 147Q134 109 168 92T254 74Q296 74 332 95T390 151T413 229Q413 284 387 322T321 376T238 384T160 335L85 364L117 700H475V621H193L171 441Q237 469 295 465T397 429T466
346T491 229Q491 163 458 110T371 25T254 -6Z" />
<glyph unicode="6" glyph-name="six" horiz-adv-x="552" d="M275 -6Q211 -6 158 25T72 110T40 227Q40 312 75 396T192 579Q216 610 246 641T304 700H405Q336 630 278 563T177 423Q219 452 265 456T355 446T434 399T491 324T512 227Q512 162 480 109T394 25T275
-6ZM277 75Q319 75 354 95T410 150T432 227Q432 270 411 304T355 359T277 380Q235 380 200 360T144 306T122 227Q122 185 144 151T201 96T277 75Z" />
<glyph unicode="7" glyph-name="seven" horiz-adv-x="459" d="M419 701L418 634L220 0H135L331 620H40V701H419Z" />
<glyph unicode="8" glyph-name="eight" horiz-adv-x="543" d="M271 -5Q207 -5 155 22T71 96T40 204Q40 252 69 300T151 375Q111 401 90 441T69 518Q69 571 97 613T171 680T271 705Q328 705 374 680T447 613T474 518Q474 481 454 442T393 375Q447 347 475 300T503
204Q503 143 471 96T387 22T271 -5ZM271 408Q327 408 360 437T394 518Q394 569 360 598T271 627Q216 627 183 598T150 518Q150 466 184 437T271 408ZM271 71Q336 71 379 106T423 204Q423 266 379 299T271 332Q205 332 163 297T121 204Q121 142 163 107T271 71Z"
/>
<glyph unicode="9" glyph-name="nine" horiz-adv-x="552" d="M277 706Q341 706 394 675T480 590T512 473Q512 388 477 304T360 121Q336 90 306 59T248 0H147Q216 70 274 137T375 277Q333 248 287 244T197 254T118 301T61 376T40 473Q40 538 72 591T158 675T277
706ZM275 625Q233 625 198 605T142 550T120 473Q120 430 141 396T197 341T275 320Q317 320 352 340T408 394T430 473Q430 515 408 549T351 604T275 625Z" />
<glyph unicode=":" glyph-name="colon" horiz-adv-x="204" d="M102 246Q81 247 66 262T50 298Q50 320 65 335T102 350Q123 350 138 335T154 298Q154 277 139 262T102 246ZM102 320Q81 321 66 336T50 372Q50 394 65 409T102 424Q123 424 138 409T154 372Q154 351
139 336T102 320Z" />
<glyph unicode=";" glyph-name="semicolon" horiz-adv-x="168" d="M73 321Q52 322 37 337T21 373Q21 395 36 410T73 425Q94 425 109 410T125 373Q125 352 110 337T73 321ZM21 292Q21 314 37 329T76 346Q98 346 114 329T128 289Q128 277 121 255T105 206T86 158T71
123L41 136Q48 149 58 180T73 239Q50 239 36 254T21 292Z" />
<glyph unicode="&lt;" glyph-name="less" horiz-adv-x="507" d="M40 233L467 16V104L124 271L467 436V524L40 309V233Z" />
<glyph unicode="=" glyph-name="equal" horiz-adv-x="571" d="M521 436H51V506H521V436ZM521 350H51V420H521V350Z" />
<glyph unicode="&gt;" glyph-name="greater" horiz-adv-x="507" d="M467 233L40 16V104L383 271L40 436V524L467 309V233Z" />
<glyph unicode="?" glyph-name="question" horiz-adv-x="570" d="M222 175L223 240Q223 265 233 279Q245 306 274 319T342 350Q391 368 418 401T445 494Q445 560 401 597T287 635Q218 635 174 607T129 517H50Q50 608 113 657T288 707Q359 707 411 679T493 602T520
492Q519 412 482 364T373 285Q342 271 326 263T304 246T298 220T297 175H222ZM259 -10Q238 -10 223 5T207 42Q207 64 222 79T259 94Q280 94 295 79T311 42Q311 21 296 6T259 -10Z" />
<glyph unicode="@" glyph-name="at" horiz-adv-x="859" d="M474 -117Q382 -127 303 -105T165 -32T73 92T40 256Q40 339 72 412T160 541T290 628T445 660Q522 660 588 632T706 552T787 432T819 283Q823 146 777 65T635 -16Q580 -16 552 13T521 106Q479 72 434 60T350
55T286 92T261 170Q261 228 297 258T393 299T521 311V342Q521 372 503 389T450 406Q416 406 377 390T311 351L270 396Q308 430 356 451T451 472Q513 472 554 439T595 345V95Q595 65 620 58T674 68Q716 83 733 141T748 280Q745 344 721 399T655 496T560 561T443
584Q374 584 315 558T210 486T140 380T115 252Q115 152 162 82T290 -21T474 -44V-117ZM419 126Q444 131 472 143T522 171V252Q435 252 383 233T330 170Q330 133 355 125T419 126Z" />
<glyph unicode="A" glyph-name="A" horiz-adv-x="650" d="M40 0L274 700H375L610 0H525L466 178H183L124 0H40ZM325 604L205 245H444L325 604Z" />
<glyph unicode="B" glyph-name="B" horiz-adv-x="563" d="M50 0V700H312Q364 700 403 675T465 608T488 513Q488 472 474 439T430 369Q478 337 500 295T523 203Q523 166 509 130T470 64T413 18T344 0H50ZM130 388H309Q336 388 358 406T393 453T407 513Q407 557
382 588T312 620H130V388ZM130 80H344Q372 80 394 99T429 146T442 203Q442 247 416 279T347 312H130V80Z" />
<glyph unicode="C" glyph-name="C" horiz-adv-x="684" d="M386 -10Q313 -10 251 18T141 94Q93 142 67 206T40 350Q40 426 67 492T141 606Q188 654 250 682T386 710Q459 710 524 680T644 589L581 537Q495 631 386 631Q330 631 283 609T199 549Q163 511 143 461T122
350Q122 289 142 239T199 151Q236 113 283 91T386 69Q495 69 581 163L644 111Q590 50 525 20T386 -10Z" />
<glyph unicode="D" glyph-name="D" horiz-adv-x="637" d="M597 352Q597 279 571 216T497 104T388 28T254 0H50V703H254Q326 703 388 676T498 600T571 488T597 352ZM516 352Q516 428 482 490T388 589T254 626H130V78H254Q329 78 388 115T481 215T516 352Z" />
<glyph unicode="E" glyph-name="E" horiz-adv-x="468" d="M428 0H50V700H428V628H129V377H371V309H129V72H428V0Z" />
<glyph unicode="F" glyph-name="F" horiz-adv-x="465" d="M425 624H129V380H368V308H129V0H50V700H425V624Z" />
<glyph unicode="G" glyph-name="G" horiz-adv-x="717" d="M384 -10Q313 -10 251 17T142 94T67 207T40 345Q40 420 66 486T140 602T250 680T384 709Q469 709 542 671T667 558L598 513Q557 569 502 597T384 626Q328 626 281 604T198 542T143 453T123 345Q123 290
143 241T199 153T282 93T384 71Q459 71 508 93T594 171V256H471V334H677V151Q635 67 564 29T384 -10Z" />
<glyph unicode="H" glyph-name="H" horiz-adv-x="602" d="M552 0H473V305H129V0H50V700H129V373H473V700H552V0Z" />
<glyph unicode="I" glyph-name="I" horiz-adv-x="179" d="M129 0H50V700H129V0Z" />
<glyph unicode="J" glyph-name="J" horiz-adv-x="386" d="M291 55Q261 13 216 2T122 -3T30 21L52 95Q99 81 143 77T216 96Q242 112 250 154T258 269V700H336V269Q336 117 291 55Z" />
<glyph unicode="K" glyph-name="K" horiz-adv-x="549" d="M508 0H415L165 289L129 270V0H50V701H129V373L410 702H509L221 355L508 0Z" />
<glyph unicode="L" glyph-name="L" horiz-adv-x="418" d="M378 0H52V700H131V76H378V0Z" />
<glyph unicode="M" glyph-name="M" horiz-adv-x="822" d="M50 0V700H215L411 203L607 700H772V0H692V610H658L455 109H368L164 610H129V0H50Z" />
<glyph unicode="N" glyph-name="N" horiz-adv-x="624" d="M574 0H464L129 609V1H50V701H166L495 99V701H574V0Z" />
<glyph unicode="O" glyph-name="O" horiz-adv-x="765" d="M725 350Q725 274 699 209T625 94T516 18T383 -10Q311 -10 249 18T140 95T67 210T40 350Q40 424 67 489T142 604T252 682T383 710Q454 710 516 682T625 603T698 488T725 350ZM644 350Q644 408 624 459T568
550T485 612T383 635Q328 635 281 613T198 551T142 460T121 350Q121 292 141 240T197 149T280 87T383 64Q438 64 485 86T568 148T624 239T644 350Z" />
<glyph unicode="P" glyph-name="P" horiz-adv-x="535" d="M50 0L51 700H318Q369 700 409 672T472 597T495 497Q495 460 481 425T442 360T385 313T315 295H129V0H50ZM129 372H313Q341 372 364 390T402 438T417 497Q417 531 404 559T367 605T316 622H129V372Z" />
<glyph unicode="Q" glyph-name="Q" horiz-adv-x="765" d="M383 -5Q311 -5 249 22T140 99T67 212T40 348Q40 422 67 486T141 600T251 678T383 706Q455 706 517 678T625 600T698 486T725 348Q725 272 697 207T620 94Q636 78 656 72T711 68V-5Q647 -7 614 2T554 42Q516
19 473 7T383 -5ZM383 70Q419 70 452 80T514 109Q497 142 485 161T453 193T394 216V300Q465 286 506 256T577 167Q608 203 625 249T643 348Q643 405 623 455T568 545T485 607T383 630Q328 630 281 608T198 546T142 455T122 348Q122 293 142 243T197 154T280 93T383
70Z" />
<glyph unicode="R" glyph-name="R" horiz-adv-x="555" d="M515 0H421L241 295H129V0H50L51 700H318Q367 700 406 672T470 597T494 497Q494 451 473 408T415 335T333 299L515 0ZM414 497Q414 527 401 555T366 602T315 621H129V376H313Q341 376 363 395T400 442T414 497Z" />
<glyph unicode="S" glyph-name="S" horiz-adv-x="544" d="M273 -9Q207 -9 145 17T40 81L101 137Q138 107 184 90T271 72Q312 72 346 88T402 132T424 199Q425 247 390 276T282 323Q211 341 158 367T77 435T54 537Q61 618 121 661T281 705Q329 705 382 694T483 655L430
591Q395 606 358 615T283 626Q246 626 213 617T158 586T136 528Q136 491 156 469T210 432T286 406Q357 387 405 364T479 303T504 199Q504 140 473 93T389 19T273 -9Z" />
<glyph unicode="T" glyph-name="T" horiz-adv-x="596" d="M556 627H338V0H258V627H40V700H556V627Z" />
<glyph unicode="U" glyph-name="U" horiz-adv-x="609" d="M480 700H559V0H480V79Q446 41 400 18T299 -5Q227 -5 169 28T75 118T40 245V700H119L120 245Q120 198 144 160T209 98T299 75Q351 75 392 97T456 159T480 245V700Z" />
<glyph unicode="V" glyph-name="V" horiz-adv-x="600" d="M560 700L342 0H258L40 700H122L300 102L478 700H560Z" />
<glyph unicode="W" glyph-name="W" horiz-adv-x="1074" d="M1034 700L816 0H718L537 477L358 0H260L40 700H124L310 102L495 581H580L765 101L949 700H1034Z" />
<glyph unicode="X" glyph-name="X" horiz-adv-x="620" d="M40 0L261 355L46 700H141L310 417L480 700H574L358 355L580 0H485L310 291L135 0H40Z" />
<glyph unicode="Y" glyph-name="Y" horiz-adv-x="632" d="M592 700L356 236V0H276V236L40 700H123L316 318L509 700H592Z" />
<glyph unicode="Z" glyph-name="Z" horiz-adv-x="561" d="M521 0H40V71L420 624H45V700H516V628L136 75H521V0Z" />
<glyph unicode="[" glyph-name="bracketleft" horiz-adv-x="277" d="M237 -146H50V700H237V629H118V-75H237V-146Z" />
<glyph unicode="\" glyph-name="backslash" horiz-adv-x="505" d="M470 -104H396L35 700H111L470 -104Z" />
<glyph unicode="]" glyph-name="bracketright" horiz-adv-x="277" d="M40 -146H227V700H40V629H159V-75H40V-146Z" />
<glyph unicode="^" glyph-name="asciicircum" horiz-adv-x="504" d="M464 370H376L252 618L127 370H40L214 700H288L464 370Z" />
<glyph unicode="_" glyph-name="underscore" horiz-adv-x="595" d="M545 -120H50V-64H545V-120Z" />
<glyph unicode="`" glyph-name="grave" horiz-adv-x="168" d="M128 605H80L40 739H103L128 605Z" />
<glyph unicode="a" glyph-name="a" horiz-adv-x="505" d="M204 -5Q134 -3 87 34T40 144Q40 219 84 261T204 316T374 311V347Q374 382 352 402T296 430T224 432T153 409T102 363L53 415Q84 453 128 474T221 501T314 498T393 465Q426 445 438 414T453 341T455 253V0H375V47Q338
20 293 7T204 -5ZM373 118V249Q254 264 184 241T114 145Q114 113 132 95T180 71T245 69T314 86T373 118Z" />
<glyph unicode="b" glyph-name="b" horiz-adv-x="524" d="M484 255Q484 187 463 133T401 43T299 1Q249 -7 203 8T129 47V0H50V700H129V479Q166 498 198 502T258 506Q330 506 380 474T457 385T484 255ZM404 255Q404 333 366 376T264 427T129 404V114Q180 79 229
73T317 87T380 149T404 255Z" />
<glyph unicode="c" glyph-name="c" horiz-adv-x="493" d="M452 65Q400 18 343 2T233 -4T136 41T66 129T40 253Q40 323 65 375T134 460T232 501T343 494T453 432L403 375Q359 413 310 421T217 412T147 353T120 253Q120 190 147 147T219 84T312 73T405 125L452 65Z" />
<glyph unicode="d" glyph-name="d" horiz-adv-x="524" d="M225 1Q165 8 124 43T61 132T40 255Q40 328 66 384T143 473T266 506Q295 506 326 502T395 479V700H474V0H395V47Q367 23 321 8T225 1ZM395 114V404Q323 434 261 427T159 377T120 255Q120 192 143 150T207
87T295 73T395 114Z" />
<glyph unicode="e" glyph-name="e" horiz-adv-x="562" d="M512 226H123Q125 161 158 123T242 73T351 75T461 128L503 66Q454 28 401 10T295 -9Q170 -12 104 60T38 263Q38 374 100 440T282 505Q360 505 415 473T496 378Q509 347 512 309T512 226ZM286 431Q218 431
171 396T123 290H441Q441 356 400 393T286 431Z" />
<glyph unicode="f" glyph-name="f" horiz-adv-x="358" d="M338 628Q279 631 252 618T216 575T207 499H300V430H207V-1H129V430H40V499H129Q129 566 146 613T209 685T338 704V628Z" />
<glyph unicode="g" glyph-name="g" horiz-adv-x="529" d="M274 -204Q229 -204 185 -187T110 -141L160 -85Q195 -111 239 -121T322 -122T379 -76Q390 -53 394 -29T398 31Q335 -5 273 -3T158 30T74 116T40 241Q38 324 67 382T147 471T263 503T399 474V500H479V11Q479
-88 428 -146T274 -204ZM119 241Q120 187 145 151T211 96T301 80T399 108V395Q317 432 254 427T154 375T119 241Z" />
<glyph unicode="h" glyph-name="h" horiz-adv-x="522" d="M482 0H403V298Q403 366 365 397T265 429Q230 429 200 415T150 377T131 331V0H52V700H131V451Q158 481 199 493T276 504Q373 500 427 447T482 298V0Z" />
<glyph unicode="i" glyph-name="i" horiz-adv-x="206" d="M103 566Q81 566 66 581T50 619Q50 641 65 656T103 672Q125 672 140 657T156 619Q156 597 141 582T103 566ZM141 0H66V500H141V0Z" />
<glyph unicode="j" glyph-name="j" horiz-adv-x="243" d="M141 572Q119 573 104 588T88 626Q88 647 103 662T141 678Q163 678 178 663T193 626Q193 603 178 588T141 572ZM-30 -176V-99Q20 -97 48 -84T89 -42T101 42V500H179V42Q179 -70 127 -122T-30 -176Z" />
<glyph unicode="k" glyph-name="k" horiz-adv-x="456" d="M50 0V700H130V333L296 493H406L200 289L416 0H324L139 235L130 219V0H50Z" />
<glyph unicode="l" glyph-name="l" horiz-adv-x="179" d="M129 0H50V700H129V0Z" />
<glyph unicode="m" glyph-name="m" horiz-adv-x="851" d="M811 0H733V295Q733 363 698 396T606 429Q548 429 510 396T472 295V0H395V295Q395 365 357 397T262 429Q232 429 201 415T150 372T129 295V0H50V500H129V449Q154 477 189 491T262 506Q311 506 358 487T438
425Q465 466 512 485T610 505Q663 505 709 481T783 409T811 295V0Z" />
<glyph unicode="n" glyph-name="n" horiz-adv-x="528" d="M488 0H409V297Q409 345 389 374T337 415T271 428Q238 428 206 414T151 371T129 297V0H50V500H129V446Q152 477 192 491T275 506Q333 506 381 482T459 412T488 297V0Z" />
<glyph unicode="o" glyph-name="o" horiz-adv-x="564" d="M282 -12Q210 -12 156 19T71 106T40 239Q40 327 72 386T158 475T282 505Q353 505 407 475T493 386T524 239Q524 163 493 107T408 19T282 -12ZM282 64Q335 64 372 87T428 151T447 239Q447 321 405 374T282
428Q201 428 159 374T117 239Q117 190 135 151T191 88T282 64Z" />
<glyph unicode="p" glyph-name="p" horiz-adv-x="532" d="M129 -200H50V500H129V471Q198 505 263 504T379 472T461 382T492 245Q492 173 464 116T383 27T262 -6Q234 -6 198 0T129 27V-200ZM129 107Q182 77 232 73T323 87T388 146T412 245Q412 307 388 349T322
410T231 425T129 386V107Z" />
<glyph unicode="q" glyph-name="q" horiz-adv-x="532" d="M403 -200V27Q371 6 335 0T270 -6Q201 -5 150 27T69 116T40 245Q40 324 70 382T153 471T269 504T403 471V500H482V-200H403ZM120 245Q120 186 144 146T209 87T300 72T403 107V386Q352 419 302 424T211
411T145 349T120 245Z" />
<glyph unicode="r" glyph-name="r" horiz-adv-x="363" d="M50 0V494H129V448Q162 485 210 493T333 480L296 410Q251 426 213 416T151 379T129 323V0H50Z" />
<glyph unicode="s" glyph-name="s" horiz-adv-x="420" d="M40 58L87 109Q118 86 149 74T212 62Q231 62 248 67T280 84Q299 98 305 120T305 162Q297 184 276 197T227 219T168 239T111 266Q66 296 53 334T53 410T102 474T191 504Q242 507 290 492T365 450L315 402Q290
419 261 427T205 435Q173 434 151 420T125 375Q123 346 144 330T202 301T282 272Q332 252 359 215T376 119Q369 65 333 34T244 -5T138 2T40 58Z" />
<glyph unicode="t" glyph-name="t" horiz-adv-x="344" d="M127 216V426H40V500H127V700H206V500H294V426H206V216Q206 152 210 123T229 85T270 76H295V-3H273Q227 -3 198 5T154 37T133 103T127 216Z" />
<glyph unicode="u" glyph-name="u" horiz-adv-x="527" d="M477 0H398V52Q378 22 341 7T260 -9T174 1T103 40Q73 66 57 106T40 198V500H120V198Q120 129 159 97T261 65Q292 65 323 79T376 122T398 198V500H477V0Z" />
<glyph unicode="v" glyph-name="v" horiz-adv-x="549" d="M509 500L324 0H225L40 500H123L275 81L426 500H509Z" />
<glyph unicode="w" glyph-name="w" horiz-adv-x="890" d="M850 500L681 0H576L445 407L314 0H210L40 500H124L262 82L399 500H492L629 83L766 500H850Z" />
<glyph unicode="x" glyph-name="x" horiz-adv-x="498" d="M458 0H365L248 195L134 0H40L196 254L43 500H138L248 312L358 500H451L300 254L458 0Z" />
<glyph unicode="y" glyph-name="y" horiz-adv-x="546" d="M113 -172V-94Q142 -94 167 -82T209 -49T229 -3L40 500H127L277 93L418 500H506L330 29Q308 -33 281 -77T215 -146T113 -172Z" />
<glyph unicode="z" glyph-name="z" horiz-adv-x="470" d="M430 0H40V64L330 425H47V500H430V431L141 75H430V0Z" />
<glyph unicode="{" glyph-name="braceleft" horiz-adv-x="321" d="M209 -141Q174 -141 151 -118T116 -58T105 20V158Q105 198 104 220T91 252T50 262V315Q80 316 91 325T103 356T105 419V556Q105 598 116 635T150 695T209 718H281V662H210Q197 662 189 653T177
631Q169 607 169 574T172 503T178 430T179 367Q177 343 166 321T135 288Q155 279 166 257T179 210Q182 182 179 147T173 75T170 5T177 -53Q181 -67 189 -76T210 -85H281V-141H209Z" />
<glyph unicode="|" glyph-name="bar" horiz-adv-x="174" d="M124 -58H50V698H124V-58Z" />
<glyph unicode="}" glyph-name="braceright" horiz-adv-x="321" d="M112 -141Q147 -141 170 -118T205 -58T216 20V158Q216 198 217 220T230 252T271 262V315Q241 316 230 325T218 356T216 419V556Q216 598 205 635T171 695T112 718H40V662H111Q124 662 132 653T144
631Q152 607 152 574T149 503T143 430T142 367Q144 343 155 321T186 288Q166 279 155 257T142 210Q139 182 142 147T148 75T151 5T144 -53Q140 -67 132 -76T111 -85H40V-141H112Z" />
<glyph unicode="~" glyph-name="asciitilde" horiz-adv-x="616" d="M420 192Q375 192 347 205T297 235T255 264T205 277Q169 277 145 255T121 187H40Q40 261 79 308T204 356Q245 356 274 343T327 313T371 282T416 269Q454 269 474 292T495 359H576Q576 318 561
280T512 218T420 192Z" />
<glyph unicode="&#xa0;" glyph-name="uni00A0" horiz-adv-x="380" />
<glyph unicode="&#xa1;" glyph-name="exclamdown" horiz-adv-x="204" d="M139 -190L136 330H69L64 -190H139ZM102 520Q81 520 66 505T50 468Q50 447 65 432T102 416Q123 416 138 431T154 468Q154 489 139 504T102 520Z" />
<glyph unicode="&#xa2;" glyph-name="cent" horiz-adv-x="493" d="M452 158Q418 127 382 110T309 87V49H249V87Q192 94 145 127T69 217T40 346Q40 419 68 473T144 559T249 596V637H309V594Q345 588 382 571T453 525L403 468Q359 506 310 514T217 504T147 446T120
346Q120 283 147 240T219 177T312 166T405 217L452 158Z" />
<glyph unicode="&#xa3;" glyph-name="sterling" horiz-adv-x="473" d="M40 0V72Q87 140 110 197T139 314H58V379H135Q118 450 112 501T128 593Q145 634 179 661Q224 696 291 702T426 698V628Q365 637 314 633T231 607Q205 591 196 568T186 518Q185 495 193 456T211
379H347V314H211Q205 250 182 188T123 75H425V0H40Z" />
<glyph unicode="&#xa4;" glyph-name="currency" horiz-adv-x="622" d="M582 112L538 68L445 159Q379 113 311 113Q244 113 176 158L85 67L40 112L131 203Q87 270 87 337Q87 404 132 473L40 565L85 610L177 517Q245 562 311 562Q377 562 445 517L538 609L582 565L490
473Q535 404 535 337Q535 270 491 203L582 112ZM419 445Q376 490 311 490Q246 490 203 445Q182 425 170 397T158 337Q158 305 170 278T203 229Q224 208 251 196T311 184Q343 184 371 196T419 229Q463 272 463 337Q463 402 419 445Z" />
<glyph unicode="&#xa5;" glyph-name="yen" horiz-adv-x="632" d="M592 700L356 236V0H276V236L40 700H123L316 318L509 700H592ZM543 93H90V163H543V93ZM543 469H90V539H543V469Z" />
<glyph unicode="&#xa6;" glyph-name="brokenbar" horiz-adv-x="174" d="M124 360H50V700H124V360ZM124 -137H50V203H124V-137Z" />
<glyph unicode="&#xa7;" glyph-name="section" horiz-adv-x="422" d="M211 -8Q171 -8 128 8T52 53L105 106Q159 64 208 64Q250 64 276 84T303 138Q303 163 281 177T227 200T169 218Q114 232 77 265T40 346Q40 379 55 406T104 454Q80 475 63 499T45 557Q45 599
68 633T129 686T212 706Q252 706 294 690T370 645L317 592Q290 613 266 622T219 633Q183 635 161 622T132 587T140 543Q146 527 164 515T206 495T254 480Q310 465 346 433T382 352Q382 319 366 291T318 244Q346 224 361 200T377 143Q377 100 354 66T294 12T211
-8ZM223 276Q266 276 294 294T319 342Q317 377 279 398T187 420Q154 420 131 402T107 358Q107 330 124 312T168 285T223 276Z" />
<glyph unicode="&#xa8;" glyph-name="dieresis" horiz-adv-x="348" d="M84 612Q66 612 53 625T40 657Q40 674 53 687T84 701Q102 701 115 688T129 657Q129 638 116 625T84 612ZM264 612Q246 612 233 625T219 657Q219 674 232 687T264 701Q282 701 295 688T308
657Q308 638 295 625T264 612Z" />
<glyph unicode="&#xa9;" glyph-name="copyright" horiz-adv-x="761" d="M40 348Q40 421 66 485T140 598T249 675T381 703Q452 703 514 675T622 598T695 485T721 348Q721 275 695 211T622 99T514 24T381 -3Q310 -3 248 24T140 100T67 212T40 348ZM115 348Q115 291
135 241T192 151T276 89T381 66Q437 66 485 88T570 150T626 240T646 348Q646 406 626 457T570 548T485 611T381 634Q325 634 277 611T192 548T136 457T115 348ZM191 347Q191 416 222 464T304 535T412 549T522 494L483 445Q447 475 408 481T334 474T279 427T258
347Q258 298 280 264T337 214T411 206T484 246L522 196Q481 158 435 145T346 141T267 177T212 248T191 347Z" />
<glyph unicode="&#xaa;" glyph-name="ordfeminine" horiz-adv-x="314" d="M132 421Q93 422 67 443T40 506Q40 569 92 591T224 599V621Q224 644 206 654T163 665T113 656T76 628L46 659Q69 687 105 699T177 708T239 686Q267 670 270 639T274 567V424H224V451Q185
420 132 421ZM223 491V561Q160 569 123 557T85 506Q85 484 100 475T137 465T183 471T223 491Z" />
<glyph unicode="&#xab;" glyph-name="guillemotleft" horiz-adv-x="535" d="M495 50L241 272L495 490V402L341 269L495 137V50ZM284 50L30 272L284 490V402L132 269L284 137V50Z" />
<glyph unicode="&#xac;" glyph-name="logicalnot" horiz-adv-x="518" d="M468 85H399V250H40V320H468V85Z" />
<glyph unicode="&#xad;" glyph-name="uni00AD" horiz-adv-x="450" d="M400 265H50V335H400V265Z" />
<glyph unicode="&#xae;" glyph-name="registered" horiz-adv-x="446" d="M224 322Q173 322 131 348T65 418T40 511Q40 562 64 605T131 674T224 700Q275 700 316 674T382 605T406 511Q406 459 381 416T315 348T224 322ZM224 369Q260 369 291 388T340 440T359 511Q359
550 341 582T292 633T224 652Q185 652 155 633T106 581T88 511Q88 471 107 439T158 388T224 369ZM161 422V603H233Q255 603 270 586T286 546Q286 515 255 495L299 422H254L211 488H201V422H161ZM200 525H232Q238 525 243 530T248 546Q248 555 243 560T233 566H200V525Z"
/>
<glyph unicode="&#xaf;" glyph-name="overscore" horiz-adv-x="330" d="M290 648H40V701H290V648Z" />
<glyph unicode="&#xb0;" glyph-name="degree" horiz-adv-x="367" d="M327 556Q327 515 308 483T256 432T184 413Q144 413 111 433T59 486T40 556Q40 596 59 628T111 680T184 700Q225 700 257 681T308 630T327 556ZM184 641Q148 641 124 617T99 556Q99 519 124
496T184 472Q220 472 244 496T268 556Q268 592 244 616T184 641Z" />
<glyph unicode="&#xb1;" glyph-name="plusminus" horiz-adv-x="580" d="M530 282H328V195H254V282H50V355H254V441H328V355H530V282ZM530 38H50V111H530V38Z" />
<glyph unicode="&#xb2;" glyph-name="uni00B2" horiz-adv-x="386" d="M43 247V287Q43 322 56 343T93 380T146 409Q202 438 242 471T292 545Q298 572 285 597T245 639T186 655Q147 655 123 639T94 585H40Q43 640 80 673T191 706Q238 706 273 685T327 630T346 557Q347
513 324 480T262 421T177 369Q137 348 119 336T100 298H343V247H43Z" />
<glyph unicode="&#xb3;" glyph-name="uni00B3" horiz-adv-x="372" d="M184 242Q133 242 97 268T40 337L91 353Q106 327 131 311T184 295Q224 295 251 318T279 376Q279 410 253 436T184 462H140V502H186Q227 502 248 526T270 581Q270 613 245 632T188 652Q158 652
136 636T105 588L53 601Q66 650 103 677T188 705Q225 705 255 689T304 645T323 581Q323 554 311 529T267 483Q300 463 316 435T332 376Q332 338 312 308T258 260T184 242Z" />
<glyph unicode="&#xb4;" glyph-name="acute" horiz-adv-x="166" d="M38 605H86L126 739H63L38 605Z" />
<glyph unicode="&#xb5;" glyph-name="uni00B5" horiz-adv-x="537" d="M487 0H408V52Q390 24 356 9T282 -9T201 -3T129 27V-200H50V500H130V198Q130 129 169 97T271 65Q302 65 333 79T386 122T408 198V500H487V0Z" />
<glyph unicode="&#xb6;" glyph-name="paragraph" horiz-adv-x="506" d="M265 -56V420Q247 410 229 405T191 400Q150 400 116 420T61 473T40 549Q40 589 60 623T115 679T191 700H337V-56H265ZM395 -56V700H466V-56H395Z" />
<glyph unicode="&#xb7;" glyph-name="middot" horiz-adv-x="223" d="M102 261Q81 262 66 277T50 313Q50 335 65 350T102 365Q123 365 138 350T154 313Q154 292 139 277T102 261Z" />
<glyph unicode="&#xb8;" glyph-name="cedilla" horiz-adv-x="253" d="M117 -189Q95 -189 74 -178T40 -145L72 -122Q84 -143 107 -146T150 -139T167 -103Q166 -80 149 -70T109 -61T71 -79L64 -38L113 35L157 20L128 -22Q164 -22 184 -39T210 -81T207 -130T176 -172T117
-189Z" />
<glyph unicode="&#xb9;" glyph-name="uni00B9" horiz-adv-x="229" d="M177 247H125V644L74 594L40 629L115 703H177V247Z" />
<glyph unicode="&#xba;" glyph-name="ordmasculine" horiz-adv-x="353" d="M176 418Q115 418 78 457T40 560Q40 634 79 671T176 709Q236 709 274 672T313 560Q313 496 275 457T176 418ZM176 469Q218 469 240 495T262 560Q263 603 241 630T176 658Q134 658 112
631T90 560Q90 522 112 496T176 469Z" />
<glyph unicode="&#xbb;" glyph-name="guillemotright" horiz-adv-x="535" d="M40 50L294 272L40 490V402L194 269L40 137V50ZM251 50L505 272L251 490V402L403 269L251 137V50Z" />
<glyph unicode="&#xbc;" glyph-name="onequarter" horiz-adv-x="920" d="M177 247H125V644L74 594L40 629L115 703H177V247ZM610 700L212 -6H157L555 700H610ZM880 121H811V-3H760V121H550V170L726 454H811V169H880V121ZM760 169V394H745L604 169H760Z" />
<glyph unicode="&#xbd;" glyph-name="onehalf" horiz-adv-x="896" d="M177 247H125V644L74 594L40 629L115 703H177V247ZM610 700L212 -6H157L555 700H610ZM553 -3V37Q553 72 566 93T603 130T656 159Q712 188 752 221T802 295Q808 322 795 347T755 389T696 405Q657
405 633 389T604 335H550Q553 390 590 423T701 456Q748 456 783 435T837 380T856 307Q857 263 834 230T772 171T687 119Q647 98 629 86T610 48H853V-3H553Z" />
<glyph unicode="&#xbe;" glyph-name="threequarters" horiz-adv-x="1055" d="M184 242Q133 242 97 268T40 337L91 353Q106 327 131 311T184 295Q224 295 251 318T279 376Q279 410 253 436T184 462H140V502H186Q227 502 248 526T270 581Q270 613 245 632T188 652Q158
652 136 636T105 588L53 601Q66 650 103 677T188 705Q225 705 255 689T304 645T323 581Q323 554 311 529T267 483Q300 463 316 435T332 376Q332 338 312 308T258 260T184 242ZM745 700L347 -6H292L690 700H745ZM1015 121H946V-3H895V121H685V170L861 454H946V169H1015V121ZM895
169V394H880L739 169H895Z" />
<glyph unicode="&#xbf;" glyph-name="questiondown" horiz-adv-x="570" d="M222 335L223 270Q223 245 233 231Q245 204 274 191T342 160Q391 142 418 109T445 16Q445 -50 401 -87T287 -125Q218 -125 174 -97T129 -7H50Q50 -98 113 -147T288 -197Q359 -197 411
-169T493 -92T520 18Q519 98 482 146T373 225Q342 239 326 247T304 264T298 290T297 335H222ZM259 520Q238 520 223 505T207 468Q207 446 222 431T259 416Q280 416 295 431T311 468Q311 489 296 504T259 520Z" />
<glyph unicode="&#xc0;" glyph-name="Agrave" horiz-adv-x="650" d="M40 0L274 700H375L610 0H525L466 178H183L124 0H40ZM325 604L205 245H444L325 604ZM357 769H309L269 903H332L357 769Z" />
<glyph unicode="&#xc1;" glyph-name="Aacute" horiz-adv-x="650" d="M40 0L274 700H375L610 0H525L466 178H183L124 0H40ZM325 604L205 245H444L325 604ZM294 769H342L382 903H319L294 769Z" />
<glyph unicode="&#xc2;" glyph-name="Acircumflex" horiz-adv-x="650" d="M40 0L274 700H375L610 0H525L466 178H183L124 0H40ZM325 604L205 245H444L325 604ZM201 769L302 880H348L449 769H381L325 833L269 769H201Z" />
<glyph unicode="&#xc3;" glyph-name="Atilde" horiz-adv-x="650" d="M40 0L274 700H375L610 0H525L466 178H183L124 0H40ZM325 604L205 245H444L325 604ZM372 778Q350 778 336 791T311 818T285 833Q265 833 257 817T248 779H195Q195 824 221 853T285 882Q306 882
318 874T338 855T353 836T372 828Q388 828 395 842T403 880H455Q455 837 437 808T372 778Z" />
<glyph unicode="&#xc4;" glyph-name="Adieresis" horiz-adv-x="650" d="M40 0L274 700H375L610 0H525L466 178H183L124 0H40ZM325 604L205 245H444L325 604ZM238 776Q220 776 207 789T194 821Q194 838 207 851T238 865Q256 865 269 852T283 821Q283 802 270 789T238
776ZM418 776Q400 776 387 789T373 821Q373 838 386 851T418 865Q436 865 449 852T462 821Q462 802 449 789T418 776Z" />
<glyph unicode="&#xc5;" glyph-name="Aring" horiz-adv-x="650" d="M40 0L274 700H375L610 0H525L466 178H183L124 0H40ZM325 604L205 245H444L325 604ZM325 758Q293 758 269 781T245 838Q245 870 269 894T325 918Q358 918 381 894T405 838Q405 805 382 782T325
758ZM325 878Q308 878 297 867T285 839Q285 821 296 810T325 798Q341 798 352 809T364 839Q364 855 353 866T325 878Z" />
<glyph unicode="&#xc6;" glyph-name="AE" horiz-adv-x="835" d="M40 0L272 700H785V624H400L483 379H728V307H507L585 76H785V0H525L467 172H182L125 0H40ZM206 248H442L323 603L206 248Z" />
<glyph unicode="&#xc7;" glyph-name="Ccedilla" horiz-adv-x="684" d="M386 -10Q313 -10 251 18T141 94Q93 142 67 206T40 350Q40 426 67 492T141 606Q188 654 250 682T386 710Q459 710 524 680T644 589L581 537Q495 631 386 631Q330 631 283 609T199 549Q163
511 143 461T122 350Q122 289 142 239T199 151Q236 113 283 91T386 69Q495 69 581 163L644 111Q590 50 525 20T386 -10ZM367 -189Q345 -189 324 -178T290 -145L322 -122Q334 -143 357 -146T400 -139T417 -103Q416 -80 399 -70T359 -61T321 -79L314 -38L363 35L407
20L378 -22Q414 -22 434 -39T460 -81T457 -130T426 -172T367 -189Z" />
<glyph unicode="&#xc8;" glyph-name="Egrave" horiz-adv-x="468" d="M428 0H50V700H428V628H129V377H371V309H129V72H428V0ZM267 769H219L179 903H242L267 769Z" />
<glyph unicode="&#xc9;" glyph-name="Eacute" horiz-adv-x="468" d="M428 0H50V700H428V628H129V377H371V309H129V72H428V0ZM204 769H252L292 903H229L204 769Z" />
<glyph unicode="&#xca;" glyph-name="Ecircumflex" horiz-adv-x="468" d="M428 0H50V700H428V628H129V377H371V309H129V72H428V0ZM111 769L212 880H258L359 769H291L235 833L179 769H111Z" />
<glyph unicode="&#xcb;" glyph-name="Edieresis" horiz-adv-x="468" d="M428 0H50V700H428V628H129V377H371V309H129V72H428V0ZM148 776Q130 776 117 789T104 821Q104 838 117 851T148 865Q166 865 179 852T193 821Q193 802 180 789T148 776ZM328 776Q310 776
297 789T283 821Q283 838 296 851T328 865Q346 865 359 852T372 821Q372 802 359 789T328 776Z" />
<glyph unicode="&#xcc;" glyph-name="Igrave" horiz-adv-x="202" d="M151 0H72V700H151V0ZM138 769H90L50 903H113L138 769Z" />
<glyph unicode="&#xcd;" glyph-name="Iacute" horiz-adv-x="200" d="M129 0H50V700H129V0ZM61 769H109L149 903H86L61 769Z" />
<glyph unicode="&#xce;" glyph-name="Icircumflex" horiz-adv-x="348" d="M213 0H134V700H213V0ZM50 769L151 880H197L298 769H230L174 833L118 769H50Z" />
<glyph unicode="&#xcf;" glyph-name="Idieresis" horiz-adv-x="368" d="M224 0H145V700H224V0ZM94 776Q76 776 63 789T50 821Q50 838 63 851T94 865Q112 865 125 852T139 821Q139 802 126 789T94 776ZM274 776Q256 776 243 789T229 821Q229 838 242 851T274 865Q292
865 305 852T318 821Q318 802 305 789T274 776Z" />
<glyph unicode="&#xd0;" glyph-name="Eth" horiz-adv-x="681" d="M641 352Q641 279 615 216T541 104T432 28T298 0H94V703H298Q370 703 432 676T542 600T615 488T641 352ZM560 352Q560 428 526 490T432 589T298 626H174V78H298Q373 78 432 115T525 215T560 352ZM447
322H27V377H447V322Z" />
<glyph unicode="&#xd1;" glyph-name="Ntilde" horiz-adv-x="624" d="M574 0H464L129 609V1H50V701H166L495 99V701H574V0ZM359 778Q337 778 323 791T298 818T272 833Q252 833 244 817T235 779H182Q182 824 208 853T272 882Q293 882 305 874T325 855T340 836T359
828Q375 828 382 842T390 880H442Q442 837 424 808T359 778Z" />
<glyph unicode="&#xd2;" glyph-name="Ograve" horiz-adv-x="765" d="M725 350Q725 274 699 209T625 94T516 18T383 -10Q311 -10 249 18T140 95T67 210T40 350Q40 424 67 489T142 604T252 682T383 710Q454 710 516 682T625 603T698 488T725 350ZM644 350Q644 408
624 459T568 550T485 612T383 635Q328 635 281 613T198 551T142 460T121 350Q121 292 141 240T197 149T280 87T383 64Q438 64 485 86T568 148T624 239T644 350ZM414 769H366L326 903H389L414 769Z" />
<glyph unicode="&#xd3;" glyph-name="Oacute" horiz-adv-x="765" d="M725 350Q725 274 699 209T625 94T516 18T383 -10Q311 -10 249 18T140 95T67 210T40 350Q40 424 67 489T142 604T252 682T383 710Q454 710 516 682T625 603T698 488T725 350ZM644 350Q644 408
624 459T568 550T485 612T383 635Q328 635 281 613T198 551T142 460T121 350Q121 292 141 240T197 149T280 87T383 64Q438 64 485 86T568 148T624 239T644 350ZM352 769H400L440 903H377L352 769Z" />
<glyph unicode="&#xd4;" glyph-name="Ocircumflex" horiz-adv-x="765" d="M725 350Q725 274 699 209T625 94T516 18T383 -10Q311 -10 249 18T140 95T67 210T40 350Q40 424 67 489T142 604T252 682T383 710Q454 710 516 682T625 603T698 488T725 350ZM644 350Q644
408 624 459T568 550T485 612T383 635Q328 635 281 613T198 551T142 460T121 350Q121 292 141 240T197 149T280 87T383 64Q438 64 485 86T568 148T624 239T644 350ZM259 769L360 880H406L507 769H439L383 833L327 769H259Z" />
<glyph unicode="&#xd5;" glyph-name="Otilde" horiz-adv-x="765" d="M725 350Q725 274 699 209T625 94T516 18T383 -10Q311 -10 249 18T140 95T67 210T40 350Q40 424 67 489T142 604T252 682T383 710Q454 710 516 682T625 603T698 488T725 350ZM644 350Q644 408
624 459T568 550T485 612T383 635Q328 635 281 613T198 551T142 460T121 350Q121 292 141 240T197 149T280 87T383 64Q438 64 485 86T568 148T624 239T644 350ZM430 778Q408 778 394 791T369 818T343 833Q323 833 315 817T306 779H253Q253 824 279 853T343 882Q364
882 376 874T396 855T411 836T430 828Q446 828 453 842T461 880H513Q513 837 495 808T430 778Z" />
<glyph unicode="&#xd6;" glyph-name="Odieresis" horiz-adv-x="765" d="M725 350Q725 274 699 209T625 94T516 18T383 -10Q311 -10 249 18T140 95T67 210T40 350Q40 424 67 489T142 604T252 682T383 710Q454 710 516 682T625 603T698 488T725 350ZM644 350Q644
408 624 459T568 550T485 612T383 635Q328 635 281 613T198 551T142 460T121 350Q121 292 141 240T197 149T280 87T383 64Q438 64 485 86T568 148T624 239T644 350ZM295 776Q277 776 264 789T251 821Q251 838 264 851T295 865Q313 865 326 852T340 821Q340 802
327 789T295 776ZM475 776Q457 776 444 789T430 821Q430 838 443 851T475 865Q493 865 506 852T519 821Q519 802 506 789T475 776Z" />
<glyph unicode="&#xd7;" glyph-name="multiply" horiz-adv-x="482" d="M382 105L50 438L99 487L432 155L382 105ZM50 155L383 487L432 438L100 105L50 155Z" />
<glyph unicode="&#xd8;" glyph-name="Oslash" horiz-adv-x="765" d="M725 350Q725 274 699 209T625 94T516 18T383 -10Q311 -10 249 18T140 95T67 210T40 350Q40 424 67 489T142 604T252 682T383 710Q454 710 516 682T625 603T698 488T725 350ZM644 350Q644 408
624 459T568 550T485 612T383 635Q328 635 281 613T198 551T142 460T121 350Q121 292 141 240T197 149T280 87T383 64Q438 64 485 86T568 148T624 239T644 350ZM656 773L182 -74H110L583 773H656Z" />
<glyph unicode="&#xd9;" glyph-name="Ugrave" horiz-adv-x="609" d="M480 700H559V0H480V79Q446 41 400 18T299 -5Q227 -5 169 28T75 118T40 245V700H119L120 245Q120 198 144 160T209 98T299 75Q351 75 392 97T456 159T480 245V700ZM327 769H279L239 903H302L327 769Z" />
<glyph unicode="&#xda;" glyph-name="Uacute" horiz-adv-x="609" d="M480 700H559V0H480V79Q446 41 400 18T299 -5Q227 -5 169 28T75 118T40 245V700H119L120 245Q120 198 144 160T209 98T299 75Q351 75 392 97T456 159T480 245V700ZM265 769H313L353 903H290L265 769Z" />
<glyph unicode="&#xdb;" glyph-name="Ucircumflex" horiz-adv-x="609" d="M480 700H559V0H480V79Q446 41 400 18T299 -5Q227 -5 169 28T75 118T40 245V700H119L120 245Q120 198 144 160T209 98T299 75Q351 75 392 97T456 159T480 245V700ZM172 769L273 880H319L420
769H352L296 833L240 769H172Z" />
<glyph unicode="&#xdc;" glyph-name="Udieresis" horiz-adv-x="609" d="M480 700H559V0H480V79Q446 41 400 18T299 -5Q227 -5 169 28T75 118T40 245V700H119L120 245Q120 198 144 160T209 98T299 75Q351 75 392 97T456 159T480 245V700ZM208 776Q190 776 177 789T164
821Q164 838 177 851T208 865Q226 865 239 852T253 821Q253 802 240 789T208 776ZM388 776Q370 776 357 789T343 821Q343 838 356 851T388 865Q406 865 419 852T432 821Q432 802 419 789T388 776Z" />
<glyph unicode="&#xdd;" glyph-name="Yacute" horiz-adv-x="632" d="M592 700L356 236V0H276V236L40 700H123L316 318L509 700H592ZM285 769H333L373 903H310L285 769Z" />
<glyph unicode="&#xde;" glyph-name="Thorn" horiz-adv-x="524" d="M50 0L51 700H131V554H308Q358 554 398 526T461 451T484 351Q484 314 470 278T431 213T374 165T305 147H131V0H50ZM131 229H305Q332 229 355 248T393 295T407 351Q407 401 379 437T306 474H131V229Z" />
<glyph unicode="&#xdf;" glyph-name="germandbls" horiz-adv-x="564" d="M524 199Q524 149 500 104T434 29T345 0H222V78H345Q372 78 394 96T430 142T443 199Q443 228 431 254T398 296T348 312H130V0H50V700H313Q364 700 404 675T466 606T488 509Q488 468 475
437T430 369Q478 337 501 293T524 199ZM408 509Q408 553 383 586T313 620H130V388H309Q336 388 358 405T394 450T408 509Z" />
<glyph unicode="&#xe0;" glyph-name="agrave" horiz-adv-x="505" d="M204 -5Q134 -3 87 34T40 144Q40 219 84 261T204 316T374 311V347Q374 382 352 402T296 430T224 432T153 409T102 363L53 415Q84 453 128 474T221 501T314 498T393 465Q426 445 438 414T453
341T455 253V0H375V47Q338 20 293 7T204 -5ZM373 118V249Q254 264 184 241T114 145Q114 113 132 95T180 71T245 69T314 86T373 118ZM283 573H235L195 707H258L283 573Z" />
<glyph unicode="&#xe1;" glyph-name="aacute" horiz-adv-x="505" d="M204 -5Q134 -3 87 34T40 144Q40 219 84 261T204 316T374 311V347Q374 382 352 402T296 430T224 432T153 409T102 363L53 415Q84 453 128 474T221 501T314 498T393 465Q426 445 438 414T453
341T455 253V0H375V47Q338 20 293 7T204 -5ZM373 118V249Q254 264 184 241T114 145Q114 113 132 95T180 71T245 69T314 86T373 118ZM221 573H269L309 707H246L221 573Z" />
<glyph unicode="&#xe2;" glyph-name="acircumflex" horiz-adv-x="505" d="M204 -5Q134 -3 87 34T40 144Q40 219 84 261T204 316T374 311V347Q374 382 352 402T296 430T224 432T153 409T102 363L53 415Q84 453 128 474T221 501T314 498T393 465Q426 445 438 414T453
341T455 253V0H375V47Q338 20 293 7T204 -5ZM373 118V249Q254 264 184 241T114 145Q114 113 132 95T180 71T245 69T314 86T373 118ZM128 829L229 940H275L376 829H308L252 893L196 829H128Z" />
<glyph unicode="&#xe3;" glyph-name="atilde" horiz-adv-x="505" d="M204 -5Q134 -3 87 34T40 144Q40 219 84 261T204 316T374 311V347Q374 382 352 402T296 430T224 432T153 409T102 363L53 415Q84 453 128 474T221 501T314 498T393 465Q426 445 438 414T453
341T455 253V0H375V47Q338 20 293 7T204 -5ZM373 118V249Q254 264 184 241T114 145Q114 113 132 95T180 71T245 69T314 86T373 118ZM298 838Q276 838 262 851T237 878T211 893Q191 893 183 877T174 839H121Q121 884 147 913T211 942Q232 942 244 934T264 915T279
896T298 888Q314 888 321 902T329 940H381Q381 897 363 868T298 838Z" />
<glyph unicode="&#xe4;" glyph-name="adieresis" horiz-adv-x="505" d="M204 -5Q134 -3 87 34T40 144Q40 219 84 261T204 316T374 311V347Q374 382 352 402T296 430T224 432T153 409T102 363L53 415Q84 453 128 474T221 501T314 498T393 465Q426 445 438 414T453
341T455 253V0H375V47Q338 20 293 7T204 -5ZM373 118V249Q254 264 184 241T114 145Q114 113 132 95T180 71T245 69T314 86T373 118ZM164 836Q146 836 133 849T120 881Q120 898 133 911T164 925Q182 925 195 912T209 881Q209 862 196 849T164 836ZM344 836Q326 836
313 849T299 881Q299 898 312 911T344 925Q362 925 375 912T388 881Q388 862 375 849T344 836Z" />
<glyph unicode="&#xe5;" glyph-name="aring" horiz-adv-x="505" d="M204 -5Q134 -3 87 34T40 144Q40 219 84 261T204 316T374 311V347Q374 382 352 402T296 430T224 432T153 409T102 363L53 415Q84 453 128 474T221 501T314 498T393 465Q426 445 438 414T453 341T455
253V0H375V47Q338 20 293 7T204 -5ZM373 118V249Q254 264 184 241T114 145Q114 113 132 95T180 71T245 69T314 86T373 118ZM252 562Q220 562 196 585T172 642Q172 674 196 698T252 722Q285 722 308 698T332 642Q332 609 309 586T252 562ZM252 682Q235 682 224 671T212
643Q212 625 223 614T252 602Q268 602 279 613T291 643Q291 659 280 670T252 682Z" />
<glyph unicode="&#xe6;" glyph-name="ae" horiz-adv-x="888" d="M204 -5Q134 -3 87 34T40 144Q40 219 84 261T204 316T374 311V347Q374 382 352 402T296 430T224 432T153 409T102 363L53 415Q84 453 128 474T221 501T314 498T393 465Q426 445 438 414T453 341T455
253V0H375V47Q338 20 293 7T204 -5ZM373 118V249Q254 264 184 241T114 145Q114 113 132 95T180 71T245 69T314 86T373 118ZM845 226H456Q458 161 491 123T575 73T684 75T794 128L836 66Q787 28 734 10T628 -9Q503 -12 437 60T371 263Q371 374 433 440T615 505Q693
505 748 473T829 378Q842 347 845 309T845 226ZM619 431Q551 431 504 396T456 290H774Q774 356 733 393T619 431Z" />
<glyph unicode="&#xe7;" glyph-name="ccedilla" horiz-adv-x="493" d="M452 65Q400 18 343 2T233 -4T136 41T66 129T40 253Q40 323 65 375T134 460T232 501T343 494T453 432L403 375Q359 413 310 421T217 412T147 353T120 253Q120 190 147 147T219 84T312 73T405
125L452 65ZM248 -189Q226 -189 205 -178T171 -145L203 -122Q215 -143 238 -146T281 -139T298 -103Q297 -80 280 -70T240 -61T202 -79L195 -38L244 35L288 20L259 -22Q295 -22 315 -39T341 -81T338 -130T307 -172T248 -189Z" />
<glyph unicode="&#xe8;" glyph-name="egrave" horiz-adv-x="562" d="M512 226H123Q125 161 158 123T242 73T351 75T461 128L503 66Q454 28 401 10T295 -9Q170 -12 104 60T38 263Q38 374 100 440T282 505Q360 505 415 473T496 378Q509 347 512 309T512 226ZM286
431Q218 431 171 396T123 290H441Q441 356 400 393T286 431ZM312 573H264L224 707H287L312 573Z" />
<glyph unicode="&#xe9;" glyph-name="eacute" horiz-adv-x="562" d="M512 226H123Q125 161 158 123T242 73T351 75T461 128L503 66Q454 28 401 10T295 -9Q170 -12 104 60T38 263Q38 374 100 440T282 505Q360 505 415 473T496 378Q509 347 512 309T512 226ZM286
431Q218 431 171 396T123 290H441Q441 356 400 393T286 431ZM250 573H298L338 707H275L250 573Z" />
<glyph unicode="&#xea;" glyph-name="ecircumflex" horiz-adv-x="562" d="M512 226H123Q125 161 158 123T242 73T351 75T461 128L503 66Q454 28 401 10T295 -9Q170 -12 104 60T38 263Q38 374 100 440T282 505Q360 505 415 473T496 378Q509 347 512 309T512 226ZM286
431Q218 431 171 396T123 290H441Q441 356 400 393T286 431ZM157 829L258 940H304L405 829H337L281 893L225 829H157Z" />
<glyph unicode="&#xeb;" glyph-name="edieresis" horiz-adv-x="562" d="M512 226H123Q125 161 158 123T242 73T351 75T461 128L503 66Q454 28 401 10T295 -9Q170 -12 104 60T38 263Q38 374 100 440T282 505Q360 505 415 473T496 378Q509 347 512 309T512 226ZM286
431Q218 431 171 396T123 290H441Q441 356 400 393T286 431ZM193 836Q175 836 162 849T149 881Q149 898 162 911T193 925Q211 925 224 912T238 881Q238 862 225 849T193 836ZM373 836Q355 836 342 849T328 881Q328 898 341 911T373 925Q391 925 404 912T417 881Q417
862 404 849T373 836Z" />
<glyph unicode="&#xec;" glyph-name="igrave" horiz-adv-x="200" d="M150 0H75V500H150V0ZM162 825H114L74 959H137L162 825Z" />
<glyph unicode="&#xed;" glyph-name="iacute" horiz-adv-x="202" d="M125 0H50V500H125V0ZM64 825H112L152 959H89L64 825Z" />
<glyph unicode="&#xee;" glyph-name="icircumflex" horiz-adv-x="348" d="M211 0H136V500H211V0ZM50 825L151 936H197L298 825H230L174 889L118 825H50Z" />
<glyph unicode="&#xef;" glyph-name="idieresis" horiz-adv-x="368" d="M222 0H147V500H222V0ZM94 832Q76 832 63 845T50 877Q50 894 63 907T94 921Q112 921 125 908T139 877Q139 858 126 845T94 832ZM274 832Q256 832 243 845T229 877Q229 894 242 907T274 921Q292
921 305 908T318 877Q318 858 305 845T274 832Z" />
<glyph unicode="&#xf0;" glyph-name="eth" horiz-adv-x="553" d="M266 -4Q200 -1 148 33T67 122T41 241Q43 294 66 337T125 410T206 453T297 460T385 423Q363 460 339 495T288 563L175 523L155 580L250 614Q237 628 218 651T176 700L275 704L326 642L434 680L454
622L363 590Q447 478 481 388T512 217Q508 152 474 101T385 22T266 -4ZM270 77Q311 76 347 95T406 148T430 224Q431 266 411 301T357 358T280 381Q237 383 201 364T144 310T121 235Q119 193 139 158T193 100T270 77Z" />
<glyph unicode="&#xf1;" glyph-name="ntilde" horiz-adv-x="528" d="M488 0H409V297Q409 345 389 374T337 415T271 428Q238 428 206 414T151 371T129 297V0H50V500H129V446Q152 477 192 491T275 506Q333 506 381 482T459 412T488 297V0ZM316 838Q294 838 280 851T255
878T229 893Q209 893 201 877T192 839H139Q139 884 165 913T229 942Q250 942 262 934T282 915T297 896T316 888Q332 888 339 902T347 940H399Q399 897 381 868T316 838Z" />
<glyph unicode="&#xf2;" glyph-name="ograve" horiz-adv-x="564" d="M282 -12Q210 -12 156 19T71 106T40 239Q40 327 72 386T158 475T282 505Q353 505 407 475T493 386T524 239Q524 163 493 107T408 19T282 -12ZM282 64Q335 64 372 87T428 151T447 239Q447 321
405 374T282 428Q201 428 159 374T117 239Q117 190 135 151T191 88T282 64ZM313 573H265L225 707H288L313 573Z" />
<glyph unicode="&#xf3;" glyph-name="oacute" horiz-adv-x="564" d="M282 -12Q210 -12 156 19T71 106T40 239Q40 327 72 386T158 475T282 505Q353 505 407 475T493 386T524 239Q524 163 493 107T408 19T282 -12ZM282 64Q335 64 372 87T428 151T447 239Q447 321
405 374T282 428Q201 428 159 374T117 239Q117 190 135 151T191 88T282 64ZM251 573H299L339 707H276L251 573Z" />
<glyph unicode="&#xf4;" glyph-name="ocircumflex" horiz-adv-x="564" d="M282 -12Q210 -12 156 19T71 106T40 239Q40 327 72 386T158 475T282 505Q353 505 407 475T493 386T524 239Q524 163 493 107T408 19T282 -12ZM282 64Q335 64 372 87T428 151T447 239Q447
321 405 374T282 428Q201 428 159 374T117 239Q117 190 135 151T191 88T282 64ZM158 829L259 940H305L406 829H338L282 893L226 829H158Z" />
<glyph unicode="&#xf5;" glyph-name="otilde" horiz-adv-x="564" d="M282 -12Q210 -12 156 19T71 106T40 239Q40 327 72 386T158 475T282 505Q353 505 407 475T493 386T524 239Q524 163 493 107T408 19T282 -12ZM282 64Q335 64 372 87T428 151T447 239Q447 321
405 374T282 428Q201 428 159 374T117 239Q117 190 135 151T191 88T282 64ZM329 838Q307 838 293 851T268 878T242 893Q222 893 214 877T205 839H152Q152 884 178 913T242 942Q263 942 275 934T295 915T310 896T329 888Q345 888 352 902T360 940H412Q412 897 394
868T329 838Z" />
<glyph unicode="&#xf6;" glyph-name="odieresis" horiz-adv-x="564" d="M282 -12Q210 -12 156 19T71 106T40 239Q40 327 72 386T158 475T282 505Q353 505 407 475T493 386T524 239Q524 163 493 107T408 19T282 -12ZM282 64Q335 64 372 87T428 151T447 239Q447
321 405 374T282 428Q201 428 159 374T117 239Q117 190 135 151T191 88T282 64ZM194 836Q176 836 163 849T150 881Q150 898 163 911T194 925Q212 925 225 912T239 881Q239 862 226 849T194 836ZM374 836Q356 836 343 849T329 881Q329 898 342 911T374 925Q392 925
405 912T418 881Q418 862 405 849T374 836Z" />
<glyph unicode="&#xf7;" glyph-name="divide" horiz-adv-x="571" d="M521 265H51V335H521V265ZM286 426Q265 427 250 442T234 478Q234 500 249 515T286 530Q307 530 322 515T338 478Q338 457 323 442T286 426ZM286 67Q265 68 250 83T234 119Q234 141 249 156T286
171Q307 171 322 156T338 119Q338 98 323 83T286 67Z" />
<glyph unicode="&#xf8;" glyph-name="oslash" horiz-adv-x="564" d="M282 -12Q210 -12 156 19T71 106T40 239Q40 327 72 386T158 475T282 505Q353 505 407 475T493 386T524 239Q524 163 493 107T408 19T282 -12ZM282 64Q335 64 372 87T428 151T447 239Q447 321
405 374T282 428Q201 428 159 374T117 239Q117 190 135 151T191 88T282 64ZM477 792L158 218H86L404 792H477Z" />
<glyph unicode="&#xf9;" glyph-name="ugrave" horiz-adv-x="527" d="M477 0H398V52Q378 22 341 7T260 -9T174 1T103 40Q73 66 57 106T40 198V500H120V198Q120 129 159 97T261 65Q292 65 323 79T376 122T398 198V500H477V0ZM299 573H251L211 707H274L299 573Z" />
<glyph unicode="&#xfa;" glyph-name="uacute" horiz-adv-x="527" d="M477 0H398V52Q378 22 341 7T260 -9T174 1T103 40Q73 66 57 106T40 198V500H120V198Q120 129 159 97T261 65Q292 65 323 79T376 122T398 198V500H477V0ZM237 573H285L325 707H262L237 573Z" />
<glyph unicode="&#xfb;" glyph-name="ucircumflex" horiz-adv-x="527" d="M477 0H398V52Q378 22 341 7T260 -9T174 1T103 40Q73 66 57 106T40 198V500H120V198Q120 129 159 97T261 65Q292 65 323 79T376 122T398 198V500H477V0ZM144 829L245 940H291L392 829H324L268
893L212 829H144Z" />
<glyph unicode="&#xfc;" glyph-name="udieresis" horiz-adv-x="527" d="M477 0H398V52Q378 22 341 7T260 -9T174 1T103 40Q73 66 57 106T40 198V500H120V198Q120 129 159 97T261 65Q292 65 323 79T376 122T398 198V500H477V0ZM180 836Q162 836 149 849T136 881Q136
898 149 911T180 925Q198 925 211 912T225 881Q225 862 212 849T180 836ZM360 836Q342 836 329 849T315 881Q315 898 328 911T360 925Q378 925 391 912T404 881Q404 862 391 849T360 836Z" />
<glyph unicode="&#xfd;" glyph-name="yacute" horiz-adv-x="546" d="M113 -172V-94Q142 -94 167 -82T209 -49T229 -3L40 500H127L277 93L418 500H506L330 29Q308 -33 281 -77T215 -146T113 -172ZM243 573H291L331 707H268L243 573Z" />
<glyph unicode="&#xfe;" glyph-name="thorn" horiz-adv-x="532" d="M50 -170V700H129V478Q173 506 226 513T322 509Q407 487 449 425T492 255Q492 168 447 106T324 23Q279 11 227 14T129 40V-170H50ZM302 101Q355 114 383 154T412 255Q412 329 387 371T302 429Q261
440 212 428T129 393V119Q169 101 217 96T302 101Z" />
<glyph unicode="&#xff;" glyph-name="ydieresis" horiz-adv-x="546" d="M113 -172V-94Q142 -94 167 -82T209 -49T229 -3L40 500H127L277 93L418 500H506L330 29Q308 -33 281 -77T215 -146T113 -172ZM186 836Q168 836 155 849T142 881Q142 898 155 911T186 925Q204
925 217 912T231 881Q231 862 218 849T186 836ZM366 836Q348 836 335 849T321 881Q321 898 334 911T366 925Q384 925 397 912T410 881Q410 862 397 849T366 836Z" />
<glyph unicode="&#x2013;" glyph-name="endash" horiz-adv-x="595" d="M545 265H50V335H545V265Z" />
<glyph unicode="&#x2014;" glyph-name="emdash" horiz-adv-x="946" d="M926 265H20V335H926V265Z" />
<glyph unicode="&#x2018;" glyph-name="quoteleft" horiz-adv-x="157" d="M137 534Q137 512 121 497T82 480Q60 480 44 497T30 537Q30 549 37 571T53 620T72 668T87 703L117 690Q110 677 100 646T85 587Q108 587 122 572T137 534Z" />
<glyph unicode="&#x2019;" glyph-name="quoteright" horiz-adv-x="157" d="M20 646Q20 668 36 683T75 700Q97 700 113 683T127 643Q127 631 120 609T104 560T85 512T70 477L40 490Q47 503 57 534T72 593Q49 593 35 608T20 646Z" />
<glyph unicode="&#x201a;" glyph-name="quotesinglbase" horiz-adv-x="147" d="M20 56Q20 78 36 93T75 110Q97 110 113 93T127 53Q127 41 120 19T104 -30T85 -78T70 -113L40 -100Q47 -87 57 -56T72 3Q49 3 35 18T20 56Z" />
<glyph unicode="&#x201c;" glyph-name="quotedblleft" horiz-adv-x="305" d="M285 534Q285 512 269 497T230 480Q208 480 192 497T178 537Q178 549 185 571T201 620T220 668T235 703L265 690Q258 677 248 646T233 587Q256 587 270 572T285 534ZM137 534Q137 512
121 497T82 480Q60 480 44 497T30 537Q30 549 37 571T53 620T72 668T87 703L117 690Q110 677 100 646T85 587Q108 587 122 572T137 534Z" />
<glyph unicode="&#x201d;" glyph-name="quotedblright" horiz-adv-x="309" d="M20 646Q20 668 36 683T75 700Q97 700 113 683T127 643Q127 631 120 609T104 560T85 512T70 477L40 490Q47 503 57 534T72 593Q49 593 35 608T20 646ZM172 646Q172 668 188 683T227
700Q249 700 265 683T279 643Q279 631 272 609T256 560T237 512T222 477L192 490Q199 503 209 534T224 593Q201 593 187 608T172 646Z" />
<glyph unicode="&#x201e;" glyph-name="quotedblbase" horiz-adv-x="299" d="M172 56Q172 78 188 93T227 110Q249 110 265 93T279 53Q279 41 272 19T256 -30T237 -78T222 -113L192 -100Q199 -87 209 -56T224 3Q201 3 187 18T172 56ZM20 56Q20 78 36 93T75 110Q97
110 113 93T127 53Q127 41 120 19T104 -30T85 -78T70 -113L40 -100Q47 -87 57 -56T72 3Q49 3 35 18T20 56Z" />
<glyph unicode="&#x2022;" glyph-name="bullet" horiz-adv-x="307" d="M154 209Q112 211 81 241T50 313Q50 357 81 387T154 417Q196 417 226 387T258 313Q258 271 227 240T154 209Z" />
<glyph unicode="&#x2039;" glyph-name="guilsinglleft" horiz-adv-x="318" d="M278 50L30 272L278 490V402L127 269L278 137V50Z" />
<glyph unicode="&#x203a;" glyph-name="guilsinglright" horiz-adv-x="318" d="M40 50L288 272L40 490V402L191 269L40 137V50Z" />
</font>
</defs>
</svg>
