<?xml version="1.0" standalone="no"?>
<!DOCTYPE svg PUBLIC "-//W3C//DTD SVG 1.1//EN" "http://www.w3.org/Graphics/SVG/1.1/DTD/svg11.dtd">
<svg xmlns="http://www.w3.org/2000/svg">
<defs >
<font id="Arima" horiz-adv-x="506" ><font-face
    font-family="Arima Thin"
    units-per-em="1000"
    panose-1="0 0 0 0 0 0 0 0 0 0"
    ascent="1073"
    descent="-560"
    alphabetic="0" />
<glyph unicode=" " horiz-adv-x="240" />
<glyph unicode="!" horiz-adv-x="298" d="M102 718L121 181H180L196 718Q173 725 149 725T102 718ZM148 -13Q126 -13 110 3T94 41Q94 64 110 79T148 95Q171 95 186 80T202 41Q202 19 187 3T148 -13Z" />
<glyph unicode="&quot;" horiz-adv-x="281" d="M166 726L183 574H221L241 726Q225 731 205 731T166 726ZM40 726L57 574H95L115 726Q99 731 79 731T40 726Z" />
<glyph unicode="#" horiz-adv-x="650" d="M189 0H131L257 693H315L189 0ZM389 0H331L457 693H515L389 0ZM53 469H636L629 419H46L53 469ZM21 269H604L597 219H14L21 269Z" />
<glyph unicode="$" horiz-adv-x="555" d="M290 -92Q271 -92 271 -70L269 684Q269 747 263 771Q267 774 271 776T283 779Q301 779 301 757L303 3Q303 -60 309 -84Q306 -87 302 -89T290 -92ZM275 -13Q197 -13 148 7T75 61T51 135Q51 154 58 168T81 189T125 192Q122
183 122 173T122 150Q124 112 143 84T198 40T283 24Q347 24 387 54T428 146Q428 186 410 214T356 268T268 322Q211 355 168 384T100 451T76 542Q76 601 105 636T182 689T288 706Q377 706 432 674T487 582Q487 564 479 552T447 536Q434 532 416 536Q419 547 419
558T416 578Q413 607 396 627T348 658T280 669Q250 669 221 660T172 628T152 567Q152 527 172 499T228 446T313 395Q367 367 411 336T481 264T508 168Q508 134 496 102T456 44T384 3T275 -13Z" />
<glyph unicode="%" horiz-adv-x="1026" d="M220 315Q135 315 91 363T46 511Q46 609 90 657T220 706Q306 706 350 658T394 511Q394 412 350 364T220 315ZM221 343Q271 343 296 383T322 511Q322 598 297 637T221 677Q171 677 145 638T119 511Q119 424 145 384T221
343ZM684 706Q698 708 712 704T732 685L340 -13Q311 -17 294 5L684 706ZM806 -9Q721 -9 677 39T632 187Q632 285 676 333T806 382Q892 382 936 334T980 187Q980 88 936 40T806 -9ZM807 20Q857 20 882 60T908 187Q908 274 883 313T807 353Q757 353 731 314T705 187Q705
100 731 60T807 20Z" />
<glyph unicode="&amp;" horiz-adv-x="847" d="M383 -15Q308 -15 249 9T148 74T84 171T62 289Q62 358 90 410T170 493T288 523Q343 523 378 503T430 451T448 380Q448 333 425 298T365 235T290 185V197Q317 204 355 227T439 284T533 361T626 450T710 542T774 632Q784
632 794 627T812 612T818 586T801 549Q756 483 691 422T550 309T398 220T258 163L250 193Q289 219 318 245T363 302T380 372Q380 416 358 448T286 481Q251 481 220 460T169 398T150 296Q150 244 165 196T212 110T287 50T390 27Q461 27 522 61T622 160T660 314Q660
377 639 437T578 545T485 619T368 644Q368 671 382 686T434 701Q496 701 548 667T639 575T699 451T721 319Q721 246 695 185T623 78T516 9T383 -15Z" />
<glyph unicode="&apos;" horiz-adv-x="155" d="M40 726L57 574H95L115 726Q99 731 79 731T40 726Z" />
<glyph unicode="(" horiz-adv-x="427" d="M358 -172Q335 -172 304 -156T239 -105T177 -16T131 114T113 287Q113 385 130 460T177 589T239 679T304 730T358 747Q377 747 382 739T387 725Q342 700 307 657T247 558T209 433T196 287Q197 211 210 142T248 16T309 -84T387
-150Q387 -156 382 -164T358 -172Z" />
<glyph unicode=")" horiz-adv-x="427" d="M69 -172Q51 -172 46 -164T40 -150Q83 -126 118 -84T178 15T216 142T230 287Q230 364 218 432T180 557T120 657T40 725Q40 731 45 739T69 747Q91 747 122 731T187 679T249 590T296 460T314 287Q314 189 296 114T250 -15T188
-104T123 -155T69 -172Z" />
<glyph unicode="*" horiz-adv-x="507" d="M31 533Q31 554 44 571T89 589Q129 589 161 561T213 489T232 403Q232 372 222 342T191 292T141 273Q120 273 103 286T86 325Q86 354 109 379T169 421T251 437Q296 437 332 421T389 381T411 329Q411 306 395 291T354 276Q328
276 311 293T284 337T274 390Q274 423 286 457T320 521T367 568T420 587Q446 587 460 571T474 531Q474 499 451 483T392 467Q355 467 320 483T256 525T210 583T193 647Q193 675 208 691T254 708Q286 708 300 691T315 645Q315 612 299 581T254 525T191 485T119 470Q83
470 57 486T31 533ZM68 532Q68 515 83 507T120 498Q161 498 199 520T261 576T286 644Q286 679 257 679Q242 679 236 671T230 648Q230 620 244 593T281 544T334 509T393 495Q414 495 429 503T444 529Q444 541 437 548T418 556Q398 556 379 540T344 498T317 445T307
390Q307 374 312 355T327 321T354 306Q366 306 373 313T381 330Q381 348 364 365T317 395T252 407Q218 407 188 395T140 365T122 327Q122 317 129 310T146 302Q162 302 174 317T192 356T199 403Q199 440 184 476T144 535T95 559Q82 559 75 551T68 532Z" />
<glyph unicode="+" horiz-adv-x="553" d="M79 374H474Q484 350 474 325H79Q70 350 79 374ZM301 548V152Q276 144 252 152L251 548Q276 557 301 548Z" />
<glyph unicode="," horiz-adv-x="273" d="M125 -99Q115 -97 108 -92T95 -81Q110 -64 118 -48T126 -13Q126 6 119 16T101 32T80 41Q80 60 95 77T136 95Q156 95 174 81T193 26Q193 -2 179 -33T125 -99Z" />
<glyph unicode="-" horiz-adv-x="399" d="M48 283H350V231H48V283Z" />
<glyph unicode="." horiz-adv-x="268" d="M134 -13Q112 -13 96 3T80 41Q80 64 96 79T134 95Q157 95 172 80T188 41Q188 19 173 3T134 -13Z" />
<glyph unicode="/" horiz-adv-x="444" d="M85 -142H5L329 731H410L85 -142Z" />
<glyph unicode="0" horiz-adv-x="623" d="M311 -13Q192 -13 129 75T65 346Q65 528 128 617T311 706Q431 706 494 617T557 346Q557 164 494 76T311 -13ZM311 24Q389 24 429 101T469 346Q469 514 429 591T311 669Q235 669 195 592T154 346Q154 179 194 102T311 24Z" />
<glyph unicode="1" horiz-adv-x="427" d="M301 114Q301 85 303 57T313 7Q308 2 296 -4T267 -11Q248 -11 236 1T223 33L222 574Q222 589 222 601T219 626Q203 609 182 589T138 552T97 523T70 511Q55 511 47 517T37 533T34 550T35 562Q37 563 53 573T93 599T142
633T189 666T222 690Q228 694 236 696T254 699Q274 699 286 688T299 655L301 114Z" />
<glyph unicode="2" horiz-adv-x="547" d="M60 0Q51 6 47 20T47 49Q88 85 135 125T229 209T313 301T374 401T397 510Q397 553 383 589T338 647T260 670Q221 670 195 654T154 615T133 565T125 519Q100 519 86 527T67 547T61 573Q61 602 85 632T154 684T265 706Q323
706 372 686T452 622T482 509Q482 456 464 407T416 314T347 231T266 159T183 97T108 45Q144 46 185 48T269 53T354 62T435 71T504 81Q511 77 515 64T519 37T514 12T500 0H60Z" />
<glyph unicode="3" horiz-adv-x="553" d="M256 -12Q188 -12 145 2T77 37T44 78T35 111Q35 122 40 132T58 150T93 158Q96 141 102 119T125 74T171 38T251 23Q329 23 371 65T414 178Q414 242 380 278T291 331T173 349V386Q246 388 293 410T365 468T389 546Q389 599
358 634T261 670Q221 670 195 657T153 622T130 578T122 537Q98 537 86 543T68 559T63 578Q63 598 75 620T112 661T176 693T268 706Q304 706 341 698T409 672T459 623T478 543Q478 476 432 432T310 369Q366 358 409 337T477 279T503 185Q503 121 472 78T385 11T256
-12Z" />
<glyph unicode="4" horiz-adv-x="598" d="M463 114Q463 85 465 57T476 7Q470 2 459 -4T430 -11Q410 -11 398 1T385 33L383 619L98 232H416Q452 232 488 234T560 244Q568 230 567 213T556 184H58Q46 188 41 197T35 216T41 235L372 680Q377 688 390 694T417 701Q437
701 449 689T462 656L463 114Z" />
<glyph unicode="5" horiz-adv-x="561" d="M267 -12Q202 -12 157 10T88 66T64 130Q64 152 79 165T122 176Q123 156 129 131T152 83T195 44T263 28Q346 28 383 79T420 214Q420 266 401 304T347 364T261 385Q228 385 198 379T145 365T115 354Q103 354 98 361T93 377L106
658Q106 673 116 682T143 692Q209 692 264 692T368 694T463 699Q468 689 467 674T459 646T443 626Q377 626 306 626T167 631L156 403Q187 413 218 420T288 427Q391 427 450 372T509 220Q509 155 489 111T434 39T357 0T267 -12Z" />
<glyph unicode="6" horiz-adv-x="580" d="M302 -12Q257 -12 215 2T139 51T85 149T65 308Q65 445 94 532T182 662T334 705Q368 705 402 696T460 671T484 633Q484 623 478 614T465 598T453 591Q421 634 391 649T332 665Q283 665 251 644T199 587T169 503T156 405T152
304Q152 246 160 196T185 106T232 46T305 24Q356 24 385 52T428 127T442 222Q442 298 410 342T314 386Q272 386 238 367T178 314T141 235L117 266Q125 293 142 321T184 373T245 413T328 428Q384 428 429 405T502 336T529 220Q529 151 503 99T426 17T302 -12Z" />
<glyph unicode="7" horiz-adv-x="505" d="M249 0Q230 -5 210 -5T170 1Q173 51 185 118T217 258T264 403T322 534T388 632Q305 626 220 626T48 625Q42 631 39 645T36 674T42 696Q92 694 139 694T236 693H456Q465 685 466 666T455 631Q419 584 388 521T330 386T286
243T259 109T249 0Z" />
<glyph unicode="8" horiz-adv-x="599" d="M267 363L293 350Q274 342 250 328T201 293T162 240T146 167Q146 115 168 83T226 36T301 21Q343 21 378 37T434 83T455 153Q455 190 439 219T393 271T329 313T257 350Q215 370 176 396T112 458T87 546Q87 572 98 599T133
651T197 691T296 706Q370 706 417 684T488 626T511 549Q511 509 491 473T433 410T341 370L313 386Q358 409 383 436T418 493T428 550Q428 586 411 613T366 655T299 670Q265 670 236 657T188 617T170 550Q170 507 188 478T239 429T312 390Q354 371 394 349T468 299T522
238T542 162Q542 133 530 102T489 45T415 3T299 -13Q229 -13 183 3T110 45T71 101T59 161Q59 212 86 255T161 327T267 363Z" />
<glyph unicode="9" horiz-adv-x="586" d="M257 -13Q214 -13 178 -4T117 22T86 61Q83 74 87 86T100 105T116 114Q155 63 190 45T259 27Q307 27 338 47T389 103T417 185T430 283T433 389Q433 447 427 498T404 587T358 648T285 670Q236 670 206 642T163 570T150 478Q150
399 182 354T276 308Q316 308 350 327T409 380T445 459L469 427Q461 401 445 373T403 321T343 281T263 265Q208 265 163 289T92 361T66 480Q66 547 91 598T167 677T288 706Q336 706 378 691T452 639T502 541T520 385Q520 244 492 156T405 28T257 -13Z" />
<glyph unicode=":" horiz-adv-x="253" d="M127 339Q105 339 89 355T73 393Q73 416 89 431T127 447Q150 447 165 432T181 393Q181 371 166 355T127 339ZM383 -13Q361 -13 345 3T329 41Q329 64 345 79T383 95Q406 95 421 80T437 41Q437 19 422 3T383 -13Z" />
<glyph unicode=";" horiz-adv-x="259" d="M132 339Q110 339 94 355T78 393Q78 416 94 431T132 447Q155 447 170 432T186 393Q186 371 171 355T132 339ZM374 -99Q364 -97 357 -92T344 -81Q359 -64 367 -48T375 -13Q375 6 368 16T350 32T329 41Q329 60 344 77T385
95Q405 95 423 81T442 26Q442 -2 428 -33T374 -99Z" />
<glyph unicode="&lt;" horiz-adv-x="487" d="M43 340Q35 351 43 362L405 536Q417 542 426 530T429 490L114 351L429 212Q436 188 428 174T405 166L43 340Z" />
<glyph unicode="=" horiz-adv-x="550" d="M77 473H472Q482 449 472 424H77Q68 449 77 473ZM77 270H472Q482 245 472 220H77Q68 245 77 270Z" />
<glyph unicode="&gt;" horiz-adv-x="488" d="M444 340L82 166Q68 159 60 173T58 212L373 351L58 490Q51 517 60 529T82 536L444 362Q452 351 444 340Z" />
<glyph unicode="?" horiz-adv-x="504" d="M172 181V332Q205 333 241 344T307 380T356 440T375 525Q375 572 359 610T307 671T219 694Q180 694 154 680T114 645T93 599T85 556Q60 556 46 561T27 578T21 601Q21 631 44 661T113 711T226 731Q271 731 313 720T388
685T441 622T460 526Q460 472 441 431T390 361T317 315T234 293V181H172ZM190 -13Q168 -13 152 3T136 41Q136 64 152 79T190 95Q212 95 228 80T244 41Q244 19 228 3T190 -13Z" />
<glyph unicode="@" horiz-adv-x="858" d="M362 -101Q331 -103 292 -91T212 -52T137 18T82 121T61 259Q61 331 83 400T152 525T273 614T449 648Q529 648 587 625T685 564T748 477T782 378T793 281Q793 196 771 143T714 64T640 38Q615 38 592 50T555 85T540 137L548
228L568 241Q562 194 544 151T492 79T408 51Q358 51 329 71T286 121T268 183T263 240Q263 350 308 414T444 479Q494 479 526 463T575 421T600 364T607 303L606 162Q606 129 617 105T654 80Q690 80 716 128T744 282Q744 323 737 367T709 454T655 531T571 585T451
605Q367 605 308 577T210 500T154 390T136 263Q136 182 160 120T223 17T309 -43T404 -57Q415 -76 405 -88T362 -101ZM406 85Q446 85 475 113T520 190T537 300Q537 337 529 370T500 423T435 443Q372 443 338 393T303 241Q303 219 306 193T319 142T349 101T406 85Z"
/>
<glyph unicode="A" horiz-adv-x="592" d="M319 706Q336 706 349 700T367 676L568 55Q572 43 578 31T592 8Q586 1 575 -5T545 -11Q527 -11 513 -3T495 22L294 674L307 673L121 53Q119 45 117 37T115 20Q115 13 116 7T121 -3Q112 -6 102 -8T77 -11Q55 -11 43 -2T32
26Q32 34 35 46T41 71L253 693Q286 706 319 706ZM154 268H471V220H154V268Z" />
<glyph unicode="B" horiz-adv-x="579" d="M144 0Q123 0 110 12T96 45V577Q96 587 96 607T92 648T83 684Q99 692 131 699T226 706Q352 706 418 667T485 536Q485 475 454 430T362 367Q438 355 479 310T520 188Q520 118 487 77T392 18T240 0H144ZM177 37H243Q305
37 347 52T411 100T433 187Q433 250 410 284T344 331T243 345H166L159 382H261Q301 381 332 397T382 448T400 531Q400 602 359 636T222 670Q207 670 196 670T177 668V37Z" />
<glyph unicode="C" horiz-adv-x="596" d="M547 113Q547 88 529 65T480 25T408 -3T324 -13Q199 -13 129 79T59 346Q59 521 130 613T329 706Q369 706 405 698T468 677T512 645T528 605Q528 587 511 573T463 561Q455 614 421 641T330 669Q241 669 195 588T148 346Q148
186 194 105T328 24Q364 24 395 38T449 82T480 153Q497 155 512 152T537 139T547 113Z" />
<glyph unicode="D" horiz-adv-x="641" d="M141 0Q120 0 108 12T95 44L93 577Q93 607 92 641T83 697Q110 700 148 701T224 703T291 704Q430 704 505 617T581 351Q581 166 506 83T295 0H141ZM174 37H291Q357 37 402 67T470 166T493 346Q493 513 442 589T291 666H173L174
37Z" />
<glyph unicode="E" horiz-adv-x="537" d="M143 0Q123 0 110 12T97 45L96 569Q96 599 94 624T83 672Q97 685 111 689T152 693H454Q463 693 466 684T468 661T460 637T446 622Q381 633 314 640T176 648L177 44Q225 45 276 49T376 60T464 72Q472 67 476 56T481 32T476
10T461 0H143ZM161 340V388H422Q425 376 425 364T422 340H161Z" />
<glyph unicode="F" horiz-adv-x="518" d="M143 -11Q123 -11 110 1T97 33L96 569Q96 599 94 624T83 672Q97 685 111 689T152 693H454Q463 693 466 684T468 661T460 637T446 622Q381 633 314 640T176 648L177 114Q177 85 179 57T190 7Q184 2 172 -4T143 -11ZM161
335V384H421Q424 371 424 359T421 335H161Z" />
<glyph unicode="G" horiz-adv-x="625" d="M336 -13Q202 -13 131 79T59 346Q59 520 132 613T338 706Q376 706 411 698T473 677T517 645T533 607Q533 587 516 573T468 561Q460 614 426 641T340 669Q244 669 196 588T148 346Q148 186 195 105T339 24Q387 24 416 43T461
94T482 158T487 221Q487 260 479 288T455 335T413 358Q417 374 432 381T466 388Q493 388 516 374T554 326T569 236Q569 198 561 162T535 94T490 39T424 1T336 -13Z" />
<glyph unicode="H" horiz-adv-x="680" d="M177 114Q177 85 179 57T190 7Q184 2 172 -4T143 -11Q123 -11 110 1T97 33L96 577Q96 607 94 634T83 684Q89 690 101 696T130 702Q150 702 163 691T177 658V114ZM584 114Q584 85 586 57T597 7Q591 2 579 -4T550 -11Q530
-11 517 1T504 33L503 577Q503 607 501 634T490 684Q496 690 508 696T537 702Q557 702 570 691T584 658V114ZM148 390H531V342H148V390Z" />
<glyph unicode="I" horiz-adv-x="273" d="M143 -11Q123 -11 110 1T97 33L96 577Q96 607 94 634T83 684Q89 690 101 696T130 702Q150 702 163 691T177 658V114Q177 85 179 57T190 7Q184 2 172 -4T143 -11Z" />
<glyph unicode="J" horiz-adv-x="456" d="M192 -13Q141 -13 109 2T61 43T46 96Q46 118 58 136T96 154Q107 154 113 151T125 140Q121 130 119 120T116 100Q116 74 128 58T157 33T191 24Q230 24 249 43T276 96T284 172V614Q284 628 284 641T288 665Q264 665 238
666T185 669Q168 670 151 663T134 630Q134 611 142 599T163 580Q157 574 147 572T128 570Q107 570 89 587T70 636Q70 666 92 686T157 706Q172 706 193 705T239 702T287 700Q312 699 332 701T369 704Q367 691 366 674T365 632V179Q365 143 358 109T332 48T279 4T192
-13Z" />
<glyph unicode="K" horiz-adv-x="585" d="M504 -12Q478 -12 460 2T428 39T407 85L365 218Q357 238 347 257T320 291T275 316T202 325H167L166 361Q175 362 186 363T205 365Q257 371 296 396T362 459T401 536T415 614Q415 645 409 663T397 690Q407 696 415 699T434
702Q448 702 462 695T485 668T494 614Q494 563 472 510T401 413T271 343L276 354Q349 349 385 318T438 239L485 105Q498 76 508 65T533 53Q538 52 546 54T561 65Q568 52 568 40Q568 17 549 3T504 -12ZM143 -11Q123 -11 110 1T97 33L96 577Q96 607 94 634T83 684Q89
690 101 696T130 702Q150 702 163 691T176 658L177 114Q177 85 179 57T190 7Q184 2 172 -4T143 -11Z" />
<glyph unicode="L" horiz-adv-x="480" d="M176 658L177 48Q222 48 268 52T358 62T438 75Q446 71 450 59T454 33T450 10T434 0H143Q123 0 110 12T97 45L96 577Q96 607 94 634T83 684Q89 690 101 696T130 702Q150 702 163 691T176 658Z" />
<glyph unicode="M" horiz-adv-x="850" d="M755 114Q755 85 757 57T767 7Q761 2 750 -4T720 -11Q701 -11 689 1T677 33L675 603L688 625L456 109Q434 101 416 100T380 107Q339 185 297 270T213 444T134 616L144 606L145 114Q145 85 147 54T158 1Q152 -4 144 -7T125
-11Q110 -11 103 -1T96 26L95 579Q95 616 94 642T89 690Q94 696 107 699T142 702Q157 702 167 699T184 686Q247 554 310 423T435 163L421 162Q449 223 479 291T539 429T599 566T655 694Q669 699 682 700T704 702Q723 702 737 696T753 678L755 114Z" />
<glyph unicode="N" horiz-adv-x="682" d="M121 -11Q110 -11 101 -8T85 1Q92 24 94 54T97 114L96 572Q96 609 95 639T89 690Q96 697 109 699T135 700T151 695Q183 649 224 589T311 463T400 332T480 210T541 111L524 609Q522 643 529 666T551 698Q559 700 568 700T587
695Q586 681 587 661T589 623V113Q589 76 590 49T594 1Q589 -4 578 -7T556 -10T537 -6Q501 38 464 88T389 192T318 297T252 398T194 491T147 568L162 38Q163 16 150 3T121 -11Z" />
<glyph unicode="O" horiz-adv-x="651" d="M325 -13Q197 -13 128 75T59 346Q59 528 128 617T325 706Q454 706 523 617T592 346Q592 164 523 76T325 -13ZM325 24Q413 24 458 101T503 346Q503 514 458 591T325 669Q239 669 194 592T148 346Q148 179 193 102T325 24Z" />
<glyph unicode="P" horiz-adv-x="559" d="M144 -11Q123 -11 110 1T96 33V577Q96 587 96 607T92 648T83 684Q99 692 131 699T224 706Q370 706 440 657T511 502Q511 389 434 333T205 276Q192 276 182 276T161 277L154 314Q164 313 175 313T207 312Q283 312 330 333T400
395T423 497Q423 554 403 592T338 650T221 669Q207 669 196 669T177 667V111Q177 101 178 82T182 42T190 7Q184 2 173 -4T144 -11Z" />
<glyph unicode="Q" horiz-adv-x="656" d="M514 -149Q477 -150 438 -137T360 -104T286 -58T218 -10Q171 26 135 74T79 189T59 346Q59 528 130 617T327 706Q454 706 524 617T595 346Q595 228 563 148T470 28T327 -13Q314 -13 300 -12T275 -7Q302 -28 333 -46T399
-75T466 -85Q513 -85 546 -67T581 -13Q604 -13 617 -27T630 -61Q630 -100 600 -124T514 -149ZM326 24Q412 24 458 101T504 347Q504 514 459 591T327 669Q238 669 195 587T151 335Q151 236 169 167T226 61T326 24Z" />
<glyph unicode="R" horiz-adv-x="599" d="M144 -11Q123 -11 110 1T96 33V577Q96 587 96 607T92 648T83 684Q99 692 133 699T230 706Q371 706 440 662T509 517Q509 459 483 416T411 348T305 319L311 333Q352 333 378 319T422 280T452 226L502 108Q514 78 525 66T549
53Q554 53 562 55T578 66Q582 59 583 53T584 40Q584 23 574 12T549 -5T524 -11Q498 -11 480 1T449 35T423 88L377 206Q367 231 355 254T320 291T251 305L167 306L158 343Q177 342 201 342T255 341Q303 342 340 363T399 421T421 510Q421 591 377 630T234 670Q214
670 200 670T177 667V111Q177 101 178 82T182 42T190 7Q184 2 173 -4T144 -11Z" />
<glyph unicode="S" horiz-adv-x="555" d="M275 -13Q197 -13 148 7T75 61T51 135Q51 154 58 168T81 189T125 192Q122 183 122 173T122 150Q124 112 143 84T198 40T283 24Q347 24 387 54T428 146Q428 186 410 214T356 268T268 322Q211 355 168 384T100 451T76 542Q76
601 105 636T182 689T288 706Q377 706 432 674T487 582Q487 564 479 552T447 536Q434 532 416 536Q419 547 419 558T416 578Q413 607 396 627T348 658T280 669Q250 669 221 660T172 628T152 567Q152 527 172 499T228 446T313 395Q367 367 411 336T481 264T508 168Q508
134 496 102T456 44T384 3T275 -13Z" />
<glyph unicode="T" horiz-adv-x="528" d="M271 -11Q251 -11 238 1T225 33L224 676L304 671L305 114Q305 85 307 57T318 7Q312 2 300 -4T271 -11ZM40 622Q31 626 25 637T17 661T18 683T31 693H498Q507 693 510 684T512 661T503 637T489 622Q455 630 417 638T340
651T262 657Q225 657 187 652T111 638T40 622Z" />
<glyph unicode="U" horiz-adv-x="658" d="M573 658V305Q573 148 512 68T328 -13Q209 -13 150 64T91 305V577Q91 607 89 634T79 684Q85 690 96 696T125 702Q145 702 158 691T171 658V302Q171 157 209 91T328 24Q412 24 453 95T494 302V577Q494 607 492 634T481
684Q487 690 498 696T527 702Q547 702 560 691T573 658Z" />
<glyph unicode="V" horiz-adv-x="580" d="M286 -11Q241 -11 232 15L33 641Q30 652 24 665T9 687Q17 695 28 700T59 706Q102 706 110 674L308 6H282L468 643Q470 650 472 659T474 675Q474 682 473 688T468 698Q477 702 486 704T510 706Q534 706 546 697T557 670Q557
661 555 649T548 624L340 2Q324 -5 310 -8T286 -11Z" />
<glyph unicode="W" horiz-adv-x="922" d="M851 704Q875 704 887 695T898 668Q898 659 895 647T889 622L715 2Q699 -5 685 -8T660 -11Q641 -11 628 -5T610 15L466 524L316 2Q300 -5 287 -8T263 -11Q241 -11 227 -5T210 15L44 641Q41 652 35 665T20 687Q27 695 39
700T69 706Q90 706 103 698T121 674L273 58L419 573Q423 591 422 602T416 622Q428 628 444 631T472 635Q486 635 497 631T512 617L671 59L809 641Q811 649 813 657T815 673Q815 681 814 686T809 697Q818 700 827 702T851 704Z" />
<glyph unicode="X" horiz-adv-x="604" d="M512 -10Q472 -10 448 14T405 76L272 326L130 590Q120 609 110 618T87 628Q72 628 65 619T57 598Q44 603 36 614T27 641Q27 663 45 682T101 701Q142 701 166 677T211 614L328 391L485 101Q495 84 506 73T530 62Q544 62
551 72T558 92Q572 88 580 77T589 50Q589 28 568 9T512 -10ZM71 -9Q51 -9 41 3T27 41Q47 48 64 66T103 114L284 376L320 336L112 16Q105 5 96 -2T71 -9ZM324 338L294 376L478 678Q485 689 494 696T519 703Q539 703 549 691T563 653Q541 644 523 625T487 580L324
338Z" />
<glyph unicode="Y" horiz-adv-x="553" d="M273 228Q260 229 252 235T237 250T226 267L47 631Q42 641 33 654T13 678Q20 686 35 695T71 704Q94 704 105 692T126 660L304 278L270 264L445 636Q455 658 455 671Q455 678 453 684T448 696Q457 700 466 702T492 704Q512
704 521 693T532 665Q532 655 527 641T512 613L313 242L273 228ZM317 277V114Q317 85 319 57T330 7Q324 2 313 -4T284 -11Q264 -11 251 1T238 33L237 266L317 277Z" />
<glyph unicode="Z" horiz-adv-x="573" d="M63 -6L48 17Q48 38 54 55T74 91L458 651L470 632L200 623Q163 623 142 610T116 574Q112 553 118 538T139 509Q119 507 99 515Q78 520 64 544T50 596Q50 638 85 667T193 695L380 691Q422 691 452 692T502 699L519 675Q519
651 514 634T495 598L105 38L97 62L382 70Q431 71 452 88T478 126Q484 149 477 167T458 198Q469 199 473 199T484 197Q504 193 517 178T538 143T545 103Q545 58 511 29T405 -1L171 2Q142 3 117 2T63 -6Z" />
<glyph unicode="[" horiz-adv-x="340" d="M93 734H247V692H168V-124H247V-165H93V734Z" />
<glyph unicode="\" horiz-adv-x="470" d="M382 -142L57 731H138L462 -142H382Z" />
<glyph unicode="]" horiz-adv-x="340" d="M228 734V-165H74V-124H153V692H74V734H228Z" />
<glyph unicode="^" horiz-adv-x="540" d="M104 262Q98 263 86 266T73 274L244 436Q250 438 260 438T280 439T296 436L467 274Q465 270 454 266T436 262L270 379L104 262Z" />
<glyph unicode="_" horiz-adv-x="380" d="M-30 -67L410 -69V-114L-30 -112V-67Z" />
<glyph unicode="`" horiz-adv-x="600" d="M177 701Q184 706 198 710T228 718T257 720L348 570Q344 566 332 565T312 563L177 701Z" />
<glyph unicode="a" horiz-adv-x="550" d="M470 -10Q427 -10 405 19T383 114V203L402 194Q385 134 351 88T270 15T170 -11Q111 -11 78 20T45 105Q45 146 66 178T125 232T211 267Q253 278 297 282T379 284V310Q379 397 350 441T252 485Q228 485 204 478T164 453T148
404Q148 384 158 363T191 333Q182 322 169 318T143 313Q108 313 88 340T68 401Q68 460 120 490T259 521Q363 521 411 468T460 305V105Q460 52 496 52Q504 52 514 57T529 73Q535 65 537 57T540 42Q540 20 520 5T470 -10ZM206 45Q235 45 265 62T322 109T364 175T381
252Q358 254 330 252T274 245T226 232Q182 216 157 189T132 122Q132 92 149 68T206 45Z" />
<glyph unicode="b" horiz-adv-x="541" d="M272 -13Q239 -13 202 -7T132 14T74 54V686Q74 707 86 718T118 730Q136 730 148 724T167 712Q162 691 159 663T155 609T154 566V395Q166 431 190 459T248 504T324 521Q378 521 416 496T476 417T497 276Q497 215 485 163T445
71T375 9T272 -13ZM269 27Q315 28 343 50T386 109T407 189T413 276Q413 379 387 426T309 473Q266 473 237 451T189 392T162 314T154 233V66Q163 55 181 46T223 32T269 27Z" />
<glyph unicode="c" horiz-adv-x="505" d="M276 -13Q167 -13 106 54T44 251Q44 376 106 448T283 521Q366 521 409 486T453 394Q453 359 435 338T387 317Q374 317 361 321T340 336Q357 343 365 360T373 400Q373 430 360 449T324 477T276 486Q211 486 170 430T129
263Q129 182 152 133T213 63T297 42Q333 42 363 53T414 88T444 147Q454 143 458 132T454 95Q438 42 390 15T276 -13Z" />
<glyph unicode="d" horiz-adv-x="566" d="M216 -13Q163 -13 130 9T78 67T52 146T44 230Q44 367 98 444T254 521Q306 521 341 500T392 441L391 575Q391 613 389 648T378 712Q384 717 395 723T424 730Q444 730 457 719T471 686L470 105Q470 78 478 66T501 54Q507
54 515 56T528 69Q534 61 536 53T539 37Q539 17 522 5T477 -8Q435 -8 415 25T395 120V209L417 220Q410 170 395 128T355 54T296 5T216 -13ZM236 36Q273 36 301 57T350 116T380 201T390 304Q390 334 385 364T367 419T330 459T267 474Q201 474 165 413T129 233Q129
196 133 161T148 98T180 53T236 36Z" />
<glyph unicode="e" horiz-adv-x="511" d="M278 -13Q170 -13 107 54T44 251Q44 376 105 448T282 521Q336 521 377 505T441 456T465 377Q465 302 405 264T238 225Q196 225 158 228T81 240L83 273Q108 268 141 265T207 261Q242 261 273 267T329 287T366 325T380 387Q380
426 365 447T327 476T279 485Q212 485 171 429T129 261Q129 178 151 131T212 63T297 42Q351 42 392 64T447 129Q457 125 461 115T456 79Q437 34 389 11T278 -13Z" />
<glyph unicode="f" horiz-adv-x="388" d="M146 -11Q126 -11 113 1T100 33L99 556Q99 590 106 623T132 682T183 725T266 741Q326 741 362 719T399 656Q399 625 380 608T341 591Q331 591 323 593T309 601Q321 616 324 629T328 654Q328 683 311 695T264 707Q225 707
207 684T184 623T179 543V114Q179 88 181 59T191 7Q184 0 173 -5T146 -11ZM24 462L25 485Q26 496 32 501T48 507H241Q245 507 256 507T282 508T307 509T323 510L322 488Q321 477 315 471T299 465H84Q74 465 54 465T24 462Z" />
<glyph unicode="g" horiz-adv-x="537" d="M218 -233Q173 -233 134 -220T72 -181T48 -113Q48 -79 66 -59T110 -39Q138 -39 150 -54Q135 -65 129 -80T122 -115Q122 -143 134 -161T169 -189T221 -199Q307 -199 347 -136T387 45Q387 59 387 77T387 113Q369 58 326
27T221 -4Q167 -4 127 21T66 103T44 248Q44 286 50 324T70 398T111 461T176 505T272 521Q306 521 341 515T410 495T466 455V45Q466 -59 434 -120T346 -207T218 -233ZM242 40Q282 40 309 58T354 107T379 174T387 248L388 447Q370 466 339 475T271 484Q225 484 197
463T154 407T134 329T129 240Q129 133 156 87T242 40Z" />
<glyph unicode="h" horiz-adv-x="562" d="M129 -11Q109 -11 96 2T83 37L82 686Q82 707 93 718T122 730Q141 731 155 724T175 712Q167 685 165 649T161 556L160 347L143 329Q148 389 172 432T236 498T325 521Q408 521 446 468T485 313L486 114Q486 88 488 59T498
7Q491 0 480 -5T452 -11Q432 -11 420 1T407 33L406 303Q406 388 383 432T302 477Q278 477 253 464T207 424T174 351T161 241Q161 181 161 142T162 78T166 37T175 7Q169 2 158 -4T129 -11Z" />
<glyph unicode="i" horiz-adv-x="260" d="M127 603Q105 603 89 619T73 657Q73 680 89 695T127 711Q150 711 165 696T181 657Q181 635 166 619T127 603ZM171 114Q171 85 173 57T184 7Q178 2 167 -4T138 -11Q119 -11 106 1T93 33L92 396Q92 425 90 453T79 503Q85
508 96 514T125 521Q145 521 157 510T170 477L171 114Z" />
<glyph unicode="j" horiz-adv-x="260" d="M28 -232Q-27 -232 -53 -210T-80 -152Q-80 -135 -69 -120T-35 -104Q-25 -104 -20 -107T-10 -118Q-14 -126 -16 -135T-18 -152Q-18 -170 -11 -180T8 -193T29 -197Q59 -197 73 -176T91 -120T96 -39L97 395Q97 422 95 451T85
503Q93 510 104 515T130 521Q150 521 162 510T175 476L176 -53Q176 -85 170 -117T147 -175T101 -216T28 -232ZM132 608Q111 608 95 624T79 661Q79 683 95 698T132 714Q154 714 169 699T185 661Q185 640 170 624T132 608Z" />
<glyph unicode="k" horiz-adv-x="546" d="M127 -11Q101 -11 92 2T83 37L82 686Q82 707 95 718T128 730Q146 730 157 724T174 712Q169 690 167 671T164 633T163 596T161 555L160 343L154 351Q168 402 196 440T265 499T358 521Q419 521 450 490T482 407Q482 366
462 334T411 277T343 236Q354 231 362 221T380 197L439 91Q450 74 457 66T479 57Q484 57 492 59T507 70Q513 63 515 56T518 41Q518 18 498 4T451 -11Q426 -11 406 4T373 47L287 217Q254 205 221 196T161 179Q161 135 161 107T163 61T167 32T175 7Q168 1 157 -5T127
-11ZM161 215Q205 228 247 244T325 283T380 335T401 402Q401 441 382 457T331 474Q280 474 242 441T183 349T161 215Z" />
<glyph unicode="l" horiz-adv-x="270" d="M175 -10Q130 -10 105 19T80 101V686Q80 707 93 718T127 730Q144 730 155 724T173 712Q164 684 162 639T160 517V105Q160 80 169 66T198 52Q209 52 219 57T235 73Q241 65 243 57T246 42Q246 19 225 5T175 -10Z" />
<glyph unicode="m" horiz-adv-x="872" d="M795 114Q795 88 797 59T808 7Q800 0 789 -5T762 -11Q742 -11 729 1T716 33V303Q716 356 708 395T680 455T621 477Q599 477 576 465T534 426T501 357T487 254L488 114Q488 88 490 59T500 7Q493 0 482 -5T455 -11Q436 -11
424 1T411 33L410 303Q410 388 390 432T312 477Q289 477 266 464T225 423T194 348T182 235Q182 177 182 139T183 77T187 37T196 7Q190 2 179 -4T150 -11Q130 -11 117 2T104 37L103 405Q103 431 94 444T68 458Q59 458 51 453T37 437Q26 451 26 468Q26 492 44 506T88
520Q128 520 151 493T174 409V342L165 357Q179 432 224 476T335 521Q407 521 443 479T485 355L473 359Q481 408 504 444T563 501T643 521Q722 521 758 468T795 313V114Z" />
<glyph unicode="n" horiz-adv-x="574" d="M139 -11Q118 -11 105 2T92 37V406Q91 435 85 446T64 458Q59 458 51 455T38 442Q26 457 26 474Q26 494 42 507T86 520Q124 520 144 495T164 417V347L149 329Q155 389 179 432T244 498T336 521Q419 521 458 468T497 313V114Q498
88 500 59T510 7Q502 0 491 -5T464 -11Q444 -11 431 1T417 33V303Q416 387 394 430T313 474Q288 474 264 462T218 423T184 350T171 241Q171 181 171 142T173 78T177 37T185 7Q179 2 168 -4T139 -11Z" />
<glyph unicode="o" horiz-adv-x="547" d="M273 -13Q165 -13 105 57T44 254Q44 380 104 450T273 521Q382 521 442 451T503 254Q503 128 443 58T273 -13ZM273 23Q343 23 380 83T417 254Q417 365 380 424T273 484Q204 484 167 425T129 254Q129 143 166 83T273 23Z" />
<glyph unicode="p" horiz-adv-x="563" d="M346 521Q400 521 434 498T486 439T512 360T519 278Q519 140 464 64T308 -13Q257 -13 222 8T171 67V-55Q171 -76 172 -104T176 -159T184 -206Q178 -211 167 -217T138 -224Q118 -224 105 -213T91 -180L92 404Q92 432 86
443T64 455Q59 455 51 453T38 440Q32 449 29 457T26 472Q26 492 42 504T86 517Q129 517 148 484T167 390V299L145 288Q152 338 167 380T207 454T266 503T346 521ZM326 472Q289 472 261 451T212 394T182 310T172 211Q172 175 177 143T195 87T231 48T290 34Q360 34
397 95T434 277Q434 311 430 346T415 409T383 454T326 472Z" />
<glyph unicode="q" horiz-adv-x="540" d="M420 -224Q403 -225 392 -219T374 -206Q381 -183 383 -155T386 -93T387 -25V115Q375 78 351 49T293 3T218 -14Q164 -14 125 12T65 95T44 239Q44 278 51 318T73 394T114 459T177 504T266 521Q332 521 385 502T467 454V-180Q467
-199 455 -211T420 -224ZM237 34Q270 34 295 50T337 92T366 149T382 212T388 271V443Q373 457 341 468T270 480Q233 480 208 465T168 425T144 367T132 301T129 236Q130 134 156 84T237 34Z" />
<glyph unicode="r" horiz-adv-x="441" d="M138 -9Q120 -9 106 3T92 38V406Q92 435 86 446T64 458Q59 458 51 455T38 442Q26 457 26 474Q26 494 42 507T86 520Q124 520 144 493T163 411V345H151Q161 432 199 476T296 521Q347 521 379 494T411 417Q411 384 393 363T352
341Q328 340 317 351Q329 370 332 384T336 415Q336 447 321 462T278 477Q251 477 227 454T187 380T172 241Q172 182 172 143T173 80T177 39T185 9Q179 3 168 -3T138 -9Z" />
<glyph unicode="s" horiz-adv-x="468" d="M224 -13Q159 -13 118 3T57 47T38 108Q38 125 44 139T64 160T104 163Q101 153 101 144T102 121Q104 77 138 51T231 25Q286 25 321 45T356 104Q356 136 336 155T283 190T216 222Q177 240 141 260T82 312T58 393Q58 439
83 467T149 509T238 522Q320 522 366 496T412 422Q412 405 404 392T375 376Q368 374 361 374T346 376Q348 386 348 397T345 418Q341 451 312 468T235 485Q208 485 185 479T147 457T132 416Q132 383 150 362T198 325T261 293Q291 279 321 265T376 232T417 189T432
130Q432 97 414 64T350 9T224 -13Z" />
<glyph unicode="t" horiz-adv-x="339" d="M196 -11Q148 -11 122 18T95 100V596Q95 617 108 628T142 640Q160 640 171 634T188 622Q179 594 177 549T175 427V105Q175 80 187 66T223 51Q237 51 251 56T270 72Q276 64 278 56T281 40Q281 18 257 4T196 -11ZM21 462L22
485Q23 496 29 501T44 507H216Q220 507 232 507T258 508T285 509T301 510L300 488Q299 477 293 471T278 465H81Q71 465 51 465T21 462Z" />
<glyph unicode="u" horiz-adv-x="566" d="M428 521Q448 521 461 509T474 473L475 103Q475 75 481 64T503 52Q508 52 516 55T529 67Q541 52 541 36Q541 16 526 3T481 -10Q443 -10 423 15T403 92V163L418 181Q412 120 388 77T324 11T235 -13Q155 -13 117 34T78 197V395Q78
422 76 451T65 503Q74 509 84 515T112 521Q132 521 144 510T157 476L158 207Q158 144 167 105T199 49T258 31Q282 31 306 44T350 85T383 158T396 269Q396 329 396 368T394 431T390 472T382 503Q388 508 399 514T428 521Z" />
<glyph unicode="v" horiz-adv-x="487" d="M240 -11Q224 -11 211 -4T193 19L35 449Q32 457 26 472T12 495Q19 502 30 508T59 514Q77 514 90 506T107 481L258 21L245 22L384 451Q386 458 387 466T389 483Q389 490 389 496T384 506Q393 510 402 512T424 514Q448 514
459 505T470 477Q470 469 468 457T461 432L294 2Q266 -11 240 -11Z" />
<glyph unicode="w" horiz-adv-x="781" d="M221 -11Q206 -11 194 -4T175 19L40 449Q37 457 31 472T16 495Q23 502 34 508T63 514Q82 514 94 506T111 481L234 46L339 451Q341 457 342 466T344 483Q344 490 343 496T339 506Q351 511 366 513T393 516Q409 516 423
511T444 490L561 46L673 451Q675 458 676 466T678 483Q678 490 677 496T673 506Q682 510 691 512T713 514Q737 514 748 505T759 477Q759 469 757 457T750 432L605 2Q591 -4 578 -7T551 -11Q536 -11 522 -4T503 19L393 431L280 2Q265 -4 251 -7T221 -11Z" />
<glyph unicode="x" horiz-adv-x="501" d="M418 -14Q393 -14 375 -3T344 27T315 73L219 243L123 410Q111 430 101 439T79 449Q65 449 58 440T50 419Q36 423 27 434T18 461Q18 483 37 502T93 521Q118 521 134 511T165 482T194 434L278 283L386 96Q396 79 407 69T432
58Q444 58 451 68T459 88Q472 84 481 73T491 45Q491 24 472 5T418 -14ZM73 -13Q57 -13 44 -2T27 36Q50 43 68 61T106 109L227 280L259 235L114 11Q107 1 97 -6T73 -13ZM278 247L245 290L380 495Q386 506 396 513T422 521Q442 521 453 509T468 471Q444 462 426 442T390
397L278 247Z" />
<glyph unicode="y" horiz-adv-x="546" d="M240 -233Q197 -233 158 -223T94 -189T69 -125Q69 -97 85 -78T129 -59Q156 -59 168 -74Q153 -83 148 -97T143 -121Q143 -149 157 -166T194 -191T240 -199Q323 -199 361 -136T400 48Q400 65 401 87T404 132T407 175L418
191Q408 99 361 45T230 -9Q155 -9 117 38T78 201V395Q78 423 76 451T65 503Q74 509 84 515T112 521Q132 521 144 510T157 476L158 211Q158 120 179 78T251 36Q279 36 304 49T351 90T384 163T396 274Q396 333 396 371T394 433T390 473T382 503Q388 508 399 514T428
521Q448 521 461 509T474 473L475 49Q475 -56 445 -118T361 -206T240 -233Z" />
<glyph unicode="z" horiz-adv-x="490" d="M48 -7L36 12Q36 29 40 43T57 71L377 464L389 452L168 443Q138 442 123 430T102 402Q98 388 100 376T110 354Q105 352 99 352T86 354Q60 361 47 383T34 426Q34 462 64 487T159 512L333 508Q364 508 387 509T426 515L437
495Q437 476 434 461T416 428L108 46L95 63L323 68Q360 69 378 84T400 120Q404 135 401 149T389 171Q404 172 414 170Q434 165 445 151T460 121T465 91Q465 50 433 24T342 -3L142 0Q121 0 96 -1T48 -7Z" />
<glyph unicode="{" horiz-adv-x="382" d="M270 -174Q203 -174 161 -140T119 -30Q119 11 127 65T135 172Q135 217 120 237T68 272V304Q107 319 121 342T135 408Q135 464 127 513T119 601Q119 677 161 711T270 746Q299 746 320 741T348 731Q352 730 352 723T351
710T342 702Q331 705 319 706T295 708Q250 708 225 685T199 608Q199 572 207 521T216 416Q216 353 201 326T165 291V285Q187 278 201 249T216 162Q216 129 212 94T203 25T199 -34Q199 -85 224 -111T295 -137Q307 -137 319 -135T342 -130Q348 -131 350 -137T353
-151T348 -160Q342 -164 321 -169T270 -174Z" />
<glyph unicode="|" horiz-adv-x="290" d="M107 -137V730H183V-137H107Z" />
<glyph unicode="}" horiz-adv-x="382" d="M111 -174Q83 -174 62 -169T33 -160Q30 -158 30 -151T31 -138T39 -130Q50 -133 62 -135T87 -137Q132 -137 157 -111T183 -34Q183 -9 179 24T171 93T166 162Q166 219 180 248T217 285V291Q197 298 182 325T166 416Q166
469 174 520T183 608Q183 661 158 684T87 708Q75 708 63 707T39 702Q34 704 32 710T29 723T33 731Q40 736 61 741T111 746Q180 746 221 712T262 601Q262 563 254 514T246 408Q246 366 260 343T313 304V272Q278 258 262 238T246 172Q246 119 254 65T262 -30Q262
-105 221 -139T111 -174Z" />
<glyph unicode="~" horiz-adv-x="512" d="M441 387Q435 349 411 323T350 297Q320 297 297 305T254 325T213 345T165 353Q140 353 124 340T100 306Q93 305 85 309T70 317Q75 349 90 368T127 395T171 404Q200 404 223 396T266 377T309 357T358 349Q383 349 393 363T412
396Q431 396 441 387Z" />
<glyph unicode="&#xa0;" horiz-adv-x="240" />
<glyph unicode="&#xa1;" horiz-adv-x="290" d="M98 -211Q121 -218 145 -218T192 -211L176 326H117L98 -211ZM145 520Q167 520 182 504T198 466Q198 444 183 428T145 411Q122 411 106 427T90 466Q90 488 106 504T145 520Z" />
<glyph unicode="&#xa2;" horiz-adv-x="508" d="M378 -52Q360 -57 355 -36L182 644Q175 673 168 694T155 727Q158 731 161 734T172 739Q189 744 196 723L369 43Q375 14 382 -7T395 -40Q392 -43 389 -46T378 -52ZM278 85Q169 85 108 152T46 349Q46 474 108 546T286
618Q368 618 411 583T455 492Q455 457 437 436T389 414Q376 414 363 418T342 434Q359 441 367 457T375 498Q375 528 362 547T326 574T278 583Q213 583 172 527T131 361Q131 279 154 231T215 161T299 140Q335 140 365 151T416 186T446 245Q456 241 460 230T456 193Q440
140 392 113T278 85Z" />
<glyph unicode="&#xa3;" horiz-adv-x="509" d="M184 508Q184 466 189 429T198 353T203 270Q203 217 191 176T154 102T86 37Q186 37 279 49T465 85Q470 78 472 67T474 44Q474 28 467 14T444 0H38V29Q71 76 90 110T117 177T126 250Q126 286 121 327T111 408T106
482Q106 549 123 592T170 658T234 691T305 700Q372 700 407 671T443 606Q443 579 431 571T404 562Q394 562 387 564Q387 614 361 639T299 665Q269 665 243 653T201 608T184 508ZM28 287L29 309Q30 320 36 326T52 332H279Q283 332 295 332T323 333T351 334T368 335L367
312Q366 302 360 296T344 289H88Q78 289 58 289T28 287Z" />
<glyph unicode="&#xa4;" horiz-adv-x="571" d="M286 158Q229 158 182 185T106 259T77 365Q77 423 105 469T180 543T285 570Q343 570 390 543T465 470T493 364Q493 306 465 259T390 185T286 158ZM285 207Q326 207 359 227T413 283T433 364Q433 409 413 444T360
500T285 521Q245 521 211 501T157 445T137 364Q137 319 157 284T211 228T285 207ZM149 477L121 502Q99 523 83 538T55 559Q56 565 58 570T67 582Q75 590 83 590T98 582L177 504L149 477ZM427 472L398 500L425 528Q445 550 460 567T482 594Q487 593 492 591T504
583Q512 574 512 566T504 551L427 472ZM474 145L394 222L422 250L450 225Q471 204 488 189T516 167Q515 161 513 156T505 145Q497 137 489 137T474 145ZM89 133Q84 135 79 137T67 144Q59 153 59 160T66 175L144 255L173 226L146 199Q125 177 110 161T89 133Z" />
<glyph unicode="&#xa5;" horiz-adv-x="550" d="M88 239L89 261Q90 272 96 278T111 284H353Q356 284 367 284T392 284T422 285T447 285T461 287L460 264Q459 254 453 248T438 242H148Q138 242 118 241T88 239ZM88 216L89 238Q90 249 96 255T111 261H353Q356 261
367 261T392 261T422 262T447 262T461 264L460 241Q459 231 453 225T438 218H148Q138 218 118 218T88 216ZM273 228Q260 229 252 235T237 250T226 267L47 631Q42 641 33 654T13 678Q20 686 35 695T71 704Q94 704 105 692T126 660L304 278L270 264L445 636Q455 658
455 671Q455 678 453 684T448 696Q457 700 466 702T492 704Q512 704 521 693T532 665Q532 655 527 641T512 613L313 242L273 228ZM317 277V114Q317 85 319 57T330 7Q324 2 313 -4T284 -11Q264 -11 251 1T238 33L237 266L317 277Z" />
<glyph unicode="&#xa6;" horiz-adv-x="290" d="M107 -137V219H183V-137H107ZM107 373V729H183V373H107Z" />
<glyph unicode="&#xa7;" horiz-adv-x="467" d="M224 -99Q158 -99 117 -83T57 -39T38 23Q38 40 44 53T64 74T103 77Q100 67 100 57T100 35Q103 -9 137 -35T230 -62Q286 -62 321 -42T357 18Q357 50 337 70T284 105T215 136Q177 155 141 175T82 226T58 307Q58 360
87 390T162 433Q119 457 89 489T58 577Q58 624 83 652T149 693T237 706Q319 706 365 680T411 605Q411 589 403 576T375 560Q368 558 361 558T347 560Q349 571 349 581T345 602Q342 635 313 652T234 669Q207 669 184 663T145 641T130 600Q130 567 148 545T196 508T260
476Q290 462 320 448T375 415T416 373T432 313Q432 288 421 261T384 213T309 182Q342 167 369 149T414 105T432 43Q432 10 413 -23T349 -77T224 -99ZM256 209Q283 208 305 216T342 242T357 288Q357 317 338 336T288 372T222 404Q181 406 156 387T130 329Q130 298
148 277T196 240T256 209Z" />
<glyph unicode="&#xa8;" horiz-adv-x="600" d="M207 586Q188 586 174 600T159 633Q159 653 173 666T207 680Q226 680 240 666T254 633Q254 614 240 600T207 586ZM380 586Q362 586 348 600T334 633Q334 653 348 666T380 680Q400 680 414 666T428 633Q428 614 414
600T380 586Z" />
<glyph unicode="&#xa9;" horiz-adv-x="822" d="M412 -12Q337 -12 272 16T158 93T81 208T53 348Q53 423 81 487T158 601T272 678T412 706Q486 706 551 678T665 601T742 487T770 348Q770 274 742 209T665 94T551 16T412 -12ZM414 127Q329 127 281 184T232 348Q232
456 281 512T418 569Q455 569 486 561T536 539T555 506Q555 495 544 485T511 476Q506 509 482 526T419 543Q358 543 326 494T294 348Q294 252 325 203T417 153Q455 153 485 173T524 232Q541 235 554 229T568 205Q568 184 546 166T489 138T414 127ZM411 25Q478 25
535 50T637 119T706 222T731 348Q731 415 706 473T637 575T536 644T411 669Q344 669 287 644T185 575T116 473T91 349Q91 281 115 222T184 119T286 50T411 25Z" />
<glyph unicode="&#xaa;" horiz-adv-x="382" d="M325 361Q310 361 297 367T274 385T263 413T268 450L271 510L276 496Q266 457 243 426T188 378T118 360Q78 360 55 381T31 437Q31 466 46 487T88 523T146 546Q175 554 205 556T261 558V575Q261 631 242 659T175 687Q159
687 144 682T118 666T108 636Q108 623 114 609T135 588Q129 581 120 578T101 574Q76 574 62 592T47 633Q47 673 83 693T180 714Q254 714 288 680T322 571V444Q322 410 346 410Q350 410 357 413T367 421Q372 415 373 409T375 399Q375 382 361 372T325 361ZM145 404Q171
405 198 423T243 470T262 534Q238 535 209 533T157 521Q128 511 112 494T96 451Q96 433 107 418T145 404Z" />
<glyph unicode="&#xab;" horiz-adv-x="672" d="M620 439L346 243V238L621 46L595 13L268 214Q266 219 266 229T265 251T268 266L596 474L620 439ZM382 439L108 243V238L383 46L357 13L30 214Q28 219 28 229T27 251T30 266L358 474L382 439Z" />
<glyph unicode="&#xac;" horiz-adv-x="554" d="M71 337Q62 361 71 386H467V337H71ZM420 229V377H467V229Q443 219 420 229Z" />
<glyph unicode="&#xad;" horiz-adv-x="399" d="M48 283H350V231H48V283Z" />
<glyph unicode="&#xae;" horiz-adv-x="822" d="M412 -12Q337 -12 272 16T158 93T81 208T53 348Q53 423 81 487T158 601T272 678T412 706Q486 706 551 678T665 601T742 487T770 348Q770 274 742 209T665 94T551 16T412 -12ZM411 25Q477 25 535 50T637 119T706 222T731
348Q731 414 706 472T637 575T535 644T411 669Q344 669 287 644T185 575T116 473T91 348Q91 281 115 222T184 119T286 50T411 25ZM299 124Q285 124 277 132T267 154V497Q267 503 267 515T264 542T258 566Q269 571 292 575T360 580Q462 580 510 552T559 459Q559
405 519 372T417 335L420 344Q463 345 484 325T519 277L554 203Q564 185 571 177T588 169Q592 168 598 170T609 177Q613 167 613 159Q613 144 600 135T569 125Q552 125 539 134T517 157T498 190L466 263Q458 282 449 295T423 316T377 324L315 325L308 352Q322 351
339 351T379 350Q413 351 440 364T482 400T498 455Q498 503 467 528T362 554Q351 554 340 554T325 553V204Q325 191 326 171T333 137Q330 134 321 129T299 124Z" />
<glyph unicode="&#xaf;" horiz-adv-x="600" d="M155 643H412Q420 621 412 600H155Q147 621 155 643Z" />
<glyph unicode="&#xb0;" horiz-adv-x="369" d="M185 465Q150 465 122 481T76 524T59 586Q59 619 76 646T122 689T185 706Q220 706 248 690T293 646T310 586Q310 552 294 525T249 481T185 465ZM185 508Q216 508 238 531T261 586Q261 618 239 640T185 662Q154 662
132 640T109 586Q109 554 131 531T185 508Z" />
<glyph unicode="&#xb1;" horiz-adv-x="577" d="M91 397H486Q496 372 486 348H91Q82 372 91 397ZM313 520V224Q288 216 264 225L263 520Q288 529 313 520ZM91 169H486Q496 144 486 120H91Q82 144 91 169Z" />
<glyph unicode="&#xb2;" horiz-adv-x="386" d="M42 236Q36 242 33 253T33 277Q56 295 87 318T151 371T210 433T255 504T272 584Q272 620 251 649T183 678Q148 678 130 660T104 616T94 569Q74 569 62 576T46 594T41 615Q41 637 58 658T109 692T188 706Q230 706
265 693T321 651T342 579Q342 536 324 496T275 421T210 358T140 308T81 273Q111 274 148 277T223 286T296 297T354 310Q360 306 363 295T366 270T362 247T350 236H42Z" />
<glyph unicode="&#xb3;" horiz-adv-x="403" d="M192 228Q143 228 112 237T65 259T42 286T35 308Q35 317 39 326T53 341T83 348Q85 337 89 321T103 290T134 265T188 255Q239 255 267 282T295 354Q295 396 271 420T210 455T129 466V493Q180 496 213 511T261 551T277
601Q277 635 258 656T195 678Q160 678 140 663T113 627T104 587Q83 587 73 592T59 606T56 621Q56 641 71 660T119 693T200 706Q225 706 251 701T299 683T336 650T350 597Q350 553 318 523T234 481Q291 471 329 444T368 361Q368 299 320 264T192 228Z" />
<glyph unicode="&#xb4;" horiz-adv-x="600" d="M385 701L251 563Q243 563 231 564T215 570L306 720Q318 721 334 718T365 711T385 701Z" />
<glyph unicode="&#xb5;" horiz-adv-x="573" d="M239 -13Q160 -13 122 34T83 197L82 395Q82 422 80 451T70 503Q78 509 89 515T116 521Q136 521 149 510T162 476V207Q162 144 171 105T203 49T263 31Q287 31 310 44T354 85T387 158T400 269Q400 329 400 368T399
431T395 472T386 503Q392 508 403 514T433 521Q452 521 465 509T478 473L479 103Q479 75 486 64T507 52Q513 52 521 55T534 67Q545 52 545 36Q545 16 530 3T486 -10Q447 -10 428 15T408 92V163L422 181Q417 120 393 77T329 11T239 -13ZM129 -222Q108 -222 95 -211T82
-178L83 265L154 64V-67Q154 -88 156 -114T163 -164T175 -204Q169 -210 158 -216T129 -222Z" />
<glyph unicode="&#xb6;" horiz-adv-x="711" d="M591 -195Q576 -195 561 -184T536 -150T526 -98V422Q526 502 504 556T436 638T322 666Q264 666 227 649T168 602T139 540T130 475Q130 408 156 367T225 312T320 309L316 268Q268 258 221 266T135 300T74 369T50 474Q50
499 56 529T77 591T123 648T202 690T322 706Q460 706 532 636T605 426V-46Q605 -81 610 -108T624 -150T646 -169Q640 -182 625 -188T591 -195ZM344 -11Q324 -11 312 1T299 33L298 419Q298 449 296 477T285 527Q291 532 302 538T331 545Q349 545 360 534T372 500L373
114Q373 85 375 57T386 7Q381 2 370 -4T344 -11Z" />
<glyph unicode="&#xb7;" horiz-adv-x="268" d="M134 216Q112 216 96 232T80 270Q80 292 96 308T134 324Q157 324 172 308T188 270Q188 248 173 232T134 216Z" />
<glyph unicode="&#xb8;" horiz-adv-x="600" d="M307 8L296 -48Q341 -48 366 -67T391 -121Q391 -159 363 -183T287 -207Q250 -207 230 -197T199 -175Q197 -167 201 -157T211 -144Q217 -149 230 -158T271 -167Q294 -167 307 -156T321 -122Q321 -101 306 -87T249
-77L265 8H307Z" />
<glyph unicode="&#xb9;" horiz-adv-x="316" d="M203 231Q188 231 178 240T168 267L167 612Q167 622 167 629T165 644Q150 631 129 614T90 583T62 569Q51 569 46 575T38 589T35 604T34 613Q36 614 47 621T75 640T110 662T143 684T166 700Q171 702 177 704T192 706Q209
706 219 696T230 668L231 324Q230 305 232 285T240 246Q236 242 227 237T203 231Z" />
<glyph unicode="&#xba;" horiz-adv-x="380" d="M189 358Q114 358 72 405T30 536Q30 620 72 667T189 714Q265 714 307 667T349 536Q349 452 307 405T189 358ZM190 385Q236 385 260 424T285 536Q285 610 261 648T190 686Q143 686 119 648T95 536Q95 463 119 424T190 385Z" />
<glyph unicode="&#xbb;" horiz-adv-x="672" d="M290 439L314 474L643 266Q644 262 645 251T646 230T643 214L315 13L290 46L564 238V243L290 439ZM52 439L77 474L405 266Q406 262 407 251T408 230T405 214L77 13L52 46L326 238V243L52 439Z" />
<glyph unicode="&#xbc;" horiz-adv-x="969" d="M203 231Q188 231 178 240T168 267L167 612Q167 622 167 629T165 644Q150 631 129 614T90 583T62 569Q51 569 46 575T38 589T35 604T34 613Q36 614 47 621T75 640T110 662T143 684T166 700Q171 702 177 704T192 706Q209
706 219 696T230 668L231 324Q230 305 232 285T240 246Q236 242 227 237T203 231ZM597 706Q612 708 625 704T646 685L254 -13Q240 -15 228 -11T207 5L597 706ZM875 86Q875 67 877 47T884 7Q881 3 871 -2T847 -8Q832 -8 822 2T812 29L811 404L620 158H836Q862 158
888 160T941 168Q948 156 947 142T938 116H590Q575 121 572 134T575 157L800 451Q805 457 815 462T837 467Q853 467 863 458T874 430L875 86Z" />
<glyph unicode="&#xbd;" horiz-adv-x="943" d="M203 231Q188 231 178 240T168 267L167 612Q167 622 167 629T165 644Q150 631 129 614T90 583T62 569Q51 569 46 575T38 589T35 604T34 613Q36 614 47 621T75 640T110 662T143 684T166 700Q171 702 177 704T192 706Q209
706 219 696T230 668L231 324Q230 305 232 285T240 246Q236 242 227 237T203 231ZM597 706Q612 708 625 704T646 685L254 -13Q240 -15 228 -11T207 5L597 706ZM592 0Q585 5 582 16T582 40Q606 59 637 82T701 134T760 197T804 268T821 348Q821 384 800 413T733 442Q698
442 679 424T653 380T644 333Q623 333 612 340T595 358T590 379Q590 401 608 422T659 456T738 469Q780 469 814 456T870 415T892 343Q892 300 874 260T825 185T759 122T690 72T631 37Q660 37 697 40T772 49T845 61T903 74Q909 70 912 58T915 33T912 11T900 0H592Z"
/>
<glyph unicode="&#xbe;" horiz-adv-x="1056" d="M192 228Q143 228 112 237T65 259T42 286T35 308Q35 317 39 326T53 341T83 348Q85 337 89 321T103 290T134 265T188 255Q239 255 267 282T295 354Q295 396 271 420T210 455T129 466V493Q180 496 213 511T261 551T277
601Q277 635 258 656T195 678Q160 678 140 663T113 627T104 587Q83 587 73 592T59 606T56 621Q56 641 71 660T119 693T200 706Q225 706 251 701T299 683T336 650T350 597Q350 553 318 523T234 481Q291 471 329 444T368 361Q368 299 320 264T192 228ZM684 706Q699
708 712 704T733 685L341 -13Q327 -15 315 -11T294 5L684 706ZM962 86Q962 67 964 47T971 7Q968 3 958 -2T934 -8Q919 -8 909 2T899 29L898 404L707 158H923Q949 158 975 160T1028 168Q1035 156 1034 142T1025 116H677Q662 121 659 134T662 157L887 451Q892 457
902 462T924 467Q940 467 950 458T961 430L962 86Z" />
<glyph unicode="&#xbf;" horiz-adv-x="485" d="M328 336V184Q295 184 260 172T194 136T144 76T125 -9Q125 -55 142 -94T193 -155T282 -178Q321 -178 346 -164T386 -129T408 -83T416 -39Q441 -39 454 -45T474 -61T480 -85Q480 -114 457 -144T387 -195T275 -215Q229
-215 187 -204T112 -169T59 -105T40 -9Q40 44 59 85T110 155T183 202T266 223V336H328ZM310 529Q333 529 349 514T365 475Q365 453 349 437T310 421Q289 421 273 437T257 475Q257 498 273 513T310 529Z" />
<glyph unicode="&#xc0;" horiz-adv-x="592" d="M319 706Q336 706 349 700T367 676L568 55Q572 43 578 31T592 8Q586 1 575 -5T545 -11Q527 -11 513 -3T495 22L294 674L307 673L121 53Q119 45 117 37T115 20Q115 13 116 7T121 -3Q112 -6 102 -8T77 -11Q55 -11 43
-2T32 26Q32 34 35 46T41 71L253 693Q286 706 319 706ZM154 268H471V220H154V268ZM159 818Q164 829 173 840T192 860T212 874L348 760Q348 756 343 747T332 736L159 818Z" />
<glyph unicode="&#xc1;" horiz-adv-x="592" d="M319 706Q336 706 349 700T367 676L568 55Q572 43 578 31T592 8Q586 1 575 -5T545 -11Q527 -11 513 -3T495 22L294 674L307 673L121 53Q119 45 117 37T115 20Q115 13 116 7T121 -3Q112 -6 102 -8T77 -11Q55 -11 43
-2T32 26Q32 34 35 46T41 71L253 693Q286 706 319 706ZM154 268H471V220H154V268ZM454 818L281 736Q276 738 271 747T265 760L401 874Q411 870 421 861T441 840T454 818Z" />
<glyph unicode="&#xc2;" horiz-adv-x="592" d="M319 706Q336 706 349 700T367 676L568 55Q572 43 578 31T592 8Q586 1 575 -5T545 -11Q527 -11 513 -3T495 22L294 674L307 673L121 53Q119 45 117 37T115 20Q115 13 116 7T121 -3Q112 -6 102 -8T77 -11Q55 -11 43
-2T32 26Q32 34 35 46T41 71L253 693Q286 706 319 706ZM154 268H471V220H154V268ZM331 868L457 754Q456 750 450 742T437 732L306 810L174 732Q169 734 163 742T154 754L280 868Q286 870 296 870T315 871T331 868Z" />
<glyph unicode="&#xc3;" horiz-adv-x="592" d="M319 706Q336 706 349 700T367 676L568 55Q572 43 578 31T592 8Q586 1 575 -5T545 -11Q527 -11 513 -3T495 22L294 674L307 673L121 53Q119 45 117 37T115 20Q115 13 116 7T121 -3Q112 -6 102 -8T77 -11Q55 -11 43
-2T32 26Q32 34 35 46T41 71L253 693Q286 706 319 706ZM154 268H471V220H154V268ZM451 836Q444 800 423 777T369 754Q345 754 324 764T284 785T242 796Q218 796 205 786T184 756Q179 755 172 758T160 766Q167 813 191 832T246 851Q272 851 292 841T333 820T377
809Q399 809 409 819T427 845Q436 845 441 843T451 836Z" />
<glyph unicode="&#xc4;" horiz-adv-x="592" d="M319 706Q336 706 349 700T367 676L568 55Q572 43 578 31T592 8Q586 1 575 -5T545 -11Q527 -11 513 -3T495 22L294 674L307 673L121 53Q119 45 117 37T115 20Q115 13 116 7T121 -3Q112 -6 102 -8T77 -11Q55 -11 43
-2T32 26Q32 34 35 46T41 71L253 693Q286 706 319 706ZM154 268H471V220H154V268ZM217 758Q196 758 181 773T166 809Q166 830 181 845T217 860Q238 860 253 845T268 809Q268 788 253 773T217 758ZM402 758Q381 758 366 773T351 809Q351 830 366 845T402 860Q423
860 438 845T453 809Q453 788 438 773T402 758Z" />
<glyph unicode="&#xc5;" horiz-adv-x="592" d="M319 706Q336 706 349 700T367 676L568 55Q572 43 578 31T592 8Q586 1 575 -5T545 -11Q527 -11 513 -3T495 22L294 674L307 673L121 53Q119 45 117 37T115 20Q115 13 116 7T121 -3Q112 -6 102 -8T77 -11Q55 -11 43
-2T32 26Q32 34 35 46T41 71L253 693Q286 706 319 706ZM154 268H471V220H154V268ZM312 906Q352 906 376 884T401 825Q400 786 375 764T308 741Q268 741 244 763T219 821Q219 860 245 883T312 906ZM310 877Q289 877 276 863T263 823Q263 798 276 784T310 769Q332
769 344 783T357 823Q357 849 345 863T310 877Z" />
<glyph unicode="&#xc6;" horiz-adv-x="836" d="M80 -11Q57 -11 44 0T32 30Q32 49 44 71L369 682Q383 685 403 687T445 691T483 693H762Q772 693 775 684T776 661T768 637T754 622Q691 633 623 640T484 648L485 44Q534 45 585 49T684 60T772 72Q781 67 785 56T789
32T784 10T769 0H451Q431 0 419 12T406 45L404 569Q404 582 404 594T401 620L122 53Q119 45 118 37T116 20Q116 13 117 7T122 -3Q113 -6 104 -8T80 -11ZM196 220V268H427V220H196ZM470 340V388H730Q733 376 733 364T730 340H470Z" />
<glyph unicode="&#xc7;" horiz-adv-x="596" d="M547 113Q547 88 529 65T480 25T408 -3T324 -13Q199 -13 129 79T59 346Q59 521 130 613T329 706Q369 706 405 698T468 677T512 645T528 605Q528 587 511 573T463 561Q455 614 421 641T330 669Q241 669 195 588T148
346Q148 186 194 105T328 24Q364 24 395 38T449 82T480 153Q497 155 512 152T537 139T547 113ZM335 8L324 -48Q369 -48 394 -67T419 -121Q419 -159 391 -183T315 -207Q278 -207 258 -197T227 -175Q225 -167 229 -157T239 -144Q245 -149 258 -158T299 -167Q322 -167
335 -156T349 -122Q349 -101 334 -87T277 -77L293 8H335Z" />
<glyph unicode="&#xc8;" horiz-adv-x="537" d="M143 0Q123 0 110 12T97 45L96 569Q96 599 94 624T83 672Q97 685 111 689T152 693H454Q463 693 466 684T468 661T460 637T446 622Q381 633 314 640T176 648L177 44Q225 45 276 49T376 60T464 72Q472 67 476 56T481
32T476 10T461 0H143ZM161 340V388H422Q425 376 425 364T422 340H161ZM129 818Q134 829 143 840T162 860T182 874L318 760Q318 756 313 747T302 736L129 818Z" />
<glyph unicode="&#xc9;" horiz-adv-x="537" d="M143 0Q123 0 110 12T97 45L96 569Q96 599 94 624T83 672Q97 685 111 689T152 693H454Q463 693 466 684T468 661T460 637T446 622Q381 633 314 640T176 648L177 44Q225 45 276 49T376 60T464 72Q472 67 476 56T481
32T476 10T461 0H143ZM161 340V388H422Q425 376 425 364T422 340H161ZM424 818L251 736Q246 738 241 747T235 760L371 874Q381 870 391 861T411 840T424 818Z" />
<glyph unicode="&#xca;" horiz-adv-x="537" d="M143 0Q123 0 110 12T97 45L96 569Q96 599 94 624T83 672Q97 685 111 689T152 693H454Q463 693 466 684T468 661T460 637T446 622Q381 633 314 640T176 648L177 44Q225 45 276 49T376 60T464 72Q472 67 476 56T481
32T476 10T461 0H143ZM161 340V388H422Q425 376 425 364T422 340H161ZM301 868L427 754Q426 750 420 742T407 732L276 810L144 732Q139 734 133 742T124 754L250 868Q256 870 266 870T285 871T301 868Z" />
<glyph unicode="&#xcb;" horiz-adv-x="537" d="M143 0Q123 0 110 12T97 45L96 569Q96 599 94 624T83 672Q97 685 111 689T152 693H454Q463 693 466 684T468 661T460 637T446 622Q381 633 314 640T176 648L177 44Q225 45 276 49T376 60T464 72Q472 67 476 56T481
32T476 10T461 0H143ZM161 340V388H422Q425 376 425 364T422 340H161ZM187 758Q166 758 151 773T136 809Q136 830 151 845T187 860Q208 860 223 845T238 809Q238 788 223 773T187 758ZM372 758Q351 758 336 773T321 809Q321 830 336 845T372 860Q393 860 408 845T423
809Q423 788 408 773T372 758Z" />
<glyph unicode="&#xcc;" horiz-adv-x="273" d="M143 -11Q123 -11 110 1T97 33L96 577Q96 607 94 634T83 684Q89 690 101 696T130 702Q150 702 163 691T177 658V114Q177 85 179 57T190 7Q184 2 172 -4T143 -11ZM-21 818Q-16 829 -7 840T12 860T32 874L168 760Q168
756 163 747T152 736L-21 818Z" />
<glyph unicode="&#xcd;" horiz-adv-x="273" d="M143 -11Q123 -11 110 1T97 33L96 577Q96 607 94 634T83 684Q89 690 101 696T130 702Q150 702 163 691T177 658V114Q177 85 179 57T190 7Q184 2 172 -4T143 -11ZM275 818L102 736Q97 738 92 747T86 760L222 874Q232
870 242 861T262 840T275 818Z" />
<glyph unicode="&#xce;" horiz-adv-x="273" d="M143 -11Q123 -11 110 1T97 33L96 577Q96 607 94 634T83 684Q89 690 101 696T130 702Q150 702 163 691T177 658V114Q177 85 179 57T190 7Q184 2 172 -4T143 -11ZM151 868L277 754Q276 750 270 742T257 732L126 810L-6
732Q-11 734 -17 742T-26 754L100 868Q106 870 116 870T135 871T151 868Z" />
<glyph unicode="&#xcf;" horiz-adv-x="273" d="M143 -11Q123 -11 110 1T97 33L96 577Q96 607 94 634T83 684Q89 690 101 696T130 702Q150 702 163 691T177 658V114Q177 85 179 57T190 7Q184 2 172 -4T143 -11ZM38 758Q17 758 2 773T-13 809Q-13 830 2 845T38 860Q59
860 74 845T89 809Q89 788 74 773T38 758ZM223 758Q202 758 187 773T172 809Q172 830 187 845T223 860Q244 860 259 845T274 809Q274 788 259 773T223 758Z" />
<glyph unicode="&#xd0;" horiz-adv-x="637" d="M24 367H324Q331 349 324 330H24Q17 349 24 367ZM141 0Q120 0 108 12T95 44L93 577Q93 607 92 641T83 697Q110 700 148 701T224 703T291 704Q430 704 505 617T581 351Q581 166 506 83T295 0H141ZM174 37H291Q357
37 402 67T470 166T493 346Q493 513 442 589T291 666H173L174 37Z" />
<glyph unicode="&#xd1;" horiz-adv-x="682" d="M121 -11Q110 -11 101 -8T85 1Q92 24 94 54T97 114L96 572Q96 609 95 639T89 690Q96 697 109 699T135 700T151 695Q183 649 224 589T311 463T400 332T480 210T541 111L524 609Q522 643 529 666T551 698Q559 700 568
700T587 695Q586 681 587 661T589 623V113Q589 76 590 49T594 1Q589 -4 578 -7T556 -10T537 -6Q501 38 464 88T389 192T318 297T252 398T194 491T147 568L162 38Q163 16 150 3T121 -11ZM485 836Q478 800 457 777T403 754Q379 754 358 764T318 785T276 796Q252 796
239 786T218 756Q213 755 206 758T194 766Q201 813 225 832T280 851Q306 851 326 841T367 820T411 809Q433 809 443 819T461 845Q470 845 475 843T485 836Z" />
<glyph unicode="&#xd2;" horiz-adv-x="651" d="M325 -13Q197 -13 128 75T59 346Q59 528 128 617T325 706Q454 706 523 617T592 346Q592 164 523 76T325 -13ZM325 24Q413 24 458 101T503 346Q503 514 458 591T325 669Q239 669 194 592T148 346Q148 179 193 102T325
24ZM209 818Q214 829 223 840T242 860T262 874L398 760Q398 756 393 747T382 736L209 818Z" />
<glyph unicode="&#xd3;" horiz-adv-x="651" d="M325 -13Q197 -13 128 75T59 346Q59 528 128 617T325 706Q454 706 523 617T592 346Q592 164 523 76T325 -13ZM325 24Q413 24 458 101T503 346Q503 514 458 591T325 669Q239 669 194 592T148 346Q148 179 193 102T325
24ZM472 818L299 736Q294 738 289 747T283 760L419 874Q429 870 439 861T459 840T472 818Z" />
<glyph unicode="&#xd4;" horiz-adv-x="651" d="M325 -13Q197 -13 128 75T59 346Q59 528 128 617T325 706Q454 706 523 617T592 346Q592 164 523 76T325 -13ZM325 24Q413 24 458 101T503 346Q503 514 458 591T325 669Q239 669 194 592T148 346Q148 179 193 102T325
24ZM349 868L475 754Q474 750 468 742T455 732L324 810L192 732Q187 734 181 742T172 754L298 868Q304 870 314 870T333 871T349 868Z" />
<glyph unicode="&#xd5;" horiz-adv-x="651" d="M325 -13Q197 -13 128 75T59 346Q59 528 128 617T325 706Q454 706 523 617T592 346Q592 164 523 76T325 -13ZM325 24Q413 24 458 101T503 346Q503 514 458 591T325 669Q239 669 194 592T148 346Q148 179 193 102T325
24ZM469 836Q462 800 441 777T387 754Q363 754 342 764T302 785T260 796Q236 796 223 786T202 756Q197 755 190 758T178 766Q185 813 209 832T264 851Q290 851 310 841T351 820T395 809Q417 809 427 819T445 845Q454 845 459 843T469 836Z" />
<glyph unicode="&#xd6;" horiz-adv-x="651" d="M325 -13Q197 -13 128 75T59 346Q59 528 128 617T325 706Q454 706 523 617T592 346Q592 164 523 76T325 -13ZM325 24Q413 24 458 101T503 346Q503 514 458 591T325 669Q239 669 194 592T148 346Q148 179 193 102T325
24ZM235 758Q214 758 199 773T184 809Q184 830 199 845T235 860Q256 860 271 845T286 809Q286 788 271 773T235 758ZM420 758Q399 758 384 773T369 809Q369 830 384 845T420 860Q441 860 456 845T471 809Q471 788 456 773T420 758Z" />
<glyph unicode="&#xd7;" horiz-adv-x="494" d="M111 521L418 213Q408 190 384 178L76 486Q87 510 111 521ZM418 487L110 178Q86 190 76 213L384 522Q408 511 418 487Z" />
<glyph unicode="&#xd8;" horiz-adv-x="638" d="M85 4L505 715Q526 715 536 696L117 -14Q95 -14 85 4ZM325 -13Q197 -13 128 75T59 346Q59 528 128 617T325 706Q454 706 523 617T592 346Q592 164 523 76T325 -13ZM325 24Q413 24 458 101T503 346Q503 514 458 591T325
669Q239 669 194 592T148 346Q148 179 193 102T325 24Z" />
<glyph unicode="&#xd9;" horiz-adv-x="658" d="M573 658V305Q573 148 512 68T328 -13Q209 -13 150 64T91 305V577Q91 607 89 634T79 684Q85 690 96 696T125 702Q145 702 158 691T171 658V302Q171 157 209 91T328 24Q412 24 453 95T494 302V577Q494 607 492 634T481
684Q487 690 498 696T527 702Q547 702 560 691T573 658ZM180 818Q185 829 194 840T213 860T233 874L369 760Q369 756 364 747T353 736L180 818Z" />
<glyph unicode="&#xda;" horiz-adv-x="658" d="M573 658V305Q573 148 512 68T328 -13Q209 -13 150 64T91 305V577Q91 607 89 634T79 684Q85 690 96 696T125 702Q145 702 158 691T171 658V302Q171 157 209 91T328 24Q412 24 453 95T494 302V577Q494 607 492 634T481
684Q487 690 498 696T527 702Q547 702 560 691T573 658ZM475 818L302 736Q297 738 292 747T286 760L422 874Q432 870 442 861T462 840T475 818Z" />
<glyph unicode="&#xdb;" horiz-adv-x="658" d="M573 658V305Q573 148 512 68T328 -13Q209 -13 150 64T91 305V577Q91 607 89 634T79 684Q85 690 96 696T125 702Q145 702 158 691T171 658V302Q171 157 209 91T328 24Q412 24 453 95T494 302V577Q494 607 492 634T481
684Q487 690 498 696T527 702Q547 702 560 691T573 658ZM352 868L478 754Q477 750 471 742T458 732L327 810L195 732Q190 734 184 742T175 754L301 868Q307 870 317 870T336 871T352 868Z" />
<glyph unicode="&#xdc;" horiz-adv-x="658" d="M573 658V305Q573 148 512 68T328 -13Q209 -13 150 64T91 305V577Q91 607 89 634T79 684Q85 690 96 696T125 702Q145 702 158 691T171 658V302Q171 157 209 91T328 24Q412 24 453 95T494 302V577Q494 607 492 634T481
684Q487 690 498 696T527 702Q547 702 560 691T573 658ZM238 758Q217 758 202 773T187 809Q187 830 202 845T238 860Q259 860 274 845T289 809Q289 788 274 773T238 758ZM423 758Q402 758 387 773T372 809Q372 830 387 845T423 860Q444 860 459 845T474 809Q474
788 459 773T423 758Z" />
<glyph unicode="&#xdd;" horiz-adv-x="553" d="M273 228Q260 229 252 235T237 250T226 267L47 631Q42 641 33 654T13 678Q20 686 35 695T71 704Q94 704 105 692T126 660L304 278L270 264L445 636Q455 658 455 671Q455 678 453 684T448 696Q457 700 466 702T492
704Q512 704 521 693T532 665Q532 655 527 641T512 613L313 242L273 228ZM317 277V114Q317 85 319 57T330 7Q324 2 313 -4T284 -11Q264 -11 251 1T238 33L237 266L317 277ZM440 818L267 736Q262 738 257 747T251 760L387 874Q397 870 407 861T427 840T440 818Z"
/>
<glyph unicode="&#xde;" horiz-adv-x="558" d="M205 146Q192 146 182 146T161 147L154 184Q164 183 175 183T207 182Q283 182 330 203T400 265T423 367Q423 424 403 462T338 520T221 539Q215 539 201 539T174 540T155 539L156 574Q162 575 175 575T202 575T224
576Q370 576 440 527T510 372Q510 259 433 203T205 146ZM143 -11Q123 -11 110 1T97 33L96 577Q96 607 94 634T83 684Q89 690 101 696T130 702Q150 702 163 691T176 658L177 114Q177 85 179 57T190 7Q184 2 172 -4T143 -11Z" />
<glyph unicode="&#xdf;" horiz-adv-x="602" d="M126 -9Q107 -9 95 3T83 38L82 430Q82 588 141 659T312 730Q396 730 440 693T485 589Q485 550 472 524T441 478T403 444T371 413T358 376Q358 344 387 324T456 279Q484 263 509 244T550 198T567 132Q567 97 550 64T495
10T390 -12Q336 -12 302 3T253 46T237 106Q237 115 239 126T249 147T273 157Q279 158 283 158T292 156Q290 149 289 139T288 118Q288 88 300 69T334 40T383 30Q428 30 456 53T484 117Q484 147 470 167T435 200T392 226Q356 245 331 263T293 304T279 356Q279 391
294 414T332 456T377 493T415 534T430 591Q430 623 416 646T375 681T310 694Q261 694 232 674T187 618T166 536T161 438Q161 326 161 254T161 138T163 71T167 34T174 9Q170 5 157 -2T126 -9Z" />
<glyph unicode="&#xe0;" horiz-adv-x="550" d="M470 -10Q427 -10 405 19T383 114V203L402 194Q385 134 351 88T270 15T170 -11Q111 -11 78 20T45 105Q45 146 66 178T125 232T211 267Q253 278 297 282T379 284V310Q379 397 350 441T252 485Q228 485 204 478T164
453T148 404Q148 384 158 363T191 333Q182 322 169 318T143 313Q108 313 88 340T68 401Q68 460 120 490T259 521Q363 521 411 468T460 305V105Q460 52 496 52Q504 52 514 57T529 73Q535 65 537 57T540 42Q540 20 520 5T470 -10ZM206 45Q235 45 265 62T322 109T364
175T381 252Q358 254 330 252T274 245T226 232Q182 216 157 189T132 122Q132 92 149 68T206 45ZM120 701Q127 706 140 710T170 718T200 720L290 570Q287 566 275 565T255 563L120 701Z" />
<glyph unicode="&#xe1;" horiz-adv-x="550" d="M470 -10Q427 -10 405 19T383 114V203L402 194Q385 134 351 88T270 15T170 -11Q111 -11 78 20T45 105Q45 146 66 178T125 232T211 267Q253 278 297 282T379 284V310Q379 397 350 441T252 485Q228 485 204 478T164
453T148 404Q148 384 158 363T191 333Q182 322 169 318T143 313Q108 313 88 340T68 401Q68 460 120 490T259 521Q363 521 411 468T460 305V105Q460 52 496 52Q504 52 514 57T529 73Q535 65 537 57T540 42Q540 20 520 5T470 -10ZM206 45Q235 45 265 62T322 109T364
175T381 252Q358 254 330 252T274 245T226 232Q182 216 157 189T132 122Q132 92 149 68T206 45ZM402 701L268 563Q260 563 248 564T232 570L323 720Q335 721 351 718T382 711T402 701Z" />
<glyph unicode="&#xe2;" horiz-adv-x="550" d="M470 -10Q427 -10 405 19T383 114V203L402 194Q385 134 351 88T270 15T170 -11Q111 -11 78 20T45 105Q45 146 66 178T125 232T211 267Q253 278 297 282T379 284V310Q379 397 350 441T252 485Q228 485 204 478T164
453T148 404Q148 384 158 363T191 333Q182 322 169 318T143 313Q108 313 88 340T68 401Q68 460 120 490T259 521Q363 521 411 468T460 305V105Q460 52 496 52Q504 52 514 57T529 73Q535 65 537 57T540 42Q540 20 520 5T470 -10ZM206 45Q235 45 265 62T322 109T364
175T381 252Q358 254 330 252T274 245T226 232Q182 216 157 189T132 122Q132 92 149 68T206 45ZM403 562Q397 562 385 565T371 573L491 710Q497 712 507 713T526 713T542 710L662 573Q659 569 648 566T630 562L517 649L403 562Z" />
<glyph unicode="&#xe3;" horiz-adv-x="550" d="M470 -10Q427 -10 405 19T383 114V203L402 194Q385 134 351 88T270 15T170 -11Q111 -11 78 20T45 105Q45 146 66 178T125 232T211 267Q253 278 297 282T379 284V310Q379 397 350 441T252 485Q228 485 204 478T164
453T148 404Q148 384 158 363T191 333Q182 322 169 318T143 313Q108 313 88 340T68 401Q68 460 120 490T259 521Q363 521 411 468T460 305V105Q460 52 496 52Q504 52 514 57T529 73Q535 65 537 57T540 42Q540 20 520 5T470 -10ZM206 45Q235 45 265 62T322 109T364
175T381 252Q358 254 330 252T274 245T226 232Q182 216 157 189T132 122Q132 92 149 68T206 45ZM659 923Q653 886 633 862T579 837Q554 837 535 849T498 873T457 885Q434 885 419 873T397 842Q392 841 386 844T374 851Q381 897 406 916T461 936Q488 936 506 924T544
900T586 888Q609 888 619 900T637 932Q644 932 649 930T659 923Z" />
<glyph unicode="&#xe4;" horiz-adv-x="550" d="M470 -10Q427 -10 405 19T383 114V203L402 194Q385 134 351 88T270 15T170 -11Q111 -11 78 20T45 105Q45 146 66 178T125 232T211 267Q253 278 297 282T379 284V310Q379 397 350 441T252 485Q228 485 204 478T164
453T148 404Q148 384 158 363T191 333Q182 322 169 318T143 313Q108 313 88 340T68 401Q68 460 120 490T259 521Q363 521 411 468T460 305V105Q460 52 496 52Q504 52 514 57T529 73Q535 65 537 57T540 42Q540 20 520 5T470 -10ZM206 45Q235 45 265 62T322 109T364
175T381 252Q358 254 330 252T274 245T226 232Q182 216 157 189T132 122Q132 92 149 68T206 45ZM434 586Q415 586 401 600T386 633Q386 653 400 666T434 680Q453 680 467 666T481 633Q481 614 467 600T434 586ZM607 586Q589 586 575 600T561 633Q561 653 575 666T607
680Q627 680 641 666T655 633Q655 614 641 600T607 586Z" />
<glyph unicode="&#xe5;" horiz-adv-x="550" d="M470 -10Q427 -10 405 19T383 114V203L402 194Q385 134 351 88T270 15T170 -11Q111 -11 78 20T45 105Q45 146 66 178T125 232T211 267Q253 278 297 282T379 284V310Q379 397 350 441T252 485Q228 485 204 478T164
453T148 404Q148 384 158 363T191 333Q182 322 169 318T143 313Q108 313 88 340T68 401Q68 460 120 490T259 521Q363 521 411 468T460 305V105Q460 52 496 52Q504 52 514 57T529 73Q535 65 537 57T540 42Q540 20 520 5T470 -10ZM206 45Q235 45 265 62T322 109T364
175T381 252Q358 254 330 252T274 245T226 232Q182 216 157 189T132 122Q132 92 149 68T206 45ZM523 721Q563 721 587 699T612 640Q611 601 586 579T519 556Q479 556 455 578T430 636Q430 675 456 698T523 721ZM521 692Q500 692 487 678T474 638Q474 613 487 599T521
584Q543 584 555 598T568 638Q568 664 556 678T521 692Z" />
<glyph unicode="&#xe6;" horiz-adv-x="849" d="M170 -11Q111 -11 78 20T45 105Q45 146 66 178T125 232T211 267Q253 278 297 282T381 284V310Q381 397 352 441T254 485Q229 485 204 478T164 453T148 404Q148 384 158 363T191 333Q182 322 169 318T143 313Q108
313 88 340T68 401Q68 460 120 490T261 521Q331 521 373 493T435 409L423 410Q450 463 500 492T621 521Q674 521 715 505T779 456T803 377Q803 302 743 264T576 225Q546 225 520 227T468 232Q472 160 495 119T555 60T635 42Q689 42 730 64T785 129Q795 125 799
115T794 79Q775 34 727 11T616 -13Q526 -13 467 34T390 173L398 172Q378 117 344 76T265 12T170 -11ZM206 45Q235 45 265 61T320 106T363 169T382 245Q382 256 382 258T382 269L395 252Q370 254 339 253T278 246T226 232Q182 216 157 189T132 122Q132 92 149 68T206
45ZM545 261Q581 261 612 267T667 287T704 325T718 387Q718 426 703 447T665 476T617 485Q551 485 510 430T467 267Q485 265 506 263T545 261Z" />
<glyph unicode="&#xe7;" horiz-adv-x="505" d="M276 -13Q167 -13 106 54T44 251Q44 376 106 448T283 521Q366 521 409 486T453 394Q453 359 435 338T387 317Q374 317 361 321T340 336Q357 343 365 360T373 400Q373 430 360 449T324 477T276 486Q211 486 170 430T129
263Q129 182 152 133T213 63T297 42Q333 42 363 53T414 88T444 147Q454 143 458 132T454 95Q438 42 390 15T276 -13ZM550 8L539 -48Q584 -48 609 -67T634 -121Q634 -159 606 -183T530 -207Q493 -207 473 -197T442 -175Q440 -167 444 -157T454 -144Q460 -149 473
-158T514 -167Q537 -167 550 -156T564 -122Q564 -101 549 -87T492 -77L508 8H550Z" />
<glyph unicode="&#xe8;" horiz-adv-x="511" d="M278 -13Q170 -13 107 54T44 251Q44 376 105 448T282 521Q336 521 377 505T441 456T465 377Q465 302 405 264T238 225Q196 225 158 228T81 240L83 273Q108 268 141 265T207 261Q242 261 273 267T329 287T366 325T380
387Q380 426 365 447T327 476T279 485Q212 485 171 429T129 261Q129 178 151 131T212 63T297 42Q351 42 392 64T447 129Q457 125 461 115T456 79Q437 34 389 11T278 -13ZM127 701Q134 706 148 710T178 718T207 720L297 570Q294 566 282 565T262 563L127 701Z" />
<glyph unicode="&#xe9;" horiz-adv-x="511" d="M278 -13Q170 -13 107 54T44 251Q44 376 105 448T282 521Q336 521 377 505T441 456T465 377Q465 302 405 264T238 225Q196 225 158 228T81 240L83 273Q108 268 141 265T207 261Q242 261 273 267T329 287T366 325T380
387Q380 426 365 447T327 476T279 485Q212 485 171 429T129 261Q129 178 151 131T212 63T297 42Q351 42 392 64T447 129Q457 125 461 115T456 79Q437 34 389 11T278 -13ZM409 701L275 563Q267 563 255 564T239 570L330 720Q342 721 358 718T389 711T409 701Z" />
<glyph unicode="&#xea;" horiz-adv-x="511" d="M278 -13Q170 -13 107 54T44 251Q44 376 105 448T282 521Q336 521 377 505T441 456T465 377Q465 302 405 264T238 225Q196 225 158 228T81 240L83 273Q108 268 141 265T207 261Q242 261 273 267T329 287T366 325T380
387Q380 426 365 447T327 476T279 485Q212 485 171 429T129 261Q129 178 151 131T212 63T297 42Q351 42 392 64T447 129Q457 125 461 115T456 79Q437 34 389 11T278 -13ZM410 562Q404 562 392 565T378 573L498 710Q504 712 514 713T533 713T549 710L669 573Q666
569 655 566T637 562L524 649L410 562Z" />
<glyph unicode="&#xeb;" horiz-adv-x="511" d="M278 -13Q170 -13 107 54T44 251Q44 376 105 448T282 521Q336 521 377 505T441 456T465 377Q465 302 405 264T238 225Q196 225 158 228T81 240L83 273Q108 268 141 265T207 261Q242 261 273 267T329 287T366 325T380
387Q380 426 365 447T327 476T279 485Q212 485 171 429T129 261Q129 178 151 131T212 63T297 42Q351 42 392 64T447 129Q457 125 461 115T456 79Q437 34 389 11T278 -13ZM441 586Q422 586 408 600T393 633Q393 653 407 666T441 680Q460 680 474 666T488 633Q488
614 474 600T441 586ZM614 586Q596 586 582 600T568 633Q568 653 582 666T614 680Q634 680 648 666T662 633Q662 614 648 600T614 586Z" />
<glyph unicode="&#xec;" horiz-adv-x="247" d="M163 114Q163 85 165 57T175 7Q169 2 158 -4T129 -11Q110 -11 97 1T84 33L83 396Q83 425 81 453T71 503Q77 508 88 514T116 521Q136 521 148 510T161 477L163 114ZM-27 701Q-20 706 -6 710T24 718T53 720L144 570Q140
566 128 565T108 563L-27 701Z" />
<glyph unicode="&#xed;" horiz-adv-x="247" d="M163 114Q163 85 165 57T175 7Q169 2 158 -4T129 -11Q110 -11 97 1T84 33L83 396Q83 425 81 453T71 503Q77 508 88 514T116 521Q136 521 148 510T161 477L163 114ZM255 701L121 563Q113 563 101 564T85 570L176 720Q188
721 204 718T235 711T255 701Z" />
<glyph unicode="&#xee;" horiz-adv-x="247" d="M163 114Q163 85 165 57T175 7Q169 2 158 -4T129 -11Q110 -11 97 1T84 33L83 396Q83 425 81 453T71 503Q77 508 88 514T116 521Q136 521 148 510T161 477L163 114ZM0 562Q-6 562 -18 565T-32 573L88 710Q94 712 104
713T123 713T139 710L259 573Q256 569 245 566T227 562L114 649L0 562Z" />
<glyph unicode="&#xef;" horiz-adv-x="247" d="M163 114Q163 85 165 57T175 7Q169 2 158 -4T129 -11Q110 -11 97 1T84 33L83 396Q83 425 81 453T71 503Q77 508 88 514T116 521Q136 521 148 510T161 477L163 114ZM32 586Q13 586 -1 600T-16 633Q-16 653 -2 666T32
680Q51 680 65 666T79 633Q79 614 65 600T32 586ZM205 586Q187 586 173 600T159 633Q159 653 173 666T205 680Q225 680 239 666T253 633Q253 614 239 600T205 586Z" />
<glyph unicode="&#xf0;" horiz-adv-x="521" d="M252 -13Q187 -13 146 10T83 70T53 151T44 238Q44 314 68 372T139 465T253 499Q294 499 326 487T380 451T406 396L390 394Q388 455 367 506T312 595T241 654T167 675Q159 675 153 675T143 674Q143 687 148 700T165
722T196 731Q263 731 315 696T404 600T458 459T477 289Q477 204 454 135T382 27T252 -13ZM254 36Q303 36 332 64T376 146T390 271Q390 305 385 337T366 396T329 437T269 453Q223 453 192 427T145 354T129 246Q129 205 134 168T153 101T191 54T254 36ZM214 584L430
707Q448 698 449 674L232 552Q215 563 214 584Z" />
<glyph unicode="&#xf1;" horiz-adv-x="574" d="M139 -11Q118 -11 105 2T92 37V406Q91 435 85 446T64 458Q59 458 51 455T38 442Q26 457 26 474Q26 494 42 507T86 520Q124 520 144 495T164 417V347L149 329Q155 389 179 432T244 498T336 521Q419 521 458 468T497
313V114Q498 88 500 59T510 7Q502 0 491 -5T464 -11Q444 -11 431 1T417 33V303Q416 387 394 430T313 474Q288 474 264 462T218 423T184 350T171 241Q171 181 171 142T173 78T177 37T185 7Q179 2 168 -4T139 -11ZM693 923Q687 886 667 862T613 837Q588 837 569 849T532
873T491 885Q468 885 453 873T431 842Q426 841 420 844T408 851Q415 897 440 916T495 936Q522 936 540 924T578 900T620 888Q643 888 653 900T671 932Q678 932 683 930T693 923Z" />
<glyph unicode="&#xf2;" horiz-adv-x="547" d="M273 -13Q165 -13 105 57T44 254Q44 380 104 450T273 521Q382 521 442 451T503 254Q503 128 443 58T273 -13ZM273 23Q343 23 380 83T417 254Q417 365 380 424T273 484Q204 484 167 425T129 254Q129 143 166 83T273
23ZM131 701Q137 706 151 710T181 718T210 720L301 570Q298 566 286 565T265 563L131 701Z" />
<glyph unicode="&#xf3;" horiz-adv-x="547" d="M273 -13Q165 -13 105 57T44 254Q44 380 104 450T273 521Q382 521 442 451T503 254Q503 128 443 58T273 -13ZM273 23Q343 23 380 83T417 254Q417 365 380 424T273 484Q204 484 167 425T129 254Q129 143 166 83T273
23ZM412 701L278 563Q270 563 258 564T242 570L333 720Q345 721 361 718T392 711T412 701Z" />
<glyph unicode="&#xf4;" horiz-adv-x="547" d="M273 -13Q165 -13 105 57T44 254Q44 380 104 450T273 521Q382 521 442 451T503 254Q503 128 443 58T273 -13ZM273 23Q343 23 380 83T417 254Q417 365 380 424T273 484Q204 484 167 425T129 254Q129 143 166 83T273
23ZM414 562Q408 562 396 565T382 573L502 710Q508 712 518 713T537 713T553 710L673 573Q670 569 659 566T641 562L528 649L414 562Z" />
<glyph unicode="&#xf5;" horiz-adv-x="547" d="M273 -13Q165 -13 105 57T44 254Q44 380 104 450T273 521Q382 521 442 451T503 254Q503 128 443 58T273 -13ZM273 23Q343 23 380 83T417 254Q417 365 380 424T273 484Q204 484 167 425T129 254Q129 143 166 83T273
23ZM670 923Q664 886 644 862T590 837Q565 837 546 849T509 873T468 885Q445 885 430 873T408 842Q403 841 397 844T385 851Q392 897 417 916T472 936Q499 936 517 924T555 900T597 888Q620 888 630 900T648 932Q655 932 660 930T670 923Z" />
<glyph unicode="&#xf6;" horiz-adv-x="547" d="M273 -13Q165 -13 105 57T44 254Q44 380 104 450T273 521Q382 521 442 451T503 254Q503 128 443 58T273 -13ZM273 23Q343 23 380 83T417 254Q417 365 380 424T273 484Q204 484 167 425T129 254Q129 143 166 83T273
23ZM445 586Q426 586 412 600T397 633Q397 653 411 666T445 680Q464 680 478 666T492 633Q492 614 478 600T445 586ZM618 586Q600 586 586 600T572 633Q572 653 586 666T618 680Q638 680 652 666T666 633Q666 614 652 600T618 586Z" />
<glyph unicode="&#xf7;" horiz-adv-x="550" d="M77 374H472Q482 350 472 325H77Q68 350 77 374ZM275 471Q258 471 246 483T233 513Q233 532 245 544T275 556Q293 556 305 544T318 513Q318 496 306 484T275 471ZM275 144Q258 144 246 156T233 186Q233 204 245 216T275
228Q293 228 305 216T318 186Q318 169 306 157T275 144Z" />
<glyph unicode="&#xf8;" horiz-adv-x="547" d="M449 501L428 466Q464 432 483 379T503 254Q503 128 443 58T273 -13Q203 -13 152 18L131 -16Q108 -15 99 2L122 39Q44 109 44 254Q44 380 104 450T273 521Q346 521 398 488L417 519Q439 519 449 501ZM129 254Q129
207 138 170T164 106L366 437Q349 461 326 472T273 484Q204 484 167 425T129 254ZM273 23Q343 23 380 83T417 254Q417 298 409 334T384 396L182 67Q217 23 273 23Z" />
<glyph unicode="&#xf9;" horiz-adv-x="566" d="M428 521Q448 521 461 509T474 473L475 103Q475 75 481 64T503 52Q508 52 516 55T529 67Q541 52 541 36Q541 16 526 3T481 -10Q443 -10 423 15T403 92V163L418 181Q412 120 388 77T324 11T235 -13Q155 -13 117 34T78
197V395Q78 422 76 451T65 503Q74 509 84 515T112 521Q132 521 144 510T157 476L158 207Q158 144 167 105T199 49T258 31Q282 31 306 44T350 85T383 158T396 269Q396 329 396 368T394 431T390 472T382 503Q388 508 399 514T428 521ZM126 701Q133 706 146 710T176
718T206 720L296 570Q293 566 281 565T261 563L126 701Z" />
<glyph unicode="&#xfa;" horiz-adv-x="566" d="M428 521Q448 521 461 509T474 473L475 103Q475 75 481 64T503 52Q508 52 516 55T529 67Q541 52 541 36Q541 16 526 3T481 -10Q443 -10 423 15T403 92V163L418 181Q412 120 388 77T324 11T235 -13Q155 -13 117 34T78
197V395Q78 422 76 451T65 503Q74 509 84 515T112 521Q132 521 144 510T157 476L158 207Q158 144 167 105T199 49T258 31Q282 31 306 44T350 85T383 158T396 269Q396 329 396 368T394 431T390 472T382 503Q388 508 399 514T428 521ZM408 701L274 563Q266 563 254
564T238 570L329 720Q341 721 357 718T388 711T408 701Z" />
<glyph unicode="&#xfb;" horiz-adv-x="566" d="M428 521Q448 521 461 509T474 473L475 103Q475 75 481 64T503 52Q508 52 516 55T529 67Q541 52 541 36Q541 16 526 3T481 -10Q443 -10 423 15T403 92V163L418 181Q412 120 388 77T324 11T235 -13Q155 -13 117 34T78
197V395Q78 422 76 451T65 503Q74 509 84 515T112 521Q132 521 144 510T157 476L158 207Q158 144 167 105T199 49T258 31Q282 31 306 44T350 85T383 158T396 269Q396 329 396 368T394 431T390 472T382 503Q388 508 399 514T428 521ZM409 562Q403 562 391 565T377
573L497 710Q503 712 513 713T532 713T548 710L668 573Q665 569 654 566T636 562L523 649L409 562Z" />
<glyph unicode="&#xfc;" horiz-adv-x="566" d="M428 521Q448 521 461 509T474 473L475 103Q475 75 481 64T503 52Q508 52 516 55T529 67Q541 52 541 36Q541 16 526 3T481 -10Q443 -10 423 15T403 92V163L418 181Q412 120 388 77T324 11T235 -13Q155 -13 117 34T78
197V395Q78 422 76 451T65 503Q74 509 84 515T112 521Q132 521 144 510T157 476L158 207Q158 144 167 105T199 49T258 31Q282 31 306 44T350 85T383 158T396 269Q396 329 396 368T394 431T390 472T382 503Q388 508 399 514T428 521ZM440 586Q421 586 407 600T392
633Q392 653 406 666T440 680Q459 680 473 666T487 633Q487 614 473 600T440 586ZM613 586Q595 586 581 600T567 633Q567 653 581 666T613 680Q633 680 647 666T661 633Q661 614 647 600T613 586Z" />
<glyph unicode="&#xfd;" horiz-adv-x="546" d="M240 -233Q197 -233 158 -223T94 -189T69 -125Q69 -97 85 -78T129 -59Q156 -59 168 -74Q153 -83 148 -97T143 -121Q143 -149 157 -166T194 -191T240 -199Q323 -199 361 -136T400 48Q400 65 401 87T404 132T407 175L418
191Q408 99 361 45T230 -9Q155 -9 117 38T78 201V395Q78 423 76 451T65 503Q74 509 84 515T112 521Q132 521 144 510T157 476L158 211Q158 120 179 78T251 36Q279 36 304 49T351 90T384 163T396 274Q396 333 396 371T394 433T390 473T382 503Q388 508 399 514T428
521Q448 521 461 509T474 473L475 49Q475 -56 445 -118T361 -206T240 -233ZM417 701L283 563Q275 563 263 564T247 570L338 720Q350 721 366 718T397 711T417 701Z" />
<glyph unicode="&#xfe;" horiz-adv-x="553" d="M129 -224Q108 -224 95 -213T82 -180V686Q82 707 92 718T121 730Q139 731 153 724T174 712Q166 685 163 649T159 556V299L136 288Q142 338 157 380T198 454T257 503T337 521Q390 521 424 498T476 439T502 360T509
278Q509 140 454 65T298 -11Q248 -11 213 9T162 67V-55Q162 -76 163 -104T167 -159T175 -206Q169 -211 158 -217T129 -224ZM280 36Q351 36 387 96T424 277Q424 311 420 346T406 409T374 454T316 472Q279 472 251 451T203 394T173 310T162 211Q162 175 167 144T185
88T221 50T280 36Z" />
<glyph unicode="&#xff;" horiz-adv-x="546" d="M240 -233Q197 -233 158 -223T94 -189T69 -125Q69 -97 85 -78T129 -59Q156 -59 168 -74Q153 -83 148 -97T143 -121Q143 -149 157 -166T194 -191T240 -199Q323 -199 361 -136T400 48Q400 65 401 87T404 132T407 175L418
191Q408 99 361 45T230 -9Q155 -9 117 38T78 201V395Q78 423 76 451T65 503Q74 509 84 515T112 521Q132 521 144 510T157 476L158 211Q158 120 179 78T251 36Q279 36 304 49T351 90T384 163T396 274Q396 333 396 371T394 433T390 473T382 503Q388 508 399 514T428
521Q448 521 461 509T474 473L475 49Q475 -56 445 -118T361 -206T240 -233ZM450 586Q431 586 417 600T402 633Q402 653 416 666T450 680Q469 680 483 666T497 633Q497 614 483 600T450 586ZM623 586Q605 586 591 600T577 633Q577 653 591 666T623 680Q643 680 657
666T671 633Q671 614 657 600T623 586Z" />
<glyph unicode="&#x2013;" horiz-adv-x="488" d="M43 283H446V231H43V283Z" />
<glyph unicode="&#x2014;" horiz-adv-x="786" d="M48 283H738V231H48V283Z" />
<glyph unicode="&#x2018;" horiz-adv-x="178" d="M100 752Q111 750 118 745T130 733Q115 716 107 700T99 666Q99 648 106 637T125 621T145 612Q145 594 131 576T89 557Q69 557 51 571T32 627Q32 655 46 686T100 752Z" />
<glyph unicode="&#x2019;" horiz-adv-x="178" d="M78 545Q68 547 61 552T48 563Q63 580 71 596T79 631Q79 650 72 660T54 676T33 685Q33 704 48 721T89 739Q109 739 127 725T146 670Q146 642 132 611T78 545Z" />
<glyph unicode="&#x201a;" horiz-adv-x="178" d="M334 155Q324 157 317 162T304 173Q319 190 327 206T335 241Q335 260 328 270T310 286T289 295Q289 314 304 331T345 349Q365 349 383 335T402 280Q402 252 388 221T334 155Z" />
<glyph unicode="&#x201c;" horiz-adv-x="327" d="M100 752Q111 750 118 745T130 733Q115 716 107 700T99 666Q99 648 106 637T125 621T145 612Q145 594 131 576T89 557Q69 557 51 571T32 627Q32 655 46 686T100 752ZM250 751Q260 750 267 745T280 733Q265 716
257 700T249 666Q249 647 256 637T274 621T295 611Q295 593 280 575T238 557Q219 557 200 571T181 626Q181 654 196 686T250 751Z" />
<glyph unicode="&#x201d;" horiz-adv-x="327" d="M232 545Q222 547 215 552T202 563Q217 580 225 596T233 631Q233 650 226 660T208 676T187 685Q187 704 202 721T243 739Q263 739 281 725T300 670Q300 642 286 611T232 545ZM82 546Q72 548 65 553T52 564Q67 581
75 597T83 632Q83 651 76 661T58 677T37 686Q37 705 52 722T93 740Q113 740 131 726T150 671Q150 643 136 612T82 546Z" />
<glyph unicode="&#x201e;" horiz-adv-x="327" d="M227 -99Q217 -97 210 -92T197 -81Q212 -64 220 -48T228 -13Q228 6 221 16T203 32T182 41Q182 60 197 77T238 95Q258 95 276 81T295 26Q295 -2 281 -33T227 -99ZM334 -99Q324 -97 317 -92T304 -81Q319 -64 327
-48T335 -13Q335 6 328 16T310 32T289 41Q289 60 304 77T345 95Q365 95 383 81T402 26Q402 -2 388 -33T334 -99Z" />
<glyph unicode="&#x2022;" horiz-adv-x="341" d="M171 182Q146 182 126 194T93 227T80 273Q80 298 92 318T125 350T171 363Q196 363 216 351T248 318T261 273Q261 248 249 228T216 195T171 182Z" />
<glyph unicode="&#x2039;" horiz-adv-x="435" d="M382 439L108 243V238L383 46L357 13L30 214Q28 219 28 229T27 251T30 266L358 474L382 439Z" />
<glyph unicode="&#x203a;" horiz-adv-x="435" d="M52 439L77 474L405 266Q406 262 407 251T408 230T405 214L77 13L52 46L326 238V243L52 439Z" />
</font>
</defs>
</svg>
