<?xml version="1.0" standalone="no"?>
<!DOCTYPE svg PUBLIC "-//W3C//DTD SVG 1.1//EN" "http://www.w3.org/Graphics/SVG/1.1/DTD/svg11.dtd">
<svg xmlns="http://www.w3.org/2000/svg">
<defs >
<font id="Norican" horiz-adv-x="1119" ><font-face
    font-family="Norican"
    units-per-em="2048"
    panose-1="0 0 0 0 0 0 0 0 0 0"
    ascent="2095"
    descent="-791"
    alphabetic="0" />
<glyph unicode=" " glyph-name="space" horiz-adv-x="389" />
<glyph unicode="!" glyph-name="exclam" horiz-adv-x="608" d="M317 369Q302 369 299 377T295 397Q295 407 295 416T297 434L449 1296Q454 1333 462 1385T486 1478T526 1518H709Q741 1518 741 1464Q741 1447 721 1381T669 1218T597 1009T519 788T446 587T393 439T371
379Q360 375 340 372T317 369ZM224 -29Q181 -29 163 -6T144 49Q144 83 162 119T211 181T283 207Q343 207 368 184T394 129Q394 94 371 58T309 -4T224 -29Z" />
<glyph unicode="&quot;" glyph-name="quotedbl" horiz-adv-x="913" d="M634 1083Q636 1135 635 1211T636 1362T655 1487T704 1538Q784 1538 808 1527T833 1487Q833 1470 828 1449T813 1403Q773 1311 740 1218T690 1083H634ZM366 1083Q368 1135 367 1211T368 1362T387
1487T436 1538Q516 1538 540 1527T565 1487Q565 1456 544 1403Q504 1311 471 1218T421 1083H366Z" />
<glyph unicode="#" glyph-name="numbersign" horiz-adv-x="1069" d="M127 -141Q102 -141 96 -124T90 -82Q90 -44 101 -3T115 49Q130 108 155 229T209 500Q181 500 154 499T94 496Q87 496 62 500T37 537Q37 584 54 601T86 623L233 633L264 807Q233 807 204 806T139
803Q132 803 107 807T82 844Q82 897 99 915T160 934T289 940Q310 1055 326 1150T353 1306T367 1374Q390 1440 404 1480T438 1542T494 1571T594 1579Q606 1579 618 1563T631 1526Q631 1523 630 1520T629 1513L473 948Q521 950 572 952T676 954Q703 1066 724 1158T759
1308T776 1374Q804 1463 822 1507T879 1565T1004 1579Q1016 1579 1028 1563T1040 1526Q1040 1523 1039 1520T1038 1513L854 956Q928 955 979 946T1030 915Q1030 888 1000 854T930 819Q898 819 868 820T809 821L752 649H776Q861 649 923 641T985 608Q985 580 955
546T885 512Q848 512 814 513T748 514H707L551 39Q542 11 531 -32T502 -108T455 -141Q430 -141 424 -124T418 -82Q418 -44 430 -3T442 49Q462 108 496 234T567 512L350 506L223 39Q214 11 203 -32T174 -108T127 -141ZM387 647H602Q613 691 623 733T643 819Q571
819 436 813L387 647Z" />
<glyph unicode="$" glyph-name="dollar" horiz-adv-x="1069" d="M307 -213Q279 -213 279 -184Q279 -169 282 -152T289 -109L297 -55Q287 -56 275 -56T252 -57Q181 -57 106 -32T-19 46T-70 182Q-70 250 -20 288T96 330L139 332Q138 312 137 285T135 233Q135 183
142 139T186 66T315 35Q340 154 379 320T461 664Q390 723 323 782T213 901T170 1024Q170 1123 213 1204T328 1346T489 1446T670 1503L678 1550Q694 1638 705 1680T727 1734T754 1747Q759 1747 773 1741T788 1710L741 1513Q776 1518 803 1518Q856 1518 915 1504T1027
1456T1112 1367T1145 1227Q1145 1218 1105 1191T1005 1126T880 1053T766 991T698 958V1057Q722 1071 766 1091T855 1134T933 1181T965 1225Q965 1338 904 1380T756 1423Q746 1423 738 1422T721 1421L594 872Q670 817 746 756T874 619T926 446Q926 338 880 253T755
106T579 6T379 -47L373 -80Q367 -111 364 -142T349 -193T307 -213ZM526 924L647 1407Q581 1390 522 1352T425 1256T387 1126Q387 1070 426 1021T526 924ZM399 41Q472 56 543 95T662 196T709 342Q709 410 657 475T530 604L399 41Z" />
<glyph unicode="%" glyph-name="percent" horiz-adv-x="1401" d="M197 -141Q170 -141 170 -117Q170 -92 185 -57T219 9T242 49Q268 99 317 192T430 406T563 655T697 909T817 1135T905 1301T944 1374Q989 1439 1017 1479T1070 1541T1133 1571T1235 1579Q1243 1579
1249 1569T1255 1546Q1255 1543 1253 1531T1249 1513L348 39Q331 11 308 -32T257 -108T197 -141ZM268 858Q190 858 143 906T74 1023T53 1149Q53 1230 84 1315T181 1459T348 1518Q436 1518 486 1471T558 1354T580 1219Q580 1134 545 1051T440 913T268 858ZM248 973Q293
973 329 1005T390 1086T429 1186T442 1274Q442 1308 426 1350T367 1393Q322 1393 291 1359T240 1274T211 1172T201 1085Q201 1070 203 1043T216 995T248 973ZM1042 -29Q965 -29 918 20T849 137T827 262Q827 343 858 429T955 575T1122 635Q1210 635 1260 588T1332
471T1354 336Q1354 250 1320 166T1216 27T1042 -29ZM1022 86Q1067 86 1103 118T1165 199T1203 299T1217 387Q1217 422 1202 466T1141 510Q1096 510 1065 476T1015 390T986 287T977 201Q977 187 979 159T991 109T1022 86Z" />
<glyph unicode="&amp;" glyph-name="ampersand" horiz-adv-x="1442" d="M811 -526Q799 -510 799 -494Q799 -470 835 -443T920 -373T1005 -267T1042 -104Q1042 -38 1014 29T956 154Q844 80 726 26T479 -29Q378 -29 284 12T130 131T70 319Q70 430 119 516T248 672T419
797T596 905Q584 950 576 993T567 1083Q567 1170 610 1248T724 1387T880 1483T1047 1518Q1127 1518 1210 1487T1350 1395T1407 1241Q1407 1208 1362 1175T1253 1112T1131 1059T1047 1024Q1025 1048 1018 1081Q1043 1095 1091 1115T1179 1163T1219 1223Q1219 1300
1160 1347T1028 1395Q953 1395 909 1357T845 1259T825 1133Q825 1041 856 947T937 760T1042 581T1143 418Q1197 453 1248 507T1343 622T1413 733Q1435 774 1451 845T1483 973L1506 976Q1539 981 1552 968T1565 932Q1565 869 1532 783T1445 607T1326 443T1196 328Q1234
271 1266 191T1298 41Q1298 -48 1259 -147T1151 -332T995 -472T811 -526ZM666 145Q734 145 790 170T911 238L618 805Q551 765 488 718T383 612T342 475Q342 389 387 314T505 192T666 145Z" />
<glyph unicode="&apos;" glyph-name="quotesingle" horiz-adv-x="524" d="M307 1083Q300 1127 295 1189T289 1315Q289 1403 303 1470T356 1538Q436 1538 460 1527T485 1487Q485 1470 480 1449T465 1403Q431 1311 404 1218T363 1083H307Z" />
<glyph unicode="(" glyph-name="parenleft" horiz-adv-x="934" d="M518 -117Q356 -117 252 -30T99 206T49 541Q49 676 78 820T167 1100T317 1342T528 1513T801 1577Q830 1577 859 1575T920 1567L915 1464Q879 1470 844 1470Q723 1470 629 1409T466 1245T353 1019T288
768T266 530Q266 440 281 343T336 163T444 27T621 -25Q632 -25 642 -25T666 -23L662 -100Q582 -117 518 -117Z" />
<glyph unicode=")" glyph-name="parenright" horiz-adv-x="932" d="M145 -121Q113 -121 81 -118T14 -106L18 -4Q56 -10 90 -10Q211 -10 305 51T468 215T581 441T646 692T668 930Q668 1020 652 1117T597 1297T489 1433T313 1485Q303 1485 292 1485T268 1483L272
1561Q311 1569 346 1573T414 1577Q578 1577 682 1490T835 1254T885 920Q885 789 856 645T767 365T619 119T412 -56T145 -121Z" />
<glyph unicode="*" glyph-name="asterisk" horiz-adv-x="870" d="M625 668Q603 668 572 709T510 807T454 915T420 987Q411 967 386 917T328 809T264 711T211 670Q186 670 155 699T123 754Q123 789 164 834T262 928T362 1024Q291 1041 215 1059T87 1100T35 1153Q35
1169 45 1195T70 1244T104 1266Q122 1266 164 1242T255 1186T342 1127T391 1094Q391 1105 392 1115T393 1137Q393 1193 388 1249T383 1352Q383 1401 393 1431T438 1462Q460 1462 484 1461T527 1450T545 1409Q545 1374 529 1310T492 1182T459 1081Q506 1105 566
1146T682 1220T766 1253Q784 1253 800 1231T827 1183T838 1141Q838 1116 805 1100T717 1072T601 1049T479 1022Q522 973 578 924T677 831T719 754Q719 737 702 717T663 682T625 668Z" />
<glyph unicode="+" glyph-name="plus" horiz-adv-x="1200" d="M490 306Q470 306 464 316T457 339Q457 356 461 364L523 622L279 609Q273 609 252 612T230 638Q230 692 258 712T299 736Q318 739 388 746T553 757L568 812Q577 859 588 907T611 1011Q614 1026 648
1038T711 1050Q732 1050 732 996Q732 968 726 927T709 841L688 761Q713 763 738 763T789 763Q870 763 930 756T990 726Q990 708 971 685T923 644T869 626Q832 626 798 627T732 628H654L586 355Q583 340 560 323T490 306Z" />
<glyph unicode="," glyph-name="comma" horiz-adv-x="483" d="M184 -264L127 -244Q127 -244 138 -213T163 -132T190 -29Q149 -29 131 -6T113 49Q113 83 131 119T180 181T252 207Q311 207 333 176T356 90Q356 60 334 9T282 -97T224 -198T184 -264Z" />
<glyph unicode="-" glyph-name="hyphen" horiz-adv-x="862" d="M213 598Q206 598 181 602T156 639Q156 686 172 703T205 725Q220 728 264 732T365 741T471 749T547 752Q631 752 693 744T756 711Q756 683 726 649T655 614Q618 614 584 615T518 616Q498 616 471
615T385 611T213 598Z" />
<glyph unicode="." glyph-name="period" horiz-adv-x="422" d="M158 -29Q115 -29 97 -6T78 49Q78 83 96 119T145 181T217 207Q277 207 302 184T328 129Q328 94 305 58T243 -4T158 -29Z" />
<glyph unicode="/" glyph-name="slash" horiz-adv-x="1014" d="M29 -223Q6 -223 6 -193Q6 -149 32 -113T76 -33Q96 21 143 120T253 347T387 612T526 881T650 1121T740 1297T778 1374Q804 1457 828 1501T889 1562T987 1579Q995 1579 1001 1569T1008 1546Q1008 1543
1006 1531T1001 1513L223 -43Q207 -73 189 -115T136 -190T29 -223Z" />
<glyph unicode="0" glyph-name="zero" horiz-adv-x="1210" d="M418 -29Q318 -29 251 22T144 155T86 327T62 496Q56 606 79 741T155 1013T286 1264T471 1448T707 1518Q849 1518 934 1450T1059 1271T1106 1038Q1113 914 1091 770T1017 484T881 227T683 41T418 -29ZM363
143Q449 143 526 192T671 325T791 510T882 720T937 925T951 1096Q949 1143 936 1197T890 1289T795 1327Q745 1327 702 1302T621 1247Q496 1146 407 995T272 671T234 332Q236 292 246 248T284 174T363 143Z" />
<glyph unicode="1" glyph-name="one" horiz-adv-x="709" d="M123 0Q106 0 101 16T96 45Q96 82 105 126T123 211Q152 349 191 488T266 764Q310 935 337 1041T378 1204T399 1285T408 1313Q378 1289 328 1251T221 1175T119 1111T49 1085Q23 1095 23 1124Q23 1143
42 1161T84 1192Q227 1283 355 1361T621 1509Q636 1518 649 1518Q663 1518 668 1507T674 1481Q674 1462 672 1452L395 221Q391 184 385 132T365 40T326 0H123Z" />
<glyph unicode="2" glyph-name="two" horiz-adv-x="1149" d="M77 -29Q57 -29 32 -21T7 12Q7 34 31 63T75 109Q152 183 248 270T442 455T622 660T754 884T804 1124Q804 1267 763 1338T626 1409Q578 1409 521 1385T411 1310T326 1183T292 999Q325 952 358 933T414
899T437 852Q437 839 427 822T388 805Q373 805 328 831T231 893T142 962T104 1006Q104 1170 170 1284T348 1458T591 1518Q709 1518 788 1488T917 1409T991 1308T1026 1209T1035 1137Q1035 1021 986 907T859 686T690 486T514 320T366 200T284 137Q394 154 509 183T736
213Q767 213 801 209T860 191T884 145Q884 120 872 79T838 5T790 -29Q714 -29 645 -16T501 -2Q395 -2 289 -15T77 -29Z" />
<glyph unicode="3" glyph-name="three" horiz-adv-x="1188" d="M388 -29Q332 -29 265 -13T138 37T38 120T-1 238Q-1 303 45 346T155 389Q196 389 214 358T242 280T266 186T311 108T403 76Q473 76 532 115T635 216T703 352T728 494Q728 580 685 640T542 700Q532
700 521 699T499 698Q474 698 457 708T439 756Q439 794 457 804T502 815T552 817Q615 825 669 867T764 972T828 1106T851 1241Q851 1321 812 1376T681 1432Q647 1432 596 1403T493 1328T408 1234T374 1145Q389 1120 428 1088T493 1030Q492 1012 482 995T454 977Q441
977 400 1000T311 1054T229 1114T194 1151Q194 1218 232 1283T336 1401T485 1486T657 1518Q767 1518 862 1493T1017 1403T1076 1214Q1076 1111 1025 1026T897 880T738 784Q846 755 910 666T974 479Q974 367 923 274T786 113T597 8T388 -29Z" />
<glyph unicode="4" glyph-name="four" horiz-adv-x="1225" d="M415 0L409 20Q433 87 458 155T509 291Q451 300 380 312T226 340Q191 321 153 309T89 297Q82 297 56 303T5 331T-20 397Q-20 445 5 461T64 489L175 528L468 1208Q511 1330 544 1397T629 1491T779 1518Q793
1518 806 1515T826 1499Q717 1252 602 1005T363 494Q399 483 452 469T568 444Q603 535 640 627T716 811Q724 823 753 830T820 838H912Q907 817 884 753T828 602T759 428Q815 428 869 437T968 471Q975 473 1007 491T1080 537T1156 594L1205 508Q1127 452 1078 408T987
333T895 286T761 270Q745 270 730 270T697 272L626 96Q626 96 618 72T597 24T568 0H415Z" />
<glyph unicode="5" glyph-name="five" horiz-adv-x="1152" d="M315 -29Q279 -29 221 -18T102 22T1 98T-40 219Q-40 242 -20 273T40 329T136 354Q136 314 144 266T176 174T242 102T353 74Q466 74 541 117T660 227T722 369T741 504Q741 568 701 627T594 725T442
764Q371 764 313 725T210 633Q180 637 169 659Q174 681 190 746T230 900T279 1083T327 1261T366 1399T388 1458Q395 1464 401 1468T415 1473H421Q537 1462 625 1455T802 1448Q867 1448 938 1453T1099 1468L1156 1450Q1153 1422 1142 1397T1117 1348Q1082 1283 1061
1252T1003 1211T884 1202Q815 1202 747 1209T614 1249Q580 1266 551 1286T480 1307Q464 1257 442 1193T398 1065T359 947T335 866Q394 898 465 922T609 946Q714 946 796 900T926 773T974 586Q974 458 918 347T768 151T556 19T315 -29Z" />
<glyph unicode="6" glyph-name="six" horiz-adv-x="1094" d="M353 -29Q222 -29 145 36T39 205T18 426Q32 582 104 730T278 1015T480 1276Q556 1368 609 1415T718 1462H874Q797 1382 707 1283T527 1070T365 830T248 570T204 295Q204 252 212 204T256 122T372 88Q422
88 473 124T572 218T656 343T715 473T741 582Q750 696 722 744T631 802T470 813Q499 870 537 886T634 903Q797 903 888 834T966 586Q958 472 907 363T772 165T581 24T353 -29Z" />
<glyph unicode="7" glyph-name="seven" horiz-adv-x="1022" d="M115 0Q157 201 253 399T486 805T780 1245Q738 1221 674 1204T540 1175T408 1159T307 1153Q186 1153 138 1160T90 1196Q90 1205 105 1240T141 1317T182 1390T215 1421Q331 1408 407 1404T547 1399Q624
1399 686 1405T813 1417T956 1423Q961 1423 984 1409T1008 1370Q1008 1366 1004 1354Q912 1156 803 959T588 559T403 139Q395 117 381 84T355 26T344 0H115Z" />
<glyph unicode="8" glyph-name="eight" horiz-adv-x="1286" d="M386 -57Q291 -57 208 -24T74 80T23 262Q23 333 58 396T145 512T251 606T342 675T385 717Q334 761 290 803T218 900T191 1030Q191 1118 248 1204T403 1362T624 1475T881 1518Q901 1518 940 1515T1020
1502T1090 1475T1119 1430Q1119 1395 1102 1358T1058 1296T1006 1270Q1006 1270 981 1299T907 1357T789 1386Q700 1386 628 1349T513 1246T470 1096Q470 1061 499 1002T606 893Q651 916 725 956T885 1038T1049 1111T1180 1143L1213 1096Q1100 1032 970 971T718
809Q782 752 849 692T962 561T1008 399Q1008 288 949 203T795 60T592 -27T386 -57ZM431 41Q501 41 568 72T681 161T726 297Q726 389 662 479T504 615Q490 604 449 568T359 477T277 355T242 215Q242 143 290 92T431 41Z" />
<glyph unicode="9" glyph-name="nine" horiz-adv-x="1094" d="M205 -32L135 -2Q289 110 415 255T633 559T775 877T825 1174Q825 1224 813 1277T766 1366T662 1403Q587 1403 519 1353T396 1224T311 1053T279 879Q279 784 329 718T496 651Q511 651 528 651T563 653Q557
599 535 575T483 545T424 539Q321 539 234 580T95 702T43 895Q43 1012 88 1122T216 1322T406 1463T641 1516Q827 1516 931 1410T1036 1115Q1036 964 985 804T846 495T650 227T426 38T205 -32Z" />
<glyph unicode=":" glyph-name="colon" horiz-adv-x="422" d="M158 729Q115 729 97 752T78 807Q78 841 96 877T145 939T217 965Q277 965 302 942T328 887Q328 852 305 816T243 754T158 729ZM158 -29Q115 -29 97 -6T78 49Q78 83 96 119T145 181T217 207Q277 207
302 184T328 129Q328 94 305 58T243 -4T158 -29Z" />
<glyph unicode=";" glyph-name="semicolon" horiz-adv-x="483" d="M242 729Q199 729 181 752T162 807Q162 841 180 877T229 939T301 965Q361 965 386 942T412 887Q412 852 389 816T327 754T242 729ZM184 -264L127 -244Q127 -244 138 -213T163 -132T190 -29Q149
-29 131 -6T113 49Q113 83 131 119T180 181T252 207Q311 207 333 176T356 90Q356 60 334 9T282 -97T224 -198T184 -264Z" />
<glyph unicode="&lt;" glyph-name="less" horiz-adv-x="1200" d="M861 -68Q816 -68 794 -52Q679 30 593 137T435 365T290 604Q243 677 243 718Q243 754 275 788T368 891Q491 1030 572 1122T704 1273T788 1365T846 1419T902 1458Q913 1464 931 1469T970 1474Q1004
1474 1032 1461T1060 1419Q1060 1395 1031 1372T952 1318T845 1239T730 1118Q663 1030 581 937T413 749L587 497Q687 341 769 242T902 84T952 -13Q952 -42 924 -55T861 -68Z" />
<glyph unicode="=" glyph-name="equal" horiz-adv-x="1200" d="M266 598Q259 598 234 602T209 639Q209 686 226 703T258 725Q278 729 353 735T533 747T743 752Q828 752 890 744T952 711Q952 683 922 649T852 614Q815 614 781 615T715 616Q687 616 646 615T517
611T266 598ZM225 373Q218 373 193 377T168 414Q168 461 185 478T217 500Q237 504 312 510T492 521T702 526Q787 526 849 518T911 485Q911 458 881 424T811 389Q774 389 740 390T674 391Q646 391 605 390T476 386T225 373Z" />
<glyph unicode="&gt;" glyph-name="greater" horiz-adv-x="1200" d="M324 -68Q293 -68 270 -58T246 -25Q246 13 308 72T481 232T736 497L971 749Q908 843 849 937T744 1118Q707 1188 663 1234T578 1312T512 1366T486 1411Q486 1445 520 1459T590 1474Q627 1474
655 1462T713 1414T786 1313T896 1138Q941 1053 997 970T1094 824T1135 735Q1135 712 1118 681T1059 604Q958 485 857 365T644 138T396 -52Q369 -68 324 -68Z" />
<glyph unicode="?" glyph-name="question" horiz-adv-x="999" d="M334 424Q302 424 280 434T258 465Q258 542 296 609T393 736T520 853T646 966T744 1082T782 1206Q782 1277 740 1326T633 1400T502 1425Q411 1425 358 1397T275 1323T230 1227T199 1128L156 1130Q104
1132 71 1155T37 1227Q37 1239 39 1252T47 1278Q79 1361 150 1414T305 1492T461 1518Q589 1518 706 1479T897 1360T971 1163Q971 1068 932 997T831 872T697 774T561 689T452 602T401 498Q391 458 371 441T334 424ZM285 -29Q242 -29 224 -6T205 49Q205 83 223 119T272
181T344 207Q404 207 429 184T455 129Q455 94 432 58T370 -4T285 -29Z" />
<glyph unicode="@" glyph-name="at" horiz-adv-x="1587" d="M780 -313Q644 -313 515 -277T282 -164T117 37T55 334Q55 477 106 600T247 822T452 992T694 1101T946 1139Q1101 1139 1233 1075T1445 873T1526 514Q1526 429 1501 339T1428 172T1306 48T1137 0Q1034
0 967 55T899 199Q880 134 827 82T706 -1T569 -31Q484 -31 419 28T354 225Q354 336 406 445T551 643T762 786T1016 840Q1059 840 1100 831T1184 807Q1182 796 1172 747T1147 628T1117 488T1089 360T1073 281Q1070 265 1068 244T1065 201Q1065 158 1080 122T1145
86Q1195 86 1254 141T1355 293T1397 512Q1397 691 1334 802T1166 966T938 1018Q812 1018 683 969T445 831T270 620T203 352Q203 180 273 59T468 -126T754 -190Q875 -190 1010 -162T1290 -76L1350 -199Q1227 -255 1078 -284T780 -313ZM678 100Q727 100 782 145T881
272L995 764Q911 764 834 719T697 602T602 445T567 281Q567 189 598 145T678 100Z" />
<glyph unicode="A" glyph-name="A" horiz-adv-x="1391" d="M422 -57Q241 -57 161 42T80 328Q80 498 151 668T347 991T629 1262T964 1449T1313 1518Q1352 1518 1418 1508T1553 1476T1669 1415T1716 1321Q1716 1291 1684 1254T1612 1187T1544 1151Q1513 1295 1436
1358T1253 1421Q1144 1421 1020 1364T775 1208T556 986T398 727T338 463Q338 302 415 219T625 135Q682 135 745 168T855 256T915 377Q923 419 942 506T985 700T1035 912T1081 1098T1112 1210Q1121 1240 1160 1253T1245 1269T1319 1272Q1346 1272 1346 1239Q1346
1227 1343 1223Q1318 1156 1292 1061T1242 862T1197 660T1162 490T1141 385Q1130 329 1123 279T1121 197T1157 166Q1185 166 1205 171T1257 202T1348 283T1513 442V330Q1416 228 1334 140T1175 -2T1022 -57Q961 -57 932 -22T897 70T895 193Q788 82 658 13T422 -57Z"
/>
<glyph unicode="B" glyph-name="B" horiz-adv-x="1667" d="M301 -57Q241 -57 174 -33T61 42T14 172Q14 226 43 254T118 292T211 303Q211 287 210 263T209 213Q209 174 215 134T244 68T319 41Q377 41 421 84T497 197T551 346T587 500T612 625L719 1192Q723 1215
752 1227T820 1243T895 1248T948 1249Q948 1249 943 1212T929 1118T907 1000T881 889Q880 884 870 834T845 708T810 548T772 388T735 266Q764 187 848 133T1030 78Q1124 78 1181 117T1265 217T1292 346Q1292 423 1263 503T1182 650T1059 756V872Q1194 879 1281
942T1368 1106Q1368 1196 1325 1252T1212 1338T1058 1380T893 1391Q805 1391 702 1364T506 1287T354 1165T295 1004Q295 953 333 909T457 834Q457 782 448 733T434 668Q366 690 296 733T180 840T133 987Q133 1107 203 1204T392 1372T663 1480T977 1518Q1128 1518
1257 1478T1466 1351T1546 1126Q1546 1087 1530 1036T1476 937T1369 857T1196 823Q1400 719 1488 584T1577 328Q1577 198 1510 113T1333 -15T1094 -57Q939 -57 838 -4T674 156Q574 27 485 -15T301 -57Z" />
<glyph unicode="C" glyph-name="C" horiz-adv-x="1268" d="M616 -57Q478 -57 377 -5T211 136T114 335T82 561Q82 680 115 812T217 1069T390 1295T635 1457T956 1518Q1058 1518 1139 1470T1267 1343T1315 1178Q1315 1152 1308 1133T1278 1102Q1213 1069 1126 1021T952
925T799 846Q787 840 776 840Q760 840 751 852T741 881Q741 906 777 931T865 981T971 1033T1060 1089T1096 1149Q1095 1149 1087 1189T1060 1283T1009 1376T926 1417Q784 1412 668 1343T469 1162T342 920T297 659Q297 479 354 361T510 184T735 125Q887 125 1061
207T1403 451V340Q1210 157 1010 50T616 -57Z" />
<glyph unicode="D" glyph-name="D" horiz-adv-x="1726" d="M950 -57Q847 -57 753 -13T584 133Q499 12 405 -21T203 -55Q128 -55 71 -18T-20 74T-53 184Q-53 242 -23 272T54 314T152 326Q152 301 149 276T145 221Q145 152 167 97T264 41Q302 41 338 67T397 143Q411
172 451 277T543 594L662 1208Q668 1226 693 1234T748 1244T791 1247H885Q858 1091 839 933T781 610T655 264Q675 205 720 159T825 86T942 59Q1031 59 1117 108T1272 248T1383 467T1425 752Q1425 880 1392 995T1289 1200T1108 1341T840 1393Q728 1393 620 1359T423
1269T282 1146T229 1014Q229 962 267 915T393 834Q393 785 384 736T367 672Q212 721 140 810T68 1001Q68 1092 121 1183T285 1350T566 1472T971 1518Q1157 1518 1292 1455T1513 1290T1641 1066T1683 829Q1683 646 1628 486T1474 203T1241 12T950 -57Z" />
<glyph unicode="E" glyph-name="E" horiz-adv-x="1403" d="M100 -57Q93 -57 67 -51T16 -23T-8 43Q-8 75 21 97T87 136T145 162L401 279Q420 306 449 405T514 631Q497 629 459 619T378 601T305 600T274 637Q274 674 291 685T326 702Q359 713 415 728T551 760Q593
907 627 1021T710 1219T842 1360Q785 1365 733 1366T635 1368Q374 1368 262 1306T150 1143Q150 1088 200 1038T346 952Q346 918 337 877T317 825Q159 881 81 960T2 1120Q2 1238 80 1327T305 1467T657 1518H948Q1056 1518 1166 1517T1367 1514T1513 1506T1569 1491Q1569
1479 1550 1460L1450 1346Q1427 1330 1405 1321T1356 1311Q1267 1311 1164 1331T963 1356Q929 1236 893 1091T809 795Q868 800 928 802T1053 805Q1106 805 1160 802T1272 799Q1309 799 1309 766Q1309 738 1279 704T1208 670Q1090 670 984 669T774 659Q737 521 684
419T584 238H711Q726 233 775 215T886 174T1001 135T1079 119Q1112 119 1163 145Q1175 147 1213 172T1304 240T1415 334T1524 438V328Q1399 217 1300 130T1106 -7T893 -57Q885 -57 874 -50T823 -24T694 27T442 109Q358 42 264 -7T100 -57Z" />
<glyph unicode="F" glyph-name="F" horiz-adv-x="1313" d="M252 -180Q160 -180 100 -143T11 -52T-18 49Q-18 90 -1 125T63 183T195 205Q188 168 186 134T184 70Q184 6 206 -35T293 -82Q347 -82 393 -24T481 132T557 351T623 600L537 575Q532 574 506 578T479 616Q479
664 496 680T530 702Q550 712 583 724T657 750Q695 913 726 1044T784 1221Q837 1300 899 1339Q889 1339 877 1340T854 1341Q734 1341 625 1313T431 1238T297 1135T248 1022Q248 967 285 917T408 829Q408 801 404 765T392 699T379 662Q213 730 138 824T63 1016Q63
1138 153 1242T411 1417T813 1507Q910 1514 1016 1516T1233 1518Q1307 1518 1374 1517T1509 1516L1368 1305Q1270 1305 1179 1316T989 1335Q961 1193 938 1057T891 795Q929 800 969 802T1053 805Q1155 805 1272 799Q1309 799 1309 766Q1309 732 1279 691T1208 649Q1116
649 1031 648T860 639Q822 456 775 306T659 47T492 -121T252 -180Z" />
<glyph unicode="G" glyph-name="G" horiz-adv-x="1458" d="M743 -467Q679 -467 610 -437T494 -351T446 -221Q446 -178 465 -138T528 -88L985 45Q985 45 995 87T1019 185T1038 285L1055 371Q990 308 900 250T717 154T551 117Q460 117 392 163T274 286T190 453L70
383Q19 354 -27 327T-88 299Q-101 299 -109 318T-117 356Q-117 372 -112 385T-96 403Q-73 417 -30 440T59 488T138 532T172 559Q172 750 240 922T430 1229T717 1440T1073 1518Q1179 1518 1262 1468T1395 1342T1444 1188Q1444 1112 1416 1091T1337 1049L1274 1020L444
586Q461 515 500 448T598 337T729 293Q823 293 904 333T1061 434Q1064 440 1074 479T1095 561T1108 621H1307L1188 119Q1236 142 1304 193T1445 311T1583 440V330Q1543 287 1484 234T1361 129T1243 40T1157 -10Q1110 -239 999 -353T743 -467ZM426 678L844 887Q945
937 1030 982T1139 1036Q1198 1062 1214 1082T1231 1130Q1231 1202 1202 1271T1130 1385T1042 1430Q912 1430 800 1363T604 1186T473 942T426 678ZM766 -408Q808 -408 840 -367T897 -266T935 -153T954 -74Q904 -95 847 -108T738 -137T654 -176T621 -242Q621 -300
657 -354T766 -408Z" />
<glyph unicode="H" glyph-name="H" horiz-adv-x="1870" d="M383 -55Q265 -55 193 -10T88 94T55 195Q55 248 90 273T180 307T291 315V256Q291 212 297 165T324 86T393 53Q471 53 523 111T609 261T664 451T702 631L489 600Q493 600 478 600T448 608T432 641Q432
689 449 705T483 727Q527 738 590 750T735 774L739 793Q763 901 793 991T874 1150T1012 1266Q901 1277 795 1302T575 1327Q535 1327 467 1319T328 1291T209 1235T160 1141Q160 1094 193 1058T271 996T352 954Q352 925 346 884T322 819Q253 846 179 891T55 1000T4
1149Q4 1247 53 1317T180 1431T348 1495T522 1516Q618 1516 709 1498T892 1462T1079 1444Q1142 1444 1195 1465T1303 1489Q1293 1431 1264 1374T1186 1286Q1107 1176 1060 1055T967 805Q1092 817 1245 823Q1290 945 1360 1067T1522 1291T1721 1454T1950 1516Q1984
1516 2032 1505T2127 1472T2205 1417T2236 1341Q2236 1322 2216 1294T2167 1238T2109 1191T2062 1171L2054 1192Q2038 1248 2004 1298T1903 1348Q1816 1348 1740 1298T1601 1168T1488 998T1403 829H1477Q1582 829 1696 823Q1716 823 1724 813T1733 791Q1733 763
1703 729T1632 694Q1494 694 1362 688Q1343 624 1331 552T1319 414Q1319 237 1362 164T1470 90Q1546 90 1637 141T1820 274T1995 442L1993 328Q1901 226 1792 139T1572 -2T1368 -55Q1280 -55 1221 23T1161 291Q1161 397 1175 505T1206 680Q1137 676 1069 670T932
657Q909 569 882 471T818 279T723 111T583 -10T383 -55Z" />
<glyph unicode="I" glyph-name="I" horiz-adv-x="1061" d="M494 -57Q434 -57 367 -33T254 42T207 172Q207 226 236 254T310 292T403 303Q403 287 402 263T401 213Q401 174 407 134T436 68T512 41Q571 41 615 84T690 197T744 346T781 500T805 625L819 702Q652 715
552 755T407 849T362 954Q362 1001 396 1069T497 1209T662 1344T890 1446T1178 1485Q1241 1485 1293 1506T1401 1530Q1390 1463 1353 1399T1249 1311Q1180 1193 1134 1063T1057 793L1024 647Q1006 559 983 462T924 272T832 106T694 -13T494 -57ZM854 842Q892 985
955 1109T1145 1303Q977 1303 859 1258T668 1150T560 1030T526 950Q526 910 604 881T854 842Z" />
<glyph unicode="J" glyph-name="J" horiz-adv-x="1077" d="M330 -428Q267 -428 200 -398T86 -312T39 -184Q39 -141 58 -96T123 -39L541 74Q557 168 582 277T633 495T676 700Q513 709 412 743T259 825T193 922Q178 961 203 1029T292 1175T456 1324T693 1440T1001
1485Q1064 1485 1117 1506T1225 1530Q1214 1463 1177 1399T1073 1311Q1010 1202 970 1084T901 840Q963 840 1031 845T1176 862Q1176 837 1170 803T1145 748Q1072 728 1003 717T872 700L754 133Q825 176 892 211T1036 298T1210 446V334Q1167 283 1102 232T964 135T830
56T731 10Q684 -208 577 -318T330 -428ZM707 840Q741 983 799 1108T969 1303Q801 1303 683 1258T492 1150T384 1030T350 950Q350 909 435 879T707 840ZM352 -356Q389 -356 418 -325T468 -246T503 -150T524 -66Q476 -82 423 -92T324 -114T250 -147T221 -205Q221
-258 253 -307T352 -356Z" />
<glyph unicode="K" glyph-name="K" horiz-adv-x="1888" d="M358 -55Q241 -55 169 -10T64 94T31 195Q31 248 66 273T156 307T266 315V256Q266 212 272 165T300 86T369 53Q439 53 488 100T570 224T626 388T664 558T694 698L715 793Q739 901 768 991T849 1151T987
1266Q883 1278 782 1302T571 1327Q531 1327 463 1319T324 1291T205 1235T156 1141Q156 1094 188 1058T266 996T348 954Q348 925 342 884T317 819Q248 846 175 891T51 1000T0 1149Q0 1247 49 1317T176 1431T344 1495T518 1516Q610 1516 698 1498T874 1462T1055 1444Q1118
1444 1170 1465T1278 1489Q1269 1431 1240 1374T1161 1286Q1079 1174 1029 1051T938 793L920 731Q1060 873 1178 1012T1406 1266T1626 1449T1862 1518Q1869 1518 1904 1514T1988 1500T2084 1469T2163 1418T2195 1341Q2195 1322 2175 1294T2126 1238T2068 1191T2021
1171L2013 1192Q1997 1248 1963 1298T1862 1348Q1773 1348 1705 1313T1581 1218T1472 1088T1362 942T1233 803L1442 393Q1516 258 1558 180T1647 117Q1693 132 1780 213T2009 436V324Q1923 230 1838 144T1682 2T1573 -53Q1507 -53 1438 20T1284 270L1085 719L891
625Q858 498 820 377T724 159T578 3T358 -55Z" />
<glyph unicode="L" glyph-name="L" horiz-adv-x="1255" d="M754 -57Q746 -57 735 -51T686 -26T564 26T324 117Q235 59 135 15T-39 -29Q-46 -29 -72 -22T-123 6T-147 72Q-147 104 -118 126T-52 164T6 190L268 309L500 1137Q517 1197 551 1226T633 1290Q656 1307
710 1344T829 1421T956 1489T1053 1518Q1139 1518 1216 1470T1342 1343T1391 1178Q1391 1152 1383 1133T1354 1102Q1289 1069 1202 1021T1027 925T874 846Q862 840 852 840Q835 840 826 852T817 881Q817 906 852 930T940 980T1045 1031T1134 1087T1171 1147Q1170
1147 1162 1188T1136 1282T1085 1376T1001 1417Q963 1413 915 1371T820 1271T742 1156T702 1067Q664 880 611 676T469 266Q491 260 509 253T551 240Q567 235 619 216T736 175T858 136T940 119Q951 119 979 126T1058 163T1187 258T1376 438V326Q1288 238 1189 150T980
2T754 -57Z" />
<glyph unicode="M" glyph-name="M" horiz-adv-x="1712" d="M-365 -260Q-386 -260 -399 -231T-412 -123Q-412 -82 -377 -57T-287 -12T-169 35T-48 102T49 213Q106 335 178 487T328 802T478 1116T608 1391Q649 1466 728 1513T895 1561L907 1554Q872 1290 860 1022T831
485H846Q895 583 930 651T998 782T1072 926T1173 1127T1323 1430Q1337 1453 1373 1478T1456 1526T1545 1563T1616 1579Q1616 1578 1619 1578T1624 1575Q1599 1444 1570 1294T1513 990T1462 693T1425 432T1411 238Q1411 141 1458 141Q1482 141 1529 173T1632 253T1742
352T1833 438V324Q1724 218 1620 132T1430 -4T1284 -55Q1230 -55 1201 -7T1171 154Q1171 243 1184 356T1218 591T1259 825T1296 1026Q1300 1057 1308 1097T1323 1170T1331 1214Q1331 1231 1321 1231Q1307 1231 1303 1219Q1282 1178 1239 1093T1139 896T1018 661T892
420T777 205T687 48T639 -18Q608 -9 597 9T586 41L614 1128H600L121 131Q91 77 36 10T-88 -118T-229 -220T-365 -260Z" />
<glyph unicode="N" glyph-name="N" horiz-adv-x="1473" d="M1100 -57Q1054 -57 1027 -25T986 58T968 162T963 262Q963 501 998 745T1100 1202Q1111 1232 1111 1257Q1111 1283 1100 1300T1066 1318Q1053 1318 1033 1309Q871 1227 740 1091T515 788T371 442Q351
371 333 288T300 127T272 0H66Q66 79 89 190T148 433T223 708T295 995L377 1313L55 1085L25 1075Q9 1075 4 1091T-2 1126Q-2 1136 2 1146T23 1167L453 1438Q470 1449 502 1467T568 1501T623 1516Q643 1516 643 1497Q643 1460 631 1403T604 1287T577 1183T565 1122L549
1040Q693 1211 812 1307T1022 1448T1176 1504T1270 1516Q1316 1516 1335 1489T1354 1423Q1354 1398 1337 1311T1296 1100T1247 837T1205 569T1188 346Q1188 303 1193 257T1213 179T1257 147Q1273 147 1294 158T1341 195L1597 440L1595 330Q1591 326 1572 307T1529
263T1486 218T1460 193Q1433 168 1387 127T1288 44T1185 -28T1100 -57Z" />
<glyph unicode="O" glyph-name="O" horiz-adv-x="1653" d="M715 -57Q553 -57 413 17T187 238T100 605Q100 777 162 940T341 1233T627 1441T1006 1518Q1038 1518 1073 1515T1143 1505L1139 1403Q1113 1408 1088 1409T1040 1411Q876 1411 745 1351T520 1187T378
955T328 689Q328 521 401 403T592 222T842 160Q975 160 1081 205T1267 327T1395 496H1382Q1246 496 1127 543T933 686T858 926Q858 1008 895 1079T1012 1195T1217 1239Q1306 1239 1390 1189T1530 1034T1585 768Q1585 699 1573 637Q1710 658 1853 743V651Q1786 598
1706 563T1540 510Q1493 380 1406 276T1205 97T966 -17T715 -57ZM1448 627Q1475 713 1475 799Q1475 889 1444 963T1350 1082T1190 1126Q1105 1126 1068 1091T1030 999Q1030 893 1084 810T1232 678T1448 627Z" />
<glyph unicode="P" glyph-name="P" horiz-adv-x="1317" d="M160 -180Q86 -180 19 -155T-90 -77T-133 53Q-133 103 -104 129T-30 166T63 176Q63 147 62 118T61 66Q61 8 85 -37T178 -82Q243 -82 291 -27T376 115T436 299T477 480T502 614L612 1190Q617 1213 645
1225T706 1242T752 1247L840 1249Q835 1213 824 1147T797 1000T765 844T735 711H760Q930 711 1044 764T1216 899T1274 1071Q1274 1153 1222 1226T1065 1346T799 1393Q714 1393 612 1372T419 1311T268 1216T209 1094Q209 1014 256 977T373 913Q373 879 367 831T346
754Q277 776 208 819T93 926T47 1069Q47 1177 118 1261T307 1402T569 1488T860 1518Q1095 1518 1242 1459T1458 1304T1528 1100Q1528 1008 1481 918T1347 753T1135 635T856 590Q789 590 715 602Q680 365 618 212T478 -26T318 -146T160 -180Z" />
<glyph unicode="Q" glyph-name="Q" horiz-adv-x="1632" d="M420 -518Q356 -518 284 -497T162 -425T111 -289Q111 -255 126 -232T178 -209L563 -236Q575 -222 596 -173T644 -56Q488 -49 356 27T142 247T61 605Q61 777 123 940T302 1233T588 1441T967 1518Q999 1518
1034 1515T1104 1505L1100 1403Q1074 1408 1049 1409T1001 1411Q837 1411 706 1351T481 1187T339 955T289 689Q289 537 349 426T509 249T726 166Q746 221 761 264T784 326Q797 360 855 365T977 371L901 167Q1062 191 1176 283T1356 496H1343Q1207 496 1088 543T894
686T819 926Q819 1008 856 1079T973 1195T1178 1239Q1267 1239 1351 1189T1491 1034T1546 768Q1546 699 1534 637Q1671 658 1814 743V651Q1747 598 1667 563T1501 510Q1448 362 1343 248T1102 59T823 -43L754 -229Q794 -223 853 -213T969 -188T1055 -152L1065 -272Q1042
-284 997 -296T900 -320T801 -338T729 -348Q701 -414 623 -466T420 -518ZM1409 627Q1436 713 1436 799Q1436 889 1405 963T1311 1082T1151 1126Q1066 1126 1029 1091T991 999Q991 893 1045 810T1193 678T1409 627ZM434 -424Q479 -424 501 -394T537 -334H422Q384
-334 354 -330T301 -324Q275 -324 266 -326T256 -346Q256 -368 307 -396T434 -424Z" />
<glyph unicode="R" glyph-name="R" horiz-adv-x="1616" d="M215 -57Q139 -57 63 -28T-64 60T-115 205Q-115 264 -49 291T102 319Q109 319 117 315Q116 300 115 281T113 242Q113 198 122 155T159 82T238 53Q289 53 333 107T414 252T481 453T536 677T578 891T609
1062T629 1155Q637 1180 648 1201T691 1235T791 1249Q805 1249 821 1249T858 1247Q842 1108 816 966T762 688Q882 688 977 726T1139 824T1242 953T1278 1083Q1278 1161 1228 1232T1085 1348T870 1393Q762 1393 650 1373T444 1313T291 1216T233 1085Q233 1012 285
974T395 913Q395 875 389 832T369 754Q296 778 228 819T116 922T72 1071Q72 1175 142 1257T331 1398T594 1487T891 1518Q1014 1518 1130 1490T1340 1407T1489 1274T1544 1098Q1544 974 1476 891T1282 751T981 649Q1029 623 1073 559T1156 417T1228 265T1289 144T1335
96Q1363 96 1415 136T1530 233T1647 347T1737 434L1739 332Q1688 277 1627 211T1500 83T1366 -17T1233 -57Q1146 -57 1100 -22T1027 62T973 150Q964 173 943 225T892 345T825 479T748 600Q729 528 704 441T641 266T547 105T409 -12T215 -57Z" />
<glyph unicode="S" glyph-name="S" horiz-adv-x="1069" d="M252 -180Q181 -180 106 -155T-19 -76T-70 59Q-70 127 -20 165T96 207L139 209Q138 189 137 163T135 111Q135 60 142 15T190 -59T328 -88Q387 -88 453 -68T577 -8T672 88T709 219Q709 287 670 354T570
488T440 621T310 755T209 889T170 1024Q170 1141 229 1233T383 1388T589 1485T803 1518Q856 1518 915 1504T1027 1456T1112 1367T1145 1227Q1145 1218 1105 1191T1005 1126T880 1053T766 991T698 958V1057Q722 1071 766 1091T855 1134T933 1181T965 1225Q965 1338
904 1380T756 1423Q674 1423 589 1388T445 1286T387 1126Q387 1060 426 1003T526 890T656 776T786 651T887 504T926 324Q926 199 865 105T703 -53T485 -148T252 -180Z" />
<glyph unicode="T" glyph-name="T" horiz-adv-x="1085" d="M256 -57Q164 -57 104 -20T15 71T-14 172Q-14 213 3 248T67 306T199 328Q192 291 190 257T188 193Q188 128 210 87T297 41Q353 41 402 100T495 260T575 483T642 734T698 979T742 1181T776 1305Q804 1335
840 1353T934 1372Q902 1381 868 1387T797 1393Q689 1393 591 1361T416 1276T296 1160T252 1032Q252 977 289 927T412 840Q412 811 408 775T396 710T383 672Q217 740 143 834T68 1026Q68 1118 124 1205T282 1363T520 1476T817 1518Q908 1518 1009 1500T1212 1463T1411
1444Q1502 1444 1575 1477T1700 1524Q1663 1398 1563 1326T1331 1253Q1247 1253 1171 1284T1016 1343Q991 1223 963 1074T896 767T803 463T674 199T496 12T256 -57Z" />
<glyph unicode="U" glyph-name="U" horiz-adv-x="1595" d="M625 -57Q480 -57 392 2T263 164T223 403Q223 550 264 714T377 1034T537 1311Q537 1315 532 1315Q529 1315 520 1309L406 1221Q384 1209 313 1165T147 1062T-43 946V1057Q50 1110 153 1173T358 1300T547
1415T693 1498T772 1530Q781 1530 790 1525T799 1509Q799 1498 775 1443T712 1303T630 1112T549 892T486 666T461 457Q461 321 524 234T745 147Q885 147 1005 214T1216 394T1362 645T1425 924Q1398 929 1352 950T1259 1010T1180 1108T1147 1247Q1147 1305 1168
1368T1236 1475T1362 1520Q1425 1520 1462 1474T1520 1359T1546 1217T1553 1091T1554 1024Q1554 1024 1616 1042T1775 1111T1971 1261V1147Q1928 1111 1864 1065T1720 978T1552 920Q1528 733 1450 559T1250 245T969 25T625 -57ZM1430 1028Q1430 1037 1431 1047T1432
1067Q1432 1128 1419 1190T1381 1296T1321 1339Q1287 1339 1277 1316T1266 1266Q1266 1168 1315 1105T1430 1028Z" />
<glyph unicode="V" glyph-name="V" horiz-adv-x="1415" d="M621 -57Q485 -57 406 13T294 200T260 451Q260 586 285 724T350 976T430 1151Q443 1170 462 1203T498 1267T514 1309Q514 1315 512 1315Q509 1315 500 1309L385 1221Q364 1209 293 1165T126 1062T-63
946V1057Q30 1110 133 1173T338 1300T526 1415T673 1498T752 1530Q758 1530 768 1525T778 1509Q778 1511 761 1462T718 1328T661 1134T604 907T560 673T543 459Q543 338 578 260T698 182Q763 182 833 232T972 364T1102 545T1211 742T1286 922Q1258 927 1212 948T1119
1008T1040 1106T1008 1245Q1008 1303 1029 1366T1097 1473T1223 1518Q1284 1518 1322 1477T1382 1371T1413 1238T1423 1110T1425 1022Q1425 1022 1477 1034T1609 1080T1774 1180V1065Q1720 1030 1622 983T1413 918Q1390 810 1343 680T1225 420T1063 182T861 9T621
-57ZM1296 1028Q1296 1037 1297 1047T1298 1067Q1298 1128 1285 1190T1248 1296T1188 1339Q1154 1339 1144 1316T1133 1266Q1133 1168 1182 1105T1296 1028Z" />
<glyph unicode="W" glyph-name="W" horiz-adv-x="1978" d="M1235 -57Q1159 -57 1107 -30T1022 38T970 119T945 187T938 215Q891 152 816 90T659 -14T510 -55Q423 -55 362 -12T263 102T208 251T190 403Q190 526 217 661T295 924T420 1151Q433 1170 453 1203T488
1268T504 1309Q504 1315 502 1315Q500 1315 489 1309L375 1221Q354 1209 283 1165T116 1062T-74 946V1057Q19 1110 123 1173T328 1300T516 1415T662 1498T741 1530Q751 1530 759 1525T768 1509Q768 1482 738 1407T665 1226T577 1001T503 766T473 553Q473 497 480
433T510 311T576 218T694 182Q727 182 773 202T863 255T928 326Q924 349 922 380T920 451Q920 530 929 626T960 818T1016 995T1102 1125T1221 1174Q1270 1174 1286 1140T1303 1059Q1303 995 1284 910T1237 736T1181 573T1133 450T1114 401Q1114 340 1148 299T1238
238T1352 217Q1435 217 1512 265T1655 393T1770 566T1846 753T1874 922Q1846 927 1800 948T1707 1008T1628 1106T1595 1245Q1595 1303 1616 1366T1684 1473T1810 1518Q1872 1518 1909 1477T1966 1371T1994 1238T2002 1110T2003 1022Q2003 1022 2051 1034T2175 1080T2331
1180V1065Q2280 1030 2192 983T2001 918Q1994 809 1950 678T1833 418T1664 181T1460 8T1235 -57ZM1884 1028Q1884 1037 1885 1047T1886 1067Q1886 1128 1873 1190T1836 1296T1776 1339Q1742 1339 1731 1316T1720 1266Q1720 1168 1770 1105T1884 1028Z" />
<glyph unicode="X" glyph-name="X" horiz-adv-x="1544" d="M123 -59Q68 -59 22 -38T-25 66Q-25 116 1 131T66 147Q101 147 141 141T215 135Q265 135 346 204T528 386T731 625Q686 732 637 841T544 1045T473 1196Q455 1231 442 1257T395 1284Q352 1284 281 1239Q261
1226 240 1216T174 1181T35 1102V1212Q181 1296 268 1346T400 1423T465 1462T498 1483Q521 1497 545 1507T594 1518Q625 1518 653 1498T705 1427Q716 1401 749 1318T828 1117T926 868Q963 915 997 957T1063 1038Q1158 1169 1219 1248T1321 1372T1394 1445T1464
1501Q1490 1518 1532 1518Q1566 1518 1594 1505T1622 1462Q1622 1427 1586 1393T1489 1312T1355 1195T1210 1018Q1160 951 1102 877T981 727L1087 459Q1163 288 1210 212T1307 135Q1363 135 1442 217T1665 440L1667 328Q1563 217 1479 130T1323 -7T1186 -57Q1094
-57 1005 60T805 451L786 494Q677 365 593 270T487 150Q447 104 397 56T280 -26T123 -59Z" />
<glyph unicode="Y" glyph-name="Y" horiz-adv-x="1554" d="M442 -774Q376 -774 309 -751T197 -682T152 -565Q152 -501 203 -473L1012 -41L1171 457Q1090 363 990 278T788 126T594 21T438 -18Q394 -18 355 6T291 88T266 248Q266 356 300 494T384 778T477 1053L584
1364L276 1151L266 1145Q258 1137 254 1137Q242 1137 232 1146T221 1174Q221 1186 223 1197T242 1219L653 1487Q678 1504 708 1511T764 1518Q792 1518 810 1511T829 1489Q829 1467 808 1401T758 1225Q730 1113 691 984T613 732T550 510T524 358Q524 323 547 286T602
248Q671 248 764 284T952 387T1117 543T1214 739L1305 1114Q1307 1125 1317 1165T1342 1258T1371 1362T1401 1449T1423 1487H1640L1286 86L1673 440V328L1268 -33Q1219 -161 1147 -291T975 -531T743 -707T442 -774ZM553 -694Q604 -694 665 -656T787 -555T895 -415T965
-260L1001 -139L723 -301Q620 -349 545 -413T469 -547Q469 -619 495 -654T553 -694Z" />
<glyph unicode="Z" glyph-name="Z" horiz-adv-x="1450" d="M1044 -57Q1037 -57 1025 -51T972 -26T837 26T573 117Q485 59 385 15T211 -29Q204 -29 178 -22T127 6T102 72Q102 109 127 136T184 183T236 211L483 322Q530 383 592 465T721 655L1167 1376Q1089 1384
995 1388T786 1393Q683 1393 585 1374T424 1329T360 1280Q360 1228 374 1179T422 1100Q422 1087 398 1077T354 1061Q231 1107 174 1191T117 1370Q117 1421 310 1469T918 1518Q1019 1518 1097 1512T1247 1496T1405 1481L1448 1384Q1394 1300 1317 1164T1143 869T934
550T698 260Q741 247 816 224T976 176T1130 136T1231 119Q1264 119 1315 145Q1322 148 1354 166T1427 211T1503 268V168Q1421 121 1348 69T1202 -20T1044 -57Z" />
<glyph unicode="[" glyph-name="bracketleft" horiz-adv-x="983" d="M57 -199Q48 -199 41 -187T33 -162Q33 -156 33 -147T35 -133L438 1479Q448 1514 469 1525T518 1536H944Q960 1536 968 1520T977 1487Q977 1470 963 1453T928 1430Q907 1430 853 1428T742 1423T653
1421Q653 1421 638 1360T596 1194T536 960T468 689T399 417T339 176T296 0T279 -76Q311 -76 368 -76T479 -75T555 -74Q569 -77 575 -88T582 -113Q582 -129 562 -147T520 -180Q407 -183 304 -185T86 -190Q68 -199 57 -199Z" />
<glyph unicode="\" glyph-name="backslash" horiz-adv-x="821" d="M907 -182Q837 -182 801 -150T747 -75T713 -2L-66 1554Q-67 1559 -69 1571T-72 1587Q-72 1600 -65 1610T-51 1620Q11 1620 47 1604T107 1543T158 1415Q161 1406 195 1338T286 1162T410 923T548
653T682 388T793 162T860 8Q877 -35 903 -71T930 -152Q930 -182 907 -182Z" />
<glyph unicode="]" glyph-name="bracketright" horiz-adv-x="989" d="M496 -197Q486 -197 471 -188Q359 -186 259 -184T45 -178Q30 -164 20 -146T16 -111Q23 -98 34 -87T61 -72Q83 -72 136 -72T247 -73T336 -74Q332 -73 346 -12T386 154T445 389T515 660T585 932T648
1172T693 1347T711 1423Q679 1423 622 1423T510 1422T434 1421Q421 1424 415 1436T408 1460Q408 1477 427 1495T469 1528Q583 1531 686 1534T903 1538Q923 1546 932 1546Q941 1546 948 1535T956 1509Q956 1503 956 1495T954 1481L551 -131Q551 -135 547 -144T539
-160Q532 -173 519 -185T496 -197Z" />
<glyph unicode="^" glyph-name="asciicircum" horiz-adv-x="1706" d="M1403 709Q1394 722 1368 767T1308 874T1238 1003T1170 1125T1120 1214Q1089 1182 1038 1127T929 1006T815 880T719 775T664 717L604 760Q630 806 685 882T809 1045T946 1207T1069 1333T1149
1382Q1165 1382 1195 1337T1261 1221T1335 1069T1404 917T1455 799T1475 750L1403 709Z" />
<glyph unicode="_" glyph-name="underscore" horiz-adv-x="930" d="M129 -90Q122 -90 97 -86T72 -49Q72 -2 88 15T121 37Q139 39 189 42T307 49T445 56T575 61T668 63Q752 63 814 55T877 23Q877 -5 847 -39T776 -74Q739 -74 705 -73T639 -72Q616 -72 585 -72T501
-74T358 -79T129 -90Z" />
<glyph unicode="`" glyph-name="grave" horiz-adv-x="1706" d="M604 910Q568 923 504 945T362 995T206 1053L118 1088Q100 1093 100 1117Q100 1137 116 1160T158 1201T206 1219Q248 1217 305 1190T424 1122T538 1039T626 965L604 910Z" />
<glyph unicode="a" glyph-name="a" horiz-adv-x="928" d="M150 -29Q87 -29 54 13T8 114T-4 225Q-4 336 48 445T193 643T404 786T657 840Q702 840 742 831T825 807Q823 795 811 743T783 617T752 469T726 335T715 250Q715 186 745 186Q772 186 818 223T925 321T1051
455V340Q1027 311 982 266T879 169T765 73T658 0T578 -29Q533 -29 518 11T502 102Q502 128 504 153T510 199Q469 146 412 93T288 6T150 -29ZM307 131Q338 131 377 154T456 210T522 272L637 764Q553 764 476 719T339 602T244 445T209 281Q209 223 230 177T307 131Z"
/>
<glyph unicode="b" glyph-name="b" horiz-adv-x="986" d="M291 -57Q198 -57 153 -30T93 41T78 133Q78 277 107 426T185 744T287 1108Q307 1180 350 1262T455 1416T589 1535T741 1581Q826 1581 860 1545T895 1450Q895 1381 850 1281T696 1046T395 733Q377 658 353
569T311 393T293 236Q293 165 318 121T410 76Q464 76 521 110T628 198T707 316T737 436Q737 508 680 554T481 600Q491 636 529 677T616 747T702 776Q813 776 863 712T913 547Q913 488 901 415T857 272T768 156Q813 182 871 230T989 334T1092 436L1080 308Q1040
263 971 202T804 81T577 -18T291 -57ZM430 924Q481 956 536 1015T638 1146T715 1284T745 1399Q745 1466 678 1466Q657 1466 626 1418T561 1297T497 1146T449 1007T430 924Z" />
<glyph unicode="c" glyph-name="c" horiz-adv-x="713" d="M227 -29Q106 -29 51 46T-4 231Q-4 327 33 433T140 631T302 782T508 840Q543 840 590 832T672 798T707 717Q707 674 670 645T575 616Q554 616 542 635T517 679T485 724T432 743Q387 743 348 705T278 607T232
475T215 338Q215 256 245 199T344 141Q447 141 576 222T823 442V330Q774 264 703 200T551 85T386 2T227 -29Z" />
<glyph unicode="d" glyph-name="d" horiz-adv-x="923" d="M147 -29Q89 -29 60 6T20 91T10 182Q10 290 58 405T184 619T357 779T545 840Q594 840 625 833T676 819L809 1294Q826 1362 842 1398T897 1447T1022 1460H1057Q1056 1447 1045 1402T1022 1321Q1006 1273
980 1185T921 988T858 763T800 545T757 366T741 262Q741 224 748 212T772 199Q797 199 869 271T1036 443V329Q985 271 924 209T802 92T690 5T606 -29Q560 -29 542 9T524 104Q524 168 541 238Q427 105 319 38T147 -29ZM303 158Q338 158 381 179T466 232T536 295T569
344L657 731Q656 736 632 753T563 770Q496 770 435 724T325 604T249 446T221 285Q221 214 243 186T303 158Z" />
<glyph unicode="e" glyph-name="e" horiz-adv-x="744" d="M292 -31Q171 -31 99 49T27 258Q27 366 62 470T163 657T319 790T518 840Q616 840 685 802T754 664Q754 587 711 523T599 420T455 381Q413 381 363 406T274 489Q231 399 231 313Q231 253 245 201T297 115T399
82Q446 82 504 120T624 215T745 333T852 438V328Q714 166 577 68T292 -31ZM471 467Q530 467 572 525T614 653Q614 710 589 730T520 750Q461 750 416 716T343 639T303 565Q338 519 382 493T471 467Z" />
<glyph unicode="f" glyph-name="f" horiz-adv-x="463" d="M-74 -345Q-57 -216 -28 -60T37 264T112 598T189 916T262 1190Q280 1253 341 1316T484 1423T649 1466Q695 1466 714 1443T738 1388T743 1325Q743 1219 706 1115T609 913T484 729T359 572T263 450T225 371Q225
322 255 280T328 238Q343 238 376 261T448 318T521 386T575 444V328Q543 289 493 243T392 164T303 131Q274 131 244 144T199 193Q197 184 188 134T166 12T138 -134T112 -266T94 -345H-74ZM274 586Q319 657 377 742T490 917T580 1095T616 1255Q616 1293 604 1325T547
1358Q509 1358 474 1297T407 1140T350 937T305 736T274 586Z" />
<glyph unicode="g" glyph-name="g" horiz-adv-x="938" d="M293 -547Q251 -547 208 -532T134 -484T104 -403Q104 -348 152 -307T260 -219L537 -6L569 164Q478 83 412 42T292 -14T186 -29Q142 -29 112 1T67 78T51 172Q51 284 92 401T208 618T386 779T612 840Q674
840 760 827T911 801L758 154Q821 213 868 257T958 345T1051 445V329Q977 247 897 171T737 23Q706 -153 632 -281T467 -478T293 -547ZM367 131Q453 131 584 279L700 766Q663 775 642 779T602 784Q532 784 472 741T367 629T296 480T270 324Q270 226 296 179T367
131ZM324 -492Q380 -492 420 -442T486 -307T524 -117L360 -256Q325 -285 288 -318T250 -424Q250 -464 268 -478T324 -492Z" />
<glyph unicode="h" glyph-name="h" horiz-adv-x="881" d="M587 -29Q549 -29 536 -6T523 47Q523 56 524 67T527 88Q530 115 547 174T586 308T624 459T640 598Q640 655 583 655Q537 655 488 619T394 523T314 392T261 252Q236 154 214 92T157 0H1Q5 28 23 106T69
295T129 528T194 771T252 989T294 1145T310 1204Q336 1299 356 1351T399 1427T455 1456T542 1462Q554 1462 567 1462T587 1458L325 510Q372 597 442 672T593 794T753 840Q851 840 851 723Q851 688 832 627T787 494T742 353T722 233Q722 233 724 218T741 203Q749
203 775 228T840 291T920 371T999 444V332Q963 291 908 231T793 111T677 11T587 -29Z" />
<glyph unicode="i" glyph-name="i" horiz-adv-x="469" d="M106 -29Q58 -29 38 13T18 102Q18 134 29 197T58 337T95 489T131 622T157 702Q178 756 208 777T281 803T378 807Q368 773 349 711T308 574T266 424T233 289T220 199Q220 185 226 159T255 133Q267 133 309
170T406 259T508 362T579 438V326Q410 160 304 68T106 -29ZM375 1044Q333 1044 315 1067T297 1122Q297 1156 314 1192T363 1254T436 1280Q495 1280 521 1257T547 1202Q547 1168 523 1131T460 1069T375 1044Z" />
<glyph unicode="j" glyph-name="j" horiz-adv-x="442" d="M-346 -791Q-392 -791 -414 -758T-440 -677T-440 -588Q-425 -500 -378 -415T-270 -254T-152 -122T-56 -31T-18 2L20 137Q30 190 48 274T87 447T126 606T154 702Q175 756 205 777T277 803T375 807Q365 773
344 702T298 541T249 364T210 206T195 106Q206 111 262 158T400 279T567 440V328Q457 216 356 123T158 -16Q138 -112 125 -175T100 -287T76 -388T41 -514Q24 -576 -37 -640T-181 -748T-346 -791ZM-244 -682Q-206 -682 -176 -642T-122 -537T-80 -395T-48 -246T-23
-117Q-113 -224 -166 -295T-248 -414T-290 -500T-313 -580Q-323 -615 -306 -648T-244 -682ZM371 1044Q329 1044 311 1067T293 1122Q293 1156 310 1192T359 1254T432 1280Q491 1280 517 1257T543 1202Q543 1168 519 1131T456 1069T371 1044Z" />
<glyph unicode="k" glyph-name="k" horiz-adv-x="905" d="M590 -29Q533 -29 515 13T496 113Q496 163 503 215T510 303Q510 330 494 348T431 377T289 387L283 360Q282 353 271 307T242 198T199 81T145 0H-10Q-7 28 11 106T58 295T118 528T182 771T240 989T283 1145T299
1204Q325 1299 344 1351T387 1427T443 1456T530 1462Q543 1462 555 1462T575 1458Q557 1394 529 1296T470 1090T410 888T365 734T348 674Q425 765 515 802T696 840Q756 840 792 799T829 698Q829 612 790 564T682 487T522 424Q595 424 630 400T675 339T686 262Q686
243 685 224T684 188Q684 164 688 143T702 121Q709 121 719 131Q724 136 759 170T843 254T943 353T1028 440V328Q917 219 846 149T730 41T653 -13T590 -29ZM295 457H362Q401 457 450 468T546 501T621 560T651 647Q651 741 573 741Q546 741 502 714T412 644T333
551T295 457Z" />
<glyph unicode="l" glyph-name="l" horiz-adv-x="593" d="M160 -29Q115 -29 96 9T74 103T70 207Q70 338 94 485T161 782T261 1065T386 1305T527 1471T674 1532Q740 1532 777 1487T814 1372Q814 1245 777 1125T681 899T556 706T432 555T336 457T298 422Q298 422
293 380T283 283T277 188Q277 176 281 147T312 117Q327 117 373 157T479 258T598 382T701 494V382Q518 165 393 68T160 -29ZM324 618Q415 700 485 804T603 1012T676 1202T701 1331Q701 1356 694 1386T658 1417Q600 1417 547 1321T439 1046T324 618Z" />
<glyph unicode="m" glyph-name="m" horiz-adv-x="1348" d="M1013 -31Q954 -31 954 57Q954 126 975 194T1023 327T1072 457T1093 582Q1093 608 1075 631T1027 655Q975 655 925 602T830 465T748 291T684 121T646 0H454Q454 100 479 196T535 388T583 578Q585 584
585 590T585 600Q585 629 571 644T538 659Q529 659 517 655Q461 629 412 568T320 426T244 262T189 109T157 0H-34Q-31 45 -19 124T13 298T55 485T101 650T147 758Q167 792 213 799T353 807Q335 716 302 622T243 440Q277 499 323 568T427 698T552 799T696 838Q726
838 742 815T766 760T773 705Q773 638 756 570T720 440Q752 504 801 573T912 703T1040 802T1175 840Q1241 840 1264 796T1287 686Q1287 619 1274 549T1242 417T1208 313T1191 260Q1190 251 1189 244T1187 231Q1187 209 1199 209Q1225 209 1293 276T1459 440V327Q1410
270 1345 208T1214 91T1094 3T1013 -31Z" />
<glyph unicode="n" glyph-name="n" horiz-adv-x="838" d="M508 -29Q456 -29 442 -2T428 47Q428 127 450 209T503 366T555 502T578 600Q578 626 566 640T539 655Q490 655 440 603T344 469T259 296T194 126T156 0H-35Q-34 46 -23 120T8 280T50 453T94 611T133 727Q153
780 192 793T283 807H350Q350 807 339 767T310 667T274 547T242 444Q272 500 322 568T437 698T571 800T709 840Q807 840 807 723Q807 692 793 638T758 521T716 396T680 288T666 223Q666 205 678 205Q691 205 713 219Q726 228 757 256T825 321T896 389T948 436V324Q924
300 880 258T782 166T675 72T577 0T508 -29Z" />
<glyph unicode="o" glyph-name="o" horiz-adv-x="867" d="M336 -29Q227 -29 161 23T66 156T36 317Q36 488 115 610T336 797T667 862Q687 862 689 849Q689 834 687 826T667 806Q522 806 429 745T290 583T245 367Q245 249 301 190T431 131Q478 131 529 160T629 253Q556
298 518 367T480 504Q480 578 525 630T673 682Q763 682 802 630T841 506Q841 448 815 388T741 284H748Q807 284 866 335T998 462V352Q939 272 869 241T749 210Q733 210 700 214Q546 -29 336 -29ZM686 320Q706 342 726 396T746 494Q746 532 729 559T664 586Q621
586 602 558T583 489Q583 447 612 398T686 320Z" />
<glyph unicode="p" glyph-name="p" horiz-adv-x="836" d="M-157 -433Q-103 -244 -65 -46T18 348T133 727Q155 784 191 795T283 807H350Q298 626 242 444Q269 499 316 566T424 696T553 799T688 840Q757 840 787 797T817 688Q817 622 792 542T726 384T633 242T528
145Q553 145 586 152T669 190T796 289T983 481V366Q877 249 788 164T605 31T395 -16Q360 -16 348 0T336 44Q336 71 362 103T416 168Q454 212 495 286T565 438T594 573Q594 611 579 633T528 655Q469 655 417 606T320 474T237 290T166 84L139 -2Q99 -139 70 -255T23
-433H-157Z" />
<glyph unicode="q" glyph-name="q" horiz-adv-x="897" d="M521 -510L331 -449L481 -47Q453 -51 426 -53T373 -55Q284 -55 212 -27T98 70T55 258Q55 355 89 457T188 646T348 786T565 840Q606 840 659 827T767 796T864 760L711 151Q778 226 828 272T925 359T1023
459L1022 342L685 -31Q680 -51 665 -100T630 -211T589 -336T550 -445T521 -510ZM424 61Q439 61 457 63T496 72L653 766Q616 775 595 779T555 784Q494 784 441 737T348 615T285 455T262 291Q262 191 299 126T424 61Z" />
<glyph unicode="r" glyph-name="r" horiz-adv-x="639" d="M269 -29Q222 -29 202 13T181 102Q181 134 204 201T259 348T321 494T363 590Q318 540 287 508T228 450T169 390T89 302V418L292 647Q190 672 158 710T126 764Q126 830 177 885T320 940Q365 940 365 887Q365
858 348 821T304 770Q330 747 371 738T462 729Q485 729 521 736T582 743Q611 743 611 729Q611 721 609 717Q591 674 555 599T479 438T412 280T384 168Q384 157 388 147T405 137Q419 137 464 174T567 263T675 366T750 441V327Q693 260 626 197T491 82T365 1T269
-29Z" />
<glyph unicode="s" glyph-name="s" horiz-adv-x="645" d="M190 -29Q135 -29 71 -15T-40 37T-86 143Q-86 185 -59 232T8 326T87 415T152 488Q125 555 125 623Q125 719 210 790T482 862Q497 862 521 856T545 827Q545 782 506 753T412 710T307 696Q330 633 369 586T448
502T517 433T545 367Q545 293 475 197Q549 261 623 317T772 460V344Q735 298 668 235T517 111T348 11T190 -29ZM201 47Q263 47 305 69T348 135Q348 183 323 231T262 326T195 410Q174 387 131 347T52 262T16 184Q16 142 44 112T115 64T201 47Z" />
<glyph unicode="t" glyph-name="t" horiz-adv-x="545" d="M144 -29Q73 -29 49 20T25 137Q25 193 35 246T51 332Q62 387 69 421T86 489T109 580T146 735Q115 735 84 738T53 778Q53 789 57 795T90 805L174 813Q210 931 249 1028T349 1183T512 1241L516 1237Q516
1233 500 1188T461 1076T414 938T375 813L680 827L658 791Q647 770 594 760T474 748T359 745Q358 745 346 701T316 588T280 448T250 316T238 233Q238 196 245 169T287 141Q306 141 360 181T494 291T668 451V340Q614 282 548 218T412 97T273 6T144 -29Z" />
<glyph unicode="u" glyph-name="u" horiz-adv-x="993" d="M146 -29Q78 -29 54 23T29 139Q29 168 33 197T43 250Q68 344 111 485T209 782Q211 795 245 800T318 806T371 807H406Q406 804 390 752T349 622T300 462T259 313T242 219Q242 178 261 162T309 145Q351 145
404 170T499 225T549 272L657 688Q674 751 696 775T747 803T811 807H879Q879 807 866 760T833 639T792 487T753 343T729 246Q728 232 725 207T721 156Q721 142 725 136T746 129Q768 129 821 170T948 282T1106 443V330Q1054 268 990 205T858 88T727 3T613 -29Q562
-29 545 11T527 102Q527 157 537 195Q479 139 412 88T276 4T146 -29Z" />
<glyph unicode="v" glyph-name="v" horiz-adv-x="778" d="M235 -29Q172 -29 130 52T66 265T44 543Q44 571 45 631T57 758Q59 776 83 786T138 801T192 806T214 807H294Q288 775 281 719T269 599T263 479Q263 382 278 300T316 167T364 117Q379 117 399 142T442 202T484
270T513 319Q511 319 511 348Q511 416 520 500T549 661T600 789T677 840Q705 840 716 814T728 743Q728 686 713 611T678 464T640 337T616 268L636 213Q668 219 732 282T896 446V334Q846 282 797 233T704 151T628 119Q608 119 587 149T552 211Q509 134 470 81T377
-1T235 -29Z" />
<glyph unicode="w" glyph-name="w" horiz-adv-x="1133" d="M213 -29Q123 -29 73 31T23 174Q23 248 59 394T158 729Q172 769 204 785T269 804T316 807H375Q367 773 345 709T299 564T256 400T238 246Q238 176 264 138T334 100Q395 100 461 160V174Q461 203 468 257T491
375T530 495T585 588T656 625Q684 625 695 605T707 553Q707 505 689 441T653 322T635 246Q635 176 661 138T732 100Q758 100 789 127T846 200T879 297Q885 325 889 388T902 527T927 675T974 793T1053 840Q1070 840 1081 806T1098 727T1104 647Q1104 605 1090 549T1057
439T1024 351T1010 315Q1025 279 1049 279Q1074 279 1117 317T1246 442V329Q1187 262 1137 218T1045 174Q1007 174 969 229Q941 162 896 103T789 8T652 -29Q589 -29 545 0T480 78Q429 30 362 1T213 -29Z" />
<glyph unicode="x" glyph-name="x" horiz-adv-x="903" d="M78 -55Q49 -55 32 -37T15 10Q15 28 41 45T102 83T160 133L346 356L197 645Q193 654 186 662T168 670Q157 670 120 641T43 576T-18 516L-41 571Q-10 609 32 655T122 742T215 811T297 838Q351 838 375 797Q384
780 418 706T498 539L637 707Q691 779 739 809T822 840Q851 840 868 822T885 774Q885 755 858 738T797 700T740 651Q706 608 658 551T553 428Q595 346 634 277T705 176Q707 174 711 174Q726 174 761 201T843 270T935 359T1016 444V328Q959 267 898 204T778 89T671
4T592 -29Q558 -29 532 8T477 102L402 248Q365 205 330 162T262 78Q206 6 160 -24T78 -55Z" />
<glyph unicode="y" glyph-name="y" horiz-adv-x="860" d="M195 -489Q153 -489 110 -470T36 -416T6 -332Q6 -276 51 -235T162 -156L463 35L496 195Q438 139 370 88T234 4T103 -29Q36 -29 11 23T-14 139Q-14 198 10 295T76 517T166 782Q168 795 202 800T275 806T328
807H363Q363 804 347 752T306 622T257 462T216 313T199 219Q199 178 218 162T266 145Q308 145 361 170T456 225T506 272L615 688Q631 751 653 775T704 803T768 807H836Q826 778 805 706T759 543T711 367T673 224T656 164L668 174Q735 230 784 271T877 351T973 440V328Q897
246 810 174T639 27V23Q608 -153 534 -266T369 -434T195 -489ZM230 -420Q324 -420 377 -324T451 -88L266 -205Q228 -228 192 -259T156 -338Q156 -420 230 -420Z" />
<glyph unicode="z" glyph-name="z" horiz-adv-x="737" d="M106 -535Q21 -535 -37 -486T-95 -347Q-95 -202 29 -103T378 70Q354 76 320 82T259 96T233 111Q233 128 252 175T301 287T364 423T427 561L366 575Q342 551 298 509T202 417T104 322V432L298 637Q266 654
246 683T225 770Q225 804 247 843T311 911T413 940Q428 940 446 930T464 891Q464 848 449 822T419 784T403 772Q426 749 466 739T558 729Q580 729 616 736T677 743Q693 743 698 733T704 713Q704 702 702 700L567 418Q539 354 513 301T470 213Q517 196 525 174T534
152Q580 182 639 235T756 348T861 453L902 387Q747 210 656 137T564 63Q551 -100 494 -236T340 -453T106 -535ZM163 -428Q203 -428 250 -388T339 -284T409 -145T440 -4Q359 -47 292 -75T174 -130T97 -199T69 -311Q69 -349 91 -388T163 -428Z" />
<glyph unicode="{" glyph-name="braceleft" horiz-adv-x="813" d="M369 -131Q272 -131 209 -69T116 97T86 319Q86 330 87 340T88 360Q91 427 104 491T121 629Q121 684 109 696T78 706T35 711L61 887Q84 886 100 886T139 885Q184 885 192 931T219 1047Q259 1198
323 1321T485 1519T723 1593Q761 1593 801 1587L780 1473Q756 1481 731 1481Q667 1481 613 1433T516 1308T443 1146T397 985Q380 904 356 864T299 808T225 782Q281 750 300 717T319 639Q319 567 305 471T291 281Q291 198 303 127T346 13T428 -31Q440 -31 454 -29T481
-20L469 -115Q441 -124 417 -127T369 -131Z" />
<glyph unicode="|" glyph-name="bar" horiz-adv-x="739" d="M90 -170Q90 -170 95 -146T107 -89T119 -33Q126 0 147 89T199 304T263 570T331 850T393 1103T439 1292T459 1374Q473 1437 481 1467T509 1508T573 1518Q645 1518 645 1513L268 -43Q262 -67 259 -97T245
-148T203 -170H90Z" />
<glyph unicode="}" glyph-name="braceright" horiz-adv-x="813" d="M90 -131Q53 -131 12 -125L33 -10Q57 -18 82 -18Q146 -18 200 30T296 155T369 317T416 477Q433 558 457 598T514 655T588 680Q533 712 514 745T494 821Q494 895 508 991T522 1182Q522 1265 510
1336T467 1450T385 1493Q373 1493 360 1491T332 1483L344 1577Q372 1586 397 1589T444 1593Q542 1593 604 1531T695 1366T725 1143V1102Q722 1036 709 971T692 834Q692 779 704 766T736 756T778 752L752 575Q729 577 713 577T674 578Q629 578 621 532T594 416Q554
266 490 142T329 -57T90 -131Z" />
<glyph unicode="~" glyph-name="asciitilde" horiz-adv-x="1200" d="M937 901Q930 972 910 1001T861 1030Q794 1030 715 999T547 937T363 905Q296 905 260 942T209 1030T192 1120T187 1167L296 1188Q302 1116 324 1091T378 1065Q450 1065 537 1094T715 1152T886
1182Q954 1182 989 1145T1040 1057T1058 967T1062 920L937 901Z" />
<glyph unicode="&#xa0;" glyph-name="uni00A0" horiz-adv-x="389" />
<glyph unicode="&#xa1;" glyph-name="exclamdown" horiz-adv-x="608" d="M582 1311Q522 1311 497 1334T471 1389Q471 1424 494 1460T556 1521T641 1546Q684 1546 702 1523T721 1468Q721 1435 703 1399T654 1337T582 1311ZM156 0Q123 0 123 53Q123 70 143 136T195
299T267 508T346 730T418 931T472 1078T494 1139Q505 1144 525 1146T547 1149Q562 1149 565 1141T569 1120Q569 1111 569 1102T567 1083L416 221Q411 184 402 132T378 40T338 0H156Z" />
<glyph unicode="&#xa2;" glyph-name="cent" horiz-adv-x="778" d="M170 -494Q141 -494 141 -465Q141 -449 144 -432T152 -389L160 -336Q175 -261 201 -145T256 96Q126 104 67 178T8 356Q8 442 41 536T134 717T278 866T463 952L541 1270Q563 1357 573 1398T592
1453T616 1466Q621 1466 636 1460T651 1430L543 963Q548 963 552 964T561 965Q596 965 643 957T725 923T760 842Q760 799 723 770T629 741Q606 741 592 765T563 818T518 860L381 266H397Q463 266 541 307T698 410L739 330Q644 247 543 183T342 102L236 -360Q229
-392 226 -423T212 -474T170 -494ZM301 291Q306 316 311 338T324 383L440 860Q379 841 331 776T255 627T227 463Q227 408 244 363T301 291Z" />
<glyph unicode="&#xa3;" glyph-name="sterling" horiz-adv-x="1368" d="M733 -57Q726 -57 714 -51T661 -26T526 26T262 117Q173 59 74 15T-100 -29Q-107 -29 -134 -22T-185 6T-209 72Q-209 104 -180 126T-113 164T-55 190L207 309L238 420L94 414Q87 414 62 418T37
455Q37 502 54 519T86 541Q101 544 152 548T276 557L301 647L135 639Q128 639 103 643T78 680Q78 727 94 744T127 766Q142 769 201 774T340 784L438 1137Q455 1197 489 1226T571 1290Q594 1307 648 1344T768 1421T894 1489T991 1518Q1077 1518 1154 1470T1280 1343T1329
1178Q1329 1152 1322 1133T1292 1102Q1227 1069 1140 1021T966 925T813 846Q801 840 791 840Q774 840 765 852T756 881Q756 906 791 930T879 980T984 1031T1073 1087T1110 1147Q1109 1147 1101 1188T1075 1282T1024 1376T940 1417Q902 1413 854 1371T759 1271T681
1156T641 1067Q628 1001 613 933T580 793H612Q697 793 759 785T821 752Q821 724 791 690T721 655Q684 655 650 656T584 657H543Q530 609 516 565Q541 567 564 567T612 567Q697 567 759 559T821 526Q821 498 791 464T721 430Q684 430 650 431T584 432Q564 432 538
432T471 430Q458 389 442 349T408 266Q429 260 448 253T489 240Q507 235 564 216T694 175T829 136T920 119Q953 119 1004 145Q1011 148 1043 166T1116 211T1192 268V168Q1110 121 1037 69T891 -20T733 -57Z" />
<glyph unicode="&#xa4;" glyph-name="currency" horiz-adv-x="1176" d="M946 270Q925 270 903 280T864 313L719 504Q622 457 514 457Q465 457 417 468T326 502L250 412Q222 378 184 337T111 295Q98 295 71 308T43 344Q43 375 52 389T76 417T109 457Q141 506 215
598Q186 639 169 694T152 819Q152 904 182 986T270 1130L174 1257Q172 1259 158 1274T129 1312T115 1360Q115 1375 130 1403T180 1432Q208 1432 257 1378T387 1217Q431 1238 482 1251T594 1264Q650 1264 697 1251T784 1217Q796 1230 822 1262T873 1327T907 1376Q907
1378 930 1405T995 1432Q1038 1432 1090 1386Q1090 1385 1086 1372T1077 1354L885 1126Q956 1031 956 901Q956 801 922 721T829 584Q874 525 900 493T943 440T976 401T1018 346Q1024 337 1024 326Q1024 304 1001 287T946 270ZM522 608Q606 608 665 651T756 760T788
893Q788 981 741 1046T584 1112Q501 1112 444 1069T358 958T328 821Q328 769 346 720T408 640T522 608Z" />
<glyph unicode="&#xa5;" glyph-name="yen" horiz-adv-x="1546" d="M430 -436Q414 -436 409 -421T403 -391Q403 -354 412 -310T430 -225Q436 -176 445 -127T463 -27L250 -37Q243 -37 218 -33T193 4Q193 52 209 69T242 90Q262 93 330 97T492 106L510 197L291 188Q284
188 259 192T233 229Q233 277 250 294T283 315Q300 318 353 322T479 330Q450 446 415 579T362 840Q347 911 334 989T310 1138T287 1251L256 1233Q246 1227 230 1217T188 1192V1303Q307 1392 367 1441T455 1510T506 1530Q512 1530 522 1525T532 1509Q532 1511 538
1469T555 1354T580 1194T611 1016T645 848Q666 714 687 610T724 447T739 387Q739 387 783 427T894 532T1034 674T1164 827T1245 963Q1217 968 1171 989T1078 1049T999 1147T967 1286Q967 1344 988 1407T1056 1514T1182 1559Q1243 1559 1281 1518T1341 1412T1372
1279T1382 1151T1384 1063Q1384 1063 1421 1073T1517 1113T1640 1200V1085Q1599 1054 1528 1014T1372 958Q1356 891 1307 812T1189 650T1044 488T897 342H911Q996 342 1058 334T1120 301Q1120 273 1090 239T1020 205Q983 205 949 206T883 207H793L772 115Q797 115
821 116T870 117Q955 117 1017 109T1079 76Q1079 48 1049 14T979 -20Q942 -20 908 -19T842 -18Q823 -18 800 -17T743 -18L702 -215Q694 -251 682 -303T651 -395T608 -436H430ZM1255 1069Q1255 1078 1256 1088T1257 1108Q1257 1169 1244 1231T1207 1337T1147 1380Q1113
1380 1103 1357T1092 1307Q1092 1210 1141 1147T1255 1069Z" />
<glyph unicode="&#xa6;" glyph-name="brokenbar" horiz-adv-x="739" d="M467 858Q376 858 357 865T338 881L459 1374Q474 1437 482 1467T508 1508T573 1518Q645 1518 645 1513L492 881Q487 858 467 858ZM203 -170Q148 -170 126 -164T100 -152T96 -145L262 571Q268
600 311 600Q343 600 379 589T416 571L268 -43Q259 -80 244 -125T203 -170Z" />
<glyph unicode="&#xa7;" glyph-name="section" horiz-adv-x="1069" d="M356 -57Q295 -57 231 -35T124 33T80 150Q80 208 123 241T223 276L260 279Q259 262 258 240T256 195Q256 151 262 112T303 48T422 23Q467 23 525 49T627 123T670 238Q670 302 623 353T505
448T365 532T247 613T199 700Q199 808 256 890T401 1026Q357 1063 329 1103T301 1188Q301 1283 354 1354T492 1472T671 1543T850 1567Q911 1567 979 1545T1096 1468T1145 1317Q1145 1309 1111 1285T1024 1229T917 1166T818 1113T760 1085V1169Q781 1181 818 1198T895
1236T961 1276T989 1315Q989 1412 937 1448T809 1485Q743 1485 668 1459T540 1382T487 1260Q487 1204 534 1161T652 1080T791 1000T908 907T956 784Q956 677 904 597T768 461Q820 406 831 342Q838 320 838 291Q838 206 792 141T672 32T515 -34T356 -57ZM692 526Q726
558 747 600T768 694Q768 746 724 791T613 880T479 969Q438 935 412 890T385 788Q385 735 434 693T555 612T692 526Z" />
<glyph unicode="&#xa8;" glyph-name="dieresis" horiz-adv-x="1706" d="M642 954Q599 954 581 977T562 1032Q562 1066 580 1102T629 1164T701 1190Q761 1190 786 1167T812 1112Q812 1078 789 1041T727 979T642 954ZM198 954Q156 954 138 977T120 1032Q120 1066
137 1102T186 1164T259 1190Q318 1190 344 1167T370 1112Q370 1078 346 1041T283 979T198 954Z" />
<glyph unicode="&#xa9;" glyph-name="copyright" horiz-adv-x="1819" d="M852 -57Q723 -57 593 -14T353 122T177 361T111 711Q111 853 167 995T333 1256T600 1446T961 1518Q1144 1518 1283 1454T1517 1280T1660 1033T1708 752Q1708 601 1656 457T1498 197T1231
12T852 -57ZM862 37Q1002 37 1131 87T1363 232T1525 460T1585 758Q1581 889 1538 1008T1415 1222T1219 1370T954 1425Q821 1425 691 1377T454 1238T285 1019T221 729Q221 547 278 416T429 201T636 77T862 37ZM811 266Q698 266 621 322T506 469T467 664Q467 783
507 892T621 1087T797 1222T1024 1272Q1084 1272 1137 1243T1223 1165T1257 1053Q1257 1033 1253 1020T1231 995Q1214 984 1165 958T1058 902T958 852T909 831Q896 831 889 842T881 866Q881 891 914 912T992 954T1070 994T1104 1036Q1104 1058 1091 1096T1056 1165T1006
1196Q921 1196 850 1153T727 1039T647 887T618 727Q618 641 645 566T731 445T885 399Q966 399 1043 431T1189 512T1313 616V522Q1248 460 1168 401T997 304T811 266Z" />
<glyph unicode="&#xaa;" glyph-name="ordfeminine" horiz-adv-x="885" d="M168 805Q121 805 96 836T62 913T53 997Q53 1081 92 1163T201 1313T361 1421T553 1462Q587 1462 616 1456T680 1438Q678 1429 669 1389T648 1294T624 1182T604 1080T596 1016Q596 969 621
969Q650 969 712 1024T850 1159V1075Q828 1051 781 1007T678 917T572 838T492 805Q458 805 446 836T434 905Q434 925 436 944T440 977Q394 916 321 861T168 805ZM289 926Q323 926 371 963T449 1032L539 1405Q475 1405 416 1371T312 1282T240 1163T213 1040Q213
994 230 960T289 926Z" />
<glyph unicode="&#xab;" glyph-name="guillemotleft" horiz-adv-x="1122" d="M506 35Q474 35 443 63T387 123Q329 196 270 272T163 417T85 538T55 616Q55 652 88 687T182 791L338 965Q369 999 403 1046T481 1129T580 1165Q598 1165 616 1155T635 1112Q635 1090
598 1057T502 969T381 829L227 649L367 438L459 313Q518 241 552 186T586 96Q586 75 567 55T506 35ZM879 76Q847 76 816 104T760 164Q687 253 616 345T497 511T449 616Q449 652 482 687T575 791L731 965Q762 999 797 1046T875 1129T973 1165Q991 1165 1009 1155T1028
1112Q1028 1090 991 1057T895 969T774 829L621 649L831 354Q890 282 924 227T958 137Q958 116 939 96T879 76Z" />
<glyph unicode="&#xae;" glyph-name="registered" horiz-adv-x="1819" d="M852 -57Q723 -57 593 -14T353 122T177 361T111 711Q111 853 167 995T333 1256T600 1446T961 1518Q1144 1518 1283 1454T1517 1280T1660 1033T1708 752Q1708 601 1656 457T1498 197T1231
12T852 -57ZM862 37Q1002 37 1131 87T1363 232T1525 460T1585 758Q1581 889 1538 1008T1415 1222T1219 1370T954 1425Q821 1425 691 1377T454 1238T285 1019T221 729Q221 547 278 416T429 201T636 77T862 37ZM535 297Q485 297 436 316T356 373T324 467Q324 500
349 517T407 540T465 547L485 545Q484 532 482 517T479 485Q479 447 493 414T549 381Q585 381 615 431T670 557T714 716T745 866T762 961Q770 1011 774 1045T802 1098T889 1116H938Q928 1030 913 944T881 772Q944 773 1013 802T1131 883T1180 1008Q1180 1068 1141
1108T1044 1168T936 1188Q899 1188 836 1180T707 1151T598 1096T553 1008Q553 966 587 944T653 909Q653 880 650 851T635 795Q588 809 543 836T468 903T438 999Q438 1063 475 1110T573 1190T702 1242T837 1271T950 1280Q1008 1280 1078 1266T1212 1220T1317 1139T1358
1016Q1358 925 1305 871T1174 786T1024 737Q1069 698 1098 644T1152 532T1206 424Q1208 421 1212 415T1221 408Q1236 408 1272 436T1350 504T1428 579T1479 629V545Q1454 515 1417 473T1336 391T1247 324T1159 297Q1100 297 1057 342T981 454T921 586T866 692Q848
627 825 558T765 429T673 334T535 297Z" />
<glyph unicode="&#xaf;" glyph-name="overscore" horiz-adv-x="1038" d="M157 963Q150 963 125 967T100 1004Q100 1051 116 1068T149 1090Q164 1094 223 1100T364 1111T532 1116Q617 1116 679 1108T741 1075Q741 1047 711 1013T641 979Q606 979 571 980T503 981Q481
981 450 980T352 976T157 963Z" />
<glyph unicode="&#xb0;" glyph-name="degree" horiz-adv-x="682" d="M313 973Q252 973 194 1000T97 1083T59 1227Q59 1303 94 1374T198 1491T369 1538Q454 1538 510 1502T595 1408T623 1284Q623 1187 579 1118T463 1011T313 973ZM319 1079Q378 1079 419 1109T483
1185T506 1278Q506 1340 473 1386T362 1432Q304 1432 264 1402T203 1324T182 1229Q182 1174 213 1127T319 1079Z" />
<glyph unicode="&#xb1;" glyph-name="plusminus" horiz-adv-x="1200" d="M534 314Q515 314 508 324T501 346Q501 364 506 371L553 572L309 559Q303 559 282 562T260 588Q260 642 288 662T329 686Q348 689 418 696T583 707L598 762Q607 809 618 857T641 961Q644
976 678 988T741 1000Q762 1000 762 946Q762 918 756 877T739 791L718 711Q743 713 768 713T819 713Q900 713 960 706T1020 676Q1020 658 1001 635T953 594T899 576Q862 576 828 577T762 578H684L630 363Q627 347 605 331T534 314ZM297 86Q289 86 264 90T239 127Q239
175 256 192T288 213Q303 216 347 220T448 229T555 237T630 240Q715 240 777 232T839 199Q839 171 809 137T739 103Q702 103 668 104T602 105Q582 105 555 104T469 100T297 86Z" />
<glyph unicode="&#xb2;" glyph-name="uni00B2" horiz-adv-x="817" d="M94 -20Q81 -20 64 -14T47 8Q47 24 64 43T94 76Q162 141 248 220T416 389T551 579T604 786Q604 887 575 937T479 987Q434 987 380 957T286 863T246 700Q269 667 292 653T332 629T348 596Q348
587 340 575T313 563Q303 563 271 581T203 625T140 673T113 705Q113 820 160 899T285 1021T455 1063Q558 1063 620 1031T713 952T755 862T766 795Q766 698 718 603T597 421T448 266T315 153T240 96Q317 109 398 129T557 150Q589 150 624 142T659 102Q659 85 651
56T628 4T594 -20Q542 -20 493 -11T391 -2Q318 -2 244 -11T94 -20Z" />
<glyph unicode="&#xb3;" glyph-name="uni00B3" horiz-adv-x="842" d="M311 -20Q259 -20 196 0T86 62T39 166Q39 212 71 242T147 272Q175 272 188 250T208 196T225 130T257 75T322 53Q387 53 438 99T519 214T549 346Q549 406 519 447T418 489H389Q371 489 359 496T346
528Q346 569 373 569T426 571Q485 579 532 627T607 742T635 868Q635 925 607 963T516 1001Q492 1001 456 981T385 930T325 864T301 801Q312 784 339 762T383 721Q383 709 377 697T356 684Q347 684 318 700T256 738T199 779T174 805Q174 868 220 927T341 1024T498
1063Q575 1063 642 1046T751 982T793 850Q793 778 758 719T668 616T555 549Q630 529 675 467T721 336Q721 231 659 151T503 26T311 -20Z" />
<glyph unicode="&#xb4;" glyph-name="acute" horiz-adv-x="1706" d="M123 940L100 995Q134 1027 188 1069T303 1151T421 1219T520 1249Q544 1249 568 1232T610 1191T627 1147Q627 1123 608 1118L520 1083Q443 1053 365 1025T223 975T123 940Z" />
<glyph unicode="&#xb5;" glyph-name="uni03BC" horiz-adv-x="993" d="M-25 -295Q-56 -295 -78 -277T-100 -225Q-100 -217 -100 -210T-96 -195Q-92 -180 -76 -131T-35 -9T15 146T66 307Q93 401 132 525T217 782Q219 795 253 800T326 806T379 807H414Q414 804 398
752T357 622T308 462T267 313T250 219Q250 178 269 162T317 145Q359 145 412 170T507 225T557 272L666 688Q682 751 704 775T755 803T819 807H887Q887 807 874 760T841 639T800 487T761 343T737 246Q736 232 733 207T729 156Q729 142 733 136T754 129Q776 129 829
172T956 286T1114 438V326Q1052 269 987 207T856 92T732 5T621 -29Q570 -29 553 11T535 102Q535 128 540 161T545 195Q519 154 466 102T347 10T217 -29Q186 -29 158 -18T104 23L82 -193Q76 -245 45 -270T-25 -295Z" />
<glyph unicode="&#xb6;" glyph-name="paragraph" horiz-adv-x="1217" d="M186 -29Q201 40 223 135T272 339T325 556T375 760Q248 781 169 865T90 1061Q90 1184 174 1288T434 1455T881 1518Q968 1518 1051 1515T1192 1507L1155 1391Q1111 1393 1048 1393T922 1393Q946
1385 962 1374T979 1339L805 614Q790 561 768 476T723 295T678 113T643 -29H479Q492 38 512 129T555 315T597 486T625 602Q651 713 679 830T734 1058T785 1255T823 1391Q792 1390 762 1386T705 1376Q617 1024 556 779T455 374T391 119T354 -29H186Z" />
<glyph unicode="&#xb7;" glyph-name="middot" horiz-adv-x="422" d="M158 569Q115 569 97 592T78 647Q78 681 96 717T145 779T217 805Q277 805 302 782T328 727Q328 692 305 656T243 594T158 569Z" />
<glyph unicode="&#xb8;" glyph-name="cedilla" horiz-adv-x="709" d="M116 -492L100 -430Q100 -430 121 -402T163 -318T184 -174Q144 -162 125 -139T106 -90Q106 -56 141 -28T245 0Q304 0 327 -31T350 -117Q350 -148 337 -205T295 -323T223 -432T116 -492Z" />
<glyph unicode="&#xb9;" glyph-name="uni00B9" horiz-adv-x="502" d="M88 0Q76 0 73 10T70 31Q70 57 76 88T88 147Q108 244 136 342T188 535Q229 694 249 774T277 885T287 920Q266 903 231 876T157 823T85 778T37 760Q18 765 18 786Q18 800 32 812T61 834Q162
899 251 953T436 1057Q448 1063 457 1063Q473 1063 473 1036V1016L279 156Q276 129 271 93T257 28T229 0H88Z" />
<glyph unicode="&#xba;" glyph-name="ordmasculine" horiz-adv-x="838" d="M264 803Q190 803 144 842T78 942T57 1065Q57 1189 117 1278T285 1414T537 1462Q552 1462 555 1454Q555 1442 553 1436T537 1419Q434 1419 367 1379T266 1275T233 1139Q233 1047 278 987T389
926Q418 926 450 942T514 993Q454 1031 425 1090T395 1206Q395 1263 429 1302T541 1341Q610 1341 640 1303T670 1208Q670 1159 651 1108T600 1018Q608 1015 614 1013T631 1010Q669 1010 710 1053T815 1161V1075Q761 1022 720 988T629 954Q615 954 600 956T567 965Q514
897 434 850T264 803ZM551 1049Q563 1069 579 1114T596 1200Q596 1228 583 1249T535 1270Q503 1270 488 1248T473 1196Q473 1159 493 1118T551 1049Z" />
<glyph unicode="&#xbb;" glyph-name="guillemotright" horiz-adv-x="1544" d="M743 106Q725 106 708 117T692 160Q694 183 734 216T838 303T971 442L1139 623L1018 834L936 958Q884 1031 854 1085T827 1176Q827 1196 889 1196Q921 1196 949 1168T999 1108Q1052
1035 1104 959T1199 813T1267 692T1290 614Q1289 589 1258 562T1174 481L1001 307Q969 274 930 227T845 143T743 106ZM338 137Q319 137 303 147T289 190Q290 213 330 246T432 334T565 473L735 653L549 948Q497 1020 467 1075T440 1165Q440 1186 500 1186Q532 1186
561 1158T612 1098Q678 1009 742 917T847 751T885 645Q884 619 854 592T768 512L598 338Q564 304 525 257T440 173T338 137Z" />
<glyph unicode="&#xbc;" glyph-name="onequarter" horiz-adv-x="1630" d="M197 -141Q172 -141 172 -117Q172 -92 187 -57T221 9T244 49Q270 99 319 192T432 406T565 655T699 909T819 1135T907 1301T946 1374Q994 1461 1019 1505T1076 1564T1176 1579Q1184 1579
1190 1569T1196 1546Q1196 1543 1194 1531T1190 1513L350 39Q334 11 310 -32T258 -108T197 -141ZM123 473Q111 473 108 483T105 504Q105 530 111 561T123 620Q143 717 171 815T223 1008Q264 1167 284 1247T312 1358T322 1393Q301 1376 266 1349T192 1296T120 1251T72
1233Q53 1238 53 1259Q53 1273 67 1285T96 1307Q197 1372 286 1426T471 1530Q483 1536 492 1536Q508 1536 508 1509V1489L314 629Q311 602 306 566T292 501T264 473H123ZM1052 0L1048 14Q1065 61 1083 109T1120 203Q1079 211 1030 219T921 238Q897 225 871 216T825
207Q820 207 802 212T766 232T749 279Q749 311 766 323T809 342L885 371L1091 846Q1121 931 1144 978T1203 1044T1308 1063Q1318 1063 1327 1061T1341 1049Q1265 877 1185 703T1018 346Q1042 339 1079 329T1161 311Q1186 374 1212 438T1263 567Q1276 586 1337 586H1401Q1398
572 1382 527T1342 422T1294 299Q1334 299 1371 306T1440 330Q1448 332 1492 358T1573 416L1607 356Q1552 316 1518 285T1454 233T1390 200T1296 188Q1286 188 1275 188T1251 190L1200 68Q1200 68 1195 51T1181 17T1161 0H1052Z" />
<glyph unicode="&#xbd;" glyph-name="onehalf" horiz-adv-x="1640" d="M172 -141Q147 -141 147 -117Q147 -92 163 -57T196 9T219 49Q245 99 294 192T407 406T540 655T674 909T794 1135T883 1301T922 1374Q970 1461 995 1505T1052 1564T1151 1579Q1159 1579 1165
1569T1171 1546Q1171 1543 1169 1531T1165 1513L326 39Q310 11 286 -32T233 -108T172 -141ZM125 473Q113 473 110 483T107 504Q107 530 113 561T125 620Q145 717 173 815T225 1008Q266 1167 286 1247T314 1358T324 1393Q303 1376 268 1349T194 1296T122 1251T74
1233Q55 1238 55 1259Q55 1273 69 1285T98 1307Q199 1372 288 1426T473 1530Q485 1536 494 1536Q510 1536 510 1509V1489L316 629Q313 602 308 566T294 501T266 473H125ZM932 -20Q919 -20 902 -14T885 8Q885 24 902 43T932 76Q1000 141 1086 220T1254 389T1389
579T1442 786Q1442 887 1413 937T1317 987Q1272 987 1218 957T1124 863T1084 700Q1107 667 1130 653T1170 629T1186 596Q1186 587 1178 575T1151 563Q1141 563 1109 581T1041 625T978 673T951 705Q951 820 998 899T1123 1021T1293 1063Q1396 1063 1458 1031T1551
952T1593 862T1604 795Q1604 698 1556 603T1435 421T1286 266T1153 153T1078 96Q1155 109 1236 129T1395 150Q1427 150 1462 142T1497 102Q1497 85 1489 56T1466 4T1432 -20Q1380 -20 1331 -11T1229 -2Q1156 -2 1082 -11T932 -20Z" />
<glyph unicode="&#xbe;" glyph-name="threequarters" horiz-adv-x="1833" d="M459 -141Q434 -141 434 -117Q434 -92 450 -57T483 9T506 49Q532 99 581 192T694 406T827 655T961 909T1081 1135T1169 1301T1208 1374Q1257 1461 1282 1505T1339 1564T1438 1579Q1446
1579 1452 1569T1458 1546Q1458 1543 1456 1531T1452 1513L612 39Q596 11 572 -32T520 -108T459 -141ZM311 453Q259 453 196 473T86 535T39 639Q39 685 71 715T147 745Q175 745 188 723T208 669T225 603T257 548T322 526Q387 526 438 572T519 687T549 819Q549 879
519 920T418 962H389Q371 962 359 969T346 1001Q346 1042 373 1042T426 1044Q485 1052 532 1100T607 1215T635 1341Q635 1398 607 1436T516 1474Q492 1474 456 1454T385 1403T325 1337T301 1274Q312 1257 339 1235T383 1194Q383 1182 377 1170T356 1157Q347 1157
318 1173T256 1211T199 1252T174 1278Q174 1341 220 1400T341 1497T498 1536Q575 1536 642 1519T751 1455T793 1323Q793 1251 758 1192T668 1089T555 1022Q630 1002 675 940T721 809Q721 705 659 625T503 499T311 453ZM1249 0L1245 14Q1262 61 1280 109T1317 203Q1276
211 1227 219T1118 238Q1094 225 1068 216T1022 207Q1017 207 999 212T963 232T946 279Q946 311 963 323T1006 342L1082 371L1288 846Q1318 931 1341 978T1400 1044T1505 1063Q1515 1063 1524 1061T1538 1049Q1462 877 1382 703T1215 346Q1239 339 1276 329T1358
311Q1383 374 1409 438T1460 567Q1473 586 1534 586H1598Q1595 572 1579 527T1539 422T1491 299Q1531 299 1568 306T1637 330Q1645 332 1689 358T1770 416L1804 356Q1749 316 1715 285T1651 233T1587 200T1493 188Q1483 188 1472 188T1448 190L1397 68Q1397 68
1392 51T1378 17T1358 0H1249Z" />
<glyph unicode="&#xbf;" glyph-name="questiondown" horiz-adv-x="999" d="M674 1065Q706 1065 728 1055T750 1024Q750 947 712 880T615 753T488 636T362 523T264 407T226 283Q226 212 268 163T376 89T506 64Q597 64 650 92T733 166T778 262T809 361L852 359Q905
357 938 335T971 262Q971 250 969 238T961 211Q929 128 858 75T703 -3T547 -29Q419 -29 302 10T111 129T37 326Q37 421 76 492T177 617T311 715T447 800T556 887T607 991Q618 1032 638 1048T674 1065ZM723 1518Q767 1518 785 1495T803 1440Q803 1406 785 1370T736
1308T664 1282Q604 1282 579 1305T553 1360Q553 1395 576 1431T638 1493T723 1518Z" />
<glyph unicode="&#xc0;" glyph-name="Agrave" horiz-adv-x="1391" d="M422 -57Q241 -57 161 42T80 328Q80 498 151 668T347 991T629 1262T964 1449T1313 1518Q1352 1518 1418 1508T1553 1476T1669 1415T1716 1321Q1716 1291 1684 1254T1612 1187T1544 1151Q1513
1295 1436 1358T1253 1421Q1144 1421 1020 1364T775 1208T556 986T398 727T338 463Q338 302 415 219T625 135Q682 135 745 168T855 256T915 377Q923 419 942 506T985 700T1035 912T1081 1098T1112 1210Q1121 1240 1160 1253T1245 1269T1319 1272Q1346 1272 1346
1239Q1346 1227 1343 1223Q1318 1156 1292 1061T1242 862T1197 660T1162 490T1141 385Q1130 329 1123 279T1121 197T1157 166Q1185 166 1205 171T1257 202T1348 283T1513 442V330Q1416 228 1334 140T1175 -2T1022 -57Q961 -57 932 -22T897 70T895 193Q788 82 658
13T422 -57ZM1547 1618Q1511 1631 1447 1653T1305 1703T1149 1761L1061 1796Q1043 1801 1043 1825Q1043 1845 1059 1868T1101 1909T1149 1927Q1191 1925 1248 1898T1367 1830T1481 1747T1569 1673L1547 1618Z" />
<glyph unicode="&#xc1;" glyph-name="Aacute" horiz-adv-x="1391" d="M422 -57Q241 -57 161 42T80 328Q80 498 151 668T347 991T629 1262T964 1449T1313 1518Q1352 1518 1418 1508T1553 1476T1669 1415T1716 1321Q1716 1291 1684 1254T1612 1187T1544 1151Q1513
1295 1436 1358T1253 1421Q1144 1421 1020 1364T775 1208T556 986T398 727T338 463Q338 302 415 219T625 135Q682 135 745 168T855 256T915 377Q923 419 942 506T985 700T1035 912T1081 1098T1112 1210Q1121 1240 1160 1253T1245 1269T1319 1272Q1346 1272 1346
1239Q1346 1227 1343 1223Q1318 1156 1292 1061T1242 862T1197 660T1162 490T1141 385Q1130 329 1123 279T1121 197T1157 166Q1185 166 1205 171T1257 202T1348 283T1513 442V330Q1416 228 1334 140T1175 -2T1022 -57Q961 -57 932 -22T897 70T895 193Q788 82 658
13T422 -57ZM1065 1618L1042 1673Q1076 1705 1130 1747T1245 1829T1363 1897T1462 1927Q1486 1927 1510 1910T1552 1869T1569 1825Q1569 1801 1550 1796L1462 1761Q1385 1731 1307 1703T1165 1653T1065 1618Z" />
<glyph unicode="&#xc2;" glyph-name="Acircumflex" horiz-adv-x="1391" d="M422 -57Q241 -57 161 42T80 328Q80 498 151 668T347 991T629 1262T964 1449T1313 1518Q1352 1518 1418 1508T1553 1476T1669 1415T1716 1321Q1716 1291 1684 1254T1612 1187T1544 1151Q1513
1295 1436 1358T1253 1421Q1144 1421 1020 1364T775 1208T556 986T398 727T338 463Q338 302 415 219T625 135Q682 135 745 168T855 256T915 377Q923 419 942 506T985 700T1035 912T1081 1098T1112 1210Q1121 1240 1160 1253T1245 1269T1319 1272Q1346 1272 1346
1239Q1346 1227 1343 1223Q1318 1156 1292 1061T1242 862T1197 660T1162 490T1141 385Q1130 329 1123 279T1121 197T1157 166Q1185 166 1205 171T1257 202T1348 283T1513 442V330Q1416 228 1334 140T1175 -2T1022 -57Q961 -57 932 -22T897 70T895 193Q788 82 658
13T422 -57ZM1060 1622L1001 1665Q1034 1723 1080 1791T1177 1920T1274 2021T1351 2060Q1370 2060 1396 2021T1448 1923T1498 1806T1535 1706T1550 1663L1478 1622Q1455 1654 1412 1733T1322 1892Q1270 1839 1219 1785T1126 1688T1060 1622Z" />
<glyph unicode="&#xc3;" glyph-name="Atilde" horiz-adv-x="1391" d="M422 -57Q241 -57 161 42T80 328Q80 498 151 668T347 991T629 1262T964 1449T1313 1518Q1352 1518 1418 1508T1553 1476T1669 1415T1716 1321Q1716 1291 1684 1254T1612 1187T1544 1151Q1513
1295 1436 1358T1253 1421Q1144 1421 1020 1364T775 1208T556 986T398 727T338 463Q338 302 415 219T625 135Q682 135 745 168T855 256T915 377Q923 419 942 506T985 700T1035 912T1081 1098T1112 1210Q1121 1240 1160 1253T1245 1269T1319 1272Q1346 1272 1346
1239Q1346 1227 1343 1223Q1318 1156 1292 1061T1242 862T1197 660T1162 490T1141 385Q1130 329 1123 279T1121 197T1157 166Q1185 166 1205 171T1257 202T1348 283T1513 442V330Q1416 228 1334 140T1175 -2T1022 -57Q961 -57 932 -22T897 70T895 193Q788 82 658
13T422 -57ZM1515 1650Q1506 1700 1487 1719T1440 1738Q1403 1738 1356 1717T1255 1675T1147 1654Q1080 1654 1044 1686T993 1760T976 1836T971 1875L1079 1896Q1085 1848 1107 1831T1161 1814Q1202 1814 1254 1833T1360 1871T1464 1890Q1532 1890 1567 1858T1618
1784T1636 1708T1640 1669L1515 1650Z" />
<glyph unicode="&#xc4;" glyph-name="Adieresis" horiz-adv-x="1391" d="M422 -57Q241 -57 161 42T80 328Q80 498 151 668T347 991T629 1262T964 1449T1313 1518Q1352 1518 1418 1508T1553 1476T1669 1415T1716 1321Q1716 1291 1684 1254T1612 1187T1544 1151Q1513
1295 1436 1358T1253 1421Q1144 1421 1020 1364T775 1208T556 986T398 727T338 463Q338 302 415 219T625 135Q682 135 745 168T855 256T915 377Q923 419 942 506T985 700T1035 912T1081 1098T1112 1210Q1121 1240 1160 1253T1245 1269T1319 1272Q1346 1272 1346
1239Q1346 1227 1343 1223Q1318 1156 1292 1061T1242 862T1197 660T1162 490T1141 385Q1130 329 1123 279T1121 197T1157 166Q1185 166 1205 171T1257 202T1348 283T1513 442V330Q1416 228 1334 140T1175 -2T1022 -57Q961 -57 932 -22T897 70T895 193Q788 82 658
13T422 -57ZM1482 1662Q1439 1662 1421 1685T1402 1740Q1402 1774 1420 1810T1469 1872T1541 1898Q1601 1898 1626 1875T1652 1820Q1652 1786 1629 1749T1567 1687T1482 1662ZM1038 1662Q996 1662 978 1685T960 1740Q960 1774 977 1810T1026 1872T1099 1898Q1158
1898 1184 1875T1210 1820Q1210 1786 1186 1749T1123 1687T1038 1662Z" />
<glyph unicode="&#xc5;" glyph-name="Aring" horiz-adv-x="1391" d="M422 -57Q241 -57 161 42T80 328Q80 498 151 668T347 991T629 1262T964 1449T1313 1518Q1352 1518 1418 1508T1553 1476T1669 1415T1716 1321Q1716 1291 1684 1254T1612 1187T1544 1151Q1513
1295 1436 1358T1253 1421Q1144 1421 1020 1364T775 1208T556 986T398 727T338 463Q338 302 415 219T625 135Q682 135 745 168T855 256T915 377Q923 419 942 506T985 700T1035 912T1081 1098T1112 1210Q1121 1240 1160 1253T1245 1269T1319 1272Q1346 1272 1346
1239Q1346 1227 1343 1223Q1318 1156 1292 1061T1242 862T1197 660T1162 490T1141 385Q1130 329 1123 279T1121 197T1157 166Q1185 166 1205 171T1257 202T1348 283T1513 442V330Q1416 228 1334 140T1175 -2T1022 -57Q961 -57 932 -22T897 70T895 193Q788 82 658
13T422 -57ZM1288 1608Q1230 1608 1179 1646T1128 1768Q1128 1840 1177 1902T1323 1964Q1403 1964 1443 1915T1483 1804Q1483 1713 1423 1661T1288 1608ZM1292 1675Q1348 1675 1378 1715T1409 1800Q1409 1839 1389 1868T1319 1897Q1264 1897 1235 1857T1206 1770Q1206
1734 1225 1705T1292 1675Z" />
<glyph unicode="&#xc6;" glyph-name="AE" horiz-adv-x="1878" d="M422 -57Q241 -57 161 42T80 328Q80 498 149 668T342 991T634 1262T1003 1449T1423 1518Q1531 1518 1641 1517T1842 1514T1988 1506T2044 1491Q2044 1479 2025 1460L1925 1346Q1902 1330 1880 1321T1831
1311Q1742 1311 1639 1331T1438 1356Q1404 1236 1368 1091T1284 795Q1343 800 1403 802T1528 805Q1630 805 1747 799Q1784 799 1784 766Q1784 738 1754 704T1683 670Q1565 670 1460 669T1249 659Q1212 521 1160 420T1059 238Q1131 251 1196 235T1322 192T1440 142T1554
119Q1563 119 1592 126T1674 162T1808 257T1999 438V328Q1874 217 1776 130T1581 -7T1368 -57Q1361 -57 1350 -50T1299 -24T1170 27T918 109L897 195Q824 122 740 65T574 -24T422 -57ZM625 135Q685 135 755 176T877 276Q886 291 903 342T939 457T972 570T989 631Q946
625 900 616T807 596Q806 596 804 595T799 594Q786 594 768 601T750 637Q750 696 822 715T1026 760Q1056 864 1087 963T1150 1141T1212 1262Q1234 1293 1261 1317T1317 1360L1358 1421Q1217 1420 1073 1362T797 1206T562 984T398 726T338 463Q338 302 415 219T625
135Z" />
<glyph unicode="&#xc7;" glyph-name="Ccedilla" horiz-adv-x="1268" d="M616 -57Q478 -57 377 -5T211 136T114 335T82 561Q82 680 115 812T217 1069T390 1295T635 1457T956 1518Q1058 1518 1139 1470T1267 1343T1315 1178Q1315 1152 1308 1133T1278 1102Q1213
1069 1126 1021T952 925T799 846Q787 840 776 840Q760 840 751 852T741 881Q741 906 777 931T865 981T971 1033T1060 1089T1096 1149Q1095 1149 1087 1189T1060 1283T1009 1376T926 1417Q784 1412 668 1343T469 1162T342 920T297 659Q297 479 354 361T510 184T735
125Q887 125 1061 207T1403 451V340Q1210 157 1010 50T616 -57ZM525 -492L509 -430Q509 -430 530 -402T572 -318T593 -174Q553 -162 534 -139T515 -90Q515 -56 550 -28T654 0Q713 0 736 -31T759 -117Q759 -148 746 -205T704 -323T632 -432T525 -492Z" />
<glyph unicode="&#xc8;" glyph-name="Egrave" horiz-adv-x="1403" d="M100 -57Q93 -57 67 -51T16 -23T-8 43Q-8 75 21 97T87 136T145 162L401 279Q420 306 449 405T514 631Q497 629 459 619T378 601T305 600T274 637Q274 674 291 685T326 702Q359 713 415 728T551
760Q593 907 627 1021T710 1219T842 1360Q785 1365 733 1366T635 1368Q374 1368 262 1306T150 1143Q150 1088 200 1038T346 952Q346 918 337 877T317 825Q159 881 81 960T2 1120Q2 1238 80 1327T305 1467T657 1518H948Q1056 1518 1166 1517T1367 1514T1513 1506T1569
1491Q1569 1479 1550 1460L1450 1346Q1427 1330 1405 1321T1356 1311Q1267 1311 1164 1331T963 1356Q929 1236 893 1091T809 795Q868 800 928 802T1053 805Q1106 805 1160 802T1272 799Q1309 799 1309 766Q1309 738 1279 704T1208 670Q1090 670 984 669T774 659Q737
521 684 419T584 238H711Q726 233 775 215T886 174T1001 135T1079 119Q1112 119 1163 145Q1175 147 1213 172T1304 240T1415 334T1524 438V328Q1399 217 1300 130T1106 -7T893 -57Q885 -57 874 -50T823 -24T694 27T442 109Q358 42 264 -7T100 -57ZM1243 1618Q1207
1631 1143 1653T1001 1703T845 1761L757 1796Q739 1801 739 1825Q739 1845 755 1868T797 1909T845 1927Q887 1925 944 1898T1063 1830T1177 1747T1265 1673L1243 1618Z" />
<glyph unicode="&#xc9;" glyph-name="Eacute" horiz-adv-x="1403" d="M100 -57Q93 -57 67 -51T16 -23T-8 43Q-8 75 21 97T87 136T145 162L401 279Q420 306 449 405T514 631Q497 629 459 619T378 601T305 600T274 637Q274 674 291 685T326 702Q359 713 415 728T551
760Q593 907 627 1021T710 1219T842 1360Q785 1365 733 1366T635 1368Q374 1368 262 1306T150 1143Q150 1088 200 1038T346 952Q346 918 337 877T317 825Q159 881 81 960T2 1120Q2 1238 80 1327T305 1467T657 1518H948Q1056 1518 1166 1517T1367 1514T1513 1506T1569
1491Q1569 1479 1550 1460L1450 1346Q1427 1330 1405 1321T1356 1311Q1267 1311 1164 1331T963 1356Q929 1236 893 1091T809 795Q868 800 928 802T1053 805Q1106 805 1160 802T1272 799Q1309 799 1309 766Q1309 738 1279 704T1208 670Q1090 670 984 669T774 659Q737
521 684 419T584 238H711Q726 233 775 215T886 174T1001 135T1079 119Q1112 119 1163 145Q1175 147 1213 172T1304 240T1415 334T1524 438V328Q1399 217 1300 130T1106 -7T893 -57Q885 -57 874 -50T823 -24T694 27T442 109Q358 42 264 -7T100 -57ZM761 1618L738
1673Q772 1705 826 1747T941 1829T1059 1897T1158 1927Q1182 1927 1206 1910T1248 1869T1265 1825Q1265 1801 1246 1796L1158 1761Q1081 1731 1003 1703T861 1653T761 1618Z" />
<glyph unicode="&#xca;" glyph-name="Ecircumflex" horiz-adv-x="1403" d="M100 -57Q93 -57 67 -51T16 -23T-8 43Q-8 75 21 97T87 136T145 162L401 279Q420 306 449 405T514 631Q497 629 459 619T378 601T305 600T274 637Q274 674 291 685T326 702Q359 713 415
728T551 760Q593 907 627 1021T710 1219T842 1360Q785 1365 733 1366T635 1368Q374 1368 262 1306T150 1143Q150 1088 200 1038T346 952Q346 918 337 877T317 825Q159 881 81 960T2 1120Q2 1238 80 1327T305 1467T657 1518H948Q1056 1518 1166 1517T1367 1514T1513
1506T1569 1491Q1569 1479 1550 1460L1450 1346Q1427 1330 1405 1321T1356 1311Q1267 1311 1164 1331T963 1356Q929 1236 893 1091T809 795Q868 800 928 802T1053 805Q1106 805 1160 802T1272 799Q1309 799 1309 766Q1309 738 1279 704T1208 670Q1090 670 984 669T774
659Q737 521 684 419T584 238H711Q726 233 775 215T886 174T1001 135T1079 119Q1112 119 1163 145Q1175 147 1213 172T1304 240T1415 334T1524 438V328Q1399 217 1300 130T1106 -7T893 -57Q885 -57 874 -50T823 -24T694 27T442 109Q358 42 264 -7T100 -57ZM756
1622L697 1665Q730 1723 776 1791T873 1920T970 2021T1047 2060Q1066 2060 1092 2021T1144 1923T1194 1806T1231 1706T1246 1663L1174 1622Q1151 1654 1108 1733T1018 1892Q966 1839 915 1785T822 1688T756 1622Z" />
<glyph unicode="&#xcb;" glyph-name="Edieresis" horiz-adv-x="1403" d="M100 -57Q93 -57 67 -51T16 -23T-8 43Q-8 75 21 97T87 136T145 162L401 279Q420 306 449 405T514 631Q497 629 459 619T378 601T305 600T274 637Q274 674 291 685T326 702Q359 713 415 728T551
760Q593 907 627 1021T710 1219T842 1360Q785 1365 733 1366T635 1368Q374 1368 262 1306T150 1143Q150 1088 200 1038T346 952Q346 918 337 877T317 825Q159 881 81 960T2 1120Q2 1238 80 1327T305 1467T657 1518H948Q1056 1518 1166 1517T1367 1514T1513 1506T1569
1491Q1569 1479 1550 1460L1450 1346Q1427 1330 1405 1321T1356 1311Q1267 1311 1164 1331T963 1356Q929 1236 893 1091T809 795Q868 800 928 802T1053 805Q1106 805 1160 802T1272 799Q1309 799 1309 766Q1309 738 1279 704T1208 670Q1090 670 984 669T774 659Q737
521 684 419T584 238H711Q726 233 775 215T886 174T1001 135T1079 119Q1112 119 1163 145Q1175 147 1213 172T1304 240T1415 334T1524 438V328Q1399 217 1300 130T1106 -7T893 -57Q885 -57 874 -50T823 -24T694 27T442 109Q358 42 264 -7T100 -57ZM1178 1662Q1135
1662 1117 1685T1098 1740Q1098 1774 1116 1810T1165 1872T1237 1898Q1297 1898 1322 1875T1348 1820Q1348 1786 1325 1749T1263 1687T1178 1662ZM734 1662Q692 1662 674 1685T656 1740Q656 1774 673 1810T722 1872T795 1898Q854 1898 880 1875T906 1820Q906 1786
882 1749T819 1687T734 1662Z" />
<glyph unicode="&#xcc;" glyph-name="Igrave" horiz-adv-x="1061" d="M494 -57Q434 -57 367 -33T254 42T207 172Q207 226 236 254T310 292T403 303Q403 287 402 263T401 213Q401 174 407 134T436 68T512 41Q571 41 615 84T690 197T744 346T781 500T805 625L819
702Q652 715 552 755T407 849T362 954Q362 1001 396 1069T497 1209T662 1344T890 1446T1178 1485Q1241 1485 1293 1506T1401 1530Q1390 1463 1353 1399T1249 1311Q1180 1193 1134 1063T1057 793L1024 647Q1006 559 983 462T924 272T832 106T694 -13T494 -57ZM854
842Q892 985 955 1109T1145 1303Q977 1303 859 1258T668 1150T560 1030T526 950Q526 910 604 881T854 842ZM1472 1618Q1436 1631 1372 1653T1230 1703T1074 1761L986 1796Q968 1801 968 1825Q968 1845 984 1868T1026 1909T1074 1927Q1116 1925 1173 1898T1292 1830T1406
1747T1494 1673L1472 1618Z" />
<glyph unicode="&#xcd;" glyph-name="Iacute" horiz-adv-x="1061" d="M494 -57Q434 -57 367 -33T254 42T207 172Q207 226 236 254T310 292T403 303Q403 287 402 263T401 213Q401 174 407 134T436 68T512 41Q571 41 615 84T690 197T744 346T781 500T805 625L819
702Q652 715 552 755T407 849T362 954Q362 1001 396 1069T497 1209T662 1344T890 1446T1178 1485Q1241 1485 1293 1506T1401 1530Q1390 1463 1353 1399T1249 1311Q1180 1193 1134 1063T1057 793L1024 647Q1006 559 983 462T924 272T832 106T694 -13T494 -57ZM854
842Q892 985 955 1109T1145 1303Q977 1303 859 1258T668 1150T560 1030T526 950Q526 910 604 881T854 842ZM990 1618L967 1673Q1001 1705 1055 1747T1170 1829T1288 1897T1387 1927Q1411 1927 1435 1910T1477 1869T1494 1825Q1494 1801 1475 1796L1387 1761Q1310
1731 1232 1703T1090 1653T990 1618Z" />
<glyph unicode="&#xce;" glyph-name="Icircumflex" horiz-adv-x="1061" d="M494 -57Q434 -57 367 -33T254 42T207 172Q207 226 236 254T310 292T403 303Q403 287 402 263T401 213Q401 174 407 134T436 68T512 41Q571 41 615 84T690 197T744 346T781 500T805 625L819
702Q652 715 552 755T407 849T362 954Q362 1001 396 1069T497 1209T662 1344T890 1446T1178 1485Q1241 1485 1293 1506T1401 1530Q1390 1463 1353 1399T1249 1311Q1180 1193 1134 1063T1057 793L1024 647Q1006 559 983 462T924 272T832 106T694 -13T494 -57ZM854
842Q892 985 955 1109T1145 1303Q977 1303 859 1258T668 1150T560 1030T526 950Q526 910 604 881T854 842ZM985 1622L926 1665Q959 1723 1005 1791T1102 1920T1199 2021T1276 2060Q1295 2060 1321 2021T1373 1923T1423 1806T1460 1706T1475 1663L1403 1622Q1380
1654 1337 1733T1247 1892Q1195 1839 1144 1785T1051 1688T985 1622Z" />
<glyph unicode="&#xcf;" glyph-name="Idieresis" horiz-adv-x="1061" d="M494 -57Q434 -57 367 -33T254 42T207 172Q207 226 236 254T310 292T403 303Q403 287 402 263T401 213Q401 174 407 134T436 68T512 41Q571 41 615 84T690 197T744 346T781 500T805 625L819
702Q652 715 552 755T407 849T362 954Q362 1001 396 1069T497 1209T662 1344T890 1446T1178 1485Q1241 1485 1293 1506T1401 1530Q1390 1463 1353 1399T1249 1311Q1180 1193 1134 1063T1057 793L1024 647Q1006 559 983 462T924 272T832 106T694 -13T494 -57ZM854
842Q892 985 955 1109T1145 1303Q977 1303 859 1258T668 1150T560 1030T526 950Q526 910 604 881T854 842ZM1407 1662Q1364 1662 1346 1685T1327 1740Q1327 1774 1345 1810T1394 1872T1466 1898Q1526 1898 1551 1875T1577 1820Q1577 1786 1554 1749T1492 1687T1407
1662ZM963 1662Q921 1662 903 1685T885 1740Q885 1774 902 1810T951 1872T1024 1898Q1083 1898 1109 1875T1135 1820Q1135 1786 1111 1749T1048 1687T963 1662Z" />
<glyph unicode="&#xd0;" glyph-name="Eth" horiz-adv-x="1780" d="M950 -57Q847 -57 753 -13T584 133Q499 12 405 -21T203 -55Q128 -55 71 -18T-20 74T-53 184Q-53 242 -23 272T54 314T152 326Q152 301 149 276T145 221Q145 152 167 97T264 41Q302 41 338 67T397
143Q410 169 444 255T522 510L438 504Q431 504 406 508T381 545Q381 592 397 609T430 631Q453 639 553 645L662 1208Q668 1226 693 1234T748 1244T791 1247H885Q860 1102 843 956T791 657H813Q898 657 960 649T1022 616Q1022 589 992 555T922 520Q886 520 851 521T784
522H756Q737 459 712 395T655 264Q675 205 720 159T825 86T942 59Q1031 59 1117 108T1272 248T1383 467T1425 752Q1425 880 1392 995T1289 1200T1108 1341T840 1393Q728 1393 620 1359T423 1269T282 1146T229 1014Q229 962 267 915T393 834Q393 785 384 736T367
672Q212 721 140 810T68 1001Q68 1092 121 1183T285 1350T566 1472T971 1518Q1157 1518 1292 1455T1513 1290T1641 1066T1683 829Q1683 646 1628 486T1474 203T1241 12T950 -57Z" />
<glyph unicode="&#xd1;" glyph-name="Ntilde" horiz-adv-x="1473" d="M1100 -57Q1054 -57 1027 -25T986 58T968 162T963 262Q963 501 998 745T1100 1202Q1111 1232 1111 1257Q1111 1283 1100 1300T1066 1318Q1053 1318 1033 1309Q871 1227 740 1091T515 788T371
442Q351 371 333 288T300 127T272 0H66Q66 79 89 190T148 433T223 708T295 995L377 1313L55 1085L25 1075Q9 1075 4 1091T-2 1126Q-2 1136 2 1146T23 1167L453 1438Q470 1449 502 1467T568 1501T623 1516Q643 1516 643 1497Q643 1460 631 1403T604 1287T577 1183T565
1122L549 1040Q693 1211 812 1307T1022 1448T1176 1504T1270 1516Q1316 1516 1335 1489T1354 1423Q1354 1398 1337 1311T1296 1100T1247 837T1205 569T1188 346Q1188 303 1193 257T1213 179T1257 147Q1273 147 1294 158T1341 195L1597 440L1595 330Q1591 326 1572
307T1529 263T1486 218T1460 193Q1433 168 1387 127T1288 44T1185 -28T1100 -57ZM1296 1650Q1287 1700 1268 1719T1221 1738Q1184 1738 1137 1717T1036 1675T928 1654Q861 1654 825 1686T774 1760T757 1836T752 1875L860 1896Q866 1848 888 1831T942 1814Q983 1814
1035 1833T1141 1871T1245 1890Q1313 1890 1348 1858T1399 1784T1417 1708T1421 1669L1296 1650Z" />
<glyph unicode="&#xd2;" glyph-name="Ograve" horiz-adv-x="1653" d="M715 -57Q553 -57 413 17T187 238T100 605Q100 777 162 940T341 1233T627 1441T1006 1518Q1038 1518 1073 1515T1143 1505L1139 1403Q1113 1408 1088 1409T1040 1411Q876 1411 745 1351T520
1187T378 955T328 689Q328 521 401 403T592 222T842 160Q975 160 1081 205T1267 327T1395 496H1382Q1246 496 1127 543T933 686T858 926Q858 1008 895 1079T1012 1195T1217 1239Q1306 1239 1390 1189T1530 1034T1585 768Q1585 699 1573 637Q1710 658 1853 743V651Q1786
598 1706 563T1540 510Q1493 380 1406 276T1205 97T966 -17T715 -57ZM1448 627Q1475 713 1475 799Q1475 889 1444 963T1350 1082T1190 1126Q1105 1126 1068 1091T1030 999Q1030 893 1084 810T1232 678T1448 627ZM1418 1618Q1382 1631 1318 1653T1176 1703T1020
1761L932 1796Q914 1801 914 1825Q914 1845 930 1868T972 1909T1020 1927Q1062 1925 1119 1898T1238 1830T1352 1747T1440 1673L1418 1618Z" />
<glyph unicode="&#xd3;" glyph-name="Oacute" horiz-adv-x="1653" d="M715 -57Q553 -57 413 17T187 238T100 605Q100 777 162 940T341 1233T627 1441T1006 1518Q1038 1518 1073 1515T1143 1505L1139 1403Q1113 1408 1088 1409T1040 1411Q876 1411 745 1351T520
1187T378 955T328 689Q328 521 401 403T592 222T842 160Q975 160 1081 205T1267 327T1395 496H1382Q1246 496 1127 543T933 686T858 926Q858 1008 895 1079T1012 1195T1217 1239Q1306 1239 1390 1189T1530 1034T1585 768Q1585 699 1573 637Q1710 658 1853 743V651Q1786
598 1706 563T1540 510Q1493 380 1406 276T1205 97T966 -17T715 -57ZM1448 627Q1475 713 1475 799Q1475 889 1444 963T1350 1082T1190 1126Q1105 1126 1068 1091T1030 999Q1030 893 1084 810T1232 678T1448 627ZM936 1618L913 1673Q947 1705 1001 1747T1116 1829T1234
1897T1333 1927Q1357 1927 1381 1910T1423 1869T1440 1825Q1440 1801 1421 1796L1333 1761Q1256 1731 1178 1703T1036 1653T936 1618Z" />
<glyph unicode="&#xd4;" glyph-name="Ocircumflex" horiz-adv-x="1653" d="M715 -57Q553 -57 413 17T187 238T100 605Q100 777 162 940T341 1233T627 1441T1006 1518Q1038 1518 1073 1515T1143 1505L1139 1403Q1113 1408 1088 1409T1040 1411Q876 1411 745 1351T520
1187T378 955T328 689Q328 521 401 403T592 222T842 160Q975 160 1081 205T1267 327T1395 496H1382Q1246 496 1127 543T933 686T858 926Q858 1008 895 1079T1012 1195T1217 1239Q1306 1239 1390 1189T1530 1034T1585 768Q1585 699 1573 637Q1710 658 1853 743V651Q1786
598 1706 563T1540 510Q1493 380 1406 276T1205 97T966 -17T715 -57ZM1448 627Q1475 713 1475 799Q1475 889 1444 963T1350 1082T1190 1126Q1105 1126 1068 1091T1030 999Q1030 893 1084 810T1232 678T1448 627ZM931 1622L872 1665Q905 1723 951 1791T1048 1920T1145
2021T1222 2060Q1241 2060 1267 2021T1319 1923T1369 1806T1406 1706T1421 1663L1349 1622Q1326 1654 1283 1733T1193 1892Q1141 1839 1090 1785T997 1688T931 1622Z" />
<glyph unicode="&#xd5;" glyph-name="Otilde" horiz-adv-x="1653" d="M715 -57Q553 -57 413 17T187 238T100 605Q100 777 162 940T341 1233T627 1441T1006 1518Q1038 1518 1073 1515T1143 1505L1139 1403Q1113 1408 1088 1409T1040 1411Q876 1411 745 1351T520
1187T378 955T328 689Q328 521 401 403T592 222T842 160Q975 160 1081 205T1267 327T1395 496H1382Q1246 496 1127 543T933 686T858 926Q858 1008 895 1079T1012 1195T1217 1239Q1306 1239 1390 1189T1530 1034T1585 768Q1585 699 1573 637Q1710 658 1853 743V651Q1786
598 1706 563T1540 510Q1493 380 1406 276T1205 97T966 -17T715 -57ZM1448 627Q1475 713 1475 799Q1475 889 1444 963T1350 1082T1190 1126Q1105 1126 1068 1091T1030 999Q1030 893 1084 810T1232 678T1448 627ZM1386 1650Q1377 1700 1358 1719T1311 1738Q1274
1738 1227 1717T1126 1675T1018 1654Q951 1654 915 1686T864 1760T847 1836T842 1875L950 1896Q956 1848 978 1831T1032 1814Q1073 1814 1125 1833T1231 1871T1335 1890Q1403 1890 1438 1858T1489 1784T1507 1708T1511 1669L1386 1650Z" />
<glyph unicode="&#xd6;" glyph-name="Odieresis" horiz-adv-x="1653" d="M715 -57Q553 -57 413 17T187 238T100 605Q100 777 162 940T341 1233T627 1441T1006 1518Q1038 1518 1073 1515T1143 1505L1139 1403Q1113 1408 1088 1409T1040 1411Q876 1411 745 1351T520
1187T378 955T328 689Q328 521 401 403T592 222T842 160Q975 160 1081 205T1267 327T1395 496H1382Q1246 496 1127 543T933 686T858 926Q858 1008 895 1079T1012 1195T1217 1239Q1306 1239 1390 1189T1530 1034T1585 768Q1585 699 1573 637Q1710 658 1853 743V651Q1786
598 1706 563T1540 510Q1493 380 1406 276T1205 97T966 -17T715 -57ZM1448 627Q1475 713 1475 799Q1475 889 1444 963T1350 1082T1190 1126Q1105 1126 1068 1091T1030 999Q1030 893 1084 810T1232 678T1448 627ZM1353 1662Q1310 1662 1292 1685T1273 1740Q1273
1774 1291 1810T1340 1872T1412 1898Q1472 1898 1497 1875T1523 1820Q1523 1786 1500 1749T1438 1687T1353 1662ZM909 1662Q867 1662 849 1685T831 1740Q831 1774 848 1810T897 1872T970 1898Q1029 1898 1055 1875T1081 1820Q1081 1786 1057 1749T994 1687T909
1662Z" />
<glyph unicode="&#xd7;" glyph-name="multiply" horiz-adv-x="1200" d="M380 381Q345 413 339 431T339 463Q349 478 394 534T501 664Q469 695 427 732T325 821Q319 826 305 846T313 889Q345 924 369 924T407 918Q422 907 473 866T591 764L665 846Q724 908 772
948T839 971Q859 951 863 905T841 831L745 733L689 674Q711 655 732 636T773 596Q833 538 863 499T876 442Q856 423 824 409T763 422Q737 448 710 472T659 520L601 573L450 393Q444 389 424 374T380 381Z" />
<glyph unicode="&#xd8;" glyph-name="Oslash" horiz-adv-x="1653" d="M252 -162Q240 -162 225 -157T209 -139Q209 -118 238 -86T283 -27Q292 -14 308 7T347 58Q236 141 168 290T100 664Q100 810 162 960T341 1236T627 1440T1006 1518Q1038 1518 1073 1515T1143
1505L1139 1403Q1113 1408 1088 1409T1040 1411Q876 1411 745 1350T520 1191T378 976T328 748Q328 581 379 463T515 274L892 756Q858 833 858 926Q858 1008 895 1079T1012 1195T1217 1239Q1245 1239 1268 1235L1393 1393Q1436 1446 1458 1477T1500 1522T1550 1536Q1560
1536 1581 1535T1602 1509Q1602 1492 1591 1477L1374 1198Q1462 1150 1523 1044T1585 768Q1585 699 1573 637Q1710 658 1853 743V651Q1786 598 1706 563T1540 510Q1493 380 1406 276T1205 97T966 -17T715 -57Q566 -57 443 1L401 -53Q401 -53 380 -80T324 -134T252
-162ZM1448 627Q1475 713 1475 799Q1475 889 1444 963T1350 1082T1190 1126Q1105 1126 1068 1091T1030 999Q1030 893 1084 810T1232 678T1448 627ZM842 160Q975 160 1081 205T1267 327T1395 496H1382Q1255 496 1142 537T955 660L608 213Q714 160 842 160Z" />
<glyph unicode="&#xd9;" glyph-name="Ugrave" horiz-adv-x="1595" d="M625 -57Q480 -57 392 2T263 164T223 403Q223 550 264 714T377 1034T537 1311Q537 1315 532 1315Q529 1315 520 1309L406 1221Q384 1209 313 1165T147 1062T-43 946V1057Q50 1110 153 1173T358
1300T547 1415T693 1498T772 1530Q781 1530 790 1525T799 1509Q799 1498 775 1443T712 1303T630 1112T549 892T486 666T461 457Q461 321 524 234T745 147Q885 147 1005 214T1216 394T1362 645T1425 924Q1398 929 1352 950T1259 1010T1180 1108T1147 1247Q1147 1305
1168 1368T1236 1475T1362 1520Q1425 1520 1462 1474T1520 1359T1546 1217T1553 1091T1554 1024Q1554 1024 1616 1042T1775 1111T1971 1261V1147Q1928 1111 1864 1065T1720 978T1552 920Q1528 733 1450 559T1250 245T969 25T625 -57ZM1430 1028Q1430 1037 1431
1047T1432 1067Q1432 1128 1419 1190T1381 1296T1321 1339Q1287 1339 1277 1316T1266 1266Q1266 1168 1315 1105T1430 1028ZM1366 1618Q1330 1631 1266 1653T1124 1703T968 1761L880 1796Q862 1801 862 1825Q862 1845 878 1868T920 1909T968 1927Q1010 1925 1067
1898T1186 1830T1300 1747T1388 1673L1366 1618Z" />
<glyph unicode="&#xda;" glyph-name="Uacute" horiz-adv-x="1595" d="M625 -57Q480 -57 392 2T263 164T223 403Q223 550 264 714T377 1034T537 1311Q537 1315 532 1315Q529 1315 520 1309L406 1221Q384 1209 313 1165T147 1062T-43 946V1057Q50 1110 153 1173T358
1300T547 1415T693 1498T772 1530Q781 1530 790 1525T799 1509Q799 1498 775 1443T712 1303T630 1112T549 892T486 666T461 457Q461 321 524 234T745 147Q885 147 1005 214T1216 394T1362 645T1425 924Q1398 929 1352 950T1259 1010T1180 1108T1147 1247Q1147 1305
1168 1368T1236 1475T1362 1520Q1425 1520 1462 1474T1520 1359T1546 1217T1553 1091T1554 1024Q1554 1024 1616 1042T1775 1111T1971 1261V1147Q1928 1111 1864 1065T1720 978T1552 920Q1528 733 1450 559T1250 245T969 25T625 -57ZM1430 1028Q1430 1037 1431
1047T1432 1067Q1432 1128 1419 1190T1381 1296T1321 1339Q1287 1339 1277 1316T1266 1266Q1266 1168 1315 1105T1430 1028ZM884 1618L861 1673Q895 1705 949 1747T1064 1829T1182 1897T1281 1927Q1305 1927 1329 1910T1371 1869T1388 1825Q1388 1801 1369 1796L1281
1761Q1204 1731 1126 1703T984 1653T884 1618Z" />
<glyph unicode="&#xdb;" glyph-name="Ucircumflex" horiz-adv-x="1595" d="M625 -57Q480 -57 392 2T263 164T223 403Q223 550 264 714T377 1034T537 1311Q537 1315 532 1315Q529 1315 520 1309L406 1221Q384 1209 313 1165T147 1062T-43 946V1057Q50 1110 153
1173T358 1300T547 1415T693 1498T772 1530Q781 1530 790 1525T799 1509Q799 1498 775 1443T712 1303T630 1112T549 892T486 666T461 457Q461 321 524 234T745 147Q885 147 1005 214T1216 394T1362 645T1425 924Q1398 929 1352 950T1259 1010T1180 1108T1147 1247Q1147
1305 1168 1368T1236 1475T1362 1520Q1425 1520 1462 1474T1520 1359T1546 1217T1553 1091T1554 1024Q1554 1024 1616 1042T1775 1111T1971 1261V1147Q1928 1111 1864 1065T1720 978T1552 920Q1528 733 1450 559T1250 245T969 25T625 -57ZM1430 1028Q1430 1037
1431 1047T1432 1067Q1432 1128 1419 1190T1381 1296T1321 1339Q1287 1339 1277 1316T1266 1266Q1266 1168 1315 1105T1430 1028ZM879 1622L820 1665Q853 1723 899 1791T996 1920T1093 2021T1170 2060Q1189 2060 1215 2021T1267 1923T1317 1806T1354 1706T1369
1663L1297 1622Q1274 1654 1231 1733T1141 1892Q1089 1839 1038 1785T945 1688T879 1622Z" />
<glyph unicode="&#xdc;" glyph-name="Udieresis" horiz-adv-x="1595" d="M625 -57Q480 -57 392 2T263 164T223 403Q223 550 264 714T377 1034T537 1311Q537 1315 532 1315Q529 1315 520 1309L406 1221Q384 1209 313 1165T147 1062T-43 946V1057Q50 1110 153 1173T358
1300T547 1415T693 1498T772 1530Q781 1530 790 1525T799 1509Q799 1498 775 1443T712 1303T630 1112T549 892T486 666T461 457Q461 321 524 234T745 147Q885 147 1005 214T1216 394T1362 645T1425 924Q1398 929 1352 950T1259 1010T1180 1108T1147 1247Q1147 1305
1168 1368T1236 1475T1362 1520Q1425 1520 1462 1474T1520 1359T1546 1217T1553 1091T1554 1024Q1554 1024 1616 1042T1775 1111T1971 1261V1147Q1928 1111 1864 1065T1720 978T1552 920Q1528 733 1450 559T1250 245T969 25T625 -57ZM1430 1028Q1430 1037 1431
1047T1432 1067Q1432 1128 1419 1190T1381 1296T1321 1339Q1287 1339 1277 1316T1266 1266Q1266 1168 1315 1105T1430 1028ZM1301 1662Q1258 1662 1240 1685T1221 1740Q1221 1774 1239 1810T1288 1872T1360 1898Q1420 1898 1445 1875T1471 1820Q1471 1786 1448
1749T1386 1687T1301 1662ZM857 1662Q815 1662 797 1685T779 1740Q779 1774 796 1810T845 1872T918 1898Q977 1898 1003 1875T1029 1820Q1029 1786 1005 1749T942 1687T857 1662Z" />
<glyph unicode="&#xdd;" glyph-name="Yacute" horiz-adv-x="1554" d="M442 -774Q376 -774 309 -751T197 -682T152 -565Q152 -501 203 -473L1012 -41L1171 457Q1090 363 990 278T788 126T594 21T438 -18Q394 -18 355 6T291 88T266 248Q266 356 300 494T384 778T477
1053L584 1364L276 1151L266 1145Q258 1137 254 1137Q242 1137 232 1146T221 1174Q221 1186 223 1197T242 1219L653 1487Q678 1504 708 1511T764 1518Q792 1518 810 1511T829 1489Q829 1467 808 1401T758 1225Q730 1113 691 984T613 732T550 510T524 358Q524 323
547 286T602 248Q671 248 764 284T952 387T1117 543T1214 739L1305 1114Q1307 1125 1317 1165T1342 1258T1371 1362T1401 1449T1423 1487H1640L1286 86L1673 440V328L1268 -33Q1219 -161 1147 -291T975 -531T743 -707T442 -774ZM553 -694Q604 -694 665 -656T787
-555T895 -415T965 -260L1001 -139L723 -301Q620 -349 545 -413T469 -547Q469 -619 495 -654T553 -694ZM996 1618L973 1673Q1007 1705 1061 1747T1176 1829T1294 1897T1393 1927Q1417 1927 1441 1910T1483 1869T1500 1825Q1500 1801 1481 1796L1393 1761Q1316 1731
1238 1703T1096 1653T996 1618Z" />
<glyph unicode="&#xde;" glyph-name="Thorn" horiz-adv-x="1554" d="M160 -180Q86 -180 19 -155T-90 -77T-133 53Q-133 103 -104 129T-30 166T63 176Q63 147 62 118T61 66Q61 8 85 -37T178 -82Q243 -82 291 -27T376 115T436 299T477 480T502 614L649 1403Q653
1426 684 1438T751 1456T801 1462H877L844 1266Q864 1268 883 1268T922 1268Q1138 1268 1276 1208T1481 1052T1548 848Q1548 732 1473 623T1255 444T905 373Q797 373 674 397Q617 167 532 42T349 -131T160 -180ZM864 496Q1042 496 1157 541T1328 659T1384 811Q1384
894 1326 970T1155 1096T877 1145Q863 1145 849 1145T821 1143Q799 1024 774 897T728 665T694 506Q741 500 782 498T864 496Z" />
<glyph unicode="&#xdf;" glyph-name="germandbls" horiz-adv-x="983" d="M-45 -184Q-47 -176 -47 -154Q-47 -99 -32 -11T8 176T57 369T101 531T127 625Q192 888 265 1061T417 1334T578 1476T743 1518Q832 1518 893 1476T986 1366T1018 1219Q1018 1133 974 1047T837
899T602 819Q717 775 792 696T904 521T942 328Q942 226 901 138T780 -4T582 -59Q500 -59 423 -34T283 43L332 156Q375 122 425 105T526 88Q626 88 673 160T721 332Q721 413 692 497T607 651T471 756V872Q596 872 678 928T801 1067T842 1225Q842 1296 812 1345T719
1395Q663 1395 600 1345T482 1184T395 889Q395 886 382 824T348 662T302 443T251 203T202 -19T162 -184H-45Z" />
<glyph unicode="&#xe0;" glyph-name="agrave" horiz-adv-x="928" d="M150 -29Q87 -29 54 13T8 114T-4 225Q-4 336 48 445T193 643T404 786T657 840Q702 840 742 831T825 807Q823 795 811 743T783 617T752 469T726 335T715 250Q715 186 745 186Q772 186 818 223T925
321T1051 455V340Q1027 311 982 266T879 169T765 73T658 0T578 -29Q533 -29 518 11T502 102Q502 128 504 153T510 199Q469 146 412 93T288 6T150 -29ZM307 131Q338 131 377 154T456 210T522 272L637 764Q553 764 476 719T339 602T244 445T209 281Q209 223 230 177T307
131ZM919 948Q883 961 819 983T677 1033T521 1091L433 1126Q415 1131 415 1155Q415 1175 431 1198T473 1239T521 1257Q563 1255 620 1228T739 1160T853 1077T941 1003L919 948Z" />
<glyph unicode="&#xe1;" glyph-name="aacute" horiz-adv-x="928" d="M150 -29Q87 -29 54 13T8 114T-4 225Q-4 336 48 445T193 643T404 786T657 840Q702 840 742 831T825 807Q823 795 811 743T783 617T752 469T726 335T715 250Q715 186 745 186Q772 186 818 223T925
321T1051 455V340Q1027 311 982 266T879 169T765 73T658 0T578 -29Q533 -29 518 11T502 102Q502 128 504 153T510 199Q469 146 412 93T288 6T150 -29ZM307 131Q338 131 377 154T456 210T522 272L637 764Q553 764 476 719T339 602T244 445T209 281Q209 223 230 177T307
131ZM437 948L414 1003Q448 1035 502 1077T617 1159T735 1227T834 1257Q858 1257 882 1240T924 1199T941 1155Q941 1131 922 1126L834 1091Q757 1061 679 1033T537 983T437 948Z" />
<glyph unicode="&#xe2;" glyph-name="acircumflex" horiz-adv-x="928" d="M150 -29Q87 -29 54 13T8 114T-4 225Q-4 336 48 445T193 643T404 786T657 840Q702 840 742 831T825 807Q823 795 811 743T783 617T752 469T726 335T715 250Q715 186 745 186Q772 186 818
223T925 321T1051 455V340Q1027 311 982 266T879 169T765 73T658 0T578 -29Q533 -29 518 11T502 102Q502 128 504 153T510 199Q469 146 412 93T288 6T150 -29ZM307 131Q338 131 377 154T456 210T522 272L637 764Q553 764 476 719T339 602T244 445T209 281Q209 223
230 177T307 131ZM432 952L373 995Q406 1053 452 1121T549 1250T646 1351T723 1390Q742 1390 768 1351T820 1253T870 1136T907 1036T922 993L850 952Q827 984 784 1063T694 1222Q642 1169 591 1115T498 1018T432 952Z" />
<glyph unicode="&#xe3;" glyph-name="atilde" horiz-adv-x="928" d="M150 -29Q87 -29 54 13T8 114T-4 225Q-4 336 48 445T193 643T404 786T657 840Q702 840 742 831T825 807Q823 795 811 743T783 617T752 469T726 335T715 250Q715 186 745 186Q772 186 818 223T925
321T1051 455V340Q1027 311 982 266T879 169T765 73T658 0T578 -29Q533 -29 518 11T502 102Q502 128 504 153T510 199Q469 146 412 93T288 6T150 -29ZM307 131Q338 131 377 154T456 210T522 272L637 764Q553 764 476 719T339 602T244 445T209 281Q209 223 230 177T307
131ZM887 980Q878 1030 859 1049T812 1068Q775 1068 728 1047T627 1005T519 984Q452 984 416 1016T365 1090T348 1166T343 1205L451 1226Q457 1178 479 1161T533 1144Q574 1144 626 1163T732 1201T836 1220Q904 1220 939 1188T990 1114T1008 1038T1012 999L887
980Z" />
<glyph unicode="&#xe4;" glyph-name="adieresis" horiz-adv-x="928" d="M150 -29Q87 -29 54 13T8 114T-4 225Q-4 336 48 445T193 643T404 786T657 840Q702 840 742 831T825 807Q823 795 811 743T783 617T752 469T726 335T715 250Q715 186 745 186Q772 186 818
223T925 321T1051 455V340Q1027 311 982 266T879 169T765 73T658 0T578 -29Q533 -29 518 11T502 102Q502 128 504 153T510 199Q469 146 412 93T288 6T150 -29ZM307 131Q338 131 377 154T456 210T522 272L637 764Q553 764 476 719T339 602T244 445T209 281Q209 223
230 177T307 131ZM854 992Q811 992 793 1015T774 1070Q774 1104 792 1140T841 1202T913 1228Q973 1228 998 1205T1024 1150Q1024 1116 1001 1079T939 1017T854 992ZM410 992Q368 992 350 1015T332 1070Q332 1104 349 1140T398 1202T471 1228Q530 1228 556 1205T582
1150Q582 1116 558 1079T495 1017T410 992Z" />
<glyph unicode="&#xe5;" glyph-name="aring" horiz-adv-x="928" d="M150 -29Q87 -29 54 13T8 114T-4 225Q-4 336 48 445T193 643T404 786T657 840Q702 840 742 831T825 807Q823 795 811 743T783 617T752 469T726 335T715 250Q715 186 745 186Q772 186 818 223T925
321T1051 455V340Q1027 311 982 266T879 169T765 73T658 0T578 -29Q533 -29 518 11T502 102Q502 128 504 153T510 199Q469 146 412 93T288 6T150 -29ZM307 131Q338 131 377 154T456 210T522 272L637 764Q553 764 476 719T339 602T244 445T209 281Q209 223 230 177T307
131ZM660 938Q602 938 551 976T500 1098Q500 1170 549 1232T695 1294Q775 1294 815 1245T855 1134Q855 1043 795 991T660 938ZM664 1005Q720 1005 750 1045T781 1130Q781 1169 761 1198T691 1227Q636 1227 607 1187T578 1100Q578 1064 597 1035T664 1005Z" />
<glyph unicode="&#xe6;" glyph-name="ae" horiz-adv-x="1219" d="M209 -29Q102 -29 49 46T-4 225Q-4 336 53 445T218 643T475 786T813 840L793 748Q843 792 910 816T1042 840Q1122 840 1181 799T1241 668Q1241 591 1198 527T1087 424T942 385Q901 385 850 410T762
494Q739 446 729 403T719 317Q719 257 733 205T785 119T887 86Q934 86 992 125T1111 222T1232 342T1339 447V337Q1185 166 1054 69T788 -29Q712 -29 643 11T547 129Q507 75 446 40T321 -12T209 -29ZM307 131Q358 131 423 165T535 246L653 764Q514 733 415 659T262
486T209 281Q209 223 229 177T307 131ZM958 471Q1017 471 1059 529T1102 657Q1102 714 1077 734T1008 754Q949 754 904 720T830 643T791 569Q826 523 870 497T958 471Z" />
<glyph unicode="&#xe7;" glyph-name="ccedilla" horiz-adv-x="713" d="M227 -29Q106 -29 51 46T-4 231Q-4 327 33 433T140 631T302 782T508 840Q543 840 590 832T672 798T707 717Q707 674 670 645T575 616Q554 616 542 635T517 679T485 724T432 743Q387 743 348
705T278 607T232 475T215 338Q215 256 245 199T344 141Q447 141 576 222T823 442V330Q774 264 703 200T551 85T386 2T227 -29ZM355 -492L339 -430Q339 -430 360 -402T402 -318T423 -174Q383 -162 364 -139T345 -90Q345 -56 380 -28T484 0Q543 0 566 -31T589 -117Q589
-148 576 -205T534 -323T462 -432T355 -492Z" />
<glyph unicode="&#xe8;" glyph-name="egrave" horiz-adv-x="744" d="M292 -31Q171 -31 99 49T27 258Q27 366 62 470T163 657T319 790T518 840Q616 840 685 802T754 664Q754 587 711 523T599 420T455 381Q413 381 363 406T274 489Q231 399 231 313Q231 253 245
201T297 115T399 82Q446 82 504 120T624 215T745 333T852 438V328Q714 166 577 68T292 -31ZM471 467Q530 467 572 525T614 653Q614 710 589 730T520 750Q461 750 416 716T343 639T303 565Q338 519 382 493T471 467ZM839 940Q803 953 739 975T597 1025T441 1083L353
1118Q335 1123 335 1147Q335 1167 351 1190T393 1231T441 1249Q483 1247 540 1220T659 1152T773 1069T861 995L839 940Z" />
<glyph unicode="&#xe9;" glyph-name="eacute" horiz-adv-x="744" d="M292 -31Q171 -31 99 49T27 258Q27 366 62 470T163 657T319 790T518 840Q616 840 685 802T754 664Q754 587 711 523T599 420T455 381Q413 381 363 406T274 489Q231 399 231 313Q231 253 245
201T297 115T399 82Q446 82 504 120T624 215T745 333T852 438V328Q714 166 577 68T292 -31ZM471 467Q530 467 572 525T614 653Q614 710 589 730T520 750Q461 750 416 716T343 639T303 565Q338 519 382 493T471 467ZM357 940L334 995Q368 1027 422 1069T537 1151T655
1219T754 1249Q778 1249 802 1232T844 1191T861 1147Q861 1123 842 1118L754 1083Q677 1053 599 1025T457 975T357 940Z" />
<glyph unicode="&#xea;" glyph-name="ecircumflex" horiz-adv-x="744" d="M292 -31Q171 -31 99 49T27 258Q27 366 62 470T163 657T319 790T518 840Q616 840 685 802T754 664Q754 587 711 523T599 420T455 381Q413 381 363 406T274 489Q231 399 231 313Q231 253
245 201T297 115T399 82Q446 82 504 120T624 215T745 333T852 438V328Q714 166 577 68T292 -31ZM471 467Q530 467 572 525T614 653Q614 710 589 730T520 750Q461 750 416 716T343 639T303 565Q338 519 382 493T471 467ZM352 944L293 987Q326 1045 372 1113T469
1242T566 1343T643 1382Q662 1382 688 1343T740 1245T790 1128T827 1028T842 985L770 944Q747 976 704 1055T614 1214Q562 1161 511 1107T418 1010T352 944Z" />
<glyph unicode="&#xeb;" glyph-name="edieresis" horiz-adv-x="744" d="M292 -31Q171 -31 99 49T27 258Q27 366 62 470T163 657T319 790T518 840Q616 840 685 802T754 664Q754 587 711 523T599 420T455 381Q413 381 363 406T274 489Q231 399 231 313Q231 253 245
201T297 115T399 82Q446 82 504 120T624 215T745 333T852 438V328Q714 166 577 68T292 -31ZM471 467Q530 467 572 525T614 653Q614 710 589 730T520 750Q461 750 416 716T343 639T303 565Q338 519 382 493T471 467ZM774 984Q731 984 713 1007T694 1062Q694 1096
712 1132T761 1194T833 1220Q893 1220 918 1197T944 1142Q944 1108 921 1071T859 1009T774 984ZM330 984Q288 984 270 1007T252 1062Q252 1096 269 1132T318 1194T391 1220Q450 1220 476 1197T502 1142Q502 1108 478 1071T415 1009T330 984Z" />
<glyph unicode="&#xec;" glyph-name="igrave" horiz-adv-x="469" d="M106 -29Q58 -29 38 13T18 102Q18 134 29 197T58 337T95 489T131 622T157 702Q178 756 208 777T281 803T378 807Q368 773 349 711T308 574T266 424T233 289T220 199Q220 185 226 159T255 133Q267
133 309 170T406 259T508 362T579 438V326Q410 160 304 68T106 -29ZM663 940Q627 953 563 975T421 1025T265 1083L177 1118Q159 1123 159 1147Q159 1167 175 1190T217 1231T265 1249Q307 1247 364 1220T483 1152T597 1069T685 995L663 940Z" />
<glyph unicode="&#xed;" glyph-name="iacute" horiz-adv-x="469" d="M106 -29Q58 -29 38 13T18 102Q18 134 29 197T58 337T95 489T131 622T157 702Q178 756 208 777T281 803T378 807Q368 773 349 711T308 574T266 424T233 289T220 199Q220 185 226 159T255 133Q267
133 309 170T406 259T508 362T579 438V326Q410 160 304 68T106 -29ZM181 940L158 995Q192 1027 246 1069T361 1151T479 1219T578 1249Q602 1249 626 1232T668 1191T685 1147Q685 1123 666 1118L578 1083Q501 1053 423 1025T281 975T181 940Z" />
<glyph unicode="&#xee;" glyph-name="icircumflex" horiz-adv-x="469" d="M106 -29Q58 -29 38 13T18 102Q18 134 29 197T58 337T95 489T131 622T157 702Q178 756 208 777T281 803T378 807Q368 773 349 711T308 574T266 424T233 289T220 199Q220 185 226 159T255
133Q267 133 309 170T406 259T508 362T579 438V326Q410 160 304 68T106 -29ZM176 944L117 987Q150 1045 196 1113T293 1242T390 1343T467 1382Q486 1382 512 1343T564 1245T614 1128T651 1028T666 985L594 944Q571 976 528 1055T438 1214Q386 1161 335 1107T242
1010T176 944Z" />
<glyph unicode="&#xef;" glyph-name="idieresis" horiz-adv-x="469" d="M106 -29Q58 -29 38 13T18 102Q18 134 29 197T58 337T95 489T131 622T157 702Q178 756 208 777T281 803T378 807Q368 773 349 711T308 574T266 424T233 289T220 199Q220 185 226 159T255
133Q267 133 309 170T406 259T508 362T579 438V326Q410 160 304 68T106 -29ZM854 984Q811 984 793 1007T774 1062Q774 1096 792 1132T841 1194T913 1220Q973 1220 998 1197T1024 1142Q1024 1108 1001 1071T939 1009T854 984ZM410 984Q368 984 350 1007T332 1062Q332
1096 349 1132T398 1194T471 1220Q530 1220 556 1197T582 1142Q582 1108 558 1071T495 1009T410 984Z" />
<glyph unicode="&#xf0;" glyph-name="eth" horiz-adv-x="1036" d="M581 -14Q478 -14 388 26T229 136T122 291T83 467Q83 581 128 660T248 781T414 823Q453 823 507 812T601 777T642 714Q642 699 633 679Q564 710 494 710Q422 710 371 651T319 483Q319 382 361
296T466 158T591 105Q671 105 710 141T762 244T775 398Q775 552 701 728T521 1074L376 1004Q372 1003 362 999T339 994Q313 994 302 1023T290 1069Q290 1087 297 1098T314 1117Q324 1124 360 1143T448 1189Q384 1284 319 1371T195 1531H335Q413 1531 496 1463T657
1286L716 1310Q775 1336 826 1354T906 1372Q929 1372 935 1360T941 1330Q941 1303 926 1273T880 1231Q846 1218 812 1203T745 1174L732 1168Q802 1049 857 913T944 647T976 410Q976 218 875 102T581 -14Z" />
<glyph unicode="&#xf1;" glyph-name="ntilde" horiz-adv-x="838" d="M508 -29Q456 -29 442 -2T428 47Q428 127 450 209T503 366T555 502T578 600Q578 626 566 640T539 655Q490 655 440 603T344 469T259 296T194 126T156 0H-35Q-34 46 -23 120T8 280T50 453T94
611T133 727Q153 780 192 793T283 807H350Q350 807 339 767T310 667T274 547T242 444Q272 500 322 568T437 698T571 800T709 840Q807 840 807 723Q807 692 793 638T758 521T716 396T680 288T666 223Q666 205 678 205Q691 205 713 219Q726 228 757 256T825 321T896
389T948 436V324Q924 300 880 258T782 166T675 72T577 0T508 -29ZM808 972Q799 1022 780 1041T733 1060Q696 1060 649 1039T548 997T440 976Q373 976 337 1008T286 1082T269 1158T264 1197L372 1218Q378 1170 400 1153T454 1136Q495 1136 547 1155T653 1193T757
1212Q825 1212 860 1180T911 1106T929 1030T933 991L808 972Z" />
<glyph unicode="&#xf2;" glyph-name="ograve" horiz-adv-x="867" d="M336 -29Q227 -29 161 23T66 156T36 317Q36 488 115 610T336 797T667 862Q687 862 689 849Q689 834 687 826T667 806Q522 806 429 745T290 583T245 367Q245 249 301 190T431 131Q478 131 529
160T629 253Q556 298 518 367T480 504Q480 578 525 630T673 682Q763 682 802 630T841 506Q841 448 815 388T741 284H748Q807 284 866 335T998 462V352Q939 272 869 241T749 210Q733 210 700 214Q546 -29 336 -29ZM686 320Q706 342 726 396T746 494Q746 532 729
559T664 586Q621 586 602 558T583 489Q583 447 612 398T686 320ZM905 940Q869 953 805 975T663 1025T507 1083L419 1118Q401 1123 401 1147Q401 1167 417 1190T459 1231T507 1249Q549 1247 606 1220T725 1152T839 1069T927 995L905 940Z" />
<glyph unicode="&#xf3;" glyph-name="oacute" horiz-adv-x="867" d="M336 -29Q227 -29 161 23T66 156T36 317Q36 488 115 610T336 797T667 862Q687 862 689 849Q689 834 687 826T667 806Q522 806 429 745T290 583T245 367Q245 249 301 190T431 131Q478 131 529
160T629 253Q556 298 518 367T480 504Q480 578 525 630T673 682Q763 682 802 630T841 506Q841 448 815 388T741 284H748Q807 284 866 335T998 462V352Q939 272 869 241T749 210Q733 210 700 214Q546 -29 336 -29ZM686 320Q706 342 726 396T746 494Q746 532 729
559T664 586Q621 586 602 558T583 489Q583 447 612 398T686 320ZM423 940L400 995Q434 1027 488 1069T603 1151T721 1219T820 1249Q844 1249 868 1232T910 1191T927 1147Q927 1123 908 1118L820 1083Q743 1053 665 1025T523 975T423 940Z" />
<glyph unicode="&#xf4;" glyph-name="ocircumflex" horiz-adv-x="867" d="M336 -29Q227 -29 161 23T66 156T36 317Q36 488 115 610T336 797T667 862Q687 862 689 849Q689 834 687 826T667 806Q522 806 429 745T290 583T245 367Q245 249 301 190T431 131Q478 131
529 160T629 253Q556 298 518 367T480 504Q480 578 525 630T673 682Q763 682 802 630T841 506Q841 448 815 388T741 284H748Q807 284 866 335T998 462V352Q939 272 869 241T749 210Q733 210 700 214Q546 -29 336 -29ZM686 320Q706 342 726 396T746 494Q746 532
729 559T664 586Q621 586 602 558T583 489Q583 447 612 398T686 320ZM418 944L359 987Q392 1045 438 1113T535 1242T632 1343T709 1382Q728 1382 754 1343T806 1245T856 1128T893 1028T908 985L836 944Q813 976 770 1055T680 1214Q628 1161 577 1107T484 1010T418
944Z" />
<glyph unicode="&#xf5;" glyph-name="otilde" horiz-adv-x="867" d="M336 -29Q227 -29 161 23T66 156T36 317Q36 488 115 610T336 797T667 862Q687 862 689 849Q689 834 687 826T667 806Q522 806 429 745T290 583T245 367Q245 249 301 190T431 131Q478 131 529
160T629 253Q556 298 518 367T480 504Q480 578 525 630T673 682Q763 682 802 630T841 506Q841 448 815 388T741 284H748Q807 284 866 335T998 462V352Q939 272 869 241T749 210Q733 210 700 214Q546 -29 336 -29ZM686 320Q706 342 726 396T746 494Q746 532 729
559T664 586Q621 586 602 558T583 489Q583 447 612 398T686 320ZM873 972Q864 1022 845 1041T798 1060Q761 1060 714 1039T613 997T505 976Q438 976 402 1008T351 1082T334 1158T329 1197L437 1218Q443 1170 465 1153T519 1136Q560 1136 612 1155T718 1193T822
1212Q890 1212 925 1180T976 1106T994 1030T998 991L873 972Z" />
<glyph unicode="&#xf6;" glyph-name="odieresis" horiz-adv-x="867" d="M336 -29Q227 -29 161 23T66 156T36 317Q36 488 115 610T336 797T667 862Q687 862 689 849Q689 834 687 826T667 806Q522 806 429 745T290 583T245 367Q245 249 301 190T431 131Q478 131
529 160T629 253Q556 298 518 367T480 504Q480 578 525 630T673 682Q763 682 802 630T841 506Q841 448 815 388T741 284H748Q807 284 866 335T998 462V352Q939 272 869 241T749 210Q733 210 700 214Q546 -29 336 -29ZM686 320Q706 342 726 396T746 494Q746 532
729 559T664 586Q621 586 602 558T583 489Q583 447 612 398T686 320ZM840 984Q797 984 779 1007T760 1062Q760 1096 778 1132T827 1194T899 1220Q959 1220 984 1197T1010 1142Q1010 1108 987 1071T925 1009T840 984ZM396 984Q354 984 336 1007T318 1062Q318 1096
335 1132T384 1194T457 1220Q516 1220 542 1197T568 1142Q568 1108 544 1071T481 1009T396 984Z" />
<glyph unicode="&#xf7;" glyph-name="divide" horiz-adv-x="1200" d="M613 864Q560 864 537 887T513 942Q513 976 528 1012T571 1074T632 1100Q692 1100 717 1077T742 1022Q742 987 725 951T678 889T613 864ZM302 598Q295 598 270 602T245 639Q245 686 261 703T294
725Q310 728 360 732T473 741T592 749T677 752Q749 752 810 749T909 736T947 711Q947 683 917 649T847 614Q792 614 744 615T648 616Q626 616 595 615T497 611T302 598ZM511 254Q468 254 450 277T431 332Q431 366 449 402T498 463T570 489Q630 489 655 466T681
412Q681 377 658 341T596 279T511 254Z" />
<glyph unicode="&#xf8;" glyph-name="oslash" horiz-adv-x="907" d="M87 -211Q67 -208 67 -193Q67 -176 82 -156T108 -115Q114 -101 131 -71T173 0Q92 41 57 132T22 317Q22 408 70 500T200 669T380 793T581 840Q635 840 691 823L763 936Q800 989 817 1019T863
1049Q868 1049 884 1045T900 1020Q900 1012 894 1006L761 793Q822 757 880 684Q880 669 876 654T839 627Q780 695 720 727L366 160Q403 133 456 133Q496 133 539 155T624 225Q593 259 579 301T564 385Q564 448 595 496T687 545Q749 545 772 512T796 434Q796 380
775 326T739 252Q758 244 775 244Q826 244 880 301T1019 442V332Q949 258 894 214T773 170Q755 170 732 173T696 186Q623 98 517 35T292 -29Q282 -29 271 -28T251 -25L190 -125Q191 -124 178 -144T141 -187T87 -211ZM308 217Q391 351 483 496T646 752Q619 758 595
758Q526 758 464 726T354 642T279 530T251 412Q251 295 308 217ZM683 283Q693 303 709 344T726 418Q726 436 718 448T689 461Q667 461 655 436T642 379Q642 350 653 323T683 283Z" />
<glyph unicode="&#xf9;" glyph-name="ugrave" horiz-adv-x="993" d="M146 -29Q78 -29 54 23T29 139Q29 168 33 197T43 250Q68 344 111 485T209 782Q211 795 245 800T318 806T371 807H406Q406 804 390 752T349 622T300 462T259 313T242 219Q242 178 261 162T309
145Q351 145 404 170T499 225T549 272L657 688Q674 751 696 775T747 803T811 807H879Q879 807 866 760T833 639T792 487T753 343T729 246Q728 232 725 207T721 156Q721 142 725 136T746 129Q768 129 821 170T948 282T1106 443V330Q1054 268 990 205T858 88T727
3T613 -29Q562 -29 545 11T527 102Q527 157 537 195Q479 139 412 88T276 4T146 -29ZM868 940Q832 953 768 975T626 1025T470 1083L382 1118Q364 1123 364 1147Q364 1167 380 1190T422 1231T470 1249Q512 1247 569 1220T688 1152T802 1069T890 995L868 940Z" />
<glyph unicode="&#xfa;" glyph-name="uacute" horiz-adv-x="993" d="M146 -29Q78 -29 54 23T29 139Q29 168 33 197T43 250Q68 344 111 485T209 782Q211 795 245 800T318 806T371 807H406Q406 804 390 752T349 622T300 462T259 313T242 219Q242 178 261 162T309
145Q351 145 404 170T499 225T549 272L657 688Q674 751 696 775T747 803T811 807H879Q879 807 866 760T833 639T792 487T753 343T729 246Q728 232 725 207T721 156Q721 142 725 136T746 129Q768 129 821 170T948 282T1106 443V330Q1054 268 990 205T858 88T727
3T613 -29Q562 -29 545 11T527 102Q527 157 537 195Q479 139 412 88T276 4T146 -29ZM386 940L363 995Q397 1027 451 1069T566 1151T684 1219T783 1249Q807 1249 831 1232T873 1191T890 1147Q890 1123 871 1118L783 1083Q706 1053 628 1025T486 975T386 940Z" />
<glyph unicode="&#xfb;" glyph-name="ucircumflex" horiz-adv-x="993" d="M146 -29Q78 -29 54 23T29 139Q29 168 33 197T43 250Q68 344 111 485T209 782Q211 795 245 800T318 806T371 807H406Q406 804 390 752T349 622T300 462T259 313T242 219Q242 178 261 162T309
145Q351 145 404 170T499 225T549 272L657 688Q674 751 696 775T747 803T811 807H879Q879 807 866 760T833 639T792 487T753 343T729 246Q728 232 725 207T721 156Q721 142 725 136T746 129Q768 129 821 170T948 282T1106 443V330Q1054 268 990 205T858 88T727
3T613 -29Q562 -29 545 11T527 102Q527 157 537 195Q479 139 412 88T276 4T146 -29ZM381 944L322 987Q355 1045 401 1113T498 1242T595 1343T672 1382Q691 1382 717 1343T769 1245T819 1128T856 1028T871 985L799 944Q776 976 733 1055T643 1214Q591 1161 540 1107T447
1010T381 944Z" />
<glyph unicode="&#xfc;" glyph-name="udieresis" horiz-adv-x="993" d="M146 -29Q78 -29 54 23T29 139Q29 168 33 197T43 250Q68 344 111 485T209 782Q211 795 245 800T318 806T371 807H406Q406 804 390 752T349 622T300 462T259 313T242 219Q242 178 261 162T309
145Q351 145 404 170T499 225T549 272L657 688Q674 751 696 775T747 803T811 807H879Q879 807 866 760T833 639T792 487T753 343T729 246Q728 232 725 207T721 156Q721 142 725 136T746 129Q768 129 821 170T948 282T1106 443V330Q1054 268 990 205T858 88T727
3T613 -29Q562 -29 545 11T527 102Q527 157 537 195Q479 139 412 88T276 4T146 -29ZM803 984Q760 984 742 1007T723 1062Q723 1096 741 1132T790 1194T862 1220Q922 1220 947 1197T973 1142Q973 1108 950 1071T888 1009T803 984ZM359 984Q317 984 299 1007T281
1062Q281 1096 298 1132T347 1194T420 1220Q479 1220 505 1197T531 1142Q531 1108 507 1071T444 1009T359 984Z" />
<glyph unicode="&#xfd;" glyph-name="yacute" horiz-adv-x="860" d="M195 -489Q153 -489 110 -470T36 -416T6 -332Q6 -276 51 -235T162 -156L463 35L496 195Q438 139 370 88T234 4T103 -29Q36 -29 11 23T-14 139Q-14 198 10 295T76 517T166 782Q168 795 202 800T275
806T328 807H363Q363 804 347 752T306 622T257 462T216 313T199 219Q199 178 218 162T266 145Q308 145 361 170T456 225T506 272L615 688Q631 751 653 775T704 803T768 807H836Q826 778 805 706T759 543T711 367T673 224T656 164L668 174Q735 230 784 271T877 351T973
440V328Q897 246 810 174T639 27V23Q608 -153 534 -266T369 -434T195 -489ZM230 -420Q324 -420 377 -324T451 -88L266 -205Q228 -228 192 -259T156 -338Q156 -420 230 -420ZM339 940L316 995Q350 1027 404 1069T519 1151T637 1219T736 1249Q760 1249 784 1232T826
1191T843 1147Q843 1123 824 1118L736 1083Q659 1053 581 1025T439 975T339 940Z" />
<glyph unicode="&#xfe;" glyph-name="thorn" horiz-adv-x="836" d="M-137 -389Q-62 -95 1 204T133 799T297 1382Q319 1439 360 1450T457 1462H524Q511 1417 498 1366T464 1233T405 1018T305 674Q296 642 283 596T260 513T250 477Q275 521 321 582T427 702T554
800T688 840Q757 840 787 797T817 688Q817 622 792 542T726 384T633 242T528 145Q553 145 586 154T669 195T796 294T983 479V367Q881 250 792 164T607 31T395 -16Q360 -16 348 1T336 49Q336 72 362 104T416 168Q454 212 495 286T565 438T594 573Q594 611 579 633T528
655Q469 655 417 606T320 474T237 290T166 84L139 -2Q105 -125 81 -229T43 -389H-137Z" />
<glyph unicode="&#xff;" glyph-name="ydieresis" horiz-adv-x="860" d="M195 -489Q153 -489 110 -470T36 -416T6 -332Q6 -276 51 -235T162 -156L463 35L496 195Q438 139 370 88T234 4T103 -29Q36 -29 11 23T-14 139Q-14 198 10 295T76 517T166 782Q168 795 202
800T275 806T328 807H363Q363 804 347 752T306 622T257 462T216 313T199 219Q199 178 218 162T266 145Q308 145 361 170T456 225T506 272L615 688Q631 751 653 775T704 803T768 807H836Q826 778 805 706T759 543T711 367T673 224T656 164L668 174Q735 230 784 271T877
351T973 440V328Q897 246 810 174T639 27V23Q608 -153 534 -266T369 -434T195 -489ZM230 -420Q324 -420 377 -324T451 -88L266 -205Q228 -228 192 -259T156 -338Q156 -420 230 -420ZM756 984Q713 984 695 1007T676 1062Q676 1096 694 1132T743 1194T815 1220Q875
1220 900 1197T926 1142Q926 1108 903 1071T841 1009T756 984ZM312 984Q270 984 252 1007T234 1062Q234 1096 251 1132T300 1194T373 1220Q432 1220 458 1197T484 1142Q484 1108 460 1071T397 1009T312 984Z" />
<glyph unicode="&#x2013;" glyph-name="endash" horiz-adv-x="930" d="M129 598Q122 598 97 602T72 639Q72 686 88 703T121 725Q139 727 189 730T307 738T445 745T575 750T668 752Q752 752 814 744T877 711Q877 683 847 649T776 614Q739 614 705 615T639 616Q616
616 585 616T501 614T358 609T129 598Z" />
<glyph unicode="&#x2014;" glyph-name="emdash" horiz-adv-x="1196" d="M129 598Q122 598 97 602T72 639Q72 686 88 703T121 725Q144 727 211 730T369 738T554 745T729 750T852 752Q929 752 995 749T1102 736T1143 711Q1143 683 1113 649T1042 614Q981 614 928
615T823 616Q793 616 750 616T634 614T439 609T129 598Z" />
<glyph unicode="&#x2018;" glyph-name="quoteleft" horiz-adv-x="375" d="M152 1067Q94 1067 71 1098T47 1184Q47 1214 69 1265T121 1371T179 1472T219 1538L276 1518Q276 1518 266 1487T241 1407T213 1303Q254 1303 272 1280T291 1225Q291 1191 273 1155T223
1093T152 1067Z" />
<glyph unicode="&#x2019;" glyph-name="quoteright" horiz-adv-x="443" d="M266 1067L208 1087Q208 1087 219 1118T245 1199T272 1303Q230 1303 212 1326T194 1380Q194 1414 212 1450T261 1512T333 1538Q392 1538 415 1507T438 1421Q438 1391 416 1340T363 1234T305
1133T266 1067Z" />
<glyph unicode="&#x201a;" glyph-name="quotesinglbase" horiz-adv-x="373" d="M156 -264L98 -244Q98 -244 109 -213T135 -132T162 -29Q120 -29 102 -6T84 49Q84 83 102 119T151 181T223 207Q282 207 305 176T328 90Q328 60 306 9T253 -97T195 -198T156 -264Z" />
<glyph unicode="&#x201c;" glyph-name="quotedblleft" horiz-adv-x="752" d="M500 1067Q442 1067 419 1098T395 1184Q395 1214 417 1265T470 1371T528 1472T567 1538L625 1518Q625 1518 614 1487T589 1407T561 1303Q602 1303 620 1280T639 1225Q639 1191 621 1155T572
1093T500 1067ZM195 1067Q137 1067 114 1098T90 1184Q90 1214 112 1265T164 1371T222 1472T262 1538L319 1518Q319 1518 309 1487T284 1407T256 1303Q297 1303 315 1280T334 1225Q334 1191 316 1155T266 1093T195 1067Z" />
<glyph unicode="&#x201d;" glyph-name="quotedblright" horiz-adv-x="490" d="M489 1067L432 1087Q432 1087 443 1118T469 1199T496 1303Q454 1303 436 1326T418 1380Q418 1414 436 1450T485 1512T557 1538Q616 1538 639 1507T662 1421Q662 1391 640 1340T587
1234T529 1133T489 1067ZM184 1067L127 1087Q127 1087 138 1118T163 1199T190 1303Q149 1303 131 1326T113 1380Q113 1414 131 1450T180 1512T252 1538Q311 1538 333 1507T356 1421Q356 1391 334 1340T282 1234T224 1133T184 1067Z" />
<glyph unicode="&#x201e;" glyph-name="quotedblbase" horiz-adv-x="750" d="M489 -236L432 -215Q432 -215 443 -184T469 -104T496 0Q454 0 436 23T418 78Q418 112 436 148T485 210T557 236Q616 236 639 204T662 119Q662 89 640 38T587 -68T529 -170T489 -236ZM184
-236L127 -215Q127 -215 138 -184T163 -104T190 0Q149 0 131 23T113 78Q113 112 131 148T180 210T252 236Q311 236 333 204T356 119Q356 89 334 38T282 -68T224 -170T184 -236Z" />
<glyph unicode="&#x2022;" glyph-name="bullet" horiz-adv-x="422" d="M158 403Q73 403 36 451T-2 561Q-2 631 35 705T137 830T281 881Q402 881 453 833T504 723Q504 653 457 579T331 454T158 403Z" />
<glyph unicode="&#x2039;" glyph-name="guilsinglleft" horiz-adv-x="696" d="M471 35Q439 35 408 63T352 123Q294 196 236 272T128 417T50 538T20 616Q20 652 54 687T147 791L303 965Q334 999 369 1046T447 1129T545 1165Q563 1165 581 1155T600 1112Q600 1090
563 1057T467 969T346 829L193 649L332 438L424 313Q483 241 517 186T551 96Q551 75 532 55T471 35Z" />
<glyph unicode="&#x203a;" glyph-name="guilsinglright" horiz-adv-x="727" d="M150 35Q108 35 93 55T80 96Q86 131 129 186T242 313L354 438L528 649L406 829Q358 914 308 968T227 1056T199 1112Q204 1144 224 1154T262 1165Q318 1165 355 1129T419 1046T471
965L598 791Q648 723 675 688T696 616Q692 591 654 539T556 417T425 272T283 123Q254 92 218 64T150 35Z" />
</font>
</defs>
</svg>
