<?xml version="1.0" standalone="no"?>
<!DOCTYPE svg PUBLIC "-//W3C//DTD SVG 1.1//EN" "http://www.w3.org/Graphics/SVG/1.1/DTD/svg11.dtd">
<svg xmlns="http://www.w3.org/2000/svg">
<defs >
<font id="RedditMono" horiz-adv-x="1147" ><font-face
    font-family="Reddit Mono"
    units-per-em="2048"
    panose-1="2 0 0 9 0 0 0 0 0 0"
    ascent="2068"
    descent="-592"
    alphabetic="0" />
<glyph unicode=" " horiz-adv-x="1152" />
<glyph unicode="!" horiz-adv-x="1152" d="M506 496L482 1474H670L646 496H506ZM578 -16Q517 -16 474 27T430 134Q430 196 472 238T578 280Q641 280 683 238T726 134Q726 70 684 27T578 -16Z" />
<glyph unicode="&quot;" horiz-adv-x="1152" d="M303 988Q281 1179 269 1290T257 1456Q257 1503 283 1529T353 1556Q396 1556 422 1530T449 1456Q449 1401 438 1290T403 988H303ZM749 988Q727 1179 715 1290T703 1456Q703 1503 729 1529T799 1556Q842 1556 868
1530T895 1456Q895 1401 884 1290T849 988H749Z" />
<glyph unicode="#" horiz-adv-x="1152" d="M88 414V554H1042V414H88ZM110 920V1060H1064V920H110ZM178 0L378 1474H520L318 0H178ZM632 0L834 1474H974L774 0H632Z" />
<glyph unicode="$" horiz-adv-x="1152" d="M582 -16Q470 -16 380 31T227 151T140 304L300 372Q322 307 362 257T458 177T580 148Q648 148 709 178T809 264T848 394Q848 465 815 515T733 600T632 656T546 692Q449 730 370 785T243 920T196 1114Q196 1231 246 1315T384
1445T584 1490Q691 1490 770 1453T902 1355T986 1228L836 1164Q817 1202 782 1240T698 1303T588 1328Q532 1328 480 1304T395 1230T362 1108Q362 1026 403 975T505 891T626 836Q670 819 736 789T866 709T974 583T1016 398Q1015 272 954 179T793 35T582 -16ZM526
-254V16L530 122V720L538 786V1356L530 1434V1700H672V1434L666 1352V786L658 720V122L666 16V-254H526Z" />
<glyph unicode="%" horiz-adv-x="1152" d="M340 838Q257 838 188 882T79 1000T38 1164Q38 1258 78 1331T188 1447T340 1490Q425 1490 493 1448T602 1332T642 1164Q642 1074 602 1000T494 882T340 838ZM340 966Q414 966 462 1022T510 1164Q510 1253 462 1306T340
1360Q293 1360 255 1336T193 1268T170 1164Q170 1108 193 1063T254 992T340 966ZM812 -16Q729 -16 660 28T551 146T510 310Q510 404 550 477T660 593T812 636Q897 636 965 594T1074 478T1114 310Q1114 220 1074 146T966 28T812 -16ZM812 112Q886 112 934 168T982
310Q982 399 934 452T812 506Q765 506 727 482T665 414T642 310Q642 253 665 209T726 138T812 112ZM94 378L24 484L550 780L1058 1096L1128 990L608 698L94 378Z" />
<glyph unicode="&amp;" horiz-adv-x="1152" d="M924 0L358 804Q311 871 274 929T214 1047T192 1176Q192 1266 234 1336T349 1446T514 1486Q606 1486 677 1448T788 1343T828 1196Q828 1090 761 986T596 816L532 774L452 898L508 932Q568 968 614 1036T660 1172Q660
1240 619 1285T512 1330Q449 1330 405 1287T360 1176Q360 1130 379 1084T429 991T492 898L1124 0H924ZM484 -16Q362 -16 267 42T118 198T64 416Q64 507 94 592T178 745T300 854L376 900L466 766L392 722Q325 682 281 600T236 422Q236 342 268 277T358 174T490 136Q600
136 684 222T815 458T862 802H1034Q1034 625 994 476T881 216T707 45T484 -16Z" />
<glyph unicode="&apos;" horiz-adv-x="1152" d="M526 988Q504 1179 492 1290T480 1456Q480 1503 506 1529T576 1556Q619 1556 645 1530T672 1456Q672 1401 661 1290T626 988H526Z" />
<glyph unicode="(" horiz-adv-x="1152" d="M750 -352Q611 -242 500 -82T325 274T260 684Q260 896 323 1089T498 1443T750 1716L856 1630Q727 1526 627 1380T469 1056T412 682Q412 488 468 311T624 -12T856 -262L750 -352Z" />
<glyph unicode=")" horiz-adv-x="1152" d="M402 -352L296 -262Q428 -159 528 -13T684 311T740 682Q740 879 683 1056T526 1379T296 1630L402 1716Q543 1603 654 1443T828 1090T892 684Q892 470 828 275T652 -81T402 -352Z" />
<glyph unicode="*" horiz-adv-x="1152" d="M576 880Q549 880 532 899T514 944Q514 967 524 1055T550 1264Q537 1374 530 1436T519 1529T515 1569T514 1584Q514 1613 531 1630T576 1648Q603 1648 620 1631T638 1584Q638 1580 638 1570T634 1529T623 1437T602 1264Q617
1144 627 1056T638 944Q638 919 621 900T576 880ZM336 1050Q312 1037 287 1043T250 1072Q235 1099 244 1122T274 1158Q292 1169 370 1203T564 1286Q567 1288 602 1315T683 1379T767 1444T816 1478Q837 1490 862 1487T902 1456Q917 1431 909 1407T878 1370Q860 1360
794 1331T590 1242Q472 1151 411 1105T336 1050ZM816 1050Q803 1058 739 1106T564 1242Q453 1290 374 1324T274 1370Q249 1385 243 1408T250 1456Q265 1483 291 1486T336 1478Q343 1474 364 1459T437 1404T590 1286Q693 1241 751 1216T838 1178T878 1158Q902 1145
909 1120T902 1072Q889 1048 865 1043T816 1050Z" />
<glyph unicode="+" horiz-adv-x="1152" d="M498 144V1108H654V144H498ZM112 552V700H1040V552H112Z" />
<glyph unicode="," horiz-adv-x="1152" d="M470 -316L398 -244L500 -134Q531 -100 556 -67T595 -1T610 68H650Q641 29 616 7T556 -16Q522 -16 491 3T440 55T420 134Q420 197 462 238T566 280Q631 280 675 232T720 104Q720 32 682 -43T578 -192L470 -316Z" />
<glyph unicode="-" horiz-adv-x="1152" d="M122 550V706H1030V550H122Z" />
<glyph unicode="." horiz-adv-x="1152" d="M576 -16Q515 -16 472 27T428 134Q428 196 470 238T576 280Q639 280 681 238T724 134Q724 70 682 27T576 -16Z" />
<glyph unicode="/" horiz-adv-x="1152" d="M96 -300L896 1662H1048L248 -300H96Z" />
<glyph unicode="0" horiz-adv-x="1152" d="M578 -16Q427 -16 320 57T157 279T100 648V820Q100 1043 156 1191T320 1415T578 1490Q728 1490 834 1415T996 1192T1052 820V648Q1052 427 996 279T834 58T578 -16ZM578 148Q671 148 737 201T837 360T872 626V844Q872
1005 838 1112T737 1272T578 1326Q484 1326 418 1273T316 1113T280 844V626Q280 468 315 362T416 202T578 148ZM254 354L178 488L900 1120L972 988L254 354Z" />
<glyph unicode="1" horiz-adv-x="1152" d="M534 0V1302L570 1264L228 1104V1286L648 1474H710V0H534ZM196 0V164H988V0H196Z" />
<glyph unicode="2" horiz-adv-x="1152" d="M114 0V54L528 566Q611 668 680 755T790 923T832 1082Q832 1154 799 1209T708 1295T576 1326Q497 1326 434 1291T335 1193T298 1048H118Q119 1176 178 1276T341 1433T574 1490Q698 1490 796 1438T951 1293T1008 1082Q1008
984 968 895T857 711T690 500L420 168V160L634 164H1040V0H114Z" />
<glyph unicode="3" horiz-adv-x="1152" d="M576 -16Q447 -16 339 38T167 188T102 414L282 418Q282 338 321 277T427 182T574 148Q657 148 724 184T830 282T870 422Q870 499 830 560T712 656T524 692H466L468 848H536Q618 848 679 883T775 977T810 1106Q810 1175
780 1224T697 1299T576 1326Q504 1326 449 1298T363 1220T332 1102H156Q156 1211 208 1299T354 1438T572 1490Q690 1490 785 1444T936 1313T992 1118Q992 1010 940 927T801 797T612 754V794Q736 799 835 751T992 614T1050 412Q1050 292 987 195T817 41T576 -16Z"
/>
<glyph unicode="4" horiz-adv-x="1152" d="M736 0V918L744 1170H736L624 990L288 488V480H1096V324H58V426L760 1474H916V0H736Z" />
<glyph unicode="5" horiz-adv-x="1152" d="M570 -16Q474 -16 384 19T223 120T114 282L274 354Q299 291 345 245T450 174T576 148Q661 148 726 189T827 301T864 462Q864 551 827 620T723 730T572 770Q522 770 473 757T386 719T328 660L190 684V1474H936V1310H366V766L322
836Q348 868 419 901T590 934Q718 934 820 873T981 705T1040 462Q1040 319 976 212T806 44T570 -16Z" />
<glyph unicode="6" horiz-adv-x="1152" d="M576 -16Q435 -16 324 47T149 216T84 450Q84 515 101 581T151 713T226 840L670 1474H876L436 856L394 864Q433 900 489 917T604 934Q729 934 834 874T1004 707T1068 462Q1068 325 1003 217T827 47T576 -16ZM578 148Q666
148 736 189T848 302T890 462Q890 553 849 622T738 731T578 770Q490 770 419 732T305 625T262 462Q262 371 303 300T416 189T578 148Z" />
<glyph unicode="7" horiz-adv-x="1152" d="M266 0L840 1302V1310H74V1474H1078V1430L458 0H266Z" />
<glyph unicode="8" horiz-adv-x="1152" d="M576 -16Q439 -16 328 41T150 195T84 414Q84 535 150 631T327 784T576 840Q715 840 826 784T1003 632T1068 414Q1068 293 1003 196T827 41T576 -16ZM576 148Q662 148 733 183T847 279T890 418Q890 495 849 558T736 658T576
696Q488 696 417 659T304 558T262 416Q262 337 305 277T419 182T576 148ZM574 724Q462 724 368 775T217 914T160 1110Q160 1216 215 1302T364 1438T576 1490Q694 1491 787 1441T935 1303T990 1108Q990 994 932 908T779 773T574 724ZM576 860Q644 860 700 892T789
980T822 1102Q822 1168 789 1218T699 1297T576 1326Q510 1326 454 1298T364 1219T330 1102Q330 1039 363 984T452 895T576 860Z" />
<glyph unicode="9" horiz-adv-x="1152" d="M576 1490Q717 1490 828 1427T1004 1258T1068 1024Q1068 959 1051 893T1001 761T926 634L482 0H276L716 618L758 610Q719 574 663 557T548 540Q423 540 318 600T148 767T84 1012Q84 1149 149 1257T325 1427T576 1490ZM574
1326Q486 1326 416 1285T304 1172T262 1012Q262 921 303 852T414 743T574 704Q662 704 733 742T847 850T890 1012Q890 1103 849 1174T736 1285T574 1326Z" />
<glyph unicode=":" horiz-adv-x="1152" d="M576 780Q515 780 472 823T428 930Q428 992 470 1034T576 1076Q639 1076 681 1034T724 930Q724 866 682 823T576 780ZM576 -16Q515 -16 472 27T428 134Q428 196 470 238T576 280Q639 280 681 238T724 134Q724 70 682
27T576 -16Z" />
<glyph unicode=";" horiz-adv-x="1152" d="M574 780Q513 780 470 823T426 930Q426 992 468 1034T574 1076Q637 1076 679 1034T722 930Q722 866 680 823T574 780ZM470 -316L398 -244L500 -134Q531 -100 556 -67T595 -1T610 68H650Q641 29 616 7T556 -16Q522 -16
491 3T440 55T420 134Q420 197 462 238T566 280Q631 280 675 232T720 104Q720 32 682 -43T578 -192L470 -316Z" />
<glyph unicode="&lt;" horiz-adv-x="1152" d="M1016 180L136 542V712L1016 1078V904L318 630V622L1016 350V180Z" />
<glyph unicode="=" horiz-adv-x="1152" d="M112 794V942H1040V794H112ZM112 314V462H1040V314H112Z" />
<glyph unicode="&gt;" horiz-adv-x="1152" d="M136 180V350L834 622V630L136 904V1078L1016 712V542L136 180Z" />
<glyph unicode="?" horiz-adv-x="1152" d="M480 500V634Q480 724 514 782T599 880T700 956T785 1034T820 1142Q820 1232 750 1285T580 1338Q509 1338 453 1311T365 1237T332 1130H168Q168 1231 223 1312T373 1442T584 1490Q696 1490 786 1447T930 1326T984 1150Q984
1063 950 1006T865 907T764 829T679 748T644 638V500H480ZM576 -16Q515 -16 472 27T428 134Q428 196 470 238T576 280Q639 280 681 238T724 134Q724 70 682 27T576 -16Z" />
<glyph unicode="@" horiz-adv-x="1152" d="M624 -270Q437 -270 301 -158T92 153T18 614Q18 871 89 1068T289 1378T596 1490Q731 1490 836 1427T1000 1250T1060 984V416Q1060 382 1079 361T1124 326L1154 310L1086 162L1054 174Q1017 188 979 218T924 288H866L928
418V824L860 954H904V988Q904 1093 864 1173T752 1297T590 1342Q464 1342 370 1250T223 993T170 610Q170 395 223 230T378 -28T628 -122Q703 -122 779 -98T904 -34L964 -164Q909 -210 817 -240T624 -270ZM690 172Q586 172 507 228T384 382T340 610Q340 739 384
838T507 992T690 1048Q785 1048 857 993T971 839T1012 610Q1012 480 971 382T858 228T690 172ZM722 334Q811 334 865 409T920 610Q920 738 866 812T722 886Q632 886 572 811T512 610Q512 484 572 409T722 334Z" />
<glyph unicode="A" horiz-adv-x="1152" d="M12 0L486 1474H666L1140 0H950L816 440L798 504L580 1228H572L354 504L336 440L202 0H12ZM254 386V550H898V386H254Z" />
<glyph unicode="B" horiz-adv-x="1152" d="M288 0V164H616Q730 164 800 231T870 418Q870 538 796 604T600 670H268V830H546Q613 830 665 862T746 950T776 1078Q776 1192 710 1251T536 1310H268V1474H530Q658 1474 752 1427T898 1295T950 1102Q950 1020 921 948T844
824T738 750L740 794Q834 770 903 717T1010 586T1048 406Q1048 287 994 196T842 52T614 0H288ZM128 0V1474H304V0H128Z" />
<glyph unicode="C" horiz-adv-x="1152" d="M710 -16Q525 -16 386 79T170 344T92 738Q92 961 169 1130T386 1395T710 1490Q802 1490 906 1452T1080 1352L1014 1192Q969 1248 886 1287T712 1326Q579 1326 480 1252T327 1047T272 742Q272 566 327 432T481 223T714
148Q801 148 885 189T1018 294L1084 136Q1012 69 909 27T710 -16Z" />
<glyph unicode="D" horiz-adv-x="1152" d="M124 0V1474H496Q667 1474 800 1383T1008 1128T1084 750Q1084 528 1010 359T805 95T508 0H124ZM304 164H512Q625 164 713 238T853 444T904 750Q904 917 853 1043T714 1239T512 1310H304V164Z" />
<glyph unicode="E" horiz-adv-x="1152" d="M196 0V1474H1008V1310H376V832H910V668H376V164H1008V0H196Z" />
<glyph unicode="F" horiz-adv-x="1152" d="M220 0V1474H1058V1310H400V810H968V646H400V0H220Z" />
<glyph unicode="G" horiz-adv-x="1152" d="M644 -16Q473 -16 343 79T138 342T64 730Q64 959 142 1130T357 1395T666 1490Q774 1490 875 1454T1052 1352L986 1192Q941 1246 860 1286T680 1326Q550 1326 452 1252T299 1045T244 734Q244 561 296 429T442 223T660
148Q749 148 806 183T898 266L876 218V638H574V802H1056V176Q992 89 882 37T644 -16Z" />
<glyph unicode="H" horiz-adv-x="1152" d="M124 0V1474H304V836H848V1474H1028V0H848V672H304V0H124Z" />
<glyph unicode="I" horiz-adv-x="1152" d="M486 0V1474H666V0H486ZM180 0V160H972V0H180ZM180 1314V1474H972V1314H180Z" />
<glyph unicode="J" horiz-adv-x="1152" d="M486 -16Q358 -16 263 37T115 186T60 406H236Q239 289 304 219T482 148Q553 148 611 179T703 276T738 442V1474H920V446Q920 292 863 190T707 36T486 -16Z" />
<glyph unicode="K" horiz-adv-x="1152" d="M156 0V1474H334V790H386L312 754L864 1474H1088L480 692V782L1122 0H894L312 716L386 684H334V0H156Z" />
<glyph unicode="L" horiz-adv-x="1152" d="M220 0V1474H400V164H1044V0H220Z" />
<glyph unicode="M" horiz-adv-x="1152" d="M92 0V1474H224L572 794H580L928 1474H1060V0H884V758L888 1056H880L606 518H546L272 1056H264L268 758V0H92Z" />
<glyph unicode="N" horiz-adv-x="1152" d="M124 0V1474H256L750 590L848 420H856L852 702V1474H1028V0H898L402 884L304 1060H296L300 778V0H124Z" />
<glyph unicode="O" horiz-adv-x="1152" d="M574 -16Q417 -16 304 76T129 337T68 738Q68 969 129 1138T303 1398T574 1490Q732 1490 846 1399T1022 1138T1084 738Q1084 506 1023 337T847 76T574 -16ZM574 148Q680 148 754 219T866 422T904 738Q903 923 864 1054T751
1256T574 1326Q471 1326 398 1254T287 1049T248 738Q248 558 286 426T398 221T574 148Z" />
<glyph unicode="P" horiz-adv-x="1152" d="M320 586V750H592Q676 750 739 785T837 885T872 1036Q872 1165 792 1237T580 1310H320V1474H594Q731 1474 834 1421T994 1270T1052 1040Q1052 909 997 807T840 645T604 586H320ZM188 0V1474H368V0H188Z" />
<glyph unicode="Q" horiz-adv-x="1152" d="M578 -16Q420 -16 306 75T130 335T68 738Q68 971 129 1139T305 1399T578 1490Q737 1490 850 1399T1023 1140T1084 738Q1084 551 1046 405T933 161L896 117Q835 53 755 19T578 -16ZM924 0L816 144L750 196L498 540H696L880
266L958 204L1114 0H924ZM578 148Q686 148 760 220T871 425T908 738Q907 919 869 1051T757 1254T578 1326Q475 1326 400 1256T285 1053T244 738Q244 554 284 422T400 219T578 148Z" />
<glyph unicode="R" horiz-adv-x="1152" d="M262 598V754H544Q624 754 686 789T784 888T820 1038Q820 1167 740 1238T534 1310H262V1474H562Q684 1474 783 1424T941 1279T1000 1052Q1000 926 942 823T779 659T530 598H262ZM144 0V1474H324V0H144ZM880 0L518 626L652
734L1084 0H880Z" />
<glyph unicode="S" horiz-adv-x="1152" d="M588 -16Q477 -16 379 27T209 145T104 320L272 390Q298 316 347 262T459 178T590 148Q662 148 720 179T813 267T848 396Q848 476 810 528T710 615T572 679T422 740T285 818T184 933T146 1106Q146 1227 200 1313T349 1444T560
1490Q662 1490 746 1456T891 1363T984 1228L820 1162Q792 1215 752 1251T661 1307T556 1326Q468 1326 397 1273T326 1112Q326 1033 364 983T464 898T602 837T752 778T889 702T990 586T1028 410Q1028 284 971 188T814 38T588 -16Z" />
<glyph unicode="T" horiz-adv-x="1152" d="M486 0V1344H666V0H486ZM88 1310V1474H1064V1310H88Z" />
<glyph unicode="U" horiz-adv-x="1152" d="M576 -16Q436 -16 335 46T179 222T124 496V1474H304V496Q304 334 376 241T576 148Q704 148 776 241T848 496V1474H1028V496Q1028 337 974 223T818 46T576 -16Z" />
<glyph unicode="V" horiz-adv-x="1152" d="M488 0L12 1474H202L432 712L572 258H580L722 712L950 1474H1140L668 0H488Z" />
<glyph unicode="W" horiz-adv-x="1152" d="M212 0Q168 167 134 329T80 650T60 966V1474H240V966Q240 842 248 719T273 481T312 260H320L528 936H624L832 260H840Q863 365 879 480T905 719T914 966V1474H1094V966Q1094 810 1074 651T1020 330T940 0H756L580 584H572L396
0H212Z" />
<glyph unicode="X" horiz-adv-x="1152" d="M900 0L580 602H568L456 734V742L46 1474H248L572 860H582L696 742V734L1114 0H900ZM38 0L456 734V742L568 860H580L904 1474H1106L696 742V734L582 602H572L250 0H38Z" />
<glyph unicode="Y" horiz-adv-x="1152" d="M486 0V634L24 1474H228L420 1106L572 812H580L732 1106L924 1474H1128L666 634V0H486Z" />
<glyph unicode="Z" horiz-adv-x="1152" d="M102 0V40L766 1306V1310H142V1474H1036V1434L374 168V164H1048V0H102Z" />
<glyph unicode="[" horiz-adv-x="1152" d="M318 -300V1662H834V1534H470V-172H834V-300H318Z" />
<glyph unicode="\" horiz-adv-x="1152" d="M1056 -300H904L104 1662H256L1056 -300Z" />
<glyph unicode="]" horiz-adv-x="1152" d="M834 -300H318V-172H682V1534H318V1662H834V-300Z" />
<glyph unicode="^" horiz-adv-x="1152" d="M186 734L516 1556H642L968 734H808L686 1086L582 1384H574L468 1086L346 734H186Z" />
<glyph unicode="_" horiz-adv-x="1152" d="M76 -300V-180H1076V-300H76Z" />
<glyph unicode="`" horiz-adv-x="1152" d="M680 1176L390 1482L520 1598L762 1250L680 1176Z" />
<glyph unicode="a" horiz-adv-x="1152" d="M476 -16Q378 -16 299 22T174 130T128 300Q128 396 180 474T339 598T612 644H832V506H624Q546 506 471 487T346 423T296 300Q296 247 323 210T395 152T496 132Q562 132 632 161T751 247T800 386V496L796 558V676Q796
702 792 742T769 823T703 890T574 918Q525 918 468 906T357 871T262 820L198 974Q251 1005 316 1028T452 1065T590 1078Q734 1078 814 1022T927 876T960 680V308Q960 241 973 202T1024 148L1044 140L980 -16L952 -4Q896 20 856 67T816 160L850 148H784L828 176Q789
97 696 41T476 -16Z" />
<glyph unicode="b" horiz-adv-x="1152" d="M156 0V1540H328V926H346L306 816V246L354 144H326V0H156ZM628 -16Q504 -16 412 52T268 244T216 532Q216 696 267 819T411 1010T628 1078Q756 1078 851 1011T999 820T1052 532Q1052 365 1000 242T852 52T628 -16ZM596
140Q682 140 745 189T843 326T878 532Q878 650 843 737T744 873T594 922Q510 922 447 874T349 739T314 532Q314 414 349 326T447 189T596 140Z" />
<glyph unicode="c" horiz-adv-x="1152" d="M660 -12Q506 -12 389 57T206 250T140 536Q140 696 205 818T386 1009T654 1078Q740 1078 834 1046T996 958L930 812Q887 857 812 887T658 918Q557 918 480 870T360 735T316 534Q316 420 360 333T483 197T666 148Q747
148 821 180T934 258L1000 110Q939 56 846 22T660 -12Z" />
<glyph unicode="d" horiz-adv-x="1152" d="M1008 -16Q933 26 892 83T848 196L880 172H802L846 290V824L802 930H824V1540H996V294Q996 243 1017 201T1072 140L1008 -16ZM524 -16Q396 -16 301 51T153 242T100 532Q100 697 152 820T300 1010T524 1078Q648 1078 740
1010T884 819T936 532Q936 367 885 244T741 53T524 -16ZM556 140Q641 140 704 189T803 326T838 532Q838 651 803 738T705 874T558 922Q472 922 408 874T309 738T274 532Q274 414 308 326T406 189T556 140Z" />
<glyph unicode="e" horiz-adv-x="1152" d="M610 -16Q464 -16 353 53T179 246T116 532Q116 693 176 815T343 1007T590 1076Q721 1076 821 1015T979 844T1036 590Q1036 560 1033 524T1024 462H248V602H868Q868 695 832 765T733 876T588 916Q498 916 429 868T320
733T280 532Q280 417 322 330T440 193T614 144Q682 144 755 172T886 250L950 96Q887 48 794 16T610 -16Z" />
<glyph unicode="f" horiz-adv-x="1152" d="M412 0V1166Q412 1293 458 1382T587 1517T776 1564Q842 1564 920 1543T1064 1482L1000 1336Q948 1372 893 1390T794 1408Q701 1408 643 1350T584 1172V0H412ZM144 904V1060H1002V904H144Z" />
<glyph unicode="g" horiz-adv-x="1152" d="M542 -436Q440 -436 345 -405T192 -334L254 -182Q296 -219 373 -249T526 -280Q593 -280 664 -250T783 -153T832 24V164H804L838 258V828L792 926H828V1060H1000V32Q1000 -92 962 -180T858 -325T710 -409T542 -436ZM532
-4Q447 -4 370 34T231 143T135 314T100 540Q100 709 162 829T324 1012T540 1076Q657 1076 748 1009T892 822T944 544Q944 385 890 262T743 67T532 -4ZM560 156Q639 156 701 205T800 342T836 544Q836 657 800 740T702 870T560 916Q477 916 413 869T313 736T276 540Q276
429 313 343T414 206T560 156Z" />
<glyph unicode="h" horiz-adv-x="1152" d="M156 0V1540H328V938H368L294 860Q316 928 367 976T489 1050T642 1076Q765 1076 844 1016T962 864T1000 680V0H828V644Q828 779 761 847T590 916Q519 916 460 886T364 795T328 644V0H156Z" />
<glyph unicode="i" horiz-adv-x="1152" d="M544 0V1060H716V0H544ZM216 904V1060H716V904H216ZM634 1230Q579 1230 542 1267T504 1360Q504 1415 541 1452T634 1490Q689 1490 726 1453T764 1360Q764 1305 727 1268T634 1230Z" />
<glyph unicode="j" horiz-adv-x="1152" d="M428 -436Q337 -436 258 -412T104 -346L168 -192Q224 -231 292 -253T424 -276Q493 -276 546 -251T629 -179T660 -68V1060H832V-86Q832 -151 813 -206T759 -303T673 -375T561 -420T428 -436ZM300 904V1060H832V904H300ZM746
1230Q691 1230 654 1267T616 1360Q616 1415 653 1452T746 1490Q801 1490 838 1453T876 1360Q876 1305 839 1268T746 1230Z" />
<glyph unicode="k" horiz-adv-x="1152" d="M188 0V1540H360V626H448L372 582L838 1060H1060L520 508V602L1092 0H870L372 528L448 480H360V0H188Z" />
<glyph unicode="l" horiz-adv-x="1152" d="M714 -16Q603 -16 521 28T394 152T348 334V1540H520V352Q520 261 572 203T718 144Q783 144 847 171T958 236L1024 78Q958 36 878 10T714 -16Z" />
<glyph unicode="m" horiz-adv-x="1152" d="M84 0V1060H242V934H264L226 882Q252 968 305 1022T436 1076Q505 1076 559 1031T630 904L592 944H646L606 904Q627 979 692 1027T836 1076Q891 1076 934 1057T1007 1001T1052 908T1068 782V0H904V778Q904 844 872 879T786
914Q734 914 695 880T656 778V0H496V778Q496 846 463 880T376 914Q325 914 287 879T248 774V0H84Z" />
<glyph unicode="n" horiz-adv-x="1152" d="M156 0V1060H326V930H366L296 856Q328 952 422 1014T644 1076Q808 1076 904 968T1000 680V0H828V644Q828 767 764 841T586 916Q511 916 453 883T362 788T328 644V0H156Z" />
<glyph unicode="o" horiz-adv-x="1152" d="M576 -16Q436 -16 331 53T167 245T108 530Q108 692 166 815T330 1008T576 1078Q716 1078 821 1009T985 816T1044 530Q1044 368 986 245T822 53T576 -16ZM576 144Q668 144 734 191T836 325T872 530Q872 648 837 735T735
870T576 918Q484 918 418 870T316 735T280 530Q280 412 315 326T417 192T576 144Z" />
<glyph unicode="p" horiz-adv-x="1152" d="M156 -420V1060H326V922H352L304 824V266L360 144H328V-420H156ZM628 -16Q504 -16 412 52T268 244T216 532Q216 696 267 819T411 1010T628 1078Q756 1078 851 1011T999 820T1052 532Q1052 365 1000 242T852 52T628 -16ZM596
140Q682 140 745 189T843 326T878 532Q878 650 843 737T744 873T594 922Q510 922 447 874T349 739T314 532Q314 414 349 326T447 189T596 140Z" />
<glyph unicode="q" horiz-adv-x="1152" d="M1010 -438Q923 -400 873 -321T822 -152V144H796L838 234V816L790 918H826V1060H994V-98Q994 -158 1013 -212T1072 -286L1010 -438ZM524 -16Q396 -16 301 51T153 242T100 532Q100 697 152 820T300 1010T524 1078Q648
1078 740 1010T884 819T936 532Q936 367 885 244T741 53T524 -16ZM556 140Q641 140 704 189T803 326T838 532Q838 651 803 738T705 874T558 922Q472 922 408 874T309 738T274 532Q274 414 308 326T406 189T556 140Z" />
<glyph unicode="r" horiz-adv-x="1152" d="M224 0V1060H396V900H430L370 816Q388 890 437 949T554 1042T700 1076Q783 1076 851 1049T970 968T1052 832L892 766Q862 837 802 874T658 912Q590 912 530 873T433 763T396 602V0H224Z" />
<glyph unicode="s" horiz-adv-x="1152" d="M582 -16Q477 -16 391 19T245 111T160 230L320 296Q347 238 418 191T588 144Q649 144 703 162T790 214T824 294Q824 348 779 380T662 435T510 481T359 540T242 633T196 782Q196 880 250 945T391 1043T572 1076Q706 1076
808 1017T958 864L800 798Q775 842 718 879T568 916Q489 916 427 883T364 784Q364 728 409 695T526 639T678 594T829 539T946 452T992 308Q992 211 936 138T786 25T582 -16Z" />
<glyph unicode="t" horiz-adv-x="1152" d="M732 -16Q623 -16 537 28T402 152T352 334V1400H524V352Q524 261 586 203T740 144Q803 144 865 170T974 234L1040 76Q974 34 895 9T732 -16ZM104 904V1060H974V904H104Z" />
<glyph unicode="u" horiz-adv-x="1152" d="M520 -16Q407 -16 324 33T194 170T148 378V1060H320V386Q320 277 384 212T554 144Q630 143 687 173T776 257T808 386V1060H980V284Q980 241 1011 202T1096 140L1032 -16Q951 20 893 73T834 176L902 140H788L876 200Q825
97 728 41T520 -16Z" />
<glyph unicode="v" horiz-adv-x="1152" d="M494 0L68 1060H260L476 454L572 204H580L676 454L894 1060H1084L658 0H494Z" />
<glyph unicode="w" horiz-adv-x="1152" d="M220 0L28 1060H196L288 456L322 210H326L384 382L522 778H630L768 382L826 210H830L864 456L956 1060H1124L932 0H760L686 222L578 530H574L466 222L392 0H220Z" />
<glyph unicode="x" horiz-adv-x="1152" d="M96 0L464 528V536L568 644H580L858 1060H1054L688 536V528L584 410H572L296 0H96ZM854 0L580 410H568L464 528V536L100 1060H292L572 644H582L688 536V528L1056 0H854Z" />
<glyph unicode="y" horiz-adv-x="1152" d="M292 -436Q238 -436 186 -422T110 -396L174 -240Q201 -255 233 -265T294 -276Q354 -276 392 -246T451 -175T482 -106L536 54L540 -50L84 1060H270L516 414L598 196H604L680 414L906 1060H1088L634 -148Q621 -184 598
-232T535 -327T437 -405T292 -436Z" />
<glyph unicode="z" horiz-adv-x="1152" d="M140 0V40L724 896V904H170V1060H1004V1022L418 164V156H1012V0H140Z" />
<glyph unicode="{" horiz-adv-x="1152" d="M782 -300Q723 -300 662 -290T549 -249T466 -161T434 -8Q434 74 453 151T491 301T510 446Q510 526 451 583T258 644V758Q392 761 451 814T510 934Q510 1002 491 1068T453 1205T434 1356Q434 1450 463 1510T543 1603T656
1649T782 1662H894V1534H816Q743 1534 691 1515T612 1453T584 1340Q584 1279 603 1216T641 1085T660 938Q660 842 614 783T484 704V696Q565 675 612 610T660 442Q660 363 641 288T603 144T584 12Q584 -66 616 -105T701 -158T816 -172H894V-300H782Z" />
<glyph unicode="|" horiz-adv-x="1152" d="M500 -420V1662H652V-420H500Z" />
<glyph unicode="}" horiz-adv-x="1152" d="M370 -300H258V-172H336Q398 -172 451 -159T536 -106T568 12Q568 74 549 143T511 288T492 442Q492 544 539 609T668 696V704Q584 724 538 783T492 938Q492 1016 511 1084T549 1216T568 1340Q568 1410 541 1452T461 1514T336
1534H258V1662H370Q435 1662 496 1649T608 1603T688 1510T718 1356Q718 1276 699 1206T661 1069T642 934Q642 868 701 815T894 758V644Q761 641 702 584T642 446Q642 375 661 302T699 151T718 -8Q718 -103 687 -161T604 -249T491 -289T370 -300Z" />
<glyph unicode="~" horiz-adv-x="1152" d="M80 462Q82 557 119 632T221 750T370 794Q443 794 495 766T590 702T673 638T764 610Q832 610 878 665T926 794H1072Q1073 700 1037 625T936 506T784 462Q710 462 658 490T564 555T481 620T386 648Q318 648 274 592T226 462H80Z" />
<glyph unicode="&#xa0;" horiz-adv-x="1152" />
<glyph unicode="&#xa1;" horiz-adv-x="1152" d="M646 564L670 -414H482L506 564H646ZM574 1076Q636 1076 679 1034T722 926Q722 865 680 823T574 780Q511 780 469 822T426 926Q426 991 468 1033T574 1076Z" />
<glyph unicode="&#xa2;" horiz-adv-x="1152" d="M672 -12Q570 -12 479 29T318 145T208 320T168 536Q168 656 209 755T322 927T482 1038T668 1078Q749 1078 833 1051T980 974L914 832Q884 863 842 885T755 918T672 930Q581 930 503 880T376 740T328 536Q328 426
374 337T499 196T672 144Q746 144 813 173T918 242L984 94Q921 46 842 17T672 -12ZM560 -254V32V102V958V1024V1306H696V1024V958V102V32V-254H560Z" />
<glyph unicode="&#xa3;" horiz-adv-x="1152" d="M140 0V122Q165 133 195 176T254 284T301 425T320 578Q320 662 301 749T262 923T242 1090Q242 1211 296 1301T440 1440T640 1490Q727 1490 829 1458T1014 1360L952 1196Q901 1256 815 1291T646 1328Q583 1329 531
1304T446 1222T414 1074Q414 1004 429 926T460 763T476 590Q476 508 460 425T417 272T358 164V156H1008V0H140ZM158 680V832H840V680H158Z" />
<glyph unicode="&#xa4;" horiz-adv-x="1152" d="M578 286Q465 286 374 338T230 480T176 680Q176 791 229 881T374 1025T578 1078Q691 1078 781 1025T923 882T976 680Q976 570 924 481T781 339T578 286ZM190 156L88 246L274 458L380 376L190 156ZM964 156L774 376L876
458L1064 246L964 156ZM578 414Q650 414 708 449T801 544T836 680Q836 756 802 816T709 911T578 946Q506 946 448 911T355 816T320 680Q320 604 354 544T447 449T578 414ZM274 902L88 1110L190 1208L380 988L274 902ZM880 902L774 988L964 1208L1064 1110L880 902Z"
/>
<glyph unicode="&#xa5;" horiz-adv-x="1152" d="M492 0V602L56 1474H244L424 1104L574 782H582L736 1104L916 1474H1096L672 602V0H492ZM172 308V446H992V308H172ZM172 590V730H992V590H172Z" />
<glyph unicode="&#xa6;" horiz-adv-x="1152" d="M500 -420V476H652V-420H500ZM500 770V1662H652V770H500Z" />
<glyph unicode="&#xa7;" horiz-adv-x="1152" d="M588 -270Q499 -270 419 -238T278 -151T190 -28L344 36Q377 -27 440 -70T584 -114Q641 -114 688 -92T764 -28T792 70Q792 127 763 164T688 225T590 266T490 300Q419 326 360 366T264 468T228 618Q228 703 262 768T353
878T478 942L482 898Q389 930 324 1005T258 1192Q258 1278 300 1345T415 1451T582 1490Q665 1490 729 1461T840 1382T914 1274L758 1208Q730 1261 685 1298T574 1336Q516 1336 469 1300T422 1192Q422 1123 464 1083T571 1016T702 962Q768 935 828 897T926 798T964
642Q964 521 899 439T726 320V364Q836 322 896 250T956 70Q956 -30 908 -106T776 -226T588 -270ZM600 422Q658 422 705 449T780 524T808 628Q808 685 780 731T705 805T600 832Q540 832 491 805T413 732T384 628Q384 571 413 524T491 450T600 422Z" />
<glyph unicode="&#xa8;" horiz-adv-x="1152" d="M776 1242Q724 1242 687 1279T650 1368Q650 1422 687 1458T776 1494Q830 1494 866 1458T902 1368Q902 1316 866 1279T776 1242ZM376 1242Q324 1242 287 1279T250 1368Q250 1422 287 1458T376 1494Q430 1494 466
1458T502 1368Q502 1316 466 1279T376 1242Z" />
<glyph unicode="&#xa9;" horiz-adv-x="1152" d="M602 316Q501 316 424 369T303 517T260 736Q260 863 303 959T422 1110T600 1164Q682 1164 755 1117T864 992L754 924Q733 976 690 1008T596 1040Q504 1040 446 956T388 736Q388 605 446 523T598 440Q645 440 689
469T756 546L864 476Q827 405 755 361T602 316ZM578 -16Q412 -16 285 79T87 345T16 738Q16 961 87 1130T285 1395T578 1490Q744 1490 869 1395T1065 1131T1136 738Q1136 515 1066 345T870 80T578 -16ZM578 100Q706 100 802 181T953 405T1008 738Q1008 927 954 1070T803
1293T578 1374Q450 1374 352 1294T199 1070T144 738Q144 549 199 406T352 181T578 100Z" />
<glyph unicode="&#xaa;" horiz-adv-x="1152" d="M516 820Q436 820 374 861T276 977T240 1150Q240 1251 276 1327T376 1447T520 1490Q600 1490 658 1449T748 1333T780 1156Q780 1056 746 981T653 863T516 820ZM544 938Q621 938 670 998T720 1156Q720 1252 674 1312T544
1372Q471 1372 423 1311T374 1150Q374 1059 422 999T544 938ZM842 820L830 824Q794 833 765 863T724 942L738 938H696L720 1000V1352L696 1384H716V1478H848V1036Q848 994 859 973T890 940L912 930L842 820Z" />
<glyph unicode="&#xab;" horiz-adv-x="1152" d="M862 110L546 520V578L862 984L944 910L684 548L944 180L862 110ZM524 110L208 520V578L524 984L606 910L346 548L606 180L524 110Z" />
<glyph unicode="&#xac;" horiz-adv-x="1152" d="M884 148V552H112V700H1040V148H884Z" />
<glyph unicode="&#xae;" horiz-adv-x="1152" d="M408 638V746H568Q639 746 677 787T716 888Q716 954 676 990T568 1026H408V1134H568Q694 1134 767 1073T840 898Q840 784 764 711T560 638H408ZM328 332V1134H452V712V664V332H328ZM728 332L554 648L644 724L870
332H728ZM578 -16Q412 -16 285 79T87 345T16 738Q16 961 87 1130T285 1395T578 1490Q744 1490 869 1395T1065 1131T1136 738Q1136 515 1066 345T870 80T578 -16ZM578 100Q706 100 802 181T953 405T1008 738Q1008 927 954 1070T803 1293T578 1374Q450 1374 352 1294T199
1070T144 738Q144 549 199 406T352 181T578 100Z" />
<glyph unicode="&#xaf;" horiz-adv-x="1152" d="M228 1548V1662H924V1548H228Z" />
<glyph unicode="&#xb0;" horiz-adv-x="1152" d="M580 840Q489 840 415 884T298 1002T254 1168Q254 1257 297 1330T415 1446T580 1490Q669 1490 741 1447T857 1330T900 1168Q900 1077 857 1003T742 884T580 840ZM580 954Q636 954 682 983T755 1060T782 1168Q782
1227 755 1275T682 1351T580 1380Q522 1380 475 1352T400 1275T372 1168Q372 1109 400 1061T475 983T580 954Z" />
<glyph unicode="&#xb1;" horiz-adv-x="1152" d="M502 294V1114H650V294H502ZM112 -6V142H1040V-6H112ZM112 584V732H1040V584H112Z" />
<glyph unicode="&#xb2;" horiz-adv-x="1152" d="M260 910V950L538 1274Q591 1336 636 1387T708 1484T736 1574Q736 1630 693 1667T582 1704Q513 1704 467 1661T420 1548H274Q273 1676 361 1756T586 1836Q670 1836 736 1804T841 1714T880 1578Q880 1508 849 1451T769
1339T662 1220L510 1050V1042H640H894V910H260Z" />
<glyph unicode="&#xb3;" horiz-adv-x="1152" d="M576 902Q487 902 414 936T297 1031T254 1172H402Q402 1111 454 1072T576 1032Q650 1032 701 1075T752 1180Q752 1221 726 1254T651 1308T534 1328H496L500 1448H548Q622 1448 665 1487T708 1582Q708 1635 670 1669T566
1704Q508 1704 468 1671T428 1582H284Q284 1656 322 1713T427 1803T576 1836Q657 1836 720 1804T818 1718T854 1598Q854 1531 816 1477T712 1392T568 1368V1406Q660 1410 735 1381T855 1296T900 1164Q900 1090 856 1031T738 937T576 902Z" />
<glyph unicode="&#xb4;" horiz-adv-x="1152" d="M472 1176L390 1250L632 1598L762 1482L472 1176Z" />
<glyph unicode="&#xb5;" horiz-adv-x="1152" d="M148 -420V1060H320V-420H148ZM520 -16Q407 -16 324 33T194 170T148 378V1060H320V386Q320 277 384 212T554 144Q630 143 687 173T776 257T808 386V1060H980V284Q980 241 1011 202T1096 140L1032 -16Q951 20 893
73T834 176L902 140H788L876 200Q825 97 728 41T520 -16Z" />
<glyph unicode="&#xb6;" horiz-adv-x="1152" d="M452 -254V700L472 668Q348 668 252 720T100 865T44 1074Q44 1191 98 1281T248 1422T464 1474H1108V1334H932V-254H788V1412L870 1334H516L596 1412V-254H452Z" />
<glyph unicode="&#xb7;" horiz-adv-x="1152" d="M576 414Q515 414 472 457T428 564Q428 626 470 668T576 710Q639 710 681 668T724 564Q724 500 682 457T576 414Z" />
<glyph unicode="&#xb8;" horiz-adv-x="1152" d="M416 -466V-364Q517 -368 569 -345T622 -270Q622 -234 582 -209T472 -184L528 0H620L570 -164L554 -110Q643 -125 689 -169T736 -282Q736 -369 657 -418T416 -466Z" />
<glyph unicode="&#xb9;" horiz-adv-x="1152" d="M526 910V1700L554 1664L320 1570V1706L620 1824H664V910H526ZM296 910V1032H856V910H296Z" />
<glyph unicode="&#xba;" horiz-adv-x="1152" d="M578 820Q484 820 411 864T295 984T252 1156Q252 1252 294 1327T410 1446T578 1490Q671 1490 744 1447T860 1328T902 1156Q902 1060 860 984T745 864T578 820ZM578 942Q662 942 717 1003T772 1156Q772 1248 717
1308T578 1368Q496 1368 441 1308T386 1156Q386 1065 441 1004T578 942Z" />
<glyph unicode="&#xbb;" horiz-adv-x="1152" d="M290 110L208 180L468 548L208 910L290 984L606 578V520L290 110ZM628 110L546 180L806 548L546 910L628 984L944 578V520L628 110Z" />
<glyph unicode="&#xbc;" horiz-adv-x="1152" d="M94 378L24 484L550 780L1058 1096L1128 990L608 698L94 378ZM284 846V1366L312 1344L92 1250V1378L368 1490H412V846H284ZM850 0V352V458H846L778 372L654 238V234H1078V122H500V206L852 628H982V0H850Z" />
<glyph unicode="&#xbd;" horiz-adv-x="1152" d="M94 378L24 484L550 780L1058 1096L1128 990L608 698L94 378ZM284 846V1366L312 1344L92 1250V1378L368 1490H412V846H284ZM570 0V40L774 240Q817 282 848 313T896 371T914 430Q913 471 888 495T822 520Q773 520
743 489T714 404H588Q587 506 651 571T822 636Q887 636 936 611T1013 541T1042 438Q1042 384 1019 345T958 271T878 194L802 122V116H866H1048V0H570Z" />
<glyph unicode="&#xbe;" horiz-adv-x="1152" d="M94 346L24 452L550 748L1058 1064L1128 958L608 666L94 346ZM350 828Q280 828 224 852T135 919T102 1018H240Q239 987 272 966T348 944Q396 944 429 969T462 1028Q462 1058 426 1080T316 1102H286L290 1202H330Q377
1202 406 1230T436 1290Q436 1319 410 1337T344 1356Q307 1356 281 1338T256 1290H124Q124 1371 190 1421T350 1472Q448 1472 508 1421T568 1300Q568 1255 540 1217T462 1157T346 1138V1172Q453 1175 526 1132T600 1010Q600 958 566 917T475 852T350 828ZM850 0V352V458H846L778
372L654 238V234H1078V122H500V206L852 628H982V0H850Z" />
<glyph unicode="&#xbf;" horiz-adv-x="1152" d="M672 560V426Q672 336 638 278T553 180T452 104T367 26T332 -82Q332 -172 402 -225T572 -278Q643 -278 699 -251T787 -177T820 -70H984Q984 -171 929 -252T780 -382T568 -430Q456 -430 366 -386T222 -266T168 -90Q168
-3 202 54T287 153T388 231T473 312T508 422V560H672ZM576 1076Q638 1076 681 1034T724 926Q724 865 682 823T576 780Q513 780 471 822T428 926Q428 991 470 1033T576 1076Z" />
<glyph unicode="&#xc0;" horiz-adv-x="1152" d="M12 0L486 1474H666L1140 0H950L816 440L798 504L580 1228H572L354 504L336 440L202 0H12ZM254 386V550H898V386H254ZM832 1552L524 1814L614 1926L912 1638L832 1552Z" />
<glyph unicode="&#xc1;" horiz-adv-x="1152" d="M12 0L486 1474H666L1140 0H950L816 440L798 504L580 1228H572L354 504L336 440L202 0H12ZM254 386V550H898V386H254ZM576 1552L496 1638L794 1926L884 1814L576 1552Z" />
<glyph unicode="&#xc2;" horiz-adv-x="1152" d="M12 0L486 1474H666L1140 0H950L816 440L798 504L580 1228H572L354 504L336 440L202 0H12ZM254 386V550H898V386H254ZM336 1552L250 1646L558 1872H604L910 1646L824 1552L584 1744H576L336 1552Z" />
<glyph unicode="&#xc3;" horiz-adv-x="1152" d="M12 0L486 1474H666L1140 0H950L816 440L798 504L580 1228H572L354 504L336 440L202 0H12ZM254 386V550H898V386H254ZM254 1590Q254 1695 305 1760T442 1826Q494 1826 528 1808T588 1765T638 1723T692 1704Q734
1704 756 1740T778 1826H896Q898 1726 846 1658T704 1590Q656 1590 622 1608T561 1651T509 1693T452 1712Q413 1712 393 1678T372 1590H254Z" />
<glyph unicode="&#xc4;" horiz-adv-x="1152" d="M12 0L486 1474H666L1140 0H950L816 440L798 504L580 1228H572L354 504L336 440L202 0H12ZM254 386V550H898V386H254ZM792 1580Q740 1580 704 1616T668 1704Q668 1757 704 1792T792 1828Q845 1828 880 1793T916
1704Q916 1652 881 1616T792 1580ZM366 1580Q314 1580 277 1616T240 1704Q240 1757 277 1792T366 1828Q419 1828 453 1793T488 1704Q488 1652 454 1616T366 1580Z" />
<glyph unicode="&#xc5;" horiz-adv-x="1152" d="M12 0L486 1474H666L1140 0H950L816 440L798 504L580 1228H572L354 504L336 440L202 0H12ZM254 386V550H898V386H254ZM576 1540Q512 1540 461 1570T379 1651T348 1766Q348 1831 378 1882T460 1964T576 1994Q639
1994 689 1964T769 1883T798 1766Q798 1702 769 1651T690 1570T576 1540ZM576 1650Q626 1650 657 1683T688 1766Q688 1819 657 1851T576 1884Q527 1884 494 1852T460 1766Q460 1717 493 1684T576 1650Z" />
<glyph unicode="&#xc6;" horiz-adv-x="1152" d="M8 0L430 1474H612V1302H542L324 514L310 452L186 0H8ZM244 386V550H686V386H244ZM604 0L586 484V522L554 1474H1120V1310H722L762 164H1120V0H604ZM726 668L716 832H1078V668H726Z" />
<glyph unicode="&#xc7;" horiz-adv-x="1152" d="M710 -16Q525 -16 386 79T170 344T92 738Q92 961 169 1130T386 1395T710 1490Q802 1490 906 1452T1080 1352L1014 1192Q969 1248 886 1287T712 1326Q579 1326 480 1252T327 1047T272 742Q272 566 327 432T481 223T714
148Q801 148 885 189T1018 294L1084 136Q1012 69 909 27T710 -16ZM550 -466V-364Q651 -368 703 -345T756 -270Q756 -234 716 -209T606 -184L662 0H754L704 -164L688 -110Q777 -125 823 -169T870 -282Q870 -369 791 -418T550 -466Z" />
<glyph unicode="&#xc8;" horiz-adv-x="1152" d="M196 0V1474H1008V1310H376V832H910V668H376V164H1008V0H196ZM864 1552L556 1814L646 1926L944 1638L864 1552Z" />
<glyph unicode="&#xc9;" horiz-adv-x="1152" d="M196 0V1474H1008V1310H376V832H910V668H376V164H1008V0H196ZM608 1552L528 1638L826 1926L916 1814L608 1552Z" />
<glyph unicode="&#xca;" horiz-adv-x="1152" d="M196 0V1474H1008V1310H376V832H910V668H376V164H1008V0H196ZM368 1552L282 1646L590 1872H636L942 1646L856 1552L616 1744H608L368 1552Z" />
<glyph unicode="&#xcb;" horiz-adv-x="1152" d="M196 0V1474H1008V1310H376V832H910V668H376V164H1008V0H196ZM824 1580Q772 1580 736 1616T700 1704Q700 1757 736 1792T824 1828Q877 1828 912 1793T948 1704Q948 1652 913 1616T824 1580ZM398 1580Q346 1580 309
1616T272 1704Q272 1757 309 1792T398 1828Q451 1828 485 1793T520 1704Q520 1652 486 1616T398 1580Z" />
<glyph unicode="&#xcc;" horiz-adv-x="1152" d="M486 0V1474H666V0H486ZM180 0V160H972V0H180ZM180 1314V1474H972V1314H180ZM830 1552L522 1814L612 1926L910 1638L830 1552Z" />
<glyph unicode="&#xcd;" horiz-adv-x="1152" d="M486 0V1474H666V0H486ZM180 0V160H972V0H180ZM180 1314V1474H972V1314H180ZM574 1552L494 1638L792 1926L882 1814L574 1552Z" />
<glyph unicode="&#xce;" horiz-adv-x="1152" d="M486 0V1474H666V0H486ZM180 0V160H972V0H180ZM180 1314V1474H972V1314H180ZM334 1552L248 1646L556 1872H602L908 1646L822 1552L582 1744H574L334 1552Z" />
<glyph unicode="&#xcf;" horiz-adv-x="1152" d="M486 0V1474H666V0H486ZM180 0V160H972V0H180ZM180 1314V1474H972V1314H180ZM790 1580Q738 1580 702 1616T666 1704Q666 1757 702 1792T790 1828Q843 1828 878 1793T914 1704Q914 1652 879 1616T790 1580ZM364 1580Q312
1580 275 1616T238 1704Q238 1757 275 1792T364 1828Q417 1828 451 1793T486 1704Q486 1652 452 1616T364 1580Z" />
<glyph unicode="&#xd0;" horiz-adv-x="1152" d="M172 0V1474H544Q715 1474 847 1383T1056 1128T1132 750Q1132 528 1058 359T853 95T556 0H172ZM352 164H560Q673 164 761 238T901 444T952 750Q952 917 901 1043T762 1239T560 1310H352V164ZM12 688V828H560V688H12Z" />
<glyph unicode="&#xd1;" horiz-adv-x="1152" d="M124 0V1474H256L750 590L848 420H856L852 702V1474H1028V0H898L402 884L304 1060H296L300 778V0H124ZM254 1590Q254 1695 305 1760T442 1826Q494 1826 528 1808T588 1765T638 1723T692 1704Q734 1704 756 1740T778
1826H896Q898 1726 846 1658T704 1590Q656 1590 622 1608T561 1651T509 1693T452 1712Q413 1712 393 1678T372 1590H254Z" />
<glyph unicode="&#xd2;" horiz-adv-x="1152" d="M574 -16Q417 -16 304 76T129 337T68 738Q68 969 129 1138T303 1398T574 1490Q732 1490 846 1399T1022 1138T1084 738Q1084 506 1023 337T847 76T574 -16ZM574 148Q680 148 754 219T866 422T904 738Q903 923 864
1054T751 1256T574 1326Q471 1326 398 1254T287 1049T248 738Q248 558 286 426T398 221T574 148ZM830 1552L522 1814L612 1926L910 1638L830 1552Z" />
<glyph unicode="&#xd3;" horiz-adv-x="1152" d="M574 -16Q417 -16 304 76T129 337T68 738Q68 969 129 1138T303 1398T574 1490Q732 1490 846 1399T1022 1138T1084 738Q1084 506 1023 337T847 76T574 -16ZM574 148Q680 148 754 219T866 422T904 738Q903 923 864
1054T751 1256T574 1326Q471 1326 398 1254T287 1049T248 738Q248 558 286 426T398 221T574 148ZM574 1552L494 1638L792 1926L882 1814L574 1552Z" />
<glyph unicode="&#xd4;" horiz-adv-x="1152" d="M574 -16Q417 -16 304 76T129 337T68 738Q68 969 129 1138T303 1398T574 1490Q732 1490 846 1399T1022 1138T1084 738Q1084 506 1023 337T847 76T574 -16ZM574 148Q680 148 754 219T866 422T904 738Q903 923 864
1054T751 1256T574 1326Q471 1326 398 1254T287 1049T248 738Q248 558 286 426T398 221T574 148ZM334 1552L248 1646L556 1872H602L908 1646L822 1552L582 1744H574L334 1552Z" />
<glyph unicode="&#xd5;" horiz-adv-x="1152" d="M574 -16Q417 -16 304 76T129 337T68 738Q68 969 129 1138T303 1398T574 1490Q732 1490 846 1399T1022 1138T1084 738Q1084 506 1023 337T847 76T574 -16ZM574 148Q680 148 754 219T866 422T904 738Q903 923 864
1054T751 1256T574 1326Q471 1326 398 1254T287 1049T248 738Q248 558 286 426T398 221T574 148ZM252 1590Q252 1695 303 1760T440 1826Q492 1826 526 1808T586 1765T636 1723T690 1704Q732 1704 754 1740T776 1826H894Q896 1726 844 1658T702 1590Q654 1590 620
1608T559 1651T507 1693T450 1712Q411 1712 391 1678T370 1590H252Z" />
<glyph unicode="&#xd6;" horiz-adv-x="1152" d="M574 -16Q417 -16 304 76T129 337T68 738Q68 969 129 1138T303 1398T574 1490Q732 1490 846 1399T1022 1138T1084 738Q1084 506 1023 337T847 76T574 -16ZM574 148Q680 148 754 219T866 422T904 738Q903 923 864
1054T751 1256T574 1326Q471 1326 398 1254T287 1049T248 738Q248 558 286 426T398 221T574 148ZM790 1580Q738 1580 702 1616T666 1704Q666 1757 702 1792T790 1828Q843 1828 878 1793T914 1704Q914 1652 879 1616T790 1580ZM364 1580Q312 1580 275 1616T238 1704Q238
1757 275 1792T364 1828Q417 1828 451 1793T486 1704Q486 1652 452 1616T364 1580Z" />
<glyph unicode="&#xd7;" horiz-adv-x="1152" d="M238 168L132 274L914 1090L1020 984L238 168ZM914 168L132 984L238 1090L1020 274L914 168Z" />
<glyph unicode="&#xd8;" horiz-adv-x="1152" d="M574 -16Q417 -16 304 76T129 337T68 738Q68 969 129 1138T303 1398T574 1490Q732 1490 846 1399T1022 1138T1084 738Q1084 506 1023 337T847 76T574 -16ZM574 148Q680 148 754 219T866 422T904 738Q903 923 864
1054T751 1256T574 1326Q471 1326 398 1254T287 1049T248 738Q248 558 286 426T398 221T574 148ZM24 0L968 1474H1128L184 0H24Z" />
<glyph unicode="&#xd9;" horiz-adv-x="1152" d="M576 -16Q436 -16 335 46T179 222T124 496V1474H304V496Q304 334 376 241T576 148Q704 148 776 241T848 496V1474H1028V496Q1028 337 974 223T818 46T576 -16ZM832 1552L524 1814L614 1926L912 1638L832 1552Z" />
<glyph unicode="&#xda;" horiz-adv-x="1152" d="M576 -16Q436 -16 335 46T179 222T124 496V1474H304V496Q304 334 376 241T576 148Q704 148 776 241T848 496V1474H1028V496Q1028 337 974 223T818 46T576 -16ZM576 1552L496 1638L794 1926L884 1814L576 1552Z" />
<glyph unicode="&#xdb;" horiz-adv-x="1152" d="M576 -16Q436 -16 335 46T179 222T124 496V1474H304V496Q304 334 376 241T576 148Q704 148 776 241T848 496V1474H1028V496Q1028 337 974 223T818 46T576 -16ZM336 1552L250 1646L558 1872H604L910 1646L824 1552L584
1744H576L336 1552Z" />
<glyph unicode="&#xdc;" horiz-adv-x="1152" d="M576 -16Q436 -16 335 46T179 222T124 496V1474H304V496Q304 334 376 241T576 148Q704 148 776 241T848 496V1474H1028V496Q1028 337 974 223T818 46T576 -16ZM792 1580Q740 1580 704 1616T668 1704Q668 1757 704
1792T792 1828Q845 1828 880 1793T916 1704Q916 1652 881 1616T792 1580ZM366 1580Q314 1580 277 1616T240 1704Q240 1757 277 1792T366 1828Q419 1828 453 1793T488 1704Q488 1652 454 1616T366 1580Z" />
<glyph unicode="&#xdd;" horiz-adv-x="1152" d="M486 0V634L24 1474H228L420 1106L572 812H580L732 1106L924 1474H1128L666 634V0H486ZM576 1552L496 1638L794 1926L884 1814L576 1552Z" />
<glyph unicode="&#xde;" horiz-adv-x="1152" d="M308 290V454H622Q700 454 758 490T848 591T880 742Q880 874 809 945T618 1016H308V1180H620Q749 1180 848 1128T1004 979T1060 746Q1060 613 1005 510T851 349T624 290H308ZM180 0V1474H360V0H180Z" />
<glyph unicode="&#xdf;" horiz-adv-x="1152" d="M588 -16Q561 -16 522 -13T450 -4V156Q480 150 520 147T582 144Q672 144 737 178T837 275T870 426Q869 507 831 576T720 688T538 730H486V886H546Q608 886 660 920T744 1013T776 1150Q776 1227 746 1282T663 1366T546
1396Q471 1396 419 1355T338 1246T310 1098V0H138V1114Q138 1252 188 1351T329 1503T538 1556Q659 1556 750 1507T893 1371T944 1168Q944 1060 898 972T776 833T610 786V836Q728 842 826 790T983 643T1042 422Q1042 299 985 200T825 42T588 -16Z" />
<glyph unicode="&#xe0;" horiz-adv-x="1152" d="M476 -16Q378 -16 299 22T174 130T128 300Q128 396 180 474T339 598T612 644H832V506H624Q546 506 471 487T346 423T296 300Q296 247 323 210T395 152T496 132Q562 132 632 161T751 247T800 386V496L796 558V676Q796
702 792 742T769 823T703 890T574 918Q525 918 468 906T357 871T262 820L198 974Q251 1005 316 1028T452 1065T590 1078Q734 1078 814 1022T927 876T960 680V308Q960 241 973 202T1024 148L1044 140L980 -16L952 -4Q896 20 856 67T816 160L850 148H784L828 176Q789
97 696 41T476 -16ZM842 1176L552 1482L682 1598L924 1250L842 1176Z" />
<glyph unicode="&#xe1;" horiz-adv-x="1152" d="M476 -16Q378 -16 299 22T174 130T128 300Q128 396 180 474T339 598T612 644H832V506H624Q546 506 471 487T346 423T296 300Q296 247 323 210T395 152T496 132Q562 132 632 161T751 247T800 386V496L796 558V676Q796
702 792 742T769 823T703 890T574 918Q525 918 468 906T357 871T262 820L198 974Q251 1005 316 1028T452 1065T590 1078Q734 1078 814 1022T927 876T960 680V308Q960 241 973 202T1024 148L1044 140L980 -16L952 -4Q896 20 856 67T816 160L850 148H784L828 176Q789
97 696 41T476 -16ZM582 1176L500 1250L742 1598L872 1482L582 1176Z" />
<glyph unicode="&#xe2;" horiz-adv-x="1152" d="M476 -16Q378 -16 299 22T174 130T128 300Q128 396 180 474T339 598T612 644H832V506H624Q546 506 471 487T346 423T296 300Q296 247 323 210T395 152T496 132Q562 132 632 161T751 247T800 386V496L796 558V676Q796
702 792 742T769 823T703 890T574 918Q525 918 468 906T357 871T262 820L198 974Q251 1005 316 1028T452 1065T590 1078Q734 1078 814 1022T927 876T960 680V308Q960 241 973 202T1024 148L1044 140L980 -16L952 -4Q896 20 856 67T816 160L850 148H784L828 176Q789
97 696 41T476 -16ZM340 1184L262 1270L558 1552H604L900 1270L822 1184L588 1418H580L340 1184Z" />
<glyph unicode="&#xe3;" horiz-adv-x="1152" d="M476 -16Q378 -16 299 22T174 130T128 300Q128 396 180 474T339 598T612 644H832V506H624Q546 506 471 487T346 423T296 300Q296 247 323 210T395 152T496 132Q562 132 632 161T751 247T800 386V496L796 558V676Q796
702 792 742T769 823T703 890T574 918Q525 918 468 906T357 871T262 820L198 974Q251 1005 316 1028T452 1065T590 1078Q734 1078 814 1022T927 876T960 680V308Q960 241 973 202T1024 148L1044 140L980 -16L952 -4Q896 20 856 67T816 160L850 148H784L828 176Q789
97 696 41T476 -16ZM254 1220Q254 1352 310 1411T448 1470Q502 1470 538 1451T601 1405T653 1360T710 1340Q751 1340 773 1376T794 1470H914Q914 1343 859 1282T720 1220Q669 1220 634 1240T570 1288T516 1335T456 1356Q417 1356 396 1320T372 1220H254Z" />
<glyph unicode="&#xe4;" horiz-adv-x="1152" d="M476 -16Q378 -16 299 22T174 130T128 300Q128 396 180 474T339 598T612 644H832V506H624Q546 506 471 487T346 423T296 300Q296 247 323 210T395 152T496 132Q562 132 632 161T751 247T800 386V496L796 558V676Q796
702 792 742T769 823T703 890T574 918Q525 918 468 906T357 871T262 820L198 974Q251 1005 316 1028T452 1065T590 1078Q734 1078 814 1022T927 876T960 680V308Q960 241 973 202T1024 148L1044 140L980 -16L952 -4Q896 20 856 67T816 160L850 148H784L828 176Q789
97 696 41T476 -16ZM784 1242Q732 1242 695 1279T658 1368Q658 1422 695 1458T784 1494Q838 1494 874 1458T910 1368Q910 1316 874 1279T784 1242ZM384 1242Q332 1242 295 1279T258 1368Q258 1422 295 1458T384 1494Q438 1494 474 1458T510 1368Q510 1316 474 1279T384
1242Z" />
<glyph unicode="&#xe5;" horiz-adv-x="1152" d="M476 -16Q378 -16 299 22T174 130T128 300Q128 396 180 474T339 598T612 644H832V506H624Q546 506 471 487T346 423T296 300Q296 247 323 210T395 152T496 132Q562 132 632 161T751 247T800 386V496L796 558V676Q796
702 792 742T769 823T703 890T574 918Q525 918 468 906T357 871T262 820L198 974Q251 1005 316 1028T452 1065T590 1078Q734 1078 814 1022T927 876T960 680V308Q960 241 973 202T1024 148L1044 140L980 -16L952 -4Q896 20 856 67T816 160L850 148H784L828 176Q789
97 696 41T476 -16ZM584 1198Q494 1198 434 1258T374 1404Q374 1494 434 1552T584 1610Q673 1610 733 1552T794 1404Q794 1319 734 1259T584 1198ZM584 1294Q634 1294 664 1326T694 1404Q694 1454 663 1484T584 1514Q539 1514 507 1484T474 1404Q474 1359 506 1327T584
1294Z" />
<glyph unicode="&#xe6;" horiz-adv-x="1152" d="M294 -16Q218 -16 160 23T69 131T36 294Q36 450 130 530T390 610H512V470H412Q319 470 259 428T198 296Q198 227 233 184T320 140Q385 140 436 209T488 390V614Q488 701 483 770T448 880T344 920Q284 920 225 896T134
848L80 994Q124 1023 196 1049T350 1076Q466 1076 524 1018T602 864H554Q583 957 656 1016T826 1076Q920 1076 984 1015T1082 842T1116 574Q1116 544 1115 516T1108 470H606L600 610H968Q970 750 935 835T818 920Q759 920 715 874T645 742T620 534Q620 412 645
324T720 189T848 142Q885 142 932 164T1022 226L1086 72Q1052 45 1012 25T929 -5T848 -16Q727 -16 656 53T540 246H580Q569 183 532 123T434 23T294 -16Z" />
<glyph unicode="&#xe7;" horiz-adv-x="1152" d="M660 -12Q506 -12 389 57T206 250T140 536Q140 696 205 818T386 1009T654 1078Q740 1078 834 1046T996 958L930 812Q887 857 812 887T658 918Q557 918 480 870T360 735T316 534Q316 420 360 333T483 197T666 148Q747
148 821 180T934 258L1000 110Q939 56 846 22T660 -12ZM512 -466V-364Q613 -368 665 -345T718 -270Q718 -234 678 -209T568 -184L624 0H716L666 -164L650 -110Q739 -125 785 -169T832 -282Q832 -369 753 -418T512 -466Z" />
<glyph unicode="&#xe8;" horiz-adv-x="1152" d="M610 -16Q464 -16 353 53T179 246T116 532Q116 693 176 815T343 1007T590 1076Q721 1076 821 1015T979 844T1036 590Q1036 560 1033 524T1024 462H248V602H868Q868 695 832 765T733 876T588 916Q498 916 429 868T320
733T280 532Q280 417 322 330T440 193T614 144Q682 144 755 172T886 250L950 96Q887 48 794 16T610 -16ZM848 1176L558 1482L688 1598L930 1250L848 1176Z" />
<glyph unicode="&#xe9;" horiz-adv-x="1152" d="M610 -16Q464 -16 353 53T179 246T116 532Q116 693 176 815T343 1007T590 1076Q721 1076 821 1015T979 844T1036 590Q1036 560 1033 524T1024 462H248V602H868Q868 695 832 765T733 876T588 916Q498 916 429 868T320
733T280 532Q280 417 322 330T440 193T614 144Q682 144 755 172T886 250L950 96Q887 48 794 16T610 -16ZM588 1176L506 1250L748 1598L878 1482L588 1176Z" />
<glyph unicode="&#xea;" horiz-adv-x="1152" d="M610 -16Q464 -16 353 53T179 246T116 532Q116 693 176 815T343 1007T590 1076Q721 1076 821 1015T979 844T1036 590Q1036 560 1033 524T1024 462H248V602H868Q868 695 832 765T733 876T588 916Q498 916 429 868T320
733T280 532Q280 417 322 330T440 193T614 144Q682 144 755 172T886 250L950 96Q887 48 794 16T610 -16ZM346 1184L268 1270L564 1552H610L906 1270L828 1184L594 1418H586L346 1184Z" />
<glyph unicode="&#xeb;" horiz-adv-x="1152" d="M610 -16Q464 -16 353 53T179 246T116 532Q116 693 176 815T343 1007T590 1076Q721 1076 821 1015T979 844T1036 590Q1036 560 1033 524T1024 462H248V602H868Q868 695 832 765T733 876T588 916Q498 916 429 868T320
733T280 532Q280 417 322 330T440 193T614 144Q682 144 755 172T886 250L950 96Q887 48 794 16T610 -16ZM790 1242Q738 1242 701 1279T664 1368Q664 1422 701 1458T790 1494Q844 1494 880 1458T916 1368Q916 1316 880 1279T790 1242ZM390 1242Q338 1242 301 1279T264
1368Q264 1422 301 1458T390 1494Q444 1494 480 1458T516 1368Q516 1316 480 1279T390 1242Z" />
<glyph unicode="&#xec;" horiz-adv-x="1152" d="M544 0V1060H716V0H544ZM216 904V1060H716V904H216ZM892 1176L602 1482L732 1598L974 1250L892 1176Z" />
<glyph unicode="&#xed;" horiz-adv-x="1152" d="M544 0V1060H716V0H544ZM216 904V1060H716V904H216ZM632 1176L550 1250L792 1598L922 1482L632 1176Z" />
<glyph unicode="&#xee;" horiz-adv-x="1152" d="M544 0V1060H716V0H544ZM216 904V1060H716V904H216ZM390 1184L312 1270L608 1552H654L950 1270L872 1184L638 1418H630L390 1184Z" />
<glyph unicode="&#xef;" horiz-adv-x="1152" d="M544 0V1060H716V0H544ZM216 904V1060H716V904H216ZM834 1242Q782 1242 745 1279T708 1368Q708 1422 745 1458T834 1494Q888 1494 924 1458T960 1368Q960 1316 924 1279T834 1242ZM434 1242Q382 1242 345 1279T308
1368Q308 1422 345 1458T434 1494Q488 1494 524 1458T560 1368Q560 1316 524 1279T434 1242Z" />
<glyph unicode="&#xf0;" horiz-adv-x="1152" d="M580 -16Q447 -16 337 51T162 238T96 512Q96 666 159 783T328 966T564 1032Q635 1032 702 1010T819 949T890 864L858 902H906L880 872Q846 984 786 1077T644 1244T469 1376T274 1474L340 1614Q487 1552 617 1461T847
1249T1003 971T1060 622Q1060 422 999 279T829 60T580 -16ZM584 144Q671 146 741 196T851 333T892 528Q892 637 850 714T737 831T582 872Q493 872 422 828T308 703T266 516Q266 405 309 321T425 189T584 144ZM328 1138L270 1236L876 1618L938 1520L328 1138Z" />
<glyph unicode="&#xf1;" horiz-adv-x="1152" d="M156 0V1060H326V930H366L296 856Q328 952 422 1014T644 1076Q808 1076 904 968T1000 680V0H828V644Q828 767 764 841T586 916Q511 916 453 883T362 788T328 644V0H156ZM280 1220Q280 1352 336 1411T474 1470Q528
1470 564 1451T627 1405T679 1360T736 1340Q777 1340 799 1376T820 1470H940Q940 1343 885 1282T746 1220Q695 1220 660 1240T596 1288T542 1335T482 1356Q443 1356 422 1320T398 1220H280Z" />
<glyph unicode="&#xf2;" horiz-adv-x="1152" d="M576 -16Q436 -16 331 53T167 245T108 530Q108 692 166 815T330 1008T576 1078Q716 1078 821 1009T985 816T1044 530Q1044 368 986 245T822 53T576 -16ZM576 144Q668 144 734 191T836 325T872 530Q872 648 837 735T735
870T576 918Q484 918 418 870T316 735T280 530Q280 412 315 326T417 192T576 144ZM834 1176L544 1482L674 1598L916 1250L834 1176Z" />
<glyph unicode="&#xf3;" horiz-adv-x="1152" d="M576 -16Q436 -16 331 53T167 245T108 530Q108 692 166 815T330 1008T576 1078Q716 1078 821 1009T985 816T1044 530Q1044 368 986 245T822 53T576 -16ZM576 144Q668 144 734 191T836 325T872 530Q872 648 837 735T735
870T576 918Q484 918 418 870T316 735T280 530Q280 412 315 326T417 192T576 144ZM574 1176L492 1250L734 1598L864 1482L574 1176Z" />
<glyph unicode="&#xf4;" horiz-adv-x="1152" d="M576 -16Q436 -16 331 53T167 245T108 530Q108 692 166 815T330 1008T576 1078Q716 1078 821 1009T985 816T1044 530Q1044 368 986 245T822 53T576 -16ZM576 144Q668 144 734 191T836 325T872 530Q872 648 837 735T735
870T576 918Q484 918 418 870T316 735T280 530Q280 412 315 326T417 192T576 144ZM588 1184L510 1270L806 1552H852L1148 1270L1070 1184L836 1418H828L588 1184Z" />
<glyph unicode="&#xf5;" horiz-adv-x="1152" d="M576 -16Q436 -16 331 53T167 245T108 530Q108 692 166 815T330 1008T576 1078Q716 1078 821 1009T985 816T1044 530Q1044 368 986 245T822 53T576 -16ZM576 144Q668 144 734 191T836 325T872 530Q872 648 837 735T735
870T576 918Q484 918 418 870T316 735T280 530Q280 412 315 326T417 192T576 144ZM246 1220Q246 1352 302 1411T440 1470Q494 1470 530 1451T593 1405T645 1360T702 1340Q743 1340 765 1376T786 1470H906Q906 1343 851 1282T712 1220Q661 1220 626 1240T562 1288T508
1335T448 1356Q409 1356 388 1320T364 1220H246Z" />
<glyph unicode="&#xf6;" horiz-adv-x="1152" d="M576 -16Q436 -16 331 53T167 245T108 530Q108 692 166 815T330 1008T576 1078Q716 1078 821 1009T985 816T1044 530Q1044 368 986 245T822 53T576 -16ZM576 144Q668 144 734 191T836 325T872 530Q872 648 837 735T735
870T576 918Q484 918 418 870T316 735T280 530Q280 412 315 326T417 192T576 144ZM776 1242Q724 1242 687 1279T650 1368Q650 1422 687 1458T776 1494Q830 1494 866 1458T902 1368Q902 1316 866 1279T776 1242ZM376 1242Q324 1242 287 1279T250 1368Q250 1422 287
1458T376 1494Q430 1494 466 1458T502 1368Q502 1316 466 1279T376 1242Z" />
<glyph unicode="&#xf7;" horiz-adv-x="1152" d="M576 930Q524 930 488 966T452 1054Q452 1107 488 1142T576 1178Q629 1178 664 1143T700 1054Q700 1002 665 966T576 930ZM576 76Q524 76 488 112T452 200Q452 253 488 288T576 324Q629 324 664 289T700 200Q700
148 665 112T576 76ZM112 552V700H1040V552H112Z" />
<glyph unicode="&#xf8;" horiz-adv-x="1152" d="M22 0L968 1060H1124L182 0H22ZM576 -16Q436 -16 331 53T167 245T108 530Q108 692 166 815T330 1008T576 1078Q716 1078 821 1009T985 816T1044 530Q1044 368 986 245T822 53T576 -16ZM576 144Q668 144 734 191T836
325T872 530Q872 648 837 735T735 870T576 918Q484 918 418 870T316 735T280 530Q280 412 315 326T417 192T576 144Z" />
<glyph unicode="&#xf9;" horiz-adv-x="1152" d="M520 -16Q407 -16 324 33T194 170T148 378V1060H320V386Q320 277 384 212T554 144Q630 143 687 173T776 257T808 386V1060H980V284Q980 241 1011 202T1096 140L1032 -16Q951 20 893 73T834 176L902 140H788L876
200Q825 97 728 41T520 -16ZM826 1176L536 1482L666 1598L908 1250L826 1176Z" />
<glyph unicode="&#xfa;" horiz-adv-x="1152" d="M520 -16Q407 -16 324 33T194 170T148 378V1060H320V386Q320 277 384 212T554 144Q630 143 687 173T776 257T808 386V1060H980V284Q980 241 1011 202T1096 140L1032 -16Q951 20 893 73T834 176L902 140H788L876
200Q825 97 728 41T520 -16ZM566 1176L484 1250L726 1598L856 1482L566 1176Z" />
<glyph unicode="&#xfb;" horiz-adv-x="1152" d="M520 -16Q407 -16 324 33T194 170T148 378V1060H320V386Q320 277 384 212T554 144Q630 143 687 173T776 257T808 386V1060H980V284Q980 241 1011 202T1096 140L1032 -16Q951 20 893 73T834 176L902 140H788L876
200Q825 97 728 41T520 -16ZM580 1184L502 1270L798 1552H844L1140 1270L1062 1184L828 1418H820L580 1184Z" />
<glyph unicode="&#xfc;" horiz-adv-x="1152" d="M520 -16Q407 -16 324 33T194 170T148 378V1060H320V386Q320 277 384 212T554 144Q630 143 687 173T776 257T808 386V1060H980V284Q980 241 1011 202T1096 140L1032 -16Q951 20 893 73T834 176L902 140H788L876
200Q825 97 728 41T520 -16ZM1024 1242Q972 1242 935 1279T898 1368Q898 1422 935 1458T1024 1494Q1078 1494 1114 1458T1150 1368Q1150 1316 1114 1279T1024 1242ZM624 1242Q572 1242 535 1279T498 1368Q498 1422 535 1458T624 1494Q678 1494 714 1458T750 1368Q750
1316 714 1279T624 1242Z" />
<glyph unicode="&#xfd;" horiz-adv-x="1152" d="M292 -436Q238 -436 186 -422T110 -396L174 -240Q201 -255 233 -265T294 -276Q354 -276 392 -246T451 -175T482 -106L536 54L540 -50L84 1060H270L516 414L598 196H604L680 414L906 1060H1088L634 -148Q621 -184
598 -232T535 -327T437 -405T292 -436ZM596 1176L514 1250L756 1598L886 1482L596 1176Z" />
<glyph unicode="&#xfe;" horiz-adv-x="1152" d="M626 -16Q505 -16 408 54T253 249T196 532Q196 694 252 817T406 1009T626 1078Q745 1078 846 1012T1008 823T1070 532Q1070 408 1035 307T937 134T795 23T626 -16ZM140 -420V1540H312V922H336L286 782V266L342 144H312V-420H140ZM596
140Q682 140 750 191T857 331T896 532Q896 647 857 735T750 872T594 922Q515 922 448 875T339 741T298 532Q298 421 337 333T443 192T596 140Z" />
<glyph unicode="&#xff;" horiz-adv-x="1152" d="M292 -436Q238 -436 186 -422T110 -396L174 -240Q201 -255 233 -265T294 -276Q354 -276 392 -246T451 -175T482 -106L536 54L540 -50L84 1060H270L516 414L598 196H604L680 414L906 1060H1088L634 -148Q621 -184
598 -232T535 -327T437 -405T292 -436ZM798 1242Q746 1242 709 1279T672 1368Q672 1422 709 1458T798 1494Q852 1494 888 1458T924 1368Q924 1316 888 1279T798 1242ZM398 1242Q346 1242 309 1279T272 1368Q272 1422 309 1458T398 1494Q452 1494 488 1458T524 1368Q524
1316 488 1279T398 1242Z" />
<glyph unicode="&#x2013;" horiz-adv-x="1152" d="M70 552V702H1082V552H70Z" />
<glyph unicode="&#x2014;" horiz-adv-x="1152" d="M28 534V720H1124V534H28Z" />
<glyph unicode="&#x2018;" horiz-adv-x="1152" d="M666 1574L738 1502L636 1392Q605 1358 580 1325T541 1259T526 1190H486Q495 1229 520 1251T580 1274Q614 1274 645 1256T696 1203T716 1124Q716 1061 674 1020T570 978Q506 978 461 1026T416 1154Q416 1226 455
1301T558 1450L666 1574Z" />
<glyph unicode="&#x2019;" horiz-adv-x="1152" d="M488 954L416 1026L518 1136Q549 1170 574 1203T613 1269T628 1338H668Q659 1299 634 1277T574 1254Q540 1254 509 1273T458 1325T438 1404Q438 1467 480 1508T584 1550Q649 1550 693 1502T738 1374Q738 1302
700 1227T596 1078L488 954Z" />
<glyph unicode="&#x201a;" horiz-adv-x="1152" d="M706 -104L634 -32L736 78Q767 112 792 145T831 211T846 280H886Q877 241 852 219T792 196Q758 196 727 215T676 267T656 346Q656 409 698 450T802 492Q867 492 911 444T956 316Q956 244 918 169T814 20L706 -104Z" />
<glyph unicode="&#x201c;" horiz-adv-x="1152" d="M458 1574L530 1502L428 1392Q397 1358 372 1325T333 1259T318 1190H278Q287 1229 312 1251T372 1274Q406 1274 437 1256T488 1203T508 1124Q508 1061 466 1020T362 978Q298 978 253 1026T208 1154Q208 1226 247
1301T350 1450L458 1574ZM874 1574L946 1502L844 1392Q813 1358 788 1325T749 1259T734 1190H694Q703 1229 728 1251T788 1274Q822 1274 853 1256T904 1203T924 1124Q924 1061 882 1020T778 978Q714 978 669 1026T624 1154Q624 1226 663 1301T766 1450L874 1574Z"
/>
<glyph unicode="&#x201d;" horiz-adv-x="1152" d="M280 954L208 1026L310 1136Q341 1170 366 1203T405 1269T420 1338H460Q451 1299 426 1277T366 1254Q332 1254 301 1273T250 1325T230 1404Q230 1467 272 1508T376 1550Q441 1550 485 1502T530 1374Q530 1302
492 1227T388 1078L280 954ZM696 954L624 1026L726 1136Q757 1170 782 1203T821 1269T836 1338H876Q867 1299 842 1277T782 1254Q748 1254 717 1273T666 1325T646 1404Q646 1467 688 1508T792 1550Q857 1550 901 1502T946 1374Q946 1302 908 1227T804 1078L696
954Z" />
<glyph unicode="&#x201e;" horiz-adv-x="1152" d="M258 -360L186 -288L288 -178Q319 -144 344 -111T383 -45T398 24H438Q429 -15 404 -37T344 -60Q310 -60 279 -41T228 11T208 90Q208 153 250 194T354 236Q419 236 463 188T508 60Q508 -12 470 -87T366 -236L258
-360ZM642 -360L570 -288L672 -178Q703 -144 728 -111T767 -45T782 24H822Q813 -15 788 -37T728 -60Q694 -60 663 -41T612 11T592 90Q592 153 634 194T738 236Q803 236 847 188T892 60Q892 -12 854 -87T750 -236L642 -360Z" />
<glyph unicode="&#x2022;" horiz-adv-x="1152" d="M576 342Q498 342 434 380T332 482T294 624Q294 702 332 766T434 868T576 906Q655 906 719 868T820 766T858 624Q858 546 821 482T719 380T576 342Z" />
<glyph unicode="&#x2039;" horiz-adv-x="1152" d="M692 110L376 520V578L692 984L774 910L514 548L774 180L692 110Z" />
<glyph unicode="&#x203a;" horiz-adv-x="1152" d="M460 110L378 180L638 548L378 910L460 984L776 578V520L460 110Z" />
</font>
</defs>
</svg>
