<?xml version="1.0" standalone="no"?>
<!DOCTYPE svg PUBLIC "-//W3C//DTD SVG 1.1//EN" "http://www.w3.org/Graphics/SVG/1.1/DTD/svg11.dtd">
<svg xmlns="http://www.w3.org/2000/svg">
<defs >
<font id="Almarai" horiz-adv-x="612" ><font-face
    font-family="Almarai"
    units-per-em="1000"
    panose-1="0 0 0 0 0 0 0 0 0 0"
    ascent="905"
    descent="-211"
    alphabetic="0" />
<glyph unicode=" " glyph-name="space" horiz-adv-x="184" />
<glyph unicode="!" glyph-name="exclam" horiz-adv-x="199" d="M141 716V207L98 172H56V716H141ZM100 93Q121 93 135 79T149 44Q149 24 135 10T100 -5Q80 -5 66 9T51 44Q51 65 65 79T100 93Z" />
<glyph unicode="&quot;" glyph-name="quotedbl" horiz-adv-x="340" d="M140 716V517L105 488H69V716H140ZM271 716V517L235 488H199V716H271Z" />
<glyph unicode="#" glyph-name="numbersign" horiz-adv-x="609" d="M502 672L464 466H589V403H452L423 264H557V201H412L374 0H295L334 201H222L184 0H108L145 201H21V264H156L185 403H54V466H196L234 672H312L274 466H388L427 672H502ZM375 403H262L233 264H346L375
403Z" />
<glyph unicode="$" glyph-name="dollar" horiz-adv-x="580" d="M322 716V634Q386 626 446 599V532Q382 560 322 565V371Q409 340 446 307Q487 268 487 205Q487 141 443 101Q400 62 322 51V-55H258V47Q188 47 127 64L92 108V140Q157 115 241 115Q251 115 258 116V316Q172
345 137 380Q98 418 98 484Q98 545 142 585Q184 624 258 632V716H322ZM258 393V563Q217 556 197 534Q179 514 179 483Q179 449 196 429Q213 409 258 393ZM322 292V121Q369 128 390 155Q406 175 406 205Q406 236 388 256Q369 276 322 292Z" />
<glyph unicode="%" glyph-name="percent" horiz-adv-x="741" d="M167 684Q237 684 277 625Q317 564 317 467Q317 368 278 313Q238 260 168 260Q94 260 55 316Q18 370 18 466Q18 564 56 621Q94 684 167 684ZM609 673L212 0H140L536 673H609ZM167 631Q125 631 104
596Q79 555 79 466Q79 401 93 365Q114 313 167 313Q217 313 240 362Q257 401 257 466Q257 557 228 599Q206 631 167 631ZM572 415Q642 415 682 356Q722 295 722 198Q722 100 683 44Q643 -9 573 -9Q499 -9 460 47Q423 101 423 197Q423 296 461 353Q499 415 572 415ZM572
362Q530 362 509 327Q484 286 484 197Q484 132 499 96Q519 44 572 44Q622 44 645 93Q662 132 662 197Q662 288 633 330Q611 362 572 362Z" />
<glyph unicode="&amp;" glyph-name="ampersand" horiz-adv-x="655" d="M492 330H570Q569 259 506 159L634 0H528L457 88Q409 41 382 24Q327 -11 253 -11Q156 -11 105 49Q62 101 62 184Q62 312 210 393Q164 451 148 484T131 553Q131 623 186 668Q233 708 299 708Q373
708 419 659Q458 616 458 554Q458 501 429 464T323 383L454 223Q456 226 462 238Q492 295 492 330ZM280 435L293 443Q381 498 381 555Q381 591 357 615T296 639Q257 639 234 616T211 554Q211 527 222 508T280 435ZM253 342Q214 328 179 280T144 191Q144 137 177
102T262 66Q333 66 411 146L253 342Z" />
<glyph unicode="&apos;" glyph-name="quotesingle" horiz-adv-x="209" d="M140 716V517L105 488H69V716H140Z" />
<glyph unicode="(" glyph-name="parenleft" horiz-adv-x="313" d="M241 716L268 695Q207 610 176 498Q150 405 150 302Q150 191 184 87Q211 -1 268 -85L241 -106H213Q143 -26 108 82Q74 185 74 301Q74 418 108 523Q143 633 213 716H241Z" />
<glyph unicode=")" glyph-name="parenright" horiz-adv-x="313" d="M73 716H101Q171 633 206 523Q240 418 240 301Q240 185 206 82Q171 -26 101 -106H73L46 -85Q102 -1 130 87Q163 191 163 302Q163 405 138 498Q107 610 46 695L73 716Z" />
<glyph unicode="*" glyph-name="asterisk" horiz-adv-x="382" d="M157 716H218L214 605L318 643L336 585L230 555L299 469L249 433L188 525L126 433L77 469L145 555L39 585L58 643L162 605L157 716Z" />
<glyph unicode="+" glyph-name="plus" horiz-adv-x="517" d="M224 14V191H46V261H224V440H293V261H471V191H293V14H224Z" />
<glyph unicode="," glyph-name="comma" horiz-adv-x="210" d="M103 -4Q103 -4 102 -5H101Q81 -5 68 8T53 42Q53 57 60 70Q73 94 102 94Q127 94 143 74T159 22Q159 -51 93 -127H74L50 -108Q71 -81 87 -47Q98 -26 103 -4Z" />
<glyph unicode="-" glyph-name="hyphen" horiz-adv-x="321" d="M284 263V191H37V263H284Z" />
<glyph unicode="." glyph-name="period" horiz-adv-x="199" d="M100 93Q121 93 135 79T149 44Q149 24 135 10T100 -5Q80 -5 66 9T51 44Q51 65 65 79T100 93Z" />
<glyph unicode="/" glyph-name="slash" horiz-adv-x="350" d="M340 673L90 0H9L260 673H340Z" />
<glyph unicode="0" glyph-name="zero" horiz-adv-x="528" d="M264 -13Q131 -13 74 126Q37 215 37 347Q37 513 95 621Q152 729 264 729Q373 729 431 624Q492 517 492 350Q492 193 442 98Q383 -13 264 -13ZM405 348Q405 653 264 653Q124 653 124 350Q124 223 147
159Q180 64 264 64Q405 64 405 348Z" />
<glyph unicode="1" glyph-name="one" horiz-adv-x="355" d="M286 716V38L243 0H201V614L77 510L32 566L210 716H286Z" />
<glyph unicode="2" glyph-name="two" horiz-adv-x="482" d="M66 664Q160 725 256 725Q350 725 397 670Q438 622 438 542Q438 479 406 419Q377 368 304 281L163 121L122 71H450V43L415 0H32V72L108 163L262 342Q308 397 327 434Q353 484 353 531Q353 583 322 615T239
647Q178 647 112 600L66 664Z" />
<glyph unicode="3" glyph-name="three" horiz-adv-x="475" d="M90 705Q155 725 196 725Q296 725 356 673Q413 623 413 539Q413 398 288 370Q360 358 401 309T443 188Q443 84 362 30Q300 -11 207 -11Q147 -11 87 6L55 46V77Q124 62 176 62Q357 62 357 184Q357 250
302 295Q271 320 237 329T135 340V405H220Q268 405 298 436T329 518Q329 577 290 611T184 646Q151 646 90 633V705Z" />
<glyph unicode="4" glyph-name="four" horiz-adv-x="530" d="M401 716V251H507V174H401V38L358 0H316V174H23V249L309 716H401ZM316 604L107 251H316V604Z" />
<glyph unicode="5" glyph-name="five" horiz-adv-x="474" d="M386 716V644H153L141 423Q187 430 214 430Q325 430 385 362Q437 303 437 205Q437 95 360 39Q299 -6 200 -6Q140 -6 80 12L48 51V82Q117 68 169 68Q262 68 305 98Q353 131 353 207Q353 359 174 359Q132
359 52 350L72 716H386Z" />
<glyph unicode="6" glyph-name="six" horiz-adv-x="513" d="M132 358Q196 441 283 441Q384 441 437 368Q479 309 479 219Q479 109 416 45Q358 -12 264 -12Q51 -12 51 268V306Q51 488 123 602Q200 725 345 725Q363 725 389 723L423 681V650Q383 656 357 656Q164
656 132 358ZM393 223Q393 286 360 327T274 369Q218 369 171 322Q130 281 130 233Q130 159 168 111Q205 65 266 65Q322 65 357 108T393 223Z" />
<glyph unicode="7" glyph-name="seven" horiz-adv-x="495" d="M465 716V653L227 47L169 0H117L377 644H30V716H465Z" />
<glyph unicode="8" glyph-name="eight" horiz-adv-x="531" d="M205 365Q76 451 76 564Q76 650 138 693Q187 728 264 728Q355 728 406 681Q455 637 455 560Q455 501 429 461T328 368Q489 292 489 166Q489 74 409 25Q348 -13 264 -13Q164 -13 102 36Q41 84 41 168Q41
293 205 365ZM268 399Q370 463 370 564Q370 612 342 640T266 669Q213 669 186 637Q161 609 161 563Q161 516 185 477Q211 433 268 399ZM267 340Q192 304 162 268T131 176Q131 120 167 89T266 57Q329 57 365 89T402 175Q402 227 371 265T267 340Z" />
<glyph unicode="9" glyph-name="nine" horiz-adv-x="512" d="M385 355Q327 273 234 273Q133 273 80 346Q37 405 37 496Q37 606 101 669Q158 727 252 727Q391 727 440 601Q471 525 471 384Q471 -9 192 -9Q167 -9 127 -5L95 36V66Q135 60 163 60Q283 60 332 125T385
355ZM251 650Q186 650 150 595Q123 552 123 492Q123 428 157 387T243 345Q303 345 340 384T377 485Q377 650 251 650Z" />
<glyph unicode=":" glyph-name="colon" horiz-adv-x="200" d="M100 280Q121 280 135 266T149 231Q149 211 135 197T100 182Q80 182 66 196T51 231Q51 252 65 266T100 280ZM101 93Q121 93 135 79T150 44Q150 24 136 10T101 -5Q80 -5 66 9T51 44Q51 65 65 79T101 93Z" />
<glyph unicode=";" glyph-name="semicolon" horiz-adv-x="210" d="M103 -4Q103 -4 102 -5H101Q81 -5 68 8T53 42Q53 57 60 70Q73 94 102 94Q127 94 143 74T159 22Q159 -51 93 -127H74L50 -108Q71 -81 87 -47Q98 -26 103 -4ZM101 182Q81 182 67 196T52 232Q52 252
66 266T102 281Q122 281 136 267T150 232Q150 211 136 197T101 182Z" />
<glyph unicode="&lt;" glyph-name="less" horiz-adv-x="508" d="M466 573V498L132 332L466 186V110L41 305V352L466 573Z" />
<glyph unicode="=" glyph-name="equal" horiz-adv-x="517" d="M471 286H46V354H471V286ZM471 97H46V166H471V97Z" />
<glyph unicode="&gt;" glyph-name="greater" horiz-adv-x="508" d="M41 573L466 352V305L41 110V186L375 332L41 498V573Z" />
<glyph unicode="?" glyph-name="question" horiz-adv-x="546" d="M324 195H236V249Q236 298 264 334Q281 357 338 409Q412 475 412 539Q412 589 378 619T287 650Q220 650 190 614T159 498H76Q76 727 291 727Q394 727 451 669Q500 619 500 538Q500 489 479 451T402
363Q352 318 338 296T324 241V195ZM282 110Q302 110 316 96T331 61Q331 41 317 27T282 12Q261 12 247 26T233 61Q233 82 247 96T282 110Z" />
<glyph unicode="@" glyph-name="at" horiz-adv-x="803" d="M465 -48Q421 -56 379 -56Q211 -56 121 62Q46 159 46 309Q46 486 170 596Q268 683 403 683Q573 683 672 579Q760 486 760 339Q760 238 716 171Q670 101 589 101Q533 101 504 135Q461 102 401 102Q310
102 262 163Q222 214 222 295Q222 396 281 452Q329 496 404 499Q450 499 493 475L539 512H564V195Q564 173 602 173Q641 173 665 215T689 326Q689 468 602 546Q527 614 403 614Q288 614 206 533Q117 445 117 311Q117 159 205 77Q283 4 414 4Q451 4 491 10V-16L465
-48ZM492 422Q454 436 421 436Q364 436 329 398T294 298Q294 235 326 199T414 163Q459 163 492 189V422Z" />
<glyph unicode="A" glyph-name="A" horiz-adv-x="655" d="M466 215H190L114 0H17L272 716H390L641 0H540L466 215ZM440 292L330 617L213 292H440Z" />
<glyph unicode="B" glyph-name="B" horiz-adv-x="655" d="M78 0V716H369Q469 716 524 666Q581 614 581 534Q581 424 481 378Q612 328 612 204Q612 118 557 60Q500 0 400 0H78ZM169 408H346Q416 408 450 433Q489 462 489 521Q489 580 450 610Q416 635 346 635H169V408ZM169
81H392Q453 81 487 113T521 204Q521 262 487 294T392 327H169V81Z" />
<glyph unicode="C" glyph-name="C" horiz-adv-x="709" d="M650 497H556Q541 569 504 602Q456 646 364 646Q252 646 191 558Q138 481 138 356Q138 215 209 137Q272 70 371 70Q492 70 538 159Q559 200 571 268H665Q632 -11 372 -11Q232 -11 151 71Q47 176 47 353Q47
525 147 636Q229 727 373 727Q607 727 650 497Z" />
<glyph unicode="D" glyph-name="D" horiz-adv-x="709" d="M87 0V716H363Q508 716 586 608Q654 513 654 358Q654 180 566 84Q489 0 363 0H87ZM178 81H347Q563 81 563 358Q563 635 347 635H178V81Z" />
<glyph unicode="E" glyph-name="E" horiz-adv-x="655" d="M179 326V81H601V0H88V716H584V635H179V407H569V326H179Z" />
<glyph unicode="F" glyph-name="F" horiz-adv-x="600" d="M179 326V0H88V716H568V635H179V407H521V326H179Z" />
<glyph unicode="G" glyph-name="G" horiz-adv-x="764" d="M696 377V0H638L615 101Q513 -11 371 -11Q215 -11 123 104Q43 205 43 356Q43 553 172 659Q256 727 387 727Q542 727 625 633Q670 582 686 501H593Q578 569 523 607T385 646Q264 646 194 558Q134 481 134
361Q134 221 210 140Q276 70 391 70Q495 70 559 138Q615 198 615 284V296H397V377H696Z" />
<glyph unicode="H" glyph-name="H" horiz-adv-x="709" d="M541 326H172V0H81V716H172V407H541V716H632V0H541V326Z" />
<glyph unicode="I" glyph-name="I" horiz-adv-x="273" d="M191 716V0H98V716H191Z" />
<glyph unicode="J" glyph-name="J" horiz-adv-x="491" d="M327 716H418V190Q418 99 365 45Q309 -11 214 -11Q118 -11 64 47Q17 97 17 178V230H110V195Q110 66 217 66Q276 66 305 110Q327 144 327 223V716Z" />
<glyph unicode="K" glyph-name="K" horiz-adv-x="655" d="M169 251V0H78V716H169V354L526 716H644L351 424L646 0H538L286 367L169 251Z" />
<glyph unicode="L" glyph-name="L" horiz-adv-x="546" d="M170 716V81H523V0H79V716H170Z" />
<glyph unicode="M" glyph-name="M" horiz-adv-x="818" d="M460 0H364L160 600V0H74V716H200L413 93L621 716H748V0H661V600L460 0Z" />
<glyph unicode="N" glyph-name="N" horiz-adv-x="709" d="M634 716V0H532L161 581V0H75V716H174L548 131V716H634Z" />
<glyph unicode="O" glyph-name="O" horiz-adv-x="764" d="M383 727Q549 727 645 612Q728 512 728 358Q728 181 621 78Q527 -11 383 -11Q216 -11 120 104Q37 204 37 358Q37 535 145 638Q238 727 383 727ZM382 646Q260 646 189 557Q128 479 128 358Q128 219 207
139Q276 70 382 70Q505 70 576 159Q637 237 637 358Q637 497 558 577Q489 646 382 646Z" />
<glyph unicode="P" glyph-name="P" horiz-adv-x="655" d="M180 303V0H89V716H385Q498 716 555 654Q605 600 605 506Q605 411 544 355Q488 303 405 303H180ZM180 384H371Q436 384 473 417T510 510Q510 569 473 602T371 635H180V384Z" />
<glyph unicode="Q" glyph-name="Q" horiz-adv-x="764" d="M563 35Q488 -10 382 -11Q216 -11 120 104Q37 204 37 358Q37 535 145 638Q238 727 383 727Q549 727 645 612Q728 512 728 358Q728 191 627 84L618 75L707 -13L660 -57L563 35ZM556 136L559 139Q637 217
637 358Q637 497 558 577Q489 646 382 646Q260 646 189 557Q128 479 128 358Q128 219 207 139Q276 70 382 70Q445 70 498 96H499L408 182L460 231L556 136Z" />
<glyph unicode="R" glyph-name="R" horiz-adv-x="709" d="M182 308V0H91V716H420Q534 716 590 660Q639 611 639 524Q639 463 613 423T525 353Q574 334 597 302Q620 269 623 167Q625 92 632 67T666 23V0H556Q534 46 534 97L535 209Q535 220 526 243T509 276Q482
308 417 308H182ZM182 389H403Q544 389 544 512Q544 635 403 635H182V389Z" />
<glyph unicode="S" glyph-name="S" horiz-adv-x="655" d="M585 510H499Q496 650 320 650Q248 650 204 618T160 532Q160 492 186 469T278 428L448 384Q610 341 610 204Q610 105 531 43Q461 -11 330 -11Q164 -11 89 89Q49 143 47 234H133V232Q133 154 186 112T336
69Q424 69 467 98Q518 133 518 196Q518 276 387 309L209 355Q69 391 69 520Q69 622 146 678Q213 727 323 727Q479 727 546 636Q585 583 585 521Q585 518 585 510Z" />
<glyph unicode="T" glyph-name="T" horiz-adv-x="600" d="M348 635V0H257V635H21V716H582V635H348Z" />
<glyph unicode="U" glyph-name="U" horiz-adv-x="709" d="M542 716H633V225Q633 109 548 45Q475 -11 357 -11Q221 -11 147 60Q83 123 83 225V716H174V225Q174 151 222 111T357 70Q449 70 499 116Q542 157 542 225V716Z" />
<glyph unicode="V" glyph-name="V" horiz-adv-x="655" d="M385 0H286L29 716H127L338 110L536 716H633L385 0Z" />
<glyph unicode="W" glyph-name="W" horiz-adv-x="927" d="M731 0H631L466 588L305 0H205L22 716H124L259 135L418 716H516L679 135L811 716H912L731 0Z" />
<glyph unicode="X" glyph-name="X" horiz-adv-x="655" d="M384 367L638 0H524L330 299L133 0H22L276 367L38 716H149L332 435L517 716H626L384 367Z" />
<glyph unicode="Y" glyph-name="Y" horiz-adv-x="655" d="M380 281V0H289V281L13 716H125L336 367L540 716H649L380 281Z" />
<glyph unicode="Z" glyph-name="Z" horiz-adv-x="600" d="M571 716V633L143 81H573V0H28V81L458 635H55V716H571Z" />
<glyph unicode="[" glyph-name="bracketleft" horiz-adv-x="372" d="M303 716V649H145V-35H303V-102H69V716H303Z" />
<glyph unicode="\" glyph-name="backslash" horiz-adv-x="350" d="M90 673L340 0H260L9 673H90Z" />
<glyph unicode="]" glyph-name="bracketright" horiz-adv-x="372" d="M303 716V-102H69V-35H227V649H69V716H303Z" />
<glyph unicode="^" glyph-name="asciicircum" horiz-adv-x="460" d="M193 696H265L417 323H349L229 618L111 323H43L193 696Z" />
<glyph unicode="_" glyph-name="underscore" horiz-adv-x="384" d="M387 -85V-149H-4V-85H387Z" />
<glyph unicode="`" glyph-name="grave" horiz-adv-x="491" d="M238 727L332 581H273L127 727H238Z" />
<glyph unicode="a" glyph-name="a" horiz-adv-x="546" d="M525 69V3Q491 -9 472 -9Q392 -9 385 64Q330 -11 210 -11Q127 -11 81 35Q41 75 41 138Q41 210 92 249Q121 271 213 292L381 330L382 373Q382 450 266 450Q155 450 147 360H64Q67 428 98 464Q151 525 270
525Q463 525 463 385V98Q463 60 496 60Q500 60 517 66Q523 68 525 69ZM382 263L250 229Q179 211 153 192T126 139Q126 60 228 60Q300 60 350 107Q382 136 382 173V263Z" />
<glyph unicode="b" glyph-name="b" horiz-adv-x="546" d="M53 716H134V445Q191 525 294 525Q403 525 462 445Q514 375 514 260Q514 127 445 53Q385 -11 290 -11Q183 -11 127 70V0H53V716ZM279 449Q213 449 174 396T134 254Q134 162 179 110Q218 66 279 66Q347
66 387 117T428 254Q428 348 382 402Q342 449 279 449Z" />
<glyph unicode="c" glyph-name="c" horiz-adv-x="491" d="M462 342H380Q365 450 258 450Q191 450 153 397T115 250Q115 157 160 108Q198 65 262 65Q365 65 385 177H468Q460 81 399 32Q346 -11 260 -11Q147 -11 84 69Q30 138 30 250Q30 384 101 460Q162 525 259
525Q371 525 427 450Q456 411 462 342Z" />
<glyph unicode="d" glyph-name="d" horiz-adv-x="546" d="M487 716V0H405V71Q356 -12 253 -12Q140 -12 79 70Q26 142 26 260Q26 389 95 462Q154 525 248 525Q352 525 405 447V716H487ZM262 449Q194 449 153 396T111 254Q111 163 159 111Q200 65 263 65Q328 65
366 116T405 254Q405 349 361 402Q322 449 262 449Z" />
<glyph unicode="e" glyph-name="e" horiz-adv-x="546" d="M503 233H124Q125 167 152 128Q195 65 276 65Q376 65 411 160H493Q477 79 419 34T273 -11Q156 -11 94 69Q39 139 39 254Q39 387 111 461Q174 525 274 525Q347 525 402 490T482 394Q503 342 503 236V233ZM415
300Q415 367 376 408T274 450Q211 450 172 410T127 300H415Z" />
<glyph unicode="f" glyph-name="f" horiz-adv-x="273" d="M253 514V448H168V0H87V448H18V514H87V602Q87 657 118 688T207 719Q229 719 253 714V646H244Q233 647 225 647Q168 647 168 595V514H253Z" />
<glyph unicode="g" glyph-name="g" horiz-adv-x="546" d="M404 514H480V84Q480 -83 426 -148Q372 -214 249 -214Q153 -214 99 -168Q51 -127 45 -59H129Q135 -99 159 -118Q194 -145 253 -145Q333 -145 367 -97Q396 -56 396 43V76Q332 -11 242 -11Q154 -11 93 55Q28
126 28 249Q28 381 96 459Q156 525 247 525Q345 525 404 437V514ZM256 450Q190 450 152 398T113 254Q113 159 157 109Q194 65 257 65Q323 65 359 115T396 254Q396 352 354 404Q317 450 256 450Z" />
<glyph unicode="h" glyph-name="h" horiz-adv-x="546" d="M69 716H150V442Q187 488 224 506T316 525Q391 525 434 488T477 385V0H396V352Q396 406 363 431Q332 454 290 454Q227 454 189 407T150 282V0H69V716Z" />
<glyph unicode="i" glyph-name="i" horiz-adv-x="218" d="M146 514V0H65V514H146ZM107 715Q128 715 142 701T157 666Q157 645 143 631T107 616Q87 616 73 630T58 666Q58 686 72 700T107 715Z" />
<glyph unicode="j" glyph-name="j" horiz-adv-x="218" d="M68 514H150V-107Q150 -214 8 -214Q-7 -214 -18 -211V-142Q-10 -142 -3 -142H1Q40 -142 54 -128T68 -75V514ZM107 711Q128 711 142 697T156 662Q156 642 142 628T107 613Q87 613 73 627T58 662Q58 682
72 696T107 711Z" />
<glyph unicode="k" glyph-name="k" horiz-adv-x="491" d="M138 716V296L356 514H462L283 337L493 0H392L218 279L138 201V0H57V716H138Z" />
<glyph unicode="l" glyph-name="l" horiz-adv-x="218" d="M149 716V0H67V716H149Z" />
<glyph unicode="m" glyph-name="m" horiz-adv-x="818" d="M69 514H145V440Q205 525 303 525Q398 525 441 449Q478 492 512 508T598 525Q748 525 748 384V0H666V352Q666 454 570 454Q520 454 485 415T450 322V0H368V352Q368 454 273 454Q222 454 187 416T151 322V0H69V514Z"
/>
<glyph unicode="n" glyph-name="n" horiz-adv-x="546" d="M69 514H145V427Q207 525 315 525Q390 525 434 488T478 387V0H397V354Q397 400 369 427T291 454Q227 454 189 407T151 282V0H69V514Z" />
<glyph unicode="o" glyph-name="o" horiz-adv-x="546" d="M270 525Q386 525 447 444Q501 374 501 254Q501 120 431 50Q371 -11 269 -11Q151 -11 89 68Q35 137 35 254Q35 390 106 463Q167 525 270 525ZM270 450Q200 450 160 398T120 254Q120 159 165 109Q204 65
269 65Q338 65 376 115T415 254Q415 352 371 404Q333 450 270 450Z" />
<glyph unicode="p" glyph-name="p" horiz-adv-x="546" d="M53 -214V514H129V435Q186 525 293 525Q402 525 461 441Q513 368 513 249Q513 122 445 51Q386 -11 292 -11Q197 -11 135 58V-214H53ZM279 449Q214 449 175 396T135 254Q135 162 180 110Q218 66 279 66Q347
66 387 117T428 254Q428 348 382 402Q341 449 279 449Z" />
<glyph unicode="q" glyph-name="q" horiz-adv-x="546" d="M487 -214H405V67Q350 -11 247 -11Q137 -11 77 67Q26 136 26 248Q26 383 95 460Q155 526 250 526Q355 526 414 443V514H487V-214ZM261 449Q194 449 153 396T111 254Q111 163 158 111Q198 66 262 66Q327
66 366 117T405 254Q405 349 361 403Q322 449 261 449Z" />
<glyph unicode="r" glyph-name="r" horiz-adv-x="327" d="M68 514H144V420Q189 526 286 526Q298 526 315 523V439Q235 438 205 416Q150 376 150 267V0H68V514Z" />
<glyph unicode="s" glyph-name="s" horiz-adv-x="491" d="M434 373H344Q340 450 241 450Q190 450 161 431T131 378Q131 328 226 306L305 288Q382 270 416 237T450 147Q450 74 393 32T239 -11Q133 -11 78 39Q32 80 29 148H122Q130 113 144 97Q171 65 245 65Q300
65 332 85T365 140Q365 191 286 210L209 228Q121 249 86 278Q46 311 46 373Q46 443 99 484T243 525Q337 525 389 478Q434 437 434 373Z" />
<glyph unicode="t" glyph-name="t" horiz-adv-x="297" d="M270 514V448H165V106Q165 88 177 76T210 63Q229 63 268 72L277 0Q215 -11 183 -11Q84 -11 84 70V448H14V514H84V619L165 656V514H270Z" />
<glyph unicode="u" glyph-name="u" horiz-adv-x="546" d="M473 0H392V81Q337 -11 228 -11Q153 -11 109 26T64 127V514H145V160Q145 115 174 88T252 61Q316 61 354 107T392 233V514H473V0Z" />
<glyph unicode="v" glyph-name="v" horiz-adv-x="491" d="M280 0H191L10 514H103L239 98L385 514H477L280 0Z" />
<glyph unicode="w" glyph-name="w" horiz-adv-x="709" d="M544 0H451L346 404L247 0H155L6 514H96L202 114L300 514H400L501 114L603 514H695L544 0Z" />
<glyph unicode="x" glyph-name="x" horiz-adv-x="491" d="M287 266L465 0H370L241 198L110 0H17L199 262L26 514H120L244 328L368 514H460L287 266Z" />
<glyph unicode="y" glyph-name="y" horiz-adv-x="491" d="M382 514H470L241 -108Q201 -214 108 -214Q64 -214 31 -194L47 -123Q72 -133 96 -133Q144 -133 163 -83L194 -1L20 514H108L239 114L382 514Z" />
<glyph unicode="z" glyph-name="z" horiz-adv-x="491" d="M435 514V441L129 72H448V0H30V74L337 442H51V514H435Z" />
<glyph unicode="{" glyph-name="braceleft" horiz-adv-x="382" d="M313 719L335 690V666Q319 666 289 663Q246 659 231 649Q209 633 209 597V413Q209 327 102 311V305Q209 289 209 203V20Q209 -17 231 -32Q247 -43 289 -47Q312 -49 335 -50V-74L313 -103Q296 -103
284 -102Q210 -96 174 -73Q134 -46 134 25V184Q134 267 16 267V349Q134 349 134 426Q134 428 134 431V591Q134 661 174 689Q208 711 284 718Q296 719 313 719Z" />
<glyph unicode="|" glyph-name="bar" horiz-adv-x="200" d="M69 688H131V28H69V688Z" />
<glyph unicode="}" glyph-name="braceright" horiz-adv-x="382" d="M46 690L69 719Q86 719 97 718Q174 711 207 689Q248 661 248 591V431Q247 428 247 426Q247 349 365 349V267Q248 267 248 184V25Q248 -46 207 -73Q172 -96 97 -102Q86 -103 69 -103L46 -74V-50Q70
-49 92 -47Q134 -43 150 -32Q172 -17 172 20V203Q172 289 280 305V311Q172 327 172 413V597Q172 633 150 649Q135 659 92 663Q62 666 46 666V690Z" />
<glyph unicode="~" glyph-name="asciitilde" horiz-adv-x="491" d="M405 404H457Q457 391 457 385Q457 330 429 297T354 263Q315 263 274 289L179 350Q157 364 136 364Q107 364 92 330Q87 317 84 288H32Q40 430 138 430Q165 430 191 415L306 347Q334 330 355 330Q405
330 405 392Q405 396 405 404Z" />
<glyph unicode="&#xa0;" glyph-name="nbspace" horiz-adv-x="184" />
<glyph unicode="&#xa1;" glyph-name="exclamdown" horiz-adv-x="327" d="M119 -201V130L140 349H179L200 130V-201H119ZM155 520Q176 520 190 506T205 470Q205 450 191 436T155 421Q135 421 121 435T106 470Q106 491 120 505T155 520Z" />
<glyph unicode="&#xa2;" glyph-name="cent" horiz-adv-x="550" d="M328 683V607Q362 606 396 597Q425 590 445 580L420 509Q393 520 370 526Q340 534 318 534Q254 534 221 498Q179 453 179 343Q179 235 221 191Q254 157 314 157Q347 157 384 165Q427 174 458 186V149L423
105Q386 88 328 83V-9H265V86Q182 98 138 157Q92 220 92 342Q92 466 139 532Q181 591 265 603V683H328Z" />
<glyph unicode="&#xa3;" glyph-name="sterling" horiz-adv-x="645" d="M184 512Q184 590 236 637Q285 682 367 682Q437 682 496 650V579Q433 612 371 612Q324 612 297 586Q268 557 268 499V363H441V300H268V203Q268 136 244 93Q297 99 346 99Q461 99 553 64V36L523
0Q420 30 323 30Q225 30 92 0V70Q134 80 158 110Q184 144 184 202V300H93V363H184V512Z" />
<glyph unicode="&#xa4;" glyph-name="currency" horiz-adv-x="516" d="M114 431L55 490L100 535L159 476Q205 507 258 507Q311 507 356 476L415 535L461 491L401 432Q432 385 432 333Q432 277 401 234L459 175L415 131L356 190Q310 159 258 159Q202 159 159 191L100
132L56 176L114 235Q84 279 84 333Q84 384 114 431ZM148 333Q148 286 180 255Q212 222 258 222Q305 222 337 255Q370 287 370 333Q370 380 337 412Q305 445 258 445Q212 445 180 412Q148 380 148 333Z" />
<glyph unicode="&#xa5;" glyph-name="yen" horiz-adv-x="521" d="M493 673L330 319H440V256H301V184H440V121H301V34L260 0H219V121H81V184H219V256H81V319H189L28 673H116L260 333L405 673H493Z" />
<glyph unicode="&#xa6;" glyph-name="brokenbar" horiz-adv-x="200" d="M69 412V688H131V412H69ZM131 304V28H69V304H131Z" />
<glyph unicode="&#xa7;" glyph-name="section" horiz-adv-x="546" d="M456 514H374Q373 577 358 600Q331 640 279 640Q241 640 216 617T191 557Q191 518 247 481L390 389Q449 351 473 315T497 225Q497 112 391 72Q442 12 442 -45Q442 -121 383 -168Q332 -209 259
-209Q197 -209 152 -180T87 -98Q76 -67 76 -13H160V-16Q160 -133 260 -133Q302 -133 328 -110T354 -49Q354 0 300 37L133 153Q43 215 43 307Q43 399 146 454Q103 502 103 553Q103 627 162 674Q213 716 284 716Q366 716 414 661Q456 614 456 542V514ZM348 104Q419
142 419 205Q419 265 348 314L190 421Q121 376 121 322Q121 292 133 273T185 225L348 104Z" />
<glyph unicode="&#xa8;" glyph-name="dieresis" horiz-adv-x="491" d="M155 715Q176 715 190 701T205 666Q205 645 191 631T155 616Q135 616 121 630T106 666Q106 686 120 700T155 715ZM326 715Q347 715 361 701T376 666Q376 645 362 631T326 616Q306 616 292
630T277 666Q277 686 291 700T326 715Z" />
<glyph unicode="&#xa9;" glyph-name="copyright" horiz-adv-x="784" d="M392 683Q485 683 567 636Q645 590 691 511Q738 429 738 336Q738 244 691 162Q646 84 567 38Q486 -9 392 -9Q298 -9 218 38Q138 84 93 162Q46 243 46 336Q46 430 93 511Q139 590 218 636Q299
683 392 683ZM392 632Q270 632 183 546Q96 459 96 336Q96 214 183 128Q269 41 392 41Q515 41 602 128Q688 214 688 336Q688 459 602 546Q514 632 392 632ZM471 133Q451 125 407 125Q316 125 267 184Q220 240 220 337Q220 432 270 488Q321 547 410 547Q469 547 527
518L498 460Q450 485 410 485Q355 485 324 446Q294 407 294 336Q294 264 322 226Q350 188 410 188Q430 188 459 194Q482 199 509 209V180L471 133Z" />
<glyph unicode="&#xaa;" glyph-name="ordfeminine" horiz-adv-x="401" d="M348 348V298H75V348H348ZM365 436V393Q343 385 331 385Q280 385 275 433Q240 384 163 384Q114 384 85 410T55 480Q55 526 88 551Q112 569 165 578L273 602V630Q273 679 199 679Q128 679
123 622H70Q72 666 91 689Q125 728 202 728Q326 728 326 638V454Q326 429 347 429Q349 429 360 434Q364 435 365 436ZM273 560L189 538Q109 524 109 480Q109 430 175 430Q221 430 253 460Q273 479 273 502V560Z" />
<glyph unicode="&#xab;" glyph-name="guillemotleft" horiz-adv-x="426" d="M202 475L229 452L109 267L230 81L202 58H176L37 262V270L176 475H202ZM361 475L389 452L268 267L389 81L362 58H335L196 262V270L335 475H361Z" />
<glyph unicode="&#xac;" glyph-name="logicalnot" horiz-adv-x="573" d="M39 285H534V2H465V217H39V285Z" />
<glyph unicode="&#xad;" glyph-name="uni00AD" horiz-adv-x="327" d="M278 306V236H45V306H278Z" />
<glyph unicode="&#xae;" glyph-name="registered" horiz-adv-x="784" d="M392 683Q485 683 567 636Q645 590 691 511Q738 429 738 336Q738 244 691 162Q646 84 567 38Q486 -9 392 -9Q298 -9 218 38Q138 84 93 162Q46 243 46 336Q46 430 93 511Q139 590 218 636Q299
683 392 683ZM392 632Q270 632 183 546Q96 459 96 336Q96 214 183 128Q269 41 392 41Q515 41 602 128Q688 214 688 336Q688 459 602 546Q514 632 392 632ZM242 539H394Q459 539 497 502T536 401Q536 331 472 299L547 158L515 133H478L403 280H316V133H242V539ZM388
473H316V347H393Q425 347 445 365Q463 383 463 412Q463 435 452 450Q436 473 388 473Z" />
<glyph unicode="&#xaf;" glyph-name="overscore" horiz-adv-x="479" d="M479 824V761H0V824H479Z" />
<glyph unicode="&#xb0;" glyph-name="degree" horiz-adv-x="373" d="M41 537Q41 597 84 640Q126 683 186 683Q246 683 289 640Q331 597 331 537Q331 478 289 435Q246 393 186 393Q125 393 84 435Q41 478 41 537ZM98 537Q98 498 123 470Q149 442 186 442Q222 442
249 470Q275 498 275 537Q275 577 249 606Q222 634 186 634Q150 634 123 606Q98 577 98 537Z" />
<glyph unicode="&#xb1;" glyph-name="plusminus" horiz-adv-x="573" d="M524 419V351H321V147H252V351H49V419H252V622H321V419H524ZM524 68V0H49V68H524Z" />
<glyph unicode="&#xb2;" glyph-name="twosuperior" horiz-adv-x="345" d="M317 336V279H19Q23 351 47 388T143 462L201 493Q259 524 259 571Q259 602 235 623T175 644Q124 644 102 606Q92 588 89 547H28Q33 696 177 696Q240 696 280 662T321 573Q321 493 226 445L164
414Q110 386 92 336H317Z" />
<glyph unicode="&#xb3;" glyph-name="threesuperior" horiz-adv-x="345" d="M133 473V522Q196 523 218 535T241 581Q241 646 167 646Q115 646 96 612Q87 595 87 559H26Q28 698 166 698Q229 698 266 667T303 582Q303 525 248 500Q317 477 317 403Q317 345 276 310T165
274Q22 274 16 413H77Q81 325 167 325Q208 325 231 346T255 403Q255 450 211 467Q196 473 133 473Z" />
<glyph unicode="&#xb4;" glyph-name="acute" horiz-adv-x="491" d="M267 727H377L231 581H172L267 727Z" />
<glyph unicode="&#xb5;" glyph-name="mu" horiz-adv-x="570" d="M469 514H550L441 0H367L385 82Q298 -12 199 -12Q148 -12 117 13L68 -214H-13L142 514H223L148 161Q145 146 145 133Q145 100 169 80T232 60Q296 60 344 107T409 234L469 514Z" />
<glyph unicode="&#xb6;" glyph-name="paragraph" horiz-adv-x="527" d="M513 716V653H456V-174H394V653H313V-174H250V254Q175 258 127 298Q47 364 47 480Q47 587 118 656Q180 716 267 716H513Z" />
<glyph unicode="&#xb7;" glyph-name="middot" horiz-adv-x="273" d="M207 419V296H85V419H207Z" />
<glyph unicode="&#xb8;" glyph-name="cedilla" horiz-adv-x="491" d="M243 0H281L259 -55Q274 -53 285 -53Q364 -53 364 -118Q364 -161 332 -185T243 -210Q196 -210 120 -177L141 -137L143 -138Q148 -141 149 -141Q205 -170 237 -170Q260 -170 275 -158T290 -126Q290
-89 245 -89Q230 -89 214 -97L203 -90L243 0Z" />
<glyph unicode="&#xb9;" glyph-name="onesuperior" horiz-adv-x="345" d="M157 570H60V614L75 616Q129 621 145 634T176 696H218V279H157V570Z" />
<glyph unicode="&#xba;" glyph-name="ordmasculine" horiz-adv-x="358" d="M308 348V298H50V348H308ZM179 727Q245 727 281 683T318 558Q318 478 282 434T179 390Q112 390 76 434T39 558Q39 639 75 683T179 727ZM178 676Q140 676 118 645T96 558Q96 503 118 472T179
441Q217 441 239 472T261 558Q261 613 239 644T178 676Z" />
<glyph unicode="&#xbb;" glyph-name="guillemotright" horiz-adv-x="439" d="M65 475H91L230 270V262L91 58H65L37 81L158 267L37 452L65 475ZM238 475H264L402 270V262L264 58H237L210 81L331 267L210 452L238 475Z" />
<glyph unicode="&#xbc;" glyph-name="onequarter" horiz-adv-x="674" d="M196 673V290L162 263H129V593L51 535L16 579L136 673H196ZM556 673L160 0H87L484 673H556ZM610 410V147H658V89H610V22L581 0H544V89H355L354 141L549 410H610ZM544 326L416 147H544V326Z" />
<glyph unicode="&#xbd;" glyph-name="onehalf" horiz-adv-x="723" d="M196 673V290L162 263H129V593L51 535L16 579L136 673H196ZM574 673L178 0H106L502 673H574ZM461 372Q522 413 579 413Q633 413 663 383T693 301Q693 263 667 222T573 112Q558 97 551 90L521
58H700V26L677 0H436V56L481 99Q541 153 580 198Q610 233 619 252Q629 272 629 294Q629 356 571 356Q532 356 495 328L461 372Z" />
<glyph unicode="&#xbe;" glyph-name="threequarters" horiz-adv-x="727" d="M42 667Q85 684 125 684Q178 684 211 654T244 576Q244 540 221 513T165 482Q213 478 241 441Q263 413 263 378Q263 266 115 266Q69 266 38 277L16 304V327Q62 313 103 313Q144 313 169
330T195 377Q195 414 160 438Q122 464 66 464V503H109Q139 503 156 518Q181 541 181 574Q181 634 111 634Q80 634 42 624V667ZM618 673L221 0H149L545 673H618ZM662 410V147H711V89H662V22L633 0H597V89H407V141L602 410H662ZM597 326L469 147H597V326Z" />
<glyph unicode="&#xbf;" glyph-name="questiondown" horiz-adv-x="600" d="M270 319H358V266Q358 198 294 140L255 106Q181 39 181 -24Q181 -75 216 -105T308 -136Q388 -136 418 -79Q435 -47 435 17H518Q517 -73 486 -125Q434 -213 303 -213Q200 -213 143 -155Q93
-105 93 -24Q93 25 114 63T192 152Q243 198 256 219T270 273V319ZM306 510Q326 510 340 496T355 460Q355 440 341 426T306 411Q285 411 271 425T257 460Q257 481 271 495T306 510Z" />
<glyph unicode="&#xc0;" glyph-name="Agrave" horiz-adv-x="655" d="M466 215H190L114 0H17L272 716H390L641 0H540L466 215ZM440 292L330 617L213 292H440ZM298 922L393 777H334L187 922H298Z" />
<glyph unicode="&#xc1;" glyph-name="Aacute" horiz-adv-x="655" d="M466 215H190L114 0H17L272 716H390L641 0H540L466 215ZM440 292L330 617L213 292H440ZM396 922H507L360 777H301L396 922Z" />
<glyph unicode="&#xc2;" glyph-name="Acircumflex" horiz-adv-x="655" d="M466 215H190L114 0H17L272 716H390L641 0H540L466 215ZM440 292L330 617L213 292H440ZM283 923H375L470 776H408L329 870L251 776H188L283 923Z" />
<glyph unicode="&#xc3;" glyph-name="Atilde" horiz-adv-x="655" d="M466 215H190L114 0H17L272 716H390L641 0H540L466 215ZM440 292L330 617L213 292H440ZM427 900H483Q469 798 396 798Q375 798 332 815Q280 835 264 835Q242 835 232 799H175Q192 900 259 900Q282
900 305 891L346 875Q373 864 391 864Q415 864 427 900Z" />
<glyph unicode="&#xc4;" glyph-name="Adieresis" horiz-adv-x="655" d="M466 215H190L114 0H17L272 716H390L641 0H540L466 215ZM440 292L330 617L213 292H440ZM248 892Q269 892 283 878T297 843Q297 823 283 809T248 794Q228 794 214 808T199 843Q199 863 213
877T248 892ZM411 892Q431 892 445 878T460 843Q460 823 446 809T411 794Q390 794 376 808T361 843Q361 863 375 877T411 892Z" />
<glyph unicode="&#xc5;" glyph-name="Aring" horiz-adv-x="655" d="M466 215H190L114 0H17L272 716H390L641 0H540L466 215ZM440 292L330 617L213 292H440ZM329 936Q365 936 390 911T415 850Q415 814 390 789T329 764Q293 764 268 789T243 850Q243 886 268 911T329
936ZM329 893Q311 893 298 881T285 850Q285 832 298 820T329 807Q347 807 360 819T373 850Q373 868 361 880T329 893Z" />
<glyph unicode="&#xc6;" glyph-name="AE" horiz-adv-x="982" d="M460 210H195L112 0H11L305 716H915V635H551V407H896V326H551V81H933V0H460V210ZM460 290V635H362L226 290H460Z" />
<glyph unicode="&#xc7;" glyph-name="Ccedilla" horiz-adv-x="709" d="M378 -11L360 -55Q376 -53 387 -53Q465 -53 465 -118Q465 -161 433 -185T344 -210Q296 -210 221 -177L242 -137Q247 -140 250 -142Q306 -170 338 -170Q361 -170 376 -158T391 -126Q391 -89
346 -89Q331 -89 315 -97L304 -90L340 -10Q249 -3 189 39Q122 86 85 169T47 355Q47 531 147 639Q228 727 374 727Q607 727 650 497H556Q541 569 504 602Q456 646 364 646Q252 646 191 558Q138 481 138 356Q138 215 209 137Q272 70 371 70Q492 70 538 159Q559 200
571 268H665Q632 -6 378 -11Z" />
<glyph unicode="&#xc8;" glyph-name="Egrave" horiz-adv-x="655" d="M179 326V81H601V0H88V716H584V635H179V407H569V326H179ZM313 922L408 777H349L203 922H313Z" />
<glyph unicode="&#xc9;" glyph-name="Eacute" horiz-adv-x="655" d="M179 326V81H601V0H88V716H584V635H179V407H569V326H179ZM360 922H470L324 777H265L360 922Z" />
<glyph unicode="&#xca;" glyph-name="Ecircumflex" horiz-adv-x="655" d="M179 326V81H601V0H88V716H584V635H179V407H569V326H179ZM292 923H384L479 776H417L338 870L260 776H197L292 923Z" />
<glyph unicode="&#xcb;" glyph-name="Edieresis" horiz-adv-x="655" d="M179 326V81H601V0H88V716H584V635H179V407H569V326H179ZM260 892Q281 892 295 878T310 843Q310 823 296 809T260 794Q240 794 226 808T211 843Q211 863 225 877T260 892ZM423 892Q443 892
457 878T472 843Q472 823 458 809T423 794Q403 794 389 808T374 843Q374 863 388 877T423 892Z" />
<glyph unicode="&#xcc;" glyph-name="Igrave" horiz-adv-x="273" d="M189 716V0H98V716H189ZM112 922L206 777H147L1 922H112Z" />
<glyph unicode="&#xcd;" glyph-name="Iacute" horiz-adv-x="273" d="M189 716V0H98V716H189ZM196 922H307L161 777H102L196 922Z" />
<glyph unicode="&#xce;" glyph-name="Icircumflex" horiz-adv-x="273" d="M189 716V0H98V716H189ZM93 923H186L281 776H219L140 870L62 776H-1L93 923Z" />
<glyph unicode="&#xcf;" glyph-name="Idieresis" horiz-adv-x="273" d="M189 716V0H98V716H189ZM59 892Q80 892 94 878T109 843Q109 823 95 809T59 794Q39 794 25 808T10 843Q10 863 24 877T59 892ZM222 892Q242 892 256 878T271 843Q271 823 257 809T222 794Q201
794 187 808T173 843Q173 863 187 877T222 892Z" />
<glyph unicode="&#xd0;" glyph-name="Eth" horiz-adv-x="709" d="M88 333H20V398H88V716H364Q509 716 587 608Q655 513 655 358Q655 180 567 84Q490 0 364 0H88V333ZM179 333V81H348Q454 81 509 153Q564 223 564 358Q564 493 509 563Q454 635 348 635H179V398H346V333H179Z"
/>
<glyph unicode="&#xd1;" glyph-name="Ntilde" horiz-adv-x="709" d="M634 716V0H531L161 581V0H75V716H174L548 131V716H634ZM459 900H516Q501 798 428 798Q411 798 371 812L324 829Q309 835 296 835Q274 835 264 799H207Q224 900 291 900Q314 900 337 891L378
875Q405 864 423 864Q448 864 459 900Z" />
<glyph unicode="&#xd2;" glyph-name="Ograve" horiz-adv-x="764" d="M351 922L446 777H387L241 922H351ZM383 727Q549 727 645 612Q728 512 728 358Q728 181 621 78Q527 -11 383 -11Q216 -11 120 104Q37 204 37 358Q37 535 145 638Q238 727 383 727ZM382 646Q260
646 189 557Q128 479 128 358Q128 219 207 139Q276 70 382 70Q505 70 576 159Q637 237 637 358Q637 497 558 577Q489 646 382 646Z" />
<glyph unicode="&#xd3;" glyph-name="Oacute" horiz-adv-x="764" d="M411 922H521L375 777H316L411 922ZM383 727Q549 727 645 612Q728 512 728 358Q728 181 621 78Q527 -11 383 -11Q216 -11 120 104Q37 204 37 358Q37 535 145 638Q238 727 383 727ZM382 646Q260
646 189 557Q128 479 128 358Q128 219 207 139Q276 70 382 70Q505 70 576 159Q637 237 637 358Q637 497 558 577Q489 646 382 646Z" />
<glyph unicode="&#xd4;" glyph-name="Ocircumflex" horiz-adv-x="764" d="M336 923H429L524 776H461L382 870L305 776H242L336 923ZM383 727Q549 727 645 612Q728 512 728 358Q728 181 621 78Q527 -11 383 -11Q216 -11 120 104Q37 204 37 358Q37 535 145 638Q238
727 383 727ZM382 646Q260 646 189 557Q128 479 128 358Q128 219 207 139Q276 70 382 70Q505 70 576 159Q637 237 637 358Q637 497 558 577Q489 646 382 646Z" />
<glyph unicode="&#xd5;" glyph-name="Otilde" horiz-adv-x="764" d="M483 900H540Q526 798 453 798Q433 798 369 822Q336 835 321 835Q298 835 288 799H232Q249 900 315 900Q338 900 361 891L402 875Q430 864 448 864Q472 864 483 900ZM383 727Q549 727 645 612Q728
512 728 358Q728 181 621 78Q527 -11 383 -11Q216 -11 120 104Q37 204 37 358Q37 535 145 638Q238 727 383 727ZM382 646Q260 646 189 557Q128 479 128 358Q128 219 207 139Q276 70 382 70Q505 70 576 159Q637 237 637 358Q637 497 558 577Q489 646 382 646Z" />
<glyph unicode="&#xd6;" glyph-name="Odieresis" horiz-adv-x="764" d="M383 727Q549 727 645 612Q728 512 728 358Q728 181 621 78Q527 -11 383 -11Q216 -11 120 104Q37 204 37 358Q37 535 145 638Q238 727 383 727ZM382 646Q260 646 189 557Q128 479 128 358Q128
219 207 139Q276 70 382 70Q505 70 576 159Q637 237 637 358Q637 497 558 577Q489 646 382 646ZM301 894Q321 894 335 880T350 845Q350 824 336 810T301 796Q281 796 267 810T252 845Q252 865 266 879T301 894ZM464 894Q484 894 498 880T513 845Q513 824 499 810T464
796Q443 796 429 810T414 845Q414 865 428 879T464 894Z" />
<glyph unicode="&#xd7;" glyph-name="multiply" horiz-adv-x="426" d="M350 408L394 364L257 226L386 97L342 53L213 182L84 53L40 97L169 226L32 364L76 408L213 271L350 408Z" />
<glyph unicode="&#xd8;" glyph-name="Oslash" horiz-adv-x="764" d="M645 612Q729 510 729 357Q729 181 621 78Q527 -11 383 -11Q241 -11 150 73L72 -12L34 23L115 112Q38 211 38 359Q38 536 146 638Q239 727 384 727Q516 727 608 650L688 737L727 702L645 612ZM585
547L209 137Q278 70 383 70Q506 70 576 159Q638 237 638 358Q638 467 585 547ZM176 178L550 586Q483 646 383 646Q260 646 190 557Q129 479 129 358Q129 255 176 178Z" />
<glyph unicode="&#xd9;" glyph-name="Ugrave" horiz-adv-x="709" d="M327 922L421 777H362L216 922H327ZM542 716H633V225Q633 109 548 45Q475 -11 357 -11Q221 -11 147 60Q83 123 83 225V716H174V225Q174 151 222 111T357 70Q449 70 499 116Q542 157 542 225V716Z" />
<glyph unicode="&#xda;" glyph-name="Uacute" horiz-adv-x="709" d="M379 922H490L344 777H285L379 922ZM542 716H633V225Q633 109 548 45Q475 -11 357 -11Q221 -11 147 60Q83 123 83 225V716H174V225Q174 151 222 111T357 70Q449 70 499 116Q542 157 542 225V716Z" />
<glyph unicode="&#xdb;" glyph-name="Ucircumflex" horiz-adv-x="709" d="M311 923H404L499 776H437L358 870L280 776H217L311 923ZM542 716H633V225Q633 109 548 45Q475 -11 357 -11Q221 -11 147 60Q83 123 83 225V716H174V225Q174 151 222 111T357 70Q449 70
499 116Q542 157 542 225V716Z" />
<glyph unicode="&#xdc;" glyph-name="Udieresis" horiz-adv-x="709" d="M542 716H633V225Q633 109 548 45Q475 -11 357 -11Q221 -11 147 60Q83 123 83 225V716H174V225Q174 151 222 111T357 70Q449 70 499 116Q542 157 542 225V716ZM277 892Q297 892 311 878T326
843Q326 823 312 809T277 794Q257 794 243 808T228 843Q228 863 242 877T277 892ZM440 892Q460 892 474 878T489 843Q489 823 475 809T440 794Q419 794 405 808T390 843Q390 863 404 877T440 892Z" />
<glyph unicode="&#xdd;" glyph-name="Yacute" horiz-adv-x="654" d="M379 281V0H288V281L13 716H125L335 367L539 716H648L379 281ZM383 922H493L347 777H288L383 922Z" />
<glyph unicode="&#xde;" glyph-name="Thorn" horiz-adv-x="654" d="M180 185V0H89V716H180V598H385Q494 598 553 535Q604 480 604 390Q604 293 541 236Q486 185 405 185H180ZM180 266H371Q435 266 470 299T506 392Q506 451 471 484T371 517H180V266Z" />
<glyph unicode="&#xdf;" glyph-name="germandbls" horiz-adv-x="600" d="M297 346V427Q364 428 402 456T440 534Q440 580 408 609T325 639Q270 639 238 609T205 529V0H124V529Q124 617 175 662Q238 716 331 716Q424 716 478 660Q526 611 526 537Q526 437 418 396Q556
350 556 220Q556 106 488 44Q429 -11 334 -11Q313 -11 293 -7V70H309Q395 70 435 115Q471 156 471 215Q471 282 427 318Q392 346 320 346Q310 346 297 346Z" />
<glyph unicode="&#xe0;" glyph-name="agrave" horiz-adv-x="546" d="M245 727L340 581H281L135 727H245ZM525 69V3Q491 -9 472 -9Q392 -9 385 64Q330 -11 210 -11Q127 -11 81 35Q41 75 41 138Q41 210 92 249Q121 271 213 292L381 330L382 373Q382 450 266 450Q155
450 147 360H64Q67 428 98 464Q151 525 270 525Q463 525 463 385V98Q463 60 496 60Q500 60 517 66Q523 68 525 69ZM382 263L250 229Q179 211 153 192T126 139Q126 60 228 60Q300 60 350 107Q382 136 382 173V263Z" />
<glyph unicode="&#xe1;" glyph-name="aacute" horiz-adv-x="546" d="M325 727H436L290 581H230L325 727ZM525 69V3Q491 -9 472 -9Q392 -9 385 64Q330 -11 210 -11Q127 -11 81 35Q41 75 41 138Q41 210 92 249Q121 271 213 292L381 330L382 373Q382 450 266 450Q155
450 147 360H64Q67 428 98 464Q151 525 270 525Q463 525 463 385V98Q463 60 496 60Q500 60 517 66Q523 68 525 69ZM382 263L250 229Q179 211 153 192T126 139Q126 60 228 60Q300 60 350 107Q382 136 382 173V263Z" />
<glyph unicode="&#xe2;" glyph-name="acircumflex" horiz-adv-x="546" d="M237 728H330L424 580H362L283 674L206 580H143L237 728ZM525 69V3Q491 -9 472 -9Q392 -9 385 64Q330 -11 210 -11Q127 -11 81 35Q41 75 41 138Q41 210 92 249Q121 271 213 292L381 330L382
373Q382 450 266 450Q155 450 147 360H64Q67 428 98 464Q151 525 270 525Q463 525 463 385V98Q463 60 496 60Q500 60 517 66Q523 68 525 69ZM382 263L250 229Q179 211 153 192T126 139Q126 60 228 60Q300 60 350 107Q382 136 382 173V263Z" />
<glyph unicode="&#xe3;" glyph-name="atilde" horiz-adv-x="546" d="M379 704H436Q421 602 350 602Q330 602 305 611L250 632Q231 640 217 640Q194 640 184 603H128Q145 705 212 705Q234 705 257 695L298 679Q326 668 344 668Q368 668 379 704ZM525 69V3Q491 -9
472 -9Q392 -9 385 64Q330 -11 210 -11Q127 -11 81 35Q41 75 41 138Q41 210 92 249Q121 271 213 292L381 330L382 373Q382 450 266 450Q155 450 147 360H64Q67 428 98 464Q151 525 270 525Q463 525 463 385V98Q463 60 496 60Q500 60 517 66Q523 68 525 69ZM382
263L250 229Q179 211 153 192T126 139Q126 60 228 60Q300 60 350 107Q382 136 382 173V263Z" />
<glyph unicode="&#xe4;" glyph-name="adieresis" horiz-adv-x="546" d="M200 700Q220 700 234 686T249 651Q249 631 235 617T200 602Q179 602 165 616T150 651Q150 671 164 685T200 700ZM362 700Q383 700 397 686T411 651Q411 631 397 617T362 602Q342 602 328
616T313 651Q313 671 327 685T362 700ZM525 69V3Q491 -9 472 -9Q392 -9 385 64Q330 -11 210 -11Q127 -11 81 35Q41 75 41 138Q41 210 92 249Q121 271 213 292L381 330L382 373Q382 450 266 450Q155 450 147 360H64Q67 428 98 464Q151 525 270 525Q463 525 463 385V98Q463
60 496 60Q500 60 517 66Q523 68 525 69ZM382 263L250 229Q179 211 153 192T126 139Q126 60 228 60Q300 60 350 107Q382 136 382 173V263Z" />
<glyph unicode="&#xe5;" glyph-name="aring" horiz-adv-x="546" d="M287 741Q323 741 348 716T373 655Q373 619 348 594T287 569Q251 569 226 594T201 655Q201 690 226 715T287 741ZM287 698Q269 698 256 686T243 655Q243 637 256 624T287 611Q305 611 318 624T331
654Q331 673 319 685T287 698ZM525 69V3Q491 -9 472 -9Q392 -9 385 64Q330 -11 210 -11Q127 -11 81 35Q41 75 41 138Q41 210 92 249Q121 271 213 292L381 330L382 373Q382 450 266 450Q155 450 147 360H64Q67 428 98 464Q151 525 270 525Q463 525 463 385V98Q463
60 496 60Q500 60 517 66Q523 68 525 69ZM382 263L250 229Q179 211 153 192T126 139Q126 60 228 60Q300 60 350 107Q382 136 382 173V263Z" />
<glyph unicode="&#xe6;" glyph-name="ae" horiz-adv-x="881" d="M239 295L386 314L382 373Q378 450 266 450Q155 450 147 360H64Q67 428 98 464Q151 525 269 525Q397 525 438 452Q504 525 610 525Q682 525 737 491T818 394Q839 343 839 236V233H460Q461 167 487
128Q530 65 611 65Q711 65 746 160H828Q813 79 755 34T607 -11Q479 -11 416 87Q330 -11 211 -11Q128 -11 81 35Q41 74 41 138Q41 210 92 248Q136 282 239 295ZM382 247L250 227Q126 208 126 138Q126 60 228 60Q300 60 350 107Q382 136 382 173V247ZM751 300Q750
368 711 409T609 450Q546 450 507 410T462 300H751Z" />
<glyph unicode="&#xe7;" glyph-name="ccedilla" horiz-adv-x="491" d="M264 -11L246 -54Q262 -53 273 -53Q351 -53 351 -118Q351 -161 319 -185T230 -210Q183 -210 108 -177L128 -137Q193 -170 224 -170Q247 -170 262 -157T277 -125Q277 -89 233 -89Q218 -89 202
-96L190 -90L226 -9Q128 4 75 81Q30 148 30 250Q30 384 101 460Q162 525 259 525Q371 525 427 450Q456 411 462 342H380Q365 450 258 450Q191 450 153 397T115 250Q115 157 160 108Q198 65 262 65Q365 65 385 177H468Q460 83 401 33Q348 -9 264 -11Z" />
<glyph unicode="&#xe8;" glyph-name="egrave" horiz-adv-x="546" d="M263 727L358 581H299L153 727H263ZM503 233H124Q125 167 152 128Q195 65 276 65Q376 65 411 160H493Q477 79 419 34T273 -11Q156 -11 94 69Q39 139 39 254Q39 387 111 461Q174 525 274 525Q347
525 402 490T482 394Q503 342 503 236V233ZM415 300Q415 367 376 408T274 450Q211 450 172 410T127 300H415Z" />
<glyph unicode="&#xe9;" glyph-name="eacute" horiz-adv-x="546" d="M330 727H440L294 581H235L330 727ZM503 233H124Q125 167 152 128Q195 65 276 65Q376 65 411 160H493Q477 79 419 34T273 -11Q156 -11 94 69Q39 139 39 254Q39 387 111 461Q174 525 274 525Q347
525 402 490T482 394Q503 342 503 236V233ZM415 300Q415 367 376 408T274 450Q211 450 172 410T127 300H415Z" />
<glyph unicode="&#xea;" glyph-name="ecircumflex" horiz-adv-x="546" d="M234 728H327L422 580H360L281 674L203 580H140L234 728ZM503 233H124Q125 167 152 128Q195 65 276 65Q376 65 411 160H493Q477 79 419 34T273 -11Q156 -11 94 69Q39 139 39 254Q39 387
111 461Q174 525 274 525Q347 525 402 490T482 394Q503 342 503 236V233ZM415 300Q415 367 376 408T274 450Q211 450 172 410T127 300H415Z" />
<glyph unicode="&#xeb;" glyph-name="edieresis" horiz-adv-x="546" d="M503 233H124Q125 167 152 128Q195 65 276 65Q376 65 411 160H493Q477 79 419 34T273 -11Q156 -11 94 69Q39 139 39 254Q39 387 111 461Q174 525 274 525Q347 525 402 490T482 394Q503 342
503 236V233ZM415 300Q415 367 376 408T274 450Q211 450 172 410T127 300H415ZM200 702Q220 702 234 688T249 653Q249 632 235 618T200 604Q179 604 165 618T150 653Q150 673 164 687T200 702ZM362 702Q383 702 397 688T411 653Q411 632 397 618T362 604Q342 604
328 618T313 653Q313 673 327 687T362 702Z" />
<glyph unicode="&#xec;" glyph-name="igrave" horiz-adv-x="273" d="M174 514V0H92V514H174ZM106 727L200 581H141L-5 727H106Z" />
<glyph unicode="&#xed;" glyph-name="iacute" horiz-adv-x="273" d="M173 514V0H92V514H173ZM197 727H308L162 581H103L197 727Z" />
<glyph unicode="&#xee;" glyph-name="icircumflex" horiz-adv-x="273" d="M174 514V0H92V514H174ZM87 728H180L275 580H213L134 674L56 580H-7L87 728Z" />
<glyph unicode="&#xef;" glyph-name="idieresis" horiz-adv-x="273" d="M174 514V0H92V514H174ZM50 693Q71 693 85 679T100 644Q100 623 86 609T50 594Q30 594 16 608T1 644Q1 664 15 678T50 693ZM213 693Q233 693 247 679T262 644Q262 623 248 609T213 594Q192
594 178 608T164 644Q164 664 178 678T213 693Z" />
<glyph unicode="&#xf0;" glyph-name="eth" horiz-adv-x="546" d="M214 602L119 558L84 596L169 635Q132 661 87 686L130 729Q186 702 240 668L334 712L373 675L287 635Q380 563 430 488Q501 381 501 255Q501 120 432 50Q371 -11 269 -11Q151 -11 89 68Q35 137
35 254Q35 421 139 489Q192 524 257 524Q282 524 310 515Q260 564 214 602ZM270 450Q200 450 160 398T120 254Q120 159 165 109Q204 65 269 65Q338 65 376 115T415 254Q415 352 371 404Q333 450 270 450Z" />
<glyph unicode="&#xf1;" glyph-name="ntilde" horiz-adv-x="546" d="M69 514H145V427Q207 525 315 525Q390 525 434 488T478 387V0H397V354Q397 400 369 427T291 454Q227 454 189 407T151 282V0H69V514ZM372 704H428Q414 602 342 602Q322 602 297 611L257 627Q224
640 210 640Q187 640 177 603H120Q137 705 204 705Q226 705 250 695L291 679Q318 668 336 668Q360 668 372 704Z" />
<glyph unicode="&#xf2;" glyph-name="ograve" horiz-adv-x="546" d="M250 727L344 581H285L139 727H250ZM270 525Q386 525 447 444Q501 374 501 254Q501 120 431 50Q371 -11 269 -11Q151 -11 89 68Q35 137 35 254Q35 390 106 463Q167 525 270 525ZM270 450Q200
450 160 398T120 254Q120 159 165 109Q204 65 269 65Q338 65 376 115T415 254Q415 352 371 404Q333 450 270 450Z" />
<glyph unicode="&#xf3;" glyph-name="oacute" horiz-adv-x="546" d="M325 727H435L289 581H230L325 727ZM270 525Q386 525 447 444Q501 374 501 254Q501 120 431 50Q371 -11 269 -11Q151 -11 89 68Q35 137 35 254Q35 390 106 463Q167 525 270 525ZM270 450Q200
450 160 398T120 254Q120 159 165 109Q204 65 269 65Q338 65 376 115T415 254Q415 352 371 404Q333 450 270 450Z" />
<glyph unicode="&#xf4;" glyph-name="ocircumflex" horiz-adv-x="546" d="M221 728H314L409 580H346L267 674L190 580H127L221 728ZM270 525Q386 525 447 444Q501 374 501 254Q501 120 431 50Q371 -11 269 -11Q151 -11 89 68Q35 137 35 254Q35 390 106 463Q167
525 270 525ZM270 450Q200 450 160 398T120 254Q120 159 165 109Q204 65 269 65Q338 65 376 115T415 254Q415 352 371 404Q333 450 270 450Z" />
<glyph unicode="&#xf5;" glyph-name="otilde" horiz-adv-x="546" d="M270 525Q386 525 447 444Q501 374 501 254Q501 120 431 50Q371 -11 269 -11Q151 -11 89 68Q35 137 35 254Q35 390 106 463Q167 525 270 525ZM270 450Q200 450 160 398T120 254Q120 159 165
109Q204 65 269 65Q338 65 376 115T415 254Q415 352 371 404Q333 450 270 450ZM368 704H425Q410 602 339 602Q318 602 294 611L253 627Q220 640 206 640Q184 640 173 603H116Q133 705 200 705Q222 705 246 695L287 679Q314 668 333 668Q356 668 368 704Z" />
<glyph unicode="&#xf6;" glyph-name="odieresis" horiz-adv-x="546" d="M270 525Q386 525 447 444Q501 374 501 254Q501 120 431 50Q371 -11 269 -11Q151 -11 89 68Q35 137 35 254Q35 390 106 463Q167 525 270 525ZM270 450Q200 450 160 398T120 254Q120 159 165
109Q204 65 269 65Q338 65 376 115T415 254Q415 352 371 404Q333 450 270 450ZM185 698Q205 698 219 684T234 649Q234 629 220 615T185 600Q164 600 150 614T135 649Q135 669 149 683T185 698ZM347 698Q368 698 382 684T397 649Q397 629 383 615T347 600Q327 600
313 614T298 649Q298 669 312 683T347 698Z" />
<glyph unicode="&#xf7;" glyph-name="divide" horiz-adv-x="508" d="M253 432Q274 432 288 418T302 383Q302 363 288 349T253 334Q233 334 219 348T204 383Q204 403 218 417T253 432ZM466 261V191H41V261H466ZM253 119Q274 119 288 105T302 70Q302 49 288 35T253
20Q233 20 219 34T204 70Q204 90 218 104T253 119Z" />
<glyph unicode="&#xf8;" glyph-name="oslash" horiz-adv-x="600" d="M431 464L486 527L518 500L457 431Q501 363 501 254Q501 120 432 50Q372 -11 270 -11Q176 -11 114 43L52 -26L21 1L86 74Q35 145 35 254Q35 390 106 462Q168 525 270 525Q369 525 431 464ZM144
140L375 401Q334 450 270 450Q201 450 161 398T121 254Q121 185 144 140ZM397 363L169 105Q210 65 270 65Q338 65 377 115T416 254Q416 318 397 363Z" />
<glyph unicode="&#xf9;" glyph-name="ugrave" horiz-adv-x="546" d="M238 727L333 581H274L128 727H238ZM473 0H400V81Q334 -11 228 -11Q153 -11 109 26T64 127V514H145V160Q145 115 174 88T252 61Q316 61 354 107T392 233V514H473V0Z" />
<glyph unicode="&#xfa;" glyph-name="uacute" horiz-adv-x="546" d="M318 727H429L283 581H224L318 727ZM473 0H400V81Q334 -11 228 -11Q153 -11 109 26T64 127V514H145V160Q145 115 174 88T252 61Q316 61 354 107T392 233V514H473V0Z" />
<glyph unicode="&#xfb;" glyph-name="ucircumflex" horiz-adv-x="546" d="M223 728H316L411 580H348L269 674L192 580H129L223 728ZM473 0H400V81Q334 -11 228 -11Q153 -11 109 26T64 127V514H145V160Q145 115 174 88T252 61Q316 61 354 107T392 233V514H473V0Z" />
<glyph unicode="&#xfc;" glyph-name="udieresis" horiz-adv-x="546" d="M473 0H400V81Q334 -11 228 -11Q153 -11 109 26T64 127V514H145V160Q145 115 174 88T252 61Q316 61 354 107T392 233V514H473V0ZM187 700Q208 700 222 686T236 651Q236 631 222 617T187 602Q167
602 153 616T138 651Q138 671 152 685T187 700ZM350 700Q370 700 384 686T399 651Q399 631 385 617T350 602Q329 602 315 616T300 651Q300 671 314 685T350 700Z" />
<glyph unicode="&#xfd;" glyph-name="yacute" horiz-adv-x="491" d="M303 727H413L267 581H208L303 727ZM382 514H470L241 -108Q201 -214 108 -214Q64 -214 31 -194L47 -123Q72 -133 96 -133Q144 -133 163 -83L194 -1L20 514H108L239 114L382 514Z" />
<glyph unicode="&#xfe;" glyph-name="thorn" horiz-adv-x="545" d="M134 444Q190 525 293 525Q402 525 461 441Q513 368 513 249Q513 122 445 51Q386 -11 292 -11Q193 -11 134 60V-214H53V701H134V444ZM279 449Q214 449 175 396T135 254Q135 162 180 110Q218 66
279 66Q347 66 387 117T428 254Q428 348 382 402Q341 449 279 449Z" />
<glyph unicode="&#xff;" glyph-name="ydieresis" horiz-adv-x="491" d="M158 702Q178 702 192 688T207 653Q207 632 193 618T158 604Q137 604 123 618T109 653Q109 673 123 687T158 702ZM320 702Q341 702 355 688T370 653Q370 632 356 618T320 604Q300 604 286
618T271 653Q271 673 285 687T320 702ZM382 514H470L241 -108Q201 -214 108 -214Q64 -214 31 -194L47 -123Q72 -133 96 -133Q144 -133 163 -83L194 -1L20 514H108L239 114L382 514Z" />
<glyph unicode="&#x2013;" glyph-name="endash" horiz-adv-x="470" d="M433 263V191H37V263H433Z" />
<glyph unicode="&#x2014;" glyph-name="emdash" horiz-adv-x="941" d="M904 263V191H37V263H904Z" />
<glyph unicode="&#x2018;" glyph-name="quoteleft" horiz-adv-x="210" d="M136 716L160 696Q138 670 122 636Q112 615 107 593Q108 593 110 593Q129 593 143 579T157 545Q157 533 150 519Q137 494 108 494Q83 494 67 514T51 567Q51 640 116 716H136Z" />
<glyph unicode="&#x2019;" glyph-name="quoteright" horiz-adv-x="210" d="M104 617H102Q82 617 69 630T54 664Q54 678 61 691Q74 716 103 716Q128 716 144 696T160 643Q160 571 94 494H75L51 514Q72 541 88 574Q99 595 104 617Z" />
<glyph unicode="&#x201a;" glyph-name="quotesinglbase" horiz-adv-x="210" d="M104 17Q104 17 103 17H102Q82 17 69 30T54 64Q54 78 61 91Q74 116 103 116Q128 116 144 96T160 43Q160 -29 94 -106H75L51 -87Q72 -60 88 -26Q99 -5 104 17Z" />
<glyph unicode="&#x201c;" glyph-name="quotedblleft" horiz-adv-x="360" d="M136 716L160 696Q138 670 122 636Q112 615 107 593Q108 593 110 593Q129 593 143 579T157 545Q157 533 150 519Q137 494 108 494Q83 494 67 514T51 567Q51 640 116 716H136ZM286 716L310
696Q289 670 273 636Q262 615 257 593Q268 593 274 591Q284 588 290 582Q306 569 307 546Q307 532 300 519Q287 494 258 494Q233 494 217 514T201 567Q201 639 267 716H286Z" />
<glyph unicode="&#x201d;" glyph-name="quotedblright" horiz-adv-x="360" d="M104 617H102Q82 617 69 630T54 664Q54 678 61 691Q74 716 103 716Q128 716 144 696T160 643Q160 571 94 494H75L51 514Q72 541 88 574Q99 595 104 617ZM254 617Q253 617 251 617Q232
617 218 631T204 665Q204 677 211 691Q224 716 253 716Q278 716 294 696T310 643Q310 571 244 494H225L201 514Q222 541 238 574Q249 595 254 617Z" />
<glyph unicode="&#x201e;" glyph-name="quotedblbase" horiz-adv-x="360" d="M104 17Q104 17 103 17H102Q82 17 69 30T54 64Q54 78 61 91Q74 116 103 116Q128 116 144 96T160 43Q160 -29 94 -106H75L51 -87Q72 -60 88 -26Q99 -5 104 17ZM254 17Q253 17 251 17Q232
17 218 31T204 64Q204 77 211 91Q224 116 253 116Q278 116 294 96T310 43Q310 -29 244 -106H225L201 -87Q222 -60 238 -26Q249 -5 254 17Z" />
<glyph unicode="&#x2022;" glyph-name="bullet" horiz-adv-x="366" d="M183 271Q223 271 252 242T281 173Q281 132 252 103T183 74Q142 74 113 103T84 173Q84 213 113 242T183 271Z" />
<glyph unicode="&#x2039;" glyph-name="guilsinglleft" horiz-adv-x="267" d="M202 475L229 452L109 267L230 81L202 58H176L37 262V270L176 475H202Z" />
<glyph unicode="&#x203a;" glyph-name="guilsinglright" horiz-adv-x="267" d="M65 475H91L230 270V262L91 58H65L37 81L158 267L37 452L65 475Z" />
</font>
</defs>
</svg>
