<?xml version="1.0" standalone="no"?>
<!DOCTYPE svg PUBLIC "-//W3C//DTD SVG 1.1//EN" "http://www.w3.org/Graphics/SVG/1.1/DTD/svg11.dtd">
<svg xmlns="http://www.w3.org/2000/svg">
<defs >
<font id="Mate" horiz-adv-x="522" ><font-face
    font-family="Mate"
    units-per-em="1000"
    panose-1="0 0 0 0 0 0 0 0 0 0"
    ascent="958"
    descent="-262"
    alphabetic="0" />
<glyph unicode=" " glyph-name="space" horiz-adv-x="235" />
<glyph unicode="!" glyph-name="exclam" horiz-adv-x="257" d="M104 172L77 433L123 695H179L137 172H104ZM110 -12Q88 -12 81 3T73 37Q73 56 77 72T81 89Q81 89 101 92T138 95Q158 95 166 80T174 45Q174 28 171 12T167 -4Q167 -4 147 -8T110 -12Z" />
<glyph unicode="&quot;" glyph-name="quotedbl" horiz-adv-x="300" d="M200 474Q195 493 189 530T179 613T175 699Q175 705 187 708T212 712Q226 712 238 709T250 699Q250 659 247 614T238 531T227 474H200ZM75 474Q70 493 64 530T54 613T50 699Q50 705 62 708T87
712Q101 712 113 709T125 699Q125 659 122 614T113 531T102 474H75Z" />
<glyph unicode="#" glyph-name="numbersign" horiz-adv-x="510" d="M47 0L106 168H2L22 225H126L162 330H48L68 387H182L241 554H298L239 387H344L403 554H460L401 387H508L488 330H381L345 225H462L442 168H325L266 0H209L268 168H163L104 0H47ZM183 225H288L324
330H219L183 225Z" />
<glyph unicode="$" glyph-name="dollar" horiz-adv-x="510" d="M199 -139L209 -7Q178 -4 146 4T79 28Q81 41 83 63T89 108T95 146T98 162Q101 162 110 162T126 160T134 153V65Q150 54 170 47T212 36L229 252L169 286Q88 332 88 415Q88 451 105 483T159 537T253
563L263 698H303L293 562Q322 560 351 553T409 535L388 409Q383 409 368 410T352 420V500Q340 506 325 511T289 519L273 311L344 271Q391 244 414 208T437 137Q437 89 413 57T346 8T249 -9V-9L239 -139H199ZM208 349L235 333L249 519Q212 516 181 496T150 438Q150
402 165 384T208 349ZM309 206L267 230L252 32H253Q314 32 342 58T371 121Q371 140 358 163T309 206Z" />
<glyph unicode="%" glyph-name="percent" horiz-adv-x="751" d="M251 -50L443 601H499L307 -50H251ZM167 218Q109 218 70 260T30 391Q30 475 72 519T174 563Q231 563 272 522T314 396Q314 306 273 262T167 218ZM172 260Q207 260 222 292T238 390Q238 456 223 488T172
520Q137 520 122 488T106 390Q106 324 121 292T172 260ZM574 -12Q516 -12 477 30T437 161Q437 245 479 289T581 333Q638 333 679 292T721 166Q721 76 680 32T574 -12ZM579 30Q614 30 629 62T645 160Q645 226 630 258T579 290Q544 290 529 258T513 160Q513 94 528
62T579 30Z" />
<glyph unicode="&amp;" glyph-name="ampersand" horiz-adv-x="580" d="M195 -13Q135 -13 93 10T29 74T7 165Q7 203 19 236T63 303T151 372L181 391L164 422Q154 441 144 469T133 532Q133 606 186 643T321 681Q359 681 405 671T488 641L462 492Q458 492 447 492T427
496T417 506V610Q394 618 369 623T319 628Q296 628 274 624T230 611Q210 580 210 543Q210 506 227 474T270 401L416 176Q442 215 456 255T471 328L403 363Q398 366 398 374Q398 382 403 394T409 407Q412 407 430 402T471 390T514 376T539 367Q533 315 510 252T446
131L496 55L580 31Q580 26 578 13T564 0H436L389 69Q352 34 305 11T195 -13ZM211 39Q258 39 295 59T363 111L206 353L157 320Q73 263 73 168Q73 134 88 105T133 57T211 39Z" />
<glyph unicode="&apos;" glyph-name="quotesingle" horiz-adv-x="175" d="M75 474Q70 493 64 530T54 613T50 699Q50 705 62 708T87 712Q101 712 113 709T125 699Q125 659 122 614T113 531T102 474H75Z" />
<glyph unicode="(" glyph-name="parenleft" horiz-adv-x="247" d="M198 -241Q148 -186 114 -112T62 45T44 214Q44 313 66 409T133 588T243 728L270 716Q231 670 204 610T159 483T133 346T125 214Q125 133 138 49T174 -109T229 -237L198 -241Z" />
<glyph unicode=")" glyph-name="parenright" horiz-adv-x="247" d="M4 -241L-23 -229Q16 -183 43 -123T88 4T114 141T122 273Q122 354 109 438T73 597T18 724L49 728Q100 673 134 600T185 442T203 273Q203 175 181 78T114 -101T4 -241Z" />
<glyph unicode="*" glyph-name="asterisk" horiz-adv-x="449" d="M209 551Q204 563 198 588T188 643T183 700Q183 706 196 709T223 712Q237 712 250 709T263 700Q263 674 259 644T250 589T239 551H209ZM257 519L247 548Q255 554 274 565T315 589T356 609T382 617Q391
617 397 604T407 574T411 549Q411 542 391 536T344 526Q318 522 293 521T257 519ZM193 516Q186 516 172 517T141 519Q118 521 95 525T55 534T39 546Q39 554 42 570T53 600T68 614Q75 614 93 606T134 586T176 563T203 545L193 516ZM303 355Q300 355 298 357Q283
376 269 403T244 456T230 492L255 510Q266 504 285 487T326 448T363 405Q363 404 363 404T364 402Q364 395 352 384T326 364T303 355ZM150 353Q141 353 127 361T101 381T89 399Q89 401 90 402Q107 423 127 445T167 484T197 509L222 490Q219 478 209 454T185 404T155
355Q153 353 150 353Z" />
<glyph unicode="+" glyph-name="plus" horiz-adv-x="510" d="M226 95V249H73V306H226V459H283V306H437V249H283V95H226Z" />
<glyph unicode="," glyph-name="comma" horiz-adv-x="197" d="M28 -142L19 -113Q57 -102 79 -76T101 -15V-10Q96 -11 93 -11T85 -11Q48 -11 48 49Q48 63 50 79T56 114Q70 117 86 119T115 121Q135 121 148 91T161 12Q161 -25 144 -57T96 -112T28 -142Z" />
<glyph unicode="-" glyph-name="hyphen" horiz-adv-x="390" d="M167 220Q135 220 106 222T55 229L50 279H333L340 246Q311 232 264 226T167 220Z" />
<glyph unicode="." glyph-name="period" horiz-adv-x="197" d="M85 -12Q63 -12 56 7T48 49Q48 72 52 93T56 114Q56 114 76 117T113 121Q133 121 141 103T149 59Q149 37 146 17T142 -3Q142 -3 122 -7T85 -12Z" />
<glyph unicode="/" glyph-name="slash" horiz-adv-x="327" d="M-30 -50L303 750H357L24 -50H-30Z" />
<glyph unicode="0" glyph-name="zero" horiz-adv-x="510" d="M247 -12Q185 -12 136 19T58 115T29 277Q29 370 60 433T143 530T259 563Q320 563 370 532T450 440T481 285Q481 185 451 119T368 21T247 -12ZM255 37Q325 37 361 95T398 275Q398 397 362 455T255 513Q185
513 149 455T112 275Q112 154 148 96T255 37Z" />
<glyph unicode="1" glyph-name="one" horiz-adv-x="510" d="M121 0Q109 0 107 14T105 33L259 57V499L126 466Q119 466 113 477T104 501T100 518Q100 518 120 523T172 534T235 547T290 558T319 563Q325 560 331 553T337 532V57L461 33Q461 28 459 14T445 0L284 4L121 0Z" />
<glyph unicode="2" glyph-name="two" horiz-adv-x="510" d="M52 0L29 32L213 196Q243 223 273 254T323 325T343 410Q343 467 310 490T233 513Q208 513 182 506T135 487L139 414Q139 408 131 405T113 400T99 398Q99 398 95 415T85 455T75 499T70 524Q100 541 145
552T235 563Q282 563 326 549T398 503T427 415Q427 356 399 308T324 217T225 133L110 43L111 39L398 64V142Q398 150 406 153T425 157T439 158Q439 158 442 139T450 93T458 43T462 14Q461 7 456 4T438 0H52Z" />
<glyph unicode="3" glyph-name="three" horiz-adv-x="510" d="M245 -68Q193 -68 143 -57T56 -29Q56 -24 60 -4T70 39T80 80T85 97Q88 97 97 96T115 91T124 81L121 8Q171 -19 226 -19Q265 -19 298 -6T353 35T374 105Q374 158 327 197T190 238L184 272Q240 279 275
301T328 354T345 415Q345 453 318 483T241 513Q190 513 148 487L152 414Q152 408 144 405T126 400T112 398Q112 398 108 415T98 455T88 499T83 524Q115 541 158 552T245 563Q290 563 331 549T400 503T427 418Q427 366 389 325T295 264Q372 251 413 206T454 107Q454
52 424 13T346 -47T245 -68Z" />
<glyph unicode="4" glyph-name="four" horiz-adv-x="510" d="M223 -56Q212 -56 210 -42T208 -23L323 0V89H43Q30 89 23 92T15 105Q15 110 26 141T56 218L218 616L291 594L84 134H323V379Q323 380 333 382T357 386T379 388Q385 385 391 378T397 357V134H496V89H397V0L492
-23Q492 -28 490 -42T477 -56L359 -52L223 -56Z" />
<glyph unicode="5" glyph-name="five" horiz-adv-x="510" d="M245 -68Q193 -68 143 -57T55 -29Q55 -24 59 -4T69 39T79 80T84 97Q87 97 97 96T116 91T124 81L120 8Q145 -5 172 -12T226 -19Q265 -19 298 -6T352 35T373 105Q373 158 326 197T191 237Q163 237 135
232L106 255L116 532L415 557Q428 557 434 555T442 543Q442 537 439 514T431 465T423 419T418 399Q415 399 405 399T387 403T378 415V493H180L158 288Q166 289 173 289T187 289Q285 289 343 263T428 196T454 107Q454 52 424 13T346 -47T245 -68Z" />
<glyph unicode="6" glyph-name="six" horiz-adv-x="510" d="M260 -12Q208 -12 160 12T80 88T49 220Q49 324 95 405T220 552T394 673L421 632Q297 553 237 483T153 350H268Q321 350 366 331T440 273T468 175Q468 116 438 74T361 10T260 -12ZM257 40Q307 40 345
74T383 174Q383 225 367 252T321 291T256 302Q227 302 197 298T137 287Q134 259 134 233Q134 142 169 91T257 40Z" />
<glyph unicode="7" glyph-name="seven" horiz-adv-x="510" d="M213 -68L133 -49L397 493H118V415Q118 407 110 404T92 400T78 399Q77 399 74 418T66 464T58 514T54 543Q56 552 62 554T81 557L423 537L441 564L469 546L213 -68Z" />
<glyph unicode="8" glyph-name="eight" horiz-adv-x="510" d="M252 -12Q191 -12 145 10T73 72T47 159Q47 187 60 221T102 288T178 346Q130 375 100 417T69 517Q69 558 91 592T156 647T258 668Q312 668 353 648T418 593T441 514Q441 475 415 428T328 345Q362 325
393 299T444 237T465 155Q465 110 440 72T368 11T252 -12ZM290 368Q328 398 344 437T361 509Q361 553 336 586T257 619Q205 619 177 591T148 517Q148 479 175 450T236 400L290 368ZM253 37Q287 37 315 51T362 90T380 152Q380 196 355 224T302 270L218 321Q175 288
153 245T131 164Q131 113 160 75T253 37Z" />
<glyph unicode="9" glyph-name="nine" horiz-adv-x="510" d="M132 -133L102 -97Q220 -8 278 64T358 198H251Q197 198 151 217T76 277T48 377Q48 435 78 476T155 540T254 563Q307 563 356 538T436 461T468 326Q468 246 440 180T364 59T256 -44T132 -133ZM267 240Q289
240 315 244T373 257Q375 272 376 287T378 317Q378 409 347 460T257 512Q206 512 170 478T133 377Q133 319 162 280T267 240Z" />
<glyph unicode=":" glyph-name="colon" horiz-adv-x="197" d="M85 -12Q63 -12 56 7T48 49Q48 72 52 93T56 114Q56 114 76 117T113 121Q133 121 141 103T149 59Q149 37 146 17T142 -3Q142 -3 122 -7T85 -12ZM85 284Q63 284 56 303T48 345Q48 368 52 389T56 410Q56
410 76 413T113 417Q133 417 141 399T149 355Q149 333 146 313T142 293Q142 293 122 289T85 284Z" />
<glyph unicode=";" glyph-name="semicolon" horiz-adv-x="197" d="M28 -142L19 -113Q57 -102 79 -76T101 -15V-10Q96 -11 93 -11T85 -11Q48 -11 48 49Q48 63 50 79T56 114Q70 117 86 119T115 121Q135 121 148 91T161 12Q161 -25 144 -57T96 -112T28 -142ZM85 284Q63
284 56 303T48 345Q48 368 52 389T56 410Q56 410 76 413T113 417Q133 417 141 399T149 355Q149 333 146 313T142 293Q142 293 122 289T85 284Z" />
<glyph unicode="&lt;" glyph-name="less" horiz-adv-x="510" d="M437 87L73 249V306L437 468V408L138 277L437 147V87Z" />
<glyph unicode="=" glyph-name="equal" horiz-adv-x="510" d="M73 330V387H437V330H73ZM73 168V225H437V168H73Z" />
<glyph unicode="&gt;" glyph-name="greater" horiz-adv-x="510" d="M73 87V147L372 277L73 408V468L437 306V249L73 87Z" />
<glyph unicode="?" glyph-name="question" horiz-adv-x="430" d="M168 184Q163 229 162 255T160 283Q161 301 182 329T231 390T282 457T311 522Q310 558 289 579T235 611T168 621Q155 621 144 620T121 617V516Q121 509 112 506T93 503T79 502L53 656Q113 671 169
671Q228 671 275 654T349 605T376 527Q376 491 359 457T315 391T263 331T220 279T202 234V184H168ZM170 -12Q148 -12 141 3T133 37Q133 56 137 72T141 89Q141 89 161 92T198 95Q218 95 226 80T234 45Q234 28 231 12T227 -4Q227 -4 207 -8T170 -12Z" />
<glyph unicode="@" glyph-name="at" horiz-adv-x="882" d="M357 -172Q266 -172 197 -138T89 -38T50 118Q50 189 73 258T140 387T243 494T373 566T523 592Q614 592 683 558T792 458T832 301Q832 238 812 182T756 82T671 13T562 -12Q528 -12 512 2T493 51L442 27Q404
9 372 -1T317 -12Q280 -12 263 15T245 105Q245 202 269 266T333 370T417 430T506 462Q519 462 540 456T581 441L604 468H627Q618 426 608 376T589 275T573 180T561 105T557 65Q557 29 594 29Q639 29 671 54T722 120T751 207T761 295Q761 377 730 435T642 524T512
555Q443 555 384 530T276 460T193 361T140 244T121 123Q121 42 152 -15T239 -104T368 -135Q423 -135 477 -116T579 -63L605 -99Q549 -134 486 -153T357 -172ZM358 40Q372 40 389 45T425 60L495 92L549 405H474Q430 405 400 379T351 310T324 213T316 105Q316 69
327 55T358 40Z" />
<glyph unicode="A" glyph-name="A" horiz-adv-x="660" d="M2 0Q-9 -1 -11 12T-13 30L62 52L292 700H368L600 52L675 30Q675 25 673 13T660 0Q660 0 654 0T626 1T561 4Q507 2 482 1T450 0T442 0Q431 0 429 12T427 30L517 52L454 229L179 215L124 52L219 30Q219
24 217 12T204 0L93 4L2 0ZM199 273H439L317 619L199 273Z" />
<glyph unicode="B" glyph-name="B" horiz-adv-x="612" d="M65 0Q54 0 52 12T50 30L134 52V648L50 670Q50 675 52 687T65 700Q65 700 71 700T99 699T168 696L298 700Q369 700 416 675T487 611T511 529Q511 482 484 440T402 374Q485 354 526 303T567 192Q567 140
543 96T472 26T360 0Q359 0 354 0T333 1T279 3T176 8L65 0ZM214 384H296Q343 389 374 410T420 462T436 526Q436 561 419 592T369 642T285 662L205 648L214 384ZM334 44Q387 44 421 65T471 120T487 191Q487 230 469 266T412 325T316 348L214 336L205 58Q245 51 280
48T334 44Z" />
<glyph unicode="C" glyph-name="C" horiz-adv-x="642" d="M363 -12Q271 -12 198 28T82 150T40 354Q40 471 86 551T209 671T379 712Q496 712 585 652L559 503Q555 503 544 503T524 507T514 517V628Q489 638 449 645T373 653Q336 653 297 646T229 629Q183 595 156
521T128 352Q128 247 160 178T248 75T373 41Q463 41 524 78L547 180Q549 187 558 189T578 193T592 194L584 51Q542 20 485 4T363 -12Z" />
<glyph unicode="D" glyph-name="D" horiz-adv-x="748" d="M364 -6L176 8L65 0Q54 0 52 12T50 30L134 52V648L50 670Q50 675 52 687T65 700Q65 700 73 700T105 699T176 696L380 712Q471 712 545 674T663 558T708 363Q708 237 664 155T542 34T364 -6ZM374 41Q444
41 499 74T587 177T620 352Q620 455 588 522T500 624T374 658Q342 658 299 654T208 639L218 350L208 61Q249 52 291 47T374 41Z" />
<glyph unicode="E" glyph-name="E" horiz-adv-x="601" d="M65 0Q54 0 52 12T50 30L134 52V648L50 670Q50 675 52 687T65 700Q65 700 71 700T99 699T168 696L508 700Q522 700 530 699T540 690L516 541Q512 541 502 541T482 545T473 555V649L208 646L217 382H473V339L217
326L208 55H483L509 149Q509 156 518 159T537 162T551 163L543 12Q542 4 536 2T514 0L170 8L65 0Z" />
<glyph unicode="F" glyph-name="F" horiz-adv-x="550" d="M65 0Q54 0 52 12T50 30L134 52V648L50 670Q50 675 52 687T65 700Q65 700 71 700T99 699T168 696L478 700Q492 700 500 699T510 690L486 541Q482 541 472 541T452 545T443 555V649L208 646L217 367L463
366V323L216 310L208 52L319 30Q319 25 317 13T304 0Q304 0 271 0T168 4Q121 2 99 1T71 0T65 0Z" />
<glyph unicode="G" glyph-name="G" horiz-adv-x="665" d="M353 -12Q264 -12 193 28T81 150T40 354Q40 471 86 551T209 671T379 712Q505 712 600 652L574 503Q570 503 559 503T539 507T529 517V628Q501 638 457 645T373 653Q336 653 297 646T229 629Q183 595 156
521T128 352Q128 247 159 178T243 75T363 41Q408 41 455 56T536 97L519 306L334 317V360H596V111L605 72Q544 28 481 8T353 -12Z" />
<glyph unicode="H" glyph-name="H" horiz-adv-x="789" d="M65 0Q54 0 52 12T50 30L134 52V648L50 670Q50 675 52 687T65 700Q65 700 71 700T99 699T168 696Q215 698 237 699T266 700T273 700Q284 700 286 688T288 670L208 648L217 384H572L581 648L501 670Q501
675 503 687T516 700Q516 700 523 700T552 699T621 696Q668 698 690 699T718 700T724 700Q735 700 737 688T739 670L655 648V52L739 30Q739 25 737 13T724 0Q724 0 718 0T690 1T621 4Q575 2 553 1T523 0T516 0Q505 0 503 12T501 30L581 52L571 340L217 326L208
52L288 30Q288 25 286 13T273 0Q273 0 266 0T237 1T168 4Q121 2 99 1T71 0T65 0Z" />
<glyph unicode="I" glyph-name="I" horiz-adv-x="345" d="M65 0Q54 0 52 12T50 30L136 52L131 350L136 648L50 670Q50 675 52 687T65 700Q65 700 73 700T106 699T177 696Q224 698 245 699T273 700T280 700Q291 700 293 688T295 670L209 648L214 350L209 52L295
30Q295 25 293 13T280 0Q280 0 274 0T246 1T177 4Q130 2 106 1T74 0T65 0Z" />
<glyph unicode="J" glyph-name="J" horiz-adv-x="315" d="M26 -204L-4 -183Q58 -102 95 -17T133 159V648L38 670Q38 675 40 687T54 700Q54 700 77 700T170 696Q217 698 241 699T273 700T281 700Q292 700 294 687T296 669L212 648V186Q212 83 161 -14T26 -204Z" />
<glyph unicode="K" glyph-name="K" horiz-adv-x="623" d="M65 0Q54 0 52 12T50 30L134 52V648L50 670Q50 675 52 687T65 700Q65 700 71 700T99 699T168 696Q215 698 237 699T266 700T273 700Q284 700 286 688T288 670L208 648L217 372H331L471 650L399 670Q399
675 401 687T414 700Q434 699 454 698T495 696Q519 697 542 698T590 700Q599 700 601 688T604 670L537 648L371 357Q385 351 398 338T427 299L572 52L652 30Q652 25 650 13T637 0H506L345 295Q330 324 315 336L217 324L208 52L309 30Q309 25 307 13T294 0Q294 0
266 0T168 4Q121 2 99 1T71 0T65 0Z" />
<glyph unicode="L" glyph-name="L" horiz-adv-x="521" d="M64 0Q53 -1 51 12T49 30L135 52L130 350L135 648L49 670Q49 675 51 687T64 700Q64 700 72 700T105 699T176 696Q223 698 244 699T272 700T279 700Q290 700 292 688T294 670L208 648L213 350L208 55H443L469
149Q472 159 489 161T511 163L503 12Q502 -1 474 0L176 8L64 0Z" />
<glyph unicode="M" glyph-name="M" horiz-adv-x="908" d="M40 0Q29 0 27 12T25 30L110 52L141 647L59 669Q59 674 61 687T74 700Q74 700 108 700T234 696L445 184L676 696Q768 699 801 699T834 700Q845 700 847 687T849 669L767 647L798 52L883 30Q883 25 881
13T868 0Q868 0 842 0T750 4L637 0Q625 0 623 12T621 30L716 52L695 601L442 50H423L192 594L169 52L264 30Q264 24 262 12T248 0L138 4Q95 2 74 1T47 0T40 0Z" />
<glyph unicode="N" glyph-name="N" horiz-adv-x="790" d="M65 0Q54 0 52 12T50 30L132 52V647L50 669Q50 674 52 687T65 700Q65 700 73 700T110 699T200 696L621 126L615 648L510 670Q510 676 512 688T526 700L647 696L735 700Q746 701 748 688T750 670L675 648L672
0H616L186 583L194 52L300 30Q300 24 298 12T284 0L163 4Q120 2 99 1T72 0T65 0Z" />
<glyph unicode="O" glyph-name="O" horiz-adv-x="747" d="M363 -12Q271 -12 198 28T82 150T40 354Q40 471 86 551T209 671T379 712Q470 712 544 674T662 558T707 363Q707 237 663 154T541 29T363 -12ZM373 36Q443 36 498 71T586 176T619 352Q619 455 587 522T499
624T373 658Q336 658 297 651T229 634Q183 599 156 524T128 352Q128 246 160 176T248 71T373 36Z" />
<glyph unicode="P" glyph-name="P" horiz-adv-x="563" d="M65 0Q54 0 52 12T50 30L134 52V648L50 670Q50 675 52 687T65 700Q65 700 71 700T99 699T168 696L326 700Q393 700 440 673T512 600T537 497Q537 446 510 400T427 321T286 282L215 276L208 52L319 30Q319
25 317 13T304 0Q304 0 271 0T168 4Q121 2 99 1T71 0T65 0ZM290 327Q350 327 388 350T443 413T461 498Q461 566 425 612T308 658L208 648L217 331Q231 330 250 329T290 327Z" />
<glyph unicode="Q" glyph-name="Q" horiz-adv-x="747" d="M493 -231Q468 -231 460 -212L368 -12Q273 -12 199 28T83 150T40 354Q40 471 86 551T209 671T379 712Q470 712 544 674T662 558T707 363Q707 250 672 172T573 49T426 -8L553 -210Q535 -221 520 -226T493
-231ZM373 36Q443 36 498 71T586 176T619 352Q619 455 587 522T499 624T373 658Q336 658 297 651T229 634Q183 599 156 524T128 352Q128 246 160 176T248 71T373 36Z" />
<glyph unicode="R" glyph-name="R" horiz-adv-x="596" d="M65 0Q54 0 52 12T50 30L134 52V648L50 670Q50 675 52 687T65 700Q65 700 71 700T99 699T168 696L324 700Q388 702 433 675T503 604T528 508Q528 474 511 439T461 375T379 330Q390 323 402 311T427 276L555
52L635 30Q635 25 633 13T620 0H489L345 272Q327 304 310 316L216 301L208 52L309 30Q309 25 307 13T294 0Q294 0 266 0T168 4Q121 2 99 1T71 0T65 0ZM280 354Q341 354 378 377T433 436T451 510Q451 547 435 580T385 636T298 658L208 648L217 358L280 354Z" />
<glyph unicode="S" glyph-name="S" horiz-adv-x="554" d="M268 -12Q218 -12 166 -1T55 36Q57 52 60 79T68 135T75 182T78 201Q82 201 92 201T112 198T121 189V78Q153 58 195 47T276 36Q351 36 385 72T419 157Q419 182 405 212T348 267L171 368Q119 397 94 440T69
528Q69 575 95 617T173 685T298 712Q342 712 385 702T471 676L445 522Q441 522 431 522T412 526T403 536V637Q382 647 353 654T292 662Q250 662 210 645T144 587Q141 577 140 567T139 547Q139 504 162 478T214 435L386 337Q445 303 474 258T504 170Q504 111 473
70T389 9T268 -12Z" />
<glyph unicode="T" glyph-name="T" horiz-adv-x="563" d="M147 0Q136 0 134 12T132 30L245 52L240 350L245 646L73 650L58 547Q58 540 49 537T30 534T16 533L5 690Q6 698 15 699T37 700L281 695L526 700Q540 700 548 699T558 690L547 533Q543 533 533 533T514
537T505 547L490 650L318 646L323 350L318 52L431 30Q431 25 429 13T416 0Q416 0 385 0T284 4Q214 1 181 1T147 0Z" />
<glyph unicode="U" glyph-name="U" horiz-adv-x="733" d="M380 -12Q258 -12 186 42T114 218V648L40 669Q40 674 42 687T55 700L156 696Q226 699 248 699T271 700Q283 700 285 688T287 670L192 648V215Q192 140 236 92T382 43Q449 43 491 67T554 132T575 216V648L480
670Q480 675 482 688T496 700L605 696Q641 698 657 698T678 699T683 700Q694 700 696 688T698 670L633 648V218Q633 150 603 98T517 17T380 -12Z" />
<glyph unicode="V" glyph-name="V" horiz-adv-x="643" d="M290 0L65 648L0 670Q0 675 2 687T15 700Q15 700 22 700T50 699T115 696L222 700Q233 700 235 688T237 670L153 648L338 95L516 648L431 670Q431 676 433 688T446 700L550 696Q600 698 614 699T628 700V700Q628
700 628 700T628 700Q639 699 641 687T643 670L578 648L360 0H290Z" />
<glyph unicode="W" glyph-name="W" horiz-adv-x="920" d="M247 0L65 648L0 670Q0 675 2 687T15 700Q15 700 22 700T50 699T115 696L222 700Q233 701 235 689T237 670L152 648L297 113L463 651H498V584L645 113L794 648L709 670Q709 676 711 688T724 700L827 696Q877
698 891 699T905 700V700Q905 700 905 700T905 700Q916 698 918 687T920 670L855 648L675 0H599L460 447L323 0H247Z" />
<glyph unicode="X" glyph-name="X" horiz-adv-x="696" d="M29 0Q19 0 17 12T15 30L90 52L307 353L111 648L36 670Q36 675 38 687T51 700Q51 700 72 700T159 696L266 700Q277 700 279 688T281 670L204 648L359 414L523 648L441 670Q441 676 443 688T456 700L567
696Q618 698 631 699T645 700V700Q645 700 645 700T645 700Q656 699 658 687T660 670L595 648L392 365L601 52L681 30Q681 25 679 13T666 0Q666 0 645 0T559 4Q505 2 478 1T441 0T431 0Q420 0 418 12T416 30L508 52L339 305L162 52L254 30Q254 24 252 12T239 0L118
4Q61 1 45 1T29 0Z" />
<glyph unicode="Y" glyph-name="Y" horiz-adv-x="580" d="M169 0Q158 0 156 12T154 30L259 52V277L65 648L0 670Q0 675 2 687T15 700Q15 700 21 700T48 699T112 696L217 700Q228 701 230 689T232 670L147 648L307 321L450 648L368 670Q368 676 370 688T383 700L487
696Q537 698 551 699T565 700V700Q565 700 565 700T565 700Q576 699 578 687T580 670L515 648L337 279V52L442 30Q442 25 440 13T427 0Q427 0 399 0T301 4Q231 1 200 1T169 0Z" />
<glyph unicode="Z" glyph-name="Z" horiz-adv-x="611" d="M45 -12L28 8L456 642H146V551Q146 544 137 541T118 538T104 537L79 688Q80 700 100 700L520 689L555 712L577 695L146 55H489V151Q489 158 498 161T517 164T531 165L556 12Q555 4 549 2T527 0L77 5L45 -12Z" />
<glyph unicode="[" glyph-name="bracketleft" horiz-adv-x="247" d="M242 731Q255 731 257 717T259 697Q259 697 245 694T210 688T172 683T147 680V-182Q154 -182 172 -184T210 -190T244 -196T259 -199Q259 -205 257 -219T242 -233H87Q81 -189 77 -147T73 -65Q73
12 82 88T117 249Q92 334 83 410T73 563Q73 604 78 645T87 731H242Z" />
<glyph unicode="\" glyph-name="backslash" horiz-adv-x="327" d="M303 -50L-30 750H24L357 -50H303Z" />
<glyph unicode="]" glyph-name="bracketright" horiz-adv-x="247" d="M5 -233Q-8 -233 -10 -219T-12 -199Q-12 -199 2 -196T37 -190T75 -185T100 -182V680Q93 680 75 682T37 688T3 694T-12 697Q-12 703 -10 717T5 731H160Q166 687 170 646T174 563Q174 487 165
411T130 249Q156 164 165 88T174 -65Q174 -105 170 -147T160 -233H5Z" />
<glyph unicode="^" glyph-name="asciicircum" horiz-adv-x="510" d="M75 225L227 512H284L436 225H376L255 457L135 225H75Z" />
<glyph unicode="_" glyph-name="underscore" horiz-adv-x="504" d="M40 -69V-12H464V-69H40Z" />
<glyph unicode="`" glyph-name="grave" horiz-adv-x="317" d="M256 518Q238 523 203 534T129 563T55 601Q50 604 50 613Q50 623 55 637T66 664T75 680Q123 642 167 609T239 557T267 537L256 518Z" />
<glyph unicode="a" glyph-name="a" horiz-adv-x="496" d="M157 -12Q107 -12 79 22T50 102Q50 139 75 172T159 228T318 259V319Q318 369 288 399T209 430Q175 392 147 370T103 348Q92 348 79 367T64 406Q110 428 155 444T237 468Q310 468 349 430T389 322V67Q389
31 432 31Q444 31 462 34Q471 25 471 9Q434 -12 400 -12Q367 -12 346 4T320 52Q262 22 219 5T157 -12ZM178 41Q209 41 247 55T318 91V226Q252 218 204 200T131 160Q127 150 125 138T122 114Q122 85 135 63T178 41Z" />
<glyph unicode="b" glyph-name="b" horiz-adv-x="519" d="M268 -12Q194 -12 120 19L106 0H72V704H-1Q-7 704 -11 714T-15 741Q-15 742 5 745T52 752T101 759T127 762Q143 752 143 734L140 395L143 393Q169 411 208 431T277 462Q372 462 425 400T479 228Q479 113
424 51T268 -12ZM252 32Q401 32 401 226Q401 312 367 360T273 409Q248 409 219 400T162 371Q152 346 148 329T143 294V52Q201 32 252 32Z" />
<glyph unicode="c" glyph-name="c" horiz-adv-x="435" d="M263 -12Q160 -12 100 53T40 230Q40 299 69 352T150 437T268 468Q295 466 332 456T397 435Q397 414 385 393T360 372Q352 372 333 381T292 405T253 435Q118 393 118 231Q118 140 160 88T276 36Q325 36
385 61Q393 54 396 48T403 31Q335 -12 263 -12Z" />
<glyph unicode="d" glyph-name="d" horiz-adv-x="552" d="M250 -12Q186 -12 139 17T66 101T40 228Q40 338 95 400T248 462Q309 462 381 433V704H310Q304 704 300 714T296 741Q296 742 315 745T361 752T410 759T436 762Q452 752 452 734V67Q452 31 495 31Q507 31
525 34Q534 25 534 9Q498 -12 463 -12Q394 -12 383 52Q358 36 320 18T250 -12ZM251 48Q279 48 314 60T381 93V395Q308 417 262 417Q118 417 118 230Q118 145 154 97T251 48Z" />
<glyph unicode="e" glyph-name="e" horiz-adv-x="469" d="M256 -12Q156 -12 98 47T40 209Q40 289 69 347T152 436T279 468Q351 468 392 409T434 245Q370 233 309 228T184 222Q152 222 117 225Q117 134 157 85T273 36Q336 36 400 68Q413 55 417 38Q388 16 343 2T256
-12ZM120 262Q236 264 350 283Q353 301 353 317Q353 367 327 393T251 420Q238 420 226 419T203 415Q134 369 120 262Z" />
<glyph unicode="f" glyph-name="f" horiz-adv-x="339" d="M44 0Q38 -1 34 7T30 30L116 52V409H55Q49 409 45 420T41 448L116 460Q116 551 126 611T159 707T220 762Q239 762 267 756T324 742T369 723Q369 703 359 682T339 660Q329 660 320 663T291 679T225 724Q208
709 198 652T187 516V457H306Q306 436 302 423T292 409H187V52L299 30Q299 17 295 8T285 0L153 4L44 0Z" />
<glyph unicode="g" glyph-name="g" horiz-adv-x="475" d="M200 -262Q115 -262 68 -223T20 -116Q20 -105 43 -75T109 0H76Q64 9 64 28Q64 48 81 82T130 160Q48 199 48 306Q48 379 97 423T229 468Q296 468 345 435Q385 472 436 485Q436 485 441 478T452 460T458
439Q458 425 442 420T372 409Q404 369 404 310Q404 231 356 186T220 141Q207 141 195 142T170 146Q152 121 141 98T129 58H292Q367 58 413 21T460 -76Q460 -129 426 -171T333 -237T200 -262ZM227 180Q275 180 303 213T332 305Q332 361 304 394T226 428Q210 428
193 425T160 416Q121 386 121 315Q121 255 150 218T227 180ZM214 -218Q264 -218 304 -200T367 -151T391 -82Q391 -45 367 -23T302 0H153L90 -104Q90 -159 122 -188T214 -218Z" />
<glyph unicode="h" glyph-name="h" horiz-adv-x="578" d="M35 0Q22 0 22 30L108 52V704H34Q28 704 24 714T20 741Q20 742 40 745T87 752T136 759T163 762Q179 752 179 734V395L182 393Q211 414 253 436T329 468Q397 468 432 431T467 322V52L553 30Q553 0 539 0L430
4L338 0Q332 0 328 8T324 30L396 52V319Q396 366 376 390T319 415Q263 415 198 371Q179 334 179 294V52L251 30Q251 17 248 9T238 0L145 4L35 0Z" />
<glyph unicode="i" glyph-name="i" horiz-adv-x="303" d="M54 0Q44 -1 42 12T40 30L126 52V410H55Q48 410 45 418T42 435T41 447Q41 447 60 450T105 458T153 465T181 468Q186 465 191 458T197 440V52L283 30Q283 26 282 13T269 0L162 4L54 0ZM140 541Q119 541
112 558T105 596Q105 618 109 636T113 655Q113 655 131 658T164 662Q183 662 190 645T198 606Q198 586 195 568T191 550Q191 550 173 546T140 541Z" />
<glyph unicode="j" glyph-name="j" horiz-adv-x="258" d="M41 -262L14 -243Q62 -166 81 -90T100 69V410H30Q23 410 20 418T17 435T16 447Q16 447 35 450T80 458T128 465T156 468Q161 465 166 458T172 440Q172 348 172 256T171 72Q171 5 141 -83T41 -262ZM108 541Q87
541 80 558T73 596Q73 618 77 636T81 655Q81 655 99 658T132 662Q151 662 158 645T166 606Q166 586 163 568T159 550Q159 550 141 546T108 541Z" />
<glyph unicode="k" glyph-name="k" horiz-adv-x="491" d="M34 0Q24 -1 22 12T20 30L106 52V704H35Q28 704 25 712T22 729T21 741Q21 741 40 744T85 752T133 759T161 762Q166 759 171 752T177 734V281H233L330 406L268 426Q268 430 270 443T282 456L350 452L450
456Q459 456 461 444T464 426L397 404L275 265L422 52L505 30Q505 25 503 13T491 0H376L212 241L177 237V52L249 30Q249 25 247 12T235 0L143 4L34 0Z" />
<glyph unicode="l" glyph-name="l" horiz-adv-x="283" d="M34 0Q24 -1 22 12T20 30L106 52V704H35Q28 704 25 712T22 729T21 741Q21 741 40 744T85 752T133 759T161 762Q166 759 171 752T177 734V52L263 30Q263 26 262 13T249 0L142 4L34 0Z" />
<glyph unicode="m" glyph-name="m" horiz-adv-x="859" d="M54 0Q44 0 42 13T40 30L128 52V398H54Q47 398 44 406T41 423T40 435Q40 435 57 438T97 446T141 453T168 456Q177 456 183 445T199 393Q199 393 218 406T270 438T342 468Q393 468 422 446T464 386Q475
394 497 409T550 440T615 468Q686 468 716 427T746 322V52L834 30Q834 26 833 13T820 0L709 4L615 0Q605 0 603 12T601 30L675 52V319Q675 369 656 392T604 415Q554 415 492 371Q481 349 477 330T473 294V52L546 30Q546 26 545 13T532 0L436 4L342 0Q332 0 330
12T327 30L401 52V319Q401 369 382 392T331 415Q281 415 219 371Q207 349 203 330T199 294V52L273 30Q273 25 271 13T259 0L166 4L54 0Z" />
<glyph unicode="n" glyph-name="n" horiz-adv-x="596" d="M54 0Q44 0 42 13T40 30L126 52V398H54Q47 398 44 406T41 423T40 435Q40 435 57 438T97 446T140 453T166 456Q175 456 181 445T197 393Q197 393 217 406T272 438T347 468Q422 468 453 427T485 322V52L571
30Q571 26 570 13T557 0L448 4L356 0Q346 0 344 12T342 30L414 52V319Q414 369 393 392T337 415Q283 415 216 371Q205 349 201 330T197 294V52L269 30Q269 25 267 13T255 0L163 4L54 0Z" />
<glyph unicode="o" glyph-name="o" d="M254 -12Q193 -12 145 15T68 95T40 230Q40 308 70 361T152 441T265 468Q325 468 374 443T452 366T482 236Q482 153 453 98T372 15T254 -12ZM261 32Q322 32 363 81T404 231Q404 328 363 376T261 424Q239 424 216 420T177 409Q149
387 134 339T118 231Q118 131 159 82T261 32Z" />
<glyph unicode="p" glyph-name="p" horiz-adv-x="562" d="M34 -250Q24 -251 22 -238T20 -220L106 -198V398H35Q28 398 25 406T22 423T21 435Q21 435 37 438T76 446T118 453T144 456Q152 456 158 444T173 397L177 393Q177 393 195 406T245 437T312 468Q370 468
417 441T493 361T522 228Q522 143 493 90T415 13T306 -12Q284 -12 260 -7T209 11Q211 21 214 29T224 44Q241 38 257 35T289 31Q358 31 401 76T444 226Q444 313 407 361T309 409Q284 409 256 400T196 371Q184 344 181 321T177 256V-198L289 -220Q289 -226 287 -238T275
-250L143 -246L34 -250Z" />
<glyph unicode="q" glyph-name="q" horiz-adv-x="541" d="M284 -250Q275 -250 273 -238T271 -220L383 -198V50Q365 40 328 21T250 -12Q192 -12 145 15T69 95T40 228Q40 311 68 362T144 438T248 462Q284 462 322 453T395 427L418 468H454V-198L526 -220Q526 -225
524 -237T513 -250L417 -246L284 -250ZM251 48Q277 48 313 59T383 92V394Q311 417 262 417Q192 417 155 372T118 230Q118 143 154 96T251 48Z" />
<glyph unicode="r" glyph-name="r" horiz-adv-x="366" d="M54 0Q44 -1 42 12T40 30L126 52V398H54Q47 398 44 406T41 423T40 435Q40 435 57 438T97 446T140 453T166 456Q176 456 181 446T190 423T195 399L200 397Q209 405 228 419T274 447T333 469Q333 469 344
452T356 408Q356 396 323 388T216 374Q210 359 206 344T199 306T197 243V52L309 30Q309 25 307 13T295 0L163 4L54 0Z" />
<glyph unicode="s" glyph-name="s" horiz-adv-x="420" d="M207 -12Q171 -12 131 -6T50 14Q50 20 53 40T60 85T67 127T71 145Q75 145 83 145T100 141T108 131V59Q127 46 155 38T211 30Q249 30 277 45T306 96Q306 114 294 132T253 166L137 233Q66 274 66 346Q66
394 106 431T226 468Q226 468 245 467T294 461T354 444Q354 438 351 420T344 379T337 342T333 326Q330 326 321 326T304 330T296 340V406Q283 414 263 419T220 424Q197 424 173 417T129 390Q127 383 126 373T125 357Q125 321 162 300L287 228Q372 178 372 108Q372
49 327 19T207 -12Z" />
<glyph unicode="t" glyph-name="t" horiz-adv-x="308" d="M167 -12Q124 -12 105 14T86 115V408H24Q17 408 14 416T11 434T10 447L93 461L119 573L157 585V456H275Q275 453 275 441T271 419T261 408H157V89Q157 61 168 50T196 38Q213 38 233 47T271 66Q284 54 288
36Q262 14 229 1T167 -12Z" />
<glyph unicode="u" glyph-name="u" horiz-adv-x="563" d="M238 -12Q161 -12 131 30T100 137V410H29Q22 410 19 418T16 435T15 447Q15 447 34 450T79 458T127 465T155 468Q160 465 165 458T171 440V131Q171 96 183 76T214 49T249 41Q284 41 321 57T392 97V410H321Q314
410 311 418T308 435T307 447Q307 447 326 450T371 458T419 465T447 468Q452 465 457 458T463 440V67Q463 49 472 40T506 31Q518 31 536 34Q541 29 543 22T545 9Q511 -12 474 -12Q446 -12 423 3T394 52Q335 17 291 3T238 -12Z" />
<glyph unicode="v" glyph-name="v" horiz-adv-x="438" d="M182 0L37 404L-10 426Q-10 431 -7 443T4 456L82 452L155 456Q164 456 166 444T169 426L107 406L222 83L332 406L270 426Q270 431 272 443T284 456L352 452L414 456Q423 456 425 444T428 426L381 404L240 0H182Z" />
<glyph unicode="w" glyph-name="w" horiz-adv-x="640" d="M162 0L37 404L-10 426Q-10 431 -7 443T4 456L82 452L155 456Q164 456 166 444T169 426L107 406L201 94L306 456H334L443 94L534 406L472 426Q472 431 474 443T486 456L554 452L616 456Q625 456 627 444T630
426L583 404L462 0H405L310 305L220 0H162Z" />
<glyph unicode="x" glyph-name="x" horiz-adv-x="506" d="M29 0Q19 0 17 12T15 30L87 52L216 222L91 404L24 426Q24 431 26 443T38 456L125 452L219 456Q229 456 231 444T233 426L171 406L261 275L360 406L298 426Q298 431 300 443T312 456L380 452L467 456Q476
456 478 444T481 426L414 404L287 236L414 52L486 30Q486 25 484 13T472 0L380 4L286 0Q276 0 274 13T272 30L334 50L242 184L141 50L203 30Q203 26 201 13T189 0L95 4L29 0Z" />
<glyph unicode="y" glyph-name="y" horiz-adv-x="441" d="M99 -262Q80 -262 42 -241Q42 -241 53 -223T82 -175T120 -111T159 -46T191 7L37 404L-10 426Q-10 431 -7 443T4 456L82 452L155 456Q164 456 166 444T169 426L107 406L226 100L335 406L273 426Q273 430
274 443T286 456L355 452L417 456Q426 456 428 444T431 426L384 404L236 0L126 -243Q118 -262 99 -262Z" />
<glyph unicode="z" glyph-name="z" horiz-adv-x="469" d="M48 -12L30 1L322 409H119V330Q119 323 111 320T95 317T82 316Q82 316 79 333T71 375T64 420T61 447Q62 455 68 457T85 459Q87 459 98 459T138 458T224 455T371 450L412 471L434 456L138 42L370 52V123Q370
130 378 133T395 136T407 137Q407 137 410 120T418 78T425 33T428 6Q427 -2 421 -4T404 -6L74 0L48 -12Z" />
<glyph unicode="{" glyph-name="braceleft" horiz-adv-x="272" d="M267 731Q280 731 282 717T284 697Q284 697 269 694T233 688T193 683T166 680Q166 592 171 530T183 426T195 356T201 306Q201 281 184 269T144 253V245Q167 241 184 230T201 193Q201 171 196 143T184
72T172 -31T166 -182Q174 -182 192 -184T232 -190T269 -196T284 -199Q284 -205 282 -219T267 -233H112Q106 -189 102 -147T98 -65Q98 3 107 69T142 209L42 236V263L142 290Q117 363 108 429T98 563Q98 604 103 645T112 731H267Z" />
<glyph unicode="|" glyph-name="bar" horiz-adv-x="270" d="M100 -208V673H170V-208H100Z" />
<glyph unicode="}" glyph-name="braceright" horiz-adv-x="272" d="M5 -233Q-8 -233 -10 -219T-12 -199Q-12 -199 3 -196T39 -190T80 -185T106 -182Q106 -93 101 -32T89 72T77 142T71 192Q71 218 88 229T128 245V253Q106 257 89 268T71 305Q71 327 76 355T88 426T100
530T106 680Q99 680 80 682T40 688T3 694T-12 697Q-12 703 -10 717T5 731H160Q166 687 170 646T174 563Q174 496 165 429T130 289L230 262V235L130 208Q156 135 165 69T174 -65Q174 -105 170 -147T160 -233H5Z" />
<glyph unicode="~" glyph-name="asciitilde" horiz-adv-x="510" d="M88 238L65 275Q88 300 114 309T168 319Q213 319 258 307T345 294Q389 294 423 321L445 284Q422 258 395 248T341 238Q296 238 251 250T164 263Q142 263 124 258T88 238Z" />
<glyph unicode="&#xa0;" glyph-name="uni00A0" horiz-adv-x="235" />
<glyph unicode="&#xa1;" glyph-name="exclamdown" horiz-adv-x="257" d="M119 361Q99 361 91 376T83 411Q83 428 86 444T90 460Q90 460 110 464T147 468Q170 468 177 453T184 419Q184 400 180 384T176 367Q176 367 156 364T119 361ZM78 -239L120 284H153L180 23L134
-239H78Z" />
<glyph unicode="&#xa2;" glyph-name="cent" horiz-adv-x="510" d="M243 -35L248 44Q178 59 134 118T90 280Q90 351 115 401T184 480T282 516L286 574H326L322 518Q351 517 379 512T437 493Q436 488 432 468T423 425T413 384T408 367Q405 367 395 368T377 373T368
383L372 456Q357 459 344 461T318 464L291 88Q298 87 304 87T318 86Q344 86 367 91T421 111Q434 99 438 81Q398 54 361 46T288 38L283 -35H243ZM252 101L278 462Q221 453 195 408T168 281Q168 213 190 167T252 101Z" />
<glyph unicode="&#xa3;" glyph-name="sterling" horiz-adv-x="510" d="M68 0L45 32Q97 87 115 131T134 216Q134 228 133 239T129 263H62V300H122Q115 327 110 355T104 414Q104 494 147 528T257 563Q266 563 274 563T292 561Q327 557 360 548T419 524Q418 519 414
499T405 456T395 415T390 398Q387 398 377 399T359 404T350 414L354 487Q312 513 261 513Q228 513 210 499T184 463T177 415Q177 380 182 353T192 300H348V263H197Q197 259 197 254T198 244Q198 205 182 159T116 41L117 37L394 62V147Q394 155 402 158T421 162T435
163Q435 163 438 143T446 95T454 44T458 14Q457 7 452 4T434 0H68Z" />
<glyph unicode="&#xa4;" glyph-name="currency" horiz-adv-x="552" d="M117 89L79 127L153 200Q129 237 129 281Q129 326 154 363L79 438L117 476L192 401Q230 427 276 427Q320 427 356 403L435 483L473 445L394 367Q422 329 422 281Q422 235 396 197L466 127L428
89L358 159Q321 134 276 134Q228 134 190 162L117 89ZM276 196Q311 196 335 221T360 281Q360 316 336 340T276 365Q241 365 216 341T191 281Q191 246 216 221T276 196Z" />
<glyph unicode="&#xa5;" glyph-name="yen" horiz-adv-x="510" d="M127 0Q116 0 114 12T112 30L217 52V179H100V216H217V222L195 263H100V300H176L73 499L26 521Q26 526 29 538T40 551Q60 551 79 549T118 547Q136 547 154 548T191 551Q200 551 202 539T205 521L146
501L268 262L388 501L326 521Q326 526 328 538T340 551Q357 551 374 549T408 547Q424 547 439 548T470 551Q479 551 481 539T484 521L437 499L334 300H416V263H315L295 223V216H416V179H295V52L400 30Q400 25 398 13T385 0Q385 0 357 0T259 4Q189 1 158 1T127 0Z"
/>
<glyph unicode="&#xa6;" glyph-name="brokenbar" horiz-adv-x="270" d="M100 322V673H170V322H100ZM100 -208V143H170V-208H100Z" />
<glyph unicode="&#xa7;" glyph-name="section" horiz-adv-x="427" d="M136 -85Q80 -85 20 -70L46 84Q50 84 60 84T79 80T88 70V-31Q99 -33 110 -34T135 -35Q169 -35 201 -25T255 6T278 64Q273 85 253 107T207 151T155 193T114 233T97 267Q97 304 116 340T195 417Q168
439 143 463T101 514T84 568Q84 614 111 646T185 695T291 712Q347 712 407 697L381 543Q377 543 367 543T348 547T339 557V658Q329 660 317 661T292 662Q259 662 226 652T172 621T149 563Q154 542 174 520T220 476T272 434T313 394T330 360Q330 323 311 286T232
210Q259 188 284 164T326 113T343 59Q343 14 316 -18T242 -68T136 -85ZM197 250Q207 250 220 254T243 263T253 267Q253 267 258 276T268 300T273 328Q273 348 265 362T230 377Q220 377 207 373T184 365T174 360Q174 360 169 351T159 327T154 299Q154 279 163 265T197
250Z" />
<glyph unicode="&#xa8;" glyph-name="dieresis" horiz-adv-x="374" d="M263 547Q244 547 238 562T232 597Q232 617 235 633T239 650Q239 650 255 653T285 656Q302 656 308 641T315 606Q315 587 312 571T309 555Q309 555 293 551T263 547ZM95 547Q76 547 70 562T64
597Q64 617 67 633T71 650Q71 650 87 653T117 656Q134 656 140 641T147 606Q147 587 144 571T141 555Q141 555 125 551T95 547Z" />
<glyph unicode="&#xa9;" glyph-name="copyright" horiz-adv-x="626" d="M313 217Q254 217 203 239T113 299T52 389T30 500Q30 559 52 610T112 700T202 761T313 783Q372 783 423 761T513 701T574 611T596 500Q596 441 574 390T514 300T424 239T313 217ZM313 254Q382
254 437 287T526 376T559 500Q559 569 526 624T438 713T313 746Q244 746 189 713T100 625T67 500Q67 432 100 376T188 287T313 254ZM321 322Q251 322 205 368T158 506Q158 565 181 605T243 666T329 687Q360 687 387 679T437 654L423 573Q419 573 404 574T389 585V636Q376
640 359 643T326 646Q290 646 260 635Q241 619 228 584T214 505Q214 432 246 396T326 359Q348 359 363 363T393 375L404 424Q406 431 421 432T440 434L436 355Q391 322 321 322Z" />
<glyph unicode="&#xaa;" glyph-name="ordfeminine" horiz-adv-x="283" d="M83 393Q51 393 34 415T16 464Q16 486 32 507T82 543T174 560V592Q174 618 159 635T117 654Q101 636 84 621T53 605Q40 605 33 621T23 646Q23 646 37 653T77 669T131 684Q182 684 204 659T227
594V443Q227 427 247 427Q249 427 253 427T268 428Q276 420 276 407Q266 401 253 397T228 393Q212 393 198 401T177 427Q145 411 119 402T83 393ZM102 433Q119 433 138 440T174 459V533Q106 522 76 497Q73 487 73 475Q73 459 79 446T102 433ZM113 298Q85 298 60
300T16 306L12 349H256L262 321Q237 308 196 303T113 298Z" />
<glyph unicode="&#xab;" glyph-name="guillemotleft" horiz-adv-x="460" d="M381 10L193 213V241L381 444L410 420L280 227L410 34L381 10ZM218 10L30 213V241L218 444L247 420L117 227L247 34L218 10Z" />
<glyph unicode="&#xac;" glyph-name="logicalnot" horiz-adv-x="510" d="M73 249V306H437V137H383V249H73Z" />
<glyph unicode="&#xae;" glyph-name="registered" horiz-adv-x="626" d="M313 217Q254 217 203 239T113 299T52 389T30 500Q30 559 52 610T112 700T202 761T313 783Q372 783 423 761T513 701T574 611T596 500Q596 441 574 390T514 300T424 239T313 217ZM313 254Q382
254 437 287T526 376T559 500Q559 569 526 624T438 713T313 746Q244 746 189 713T100 625T67 500Q67 432 100 376T188 287T313 254ZM198 328Q188 328 187 338T185 353L226 364V645L185 655Q185 658 186 670T198 681L247 678L323 681Q374 681 401 651T428 581Q428
557 411 533T363 494Q368 490 372 485T381 471L442 361L477 353Q477 349 476 339T463 328H401L329 463Q321 476 316 481L279 475L275 364L324 353Q324 349 323 339T310 328Q310 328 297 328T249 330Q220 329 209 329T198 328ZM280 512Q333 512 356 530T380 582Q380
606 364 627T313 649Q303 648 294 647T275 645L280 512Z" />
<glyph unicode="&#xaf;" glyph-name="overscore" horiz-adv-x="421" d="M70 570V633H351V570H70Z" />
<glyph unicode="&#xb0;" glyph-name="degree" horiz-adv-x="318" d="M159 439Q121 439 89 457T39 508T20 578Q20 617 38 648T89 698T159 717Q198 717 229 699T279 649T298 578Q298 540 280 508T230 458T159 439ZM159 485Q198 485 224 512T251 578Q251 617 225
643T159 670Q120 670 93 644T66 578Q66 539 93 512T159 485Z" />
<glyph unicode="&#xb1;" glyph-name="plusminus" horiz-adv-x="510" d="M226 95V249H73V306H226V459H283V306H437V249H283V95H226ZM73 -12V45H437V-12H73Z" />
<glyph unicode="&#xb2;" glyph-name="uni00B2" horiz-adv-x="410" d="M52 185L32 212L174 340Q196 360 218 383T256 436T271 500Q271 540 246 556T188 573Q148 573 115 558L117 515Q117 510 109 507T92 502T79 500Q79 500 76 511T70 537T63 567T59 588Q85 601
120 608T189 616Q225 616 259 605T316 568T338 500Q338 456 316 418T260 347T186 284L112 227L114 222L306 238V280Q306 293 320 295T338 297Q338 297 341 284T349 252T356 219T359 199Q358 192 355 189T338 185H52Z" />
<glyph unicode="&#xb3;" glyph-name="uni00B3" horiz-adv-x="410" d="M196 177Q160 177 123 185T57 205Q57 209 61 222T69 252T78 281T83 293Q87 293 100 290T114 278L112 235Q145 220 193 220Q227 220 255 239T284 299Q284 334 248 358T143 384L137 418Q204 426
235 451T266 511Q266 538 247 555T193 573Q176 573 160 569T130 559L132 515Q132 510 124 507T106 502T93 500L73 588Q99 601 132 608T196 616Q229 616 260 606T311 573T331 512Q331 479 310 453T259 409Q303 396 326 366T349 302Q349 263 327 235T270 192T196
177Z" />
<glyph unicode="&#xb4;" glyph-name="acute" horiz-adv-x="317" d="M61 518L50 537Q50 537 78 556T150 609T242 680Q245 677 251 665T262 638T267 613Q267 604 262 601Q229 580 189 563T114 535T61 518Z" />
<glyph unicode="&#xb5;" glyph-name="uni00B5" horiz-adv-x="509" d="M73 -199V410H24Q17 410 14 418T11 435T10 447Q10 447 25 450T63 458T103 465T128 468Q133 465 138 458T144 440V144Q144 90 169 69T230 47Q261 47 297 60T365 97V410H294Q287 410 284 418T281
435T280 447Q280 447 299 450T344 458T392 465T420 468Q425 465 430 458T436 440V67Q436 52 441 40T459 19L447 -12Q419 -12 396 3T367 52Q315 17 276 3T230 -12Q197 -12 172 -5T128 15L138 -199H73Z" />
<glyph unicode="&#xb6;" glyph-name="paragraph" horiz-adv-x="591" d="M161 0Q150 0 148 12T146 30L257 48V302Q200 303 153 324T78 388T50 501Q50 563 76 604T144 668T239 702T342 712Q397 712 444 705T521 689T551 679Q551 676 551 667T547 650T537 642H466V0H395V642H328V0H161Z"
/>
<glyph unicode="&#xb7;" glyph-name="middot" horiz-adv-x="197" d="M85 173Q63 173 56 192T48 234Q48 257 52 278T56 299Q56 299 76 302T113 306Q133 306 141 288T149 244Q149 222 146 202T142 182Q142 182 122 178T85 173Z" />
<glyph unicode="&#xb8;" glyph-name="cedilla" horiz-adv-x="410" d="M196 -233Q167 -233 146 -224T110 -202L129 -172Q153 -191 184 -191Q209 -191 222 -176T236 -142Q236 -121 218 -103T160 -83L200 15H232L209 -56Q256 -62 277 -87T299 -141Q299 -175 271 -204T196
-233Z" />
<glyph unicode="&#xb9;" glyph-name="uni00B9" horiz-adv-x="410" d="M86 185Q73 185 71 198T69 216L188 236V562L85 536Q78 536 72 544T63 562T59 575Q59 575 75 579T117 590T167 602T212 612T235 616Q241 614 246 608T251 590V236L343 216Q343 212 341 199T325
185L211 188L86 185Z" />
<glyph unicode="&#xba;" glyph-name="ordmasculine" horiz-adv-x="301" d="M145 393Q89 393 51 429T13 540Q13 611 54 647T152 684Q206 684 245 649T285 543Q285 467 246 430T145 393ZM150 427Q183 427 205 455T227 541Q227 595 205 622T150 650Q122 650 103 642Q88
629 80 603T71 541Q71 483 93 455T150 427ZM126 298Q98 298 73 300T29 306L25 349H269L275 321Q250 308 209 303T126 298Z" />
<glyph unicode="&#xbb;" glyph-name="guillemotright" horiz-adv-x="460" d="M242 10L213 34L343 227L213 420L242 444L430 241V213L242 10ZM79 10L50 34L180 227L50 420L79 444L267 241V213L79 10Z" />
<glyph unicode="&#xbc;" glyph-name="onequarter" horiz-adv-x="990" d="M351 -50L543 601H599L407 -50H351ZM86 132Q73 132 71 145T69 163L188 183V509L85 483Q78 483 72 491T63 509T59 522Q59 522 75 526T117 537T167 549T212 559T235 563Q241 561 246 555T251
537V183L343 163Q343 159 341 146T325 132L211 135L86 132ZM729 0Q716 0 714 13T712 31L785 45V92H607Q597 92 590 95T583 108Q583 109 586 119T603 162T642 260T714 439L774 421L643 132H785V286Q785 286 795 288T817 291T836 293Q843 289 844 283T845 267V132H914V92H845V45L905
31Q905 27 903 14T888 0L814 3L729 0Z" />
<glyph unicode="&#xbd;" glyph-name="onehalf" horiz-adv-x="990" d="M351 -50L543 601H599L407 -50H351ZM86 132Q73 132 71 145T69 163L188 183V509L85 483Q78 483 72 491T63 509T59 522Q59 522 75 526T117 537T167 549T212 559T235 563Q241 561 246 555T251
537V183L343 163Q343 159 341 146T325 132L211 135L86 132ZM617 0L597 27L739 155Q761 175 783 198T821 251T836 315Q836 355 811 371T753 388Q713 388 680 373L682 330Q682 325 674 322T657 317T644 315Q644 315 641 326T635 352T628 382T624 403Q650 416 685
423T754 431Q790 431 824 420T881 383T903 315Q903 271 881 233T825 162T751 99L677 42L679 37L871 53V95Q871 108 885 110T903 112Q903 112 906 99T914 67T921 34T924 14Q923 7 920 4T903 0H617Z" />
<glyph unicode="&#xbe;" glyph-name="threequarters" horiz-adv-x="990" d="M351 -50L543 601H599L407 -50H351ZM196 124Q160 124 123 132T57 152Q57 156 61 169T69 199T78 228T83 240Q87 240 100 237T114 225L112 182Q145 167 193 167Q227 167 255 186T284 246Q284
281 248 305T143 331L137 365Q204 373 235 398T266 458Q266 485 247 502T193 520Q176 520 160 516T130 506L132 462Q132 457 124 454T106 449T93 447L73 535Q99 548 132 555T196 563Q229 563 260 553T311 520T331 459Q331 426 310 400T259 356Q303 343 326 313T349
249Q349 210 327 182T270 139T196 124ZM729 0Q716 0 714 13T712 31L785 45V92H607Q597 92 590 95T583 108Q583 109 586 119T603 162T642 260T714 439L774 421L643 132H785V286Q785 286 795 288T817 291T836 293Q843 289 844 283T845 267V132H914V92H845V45L905
31Q905 27 903 14T888 0L814 3L729 0Z" />
<glyph unicode="&#xbf;" glyph-name="questiondown" horiz-adv-x="430" d="M231 361Q211 361 203 376T195 411Q195 428 198 444T202 460Q202 460 222 464T259 468Q282 468 289 453T296 419Q296 400 292 384T288 367Q288 367 268 364T231 361ZM260 -215Q201 -215
154 -198T80 -149T53 -71Q53 -35 70 -1T114 65T166 125T209 177T227 222V272H261Q266 227 267 201T269 173Q268 155 247 127T198 66T147 -1T118 -66Q119 -102 140 -123T195 -155T261 -165Q274 -165 286 -164T308 -161V-60Q308 -53 317 -50T336 -47T350 -46L376
-200Q316 -215 260 -215Z" />
<glyph unicode="&#xc0;" glyph-name="Agrave" horiz-adv-x="660" d="M2 0Q-9 -1 -11 12T-13 30L62 52L292 700H368L600 52L675 30Q675 25 673 13T660 0Q660 0 654 0T626 1T561 4Q507 2 482 1T450 0T442 0Q431 0 429 12T427 30L517 52L454 229L179 215L124 52L219
30Q219 24 217 12T204 0L93 4L2 0ZM199 273H439L317 619L199 273ZM427 762Q409 767 374 778T300 807T226 845Q221 848 221 857Q221 867 226 881T237 908T246 924Q294 886 338 853T410 801T438 781L427 762Z" />
<glyph unicode="&#xc1;" glyph-name="Aacute" horiz-adv-x="660" d="M2 0Q-9 -1 -11 12T-13 30L62 52L292 700H368L600 52L675 30Q675 25 673 13T660 0Q660 0 654 0T626 1T561 4Q507 2 482 1T450 0T442 0Q431 0 429 12T427 30L517 52L454 229L179 215L124 52L219
30Q219 24 217 12T204 0L93 4L2 0ZM199 273H439L317 619L199 273ZM232 762L221 781Q221 781 249 800T321 853T413 924Q416 921 422 909T433 882T438 857Q438 848 433 845Q400 824 360 807T285 779T232 762Z" />
<glyph unicode="&#xc2;" glyph-name="Acircumflex" horiz-adv-x="660" d="M2 0Q-9 -1 -11 12T-13 30L62 52L292 700H368L600 52L675 30Q675 25 673 13T660 0Q660 0 654 0T626 1T561 4Q507 2 482 1T450 0T442 0Q431 0 429 12T427 30L517 52L454 229L179 215L124
52L219 30Q219 24 217 12T204 0L93 4L2 0ZM199 273H439L317 619L199 273ZM233 753L207 770Q240 817 265 857T307 929H352Q369 897 394 857T452 770L426 753L330 855L233 753Z" />
<glyph unicode="&#xc3;" glyph-name="Atilde" horiz-adv-x="660" d="M2 0Q-9 -1 -11 12T-13 30L62 52L292 700H368L600 52L675 30Q675 25 673 13T660 0Q660 0 654 0T626 1T561 4Q507 2 482 1T450 0T442 0Q431 0 429 12T427 30L517 52L454 229L179 215L124 52L219
30Q219 24 217 12T204 0L93 4L2 0ZM199 273H439L317 619L199 273ZM189 798L172 817Q198 861 223 876T273 892Q297 892 319 886T363 872T409 865Q426 865 441 873T471 895L488 876Q463 832 438 817T387 801Q363 801 341 808T297 821T251 828Q235 828 220 820T189
798Z" />
<glyph unicode="&#xc4;" glyph-name="Adieresis" horiz-adv-x="660" d="M2 0Q-9 -1 -11 12T-13 30L62 52L292 700H368L600 52L675 30Q675 25 673 13T660 0Q660 0 654 0T626 1T561 4Q507 2 482 1T450 0T442 0Q431 0 429 12T427 30L517 52L454 229L179 215L124 52L219
30Q219 24 217 12T204 0L93 4L2 0ZM199 273H439L317 619L199 273ZM403 791Q384 791 378 806T372 841Q372 861 375 877T379 894Q379 894 395 897T425 900Q442 900 448 885T455 850Q455 831 452 815T449 799Q449 799 433 795T403 791ZM235 791Q216 791 210 806T204
841Q204 861 207 877T211 894Q211 894 227 897T257 900Q274 900 280 885T287 850Q287 831 284 815T281 799Q281 799 265 795T235 791Z" />
<glyph unicode="&#xc5;" glyph-name="Aring" horiz-adv-x="660" d="M2 0Q-9 -1 -11 12T-13 30L62 52L292 700H368L600 52L675 30Q675 25 673 13T660 0Q660 0 654 0T626 1T561 4Q507 2 482 1T450 0T442 0Q431 0 429 12T427 30L517 52L454 229L179 215L124 52L219
30Q219 24 217 12T204 0L93 4L2 0ZM199 273H439L317 619L199 273ZM327 759Q289 759 263 781T237 848Q237 890 265 912T331 935Q369 935 395 914T422 850Q422 804 396 782T327 759ZM330 792Q350 792 363 805T376 848Q376 874 363 888T330 902Q313 902 303 897Q293
893 288 879T283 848Q283 819 297 806T330 792Z" />
<glyph unicode="&#xc6;" glyph-name="AE" horiz-adv-x="865" d="M2 0Q-9 -1 -11 12T-13 30L62 52L320 655L262 670Q262 675 264 688T277 700L380 696Q391 695 401 695T422 696L760 700Q774 700 782 699T792 690L768 541Q764 541 754 541T734 545T725 555V649L432
646L490 382H772V339L502 325L561 55H782L808 149Q808 156 817 159T836 162T850 163L842 12Q841 3 834 1T808 0L525 8L485 5L406 0Q395 -1 393 11T391 30L481 52L443 229L192 217L124 52L219 30Q219 24 217 12T204 0L93 4L2 0ZM215 273H434L359 622L215 273Z" />
<glyph unicode="&#xc7;" glyph-name="Ccedilla" horiz-adv-x="642" d="M363 -12Q271 -12 198 28T82 150T40 354Q40 471 86 551T209 671T379 712Q496 712 585 652L559 503Q555 503 544 503T524 507T514 517V628Q489 638 449 645T373 653Q336 653 297 646T229 629Q183
595 156 521T128 352Q128 247 160 178T248 75T373 41Q463 41 524 78L547 180Q549 187 558 189T578 193T592 194L584 51Q542 20 485 4T363 -12ZM308 -233Q279 -233 258 -224T222 -202L241 -172Q265 -191 296 -191Q321 -191 334 -176T348 -142Q348 -121 330 -103T272
-83L312 15H344L321 -56Q368 -62 389 -87T411 -141Q411 -175 383 -204T308 -233Z" />
<glyph unicode="&#xc8;" glyph-name="Egrave" horiz-adv-x="601" d="M65 0Q54 0 52 12T50 30L134 52V648L50 670Q50 675 52 687T65 700Q65 700 71 700T99 699T168 696L508 700Q522 700 530 699T540 690L516 541Q512 541 502 541T482 545T473 555V649L208 646L217
382H473V339L217 326L208 55H483L509 149Q509 156 518 159T537 162T551 163L543 12Q542 4 536 2T514 0L170 8L65 0ZM411 762Q393 767 358 778T284 807T210 845Q205 848 205 857Q205 867 210 881T221 908T230 924Q278 886 322 853T394 801T422 781L411 762Z" />
<glyph unicode="&#xc9;" glyph-name="Eacute" horiz-adv-x="601" d="M65 0Q54 0 52 12T50 30L134 52V648L50 670Q50 675 52 687T65 700Q65 700 71 700T99 699T168 696L508 700Q522 700 530 699T540 690L516 541Q512 541 502 541T482 545T473 555V649L208 646L217
382H473V339L217 326L208 55H483L509 149Q509 156 518 159T537 162T551 163L543 12Q542 4 536 2T514 0L170 8L65 0ZM216 762L205 781Q205 781 233 800T305 853T397 924Q400 921 406 909T417 882T422 857Q422 848 417 845Q384 824 344 807T269 779T216 762Z" />
<glyph unicode="&#xca;" glyph-name="Ecircumflex" horiz-adv-x="601" d="M65 0Q54 0 52 12T50 30L134 52V648L50 670Q50 675 52 687T65 700Q65 700 71 700T99 699T168 696L508 700Q522 700 530 699T540 690L516 541Q512 541 502 541T482 545T473 555V649L208
646L217 382H473V339L217 326L208 55H483L509 149Q509 156 518 159T537 162T551 163L543 12Q542 4 536 2T514 0L170 8L65 0ZM217 753L191 770Q224 817 249 857T291 929H336Q353 897 378 857T436 770L410 753L314 855L217 753Z" />
<glyph unicode="&#xcb;" glyph-name="Edieresis" horiz-adv-x="601" d="M65 0Q54 0 52 12T50 30L134 52V648L50 670Q50 675 52 687T65 700Q65 700 71 700T99 699T168 696L508 700Q522 700 530 699T540 690L516 541Q512 541 502 541T482 545T473 555V649L208 646L217
382H473V339L217 326L208 55H483L509 149Q509 156 518 159T537 162T551 163L543 12Q542 4 536 2T514 0L170 8L65 0ZM387 791Q368 791 362 806T356 841Q356 861 359 877T363 894Q363 894 379 897T409 900Q426 900 432 885T439 850Q439 831 436 815T433 799Q433 799
417 795T387 791ZM219 791Q200 791 194 806T188 841Q188 861 191 877T195 894Q195 894 211 897T241 900Q258 900 264 885T271 850Q271 831 268 815T265 799Q265 799 249 795T219 791Z" />
<glyph unicode="&#xcc;" glyph-name="Igrave" horiz-adv-x="345" d="M65 0Q54 0 52 12T50 30L136 52L131 350L136 648L50 670Q50 675 52 687T65 700Q65 700 73 700T106 699T177 696Q224 698 245 699T273 700T280 700Q291 700 293 688T295 670L209 648L214 350L209
52L295 30Q295 25 293 13T280 0Q280 0 274 0T246 1T177 4Q130 2 106 1T74 0T65 0ZM270 762Q252 767 217 778T143 807T69 845Q64 848 64 857Q64 867 69 881T80 908T89 924Q137 886 181 853T253 801T281 781L270 762Z" />
<glyph unicode="&#xcd;" glyph-name="Iacute" horiz-adv-x="345" d="M65 0Q54 0 52 12T50 30L136 52L131 350L136 648L50 670Q50 675 52 687T65 700Q65 700 73 700T106 699T177 696Q224 698 245 699T273 700T280 700Q291 700 293 688T295 670L209 648L214 350L209
52L295 30Q295 25 293 13T280 0Q280 0 274 0T246 1T177 4Q130 2 106 1T74 0T65 0ZM75 762L64 781Q64 781 92 800T164 853T256 924Q259 921 265 909T276 882T281 857Q281 848 276 845Q243 824 203 807T128 779T75 762Z" />
<glyph unicode="&#xce;" glyph-name="Icircumflex" horiz-adv-x="345" d="M65 0Q54 0 52 12T50 30L136 52L131 350L136 648L50 670Q50 675 52 687T65 700Q65 700 73 700T106 699T177 696Q224 698 245 699T273 700T280 700Q291 700 293 688T295 670L209 648L214
350L209 52L295 30Q295 25 293 13T280 0Q280 0 274 0T246 1T177 4Q130 2 106 1T74 0T65 0ZM76 753L50 770Q83 817 108 857T150 929H195Q212 897 237 857T295 770L269 753L173 855L76 753Z" />
<glyph unicode="&#xcf;" glyph-name="Idieresis" horiz-adv-x="345" d="M65 0Q54 0 52 12T50 30L136 52L131 350L136 648L50 670Q50 675 52 687T65 700Q65 700 73 700T106 699T177 696Q224 698 245 699T273 700T280 700Q291 700 293 688T295 670L209 648L214 350L209
52L295 30Q295 25 293 13T280 0Q280 0 274 0T246 1T177 4Q130 2 106 1T74 0T65 0ZM502 791Q483 791 477 806T471 841Q471 861 474 877T478 894Q478 894 494 897T524 900Q541 900 547 885T554 850Q554 831 551 815T548 799Q548 799 532 795T502 791ZM334 791Q315
791 309 806T303 841Q303 861 306 877T310 894Q310 894 326 897T356 900Q373 900 379 885T386 850Q386 831 383 815T380 799Q380 799 364 795T334 791Z" />
<glyph unicode="&#xd0;" glyph-name="Eth" horiz-adv-x="748" d="M67 324V382H134V648L50 670Q50 675 52 687T65 700Q65 700 73 700T105 699T176 696L380 712Q471 712 545 674T663 558T708 363Q708 237 664 155T542 34T364 -6L176 8L65 0Q54 0 52 12T50 30L134
52V327L67 324ZM374 41Q444 41 499 74T587 177T620 352Q620 455 588 522T500 624T374 658Q342 658 299 654T208 639L217 382H403V339L217 331L208 61Q249 52 291 47T374 41Z" />
<glyph unicode="&#xd1;" glyph-name="Ntilde" horiz-adv-x="790" d="M65 0Q54 0 52 12T50 30L132 52V647L50 669Q50 674 52 687T65 700Q65 700 73 700T110 699T200 696L621 126L615 648L510 670Q510 676 512 688T526 700L647 696L735 700Q746 701 748 688T750
670L675 648L672 0H616L186 583L194 52L300 30Q300 24 298 12T284 0L163 4Q120 2 99 1T72 0T65 0ZM264 798L247 817Q273 861 298 876T348 892Q372 892 394 886T438 872T484 865Q501 865 516 873T546 895L563 876Q538 832 513 817T462 801Q438 801 416 808T372 821T326
828Q310 828 295 820T264 798Z" />
<glyph unicode="&#xd2;" glyph-name="Ograve" horiz-adv-x="747" d="M363 -12Q271 -12 198 28T82 150T40 354Q40 471 86 551T209 671T379 712Q470 712 544 674T662 558T707 363Q707 237 663 154T541 29T363 -12ZM373 36Q443 36 498 71T586 176T619 352Q619 455
587 522T499 624T373 658Q336 658 297 651T229 634Q183 599 156 524T128 352Q128 246 160 176T248 71T373 36ZM471 762Q453 767 418 778T344 807T270 845Q265 848 265 857Q265 867 270 881T281 908T290 924Q338 886 382 853T454 801T482 781L471 762Z" />
<glyph unicode="&#xd3;" glyph-name="Oacute" horiz-adv-x="747" d="M363 -12Q271 -12 198 28T82 150T40 354Q40 471 86 551T209 671T379 712Q470 712 544 674T662 558T707 363Q707 237 663 154T541 29T363 -12ZM373 36Q443 36 498 71T586 176T619 352Q619 455
587 522T499 624T373 658Q336 658 297 651T229 634Q183 599 156 524T128 352Q128 246 160 176T248 71T373 36ZM276 762L265 781Q265 781 293 800T365 853T457 924Q460 921 466 909T477 882T482 857Q482 848 477 845Q444 824 404 807T329 779T276 762Z" />
<glyph unicode="&#xd4;" glyph-name="Ocircumflex" horiz-adv-x="747" d="M363 -12Q271 -12 198 28T82 150T40 354Q40 471 86 551T209 671T379 712Q470 712 544 674T662 558T707 363Q707 237 663 154T541 29T363 -12ZM373 36Q443 36 498 71T586 176T619 352Q619
455 587 522T499 624T373 658Q336 658 297 651T229 634Q183 599 156 524T128 352Q128 246 160 176T248 71T373 36ZM277 753L251 770Q284 817 309 857T351 929H396Q413 897 438 857T496 770L470 753L374 855L277 753Z" />
<glyph unicode="&#xd5;" glyph-name="Otilde" horiz-adv-x="747" d="M363 -12Q271 -12 198 28T82 150T40 354Q40 471 86 551T209 671T379 712Q470 712 544 674T662 558T707 363Q707 237 663 154T541 29T363 -12ZM373 36Q443 36 498 71T586 176T619 352Q619 455
587 522T499 624T373 658Q336 658 297 651T229 634Q183 599 156 524T128 352Q128 246 160 176T248 71T373 36ZM233 798L216 817Q242 861 267 876T317 892Q341 892 363 886T407 872T453 865Q470 865 485 873T515 895L532 876Q507 832 482 817T431 801Q407 801 385
808T341 821T295 828Q279 828 264 820T233 798Z" />
<glyph unicode="&#xd6;" glyph-name="Odieresis" horiz-adv-x="747" d="M363 -12Q271 -12 198 28T82 150T40 354Q40 471 86 551T209 671T379 712Q470 712 544 674T662 558T707 363Q707 237 663 154T541 29T363 -12ZM373 36Q443 36 498 71T586 176T619 352Q619
455 587 522T499 624T373 658Q336 658 297 651T229 634Q183 599 156 524T128 352Q128 246 160 176T248 71T373 36ZM447 791Q428 791 422 806T416 841Q416 861 419 877T423 894Q423 894 439 897T469 900Q486 900 492 885T499 850Q499 831 496 815T493 799Q493 799
477 795T447 791ZM279 791Q260 791 254 806T248 841Q248 861 251 877T255 894Q255 894 271 897T301 900Q318 900 324 885T331 850Q331 831 328 815T325 799Q325 799 309 795T279 791Z" />
<glyph unicode="&#xd7;" glyph-name="multiply" horiz-adv-x="510" d="M132 115L92 155L214 277L92 400L132 440L254 317L377 440L417 400L294 277L417 155L377 115L254 237L132 115Z" />
<glyph unicode="&#xd8;" glyph-name="Oslash" horiz-adv-x="727" d="M170 -50L200 22Q123 60 77 143T30 354Q30 471 76 551T199 671T369 712Q428 712 480 696L503 750H557L527 677Q603 640 650 562T697 363Q697 237 653 154T531 29T353 -12Q296 -12 246 3L224
-50H170ZM118 352Q118 253 147 185T224 80L457 640Q414 658 363 658Q326 658 287 651T219 634Q173 599 146 524T118 352ZM363 36Q433 36 488 71T576 176T609 352Q609 449 580 514T501 616L268 55Q311 36 363 36Z" />
<glyph unicode="&#xd9;" glyph-name="Ugrave" horiz-adv-x="733" d="M380 -12Q258 -12 186 42T114 218V648L40 669Q40 674 42 687T55 700L156 696Q226 699 248 699T271 700Q283 700 285 688T287 670L192 648V215Q192 140 236 92T382 43Q449 43 491 67T554 132T575
216V648L480 670Q480 675 482 688T496 700L605 696Q641 698 657 698T678 699T683 700Q694 700 696 688T698 670L633 648V218Q633 150 603 98T517 17T380 -12ZM494 762Q476 767 441 778T367 807T293 845Q288 848 288 857Q288 867 293 881T304 908T313 924Q361 886
405 853T477 801T505 781L494 762Z" />
<glyph unicode="&#xda;" glyph-name="Uacute" horiz-adv-x="733" d="M380 -12Q258 -12 186 42T114 218V648L40 669Q40 674 42 687T55 700L156 696Q226 699 248 699T271 700Q283 700 285 688T287 670L192 648V215Q192 140 236 92T382 43Q449 43 491 67T554 132T575
216V648L480 670Q480 675 482 688T496 700L605 696Q641 698 657 698T678 699T683 700Q694 700 696 688T698 670L633 648V218Q633 150 603 98T517 17T380 -12ZM299 762L288 781Q288 781 316 800T388 853T480 924Q483 921 489 909T500 882T505 857Q505 848 500 845Q467
824 427 807T352 779T299 762Z" />
<glyph unicode="&#xdb;" glyph-name="Ucircumflex" horiz-adv-x="733" d="M380 -12Q258 -12 186 42T114 218V648L40 669Q40 674 42 687T55 700L156 696Q226 699 248 699T271 700Q283 700 285 688T287 670L192 648V215Q192 140 236 92T382 43Q449 43 491 67T554
132T575 216V648L480 670Q480 675 482 688T496 700L605 696Q641 698 657 698T678 699T683 700Q694 700 696 688T698 670L633 648V218Q633 150 603 98T517 17T380 -12ZM300 753L274 770Q307 817 332 857T374 929H419Q436 897 461 857T519 770L493 753L397 855L300
753Z" />
<glyph unicode="&#xdc;" glyph-name="Udieresis" horiz-adv-x="733" d="M380 -12Q258 -12 186 42T114 218V648L40 669Q40 674 42 687T55 700L156 696Q226 699 248 699T271 700Q283 700 285 688T287 670L192 648V215Q192 140 236 92T382 43Q449 43 491 67T554 132T575
216V648L480 670Q480 675 482 688T496 700L605 696Q641 698 657 698T678 699T683 700Q694 700 696 688T698 670L633 648V218Q633 150 603 98T517 17T380 -12ZM470 791Q451 791 445 806T439 841Q439 861 442 877T446 894Q446 894 462 897T492 900Q509 900 515 885T522
850Q522 831 519 815T516 799Q516 799 500 795T470 791ZM302 791Q283 791 277 806T271 841Q271 861 274 877T278 894Q278 894 294 897T324 900Q341 900 347 885T354 850Q354 831 351 815T348 799Q348 799 332 795T302 791Z" />
<glyph unicode="&#xdd;" glyph-name="Yacute" horiz-adv-x="580" d="M169 0Q158 0 156 12T154 30L259 52V277L65 648L0 670Q0 675 2 687T15 700Q15 700 21 700T48 699T112 696L217 700Q228 701 230 689T232 670L147 648L307 321L450 648L368 670Q368 676 370 688T383
700L487 696Q537 698 551 699T565 700V700Q565 700 565 700T565 700Q576 699 578 687T580 670L515 648L337 279V52L442 30Q442 25 440 13T427 0Q427 0 399 0T301 4Q231 1 200 1T169 0ZM211 762L200 781Q200 781 228 800T300 853T392 924Q395 921 401 909T412 882T417
857Q417 848 412 845Q379 824 339 807T264 779T211 762Z" />
<glyph unicode="&#xde;" glyph-name="Thorn" horiz-adv-x="562" d="M65 0Q54 0 52 12T50 30L136 52L131 350L136 648L50 670Q50 675 52 687T65 700Q65 700 73 700T106 699T177 696Q224 698 245 699T273 700T280 700Q291 700 293 688T295 670L209 648Q209 629 209
611T210 573L325 576Q390 576 436 549T507 476T532 373Q532 321 505 275T422 197T281 161L211 157L209 52L295 30Q295 25 293 13T280 0Q280 0 274 0T246 1T177 4Q130 2 106 1T74 0T65 0ZM289 203Q350 203 387 228T442 293T460 374Q460 414 444 450T394 510T307
534L211 524L214 350L212 208L250 205Q260 204 269 204T289 203Z" />
<glyph unicode="&#xdf;" glyph-name="germandbls" horiz-adv-x="606" d="M421 -12Q385 -12 345 -6T264 14Q264 20 267 40T274 85T281 127T285 145Q289 145 297 145T314 141T322 131V57Q344 44 370 39T427 33Q465 33 491 47T517 97Q517 115 506 132T467 166L351
233Q280 274 280 346Q280 378 299 413T343 485T388 554T407 614Q407 649 385 673T328 709T253 722Q228 718 204 689T180 618Q180 579 183 536T187 456V5L44 0Q34 0 32 13T30 30L116 52V409H55Q48 409 45 417T42 435T41 448L116 460Q116 533 125 593T162 695T243
758Q330 758 381 739T454 687T476 614Q476 590 462 564T428 510T388 455T353 403T339 357Q339 321 376 300L501 227Q545 202 565 171T586 108Q586 49 541 19T421 -12Z" />
<glyph unicode="&#xe0;" glyph-name="agrave" horiz-adv-x="496" d="M157 -12Q107 -12 79 22T50 102Q50 139 75 172T159 228T318 259V319Q318 369 288 399T209 430Q175 392 147 370T103 348Q92 348 79 367T64 406Q110 428 155 444T237 468Q310 468 349 430T389
322V67Q389 31 432 31Q444 31 462 34Q471 25 471 9Q434 -12 400 -12Q367 -12 346 4T320 52Q262 22 219 5T157 -12ZM178 41Q209 41 247 55T318 91V226Q252 218 204 200T131 160Q127 150 125 138T122 114Q122 85 135 63T178 41ZM345 518Q327 523 292 534T218 563T144
601Q139 604 139 613Q139 623 144 637T155 664T164 680Q212 642 256 609T328 557T356 537L345 518Z" />
<glyph unicode="&#xe1;" glyph-name="aacute" horiz-adv-x="496" d="M157 -12Q107 -12 79 22T50 102Q50 139 75 172T159 228T318 259V319Q318 369 288 399T209 430Q175 392 147 370T103 348Q92 348 79 367T64 406Q110 428 155 444T237 468Q310 468 349 430T389
322V67Q389 31 432 31Q444 31 462 34Q471 25 471 9Q434 -12 400 -12Q367 -12 346 4T320 52Q262 22 219 5T157 -12ZM178 41Q209 41 247 55T318 91V226Q252 218 204 200T131 160Q127 150 125 138T122 114Q122 85 135 63T178 41ZM150 518L139 537Q139 537 167 556T239
609T331 680Q334 677 340 665T351 638T356 613Q356 604 351 601Q318 580 278 563T203 535T150 518Z" />
<glyph unicode="&#xe2;" glyph-name="acircumflex" horiz-adv-x="496" d="M157 -12Q107 -12 79 22T50 102Q50 139 75 172T159 228T318 259V319Q318 369 288 399T209 430Q175 392 147 370T103 348Q92 348 79 367T64 406Q110 428 155 444T237 468Q310 468 349 430T389
322V67Q389 31 432 31Q444 31 462 34Q471 25 471 9Q434 -12 400 -12Q367 -12 346 4T320 52Q262 22 219 5T157 -12ZM178 41Q209 41 247 55T318 91V226Q252 218 204 200T131 160Q127 150 125 138T122 114Q122 85 135 63T178 41ZM151 509L125 526Q158 573 183 613T225
685H270Q287 653 312 613T370 526L344 509L248 611L151 509Z" />
<glyph unicode="&#xe3;" glyph-name="atilde" horiz-adv-x="496" d="M157 -12Q107 -12 79 22T50 102Q50 139 75 172T159 228T318 259V319Q318 369 288 399T209 430Q175 392 147 370T103 348Q92 348 79 367T64 406Q110 428 155 444T237 468Q310 468 349 430T389
322V67Q389 31 432 31Q444 31 462 34Q471 25 471 9Q434 -12 400 -12Q367 -12 346 4T320 52Q262 22 219 5T157 -12ZM178 41Q209 41 247 55T318 91V226Q252 218 204 200T131 160Q127 150 125 138T122 114Q122 85 135 63T178 41ZM107 554L90 573Q116 617 141 632T191
648Q215 648 237 642T281 628T327 621Q344 621 359 629T389 651L406 632Q381 588 356 573T305 557Q281 557 259 564T215 577T169 584Q153 584 138 576T107 554Z" />
<glyph unicode="&#xe4;" glyph-name="adieresis" horiz-adv-x="496" d="M157 -12Q107 -12 79 22T50 102Q50 139 75 172T159 228T318 259V319Q318 369 288 399T209 430Q175 392 147 370T103 348Q92 348 79 367T64 406Q110 428 155 444T237 468Q310 468 349 430T389
322V67Q389 31 432 31Q444 31 462 34Q471 25 471 9Q434 -12 400 -12Q367 -12 346 4T320 52Q262 22 219 5T157 -12ZM178 41Q209 41 247 55T318 91V226Q252 218 204 200T131 160Q127 150 125 138T122 114Q122 85 135 63T178 41ZM321 547Q302 547 296 562T290 597Q290
617 293 633T297 650Q297 650 313 653T343 656Q360 656 366 641T373 606Q373 587 370 571T367 555Q367 555 351 551T321 547ZM153 547Q134 547 128 562T122 597Q122 617 125 633T129 650Q129 650 145 653T175 656Q192 656 198 641T205 606Q205 587 202 571T199
555Q199 555 183 551T153 547Z" />
<glyph unicode="&#xe5;" glyph-name="aring" horiz-adv-x="496" d="M157 -12Q107 -12 79 22T50 102Q50 139 75 172T159 228T318 259V319Q318 369 288 399T209 430Q175 392 147 370T103 348Q92 348 79 367T64 406Q110 428 155 444T237 468Q310 468 349 430T389
322V67Q389 31 432 31Q444 31 462 34Q471 25 471 9Q434 -12 400 -12Q367 -12 346 4T320 52Q262 22 219 5T157 -12ZM178 41Q209 41 247 55T318 91V226Q252 218 204 200T131 160Q127 150 125 138T122 114Q122 85 135 63T178 41ZM245 515Q207 515 181 537T155 604Q155
646 183 668T249 691Q287 691 313 670T340 606Q340 560 314 538T245 515ZM248 548Q268 548 281 561T294 604Q294 630 281 644T248 658Q231 658 221 653Q211 649 206 635T201 604Q201 575 215 562T248 548Z" />
<glyph unicode="&#xe6;" glyph-name="ae" horiz-adv-x="731" d="M153 -12Q119 -12 97 4T62 47T50 102Q50 139 76 174T162 234T318 261V319Q318 366 289 398T209 430Q199 419 180 399T141 364T103 348Q92 348 84 359T70 384T64 406Q64 406 88 418T151 444T237 468Q251
468 262 467T285 463Q318 456 340 438T374 395Q439 468 551 468Q608 468 642 436T691 353T706 245Q630 232 554 227T389 224Q389 124 432 80T545 36Q600 36 660 61Q673 49 677 31Q637 5 600 -3T528 -12Q473 -12 428 7T353 66Q280 16 232 2T153 -12ZM392 262Q450
263 507 268T622 283Q625 301 625 317Q625 364 600 392T523 420Q512 420 500 419T475 415Q443 393 422 355T392 262ZM187 44Q216 44 251 56T318 91V224Q252 216 204 199T131 160Q126 140 126 120Q126 91 139 68T187 44Z" />
<glyph unicode="&#xe7;" glyph-name="ccedilla" horiz-adv-x="435" d="M263 -12Q160 -12 100 53T40 230Q40 299 69 352T150 437T268 468Q295 466 332 456T397 435Q397 414 385 393T360 372Q352 372 333 381T292 405T253 435Q118 393 118 231Q118 140 160 88T276
36Q325 36 385 61Q393 54 396 48T403 31Q335 -12 263 -12ZM221 -233Q192 -233 171 -224T135 -202L154 -172Q178 -191 209 -191Q234 -191 247 -176T261 -142Q261 -121 243 -103T185 -83L225 15H257L234 -56Q281 -62 302 -87T324 -141Q324 -175 296 -204T221 -233Z"
/>
<glyph unicode="&#xe8;" glyph-name="egrave" horiz-adv-x="469" d="M256 -12Q156 -12 98 47T40 209Q40 289 69 347T152 436T279 468Q351 468 392 409T434 245Q370 233 309 228T184 222Q152 222 117 225Q117 134 157 85T273 36Q336 36 400 68Q413 55 417 38Q388
16 343 2T256 -12ZM120 262Q236 264 350 283Q353 301 353 317Q353 367 327 393T251 420Q238 420 226 419T203 415Q134 369 120 262ZM345 518Q327 523 292 534T218 563T144 601Q139 604 139 613Q139 623 144 637T155 664T164 680Q212 642 256 609T328 557T356 537L345
518Z" />
<glyph unicode="&#xe9;" glyph-name="eacute" horiz-adv-x="469" d="M256 -12Q156 -12 98 47T40 209Q40 289 69 347T152 436T279 468Q351 468 392 409T434 245Q370 233 309 228T184 222Q152 222 117 225Q117 134 157 85T273 36Q336 36 400 68Q413 55 417 38Q388
16 343 2T256 -12ZM120 262Q236 264 350 283Q353 301 353 317Q353 367 327 393T251 420Q238 420 226 419T203 415Q134 369 120 262ZM150 518L139 537Q139 537 167 556T239 609T331 680Q334 677 340 665T351 638T356 613Q356 604 351 601Q318 580 278 563T203 535T150
518Z" />
<glyph unicode="&#xea;" glyph-name="ecircumflex" horiz-adv-x="469" d="M256 -12Q156 -12 98 47T40 209Q40 289 69 347T152 436T279 468Q351 468 392 409T434 245Q370 233 309 228T184 222Q152 222 117 225Q117 134 157 85T273 36Q336 36 400 68Q413 55 417
38Q388 16 343 2T256 -12ZM120 262Q236 264 350 283Q353 301 353 317Q353 367 327 393T251 420Q238 420 226 419T203 415Q134 369 120 262ZM151 509L125 526Q158 573 183 613T225 685H270Q287 653 312 613T370 526L344 509L248 611L151 509Z" />
<glyph unicode="&#xeb;" glyph-name="edieresis" horiz-adv-x="469" d="M256 -12Q156 -12 98 47T40 209Q40 289 69 347T152 436T279 468Q351 468 392 409T434 245Q370 233 309 228T184 222Q152 222 117 225Q117 134 157 85T273 36Q336 36 400 68Q413 55 417 38Q388
16 343 2T256 -12ZM120 262Q236 264 350 283Q353 301 353 317Q353 367 327 393T251 420Q238 420 226 419T203 415Q134 369 120 262ZM321 547Q302 547 296 562T290 597Q290 617 293 633T297 650Q297 650 313 653T343 656Q360 656 366 641T373 606Q373 587 370 571T367
555Q367 555 351 551T321 547ZM153 547Q134 547 128 562T122 597Q122 617 125 633T129 650Q129 650 145 653T175 656Q192 656 198 641T205 606Q205 587 202 571T199 555Q199 555 183 551T153 547Z" />
<glyph unicode="&#xec;" glyph-name="igrave" horiz-adv-x="303" d="M54 0Q44 -1 42 12T40 30L126 52V410H55Q48 410 45 418T42 435T41 447Q41 447 60 450T105 458T153 465T181 468Q186 465 191 458T197 440V52L283 30Q283 26 282 13T269 0L162 4L54 0ZM505 518Q487
523 452 534T378 563T304 601Q299 604 299 613Q299 623 304 637T315 664T324 680Q372 642 416 609T488 557T516 537L505 518Z" />
<glyph unicode="&#xed;" glyph-name="iacute" horiz-adv-x="303" d="M54 0Q44 -1 42 12T40 30L126 52V410H55Q48 410 45 418T42 435T41 447Q41 447 60 450T105 458T153 465T181 468Q186 465 191 458T197 440V52L283 30Q283 26 282 13T269 0L162 4L54 0ZM310 518L299
537Q299 537 327 556T399 609T491 680Q494 677 500 665T511 638T516 613Q516 604 511 601Q478 580 438 563T363 535T310 518Z" />
<glyph unicode="&#xee;" glyph-name="icircumflex" horiz-adv-x="303" d="M54 0Q44 -1 42 12T40 30L126 52V410H55Q48 410 45 418T42 435T41 447Q41 447 60 450T105 458T153 465T181 468Q186 465 191 458T197 440V52L283 30Q283 26 282 13T269 0L162 4L54 0ZM311
509L285 526Q318 573 343 613T385 685H430Q447 653 472 613T530 526L504 509L408 611L311 509Z" />
<glyph unicode="&#xef;" glyph-name="idieresis" horiz-adv-x="303" d="M54 0Q44 -1 42 12T40 30L126 52V410H55Q48 410 45 418T42 435T41 447Q41 447 60 450T105 458T153 465T181 468Q186 465 191 458T197 440V52L283 30Q283 26 282 13T269 0L162 4L54 0ZM481
547Q462 547 456 562T450 597Q450 617 453 633T457 650Q457 650 473 653T503 656Q520 656 526 641T533 606Q533 587 530 571T527 555Q527 555 511 551T481 547ZM313 547Q294 547 288 562T282 597Q282 617 285 633T289 650Q289 650 305 653T335 656Q352 656 358
641T365 606Q365 587 362 571T359 555Q359 555 343 551T313 547Z" />
<glyph unicode="&#xf0;" glyph-name="eth" d="M254 -12Q193 -12 145 15T68 95T40 230Q40 308 70 361T152 441T265 468Q322 468 364 441Q326 515 263 576L161 518L136 566L225 611Q197 634 168 654T109 693L131 731Q164 713 200 689T273 635L390 695L409 659L310
602Q357 558 396 503T458 381T482 236Q482 153 453 98T372 15T254 -12ZM263 32Q325 32 365 81T405 231Q405 328 365 376T263 424Q241 424 218 420T178 409Q150 387 134 339T118 231Q118 131 160 82T263 32Z" />
<glyph unicode="&#xf1;" glyph-name="ntilde" horiz-adv-x="596" d="M54 0Q44 0 42 13T40 30L126 52V398H54Q47 398 44 406T41 423T40 435Q40 435 57 438T97 446T140 453T166 456Q175 456 181 445T197 393Q197 393 217 406T272 438T347 468Q422 468 453 427T485
322V52L571 30Q571 26 570 13T557 0L448 4L356 0Q346 0 344 12T342 30L414 52V319Q414 369 393 392T337 415Q283 415 216 371Q205 349 201 330T197 294V52L269 30Q269 25 267 13T255 0L163 4L54 0ZM157 554L140 573Q166 617 191 632T241 648Q265 648 287 642T331
628T377 621Q394 621 409 629T439 651L456 632Q431 588 406 573T355 557Q331 557 309 564T265 577T219 584Q203 584 188 576T157 554Z" />
<glyph unicode="&#xf2;" glyph-name="ograve" d="M254 -12Q193 -12 145 15T68 95T40 230Q40 308 70 361T152 441T265 468Q325 468 374 443T452 366T482 236Q482 153 453 98T372 15T254 -12ZM261 32Q322 32 363 81T404 231Q404 328 363 376T261 424Q239 424 216
420T177 409Q149 387 134 339T118 231Q118 131 159 82T261 32ZM358 518Q340 523 305 534T231 563T157 601Q152 604 152 613Q152 623 157 637T168 664T177 680Q225 642 269 609T341 557T369 537L358 518Z" />
<glyph unicode="&#xf3;" glyph-name="oacute" d="M254 -12Q193 -12 145 15T68 95T40 230Q40 308 70 361T152 441T265 468Q325 468 374 443T452 366T482 236Q482 153 453 98T372 15T254 -12ZM261 32Q322 32 363 81T404 231Q404 328 363 376T261 424Q239 424 216
420T177 409Q149 387 134 339T118 231Q118 131 159 82T261 32ZM163 518L152 537Q152 537 180 556T252 609T344 680Q347 677 353 665T364 638T369 613Q369 604 364 601Q331 580 291 563T216 535T163 518Z" />
<glyph unicode="&#xf4;" glyph-name="ocircumflex" d="M254 -12Q193 -12 145 15T68 95T40 230Q40 308 70 361T152 441T265 468Q325 468 374 443T452 366T482 236Q482 153 453 98T372 15T254 -12ZM261 32Q322 32 363 81T404 231Q404 328 363 376T261 424Q239 424
216 420T177 409Q149 387 134 339T118 231Q118 131 159 82T261 32ZM164 509L138 526Q171 573 196 613T238 685H283Q300 653 325 613T383 526L357 509L261 611L164 509Z" />
<glyph unicode="&#xf5;" glyph-name="otilde" d="M254 -12Q193 -12 145 15T68 95T40 230Q40 308 70 361T152 441T265 468Q325 468 374 443T452 366T482 236Q482 153 453 98T372 15T254 -12ZM261 32Q322 32 363 81T404 231Q404 328 363 376T261 424Q239 424 216
420T177 409Q149 387 134 339T118 231Q118 131 159 82T261 32ZM120 554L103 573Q129 617 154 632T204 648Q228 648 250 642T294 628T340 621Q357 621 372 629T402 651L419 632Q394 588 369 573T318 557Q294 557 272 564T228 577T182 584Q166 584 151 576T120 554Z"
/>
<glyph unicode="&#xf6;" glyph-name="odieresis" d="M254 -12Q193 -12 145 15T68 95T40 230Q40 308 70 361T152 441T265 468Q325 468 374 443T452 366T482 236Q482 153 453 98T372 15T254 -12ZM261 32Q322 32 363 81T404 231Q404 328 363 376T261 424Q239 424
216 420T177 409Q149 387 134 339T118 231Q118 131 159 82T261 32ZM334 547Q315 547 309 562T303 597Q303 617 306 633T310 650Q310 650 326 653T356 656Q373 656 379 641T386 606Q386 587 383 571T380 555Q380 555 364 551T334 547ZM166 547Q147 547 141 562T135
597Q135 617 138 633T142 650Q142 650 158 653T188 656Q205 656 211 641T218 606Q218 587 215 571T212 555Q212 555 196 551T166 547Z" />
<glyph unicode="&#xf7;" glyph-name="divide" horiz-adv-x="510" d="M255 362Q239 362 227 374T215 402Q215 419 227 431T255 443Q272 443 284 431T296 402Q296 386 284 374T255 362ZM73 249V306H437V249H73ZM255 112Q239 112 227 124T215 152Q215 169 227 181T255
193Q272 193 284 181T296 152Q296 136 284 124T255 112Z" />
<glyph unicode="&#xf8;" glyph-name="oslash" d="M254 -12Q193 -12 145 15T68 95T40 230Q40 308 70 361T152 441T265 468Q325 468 374 443T452 366T482 236Q482 153 453 98T372 15T254 -12ZM261 32Q322 32 363 81T404 231Q404 328 363 376T261 424Q239 424 216
420T177 409Q149 387 134 339T118 231Q118 131 159 82T261 32ZM68 -92L401 548H455L122 -92H68Z" />
<glyph unicode="&#xf9;" glyph-name="ugrave" horiz-adv-x="563" d="M238 -12Q161 -12 131 30T100 137V410H29Q22 410 19 418T16 435T15 447Q15 447 34 450T79 458T127 465T155 468Q160 465 165 458T171 440V131Q171 96 183 76T214 49T249 41Q284 41 321 57T392
97V410H321Q314 410 311 418T308 435T307 447Q307 447 326 450T371 458T419 465T447 468Q452 465 457 458T463 440V67Q463 49 472 40T506 31Q518 31 536 34Q541 29 543 22T545 9Q511 -12 474 -12Q446 -12 423 3T394 52Q335 17 291 3T238 -12ZM379 518Q361 523 326
534T252 563T178 601Q173 604 173 613Q173 623 178 637T189 664T198 680Q246 642 290 609T362 557T390 537L379 518Z" />
<glyph unicode="&#xfa;" glyph-name="uacute" horiz-adv-x="563" d="M238 -12Q161 -12 131 30T100 137V410H29Q22 410 19 418T16 435T15 447Q15 447 34 450T79 458T127 465T155 468Q160 465 165 458T171 440V131Q171 96 183 76T214 49T249 41Q284 41 321 57T392
97V410H321Q314 410 311 418T308 435T307 447Q307 447 326 450T371 458T419 465T447 468Q452 465 457 458T463 440V67Q463 49 472 40T506 31Q518 31 536 34Q541 29 543 22T545 9Q511 -12 474 -12Q446 -12 423 3T394 52Q335 17 291 3T238 -12ZM184 518L173 537Q173
537 201 556T273 609T365 680Q368 677 374 665T385 638T390 613Q390 604 385 601Q352 580 312 563T237 535T184 518Z" />
<glyph unicode="&#xfb;" glyph-name="ucircumflex" horiz-adv-x="563" d="M238 -12Q161 -12 131 30T100 137V410H29Q22 410 19 418T16 435T15 447Q15 447 34 450T79 458T127 465T155 468Q160 465 165 458T171 440V131Q171 96 183 76T214 49T249 41Q284 41 321
57T392 97V410H321Q314 410 311 418T308 435T307 447Q307 447 326 450T371 458T419 465T447 468Q452 465 457 458T463 440V67Q463 49 472 40T506 31Q518 31 536 34Q541 29 543 22T545 9Q511 -12 474 -12Q446 -12 423 3T394 52Q335 17 291 3T238 -12ZM185 509L159
526Q192 573 217 613T259 685H304Q321 653 346 613T404 526L378 509L282 611L185 509Z" />
<glyph unicode="&#xfc;" glyph-name="udieresis" horiz-adv-x="563" d="M238 -12Q161 -12 131 30T100 137V410H29Q22 410 19 418T16 435T15 447Q15 447 34 450T79 458T127 465T155 468Q160 465 165 458T171 440V131Q171 96 183 76T214 49T249 41Q284 41 321 57T392
97V410H321Q314 410 311 418T308 435T307 447Q307 447 326 450T371 458T419 465T447 468Q452 465 457 458T463 440V67Q463 49 472 40T506 31Q518 31 536 34Q541 29 543 22T545 9Q511 -12 474 -12Q446 -12 423 3T394 52Q335 17 291 3T238 -12ZM355 547Q336 547 330
562T324 597Q324 617 327 633T331 650Q331 650 347 653T377 656Q394 656 400 641T407 606Q407 587 404 571T401 555Q401 555 385 551T355 547ZM187 547Q168 547 162 562T156 597Q156 617 159 633T163 650Q163 650 179 653T209 656Q226 656 232 641T239 606Q239
587 236 571T233 555Q233 555 217 551T187 547Z" />
<glyph unicode="&#xfd;" glyph-name="yacute" horiz-adv-x="441" d="M99 -262Q80 -262 42 -241Q42 -241 53 -223T82 -175T120 -111T159 -46T191 7L37 404L-10 426Q-10 431 -7 443T4 456L82 452L155 456Q164 456 166 444T169 426L107 406L226 100L335 406L273 426Q273
430 274 443T286 456L355 452L417 456Q426 456 428 444T431 426L384 404L236 0L126 -243Q118 -262 99 -262ZM123 518L112 537Q112 537 140 556T212 609T304 680Q307 677 313 665T324 638T329 613Q329 604 324 601Q291 580 251 563T176 535T123 518Z" />
<glyph unicode="&#xfe;" glyph-name="thorn" horiz-adv-x="562" d="M34 -250Q24 -251 22 -238T20 -220L106 -198V704H32Q25 704 22 712T19 729T18 741Q18 741 37 744T83 752T132 759T161 762Q166 759 171 752T177 734Q176 650 175 566T173 397L177 393Q177 393
195 406T245 437T312 468Q370 468 417 441T493 361T522 228Q522 143 493 90T415 13T306 -12Q284 -12 260 -7T209 11L221 45Q240 38 256 35T289 31Q358 31 401 76T444 226Q444 313 407 361T309 409Q284 409 256 400T196 371Q186 348 182 328T177 279V-198L289 -220Q289
-226 287 -238T275 -250L143 -246L34 -250Z" />
<glyph unicode="&#xff;" glyph-name="ydieresis" horiz-adv-x="441" d="M99 -262Q80 -262 42 -241Q42 -241 53 -223T82 -175T120 -111T159 -46T191 7L37 404L-10 426Q-10 431 -7 443T4 456L82 452L155 456Q164 456 166 444T169 426L107 406L226 100L335 406L273
426Q273 430 274 443T286 456L355 452L417 456Q426 456 428 444T431 426L384 404L236 0L126 -243Q118 -262 99 -262ZM294 547Q275 547 269 562T263 597Q263 617 266 633T270 650Q270 650 286 653T316 656Q333 656 339 641T346 606Q346 587 343 571T340 555Q340
555 324 551T294 547ZM126 547Q107 547 101 562T95 597Q95 617 98 633T102 650Q102 650 118 653T148 656Q165 656 171 641T178 606Q178 587 175 571T172 555Q172 555 156 551T126 547Z" />
<glyph unicode="&#x2013;" glyph-name="endash" horiz-adv-x="591" d="M125 225V281H486V225H125Z" />
<glyph unicode="&#x2014;" glyph-name="emdash" horiz-adv-x="839" d="M125 225V281H734V225H125Z" />
<glyph unicode="&#x2018;" glyph-name="quoteleft" horiz-adv-x="204" d="M77 476Q57 476 44 506T31 585Q31 622 48 654T96 709T164 739L173 710Q136 699 114 673T91 612V607Q96 608 99 608T107 608Q144 608 144 548Q144 534 142 518T136 483Q123 480 107 478T77 476Z" />
<glyph unicode="&#x2019;" glyph-name="quoteright" horiz-adv-x="204" d="M40 467L31 496Q69 507 91 533T113 594V599Q108 598 105 598T97 598Q60 598 60 658Q60 672 62 688T68 723Q82 726 98 728T127 730Q147 730 160 700T173 621Q173 584 156 552T108 497T40 467Z" />
<glyph unicode="&#x201a;" glyph-name="quotesinglbase" horiz-adv-x="197" d="M28 -142L19 -113Q57 -102 79 -76T101 -15V-10Q96 -11 93 -11T85 -11Q48 -11 48 49Q48 63 50 79T56 114Q70 117 86 119T115 121Q135 121 148 91T161 12Q161 -25 144 -57T96 -112T28 -142Z" />
<glyph unicode="&#x201c;" glyph-name="quotedblleft" horiz-adv-x="380" d="M253 476Q233 476 220 506T207 585Q207 622 224 654T272 709T340 739L349 710Q312 699 290 673T267 612V607Q272 608 275 608T283 608Q320 608 320 548Q320 534 318 518T312 483Q299
480 283 478T253 476ZM77 476Q57 476 44 506T31 585Q31 622 48 654T96 709T164 739L173 710Q136 699 114 673T91 612V607Q96 608 99 608T107 608Q144 608 144 548Q144 534 142 518T136 483Q123 480 107 478T77 476Z" />
<glyph unicode="&#x201d;" glyph-name="quotedblright" horiz-adv-x="380" d="M216 467L207 496Q245 507 267 533T289 594V599Q284 598 281 598T273 598Q236 598 236 658Q236 672 238 688T244 723Q258 726 274 728T303 730Q323 730 336 700T349 621Q349 584 332
552T284 497T216 467ZM40 467L31 496Q69 507 91 533T113 594V599Q108 598 105 598T97 598Q60 598 60 658Q60 672 62 688T68 723Q82 726 98 728T127 730Q147 730 160 700T173 621Q173 584 156 552T108 497T40 467Z" />
<glyph unicode="&#x201e;" glyph-name="quotedblbase" horiz-adv-x="380" d="M216 -142L207 -113Q245 -102 267 -76T289 -15V-10Q284 -11 281 -11T273 -11Q236 -11 236 49Q236 63 238 79T244 114Q258 117 274 119T303 121Q323 121 336 91T349 12Q349 -25 332 -57T284
-112T216 -142ZM40 -142L31 -113Q69 -102 91 -76T113 -15V-10Q108 -11 105 -11T97 -11Q60 -11 60 49Q60 63 62 79T68 114Q82 117 98 119T127 121Q147 121 160 91T173 12Q173 -25 156 -57T108 -112T40 -142Z" />
<glyph unicode="&#x2022;" glyph-name="bullet" horiz-adv-x="251" d="M105 186Q71 186 61 209T50 260Q50 289 56 314T62 339Q62 339 77 341T112 345T147 347Q178 347 189 325T201 271Q201 246 196 222T191 197Q191 197 177 195T142 189T105 186Z" />
<glyph unicode="&#x2039;" glyph-name="guilsinglleft" horiz-adv-x="297" d="M218 10L30 213V241L218 444L247 420L117 227L247 34L218 10Z" />
<glyph unicode="&#x203a;" glyph-name="guilsinglright" horiz-adv-x="297" d="M79 10L50 34L180 227L50 420L79 444L267 241V213L79 10Z" />
</font>
</defs>
</svg>
