<?xml version="1.0" standalone="no"?>
<!DOCTYPE svg PUBLIC "-//W3C//DTD SVG 1.1//EN" "http://www.w3.org/Graphics/SVG/1.1/DTD/svg11.dtd">
<svg xmlns="http://www.w3.org/2000/svg">
<defs >
<font id="TiltNeon" horiz-adv-x="532" ><font-face
    font-family="Tilt Neon"
    units-per-em="1000"
    panose-1="2 0 0 0 0 0 0 0 0 0"
    ascent="990"
    descent="-272"
    alphabetic="0" />
<glyph unicode=" " horiz-adv-x="215" />
<glyph unicode="!" horiz-adv-x="261" d="M177 640Q177 666 164 678T132 691T101 679T87 640Q87 620 87 602T87 569T87 539Q87 516 87 489T87 433T87 373Q87 358 87 346T87 320T87 285Q87 260 100 248T132 235T163 247T177 285Q177 307 177 318T177 341T177 372Q177
401 177 443T177 539Q177 553 177 568T177 602T177 640ZM89 36Q89 11 102 -2T134 -15T165 -2T179 36Q179 51 179 57T179 69T179 90Q179 115 166 127T134 140T103 128T89 90Q89 75 89 69T89 57T89 36Z" />
<glyph unicode="&quot;" horiz-adv-x="496" d="M103 438Q103 413 116 401T148 388T179 400T193 438Q193 470 193 506T193 577T193 640Q193 666 180 678T148 691T117 679T103 640Q103 612 103 577T103 506T103 438ZM303 438Q303 413 316 401T348 388T379 400T393
438Q393 462 393 488T393 541T393 593T393 640Q393 666 380 678T348 691T317 679T303 640Q303 612 303 577T303 506T303 438Z" />
<glyph unicode="#" horiz-adv-x="700" d="M300 638Q301 663 288 676T257 691T225 680T210 642Q209 611 207 583T201 523T195 449T186 348Q182 291 178 247T171 168T166 103T162 42Q161 17 174 4T205 -11T237 0T252 38Q254 68 256 97T261 162T268 240T276 340Q281
400 284 442T291 517T296 578T300 638ZM538 638Q539 663 526 676T495 691T463 680T448 642Q447 610 445 582T439 523T433 450T424 347Q420 290 417 247T410 168T405 103T400 43Q399 18 411 4T442 -11T474 0T490 37Q492 67 494 97T500 163T506 241T514 341Q519 400
522 442T529 516T534 576T538 638ZM615 417Q641 417 653 430T666 462T654 493T615 507Q592 507 573 507T535 507T500 507Q466 507 437 507T379 507T312 507T222 507Q208 507 188 507T142 507T85 507Q60 507 47 494T34 462T47 431T85 417Q113 417 136 417T179 417T222
417Q257 417 285 417T344 417T411 417T500 417Q512 417 531 417T572 417T615 417ZM615 173Q641 173 653 186T666 218T654 249T615 263Q575 263 543 263T478 263Q444 263 415 263T356 263T289 263T200 263Q188 263 172 263T134 263T85 263Q60 263 47 250T34 218T47
187T85 173Q111 173 130 173T166 173T200 173Q235 173 263 173T322 173T389 173T478 173Q493 173 514 173T561 173T615 173Z" />
<glyph unicode="$" horiz-adv-x="500" d="M321 726Q323 752 311 765T280 780T248 771T231 734Q227 677 241 641T281 583T334 550T386 534Q412 528 427 539T445 567T438 601T402 623Q372 629 352 633T316 641T286 645T257 647Q224 647 189 637T124 606T75 554T56
478Q56 430 81 398T148 343T241 299Q261 291 284 282T329 260T363 233T376 198Q376 175 363 160T328 135T284 121T239 116Q225 116 216 117T198 120T181 125T160 131T129 139Q109 143 95 137T75 119T70 92T82 66T113 50Q153 42 170 31T192 0T194 -53Q192 -78 204
-92T235 -107T267 -98T284 -61Q287 -15 278 17T252 71T214 106T170 127T129 139Q109 143 95 137T75 119T70 92T82 66T113 50Q143 44 163 40T197 32T226 28T256 26Q290 26 326 36T394 68T446 121T466 198Q466 249 440 282T371 338T275 383Q250 393 220 406T168 437T146
478Q146 508 167 525T218 549T276 557Q293 557 304 556T324 551T348 544T386 534Q412 528 427 539T445 567T438 601T402 623Q372 629 355 637T330 656T321 684T321 726Z" />
<glyph unicode="%" horiz-adv-x="1023" d="M710 4Q733 -6 750 1T774 24T775 58T746 86Q729 94 717 108T699 143T693 186Q693 217 703 241T734 278T784 292Q813 292 834 279T866 241T877 186Q877 163 871 144T852 109T821 86Q798 76 792 59T792 25T817 2T857 4Q907
25 937 73T967 186Q967 243 944 287T879 356T784 382Q731 382 690 357T626 287T603 186Q603 122 632 74T710 4ZM755 616Q769 638 764 656T744 683T710 689T679 664Q662 636 640 605T593 538T541 466Q507 419 474 372T412 282T360 208Q344 185 327 161T292 114T258
66Q243 45 247 27T265 -1T298 -10T332 14Q349 38 366 61T400 109T434 156Q456 188 485 230T548 319T615 414Q642 453 667 488T715 555T755 616ZM311 675Q288 685 271 678T247 654T245 621T275 593Q293 585 305 571T324 536T331 493Q331 462 320 438T288 401T238
387Q209 387 189 400T158 438T147 493Q147 516 153 536T171 571T200 593Q223 604 229 621T228 655T204 678T164 675Q116 653 87 606T57 493Q57 436 80 392T144 323T238 297Q291 297 332 322T397 392T421 493Q421 558 391 606T311 675Z" />
<glyph unicode="&amp;" horiz-adv-x="634" d="M415 578Q439 570 455 579T477 605T476 639T445 664Q408 676 373 683T302 690Q257 690 217 679T146 645T98 586T80 503Q80 461 99 425T154 361T245 318T368 303Q410 303 435 303T476 303T508 303T549 303Q574 303
586 316T599 348T587 379T549 393Q524 393 508 393T476 393T435 393T368 393Q297 393 241 379T145 338T84 271T63 180Q63 138 79 104T125 43T196 3T288 -11Q339 -11 380 4T452 46T499 112T516 198Q516 229 516 252T516 302T516 370Q516 386 516 401T516 434T516
471Q516 497 503 509T471 522T440 510T426 471Q426 450 426 428T426 370Q426 342 426 320T426 271T426 198Q426 169 416 147T388 109T345 87T288 79Q249 79 219 90T171 125T153 180Q153 214 169 237T215 275T283 296T368 303Q410 303 435 303T476 303T508 303T549
303Q574 303 586 316T599 348T587 379T549 393Q524 393 508 393T476 393T435 393T368 393Q334 393 305 397T250 411T208 433T180 463T170 503Q170 541 188 562T236 591T302 600Q321 600 339 598T377 590T415 578Z" />
<glyph unicode="&apos;" horiz-adv-x="297" d="M103 438Q103 413 116 401T148 388T179 400T193 438Q193 462 193 488T193 541T193 593T193 640Q193 666 180 678T148 691T117 679T103 640Q103 612 103 577T103 506T103 438Z" />
<glyph unicode="(" horiz-adv-x="452" d="M379 -179Q403 -186 419 -177T440 -150T436 -117T403 -93Q371 -84 340 -66T281 -22Q227 29 193 111T159 305Q159 418 193 499T281 632Q308 658 339 676T403 703Q427 710 436 726T440 760T419 786T379 789Q351 781 323
769T269 739T219 698Q155 637 112 539T69 305Q69 170 112 72T219 -88Q243 -110 269 -128T323 -158T379 -179Z" />
<glyph unicode=")" horiz-adv-x="452" d="M72 790Q48 797 32 788T12 761T15 728T48 704Q80 695 111 677T170 633Q224 582 258 501T292 306Q292 194 258 112T170 -21Q143 -47 112 -65T48 -92Q24 -99 16 -115T11 -149T32 -175T72 -178Q101 -170 128 -158T182 -127T232
-87Q297 -25 339 73T382 306Q382 441 340 539T232 699Q208 722 182 739T129 769T72 790Z" />
<glyph unicode="*" horiz-adv-x="614" d="M229 669Q216 691 198 695T165 691T144 665T151 625Q164 602 177 578T205 531T231 485T256 441Q269 418 282 395T308 349T335 303T361 257Q374 235 392 231T425 236T446 263T439 303Q426 326 413 348T387 394T360 440T334
485Q319 513 301 544T265 607T229 669ZM439 625Q451 647 446 665T425 691T391 696T361 669Q348 646 334 622T306 574T278 527T251 480Q238 458 226 436T201 391T177 346T151 302Q138 280 143 263T164 236T198 231T229 258Q246 288 262 317T295 376T329 436Q346
466 365 498T403 562T439 625ZM505 419Q531 419 543 432T556 464T544 495T505 509Q462 509 408 509T295 509T183 509T85 509Q60 509 47 496T34 464T47 433T85 419Q128 419 182 419T295 419T407 419T505 419Z" />
<glyph unicode="+" horiz-adv-x="540" d="M315 504Q315 530 302 542T270 555T239 543T225 504Q225 465 225 417T225 316T225 211T225 114Q225 89 238 76T270 63T301 76T315 114Q315 167 315 235T315 374T315 504ZM460 263Q486 263 498 276T511 308T499 339T460
353Q416 353 366 353T266 353T168 353T80 353Q55 353 42 340T29 308T42 277T80 263Q131 263 195 263T328 263T460 263Z" />
<glyph unicode="," horiz-adv-x="269" d="M68 -86Q53 -112 57 -131T78 -159T112 -164T144 -137Q165 -101 176 -65T189 5T181 66T149 114Q130 131 111 130T78 114T66 80T90 39Q105 25 105 6T94 -37T68 -86Z" />
<glyph unicode="-" horiz-adv-x="340" d="M265 263Q291 263 303 276T316 308T304 339T265 353Q230 353 196 353T132 353T75 353Q50 353 37 340T24 308T37 277T75 263Q101 263 132 263T197 263T265 263Z" />
<glyph unicode="." horiz-adv-x="260" d="M89 36Q89 11 102 -2T134 -15T165 -2T179 36Q179 51 179 57T179 69T179 90Q179 115 166 127T134 140T103 128T89 90Q89 75 89 69T89 57T89 36Z" />
<glyph unicode="/" horiz-adv-x="490" d="M421 716Q429 740 420 756T394 778T360 776T335 744Q328 723 321 702T307 659T293 616Q247 474 200 331T105 45Q92 7 80 -30T55 -106Q48 -130 57 -146T83 -168T116 -166T141 -134Q149 -109 157 -84T174 -34T191 17Q223
116 255 213T318 403T379 588Q390 620 400 652T421 716Z" />
<glyph unicode="0" horiz-adv-x="592" d="M338 86Q314 79 306 62T302 28T324 2T364 0Q398 10 423 29T471 75Q508 120 530 188T552 341Q552 446 519 524T429 646T296 690Q221 690 163 647T73 524T40 341Q40 257 62 189T121 75Q143 49 168 30T228 0Q252 -7 268 2T289
28T287 62T254 86Q234 92 219 104T191 133Q172 156 158 188T137 259T130 341Q130 414 149 472T206 565T296 600Q335 600 366 580T418 525T450 443T462 341Q462 298 455 259T434 188T401 133Q388 117 373 105T338 86Z" />
<glyph unicode="1" horiz-adv-x="344" d="M47 631Q24 621 18 604T19 570T43 547T83 549Q111 560 127 565T154 572T171 574Q174 574 175 573T176 565T176 548T175 518T174 470Q174 432 174 399T174 330T174 255T174 165Q174 145 174 124T174 82T174 40Q174 14 187
2T219 -11T250 2T264 40Q264 61 264 78T264 115T264 165Q264 199 264 230T264 295T264 372T264 470Q264 539 263 578T255 637T235 661T199 667Q179 667 152 662T97 649T47 631Z" />
<glyph unicode="2" horiz-adv-x="505" d="M80 656Q57 646 51 629T52 595T76 571T116 574Q145 586 177 593T242 600Q272 600 300 590T348 559T367 502Q367 457 336 416T257 322Q234 296 211 271T166 221T121 172T76 124Q60 106 55 85T56 45T83 13T139 0Q175 0 200
0T246 0T286 0T327 0Q347 0 359 0T384 0T422 0Q447 0 459 13T472 45T460 76T422 90Q401 90 390 90T368 90T336 90Q304 90 279 90T233 90T197 90Q186 90 182 93T179 101T189 115Q210 136 243 172T324 262Q369 312 398 350T442 424T457 502Q457 568 425 609T342 670T239
690Q193 690 154 681T80 656Z" />
<glyph unicode="3" horiz-adv-x="488" d="M108 106Q85 116 68 109T44 85T42 51T72 23Q97 12 123 5T177 -5T233 -9Q278 -9 318 7T389 51T437 116T455 196Q455 246 438 281T392 339T331 375T267 392Q240 395 223 403T192 418T167 423T139 402Q121 381 114 365T110
336T124 317T154 309Q167 308 183 321T217 353T249 393T276 426Q290 443 309 464T352 512T401 569Q417 588 425 604T434 635T427 659T401 674T355 680Q318 680 281 680T208 680T143 680T91 680Q66 680 53 667T40 635T53 604T91 590Q105 590 130 590T186 590T243
590T289 590Q297 590 311 582T342 566T374 557T401 569Q417 588 425 604T434 635T427 659T401 674T355 680Q320 680 306 672T290 652T292 625T300 600T298 581Q292 574 278 558T246 522T207 479T170 437T139 402Q121 381 114 365T110 336T124 317T154 309Q171 308
187 307T221 305T257 302Q274 300 292 294T327 275T354 244T365 196Q365 163 347 137T298 96T233 81Q200 81 169 87T108 106Z" />
<glyph unicode="4" horiz-adv-x="525" d="M472 166Q498 166 510 179T523 211T511 242T472 256Q443 256 411 256T345 256T282 256T227 256Q209 256 195 256T171 256T152 256T138 256Q130 256 127 256T124 258T130 269Q134 275 140 284T154 306T170 331T188 357Q196
369 210 391T242 440T278 497T313 554Q324 572 337 582T364 598T389 610T408 623T415 645Q415 662 404 671T375 683T339 683T308 674Q295 668 296 656T304 629T318 596T325 562Q325 545 325 505T325 415T325 314T325 223T325 164Q325 140 325 120T325 81T325 40Q325
15 338 2T370 -11T401 2T415 40Q415 61 415 79T415 117T415 163Q415 178 415 203T415 260T415 324T415 386T415 437Q415 450 415 477T415 536T415 598T415 645Q415 662 404 671T375 683T339 683T308 674Q291 666 279 654T256 628T237 600Q230 590 212 562T171 498T124
426T84 365T63 332Q56 321 51 313T38 292T18 259Q5 238 7 217T23 181T56 166Q76 166 89 166T115 166T147 166Q162 166 192 166T260 166T339 166T415 166T472 166Z" />
<glyph unicode="5" horiz-adv-x="501" d="M390 590Q416 590 428 603T441 635T431 666T397 680Q364 680 345 680T299 680Q278 680 252 680T192 680Q164 680 144 673T111 650T94 604Q92 586 90 568T86 532T82 498Q80 481 78 460T75 417T74 376Q74 362 77 352T88
334T106 323T132 320Q152 321 170 322T206 323T238 324Q279 324 310 313T358 275T376 205Q376 159 358 132T307 93T233 81Q205 81 175 87T112 106Q88 115 72 107T49 83T48 49T78 22Q119 6 158 -1T233 -9Q282 -9 324 4T398 45T448 112T466 205Q466 274 436 320T355
390T238 414Q226 414 217 414T202 414T189 413T177 412Q172 412 170 412T166 411T165 413T165 418T166 426Q166 432 167 439T168 456T170 477T173 502Q175 517 176 527T178 546T180 567Q182 584 186 587T202 590Q218 590 243 590T293 590Q317 590 335 590T390 590Z"
/>
<glyph unicode="6" horiz-adv-x="534" d="M98 345Q83 325 86 307T103 279T137 271T172 293Q195 321 220 335T282 350Q310 350 333 341T374 315T401 274T411 221Q411 180 395 149T349 100T277 82Q237 82 204 106T150 181T130 314Q130 413 155 475T223 567T314 597Q336
597 356 593T408 571Q427 561 443 568T466 590T470 624T443 654Q423 665 402 672T358 683T314 687Q264 687 216 666T128 601T64 485T40 314Q40 226 60 165T115 65T192 10T277 -8Q345 -8 395 22T473 104T501 221Q501 285 472 334T394 412T282 440Q252 440 225 433T175
412T133 382T98 345Z" />
<glyph unicode="7" horiz-adv-x="483" d="M75 680Q50 680 38 667T25 635T37 604T75 590Q92 590 112 590T167 590Q191 590 225 590T293 590T344 590Q351 590 355 590T360 589T362 585T359 577Q352 561 337 527T303 448T262 354T220 261T186 183Q177 162 170 147T157
117T145 89T131 58Q121 35 128 18T151 -6T185 -7T213 22Q223 44 231 62T248 100T269 149Q292 201 319 266T375 399T430 523Q445 557 450 582T451 626T435 657T402 674T356 680Q326 680 299 680T248 680T204 680T167 680Q145 680 123 680T75 680Z" />
<glyph unicode="8" horiz-adv-x="535" d="M198 0Q223 -7 238 3T258 30T255 63T222 86Q194 94 175 110T146 149T135 202Q135 231 145 252T173 287T216 307T269 314Q313 314 349 327T413 365T455 422T470 496Q470 538 455 573T413 635T350 675T269 689Q210 689 164
664T92 595T66 496Q66 439 92 399T164 336T268 314Q306 314 336 302T383 266T400 202Q400 173 390 149T360 109T313 86Q288 79 280 63T275 30T295 2T335 -2Q382 10 417 39T471 109T490 202Q490 250 473 287T426 351T356 390T268 404Q235 404 210 413T171 443T156
496Q156 527 170 550T210 586T269 599Q302 599 327 587T366 551T380 496Q380 474 372 457T349 428T314 410T269 404Q222 404 181 391T110 351T62 288T45 202Q45 164 56 132T87 73T135 28T198 0Z" />
<glyph unicode="9" horiz-adv-x="534" d="M436 334Q451 354 448 372T431 400T397 408T362 386Q339 358 314 344T252 329Q224 329 201 338T160 364T133 405T123 458Q123 499 139 530T185 579T257 597Q297 597 330 573T384 498T404 365Q404 267 378 204T311 112T220
82Q198 82 178 87T126 108Q107 118 91 112T67 89T64 55T91 25Q111 14 132 7T176 -4T220 -8Q270 -8 318 12T406 78T470 194T494 365Q494 453 474 514T419 614T342 669T257 687Q190 687 140 657T61 575T33 458Q33 394 62 345T141 267T252 239Q282 239 309 246T359
267T401 297T436 334Z" />
<glyph unicode=":" horiz-adv-x="260" d="M89 36Q89 11 102 -2T134 -15T165 -2T179 36Q179 51 179 57T179 69T179 90Q179 115 166 127T134 140T103 128T89 90Q89 75 89 69T89 57T89 36ZM89 395Q89 370 102 357T134 344T165 357T179 395Q179 410 179 416T179 428T179
449Q179 474 166 486T134 499T103 487T89 449Q89 434 89 428T89 416T89 395Z" />
<glyph unicode=";" horiz-adv-x="279" d="M89 395Q89 370 102 357T134 344T165 357T179 395Q179 410 179 416T179 428T179 449Q179 474 166 486T134 499T103 487T89 449Q89 434 89 428T89 416T89 395ZM78 -86Q63 -112 67 -131T88 -159T122 -164T154 -137Q175 -101
186 -65T199 5T191 66T159 114Q140 131 121 130T88 114T76 80T100 39Q115 25 115 6T104 -37T78 -86Z" />
<glyph unicode="&lt;" horiz-adv-x="447" d="M379 436Q401 449 405 467T400 501T373 521T333 514Q310 500 286 485T234 453T170 414T88 367Q59 351 49 331T49 289T92 246Q137 218 171 197T234 160T286 130T333 102Q355 89 372 94T399 115T405 148T379 180Q356
194 332 208T282 238T231 269T183 297Q173 303 169 305T167 309T180 317Q210 335 245 356T314 398T379 436Z" />
<glyph unicode="=" horiz-adv-x="490" d="M410 383Q436 383 448 396T461 428T449 459T410 473Q377 473 340 473T262 473T175 473T80 473Q55 473 42 460T29 428T42 397T80 383Q125 383 176 383T285 383T410 383ZM410 143Q436 143 448 156T461 188T449 219T410 233Q377
233 340 233T262 233T175 233T80 233Q55 233 42 220T29 188T42 157T80 143Q125 143 176 143T285 143T410 143Z" />
<glyph unicode="&gt;" horiz-adv-x="447" d="M65 180Q43 167 39 149T44 115T71 95T111 102Q134 116 158 131T210 163T274 202T356 249Q385 265 395 285T395 328T352 370Q307 398 273 419T210 456T158 487T111 514Q89 527 72 522T45 501T39 468T65 436Q88 423 112
408T162 378T213 347T261 319Q272 313 276 311T277 307T264 299Q234 282 200 261T130 219T65 180Z" />
<glyph unicode="?" horiz-adv-x="511" d="M71 653Q47 643 41 626T41 592T65 568T105 569Q140 584 175 591T241 598Q279 598 311 588T362 558T382 509Q382 491 373 474T346 443T304 420Q249 397 223 372T189 321T181 266Q181 241 194 229T226 216T257 228T271 266Q271
287 275 297T293 316T338 336Q382 354 411 381T456 441T472 509Q472 561 443 601T362 665T241 688Q215 688 187 685T130 673T71 653ZM182 36Q182 11 195 -2T227 -15T258 -2T272 36Q272 51 272 57T272 69T272 90Q272 115 259 127T227 140T196 128T182 90Q182 75
182 69T182 57T182 36Z" />
<glyph unicode="@" horiz-adv-x="956" d="M675 428Q675 453 662 465T630 478T599 466T585 428Q585 401 585 376T585 325T585 264Q585 229 572 203T536 162T482 147Q451 147 428 162T391 205T378 267Q378 302 391 329T428 371T482 387Q505 387 524 379T556 355T577
318T585 270Q585 216 598 179T634 118T684 83T739 72Q775 72 806 87T862 133T899 209T912 312Q912 394 882 462T798 582T668 661T500 689Q406 689 327 657T190 567T99 431T67 260Q67 166 98 90T187 -40T321 -124T488 -154Q519 -154 552 -150T619 -138T688 -119Q712
-111 719 -94T722 -60T700 -34T660 -33Q615 -49 572 -56T488 -64Q416 -64 356 -42T251 23T182 125T157 260Q157 334 182 395T253 503T362 574T500 599Q572 599 631 579T733 520T799 429T822 312Q822 269 813 235T785 182T739 162Q725 162 713 168T693 188T680 222T675
270Q675 317 660 355T619 420T558 462T482 477Q442 477 407 462T345 419T303 353T288 267Q288 206 313 159T383 84T482 57Q523 57 558 72T620 114T660 180T675 264Q675 287 675 318T675 380T675 428Z" />
<glyph unicode="A" horiz-adv-x="651" d="M42 55Q33 31 41 15T67 -8T101 -7T126 25Q133 45 139 62T152 97T165 135Q171 149 176 157T190 169T216 173Q237 173 258 173T300 173T344 173T390 173Q410 173 422 182T439 204T439 231T423 254T390 263Q375 263 351 263T303
263T266 263Q248 263 239 268T227 284T227 309T236 341Q245 368 255 396T275 452T295 508T314 563Q319 578 321 583T326 585T334 566Q351 520 370 464T409 350T447 239T481 143Q487 127 494 107T508 66T523 25Q531 1 548 -6T582 -8T607 14T607 55Q600 75 593 96T578
138T565 173Q553 206 539 247T510 335T478 428T446 522T415 609Q399 652 375 673T323 695T273 674T234 610Q223 576 212 545T191 484T170 426T150 371Q136 330 136 294T151 231T194 189T266 173Q272 173 286 173T317 173T354 173T390 173Q410 173 422 182T439 204T439
231T423 254T390 263Q374 263 351 263T302 263T253 263T216 263Q179 263 153 252T109 219T81 165Q74 145 68 128T55 93T42 55Z" />
<glyph unicode="B" horiz-adv-x="540" d="M235 90Q210 90 197 77T184 45T197 14T235 0Q273 0 301 0T353 6T404 25Q436 41 459 67T496 126T509 198Q509 242 491 279T441 342T366 381Q355 384 340 386T307 390T271 392T235 393Q215 393 203 384T186 362T186 335T202
312T235 303Q279 303 313 308T372 325Q400 340 425 360T465 412T481 488Q481 531 466 566T424 627T358 666T273 680Q259 680 243 680T206 680Q160 680 133 667T93 624T80 550Q80 497 80 448T80 354T80 269T80 192Q80 159 80 119T80 45Q80 20 93 7T125 -6T156 7T170
45Q170 85 170 118T170 192Q170 246 170 295T170 389T170 474T170 550Q170 569 171 577T179 587T206 590Q219 590 236 590T273 590Q309 590 335 579T376 544T391 488Q391 451 377 432T338 403Q329 399 313 397T278 394T235 393Q210 393 197 380T184 348T197 317T235
303Q264 303 284 303T319 300T345 295Q368 288 384 275T410 242T419 198Q419 177 413 159T394 128T364 105Q335 91 305 91T235 90Z" />
<glyph unicode="C" horiz-adv-x="600" d="M540 46Q561 60 564 78T558 112T530 131T490 122Q459 101 422 92T352 82Q305 82 266 99T197 150T151 232T135 340Q135 420 164 478T243 567T356 598Q388 598 424 590T491 561Q512 547 530 552T557 572T564 605T539 637Q497
664 449 676T356 688Q293 688 237 665T137 596T70 486T45 340Q45 232 86 154T198 33T352 -8Q397 -8 447 5T540 46Z" />
<glyph unicode="D" horiz-adv-x="660" d="M80 49Q80 24 93 11T125 -2T156 11T170 49Q170 65 170 80T170 122T170 197Q170 258 170 310T170 409T170 496Q170 512 170 526T169 552T170 572T174 585T184 590Q208 590 225 590T263 590T312 590Q367 590 407 572T473
520T512 442T525 341Q525 286 510 240T466 161T396 109T303 90Q282 90 264 90T225 90Q200 90 187 77T174 45T187 14T225 0Q244 0 263 0T303 0Q373 0 430 25T528 96T592 204T615 341Q615 400 603 451T565 545T504 617T419 663T312 680Q283 680 264 680T230 680T203
680T173 680Q144 680 126 673T97 647T84 591T80 496Q80 450 80 409T80 332T80 262T80 197Q80 153 80 126T80 81T80 49Z" />
<glyph unicode="E" horiz-adv-x="523" d="M423 590Q448 590 461 603T474 635T461 666T423 680Q393 680 374 680T338 680T294 680Q279 680 268 680T243 680T206 680Q160 680 133 665T93 620T80 544Q80 525 80 503T80 459T80 426Q80 400 88 378T112 340T146 314T189
305Q202 305 230 305T290 305T353 305T403 305Q423 305 435 314T451 336T451 363T435 386T403 395Q384 395 358 395T301 395T243 395T190 395Q152 395 128 384T92 350T80 297Q80 273 80 241T80 177T80 122Q80 78 94 51T136 12T204 0Q216 0 225 0T249 0T288 0Q311
0 350 0T423 0Q448 0 460 13T473 45T461 76T423 90Q389 90 368 90T329 90T288 90Q263 90 247 90T204 90Q182 90 176 94T170 122Q170 137 170 165T170 227T170 297Q170 305 175 305T190 305Q206 305 233 305T293 305T354 305T403 305Q423 305 435 314T451 336T451
363T435 386T403 395Q384 395 356 395T297 395T238 395T189 395Q184 395 181 398T175 405T171 415T170 426Q170 444 170 461T170 498T170 544Q170 572 174 581T206 590Q222 590 233 590T258 590T294 590Q320 590 356 590T423 590Z" />
<glyph unicode="F" horiz-adv-x="503" d="M401 285Q426 285 438 298T451 330T439 361T401 375Q368 375 337 375T274 375T202 375Q172 375 149 366T111 337T88 290T80 223Q80 204 80 180T80 131T80 82T80 40Q80 20 89 8T111 -9T138 -9T161 7T170 40Q170 78 170
131T170 243T170 361T170 468T170 550Q170 568 171 576T181 587T210 590Q236 590 275 590T354 590T423 590Q448 590 460 603T473 635T461 666T423 680Q380 680 338 680T262 680T210 680Q162 680 134 666T93 622T80 550Q80 532 80 494T80 406T80 302T80 196T80 103T80
40Q80 20 89 8T111 -9T138 -9T161 7T170 40Q170 67 170 95T170 150T170 198T170 233Q170 253 171 264T180 280T202 285Q228 285 266 285T341 285T401 285Z" />
<glyph unicode="G" horiz-adv-x="653" d="M518 568Q541 559 558 566T582 590T583 624T552 652Q519 665 488 674T426 687T369 691Q270 690 198 643T85 517T45 341Q45 267 67 204T130 92T229 17T361 -10Q410 -10 449 -1T518 24T566 59T591 97Q598 119 600 139T603
185T603 249Q603 294 591 319T557 355T506 365Q481 365 447 365T387 365Q362 365 349 352T336 320T349 289T387 275Q404 275 434 275T501 275Q508 275 510 267T513 239Q513 206 513 177T505 125Q502 114 487 104T441 87T361 80Q307 80 265 100T194 156T150 239T135
341Q135 395 151 442T197 524T270 580T369 601Q403 601 440 593T518 568Z" />
<glyph unicode="H" horiz-adv-x="688" d="M171 640Q171 665 158 678T126 691T95 678T81 640Q81 620 81 601T81 563T81 524Q81 504 81 465T81 377T81 276T81 176T81 92T81 40Q81 20 90 8T112 -9T139 -9T162 7T171 40Q171 61 171 90T171 152T171 213T171 264Q171
281 177 291T193 305T216 309Q269 309 332 309T474 309Q519 309 549 326T594 373T609 444Q609 460 609 483T609 533T609 587T609 640Q609 660 600 672T578 689T551 689T528 673T519 640Q519 624 519 585T519 495T519 388T519 284T519 201T519 157Q519 138 519 119T519
80T519 40Q519 15 532 2T564 -11T595 2T609 40Q609 62 609 80T609 117T609 157Q609 171 609 207T609 292T609 394T609 498T609 586T609 640Q609 660 600 672T578 689T551 689T528 673T519 640Q519 615 519 586T519 528T519 478T519 444Q519 428 516 418T502 404T474
399Q421 399 358 399T216 399Q182 399 151 384T101 339T81 264Q81 250 81 222T81 160T81 94T81 40Q81 20 90 8T112 -9T139 -9T162 7T171 40Q171 60 171 103T171 204T171 321T171 434T171 524Q171 556 171 582T171 640Z" />
<glyph unicode="I" horiz-adv-x="270" d="M90 40Q90 14 103 2T135 -11T166 1T180 40Q180 73 180 100T180 149T180 191Q180 239 180 289T180 389T180 487Q180 510 180 532T180 581T180 640Q180 665 167 677T135 690T104 678T90 640Q90 607 90 581T90 533T90 487Q90
440 90 390T90 289T90 191Q90 172 90 150T90 100T90 40Z" />
<glyph unicode="J" horiz-adv-x="448" d="M83 113Q62 123 46 116T23 93T21 58T50 29Q88 11 122 3T188 -5Q243 -5 286 20T353 91T377 204Q377 263 377 307T377 388T377 466Q377 492 377 514T377 557T377 597T377 640Q377 665 364 677T332 690T301 678T287 640Q287
609 287 581T287 525T287 466Q287 418 287 373T287 286T287 204Q287 166 276 140T242 99T188 85Q166 85 141 91T83 113Z" />
<glyph unicode="K" horiz-adv-x="591" d="M170 640Q170 665 157 678T125 691T94 678T80 640Q80 620 80 597T80 551T80 508Q80 453 80 403T80 309T80 224T80 146Q80 128 80 110T80 73T80 40Q80 15 93 2T125 -11T156 2T170 40Q170 58 170 74T170 107T170 146Q170
201 170 250T170 345T170 430T170 508Q170 532 170 553T170 595T170 640ZM538 607Q556 624 556 642T544 674T514 688T476 673Q461 659 446 645T417 618T387 591T356 563Q343 552 324 536T284 501T243 467T212 439Q180 412 166 390T155 346T176 302T226 250Q246
231 277 203T344 140T416 72T481 8Q499 -10 517 -9T549 4T562 35T545 72Q514 102 478 136T406 205T338 269T286 316Q271 330 266 340T266 360T286 383Q303 397 326 418T373 459T414 495Q435 513 455 531T496 569T538 607Z" />
<glyph unicode="L" horiz-adv-x="498" d="M413 0Q438 0 450 13T463 45T451 76T413 90Q387 90 363 90T317 90T272 90T226 90Q202 90 190 92T174 104T170 138T170 203Q170 251 170 293T170 374T170 449T170 520Q170 542 170 561T170 599T170 640Q170 665 157 677T125
690T94 678T80 640Q80 618 80 598T80 560T80 520Q80 472 80 417T80 302T80 182Q80 125 83 89T98 34T136 8T207 0Q250 0 287 0T355 0T413 0Z" />
<glyph unicode="M" horiz-adv-x="808" d="M638 40Q638 15 651 2T683 -11T714 2T728 40Q728 62 728 80T728 117T728 157Q728 192 728 222T728 282T728 348Q728 365 728 386T728 436T728 503T728 592Q728 630 717 653T686 686T645 690T602 660T566 597Q550 556 533
510T499 416T463 318T427 221Q411 179 396 157T367 125T346 109T336 95T341 67Q352 40 365 24T392 2T419 1T446 25T470 73Q480 100 479 110T468 125T444 136T413 162T380 225Q362 273 345 321T310 416T277 507T244 592Q228 634 207 657T163 687T122 685T92 651T80
588Q80 538 80 504T80 446T80 398T80 348Q80 321 80 286T80 215T80 152Q80 136 80 116T80 77T80 40Q80 15 93 2T125 -11T156 2T170 40Q170 61 170 78T170 114T170 152Q170 176 170 195T170 232T170 267T170 304T170 348Q170 360 170 373T170 401T170 428T170 454T170
477T170 496Q170 504 170 509T171 516T173 517T177 511T182 498Q186 488 191 475T202 446T214 413T227 377T240 342T252 309T263 280Q272 255 278 237T292 198T310 147T341 67Q352 40 365 24T392 2T419 1T446 25T470 73Q487 120 497 150T516 200T531 240T547 285Q552
298 557 313T569 346T582 381T594 416T607 448T617 477T626 501Q629 508 631 512T634 519T636 520T637 514T638 500Q638 487 638 476T638 455T638 435T638 415T638 395T638 373T638 348Q638 330 638 311T638 272T638 232T638 193T638 157Q638 131 638 99T638 40Z"
/>
<glyph unicode="N" horiz-adv-x="688" d="M80 40Q80 15 93 3T125 -10T156 2T170 40Q170 63 170 82T170 122T170 164Q170 198 170 228T170 286T170 341T170 398Q170 413 170 425T170 446T170 464T170 480T170 495Q170 502 170 506T170 512T171 513T175 509T181
501Q185 495 189 489T200 473T214 452T234 424Q249 402 267 377T304 324T344 268T382 213T416 163Q426 148 434 136T449 113T465 91T482 66T503 37Q517 18 532 7T560 -6T584 -4T601 14T608 47Q608 62 608 76T608 105T608 133T608 161T608 189Q608 215 608 255T608
341T608 429T608 502Q608 532 608 554T608 597T608 640Q608 666 595 678T563 691T532 679T518 640Q518 618 518 596T518 553T518 509Q518 493 518 465T518 401T518 330T518 259T518 199Q518 165 511 143T496 104T489 73T503 37Q517 18 532 7T560 -6T584 -4T601
14T608 47Q608 66 596 86T565 128T525 175T483 229Q462 260 436 297T383 372T330 444T287 505Q275 522 263 539T239 574T213 610T184 649Q170 669 155 679T127 690T103 685T86 664T80 628Q80 601 80 578T80 532T80 485T80 432Q80 408 80 379T80 320T80 261T80 207T80
164Q80 146 80 126T80 84T80 40Z" />
<glyph unicode="O" horiz-adv-x="732" d="M300 -2Q325 -7 339 4T357 32T351 65T316 86Q293 91 275 98T236 119Q204 141 181 174T147 250T135 341Q135 398 151 445T199 527T273 581T368 600Q420 600 462 581T534 527T580 445T597 341Q597 294 586 253T553 178T500
122Q481 108 462 100T419 86Q394 81 385 66T378 33T397 4T437 -2Q469 4 497 16T554 50Q595 81 625 124T671 223T687 341Q687 443 646 521T533 645T368 690Q275 690 202 646T87 522T45 341Q45 276 62 220T111 119T186 45Q213 27 240 16T300 -2Z" />
<glyph unicode="P" horiz-adv-x="555" d="M225 343Q199 343 187 330T174 298T186 267T225 253Q254 253 269 253T307 253Q368 253 416 280T492 356T520 466Q520 512 504 551T459 619T388 664T295 680Q281 680 266 680T235 680T206 680Q172 680 148 673T109 649T87
609T80 550Q80 493 80 441T80 342T80 254T80 178Q80 157 80 135T80 89T80 40Q80 14 93 2T125 -11T156 2T170 40Q170 65 170 87T170 131T170 178Q170 229 170 279T170 377T170 468T170 550Q170 564 170 572T174 584T184 589T206 590Q231 590 250 590T295 590Q337
590 367 575T413 532T430 466Q430 429 415 402T371 359T307 343Q287 343 270 343T225 343Z" />
<glyph unicode="Q" horiz-adv-x="732" d="M525 -54Q539 -75 557 -78T590 -72T610 -44T601 -5Q591 10 575 37T539 97T499 160Q492 172 485 183T472 204T461 222T450 239T441 254Q431 271 417 276T390 279T367 265T355 240T363 208Q368 199 374 189T388 166T404
140T423 111Q443 81 462 49T498 -11T525 -54ZM399 -8Q424 -5 435 9T444 42T428 72T389 82Q335 76 289 92T209 143T155 228T135 341Q135 398 151 445T199 527T273 581T368 600Q437 600 488 567T568 475T597 341Q597 308 591 277T574 219T547 167Q537 152 530 146T516
143T501 159Q496 167 488 179T471 206T454 232T441 254Q431 271 417 276T390 279T367 265T355 240T363 208Q368 199 376 186T394 159T411 133T423 113Q440 86 464 70T516 52T571 66T623 119Q652 165 669 221T687 341Q687 417 664 481T597 591T496 664T368 690Q275
690 202 646T87 522T45 341Q45 257 73 190T150 75T263 7T399 -8Z" />
<glyph unicode="R" horiz-adv-x="595" d="M80 40Q80 15 93 2T125 -11T156 2T170 40Q170 65 170 85T170 124T170 161Q170 194 170 233T170 317T170 411T170 515Q170 533 170 547T170 570T178 585T197 590Q212 590 231 590T280 590Q320 590 349 576T394 537T410
476Q410 441 395 416T354 377T292 363Q284 363 276 363T261 363T246 363T230 363Q210 363 198 354T181 332T181 305T197 282T230 273Q270 273 291 267T326 247T359 208Q375 187 389 164T419 117T449 68T482 16Q496 -6 514 -9T547 -3T567 25T558 64Q541 91 526 116T495
165T465 213T433 260Q418 281 401 299T360 332T305 355T230 363Q210 363 198 354T181 332T181 305T197 282T230 273Q233 273 238 273T251 273T266 273T282 273Q342 273 391 299T470 370T500 476Q500 520 485 557T440 621T371 664T280 680Q261 680 236 680T187 680Q153
680 132 670T100 640T84 589T80 515Q80 479 80 428T80 324T80 227T80 161Q80 146 80 126T80 83T80 40Z" />
<glyph unicode="S" horiz-adv-x="521" d="M120 115Q97 125 80 118T56 95T54 61T84 33Q106 23 128 16T173 3T216 -4T258 -7Q303 -7 342 5T411 42T457 102T474 183Q474 229 458 261T415 317T354 357T282 390Q253 401 223 414T173 449T153 504Q153 536 168 557T209
588T271 598Q299 598 330 592T395 574Q419 565 435 573T458 598T458 632T427 658Q385 674 346 681T271 688Q224 688 186 675T121 638T78 580T63 504Q63 461 78 430T118 377T177 338T248 306Q278 294 309 280T362 243T384 183Q384 148 367 126T322 94T258 83Q237
83 214 86T168 97T120 115Z" />
<glyph unicode="T" horiz-adv-x="498" d="M423 590Q449 590 461 603T474 635T462 666T423 680Q413 680 385 680T316 680T233 680T148 680T75 680Q55 680 43 671T26 649T26 622T42 599T75 590Q99 590 122 589T163 581T193 558T204 510Q204 478 204 432T204 338T204
250T204 191Q204 167 204 140T204 88T204 40Q204 15 217 2T249 -11T280 2T294 40Q294 62 294 87T294 140T294 191Q294 210 294 247T294 329T294 422T294 510Q294 548 282 576T247 624T197 656T138 674T75 680Q55 680 43 671T26 649T26 622T42 599T75 590Q94 590
130 590T210 590T297 590T374 590T423 590Z" />
<glyph unicode="U" horiz-adv-x="668" d="M160 640Q160 665 147 678T115 691T84 678T70 640Q70 622 70 597T70 547T70 504Q70 468 70 435T70 362T70 268Q70 208 90 157T145 69T229 11T335 -10Q394 -10 442 10T525 68T579 157T598 268Q598 322 598 361T598 434T598
504Q598 524 598 548T598 596T598 640Q598 665 585 678T553 691T522 678T508 640Q508 622 508 597T508 547T508 504Q508 450 508 411T508 338T508 268Q508 213 487 171T428 104T335 80Q283 80 244 104T182 170T160 268Q160 304 160 337T160 410T160 504Q160 524
160 548T160 596T160 640Z" />
<glyph unicode="V" horiz-adv-x="620" d="M591 626Q599 650 590 666T564 688T530 686T505 654Q497 630 489 607T474 562T460 518T444 475Q435 452 423 419T398 349T372 275T349 210Q345 198 342 189T336 172T331 157T326 144T320 130Q317 121 315 115T312 105T310
102T308 104T305 114T298 130Q295 138 292 144T286 158T281 172T275 188T268 207Q257 237 245 272T221 344T197 416T174 482Q165 508 156 538T136 599T114 657Q104 681 87 687T53 687T29 663T30 623Q41 597 51 568T70 510T89 452Q100 421 113 385T139 312T166 238T189
169Q196 150 200 138T208 114T219 85Q232 49 246 26T275 -9T305 -20T336 -7T367 28T397 86Q404 103 408 113T416 135T429 169Q441 200 454 237T481 313T507 385T528 443Q536 465 544 487T559 531T575 577T591 626Z" />
<glyph unicode="W" horiz-adv-x="888" d="M123 653Q116 677 99 685T65 689T39 667T37 627Q44 606 53 575T74 509T94 445Q106 404 118 364T141 285T163 213Q168 196 173 180T183 147T193 115T204 80T216 42Q222 22 234 10T261 -7T290 -7T317 10T335 45Q341 67 346
86T356 122T365 155T374 187T383 220Q388 241 394 266T408 322T425 387T444 462Q451 491 462 511T482 547T495 581T493 626Q487 652 473 665T442 678T412 666T391 627Q385 602 389 583T402 547T423 510T441 460Q451 420 460 385T476 320T491 265T503 218Q507 201
511 184T520 150T528 116T537 80T546 41Q551 22 562 10T589 -5T621 -5T650 11T671 43Q679 63 685 82T697 118T708 152T717 185T727 216Q736 245 745 274T763 333T782 396T803 468Q812 496 820 524T837 579T851 627Q859 651 850 667T823 688T790 686T765 653Q759
632 751 606T733 549T715 488Q705 453 694 417T673 347T655 288T643 248Q640 239 637 230T631 212T626 194T621 178T617 166Q616 161 615 159T614 155T613 155T612 159T610 166Q609 170 607 176T603 191T599 209T593 228T588 248Q584 263 575 298T555 375T536 449Q532
465 528 485T518 527T506 575T493 626Q487 652 473 665T442 678T412 666T391 627Q385 602 379 577T367 529T356 485T346 447Q341 425 334 396T319 336T306 283T298 250Q295 240 293 231T288 213T284 197T281 183T278 173Q277 169 276 167T275 164T273 164T271 168T269
175Q268 179 266 184T262 196T258 210T253 227T247 246Q242 262 231 299T206 384T179 473Q171 502 160 536T140 601T123 653Z" />
<glyph unicode="X" horiz-adv-x="617" d="M139 666Q124 686 106 689T73 682T55 653T65 614Q82 589 101 563T146 501Q164 476 185 446T228 383T272 320Q295 287 317 258T359 202T396 151Q416 123 432 100T464 55T494 14Q508 -7 526 -9T559 -1T577 27T566 66Q552
86 537 107T505 153T468 205Q452 228 432 254T391 309T346 372Q324 403 301 435T258 498T220 551Q203 575 189 595T163 632T139 666ZM558 614Q573 634 570 652T552 680T519 689T486 666Q474 650 461 633T434 595T401 548Q385 526 364 497T319 436T273 373Q250 341
228 311T187 254T150 203Q121 162 97 129T52 66Q37 46 40 28T58 -1T91 -9T124 14Q138 33 153 54T185 98T221 148Q239 172 258 199T300 257T345 319Q363 343 380 367T415 414T447 459T475 498Q493 523 507 542T533 579T558 614Z" />
<glyph unicode="Y" horiz-adv-x="582" d="M541 618Q554 640 548 658T527 684T493 689T463 662Q452 643 442 624T421 586T401 548Q380 511 363 480T329 418T292 350Q273 315 260 275T246 188Q246 164 246 144T246 105T246 71T246 40Q246 20 255 8T277 -9T304 -9T327
7T336 40Q336 62 336 84T336 133T336 189Q336 236 331 265T313 318T284 367T242 435Q226 463 213 488T186 538T156 593T120 661Q108 684 90 688T56 685T34 659T40 619Q61 580 77 550T106 494T134 444T164 390Q183 357 198 336T224 295T240 251T246 189Q246 165
246 144T246 105T246 71T246 40Q246 20 255 8T277 -9T304 -9T327 7T336 40Q336 56 336 73T336 108T336 146T336 188Q336 222 347 252T372 308Q391 344 408 375T442 437T479 504Q495 532 510 560T541 618Z" />
<glyph unicode="Z" horiz-adv-x="595" d="M105 680Q80 680 67 667T54 635T66 604T105 590Q127 590 149 590T200 590T268 590T368 590Q415 590 442 586T482 576T502 568T513 568T528 586Q538 600 542 613T544 639T535 660T514 674T484 680Q467 680 460 678T451
667T443 643T423 600T378 531Q348 490 321 452T270 382T228 322T195 276T173 244Q163 229 150 211T123 172T94 131T66 94Q56 80 52 67T50 41T59 20T80 6T110 0Q132 0 146 0T173 0T201 0T240 0Q263 0 296 0T366 0T435 0T490 0Q515 0 527 13T540 45T528 76T490 90Q467
90 444 90T396 90T345 90T292 90Q274 90 262 90T243 90T229 90T217 90T202 90Q193 90 188 90T182 92T181 97T185 104T192 114Q196 120 200 126T210 140T222 156T235 175T251 197Q260 209 280 237T325 301T375 372T420 436T448 475Q459 490 468 502T486 528T505
555T528 586Q538 600 542 613T544 639T535 660T514 674T484 680Q462 680 448 680T421 680T393 680T354 680Q331 680 298 680T229 680T160 680T105 680Z" />
<glyph unicode="[" horiz-adv-x="430" d="M345 678Q371 678 383 691T396 723T384 754T345 768Q281 768 239 766T171 754T134 723T117 664T113 569Q113 516 113 470T113 380T113 285T113 173T113 33Q113 -25 117 -61T135 -118T173 -146T241 -156T345 -158Q371 -158
383 -145T396 -113T384 -82T345 -68Q302 -68 275 -68T233 -64T212 -48T205 -11T203 53Q203 106 203 147T203 228T203 311T203 413T203 549Q203 590 203 615T209 653T229 672T272 677T345 678Z" />
<glyph unicode="\" horiz-adv-x="490" d="M349 -134Q356 -158 373 -166T407 -169T434 -147T435 -106Q426 -79 418 -54T399 3T373 81Q354 138 333 204T289 340T245 473T207 589Q194 630 185 656T169 702T155 744Q148 768 131 776T97 778T71 756T69 716Q75 698 80
683T90 651T104 613T122 559Q139 508 160 443T204 309T247 175T286 56Q298 20 307 -7T323 -55T337 -95T349 -134Z" />
<glyph unicode="]" horiz-adv-x="430" d="M85 678Q128 678 155 678T197 674T218 658T225 621T227 557Q227 504 227 463T227 382T227 299T227 197T227 61Q227 20 227 -5T221 -43T201 -62T158 -67T85 -68Q60 -68 47 -81T34 -113T47 -144T85 -158Q149 -158 191 -156T259
-144T296 -113T313 -54T317 41Q317 94 317 140T317 230T317 325T317 437T317 577Q317 635 313 671T295 728T257 756T189 766T85 768Q60 768 47 755T34 723T47 692T85 678Z" />
<glyph unicode="^" horiz-adv-x="560" d="M72 323Q61 300 67 283T90 258T123 255T152 283Q168 316 185 350T222 422T261 504Q272 527 275 534T282 534T297 501Q318 459 336 422T373 350T407 283Q418 261 436 256T469 258T491 283T487 323Q475 348 462 374T433
430T400 496T360 579Q334 635 305 652T249 652T198 583Q170 519 148 473T107 392T72 323Z" />
<glyph unicode="_" horiz-adv-x="535" d="M537 -123Q563 -123 575 -110T588 -78T576 -47T537 -33Q428 -33 295 -33T-2 -33Q-27 -33 -40 -46T-53 -78T-40 -109T-2 -123Q108 -123 241 -123T537 -123Z" />
<glyph unicode="`" horiz-adv-x="500" d="M233 570Q252 554 270 556T300 571T312 603T291 638Q279 649 267 659T242 680T216 702T190 724Q171 741 153 739T123 723T112 692T132 656Q144 646 156 635T181 614T207 592T233 570Z" />
<glyph unicode="a" horiz-adv-x="584" d="M519 452Q519 477 506 490T474 503T443 490T429 452Q429 435 429 409T429 351T429 288T429 227Q429 190 419 162T388 116T341 88T280 79Q247 79 219 91T171 127T140 181T129 249Q129 286 140 317T170 370T218 405T279
418Q323 418 357 397T410 338T429 251Q429 236 429 212T429 164T429 129Q429 112 429 96T429 62T429 29Q429 4 442 -9T474 -22T505 -9T519 29Q519 56 519 79T519 129Q519 146 519 165T519 206T519 251Q519 308 501 355T450 436T374 489T279 508Q211 508 157 475T71
384T39 249Q39 192 57 145T108 62T185 8T280 -11Q331 -11 374 5T450 51T501 126T519 227Q519 270 519 301T519 357T519 404T519 452Z" />
<glyph unicode="b" horiz-adv-x="584" d="M66 44Q66 19 79 6T111 -7T142 6T156 44Q156 69 156 83T156 114T156 162T156 250Q156 299 174 337T226 396T305 418Q338 418 366 406T414 370T445 316T456 248Q456 211 445 180T413 127T366 92T306 79Q274 79 247 90T200
120T168 160T156 203Q156 280 156 328T156 411T156 476T156 551Q156 585 156 606T156 646T156 695Q156 720 143 732T111 745T80 733T66 695Q66 668 66 646T66 601T66 545Q66 504 66 473T66 408T66 324T66 197Q66 162 83 126T133 58T209 8T306 -11Q356 -11 399 8T476
61T527 143T546 248Q546 324 514 382T428 474T305 508Q236 508 182 475T97 384T66 250Q66 199 66 161T66 95T66 44Z" />
<glyph unicode="c" horiz-adv-x="475" d="M420 31Q441 46 443 64T437 96T410 115T373 108Q346 91 322 85T277 79Q236 78 202 98T149 157T129 248Q129 300 148 337T201 396T275 417Q296 417 320 412T373 389Q393 377 410 381T437 400T444 433T420 466Q390 487 351
497T275 507Q211 507 158 476T72 386T39 248Q39 167 72 109T159 20T279 -11Q313 -11 352 0T420 31Z" />
<glyph unicode="d" horiz-adv-x="584" d="M519 696Q519 721 506 733T474 746T443 734T429 696Q429 674 429 656T429 620T429 584Q429 545 429 515T429 458T429 399T429 329T429 237Q429 200 419 171T388 121T341 90T280 79Q235 79 201 101T148 161T129 249Q129
286 140 317T170 370T218 405T279 418Q323 418 357 397T410 338T429 251Q429 236 429 212T429 164T429 129Q429 107 429 83T429 29Q429 3 442 -9T474 -22T505 -9T519 29Q519 56 519 79T519 129Q519 155 519 186T519 251Q519 308 501 355T450 436T374 489T279 508Q211
508 157 475T71 384T39 249Q39 192 57 145T108 62T185 8T280 -11Q331 -11 374 6T450 56T501 134T519 237Q519 294 519 334T519 410T519 486T519 584Q519 609 519 626T519 659T519 696Z" />
<glyph unicode="e" horiz-adv-x="548" d="M170 294Q145 294 132 281T119 249T132 218T170 204Q191 204 212 204T257 204T308 204T367 204Q409 204 437 212T482 235T502 275T500 330Q490 385 460 424T383 486T282 508Q213 508 158 476T71 385T39 248Q39 167 73
109T164 20T291 -11Q319 -11 349 -6T411 11T473 41Q495 53 499 71T495 104T469 126T429 119Q405 106 382 97T335 84T291 79Q244 79 208 98T150 156T129 248Q129 299 148 337T202 397T282 418Q316 418 343 406T387 370T412 314Q414 304 412 300T404 295T389 293T367
294Q334 294 300 294T232 294T170 294Z" />
<glyph unicode="f" horiz-adv-x="364" d="M318 636Q340 624 357 630T383 653T386 687T358 716Q322 734 288 738T222 733T168 703T132 652T118 584Q118 520 118 461T118 350T118 260T118 195Q118 174 118 148T118 93T118 40Q118 14 131 2T163 -11T194 2T208 40Q208
66 208 89T208 137T208 195Q208 232 208 281T208 383T208 489T208 584Q208 615 223 631T264 649T318 636ZM309 408Q334 408 347 421T360 453T347 484T309 498Q288 498 275 498T249 498T222 498Q193 498 166 498T111 498Q96 498 85 498T57 498Q32 498 19 485T6 453T19
422T57 408Q67 408 76 408T93 408T111 408Q142 408 166 408T222 408Q234 408 248 408T277 408T309 408Z" />
<glyph unicode="g" horiz-adv-x="556" d="M138 -55Q115 -44 98 -51T73 -74T70 -108T98 -137Q149 -161 203 -167T309 -164T401 -126T466 -54T490 49Q490 96 490 153T490 280Q490 346 461 397T380 478T264 508Q201 508 150 478T69 396T39 278Q39 228 56 186T104
112T176 63T265 46Q313 46 354 63T425 111T473 184T490 276Q490 310 490 338T490 396T490 458Q490 483 477 496T445 509T414 497T400 458Q400 431 400 399T400 336T400 276Q400 245 390 220T363 175T320 146T265 136Q235 136 210 146T167 175T139 220T129 278Q129
309 139 334T167 378T209 407T264 418Q304 418 334 401T382 352T400 280Q400 233 400 177T400 49Q400 1 375 -28T310 -70T224 -79T138 -55Z" />
<glyph unicode="h" horiz-adv-x="568" d="M421 40Q421 15 434 2T466 -11T497 2T511 40Q511 65 511 86T511 129T511 175Q511 210 511 240T511 293Q511 345 496 385T454 452T391 494T311 508Q259 508 215 487T137 430T85 346T66 248Q66 223 66 196T66 141T66 89T66
40Q66 20 75 8T97 -9T124 -9T147 7T156 40Q156 61 156 104T156 203T156 315T156 422T156 505T156 543Q156 571 156 591T156 628T156 660T156 693Q156 718 143 730T111 743T80 731T66 693Q66 676 66 652T66 599T66 543Q66 535 66 500T66 413T66 303T66 191T66 96T66
40Q66 20 75 8T97 -9T124 -9T147 7T156 40Q156 71 156 113T156 195T156 258Q156 297 167 327T197 377T244 408T304 418Q342 418 368 405T407 363T421 293Q421 259 421 229T421 175Q421 155 421 132T421 85T421 40Z" />
<glyph unicode="i" horiz-adv-x="231" d="M70 40Q70 14 83 2T115 -11T146 2T160 40Q160 63 160 82T160 122T160 165Q160 188 160 218T160 279T160 333Q160 356 160 374T160 412T160 458Q160 483 147 495T115 508T84 496T70 458Q70 433 70 412T70 371T70 333Q70
299 70 274T70 224T70 165Q70 146 70 126T70 83T70 40ZM70 636Q70 613 83 602T115 590T146 601T160 636Q160 647 160 654T160 668T160 685Q160 708 147 719T115 731T84 720T70 685Q70 675 70 668T70 654T70 636Z" />
<glyph unicode="j" horiz-adv-x="245" d="M174 458Q174 483 161 495T129 508T98 496T84 458Q84 429 84 400T84 340T84 278Q84 236 84 195T84 104T84 -17Q84 -49 73 -64T43 -80T1 -72Q-23 -63 -39 -71T-62 -96T-62 -130T-31 -156Q5 -170 41 -169T108 -152T156 -102T174
-17Q174 19 174 61T174 145T174 222T174 278Q174 313 174 337T174 381T174 419T174 458ZM84 636Q84 613 97 602T129 590T160 601T174 636Q174 647 174 654T174 668T174 685Q174 708 161 719T129 731T98 720T84 685Q84 675 84 668T84 654T84 636Z" />
<glyph unicode="k" horiz-adv-x="501" d="M160 695Q160 720 147 732T115 745T84 733T70 695Q70 667 70 645T70 602T70 562Q70 503 70 457T70 367T70 278T70 172Q70 142 70 109T70 40Q70 14 83 2T115 -11T146 2T160 40Q160 64 160 85T160 127T160 172Q160 212 160
262T160 367T160 471T160 562Q160 586 160 607T160 649T160 695ZM441 422Q461 437 463 455T455 488T426 506T387 494Q361 474 333 454T275 412T214 368Q172 337 151 314T130 269T149 223T211 166Q242 142 273 115T335 60T394 7Q412 -10 430 -9T461 6T473 37T454
73Q425 100 394 128T331 183T267 236Q244 254 236 260T236 272T268 296Q298 318 327 339T385 381T441 422Z" />
<glyph unicode="l" horiz-adv-x="231" d="M70 40Q70 15 83 2T115 -11T146 2T160 40Q160 65 160 87T160 131T160 178Q160 257 160 325T160 454T160 567Q160 589 160 609T160 650T160 695Q160 720 147 733T115 746T84 733T70 695Q70 666 70 630T70 567Q70 448 70
353T70 178Q70 157 70 133T70 85T70 40Z" />
<glyph unicode="m" horiz-adv-x="828" d="M156 458Q156 483 143 495T111 508T80 496T66 458Q66 438 66 418T66 378T66 338Q66 332 66 305T66 241T66 163T66 90T66 40Q66 20 75 8T97 -9T124 -9T147 7T156 40Q156 62 156 95T156 163T156 230T156 278Q156 313 165
339T191 382T232 409T285 418Q313 418 332 406T362 369T373 303Q373 286 373 250T373 172T373 94T373 40Q373 20 382 8T404 -9T431 -9T454 7T463 40Q463 58 463 89T463 155T463 223T463 278Q463 313 472 339T498 382T539 409T592 418Q620 418 639 406T669 369T680
303Q680 269 680 240T680 175Q680 155 680 132T680 85T680 40Q680 15 693 2T725 -11T756 2T770 40Q770 65 770 86T770 129T770 175Q770 191 770 215T770 263T770 303Q770 356 756 394T717 458T660 496T592 508Q546 508 506 490T436 438T390 359T373 258Q373 243
373 215T373 154T373 90T373 40Q373 20 382 8T404 -9T431 -9T454 7T463 40Q463 56 463 84T463 146T463 212T463 269T463 303Q463 356 449 394T410 458T353 496T285 508Q239 508 199 490T129 438T83 359T66 258Q66 233 66 204T66 145T66 88T66 40Q66 20 75 8T97
-9T124 -9T147 7T156 40Q156 57 156 89T156 160T156 236T156 300T156 338Q156 360 156 379T156 417T156 458Z" />
<glyph unicode="n" horiz-adv-x="568" d="M421 40Q421 15 434 2T466 -11T497 2T511 40Q511 65 511 86T511 128T511 175Q511 211 511 240T511 293Q511 345 496 385T454 452T391 494T311 508Q259 508 214 487T136 430T85 346T66 248Q66 223 66 196T66 141T66 89T66
40Q66 20 75 8T97 -9T124 -9T147 7T156 40Q156 58 156 91T156 164T156 241T156 305T156 338Q156 360 156 379T156 417T156 458Q156 483 143 496T111 509T80 496T66 458Q66 438 66 418T66 378T66 338Q66 328 66 301T66 238T66 163T66 92T66 40Q66 20 75 8T97 -9T124
-9T147 7T156 40Q156 63 156 93T156 155T156 213T156 258Q156 297 167 327T197 377T244 407T304 418Q342 418 368 404T407 363T421 293Q421 258 421 229T421 175Q421 155 421 132T421 85T421 40Z" />
<glyph unicode="o" horiz-adv-x="577" d="M213 -1Q237 -9 253 0T276 26T274 59T242 85Q224 91 209 99T182 118T158 145Q144 166 137 192T129 249Q129 298 149 336T205 396T288 418Q335 418 371 397T427 337T448 249Q448 219 441 193T419 146Q402 122 383 109T334
85Q310 76 302 60T300 26T322 0T362 -1Q407 15 438 37T493 96Q515 128 526 166T538 249Q538 324 506 382T417 474T288 508Q217 508 161 475T72 383T39 249Q39 204 51 165T84 95Q108 59 139 37T213 -1Z" />
<glyph unicode="p" horiz-adv-x="584" d="M66 -125Q66 -150 79 -163T111 -176T142 -163T156 -125Q156 -100 156 -78T156 -31T156 28Q156 67 156 105T156 180T156 250Q156 299 174 337T226 396T305 418Q338 418 366 406T414 370T445 316T456 248Q456 211 445 180T413
127T366 92T306 79Q273 79 246 91T198 127T167 180T156 246Q156 295 156 327T156 387T156 451Q156 476 143 489T111 502T80 490T66 451Q66 427 66 392T66 318T66 246Q66 191 84 144T134 63T211 9T306 -11Q356 -11 399 8T476 61T527 143T546 248Q546 324 514 382T428
474T305 508Q236 508 182 475T97 384T66 250Q66 202 66 160T66 83T66 23Q66 -4 66 -30T66 -81T66 -125Z" />
<glyph unicode="q" horiz-adv-x="584" d="M429 -125Q429 -150 442 -163T474 -176T505 -163T519 -125Q519 -107 519 -87T519 -46T519 -8Q519 8 519 35T519 95T519 161T519 220Q519 294 501 348T450 438T374 491T280 508Q230 508 186 489T109 435T58 353T39 248Q39
173 70 115T156 23T279 -11Q330 -11 373 8T450 62T501 144T519 248Q519 289 519 318T519 370T519 413T519 458Q519 483 506 495T474 508T443 496T429 458Q429 437 429 402T429 326T429 248Q429 199 410 161T357 101T279 79Q246 79 219 91T171 126T140 180T129 248Q129
285 140 316T172 370T219 405T280 418Q315 418 342 407T389 371T418 309T429 220Q429 181 429 149T429 90T429 39T429 -8Q429 -29 429 -47T429 -84T429 -125Z" />
<glyph unicode="r" horiz-adv-x="389" d="M323 411Q348 408 362 419T379 449T371 482T335 501Q280 508 237 497T161 461T108 401T77 325T66 241Q66 222 66 185T66 108T66 40Q66 20 75 8T97 -9T124 -9T147 8T156 40Q156 60 156 93T156 164T156 231T156 274Q156
307 156 335T156 392T156 454Q156 479 143 492T111 505T80 493T66 454Q66 427 66 396T66 333T66 274Q66 255 66 224T66 159T66 93T66 40Q66 20 75 8T97 -9T124 -9T147 8T156 40Q156 60 156 88T156 147T156 208T156 261Q156 296 165 326T193 377T245 408T323 411Z"
/>
<glyph unicode="s" horiz-adv-x="462" d="M335 392Q358 380 375 387T400 410T403 443T375 472Q337 491 300 499T229 508Q177 508 137 490T74 438T51 361Q51 316 73 289T134 243T219 208Q240 201 266 192T312 168T331 132Q331 113 319 102T287 85T244 79Q224 79
203 83T159 96T115 116Q93 128 76 122T50 100T45 66T73 36Q116 13 160 1T244 -11Q296 -11 335 6T398 56T421 132Q421 179 398 209T335 258T247 294Q233 298 215 304T180 319T152 337T141 361Q141 381 153 393T186 412T229 418Q246 418 263 415T299 406T335 392Z"
/>
<glyph unicode="t" horiz-adv-x="336" d="M118 40Q118 14 131 2T163 -11T194 2T208 40Q208 67 208 84T208 120T208 165Q208 215 208 254T208 327T208 393T208 463Q208 486 208 502T208 532T208 558T208 588Q208 613 195 626T163 639T132 626T118 588Q118 573 118
552T118 507T118 463Q118 408 118 367T118 293T118 229T118 165Q118 140 118 121T118 83T118 40ZM279 408Q304 408 317 421T330 453T317 484T279 498Q263 498 251 498T222 498Q194 498 167 498T111 498Q101 498 94 498T78 498T57 498Q32 498 19 485T6 453T19 422T57
408Q67 408 76 408T94 408T111 408Q141 408 166 408T222 408Q236 408 250 408T279 408Z" />
<glyph unicode="u" horiz-adv-x="568" d="M147 458Q147 483 134 495T102 508T71 496T57 458Q57 424 57 380T57 290T57 207Q57 138 82 89T153 15T258 -11Q311 -11 355 8T433 59T484 134T503 224Q503 242 503 270T503 332T503 398T503 458Q503 478 494 490T472 506T445
506T422 490T413 458Q413 432 413 394T413 313T413 229T413 153Q413 137 413 119T413 81T413 38Q413 13 426 1T458 -12T489 0T503 38Q503 60 503 76T503 111T503 153Q503 176 503 216T503 302T503 389T503 458Q503 478 494 490T472 506T445 506T422 490T413 458Q413
432 413 397T413 327T413 264T413 224Q413 194 402 168T369 122T320 91T258 79Q222 79 197 93T160 136T147 207Q147 253 147 297T147 382T147 458Z" />
<glyph unicode="v" horiz-adv-x="489" d="M106 474Q97 498 80 505T46 506T21 483T22 442Q34 411 43 387T61 339T81 286Q93 257 104 228T130 161T170 66Q186 27 206 8T247 -11T288 9T323 68Q339 110 351 142T374 201T393 249T411 294Q422 322 431 344T449 390T469
443Q477 467 469 483T443 505T408 504T383 473Q374 445 365 422T347 376T328 328Q317 298 306 269T283 210T258 150Q253 137 250 130T245 123T240 130T231 151Q219 182 208 209T187 264T165 320Q154 348 145 371T127 418T106 474Z" />
<glyph unicode="w" horiz-adv-x="725" d="M112 473Q103 497 86 504T53 506T28 484T28 443Q39 412 50 380T71 316Q84 279 97 235T126 148Q131 135 134 126T141 104T153 71Q166 36 180 14T208 -15T237 -16T266 14T292 75Q299 95 303 106T310 126T316 146Q324 172
334 204T356 276T380 358Q385 374 394 378T412 384T424 393T421 422Q410 459 396 476T367 493T338 481T311 443T291 388Q287 372 292 375T306 387T325 399T340 387Q356 340 369 293T392 207T409 145Q413 132 415 123T421 103T430 74Q439 44 450 24T473 -7T499 -19T525
-11T550 18T574 67Q580 82 583 92T589 111T594 127T601 145Q611 173 619 201T637 258T655 316Q663 342 675 377T698 444Q706 468 697 484T671 506T637 504T612 472Q602 441 591 407T571 346Q562 317 554 292T537 243T519 192Q516 184 514 178T511 168T508 160T506
153T504 148Q503 145 503 142T502 138T502 137T503 137T503 141T501 148Q500 151 500 153T498 160T496 169T492 181Q488 198 481 223T466 278T449 335Q446 344 444 351T438 368T431 390T421 422Q410 459 396 476T367 493T338 481T311 443T291 388Q285 366 281 351T274
325T269 306T264 291Q259 271 255 257T248 230T239 200Q238 195 237 190T234 181T231 173T229 167Q227 162 226 159T224 155T223 155T221 159T218 166Q217 168 216 171T214 177T211 186T207 197Q202 213 193 238T175 292T156 346Q146 378 135 410T112 473Z" />
<glyph unicode="x" horiz-adv-x="499" d="M126 486Q111 506 92 507T60 498T43 469T56 430Q73 408 91 386T124 342Q137 327 158 300T205 239T261 167T320 91Q331 77 341 64T361 37T381 12Q396 -8 414 -9T447 0T464 29T451 68Q442 80 433 92T413 118T392 145Q354
195 315 244T245 335T196 398Q185 411 174 426T150 456T126 486ZM446 430Q462 450 459 468T442 498T410 508T376 486Q359 465 342 444T309 401Q276 359 243 317T178 234T120 160Q102 138 84 115T46 68Q31 48 34 30T51 0T83 -10T118 12Q129 28 141 43T166 74T190
104Q229 153 278 217T379 345Q396 366 413 387T446 430Z" />
<glyph unicode="y" horiz-adv-x="488" d="M122 -106Q114 -124 117 -139T130 -163T154 -175T181 -170T204 -144Q209 -133 214 -122T224 -98T235 -74T245 -50Q249 -41 253 -31T261 -12T269 4Q281 31 283 52T280 96T258 152T218 234Q208 255 195 284T166 346T135
412T105 477Q94 500 77 505T43 504T20 479T23 439Q37 409 53 375T84 308T114 245T138 194Q151 167 163 145T183 105T193 72T188 41Q185 33 181 25T173 7T165 -12Q160 -24 155 -35T144 -59T133 -83T122 -106ZM466 440Q477 463 470 480T446 504T412 505T384 476Q374
453 362 427T340 376T321 335Q305 298 286 256T249 173T214 98T188 40Q184 30 181 22T174 6T166 -12Q161 -23 156 -35T144 -59T133 -83T122 -106Q114 -124 117 -139T130 -163T154 -175T181 -170T204 -144Q209 -133 214 -122T225 -99T235 -76T245 -52Q249 -42 253
-33T262 -15T270 4Q285 37 308 88T356 195T403 299Q409 312 416 329T432 365T449 403T466 440Z" />
<glyph unicode="z" horiz-adv-x="474" d="M90 498Q68 498 57 485T45 453T56 422T90 408Q120 408 145 408T199 408T271 408Q303 408 327 403T369 392T401 389T430 408Q441 421 445 434T449 458T441 479T423 493T397 498Q378 498 368 491T350 468T327 430T286 375Q250
333 226 305T186 257T155 220Q141 204 125 183T91 140T55 97Q45 84 40 71T36 45T43 22T60 6T86 0Q105 0 126 0T168 0T208 0T244 0Q265 0 286 0T332 0T388 0Q411 0 422 13T434 45T423 76T388 90Q358 90 338 90T301 90T260 90Q242 90 232 90T214 90T200 90T183 90Q175
90 171 90T164 90T162 92T166 97T174 106Q180 113 184 118T194 128T206 142T223 162Q237 178 256 201T295 248T328 288Q342 305 358 324T393 365T430 408Q441 421 445 434T449 458T441 479T423 493T397 498Q372 498 353 498T314 498T268 498Q242 498 212 498T151
498T90 498Z" />
<glyph unicode="{" horiz-adv-x="466" d="M367 674Q391 666 407 675T429 701T427 735T395 760Q351 774 312 775T240 769Q206 760 180 739T140 688T126 619Q126 587 135 555T155 493T175 437T184 389Q184 374 176 366T154 355T119 350T73 349Q53 349 41 340T25
318T25 291T41 268T73 259Q106 259 131 258T170 248T184 220Q184 191 170 153T141 74T126 -10Q126 -47 139 -76T175 -126T230 -158Q264 -169 305 -168T395 -151Q419 -143 426 -126T429 -92T407 -66T367 -65Q336 -75 308 -77T258 -72Q237 -65 227 -50T216 -10Q216
13 225 40T245 98T265 159T274 220Q274 254 253 278T199 318T132 341T73 349Q53 349 41 340T25 318T25 291T41 268T73 259Q93 259 119 264T172 279T222 304T259 341T274 389Q274 418 265 448T245 509T225 568T216 619Q216 645 228 660T264 683Q284 688 311 686T367
674Z" />
<glyph unicode="|" horiz-adv-x="315" d="M203 730Q203 756 190 768T158 781T127 769T113 730Q113 708 113 689T113 650T113 603Q113 539 113 466T113 316T113 167T113 33Q113 -4 113 -28T113 -73T113 -120Q113 -145 126 -157T158 -170T189 -158T203 -120Q203
-94 203 -74T203 -30T203 33Q203 94 203 166T203 314T203 465T203 603Q203 632 203 652T203 691T203 730Z" />
<glyph unicode="}" horiz-adv-x="466" d="M99 674Q128 684 155 686T202 683Q225 676 237 661T250 619Q250 596 241 568T221 510T201 449T192 389Q192 362 206 341T244 305T294 279T347 264T393 259Q413 259 425 268T441 290T441 317T425 340T393 349Q368 349 334
342T268 319T214 279T192 220Q192 190 201 159T221 98T241 41T250 -10Q250 -34 240 -49T208 -72Q186 -79 159 -78T99 -65Q75 -57 59 -66T38 -92T39 -126T71 -151Q119 -167 160 -168T236 -158Q268 -147 291 -127T327 -77T340 -10Q340 32 326 73T297 153T282 220Q282
240 296 248T335 257T393 259Q413 259 425 268T441 290T441 317T425 340T393 349Q368 349 348 350T313 354T290 366T282 389Q282 410 291 436T311 493T331 555T340 619Q340 658 326 688T287 739T226 769Q195 778 155 776T71 760Q47 752 39 735T37 701T59 675T99
674Z" />
<glyph unicode="~" horiz-adv-x="639" d="M577 387Q577 413 564 425T532 438T501 426T487 387Q487 365 484 344T475 304T459 275T435 264Q421 264 409 271T385 293T356 327Q321 371 289 400T210 429Q163 429 130 402T80 328T63 216Q63 191 76 179T108 166T139
178T153 216Q153 238 155 260T164 300T180 328T204 339Q219 339 231 331T256 308T286 271Q320 230 352 202T428 174Q475 174 508 201T559 276T577 387Z" />
<glyph unicode="&#xa0;" horiz-adv-x="215" />
<glyph unicode="&#xa1;" horiz-adv-x="261" d="M87 -59Q87 -84 100 -97T132 -110T163 -97T177 -59Q177 -38 177 -21T177 12T177 42Q177 66 177 92T177 148T177 208Q177 223 177 235T177 261T177 296Q177 321 164 333T132 346T101 334T87 296Q87 275 87 263T87
240T87 209Q87 180 87 138T87 42Q87 28 87 13T87 -20T87 -59ZM175 545Q175 571 162 583T130 596T99 584T85 545Q85 530 85 524T85 513T85 491Q85 466 98 454T130 441T161 453T175 491Q175 507 175 512T175 524T175 545Z" />
<glyph unicode="&#xa2;" horiz-adv-x="475" d="M326 637Q327 662 315 675T286 690T255 680T236 643Q230 607 234 577T251 522T281 480T320 449T364 430Q389 423 405 433T426 460T422 493T388 517Q365 523 344 527T303 534T264 537T227 536T192 528Q169 521 144
507T97 468T61 406T47 314Q47 251 69 207T124 137T190 100Q211 94 234 92T282 91T334 98T389 111Q414 118 423 134T427 168T406 195T365 198Q343 192 320 180T275 149T236 107T208 55T197 -7Q197 -32 209 -45T239 -60T271 -49T287 -11Q289 13 293 30T304 60T322
82T349 98T389 111Q414 118 423 134T427 168T406 195T365 198Q343 192 325 188T291 182T264 180T241 180T219 185Q200 191 181 206T150 249T137 314Q137 361 151 386T185 424T226 443Q235 446 245 447T266 448T292 446T324 440T364 430Q389 423 405 433T426 460T422
493T388 517Q360 525 346 533T327 555T324 587T326 637Z" />
<glyph unicode="&#xa3;" horiz-adv-x="541" d="M422 572Q445 562 462 569T486 593T488 626T458 654Q430 666 404 673T352 684T304 688Q247 688 203 665T134 599T109 497Q109 452 120 405T145 312T170 227T181 161Q181 141 168 125T130 100T71 90Q51 90 39 81T23
59T23 32T39 9T71 0Q104 0 144 0T226 0T306 0Q340 0 380 0T456 0Q482 0 494 13T507 45T495 76T456 90Q440 90 418 90T368 90T306 90Q280 90 238 90T150 90T71 90Q51 90 39 81T23 59T23 32T39 9T71 0Q96 0 129 10T195 41T249 92T271 161Q271 194 260 236T235 325T210
415T199 497Q199 548 227 573T304 598Q331 598 361 592T422 572ZM90 369Q65 369 53 356T40 324T52 293T90 279Q123 279 148 279T199 279T256 279Q278 279 302 279T354 279T416 279Q442 279 454 292T467 324T455 355T416 369Q384 369 360 369T313 369T256 369Q235
369 209 369T154 369T90 369Z" />
<glyph unicode="&#xa4;" horiz-adv-x="646" d="M159 443Q177 425 195 425T227 439T240 470T223 507Q211 519 197 533T166 563T132 598Q114 616 96 616T64 602T51 571T68 534Q87 516 109 494T159 443ZM579 534Q597 552 597 570T583 602T552 615T515 598Q503 586
489 572T459 541T424 507Q406 489 406 471T420 439T451 426T488 443Q500 456 514 470T544 500T579 534ZM68 152Q50 134 50 116T64 84T95 71T132 88Q144 101 158 115T188 145T223 179Q241 197 241 215T227 247T196 260T159 243Q147 231 133 217T103 186T68 152ZM488
243Q470 261 452 261T420 247T407 216T424 179Q443 161 465 139T515 88Q533 70 551 70T583 84T596 115T579 152Q560 170 538 192T488 243ZM250 147Q274 139 290 148T312 174T310 208T278 233Q256 241 240 256T215 295T206 345Q206 381 220 407T260 449T321 464Q356
464 382 449T424 408T439 345Q439 318 430 295T405 257T365 233Q341 225 333 208T331 174T353 148T393 147Q433 161 463 189T511 257T529 345Q529 406 502 453T428 527T321 554Q261 554 215 527T142 453T116 345Q116 297 133 257T180 189T250 147Z" />
<glyph unicode="&#xa5;" horiz-adv-x="599" d="M489 113Q515 113 527 126T540 158T528 189T489 203Q438 203 379 203T253 203T110 203Q85 203 72 190T59 158T72 127T110 113Q161 113 220 113T346 113T489 113ZM549 615Q563 636 559 654T539 682T506 689T473 665Q453
635 428 596T379 520T338 456Q318 425 305 404T274 373T225 363Q207 363 191 363T155 363T110 363Q85 363 72 350T59 318T72 287T110 273Q128 273 144 273T179 273T225 273Q262 273 287 280T332 303T371 345T414 408Q431 435 455 471T504 546T549 615ZM127 665Q113
686 95 689T61 683T42 655T51 615Q68 589 87 561T125 503Q154 460 180 421T225 350Q242 324 248 307T254 271T255 223Q255 186 255 141T255 40Q255 15 268 2T300 -11T331 2T345 40Q345 78 345 123T345 223Q345 261 343 287T332 338T301 398Q282 429 256 469T201
553Q182 581 163 609T127 665ZM361 363Q336 363 324 350T311 318T323 287T361 273Q381 273 399 273T440 273T489 273Q515 273 527 286T540 318T528 349T489 363Q471 363 453 363T412 363T361 363Z" />
<glyph unicode="&#xa6;" horiz-adv-x="315" d="M203 230Q203 256 190 268T158 281T127 269T113 230Q113 184 113 125T113 2T113 -120Q113 -145 126 -157T158 -170T189 -158T203 -120Q203 -60 203 3T203 125T203 230ZM203 730Q203 756 190 768T158 781T127 769T113
730Q113 679 113 615T113 489T113 380Q113 355 126 343T158 330T189 342T203 380Q203 427 203 488T203 614T203 730Z" />
<glyph unicode="&#xa7;" horiz-adv-x="505" d="M377 580Q401 572 417 581T439 607T437 641T405 666Q367 678 332 684T266 690Q208 690 167 671T104 620T82 546Q82 502 104 472T164 421T250 379Q273 370 300 358T348 330T368 290Q368 271 352 257T310 236T251 227Q226
227 214 213T201 181T215 150T253 137Q319 139 365 160T434 215T458 290Q458 338 434 369T371 422T284 463Q263 472 237 483T191 510T172 546Q172 574 199 587T266 600Q291 600 318 596T377 580ZM120 26Q96 34 80 26T57 0T58 -34T90 -60Q131 -73 169 -80T240 -87Q287
-87 323 -76T383 -45T421 0T434 52Q434 94 412 121T350 167T259 205Q235 214 207 225T157 253T136 293Q136 312 151 327T193 352T252 362Q278 362 290 375T303 407T291 438T252 452Q203 452 165 439T100 402T60 351T46 293Q46 245 71 213T137 160T229 121Q248 114
275 104T323 81T344 52Q344 41 335 32T311 17T278 7T240 3Q213 3 183 8T120 26Z" />
<glyph unicode="&#xa8;" horiz-adv-x="500" d="M105 636Q105 613 118 602T150 590T181 601T195 636Q195 647 195 654T195 668T195 685Q195 708 182 719T150 731T119 720T105 685Q105 675 105 668T105 654T105 636ZM305 636Q305 613 318 602T350 590T381 601T395
636Q395 647 395 654T395 668T395 685Q395 708 382 719T350 731T319 720T305 685Q305 675 305 668T305 654T305 636Z" />
<glyph unicode="&#xa9;" horiz-adv-x="803" d="M458 407Q481 397 498 404T522 427T523 461T494 489Q449 509 407 507T330 484T276 427T255 340Q255 291 275 254T330 196T406 173T494 191Q517 201 523 218T522 252T498 276T458 273Q428 260 402 264T361 287T345
340Q345 373 360 392T402 416T458 407ZM337 -3Q362 -7 377 4T395 32T388 65T353 85Q324 90 299 101T250 127Q202 162 175 217T147 340Q147 416 180 474T271 565T406 599Q463 599 509 580T588 526T638 444T656 340Q656 295 645 255T611 182T556 126Q536 111 511
101T458 85Q433 81 423 65T416 32T434 4T474 -3Q512 4 546 18T610 54Q673 100 709 174T746 340Q746 415 722 479T652 590T544 663T406 689Q330 689 267 663T156 590T83 479T57 340Q57 248 95 174T200 53Q230 32 264 18T337 -3Z" />
<glyph unicode="&#xaa;" horiz-adv-x="495" d="M399 133Q425 133 437 146T450 178T438 209T399 223Q360 223 315 223T217 223T106 223Q81 223 68 210T55 178T68 147T106 133Q146 133 191 133T288 133T399 133ZM431 642Q431 668 418 680T386 693T355 681T341 642Q341
626 341 607T341 562T341 495Q341 465 330 443T297 408T247 395Q218 395 197 408T163 445T151 498Q151 528 163 551T196 587T246 600Q265 600 282 593T312 573T333 541T341 501Q341 478 341 459T341 422T341 388T341 354Q341 329 354 317T386 304T417 316T431 354Q431
365 431 376T431 404T431 443T431 501Q431 543 416 578T375 638T316 676T246 690Q207 690 173 676T114 636T75 575T61 498Q61 443 85 399T152 330T247 305Q300 305 341 329T407 396T431 495Q431 535 431 570T431 642Z" />
<glyph unicode="&#xab;" horiz-adv-x="637" d="M314 424Q333 441 333 459T322 491T292 507T254 492Q236 476 219 460T183 427T144 392T102 353Q69 323 53 301T37 260T54 220T101 171Q131 145 156 121T206 74T254 30Q273 13 291 15T321 30T333 62T314 98Q291 119
267 141T217 187T161 237Q145 252 140 256T139 266T162 287Q184 307 203 324T241 359T278 392T314 424ZM574 424Q593 441 593 459T582 491T552 507T514 492Q496 476 479 460T443 427T404 392T362 353Q329 323 313 301T297 260T314 220T361 171Q391 145 417 121T467
74T514 30Q533 13 551 15T581 30T593 62T574 98Q551 119 527 141T477 187T421 237Q405 252 400 256T399 266T422 287Q444 307 463 324T501 359T538 392T574 424Z" />
<glyph unicode="&#xac;" horiz-adv-x="490" d="M80 433Q55 433 43 420T30 388T42 357T80 343Q108 343 139 343T207 343T286 343Q316 343 328 343T342 337T345 305Q345 283 345 256T345 194Q345 169 358 157T390 144T421 156T435 194Q435 217 435 251T435 319Q435
360 434 383T422 416T385 430T308 433Q266 433 204 433T80 433Z" />
<glyph unicode="&#xad;" horiz-adv-x="340" d="M265 263Q291 263 303 276T316 308T304 339T265 353Q230 353 196 353T132 353T75 353Q50 353 37 340T24 308T37 277T75 263Q101 263 132 263T197 263T265 263Z" />
<glyph unicode="&#xae;" horiz-adv-x="644" d="M240 118Q264 111 280 121T301 148T297 181T264 204Q232 213 206 230T162 273T133 330T123 398Q123 442 137 478T178 542T241 584T322 599Q366 599 402 584T465 542T506 479T521 398Q521 351 504 312T456 245T383
205Q359 198 351 182T346 148T367 122T407 119Q468 136 514 176T585 273T611 398Q611 482 574 547T471 651T322 689Q238 689 173 651T71 548T33 398Q33 329 59 272T132 175T240 118ZM206 301Q206 276 219 264T251 251T282 263T296 301Q296 332 296 363T296 422Q296
442 300 448T317 454Q325 454 331 452T342 447T346 436Q346 428 344 424T339 418T332 414Q313 408 303 394T293 365T299 340T323 329Q336 329 342 322T355 304T370 277Q383 256 401 253T434 258T455 285T446 325Q429 353 413 371T383 399T355 414T328 419Q312 419
301 409T284 383T280 353T292 328T321 318T372 334Q388 342 402 354T426 387T436 436Q436 465 422 489T381 529T317 544Q283 544 258 533T220 498T206 441Q206 410 206 388T206 346T206 301Z" />
<glyph unicode="&#xaf;" horiz-adv-x="500" d="M364 583Q390 583 402 596T415 628T403 659T364 673Q342 673 314 673T253 673T191 673T134 673Q109 673 97 660T84 628T96 597T134 583Q156 583 185 583T247 583T310 583T364 583Z" />
<glyph unicode="&#xb0;" d="M194 283Q218 275 234 284T256 310T254 344T222 369Q200 377 184 392T159 431T150 481Q150 517 164 543T204 585T265 600Q300 600 326 585T368 544T383 481Q383 454 374 431T349 393T309 369Q285 361 277 344T275 310T297 284T337 283Q377
297 407 325T455 393T473 481Q473 542 446 589T372 663T265 690Q205 690 159 663T86 589T60 481Q60 433 77 393T124 325T194 283Z" />
<glyph unicode="&#xb1;" horiz-adv-x="540" d="M315 554Q315 580 302 592T270 605T239 593T225 554Q225 510 225 459T225 349T225 224Q225 199 238 187T270 174T301 186T315 224Q315 268 315 319T315 429T315 554ZM460 333Q486 333 498 346T511 378T499 409T460
423Q422 423 379 423T289 423T189 423T80 423Q55 423 42 410T29 378T42 347T80 333Q118 333 161 333T251 333T351 333T460 333ZM460 33Q486 33 498 46T511 78T499 109T460 123Q422 123 379 123T289 123T189 123T80 123Q55 123 42 110T29 78T42 47T80 33Q118 33
161 33T251 33T351 33T460 33Z" />
<glyph unicode="&#xb2;" horiz-adv-x="431" d="M332 275Q358 275 370 288T383 320T371 351T332 365Q312 365 297 365T270 365T249 365T234 365Q229 365 226 366T221 369T223 375T233 385T253 402Q276 419 295 436T330 472T354 513T363 560Q363 592 347 618T304
662T241 687T167 688T90 659Q68 646 64 628T69 594T96 574T136 581Q157 594 181 597T225 597T259 583T273 556Q273 543 262 528T231 496T186 459T131 415Q105 393 92 372T78 334T87 303T119 283T171 275Q203 275 226 275T266 275T298 275T332 275Z" />
<glyph unicode="&#xb3;" horiz-adv-x="419" d="M126 375Q102 384 86 376T63 351T63 317T94 291Q146 272 194 271T282 285T343 329T366 399Q366 420 359 439T341 472T319 494Q312 499 306 502T294 508T280 513T264 517Q255 519 251 520T247 522T250 525T259 533Q263
537 269 543T283 556T299 572T315 589T332 606Q342 615 348 627T355 652T348 672T321 680Q302 680 276 680T221 680T163 680T112 680Q87 680 74 667T61 635T74 604T112 590Q130 590 155 589T207 588T260 589T305 594T332 606Q342 615 348 627T355 652T348 672T321
680Q306 680 284 667T238 633T190 590T148 548T121 519Q109 505 106 492T106 469T118 451T139 442Q151 440 168 439T202 436T234 433T254 428Q259 426 262 424T268 418T272 412T275 405T276 396Q276 380 261 372T223 362T174 363T126 375Z" />
<glyph unicode="&#xb4;" horiz-adv-x="500" d="M372 656Q392 673 392 691T382 723T352 738T314 724Q301 713 288 702T263 681T238 660T213 638Q194 622 193 603T203 571T233 556T271 570Q284 581 297 592T322 613T347 635T372 656Z" />
<glyph unicode="&#xb5;" horiz-adv-x="568" d="M57 -110Q57 -135 70 -147T102 -160T133 -148T147 -110Q147 -81 147 -58T147 -10T147 47Q147 73 147 119T147 219T147 325T147 417T147 475Q147 495 138 507T116 523T89 523T66 507T57 475Q57 451 57 416T57 343T57
268T57 207Q57 138 82 89T153 15T258 -11Q329 -11 384 21T471 108T503 224Q503 236 503 268T503 340T503 417T503 475Q503 495 494 507T472 523T445 523T422 507T413 475Q413 451 413 411T413 324T413 232T413 153Q413 129 413 98T413 35Q413 10 426 -3T458 -16T489
-3T503 35Q503 57 503 87T503 153Q503 171 503 204T503 276T503 355T503 426T503 475Q503 495 494 507T472 523T445 523T422 507T413 475Q413 451 413 416T413 344T413 274T413 224Q413 185 393 152T338 99T258 79Q222 79 197 93T160 136T147 207Q147 224 147 259T147
336T147 416T147 475Q147 495 138 507T116 523T89 523T66 507T57 475Q57 451 57 401T57 287T57 160T57 47Q57 25 57 1T57 -50T57 -110Z" />
<glyph unicode="&#xb6;" horiz-adv-x="778" d="M581 40Q581 15 594 2T626 -11T657 2T671 40Q671 60 671 98T671 187T671 298T671 419T671 541Q671 575 669 599T658 639T632 664T584 676T508 680Q477 680 440 680T360 680T271 680Q222 680 181 664T110 619T64 550T47
464Q47 417 64 378T112 311T180 267T258 251Q291 251 323 260T382 286T425 327T441 383Q441 399 441 419T441 461T441 508T441 558Q441 578 432 590T410 607T383 607T360 590T351 558Q351 542 351 504T351 414T351 305T351 195T351 101T351 40Q351 15 364 2T396
-11T427 2T441 40Q441 58 441 98T441 192T441 302T441 411T441 502T441 558Q441 578 432 590T410 607T383 607T360 590T351 558Q351 534 351 513T351 470T351 428T351 383Q351 372 343 364T322 351T293 344T258 341Q227 341 200 356T155 400T137 464Q137 502 154
530T201 574T271 590Q302 590 337 590T412 590T498 590Q530 590 547 590T572 585T580 568T581 531Q581 491 581 436T581 320T581 202T581 102T581 40Z" />
<glyph unicode="&#xb7;" horiz-adv-x="260" d="M89 286Q89 261 102 248T134 235T165 248T179 286Q179 301 179 307T179 319T179 340Q179 365 166 377T134 390T103 378T89 340Q89 325 89 319T89 307T89 286Z" />
<glyph unicode="&#xb8;" horiz-adv-x="500" d="M276 16Q278 42 266 55T235 68T203 57T186 20Q183 -21 183 -48T190 -90T214 -112Q231 -118 246 -120T271 -124T281 -137Q281 -149 263 -153T220 -156T171 -150Q146 -145 131 -155T113 -183T118 -217T153 -238Q207
-249 247 -246T315 -228T357 -191T371 -140Q372 -109 363 -89T339 -58T302 -43Q292 -41 286 -38T278 -28T275 -11T276 16Z" />
<glyph unicode="&#xb9;" horiz-adv-x="338" d="M71 661Q46 656 37 640T30 607T49 579T89 573Q111 578 122 580T138 580T144 572T145 552Q145 506 145 463T145 381T145 311Q145 286 158 274T190 261T221 273T235 311Q235 344 235 380T235 460T235 552Q235 585 230
610T208 651T159 670T71 661Z" />
<glyph unicode="&#xba;" horiz-adv-x="492" d="M386 133Q412 133 424 146T437 178T425 209T386 223Q349 223 305 223T212 223T106 223Q81 223 68 210T55 178T68 147T106 133Q144 133 187 133T280 133T386 133ZM289 406Q266 396 260 378T261 344T286 321T327 324Q374
346 402 392T431 498Q431 539 418 574T379 635T320 675T246 690Q206 690 172 676T113 635T75 574T61 498Q61 438 89 393T163 325Q186 314 203 320T228 343T231 376T203 405Q187 413 175 427T157 459T151 498Q151 528 163 551T196 587T246 600Q275 600 296 587T329
551T341 498Q341 477 335 459T318 428T289 406Z" />
<glyph unicode="&#xbb;" horiz-adv-x="637" d="M326 424Q344 408 362 392T398 359T436 325T478 287Q495 272 500 267T501 257T479 237Q450 211 424 187T374 141T326 98Q307 81 307 63T318 31T348 15T386 30Q410 51 433 73T483 120T539 171Q570 199 586 220T602
260T587 301T538 353Q516 373 496 391T458 427T422 460T386 492Q367 509 349 507T319 492T307 460T326 424ZM66 424Q84 408 102 392T138 359T176 325T218 287Q235 272 240 267T241 257T219 237Q190 211 164 187T114 141T66 98Q47 81 47 63T58 31T88 15T126 30Q150
51 173 73T223 120T279 171Q310 199 326 220T342 260T327 301T278 353Q256 373 236 391T198 427T162 460T126 492Q107 509 89 507T59 492T47 460T66 424Z" />
<glyph unicode="&#xbc;" horiz-adv-x="899" d="M71 661Q46 656 37 640T30 607T49 579T89 573Q111 578 122 580T138 580T144 572T145 552Q145 506 145 463T145 381T145 311Q145 286 158 274T190 261T221 273T235 311Q235 344 235 380T235 460T235 552Q235 585 230
610T208 651T159 670T71 661ZM650 616Q664 637 659 655T639 682T606 689T574 664Q560 641 545 617T515 569T484 521Q450 466 418 415T356 316T299 224Q286 204 274 184T248 143T223 104T198 64Q185 42 189 24T209 -3T243 -9T274 16Q291 43 308 70T342 123T375 176Q409
231 441 282T503 382T560 473Q575 496 589 520T619 568T650 616ZM819 88Q845 88 857 101T870 133T858 164T819 178Q795 178 760 178T693 178T642 178Q631 178 626 179T621 183T626 194Q629 201 639 219T661 259T682 297T692 315Q693 317 707 313T739 306T772 312T786
346Q786 372 773 386T741 404T703 408T671 401Q658 397 660 385T670 357T687 330T696 314Q696 311 696 288T696 231T696 159T696 90T696 40Q696 15 709 3T741 -10T772 2T786 40Q786 61 786 89T786 146T786 201T786 244Q786 259 786 268T786 294T786 346Q786 372
773 386T741 404T703 408T671 401Q654 395 642 385T618 358T592 317Q584 305 578 295T566 274T552 248T531 210Q518 187 518 165T530 126T559 98T601 88Q644 88 679 88T749 88T819 88Z" />
<glyph unicode="&#xbd;" horiz-adv-x="940" d="M71 661Q46 656 37 640T30 607T49 579T89 573Q111 578 122 580T138 580T144 572T145 552Q145 506 145 463T145 381T145 311Q145 286 158 274T190 261T221 273T235 311Q235 344 235 380T235 460T235 552Q235 585 230
610T208 651T159 670T71 661ZM650 616Q664 637 659 655T639 682T606 689T574 664Q560 641 545 617T515 569T484 521Q450 466 418 415T356 316T299 224Q286 204 274 184T248 143T223 104T198 64Q185 42 189 24T209 -3T243 -9T274 16Q291 43 308 70T342 123T375 176Q409
231 441 282T503 382T560 473Q575 496 589 520T619 568T650 616ZM844 4Q870 4 882 17T895 49T883 80T844 94Q824 94 809 94T782 94T761 94T746 94Q741 94 738 95T733 98T735 104T745 114T765 131Q788 148 807 165T842 201T866 242T875 289Q875 321 859 347T816
391T753 416T679 417T602 388Q580 375 576 357T581 323T608 303T648 310Q669 323 693 326T737 326T771 312T785 285Q785 272 774 257T743 225T698 188T643 144Q617 122 604 101T590 63T599 32T631 12T683 4Q715 4 738 4T778 4T810 4T844 4Z" />
<glyph unicode="&#xbe;" horiz-adv-x="960" d="M126 375Q102 384 86 376T63 351T63 317T94 291Q146 272 194 271T282 285T343 329T366 399Q366 420 359 439T341 472T319 494Q312 499 306 502T294 508T280 513T264 517Q255 519 251 520T247 522T250 525T259 533Q263
537 269 543T283 556T299 572T315 589T332 606Q342 615 348 627T355 652T348 672T321 680Q302 680 276 680T221 680T163 680T112 680Q87 680 74 667T61 635T74 604T112 590Q130 590 155 589T207 588T260 589T305 594T332 606Q342 615 348 627T355 652T348 672T321
680Q306 680 284 667T238 633T190 590T148 548T121 519Q109 505 106 492T106 469T118 451T139 442Q151 440 168 439T202 436T234 433T254 428Q259 426 262 424T268 418T272 412T275 405T276 396Q276 380 261 372T223 362T174 363T126 375ZM710 616Q724 637 719
655T699 682T666 689T634 664Q620 641 605 617T575 569T544 521Q510 466 478 415T416 316T359 224Q346 204 334 184T308 143T283 104T258 64Q245 42 249 24T269 -3T303 -9T334 16Q351 43 368 70T402 123T435 176Q469 231 501 282T563 382T620 473Q635 496 649 520T679
568T710 616ZM880 88Q906 88 918 101T931 133T919 164T880 178Q856 178 821 178T754 178T703 178Q692 178 687 179T682 183T687 194Q690 201 700 219T722 259T743 297T753 315Q754 317 768 313T800 306T833 312T847 346Q847 372 834 386T802 404T764 408T732 401Q719
397 721 385T731 357T748 330T757 314Q757 311 757 288T757 231T757 159T757 90T757 40Q757 15 770 3T802 -10T833 2T847 40Q847 61 847 89T847 146T847 201T847 244Q847 259 847 268T847 294T847 346Q847 372 834 386T802 404T764 408T732 401Q715 395 703 385T679
358T653 317Q645 305 639 295T627 274T613 248T592 210Q579 187 579 165T591 126T620 98T662 88Q705 88 740 88T810 88T880 88Z" />
<glyph unicode="&#xbf;" horiz-adv-x="511" d="M450 -75Q474 -65 480 -48T480 -14T456 10T416 9Q381 -6 347 -13T280 -20Q242 -20 210 -10T159 21T139 69Q139 88 148 104T176 135T217 158Q272 181 298 206T332 258T340 312Q340 337 327 349T295 362T264 350T250
312Q250 292 246 281T228 263T183 242Q140 225 110 198T65 137T49 69Q49 17 78 -23T159 -87T280 -110Q306 -110 334 -106T391 -95T450 -75ZM339 542Q339 568 326 580T294 593T263 581T249 542Q249 527 249 521T249 510T249 488Q249 463 262 451T294 438T325 450T339
488Q339 504 339 509T339 521T339 542Z" />
<glyph unicode="&#xc0;" horiz-adv-x="651" d="M42 55Q33 31 41 15T67 -8T101 -7T126 25Q133 45 139 62T152 97T165 135Q171 149 176 157T190 169T216 173Q237 173 258 173T300 173T344 173T390 173Q410 173 422 182T439 204T439 231T423 254T390 263Q375 263
351 263T303 263T266 263Q248 263 239 268T227 284T227 309T236 341Q245 368 255 396T275 452T295 508T314 563Q319 578 321 583T326 585T334 566Q351 520 370 464T409 350T447 239T481 143Q487 127 494 107T508 66T523 25Q531 1 548 -6T582 -8T607 14T607 55Q600
75 593 96T578 138T565 173Q553 206 539 247T510 335T478 428T446 522T415 609Q399 652 375 673T323 695T273 674T234 610Q223 576 212 545T191 484T170 426T150 371Q136 330 136 294T151 231T194 189T266 173Q272 173 286 173T317 173T354 173T390 173Q410 173
422 182T439 204T439 231T423 254T390 263Q374 263 351 263T302 263T253 263T216 263Q179 263 153 252T109 219T81 165Q74 145 68 128T55 93T42 55ZM308 753Q327 737 345 739T375 754T387 786T366 821Q354 832 342 842T317 863T291 885T265 907Q246 924 228 922T198
906T187 875T207 839Q219 829 231 818T256 797T282 775T308 753Z" />
<glyph unicode="&#xc1;" horiz-adv-x="651" d="M42 55Q33 31 41 15T67 -8T101 -7T126 25Q133 45 139 62T152 97T165 135Q171 149 176 157T190 169T216 173Q237 173 258 173T300 173T344 173T390 173Q410 173 422 182T439 204T439 231T423 254T390 263Q375 263
351 263T303 263T266 263Q248 263 239 268T227 284T227 309T236 341Q245 368 255 396T275 452T295 508T314 563Q319 578 321 583T326 585T334 566Q351 520 370 464T409 350T447 239T481 143Q487 127 494 107T508 66T523 25Q531 1 548 -6T582 -8T607 14T607 55Q600
75 593 96T578 138T565 173Q553 206 539 247T510 335T478 428T446 522T415 609Q399 652 375 673T323 695T273 674T234 610Q223 576 212 545T191 484T170 426T150 371Q136 330 136 294T151 231T194 189T266 173Q272 173 286 173T317 173T354 173T390 173Q410 173
422 182T439 204T439 231T423 254T390 263Q374 263 351 263T302 263T253 263T216 263Q179 263 153 252T109 219T81 165Q74 145 68 128T55 93T42 55ZM447 839Q467 856 467 874T457 906T427 921T389 907Q376 896 363 885T338 864T313 843T288 821Q269 805 268 786T278
754T308 739T346 753Q359 764 372 775T397 796T422 818T447 839Z" />
<glyph unicode="&#xc2;" horiz-adv-x="651" d="M42 55Q33 31 41 15T67 -8T101 -7T126 25Q133 45 139 62T152 97T165 135Q171 149 176 157T190 169T216 173Q237 173 258 173T300 173T344 173T390 173Q410 173 422 182T439 204T439 231T423 254T390 263Q375 263
351 263T303 263T266 263Q248 263 239 268T227 284T227 309T236 341Q245 368 255 396T275 452T295 508T314 563Q319 578 321 583T326 585T334 566Q351 520 370 464T409 350T447 239T481 143Q487 127 494 107T508 66T523 25Q531 1 548 -6T582 -8T607 14T607 55Q600
75 593 96T578 138T565 173Q553 206 539 247T510 335T478 428T446 522T415 609Q399 652 375 673T323 695T273 674T234 610Q223 576 212 545T191 484T170 426T150 371Q136 330 136 294T151 231T194 189T266 173Q272 173 286 173T317 173T354 173T390 173Q410 173
422 182T439 204T439 231T423 254T390 263Q374 263 351 263T302 263T253 263T216 263Q179 263 153 252T109 219T81 165Q74 145 68 128T55 93T42 55ZM187 822Q167 807 166 788T176 755T205 738T243 752Q268 774 285 791T312 819T327 828Q331 828 341 818T369 790T411
752Q430 736 448 738T477 755T488 788T467 822Q442 842 425 859T394 890T365 910T327 918Q306 918 291 911T262 890T231 860T187 822Z" />
<glyph unicode="&#xc3;" horiz-adv-x="651" d="M42 55Q33 31 41 15T67 -8T101 -7T126 25Q133 45 139 62T152 97T165 135Q171 149 176 157T190 169T216 173Q237 173 258 173T300 173T344 173T390 173Q410 173 422 182T439 204T439 231T423 254T390 263Q375 263
351 263T303 263T266 263Q248 263 239 268T227 284T227 309T236 341Q245 368 255 396T275 452T295 508T314 563Q319 578 321 583T326 585T334 566Q351 520 370 464T409 350T447 239T481 143Q487 127 494 107T508 66T523 25Q531 1 548 -6T582 -8T607 14T607 55Q600
75 593 96T578 138T565 173Q553 206 539 247T510 335T478 428T446 522T415 609Q399 652 375 673T323 695T273 674T234 610Q223 576 212 545T191 484T170 426T150 371Q136 330 136 294T151 231T194 189T266 173Q272 173 286 173T317 173T354 173T390 173Q410 173
422 182T439 204T439 231T423 254T390 263Q374 263 351 263T302 263T253 263T216 263Q179 263 153 252T109 219T81 165Q74 145 68 128T55 93T42 55ZM497 873Q497 899 484 911T452 924T421 914T407 880Q407 862 405 851T400 836T390 831Q386 831 382 834T373 843T363
855T353 868Q340 885 319 901T264 918Q240 918 220 908T186 881T164 839T156 786Q156 761 169 748T200 734T231 743T246 773Q247 793 248 805T252 822T261 828Q266 828 271 824T281 814T293 798Q310 775 331 758T387 741Q412 741 432 751T466 779T489 821T497 873Z"
/>
<glyph unicode="&#xc4;" horiz-adv-x="651" d="M42 55Q33 31 41 15T67 -8T101 -7T126 25Q133 45 139 62T152 97T165 135Q171 149 176 157T190 169T216 173Q237 173 258 173T300 173T344 173T390 173Q410 173 422 182T439 204T439 231T423 254T390 263Q375 263
351 263T303 263T266 263Q248 263 239 268T227 284T227 309T236 341Q245 368 255 396T275 452T295 508T314 563Q319 578 321 583T326 585T334 566Q351 520 370 464T409 350T447 239T481 143Q487 127 494 107T508 66T523 25Q531 1 548 -6T582 -8T607 14T607 55Q600
75 593 96T578 138T565 173Q553 206 539 247T510 335T478 428T446 522T415 609Q399 652 375 673T323 695T273 674T234 610Q223 576 212 545T191 484T170 426T150 371Q136 330 136 294T151 231T194 189T266 173Q272 173 286 173T317 173T354 173T390 173Q410 173
422 182T439 204T439 231T423 254T390 263Q374 263 351 263T302 263T253 263T216 263Q179 263 153 252T109 219T81 165Q74 145 68 128T55 93T42 55ZM180 819Q180 796 193 785T225 773T256 784T270 819Q270 830 270 837T270 851T270 868Q270 891 257 902T225 914T194
903T180 868Q180 858 180 851T180 837T180 819ZM380 819Q380 796 393 785T425 773T456 784T470 819Q470 830 470 837T470 851T470 868Q470 891 457 902T425 914T394 903T380 868Q380 858 380 851T380 837T380 819Z" />
<glyph unicode="&#xc5;" horiz-adv-x="651" d="M42 55Q33 31 41 15T67 -8T101 -7T126 25Q133 45 139 62T152 97T165 135Q171 149 176 157T190 169T216 173Q237 173 258 173T300 173T344 173T390 173Q410 173 422 182T439 204T439 231T423 254T390 263Q375 263
351 263T303 263T266 263Q248 263 239 268T227 284T227 309T236 341Q245 368 255 396T275 452T295 508T314 563Q319 578 321 583T326 585T334 566Q351 520 370 464T409 350T447 239T481 143Q487 127 494 107T508 66T523 25Q531 1 548 -6T582 -8T607 14T607 55Q600
75 593 96T578 138T565 173Q553 206 539 247T510 335T478 428T446 522T415 609Q399 652 375 673T323 695T273 674T234 610Q223 576 212 545T191 484T170 426T150 371Q136 330 136 294T151 231T194 189T266 173Q272 173 286 173T317 173T354 173T390 173Q410 173
422 182T439 204T439 231T423 254T390 263Q374 263 351 263T302 263T253 263T216 263Q179 263 153 252T109 219T81 165Q74 145 68 128T55 93T42 55ZM268 724Q289 716 302 724T322 749T327 781T314 802Q307 805 303 808T296 815T292 823T291 831Q291 838 293 843T299
853T309 859T323 861Q334 861 341 858T353 848T358 831Q358 826 357 822T352 815T344 808T329 801Q315 796 312 781T315 749T336 723T370 721Q405 733 426 762T448 831Q448 864 433 891T389 934T323 951Q287 951 260 935T217 891T201 831Q201 791 218 765T268 724Z"
/>
<glyph unicode="&#xc6;" horiz-adv-x="844" d="M167 263Q142 263 130 250T117 218T129 187T167 173Q192 173 228 173T305 173T381 173Q413 173 437 189T476 228T491 270Q491 292 501 298T536 305Q550 305 571 305T617 305T670 305T724 305Q750 305 762 318T775
350T763 381T724 395Q688 395 652 395T583 395T521 395Q486 395 459 382T416 349T401 312Q401 292 396 282T382 267T360 263Q345 263 313 263T243 263T167 263ZM34 59Q23 37 30 20T53 -5T87 -8T116 21Q128 46 140 72T164 124T190 177Q231 261 271 345T351 514Q369
553 396 571T475 590Q495 590 528 590T601 590T677 590T741 590Q761 590 773 599T790 621T790 648T774 671T741 680Q714 680 684 680T623 680T564 680T513 680Q479 680 454 667T415 624T401 545Q401 524 401 487T401 402T401 304T401 208T401 126Q401 71 410 44T446
9T520 0Q565 0 603 0T676 0T744 0Q770 0 782 13T795 45T783 76T744 90Q710 90 681 90T622 90T551 90Q523 90 511 91T495 101T491 132Q491 155 491 194T491 281T491 378T491 470T491 545Q491 570 494 580T514 590Q529 590 556 590T616 590T681 590T741 590Q761 590
773 599T790 621T790 648T774 671T741 680Q705 680 658 680T562 680T475 680Q421 680 382 665T316 621T269 552Q229 468 189 384T108 215Q90 178 72 139T34 59Z" />
<glyph unicode="&#xc7;" horiz-adv-x="600" d="M540 46Q561 60 564 78T558 112T530 131T490 122Q459 101 422 92T352 82Q305 82 266 99T197 150T151 232T135 340Q135 420 164 478T243 567T356 598Q388 598 424 590T491 561Q512 547 530 552T557 572T564 605T539
637Q497 664 449 676T356 688Q293 688 237 665T137 596T70 486T45 340Q45 232 86 154T198 33T352 -8Q397 -8 447 5T540 46ZM367 11Q369 37 357 50T326 63T294 52T277 15Q274 -26 274 -53T281 -95T305 -117Q322 -123 337 -125T362 -129T372 -142Q372 -154 354 -158T311
-161T262 -155Q237 -150 222 -160T204 -188T209 -222T244 -243Q298 -254 338 -251T406 -233T448 -196T462 -145Q463 -114 454 -94T430 -63T393 -48Q383 -46 377 -43T369 -33T366 -16T367 11Z" />
<glyph unicode="&#xc8;" horiz-adv-x="523" d="M423 590Q448 590 461 603T474 635T461 666T423 680Q393 680 374 680T338 680T294 680Q279 680 268 680T243 680T206 680Q160 680 133 665T93 620T80 544Q80 525 80 503T80 459T80 426Q80 400 88 378T112 340T146
314T189 305Q202 305 230 305T290 305T353 305T403 305Q423 305 435 314T451 336T451 363T435 386T403 395Q384 395 358 395T301 395T243 395T190 395Q152 395 128 384T92 350T80 297Q80 273 80 241T80 177T80 122Q80 78 94 51T136 12T204 0Q216 0 225 0T249 0T288
0Q311 0 350 0T423 0Q448 0 460 13T473 45T461 76T423 90Q389 90 368 90T329 90T288 90Q263 90 247 90T204 90Q182 90 176 94T170 122Q170 137 170 165T170 227T170 297Q170 305 175 305T190 305Q206 305 233 305T293 305T354 305T403 305Q423 305 435 314T451
336T451 363T435 386T403 395Q384 395 356 395T297 395T238 395T189 395Q184 395 181 398T175 405T171 415T170 426Q170 444 170 461T170 498T170 544Q170 572 174 581T206 590Q222 590 233 590T258 590T294 590Q320 590 356 590T423 590ZM257 753Q276 737 294
739T324 754T336 786T315 821Q303 832 291 842T266 863T240 885T214 907Q195 924 177 922T147 906T136 875T156 839Q168 829 180 818T205 797T231 775T257 753Z" />
<glyph unicode="&#xc9;" horiz-adv-x="523" d="M423 590Q448 590 461 603T474 635T461 666T423 680Q393 680 374 680T338 680T294 680Q279 680 268 680T243 680T206 680Q160 680 133 665T93 620T80 544Q80 525 80 503T80 459T80 426Q80 400 88 378T112 340T146
314T189 305Q202 305 230 305T290 305T353 305T403 305Q423 305 435 314T451 336T451 363T435 386T403 395Q384 395 358 395T301 395T243 395T190 395Q152 395 128 384T92 350T80 297Q80 273 80 241T80 177T80 122Q80 78 94 51T136 12T204 0Q216 0 225 0T249 0T288
0Q311 0 350 0T423 0Q448 0 460 13T473 45T461 76T423 90Q389 90 368 90T329 90T288 90Q263 90 247 90T204 90Q182 90 176 94T170 122Q170 137 170 165T170 227T170 297Q170 305 175 305T190 305Q206 305 233 305T293 305T354 305T403 305Q423 305 435 314T451
336T451 363T435 386T403 395Q384 395 356 395T297 395T238 395T189 395Q184 395 181 398T175 405T171 415T170 426Q170 444 170 461T170 498T170 544Q170 572 174 581T206 590Q222 590 233 590T258 590T294 590Q320 590 356 590T423 590ZM396 839Q416 856 416
874T406 906T376 921T338 907Q325 896 312 885T287 864T262 843T237 821Q218 805 217 786T227 754T257 739T295 753Q308 764 321 775T346 796T371 818T396 839Z" />
<glyph unicode="&#xca;" horiz-adv-x="523" d="M423 590Q448 590 461 603T474 635T461 666T423 680Q393 680 374 680T338 680T294 680Q279 680 268 680T243 680T206 680Q160 680 133 665T93 620T80 544Q80 525 80 503T80 459T80 426Q80 400 88 378T112 340T146
314T189 305Q202 305 230 305T290 305T353 305T403 305Q423 305 435 314T451 336T451 363T435 386T403 395Q384 395 358 395T301 395T243 395T190 395Q152 395 128 384T92 350T80 297Q80 273 80 241T80 177T80 122Q80 78 94 51T136 12T204 0Q216 0 225 0T249 0T288
0Q311 0 350 0T423 0Q448 0 460 13T473 45T461 76T423 90Q389 90 368 90T329 90T288 90Q263 90 247 90T204 90Q182 90 176 94T170 122Q170 137 170 165T170 227T170 297Q170 305 175 305T190 305Q206 305 233 305T293 305T354 305T403 305Q423 305 435 314T451
336T451 363T435 386T403 395Q384 395 356 395T297 395T238 395T189 395Q184 395 181 398T175 405T171 415T170 426Q170 444 170 461T170 498T170 544Q170 572 174 581T206 590Q222 590 233 590T258 590T294 590Q320 590 356 590T423 590ZM136 822Q116 807 115
788T125 755T154 738T192 752Q217 774 234 791T261 819T276 828Q280 828 290 818T318 790T360 752Q379 736 397 738T426 755T437 788T416 822Q391 842 374 859T343 890T314 910T276 918Q255 918 240 911T211 890T180 860T136 822Z" />
<glyph unicode="&#xcb;" horiz-adv-x="523" d="M423 590Q448 590 461 603T474 635T461 666T423 680Q393 680 374 680T338 680T294 680Q279 680 268 680T243 680T206 680Q160 680 133 665T93 620T80 544Q80 525 80 503T80 459T80 426Q80 400 88 378T112 340T146
314T189 305Q202 305 230 305T290 305T353 305T403 305Q423 305 435 314T451 336T451 363T435 386T403 395Q384 395 358 395T301 395T243 395T190 395Q152 395 128 384T92 350T80 297Q80 273 80 241T80 177T80 122Q80 78 94 51T136 12T204 0Q216 0 225 0T249 0T288
0Q311 0 350 0T423 0Q448 0 460 13T473 45T461 76T423 90Q389 90 368 90T329 90T288 90Q263 90 247 90T204 90Q182 90 176 94T170 122Q170 137 170 165T170 227T170 297Q170 305 175 305T190 305Q206 305 233 305T293 305T354 305T403 305Q423 305 435 314T451
336T451 363T435 386T403 395Q384 395 356 395T297 395T238 395T189 395Q184 395 181 398T175 405T171 415T170 426Q170 444 170 461T170 498T170 544Q170 572 174 581T206 590Q222 590 233 590T258 590T294 590Q320 590 356 590T423 590ZM129 819Q129 796 142
785T174 773T205 784T219 819Q219 830 219 837T219 851T219 868Q219 891 206 902T174 914T143 903T129 868Q129 858 129 851T129 837T129 819ZM329 819Q329 796 342 785T374 773T405 784T419 819Q419 830 419 837T419 851T419 868Q419 891 406 902T374 914T343
903T329 868Q329 858 329 851T329 837T329 819Z" />
<glyph unicode="&#xcc;" horiz-adv-x="270" d="M90 40Q90 14 103 2T135 -11T166 1T180 40Q180 73 180 100T180 149T180 191Q180 239 180 289T180 389T180 487Q180 510 180 532T180 581T180 640Q180 665 167 677T135 690T104 678T90 640Q90 607 90 581T90 533T90
487Q90 440 90 390T90 289T90 191Q90 172 90 150T90 100T90 40ZM118 753Q137 737 155 739T185 754T197 786T176 821Q164 832 152 842T127 863T101 885T75 907Q56 924 38 922T8 906T-3 875T17 839Q29 829 41 818T66 797T92 775T118 753Z" />
<glyph unicode="&#xcd;" horiz-adv-x="270" d="M90 40Q90 14 103 2T135 -11T166 1T180 40Q180 73 180 100T180 149T180 191Q180 239 180 289T180 389T180 487Q180 510 180 532T180 581T180 640Q180 665 167 677T135 690T104 678T90 640Q90 607 90 581T90 533T90
487Q90 440 90 390T90 289T90 191Q90 172 90 150T90 100T90 40ZM257 839Q277 856 277 874T267 906T237 921T199 907Q186 896 173 885T148 864T123 843T98 821Q79 805 78 786T88 754T118 739T156 753Q169 764 182 775T207 796T232 818T257 839Z" />
<glyph unicode="&#xce;" horiz-adv-x="270" d="M90 40Q90 14 103 2T135 -11T166 1T180 40Q180 73 180 100T180 149T180 191Q180 239 180 289T180 389T180 487Q180 510 180 532T180 581T180 640Q180 665 167 677T135 690T104 678T90 640Q90 607 90 581T90 533T90
487Q90 440 90 390T90 289T90 191Q90 172 90 150T90 100T90 40ZM-3 822Q-23 807 -24 788T-14 755T15 738T53 752Q78 774 95 791T122 819T137 828Q141 828 151 818T179 790T221 752Q240 736 258 738T287 755T298 788T277 822Q252 842 235 859T204 890T175 910T137
918Q116 918 101 911T72 890T41 860T-3 822Z" />
<glyph unicode="&#xcf;" horiz-adv-x="270" d="M90 40Q90 14 103 2T135 -11T166 1T180 40Q180 73 180 100T180 149T180 191Q180 239 180 289T180 389T180 487Q180 510 180 532T180 581T180 640Q180 665 167 677T135 690T104 678T90 640Q90 607 90 581T90 533T90
487Q90 440 90 390T90 289T90 191Q90 172 90 150T90 100T90 40ZM-10 819Q-10 796 3 785T35 773T66 784T80 819Q80 830 80 837T80 851T80 868Q80 891 67 902T35 914T4 903T-10 868Q-10 858 -10 851T-10 837T-10 819ZM190 819Q190 796 203 785T235 773T266 784T280
819Q280 830 280 837T280 851T280 868Q280 891 267 902T235 914T204 903T190 868Q190 858 190 851T190 837T190 819Z" />
<glyph unicode="&#xd0;" horiz-adv-x="670" d="M315 295Q341 295 353 308T366 340T354 371T315 385Q270 385 224 385T133 385T45 385Q20 385 7 372T-6 340T7 309T45 295Q74 295 111 295T198 295T315 295ZM90 49Q90 24 103 11T135 -2T166 11T180 49Q180 65 180
80T180 122T180 197Q180 258 180 310T180 409T180 496Q180 512 180 526T179 552T180 572T184 585T194 590Q218 590 235 590T273 590T322 590Q377 590 417 572T483 521T522 442T535 341Q535 286 520 240T476 161T406 109T313 90Q292 90 274 90T235 90Q210 90 197
77T184 45T197 14T235 0Q255 0 274 0T313 0Q383 0 440 25T538 96T602 204T625 341Q625 400 613 451T575 545T514 617T429 663T322 680Q293 680 274 680T240 680T213 680T183 680Q154 680 136 673T107 647T94 592T90 496Q90 450 90 409T90 332T90 262T90 197Q90
153 90 126T90 81T90 49Z" />
<glyph unicode="&#xd1;" horiz-adv-x="688" d="M80 40Q80 15 93 3T125 -10T156 2T170 40Q170 63 170 82T170 122T170 164Q170 198 170 228T170 286T170 341T170 398Q170 413 170 425T170 446T170 464T170 480T170 495Q170 502 170 506T170 512T171 513T175 509T181
501Q185 495 189 489T200 473T214 452T234 424Q249 402 267 377T304 324T344 268T382 213T416 163Q426 148 434 136T449 113T465 91T482 66T503 37Q517 18 532 7T560 -6T584 -4T601 14T608 47Q608 62 608 76T608 105T608 133T608 161T608 189Q608 215 608 255T608
341T608 429T608 502Q608 532 608 554T608 597T608 640Q608 666 595 678T563 691T532 679T518 640Q518 618 518 596T518 553T518 509Q518 493 518 465T518 401T518 330T518 259T518 199Q518 165 511 143T496 104T489 73T503 37Q517 18 532 7T560 -6T584 -4T601
14T608 47Q608 66 596 86T565 128T525 175T483 229Q462 260 436 297T383 372T330 444T287 505Q275 522 263 539T239 574T213 610T184 649Q170 669 155 679T127 690T103 685T86 664T80 628Q80 601 80 578T80 532T80 485T80 432Q80 408 80 379T80 320T80 261T80 207T80
164Q80 146 80 126T80 84T80 40ZM516 861Q516 887 503 899T471 912T440 902T426 868Q426 850 424 839T419 824T409 819Q405 819 401 822T392 831T382 843T372 856Q359 873 338 889T283 906Q259 906 239 896T205 869T183 827T175 774Q175 749 188 736T219 722T250
731T265 761Q266 781 267 793T271 810T280 816Q285 816 290 812T300 802T312 786Q329 763 350 746T406 729Q431 729 451 739T485 767T508 809T516 861Z" />
<glyph unicode="&#xd2;" horiz-adv-x="732" d="M300 -2Q325 -7 339 4T357 32T351 65T316 86Q293 91 275 98T236 119Q204 141 181 174T147 250T135 341Q135 398 151 445T199 527T273 581T368 600Q420 600 462 581T534 527T580 445T597 341Q597 294 586 253T553
178T500 122Q481 108 462 100T419 86Q394 81 385 66T378 33T397 4T437 -2Q469 4 497 16T554 50Q595 81 625 124T671 223T687 341Q687 443 646 521T533 645T368 690Q275 690 202 646T87 522T45 341Q45 276 62 220T111 119T186 45Q213 27 240 16T300 -2ZM349 757Q368
741 386 743T416 758T428 790T407 825Q395 836 383 846T358 867T332 889T306 911Q287 928 269 926T239 910T228 879T248 843Q260 833 272 822T297 801T323 779T349 757Z" />
<glyph unicode="&#xd3;" horiz-adv-x="732" d="M300 -2Q325 -7 339 4T357 32T351 65T316 86Q293 91 275 98T236 119Q204 141 181 174T147 250T135 341Q135 398 151 445T199 527T273 581T368 600Q420 600 462 581T534 527T580 445T597 341Q597 294 586 253T553
178T500 122Q481 108 462 100T419 86Q394 81 385 66T378 33T397 4T437 -2Q469 4 497 16T554 50Q595 81 625 124T671 223T687 341Q687 443 646 521T533 645T368 690Q275 690 202 646T87 522T45 341Q45 276 62 220T111 119T186 45Q213 27 240 16T300 -2ZM488 843Q508
860 508 878T498 910T468 925T430 911Q417 900 404 889T379 868T354 847T329 825Q310 809 309 790T319 758T349 743T387 757Q400 768 413 779T438 800T463 822T488 843Z" />
<glyph unicode="&#xd4;" horiz-adv-x="732" d="M300 -2Q325 -7 339 4T357 32T351 65T316 86Q293 91 275 98T236 119Q204 141 181 174T147 250T135 341Q135 398 151 445T199 527T273 581T368 600Q420 600 462 581T534 527T580 445T597 341Q597 294 586 253T553
178T500 122Q481 108 462 100T419 86Q394 81 385 66T378 33T397 4T437 -2Q469 4 497 16T554 50Q595 81 625 124T671 223T687 341Q687 443 646 521T533 645T368 690Q275 690 202 646T87 522T45 341Q45 276 62 220T111 119T186 45Q213 27 240 16T300 -2ZM228 826Q208
811 207 792T217 759T246 742T284 756Q309 778 326 795T353 823T368 832Q372 832 382 822T410 794T452 756Q471 740 489 742T518 759T529 792T508 826Q483 846 466 863T435 894T406 914T368 922Q347 922 332 915T303 894T272 864T228 826Z" />
<glyph unicode="&#xd5;" horiz-adv-x="732" d="M300 -2Q325 -7 339 4T357 32T351 65T316 86Q293 91 275 98T236 119Q204 141 181 174T147 250T135 341Q135 398 151 445T199 527T273 581T368 600Q420 600 462 581T534 527T580 445T597 341Q597 294 586 253T553
178T500 122Q481 108 462 100T419 86Q394 81 385 66T378 33T397 4T437 -2Q469 4 497 16T554 50Q595 81 625 124T671 223T687 341Q687 443 646 521T533 645T368 690Q275 690 202 646T87 522T45 341Q45 276 62 220T111 119T186 45Q213 27 240 16T300 -2ZM538 877Q538
903 525 915T493 928T462 918T448 884Q448 866 446 855T441 840T431 835Q427 835 423 838T414 847T404 859T394 872Q381 889 360 905T305 922Q281 922 261 912T227 885T205 843T197 790Q197 765 210 752T241 738T272 747T287 777Q288 797 289 809T293 826T302 832Q307
832 312 828T322 818T334 802Q351 779 372 762T428 745Q453 745 473 755T507 783T530 825T538 877Z" />
<glyph unicode="&#xd6;" horiz-adv-x="732" d="M300 -2Q325 -7 339 4T357 32T351 65T316 86Q293 91 275 98T236 119Q204 141 181 174T147 250T135 341Q135 398 151 445T199 527T273 581T368 600Q420 600 462 581T534 527T580 445T597 341Q597 294 586 253T553
178T500 122Q481 108 462 100T419 86Q394 81 385 66T378 33T397 4T437 -2Q469 4 497 16T554 50Q595 81 625 124T671 223T687 341Q687 443 646 521T533 645T368 690Q275 690 202 646T87 522T45 341Q45 276 62 220T111 119T186 45Q213 27 240 16T300 -2ZM221 823Q221
800 234 789T266 777T297 788T311 823Q311 834 311 841T311 855T311 872Q311 895 298 906T266 918T235 907T221 872Q221 862 221 855T221 841T221 823ZM421 823Q421 800 434 789T466 777T497 788T511 823Q511 834 511 841T511 855T511 872Q511 895 498 906T466
918T435 907T421 872Q421 862 421 855T421 841T421 823Z" />
<glyph unicode="&#xd7;" horiz-adv-x="517" d="M147 484Q129 502 111 502T79 488T66 457T83 420Q122 382 166 337T262 241T371 132Q389 114 407 114T439 128T452 159T435 196Q406 225 374 257T305 325T230 401T147 484ZM435 420Q453 438 453 456T439 488T408 501T371
484Q348 461 323 436T270 383T212 325T150 263T83 196Q65 178 65 160T79 128T110 115T147 132Q176 161 208 193T276 262T352 337T435 420Z" />
<glyph unicode="&#xd8;" horiz-adv-x="732" d="M604 688Q616 710 610 727T588 753T554 758T524 730Q493 672 456 603T381 464T308 330T249 220T212 153Q198 128 187 108T166 69T147 31T128 -11Q120 -29 124 -44T141 -68T168 -78T197 -73T219 -47Q227 -28 231 -8T235
33T230 76T217 119T195 159Q174 191 161 219T141 276T135 341Q135 417 163 475T243 566T364 600Q434 600 486 567T567 476T597 341Q597 280 578 229T523 143Q503 123 477 110T422 89T361 80Q336 78 325 64T314 32T328 2T367 -10Q410 -7 449 3T524 33T587 79Q634
126 660 193T687 341Q687 444 645 522T531 645T364 690Q294 690 236 664T135 592T69 481T45 341Q45 306 49 277T62 222T80 175T104 134Q116 116 125 100T138 67T140 31T128 -11Q120 -29 124 -44T141 -68T168 -78T197 -73T219 -47Q227 -28 232 -15T243 10T254 35T269
68T294 114Q309 141 336 191T397 304T468 435T540 569T604 688Z" />
<glyph unicode="&#xd9;" horiz-adv-x="668" d="M160 640Q160 665 147 678T115 691T84 678T70 640Q70 622 70 597T70 547T70 504Q70 468 70 435T70 362T70 268Q70 208 90 157T145 69T229 11T335 -10Q394 -10 442 10T525 68T579 157T598 268Q598 322 598 361T598
434T598 504Q598 524 598 548T598 596T598 640Q598 665 585 678T553 691T522 678T508 640Q508 622 508 597T508 547T508 504Q508 450 508 411T508 338T508 268Q508 213 487 171T428 104T335 80Q283 80 244 104T182 170T160 268Q160 304 160 337T160 410T160 504Q160
524 160 548T160 596T160 640ZM317 753Q336 737 354 739T384 754T396 786T375 821Q363 832 351 842T326 863T300 885T274 907Q255 924 237 922T207 906T196 875T216 839Q228 829 240 818T265 797T291 775T317 753Z" />
<glyph unicode="&#xda;" horiz-adv-x="668" d="M160 640Q160 665 147 678T115 691T84 678T70 640Q70 622 70 597T70 547T70 504Q70 468 70 435T70 362T70 268Q70 208 90 157T145 69T229 11T335 -10Q394 -10 442 10T525 68T579 157T598 268Q598 322 598 361T598
434T598 504Q598 524 598 548T598 596T598 640Q598 665 585 678T553 691T522 678T508 640Q508 622 508 597T508 547T508 504Q508 450 508 411T508 338T508 268Q508 213 487 171T428 104T335 80Q283 80 244 104T182 170T160 268Q160 304 160 337T160 410T160 504Q160
524 160 548T160 596T160 640ZM456 839Q476 856 476 874T466 906T436 921T398 907Q385 896 372 885T347 864T322 843T297 821Q278 805 277 786T287 754T317 739T355 753Q368 764 381 775T406 796T431 818T456 839Z" />
<glyph unicode="&#xdb;" horiz-adv-x="668" d="M160 640Q160 665 147 678T115 691T84 678T70 640Q70 622 70 597T70 547T70 504Q70 468 70 435T70 362T70 268Q70 208 90 157T145 69T229 11T335 -10Q394 -10 442 10T525 68T579 157T598 268Q598 322 598 361T598
434T598 504Q598 524 598 548T598 596T598 640Q598 665 585 678T553 691T522 678T508 640Q508 622 508 597T508 547T508 504Q508 450 508 411T508 338T508 268Q508 213 487 171T428 104T335 80Q283 80 244 104T182 170T160 268Q160 304 160 337T160 410T160 504Q160
524 160 548T160 596T160 640ZM196 822Q176 807 175 788T185 755T214 738T252 752Q277 774 294 791T321 819T336 828Q340 828 350 818T378 790T420 752Q439 736 457 738T486 755T497 788T476 822Q451 842 434 859T403 890T374 910T336 918Q315 918 300 911T271
890T240 860T196 822Z" />
<glyph unicode="&#xdc;" horiz-adv-x="668" d="M160 640Q160 665 147 678T115 691T84 678T70 640Q70 622 70 597T70 547T70 504Q70 468 70 435T70 362T70 268Q70 208 90 157T145 69T229 11T335 -10Q394 -10 442 10T525 68T579 157T598 268Q598 322 598 361T598
434T598 504Q598 524 598 548T598 596T598 640Q598 665 585 678T553 691T522 678T508 640Q508 622 508 597T508 547T508 504Q508 450 508 411T508 338T508 268Q508 213 487 171T428 104T335 80Q283 80 244 104T182 170T160 268Q160 304 160 337T160 410T160 504Q160
524 160 548T160 596T160 640ZM189 819Q189 796 202 785T234 773T265 784T279 819Q279 830 279 837T279 851T279 868Q279 891 266 902T234 914T203 903T189 868Q189 858 189 851T189 837T189 819ZM389 819Q389 796 402 785T434 773T465 784T479 819Q479 830 479
837T479 851T479 868Q479 891 466 902T434 914T403 903T389 868Q389 858 389 851T389 837T389 819Z" />
<glyph unicode="&#xdd;" horiz-adv-x="582" d="M541 618Q554 640 548 658T527 684T493 689T463 662Q452 643 442 624T421 586T401 548Q380 511 363 480T329 418T292 350Q273 315 260 275T246 188Q246 164 246 144T246 105T246 71T246 40Q246 20 255 8T277 -9T304
-9T327 7T336 40Q336 62 336 84T336 133T336 189Q336 236 331 265T313 318T284 367T242 435Q226 463 213 488T186 538T156 593T120 661Q108 684 90 688T56 685T34 659T40 619Q61 580 77 550T106 494T134 444T164 390Q183 357 198 336T224 295T240 251T246 189Q246
165 246 144T246 105T246 71T246 40Q246 20 255 8T277 -9T304 -9T327 7T336 40Q336 56 336 73T336 108T336 146T336 188Q336 222 347 252T372 308Q391 344 408 375T442 437T479 504Q495 532 510 560T541 618ZM413 839Q433 856 433 874T423 906T393 921T355 907Q342
896 329 885T304 864T279 843T254 821Q235 805 234 786T244 754T274 739T312 753Q325 764 338 775T363 796T388 818T413 839Z" />
<glyph unicode="&#xde;" horiz-adv-x="555" d="M132 215Q107 215 95 202T82 170T94 139T132 125Q162 125 185 125T237 125T307 125Q368 125 416 152T492 227T520 338Q520 400 493 448T417 524T306 552Q280 552 264 552T236 552T213 552Q200 552 192 555T178 568T172
593T170 634Q170 654 161 665T139 680T112 680T89 665T80 634Q80 619 80 574T80 467T80 337T80 207T80 101T80 40Q80 17 93 5T125 -8T156 3T170 40Q170 57 170 102T170 208T170 337T170 465T170 572T170 634Q170 654 161 665T139 680T112 680T89 665T80 634Q80
611 83 582T97 525T131 480T195 462Q225 462 243 462T295 462Q337 462 367 447T414 404T430 338Q430 300 415 272T372 230T307 215Q252 215 215 215T132 215Z" />
<glyph unicode="&#xdf;" horiz-adv-x="551" d="M244 83Q219 88 204 77T186 49T193 16T228 -5Q281 -15 325 -6T404 25T463 79T499 144T512 212Q512 241 507 267T490 317T457 361T404 398Q388 406 367 413T322 426T274 432T226 427Q211 423 203 411T195 385T205
359T234 345Q257 342 279 347T323 362T364 385T400 412Q431 438 445 474T459 555Q459 605 434 646T365 713T266 738Q230 738 200 729T145 703T104 661T78 606T69 540Q69 489 69 424T69 290T69 156T69 40Q69 15 82 2T114 -11T145 2T159 40Q159 91 159 156T159 291T159
424T159 540Q159 574 171 598T208 635T266 648Q297 648 320 636T356 602T369 555Q369 534 364 519T351 493T332 473Q324 467 315 461T294 450T266 439T226 427Q211 423 203 411T195 385T205 359T234 345Q257 342 276 340T311 334T339 328T362 319Q377 312 388 302T407
278T418 249T422 215Q422 188 410 162T374 115T318 85T244 83Z" />
<glyph unicode="&#xe0;" horiz-adv-x="584" d="M519 452Q519 477 506 490T474 503T443 490T429 452Q429 435 429 409T429 351T429 288T429 227Q429 190 419 162T388 116T341 88T280 79Q247 79 219 91T171 127T140 181T129 249Q129 286 140 317T170 370T218 405T279
418Q323 418 357 397T410 338T429 251Q429 236 429 212T429 164T429 129Q429 112 429 96T429 62T429 29Q429 4 442 -9T474 -22T505 -9T519 29Q519 56 519 79T519 129Q519 146 519 165T519 206T519 251Q519 308 501 355T450 436T374 489T279 508Q211 508 157 475T71
384T39 249Q39 192 57 145T108 62T185 8T280 -11Q331 -11 374 5T450 51T501 126T519 227Q519 270 519 301T519 357T519 404T519 452ZM285 580Q304 564 322 566T352 581T364 613T343 648Q331 659 319 669T294 690T268 712T242 734Q223 751 205 749T175 733T164 702T184
666Q196 656 208 645T233 624T259 602T285 580Z" />
<glyph unicode="&#xe1;" horiz-adv-x="584" d="M519 452Q519 477 506 490T474 503T443 490T429 452Q429 435 429 409T429 351T429 288T429 227Q429 190 419 162T388 116T341 88T280 79Q247 79 219 91T171 127T140 181T129 249Q129 286 140 317T170 370T218 405T279
418Q323 418 357 397T410 338T429 251Q429 236 429 212T429 164T429 129Q429 112 429 96T429 62T429 29Q429 4 442 -9T474 -22T505 -9T519 29Q519 56 519 79T519 129Q519 146 519 165T519 206T519 251Q519 308 501 355T450 436T374 489T279 508Q211 508 157 475T71
384T39 249Q39 192 57 145T108 62T185 8T280 -11Q331 -11 374 5T450 51T501 126T519 227Q519 270 519 301T519 357T519 404T519 452ZM424 666Q444 683 444 701T434 733T404 748T366 734Q353 723 340 712T315 691T290 670T265 648Q246 632 245 613T255 581T285 566T323
580Q336 591 349 602T374 623T399 645T424 666Z" />
<glyph unicode="&#xe2;" horiz-adv-x="584" d="M519 452Q519 477 506 490T474 503T443 490T429 452Q429 435 429 409T429 351T429 288T429 227Q429 190 419 162T388 116T341 88T280 79Q247 79 219 91T171 127T140 181T129 249Q129 286 140 317T170 370T218 405T279
418Q323 418 357 397T410 338T429 251Q429 236 429 212T429 164T429 129Q429 112 429 96T429 62T429 29Q429 4 442 -9T474 -22T505 -9T519 29Q519 56 519 79T519 129Q519 146 519 165T519 206T519 251Q519 308 501 355T450 436T374 489T279 508Q211 508 157 475T71
384T39 249Q39 192 57 145T108 62T185 8T280 -11Q331 -11 374 5T450 51T501 126T519 227Q519 270 519 301T519 357T519 404T519 452ZM164 649Q144 634 143 615T153 582T182 565T220 579Q245 601 262 618T289 646T304 655Q308 655 318 645T346 617T388 579Q407 563
425 565T454 582T465 615T444 649Q419 669 402 686T371 717T342 737T304 745Q283 745 268 738T239 717T208 687T164 649Z" />
<glyph unicode="&#xe3;" horiz-adv-x="584" d="M519 452Q519 477 506 490T474 503T443 490T429 452Q429 435 429 409T429 351T429 288T429 227Q429 190 419 162T388 116T341 88T280 79Q247 79 219 91T171 127T140 181T129 249Q129 286 140 317T170 370T218 405T279
418Q323 418 357 397T410 338T429 251Q429 236 429 212T429 164T429 129Q429 112 429 96T429 62T429 29Q429 4 442 -9T474 -22T505 -9T519 29Q519 56 519 79T519 129Q519 146 519 165T519 206T519 251Q519 308 501 355T450 436T374 489T279 508Q211 508 157 475T71
384T39 249Q39 192 57 145T108 62T185 8T280 -11Q331 -11 374 5T450 51T501 126T519 227Q519 270 519 301T519 357T519 404T519 452ZM474 700Q474 726 461 738T429 751T398 741T384 707Q384 689 382 678T377 663T367 658Q363 658 359 661T350 670T340 682T330 695Q317
712 296 728T241 745Q217 745 197 735T163 708T141 666T133 613Q133 588 146 575T177 561T208 570T223 600Q224 620 225 632T229 649T238 655Q243 655 248 651T258 641T270 625Q287 602 308 585T364 568Q389 568 409 578T443 606T466 648T474 700Z" />
<glyph unicode="&#xe4;" horiz-adv-x="584" d="M519 452Q519 477 506 490T474 503T443 490T429 452Q429 435 429 409T429 351T429 288T429 227Q429 190 419 162T388 116T341 88T280 79Q247 79 219 91T171 127T140 181T129 249Q129 286 140 317T170 370T218 405T279
418Q323 418 357 397T410 338T429 251Q429 236 429 212T429 164T429 129Q429 112 429 96T429 62T429 29Q429 4 442 -9T474 -22T505 -9T519 29Q519 56 519 79T519 129Q519 146 519 165T519 206T519 251Q519 308 501 355T450 436T374 489T279 508Q211 508 157 475T71
384T39 249Q39 192 57 145T108 62T185 8T280 -11Q331 -11 374 5T450 51T501 126T519 227Q519 270 519 301T519 357T519 404T519 452ZM157 646Q157 623 170 612T202 600T233 611T247 646Q247 657 247 664T247 678T247 695Q247 718 234 729T202 741T171 730T157 695Q157
685 157 678T157 664T157 646ZM357 646Q357 623 370 612T402 600T433 611T447 646Q447 657 447 664T447 678T447 695Q447 718 434 729T402 741T371 730T357 695Q357 685 357 678T357 664T357 646Z" />
<glyph unicode="&#xe5;" horiz-adv-x="584" d="M519 452Q519 477 506 490T474 503T443 490T429 452Q429 435 429 409T429 351T429 288T429 227Q429 190 419 162T388 116T341 88T280 79Q247 79 219 91T171 127T140 181T129 249Q129 286 140 317T170 370T218 405T279
418Q323 418 357 397T410 338T429 251Q429 236 429 212T429 164T429 129Q429 112 429 96T429 62T429 29Q429 4 442 -9T474 -22T505 -9T519 29Q519 56 519 79T519 129Q519 146 519 165T519 206T519 251Q519 308 501 355T450 436T374 489T279 508Q211 508 157 475T71
384T39 249Q39 192 57 145T108 62T185 8T280 -11Q331 -11 374 5T450 51T501 126T519 227Q519 270 519 301T519 357T519 404T519 452ZM245 551Q266 543 279 551T299 576T304 608T291 629Q284 632 280 635T273 642T269 650T268 658Q268 665 270 670T276 680T286 686T300
688Q311 688 318 685T330 675T335 658Q335 653 334 649T329 642T321 635T306 628Q292 623 289 608T292 576T313 550T347 548Q382 560 403 589T425 658Q425 691 410 718T366 761T300 778Q264 778 237 762T194 718T178 658Q178 618 195 592T245 551Z" />
<glyph unicode="&#xe6;" horiz-adv-x="938" d="M519 458Q519 484 506 496T474 509T443 497T429 458Q429 444 429 430T429 393T429 336T429 244Q429 207 419 177T388 125T341 91T280 79Q247 79 220 91T172 127T141 181T129 249Q129 286 140 317T171 370T218 405T279
418Q323 418 357 398T410 341T429 254Q429 172 462 113T553 21T679 -11Q723 -11 769 1T863 41Q885 53 889 71T886 104T859 125T819 119Q783 100 748 90T679 79Q633 79 597 99T540 159T519 254Q519 330 488 387T402 476T279 508Q211 508 157 475T71 383T39 249Q39
192 57 145T109 62T186 8T280 -11Q331 -11 375 7T451 60T501 140T519 244Q519 295 519 332T519 400T519 458ZM558 294Q533 294 521 281T508 249T520 218T558 204Q591 204 618 204T678 204T760 204Q816 204 848 226T888 285T880 364Q864 408 834 440T762 490T672
508Q621 508 577 490T499 436T448 351T429 238Q429 188 429 154T429 93T429 40Q429 15 442 2T474 -11T505 2T519 40Q519 53 519 65T519 96T519 148T519 238Q519 280 530 313T561 369T610 405T672 418Q702 418 726 408T768 379T796 332Q802 317 801 309T790 298T760
294Q727 294 700 294T640 294T558 294Z" />
<glyph unicode="&#xe7;" horiz-adv-x="475" d="M420 31Q441 46 443 64T437 96T410 115T373 108Q346 91 322 85T277 79Q236 78 202 98T149 157T129 248Q129 300 148 337T201 396T275 417Q296 417 320 412T373 389Q393 377 410 381T437 400T444 433T420 466Q390
487 351 497T275 507Q211 507 158 476T72 386T39 248Q39 167 72 109T159 20T279 -11Q313 -11 352 0T420 31ZM286 16Q288 42 276 55T245 68T213 57T196 20Q193 -21 193 -48T200 -90T224 -112Q241 -118 256 -120T281 -124T291 -137Q291 -149 273 -153T230 -156T181
-150Q156 -145 141 -155T123 -183T128 -217T163 -238Q217 -249 257 -246T325 -228T367 -191T381 -140Q382 -109 373 -89T349 -58T312 -43Q302 -41 296 -38T288 -28T285 -11T286 16Z" />
<glyph unicode="&#xe8;" horiz-adv-x="548" d="M170 294Q145 294 132 281T119 249T132 218T170 204Q191 204 212 204T257 204T308 204T367 204Q409 204 437 212T482 235T502 275T500 330Q490 385 460 424T383 486T282 508Q213 508 158 476T71 385T39 248Q39 167
73 109T164 20T291 -11Q319 -11 349 -6T411 11T473 41Q495 53 499 71T495 104T469 126T429 119Q405 106 382 97T335 84T291 79Q244 79 208 98T150 156T129 248Q129 299 148 337T202 397T282 418Q316 418 343 406T387 370T412 314Q414 304 412 300T404 295T389 293T367
294Q334 294 300 294T232 294T170 294ZM268 575Q287 559 305 561T335 576T347 608T326 643Q314 654 302 664T277 685T251 707T225 729Q206 746 188 744T158 728T147 697T167 661Q179 651 191 640T216 619T242 597T268 575Z" />
<glyph unicode="&#xe9;" horiz-adv-x="548" d="M170 294Q145 294 132 281T119 249T132 218T170 204Q191 204 212 204T257 204T308 204T367 204Q409 204 437 212T482 235T502 275T500 330Q490 385 460 424T383 486T282 508Q213 508 158 476T71 385T39 248Q39 167
73 109T164 20T291 -11Q319 -11 349 -6T411 11T473 41Q495 53 499 71T495 104T469 126T429 119Q405 106 382 97T335 84T291 79Q244 79 208 98T150 156T129 248Q129 299 148 337T202 397T282 418Q316 418 343 406T387 370T412 314Q414 304 412 300T404 295T389 293T367
294Q334 294 300 294T232 294T170 294ZM407 661Q427 678 427 696T417 728T387 743T349 729Q336 718 323 707T298 686T273 665T248 643Q229 627 228 608T238 576T268 561T306 575Q319 586 332 597T357 618T382 640T407 661Z" />
<glyph unicode="&#xea;" horiz-adv-x="548" d="M170 294Q145 294 132 281T119 249T132 218T170 204Q191 204 212 204T257 204T308 204T367 204Q409 204 437 212T482 235T502 275T500 330Q490 385 460 424T383 486T282 508Q213 508 158 476T71 385T39 248Q39 167
73 109T164 20T291 -11Q319 -11 349 -6T411 11T473 41Q495 53 499 71T495 104T469 126T429 119Q405 106 382 97T335 84T291 79Q244 79 208 98T150 156T129 248Q129 299 148 337T202 397T282 418Q316 418 343 406T387 370T412 314Q414 304 412 300T404 295T389 293T367
294Q334 294 300 294T232 294T170 294ZM147 644Q127 629 126 610T136 577T165 560T203 574Q228 596 245 613T272 641T287 650Q291 650 301 640T329 612T371 574Q390 558 408 560T437 577T448 610T427 644Q402 664 385 681T354 712T325 732T287 740Q266 740 251
733T222 712T191 682T147 644Z" />
<glyph unicode="&#xeb;" horiz-adv-x="548" d="M170 294Q145 294 132 281T119 249T132 218T170 204Q191 204 212 204T257 204T308 204T367 204Q409 204 437 212T482 235T502 275T500 330Q490 385 460 424T383 486T282 508Q213 508 158 476T71 385T39 248Q39 167
73 109T164 20T291 -11Q319 -11 349 -6T411 11T473 41Q495 53 499 71T495 104T469 126T429 119Q405 106 382 97T335 84T291 79Q244 79 208 98T150 156T129 248Q129 299 148 337T202 397T282 418Q316 418 343 406T387 370T412 314Q414 304 412 300T404 295T389 293T367
294Q334 294 300 294T232 294T170 294ZM140 641Q140 618 153 607T185 595T216 606T230 641Q230 652 230 659T230 673T230 690Q230 713 217 724T185 736T154 725T140 690Q140 680 140 673T140 659T140 641ZM340 641Q340 618 353 607T385 595T416 606T430 641Q430
652 430 659T430 673T430 690Q430 713 417 724T385 736T354 725T340 690Q340 680 340 673T340 659T340 641Z" />
<glyph unicode="&#xec;" horiz-adv-x="231" d="M70 40Q70 15 83 2T115 -11T146 2T160 40Q160 63 160 83T160 122T160 165Q160 188 160 218T160 279T160 333Q160 356 160 374T160 412T160 458Q160 483 147 495T115 508T84 496T70 458Q70 433 70 412T70 372T70 333Q70
299 70 274T70 224T70 165Q70 146 70 126T70 84T70 40ZM98 581Q117 565 135 567T165 582T177 614T156 649Q144 660 132 670T107 691T81 713T55 735Q36 752 18 750T-12 734T-23 703T-3 667Q9 657 21 646T46 625T72 603T98 581Z" />
<glyph unicode="&#xed;" horiz-adv-x="231" d="M70 40Q70 15 83 2T115 -11T146 2T160 40Q160 63 160 83T160 122T160 165Q160 188 160 218T160 279T160 333Q160 356 160 374T160 412T160 458Q160 483 147 495T115 508T84 496T70 458Q70 433 70 412T70 372T70 333Q70
299 70 274T70 224T70 165Q70 146 70 126T70 84T70 40ZM237 667Q257 684 257 702T247 734T217 749T179 735Q166 724 153 713T128 692T103 671T78 649Q59 633 58 614T68 582T98 567T136 581Q149 592 162 603T187 624T212 646T237 667Z" />
<glyph unicode="&#xee;" horiz-adv-x="231" d="M70 40Q70 15 83 2T115 -11T146 2T160 40Q160 63 160 83T160 122T160 165Q160 188 160 218T160 279T160 333Q160 356 160 374T160 412T160 458Q160 483 147 495T115 508T84 496T70 458Q70 433 70 412T70 372T70 333Q70
299 70 274T70 224T70 165Q70 146 70 126T70 84T70 40ZM-23 650Q-43 635 -44 616T-34 583T-5 566T33 580Q58 602 75 619T102 647T117 656Q121 656 131 646T159 618T201 580Q220 564 238 566T267 583T278 616T257 650Q232 670 215 687T184 718T155 738T117 746Q96
746 81 739T52 718T21 688T-23 650Z" />
<glyph unicode="&#xef;" horiz-adv-x="231" d="M70 40Q70 15 83 2T115 -11T146 2T160 40Q160 63 160 83T160 122T160 165Q160 188 160 218T160 279T160 333Q160 356 160 374T160 412T160 458Q160 483 147 495T115 508T84 496T70 458Q70 433 70 412T70 372T70 333Q70
299 70 274T70 224T70 165Q70 146 70 126T70 84T70 40ZM-30 647Q-30 624 -17 613T15 601T46 612T60 647Q60 658 60 665T60 679T60 696Q60 719 47 730T15 742T-16 731T-30 696Q-30 686 -30 679T-30 665T-30 647ZM170 647Q170 624 183 613T215 601T246 612T260 647Q260
658 260 665T260 679T260 696Q260 719 247 730T215 742T184 731T170 696Q170 686 170 679T170 665T170 647Z" />
<glyph unicode="&#xf0;" horiz-adv-x="551" d="M257 732Q241 744 225 740T198 721T186 690T201 660Q233 634 248 622T280 593Q325 550 357 502T405 396T422 267Q422 231 412 198T383 138T335 96T270 80Q237 80 211 91T167 123T139 172T129 237Q129 272 139 301T168
351T212 383T265 395Q297 395 326 382T377 345T409 289T415 218Q412 193 423 179T453 162T486 170T505 206Q512 255 502 297T468 374T413 433T343 471T265 485Q220 485 180 468T107 417T57 339T39 237Q39 164 68 108T150 21T270 -10Q326 -10 370 12T446 73T495
162T512 267Q512 351 492 420T435 548T344 657Q332 669 320 680T293 703T257 732ZM461 619Q485 628 492 645T494 678T472 703T431 703Q384 686 338 670T247 637T159 604Q135 595 128 578T126 545T148 520T189 520Q224 533 259 545T328 570T395 595T461 619Z" />
<glyph unicode="&#xf1;" horiz-adv-x="568" d="M421 40Q421 15 434 2T466 -11T497 2T511 40Q511 65 511 86T511 128T511 175Q511 211 511 240T511 293Q511 345 496 385T454 452T391 494T311 508Q259 508 214 487T136 430T85 346T66 248Q66 223 66 196T66 141T66
89T66 40Q66 20 75 8T97 -9T124 -9T147 7T156 40Q156 58 156 91T156 164T156 241T156 305T156 338Q156 360 156 379T156 417T156 458Q156 483 143 496T111 509T80 496T66 458Q66 438 66 418T66 378T66 338Q66 328 66 301T66 238T66 163T66 92T66 40Q66 20 75 8T97
-9T124 -9T147 7T156 40Q156 63 156 93T156 155T156 213T156 258Q156 297 167 327T197 377T244 407T304 418Q342 418 368 404T407 363T421 293Q421 258 421 229T421 175Q421 155 421 132T421 85T421 40ZM460 702Q460 728 447 740T415 753T384 743T370 709Q370 691
368 680T363 665T353 660Q349 660 345 663T336 672T326 684T316 697Q303 714 282 730T227 747Q203 747 183 737T149 710T127 668T119 615Q119 590 132 577T163 563T194 572T209 602Q210 622 211 634T215 651T224 657Q229 657 234 653T244 643T256 627Q273 604 294
587T350 570Q375 570 395 580T429 608T452 650T460 702Z" />
<glyph unicode="&#xf2;" horiz-adv-x="577" d="M213 -1Q237 -9 253 0T276 26T274 59T242 85Q224 91 209 99T182 118T158 145Q144 166 137 192T129 249Q129 298 149 336T205 396T288 418Q335 418 371 397T427 337T448 249Q448 219 441 193T419 146Q402 122 383
109T334 85Q310 76 302 60T300 26T322 0T362 -1Q407 15 438 37T493 96Q515 128 526 166T538 249Q538 324 506 382T417 474T288 508Q217 508 161 475T72 383T39 249Q39 204 51 165T84 95Q108 59 139 37T213 -1ZM271 576Q290 560 308 562T338 577T350 609T329 644Q317
655 305 665T280 686T254 708T228 730Q209 747 191 745T161 729T150 698T170 662Q182 652 194 641T219 620T245 598T271 576Z" />
<glyph unicode="&#xf3;" horiz-adv-x="577" d="M213 -1Q237 -9 253 0T276 26T274 59T242 85Q224 91 209 99T182 118T158 145Q144 166 137 192T129 249Q129 298 149 336T205 396T288 418Q335 418 371 397T427 337T448 249Q448 219 441 193T419 146Q402 122 383
109T334 85Q310 76 302 60T300 26T322 0T362 -1Q407 15 438 37T493 96Q515 128 526 166T538 249Q538 324 506 382T417 474T288 508Q217 508 161 475T72 383T39 249Q39 204 51 165T84 95Q108 59 139 37T213 -1ZM410 662Q430 679 430 697T420 729T390 744T352 730Q339
719 326 708T301 687T276 666T251 644Q232 628 231 609T241 577T271 562T309 576Q322 587 335 598T360 619T385 641T410 662Z" />
<glyph unicode="&#xf4;" horiz-adv-x="577" d="M213 -1Q237 -9 253 0T276 26T274 59T242 85Q224 91 209 99T182 118T158 145Q144 166 137 192T129 249Q129 298 149 336T205 396T288 418Q335 418 371 397T427 337T448 249Q448 219 441 193T419 146Q402 122 383
109T334 85Q310 76 302 60T300 26T322 0T362 -1Q407 15 438 37T493 96Q515 128 526 166T538 249Q538 324 506 382T417 474T288 508Q217 508 161 475T72 383T39 249Q39 204 51 165T84 95Q108 59 139 37T213 -1ZM150 645Q130 630 129 611T139 578T168 561T206 575Q231
597 248 614T275 642T290 651Q294 651 304 641T332 613T374 575Q393 559 411 561T440 578T451 611T430 645Q405 665 388 682T357 713T328 733T290 741Q269 741 254 734T225 713T194 683T150 645Z" />
<glyph unicode="&#xf5;" horiz-adv-x="577" d="M213 -1Q237 -9 253 0T276 26T274 59T242 85Q224 91 209 99T182 118T158 145Q144 166 137 192T129 249Q129 298 149 336T205 396T288 418Q335 418 371 397T427 337T448 249Q448 219 441 193T419 146Q402 122 383
109T334 85Q310 76 302 60T300 26T322 0T362 -1Q407 15 438 37T493 96Q515 128 526 166T538 249Q538 324 506 382T417 474T288 508Q217 508 161 475T72 383T39 249Q39 204 51 165T84 95Q108 59 139 37T213 -1ZM460 696Q460 722 447 734T415 747T384 737T370 703Q370
685 368 674T363 659T353 654Q349 654 345 657T336 666T326 678T316 691Q303 708 282 724T227 741Q203 741 183 731T149 704T127 662T119 609Q119 584 132 571T163 557T194 566T209 596Q210 616 211 628T215 645T224 651Q229 651 234 647T244 637T256 621Q273 598
294 581T350 564Q375 564 395 574T429 602T452 644T460 696Z" />
<glyph unicode="&#xf6;" horiz-adv-x="577" d="M213 -1Q237 -9 253 0T276 26T274 59T242 85Q224 91 209 99T182 118T158 145Q144 166 137 192T129 249Q129 298 149 336T205 396T288 418Q335 418 371 397T427 337T448 249Q448 219 441 193T419 146Q402 122 383
109T334 85Q310 76 302 60T300 26T322 0T362 -1Q407 15 438 37T493 96Q515 128 526 166T538 249Q538 324 506 382T417 474T288 508Q217 508 161 475T72 383T39 249Q39 204 51 165T84 95Q108 59 139 37T213 -1ZM143 642Q143 619 156 608T188 596T219 607T233 642Q233
653 233 660T233 674T233 691Q233 714 220 725T188 737T157 726T143 691Q143 681 143 674T143 660T143 642ZM343 642Q343 619 356 608T388 596T419 607T433 642Q433 653 433 660T433 674T433 691Q433 714 420 725T388 737T357 726T343 691Q343 681 343 674T343
660T343 642Z" />
<glyph unicode="&#xf7;" horiz-adv-x="540" d="M224 456Q224 431 237 418T269 405T300 418T314 456Q314 471 314 477T314 489T314 510Q314 535 301 547T269 560T238 548T224 510Q224 495 224 489T224 477T224 456ZM80 353Q55 353 43 340T30 308T42 277T80 263Q118
263 161 263T251 263T351 263T460 263Q486 263 498 276T511 308T499 339T460 353Q422 353 379 353T289 353T189 353T80 353ZM224 110Q224 85 237 72T269 59T300 72T314 110Q314 125 314 131T314 143T314 164Q314 189 301 201T269 214T238 202T224 164Q224 149 224
143T224 131T224 110Z" />
<glyph unicode="&#xf8;" horiz-adv-x="577" d="M94 -6Q81 -28 86 -46T107 -73T141 -78T172 -52Q196 -11 227 44T292 160T360 284T426 403T483 504Q496 526 491 543T470 570T436 575T405 548Q381 506 350 451T285 333T216 210T151 92T94 -6ZM213 -1Q237 -9 253
0T275 26T274 60T242 85Q224 91 209 99T182 118T158 145Q145 166 137 192T129 249Q129 298 149 336T205 396T288 418Q336 418 372 397T428 337T448 249Q448 220 441 194T419 146Q408 130 396 119T369 100T334 85Q310 77 303 60T300 26T322 0T362 -1Q407 15 438
37T493 96Q515 128 526 166T538 249Q538 324 506 382T417 474T288 508Q217 508 161 475T72 383T39 249Q39 204 51 166T84 95Q108 59 139 37T213 -1Z" />
<glyph unicode="&#xf9;" horiz-adv-x="568" d="M147 458Q147 483 134 495T102 508T71 496T57 458Q57 424 57 380T57 290T57 207Q57 138 82 89T153 15T258 -11Q311 -11 355 8T433 59T484 134T503 224Q503 242 503 270T503 332T503 398T503 458Q503 478 494 490T472
506T445 506T422 490T413 458Q413 432 413 394T413 313T413 229T413 153Q413 137 413 119T413 81T413 38Q413 13 426 1T458 -12T489 0T503 38Q503 60 503 76T503 111T503 153Q503 176 503 216T503 302T503 389T503 458Q503 478 494 490T472 506T445 506T422 490T413
458Q413 432 413 397T413 327T413 264T413 224Q413 194 402 168T369 122T320 91T258 79Q222 79 197 93T160 136T147 207Q147 253 147 297T147 382T147 458ZM263 571Q282 555 300 557T330 572T342 604T321 639Q309 650 297 660T272 681T246 703T220 725Q201 742
183 740T153 724T142 693T162 657Q174 647 186 636T211 615T237 593T263 571Z" />
<glyph unicode="&#xfa;" horiz-adv-x="568" d="M147 458Q147 483 134 495T102 508T71 496T57 458Q57 424 57 380T57 290T57 207Q57 138 82 89T153 15T258 -11Q311 -11 355 8T433 59T484 134T503 224Q503 242 503 270T503 332T503 398T503 458Q503 478 494 490T472
506T445 506T422 490T413 458Q413 432 413 394T413 313T413 229T413 153Q413 137 413 119T413 81T413 38Q413 13 426 1T458 -12T489 0T503 38Q503 60 503 76T503 111T503 153Q503 176 503 216T503 302T503 389T503 458Q503 478 494 490T472 506T445 506T422 490T413
458Q413 432 413 397T413 327T413 264T413 224Q413 194 402 168T369 122T320 91T258 79Q222 79 197 93T160 136T147 207Q147 253 147 297T147 382T147 458ZM402 657Q422 674 422 692T412 724T382 739T344 725Q331 714 318 703T293 682T268 661T243 639Q224 623
223 604T233 572T263 557T301 571Q314 582 327 593T352 614T377 636T402 657Z" />
<glyph unicode="&#xfb;" horiz-adv-x="568" d="M147 458Q147 483 134 495T102 508T71 496T57 458Q57 424 57 380T57 290T57 207Q57 138 82 89T153 15T258 -11Q311 -11 355 8T433 59T484 134T503 224Q503 242 503 270T503 332T503 398T503 458Q503 478 494 490T472
506T445 506T422 490T413 458Q413 432 413 394T413 313T413 229T413 153Q413 137 413 119T413 81T413 38Q413 13 426 1T458 -12T489 0T503 38Q503 60 503 76T503 111T503 153Q503 176 503 216T503 302T503 389T503 458Q503 478 494 490T472 506T445 506T422 490T413
458Q413 432 413 397T413 327T413 264T413 224Q413 194 402 168T369 122T320 91T258 79Q222 79 197 93T160 136T147 207Q147 253 147 297T147 382T147 458ZM142 640Q122 625 121 606T131 573T160 556T198 570Q223 592 240 609T267 637T282 646Q286 646 296 636T324
608T366 570Q385 554 403 556T432 573T443 606T422 640Q397 660 380 677T349 708T320 728T282 736Q261 736 246 729T217 708T186 678T142 640Z" />
<glyph unicode="&#xfc;" horiz-adv-x="568" d="M147 458Q147 483 134 495T102 508T71 496T57 458Q57 424 57 380T57 290T57 207Q57 138 82 89T153 15T258 -11Q311 -11 355 8T433 59T484 134T503 224Q503 242 503 270T503 332T503 398T503 458Q503 478 494 490T472
506T445 506T422 490T413 458Q413 432 413 394T413 313T413 229T413 153Q413 137 413 119T413 81T413 38Q413 13 426 1T458 -12T489 0T503 38Q503 60 503 76T503 111T503 153Q503 176 503 216T503 302T503 389T503 458Q503 478 494 490T472 506T445 506T422 490T413
458Q413 432 413 397T413 327T413 264T413 224Q413 194 402 168T369 122T320 91T258 79Q222 79 197 93T160 136T147 207Q147 253 147 297T147 382T147 458ZM135 637Q135 614 148 603T180 591T211 602T225 637Q225 648 225 655T225 669T225 686Q225 709 212 720T180
732T149 721T135 686Q135 676 135 669T135 655T135 637ZM335 637Q335 614 348 603T380 591T411 602T425 637Q425 648 425 655T425 669T425 686Q425 709 412 720T380 732T349 721T335 686Q335 676 335 669T335 655T335 637Z" />
<glyph unicode="&#xfd;" horiz-adv-x="488" d="M122 -106Q114 -124 117 -139T130 -163T154 -175T181 -170T204 -144Q209 -133 214 -122T224 -98T235 -74T245 -50Q249 -41 253 -31T261 -12T269 4Q281 31 283 52T280 96T258 152T218 234Q208 255 195 284T166 346T135
412T105 477Q94 500 77 505T43 504T20 479T23 439Q37 409 53 375T84 308T114 245T138 194Q151 167 163 145T183 105T193 72T188 41Q185 33 181 25T173 7T165 -12Q160 -24 155 -35T144 -59T133 -83T122 -106ZM466 440Q477 463 470 480T446 504T412 505T384 476Q374
453 362 427T340 376T321 335Q305 298 286 256T249 173T214 98T188 40Q184 30 181 22T174 6T166 -12Q161 -23 156 -35T144 -59T133 -83T122 -106Q114 -124 117 -139T130 -163T154 -175T181 -170T204 -144Q209 -133 214 -122T225 -99T235 -76T245 -52Q249 -42 253
-33T262 -15T270 4Q285 37 308 88T356 195T403 299Q409 312 416 329T432 365T449 403T466 440ZM366 657Q386 674 386 692T376 724T346 739T308 725Q295 714 282 703T257 682T232 661T207 639Q188 623 187 604T197 572T227 557T265 571Q278 582 291 593T316 614T341
636T366 657Z" />
<glyph unicode="&#xfe;" horiz-adv-x="584" d="M66 -126Q66 -151 79 -164T111 -177T142 -164T156 -126Q156 -101 156 -61T156 29T156 136T156 250Q156 300 174 337T226 396T305 418Q338 418 366 406T414 370T445 316T456 248Q456 211 445 180T414 127T366 92T306
79Q274 79 247 90T200 120T168 160T156 203Q156 280 156 328T156 411T156 476T156 551Q156 585 156 606T156 646T156 695Q156 720 143 732T111 745T80 733T66 695Q66 668 66 646T66 601T66 545Q66 504 66 473T66 408T66 324T66 197Q66 162 83 126T133 58T209 8T306
-11Q356 -11 399 8T475 61T527 143T546 248Q546 324 515 382T429 474T305 508Q236 508 182 475T97 384T66 250Q66 219 66 176T66 86T66 -4T66 -80T66 -126Z" />
<glyph unicode="&#xff;" horiz-adv-x="488" d="M122 -106Q114 -124 117 -139T130 -163T154 -175T181 -170T204 -144Q209 -133 214 -122T224 -98T235 -74T245 -50Q249 -41 253 -31T261 -12T269 4Q281 31 283 52T280 96T258 152T218 234Q208 255 195 284T166 346T135
412T105 477Q94 500 77 505T43 504T20 479T23 439Q37 409 53 375T84 308T114 245T138 194Q151 167 163 145T183 105T193 72T188 41Q185 33 181 25T173 7T165 -12Q160 -24 155 -35T144 -59T133 -83T122 -106ZM466 440Q477 463 470 480T446 504T412 505T384 476Q374
453 362 427T340 376T321 335Q305 298 286 256T249 173T214 98T188 40Q184 30 181 22T174 6T166 -12Q161 -23 156 -35T144 -59T133 -83T122 -106Q114 -124 117 -139T130 -163T154 -175T181 -170T204 -144Q209 -133 214 -122T225 -99T235 -76T245 -52Q249 -42 253
-33T262 -15T270 4Q285 37 308 88T356 195T403 299Q409 312 416 329T432 365T449 403T466 440ZM99 637Q99 614 112 603T144 591T175 602T189 637Q189 648 189 655T189 669T189 686Q189 709 176 720T144 732T113 721T99 686Q99 676 99 669T99 655T99 637ZM299 637Q299
614 312 603T344 591T375 602T389 637Q389 648 389 655T389 669T389 686Q389 709 376 720T344 732T313 721T299 686Q299 676 299 669T299 655T299 637Z" />
<glyph unicode="&#x2013;" horiz-adv-x="555" d="M450 263Q476 263 488 276T501 308T489 339T450 353Q422 353 399 353T348 353T279 353Q251 353 222 353T164 353T105 353Q80 353 67 340T54 308T67 277T105 263Q135 263 158 263T209 263T279 263Q320 263 363 263T450
263Z" />
<glyph unicode="&#x2014;" horiz-adv-x="805" d="M700 263Q726 263 738 276T751 308T739 339T700 353Q669 353 648 353T602 353T538 353Q487 353 418 353T273 353Q246 353 218 353T161 353T105 353Q80 353 67 340T54 308T67 277T105 263Q132 263 154 263T204 263T273
263Q324 263 393 263T538 263Q565 263 590 263T643 263T700 263Z" />
<glyph unicode="&#x2018;" horiz-adv-x="274" d="M196 617Q211 643 207 662T186 690T152 695T120 668Q99 632 88 596T75 526T83 465T115 417Q134 400 154 401T187 415T200 449T176 489Q161 504 161 523T171 567T196 617Z" />
<glyph unicode="&#x2019;" horiz-adv-x="279" d="M79 474Q64 448 68 429T89 401T123 396T155 423Q176 459 187 495T200 565T192 626T160 674Q141 691 122 690T89 674T77 640T101 599Q116 585 116 566T105 523T79 474Z" />
<glyph unicode="&#x201a;" horiz-adv-x="274" d="M79 -86Q64 -112 68 -131T89 -159T123 -164T155 -137Q176 -101 187 -65T200 5T192 66T160 114Q141 131 122 130T89 114T77 80T101 39Q116 25 116 6T105 -37T79 -86Z" />
<glyph unicode="&#x201c;" horiz-adv-x="474" d="M396 617Q411 643 407 662T386 690T352 695T320 668Q299 632 288 596T275 526T283 465T315 417Q334 400 353 401T386 417T398 451T374 492Q359 507 359 526T370 568T396 617ZM196 617Q211 643 207 662T186 690T152
695T120 668Q99 632 88 596T75 526T83 465T115 417Q134 400 154 401T187 415T200 449T176 489Q161 504 161 523T171 567T196 617Z" />
<glyph unicode="&#x201d;" horiz-adv-x="474" d="M79 474Q64 448 68 429T89 401T123 396T155 423Q176 459 187 495T200 565T192 626T160 674Q141 691 122 690T89 674T77 640T101 599Q116 585 116 566T105 523T79 474ZM279 474Q264 448 268 429T289 401T323 396T355
423Q376 459 387 495T400 565T392 626T360 674Q341 691 321 690T288 676T276 642T299 602Q314 588 314 568T304 524T279 474Z" />
<glyph unicode="&#x201e;" horiz-adv-x="474" d="M79 -86Q64 -112 68 -131T89 -159T123 -164T155 -137Q176 -101 187 -65T200 5T192 66T160 114Q141 131 122 130T89 114T77 80T101 39Q116 25 116 6T105 -37T79 -86ZM279 -86Q264 -112 268 -131T289 -159T323 -164T355
-137Q376 -101 387 -65T400 5T392 66T360 114Q341 131 321 130T288 116T276 82T299 42Q314 28 314 8T304 -36T279 -86Z" />
<glyph unicode="&#x2022;" horiz-adv-x="552" d="M311 278Q322 265 338 267T367 281T382 312T369 349Q351 370 324 377T269 377T221 348T198 290Q195 251 211 225T256 184T316 170T378 184T428 229T450 307Q452 354 429 393T366 457T277 482Q227 482 187 457T122
391T98 303Q98 268 109 237T142 183T194 145Q217 135 233 141T256 164T260 197T238 223Q224 231 215 239T199 256T191 277T188 303Q188 328 199 348T230 380T277 392Q302 392 321 381T350 351T360 311Q359 294 352 283T333 266T312 259T294 262T288 277Q288 283
289 287T292 292T299 290T311 278Z" />
<glyph unicode="&#x2039;" horiz-adv-x="397" d="M327 424Q346 441 346 459T335 491T305 507T267 492Q249 476 232 460T196 427T157 392T115 353Q82 323 66 301T50 260T67 220T114 171Q144 145 169 121T219 74T267 30Q286 13 304 15T334 30T346 62T327 98Q304
119 280 141T230 187T174 237Q158 252 153 256T152 266T175 287Q197 307 216 324T254 359T291 392T327 424Z" />
<glyph unicode="&#x203a;" horiz-adv-x="397" d="M70 424Q88 408 106 392T142 359T180 325T222 287Q239 272 244 267T245 257T223 237Q194 211 168 187T118 141T70 98Q51 81 51 63T62 31T92 15T130 30Q154 51 177 73T227 120T283 171Q314 199 330 220T346 260T331
301T282 353Q260 373 240 391T202 427T166 460T130 492Q111 509 93 507T63 492T51 460T70 424Z" />
</font>
</defs>
</svg>
