<?xml version="1.0" standalone="no"?>
<!DOCTYPE svg PUBLIC "-//W3C//DTD SVG 1.1//EN" "http://www.w3.org/Graphics/SVG/1.1/DTD/svg11.dtd">
<svg xmlns="http://www.w3.org/2000/svg">
<defs >
<font id="MochiyPopPOne" horiz-adv-x="991" ><font-face
    font-family="Mochiy Pop P One"
    units-per-em="1000"
    panose-1="0 0 0 0 0 0 0 0 0 0"
    ascent="1160"
    descent="-288"
    alphabetic="0" />
<glyph unicode=" " glyph-name="space" horiz-adv-x="229" />
<glyph unicode="!" glyph-name="exclam" horiz-adv-x="384" d="M133 817L291 809Q288 772 285 716T278 592T272 455T268 324T266 214Q266 201 266 189T267 168L110 172Q109 189 109 210T109 258Q109 340 111 437T119 632T133 817ZM184 -83Q145 -83 119 -56T92
12Q92 52 119 79T187 106Q226 106 252 78T279 8Q279 -33 253 -58T184 -83Z" />
<glyph unicode="&quot;" glyph-name="quotedbl" horiz-adv-x="503" d="M399 549L278 555Q279 577 280 614T283 692T285 767T286 817L413 814Q412 801 411 774T407 712T404 644T401 584T399 549ZM102 550Q101 577 99 616T95 696T92 768T90 812L218 816Q218 795
218 757T220 677T221 600T222 554L102 550Z" />
<glyph unicode="#" glyph-name="numbersign" horiz-adv-x="976" d="M61 123L46 284Q82 291 125 296T215 306Q224 384 234 460Q189 456 148 452T73 442L67 610Q113 615 161 620T258 629Q266 685 274 733T288 815L455 806Q448 779 441 736T424 639Q465 640 506 641T588
642Q593 642 598 642Q605 695 612 739T625 815L792 806Q785 779 778 736T763 637Q805 635 847 632T930 622L913 461Q876 465 833 468T742 472Q737 435 733 396T724 317Q774 316 817 313T895 306L877 143Q837 147 794 149T706 153Q700 98 695 45T685 -55L520 -49Q524
-2 529 49T540 155Q450 154 360 150Q353 96 348 45T337 -53L176 -47Q180 -4 185 43T195 138Q122 132 61 123ZM400 469Q395 432 390 394T380 317Q425 318 469 319T558 320Q563 359 567 397T576 474Q488 473 400 469Z" />
<glyph unicode="$" glyph-name="dollar" horiz-adv-x="705" d="M287 -97Q285 -67 283 -31Q205 -12 145 28T44 112L126 282Q148 240 189 203T278 141Q277 184 277 229T276 319Q248 329 222 340T180 360Q155 374 126 399T77 460T57 542Q57 607 86 658T166 742T283
779Q285 815 287 837L436 832Q433 806 431 767Q490 754 538 733T616 691L542 533Q523 553 493 571T426 602Q425 564 425 522T425 436Q445 428 466 419T509 396Q547 375 581 346T636 274T657 173Q657 127 633 81T558 0T430 -42Q430 -72 430 -88L287 -97ZM215 552Q215
516 277 488Q277 556 278 616Q215 601 215 552ZM498 182Q498 208 475 228T426 261Q426 223 426 187T428 117Q498 129 498 182Z" />
<glyph unicode="%" glyph-name="percent" horiz-adv-x="943" d="M188 -94L69 -2Q92 26 134 79T232 202T347 348T468 501T580 644T671 760T727 830L842 739Q827 720 794 679T716 580T619 456T512 320T405 184T309 61T233 -36T188 -94ZM211 355Q155 355 117 378T56
438T23 513T13 585Q13 614 22 654T54 733T115 798T215 824Q313 824 368 764T424 596Q424 524 398 470T323 385T211 355ZM215 499Q279 499 279 596Q279 679 217 679Q190 679 174 654T158 584Q158 550 175 525T215 499ZM706 -90Q647 -90 607 -67T543 -8T507 67T496
140Q496 173 506 215T540 297T604 363T705 389Q774 389 824 361T902 282T930 160Q930 84 903 28T825 -59T706 -90ZM708 55Q744 55 764 81T784 153Q784 196 766 221T717 247Q686 247 670 230T648 191T642 149Q642 55 708 55Z" />
<glyph unicode="&amp;" glyph-name="ampersand" horiz-adv-x="858" d="M780 -89Q755 -73 707 -42T597 32Q547 -20 477 -49T310 -79Q177 -79 101 -18T25 150Q25 164 28 191T46 253T95 326T192 400L196 402Q168 444 152 485T136 565Q136 637 163 685T235 761T330
801T429 813Q472 813 517 803T600 772T661 715T684 628Q684 572 663 531T598 454T485 380Q469 371 450 362Q474 339 503 315T562 265Q578 300 590 343T611 438L766 411Q751 345 733 283T688 167Q743 127 791 95T871 46L780 -89ZM295 581Q295 549 307 523T338 475Q390
501 431 524T496 572T520 628Q520 664 430 664Q418 664 396 661T351 650T312 625T295 581ZM177 157Q177 111 208 90T314 69Q352 69 391 83T468 129Q422 165 377 205T292 286Q242 261 210 230T177 157Z" />
<glyph unicode="&apos;" glyph-name="quotesingle" horiz-adv-x="330" d="M217 532L90 538Q90 561 91 600T94 682T97 762T98 814L246 808Q245 795 242 767T235 702T227 631T220 569T217 532Z" />
<glyph unicode="(" glyph-name="parenleft" horiz-adv-x="442" d="M269 -118Q172 -13 131 109T90 353Q90 437 106 516T149 665T211 790T284 881L395 780Q326 696 286 587T246 361Q246 259 281 160T393 -22L269 -118Z" />
<glyph unicode=")" glyph-name="parenright" horiz-adv-x="429" d="M176 -118L47 -34Q115 55 149 166T183 392Q183 496 156 595T73 777L193 879Q264 785 301 657T339 391Q339 255 300 122T176 -118Z" />
<glyph unicode="*" glyph-name="asterisk" horiz-adv-x="468" d="M100 488L19 552Q35 572 70 605T150 678Q111 710 78 737T24 780L91 862Q115 842 175 792Q176 820 176 845T178 891L283 884Q281 849 279 786Q313 813 340 833T381 863L440 776Q414 759 381 733T311
677Q353 642 390 610T449 558L379 479Q362 495 336 518T279 569Q279 512 282 476L178 469Q177 487 176 510T175 559Q149 536 130 518T100 488Z" />
<glyph unicode="+" glyph-name="plus" horiz-adv-x="930" d="M55 312L47 467Q105 469 192 471T378 474Q379 569 380 651T384 788H544Q542 770 541 728T539 628T538 503Q538 489 538 476Q578 476 616 476Q693 476 762 476T877 473V319Q855 319 809 320T718 321Q676
321 631 321T539 320Q540 242 541 172T543 50T546 -25L386 -28Q382 41 381 131T378 318Q288 317 205 316T55 312Z" />
<glyph unicode="," glyph-name="comma" horiz-adv-x="273" d="M131 -148L43 -97Q66 -87 88 -74T121 -43H116Q98 -43 79 -34T46 -6T32 42Q32 64 43 88T80 129T149 147Q204 147 227 117T251 41Q251 15 239 -21T200 -93T131 -148Z" />
<glyph unicode="-" glyph-name="hyphen" horiz-adv-x="469" d="M53 170L50 312Q90 316 150 318T271 320Q314 320 352 319T419 316L417 176Q392 176 363 176T302 177Q238 177 172 176T53 170Z" />
<glyph unicode="." glyph-name="period" horiz-adv-x="291" d="M144 -81Q106 -81 81 -64T44 -20T32 36Q32 91 67 120T151 150Q201 150 230 120T259 40Q259 -24 225 -52T144 -81Z" />
<glyph unicode="/" glyph-name="slash" horiz-adv-x="390" d="M122 -120L24 -92Q43 -18 66 71T114 255T165 442T214 617T256 764T287 867L387 837Q371 791 350 720T305 563T255 384T205 199T159 25T122 -120Z" />
<glyph unicode="0" glyph-name="zero" horiz-adv-x="765" d="M366 -78Q290 -78 230 -43T129 54T65 192T43 352Q43 451 70 538T150 695T275 809L289 779Q338 804 395 804Q477 804 538 769T640 673T701 537T722 382Q722 263 692 176T610 33T496 -50T366 -78ZM207
343Q207 307 214 262T241 177T292 110T376 83Q431 83 472 120T536 225T560 380Q560 468 534 524T468 608T388 636Q367 636 348 624T318 592L304 622Q257 575 237 527T212 433T207 343Z" />
<glyph unicode="1" glyph-name="one" horiz-adv-x="668" d="M431 -74L268 -59Q273 -1 277 71T285 219T289 365T292 489T293 571Q293 581 291 581Q288 581 281 570Q271 554 260 533T241 494L125 609Q184 706 241 759T345 813Q383 813 404 795T435 747T448 681T451
609Q451 593 451 544T449 422T446 266T440 94T431 -74Z" />
<glyph unicode="2" glyph-name="two" horiz-adv-x="735" d="M100 -76Q90 -37 79 4T58 76Q169 138 251 210T387 353T467 482T494 573Q494 611 469 632T400 654Q341 654 281 612T168 493L63 619Q108 673 158 716T267 784T391 810Q463 810 523 785T619 710T655 586Q655
516 619 435T519 272T373 120Q406 121 440 121Q506 121 561 114T675 91L642 -63Q593 -51 538 -43T412 -35Q328 -35 245 -44T100 -76Z" />
<glyph unicode="3" glyph-name="three" horiz-adv-x="763" d="M378 -77Q271 -77 195 -43T63 37L142 180Q176 144 218 124T303 95T378 86Q440 86 480 115T521 191Q521 224 499 250T437 290T348 305H334Q317 305 300 304T265 301L262 375L255 459Q377 464 442 496T507
583Q507 612 471 631T377 651Q273 651 170 576L88 720Q132 752 183 772T285 803T379 813Q467 813 532 786T633 708T669 590Q669 512 636 464T544 389Q610 361 651 309T693 186Q693 125 667 77T597 -6T496 -59T378 -77Z" />
<glyph unicode="4" glyph-name="four" horiz-adv-x="750" d="M338 142Q287 142 235 144T140 160T70 203T44 287Q44 323 62 375T108 486T170 606T236 722T292 820L426 744Q427 775 427 802L589 800Q583 698 577 570T563 313Q605 317 647 324T730 341L739 175Q691
168 645 162T554 152Q551 90 548 33T542 -74L372 -70Q378 -23 383 31T394 143Q365 142 338 142ZM281 302Q301 301 320 301T357 301Q381 301 405 302Q413 417 418 530T426 734Q399 696 368 645T306 538T253 436Q234 396 222 371T210 331Q210 317 226 311T281 302Z"
/>
<glyph unicode="5" glyph-name="five" horiz-adv-x="774" d="M276 278L112 288Q117 344 125 409T141 543T159 678T176 800L341 796Q339 786 337 774Q385 777 439 779T544 783T633 784Q652 784 667 784T691 783L683 619Q664 620 644 620T601 620Q533 620 458 617T313
608Q309 576 306 543T298 478Q334 496 371 502T443 508Q525 508 586 475T682 381T716 241Q716 142 677 71T564 -39T388 -78Q294 -78 208 -36T67 81L178 202Q277 85 389 85Q469 85 511 125T553 238Q553 296 519 327T421 358Q367 358 337 342T294 307T276 278Z" />
<glyph unicode="6" glyph-name="six" horiz-adv-x="710" d="M353 -78Q257 -78 188 -41T82 67T45 235Q45 331 68 407T130 544T217 649T315 727T410 782T490 818L565 661Q481 635 418 595T311 507T240 410Q316 472 428 472Q461 472 504 461T588 422T654 350T681
238Q681 141 641 70T528 -39T353 -78ZM393 328Q361 328 326 316T258 272T199 185Q228 73 363 73Q424 73 458 96T505 154T519 220Q519 273 487 300T393 328Z" />
<glyph unicode="7" glyph-name="seven" horiz-adv-x="751" d="M377 -74L214 -16Q246 33 279 94T345 222T407 352T459 472T499 569Q509 595 515 611T522 635Q522 640 514 642T482 644Q455 644 413 641T324 633T232 619Q240 563 255 506T293 396L134 364Q109 424
93 496T69 641T61 778V806L218 817Q218 796 219 776Q263 784 315 789T418 798T513 802Q539 802 570 800T630 787T676 753T694 688Q694 659 677 603T632 475T570 323T500 168T432 29T377 -74Z" />
<glyph unicode="8" glyph-name="eight" horiz-adv-x="752" d="M353 -78Q336 -78 300 -76T219 -65T135 -34T68 26T41 125Q41 187 81 252T185 378Q129 419 98 468T67 587Q67 626 84 665T135 738T221 791T343 811Q419 811 471 789T558 733T616 662Q635 669 650 673L714
516Q641 498 574 467T450 400Q461 393 472 386T496 370Q535 345 571 317T632 249T656 148Q656 86 631 45T567 -20T486 -57T407 -74T353 -78ZM307 493Q311 490 314 488Q354 517 394 543T472 591Q437 658 352 658Q298 658 265 639T232 588Q232 569 252 543T307 493ZM205
139Q205 114 227 100T280 80T339 74Q359 74 385 77T435 89T475 111T491 146Q491 164 472 184T408 235Q385 250 361 265T313 295Q262 247 234 205T205 139Z" />
<glyph unicode="9" glyph-name="nine" horiz-adv-x="768" d="M270 236Q261 236 234 239T173 254T107 294T53 367T31 487Q31 563 54 618T115 710T198 770T288 802T368 812Q479 812 561 772Q570 792 579 811L734 739Q670 621 625 488T549 213T500 -72L335 -43Q346
39 360 117T393 269Q358 247 326 242T270 236ZM193 491Q193 445 217 420T286 395Q395 395 478 565Q488 594 499 622Q445 653 382 653Q297 653 245 609T193 491Z" />
<glyph unicode=":" glyph-name="colon" horiz-adv-x="291" d="M144 556Q106 556 81 573T44 616T32 672Q32 700 44 726T83 770T151 787Q207 787 233 754T259 677Q259 613 225 585T144 556ZM144 -28Q106 -28 81 -11T44 32T32 89Q32 117 44 143T83 186T151 203Q207
203 233 170T259 93Q259 29 225 1T144 -28Z" />
<glyph unicode=";" glyph-name="semicolon" horiz-adv-x="291" d="M144 558Q106 558 81 575T44 618T32 674Q32 702 44 728T83 772T151 789Q207 789 233 756T259 679Q259 615 225 587T144 558ZM132 -87L44 -35Q67 -26 89 -13T122 19H116Q99 19 80 28T47 55T33 103Q33
125 44 149T80 191T149 209Q205 209 228 179T252 102Q252 76 239 40T200 -31T132 -87Z" />
<glyph unicode="&lt;" glyph-name="less" horiz-adv-x="611" d="M444 -33Q421 -9 386 28T307 111T218 204T127 294T42 368Q72 400 112 444T197 540T283 641T360 735T415 811L559 707Q539 678 510 641T448 564T382 485T322 416T276 367Q370 276 427 222T513 140T553
103T562 94T558 97Q558 97 558 97T558 97Q556 99 556 98T566 85L444 -33Z" />
<glyph unicode="=" glyph-name="equal" horiz-adv-x="906" d="M53 454L50 615Q175 619 319 621T601 624Q738 624 853 621L852 461Q797 461 746 461T644 462Q501 462 358 460T53 454ZM56 165L53 326Q117 328 198 329T369 331T548 332T715 333Q754 333 790 333T856
332L854 172Q810 172 765 172T676 173Q515 173 357 170T56 165Z" />
<glyph unicode="&gt;" glyph-name="greater" horiz-adv-x="586" d="M179 -31L45 83Q72 119 106 161T177 245T247 323T303 383Q281 406 251 441T187 516T122 594T69 661T40 706L185 806Q222 758 267 702T361 589T456 477T543 377Q481 322 418 252T295 107T179 -31Z" />
<glyph unicode="?" glyph-name="question" horiz-adv-x="925" d="M537 138L379 140Q378 154 378 175T377 218Q377 278 390 318T440 384T553 430Q596 441 624 449T668 469T690 499T697 553Q697 625 640 640Q612 648 566 652T476 656Q439 656 397 654T318 644T258
622T235 581Q235 558 250 532T289 485L144 402Q110 437 89 486T68 590Q68 626 83 664T135 734T235 785Q281 799 344 806T476 814Q535 814 595 807T707 782Q794 752 825 695T857 559Q857 456 815 391T670 303Q646 298 619 294T571 281T543 250Q535 225 535 178Q535
168 535 158T537 138ZM459 -91Q414 -91 390 -63T365 3Q365 44 392 71T460 99Q503 99 528 73T554 4Q554 -39 529 -65T459 -91Z" />
<glyph unicode="@" glyph-name="at" horiz-adv-x="1026" d="M503 -93Q387 -93 307 -65T175 10T95 109T57 215T46 306Q46 431 87 528T202 692T374 793T585 828Q687 828 757 803T871 737T938 647T971 551T980 465Q980 450 976 412T958 326T920 231T855 148T755 102L814
-17Q750 -56 675 -74T503 -93ZM412 89Q394 89 368 96T317 122T274 175T257 263Q257 326 277 386T331 497T408 587T500 647T595 669Q641 669 666 653T709 613L791 585Q772 554 756 514T729 431T711 349T705 281Q705 235 717 235Q739 235 760 256T799 312T827 391T838
478Q838 548 813 591T746 657T659 688T570 696Q497 696 428 672T305 599T218 481T186 320Q186 250 207 202T263 122T339 74T422 51T497 44Q563 44 618 57T725 98Q718 98 711 98Q693 98 670 106T624 135T588 195Q541 140 494 115T412 89ZM396 282Q396 256 403 240T424
224Q436 224 469 256T542 353T615 510Q616 513 617 517Q610 539 593 539Q558 539 523 514T460 448T414 364T396 282Z" />
<glyph unicode="A" glyph-name="A" horiz-adv-x="868" d="M191 -71L20 -39Q68 155 120 312T229 581T343 753T461 814Q580 814 680 594T850 -45L673 -69Q661 -3 647 66T618 202Q594 203 566 203Q517 203 463 201T356 195T258 185Q239 121 222 56T191 -71ZM375 513Q353
466 316 361Q359 366 407 368T501 371Q540 371 576 369Q562 420 550 460T527 523Q506 577 490 599T457 622Q439 622 421 599T375 513Z" />
<glyph unicode="B" glyph-name="B" horiz-adv-x="833" d="M86 -69Q85 -58 85 -45T85 -15Q85 28 87 87T93 214T101 350T109 482T118 595Q96 588 79 582L53 750Q166 782 263 798T440 814Q601 814 686 753T771 576Q771 510 742 466T660 392Q790 326 790 177Q790 111
766 67T703 -5T623 -45T543 -63T484 -68Q432 -68 373 -58T258 -28Q258 -48 258 -66L86 -69ZM444 647Q408 647 369 644T290 633Q284 560 278 463Q291 462 304 462T332 462Q596 462 596 570Q596 606 556 626T444 647ZM355 304Q334 304 313 304T269 303Q267 259 266
215T262 128Q318 111 372 104T465 96Q548 96 584 116T620 184Q620 242 552 273T355 304Z" />
<glyph unicode="C" glyph-name="C" horiz-adv-x="892" d="M442 -80Q320 -80 230 -27T91 124T42 353Q42 403 54 464T95 587T170 700T285 782T445 814Q524 814 583 795T685 746T756 684T802 626T827 587L682 476Q660 517 630 556T556 622T447 648Q380 648 336 618T267
542T231 445T221 349Q221 302 231 256T265 172T331 112T436 89Q506 89 550 114T625 184T681 291L845 217Q801 126 746 59T617 -44T442 -80Z" />
<glyph unicode="D" glyph-name="D" horiz-adv-x="797" d="M209 -79L41 -64L78 623Q52 617 30 609L0 779Q53 790 131 802T292 814Q356 814 422 801T548 757T656 675T731 550T759 375Q759 233 714 133T582 -21T373 -74Q292 -74 213 -44Q211 -64 209 -79ZM285 646Q271
646 256 646Q246 460 238 330T224 112Q254 102 290 95T367 87Q448 87 497 128T569 236T591 383Q591 446 572 490T523 563T456 608T386 633T324 643T285 646Z" />
<glyph unicode="E" glyph-name="E" horiz-adv-x="839" d="M396 -74Q320 -74 260 -64T157 -24T93 63T71 212Q71 279 78 351T95 490T116 611Q96 608 82 605L63 764Q112 773 176 779T313 791T458 798T593 801Q643 801 684 800T753 795L745 628Q718 633 672 635T569
638Q502 638 426 635T281 628Q273 586 267 542T256 455Q314 463 383 467T522 474T646 477Q678 477 703 477T744 474L740 310Q727 311 705 311T652 312Q609 312 556 311T447 307T337 301T241 292Q237 236 237 202Q237 153 250 130T293 101T374 94Q463 94 565 109T768
156L779 -18Q659 -51 562 -62T396 -74Z" />
<glyph unicode="F" glyph-name="F" horiz-adv-x="841" d="M69 -69Q68 -61 68 -48T67 -18Q67 23 69 82T76 212T85 355T95 495T106 616Q90 614 75 612L53 782Q157 796 274 802T504 808Q588 808 665 805T805 795L790 629Q744 638 685 641T558 645Q488 645 414 642T269
633Q265 593 262 550T255 461Q307 468 370 471T497 474Q569 474 632 470T730 456L718 295Q648 303 587 306T468 310Q355 310 245 295Q239 190 236 95T230 -65L69 -69Z" />
<glyph unicode="G" glyph-name="G" horiz-adv-x="919" d="M411 -47Q307 -47 236 -11T123 86T61 217T42 358Q42 441 69 522T150 669T286 775T477 815Q569 815 638 789T756 725T836 654L711 519Q683 552 652 581T577 628T471 646Q403 646 354 622T274 556T229 464T214
359Q214 295 235 241T300 154T409 121Q489 121 541 158T613 264Q570 261 531 257T460 247L443 409Q502 422 579 428T728 435Q826 435 875 423L871 259Q850 265 804 268Q804 246 804 222T805 173Q805 104 803 37T799 -70L628 -66Q629 -53 631 -26T637 35Q603 -1
549 -24T411 -47Z" />
<glyph unicode="H" glyph-name="H" horiz-adv-x="875" d="M88 -72Q79 -16 75 65T71 240Q71 337 74 439T83 635T96 803L270 800Q259 730 253 645T242 467Q313 477 396 482T556 487Q593 487 627 485Q626 560 624 625T619 735T612 797L784 808Q793 724 798 607T804
359Q804 253 800 144T786 -67H619Q623 -35 625 20T628 146T629 294Q629 308 629 323Q610 323 591 323T551 324Q472 324 392 319T238 303Q238 271 238 239Q238 151 239 74T245 -66L88 -72Z" />
<glyph unicode="I" glyph-name="I" horiz-adv-x="290" d="M70 -69Q62 -17 57 57T49 218T46 395Q46 508 50 615T62 803L246 800Q235 729 230 633T224 415Q224 291 228 166T239 -63L70 -69Z" />
<glyph unicode="J" glyph-name="J" horiz-adv-x="729" d="M376 -77Q243 -77 162 3T44 249L216 301Q243 94 367 94Q411 94 436 115T473 171T488 245T491 321Q491 372 488 435T476 583T445 783L631 814Q638 760 646 683T660 518T666 348Q666 305 663 249T645 136T600
31T515 -47T376 -77Z" />
<glyph unicode="K" glyph-name="K" horiz-adv-x="847" d="M65 -71Q62 16 62 125Q62 227 65 341T75 573T92 803L266 800Q257 730 251 658T240 512Q282 541 341 579T469 657T605 733T734 794L783 624Q722 599 661 569T544 510T445 454T377 408T352 379Q352 366 391
335T497 262T649 174T827 84L734 -70Q620 -11 525 48T355 161T231 252Q231 215 231 178Q231 111 232 49T236 -68L65 -71Z" />
<glyph unicode="L" glyph-name="L" horiz-adv-x="830" d="M362 -73Q263 -73 205 -56T119 -9T83 63T74 153Q74 233 78 336T90 557T107 803L289 785Q279 708 272 628T259 471T251 333T247 230T245 176Q245 141 253 124T285 100T355 94Q413 94 486 101T634 124T771
160L810 -12Q742 -29 664 -43T507 -65T362 -73Z" />
<glyph unicode="M" glyph-name="M" horiz-adv-x="981" d="M47 -73Q44 26 44 117Q44 281 54 414T83 640Q92 683 108 723T155 788T236 814Q285 814 319 789T374 727T406 658Q432 580 450 502T482 353Q492 405 505 462T531 571T555 657Q606 814 712 814Q771 814 812
772T872 649Q881 613 890 544T908 381T923 172T934 -70L758 -66Q758 -13 756 57T749 202T739 350T728 480T717 572T708 607Q707 607 698 572T675 477T645 347T614 205T586 73T567 -26L410 -30Q398 26 382 93T348 231T313 367T282 485T258 567T247 598Q243 598 239
555T230 437T224 270T221 78Q221 31 221 -8T223 -72L47 -73Z" />
<glyph unicode="N" glyph-name="N" horiz-adv-x="915" d="M72 -73Q72 83 76 208T88 437T105 630T124 802L296 795Q292 764 287 728Q321 682 361 623T444 499T528 368T606 243T671 136Q678 205 678 330Q678 394 676 462T671 592T663 704T652 782L840 805Q842 756
842 677T843 508Q843 429 842 350T838 203T829 92Q818 6 785 -35T692 -76Q643 -76 603 -42T515 70Q483 124 441 194T353 339T265 480Q257 363 253 247T249 36Q249 6 249 -20T250 -70L72 -73Z" />
<glyph unicode="O" glyph-name="O" horiz-adv-x="917" d="M470 -67Q376 -67 299 -33T166 63T80 202T50 367Q50 447 74 524T147 665T271 767T450 805Q557 805 636 769T766 671T842 533T867 375Q867 278 838 197T756 57T630 -35T470 -67ZM470 100Q530 100 581 129T663
222T694 386Q694 473 660 529T572 612T459 639Q392 639 346 615T272 551T232 460T220 357Q220 305 240 259T294 177T374 121T470 100Z" />
<glyph unicode="P" glyph-name="P" horiz-adv-x="822" d="M129 -67Q128 -35 128 -3T128 62Q128 209 134 347T148 612Q108 602 81 593L42 753Q91 768 145 779T252 798T349 809T423 813Q454 813 499 808T593 788T684 741T752 658T779 526Q779 444 743 390T648 303T518
256T378 242Q334 242 294 246Q293 198 293 151Q293 87 294 33T298 -63L129 -67ZM418 649Q392 649 365 647T310 642Q305 589 302 527T297 400Q334 397 374 397Q614 397 614 539Q614 595 566 622T418 649Z" />
<glyph unicode="Q" glyph-name="Q" horiz-adv-x="910" d="M436 -74Q319 -74 230 -19T92 135T42 365Q42 461 72 542T156 683T283 777T443 810Q636 810 740 692T845 355Q845 203 781 99Q825 70 866 55L763 -78Q711 -53 661 -19Q567 -74 436 -74ZM436 92Q457 92 480
94T526 101Q486 146 453 194T393 293L548 360Q560 326 587 286T652 207Q665 236 672 275T680 365Q680 501 619 571T442 642Q330 642 268 565T206 345Q206 278 227 230T284 152T359 107T436 92Z" />
<glyph unicode="R" glyph-name="R" horiz-adv-x="870" d="M125 -69Q122 -1 122 81Q122 160 125 249T134 429T150 608Q134 604 120 601T93 593L42 752Q284 809 445 809Q772 809 772 560Q772 443 694 375T465 288Q556 211 648 162T836 78L726 -69Q673 -50 615 -16T500
59T392 142T300 220Q299 151 299 81T298 -65L292 -71Q254 -71 211 -71T132 -75L125 -69ZM436 650Q408 650 378 648T318 641Q314 585 311 531T306 422Q350 423 401 427T499 445T574 485T604 554Q604 604 563 627T436 650Z" />
<glyph unicode="S" glyph-name="S" horiz-adv-x="789" d="M427 -80Q343 -80 271 -55T142 11T41 101L141 260Q154 226 184 195T256 140T342 102T432 88Q498 88 537 109T576 167Q576 195 559 213T519 243T480 264Q468 270 437 282T366 310T292 338T237 361Q88 428
88 568Q88 613 105 656T159 736T251 793T385 814Q470 814 536 796T652 749T739 690L647 536Q536 646 396 646Q337 646 307 634T266 606T255 580Q255 563 267 546T324 510Q342 502 372 491T440 465T514 436T581 404Q617 384 655 355T719 284T746 180Q746 143 732
99T683 13T586 -54T427 -80Z" />
<glyph unicode="T" glyph-name="T" horiz-adv-x="883" d="M350 -74Q343 13 341 95T338 250Q338 371 343 467T353 634Q267 629 186 621T36 600L38 767Q155 788 278 797T524 807Q612 807 692 803T847 791L846 618Q776 629 695 633T528 638Q523 570 519 487T515 308Q515
223 519 129T531 -69L350 -74Z" />
<glyph unicode="U" glyph-name="U" horiz-adv-x="828" d="M413 -78Q317 -78 254 -48T154 36T98 160T74 310T68 472Q68 565 74 653T87 802L271 791Q261 718 256 661T248 552T246 447Q246 405 247 357T256 261T280 175T327 113T406 89Q458 89 490 112T541 175T567
263T576 362T578 458Q578 543 573 623T560 793L744 807Q752 711 756 632T760 485Q760 394 754 310T727 156T669 33T569 -49T413 -78Z" />
<glyph unicode="V" glyph-name="V" horiz-adv-x="888" d="M419 -80Q333 -80 251 71Q184 195 130 376T22 789L203 813Q231 679 264 556T333 333T402 170Q410 154 417 144T427 133Q431 133 437 142T456 174Q490 235 529 333T610 555T687 816L865 783Q820 624 773
489T681 248T598 71Q517 -80 419 -80Z" />
<glyph unicode="W" glyph-name="W" horiz-adv-x="978" d="M303 -80Q254 -80 210 -23T138 131Q119 202 100 302T65 527T42 796L214 804Q219 711 227 620T247 448T270 303T295 198Q298 189 299 184T302 177Q303 181 305 190T311 209Q326 262 344 349T379 544T404
768Q403 776 403 784L581 785Q590 634 604 525T634 340T665 209Q666 206 667 201T670 190Q672 195 674 202T678 219Q690 262 702 327T726 472T747 635T764 798H940Q936 732 927 657T905 505T880 357T853 225T828 125Q801 29 760 -25T671 -79Q622 -79 588 -38T518
101Q509 126 500 164T480 248Q467 192 456 148T435 75Q416 17 397 -17T356 -65T303 -80Z" />
<glyph unicode="X" glyph-name="X" horiz-adv-x="936" d="M172 -85L47 44Q97 106 176 197T345 387Q255 482 176 562T48 691L177 813Q224 767 300 688T464 515Q544 599 620 675T760 805L885 679Q823 626 745 550T584 388Q673 293 754 203T893 47L755 -81Q701 -8
625 81T464 260Q376 165 299 75T172 -85Z" />
<glyph unicode="Y" glyph-name="Y" horiz-adv-x="929" d="M380 -65Q379 -33 379 2T378 77Q378 129 379 185T383 296Q328 324 278 377T182 496T101 628T40 747L205 814Q222 770 249 720T308 620T371 532T428 468T468 444Q483 444 505 465T553 520T605 596T655 680T696
759T722 819L890 755Q862 701 826 634T747 499T656 378T556 296Q554 246 554 178Q554 111 555 45T558 -68Q540 -68 515 -68T464 -69T417 -70T386 -71L380 -65Z" />
<glyph unicode="Z" glyph-name="Z" horiz-adv-x="859" d="M104 -79Q99 -61 90 -35T71 19T48 66L51 72Q64 76 76 79Q156 146 227 217T359 357T465 481T538 575T572 621Q576 628 579 632T583 639Q581 639 576 639T558 640Q537 640 487 637T369 629T226 615T80 596L59
770Q149 783 243 791T425 804T582 809Q615 809 652 806T720 793T772 761T792 699Q792 640 736 560Q678 475 611 395T477 244T354 120Q390 122 427 122T504 123Q593 123 673 118T813 101L783 -71Q715 -60 634 -56T468 -51Q371 -51 276 -58T104 -79Z" />
<glyph unicode="[" glyph-name="bracketleft" horiz-adv-x="424" d="M108 -82Q108 -44 108 -2T107 87Q107 184 109 290T114 499T124 694T140 854Q173 857 217 858T305 861T381 862L380 707Q349 707 329 706T281 703Q279 671 277 618T271 498T266 363T263 229T261
115V71Q270 71 283 71T310 70Q324 70 338 70T363 71L360 -82Q334 -83 299 -84T228 -85Q193 -85 161 -84T108 -82Z" />
<glyph unicode="\" glyph-name="backslash" horiz-adv-x="390" d="M268 -120Q253 -57 232 25T186 199T136 384T86 563T40 720T3 837L103 867Q115 829 134 765T176 618T224 443T275 255T324 71T366 -92L268 -120Z" />
<glyph unicode="]" glyph-name="bracketright" horiz-adv-x="417" d="M44 -85L43 71H70Q89 71 108 71T140 72Q139 124 138 184T137 306Q137 416 139 524T145 712Q135 711 124 711T101 711Q91 711 80 711T58 712L57 867L310 864Q306 745 302 639T296 431T293 227Q293
81 299 -84Q237 -84 170 -84T44 -85Z" />
<glyph unicode="^" glyph-name="asciicircum" horiz-adv-x="619" d="M24 538Q55 567 93 605T169 683T240 759T293 821H303Q326 795 360 760T434 686T516 613T595 551L487 418Q428 465 387 502T302 581Q262 539 220 499T137 418L24 538Z" />
<glyph unicode="_" glyph-name="underscore" horiz-adv-x="658" d="M9 -288L5 -143Q84 -141 171 -141T348 -140Q426 -140 503 -140T653 -143V-285Q610 -285 550 -285T422 -284Q351 -284 277 -284T133 -285T9 -288Z" />
<glyph unicode="`" glyph-name="grave" horiz-adv-x="600" d="M395 872Q376 885 348 904T288 942T230 979T185 1006L250 1116Q270 1102 297 1081T354 1035T409 987T454 945L395 872Z" />
<glyph unicode="a" glyph-name="a" horiz-adv-x="729" d="M299 -79Q224 -79 163 -41T67 63T31 210Q31 286 59 347T135 453T246 520T376 544Q433 544 488 528Q492 549 495 570L666 541Q659 522 652 484T641 399T633 305T630 220Q630 189 634 160T654 112T700 93H714L689
-81Q623 -81 580 -59T511 2Q468 -46 413 -62T299 -79ZM195 190Q200 142 234 114T322 85Q373 85 407 112T463 188Q462 204 462 221Q462 256 464 293T469 366Q427 382 381 382Q327 382 285 361T218 301T194 213Q194 207 194 201T195 190Z" />
<glyph unicode="b" glyph-name="b" horiz-adv-x="673" d="M57 -72Q57 10 60 104T68 295T78 485T90 660T100 807L267 805Q261 748 256 677T245 526Q274 538 307 544T380 551Q433 551 481 534T569 480T630 387T653 250Q653 165 629 103T564 1T472 -58T366 -78Q325
-78 290 -67T224 -38Q224 -54 224 -70L57 -72ZM357 383Q282 383 235 339Q231 247 228 159Q277 94 365 94Q394 94 423 107T473 154T493 246Q493 313 459 348T357 383Z" />
<glyph unicode="c" glyph-name="c" horiz-adv-x="657" d="M342 -81Q258 -81 187 -46T73 54T30 211Q30 313 70 390T182 509T350 552Q442 552 506 515T620 396L481 300Q453 345 424 368T345 392Q277 392 235 345T193 218Q193 172 215 143T271 100T333 86Q363 86
391 93T444 127T489 206L639 126Q609 71 572 24T481 -52T342 -81Z" />
<glyph unicode="d" glyph-name="d" horiz-adv-x="660" d="M300 -79Q248 -79 199 -61T110 -6T47 88T24 221Q24 307 50 369T121 472T219 533T327 553Q359 553 388 549T442 536Q445 609 449 683T460 829L628 818Q620 735 614 640T606 445T603 252Q603 164 605 85T612
-60L439 -73Q438 -54 438 -36Q409 -55 375 -67T300 -79ZM185 230Q185 178 205 149T254 107T310 95Q342 95 374 109T434 158Q434 170 434 181Q434 262 436 347Q389 388 334 388Q311 388 285 381T237 357T200 309T185 230Z" />
<glyph unicode="e" glyph-name="e" horiz-adv-x="688" d="M350 -80Q254 -80 182 -43T69 62T28 217Q28 270 46 328T104 438T209 521T369 553Q437 553 483 538T559 499T604 448T625 397T631 356Q631 259 550 207T319 154Q285 154 255 157T198 164Q217 114 261 91T352
67Q420 67 472 91T570 167L659 39Q627 13 588 -15T491 -61T350 -80ZM372 403Q313 403 268 373T202 294Q227 290 251 288T300 285Q322 285 350 289T406 301T452 321T470 351Q470 359 462 371T433 393T372 403Z" />
<glyph unicode="f" glyph-name="f" horiz-adv-x="562" d="M189 -72Q188 -16 188 42T188 156V393Q146 390 108 384T36 369L15 529Q51 537 97 543T194 552Q200 607 214 659T256 752T327 819T436 844Q519 844 596 810L562 651Q496 681 453 681Q407 681 389 649T366
557Q420 556 468 553T553 544L537 387Q502 393 456 396T358 400Q356 349 355 301T354 204Q354 140 355 73T359 -72H189Z" />
<glyph unicode="g" glyph-name="g" horiz-adv-x="619" d="M280 -5Q217 -5 173 14T101 63T56 129T34 198T28 257Q28 305 41 356T87 451T176 522T319 549Q345 549 367 545T408 534V567H581Q580 507 579 432T578 261Q578 212 578 159T579 42Q579 -44 556 -99T497
-184T423 -227T352 -243T303 -246Q264 -246 217 -238T123 -211T37 -163L110 -11Q135 -32 160 -49T218 -77T300 -88Q350 -88 374 -71T405 -25T414 38Q380 13 345 4T280 -5ZM178 271Q178 214 209 181T296 148Q373 148 411 237Q411 269 411 302T409 368Q369 394 317
394Q253 394 216 361T178 271Z" />
<glyph unicode="h" glyph-name="h" horiz-adv-x="657" d="M50 -69Q50 -8 50 87T52 300T57 546T66 804L236 805Q232 748 228 666T221 490Q290 554 379 554Q440 554 480 532T546 475T584 397T602 315T607 243Q607 177 606 112T605 -2T604 -71L429 -72Q433 -33 434
18T436 123T437 227Q437 389 361 389Q338 389 310 377T257 339T216 270Q215 204 215 142Q215 85 216 36T219 -64L50 -69Z" />
<glyph unicode="i" glyph-name="i" horiz-adv-x="264" d="M45 646Q45 655 45 664T44 686Q44 718 46 754T50 815L228 812Q225 778 222 735T217 646H45ZM41 -70Q38 -8 37 62T36 204Q36 297 38 385T43 545L215 546Q211 500 210 433T209 291Q209 218 210 147T212 19T215
-70H41Z" />
<glyph unicode="j" glyph-name="j" horiz-adv-x="576" d="M357 641Q355 666 353 701T350 768Q350 779 350 790T352 810L525 815Q525 807 525 783T526 730T528 678T529 646L357 641ZM294 -79Q182 -79 110 -5T13 207L182 257Q182 230 188 200T209 143T244 100T292
83Q329 83 346 101T368 162Q370 185 371 214T372 276Q372 327 370 378T365 473T357 539L532 544Q533 525 534 483T536 384T537 268Q537 231 536 194T532 125Q529 92 516 56T474 -10T402 -60T294 -79Z" />
<glyph unicode="k" glyph-name="k" horiz-adv-x="631" d="M55 -73Q51 -25 49 50T46 213Q46 291 47 374T52 537T60 688T71 812L245 800Q231 698 224 594T214 381Q270 420 344 463T524 562L618 405Q510 371 427 328T291 240Q281 233 278 230T275 226Q275 220 308
204Q352 181 399 159T504 115T637 67L568 -81Q477 -54 386 -13T221 70Q222 36 224 1T229 -69L55 -73Z" />
<glyph unicode="l" glyph-name="l" horiz-adv-x="462" d="M243 -79Q188 -79 153 -56T97 9T67 103T55 216T52 338Q52 391 55 454T62 583T72 707T83 808L264 806Q256 755 249 691T238 560T231 438T228 349Q228 258 231 206T242 133T263 111Q280 111 300 132T339
181L424 12Q393 -22 350 -50T243 -79Z" />
<glyph unicode="m" glyph-name="m" horiz-adv-x="916" d="M48 -78Q47 -63 46 -29T44 54T43 157T43 269Q43 331 43 387T44 484T45 543L214 546Q212 518 211 478Q237 513 271 533T349 553Q402 553 436 522T493 441Q565 553 670 553Q729 553 767 528T828 459T860
362T874 251T877 141Q877 78 875 26T874 -73H701Q701 -49 701 -13T701 61T702 126T702 159Q702 219 699 272T684 358T645 391Q619 391 599 366T564 301T537 216Q539 177 540 139T541 64Q541 23 541 -7T540 -73H372Q372 8 371 70T367 190Q362 294 346 342T300 391Q268
391 246 353T210 259Q211 179 214 92T222 -76L48 -78Z" />
<glyph unicode="n" glyph-name="n" horiz-adv-x="679" d="M56 -72Q53 16 52 91T50 239Q50 312 51 385T57 543H226Q222 498 219 452Q253 495 300 523T411 552Q474 552 514 531T578 473T612 389T626 287T629 177Q629 117 627 62T623 -30T620 -74H452Q454 -33 456
13T460 105T462 188Q462 401 393 401Q336 401 290 352T212 227Q212 217 212 207Q212 159 212 108T214 10T217 -71L56 -72Z" />
<glyph unicode="o" glyph-name="o" horiz-adv-x="692" d="M345 -82Q265 -82 206 -56T107 15T49 120T30 244Q30 310 53 366T118 465T216 530T338 554Q407 554 466 530T569 463T637 362T662 236Q662 85 579 2T345 -82ZM344 80Q417 80 455 121T494 239Q494 308 452
350T342 392Q301 392 267 371T213 314T192 235Q192 197 207 161T257 103T344 80Z" />
<glyph unicode="p" glyph-name="p" horiz-adv-x="705" d="M56 -284Q49 -204 46 -123T43 64Q43 193 47 321T59 555L231 550Q228 527 226 501Q262 525 303 536T388 547Q443 547 495 530T589 475T655 378T680 236Q680 154 655 93T588 -7T494 -66T387 -86Q286 -86
209 -26Q211 -90 215 -149T225 -271L56 -284ZM361 381Q262 381 212 284Q209 224 208 162Q232 130 270 107T367 83Q508 83 508 244Q508 287 492 314T452 355T403 375T361 381Z" />
<glyph unicode="q" glyph-name="q" horiz-adv-x="698" d="M313 -86Q266 -86 216 -70T122 -17T52 79T25 223Q25 301 55 361T134 462T238 523T344 544Q428 544 492 506Q495 532 497 557L667 539Q649 412 641 269T632 -8Q632 -157 641 -274L472 -283Q469 -237 468
-185T466 -77Q466 -63 466 -49Q427 -72 387 -79T313 -86ZM191 215Q191 151 226 116T325 80Q375 80 410 92T470 124Q473 221 479 320Q433 378 354 378Q307 378 270 357T212 299T191 215Z" />
<glyph unicode="r" glyph-name="r" horiz-adv-x="501" d="M44 -78Q48 5 50 88T52 252Q51 326 50 398T44 539L212 544Q213 507 215 468Q247 508 289 532T387 557Q408 557 441 551T508 528L489 359Q464 374 436 380T388 387Q324 387 280 330T219 170Q219 100 218
37T212 -78H44Z" />
<glyph unicode="s" glyph-name="s" horiz-adv-x="662" d="M342 -83Q274 -83 216 -67T111 -26T27 27L117 172Q159 133 198 112T279 83T372 75Q415 75 441 86T467 116Q467 131 442 139T378 154T296 171Q235 187 182 208T97 265T64 361Q64 409 87 445T148 506T236
543T337 555Q427 555 492 534T618 477L527 339Q497 360 459 375T382 399T310 408Q274 408 254 397T233 366Q233 354 258 344T356 316Q399 306 447 296T537 267T606 214T633 122Q633 26 556 -28T342 -83Z" />
<glyph unicode="t" glyph-name="t" horiz-adv-x="587" d="M348 -79Q288 -79 253 -54T202 17T182 120T177 242Q177 308 182 379Q115 370 53 356L22 513Q105 535 199 545Q206 596 214 652T232 772L404 757Q392 705 383 654T367 554Q423 554 472 552T564 543L544
386Q509 390 472 391T396 393Q373 393 350 392Q344 319 343 267T341 193Q341 138 347 114T369 90Q386 90 407 101T448 133T483 176L560 15Q461 -79 348 -79Z" />
<glyph unicode="u" glyph-name="u" horiz-adv-x="689" d="M270 -82Q206 -82 165 -60T99 2T63 89T48 190T44 292Q44 348 47 406T55 533L238 544Q235 523 229 481T218 385T213 272Q213 175 230 129T281 82Q349 82 381 181T413 494V540L498 542L601 544Q587 450 580
371T571 239T569 167Q569 121 577 102T605 82Q615 82 627 86T655 100L648 -72Q610 -78 582 -78Q534 -78 504 -60T455 -12Q424 -45 379 -63T270 -82Z" />
<glyph unicode="v" glyph-name="v" horiz-adv-x="713" d="M335 -78Q294 -78 264 -54T212 5T173 73Q142 136 114 211T65 367T33 527L214 553Q222 460 239 378T279 232T326 128Q331 121 335 114T340 107Q342 107 356 128Q400 205 438 308T504 557L680 522Q654 428
632 359T589 237T547 144T503 63Q488 36 465 3T409 -54T335 -78Z" />
<glyph unicode="w" glyph-name="w" horiz-adv-x="909" d="M270 -82Q187 -82 129 47Q109 93 94 148T69 260T52 369T42 462T36 524L200 562Q212 335 236 217T274 99Q281 99 291 127T315 201T340 304T361 417Q349 490 345 533L514 539V527Q514 486 520 431T535 318T554
209T575 128T592 97Q598 97 609 124T633 198T661 305T688 433T709 568L874 533Q857 438 834 345T784 172T733 38Q677 -81 594 -81Q567 -81 533 -65T469 4Q459 23 449 50T430 110Q418 73 406 44Q353 -82 270 -82Z" />
<glyph unicode="x" glyph-name="x" horiz-adv-x="756" d="M165 -85L39 24Q87 80 142 137T255 252Q185 313 125 361T31 430L131 562Q185 523 248 473T375 367Q434 421 491 472T600 570L716 450Q684 427 625 375T497 258Q563 198 621 140T725 31L603 -80Q585 -58
551 -23T473 55T378 143Q330 96 288 52T213 -27T165 -85Z" />
<glyph unicode="y" glyph-name="y" horiz-adv-x="728" d="M208 -271L58 -191Q114 -129 167 -64T268 71Q221 134 174 206T87 349T22 474L182 544Q200 496 228 440T291 326T363 215Q471 390 541 560L707 494Q662 408 606 310T485 110T350 -89T208 -271Z" />
<glyph unicode="z" glyph-name="z" horiz-adv-x="714" d="M71 -79L46 52Q59 57 77 61Q108 81 148 114T232 188T315 267T385 339T429 389Q434 396 436 399T438 404Q438 403 424 403T399 403Q363 403 312 398T201 381T83 351L53 512Q156 532 249 542T426 553Q458
553 494 551T564 540T618 509T639 449Q639 422 617 383T554 296T460 196T344 92Q399 95 453 95Q530 95 589 92T667 84L668 -72Q640 -70 578 -69T441 -67Q371 -67 299 -68T166 -72T71 -79Z" />
<glyph unicode="{" glyph-name="braceleft" horiz-adv-x="354" d="M329 -109Q322 -110 315 -110T300 -110Q238 -110 198 -94T136 -50T104 10T95 75Q95 106 101 134T118 187Q121 196 121 203Q121 223 100 233T40 249L35 404Q82 412 97 425T112 477Q112 511 105
545T97 621Q97 684 120 738T192 828T314 867L312 710Q303 709 290 703T266 681T255 634Q255 586 261 554T268 486Q268 448 261 406T224 333Q240 320 260 290T280 221Q280 181 273 157T259 114T251 70Q251 56 261 51T289 45Q306 45 328 48L329 -109Z" />
<glyph unicode="|" glyph-name="bar" horiz-adv-x="336" d="M106 -103V866H230V-103H106Z" />
<glyph unicode="}" glyph-name="braceright" horiz-adv-x="354" d="M25 -106L28 52Q38 51 46 51T62 50Q106 50 106 76Q106 101 99 118T83 158T75 221Q75 259 94 291T128 337Q97 369 88 408T79 485Q79 515 85 545T98 602T105 648Q105 676 85 695T42 715V872Q113
869 162 835T236 750T262 644Q262 613 256 587T243 534T236 475Q236 438 259 426T319 409L315 254Q272 248 253 237T233 207Q233 196 240 179T254 138T261 85Q261 64 254 32T225 -32T163 -85T52 -107Q46 -107 39 -107T25 -106Z" />
<glyph unicode="~" glyph-name="asciitilde" horiz-adv-x="938" d="M452 302Q426 325 403 348T357 388T313 405Q292 405 273 385T235 332T195 261L27 332Q71 410 109 459T182 533T251 568T324 578Q369 578 406 561T473 520T526 473Q545 456 563 437T602 404T646
390Q670 390 687 404T717 440T738 484L911 412Q805 211 651 211Q596 211 547 237T452 302Z" />
<glyph unicode="&#xa0;" glyph-name="uni00A0" horiz-adv-x="229" />
<glyph unicode="&#xa1;" glyph-name="exclamdown" horiz-adv-x="384" d="M200 605Q239 605 265 578T292 510Q292 470 265 443T197 416Q158 416 132 444T105 514Q105 555 131 580T200 605ZM251 -295L93 -287Q96 -250 99 -194T106 -70T112 67T116 199T118 308Q118
322 118 333T117 354L274 350Q275 334 275 312T275 264Q275 182 273 85T265 -110T251 -295Z" />
<glyph unicode="&#xa2;" glyph-name="cent" horiz-adv-x="666" d="M284 -111L177 -90Q185 -54 198 0Q125 33 79 99T33 261Q33 363 73 439T185 558T353 601Q364 601 373 601Q392 658 404 694L508 662Q502 643 496 622T482 577Q563 542 623 445L484 349Q473 366
461 383T432 414Q411 345 390 274T350 135Q377 136 402 145T450 180T492 255L642 175Q612 120 575 74T484 -2T345 -31Q325 -31 304 -29Q292 -75 284 -111ZM196 267Q196 233 209 208T243 167Q262 234 282 304T323 440Q265 432 231 386T196 267Z" />
<glyph unicode="&#xa3;" glyph-name="sterling" horiz-adv-x="703" d="M128 -62L50 79Q105 99 129 154T165 284Q99 288 47 299L71 454Q87 450 114 447T178 441Q179 459 180 477T182 513Q188 607 217 665T286 753T368 794T445 805Q503 805 560 788T651 750L557
615Q510 653 449 653Q404 653 381 635T348 569T332 437Q405 438 473 445T580 469L605 314Q558 304 482 295T319 282Q306 196 280 143Q317 141 356 131T429 112T484 103Q533 103 564 110T616 133L667 -14Q634 -33 595 -42T511 -52Q453 -52 409 -41T330 -20T264 -9Q227
-9 191 -23T128 -62Z" />
<glyph unicode="&#xa4;" glyph-name="currency" horiz-adv-x="668" d="M146 69L46 144Q51 153 69 176T110 225Q85 264 75 302T65 362Q65 402 77 448T117 534Q97 558 79 579T55 605L147 690Q161 674 179 653T216 611Q238 620 265 625T323 630Q358 630 388 624T443
607Q466 634 488 659T515 691L611 604Q593 586 575 567T540 529Q566 493 578 453T590 375Q590 342 583 306T557 236Q576 217 594 198T624 166L530 77Q525 86 507 105T467 147Q439 133 404 125T323 116Q286 116 256 123T201 143Q186 124 172 105T146 69ZM325 268Q435
268 435 375Q435 476 319 476Q280 476 258 459T227 417T218 365Q218 359 223 343T240 310T272 281T325 268Z" />
<glyph unicode="&#xa5;" glyph-name="yen" horiz-adv-x="674" d="M105 4L103 164L260 165L259 219L109 218L105 380L252 381L1 732L127 830L338 537L547 833L673 740L422 383L572 384L576 222L421 221L422 167L569 168L573 8L422 7V-84H260V5L105 4Z" />
<glyph unicode="&#xa6;" glyph-name="brokenbar" horiz-adv-x="276" d="M76 487V867H200V488L76 487ZM76 -102V295L200 296V-102H76Z" />
<glyph unicode="&#xa7;" glyph-name="section" horiz-adv-x="704" d="M363 -84Q290 -84 233 -69T133 -34T64 3L150 153Q240 77 376 77Q419 77 443 86T467 112Q467 126 439 139T343 170Q288 185 242 200T163 234Q58 292 58 384Q58 488 153 536Q128 557 111 586T93
655Q93 706 122 749T207 820T340 847Q413 847 468 833T564 799T631 765L545 614Q492 651 438 670T336 690Q306 690 285 682T263 664Q263 653 278 643T329 619Q356 610 391 597T461 570T521 543Q579 514 605 479T631 392Q631 380 627 357T607 305T555 252Q641 201
641 118Q641 59 606 14T508 -58T363 -84ZM227 387Q227 362 261 348T358 333Q387 333 410 342T448 365T462 388Q462 402 447 411T403 430Q394 433 375 440T330 457Q282 447 255 429T227 387Z" />
<glyph unicode="&#xa8;" glyph-name="dieresis" horiz-adv-x="600" d="M408 906Q374 906 354 928T333 985Q333 1017 351 1035T405 1054Q417 1054 435 1049T468 1028T483 979Q483 954 466 930T408 906ZM190 901Q163 901 140 919T117 978Q117 1013 138 1029T187
1045Q228 1045 245 1024T263 972Q263 937 240 919T190 901Z" />
<glyph unicode="&#xa9;" glyph-name="copyright" horiz-adv-x="772" d="M386 20Q311 20 246 48T132 125T54 240T26 380Q26 455 54 520T131 634T246 712T386 740Q461 740 526 712T640 635T718 520T746 380Q746 305 718 240T641 126T526 48T386 20ZM386 82Q448 82
502 105T597 169T661 264T684 380Q684 442 661 496T597 591T502 655T386 678Q324 678 270 655T175 591T111 496T88 380Q88 318 111 264T175 169T270 105T386 82ZM384 133Q316 133 266 162T188 246T160 375Q160 410 171 454T208 539T278 606T386 633Q443 633 481
616T544 575T582 531T600 503L516 438Q504 462 488 484T448 521T387 536Q350 536 326 520T289 479T270 425T264 373Q264 305 294 268T381 231Q419 231 443 244T483 283T515 344L611 301Q570 213 516 173T384 133Z" />
<glyph unicode="&#xaa;" glyph-name="ordfeminine" horiz-adv-x="470" d="M193 413Q147 413 110 436T50 500T28 589Q28 647 55 692T130 765T236 792Q262 792 287 786Q289 798 291 809L418 788Q411 766 405 733T396 663T393 596Q393 565 399 552T418 539Q426 539
443 543L424 412H414Q346 412 310 451Q267 413 193 413ZM147 590Q147 565 162 550T205 535Q247 535 269 581Q269 588 269 597Q269 614 270 632T272 668Q255 673 239 673Q200 673 174 649T147 590Z" />
<glyph unicode="&#xab;" glyph-name="guillemotleft" horiz-adv-x="871" d="M740 -106Q716 -81 679 -48T598 21T509 94T423 163T352 218Q390 256 438 301T537 395T634 489T713 575L821 482Q800 456 765 420T692 347T621 278T570 230Q585 216 611 194T669 145T733
91T791 40T834 1L740 -106ZM411 -106Q387 -81 350 -49T270 21T181 94T95 162T23 217Q61 255 109 300T209 394T306 488T385 575L493 481Q471 455 437 419T364 346T292 277T241 229Q257 215 283 193T341 144T404 90T462 40T505 2L411 -106Z" />
<glyph unicode="&#xac;" glyph-name="logicalnot" horiz-adv-x="768" d="M723 153H563L565 443Q514 444 478 445T407 446T327 446T215 447T47 446L44 607Q134 607 224 607T396 607T547 607T660 607T722 605L724 496Q724 455 724 406T724 309T723 220T723 153Z" />
<glyph unicode="&#xad;" glyph-name="uni00AD" horiz-adv-x="271" d="M53 170L50 312Q90 316 150 318T271 320Q314 320 352 319T419 316L417 176Q392 176 363 176T302 177Q238 177 172 176T53 170Z" />
<glyph unicode="&#xae;" glyph-name="registered" horiz-adv-x="772" d="M386 20Q311 20 246 48T132 125T54 240T26 380Q26 455 54 520T131 634T246 712T386 740Q461 740 526 712T640 635T718 520T746 380Q746 305 718 240T641 126T526 48T386 20ZM222 138Q221
158 221 181T220 231Q220 295 223 369T234 514Q219 510 205 506L177 593Q136 552 112 498T88 380Q88 318 111 264T175 169T270 105T386 82Q448 82 502 105T597 169T661 264T684 380Q684 442 661 496T597 591T502 655T386 678Q328 678 277 658T187 602Q313 631 401
631Q585 631 585 491Q585 361 419 338Q468 297 519 271T622 225L557 139Q519 153 477 180T394 238T324 297Q323 259 323 220T323 140L222 138ZM396 538Q381 538 366 537T334 533Q330 476 327 417Q352 417 379 420T431 430T470 451T486 488Q486 538 396 538Z" />
<glyph unicode="&#xaf;" glyph-name="overscore" horiz-adv-x="473" d="M83 879L81 995Q115 998 166 999T268 1001Q305 1001 338 1001T394 998L393 884H321Q263 884 199 884T83 879Z" />
<glyph unicode="&#xb0;" glyph-name="degree" horiz-adv-x="490" d="M248 382Q186 382 136 411T56 489T26 598Q26 631 35 669T68 741T132 796T235 818Q343 818 403 760T464 599Q464 538 436 489T358 411T248 382ZM252 506Q295 506 318 532T341 605Q341 649 317
672T245 696Q209 696 189 682T159 645T150 601Q150 558 177 532T252 506Z" />
<glyph unicode="&#xb1;" glyph-name="plusminus" horiz-adv-x="886" d="M361 192Q359 247 359 311T358 442Q274 441 196 439T56 435L50 597Q104 599 185 601T358 604Q359 668 359 725T362 827H530Q527 802 526 742T524 606Q558 606 590 606Q663 606 728 606T836
603V443Q805 443 768 443T689 444Q610 444 524 443Q524 361 525 292T529 194L361 192ZM57 -20L53 144Q139 146 254 146T488 147Q583 147 671 147T833 144V-17Q790 -17 717 -17T555 -16Q488 -16 418 -16T280 -16T156 -18T57 -20Z" />
<glyph unicode="&#xb2;" glyph-name="uni00B2" horiz-adv-x="440" d="M60 334L31 449Q94 483 140 523T217 601T262 671T277 719Q277 749 240 749Q173 749 110 648L31 745Q127 868 235 868Q309 868 353 829T398 725Q398 673 363 608T266 481H269Q304 481 337 477T413
461L387 343Q347 354 314 358T246 363Q186 363 136 356T60 334Z" />
<glyph unicode="&#xb3;" glyph-name="uni00B3" horiz-adv-x="444" d="M223 340Q155 340 108 364T27 416L88 530Q105 501 143 482T223 463Q250 463 269 476T288 507Q288 527 265 541T206 555Q180 555 145 552L143 597L138 673Q206 674 243 688T280 726Q280 735
263 742T223 749Q162 749 103 699L40 807Q73 836 124 853T224 871Q304 871 353 833T402 731Q402 655 349 618Q380 598 398 569T416 503Q416 457 391 420T322 362T223 340Z" />
<glyph unicode="&#xb4;" glyph-name="acute" horiz-adv-x="600" d="M237 879L184 955Q207 972 236 994T296 1041T351 1085T390 1117L475 1018Q459 1005 430 987T366 949T297 911T237 879Z" />
<glyph unicode="&#xb5;" glyph-name="uni00B5" horiz-adv-x="689" d="M76 -266Q66 -161 59 -73T48 94T44 251Q44 318 47 386T55 531L238 542Q235 522 229 480T218 384T213 270Q213 173 230 127T281 80Q349 80 381 179T413 492V538L601 542Q589 466 582 396T572
274T569 202V165Q569 119 577 100T605 80Q615 80 627 84T655 98L648 -74Q629 -76 613 -78T582 -80Q540 -80 507 -63T453 -14Q387 -83 270 -83Q248 -83 228 -80Q232 -126 237 -170T251 -256L76 -266Z" />
<glyph unicode="&#xb6;" glyph-name="paragraph" horiz-adv-x="964" d="M397 -72Q396 -48 396 -11T395 69T394 152T393 224T393 270Q352 274 303 288T208 333T133 412T104 533Q104 607 133 657T212 739T325 786T460 809T601 815Q646 815 689 814T777 811Q777 787
777 731T777 599T778 434T778 254T779 80T779 -71H606V-33Q606 1 606 57T604 183T602 325T601 465T600 584V627H561Q560 599 560 535T559 388Q559 313 559 230T561 69T565 -71L397 -72Z" />
<glyph unicode="&#xb7;" glyph-name="middot" horiz-adv-x="377" d="M194 269Q131 269 103 302T75 381Q75 419 91 443T134 479T190 491Q218 491 243 479T285 441T302 374Q302 320 269 295T194 269Z" />
<glyph unicode="&#xb8;" glyph-name="cedilla" horiz-adv-x="600" d="M230 -17L322 -39Q318 -49 313 -65T301 -97Q316 -95 334 -95Q363 -95 393 -102T445 -128T467 -182Q467 -214 450 -235T403 -267T340 -283T272 -288Q247 -288 226 -286T187 -282L206 -203Q244
-209 273 -209Q294 -209 316 -205T354 -194T370 -182Q370 -178 360 -175T338 -171T318 -169Q299 -169 274 -173T223 -188L160 -140Q183 -112 201 -79T230 -17Z" />
<glyph unicode="&#xb9;" glyph-name="uni00B9" horiz-adv-x="287" d="M247 337L124 350Q128 388 131 433T135 522T138 604T139 662Q139 674 139 674Q136 674 129 663T117 637L27 727Q50 768 78 799T134 849T184 868Q220 868 235 848T255 797T259 738Q259 708 259
660T257 556T253 443T247 337Z" />
<glyph unicode="&#xba;" glyph-name="ordmasculine" horiz-adv-x="678" d="M338 -80Q260 -80 202 -55T105 15T48 117T29 239Q29 304 52 359T116 456T212 520T331 543Q399 543 456 520T557 454T625 355T649 231Q649 83 568 2T338 -80ZM337 78Q409 78 446 118T484
234Q484 302 443 343T335 384Q295 384 262 363T208 307T188 230Q188 193 203 158T252 100T337 78Z" />
<glyph unicode="&#xbb;" glyph-name="guillemotright" horiz-adv-x="817" d="M444 -100L342 0Q365 25 398 58T468 124T534 186T583 232Q569 245 543 269T486 324T425 385T372 440T340 478L447 570Q467 548 499 515T570 444T650 366T728 290T794 225Q772 207 738
177T663 110T581 35T505 -38T444 -100ZM141 -100L39 0Q62 25 95 58T165 124T231 186T280 232Q266 245 240 269T183 324T122 385T69 440T37 478L144 570Q164 548 196 515T267 444T347 366T425 290T491 225Q469 207 435 177T360 110T278 35T202 -38T141 -100Z" />
<glyph unicode="&#xbc;" glyph-name="onequarter" horiz-adv-x="1000" d="M176 -123L89 -58Q108 -32 148 20T241 141T354 288T477 446T596 599T700 731T775 826T810 869L897 809Q872 776 826 716T720 579T595 418T464 249T342 91T241 -39T176 -123ZM297 337L174
350Q178 388 181 433T185 522T188 604T189 662Q189 674 189 674Q186 674 179 663T167 637L77 727Q100 768 128 799T184 849T234 868Q270 868 285 848T305 797T309 738Q309 708 309 660T307 556T303 443T297 337ZM729 21Q700 21 669 23T610 33T565 62T548 118Q548
147 565 190T607 280T656 369T696 437L763 399Q763 412 763 423L886 422L871 151Q896 154 919 158T963 168L970 42Q920 33 865 28L858 -100L729 -98Q733 -72 736 -42T742 21Q736 21 729 21ZM680 155Q680 144 696 142T732 139Q739 139 752 140Q755 185 757 229T761
314Q745 289 729 260T701 205T682 162Q681 159 681 158T680 155Z" />
<glyph unicode="&#xbd;" glyph-name="onehalf" horiz-adv-x="1000" d="M176 -123L89 -58Q108 -32 148 20T241 141T354 288T477 446T596 599T700 731T775 826T810 869L897 809Q872 776 826 716T720 579T595 418T464 249T342 91T241 -39T176 -123ZM297 337L174 350Q178
388 181 433T185 522T188 604T189 662Q189 674 189 674Q186 674 179 663T167 637L77 727Q100 768 128 799T184 849T234 868Q270 868 285 848T305 797T309 738Q309 708 309 660T307 556T303 443T297 337ZM594 -106L565 9Q628 43 674 83T751 161T796 231T811 279Q811
309 774 309Q707 309 644 208L565 305Q661 428 769 428Q843 428 887 389T932 285Q932 233 897 168T800 41H803Q838 41 871 37T947 21L921 -97Q881 -86 848 -82T780 -77Q720 -77 670 -84T594 -106Z" />
<glyph unicode="&#xbe;" glyph-name="threequarters" horiz-adv-x="1000" d="M242 340Q174 340 127 364T46 416L107 530Q124 501 162 482T242 463Q269 463 288 476T307 507Q307 527 284 541T225 555Q199 555 164 552L162 597L157 673Q225 674 262 688T299 726Q299
735 282 742T242 749Q181 749 122 699L59 807Q92 836 143 853T243 871Q323 871 372 833T421 731Q421 655 368 618Q399 598 417 569T435 503Q435 457 410 420T341 362T242 340ZM176 -123L89 -58Q108 -32 148 20T241 141T354 288T477 446T596 599T700 731T775 826T810
869L897 809Q872 776 826 716T720 579T595 418T464 249T342 91T241 -39T176 -123ZM729 21Q700 21 669 23T610 33T565 62T548 118Q548 147 565 190T607 280T656 369T696 437L763 399Q763 412 763 423L886 422L871 151Q896 154 919 158T963 168L970 42Q920 33 865
28L858 -100L729 -98Q733 -72 736 -42T742 21Q736 21 729 21ZM680 155Q680 144 696 142T732 139Q739 139 752 140Q755 185 757 229T761 314Q745 289 729 260T701 205T682 162Q681 159 681 158T680 155Z" />
<glyph unicode="&#xbf;" glyph-name="questiondown" horiz-adv-x="925" d="M466 613Q511 613 535 585T560 519Q560 479 533 451T465 423Q422 423 397 449T371 518Q371 561 397 587T466 613ZM388 384L546 382Q547 368 547 347T548 304Q548 244 536 204T485 138T372
92Q329 81 301 73T257 53T235 23T228 -31Q228 -103 285 -118Q314 -125 360 -129T449 -134Q487 -134 528 -132T607 -122T667 -100T690 -59Q690 -36 675 -9T636 37L781 120Q815 86 836 37T857 -68Q857 -103 842 -141T790 -212T690 -263Q644 -276 581 -284T449 -292Q390
-292 330 -285T218 -260Q131 -230 100 -173T68 -37Q68 66 110 131T255 219Q279 225 306 228T354 241T382 272Q390 297 390 344Q390 354 390 364T388 384Z" />
<glyph unicode="&#xc0;" glyph-name="Agrave" horiz-adv-x="868" d="M191 -71L20 -39Q68 155 120 312T229 581T343 753T461 814Q580 814 680 594T850 -45L673 -69Q661 -3 647 66T618 202Q594 203 566 203Q517 203 463 201T356 195T258 185Q239 121 222 56T191
-71ZM375 513Q353 466 316 361Q359 366 407 368T501 371Q540 371 576 369Q562 420 550 460T527 523Q506 577 490 599T457 622Q439 622 421 599T375 513ZM484 865Q465 877 438 896T380 934T322 969T278 996L342 1104Q362 1090 388 1069T443 1024T498 977T542 936L484
865Z" />
<glyph unicode="&#xc1;" glyph-name="Aacute" horiz-adv-x="868" d="M191 -71L20 -39Q68 155 120 312T229 581T343 753T461 814Q580 814 680 594T850 -45L673 -69Q661 -3 647 66T618 202Q594 203 566 203Q517 203 463 201T356 195T258 185Q239 121 222 56T191
-71ZM375 513Q353 466 316 361Q359 366 407 368T501 371Q540 371 576 369Q562 420 550 460T527 523Q506 577 490 599T457 622Q439 622 421 599T375 513ZM362 871L310 946Q333 963 362 985T420 1030T473 1073T512 1105L595 1008Q580 995 552 978T489 940T421 903T362
871Z" />
<glyph unicode="&#xc2;" glyph-name="Acircumflex" horiz-adv-x="868" d="M191 -71L20 -39Q68 155 120 312T229 581T343 753T461 814Q580 814 680 594T850 -45L673 -69Q661 -3 647 66T618 202Q594 203 566 203Q517 203 463 201T356 195T258 185Q239 121 222 56T191
-71ZM375 513Q353 466 316 361Q359 366 407 368T501 371Q540 371 576 369Q562 420 550 460T527 523Q506 577 490 599T457 622Q439 622 421 599T375 513ZM270 931Q289 949 313 975T363 1030T409 1085T446 1130Q472 1102 504 1069T572 1003T638 945L572 857Q539 881
511 906T452 962Q426 931 404 908T352 856Q350 858 338 869T309 895T282 920T270 931Z" />
<glyph unicode="&#xc3;" glyph-name="Atilde" horiz-adv-x="868" d="M191 -71L20 -39Q68 155 120 312T229 581T343 753T461 814Q580 814 680 594T850 -45L673 -69Q661 -3 647 66T618 202Q594 203 566 203Q517 203 463 201T356 195T258 185Q239 121 222 56T191
-71ZM375 513Q353 466 316 361Q359 366 407 368T501 371Q540 371 576 369Q562 420 550 460T527 523Q506 577 490 599T457 622Q439 622 421 599T375 513ZM220 927Q244 983 278 1010T343 1045T391 1054Q417 1054 435 1045T467 1023T495 1001T522 991Q538 991 555
1007T581 1045L683 988Q653 938 621 915T561 885T517 878Q485 878 465 887T432 908T408 929T382 939Q370 939 353 925T326 883L220 927Z" />
<glyph unicode="&#xc4;" glyph-name="Adieresis" horiz-adv-x="868" d="M191 -71L20 -39Q68 155 120 312T229 581T343 753T461 814Q580 814 680 594T850 -45L673 -69Q661 -3 647 66T618 202Q594 203 566 203Q517 203 463 201T356 195T258 185Q239 121 222 56T191
-71ZM375 513Q353 466 316 361Q359 366 407 368T501 371Q540 371 576 369Q562 420 550 460T527 523Q506 577 490 599T457 622Q439 622 421 599T375 513ZM560 898Q527 898 507 919T486 975Q486 1007 504 1025T557 1043Q569 1043 587 1038T619 1018T633 969Q633 945
617 922T560 898ZM346 893Q320 893 298 911T275 968Q275 1003 295 1018T343 1034Q383 1034 400 1013T418 963Q418 928 396 911T346 893Z" />
<glyph unicode="&#xc5;" glyph-name="Aring" horiz-adv-x="868" d="M191 -71L20 -39Q68 155 120 312T229 581T343 753T461 814Q580 814 680 594T850 -45L673 -69Q661 -3 647 66T618 202Q594 203 566 203Q517 203 463 201T356 195T258 185Q239 121 222 56T191 -71ZM375
513Q353 466 316 361Q359 366 407 368T501 371Q540 371 576 369Q562 420 550 460T527 523Q506 577 490 599T457 622Q439 622 421 599T375 513ZM442 1112Q494 1112 526 1093T572 1042T587 972Q587 935 570 904T521 854T450 835Q406 835 375 855T327 907T310 974Q310
1005 322 1036T363 1090T442 1112ZM452 927Q476 927 485 942T495 975Q495 991 486 1005T448 1020Q423 1020 413 1005T402 973Q402 956 414 942T452 927Z" />
<glyph unicode="&#xc6;" glyph-name="AE" horiz-adv-x="1070" d="M185 -83L20 -35Q27 -15 43 31T83 142T138 279T205 428T280 572T361 695T445 780T528 812Q569 812 597 788Q664 796 736 800T871 805Q909 805 940 804T991 797L985 631Q966 637 931 639T852 642Q811
642 766 640T677 635Q671 593 667 550T659 465Q720 473 788 477T910 481Q933 481 952 481T984 478L981 314Q971 315 954 315T914 316Q878 316 832 315T738 310T648 301Q646 253 645 223T644 188Q644 130 654 112T693 94Q751 94 831 111T1007 169L1010 -14Q922 -47
839 -62T703 -77Q647 -77 606 -66T536 -26T494 58T478 199Q447 201 418 201Q384 201 352 198T284 190Q263 134 239 68T185 -83ZM431 504Q411 468 394 434T359 366Q401 369 441 369Q465 369 484 368Q489 434 496 497T512 610Q493 593 471 565T431 504Z" />
<glyph unicode="&#xc7;" glyph-name="Ccedilla" horiz-adv-x="892" d="M442 -80Q320 -80 230 -27T91 124T42 353Q42 403 54 464T95 587T170 700T285 782T445 814Q524 814 583 795T685 746T756 684T802 626T827 587L682 476Q660 517 630 556T556 622T447 648Q380
648 336 618T267 542T231 445T221 349Q221 302 231 256T265 172T331 112T436 89Q506 89 550 114T625 184T681 291L845 217Q801 126 746 59T617 -44T442 -80ZM355 -12L446 -33Q442 -43 437 -59T425 -90Q440 -88 457 -88Q486 -88 516 -95T567 -120T588 -173Q588 -205
571 -225T525 -257T463 -272T397 -277Q372 -277 351 -275T313 -271L332 -194Q369 -200 398 -200Q418 -200 440 -196T477 -185T493 -173Q493 -169 483 -167T461 -163T442 -161Q423 -161 399 -164T349 -179L287 -132Q309 -105 327 -72T355 -12Z" />
<glyph unicode="&#xc8;" glyph-name="Egrave" horiz-adv-x="839" d="M396 -74Q320 -74 260 -64T157 -24T93 63T71 212Q71 279 78 351T95 490T116 611Q96 608 82 605L63 764Q112 773 176 779T313 791T458 798T593 801Q643 801 684 800T753 795L745 628Q718 633
672 635T569 638Q502 638 426 635T281 628Q273 586 267 542T256 455Q314 463 383 467T522 474T646 477Q678 477 703 477T744 474L740 310Q727 311 705 311T652 312Q609 312 556 311T447 307T337 301T241 292Q237 236 237 202Q237 153 250 130T293 101T374 94Q463
94 565 109T768 156L779 -18Q659 -51 562 -62T396 -74ZM454 865Q435 877 408 896T350 934T292 969T248 996L312 1104Q332 1090 358 1069T413 1024T468 977T512 936L454 865Z" />
<glyph unicode="&#xc9;" glyph-name="Eacute" horiz-adv-x="839" d="M396 -74Q320 -74 260 -64T157 -24T93 63T71 212Q71 279 78 351T95 490T116 611Q96 608 82 605L63 764Q112 773 176 779T313 791T458 798T593 801Q643 801 684 800T753 795L745 628Q718 633
672 635T569 638Q502 638 426 635T281 628Q273 586 267 542T256 455Q314 463 383 467T522 474T646 477Q678 477 703 477T744 474L740 310Q727 311 705 311T652 312Q609 312 556 311T447 307T337 301T241 292Q237 236 237 202Q237 153 250 130T293 101T374 94Q463
94 565 109T768 156L779 -18Q659 -51 562 -62T396 -74ZM331 871L279 946Q302 963 331 985T389 1030T442 1073T481 1105L564 1008Q549 995 521 978T458 940T390 903T331 871Z" />
<glyph unicode="&#xca;" glyph-name="Ecircumflex" horiz-adv-x="839" d="M396 -74Q320 -74 260 -64T157 -24T93 63T71 212Q71 279 78 351T95 490T116 611Q96 608 82 605L63 764Q112 773 176 779T313 791T458 798T593 801Q643 801 684 800T753 795L745 628Q718
633 672 635T569 638Q502 638 426 635T281 628Q273 586 267 542T256 455Q314 463 383 467T522 474T646 477Q678 477 703 477T744 474L740 310Q727 311 705 311T652 312Q609 312 556 311T447 307T337 301T241 292Q237 236 237 202Q237 153 250 130T293 101T374 94Q463
94 565 109T768 156L779 -18Q659 -51 562 -62T396 -74ZM242 931Q261 949 285 975T335 1030T381 1085T418 1130Q444 1102 476 1069T544 1003T610 945L544 857Q511 881 483 906T424 962Q398 931 376 908T324 856Q322 858 310 869T281 895T254 920T242 931Z" />
<glyph unicode="&#xcb;" glyph-name="Edieresis" horiz-adv-x="839" d="M396 -74Q320 -74 260 -64T157 -24T93 63T71 212Q71 279 78 351T95 490T116 611Q96 608 82 605L63 764Q112 773 176 779T313 791T458 798T593 801Q643 801 684 800T753 795L745 628Q718 633
672 635T569 638Q502 638 426 635T281 628Q273 586 267 542T256 455Q314 463 383 467T522 474T646 477Q678 477 703 477T744 474L740 310Q727 311 705 311T652 312Q609 312 556 311T447 307T337 301T241 292Q237 236 237 202Q237 153 250 130T293 101T374 94Q463
94 565 109T768 156L779 -18Q659 -51 562 -62T396 -74ZM528 896Q495 896 475 917T454 973Q454 1005 472 1023T525 1041Q537 1041 555 1036T587 1016T601 967Q601 943 585 920T528 896ZM314 891Q288 891 266 909T243 966Q243 1001 263 1016T311 1032Q351 1032 368
1011T386 961Q386 926 364 909T314 891Z" />
<glyph unicode="&#xcc;" glyph-name="Igrave" horiz-adv-x="290" d="M70 -69Q62 -17 57 57T49 218T46 395Q46 508 50 615T62 803L246 800Q235 729 230 633T224 415Q224 291 228 166T239 -63L70 -69ZM196 865Q177 877 150 896T92 934T34 969T-10 996L54 1104Q74
1090 100 1069T155 1024T210 977T254 936L196 865Z" />
<glyph unicode="&#xcd;" glyph-name="Iacute" horiz-adv-x="290" d="M70 -69Q62 -17 57 57T49 218T46 395Q46 508 50 615T62 803L246 800Q235 729 230 633T224 415Q224 291 228 166T239 -63L70 -69ZM368 871L316 946Q339 963 368 985T426 1030T479 1073T518 1105L601
1008Q586 995 558 978T495 940T427 903T368 871Z" />
<glyph unicode="&#xce;" glyph-name="Icircumflex" horiz-adv-x="290" d="M70 -69Q62 -17 57 57T49 218T46 395Q46 508 50 615T62 803L246 800Q235 729 230 633T224 415Q224 291 228 166T239 -63L70 -69ZM-34 931Q-15 949 9 975T59 1030T105 1085T142 1130Q168
1102 200 1069T268 1003T334 945L268 857Q235 881 207 906T148 962Q122 931 100 908T48 856Q46 858 34 869T5 895T-22 920T-34 931Z" />
<glyph unicode="&#xcf;" glyph-name="Idieresis" horiz-adv-x="290" d="M70 -69Q62 -17 57 57T49 218T46 395Q46 508 50 615T62 803L246 800Q235 729 230 633T224 415Q224 291 228 166T239 -63L70 -69ZM265 898Q232 898 212 919T191 975Q191 1007 209 1025T262
1043Q274 1043 292 1038T324 1018T338 969Q338 945 322 922T265 898ZM51 893Q25 893 3 911T-20 968Q-20 1003 0 1018T48 1034Q88 1034 105 1013T123 963Q123 928 101 911T51 893Z" />
<glyph unicode="&#xd0;" glyph-name="Eth" horiz-adv-x="890" d="M44 290L40 445Q63 447 93 448T158 451L169 623Q142 617 120 609L91 779Q144 790 221 801T382 813Q446 813 512 800T639 756T747 675T822 550T850 375Q850 233 805 133T673 -21T464 -74Q383 -74
303 -44Q302 -64 300 -79L126 -63L148 294Q120 293 94 292T44 290ZM356 297Q341 297 327 297Q320 189 315 112Q345 102 381 95T458 87Q539 87 588 128T659 236T681 383Q681 446 662 490T613 563T546 608T476 633T414 643T375 646Q361 646 347 646Q341 541 336 453Q386
453 431 452T507 449L505 296Q473 296 435 296T356 297Z" />
<glyph unicode="&#xd1;" glyph-name="Ntilde" horiz-adv-x="915" d="M72 -73Q72 83 76 208T88 437T105 630T124 802L296 795Q292 764 287 728Q321 682 361 623T444 499T528 368T606 243T671 136Q678 205 678 330Q678 394 676 462T671 592T663 704T652 782L840
805Q842 756 842 677T843 508Q843 429 842 350T838 203T829 92Q818 6 785 -35T692 -76Q643 -76 603 -42T515 70Q483 124 441 194T353 339T265 480Q257 363 253 247T249 36Q249 6 249 -20T250 -70L72 -73ZM238 927Q262 983 296 1010T361 1045T409 1054Q435 1054
453 1045T485 1023T513 1001T540 991Q556 991 573 1007T599 1045L701 988Q671 938 639 915T579 885T535 878Q503 878 483 887T450 908T426 929T400 939Q388 939 371 925T344 883L238 927Z" />
<glyph unicode="&#xd2;" glyph-name="Ograve" horiz-adv-x="917" d="M470 -67Q376 -67 299 -33T166 63T80 202T50 367Q50 447 74 524T147 665T271 767T450 805Q557 805 636 769T766 671T842 533T867 375Q867 278 838 197T756 57T630 -35T470 -67ZM470 100Q530
100 581 129T663 222T694 386Q694 473 660 529T572 612T459 639Q392 639 346 615T272 551T232 460T220 357Q220 305 240 259T294 177T374 121T470 100ZM503 865Q484 877 457 896T399 934T341 969T297 996L361 1104Q381 1090 407 1069T462 1024T517 977T561 936L503
865Z" />
<glyph unicode="&#xd3;" glyph-name="Oacute" horiz-adv-x="917" d="M470 -67Q376 -67 299 -33T166 63T80 202T50 367Q50 447 74 524T147 665T271 767T450 805Q557 805 636 769T766 671T842 533T867 375Q867 278 838 197T756 57T630 -35T470 -67ZM470 100Q530
100 581 129T663 222T694 386Q694 473 660 529T572 612T459 639Q392 639 346 615T272 551T232 460T220 357Q220 305 240 259T294 177T374 121T470 100ZM369 871L317 946Q340 963 369 985T427 1030T480 1073T519 1105L602 1008Q587 995 559 978T496 940T428 903T369
871Z" />
<glyph unicode="&#xd4;" glyph-name="Ocircumflex" horiz-adv-x="917" d="M470 -67Q376 -67 299 -33T166 63T80 202T50 367Q50 447 74 524T147 665T271 767T450 805Q557 805 636 769T766 671T842 533T867 375Q867 278 838 197T756 57T630 -35T470 -67ZM470 100Q530
100 581 129T663 222T694 386Q694 473 660 529T572 612T459 639Q392 639 346 615T272 551T232 460T220 357Q220 305 240 259T294 177T374 121T470 100ZM264 931Q283 949 307 975T357 1030T403 1085T440 1130Q466 1102 498 1069T566 1003T632 945L566 857Q533 881
505 906T446 962Q420 931 398 908T346 856Q344 858 332 869T303 895T276 920T264 931Z" />
<glyph unicode="&#xd5;" glyph-name="Otilde" horiz-adv-x="917" d="M470 -67Q376 -67 299 -33T166 63T80 202T50 367Q50 447 74 524T147 665T271 767T450 805Q557 805 636 769T766 671T842 533T867 375Q867 278 838 197T756 57T630 -35T470 -67ZM470 100Q530
100 581 129T663 222T694 386Q694 473 660 529T572 612T459 639Q392 639 346 615T272 551T232 460T220 357Q220 305 240 259T294 177T374 121T470 100ZM217 913Q241 969 275 996T340 1031T388 1040Q414 1040 432 1031T464 1009T492 987T519 977Q535 977 552 993T578
1031L680 974Q650 924 618 901T558 871T514 864Q482 864 462 873T429 894T405 915T379 925Q367 925 350 911T323 869L217 913Z" />
<glyph unicode="&#xd6;" glyph-name="Odieresis" horiz-adv-x="917" d="M470 -67Q376 -67 299 -33T166 63T80 202T50 367Q50 447 74 524T147 665T271 767T450 805Q557 805 636 769T766 671T842 533T867 375Q867 278 838 197T756 57T630 -35T470 -67ZM470 100Q530
100 581 129T663 222T694 386Q694 473 660 529T572 612T459 639Q392 639 346 615T272 551T232 460T220 357Q220 305 240 259T294 177T374 121T470 100ZM562 898Q529 898 509 919T488 975Q488 1007 506 1025T559 1043Q571 1043 589 1038T621 1018T635 969Q635 945
619 922T562 898ZM348 893Q322 893 300 911T277 968Q277 1003 297 1018T345 1034Q385 1034 402 1013T420 963Q420 928 398 911T348 893Z" />
<glyph unicode="&#xd7;" glyph-name="multiply" horiz-adv-x="928" d="M197 -21L83 90Q103 112 143 155T237 254T350 371Q283 435 224 493T121 594T61 655L171 767Q194 743 238 700T339 601T459 485Q522 549 578 607T677 707T739 768L850 655Q825 632 783 589T687
491T574 375Q637 315 694 261T796 164T868 96L758 -20Q736 0 692 42T588 141T465 260Q408 201 356 147T263 49T197 -21Z" />
<glyph unicode="&#xd8;" glyph-name="Oslash" horiz-adv-x="895" d="M140 -41L35 51Q51 69 71 91T116 138Q86 189 71 247T55 367Q55 447 79 524T152 665T276 767T455 805Q534 805 597 785T710 728Q762 777 793 805L884 698Q850 668 804 625Q839 570 855 506T872
375Q872 278 843 197T761 57T635 -35T475 -67Q395 -67 328 -42T207 29Q169 -11 140 -41ZM225 357Q225 311 241 268Q323 351 413 440T585 608Q557 624 527 631T464 639Q397 639 351 615T277 551T237 460T225 357ZM475 100Q535 100 586 129T668 222T699 386Q699 420
694 449T677 503Q592 420 500 328T327 152Q358 128 396 114T475 100Z" />
<glyph unicode="&#xd9;" glyph-name="Ugrave" horiz-adv-x="828" d="M413 -78Q317 -78 254 -48T154 36T98 160T74 310T68 472Q68 565 74 653T87 802L271 791Q261 718 256 661T248 552T246 447Q246 405 247 357T256 261T280 175T327 113T406 89Q458 89 490 112T541
175T567 263T576 362T578 458Q578 543 573 623T560 793L744 807Q752 711 756 632T760 485Q760 394 754 310T727 156T669 33T569 -49T413 -78ZM447 865Q428 877 401 896T343 934T285 969T241 996L305 1104Q325 1090 351 1069T406 1024T461 977T505 936L447 865Z"
/>
<glyph unicode="&#xda;" glyph-name="Uacute" horiz-adv-x="828" d="M413 -78Q317 -78 254 -48T154 36T98 160T74 310T68 472Q68 565 74 653T87 802L271 791Q261 718 256 661T248 552T246 447Q246 405 247 357T256 261T280 175T327 113T406 89Q458 89 490 112T541
175T567 263T576 362T578 458Q578 543 573 623T560 793L744 807Q752 711 756 632T760 485Q760 394 754 310T727 156T669 33T569 -49T413 -78ZM347 871L295 946Q318 963 347 985T405 1030T458 1073T497 1105L580 1008Q565 995 537 978T474 940T406 903T347 871Z"
/>
<glyph unicode="&#xdb;" glyph-name="Ucircumflex" horiz-adv-x="828" d="M413 -78Q317 -78 254 -48T154 36T98 160T74 310T68 472Q68 565 74 653T87 802L271 791Q261 718 256 661T248 552T246 447Q246 405 247 357T256 261T280 175T327 113T406 89Q458 89 490
112T541 175T567 263T576 362T578 458Q578 543 573 623T560 793L744 807Q752 711 756 632T760 485Q760 394 754 310T727 156T669 33T569 -49T413 -78ZM224 931Q243 949 267 975T317 1030T363 1085T400 1130Q426 1102 458 1069T526 1003T592 945L526 857Q493 881
465 906T406 962Q380 931 358 908T306 856Q304 858 292 869T263 895T236 920T224 931Z" />
<glyph unicode="&#xdc;" glyph-name="Udieresis" horiz-adv-x="828" d="M413 -78Q317 -78 254 -48T154 36T98 160T74 310T68 472Q68 565 74 653T87 802L271 791Q261 718 256 661T248 552T246 447Q246 405 247 357T256 261T280 175T327 113T406 89Q458 89 490 112T541
175T567 263T576 362T578 458Q578 543 573 623T560 793L744 807Q752 711 756 632T760 485Q760 394 754 310T727 156T669 33T569 -49T413 -78ZM514 898Q481 898 461 919T440 975Q440 1007 458 1025T511 1043Q523 1043 541 1038T573 1018T587 969Q587 945 571 922T514
898ZM300 893Q274 893 252 911T229 968Q229 1003 249 1018T297 1034Q337 1034 354 1013T372 963Q372 928 350 911T300 893Z" />
<glyph unicode="&#xdd;" glyph-name="Yacute" horiz-adv-x="929" d="M380 -65Q379 -33 379 2T378 77Q378 129 379 185T383 296Q328 324 278 377T182 496T101 628T40 747L205 814Q222 770 249 720T308 620T371 532T428 468T468 444Q483 444 505 465T553 520T605
596T655 680T696 759T722 819L890 755Q862 701 826 634T747 499T656 378T556 296Q554 246 554 178Q554 111 555 45T558 -68Q540 -68 515 -68T464 -69T417 -70T386 -71L380 -65ZM408 871L356 946Q379 963 408 985T466 1030T519 1073T558 1105L641 1008Q626 995 598
978T535 940T467 903T408 871Z" />
<glyph unicode="&#xde;" glyph-name="Thorn" horiz-adv-x="755" d="M75 -77Q74 -51 74 -22T74 35Q74 134 77 238T84 444T93 639T102 811L272 802Q267 736 262 652Q321 660 378 660Q413 660 460 654T558 632T650 584T719 502T746 376Q746 309 722 259T656 173T562
115T454 82T343 71Q292 71 242 79Q242 61 242 44Q242 10 242 -20T244 -76L75 -77ZM377 492Q320 492 253 483Q251 424 249 364T245 245Q266 243 288 241T333 239Q372 239 414 246T494 271T555 316T578 387Q578 436 525 464T377 492Z" />
<glyph unicode="&#xdf;" glyph-name="germandbls" horiz-adv-x="732" d="M428 -76Q373 -76 325 -67T245 -51L297 117Q363 93 422 93Q483 93 515 120T547 200Q547 235 529 257T484 293T426 312T373 318Q340 318 335 309L331 474Q409 475 453 504T498 584Q498 653
401 653Q273 653 255 491Q253 469 250 421T242 308T234 176T226 45T217 -63L48 -61Q55 9 62 100T76 296T90 508Q101 660 182 740T407 821Q526 821 594 759T662 586Q662 516 636 474T579 410Q643 382 681 325T719 192Q719 67 642 -4T428 -76Z" />
<glyph unicode="&#xe0;" glyph-name="agrave" horiz-adv-x="729" d="M299 -79Q224 -79 163 -41T67 63T31 210Q31 286 59 347T135 453T246 520T376 544Q433 544 488 528Q492 549 495 570L666 541Q659 522 652 484T641 399T633 305T630 220Q630 189 634 160T654
112T700 93H714L689 -81Q623 -81 580 -59T511 2Q468 -46 413 -62T299 -79ZM195 190Q200 142 234 114T322 85Q373 85 407 112T463 188Q462 204 462 221Q462 256 464 293T469 366Q427 382 381 382Q327 382 285 361T218 301T194 213Q194 207 194 201T195 190ZM386
622Q367 634 340 653T282 691T224 726T180 753L244 861Q264 847 290 826T345 781T400 734T444 693L386 622Z" />
<glyph unicode="&#xe1;" glyph-name="aacute" horiz-adv-x="729" d="M299 -79Q224 -79 163 -41T67 63T31 210Q31 286 59 347T135 453T246 520T376 544Q433 544 488 528Q492 549 495 570L666 541Q659 522 652 484T641 399T633 305T630 220Q630 189 634 160T654
112T700 93H714L689 -81Q623 -81 580 -59T511 2Q468 -46 413 -62T299 -79ZM195 190Q200 142 234 114T322 85Q373 85 407 112T463 188Q462 204 462 221Q462 256 464 293T469 366Q427 382 381 382Q327 382 285 361T218 301T194 213Q194 207 194 201T195 190ZM280
628L228 703Q251 720 280 742T338 787T391 830T430 862L513 765Q498 752 470 735T407 697T339 660T280 628Z" />
<glyph unicode="&#xe2;" glyph-name="acircumflex" horiz-adv-x="729" d="M299 -79Q224 -79 163 -41T67 63T31 210Q31 286 59 347T135 453T246 520T376 544Q433 544 488 528Q492 549 495 570L666 541Q659 522 652 484T641 399T633 305T630 220Q630 189 634 160T654
112T700 93H714L689 -81Q623 -81 580 -59T511 2Q468 -46 413 -62T299 -79ZM195 190Q200 142 234 114T322 85Q373 85 407 112T463 188Q462 204 462 221Q462 256 464 293T469 366Q427 382 381 382Q327 382 285 361T218 301T194 213Q194 207 194 201T195 190ZM171
687Q190 705 214 731T264 786T310 841T347 886Q373 858 405 825T473 759T539 701L473 613Q440 637 412 662T353 718Q327 687 305 664T253 612Q251 614 239 625T210 651T183 676T171 687Z" />
<glyph unicode="&#xe3;" glyph-name="atilde" horiz-adv-x="729" d="M299 -79Q224 -79 163 -41T67 63T31 210Q31 286 59 347T135 453T246 520T376 544Q433 544 488 528Q492 549 495 570L666 541Q659 522 652 484T641 399T633 305T630 220Q630 189 634 160T654
112T700 93H714L689 -81Q623 -81 580 -59T511 2Q468 -46 413 -62T299 -79ZM195 190Q200 142 234 114T322 85Q373 85 407 112T463 188Q462 204 462 221Q462 256 464 293T469 366Q427 382 381 382Q327 382 285 361T218 301T194 213Q194 207 194 201T195 190ZM116
677Q140 733 174 760T239 795T287 804Q313 804 331 795T363 773T391 751T418 741Q434 741 451 757T477 795L579 738Q549 688 517 665T457 635T413 628Q381 628 361 637T328 658T304 679T278 689Q266 689 249 675T222 633L116 677Z" />
<glyph unicode="&#xe4;" glyph-name="adieresis" horiz-adv-x="729" d="M299 -79Q224 -79 163 -41T67 63T31 210Q31 286 59 347T135 453T246 520T376 544Q433 544 488 528Q492 549 495 570L666 541Q659 522 652 484T641 399T633 305T630 220Q630 189 634 160T654
112T700 93H714L689 -81Q623 -81 580 -59T511 2Q468 -46 413 -62T299 -79ZM195 190Q200 142 234 114T322 85Q373 85 407 112T463 188Q462 204 462 221Q462 256 464 293T469 366Q427 382 381 382Q327 382 285 361T218 301T194 213Q194 207 194 201T195 190ZM455
654Q422 654 402 675T381 731Q381 763 399 781T452 799Q464 799 482 794T514 774T528 725Q528 701 512 678T455 654ZM241 649Q215 649 193 667T170 724Q170 759 190 774T238 790Q278 790 295 769T313 719Q313 684 291 667T241 649Z" />
<glyph unicode="&#xe5;" glyph-name="aring" horiz-adv-x="729" d="M299 -79Q224 -79 163 -41T67 63T31 210Q31 286 59 347T135 453T246 520T376 544Q433 544 488 528Q492 549 495 570L666 541Q659 522 652 484T641 399T633 305T630 220Q630 189 634 160T654 112T700
93H714L689 -81Q623 -81 580 -59T511 2Q468 -46 413 -62T299 -79ZM195 190Q200 142 234 114T322 85Q373 85 407 112T463 188Q462 204 462 221Q462 256 464 293T469 366Q427 382 381 382Q327 382 285 361T218 301T194 213Q194 207 194 201T195 190ZM347 868Q399
868 431 849T477 798T492 728Q492 691 475 660T426 610T355 591Q311 591 280 611T232 663T215 730Q215 761 227 792T268 846T347 868ZM357 683Q381 683 390 698T400 731Q400 747 391 761T353 776Q328 776 318 761T307 729Q307 712 319 698T357 683Z" />
<glyph unicode="&#xe6;" glyph-name="ae" horiz-adv-x="1058" d="M262 -83Q209 -83 158 -66T73 -8T40 97Q40 170 73 219T161 298T279 340T403 353Q426 353 451 350Q434 396 364 396Q324 396 278 379T189 337T117 286L31 426Q66 458 117 487T229 534T353 553Q417
553 468 535T555 484Q590 515 639 534T755 554Q832 554 880 533T953 481T988 419T998 367Q998 300 963 250T864 172T714 144Q689 144 666 146T623 151Q652 85 744 85Q797 85 842 118T925 192L1029 56Q1001 26 964 -6T873 -60T735 -82Q665 -82 608 -54T511 26Q458
-29 391 -56T262 -83ZM751 386Q700 386 672 361T630 304Q649 303 670 303Q683 303 709 305T764 313T813 327T833 349Q833 386 751 386ZM203 107Q203 94 217 86T256 78Q307 78 361 113Q386 129 404 151T434 199Q408 203 384 203Q329 203 288 186T225 147T203 107Z"
/>
<glyph unicode="&#xe7;" glyph-name="ccedilla" horiz-adv-x="657" d="M342 -81Q258 -81 187 -46T73 54T30 211Q30 313 70 390T182 509T350 552Q442 552 506 515T620 396L481 300Q453 345 424 368T345 392Q277 392 235 345T193 218Q193 172 215 143T271 100T333
86Q363 86 391 93T444 127T489 206L639 126Q609 71 572 24T481 -52T342 -81ZM275 -14L366 -35Q362 -45 357 -61T345 -92Q360 -90 377 -90Q406 -90 436 -97T487 -122T508 -175Q508 -207 491 -227T445 -259T383 -274T317 -279Q292 -279 271 -277T233 -273L252 -196Q289
-202 318 -202Q338 -202 360 -198T397 -187T413 -175Q413 -171 403 -169T381 -165T362 -163Q343 -163 319 -166T269 -181L207 -134Q229 -107 247 -74T275 -14Z" />
<glyph unicode="&#xe8;" glyph-name="egrave" horiz-adv-x="688" d="M350 -80Q254 -80 182 -43T69 62T28 217Q28 270 46 328T104 438T209 521T369 553Q437 553 483 538T559 499T604 448T625 397T631 356Q631 259 550 207T319 154Q285 154 255 157T198 164Q217
114 261 91T352 67Q420 67 472 91T570 167L659 39Q627 13 588 -15T491 -61T350 -80ZM372 403Q313 403 268 373T202 294Q227 290 251 288T300 285Q322 285 350 289T406 301T452 321T470 351Q470 359 462 371T433 393T372 403ZM387 622Q368 634 341 653T283 691T225
726T181 753L245 861Q265 847 291 826T346 781T401 734T445 693L387 622Z" />
<glyph unicode="&#xe9;" glyph-name="eacute" horiz-adv-x="688" d="M350 -80Q254 -80 182 -43T69 62T28 217Q28 270 46 328T104 438T209 521T369 553Q437 553 483 538T559 499T604 448T625 397T631 356Q631 259 550 207T319 154Q285 154 255 157T198 164Q217
114 261 91T352 67Q420 67 472 91T570 167L659 39Q627 13 588 -15T491 -61T350 -80ZM372 403Q313 403 268 373T202 294Q227 290 251 288T300 285Q322 285 350 289T406 301T452 321T470 351Q470 359 462 371T433 393T372 403ZM260 628L208 703Q231 720 260 742T318
787T371 830T410 862L493 765Q478 752 450 735T387 697T319 660T260 628Z" />
<glyph unicode="&#xea;" glyph-name="ecircumflex" horiz-adv-x="688" d="M350 -80Q254 -80 182 -43T69 62T28 217Q28 270 46 328T104 438T209 521T369 553Q437 553 483 538T559 499T604 448T625 397T631 356Q631 259 550 207T319 154Q285 154 255 157T198 164Q217
114 261 91T352 67Q420 67 472 91T570 167L659 39Q627 13 588 -15T491 -61T350 -80ZM372 403Q313 403 268 373T202 294Q227 290 251 288T300 285Q322 285 350 289T406 301T452 321T470 351Q470 359 462 371T433 393T372 403ZM155 687Q174 705 198 731T248 786T294
841T331 886Q357 858 389 825T457 759T523 701L457 613Q424 637 396 662T337 718Q311 687 289 664T237 612Q235 614 223 625T194 651T167 676T155 687Z" />
<glyph unicode="&#xeb;" glyph-name="edieresis" horiz-adv-x="688" d="M350 -80Q254 -80 182 -43T69 62T28 217Q28 270 46 328T104 438T209 521T369 553Q437 553 483 538T559 499T604 448T625 397T631 356Q631 259 550 207T319 154Q285 154 255 157T198 164Q217
114 261 91T352 67Q420 67 472 91T570 167L659 39Q627 13 588 -15T491 -61T350 -80ZM372 403Q313 403 268 373T202 294Q227 290 251 288T300 285Q322 285 350 289T406 301T452 321T470 351Q470 359 462 371T433 393T372 403ZM451 654Q418 654 398 675T377 731Q377
763 395 781T448 799Q460 799 478 794T510 774T524 725Q524 701 508 678T451 654ZM237 649Q211 649 189 667T166 724Q166 759 186 774T234 790Q274 790 291 769T309 719Q309 684 287 667T237 649Z" />
<glyph unicode="&#xec;" glyph-name="igrave" horiz-adv-x="251" d="M41 -73Q38 -11 37 59T36 202Q36 294 38 382T43 543L214 544Q211 497 210 430T209 288Q209 215 210 144T212 16T215 -73H41ZM163 622Q144 634 117 653T59 691T1 726T-43 753L21 861Q41 847 67
826T122 781T177 734T221 693L163 622Z" />
<glyph unicode="&#xed;" glyph-name="iacute" horiz-adv-x="251" d="M41 -73Q38 -11 37 59T36 202Q36 294 38 382T43 543L214 544Q211 497 210 430T209 288Q209 215 210 144T212 16T215 -73H41ZM48 628L-4 703Q19 720 48 742T106 787T159 830T198 862L281 765Q266
752 238 735T175 697T107 660T48 628Z" />
<glyph unicode="&#xee;" glyph-name="icircumflex" horiz-adv-x="251" d="M41 -73Q38 -11 37 59T36 202Q36 294 38 382T43 543L214 544Q211 497 210 430T209 288Q209 215 210 144T212 16T215 -73H41ZM-64 687Q-45 705 -21 731T29 786T75 841T112 886Q138 858 170
825T238 759T304 701L238 613Q205 637 177 662T118 718Q92 687 70 664T18 612Q16 614 4 625T-25 651T-52 676T-64 687Z" />
<glyph unicode="&#xef;" glyph-name="idieresis" horiz-adv-x="251" d="M41 -73Q38 -11 37 59T36 202Q36 294 38 382T43 543L214 544Q211 497 210 430T209 288Q209 215 210 144T212 16T215 -73H41ZM229 654Q196 654 176 675T155 731Q155 763 173 781T226 799Q238
799 256 794T288 774T302 725Q302 701 286 678T229 654ZM15 649Q-11 649 -33 667T-56 724Q-56 759 -36 774T12 790Q52 790 69 769T87 719Q87 684 65 667T15 649Z" />
<glyph unicode="&#xf0;" glyph-name="eth" horiz-adv-x="694" d="M350 -77Q296 -77 240 -60T138 -6T62 85T33 215Q33 422 303 519Q278 538 251 556Q216 529 186 504T137 459L37 565Q48 576 68 593T114 631Q84 645 52 658L127 815Q152 804 188 787T267 744Q299
767 327 785T375 815L452 694Q435 684 398 660Q465 610 525 547T623 407T661 242Q661 155 633 94T559 -5T458 -60T350 -77ZM202 222Q202 182 218 156T258 114T308 92T351 85Q358 85 379 88T426 106T469 152T487 242Q487 272 473 312T425 398Q388 391 349 378T277
344T223 293T202 222Z" />
<glyph unicode="&#xf1;" glyph-name="ntilde" horiz-adv-x="679" d="M56 -72Q53 16 52 91T50 239Q50 312 51 385T57 543H226Q222 498 219 452Q253 495 300 523T411 552Q474 552 514 531T578 473T612 389T626 287T629 177Q629 117 627 62T623 -30T620 -74H452Q454
-33 456 13T460 105T462 188Q462 401 393 401Q336 401 290 352T212 227Q212 217 212 207Q212 159 212 108T214 10T217 -71L56 -72ZM92 683Q116 739 150 766T215 801T263 810Q289 810 307 801T339 779T367 757T394 747Q410 747 427 763T453 801L555 744Q525 694
493 671T433 641T389 634Q357 634 337 643T304 664T280 685T254 695Q242 695 225 681T198 639L92 683Z" />
<glyph unicode="&#xf2;" glyph-name="ograve" horiz-adv-x="692" d="M345 -82Q265 -82 206 -56T107 15T49 120T30 244Q30 310 53 366T118 465T216 530T338 554Q407 554 466 530T569 463T637 362T662 236Q662 85 579 2T345 -82ZM344 80Q417 80 455 121T494 239Q494
308 452 350T342 392Q301 392 267 371T213 314T192 235Q192 197 207 161T257 103T344 80ZM363 622Q344 634 317 653T259 691T201 726T157 753L221 861Q241 847 267 826T322 781T377 734T421 693L363 622Z" />
<glyph unicode="&#xf3;" glyph-name="oacute" horiz-adv-x="692" d="M345 -82Q265 -82 206 -56T107 15T49 120T30 244Q30 310 53 366T118 465T216 530T338 554Q407 554 466 530T569 463T637 362T662 236Q662 85 579 2T345 -82ZM344 80Q417 80 455 121T494 239Q494
308 452 350T342 392Q301 392 267 371T213 314T192 235Q192 197 207 161T257 103T344 80ZM257 628L205 703Q228 720 257 742T315 787T368 830T407 862L490 765Q475 752 447 735T384 697T316 660T257 628Z" />
<glyph unicode="&#xf4;" glyph-name="ocircumflex" horiz-adv-x="692" d="M345 -82Q265 -82 206 -56T107 15T49 120T30 244Q30 310 53 366T118 465T216 530T338 554Q407 554 466 530T569 463T637 362T662 236Q662 85 579 2T345 -82ZM344 80Q417 80 455 121T494
239Q494 308 452 350T342 392Q301 392 267 371T213 314T192 235Q192 197 207 161T257 103T344 80ZM156 687Q175 705 199 731T249 786T295 841T332 886Q358 858 390 825T458 759T524 701L458 613Q425 637 397 662T338 718Q312 687 290 664T238 612Q236 614 224 625T195
651T168 676T156 687Z" />
<glyph unicode="&#xf5;" glyph-name="otilde" horiz-adv-x="692" d="M345 -82Q265 -82 206 -56T107 15T49 120T30 244Q30 310 53 366T118 465T216 530T338 554Q407 554 466 530T569 463T637 362T662 236Q662 85 579 2T345 -82ZM344 80Q417 80 455 121T494 239Q494
308 452 350T342 392Q301 392 267 371T213 314T192 235Q192 197 207 161T257 103T344 80ZM110 683Q134 739 168 766T233 801T281 810Q307 810 325 801T357 779T385 757T412 747Q428 747 445 763T471 801L573 744Q543 694 511 671T451 641T407 634Q375 634 355 643T322
664T298 685T272 695Q260 695 243 681T216 639L110 683Z" />
<glyph unicode="&#xf6;" glyph-name="odieresis" horiz-adv-x="692" d="M345 -82Q265 -82 206 -56T107 15T49 120T30 244Q30 310 53 366T118 465T216 530T338 554Q407 554 466 530T569 463T637 362T662 236Q662 85 579 2T345 -82ZM344 80Q417 80 455 121T494 239Q494
308 452 350T342 392Q301 392 267 371T213 314T192 235Q192 197 207 161T257 103T344 80ZM450 654Q417 654 397 675T376 731Q376 763 394 781T447 799Q459 799 477 794T509 774T523 725Q523 701 507 678T450 654ZM236 649Q210 649 188 667T165 724Q165 759 185
774T233 790Q273 790 290 769T308 719Q308 684 286 667T236 649Z" />
<glyph unicode="&#xf7;" glyph-name="divide" horiz-adv-x="936" d="M454 557Q404 557 372 590T339 675Q339 713 357 736T403 771T456 782Q505 782 537 751T570 672Q570 620 539 589T454 557ZM55 306L50 467Q99 469 175 470T342 472T521 473Q590 473 661 473T792
472T886 469L884 311Q850 312 797 312T685 313T569 313Q478 313 384 313T204 311T55 306ZM452 8Q403 8 371 41T338 126Q338 163 356 186T402 221T454 233Q503 233 535 202T568 124Q568 71 537 40T452 8Z" />
<glyph unicode="&#xf8;" glyph-name="oslash" horiz-adv-x="703" d="M118 -100L33 -21Q48 -6 66 13T106 53Q81 94 69 143T56 244Q56 310 79 366T144 464T242 529T364 553Q418 553 466 538T553 496Q593 533 620 557L692 472Q668 451 632 418Q658 380 672 334T687
236Q687 85 605 2T371 -82Q313 -82 266 -68T183 -28Q144 -70 118 -100ZM218 235Q218 204 227 176Q277 226 329 278T432 380Q403 392 368 392Q327 392 293 371T239 314T218 235ZM370 80Q443 80 481 121T520 239Q520 273 509 301Q458 252 405 199T300 94Q330 80 370
80Z" />
<glyph unicode="&#xf9;" glyph-name="ugrave" horiz-adv-x="689" d="M270 -82Q206 -82 165 -60T99 2T63 89T48 190T44 292Q44 348 47 406T55 533L238 544Q235 523 229 481T218 385T213 272Q213 175 230 129T281 82Q349 82 381 181T413 494V540L498 542L601 544Q587
450 580 371T571 239T569 167Q569 121 577 102T605 82Q615 82 627 86T655 100L648 -72Q610 -78 582 -78Q534 -78 504 -60T455 -12Q424 -45 379 -63T270 -82ZM373 622Q354 634 327 653T269 691T211 726T167 753L231 861Q251 847 277 826T332 781T387 734T431 693L373
622Z" />
<glyph unicode="&#xfa;" glyph-name="uacute" horiz-adv-x="689" d="M270 -82Q206 -82 165 -60T99 2T63 89T48 190T44 292Q44 348 47 406T55 533L238 544Q235 523 229 481T218 385T213 272Q213 175 230 129T281 82Q349 82 381 181T413 494V540L498 542L601 544Q587
450 580 371T571 239T569 167Q569 121 577 102T605 82Q615 82 627 86T655 100L648 -72Q610 -78 582 -78Q534 -78 504 -60T455 -12Q424 -45 379 -63T270 -82ZM262 628L210 703Q233 720 262 742T320 787T373 830T412 862L495 765Q480 752 452 735T389 697T321 660T262
628Z" />
<glyph unicode="&#xfb;" glyph-name="ucircumflex" horiz-adv-x="689" d="M270 -82Q206 -82 165 -60T99 2T63 89T48 190T44 292Q44 348 47 406T55 533L238 544Q235 523 229 481T218 385T213 272Q213 175 230 129T281 82Q349 82 381 181T413 494V540L498 542L601
544Q587 450 580 371T571 239T569 167Q569 121 577 102T605 82Q615 82 627 86T655 100L648 -72Q610 -78 582 -78Q534 -78 504 -60T455 -12Q424 -45 379 -63T270 -82ZM119 687Q138 705 162 731T212 786T258 841T295 886Q321 858 353 825T421 759T487 701L421 613Q388
637 360 662T301 718Q275 687 253 664T201 612Q199 614 187 625T158 651T131 676T119 687Z" />
<glyph unicode="&#xfc;" glyph-name="udieresis" horiz-adv-x="689" d="M270 -82Q206 -82 165 -60T99 2T63 89T48 190T44 292Q44 348 47 406T55 533L238 544Q235 523 229 481T218 385T213 272Q213 175 230 129T281 82Q349 82 381 181T413 494V540L498 542L601
544Q587 450 580 371T571 239T569 167Q569 121 577 102T605 82Q615 82 627 86T655 100L648 -72Q610 -78 582 -78Q534 -78 504 -60T455 -12Q424 -45 379 -63T270 -82ZM436 654Q403 654 383 675T362 731Q362 763 380 781T433 799Q445 799 463 794T495 774T509 725Q509
701 493 678T436 654ZM222 649Q196 649 174 667T151 724Q151 759 171 774T219 790Q259 790 276 769T294 719Q294 684 272 667T222 649Z" />
<glyph unicode="&#xfd;" glyph-name="yacute" horiz-adv-x="728" d="M208 -271L58 -191Q114 -129 167 -64T268 71Q221 134 174 206T87 349T22 474L182 544Q200 496 228 440T291 326T363 215Q471 390 541 560L707 494Q662 408 606 310T485 110T350 -89T208 -271ZM312
626L260 701Q283 718 312 740T370 785T423 828T462 860L545 763Q530 750 502 733T439 695T371 658T312 626Z" />
<glyph unicode="&#xfe;" glyph-name="thorn" horiz-adv-x="733" d="M80 -282Q73 -202 70 -121T67 67Q67 152 70 260T80 490T101 735L275 731Q267 672 261 615T250 503Q286 527 327 538T412 549Q467 549 519 532T613 477T679 381T704 239Q704 157 679 96T612 -5T518
-64T411 -84Q360 -84 315 -69T233 -23Q235 -88 239 -147T249 -270L80 -282ZM385 384Q286 384 236 288Q235 255 234 225T233 165Q256 133 294 110T391 86Q532 86 532 247Q532 290 516 317T476 358T427 378T385 384Z" />
<glyph unicode="&#xff;" glyph-name="ydieresis" horiz-adv-x="728" d="M208 -271L58 -191Q114 -129 167 -64T268 71Q221 134 174 206T87 349T22 474L182 544Q200 496 228 440T291 326T363 215Q471 390 541 560L707 494Q662 408 606 310T485 110T350 -89T208 -271ZM467
652Q434 652 414 673T393 729Q393 761 411 779T464 797Q476 797 494 792T526 772T540 723Q540 699 524 676T467 652ZM253 647Q227 647 205 665T182 722Q182 757 202 772T250 788Q290 788 307 767T325 717Q325 682 303 665T253 647Z" />
<glyph unicode="&#x2013;" glyph-name="endash" horiz-adv-x="529" d="M-20 322V438H549V322H-20Z" />
<glyph unicode="&#x2014;" glyph-name="emdash" horiz-adv-x="1013" d="M-20 322V438H1033V322H-20Z" />
<glyph unicode="&#x2018;" glyph-name="quoteleft" horiz-adv-x="259" d="M122 588Q67 588 44 618T20 694Q20 721 32 757T72 828T140 883L228 832Q205 822 183 809T150 778H155Q173 778 192 769T225 742T239 693Q239 672 228 648T191 606T122 588Z" />
<glyph unicode="&#x2019;" glyph-name="quoteright" horiz-adv-x="259" d="M119 588L31 639Q54 649 76 662T109 693H104Q86 693 67 702T34 730T20 778Q20 800 31 824T68 865T137 883Q192 883 215 853T239 777Q239 751 227 715T188 644T119 588Z" />
<glyph unicode="&#x201a;" glyph-name="quotesinglbase" horiz-adv-x="312" d="M131 -148L43 -97Q66 -87 88 -74T121 -43H116Q98 -43 79 -34T46 -6T32 42Q32 64 43 88T80 129T149 147Q204 147 227 117T251 41Q251 15 239 -21T200 -93T131 -148Z" />
<glyph unicode="&#x201c;" glyph-name="quotedblleft" horiz-adv-x="524" d="M387 588Q332 588 309 618T285 694Q285 721 297 757T337 828T405 883L493 832Q470 822 448 809T415 778H420Q438 778 457 769T490 742T504 693Q504 672 493 648T456 606T387 588ZM122
588Q67 588 44 618T20 694Q20 721 32 757T72 828T140 883L228 832Q205 822 183 809T150 778H155Q173 778 192 769T225 742T239 693Q239 672 228 648T191 606T122 588Z" />
<glyph unicode="&#x201d;" glyph-name="quotedblright" horiz-adv-x="524" d="M384 588L296 639Q319 649 341 662T374 693H369Q352 693 332 702T299 730T285 778Q285 800 296 824T333 865T402 883Q457 883 480 853T504 777Q504 751 492 715T453 644T384 588ZM119
588L31 639Q54 649 76 662T109 693H104Q86 693 67 702T34 730T20 778Q20 800 31 824T68 865T137 883Q192 883 215 853T239 777Q239 751 227 715T188 644T119 588Z" />
<glyph unicode="&#x201e;" glyph-name="quotedblbase" horiz-adv-x="524" d="M384 -148L296 -97Q319 -87 341 -74T374 -43H369Q352 -43 332 -34T299 -6T285 42Q285 64 296 88T333 129T402 147Q457 147 480 117T504 41Q504 15 492 -21T453 -93T384 -148ZM119 -148L31
-97Q54 -87 76 -74T109 -43H104Q86 -43 67 -34T34 -6T20 42Q20 64 31 88T68 129T137 147Q192 147 215 117T239 41Q239 15 227 -21T188 -93T119 -148Z" />
<glyph unicode="&#x2022;" glyph-name="bullet" horiz-adv-x="383" d="M192 227Q154 227 123 245T74 295T55 363Q55 401 73 431T123 480T192 499Q230 499 260 481T309 432T328 363Q328 326 310 295T261 246T192 227Z" />
<glyph unicode="&#x2039;" glyph-name="guilsinglleft" horiz-adv-x="542" d="M411 -106Q387 -81 350 -49T270 21T181 94T95 162T23 217Q61 255 109 300T209 394T306 488T385 575L493 481Q471 455 437 419T364 346T292 277T241 229Q257 215 283 193T341 144T404
90T462 40T505 2L411 -106Z" />
<glyph unicode="&#x203a;" glyph-name="guilsinglright" horiz-adv-x="514" d="M141 -100L39 0Q62 25 95 58T165 124T231 186T280 232Q266 245 240 269T183 324T122 385T69 440T37 478L144 570Q164 548 196 515T267 444T347 366T425 290T491 225Q469 207 435 177T360
110T278 35T202 -38T141 -100Z" />
</font>
</defs>
</svg>
