<?xml version="1.0" standalone="no"?>
<!DOCTYPE svg PUBLIC "-//W3C//DTD SVG 1.1//EN" "http://www.w3.org/Graphics/SVG/1.1/DTD/svg11.dtd">
<svg xmlns="http://www.w3.org/2000/svg">
<defs >
<font id="KleeOne" horiz-adv-x="966" ><font-face
    font-family="Klee One"
    units-per-em="1000"
    panose-1="0 0 0 0 0 0 0 0 0 0"
    ascent="1160"
    descent="-288"
    alphabetic="0" />
<glyph unicode=" " glyph-name="space" horiz-adv-x="350" />
<glyph unicode="!" glyph-name="exclam" horiz-adv-x="350" d="M199 173V223L207 609Q208 627 210 645T213 680V682Q213 693 197 702T166 711Q158 711 152 707T146 695V693Q147 687 149 661T151 614L153 227Q153 217 153 207T151 188V187Q151 178 163 172T187
166Q199 166 199 173ZM181 -5Q221 -5 221 37Q221 57 205 76T171 95Q151 95 141 83T130 51Q130 32 145 14T181 -5Z" />
<glyph unicode="&quot;" glyph-name="quotedbl" horiz-adv-x="350" d="M209 703L215 492Q215 485 222 481T239 477Q248 477 255 481T263 492L269 703Q269 714 260 718T239 723Q228 723 219 719T209 703ZM81 703L87 492Q87 485 94 481T111 477Q120 477 127 481T135
492L141 703Q141 714 132 718T111 723Q100 723 91 719T81 703Z" />
<glyph unicode="#" glyph-name="numbersign" horiz-adv-x="600" d="M338 9V7Q338 0 345 -3T363 -6Q374 -6 383 -2T394 9Q396 24 397 38T400 72L419 212H453Q476 212 492 212T531 211Q546 211 546 232Q546 243 541 253T526 263H525Q483 260 454 260H425L454 467H479Q491
467 513 467T557 466Q572 466 572 487Q572 498 567 508T552 518H551Q509 515 480 515H460L480 660Q481 665 483 674T489 694Q489 695 489 696T490 698Q490 706 479 711T457 716Q449 716 443 714T436 705Q435 690 434 679T432 662L412 515H243L263 660Q264 666 267
676T272 694Q272 695 272 696T273 698Q273 706 262 711T239 716Q232 716 226 714T219 705Q218 690 217 679T215 662L195 515H165Q141 515 120 515T83 517Q75 517 72 511T68 497Q68 486 73 475T87 464H88Q101 466 123 466T164 467H188L160 260H139Q115 260 94 260T57
262Q42 262 42 241Q42 230 47 220T60 209H62Q74 211 97 211T138 212H154L135 74Q132 55 128 39T121 9V7Q121 0 128 -3T146 -6Q157 -6 166 -2T177 9Q179 24 180 39T183 72L202 212H371L352 74Q350 57 346 40T338 9ZM405 467L377 260H208L237 467H405Z" />
<glyph unicode="$" glyph-name="dollar" horiz-adv-x="600" d="M277 364V38Q261 39 227 45T154 74T82 145Q78 152 71 152Q60 152 49 138T37 108Q37 98 42 93Q86 43 143 16T277 -14Q277 -23 277 -40T276 -74T275 -98Q275 -109 289 -115T317 -122Q332 -122 332 -114Q332
-104 332 -84T330 -42T329 -12Q400 -6 449 22T523 95T549 192Q549 272 502 321T360 395L329 403V656Q379 649 413 630T468 587Q475 580 480 575T490 570Q498 570 505 586T513 612Q513 631 488 651T422 688T330 708Q330 720 330 730T331 747Q331 758 317 764T290
770Q274 770 274 761Q274 753 274 738T276 708Q216 702 170 676T97 610T70 526Q70 461 112 429T228 377L277 364ZM277 655V417L253 423Q186 441 157 462T128 524Q128 552 146 580T199 628T277 655ZM329 350L344 346Q422 325 457 287T492 184Q492 149 471 118T413
67T329 40V350Z" />
<glyph unicode="%" glyph-name="percent" horiz-adv-x="800" d="M557 650L187 70Q180 59 170 45T149 20Q144 13 144 7Q144 -6 154 -19T175 -33Q182 -33 185 -26Q203 6 222 37L596 619Q605 633 617 649T642 682Q644 686 644 689Q644 701 633 716T611 732Q603 732
599 723Q590 704 579 685T557 650ZM131 692Q127 696 121 696Q109 696 94 676T67 621T56 547Q56 470 93 422T208 373Q258 373 290 397T338 460T354 547Q354 596 338 635T290 699T211 723Q187 723 166 715T131 692ZM206 418Q167 418 145 437T115 486T106 547Q106
594 121 622T161 664T208 678Q243 678 264 660T295 612T305 551Q305 493 282 456T206 418ZM521 303Q517 307 511 307Q499 307 484 287T457 232T446 158Q446 81 483 33T598 -16Q648 -16 680 8T728 71T744 158Q744 207 728 246T680 310T601 334Q577 334 556 326T521
303ZM596 29Q557 29 535 48T505 97T496 158Q496 205 511 233T551 275T598 289Q633 289 654 271T685 223T695 162Q695 104 672 67T596 29Z" />
<glyph unicode="&amp;" glyph-name="ampersand" horiz-adv-x="700" d="M493 86Q530 49 556 28T609 -3T671 -13Q698 -13 698 -5Q698 1 686 9T658 23Q628 34 595 61T526 126Q545 152 564 188T601 261T628 324T639 360Q639 373 629 381T609 394T597 399Q585 399 583
386T578 361Q567 315 544 263T487 165Q433 221 380 280T287 389Q325 416 360 448T417 516T440 591Q440 651 405 680T307 710Q264 710 228 691T170 637T148 558Q148 524 163 484T213 400Q143 350 99 291T54 153Q54 77 102 31T263 -15Q320 -15 380 7T493 86ZM254
429Q226 464 215 495T203 554Q203 587 218 612T257 651T307 666Q385 666 385 587Q385 564 367 536T320 480T254 429ZM456 125Q408 72 355 52T261 31Q182 31 146 65T109 155Q109 200 128 237T178 306T245 361Q287 311 344 247T456 125Z" />
<glyph unicode="&apos;" glyph-name="quotesingle" horiz-adv-x="350" d="M145 703L151 492Q151 485 158 481T175 477Q184 477 191 481T199 492L205 703Q205 714 196 718T175 723Q164 723 155 719T145 703Z" />
<glyph unicode="(" glyph-name="parenleft" horiz-adv-x="350" d="M299 -157Q306 -157 310 -152T314 -140Q314 -130 306 -122Q272 -89 246 -40T201 65T173 179T163 286Q163 338 172 401T201 529T249 655T317 762Q322 769 322 773Q322 780 317 784T304 789Q295
789 289 783Q246 740 212 682T153 556T115 419T102 286Q102 210 119 143T162 20T217 -74T267 -135T299 -157Z" />
<glyph unicode=")" glyph-name="parenright" horiz-adv-x="350" d="M50 -157Q59 -157 81 -136T132 -75T186 20T230 142T247 286Q247 349 234 418T197 555T138 681T60 783Q54 789 45 789Q38 789 33 785T27 773Q27 769 32 762Q71 716 100 656T148 530T176 401T186
286Q186 236 177 179T149 66T104 -40T43 -122Q35 -130 35 -140Q35 -147 39 -152T50 -157Z" />
<glyph unicode="*" glyph-name="asterisk" horiz-adv-x="500" d="M262 566L274 684Q275 688 275 695Q275 703 271 708T249 714H246Q227 714 221 708T215 695Q215 690 217 684Q220 667 223 645T230 600T234 564Q212 572 180 584T124 606Q120 608 116 609T108 611Q107
611 102 610T91 600T85 572Q85 556 94 554T109 550Q134 549 168 545T224 537Q214 524 199 506T170 471T145 443Q141 439 138 434T135 424Q135 416 148 404T175 392Q184 392 188 399T194 410Q199 425 209 446T230 489T250 525Q258 512 268 491T289 450T306 414Q308
408 313 402T326 395Q339 395 352 407T366 427Q366 433 362 437T355 445Q343 457 328 475T297 511T272 541Q288 545 310 550T356 560T395 568Q403 570 411 573T419 589Q419 599 413 614T394 629Q390 629 386 627T378 623Q363 615 341 604T298 582T262 566Z" />
<glyph unicode="+" glyph-name="plus" horiz-adv-x="600" d="M273 18V17Q273 8 283 3T304 -3Q312 -3 318 1T325 12Q325 35 325 55T324 90V227H454Q466 227 487 227T532 226Q540 226 543 232T547 247Q547 258 542 268T527 278H526Q505 277 486 276T455 275H324V399Q324
417 325 440T327 475V477Q327 485 316 490T294 495Q286 495 280 492T274 480Q275 465 275 444T276 398V275H148Q124 275 103 275T66 277Q51 277 51 256Q51 245 56 235T69 224H71Q83 226 106 226T147 227H276V89Q276 77 276 58T273 18Z" />
<glyph unicode="," glyph-name="comma" horiz-adv-x="350" d="M168 -5Q164 -23 148 -42T113 -74Q105 -79 105 -87Q105 -100 118 -100Q129 -100 147 -90T183 -61T213 -19T225 28Q225 30 225 32T224 37Q221 62 207 79T173 97Q130 97 130 51Q130 35 138 22T154 3Q156
2 160 -1T168 -5Z" />
<glyph unicode="-" glyph-name="hyphen" horiz-adv-x="350" d="M310 277H309Q288 276 272 276T238 275H118Q94 275 74 275T38 277Q23 277 23 256Q23 245 28 235T41 224H43Q55 226 77 226T117 227H237Q257 227 274 226T315 225Q323 225 326 231T329 245Q329 256
324 266T310 277Z" />
<glyph unicode="." glyph-name="period" horiz-adv-x="350" d="M180 -8Q223 -8 223 37Q223 58 206 77T170 97Q127 97 127 51Q127 32 143 12T180 -8Z" />
<glyph unicode="/" glyph-name="slash" horiz-adv-x="350" d="M258 659L44 69Q34 41 16 8Q13 2 13 -5Q13 -19 23 -29T44 -40Q55 -40 59 -28Q65 -8 71 10T85 48L301 641Q308 659 315 675T329 706Q330 707 330 710Q330 721 317 734T293 748Q285 748 282 737Q277
717 270 695T258 659Z" />
<glyph unicode="0" glyph-name="zero" horiz-adv-x="600" d="M194 644Q191 649 186 653T173 657Q162 657 146 631T113 561T86 459T75 337Q75 265 87 201T125 89T195 12T300 -16Q357 -16 399 14T470 96T512 214T526 354Q526 457 503 537T432 664T313 711Q279 711
249 693T194 644ZM297 37Q249 37 218 62T168 129T143 226T135 339Q135 416 152 475T197 575T255 637T309 658Q352 658 382 633T430 565T457 469T466 360Q466 272 448 199T392 81T297 37Z" />
<glyph unicode="1" glyph-name="one" horiz-adv-x="600" d="M286 616V105Q286 95 286 77T285 42T284 17Q284 4 300 -3T331 -11Q347 -11 347 -1Q347 13 347 34T346 76T345 111V600Q345 622 348 640T351 671Q351 685 338 696T314 708Q307 708 299 701T283 685T271
673Q249 656 217 638T150 605Q139 601 139 595Q139 587 153 580T181 573Q186 573 189 574Q212 579 238 591T286 616Z" />
<glyph unicode="2" glyph-name="two" horiz-adv-x="600" d="M98 -2H103Q136 4 163 6T218 8T286 9Q327 9 368 9T440 7Q467 6 490 4T524 1Q538 1 538 16Q538 30 528 45T505 61Q495 61 475 61T440 60Q409 60 371 60T294 61Q275 61 245 61T184 59T134 56Q169 114 227
177T361 303Q435 365 478 424T522 547Q522 620 471 665T330 711Q270 711 227 693T155 650T114 602T100 570Q100 554 112 541T135 528Q144 528 150 535T159 552Q176 596 221 626T328 657Q391 657 425 625T460 547Q460 498 423 448T318 342Q237 275 176 206T85 87Q81
80 75 74T62 57Q59 51 59 43Q59 28 70 13T98 -2Z" />
<glyph unicode="3" glyph-name="three" horiz-adv-x="600" d="M359 390H347Q414 407 458 450T503 558Q503 630 452 670T316 711Q269 711 229 698T160 667T114 630T97 600Q97 599 100 589T110 570T127 561Q135 561 140 567T149 577Q188 620 229 639T318 659Q377
659 411 630T445 551Q445 514 416 482T333 428T211 398Q200 397 200 384Q200 373 209 360T232 346Q236 346 238 347Q240 347 261 351T316 355Q385 355 430 317T476 217Q476 171 454 130T387 63T272 37Q213 37 174 60T101 124Q97 130 90 130Q79 130 70 115T61 84Q61
71 68 64Q109 25 158 5T272 -16Q363 -16 421 16T507 101T535 218Q535 271 511 309T446 369T359 390Z" />
<glyph unicode="4" glyph-name="four" horiz-adv-x="600" d="M441 162L466 163Q495 163 522 162T559 161Q570 161 570 174Q570 188 561 203T538 219Q528 219 507 217T465 213L441 212V418Q441 430 441 448T442 482T443 507Q443 520 428 527T398 535Q381 535 381
525Q381 514 382 492T383 449T384 418V209L121 198Q163 259 209 331T298 472T373 593L409 649Q412 654 412 660Q412 676 397 693T370 710Q364 710 361 703Q354 686 345 666T320 616T275 539T203 422T95 251Q88 241 79 230T60 205Q53 195 53 185Q53 168 67 154T97
140Q101 140 103 141Q114 144 124 145T141 147L384 159V105Q384 98 384 80T383 44T382 17Q382 4 398 -3T428 -11Q445 -11 445 -1Q445 16 444 44T441 103V162Z" />
<glyph unicode="5" glyph-name="five" horiz-adv-x="600" d="M280 38H278Q220 39 177 68T107 137Q103 144 96 144Q86 144 76 128T66 95Q66 82 73 75Q110 36 162 10T278 -17Q369 -17 425 17T508 106T535 224Q535 292 505 339T426 412T322 439H314Q265 439 227 424T156
383L195 625L415 641Q437 643 459 643T494 645Q506 645 506 659Q506 671 497 685T476 700H474Q461 698 442 697T407 694L198 679Q176 691 159 691Q144 691 144 679Q144 670 144 659T142 636L104 393L94 358Q93 354 93 348Q93 331 104 319T127 307Q133 307 137 310Q159
330 182 347T237 376T313 387Q384 386 430 343T476 223Q476 175 455 133T391 64T280 38Z" />
<glyph unicode="6" glyph-name="six" horiz-adv-x="600" d="M147 341Q188 427 236 505T359 669Q363 674 367 679T371 690Q371 703 355 707T328 712Q314 712 306 705T286 679Q226 588 176 506T96 346T65 195Q65 137 94 90T177 14T301 -15Q381 -15 434 18T513 107T539
227Q539 287 509 333T430 405T320 432Q267 432 222 408T147 341ZM301 36Q216 36 170 82T124 197Q124 247 148 289T215 356T317 382Q364 382 401 360T459 301T480 224Q480 172 460 129T400 61T301 36Z" />
<glyph unicode="7" glyph-name="seven" horiz-adv-x="600" d="M157 618L454 643Q414 563 375 478T301 312T241 165T200 58T185 11Q185 -4 200 -6T226 -9Q249 -9 252 5Q259 30 265 52T277 90Q308 174 344 263T420 441T502 608Q507 617 515 630T527 654Q527 655
527 656T528 658Q528 672 513 685T485 700H482Q473 700 463 697T440 693L136 671Q132 671 128 671T119 670Q107 670 99 671T83 672Q78 672 78 666Q78 660 84 648T101 626T128 615Q135 615 142 616T157 618Z" />
<glyph unicode="8" glyph-name="eight" horiz-adv-x="600" d="M341 398L329 403Q350 417 383 441T448 492T503 543T526 582Q526 601 509 601Q498 601 486 589L481 584Q487 593 487 602Q487 608 475 625T438 662T379 696T300 710Q237 710 191 687T119 627T93 545Q93
496 124 462T222 393Q176 363 139 330T81 258T59 173Q59 120 85 78T161 10T279 -15Q356 -15 412 10T500 80T531 186Q531 260 481 310T341 398ZM275 427Q211 456 181 481T151 544Q151 574 169 600T220 643T301 660Q348 660 381 638T436 580Q444 567 456 567Q462
567 465 569Q426 532 379 497T275 427ZM277 368Q342 344 380 319T438 269T464 222T471 182Q471 139 446 107T377 56T279 38Q225 38 190 58T136 110T118 176Q118 229 163 275T277 368Z" />
<glyph unicode="9" glyph-name="nine" horiz-adv-x="600" d="M377 -11H381Q419 -9 420 9Q423 40 431 93T451 212T476 346T502 475T526 581T544 644Q544 645 544 646T545 648Q545 659 530 669T503 681H501Q487 681 486 663T480 623Q473 637 453 657T397 694T313
710Q261 710 216 688T135 627T81 540T61 442Q61 385 83 345T144 284T228 262Q283 262 339 293T429 379Q428 374 423 347T410 279T393 192T376 103T361 29Q360 23 359 17T357 6Q357 -1 361 -6T377 -11ZM471 578L460 530Q442 474 409 426T329 347T227 317Q178 317
148 349T118 445Q118 480 132 517T172 586T236 638T318 658Q354 658 379 645T419 614T441 582Q447 570 456 570Q463 570 471 578Z" />
<glyph unicode=":" glyph-name="colon" horiz-adv-x="350" d="M183 370Q223 370 223 412Q223 432 207 451T173 470Q153 470 143 458T132 426Q132 407 147 389T183 370ZM183 -5Q223 -5 223 37Q223 57 207 76T173 95Q153 95 143 83T132 51Q132 32 147 14T183 -5Z" />
<glyph unicode=";" glyph-name="semicolon" horiz-adv-x="350" d="M183 370Q223 370 223 412Q223 432 207 451T173 470Q153 470 143 458T132 426Q132 407 147 389T183 370ZM169 -2Q165 -21 148 -41T111 -76Q106 -78 106 -86Q106 -90 109 -94T119 -99Q129 -99 146
-88T180 -59T210 -18T223 28Q223 30 223 32T222 37Q219 60 206 77T173 95Q132 95 132 51Q132 36 140 24T156 5Q158 3 163 1T169 -2Z" />
<glyph unicode="&lt;" glyph-name="less" horiz-adv-x="600" d="M154 236Q194 256 243 283T342 339T432 392Q463 410 497 429Q506 434 506 451Q506 465 500 477T485 490Q482 490 477 487Q448 464 409 439T327 388T246 342T180 306T144 287Q131 280 117 276T98
264Q95 258 95 249Q95 236 100 220T115 199Q122 195 130 194T145 188Q165 178 203 158T289 110T386 51T477 -11Q482 -14 485 -14Q493 -14 496 -3T500 22Q500 31 498 39T491 50Q476 58 460 68T429 86Q390 110 342 136T244 189T154 236Z" />
<glyph unicode="=" glyph-name="equal" horiz-adv-x="600" d="M517 372H516Q474 369 445 369H158Q134 369 113 369T76 371Q61 371 61 350Q61 339 66 329T79 318H81Q93 320 116 320T157 321H444Q460 321 481 320T525 319Q533 319 536 325T539 338Q539 349 533 360T517
372ZM517 182H516Q474 179 445 179H158Q134 179 113 179T76 181Q61 181 61 160Q61 149 66 139T79 128H81Q93 130 116 130T157 131H444Q460 131 481 130T525 129Q533 129 536 135T539 148Q539 159 533 170T517 182Z" />
<glyph unicode="&gt;" glyph-name="greater" horiz-adv-x="600" d="M450 241Q410 221 361 194T262 139T172 85Q141 67 107 48Q98 44 98 26Q98 13 104 0T119 -13Q123 -13 127 -10Q156 13 195 38T277 89T358 135T424 171T460 190Q474 197 488 201T506 213Q509 219
509 228Q509 242 504 257T489 278Q482 282 475 283T459 289Q440 299 402 319T315 367T218 426T127 488Q123 491 119 491Q112 491 108 480T104 455Q104 446 106 438T113 427Q128 419 144 409T175 391Q215 368 263 341T360 288T450 241Z" />
<glyph unicode="?" glyph-name="question" horiz-adv-x="600" d="M323 182Q323 185 322 187Q318 204 316 217T313 243Q313 248 313 254T314 266Q318 299 340 324T392 373T451 423T499 486T519 574Q519 639 475 675T354 711Q268 711 204 675T93 556Q90 552 90 547Q90
534 103 524T129 513Q142 513 146 526Q150 541 164 563T203 608T266 646T355 662Q405 662 432 638T460 568Q460 526 442 496T396 442T339 395T289 343T261 275Q259 261 258 248T257 224Q257 204 262 186T300 168Q309 168 316 171T323 182ZM295 -5Q335 -5 335 37Q335
57 319 76T285 95Q265 95 255 83T244 51Q244 32 259 14T295 -5Z" />
<glyph unicode="@" glyph-name="at" horiz-adv-x="784" d="M499 264Q498 256 498 248T497 233Q497 192 514 171T571 150Q617 150 657 185T722 283T747 425Q747 513 706 576T592 675T420 710Q338 710 269 677T147 588T67 459T38 306Q38 206 82 134T206 24T393 -15Q457
-15 511 2T607 45T680 100T726 150T742 182Q742 198 729 198Q721 198 710 186Q676 145 624 111T512 57T393 36Q304 36 237 67T132 159T94 313Q94 380 119 442T188 555T292 634T419 663Q497 663 559 636T658 556T695 422Q695 354 676 304T628 226T573 198Q558 198
552 209T545 257Q545 266 547 293T553 358T566 435T586 509Q586 510 586 511T587 513Q587 522 578 530T558 544T537 550Q526 550 526 542Q526 538 525 526T523 509Q508 534 481 546T423 558Q362 558 312 522T232 427T202 298Q202 229 237 190T332 151Q377 151 421
178T499 264ZM332 205Q299 205 281 228T262 302Q262 358 285 405T345 482T426 511Q458 511 481 489T504 425Q504 394 493 357T459 285T405 228T332 205Z" />
<glyph unicode="A" glyph-name="A" horiz-adv-x="690" d="M184 227L516 240Q533 203 549 167T580 99Q588 81 599 52T617 4Q619 -2 627 -4T645 -7Q660 -7 674 -1T689 15Q689 17 688 19T685 25Q669 48 652 78T627 124Q588 206 546 299T466 483T398 652Q396 660 396
663V670Q396 673 396 676T394 683Q390 693 375 701T346 710Q338 710 331 705Q324 699 321 681T314 652Q297 611 268 548T205 414T135 273H117Q107 273 98 273T80 275H78Q68 275 68 264Q68 251 78 236T99 220H100Q102 220 104 220T110 221Q76 155 57 118T28 63T14
36T5 22Q1 17 1 10Q1 2 10 -2T31 -6Q44 -6 56 -2T71 11Q77 28 89 56T109 100Q123 129 139 161T172 227H184ZM356 620Q369 585 391 532T440 416T495 287Q495 287 474 286T418 284T345 281T273 278T217 275T195 274Q227 340 258 405T315 527T356 620Z" />
<glyph unicode="B" glyph-name="B" horiz-adv-x="650" d="M108 627V36Q108 36 96 35T75 34Q66 34 61 29T55 17Q55 4 73 1Q100 -3 138 -5T198 -8Q240 -8 293 -6T399 8T497 42T569 108T597 215Q597 266 571 306T502 370T409 397Q438 407 468 428T520 481T541 557Q541
600 519 634T448 688T320 709Q281 709 233 705T145 694T84 679Q76 675 76 666Q76 655 86 642T108 627ZM179 403H166V641Q197 649 235 653T308 658Q394 658 438 633T483 551Q483 513 456 484T390 437T314 412Q299 410 275 408T226 404T179 403ZM326 363H346Q376
362 409 354T472 328T520 282T539 212Q539 160 512 127T441 75T347 47T249 36T166 33V356Q199 359 245 361T326 363Z" />
<glyph unicode="C" glyph-name="C" horiz-adv-x="703" d="M671 183Q671 199 659 199Q648 199 638 186Q606 144 563 110T469 56T363 36Q291 36 234 63T144 147T111 295Q111 371 133 437T196 552T289 630T404 658Q455 658 491 646T549 616T580 585Q586 576 594 576Q606
576 617 590T629 617Q629 622 617 637T578 669T510 698T408 711Q333 711 268 679T155 590T80 457T53 293Q53 184 93 116T201 16T357 -16Q421 -16 471 1T559 46T621 101T658 152T671 183Z" />
<glyph unicode="D" glyph-name="D" horiz-adv-x="728" d="M169 -6H183Q229 -5 276 -2T374 10Q428 20 481 45T577 112T645 215T671 357Q671 438 642 503T561 614T444 685T303 710Q269 710 225 706T143 696T84 681Q75 677 75 667Q75 655 85 643T108 628V34Q108 34
95 34T73 32Q64 31 59 26T54 16Q54 4 72 1Q95 -2 119 -4T169 -6ZM166 34V642Q197 650 231 654T298 658Q358 658 414 638T515 578T586 484T612 358Q612 290 590 238T530 150T450 91T365 58Q317 47 266 41T166 34Z" />
<glyph unicode="E" glyph-name="E" horiz-adv-x="638" d="M576 0H577Q587 0 587 14Q587 27 578 43T556 59H555Q540 58 517 57T472 56L166 51V348L386 360Q400 361 416 361T447 361H489Q500 361 500 375Q500 387 491 402T468 418Q459 418 434 415T385 410L166 397V634L441
652Q455 653 471 653T502 653H544Q555 653 555 667Q555 679 546 694T523 710Q514 710 489 707T440 702L168 684Q168 684 159 687T138 694T116 698Q104 698 104 684Q104 680 104 675T106 661Q108 649 108 635T108 604V396Q103 396 99 396T89 398H87Q80 398 80 390Q80
380 88 367T108 347V84Q108 72 105 58T101 37Q101 26 114 9T141 -8Q156 -8 167 -5T195 -1L473 3H489Q515 3 541 2T576 0Z" />
<glyph unicode="F" glyph-name="F" horiz-adv-x="560" d="M447 361H489Q500 361 500 375Q500 387 491 402T468 418Q459 418 434 415T385 410L166 397V634L441 652Q455 653 471 653T502 653H544Q555 653 555 667Q555 679 546 694T523 710Q514 710 489 707T440 702L168
684Q168 684 159 687T138 694T116 698Q104 698 104 684Q104 680 104 675T106 661Q108 649 108 635T108 604V396Q103 396 99 396T89 398H87Q80 398 80 390Q80 380 88 367T108 347V108Q108 96 108 78T107 44T106 19Q106 6 122 -1T152 -9Q169 -9 169 1Q169 13 169
33T167 74T166 107V348L386 360Q400 361 416 361T447 361Z" />
<glyph unicode="G" glyph-name="G" horiz-adv-x="752" d="M620 17V16Q620 8 634 2T661 -5Q669 -5 674 -3T680 7Q680 17 680 35T679 71T678 97V302Q678 313 680 317T683 329Q683 336 675 345T656 362T639 370Q630 370 621 369T604 366L480 359Q467 358 447 358T410
357H396Q385 357 385 345Q385 333 396 317T421 301H424Q440 303 461 305T499 309L618 317Q624 317 624 312Q624 244 601 193T540 107T458 55T371 38Q295 38 238 63T148 145T116 295Q116 369 139 435T202 551T295 630T408 659Q458 659 491 648T545 623T575 598T586
584Q591 575 600 575Q612 575 623 588T635 615Q635 623 631 627Q627 632 614 645T574 674T507 700T408 711Q332 711 268 678T157 586T84 453T58 295Q58 182 99 114T211 16T371 -15Q417 -15 467 2T559 56T625 149Q625 99 624 70T620 17Z" />
<glyph unicode="H" glyph-name="H" horiz-adv-x="700" d="M552 365V107Q552 81 551 56T550 18Q550 5 566 -2T596 -10Q613 -10 613 0Q613 17 612 46T610 106V588Q610 614 611 639T612 677Q612 690 596 697T566 705Q549 705 549 695Q549 678 550 649T552 589V400Q548
409 542 415T528 422H525Q513 420 489 418T442 414L181 399H166V588Q166 614 167 639T168 677Q168 690 152 697T122 705Q105 705 105 695Q105 678 106 649T108 589V399Q98 399 90 399T78 400H77Q67 400 67 386Q67 373 76 357T98 341H99Q101 341 103 341T108 342V106Q108
80 107 55T106 17Q106 4 122 -3T152 -11Q169 -11 169 -1Q169 16 168 45T166 105V349Q170 349 174 349T182 350L443 365Q448 365 454 365T466 366Q490 366 513 365T546 363Q548 363 552 365Z" />
<glyph unicode="I" glyph-name="I" horiz-adv-x="304" d="M120 589V107Q120 81 119 56T118 18Q118 5 134 -2T166 -10Q173 -10 178 -8T183 0Q183 17 182 46T180 106V588Q180 614 181 639T182 677Q182 690 166 697T134 705Q127 705 122 703T117 695Q117 678 118
649T120 589Z" />
<glyph unicode="J" glyph-name="J" horiz-adv-x="492" d="M324 589V180Q324 127 306 97T261 54T205 41Q155 41 119 76T71 162Q70 172 60 172Q48 172 33 157T18 124Q18 112 29 90T64 43T124 2T209 -15Q254 -15 293 1T357 60T382 177V588Q382 614 383 639T384 677Q384
690 368 697T338 705Q321 705 321 695Q321 678 322 649T324 589Z" />
<glyph unicode="K" glyph-name="K" horiz-adv-x="630" d="M108 589V112Q108 83 107 56T106 17Q106 4 122 -3T152 -11Q169 -11 169 -1Q169 16 168 46T166 111V332Q177 340 188 349T211 367Q243 330 282 287T363 199T442 115T507 46Q520 33 528 23T542 5Q552 -8
572 -8Q590 -8 605 0T621 17Q621 22 617 25Q592 46 554 82T473 163T388 253T310 336T253 400Q319 454 379 506T485 599Q510 622 530 638T565 667Q568 670 568 674Q568 684 550 695T518 706Q510 706 507 702Q475 668 429 625T332 537T237 455T166 396V588Q166 614
167 639T168 677Q168 690 152 697T122 705Q105 705 105 695Q105 678 106 649T108 589Z" />
<glyph unicode="L" glyph-name="L" horiz-adv-x="547" d="M516 -3H518Q527 -3 527 10Q527 24 518 40T496 57H495Q482 56 459 56T412 56Q390 56 358 56T290 55T222 53T166 51V588Q166 614 167 639T168 677Q168 690 152 697T122 705Q105 705 105 695Q105 678 106
649T108 589V70Q108 58 105 51T101 37Q101 27 113 10T139 -7H142Q147 -6 157 -5T192 -1T259 2T372 3H413Q441 3 472 1T516 -3Z" />
<glyph unicode="M" glyph-name="M" horiz-adv-x="855" d="M729 628V635Q729 648 731 657T734 677Q734 684 723 691T697 704T672 710Q656 710 650 698T638 672Q603 600 564 515T487 344T416 180Q396 224 372 282T320 407T265 539T214 666Q204 690 199 695T180 701Q163
701 147 693T128 673Q127 671 127 668T127 663Q127 658 127 653T128 639Q128 639 126 612T118 537T107 432T93 312T77 191T60 85T44 9V6Q44 0 52 -3T71 -6Q85 -6 98 -2T112 12Q113 28 114 44T118 83T125 145T137 245T155 395T181 612Q200 561 225 500T276 376T325
259T363 169Q366 163 372 145T384 111Q386 104 393 100T410 96Q424 96 438 104T453 124Q453 130 464 159T494 231T536 325T582 426T625 519T658 590T674 624Q681 564 689 490T707 340T725 198T738 85Q740 63 741 48T743 11Q744 3 753 -1T774 -5Q788 -5 801 0T814
14Q814 15 814 16T813 18Q809 29 805 46T795 99T780 199T759 367T729 628Z" />
<glyph unicode="N" glyph-name="N" horiz-adv-x="738" d="M577 589V77Q520 155 452 255T315 465T184 681Q173 700 168 703T150 706Q136 706 122 702T103 687Q102 685 102 681Q102 674 105 664T108 646V106Q108 80 107 55T106 17Q106 4 122 -3T151 -11Q167 -11
167 -1Q167 16 166 45T164 105V610Q202 545 249 469T347 315T449 162T544 27Q552 17 561 3T585 -11Q602 -11 619 1T637 27Q637 36 635 53T633 79V588Q633 614 634 639T635 677Q635 690 620 697T590 705Q574 705 574 695Q574 678 575 649T577 589Z" />
<glyph unicode="O" glyph-name="O" horiz-adv-x="745" d="M223 644Q219 649 212 652T197 655Q180 655 156 629T109 557T71 455T55 337Q55 235 88 156T190 30T366 -16Q450 -16 512 14T614 96T673 217T693 363Q693 464 659 542T560 666T405 711Q347 711 303 693T223
644ZM358 38Q269 38 215 79T136 190T112 339Q112 420 140 480T212 580T305 641T399 661Q462 661 506 636T579 568T621 474T635 371Q635 307 621 248T574 141T489 66T358 38Z" />
<glyph unicode="P" glyph-name="P" horiz-adv-x="600" d="M108 620V116Q108 87 107 58T106 17Q106 4 122 -3T152 -11Q169 -11 169 -1Q169 16 168 48T166 115V329Q170 324 181 323T208 322Q234 322 264 324T324 330T372 338Q464 357 518 408T573 547Q573 623 512
666T320 709Q268 709 232 705T179 697Q142 690 121 685T79 676Q69 675 69 663Q69 650 80 635T105 620H108ZM166 354V636Q199 645 240 650T318 656Q407 656 460 631T513 541Q513 479 470 441T348 385Q331 381 301 376T238 367T181 361Q171 361 166 354Z" />
<glyph unicode="Q" glyph-name="Q" horiz-adv-x="745" d="M508 13Q545 -20 567 -38T609 -63T660 -70Q694 -70 694 -60Q694 -48 650 -30Q633 -23 614 -9T578 19T555 40Q626 90 659 176T693 363Q693 464 658 542T559 666T405 711Q347 711 303 693T223 644Q219 649
212 652T197 655Q180 655 156 629T109 557T71 455T55 337Q55 235 88 156T190 30T366 -16Q407 -16 442 -8T508 13ZM387 200H383Q371 200 355 191T338 173Q338 171 339 170Q343 163 350 160T373 142Q381 135 407 110T464 55Q416 38 358 38Q269 38 215 79T136 190T112
339Q112 420 140 480T212 580T305 641T399 661Q462 661 506 636T579 568T621 474T635 371Q635 313 623 258T585 156T513 80Q484 109 458 136T423 172Q414 182 409 189T387 200Z" />
<glyph unicode="R" glyph-name="R" horiz-adv-x="635" d="M108 619V116Q108 87 107 58T106 17Q106 4 122 -3T151 -11Q167 -11 167 -1Q167 16 166 48T164 115V341Q169 337 189 327T221 306Q245 283 277 247T346 171T420 93T491 28Q518 6 548 -2T607 -11Q635 -11
635 -2Q635 4 624 11T596 25Q582 30 560 45T519 76Q487 104 451 140T380 214T313 285T257 341Q263 341 269 341T283 342Q303 344 324 345T360 350Q407 359 451 383T523 448T552 541Q552 582 530 620T459 682T329 707Q298 707 273 706T221 701T161 691T77 676Q68
675 68 665Q68 652 80 636T105 619H108ZM200 385H197Q187 385 178 381T164 366V637Q197 648 242 652T327 656Q401 656 448 625T495 537Q495 529 490 511T471 472T427 430T351 397T234 384Q225 384 217 384T200 385Z" />
<glyph unicode="S" glyph-name="S" horiz-adv-x="617" d="M235 375L352 344Q431 323 465 286T499 184Q499 145 473 112T403 58T302 38Q286 38 260 40T204 53T145 85T91 146Q87 153 80 153Q68 153 56 138T44 107Q44 97 49 92Q96 40 157 12T301 -16Q383 -16 440
12T528 87T558 192Q558 272 512 322T369 397L261 425Q197 439 167 461T137 524Q137 557 160 587T224 637T317 657Q351 657 396 642T475 587Q480 583 486 577T499 570Q508 570 513 581T520 603T523 614Q523 632 494 654T418 694T314 711Q246 711 193 685T108 616T77
526Q77 460 120 426T235 375Z" />
<glyph unicode="T" glyph-name="T" horiz-adv-x="577" d="M258 640V107Q258 81 257 56T256 18Q256 5 272 -2T302 -10Q309 -10 314 -8T319 0Q319 17 318 46T316 106V644L443 651Q448 651 454 651T466 652Q490 652 513 651T546 649Q557 649 557 664Q557 678 549
693T528 708H525Q513 706 489 704T442 700L130 682Q123 682 115 682T98 681Q75 681 55 682T27 683Q16 683 16 668Q16 655 25 640T47 624H48Q59 625 82 628T131 633Q131 633 148 634T188 636T232 639T257 640H258Z" />
<glyph unicode="U" glyph-name="U" horiz-adv-x="710" d="M545 595V242Q545 183 521 137T451 64T342 37Q254 37 210 78T166 210V584Q166 610 167 639T168 680Q168 692 153 699T124 706Q105 706 105 695Q105 678 106 648T108 586V198Q108 94 165 39T342 -16Q421
-16 479 14T570 100T603 230V594Q603 620 604 645T605 682Q605 694 590 701T561 708Q542 708 542 697Q542 689 542 670T544 630T545 595Z" />
<glyph unicode="V" glyph-name="V" horiz-adv-x="620" d="M338 7Q343 24 357 63T391 156T436 273T485 397T533 513T575 608T605 666Q608 671 608 675Q608 689 592 699T562 710Q548 710 545 699Q540 680 532 657T517 619Q489 551 454 463T380 276T303 74Q257 217
204 362T101 631Q97 643 92 657T84 684Q82 694 69 698T41 703Q30 703 22 700T13 690Q13 687 14 685Q29 655 52 600T102 473T157 326T212 177T257 47Q268 15 283 0T312 -16Q330 -16 338 7Z" />
<glyph unicode="W" glyph-name="W" horiz-adv-x="880" d="M93 631L79 685Q77 694 65 699T38 704Q28 704 20 701T12 690Q12 687 13 685Q27 653 44 599T79 477T116 341T150 210T176 105T190 46Q198 18 213 2T244 -14Q262 -14 268 7Q275 29 279 46T287 79Q311 161
337 252T389 432T439 595Q462 516 486 423T535 234T581 46Q589 15 605 0T637 -15Q657 -15 663 7Q668 26 672 45T680 80Q723 227 754 328T807 496T844 602T870 669Q871 671 871 675Q871 688 855 698T824 709Q812 709 809 700Q802 672 794 643T778 588Q746 485 706
353T625 72Q608 151 585 247T534 443T481 631Q479 640 477 647T473 667Q472 676 458 682T428 688Q416 688 407 684T398 670Q397 655 394 641T386 610Q354 501 314 361T233 73Q202 218 167 359T93 631Z" />
<glyph unicode="X" glyph-name="X" horiz-adv-x="600" d="M302 319Q306 313 321 290T359 232T411 157T467 76T522 0Q530 -9 544 -9Q560 -9 575 -1T591 18Q591 22 587 26Q568 45 552 62T519 102T477 158T419 240T337 362Q400 452 439 506T501 591T537 635T560 660Q564
664 564 669Q564 680 548 689T517 699Q507 699 502 693Q486 669 461 633T398 543T304 411Q304 412 292 430T260 477T219 539T176 605T140 662T118 698Q114 706 97 706Q82 706 67 700T52 682Q52 676 56 672Q70 657 83 640T117 593T174 510T269 369Q223 303 179 239T96
119Q83 99 61 72T17 21Q13 17 13 11Q13 1 27 -4T58 -10Q80 -10 88 1Q100 21 126 59T184 145T247 239T302 319Z" />
<glyph unicode="Y" glyph-name="Y" horiz-adv-x="600" d="M265 293V108Q265 96 265 78T264 44T263 19Q263 6 279 -1T309 -9Q326 -9 326 1Q326 13 326 33T324 74T323 107V293Q350 341 384 397T453 507T519 607T573 679Q575 683 575 684Q575 692 561 700T532 708Q516
708 510 698Q502 683 492 667T469 630Q423 557 381 489T294 347Q255 418 209 492T120 632Q111 646 103 663T86 694Q82 700 64 700Q50 700 36 696T22 681Q22 675 27 670Q34 662 53 634T99 565T156 477T214 382T265 293Z" />
<glyph unicode="Z" glyph-name="Z" horiz-adv-x="600" d="M560 1H562Q571 1 571 14Q571 27 562 43T540 60H539Q524 59 502 59T456 59Q422 60 375 60T286 60Q240 60 193 59T110 54Q149 116 197 187T300 332T409 477T515 611Q523 621 529 629T548 641Q556 644 556
655Q556 669 545 686T520 703Q507 703 485 700T440 695L198 679Q186 678 174 678T151 677Q134 677 119 678T93 681H91Q83 681 83 671Q83 658 95 639T123 620H124Q134 621 154 623T199 627L472 645Q399 551 332 464T199 285T64 87Q60 81 50 70T37 50Q35 44 35 40Q35
24 46 10T69 -5Q78 -5 86 -2T103 2Q150 5 194 6T292 7H457Q487 6 518 4T560 1Z" />
<glyph unicode="[" glyph-name="bracketleft" horiz-adv-x="350" d="M229 -145H313Q326 -145 326 -131Q326 -121 318 -110T298 -99Q278 -99 261 -100T217 -102V718H315Q328 718 328 732Q328 743 321 753T302 764H300Q294 764 277 764T240 763T202 762Q177 762
169 756T161 736Q161 726 163 712T166 678V-51Q166 -63 165 -85T163 -114Q163 -124 173 -136T195 -149Q197 -149 198 -149T200 -148Q208 -146 215 -146T229 -145Z" />
<glyph unicode="\" glyph-name="backslash" horiz-adv-x="350" d="M41 641L257 48Q264 29 270 11T283 -28Q286 -37 293 -39Q295 -40 298 -40Q309 -40 319 -30T329 -5Q329 2 326 8Q308 41 298 69L84 659Q79 673 72 695T60 737Q57 748 49 748Q39 748 26 735T12 710Q12
707 13 706Q20 691 27 675T41 641Z" />
<glyph unicode="]" glyph-name="bracketright" horiz-adv-x="350" d="M133 718V-102H35Q22 -102 22 -116Q22 -126 29 -137T48 -148H50Q57 -147 73 -147T110 -147T148 -146Q173 -146 181 -140T189 -120Q189 -110 187 -96T184 -62V667Q184 679 185 701T187 730Q187
741 177 753T155 765Q154 765 153 765T150 764Q142 762 136 762T121 761H37Q24 761 24 747Q24 737 32 726T52 715Q72 715 90 716T133 718Z" />
<glyph unicode="^" glyph-name="asciicircum" horiz-adv-x="600" d="M303 641L446 347Q452 335 457 318T467 287Q469 281 477 278T496 275Q508 275 518 278T528 289Q528 292 527 294Q518 311 510 328T495 358L337 685Q332 695 327 705T306 715Q303 715 300 715T292
713Q271 707 270 696T262 672L112 361Q108 351 99 335T80 301Q78 297 78 296Q78 287 92 280T119 273Q132 273 135 281Q140 297 147 316T160 347L303 641Z" />
<glyph unicode="_" glyph-name="underscore" horiz-adv-x="500" d="M0 -160H500Q508 -160 511 -152T515 -135Q515 -125 512 -117T500 -109H0Q-7 -109 -11 -117T-15 -135Q-15 -144 -11 -152T0 -160Z" />
<glyph unicode="`" glyph-name="grave" horiz-adv-x="350" d="M100 686L220 578Q227 571 236 571Q247 571 254 580T262 600Q262 609 255 616L152 722Q142 732 128 732Q115 732 104 723T92 702Q92 694 100 686Z" />
<glyph unicode="a" glyph-name="a" horiz-adv-x="575" d="M487 457V459Q487 470 472 477T442 484Q425 484 425 475Q425 468 425 451T423 410Q407 448 374 466T303 484Q259 484 216 460T137 393T80 294T58 175Q58 81 101 33T217 -16Q274 -16 329 18T421 126Q422
109 427 86T439 41T456 4T476 -11Q490 -11 500 2T511 27Q511 30 509 34Q492 61 485 93T476 152T474 193Q474 211 475 246T477 321T481 398T487 457ZM423 386Q422 361 422 334T421 291Q418 214 388 156T313 66T217 34Q173 34 144 68T115 180Q115 234 131 280T176
362T237 416T304 436Q327 436 352 423T396 380Q399 376 405 376Q410 376 415 379T423 386Z" />
<glyph unicode="b" glyph-name="b" horiz-adv-x="573" d="M94 593V106Q94 80 93 54T92 15Q92 -3 105 -3Q116 -3 128 7T142 26Q145 47 145 61Q162 25 197 5T272 -15Q339 -15 394 23T482 127T515 278Q515 379 468 431T346 484Q291 484 239 456T148 356V592Q148 618
149 643T150 681Q150 693 135 700T106 708Q91 708 91 699Q91 682 92 653T94 593ZM154 253Q165 307 194 347T263 411T346 434Q393 434 426 395T459 276Q459 198 430 144T359 61T275 33Q249 33 224 46T178 87Q168 103 156 103Q149 103 146 98Q146 119 146 148T148
207T154 253Z" />
<glyph unicode="c" glyph-name="c" horiz-adv-x="530" d="M483 142Q483 152 475 152Q467 152 454 139Q431 115 402 91T335 51T250 34Q218 34 187 51T135 105T114 199Q114 246 131 288T178 363T243 415T315 434Q350 434 373 417T413 367Q416 362 422 362Q433 362
444 374T456 400Q456 403 449 416T426 444T383 472T313 484Q267 484 222 462T139 399T80 307T58 194Q58 126 84 79T154 8T250 -16Q309 -16 352 5T425 55T468 109T483 142Z" />
<glyph unicode="d" glyph-name="d" horiz-adv-x="575" d="M430 132V128Q430 95 438 64T459 11T482 -10Q495 -10 506 4T517 30Q517 36 515 38Q499 58 490 99T481 185V592Q481 618 482 643T483 681Q483 693 468 700T440 708Q425 708 425 699Q425 682 426 653T427
593V418Q408 453 376 468T305 484Q257 484 213 460T133 394T78 299T58 186Q58 89 103 37T220 -16Q279 -16 332 19T430 132ZM427 384V276Q427 228 408 185T358 107T291 54T220 34Q177 34 146 72T114 189Q114 233 128 276T169 356T230 414T306 436Q333 436 358 424T403
381Q406 376 412 376Q422 376 427 384Z" />
<glyph unicode="e" glyph-name="e" horiz-adv-x="543" d="M118 201H130Q213 201 278 210T388 233Q428 246 448 259T476 292T483 340Q483 376 468 409T416 463T319 484Q270 484 228 462T153 404T99 329T71 253Q71 253 67 253T60 252Q43 252 43 240Q43 224 64 210V195Q64
130 88 83T152 10T244 -16Q305 -16 350 2T425 46T470 95T485 127Q485 137 477 137Q468 137 456 124Q416 81 363 58T244 34Q193 34 156 75T118 198V201ZM146 250H125Q130 277 147 309T189 370T248 417T318 436Q371 436 400 411T429 341Q429 323 425 312T408 293T363
276Q329 266 276 258T146 250Z" />
<glyph unicode="f" glyph-name="f" horiz-adv-x="370" d="M134 432V116Q134 90 133 60T132 17Q132 5 147 -2T176 -10Q191 -10 191 -1Q191 16 190 45T188 105V433L227 435Q240 436 260 436T298 436T323 436Q333 436 333 448Q333 459 324 471T303 484H302Q295 484
279 483T246 480T216 478L188 477V590Q188 622 206 638T244 654Q261 654 281 647T313 617Q319 606 327 606Q338 606 346 620T354 647Q354 656 349 661Q327 687 299 696T245 706Q202 706 168 676T134 589V475L103 474H29Q19 474 19 464Q19 454 28 441T50 427Q50
427 71 428T114 431L134 432Z" />
<glyph unicode="g" glyph-name="g" horiz-adv-x="580" d="M432 134V51Q432 -7 406 -45T337 -103T242 -122Q190 -122 160 -105T110 -45Q106 -35 97 -35Q86 -35 74 -48T62 -74Q62 -75 70 -90T97 -125T152 -158T242 -173Q308 -173 363 -148T452 -72T486 50V358Q486
384 487 411T490 457V458Q490 469 475 476T447 484Q431 484 431 475Q431 464 431 447T432 407Q413 448 377 466T297 484Q249 484 206 461T129 398T77 311T58 211Q58 112 104 61T229 9Q283 9 337 36T432 134ZM432 390V340Q432 302 432 270T427 224Q415 171 382 134T307
78T229 59Q177 59 146 95T114 212Q114 251 128 290T168 363T227 415T298 435Q326 435 353 422T402 380Q406 375 411 375Q417 375 423 380T432 390Z" />
<glyph unicode="h" glyph-name="h" horiz-adv-x="588" d="M438 17V16Q438 5 453 -2T481 -10Q497 -10 497 -1Q497 11 497 34T495 78T494 105V297Q494 327 489 359T469 420T425 465T348 483Q311 483 273 469T201 427T148 358V580Q148 592 148 612T149 652T150 679Q150
691 135 698T106 706Q91 706 91 697Q91 686 91 664T93 621T94 590V115Q94 108 94 88T93 46T92 17Q92 5 107 -2T136 -10Q151 -10 151 -1Q150 19 149 42T148 89V105Q149 129 149 161T153 228T164 287Q179 338 209 369T276 416T348 431Q387 431 406 413T433 364T440
293V115Q440 104 440 84T439 44T438 17Z" />
<glyph unicode="i" glyph-name="i" horiz-adv-x="263" d="M136 602Q173 602 173 641Q173 661 158 678T126 696Q107 696 98 685T88 655Q88 637 102 620T136 602ZM104 368V105Q104 98 104 80T103 44T102 17Q102 6 118 -1T147 -9Q162 -9 162 -1Q162 11 162 34T160
78T159 105V368Q159 380 159 398T160 432T161 457Q161 468 146 475T116 483Q101 483 101 475Q101 464 101 442T103 399T104 368Z" />
<glyph unicode="j" glyph-name="j" horiz-adv-x="301" d="M183 602Q220 602 220 641Q220 661 205 678T173 696Q154 696 145 685T135 655Q135 637 149 620T183 602ZM151 364V-31Q151 -46 147 -64T133 -95T104 -108Q91 -108 75 -104T43 -82Q36 -73 28 -73Q18 -73
10 -86T2 -112Q2 -125 27 -142T104 -160Q146 -160 167 -139T197 -88T205 -30V364Q205 376 205 395T206 431T207 457Q207 469 192 476T163 484Q148 484 148 475Q148 464 149 441T150 396T151 364Z" />
<glyph unicode="k" glyph-name="k" horiz-adv-x="510" d="M94 590V106Q94 99 94 81T93 45T92 18Q92 6 107 -1T136 -9Q151 -9 151 0Q151 12 151 35T149 79T148 106V241L183 264Q205 243 234 213T295 150T355 87T404 35Q415 24 429 12T456 -10Q459 -13 465 -13Q479
-13 494 -2T510 20Q510 25 504 28Q471 42 446 67Q414 99 374 141T294 224T226 294L380 403Q393 412 412 424T452 451Q457 454 457 458Q457 467 440 475T407 483Q395 483 389 477Q383 471 371 460T345 439L148 301V590Q148 602 148 620T149 654T150 679Q150 691
135 698T106 706Q91 706 91 697Q91 686 91 664T93 621T94 590Z" />
<glyph unicode="l" glyph-name="l" horiz-adv-x="263" d="M104 590V105Q104 98 104 80T103 44T102 17Q102 5 117 -2T146 -10Q162 -10 162 -1Q162 11 162 34T160 78T159 105V590Q159 602 159 620T160 654T161 679Q161 691 146 698T117 706Q101 706 101 697Q101
686 101 664T103 621T104 590Z" />
<glyph unicode="m" glyph-name="m" horiz-adv-x="816" d="M668 293V105Q668 94 668 76T667 42T666 17Q666 5 681 -2T710 -10Q725 -10 725 -1Q725 11 724 34T723 78T722 105V297Q722 344 707 386T661 456T577 484Q533 484 491 459T423 387Q416 425 388 454T301
484Q255 484 212 455T148 376Q148 399 148 420T149 454Q149 466 134 473T105 481Q90 481 90 472Q90 461 90 437T92 389T93 356V105Q93 98 93 80T92 44T91 17Q91 5 106 -2T135 -10Q150 -10 150 -1Q150 16 149 45T147 105Q148 156 149 209T163 304Q179 358 204 386T255
424T301 434Q347 434 363 393T380 293V105Q380 94 380 76T379 42T378 17Q378 5 393 -2T421 -10Q436 -10 436 -1Q436 16 435 46T433 105V268Q433 313 455 350T510 411T574 434Q619 434 643 394T668 293Z" />
<glyph unicode="n" glyph-name="n" horiz-adv-x="588" d="M440 294V105Q440 94 440 76T439 42T438 17Q438 5 453 -2T482 -10Q497 -10 497 -1Q497 11 497 34T495 78T494 105V298Q494 328 489 360T469 421T425 466T348 484Q311 484 273 470T202 428T149 359Q149
373 149 392T150 428T150 454Q150 466 135 473T106 481Q91 481 91 472Q91 461 91 439T93 396T94 365V105Q94 98 94 80T93 44T92 17Q92 5 107 -2T136 -10Q151 -10 151 -1Q151 14 150 38T148 91V105Q149 149 150 198T164 288Q179 339 209 370T276 417T348 432Q386
432 405 414T432 365T440 294Z" />
<glyph unicode="o" glyph-name="o" horiz-adv-x="562" d="M193 442Q188 452 177 452Q167 452 148 431T108 375T73 296T58 207Q58 104 112 44T267 -16Q325 -16 369 6T443 67T488 151T504 245Q504 358 451 421T312 484Q270 484 242 471T193 442ZM267 35Q195 35 154
80T113 208Q113 247 127 287T167 360T228 414T306 434Q375 434 412 382T449 245Q449 187 424 140T358 64T267 35Z" />
<glyph unicode="p" glyph-name="p" horiz-adv-x="572" d="M94 368V-55Q94 -81 93 -106T92 -144Q92 -156 107 -163T136 -171Q151 -171 151 -162Q151 -145 150 -116T148 -56V54Q168 20 206 3T283 -15Q334 -15 376 9T449 74T497 168T514 278Q514 376 470 430T345
484Q306 484 267 469T197 425T149 360Q149 360 149 372T150 401T150 433T151 454Q151 466 136 473T106 481Q91 481 91 472Q92 455 93 427T94 368ZM148 100Q148 151 148 195T152 252Q163 305 192 346T262 410T345 434Q396 434 427 394T458 273Q458 212 435 157T371
68T276 33Q249 33 223 46T177 87Q172 95 166 98T155 102Q152 102 148 100Z" />
<glyph unicode="q" glyph-name="q" horiz-adv-x="576" d="M428 125V-59Q428 -85 427 -110T426 -148Q426 -160 441 -167T470 -175Q485 -175 485 -166Q485 -149 484 -120T482 -60V368Q482 394 483 419T484 457Q484 469 469 476T441 484Q426 484 426 475Q426 465
426 451T427 420Q407 452 375 468T304 484Q254 484 210 460T131 394T78 299T58 186Q58 91 103 38T220 -16Q281 -16 335 18T428 125ZM428 384V274Q428 228 409 185T359 108T292 54T220 34Q177 34 146 72T114 189Q114 234 128 278T169 357T229 414T305 436Q333 436
359 424T405 381Q408 376 414 376Q423 376 428 384Z" />
<glyph unicode="r" glyph-name="r" horiz-adv-x="430" d="M94 367V106Q94 99 94 81T93 45T92 18Q92 6 107 -1T136 -9Q151 -9 151 0Q151 17 150 46T148 106Q148 163 148 201T152 266T162 316Q179 371 220 400T304 429Q320 429 344 420T378 391Q384 381 392 381Q402
381 411 396T420 425Q420 438 403 451T360 474T307 484Q254 484 212 457T149 391Q149 409 149 426T150 456Q150 468 135 475T106 483Q91 483 91 474Q91 463 91 441T93 398T94 367Z" />
<glyph unicode="s" glyph-name="s" horiz-adv-x="510" d="M195 246L295 222Q351 209 373 186T396 126Q396 91 359 63T260 34Q229 34 199 39T143 64T103 121Q100 128 94 128Q84 128 73 115T61 87Q61 81 71 65T104 30T165 -2T260 -16Q319 -16 361 3T427 56T450 128Q450
190 413 222T312 269L216 292Q173 302 156 317T138 354Q138 389 173 413T266 437Q276 437 298 435T345 422T386 386Q390 381 392 378T399 374Q406 374 417 384T428 412Q428 419 425 422Q405 448 364 466T266 484Q217 484 176 468T110 423T85 356Q85 310 112 285T195
246Z" />
<glyph unicode="t" glyph-name="t" horiz-adv-x="360" d="M316 89L311 85Q285 64 259 51T212 38Q190 38 182 52T174 108V434L215 436Q235 437 263 437T301 437Q311 437 311 449Q311 460 302 472T281 485H280Q270 484 246 482T204 479L174 478V528Q174 540 174
558T175 592T176 617Q176 629 161 636T133 644Q118 644 118 635Q118 624 118 602T119 559T120 528V475H31Q21 475 21 465Q21 455 30 442T52 428Q52 428 73 429T116 432H120V110Q120 47 138 16T208 -16Q233 -16 257 -3T300 28T332 63T344 88Q344 97 335 97Q328 97
316 89Z" />
<glyph unicode="u" glyph-name="u" horiz-adv-x="590" d="M498 457V459Q498 470 483 477T454 484Q438 484 438 475Q438 466 438 444T438 395T437 342T435 301Q431 224 402 164T331 69T242 34Q194 34 171 75T148 175V368Q148 380 148 397T149 431T150 456Q150 468
135 475T106 483Q91 483 91 474Q91 463 91 440T93 395T94 368V171Q94 123 107 81T152 11T242 -16Q304 -16 355 22T440 132Q440 118 444 94T454 46T470 6T492 -11Q505 -11 515 3T526 27Q526 30 524 34Q505 64 496 116T486 237Q486 323 490 381T498 457Z" />
<glyph unicode="v" glyph-name="v" horiz-adv-x="490" d="M376 404L237 67L117 404Q112 420 106 437T97 466Q95 474 85 477T64 480Q52 480 42 476T31 464Q31 461 32 459Q41 440 49 424T63 390L191 47Q199 28 202 19T212 2Q218 -4 228 -9T248 -15Q256 -15 262 -11T271
6Q276 21 281 36T293 66L429 387Q434 400 444 419T461 452Q463 456 463 458Q463 469 448 476T419 484Q404 484 401 475Q396 456 390 439T376 404Z" />
<glyph unicode="w" glyph-name="w" horiz-adv-x="730" d="M623 405L508 64L406 402Q400 423 397 445Q396 453 380 460T348 467Q341 467 335 465T328 456Q323 423 315 393L200 64L106 407Q103 418 100 432T95 457Q94 467 82 472T55 477Q44 477 36 474T27 463Q27
461 28 459Q34 444 40 428T50 400L152 47Q158 28 160 19T169 2Q175 -4 186 -10T208 -16Q229 -16 234 6Q239 22 242 35T252 66L362 374L460 47Q464 34 466 22T475 2Q481 -4 493 -10T517 -16Q526 -16 533 -11T544 6Q549 23 553 38T562 66L675 388Q680 401 687 420T702
455Q703 457 703 460Q703 471 689 477T661 484Q645 484 642 474Q638 456 633 438T623 405Z" />
<glyph unicode="x" glyph-name="x" horiz-adv-x="500" d="M251 203L359 59Q368 47 380 30T399 1Q405 -8 423 -8Q437 -8 451 -3T465 11Q465 15 462 18Q448 33 429 54T398 91L282 245L396 397Q407 411 420 426T449 456Q452 459 452 461Q452 469 436 475T405 482Q391
482 388 476Q383 467 375 453T357 427L251 286L148 423Q140 434 131 448T117 472Q114 478 100 478Q86 478 70 472T53 457Q53 455 56 452Q71 437 85 421T109 393L220 245L103 89Q90 73 72 52T39 16Q36 13 36 9Q36 2 50 -4T79 -10Q96 -10 102 -1Q110 11 121 28T142
57L251 203Z" />
<glyph unicode="y" glyph-name="y" horiz-adv-x="500" d="M106 -162H116Q154 -162 179 -142T224 -81L435 362Q444 380 455 400T474 436Q477 442 477 448Q477 463 463 473T436 484Q425 484 422 475Q406 426 385 382L253 107L128 392Q120 411 113 429T98 466Q96
473 85 476T62 480Q50 480 41 477T31 465Q31 463 33 459Q42 443 54 418T74 378L224 43L180 -50Q165 -81 147 -95T113 -109Q100 -109 84 -106T54 -88Q48 -81 41 -81Q30 -81 21 -95T12 -123Q12 -132 17 -135Q40 -154 63 -158T106 -162Z" />
<glyph unicode="z" glyph-name="z" horiz-adv-x="490" d="M420 53H419Q403 52 386 52T357 51Q331 52 291 52T222 52Q208 52 187 51T145 49T112 47Q153 103 203 167T305 292T401 400Q407 407 417 413T428 428Q428 441 415 459T386 479H382Q373 479 363 476T346
473L190 462Q180 461 168 461T144 461Q130 461 116 461T89 463H88Q80 463 80 454Q80 441 92 423T120 405H122Q137 407 154 409T191 412L352 423Q315 383 267 326T168 207T76 88Q69 78 60 70T46 52Q43 43 43 34Q43 18 50 5T67 -8Q78 -8 87 -7T108 -4Q118 -3 138
-2T182 0T222 1H357Q378 0 398 -1T438 -5Q448 -5 448 8Q448 22 440 37T420 53Z" />
<glyph unicode="{" glyph-name="braceleft" horiz-adv-x="350" d="M103 341H92Q78 341 78 326Q78 316 86 305T106 293Q142 291 160 275T186 235T193 189Q193 116 186 72T178 -4Q178 -51 197 -81T243 -127T290 -150T317 -157Q329 -157 329 -147Q329 -138 319 -131Q276
-106 252 -77T228 -4Q228 11 235 62T243 193Q243 234 224 268T166 311Q198 328 214 354T237 411T243 469Q243 494 242 525T239 584T237 627Q237 664 258 695T320 749Q329 755 329 764Q329 777 316 777Q313 777 293 769T248 742T205 696T186 629Q186 612 187 583T190
523T192 472Q192 414 172 378T103 341Z" />
<glyph unicode="|" glyph-name="bar" horiz-adv-x="350" d="M146 -16H203V717H146V-16Z" />
<glyph unicode="}" glyph-name="braceright" horiz-adv-x="350" d="M247 282H258Q272 282 272 297Q272 308 264 318T244 330Q209 332 190 348T164 388T157 434Q157 508 164 552T172 627Q172 674 153 704T107 750T60 773T33 780Q21 780 21 770Q21 761 31 754Q74
729 98 700T122 627Q122 612 115 561T107 430Q107 390 126 356T184 312Q152 296 136 269T113 212T107 154Q107 129 108 98T111 39T113 -4Q113 -41 92 -72T30 -126Q21 -132 21 -141Q21 -154 34 -154Q37 -154 57 -146T102 -119T145 -73T164 -6Q164 11 163 40T160
101T158 151Q158 210 178 246T247 282Z" />
<glyph unicode="~" glyph-name="asciitilde" horiz-adv-x="600" d="M551 300Q551 316 538 316Q529 316 521 304Q505 276 474 257T411 238Q382 238 357 249T307 276T259 302T207 314Q169 314 141 299T94 262T66 222T56 197Q56 190 60 186T70 181Q80 181 87 193Q100
217 133 238T201 259Q219 259 239 248T284 221T338 195T405 183Q444 183 472 199T517 237T543 277T551 300Z" />
<glyph unicode="&#xa0;" glyph-name="uni00A0" horiz-adv-x="350" />
<glyph unicode="&#xa1;" glyph-name="exclamdown" horiz-adv-x="350" d="M182 409Q221 409 221 451Q221 469 207 487T172 505Q134 505 134 465Q134 446 149 428T182 409ZM207 -193V-191Q206 -185 204 -159T202 -112L200 275Q200 285 200 296T202 314V315Q202 324
190 330T166 336Q154 336 154 329V279L146 -107Q145 -125 144 -143T140 -178V-180Q140 -191 156 -200T187 -209Q195 -209 201 -205T207 -193Z" />
<glyph unicode="&#xa2;" glyph-name="cent" horiz-adv-x="556" d="M250 40L396 426Q401 425 419 414T456 370Q459 364 466 364Q477 364 489 377T501 404Q501 418 477 440T415 475Q420 489 425 502T436 526Q437 528 437 530T438 534Q438 548 425 561T400 574Q394
574 391 567Q379 524 366 486Q358 487 350 487T334 488Q288 488 240 466T150 403T84 310T58 197Q58 124 94 75T183 3Q179 -7 175 -17T166 -38Q164 -44 164 -46Q164 -59 177 -70T201 -82Q208 -82 211 -75Q216 -60 221 -44T232 -11Q252 -14 271 -14Q340 -14 385 3T456
43T493 86T504 110Q504 121 494 121Q485 121 471 108Q433 71 386 55T271 38Q266 38 261 38T250 40ZM347 436L204 54Q169 71 143 108T116 202Q116 249 136 291T190 366T262 417T336 436H347Z" />
<glyph unicode="&#xa3;" glyph-name="sterling" horiz-adv-x="713" d="M442 325H472Q492 325 512 325T545 324Q556 324 556 336Q556 348 547 362T525 377H524Q513 376 489 375T441 372L236 366Q234 394 232 422T230 476Q230 518 245 561T290 632T369 661Q431 661
474 645T552 596Q559 591 565 591Q577 591 589 602T602 626Q602 631 587 645T542 674T469 701T370 712Q313 712 269 683T200 601T174 478Q174 451 176 422T181 364H144Q121 364 97 364T63 365Q53 365 53 352Q53 340 61 326T82 312H84Q98 314 121 315T167 317L186
318Q188 300 189 286T191 260Q191 214 184 168T157 83Q147 64 129 52T78 40H69Q59 40 53 32T44 13T41 -3Q41 -11 48 -13T70 -15Q94 -15 117 -7T166 9T223 17Q282 17 337 9T443 -7T537 -15Q572 -15 602 -2T652 28T671 55Q671 66 657 66Q648 66 636 60Q614 48 583
42T534 35Q510 35 468 40T378 51T287 62T217 67H204Q226 107 235 162T244 267Q244 289 241 319L442 325Z" />
<glyph unicode="&#xa4;" glyph-name="currency" horiz-adv-x="530" d="M378 194Q398 176 412 161T437 131Q440 127 447 127Q459 127 473 138T488 161Q488 166 484 170Q448 199 415 232Q429 253 437 278T446 331Q446 357 439 381T417 427Q447 456 479 482Q483 486
483 491Q483 502 469 513T442 525Q435 525 432 521Q422 508 410 495T381 465Q336 504 273 504Q241 504 212 493T160 462Q142 479 129 493T105 521Q102 525 95 525Q83 525 69 514T54 491Q54 486 58 482Q77 466 93 452T126 421Q100 381 100 331Q100 279 128 237Q109
218 91 203T53 170Q49 166 49 161Q49 150 63 139T90 127Q97 127 100 131Q122 160 163 198Q186 179 214 169T273 158Q333 158 378 194ZM397 331Q397 297 381 269T336 224T273 207Q239 207 211 223T166 268T149 331Q149 366 165 394T210 438T273 455Q308 455 336
439T380 394T397 331Z" />
<glyph unicode="&#xa5;" glyph-name="yen" horiz-adv-x="600" d="M403 185L505 188Q516 188 516 200Q516 211 507 224T485 237Q474 237 447 234T402 230L322 227V321L403 325L505 328Q516 328 516 340Q516 351 507 364T485 377Q474 377 447 374T402 370L341 368Q391
447 423 498T476 581T514 636T549 679Q551 681 551 684Q551 692 536 700T506 708Q490 708 484 698Q475 683 467 667T445 630Q416 583 392 545T344 470T294 387Q268 431 246 467T200 540T147 623Q134 643 126 659T108 691Q102 701 86 701Q71 701 56 693T41 677Q41
674 43 672Q55 658 64 647T86 618T117 571T168 491T249 364L204 362Q191 361 177 361T149 361Q133 361 118 361T90 363H88Q79 363 79 352Q79 341 89 326T112 310H113Q133 312 157 313T205 316L265 319V224L204 222Q191 221 177 221T149 221Q133 221 118 221T90
223H88Q79 223 79 212Q79 201 89 186T112 170H113L205 176L265 179V147Q265 138 265 120T264 80T264 42T263 19Q263 6 279 -1T309 -9Q326 -9 326 1Q326 10 326 29T324 72T323 116T322 146V181L403 185Z" />
<glyph unicode="&#xa6;" glyph-name="brokenbar" horiz-adv-x="350" d="M146 434H203V717H146V434ZM146 -16H203V267H146V-16Z" />
<glyph unicode="&#xa7;" glyph-name="section" horiz-adv-x="675" d="M246 254L352 232Q434 215 477 185T520 101Q520 66 496 38T427 -7T326 -24Q304 -24 265 -19T183 9T104 78Q100 84 92 84Q80 84 69 70T57 42Q57 32 64 25Q116 -26 178 -51T325 -77Q403 -77 460
-54T549 9T581 102Q581 177 517 226Q556 249 578 286T601 365Q601 438 549 483T397 547L292 568Q238 579 209 592T169 622T157 663Q157 686 177 708T235 745T327 760Q398 760 444 741T519 689Q525 683 531 683Q542 683 550 696T558 723Q558 738 549 745Q511 775
455 793T328 812Q258 812 206 791T125 735T96 661Q96 620 118 588T197 536Q139 517 108 480T76 399Q76 347 113 311T246 254ZM377 283L272 304Q218 315 189 329T148 360T137 401Q137 427 156 450T218 489T327 504H331L372 496Q456 479 498 450T540 364Q540 331
519 303T458 259Q422 274 377 283Z" />
<glyph unicode="&#xa8;" glyph-name="dieresis" horiz-adv-x="500" d="M343 598Q360 598 370 609T381 638Q381 658 366 675T333 693Q314 693 304 682T294 652Q294 634 309 616T343 598ZM170 598Q187 598 197 609T208 638Q208 658 193 675T160 693Q141 693 131
682T121 652Q121 634 136 616T170 598Z" />
<glyph unicode="&#xa9;" glyph-name="copyright" horiz-adv-x="780" d="M731 336Q731 406 705 467T631 575T523 648T391 675Q321 675 260 649T152 576T79 468T52 336Q52 266 78 205T151 97T259 24T391 -3Q461 -3 522 23T631 96T704 204T731 336ZM686 336Q686 275
663 222T600 129T506 65T392 42Q331 42 278 65T185 128T121 222T98 336Q98 397 121 450T184 543T278 607T392 630Q453 630 506 607T599 544T663 450T686 336ZM549 213Q556 223 556 232Q556 242 548 242Q540 242 528 230Q494 198 461 184T369 169Q341 169 314 184T269
231T251 311Q251 366 277 412T344 485T427 513Q453 513 469 503T496 479T512 455Q515 450 521 450Q530 450 540 461T551 484Q551 487 545 499T524 525T486 549T425 559Q384 559 344 540T271 486T219 405T199 306Q199 249 222 208T284 145T369 123Q434 123 475 143T549
213Z" />
<glyph unicode="&#xaa;" glyph-name="ordfeminine" horiz-adv-x="320" d="M275 718V719Q275 728 264 733T240 738Q224 738 224 730V722Q217 732 203 737T173 743Q142 743 111 721T60 662T40 579Q40 527 65 500T130 473Q156 473 184 489T228 536Q233 500 240 488T257
475Q268 475 276 487T285 508Q285 512 284 514Q274 531 271 551T268 594Q268 599 269 624T275 718ZM224 675Q223 667 223 651T222 630Q218 576 192 547T130 518Q111 518 100 532T88 581Q88 614 101 641T133 683T173 699Q183 699 193 695T210 680Q214 674 221 674Q222
674 222 674T224 675Z" />
<glyph unicode="&#xab;" glyph-name="guillemotleft" horiz-adv-x="530" d="M491 43L444 89Q420 114 391 142T333 197T285 242Q328 279 369 318T443 388T490 434Q496 440 496 451Q496 464 488 476T472 489Q467 489 464 485Q442 458 394 408T266 289L236 265Q232
262 232 251Q232 241 236 229T246 211Q268 195 304 162T384 83T466 -11Q469 -15 473 -15Q482 -15 489 -1T497 26Q497 37 491 43ZM286 43L239 89Q215 114 186 142T128 197T80 242Q123 279 164 318T238 388T285 434Q291 440 291 451Q291 464 283 476T267 489Q262
489 259 485Q237 458 189 408T61 289L31 265Q27 262 27 251Q27 241 31 229T41 211Q63 195 99 162T179 83T261 -11Q264 -15 268 -15Q277 -15 284 -1T292 26Q292 37 286 43Z" />
<glyph unicode="&#xac;" glyph-name="logicalnot" horiz-adv-x="590" d="M450 315V121Q450 113 458 109T476 104Q486 104 494 108T502 121V322Q502 343 490 355T457 367H70Q62 367 58 359T53 341Q53 331 57 323T70 315H450Z" />
<glyph unicode="&#xad;" glyph-name="uni00AD" horiz-adv-x="500" d="M432 277H431Q412 276 395 276T360 275H140Q116 275 96 275T60 277Q45 277 45 256Q45 245 50 235T63 224H65Q77 226 99 226T139 227H359Q379 227 396 226T437 225Q445 225 448 231T451 245Q451
256 446 266T432 277Z" />
<glyph unicode="&#xae;" glyph-name="registered" horiz-adv-x="780" d="M731 336Q731 406 705 467T631 575T523 648T391 675Q321 675 260 649T152 576T79 468T52 336Q52 266 78 205T151 97T259 24T391 -3Q461 -3 522 23T631 96T704 204T731 336ZM686 336Q686
275 663 222T600 129T506 65T392 42Q331 42 278 65T185 128T121 222T98 336Q98 397 121 450T184 543T278 607T392 630Q453 630 506 607T599 544T663 450T686 336ZM266 497V203Q266 186 266 169T265 144Q265 134 276 129T299 124Q306 124 311 126T316 133Q316 144
316 163T315 203V325Q321 323 327 319T337 312Q357 294 382 263T437 199T493 144Q518 124 546 122Q551 122 554 122T561 121Q591 121 591 132Q591 137 583 143T563 153Q555 156 542 165T517 184Q479 216 444 259T381 332Q441 336 475 353T524 391T542 432T546 458Q546
484 532 508T488 549T405 565Q375 565 352 563T315 557Q297 553 282 551T253 546Q245 545 245 534Q245 524 251 513T266 497ZM330 372H327Q320 372 315 367V509Q333 515 357 517T404 520Q445 520 471 504T497 456Q497 439 484 419T439 385T356 371Q349 371 343
371T330 372Z" />
<glyph unicode="&#xaf;" glyph-name="overscore" horiz-adv-x="500" d="M136 623H364Q374 623 378 631T383 648Q383 658 379 665T365 673H137Q127 673 123 666T118 649Q118 639 122 631T136 623Z" />
<glyph unicode="&#xb0;" glyph-name="degree" horiz-adv-x="320" d="M286 609Q286 644 269 672T224 718T160 735Q124 735 96 718T51 672T34 609Q34 573 51 545T97 500T160 483Q196 483 224 500T269 546T286 609ZM242 610Q241 573 217 550T160 527Q125 527 102
551T78 610Q78 645 103 668T160 691Q195 691 218 667T242 610Z" />
<glyph unicode="&#xb1;" glyph-name="plusminus" horiz-adv-x="600" d="M534 343H533Q491 340 462 340H322V403Q322 421 323 444T325 479V481Q325 489 314 494T292 499Q284 499 278 496T272 484Q273 469 273 448T274 402V340H139Q115 340 94 340T57 342Q42 342
42 321Q42 310 47 300T60 289H62Q74 291 97 291T138 292H274V203Q274 191 274 172T271 132V131Q271 122 281 117T302 111Q310 111 316 115T323 126Q323 149 323 169T322 204V292H461Q477 292 498 291T542 290Q550 290 553 296T556 309Q556 320 550 331T534 343ZM534
69H533Q491 66 462 66H139Q115 66 94 66T57 68Q42 68 42 47Q42 36 47 26T60 15H62Q74 17 97 17T138 18H461Q477 18 498 17T542 16Q550 16 553 22T556 35Q556 46 550 57T534 69Z" />
<glyph unicode="&#xb2;" glyph-name="uni00B2" horiz-adv-x="380" d="M86 329H90Q105 332 115 333T141 335T183 335Q204 335 225 334T262 333Q276 333 288 333T305 332Q319 332 319 348Q319 359 313 370T295 381Q290 381 280 380T262 379Q250 379 229 379T187
380Q176 380 157 380T121 379Q139 404 165 431T222 483Q261 514 288 545T316 613Q316 656 289 682T208 708Q167 708 139 691T96 654T82 626Q82 620 90 607T108 594Q116 594 121 600T129 614Q141 637 157 649T205 662Q267 662 267 613Q267 590 246 568T193 519Q155
488 122 452T73 389Q71 385 68 383T61 374Q58 370 58 363Q58 352 66 341T86 329Z" />
<glyph unicode="&#xb3;" glyph-name="uni00B3" horiz-adv-x="380" d="M242 538Q270 548 287 570T304 621Q304 662 276 685T197 708Q163 708 133 694T83 660Q76 655 76 646Q76 637 84 625T99 613Q108 613 117 625Q134 646 153 655T198 664Q226 664 242 654T258
619Q258 598 243 584T205 562T164 549T138 544Q128 543 128 532Q128 522 135 512T152 501Q153 501 153 501T155 502Q168 506 180 507T200 509Q232 509 251 493T270 447Q270 413 247 392T178 370Q125 370 90 408Q85 413 79 413Q70 413 63 403T55 382Q55 370 74 357T121
334T178 324Q252 324 284 361T317 451Q317 485 295 509T242 538Z" />
<glyph unicode="&#xb4;" glyph-name="acute" horiz-adv-x="500" d="M351 659Q359 662 359 670Q359 682 342 696T312 710Q309 710 305 708Q267 683 228 654T162 601Q156 595 156 589Q156 574 171 574Q175 574 181 577Q215 597 257 617T351 659Z" />
<glyph unicode="&#xb5;" glyph-name="uni00B5" horiz-adv-x="590" d="M94 368V-63Q94 -70 94 -88T93 -124T92 -151Q92 -163 107 -170T135 -178Q150 -178 150 -169Q150 -157 150 -134T148 -90T147 -63V39Q158 17 187 1T248 -16Q312 -16 359 23T440 134Q440 121
443 97T454 48T470 6T492 -11Q505 -11 515 3T526 27Q526 30 524 34Q505 64 496 116T486 237Q486 323 490 381T498 457V459Q498 470 483 477T454 484Q438 484 438 475Q438 466 438 444T438 395T437 342T435 301Q431 224 404 164T335 69T248 34Q216 34 194 54T160
107T148 175V368Q148 380 148 397T149 431T150 456Q150 468 135 475T106 483Q91 483 91 474Q91 463 91 440T93 395T94 368Z" />
<glyph unicode="&#xb6;" glyph-name="paragraph" horiz-adv-x="638" d="M479 -105V-106Q479 -115 489 -120T512 -126Q521 -126 527 -122T534 -111Q533 -87 533 -60T533 -18V726Q533 744 521 758T487 772H483L273 762Q216 760 168 732T90 657T61 546Q61 492 85
456T148 403T229 385Q240 385 251 386T274 390V-30Q274 -42 274 -68T271 -116V-117Q271 -126 281 -131T304 -137Q313 -137 319 -133T326 -122Q325 -99 325 -71T325 -29V717L482 724V-19Q482 -31 482 -57T479 -105Z" />
<glyph unicode="&#xb7;" glyph-name="middot" horiz-adv-x="350" d="M185 287Q215 287 232 305T249 354Q249 376 237 397T207 432T169 447Q136 447 120 428T103 376Q103 356 114 336T144 301T185 287Z" />
<glyph unicode="&#xb8;" glyph-name="cedilla" horiz-adv-x="500" d="M251 -29L268 17L212 21Q212 21 207 4T193 -36Q191 -42 191 -45Q191 -56 199 -64T220 -72Q222 -72 223 -72T226 -71Q236 -69 245 -68T261 -67Q307 -67 307 -98Q307 -130 254 -130Q229 -130
214 -125T177 -104Q175 -102 172 -102Q165 -102 161 -112T156 -134Q156 -150 166 -156Q210 -178 254 -178Q304 -178 331 -157T358 -97Q358 -62 334 -45T274 -27Q268 -27 263 -27T251 -29Z" />
<glyph unicode="&#xb9;" glyph-name="uni00B9" horiz-adv-x="380" d="M231 337V339Q230 361 230 387T229 429V622Q229 639 231 654T233 679Q233 690 221 699T201 708Q193 708 183 695T168 678Q152 665 134 652T95 630Q87 627 87 622Q87 616 97 610T117 604Q122
604 124 605Q138 609 151 615T180 632V424Q180 411 180 389T179 354V353Q179 341 191 333T215 325Q221 325 226 328T231 337Z" />
<glyph unicode="&#xba;" glyph-name="ordmasculine" horiz-adv-x="320" d="M119 725Q113 729 109 729Q99 729 83 708T53 657T40 596Q40 540 70 507T154 473Q196 473 224 494T268 547T283 615Q283 677 253 710T177 743Q158 743 144 738T119 725ZM154 518Q123 518
105 539T87 595Q87 620 98 643T129 683T174 699Q204 699 220 676T236 615Q236 576 212 547T154 518Z" />
<glyph unicode="&#xbb;" glyph-name="guillemotright" horiz-adv-x="530" d="M290 83L243 37Q237 31 237 20Q237 7 244 -7T261 -21Q265 -21 268 -17Q294 15 331 56T409 136T488 205Q494 210 498 222T502 245Q502 256 498 259L468 283Q388 352 340 402T270 479Q267
483 262 483Q254 483 246 471T238 445Q238 434 244 428Q258 414 290 383T365 312T449 236Q429 218 401 192T344 137T290 83ZM85 83L38 37Q32 31 32 20Q32 7 39 -7T56 -21Q60 -21 63 -17Q89 15 126 56T203 136T283 205Q289 210 293 222T297 245Q297 256 293 259L263
283Q183 352 135 402T65 479Q62 483 57 483Q49 483 41 471T33 445Q33 434 39 428Q53 414 85 383T160 312T244 236Q224 218 196 192T139 137T85 83Z" />
<glyph unicode="&#xbc;" glyph-name="onequarter" horiz-adv-x="730" d="M477 641L138 73Q131 61 121 47T102 21Q98 17 98 9Q98 -4 109 -17T131 -30Q138 -30 141 -23Q149 -7 157 10T174 42L517 612Q525 624 536 642T560 678Q562 682 562 684Q562 695 550 710T527
726Q519 726 515 716Q507 697 496 676T477 641ZM201 336V338Q200 360 200 386T199 428V621Q199 638 201 653T203 678Q203 689 191 698T171 707Q163 707 153 694T138 677Q122 664 104 651T65 629Q57 626 57 621Q57 615 67 609T87 603Q92 603 94 604Q108 608 121
614T150 631V423Q150 410 150 388T149 353V352Q149 340 161 332T185 324Q191 324 196 327T201 336ZM608 92H671Q682 92 682 107Q682 118 676 130T660 142Q657 142 646 142T623 140T608 139V232Q608 241 608 256T609 278Q609 286 599 291T577 296Q561 296 561 287Q561
277 562 259T563 232V136L445 133Q474 175 504 223T556 310L578 344Q581 349 581 354Q581 365 571 376T550 387Q542 387 539 380Q530 356 511 322T469 253T429 190T405 154Q401 149 396 144T387 132Q382 124 382 117Q382 103 393 92T415 81H418Q429 84 436 84L563
90V71Q563 68 563 55T563 30T562 13Q562 3 572 -2T593 -8Q610 -8 610 3Q610 11 609 32T608 70V92Z" />
<glyph unicode="&#xbd;" glyph-name="onehalf" horiz-adv-x="730" d="M477 641L138 73Q131 61 121 47T102 21Q98 17 98 9Q98 -4 109 -17T131 -30Q138 -30 141 -23Q149 -7 157 10T174 42L517 612Q525 624 536 642T560 678Q562 682 562 684Q562 695 550 710T527
726Q519 726 515 716Q507 697 496 676T477 641ZM201 336V338Q200 360 200 386T199 428V621Q199 638 201 653T203 678Q203 689 191 698T171 707Q163 707 153 694T138 677Q122 664 104 651T65 629Q57 626 57 621Q57 615 67 609T87 603Q92 603 94 604Q108 608 121
614T150 631V423Q150 410 150 388T149 353V352Q149 340 161 332T185 324Q191 324 196 327T201 336ZM435 -2H439Q454 1 464 2T490 4T532 4Q553 4 574 3T611 2Q625 2 637 2T654 1Q668 1 668 17Q668 28 662 39T644 50Q639 50 629 49T611 48Q599 48 578 48T536 49Q525
49 506 49T470 48Q488 73 514 100T571 152Q610 183 637 214T665 282Q665 325 638 351T557 377Q516 377 488 360T445 323T431 295Q431 289 439 276T457 263Q465 263 470 269T478 283Q490 306 506 318T554 331Q616 331 616 282Q616 259 595 237T542 188Q504 157 471
121T422 58Q420 54 417 52T410 43Q407 39 407 32Q407 21 415 10T435 -2Z" />
<glyph unicode="&#xbe;" glyph-name="threequarters" horiz-adv-x="757" d="M537 641L198 73Q191 61 181 47T162 21Q158 17 158 9Q158 -4 169 -17T191 -30Q198 -30 201 -23Q209 -7 217 10T234 42L577 612Q585 624 596 642T620 678Q622 682 622 684Q622 695 610
710T587 726Q579 726 575 716Q567 697 556 676T537 641ZM232 538Q260 548 277 570T294 621Q294 662 266 685T187 708Q153 708 123 694T73 660Q66 655 66 646Q66 637 74 625T89 613Q98 613 107 625Q124 646 143 655T188 664Q216 664 232 654T248 619Q248 598 233
584T195 562T154 549T128 544Q118 543 118 532Q118 522 125 512T142 501Q143 501 143 501T145 502Q158 506 170 507T190 509Q222 509 241 493T260 447Q260 413 237 392T168 370Q115 370 80 408Q75 413 69 413Q60 413 53 403T45 382Q45 370 64 357T111 334T168 324Q242
324 274 361T307 451Q307 485 285 509T232 538ZM648 92H711Q722 92 722 107Q722 118 716 130T700 142Q697 142 686 142T663 140T648 139V232Q648 241 648 256T649 278Q649 286 639 291T617 296Q601 296 601 287Q601 277 602 259T603 232V136L485 133Q514 175 544
223T596 310L618 344Q621 349 621 354Q621 365 611 376T590 387Q582 387 579 380Q570 356 551 322T509 253T469 190T445 154Q441 149 436 144T427 132Q422 124 422 117Q422 103 433 92T455 81H458Q469 84 476 84L603 90V71Q603 68 603 55T603 30T602 13Q602 3 612
-2T633 -8Q650 -8 650 3Q650 11 649 32T648 70V92Z" />
<glyph unicode="&#xbf;" glyph-name="questiondown" horiz-adv-x="600" d="M321 405Q341 405 351 417T362 449Q362 468 347 486T311 505Q271 505 271 463Q271 443 287 424T321 405ZM513 -56Q516 -51 516 -47Q516 -34 503 -24T477 -13Q464 -13 460 -26Q456 -41
442 -63T403 -108T340 -146T251 -162Q202 -162 174 -138T146 -68Q146 -26 164 4T210 58T267 105T317 157T345 225Q347 239 348 252T349 276Q349 296 344 314T306 332Q297 332 290 329T283 318Q283 315 284 313Q289 297 291 284T293 257Q293 252 293 246T292 234Q288
201 266 176T214 127T155 77T107 14T87 -74Q87 -138 131 -174T252 -211Q338 -211 402 -175T513 -56Z" />
<glyph unicode="&#xc0;" glyph-name="Agrave" horiz-adv-x="690" d="M449 761Q449 767 443 773Q416 797 377 826T300 880Q296 882 293 882Q280 882 263 868T246 842Q246 834 254 831Q305 810 347 790T424 749Q430 746 434 746Q449 746 449 761ZM172 227L516 240Q533
203 549 167T580 99Q588 81 599 52T617 4Q619 -2 627 -4T645 -7Q660 -7 674 -1T689 15Q689 17 688 19T685 25Q669 48 652 78T627 124Q588 206 546 299T466 483T398 652Q396 660 396 663V670Q396 673 396 676T394 683Q390 693 375 701T346 710Q338 710 331 705Q324
699 321 681T314 652Q297 611 268 548T205 414T135 273H117Q107 273 98 273T80 275H78Q68 275 68 264Q68 251 78 236T99 220H100Q102 220 104 220T110 221Q76 155 57 118T28 63T14 36T5 22Q1 17 1 10Q1 2 10 -2T31 -6Q44 -6 56 -2T71 11Q77 28 89 56T109 100Q123
129 139 161T172 227ZM495 287L195 274Q227 340 258 405T315 527T356 620Q369 585 391 532T440 416T495 287Z" />
<glyph unicode="&#xc1;" glyph-name="Aacute" horiz-adv-x="690" d="M448 830Q456 833 456 841Q456 853 439 867T409 881Q406 881 402 879Q364 854 325 825T259 772Q253 766 253 760Q253 745 268 745Q272 745 278 748Q312 768 354 788T448 830ZM172 227L516 240Q533
203 549 167T580 99Q588 81 599 52T617 4Q619 -2 627 -4T645 -7Q660 -7 674 -1T689 15Q689 17 688 19T685 25Q669 48 652 78T627 124Q588 206 546 299T466 483T398 652Q396 660 396 663V670Q396 673 396 676T394 683Q390 693 375 701T346 710Q338 710 331 705Q324
699 321 681T314 652Q297 611 268 548T205 414T135 273H117Q107 273 98 273T80 275H78Q68 275 68 264Q68 251 78 236T99 220H100Q102 220 104 220T110 221Q76 155 57 118T28 63T14 36T5 22Q1 17 1 10Q1 2 10 -2T31 -6Q44 -6 56 -2T71 11Q77 28 89 56T109 100Q123
129 139 161T172 227ZM495 287L195 274Q227 340 258 405T315 527T356 620Q369 585 391 532T440 416T495 287Z" />
<glyph unicode="&#xc2;" glyph-name="Acircumflex" horiz-adv-x="690" d="M356 827Q425 782 475 739Q480 734 487 734Q502 734 502 748Q502 755 488 772T455 810T416 850T386 879Q374 891 355 891Q337 891 326 881Q317 872 298 853T259 812T224 772T209 748Q209
734 224 734Q231 734 236 739Q261 760 291 782T356 827ZM172 227L516 240Q533 203 549 167T580 99Q588 81 599 52T617 4Q619 -2 627 -4T645 -7Q660 -7 674 -1T689 15Q689 17 688 19T685 25Q669 48 652 78T627 124Q588 206 546 299T466 483T398 652Q396 660 396
663V670Q396 673 396 676T394 683Q390 693 375 701T346 710Q338 710 331 705Q324 699 321 681T314 652Q297 611 268 548T205 414T135 273H117Q107 273 98 273T80 275H78Q68 275 68 264Q68 251 78 236T99 220H100Q102 220 104 220T110 221Q76 155 57 118T28 63T14
36T5 22Q1 17 1 10Q1 2 10 -2T31 -6Q44 -6 56 -2T71 11Q77 28 89 56T109 100Q123 129 139 161T172 227ZM495 287L195 274Q227 340 258 405T315 527T356 620Q369 585 391 532T440 416T495 287Z" />
<glyph unicode="&#xc3;" glyph-name="Atilde" horiz-adv-x="690" d="M511 850Q511 852 511 853T512 855Q512 862 508 866T498 870Q491 870 486 861Q474 836 459 826T421 816Q404 816 389 828T354 854T304 867Q266 867 242 841T210 784Q210 783 210 782T209 779Q209
772 213 768T223 764Q231 764 235 773Q247 798 262 808T300 818Q317 818 332 805T367 780T417 767Q455 767 479 793T511 850ZM172 227L516 240Q533 203 549 167T580 99Q588 81 599 52T617 4Q619 -2 627 -4T645 -7Q660 -7 674 -1T689 15Q689 17 688 19T685 25Q669
48 652 78T627 124Q588 206 546 299T466 483T398 652Q396 660 396 663V670Q396 673 396 676T394 683Q390 693 375 701T346 710Q338 710 331 705Q324 699 321 681T314 652Q297 611 268 548T205 414T135 273H117Q107 273 98 273T80 275H78Q68 275 68 264Q68 251 78
236T99 220H100Q102 220 104 220T110 221Q76 155 57 118T28 63T14 36T5 22Q1 17 1 10Q1 2 10 -2T31 -6Q44 -6 56 -2T71 11Q77 28 89 56T109 100Q123 129 139 161T172 227ZM495 287L195 274Q227 340 258 405T315 527T356 620Q369 585 391 532T440 416T495 287Z"
/>
<glyph unicode="&#xc4;" glyph-name="Adieresis" horiz-adv-x="690" d="M443 769Q460 769 470 780T481 809Q481 829 466 846T433 864Q414 864 404 853T394 823Q394 805 409 787T443 769ZM270 769Q287 769 297 780T308 809Q308 829 293 846T260 864Q241 864 231
853T221 823Q221 805 236 787T270 769ZM172 227L516 240Q533 203 549 167T580 99Q588 81 599 52T617 4Q619 -2 627 -4T645 -7Q660 -7 674 -1T689 15Q689 17 688 19T685 25Q669 48 652 78T627 124Q588 206 546 299T466 483T398 652Q396 660 396 663V670Q396 673
396 676T394 683Q390 693 375 701T346 710Q338 710 331 705Q324 699 321 681T314 652Q297 611 268 548T205 414T135 273H117Q107 273 98 273T80 275H78Q68 275 68 264Q68 251 78 236T99 220H100Q102 220 104 220T110 221Q76 155 57 118T28 63T14 36T5 22Q1 17 1
10Q1 2 10 -2T31 -6Q44 -6 56 -2T71 11Q77 28 89 56T109 100Q123 129 139 161T172 227ZM495 287L195 274Q227 340 258 405T315 527T356 620Q369 585 391 532T440 416T495 287Z" />
<glyph unicode="&#xc5;" glyph-name="Aring" horiz-adv-x="690" d="M450 816Q450 854 422 882T356 910Q318 910 290 882T262 816Q262 778 290 750T356 722Q394 722 422 750T450 816ZM412 816Q412 793 396 777T356 760Q333 760 317 776T300 816Q300 839 316 855T356
872Q379 872 395 856T412 816ZM172 227L516 240Q533 203 549 167T580 99Q588 81 599 52T617 4Q619 -2 627 -4T645 -7Q660 -7 674 -1T689 15Q689 17 688 19T685 25Q669 48 652 78T627 124Q588 206 546 299T466 483T398 652Q396 660 396 663V670Q396 673 396 676T394
683Q390 693 375 701T346 710Q338 710 331 705Q324 699 321 681T314 652Q297 611 268 548T205 414T135 273H117Q107 273 98 273T80 275H78Q68 275 68 264Q68 251 78 236T99 220H100Q102 220 104 220T110 221Q76 155 57 118T28 63T14 36T5 22Q1 17 1 10Q1 2 10 -2T31
-6Q44 -6 56 -2T71 11Q77 28 89 56T109 100Q123 129 139 161T172 227ZM495 287L195 274Q227 340 258 405T315 527T356 620Q369 585 391 532T440 416T495 287Z" />
<glyph unicode="&#xc6;" glyph-name="AE" horiz-adv-x="900" d="M826 57H825Q810 56 788 55T742 54L486 51V348L656 355Q673 356 694 356T733 356T759 356Q770 356 770 370Q770 383 761 398T739 413H738Q725 412 701 409T655 405L486 397V634L718 650Q734 651
751 651T785 652Q796 652 805 652T821 651Q832 651 832 665Q832 678 823 693T802 708H800Q787 707 764 705T717 700L486 684Q467 692 447 699T410 706Q404 706 401 705Q391 703 388 688T379 664Q357 619 322 555T244 416T158 270Q149 269 141 269T124 269Q108 269
96 269T78 270Q61 270 61 256Q61 243 73 228T98 213H99Q104 213 111 214T127 217Q123 211 111 190T82 142T48 88T17 43Q6 29 6 18Q6 10 15 6T34 0T51 -2Q67 -2 74 13Q82 30 95 53T120 96L195 222L428 235V84Q428 72 425 58T421 37Q421 26 434 9T461 -8Q476 -8 487
-5T515 -1L743 1Q770 1 799 0T846 -2Q857 -2 857 12Q857 26 848 41T826 57ZM428 622V284L225 273Q281 369 333 462T422 624Q425 631 427 631Q428 631 428 622Z" />
<glyph unicode="&#xc7;" glyph-name="Ccedilla" horiz-adv-x="703" d="M379 -29L384 -15Q456 -9 509 18T599 79T653 143T671 183Q671 199 659 199Q648 199 638 186Q606 144 563 110T469 56T363 36Q291 36 234 63T144 147T111 295Q111 371 133 437T196 552T289
630T404 658Q455 658 491 646T549 616T580 585Q586 576 594 576Q606 576 617 590T629 617Q629 622 617 637T578 669T510 698T408 711Q333 711 268 679T155 590T80 457T53 293Q53 190 88 123T186 23T329 -15Q325 -23 322 -33T319 -45Q319 -56 327 -64T348 -72Q350
-72 351 -72T354 -71Q364 -69 373 -68T389 -67Q435 -67 435 -98Q435 -130 382 -130Q357 -130 342 -125T305 -104Q303 -102 300 -102Q293 -102 289 -112T284 -134Q284 -150 294 -156Q338 -178 382 -178Q432 -178 459 -157T486 -97Q486 -62 462 -45T402 -27Q396 -27
391 -27T379 -29Z" />
<glyph unicode="&#xc8;" glyph-name="Egrave" horiz-adv-x="638" d="M419 761Q419 767 413 773Q386 797 347 826T270 880Q266 882 263 882Q250 882 233 868T216 842Q216 834 224 831Q275 810 317 790T394 749Q400 746 404 746Q419 746 419 761ZM576 0H577Q587
0 587 14Q587 27 578 43T556 59H555Q540 58 517 57T472 56L166 51V348L386 360Q400 361 416 361T447 361H489Q500 361 500 375Q500 387 491 402T468 418Q459 418 434 415T385 410L166 397V634L441 652Q455 653 471 653T502 653H544Q555 653 555 667Q555 679 546
694T523 710Q514 710 489 707T440 702L168 684Q168 684 159 687T138 694T116 698Q104 698 104 684Q104 680 104 675T106 661Q108 649 108 635T108 604V396Q103 396 99 396T89 398H87Q80 398 80 390Q80 380 88 367T108 347V84Q108 72 105 58T101 37Q101 26 114 9T141
-8Q156 -8 167 -5T195 -1L473 3H489Q515 3 541 2T576 0Z" />
<glyph unicode="&#xc9;" glyph-name="Eacute" horiz-adv-x="638" d="M416 830Q424 833 424 841Q424 853 407 867T377 881Q374 881 370 879Q332 854 293 825T227 772Q221 766 221 760Q221 745 236 745Q240 745 246 748Q280 768 322 788T416 830ZM576 0H577Q587
0 587 14Q587 27 578 43T556 59H555Q540 58 517 57T472 56L166 51V348L386 360Q400 361 416 361T447 361H489Q500 361 500 375Q500 387 491 402T468 418Q459 418 434 415T385 410L166 397V634L441 652Q455 653 471 653T502 653H544Q555 653 555 667Q555 679 546
694T523 710Q514 710 489 707T440 702L168 684Q168 684 159 687T138 694T116 698Q104 698 104 684Q104 680 104 675T106 661Q108 649 108 635T108 604V396Q103 396 99 396T89 398H87Q80 398 80 390Q80 380 88 367T108 347V84Q108 72 105 58T101 37Q101 26 114 9T141
-8Q156 -8 167 -5T195 -1L473 3H489Q515 3 541 2T576 0Z" />
<glyph unicode="&#xca;" glyph-name="Ecircumflex" horiz-adv-x="638" d="M337 827Q406 782 456 739Q461 734 468 734Q483 734 483 748Q483 755 469 772T436 810T397 850T367 879Q355 891 336 891Q318 891 307 881Q298 872 279 853T240 812T205 772T190 748Q190
734 205 734Q212 734 217 739Q242 760 272 782T337 827ZM576 0H577Q587 0 587 14Q587 27 578 43T556 59H555Q540 58 517 57T472 56L166 51V348L386 360Q400 361 416 361T447 361H489Q500 361 500 375Q500 387 491 402T468 418Q459 418 434 415T385 410L166 397V634L441
652Q455 653 471 653T502 653H544Q555 653 555 667Q555 679 546 694T523 710Q514 710 489 707T440 702L168 684Q168 684 159 687T138 694T116 698Q104 698 104 684Q104 680 104 675T106 661Q108 649 108 635T108 604V396Q103 396 99 396T89 398H87Q80 398 80 390Q80
380 88 367T108 347V84Q108 72 105 58T101 37Q101 26 114 9T141 -8Q156 -8 167 -5T195 -1L473 3H489Q515 3 541 2T576 0Z" />
<glyph unicode="&#xcb;" glyph-name="Edieresis" horiz-adv-x="638" d="M417 769Q434 769 444 780T455 809Q455 829 440 846T407 864Q388 864 378 853T368 823Q368 805 383 787T417 769ZM244 769Q261 769 271 780T282 809Q282 829 267 846T234 864Q215 864 205
853T195 823Q195 805 210 787T244 769ZM576 0H577Q587 0 587 14Q587 27 578 43T556 59H555Q540 58 517 57T472 56L166 51V348L386 360Q400 361 416 361T447 361H489Q500 361 500 375Q500 387 491 402T468 418Q459 418 434 415T385 410L166 397V634L441 652Q455
653 471 653T502 653H544Q555 653 555 667Q555 679 546 694T523 710Q514 710 489 707T440 702L168 684Q168 684 159 687T138 694T116 698Q104 698 104 684Q104 680 104 675T106 661Q108 649 108 635T108 604V396Q103 396 99 396T89 398H87Q80 398 80 390Q80 380
88 367T108 347V84Q108 72 105 58T101 37Q101 26 114 9T141 -8Q156 -8 167 -5T195 -1L473 3H489Q515 3 541 2T576 0Z" />
<glyph unicode="&#xcc;" glyph-name="Igrave" horiz-adv-x="304" d="M256 761Q256 767 250 773Q223 797 184 826T107 880Q103 882 100 882Q87 882 70 868T53 842Q53 834 61 831Q112 810 154 790T231 749Q237 746 241 746Q256 746 256 761ZM120 589V107Q120 81
119 56T118 18Q118 5 134 -2T166 -10Q173 -10 178 -8T183 0Q183 17 182 46T180 106V588Q180 614 181 639T182 677Q182 690 166 697T134 705Q127 705 122 703T117 695Q117 678 118 649T120 589Z" />
<glyph unicode="&#xcd;" glyph-name="Iacute" horiz-adv-x="304" d="M245 830Q253 833 253 841Q253 853 236 867T206 881Q203 881 199 879Q161 854 122 825T56 772Q50 766 50 760Q50 745 65 745Q69 745 75 748Q109 768 151 788T245 830ZM120 589V107Q120 81 119
56T118 18Q118 5 134 -2T166 -10Q173 -10 178 -8T183 0Q183 17 182 46T180 106V588Q180 614 181 639T182 677Q182 690 166 697T134 705Q127 705 122 703T117 695Q117 678 118 649T120 589Z" />
<glyph unicode="&#xce;" glyph-name="Icircumflex" horiz-adv-x="304" d="M153 827Q222 782 272 739Q277 734 284 734Q299 734 299 748Q299 755 285 772T252 810T213 850T183 879Q171 891 152 891Q134 891 123 881Q114 872 95 853T56 812T21 772T6 748Q6 734 21
734Q28 734 33 739Q58 760 88 782T153 827ZM120 589V107Q120 81 119 56T118 18Q118 5 134 -2T166 -10Q173 -10 178 -8T183 0Q183 17 182 46T180 106V588Q180 614 181 639T182 677Q182 690 166 697T134 705Q127 705 122 703T117 695Q117 678 118 649T120 589Z" />
<glyph unicode="&#xcf;" glyph-name="Idieresis" horiz-adv-x="304" d="M244 769Q261 769 271 780T282 809Q282 829 267 846T234 864Q215 864 205 853T195 823Q195 805 210 787T244 769ZM71 769Q88 769 98 780T109 809Q109 829 94 846T61 864Q42 864 32 853T22
823Q22 805 37 787T71 769ZM120 589V107Q120 81 119 56T118 18Q118 5 134 -2T166 -10Q173 -10 178 -8T183 0Q183 17 182 46T180 106V588Q180 614 181 639T182 677Q182 690 166 697T134 705Q127 705 122 703T117 695Q117 678 118 649T120 589Z" />
<glyph unicode="&#xd0;" glyph-name="Eth" horiz-adv-x="728" d="M169 -6H183Q229 -5 276 -2T374 10Q428 20 481 45T577 112T645 215T671 357Q671 438 642 503T561 614T444 685T303 710Q269 710 225 706T143 696T84 681Q75 677 75 667Q75 655 85 643T108 628V349H41Q33
349 30 344T26 330Q26 319 32 309T46 298H47L108 301V34Q108 34 95 34T73 32Q64 31 59 26T54 16Q54 4 72 1Q95 -2 119 -4T169 -6ZM332 305H410Q424 305 424 323Q424 334 418 345T404 356H403Q384 355 366 354T331 353L166 350V642Q197 650 231 654T298 658Q358
658 414 638T515 578T586 484T612 358Q612 290 590 238T530 150T450 91T365 58Q317 47 266 41T166 34V302L332 305Z" />
<glyph unicode="&#xd1;" glyph-name="Ntilde" horiz-adv-x="738" d="M523 850Q523 852 523 853T524 855Q524 862 520 866T510 870Q503 870 498 861Q486 836 471 826T433 816Q416 816 401 828T366 854T316 867Q278 867 254 841T222 784Q222 783 222 782T221 779Q221
772 225 768T235 764Q243 764 247 773Q259 798 274 808T312 818Q329 818 344 805T379 780T429 767Q467 767 491 793T523 850ZM577 589V77Q520 155 452 255T315 465T184 681Q173 700 168 703T150 706Q136 706 122 702T103 687Q102 685 102 681Q102 674 105 664T108
646V106Q108 80 107 55T106 17Q106 4 122 -3T151 -11Q167 -11 167 -1Q167 16 166 45T164 105V610Q202 545 249 469T347 315T449 162T544 27Q552 17 561 3T585 -11Q602 -11 619 1T637 27Q637 36 635 53T633 79V588Q633 614 634 639T635 677Q635 690 620 697T590
705Q574 705 574 695Q574 678 575 649T577 589Z" />
<glyph unicode="&#xd2;" glyph-name="Ograve" horiz-adv-x="745" d="M494 761Q494 767 488 773Q461 797 422 826T345 880Q341 882 338 882Q325 882 308 868T291 842Q291 834 299 831Q350 810 392 790T469 749Q475 746 479 746Q494 746 494 761ZM223 644Q219 649
212 652T197 655Q180 655 156 629T109 557T71 455T55 337Q55 235 88 156T190 30T366 -16Q450 -16 512 14T614 96T673 217T693 363Q693 464 659 542T560 666T405 711Q347 711 303 693T223 644ZM358 38Q269 38 215 79T136 190T112 339Q112 420 140 480T212 580T305
641T399 661Q462 661 506 636T579 568T621 474T635 371Q635 307 621 248T574 141T489 66T358 38Z" />
<glyph unicode="&#xd3;" glyph-name="Oacute" horiz-adv-x="745" d="M490 830Q498 833 498 841Q498 853 481 867T451 881Q448 881 444 879Q406 854 367 825T301 772Q295 766 295 760Q295 745 310 745Q314 745 320 748Q354 768 396 788T490 830ZM223 644Q219 649
212 652T197 655Q180 655 156 629T109 557T71 455T55 337Q55 235 88 156T190 30T366 -16Q450 -16 512 14T614 96T673 217T693 363Q693 464 659 542T560 666T405 711Q347 711 303 693T223 644ZM358 38Q269 38 215 79T136 190T112 339Q112 420 140 480T212 580T305
641T399 661Q462 661 506 636T579 568T621 474T635 371Q635 307 621 248T574 141T489 66T358 38Z" />
<glyph unicode="&#xd4;" glyph-name="Ocircumflex" horiz-adv-x="745" d="M402 827Q471 782 521 739Q526 734 533 734Q548 734 548 748Q548 755 534 772T501 810T462 850T432 879Q420 891 401 891Q383 891 372 881Q363 872 344 853T305 812T270 772T255 748Q255
734 270 734Q277 734 282 739Q307 760 337 782T402 827ZM223 644Q219 649 212 652T197 655Q180 655 156 629T109 557T71 455T55 337Q55 235 88 156T190 30T366 -16Q450 -16 512 14T614 96T673 217T693 363Q693 464 659 542T560 666T405 711Q347 711 303 693T223
644ZM358 38Q269 38 215 79T136 190T112 339Q112 420 140 480T212 580T305 641T399 661Q462 661 506 636T579 568T621 474T635 371Q635 307 621 248T574 141T489 66T358 38Z" />
<glyph unicode="&#xd5;" glyph-name="Otilde" horiz-adv-x="745" d="M545 850Q545 852 545 853T546 855Q546 862 542 866T532 870Q525 870 520 861Q508 836 493 826T455 816Q438 816 423 828T388 854T338 867Q300 867 276 841T244 784Q244 783 244 782T243 779Q243
772 247 768T257 764Q265 764 269 773Q281 798 296 808T334 818Q351 818 366 805T401 780T451 767Q489 767 513 793T545 850ZM223 644Q219 649 212 652T197 655Q180 655 156 629T109 557T71 455T55 337Q55 235 88 156T190 30T366 -16Q450 -16 512 14T614 96T673
217T693 363Q693 464 659 542T560 666T405 711Q347 711 303 693T223 644ZM358 38Q269 38 215 79T136 190T112 339Q112 420 140 480T212 580T305 641T399 661Q462 661 506 636T579 568T621 474T635 371Q635 307 621 248T574 141T489 66T358 38Z" />
<glyph unicode="&#xd6;" glyph-name="Odieresis" horiz-adv-x="745" d="M475 769Q492 769 502 780T513 809Q513 829 498 846T465 864Q446 864 436 853T426 823Q426 805 441 787T475 769ZM302 769Q319 769 329 780T340 809Q340 829 325 846T292 864Q273 864 263
853T253 823Q253 805 268 787T302 769ZM223 644Q219 649 212 652T197 655Q180 655 156 629T109 557T71 455T55 337Q55 235 88 156T190 30T366 -16Q450 -16 512 14T614 96T673 217T693 363Q693 464 659 542T560 666T405 711Q347 711 303 693T223 644ZM358 38Q269
38 215 79T136 190T112 339Q112 420 140 480T212 580T305 641T399 661Q462 661 506 636T579 568T621 474T635 371Q635 307 621 248T574 141T489 66T358 38Z" />
<glyph unicode="&#xd7;" glyph-name="multiply" horiz-adv-x="600" d="M302 214L437 80Q447 71 463 54T496 19Q499 15 504 15Q513 15 521 28T530 53Q530 63 525 67Q509 81 493 95T467 119L337 249L466 378Q479 391 498 409T527 434Q532 438 532 446Q532 458 524
471T505 484Q503 484 499 481T481 463T435 416L302 283L163 423Q131 456 117 470T99 488T92 492Q82 492 74 479T66 453Q66 445 71 441Q80 434 99 416T132 385L268 248L131 112Q122 103 106 89T73 60Q68 56 68 47Q68 35 77 22T95 9Q99 9 102 12Q119 29 135 46T161
73L302 214Z" />
<glyph unicode="&#xd8;" glyph-name="Oslash" horiz-adv-x="745" d="M106 -27L164 50Q201 19 251 2T366 -16Q450 -16 512 14T614 96T673 217T693 363Q693 511 622 605Q653 639 666 654T682 674T685 683Q685 697 674 711T652 725Q649 725 646 722Q635 706 619 684T588
643Q553 675 507 693T405 711Q347 711 303 693T223 644Q219 649 212 652T197 655Q180 655 156 629T109 557T71 455T55 337Q55 261 73 198T128 87Q113 70 96 51T70 23Q66 19 66 12Q66 -1 78 -15T100 -30Q103 -30 106 -27ZM553 600L166 131Q138 172 125 226T112 339Q112
420 140 480T212 580T305 641T399 661Q449 661 487 645T553 600ZM199 93L585 560Q611 520 623 471T635 371Q635 307 621 248T574 141T489 66T358 38Q306 38 267 52T199 93Z" />
<glyph unicode="&#xd9;" glyph-name="Ugrave" horiz-adv-x="710" d="M456 761Q456 767 450 773Q423 797 384 826T307 880Q303 882 300 882Q287 882 270 868T253 842Q253 834 261 831Q312 810 354 790T431 749Q437 746 441 746Q456 746 456 761ZM545 595V242Q545
183 521 137T451 64T342 37Q254 37 210 78T166 210V584Q166 610 167 639T168 680Q168 692 153 699T124 706Q105 706 105 695Q105 678 106 648T108 586V198Q108 94 165 39T342 -16Q421 -16 479 14T570 100T603 230V594Q603 620 604 645T605 682Q605 694 590 701T561
708Q542 708 542 697Q542 689 542 670T544 630T545 595Z" />
<glyph unicode="&#xda;" glyph-name="Uacute" horiz-adv-x="710" d="M437 830Q445 833 445 841Q445 853 428 867T398 881Q395 881 391 879Q353 854 314 825T248 772Q242 766 242 760Q242 745 257 745Q261 745 267 748Q301 768 343 788T437 830ZM545 595V242Q545
183 521 137T451 64T342 37Q254 37 210 78T166 210V584Q166 610 167 639T168 680Q168 692 153 699T124 706Q105 706 105 695Q105 678 106 648T108 586V198Q108 94 165 39T342 -16Q421 -16 479 14T570 100T603 230V594Q603 620 604 645T605 682Q605 694 590 701T561
708Q542 708 542 697Q542 689 542 670T544 630T545 595Z" />
<glyph unicode="&#xdb;" glyph-name="Ucircumflex" horiz-adv-x="710" d="M349 827Q418 782 468 739Q473 734 480 734Q495 734 495 748Q495 755 481 772T448 810T409 850T379 879Q367 891 348 891Q330 891 319 881Q310 872 291 853T252 812T217 772T202 748Q202
734 217 734Q224 734 229 739Q254 760 284 782T349 827ZM545 595V242Q545 183 521 137T451 64T342 37Q254 37 210 78T166 210V584Q166 610 167 639T168 680Q168 692 153 699T124 706Q105 706 105 695Q105 678 106 648T108 586V198Q108 94 165 39T342 -16Q421 -16
479 14T570 100T603 230V594Q603 620 604 645T605 682Q605 694 590 701T561 708Q542 708 542 697Q542 689 542 670T544 630T545 595Z" />
<glyph unicode="&#xdc;" glyph-name="Udieresis" horiz-adv-x="710" d="M443 770Q460 770 470 781T481 810Q481 830 466 847T433 865Q414 865 404 854T394 824Q394 806 409 788T443 770ZM270 770Q287 770 297 781T308 810Q308 830 293 847T260 865Q241 865 231
854T221 824Q221 806 236 788T270 770ZM545 595V242Q545 183 521 137T451 64T342 37Q254 37 210 78T166 210V584Q166 610 167 639T168 680Q168 692 153 699T124 706Q105 706 105 695Q105 678 106 648T108 586V198Q108 94 165 39T342 -16Q421 -16 479 14T570 100T603
230V594Q603 620 604 645T605 682Q605 694 590 701T561 708Q542 708 542 697Q542 689 542 670T544 630T545 595Z" />
<glyph unicode="&#xdd;" glyph-name="Yacute" horiz-adv-x="600" d="M402 830Q410 833 410 841Q410 853 393 867T363 881Q360 881 356 879Q318 854 279 825T213 772Q207 766 207 760Q207 745 222 745Q226 745 232 748Q266 768 308 788T402 830ZM265 293V108Q265
96 265 78T264 44T263 19Q263 6 279 -1T309 -9Q326 -9 326 1Q326 13 326 33T324 74T323 107V293Q350 341 384 397T453 507T519 607T573 679Q575 683 575 684Q575 692 561 700T532 708Q516 708 510 698Q502 683 492 667T469 630Q423 557 381 489T294 347Q255 418
209 492T120 632Q111 646 103 663T86 694Q82 700 64 700Q50 700 36 696T22 681Q22 675 27 670Q34 662 53 634T99 565T156 477T214 382T265 293Z" />
<glyph unicode="&#xde;" glyph-name="Thorn" horiz-adv-x="618" d="M108 528V117Q108 88 107 59T106 18Q106 5 122 -2T152 -10Q169 -10 169 0Q169 17 168 49T166 116V224Q170 218 189 217T235 216Q271 216 309 218T372 226Q464 245 518 301T573 440Q573 516 512
566T320 617Q299 617 271 616T214 611T166 602Q166 627 167 646T168 677Q168 690 152 697T122 705Q105 705 105 695Q105 679 106 649T108 590Q79 584 74 582T69 571Q69 558 80 543T105 528H108ZM166 249V545Q199 554 240 559T318 564Q407 564 460 532T513 434Q513
423 509 402T489 356T437 308T339 271T181 256Q171 256 166 249Z" />
<glyph unicode="&#xdf;" glyph-name="germandbls" horiz-adv-x="610" d="M104 22V21Q104 8 119 1T149 -7Q167 -7 167 3Q167 21 166 51T165 109V480Q165 551 185 593T239 653T312 671Q356 671 390 646T424 568Q424 531 398 498T322 444T202 419Q194 419 194 408Q194
397 204 381T224 364H226Q243 369 260 371T290 374H298Q383 374 434 333T485 217Q485 140 442 96T337 52Q267 52 210 97Q203 102 198 104T189 106Q177 106 177 94Q177 86 189 71T224 39T277 12T342 0Q403 0 448 29T519 107T545 217Q545 272 519 315T449 383T346
408H332Q373 418 407 440T462 495T483 569Q483 640 437 682T312 724Q275 724 239 713T172 674T125 599T107 479V111Q107 55 104 22Z" />
<glyph unicode="&#xe0;" glyph-name="agrave" horiz-adv-x="575" d="M390 589Q390 595 384 601Q357 625 318 654T241 708Q237 710 234 710Q221 710 204 696T187 670Q187 662 195 659Q246 638 288 618T365 577Q371 574 375 574Q390 574 390 589ZM487 457V459Q487
470 472 477T442 484Q425 484 425 475Q425 468 425 451T423 410Q407 448 374 466T303 484Q259 484 216 460T137 393T80 294T58 175Q58 81 101 33T217 -16Q274 -16 329 18T421 126Q422 109 427 86T439 41T456 4T476 -11Q490 -11 500 2T511 27Q511 30 509 34Q492
61 485 93T476 152T474 193Q474 211 475 246T477 321T481 398T487 457ZM423 386Q422 361 422 334T421 291Q418 214 388 156T313 66T217 34Q173 34 144 68T115 180Q115 234 131 280T176 362T237 416T304 436Q327 436 352 423T396 380Q399 376 405 376Q410 376 415
379T423 386Z" />
<glyph unicode="&#xe1;" glyph-name="aacute" horiz-adv-x="575" d="M389 659Q397 662 397 670Q397 682 380 696T350 710Q347 710 343 708Q305 683 266 654T200 601Q194 595 194 589Q194 574 209 574Q213 574 219 577Q253 597 295 617T389 659ZM487 457V459Q487
470 472 477T442 484Q425 484 425 475Q425 468 425 451T423 410Q407 448 374 466T303 484Q259 484 216 460T137 393T80 294T58 175Q58 81 101 33T217 -16Q274 -16 329 18T421 126Q422 109 427 86T439 41T456 4T476 -11Q490 -11 500 2T511 27Q511 30 509 34Q492
61 485 93T476 152T474 193Q474 211 475 246T477 321T481 398T487 457ZM423 386Q422 361 422 334T421 291Q418 214 388 156T313 66T217 34Q173 34 144 68T115 180Q115 234 131 280T176 362T237 416T304 436Q327 436 352 423T396 380Q399 376 405 376Q410 376 415
379T423 386Z" />
<glyph unicode="&#xe2;" glyph-name="acircumflex" horiz-adv-x="575" d="M291 660Q360 615 410 572Q415 567 422 567Q437 567 437 581Q437 588 423 605T390 643T351 683T321 712Q309 724 290 724Q272 724 261 714Q252 705 233 686T194 645T159 605T144 581Q144
567 159 567Q166 567 171 572Q196 593 226 615T291 660ZM487 457V459Q487 470 472 477T442 484Q425 484 425 475Q425 468 425 451T423 410Q407 448 374 466T303 484Q259 484 216 460T137 393T80 294T58 175Q58 81 101 33T217 -16Q274 -16 329 18T421 126Q422 109
427 86T439 41T456 4T476 -11Q490 -11 500 2T511 27Q511 30 509 34Q492 61 485 93T476 152T474 193Q474 211 475 246T477 321T481 398T487 457ZM423 386Q422 361 422 334T421 291Q418 214 388 156T313 66T217 34Q173 34 144 68T115 180Q115 234 131 280T176 362T237
416T304 436Q327 436 352 423T396 380Q399 376 405 376Q410 376 415 379T423 386Z" />
<glyph unicode="&#xe3;" glyph-name="atilde" horiz-adv-x="575" d="M445 677Q445 679 445 680T446 682Q446 689 442 693T432 697Q425 697 420 688Q408 663 393 653T355 643Q338 643 323 655T288 681T238 694Q200 694 176 668T144 611Q144 610 144 609T143 606Q143
599 147 595T157 591Q165 591 169 600Q181 625 196 635T234 645Q251 645 266 632T301 607T351 594Q389 594 413 620T445 677ZM487 457V459Q487 470 472 477T442 484Q425 484 425 475Q425 468 425 451T423 410Q407 448 374 466T303 484Q259 484 216 460T137 393T80
294T58 175Q58 81 101 33T217 -16Q274 -16 329 18T421 126Q422 109 427 86T439 41T456 4T476 -11Q490 -11 500 2T511 27Q511 30 509 34Q492 61 485 93T476 152T474 193Q474 211 475 246T477 321T481 398T487 457ZM423 386Q422 361 422 334T421 291Q418 214 388
156T313 66T217 34Q173 34 144 68T115 180Q115 234 131 280T176 362T237 416T304 436Q327 436 352 423T396 380Q399 376 405 376Q410 376 415 379T423 386Z" />
<glyph unicode="&#xe4;" glyph-name="adieresis" horiz-adv-x="575" d="M380 598Q397 598 407 609T418 638Q418 658 403 675T370 693Q351 693 341 682T331 652Q331 634 346 616T380 598ZM207 598Q224 598 234 609T245 638Q245 658 230 675T197 693Q178 693 168
682T158 652Q158 634 173 616T207 598ZM487 457V459Q487 470 472 477T442 484Q425 484 425 475Q425 468 425 451T423 410Q407 448 374 466T303 484Q259 484 216 460T137 393T80 294T58 175Q58 81 101 33T217 -16Q274 -16 329 18T421 126Q422 109 427 86T439 41T456
4T476 -11Q490 -11 500 2T511 27Q511 30 509 34Q492 61 485 93T476 152T474 193Q474 211 475 246T477 321T481 398T487 457ZM423 386Q422 361 422 334T421 291Q418 214 388 156T313 66T217 34Q173 34 144 68T115 180Q115 234 131 280T176 362T237 416T304 436Q327
436 352 423T396 380Q399 376 405 376Q410 376 415 379T423 386Z" />
<glyph unicode="&#xe5;" glyph-name="aring" horiz-adv-x="575" d="M389 646Q389 684 361 712T295 740Q257 740 229 712T201 646Q201 608 229 580T295 552Q333 552 361 580T389 646ZM351 646Q351 623 335 607T295 590Q272 590 256 606T239 646Q239 669 255 685T295
702Q318 702 334 686T351 646ZM487 457V459Q487 470 472 477T442 484Q425 484 425 475Q425 468 425 451T423 410Q407 448 374 466T303 484Q259 484 216 460T137 393T80 294T58 175Q58 81 101 33T217 -16Q274 -16 329 18T421 126Q422 109 427 86T439 41T456 4T476
-11Q490 -11 500 2T511 27Q511 30 509 34Q492 61 485 93T476 152T474 193Q474 211 475 246T477 321T481 398T487 457ZM423 386Q422 361 422 334T421 291Q418 214 388 156T313 66T217 34Q173 34 144 68T115 180Q115 234 131 280T176 362T237 416T304 436Q327 436
352 423T396 380Q399 376 405 376Q410 376 415 379T423 386Z" />
<glyph unicode="&#xe6;" glyph-name="ae" horiz-adv-x="900" d="M474 201H486Q569 201 634 210T744 233Q784 246 804 259T832 292T839 340Q839 376 824 409T772 463T675 484Q618 484 570 454T488 380Q489 403 491 424T495 457V459Q495 470 480 477T450 484Q433
484 433 475Q433 468 433 451T431 410Q415 448 382 466T311 484Q267 484 224 460T145 393T88 294T66 175Q66 81 109 33T225 -16Q279 -16 336 16T429 121Q447 57 493 21T600 -16Q661 -16 706 2T781 46T826 95T841 127Q841 137 833 137Q824 137 812 124Q772 81 719
58T600 34Q549 34 512 75T474 198V201ZM502 250H481Q486 277 503 309T545 370T604 417T674 436Q727 436 756 411T785 341Q785 323 781 312T764 293T719 276Q685 266 632 258T502 250ZM431 386Q430 361 430 334T429 291Q426 214 396 156T321 66T225 34Q181 34 152
68T123 180Q123 234 139 280T184 362T245 416T312 436Q335 436 360 423T404 380Q407 376 413 376Q418 376 423 379T431 386Z" />
<glyph unicode="&#xe7;" glyph-name="ccedilla" horiz-adv-x="530" d="M277 -29L283 -14Q333 -8 370 14T433 63T470 112T483 142Q483 152 475 152Q467 152 454 139Q431 115 402 91T335 51T250 34Q218 34 187 51T135 105T114 199Q114 246 131 288T178 363T243 415T315
434Q350 434 373 417T413 367Q416 362 422 362Q433 362 444 374T456 400Q456 403 449 416T426 444T383 472T313 484Q267 484 222 462T139 399T80 307T58 194Q58 131 80 87T141 17T227 -15Q224 -21 221 -32T217 -45Q217 -56 225 -64T246 -72Q248 -72 249 -72T252
-71Q262 -69 271 -68T287 -67Q333 -67 333 -98Q333 -130 280 -130Q255 -130 240 -125T203 -104Q201 -102 198 -102Q191 -102 187 -112T182 -134Q182 -150 192 -156Q236 -178 280 -178Q330 -178 357 -157T384 -97Q384 -62 360 -45T300 -27Q294 -27 289 -27T277 -29Z"
/>
<glyph unicode="&#xe8;" glyph-name="egrave" horiz-adv-x="543" d="M387 589Q387 595 381 601Q354 625 315 654T238 708Q234 710 231 710Q218 710 201 696T184 670Q184 662 192 659Q243 638 285 618T362 577Q368 574 372 574Q387 574 387 589ZM118 201H130Q213
201 278 210T388 233Q428 246 448 259T476 292T483 340Q483 376 468 409T416 463T319 484Q270 484 228 462T153 404T99 329T71 253Q71 253 67 253T60 252Q43 252 43 240Q43 224 64 210V195Q64 130 88 83T152 10T244 -16Q305 -16 350 2T425 46T470 95T485 127Q485
137 477 137Q468 137 456 124Q416 81 363 58T244 34Q193 34 156 75T118 198V201ZM146 250H125Q130 277 147 309T189 370T248 417T318 436Q371 436 400 411T429 341Q429 323 425 312T408 293T363 276Q329 266 276 258T146 250Z" />
<glyph unicode="&#xe9;" glyph-name="eacute" horiz-adv-x="543" d="M381 659Q389 662 389 670Q389 682 372 696T342 710Q339 710 335 708Q297 683 258 654T192 601Q186 595 186 589Q186 574 201 574Q205 574 211 577Q245 597 287 617T381 659ZM118 201H130Q213
201 278 210T388 233Q428 246 448 259T476 292T483 340Q483 376 468 409T416 463T319 484Q270 484 228 462T153 404T99 329T71 253Q71 253 67 253T60 252Q43 252 43 240Q43 224 64 210V195Q64 130 88 83T152 10T244 -16Q305 -16 350 2T425 46T470 95T485 127Q485
137 477 137Q468 137 456 124Q416 81 363 58T244 34Q193 34 156 75T118 198V201ZM146 250H125Q130 277 147 309T189 370T248 417T318 436Q371 436 400 411T429 341Q429 323 425 312T408 293T363 276Q329 266 276 258T146 250Z" />
<glyph unicode="&#xea;" glyph-name="ecircumflex" horiz-adv-x="543" d="M281 660Q350 615 400 572Q405 567 412 567Q427 567 427 581Q427 588 413 605T380 643T341 683T311 712Q299 724 280 724Q262 724 251 714Q242 705 223 686T184 645T149 605T134 581Q134
567 149 567Q156 567 161 572Q186 593 216 615T281 660ZM118 201H130Q213 201 278 210T388 233Q428 246 448 259T476 292T483 340Q483 376 468 409T416 463T319 484Q270 484 228 462T153 404T99 329T71 253Q71 253 67 253T60 252Q43 252 43 240Q43 224 64 210V195Q64
130 88 83T152 10T244 -16Q305 -16 350 2T425 46T470 95T485 127Q485 137 477 137Q468 137 456 124Q416 81 363 58T244 34Q193 34 156 75T118 198V201ZM146 250H125Q130 277 147 309T189 370T248 417T318 436Q371 436 400 411T429 341Q429 323 425 312T408 293T363
276Q329 266 276 258T146 250Z" />
<glyph unicode="&#xeb;" glyph-name="edieresis" horiz-adv-x="543" d="M366 598Q383 598 393 609T404 638Q404 658 389 675T356 693Q337 693 327 682T317 652Q317 634 332 616T366 598ZM193 598Q210 598 220 609T231 638Q231 658 216 675T183 693Q164 693 154
682T144 652Q144 634 159 616T193 598ZM118 201H130Q213 201 278 210T388 233Q428 246 448 259T476 292T483 340Q483 376 468 409T416 463T319 484Q270 484 228 462T153 404T99 329T71 253Q71 253 67 253T60 252Q43 252 43 240Q43 224 64 210V195Q64 130 88 83T152
10T244 -16Q305 -16 350 2T425 46T470 95T485 127Q485 137 477 137Q468 137 456 124Q416 81 363 58T244 34Q193 34 156 75T118 198V201ZM146 250H125Q130 277 147 309T189 370T248 417T318 436Q371 436 400 411T429 341Q429 323 425 312T408 293T363 276Q329 266
276 258T146 250Z" />
<glyph unicode="&#xec;" glyph-name="igrave" horiz-adv-x="263" d="M233 589Q233 595 227 601Q200 625 161 654T84 708Q80 710 77 710Q64 710 47 696T30 670Q30 662 38 659Q89 638 131 618T208 577Q214 574 218 574Q233 574 233 589ZM104 368V105Q104 98 104
80T103 44T102 17Q102 6 118 -1T147 -9Q162 -9 162 -1Q162 11 162 34T160 78T159 105V368Q159 380 159 398T160 432T161 457Q161 468 146 475T116 483Q101 483 101 475Q101 464 101 442T103 399T104 368Z" />
<glyph unicode="&#xed;" glyph-name="iacute" horiz-adv-x="263" d="M227 659Q235 662 235 670Q235 682 218 696T188 710Q185 710 181 708Q143 683 104 654T38 601Q32 595 32 589Q32 574 47 574Q51 574 57 577Q91 597 133 617T227 659ZM104 368V105Q104 98 104
80T103 44T102 17Q102 6 118 -1T147 -9Q162 -9 162 -1Q162 11 162 34T160 78T159 105V368Q159 380 159 398T160 432T161 457Q161 468 146 475T116 483Q101 483 101 475Q101 464 101 442T103 399T104 368Z" />
<glyph unicode="&#xee;" glyph-name="icircumflex" horiz-adv-x="263" d="M134 660Q203 615 253 572Q258 567 265 567Q280 567 280 581Q280 588 266 605T233 643T194 683T164 712Q152 724 133 724Q115 724 104 714Q95 705 76 686T37 645T2 605T-13 581Q-13 567
2 567Q9 567 14 572Q39 593 69 615T134 660ZM104 368V105Q104 98 104 80T103 44T102 17Q102 6 118 -1T147 -9Q162 -9 162 -1Q162 11 162 34T160 78T159 105V368Q159 380 159 398T160 432T161 457Q161 468 146 475T116 483Q101 483 101 475Q101 464 101 442T103
399T104 368Z" />
<glyph unicode="&#xef;" glyph-name="idieresis" horiz-adv-x="263" d="M223 598Q240 598 250 609T261 638Q261 658 246 675T213 693Q194 693 184 682T174 652Q174 634 189 616T223 598ZM50 598Q67 598 77 609T88 638Q88 658 73 675T40 693Q21 693 11 682T1 652Q1
634 16 616T50 598ZM104 368V105Q104 98 104 80T103 44T102 17Q102 6 118 -1T147 -9Q162 -9 162 -1Q162 11 162 34T160 78T159 105V368Q159 380 159 398T160 432T161 457Q161 468 146 475T116 483Q101 483 101 475Q101 464 101 442T103 399T104 368Z" />
<glyph unicode="&#xf0;" glyph-name="eth" horiz-adv-x="622" d="M386 613L426 634Q440 642 459 650T498 668Q505 671 505 679Q505 691 494 704T471 717Q466 717 464 715Q446 705 430 696T402 680L340 647Q306 670 268 688T185 720Q183 721 178 721Q165 721 156
707T146 680Q146 665 158 662Q185 658 217 645T280 615L229 588Q210 578 191 569T157 554Q149 551 149 542Q149 530 160 517T182 504Q184 504 188 506Q199 512 220 524T256 544L331 584Q355 569 381 542T431 478T468 398Q444 423 401 440T313 458Q250 458 200 424T121
333T91 204Q91 142 117 92T191 13T299 -16Q378 -16 431 23T513 127T541 272Q541 385 502 464T405 596L386 613ZM479 349Q485 310 485 268Q485 197 462 146T397 66T301 38Q255 38 220 60T166 120T147 204Q147 263 170 309T232 381T311 407Q393 407 452 352Q462 344
468 344Q474 344 479 349Z" />
<glyph unicode="&#xf1;" glyph-name="ntilde" horiz-adv-x="588" d="M445 677Q445 679 445 680T446 682Q446 689 442 693T432 697Q425 697 420 688Q408 663 393 653T355 643Q338 643 323 655T288 681T238 694Q200 694 176 668T144 611Q144 610 144 609T143 606Q143
599 147 595T157 591Q165 591 169 600Q181 625 196 635T234 645Q251 645 266 632T301 607T351 594Q389 594 413 620T445 677ZM440 294V105Q440 94 440 76T439 42T438 17Q438 5 453 -2T482 -10Q497 -10 497 -1Q497 11 497 34T495 78T494 105V298Q494 328 489 360T469
421T425 466T348 484Q311 484 273 470T202 428T149 359Q149 373 149 392T150 428T150 454Q150 466 135 473T106 481Q91 481 91 472Q91 461 91 439T93 396T94 365V105Q94 98 94 80T93 44T92 17Q92 5 107 -2T136 -10Q151 -10 151 -1Q151 14 150 38T148 91V105Q149
149 150 198T164 288Q179 339 209 370T276 417T348 432Q386 432 405 414T432 365T440 294Z" />
<glyph unicode="&#xf2;" glyph-name="ograve" horiz-adv-x="562" d="M400 589Q400 595 394 601Q367 625 328 654T251 708Q247 710 244 710Q231 710 214 696T197 670Q197 662 205 659Q256 638 298 618T375 577Q381 574 385 574Q400 574 400 589ZM193 442Q188 452
177 452Q167 452 148 431T108 375T73 296T58 207Q58 104 112 44T267 -16Q325 -16 369 6T443 67T488 151T504 245Q504 358 451 421T312 484Q270 484 242 471T193 442ZM267 35Q195 35 154 80T113 208Q113 247 127 287T167 360T228 414T306 434Q375 434 412 382T449
245Q449 187 424 140T358 64T267 35Z" />
<glyph unicode="&#xf3;" glyph-name="oacute" horiz-adv-x="562" d="M385 659Q393 662 393 670Q393 682 376 696T346 710Q343 710 339 708Q301 683 262 654T196 601Q190 595 190 589Q190 574 205 574Q209 574 215 577Q249 597 291 617T385 659ZM193 442Q188 452
177 452Q167 452 148 431T108 375T73 296T58 207Q58 104 112 44T267 -16Q325 -16 369 6T443 67T488 151T504 245Q504 358 451 421T312 484Q270 484 242 471T193 442ZM267 35Q195 35 154 80T113 208Q113 247 127 287T167 360T228 414T306 434Q375 434 412 382T449
245Q449 187 424 140T358 64T267 35Z" />
<glyph unicode="&#xf4;" glyph-name="ocircumflex" horiz-adv-x="562" d="M295 660Q364 615 414 572Q419 567 426 567Q441 567 441 581Q441 588 427 605T394 643T355 683T325 712Q313 724 294 724Q276 724 265 714Q256 705 237 686T198 645T163 605T148 581Q148
567 163 567Q170 567 175 572Q200 593 230 615T295 660ZM193 442Q188 452 177 452Q167 452 148 431T108 375T73 296T58 207Q58 104 112 44T267 -16Q325 -16 369 6T443 67T488 151T504 245Q504 358 451 421T312 484Q270 484 242 471T193 442ZM267 35Q195 35 154
80T113 208Q113 247 127 287T167 360T228 414T306 434Q375 434 412 382T449 245Q449 187 424 140T358 64T267 35Z" />
<glyph unicode="&#xf5;" glyph-name="otilde" horiz-adv-x="562" d="M445 677Q445 679 445 680T446 682Q446 689 442 693T432 697Q425 697 420 688Q408 663 393 653T355 643Q338 643 323 655T288 681T238 694Q200 694 176 668T144 611Q144 610 144 609T143 606Q143
599 147 595T157 591Q165 591 169 600Q181 625 196 635T234 645Q251 645 266 632T301 607T351 594Q389 594 413 620T445 677ZM193 442Q188 452 177 452Q167 452 148 431T108 375T73 296T58 207Q58 104 112 44T267 -16Q325 -16 369 6T443 67T488 151T504 245Q504
358 451 421T312 484Q270 484 242 471T193 442ZM267 35Q195 35 154 80T113 208Q113 247 127 287T167 360T228 414T306 434Q375 434 412 382T449 245Q449 187 424 140T358 64T267 35Z" />
<glyph unicode="&#xf6;" glyph-name="odieresis" horiz-adv-x="562" d="M380 598Q397 598 407 609T418 638Q418 658 403 675T370 693Q351 693 341 682T331 652Q331 634 346 616T380 598ZM207 598Q224 598 234 609T245 638Q245 658 230 675T197 693Q178 693 168
682T158 652Q158 634 173 616T207 598ZM193 442Q188 452 177 452Q167 452 148 431T108 375T73 296T58 207Q58 104 112 44T267 -16Q325 -16 369 6T443 67T488 151T504 245Q504 358 451 421T312 484Q270 484 242 471T193 442ZM267 35Q195 35 154 80T113 208Q113 247
127 287T167 360T228 414T306 434Q375 434 412 382T449 245Q449 187 424 140T358 64T267 35Z" />
<glyph unicode="&#xf7;" glyph-name="divide" horiz-adv-x="600" d="M306 382Q329 382 342 396T356 434Q356 451 347 468T323 496T293 507Q268 507 255 493T242 452Q242 429 261 406T306 382ZM544 283H543Q501 280 472 280H129Q105 280 84 280T47 282Q32 282 32
261Q32 250 37 240T50 229H52Q64 231 87 231T128 232H471Q487 232 508 231T552 230Q560 230 563 236T566 249Q566 260 560 271T544 283ZM306 4Q329 4 342 18T356 56Q356 73 347 90T323 118T293 129Q268 129 255 115T242 74Q242 51 261 28T306 4Z" />
<glyph unicode="&#xf8;" glyph-name="oslash" horiz-adv-x="562" d="M101 57L73 27Q69 23 69 16Q69 4 79 -8T100 -21Q104 -21 110 -14T136 23Q189 -16 267 -16Q325 -16 369 6T443 67T488 151T504 245Q504 299 491 341T455 415Q476 438 480 444T485 455Q485 468
475 481T456 494Q454 494 452 492T443 481T421 449Q375 484 312 484Q270 484 242 471T193 442Q188 452 177 452Q167 452 148 431T108 375T73 296T58 207Q58 115 101 57ZM387 407L138 102Q113 144 113 208Q113 247 127 287T167 360T228 414T306 434Q356 434 387
407ZM170 65L419 371Q449 322 449 245Q449 187 424 140T358 64T267 35Q208 35 170 65Z" />
<glyph unicode="&#xf9;" glyph-name="ugrave" horiz-adv-x="590" d="M390 589Q390 595 384 601Q357 625 318 654T241 708Q237 710 234 710Q221 710 204 696T187 670Q187 662 195 659Q246 638 288 618T365 577Q371 574 375 574Q390 574 390 589ZM498 457V459Q498
470 483 477T454 484Q438 484 438 475Q438 466 438 444T438 395T437 342T435 301Q431 224 402 164T331 69T242 34Q194 34 171 75T148 175V368Q148 380 148 397T149 431T150 456Q150 468 135 475T106 483Q91 483 91 474Q91 463 91 440T93 395T94 368V171Q94 123
107 81T152 11T242 -16Q304 -16 355 22T440 132Q440 118 444 94T454 46T470 6T492 -11Q505 -11 515 3T526 27Q526 30 524 34Q505 64 496 116T486 237Q486 323 490 381T498 457Z" />
<glyph unicode="&#xfa;" glyph-name="uacute" horiz-adv-x="590" d="M379 659Q387 662 387 670Q387 682 370 696T340 710Q337 710 333 708Q295 683 256 654T190 601Q184 595 184 589Q184 574 199 574Q203 574 209 577Q243 597 285 617T379 659ZM498 457V459Q498
470 483 477T454 484Q438 484 438 475Q438 466 438 444T438 395T437 342T435 301Q431 224 402 164T331 69T242 34Q194 34 171 75T148 175V368Q148 380 148 397T149 431T150 456Q150 468 135 475T106 483Q91 483 91 474Q91 463 91 440T93 395T94 368V171Q94 123
107 81T152 11T242 -16Q304 -16 355 22T440 132Q440 118 444 94T454 46T470 6T492 -11Q505 -11 515 3T526 27Q526 30 524 34Q505 64 496 116T486 237Q486 323 490 381T498 457Z" />
<glyph unicode="&#xfb;" glyph-name="ucircumflex" horiz-adv-x="590" d="M291 660Q360 615 410 572Q415 567 422 567Q437 567 437 581Q437 588 423 605T390 643T351 683T321 712Q309 724 290 724Q272 724 261 714Q252 705 233 686T194 645T159 605T144 581Q144
567 159 567Q166 567 171 572Q196 593 226 615T291 660ZM498 457V459Q498 470 483 477T454 484Q438 484 438 475Q438 466 438 444T438 395T437 342T435 301Q431 224 402 164T331 69T242 34Q194 34 171 75T148 175V368Q148 380 148 397T149 431T150 456Q150 468
135 475T106 483Q91 483 91 474Q91 463 91 440T93 395T94 368V171Q94 123 107 81T152 11T242 -16Q304 -16 355 22T440 132Q440 118 444 94T454 46T470 6T492 -11Q505 -11 515 3T526 27Q526 30 524 34Q505 64 496 116T486 237Q486 323 490 381T498 457Z" />
<glyph unicode="&#xfc;" glyph-name="udieresis" horiz-adv-x="590" d="M378 598Q395 598 405 609T416 638Q416 658 401 675T368 693Q349 693 339 682T329 652Q329 634 344 616T378 598ZM205 598Q222 598 232 609T243 638Q243 658 228 675T195 693Q176 693 166
682T156 652Q156 634 171 616T205 598ZM498 457V459Q498 470 483 477T454 484Q438 484 438 475Q438 466 438 444T438 395T437 342T435 301Q431 224 402 164T331 69T242 34Q194 34 171 75T148 175V368Q148 380 148 397T149 431T150 456Q150 468 135 475T106 483Q91
483 91 474Q91 463 91 440T93 395T94 368V171Q94 123 107 81T152 11T242 -16Q304 -16 355 22T440 132Q440 118 444 94T454 46T470 6T492 -11Q505 -11 515 3T526 27Q526 30 524 34Q505 64 496 116T486 237Q486 323 490 381T498 457Z" />
<glyph unicode="&#xfd;" glyph-name="yacute" horiz-adv-x="500" d="M341 659Q349 662 349 670Q349 682 332 696T302 710Q299 710 295 708Q257 683 218 654T152 601Q146 595 146 589Q146 574 161 574Q165 574 171 577Q205 597 247 617T341 659ZM106 -162H116Q154
-162 179 -142T224 -81L435 362Q444 380 455 400T474 436Q477 442 477 448Q477 463 463 473T436 484Q425 484 422 475Q406 426 385 382L253 107L128 392Q120 411 113 429T98 466Q96 473 85 476T62 480Q50 480 41 477T31 465Q31 463 33 459Q42 443 54 418T74 378L224
43L180 -50Q165 -81 147 -95T113 -109Q100 -109 84 -106T54 -88Q48 -81 41 -81Q30 -81 21 -95T12 -123Q12 -132 17 -135Q40 -154 63 -158T106 -162Z" />
<glyph unicode="&#xfe;" glyph-name="thorn" horiz-adv-x="572" d="M94 593V-55Q94 -81 93 -106T92 -144Q92 -156 107 -163T136 -171Q151 -171 151 -162Q151 -145 150 -116T148 -56V54Q168 20 206 3T283 -15Q334 -15 376 9T449 74T497 168T514 278Q514 376 470
430T345 484Q306 484 267 469T197 425T149 360V593Q149 605 149 623T150 657T151 682Q151 693 136 700T106 708Q91 708 91 700Q91 689 91 667T93 624T94 593ZM148 100Q148 151 148 195T152 252Q163 305 192 346T262 410T345 434Q396 434 427 394T458 273Q458 212
435 157T371 68T276 33Q249 33 223 46T177 87Q172 95 166 98T155 102Q152 102 148 100Z" />
<glyph unicode="&#xff;" glyph-name="ydieresis" horiz-adv-x="500" d="M339 598Q356 598 366 609T377 638Q377 658 362 675T329 693Q310 693 300 682T290 652Q290 634 305 616T339 598ZM166 598Q183 598 193 609T204 638Q204 658 189 675T156 693Q137 693 127
682T117 652Q117 634 132 616T166 598ZM106 -162H116Q154 -162 179 -142T224 -81L435 362Q444 380 455 400T474 436Q477 442 477 448Q477 463 463 473T436 484Q425 484 422 475Q406 426 385 382L253 107L128 392Q120 411 113 429T98 466Q96 473 85 476T62 480Q50
480 41 477T31 465Q31 463 33 459Q42 443 54 418T74 378L224 43L180 -50Q165 -81 147 -95T113 -109Q100 -109 84 -106T54 -88Q48 -81 41 -81Q30 -81 21 -95T12 -123Q12 -132 17 -135Q40 -154 63 -158T106 -162Z" />
<glyph unicode="&#x2013;" glyph-name="endash" horiz-adv-x="500" d="M0 234H500Q508 234 511 242T515 260Q515 269 512 277T500 285H0Q-7 285 -11 277T-15 260Q-15 250 -11 242T0 234Z" />
<glyph unicode="&#x2014;" glyph-name="emdash" horiz-adv-x="1000" d="M0 231H1000Q1007 231 1010 238T1014 254Q1014 263 1011 270T1000 277H0Q-7 277 -10 270T-14 254Q-14 246 -11 239T0 231Z" />
<glyph unicode="&#x2018;" glyph-name="quoteleft" horiz-adv-x="350" d="M179 715Q183 734 200 755T237 789Q242 792 242 799Q242 804 239 808T229 812Q219 812 202 801T168 772T138 731T125 685Q125 683 125 681T126 676Q129 653 142 636T175 618Q216 618 216
662Q216 677 208 689T192 708Q190 710 185 712T179 715Z" />
<glyph unicode="&#x2019;" glyph-name="quoteright" horiz-adv-x="350" d="M173 715Q169 696 152 676T115 641Q110 639 110 631Q110 627 113 623T123 618Q133 618 150 629T184 658T214 699T227 745Q227 747 227 749T226 754Q223 777 210 794T177 812Q136 812 136
768Q136 753 144 741T160 722Q162 720 167 718T173 715Z" />
<glyph unicode="&#x201a;" glyph-name="quotesinglbase" horiz-adv-x="350" d="M173 -2Q169 -21 152 -41T115 -76Q110 -78 110 -86Q110 -90 113 -94T123 -99Q133 -99 150 -88T184 -59T214 -18T227 28Q227 30 227 32T226 37Q223 60 210 77T177 95Q136 95 136 51Q136
36 144 24T160 5Q162 3 167 1T173 -2Z" />
<glyph unicode="&#x201c;" glyph-name="quotedblleft" horiz-adv-x="350" d="M245 715Q249 734 266 755T303 789Q308 792 308 799Q308 804 305 808T295 812Q285 812 268 801T234 772T204 731T191 685Q191 683 191 681T192 676Q195 653 208 636T241 618Q282 618
282 662Q282 677 274 689T258 708Q256 710 251 712T245 715ZM115 715Q119 734 136 755T173 789Q178 792 178 799Q178 804 175 808T165 812Q155 812 138 801T104 772T74 731T61 685Q61 683 61 681T62 676Q65 653 78 636T111 618Q152 618 152 662Q152 677 144 689T128
708Q126 710 121 712T115 715Z" />
<glyph unicode="&#x201d;" glyph-name="quotedblright" horiz-adv-x="350" d="M236 714Q232 695 215 675T178 640Q173 638 173 630Q173 626 176 622T186 617Q196 617 213 628T247 657T277 698T290 744Q290 746 290 748T289 753Q286 776 273 793T240 811Q199 811
199 767Q199 752 207 740T223 721Q225 719 230 717T236 714ZM106 714Q102 695 85 675T48 640Q43 638 43 630Q43 626 46 622T56 617Q66 617 83 628T117 657T147 698T160 744Q160 746 160 748T159 753Q156 776 143 793T110 811Q69 811 69 767Q69 752 77 740T93 721Q95
719 100 717T106 714Z" />
<glyph unicode="&#x201e;" glyph-name="quotedblbase" horiz-adv-x="350" d="M236 -2Q232 -21 215 -41T178 -76Q173 -78 173 -86Q173 -90 176 -94T186 -99Q196 -99 213 -88T247 -59T277 -18T290 28Q290 30 290 32T289 37Q286 60 273 77T240 95Q199 95 199 51Q199
36 207 24T223 5Q225 3 230 1T236 -2ZM106 -2Q102 -21 85 -41T48 -76Q43 -78 43 -86Q43 -90 46 -94T56 -99Q66 -99 83 -88T117 -59T147 -18T160 28Q160 30 160 32T159 37Q156 60 143 77T110 95Q69 95 69 51Q69 36 77 24T93 5Q95 3 100 1T106 -2Z" />
<glyph unicode="&#x2022;" glyph-name="bullet" horiz-adv-x="392" d="M298 306Q298 348 268 378T196 408Q154 408 124 378T94 306Q94 264 124 234T196 204Q238 204 268 234T298 306Z" />
<glyph unicode="&#x2039;" glyph-name="guilsinglleft" horiz-adv-x="530" d="M425 50L372 86Q339 110 298 136T215 189T138 236Q172 256 214 283T298 339T374 392Q387 401 400 410T430 429Q440 435 440 452Q440 466 435 478T421 490Q418 490 413 487Q393 469
360 443T272 379T130 287Q118 280 102 276T82 264Q80 261 80 250Q80 237 85 221T98 199Q104 195 114 194T130 188Q181 157 234 121T335 51T413 -11Q416 -14 420 -14Q427 -14 430 -3T434 21Q434 31 432 38T425 50Z" />
<glyph unicode="&#x203a;" glyph-name="guilsinglright" horiz-adv-x="530" d="M160 86L107 50Q102 46 100 39T98 21Q98 8 101 -3T112 -14Q116 -14 119 -11Q151 16 197 50T297 121T402 188Q408 192 418 193T434 199Q442 205 447 221T452 250Q452 261 450 264Q446
272 430 276T402 287Q315 341 260 379T172 443T119 487Q115 490 111 490Q104 490 98 478T92 452Q92 435 102 429Q118 419 131 410T158 392Q192 368 234 339T318 283T394 236Q359 216 318 190T235 137T160 86Z" />
</font>
</defs>
</svg>
