<?xml version="1.0" standalone="no"?>
<!DOCTYPE svg PUBLIC "-//W3C//DTD SVG 1.1//EN" "http://www.w3.org/Graphics/SVG/1.1/DTD/svg11.dtd">
<svg xmlns="http://www.w3.org/2000/svg">
<defs >
<font id="MavenPro" horiz-adv-x="512" ><font-face
    font-family="Maven Pro"
    units-per-em="1000"
    panose-1="0 0 0 0 0 0 0 0 0 0"
    ascent="965"
    descent="-210"
    alphabetic="0" />
<glyph unicode=" " horiz-adv-x="290" />
<glyph unicode="!" horiz-adv-x="372" d="M159 168L152 667H224L217 168H159ZM148 0V80H228V0H148Z" />
<glyph unicode="&quot;" horiz-adv-x="381" d="M232 475L215 676H298L280 475H232ZM99 475L81 676H164L147 475H99Z" />
<glyph unicode="#" horiz-adv-x="591" d="M134 19L153 126H71V186H163L190 345H99V405H201L221 523H282L262 405H394L415 523H476L455 405H527V345H445L417 186H498V126H407L389 19H328L346 126H214L195 19H134ZM224 186H356L384 345H251L224 186Z" />
<glyph unicode="$" horiz-adv-x="555" d="M251 643V753H323V643H251ZM251 -93V27H323V-93H251ZM274 -10Q224 -10 189 -3T126 17T65 47V125Q97 98 151 77T277 56Q353 56 387 88T422 171Q422 213 399 238T340 280T264 312Q230 324 197 337T136 371T93 424T77 506Q77
533 87 563T121 619T184 661T281 677Q320 677 347 672T400 656T456 630V556Q430 571 407 583T355 603T285 611Q236 611 207 597T164 560T150 511Q150 470 168 446T220 407T298 376Q333 364 368 350T431 314T477 260T495 179Q495 134 475 91T407 19T274 -10Z" />
<glyph unicode="%" horiz-adv-x="761" d="M190 309Q120 309 84 355T48 493Q48 585 84 631T190 677Q260 677 295 631T331 493Q331 402 296 356T190 309ZM190 359Q203 359 221 368T255 406T270 493Q270 552 255 580T222 618T190 627Q177 627 158 618T124 581T109
493Q109 435 124 406T158 368T190 359ZM572 -5Q502 -5 466 41T430 179Q430 271 466 317T572 363Q642 363 677 317T713 179Q713 88 678 42T572 -5ZM572 45Q585 45 603 54T637 92T652 179Q652 238 637 266T604 304T572 313Q559 313 540 304T506 267T491 179Q491 121
506 92T540 54T572 45ZM139 -22L546 685H614L207 -22H139Z" />
<glyph unicode="&amp;" horiz-adv-x="640" d="M512 0L189 385Q167 412 145 450T123 523Q123 565 143 599T198 653T274 674Q317 674 351 655T405 602T426 527Q426 490 410 462T364 411T292 363L256 407Q302 432 324 452T352 490T359 526Q359 559 335 580T276 602Q242
602 218 579T193 522Q193 509 205 488T233 445T265 406L606 0H512ZM263 -8Q206 -8 166 11T102 60T66 123T54 184Q54 216 66 252T111 324T203 393L250 344Q196 315 169 285T134 230T125 186Q125 173 131 153T152 111T195 76T266 62Q313 62 353 85T418 136L463 85Q440
61 409 40T341 6T263 -8ZM448 182Q459 202 467 222T480 261T489 290H554Q548 257 533 215T493 131L448 182Z" />
<glyph unicode="&apos;" horiz-adv-x="249" d="M99 475L81 676H164L147 475H99Z" />
<glyph unicode="(" horiz-adv-x="345" d="M204 -113Q185 -78 159 -17T113 127T93 305Q93 402 112 484T158 627T204 724H280Q271 709 253 672T214 579T179 455T165 305Q165 226 179 157T213 32T252 -61T280 -113H204Z" />
<glyph unicode=")" horiz-adv-x="345" d="M65 -113Q74 -98 93 -61T132 32T166 157T181 306Q181 385 167 454T132 579T93 672T65 724H142Q162 689 188 628T233 484T253 306Q253 210 234 128T188 -16T142 -113H65Z" />
<glyph unicode="*" horiz-adv-x="411" d="M177 460L187 550L111 495L84 543L171 581L84 620L111 666L187 612L177 703H231L223 612L298 666L325 620L239 581L325 543L298 495L223 550L231 460H177Z" />
<glyph unicode="+" horiz-adv-x="551" d="M245 122V269H97V329H245V477H305V329H452V269H305V122H245Z" />
<glyph unicode="," horiz-adv-x="313" d="M74 -112L148 84H230L146 -112H74Z" />
<glyph unicode="-" horiz-adv-x="464" d="M79 263V333H384V263H79Z" />
<glyph unicode="." horiz-adv-x="260" d="M80 0V100H180V0H80Z" />
<glyph unicode="/" horiz-adv-x="404" d="M-14 -98L353 756H419L51 -98H-14Z" />
<glyph unicode="0" horiz-adv-x="646" d="M323 -11Q193 -11 127 75T60 331Q60 501 126 587T323 673Q454 673 520 587T586 331Q586 161 520 75T323 -11ZM323 55Q356 55 390 64T452 101T497 184T514 331Q514 423 497 478T452 560T390 597T323 607Q290 607 256 598T194
561T149 478T132 331Q132 239 149 184T194 101T256 64T323 55Z" />
<glyph unicode="1" horiz-adv-x="451" d="M236 0V592L103 504V589L226 667H308V0H236Z" />
<glyph unicode="2" horiz-adv-x="581" d="M77 0V63Q111 88 155 125T245 206T329 299T392 396T416 488Q416 515 404 541T358 586T259 604Q199 604 155 584T84 546V625Q116 645 161 660T265 676Q347 676 396 648T466 577T488 488Q488 443 466 394T407 296T326 201T238
116T158 47L137 72H498V0H77Z" />
<glyph unicode="3" horiz-adv-x="583" d="M259 -8Q204 -8 160 4T81 34V108Q112 91 154 78T250 64Q339 64 386 97T433 192Q433 254 385 287T246 320H173V389H249Q322 389 360 416T399 496Q399 531 381 555T328 591T241 604Q196 604 160 594T97 569V642Q127 656
165 666T249 676Q311 676 353 661T422 619T459 561T471 496Q471 459 458 433T428 391T398 368T385 361Q385 361 403 352T445 322T487 269T505 190Q505 154 492 119T450 55T374 9T259 -8Z" />
<glyph unicode="4" horiz-adv-x="591" d="M362 0V200H38V277L353 667H434V267H529V200H434V0H362ZM118 267H362V564L118 267Z" />
<glyph unicode="5" horiz-adv-x="566" d="M294 -8Q227 -8 181 4T103 33V108Q117 100 141 89T203 70T289 62Q340 62 369 75T413 110T431 156T435 204Q435 267 414 296T359 335T289 344Q236 344 201 337T149 321T132 313L87 359L121 667H464V596H183L164 381L93
369Q131 392 185 404T294 416Q330 416 367 407T436 376T487 312T506 204Q506 138 487 97T437 33T368 1T294 -8Z" />
<glyph unicode="6" horiz-adv-x="583" d="M292 -8Q179 -8 122 70T65 305Q65 405 87 472T146 580T223 641T303 669T369 676Q397 676 421 673T466 663V596Q447 601 425 604T377 608Q360 608 331 602T268 580T205 533T156 453T137 329Q137 243 148 190T181 108T231
70T292 60Q346 60 377 79T423 125T442 178T447 218Q447 286 407 323T292 360Q247 360 213 347T156 317T124 292L125 372Q134 378 150 387T189 406T237 421T292 427Q397 427 458 371T519 217Q519 178 507 139T468 66T398 12T292 -8Z" />
<glyph unicode="7" horiz-adv-x="574" d="M156 0L455 618L462 595H70V667H525V600L236 0H156Z" />
<glyph unicode="8" horiz-adv-x="582" d="M292 -8Q228 -8 184 10T113 59T74 126T61 198Q61 244 78 275T118 325T158 352T176 360Q176 360 163 367T131 392T100 436T86 503Q86 545 106 585T171 650T292 676Q368 676 413 651T478 585T498 503Q498 463 485 436T455
392T424 368T411 361Q411 361 428 353T467 325T506 275T523 198Q523 162 511 126T472 60T401 11T292 -8ZM292 60Q348 60 380 76T427 117T446 163T451 198Q451 238 433 265T379 307T292 322Q241 322 206 308T152 266T133 198Q133 186 137 164T157 117T205 77T292
60ZM292 388Q334 388 364 402T410 441T426 503Q426 546 405 567T354 597T292 605Q262 605 231 597T179 568T158 503Q158 467 174 442T220 402T292 388Z" />
<glyph unicode="9" horiz-adv-x="587" d="M215 -8Q187 -8 163 -5T118 5V72Q137 68 159 64T207 60Q224 60 253 66T316 88T379 135T428 216T447 339Q447 425 436 478T403 560T353 598T292 608Q238 608 207 589T161 543T142 490T137 450Q137 382 177 345T292 308Q337
308 371 321T429 351T460 376L459 296Q450 290 434 281T395 262T347 247T292 241Q187 241 126 297T65 451Q65 490 77 529T116 602T186 656T292 676Q405 676 462 598T519 363Q519 263 497 196T438 88T361 27T281 -1T215 -8Z" />
<glyph unicode=":" horiz-adv-x="391" d="M158 368V448H238V368H158ZM158 48V128H238V48H158Z" />
<glyph unicode=";" horiz-adv-x="285" d="M40 -112L104 84H196L112 -112H40ZM105 348V448H205V348H105Z" />
<glyph unicode="&lt;" horiz-adv-x="660" d="M532 48L120 235V303L532 490V410L204 269L532 127V48Z" />
<glyph unicode="=" horiz-adv-x="638" d="M127 341V410H512V341H127ZM127 186V256H512V186H127Z" />
<glyph unicode="&gt;" horiz-adv-x="649" d="M132 48V127L459 269L132 410V490L543 303V235L132 48Z" />
<glyph unicode="?" horiz-adv-x="485" d="M195 168V217Q195 272 210 306T247 363T292 402T330 439T345 490Q345 527 331 552T287 590T214 603Q165 603 131 587T80 559V637Q80 637 97 646T145 665T219 675Q243 675 276 669T342 643T395 588T417 490Q417 446 402
420T365 374T320 335T282 287T267 212V168H195ZM191 0V80H271V0H191Z" />
<glyph unicode="@" horiz-adv-x="913" d="M409 -149Q369 -149 325 -138T237 -102T160 -40T104 54T83 181Q83 274 121 351T221 484T359 571T511 602Q549 602 594 591T682 556T762 494T819 403T841 278Q841 225 830 180T797 102T746 51T678 32Q653 32 635 38T605
56T585 81Q565 60 531 46T441 32Q371 32 331 62T291 146Q291 166 299 191T329 239T394 276T508 291Q528 291 546 290T582 286Q583 291 583 296T583 307Q583 326 578 344T552 374T486 386Q444 386 414 380T361 365L369 423Q394 431 423 437T486 443Q562 443 601
409T641 307Q641 264 634 223T625 148Q623 124 626 106T643 78T682 67Q708 67 736 89T783 158T803 275Q803 349 777 403T707 493T612 546T511 564Q437 564 368 535T243 454T155 332T122 181Q122 101 146 48T207 -37T286 -86T362 -107T417 -113Q483 -113 534 -101T627
-64L618 -109Q574 -130 522 -139T409 -149ZM441 90Q491 90 517 103T554 136T568 181T574 229Q559 231 543 232T508 233Q349 233 349 146Q349 123 363 111T399 94T441 90Z" />
<glyph unicode="A" horiz-adv-x="643" d="M20 0L286 667H358L623 0H546L315 600L330 602L98 0H20ZM137 208L168 277H495L500 208H137Z" />
<glyph unicode="B" horiz-adv-x="628" d="M85 0V667H306Q393 667 441 643T508 578T528 488Q528 445 515 421T484 382T448 350L440 363Q466 354 496 334T547 278T568 189Q568 122 539 81T456 20T326 0H85ZM157 67H332Q375 67 412 76T473 112T496 193Q496 233 481
256T442 291T388 306T329 310H157V67ZM157 378H322Q355 378 385 384T436 413T456 483Q456 551 418 574T313 598H157V378Z" />
<glyph unicode="C" horiz-adv-x="622" d="M364 -8Q210 -8 133 78T55 334Q55 504 132 590T364 676Q417 676 468 663T567 627V558Q521 583 472 595T372 608Q288 608 235 579T156 490T130 334Q130 239 155 179T234 89T372 60Q423 60 472 72T567 109V40Q535 25 502
14T434 -2T364 -8Z" />
<glyph unicode="D" horiz-adv-x="667" d="M85 0V667H294Q450 667 528 584T607 334Q607 168 529 84T294 0H85ZM157 68H289Q417 68 475 132T533 334Q533 472 475 536T289 600H157V68Z" />
<glyph unicode="E" horiz-adv-x="581" d="M85 0V667H506V599H157V369H464V299H157V68H506V0H85Z" />
<glyph unicode="F" horiz-adv-x="539" d="M85 0V667H494V599H157V369H453V299H157V0H85Z" />
<glyph unicode="G" horiz-adv-x="687" d="M369 -10Q267 -10 198 28T95 143T60 334Q60 448 94 524T198 638T369 676Q424 676 477 665T579 631V556Q532 577 481 592T377 608Q293 608 239 579T158 489T132 334Q132 240 158 179T238 89T377 59Q417 59 455 65T530 83V273H369V343H602V42Q547
16 489 3T369 -10Z" />
<glyph unicode="H" horiz-adv-x="669" d="M85 0V667H157V367H512V667H584V0H512V299H157V0H85Z" />
<glyph unicode="I" horiz-adv-x="242" d="M85 0V667H157V0H85Z" />
<glyph unicode="J" horiz-adv-x="453" d="M177 -8Q138 -8 105 1T45 27V102Q70 85 100 74T168 62Q236 62 266 95T296 205V667H368V199Q368 135 351 95T305 32T244 1T177 -8Z" />
<glyph unicode="K" horiz-adv-x="613" d="M149 213V307L473 667H565L149 213ZM85 0V667H157V0H85ZM261 376L588 0H488L207 327L261 376Z" />
<glyph unicode="L" horiz-adv-x="523" d="M85 0V667H157V70H498V0H85Z" />
<glyph unicode="M" horiz-adv-x="785" d="M85 0V667H163L410 288L361 277L622 667H700V0H628V595H660L385 209L131 587L157 624V0H85Z" />
<glyph unicode="N" horiz-adv-x="722" d="M85 0V667H167L583 80L565 52V667H637V0H556L124 609L157 640V0H85Z" />
<glyph unicode="O" horiz-adv-x="719" d="M359 -10Q260 -10 194 28T94 143T60 333Q60 503 135 589T359 676Q459 676 525 638T625 523T659 333Q659 163 584 77T359 -10ZM359 58Q438 58 488 87T561 177T585 333Q585 428 562 488T488 578T359 608Q281 608 231 579T158
489T134 333Q134 238 157 177T231 87T359 58Z" />
<glyph unicode="P" horiz-adv-x="613" d="M157 255V0H85V667H322Q434 667 493 614T553 461Q553 361 494 308T322 255H157ZM157 324H313Q369 324 402 336T453 368T475 413T481 461Q481 485 476 509T453 553T403 586T313 598H157V324Z" />
<glyph unicode="Q" horiz-adv-x="719" d="M359 -10Q211 -10 136 76T60 333Q60 503 135 589T359 676Q508 676 583 590T659 333Q659 163 584 77T359 -10ZM359 58Q439 61 489 90T562 178T585 333Q585 428 562 488T488 578T359 608Q281 608 231 579T158 489T134 333Q134
238 157 177T231 87T359 58ZM599 -28Q612 -28 624 -25T658 -8V-72Q636 -84 618 -87T591 -90Q568 -90 548 -83T511 -61T478 -28T451 16Q436 46 420 74T380 120T320 138Q282 138 256 121T208 81V153Q225 166 254 182T328 199Q375 199 410 177T470 121T514 52Q537
8 557 -10T599 -28Z" />
<glyph unicode="R" horiz-adv-x="631" d="M85 0V667H359Q457 667 506 618T556 473Q556 415 532 370T465 299T364 273L394 293L586 0H501L303 306L339 269H157V0H85ZM157 337H326Q409 337 446 370T484 468Q484 528 456 563T351 599H157V337Z" />
<glyph unicode="S" horiz-adv-x="555" d="M274 -10Q224 -10 189 -3T126 17T65 47V125Q97 98 151 77T277 56Q353 56 387 88T422 171Q422 213 399 238T340 280T264 312Q230 324 197 337T136 371T93 424T77 506Q77 533 87 563T121 619T184 661T281 677Q320 677 347
672T400 656T456 630V556Q430 571 407 583T355 603T285 611Q236 611 207 597T164 560T150 511Q150 470 168 446T220 407T298 376Q333 364 368 350T431 314T477 260T495 179Q495 134 475 91T407 19T274 -10Z" />
<glyph unicode="T" horiz-adv-x="583" d="M256 0V599H20V667H563V599H328V0H256Z" />
<glyph unicode="U" horiz-adv-x="692" d="M346 -10Q222 -10 154 63T85 272V667H157V268Q157 161 205 110T346 58Q439 58 488 109T537 268V667H607V272Q607 181 576 118T487 23T346 -10Z" />
<glyph unicode="V" horiz-adv-x="623" d="M276 0L20 667H97L328 61H302L529 665L603 667L347 0H276Z" />
<glyph unicode="W" horiz-adv-x="976" d="M239 0L25 667H101L292 62H270L452 667H524L712 53H684L875 667H951L736 0H663L476 591H500L313 0H239Z" />
<glyph unicode="X" horiz-adv-x="589" d="M573 0H487L18 667H104L573 0ZM285 388L481 667H569L331 328L285 388ZM314 305L100 0H12L255 347L314 305Z" />
<glyph unicode="Y" horiz-adv-x="598" d="M261 0V306L12 667H99L310 355L287 361L494 667H581L321 289L333 335V0H261Z" />
<glyph unicode="Z" horiz-adv-x="609" d="M64 0V63L478 632L492 599H74V667H539V606L134 41L125 68H539V0H64Z" />
<glyph unicode="[" horiz-adv-x="383" d="M119 -116V696H300V628H191V-48H300V-116H119Z" />
<glyph unicode="\" horiz-adv-x="368" d="M331 -98L-37 756H29L396 -98H331Z" />
<glyph unicode="]" horiz-adv-x="381" d="M84 -116V-48H192V628H84V696H264V-116H84Z" />
<glyph unicode="^" horiz-adv-x="560" d="M134 473L238 690H293L397 473H337L266 632L194 473H134Z" />
<glyph unicode="_" horiz-adv-x="546" d="M0 -68V-24H546V-68H0Z" />
<glyph unicode="`" horiz-adv-x="219" d="M129 564L46 679H119L176 564H129Z" />
<glyph unicode="a" horiz-adv-x="554" d="M252 -15Q219 -15 186 -8T124 16T78 62T60 137Q60 199 83 236T148 290T244 307Q285 307 315 302T368 288T411 266L425 200Q402 217 359 229T263 242Q200 242 166 218T132 148Q132 111 152 89T204 58T269 49Q334 49 367
58T401 102V331Q401 389 367 416T270 443Q230 443 186 432T109 395V467Q140 487 192 497T293 508Q326 508 354 502T404 483T441 451T465 406T474 348V106Q474 53 443 27T361 -7T252 -15Z" />
<glyph unicode="b" horiz-adv-x="569" d="M277 -15Q238 -15 203 -11T140 5T96 36T80 85V710H152V442L127 467Q147 477 175 486T234 501T286 507Q402 507 458 440T514 256Q514 170 491 117T433 35T356 -4T277 -15ZM270 51Q341 51 377 80T425 155T438 256Q438 311
423 352T374 417T286 441Q255 441 219 433T152 406V102Q152 80 171 69T218 55T270 51Z" />
<glyph unicode="c" horiz-adv-x="492" d="M289 -8Q249 -8 208 2T132 40T76 119T55 250Q55 330 76 380T131 459T207 497T289 508Q327 508 364 501T437 480V411Q404 425 369 432T297 439Q208 439 168 394T127 250Q127 150 167 106T297 61Q334 61 369 68T437 89V19Q402
6 365 -1T289 -8Z" />
<glyph unicode="d" horiz-adv-x="569" d="M287 -15Q251 -15 211 -5T136 34T78 116T55 256Q55 372 111 439T283 507Q305 507 335 501T394 486T442 467L417 442V710H489V86Q489 58 470 39T419 8T353 -9T287 -15ZM288 51Q340 51 378 63T417 93V406Q386 424 351 432T283
441Q229 441 196 418T147 353T131 256Q131 202 143 156T189 80T288 51Z" />
<glyph unicode="e" horiz-adv-x="547" d="M286 -15Q215 -15 163 14T83 103T55 250Q55 379 113 443T274 508Q354 508 402 472T472 375T492 237H91L96 303H445L417 293Q414 368 380 405T274 442Q225 442 193 424T144 362T128 237Q128 146 170 99T290 51Q327 51 358
56T415 72T461 94V20Q425 3 382 -6T286 -15Z" />
<glyph unicode="f" horiz-adv-x="375" d="M126 0V433H40V499H126V526Q126 581 138 615T171 669T213 697T255 707T287 709Q301 709 313 708T335 703V639Q328 641 319 642T299 643Q282 643 264 641T231 629T207 595T198 527V499H335V433H198V0H126Z" />
<glyph unicode="g" horiz-adv-x="569" d="M283 -15Q206 -15 156 15T80 102T55 236Q55 322 78 375T137 457T217 496T302 507Q349 507 391 495T461 455T489 383V-21Q489 -51 480 -82T448 -139T382 -182T272 -198Q229 -198 193 -190T130 -175V-107Q146 -111 166 -116T211
-126T264 -130Q332 -130 364 -114T407 -73T417 -23V50L442 25Q423 15 394 6T335 -9T283 -15ZM283 51Q315 51 350 59T417 86V373Q417 401 402 415T360 435T304 441Q231 441 194 413T144 337T131 236Q131 154 166 103T283 51Z" />
<glyph unicode="h" horiz-adv-x="575" d="M80 0V720H152V443L144 462Q182 483 224 495T303 508Q365 508 407 485T472 416T495 296V0H423V296Q423 366 391 404T295 442Q260 442 225 432T152 402V0H80Z" />
<glyph unicode="i" horiz-adv-x="240" d="M84 0V499H156V0H84ZM80 588V667H160V588H80Z" />
<glyph unicode="j" horiz-adv-x="268" d="M10 -193V-126Q54 -125 75 -114T104 -80T112 -25V499H184V-29Q184 -84 165 -120T108 -175T10 -193ZM108 588V667H188V588H108Z" />
<glyph unicode="k" horiz-adv-x="511" d="M136 299L355 499H445L152 240L136 299ZM152 0H80V689H152V0ZM172 311L481 0H385L123 265L172 311Z" />
<glyph unicode="l" horiz-adv-x="232" d="M152 0H80V689H152V0Z" />
<glyph unicode="m" horiz-adv-x="883" d="M489 325V0H417V325Q417 343 413 363T395 401T355 431T283 443Q252 443 219 438T152 423V0H80V459Q104 471 129 480T181 496T235 505T291 508Q364 508 407 487T469 424T489 325ZM394 439Q427 464 461 479T531 501T605
508Q678 508 721 487T783 424T803 325V0H731V325Q731 343 727 363T709 401T669 431T597 443Q566 443 533 434T466 403L394 439Z" />
<glyph unicode="n" horiz-adv-x="569" d="M80 459Q104 471 129 480T181 496T235 505T291 508Q364 508 407 487T469 424T489 325V0H417V325Q417 343 413 363T395 401T355 431T283 443Q252 443 219 438T152 423V0H80V459Z" />
<glyph unicode="o" horiz-adv-x="569" d="M285 -15Q168 -15 112 54T55 248Q55 378 114 443T283 508Q364 508 415 476T490 385T514 248Q514 125 455 55T285 -15ZM284 51Q345 51 379 77T427 148T442 248Q442 307 427 350T378 418T284 442Q224 442 190 416T142 347T127
248Q127 160 162 106T284 51Z" />
<glyph unicode="p" horiz-adv-x="569" d="M276 -14Q254 -14 227 -8T173 7T127 26L152 51V-217H80V409Q80 440 99 459T150 488T216 503T282 508Q342 508 395 483T481 399T514 237Q514 160 487 104T406 17T276 -14ZM276 52Q331 52 366 75T420 141T438 237Q438 291
426 338T380 413T281 442Q229 442 191 430T152 396V87Q183 69 214 61T276 52Z" />
<glyph unicode="q" horiz-adv-x="569" d="M309 508Q355 508 396 498T463 462T489 389V-217H417V51L442 26Q423 16 397 7T343 -8T293 -14Q178 -14 117 54T55 237Q55 323 78 376T138 458T220 497T309 508ZM302 442Q230 442 193 414T144 338T131 237Q131 183 149
141T203 76T293 52Q325 52 355 60T417 87V389Q417 408 399 419T354 436T302 442Z" />
<glyph unicode="r" horiz-adv-x="377" d="M80 0V459Q92 464 126 476T209 498T310 508Q318 508 326 506T342 502V438Q316 441 292 441T244 439T198 432T152 424V0H80Z" />
<glyph unicode="s" horiz-adv-x="456" d="M221 -15Q167 -15 131 -4T55 27V103Q86 86 110 74T159 57T216 51Q266 51 297 73T329 130Q329 158 314 173T274 198T224 219Q195 227 166 236T112 261T72 301T57 365Q57 403 72 430T113 474T169 500T231 508Q276 508 308
496T374 469V397Q336 417 306 429T235 442Q194 442 162 426T129 375Q129 347 145 331T189 305T247 286Q272 278 299 269T349 244T386 203T401 139Q401 86 374 52T306 1T221 -15Z" />
<glyph unicode="t" horiz-adv-x="363" d="M237 -8Q184 -8 148 24T112 121V433H25V499H112V640H184V499H313V433H184V144Q184 102 197 81T250 60Q268 60 285 63T313 72V4Q299 -1 278 -4T237 -8Z" />
<glyph unicode="u" horiz-adv-x="578" d="M289 -15Q223 -15 176 8T105 75T80 183V499H152V199Q152 123 185 88T289 52Q359 52 392 87T426 199V499H498V183Q498 88 444 37T289 -15Z" />
<glyph unicode="v" horiz-adv-x="566" d="M246 0L35 499H112L296 62L280 58L459 499H531L319 0H246Z" />
<glyph unicode="w" horiz-adv-x="796" d="M201 0L35 499H111L250 54L231 46L363 499H432L565 58H551L690 499H761L595 0H522L389 442L402 430L274 0H201Z" />
<glyph unicode="x" horiz-adv-x="532" d="M280 218L116 0H35L237 272L280 218ZM497 0H405L40 499H131L497 0ZM247 279L412 499H495L287 218L247 279Z" />
<glyph unicode="y" horiz-adv-x="540" d="M134 -193Q119 -193 107 -190T87 -184V-118Q94 -121 105 -124T130 -127Q164 -127 185 -108T220 -57T247 14V-15L35 499H117L283 73H268L433 499H505L291 -49Q268 -108 241 -139T186 -181T134 -193Z" />
<glyph unicode="z" horiz-adv-x="455" d="M45 0V65L341 459L356 437H52V499H410V436L114 45V64H410V0H45Z" />
<glyph unicode="{" horiz-adv-x="373" d="M304 -110Q256 -110 223 -93T172 -42T154 40V196Q154 219 144 233T120 256T91 269V318Q105 322 119 330T144 352T154 390V546Q154 595 171 628T222 679T304 697H312V629H304Q280 628 263 622T236 599T226 551V390Q226
359 210 335T168 293Q194 276 210 252T226 196V35Q226 4 235 -12T262 -35T304 -43H312V-110H304Z" />
<glyph unicode="|" horiz-adv-x="443" d="M185 -99V665H257V-99H185Z" />
<glyph unicode="}" horiz-adv-x="368" d="M70 -110V-43H76Q101 -42 118 -36T145 -13T154 35V196Q154 228 171 252T213 293Q188 310 171 334T154 390V551Q154 582 145 598T119 621T76 629H70V697H76Q125 697 158 680T208 629T226 546V390Q226 367 236 353T261 330T289
318V269Q276 265 261 257T236 234T226 196V40Q226 -8 209 -41T158 -92T76 -110H70Z" />
<glyph unicode="~" horiz-adv-x="500" d="M98 231V292Q123 324 148 329T199 326T250 302T300 279T351 274T402 312V252Q377 220 352 215T301 218T250 241T200 265T149 269T98 231Z" />
<glyph unicode="&#xa0;" horiz-adv-x="290" />
<glyph unicode="&#xa1;" horiz-adv-x="362" d="M152 -168L159 331H217L224 -168H152ZM148 420V499H228V420H148Z" />
<glyph unicode="&#xa2;" horiz-adv-x="492" d="M245 527V628H317V527H245ZM245 0V81H317V0H245ZM289 53Q249 53 208 63T132 101T76 180T55 311Q55 391 76 441T131 520T207 558T289 569Q327 569 364 562T437 541V472Q404 486 369 493T297 500Q208 500 168 455T127
311Q127 211 167 167T297 122Q334 122 369 129T437 150V80Q402 67 365 60T289 53Z" />
<glyph unicode="&#xa3;" horiz-adv-x="555" d="M137 490Q137 535 157 577T224 648T349 676Q395 676 433 665T500 637V564Q475 580 439 593T355 607Q295 607 264 590T221 546T209 493V78Q258 72 306 61T403 47T500 62V-11Q463 -25 426 -26T351 -21T276 -7T201 6T126
7T51 -15V58Q73 69 94 74T137 80V490ZM51 281V347H410V281H51Z" />
<glyph unicode="&#xa4;" horiz-adv-x="494" d="M249 156Q199 156 157 180T91 247T66 339Q66 390 90 431T157 497T249 522Q300 522 341 498T407 432T432 339Q432 289 408 247T342 181T249 156ZM249 220Q296 220 327 253T359 339Q359 392 328 425T249 458Q202 458
170 425T138 339Q138 286 170 253T249 220ZM123 260L169 214L95 141L50 186L123 260ZM399 535L444 490L371 416L325 462L399 535ZM169 462L123 416L50 490L95 535L169 462ZM444 186L399 141L325 214L371 260L444 186Z" />
<glyph unicode="&#xa5;" horiz-adv-x="602" d="M267 0V138H110V198H267V292H110V352H235L18 667H106L303 380L500 667H588L371 352H496V292H339V198H496V138H339V0H267Z" />
<glyph unicode="&#xa6;" horiz-adv-x="443" d="M257 219V-99H185V219H257ZM185 347V665H257V347H185Z" />
<glyph unicode="&#xa7;" horiz-adv-x="543" d="M235 -8Q180 -8 137 2T64 28V102Q88 87 129 74T230 61Q246 61 269 63T315 71T353 91T369 128Q369 145 362 160T327 189T239 217Q190 229 149 244T83 285T58 355Q58 379 66 397T87 429T116 450T149 464Q138 471 129
481T115 504T109 534Q109 560 119 585T153 630T215 663T309 676Q353 676 389 667T454 646V575Q430 588 395 598T315 609Q290 609 259 605T204 586T181 545Q181 535 186 522T217 495T306 466Q351 456 394 439T464 392T492 307Q492 287 485 271T466 242T438 220T406
205Q420 193 430 174T441 128Q441 64 387 28T235 -8ZM363 251Q386 258 403 271T420 307Q420 324 413 339T378 368T290 396Q267 401 246 407T204 420Q176 415 153 401T130 355Q130 346 135 336T166 314T256 287Q284 281 311 273T363 251Z" />
<glyph unicode="&#xa8;" horiz-adv-x="385" d="M227 564V643H306V564H227ZM79 564V643H158V564H79Z" />
<glyph unicode="&#xa9;" horiz-adv-x="778" d="M390 -8Q320 -8 258 18T149 92T75 201T48 333Q48 404 74 466T148 575T258 648T390 675Q461 675 523 649T632 575T705 466T732 333Q732 263 706 201T632 92T523 19T390 -8ZM399 134Q354 134 321 146T265 184T231 246T219
333Q219 383 230 420T264 483T320 520T399 533Q430 533 460 528T518 511V471Q491 482 463 487T404 493Q355 493 323 476T276 424T261 333Q261 278 276 243T323 190T404 173Q434 173 462 179T518 196V156Q490 145 460 140T399 134ZM390 27Q453 27 508 51T606 117T672
214T696 333Q696 396 672 452T606 550T509 616T390 640Q327 640 272 616T174 550T108 452T84 333Q84 270 108 215T174 117T271 51T390 27Z" />
<glyph unicode="&#xaa;" horiz-adv-x="394" d="M192 389Q179 389 160 392T121 404T89 431T76 478Q76 531 109 550T192 569Q223 569 244 564T266 559Q266 599 246 617T188 636Q158 636 135 629T104 619V658Q119 664 142 669T190 675Q249 675 277 646T306 560V476Q306
448 294 431T263 404T225 392T192 389ZM192 426Q218 426 242 435T266 477V523Q266 523 245 528T200 533Q183 533 164 530T130 516T116 479Q116 457 128 446T157 430T192 426Z" />
<glyph unicode="&#xab;" horiz-adv-x="553" d="M390 64L221 255L390 445H487L309 255L487 64H390ZM200 64L31 255L200 445H297L119 255L297 64H200Z" />
<glyph unicode="&#xac;" horiz-adv-x="622" d="M459 158V258H97V324H525V158H459Z" />
<glyph unicode="&#xad;" horiz-adv-x="600" d="M79 263V333H384V263H79Z" />
<glyph unicode="&#xae;" horiz-adv-x="778" d="M390 -8Q320 -8 258 18T149 92T75 201T48 333Q48 404 74 466T148 575T258 648T390 675Q461 675 523 649T632 575T705 466T732 333Q732 263 706 201T632 92T523 19T390 -8ZM390 27Q453 27 508 51T606 117T672 214T696
333Q696 396 672 452T606 550T509 616T390 640Q327 640 272 616T174 550T108 452T84 333Q84 270 108 215T174 117T271 51T390 27ZM266 138V528H409Q472 528 507 500T542 415Q542 381 531 360T504 326T474 309T452 302L559 138H509L408 296H308V138H266ZM308 336H407Q448
336 467 347T493 376T499 412Q499 430 493 447T468 476T407 488H308V336Z" />
<glyph unicode="&#xaf;" horiz-adv-x="403" d="M86 576V629H320V576H86Z" />
<glyph unicode="&#xb0;" horiz-adv-x="387" d="M191 447Q137 447 110 475T82 558Q82 612 109 640T191 669Q244 669 272 641T300 558Q300 503 272 475T191 447ZM191 483Q229 483 246 500T264 558Q264 597 247 615T191 633Q152 633 135 615T118 558Q118 518 135
501T191 483Z" />
<glyph unicode="&#xb1;" horiz-adv-x="585" d="M261 144V292H113V352H261V499H321V352H468V292H321V144H261ZM113 33V93H468V33H113Z" />
<glyph unicode="&#xb2;" horiz-adv-x="328" d="M53 463V497Q76 514 102 538T151 592T190 653T205 714Q205 735 188 750T140 765Q116 765 94 755T57 735V799Q74 810 98 818T154 826Q198 826 224 811T262 773T274 726Q274 685 251 644T194 566T127 502L117 522H279V463H53Z" />
<glyph unicode="&#xb3;" horiz-adv-x="323" d="M149 459Q120 459 96 465T53 481V543Q70 534 93 527T144 519Q170 519 192 531T214 575Q214 602 192 613T142 625H103V682H144Q161 682 178 692T195 730Q195 745 180 755T139 765Q115 765 96 760T62 746V808Q79 816
99 821T144 826Q188 826 214 812T251 775T263 730Q263 703 252 687T229 664T217 657Q226 651 241 643T269 616T281 565Q281 546 274 527T252 493T211 468T149 459Z" />
<glyph unicode="&#xb4;" horiz-adv-x="236" d="M60 564L117 679H191L108 564H60Z" />
<glyph unicode="&#xb5;" horiz-adv-x="609" d="M99 -210V499H171V175Q171 151 179 126T216 82T304 64Q343 64 376 70T435 83V499H507V41Q498 37 479 29T432 12T370 -2T297 -8Q259 -8 231 2T187 22T171 32V-210H99Z" />
<glyph unicode="&#xb6;" horiz-adv-x="445" d="M301 0V256H268Q156 256 97 309T38 462Q38 561 97 614T268 667H367V0H301Z" />
<glyph unicode="&#xb7;" horiz-adv-x="311" d="M116 232V312H195V232H116Z" />
<glyph unicode="&#xb8;" horiz-adv-x="253" d="M56 -120L138 -5H195L132 -120H56Z" />
<glyph unicode="&#xb9;" horiz-adv-x="234" d="M95 463V781L108 740L53 704V780L119 822H163V463H95Z" />
<glyph unicode="&#xba;" horiz-adv-x="417" d="M206 389Q177 389 147 400T96 442T76 532Q76 592 96 623T146 665T206 676Q236 676 266 665T316 623T336 532Q336 473 316 442T266 400T206 389ZM206 426Q254 426 275 451T296 532Q296 588 275 613T206 639Q159 639
138 614T116 532Q116 477 137 452T206 426Z" />
<glyph unicode="&#xbb;" horiz-adv-x="553" d="M257 64L434 255L257 445H353L523 255L353 64H257ZM67 64L244 255L67 445H163L333 255L163 64H67Z" />
<glyph unicode="&#xbc;" horiz-adv-x="739" d="M95 315V633L108 592L53 556V632L119 674H163V315H95ZM70 -22L477 685H545L138 -22H70ZM569 1V89H425V150L595 360H638V145H689V89H638V1H569ZM488 145H569V291L619 304L488 145Z" />
<glyph unicode="&#xbd;" horiz-adv-x="685" d="M95 315V633L108 592L53 556V632L119 674H163V315H95ZM63 -22L470 685H538L131 -22H63ZM409 1V35Q432 52 458 76T507 130T546 191T561 252Q561 273 544 288T496 303Q472 303 450 293T413 273V337Q430 348 454 356T510
364Q554 364 580 349T618 311T630 264Q630 223 607 182T550 104T483 40L473 60H635V1H409Z" />
<glyph unicode="&#xbe;" horiz-adv-x="751" d="M149 311Q120 311 96 317T53 333V395Q70 386 93 379T144 371Q170 371 192 383T214 427Q214 454 192 465T142 477H103V534H144Q161 534 178 544T195 582Q195 597 180 607T139 617Q115 617 96 612T62 598V660Q79 668
99 673T144 678Q188 678 214 664T251 627T263 582Q263 555 252 539T229 516T217 509Q226 503 241 495T269 468T281 417Q281 398 274 379T252 345T211 320T149 311ZM143 -22L550 685H618L211 -22H143ZM581 1V89H437V150L607 360H650V145H701V89H650V1H581ZM500 145H581V291L631
304L500 145Z" />
<glyph unicode="&#xbf;" horiz-adv-x="483" d="M270 -176Q246 -176 213 -170T147 -144T94 -88T72 10Q72 54 87 80T124 126T169 164T207 212T222 287V332H294V282Q294 227 279 193T242 136T197 97T159 60T144 10Q144 -26 158 -51T202 -90T276 -104Q324 -104 359
-88T410 -60V-138Q410 -138 393 -147T344 -166T270 -176ZM218 420V499H298V420H218Z" />
<glyph unicode="&#xc0;" horiz-adv-x="643" d="M20 0L286 667H358L623 0H546L315 600L330 602L98 0H20ZM137 208L168 277H495L500 208H137ZM304 721L221 836H295L352 721H304Z" />
<glyph unicode="&#xc1;" horiz-adv-x="643" d="M20 0L286 667H358L623 0H546L315 600L330 602L98 0H20ZM137 208L168 277H495L500 208H137ZM305 732L362 847H436L353 732H305Z" />
<glyph unicode="&#xc2;" horiz-adv-x="643" d="M20 0L286 667H358L623 0H546L315 600L330 602L98 0H20ZM137 208L168 277H495L500 208H137ZM212 719L293 839H354L434 719H388L323 789L258 719H212Z" />
<glyph unicode="&#xc3;" horiz-adv-x="643" d="M20 0L286 667H358L623 0H546L315 600L330 602L98 0H20ZM137 208L168 277H495L500 208H137ZM233 727H187Q178 763 188 788T218 826T260 839Q284 839 303 830T337 808T367 786T396 776Q410 776 417 788T420 824H472Q478
795 469 772T439 734T388 720Q366 720 348 729T315 751T285 772T259 782Q246 782 237 769T233 727Z" />
<glyph unicode="&#xc4;" horiz-adv-x="643" d="M20 0L286 667H358L623 0H546L315 600L330 602L98 0H20ZM137 208L168 277H495L500 208H137ZM357 726V805H436V726H357ZM209 726V805H288V726H209Z" />
<glyph unicode="&#xc5;" horiz-adv-x="643" d="M20 0L286 667H358L623 0H546L315 600L330 602L98 0H20ZM137 208L168 277H495L500 208H137ZM323 640Q268 640 245 662T222 732Q222 779 245 801T323 824Q377 824 400 802T424 732Q424 685 401 663T323 640ZM323 683Q355
683 366 694T377 732Q377 758 366 769T323 780Q291 780 280 769T268 732Q268 706 279 695T323 683Z" />
<glyph unicode="&#xc6;" horiz-adv-x="957" d="M473 651H544L103 0H20L476 667H882V598H545V368H841V298H545V69H882V0H473V651ZM493 209H171L229 281H497L493 209Z" />
<glyph unicode="&#xc7;" horiz-adv-x="622" d="M364 -8Q210 -8 133 78T55 334Q55 504 132 590T364 676Q417 676 468 663T567 627V558Q521 583 472 595T372 608Q288 608 235 579T156 490T130 334Q130 239 155 179T234 89T372 60Q423 60 472 72T567 109V40Q535 25
502 14T434 -2T364 -8ZM244 -110L326 5H383L320 -110H244Z" />
<glyph unicode="&#xc8;" horiz-adv-x="581" d="M85 0V667H506V599H157V369H464V299H157V68H506V0H85ZM288 721L205 836H279L336 721H288Z" />
<glyph unicode="&#xc9;" horiz-adv-x="581" d="M85 0V667H506V599H157V369H464V299H157V68H506V0H85ZM289 732L346 847H420L337 732H289Z" />
<glyph unicode="&#xca;" horiz-adv-x="581" d="M85 0V667H506V599H157V369H464V299H157V68H506V0H85ZM196 719L277 839H338L418 719H372L307 789L242 719H196Z" />
<glyph unicode="&#xcb;" horiz-adv-x="581" d="M85 0V667H506V599H157V369H464V299H157V68H506V0H85ZM341 726V805H420V726H341ZM193 726V805H272V726H193Z" />
<glyph unicode="&#xcc;" horiz-adv-x="242" d="M85 0V667H157V0H85ZM102 721L19 836H93L150 721H102Z" />
<glyph unicode="&#xcd;" horiz-adv-x="242" d="M85 0V667H157V0H85ZM103 732L160 847H234L151 732H103Z" />
<glyph unicode="&#xce;" horiz-adv-x="242" d="M85 0V667H157V0H85ZM10 719L91 839H152L232 719H186L121 789L56 719H10Z" />
<glyph unicode="&#xcf;" horiz-adv-x="242" d="M85 0V667H157V0H85ZM155 726V805H234V726H155ZM7 726V805H86V726H7Z" />
<glyph unicode="&#xd0;" horiz-adv-x="667" d="M85 0V667H294Q450 667 528 584T607 334Q607 168 529 84T294 0H85ZM157 68H289Q417 68 475 132T533 334Q533 472 475 536T289 600H157V68ZM263 307V360H507V307H263Z" />
<glyph unicode="&#xd1;" horiz-adv-x="722" d="M85 0V667H167L583 80L565 52V667H637V0H556L124 609L157 640V0H85ZM272 727H226Q217 763 227 788T257 826T299 839Q323 839 342 830T376 808T406 786T435 776Q449 776 456 788T459 824H511Q517 795 508 772T478
734T427 720Q405 720 387 729T354 751T324 772T298 782Q285 782 276 769T272 727Z" />
<glyph unicode="&#xd2;" horiz-adv-x="719" d="M359 -10Q260 -10 194 28T94 143T60 333Q60 503 135 589T359 676Q459 676 525 638T625 523T659 333Q659 163 584 77T359 -10ZM359 58Q438 58 488 87T561 177T585 333Q585 428 562 488T488 578T359 608Q281 608 231
579T158 489T134 333Q134 238 157 177T231 87T359 58ZM348 721L265 836H339L396 721H348Z" />
<glyph unicode="&#xd3;" horiz-adv-x="719" d="M359 -10Q260 -10 194 28T94 143T60 333Q60 503 135 589T359 676Q459 676 525 638T625 523T659 333Q659 163 584 77T359 -10ZM359 58Q438 58 488 87T561 177T585 333Q585 428 562 488T488 578T359 608Q281 608 231
579T158 489T134 333Q134 238 157 177T231 87T359 58ZM349 732L406 847H480L397 732H349Z" />
<glyph unicode="&#xd4;" horiz-adv-x="719" d="M359 -10Q260 -10 194 28T94 143T60 333Q60 503 135 589T359 676Q459 676 525 638T625 523T659 333Q659 163 584 77T359 -10ZM359 58Q438 58 488 87T561 177T585 333Q585 428 562 488T488 578T359 608Q281 608 231
579T158 489T134 333Q134 238 157 177T231 87T359 58ZM256 719L337 839H398L478 719H432L367 789L302 719H256Z" />
<glyph unicode="&#xd5;" horiz-adv-x="719" d="M359 -10Q260 -10 194 28T94 143T60 333Q60 503 135 589T359 676Q459 676 525 638T625 523T659 333Q659 163 584 77T359 -10ZM359 58Q438 58 488 87T561 177T585 333Q585 428 562 488T488 578T359 608Q281 608 231
579T158 489T134 333Q134 238 157 177T231 87T359 58ZM277 727H231Q222 763 232 788T262 826T304 839Q328 839 347 830T381 808T411 786T440 776Q454 776 461 788T464 824H516Q522 795 513 772T483 734T432 720Q410 720 392 729T359 751T329 772T303 782Q290 782
281 769T277 727Z" />
<glyph unicode="&#xd6;" horiz-adv-x="719" d="M359 -10Q260 -10 194 28T94 143T60 333Q60 503 135 589T359 676Q459 676 525 638T625 523T659 333Q659 163 584 77T359 -10ZM359 58Q438 58 488 87T561 177T585 333Q585 428 562 488T488 578T359 608Q281 608 231
579T158 489T134 333Q134 238 157 177T231 87T359 58ZM401 726V805H480V726H401ZM253 726V805H332V726H253Z" />
<glyph unicode="&#xd7;" horiz-adv-x="481" d="M77 78L210 256L77 434H141L242 299L344 434H408L275 256L408 78H344L242 213L141 78H77Z" />
<glyph unicode="&#xd8;" horiz-adv-x="719" d="M57 0L619 667H685L122 0H57ZM359 -10Q260 -10 194 28T94 143T60 333Q60 503 135 589T359 676Q459 676 525 638T625 523T659 333Q659 163 584 77T359 -10ZM359 58Q438 58 488 87T561 177T585 333Q585 428 562 488T488
578T359 608Q281 608 231 579T158 489T134 333Q134 238 157 177T231 87T359 58Z" />
<glyph unicode="&#xd9;" horiz-adv-x="692" d="M346 -10Q222 -10 154 63T85 272V667H157V268Q157 161 205 110T346 58Q439 58 488 109T537 268V667H607V272Q607 181 576 118T487 23T346 -10ZM327 721L244 836H318L375 721H327Z" />
<glyph unicode="&#xda;" horiz-adv-x="692" d="M346 -10Q222 -10 154 63T85 272V667H157V268Q157 161 205 110T346 58Q439 58 488 109T537 268V667H607V272Q607 181 576 118T487 23T346 -10ZM328 732L385 847H459L376 732H328Z" />
<glyph unicode="&#xdb;" horiz-adv-x="692" d="M346 -10Q222 -10 154 63T85 272V667H157V268Q157 161 205 110T346 58Q439 58 488 109T537 268V667H607V272Q607 181 576 118T487 23T346 -10ZM235 719L316 839H377L457 719H411L346 789L281 719H235Z" />
<glyph unicode="&#xdc;" horiz-adv-x="692" d="M346 -10Q222 -10 154 63T85 272V667H157V268Q157 161 205 110T346 58Q439 58 488 109T537 268V667H607V272Q607 181 576 118T487 23T346 -10ZM380 726V805H459V726H380ZM232 726V805H311V726H232Z" />
<glyph unicode="&#xdd;" horiz-adv-x="598" d="M261 0V306L12 667H99L310 355L287 361L494 667H581L321 289L333 335V0H261ZM287 732L344 847H418L335 732H287Z" />
<glyph unicode="&#xde;" horiz-adv-x="570" d="M86 0V667H158V566H288Q399 566 458 513T518 359Q518 259 459 206T288 153H158V0H86ZM158 222H278Q334 222 367 234T418 266T440 311T446 359Q446 383 441 407T418 451T368 484T278 496H158V222Z" />
<glyph unicode="&#xdf;" horiz-adv-x="585" d="M80 0V423Q80 493 100 550T166 642T286 676Q346 676 393 658T469 605T497 519Q497 488 489 464T468 420T439 389T404 370Q430 362 459 337T509 270T530 173Q530 124 509 82T444 13T333 -13Q314 -13 293 -10T249 0V71Q273
62 295 58T336 53Q394 53 425 84T456 177Q456 224 432 258T370 310T295 328V391Q363 391 393 424T423 510Q423 547 404 569T355 602T288 612Q215 612 184 563T152 430V0H80Z" />
<glyph unicode="&#xe0;" horiz-adv-x="554" d="M252 -15Q219 -15 186 -8T124 16T78 62T60 137Q60 199 83 236T148 290T244 307Q285 307 315 302T368 288T411 266L425 200Q402 217 359 229T263 242Q200 242 166 218T132 148Q132 111 152 89T204 58T269 49Q334 49
367 58T401 102V331Q401 389 367 416T270 443Q230 443 186 432T109 395V467Q140 487 192 497T293 508Q326 508 354 502T404 483T441 451T465 406T474 348V106Q474 53 443 27T361 -7T252 -15ZM269 564L186 679H259L316 564H269Z" />
<glyph unicode="&#xe1;" horiz-adv-x="554" d="M252 -15Q219 -15 186 -8T124 16T78 62T60 137Q60 199 83 236T148 290T244 307Q285 307 315 302T368 288T411 266L425 200Q402 217 359 229T263 242Q200 242 166 218T132 148Q132 111 152 89T204 58T269 49Q334 49
367 58T401 102V331Q401 389 367 416T270 443Q230 443 186 432T109 395V467Q140 487 192 497T293 508Q326 508 354 502T404 483T441 451T465 406T474 348V106Q474 53 443 27T361 -7T252 -15ZM265 564L322 679H396L313 564H265Z" />
<glyph unicode="&#xe2;" horiz-adv-x="554" d="M252 -15Q219 -15 186 -8T124 16T78 62T60 137Q60 199 83 236T148 290T244 307Q285 307 315 302T368 288T411 266L425 200Q402 217 359 229T263 242Q200 242 166 218T132 148Q132 111 152 89T204 58T269 49Q334 49
367 58T401 102V331Q401 389 367 416T270 443Q230 443 186 432T109 395V467Q140 487 192 497T293 508Q326 508 354 502T404 483T441 451T465 406T474 348V106Q474 53 443 27T361 -7T252 -15ZM180 564L261 684H322L402 564H356L291 634L226 564H180Z" />
<glyph unicode="&#xe3;" horiz-adv-x="554" d="M252 -15Q219 -15 186 -8T124 16T78 62T60 137Q60 199 83 236T148 290T244 307Q285 307 315 302T368 288T411 266L425 200Q402 217 359 229T263 242Q200 242 166 218T132 148Q132 111 152 89T204 58T269 49Q334 49
367 58T401 102V331Q401 389 367 416T270 443Q230 443 186 432T109 395V467Q140 487 192 497T293 508Q326 508 354 502T404 483T441 451T465 406T474 348V106Q474 53 443 27T361 -7T252 -15ZM196 544H150Q141 580 151 605T181 643T223 656Q247 656 266 647T300
625T330 603T359 593Q373 593 380 605T383 641H435Q441 612 432 589T402 551T351 537Q329 537 311 546T278 568T248 589T222 599Q209 599 200 586T196 544Z" />
<glyph unicode="&#xe4;" horiz-adv-x="554" d="M252 -15Q219 -15 186 -8T124 16T78 62T60 137Q60 199 83 236T148 290T244 307Q285 307 315 302T368 288T411 266L425 200Q402 217 359 229T263 242Q200 242 166 218T132 148Q132 111 152 89T204 58T269 49Q334 49
367 58T401 102V331Q401 389 367 416T270 443Q230 443 186 432T109 395V467Q140 487 192 497T293 508Q326 508 354 502T404 483T441 451T465 406T474 348V106Q474 53 443 27T361 -7T252 -15ZM325 564V643H404V564H325ZM177 564V643H256V564H177Z" />
<glyph unicode="&#xe5;" horiz-adv-x="554" d="M252 -15Q219 -15 186 -8T124 16T78 62T60 137Q60 199 83 236T148 290T244 307Q285 307 315 302T368 288T411 266L425 200Q402 217 359 229T263 242Q200 242 166 218T132 148Q132 111 152 89T204 58T269 49Q334 49
367 58T401 102V331Q401 389 367 416T270 443Q230 443 186 432T109 395V467Q140 487 192 497T293 508Q326 508 354 502T404 483T441 451T465 406T474 348V106Q474 53 443 27T361 -7T252 -15ZM291 535Q236 535 213 557T190 627Q190 674 213 696T291 719Q345 719
368 697T392 627Q392 580 369 558T291 535ZM291 578Q323 578 334 589T345 627Q345 653 334 664T291 675Q259 675 248 664T236 627Q236 601 247 590T291 578Z" />
<glyph unicode="&#xe6;" horiz-adv-x="893" d="M465 62Q435 36 388 11T269 -15Q207 -15 160 0T87 49T60 137Q60 202 89 239T166 291T271 307Q298 307 323 303T370 292T411 272L425 200Q402 217 359 229T263 242Q196 242 164 218T132 143Q132 108 152 88T203 58T269
49Q301 49 332 56T389 77T432 110L465 62ZM401 243V331Q401 389 367 416T270 443Q230 443 186 432T109 395V467Q140 487 192 497T293 508Q326 508 354 502T404 483T441 451T465 406T474 348V237Q474 146 516 99T636 51Q691 51 733 63T807 94V20Q771 3 728 -6T632
-15Q561 -15 509 13T429 98T401 243ZM401 250Q401 379 459 443T620 508Q700 508 748 472T818 375T838 237H437L442 303H791L763 293Q760 368 726 405T620 442Q571 442 539 424T490 362T474 237L401 250Z" />
<glyph unicode="&#xe7;" horiz-adv-x="492" d="M289 -8Q249 -8 208 2T132 40T76 119T55 250Q55 330 76 380T131 459T207 497T289 508Q327 508 364 501T437 480V411Q404 425 369 432T297 439Q208 439 168 394T127 250Q127 150 167 106T297 61Q334 61 369 68T437
89V19Q402 6 365 -1T289 -8ZM176 -120L258 -5H315L252 -120H176Z" />
<glyph unicode="&#xe8;" horiz-adv-x="547" d="M286 -15Q215 -15 163 14T83 103T55 250Q55 379 113 443T274 508Q354 508 402 472T472 375T492 237H91L96 303H445L417 293Q414 368 380 405T274 442Q225 442 193 424T144 362T128 237Q128 146 170 99T290 51Q327
51 358 56T415 72T461 94V20Q425 3 382 -6T286 -15ZM261 564L178 679H251L308 564H261Z" />
<glyph unicode="&#xe9;" horiz-adv-x="547" d="M286 -15Q215 -15 163 14T83 103T55 250Q55 379 113 443T274 508Q354 508 402 472T472 375T492 237H91L96 303H445L417 293Q414 368 380 405T274 442Q225 442 193 424T144 362T128 237Q128 146 170 99T290 51Q327
51 358 56T415 72T461 94V20Q425 3 382 -6T286 -15ZM257 564L314 679H388L305 564H257Z" />
<glyph unicode="&#xea;" horiz-adv-x="547" d="M286 -15Q215 -15 163 14T83 103T55 250Q55 379 113 443T274 508Q354 508 402 472T472 375T492 237H91L96 303H445L417 293Q414 368 380 405T274 442Q225 442 193 424T144 362T128 237Q128 146 170 99T290 51Q327
51 358 56T415 72T461 94V20Q425 3 382 -6T286 -15ZM172 564L253 684H314L394 564H348L283 634L218 564H172Z" />
<glyph unicode="&#xeb;" horiz-adv-x="547" d="M286 -15Q215 -15 163 14T83 103T55 250Q55 379 113 443T274 508Q354 508 402 472T472 375T492 237H91L96 303H445L417 293Q414 368 380 405T274 442Q225 442 193 424T144 362T128 237Q128 146 170 99T290 51Q327
51 358 56T415 72T461 94V20Q425 3 382 -6T286 -15ZM317 564V643H396V564H317ZM169 564V643H248V564H169Z" />
<glyph unicode="&#xec;" horiz-adv-x="270" d="M99 0V499H171V0H99ZM111 564L28 679H102L159 564H111Z" />
<glyph unicode="&#xed;" horiz-adv-x="270" d="M99 0V499H171V0H99ZM111 564L167 679H241L158 564H111Z" />
<glyph unicode="&#xee;" horiz-adv-x="270" d="M99 0V499H171V0H99ZM33 564L114 684H155L236 564H180L135 634L89 564H33Z" />
<glyph unicode="&#xef;" horiz-adv-x="270" d="M99 0V499H171V0H99ZM21 564V643H100V564H21ZM169 564V643H248V564H169Z" />
<glyph unicode="&#xf0;" horiz-adv-x="567" d="M285 -15Q168 -15 112 54T55 248Q55 378 114 443T283 508Q333 508 368 489T432 436L446 370Q423 402 380 422T284 442Q224 442 190 416T142 347T127 248Q127 160 162 106T284 51Q327 51 362 67T418 131T440 271Q440
337 417 396T356 508T270 605T174 686V689H288Q313 665 350 626T425 535T487 416T512 271Q512 141 455 63T285 -15ZM173 549L164 606L446 652L454 595L173 549Z" />
<glyph unicode="&#xf1;" horiz-adv-x="569" d="M80 459Q104 471 129 480T181 496T235 505T291 508Q364 508 407 487T469 424T489 325V0H417V325Q417 343 413 363T395 401T355 431T283 443Q252 443 219 438T152 423V0H80V459ZM191 544H145Q136 580 146 605T176
643T218 656Q242 656 261 647T295 625T325 603T354 593Q368 593 375 605T378 641H430Q436 612 427 589T397 551T346 537Q324 537 306 546T273 568T243 589T217 599Q204 599 195 586T191 544Z" />
<glyph unicode="&#xf2;" horiz-adv-x="569" d="M285 -15Q168 -15 112 54T55 248Q55 378 114 443T283 508Q364 508 415 476T490 385T514 248Q514 125 455 55T285 -15ZM284 51Q345 51 379 77T427 148T442 248Q442 307 427 350T378 418T284 442Q224 442 190 416T142
347T127 248Q127 160 162 106T284 51ZM265 564L182 679H255L312 564H265Z" />
<glyph unicode="&#xf3;" horiz-adv-x="569" d="M285 -15Q168 -15 112 54T55 248Q55 378 114 443T283 508Q364 508 415 476T490 385T514 248Q514 125 455 55T285 -15ZM284 51Q345 51 379 77T427 148T442 248Q442 307 427 350T378 418T284 442Q224 442 190 416T142
347T127 248Q127 160 162 106T284 51ZM261 564L318 679H392L309 564H261Z" />
<glyph unicode="&#xf4;" horiz-adv-x="569" d="M285 -15Q168 -15 112 54T55 248Q55 378 114 443T283 508Q364 508 415 476T490 385T514 248Q514 125 455 55T285 -15ZM284 51Q345 51 379 77T427 148T442 248Q442 307 427 350T378 418T284 442Q224 442 190 416T142
347T127 248Q127 160 162 106T284 51ZM176 564L257 684H318L398 564H352L287 634L222 564H176Z" />
<glyph unicode="&#xf5;" horiz-adv-x="569" d="M285 -15Q168 -15 112 54T55 248Q55 378 114 443T283 508Q364 508 415 476T490 385T514 248Q514 125 455 55T285 -15ZM284 51Q345 51 379 77T427 148T442 248Q442 307 427 350T378 418T284 442Q224 442 190 416T142
347T127 248Q127 160 162 106T284 51ZM192 544H146Q137 580 147 605T177 643T219 656Q243 656 262 647T296 625T326 603T355 593Q369 593 376 605T379 641H431Q437 612 428 589T398 551T347 537Q325 537 307 546T274 568T244 589T218 599Q205 599 196 586T192 544Z"
/>
<glyph unicode="&#xf6;" horiz-adv-x="569" d="M285 -15Q168 -15 112 54T55 248Q55 378 114 443T283 508Q364 508 415 476T490 385T514 248Q514 125 455 55T285 -15ZM284 51Q345 51 379 77T427 148T442 248Q442 307 427 350T378 418T284 442Q224 442 190 416T142
347T127 248Q127 160 162 106T284 51ZM321 564V643H400V564H321ZM173 564V643H252V564H173Z" />
<glyph unicode="&#xf7;" horiz-adv-x="628" d="M111 227V287H517V227H111ZM274 74V154H354V74H274ZM274 359V439H354V359H274Z" />
<glyph unicode="&#xf8;" horiz-adv-x="574" d="M115 0H37L458 499H536L115 0ZM285 -15Q168 -15 112 54T55 248Q55 378 114 443T283 508Q364 508 415 476T490 385T514 248Q514 125 455 55T285 -15ZM284 51Q345 51 379 77T427 148T442 248Q442 307 427 350T378 418T284
442Q224 442 190 416T142 347T127 248Q127 160 162 106T284 51Z" />
<glyph unicode="&#xf9;" horiz-adv-x="578" d="M289 -15Q223 -15 176 8T105 75T80 183V499H152V199Q152 123 185 88T289 52Q359 52 392 87T426 199V499H498V183Q498 88 444 37T289 -15ZM267 564L184 679H257L314 564H267Z" />
<glyph unicode="&#xfa;" horiz-adv-x="578" d="M289 -15Q223 -15 176 8T105 75T80 183V499H152V199Q152 123 185 88T289 52Q359 52 392 87T426 199V499H498V183Q498 88 444 37T289 -15ZM263 564L320 679H394L311 564H263Z" />
<glyph unicode="&#xfb;" horiz-adv-x="578" d="M289 -15Q223 -15 176 8T105 75T80 183V499H152V199Q152 123 185 88T289 52Q359 52 392 87T426 199V499H498V183Q498 88 444 37T289 -15ZM178 564L259 684H320L400 564H354L289 634L224 564H178Z" />
<glyph unicode="&#xfc;" horiz-adv-x="578" d="M289 -15Q223 -15 176 8T105 75T80 183V499H152V199Q152 123 185 88T289 52Q359 52 392 87T426 199V499H498V183Q498 88 444 37T289 -15ZM323 564V643H402V564H323ZM175 564V643H254V564H175Z" />
<glyph unicode="&#xfd;" horiz-adv-x="540" d="M134 -193Q119 -193 107 -190T87 -184V-118Q94 -121 105 -124T130 -127Q164 -127 185 -108T220 -57T247 14V-15L35 499H117L283 73H268L433 499H505L291 -49Q268 -108 241 -139T186 -181T134 -193ZM249 564L306 679H380L297
564H249Z" />
<glyph unicode="&#xfe;" horiz-adv-x="569" d="M152 -200H80V689H152V-200ZM152 87Q183 69 214 61T276 52Q331 52 366 75T420 141T438 237Q438 291 426 338T380 413T281 442Q229 442 191 430T152 396L80 409Q80 440 99 459T150 488T216 503T282 508Q342 508 395
483T481 399T514 237Q514 160 487 104T406 17T276 -14Q254 -14 227 -8T173 7T127 26L152 87Z" />
<glyph unicode="&#xff;" horiz-adv-x="540" d="M134 -193Q119 -193 107 -190T87 -184V-118Q94 -121 105 -124T130 -127Q164 -127 185 -108T220 -57T247 14V-15L35 499H117L283 73H268L433 499H505L291 -49Q268 -108 241 -139T186 -181T134 -193ZM309 564V643H388V564H309ZM161
564V643H240V564H161Z" />
<glyph unicode="&#x2013;" horiz-adv-x="560" d="M69 258V320H489V258H69Z" />
<glyph unicode="&#x2014;" horiz-adv-x="891" d="M79 258V324H812V258H79Z" />
<glyph unicode="&#x2018;" horiz-adv-x="255" d="M131 480L47 676H129L203 480H131Z" />
<glyph unicode="&#x2019;" horiz-adv-x="255" d="M47 480L121 676H203L119 480H47Z" />
<glyph unicode="&#x201a;" horiz-adv-x="300" d="M72 -112L146 84H227L144 -112H72Z" />
<glyph unicode="&#x201c;" horiz-adv-x="391" d="M267 480L183 676H265L339 480H267ZM131 480L47 676H129L203 480H131Z" />
<glyph unicode="&#x201d;" horiz-adv-x="387" d="M183 480L257 676H339L255 480H183ZM47 480L121 676H203L119 480H47Z" />
<glyph unicode="&#x201e;" horiz-adv-x="436" d="M208 -112L282 84H364L280 -112H208ZM72 -112L146 84H227L144 -112H72Z" />
<glyph unicode="&#x2022;" horiz-adv-x="415" d="M206 218Q174 218 148 233T106 275T90 334Q90 366 105 392T147 433T206 449Q238 449 264 434T305 392T321 334Q321 302 306 276T264 234T206 218Z" />
<glyph unicode="&#x2039;" horiz-adv-x="347" d="M200 64L31 255L200 445H297L119 255L297 64H200Z" />
<glyph unicode="&#x203a;" horiz-adv-x="379" d="M67 64L244 255L67 445H163L333 255L163 64H67Z" />
</font>
</defs>
</svg>
