<?xml version="1.0" standalone="no"?>
<!DOCTYPE svg PUBLIC "-//W3C//DTD SVG 1.1//EN" "http://www.w3.org/Graphics/SVG/1.1/DTD/svg11.dtd">
<svg xmlns="http://www.w3.org/2000/svg">
<defs >
<font id="FragmentMono" horiz-adv-x="618" ><font-face
    font-family="Fragment Mono"
    units-per-em="1000"
    panose-1="2 11 5 9 3 2 2 2 2 4"
    ascent="950"
    descent="-250"
    alphabetic="0" />
<glyph unicode=" " glyph-name="space" />
<glyph unicode="!" glyph-name="exclam" d="M264 699H355V381L329 198H289L264 381V699ZM254 111H364V0H254V111Z" />
<glyph unicode="&quot;" glyph-name="quotedbl" d="M414 548V699H516V548L489 390H441L414 548ZM358 548V699H460V548L433 390H385L358 548Z" />
<glyph unicode="#" glyph-name="numbersign" d="M98 0L132 195H32V265H144L174 436H60V506H186L220 699H293L259 506H413L447 699H520L486 506H586V436H474L444 265H558V195H432L398 0H325L359 195H205L171 0H98ZM217 265H371L401 436H247L217 265Z" />
<glyph unicode="$" glyph-name="dollar" d="M280 -97V-6Q217 0 171 30T99 107T72 214H148Q150 153 183 112T280 63V322L235 334Q167 352 127 400T86 514Q86 592 137 643T280 703V794H337V703Q423 695 472 644T525 510H449Q446 558 419 592T337 634V387L402 369Q470
350 508 304T546 195Q546 110 490 56T337 -6V-97H280ZM249 411L280 402V635Q228 629 196 601T163 522Q163 482 185 452T249 411ZM376 296L337 307V62Q400 68 434 100T469 184Q469 226 447 254T376 296Z" />
<glyph unicode="%" glyph-name="percent" d="M165 707Q206 707 238 688T290 637T309 563Q309 523 290 490T239 438T165 419Q125 419 92 438T40 490T21 563Q21 604 40 636T92 688T165 707ZM48 0L496 699H570L122 0H48ZM165 645Q131 645 109 622T86 563Q86 528 108
505T165 481Q200 481 222 504T244 563Q244 598 222 621T165 645ZM453 -8Q413 -8 380 11T328 63T309 136Q309 177 328 209T380 261T453 280Q494 280 526 261T578 210T597 136Q597 96 578 63T527 11T453 -8ZM453 54Q488 54 510 77T532 136Q532 171 510 194T453 218Q419
218 397 195T374 136Q374 101 396 78T453 54Z" />
<glyph unicode="&amp;" glyph-name="ampersand" d="M512 0L454 77Q414 35 364 11T260 -13Q164 -13 108 41T52 189Q52 311 169 383L206 406L205 408Q167 459 148 491T129 561Q129 606 152 640T214 693T297 713Q366 713 410 675T455 566Q455 522 431 485T360 417L317
389L455 207Q482 266 488 336H562Q559 283 544 234T504 144L614 0H512ZM243 485L275 444L329 478Q352 492 365 516T378 569Q378 604 356 623T296 643Q259 643 235 622T210 568Q210 548 217 529T243 485ZM133 189Q133 135 170 100T262 65Q305 65 342 83T410 136L248
350L214 328Q169 299 151 267T133 189Z" />
<glyph unicode="&apos;" glyph-name="quotesingle" d="M258 548V699H360V548L333 390H285L258 548Z" />
<glyph unicode="(" glyph-name="parenleft" d="M377 780H467Q300 589 300 350Q300 111 467 -80H377Q305 1 262 113T219 350Q219 474 262 586T377 780Z" />
<glyph unicode=")" glyph-name="parenright" d="M241 -81H151Q318 110 318 349Q318 588 151 779H241Q313 698 356 586T399 349Q399 225 356 113T241 -81Z" />
<glyph unicode="*" glyph-name="asterisk" d="M502 167L431 115L309 296L187 115L116 167L250 339L41 399L68 482L272 408L265 626H353L346 408L550 482L577 399L368 339L502 167Z" />
<glyph unicode="+" glyph-name="plus" d="M344 357H551V287H344V80H274V287H67V357H274V564H344V357Z" />
<glyph unicode="," glyph-name="comma" d="M241 0V136H377V-35Q377 -95 344 -130T244 -165H226V-114H242Q321 -114 321 -38V0H241Z" />
<glyph unicode="-" glyph-name="hyphen" d="M120 358H498V286H120V358Z" />
<glyph unicode="." glyph-name="period" d="M241 136H377V0H241V136Z" />
<glyph unicode="/" glyph-name="slash" d="M98 -80L435 794H520L183 -80H98Z" />
<glyph unicode="0" glyph-name="zero" d="M309 715Q377 715 422 685T493 602T530 485T541 349Q541 279 530 214T493 96T422 13T309 -18Q241 -18 196 12T125 95T88 213T77 349Q77 419 88 484T125 602T196 684T309 715ZM309 639Q232 639 196 560T159 349Q159 285
167 233T193 143L390 606Q357 639 309 639ZM459 349Q459 407 452 455T431 540L238 82Q268 58 309 58Q361 58 394 94T443 195T459 349Z" />
<glyph unicode="1" glyph-name="one" d="M303 0V507H116V573Q178 576 214 581T271 599T302 637T325 707H391V0H303Z" />
<glyph unicode="2" glyph-name="two" d="M543 77V0H71Q77 82 96 136T156 232T270 312L363 363Q410 389 434 423T458 504Q458 563 426 600T327 638Q250 638 215 590T175 465H87Q91 585 151 650T330 715Q402 715 450 687T523 611T548 504Q548 370 399 291L299 238Q236
204 206 166T170 77H543Z" />
<glyph unicode="3" glyph-name="three" d="M310 331H261V406Q312 404 351 411T413 443T436 519Q436 578 401 608T310 638Q243 638 209 603T172 488H84Q86 600 145 657T310 715Q405 715 465 667T525 522Q525 471 501 432T425 373Q488 352 517 309T546 200Q546 132
516 83T432 8T307 -18Q81 -18 69 208H158Q162 135 198 97T310 59Q387 59 422 100T457 199Q457 331 310 331Z" />
<glyph unicode="4" glyph-name="four" d="M365 0V178H63V268L373 705H450V254H555V178H450V0H365ZM136 254H365V578L136 254Z" />
<glyph unicode="5" glyph-name="five" d="M139 699H505V622H211L182 418Q211 444 246 454T317 464Q380 464 431 436T512 355T542 229Q542 158 513 102T429 14T299 -18Q269 -18 232 -10T160 18T98 76T64 171H153Q183 59 299 59Q375 59 413 105T452 225Q452 298
416 344T302 390Q260 390 228 374T167 320H87L139 699Z" />
<glyph unicode="6" glyph-name="six" d="M538 535H451Q441 581 415 611T334 641Q255 641 212 565T168 354Q191 395 237 421T343 447Q410 447 456 416T527 333T552 223Q552 160 526 105T449 16T324 -18Q255 -18 209 10T134 88T94 201T82 334Q82 515 149 615T340
715Q421 715 472 668T538 535ZM323 373Q281 373 248 352T196 296T177 215Q177 170 196 134T248 77T323 56Q389 56 426 102T463 215Q463 282 426 327T323 373Z" />
<glyph unicode="7" glyph-name="seven" d="M72 699H546V625Q468 516 411 419T317 221T258 0H164Q185 88 206 155T252 279T307 387T374 496T460 622H72V699Z" />
<glyph unicode="8" glyph-name="eight" d="M426 377Q547 317 547 202Q547 137 518 88T435 10T309 -18Q239 -18 186 10T102 87T71 202Q71 317 193 377Q145 406 121 438T96 526Q96 582 123 624T199 691T309 715Q373 715 420 691T495 624T522 525Q522 475 502 444T426
377ZM309 641Q247 641 214 607T181 525Q181 479 213 446T309 412Q365 412 401 442T437 523Q437 577 403 609T309 641ZM309 338Q268 338 233 322T177 274T156 198Q156 155 176 123T230 74T307 56Q376 56 419 95T462 199Q462 245 441 275T385 322T309 338Z" />
<glyph unicode="9" glyph-name="nine" d="M80 162H167Q177 116 203 86T284 56Q364 56 407 132T450 343Q427 302 381 276T275 250Q208 250 162 281T91 364T66 474Q66 537 92 592T169 681T294 715Q363 715 409 687T484 609T524 496T536 363Q536 182 470 82T278 -18Q197
-18 146 29T80 162ZM295 324Q337 324 370 345T422 402T441 482Q441 527 422 563T370 620T295 641Q229 641 192 596T155 482Q155 415 192 370T295 324Z" />
<glyph unicode=":" glyph-name="colon" d="M377 388H241V524H377V388ZM241 136H377V0H241V136Z" />
<glyph unicode=";" glyph-name="semicolon" d="M377 388H241V524H377V388ZM241 0V136H377V-35Q377 -95 344 -130T244 -165H226V-114H242Q321 -114 321 -38V0H241Z" />
<glyph unicode="&lt;" glyph-name="less" d="M528 41L90 278V367L528 604V517L162 325L528 128V41Z" />
<glyph unicode="=" glyph-name="equal" d="M77 484H541V414H77V484ZM77 232H541V162H77V232Z" />
<glyph unicode="&gt;" glyph-name="greater" d="M90 604L528 367V278L90 41V128L456 320L90 517V604Z" />
<glyph unicode="?" glyph-name="question" d="M346 236V199H256V244Q256 274 263 295T292 342T360 407Q401 442 418 469T435 537Q435 582 405 607T317 633Q253 633 216 599T178 487H93Q93 598 155 654T318 711Q413 711 469 667T525 539Q525 501 516 474T485 420T425
360Q394 332 370 305T346 236ZM245 111H355V0H245V111Z" />
<glyph unicode="@" glyph-name="at" d="M402 434L414 490H474L414 167Q410 142 418 126T448 109Q473 109 493 141T525 228T537 348Q537 494 486 571T337 649Q260 649 205 601T120 467T90 266Q90 181 115 116T181 7T270 -59T363 -81Q404 -81 431 -75T486 -55L506
-111Q477 -125 444 -133T362 -142Q296 -142 235 -115T126 -35T51 92T23 263Q23 402 61 502T171 657T339 711Q465 711 533 616T602 349Q602 261 581 194T525 89T443 51Q412 51 391 68T363 123Q346 87 321 69T271 51Q220 51 189 100T158 234Q158 316 182 377T244
473T325 507Q358 507 377 485T402 434ZM322 442Q296 442 274 416T239 342T225 233Q225 176 239 147T285 117Q308 117 322 133T350 181Q357 199 363 228T374 290T378 350Q378 394 363 418T322 442Z" />
<glyph unicode="A" glyph-name="A" d="M491 0L429 209H188L126 0H30L251 699H368L588 0H491ZM211 287H406L308 615L211 287Z" />
<glyph unicode="B" glyph-name="B" d="M364 0H92V699H341Q435 699 493 652T552 521Q552 471 529 426T459 365Q513 347 544 305T575 199Q575 147 551 102T480 28T364 0ZM183 620V399H327Q383 399 420 421T457 508Q457 573 420 596T327 620H183ZM183 320V79H353Q419
79 449 113T480 200Q480 253 450 286T353 320H183Z" />
<glyph unicode="C" glyph-name="C" d="M575 504H480Q465 561 433 597T334 633Q268 633 228 597T169 497T151 348Q151 206 198 135T334 64Q404 64 438 108T487 237H582Q568 110 502 46T333 -18Q242 -18 180 26T86 153T54 347Q54 422 69 489T118 606T205 686T337
715Q407 715 456 687T535 612T575 504Z" />
<glyph unicode="D" glyph-name="D" d="M302 0H76V699H302Q391 699 450 654T538 531T568 350Q568 248 539 169T450 45T302 0ZM169 617V82H286Q384 82 427 153T471 349Q471 474 428 545T286 617H169Z" />
<glyph unicode="E" glyph-name="E" d="M506 317H206V82H539V0H113V699H521V617H206V399H506V317Z" />
<glyph unicode="F" glyph-name="F" d="M504 317H214V0H121V699H552V617H214V399H504V317Z" />
<glyph unicode="G" glyph-name="G" d="M325 370H566V0H498L490 96Q465 37 420 10T315 -18Q231 -18 170 25T76 149T42 345Q42 464 77 546T176 672T325 715Q417 715 481 666T568 506H473Q459 578 420 605T325 633Q233 633 186 557T139 350Q139 204 188 134T317 64Q375
64 412 91T466 164T484 268V288H325V370Z" />
<glyph unicode="H" glyph-name="H" d="M447 0V317H172V0H79V699H172V399H447V699H540V0H447Z" />
<glyph unicode="I" glyph-name="I" d="M114 0V78H262V621H114V699H505V621H356V78H505V0H114Z" />
<glyph unicode="J" glyph-name="J" d="M435 216V699H528V183Q528 87 466 35T302 -18Q202 -18 141 31T79 171V246H174V188Q174 131 205 96T303 60Q356 60 384 80T424 135T435 216Z" />
<glyph unicode="K" glyph-name="K" d="M192 0H99V699H192V381L473 699H588L334 414L608 0H497L271 346L192 259V0Z" />
<glyph unicode="L" glyph-name="L" d="M124 699H217V82H550V0H124V699Z" />
<glyph unicode="M" glyph-name="M" d="M271 200L143 553V0H64V699H168L310 297L452 699H554V0H475V554L349 200H271Z" />
<glyph unicode="N" glyph-name="N" d="M456 699H542V0H438L163 559H162V0H76V699H177L455 135H456V699Z" />
<glyph unicode="O" glyph-name="O" d="M309 715Q438 715 509 619T581 348Q581 174 510 78T309 -18Q180 -18 109 78T37 348Q37 522 108 618T309 715ZM309 633Q227 633 181 558T134 348Q134 215 180 140T309 64Q392 64 438 139T484 348Q484 482 438 557T309 633Z" />
<glyph unicode="P" glyph-name="P" d="M91 0V699H346Q409 699 460 676T541 606T571 490Q571 421 541 375T460 305T346 281H182V0H91ZM182 360H334Q401 360 438 395T476 490Q476 550 439 585T334 620H182V360Z" />
<glyph unicode="Q" glyph-name="Q" d="M509 -88L433 11Q379 -18 309 -18Q180 -18 109 78T37 348Q37 522 108 618T309 715Q438 715 509 619T581 348Q581 251 559 178T492 57L569 -43L509 -88ZM309 633Q227 633 181 558T134 348Q134 215 180 140T309 64Q348 64 380
82L293 196L352 241L434 134Q484 209 484 348Q484 482 438 557T309 633Z" />
<glyph unicode="R" glyph-name="R" d="M336 287H185V0H94V699H339Q440 699 501 652T562 508Q562 447 535 406T446 333Q483 318 503 300T532 252T544 170L547 118Q549 93 555 66T583 23V0H480Q469 23 462 53T454 117V161Q454 223 426 255T336 287ZM185 620V366H321Q389
366 428 395T467 498Q467 562 429 591T321 620H185Z" />
<glyph unicode="S" glyph-name="S" d="M552 497H462Q460 557 424 596T315 636Q243 636 206 604T168 525Q168 441 263 419L406 386Q488 367 530 317T572 199Q572 130 541 82T454 8T324 -18Q194 -18 126 46T55 223H145Q146 153 192 109T326 65Q405 65 441 99T478
186Q478 233 453 260T375 299L230 333Q154 351 114 397T74 516Q74 575 104 619T188 689T318 715Q391 715 443 688T524 615T552 510V497Z" />
<glyph unicode="T" glyph-name="T" d="M565 617H356V0H263V617H53V699H565V617Z" />
<glyph unicode="U" glyph-name="U" d="M459 219V699H552V206Q552 125 519 76T430 5T308 -18Q240 -18 185 5T98 77T66 206V699H159V219Q159 158 179 125T234 78T308 64Q349 64 383 78T438 125T459 219Z" />
<glyph unicode="V" glyph-name="V" d="M588 699L363 0H255L30 699H128L310 96L491 699H588Z" />
<glyph unicode="W" glyph-name="W" d="M595 699L496 0H395L309 620H308L223 0H122L23 699H109L177 142H178L250 699H369L441 133H442L514 699H595Z" />
<glyph unicode="X" glyph-name="X" d="M484 0L308 283L132 0H25L259 358L41 699H150L313 436L475 699H581L362 361L593 0H484Z" />
<glyph unicode="Y" glyph-name="Y" d="M597 699L359 274V0H266V274L21 699H127L314 363L493 699H597Z" />
<glyph unicode="Z" glyph-name="Z" d="M98 699H533V615L179 82H535V0H70V82L428 617H98V699Z" />
<glyph unicode="[" glyph-name="bracketleft" d="M246 779H452V713H318V-14H452V-80H246V779Z" />
<glyph unicode="\" glyph-name="backslash" d="M520 -80H435L98 794H183L520 -80Z" />
<glyph unicode="]" glyph-name="bracketright" d="M372 -80H166V-14H300V713H166V779H372V-80Z" />
<glyph unicode="^" glyph-name="asciicircum" d="M74 319L256 699H363L545 319H455L308 628L163 319H74Z" />
<glyph unicode="_" glyph-name="underscore" d="M0 -146H618V-218H0V-146Z" />
<glyph unicode="`" glyph-name="grave" d="M359 592H299L150 740H263L359 592Z" />
<glyph unicode="a" glyph-name="a" d="M569 55V-8Q538 -17 519 -17Q435 -17 426 62Q382 19 340 1T248 -18Q172 -18 125 22T77 136Q77 190 100 222T156 271T220 293Q234 295 263 299T336 310Q386 317 405 329T425 366V384Q425 462 305 462Q247 462 218 440T183
369H99Q101 460 158 499T309 539Q406 539 456 503T506 396V94Q506 53 551 53Q559 53 569 55ZM425 182V265Q399 253 361 246T289 235Q231 228 197 208T162 138Q162 99 190 77T269 55Q306 55 341 71T401 117T425 182Z" />
<glyph unicode="b" glyph-name="b" d="M87 0V729H170V454Q227 540 332 540Q409 540 458 504T532 405T556 267Q556 187 530 122T454 20T328 -18Q221 -18 162 72V0H87ZM317 462Q264 462 232 432T185 356T170 258Q170 209 184 164T231 89T317 60Q370 60 403 88T453
161T470 258Q470 313 454 359T403 433T317 462Z" />
<glyph unicode="c" glyph-name="c" d="M533 351H449Q442 403 409 433T321 463Q267 463 234 433T186 356T171 256Q171 204 187 159T237 87T323 59Q434 59 455 183H539Q531 89 475 36T321 -18Q245 -18 192 18T112 117T84 256Q84 335 111 399T191 501T322 540Q418
540 474 487T533 351Z" />
<glyph unicode="d" glyph-name="d" d="M448 729H531V0H457V74Q394 -18 290 -18Q213 -18 162 19T87 122T62 267Q62 343 87 404T162 503T287 540Q394 540 448 459V729ZM301 462Q252 462 218 436T167 364T149 261Q149 208 165 162T214 88T302 60Q355 60 387 89T433
164T448 258Q448 311 433 357T386 433T301 462Z" />
<glyph unicode="e" glyph-name="e" d="M537 162Q524 80 465 31T313 -18Q234 -18 181 17T102 115T75 257Q75 345 105 408T189 505T315 540Q396 540 447 502T523 396T548 237H162Q164 160 202 110T316 59Q419 59 453 162H537ZM314 463Q244 463 207 417T164 305H458Q458
349 441 384T391 441T314 463Z" />
<glyph unicode="f" glyph-name="f" d="M342 524H549V456H342V0H259V456H89V524H259V582Q259 664 307 701T452 739Q475 739 498 738T548 733V661Q527 663 507 664T472 666Q400 666 371 647T342 575V524Z" />
<glyph unicode="g" glyph-name="g" d="M296 -218Q211 -218 152 -181T82 -60H169Q187 -148 298 -148Q377 -148 411 -105T446 44V74Q423 28 383 5T290 -18Q213 -18 162 19T87 120T62 264Q62 341 87 403T162 503T287 540Q394 540 448 459V524H531V85Q531 -24 513
-81Q491 -149 436 -183T296 -218ZM302 60Q355 60 387 89T433 164T448 258Q448 311 433 357T386 433T301 462Q252 462 218 436T167 364T149 261Q149 208 165 162T214 88T302 60Z" />
<glyph unicode="h" glyph-name="h" d="M101 0V729H184V446Q212 487 251 513T352 539Q398 539 435 524T495 477T518 396V0H435V363Q435 416 403 441T327 466Q280 466 248 442T200 379T184 295V0H101Z" />
<glyph unicode="i" glyph-name="i" d="M268 599V699H368V599H268ZM359 524V68H520V0H97V68H277V456H97V524H359Z" />
<glyph unicode="j" glyph-name="j" d="M324 599V699H424V599H324ZM332 -35V456H122V524H415V-55Q415 -132 367 -175T227 -218Q193 -218 161 -216T102 -206V-133Q133 -139 164 -141T223 -144Q282 -144 307 -119T332 -35Z" />
<glyph unicode="k" glyph-name="k" d="M219 0H137V729H219V305L444 524H550L361 337L581 0H482L299 282L219 204V0Z" />
<glyph unicode="l" glyph-name="l" d="M379 729V68H540V0H117V68H298V661H117V729H379Z" />
<glyph unicode="m" glyph-name="m" d="M39 0V524H117V470Q134 495 164 515T237 536Q275 536 303 518T344 466Q360 492 391 514T466 536Q515 536 547 507T579 427V0H497V410Q497 438 481 452T439 466Q397 466 374 443T350 378V0H268V410Q268 438 252 452T210 466Q168
466 145 443T121 378V0H39Z" />
<glyph unicode="n" glyph-name="n" d="M101 0V524H178V437Q209 485 249 512T352 539Q398 539 435 524T495 477T518 396V0H435V363Q435 416 403 441T327 466Q280 466 248 442T200 379T184 295V0H101Z" />
<glyph unicode="o" glyph-name="o" d="M309 540Q390 540 442 504T520 404T546 261Q546 182 521 119T443 19T309 -18Q229 -18 176 18T98 118T72 261Q72 341 97 404T176 503T309 540ZM309 463Q256 463 223 435T175 361T159 261Q159 208 174 162T223 87T309 59Q362
59 395 87T443 161T459 261Q459 315 444 361T395 435T309 463Z" />
<glyph unicode="p" glyph-name="p" d="M171 -218H87V524H164V446Q222 540 331 540Q409 540 458 501T532 397T556 256Q556 181 532 119T457 19T332 -18Q281 -18 243 0T171 60V-218ZM317 462Q265 462 233 433T186 358T171 261Q171 210 186 164T233 89T317 60Q370
60 403 88T453 162T469 258Q469 311 453 357T404 433T317 462Z" />
<glyph unicode="q" glyph-name="q" d="M531 524V-218H448V66Q419 21 380 2T286 -18Q216 -18 166 16T89 111T62 255Q62 335 87 399T164 502T290 540Q397 540 457 455V524H531ZM302 462Q253 462 219 436T167 364T149 261Q149 208 165 162T216 88T302 60Q355 60 387
89T433 164T448 258Q448 310 433 356T386 432T302 462Z" />
<glyph unicode="r" glyph-name="r" d="M124 0V524H201V411Q227 467 276 503T389 539Q479 539 526 493T581 369H498Q489 416 462 441T381 466Q329 466 290 439T230 364T208 254V0H124Z" />
<glyph unicode="s" glyph-name="s" d="M501 381H414Q413 420 385 443T309 466Q258 466 227 445T195 389Q195 361 214 344T270 317L389 286Q455 269 488 236T522 146Q522 70 466 26T312 -18Q106 -18 97 159H185Q191 106 223 81T314 56Q370 56 403 76T437 133Q437
167 419 184T358 212L248 241Q177 260 144 292T110 385Q110 456 164 498T311 540Q403 540 451 498T501 381Z" />
<glyph unicode="t" glyph-name="t" d="M313 524H519V456H313V164Q313 106 343 84T430 61Q456 61 478 63T519 71V-2Q494 -9 470 -11T425 -14Q330 -14 280 25T230 149V456H79V524H230V668H313V524Z" />
<glyph unicode="u" glyph-name="u" d="M518 524V0H443V78Q407 26 367 4T268 -18Q199 -18 155 13Q101 52 101 125V524H184V158Q184 105 219 78Q248 55 292 55Q351 55 391 98Q435 145 435 233V524H518Z" />
<glyph unicode="v" glyph-name="v" d="M547 524L355 0H263L71 524H160L311 100L461 524H547Z" />
<glyph unicode="w" glyph-name="w" d="M131 0L22 524H106L181 85H182L255 524H361L437 84H438L513 524H596L485 0H385L308 451H307L231 0H131Z" />
<glyph unicode="x" glyph-name="x" d="M532 524L356 271L537 0H438L309 199L178 0H81L266 267L91 524H189L312 336L437 524H532Z" />
<glyph unicode="y" glyph-name="y" d="M313 -110Q293 -164 256 -191T170 -218Q132 -218 102 -208V-130Q119 -134 132 -135T159 -136Q188 -136 205 -125T233 -85L265 -8L71 524H159L312 99L463 524H549L313 -110Z" />
<glyph unicode="z" glyph-name="z" d="M117 524H508V450L196 73H522V0H96V75L409 451H117V524Z" />
<glyph unicode="{" glyph-name="braceleft" d="M171 383Q219 383 239 406T259 483V648Q259 709 288 744T368 779H460V713H397Q360 713 347 700T334 647V487Q334 426 316 397T244 350Q297 333 315 303T334 212V52Q334 13 347 0T397 -14H460V-80H368Q318 -80 289
-45T259 51V216Q259 270 239 293T171 317H143V383H171Z" />
<glyph unicode="|" glyph-name="bar" d="M268 -80V779H350V-80H268Z" />
<glyph unicode="}" glyph-name="braceright" d="M447 316Q399 316 379 293T359 216V51Q359 -10 330 -45T250 -80H158V-14H221Q258 -14 271 -1T284 52V212Q284 273 303 302T374 349Q322 366 303 396T284 487V647Q284 686 271 699T221 713H158V779H250Q300 779 329
744T359 648V483Q359 429 379 406T447 382H475V316H447Z" />
<glyph unicode="~" glyph-name="asciitilde" d="M404 252Q367 252 342 264T296 294T256 323T214 336Q190 336 175 318T159 264H90Q90 311 108 342T154 390T214 406Q251 406 276 394T322 364T362 335T404 322Q428 322 443 341T459 394H528Q528 348 510 316T464
268T404 252Z" />
<glyph unicode="&#xa0;" glyph-name="uni00A0" />
<glyph unicode="&#xa1;" glyph-name="exclamdown" d="M354 -175H263V143L289 326H329L354 143V-175ZM364 413H254V524H364V413Z" />
<glyph unicode="&#xa2;" glyph-name="cent" d="M289 -97V-16Q225 -8 180 29T112 126T89 256Q89 329 111 390T177 490T289 538V619H346V539Q430 532 478 481T529 351H452Q446 399 419 428T346 463V58Q439 70 457 183H535Q527 102 479 47T346 -17V-97H289ZM170 256Q170
209 182 168T220 98T289 60V462Q245 453 219 422T182 348T170 256Z" />
<glyph unicode="&#xa3;" glyph-name="sterling" d="M94 358H165Q147 391 132 427T117 505Q117 567 145 614T225 688T343 715Q438 715 497 663T561 518H477Q470 577 436 608T344 640Q281 640 241 605T201 510Q201 472 218 435T255 358H422V291H281Q286 276 288
261T291 229Q291 179 266 140T200 72H561V0H94V67Q155 103 187 142T219 228Q219 243 214 259T202 291H94V358Z" />
<glyph unicode="&#xa4;" glyph-name="currency" d="M462 244L516 190L458 136L405 189Q365 159 305 159Q252 159 211 184L159 133L104 190L152 239Q120 283 120 341Q120 397 152 443L98 498L155 551L209 496Q253 522 305 522Q364 522 405 494L463 547L520 489L465
434Q491 393 491 341Q491 291 462 244ZM305 445Q261 445 230 414Q199 384 199 340Q199 297 230 267Q261 236 305 236Q350 236 381 267Q412 297 412 339Q412 384 381 414Q350 445 305 445Z" />
<glyph unicode="&#xa5;" glyph-name="yen" d="M98 194H275V266H98V332H251L21 699H115L313 370L510 699H597L372 332H519V266H349V194H519V128H349V0H275V128H98V194Z" />
<glyph unicode="&#xa6;" glyph-name="brokenbar" d="M268 437V779H350V437H268ZM350 262V-80H268V262H350Z" />
<glyph unicode="&#xa7;" glyph-name="section" d="M484 -56Q484 -109 459 -147T391 -206T298 -227Q254 -227 211 -209T140 -148T112 -28H197Q197 -86 223 -118T299 -150Q340 -150 367 -128T394 -64Q394 -13 340 24L170 141Q125 173 102 208T78 298Q78 348 102
383T183 448Q162 468 151 496T139 549Q139 599 164 636T232 694T324 715Q399 715 448 668T498 538V510H415V536Q415 581 389 609T318 638Q277 638 253 613T229 553Q229 531 241 514T286 476L432 382Q492 344 516 306T540 215Q540 99 431 59Q454 38 469 7T484 -56ZM222
215L387 92Q424 110 442 137T461 194Q461 256 388 305L228 415Q189 390 173 367T157 314Q157 284 170 264T222 215Z" />
<glyph unicode="&#xa8;" glyph-name="dieresis" d="M176 715H280V612H176V715ZM338 715H442V612H338V715Z" />
<glyph unicode="&#xa9;" glyph-name="copyright" d="M309 168Q233 168 173 203T77 300T42 438Q42 515 77 576T172 672T309 708Q386 708 446 673T541 576T576 438Q576 362 541 301T446 204T309 168ZM309 211Q373 211 423 241T503 322T533 438Q533 502 504 553T424
635T309 665Q245 665 195 635T115 554T85 438Q85 374 114 323T194 241T309 211ZM308 293Q246 293 215 335T183 438Q183 504 216 544T310 584Q355 584 388 559T425 479H366Q361 508 348 521T312 534Q274 534 258 505T242 437Q242 400 257 371T310 342Q360 342 366
401H426Q424 349 391 321T308 293Z" />
<glyph unicode="&#xaa;" glyph-name="ordfeminine" d="M462 413V371Q446 365 430 365Q405 365 393 374T375 408Q328 365 270 365Q222 365 193 391Q166 417 166 461Q166 524 223 548Q251 560 323 566Q352 569 362 575T372 598V612Q372 656 305 656Q272 656 258
644T237 600H178Q183 708 307 708Q429 708 429 613V435Q429 412 452 412Q454 412 457 412T462 413ZM372 482V534Q357 527 296 518Q257 512 241 500T224 464Q224 442 239 430T281 417Q318 417 345 436T372 482ZM172 320H449V269H172V320Z" />
<glyph unicode="&#xab;" glyph-name="guillemotleft" d="M285 74L72 239V335L285 500V407L129 289L285 170V74ZM546 74L333 239V335L546 500V407L390 289L546 170V74Z" />
<glyph unicode="&#xac;" glyph-name="logicalnot" d="M57 287V357H561V68H491V287H57Z" />
<glyph unicode="&#xae;" glyph-name="registered" d="M309 168Q233 168 173 203T77 300T42 438Q42 515 77 576T172 672T309 708Q386 708 446 673T541 576T576 438Q576 362 541 301T446 204T309 168ZM309 211Q373 211 423 241T503 322T533 438Q533 502 504 553T424
635T309 665Q245 665 195 635T115 554T85 438Q85 374 114 323T194 241T309 211ZM208 300V577H353Q392 577 410 556T429 502Q429 453 383 434Q401 427 409 418T419 391Q420 375 422 332Q423 317 434 310V300H377Q372 310 371 319T369 347V367Q369 375 369 384T363
399Q354 412 332 412H261V300H208ZM261 456H333Q356 456 366 464T377 495Q377 516 367 524T333 533H261V456Z" />
<glyph unicode="&#xaf;" glyph-name="overscore" d="M172 701H446V631H172V701Z" />
<glyph unicode="&#xb0;" glyph-name="degree" d="M310 359Q260 359 220 382T157 446T134 536Q134 586 157 625T220 688T310 712Q361 712 400 689T462 626T485 536Q485 486 463 446T401 383T310 359ZM310 421Q358 421 388 454T419 536Q419 584 389 617T310 650Q262
650 231 617T200 536Q200 487 231 454T310 421Z" />
<glyph unicode="&#xb1;" glyph-name="plusminus" d="M327 416H534V346H327V139H257V346H50V416H257V623H327V416ZM50 70H534V0H50V70Z" />
<glyph unicode="&#xb2;" glyph-name="uni00B2" d="M155 274Q157 321 168 351T204 406T275 456L331 488Q364 507 378 527T392 573Q392 605 373 624T318 643Q236 643 234 547H164Q163 621 201 661T319 702Q386 702 425 668T464 575Q464 532 441 501T366 440L304
404Q280 391 266 377T244 338H461V274H155Z" />
<glyph unicode="&#xb3;" glyph-name="uni00B3" d="M307 260Q234 260 195 297T155 403H225Q227 360 247 340T309 320Q347 320 369 340T391 395Q391 433 364 451T274 465V519Q333 519 355 532T377 579Q377 609 359 626T308 643Q268 643 251 623T233 558H163Q168
702 308 702Q373 702 411 670T449 582Q449 524 394 496Q463 471 463 395Q463 334 421 297T307 260Z" />
<glyph unicode="&#xb4;" glyph-name="acute" d="M261 592L357 740H470L321 592H261Z" />
<glyph unicode="&#xb5;" glyph-name="uni00B5" d="M576 54V-9Q542 -18 519 -18Q436 -18 433 66Q373 -18 270 -18Q219 -18 180 8V-220H97V524H180V158Q180 120 195 98T236 65T287 55Q335 55 366 79T414 144T430 233V524H513V93Q513 62 533 57T576 54Z" />
<glyph unicode="&#xb6;" glyph-name="paragraph" d="M305 699H556V635H499V-80H435V635H353V-80H289V229Q215 233 164 266T88 350T62 459Q62 526 93 580T179 667T305 699Z" />
<glyph unicode="&#xb7;" glyph-name="middot" d="M241 399H377V263H241V399Z" />
<glyph unicode="&#xb8;" glyph-name="cedilla" d="M281 -84L328 12H370L333 -63Q346 -60 360 -60Q389 -60 411 -76T433 -128Q433 -168 403 -191T321 -214Q299 -214 277 -208T237 -191L255 -147Q270 -154 288 -159T325 -164Q343 -164 358 -157T373 -129Q373 -115
363 -108T337 -101Q318 -101 301 -112L281 -84Z" />
<glyph unicode="&#xb9;" glyph-name="uni00B9" d="M294 274V568H176V618Q231 620 258 627T297 652T317 699H366V274H294Z" />
<glyph unicode="&#xba;" glyph-name="ordmasculine" d="M309 708Q378 708 414 663T451 534Q451 460 417 413T309 365Q241 365 204 409T167 536Q167 585 181 623T227 685T309 708ZM309 656Q270 656 248 625T225 537Q225 509 232 482T258 436T309 417Q348 417 370
448T393 535Q393 564 386 592T361 638T309 656ZM178 320H441V269H178V320Z" />
<glyph unicode="&#xbb;" glyph-name="guillemotright" d="M333 500L546 335V239L333 74V167L489 285L333 404V500ZM72 500L285 335V239L72 74V167L228 285L72 404V500Z" />
<glyph unicode="&#xbc;" glyph-name="onequarter" d="M106 359V593H12V637Q56 638 78 644T111 664T127 699H172V359H106ZM18 0L525 699H601L93 0H18ZM480 0V77H334V131L479 340H546V130H589V77H546V0H480ZM388 130H480V263L388 130Z" />
<glyph unicode="&#xbd;" glyph-name="onehalf" d="M106 359V593H12V637Q56 638 78 644T111 664T127 699H172V359H106ZM18 0L525 699H601L93 0H18ZM345 0Q347 35 355 58T382 101T435 141L478 168Q508 187 518 202T528 238Q528 263 514 277T473 292Q442 292 428
272T415 219H351Q348 274 378 309T475 345Q531 345 562 318T593 241Q593 206 576 182T514 129L465 98Q452 91 444 82T428 58H591V0H345Z" />
<glyph unicode="&#xbe;" glyph-name="threequarters" d="M129 354Q71 354 39 384T7 469H71Q74 408 131 408Q158 408 174 423T190 463Q190 495 168 506T102 516V562Q144 562 161 573T179 610Q179 632 166 645T129 659Q100 659 88 644T76 594H13Q18 711 130 711Q183
711 213 685T244 615Q244 570 201 545Q256 521 256 464Q256 414 222 384T129 354ZM18 0L525 699H601L93 0H18ZM480 0V77H334V131L479 340H546V130H589V77H546V0H480ZM388 130H480V263L388 130Z" />
<glyph unicode="&#xbf;" glyph-name="questiondown" d="M272 288V325H362V280Q362 251 355 229T326 182T258 117Q218 82 201 55T183 -13Q183 -58 213 -83T301 -109Q365 -109 402 -75T440 37H525Q525 -74 463 -130T300 -187Q205 -187 149 -143T93 -15Q93 23 102
50T133 104T193 164Q225 192 248 219T272 288ZM373 413H263V524H373V413Z" />
<glyph unicode="&#xc0;" glyph-name="Agrave" d="M491 0L429 209H188L126 0H30L251 699H368L588 0H491ZM211 287H406L308 615L211 287ZM357 767H297L148 915H261L357 767Z" />
<glyph unicode="&#xc1;" glyph-name="Aacute" d="M491 0L429 209H188L126 0H30L251 699H368L588 0H491ZM211 287H406L308 615L211 287ZM259 767L355 915H468L319 767H259Z" />
<glyph unicode="&#xc2;" glyph-name="Acircumflex" d="M491 0L429 209H188L126 0H30L251 699H368L588 0H491ZM211 287H406L308 615L211 287ZM164 766L260 916H354L451 766H388L307 862L228 766H164Z" />
<glyph unicode="&#xc3;" glyph-name="Atilde" d="M491 0L429 209H188L126 0H30L251 699H368L588 0H491ZM211 287H406L308 615L211 287ZM407 892H465Q450 788 375 788Q358 788 333 798T283 819T242 829Q219 829 209 789H151Q168 892 237 892Q256 892 280 883T329
863T370 853Q397 853 407 892Z" />
<glyph unicode="&#xc4;" glyph-name="Adieresis" d="M491 0L429 209H188L126 0H30L251 699H368L588 0H491ZM211 287H406L308 615L211 287ZM175 890H279V787H175V890ZM337 890H441V787H337V890Z" />
<glyph unicode="&#xc5;" glyph-name="Aring" d="M491 0L429 209H188L126 0H30L251 699H368L588 0H491ZM211 287H406L308 615L211 287ZM308 929Q345 929 370 904T396 841Q396 804 371 779T308 753Q271 753 246 778T220 841Q220 878 245 903T308 929ZM308 886Q288
886 277 873T265 841Q265 822 276 809T308 796Q328 796 339 809T351 841Q351 860 340 873T308 886Z" />
<glyph unicode="&#xc6;" glyph-name="AE" d="M306 0V206H161L90 0H-1L245 699H587V619H392V398H572V318H392V80H605V0H306ZM306 619H302L187 284H306V619Z" />
<glyph unicode="&#xc7;" glyph-name="Ccedilla" d="M575 504H480Q465 561 433 597T334 633Q268 633 228 597T169 497T151 348Q151 206 198 135T334 64Q404 64 438 108T487 237H582Q568 110 502 46T333 -18Q242 -18 180 26T86 153T54 347Q54 422 69 489T118 606T205
686T337 715Q407 715 456 687T535 612T575 504ZM289 -84L336 12H378L341 -63Q354 -60 368 -60Q397 -60 419 -76T441 -128Q441 -168 411 -191T329 -214Q307 -214 285 -208T245 -191L263 -147Q278 -154 296 -159T333 -164Q351 -164 366 -157T381 -129Q381 -115 371
-108T345 -101Q326 -101 309 -112L289 -84Z" />
<glyph unicode="&#xc8;" glyph-name="Egrave" d="M506 317H206V82H539V0H113V699H521V617H206V399H506V317ZM366 767H306L157 915H270L366 767Z" />
<glyph unicode="&#xc9;" glyph-name="Eacute" d="M506 317H206V82H539V0H113V699H521V617H206V399H506V317ZM268 767L364 915H477L328 767H268Z" />
<glyph unicode="&#xca;" glyph-name="Ecircumflex" d="M506 317H206V82H539V0H113V699H521V617H206V399H506V317ZM173 766L269 916H363L460 766H397L316 862L237 766H173Z" />
<glyph unicode="&#xcb;" glyph-name="Edieresis" d="M506 317H206V82H539V0H113V699H521V617H206V399H506V317ZM184 890H288V787H184V890ZM346 890H450V787H346V890Z" />
<glyph unicode="&#xcc;" glyph-name="Igrave" d="M114 0V78H262V621H114V699H505V621H356V78H505V0H114ZM358 767H298L149 915H262L358 767Z" />
<glyph unicode="&#xcd;" glyph-name="Iacute" d="M114 0V78H262V621H114V699H505V621H356V78H505V0H114ZM260 767L356 915H469L320 767H260Z" />
<glyph unicode="&#xce;" glyph-name="Icircumflex" d="M114 0V78H262V621H114V699H505V621H356V78H505V0H114ZM165 766L261 916H355L452 766H389L308 862L229 766H165Z" />
<glyph unicode="&#xcf;" glyph-name="Idieresis" d="M114 0V78H262V621H114V699H505V621H356V78H505V0H114ZM176 890H280V787H176V890ZM338 890H442V787H338V890Z" />
<glyph unicode="&#xd0;" glyph-name="Eth" d="M314 0H88V317H11V399H88V699H314Q403 699 462 654T550 531T580 350Q580 248 551 169T462 45T314 0ZM181 617V399H312V317H181V82H298Q396 82 439 153T483 349Q483 474 440 545T298 617H181Z" />
<glyph unicode="&#xd1;" glyph-name="Ntilde" d="M456 699H542V0H438L163 559H162V0H76V699H177L455 135H456V699ZM408 892H466Q451 788 376 788Q359 788 334 798T284 819T243 829Q220 829 210 789H152Q169 892 238 892Q257 892 281 883T330 863T371 853Q398 853
408 892Z" />
<glyph unicode="&#xd2;" glyph-name="Ograve" d="M309 715Q438 715 509 619T581 348Q581 174 510 78T309 -18Q180 -18 109 78T37 348Q37 522 108 618T309 715ZM309 633Q227 633 181 558T134 348Q134 215 180 140T309 64Q392 64 438 139T484 348Q484 482 438 557T309
633ZM358 767H298L149 915H262L358 767Z" />
<glyph unicode="&#xd3;" glyph-name="Oacute" d="M309 715Q438 715 509 619T581 348Q581 174 510 78T309 -18Q180 -18 109 78T37 348Q37 522 108 618T309 715ZM309 633Q227 633 181 558T134 348Q134 215 180 140T309 64Q392 64 438 139T484 348Q484 482 438 557T309
633ZM260 767L356 915H469L320 767H260Z" />
<glyph unicode="&#xd4;" glyph-name="Ocircumflex" d="M309 715Q438 715 509 619T581 348Q581 174 510 78T309 -18Q180 -18 109 78T37 348Q37 522 108 618T309 715ZM309 633Q227 633 181 558T134 348Q134 215 180 140T309 64Q392 64 438 139T484 348Q484 482 438
557T309 633ZM165 766L261 916H355L452 766H389L308 862L229 766H165Z" />
<glyph unicode="&#xd5;" glyph-name="Otilde" d="M309 715Q438 715 509 619T581 348Q581 174 510 78T309 -18Q180 -18 109 78T37 348Q37 522 108 618T309 715ZM309 633Q227 633 181 558T134 348Q134 215 180 140T309 64Q392 64 438 139T484 348Q484 482 438 557T309
633ZM408 892H466Q451 788 376 788Q359 788 334 798T284 819T243 829Q220 829 210 789H152Q169 892 238 892Q257 892 281 883T330 863T371 853Q398 853 408 892Z" />
<glyph unicode="&#xd6;" glyph-name="Odieresis" d="M309 715Q438 715 509 619T581 348Q581 174 510 78T309 -18Q180 -18 109 78T37 348Q37 522 108 618T309 715ZM309 633Q227 633 181 558T134 348Q134 215 180 140T309 64Q392 64 438 139T484 348Q484 482 438
557T309 633ZM176 890H280V787H176V890ZM338 890H442V787H338V890Z" />
<glyph unicode="&#xd7;" glyph-name="multiply" d="M140 104L91 154L259 322L91 490L141 540L309 372L476 539L526 490L358 322L526 154L477 105L309 273L140 104Z" />
<glyph unicode="&#xd8;" glyph-name="Oslash" d="M309 715Q414 715 482 650L535 724L584 690L521 601Q581 506 581 348Q581 174 510 78T309 -18Q202 -18 134 49L83 -24L34 10L95 98Q37 192 37 348Q37 522 108 618T309 715ZM309 633Q227 633 181 558T134 348Q134
253 158 187L428 572Q383 633 309 633ZM484 348Q484 445 459 512L189 127Q234 64 309 64Q392 64 438 139T484 348Z" />
<glyph unicode="&#xd9;" glyph-name="Ugrave" d="M459 219V699H552V206Q552 125 519 76T430 5T308 -18Q240 -18 185 5T98 77T66 206V699H159V219Q159 158 179 125T234 78T308 64Q349 64 383 78T438 125T459 219ZM358 767H298L149 915H262L358 767Z" />
<glyph unicode="&#xda;" glyph-name="Uacute" d="M459 219V699H552V206Q552 125 519 76T430 5T308 -18Q240 -18 185 5T98 77T66 206V699H159V219Q159 158 179 125T234 78T308 64Q349 64 383 78T438 125T459 219ZM260 767L356 915H469L320 767H260Z" />
<glyph unicode="&#xdb;" glyph-name="Ucircumflex" d="M459 219V699H552V206Q552 125 519 76T430 5T308 -18Q240 -18 185 5T98 77T66 206V699H159V219Q159 158 179 125T234 78T308 64Q349 64 383 78T438 125T459 219ZM165 766L261 916H355L452 766H389L308 862L229
766H165Z" />
<glyph unicode="&#xdc;" glyph-name="Udieresis" d="M459 219V699H552V206Q552 125 519 76T430 5T308 -18Q240 -18 185 5T98 77T66 206V699H159V219Q159 158 179 125T234 78T308 64Q349 64 383 78T438 125T459 219ZM176 890H280V787H176V890ZM338 890H442V787H338V890Z" />
<glyph unicode="&#xdd;" glyph-name="Yacute" d="M597 699L359 274V0H266V274L21 699H127L314 363L493 699H597ZM260 767L356 915H469L320 767H260Z" />
<glyph unicode="&#xde;" glyph-name="Thorn" d="M182 699V571H346Q409 571 460 548T541 478T571 362Q571 293 541 247T460 178T346 154H182V0H91V699H182ZM182 233H334Q401 233 438 267T476 362Q476 422 439 457T334 493H182V233Z" />
<glyph unicode="&#xdf;" glyph-name="germandbls" d="M293 342V420Q372 412 415 444T459 544Q459 592 422 626T324 660Q259 660 217 623T174 508V0H92V508Q92 575 112 619T167 688T243 724T326 735Q386 735 435 711T513 643T543 545Q543 499 524 467T476 415T415
391Q458 386 494 361T554 296T577 204Q577 97 512 44T329 -10Q316 -10 304 -9T281 -6V66Q295 65 305 65T322 65Q411 65 452 100T493 204Q493 252 474 281T423 324T358 341T293 342Z" />
<glyph unicode="&#xe0;" glyph-name="agrave" d="M569 55V-8Q538 -17 519 -17Q435 -17 426 62Q382 19 340 1T248 -18Q172 -18 125 22T77 136Q77 190 100 222T156 271T220 293Q234 295 263 299T336 310Q386 317 405 329T425 366V384Q425 462 305 462Q247 462 218
440T183 369H99Q101 460 158 499T309 539Q406 539 456 503T506 396V94Q506 53 551 53Q559 53 569 55ZM425 182V265Q399 253 361 246T289 235Q231 228 197 208T162 138Q162 99 190 77T269 55Q306 55 341 71T401 117T425 182ZM614 592H554L405 740H518L614 592Z"
/>
<glyph unicode="&#xe1;" glyph-name="aacute" d="M569 55V-8Q538 -17 519 -17Q435 -17 426 62Q382 19 340 1T248 -18Q172 -18 125 22T77 136Q77 190 100 222T156 271T220 293Q234 295 263 299T336 310Q386 317 405 329T425 366V384Q425 462 305 462Q247 462 218
440T183 369H99Q101 460 158 499T309 539Q406 539 456 503T506 396V94Q506 53 551 53Q559 53 569 55ZM425 182V265Q399 253 361 246T289 235Q231 228 197 208T162 138Q162 99 190 77T269 55Q306 55 341 71T401 117T425 182ZM516 592L612 740H725L576 592H516Z"
/>
<glyph unicode="&#xe2;" glyph-name="acircumflex" d="M569 55V-8Q538 -17 519 -17Q435 -17 426 62Q382 19 340 1T248 -18Q172 -18 125 22T77 136Q77 190 100 222T156 271T220 293Q234 295 263 299T336 310Q386 317 405 329T425 366V384Q425 462 305 462Q247 462
218 440T183 369H99Q101 460 158 499T309 539Q406 539 456 503T506 396V94Q506 53 551 53Q559 53 569 55ZM425 182V265Q399 253 361 246T289 235Q231 228 197 208T162 138Q162 99 190 77T269 55Q306 55 341 71T401 117T425 182ZM165 591L261 741H355L452 591H389L308
687L229 591H165Z" />
<glyph unicode="&#xe3;" glyph-name="atilde" d="M569 55V-8Q538 -17 519 -17Q435 -17 426 62Q382 19 340 1T248 -18Q172 -18 125 22T77 136Q77 190 100 222T156 271T220 293Q234 295 263 299T336 310Q386 317 405 329T425 366V384Q425 462 305 462Q247 462 218
440T183 369H99Q101 460 158 499T309 539Q406 539 456 503T506 396V94Q506 53 551 53Q559 53 569 55ZM425 182V265Q399 253 361 246T289 235Q231 228 197 208T162 138Q162 99 190 77T269 55Q306 55 341 71T401 117T425 182ZM408 717H466Q451 613 376 613Q359 613
334 623T284 644T243 654Q220 654 210 614H152Q169 717 238 717Q257 717 281 708T330 688T371 678Q398 678 408 717Z" />
<glyph unicode="&#xe4;" glyph-name="adieresis" d="M569 55V-8Q538 -17 519 -17Q435 -17 426 62Q382 19 340 1T248 -18Q172 -18 125 22T77 136Q77 190 100 222T156 271T220 293Q234 295 263 299T336 310Q386 317 405 329T425 366V384Q425 462 305 462Q247 462
218 440T183 369H99Q101 460 158 499T309 539Q406 539 456 503T506 396V94Q506 53 551 53Q559 53 569 55ZM425 182V265Q399 253 361 246T289 235Q231 228 197 208T162 138Q162 99 190 77T269 55Q306 55 341 71T401 117T425 182ZM176 715H280V612H176V715ZM338 715H442V612H338V715Z"
/>
<glyph unicode="&#xe5;" glyph-name="aring" d="M569 55V-8Q538 -17 519 -17Q435 -17 426 62Q382 19 340 1T248 -18Q172 -18 125 22T77 136Q77 190 100 222T156 271T220 293Q234 295 263 299T336 310Q386 317 405 329T425 366V384Q425 462 305 462Q247 462 218
440T183 369H99Q101 460 158 499T309 539Q406 539 456 503T506 396V94Q506 53 551 53Q559 53 569 55ZM425 182V265Q399 253 361 246T289 235Q231 228 197 208T162 138Q162 99 190 77T269 55Q306 55 341 71T401 117T425 182ZM309 754Q346 754 371 729T397 666Q397
629 372 604T309 578Q272 578 247 603T221 666Q221 703 246 728T309 754ZM309 711Q289 711 278 698T266 666Q266 647 277 634T309 621Q329 621 340 634T352 666Q352 685 341 698T309 711Z" />
<glyph unicode="&#xe6;" glyph-name="ae" d="M603 152Q597 71 554 27T448 -18Q403 -18 363 9T305 80Q289 40 255 11T162 -18Q126 -18 93 -1T39 51T18 138Q18 196 46 237T135 291L184 301Q233 311 251 324T269 366V386Q269 425 252 446T190 468Q113 468 107 387H29Q31
456 75 497T190 539Q237 539 272 520T321 459Q338 494 371 517T448 540Q506 540 544 503T599 399T608 241H347Q346 150 373 102T450 53Q517 53 528 152H603ZM444 468Q401 468 376 426T348 307H537Q537 387 512 427T444 468ZM269 158V268Q252 255 225 248T166 232Q133
223 115 205T97 143Q97 100 118 76T178 52Q216 52 242 79T269 158Z" />
<glyph unicode="&#xe7;" glyph-name="ccedilla" d="M533 351H449Q442 403 409 433T321 463Q267 463 234 433T186 356T171 256Q171 204 187 159T237 87T323 59Q434 59 455 183H539Q531 89 475 36T321 -18Q245 -18 192 18T112 117T84 256Q84 335 111 399T191 501T322
540Q418 540 474 487T533 351ZM533 -84L580 12H622L585 -63Q598 -60 612 -60Q641 -60 663 -76T685 -128Q685 -168 655 -191T573 -214Q551 -214 529 -208T489 -191L507 -147Q522 -154 540 -159T577 -164Q595 -164 610 -157T625 -129Q625 -115 615 -108T589 -101Q570
-101 553 -112L533 -84Z" />
<glyph unicode="&#xe8;" glyph-name="egrave" d="M537 162Q524 80 465 31T313 -18Q234 -18 181 17T102 115T75 257Q75 345 105 408T189 505T315 540Q396 540 447 502T523 396T548 237H162Q164 160 202 110T316 59Q419 59 453 162H537ZM314 463Q244 463 207 417T164
305H458Q458 349 441 384T391 441T314 463ZM362 592H302L153 740H266L362 592Z" />
<glyph unicode="&#xe9;" glyph-name="eacute" d="M537 162Q524 80 465 31T313 -18Q234 -18 181 17T102 115T75 257Q75 345 105 408T189 505T315 540Q396 540 447 502T523 396T548 237H162Q164 160 202 110T316 59Q419 59 453 162H537ZM314 463Q244 463 207 417T164
305H458Q458 349 441 384T391 441T314 463ZM264 592L360 740H473L324 592H264Z" />
<glyph unicode="&#xea;" glyph-name="ecircumflex" d="M537 162Q524 80 465 31T313 -18Q234 -18 181 17T102 115T75 257Q75 345 105 408T189 505T315 540Q396 540 447 502T523 396T548 237H162Q164 160 202 110T316 59Q419 59 453 162H537ZM314 463Q244 463 207
417T164 305H458Q458 349 441 384T391 441T314 463ZM169 591L265 741H359L456 591H393L312 687L233 591H169Z" />
<glyph unicode="&#xeb;" glyph-name="edieresis" d="M537 162Q524 80 465 31T313 -18Q234 -18 181 17T102 115T75 257Q75 345 105 408T189 505T315 540Q396 540 447 502T523 396T548 237H162Q164 160 202 110T316 59Q419 59 453 162H537ZM314 463Q244 463 207
417T164 305H458Q458 349 441 384T391 441T314 463ZM180 715H284V612H180V715ZM342 715H446V612H342V715Z" />
<glyph unicode="&#xec;" glyph-name="igrave" d="M359 524V68H520V0H97V68H277V456H97V524H359ZM614 592H554L405 740H518L614 592Z" />
<glyph unicode="&#xed;" glyph-name="iacute" d="M359 524V68H520V0H97V68H277V456H97V524H359ZM516 592L612 740H725L576 592H516Z" />
<glyph unicode="&#xee;" glyph-name="icircumflex" d="M359 524V68H520V0H97V68H277V456H97V524H359ZM165 591L261 741H355L452 591H389L308 687L229 591H165Z" />
<glyph unicode="&#xef;" glyph-name="idieresis" d="M359 524V68H520V0H97V68H277V456H97V524H359ZM176 715H280V612H176V715ZM338 715H442V612H338V715Z" />
<glyph unicode="&#xf0;" glyph-name="eth" d="M170 557L148 607L238 648Q218 662 198 673T158 696L190 753Q213 744 246 727T315 684L437 740L459 690L364 646Q410 605 452 549T520 421T546 259Q546 178 520 116T441 18T309 -18Q231 -18 178 17T99 116T72 261Q72
340 99 398T178 489T301 522Q358 522 397 486Q376 523 348 554T289 611L170 557ZM309 448Q257 448 224 421T175 349T159 251Q159 201 174 157T223 86T309 59Q362 59 395 86T443 156T459 248Q459 301 444 346T396 420T309 448Z" />
<glyph unicode="&#xf1;" glyph-name="ntilde" d="M101 0V524H178V437Q209 485 249 512T352 539Q398 539 435 524T495 477T518 396V0H435V363Q435 416 403 441T327 466Q280 466 248 442T200 379T184 295V0H101ZM421 717H479Q464 613 389 613Q372 613 347 623T297
644T256 654Q233 654 223 614H165Q182 717 251 717Q270 717 294 708T343 688T384 678Q411 678 421 717Z" />
<glyph unicode="&#xf2;" glyph-name="ograve" d="M309 540Q390 540 442 504T520 404T546 261Q546 182 521 119T443 19T309 -18Q229 -18 176 18T98 118T72 261Q72 341 97 404T176 503T309 540ZM309 463Q256 463 223 435T175 361T159 261Q159 208 174 162T223 87T309
59Q362 59 395 87T443 161T459 261Q459 315 444 361T395 435T309 463ZM614 592H554L405 740H518L614 592Z" />
<glyph unicode="&#xf3;" glyph-name="oacute" d="M309 540Q390 540 442 504T520 404T546 261Q546 182 521 119T443 19T309 -18Q229 -18 176 18T98 118T72 261Q72 341 97 404T176 503T309 540ZM309 463Q256 463 223 435T175 361T159 261Q159 208 174 162T223 87T309
59Q362 59 395 87T443 161T459 261Q459 315 444 361T395 435T309 463ZM516 592L612 740H725L576 592H516Z" />
<glyph unicode="&#xf4;" glyph-name="ocircumflex" d="M309 540Q390 540 442 504T520 404T546 261Q546 182 521 119T443 19T309 -18Q229 -18 176 18T98 118T72 261Q72 341 97 404T176 503T309 540ZM309 463Q256 463 223 435T175 361T159 261Q159 208 174 162T223
87T309 59Q362 59 395 87T443 161T459 261Q459 315 444 361T395 435T309 463ZM165 591L261 741H355L452 591H389L308 687L229 591H165Z" />
<glyph unicode="&#xf5;" glyph-name="otilde" d="M309 540Q390 540 442 504T520 404T546 261Q546 182 521 119T443 19T309 -18Q229 -18 176 18T98 118T72 261Q72 341 97 404T176 503T309 540ZM309 463Q256 463 223 435T175 361T159 261Q159 208 174 162T223 87T309
59Q362 59 395 87T443 161T459 261Q459 315 444 361T395 435T309 463ZM408 717H466Q451 613 376 613Q359 613 334 623T284 644T243 654Q220 654 210 614H152Q169 717 238 717Q257 717 281 708T330 688T371 678Q398 678 408 717Z" />
<glyph unicode="&#xf6;" glyph-name="odieresis" d="M309 540Q390 540 442 504T520 404T546 261Q546 182 521 119T443 19T309 -18Q229 -18 176 18T98 118T72 261Q72 341 97 404T176 503T309 540ZM309 463Q256 463 223 435T175 361T159 261Q159 208 174 162T223
87T309 59Q362 59 395 87T443 161T459 261Q459 315 444 361T395 435T309 463ZM176 715H280V612H176V715ZM338 715H442V612H338V715Z" />
<glyph unicode="&#xf7;" glyph-name="divide" d="M257 558H361V454H257V558ZM67 357H551V287H67V357ZM257 190H361V86H257V190Z" />
<glyph unicode="&#xf8;" glyph-name="oslash" d="M114 -19L74 13L122 72Q97 109 85 157T72 261Q72 341 97 404T176 503T309 540Q357 540 395 527T461 488L505 542L545 510L496 450Q521 413 533 365T546 261Q546 182 521 119T443 19T309 -18Q261 -18 223 -5T157
34L114 -19ZM309 463Q256 463 223 435T175 361T159 261Q159 229 164 199T181 144L408 422Q390 441 366 452T309 463ZM459 261Q459 293 454 322T437 378L210 99Q228 81 252 70T309 59Q362 59 395 87T443 161T459 261Z" />
<glyph unicode="&#xf9;" glyph-name="ugrave" d="M518 524V0H443V78Q407 26 367 4T268 -18Q199 -18 155 13Q101 52 101 125V524H184V158Q184 105 219 78Q248 55 292 55Q351 55 391 98Q435 145 435 233V524H518ZM614 592H554L405 740H518L614 592Z" />
<glyph unicode="&#xfa;" glyph-name="uacute" d="M518 524V0H443V78Q407 26 367 4T268 -18Q199 -18 155 13Q101 52 101 125V524H184V158Q184 105 219 78Q248 55 292 55Q351 55 391 98Q435 145 435 233V524H518ZM516 592L612 740H725L576 592H516Z" />
<glyph unicode="&#xfb;" glyph-name="ucircumflex" d="M518 524V0H443V78Q407 26 367 4T268 -18Q199 -18 155 13Q101 52 101 125V524H184V158Q184 105 219 78Q248 55 292 55Q351 55 391 98Q435 145 435 233V524H518ZM165 591L261 741H355L452 591H389L308 687L229
591H165Z" />
<glyph unicode="&#xfc;" glyph-name="udieresis" d="M518 524V0H443V78Q407 26 367 4T268 -18Q199 -18 155 13Q101 52 101 125V524H184V158Q184 105 219 78Q248 55 292 55Q351 55 391 98Q435 145 435 233V524H518ZM176 715H280V612H176V715ZM338 715H442V612H338V715Z" />
<glyph unicode="&#xfd;" glyph-name="yacute" d="M313 -110Q293 -164 256 -191T170 -218Q132 -218 102 -208V-130Q119 -134 132 -135T159 -136Q188 -136 205 -125T233 -85L265 -8L71 524H159L312 99L463 524H549L313 -110ZM516 592L612 740H725L576 592H516Z" />
<glyph unicode="&#xfe;" glyph-name="thorn" d="M171 -218H87V729H170V455Q227 540 331 540Q409 540 458 501T532 397T556 256Q556 181 532 119T457 19T332 -18Q281 -18 243 0T171 60V-218ZM317 462Q265 462 233 433T186 358T171 261Q171 210 186 164T233 89T317
60Q370 60 403 88T453 162T469 258Q469 311 453 357T404 433T317 462Z" />
<glyph unicode="&#xff;" glyph-name="ydieresis" d="M313 -110Q293 -164 256 -191T170 -218Q132 -218 102 -208V-130Q119 -134 132 -135T159 -136Q188 -136 205 -125T233 -85L265 -8L71 524H159L312 99L463 524H549L313 -110ZM176 715H280V612H176V715ZM338 715H442V612H338V715Z"
/>
<glyph unicode="&#x2013;" glyph-name="endash" d="M56 358H562V286H56V358Z" />
<glyph unicode="&#x2014;" glyph-name="emdash" d="M0 358H618V286H0V358Z" />
<glyph unicode="&#x2018;" glyph-name="quoteleft" d="M377 534V398H241V569Q241 629 274 664T374 699H392V648H376Q297 648 297 572V534H377Z" />
<glyph unicode="&#x2019;" glyph-name="quoteright" d="M241 563V699H377V528Q377 468 344 433T244 398H226V449H242Q321 449 321 525V563H241Z" />
<glyph unicode="&#x201a;" glyph-name="quotesinglbase" d="M241 0V136H377V-35Q377 -95 344 -130T244 -165H226V-114H242Q321 -114 321 -38V0H241Z" />
<glyph unicode="&#x201c;" glyph-name="quotedblleft" d="M492 534V398H356V569Q356 629 389 664T489 699H507V648H491Q412 648 412 572V534H492ZM262 534V398H126V569Q126 629 159 664T259 699H277V648H261Q182 648 182 572V534H262Z" />
<glyph unicode="&#x201d;" glyph-name="quotedblright" d="M126 563V699H262V528Q262 468 229 433T129 398H111V449H127Q206 449 206 525V563H126ZM356 563V699H492V528Q492 468 459 433T359 398H341V449H357Q436 449 436 525V563H356Z" />
<glyph unicode="&#x201e;" glyph-name="quotedblbase" d="M382 0V136H518V-35Q518 -95 485 -130T385 -165H367V-114H383Q462 -114 462 -38V0H382ZM356 0V136H492V-35Q492 -95 459 -130T359 -165H341V-114H357Q436 -114 436 -38V0H356Z" />
<glyph unicode="&#x2022;" glyph-name="bullet" d="M309 454Q343 454 371 438T416 393T433 330Q433 295 416 267T371 223T309 206Q275 206 247 222T202 267T185 330Q185 365 202 393T247 437T309 454Z" />
<glyph unicode="&#x2039;" glyph-name="guilsinglleft" d="M446 74L172 237V337L446 500V411L229 288L446 165V74Z" />
<glyph unicode="&#x203a;" glyph-name="guilsinglright" d="M172 500L446 337V237L172 74V163L389 286L172 409V500Z" />
</font>
</defs>
</svg>
