<?xml version="1.0" standalone="no"?>
<!DOCTYPE svg PUBLIC "-//W3C//DTD SVG 1.1//EN" "http://www.w3.org/Graphics/SVG/1.1/DTD/svg11.dtd">
<svg xmlns="http://www.w3.org/2000/svg">
<defs >
<font id="Metrophobic" horiz-adv-x="1203" ><font-face
    font-family="Metrophobic"
    units-per-em="2048"
    panose-1="0 0 0 0 0 0 0 0 0 0"
    ascent="2065"
    descent="-460"
    alphabetic="0" />
<glyph unicode=" " glyph-name="space" horiz-adv-x="540" />
<glyph unicode="!" glyph-name="exclam" horiz-adv-x="526" d="M202 355L174 1186V1441H352V1186L325 355H202ZM263 -22Q199 -22 170 4T140 96Q140 162 169 188T263 214Q328 214 357 188T386 96Q386 30 357 4T263 -22Z" />
<glyph unicode="&quot;" glyph-name="quotedbl" horiz-adv-x="766" d="M533 928Q512 928 495 978T466 1099T447 1236T440 1336Q440 1402 462 1431T533 1460Q582 1460 604 1431T626 1336Q626 1303 620 1237T601 1099T571 978T533 928ZM233 928Q212 928 195 978T166
1099T147 1236T140 1336Q140 1402 162 1431T233 1460Q282 1460 304 1431T326 1336Q326 1303 320 1237T301 1099T271 978T233 928Z" />
<glyph unicode="#" glyph-name="numbersign" horiz-adv-x="1315" d="M507 1441H645L559 1026H863L949 1441H1087L1001 1026H1215V897H974L904 557H1149V428H877L788 0H650L739 428H436L347 0H208L297 428H100V557H324L394 897H165V1026H421L507 1441ZM462 557H766L836
897H533L462 557Z" />
<glyph unicode="$" glyph-name="dollar" horiz-adv-x="1314" d="M150 378H315Q315 260 377 207T593 145V684Q353 725 256 814T158 1068Q158 1232 264 1327T593 1438V1681H723V1441Q951 1435 1049 1354T1148 1091H989Q989 1201 934 1247T723 1297V819Q974 776 1079
682T1184 411Q1184 221 1074 118T723 2V-220H593V1Q366 11 258 99T150 378ZM332 1073Q332 970 390 918T593 840V1295Q456 1283 394 1230T332 1073ZM723 144Q881 152 945 213T1010 403Q1010 513 949 572T723 662V144Z" />
<glyph unicode="%" glyph-name="percent" horiz-adv-x="1700" d="M434 713Q255 713 178 805T100 1085Q100 1273 177 1364T434 1456Q614 1456 692 1366T770 1087Q770 900 692 807T434 713ZM408 0L1154 1441H1292L546 0H408ZM438 828Q548 828 588 884T629 1084Q629
1227 588 1284T434 1342Q323 1342 282 1285T241 1082Q241 937 282 883T438 828ZM1264 -20Q1085 -20 1008 72T930 352Q930 540 1007 631T1264 723Q1444 723 1522 633T1600 354Q1600 167 1522 74T1264 -20ZM1268 95Q1378 95 1418 151T1459 351Q1459 494 1418 551T1264
609Q1153 609 1112 552T1071 349Q1071 204 1112 150T1268 95Z" />
<glyph unicode="&amp;" glyph-name="ampersand" horiz-adv-x="1475" d="M1475 137L1369 3L1153 174Q1092 73 970 25T666 -23Q393 -23 257 86T120 432Q120 578 172 679T342 835Q293 900 273 970T252 1111Q252 1278 363 1375T662 1472Q871 1472 963 1389T1073 1126H898Q884
1230 836 1279T663 1328Q547 1328 489 1273T430 1115Q430 1045 451 988T553 867L1053 471V752H1214V433Q1214 391 1209 348L1475 137ZM295 432Q295 257 384 189T667 121Q810 121 899 154T1026 275L436 743Q358 698 327 628T295 432Z" />
<glyph unicode="&apos;" glyph-name="quotesingle" horiz-adv-x="466" d="M233 928Q212 928 195 978T166 1099T147 1236T140 1336Q140 1402 162 1431T233 1460Q282 1460 304 1431T326 1336Q326 1303 320 1237T301 1099T271 978T233 928Z" />
<glyph unicode="(" glyph-name="parenleft" horiz-adv-x="748" d="M220 539Q220 763 226 912T252 1154T315 1307Q350 1355 389 1382T485 1422T633 1441V1318Q545 1318 497 1292T423 1200Q399 1136 392 970T384 539Q384 260 391 89T423 -148Q448 -215 496 -240T633
-266V-389Q542 -384 485 -371T389 -331T315 -255Q274 -198 254 -99T227 156T220 539Z" />
<glyph unicode=")" glyph-name="parenright" horiz-adv-x="748" d="M528 539Q528 312 522 156T495 -99T433 -255Q399 -303 360 -330T264 -371T115 -389V-266Q204 -266 252 -241T325 -148Q349 -83 356 88T364 539Q364 803 357 969T325 1200Q300 1266 252 1292T115
1318V1441Q205 1436 262 1423T359 1382T433 1307Q476 1248 496 1155T522 912T528 539Z" />
<glyph unicode="*" glyph-name="asterisk" horiz-adv-x="981" d="M861 945L796 825L538 997L560 701H427L448 997L185 825L121 937L417 1076L120 1204L185 1323L448 1151L427 1447H560L538 1151L796 1323L861 1203L574 1076L861 945Z" />
<glyph unicode="+" glyph-name="plus" horiz-adv-x="1200" d="M1088 583H679V172H523V583H113V735H523V1147H679V735H1088V583Z" />
<glyph unicode="," glyph-name="comma" horiz-adv-x="526" d="M386 89Q386 -148 242 -283L160 -228Q201 -168 221 -124T247 -22Q195 -22 168 0T140 89Q140 158 170 186T265 214Q331 214 358 186T386 89Z" />
<glyph unicode="-" glyph-name="hyphen" horiz-adv-x="839" d="M140 578V732H699V578H140Z" />
<glyph unicode="." glyph-name="period" horiz-adv-x="526" d="M263 -22Q199 -22 170 4T140 96Q140 162 169 188T263 214Q328 214 357 188T386 96Q386 30 357 4T263 -22Z" />
<glyph unicode="/" glyph-name="slash" horiz-adv-x="800" d="M20 -200L616 1641H780L184 -200H20Z" />
<glyph unicode="0" glyph-name="zero" horiz-adv-x="1340" d="M672 -23Q471 -23 355 54T190 299T140 737Q140 996 189 1158T355 1396T672 1472Q873 1472 988 1396T1152 1158T1200 737Q1200 466 1152 299T989 55T672 -23ZM672 123Q775 123 842 150T949 246T1005
433T1022 737Q1022 962 992 1090T885 1272T672 1326Q535 1326 458 1272T350 1090T318 737Q318 552 335 433T392 246T500 151T672 123Z" />
<glyph unicode="1" glyph-name="one" horiz-adv-x="699" d="M85 1172V1334L313 1449H479V0H305V1277L85 1172Z" />
<glyph unicode="2" glyph-name="two" horiz-adv-x="1103" d="M278 1078H100Q100 1278 211 1373T554 1469Q794 1469 903 1380T1013 1091Q1013 1016 996 955T936 835T819 712T628 563Q453 439 376 346T298 152H995V0H109V34Q109 136 126 214T185 361T301 499T490
653Q630 757 705 827T810 959T839 1097Q839 1216 772 1270T547 1325Q402 1325 340 1269T278 1078Z" />
<glyph unicode="3" glyph-name="three" horiz-adv-x="1187" d="M298 1078H120Q119 1277 230 1373T574 1469Q814 1469 923 1374T1033 1091Q1033 957 965 879T754 757Q904 731 985 637T1067 393Q1067 187 954 83T591 -21Q350 -21 235 75T120 370H298Q298 237 363
180T583 123Q750 123 821 185T893 383Q893 526 801 602T533 679H395V837H520Q686 837 772 905T859 1097Q859 1216 792 1270T567 1325Q422 1325 360 1269T298 1078Z" />
<glyph unicode="4" glyph-name="four" horiz-adv-x="1168" d="M741 -1V334H113V492L703 1441H915V481H1098V334H915V-1H741ZM741 479V1250L267 479H741Z" />
<glyph unicode="5" glyph-name="five" horiz-adv-x="1232" d="M358 618L200 670L255 1440H1065V1288H419L381 797Q440 855 505 878T674 902Q898 902 1010 791T1122 439Q1122 199 1003 88T641 -23Q400 -23 285 73T170 368H348Q348 235 413 178T633 121Q800 121
874 190T948 439Q948 618 874 688T633 758Q429 758 358 618Z" />
<glyph unicode="6" glyph-name="six" horiz-adv-x="1223" d="M1112 1081H934Q934 1215 864 1271T645 1328Q473 1328 394 1236T314 948V773Q394 849 467 875T646 902Q895 902 1014 791T1133 439Q1133 207 1001 92T636 -23Q389 -23 265 88T140 438V930Q140 1472
645 1472Q875 1472 994 1376T1112 1081ZM637 121Q790 121 874 194T959 439Q959 618 881 688T627 758Q496 758 424 724T315 618V439Q315 263 392 192T637 121Z" />
<glyph unicode="7" glyph-name="seven" horiz-adv-x="1013" d="M40 1289V1441H987L993 1293Q827 1103 697 885T493 442T419 0H245Q245 217 315 441T509 882T796 1289H40Z" />
<glyph unicode="8" glyph-name="eight" horiz-adv-x="1217" d="M608 -23Q372 -23 246 77T120 391Q120 664 342 760Q153 854 153 1086Q153 1285 275 1378T608 1472Q820 1472 942 1379T1064 1086Q1064 968 1021 888T877 760Q995 711 1046 621T1097 391Q1097 178
971 78T608 -23ZM609 824Q756 824 823 879T890 1077Q890 1218 823 1273T609 1328Q462 1328 395 1273T327 1077Q327 935 394 880T609 824ZM609 121Q773 121 848 182T923 401Q923 559 848 621T609 684Q445 684 370 622T294 401Q294 244 369 183T609 121Z" />
<glyph unicode="9" glyph-name="nine" horiz-adv-x="1223" d="M111 368H289Q289 235 359 178T578 121Q750 121 829 213T909 501V676Q829 600 757 574T577 547Q328 547 209 658T90 1010Q90 1243 222 1357T587 1472Q835 1472 959 1361T1083 1011V519Q1083 -23 578
-23Q348 -23 229 73T111 368ZM586 1328Q433 1328 349 1255T264 1010Q264 831 342 761T596 691Q727 691 799 726T908 831V1010Q908 1186 831 1257T586 1328Z" />
<glyph unicode=":" glyph-name="colon" horiz-adv-x="526" d="M263 718Q199 718 170 744T140 836Q140 902 169 928T263 954Q328 954 357 928T386 836Q386 770 357 744T263 718ZM263 -22Q199 -22 170 4T140 96Q140 162 169 188T263 214Q328 214 357 188T386 96Q386
30 357 4T263 -22Z" />
<glyph unicode=";" glyph-name="semicolon" horiz-adv-x="526" d="M263 718Q199 718 170 744T140 836Q140 902 169 928T263 954Q328 954 357 928T386 836Q386 770 357 744T263 718ZM386 89Q386 -148 242 -283L160 -228Q201 -168 221 -124T247 -22Q195 -22 168
0T140 89Q140 158 170 186T265 214Q331 214 358 186T386 89Z" />
<glyph unicode="&lt;" glyph-name="less" horiz-adv-x="1200" d="M131 616V702L1004 1194L1074 1033L380 661L1074 287L1004 127L131 616Z" />
<glyph unicode="=" glyph-name="equal" horiz-adv-x="1200" d="M1088 778H113V930H1088V778ZM1088 379H113V534H1088V379Z" />
<glyph unicode="&gt;" glyph-name="greater" horiz-adv-x="1200" d="M1074 705V619L201 127L131 288L825 660L131 1034L201 1194L1074 705Z" />
<glyph unicode="?" glyph-name="question" horiz-adv-x="1002" d="M391 350V471Q391 554 405 619T460 742T580 855Q703 943 747 1003T793 1131Q794 1225 727 1275T502 1325Q355 1325 294 1269T233 1078H55Q55 1278 166 1373T509 1469Q749 1469 858 1385T967 1127Q967
1055 947 1000T871 887T706 750Q616 685 577 617T537 448V350H391ZM467 -22Q403 -22 374 4T344 96Q344 162 373 188T467 214Q532 214 561 188T590 96Q590 30 561 4T467 -22Z" />
<glyph unicode="@" glyph-name="at" horiz-adv-x="1826" d="M1294 1011L1218 547Q1196 414 1227 352T1347 289Q1414 289 1466 343T1548 491T1578 705Q1578 959 1417 1102T968 1246Q809 1246 680 1192T458 1041T315 819T265 550Q265 273 424 114T889 -45Q960 -45
1049 -27T1220 37L1275 -83Q1190 -134 1078 -156T868 -179Q639 -179 471 -88T212 165T120 536Q120 712 181 864T355 1133T627 1314T978 1379Q1200 1379 1363 1294T1616 1053T1706 685Q1706 535 1657 417T1521 230T1326 161Q1218 161 1165 220T1104 356Q1060 264
986 209T811 153Q669 153 592 247T514 493Q514 635 563 756T704 953T925 1028Q986 1028 1035 1010T1119 941L1130 1011H1294ZM681 497Q681 385 723 337T838 288Q879 288 922 306T999 373T1047 507L1104 854Q1065 882 1028 887T956 893Q869 893 808 839T714 694T681
497Z" />
<glyph unicode="A" glyph-name="A" horiz-adv-x="1376" d="M40 0L584 1441H785L1336 0H1160L1023 361H353L217 0H40ZM400 502H975L685 1294L400 502Z" />
<glyph unicode="B" glyph-name="B" horiz-adv-x="1409" d="M220 0V1441H709Q960 1441 1079 1366T1198 1098Q1198 958 1145 880T967 770Q1121 745 1195 655T1269 401Q1269 198 1152 99T778 0H220ZM390 833H752Q892 833 958 889T1025 1079Q1025 1201 956 1247T720
1294H390V833ZM390 146H777Q956 146 1026 202T1096 410Q1096 562 1016 626T752 691H390V146Z" />
<glyph unicode="C" glyph-name="C" horiz-adv-x="1450" d="M1171 400H1340Q1343 189 1195 75T770 -39Q441 -39 283 144T125 709Q125 1096 289 1284T794 1472Q1059 1472 1201 1358T1340 1033H1171Q1171 1172 1073 1247T794 1322Q618 1322 511 1262T354 1067T305
714Q305 497 350 364T497 171T763 110Q959 110 1065 185T1171 400Z" />
<glyph unicode="D" glyph-name="D" horiz-adv-x="1487" d="M694 0H220V1441H698Q1037 1441 1199 1267T1362 727Q1362 357 1199 179T694 0ZM683 1289H394V152H701Q875 152 981 209T1135 392T1183 723Q1183 938 1137 1061T982 1237T683 1289Z" />
<glyph unicode="E" glyph-name="E" horiz-adv-x="1293" d="M220 0V1441H1180V1289H394V827H1062V677H394V152H1183V0H220Z" />
<glyph unicode="F" glyph-name="F" horiz-adv-x="1250" d="M220 0V1441H1180V1289H394V827H1055V677H394V0H220Z" />
<glyph unicode="G" glyph-name="G" horiz-adv-x="1556" d="M770 -39Q441 -39 283 144T125 708Q125 1096 289 1284T794 1472Q1059 1472 1201 1358T1340 1033H1171Q1171 1172 1073 1247T794 1322Q618 1322 511 1262T354 1067T305 714Q305 497 351 364T499 171T770
110Q965 110 1071 202T1177 465V552H740V704H1351V-10H1227L1210 194Q1085 -39 770 -39Z" />
<glyph unicode="H" glyph-name="H" horiz-adv-x="1590" d="M220 0V1441H394V829H1196V1441H1370V0H1196V677H394V0H220Z" />
<glyph unicode="I" glyph-name="I" horiz-adv-x="994" d="M200 1294V1441H794V1294H584V147H784V0H210V147H410V1294H200Z" />
<glyph unicode="J" glyph-name="J" horiz-adv-x="948" d="M564 306V1441H738V318Q738 134 653 46T402 -42Q244 -42 163 39T81 275H231Q231 172 275 132T394 92Q564 92 564 306Z" />
<glyph unicode="K" glyph-name="K" horiz-adv-x="1406" d="M509 791Q630 791 702 822T822 917T918 1081L1091 1441H1284L1117 1094Q1065 987 1020 914T912 795T745 722Q838 698 900 656T1012 545T1115 372L1311 0H1118L922 384Q873 481 827 536T708 614T509 638H391V0H220V1441H391V791H509Z"
/>
<glyph unicode="L" glyph-name="L" horiz-adv-x="1119" d="M1069 0H220V1441H394V152H1069V0Z" />
<glyph unicode="M" glyph-name="M" horiz-adv-x="1890" d="M220 0V1441H516L926 346H961L1373 1441H1670V0H1514V1286H1478L1059 174H828L412 1286H376V0H220Z" />
<glyph unicode="N" glyph-name="N" horiz-adv-x="1682" d="M220 0V1441H493L1274 173H1306V1441H1462V0H1199L408 1285H376V0H220Z" />
<glyph unicode="O" glyph-name="O" horiz-adv-x="1549" d="M775 -38Q532 -38 390 49T186 308T125 727Q125 973 188 1138T395 1388T775 1472Q1013 1472 1155 1388T1361 1138T1424 728Q1424 479 1363 309T1161 50T775 -38ZM775 111Q969 111 1070 181T1208 389T1245
729Q1245 929 1207 1060T1067 1257T775 1323Q582 1323 481 1256T342 1056T304 721Q304 519 342 383T481 179T775 111Z" />
<glyph unicode="P" glyph-name="P" horiz-adv-x="1337" d="M220 0V1441H659Q875 1441 999 1401T1175 1260T1227 980Q1227 812 1170 712T989 568T659 524H394V0H220ZM394 670H659Q819 670 904 694T1021 786T1054 980Q1054 1111 1022 1180T904 1274T659 1300H394V670Z" />
<glyph unicode="Q" glyph-name="Q" horiz-adv-x="1554" d="M775 -38Q532 -38 390 49T186 308T125 727Q125 973 188 1138T395 1388T775 1472Q1013 1472 1155 1388T1361 1138T1424 728Q1424 479 1363 309T1161 50T775 -38ZM775 110Q969 110 1070 180T1208 389T1245
729Q1245 929 1207 1060T1067 1257T775 1323Q582 1323 481 1256T342 1056T304 721Q304 519 342 383T481 179T775 110ZM774 -308V-158H1429V-308H774Z" />
<glyph unicode="R" glyph-name="R" horiz-adv-x="1427" d="M220 0V1441H695Q897 1441 1013 1403T1178 1279T1227 1050Q1227 784 942 711Q1014 693 1057 664T1128 581T1176 432L1272 0H1096L1015 371Q992 478 958 536T859 616T682 639H394V0H220ZM394 785H722Q886
785 970 843T1054 1040Q1054 1136 1026 1191T927 1270T731 1293H394V785Z" />
<glyph unicode="S" glyph-name="S" horiz-adv-x="1314" d="M150 366H315Q315 227 394 172T674 116Q860 116 935 181T1010 392Q1010 502 952 566T745 658L567 690Q359 728 259 820T158 1087Q158 1276 286 1376T686 1477Q934 1477 1041 1393T1148 1111H989Q989 1193
962 1241T868 1310T681 1332Q497 1332 415 1275T332 1093Q332 992 385 935T584 851L762 819Q977 780 1080 680T1184 400Q1184 189 1059 80T657 -29Q397 -29 274 62T150 366Z" />
<glyph unicode="T" glyph-name="T" horiz-adv-x="1166" d="M50 1289V1441H1117V1289H670V-1H497V1289H50Z" />
<glyph unicode="U" glyph-name="U" horiz-adv-x="1579" d="M384 531Q384 329 489 219T790 109Q984 109 1089 219T1195 531V1441H1369V534Q1369 255 1219 104T790 -48Q512 -48 361 103T210 534V1441H384V531Z" />
<glyph unicode="V" glyph-name="V" horiz-adv-x="1304" d="M765 0H551L45 1441H229L580 372L638 189H671L729 372L1075 1441H1259L765 0Z" />
<glyph unicode="W" glyph-name="W" horiz-adv-x="2017" d="M130 1441H304L580 194H609L667 476L881 1441H1126L1339 474L1399 193H1428L1703 1441H1877L1535 0H1301L1026 1235H991L705 0H471L130 1441Z" />
<glyph unicode="X" glyph-name="X" horiz-adv-x="1304" d="M65 1441H259L654 838L1046 1441H1237L755 710L1239 0H1045L651 584L257 0H66L549 711L65 1441Z" />
<glyph unicode="Y" glyph-name="Y" horiz-adv-x="1186" d="M504 0V596L15 1441H199L578 773H606L990 1441H1171L678 596V0H504Z" />
<glyph unicode="Z" glyph-name="Z" horiz-adv-x="1245" d="M114 1289V1441H1142V1313L319 152H1145V0H100V126L940 1289H114Z" />
<glyph unicode="[" glyph-name="bracketleft" horiz-adv-x="685" d="M220 -389V1441H570V1321H384V-269H570V-389H220Z" />
<glyph unicode="\" glyph-name="backslash" horiz-adv-x="800" d="M780 -200H616L20 1641H184L780 -200Z" />
<glyph unicode="]" glyph-name="bracketright" horiz-adv-x="685" d="M465 -389H115V-269H301V1321H115V1441H465V-389Z" />
<glyph unicode="^" glyph-name="asciicircum" horiz-adv-x="1200" d="M129 586L521 1452H680L1071 586H907L602 1265L293 586H129Z" />
<glyph unicode="_" glyph-name="underscore" horiz-adv-x="1118" d="M978 -154H140V0H978V-154Z" />
<glyph unicode="`" glyph-name="grave" horiz-adv-x="800" d="M316 1462L461 1196H339L134 1462H316Z" />
<glyph unicode="a" glyph-name="a" horiz-adv-x="1131" d="M292 738H153Q153 889 250 961T549 1033Q754 1033 852 958T951 727V211Q951 144 971 123T1051 107V-15Q1032 -22 1017 -23T981 -24Q908 -24 864 15T819 118Q769 51 679 14T470 -23Q301 -23 210 56T119
282Q119 450 226 521T587 593H797V728Q797 826 740 867T549 909Q410 909 351 870T292 738ZM798 305V479H586Q420 479 349 435T277 285Q277 196 337 149T507 102Q647 102 722 154T798 305Z" />
<glyph unicode="b" glyph-name="b" horiz-adv-x="1191" d="M667 -23Q558 -23 491 0T384 60T321 134L303 0H180V1441H334V898Q384 971 460 1002T665 1034Q872 1034 971 914T1071 497Q1071 217 972 97T667 -23ZM632 102Q740 102 801 138T889 260T915 495Q915 653
889 743T800 871T629 909Q511 909 447 876T359 755T334 505Q334 352 361 264T454 139T632 102Z" />
<glyph unicode="c" glyph-name="c" horiz-adv-x="1086" d="M824 310H981Q980 130 889 54T586 -23Q418 -23 316 30T167 200T120 509Q120 699 167 814T316 982T587 1035Q785 1035 881 954T981 702H824Q816 815 761 862T583 910Q467 910 400 873T305 748T277 507Q277
353 305 265T403 139T591 102Q716 102 769 148T824 310Z" />
<glyph unicode="d" glyph-name="d" horiz-adv-x="1191" d="M524 -23Q319 -23 220 97T120 497Q120 793 219 913T526 1034Q654 1034 730 1003T857 898V1441H1011V0H888L870 134Q846 97 807 61T701 1T524 -23ZM559 102Q672 102 737 139T829 264T857 505Q857 667 833
754T744 875T562 909Q454 909 392 871T303 743T276 495Q276 346 302 260T390 138T559 102Z" />
<glyph unicode="e" glyph-name="e" horiz-adv-x="1107" d="M574 -23Q411 -23 311 30T166 199T120 505Q120 770 217 902T560 1034Q729 1034 824 975T958 792T997 480H276Q276 277 345 190T578 102Q711 102 769 141T832 278H989Q989 124 888 51T574 -23ZM278 594H841Q837
715 810 784T722 882T560 911Q458 911 398 882T310 784T278 594Z" />
<glyph unicode="f" glyph-name="f" horiz-adv-x="716" d="M634 1011V889H386V0H232V889H50V1011H232V1155Q232 1319 296 1383T530 1448Q585 1448 651 1437V1313Q579 1321 534 1321Q450 1321 418 1294T386 1196V1011H634Z" />
<glyph unicode="g" glyph-name="g" horiz-adv-x="1190" d="M568 -407Q363 -407 264 -337T163 -120H320Q323 -208 379 -245T566 -282Q686 -282 750 -251T838 -146T862 56V121Q812 43 725 16T521 -12Q307 -12 214 109T120 512Q120 793 214 913T527 1034Q663 1034
743 998T876 876L892 1011H1010V62Q1010 -191 909 -299T568 -407ZM565 114Q681 114 744 153T832 280T857 512Q857 729 794 819T562 910Q448 910 387 871T301 744T277 512Q277 368 301 281T387 154T565 114Z" />
<glyph unicode="h" glyph-name="h" horiz-adv-x="1207" d="M180 0V1442H334V890Q384 965 457 999T673 1034Q867 1034 949 938T1032 614V0H878V614Q878 771 821 838T628 905Q469 905 402 836T334 606V0H180Z" />
<glyph unicode="i" glyph-name="i" horiz-adv-x="515" d="M155 1386H361V1194H155V1386ZM335 0H181V1011H335V0Z" />
<glyph unicode="j" glyph-name="j" horiz-adv-x="534" d="M177 1386H383V1194H177V1386ZM200 1011H354V-87Q354 -257 286 -329T56 -402Q-14 -402 -70 -388V-255Q-20 -266 36 -266Q134 -266 167 -234T200 -108V1011Z" />
<glyph unicode="k" glyph-name="k" horiz-adv-x="1115" d="M180 0V1441H333V620H426Q499 620 546 638T628 698T697 813L789 1011H952L860 805Q824 725 793 674T720 593T606 547Q671 533 712 503T788 415T870 259L995 0H825L708 246Q665 337 627 386T543 455T427
474H333V0H180Z" />
<glyph unicode="l" glyph-name="l" horiz-adv-x="514" d="M180 0V1441H334V0H180Z" />
<glyph unicode="m" glyph-name="m" horiz-adv-x="1779" d="M180 0V1011H306L319 868Q361 948 445 991T641 1034Q758 1034 828 995T938 865Q1016 1034 1277 1034Q1453 1034 1528 939T1604 653V0H1450V644Q1450 779 1399 842T1229 905Q1089 905 1029 839T969 626V0H815V644Q815
779 764 842T594 905Q454 905 394 839T334 626V0H180Z" />
<glyph unicode="n" glyph-name="n" horiz-adv-x="1208" d="M180 0V1011H306L318 865Q368 957 450 995T674 1034Q868 1034 950 938T1033 614V0H879V614Q879 772 822 838T629 905Q470 905 402 836T334 606V0H180Z" />
<glyph unicode="o" glyph-name="o" horiz-adv-x="1174" d="M585 -23Q418 -23 316 30T167 199T120 506Q120 696 166 812T315 981T585 1034Q754 1034 857 982T1007 814T1054 509Q1054 318 1007 201T857 30T585 -23ZM591 102Q708 102 774 139T869 263T897 504Q897
658 869 746T772 872T585 909Q468 909 401 872T306 746T277 502Q277 350 305 263T403 139T591 102Z" />
<glyph unicode="p" glyph-name="p" horiz-adv-x="1191" d="M180 -389V1011H303L321 877Q345 915 384 951T490 1010T667 1034Q873 1034 972 915T1071 514Q1071 219 972 98T665 -23Q537 -23 461 8T334 113V-389H180ZM629 102Q738 102 800 140T888 268T915 516Q915
666 889 751T802 873T632 909Q519 909 454 872T362 747T334 506Q334 345 358 257T447 136T629 102Z" />
<glyph unicode="q" glyph-name="q" horiz-adv-x="1191" d="M857 -389V113Q807 40 731 9T526 -23Q319 -23 220 98T120 514Q120 795 219 914T524 1034Q633 1034 700 1011T807 951T870 877L888 1011H1011V-389H857ZM562 102Q680 102 744 135T832 257T857 506Q857
659 830 747T737 872T559 909Q452 909 390 873T302 752T276 516Q276 359 302 269T391 140T562 102Z" />
<glyph unicode="r" glyph-name="r" horiz-adv-x="733" d="M306 1011L325 854Q378 961 468 997T652 1034H671V881H649Q540 881 453 838T334 698V0H180V1011H306Z" />
<glyph unicode="s" glyph-name="s" horiz-adv-x="971" d="M105 272H251Q253 172 305 135T499 97Q627 97 675 137T724 269Q724 340 679 381T534 438L428 455Q259 482 185 549T110 743Q110 1034 494 1034Q696 1034 779 965T862 737H716Q716 832 666 873T494 914Q370
914 315 874T259 745Q259 676 300 639T433 587L539 570Q715 542 790 473T866 271Q866 121 777 49T493 -23Q288 -23 197 45T105 272Z" />
<glyph unicode="t" glyph-name="t" horiz-adv-x="726" d="M634 892H386V268Q386 183 422 147T540 110Q572 110 601 113T656 121V-12Q630 -17 595 -21T510 -26Q232 -26 232 289V892H50V1014H232V1291H385V1014H634V892Z" />
<glyph unicode="u" glyph-name="u" horiz-adv-x="1196" d="M528 -23Q338 -23 257 74T175 397V1011H329V397Q329 240 385 173T573 106Q729 106 795 175T862 405V1011H1016V0H890L878 146Q829 55 749 16T528 -23Z" />
<glyph unicode="v" glyph-name="v" horiz-adv-x="1041" d="M423 0L50 1011H210L523 141L833 1011H991L622 0H423Z" />
<glyph unicode="w" glyph-name="w" horiz-adv-x="1581" d="M360 0L70 1011H231L389 387L446 125L505 376L698 1011H888L1077 383L1140 127L1199 383L1353 1011H1511L1221 0H1046L792 874L536 0H360Z" />
<glyph unicode="x" glyph-name="x" horiz-adv-x="1011" d="M43 0L411 501L40 1011H219L507 608L795 1011H969L601 504L971 0H792L505 397L217 0H43Z" />
<glyph unicode="y" glyph-name="y" horiz-adv-x="1208" d="M880 56V169Q829 87 749 52T534 17Q341 17 258 114T175 437V1011H329V437Q329 280 386 213T579 146Q738 146 806 215T874 445V1011H1028V62Q1028 -191 927 -299T586 -407Q381 -407 282 -337T181 -120H338Q341
-208 397 -245T584 -282Q704 -282 768 -251T856 -146T880 56Z" />
<glyph unicode="z" glyph-name="z" horiz-adv-x="908" d="M99 889V1011H809V914L275 124H812V0H90V107L630 889H99Z" />
<glyph unicode="{" glyph-name="braceleft" horiz-adv-x="748" d="M312 528Q364 506 401 478T458 398T478 254V-152Q478 -233 511 -250T633 -268V-389Q522 -389 452 -368T348 -290T314 -121V218Q314 304 306 357T262 436T140 462V590Q225 590 261 615T306 695T314
834V1173Q314 1285 348 1342T452 1420T633 1441V1320Q545 1320 512 1304T478 1204V798Q478 706 458 656T401 578T312 528Z" />
<glyph unicode="|" glyph-name="bar" horiz-adv-x="524" d="M180 -301V1536H344V-301H180Z" />
<glyph unicode="}" glyph-name="braceright" horiz-adv-x="748" d="M436 528Q385 551 348 578T290 655T270 798V1204Q270 1287 237 1303T115 1320V1441Q225 1441 295 1421T400 1343T434 1173V834Q434 749 442 695T486 616T608 590V462Q523 462 487 437T442 358T434
218V-121Q434 -232 401 -289T297 -368T115 -389V-268Q204 -268 237 -251T270 -152V254Q270 346 290 397T347 477T436 528Z" />
<glyph unicode="~" glyph-name="asciitilde" horiz-adv-x="1494" d="M992 549Q923 549 859 576T717 646Q640 690 587 709T485 729Q403 729 350 681T257 572L153 662Q290 903 502 903Q571 903 636 877T777 806Q854 762 907 743T1009 723Q1091 723 1144 771T1237
880L1341 790Q1204 549 992 549Z" />
<glyph unicode="&#xa0;" glyph-name="uni00A0" horiz-adv-x="540" />
<glyph unicode="&#xa1;" glyph-name="exclamdown" horiz-adv-x="526" d="M263 796Q199 796 170 822T140 914Q140 980 169 1006T263 1032Q328 1032 357 1006T386 914Q386 848 357 822T263 796ZM174 -389V-176L202 655H325L352 -176V-389H174Z" />
<glyph unicode="&#xa2;" glyph-name="cent" horiz-adv-x="1086" d="M501 1441H621V1246Q802 1240 890 1160T981 917H824Q817 1021 770 1069T621 1124V318Q730 323 776 370T824 525H981Q980 353 897 277T621 195V0H501V199Q296 217 208 339T120 724Q120 983 208
1104T501 1243V1441ZM277 722Q277 523 326 433T501 323V1120Q374 1103 326 1013T277 722Z" />
<glyph unicode="&#xa3;" glyph-name="sterling" horiz-adv-x="1233" d="M978 1127Q978 1234 918 1280T719 1326Q554 1326 486 1262T417 1075Q417 1005 439 931T489 782H956V666H533Q553 608 567 551T582 437Q582 349 543 275T429 154Q467 162 506 167T571 173Q660
173 711 160T806 134T913 121Q969 121 1037 143T1152 211L1213 83Q1164 31 1088 4T922 -23Q837 -23 778 -9T658 20T511 35Q456 35 365 25T173 -18L154 108Q275 161 346 246T418 437Q418 500 403 556T364 666H95V782H313Q285 847 264 917T243 1069Q243 1251 361
1360T712 1470Q936 1470 1046 1389T1156 1127H978Z" />
<glyph unicode="&#xa4;" glyph-name="currency" horiz-adv-x="1242" d="M621 1117Q697 1117 756 1101T857 1057L1002 1204L1112 1096L966 947Q995 890 1009 825T1023 693Q1023 570 978 467L1122 311L1012 204L882 344Q790 275 621 275Q452 275 360 344L230 204L120
311L264 467Q219 570 219 693Q219 759 233 824T276 947L130 1096L240 1204L385 1057Q427 1085 486 1101T621 1117ZM621 400Q763 400 819 471T876 693Q876 845 823 918T621 992Q472 992 419 917T366 693Q366 540 423 470T621 400Z" />
<glyph unicode="&#xa5;" glyph-name="yen" horiz-adv-x="1144" d="M483 0V302H140V418H483V596H140V712H416L-6 1441H178L557 773H585L969 1441H1150L725 712H1000V596H657V418H1000V302H657V0H483Z" />
<glyph unicode="&#xa6;" glyph-name="brokenbar" horiz-adv-x="524" d="M344 782H180V1536H344V782ZM344 -301H180V451H344V-301Z" />
<glyph unicode="&#xa7;" glyph-name="section" horiz-adv-x="1116" d="M120 743Q120 829 156 888T268 976Q180 1044 180 1180Q180 1317 275 1394T564 1471Q758 1471 845 1402T932 1174H786Q786 1269 736 1310T564 1351Q440 1351 385 1311T329 1182Q329 1113 370
1076T503 1024L669 997Q845 969 920 900T996 698Q996 613 960 553T848 465Q936 397 936 261Q936 125 841 48T552 -30Q358 -30 271 39T184 267H330Q330 172 380 131T552 90Q677 90 732 130T787 259Q787 328 746 365T613 417L447 444Q271 473 196 541T120 743ZM262
745Q262 675 307 634T452 576L618 549Q653 543 684 536T742 520Q804 547 829 588T854 696Q854 767 809 808T664 865L498 892Q463 898 432 905T374 921Q312 894 287 853T262 745Z" />
<glyph unicode="&#xa8;" glyph-name="dieresis" horiz-adv-x="800" d="M210 1390Q265 1390 284 1368T304 1291Q304 1243 286 1220T210 1196Q159 1196 139 1219T118 1291Q118 1340 137 1365T210 1390ZM588 1390Q643 1390 662 1368T682 1291Q682 1243 664 1220T588
1196Q537 1196 517 1219T496 1291Q496 1340 515 1365T588 1390Z" />
<glyph unicode="&#xa9;" glyph-name="copyright" horiz-adv-x="1743" d="M1638 714Q1638 487 1542 317T1273 52T868 -43Q639 -43 468 51T201 314T105 709Q105 936 200 1106T467 1370T868 1465Q1099 1465 1272 1371T1542 1109T1638 714ZM1547 711Q1547 914 1466
1066T1234 1304T873 1389Q670 1389 518 1304T282 1067T197 711Q197 508 281 356T518 120T873 35Q1076 35 1227 119T1463 356T1547 711ZM1124 552H1281Q1280 393 1192 318T906 243Q669 243 565 353T460 715Q460 967 565 1074T907 1181Q1090 1181 1184 1102T1281
872H1124Q1116 972 1063 1014T903 1056Q743 1056 680 981T617 713Q617 583 645 508T737 400T911 368Q1021 368 1071 409T1124 552Z" />
<glyph unicode="&#xaa;" glyph-name="ordfeminine" horiz-adv-x="834" d="M94 1252Q94 1364 170 1421T389 1479Q550 1479 623 1423T697 1244V883Q697 839 706 830T759 824V697Q743 692 731 691T704 690Q658 690 623 714T572 779Q534 743 468 717T337 690Q214 690
142 753T70 924Q70 1046 155 1102T407 1159H548V1252Q548 1320 514 1341T399 1363Q316 1363 275 1339T234 1252H94ZM548 885V1054H442Q343 1054 289 1034T234 928Q234 875 270 846T366 816Q413 816 463 834T548 885Z" />
<glyph unicode="&#xab;" glyph-name="guillemotleft" horiz-adv-x="1015" d="M100 549L400 894L505 804L242 502L505 200L400 110L100 455V549ZM510 549L810 894L915 804L652 502L915 200L810 110L510 455V549Z" />
<glyph unicode="&#xac;" glyph-name="logicalnot" horiz-adv-x="1415" d="M1262 220H1108V752H153V905H1262V220Z" />
<glyph unicode="&#xad;" glyph-name="uni00AD" horiz-adv-x="839" d="M140 578V732H699V578H140Z" />
<glyph unicode="&#xae;" glyph-name="registered" horiz-adv-x="1743" d="M1638 714Q1638 487 1542 317T1273 52T868 -43Q639 -43 468 51T201 314T105 709Q105 936 200 1106T467 1370T868 1465Q1099 1465 1272 1371T1542 1109T1638 714ZM1547 711Q1547 914 1466
1066T1234 1304T873 1389Q670 1389 518 1304T282 1067T197 711Q197 508 281 356T518 120T873 35Q1076 35 1227 119T1463 356T1547 711ZM562 282V1150H877Q1059 1150 1131 1093T1203 903Q1203 828 1167 778T1058 714Q1111 701 1133 666T1173 557L1235 282H1074L1024
513Q1007 594 976 619T859 644H721V282H562ZM721 778H882Q967 778 1006 804T1046 897Q1046 967 1015 991T887 1016H721V778Z" />
<glyph unicode="&#xaf;" glyph-name="overscore" horiz-adv-x="800" d="M90 1334H709V1216H90V1334Z" />
<glyph unicode="&#xb0;" glyph-name="degree" horiz-adv-x="922" d="M463 734Q351 734 265 780T129 910T80 1103Q80 1213 129 1295T264 1424T463 1471Q576 1471 661 1425T794 1296T842 1103Q842 994 794 911T661 781T463 734ZM463 1338Q359 1338 299 1268T239
1103Q239 1009 299 938T463 867Q567 867 625 938T683 1103Q683 1197 625 1267T463 1338Z" />
<glyph unicode="&#xb1;" glyph-name="plusminus" horiz-adv-x="1200" d="M1088 793H679V362H523V793H113V945H523V1377H679V945H1088V793ZM1088 0H113V152H1088V0Z" />
<glyph unicode="&#xb2;" glyph-name="uni00B2" horiz-adv-x="740" d="M229 1229H100Q93 1474 365 1474Q503 1474 568 1421T634 1250Q634 1192 616 1147T550 1056T415 947Q327 884 286 840T240 748H624V634H105V668Q105 746 123 801T189 908T322 1021Q398 1078
438 1115T492 1183T507 1253Q507 1315 476 1339T362 1364Q282 1364 255 1335T229 1229Z" />
<glyph unicode="&#xb3;" glyph-name="uni00B3" horiz-adv-x="752" d="M228 1228H100Q90 1474 365 1474Q503 1474 568 1418T633 1251Q633 1122 514 1069Q652 1021 652 866Q652 746 585 684T374 622Q90 622 100 868H228Q226 791 255 762T370 732Q458 732 492 761T526
860Q526 1008 342 1008H251V1125H335Q507 1125 507 1254Q507 1315 476 1340T361 1365Q282 1365 254 1336T228 1228Z" />
<glyph unicode="&#xb4;" glyph-name="acute" horiz-adv-x="800" d="M484 1462H666L461 1196H339L484 1462Z" />
<glyph unicode="&#xb5;" glyph-name="uni00B5" horiz-adv-x="1201" d="M180 1011H334V397Q334 240 390 173T578 106Q734 106 800 175T867 405V1011H1021V0H895L883 146Q834 55 756 16T553 -23Q487 -23 433 -9T334 46V-389H180V1011Z" />
<glyph unicode="&#xb6;" glyph-name="paragraph" horiz-adv-x="1213" d="M568 -235H428V769Q272 781 176 872Q130 916 105 974T80 1103Q80 1179 108 1241T188 1347Q239 1391 310 1415T467 1440H1133V1300H971V-235H831V1300H568V-235Z" />
<glyph unicode="&#xb7;" glyph-name="middot" horiz-adv-x="526" d="M263 505Q199 505 170 531T140 623Q140 689 169 715T263 741Q328 741 357 715T386 623Q386 557 357 531T263 505Z" />
<glyph unicode="&#xb8;" glyph-name="cedilla" horiz-adv-x="800" d="M570 -253Q570 -323 531 -358T392 -393H231V-311H374Q422 -311 437 -297T452 -251Q452 -219 440 -204T387 -188H285V-113L349 -1H455L391 -110Q491 -110 530 -137T570 -253Z" />
<glyph unicode="&#xb9;" glyph-name="uni00B9" horiz-adv-x="523" d="M80 1368L226 1441H343V634H216V1311L80 1238V1368Z" />
<glyph unicode="&#xba;" glyph-name="ordmasculine" horiz-adv-x="850" d="M423 697Q238 697 157 789T75 1092Q75 1302 156 1394T423 1486Q611 1486 693 1395T775 1094Q775 881 694 789T423 697ZM427 822Q512 822 554 848T610 933T624 1091Q624 1234 586 1297T423
1361Q299 1361 262 1295T225 1089Q225 989 240 931T299 847T427 822Z" />
<glyph unicode="&#xbb;" glyph-name="guillemotright" horiz-adv-x="1015" d="M915 549V455L615 110L510 200L773 502L510 804L615 894L915 549ZM505 549V455L205 110L100 200L363 502L100 804L205 894L505 549Z" />
<glyph unicode="&#xbc;" glyph-name="onequarter" horiz-adv-x="1495" d="M1206 0V195H829V297L1197 807H1332V305H1425V195H1333V0H1206ZM964 305H1206V637L964 305ZM245 0L991 1441H1130L383 0H245ZM316 1368L462 1441H579V634H452V1311L316 1238V1368Z" />
<glyph unicode="&#xbd;" glyph-name="onehalf" horiz-adv-x="1633" d="M1122 595H993Q986 840 1258 840Q1396 840 1461 787T1527 616Q1527 558 1509 513T1443 422T1308 313Q1220 250 1179 206T1133 114H1517V0H998V34Q998 112 1016 167T1082 274T1215 387Q1291
444 1331 481T1385 549T1400 619Q1400 681 1369 705T1255 730Q1175 730 1148 701T1122 595ZM265 0L1011 1441H1150L403 0H265ZM80 1368L226 1441H343V634H216V1311L80 1238V1368Z" />
<glyph unicode="&#xbe;" glyph-name="threequarters" horiz-adv-x="1761" d="M228 1228H100Q90 1474 365 1474Q503 1474 568 1418T633 1251Q633 1122 514 1069Q652 1021 652 866Q652 746 585 684T374 622Q90 622 100 868H228Q226 791 255 762T370 732Q458 732
492 761T526 860Q526 1008 342 1008H251V1125H335Q507 1125 507 1254Q507 1315 476 1340T361 1365Q282 1365 254 1336T228 1228ZM1472 0V195H1095V297L1463 807H1598V305H1691V195H1599V0H1472ZM1230 305H1472V637L1230 305ZM510 0L1256 1441H1395L648 0H510Z"
/>
<glyph unicode="&#xbf;" glyph-name="questiondown" horiz-adv-x="1002" d="M534 796Q470 796 441 822T411 914Q411 980 440 1006T534 1032Q599 1032 628 1006T657 914Q657 848 628 822T534 796ZM493 -408Q253 -408 144 -324T35 -66Q36 6 55 61T131 174T296 311Q386
376 425 442T465 593V661H611V570Q611 461 576 376T422 206Q299 118 255 58T209 -70Q208 -164 275 -214T500 -264Q647 -264 708 -207T769 -17H947Q947 -216 836 -312T493 -408Z" />
<glyph unicode="&#xc0;" glyph-name="Agrave" horiz-adv-x="1376" d="M40 0L584 1441H785L1336 0H1160L1023 361H353L217 0H40ZM400 502H975L685 1294L400 502ZM599 1892L744 1626H622L417 1892H599Z" />
<glyph unicode="&#xc1;" glyph-name="Aacute" horiz-adv-x="1376" d="M40 0L584 1441H785L1336 0H1160L1023 361H353L217 0H40ZM400 502H975L685 1294L400 502ZM767 1892H949L744 1626H622L767 1892Z" />
<glyph unicode="&#xc2;" glyph-name="Acircumflex" horiz-adv-x="1376" d="M40 0L584 1441H785L1336 0H1160L1023 361H353L217 0H40ZM400 502H975L685 1294L400 502ZM943 1626H808L685 1820L557 1626H422L610 1923H754L943 1626Z" />
<glyph unicode="&#xc3;" glyph-name="Atilde" horiz-adv-x="1376" d="M40 0L584 1441H785L1336 0H1160L1023 361H353L217 0H40ZM400 502H975L685 1294L400 502ZM707 1778Q745 1756 767 1745T808 1734Q842 1734 858 1756T876 1815H979Q975 1728 929 1677T814 1626Q779
1626 749 1636T670 1674Q632 1697 611 1707T569 1718Q537 1718 520 1696T501 1637H398Q402 1724 449 1775T563 1826Q599 1826 629 1817T707 1778Z" />
<glyph unicode="&#xc4;" glyph-name="Adieresis" horiz-adv-x="1376" d="M40 0L584 1441H785L1336 0H1160L1023 361H353L217 0H40ZM400 502H975L685 1294L400 502ZM493 1820Q548 1820 567 1798T587 1721Q587 1673 569 1650T493 1626Q442 1626 422 1649T401 1721Q401
1770 420 1795T493 1820ZM871 1820Q926 1820 945 1798T965 1721Q965 1673 947 1650T871 1626Q820 1626 800 1649T779 1721Q779 1770 798 1795T871 1820Z" />
<glyph unicode="&#xc5;" glyph-name="Aring" horiz-adv-x="1376" d="M40 0L584 1441H785L1336 0H1160L1023 361H353L217 0H40ZM400 502H975L685 1294L400 502ZM463 1584Q463 1676 527 1733T681 1791Q769 1791 831 1732T893 1581Q893 1487 830 1429T678 1371Q583
1371 523 1433T463 1584ZM568 1584Q568 1535 596 1501T679 1467Q734 1467 763 1501T792 1581Q792 1628 763 1661T679 1695Q626 1695 597 1662T568 1584Z" />
<glyph unicode="&#xc6;" glyph-name="AE" horiz-adv-x="2090" d="M1251 152H1980V0H1077V361H472L207 0H10L1077 1441H1977V1289H1251V827H1859V677H1251V152ZM575 502H1077V1186L575 502Z" />
<glyph unicode="&#xc7;" glyph-name="Ccedilla" horiz-adv-x="1450" d="M1171 400H1340Q1343 189 1195 75T770 -39Q441 -39 283 144T125 709Q125 1096 289 1284T794 1472Q1059 1472 1201 1358T1340 1033H1171Q1171 1172 1073 1247T794 1322Q618 1322 511 1262T354
1067T305 714Q305 497 350 364T497 171T763 110Q959 110 1065 185T1171 400ZM940 -273Q940 -343 901 -378T762 -413H601V-331H744Q792 -331 807 -317T822 -271Q822 -239 810 -224T757 -208H655V-133L719 -21H825L761 -130Q861 -130 900 -157T940 -273Z" />
<glyph unicode="&#xc8;" glyph-name="Egrave" horiz-adv-x="1293" d="M220 0V1441H1180V1289H394V827H1062V677H394V152H1183V0H220ZM622 1892L767 1626H645L440 1892H622Z" />
<glyph unicode="&#xc9;" glyph-name="Eacute" horiz-adv-x="1293" d="M220 0V1441H1180V1289H394V827H1062V677H394V152H1183V0H220ZM790 1892H972L767 1626H645L790 1892Z" />
<glyph unicode="&#xca;" glyph-name="Ecircumflex" horiz-adv-x="1293" d="M220 0V1441H1180V1289H394V827H1062V677H394V152H1183V0H220ZM966 1626H831L708 1820L580 1626H445L633 1923H777L966 1626Z" />
<glyph unicode="&#xcb;" glyph-name="Edieresis" horiz-adv-x="1293" d="M220 0V1441H1180V1289H394V827H1062V677H394V152H1183V0H220ZM516 1820Q571 1820 590 1798T610 1721Q610 1673 592 1650T516 1626Q465 1626 445 1649T424 1721Q424 1770 443 1795T516 1820ZM894
1820Q949 1820 968 1798T988 1721Q988 1673 970 1650T894 1626Q843 1626 823 1649T802 1721Q802 1770 821 1795T894 1820Z" />
<glyph unicode="&#xcc;" glyph-name="Igrave" horiz-adv-x="994" d="M200 1294V1441H794V1294H584V147H784V0H210V147H410V1294H200ZM411 1892L556 1626H434L229 1892H411Z" />
<glyph unicode="&#xcd;" glyph-name="Iacute" horiz-adv-x="994" d="M200 1294V1441H794V1294H584V147H784V0H210V147H410V1294H200ZM579 1892H761L556 1626H434L579 1892Z" />
<glyph unicode="&#xce;" glyph-name="Icircumflex" horiz-adv-x="994" d="M200 1294V1441H794V1294H584V147H784V0H210V147H410V1294H200ZM755 1626H620L497 1820L369 1626H234L422 1923H566L755 1626Z" />
<glyph unicode="&#xcf;" glyph-name="Idieresis" horiz-adv-x="994" d="M200 1294V1441H794V1294H584V147H784V0H210V147H410V1294H200ZM305 1820Q360 1820 379 1798T399 1721Q399 1673 381 1650T305 1626Q254 1626 234 1649T213 1721Q213 1770 232 1795T305 1820ZM683
1820Q738 1820 757 1798T777 1721Q777 1673 759 1650T683 1626Q632 1626 612 1649T591 1721Q591 1770 610 1795T683 1820Z" />
<glyph unicode="&#xd0;" glyph-name="Eth" horiz-adv-x="1507" d="M63 810H240V1441H718Q1057 1441 1219 1267T1382 727Q1382 357 1219 179T714 0H240V657H63V810ZM414 152H721Q895 152 1001 209T1155 392T1203 723Q1203 938 1157 1061T1002 1237T703 1289H414V810H663V657H414V152Z"
/>
<glyph unicode="&#xd1;" glyph-name="Ntilde" horiz-adv-x="1682" d="M220 0V1441H493L1274 173H1306V1441H1462V0H1199L408 1285H376V0H220ZM865 1778Q903 1756 925 1745T966 1734Q1000 1734 1016 1756T1034 1815H1137Q1133 1728 1087 1677T972 1626Q937 1626
907 1636T828 1674Q790 1697 769 1707T727 1718Q695 1718 678 1696T659 1637H556Q560 1724 607 1775T721 1826Q757 1826 787 1817T865 1778Z" />
<glyph unicode="&#xd2;" glyph-name="Ograve" horiz-adv-x="1549" d="M775 -38Q532 -38 390 49T186 308T125 727Q125 973 188 1138T395 1388T775 1472Q1013 1472 1155 1388T1361 1138T1424 728Q1424 479 1363 309T1161 50T775 -38ZM775 111Q969 111 1070 181T1208
389T1245 729Q1245 929 1207 1060T1067 1257T775 1323Q582 1323 481 1256T342 1056T304 721Q304 519 342 383T481 179T775 111ZM691 1892L836 1626H714L509 1892H691Z" />
<glyph unicode="&#xd3;" glyph-name="Oacute" horiz-adv-x="1549" d="M775 -38Q532 -38 390 49T186 308T125 727Q125 973 188 1138T395 1388T775 1472Q1013 1472 1155 1388T1361 1138T1424 728Q1424 479 1363 309T1161 50T775 -38ZM775 111Q969 111 1070 181T1208
389T1245 729Q1245 929 1207 1060T1067 1257T775 1323Q582 1323 481 1256T342 1056T304 721Q304 519 342 383T481 179T775 111ZM859 1892H1041L836 1626H714L859 1892Z" />
<glyph unicode="&#xd4;" glyph-name="Ocircumflex" horiz-adv-x="1549" d="M775 -38Q532 -38 390 49T186 308T125 727Q125 973 188 1138T395 1388T775 1472Q1013 1472 1155 1388T1361 1138T1424 728Q1424 479 1363 309T1161 50T775 -38ZM775 111Q969 111 1070
181T1208 389T1245 729Q1245 929 1207 1060T1067 1257T775 1323Q582 1323 481 1256T342 1056T304 721Q304 519 342 383T481 179T775 111ZM1035 1626H900L777 1820L649 1626H514L702 1923H846L1035 1626Z" />
<glyph unicode="&#xd5;" glyph-name="Otilde" horiz-adv-x="1549" d="M775 -38Q532 -38 390 49T186 308T125 727Q125 973 188 1138T395 1388T775 1472Q1013 1472 1155 1388T1361 1138T1424 728Q1424 479 1363 309T1161 50T775 -38ZM775 111Q969 111 1070 181T1208
389T1245 729Q1245 929 1207 1060T1067 1257T775 1323Q582 1323 481 1256T342 1056T304 721Q304 519 342 383T481 179T775 111ZM799 1778Q837 1756 859 1745T900 1734Q934 1734 950 1756T968 1815H1071Q1067 1728 1021 1677T906 1626Q871 1626 841 1636T762 1674Q724
1697 703 1707T661 1718Q629 1718 612 1696T593 1637H490Q494 1724 541 1775T655 1826Q691 1826 721 1817T799 1778Z" />
<glyph unicode="&#xd6;" glyph-name="Odieresis" horiz-adv-x="1549" d="M775 -38Q532 -38 390 49T186 308T125 727Q125 973 188 1138T395 1388T775 1472Q1013 1472 1155 1388T1361 1138T1424 728Q1424 479 1363 309T1161 50T775 -38ZM775 111Q969 111 1070 181T1208
389T1245 729Q1245 929 1207 1060T1067 1257T775 1323Q582 1323 481 1256T342 1056T304 721Q304 519 342 383T481 179T775 111ZM585 1820Q640 1820 659 1798T679 1721Q679 1673 661 1650T585 1626Q534 1626 514 1649T493 1721Q493 1770 512 1795T585 1820ZM963
1820Q1018 1820 1037 1798T1057 1721Q1057 1673 1039 1650T963 1626Q912 1626 892 1649T871 1721Q871 1770 890 1795T963 1820Z" />
<glyph unicode="&#xd7;" glyph-name="multiply" horiz-adv-x="1200" d="M951 201L600 553L249 202L143 308L494 659L142 1010L250 1117L601 766L952 1117L1058 1011L707 660L1059 308L951 201Z" />
<glyph unicode="&#xd8;" glyph-name="Oslash" horiz-adv-x="1549" d="M775 -38Q532 -38 390 49T186 308T125 727Q125 973 188 1138T395 1388T775 1472Q1013 1472 1155 1388T1361 1138T1424 728Q1424 479 1363 309T1161 50T775 -38ZM775 111Q969 111 1070 181T1208
389T1245 729Q1245 929 1207 1060T1067 1257T775 1323Q582 1323 481 1256T342 1056T304 721Q304 519 342 383T481 179T775 111ZM404 -193L1015 1648H1136L524 -193H404Z" />
<glyph unicode="&#xd9;" glyph-name="Ugrave" horiz-adv-x="1579" d="M384 531Q384 329 489 219T790 109Q984 109 1089 219T1195 531V1441H1369V534Q1369 255 1219 104T790 -48Q512 -48 361 103T210 534V1441H384V531ZM706 1892L851 1626H729L524 1892H706Z" />
<glyph unicode="&#xda;" glyph-name="Uacute" horiz-adv-x="1579" d="M384 531Q384 329 489 219T790 109Q984 109 1089 219T1195 531V1441H1369V534Q1369 255 1219 104T790 -48Q512 -48 361 103T210 534V1441H384V531ZM874 1892H1056L851 1626H729L874 1892Z" />
<glyph unicode="&#xdb;" glyph-name="Ucircumflex" horiz-adv-x="1579" d="M384 531Q384 329 489 219T790 109Q984 109 1089 219T1195 531V1441H1369V534Q1369 255 1219 104T790 -48Q512 -48 361 103T210 534V1441H384V531ZM1050 1626H915L792 1820L664 1626H529L717
1923H861L1050 1626Z" />
<glyph unicode="&#xdc;" glyph-name="Udieresis" horiz-adv-x="1579" d="M384 531Q384 329 489 219T790 109Q984 109 1089 219T1195 531V1441H1369V534Q1369 255 1219 104T790 -48Q512 -48 361 103T210 534V1441H384V531ZM600 1820Q655 1820 674 1798T694 1721Q694
1673 676 1650T600 1626Q549 1626 529 1649T508 1721Q508 1770 527 1795T600 1820ZM978 1820Q1033 1820 1052 1798T1072 1721Q1072 1673 1054 1650T978 1626Q927 1626 907 1649T886 1721Q886 1770 905 1795T978 1820Z" />
<glyph unicode="&#xdd;" glyph-name="Yacute" horiz-adv-x="1186" d="M504 0V596L15 1441H199L578 773H606L990 1441H1171L678 596V0H504ZM677 1892H859L654 1626H532L677 1892Z" />
<glyph unicode="&#xde;" glyph-name="Thorn" horiz-adv-x="1337" d="M220 0V1441H394V1211H659Q875 1211 999 1171T1175 1030T1227 750Q1227 582 1170 482T989 338T659 294H394V0H220ZM394 440H659Q819 440 904 464T1021 556T1054 750Q1054 881 1022 950T904 1044T659
1070H394V440Z" />
<glyph unicode="&#xdf;" glyph-name="germandbls" horiz-adv-x="1265" d="M723 -23Q664 -23 595 -14T468 15V147Q534 126 593 114T732 102Q870 102 929 173T988 432Q988 558 961 630T872 732T702 762H564V884H663Q788 884 843 937T898 1115Q898 1247 833 1297T614
1347Q462 1347 398 1288T333 1067V0H180V1085Q180 1283 284 1377T616 1472Q846 1472 949 1391T1052 1117Q1052 1008 1012 935T884 831Q1035 801 1090 700T1145 432Q1145 187 1042 82T723 -23Z" />
<glyph unicode="&#xe0;" glyph-name="agrave" horiz-adv-x="1131" d="M292 738H153Q153 889 250 961T549 1033Q754 1033 852 958T951 727V211Q951 144 971 123T1051 107V-15Q1032 -22 1017 -23T981 -24Q908 -24 864 15T819 118Q769 51 679 14T470 -23Q301 -23
210 56T119 282Q119 450 226 521T587 593H797V728Q797 826 740 867T549 909Q410 909 351 870T292 738ZM798 305V479H586Q420 479 349 435T277 285Q277 196 337 149T507 102Q647 102 722 154T798 305ZM482 1462L627 1196H505L300 1462H482Z" />
<glyph unicode="&#xe1;" glyph-name="aacute" horiz-adv-x="1131" d="M292 738H153Q153 889 250 961T549 1033Q754 1033 852 958T951 727V211Q951 144 971 123T1051 107V-15Q1032 -22 1017 -23T981 -24Q908 -24 864 15T819 118Q769 51 679 14T470 -23Q301 -23
210 56T119 282Q119 450 226 521T587 593H797V728Q797 826 740 867T549 909Q410 909 351 870T292 738ZM798 305V479H586Q420 479 349 435T277 285Q277 196 337 149T507 102Q647 102 722 154T798 305ZM650 1462H832L627 1196H505L650 1462Z" />
<glyph unicode="&#xe2;" glyph-name="acircumflex" horiz-adv-x="1131" d="M292 738H153Q153 889 250 961T549 1033Q754 1033 852 958T951 727V211Q951 144 971 123T1051 107V-15Q1032 -22 1017 -23T981 -24Q908 -24 864 15T819 118Q769 51 679 14T470 -23Q301
-23 210 56T119 282Q119 450 226 521T587 593H797V728Q797 826 740 867T549 909Q410 909 351 870T292 738ZM798 305V479H586Q420 479 349 435T277 285Q277 196 337 149T507 102Q647 102 722 154T798 305ZM826 1196H691L568 1390L440 1196H305L493 1493H637L826
1196Z" />
<glyph unicode="&#xe3;" glyph-name="atilde" horiz-adv-x="1131" d="M292 738H153Q153 889 250 961T549 1033Q754 1033 852 958T951 727V211Q951 144 971 123T1051 107V-15Q1032 -22 1017 -23T981 -24Q908 -24 864 15T819 118Q769 51 679 14T470 -23Q301 -23
210 56T119 282Q119 450 226 521T587 593H797V728Q797 826 740 867T549 909Q410 909 351 870T292 738ZM798 305V479H586Q420 479 349 435T277 285Q277 196 337 149T507 102Q647 102 722 154T798 305ZM590 1348Q628 1326 650 1315T691 1304Q725 1304 741 1326T759
1385H862Q858 1298 812 1247T697 1196Q662 1196 632 1206T553 1244Q515 1267 494 1277T452 1288Q420 1288 403 1266T384 1207H281Q285 1294 332 1345T446 1396Q482 1396 512 1387T590 1348Z" />
<glyph unicode="&#xe4;" glyph-name="adieresis" horiz-adv-x="1131" d="M292 738H153Q153 889 250 961T549 1033Q754 1033 852 958T951 727V211Q951 144 971 123T1051 107V-15Q1032 -22 1017 -23T981 -24Q908 -24 864 15T819 118Q769 51 679 14T470 -23Q301 -23
210 56T119 282Q119 450 226 521T587 593H797V728Q797 826 740 867T549 909Q410 909 351 870T292 738ZM798 305V479H586Q420 479 349 435T277 285Q277 196 337 149T507 102Q647 102 722 154T798 305ZM376 1390Q431 1390 450 1368T470 1291Q470 1243 452 1220T376
1196Q325 1196 305 1219T284 1291Q284 1340 303 1365T376 1390ZM754 1390Q809 1390 828 1368T848 1291Q848 1243 830 1220T754 1196Q703 1196 683 1219T662 1291Q662 1340 681 1365T754 1390Z" />
<glyph unicode="&#xe5;" glyph-name="aring" horiz-adv-x="1131" d="M292 738H153Q153 889 250 961T549 1033Q754 1033 852 958T951 727V211Q951 144 971 123T1051 107V-15Q1032 -22 1017 -23T981 -24Q908 -24 864 15T819 118Q769 51 679 14T470 -23Q301 -23 210
56T119 282Q119 450 226 521T587 593H797V728Q797 826 740 867T549 909Q410 909 351 870T292 738ZM798 305V479H586Q420 479 349 435T277 285Q277 196 337 149T507 102Q647 102 722 154T798 305ZM351 1354Q351 1446 415 1503T569 1561Q657 1561 719 1502T781 1351Q781
1257 718 1199T566 1141Q471 1141 411 1203T351 1354ZM456 1354Q456 1305 484 1271T567 1237Q622 1237 651 1271T680 1351Q680 1398 651 1431T567 1465Q514 1465 485 1432T456 1354Z" />
<glyph unicode="&#xe6;" glyph-name="ae" horiz-adv-x="1781" d="M470 -23Q301 -23 210 56T119 282Q119 450 226 521T587 593H797V728Q797 826 740 867T549 909Q410 909 351 870T292 738H153Q153 889 250 961T549 1033Q692 1033 777 997T900 886Q951 966 1030
1000T1234 1034Q1403 1034 1498 975T1632 792T1671 480H950Q950 277 1019 190T1252 102Q1385 102 1443 141T1506 278H1663Q1663 124 1562 51T1248 -23Q955 -23 853 188Q815 79 717 28T470 -23ZM952 594H1515Q1511 715 1484 784T1396 882T1234 911Q1132 911 1072
882T984 784T952 594ZM507 102Q647 102 722 154T798 305V479H586Q420 479 349 435T277 285Q277 196 337 149T507 102Z" />
<glyph unicode="&#xe7;" glyph-name="ccedilla" horiz-adv-x="1086" d="M824 310H981Q980 130 889 54T586 -23Q418 -23 316 30T167 200T120 509Q120 699 167 814T316 982T587 1035Q785 1035 881 954T981 702H824Q816 815 761 862T583 910Q467 910 400 873T305
748T277 507Q277 353 305 265T403 139T591 102Q716 102 769 148T824 310ZM715 -253Q715 -323 676 -358T537 -393H376V-311H519Q567 -311 582 -297T597 -251Q597 -219 585 -204T532 -188H430V-113L494 -1H600L536 -110Q636 -110 675 -137T715 -253Z" />
<glyph unicode="&#xe8;" glyph-name="egrave" horiz-adv-x="1107" d="M574 -23Q411 -23 311 30T166 199T120 505Q120 770 217 902T560 1034Q729 1034 824 975T958 792T997 480H276Q276 277 345 190T578 102Q711 102 769 141T832 278H989Q989 124 888 51T574 -23ZM278
594H841Q837 715 810 784T722 882T560 911Q458 911 398 882T310 784T278 594ZM474 1462L619 1196H497L292 1462H474Z" />
<glyph unicode="&#xe9;" glyph-name="eacute" horiz-adv-x="1107" d="M574 -23Q411 -23 311 30T166 199T120 505Q120 770 217 902T560 1034Q729 1034 824 975T958 792T997 480H276Q276 277 345 190T578 102Q711 102 769 141T832 278H989Q989 124 888 51T574 -23ZM278
594H841Q837 715 810 784T722 882T560 911Q458 911 398 882T310 784T278 594ZM642 1462H824L619 1196H497L642 1462Z" />
<glyph unicode="&#xea;" glyph-name="ecircumflex" horiz-adv-x="1107" d="M574 -23Q411 -23 311 30T166 199T120 505Q120 770 217 902T560 1034Q729 1034 824 975T958 792T997 480H276Q276 277 345 190T578 102Q711 102 769 141T832 278H989Q989 124 888 51T574
-23ZM278 594H841Q837 715 810 784T722 882T560 911Q458 911 398 882T310 784T278 594ZM818 1196H683L560 1390L432 1196H297L485 1493H629L818 1196Z" />
<glyph unicode="&#xeb;" glyph-name="edieresis" horiz-adv-x="1107" d="M574 -23Q411 -23 311 30T166 199T120 505Q120 770 217 902T560 1034Q729 1034 824 975T958 792T997 480H276Q276 277 345 190T578 102Q711 102 769 141T832 278H989Q989 124 888 51T574
-23ZM278 594H841Q837 715 810 784T722 882T560 911Q458 911 398 882T310 784T278 594ZM368 1390Q423 1390 442 1368T462 1291Q462 1243 444 1220T368 1196Q317 1196 297 1219T276 1291Q276 1340 295 1365T368 1390ZM746 1390Q801 1390 820 1368T840 1291Q840 1243
822 1220T746 1196Q695 1196 675 1219T654 1291Q654 1340 673 1365T746 1390Z" />
<glyph unicode="&#xec;" glyph-name="igrave" horiz-adv-x="514" d="M334 0H180V1011H334V0ZM173 1462L318 1196H196L-9 1462H173Z" />
<glyph unicode="&#xed;" glyph-name="iacute" horiz-adv-x="514" d="M334 0H180V1011H334V0ZM341 1462H523L318 1196H196L341 1462Z" />
<glyph unicode="&#xee;" glyph-name="icircumflex" horiz-adv-x="514" d="M334 0H180V1011H334V0ZM517 1196H382L259 1390L131 1196H-4L184 1493H328L517 1196Z" />
<glyph unicode="&#xef;" glyph-name="idieresis" horiz-adv-x="514" d="M334 0H180V1011H334V0ZM67 1390Q122 1390 141 1368T161 1291Q161 1243 143 1220T67 1196Q16 1196 -4 1219T-25 1291Q-25 1340 -6 1365T67 1390ZM445 1390Q500 1390 519 1368T539 1291Q539
1243 521 1220T445 1196Q394 1196 374 1219T353 1291Q353 1340 372 1365T445 1390Z" />
<glyph unicode="&#xf0;" glyph-name="eth" horiz-adv-x="1184" d="M557 -32Q342 -32 231 77T120 413Q120 631 226 735T524 840Q656 840 732 810T857 705V1081Q857 1101 856 1118T852 1152L643 1005L571 1111L802 1273Q738 1346 572 1346Q423 1346 359 1295T295
1121H153Q153 1300 255 1385T568 1471Q810 1471 918 1354L1046 1444L1118 1338L982 1243Q1004 1178 1004 1093V450Q1004 204 895 86T557 -32ZM559 93Q712 93 784 163T857 380V550Q826 636 754 673T545 710Q272 710 272 413Q272 250 342 172T559 93Z" />
<glyph unicode="&#xf1;" glyph-name="ntilde" horiz-adv-x="1208" d="M180 0V1011H306L318 865Q368 957 450 995T674 1034Q868 1034 950 938T1033 614V0H879V614Q879 772 822 838T629 905Q470 905 402 836T334 606V0H180ZM626 1348Q664 1326 686 1315T727 1304Q761
1304 777 1326T795 1385H898Q894 1298 848 1247T733 1196Q698 1196 668 1206T589 1244Q551 1267 530 1277T488 1288Q456 1288 439 1266T420 1207H317Q321 1294 368 1345T482 1396Q518 1396 548 1387T626 1348Z" />
<glyph unicode="&#xf2;" glyph-name="ograve" horiz-adv-x="1174" d="M585 -23Q418 -23 316 30T167 199T120 506Q120 696 166 812T315 981T585 1034Q754 1034 857 982T1007 814T1054 509Q1054 318 1007 201T857 30T585 -23ZM591 102Q708 102 774 139T869 263T897
504Q897 658 869 746T772 872T585 909Q468 909 401 872T306 746T277 502Q277 350 305 263T403 139T591 102ZM503 1462L648 1196H526L321 1462H503Z" />
<glyph unicode="&#xf3;" glyph-name="oacute" horiz-adv-x="1174" d="M585 -23Q418 -23 316 30T167 199T120 506Q120 696 166 812T315 981T585 1034Q754 1034 857 982T1007 814T1054 509Q1054 318 1007 201T857 30T585 -23ZM591 102Q708 102 774 139T869 263T897
504Q897 658 869 746T772 872T585 909Q468 909 401 872T306 746T277 502Q277 350 305 263T403 139T591 102ZM671 1462H853L648 1196H526L671 1462Z" />
<glyph unicode="&#xf4;" glyph-name="ocircumflex" horiz-adv-x="1174" d="M585 -23Q418 -23 316 30T167 199T120 506Q120 696 166 812T315 981T585 1034Q754 1034 857 982T1007 814T1054 509Q1054 318 1007 201T857 30T585 -23ZM591 102Q708 102 774 139T869
263T897 504Q897 658 869 746T772 872T585 909Q468 909 401 872T306 746T277 502Q277 350 305 263T403 139T591 102ZM847 1196H712L589 1390L461 1196H326L514 1493H658L847 1196Z" />
<glyph unicode="&#xf5;" glyph-name="otilde" horiz-adv-x="1174" d="M585 -23Q418 -23 316 30T167 199T120 506Q120 696 166 812T315 981T585 1034Q754 1034 857 982T1007 814T1054 509Q1054 318 1007 201T857 30T585 -23ZM591 102Q708 102 774 139T869 263T897
504Q897 658 869 746T772 872T585 909Q468 909 401 872T306 746T277 502Q277 350 305 263T403 139T591 102ZM611 1348Q649 1326 671 1315T712 1304Q746 1304 762 1326T780 1385H883Q879 1298 833 1247T718 1196Q683 1196 653 1206T574 1244Q536 1267 515 1277T473
1288Q441 1288 424 1266T405 1207H302Q306 1294 353 1345T467 1396Q503 1396 533 1387T611 1348Z" />
<glyph unicode="&#xf6;" glyph-name="odieresis" horiz-adv-x="1174" d="M585 -23Q418 -23 316 30T167 199T120 506Q120 696 166 812T315 981T585 1034Q754 1034 857 982T1007 814T1054 509Q1054 318 1007 201T857 30T585 -23ZM591 102Q708 102 774 139T869 263T897
504Q897 658 869 746T772 872T585 909Q468 909 401 872T306 746T277 502Q277 350 305 263T403 139T591 102ZM397 1390Q452 1390 471 1368T491 1291Q491 1243 473 1220T397 1196Q346 1196 326 1219T305 1291Q305 1340 324 1365T397 1390ZM775 1390Q830 1390 849
1368T869 1291Q869 1243 851 1220T775 1196Q724 1196 704 1219T683 1291Q683 1340 702 1365T775 1390Z" />
<glyph unicode="&#xf7;" glyph-name="divide" horiz-adv-x="1200" d="M495 1200H706V979H495V1200ZM1088 583H113V735H1088V583ZM495 118V339H706V118H495Z" />
<glyph unicode="&#xf8;" glyph-name="oslash" horiz-adv-x="1174" d="M217 -134L299 39Q205 95 163 209T120 506Q120 696 166 812T315 981T585 1034Q686 1034 762 1016L828 1155H949L865 978Q965 923 1009 809T1054 509Q1054 318 1007 201T857 30T585 -23Q480
-23 399 -2L337 -134H217ZM361 170L706 897Q654 909 585 909Q468 909 401 872T306 746T277 502Q277 376 296 295T361 170ZM591 102Q708 102 774 139T869 263T897 504Q897 638 876 722T804 850L456 117Q513 102 591 102Z" />
<glyph unicode="&#xf9;" glyph-name="ugrave" horiz-adv-x="1196" d="M528 -23Q338 -23 257 74T175 397V1011H329V397Q329 240 385 173T573 106Q729 106 795 175T862 405V1011H1016V0H890L878 146Q829 55 749 16T528 -23ZM505 1462L650 1196H528L323 1462H505Z" />
<glyph unicode="&#xfa;" glyph-name="uacute" horiz-adv-x="1196" d="M528 -23Q338 -23 257 74T175 397V1011H329V397Q329 240 385 173T573 106Q729 106 795 175T862 405V1011H1016V0H890L878 146Q829 55 749 16T528 -23ZM673 1462H855L650 1196H528L673 1462Z" />
<glyph unicode="&#xfb;" glyph-name="ucircumflex" horiz-adv-x="1196" d="M528 -23Q338 -23 257 74T175 397V1011H329V397Q329 240 385 173T573 106Q729 106 795 175T862 405V1011H1016V0H890L878 146Q829 55 749 16T528 -23ZM849 1196H714L591 1390L463 1196H328L516
1493H660L849 1196Z" />
<glyph unicode="&#xfc;" glyph-name="udieresis" horiz-adv-x="1196" d="M528 -23Q338 -23 257 74T175 397V1011H329V397Q329 240 385 173T573 106Q729 106 795 175T862 405V1011H1016V0H890L878 146Q829 55 749 16T528 -23ZM399 1390Q454 1390 473 1368T493 1291Q493
1243 475 1220T399 1196Q348 1196 328 1219T307 1291Q307 1340 326 1365T399 1390ZM777 1390Q832 1390 851 1368T871 1291Q871 1243 853 1220T777 1196Q726 1196 706 1219T685 1291Q685 1340 704 1365T777 1390Z" />
<glyph unicode="&#xfd;" glyph-name="yacute" horiz-adv-x="1208" d="M880 56V169Q829 87 749 52T534 17Q341 17 258 114T175 437V1011H329V437Q329 280 386 213T579 146Q738 146 806 215T874 445V1011H1028V62Q1028 -191 927 -299T586 -407Q381 -407 282 -337T181
-120H338Q341 -208 397 -245T584 -282Q704 -282 768 -251T856 -146T880 56ZM686 1462H868L663 1196H541L686 1462Z" />
<glyph unicode="&#xfe;" glyph-name="thorn" horiz-adv-x="1191" d="M180 -389V1441H323V878Q346 915 384 951T490 1010T667 1034Q873 1034 972 915T1071 514Q1071 219 972 98T665 -23Q537 -23 461 8T334 113V-389H180ZM629 102Q738 102 800 140T888 268T915 516Q915
666 889 751T802 873T632 909Q519 909 454 872T362 747T334 506Q334 345 358 257T447 136T629 102Z" />
<glyph unicode="&#xff;" glyph-name="ydieresis" horiz-adv-x="1208" d="M880 56V169Q829 87 749 52T534 17Q341 17 258 114T175 437V1011H329V437Q329 280 386 213T579 146Q738 146 806 215T874 445V1011H1028V62Q1028 -191 927 -299T586 -407Q381 -407 282 -337T181
-120H338Q341 -208 397 -245T584 -282Q704 -282 768 -251T856 -146T880 56ZM412 1390Q467 1390 486 1368T506 1291Q506 1243 488 1220T412 1196Q361 1196 341 1219T320 1291Q320 1340 339 1365T412 1390ZM790 1390Q845 1390 864 1368T884 1291Q884 1243 866 1220T790
1196Q739 1196 719 1219T698 1291Q698 1340 717 1365T790 1390Z" />
<glyph unicode="&#x2013;" glyph-name="endash" horiz-adv-x="1009" d="M869 578H140V732H869V578Z" />
<glyph unicode="&#x2014;" glyph-name="emdash" horiz-adv-x="1194" d="M1054 578H140V732H1054V578Z" />
<glyph unicode="&#x2018;" glyph-name="quoteleft" horiz-adv-x="546" d="M150 1120Q150 1357 294 1492L376 1437Q335 1377 315 1333T289 1231Q341 1231 368 1209T396 1120Q396 1051 366 1023T271 995Q205 995 178 1023T150 1120Z" />
<glyph unicode="&#x2019;" glyph-name="quoteright" horiz-adv-x="546" d="M396 1340Q396 1103 252 968L170 1023Q211 1083 231 1127T257 1229Q205 1229 178 1251T150 1340Q150 1409 180 1437T275 1465Q341 1465 368 1437T396 1340Z" />
<glyph unicode="&#x201a;" glyph-name="quotesinglbase" horiz-adv-x="546" d="M396 89Q396 -148 252 -283L170 -228Q211 -168 231 -124T257 -22Q205 -22 178 0T150 89Q150 158 180 186T275 214Q341 214 368 186T396 89Z" />
<glyph unicode="&#x201c;" glyph-name="quotedblleft" horiz-adv-x="865" d="M469 1120Q469 1357 613 1492L695 1437Q654 1377 634 1333T608 1231Q660 1231 687 1209T715 1120Q715 1051 685 1023T590 995Q524 995 497 1023T469 1120ZM150 1120Q150 1357 294 1492L376
1437Q335 1377 315 1333T289 1231Q341 1231 368 1209T396 1120Q396 1051 366 1023T271 995Q205 995 178 1023T150 1120Z" />
<glyph unicode="&#x201d;" glyph-name="quotedblright" horiz-adv-x="865" d="M396 1340Q396 1103 252 968L170 1023Q211 1083 231 1127T257 1229Q205 1229 178 1251T150 1340Q150 1409 180 1437T275 1465Q341 1465 368 1437T396 1340ZM715 1340Q715 1103 571
968L489 1023Q530 1083 550 1127T576 1229Q524 1229 497 1251T469 1340Q469 1409 499 1437T594 1465Q660 1465 687 1437T715 1340Z" />
<glyph unicode="&#x201e;" glyph-name="quotedblbase" horiz-adv-x="865" d="M396 89Q396 -148 252 -283L170 -228Q211 -168 231 -124T257 -22Q205 -22 178 0T150 89Q150 158 180 186T275 214Q341 214 368 186T396 89ZM715 89Q715 -148 571 -283L489 -228Q530
-168 550 -124T576 -22Q524 -22 497 0T469 89Q469 158 499 186T594 214Q660 214 687 186T715 89Z" />
<glyph unicode="&#x2022;" glyph-name="bullet" horiz-adv-x="909" d="M130 616Q130 772 208 847T450 922Q618 922 698 846T779 608Q779 452 701 377T459 302Q291 302 211 379T130 616Z" />
<glyph unicode="&#x2039;" glyph-name="guilsinglleft" horiz-adv-x="605" d="M100 549L400 894L505 804L242 502L505 200L400 110L100 455V549Z" />
<glyph unicode="&#x203a;" glyph-name="guilsinglright" horiz-adv-x="605" d="M505 549V455L205 110L100 200L363 502L100 804L205 894L505 549Z" />
</font>
</defs>
</svg>
