<?xml version="1.0" standalone="no"?>
<!DOCTYPE svg PUBLIC "-//W3C//DTD SVG 1.1//EN" "http://www.w3.org/Graphics/SVG/1.1/DTD/svg11.dtd">
<svg xmlns="http://www.w3.org/2000/svg">
<defs >
<font id="Barriecito" horiz-adv-x="522" ><font-face
    font-family="Barriecito"
    units-per-em="1000"
    panose-1="0 0 5 0 0 0 0 0 0 0"
    ascent="962"
    descent="-238"
    alphabetic="0" />
<glyph unicode=" " glyph-name="space" horiz-adv-x="260" />
<glyph unicode="!" glyph-name="exclam" horiz-adv-x="242" d="M82 172T78 179T73 204Q71 214 71 249V289L69 367Q68 438 57 541Q47 640 47 651V673Q47 712 67 712Q72 712 75 711Q82 710 89 710T103 711H126Q153 711 169 710Q181 709 186 705T191 694Q191 689
190 683T188 672Q185 638 184 609Q183 565 175 440L174 386L175 343Q178 304 177 300Q176 296 176 279L177 223Q178 210 178 192Q179 179 171 176T148 173H97Q82 172 78 179ZM94 -15T76 7T57 60Q57 69 58 74Q67 123 125 123Q157 123 173 102T190 56Q190 49 189
46Q189 35 179 21T153 -4T119 -15Q94 -15 76 7Z" />
<glyph unicode="&quot;" glyph-name="quotedbl" horiz-adv-x="373" d="M70 441T67 452T64 477V589Q68 618 68 642Q68 664 64 669V723Q68 739 72 744T87 750H136Q149 750 149 727Q149 721 147 705Q144 693 144 683Q144 638 140 607V486Q140 441 131 441H72Q70 441
67 452ZM232 441T230 444T228 454T229 464V723Q229 750 251 750H301Q314 750 314 727Q309 714 309 683Q309 676 307 654Q305 626 305 607V477Q305 441 297 441H242Q232 441 230 444Z" />
<glyph unicode="#" glyph-name="numbersign" horiz-adv-x="663" d="M83 -5T83 5Q83 9 84 11T85 16Q89 26 95 62Q97 72 99 113T103 171L104 174Q104 179 92 179H39Q30 179 30 183Q30 188 32 192Q34 196 37 202T43 217Q45 224 50 227T61 231Q68 228 95 228Q105 228
107 233T110 246Q110 251 113 270T116 306Q120 325 127 378T134 444Q134 454 131 456T124 458H85Q74 458 74 468Q76 473 77 477T82 486Q88 500 92 504Q98 504 107 505T127 507Q135 507 138 510T143 520T148 532Q149 537 156 574T163 638Q163 657 172 661T202 666H262Q273
666 285 663T304 659Q317 658 317 650Q317 646 315 641T311 631Q301 593 297 567Q296 555 292 540Q287 514 290 511Q290 506 300 506L319 507Q340 507 396 515H492Q498 515 500 518T503 527T505 536Q508 556 515 590T527 638Q531 662 544 656Q546 656 555 657T580
659Q589 658 589 653Q589 650 584 640T577 621L570 584Q559 522 559 518Q559 510 569 510L583 511Q591 511 626 518L630 519Q635 519 637 515T640 507Q638 505 637 498T633 483Q631 476 625 472T612 468H562Q548 468 548 447Q545 441 541 415T534 366Q526 334 518
290T509 239L507 230Q507 226 510 226T515 225T520 225Q522 223 533 223Q550 223 580 228Q590 228 594 223T594 214Q594 208 593 200T591 182Q588 174 580 174L569 175L540 173L509 171Q499 174 497 169T495 143Q490 118 483 78T470 16Q470 5 466 2T456 2Q450 2
445 1T433 0Q429 0 421 2Q413 2 413 9Q413 13 416 23T421 41Q422 49 432 100T442 165L443 172Q443 180 436 180L424 179Q419 180 403 180L350 179L290 181L259 182Q257 183 254 183Q248 183 245 178T241 168Q241 160 233 122Q229 100 225 61T220 9Q220 1 218 -2T210
-5Q206 -5 201 -4T191 -2Q179 0 167 0Q142 0 99 -5Q83 -5 83 5ZM316 229L379 231Q400 228 439 228Q448 228 452 232T460 249L463 282Q464 290 467 320T474 363Q484 423 492 444Q493 450 494 455T495 465Q495 476 481 476Q474 476 460 474T437 471Q399 465 385 465Q369
463 353 463Q338 463 322 465Q310 469 295 469Q284 469 283 465Q281 459 277 439L272 416Q272 402 265 348T254 285Q247 250 247 246V241Q247 230 262 228L316 229Z" />
<glyph unicode="$" glyph-name="dollar" horiz-adv-x="500" d="M225 -68T219 -61Q216 -61 213 -58T208 -53Q207 -51 207 -43Q207 -33 208 -26V-23Q129 -23 66 31Q43 48 33 59T22 82Q22 95 39 117Q45 123 48 123Q54 123 60 117Q85 89 126 69T212 47V110L213 156Q215
188 215 204V308L169 336L122 365Q77 396 53 437T29 524Q29 604 99 671Q120 687 147 699T202 717V729Q202 748 198 759Q198 772 208 772Q227 772 235 776H249Q269 776 269 756V721Q375 708 449 635Q459 624 459 608Q459 596 455 587Q454 574 445 566T424 559Q413
563 393 586Q366 616 338 636T269 659Q269 602 272 571Q272 499 276 464V438Q367 395 418 342T478 196Q479 188 479 174Q479 9 278 -23Q278 -37 282 -44V-61Q278 -61 278 -63Q277 -64 278 -65Q276 -65 274 -66T269 -68H241Q225 -68 219 -61ZM208 528Q208 547 206
571L205 594V654Q140 626 140 568Q140 538 159 514T208 473V528ZM293 59T304 68T328 93Q346 120 346 145Q346 174 328 202T276 260V171Q278 113 278 90V54Q293 59 304 68Z" />
<glyph unicode="%" glyph-name="percent" horiz-adv-x="725" d="M150 3T148 4T150 11Q150 16 154 24T158 36Q167 53 173 63T191 85L254 194Q310 292 338 338Q418 473 485 576Q492 591 499 603T511 625Q539 675 542 682Q545 685 550 697T567 715H583Q586 715 591
716T601 717Q613 717 608 706Q608 695 603 684T591 665Q586 656 576 642Q573 638 568 630T559 616L531 566Q507 519 493 502Q415 379 371 298Q337 246 284 150L232 60Q229 54 223 38T207 11Q199 3 158 3Q150 3 148 4ZM176 273T163 274T133 281Q103 296 84 314Q40
359 27 428Q24 448 24 467Q24 514 44 576Q57 608 80 635T133 674Q154 680 173 680Q196 680 217 672T264 649Q275 638 281 628T297 600Q301 592 305 576Q309 560 313 551Q319 524 320 501T322 445Q322 410 321 387T313 347Q295 311 266 292T199 273Q176 273 163
274ZM215 390T215 412Q218 430 218 446Q218 475 207 526Q204 529 199 541T183 559Q177 561 174 561Q156 561 142 535Q131 513 131 473L132 443Q133 435 133 420Q133 407 140 392T158 371L195 370Q215 390 215 412ZM566 -9T551 -7T527 -3Q469 6 428 77Q403 136 403
208Q403 285 436 338Q453 367 482 386T544 405Q554 405 559 404Q589 404 619 386T667 343Q678 326 682 315T696 272Q703 225 703 190Q703 152 698 126Q688 91 681 72T657 36Q635 15 619 5T575 -8Q566 -9 551 -7ZM577 69T588 88T608 142Q612 157 612 176Q612 199
609 221Q607 241 607 249Q607 275 598 298T567 322Q538 322 520 299T501 248Q495 218 495 187Q495 158 501 126Q501 107 516 88T550 69Q577 69 588 88Z" />
<glyph unicode="&amp;" glyph-name="ampersand" horiz-adv-x="580" d="M217 0T175 15T110 52Q81 74 65 113T49 219Q49 275 101 335Q124 362 154 385Q129 404 110 432Q66 493 66 577Q66 677 118 706T223 735Q264 735 298 715T352 655T373 560Q373 490 320 421Q299
393 268 367L346 289Q357 282 382 256T415 223L463 170L473 185Q485 206 490 223Q497 245 497 275Q497 304 498 310T508 320Q520 324 530 324Q538 324 546 317T556 301L557 288Q557 286 557 281T556 254Q556 226 530 176Q521 156 504 131L525 110L553 83Q563 75
563 61Q563 54 557 49Q554 47 550 43T536 32Q530 25 524 25Q516 25 508 35T497 47Q493 51 489 56T480 66L469 79Q449 58 418 39Q350 0 268 0Q217 0 175 15ZM225 420T251 442T299 496T320 560Q320 614 295 648T224 682Q205 682 183 673T144 643T128 595Q128 547
133 520T163 464Q175 452 187 438Q198 427 202 424T215 420Q225 420 251 442ZM340 52T371 66T408 91T416 104Q419 109 419 113Q419 120 399 140Q394 145 338 200T268 280Q262 285 248 301Q229 321 218 331T198 341Q192 341 167 321T122 271T101 210Q98 165 114
131Q131 96 164 74T259 52Q340 52 371 66Z" />
<glyph unicode="&apos;" glyph-name="quotesingle" horiz-adv-x="205" d="M101 456T81 458Q71 460 69 465T66 483V721Q66 746 91 746H141Q155 746 155 724Q154 709 154 684Q154 678 152 658Q150 632 150 613L149 492Q149 462 140 459Q131 456 112 456Q101 456 81 458Z" />
<glyph unicode="(" glyph-name="parenleft" horiz-adv-x="370" d="M241 -58T230 -56T205 -44Q201 -41 157 -15T73 125T32 416Q32 533 71 601T163 715Q175 726 178 730Q183 738 193 738Q199 738 211 734T228 730H310Q326 730 326 724Q326 717 307 703Q260 672 212
595T164 365Q164 219 225 119T337 -33Q344 -40 344 -45Q344 -50 334 -50Q326 -50 302 -54Q274 -58 262 -58Q241 -58 230 -56Z" />
<glyph unicode=")" glyph-name="parenright" horiz-adv-x="383" d="M102 -75T74 -71Q66 -70 57 -69T39 -68Q28 -68 28 -63Q28 -58 36 -50Q39 -46 127 51T215 364Q215 521 165 603T67 715Q47 730 47 737Q47 743 64 743H148Q153 743 165 747T184 751Q194 751 201
743Q203 739 217 727Q249 697 277 662T328 565T351 417Q351 235 315 131T246 -5T172 -61Q158 -71 146 -73T113 -75Q102 -75 74 -71Z" />
<glyph unicode="*" glyph-name="asterisk" horiz-adv-x="518" d="M334 295T330 299T323 308T318 317Q305 346 287 369Q279 387 274 396T262 406Q258 406 254 395T247 377Q221 325 210 310Q204 300 191 300Q180 300 174 305Q165 310 141 318Q136 320 129 322T113
329Q104 337 104 342Q104 345 106 349T109 358Q112 364 119 373T134 394Q143 410 152 423Q154 425 162 438T170 457Q170 462 163 462Q158 462 152 461T138 460Q133 460 125 462Q119 462 89 458Q57 454 45 454Q34 454 32 463T29 490L27 514Q25 538 25 551Q25 562
32 565T49 568T61 567H138Q154 567 154 571Q154 572 151 576T146 583Q140 607 121 632Q103 661 98 680Q92 690 99 696T125 712L170 740Q174 744 177 744Q183 744 190 732Q194 728 208 702Q211 697 214 690T222 676Q226 668 231 658T243 636L255 615Q260 615 263
621T270 637T278 655Q280 662 307 708Q311 714 322 732Q329 745 337 745Q341 745 351 740Q364 727 404 712Q416 708 416 699Q416 694 411 686T404 672Q398 657 380 624T355 583Q349 577 354 574T372 570Q384 570 391 571H475Q494 571 494 559Q494 555 492 551V486Q492
473 472 473Q465 473 460 474L408 472L359 471Q348 468 348 463Q348 458 355 449T364 438Q368 431 387 399T416 354Q418 351 418 346Q418 336 404 329Q368 307 347 297L339 295Q334 295 330 299Z" />
<glyph unicode="+" glyph-name="plus" horiz-adv-x="500" d="M278 27T256 29T222 31Q207 31 203 40T199 66V235Q199 254 176 254Q165 254 152 251L103 249L41 247Q29 247 26 250T23 267Q21 278 19 294L15 320Q13 339 19 348T35 358L83 359Q102 359 110 358Q123
359 143 357L163 356Q177 356 184 358Q194 360 196 368T199 390T198 411V489Q196 499 196 524Q196 571 203 581Q212 584 220 584Q225 585 270 585Q286 587 290 575T294 551T293 536L294 490Q296 456 296 448L297 404Q297 390 296 381V372Q296 363 298 358Q298 355
308 355T323 354H362Q389 358 461 358Q479 358 483 350T487 330V278Q487 256 461 256H312Q301 252 301 236L302 211L303 146Q304 139 304 110Q305 93 305 72Q305 50 300 40T285 27Q278 27 256 29Z" />
<glyph unicode="," glyph-name="comma" horiz-adv-x="183" d="M45 -98T35 -96Q26 -96 24 -93T22 -84T23 -76L47 12L64 73L77 111Q79 120 87 125T105 130H156Q168 130 168 123Q168 120 165 114Q160 94 156 82Q155 76 149 60Q144 47 137 25Q131 10 121 -28T111 -71Q110
-74 106 -83T96 -96Q90 -98 68 -98Q45 -98 35 -96Z" />
<glyph unicode="-" glyph-name="hyphen" horiz-adv-x="500" d="M121 233T106 234T82 235Q69 235 66 237T63 243T64 251L62 273Q58 305 60 310Q60 316 71 316Q74 316 86 314H158Q178 314 192 315Q222 317 290 317H430Q437 317 438 314T440 306T439 300V248Q439
240 428 240L413 241Q406 241 384 240T345 238L259 236Q213 236 197 236T175 235Q166 233 142 233Q121 233 106 234Z" />
<glyph unicode="." glyph-name="period" horiz-adv-x="235" d="M88 -12T67 8T46 68Q46 108 66 122T118 136Q194 136 194 47Q194 23 171 6T118 -12Q88 -12 67 8Z" />
<glyph unicode="/" glyph-name="slash" horiz-adv-x="329" d="M34 -39T18 -35Q9 -33 6 -31T2 -24Q2 -22 4 -14Q9 -8 10 -5T18 15Q22 30 37 67Q44 87 66 147T97 244Q103 262 167 438L197 520Q210 547 223 590T243 660Q249 679 258 694T276 713Q310 713 322 709Q327
708 327 695Q327 672 315 645Q314 640 307 625Q262 511 251 470Q248 463 216 366Q176 243 168 226L159 201Q139 148 116 81T90 1Q88 -13 84 -18T75 -27T68 -31Q61 -39 45 -39Q34 -39 18 -35Z" />
<glyph unicode="0" glyph-name="zero" horiz-adv-x="500" d="M155 9T130 22Q105 35 77 86Q50 136 39 181Q30 225 30 374Q30 461 39 526T73 632Q102 677 146 698Q192 720 277 721Q387 705 422 643Q457 581 463 510Q469 440 469 347Q469 251 456 176Q444 97 390
51T248 4Q155 9 130 22ZM309 68T343 90T400 151Q425 192 429 246Q431 266 431 299V320Q431 326 431 333T431 349Q433 387 433 449Q433 481 430 506T425 537Q419 582 393 628Q384 643 369 652T336 663Q314 665 302 665Q292 665 268 663Q233 663 201 642Q188 633
180 621T159 583Q141 547 141 505Q141 476 142 457L143 371L145 274Q147 224 151 199T168 158Q184 140 197 118L212 96Q233 68 280 68Q309 68 343 90ZM261 308T247 323T232 366Q232 396 245 406T281 416Q332 416 332 351Q332 333 316 321T281 308Q261 308 247 323Z"
/>
<glyph unicode="1" glyph-name="one" horiz-adv-x="500" d="M52 0T47 29Q47 31 47 33T47 38Q47 60 59 63Q87 67 113 75Q119 77 140 83Q187 82 189 105Q190 121 190 148Q190 180 189 205V295Q190 344 187 389L186 439Q186 473 187 490L190 587L102 559Q70 552 64
552Q53 552 53 557Q50 562 50 569Q49 608 52 620Q56 630 78 639Q176 644 289 700Q302 704 314 704Q325 704 331 701T337 691Q337 657 335 607L334 571L328 479V409L331 348Q333 316 333 260Q334 249 334 211Q334 111 341 77Q460 72 460 63L463 20Q465 0 441 0Q399
0 365 4Q348 6 309 8Q261 5 180 2L141 3Q106 3 62 0Q52 0 47 29Z" />
<glyph unicode="2" glyph-name="two" horiz-adv-x="500" d="M32 1T32 12Q32 19 37 26T47 40T56 50Q61 56 125 132T226 255L250 285Q292 338 320 379T373 474Q384 498 384 530Q384 578 351 602T276 626Q237 626 212 620T155 600Q138 592 115 574T86 553L81 551Q79
551 77 553T72 557Q68 561 63 563T55 569Q52 573 52 575T54 582Q72 607 103 638Q115 650 147 670T215 705T276 720Q322 720 358 698T413 641T433 566Q433 523 418 488T375 410Q373 407 359 385Q341 355 276 271T203 179Q198 174 194 169T195 164Q198 164 209 164T250
163Q273 163 285 164Q386 164 437 168Q459 170 464 164T469 149T468 137V31Q468 12 460 8T429 3Q408 3 392 2L315 1Q286 1 277 2L119 3Q70 3 65 2Q61 1 51 1Q32 1 32 12Z" />
<glyph unicode="3" glyph-name="three" horiz-adv-x="500" d="M158 -29T123 1T67 67T38 124Q33 133 33 140Q33 145 36 146T41 149Q42 151 50 155T62 160Q64 161 67 161Q75 161 78 147Q80 143 87 120T114 68Q133 39 168 22T250 4Q284 4 312 15T358 35T379 46Q390
53 405 74T431 128T442 202Q438 266 397 300Q367 325 291 325Q260 325 183 314Q157 310 138 310H136Q131 310 129 316Q128 321 128 335Q128 338 131 341T138 348T149 357Q157 365 224 420T327 503Q331 507 331 510Q331 517 301 517Q289 516 207 515T73 513Q62 513
60 519T57 534T58 548L59 640L58 690Q58 710 82 710Q88 710 104 708Q120 706 128 706Q147 706 191 710Q239 714 268 714L377 713Q392 712 408 712Q417 712 418 703T420 667L419 544Q419 533 414 526T399 512T383 499Q356 480 278 420Q272 414 264 408T246 393Q242
390 237 386T223 376Q211 369 211 363Q211 359 214 359Q216 359 227 359T254 359Q277 359 312 357T363 352Q382 350 406 337T451 290T472 202Q472 157 460 124Q458 119 450 94T426 49T389 14Q351 -8 327 -16Q293 -29 200 -29Q158 -29 123 1Z" />
<glyph unicode="4" glyph-name="four" horiz-adv-x="500" d="M344 6T342 11T340 42V90Q341 114 343 129Q345 159 345 219Q345 235 340 240T323 246L297 245Q251 241 216 241Q200 241 194 242L170 243Q129 243 91 240L52 239Q37 239 33 245T29 264Q29 281 31 287T46
309Q64 331 88 367Q100 385 127 420Q164 464 223 544Q260 596 281 628T315 677L333 704Q345 721 360 721H367Q372 721 376 723Q384 722 394 721T407 715T410 695Q410 683 408 641Q403 526 403 330Q403 308 406 302T417 295Q421 295 435 296T460 298Q465 298 466
293T468 278T469 264Q469 262 469 261T470 259Q470 254 467 251T460 248H455Q450 248 442 247T420 246Q408 246 405 240T402 221V216L401 231Q400 231 399 151T397 35V25Q397 11 387 8T366 5T352 6Q344 6 342 11ZM88 286T93 288T109 290Q123 290 131 289L160 288Q167
288 196 289T266 291H318Q331 291 336 299T342 330T344 405V450L346 500L348 624Q348 633 349 642T351 661L350 663V664Q347 664 316 613L293 576L227 484Q199 445 159 395Q159 395 144 377Q125 347 97 322Q87 313 84 308T80 293Q80 286 85 286Q88 286 93 288Z"
/>
<glyph unicode="5" glyph-name="five" horiz-adv-x="500" d="M116 -40T79 33T41 158T40 216Q38 226 38 242Q38 270 51 270L117 271Q131 271 134 266T137 247Q137 235 138 228Q141 205 165 189T231 172Q252 172 271 181T314 210Q335 229 340 245T345 296Q337 360
281 364Q236 361 212 353Q188 345 170 330Q151 314 140 315L48 316Q38 316 38 349Q38 356 40 378Q43 405 43 408Q45 432 39 563Q38 592 37 621T36 674Q36 700 48 709T82 719Q91 719 98 718T113 717Q137 717 189 719Q225 721 240 721Q252 722 286 722L373 721Q395
720 429 720Q449 720 456 714T463 697L462 680L460 634L458 583Q458 562 428 562Q419 562 399 564Q393 565 370 565Q335 565 255 563L182 561Q154 561 145 552T136 524L134 459Q134 435 133 428V387Q159 411 176 419Q229 446 292 449Q368 445 412 410T469 314Q475
264 473 242Q472 225 467 202Q466 195 454 128T388 11T249 -40Q116 -40 79 33Z" />
<glyph unicode="6" glyph-name="six" horiz-adv-x="500" d="M196 -33T144 5T54 126T16 337Q16 464 56 546T150 664T247 701Q331 701 379 647T449 541Q453 531 453 527Q453 508 427 497Q411 489 324 425Q317 421 310 421Q303 421 300 426T296 438Q294 441 290 451T273
468T236 476Q217 476 205 455T188 402Q183 365 183 329Q193 344 211 355Q253 382 303 382Q346 382 387 364T456 309T483 222Q483 108 442 52T351 -19T240 -33Q196 -33 144 5ZM276 137T289 166T303 226Q303 248 285 262T253 276Q230 276 213 256T195 210Q195 182
210 160T252 137Q276 137 289 166Z" />
<glyph unicode="7" glyph-name="seven" horiz-adv-x="500" d="M78 -18T71 -11T58 0Q51 4 51 11Q51 17 67 41Q70 45 131 148L160 196Q171 219 219 293H206Q188 293 159 291T120 287Q111 287 109 292T107 310V380Q107 397 111 405T126 413H296Q313 437 336 475Q363
514 395 567T428 624Q428 627 424 627Q421 627 416 626T405 624Q398 624 381 625T334 627Q305 627 206 618T88 605Q78 603 74 603Q57 603 57 619L58 644Q58 654 57 658V660Q57 669 62 672T76 677L102 678Q168 681 180 681Q195 681 241 683Q291 685 314 685Q334
685 341 684Q363 682 384 682Q418 682 460 684Q472 685 486 685Q496 685 498 676T500 654T499 636Q499 620 492 606T461 557Q439 529 359 413H431Q451 415 456 409T461 385V310Q461 298 454 294T424 289H374L338 292Q324 294 307 294L276 293Q243 244 169 118L133
58Q129 50 124 42T112 23Q90 -14 85 -17Q84 -18 81 -18Q78 -18 71 -11Z" />
<glyph unicode="8" glyph-name="eight" horiz-adv-x="500" d="M131 -6T76 43T20 179Q20 264 115 343Q157 376 211 400Q201 410 201 410Q199 413 189 418T172 429Q167 433 145 448T108 496T92 578Q92 629 120 664T190 715T273 732Q306 732 346 718T416 671T447
581Q447 506 405 440Q389 412 364 392Q395 376 422 348Q480 286 480 202Q480 138 449 91T363 19T241 -6Q131 -6 76 43ZM287 432T296 438T316 458Q342 486 353 511T364 568Q364 628 340 660T265 692Q242 692 219 679T180 643T165 595Q165 556 177 529T217 467Q229
452 241 443T272 425Q287 432 296 438ZM295 35T328 61T378 126T395 202Q395 247 380 281T337 335Q320 347 310 353T280 365Q245 351 231 344T197 322Q117 259 117 170Q117 95 152 65T247 35Q295 35 328 61Z" />
<glyph unicode="9" glyph-name="nine" horiz-adv-x="500" d="M202 -32T165 -11T105 38T58 107Q43 133 43 152Q43 167 52 174T69 182Q77 182 89 183T112 185Q124 185 132 179T149 160Q165 138 186 125T252 112Q291 112 312 138T343 206Q354 247 352 301Q332 278
311 260Q262 219 232 219Q185 219 141 230T59 288T21 431Q21 536 60 600T153 690T250 717Q334 717 385 649T457 494T479 351Q479 181 440 114Q418 73 396 43T337 -9T251 -32Q202 -32 165 -11ZM249 335T273 349T315 385T334 430Q334 470 330 500T301 556T224 583Q201
583 177 569T136 525T119 455Q119 394 152 365T226 335Q249 335 273 349Z" />
<glyph unicode=":" glyph-name="colon" horiz-adv-x="244" d="M98 313T79 326T50 360T40 399Q40 428 62 451T119 475Q150 475 172 453T195 399Q195 365 177 339T122 313Q98 313 79 326ZM94 -15T71 7T48 72Q48 113 70 130T122 147Q174 147 190 118T206 48Q206 22
182 4T127 -15Q94 -15 71 7Z" />
<glyph unicode=";" glyph-name="semicolon" horiz-adv-x="231" d="M134 283T117 296T90 327T80 363Q80 391 100 412T153 433Q181 433 201 413T222 363Q222 332 206 308T157 283Q134 283 117 296ZM60 -114T40 -111Q30 -111 24 -97T18 -72L44 9L76 122Q79 133 88
138T109 144H161Q167 144 172 140T178 129Q178 125 175 119Q173 110 170 96T164 75Q163 70 157 55Q150 40 145 24Q137 -3 127 -42T116 -86Q107 -108 95 -111Q88 -114 73 -114Q60 -114 40 -111Z" />
<glyph unicode="&lt;" glyph-name="less" horiz-adv-x="500" d="M319 61T304 79Q298 88 289 97Q275 112 257 129L229 158Q214 173 192 190Q122 251 91 273Q33 311 37 338Q36 349 83 395Q138 448 162 470Q179 487 219 516Q232 525 245 535T267 556L283 576Q299
597 309 607T327 617H381Q424 618 439 614Q457 610 457 597Q457 594 455 588Q437 562 424 547T385 509Q359 486 345 470Q345 470 316 441L293 418Q259 387 240 375Q219 360 199 335Q214 316 233 297L275 257Q315 215 338 197Q362 179 388 150Q412 124 428 109T448
89Q454 80 454 74Q454 66 445 63Q443 63 435 63T396 62Q362 62 347 62T327 61Q319 61 304 79Z" />
<glyph unicode="=" glyph-name="equal" horiz-adv-x="500" d="M460 376T454 377T438 378H309Q267 378 235 380L202 383Q174 385 168 387Q144 387 105 384L45 382Q42 381 38 381Q31 381 28 386T22 403Q21 408 21 418L22 450Q22 474 39 474Q43 474 53 472H321Q374
472 413 475L452 476Q467 476 471 472T478 454L479 414Q479 390 476 383T465 376Q460 376 454 377ZM36 147T34 151T32 164V204Q32 217 36 222T51 228H433L444 229Q459 229 461 225T464 208V164Q464 154 457 151T427 147L362 149Q304 151 283 151H134Q115 151 84
150T45 147Q36 147 34 151Z" />
<glyph unicode="&gt;" glyph-name="greater" horiz-adv-x="500" d="M102 62L73 63Q64 66 64 74Q64 80 70 89Q73 92 89 107T129 150Q158 180 180 197Q205 217 233 246T284 308Q303 327 318 346Q298 372 276 386Q257 399 224 429L201 452Q172 481 172 481Q157 499
131 520Q114 535 91 560L63 588Q61 594 61 597Q61 610 79 614Q90 617 121 617H151Q159 617 169 607T195 576L211 556Q220 545 233 535T259 516Q299 487 316 470Q347 441 394 395Q442 350 441 338Q443 322 427 306Q409 288 387 273Q356 251 286 190Q259 169 248
158L220 129Q202 111 188 94Q176 81 166 71T151 61L102 62Z" />
<glyph unicode="?" glyph-name="question" horiz-adv-x="396" d="M171 159T159 170Q138 179 138 187Q135 199 135 215L136 249Q138 277 138 293Q138 317 155 345T205 418Q234 454 242 471Q259 502 259 529Q259 557 240 576Q207 603 177 603Q165 603 148 598Q128
589 91 556Q87 553 79 559T56 579L36 598Q29 605 22 616T22 631Q51 663 80 682Q120 708 150 715T247 723Q281 723 311 699T359 630T378 526Q378 477 350 430T289 350Q269 330 259 302T249 242Q249 204 242 191Q240 183 235 176T223 167Q219 166 208 163T187 159Q171
159 159 170ZM154 -15T136 7T117 60Q117 69 118 74Q127 123 185 123Q217 123 233 102T250 56Q250 49 249 46Q249 35 239 21T213 -4T179 -15Q154 -15 136 7Z" />
<glyph unicode="@" glyph-name="at" horiz-adv-x="745" d="M271 -47T233 -31Q182 -11 115 84Q112 90 103 100Q85 124 73 146T51 206T41 301Q41 368 61 426T105 522T146 577Q159 590 189 608T265 642T366 657Q436 657 487 647T578 611Q607 595 637 558T686 479T706
406Q706 359 699 290T683 197Q675 175 666 160T636 133T578 120Q530 120 505 164Q493 186 489 209L443 143Q405 97 330 97Q279 97 244 127T190 204T172 297Q172 340 189 378T229 442T266 472L287 480Q323 495 351 504T404 514Q441 514 490 507T555 488Q569 480
569 463Q569 456 567 443T563 421Q562 408 559 391T553 355Q545 311 540 271Q539 265 539 252Q539 224 547 205T578 186Q611 186 630 230T649 360Q649 444 617 494T521 569Q476 589 404 589Q365 589 327 583T261 569Q221 553 188 528T129 446T103 297Q103 206 148
142T250 44T338 10Q375 10 400 14T450 26Q475 34 495 48T524 77Q532 83 536 83Q541 83 546 79T552 74Q556 72 568 60T586 43Q588 41 591 38T594 31Q594 26 586 18Q580 12 550 -4T486 -33T435 -46L369 -47Q271 -47 233 -31ZM370 174T399 190T449 229T474 266Q478
280 479 305T482 338Q484 375 486 386Q491 401 493 419Q494 425 494 437Q487 442 471 447Q439 457 394 457Q356 457 323 439T270 388T250 314Q250 249 275 212T343 174Q370 174 399 190Z" />
<glyph unicode="A" glyph-name="A" horiz-adv-x="475" d="M2 0T6 13Q6 16 7 18Q7 20 8 23T11 32L20 69Q22 75 27 90T34 118Q39 142 53 191L61 219Q80 281 85 306L99 359Q109 392 111 401Q118 431 131 476L138 504L144 525Q154 559 161 574Q163 580 175 615T192
672Q199 696 206 708T227 720Q232 720 237 711T247 689T254 670Q262 651 282 575L290 547Q291 539 323 449L342 394L360 347Q388 268 396 251Q431 145 437 123Q444 97 459 58T477 14Q480 7 480 4Q480 0 469 0H413Q409 0 407 1T402 9Q398 20 391 45Q382 70 379 90Q376
105 370 126T358 158Q349 177 342 201L333 230Q328 241 326 243T317 246Q296 246 286 245L243 243Q235 242 169 242H108H106Q100 242 97 231L95 221L91 202Q89 196 78 144Q75 127 68 100Q66 80 59 67Q57 64 54 53T49 35Q46 27 42 9Q41 8 40 5T37 1T31 0H11Q2 0
6 13ZM202 310Q214 312 236 312L290 311Q303 311 303 318Q303 323 296 340Q290 355 278 396Q269 429 260 453Q250 483 239 524T225 577Q210 630 205 630Q202 630 195 603L189 581Q182 554 171 514T151 445Q145 419 135 380T118 325Q116 319 116 318Q116 311 122
309T135 307T144 308L202 310Z" />
<glyph unicode="B" glyph-name="B" horiz-adv-x="512" d="M74 -7T68 3T62 31L63 253V301Q63 339 66 370L69 492Q69 513 70 554T72 607Q73 615 73 635Q73 670 70 685Q69 687 69 690Q69 696 80 699Q90 702 133 707T211 713Q306 713 361 675T417 531Q417 435 359
381Q333 359 302 348Q360 327 421 278T483 130Q483 66 438 37T346 2T248 -4L151 -6L90 -7Q74 -7 68 3ZM218 361T260 372T341 419T380 523Q380 595 355 630T293 674T197 684L195 620Q193 548 193 513V399Q193 389 192 382T191 370Q191 364 192 363T198 361Q218 361
260 372ZM322 15T371 46T420 131Q420 265 305 313Q254 332 190 331Q189 328 189 323Q188 318 188 300L190 236L192 182Q192 168 191 162L190 136L192 77L194 31Q194 19 198 17T211 14T224 15Q322 15 371 46Z" />
<glyph unicode="C" glyph-name="C" horiz-adv-x="515" d="M228 -12T169 36T73 169T37 354Q37 454 71 534T160 659T271 704Q342 704 385 675T448 618Q452 612 455 607T459 597Q459 591 448 581Q402 545 382 518Q372 505 365 499T351 492Q344 492 335 502Q314 525
303 534T275 544Q250 544 226 523T184 454T167 329Q167 255 188 212T237 151T285 134Q303 134 322 146T355 173Q357 175 361 180T370 185Q375 185 382 181L467 134Q471 132 479 129T491 122T495 114Q495 109 492 103Q470 66 423 27T293 -12Q228 -12 169 36Z" />
<glyph unicode="D" glyph-name="D" horiz-adv-x="577" d="M69 0T69 34L70 60L68 110L67 155L66 185Q62 237 62 303Q62 342 66 406Q70 470 70 511L69 645Q68 661 68 681Q68 692 82 694T113 697T135 696L171 698Q213 700 239 700Q300 700 369 668T490 549T542 315Q542
180 478 111T342 22T224 2L142 1Q120 0 88 0Q69 0 69 34ZM268 227T291 250Q341 298 341 364Q341 427 293 465Q272 481 246 489Q248 467 248 455Q248 436 246 400Q244 366 244 350Q244 324 242 266Q241 249 241 214Q268 227 291 250Z" />
<glyph unicode="E" glyph-name="E" horiz-adv-x="514" d="M68 -2T67 1T66 15Q65 26 65 52Q65 60 64 69T63 95V232Q63 252 64 271T66 299Q70 345 70 387Q70 439 67 469Q65 503 65 531Q65 594 68 678Q68 691 73 695T87 700L102 699Q111 699 131 698T180 696Q213
696 258 701Q312 705 330 705Q371 705 405 702L441 701Q454 701 458 695T462 673Q462 664 464 642Q466 616 466 597Q466 577 463 560Q462 545 449 545Q445 545 438 547T427 550Q412 553 340 553L302 554Q289 555 264 555Q246 555 237 554Q207 552 184 552L131 553Q123
553 122 550T121 533Q121 515 120 502Q118 462 118 437V378Q118 357 119 346Q127 345 146 345Q163 344 216 344Q238 344 280 346Q312 348 322 348Q336 348 350 347T371 345Q384 345 384 333Q384 329 383 322T382 302L383 249Q383 240 381 237T374 233Q371 233 366
234T356 236Q347 236 323 237T256 238Q211 238 178 234T138 230Q127 230 125 231Q120 231 119 232V132Q126 132 130 133L158 134L276 135Q312 135 333 134L402 133L444 134Q456 134 460 129T464 113L463 93L462 23Q462 7 455 4T435 0T414 1Q371 1 340 2L238 3Q226
3 118 0L80 -1L74 -2Q68 -2 67 1Z" />
<glyph unicode="F" glyph-name="F" horiz-adv-x="476" d="M209 2T191 4Q182 5 154 5L81 4Q70 5 68 8T65 16T65 24L64 77Q64 91 63 101L62 169Q62 184 63 199T65 222Q68 245 68 274L67 388L68 454Q70 500 70 524Q70 580 68 662Q68 680 72 686T86 692Q92 692 98
691T114 690L190 692L254 694Q266 694 281 695T311 697Q345 700 367 700L451 699Q474 699 474 684V634Q474 625 471 624T456 622Q443 622 433 623L369 624Q331 624 295 620L246 617L243 599Q241 577 241 564L240 475L239 424V400Q260 400 270 401L318 402L358 403Q372
404 397 404Q413 404 418 400T424 387L423 354Q423 346 419 343T400 340Q382 340 370 341L330 342H237Q237 316 238 304L239 241L238 192Q236 160 236 143L237 25Q237 12 232 7T214 2Q209 2 191 4Z" />
<glyph unicode="G" glyph-name="G" horiz-adv-x="592" d="M270 -14T207 15T92 123T41 338Q41 496 89 580T197 692T311 719Q405 719 452 672T521 583Q525 573 529 562T536 543Q537 541 537 538Q537 535 535 533T528 530T519 525L496 513Q461 494 447 488Q425 475
411 465L392 452Q386 447 373 439Q369 436 365 436Q359 434 357 434Q352 434 349 441T342 452Q340 455 334 464T320 479T300 486Q270 486 253 440T236 342Q236 295 238 267T254 214T299 190Q339 190 355 240Q362 261 362 290L342 294Q318 298 307 299Q288 301 288
313Q288 320 296 352Q301 368 306 371T321 373Q326 372 344 370T403 363L458 355Q514 347 533 346Q550 345 556 328Q558 318 557 311Q550 187 511 115T419 14T316 -14Q270 -14 207 15Z" />
<glyph unicode="H" glyph-name="H" horiz-adv-x="682" d="M626 704T626 697L624 689Q623 682 621 663T615 603Q612 573 610 467T608 300Q608 258 604 154L602 88L601 48Q601 33 603 19L604 13Q604 7 600 7T594 6Q584 4 558 4Q550 4 550 12L551 160Q550 176 550
193T551 225V267V341L470 339Q427 338 354 338H260Q222 338 201 339Q201 322 200 313Q198 281 198 252L197 144Q197 65 202 40Q204 28 204 25Q204 11 197 8T181 4T169 5Q134 7 89 2Q72 0 69 10T65 38T66 65L64 411L66 670Q66 690 70 695T85 701L107 700Q112 700
130 702Q135 703 147 703L173 702Q181 701 195 701Q206 701 208 695T211 681T210 671Q210 625 206 552L202 453L199 394L259 392L296 391Q344 389 363 389Q441 389 482 390Q531 390 557 391V421L556 476Q556 514 560 632L562 702Q563 711 573 711L584 710Q588 709
599 709Q611 709 616 707Q626 704 626 697ZM550 14V12V14Z" />
<glyph unicode="I" glyph-name="I" horiz-adv-x="153" d="M65 -7T57 -7T46 -5T44 3L45 35L47 166L49 376Q49 406 53 512Q54 537 56 593T56 660L55 681Q55 707 71 707L108 706Q118 706 118 692Q118 687 117 681T116 668Q113 646 111 555Q111 527 107 413Q103 303
103 279Q103 221 105 133T109 27Q110 21 110 13Q110 6 108 3T100 -3Q94 -7 69 -7Q65 -7 57 -7Z" />
<glyph unicode="J" glyph-name="J" horiz-adv-x="491" d="M145 -7T92 42T22 149T5 247L6 333Q7 352 7 376Q7 389 10 391T22 393Q33 393 84 400Q102 401 102 382Q102 376 100 365T98 345Q98 248 112 195T151 123T212 103Q252 103 277 124T314 176T325 233L328 509Q326
539 326 575L327 672Q325 697 332 703T352 710Q358 711 371 712T395 714Q406 714 411 713Q428 712 432 707T435 680L433 374Q432 367 432 359T433 343V311Q433 -7 244 -7Q145 -7 92 42Z" />
<glyph unicode="K" glyph-name="K" horiz-adv-x="601" d="M416 -4T408 0T389 14Q382 20 336 80Q300 129 286 144Q268 160 233 203L197 244Q197 214 196 201L194 137L193 68Q193 31 196 20Q197 17 197 13Q197 6 194 5T183 3H143L119 2Q93 0 81 0Q71 0 69 1Q62 1
62 7Q62 10 66 22Q68 29 64 54Q63 60 62 69T61 88Q62 143 64 263T70 401Q73 428 73 501Q73 539 72 548Q71 556 71 590Q71 620 72 649T76 688Q77 698 87 698Q92 698 97 697T107 695Q126 695 136 694Q144 694 155 694T181 694H187Q195 694 197 691T200 682V645V615V574Q200
457 196 425Q194 403 194 390L195 357L197 323L213 340Q218 346 242 370Q254 381 286 415T336 470Q344 481 374 514T429 572Q445 590 460 605Q519 670 523 677Q533 692 544 694Q547 694 556 694T572 694Q579 693 579 687Q579 683 574 678Q572 676 548 652T511 616Q501
607 453 548T395 476Q369 447 332 408L278 352Q273 359 313 311Q341 277 366 252Q376 242 426 182Q490 107 497 101Q507 92 551 39L571 15Q574 11 574 7Q574 -1 557 -1L428 -4Q416 -4 408 0Z" />
<glyph unicode="L" glyph-name="L" horiz-adv-x="524" d="M68 -8T68 12V90L72 425Q72 463 67 563L63 686Q63 703 76 703Q81 703 93 700T112 697Q140 693 179 693Q206 693 230 696Q245 698 251 694T257 681Q257 674 256 667T254 650L252 596Q248 514 248 473L250
322Q251 286 251 248L249 139L248 119L249 91L251 56L394 51L513 50H515Q521 50 522 48T523 43T522 37Q521 33 522 22T524 2Q524 -5 519 -7T507 -9T495 -8L442 -5Q372 1 343 1Q311 1 181 -5L90 -8Q68 -8 68 12Z" />
<glyph unicode="M" glyph-name="M" horiz-adv-x="704" d="M69 0T67 6T65 34Q65 67 64 97L62 220Q62 248 64 278T67 333Q72 405 72 434L74 622L73 676Q73 711 78 716Q81 719 85 719Q87 719 92 718T103 716L134 717Q153 717 162 715Q171 712 175 701T182 675T187
652Q192 625 210 577T246 493Q260 469 283 416T317 331Q323 315 334 291L349 255L370 208Q399 265 412 291L477 421L522 511Q557 583 569 604Q588 643 609 676T639 710Q647 710 647 697Q647 685 642 665L638 640Q634 613 634 400Q634 353 632 286T627 197Q625 171
625 120L626 23V18Q626 6 620 8H618Q613 8 607 7T593 6Q589 7 588 11T586 25V84Q586 186 588 204Q590 225 592 282T595 374Q594 383 596 430L597 466L599 538Q592 528 587 517Q577 500 568 480L558 460Q541 427 519 383T481 307Q463 271 436 215T393 125Q367 64
363 64Q360 64 354 74T346 87Q339 98 324 133T300 196Q294 214 248 297Q212 366 211 369Q201 389 184 436Q173 461 167 480L165 436L163 368L161 171L160 15Q160 6 155 4T143 2T132 3L110 2Q92 0 84 0Q69 0 67 6Z" />
<glyph unicode="N" glyph-name="N" horiz-adv-x="676" d="M76 -12T71 -7T65 6T63 16Q59 34 59 60Q59 84 60 101Q60 153 62 222T67 322L72 393Q84 559 84 580Q84 659 87 698Q89 725 115 725Q123 725 130 724T141 723L226 724Q248 724 258 720T275 704Q285 683 300
650L337 570L384 467Q397 439 418 393T448 329Q465 294 470 286L498 231L529 170L527 228L523 326V356Q523 411 525 467Q525 509 524 535L523 611L527 707Q527 722 542 722Q547 722 562 719Q571 717 581 717T597 717Q605 717 607 715T610 708Q610 704 609 699T608
688L607 602L605 400L604 371Q604 337 605 309T607 263Q610 220 610 191Q610 195 613 72L615 16V14Q615 -6 596 -4Q593 -3 584 -3L555 -4H549Q542 -4 539 -1T527 16Q524 23 519 36T507 65Q464 173 445 212Q423 254 334 453Q314 494 289 540L260 592L263 497L264
438Q266 372 266 351Q266 269 269 186L270 108Q270 87 272 47L274 12V10Q274 0 269 -3T255 -6L233 -7Q212 -10 188 -10Q160 -10 142 -11L91 -12Q76 -12 71 -7Z" />
<glyph unicode="O" glyph-name="O" horiz-adv-x="544" d="M137 -22T90 98T43 357Q43 490 79 570T168 682T273 714Q373 714 423 657T487 521T501 343Q501 263 477 179T403 36T280 -22Q137 -22 90 98ZM299 232T312 262T325 334Q325 374 313 404T279 434Q254 434
242 400T229 325Q229 284 237 258T272 232Q299 232 312 262Z" />
<glyph unicode="P" glyph-name="P" horiz-adv-x="520" d="M72 1T67 9T62 36Q62 58 63 76L64 160L66 278Q72 490 72 609Q72 645 71 652Q69 674 69 678Q69 704 80 704Q85 704 100 703T144 702Q152 702 185 703T254 704Q307 704 355 701Q424 697 469 645T515 489Q515
421 486 381T419 326T352 310Q325 310 261 304Q224 300 201 299Q199 207 199 174Q199 44 202 33Q204 23 199 16T185 6T169 6Q166 7 152 7Q122 7 88 3Q72 1 67 9ZM361 382T393 404T425 483Q425 544 400 575T327 616Q252 631 209 628Q209 600 208 586Q206 530 203
506Q199 471 201 427L203 388L250 385Q277 382 324 382Q361 382 393 404Z" />
<glyph unicode="Q" glyph-name="Q" horiz-adv-x="669" d="M244 -1T181 44T83 162Q50 231 42 326Q42 473 85 558T191 677T323 710Q431 710 494 660T583 540T608 406Q608 338 594 256T540 111Q599 39 615 26Q629 13 629 7Q629 2 621 2Q615 3 607 3T591 2Q581 1 560
1Q543 1 535 6T516 28Q513 34 496 56Q437 -1 347 -1Q244 -1 181 44ZM408 53T460 105L386 204Q375 219 373 225T375 231Q383 231 431 236Q446 238 452 232T463 215T470 198Q473 192 501 158Q527 202 540 255T554 356Q554 477 505 565T322 654Q285 654 230 623T132
526T89 363Q89 208 154 131T337 53Q408 53 460 105Z" />
<glyph unicode="R" glyph-name="R" horiz-adv-x="527" d="M77 -16T73 -11T68 6L69 29L67 87Q61 191 61 268Q61 308 64 323Q69 348 69 464Q69 585 65 647Q64 655 64 669Q64 685 67 692T73 699T86 700L108 702Q177 710 218 710Q330 710 386 653T443 503Q443 430
396 363Q376 334 350 311L420 184Q497 46 510 28Q524 6 524 -1Q524 -5 519 -6T511 -7T505 -7L392 -10Q384 -10 380 -3T367 22Q362 37 349 62Q329 98 280 197L229 296L232 243L237 167Q243 33 247 19Q248 15 248 9Q248 -9 229 -9Q223 -9 219 -8Q203 -6 141 -12Q99
-16 90 -16Q77 -16 73 -11ZM238 429T250 435Q278 448 278 488Q278 517 269 531T246 545Q235 545 227 537Q226 536 227 523T228 497Q228 486 227 481Q223 464 223 446L222 437L223 429Q238 429 250 435Z" />
<glyph unicode="S" glyph-name="S" horiz-adv-x="576" d="M121 -21T82 34T41 92Q37 97 37 102Q37 105 45 115Q58 133 83 158Q87 162 91 162Q96 162 102 155T112 143Q171 84 246 84Q284 84 312 98T340 153Q340 222 231 300Q213 312 197 320Q155 343 125 365T72
423T49 507Q49 567 86 615T176 690T268 717Q363 717 424 680T520 608Q524 604 524 599Q524 596 522 592T518 585Q513 578 502 561T483 535Q480 531 477 527T471 520T463 518Q461 518 454 524T439 536Q399 571 361 596T288 621Q260 621 242 609T224 552Q224 509
256 485T341 439Q346 437 399 414T494 326T536 171Q536 75 464 27T265 -21Q121 -21 82 34Z" />
<glyph unicode="T" glyph-name="T" horiz-adv-x="529" d="M211 0T209 4T207 18T207 34L211 158Q217 320 217 366Q217 392 215 444L214 497Q142 497 68 495L37 494Q24 494 19 501T17 517L18 542Q20 600 20 649Q20 673 19 678V685Q19 696 23 698T37 700H136L192
701Q244 703 265 703L325 702Q397 700 438 700Q468 700 477 701Q499 702 508 695T517 678Q517 673 516 652T514 600Q514 572 517 524Q517 497 482 497H306L304 394Q303 377 303 309Q303 239 304 173T305 59L306 18V13Q306 4 304 2T297 0T291 0H223Q211 0 209 4Z"
/>
<glyph unicode="U" glyph-name="U" horiz-adv-x="488" d="M426 583T428 509Q433 387 433 308V247Q431 118 372 61T228 3Q164 3 125 45T70 140Q63 163 60 211T56 311Q56 368 59 387Q61 401 61 480Q61 606 57 662Q56 668 56 678Q56 709 75 701L86 700Q90 700 94
701T104 702Q108 702 109 696Q108 633 107 516T106 288Q106 230 120 184T161 112T219 86Q263 86 282 111T302 165L304 226Q307 376 307 392Q307 415 309 483Q312 540 312 595Q312 644 308 664Q305 676 305 683Q305 697 311 700T324 704T333 703Q343 702 355 702T378
703H404Q420 703 422 699T426 679Q428 657 428 625Q428 603 427 593Q426 583 428 509ZM109 691V696V691Z" />
<glyph unicode="V" glyph-name="V" horiz-adv-x="546" d="M196 1T192 9T184 39Q172 89 112 314Q104 345 57 550L24 690Q22 698 22 700Q22 708 33 708Q39 708 47 707T64 705L114 707L175 709Q193 711 199 704T209 678Q212 665 226 570L233 521Q238 489 260 381L282
282L295 341Q304 381 311 432Q312 446 320 481T333 535Q363 646 361 673Q359 699 366 705T382 711T395 710Q490 710 514 707Q525 706 529 703T533 695Q533 690 530 679Q525 666 511 603L506 581Q469 392 448 317Q432 253 413 127Q396 30 394 25Q391 15 388 12T379
8L363 9L296 5Q226 1 212 1Q196 1 192 9Z" />
<glyph unicode="W" glyph-name="W" horiz-adv-x="658" d="M216 -1T213 4T206 20Q202 28 192 77Q188 93 180 125T168 168Q159 190 147 232T133 283Q125 302 87 444Q81 463 76 481T67 514L48 585L26 666Q22 679 22 686Q22 689 24 690T29 691H60Q77 691 84 692L95
694Q105 697 108 691T116 666Q118 658 136 596T178 473Q197 414 213 375L230 331L234 344L244 372Q251 389 268 454L275 480Q279 495 293 537T315 602Q320 613 327 635Q353 701 365 701Q372 701 374 699T377 692T379 684Q381 676 384 666T389 642Q429 538 437 518L468
451L486 411Q488 417 490 420L500 445Q502 451 508 486Q515 530 520 549Q525 568 538 604Q553 648 555 663Q559 698 579 698Q595 702 615 702Q625 702 628 701Q640 701 640 692L638 680L629 652Q622 625 617 611Q612 593 605 568T591 517Q576 458 565 421Q559 397
552 351T545 296Q545 272 531 238Q526 223 516 172T503 103Q493 37 489 30Q488 24 487 16T484 3T479 -1Q471 -1 468 3T458 20Q450 30 417 117Q410 135 375 234Q369 255 355 291L341 328L327 300Q317 278 297 226L289 206Q277 171 251 63L244 34Q241 22 235 11T223
-1Q216 -1 213 4Z" />
<glyph unicode="X" glyph-name="X" horiz-adv-x="572" d="M460 -5Q454 -4 451 -1T444 13L433 35Q428 46 406 76Q381 110 373 129Q363 147 336 193T293 265Q286 275 281 275Q277 275 268 263Q254 246 239 225Q214 190 202 176Q188 158 165 119T133 60Q124 41 109
22T84 -1Q76 -3 67 -3Q49 -3 31 2Q22 5 22 11Q22 16 28 26T37 40Q43 50 69 86T108 140Q108 140 140 184Q152 200 189 256Q212 294 226 311Q238 328 238 342Q238 352 231 366Q226 376 197 425L150 510Q137 535 75 631Q46 675 37 691Q30 702 30 709Q30 720 44 718Q53
717 73 719L95 720Q103 719 109 712T125 690L139 669L150 651Q186 594 205 562Q223 530 258 472Q274 445 289 423Q294 423 297 427T304 439T311 453L366 543Q413 620 438 654Q447 666 456 685Q471 714 480 719Q498 727 516 727Q533 727 541 721T546 704Q541 689
515 654Q499 634 468 586L443 548Q431 531 396 464T345 365Q338 355 338 348Q338 343 345 327Q348 321 373 281Q378 273 384 264T395 245Q437 169 464 133Q483 103 504 68T537 12Q541 5 541 1Q541 -6 523 -6L460 -5Z" />
<glyph unicode="Y" glyph-name="Y" horiz-adv-x="496" d="M114 -3T114 3Q114 6 115 8T118 14L129 44Q152 109 153 111Q155 119 172 165L180 185Q182 190 186 198T190 212T189 223Q187 226 180 252Q178 258 172 278T160 310Q154 325 144 359Q137 382 131 400Q115
444 92 513T54 624Q49 640 41 656Q34 672 34 677Q34 684 41 686T64 690Q68 691 80 691Q95 691 104 690Q137 690 145 689Q153 688 155 685T158 677T159 668Q169 633 185 585L192 562Q207 511 216 491Q229 461 244 415Q260 367 260 367L268 392Q274 414 282 435L293
465L303 491Q303 491 313 517Q321 539 325 546Q333 562 344 597T362 661Q367 681 374 686T390 691T400 690Q403 690 425 690T463 689Q484 686 484 679Q484 678 482 670Q480 665 478 658T472 641Q448 570 441 554Q423 510 398 444T354 330Q342 295 300 191Q264 105
261 92Q257 80 253 54T246 19Q241 -2 230 -1H203Q197 -2 163 -2L126 -3Q114 -3 114 3Z" />
<glyph unicode="Z" glyph-name="Z" horiz-adv-x="641" d="M363 -2Q344 -1 315 -1H70Q48 -1 43 5T38 20T39 32L41 71Q44 100 44 120Q44 128 51 138T71 162L87 180Q114 216 163 282T225 370Q237 392 274 440T320 502L332 518Q347 540 368 583L386 622Q380 622 377
623L357 625L251 626Q233 626 223 625L190 624Q176 624 172 625Q163 627 101 627H59Q51 628 49 630T47 635T48 640Q48 651 45 679Q44 689 49 691T63 694T75 693Q90 693 130 695Q178 697 201 697L307 695L369 693H428Q514 693 528 695L535 696Q544 696 546 693T548
685T548 680Q548 679 548 661T539 628Q427 466 401 430Q329 328 279 262L184 132Q212 128 225 127Q256 123 297 123L354 124Q371 125 406 125Q434 125 510 129L572 131Q584 131 587 125T590 111T591 100L589 27V21Q589 11 587 9T575 6L555 4Q533 4 500 -1Q486 -3
442 -3L363 -2Z" />
<glyph unicode="[" glyph-name="bracketleft" horiz-adv-x="313" d="M257 -76T236 -74T179 -72H102H97L71 -70Q55 -69 55 -58L57 -27Q68 65 69 172Q70 202 70 263L69 401Q68 418 68 437L67 484Q65 540 65 570Q65 592 66 596Q67 601 67 623L66 687Q65 701 65 719Q64
734 72 738T95 741H155Q161 741 175 741T197 741L251 744L278 747Q290 747 289 736T288 724V700Q288 684 275 684H196Q185 684 178 683L176 665Q172 641 172 609Q172 565 165 455Q164 417 162 386T160 337L156 122L154 60L152 26H269H275Q287 26 287 13V-57Q287
-68 283 -72T266 -76Q257 -76 236 -74Z" />
<glyph unicode="\" glyph-name="backslash" horiz-adv-x="328" d="M269 -23T261 -15Q259 -14 253 -11T244 -1T239 17Q235 34 174 206L161 242Q153 259 113 382Q81 479 78 486Q67 527 22 641Q15 656 14 661Q2 688 2 711Q2 724 7 725Q19 729 53 729Q61 726 70 711T86
676Q88 657 103 611T132 536L162 454Q226 278 232 260Q241 224 263 164T292 83Q307 46 311 31Q318 15 319 12T325 2Q327 -6 327 -8Q327 -12 324 -14T311 -19Q297 -23 285 -23Q269 -23 261 -15Z" />
<glyph unicode="]" glyph-name="bracketright" horiz-adv-x="312" d="M24 -76T25 -65T26 -53V-29Q26 -13 39 -13H118Q129 -13 136 -12L138 6Q142 30 142 62Q142 106 149 216Q150 254 152 285T154 334L158 549L160 611L162 645H45H39Q27 645 27 658V728Q27 739
31 743T48 747Q56 747 78 745T135 743H212H217L243 741Q259 740 259 729L257 698Q246 606 245 499Q244 469 244 408L245 270Q246 253 246 234L247 187Q249 131 249 101Q249 79 248 75Q247 70 247 48L248 -16Q249 -30 249 -48Q250 -63 242 -67T219 -70H159Q153 -70
139 -70T117 -70L63 -73L36 -76Q24 -76 25 -65Z" />
<glyph unicode="^" glyph-name="asciicircum" horiz-adv-x="364" d="M312 163T293 185Q281 193 261 223Q252 236 243 256Q230 291 220 313T196 355Q162 300 153 280Q141 253 136 245L120 212Q107 191 92 180T62 168Q58 168 50 170Q21 170 21 221Q21 232 48 284Q58
302 60 307Q66 319 72 326Q94 360 110 395Q133 432 163 476Q174 487 183 487Q191 489 193 489Q202 489 208 483T221 464T233 445Q243 422 267 378L302 313Q304 310 314 292T331 251T337 210Q332 163 323 163Q312 163 293 185Z" />
<glyph unicode="_" glyph-name="underscore" horiz-adv-x="565" d="M67 -105T67 -87L68 -74V-45Q68 -23 97 -23L445 -22Q466 -22 477 -23Q493 -23 498 -29T503 -45Q503 -48 503 -64T501 -94Q498 -101 488 -101Q483 -101 467 -98T441 -95Q377 -97 291 -97H242Q231
-97 193 -99Q163 -101 148 -101L89 -105Q67 -105 67 -87Z" />
<glyph unicode="`" glyph-name="grave" horiz-adv-x="247" d="M180 611T156 616L134 624Q111 634 95 638T72 645Q59 648 42 655T22 668Q19 674 19 679Q19 687 23 691T38 701Q52 709 60 709Q67 709 76 706T91 701Q119 689 135 684T177 672Q181 670 193 666T215
655T227 639Q229 629 229 626Q229 610 210 610Q205 610 191 612Q180 611 156 616Z" />
<glyph unicode="a" glyph-name="a" horiz-adv-x="530" d="M118 -11T74 18T30 121Q35 169 101 192T249 215Q275 215 311 219Q347 223 377 223Q373 331 364 392T332 485T268 516Q238 516 211 502T144 458Q111 434 111 434Q110 434 105 431T94 428Q85 430 85 437Q81
443 76 464T70 494Q70 500 82 508Q133 546 168 564T229 588T289 593Q389 593 423 529T458 357Q458 329 456 281Q456 252 452 196L451 172L452 113Q454 73 454 52L453 22Q451 -1 435 -1L427 0H386Q382 0 379 3T375 12V20Q315 3 279 -4T191 -11Q118 -11 74 18ZM299
46T375 82L378 175Q331 179 297 179L238 178Q190 178 152 160T111 108Q111 72 128 59T192 46Q299 46 375 82Z" />
<glyph unicode="b" glyph-name="b" horiz-adv-x="532" d="M393 595T442 511T492 298Q492 246 478 177T419 48T288 -11Q216 -11 165 24V17V11Q165 4 164 1T156 -2Q156 -1 148 -1T128 0Q111 0 99 -1T82 -2H78Q73 -2 70 0T67 10L69 47L71 89L73 349Q74 362 74 384V438Q74
474 69 571L65 687Q65 707 65 715T66 727Q66 733 68 736T79 739L140 740Q144 740 148 741T158 742Q166 742 166 735L167 670L168 564Q221 595 288 595Q393 595 442 511ZM347 91T385 144T423 298Q423 388 385 426T294 465Q259 465 225 450T168 408V404Q168 361 167
341Q166 323 166 297V165Q184 131 213 111T284 91Q347 91 385 144Z" />
<glyph unicode="c" glyph-name="c" horiz-adv-x="469" d="M155 -12T96 73T37 297Q37 384 65 451T143 555T260 592Q324 592 364 569T419 525Q420 524 424 519T429 508Q429 503 419 494Q410 485 395 466Q385 450 379 450Q376 450 372 454T366 461Q348 480 322 497T269
514Q214 514 177 497T118 428T96 280Q96 131 145 87T251 42Q277 42 313 64T378 139Q387 150 392 150Q397 150 402 146L417 134Q426 126 436 113T447 94Q447 90 444 85Q424 53 382 21T266 -12Q155 -12 96 73Z" />
<glyph unicode="d" glyph-name="d" horiz-adv-x="575" d="M201 -11T161 12T92 80Q40 164 40 301Q40 364 55 409T102 496Q132 534 167 553Q205 573 243 573Q292 573 321 565T358 550T382 528L384 693Q384 719 389 730T406 742L450 741Q467 741 476 743Q489 745
494 732T499 702L497 18Q497 5 492 0T475 -5Q440 -3 403 -3Q387 -3 381 1T374 20V40Q344 17 314 3T252 -11Q201 -11 161 12ZM286 58T315 72T359 109T375 156Q375 180 379 226L381 270Q381 291 379 325Q377 365 377 404Q377 430 358 450T311 481T259 492Q228 492
200 475Q172 457 154 429Q133 396 123 365T113 293Q113 191 145 129Q180 58 249 58Q286 58 315 72Z" />
<glyph unicode="e" glyph-name="e" horiz-adv-x="482" d="M125 -22T75 79T25 297Q25 409 59 476T141 571T239 598Q331 598 377 545T437 422T451 269Q451 262 441 260Q408 260 289 249Q270 247 243 245T183 240Q192 143 288 143Q320 143 337 149T394 174Q401 174
406 166T422 133Q425 128 429 114T438 93Q457 45 456 43Q454 39 445 32Q424 11 378 -5T275 -22Q125 -22 75 79ZM299 308Q291 422 244 422Q216 422 201 390T183 298L299 308Z" />
<glyph unicode="f" glyph-name="f" horiz-adv-x="347" d="M79 -3T81 38V121L82 175Q82 205 80 265L79 329V359H59Q45 359 41 362T36 373L35 386Q35 396 40 399T62 403H82Q83 421 83 436T82 462V498Q82 520 81 532L80 574Q80 637 92 668Q106 707 141 725T218 743Q259
743 283 738T332 717Q339 713 335 705Q329 695 325 680L316 651Q315 649 313 639T306 628Q299 628 285 629T252 631Q236 631 229 624T221 598V401L256 402Q267 403 287 403Q303 403 308 399T314 386L313 373Q313 365 309 362T290 359Q272 359 261 360L221 361Q220
345 220 326Q219 319 219 303Q219 281 218 271Q218 263 218 251T218 223Q217 202 217 164Q217 98 223 41Q224 31 224 18Q224 10 220 6T204 1Q187 -1 143 -1Q132 -2 118 -2Q115 -3 97 -3Q79 -3 81 38Z" />
<glyph unicode="g" glyph-name="g" horiz-adv-x="553" d="M182 -159T142 -144T94 -122T56 -85Q50 -79 53 -77Q55 -72 60 -66L73 -50Q78 -43 91 -27Q94 -24 98 -24Q102 -24 109 -28T121 -38Q122 -39 132 -47T163 -62T207 -69Q268 -69 294 -34T321 67Q304 57 275
52T215 46Q126 46 79 122T32 313Q32 358 44 421T96 538T209 592Q278 592 325 557V564V570Q325 577 326 580T334 583L421 580L456 582L480 583H484Q489 583 492 581T495 571L493 534L491 492L489 232Q487 218 490 133V108Q488 -22 427 -90T243 -159Q182 -159 142
-144ZM304 216T323 238V302L324 326L326 359L324 392Q313 404 302 411T274 419Q235 419 221 397T207 316Q207 257 225 237T274 216Q304 216 323 238Z" />
<glyph unicode="h" glyph-name="h" horiz-adv-x="543" d="M121 1T83 1Q54 1 54 30L55 229V270Q54 287 54 312Q54 338 57 393Q60 430 62 542T64 697Q64 723 69 735T86 746Q99 745 121 745Q146 745 156 747Q169 750 174 737T179 706L178 585L198 594Q225 607 250
614T321 621Q384 621 419 595T470 501T487 303Q487 135 486 112L487 22Q487 12 484 6T476 0H383Q374 0 372 6T370 27Q370 34 371 48T372 82Q372 95 370 109Q369 114 371 191Q374 329 374 344Q374 412 368 449T342 505T283 523Q220 523 178 485Q173 365 173 251Q173
197 176 83L177 34Q177 18 173 9T155 0Q121 1 83 1Z" />
<glyph unicode="i" glyph-name="i" horiz-adv-x="200" d="M60 -8T58 -7T56 0Q56 3 56 9T57 27L58 136L60 310Q60 338 64 430Q68 533 67 543L66 560Q66 571 69 576T80 582L122 581Q131 581 131 570Q131 565 130 560T129 550Q127 529 125 458Q125 435 121 341Q120
310 119 281T118 229Q118 181 119 108T123 20Q124 16 124 9Q124 2 123 0T115 -4Q107 -8 90 -8T68 -8Q60 -8 58 -7ZM80 619T63 635T45 675Q45 696 60 712T97 729Q122 729 142 716T162 680Q162 652 142 636T101 619Q80 619 63 635Z" />
<glyph unicode="j" glyph-name="j" horiz-adv-x="166" d="M64 631T52 646T40 682Q40 716 61 728T110 740Q128 740 139 723T150 682Q150 661 135 646T91 631Q64 631 52 646ZM-17 -159T-49 -139Q-52 -136 -50 -132L-44 -116Q-44 -115 -42 -109T-30 -102Q-26 -102
-19 -103T-1 -105Q43 -105 46 -42V-22Q48 21 48 123L56 361Q58 395 58 449Q58 511 54 543Q53 550 53 556T54 566Q54 580 74 583Q78 585 86 585T96 584L106 585Q122 585 122 557L121 544V501L120 463Q121 450 120 433T119 407L113 213Q112 206 112 165L113 7L112
-28Q111 -79 106 -104T81 -144T16 -159Q-17 -159 -49 -139Z" />
<glyph unicode="k" glyph-name="k" horiz-adv-x="503" d="M75 -1T74 0Q68 0 68 5Q68 8 69 11T71 18Q72 25 69 44Q66 71 66 73L65 145Q65 316 69 336Q70 352 70 420L69 520Q69 613 68 617Q67 624 67 652Q66 677 67 702T70 735Q70 743 79 743Q83 743 87 742T96 740Q106
740 125 740T158 740H163Q171 740 172 737T174 729T174 723Q175 714 175 702T175 673L176 639V554Q176 442 174 426L173 396Q173 388 174 382T175 368L176 320L190 334L214 359Q234 379 255 404Q278 430 291 443Q300 457 371 528Q373 530 397 555T434 582H468Q474
581 474 576Q474 572 470 568Q468 566 458 554T438 534Q419 515 383 476T341 428L289 371L244 324L259 307L274 290Q302 257 319 240Q327 233 381 170Q424 119 431 113Q443 104 497 40L517 17Q519 11 519 10Q519 4 505 4L396 1Q386 1 380 4T364 16Q361 19 306 86L254
149Q236 167 209 199L177 233Q178 227 178 200Q178 174 177 168V115V57Q177 34 180 16Q181 14 181 10Q181 5 178 4T170 2H136L116 1Q94 -1 84 -1Q75 -1 74 0Z" />
<glyph unicode="l" glyph-name="l" horiz-adv-x="228" d="M116 -4T96 8T70 41T64 100L65 162L70 280L73 368V562Q73 598 74 618L75 656V699Q74 723 78 731T92 740Q97 740 100 739H102Q104 739 109 739T118 738Q138 735 138 721Q138 718 136 698Q127 625 128 516V278L126
233Q124 181 124 152V132Q124 100 138 85T175 69Q186 69 194 70T206 72Q217 72 217 57L223 16Q209 3 195 0T156 -4Q116 -4 96 8Z" />
<glyph unicode="m" glyph-name="m" horiz-adv-x="853" d="M68 0T66 3T63 14V209V294V584Q63 592 65 595T75 598L94 599L116 598Q124 598 124 580L123 552Q173 575 210 586T300 598Q347 598 382 584T438 553T461 531Q482 548 500 560T555 585T637 598Q683 598 715
584T773 533Q791 511 800 463T810 384Q810 367 811 355L812 282Q812 235 810 211Q808 155 808 61V26L809 11Q809 1 803 0L772 1Q758 1 753 0H750Q745 0 744 4T742 23Q742 45 741 66Q739 140 739 203Q739 241 741 273L742 311Q742 357 738 403T724 472Q707 508 687
521T626 534Q559 534 524 509T484 448V242Q486 214 486 147Q486 120 485 115L484 97Q484 57 487 18Q487 6 480 3T462 0H443H439H427H408Q397 0 394 8T391 25T390 37Q389 44 391 66Q393 88 393 106Q393 132 396 186L398 282L399 363Q399 445 394 472Q386 509 362
521T285 534Q244 534 201 517T130 479Q130 401 131 341V203V165L130 16Q130 8 126 4T108 0H73Q68 0 66 3Z" />
<glyph unicode="n" glyph-name="n" horiz-adv-x="543" d="M84 0T82 3T79 13L78 69Q73 264 74 294V584Q74 598 87 598H105L127 597Q135 597 135 580L134 544L164 559Q203 578 233 587T311 597Q357 597 387 583T444 532Q472 498 472 384L473 210L472 150Q470 86
470 56Q470 30 471 25Q473 15 473 14Q473 8 471 6T462 2Q454 0 437 0T415 0Q408 0 406 4T404 23L408 189L410 282L411 352Q411 444 398 472Q385 498 375 510T347 528T296 534Q256 534 213 517T141 479Q141 400 142 341V203Q144 153 145 97T146 16Q146 8 142 4T124
0H90Q84 0 82 3Z" />
<glyph unicode="o" glyph-name="o" horiz-adv-x="506" d="M128 -22T84 79T40 297Q40 409 74 476T156 571T254 598Q346 598 393 550T453 435T466 285Q466 218 444 147T375 27T260 -22Q128 -22 84 79ZM286 172T301 203T317 278Q317 335 303 358T259 382Q197 382
197 270Q197 228 208 200T253 172Q286 172 301 203Z" />
<glyph unicode="p" glyph-name="p" horiz-adv-x="570" d="M225 -161T221 -160T212 -159L79 -158Q70 -158 68 -155T66 -146Q66 -143 66 -135T65 -106L69 10Q74 107 74 143V197Q74 219 73 232L71 492L69 534L67 571Q67 579 70 581T77 583T82 583L106 582L141 580L228
583Q235 583 236 580T237 564V557Q284 592 353 592Q426 592 465 533T517 403T530 283Q530 201 510 134T448 26T347 -14Q316 -14 287 -8T240 8L239 -89L238 -154Q238 -161 230 -161Q225 -161 221 -160ZM355 156T355 286Q355 337 349 365T329 406T288 419Q271 419
260 412T238 392L236 359L238 293L239 242V178Q258 156 288 156Q355 156 355 286Z" />
<glyph unicode="q" glyph-name="q" horiz-adv-x="513" d="M376 -164T376 -157L375 -92L374 16Q317 -17 249 -17Q141 -17 91 67T40 280Q40 332 54 401T114 530T249 589Q323 589 377 564V565Q377 575 378 577T386 580Q390 580 397 579T414 578Q422 578 426 579T431
580H435Q440 580 443 578T446 568L444 531L442 489L440 229Q439 216 439 194V140Q439 104 444 7L448 -109Q448 -129 448 -137T447 -149Q447 -155 445 -158T434 -161L402 -162Q398 -162 394 -163T384 -164Q376 -164 376 -157ZM273 33T311 50T374 100V104Q374 146
375 165Q376 183 376 281V478Q336 542 253 542Q178 542 144 448T109 228Q109 163 128 119T175 54T233 33Q273 33 311 50Z" />
<glyph unicode="r" glyph-name="r" horiz-adv-x="415" d="M204 -3T190 -1T151 1L74 0Q59 0 59 12Q59 16 59 39T60 118Q60 175 63 228T67 287L73 468L74 571Q74 582 79 583Q84 583 101 582T144 581Q164 581 183 582T207 583Q210 583 212 580T215 574L217 546Q251
568 296 583T366 599Q372 599 374 598Q376 597 378 590T383 577Q393 552 396 517Q397 501 401 480Q403 471 403 458Q403 450 402 449Q394 437 378 433T331 424Q292 420 264 412L220 402L221 362Q221 329 222 328L223 243Q225 177 225 63Q225 19 221 4Q221 -3 205
-3Q204 -3 190 -1Z" />
<glyph unicode="s" glyph-name="s" horiz-adv-x="489" d="M166 -17T126 -2T78 20T40 57Q34 63 37 65Q39 70 44 76L57 92Q62 99 75 115Q78 118 82 118Q86 118 93 114T105 104Q106 103 116 95T147 80T191 73Q223 73 246 85T269 138Q269 170 256 192T222 228T167
262Q128 284 104 301T64 349T47 423Q47 475 75 515T151 576T259 598Q353 598 401 559T452 518Q456 515 456 511Q456 508 454 505T451 499Q447 493 438 478T422 457Q420 454 417 450T412 444T405 443Q401 445 377 464T324 501T273 518Q251 518 242 504T233 455Q233
430 245 413T268 389T310 366Q347 351 374 335T427 279T453 173Q453 -17 227 -17Q166 -17 126 -2Z" />
<glyph unicode="t" glyph-name="t" horiz-adv-x="272" d="M116 -4T96 8T70 41T64 100L65 162L70 280L73 368V514Q25 514 18 530Q15 538 15 547Q15 557 16 566T18 583Q36 582 73 582L74 586L75 624V667Q74 691 78 699T92 708Q97 708 100 707H102Q104 707 109 707T118
706Q138 703 138 689Q138 686 136 666Q131 631 129 582H225Q233 582 238 569T243 540Q243 520 234 517Q215 511 188 511Q164 511 128 515V278L127 238Q124 199 124 157V137Q124 105 138 90T175 74Q197 74 213 75T236 77Q247 77 247 38L251 22Q254 15 250 14Q218
2 203 -1T156 -4Q116 -4 96 8Z" />
<glyph unicode="u" glyph-name="u" horiz-adv-x="509" d="M394 -7T374 -8Q362 -9 360 -3T357 11T358 24L359 38Q313 15 283 5T206 -6Q160 -6 130 8T73 59Q55 81 48 125T40 202V376V544Q40 556 43 560T55 567Q58 568 66 568L96 567Q113 567 113 550L110 407Q107
347 107 309L106 239Q106 147 119 119Q132 93 142 81T170 63T221 57Q256 57 293 70T361 102Q364 174 364 280Q364 374 360 486L358 559Q358 571 375 571H396Q404 571 416 571T443 571H448Q459 571 459 562V526L460 478Q465 319 464 295V28Q465 22 465 12Q465 0
462 -4T449 -9Q394 -7 374 -8Z" />
<glyph unicode="v" glyph-name="v" horiz-adv-x="473" d="M165 -5T161 2T154 26Q144 64 125 134T90 258Q82 286 56 393T19 538L12 568Q10 574 10 576Q10 583 20 583Q25 583 32 582T48 580L91 581L147 583Q162 585 167 579T176 558Q182 543 193 467L199 429Q205
386 223 314L242 232L253 281Q259 302 268 355Q269 368 289 445Q313 534 312 554Q310 575 316 580T331 585T343 584Q427 584 449 582Q465 580 465 572Q465 569 463 559Q456 541 441 478L433 441Q407 318 389 261Q377 211 359 104Q356 87 350 54T342 15Q339 1 328
1L313 2Q295 2 256 -1Q192 -5 179 -5Q165 -5 161 2Z" />
<glyph unicode="w" glyph-name="w" horiz-adv-x="632" d="M228 -13T222 -3T213 19Q207 29 178 109L165 142Q163 147 149 186Q134 230 130 240Q125 253 110 298Q103 317 87 366T63 430Q48 463 15 558Q13 564 12 568T10 575Q10 580 16 580H42Q124 580 130 581L139
582Q141 583 144 583Q149 583 151 578T157 558L171 513Q196 438 200 424L213 384Q217 375 221 360L239 300L243 311L263 364Q266 370 270 383T278 404L286 427L323 532Q330 551 339 569T355 588Q362 588 365 585T372 574L381 555Q384 548 402 510T433 433L459 376L474
342Q478 353 486 383Q490 395 493 415Q494 422 497 435T503 459Q509 483 517 511T533 556Q535 560 539 570T546 583T553 586Q562 587 576 588T601 589Q609 589 612 588Q622 588 622 581Q622 580 620 570Q617 564 613 548Q603 515 602 512L585 450Q564 368 558 351Q554
331 544 296T528 245Q527 243 522 225Q517 206 513 196Q503 171 478 74Q461 14 460 13Q458 4 455 -4T448 -13Q443 -13 441 -11T438 -4T434 5Q429 11 407 72L399 93Q390 112 373 164L363 192Q359 210 346 241L334 272L323 237Q319 229 316 216Q314 210 310 196T299
168L248 17Q241 -13 234 -13Q228 -13 222 -3Z" />
<glyph unicode="x" glyph-name="x" horiz-adv-x="509" d="M398 -5Q393 -5 390 -1T384 11T376 27Q373 33 366 44T354 62Q333 89 327 104Q313 129 294 162T261 215Q255 224 252 224Q249 224 245 221T241 214L187 143Q173 124 156 91Q138 56 131 48Q131 48 116 27Q113
24 105 12T91 -2Q83 -4 77 -4Q54 -4 39 1Q32 2 32 8Q32 12 36 19T44 32Q55 50 100 110L128 149Q142 168 166 205Q189 241 199 253Q208 267 208 278Q208 286 203 298Q201 301 196 310T181 337Q145 400 137 416Q129 430 77 511Q45 561 44 563Q39 572 39 578Q39 587
50 585Q65 585 74 586L100 587Q107 586 112 581T124 564Q128 557 136 545Q143 532 153 518Q189 458 189 458L233 384L258 344Q262 344 265 349T271 359T276 369L321 442Q355 497 380 533Q382 536 395 559Q397 562 403 572T414 586Q418 588 426 588L446 587H463Q472
587 475 586T476 578Q471 560 451 533Q444 524 407 470Q405 467 392 447Q382 433 354 378T312 297Q306 288 306 283Q306 280 312 266Q315 259 333 231L353 199Q386 137 409 108Q440 59 469 9Q472 3 472 0Q472 -6 457 -6L398 -5Z" />
<glyph unicode="y" glyph-name="y" horiz-adv-x="488" d="M244 -162T217 -159Q197 -157 178 -157Q174 -157 154 -158T120 -160Q109 -160 108 -159Q106 -158 106 -153Q106 -147 108 -141T111 -134L125 -95Q127 -91 129 -84T135 -67L162 31L84 291Q68 351 47 437T14
570Q12 576 12 577Q12 583 22 583Q28 583 35 582T51 581L93 582L146 584Q162 585 167 580T176 561Q176 567 202 445L226 306L239 230H245L256 294Q258 312 267 346T279 388Q285 414 296 449Q299 461 309 500T322 558Q324 577 329 581T343 586T354 585Q441 585 464
583Q480 581 480 574Q480 572 478 562Q475 556 470 542T461 519Q451 489 451 489Q416 356 392 294Q382 267 370 217T355 152Q349 122 341 94Q332 56 318 5L296 -79Q293 -95 285 -122T275 -152Q274 -161 259 -161Q244 -162 217 -159Z" />
<glyph unicode="z" glyph-name="z" horiz-adv-x="478" d="M280 -2Q265 -1 243 -1H54Q37 -1 34 4T30 17T31 27L32 60L34 100Q34 106 39 114T52 131L67 151Q88 181 126 236T174 310Q185 331 236 405L256 434Q267 451 284 489L298 522Q293 522 291 523L275 524L194
525L146 524H133Q126 526 78 526H46Q40 527 39 528T37 532T38 537Q38 545 35 569V571Q35 582 46 582Q71 582 87 583L156 584L237 582L285 581H330Q396 581 407 582L413 583Q420 583 421 580T423 570Q423 538 416 527L401 503Q329 390 310 361Q241 256 216 220L142
110Q152 108 174 106Q197 102 230 102L273 103Q286 104 314 104Q334 104 355 105T393 107L441 109Q451 109 453 105T455 93T456 83L454 22V17Q454 9 453 7T444 5Q440 4 422 3T385 -1Q375 -3 341 -3L280 -2Z" />
<glyph unicode="{" glyph-name="braceleft" horiz-adv-x="274" d="M148 -103T123 -83T82 -33T66 26Q66 51 76 109Q88 171 88 206Q88 237 78 256T55 284T34 293Q25 293 23 296T20 305Q20 310 21 317T23 335Q23 348 24 352T30 357Q38 357 49 364T68 388T77 429Q77
454 65 487Q54 520 48 551T42 637Q42 680 69 712T136 761T206 778Q216 778 218 774T221 764T220 755V713Q220 700 212 697T185 694Q124 685 124 611Q124 592 128 580T142 551Q154 530 160 511T166 457Q166 400 134 354Q121 335 102 321Q122 311 134 296Q166 258
166 203Q166 174 160 132Q152 88 152 45Q152 10 170 -6T207 -25T246 -28Q252 -28 254 -31T256 -41Q256 -51 258 -62T260 -81Q260 -89 256 -93T246 -98Q244 -98 232 -100T174 -103Q148 -103 123 -83Z" />
<glyph unicode="|" glyph-name="bar" horiz-adv-x="206" d="M101 -180T71 -178Q59 -177 55 -172T50 -158Q50 -152 51 -145T53 -130Q64 -27 65 86Q66 119 66 185L65 334Q64 352 64 374L63 424Q61 486 61 519Q61 543 62 547Q63 553 63 577L62 646Q61 661 61 681Q60
697 68 701T90 705H149Q163 706 167 696T172 666Q174 657 170 620Q166 584 166 561Q166 515 159 394Q158 354 156 320T154 266L152 146L150 32L148 -35L146 -80V-132Q146 -165 139 -173T119 -179Q101 -180 71 -178Z" />
<glyph unicode="}" glyph-name="braceright" horiz-adv-x="257" d="M53 -81T42 -80T28 -78Q22 -78 19 -74T15 -62Q15 -56 16 -47T18 -28V-23Q18 -17 20 -15T28 -12Q49 -12 65 -10T98 7T115 55Q115 94 107 136Q101 174 101 201Q101 253 131 287Q145 302 161 311Q144
325 131 342Q101 384 101 437Q101 468 107 486T124 522Q133 538 137 549T141 580Q141 648 85 656Q67 656 60 658T52 673V713V723Q52 728 54 730T65 733Q94 733 130 718T192 673T218 603Q218 553 212 523T196 464Q191 451 188 438T185 410Q185 388 193 373T211 351T228
344Q234 344 234 332Q234 321 236 312T238 297V295Q238 290 236 287T224 284Q216 284 205 277T184 251T175 204Q175 172 185 114Q194 67 194 38Q194 12 180 -16T142 -62T95 -81Q53 -81 42 -80Z" />
<glyph unicode="~" glyph-name="asciitilde" horiz-adv-x="558" d="M49 307T56 336Q56 339 56 356T58 386Q60 391 68 393Q73 395 82 392T96 387Q116 378 138 374Q162 374 182 377T227 385Q280 397 375 397Q420 397 455 391Q480 390 486 383T492 368T491 357V336Q491
315 462 315Q452 315 426 323Q395 332 380 332Q345 330 302 322Q282 318 249 315Q230 314 205 310Q199 309 180 307T138 305Q49 307 56 336Z" />
<glyph unicode="&#xa0;" glyph-name="uni00A0" horiz-adv-x="260" />
<glyph unicode="&#xa1;" glyph-name="exclamdown" horiz-adv-x="218" d="M72 588T56 609T39 655Q39 662 40 665Q40 676 50 690T76 715T110 726Q135 726 153 704T172 651Q172 642 171 637Q162 588 104 588Q72 588 56 609ZM121 1T75 1Q63 2 58 6T53 17Q53 22 54
28T56 39Q57 46 57 65Q57 89 56 103Q56 152 66 271Q68 317 68 332L67 367Q65 408 66 411Q67 415 67 432Q68 441 68 463L67 519V522Q67 533 72 536T90 538L112 537L135 538Q145 538 148 531T152 507Q154 495 154 481Q154 464 152 422V343Q154 229 157 171Q162 57
161 38Q161 19 162 12V11Q162 3 157 2T141 0Q121 1 75 1Z" />
<glyph unicode="&#xa2;" glyph-name="cent" horiz-adv-x="500" d="M254 0T246 0T235 2T233 10L234 42V87Q199 93 171 101Q102 123 67 186T31 369Q33 497 101 558Q162 613 245 619Q246 631 246 650Q246 664 245 667L244 687Q244 710 260 710L297 709Q307 709 307
697Q307 693 306 687T305 675Q303 661 301 619Q391 611 438 564Q448 554 448 541Q448 530 441 519L410 471Q394 450 379 450Q369 450 362 457Q328 492 299 502Q292 332 292 286L293 209Q307 209 320 214Q340 223 371 242Q388 255 398 255Q404 255 410 250T418 244Q435
233 445 224T466 196Q472 180 448 153Q421 123 388 107Q353 91 296 84Q296 48 298 34Q299 28 299 20Q299 13 297 10T289 4Q283 0 258 0Q254 0 246 0ZM238 383L239 444Q241 482 241 504Q219 495 196 474Q161 439 161 344Q161 241 236 215L238 383Z" />
<glyph unicode="&#xa3;" glyph-name="sterling" horiz-adv-x="500" d="M15 1T15 19Q15 37 19 85Q19 88 54 103Q89 118 89 156Q89 236 90 264V273Q74 273 63 274T45 275Q33 275 31 277T28 284T29 291Q29 299 26 321T25 348Q25 354 35 354L48 352H91V382Q91 584
169 669Q190 691 216 706Q243 721 263 725T284 729Q354 729 390 700T441 646T460 615Q468 604 468 595Q468 588 464 584T449 573Q439 565 425 551Q389 517 378 511Q375 508 371 508Q365 508 361 516T353 527Q343 542 332 553T300 564Q275 564 260 525T245 386L246
355H355Q364 355 364 347L363 338V288Q363 280 354 280L340 281Q333 281 313 280T279 278L248 277V257L246 148Q246 146 245 126T229 84Q221 73 203 65L251 64Q290 64 300 63L371 60L474 59H476Q481 59 482 57T483 52T482 46Q481 42 482 31T484 11Q484 4 480 2T469
0T459 1L412 4Q352 10 327 10Q275 10 212 5L165 3L127 1H19Q15 1 15 19Z" />
<glyph unicode="&#xa4;" glyph-name="currency" horiz-adv-x="500" d="M39 45T29 48T12 54Q8 56 16 73T39 102L91 164Q67 189 50 227Q28 278 23 344Q23 383 38 420T81 486L39 536Q25 548 17 565T12 584Q18 587 28 590T44 593Q53 593 85 557L114 515Q168 554 225
554Q267 554 291 552T333 541Q357 528 374 514Q413 561 415 566Q423 577 427 581T442 588Q447 592 456 592Q468 592 478 584Q487 580 487 576Q487 574 483 566Q476 564 473 560T462 547Q460 543 444 524L407 479Q435 442 447 400T460 332Q460 297 448 251T400 168Q428
133 438 122Q458 97 462 91Q470 83 473 79T483 72Q487 64 487 62Q487 58 478 54Q468 46 456 46Q447 46 442 50Q432 53 428 57T415 72Q413 76 391 103L362 139Q311 108 235 108Q172 108 126 136L119 128Q109 116 99 102T85 81Q53 45 44 45Q39 45 29 48ZM303 169T337
216T372 332Q372 374 356 410T309 469T241 491Q216 491 203 489T179 476Q151 459 124 424T97 337Q97 267 130 218T232 169Q303 169 337 216Z" />
<glyph unicode="&#xa5;" glyph-name="yen" horiz-adv-x="500" d="M110 -3T110 3Q110 6 111 9T113 14Q115 19 123 44T137 90L144 111Q145 120 154 147L156 151H116Q96 151 75 150T47 147Q38 147 36 151T33 164V205Q33 218 37 223T53 229H172Q172 232 170 238L162
267Q153 302 150 311L147 318H144Q76 314 47 314Q44 313 40 313Q32 313 29 318T25 336Q23 346 23 351Q23 357 24 365T25 383Q25 397 28 402T40 407Q43 407 55 405H123L110 445Q83 545 57 626Q54 641 45 658Q44 661 42 668T39 679Q39 686 46 688T66 692Q80 693 109
691Q117 689 119 686T121 679T121 670Q123 664 128 644T144 587Q155 549 187 456Q195 436 212 380Q211 383 226 332Q229 348 233 357Q235 368 245 400L258 439Q266 463 275 493T294 548Q301 563 311 600T326 663Q330 681 336 686T350 692H360L406 693Q427 693 445
691Q463 688 463 681Q463 678 461 672Q459 668 452 642Q434 577 425 556Q425 556 409 508Q396 468 388 445L374 405L396 407L449 409Q464 409 468 405T474 387Q474 380 475 370T476 347Q476 338 474 324Q473 315 471 312T462 308Q457 308 451 309T436 310H342L338
298L322 253Q320 245 314 229H431L441 230Q455 230 458 225T461 209V164Q461 154 454 151T424 147L382 148Q340 150 315 150Q304 151 288 151Q269 98 268 92Q263 79 259 42L255 19Q250 -2 241 -1H231L201 -2H155L120 -3Q110 -3 110 3Z" />
<glyph unicode="&#xa6;" glyph-name="brokenbar" horiz-adv-x="210" d="M74 308T72 309Q64 309 64 321Q64 323 66 335V411Q66 416 64 446Q63 461 63 549V694Q63 705 73 705L84 704H137Q146 704 146 694L145 678L146 658Q149 610 149 606Q149 598 149 581T150 517L152
429Q156 417 156 395Q156 380 154 360T152 332Q152 318 149 315T141 312T133 313Q119 313 106 310Q86 308 80 308Q74 308 72 309ZM61 -181T61 -169Q61 -167 63 -155V-79L61 -43Q60 -28 60 59V204Q60 215 70 215L81 214H144Q153 214 153 204L152 188L153 168Q156
120 156 116Q156 108 156 91T157 27L159 -61Q163 -73 163 -95Q163 -110 161 -130T159 -158Q159 -172 156 -175T148 -178T140 -177L113 -179Q73 -183 69 -181Q61 -181 61 -169Z" />
<glyph unicode="&#xa7;" glyph-name="section" horiz-adv-x="447" d="M202 -10T166 2T94 38Q62 60 49 72T34 86Q30 90 30 93Q30 95 32 98T35 103Q38 108 46 120T59 139Q62 142 65 146T73 151Q75 151 89 139Q105 125 127 108Q153 88 184 74T235 59Q265 59 280 68T294
108Q285 138 265 153T212 181L193 190Q142 216 116 241T78 299T64 381Q64 428 78 450Q92 472 106 486Q96 504 91 515Q81 541 81 577Q81 658 136 687T262 717Q302 717 336 698T384 666Q389 661 389 658V652L382 639Q371 625 365 615H363Q361 615 358 618T348 627Q339
637 310 649T262 661Q254 660 239 660Q211 659 197 653T174 623Q173 619 173 611Q173 583 190 568T245 532Q269 520 281 513Q337 481 366 446T396 349Q396 297 382 271Q373 253 360 240Q372 232 383 218Q398 193 399 141Q394 86 382 65Q371 44 351 24Q317 -10 251
-10Q202 -10 166 2ZM322 278Q327 296 327 310Q325 341 303 363T245 403Q239 406 218 414L186 427Q176 431 156 441Q142 427 141 409Q140 403 140 394Q140 376 145 365T160 341Q172 328 189 319T247 295Q282 284 316 266L322 278Z" />
<glyph unicode="&#xa8;" glyph-name="dieresis" horiz-adv-x="455" d="M297 603T285 619T273 657Q273 693 295 706T347 719Q366 719 378 701T390 657Q390 635 374 619T327 603Q297 603 285 619ZM100 599T82 615T64 657Q64 678 79 695T118 712Q144 712 164 699T184
661Q184 635 164 617T122 599Q100 599 82 615Z" />
<glyph unicode="&#xa9;" glyph-name="copyright" horiz-adv-x="748" d="M167 24T84 197Q48 275 42 373Q42 452 86 523T201 638T350 682Q415 682 450 679T513 662Q585 627 628 567T688 448T706 354Q706 299 683 225T584 88T364 24Q167 24 84 197ZM485 74T546 153T607
354Q607 429 578 492T496 592T375 629Q330 629 308 626T264 603Q260 600 220 570T149 484T118 363Q118 287 142 222T220 115T358 74Q485 74 546 153ZM339 150T306 177T252 252T231 355Q231 412 250 457T300 528T363 553Q404 553 430 536T463 504Q470 497 470 493Q470
490 463 484Q437 465 426 448Q425 447 420 441T409 434Q404 434 399 439Q397 442 391 449T378 459T365 463Q342 463 323 434T304 341Q304 300 316 276T344 242T371 232Q385 232 397 242T411 254Q415 260 417 261T426 259Q430 255 450 245Q467 237 474 232Q477 231
483 229T490 223T487 215Q477 194 450 172T375 150Q339 150 306 177Z" />
<glyph unicode="&#xaa;" glyph-name="ordfeminine" horiz-adv-x="308" d="M251 354T245 371Q242 375 235 393T225 422L213 451Q209 461 204 461L184 459Q144 459 130 457H88Q83 457 81 446Q80 439 76 423T71 400Q69 389 65 379L61 364Q60 355 55 355H25Q20 355
25 364Q26 366 27 370T32 383Q32 386 41 418L54 464Q58 485 72 528Q80 555 85 576L104 642L117 682Q124 710 127 714Q130 721 134 717Q139 712 140 703Q143 697 152 675T167 643Q177 622 188 590Q192 580 222 515L231 495Q241 473 253 449T274 410Q282 389 297
365Q300 361 300 358Q300 354 291 354H255Q251 354 245 371ZM158 527T166 530Q169 530 173 530T177 532T176 536Q174 542 165 562T152 593Q146 606 140 624Q139 627 138 630T134 634Q132 634 131 627T128 615L115 571Q111 558 104 538Q101 532 101 530T107 527Q158
527 166 530Z" />
<glyph unicode="&#xab;" glyph-name="guillemotleft" horiz-adv-x="616" d="M477 77T466 79T449 87T434 112Q419 140 399 167Q390 180 353 232L309 298Q286 337 283 356Q296 376 314 398Q323 408 351 447Q373 477 378 488Q387 511 405 541Q411 551 415 564T423
581Q427 589 430 599T437 614T445 620L479 619H517L546 618Q558 618 558 612Q558 607 549 596Q545 592 502 520Q439 412 427 403Q404 373 389 331Q405 300 434 271Q462 232 485 195T516 147L530 125Q545 103 545 93Q545 83 533 80Q522 77 505 77Q477 77 466 79ZM215
74T205 95Q199 107 195 113Q191 117 186 129T173 152Q162 167 139 206Q135 215 107 247Q83 275 63 295Q50 308 27 338Q29 360 70 431Q113 502 119 519Q135 557 141 582Q144 600 153 608T174 617Q188 617 196 618L226 619Q231 619 260 619T310 614Q324 611 324 598Q324
586 313 569Q309 562 299 541T274 501Q269 495 256 475Q236 444 217 423L181 377L149 335Q164 308 177 291Q195 273 308 118L323 98Q334 88 334 81Q334 76 323 76L294 75L256 74H222Q215 74 205 95Z" />
<glyph unicode="&#xac;" glyph-name="logicalnot" horiz-adv-x="500" d="M337 96T337 109Q339 165 339 196Q339 249 336 306Q313 307 259 307H143Q121 307 87 306T44 303Q33 303 31 307T29 320V370Q29 383 33 388T50 394H433Q457 396 462 391T468 374V320L466
281Q465 272 465 251L466 187Q468 139 468 117Q470 100 406 99Q384 96 368 96Q337 96 337 109Z" />
<glyph unicode="&#xad;" glyph-name="uni00AD" horiz-adv-x="500" d="M121 233T106 234T82 235Q69 235 66 237T63 243T64 251L62 273Q58 305 60 310Q60 316 71 316Q74 316 86 314H158Q178 314 192 315Q222 317 290 317H430Q437 317 438 314T440 306T439 300V248Q439
240 428 240L413 241Q406 241 384 240T345 238L259 236Q213 236 197 236T175 235Q166 233 142 233Q121 233 106 234Z" />
<glyph unicode="&#xae;" glyph-name="registered" horiz-adv-x="747" d="M333 24T298 27T235 44Q163 79 120 139T60 258T42 352Q42 407 65 481T164 618T384 682Q581 682 664 509Q700 431 706 333Q706 254 662 183T547 68T398 24Q333 24 298 27ZM408 78T430 81T475
104Q531 140 578 195T625 340Q625 414 600 478T520 582T379 623Q292 623 235 586T152 486T125 349Q125 275 154 213T238 115T363 78Q408 78 430 81ZM273 160T272 165T271 184Q271 200 270 215Q267 299 267 312Q267 334 268 339Q272 352 272 422Q272 491 269 510L268
522Q268 533 270 535T280 537Q284 537 306 540T350 543Q408 543 438 513T468 434Q468 397 444 360Q435 347 419 333L444 287L456 266Q489 204 504 183Q511 172 511 168Q511 165 507 165T501 165L441 163Q438 163 435 168T428 181L419 201Q409 219 382 272L355 324L359
257L362 213Q364 183 365 179V175Q365 167 362 165T350 164Q348 165 342 165Q332 165 323 164T306 162L282 160Q273 160 272 165ZM360 395T366 398Q381 404 381 426Q381 457 364 457Q359 457 354 452Q353 448 354 441T354 423Q352 407 352 404V395Q360 395 366
398Z" />
<glyph unicode="&#xaf;" glyph-name="overscore" horiz-adv-x="357" d="M33 629T32 632T30 642V669Q30 679 32 683T41 688H309L316 689Q323 689 325 685T327 672V642Q327 635 323 632T305 629L269 630Q235 632 221 632H89Q43 632 38 629Q33 629 32 632Z" />
<glyph unicode="&#xb0;" glyph-name="degree" horiz-adv-x="357" d="M185 455T169 455T141 456T121 462Q92 477 75 501T50 549T42 586Q42 628 70 674T183 720Q228 720 257 700T298 650Q313 618 316 579Q316 547 298 519T250 473T189 455Q185 455 169 455ZM205
497T215 505Q236 519 251 536T267 584Q267 623 246 651T185 679Q144 679 123 652T101 587Q101 550 123 524T180 497Q205 497 215 505Z" />
<glyph unicode="&#xb1;" glyph-name="plusminus" horiz-adv-x="500" d="M273 167T259 169T230 171Q213 171 209 180T205 205V354Q205 373 178 373Q167 373 152 370Q132 370 98 368Q66 366 50 366Q36 366 33 369T30 386Q28 397 26 413L22 438Q21 441 21 447Q21
461 27 468T43 476L85 477Q104 477 111 476Q117 476 130 475T164 474Q179 474 187 476Q199 478 201 486T204 508T203 529V606Q201 622 201 644Q201 661 203 670T209 688Q218 691 230 691T262 692Q276 693 281 685T287 665T288 643L289 619Q291 595 291 585L292
527Q292 508 291 499V490Q291 481 293 476Q293 474 305 473T341 472Q398 476 453 476Q472 476 477 468T482 448V397Q482 375 453 375H309Q296 371 296 354Q296 327 299 261Q301 229 301 211Q301 174 279 167Q273 167 259 169ZM43 6T41 10T39 23V73Q39 86 44 91T61
97H428Q453 99 459 94T465 77V23Q465 13 457 10T421 6H385L342 8Q312 10 263 10H158Q136 10 100 9T54 6Q43 6 41 10Z" />
<glyph unicode="&#xb2;" glyph-name="uni00B2" horiz-adv-x="341" d="M41 360T41 366L43 395Q87 450 124 487L140 504Q164 528 180 548T210 596Q216 611 216 624Q216 643 208 653Q204 660 193 666T170 672Q150 672 111 659Q101 655 88 642T72 628Q68 629 66 633T62
639L54 648Q46 652 54 660Q55 661 60 668T79 686Q90 695 122 705T180 719Q202 719 223 713T255 695Q279 673 279 642Q279 618 271 600T254 569T241 551Q238 546 208 512Q196 495 175 475T149 453Q148 452 145 449T145 446Q171 446 171 446H210Q259 446 272 448Q285
448 287 445T290 438T290 432Q289 426 289 404T290 375Q290 366 286 364T267 361L208 360Q187 360 180 361H59L51 360Q41 360 41 366Z" />
<glyph unicode="&#xb3;" glyph-name="uni00B3" horiz-adv-x="371" d="M118 328T95 349T60 386T47 406Q42 413 43 415T49 419Q51 420 55 422T70 430Q71 431 73 431Q77 431 81 423Q84 409 104 382Q116 368 135 362T186 356Q228 356 270 377Q302 393 302 447Q302
469 281 484T225 500L185 497Q169 496 153 495T123 494Q114 494 113 495Q109 494 107 498Q106 505 106 514Q106 517 111 520T120 526Q140 538 177 562T236 600Q239 603 239 604Q239 607 227 607T212 607L70 605Q63 605 62 609T60 617T60 624L61 671Q61 689 60 695Q60
707 76 707Q83 707 90 706T106 705Q119 705 147 707Q179 709 198 709L289 708Q295 708 296 704T297 685V598Q281 589 261 577T229 558Q227 556 208 544L194 535Q185 532 185 529Q185 527 187 527H213Q234 527 260 523Q270 523 287 516T317 491T331 447Q331 419
320 399T296 366T275 351Q262 344 228 336T154 328Q118 328 95 349Z" />
<glyph unicode="&#xb4;" glyph-name="acute" horiz-adv-x="238" d="M48 607T37 614Q17 621 17 636Q17 638 19 646Q20 651 39 659T69 671Q77 676 98 683L130 694L152 702Q165 706 187 709L207 711Q225 711 225 694Q225 687 224 683Q220 672 204 663T175 649Q147
641 119 628Q101 620 90 616Q86 615 76 611T58 607Q48 607 37 614Z" />
<glyph unicode="&#xb5;" glyph-name="uni00B5" horiz-adv-x="497" d="M78 -247T74 -225Q76 -193 76 -183Q76 -162 73 -147Q69 -122 67 -46Q69 54 69 96Q65 179 62 247Q68 360 68 408Q68 462 69 470Q70 485 73 489T91 494Q101 494 120 494T147 494Q149 494 157
494T170 490T175 474Q175 467 172 455Q169 442 169 396V363Q171 283 173 258Q178 207 178 165Q178 137 201 112T276 86Q329 86 358 112T388 204V336Q388 414 387 428V470L386 481Q386 495 393 493Q400 491 409 491Q417 491 420 492Q439 500 439 469Q439 459 438
453Q437 401 437 324V287Q437 234 436 214L434 145Q432 107 441 96Q446 89 452 86T473 82Q486 82 486 73Q486 66 485 58T483 42L482 15Q482 4 452 4Q436 4 428 9T409 24Q395 46 394 76Q343 3 267 3Q191 3 151 69Q161 25 164 -64L173 -161Q173 -192 171 -230Q172
-242 136 -244L109 -246Q78 -247 74 -225Z" />
<glyph unicode="&#xb6;" glyph-name="paragraph" horiz-adv-x="606" d="M427 -7T427 20L428 39Q430 50 428 106T425 187Q421 293 421 320V365Q421 541 417 624V649H334V603Q334 483 340 273L342 160L343 76Q344 58 344 36Q344 20 340 12T323 3Q315 3 299 5Q275
7 267 6Q260 3 252 5T238 15T234 33Q237 48 237 83V174Q237 238 244 357L201 361Q155 367 137 367Q115 367 89 380T41 427T20 520Q20 609 53 654T134 702Q173 705 217 705Q274 705 292 702Q325 704 325 704Q338 705 372 705Q414 705 439 704L537 702H551Q558 702
561 701T567 698Q570 694 570 682V662Q570 652 565 649T542 645L492 647Q489 648 478 648V623Q474 499 474 416Q474 391 478 283Q482 171 482 143Q484 53 487 32Q487 26 488 20T489 8Q489 -6 479 -6L443 -7Q427 -7 427 20Z" />
<glyph unicode="&#xb7;" glyph-name="middot" horiz-adv-x="235" d="M87 278T66 298T45 358Q45 398 65 412T117 426Q193 426 193 337Q193 313 170 296T117 278Q87 278 66 298Z" />
<glyph unicode="&#xb8;" glyph-name="cedilla" horiz-adv-x="293" d="M101 -190T80 -185T59 -171Q59 -167 63 -152T67 -122Q67 -118 70 -118Q72 -118 79 -122T94 -131Q114 -137 132 -137Q155 -135 162 -132T173 -111Q173 -78 149 -78Q140 -78 130 -85T116 -92Q98
-92 92 -91T85 -84Q85 -72 87 -63T92 -48Q96 -21 117 31H168Q148 0 139 -17T125 -54Q136 -48 143 -47T173 -45Q235 -45 235 -115Q235 -133 229 -143T215 -160T204 -169Q196 -177 189 -180Q187 -181 180 -184T160 -188T126 -190Q101 -190 80 -185Z" />
<glyph unicode="&#xb9;" glyph-name="uni00B9" horiz-adv-x="236" d="M12 358T10 373V378Q10 389 16 390Q50 396 67 400H73Q94 400 96 410Q97 418 97 432Q96 437 96 460V496Q96 536 94 552L93 578L94 603L97 652Q66 646 46 640Q32 637 23 636T13 637Q12 639 12
643Q11 650 11 658Q11 667 14 670T28 678Q71 680 137 709L150 711Q164 711 164 704L163 644Q159 610 159 589T159 563Q159 540 160 532Q161 524 161 488Q161 421 166 397Q226 394 226 390Q226 385 227 381T228 371Q228 357 213 358Q199 358 175 360Q159 362 147
362L73 359Q53 360 19 358Q12 358 10 373Z" />
<glyph unicode="&#xba;" glyph-name="ordmasculine" horiz-adv-x="363" d="M163 355T149 356T123 365Q93 385 75 419T50 485T42 536Q42 567 52 608T94 685T186 720Q233 720 261 693T304 623Q319 581 322 526Q322 482 304 443T255 379T192 355Q163 355 149 356ZM195
446T200 447T211 454Q228 471 238 487T249 534Q249 574 234 602T188 630Q157 630 141 603T125 537Q125 500 141 473T184 446Q195 446 200 447Z" />
<glyph unicode="&#xbb;" glyph-name="guillemotright" horiz-adv-x="616" d="M386 75T357 75T307 80Q293 83 293 96Q293 108 304 125Q308 132 318 153T342 192Q347 198 360 218Q380 248 400 271Q428 306 435 316L468 359Q453 386 440 403Q422 421 309 576L294
596Q283 609 283 613Q283 618 294 618L323 619H360L395 620Q402 620 412 599Q418 587 422 581Q426 577 431 565T444 541Q456 526 478 488Q482 479 510 447Q546 405 553 398Q574 377 590 356Q588 333 546 263Q505 193 497 175Q481 132 476 112Q473 94 464 86T443
77Q429 77 421 76L391 75Q386 75 357 75ZM100 75L71 76Q59 76 59 82Q59 88 68 98Q72 102 115 174Q178 282 190 291Q213 321 228 363Q211 395 183 423Q155 462 132 499T101 547L87 569Q72 591 72 601Q72 611 84 614Q95 617 112 617Q140 617 151 615T168 607T183
582Q198 554 218 527Q241 496 263 462Q290 424 307 395Q331 359 334 338Q316 311 302 295Q281 269 265 247Q247 221 239 206Q229 182 211 152Q206 143 202 130T194 113Q190 105 187 95T180 80T172 74H137L100 75Z" />
<glyph unicode="&#xbc;" glyph-name="onequarter" horiz-adv-x="725" d="M183 -39T165 -35Q152 -28 157 -16Q162 -6 166 1T175 15Q181 28 190 43T208 76Q275 192 298 244Q320 287 371 379T451 520Q468 546 490 590T524 660Q533 679 545 694T567 713L580 714Q594
714 611 706Q614 703 614 697Q614 687 607 671T593 645Q575 616 543 560T495 470L464 411Q384 254 365 226Q353 202 321 146Q249 15 244 1Q238 -15 234 -20T216 -36Q209 -39 196 -39Q183 -39 165 -35ZM69 358T67 373V378Q67 389 73 390Q107 396 124 400H130Q151
400 153 410Q154 418 154 432Q153 437 153 460V496Q153 536 151 552L150 578L151 603L154 652Q123 646 103 640Q89 637 80 636T70 637Q69 639 69 643Q68 650 68 658Q68 667 71 670T85 678Q128 680 194 709L207 711Q221 711 221 704L220 644Q216 610 216 589T216
563Q216 540 217 532Q218 524 218 488Q218 421 223 397Q283 394 283 390Q283 385 284 381T285 371Q285 357 270 358Q256 358 232 360Q216 362 204 362L130 359Q110 360 76 358Q69 358 67 373ZM575 5T575 9T574 23V46Q574 58 574 62T575 70Q575 73 575 78T576 99Q576
107 574 110T565 113Q561 113 544 112T513 110L491 111Q469 111 458 110L421 109Q410 109 410 129Q410 140 411 143T418 153Q426 163 439 182Q448 197 458 208Q472 224 504 268Q531 306 542 323T558 346Q564 355 571 355H614H618Q625 355 628 353T631 342Q631 326
630 316Q627 247 627 164Q627 153 628 150T634 147L655 148Q659 148 659 141T660 131V129Q660 125 659 120T655 114H653L636 113Q630 113 629 110T627 98L626 105Q626 103 626 96T625 70L624 20V15Q624 7 616 5H579Q575 5 575 9ZM451 142T453 143T461 144L486 143Q489
143 503 144T537 145H563Q570 145 572 150T575 174T576 222V247L577 307Q577 312 578 316T579 325Q579 325 579 325T578 326V327L551 284L518 239Q496 205 478 187Q471 176 465 170T453 158T447 146Q447 142 449 142Q451 142 453 143Z" />
<glyph unicode="&#xbd;" glyph-name="onehalf" horiz-adv-x="725" d="M148 -39T130 -35Q117 -28 122 -16Q127 -6 131 1T140 15Q146 28 155 43T173 76Q240 192 263 244Q285 287 336 379T416 520Q433 546 455 590T489 660Q498 679 510 694T532 713L545 714Q559 714
576 706Q579 703 579 697Q579 687 572 671T558 645Q540 616 508 560T460 470L429 411Q349 254 330 226Q318 202 286 146Q214 15 209 1Q203 -15 199 -20T181 -36Q174 -39 161 -39Q148 -39 130 -35ZM44 358T42 373V378Q42 389 48 390Q82 396 99 400H105Q126 400 128
410Q129 418 129 432Q128 437 128 460V496Q128 536 126 552L125 578L126 603L129 652Q98 646 78 640Q64 637 55 636T45 637Q44 639 44 643Q43 650 43 658Q43 667 46 670T60 678Q103 680 169 709L182 711Q196 711 196 704L195 644Q191 610 191 589T191 563Q191 540
192 532Q193 524 193 488Q193 421 198 397Q258 394 258 390Q258 385 259 381T260 371Q260 357 245 358Q231 358 207 360Q191 362 179 362L105 359Q85 360 51 358Q44 358 42 373ZM436 1T436 7L438 36Q482 91 519 128L535 145Q559 169 575 189T605 237Q611 252 611
265Q611 284 603 294Q599 301 588 307T565 313Q545 313 506 300Q496 296 483 283T467 269Q463 270 461 274T457 280L449 289Q441 293 449 301Q450 302 455 309T474 327Q485 336 517 346T575 360Q597 360 618 354T650 336Q674 314 674 283Q674 259 666 241T649 210T636
192Q633 187 603 153Q591 136 570 116T544 94Q543 93 540 90T540 87Q566 87 566 87H605Q654 87 667 89Q680 89 682 86T685 79T685 73Q684 67 684 45T685 16Q685 7 681 5T662 2L603 1Q582 1 575 2H454L446 1Q436 1 436 7Z" />
<glyph unicode="&#xbe;" glyph-name="threequarters" horiz-adv-x="725" d="M203 -39T185 -35Q172 -28 177 -16Q182 -6 186 1T195 15Q201 28 210 43T228 76Q295 192 318 244Q340 287 391 379T471 520Q488 546 510 590T544 660Q553 679 565 694T587 713L600 714Q614
714 631 706Q634 703 634 697Q634 687 627 671T613 645Q595 616 563 560T515 470L484 411Q404 254 385 226Q373 202 341 146Q269 15 264 1Q258 -15 254 -20T236 -36Q229 -39 216 -39Q203 -39 185 -35ZM97 328T74 349T39 386T26 406Q21 413 22 415T28 419Q30 420
34 422T49 430Q50 431 52 431Q56 431 60 423Q63 409 83 382Q95 368 114 362T165 356Q207 356 249 377Q281 393 281 447Q281 469 260 484T204 500L164 497Q148 496 132 495T102 494Q93 494 92 495Q88 494 86 498Q85 505 85 514Q85 517 90 520T99 526Q119 538 156
562T215 600Q218 603 218 604Q218 607 206 607T191 607L49 605Q42 605 41 609T39 617T39 624L40 671Q40 689 39 695Q39 707 55 707Q62 707 69 706T85 705Q98 705 126 707Q158 709 177 709L268 708Q274 708 275 704T276 685V598Q260 589 240 577T208 558Q206 556
187 544L173 535Q164 532 164 529Q164 527 166 527H192Q213 527 239 523Q249 523 266 516T296 491T310 447Q310 419 299 399T275 366T254 351Q241 344 207 336T133 328Q97 328 74 349ZM620 5T620 9T619 23V46Q619 58 619 62T620 70Q620 73 620 78T621 99Q621 107
619 110T610 113Q606 113 589 112T558 110L536 111Q514 111 503 110L466 109Q455 109 455 129Q455 140 456 143T463 153Q471 163 484 182Q493 197 503 208Q517 224 549 268Q576 306 587 323T603 346Q609 355 616 355H659H663Q670 355 673 353T676 342Q676 326 675
316Q672 247 672 164Q672 153 673 150T679 147L700 148Q704 148 704 141T705 131V129Q705 125 704 120T700 114H698L681 113Q675 113 674 110T672 98L671 105Q671 103 671 96T670 70L669 20V15Q669 7 661 5H624Q620 5 620 9ZM496 142T498 143T506 144L531 143Q534
143 548 144T582 145H608Q615 145 617 150T620 174T621 222V247L622 307Q622 312 623 316T624 325Q624 325 624 325T623 326V327L596 284L563 239Q541 205 523 187Q516 176 510 170T498 158T492 146Q492 142 494 142Q496 142 498 143Z" />
<glyph unicode="&#xbf;" glyph-name="questiondown" horiz-adv-x="366" d="M161 585T145 606T128 652Q128 659 129 662Q129 673 139 687T165 712T199 723Q224 723 242 701T261 648Q261 639 260 634Q251 585 193 585Q161 585 145 606ZM117 -15T87 9T39 78T20 182Q20
231 48 278T109 358Q129 378 139 406T149 466Q149 504 156 517Q158 525 163 532T175 541Q189 544 193 544Q198 544 209 541Q218 538 224 533T230 521Q233 509 233 493L232 459Q230 431 230 415Q230 391 213 363T163 290Q134 254 126 237Q100 197 100 159Q100 128
119 92Q145 65 177 65Q196 65 220 73Q244 84 288 127Q292 131 298 131Q305 131 313 126T332 110Q339 103 346 92T346 77Q317 45 288 26Q265 12 250 4T217 -7Q202 -11 181 -13T151 -15Q117 -15 87 9Z" />
<glyph unicode="&#xc0;" glyph-name="Agrave" horiz-adv-x="475" d="M2 0T6 13Q6 16 7 18Q7 20 8 23T11 32L20 69Q22 75 27 90T34 118Q39 142 53 191L61 219Q80 281 85 306L99 359Q109 392 111 401Q118 431 131 476L138 504L144 525Q154 559 161 574Q163 580 175
615T192 672Q199 696 206 708T227 720Q232 720 237 711T247 689T254 670Q262 651 282 575L290 547Q291 539 323 449L342 394L360 347Q388 268 396 251Q431 145 437 123Q444 97 459 58T477 14Q480 7 480 4Q480 0 469 0H413Q409 0 407 1T402 9Q398 20 391 45Q382
70 379 90Q376 105 370 126T358 158Q349 177 342 201L333 230Q328 241 326 243T317 246Q296 246 286 245L243 243Q235 242 169 242H108H106Q100 242 97 231L95 221L91 202Q89 196 78 144Q75 127 68 100Q66 80 59 67Q57 64 54 53T49 35Q46 27 42 9Q41 8 40 5T37
1T31 0H11Q2 0 6 13ZM202 310Q214 312 236 312L290 311Q303 311 303 318Q303 323 296 340Q290 355 278 396Q269 429 260 453Q250 483 239 524T225 577Q210 630 205 630Q202 630 195 603L189 581Q182 554 171 514T151 445Q145 419 135 380T118 325Q116 319 116 318Q116
311 122 309T135 307T144 308L202 310ZM261 739T237 744L215 752Q192 762 176 766T153 773Q140 776 123 783T103 796Q100 802 100 807Q100 815 104 819T119 829Q133 837 141 837Q148 837 157 834T172 829Q200 817 216 812T258 800Q262 798 274 794T296 783T308
767Q310 757 310 754Q310 738 291 738Q286 738 272 740Q261 739 237 744Z" />
<glyph unicode="&#xc1;" glyph-name="Aacute" horiz-adv-x="475" d="M2 0T6 13Q6 16 7 18Q7 20 8 23T11 32L20 69Q22 75 27 90T34 118Q39 142 53 191L61 219Q80 281 85 306L99 359Q109 392 111 401Q118 431 131 476L138 504L144 525Q154 559 161 574Q163 580 175
615T192 672Q199 696 206 708T227 720Q232 720 237 711T247 689T254 670Q262 651 282 575L290 547Q291 539 323 449L342 394L360 347Q388 268 396 251Q431 145 437 123Q444 97 459 58T477 14Q480 7 480 4Q480 0 469 0H413Q409 0 407 1T402 9Q398 20 391 45Q382
70 379 90Q376 105 370 126T358 158Q349 177 342 201L333 230Q328 241 326 243T317 246Q296 246 286 245L243 243Q235 242 169 242H108H106Q100 242 97 231L95 221L91 202Q89 196 78 144Q75 127 68 100Q66 80 59 67Q57 64 54 53T49 35Q46 27 42 9Q41 8 40 5T37
1T31 0H11Q2 0 6 13ZM202 310Q214 312 236 312L290 311Q303 311 303 318Q303 323 296 340Q290 355 278 396Q269 429 260 453Q250 483 239 524T225 577Q210 630 205 630Q202 630 195 603L189 581Q182 554 171 514T151 445Q145 419 135 380T118 325Q116 319 116 318Q116
311 122 309T135 307T144 308L202 310ZM147 735T136 742Q116 749 116 764Q116 766 118 774Q119 779 138 787T168 799Q176 804 197 811L229 822L251 830Q264 834 286 837L306 839Q324 839 324 822Q324 815 323 811Q319 800 303 791T274 777Q246 769 218 756Q200
748 189 744Q185 743 175 739T157 735Q147 735 136 742Z" />
<glyph unicode="&#xc2;" glyph-name="Acircumflex" horiz-adv-x="475" d="M2 0T6 13Q6 16 7 18Q7 20 8 23T11 32L20 69Q22 75 27 90T34 118Q39 142 53 191L61 219Q80 281 85 306L99 359Q109 392 111 401Q118 431 131 476L138 504L144 525Q154 559 161 574Q163
580 175 615T192 672Q199 696 206 708T227 720Q232 720 237 711T247 689T254 670Q262 651 282 575L290 547Q291 539 323 449L342 394L360 347Q388 268 396 251Q431 145 437 123Q444 97 459 58T477 14Q480 7 480 4Q480 0 469 0H413Q409 0 407 1T402 9Q398 20 391
45Q382 70 379 90Q376 105 370 126T358 158Q349 177 342 201L333 230Q328 241 326 243T317 246Q296 246 286 245L243 243Q235 242 169 242H108H106Q100 242 97 231L95 221L91 202Q89 196 78 144Q75 127 68 100Q66 80 59 67Q57 64 54 53T49 35Q46 27 42 9Q41 8 40
5T37 1T31 0H11Q2 0 6 13ZM202 310Q214 312 236 312L290 311Q303 311 303 318Q303 323 296 340Q290 355 278 396Q269 429 260 453Q250 483 239 524T225 577Q210 630 205 630Q202 630 195 603L189 581Q182 554 171 514T151 445Q145 419 135 380T118 325Q116 319
116 318Q116 311 122 309T135 307T144 308L202 310ZM347 734T328 741L301 748Q284 755 266 766L234 781L188 760Q169 750 131 739Q111 736 93 736Q82 736 76 741T69 752Q69 760 76 764L103 781Q106 782 116 787T151 810Q191 833 203 836Q212 840 221 840Q225 841
232 841Q240 841 246 839T259 833T270 826Q299 806 316 796L337 783Q338 782 356 772T371 749Q367 734 355 734Q347 734 328 741Z" />
<glyph unicode="&#xc3;" glyph-name="Atilde" horiz-adv-x="475" d="M2 0T6 13Q6 16 7 18Q7 20 8 23T11 32L20 69Q22 75 27 90T34 118Q39 142 53 191L61 219Q80 281 85 306L99 359Q109 392 111 401Q118 431 131 476L138 504L144 525Q154 559 161 574Q163 580 175
615T192 672Q199 696 206 708T227 720Q232 720 237 711T247 689T254 670Q262 651 282 575L290 547Q291 539 323 449L342 394L360 347Q388 268 396 251Q431 145 437 123Q444 97 459 58T477 14Q480 7 480 4Q480 0 469 0H413Q409 0 407 1T402 9Q398 20 391 45Q382
70 379 90Q376 105 370 126T358 158Q349 177 342 201L333 230Q328 241 326 243T317 246Q296 246 286 245L243 243Q235 242 169 242H108H106Q100 242 97 231L95 221L91 202Q89 196 78 144Q75 127 68 100Q66 80 59 67Q57 64 54 53T49 35Q46 27 42 9Q41 8 40 5T37
1T31 0H11Q2 0 6 13ZM202 310Q214 312 236 312L290 311Q303 311 303 318Q303 323 296 340Q290 355 278 396Q269 429 260 453Q250 483 239 524T225 577Q210 630 205 630Q202 630 195 603L189 581Q182 554 171 514T151 445Q145 419 135 380T118 325Q116 319 116 318Q116
311 122 309T135 307T144 308L202 310ZM292 745T276 748T229 760Q196 770 181 773T141 776Q123 776 95 766Q72 757 58 757Q54 757 50 761T45 773V792Q49 807 74 817Q108 832 132 832Q158 832 178 828T227 816L247 810Q251 809 266 805T293 800T319 799Q336 800
349 809T366 819Q372 819 373 814Q375 807 375 789V774Q375 763 364 754T319 745Q292 745 276 748Z" />
<glyph unicode="&#xc4;" glyph-name="Adieresis" horiz-adv-x="475" d="M2 0T6 13Q6 16 7 18Q7 20 8 23T11 32L20 69Q22 75 27 90T34 118Q39 142 53 191L61 219Q80 281 85 306L99 359Q109 392 111 401Q118 431 131 476L138 504L144 525Q154 559 161 574Q163 580
175 615T192 672Q199 696 206 708T227 720Q232 720 237 711T247 689T254 670Q262 651 282 575L290 547Q291 539 323 449L342 394L360 347Q388 268 396 251Q431 145 437 123Q444 97 459 58T477 14Q480 7 480 4Q480 0 469 0H413Q409 0 407 1T402 9Q398 20 391 45Q382
70 379 90Q376 105 370 126T358 158Q349 177 342 201L333 230Q328 241 326 243T317 246Q296 246 286 245L243 243Q235 242 169 242H108H106Q100 242 97 231L95 221L91 202Q89 196 78 144Q75 127 68 100Q66 80 59 67Q57 64 54 53T49 35Q46 27 42 9Q41 8 40 5T37
1T31 0H11Q2 0 6 13ZM202 310Q214 312 236 312L290 311Q303 311 303 318Q303 323 296 340Q290 355 278 396Q269 429 260 453Q250 483 239 524T225 577Q210 630 205 630Q202 630 195 603L189 581Q182 554 171 514T151 445Q145 419 135 380T118 325Q116 319 116 318Q116
311 122 309T135 307T144 308L202 310ZM300 731T284 750T267 805Q267 825 283 836T329 848Q355 848 369 832T383 785Q383 760 369 746T329 731Q300 731 284 750ZM93 727T76 740T58 778Q58 807 74 823T120 840Q148 840 163 825T178 782Q178 756 164 742T124 727Q93
727 76 740Z" />
<glyph unicode="&#xc5;" glyph-name="Aring" horiz-adv-x="475" d="M480 7T480 4Q480 0 469 0H413Q409 0 407 1T402 9Q398 20 391 45Q382 70 379 90Q376 105 370 126T358 158Q349 177 342 201L333 230Q328 241 326 243T317 246Q296 246 286 245L243 243Q235 242
169 242H108H106Q100 242 97 231L95 221L91 202Q89 196 78 144Q75 127 68 100Q66 80 59 67Q57 64 54 53T49 35Q46 27 42 9Q41 8 40 5T37 1T31 0H11Q2 0 6 13Q6 16 7 18Q7 20 8 23T11 32L20 69Q22 75 27 90T34 118Q39 142 53 191L61 219Q80 281 85 306L99 359Q109
392 111 401Q118 431 131 476L138 504L144 525Q154 559 161 574Q163 580 175 615T192 672Q197 690 201 700T213 715Q186 716 166 736T145 783Q146 796 155 821Q161 837 176 848T217 859Q263 859 279 834T295 787Q295 774 285 752T252 720Q244 716 234 716Q239 709
254 670Q262 651 282 575L290 547Q291 539 323 449L342 394L360 347Q388 268 396 251Q431 145 437 123Q444 97 459 58T477 14Q480 7 480 4ZM194 778T201 772T219 765L230 766Q231 767 239 771T247 787Q247 795 240 802T222 809Q209 809 202 803T194 787Q194 778
201 772ZM303 311T303 318Q303 323 296 340Q290 355 278 396Q269 429 260 453Q250 483 239 524T225 577Q210 630 205 630Q202 630 195 603L189 581Q182 554 171 514T151 445Q145 419 135 380T118 325Q116 319 116 318Q116 311 122 309T135 307T144 308L202 310Q214
312 236 312L290 311Q303 311 303 318Z" />
<glyph unicode="&#xc6;" glyph-name="AE" horiz-adv-x="886" d="M22 0T22 4Q22 5 26 13L28 18L35 32Q39 43 43 52T51 69Q54 76 62 91T75 118Q79 131 108 191Q150 273 163 306Q171 325 179 342T195 374Q200 383 203 389T209 401L257 504L266 522Q280 550 294 574Q297
579 304 592T318 618L333 647L345 672Q356 696 366 708T390 720Q397 720 400 705Q400 701 401 699L421 697Q432 696 472 696Q495 696 508 697L548 700Q593 705 621 705Q662 705 697 702L733 701Q751 701 758 700Q769 700 770 673L771 638Q772 628 772 606Q772 573
771 560Q772 544 760 544Q755 544 748 546T737 550Q721 553 649 553L611 554Q598 555 573 555Q555 555 546 554Q537 553 516 553H440Q431 553 431 546L433 533Q433 515 438 472L441 437L448 378Q449 369 453 346Q461 345 480 345Q489 344 511 344H550Q572 344 614
346Q646 348 656 348Q670 348 684 347T705 345L715 346Q729 346 729 322V302Q727 284 727 281Q727 275 728 268T729 249V243Q729 233 722 233Q718 233 714 234T703 236Q694 236 670 237T603 238Q558 238 526 234T486 230Q475 230 473 231Q468 231 467 232L479 132Q486
132 490 133L518 134L635 135Q671 135 693 134L762 133Q790 133 799 134Q818 135 825 129T835 107V23Q837 7 831 4T811 0T790 1Q747 1 716 2L613 3Q587 3 570 2L429 0Q425 0 423 1T420 9Q418 21 416 45L413 67Q413 80 409 105Q408 122 402 165L396 230Q393 241
391 243T383 246Q362 246 352 245L309 243Q304 242 280 242H173H171Q166 242 160 231L156 221L148 202L126 152Q109 107 104 100Q96 77 89 67Q87 65 82 54T73 35L61 9Q58 3 56 2T48 0H28Q22 0 22 4ZM234 308Q248 308 260 309T281 310Q285 311 298 311H370Q384 311
384 320Q384 324 383 329T381 340Q380 345 379 361T376 392L372 425Q372 425 368 453Q365 483 363 519T359 577L356 598Q355 603 354 616T350 630Q347 630 338 609T324 581L310 554L295 521Q284 499 275 479T258 445Q212 344 200 325Q197 319 197 316Q197 310 202
309T214 307T223 308H234Z" />
<glyph unicode="&#xc7;" glyph-name="Ccedilla" horiz-adv-x="509" d="M226 -158T205 -153T184 -139Q184 -127 192 -90Q192 -86 195 -86Q197 -86 204 -90T219 -99Q239 -105 257 -105Q280 -103 287 -100T298 -79Q298 -46 274 -46Q265 -46 255 -53T241 -60Q223 -60
217 -59T210 -52Q210 -40 212 -31T217 -16Q219 -1 231 30Q166 54 116 123Q80 172 59 239T37 374Q37 432 58 496T112 607Q145 653 187 678T271 704Q342 704 385 675T448 618Q452 612 455 607T459 597Q459 591 448 581Q402 545 382 518Q372 505 365 499T351 492Q344
492 335 502Q314 525 303 534T275 544Q236 544 204 498Q188 473 178 432T167 349Q167 284 189 242T239 180T285 164Q303 164 322 176T355 203Q357 205 361 210T370 215Q375 215 382 211L467 164Q471 162 479 159T491 152T495 144Q495 139 492 133Q470 96 423 57T293
18Q279 18 273 19Q255 -5 250 -22Q261 -16 268 -15T298 -13Q360 -13 360 -83Q359 -104 351 -114T329 -137Q324 -142 314 -148Q302 -153 292 -155T251 -158Q226 -158 205 -153Z" />
<glyph unicode="&#xc8;" glyph-name="Egrave" horiz-adv-x="514" d="M68 -2T67 1T66 15Q65 26 65 52Q65 60 64 69T63 95V232Q63 252 64 271T66 299Q70 345 70 387Q70 439 67 469Q65 503 65 531Q65 594 68 678Q68 691 73 695T87 700L102 699Q111 699 131 698T180
696Q213 696 258 701Q312 705 330 705Q371 705 405 702L441 701Q454 701 458 695T462 673Q462 664 464 642Q466 616 466 597Q466 577 463 560Q462 545 449 545Q445 545 438 547T427 550Q412 553 340 553L302 554Q289 555 264 555Q246 555 237 554Q207 552 184 552L131
553Q123 553 122 550T121 533Q121 515 120 502Q118 462 118 437V378Q118 357 119 346Q127 345 146 345Q163 344 216 344Q238 344 280 346Q312 348 322 348Q336 348 350 347T371 345Q384 345 384 333Q384 329 383 322T382 302L383 249Q383 240 381 237T374 233Q371
233 366 234T356 236Q347 236 323 237T256 238Q211 238 178 234T138 230Q127 230 125 231Q120 231 119 232V132Q126 132 130 133L158 134L276 135Q312 135 333 134L402 133L444 134Q456 134 460 129T464 113L463 93L462 23Q462 7 455 4T435 0T414 1Q371 1 340 2L238
3Q226 3 118 0L80 -1L74 -2Q68 -2 67 1ZM318 739T294 744L272 752Q249 762 233 766T210 773Q197 776 180 783T160 796Q157 802 157 807Q157 815 161 819T176 829Q190 837 198 837Q205 837 214 834T229 829Q257 817 273 812T315 800Q319 798 331 794T353 783T365
767Q367 757 367 754Q367 738 348 738Q343 738 329 740Q318 739 294 744Z" />
<glyph unicode="&#xc9;" glyph-name="Eacute" horiz-adv-x="514" d="M68 -2T67 1T66 15Q65 26 65 52Q65 60 64 69T63 95V232Q63 252 64 271T66 299Q70 345 70 387Q70 439 67 469Q65 503 65 531Q65 594 68 678Q68 691 73 695T87 700L102 699Q111 699 131 698T180
696Q213 696 258 701Q312 705 330 705Q371 705 405 702L441 701Q454 701 458 695T462 673Q462 664 464 642Q466 616 466 597Q466 577 463 560Q462 545 449 545Q445 545 438 547T427 550Q412 553 340 553L302 554Q289 555 264 555Q246 555 237 554Q207 552 184 552L131
553Q123 553 122 550T121 533Q121 515 120 502Q118 462 118 437V378Q118 357 119 346Q127 345 146 345Q163 344 216 344Q238 344 280 346Q312 348 322 348Q336 348 350 347T371 345Q384 345 384 333Q384 329 383 322T382 302L383 249Q383 240 381 237T374 233Q371
233 366 234T356 236Q347 236 323 237T256 238Q211 238 178 234T138 230Q127 230 125 231Q120 231 119 232V132Q126 132 130 133L158 134L276 135Q312 135 333 134L402 133L444 134Q456 134 460 129T464 113L463 93L462 23Q462 7 455 4T435 0T414 1Q371 1 340 2L238
3Q226 3 118 0L80 -1L74 -2Q68 -2 67 1ZM204 735T193 742Q173 749 173 764Q173 766 175 774Q176 779 195 787T225 799Q233 804 254 811L286 822L308 830Q321 834 343 837L363 839Q381 839 381 822Q381 815 380 811Q376 800 360 791T331 777Q303 769 275 756Q257
748 246 744Q242 743 232 739T214 735Q204 735 193 742Z" />
<glyph unicode="&#xca;" glyph-name="Ecircumflex" horiz-adv-x="514" d="M68 -2T67 1T66 15Q65 26 65 52Q65 60 64 69T63 95V232Q63 252 64 271T66 299Q70 345 70 387Q70 439 67 469Q65 503 65 531Q65 594 68 678Q68 691 73 695T87 700L102 699Q111 699 131 698T180
696Q213 696 258 701Q312 705 330 705Q371 705 405 702L441 701Q454 701 458 695T462 673Q462 664 464 642Q466 616 466 597Q466 577 463 560Q462 545 449 545Q445 545 438 547T427 550Q412 553 340 553L302 554Q289 555 264 555Q246 555 237 554Q207 552 184 552L131
553Q123 553 122 550T121 533Q121 515 120 502Q118 462 118 437V378Q118 357 119 346Q127 345 146 345Q163 344 216 344Q238 344 280 346Q312 348 322 348Q336 348 350 347T371 345Q384 345 384 333Q384 329 383 322T382 302L383 249Q383 240 381 237T374 233Q371
233 366 234T356 236Q347 236 323 237T256 238Q211 238 178 234T138 230Q127 230 125 231Q120 231 119 232V132Q126 132 130 133L158 134L276 135Q312 135 333 134L402 133L444 134Q456 134 460 129T464 113L463 93L462 23Q462 7 455 4T435 0T414 1Q371 1 340 2L238
3Q226 3 118 0L80 -1L74 -2Q68 -2 67 1ZM404 734T385 741L358 748Q341 755 323 766L291 781L245 760Q226 750 188 739Q168 736 150 736Q139 736 133 741T126 752Q126 760 133 764L160 781Q163 782 173 787T208 810Q248 833 260 836Q269 840 278 840Q282 841 289
841Q297 841 303 839T316 833T327 826Q356 806 373 796L394 783Q395 782 413 772T428 749Q424 734 412 734Q404 734 385 741Z" />
<glyph unicode="&#xcb;" glyph-name="Edieresis" horiz-adv-x="514" d="M68 -2T67 1T66 15Q65 26 65 52Q65 60 64 69T63 95V232Q63 252 64 271T66 299Q70 345 70 387Q70 439 67 469Q65 503 65 531Q65 594 68 678Q68 691 73 695T87 700L102 699Q111 699 131 698T180
696Q213 696 258 701Q312 705 330 705Q371 705 405 702L441 701Q454 701 458 695T462 673Q462 664 464 642Q466 616 466 597Q466 577 463 560Q462 545 449 545Q445 545 438 547T427 550Q412 553 340 553L302 554Q289 555 264 555Q246 555 237 554Q207 552 184 552L131
553Q123 553 122 550T121 533Q121 515 120 502Q118 462 118 437V378Q118 357 119 346Q127 345 146 345Q163 344 216 344Q238 344 280 346Q312 348 322 348Q336 348 350 347T371 345Q384 345 384 333Q384 329 383 322T382 302L383 249Q383 240 381 237T374 233Q371
233 366 234T356 236Q347 236 323 237T256 238Q211 238 178 234T138 230Q127 230 125 231Q120 231 119 232V132Q126 132 130 133L158 134L276 135Q312 135 333 134L402 133L444 134Q456 134 460 129T464 113L463 93L462 23Q462 7 455 4T435 0T414 1Q371 1 340 2L238
3Q226 3 118 0L80 -1L74 -2Q68 -2 67 1ZM357 731T341 750T324 805Q324 825 340 836T386 848Q412 848 426 832T440 785Q440 760 426 746T386 731Q357 731 341 750ZM150 727T133 740T115 778Q115 807 131 823T177 840Q205 840 220 825T235 782Q235 756 221 742T181
727Q150 727 133 740Z" />
<glyph unicode="&#xcc;" glyph-name="Igrave" horiz-adv-x="153" d="M65 -7T57 -7T46 -5T44 3L45 35L47 166L49 376Q49 406 53 512Q54 537 56 593T56 660L55 681Q55 707 71 707L108 706Q118 706 118 692Q118 687 117 681T116 668Q113 646 111 555Q111 527 107
413Q103 303 103 279Q103 221 105 133T109 27Q110 21 110 13Q110 6 108 3T100 -3Q94 -7 69 -7Q65 -7 57 -7ZM139 739T115 744L93 752Q70 762 54 766T31 773Q18 776 1 783T-19 796Q-22 802 -22 807Q-22 815 -18 819T-3 829Q11 837 19 837Q26 837 35 834T50 829Q78
817 94 812T136 800Q140 798 152 794T174 783T186 767Q188 757 188 754Q188 738 169 738Q164 738 150 740Q139 739 115 744Z" />
<glyph unicode="&#xcd;" glyph-name="Iacute" horiz-adv-x="153" d="M65 -7T57 -7T46 -5T44 3L45 35L47 166L49 376Q49 406 53 512Q54 537 56 593T56 660L55 681Q55 707 71 707L108 706Q118 706 118 692Q118 687 117 681T116 668Q113 646 111 555Q111 527 107
413Q103 303 103 279Q103 221 105 133T109 27Q110 21 110 13Q110 6 108 3T100 -3Q94 -7 69 -7Q65 -7 57 -7ZM25 735T14 742Q-6 749 -6 764Q-6 766 -4 774Q-3 779 16 787T46 799Q54 804 75 811L107 822L129 830Q142 834 164 837L184 839Q202 839 202 822Q202 815
201 811Q197 800 181 791T152 777Q124 769 96 756Q78 748 67 744Q63 743 53 739T35 735Q25 735 14 742Z" />
<glyph unicode="&#xce;" glyph-name="Icircumflex" horiz-adv-x="153" d="M65 -7T57 -7T46 -5T44 3L45 35L47 166L49 376Q49 406 53 512Q54 537 56 593T56 660L55 681Q55 707 71 707L108 706Q118 706 118 692Q118 687 117 681T116 668Q113 646 111 555Q111 527
107 413Q103 303 103 279Q103 221 105 133T109 27Q110 21 110 13Q110 6 108 3T100 -3Q94 -7 69 -7Q65 -7 57 -7ZM225 734T206 741L179 748Q162 755 144 766L112 781L66 760Q47 750 9 739Q-11 736 -29 736Q-40 736 -46 741T-53 752Q-53 760 -46 764L-19 781Q-16
782 -6 787T29 810Q69 833 81 836Q90 840 99 840Q103 841 110 841Q118 841 124 839T137 833T148 826Q177 806 194 796L215 783Q216 782 234 772T249 749Q245 734 233 734Q225 734 206 741Z" />
<glyph unicode="&#xcf;" glyph-name="Idieresis" horiz-adv-x="153" d="M65 -7T57 -7T46 -5T44 3L45 35L47 166L49 376Q49 406 53 512Q54 537 56 593T56 660L55 681Q55 707 71 707L108 706Q118 706 118 692Q118 687 117 681T116 668Q113 646 111 555Q111 527 107
413Q103 303 103 279Q103 221 105 133T109 27Q110 21 110 13Q110 6 108 3T100 -3Q94 -7 69 -7Q65 -7 57 -7ZM178 731T162 750T145 805Q145 825 161 836T207 848Q233 848 247 832T261 785Q261 760 247 746T207 731Q178 731 162 750ZM-29 727T-46 740T-64 778Q-64
807 -48 823T-2 840Q26 840 41 825T56 782Q56 756 42 742T2 727Q-29 727 -46 740Z" />
<glyph unicode="&#xd0;" glyph-name="Eth" horiz-adv-x="616" d="M103 0T103 34L104 60L102 110L101 155L100 185Q96 237 96 303V310L58 312Q46 312 44 314T41 321T42 328L40 348Q36 382 38 386Q38 392 48 392L61 390H99Q99 399 101 417Q101 429 102 457T104 511L103
645Q102 661 102 681Q102 692 116 694T147 697T169 696L205 698Q247 700 273 700Q334 700 403 668T524 549T576 315Q576 180 512 111T376 22T258 2L176 1Q154 0 122 0Q103 0 103 34ZM370 94T444 157Q492 216 501 264Q510 314 510 364Q507 417 485 465T409 567Q343
618 280 623Q282 563 282 480Q282 432 281 420L279 393H375Q384 393 384 385L383 376V325Q383 317 374 317L360 318Q353 318 333 317T297 315H277Q277 282 276 266Q275 249 275 62Q370 94 444 157Z" />
<glyph unicode="&#xd1;" glyph-name="Ntilde" horiz-adv-x="676" d="M76 -12T71 -7T65 6T63 16Q59 34 59 60Q59 84 60 101Q60 153 62 222T67 322L72 393Q84 559 84 580Q84 659 87 698Q89 725 115 725Q123 725 130 724T141 723L226 724Q248 724 258 720T275 704Q285
683 300 650L337 570L384 467Q397 439 418 393T448 329Q465 294 470 286L498 231L529 170L527 228L523 326V356Q523 411 525 467Q525 509 524 535L523 611L527 707Q527 722 542 722Q547 722 562 719Q571 717 581 717T597 717Q605 717 607 715T610 708Q610 704 609
699T608 688L607 602L605 400L604 371Q604 337 605 309T607 263Q610 220 610 191Q610 195 613 72L615 16V14Q615 -6 596 -4Q593 -3 584 -3L555 -4H549Q542 -4 539 -1T527 16Q524 23 519 36T507 65Q464 173 445 212Q423 254 334 453Q314 494 289 540L260 592L263
497L264 438Q266 372 266 351Q266 269 269 186L270 108Q270 87 272 47L274 12V10Q274 0 269 -3T255 -6L233 -7Q212 -10 188 -10Q160 -10 142 -11L91 -12Q76 -12 71 -7ZM464 745T448 748T401 760Q368 770 353 773T313 776Q295 776 267 766Q244 757 230 757Q226 757
222 761T217 773V792Q221 807 246 817Q280 832 304 832Q330 832 350 828T399 816L419 810Q423 809 438 805T465 800T491 799Q508 800 521 809T538 819Q544 819 545 814Q547 807 547 789V774Q547 763 536 754T491 745Q464 745 448 748Z" />
<glyph unicode="&#xd2;" glyph-name="Ograve" horiz-adv-x="544" d="M137 -22T90 98T43 357Q43 490 79 570T168 682T273 714Q373 714 423 657T487 521T501 343Q501 263 477 179T403 36T280 -22Q137 -22 90 98ZM299 232T312 262T325 334Q325 374 313 404T279 434Q254
434 242 400T229 325Q229 284 237 258T272 232Q299 232 312 262ZM331 739T307 744L285 752Q262 762 246 766T223 773Q210 776 193 783T173 796Q170 802 170 807Q170 815 174 819T189 829Q203 837 211 837Q218 837 227 834T242 829Q270 817 286 812T328 800Q332
798 344 794T366 783T378 767Q380 757 380 754Q380 738 361 738Q356 738 342 740Q331 739 307 744Z" />
<glyph unicode="&#xd3;" glyph-name="Oacute" horiz-adv-x="544" d="M137 -22T90 98T43 357Q43 490 79 570T168 682T273 714Q373 714 423 657T487 521T501 343Q501 263 477 179T403 36T280 -22Q137 -22 90 98ZM299 232T312 262T325 334Q325 374 313 404T279 434Q254
434 242 400T229 325Q229 284 237 258T272 232Q299 232 312 262ZM217 735T206 742Q186 749 186 764Q186 766 188 774Q189 779 208 787T238 799Q246 804 267 811L299 822L321 830Q334 834 356 837L376 839Q394 839 394 822Q394 815 393 811Q389 800 373 791T344
777Q316 769 288 756Q270 748 259 744Q255 743 245 739T227 735Q217 735 206 742Z" />
<glyph unicode="&#xd4;" glyph-name="Ocircumflex" horiz-adv-x="544" d="M137 -22T90 98T43 357Q43 490 79 570T168 682T273 714Q373 714 423 657T487 521T501 343Q501 263 477 179T403 36T280 -22Q137 -22 90 98ZM299 232T312 262T325 334Q325 374 313 404T279
434Q254 434 242 400T229 325Q229 284 237 258T272 232Q299 232 312 262ZM417 734T398 741L371 748Q354 755 336 766L304 781L258 760Q239 750 201 739Q181 736 163 736Q152 736 146 741T139 752Q139 760 146 764L173 781Q176 782 186 787T221 810Q261 833 273
836Q282 840 291 840Q295 841 302 841Q310 841 316 839T329 833T340 826Q369 806 386 796L407 783Q408 782 426 772T441 749Q437 734 425 734Q417 734 398 741Z" />
<glyph unicode="&#xd5;" glyph-name="Otilde" horiz-adv-x="544" d="M137 -22T90 98T43 357Q43 490 79 570T168 682T273 714Q373 714 423 657T487 521T501 343Q501 263 477 179T403 36T280 -22Q137 -22 90 98ZM299 232T312 262T325 334Q325 374 313 404T279 434Q254
434 242 400T229 325Q229 284 237 258T272 232Q299 232 312 262ZM362 745T346 748T299 760Q266 770 251 773T211 776Q193 776 165 766Q142 757 128 757Q124 757 120 761T115 773V792Q119 807 144 817Q178 832 202 832Q228 832 248 828T297 816L317 810Q321 809
336 805T363 800T389 799Q406 800 419 809T436 819Q442 819 443 814Q445 807 445 789V774Q445 763 434 754T389 745Q362 745 346 748Z" />
<glyph unicode="&#xd6;" glyph-name="Odieresis" horiz-adv-x="544" d="M137 -22T90 98T43 357Q43 490 79 570T168 682T273 714Q373 714 423 657T487 521T501 343Q501 263 477 179T403 36T280 -22Q137 -22 90 98ZM299 232T312 262T325 334Q325 374 313 404T279
434Q254 434 242 400T229 325Q229 284 237 258T272 232Q299 232 312 262ZM370 731T354 750T337 805Q337 825 353 836T399 848Q425 848 439 832T453 785Q453 760 439 746T399 731Q370 731 354 750ZM163 727T146 740T128 778Q128 807 144 823T190 840Q218 840 233
825T248 782Q248 756 234 742T194 727Q163 727 146 740Z" />
<glyph unicode="&#xd7;" glyph-name="multiply" horiz-adv-x="500" d="M60 51T55 56L24 89Q23 91 20 95T16 105Q16 113 28 129L79 181L131 232Q149 246 168 270T187 295Q181 305 174 311Q155 328 123 367Q111 377 94 398L77 417L37 465Q29 469 23 477T17 495Q17
505 26 515Q32 521 43 533T65 551Q73 551 92 533T125 497L217 395Q224 388 229 382T239 372T248 367Q253 367 260 373Q269 378 284 396T303 417L325 441Q329 447 355 476L371 493Q401 525 415 536Q421 544 430 544Q442 544 452 529L465 509L478 489Q485 480 485
476Q485 471 476 462Q471 456 443 428L413 398L384 368Q357 339 347 332Q331 318 324 310T317 293Q317 287 321 282L422 174L460 135Q472 127 472 113Q472 103 464 95Q448 78 433 56Q425 51 418 51Q407 51 390 68L357 103Q330 135 317 148Q278 191 272 199Q268
203 263 209T254 219T244 222Q240 222 236 219L158 136L89 65Q75 51 66 51Q60 51 55 56Z" />
<glyph unicode="&#xd8;" glyph-name="Oslash" horiz-adv-x="575" d="M71 -39T59 -35Q45 -32 45 -26Q45 -24 49 -14Q54 -9 56 -5T70 15L114 89Q60 187 60 357Q60 490 96 570T185 682T290 714Q383 714 439 658L440 660Q450 679 463 694T485 713Q519 713 530 709Q537
707 530 686T509 645L480 597Q503 546 510 483T518 343Q518 263 494 179T420 36T297 -22Q210 -22 155 33L139 1Q134 -13 129 -18T118 -27T110 -31Q101 -39 84 -39Q71 -39 59 -35ZM200 244L223 284Q353 505 363 520L365 523Q337 570 299 570Q258 570 232 530T193
430T181 314Q181 257 186 217L200 244ZM346 96T376 166T406 335Q406 398 393 449Q288 257 267 226L213 134Q238 96 282 96Q346 96 376 166Z" />
<glyph unicode="&#xd9;" glyph-name="Ugrave" horiz-adv-x="488" d="M426 583T428 509Q433 387 433 308V247Q431 118 372 61T228 3Q164 3 125 45T70 140Q63 163 60 211T56 311Q56 368 59 387Q61 401 61 480Q61 606 57 662Q56 668 56 678Q56 709 75 701L86 700Q90
700 94 701T104 702Q108 702 109 696Q108 633 107 516T106 288Q106 230 120 184T161 112T219 86Q263 86 282 111T302 165L304 226Q307 376 307 392Q307 415 309 483Q312 540 312 595Q312 644 308 664Q305 676 305 683Q305 697 311 700T324 704T333 703Q343 702
355 702T378 703H404Q420 703 422 699T426 679Q428 657 428 625Q428 603 427 593Q426 583 428 509ZM109 691V696V691ZM257 739T233 744L211 752Q188 762 172 766T149 773Q136 776 119 783T99 796Q96 802 96 807Q96 815 100 819T115 829Q129 837 137 837Q144 837
153 834T168 829Q196 817 212 812T254 800Q258 798 270 794T292 783T304 767Q306 757 306 754Q306 738 287 738Q282 738 268 740Q257 739 233 744Z" />
<glyph unicode="&#xda;" glyph-name="Uacute" horiz-adv-x="488" d="M426 583T428 509Q433 387 433 308V247Q431 118 372 61T228 3Q164 3 125 45T70 140Q63 163 60 211T56 311Q56 368 59 387Q61 401 61 480Q61 606 57 662Q56 668 56 678Q56 709 75 701L86 700Q90
700 94 701T104 702Q108 702 109 696Q108 633 107 516T106 288Q106 230 120 184T161 112T219 86Q263 86 282 111T302 165L304 226Q307 376 307 392Q307 415 309 483Q312 540 312 595Q312 644 308 664Q305 676 305 683Q305 697 311 700T324 704T333 703Q343 702
355 702T378 703H404Q420 703 422 699T426 679Q428 657 428 625Q428 603 427 593Q426 583 428 509ZM109 691V696V691ZM143 735T132 742Q112 749 112 764Q112 766 114 774Q115 779 134 787T164 799Q172 804 193 811L225 822L247 830Q260 834 282 837L302 839Q320
839 320 822Q320 815 319 811Q315 800 299 791T270 777Q242 769 214 756Q196 748 185 744Q181 743 171 739T153 735Q143 735 132 742Z" />
<glyph unicode="&#xdb;" glyph-name="Ucircumflex" horiz-adv-x="488" d="M426 583T428 509Q433 387 433 308V247Q431 118 372 61T228 3Q164 3 125 45T70 140Q63 163 60 211T56 311Q56 368 59 387Q61 401 61 480Q61 606 57 662Q56 668 56 678Q56 709 75 701L86
700Q90 700 94 701T104 702Q108 702 109 696Q108 633 107 516T106 288Q106 230 120 184T161 112T219 86Q263 86 282 111T302 165L304 226Q307 376 307 392Q307 415 309 483Q312 540 312 595Q312 644 308 664Q305 676 305 683Q305 697 311 700T324 704T333 703Q343
702 355 702T378 703H404Q420 703 422 699T426 679Q428 657 428 625Q428 603 427 593Q426 583 428 509ZM109 691V696V691ZM343 734T324 741L297 748Q280 755 262 766L230 781L184 760Q165 750 127 739Q107 736 89 736Q78 736 72 741T65 752Q65 760 72 764L99 781Q102
782 112 787T147 810Q187 833 199 836Q208 840 217 840Q221 841 228 841Q236 841 242 839T255 833T266 826Q295 806 312 796L333 783Q334 782 352 772T367 749Q363 734 351 734Q343 734 324 741Z" />
<glyph unicode="&#xdc;" glyph-name="Udieresis" horiz-adv-x="488" d="M426 583T428 509Q433 387 433 308V247Q431 118 372 61T228 3Q164 3 125 45T70 140Q63 163 60 211T56 311Q56 368 59 387Q61 401 61 480Q61 606 57 662Q56 668 56 678Q56 709 75 701L86 700Q90
700 94 701T104 702Q108 702 109 696Q108 633 107 516T106 288Q106 230 120 184T161 112T219 86Q263 86 282 111T302 165L304 226Q307 376 307 392Q307 415 309 483Q312 540 312 595Q312 644 308 664Q305 676 305 683Q305 697 311 700T324 704T333 703Q343 702
355 702T378 703H404Q420 703 422 699T426 679Q428 657 428 625Q428 603 427 593Q426 583 428 509ZM109 691V696V691ZM296 731T280 750T263 805Q263 825 279 836T325 848Q351 848 365 832T379 785Q379 760 365 746T325 731Q296 731 280 750ZM89 727T72 740T54 778Q54
807 70 823T116 840Q144 840 159 825T174 782Q174 756 160 742T120 727Q89 727 72 740Z" />
<glyph unicode="&#xdd;" glyph-name="Yacute" horiz-adv-x="496" d="M114 -3T114 3Q114 6 115 8T118 14L129 44Q152 109 153 111Q155 119 172 165L180 185Q182 190 186 198T190 212T189 223Q187 226 180 252Q178 258 172 278T160 310Q154 325 144 359Q137 382
131 400Q115 444 92 513T54 624Q49 640 41 656Q34 672 34 677Q34 684 41 686T64 690Q68 691 80 691Q95 691 104 690Q137 690 145 689Q153 688 155 685T158 677T159 668Q169 633 185 585L192 562Q207 511 216 491Q229 461 244 415Q260 367 260 367L268 392Q274 414
282 435L293 465L303 491Q303 491 313 517Q321 539 325 546Q333 562 344 597T362 661Q367 681 374 686T390 691T400 690Q403 690 425 690T463 689Q484 686 484 679Q484 678 482 670Q480 665 478 658T472 641Q448 570 441 554Q423 510 398 444T354 330Q342 295 300
191Q264 105 261 92Q257 80 253 54T246 19Q241 -2 230 -1H203Q197 -2 163 -2L126 -3Q114 -3 114 3ZM192 735T181 742Q161 749 161 764Q161 766 163 774Q164 779 183 787T213 799Q221 804 242 811L274 822L296 830Q309 834 331 837L351 839Q369 839 369 822Q369
815 368 811Q364 800 348 791T319 777Q291 769 263 756Q245 748 234 744Q230 743 220 739T202 735Q192 735 181 742Z" />
<glyph unicode="&#xde;" glyph-name="Thorn" horiz-adv-x="519" d="M71 2T71 27Q71 32 73 54Q74 61 74 97Q74 216 68 428L66 546L65 630Q64 648 64 670Q64 688 69 696T90 703Q124 699 154 699Q168 699 171 700Q178 703 186 701T200 691T204 673Q201 664 201 634Q201
595 203 563Q226 562 263 558Q327 552 354 552Q383 552 421 537T488 481T517 373Q517 269 472 217T357 161Q327 159 260 159H198L197 104L198 49Q199 40 199 27Q199 5 192 4H146Q120 4 104 3T82 2Q71 2 71 27ZM254 231T329 246Q377 255 402 286T427 379Q427 436
395 458T326 480Q279 480 252 477L205 474L203 435Q201 391 205 356Q208 332 210 276Q211 262 211 234Q254 231 329 246Z" />
<glyph unicode="&#xdf;" glyph-name="germandbls" horiz-adv-x="603" d="M376 -9T352 4T311 32T292 53Q284 61 289 69Q289 73 295 84T303 96H305Q307 96 310 92T318 82Q326 70 351 55T395 40Q430 40 462 60T495 146Q495 174 475 195T414 247Q406 252 390 264Q343
301 316 342T289 450Q290 490 305 506Q323 524 355 534Q389 544 389 572Q380 602 365 611T320 621L295 620Q271 619 256 597Q242 577 240 539V475L239 424L237 342Q237 316 238 304L239 241L238 192Q236 160 236 143L237 25Q237 12 232 7T214 2Q209 2 191 4Q182
5 154 5L81 4Q70 5 68 8T65 16T65 24L64 77Q64 91 63 101L62 169Q62 184 63 199T65 222Q68 245 68 274L67 388L68 454Q70 500 70 524Q70 564 69 573L68 589L69 608Q70 631 92 657T159 702Q220 720 253 720Q322 720 366 709Q396 703 404 700Q423 694 437 686T471
649Q489 613 487 575Q484 544 456 507Q439 487 395 475Q373 467 363 451Q359 442 359 433Q359 425 363 420T373 410T383 401Q396 389 407 381T425 369Q432 365 471 347T539 282T569 167Q569 65 517 28T401 -9Q376 -9 352 4Z" />
<glyph unicode="&#xe0;" glyph-name="agrave" horiz-adv-x="530" d="M118 -11T74 18T30 121Q35 169 101 192T249 215Q275 215 311 219Q347 223 377 223Q373 331 364 392T332 485T268 516Q238 516 211 502T144 458Q111 434 111 434Q110 434 105 431T94 428Q85 430
85 437Q81 443 76 464T70 494Q70 500 82 508Q133 546 168 564T229 588T289 593Q389 593 423 529T458 357Q458 329 456 281Q456 252 452 196L451 172L452 113Q454 73 454 52L453 22Q451 -1 435 -1L427 0H386Q382 0 379 3T375 12V20Q315 3 279 -4T191 -11Q118 -11
74 18ZM299 46T375 82L378 175Q331 179 297 179L238 178Q190 178 152 160T111 108Q111 72 128 59T192 46Q299 46 375 82ZM306 631T282 636L260 644Q237 654 221 658T198 665Q185 668 168 675T148 688Q145 694 145 699Q145 707 149 711T164 721Q178 729 186 729Q193
729 202 726T217 721Q245 709 261 704T303 692Q307 690 319 686T341 675T353 659Q355 649 355 646Q355 630 336 630Q331 630 317 632Q306 631 282 636Z" />
<glyph unicode="&#xe1;" glyph-name="aacute" horiz-adv-x="530" d="M118 -11T74 18T30 121Q35 169 101 192T249 215Q275 215 311 219Q347 223 377 223Q373 331 364 392T332 485T268 516Q238 516 211 502T144 458Q111 434 111 434Q110 434 105 431T94 428Q85 430
85 437Q81 443 76 464T70 494Q70 500 82 508Q133 546 168 564T229 588T289 593Q389 593 423 529T458 357Q458 329 456 281Q456 252 452 196L451 172L452 113Q454 73 454 52L453 22Q451 -1 435 -1L427 0H386Q382 0 379 3T375 12V20Q315 3 279 -4T191 -11Q118 -11
74 18ZM299 46T375 82L378 175Q331 179 297 179L238 178Q190 178 152 160T111 108Q111 72 128 59T192 46Q299 46 375 82ZM197 627T186 634Q166 641 166 656Q166 658 168 666Q169 671 188 679T218 691Q226 696 247 703L279 714L301 722Q314 726 336 729L356 731Q374
731 374 714Q374 707 373 703Q369 692 353 683T324 669Q296 661 268 648Q250 640 239 636Q235 635 225 631T207 627Q197 627 186 634Z" />
<glyph unicode="&#xe2;" glyph-name="acircumflex" horiz-adv-x="530" d="M118 -11T74 18T30 121Q35 169 101 192T249 215Q275 215 311 219Q347 223 377 223Q373 331 364 392T332 485T268 516Q238 516 211 502T144 458Q111 434 111 434Q110 434 105 431T94 428Q85
430 85 437Q81 443 76 464T70 494Q70 500 82 508Q133 546 168 564T229 588T289 593Q389 593 423 529T458 357Q458 329 456 281Q456 252 452 196L451 172L452 113Q454 73 454 52L453 22Q451 -1 435 -1L427 0H386Q382 0 379 3T375 12V20Q315 3 279 -4T191 -11Q118
-11 74 18ZM299 46T375 82L378 175Q331 179 297 179L238 178Q190 178 152 160T111 108Q111 72 128 59T192 46Q299 46 375 82ZM397 626T378 633L351 640Q334 647 316 658L284 673L238 652Q219 642 181 631Q161 628 143 628Q132 628 126 633T119 644Q119 652 126
656L153 673Q156 674 166 679T201 702Q241 725 253 728Q262 732 271 732Q275 733 282 733Q290 733 296 731T309 725T320 718Q349 698 366 688L387 675Q388 674 406 664T421 641Q417 626 405 626Q397 626 378 633Z" />
<glyph unicode="&#xe3;" glyph-name="atilde" horiz-adv-x="530" d="M118 -11T74 18T30 121Q35 169 101 192T249 215Q275 215 311 219Q347 223 377 223Q373 331 364 392T332 485T268 516Q238 516 211 502T144 458Q111 434 111 434Q110 434 105 431T94 428Q85 430
85 437Q81 443 76 464T70 494Q70 500 82 508Q133 546 168 564T229 588T289 593Q389 593 423 529T458 357Q458 329 456 281Q456 252 452 196L451 172L452 113Q454 73 454 52L453 22Q451 -1 435 -1L427 0H386Q382 0 379 3T375 12V20Q315 3 279 -4T191 -11Q118 -11
74 18ZM299 46T375 82L378 175Q331 179 297 179L238 178Q190 178 152 160T111 108Q111 72 128 59T192 46Q299 46 375 82ZM345 637T329 640T282 652Q249 662 234 665T194 668Q176 668 148 658Q125 649 111 649Q107 649 103 653T98 665V684Q102 699 127 709Q161 724
185 724Q211 724 231 720T280 708L300 702Q304 701 319 697T346 692T372 691Q389 692 402 701T419 711Q425 711 426 706Q428 699 428 681V666Q428 655 417 646T372 637Q345 637 329 640Z" />
<glyph unicode="&#xe4;" glyph-name="adieresis" horiz-adv-x="530" d="M118 -11T74 18T30 121Q35 169 101 192T249 215Q275 215 311 219Q347 223 377 223Q373 331 364 392T332 485T268 516Q238 516 211 502T144 458Q111 434 111 434Q110 434 105 431T94 428Q85
430 85 437Q81 443 76 464T70 494Q70 500 82 508Q133 546 168 564T229 588T289 593Q389 593 423 529T458 357Q458 329 456 281Q456 252 452 196L451 172L452 113Q454 73 454 52L453 22Q451 -1 435 -1L427 0H386Q382 0 379 3T375 12V20Q315 3 279 -4T191 -11Q118
-11 74 18ZM299 46T375 82L378 175Q331 179 297 179L238 178Q190 178 152 160T111 108Q111 72 128 59T192 46Q299 46 375 82ZM351 623T339 639T326 677Q326 713 348 726T400 739Q419 739 431 721T443 677Q443 655 427 639T380 623Q351 623 339 639ZM133 619T115
635T97 677Q97 698 112 715T151 732Q177 732 197 719T217 681Q217 653 197 636T155 619Q133 619 115 635Z" />
<glyph unicode="&#xe5;" glyph-name="aring" horiz-adv-x="530" d="M118 -11T74 18T30 121Q35 169 101 192T249 215Q275 215 311 219Q347 223 377 223Q373 331 364 392T332 485T268 516Q238 516 211 502T144 458Q111 434 111 434Q110 434 105 431T94 428Q85 430
85 437Q81 443 76 464T70 494Q70 500 82 508Q133 546 168 564T229 588T289 593Q389 593 423 529T458 357Q458 329 456 281Q456 252 452 196L451 172L452 113Q454 73 454 52L453 22Q451 -1 435 -1L427 0H386Q382 0 379 3T375 12V20Q315 3 279 -4T191 -11Q118 -11
74 18ZM299 46T375 82L378 175Q331 179 297 179L238 178Q190 178 152 160T111 108Q111 72 128 59T192 46Q299 46 375 82ZM238 607T217 627T195 675Q196 688 205 713Q211 729 226 740T267 751Q313 751 329 726T345 679Q345 666 335 644T302 612Q291 607 265 607Q238
607 217 627ZM280 658Q281 659 289 663T297 679Q297 687 290 694T272 701Q259 701 252 695T244 679Q244 670 251 664T269 657L280 658Z" />
<glyph unicode="&#xe6;" glyph-name="ae" horiz-adv-x="832" d="M494 -22T430 74Q351 -11 191 -11Q118 -11 74 18T30 121Q35 169 101 192T249 215Q275 215 311 219Q347 223 377 223Q373 331 364 392T332 485T268 516Q238 516 211 502T144 458Q111 434 111 434Q110
434 105 431T94 428Q85 430 85 437Q81 443 76 464T70 494Q70 500 82 508Q133 546 168 564T229 588T289 593Q392 593 431 514Q463 558 505 578T589 598Q681 598 727 545T787 422T801 269Q800 262 791 260Q770 256 710 252T632 246L533 240Q542 143 638 143Q670 143
687 149T744 174Q751 174 756 166T772 133Q775 128 779 114T788 93Q807 45 806 43Q804 39 795 32Q774 11 728 -5T625 -22Q494 -22 430 74ZM652 308Q644 422 597 422Q569 422 554 390T536 298L652 308ZM265 46T318 58T411 108L387 175Q340 179 302 179L238 178Q190
178 152 160T111 108Q111 72 128 59T192 46Q265 46 318 58Z" />
<glyph unicode="&#xe7;" glyph-name="ccedilla" horiz-adv-x="477" d="M426 126T436 113T447 94Q447 90 444 85Q424 53 382 21T266 -12H251Q239 -34 234 -54Q245 -48 252 -47T282 -45Q344 -45 344 -115Q344 -133 338 -143T324 -160T313 -169Q305 -177 298 -180Q296
-181 289 -184T269 -188T235 -190Q210 -190 189 -185T168 -171Q168 -167 172 -152T176 -122Q176 -118 179 -118Q181 -118 188 -122T203 -131Q223 -137 241 -137Q264 -135 271 -132T282 -111Q282 -78 258 -78Q249 -78 239 -85T225 -92Q207 -92 201 -91T194 -84Q194
-72 196 -63T201 -48Q203 -33 212 -6Q126 14 82 95T37 297Q37 384 65 451T143 555T260 592Q324 592 364 569T419 525Q420 524 424 519T429 508Q429 503 419 494Q410 485 395 466Q385 450 379 450Q376 450 372 454T366 461Q348 480 322 497T269 514Q214 514 177
497T118 428T96 280Q96 131 145 87T251 42Q277 42 313 64T378 139Q387 150 392 150Q397 150 402 146L417 134Q426 126 436 113Z" />
<glyph unicode="&#xe8;" glyph-name="egrave" horiz-adv-x="482" d="M125 -22T75 79T25 297Q25 409 59 476T141 571T239 598Q331 598 377 545T437 422T451 269Q451 262 441 260Q408 260 289 249Q270 247 243 245T183 240Q192 143 288 143Q320 143 337 149T394
174Q401 174 406 166T422 133Q425 128 429 114T438 93Q457 45 456 43Q454 39 445 32Q424 11 378 -5T275 -22Q125 -22 75 79ZM299 308Q291 422 244 422Q216 422 201 390T183 298L299 308ZM272 631T248 636L226 644Q203 654 187 658T164 665Q151 668 134 675T114
688Q111 694 111 699Q111 707 115 711T130 721Q144 729 152 729Q159 729 168 726T183 721Q211 709 227 704T269 692Q273 690 285 686T307 675T319 659Q321 649 321 646Q321 630 302 630Q297 630 283 632Q272 631 248 636Z" />
<glyph unicode="&#xe9;" glyph-name="eacute" horiz-adv-x="482" d="M125 -22T75 79T25 297Q25 409 59 476T141 571T239 598Q331 598 377 545T437 422T451 269Q451 262 441 260Q408 260 289 249Q270 247 243 245T183 240Q192 143 288 143Q320 143 337 149T394
174Q401 174 406 166T422 133Q425 128 429 114T438 93Q457 45 456 43Q454 39 445 32Q424 11 378 -5T275 -22Q125 -22 75 79ZM299 308Q291 422 244 422Q216 422 201 390T183 298L299 308ZM163 627T152 634Q132 641 132 656Q132 658 134 666Q135 671 154 679T184
691Q192 696 213 703L245 714L267 722Q280 726 302 729L322 731Q340 731 340 714Q340 707 339 703Q335 692 319 683T290 669Q262 661 234 648Q216 640 205 636Q201 635 191 631T173 627Q163 627 152 634Z" />
<glyph unicode="&#xea;" glyph-name="ecircumflex" horiz-adv-x="482" d="M125 -22T75 79T25 297Q25 409 59 476T141 571T239 598Q331 598 377 545T437 422T451 269Q451 262 441 260Q408 260 289 249Q270 247 243 245T183 240Q192 143 288 143Q320 143 337 149T394
174Q401 174 406 166T422 133Q425 128 429 114T438 93Q457 45 456 43Q454 39 445 32Q424 11 378 -5T275 -22Q125 -22 75 79ZM299 308Q291 422 244 422Q216 422 201 390T183 298L299 308ZM363 626T344 633L317 640Q300 647 282 658L250 673L204 652Q185 642 147
631Q127 628 109 628Q98 628 92 633T85 644Q85 652 92 656L119 673Q122 674 132 679T167 702Q207 725 219 728Q228 732 237 732Q241 733 248 733Q256 733 262 731T275 725T286 718Q315 698 332 688L353 675Q354 674 372 664T387 641Q383 626 371 626Q363 626 344
633Z" />
<glyph unicode="&#xeb;" glyph-name="edieresis" horiz-adv-x="482" d="M125 -22T75 79T25 297Q25 409 59 476T141 571T239 598Q331 598 377 545T437 422T451 269Q451 262 441 260Q408 260 289 249Q270 247 243 245T183 240Q192 143 288 143Q320 143 337 149T394
174Q401 174 406 166T422 133Q425 128 429 114T438 93Q457 45 456 43Q454 39 445 32Q424 11 378 -5T275 -22Q125 -22 75 79ZM299 308Q291 422 244 422Q216 422 201 390T183 298L299 308ZM317 623T305 639T292 677Q292 713 314 726T366 739Q385 739 397 721T409
677Q409 655 393 639T346 623Q317 623 305 639ZM99 619T81 635T63 677Q63 698 78 715T117 732Q143 732 163 719T183 681Q183 653 163 636T121 619Q99 619 81 635Z" />
<glyph unicode="&#xec;" glyph-name="igrave" horiz-adv-x="200" d="M60 -8T58 -7T56 0Q56 3 56 9T57 27L58 136L60 310Q60 338 64 430Q68 533 67 543L66 560Q66 571 69 576T80 582L122 581Q131 581 131 570Q131 565 130 560T129 550Q127 529 125 458Q125 435
121 341Q120 310 119 281T118 229Q118 181 119 108T123 20Q124 16 124 9Q124 2 123 0T115 -4Q107 -8 90 -8T68 -8Q60 -8 58 -7ZM139 626T115 631L93 639Q70 649 54 653T31 660Q18 663 1 670T-19 683Q-22 689 -22 694Q-22 702 -18 706T-3 716Q11 724 19 724Q26 724
35 721T50 716Q78 704 94 699T136 687Q140 685 152 681T174 670T186 654Q188 644 188 641Q188 625 169 625Q164 625 150 627Q139 626 115 631Z" />
<glyph unicode="&#xed;" glyph-name="iacute" horiz-adv-x="200" d="M60 -8T58 -7T56 0Q56 3 56 9T57 27L58 136L60 310Q60 338 64 430Q68 533 67 543L66 560Q66 571 69 576T80 582L122 581Q131 581 131 570Q131 565 130 560T129 550Q127 529 125 458Q125 435
121 341Q120 310 119 281T118 229Q118 181 119 108T123 20Q124 16 124 9Q124 2 123 0T115 -4Q107 -8 90 -8T68 -8Q60 -8 58 -7ZM30 622T19 629Q-1 636 -1 651Q-1 653 1 661Q2 666 21 674T51 686Q59 691 80 698L112 709L134 717Q147 721 169 724L189 726Q207 726
207 709Q207 702 206 698Q202 687 186 678T157 664Q129 656 101 643Q83 635 72 631Q68 630 58 626T40 622Q30 622 19 629Z" />
<glyph unicode="&#xee;" glyph-name="icircumflex" horiz-adv-x="200" d="M60 -8T58 -7T56 0Q56 3 56 9T57 27L58 136L60 310Q60 338 64 430Q68 533 67 543L66 560Q66 571 69 576T80 582L122 581Q131 581 131 570Q131 565 130 560T129 550Q127 529 125 458Q125
435 121 341Q120 310 119 281T118 229Q118 181 119 108T123 20Q124 16 124 9Q124 2 123 0T115 -4Q107 -8 90 -8T68 -8Q60 -8 58 -7ZM230 621T211 628L184 635Q167 642 149 653L117 668L71 647Q52 637 14 626Q-6 623 -24 623Q-35 623 -41 628T-48 639Q-48 647 -41
651L-14 668Q-11 669 -1 674T34 697Q74 720 86 723Q95 727 104 727Q108 728 115 728Q123 728 129 726T142 720T153 713Q182 693 199 683L220 670Q221 669 239 659T254 636Q250 621 238 621Q230 621 211 628Z" />
<glyph unicode="&#xef;" glyph-name="idieresis" horiz-adv-x="200" d="M60 -8T58 -7T56 0Q56 3 56 9T57 27L58 136L60 310Q60 338 64 430Q68 533 67 543L66 560Q66 571 69 576T80 582L122 581Q131 581 131 570Q131 565 130 560T129 550Q127 529 125 458Q125 435
121 341Q120 310 119 281T118 229Q118 181 119 108T123 20Q124 16 124 9Q124 2 123 0T115 -4Q107 -8 90 -8T68 -8Q60 -8 58 -7ZM184 618T172 634T159 672Q159 708 181 721T233 734Q252 734 264 716T276 672Q276 650 260 634T213 618Q184 618 172 634ZM-34 614T-52
630T-70 672Q-70 693 -55 710T-16 727Q10 727 30 714T50 676Q50 648 30 631T-12 614Q-34 614 -52 630Z" />
<glyph unicode="&#xf0;" glyph-name="eth" horiz-adv-x="575" d="M521 616Q521 611 512 608Q509 607 505 606T498 604L453 585L430 576Q454 541 464 502L470 480Q485 421 491 386T498 309Q498 172 444 85Q416 39 366 14T252 -11Q142 -11 90 44Q64 71 46 110T28
202Q28 310 100 396Q126 427 161 440T243 453Q296 453 330 440T382 408Q358 480 322 534Q304 527 300 526Q288 519 270 512Q252 505 229 499Q208 492 208 492Q199 488 194 488Q189 488 188 493T185 501Q182 509 173 527T164 549L163 551Q163 556 172 559L187 562L259
588L276 595Q241 633 196 663Q188 668 188 678Q188 687 194 698T209 718Q229 738 249 738Q260 738 272 732Q276 730 290 722T317 705T337 686L382 636L490 676L494 677Q500 677 501 671T504 663L520 619L521 616ZM400 151T400 255Q400 270 398 306Q375 346 337
360T259 374Q180 374 148 317Q120 265 120 210Q120 144 161 93Q189 58 249 58Q286 58 311 70T360 108Q400 151 400 255Z" />
<glyph unicode="&#xf1;" glyph-name="ntilde" horiz-adv-x="543" d="M84 0T82 3T79 13L78 69Q73 264 74 294V584Q74 598 87 598H105L127 597Q135 597 135 580L134 544L164 559Q203 578 233 587T311 597Q357 597 387 583T444 532Q472 498 472 384L473 210L472 150Q470
86 470 56Q470 30 471 25Q473 15 473 14Q473 8 471 6T462 2Q454 0 437 0T415 0Q408 0 406 4T404 23L408 189L410 282L411 352Q411 444 398 472Q385 498 375 510T347 528T296 534Q256 534 213 517T141 479Q141 400 142 341V203Q144 153 145 97T146 16Q146 8 142
4T124 0H90Q84 0 82 3ZM364 637T348 640T301 652Q268 662 253 665T213 668Q195 668 167 658Q144 649 130 649Q126 649 122 653T117 665V684Q121 699 146 709Q180 724 204 724Q230 724 250 720T299 708L319 702Q323 701 338 697T365 692T391 691Q408 692 421 701T438
711Q444 711 445 706Q447 699 447 681V666Q447 655 436 646T391 637Q364 637 348 640Z" />
<glyph unicode="&#xf2;" glyph-name="ograve" horiz-adv-x="506" d="M128 -22T84 79T40 297Q40 409 74 476T156 571T254 598Q346 598 393 550T453 435T466 285Q466 218 444 147T375 27T260 -22Q128 -22 84 79ZM286 172T301 203T317 278Q317 335 303 358T259 382Q197
382 197 270Q197 228 208 200T253 172Q286 172 301 203ZM297 631T273 636L251 644Q228 654 212 658T189 665Q176 668 159 675T139 688Q136 694 136 699Q136 707 140 711T155 721Q169 729 177 729Q184 729 193 726T208 721Q236 709 252 704T294 692Q298 690 310
686T332 675T344 659Q346 649 346 646Q346 630 327 630Q322 630 308 632Q297 631 273 636Z" />
<glyph unicode="&#xf3;" glyph-name="oacute" horiz-adv-x="506" d="M128 -22T84 79T40 297Q40 409 74 476T156 571T254 598Q346 598 393 550T453 435T466 285Q466 218 444 147T375 27T260 -22Q128 -22 84 79ZM286 172T301 203T317 278Q317 335 303 358T259 382Q197
382 197 270Q197 228 208 200T253 172Q286 172 301 203ZM188 627T177 634Q157 641 157 656Q157 658 159 666Q160 671 179 679T209 691Q217 696 238 703L270 714L292 722Q305 726 327 729L347 731Q365 731 365 714Q365 707 364 703Q360 692 344 683T315 669Q287
661 259 648Q241 640 230 636Q226 635 216 631T198 627Q188 627 177 634Z" />
<glyph unicode="&#xf4;" glyph-name="ocircumflex" horiz-adv-x="506" d="M128 -22T84 79T40 297Q40 409 74 476T156 571T254 598Q346 598 393 550T453 435T466 285Q466 218 444 147T375 27T260 -22Q128 -22 84 79ZM286 172T301 203T317 278Q317 335 303 358T259
382Q197 382 197 270Q197 228 208 200T253 172Q286 172 301 203ZM388 626T369 633L342 640Q325 647 307 658L275 673L229 652Q210 642 172 631Q152 628 134 628Q123 628 117 633T110 644Q110 652 117 656L144 673Q147 674 157 679T192 702Q232 725 244 728Q253
732 262 732Q266 733 273 733Q281 733 287 731T300 725T311 718Q340 698 357 688L378 675Q379 674 397 664T412 641Q408 626 396 626Q388 626 369 633Z" />
<glyph unicode="&#xf5;" glyph-name="otilde" horiz-adv-x="506" d="M128 -22T84 79T40 297Q40 409 74 476T156 571T254 598Q346 598 393 550T453 435T466 285Q466 218 444 147T375 27T260 -22Q128 -22 84 79ZM286 172T301 203T317 278Q317 335 303 358T259 382Q197
382 197 270Q197 228 208 200T253 172Q286 172 301 203ZM336 637T320 640T273 652Q240 662 225 665T185 668Q167 668 139 658Q116 649 102 649Q98 649 94 653T89 665V684Q93 699 118 709Q152 724 176 724Q202 724 222 720T271 708L291 702Q295 701 310 697T337
692T363 691Q380 692 393 701T410 711Q416 711 417 706Q419 699 419 681V666Q419 655 408 646T363 637Q336 637 320 640Z" />
<glyph unicode="&#xf6;" glyph-name="odieresis" horiz-adv-x="506" d="M128 -22T84 79T40 297Q40 409 74 476T156 571T254 598Q346 598 393 550T453 435T466 285Q466 218 444 147T375 27T260 -22Q128 -22 84 79ZM286 172T301 203T317 278Q317 335 303 358T259
382Q197 382 197 270Q197 228 208 200T253 172Q286 172 301 203ZM342 623T330 639T317 677Q317 713 339 726T391 739Q410 739 422 721T434 677Q434 655 418 639T371 623Q342 623 330 639ZM124 619T106 635T88 677Q88 698 103 715T142 732Q168 732 188 719T208 681Q208
653 188 636T146 619Q124 619 106 635Z" />
<glyph unicode="&#xf7;" glyph-name="divide" horiz-adv-x="500" d="M199 475T183 504T167 574Q167 600 191 618T246 637Q279 637 302 615T325 550Q325 509 303 492T251 475Q199 475 183 504ZM28 303T26 307T23 320V369Q23 381 27 386T45 392H441Q466 394 471
389T477 372V320Q477 310 469 307T434 303L396 304Q315 307 261 307H140Q119 307 83 306T39 303Q28 303 26 307ZM223 65T201 87T178 141Q178 175 196 201T251 227Q275 227 294 214T323 180T333 141Q333 112 311 89T254 65Q223 65 201 87Z" />
<glyph unicode="&#xf8;" glyph-name="oslash" horiz-adv-x="506" d="M474 589T459 567L424 510Q449 466 457 409T466 285Q466 218 444 147T375 27T260 -22Q192 -22 146 11Q132 -14 126 -28Q121 -43 116 -47T99 -56Q92 -62 75 -60Q66 -58 49 -51Q33 -45 35 -37Q35
-35 36 -33T38 -28Q43 -24 45 -20T57 -2L95 63Q40 147 40 297Q40 409 74 476T156 571T254 598Q328 598 376 563Q384 579 391 594Q400 612 412 626T433 641Q436 640 453 637T477 629Q482 627 480 614Q474 589 459 567ZM181 410T181 268Q181 239 183 224Q245 335
287 405Q274 410 260 410Q181 410 181 268ZM293 144T313 183T333 278Q333 310 328 338Q256 200 242 180L224 149Q237 144 252 144Q293 144 313 183Z" />
<glyph unicode="&#xf9;" glyph-name="ugrave" horiz-adv-x="509" d="M394 -7T374 -8Q362 -9 360 -3T357 11T358 24L359 38Q313 15 283 5T206 -6Q160 -6 130 8T73 59Q55 81 48 125T40 202V376V544Q40 556 43 560T55 567Q58 568 66 568L96 567Q113 567 113 550L110
407Q107 347 107 309L106 239Q106 147 119 119Q132 93 142 81T170 63T221 57Q256 57 293 70T361 102Q364 174 364 280Q364 374 360 486L358 559Q358 571 375 571H396Q404 571 416 571T443 571H448Q459 571 459 562V526L460 478Q465 319 464 295V28Q465 22 465 12Q465
0 462 -4T449 -9Q394 -7 374 -8ZM288 631T264 636L242 644Q219 654 203 658T180 665Q167 668 150 675T130 688Q127 694 127 699Q127 707 131 711T146 721Q160 729 168 729Q175 729 184 726T199 721Q227 709 243 704T285 692Q289 690 301 686T323 675T335 659Q337
649 337 646Q337 630 318 630Q313 630 299 632Q288 631 264 636Z" />
<glyph unicode="&#xfa;" glyph-name="uacute" horiz-adv-x="509" d="M394 -7T374 -8Q362 -9 360 -3T357 11T358 24L359 38Q313 15 283 5T206 -6Q160 -6 130 8T73 59Q55 81 48 125T40 202V376V544Q40 556 43 560T55 567Q58 568 66 568L96 567Q113 567 113 550L110
407Q107 347 107 309L106 239Q106 147 119 119Q132 93 142 81T170 63T221 57Q256 57 293 70T361 102Q364 174 364 280Q364 374 360 486L358 559Q358 571 375 571H396Q404 571 416 571T443 571H448Q459 571 459 562V526L460 478Q465 319 464 295V28Q465 22 465 12Q465
0 462 -4T449 -9Q394 -7 374 -8ZM179 627T168 634Q148 641 148 656Q148 658 150 666Q151 671 170 679T200 691Q208 696 229 703L261 714L283 722Q296 726 318 729L338 731Q356 731 356 714Q356 707 355 703Q351 692 335 683T306 669Q278 661 250 648Q232 640 221
636Q217 635 207 631T189 627Q179 627 168 634Z" />
<glyph unicode="&#xfb;" glyph-name="ucircumflex" horiz-adv-x="509" d="M394 -7T374 -8Q362 -9 360 -3T357 11T358 24L359 38Q313 15 283 5T206 -6Q160 -6 130 8T73 59Q55 81 48 125T40 202V376V544Q40 556 43 560T55 567Q58 568 66 568L96 567Q113 567 113
550L110 407Q107 347 107 309L106 239Q106 147 119 119Q132 93 142 81T170 63T221 57Q256 57 293 70T361 102Q364 174 364 280Q364 374 360 486L358 559Q358 571 375 571H396Q404 571 416 571T443 571H448Q459 571 459 562V526L460 478Q465 319 464 295V28Q465
22 465 12Q465 0 462 -4T449 -9Q394 -7 374 -8ZM379 626T360 633L333 640Q316 647 298 658L266 673L220 652Q201 642 163 631Q143 628 125 628Q114 628 108 633T101 644Q101 652 108 656L135 673Q138 674 148 679T183 702Q223 725 235 728Q244 732 253 732Q257
733 264 733Q272 733 278 731T291 725T302 718Q331 698 348 688L369 675Q370 674 388 664T403 641Q399 626 387 626Q379 626 360 633Z" />
<glyph unicode="&#xfc;" glyph-name="udieresis" horiz-adv-x="509" d="M394 -7T374 -8Q362 -9 360 -3T357 11T358 24L359 38Q313 15 283 5T206 -6Q160 -6 130 8T73 59Q55 81 48 125T40 202V376V544Q40 556 43 560T55 567Q58 568 66 568L96 567Q113 567 113 550L110
407Q107 347 107 309L106 239Q106 147 119 119Q132 93 142 81T170 63T221 57Q256 57 293 70T361 102Q364 174 364 280Q364 374 360 486L358 559Q358 571 375 571H396Q404 571 416 571T443 571H448Q459 571 459 562V526L460 478Q465 319 464 295V28Q465 22 465 12Q465
0 462 -4T449 -9Q394 -7 374 -8ZM333 623T321 639T308 677Q308 713 330 726T382 739Q401 739 413 721T425 677Q425 655 409 639T362 623Q333 623 321 639ZM115 619T97 635T79 677Q79 698 94 715T133 732Q159 732 179 719T199 681Q199 653 179 636T137 619Q115 619
97 635Z" />
<glyph unicode="&#xfd;" glyph-name="yacute" horiz-adv-x="488" d="M244 -162T217 -159Q197 -157 178 -157Q174 -157 154 -158T120 -160Q109 -160 108 -159Q106 -158 106 -153Q106 -147 108 -141T111 -134L125 -95Q127 -91 129 -84T135 -67L162 31L84 291Q68
351 47 437T14 570Q12 576 12 577Q12 583 22 583Q28 583 35 582T51 581L93 582L146 584Q162 585 167 580T176 561Q176 567 202 445L226 306L239 230H245L256 294Q258 312 267 346T279 388Q285 414 296 449Q299 461 309 500T322 558Q324 577 329 581T343 586T354
585Q441 585 464 583Q480 581 480 574Q480 572 478 562Q475 556 470 542T461 519Q451 489 451 489Q416 356 392 294Q382 267 370 217T355 152Q349 122 341 94Q332 56 318 5L296 -79Q293 -95 285 -122T275 -152Q274 -161 259 -161Q244 -162 217 -159ZM180 627T169
634Q149 641 149 656Q149 658 151 666Q152 671 171 679T201 691Q209 696 230 703L262 714L284 722Q297 726 319 729L339 731Q357 731 357 714Q357 707 356 703Q352 692 336 683T307 669Q279 661 251 648Q233 640 222 636Q218 635 208 631T190 627Q180 627 169 634Z"
/>
<glyph unicode="&#xfe;" glyph-name="thorn" horiz-adv-x="570" d="M225 -161T221 -160T212 -159L79 -158Q70 -158 68 -155T66 -146Q66 -143 66 -135T65 -106L69 10Q74 107 74 143V197Q74 219 73 232L71 492L67 732Q67 740 70 742T77 744T82 744L106 743L141 741L228
744Q232 744 234 739T236 707T237 638V564V557Q284 592 353 592Q426 592 465 533T517 403T530 283Q530 201 510 134T448 26T347 -14Q316 -14 287 -8T240 8L239 -89L238 -154Q238 -161 230 -161Q225 -161 221 -160ZM355 156T355 286Q355 337 349 365T329 406T288
419Q271 419 260 412T238 392L236 359L238 293L239 242V178Q258 156 288 156Q355 156 355 286Z" />
<glyph unicode="&#xff;" glyph-name="ydieresis" horiz-adv-x="488" d="M244 -162T217 -159Q197 -157 178 -157Q174 -157 154 -158T120 -160Q109 -160 108 -159Q106 -158 106 -153Q106 -147 108 -141T111 -134L125 -95Q127 -91 129 -84T135 -67L162 31L84 291Q68
351 47 437T14 570Q12 576 12 577Q12 583 22 583Q28 583 35 582T51 581L93 582L146 584Q162 585 167 580T176 561Q176 567 202 445L226 306L239 230H245L256 294Q258 312 267 346T279 388Q285 414 296 449Q299 461 309 500T322 558Q324 577 329 581T343 586T354
585Q441 585 464 583Q480 581 480 574Q480 572 478 562Q475 556 470 542T461 519Q451 489 451 489Q416 356 392 294Q382 267 370 217T355 152Q349 122 341 94Q332 56 318 5L296 -79Q293 -95 285 -122T275 -152Q274 -161 259 -161Q244 -162 217 -159ZM334 623T322
639T309 677Q309 713 331 726T383 739Q402 739 414 721T426 677Q426 655 410 639T363 623Q334 623 322 639ZM116 619T98 635T80 677Q80 698 95 715T134 732Q160 732 180 719T200 681Q200 653 180 636T138 619Q116 619 98 635Z" />
<glyph unicode="&#x2013;" glyph-name="endash" horiz-adv-x="597" d="M73 317T71 321T68 334V384Q68 397 73 402T94 408H489Q509 409 518 407T529 401T531 388V334Q531 324 521 321T480 317H439L388 319Q354 321 298 321H206Q180 321 138 320T86 317Q73 317 71 321Z" />
<glyph unicode="&#x2014;" glyph-name="emdash" horiz-adv-x="690" d="M72 316T70 320T67 333V350Q67 363 72 368T93 374H582Q602 375 611 373T622 367T624 354V333Q624 323 614 320T573 316H532L481 318Q447 320 357 320H205Q179 320 137 319T85 316Q72 316 70 320Z" />
<glyph unicode="&#x2018;" glyph-name="quoteleft" horiz-adv-x="212" d="M44 446T35 520Q35 525 35 549T38 597T48 641Q67 691 102 741Q109 746 113 746Q119 746 126 741Q135 736 149 729T163 718Q162 713 157 707T150 697Q126 671 122 645Q120 633 120 616Q120
599 124 592T136 582Q167 572 175 554T184 499Q184 478 162 462T113 446Q44 446 35 520Z" />
<glyph unicode="&#x2019;" glyph-name="quoteright" horiz-adv-x="199" d="M82 449T68 461T53 477Q54 483 65 498Q88 528 93 551Q96 569 96 581Q96 597 91 605T73 620Q36 641 28 656Q21 670 21 698Q21 719 43 735T91 752Q157 752 166 677Q166 672 166 648T163
600T153 554Q132 499 100 453Q97 449 92 449Q82 449 68 461Z" />
<glyph unicode="&#x201a;" glyph-name="quotesinglbase" horiz-adv-x="203" d="M86 -167T70 -153Q67 -151 60 -146T48 -139Q50 -129 55 -121T66 -106Q74 -96 79 -87T88 -65Q94 -47 94 -36Q94 -25 89 -19T74 -8Q36 13 30 34Q25 57 25 82Q25 103 47 119T95 136Q161
136 170 61Q170 56 170 32T167 -16T157 -62Q136 -117 104 -163Q100 -167 95 -167Q86 -167 70 -153Z" />
<glyph unicode="&#x201c;" glyph-name="quotedblleft" horiz-adv-x="453" d="M98 444T78 461T52 520Q52 525 52 550T55 599T65 645Q85 700 118 748Q123 753 128 753Q133 753 140 748L158 737Q176 727 176 724Q175 716 163 701Q141 673 136 649Q134 637 134 619Q134
589 150 584Q180 575 188 555T197 499Q197 476 175 460T127 444Q98 444 78 461ZM295 451T279 466T260 520Q260 525 260 550T263 599T273 645Q297 698 331 748Q334 752 339 752Q349 752 362 740T378 724Q375 714 363 700Q362 698 352 684T334 650Q330 626 330 607Q330
596 332 590Q338 580 367 575Q392 567 399 553T407 506Q404 442 329 445Q295 451 279 466Z" />
<glyph unicode="&#x201d;" glyph-name="quotedblright" horiz-adv-x="446" d="M106 448T90 463T70 485Q71 491 82 506Q105 536 110 559Q115 595 113 604Q112 613 79 623Q58 634 51 649T45 699Q55 732 72 741T125 754Q150 753 167 737T188 692Q190 658 190 643Q190
594 177 555Q156 499 124 453Q121 448 116 448Q106 448 90 463ZM306 447T295 453T277 466T272 477Q273 484 282 496Q295 513 302 531T309 580Q309 611 293 615Q266 629 260 643T253 679Q253 693 251 699Q251 722 273 738T321 754Q350 754 370 737T396 678Q396 636
394 611T381 556Q364 502 330 453Q324 447 316 447Q306 447 295 453Z" />
<glyph unicode="&#x201e;" glyph-name="quotedblbase" horiz-adv-x="441" d="M106 -167T90 -153Q87 -151 80 -146T68 -139Q70 -129 75 -121T86 -106Q94 -96 99 -87T108 -65Q114 -47 114 -36Q114 -25 109 -19T94 -8Q56 13 50 34Q45 57 45 82Q45 103 67 119T115
136Q181 136 190 61Q190 56 190 32T187 -16T177 -62Q156 -117 124 -163Q120 -167 115 -167Q106 -167 90 -153ZM307 -168T302 -165Q293 -159 287 -153T272 -134Q271 -125 274 -118T287 -100Q290 -96 297 -87T309 -66Q316 -49 316 -38Q316 -26 310 -20T290 -8Q252
13 246 34Q241 57 241 82Q241 103 263 119T311 136Q331 136 342 133T363 118T382 81Q392 45 392 14Q392 -17 380 -63Q355 -120 320 -163Q315 -168 311 -168Q307 -168 302 -165Z" />
<glyph unicode="&#x2022;" glyph-name="bullet" horiz-adv-x="289" d="M45 264T45 395Q46 431 75 454T143 477Q190 477 217 449T245 363Q245 304 218 284T147 264Q45 264 45 395Z" />
<glyph unicode="&#x2039;" glyph-name="guilsinglleft" horiz-adv-x="366" d="M197 74T187 95Q181 107 177 113Q173 117 168 129T155 152Q144 167 121 206Q117 215 89 247Q65 275 45 295Q32 308 9 338Q11 360 52 431Q95 502 101 519Q117 557 123 582Q126 600 135
608T156 617Q170 617 178 618L208 619Q213 619 242 619T292 614Q306 611 306 598Q306 586 295 569Q291 562 281 541T256 501Q251 495 238 475Q218 444 199 423L163 377L131 335Q146 308 159 291Q177 273 290 118L305 98Q316 88 316 81Q316 76 305 76L276 75L238
74H204Q197 74 187 95Z" />
<glyph unicode="&#x203a;" glyph-name="guilsinglright" horiz-adv-x="381" d="M167 75T138 75T88 80Q74 83 74 96Q74 108 85 125Q89 132 99 153T123 192Q128 198 141 218Q161 248 181 271L199 302Q215 327 229 359Q214 386 201 403Q183 421 70 576L55 596Q44
609 44 613Q44 618 55 618L84 619H131L176 620Q183 620 193 599Q199 587 203 581Q207 577 212 565T225 541Q237 526 259 488Q263 479 291 447Q327 405 334 398Q355 377 371 356Q369 333 327 263Q286 193 278 175Q262 132 257 112Q254 94 245 86T224 77Q210 77 202
76L172 75Q167 75 138 75Z" />
</font>
</defs>
</svg>
