<?xml version="1.0" standalone="no"?>
<!DOCTYPE svg PUBLIC "-//W3C//DTD SVG 1.1//EN" "http://www.w3.org/Graphics/SVG/1.1/DTD/svg11.dtd">
<svg xmlns="http://www.w3.org/2000/svg">
<defs >
<font id="Genos" horiz-adv-x="438" ><font-face
    font-family="Genos Thin"
    units-per-em="1000"
    panose-1="0 0 0 0 0 0 0 0 0 0"
    ascent="900"
    descent="-300"
    alphabetic="0" />
<glyph unicode=" " horiz-adv-x="257" />
<glyph unicode="!" horiz-adv-x="186" d="M82 154L65 464Q65 485 72 495T98 506H140L139 412L120 154H82ZM61 27Q61 46 73 51T101 56Q118 56 129 52T140 27Q140 14 135 8T121 1T101 -1Q90 -1 81 0T67 8T61 27Z" />
<glyph unicode="&quot;" horiz-adv-x="302" d="M40 343L86 485H127L79 343H40ZM151 343L193 485H238L186 343H151Z" />
<glyph unicode="#" horiz-adv-x="491" d="M294 111H190L178 -15H140L151 111L48 112L51 150H154L169 298L71 299L73 337H172L183 459H222L211 336H315L326 460H365L353 336H462L459 298H350L336 150L439 149L436 111H332L320 -15H283L294 111ZM193 150H298L312
298H207L193 150Z" />
<glyph unicode="$" horiz-adv-x="475" d="M59 -83Q69 -63 82 -36T109 18T133 63Q100 71 80 84T52 120T43 181Q58 181 72 181T102 181Q101 146 115 128T158 102T229 95Q255 95 279 97T323 107T355 132T367 181Q367 220 350 232T293 245Q262 245 231 245T168 245Q147
245 125 246T84 257T55 286T44 343Q44 400 70 425T142 458T246 465Q262 465 277 464T307 462Q322 490 336 518T365 575H396Q381 547 367 518T337 459Q373 456 393 442T422 403T430 341Q416 341 402 341T372 341Q372 374 360 392T320 418T247 426Q209 426 179 421T132
399T115 347Q115 311 133 300T185 289Q216 289 247 289T310 289Q343 289 372 284T421 257T440 182Q440 127 416 101T353 67T267 58Q242 57 217 58T163 59L90 -83H59Z" />
<glyph unicode="%" horiz-adv-x="592" d="M407 460L224 -5H173L356 460H407ZM535 104Q535 56 523 34T489 6T440 0Q413 0 392 7T361 36T350 104Q350 151 362 172T397 201T446 208Q474 208 494 201T524 171T535 104ZM494 104Q494 142 488 159T471 183T442 189Q426
189 415 183T398 160T392 104Q392 66 397 48T414 25T442 19Q459 19 470 24T488 48T494 104ZM242 356Q242 308 230 286T196 258T147 252Q120 252 100 259T68 287T57 356Q57 403 69 424T104 453T153 460Q180 460 200 453T231 423T242 356ZM202 356Q202 393 196 411T178
435T149 441Q134 441 123 435T105 411T98 356Q98 319 104 301T122 277T149 271Q166 271 177 276T195 300T202 356Z" />
<glyph unicode="&amp;" horiz-adv-x="561" d="M534 -5Q519 2 498 16T449 49Q439 28 420 18T372 2Q337 -4 294 -6T208 -6T135 0Q104 5 83 18T51 61T40 144Q40 173 47 200T70 247T108 271Q88 283 77 302T66 359Q66 393 79 413T114 444T162 457T215 462Q239 464 266
464T319 463T367 459Q389 457 407 453T436 438T447 401Q432 411 403 415T343 422T291 424Q270 424 244 423T194 414T154 391T138 346Q138 321 152 302T195 263L385 126V265Q407 265 422 263T447 253T458 232Q459 210 459 183T460 131T458 88L534 39V-5ZM161 241Q145
236 137 220T125 183T121 150Q121 91 136 68T184 38Q203 34 228 33T280 32T326 39Q339 42 351 46T372 59T384 83Q328 123 272 162T161 241Z" />
<glyph unicode="&apos;" horiz-adv-x="220" d="M70 345Q81 368 90 393T104 433Q103 433 101 433T97 433Q87 434 79 439T70 460Q70 474 75 479T91 487T114 489Q133 489 143 484T153 459Q153 442 145 419T127 376T110 345H70Z" />
<glyph unicode="(" horiz-adv-x="277" d="M238 493Q207 493 183 483T140 446T111 368T101 234Q101 153 111 102T139 23T182 -15T237 -26V-54Q188 -54 149 -44T82 -5T40 82T25 234Q25 327 40 384T82 472T149 514T238 525V493Z" />
<glyph unicode=")" horiz-adv-x="277" d="M25 525Q74 525 113 514T180 473T223 385T238 234Q238 139 224 82T182 -4T115 -44T26 -54V-26Q56 -26 81 -16T124 22T152 101T162 234Q162 317 152 368T124 446T81 483T25 493V525Z" />
<glyph unicode="*" horiz-adv-x="513" d="M370 82L269 243L167 82L121 115L244 261L59 306L76 360L253 289L240 479H296L283 290L460 361L477 307L294 261L416 115L370 82Z" />
<glyph unicode="+" horiz-adv-x="466" d="M198 -12V164H48V207H198V371H264V207H419V164H264V-12H198Z" />
<glyph unicode="," horiz-adv-x="194" d="M57 -88Q68 -65 77 -40T91 0Q90 0 88 0T84 0Q74 1 66 6T57 27Q57 41 62 46T78 54T101 56Q120 56 130 51T140 26Q140 9 132 -14T114 -57T97 -88H57Z" />
<glyph unicode="-" horiz-adv-x="324" d="M48 215H276V175H48V215Z" />
<glyph unicode="." horiz-adv-x="215" d="M83 27Q83 46 95 51T123 56Q140 56 151 52T162 27Q162 14 157 8T143 1T123 -1Q113 -1 104 0T89 8T83 27Z" />
<glyph unicode="/" horiz-adv-x="382" d="M44 -38L285 575H338L97 -38H44Z" />
<glyph unicode="0" horiz-adv-x="498" d="M242 -7Q198 -7 162 1T98 32T55 103T40 231Q40 313 57 361T104 432T173 462T255 469Q299 469 336 461T400 430T443 359T458 231Q458 149 441 101T394 30T325 0T242 -7ZM249 31Q280 31 304 38T346 65T373 125T383 230Q383
297 374 337T347 397T305 424T249 431Q218 431 194 424T152 397T126 337T117 230Q117 165 126 125T151 65T192 38T249 31Z" />
<glyph unicode="1" horiz-adv-x="284" d="M138 0V370Q138 402 128 412T99 422Q83 422 65 418T32 409V447Q54 452 82 456T137 461Q167 461 184 453T209 428T216 383V0H138Z" />
<glyph unicode="2" horiz-adv-x="484" d="M45 0Q45 24 45 47T45 95Q45 143 54 172T82 217T132 237T204 242Q226 242 244 242T284 242Q323 242 348 260T373 329Q373 372 355 390T304 413Q287 416 269 417T226 418Q197 418 166 416T113 406Q103 404 90 401T65 393T49
382Q49 386 49 393T49 408T49 415Q49 428 64 437T106 451T164 459T230 462Q290 462 338 455T413 420T441 328Q441 272 421 244T369 205T300 195Q281 195 261 195T217 195Q183 195 161 188T128 162T117 107V45H444V0H45Z" />
<glyph unicode="3" horiz-adv-x="473" d="M218 -6Q188 -6 155 -5T93 1T46 11Q33 15 28 23T23 43L24 64Q57 52 104 45T209 38Q257 38 289 45T339 73T356 132Q356 167 347 183T322 205T288 211H88V256H289Q316 256 331 273T346 330Q346 367 333 385T295 411T231
418Q224 418 217 418T200 418Q172 418 140 415T80 406T38 394V418Q38 431 45 437T69 449Q85 454 129 458T227 462Q305 462 346 450T403 410T419 332Q419 291 404 266T362 237V236Q395 236 412 213T430 130Q430 75 409 46T341 6T218 -6Z" />
<glyph unicode="4" horiz-adv-x="491" d="M321 0V104H14V145L297 432Q309 443 324 449T357 457T393 460Q392 459 392 451T391 434T391 422V147H457V104H391V0H321ZM95 147H320V393L318 389L100 151L95 147Z" />
<glyph unicode="5" horiz-adv-x="488" d="M447 144Q447 98 437 69T403 24T340 1T244 -6Q180 -6 131 -1T63 11Q53 14 48 18T41 30T40 52V66Q76 54 124 47T233 39Q279 39 312 47T364 79T382 146Q382 185 373 205T337 234T261 242Q234 243 204 243T144 240T92 236T56
231V460H439V416H119V280Q136 282 159 282T206 283T255 284T298 283Q361 281 393 268T436 224T447 144Z" />
<glyph unicode="6" horiz-adv-x="479" d="M237 -4Q172 -4 133 3T74 33T48 101T42 221Q42 297 49 344T76 415T132 449T225 460Q258 461 293 460T349 454Q373 451 384 445T406 431Q412 432 415 430T417 423T406 406Q386 410 359 412T301 416T239 417Q196 417 169
409T127 382T108 330Q108 322 107 308T105 281T104 264Q128 271 163 274T237 280T311 282Q340 281 364 276T405 258T432 219T442 151Q442 105 432 75T399 27T336 3T237 -4ZM237 38Q283 38 314 45T362 76T380 151Q380 184 371 203T342 230T292 241Q272 243 244 242T188
240T137 236T104 232Q104 225 104 206T104 165T106 129Q110 90 125 70T168 44T237 38Z" />
<glyph unicode="7" horiz-adv-x="425" d="M96 0L322 417H18V459H361Q387 459 395 446T390 409Q373 374 351 334T305 251T257 165T209 80T166 0H96Z" />
<glyph unicode="8" horiz-adv-x="485" d="M242 -4Q174 -4 133 2T72 24T45 66T38 131Q38 175 57 206T112 243Q84 245 67 273T50 345Q50 390 67 415T126 452T241 463Q299 463 336 457T395 437T425 401T434 345Q434 302 418 274T372 243Q411 239 429 207T447 131Q447
93 441 67T413 26T351 3T242 -4ZM219 38H264Q328 38 354 54T381 124Q381 165 372 185T337 213T264 220H219Q171 220 146 213T112 186T102 124Q102 71 128 55T219 38ZM241 264Q291 264 318 269T357 291T369 345Q369 374 359 391T320 416T241 424Q191 424 164 417T125
392T114 345Q114 309 125 292T165 269T241 264Z" />
<glyph unicode="9" horiz-adv-x="479" d="M53 52Q74 47 118 43T218 39Q277 39 308 46T354 74T373 132Q374 141 374 154T375 179T376 195Q363 193 346 191T308 186Q282 182 253 179T189 176Q110 176 74 204T37 308Q37 373 57 406T122 452T242 464Q312 464 351 455T409
422T433 354T438 240Q438 174 433 131T416 62T384 23T332 4Q305 0 273 -2T208 -4Q171 -4 139 -3T88 2Q70 4 61 12T52 36L53 52ZM376 231Q376 260 376 285T374 332Q371 369 357 388T314 415T239 423Q192 423 161 414T115 383T99 318Q99 278 110 257T146 228T216
220Q249 220 282 221T342 226T376 231Z" />
<glyph unicode=":" horiz-adv-x="195" d="M57 27Q57 46 69 51T98 56Q115 56 126 52T137 27Q137 14 132 8T117 1T97 -1Q87 -1 78 0T63 8T57 27ZM57 314Q57 327 62 333T76 341T97 343Q114 343 125 338T136 314Q136 301 131 295T116 288T97 286Q86 286 77 287T63
295T57 314Z" />
<glyph unicode=";" horiz-adv-x="208" d="M71 302Q71 315 76 321T90 329T111 331Q128 331 139 326T150 302Q150 289 145 283T131 276T111 274Q101 274 92 275T77 283T71 302ZM71 -88Q83 -65 91 -40T106 0Q104 0 103 0T99 0Q89 1 80 6T71 27Q71 41 77 46T93 54T116
56Q135 56 145 51T155 26Q155 9 147 -14T129 -57T112 -88H71Z" />
<glyph unicode="&lt;" horiz-adv-x="379" d="M340 86V38L62 200V231L340 398V346L122 216L340 86Z" />
<glyph unicode="=" horiz-adv-x="437" d="M48 287H390V246H48V287ZM48 155H390V115H48V155Z" />
<glyph unicode="&gt;" horiz-adv-x="379" d="M281 216L62 348V398L340 232V200L62 38V88L281 216Z" />
<glyph unicode="?" horiz-adv-x="412" d="M125 118H94Q94 128 93 143T90 176T87 208T85 235Q94 235 108 235T137 234T162 234Q235 236 267 255T299 333Q299 384 274 404T176 424H111Q100 424 88 423T66 421T48 419T40 418Q40 421 40 425T40 434T43 443T49 448Q54
455 71 457T107 459Q121 460 142 460T185 460T223 459Q273 459 306 449T355 413T372 333Q372 285 354 258T304 220T227 206T131 203L125 118ZM76 27Q76 46 88 51T117 56Q134 56 144 52T155 27Q155 14 150 8T136 1T116 -1Q105 -1 96 0T82 8T76 27Z" />
<glyph unicode="@" horiz-adv-x="774" d="M379 441Q302 441 250 432T167 398T123 327T109 207Q109 134 124 92T172 27T253 -2T368 -9Q416 -9 466 -5T562 6T646 24T706 46Q706 36 706 27T706 6Q676 -4 631 -14T531 -32T420 -40Q386 -40 350 -40T280 -38T214 -28T158
-8T118 26Q93 52 81 95T68 205Q68 293 86 346T141 426T237 462T377 471Q451 471 508 466T604 441T663 381T685 268Q686 238 683 207T668 149T635 106T573 89Q549 89 532 95T506 112T493 139Q486 125 472 114T439 97Q420 91 396 89T346 86Q297 86 266 96T219 134T204
217Q204 277 224 304T286 338T389 345Q408 344 430 343T474 341T512 338T535 336Q534 333 534 320T533 290Q533 256 533 222T533 153Q533 130 546 124T576 118Q605 118 619 137T639 191T645 267Q645 330 626 365T571 416T487 437T379 441ZM476 306Q470 306 453
307T414 309T373 311Q331 311 307 304T273 277T263 222Q263 180 271 159T303 130T367 122Q381 122 400 124T436 135T464 162T476 212V306Z" />
<glyph unicode="A" horiz-adv-x="514" d="M17 0L150 393Q162 427 183 445T255 464Q301 464 323 447T358 393L494 0H411L368 127H118L77 0H17ZM131 162H354L288 363Q283 378 275 389T243 401Q216 401 208 389T195 363L131 162Z" />
<glyph unicode="B" horiz-adv-x="593" d="M336 -2Q267 -2 217 -2T133 -2T78 0V414Q78 443 90 451T125 460Q149 460 170 460T209 461T245 462T283 462Q306 462 330 462T376 461T411 459Q467 455 492 428T518 348Q518 309 506 286T474 252T437 240Q455 240 472 237T504
222T528 188T537 127Q537 81 520 55T475 16T411 1T336 -2ZM316 38Q343 38 368 40T414 50T447 77T459 130Q459 179 438 197T353 216H197Q184 216 180 226T176 256H350Q374 256 394 262T428 287T441 345Q441 380 425 399T373 422Q353 424 329 424T282 425Q252 425
226 425T181 424Q170 424 163 418T155 396V40Q162 40 173 40T202 39T247 38T316 38Z" />
<glyph unicode="C" horiz-adv-x="531" d="M45 230Q45 301 59 347T106 419T188 455T311 465Q348 465 382 463T453 454Q483 449 491 441T500 417V392Q481 401 447 407T377 417T313 420Q243 420 202 404T142 346T124 230Q124 155 141 114T200 55T318 38Q345 38 379
41T445 50T500 64V41Q500 28 491 19T451 5Q416 -2 381 -4T309 -7Q235 -7 184 3T103 39T59 111T45 230Z" />
<glyph unicode="D" horiz-adv-x="601" d="M556 226Q556 144 538 98T487 30T405 4T295 -2Q266 -2 235 -2T173 -1T118 -1T78 0V396Q78 428 86 443T131 460Q147 461 173 461T228 461T286 462T333 461Q388 459 429 452T499 422T542 353T556 226ZM155 43Q162 43 180
43T221 42T263 42T295 41Q346 41 381 48T437 74T468 130T478 226Q478 306 462 347T407 404T299 419Q285 419 260 419T209 419T170 416Q163 412 159 406T155 380V43Z" />
<glyph unicode="E" horiz-adv-x="545" d="M83 0V428Q83 446 88 453T110 460H507V416H160V263H478V219H160V44H507V0H83Z" />
<glyph unicode="F" horiz-adv-x="539" d="M83 0V425Q83 438 84 445T91 456T110 460H507V416H160V263H478V219H160V0H83Z" />
<glyph unicode="G" horiz-adv-x="565" d="M291 -7Q222 -7 175 4T100 42T58 115T45 229Q45 304 62 350T111 422T191 456T299 466Q349 466 391 464T465 454Q485 451 494 445T506 432T509 416V396Q502 402 484 406T443 413T394 418T347 421T309 422Q239 422 199 405T142
347T124 229Q124 156 139 114T192 55T294 37Q352 37 386 48T436 90T453 177Q454 190 454 199T453 214H264Q264 232 266 241T277 254T304 258H528V179Q528 125 516 90T476 33T403 2T291 -7Z" />
<glyph unicode="H" horiz-adv-x="623" d="M83 0V431Q83 450 89 455T112 460H160V260H463V460H540V31Q540 12 535 6T511 0H463V215H160V0H83Z" />
<glyph unicode="I" horiz-adv-x="243" d="M83 0Q83 107 83 214T83 428Q83 439 84 445T91 456T110 460H160V0H83Z" />
<glyph unicode="J" horiz-adv-x="294" d="M216 149Q216 130 216 104T213 60Q210 42 199 28T170 6T126 -2Q112 -3 98 -3T68 -1T35 3V51Q42 48 59 45T86 42Q114 42 126 54T139 93V460H188Q202 460 208 456T215 445T216 427V149Z" />
<glyph unicode="K" horiz-adv-x="523" d="M457 -5Q442 -5 429 -1T403 13Q397 19 383 35T350 71T312 113T278 152T256 177Q245 189 237 194T212 203L159 205V0H83V432Q83 442 84 448T91 457T109 460Q122 460 134 460T159 460Q159 446 159 420T159 364T159 308T159
267L212 270Q226 271 233 276T249 291Q271 315 295 341T346 394T395 446Q407 455 420 459T450 463Q464 463 473 461T491 456Q489 455 478 443T451 415T425 387Q399 363 370 337T315 286T265 238L268 254Q282 243 307 218T366 158T435 85T505 14Q503 11 496 7T480
-1T457 -5Z" />
<glyph unicode="L" horiz-adv-x="477" d="M159 460V44H466V0H83V427Q83 438 84 445T91 456T110 460H159Z" />
<glyph unicode="M" horiz-adv-x="682" d="M83 0V421Q83 448 88 454T116 460H171L336 93L338 86L340 89L342 96L507 460H565Q586 460 592 456T599 430V31Q599 17 597 11T588 3T568 0H521V376L517 362L354 0H302L142 355L139 369V0H83Z" />
<glyph unicode="N" horiz-adv-x="624" d="M83 0V419Q83 446 87 453T114 460H181L479 79L482 77V460H541Q540 459 539 453T538 439T538 424V38Q538 12 532 6T504 0H442L141 384L140 388V0H83Z" />
<glyph unicode="O" horiz-adv-x="599" d="M296 -7Q236 -7 190 2T112 35T62 107T45 231Q45 309 63 356T116 428T197 460T304 468Q363 468 409 460T487 427T537 355T554 231Q554 152 536 105T484 34T403 1T296 -7ZM299 36Q341 36 374 43T429 71T463 129T475 231Q475
293 464 331T430 390T374 418T299 425Q256 425 224 418T169 391T136 332T124 231Q124 168 135 130T169 71T223 44T299 36Z" />
<glyph unicode="P" horiz-adv-x="560" d="M78 0Q78 101 78 202T78 403Q78 437 90 448T132 460Q171 461 218 461T313 461T397 459Q438 457 466 443T509 400T524 327Q524 277 507 244T458 196T382 181Q332 181 280 181T175 181Q175 198 175 207T179 220T192 224Q208
224 236 224T297 224T355 224Q379 224 399 233T432 265T445 328Q445 367 429 389T376 414Q345 417 307 417T236 418T179 416Q174 416 165 412T155 392Q155 294 155 197T155 0H78Z" />
<glyph unicode="Q" horiz-adv-x="600" d="M296 -7Q236 -7 190 2T112 35T62 107T45 231Q45 309 63 356T116 428T197 460T304 468Q363 468 409 460T487 427T537 355T554 231Q554 152 536 105T484 34T403 1T296 -7ZM299 36Q341 36 374 43T429 71T463 129T475 231Q475
293 464 331T430 390T374 418T299 425Q256 425 224 418T169 391T136 332T124 231Q124 168 135 130T169 71T223 44T299 36ZM491 -80Q480 -80 468 -74T443 -54Q434 -45 417 -25T380 19T338 68T300 112T273 141Q277 149 283 152T296 155Q306 155 314 150T334 133Q344
124 361 105T400 62T443 14T487 -30T525 -60Q519 -70 511 -75T491 -80Z" />
<glyph unicode="R" horiz-adv-x="597" d="M362 189Q362 189 334 189T259 189T155 188V0H78V408Q78 437 90 448T132 460Q147 461 171 461T226 461T287 462T348 462T401 461T437 459Q489 454 513 425T537 337Q537 291 525 264T487 224Q484 221 478 220T464 218V216Q468
216 473 216T481 216Q519 209 527 186T535 138V24Q535 14 537 8T540 0H486Q472 0 464 5T456 29V135Q456 166 443 177T395 189H362ZM155 231Q169 231 199 231T264 230T330 230T374 230Q407 230 432 250T458 327Q458 365 444 387T397 414Q376 417 345 417T281 418T220
417T178 416Q175 416 165 413T155 392V231Z" />
<glyph unicode="S" horiz-adv-x="548" d="M52 70Q73 56 106 50T176 42T240 40Q250 40 263 40T286 41Q326 42 356 50T403 79T420 138Q420 184 396 198T326 212Q311 212 294 212T258 212T214 212Q186 212 157 214T104 227T66 260T52 325Q52 374 69 402T119 443T192
460T281 464Q309 464 344 463T411 458T461 444Q477 442 485 434T494 414Q494 410 494 405T494 394T494 387Q485 397 464 403T417 412T365 417T324 419H265Q229 419 198 413T149 389T130 330Q130 299 142 284T178 265T233 260Q272 260 302 260T351 260Q395 260 429
253T482 220T501 140Q501 87 478 56T414 12T321 -4Q296 -5 273 -5T225 -5Q202 -5 172 -3T115 3T70 17T52 43V70Z" />
<glyph unicode="T" horiz-adv-x="499" d="M22 460H477V415H288V33Q288 14 284 7T261 0H212V415H22V460Z" />
<glyph unicode="U" horiz-adv-x="588" d="M515 197Q515 154 511 118T487 54T421 12T292 -3Q226 -3 185 6T121 34T88 76T76 129T73 191V420Q73 436 74 445T82 457T103 460H150V157Q150 112 164 88T210 53T292 43Q370 43 404 69T439 157V460H484Q499 460 506 457T514
445T515 420V197Z" />
<glyph unicode="V" horiz-adv-x="493" d="M243 0Q205 0 185 18T152 75L22 460H104L215 107Q223 83 236 74T263 65H278L409 460H468L306 0H243Z" />
<glyph unicode="W" horiz-adv-x="708" d="M189 0Q161 0 142 5T113 28T97 81L42 460H114L163 108Q168 81 176 72T206 63H235L321 460H396L487 63H518Q535 63 544 70T556 94L601 460H658L606 77Q602 42 590 26T557 5T503 0H439L363 338L355 374L348 337L276 0H189Z" />
<glyph unicode="X" horiz-adv-x="499" d="M413 0Q402 0 393 2T377 9T361 24L215 209L18 461H118L266 263L446 43Q459 27 467 17T482 0H413ZM55 0H10Q20 9 30 20T49 41L222 249L397 461H469L264 216L104 21Q96 11 85 6T55 0Z" />
<glyph unicode="Y" horiz-adv-x="476" d="M199 0V187L30 435L12 460H114L254 241L396 460H466L444 432L275 187V35Q276 22 273 15T263 4T241 0H199Z" />
<glyph unicode="Z" horiz-adv-x="479" d="M123 45H458Q458 29 457 20T452 7T440 1T415 0H20V48Q21 48 37 66T80 114T139 181T206 256T269 327T320 384Q331 395 339 403T350 415H38Q38 432 39 441T46 455T68 460H452Q452 459 452 451T449 431T439 405T419 379L133
52L123 45Z" />
<glyph unicode="[" horiz-adv-x="283" d="M118 -23Q118 -47 129 -57T169 -67H207V-97Q201 -97 188 -97T158 -97T123 -97T88 -98T58 -98T39 -98V534H207V504H169Q140 504 129 494T118 459V-23Z" />
<glyph unicode="\" horiz-adv-x="394" d="M131 412L225 126H251L156 412H131Z" />
<glyph unicode="]" horiz-adv-x="283" d="M127 459Q127 483 117 493T77 504H39V534H207V-98L39 -97V-67H77Q106 -67 116 -57T127 -23V459Z" />
<glyph unicode="^" horiz-adv-x="346" d="M74 229H40L153 460H192L306 229H268L173 420L74 229Z" />
<glyph unicode="_" horiz-adv-x="772" d="M40 -141H732V-181H40V-141Z" />
<glyph unicode="`" horiz-adv-x="148" d="M371 460L256 546L292 573L405 460H371Z" />
<glyph unicode="a" horiz-adv-x="483" d="M230 -7Q171 -7 134 -1T78 19T51 58T43 117Q43 168 55 195T97 232T177 242Q202 242 231 241T288 238T336 234T364 229Q364 275 356 302T332 342T291 359T234 363Q201 363 168 361T106 353T63 338V353Q63 374 75 382T104
394Q123 399 159 402T236 404Q287 404 323 399T384 378T420 328T432 238V32Q426 12 379 3T230 -7ZM230 27Q276 27 303 30T345 38T364 51V200Q355 203 331 206T279 211T233 214Q190 214 164 209T126 184T114 122Q114 89 122 68T154 37T230 27Z" />
<glyph unicode="b" horiz-adv-x="489" d="M240 -3Q184 -3 148 3T92 30T66 89T59 193L58 505H127V395Q130 395 146 396T184 397T227 399T262 400Q332 400 371 381T427 318T445 200Q445 127 431 86T390 25T325 2T240 -3ZM241 38Q293 38 321 49T362 96T375 203Q374
261 362 294T322 343T251 359Q237 359 218 359T180 357T146 356T128 355V185Q128 137 131 108T146 64T180 44T241 38Z" />
<glyph unicode="c" horiz-adv-x="435" d="M261 -6Q183 -6 135 10T66 69T44 197Q44 282 65 327T135 388T261 405Q287 405 309 403T361 396Q377 394 387 389T401 374T405 346Q394 352 371 356T321 362T275 365Q215 365 180 350T131 299T116 201Q116 139 130 103T179
51T275 36Q303 36 328 38T373 45T405 56V34Q405 19 387 11T336 -2T261 -6Z" />
<glyph unicode="d" horiz-adv-x="480" d="M44 202Q44 283 65 326T128 385T228 401Q245 401 268 400T316 397T358 391T383 385L362 375V505H431L430 201Q430 133 421 93T391 32T331 5T234 -2Q180 -2 143 5T85 33T54 94T44 202ZM228 38Q273 38 299 43T340 65T358
112T362 191V353Q351 354 331 355T288 357T249 358Q201 358 171 346T128 299T114 199Q114 130 124 96T160 50T228 38Z" />
<glyph unicode="e" horiz-adv-x="465" d="M249 -6Q191 -6 152 2T89 32T55 93T44 196Q44 268 62 314T126 382T255 404Q319 404 357 387T413 335T431 244V187H149Q149 199 155 207T177 216H368L367 245Q366 307 341 335T252 363Q199 363 169 347T127 295T115 197Q115
131 128 97T174 50T261 37Q280 37 304 38T354 42T398 47T426 55V43Q426 33 421 24T398 9Q376 0 339 -3T249 -6Z" />
<glyph unicode="f" horiz-adv-x="287" d="M38 352H71V411Q71 458 89 482T159 506Q183 506 204 505T243 501T274 498V457Q267 460 254 461T226 464T194 465Q161 465 151 452T140 404V352H254V313H140V0H96Q81 0 76 6T71 27V313H38V352Z" />
<glyph unicode="g" horiz-adv-x="488" d="M230 -114Q208 -114 181 -113T128 -107T87 -94T70 -72Q70 -68 70 -62T70 -54Q84 -61 110 -67T167 -76T219 -79Q277 -79 309 -62T352 -6T361 99H376Q366 65 342 47T285 22T214 15Q156 15 118 28T62 82T44 202Q44 266 55
305T92 366T157 394T256 402Q278 402 305 400T359 397T406 393T434 389Q433 386 432 373T431 342T431 308V71Q431 1 411 -39T346 -97T230 -114ZM230 57Q267 57 296 65T343 93T361 146V352Q352 354 320 357T246 361Q197 361 169 349T129 304T116 210Q116 148 127
115T163 69T230 57Z" />
<glyph unicode="h" horiz-adv-x="483" d="M89 0Q69 0 65 6T60 31V504H130V385Q141 390 162 392T207 397T251 399Q311 399 347 388T400 355T422 302T428 230V39Q428 22 426 14T416 3T395 0H360V246Q360 294 347 319T306 353T240 362Q225 362 204 361T162 356T130
348V0H89Z" />
<glyph unicode="i" horiz-adv-x="215" d="M140 -4Q93 -4 77 21T61 94V399H131V98Q131 57 140 43T172 29Q180 29 192 31T207 34V3Q204 2 196 1T174 -2T140 -4ZM97 457Q80 457 70 462T60 483Q60 499 69 504T96 509Q115 509 124 504T132 483Q132 467 123 462T97 457Z" />
<glyph unicode="j" horiz-adv-x="194" d="M45 -90Q21 -90 2 -88T-23 -85V-54Q-18 -55 -3 -56T22 -58Q52 -58 59 -43T66 12V370Q66 381 68 387T76 396T94 399H136V8Q136 -28 129 -49T103 -80T45 -90ZM103 457Q86 457 76 462T66 483Q66 499 75 504T102 509Q121 509
130 504T138 483Q138 467 129 462T103 457Z" />
<glyph unicode="k" d="M60 0V478Q60 494 65 500T87 506H130V184L316 381Q326 391 336 395T366 401Q381 401 393 401T415 399Q412 396 404 390T387 376T369 361L239 230L411 37Q420 26 429 17T448 0Q429 -1 411 -1T377 -1Q360 -1 351 4T331 20L190 179L130 123V0H60Z" />
<glyph unicode="l" horiz-adv-x="213" d="M144 -4Q98 -4 78 16T58 90V472Q58 484 60 491T68 502T87 505H129Q129 504 128 492T127 462V101Q127 63 135 46T169 29Q176 29 188 31T204 34V3Q198 2 185 -1T144 -4Z" />
<glyph unicode="m" horiz-adv-x="688" d="M90 0Q72 0 66 5T60 29V370Q68 373 83 378T119 388T167 397T228 401Q262 401 287 396T330 377T360 340H346Q354 357 369 369T404 389T445 399T487 402Q543 402 575 391T620 354T634 285V27Q634 11 628 6T606 0H564Q564
72 564 143T564 287Q564 331 543 347T479 364Q459 364 437 359T398 344T382 321V0H312V313Q312 334 288 348T225 363Q202 363 181 360T146 350T130 332V0H90Z" />
<glyph unicode="n" horiz-adv-x="481" d="M83 0Q60 0 60 24V370Q89 383 136 393T246 403Q304 403 340 395T395 371T420 330T427 268V30Q427 19 425 12T416 3T396 0H357V282Q357 322 331 341T246 360Q227 360 205 357T162 349T129 334V0H83Z" />
<glyph unicode="o" horiz-adv-x="486" d="M244 -6Q198 -6 162 1T99 29T58 91T44 199Q44 266 58 307T98 369T161 397T244 404Q289 404 325 397T388 369T428 307T442 199Q442 131 428 90T388 29T326 1T244 -6ZM244 33Q284 33 312 45T356 92T371 199Q371 271 356
306T313 353T244 365Q204 365 176 353T132 306T116 199Q116 127 131 92T175 45T244 33Z" />
<glyph unicode="p" horiz-adv-x="494" d="M61 -107L62 315Q62 343 62 363T60 390Q67 392 88 394T136 397T191 400T243 402Q324 402 369 381T434 313T449 194Q447 122 430 79T375 16T271 -4Q231 -4 199 4T146 31T120 88L132 99V-107H61ZM257 38Q319 38 349 75T379
200Q381 289 351 325T243 361Q228 361 206 360T163 358T132 354V154Q132 107 147 82T191 48T257 38Z" />
<glyph unicode="q" horiz-adv-x="486" d="M362 -107V3Q353 2 337 2T301 0T262 -1T228 -2Q164 -2 124 13T64 70T44 193Q44 258 54 298T86 360T147 392T244 401Q270 401 301 401T362 400T411 399T435 401Q433 394 433 382T432 348V-107H362ZM242 38Q254 38 273 39T311
41T345 43T362 44V358Q350 358 325 359T247 360Q195 360 166 348T126 299T114 192Q114 133 128 100T170 52T242 38Z" />
<glyph unicode="r" horiz-adv-x="391" d="M130 0H86Q73 0 67 6T60 31V379Q82 386 120 394T216 402Q270 402 301 395T347 374T366 343T371 301H304L303 315Q302 338 288 348T255 361T217 364Q188 364 166 359T130 346V0Z" />
<glyph unicode="s" horiz-adv-x="450" d="M200 -4Q183 -4 158 -3T106 1T58 12Q48 16 42 20T34 34T31 64Q53 53 83 47T143 38T193 36Q223 36 251 38T303 49T339 75T353 120Q353 161 332 172T275 184H174Q137 184 105 188T52 213T31 283Q31 336 57 362T130 396T241
404Q264 404 296 403T357 397Q377 394 390 390T410 377T417 354V334Q408 344 387 350T339 359T282 362T228 363Q196 363 166 359T118 340T99 287Q99 259 111 246T143 230T190 226H293Q331 226 360 220T406 191T423 120Q423 67 394 40T315 5T200 -4Z" />
<glyph unicode="t" horiz-adv-x="254" d="M160 -3Q126 -3 107 5T79 35T70 92V360H32V399H70V471Q70 486 72 493T81 503T98 505H141Q141 503 141 497T140 478V399H233V360H140V100Q140 61 148 45T184 29Q195 29 207 31T224 35V4Q218 3 201 0T160 -3Z" />
<glyph unicode="u" horiz-adv-x="476" d="M121 399V128Q121 78 149 58T237 37Q300 37 327 58T355 128V399Q356 399 361 399T373 399T386 399T394 399Q406 399 413 398T422 390T425 370V141Q425 91 410 59T354 11T236 -5Q166 -5 126 8T68 52T51 136V370Q51 387
56 393T78 399Q89 399 99 399T121 399Z" />
<glyph unicode="v" horiz-adv-x="379" d="M187 0Q170 0 158 4T138 20T122 50L4 399H77L165 113Q173 88 183 80T222 71Q246 148 267 225T312 378Q315 388 321 393T340 399H367L238 0H187Z" />
<glyph unicode="w" horiz-adv-x="675" d="M202 -3Q150 -3 117 5T67 41T51 125V362Q51 384 56 391T79 399H121V122Q121 71 142 55T211 39Q260 39 281 56T303 107L302 399H373V106Q373 73 394 56T465 39Q512 39 533 55T555 122V399H595Q615 399 619 392T624 362V125Q624
70 608 43T559 6T471 -3Q415 -3 378 14T332 79H344Q338 48 321 30T274 4T202 -3Z" />
<glyph unicode="x" horiz-adv-x="401" d="M7 0L159 198L33 368Q26 379 21 387T8 400H98L211 248L327 399H383Q379 395 375 390T366 378L242 208L396 0H339Q323 0 311 5T289 24L186 160L63 0H7Z" />
<glyph unicode="y" horiz-adv-x="471" d="M230 -111Q185 -111 145 -107T80 -93T55 -73V-48Q71 -57 97 -63T154 -72T212 -76Q260 -76 290 -63T336 -21T352 52V106Q343 86 323 72T274 52T205 46Q134 46 101 66T58 123T48 209V360Q48 375 49 383T56 395T75 399H119Q119
373 119 350T119 304T119 258T119 209Q119 152 134 125T176 91T235 84Q267 84 293 92T335 126T351 201V399H394Q409 399 415 395T422 369V60Q422 -29 376 -70T230 -111Z" />
<glyph unicode="z" horiz-adv-x="399" d="M102 41H379L382 26Q386 12 379 6T354 0H16V40L284 358H30V374Q30 386 36 392T53 399H377Q378 388 374 377T362 353T341 327L102 41Z" />
<glyph unicode="{" horiz-adv-x="325" d="M174 65Q174 21 191 6T240 -10Q247 -10 261 -10T285 -10Q285 -12 285 -18T285 -29T285 -38Q223 -38 186 -36T129 -21T103 21T96 104Q96 161 91 186T74 219T40 226Q40 228 40 233T40 244T40 252Q63 252 75 260T91 296T96
380Q96 433 104 462T133 504T191 519T285 522Q285 520 285 514T285 503T285 494H238Q207 494 191 481T174 419V361Q174 315 165 289T142 252T116 240Q128 239 141 229T164 197T174 133V65Z" />
<glyph unicode="|" horiz-adv-x="174" d="M120 460V-159H54V460H120Z" />
<glyph unicode="}" horiz-adv-x="325" d="M151 65V133Q151 174 161 196T184 229T211 240Q199 241 185 252T161 289T151 361V419Q151 467 135 480T87 494H40Q40 497 40 502T40 514T40 522Q97 522 134 520T191 505T220 463T228 380Q228 324 233 297T250 261T285
252Q285 250 285 245T285 234T285 226Q264 226 252 219T234 187T228 104Q228 51 222 22T197 -20T141 -35T40 -38Q40 -35 40 -30T40 -18T40 -10Q49 -10 63 -10T85 -10Q117 -10 134 5T151 65Z" />
<glyph unicode="~" horiz-adv-x="377" d="M45 490Q45 490 50 499T66 520T90 541T121 551Q137 552 154 547T188 533T221 520T253 514Q271 515 283 524T302 543T313 558L330 539Q330 539 325 530T311 509T287 488T255 478Q238 477 221 482T187 496T154 510T121 515Q105
515 93 506T74 487T62 472L45 490Z" />
<glyph unicode="&#xa0;" horiz-adv-x="257" />
<glyph unicode="&#xa1;" horiz-adv-x="187" d="M112 229L129 -81Q130 -102 123 -112T97 -123H54L56 -29L75 229H112ZM134 356Q134 337 122 332T93 327Q77 327 66 332T55 356Q55 370 60 375T74 382T94 384Q104 384 113 383T128 376T134 356Z" />
<glyph unicode="&#xa2;" horiz-adv-x="478" d="M255 53Q200 53 160 63T95 97T57 159T44 256Q44 321 62 367T125 439T253 464Q311 464 348 456T408 430T438 385T447 319H389Q390 382 358 406T258 431Q203 431 171 411T125 352T111 257Q112 188 129 152T180 102T259
88Q301 88 329 96T373 129T389 199H448Q448 154 437 126T401 81T341 59T255 53ZM123 0L346 523H374L153 0H123Z" />
<glyph unicode="&#xa3;" horiz-adv-x="493" d="M46 219H103V366Q103 427 124 459T187 503T288 515Q378 515 419 483T461 392V354H397V396Q397 431 382 451T343 479T290 487Q262 487 236 480T192 447T174 367V219H276V195H175V150Q175 120 170 96T158 58T145 40H460V0H46V28Q64
28 76 42T96 87T103 170V195H46V219Z" />
<glyph unicode="&#xa4;" horiz-adv-x="487" d="M363 469Q385 446 392 408T393 330T369 265L434 187H408L335 239Q312 230 279 227T212 227T152 240L78 187H52L118 268Q102 293 97 329T98 403T124 465L52 555H78L162 491Q198 504 240 504T325 493L408 555H434L363
469ZM130 364Q130 315 145 291T187 260T247 252Q280 252 304 259T343 291T358 364Q358 413 344 437T305 468T247 476Q214 476 188 469T146 438T130 364Z" />
<glyph unicode="&#xa5;" horiz-adv-x="476" d="M199 0V187L30 435L12 460H114L254 241L396 460H466L444 432L275 187V35Q276 22 273 15T263 4T241 0H199ZM100 168H373V146H100V168ZM100 366H373V344H100V366Z" />
<glyph unicode="&#xa6;" horiz-adv-x="179" d="M111 93V-159H45V93H111ZM111 460V208H45V460H111Z" />
<glyph unicode="&#xa7;" horiz-adv-x="533" d="M65 -100Q77 -108 95 -113T136 -120T179 -124T215 -125Q257 -125 288 -122T342 -111T376 -84T387 -37Q387 6 363 17T289 29Q267 29 242 29T193 29Q171 29 148 32T106 45T75 77T63 136Q63 194 91 220T167 256Q146
264 134 285T121 348Q121 389 139 412T187 447T257 462T337 465Q363 465 393 464T450 458T494 442T511 411Q511 404 511 400T511 391Q501 403 482 409T440 419T396 422T361 423Q320 423 289 421T236 412T204 389T193 344Q193 315 205 302T242 285T307 281Q329 281
350 281T393 281Q430 281 459 274T503 244T519 175Q519 132 504 106T463 68T407 56Q437 54 456 30T475 -39Q475 -92 446 -118T365 -154T243 -164Q232 -164 212 -163T166 -160T119 -154T83 -143T67 -125Q66 -118 66 -110T65 -100ZM362 77Q401 77 423 103T445 163Q445
189 432 210T384 232L282 233Q275 233 262 233T239 233T229 233Q177 229 156 205T134 154Q132 113 150 95T208 77H362Z" />
<glyph unicode="&#xa8;" horiz-adv-x="389" d="M174 459Q161 459 151 463T140 487Q140 505 151 508T174 512Q187 512 197 508T208 487Q208 468 199 464T174 459ZM34 459Q20 459 10 463T0 487Q0 505 10 508T34 512Q47 512 57 508T68 487Q68 469 58 464T34 459Z" />
<glyph unicode="&#xa9;" horiz-adv-x="578" d="M30 244Q30 316 64 369T158 452T288 482Q360 482 418 453T512 370T547 244Q547 173 512 117T419 28T288 -5Q217 -5 158 27T65 116T30 244ZM58 244Q58 180 89 130T172 50T288 21Q351 21 403 50T486 129T517 244Q517
309 486 356T403 429T288 455Q224 455 172 429T89 356T58 244ZM288 374Q322 374 348 369T389 348T404 296Q404 293 404 290T404 284H373Q373 306 368 320T352 341Q341 351 325 354T287 357Q261 357 242 349T212 325Q202 311 198 290T193 245Q193 220 198 200T217
164Q237 136 286 136Q308 136 325 139T353 152Q363 159 368 170T373 198Q373 201 373 203T373 208H405Q405 205 405 202T405 195Q405 161 389 145T346 123T286 118Q239 118 211 130T169 170T156 243Q156 285 168 314T209 358T288 374Z" />
<glyph unicode="&#xaa;" horiz-adv-x="483" d="M230 -7Q171 -7 134 -1T78 19T51 58T43 117Q43 168 55 195T97 232T177 242Q202 242 231 241T288 238T336 234T364 229Q364 275 356 302T332 342T291 359T234 363Q201 363 168 361T106 353T63 338V353Q63 374 75 382T104
394Q123 399 159 402T236 404Q287 404 323 399T384 378T420 328T432 238V32Q426 12 379 3T230 -7ZM230 27Q276 27 303 30T345 38T364 51V200Q355 203 331 206T279 211T233 214Q190 214 164 209T126 184T114 122Q114 89 122 68T154 37T230 27Z" />
<glyph unicode="&#xab;" horiz-adv-x="386" d="M92 264L184 78H142L40 264L142 451H183L92 264ZM246 264L338 78H296L194 264L296 451H337L246 264Z" />
<glyph unicode="&#xac;" horiz-adv-x="553" d="M472 270H40V325H507V121H472V270Z" />
<glyph unicode="&#xad;" horiz-adv-x="324" d="M48 215H276V175H48V215Z" />
<glyph unicode="&#xae;" horiz-adv-x="400" d="M75 435Q75 399 93 369T140 321T206 302Q243 302 273 320T320 369T337 435Q337 472 320 501T273 549T206 567Q170 567 141 549T93 502T75 435ZM50 435Q50 478 71 513T127 570T206 591Q250 591 285 570T341 514T362
435Q362 392 341 357T285 300T206 279Q163 279 128 300T71 356T50 435ZM242 426Q242 426 233 426T206 427T169 426V357H147V503Q147 513 151 516T165 520Q170 520 178 520T195 521T215 521T234 521T251 521T264 520Q281 518 289 508T297 477Q297 461 293 452T280
437Q278 436 276 436T273 436V435Q273 435 275 435T278 434Q290 432 293 424T296 407V365Q296 363 296 360T298 357H283Q278 357 276 359T274 367V407Q274 418 270 422T254 426H242ZM169 439Q174 439 184 439T207 439T229 439T245 439Q256 439 265 446T274 474Q274
488 270 496T253 506Q246 507 235 507T213 508T192 508T177 507Q176 507 173 506T169 499V439Z" />
<glyph unicode="&#xaf;" horiz-adv-x="315" d="M3 461V494H225V461H3Z" />
<glyph unicode="&#xb0;" horiz-adv-x="301" d="M42 506Q42 546 57 572T98 610T154 622Q184 622 208 610T247 572T261 506Q261 466 247 439T208 398T152 384Q121 384 96 397T57 438T42 506ZM89 507Q89 470 107 452T151 433Q178 433 195 451T213 507Q213 541 196
558T152 575Q126 575 108 559T89 507Z" />
<glyph unicode="&#xb1;" horiz-adv-x="473" d="M66 41H406V0H66V41ZM65 313H215V459H252V313H405V269H252V118H215V269H65V313Z" />
<glyph unicode="&#xb2;" horiz-adv-x="273" d="M20 255Q20 269 20 283T20 312Q20 352 29 371T57 396T111 403Q124 403 134 403T157 403Q177 403 190 413T204 452Q204 479 194 488T168 500Q157 501 148 502T123 503Q105 503 89 501T61 496Q55 495 48 493T33 489T23
482V505Q23 516 38 522T77 532T128 535Q164 535 192 530T235 508T251 453Q251 418 240 401T209 378T168 372Q159 372 148 372T122 372Q96 372 84 362T71 322V287H253V255H20Z" />
<glyph unicode="&#xb3;" horiz-adv-x="268" d="M126 251Q101 251 73 253T28 262Q21 264 17 269T13 283V299Q34 292 60 288T119 284Q158 284 177 294T197 337Q197 366 186 373T161 381H49V410H161Q176 410 184 420T192 453Q192 483 176 492T131 501Q127 501 123
501T114 501Q98 501 80 499T46 494T21 488V505Q21 515 25 519T39 526Q51 530 75 532T131 535Q176 535 199 528T232 503T242 455Q242 432 234 417T211 399V398Q231 398 240 383T249 335Q249 302 237 284T197 258T126 251Z" />
<glyph unicode="&#xb4;" horiz-adv-x="233" d="M2 460L114 573L151 546L35 460H2Z" />
<glyph unicode="&#xb5;" horiz-adv-x="471" d="M231 -2Q188 -2 157 10T114 44Q114 13 114 -3T114 -36T114 -83Q114 -90 114 -99T114 -117T114 -134T115 -149Q103 -149 92 -149T69 -149Q56 -149 50 -141T44 -116Q44 -29 44 46T44 197T44 360Q44 380 48 388T61 398T82
399Q82 399 87 399T98 399T110 399T115 399Q115 397 115 394T115 385Q115 323 115 262T115 137Q116 94 132 72T173 42T231 34Q263 34 289 41T330 72T346 150Q346 208 346 265T346 380Q346 386 346 391T345 399Q346 399 351 399T362 399T373 399T379 399Q393 400
401 398T413 387T417 353V175Q417 131 412 98T388 43T333 10T231 -2Z" />
<glyph unicode="&#xb6;" horiz-adv-x="381" d="M295 528V-122H216V248Q151 248 115 263T65 310T51 394Q51 443 66 472T117 515T215 528H295Z" />
<glyph unicode="&#xb7;" horiz-adv-x="192" d="M57 223Q57 242 69 247T98 252Q115 252 126 247T137 223Q137 210 132 204T117 197T97 195Q87 195 78 196T63 204T57 223Z" />
<glyph unicode="&#xb8;" horiz-adv-x="256" d="M58 -183Q30 -183 20 -179T10 -160Q14 -160 30 -160T72 -160Q101 -160 111 -153T121 -128Q121 -105 112 -99T69 -92H35Q30 -92 25 -90T16 -85T14 -77Q17 -73 26 -62T46 -39T68 -15T84 2H108L54 -73Q99 -70 122 -73T154
-88T162 -129Q162 -156 150 -167T115 -181T58 -183Z" />
<glyph unicode="&#xb9;" horiz-adv-x="155" d="M64 255V475Q64 494 59 500T41 507Q32 507 22 505T2 499V526Q17 528 33 531T68 534Q96 534 106 523T117 485L118 255H64Z" />
<glyph unicode="&#xba;" horiz-adv-x="486" d="M244 -6Q198 -6 162 1T99 29T58 91T44 199Q44 266 58 307T98 369T161 397T244 404Q289 404 325 397T388 369T428 307T442 199Q442 131 428 90T388 29T326 1T244 -6ZM244 33Q284 33 312 45T356 92T371 199Q371 271
356 306T313 353T244 365Q204 365 176 353T132 306T116 199Q116 127 131 92T175 45T244 33Z" />
<glyph unicode="&#xbb;" horiz-adv-x="386" d="M41 451H82L184 264L82 78H40L132 264L41 451ZM194 451H236L337 264L236 78H193L285 264L194 451Z" />
<glyph unicode="&#xbc;" horiz-adv-x="536" d="M64 255V475Q64 494 59 500T41 507Q32 507 22 505T2 499V526Q17 528 33 531T68 534Q96 534 106 523T117 485L118 255H64ZM405 525L100 -75H55L359 525H405ZM432 -73V-12H261V17L417 186Q429 197 447 201T482 205Q482
204 482 196T481 181V20H519V-12H481V-73H432ZM313 20H431V158L313 20Z" />
<glyph unicode="&#xbd;" horiz-adv-x="579" d="M64 255V475Q64 494 59 500T41 507Q32 507 22 505T2 499V526Q17 528 33 531T68 534Q96 534 106 523T117 485L118 255H64ZM405 525L100 -75H55L359 525H405ZM325 -73Q325 -59 325 -45T325 -16Q325 24 334 43T362 68T416
75Q429 75 439 75T462 75Q482 75 495 85T509 124Q509 151 499 160T473 172Q462 173 453 174T428 175Q410 175 394 173T366 168Q360 167 353 165T338 161T328 154V177Q328 188 343 194T382 204T433 207Q469 207 497 202T540 180T556 125Q556 90 545 73T514 50T473
44Q464 44 453 44T427 44Q401 44 389 34T376 -6V-41H558V-73H325Z" />
<glyph unicode="&#xbe;" horiz-adv-x="649" d="M126 251Q101 251 73 253T28 262Q21 264 17 269T13 283V299Q34 292 60 288T119 284Q158 284 177 294T197 337Q197 366 186 373T161 381H49V410H161Q176 410 184 420T192 453Q192 483 176 492T131 501Q127 501 123
501T114 501Q98 501 80 499T46 494T21 488V505Q21 515 25 519T39 526Q51 530 75 532T131 535Q176 535 199 528T232 503T242 455Q242 432 234 417T211 399V398Q231 398 240 383T249 335Q249 302 237 284T197 258T126 251ZM518 525L213 -75H168L472 525H518ZM545
-73V-12H374V17L530 186Q542 197 560 201T595 205Q595 204 595 196T594 181V20H632V-12H594V-73H545ZM426 20H544V158L426 20Z" />
<glyph unicode="&#xbf;" horiz-adv-x="398" d="M279 253H311Q311 243 312 228T315 195T318 163T320 136Q311 137 297 137T269 137T243 137Q170 136 138 117T106 38Q106 -13 131 -33T229 -53H293Q305 -53 317 -52T339 -50T357 -48T365 -47Q365 -50 365 -54T365
-63T362 -72T355 -77Q351 -84 334 -86T298 -88Q284 -88 263 -88T220 -89T182 -88Q132 -87 99 -78T50 -41T33 38Q33 87 51 113T101 151T178 165T274 168L279 253ZM328 344Q328 325 317 320T288 315Q272 315 261 320T250 344Q250 358 255 363T269 370T289 372Q299
372 308 371T322 364T328 344Z" />
<glyph unicode="&#xc0;" horiz-adv-x="514" d="M17 0L150 393Q162 427 183 445T255 464Q301 464 323 447T358 393L494 0H411L368 127H118L77 0H17ZM131 162H354L288 363Q283 378 275 389T243 401Q216 401 208 389T195 363L131 162ZM264 521L160 589L196 616L298 521H264Z" />
<glyph unicode="&#xc1;" horiz-adv-x="514" d="M17 0L150 393Q162 427 183 445T255 464Q301 464 323 447T358 393L494 0H411L368 127H118L77 0H17ZM131 162H354L288 363Q283 378 275 389T243 401Q216 401 208 389T195 363L131 162ZM223 521L325 616L361 589L256 521H223Z" />
<glyph unicode="&#xc2;" horiz-adv-x="514" d="M17 0L150 393Q162 427 183 445T255 464Q301 464 323 447T358 393L494 0H411L368 127H118L77 0H17ZM131 162H354L288 363Q283 378 275 389T243 401Q216 401 208 389T195 363L131 162ZM154 521L241 616H268L356 521H321L255
582L188 521H154Z" />
<glyph unicode="&#xc3;" horiz-adv-x="514" d="M17 0L150 393Q162 427 183 445T255 464Q301 464 323 447T358 393L494 0H411L368 127H118L77 0H17ZM131 162H354L288 363Q283 378 275 389T243 401Q216 401 208 389T195 363L131 162ZM304 520Q287 520 271 529T238
547T205 556Q187 556 177 546T163 528L146 542Q147 544 151 552T162 569T180 585T206 593Q224 594 240 584T271 565T303 556Q324 556 334 568T349 588L366 574Q365 571 361 563T350 545T331 528T304 520Z" />
<glyph unicode="&#xc4;" horiz-adv-x="514" d="M17 0L150 393Q162 427 183 445T255 464Q301 464 323 447T358 393L494 0H411L368 127H118L77 0H17ZM131 162H354L288 363Q283 378 275 389T243 401Q216 401 208 389T195 363L131 162ZM325 520Q312 520 302 524T291
548Q291 566 302 569T325 573Q338 573 348 569T359 548Q359 529 350 525T325 520ZM185 520Q171 520 161 524T151 548Q151 566 161 569T185 573Q198 573 208 569T219 548Q219 530 209 525T185 520Z" />
<glyph unicode="&#xc5;" horiz-adv-x="514" d="M17 0L150 393Q162 427 183 445T255 464Q301 464 323 447T358 393L494 0H411L368 127H118L77 0H17ZM131 162H354L288 363Q283 378 275 389T243 401Q216 401 208 389T195 363L131 162ZM255 522Q229 522 213 527T189
542T181 572Q181 590 188 600T212 615T255 619Q283 619 299 615T323 601T330 572Q330 553 323 543T300 527T255 522ZM255 545Q276 545 286 550T297 571Q297 587 287 592T255 597Q236 597 225 592T213 571Q213 555 224 550T255 545Z" />
<glyph unicode="&#xc6;" horiz-adv-x="777" d="M9 0Q38 43 64 82T114 159T163 235T215 313T272 398Q291 427 310 440T348 456T385 460H756Q756 448 756 437T756 414H418V263H728V217Q650 217 573 217T418 217V46H756V0Q653 0 550 0T343 0V124H144Q124 93 105 62T65
0H9ZM171 160Q214 160 257 160T343 160Q343 220 343 278T343 395Q342 394 340 394T336 392Q322 391 313 382T294 358Q263 308 233 259T171 160Z" />
<glyph unicode="&#xc7;" horiz-adv-x="531" d="M45 230Q45 301 59 347T106 419T188 455T311 465Q348 465 382 463T453 454Q483 449 491 441T500 417V392Q481 401 447 407T377 417T313 420Q243 420 202 404T142 346T124 230Q124 155 141 114T200 55T318 38Q345
38 379 41T445 50T500 64V41Q500 28 491 19T451 5Q416 -2 381 -4T309 -7Q235 -7 184 3T103 39T59 111T45 230ZM272 -183Q244 -183 234 -179T224 -160Q228 -160 244 -160T286 -160Q315 -160 325 -153T335 -128Q335 -105 326 -99T283 -92H249Q244 -92 239 -90T230
-85T228 -77Q231 -73 240 -62T260 -39T282 -15T298 2H322L268 -73Q313 -70 336 -73T368 -88T376 -129Q376 -156 364 -167T329 -181T272 -183Z" />
<glyph unicode="&#xc8;" horiz-adv-x="545" d="M83 0V428Q83 446 88 453T110 460H507V416H160V263H478V219H160V44H507V0H83ZM300 521L196 589L232 616L334 521H300Z" />
<glyph unicode="&#xc9;" horiz-adv-x="545" d="M83 0V428Q83 446 88 453T110 460H507V416H160V263H478V219H160V44H507V0H83ZM258 521L360 616L396 589L291 521H258Z" />
<glyph unicode="&#xca;" horiz-adv-x="545" d="M83 0V428Q83 446 88 453T110 460H507V416H160V263H478V219H160V44H507V0H83ZM189 521L276 616H303L391 521H356L290 582L223 521H189Z" />
<glyph unicode="&#xcb;" horiz-adv-x="545" d="M83 0V428Q83 446 88 453T110 460H507V416H160V263H478V219H160V44H507V0H83ZM360 520Q347 520 337 524T326 548Q326 566 337 569T360 573Q373 573 383 569T394 548Q394 529 385 525T360 520ZM220 520Q206 520 196
524T186 548Q186 566 196 569T220 573Q233 573 243 569T254 548Q254 530 244 525T220 520Z" />
<glyph unicode="&#xcc;" horiz-adv-x="243" d="M83 0Q83 107 83 214T83 428Q83 439 84 445T91 456T110 460H160V0H83ZM130 521L26 589L62 616L164 521H130Z" />
<glyph unicode="&#xcd;" horiz-adv-x="243" d="M83 0Q83 107 83 214T83 428Q83 439 84 445T91 456T110 460H160V0H83ZM89 521L191 616L227 589L122 521H89Z" />
<glyph unicode="&#xce;" horiz-adv-x="243" d="M83 0Q83 107 83 214T83 428Q83 439 84 445T91 456T110 460H160V0H83ZM20 521L107 616H134L222 521H187L121 582L54 521H20Z" />
<glyph unicode="&#xcf;" horiz-adv-x="243" d="M83 0Q83 107 83 214T83 428Q83 439 84 445T91 456T110 460H160V0H83ZM191 520Q178 520 168 524T157 548Q157 566 168 569T191 573Q204 573 214 569T225 548Q225 529 216 525T191 520ZM51 520Q37 520 27 524T17 548Q17
566 27 569T51 573Q64 573 74 569T85 548Q85 530 75 525T51 520Z" />
<glyph unicode="&#xd0;" horiz-adv-x="601" d="M556 226Q556 144 538 98T487 30T405 4T295 -2Q266 -2 235 -2T173 -1T118 -1T78 0V396Q78 428 86 443T131 460Q147 461 173 461T228 461T286 462T333 461Q388 459 429 452T499 422T542 353T556 226ZM155 43Q162 43
180 43T221 42T263 42T295 41Q346 41 381 48T437 74T468 130T478 226Q478 306 462 347T407 404T299 419Q285 419 260 419T209 419T170 416Q163 412 159 406T155 380V43ZM16 491H276V463H16V491Z" />
<glyph unicode="&#xd1;" horiz-adv-x="624" d="M83 0V419Q83 446 87 453T114 460H181L479 79L482 77V460H541Q540 459 539 453T538 439T538 424V38Q538 12 532 6T504 0H442L141 384L140 388V0H83ZM361 520Q344 520 328 529T295 547T262 556Q244 556 234 546T220
528L203 542Q204 544 208 552T219 569T237 585T263 593Q281 594 297 584T328 565T360 556Q381 556 391 568T406 588L423 574Q422 571 418 563T407 545T388 528T361 520Z" />
<glyph unicode="&#xd2;" horiz-adv-x="599" d="M296 -7Q236 -7 190 2T112 35T62 107T45 231Q45 309 63 356T116 428T197 460T304 468Q363 468 409 460T487 427T537 355T554 231Q554 152 536 105T484 34T403 1T296 -7ZM299 36Q341 36 374 43T429 71T463 129T475
231Q475 293 464 331T430 390T374 418T299 425Q256 425 224 418T169 391T136 332T124 231Q124 168 135 130T169 71T223 44T299 36ZM308 521L204 589L240 616L342 521H308Z" />
<glyph unicode="&#xd3;" horiz-adv-x="599" d="M296 -7Q236 -7 190 2T112 35T62 107T45 231Q45 309 63 356T116 428T197 460T304 468Q363 468 409 460T487 427T537 355T554 231Q554 152 536 105T484 34T403 1T296 -7ZM299 36Q341 36 374 43T429 71T463 129T475
231Q475 293 464 331T430 390T374 418T299 425Q256 425 224 418T169 391T136 332T124 231Q124 168 135 130T169 71T223 44T299 36ZM267 521L369 616L405 589L300 521H267Z" />
<glyph unicode="&#xd4;" horiz-adv-x="599" d="M296 -7Q236 -7 190 2T112 35T62 107T45 231Q45 309 63 356T116 428T197 460T304 468Q363 468 409 460T487 427T537 355T554 231Q554 152 536 105T484 34T403 1T296 -7ZM299 36Q341 36 374 43T429 71T463 129T475
231Q475 293 464 331T430 390T374 418T299 425Q256 425 224 418T169 391T136 332T124 231Q124 168 135 130T169 71T223 44T299 36ZM198 521L285 616H312L400 521H365L299 582L232 521H198Z" />
<glyph unicode="&#xd5;" horiz-adv-x="599" d="M296 -7Q236 -7 190 2T112 35T62 107T45 231Q45 309 63 356T116 428T197 460T304 468Q363 468 409 460T487 427T537 355T554 231Q554 152 536 105T484 34T403 1T296 -7ZM299 36Q341 36 374 43T429 71T463 129T475
231Q475 293 464 331T430 390T374 418T299 425Q256 425 224 418T169 391T136 332T124 231Q124 168 135 130T169 71T223 44T299 36ZM349 520Q332 520 316 529T283 547T250 556Q232 556 222 546T208 528L191 542Q192 544 196 552T207 569T225 585T251 593Q269 594
285 584T316 565T348 556Q369 556 379 568T394 588L411 574Q410 571 406 563T395 545T376 528T349 520Z" />
<glyph unicode="&#xd6;" horiz-adv-x="599" d="M296 -7Q236 -7 190 2T112 35T62 107T45 231Q45 309 63 356T116 428T197 460T304 468Q363 468 409 460T487 427T537 355T554 231Q554 152 536 105T484 34T403 1T296 -7ZM299 36Q341 36 374 43T429 71T463 129T475
231Q475 293 464 331T430 390T374 418T299 425Q256 425 224 418T169 391T136 332T124 231Q124 168 135 130T169 71T223 44T299 36ZM369 520Q356 520 346 524T335 548Q335 566 346 569T369 573Q382 573 392 569T403 548Q403 529 394 525T369 520ZM229 520Q215 520
205 524T195 548Q195 566 205 569T229 573Q242 573 252 569T263 548Q263 530 253 525T229 520Z" />
<glyph unicode="&#xd7;" horiz-adv-x="387" d="M163 197L36 339L71 366L193 228L319 365L354 338L226 199L344 71L307 40L194 168L76 38L42 65L163 197Z" />
<glyph unicode="&#xd8;" horiz-adv-x="578" d="M36 231Q36 314 57 362T114 433T198 462T296 468Q348 468 392 461T471 431T524 360T543 231Q543 148 522 100T465 29T381 0T283 -7Q231 -7 186 0T107 31T55 102T36 231ZM467 230Q467 294 455 333T419 392T364 418T289
425Q247 425 214 419T159 392T124 333T112 230Q112 166 124 127T158 68T214 42T289 35Q331 35 363 41T419 68T454 127T467 230ZM140 -83L374 525H403L168 -83H140Z" />
<glyph unicode="&#xd9;" horiz-adv-x="588" d="M515 197Q515 154 511 118T487 54T421 12T292 -3Q226 -3 185 6T121 34T88 76T76 129T73 191V420Q73 436 74 445T82 457T103 460H150V157Q150 112 164 88T210 53T292 43Q370 43 404 69T439 157V460H484Q499 460 506
457T514 445T515 420V197ZM303 521L199 589L235 616L337 521H303Z" />
<glyph unicode="&#xda;" horiz-adv-x="588" d="M515 197Q515 154 511 118T487 54T421 12T292 -3Q226 -3 185 6T121 34T88 76T76 129T73 191V420Q73 436 74 445T82 457T103 460H150V157Q150 112 164 88T210 53T292 43Q370 43 404 69T439 157V460H484Q499 460 506
457T514 445T515 420V197ZM262 521L364 616L400 589L295 521H262Z" />
<glyph unicode="&#xdb;" horiz-adv-x="588" d="M515 197Q515 154 511 118T487 54T421 12T292 -3Q226 -3 185 6T121 34T88 76T76 129T73 191V420Q73 436 74 445T82 457T103 460H150V157Q150 112 164 88T210 53T292 43Q370 43 404 69T439 157V460H484Q499 460 506
457T514 445T515 420V197ZM193 521L280 616H307L395 521H360L294 582L227 521H193Z" />
<glyph unicode="&#xdc;" horiz-adv-x="588" d="M515 197Q515 154 511 118T487 54T421 12T292 -3Q226 -3 185 6T121 34T88 76T76 129T73 191V420Q73 436 74 445T82 457T103 460H150V157Q150 112 164 88T210 53T292 43Q370 43 404 69T439 157V460H484Q499 460 506
457T514 445T515 420V197ZM363 520Q350 520 340 524T329 548Q329 566 340 569T363 573Q376 573 386 569T397 548Q397 529 388 525T363 520ZM223 520Q209 520 199 524T189 548Q189 566 199 569T223 573Q236 573 246 569T257 548Q257 530 247 525T223 520Z" />
<glyph unicode="&#xdd;" horiz-adv-x="476" d="M199 0V187L30 435L12 460H114L254 241L396 460H466L444 432L275 187V35Q276 22 273 15T263 4T241 0H199ZM229 521L331 616L367 589L262 521H229Z" />
<glyph unicode="&#xde;" horiz-adv-x="516" d="M37 453Q37 480 42 490T66 500H102V412H324Q377 412 405 397T444 350T455 269Q455 222 442 190T397 140T313 123H102V0H37V453ZM102 372V163H318Q338 163 355 171T382 203T392 270Q392 313 382 335T353 364T315 372H102Z" />
<glyph unicode="&#xdf;" horiz-adv-x="662" d="M16 -131Q19 -132 25 -134T41 -136T61 -137Q87 -137 103 -122T120 -68Q120 -25 120 13T120 87T120 158T120 232T120 313Q115 313 102 313T75 313T56 313Q56 316 56 319T56 329T56 352Q61 352 74 352T101 352T120
352V404Q120 445 145 466T213 497T307 506Q348 506 379 503T432 489T464 458T470 405Q469 387 462 379T446 368T429 366Q406 366 383 364T341 354T311 332T299 288Q299 260 312 247T348 230T398 226Q422 226 445 226T488 226Q525 226 551 218T591 186T606 120Q606
68 581 41T511 5T411 -5Q392 -5 365 -5T311 -1T263 10T236 30L233 57Q249 46 277 40T334 33T386 31Q436 31 470 37T522 61T540 117Q540 159 519 171T458 183Q442 183 427 183T397 183T365 183Q331 183 302 189T254 216T235 282Q235 333 259 357T324 388T418 396Q424
431 410 448T369 470T309 476Q282 476 255 469T208 442T189 384V-68Q189 -92 183 -109T167 -137T143 -155T116 -163T88 -166Q69 -166 53 -165T26 -155T16 -131Z" />
<glyph unicode="&#xe0;" horiz-adv-x="483" d="M230 -7Q171 -7 134 -1T78 19T51 58T43 117Q43 168 55 195T97 232T177 242Q202 242 231 241T288 238T336 234T364 229Q364 275 356 302T332 342T291 359T234 363Q201 363 168 361T106 353T63 338V353Q63 374 75 382T104
394Q123 399 159 402T236 404Q287 404 323 399T384 378T420 328T432 238V32Q426 12 379 3T230 -7ZM230 27Q276 27 303 30T345 38T364 51V200Q355 203 331 206T279 211T233 214Q190 214 164 209T126 184T114 122Q114 89 122 68T154 37T230 27ZM236 460L121 546L157
573L270 460H236Z" />
<glyph unicode="&#xe1;" horiz-adv-x="483" d="M230 -7Q171 -7 134 -1T78 19T51 58T43 117Q43 168 55 195T97 232T177 242Q202 242 231 241T288 238T336 234T364 229Q364 275 356 302T332 342T291 359T234 363Q201 363 168 361T106 353T63 338V353Q63 374 75 382T104
394Q123 399 159 402T236 404Q287 404 323 399T384 378T420 328T432 238V32Q426 12 379 3T230 -7ZM230 27Q276 27 303 30T345 38T364 51V200Q355 203 331 206T279 211T233 214Q190 214 164 209T126 184T114 122Q114 89 122 68T154 37T230 27ZM211 460L323 573L360
546L244 460H211Z" />
<glyph unicode="&#xe2;" horiz-adv-x="483" d="M230 -7Q171 -7 134 -1T78 19T51 58T43 117Q43 168 55 195T97 232T177 242Q202 242 231 241T288 238T336 234T364 229Q364 275 356 302T332 342T291 359T234 363Q201 363 168 361T106 353T63 338V353Q63 374 75 382T104
394Q123 399 159 402T236 404Q287 404 323 399T384 378T420 328T432 238V32Q426 12 379 3T230 -7ZM230 27Q276 27 303 30T345 38T364 51V200Q355 203 331 206T279 211T233 214Q190 214 164 209T126 184T114 122Q114 89 122 68T154 37T230 27ZM135 460L223 574H249L338
460H303L236 538L168 460H135Z" />
<glyph unicode="&#xe3;" horiz-adv-x="483" d="M230 -7Q171 -7 134 -1T78 19T51 58T43 117Q43 168 55 195T97 232T177 242Q202 242 231 241T288 238T336 234T364 229Q364 275 356 302T332 342T291 359T234 363Q201 363 168 361T106 353T63 338V353Q63 374 75 382T104
394Q123 399 159 402T236 404Q287 404 323 399T384 378T420 328T432 238V32Q426 12 379 3T230 -7ZM230 27Q276 27 303 30T345 38T364 51V200Q355 203 331 206T279 211T233 214Q190 214 164 209T126 184T114 122Q114 89 122 68T154 37T230 27ZM287 458Q269 458 253
467T221 486T187 495Q170 495 161 484T148 465L130 478Q131 481 135 489T146 507T163 524T189 531Q206 531 222 522T254 503T286 493Q306 493 316 505T331 526L350 513Q348 510 344 502T332 483T313 466T287 458Z" />
<glyph unicode="&#xe4;" horiz-adv-x="483" d="M230 -7Q171 -7 134 -1T78 19T51 58T43 117Q43 168 55 195T97 232T177 242Q202 242 231 241T288 238T336 234T364 229Q364 275 356 302T332 342T291 359T234 363Q201 363 168 361T106 353T63 338V353Q63 374 75 382T104
394Q123 399 159 402T236 404Q287 404 323 399T384 378T420 328T432 238V32Q426 12 379 3T230 -7ZM230 27Q276 27 303 30T345 38T364 51V200Q355 203 331 206T279 211T233 214Q190 214 164 209T126 184T114 122Q114 89 122 68T154 37T230 27ZM307 459Q294 459 284
463T273 487Q273 505 284 508T307 512Q320 512 330 508T341 487Q341 468 332 464T307 459ZM167 459Q153 459 143 463T133 487Q133 505 143 508T167 512Q180 512 190 508T201 487Q201 469 191 464T167 459Z" />
<glyph unicode="&#xe5;" horiz-adv-x="483" d="M230 -7Q171 -7 134 -1T78 19T51 58T43 117Q43 168 55 195T97 232T177 242Q202 242 231 241T288 238T336 234T364 229Q364 275 356 302T332 342T291 359T234 363Q201 363 168 361T106 353T63 338V353Q63 374 75 382T104
394Q123 399 159 402T236 404Q287 404 323 399T384 378T420 328T432 238V32Q426 12 379 3T230 -7ZM230 27Q276 27 303 30T345 38T364 51V200Q355 203 331 206T279 211T233 214Q190 214 164 209T126 184T114 122Q114 89 122 68T154 37T230 27ZM230 458Q190 458 173
471T156 518Q156 550 173 563T230 576Q272 576 288 563T305 518Q305 485 289 472T230 458ZM230 481Q250 481 261 487T272 518Q272 540 261 546T230 553Q211 553 200 547T188 518Q188 494 199 488T230 481Z" />
<glyph unicode="&#xe6;" horiz-adv-x="814" d="M230 -7Q171 -7 134 -1T78 19T51 58T43 117Q43 168 55 195T97 232T177 242Q202 242 231 241T288 238T336 234T364 229Q364 275 356 302T332 342T291 359T234 363Q201 363 168 361T106 353T63 338V353Q63 374 75 382T104
394Q123 399 159 402T236 404Q287 404 323 399T384 378T420 328T432 238V32Q426 12 379 3T230 -7ZM230 27Q276 27 303 30T345 38T364 51V200Q355 203 331 206T279 211T233 214Q190 214 164 209T126 184T114 122Q114 89 122 68T154 37T230 27ZM575 -6Q517 -6 478
2T415 32T381 93T370 196Q370 268 388 314T452 382T581 404Q645 404 683 387T739 335T757 244V187H475Q475 199 481 207T503 216H694L693 245Q692 307 667 335T578 363Q525 363 495 347T453 295T441 197Q441 131 454 97T500 50T587 37Q606 37 630 38T680 42T724
47T752 55V43Q752 33 747 24T724 9Q702 0 665 -3T575 -6Z" />
<glyph unicode="&#xe7;" horiz-adv-x="435" d="M261 -6Q183 -6 135 10T66 69T44 197Q44 282 65 327T135 388T261 405Q287 405 309 403T361 396Q377 394 387 389T401 374T405 346Q394 352 371 356T321 362T275 365Q215 365 180 350T131 299T116 201Q116 139 130
103T179 51T275 36Q303 36 328 38T373 45T405 56V34Q405 19 387 11T336 -2T261 -6ZM224 -183Q196 -183 186 -179T176 -160Q180 -160 196 -160T238 -160Q267 -160 277 -153T287 -128Q287 -105 278 -99T235 -92H201Q196 -92 191 -90T182 -85T180 -77Q183 -73 192
-62T212 -39T234 -15T250 2H274L220 -73Q265 -70 288 -73T320 -88T328 -129Q328 -156 316 -167T281 -181T224 -183Z" />
<glyph unicode="&#xe8;" horiz-adv-x="465" d="M249 -6Q191 -6 152 2T89 32T55 93T44 196Q44 268 62 314T126 382T255 404Q319 404 357 387T413 335T431 244V187H149Q149 199 155 207T177 216H368L367 245Q366 307 341 335T252 363Q199 363 169 347T127 295T115
197Q115 131 128 97T174 50T261 37Q280 37 304 38T354 42T398 47T426 55V43Q426 33 421 24T398 9Q376 0 339 -3T249 -6ZM239 460L124 546L160 573L273 460H239Z" />
<glyph unicode="&#xe9;" horiz-adv-x="465" d="M249 -6Q191 -6 152 2T89 32T55 93T44 196Q44 268 62 314T126 382T255 404Q319 404 357 387T413 335T431 244V187H149Q149 199 155 207T177 216H368L367 245Q366 307 341 335T252 363Q199 363 169 347T127 295T115
197Q115 131 128 97T174 50T261 37Q280 37 304 38T354 42T398 47T426 55V43Q426 33 421 24T398 9Q376 0 339 -3T249 -6ZM214 460L326 573L363 546L247 460H214Z" />
<glyph unicode="&#xea;" horiz-adv-x="465" d="M249 -6Q191 -6 152 2T89 32T55 93T44 196Q44 268 62 314T126 382T255 404Q319 404 357 387T413 335T431 244V187H149Q149 199 155 207T177 216H368L367 245Q366 307 341 335T252 363Q199 363 169 347T127 295T115
197Q115 131 128 97T174 50T261 37Q280 37 304 38T354 42T398 47T426 55V43Q426 33 421 24T398 9Q376 0 339 -3T249 -6ZM139 460L227 574H253L342 460H307L240 538L172 460H139Z" />
<glyph unicode="&#xeb;" horiz-adv-x="465" d="M249 -6Q191 -6 152 2T89 32T55 93T44 196Q44 268 62 314T126 382T255 404Q319 404 357 387T413 335T431 244V187H149Q149 199 155 207T177 216H368L367 245Q366 307 341 335T252 363Q199 363 169 347T127 295T115
197Q115 131 128 97T174 50T261 37Q280 37 304 38T354 42T398 47T426 55V43Q426 33 421 24T398 9Q376 0 339 -3T249 -6ZM310 459Q297 459 287 463T276 487Q276 505 287 508T310 512Q323 512 333 508T344 487Q344 468 335 464T310 459ZM170 459Q156 459 146 463T136
487Q136 505 146 508T170 512Q183 512 193 508T204 487Q204 469 194 464T170 459Z" />
<glyph unicode="&#xec;" horiz-adv-x="208" d="M133 -4Q86 -4 70 21T54 94V399H124V98Q124 57 133 43T165 29Q174 29 185 31T200 34V3Q197 2 189 1T167 -2T133 -4ZM334 460L219 546L255 573L368 460H334Z" />
<glyph unicode="&#xed;" horiz-adv-x="208" d="M133 -4Q86 -4 70 21T54 94V399H124V98Q124 57 133 43T165 29Q174 29 185 31T200 34V3Q197 2 189 1T167 -2T133 -4ZM53 460L165 573L202 546L86 460H53Z" />
<glyph unicode="&#xee;" horiz-adv-x="208" d="M133 -4Q86 -4 70 21T54 94V399H124V98Q124 57 133 43T165 29Q174 29 185 31T200 34V3Q197 2 189 1T167 -2T133 -4ZM234 460L322 574H348L437 460H402L335 538L267 460H234Z" />
<glyph unicode="&#xef;" horiz-adv-x="208" d="M133 -4Q86 -4 70 21T54 94V399H124V98Q124 57 133 43T165 29Q174 29 185 31T200 34V3Q197 2 189 1T167 -2T133 -4ZM405 459Q392 459 382 463T371 487Q371 505 382 508T405 512Q418 512 428 508T439 487Q439 468
430 464T405 459ZM265 459Q251 459 241 463T231 487Q231 505 241 508T265 512Q278 512 288 508T299 487Q299 469 289 464T265 459Z" />
<glyph unicode="&#xf0;" horiz-adv-x="471" d="M100 475L277 621L295 599L119 454L100 475ZM35 196Q35 264 50 303T91 363T150 389T219 396Q231 396 242 396T265 395Q246 420 224 449T179 507T138 558T109 595Q114 600 121 607T136 622T150 636T159 646Q207 590
246 541T319 448T380 361T432 274Q432 266 432 252T432 224T432 197Q432 127 419 87T381 27T319 2T235 -4Q189 -4 153 1T90 26T50 86T35 196ZM362 244Q354 261 346 274T325 300Q315 314 304 329T281 359Q271 360 259 361T232 362Q192 362 163 351T120 305T105 199Q105
128 119 94T163 48T232 37Q274 37 302 48T346 93T362 199Q362 205 362 213T362 230T362 244Z" />
<glyph unicode="&#xf1;" horiz-adv-x="481" d="M83 0Q60 0 60 24V370Q89 383 136 393T246 403Q304 403 340 395T395 371T420 330T427 268V30Q427 19 425 12T416 3T396 0H357V282Q357 322 331 341T246 360Q227 360 205 357T162 349T129 334V0H83ZM293 458Q275 458
259 467T227 486T193 495Q176 495 167 484T154 465L136 478Q137 481 141 489T152 507T169 524T195 531Q212 531 228 522T260 503T292 493Q312 493 322 505T337 526L356 513Q354 510 350 502T338 483T319 466T293 458Z" />
<glyph unicode="&#xf2;" horiz-adv-x="486" d="M244 -6Q198 -6 162 1T99 29T58 91T44 199Q44 266 58 307T98 369T161 397T244 404Q289 404 325 397T388 369T428 307T442 199Q442 131 428 90T388 29T326 1T244 -6ZM244 33Q284 33 312 45T356 92T371 199Q371 271
356 306T313 353T244 365Q204 365 176 353T132 306T116 199Q116 127 131 92T175 45T244 33ZM241 460L126 546L162 573L275 460H241Z" />
<glyph unicode="&#xf3;" horiz-adv-x="486" d="M244 -6Q198 -6 162 1T99 29T58 91T44 199Q44 266 58 307T98 369T161 397T244 404Q289 404 325 397T388 369T428 307T442 199Q442 131 428 90T388 29T326 1T244 -6ZM244 33Q284 33 312 45T356 92T371 199Q371 271
356 306T313 353T244 365Q204 365 176 353T132 306T116 199Q116 127 131 92T175 45T244 33ZM216 460L328 573L365 546L249 460H216Z" />
<glyph unicode="&#xf4;" horiz-adv-x="486" d="M244 -6Q198 -6 162 1T99 29T58 91T44 199Q44 266 58 307T98 369T161 397T244 404Q289 404 325 397T388 369T428 307T442 199Q442 131 428 90T388 29T326 1T244 -6ZM244 33Q284 33 312 45T356 92T371 199Q371 271
356 306T313 353T244 365Q204 365 176 353T132 306T116 199Q116 127 131 92T175 45T244 33ZM141 460L229 574H255L344 460H309L242 538L174 460H141Z" />
<glyph unicode="&#xf5;" horiz-adv-x="486" d="M244 -6Q198 -6 162 1T99 29T58 91T44 199Q44 266 58 307T98 369T161 397T244 404Q289 404 325 397T388 369T428 307T442 199Q442 131 428 90T388 29T326 1T244 -6ZM244 33Q284 33 312 45T356 92T371 199Q371 271
356 306T313 353T244 365Q204 365 176 353T132 306T116 199Q116 127 131 92T175 45T244 33ZM293 458Q275 458 259 467T227 486T193 495Q176 495 167 484T154 465L136 478Q137 481 141 489T152 507T169 524T195 531Q212 531 228 522T260 503T292 493Q312 493 322
505T337 526L356 513Q354 510 350 502T338 483T319 466T293 458Z" />
<glyph unicode="&#xf6;" horiz-adv-x="486" d="M244 -6Q198 -6 162 1T99 29T58 91T44 199Q44 266 58 307T98 369T161 397T244 404Q289 404 325 397T388 369T428 307T442 199Q442 131 428 90T388 29T326 1T244 -6ZM244 33Q284 33 312 45T356 92T371 199Q371 271
356 306T313 353T244 365Q204 365 176 353T132 306T116 199Q116 127 131 92T175 45T244 33ZM312 459Q299 459 289 463T278 487Q278 505 289 508T312 512Q325 512 335 508T346 487Q346 468 337 464T312 459ZM172 459Q158 459 148 463T138 487Q138 505 148 508T172
512Q185 512 195 508T206 487Q206 469 196 464T172 459Z" />
<glyph unicode="&#xf7;" horiz-adv-x="458" d="M51 207H388V174H51V207ZM187 40Q187 59 197 64T222 69Q236 69 245 64T255 40Q255 27 251 21T239 14T222 12Q213 12 206 13T193 21T187 40ZM187 328Q187 348 197 352T221 357Q235 357 244 353T254 328Q254 315 250
309T238 302T221 300Q213 300 205 301T192 309T187 328Z" />
<glyph unicode="&#xf8;" horiz-adv-x="486" d="M113 -63L329 467H360L144 -63H113ZM244 -6Q198 -6 162 1T99 29T58 91T44 199Q44 266 58 307T98 369T161 397T244 404Q289 404 325 397T388 369T428 307T442 199Q442 131 428 90T388 29T326 1T244 -6ZM244 33Q284
33 312 45T356 92T371 199Q371 271 356 306T313 353T244 365Q204 365 176 353T132 306T116 199Q116 127 131 92T175 45T244 33Z" />
<glyph unicode="&#xf9;" horiz-adv-x="476" d="M121 399V128Q121 78 149 58T237 37Q300 37 327 58T355 128V399Q356 399 361 399T373 399T386 399T394 399Q406 399 413 398T422 390T425 370V141Q425 91 410 59T354 11T236 -5Q166 -5 126 8T68 52T51 136V370Q51
387 56 393T78 399Q89 399 99 399T121 399ZM238 460L123 546L159 573L272 460H238Z" />
<glyph unicode="&#xfa;" horiz-adv-x="476" d="M121 399V128Q121 78 149 58T237 37Q300 37 327 58T355 128V399Q356 399 361 399T373 399T386 399T394 399Q406 399 413 398T422 390T425 370V141Q425 91 410 59T354 11T236 -5Q166 -5 126 8T68 52T51 136V370Q51
387 56 393T78 399Q89 399 99 399T121 399ZM213 460L325 573L362 546L246 460H213Z" />
<glyph unicode="&#xfb;" horiz-adv-x="476" d="M121 399V128Q121 78 149 58T237 37Q300 37 327 58T355 128V399Q356 399 361 399T373 399T386 399T394 399Q406 399 413 398T422 390T425 370V141Q425 91 410 59T354 11T236 -5Q166 -5 126 8T68 52T51 136V370Q51
387 56 393T78 399Q89 399 99 399T121 399ZM137 460L225 574H251L340 460H305L238 538L170 460H137Z" />
<glyph unicode="&#xfc;" horiz-adv-x="476" d="M121 399V128Q121 78 149 58T237 37Q300 37 327 58T355 128V399Q356 399 361 399T373 399T386 399T394 399Q406 399 413 398T422 390T425 370V141Q425 91 410 59T354 11T236 -5Q166 -5 126 8T68 52T51 136V370Q51
387 56 393T78 399Q89 399 99 399T121 399ZM309 459Q296 459 286 463T275 487Q275 505 286 508T309 512Q322 512 332 508T343 487Q343 468 334 464T309 459ZM169 459Q155 459 145 463T135 487Q135 505 145 508T169 512Q182 512 192 508T203 487Q203 469 193 464T169
459Z" />
<glyph unicode="&#xfd;" horiz-adv-x="471" d="M230 -111Q185 -111 145 -107T80 -93T55 -73V-48Q71 -57 97 -63T154 -72T212 -76Q260 -76 290 -63T336 -21T352 52V106Q343 86 323 72T274 52T205 46Q134 46 101 66T58 123T48 209V360Q48 375 49 383T56 395T75 399H119Q119
373 119 350T119 304T119 258T119 209Q119 152 134 125T176 91T235 84Q267 84 293 92T335 126T351 201V399H394Q409 399 415 395T422 369V60Q422 -29 376 -70T230 -111ZM209 460L321 573L358 546L242 460H209Z" />
<glyph unicode="&#xfe;" horiz-adv-x="458" d="M42 -108V468Q42 491 47 497T68 503H110V367Q123 370 140 371T171 374T192 375Q245 375 286 370T357 347T402 294T418 197Q418 136 403 101T359 50T287 29T189 24Q179 24 155 25T110 30V-108H42ZM349 198Q349 260
333 290T281 331T187 343Q165 343 143 341T110 335V66Q126 63 146 61T189 59Q247 59 282 68T333 107T349 198Z" />
<glyph unicode="&#xff;" horiz-adv-x="471" d="M230 -111Q185 -111 145 -107T80 -93T55 -73V-48Q71 -57 97 -63T154 -72T212 -76Q260 -76 290 -63T336 -21T352 52V106Q343 86 323 72T274 52T205 46Q134 46 101 66T58 123T48 209V360Q48 375 49 383T56 395T75 399H119Q119
373 119 350T119 304T119 258T119 209Q119 152 134 125T176 91T235 84Q267 84 293 92T335 126T351 201V399H394Q409 399 415 395T422 369V60Q422 -29 376 -70T230 -111ZM305 459Q292 459 282 463T271 487Q271 505 282 508T305 512Q318 512 328 508T339 487Q339
468 330 464T305 459ZM165 459Q151 459 141 463T131 487Q131 505 141 508T165 512Q178 512 188 508T199 487Q199 469 189 464T165 459Z" />
<glyph unicode="&#x2013;" horiz-adv-x="462" d="M48 210H387V175H48V210Z" />
<glyph unicode="&#x2014;" horiz-adv-x="602" d="M48 210H555V175H48V210Z" />
<glyph unicode="&#x2018;" horiz-adv-x="156" d="M79 343H33L88 490H122L79 343Z" />
<glyph unicode="&#x2019;" horiz-adv-x="156" d="M86 490H132L78 343H43L86 490Z" />
<glyph unicode="&#x201a;" horiz-adv-x="200" d="M70 36Q80 57 88 80T101 116Q99 116 98 116T94 117Q85 117 78 121T70 140Q70 151 74 157T88 164T108 166Q125 166 134 161T143 139Q143 123 135 102T118 63T105 36H70Z" />
<glyph unicode="&#x201c;" horiz-adv-x="276" d="M79 343H33L88 490H122L79 343ZM191 343H145L199 490H234L191 343Z" />
<glyph unicode="&#x201d;" horiz-adv-x="270" d="M197 490H243L188 343H154L197 490ZM86 490H132L78 343H43L86 490Z" />
<glyph unicode="&#x201e;" horiz-adv-x="311" d="M171 37Q182 57 189 80T202 116Q201 116 201 116T198 116Q188 116 180 120T171 139Q171 155 182 160T211 165Q229 165 237 159T246 137Q246 123 239 102T222 63T206 37H171ZM68 37Q77 57 85 80T99 116Q98 116 97
116T95 116Q85 116 76 120T67 139Q67 155 78 160T108 165Q126 165 134 159T143 137Q143 123 136 102T119 63T103 37H68Z" />
<glyph unicode="&#x2022;" horiz-adv-x="493" d="M97 265Q97 304 117 335T171 384T246 403Q287 403 321 385T375 335T395 265Q395 227 375 195T321 145T246 127Q205 127 171 145T117 195T97 265Z" />
<glyph unicode="&#x2039;" horiz-adv-x="241" d="M92 264L184 78H142L40 264L142 451H183L92 264Z" />
<glyph unicode="&#x203a;" horiz-adv-x="235" d="M41 451H82L184 264L82 78H40L132 264L41 451Z" />
</font>
</defs>
</svg>
