<?xml version="1.0" standalone="no"?>
<!DOCTYPE svg PUBLIC "-//W3C//DTD SVG 1.1//EN" "http://www.w3.org/Graphics/SVG/1.1/DTD/svg11.dtd">
<svg xmlns="http://www.w3.org/2000/svg">
<defs >
<font id="CormorantGaramond" horiz-adv-x="538" ><font-face
    font-family="Cormorant Garamond"
    units-per-em="1000"
    panose-1="0 0 0 0 0 0 0 0 0 0"
    ascent="924"
    descent="-287"
    alphabetic="0" />
<glyph unicode=" " glyph-name="space" horiz-adv-x="234" />
<glyph unicode="!" glyph-name="exclam" horiz-adv-x="247" d="M77 624T92 626T124 629Q141 629 155 627T169 620Q153 534 145 436T129 189Q129 186 122 186Q114 186 114 189Q109 325 102 429T78 620Q77 624 92 626ZM99 -11T87 1T75 32Q75 51 87 62T119 74Q140
74 151 63T162 32Q162 12 151 1T119 -11Q99 -11 87 1Z" />
<glyph unicode="&quot;" glyph-name="quotedbl" horiz-adv-x="283" d="M42 619T68 629T111 640Q120 640 119 636L67 366Q65 364 60 363T55 365L43 608Q42 619 68 629ZM185 619T210 629T253 640Q262 640 262 636L209 366Q208 364 203 363T198 365L186 608Q185 619
210 629Z" />
<glyph unicode="#" glyph-name="numbersign" horiz-adv-x="526" d="M140 -82T131 -82Q123 -82 113 -80T104 -75L203 482Q203 487 221 483T238 475L140 -79Q140 -82 131 -82ZM327 -82T318 -82Q310 -82 300 -80T291 -75L390 482Q390 484 397 484Q405 484 415 481T425
475L327 -79Q327 -82 318 -82ZM61 76T60 82T58 97Q58 104 59 110T62 116H428Q430 116 431 110T433 96Q433 89 432 83T428 76H63Q61 76 60 82ZM96 275T95 281T93 296Q93 303 94 308T97 314H463Q465 314 466 308T468 295Q468 288 467 282T463 275H98Q96 275 95 281Z"
/>
<glyph unicode="$" glyph-name="dollar" horiz-adv-x="411" d="M203 565T206 567T214 569Q218 569 221 567T224 561V-102Q224 -109 214 -109Q203 -109 203 -102V561Q203 565 206 567ZM123 356T139 334T178 296T241 261Q282 239 307 223T349 181T366 122Q366 65
321 27T198 -12Q125 -12 79 23Q74 25 73 29T70 42L59 141Q58 145 64 146T71 143Q86 85 127 45T220 4Q256 4 282 24T309 89Q309 121 293 145T252 186T189 224Q149 245 126 261T86 302T70 359Q70 416 114 448T221 480Q273 480 320 457Q329 452 331 450T335 440L342
353Q342 349 337 348T330 351Q325 376 308 402T263 447T203 465Q165 465 144 443T123 386Q123 356 139 334Z" />
<glyph unicode="%" glyph-name="percent" horiz-adv-x="574" d="M97 303T62 340T27 433Q27 486 62 523T150 560Q202 560 236 523T270 430Q270 376 236 340T150 303Q97 303 62 340ZM190 314T201 341T212 423Q212 485 195 517T144 549Q110 549 98 519T85 436Q85
314 157 314Q190 314 201 341ZM374 -5T339 32T304 125Q304 178 339 215T427 253Q479 253 513 215T547 123Q547 69 513 32T427 -5Q374 -5 339 32ZM467 7T478 34T489 116Q489 241 421 241Q388 241 376 212T363 129Q363 7 434 7Q467 7 478 34ZM105 -6Q100 -6 91 -1T82
7L453 551L455 552Q460 552 469 546T477 537L106 -6H105Z" />
<glyph unicode="&amp;" glyph-name="ampersand" horiz-adv-x="697" d="M368 575T345 600T281 625Q202 625 202 529Q202 431 280 325T481 126Q543 79 600 50T697 12Q701 11 701 6T697 0H589Q536 0 422 96Q344 157 276 233T173 379Q144 442 144 487Q144 530 165
566T224 624T310 646Q358 646 392 623T427 547Q427 508 407 477T359 423T281 365Q231 332 201 307T149 248T128 172Q128 130 149 95T209 39T295 18Q357 18 406 52T482 144T510 265Q510 301 496 319T439 337Q436 337 436 343T439 349L648 350Q652 350 652 344T648
338Q614 338 597 332T573 314T559 279Q477 -12 250 -12Q188 -12 147 9T85 64T64 137Q64 180 85 215T137 277T220 341Q269 376 298 401T348 459T368 531Q368 575 345 600Z" />
<glyph unicode="&apos;" glyph-name="quotesingle" horiz-adv-x="140" d="M42 619T68 629T111 640Q120 640 119 636L67 366Q65 364 60 363T55 365L43 608Q42 619 68 629Z" />
<glyph unicode="(" glyph-name="parenleft" horiz-adv-x="309" d="M65 446T120 559T274 725Q276 726 278 724T278 719Q204 648 169 545T134 304Q134 166 169 63T278 -111Q280 -112 278 -115T274 -117Q175 -63 120 49T65 304Q65 446 120 559Z" />
<glyph unicode=")" glyph-name="parenright" horiz-adv-x="309" d="M244 162T189 49T35 -117Q33 -118 31 -116T31 -111Q105 -40 140 63T175 304Q175 442 140 545T31 719Q29 720 31 723T35 725Q134 671 189 559T244 304Q244 162 189 49Z" />
<glyph unicode="*" glyph-name="asterisk" horiz-adv-x="448" d="M134 379T124 379Q112 379 95 384T66 396T58 405L206 491L208 492Q210 492 212 489T214 485L137 383Q134 379 124 379ZM232 483T236 486T241 488L315 382Q320 375 310 356T285 323T269 314L233
481Q232 483 236 486ZM70 556T70 594Q70 611 73 624T79 635L207 520Q210 519 208 515T204 511L82 552Q70 556 70 594ZM249 503T248 507T248 513L371 551Q380 554 394 538T418 504T422 486L251 503Q249 503 248 507ZM228 666T247 675T287 687T305 685L236 529Q235
526 231 526T226 529L228 657Q228 666 247 675Z" />
<glyph unicode="+" glyph-name="plus" horiz-adv-x="398" d="M32 170T31 176T29 191Q29 198 30 203T33 209H364Q366 209 367 203T369 190Q369 183 368 177T364 170H34Q32 170 31 176ZM219 23T212 22T196 20Q179 20 179 23V354Q179 356 185 357T199 359Q206 359
212 358T219 354V25Q219 23 212 22Z" />
<glyph unicode="," glyph-name="comma" horiz-adv-x="222" d="M132 71T149 49T166 -17Q166 -62 147 -101T91 -181Q90 -182 88 -182Q85 -182 83 -179T83 -174Q105 -143 113 -115T121 -52Q121 -25 114 -9T93 20L131 27Q132 10 122 1T96 -8Q77 -8 67 2T56 31Q56 71
102 71Q132 71 149 49Z" />
<glyph unicode="-" glyph-name="hyphen" horiz-adv-x="323" d="M30 164T29 172T27 188Q27 207 30 207L291 254Q293 255 294 249T296 234Q296 214 291 212L32 165Q30 164 29 172Z" />
<glyph unicode="." glyph-name="period" horiz-adv-x="197" d="M79 -11T67 1T55 32Q55 51 67 62T99 74Q120 74 131 63T142 32Q142 12 131 1T99 -11Q79 -11 67 1Z" />
<glyph unicode="/" glyph-name="slash" horiz-adv-x="341" d="M63 -167T44 -162T26 -152L278 730Q280 735 298 729T315 718L64 -163Q63 -167 44 -162Z" />
<glyph unicode="0" glyph-name="zero" horiz-adv-x="477" d="M181 -13T135 14T62 88T35 196Q35 255 61 301T135 373T241 399Q299 399 345 373T416 299T442 193Q442 134 416 87T344 14T240 -13Q181 -13 135 14ZM311 1T342 49T373 181Q373 281 332 333T230 385Q171
385 137 335T103 204Q103 146 121 100T173 27T251 1Q311 1 342 49Z" />
<glyph unicode="1" glyph-name="one" horiz-adv-x="332" d="M138 336T132 350T109 369T52 374Q49 374 49 380T52 386Q81 386 98 385L166 384L233 385Q250 386 280 386Q283 386 283 380T280 374Q243 374 226 369T201 349T194 305V81Q194 50 200 36T223 17T280 12Q283
12 283 6T280 0Q251 0 234 1L166 2L99 1Q82 0 52 0Q49 0 49 6T52 12Q89 12 106 17T131 37T138 81V305Q138 336 132 350Z" />
<glyph unicode="2" glyph-name="two" horiz-adv-x="402" d="M125 86T173 132T242 214T263 286Q263 326 239 351T175 377Q96 377 61 253Q61 252 57 252Q48 252 49 256L88 408Q88 410 92 410Q95 410 97 409T99 406Q98 402 98 395Q98 379 113 379Q122 379 143 386Q184
399 216 399Q267 399 296 372T326 300Q326 264 304 229T238 155T116 56Q112 53 113 51T120 49Q230 49 273 52T335 68T361 114Q362 116 367 116T373 113L358 11Q358 7 356 4T349 0H44Q39 0 36 5T37 15Q125 86 173 132Z" />
<glyph unicode="3" glyph-name="three" horiz-adv-x="389" d="M55 -276T53 -271T54 -264Q174 -227 225 -159T277 -20Q277 34 250 71T165 108Q138 108 116 102Q113 101 111 107T112 114Q191 134 223 170T255 268Q255 319 234 348T168 377Q79 377 45 258Q44 257
41 257Q32 257 33 261L70 407Q72 409 74 409Q77 409 80 408T82 405Q80 397 80 394Q80 377 97 377Q106 377 127 384Q168 399 201 399Q257 399 288 366T319 285Q319 227 280 180T176 119L191 132Q268 131 308 90T349 -9Q349 -58 317 -109T220 -205T59 -275Q55 -276
53 -271Z" />
<glyph unicode="4" glyph-name="four" horiz-adv-x="451" d="M24 8T21 12T22 20L314 396Q316 398 320 398Q323 398 326 397T329 392V-153Q329 -164 321 -167L279 -188Q273 -190 273 -190Q270 -190 270 -182V316L302 338L73 45Q70 42 71 40T78 38Q188 38 352 42L414
44Q418 44 418 25Q418 17 417 9T413 1Q336 5 258 6T29 8Q24 8 21 12Z" />
<glyph unicode="5" glyph-name="five" horiz-adv-x="409" d="M219 196T285 146T351 9Q351 -48 322 -94T232 -184T68 -275H67Q63 -275 61 -271T62 -264Q185 -203 235 -141T285 -8Q285 75 229 121T68 167Q63 167 60 170T58 179L90 357Q91 364 93 365T103 368Q229
383 272 389T327 401T345 423Q346 426 351 426T356 421L336 348Q332 336 327 333T308 330L119 326Q106 326 104 311L79 173L78 196Q219 196 285 146Z" />
<glyph unicode="6" glyph-name="six" horiz-adv-x="465" d="M366 283T398 247T430 159Q430 112 403 73T330 10T230 -13Q145 -13 96 45T47 208Q47 301 89 391T212 552T400 661Q404 662 406 657T405 650Q311 607 245 538T145 387T111 225Q111 131 150 69T258 6Q307
6 336 40T366 132Q366 187 341 221T265 255Q239 255 216 244T165 208Q164 207 162 207Q159 207 157 210T155 215Q209 283 299 283Q366 283 398 247Z" />
<glyph unicode="7" glyph-name="seven" horiz-adv-x="429" d="M160 -227T155 -231T142 -242L92 -275H91Q89 -275 87 -273T85 -268L351 329Q354 336 346 336Q198 336 141 332T64 315T35 268Q33 266 30 266Q27 266 25 267T23 271L58 413Q59 415 65 415T70 412Q69
408 69 402Q69 392 78 389T117 386H382Q386 386 389 382T391 373L163 -218Q160 -227 155 -231Z" />
<glyph unicode="8" glyph-name="eight" horiz-adv-x="489" d="M308 368T322 394T336 453Q336 500 309 529T238 558Q203 558 181 538T158 484Q158 454 176 430T220 389T291 347Q344 318 376 296T430 241T453 162Q453 113 425 73T348 10T242 -13Q184 -13 140 9T72
69T47 150Q47 196 72 238T137 312T221 358L227 350Q172 325 142 280T112 176Q112 131 132 92T188 29T270 5Q325 5 360 39T396 130Q396 176 374 209T321 263T236 313Q189 339 164 356T121 397T103 454Q103 493 127 520T187 560T259 574Q299 574 329 559T376 519T393
469Q393 434 364 399T283 335L278 341Q308 368 322 394Z" />
<glyph unicode="9" glyph-name="nine" horiz-adv-x="465" d="M105 109T70 150T35 244Q35 289 59 324T124 379T217 399Q309 399 363 335T418 166Q418 75 376 -14T254 -172T65 -275Q62 -276 60 -271T61 -264Q155 -226 221 -158T320 -10T354 146Q354 199 339 253T289
343T201 380Q153 380 126 349T99 263Q99 208 127 173T209 137Q235 137 255 145T300 174Q301 175 303 175Q306 175 309 172T311 167Q262 109 177 109Q105 109 70 150Z" />
<glyph unicode=":" glyph-name="colon" horiz-adv-x="197" d="M79 -11T67 1T55 32Q55 51 67 62T99 74Q120 74 131 63T142 32Q142 12 131 1T99 -11Q79 -11 67 1ZM79 270T67 282T55 313Q55 332 67 343T99 355Q120 355 131 344T142 313Q142 293 131 282T99 270Q79
270 67 282Z" />
<glyph unicode=";" glyph-name="semicolon" horiz-adv-x="224" d="M134 71T151 49T168 -17Q168 -62 149 -101T93 -181Q92 -182 90 -182Q87 -182 85 -179T85 -174Q107 -143 114 -115T122 -52Q122 -25 115 -9T95 20L133 27Q134 10 124 1T98 -8Q79 -8 69 2T58 31Q58
71 104 71Q134 71 151 49ZM81 270T69 282T57 313Q57 332 69 343T101 355Q122 355 133 344T144 313Q144 293 133 282T101 270Q81 270 69 282Z" />
<glyph unicode="&lt;" glyph-name="less" horiz-adv-x="407" d="M31 176T31 190Q31 205 36 207L370 354Q373 356 375 351T377 338Q377 318 370 314L57 181V200L370 66Q377 63 377 42Q377 22 370 25L36 173Q31 176 31 190Z" />
<glyph unicode="=" glyph-name="equal" horiz-adv-x="468" d="M32 100T31 106T29 121Q29 128 30 133T33 139H434Q436 139 437 133T439 120Q439 113 438 107T434 100H34Q32 100 31 106ZM32 240T31 246T29 261Q29 268 30 273T33 279H434Q436 279 437 273T439 260Q439
253 438 247T434 240H34Q32 240 31 246Z" />
<glyph unicode="&gt;" glyph-name="greater" horiz-adv-x="407" d="M376 204T376 189Q376 175 371 172L37 25Q34 24 32 28T30 41Q30 49 32 56T37 65L350 198V179L37 313Q34 314 32 321T30 337Q30 345 32 350T37 354L371 206Q376 204 376 189Z" />
<glyph unicode="?" glyph-name="question" horiz-adv-x="329" d="M135 612T127 600T115 565Q112 545 104 533T77 521Q61 521 52 531T43 555Q43 584 78 604T162 625Q221 625 259 594T297 505Q297 475 287 452T262 413T221 372Q186 338 172 311T158 248Q158 226
164 193Q165 190 159 189T152 191Q141 217 134 252T126 310Q126 341 138 361T176 407Q203 434 216 457T230 517Q230 559 210 585T159 612Q135 612 127 600ZM127 -11T115 1T103 32Q103 51 115 62T147 74Q168 74 179 63T190 32Q190 12 179 1T147 -11Q127 -11 115
1Z" />
<glyph unicode="@" glyph-name="at" horiz-adv-x="719" d="M432 229L450 242Q414 158 363 104T266 49Q243 49 229 63T215 109Q215 122 216 129Q224 182 257 235T334 321T418 355Q440 355 457 343T476 306L447 325Q457 327 468 337T483 362Q485 364 491 364Q501
364 501 361L460 137Q456 115 456 106Q456 71 493 71Q521 71 548 91T593 148T611 236Q611 300 579 353T491 438T366 470Q290 470 234 433T147 334T117 199Q117 120 151 60T249 -33T393 -66Q441 -66 477 -56T559 -20H560Q562 -20 564 -23T565 -28Q478 -97 361 -97Q280
-97 215 -65T112 29T74 173Q74 264 119 337T239 451T398 493Q472 493 529 462T617 379T648 265Q648 209 623 160T557 81T467 51Q412 51 412 111Q412 129 414 138L432 229ZM319 88T349 115T405 185T439 270Q440 275 440 285Q440 306 430 319T398 332Q373 332 346
309T297 246T268 161Q265 143 265 128Q265 88 293 88Q319 88 349 115Z" />
<glyph unicode="A" glyph-name="A" horiz-adv-x="702" d="M204 295H469L476 275H194L204 295ZM703 12T703 6T699 0Q680 0 640 2Q600 4 582 4Q560 4 526 2Q494 0 477 0Q473 0 473 6T477 12Q515 12 531 19T548 44Q548 59 536 86L314 555L339 586L145 127Q131 93
131 71Q131 12 229 12Q234 12 234 6T229 0Q211 0 177 2Q139 4 111 4Q85 4 51 2Q21 0 1 0Q-4 0 -4 6T1 12Q29 12 48 22T85 59T124 136L335 634Q337 637 342 637T348 634L584 137Q618 63 642 38T699 12Q703 12 703 6Z" />
<glyph unicode="B" glyph-name="B" horiz-adv-x="558" d="M369 353T414 331T483 271T508 184Q508 131 482 88T411 21T309 -4Q276 -4 237 -1Q223 0 204 1T162 2L94 1Q76 0 43 0Q41 0 41 6T43 12Q81 12 99 17T124 37T131 81V544Q131 574 125 588T100 607T45 613Q42
613 42 619T45 625L94 624Q136 622 162 622Q180 622 195 623T222 625Q254 628 280 628Q364 628 406 592T448 496Q448 440 408 400T300 342L311 353Q369 353 414 331ZM231 613T219 609T201 590T195 542V346L163 354Q206 351 240 351Q313 351 348 388T383 488Q383
544 353 578T258 613Q231 613 219 609ZM367 14T402 51T438 159Q438 235 394 282T271 330Q214 332 166 325L195 336V81Q195 55 202 41T231 21T294 14Q367 14 402 51Z" />
<glyph unicode="C" glyph-name="C" horiz-adv-x="686" d="M474 636T517 627T603 596Q610 592 611 589T614 574L626 455Q626 452 621 452T614 454Q568 621 408 621Q324 621 260 584T160 479T125 319Q125 232 164 160T268 45T411 3Q493 3 544 43T622 165Q622 167
627 167Q634 167 634 164L624 54Q623 42 621 39T613 32Q561 7 516 -3T411 -13Q306 -13 224 28T95 145T49 317Q49 411 96 483T225 596T411 636Q474 636 517 627Z" />
<glyph unicode="D" glyph-name="D" horiz-adv-x="691" d="M274 -4T236 -1Q222 0 201 1T153 2L85 1Q67 0 35 0Q33 0 33 6T35 12Q73 12 90 17T114 36T121 81V544Q121 574 115 588T92 607T36 613Q34 613 34 619T36 625L86 624Q128 622 153 622Q191 622 228 625Q272
627 289 627Q393 627 473 587T597 478T642 323Q642 226 597 152T473 37T303 -4Q274 -4 236 -1ZM373 11T435 44T531 143T566 301Q566 388 533 459T439 571T298 612Q255 612 232 607T197 587T186 542V92Q186 62 194 45T226 20T293 11Q373 11 435 44Z" />
<glyph unicode="E" glyph-name="E" horiz-adv-x="537" d="M41 0T41 6T43 12Q81 12 98 17T122 36T129 81V544Q129 574 123 588T99 607T43 613Q41 613 41 619T43 625H445Q454 625 454 616L456 493Q456 490 451 490T445 492Q442 545 413 574T336 604H275Q240 604
223 599T200 580T193 539V85Q193 58 199 45T222 26T272 21H352Q400 21 432 55T475 149Q475 151 479 151Q482 151 484 150T487 147Q478 84 478 15Q478 7 475 4T462 0H43Q41 0 41 6ZM406 277T385 296T313 315H163V336H316Q364 336 384 352T405 406Q405 408 411 408T417
406L416 325Q416 296 417 281L418 233Q418 231 412 231T406 233Q406 277 385 296Z" />
<glyph unicode="F" glyph-name="F" horiz-adv-x="509" d="M40 0T40 6T42 12Q80 12 98 17T122 36T129 81V544Q129 574 123 588T99 607T43 613Q41 613 41 619T43 625H445Q454 625 454 616L456 493Q456 490 451 490T445 492Q442 545 413 574T336 604H275Q241 604
224 599T200 581T193 543V85Q193 53 201 39T235 18T315 12Q318 12 318 6T315 0Q274 0 251 1L161 2L93 1Q75 0 42 0Q40 0 40 6ZM394 265T371 284T292 303H163V324H295Q348 324 370 340T393 394Q393 396 399 396T405 394L404 313Q404 284 405 269L406 221Q406 219
400 219T394 221Q394 265 371 284Z" />
<glyph unicode="G" glyph-name="G" horiz-adv-x="713" d="M298 -12T217 32T92 151T49 316Q49 413 98 485T232 597T424 636Q477 636 524 626T602 597Q610 593 611 590T613 575L625 457Q625 454 620 453T613 456Q567 620 405 620Q326 620 263 585T163 484T126 331Q126
246 161 171T265 50T435 3Q506 3 535 30T564 125Q564 177 558 197T529 225T450 232Q444 232 444 240Q444 243 445 245T449 248Q527 243 575 243Q622 243 674 246Q676 246 677 244T679 239Q679 232 674 232Q649 233 639 226T626 195T623 115Q623 70 626 51T630 27Q630
21 628 19T619 15Q497 -12 408 -12Q298 -12 217 32Z" />
<glyph unicode="H" glyph-name="H" horiz-adv-x="759" d="M571 572T565 586T540 607T483 613Q480 613 480 619T483 625L531 624Q575 622 604 622Q631 622 673 624L722 625Q725 625 725 619T722 613Q684 613 666 608T642 588T635 544V81Q635 51 641 37T666 17T722
12Q725 12 725 6T722 0Q691 0 673 1L604 2L531 1Q513 0 483 0Q480 0 480 6T483 12Q522 12 540 17T564 36T571 81V542Q571 572 565 586ZM152 336H599V315H152V336ZM123 574T117 588T92 607T36 613Q34 613 34 619T36 625L87 624Q129 622 154 622Q183 622 227 624L275
625Q277 625 277 619T275 613Q237 613 219 607T194 587T187 542V81Q187 51 193 37T218 17T275 12Q277 12 277 6T275 0Q244 0 226 1L154 2L85 1Q67 0 35 0Q33 0 33 6T35 12Q73 12 91 17T116 36T123 81V544Q123 574 117 588Z" />
<glyph unicode="I" glyph-name="I" horiz-adv-x="332" d="M199 50T205 36T228 17T284 12Q287 12 287 6T284 0Q254 0 236 1L165 2L96 1Q78 0 47 0Q44 0 44 6T47 12Q85 12 102 17T126 36T133 81V544Q133 574 127 588T103 607T47 613Q44 613 44 619T47 625L96 624Q138
622 165 622Q195 622 237 624L284 625Q287 625 287 619T284 613Q247 613 229 607T205 587T199 542V81Q199 50 205 36Z" />
<glyph unicode="J" glyph-name="J" horiz-adv-x="322" d="M282 625T282 619T280 613Q247 613 232 607T212 587T206 542V-28Q206 -127 160 -185T27 -244Q-7 -244 -26 -233T-46 -201Q-46 -186 -37 -177T-12 -168Q5 -168 14 -175T33 -198Q42 -212 49 -218T69 -224Q105
-224 122 -183T140 -49V544Q140 574 133 588T106 607T42 613Q40 613 40 619T42 625L100 624Q146 622 172 622Q198 622 236 624L280 625Q282 625 282 619Z" />
<glyph unicode="K" glyph-name="K" horiz-adv-x="650" d="M121 574T115 588T92 607T36 613Q34 613 34 619T36 625L86 624Q128 622 153 622Q182 622 224 624L271 625Q274 625 274 619T271 613Q234 613 217 607T193 587T186 542V81Q186 50 192 36T215 17T271 12Q274
12 274 6T271 0Q241 0 223 1L153 2L85 1Q67 0 35 0Q33 0 33 6T35 12Q73 12 90 17T114 36T121 81V544Q121 574 115 588ZM213 345L263 385L409 199Q482 104 520 65T580 19T641 12Q644 12 644 6T641 0H529Q521 0 501 0T443 50T372 145L213 345ZM433 577T433 593Q433
613 374 613Q372 613 372 619T374 625L417 624Q457 622 490 622Q523 622 559 624L596 625Q599 625 599 619T596 613Q555 613 509 595T423 538L167 287H142L400 544Q433 577 433 593Z" />
<glyph unicode="L" glyph-name="L" horiz-adv-x="533" d="M185 56T191 43T213 26T265 21H374Q431 21 465 56T510 153Q510 156 515 156T521 152Q512 69 512 15Q512 7 509 4T497 0H35Q33 0 33 6T35 12Q73 12 90 17T114 36T120 81V544Q120 574 114 588T91 607T35
613Q33 613 33 619T35 625L84 624Q126 622 152 622Q180 622 222 624L270 625Q273 625 273 619T270 613Q233 613 215 608T191 588T185 543V85Q185 56 191 43Z" />
<glyph unicode="M" glyph-name="M" horiz-adv-x="835" d="M129 602L153 600L143 109Q142 56 161 34T228 12Q230 12 230 6T228 0Q200 0 185 1L131 2L79 1Q65 0 39 0Q37 0 37 6T39 12Q81 12 99 34T119 109L129 602ZM815 12T815 6T812 0Q781 0 763 1L694 2L630 1Q614
0 585 0Q583 0 583 6T585 12Q619 12 635 17T657 37T661 81L642 564L675 610L415 7Q413 3 407 3Q402 3 398 7L147 542Q130 579 106 596T46 613Q44 613 44 619T46 625L83 624Q93 623 111 623Q129 623 141 624T161 625Q174 625 182 616T207 573L435 93L404 41L648
600Q659 625 678 625Q683 625 692 624T718 623L765 624Q776 625 798 625Q800 625 800 619T798 613Q747 613 726 599T706 544L726 81Q727 50 733 36T757 17T812 12Q815 12 815 6Z" />
<glyph unicode="N" glyph-name="N" horiz-adv-x="727" d="M120 602L143 600V109Q143 57 161 35T221 12Q224 12 224 6T221 0Q196 0 183 1L133 2L82 1Q68 0 41 0Q39 0 39 6T41 12Q84 12 102 34T120 109V602ZM624 -14T619 -15T612 -14L152 543Q120 582 94 597T41
613Q38 613 38 619T41 625L78 624Q90 623 111 623Q133 623 147 624T169 625Q176 625 180 622T191 607Q203 589 216 573L616 82L624 -12Q624 -14 619 -15ZM624 -12L601 19V515Q601 567 584 590T525 613Q523 613 523 619T525 625L564 624Q594 622 613 622Q631 622
663 624L704 625Q707 625 707 619T704 613Q662 613 643 590T624 515V-12Z" />
<glyph unicode="O" glyph-name="O" horiz-adv-x="766" d="M273 -12T201 31T89 149T49 312Q49 415 101 488T234 599T401 636Q496 636 568 592T678 474T717 319Q717 228 669 152T541 32T366 -12Q273 -12 201 31ZM469 9T523 42T609 138T641 291Q641 385 606 458T508
572T359 613Q249 613 187 542T125 347Q125 253 160 176T258 54T401 9Q469 9 523 42Z" />
<glyph unicode="P" glyph-name="P" horiz-adv-x="543" d="M192 53T200 39T233 18T311 12Q314 12 314 6T311 0Q270 0 247 1L160 2L93 1Q74 0 42 0Q40 0 40 6T42 12Q80 12 97 17T121 36T127 81V544Q127 574 121 588T98 607T42 613Q40 613 40 619T42 625L92 624Q134
622 159 622Q184 622 215 625Q227 625 253 626T298 628Q390 628 445 587T501 462Q501 396 469 351T385 284T280 262Q251 262 232 267Q229 267 229 272Q229 275 230 278T234 280Q250 276 270 276Q336 276 381 319T427 443Q427 522 384 567T274 613Q238 613 222 609T199
591T192 542V85Q192 53 200 39Z" />
<glyph unicode="Q" glyph-name="Q" horiz-adv-x="766" d="M490 -42T532 -80T621 -141T709 -163Q727 -163 745 -161H746Q748 -161 749 -165T749 -171Q698 -183 664 -183Q592 -183 513 -134T377 2L463 7Q490 -42 532 -80ZM273 -12T201 31T89 149T49 312Q49 415 101
488T234 599T401 636Q496 636 568 592T678 474T717 319Q717 228 669 152T541 32T366 -12Q273 -12 201 31ZM469 9T523 42T609 138T641 291Q641 385 606 458T508 572T359 613Q249 613 187 542T125 347Q125 253 160 176T258 54T401 9Q469 9 523 42Z" />
<glyph unicode="R" glyph-name="R" horiz-adv-x="673" d="M529 0T459 85T289 321L345 338Q432 213 490 144T594 43T682 12Q685 12 685 6T682 0H554Q529 0 459 85ZM381 628T424 592T467 496Q467 443 436 400T353 331T240 305Q234 305 195 308V81Q195 50 201 36T224
17T280 12Q283 12 283 6T280 0Q249 0 231 1L162 2L94 1Q76 0 43 0Q41 0 41 6T43 12Q81 12 99 17T124 37T131 81V544Q131 574 125 588T101 607T45 613Q42 613 42 619T45 625L94 624Q136 622 162 622Q184 622 203 623T235 625Q273 628 302 628Q381 628 424 592ZM399
545T365 579T264 613Q225 613 210 599T195 542V332Q219 328 254 328Q332 328 365 362T399 467Q399 545 365 579Z" />
<glyph unicode="S" glyph-name="S" horiz-adv-x="491" d="M145 469T164 440T210 392T286 342Q338 311 367 290T416 237T437 159Q437 111 413 72T343 11T231 -12Q154 -12 90 23Q85 26 84 30T81 42L68 178Q67 182 72 183T79 180Q94 109 138 57T254 4Q304 4 338 31T373
119Q373 164 353 197T305 251T227 302Q179 331 152 352T105 405T86 480Q86 530 112 565T181 618T272 636Q331 636 389 612Q404 607 404 595L411 481Q411 476 406 476T399 480Q392 532 357 576T256 621Q200 621 173 589T145 508Q145 469 164 440Z" />
<glyph unicode="T" glyph-name="T" horiz-adv-x="634" d="M126 607T95 575T49 466Q49 464 44 464T38 466Q42 502 47 560T52 647Q52 652 57 652T63 647Q63 625 117 625Q203 622 318 622Q377 622 443 624L511 625Q547 625 564 630T587 650Q588 654 593 654T598 650Q595
621 592 562T589 466Q589 464 583 464T577 466Q574 544 545 575T449 607Q404 607 385 603T359 586T352 542V81Q352 50 359 36T386 17T449 12Q452 12 452 6T449 0Q416 0 396 1L318 2L243 1Q223 0 188 0Q186 0 186 6T188 12Q231 12 251 17T278 36T286 81V544Q286
575 279 587T253 603T188 607Q126 607 95 575Z" />
<glyph unicode="U" glyph-name="U" horiz-adv-x="698" d="M572 613T485 613Q482 613 482 619T485 625L528 624Q564 622 585 622Q602 622 634 624L676 625Q678 625 678 619T676 613Q596 613 596 515V231Q596 116 532 52T360 -13Q286 -13 231 16T145 98T114 224V544Q114
574 108 588T85 607T29 613Q27 613 27 619T29 625L78 624Q120 622 146 622Q173 622 217 624L263 625Q266 625 266 619T263 613Q226 613 209 607T185 587T179 542V259Q179 141 232 79T382 17Q472 17 522 73T572 230V515Q572 613 485 613Z" />
<glyph unicode="V" glyph-name="V" horiz-adv-x="666" d="M672 625T672 619T669 613Q635 613 610 595T568 534L355 1Q354 -3 344 -3Q336 -3 333 1L84 542Q67 581 48 597T-1 613Q-4 613 -4 619T-1 625L37 624Q65 622 82 622Q121 622 167 624L209 625Q212 625 212
619T209 613Q147 613 147 579Q147 566 156 546L372 73L341 27L545 540Q553 559 553 572Q553 593 534 603T475 613Q472 613 472 619T475 625L518 624Q552 622 580 622Q601 622 627 624L669 625Q672 625 672 619Z" />
<glyph unicode="W" glyph-name="W" horiz-adv-x="931" d="M354 -3T344 -3Q336 -3 333 1L84 542Q66 582 48 597T-1 613Q-4 613 -4 619T-1 625L37 624Q65 622 82 622Q118 622 160 624L201 625Q204 625 204 619T201 613Q171 613 157 606T142 582Q142 567 152 546L374
69L338 21L469 348L484 326L355 1Q354 -3 344 -3ZM937 625T937 619T935 613Q901 613 876 595T833 534L620 1Q619 -3 609 -3Q601 -3 598 1L350 542Q332 581 314 597T267 613Q264 613 264 619T267 625L305 624Q331 622 348 622Q376 622 406 624L433 625Q436 625 436
619T433 613Q415 613 407 610T399 597Q399 585 417 546L640 69L604 21L811 538Q819 559 819 571Q819 593 801 603T743 613Q740 613 740 619T743 625L785 624Q819 622 846 622Q866 622 892 624L935 625Q937 625 937 619ZM562 567T562 584Q562 613 519 613Q516 613
516 619T519 625L542 624Q562 622 584 622Q604 622 630 624L671 625Q673 625 673 619T671 613Q637 613 614 596T572 534L489 326L474 348L550 540Q562 567 562 584Z" />
<glyph unicode="X" glyph-name="X" horiz-adv-x="652" d="M411 0T411 6T413 12Q440 12 452 16T464 29Q464 38 455 51L133 540Q107 580 82 596T21 613Q19 613 19 619T21 625L59 624Q85 622 97 622Q131 622 179 624L231 625Q234 625 234 619T231 613Q205 613 193
609T180 595Q180 587 189 573L513 83Q539 44 566 28T635 12Q637 12 637 6T635 0Q609 0 594 1L539 2L462 1Q444 0 413 0Q411 0 411 6ZM14 0T14 6T17 12Q86 12 153 103L304 310L316 299L175 102Q152 68 152 47Q152 12 211 12Q214 12 214 6T211 0Q181 0 165 1L96 2L54
1Q43 0 17 0Q14 0 14 6ZM319 325L454 516Q481 554 481 578Q481 613 425 613Q422 613 422 619T425 625L470 624Q508 622 539 622Q557 622 581 624L618 625Q621 625 621 619T618 613Q585 613 549 588T477 514L332 315L319 325Z" />
<glyph unicode="Y" glyph-name="Y" horiz-adv-x="609" d="M473 553T473 577Q473 613 419 613Q417 613 417 619T419 625L466 624Q504 622 536 622Q553 622 577 624L614 625Q616 625 616 619T614 613Q578 613 541 587T475 514L318 273L301 288L451 518Q473 553 473
577ZM82 579T57 596T-1 613Q-4 613 -4 619T-1 625Q11 625 35 623L70 622Q104 622 156 624L210 625Q212 625 212 619T210 613Q158 613 158 592Q158 581 168 568L339 317L290 272L110 536Q82 579 57 596ZM341 319V81Q341 50 347 36T370 17T426 12Q429 12 429 6T426
0Q395 0 378 1L308 2L239 1Q221 0 190 0Q187 0 187 6T190 12Q228 12 245 17T269 36T276 81V310L341 319Z" />
<glyph unicode="Z" glyph-name="Z" horiz-adv-x="595" d="M453 606Q453 608 445 608Q266 608 201 603T111 576T64 497Q64 495 60 495Q57 495 54 496T52 499L92 655Q92 656 96 656Q106 656 104 653Q103 650 103 645Q103 633 114 629T161 625H526Q530 625 532 621T533
612L143 27L140 21Q140 19 148 19H403Q470 19 505 47T551 135Q552 137 557 137T562 135L548 8Q548 5 546 2T539 -2Q390 0 61 0Q56 0 54 4T55 13L450 600L453 606Z" />
<glyph unicode="[" glyph-name="bracketleft" horiz-adv-x="274" d="M89 722T90 723T98 725H236Q239 725 239 719T236 713Q197 713 179 707T154 687T147 642V-34Q147 -64 153 -78T178 -99T236 -105Q239 -105 239 -111T236 -117H98Q92 -117 91 -115T89 -106V715Q89
722 90 723Z" />
<glyph unicode="\" glyph-name="backslash" horiz-adv-x="341" d="M24 723T42 729T63 730L315 -152Q317 -156 298 -161T277 -163L26 718Q24 723 42 729Z" />
<glyph unicode="]" glyph-name="bracketright" horiz-adv-x="274" d="M185 -113T184 -115T176 -117H38Q35 -117 35 -111T38 -105Q77 -105 95 -99T120 -79T127 -34V642Q127 672 121 686T96 707T38 713Q35 713 35 719T38 725H176Q182 725 183 724T185 715V-106Q185
-113 184 -115Z" />
<glyph unicode="^" glyph-name="asciicircum" horiz-adv-x="392" d="M333 379Q333 377 329 375T324 375L196 547L68 375Q67 374 65 374Q63 374 60 376T58 380L185 629Q186 634 196 634Q206 634 207 629L333 380V379Z" />
<glyph unicode="_" glyph-name="underscore" horiz-adv-x="398" d="M32 -76T31 -70T29 -55Q29 -48 30 -42T33 -36H364Q366 -36 367 -42T369 -56Q369 -63 368 -69T364 -76H34Q32 -76 31 -70Z" />
<glyph unicode="`" glyph-name="grave" horiz-adv-x="213" d="M41 731T50 731Q63 731 82 726T103 716L154 476Q156 474 151 473T144 474L42 727Q41 731 50 731Z" />
<glyph unicode="a" glyph-name="a" horiz-adv-x="419" d="M310 -8T306 -8Q291 -8 280 15T269 76V265Q269 377 206 377Q172 377 155 355T131 303Q127 284 120 273T93 262Q77 262 69 271T60 292Q60 316 91 340T165 380T242 396Q283 396 304 370T325 295V108Q325
73 334 57T363 41Q383 41 413 54H415Q419 54 420 50T417 43L314 -6Q310 -8 306 -8ZM97 -7T77 12T56 62Q56 92 80 114T159 156L279 201L282 188L176 147Q148 136 136 122T123 87Q123 63 138 47T179 30Q199 30 227 46L290 84L292 71L218 23Q193 7 174 0T134 -7Q97
-7 77 12Z" />
<glyph unicode="b" glyph-name="b" horiz-adv-x="510" d="M168 -13T103 42L150 131Q150 88 171 60T224 19T284 6Q342 6 374 51T407 180Q407 270 372 318T279 366Q241 366 208 344T138 283L130 290Q173 339 214 369T312 399Q355 399 392 378T451 316T473 214Q473
142 442 91T360 13T253 -13Q168 -13 103 42ZM39 -5Q35 -5 34 -1T36 5Q68 27 81 46T94 103V597Q94 633 87 649T61 665Q47 665 16 652H14Q11 652 10 657T11 663L136 724L141 725Q144 725 147 723T150 717V46L41 -5H39Z" />
<glyph unicode="c" glyph-name="c" horiz-adv-x="411" d="M166 -12T122 16T57 90T36 185Q36 249 68 296T150 369T254 395Q298 395 334 378T371 334Q371 321 362 312T336 302Q309 302 292 335Q279 355 264 365T221 375Q165 375 134 332T102 215Q102 131 144 77T270
23Q331 23 372 56H373Q376 56 378 53T379 48Q344 17 309 3T231 -12Q166 -12 122 16Z" />
<glyph unicode="d" glyph-name="d" horiz-adv-x="512" d="M150 -13T115 11T58 78T36 178Q36 249 71 299T159 374T264 399Q333 399 386 354L375 287Q348 331 316 355T237 379Q174 379 138 335T101 208Q101 153 118 111T164 46T231 23Q272 23 306 45T377 108L385
101Q339 49 295 18T192 -13Q150 -13 115 11ZM416 74T424 58T452 42Q481 42 504 56L506 57Q510 57 511 52T510 45L400 -7Q396 -9 392 -9Q379 -9 370 15T360 81V597Q360 633 353 649T327 665Q314 665 281 651H279Q275 651 274 655T275 662L402 724Q404 725 407 725Q410
725 413 723T416 717V110Q416 74 424 58Z" />
<glyph unicode="e" glyph-name="e" horiz-adv-x="408" d="M161 -12T120 15T58 86T36 180Q36 239 64 288T140 366T247 395Q303 395 333 365T363 281Q363 267 361 261T351 255H295L296 273Q296 323 274 349T214 375Q161 375 132 333T102 218Q102 131 143 77T258
23Q288 23 309 31T358 56H359Q362 56 364 53T365 46Q297 -12 219 -12Q161 -12 120 15ZM83 267L310 271V255L84 254L83 267Z" />
<glyph unicode="f" glyph-name="f" horiz-adv-x="305" d="M29 0T29 6T32 12Q62 12 76 17T95 37T101 81V306Q101 332 96 342T77 356T28 360Q25 360 25 366T28 373Q69 373 83 382T99 418Q104 580 158 653T319 726Q370 726 402 711T435 673Q435 658 425 650T400 641Q388
641 380 647T361 667Q345 688 328 698T284 709Q226 709 192 642T158 439V81Q158 50 165 36T192 17T256 12Q259 12 259 6T256 0L192 1Q171 2 128 2L72 1Q58 0 32 0Q29 0 29 6ZM219 353T133 353V375Q194 375 286 385Q289 385 291 378T293 361Q293 353 290 345T283
337Q219 353 133 353Z" />
<glyph unicode="g" glyph-name="g" horiz-adv-x="445" d="M111 -280T72 -250T32 -170Q32 -80 185 7L196 -6Q144 -32 117 -60T89 -137Q89 -189 123 -219T221 -250Q290 -250 334 -214T378 -116Q378 -76 359 -58T308 -34T219 -29Q164 -28 131 -24T78 -5T57 43Q57
75 76 100T140 158L151 149Q127 130 117 114T107 79Q107 56 122 44T170 28T266 23Q311 23 345 18T403 -10T428 -78Q428 -132 393 -178T301 -252T180 -280Q111 -280 72 -250ZM162 133T128 150T75 198T57 263Q57 319 101 356T216 393Q267 393 300 375T350 327T366
265Q366 230 347 200T292 151T209 133Q162 133 128 150ZM262 148T282 171T303 243Q303 305 271 341T192 378Q157 378 138 356T118 287Q118 242 134 211T175 164T228 148Q262 148 282 171ZM336 373T364 383T427 394Q429 394 430 387T432 372Q432 360 430 348T423
338Q406 345 391 349T356 353Q336 353 310 346L301 318L302 351Q336 373 364 383Z" />
<glyph unicode="h" glyph-name="h" horiz-adv-x="499" d="M23 0T23 6T26 12Q53 12 66 17T84 37T89 81V598Q89 634 82 650T57 666Q42 666 11 652L9 651Q6 651 4 656T6 663L133 725H136Q140 725 142 723T145 717V81Q145 51 150 37T168 18T208 12Q211 12 211 6T208
0Q185 0 171 1L117 2L63 1Q49 0 26 0Q23 0 23 6ZM292 0T292 6T295 12Q322 12 335 17T353 37T358 81V240Q358 299 336 328T266 357Q229 357 191 334T126 270L122 282Q167 341 209 368T299 396Q354 396 384 365T414 275V81Q414 51 419 37T437 18T477 12Q480 12 480
6T477 0Q454 0 440 1L386 2L332 1Q318 0 295 0Q292 0 292 6Z" />
<glyph unicode="i" glyph-name="i" horiz-adv-x="273" d="M51 0T51 6T53 12Q80 12 93 17T112 37T117 81V268Q117 304 110 320T84 336Q66 336 39 322H38Q34 322 32 327T33 334L163 394L167 395Q169 395 172 393T175 387Q175 380 174 347T173 269V81Q173 51 178
37T196 18T236 12Q239 12 239 6T236 0Q213 0 199 1L145 2L91 1Q77 0 53 0Q51 0 51 6ZM117 512T105 523T93 554Q93 574 105 585T137 596Q157 596 168 585T179 554Q179 534 168 523T137 512Q117 512 105 523Z" />
<glyph unicode="j" glyph-name="j" horiz-adv-x="257" d="M166 380T165 347T164 269V-48Q164 -116 151 -159T108 -232T24 -282Q22 -283 20 -278T19 -271Q68 -250 88 -204T108 -71V268Q108 304 101 320T77 336Q59 336 31 322H30Q25 322 23 327T25 334L155 394L158
395Q161 395 163 393T166 387Q166 380 165 347ZM108 512T96 523T84 554Q84 574 96 585T128 596Q148 596 159 585T170 554Q170 534 159 523T128 512Q108 512 96 523Z" />
<glyph unicode="k" glyph-name="k" horiz-adv-x="491" d="M23 0T23 6T26 12Q53 12 66 17T84 37T89 81V598Q89 634 82 650T57 666Q42 666 11 652H9Q6 652 4 657T6 663L131 724L136 725Q139 725 142 723T145 717V81Q145 51 150 37T168 18T208 12Q211 12 211 6T208
0Q185 0 171 1L117 2L63 1Q49 0 26 0Q23 0 23 6ZM275 0T275 6T277 12Q327 12 327 31Q327 40 318 53L191 226L238 260L368 81Q418 12 483 12Q486 12 486 6T483 0Q460 0 446 1L392 2L320 1Q304 0 277 0Q275 0 275 6ZM123 179L279 305Q311 330 311 349Q311 374 254
374Q251 374 251 380T254 386Q281 386 295 385L368 384L435 385Q448 386 471 386Q474 386 474 380T471 374Q434 374 389 356T299 302L127 167L123 179Z" />
<glyph unicode="l" glyph-name="l" horiz-adv-x="258" d="M37 0T37 6T40 12Q67 12 80 17T98 37T103 81V598Q103 634 96 650T71 666Q56 666 25 652H23Q20 652 19 657T20 663L148 724Q150 725 153 725Q156 725 159 723T162 717V81Q162 52 166 38T184 18T224 12Q227
12 227 6T224 0Q202 0 188 1L132 2L78 1Q64 0 40 0Q37 0 37 6Z" />
<glyph unicode="m" glyph-name="m" horiz-adv-x="763" d="M557 0T557 6T560 12Q587 12 600 17T618 37T623 81V240Q623 299 602 328T537 357Q502 357 466 334T403 270L399 282Q441 341 482 368T570 396Q623 396 651 366T679 275V81Q679 51 684 37T702 18T742 12Q745
12 745 6T742 0Q719 0 705 1L651 2L597 1Q583 0 560 0Q557 0 557 6ZM299 0T299 6T302 12Q329 12 342 17T359 37T364 81V240Q364 299 343 328T279 357Q243 357 207 334T145 270L141 282Q183 341 224 368T311 396Q364 396 392 366T421 277V81Q421 51 426 37T444 18T484
12Q487 12 487 6T484 0Q461 0 447 1L393 2L338 1Q325 0 302 0Q299 0 299 6ZM42 0T42 6T45 12Q72 12 85 17T102 37T107 81V279Q107 313 99 328T72 343Q56 343 18 328H16Q12 328 11 332T13 339L129 394Q131 395 135 395Q144 395 154 372T164 313V81Q164 51 168 37T186
18T226 12Q229 12 229 6T226 0Q203 0 190 1L136 2L81 1Q68 0 45 0Q42 0 42 6Z" />
<glyph unicode="n" glyph-name="n" horiz-adv-x="517" d="M311 0T311 6T314 12Q341 12 354 17T371 37T376 81V243Q376 303 354 330T284 358Q247 358 210 335T145 272L141 284Q185 343 228 371T317 399Q372 399 402 368T433 277V81Q433 51 437 37T455 18T495 12Q498
12 498 6T495 0Q472 0 459 1L405 2L350 1Q337 0 314 0Q311 0 311 6ZM42 0T42 6T45 12Q72 12 85 17T102 37T107 81V279Q107 313 99 328T72 343Q56 343 18 328H16Q12 328 11 332T13 339L129 394Q131 395 135 395Q144 395 154 372T164 313V81Q164 51 168 37T186 18T226
12Q229 12 229 6T226 0Q203 0 190 1L136 2L81 1Q68 0 45 0Q42 0 42 6Z" />
<glyph unicode="o" glyph-name="o" horiz-adv-x="479" d="M173 -13T129 15T60 92T36 198Q36 263 67 308T148 376T249 399Q308 399 352 370T419 294T443 193Q443 131 414 85T337 13T231 -13Q173 -13 129 15ZM315 6T345 45T375 165Q375 227 355 276T298 352T216
380Q162 380 133 341T103 229Q103 168 123 117T179 36T260 6Q315 6 345 45Z" />
<glyph unicode="p" glyph-name="p" horiz-adv-x="511" d="M29 -275T29 -269T32 -263Q59 -263 72 -258T90 -238T95 -194V276Q95 312 87 327T59 343Q37 343 6 329L4 328Q0 328 -1 333T0 340L111 393Q113 394 118 394Q132 394 141 371T151 305V-194Q151 -224 158
-238T186 -257T251 -263Q253 -263 253 -269T251 -275Q217 -275 197 -274L124 -273L69 -274Q55 -275 32 -275Q29 -275 29 -269ZM218 -13T189 -4T125 30L139 85Q170 47 203 28T287 8Q340 8 374 54T408 184Q408 268 371 314T277 361Q237 361 205 340T134 278L126 286Q177
344 224 371T319 399Q360 399 395 377T451 313T472 215Q472 140 438 89T355 12T257 -13Q218 -13 189 -4Z" />
<glyph unicode="q" glyph-name="q" horiz-adv-x="488" d="M150 -13T114 9T57 72T36 171Q36 250 68 301T150 375T254 399Q328 399 399 356L353 269Q353 320 317 350T223 380Q102 380 102 204Q102 117 136 69T226 20Q263 20 296 42T367 103L375 96Q330 46 289 17T192
-13Q150 -13 114 9ZM272 -275T272 -269T274 -263Q308 -263 324 -258T347 -238T353 -194V352L453 388L455 389Q458 389 459 385T457 379Q433 365 421 346T409 295V-194Q409 -224 414 -238T432 -257T473 -263Q475 -263 475 -269T473 -275Q448 -275 434 -274L380 -273L321
-274Q304 -275 274 -275Q272 -275 272 -269Z" />
<glyph unicode="r" glyph-name="r" horiz-adv-x="364" d="M192 348T221 371T275 395Q297 395 317 383T337 354Q337 341 328 332T304 323Q295 323 289 326T273 337Q264 345 256 349T237 353Q222 353 204 338T143 271L139 282Q192 348 221 371ZM42 0T42 6T45 12Q72
12 85 17T102 37T107 81V279Q107 313 99 328T72 343Q56 343 18 328H16Q12 328 11 332T13 339L129 394Q131 395 135 395Q144 395 154 372T164 313V81Q164 51 171 37T199 18T261 12Q265 12 265 6T261 0Q229 0 210 1L136 2L81 1Q68 0 45 0Q42 0 42 6Z" />
<glyph unicode="s" glyph-name="s" horiz-adv-x="338" d="M100 290T123 270T191 226Q226 208 245 195T279 161T293 110Q293 59 255 24T152 -11Q99 -11 56 19Q50 23 50 31L48 109Q48 112 53 112T60 110Q79 59 109 34T180 8Q211 8 228 22T246 66Q246 94 234 113T203
144T154 172Q121 188 102 201T69 235T55 287Q55 341 95 369T191 398Q231 398 264 383Q270 381 271 379T273 372Q273 352 272 341L271 299Q271 297 265 297T259 299Q259 331 226 355T155 379Q129 379 115 366T100 325Q100 290 123 270Z" />
<glyph unicode="t" glyph-name="t" horiz-adv-x="338" d="M146 -12T119 7T92 70V305Q92 331 89 342T75 356T41 360Q37 360 37 366T41 373Q81 374 106 394T135 449Q135 452 143 452Q150 452 150 449V104Q150 23 229 23Q275 23 309 51L311 52Q315 52 317 48T316
41Q279 12 250 0T188 -12Q146 -12 119 7ZM221 353T133 353V375Q196 375 289 385Q291 385 293 378T296 361Q296 353 293 345T285 337Q221 353 133 353Z" />
<glyph unicode="u" glyph-name="u" horiz-adv-x="493" d="M132 -8T104 23T76 115V268Q76 307 69 324T46 342Q32 342 12 332H11Q7 332 5 337T7 344L118 394L122 395Q125 395 128 393T132 387V148Q132 32 216 32Q254 32 293 55T360 117L365 106Q320 47 275 20T182
-8Q132 -8 104 23ZM397 73T405 58T432 43Q449 43 485 57H487Q491 57 492 53T490 46L373 -9L369 -10Q359 -10 350 13T341 73V268Q341 308 335 325T311 342Q297 342 277 332H276Q272 332 271 337T273 344L384 394L387 395Q390 395 393 393T397 387V107Q397 73 405
58Z" />
<glyph unicode="v" glyph-name="v" horiz-adv-x="434" d="M433 386T433 380T431 374Q405 374 388 358T354 301L229 1Q227 -4 218 -4Q209 -4 207 1L67 303Q47 346 34 360T0 374Q-3 374 -3 380T0 386Q20 386 31 385L69 384L134 385Q149 386 174 386Q177 386 177
380T174 374Q114 374 114 350Q114 343 118 335L246 63L217 22L334 306Q341 325 341 335Q341 355 322 364T262 374Q260 374 260 380T262 386Q289 386 303 385L363 384L398 385Q408 386 431 386Q433 386 433 380Z" />
<glyph unicode="w" glyph-name="w" horiz-adv-x="671" d="M283 346T270 360T238 374Q236 374 236 380T238 386Q258 386 268 385L305 384L370 385Q384 386 408 386Q411 386 411 380T408 374Q350 374 350 350Q350 343 354 335L482 62L454 22L570 306Q577 321 577
335Q577 355 558 364T498 374Q496 374 496 380T498 386Q525 386 539 385L599 384L635 385Q645 386 666 386Q669 386 669 380T666 374Q642 374 625 358T590 301L465 1Q464 -3 454 -3Q444 -3 443 1L303 303Q283 346 270 360ZM47 346T34 360T0 374Q-3 374 -3 380T0
386Q20 386 31 385L69 384L129 385Q144 386 172 386Q175 386 175 380T172 374Q144 374 129 369T114 350Q114 343 118 335L247 62L217 22L326 285L343 274L229 1Q228 -3 218 -3Q208 -3 207 1L67 303Q47 346 34 360Z" />
<glyph unicode="x" glyph-name="x" horiz-adv-x="439" d="M256 0T256 6T259 12Q277 12 284 14T292 24Q292 33 280 51L113 303Q89 340 63 357T16 374Q14 374 14 380T16 386Q37 386 47 385L78 384L142 385Q156 386 181 386Q183 386 183 380T181 374Q164 374 156
372T148 362Q148 355 161 335L328 83Q353 45 379 29T427 12Q429 12 429 6T427 0L395 1Q384 2 363 2L299 1Q284 0 259 0Q256 0 256 6ZM11 0T11 6T13 12Q39 12 69 31T126 86L206 197L218 187L144 80Q124 50 124 36Q124 24 137 18T181 12Q184 12 184 6T181 0Q154 0
141 1L81 2L45 1Q35 0 13 0Q11 0 11 6ZM211 203L281 306Q302 337 302 351Q302 363 289 368T244 374Q242 374 242 380T244 386Q271 386 285 385L345 384L381 385Q391 386 413 386Q415 386 415 380T413 374Q386 374 357 356T300 300L221 193L211 203Z" />
<glyph unicode="y" glyph-name="y" horiz-adv-x="435" d="M434 386T434 380T431 374Q406 374 388 357T354 297L232 -28Q195 -125 163 -179T96 -257T16 -281Q-6 -281 -20 -271T-35 -242Q-35 -228 -26 -220T-4 -212Q9 -212 18 -215T37 -225Q39 -226 48 -231T72 -236Q97
-236 119 -214T166 -138T228 10L227 -18L69 303Q46 347 34 360T3 374Q1 374 1 380T3 386L37 385Q49 384 70 384L134 385Q148 386 173 386Q175 386 175 380T173 374Q115 374 115 351Q115 345 120 335L257 53L234 12L332 294Q340 318 340 332Q340 355 322 364T263
374Q261 374 261 380T263 386Q290 386 304 385L364 384L400 385Q410 386 431 386Q434 386 434 380Z" />
<glyph unicode="z" glyph-name="z" horiz-adv-x="405" d="M285 373T277 373Q199 373 156 367T89 341T53 284Q53 282 49 282Q46 282 44 283T42 286L76 415Q77 417 82 417T87 414Q86 411 86 406Q86 394 97 390T135 386H347Q351 386 353 382T355 374L119 22Q115 15
124 15Q222 15 263 21T324 46T358 114Q359 116 364 116T369 114L367 11Q367 7 365 4T358 0H49Q45 0 43 4T42 12L282 366Q285 373 277 373Z" />
<glyph unicode="{" glyph-name="braceleft" horiz-adv-x="289" d="M29 298T29 304T32 311Q80 317 96 376T112 529Q112 615 123 655T162 710T250 725Q254 725 254 719T250 713Q214 713 195 686T173 607Q171 484 165 435T138 357T64 305Q116 281 137 252T165 173T173
1Q175 -50 194 -77T250 -105Q254 -105 254 -111T250 -117Q190 -117 162 -103T123 -47T112 80Q112 175 96 233T32 298Q29 298 29 304Z" />
<glyph unicode="|" glyph-name="bar" horiz-adv-x="168" d="M66 738T86 738Q105 738 105 731V-154Q105 -158 99 -160T86 -162Q78 -162 72 -160T66 -154V731Q66 738 86 738Z" />
<glyph unicode="}" glyph-name="braceright" horiz-adv-x="283" d="M203 292T187 234T171 80Q171 -6 161 -47T122 -102T33 -117Q29 -117 29 -111T33 -105Q69 -105 88 -78T110 1Q112 123 118 172T145 251T219 305Q166 328 145 356T118 434T110 607Q108 658 89 685T33
713Q29 713 29 719T33 725Q92 725 120 711T160 656T171 529Q171 435 187 376T251 311Q254 311 254 305T251 298Q203 292 187 234Z" />
<glyph unicode="~" glyph-name="asciitilde" horiz-adv-x="443" d="M341 198T356 207T389 236L391 237Q393 237 395 234T396 229Q361 184 339 169T290 153Q271 153 254 157T212 171Q186 180 168 184T130 189Q106 189 94 183T71 166T55 151H54Q52 151 50 153T48
158Q105 234 161 234Q184 234 229 217Q256 208 274 203T313 198Q341 198 356 207Z" />
<glyph unicode="&#xa0;" glyph-name="uni00A0" horiz-adv-x="234" />
<glyph unicode="&#xa1;" glyph-name="exclamdown" horiz-adv-x="247" d="M170 -270T155 -272T123 -275Q106 -275 92 -273T78 -266Q94 -180 102 -82T118 165Q118 168 126 168Q133 168 133 165Q138 29 145 -75T169 -266Q170 -270 155 -272ZM148 365T160 353T172
322Q172 303 160 292T128 280Q107 280 96 291T85 322Q85 342 96 353T128 365Q148 365 160 353Z" />
<glyph unicode="&#xa2;" glyph-name="cent" d="M276 565T279 567T287 569Q292 569 295 567T298 561V-102Q298 -109 287 -109Q276 -109 276 -102V561Q276 565 279 567ZM349 480T392 473T463 451Q470 448 472 445T475 434L485 331Q485 328 480 327T473 330Q455 399
408 432T290 465Q238 465 196 437T131 361T107 251Q107 189 131 132T202 38T317 2Q378 2 420 36T482 140Q482 143 487 143Q489 143 491 142T494 139L481 33Q480 25 478 22T467 15Q390 -12 307 -12Q212 -12 151 26T63 121T36 236Q36 304 72 360T171 448T311 480Q349
480 392 473Z" />
<glyph unicode="&#xa3;" glyph-name="sterling" horiz-adv-x="432" d="M295 42T316 48T349 71T368 124Q368 126 374 126T380 123Q371 73 371 15Q371 7 368 4T356 0H31Q29 0 29 5T31 12Q82 25 100 46T119 104Q119 142 113 170T95 233Q86 262 81 284T76 332Q76 406
125 443T246 480Q292 480 336 464Q351 460 352 445L359 344Q359 340 354 340Q348 340 347 344Q338 394 310 430T233 466Q183 466 160 436T137 364Q137 337 142 314T157 256Q167 220 172 197T177 147Q177 103 160 78T110 30L99 42H251Q295 42 316 48ZM281 241T281
230Q281 219 274 219H53Q50 219 48 222T46 230Q46 235 48 238T53 241H274Q281 241 281 230Z" />
<glyph unicode="&#xa4;" glyph-name="currency" horiz-adv-x="414" d="M78 36L55 59L108 114L128 93L78 36ZM50 343L78 368L130 312L104 289L50 343ZM362 63L334 36L282 95L307 118L362 63ZM339 365L361 343L308 289L287 310L339 365ZM155 65T124 84T77 136T61
202Q61 244 84 274T141 320T211 335Q269 335 309 297T349 201Q349 160 327 129T270 82T196 65Q155 65 124 84ZM250 83T271 108T292 180Q292 235 264 276T188 317Q154 317 135 293T115 223Q115 168 140 126T215 83Q250 83 271 108Z" />
<glyph unicode="&#xa5;" glyph-name="yen" horiz-adv-x="481" d="M380 153T380 143Q380 132 373 132H103Q96 132 96 143Q96 153 103 153H373Q380 153 380 143ZM380 213T380 203Q380 192 373 192H103Q96 192 96 203Q96 213 103 213H373Q380 213 380 203ZM348 398T348
418Q348 436 337 446T306 456Q303 456 303 462T306 468L347 467Q381 465 409 465Q423 465 443 467L471 468Q474 468 474 462T471 456Q439 456 409 433T352 366L249 194L233 196L331 367Q348 398 348 418ZM71 424T50 440T-3 456Q-5 456 -5 462T-3 468Q8 468 30 466L62
465Q93 465 139 467L188 468Q191 468 191 462T188 456Q144 456 144 435Q144 427 153 413L270 235L221 195L97 385Q71 424 50 440ZM270 50T276 36T299 17T356 12Q358 12 358 6T356 0Q325 0 308 1L239 2L173 1Q154 0 121 0Q119 0 119 6T121 12Q159 12 177 17T201
36T208 81V141H270V81Q270 50 276 36ZM208 228L270 237V200H208V228Z" />
<glyph unicode="&#xa6;" glyph-name="brokenbar" horiz-adv-x="168" d="M66 220T72 222T86 224Q93 224 99 222T105 216V-154Q105 -158 99 -160T86 -162Q78 -162 72 -160T66 -154V216Q66 220 72 222ZM66 738T86 738Q105 738 105 731V360Q105 357 99 355T86 353Q78
353 72 355T66 360V731Q66 738 86 738Z" />
<glyph unicode="&#xa7;" glyph-name="section" horiz-adv-x="441" d="M317 40T327 66T338 125Q338 169 321 201T278 254T211 303Q175 326 154 343T118 385T103 440Q103 505 147 538T253 572Q305 572 340 553Q351 548 351 537L359 438Q359 436 353 436T347 438Q343
461 324 487T277 531T216 549Q187 549 169 531T151 476Q151 432 177 403T258 339Q300 312 325 290T368 236T386 160Q386 118 368 87T298 11L290 20Q317 40 327 66ZM157 -188T121 -170Q110 -163 109 -153L102 -55Q102 -52 108 -52T114 -55Q118 -77 137 -103T184
-147T245 -165Q274 -165 293 -147T312 -92Q312 -48 285 -19T203 45Q160 73 134 94T90 147T72 224Q72 266 90 297T160 373L168 364Q141 343 131 317T120 258Q120 214 138 182T182 129T250 81Q305 46 332 17T360 -56Q360 -121 316 -154T209 -188Q157 -188 121 -170Z"
/>
<glyph unicode="&#xa8;" glyph-name="dieresis" horiz-adv-x="322" d="M54 478T43 489T31 519Q31 538 42 549T74 560Q94 560 104 550T115 519Q115 500 105 489T74 478Q54 478 43 489ZM229 478T218 489T206 519Q206 538 217 549T249 560Q269 560 280 550T291 519Q291
499 280 489T249 478Q229 478 218 489Z" />
<glyph unicode="&#xa9;" glyph-name="copyright" horiz-adv-x="719" d="M298 -102T230 -69T118 31T74 190Q74 279 119 349T238 458T398 498Q472 498 529 467T617 384T648 270Q648 209 616 156T527 71T402 39Q341 39 301 61T242 119T223 195Q223 246 248 284T313
343T395 364Q431 364 460 350T490 314Q490 302 482 294T462 285Q443 285 426 311Q414 329 402 338T368 347Q324 347 305 315T286 221Q286 152 321 109T435 65Q481 65 520 84T584 143T609 241Q609 305 577 358T490 443T367 475Q289 475 233 440T149 346T120 213Q120
122 162 58T267 -39T396 -71Q455 -71 498 -62T594 -25Q596 -24 598 -27T598 -32Q544 -72 490 -87T369 -102Q298 -102 230 -69Z" />
<glyph unicode="&#xaa;" glyph-name="ordfeminine" horiz-adv-x="278" d="M33 287T32 291T30 301Q30 306 31 310T34 314H259Q261 314 262 310T264 301Q264 296 263 292T259 287H35Q33 287 32 291ZM197 360T188 375T178 419V538Q178 584 166 598T131 612Q112 612
100 598T83 561Q81 550 77 544T59 537Q49 537 42 543T35 558Q35 573 56 590T107 618T158 630Q184 630 200 612T216 558V441Q216 418 221 408T237 398Q245 398 270 407H271Q275 407 276 404T276 398L208 366Q197 360 188 375ZM59 365T47 376T35 404Q35 420 47 430T92
452L188 487L189 477L108 445Q92 439 87 434T81 418Q81 406 88 398T109 390Q120 390 134 396L194 427L195 416L137 385Q116 373 105 369T80 365Q59 365 47 376Z" />
<glyph unicode="&#xab;" glyph-name="guillemotleft" horiz-adv-x="456" d="M55 193T55 201Q55 208 59 212L236 361Q236 362 238 362Q240 362 242 360T243 356L121 201L243 46Q244 44 241 41T236 40L59 189Q55 193 55 201ZM207 193T207 201Q207 208 211 212L388
361Q390 364 393 361T395 356L273 201L395 46V45Q395 42 393 40T388 40L211 189Q207 193 207 201Z" />
<glyph unicode="&#xac;" glyph-name="logicalnot" horiz-adv-x="395" d="M364 75T358 74T343 72Q336 72 330 73T324 76V268H364V77Q364 75 358 74ZM32 228T31 234T29 249Q29 256 30 262T33 268H364V228H34Q32 228 31 234Z" />
<glyph unicode="&#xad;" glyph-name="uni00AD" horiz-adv-x="0" />
<glyph unicode="&#xae;" glyph-name="registered" horiz-adv-x="750" d="M294 138T227 172T117 273T74 428Q74 513 118 581T237 687T395 725Q479 725 543 688T643 589T678 451Q678 365 636 293T523 180T367 138Q294 138 227 172ZM236 272T236 277T238 283Q261
283 271 286T284 298T288 328V543Q288 571 279 579T238 587Q236 587 236 593T238 599L309 598Q321 598 353 600Q381 602 391 602Q482 602 482 536Q482 483 439 455T319 431V450Q342 446 366 446Q402 446 419 461T437 513Q437 551 421 570T374 589Q355 589 347 587T334
574T330 541V328Q330 307 333 298T347 286T381 283Q383 283 383 278T381 272L309 273L238 272Q236 272 236 277ZM469 166T524 197T609 287T639 422Q639 501 603 565T504 665T363 702Q285 702 229 668T145 578T117 454Q117 365 158 300T263 200T395 166Q469 166
524 197ZM476 272T452 313T385 435L426 449Q462 379 480 348T518 300T564 280Q566 280 566 276T564 272H485Q476 272 452 313Z" />
<glyph unicode="&#xaf;" glyph-name="overscore" horiz-adv-x="345" d="M41 483T41 497Q41 511 47 511H298Q304 511 304 497Q304 483 298 483H47Q41 483 41 497Z" />
<glyph unicode="&#xb0;" glyph-name="degree" horiz-adv-x="332" d="M106 373T68 410T29 503Q29 556 67 593T167 630Q228 630 265 593T303 501Q303 446 266 410T167 373Q106 373 68 410ZM218 385T231 411T245 494Q245 557 225 588T161 619Q118 619 103 590T88
506Q88 449 107 417T174 385Q218 385 231 411Z" />
<glyph unicode="&#xb1;" glyph-name="plusminus" horiz-adv-x="398" d="M32 1T31 7T29 20Q29 26 30 31T33 37H364Q366 37 367 32T369 19Q369 12 368 7T364 1H34Q32 1 31 7ZM32 233T31 239T29 254Q29 261 30 266T33 272H364Q366 272 367 266T369 253Q369 246 368
240T364 233H34Q32 233 31 239ZM219 86T213 85T198 83Q191 83 185 84T179 87V418Q179 422 199 422Q219 422 219 418V88Q219 86 213 85Z" />
<glyph unicode="&#xb2;" glyph-name="uni00B2" horiz-adv-x="251" d="M37 429T51 451T89 507Q122 555 139 586T156 649Q156 677 143 692T106 708Q82 708 64 692T40 650Q40 648 36 648Q33 648 30 649T28 653Q39 688 61 708T124 729Q163 729 183 709T204 658Q204
629 183 598T123 523Q74 468 64 443Q64 440 67 440Q135 440 160 443T194 456T211 494Q211 496 214 496T218 494L217 407Q217 405 216 404T213 402H34Q32 402 31 404T31 408Q37 429 51 451Z" />
<glyph unicode="&#xb3;" glyph-name="uni00B3" horiz-adv-x="251" d="M217 563T217 495Q217 455 190 426T115 396Q77 396 54 415T23 465Q22 469 28 470T35 468Q41 447 59 431T108 415Q135 415 152 431T169 484Q169 521 148 543T94 565Q91 565 91 571T94 577Q123
577 139 599T156 649Q156 674 142 690T104 707Q82 707 64 691T41 650Q39 648 36 648Q33 648 31 649T29 653Q38 687 61 708T123 729Q160 729 182 709T204 657Q204 624 180 599T120 567L119 576Q217 563 217 495Z" />
<glyph unicode="&#xb4;" glyph-name="acute" horiz-adv-x="212" d="M69 472T65 472Q62 472 60 473T58 476L110 716Q111 720 131 725T163 731Q172 731 171 727L69 474Q69 472 65 472Z" />
<glyph unicode="&#xb6;" glyph-name="paragraph" horiz-adv-x="639" d="M306 -193T290 -181T273 -150Q273 -135 281 -126T304 -116Q320 -116 327 -123T341 -144Q349 -158 355 -164T378 -171Q406 -171 417 -130T429 8V125Q393 122 350 122Q274 122 207 148T97 233T54
386Q54 504 125 566T323 628Q354 628 387 625Q399 625 424 624T472 622Q492 622 530 624L582 625Q584 625 584 619T582 613Q539 613 516 592T493 532L494 55Q494 -75 456 -134T332 -193Q306 -193 290 -181Z" />
<glyph unicode="&#xb7;" glyph-name="middot" horiz-adv-x="195" d="M78 157T66 168T54 200Q54 219 66 230T98 242Q118 242 129 231T141 200Q141 180 130 169T98 157Q78 157 66 168Z" />
<glyph unicode="&#xb8;" glyph-name="cedilla" horiz-adv-x="232" d="M101 -46T101 -58Q101 -72 109 -79T145 -102Q170 -116 184 -134T199 -179Q199 -216 173 -245T95 -275Q67 -275 49 -265T31 -237Q31 -224 40 -216T61 -207Q72 -207 78 -212T90 -229Q97 -242
104 -248T127 -255Q161 -255 161 -217Q161 -191 143 -171T75 -124Q61 -117 61 -111Q61 -107 66 -94Q71 -81 91 -30Q93 -22 96 -15T101 -1L114 -2Q101 -46 101 -58Z" />
<glyph unicode="&#xb9;" glyph-name="uni00B9" horiz-adv-x="262" d="M45 402T45 408T47 414Q80 414 93 418T111 435T115 483V601Q115 653 113 667T98 681Q85 681 40 661H39Q35 661 33 666T34 672L149 727Q150 728 152 728Q155 728 157 726T159 720V483Q159 449
163 436T179 418T223 414Q226 414 226 408T223 402L188 403Q158 405 138 405Q117 405 85 403L47 402Q45 402 45 408Z" />
<glyph unicode="&#xba;" glyph-name="ordmasculine" horiz-adv-x="315" d="M35 287T34 291T32 301Q32 306 33 310T36 314H279Q281 314 282 310T284 301Q284 296 283 292T279 287H37Q35 287 34 291ZM96 359T61 399T26 498Q26 541 47 570T100 615T165 630Q203 630
231 611T275 561T291 495Q291 458 272 427T222 377T153 359Q96 359 61 399ZM204 374T225 401T247 477Q247 535 219 574T146 614Q110 614 90 589T70 517Q70 459 98 417T168 374Q204 374 225 401Z" />
<glyph unicode="&#xbb;" glyph-name="guillemotright" horiz-adv-x="456" d="M401 208T401 201Q401 193 397 189L220 40Q220 39 218 39Q216 39 214 41T213 46L335 200L213 356Q212 358 215 361T220 361L397 212Q401 208 401 201ZM250 207T250 201Q250 194 245
189L68 40Q68 39 66 39Q64 39 62 41T61 46L183 200L61 356Q60 358 63 361T68 361L245 212Q250 207 250 201Z" />
<glyph unicode="&#xbc;" glyph-name="onequarter" horiz-adv-x="600" d="M45 309T45 314T47 320Q80 320 93 324T111 341T115 389V508Q115 560 113 574T98 588Q90 588 75 582T40 567H39Q35 567 33 572T34 578L149 634H151Q154 634 156 632T159 627V389Q159 355
163 342T179 324T223 320Q226 320 226 315T223 309Q201 309 188 310L138 311L85 310Q71 309 47 309Q45 309 45 314ZM183 -1T181 -1Q176 -1 167 3T159 10L439 627Q439 628 441 628Q446 628 455 624T463 618L183 0Q183 -1 181 -1ZM528 27T530 22T541 14T572 11Q573
9 573 5T572 -1L511 0L433 -1Q432 -1 432 5T433 11Q458 11 468 13T483 21T487 41V272L502 285L396 112Q393 109 398 109Q455 109 537 113L572 115Q575 115 575 102Q575 88 572 88Q462 94 362 94Q360 94 358 96T358 100L515 323Q517 325 520 325Q523 325 525 324T528
321V41Q528 27 530 22Z" />
<glyph unicode="&#xbd;" glyph-name="onehalf" horiz-adv-x="610" d="M45 309T45 314T47 320Q80 320 93 324T111 341T115 389V508Q115 560 113 574T98 588Q90 588 75 582T40 567H39Q35 567 33 572T34 578L149 634H151Q154 634 156 632T159 627V389Q159 355 163
342T179 324T223 320Q226 320 226 315T223 309Q201 309 188 310L138 311L85 310Q71 309 47 309Q45 309 45 314ZM183 -1T181 -1Q176 -1 167 3T159 10L439 627Q439 628 441 628Q446 628 455 624T463 618L183 0Q183 -1 181 -1ZM396 27T409 48T447 105Q480 150 497
182T515 247Q515 274 502 289T465 304Q441 304 423 289T399 248Q399 245 395 245Q392 245 389 246T387 250Q398 285 420 305T483 326Q522 326 542 306T563 255Q563 226 542 195T482 121Q433 66 423 41Q423 38 426 38Q494 38 519 40T553 53T570 91Q570 93 573 93T577
91L576 5Q576 0 572 0H393Q389 0 390 6Q396 27 409 48Z" />
<glyph unicode="&#xbe;" glyph-name="threequarters" horiz-adv-x="589" d="M217 471T217 401Q217 361 190 332T115 303Q77 303 54 322T23 372Q22 376 28 377T35 374Q41 353 59 337T108 321Q135 321 152 337T169 389Q169 427 148 449T94 471Q91 471 91 477T94
483Q123 483 139 505T156 555Q156 580 142 596T104 613Q82 613 64 597T41 557Q40 554 36 554Q33 554 31 555T29 559Q38 593 61 614T123 635Q160 635 182 615T204 563Q204 531 180 506T120 474L119 482Q217 471 217 401ZM172 -1T170 -1Q165 -1 156 3T148 10L428
627Q428 628 430 628Q435 628 444 624T452 618L172 0Q172 -1 170 -1ZM517 27T519 22T530 14T561 11Q562 9 562 5T561 -1L500 0L422 -1Q421 -1 421 5T422 11Q447 11 457 13T472 21T476 41V272L491 285L385 112Q382 109 387 109Q444 109 526 113L561 115Q564 115
564 102Q564 88 561 88Q451 94 351 94Q349 94 347 96T347 100L504 323Q506 325 509 325Q512 325 514 324T517 321V41Q517 27 519 22Z" />
<glyph unicode="&#xbf;" glyph-name="questiondown" horiz-adv-x="327" d="M192 -262T200 -250T212 -215Q215 -195 223 -183T250 -171Q266 -171 275 -181T284 -205Q284 -234 249 -254T165 -275Q106 -275 68 -244T30 -155Q30 -125 40 -102T65 -63T106 -22Q141 12
155 39T169 102Q169 124 163 157Q162 160 168 161T175 159Q186 133 193 98T201 40Q201 9 189 -11T151 -57Q124 -84 111 -107T97 -167Q97 -209 117 -235T168 -262Q192 -262 200 -250ZM200 361T212 349T224 318Q224 299 212 288T180 276Q159 276 148 287T137 318Q137
338 148 349T180 361Q200 361 212 349Z" />
<glyph unicode="&#xc0;" glyph-name="Agrave" horiz-adv-x="702" d="M204 295H469L476 275H194L204 295ZM703 12T703 6T699 0Q680 0 640 2Q600 4 582 4Q560 4 526 2Q494 0 477 0Q473 0 473 6T477 12Q515 12 531 19T548 44Q548 59 536 86L314 555L339 586L145 127Q131
93 131 71Q131 12 229 12Q234 12 234 6T229 0Q211 0 177 2Q139 4 111 4Q85 4 51 2Q21 0 1 0Q-4 0 -4 6T1 12Q29 12 48 22T85 59T124 136L335 634Q337 637 342 637T348 634L584 137Q618 63 642 38T699 12Q703 12 703 6ZM328 729T218 756Q210 757 224 765T258 779T282
784L311 766Q410 707 444 689Q447 688 447 685Q447 682 445 680T440 679Q328 729 218 756Z" />
<glyph unicode="&#xc1;" glyph-name="Aacute" horiz-adv-x="702" d="M204 295H469L476 275H194L204 295ZM703 12T703 6T699 0Q680 0 640 2Q600 4 582 4Q560 4 526 2Q494 0 477 0Q473 0 473 6T477 12Q515 12 531 19T548 44Q548 59 536 86L314 555L339 586L145 127Q131
93 131 71Q131 12 229 12Q234 12 234 6T229 0Q211 0 177 2Q139 4 111 4Q85 4 51 2Q21 0 1 0Q-4 0 -4 6T1 12Q29 12 48 22T85 59T124 136L335 634Q337 637 342 637T348 634L584 137Q618 63 642 38T699 12Q703 12 703 6ZM243 678Q239 678 238 682T239 689Q270 704
301 723T343 748Q394 779 402 783Q406 786 425 780T459 765T466 756Q348 726 244 678H243Z" />
<glyph unicode="&#xc2;" glyph-name="Acircumflex" horiz-adv-x="702" d="M204 295H469L476 275H194L204 295ZM703 12T703 6T699 0Q680 0 640 2Q600 4 582 4Q560 4 526 2Q494 0 477 0Q473 0 473 6T477 12Q515 12 531 19T548 44Q548 59 536 86L314 555L339 586L145
127Q131 93 131 71Q131 12 229 12Q234 12 234 6T229 0Q211 0 177 2Q139 4 111 4Q85 4 51 2Q21 0 1 0Q-4 0 -4 6T1 12Q29 12 48 22T85 59T124 136L335 634Q337 637 342 637T348 634L584 137Q618 63 642 38T699 12Q703 12 703 6ZM334 789T341 789Q347 789 352 784L454
687Q455 687 455 685Q455 683 453 681T449 680L341 738L232 680Q230 679 227 682T226 687L329 784Q334 789 341 789Z" />
<glyph unicode="&#xc3;" glyph-name="Atilde" horiz-adv-x="702" d="M204 295H469L476 275H194L204 295ZM703 12T703 6T699 0Q680 0 640 2Q600 4 582 4Q560 4 526 2Q494 0 477 0Q473 0 473 6T477 12Q515 12 531 19T548 44Q548 59 536 86L314 555L339 586L145 127Q131
93 131 71Q131 12 229 12Q234 12 234 6T229 0Q211 0 177 2Q139 4 111 4Q85 4 51 2Q21 0 1 0Q-4 0 -4 6T1 12Q29 12 48 22T85 59T124 136L335 634Q337 637 342 637T348 634L584 137Q618 63 642 38T699 12Q703 12 703 6ZM435 754T445 761T467 781H468Q471 781 473
779T474 774Q448 737 431 725T395 712Q374 712 334 724Q330 725 309 731T265 737Q249 737 241 732T226 720T215 710H213Q210 710 208 712T208 717Q225 740 247 759T293 778Q307 778 343 768Q389 754 418 754Q435 754 445 761Z" />
<glyph unicode="&#xc4;" glyph-name="Adieresis" horiz-adv-x="702" d="M204 295H469L476 275H194L204 295ZM703 12T703 6T699 0Q680 0 640 2Q600 4 582 4Q560 4 526 2Q494 0 477 0Q473 0 473 6T477 12Q515 12 531 19T548 44Q548 59 536 86L314 555L339 586L145
127Q131 93 131 71Q131 12 229 12Q234 12 234 6T229 0Q211 0 177 2Q139 4 111 4Q85 4 51 2Q21 0 1 0Q-4 0 -4 6T1 12Q29 12 48 22T85 59T124 136L335 634Q337 637 342 637T348 634L584 137Q618 63 642 38T699 12Q703 12 703 6ZM234 717T223 728T211 758Q211 777
222 788T254 799Q274 799 284 789T295 758Q295 739 285 728T254 717Q234 717 223 728ZM409 717T398 728T386 758Q386 777 397 788T429 799Q449 799 460 789T471 758Q471 738 460 728T429 717Q409 717 398 728Z" />
<glyph unicode="&#xc5;" glyph-name="Aring" horiz-adv-x="702" d="M204 295H469L476 275H194L204 295ZM703 12T703 6T699 0Q680 0 640 2Q600 4 582 4Q560 4 526 2Q494 0 477 0Q473 0 473 6T477 12Q515 12 531 19T548 44Q548 59 536 86L314 555L339 586L145 127Q131
93 131 71Q131 12 229 12Q234 12 234 6T229 0Q211 0 177 2Q139 4 111 4Q85 4 51 2Q21 0 1 0Q-4 0 -4 6T1 12Q29 12 48 22T85 59T124 136L335 634Q337 637 342 637T348 634L584 137Q618 63 642 38T699 12Q703 12 703 6ZM297 664T273 688T249 744Q249 780 279 800T346
821Q382 821 408 798T434 742Q434 707 404 686T336 664Q297 664 273 688ZM370 675T379 686T388 724Q388 759 370 785T326 811Q309 811 302 800T294 764Q294 730 309 703T351 675Q370 675 379 686Z" />
<glyph unicode="&#xc6;" glyph-name="AE" horiz-adv-x="874" d="M-2 0T-2 6T3 12Q34 12 72 43T150 132L453 574Q466 592 466 599Q466 608 450 610T389 613Q387 613 387 619T389 625H783Q792 625 792 616L794 493Q794 490 789 490T783 492Q781 539 751 571T676
604H621Q587 604 571 599T548 582T541 543V85Q541 58 547 45T569 26T619 21H692Q735 21 769 57T813 149Q813 151 817 151Q820 151 822 150T825 147Q816 84 816 15Q816 7 813 4T800 0H392Q390 0 390 6T392 12Q430 12 447 17T471 36T477 81V588L502 604L176 126Q146
83 146 55Q146 12 224 12Q229 12 229 6T224 0Q206 0 170 2Q130 4 101 4Q77 4 47 2Q19 0 3 0Q-2 0 -2 6ZM305 336H516L523 315H290L305 336ZM744 277T723 296T651 315H505V336H653Q702 336 722 352T743 406Q743 408 749 408T755 406L754 325Q754 296 755 281L756
233Q756 231 750 231T744 233Q744 277 723 296Z" />
<glyph unicode="&#xc7;" glyph-name="Ccedilla" horiz-adv-x="686" d="M474 636T517 627T603 596Q610 592 611 589T614 574L626 455Q626 452 621 452T614 454Q568 621 408 621Q324 621 260 584T160 479T125 319Q125 232 164 160T268 45T411 3Q493 3 544 43T622
165Q622 167 627 167Q634 167 634 164L624 54Q623 42 621 39T613 32Q561 7 516 -3T411 -13Q306 -13 224 28T95 145T49 317Q49 411 96 483T225 596T411 636Q474 636 517 627ZM399 -46T399 -58Q399 -72 407 -79T443 -102Q468 -116 482 -134T497 -179Q497 -216 471
-245T393 -275Q365 -275 347 -265T329 -237Q329 -224 338 -216T359 -207Q370 -207 376 -212T388 -229Q395 -242 402 -248T425 -255Q459 -255 459 -217Q459 -191 441 -171T373 -124Q359 -117 359 -111Q359 -107 364 -94Q369 -81 389 -30Q391 -22 394 -15T399 -1L412
-2Q399 -46 399 -58Z" />
<glyph unicode="&#xc8;" glyph-name="Egrave" horiz-adv-x="537" d="M41 0T41 6T43 12Q81 12 98 17T122 36T129 81V544Q129 574 123 588T99 607T43 613Q41 613 41 619T43 625H445Q454 625 454 616L456 493Q456 490 451 490T445 492Q442 545 413 574T336 604H275Q240
604 223 599T200 580T193 539V85Q193 58 199 45T222 26T272 21H352Q400 21 432 55T475 149Q475 151 479 151Q482 151 484 150T487 147Q478 84 478 15Q478 7 475 4T462 0H43Q41 0 41 6ZM406 277T385 296T313 315H163V336H316Q364 336 384 352T405 406Q405 408 411
408T417 406L416 325Q416 296 417 281L418 233Q418 231 412 231T406 233Q406 277 385 296ZM278 729T168 756Q161 757 175 765T209 779T232 784L259 767Q338 718 395 689Q397 688 397 685Q397 682 395 680T391 679Q278 729 168 756Z" />
<glyph unicode="&#xc9;" glyph-name="Eacute" horiz-adv-x="537" d="M41 0T41 6T43 12Q81 12 98 17T122 36T129 81V544Q129 574 123 588T99 607T43 613Q41 613 41 619T43 625H445Q454 625 454 616L456 493Q456 490 451 490T445 492Q442 545 413 574T336 604H275Q240
604 223 599T200 580T193 539V85Q193 58 199 45T222 26T272 21H352Q400 21 432 55T475 149Q475 151 479 151Q482 151 484 150T487 147Q478 84 478 15Q478 7 475 4T462 0H43Q41 0 41 6ZM406 277T385 296T313 315H163V336H316Q364 336 384 352T405 406Q405 408 411
408T417 406L416 325Q416 296 417 281L418 233Q418 231 412 231T406 233Q406 277 385 296ZM193 678Q189 678 188 682T190 689Q224 706 256 725T296 750L352 784Q357 786 376 780T410 765T417 756Q355 741 304 723T195 679L193 678Z" />
<glyph unicode="&#xca;" glyph-name="Ecircumflex" horiz-adv-x="537" d="M41 0T41 6T43 12Q81 12 98 17T122 36T129 81V544Q129 574 123 588T99 607T43 613Q41 613 41 619T43 625H445Q454 625 454 616L456 493Q456 490 451 490T445 492Q442 545 413 574T336 604H275Q240
604 223 599T200 580T193 539V85Q193 58 199 45T222 26T272 21H352Q400 21 432 55T475 149Q475 151 479 151Q482 151 484 150T487 147Q478 84 478 15Q478 7 475 4T462 0H43Q41 0 41 6ZM406 277T385 296T313 315H163V336H316Q364 336 384 352T405 406Q405 408 411
408T417 406L416 325Q416 296 417 281L418 233Q418 231 412 231T406 233Q406 277 385 296ZM286 795T293 795Q299 795 304 790L406 692Q407 692 407 690Q407 688 405 686T401 685L293 743L184 685Q182 684 179 687T178 692L281 790Q286 795 293 795Z" />
<glyph unicode="&#xcb;" glyph-name="Edieresis" horiz-adv-x="537" d="M41 0T41 6T43 12Q81 12 98 17T122 36T129 81V544Q129 574 123 588T99 607T43 613Q41 613 41 619T43 625H445Q454 625 454 616L456 493Q456 490 451 490T445 492Q442 545 413 574T336 604H275Q240
604 223 599T200 580T193 539V85Q193 58 199 45T222 26T272 21H352Q400 21 432 55T475 149Q475 151 479 151Q482 151 484 150T487 147Q478 84 478 15Q478 7 475 4T462 0H43Q41 0 41 6ZM406 277T385 296T313 315H163V336H316Q364 336 384 352T405 406Q405 408 411
408T417 406L416 325Q416 296 417 281L418 233Q418 231 412 231T406 233Q406 277 385 296ZM185 717T174 728T162 758Q162 777 173 788T205 799Q225 799 235 789T246 758Q246 739 236 728T205 717Q185 717 174 728ZM360 717T349 728T337 758Q337 777 348 788T380
799Q400 799 410 789T421 758Q421 739 411 728T380 717Q360 717 349 728Z" />
<glyph unicode="&#xcc;" glyph-name="Igrave" horiz-adv-x="332" d="M199 50T205 36T228 17T284 12Q287 12 287 6T284 0Q254 0 236 1L165 2L96 1Q78 0 47 0Q44 0 44 6T47 12Q85 12 102 17T126 36T133 81V544Q133 574 127 588T103 607T47 613Q44 613 44 619T47
625L96 624Q138 622 165 622Q195 622 237 624L284 625Q287 625 287 619T284 613Q247 613 229 607T205 587T199 542V81Q199 50 205 36ZM153 729T43 756Q35 757 49 765T83 779T107 784L136 766Q235 707 269 689Q272 688 272 685Q272 682 270 680T265 679Q153 729
43 756Z" />
<glyph unicode="&#xcd;" glyph-name="Iacute" horiz-adv-x="332" d="M199 50T205 36T228 17T284 12Q287 12 287 6T284 0Q254 0 236 1L165 2L96 1Q78 0 47 0Q44 0 44 6T47 12Q85 12 102 17T126 36T133 81V544Q133 574 127 588T103 607T47 613Q44 613 44 619T47
625L96 624Q138 622 165 622Q195 622 237 624L284 625Q287 625 287 619T284 613Q247 613 229 607T205 587T199 542V81Q199 50 205 36ZM67 678Q63 678 62 682T64 689Q115 715 173 752Q209 774 227 784Q231 786 250 780T284 765T291 756Q229 741 178 723T69 679L67
678Z" />
<glyph unicode="&#xce;" glyph-name="Icircumflex" horiz-adv-x="332" d="M199 50T205 36T228 17T284 12Q287 12 287 6T284 0Q254 0 236 1L165 2L96 1Q78 0 47 0Q44 0 44 6T47 12Q85 12 102 17T126 36T133 81V544Q133 574 127 588T103 607T47 613Q44 613 44 619T47
625L96 624Q138 622 165 622Q195 622 237 624L284 625Q287 625 287 619T284 613Q247 613 229 607T205 587T199 542V81Q199 50 205 36ZM160 795T167 795Q173 795 178 790L280 692Q281 692 281 690Q281 688 279 686T275 685L167 743L58 685Q56 684 53 687T52 692L155
790Q160 795 167 795Z" />
<glyph unicode="&#xcf;" glyph-name="Idieresis" horiz-adv-x="332" d="M199 50T205 36T228 17T284 12Q287 12 287 6T284 0Q254 0 236 1L165 2L96 1Q78 0 47 0Q44 0 44 6T47 12Q85 12 102 17T126 36T133 81V544Q133 574 127 588T103 607T47 613Q44 613 44 619T47
625L96 624Q138 622 165 622Q195 622 237 624L284 625Q287 625 287 619T284 613Q247 613 229 607T205 587T199 542V81Q199 50 205 36ZM75 717T64 728T52 758Q52 777 63 788T95 799Q115 799 126 789T137 758Q137 738 126 728T95 717Q75 717 64 728ZM218 717T207
728T196 758Q196 777 207 788T238 799Q258 799 268 789T279 758Q279 739 269 728T238 717Q218 717 207 728Z" />
<glyph unicode="&#xd0;" glyph-name="Eth" horiz-adv-x="691" d="M49 301T49 311Q49 321 53 321H322Q326 321 326 311Q326 301 322 301H53Q49 301 49 311ZM274 -4T236 -1Q222 0 201 1T153 2L85 1Q67 0 35 0Q33 0 33 6T35 12Q73 12 90 17T114 36T121 81V544Q121
574 115 588T92 607T36 613Q34 613 34 619T36 625L86 624Q128 622 153 622Q191 622 228 625Q272 627 289 627Q393 627 473 587T597 478T642 323Q642 226 597 152T473 37T303 -4Q274 -4 236 -1ZM373 11T435 44T531 143T566 301Q566 388 533 459T439 571T298 612Q255
612 232 607T197 587T186 542V92Q186 62 194 45T226 20T293 11Q373 11 435 44Z" />
<glyph unicode="&#xd1;" glyph-name="Ntilde" horiz-adv-x="727" d="M120 602L143 600V109Q143 57 161 35T221 12Q224 12 224 6T221 0Q196 0 183 1L133 2L82 1Q68 0 41 0Q39 0 39 6T41 12Q84 12 102 34T120 109V602ZM624 -14T619 -15T612 -14L152 543Q120 582
94 597T41 613Q38 613 38 619T41 625L78 624Q90 623 111 623Q133 623 147 624T169 625Q176 625 180 622T191 607Q203 589 216 573L616 82L624 -12Q624 -14 619 -15ZM624 -12L601 19V515Q601 567 584 590T525 613Q523 613 523 619T525 625L564 624Q594 622 613 622Q631
622 663 624L704 625Q707 625 707 619T704 613Q662 613 643 590T624 515V-12ZM469 754T479 760T502 781H503Q506 781 508 779T509 774Q483 738 466 725T430 712Q409 712 369 724Q365 725 344 731T299 737Q283 737 275 732T260 720T250 710H248Q245 710 243 712T243
717Q287 778 327 778Q341 778 358 774T379 768Q423 754 452 754Q469 754 479 760Z" />
<glyph unicode="&#xd2;" glyph-name="Ograve" horiz-adv-x="766" d="M273 -12T201 31T89 149T49 312Q49 415 101 488T234 599T401 636Q496 636 568 592T678 474T717 319Q717 228 669 152T541 32T366 -12Q273 -12 201 31ZM469 9T523 42T609 138T641 291Q641 385
606 458T508 572T359 613Q249 613 187 542T125 347Q125 253 160 176T258 54T401 9Q469 9 523 42ZM371 729T261 756Q254 757 268 765T302 779T325 784Q351 768 364 761Q442 713 488 689Q490 688 490 685Q490 682 488 680T484 679Q371 729 261 756Z" />
<glyph unicode="&#xd3;" glyph-name="Oacute" horiz-adv-x="766" d="M273 -12T201 31T89 149T49 312Q49 415 101 488T234 599T401 636Q496 636 568 592T678 474T717 319Q717 228 669 152T541 32T366 -12Q273 -12 201 31ZM469 9T523 42T609 138T641 291Q641 385
606 458T508 572T359 613Q249 613 187 542T125 347Q125 253 160 176T258 54T401 9Q469 9 523 42ZM286 678Q282 678 281 682T283 689Q316 707 392 751Q410 763 423 771T446 784Q450 786 469 780T503 765T510 756Q448 741 397 723T288 679L286 678Z" />
<glyph unicode="&#xd4;" glyph-name="Ocircumflex" horiz-adv-x="766" d="M273 -12T201 31T89 149T49 312Q49 415 101 488T234 599T401 636Q496 636 568 592T678 474T717 319Q717 228 669 152T541 32T366 -12Q273 -12 201 31ZM469 9T523 42T609 138T641 291Q641
385 606 458T508 572T359 613Q249 613 187 542T125 347Q125 253 160 176T258 54T401 9Q469 9 523 42ZM379 795T386 795Q392 795 397 790L499 692Q500 692 500 690Q500 688 498 686T494 685L386 743L277 685Q275 684 272 687T271 692L374 790Q379 795 386 795Z"
/>
<glyph unicode="&#xd5;" glyph-name="Otilde" horiz-adv-x="766" d="M273 -12T201 31T89 149T49 312Q49 415 101 488T234 599T401 636Q496 636 568 592T678 474T717 319Q717 228 669 152T541 32T366 -12Q273 -12 201 31ZM469 9T523 42T609 138T641 291Q641 385
606 458T508 572T359 613Q249 613 187 542T125 347Q125 253 160 176T258 54T401 9Q469 9 523 42ZM478 754T488 761T511 781H512Q515 781 517 779T518 774Q492 738 475 725T439 712Q418 712 378 724Q374 725 353 731T308 737Q292 737 284 732T269 720T259 710H257Q254
710 252 712T252 717Q296 778 336 778Q350 778 367 774T388 768Q432 754 461 754Q478 754 488 761Z" />
<glyph unicode="&#xd6;" glyph-name="Odieresis" horiz-adv-x="766" d="M273 -12T201 31T89 149T49 312Q49 415 101 488T234 599T401 636Q496 636 568 592T678 474T717 319Q717 228 669 152T541 32T366 -12Q273 -12 201 31ZM469 9T523 42T609 138T641 291Q641
385 606 458T508 572T359 613Q249 613 187 542T125 347Q125 253 160 176T258 54T401 9Q469 9 523 42ZM278 717T267 728T255 758Q255 777 266 788T298 799Q318 799 328 789T339 758Q339 739 329 728T298 717Q278 717 267 728ZM453 717T442 728T430 758Q430 777 441
788T473 799Q493 799 503 789T514 758Q514 739 504 728T473 717Q453 717 442 728Z" />
<glyph unicode="&#xd7;" glyph-name="multiply" horiz-adv-x="382" d="M86 55T72 69T59 86L293 320Q297 323 311 309T322 291L88 59Q86 55 72 69ZM57 295T71 309T88 321L322 88Q325 84 311 70T293 59L61 293Q57 295 71 309Z" />
<glyph unicode="&#xd8;" glyph-name="Oslash" horiz-adv-x="771" d="M78 -8Q74 -8 68 -2T65 8L678 630L680 631Q685 631 691 625T694 617L80 -7L78 -8ZM273 -12T201 31T89 149T49 312Q49 415 101 488T234 599T401 636Q496 636 568 592T678 474T717 319Q717 228
669 152T541 32T366 -12Q273 -12 201 31ZM469 9T523 42T609 138T641 291Q641 385 606 458T508 572T359 613Q249 613 187 542T125 347Q125 253 160 176T258 54T401 9Q469 9 523 42Z" />
<glyph unicode="&#xd9;" glyph-name="Ugrave" horiz-adv-x="698" d="M572 613T485 613Q482 613 482 619T485 625L528 624Q564 622 585 622Q602 622 634 624L676 625Q678 625 678 619T676 613Q596 613 596 515V231Q596 116 532 52T360 -13Q286 -13 231 16T145 98T114
224V544Q114 574 108 588T85 607T29 613Q27 613 27 619T29 625L78 624Q120 622 146 622Q173 622 217 624L263 625Q266 625 266 619T263 613Q226 613 209 607T185 587T179 542V259Q179 141 232 79T382 17Q472 17 522 73T572 230V515Q572 613 485 613ZM360 729T250
756Q243 757 257 765T291 779T314 784Q340 768 353 761Q431 713 477 689Q479 688 479 685Q479 682 477 680T473 679Q360 729 250 756Z" />
<glyph unicode="&#xda;" glyph-name="Uacute" horiz-adv-x="698" d="M572 613T485 613Q482 613 482 619T485 625L528 624Q564 622 585 622Q602 622 634 624L676 625Q678 625 678 619T676 613Q596 613 596 515V231Q596 116 532 52T360 -13Q286 -13 231 16T145 98T114
224V544Q114 574 108 588T85 607T29 613Q27 613 27 619T29 625L78 624Q120 622 146 622Q173 622 217 624L263 625Q266 625 266 619T263 613Q226 613 209 607T185 587T179 542V259Q179 141 232 79T382 17Q472 17 522 73T572 230V515Q572 613 485 613ZM275 678Q271
678 270 682T272 689Q305 707 381 751Q399 763 412 771T435 784Q439 786 458 780T492 765T499 756Q437 741 386 723T277 679L275 678Z" />
<glyph unicode="&#xdb;" glyph-name="Ucircumflex" horiz-adv-x="698" d="M572 613T485 613Q482 613 482 619T485 625L528 624Q564 622 585 622Q602 622 634 624L676 625Q678 625 678 619T676 613Q596 613 596 515V231Q596 116 532 52T360 -13Q286 -13 231 16T145
98T114 224V544Q114 574 108 588T85 607T29 613Q27 613 27 619T29 625L78 624Q120 622 146 622Q173 622 217 624L263 625Q266 625 266 619T263 613Q226 613 209 607T185 587T179 542V259Q179 141 232 79T382 17Q472 17 522 73T572 230V515Q572 613 485 613ZM368
795T375 795Q381 795 386 790L488 692Q489 692 489 690Q489 688 487 686T483 685L375 743L266 685Q264 684 261 687T260 692L363 790Q368 795 375 795Z" />
<glyph unicode="&#xdc;" glyph-name="Udieresis" horiz-adv-x="698" d="M572 613T485 613Q482 613 482 619T485 625L528 624Q564 622 585 622Q602 622 634 624L676 625Q678 625 678 619T676 613Q596 613 596 515V231Q596 116 532 52T360 -13Q286 -13 231 16T145
98T114 224V544Q114 574 108 588T85 607T29 613Q27 613 27 619T29 625L78 624Q120 622 146 622Q173 622 217 624L263 625Q266 625 266 619T263 613Q226 613 209 607T185 587T179 542V259Q179 141 232 79T382 17Q472 17 522 73T572 230V515Q572 613 485 613ZM267
717T256 728T244 758Q244 777 255 788T287 799Q307 799 317 789T328 758Q328 739 318 728T287 717Q267 717 256 728ZM442 717T431 728T419 758Q419 777 430 788T462 799Q482 799 492 789T503 758Q503 739 493 728T462 717Q442 717 431 728Z" />
<glyph unicode="&#xdd;" glyph-name="Yacute" horiz-adv-x="609" d="M473 553T473 577Q473 613 419 613Q417 613 417 619T419 625L466 624Q504 622 536 622Q553 622 577 624L614 625Q616 625 616 619T614 613Q578 613 541 587T475 514L318 273L301 288L451 518Q473
553 473 577ZM82 579T57 596T-1 613Q-4 613 -4 619T-1 625Q11 625 35 623L70 622Q104 622 156 624L210 625Q212 625 212 619T210 613Q158 613 158 592Q158 581 168 568L339 317L290 272L110 536Q82 579 57 596ZM341 319V81Q341 50 347 36T370 17T426 12Q429 12
429 6T426 0Q395 0 378 1L308 2L239 1Q221 0 190 0Q187 0 187 6T190 12Q228 12 245 17T269 36T276 81V310L341 319ZM219 678Q215 678 214 682T216 689Q250 706 282 725T322 750L378 784Q383 786 402 780T436 765T443 756Q381 741 330 723T221 679L219 678Z" />
<glyph unicode="&#xde;" glyph-name="Thorn" d="M127 574T121 588T97 607T43 613Q41 613 41 619T43 625L93 624Q133 622 159 622Q194 622 246 624L310 625Q313 625 313 619T310 613Q257 613 233 607T200 586T191 539V85Q191 53 199 39T232 18T310 12Q313 12 313
6T310 0Q269 0 246 1L159 2L93 1Q75 0 43 0Q41 0 41 6T43 12Q80 12 97 17T120 36T127 81V544Q127 574 121 588ZM207 499T285 499Q383 499 442 459T501 329Q501 264 468 220T385 155T282 133Q258 133 233 138Q230 138 230 143Q230 146 231 149T235 151Q259 147 271
147Q337 147 382 190T427 316Q427 396 381 440T260 485Q211 485 158 469L150 483Q207 499 285 499Z" />
<glyph unicode="&#xdf;" glyph-name="germandbls" horiz-adv-x="509" d="M304 -11T281 6T257 53Q257 66 264 74T286 83Q299 83 307 75T324 49Q336 28 345 19T374 9Q400 9 417 27T434 76Q434 114 413 144T351 215Q308 258 286 290T264 364Q264 394 275 417T309
470Q333 502 346 529T359 593Q359 639 339 675T270 711Q211 711 179 641T147 446V81Q147 51 152 37T170 17T212 12Q214 12 214 6T212 0L120 1L21 0Q18 0 18 6T21 12Q51 12 65 17T85 36T90 81V312Q90 338 86 348T67 362T19 366Q15 366 15 372T19 379Q52 379 65 384T83
402T90 448Q100 592 149 659T295 726Q359 726 389 696T420 628Q420 595 405 570T359 511Q332 481 319 460T305 411Q305 379 326 350T390 278Q437 229 460 195T484 121Q484 88 467 58T417 8T343 -11Q304 -11 281 6Z" />
<glyph unicode="&#xe0;" glyph-name="agrave" horiz-adv-x="419" d="M310 -8T306 -8Q291 -8 280 15T269 76V265Q269 377 206 377Q172 377 155 355T131 303Q127 284 120 273T93 262Q77 262 69 271T60 292Q60 316 91 340T165 380T242 396Q283 396 304 370T325 295V108Q325
73 334 57T363 41Q383 41 413 54H415Q419 54 420 50T417 43L314 -6Q310 -8 306 -8ZM97 -7T77 12T56 62Q56 92 80 114T159 156L279 201L282 188L176 147Q148 136 136 122T123 87Q123 63 138 47T179 30Q199 30 227 46L290 84L292 71L218 23Q193 7 174 0T134 -7Q97
-7 77 12ZM115 731T124 731Q137 731 156 726T176 716L228 476Q229 474 224 473T218 474L116 727Q115 731 124 731Z" />
<glyph unicode="&#xe1;" glyph-name="aacute" horiz-adv-x="419" d="M310 -8T306 -8Q291 -8 280 15T269 76V265Q269 377 206 377Q172 377 155 355T131 303Q127 284 120 273T93 262Q77 262 69 271T60 292Q60 316 91 340T165 380T242 396Q283 396 304 370T325 295V108Q325
73 334 57T363 41Q383 41 413 54H415Q419 54 420 50T417 43L314 -6Q310 -8 306 -8ZM97 -7T77 12T56 62Q56 92 80 114T159 156L279 201L282 188L176 147Q148 136 136 122T123 87Q123 63 138 47T179 30Q199 30 227 46L290 84L292 71L218 23Q193 7 174 0T134 -7Q97
-7 77 12ZM210 472T206 472Q203 472 201 473T199 476L251 716Q252 720 271 725T303 731Q312 731 311 727L210 474Q210 472 206 472Z" />
<glyph unicode="&#xe2;" glyph-name="acircumflex" horiz-adv-x="419" d="M310 -8T306 -8Q291 -8 280 15T269 76V265Q269 377 206 377Q172 377 155 355T131 303Q127 284 120 273T93 262Q77 262 69 271T60 292Q60 316 91 340T165 380T242 396Q283 396 304 370T325
295V108Q325 73 334 57T363 41Q383 41 413 54H415Q419 54 420 50T417 43L314 -6Q310 -8 306 -8ZM97 -7T77 12T56 62Q56 92 80 114T159 156L279 201L282 188L176 147Q148 136 136 122T123 87Q123 63 138 47T179 30Q199 30 227 46L290 84L292 71L218 23Q193 7 174
0T134 -7Q97 -7 77 12ZM293 474T288 473T281 474L213 639L144 474Q143 471 138 472T133 476L201 725Q202 730 212 730Q223 730 224 725L291 476Q293 474 288 473Z" />
<glyph unicode="&#xe3;" glyph-name="atilde" horiz-adv-x="419" d="M310 -8T306 -8Q291 -8 280 15T269 76V265Q269 377 206 377Q172 377 155 355T131 303Q127 284 120 273T93 262Q77 262 69 271T60 292Q60 316 91 340T165 380T242 396Q283 396 304 370T325 295V108Q325
73 334 57T363 41Q383 41 413 54H415Q419 54 420 50T417 43L314 -6Q310 -8 306 -8ZM97 -7T77 12T56 62Q56 92 80 114T159 156L279 201L282 188L176 147Q148 136 136 122T123 87Q123 63 138 47T179 30Q199 30 227 46L290 84L292 71L218 23Q193 7 174 0T134 -7Q97
-7 77 12ZM305 524T315 530T338 551H339Q342 551 344 549T345 544Q319 508 302 495T266 482Q245 482 205 494Q201 495 180 501T135 507Q119 507 111 502T96 490T86 480H84Q81 480 79 482T79 487Q123 548 163 548Q177 548 194 544T215 538Q259 524 288 524Q305 524
315 530Z" />
<glyph unicode="&#xe4;" glyph-name="adieresis" horiz-adv-x="419" d="M310 -8T306 -8Q291 -8 280 15T269 76V265Q269 377 206 377Q172 377 155 355T131 303Q127 284 120 273T93 262Q77 262 69 271T60 292Q60 316 91 340T165 380T242 396Q283 396 304 370T325
295V108Q325 73 334 57T363 41Q383 41 413 54H415Q419 54 420 50T417 43L314 -6Q310 -8 306 -8ZM97 -7T77 12T56 62Q56 92 80 114T159 156L279 201L282 188L176 147Q148 136 136 122T123 87Q123 63 138 47T179 30Q199 30 227 46L290 84L292 71L218 23Q193 7 174
0T134 -7Q97 -7 77 12ZM105 478T94 489T82 519Q82 538 93 549T125 560Q145 560 155 550T166 519Q166 500 156 489T125 478Q105 478 94 489ZM280 478T269 489T257 519Q257 538 268 549T300 560Q320 560 330 550T341 519Q341 500 331 489T300 478Q280 478 269 489Z"
/>
<glyph unicode="&#xe5;" glyph-name="aring" horiz-adv-x="419" d="M310 -8T306 -8Q291 -8 280 15T269 76V265Q269 377 206 377Q172 377 155 355T131 303Q127 284 120 273T93 262Q77 262 69 271T60 292Q60 316 91 340T165 380T242 396Q283 396 304 370T325 295V108Q325
73 334 57T363 41Q383 41 413 54H415Q419 54 420 50T417 43L314 -6Q310 -8 306 -8ZM97 -7T77 12T56 62Q56 92 80 114T159 156L279 201L282 188L176 147Q148 136 136 122T123 87Q123 63 138 47T179 30Q199 30 227 46L290 84L292 71L218 23Q193 7 174 0T134 -7Q97
-7 77 12ZM163 468T139 491T115 547Q115 583 145 604T213 625Q248 625 274 602T300 545Q300 510 271 489T203 468Q163 468 139 491ZM237 478T245 490T254 527Q254 563 236 588T193 614Q175 614 168 603T160 567Q160 533 176 506T219 478Q237 478 245 490Z" />
<glyph unicode="&#xe6;" glyph-name="ae" horiz-adv-x="592" d="M268 -12T261 170Q258 254 254 294T237 356T198 378Q159 378 142 355T119 291Q116 255 84 255Q50 255 50 287Q50 309 77 334T144 377T220 395Q257 395 282 369T309 299Q309 290 313 270Q318 233
319 215Q321 135 348 78T453 21Q486 21 510 29T555 56H556Q559 56 561 53T562 46Q528 15 495 2T422 -12Q268 -12 261 170ZM296 267L499 271V255L297 254L296 267ZM313 343T357 369T454 395Q503 395 530 364T557 276Q557 264 555 260T545 255H487Q491 313 473 344T420
375Q372 375 346 332T319 215L285 299Q313 343 357 369ZM88 -7T67 12T46 62Q46 92 70 113T148 155L268 200L271 188L165 147Q137 135 126 121T114 86Q114 61 128 45T173 29Q198 29 222 45L287 85L288 74L214 23Q189 7 169 0T127 -7Q88 -7 67 12Z" />
<glyph unicode="&#xe7;" glyph-name="ccedilla" horiz-adv-x="411" d="M166 -12T122 16T57 90T36 185Q36 249 68 296T150 369T254 395Q298 395 334 378T371 334Q371 321 362 312T336 302Q309 302 292 335Q279 355 264 365T221 375Q165 375 134 332T102 215Q102
131 144 77T270 23Q331 23 372 56H373Q376 56 378 53T379 48Q344 17 309 3T231 -12Q166 -12 122 16ZM214 -41T214 -58Q214 -72 222 -79T258 -102Q283 -116 297 -134T312 -179Q312 -216 286 -245T208 -275Q180 -275 162 -265T144 -237Q144 -224 153 -216T174 -207Q185
-207 191 -212T203 -229Q210 -242 217 -248T239 -255Q273 -255 273 -217Q273 -191 255 -171T188 -124Q181 -121 177 -118T173 -111Q173 -106 179 -94Q184 -81 204 -30Q206 -22 209 -15T214 -1L227 -2Q214 -41 214 -58Z" />
<glyph unicode="&#xe8;" glyph-name="egrave" horiz-adv-x="408" d="M161 -12T120 15T58 86T36 180Q36 239 64 288T140 366T247 395Q303 395 333 365T363 281Q363 267 361 261T351 255H295L296 273Q296 323 274 349T214 375Q161 375 132 333T102 218Q102 131 143
77T258 23Q288 23 309 31T358 56H359Q362 56 364 53T365 46Q297 -12 219 -12Q161 -12 120 15ZM83 267L310 271V255L84 254L83 267ZM130 731T139 731Q152 731 171 726T192 716L243 476Q245 474 240 473T233 474L131 727Q130 731 139 731Z" />
<glyph unicode="&#xe9;" glyph-name="eacute" horiz-adv-x="408" d="M161 -12T120 15T58 86T36 180Q36 239 64 288T140 366T247 395Q303 395 333 365T363 281Q363 267 361 261T351 255H295L296 273Q296 323 274 349T214 375Q161 375 132 333T102 218Q102 131 143
77T258 23Q288 23 309 31T358 56H359Q362 56 364 53T365 46Q297 -12 219 -12Q161 -12 120 15ZM83 267L310 271V255L84 254L83 267ZM225 472T221 472Q218 472 216 473T214 476L266 716Q267 720 287 725T319 731Q328 731 327 727L225 474Q225 472 221 472Z" />
<glyph unicode="&#xea;" glyph-name="ecircumflex" horiz-adv-x="408" d="M161 -12T120 15T58 86T36 180Q36 239 64 288T140 366T247 395Q303 395 333 365T363 281Q363 267 361 261T351 255H295L296 273Q296 323 274 349T214 375Q161 375 132 333T102 218Q102
131 143 77T258 23Q288 23 309 31T358 56H359Q362 56 364 53T365 46Q297 -12 219 -12Q161 -12 120 15ZM83 267L310 271V255L84 254L83 267ZM308 474T303 473T296 474L228 639L159 474Q159 472 155 472Q152 472 150 473T148 476L216 725Q217 730 227 730Q238 730
239 725L306 476Q308 474 303 473Z" />
<glyph unicode="&#xeb;" glyph-name="edieresis" horiz-adv-x="408" d="M161 -12T120 15T58 86T36 180Q36 239 64 288T140 366T247 395Q303 395 333 365T363 281Q363 267 361 261T351 255H295L296 273Q296 323 274 349T214 375Q161 375 132 333T102 218Q102 131
143 77T258 23Q288 23 309 31T358 56H359Q362 56 364 53T365 46Q297 -12 219 -12Q161 -12 120 15ZM83 267L310 271V255L84 254L83 267ZM120 478T109 489T97 519Q97 538 108 549T140 560Q160 560 170 550T181 519Q181 500 171 489T140 478Q120 478 109 489ZM295
478T284 489T272 519Q272 538 283 549T315 560Q335 560 346 550T357 519Q357 499 346 489T315 478Q295 478 284 489Z" />
<glyph unicode="&#xec;" glyph-name="igrave" horiz-adv-x="273" d="M51 0T51 6T53 12Q80 12 93 17T112 37T117 81V268Q117 304 110 320T84 336Q66 336 39 322H38Q34 322 32 327T33 334L163 394L167 395Q169 395 172 393T175 387Q175 380 174 347T173 269V81Q173
51 178 37T196 18T236 12Q239 12 239 6T236 0Q213 0 199 1L145 2L91 1Q77 0 53 0Q51 0 51 6ZM41 731T50 731Q63 731 82 726T102 716L153 476Q155 474 150 473T143 474L42 727Q41 731 50 731Z" />
<glyph unicode="&#xed;" glyph-name="iacute" horiz-adv-x="273" d="M51 0T51 6T53 12Q80 12 93 17T112 37T117 81V268Q117 304 110 320T84 336Q66 336 39 322H38Q34 322 32 327T33 334L163 394L167 395Q169 395 172 393T175 387Q175 380 174 347T173 269V81Q173
51 178 37T196 18T236 12Q239 12 239 6T236 0Q213 0 199 1L145 2L91 1Q77 0 53 0Q51 0 51 6ZM135 472T131 472Q128 472 126 473T124 476L177 716Q178 720 197 725T229 731Q238 731 237 727L135 474Q135 472 131 472Z" />
<glyph unicode="&#xee;" glyph-name="icircumflex" horiz-adv-x="273" d="M51 0T51 6T53 12Q80 12 93 17T112 37T117 81V268Q117 304 110 320T84 336Q66 336 39 322H38Q34 322 32 327T33 334L163 394L167 395Q169 395 172 393T175 387Q175 380 174 347T173 269V81Q173
51 178 37T196 18T236 12Q239 12 239 6T236 0Q213 0 199 1L145 2L91 1Q77 0 53 0Q51 0 51 6ZM216 475Q216 473 212 472T206 474L138 639L69 474Q69 472 65 472Q62 472 60 473T58 476L126 725Q127 730 137 730Q148 730 149 725L216 476V475Z" />
<glyph unicode="&#xef;" glyph-name="idieresis" horiz-adv-x="273" d="M51 0T51 6T53 12Q80 12 93 17T112 37T117 81V268Q117 304 110 320T84 336Q66 336 39 322H38Q34 322 32 327T33 334L163 394L167 395Q169 395 172 393T175 387Q175 380 174 347T173 269V81Q173
51 178 37T196 18T236 12Q239 12 239 6T236 0Q213 0 199 1L145 2L91 1Q77 0 53 0Q51 0 51 6ZM46 478T35 489T23 519Q23 538 34 549T66 560Q86 560 97 550T108 519Q108 499 97 489T66 478Q46 478 35 489ZM189 478T178 489T167 519Q167 538 178 549T209 560Q229 560
239 550T250 519Q250 500 240 489T209 478Q189 478 178 489Z" />
<glyph unicode="&#xf0;" glyph-name="eth" horiz-adv-x="470" d="M363 314T323 347T229 380Q172 380 136 337T99 215Q99 158 118 111T171 35T251 6Q308 6 339 48T370 191Q370 299 333 401T231 585T90 716Q88 718 88 719Q88 721 90 723T96 725Q199 677 276 598T396
421T438 227Q438 106 378 47T223 -13Q166 -13 123 14T56 87T32 186Q32 255 64 303T144 375T241 399Q276 399 309 386T367 347L378 256Q363 314 323 347ZM124 484Q119 484 116 493T117 505L391 635H392Q397 635 400 626T399 614L125 484H124Z" />
<glyph unicode="&#xf1;" glyph-name="ntilde" horiz-adv-x="517" d="M311 0T311 6T314 12Q341 12 354 17T371 37T376 81V243Q376 303 354 330T284 358Q247 358 210 335T145 272L141 284Q185 343 228 371T317 399Q372 399 402 368T433 277V81Q433 51 437 37T455
18T495 12Q498 12 498 6T495 0Q472 0 459 1L405 2L350 1Q337 0 314 0Q311 0 311 6ZM42 0T42 6T45 12Q72 12 85 17T102 37T107 81V279Q107 313 99 328T72 343Q56 343 18 328H16Q12 328 11 332T13 339L129 394Q131 395 135 395Q144 395 154 372T164 313V81Q164 51
168 37T186 18T226 12Q229 12 229 6T226 0Q203 0 190 1L136 2L81 1Q68 0 45 0Q42 0 42 6ZM364 524T374 530T397 551H398Q401 551 403 549T404 544Q378 508 361 495T325 482Q304 482 264 494Q260 495 239 501T194 507Q178 507 170 502T155 490T145 480H143Q140 480
138 482T138 487Q182 548 222 548Q236 548 253 544T274 538Q318 524 347 524Q364 524 374 530Z" />
<glyph unicode="&#xf2;" glyph-name="ograve" horiz-adv-x="479" d="M173 -13T129 15T60 92T36 198Q36 263 67 308T148 376T249 399Q308 399 352 370T419 294T443 193Q443 131 414 85T337 13T231 -13Q173 -13 129 15ZM315 6T345 45T375 165Q375 227 355 276T298
352T216 380Q162 380 133 341T103 229Q103 168 123 117T179 36T260 6Q315 6 345 45ZM144 731T153 731Q166 731 185 726T205 716L256 476Q258 474 253 473T246 474L145 727Q144 731 153 731Z" />
<glyph unicode="&#xf3;" glyph-name="oacute" horiz-adv-x="479" d="M173 -13T129 15T60 92T36 198Q36 263 67 308T148 376T249 399Q308 399 352 370T419 294T443 193Q443 131 414 85T337 13T231 -13Q173 -13 129 15ZM315 6T345 45T375 165Q375 227 355 276T298
352T216 380Q162 380 133 341T103 229Q103 168 123 117T179 36T260 6Q315 6 345 45ZM238 472T234 472Q231 472 229 473T227 476L280 716Q281 720 300 725T332 731Q341 731 340 727L238 474Q238 472 234 472Z" />
<glyph unicode="&#xf4;" glyph-name="ocircumflex" horiz-adv-x="479" d="M173 -13T129 15T60 92T36 198Q36 263 67 308T148 376T249 399Q308 399 352 370T419 294T443 193Q443 131 414 85T337 13T231 -13Q173 -13 129 15ZM315 6T345 45T375 165Q375 227 355 276T298
352T216 380Q162 380 133 341T103 229Q103 168 123 117T179 36T260 6Q315 6 345 45ZM319 475Q319 473 315 472T309 474L241 639L172 474Q172 472 168 472Q165 472 163 473T161 476L229 725Q230 730 240 730Q251 730 252 725L319 476V475Z" />
<glyph unicode="&#xf5;" glyph-name="otilde" horiz-adv-x="479" d="M173 -13T129 15T60 92T36 198Q36 263 67 308T148 376T249 399Q308 399 352 370T419 294T443 193Q443 131 414 85T337 13T231 -13Q173 -13 129 15ZM315 6T345 45T375 165Q375 227 355 276T298
352T216 380Q162 380 133 341T103 229Q103 168 123 117T179 36T260 6Q315 6 345 45ZM334 524T344 531T366 551H367Q370 551 372 549T373 544Q347 507 330 495T294 482Q273 482 233 494Q217 499 199 503T164 507Q148 507 140 502T125 490T114 480H112Q109 480 107
482T107 487Q124 510 146 529T192 548Q206 548 242 538Q288 524 317 524Q334 524 344 531Z" />
<glyph unicode="&#xf6;" glyph-name="odieresis" horiz-adv-x="479" d="M173 -13T129 15T60 92T36 198Q36 263 67 308T148 376T249 399Q308 399 352 370T419 294T443 193Q443 131 414 85T337 13T231 -13Q173 -13 129 15ZM315 6T345 45T375 165Q375 227 355 276T298
352T216 380Q162 380 133 341T103 229Q103 168 123 117T179 36T260 6Q315 6 345 45ZM134 478T123 489T111 519Q111 538 122 549T154 560Q173 560 183 549T194 519Q194 500 184 489T154 478Q134 478 123 489ZM308 478T297 489T286 519Q286 538 297 549T328 560Q348
560 359 550T370 519Q370 499 359 489T328 478Q308 478 297 489Z" />
<glyph unicode="&#xf7;" glyph-name="divide" horiz-adv-x="398" d="M32 170T31 176T29 191Q29 198 30 203T33 209H364Q366 209 367 203T369 190Q369 183 368 177T364 170H34Q32 170 31 176ZM178 -11T166 0T154 32Q154 51 166 62T198 74Q218 74 229 63T240 32Q240
12 229 1T198 -11Q178 -11 166 0ZM178 311T166 322T154 354Q154 373 166 384T198 395Q218 395 229 385T240 354Q240 334 229 323T198 311Q178 311 166 322Z" />
<glyph unicode="&#xf8;" glyph-name="oslash" horiz-adv-x="477" d="M49 -15Q45 -15 39 -9T36 1L422 399H424Q428 399 434 394T437 385L51 -14L49 -15ZM173 -13T129 15T60 92T36 198Q36 263 67 308T148 376T249 399Q308 399 352 370T419 294T443 193Q443 131 414
85T337 13T231 -13Q173 -13 129 15ZM315 6T345 45T375 165Q375 227 355 276T298 352T216 380Q162 380 133 341T103 229Q103 168 123 117T179 36T260 6Q315 6 345 45Z" />
<glyph unicode="&#xf9;" glyph-name="ugrave" horiz-adv-x="493" d="M132 -8T104 23T76 115V268Q76 307 69 324T46 342Q32 342 12 332H11Q7 332 5 337T7 344L118 394L122 395Q125 395 128 393T132 387V148Q132 32 216 32Q254 32 293 55T360 117L365 106Q320 47
275 20T182 -8Q132 -8 104 23ZM397 73T405 58T432 43Q449 43 485 57H487Q491 57 492 53T490 46L373 -9L369 -10Q359 -10 350 13T341 73V268Q341 308 335 325T311 342Q297 342 277 332H276Q272 332 271 337T273 344L384 394L387 395Q390 395 393 393T397 387V107Q397
73 405 58ZM141 731T150 731Q163 731 182 726T203 716L254 476Q255 474 250 473T244 474L142 727Q141 731 150 731Z" />
<glyph unicode="&#xfa;" glyph-name="uacute" horiz-adv-x="493" d="M132 -8T104 23T76 115V268Q76 307 69 324T46 342Q32 342 12 332H11Q7 332 5 337T7 344L118 394L122 395Q125 395 128 393T132 387V148Q132 32 216 32Q254 32 293 55T360 117L365 106Q320 47
275 20T182 -8Q132 -8 104 23ZM397 73T405 58T432 43Q449 43 485 57H487Q491 57 492 53T490 46L373 -9L369 -10Q359 -10 350 13T341 73V268Q341 308 335 325T311 342Q297 342 277 332H276Q272 332 271 337T273 344L384 394L387 395Q390 395 393 393T397 387V107Q397
73 405 58ZM236 472T232 472Q229 472 227 473T225 476L277 716Q278 720 297 725T330 731Q338 731 337 727L236 474Q236 472 232 472Z" />
<glyph unicode="&#xfb;" glyph-name="ucircumflex" horiz-adv-x="493" d="M132 -8T104 23T76 115V268Q76 307 69 324T46 342Q32 342 12 332H11Q7 332 5 337T7 344L118 394L122 395Q125 395 128 393T132 387V148Q132 32 216 32Q254 32 293 55T360 117L365 106Q320
47 275 20T182 -8Q132 -8 104 23ZM397 73T405 58T432 43Q449 43 485 57H487Q491 57 492 53T490 46L373 -9L369 -10Q359 -10 350 13T341 73V268Q341 308 335 325T311 342Q297 342 277 332H276Q272 332 271 337T273 344L384 394L387 395Q390 395 393 393T397 387V107Q397
73 405 58ZM319 474T314 473T307 474L239 639L170 474Q170 472 166 472Q163 472 161 473T159 476L227 725Q228 730 238 730Q249 730 250 725L317 476Q319 474 314 473Z" />
<glyph unicode="&#xfc;" glyph-name="udieresis" horiz-adv-x="493" d="M132 -8T104 23T76 115V268Q76 307 69 324T46 342Q32 342 12 332H11Q7 332 5 337T7 344L118 394L122 395Q125 395 128 393T132 387V148Q132 32 216 32Q254 32 293 55T360 117L365 106Q320
47 275 20T182 -8Q132 -8 104 23ZM397 73T405 58T432 43Q449 43 485 57H487Q491 57 492 53T490 46L373 -9L369 -10Q359 -10 350 13T341 73V268Q341 308 335 325T311 342Q297 342 277 332H276Q272 332 271 337T273 344L384 394L387 395Q390 395 393 393T397 387V107Q397
73 405 58ZM131 478T120 489T108 519Q108 538 119 549T151 560Q171 560 181 550T192 519Q192 500 182 489T151 478Q131 478 120 489ZM306 478T295 489T283 519Q283 538 294 549T326 560Q346 560 356 550T367 519Q367 500 357 489T326 478Q306 478 295 489Z" />
<glyph unicode="&#xfd;" glyph-name="yacute" horiz-adv-x="435" d="M434 386T434 380T431 374Q406 374 388 357T354 297L232 -28Q195 -125 163 -179T96 -257T16 -281Q-6 -281 -20 -271T-35 -242Q-35 -228 -26 -220T-4 -212Q9 -212 18 -215T37 -225Q39 -226 48
-231T72 -236Q97 -236 119 -214T166 -138T228 10L227 -18L69 303Q46 347 34 360T3 374Q1 374 1 380T3 386L37 385Q49 384 70 384L134 385Q148 386 173 386Q175 386 175 380T173 374Q115 374 115 351Q115 345 120 335L257 53L234 12L332 294Q340 318 340 332Q340
355 322 364T263 374Q261 374 261 380T263 386Q290 386 304 385L364 384L400 385Q410 386 431 386Q434 386 434 380ZM222 472T218 472Q215 472 213 473T211 476L264 716Q265 720 284 725T316 731Q325 731 324 727L222 474Q222 472 218 472Z" />
<glyph unicode="&#xfe;" glyph-name="thorn" horiz-adv-x="491" d="M12 -275T12 -269T14 -263Q41 -263 54 -258T73 -238T78 -194V598Q78 634 71 650T45 666Q30 666 0 652H-2Q-6 652 -7 656T-6 663L120 724L124 725Q127 725 130 723T133 717V-194Q133 -224 140
-238T169 -257T233 -263Q236 -263 236 -269T233 -275Q199 -275 179 -274L106 -273L52 -274Q38 -275 14 -275Q12 -275 12 -269ZM200 -13T171 -4T107 30L122 85Q152 48 185 28T269 8Q323 8 357 54T391 184Q391 268 354 314T259 361Q219 361 187 340T117 278L109 286Q159
344 206 371T302 399Q343 399 378 377T434 313T455 215Q455 140 421 89T338 12T240 -13Q200 -13 171 -4Z" />
<glyph unicode="&#xff;" glyph-name="ydieresis" horiz-adv-x="435" d="M434 386T434 380T431 374Q406 374 388 357T354 297L232 -28Q195 -125 163 -179T96 -257T16 -281Q-6 -281 -20 -271T-35 -242Q-35 -228 -26 -220T-4 -212Q9 -212 18 -215T37 -225Q39 -226
48 -231T72 -236Q97 -236 119 -214T166 -138T228 10L227 -18L69 303Q46 347 34 360T3 374Q1 374 1 380T3 386L37 385Q49 384 70 384L134 385Q148 386 173 386Q175 386 175 380T173 374Q115 374 115 351Q115 345 120 335L257 53L234 12L332 294Q340 318 340 332Q340
355 322 364T263 374Q261 374 261 380T263 386Q290 386 304 385L364 384L400 385Q410 386 431 386Q434 386 434 380ZM118 478T107 489T95 519Q95 538 106 549T138 560Q157 560 167 549T178 519Q178 500 168 489T138 478Q118 478 107 489ZM292 478T281 489T270 519Q270
538 281 549T312 560Q332 560 343 550T354 519Q354 499 343 489T312 478Q292 478 281 489Z" />
<glyph unicode="&#x2013;" glyph-name="endash" horiz-adv-x="515" d="M32 170T31 176T29 191Q29 198 30 203T33 209H481Q483 209 484 203T486 190Q486 183 485 177T481 170H34Q32 170 31 176Z" />
<glyph unicode="&#x2014;" glyph-name="emdash" horiz-adv-x="830" d="M32 170T31 176T29 191Q29 198 30 203T33 209H796Q798 209 799 203T801 190Q801 183 800 177T796 170H34Q32 170 31 176Z" />
<glyph unicode="&#x2018;" glyph-name="quoteleft" horiz-adv-x="194" d="M75 382T58 404T41 469Q41 514 60 554T116 634Q117 635 119 635Q122 635 124 632T124 627Q102 596 94 568T86 505Q86 478 93 462T114 433L76 426Q75 443 85 452T111 461Q130 461 140 450T151
421Q151 402 139 392T105 382Q75 382 58 404Z" />
<glyph unicode="&#x2019;" glyph-name="quoteright" horiz-adv-x="192" d="M118 633T135 611T152 546Q152 501 133 461T76 381Q75 380 73 380Q70 380 68 383T68 388Q90 420 98 447T106 510Q106 537 99 553T79 582L116 589Q117 572 107 563T81 554Q63 554 52 565T41
593Q41 633 87 633Q118 633 135 611Z" />
<glyph unicode="&#x201a;" glyph-name="quotesinglbase" horiz-adv-x="192" d="M118 71T135 49T152 -17Q152 -61 133 -100T76 -181Q75 -182 73 -182Q70 -182 68 -179T68 -174Q90 -143 98 -115T106 -52Q106 -25 99 -9T79 20L116 27Q117 10 107 1T81 -8Q63 -8 52
3T41 31Q41 71 87 71Q118 71 135 49Z" />
<glyph unicode="&#x201c;" glyph-name="quotedblleft" horiz-adv-x="340" d="M75 382T59 404T42 469Q42 514 61 554T117 634Q118 635 120 635Q123 635 125 632T125 627Q103 596 95 568T87 505Q87 478 94 462T115 433L77 426Q76 443 86 452T112 461Q131 461 141
450T152 421Q152 402 140 392T106 382Q75 382 59 404ZM222 382T205 404T188 469Q188 513 207 553T263 634Q264 635 266 635Q269 635 271 632T271 627Q249 596 242 568T234 505Q234 478 241 462T261 433L223 426Q222 443 232 452T259 461Q277 461 287 450T298 421Q298
382 253 382Q222 382 205 404Z" />
<glyph unicode="&#x201d;" glyph-name="quotedblright" horiz-adv-x="340" d="M264 633T281 611T298 546Q298 501 279 461T223 381Q222 380 220 380Q217 380 215 383T215 388Q237 420 245 447T253 510Q253 537 246 553T225 582L263 589Q264 572 254 563T228 554Q209
554 199 564T188 593Q188 633 234 633Q264 633 281 611ZM118 633T135 611T152 546Q152 501 133 461T76 381Q75 380 73 380Q70 380 68 383T68 388Q90 420 98 447T106 510Q106 537 99 553T79 582L116 589Q117 572 107 563T81 554Q63 554 52 565T41 593Q41 633 87
633Q118 633 135 611Z" />
<glyph unicode="&#x201e;" glyph-name="quotedblbase" horiz-adv-x="342" d="M264 71T281 49T298 -17Q298 -62 279 -101T223 -181Q222 -182 220 -182Q217 -182 215 -179T215 -174Q237 -143 245 -115T253 -52Q253 -25 246 -9T225 20L263 27Q264 10 254 1T228 -8Q209
-8 199 2T188 31Q188 71 234 71Q264 71 281 49ZM118 71T135 49T152 -17Q152 -61 133 -100T76 -181Q75 -182 73 -182Q70 -182 68 -179T68 -174Q90 -143 98 -115T106 -52Q106 -25 99 -9T79 20L116 27Q117 10 107 1T81 -8Q63 -8 52 3T41 31Q41 71 87 71Q118 71 135
49Z" />
<glyph unicode="&#x2022;" glyph-name="bullet" horiz-adv-x="306" d="M112 151T84 179T55 248Q55 288 83 316T153 344Q193 344 221 316T250 248Q250 207 222 179T153 151Q112 151 84 179Z" />
<glyph unicode="&#x2039;" glyph-name="guilsinglleft" horiz-adv-x="304" d="M55 193T55 201Q55 208 59 212L236 361Q236 362 238 362Q240 362 242 360T243 356L121 201L243 46Q244 44 241 41T236 40L59 189Q55 193 55 201Z" />
<glyph unicode="&#x203a;" glyph-name="guilsinglright" horiz-adv-x="304" d="M250 207T250 201Q250 194 245 189L68 40Q68 39 66 39Q64 39 62 41T61 46L183 200L61 356Q60 358 63 361T68 361L245 212Q250 207 250 201Z" />
</font>
</defs>
</svg>
