<?xml version="1.0" standalone="no"?>
<!DOCTYPE svg PUBLIC "-//W3C//DTD SVG 1.1//EN" "http://www.w3.org/Graphics/SVG/1.1/DTD/svg11.dtd">
<svg xmlns="http://www.w3.org/2000/svg">
<defs >
<font id="Labrada" horiz-adv-x="498" ><font-face
    font-family="Labrada"
    units-per-em="1000"
    panose-1="0 0 0 0 0 0 0 0 0 0"
    ascent="1145"
    descent="-300"
    alphabetic="0" />
<glyph unicode=" " horiz-adv-x="210" />
<glyph unicode="!" horiz-adv-x="272" d="M114 159L104 169L85 620L84 644Q89 645 101 646T128 649T158 651T179 652Q181 652 188 643T196 629Q192 559 184 479T168 319T150 165Q144 162 134 161T114 159ZM106 -15Q103 -13 97 -6T89 4Q87 13 86 23T84 45T83 69Q86
71 89 74T95 79Q117 79 134 79T167 76Q167 76 169 53T171 2Q165 -1 156 -3T137 -8T119 -12T106 -15Z" />
<glyph unicode="&quot;" horiz-adv-x="288" d="M75 417L68 425Q68 466 68 502T66 571T63 636Q64 638 73 641T96 647T124 652L140 639Q138 612 134 586T124 523T105 429L75 417ZM195 417L188 425Q188 466 188 502T186 571T183 636Q184 638 193 641T216 647T244
652L260 639Q258 612 254 586T244 523T225 429L195 417Z" />
<glyph unicode="#" horiz-adv-x="505" d="M287 -41L274 -31Q286 42 296 120T314 279T327 441T334 602L388 606L401 596Q395 556 387 496T371 364T356 219T345 80T341 -36L287 -41ZM17 168L10 176L19 224H476L483 218L475 178L17 168ZM112 -41L99 -31Q111 42 121
120T139 279T152 441T159 602L213 606L226 596Q220 555 212 494T196 362T181 218T170 79T166 -36L112 -41ZM27 348L20 356L29 404H486L493 398L485 358L27 348Z" />
<glyph unicode="$" horiz-adv-x="452" d="M213 -12Q195 -12 168 -9T115 0T68 12L65 19L54 139L57 145L97 154L133 62Q150 54 166 49T207 44Q235 44 260 47T301 58Q311 76 316 95T322 139Q295 162 259 178T185 211Q151 227 122 245T74 291T55 359Q55 373 58 386T68
413T89 440Q119 472 160 491T247 516Q264 516 287 513T334 504T371 492L375 485L370 371L332 367L327 371L306 441Q287 450 266 454T223 458Q210 458 197 457T171 452T145 443Q141 432 139 421T136 399Q136 384 139 369T151 340T175 316Q214 296 253 282T325 252T378
216T398 161Q398 133 393 107T369 57Q341 27 299 10T213 -12ZM190 -118L186 -109Q188 -95 190 -60T196 25T202 131T208 242Q210 275 212 319T216 410T221 501T224 576T226 620L257 622L261 618Q255 542 250 449T239 257T229 62T220 -116L190 -118Z" />
<glyph unicode="%" horiz-adv-x="944" d="M182 245Q163 245 138 253T88 283T47 341T30 435Q30 470 33 500T47 559Q70 589 93 607T141 641Q158 647 177 649T213 652Q232 652 258 644T308 614T349 556T365 462Q365 426 362 396T348 340Q332 312 309 293T255 255Q236
250 218 248T182 245ZM190 295Q207 295 228 298T265 312Q272 338 276 370T280 455Q280 504 263 542T213 603Q202 603 187 601T157 597T134 590Q127 562 125 529T122 445Q122 394 138 356T190 295ZM223 -122L175 -90V-75Q222 -14 276 63T388 225T502 397T610 567T703
719L749 686V670Q691 586 629 495T506 313T391 140T294 -10T223 -122ZM731 -12Q712 -12 687 -4T637 26T596 84T579 178Q579 213 582 243T596 302Q619 332 642 350T690 384Q707 390 726 392T762 395Q781 395 807 387T857 357T898 299T914 205Q914 169 911 139T897
83Q881 55 858 36T804 -2Q785 -7 767 -9T731 -12ZM739 38Q756 38 777 41T814 55Q821 81 825 113T829 198Q829 247 812 285T762 346Q751 346 736 344T706 340T683 333Q676 305 674 272T671 188Q671 137 687 99T739 38Z" />
<glyph unicode="&amp;" horiz-adv-x="771" d="M240 -13Q193 -13 159 11T103 70T71 137T60 185Q60 201 75 221T115 265T167 309T217 349Q180 387 158 424T135 496Q135 534 156 562T209 609Q238 627 271 637T329 652Q364 652 391 639T436 592T454 493V484Q454 479
441 467T411 439T379 413T360 398Q350 406 343 414T328 431Q343 446 354 461T372 493T379 526Q379 543 370 561T349 591T333 604Q324 604 304 600T265 590T242 580Q238 577 233 562T224 528T220 498Q220 494 238 462T301 381Q325 354 367 311T461 221Q480 262 501
316T549 441L697 450Q703 426 703 403L624 385Q599 357 577 324T537 256T501 186Q560 135 619 95T725 41L732 30L725 0Q711 -3 694 -6T659 -10T624 -12Q582 12 540 44T457 113Q420 59 370 23T240 -13ZM218 55Q294 55 339 75T420 146Q392 173 365 200T311 254T259
307Q198 254 179 222T160 173Q160 158 168 138T186 99T206 68T218 55Z" />
<glyph unicode="&apos;" horiz-adv-x="168" d="M75 417L68 425Q68 466 68 502T66 571T63 636Q64 638 73 641T96 647T124 652L140 639Q138 612 134 586T124 523T105 429L75 417Z" />
<glyph unicode="(" horiz-adv-x="342" d="M315 -121Q232 -77 181 -16T107 118T84 269Q84 327 95 386T127 503Q142 526 161 550T203 599T250 647T298 690H310L330 673Q289 628 259 579T208 478T178 373T168 264Q168 215 175 167T198 70Q221 32 258 -10T334 -84V-97L315
-121Z" />
<glyph unicode=")" horiz-adv-x="348" d="M47 -121L24 -102V-89Q65 -44 94 4T143 102T171 205T180 313Q180 346 177 378T167 442T150 507Q127 545 87 589T8 666L28 691H40Q119 647 168 588T240 458T264 308Q264 250 253 191T221 74Q206 51 186 25T143 -27T96 -77T47
-121Z" />
<glyph unicode="*" horiz-adv-x="475" d="M311 372L239 504L169 373Q166 374 159 378T142 388T124 399T111 408Q110 409 110 417T110 429Q119 441 129 453T151 477T175 501T201 525Q184 527 168 529T136 535T105 542T76 551Q72 553 68 560T64 568Q66 573 70 582T79
601T88 619T93 630L218 567L201 708Q204 709 212 710T232 712T253 713T268 714Q270 713 275 707T281 697Q280 681 278 665T274 631T268 596T260 560L391 626Q393 624 396 616T405 598T414 578T420 564Q420 563 416 557T408 547Q390 542 369 537T326 529T281 521Q293
509 305 498T328 475T350 451T369 427Q369 422 369 417T369 406Q365 403 357 398T339 387T321 377T311 372Z" />
<glyph unicode="+" horiz-adv-x="581" d="M275 -7L266 0Q267 8 267 40T267 119T267 218Q218 218 174 218T99 218T61 217L54 226L61 272Q110 270 157 269T267 268Q267 345 266 395T263 479L311 486L322 472Q321 453 320 396T319 268Q387 268 440 269T513 271L527
260L520 214Q486 215 437 216T319 218Q319 155 320 98T323 0L275 -7Z" />
<glyph unicode="," horiz-adv-x="283" d="M89 -120Q82 -120 74 -113T65 -102Q65 -100 70 -87T82 -56T96 -21T107 8L78 46Q78 50 79 61T81 82T82 93Q89 95 101 97T128 100T156 102Q171 89 178 74T185 42Q185 14 169 -17T131 -75T89 -120Z" />
<glyph unicode="-" horiz-adv-x="308" d="M35 194L28 203L33 250Q71 250 116 252T203 258T270 264L284 253L279 205Q259 205 223 205T138 202T35 194Z" />
<glyph unicode="." horiz-adv-x="223" d="M108 -11Q99 -4 88 6T67 27T52 46Q58 56 66 68T85 92T103 111L119 103Q133 96 146 86T171 65V53Q161 38 151 24T129 -5L108 -11Z" />
<glyph unicode="/" horiz-adv-x="366" d="M15 -125L2 -107Q47 13 92 149T181 427T259 701H316L327 689Q305 628 277 547T219 375T160 193T107 20T68 -125H15Z" />
<glyph unicode="0" horiz-adv-x="547" d="M259 -12Q201 -12 152 18T72 104T42 234Q42 288 59 339T98 424Q134 456 184 481T288 516Q347 516 396 486T475 400T505 269Q505 232 497 196T475 130T445 75Q409 46 361 22T259 -12ZM249 78Q300 78 344 100T416 163T443
256Q443 308 422 348T372 411Q354 418 335 421T297 424Q259 424 224 412T162 376T119 320T103 246Q103 194 124 155T174 92Q193 85 211 82T249 78Z" />
<glyph unicode="1" horiz-adv-x="349" d="M49 -4Q46 5 45 14T44 32L139 65Q144 103 146 139T148 216Q148 253 148 302T143 387L40 349L30 352L18 382Q41 397 63 412T108 445T153 479T197 516L233 495L225 439V54L313 34Q313 27 313 18T310 0Q300 0 274 0T215 0T148
-1T88 -2T49 -4Z" />
<glyph unicode="2" horiz-adv-x="487" d="M46 -12L28 26Q56 43 94 75T170 147Q216 196 247 241T295 318T312 358Q307 381 293 401T266 433T249 446Q221 445 195 435T146 412T107 387T82 369H70L50 394Q64 409 83 430T125 470T170 503T211 516Q255 516 295 506T368
471Q371 469 378 451T392 408T399 355Q399 331 384 301T345 238T291 174T234 116T184 71V58Q209 60 234 62T284 66T334 70T384 74L415 146Q426 146 438 144T457 136L450 0Q393 1 330 2T204 3T85 4L46 -12Z" />
<glyph unicode="3" horiz-adv-x="445" d="M30 -118L24 -78Q80 -66 136 -52T234 -13Q251 3 266 25T291 68T301 94Q301 111 289 138T257 182Q249 189 209 193T112 198L102 206L98 235Q118 240 137 244T176 253Q199 269 220 288T256 330T270 374Q270 400 256 420T224
456Q196 456 163 446T103 424T61 405H49L32 435Q46 445 68 459T117 486T167 507T208 516Q231 516 254 513T298 501T337 477Q340 475 345 459T354 419T358 372Q358 330 334 305T267 254V246Q323 231 360 201T397 126Q397 65 367 19T284 -57T167 -103T30 -118Z" />
<glyph unicode="4" horiz-adv-x="556" d="M325 -118L312 -109L319 74Q263 74 219 74T140 73T79 69T31 62L12 90Q41 125 73 165T137 248T202 335T264 422T318 507L394 516L407 502Q407 483 406 454T404 389T402 317T400 245T398 181T396 131Q415 131 437 132T481
135T523 141L532 135Q531 125 528 107T517 74H396Q396 39 399 7T405 -51T411 -92T414 -107L325 -118ZM118 131H319V400Q299 370 278 341T237 285T196 231T157 179T118 131Z" />
<glyph unicode="5" horiz-adv-x="445" d="M22 -118L16 -78Q54 -70 91 -61T163 -41T226 -13Q243 3 258 25T283 68T293 94Q293 111 281 139T249 183Q210 197 158 208T63 225L51 238L68 333Q71 361 72 394T73 455T74 498L84 506L324 516L360 557L399 551L357 430L133
422L115 278Q141 275 174 271T237 263T288 255T312 249Q328 237 346 218T376 176T389 126Q389 65 359 19T276 -57T159 -103T22 -118Z" />
<glyph unicode="6" horiz-adv-x="502" d="M251 -12Q221 -12 185 1T117 43T63 114T42 217Q42 288 57 349T98 463Q128 496 163 521T238 566T322 599T412 621L423 581Q385 570 348 557T276 528T206 492Q175 452 157 391T139 264Q139 233 144 202T160 143T187 92Q201
81 222 71T264 53T294 46Q312 51 332 59T366 79Q373 98 376 116T380 153Q380 187 368 221T330 276Q320 279 295 280T242 283T197 284L187 292L189 318Q208 325 240 332T306 345T358 351Q370 347 388 340T424 318T454 279T466 216Q466 175 450 136T405 64T342 7Q323
-2 299 -7T251 -12Z" />
<glyph unicode="7" horiz-adv-x="442" d="M152 -118Q145 -118 135 -116T114 -111T92 -103T74 -96L71 -82L353 423Q311 422 269 421T184 418T99 412L73 343L34 349L44 496L54 504Q101 504 152 504T254 506T350 509T428 516L440 476Q393 389 354 313T280 167T214
27T152 -118Z" />
<glyph unicode="8" horiz-adv-x="497" d="M222 -12Q175 -12 141 7T85 53T53 107T42 149Q42 170 65 198T121 254T184 303Q152 322 126 344T85 395T70 462Q70 499 91 527T144 574T212 605T275 620Q317 620 355 606T417 552T441 434Q438 424 420 406T376 366T324
326Q357 307 387 287T436 242T455 185Q450 151 423 109T346 32T222 -12ZM248 53Q269 53 291 58T333 72Q338 78 345 96T358 138T364 183Q342 204 319 221T271 252T224 279Q210 266 195 252T167 220T146 185T138 148Q138 123 147 105T171 76T206 59T248 53ZM283 349Q299
362 312 375T334 403T349 431T355 460Q355 489 337 516T296 563Q276 563 257 562T220 558T188 552Q183 547 176 529T163 487T157 442Q173 424 194 408T238 376T283 349Z" />
<glyph unicode="9" horiz-adv-x="492" d="M95 -118L85 -110L78 -77Q134 -60 186 -38T288 13Q318 53 335 114T353 241Q353 272 348 302T333 361T307 412Q294 423 274 433T234 451T204 458Q187 453 170 445T135 423Q129 404 126 384T122 344Q122 307 134 271T169
212Q179 209 203 207T253 205T295 204L305 196L303 170Q285 164 254 156T190 143T140 137Q128 141 111 148T77 171T48 212T36 278Q36 321 51 361T94 437T156 496Q174 505 197 510T244 516Q274 516 309 503T376 461T429 390T450 287Q450 217 435 156T394 42Q364
9 331 -16T260 -61T181 -95T95 -118Z" />
<glyph unicode=":" horiz-adv-x="283" d="M135 -12Q125 -5 114 5T94 26T79 45Q85 55 94 67T113 91T131 110L142 104Q156 96 170 86T198 64V52Q188 37 178 23T156 -6L135 -12ZM160 346Q149 349 133 355T101 367T79 378V401Q84 409 96 429T118 462H133L142 457Q158
448 172 438T200 413Q196 404 190 392T176 368T160 346Z" />
<glyph unicode=";" horiz-adv-x="283" d="M115 335Q105 342 93 352T71 374T56 395Q62 406 71 418T90 443T109 462Q128 454 146 442T180 414V402Q170 386 160 371T136 340L115 335ZM89 -120Q82 -120 74 -113T65 -102Q65 -100 70 -87T82 -56T96 -21T107 8L78 46Q78
50 79 61T81 82T82 93Q89 95 101 97T128 100T156 102Q171 89 178 74T185 42Q185 14 169 -17T131 -75T89 -120Z" />
<glyph unicode="&lt;" horiz-adv-x="516" d="M453 68Q435 77 396 94T308 132T206 174T110 212T36 239L33 244Q35 255 40 275T50 302Q100 320 157 341T271 384T376 426T455 462L465 457L472 404L115 273L113 266L474 126L480 115L453 68Z" />
<glyph unicode="=" horiz-adv-x="581" d="M61 296L54 305L61 351Q95 350 133 349T211 348T293 347T373 347T447 348T513 350L527 339L520 293Q491 294 445 294T344 296T235 297T135 298T61 296ZM61 139L54 148L61 194Q95 193 133 192T211 191T293 190T373 190T447
191T513 193L527 182L520 136Q491 137 445 137T344 139T235 140T135 141T61 139Z" />
<glyph unicode="&gt;" horiz-adv-x="516" d="M60 68L33 115L39 126L400 266L398 273L41 404L48 457L58 462Q90 446 137 426T241 385T355 342T463 302Q468 295 473 277T479 247L476 239Q447 229 402 212T306 174T205 132T117 94T60 68Z" />
<glyph unicode="?" horiz-adv-x="456" d="M139 155L130 163L113 258Q160 300 196 339T258 412T296 466T309 494Q303 517 291 539T268 577T253 592Q220 590 188 582T130 564T89 547T73 540L54 571Q75 589 104 608T163 639T219 652Q245 652 272 648T324 634T368
607Q371 605 376 587T385 544T390 491Q390 476 388 462T381 436Q367 404 339 373T279 314T218 266T175 236L179 166Q174 162 162 159T139 155ZM136 -15Q135 -16 128 -7T119 4Q116 17 115 33T113 69L125 79Q147 79 164 79T197 76Q197 76 199 53T201 2Q195 -1 186
-3T167 -8T149 -12T136 -15Z" />
<glyph unicode="@" horiz-adv-x="897" d="M392 -188Q350 -188 304 -177T213 -141T132 -75T74 24T52 161Q52 264 79 341T154 474T262 565T387 622T517 652Q585 652 645 638T751 590T823 495T849 341Q849 267 833 212T791 118T734 53Q689 16 643 2T568 -12L546 13Q550
66 553 119T560 226L554 228Q535 178 514 139T469 66T416 0Q402 -4 383 -8T342 -12Q332 -6 312 13T276 75T260 190Q260 252 278 299T318 374Q340 394 368 414T420 448T457 462Q476 462 495 461T535 457T573 452Q581 457 589 461T604 471T620 480L650 468Q646 428
641 384T633 298T627 225T624 176Q624 153 624 131T626 88T628 54T630 31Q685 57 720 97T773 189T791 301Q791 379 772 431T722 514T651 562T572 583T496 588Q450 588 404 577T310 546Q266 512 224 459T154 336T126 176Q126 102 149 44T213 -53T304 -113T408 -134Q435
-134 458 -131T498 -124T524 -118L531 -150Q497 -163 462 -172T392 -188ZM396 48Q416 66 440 101T487 182T529 281T559 387L560 392Q531 402 495 407T427 413Q399 401 380 379T350 321T340 229Q340 211 341 190T346 145T355 93Q359 87 364 81T374 69T384 58T396
48Z" />
<glyph unicode="A" horiz-adv-x="645" d="M7 -9Q6 -2 4 11T1 38L57 58Q61 66 75 100T111 184T157 293T204 409T246 516T275 596V627Q283 632 300 638T334 648T359 652L361 645Q378 590 397 534T437 422T477 316T516 219T551 135T579 67L644 47Q644 34 643 21T639
0Q581 0 528 -2T437 -6T384 -9Q382 -2 380 8T378 29L468 50Q462 78 448 122T416 219L192 209Q179 168 168 130T149 62L240 38Q240 28 239 18T235 0Q154 0 96 -3T7 -9ZM214 274H397Q376 333 354 392T313 499L305 521Q296 497 281 457T249 370T214 274Z" />
<glyph unicode="B" horiz-adv-x="583" d="M346 -12Q317 -12 276 -12T192 -10Q154 -10 120 -10T65 -9Q62 3 61 14T59 38L141 57Q143 91 145 139T148 244T150 356Q150 393 150 431T147 506T139 574L58 596Q58 607 59 618T64 640Q117 640 167 643T263 649T345 652Q380
652 399 649T435 641Q456 629 471 613T497 579T513 540T518 498Q518 473 511 447T489 396Q480 386 471 377T451 358T425 335Q441 331 463 323T505 298T540 254T554 183Q554 148 546 121T526 73T501 38T475 13Q458 4 426 -4T346 -12ZM392 43Q408 51 421 60T445 78Q450
97 453 116T456 155Q456 182 450 208T431 258T395 302Q381 302 359 302T312 300Q292 299 271 297T231 292Q231 260 232 228T233 166T235 108T237 59Q251 56 268 53T305 48T347 45T392 43ZM231 358Q247 356 264 355T299 353Q318 353 335 354T366 358Q383 364 398
373T423 392Q428 409 430 429T433 469Q433 506 422 540T381 597Q365 597 348 597T312 594Q293 592 273 590T234 583Q233 561 233 530T232 466T231 405T231 358Z" />
<glyph unicode="C" horiz-adv-x="601" d="M305 -12Q249 -12 200 15T114 88T56 188T35 297Q35 341 47 384T82 466T135 540Q163 570 196 593T266 632T342 652Q368 652 404 648T476 635T534 618L538 609L532 450L484 444L479 450L453 551Q436 559 420 564T384 571T340
574Q303 574 270 570T215 557Q193 535 174 501T144 422T133 326Q133 265 154 214T215 124T313 62Q349 62 389 73T469 101T540 129L561 92Q509 51 445 24T305 -12Z" />
<glyph unicode="D" horiz-adv-x="707" d="M273 -12Q256 -12 227 -12T164 -11T104 -10T64 -9Q58 15 58 38L150 59Q154 110 158 189T162 351Q162 410 160 453T154 525T149 568L64 602Q64 619 66 629T69 640Q132 640 183 642T275 646T347 650T403 652Q459 652 508
625T594 552T652 452T673 343Q673 286 652 230T595 127T510 45Q478 23 442 8T366 -12Q356 -12 346 -12T326 -12T307 -12T290 -12T273 -12ZM362 52Q391 52 418 56T473 70Q496 93 519 130T559 215T575 314Q575 360 563 402T528 481T472 545T395 591Q370 591 344 589T295
582T258 573Q254 550 248 494T241 355Q241 314 241 262T243 157T248 67Q261 64 275 61T303 56T332 53T362 52Z" />
<glyph unicode="E" horiz-adv-x="625" d="M66 -9Q60 15 60 38L146 54Q146 120 146 183T145 310Q145 354 144 397T143 485T141 574L58 596Q58 607 59 618T64 640Q109 640 153 640T243 641T332 643T421 645T511 649V641L517 470Q505 466 494 464T470 462L466 473L429
586Q393 586 354 584T283 578T239 574Q238 544 237 509T234 434T232 353L426 357L452 332L446 289L231 295L230 57Q256 57 283 58T337 60T388 64T433 68T469 74L500 178Q512 177 523 176T547 170V164L540 4V-6Q501 -4 462 -3T384 -1T305 0Q275 0 245 0T186 -2T126
-5T66 -9Z" />
<glyph unicode="F" horiz-adv-x="543" d="M66 -9Q60 15 60 38L142 53Q144 120 144 185T145 315Q146 357 146 399T146 485T147 574L58 596Q58 607 59 618T64 640Q108 640 151 640T239 641T326 643T413 645T501 649V635L507 470Q497 466 485 464T462 462L458 475L422
586Q392 586 360 584T298 580T251 575T230 573Q230 544 230 516T230 458T230 401T230 343L409 349L435 324L429 279L231 285L237 67L351 38Q351 28 350 19T346 0Q311 0 276 0T206 -2T136 -5T66 -9Z" />
<glyph unicode="G" horiz-adv-x="659" d="M508 -13L489 37Q463 23 434 14T373 -2T305 -12Q249 -12 200 15T114 88T56 188T35 297Q35 349 52 399T99 494T170 573Q195 595 222 611T280 637T342 652Q371 652 411 648T490 635T554 618L558 609L552 450L501 444L496
450L468 551Q450 559 433 564T395 571T348 574Q309 574 274 570T215 557Q193 535 174 501T144 422T133 326Q133 235 180 166T313 62Q340 62 368 66T424 78T478 95L466 227L370 261L375 298Q423 299 460 300T532 303T606 307L613 261L557 240Q554 201 553 164T551
92Q551 61 552 38T556 -2L508 -13Z" />
<glyph unicode="H" horiz-adv-x="783" d="M64 -9Q61 3 60 14T58 38L146 59Q146 106 146 151T145 241T145 330Q145 370 144 409T143 488T141 568L58 602Q58 612 59 621T63 640Q127 640 191 642T319 649Q324 625 325 602L240 584Q239 554 238 518T235 442T232 359H556Q557
397 557 433T558 504T559 568L458 602Q458 612 459 621T463 640Q527 640 591 642T719 649Q725 625 725 602L641 581Q641 549 641 517T642 454T642 391T643 328Q643 285 643 242T644 156T646 70L725 38Q725 28 724 19T720 0Q656 0 592 -2T464 -9Q461 3 460 14T458
38L547 56Q550 106 552 170T555 304L231 288Q231 259 231 231T230 175T230 122T230 72L325 38Q325 28 324 19T320 0Q256 0 192 -2T64 -9Z" />
<glyph unicode="I" horiz-adv-x="382" d="M64 -9Q61 3 60 14T58 38L144 57Q147 94 149 131T151 206T152 280Q152 331 152 381T151 479T146 571L58 602Q58 612 59 621T63 640Q127 640 190 642T318 649Q320 637 322 626T324 602L243 582Q239 527 237 471T235 358Q235
320 235 283T235 209T237 138T241 70L324 38Q324 28 323 19T319 0Q255 0 192 -2T64 -9Z" />
<glyph unicode="J" horiz-adv-x="378" d="M32 -212Q20 -194 10 -176T-9 -140Q-7 -135 -5 -131T2 -122Q22 -122 42 -122T83 -121T123 -121Q130 -91 135 -61T143 0T147 60Q147 109 147 153T147 240T146 323Q146 363 145 402T143 483T141 569L54 602Q54 612 55 621T59
640Q121 640 183 642T308 649Q311 637 312 626T314 602L240 583Q238 537 237 474T235 341T233 202T230 72T224 -30Q218 -66 201 -101T160 -173Q128 -186 96 -195T32 -212Z" />
<glyph unicode="K" horiz-adv-x="668" d="M511 -12Q507 -9 497 3T470 39T431 97T376 178T305 282Q288 287 270 289T235 293Q235 264 235 235T234 177T233 122T233 72L329 38Q329 28 328 19T324 0Q259 0 194 -2T64 -9Q62 3 60 14T58 38L150 59Q150 102 150 143T150
226T149 307Q149 350 148 393T147 480T145 568L58 602Q58 612 59 621T63 640Q128 641 193 643T323 649Q325 637 327 626T329 602L244 584Q242 554 241 518T238 443T236 359Q256 359 275 359T314 359Q323 374 335 396T363 444T396 502T432 568T470 640Q507 642 544
644T618 649Q621 637 622 626T624 602L535 584Q493 521 452 458T368 332Q378 318 394 295T431 244T475 185T521 124T567 67L667 44Q667 25 658 5Q621 -2 585 -7T511 -12Z" />
<glyph unicode="L" horiz-adv-x="550" d="M68 -9Q65 3 64 14T62 38L149 54Q154 110 155 167T157 280Q157 331 157 381T156 479T151 571L58 602Q58 612 59 621T63 640Q128 641 193 643T323 649Q325 637 327 626T329 602L248 582Q245 545 243 506T241 418T240 308Q240
289 240 260T240 197T242 126T246 57Q268 57 292 58T342 60T390 64T432 68T464 74L494 198Q505 198 516 197T539 190V177L533 7L532 -6Q475 -3 418 -2T303 0Q274 0 245 0T186 -2T127 -5T68 -9Z" />
<glyph unicode="M" horiz-adv-x="901" d="M44 -9Q42 3 40 14T38 38L119 59Q123 94 126 129T131 201T135 274Q136 305 137 346T139 432T141 515T142 582L55 602Q55 612 56 621T60 640Q118 640 173 642T287 649Q301 602 315 556T343 464T372 376T400 290T428 208T455
129L458 137Q475 181 492 231T527 334T560 435T589 526T610 598T622 640Q675 641 729 644T835 652Q837 640 838 628T839 603L758 583Q758 547 758 500T759 402T762 299Q764 260 765 227T769 165T773 113T778 72L873 38Q873 28 872 19T868 0Q806 -1 743 -3T618 -9Q616
3 614 14T612 38L678 53Q678 71 678 111T677 203T676 311T674 418T672 508T668 563H664L488 44V13Q481 8 464 2T429 -8T404 -12L401 -4L213 563H209Q206 510 205 451T202 328T200 200T199 72L289 38Q289 28 288 19T284 0Q224 0 164 -2T44 -9Z" />
<glyph unicode="N" horiz-adv-x="753" d="M572 -19Q552 17 511 78T416 215T306 374T200 536Q200 485 201 422T203 293Q203 262 203 231T205 172T206 118T207 72L303 38Q303 28 302 19T298 0Q236 -1 173 -2T48 -9Q46 3 44 14T42 38L130 59Q132 80 133 112T136 190T137
295Q137 327 136 370T133 458T130 536T127 582L43 602Q43 612 44 621T48 640Q94 640 139 643T231 649Q262 601 289 558T343 474T394 396T446 320T500 243T559 162Q559 203 560 246T561 329Q561 369 561 408T559 488T555 568L460 602Q460 612 461 621T465 640Q525
641 585 642T705 649Q708 637 709 626T711 602L640 580Q633 514 629 435T624 277Q624 251 624 223T624 166T626 112T628 64L639 15Q634 11 627 6T611 -3T595 -11T581 -17T572 -19Z" />
<glyph unicode="O" horiz-adv-x="652" d="M307 -12Q250 -12 201 15T115 88T56 188T35 297Q35 328 41 358T60 419T89 476Q117 522 156 559T244 621T343 652Q400 652 449 624T535 551T594 450T615 341Q615 311 609 282T592 223T565 167Q537 121 497 83T408 20T307
-12ZM310 63Q335 63 358 65T401 73T435 83Q469 117 493 176T517 312Q517 357 506 396T472 470T419 530T346 574Q309 574 273 570T215 557Q181 523 157 463T133 326Q133 281 144 241T179 167T235 107T310 63Z" />
<glyph unicode="P" horiz-adv-x="589" d="M66 -9Q62 3 61 14T60 38L144 54Q146 88 147 136T150 242T152 356Q152 409 151 453T147 529T141 574L58 596Q58 607 59 618T64 640Q105 640 145 642T224 646T296 650T361 652Q405 652 430 647T460 640Q498 617 525 573T553
476Q553 446 545 419T527 375T518 358Q518 358 501 343T456 305T396 262Q372 262 351 263T312 265T285 268T275 269L277 305L287 313Q308 313 330 315T373 323Q395 328 415 335T450 353Q450 353 453 368T459 408T462 459Q462 486 453 513T430 563T401 597Q384 597
359 596T307 592Q287 591 268 588T234 583Q234 583 234 561T232 491T231 369Q231 333 232 292T236 211T241 133T246 67L351 38Q351 28 350 19T346 0Q272 0 200 -2T66 -9Z" />
<glyph unicode="Q" horiz-adv-x="652" d="M465 -151Q438 -135 417 -120T374 -89T330 -53T278 -9Q225 0 181 29T104 102T53 196T35 297Q35 339 46 380T79 459T129 530Q157 563 191 588T263 630T343 652Q400 652 449 624T535 551T594 450T615 341Q615 299 603 257T569
176T517 104Q494 79 467 58T412 21T354 -4Q368 -14 384 -22T419 -38T457 -53T496 -66Q518 -72 539 -78T583 -88T625 -98L616 -139Q571 -145 534 -148T465 -151ZM310 63Q335 63 358 65T401 73T435 83Q469 117 493 176T517 312Q517 357 506 396T472 470T419 530T346
574Q309 574 273 570T215 557Q181 523 157 463T133 326Q133 281 144 241T179 167T235 107T310 63Z" />
<glyph unicode="R" horiz-adv-x="659" d="M496 -12Q490 -9 482 7T456 54T409 136T329 260Q313 264 297 266T265 269T233 271Q235 235 237 199T242 131T247 71L331 38Q331 28 330 19T326 0Q261 -1 196 -3T66 -9Q64 3 62 14T60 38L143 59Q145 93 147 141T150 244T152
356Q152 442 150 489T144 555T141 574L58 596Q58 607 59 618T64 640Q119 640 172 643T273 649T361 652Q399 652 424 648T460 640Q472 634 494 615T534 562T553 481Q553 443 540 413T518 368Q508 358 484 337T419 287Q436 258 452 231T485 176T521 121T558 67L658
44Q658 25 649 5Q644 4 621 0T564 -8T496 -12ZM231 326Q249 326 267 326T304 326T341 326T378 326Q397 333 415 342T450 363Q450 363 456 393T462 464Q462 501 448 531T419 579T401 597Q382 597 364 597T329 594Q289 591 262 587T234 583Q233 564 233 521T232 425T231
326Z" />
<glyph unicode="S" horiz-adv-x="509" d="M244 -12Q228 -12 207 -10T162 -2T116 9T77 22L72 31L60 181L64 188L110 198L152 89Q166 82 180 77T210 69T246 66Q277 66 307 69T358 79Q362 85 368 104T380 146T386 191Q359 214 324 231T251 266T178 302Q145 320 119
341T77 391T61 458Q61 471 63 483T69 508T81 533T100 558Q118 578 139 594T183 622T232 641T284 652Q304 652 332 648T388 635T433 618L437 609L431 450L383 444L378 450L352 551Q339 559 326 564T297 571T262 574Q247 574 232 573T203 570T178 564T157 557Q154
544 152 528T149 497Q149 479 153 461T167 427T197 399Q241 373 290 352T381 309T450 260T477 193Q473 162 452 123T390 51Q362 29 326 12T244 -12Z" />
<glyph unicode="T" horiz-adv-x="586" d="M147 -9Q143 -1 141 11T139 38L238 56Q240 90 241 131T244 219T247 313Q248 361 248 408T249 498T250 579Q211 578 172 576T93 571L45 447Q34 448 23 450T1 455V458L12 636V640Q83 640 155 640T298 640Q332 640 380 641T478
644T570 647L585 634L573 458V451Q562 449 551 448T529 446L495 582Q457 582 416 582T332 581Q332 512 332 445T333 310Q333 280 333 250T334 190T335 130T337 70L450 38Q450 15 445 0Q369 0 294 -2T147 -9Z" />
<glyph unicode="U" horiz-adv-x="718" d="M352 -12Q323 -12 283 -2T205 34T142 106T116 223Q116 277 116 331T114 434T113 518T111 571L24 602Q24 612 25 621T29 640Q94 640 159 642T289 649Q295 625 295 602L210 584Q209 561 207 518T204 422T202 314T201 215Q209
176 222 146T255 97T303 67T369 57Q408 57 448 70T516 103Q532 138 537 190T542 299Q542 352 540 404T536 499T531 569L429 602Q429 612 430 621T434 640Q498 640 562 642T690 649Q696 625 696 602L618 582Q618 578 617 549T614 472T611 368T610 248Q610 196 605
157T586 84Q562 62 531 41T456 1Q430 -5 404 -8T352 -12Z" />
<glyph unicode="V" horiz-adv-x="645" d="M291 -12L288 -2Q271 54 252 110T211 220T169 326T129 422T94 506T66 573L1 593Q1 605 2 616T6 640Q70 640 133 642T261 649Q267 630 267 611L177 590Q184 556 203 500T246 377T296 245T341 130L345 119Q359 158 380 216T423
341T466 469T496 578L405 602Q405 612 406 621T410 640Q467 640 524 642T638 649Q641 637 642 626T644 602L588 582Q584 574 570 540T535 456T491 347T445 231T404 124T375 44V13Q368 8 351 2T316 -8T291 -12Z" />
<glyph unicode="W" horiz-adv-x="982" d="M271 -12L268 -2Q251 54 233 110T197 220T160 326T125 422T93 506T66 573L1 593Q1 605 2 616T6 640Q49 640 91 641T176 644T261 649Q264 639 265 630T267 611L177 590Q185 556 201 499T237 375T280 243T322 128L325 119Q336
150 352 194T388 290T425 395T459 495L429 573L364 593Q364 605 365 616T369 640Q412 640 454 641T539 644T624 649Q627 639 628 630T630 611L540 590Q548 556 563 499T597 375T638 243T679 127L682 119Q696 158 717 216T760 341T803 469T833 578L742 602Q742 612
743 621T747 640Q804 640 861 642T975 649Q977 637 979 626T981 602L925 582Q921 574 907 540T872 455T828 346T781 230T740 123T712 44V13Q705 8 688 2T653 -8T628 -12L626 -6Q605 63 583 132T539 268T496 394Q480 357 460 309T419 211T381 117T355 44V13Q348
8 331 2T296 -8T271 -12Z" />
<glyph unicode="X" horiz-adv-x="673" d="M17 -9Q15 3 13 14T11 38L60 51Q72 61 89 79T132 130T192 209T277 323Q236 376 196 425T122 515T62 582L1 602Q1 612 2 621T6 640Q36 640 66 640T127 642T188 644T249 649Q252 637 253 626T255 602L196 586Q208 567 223
546T255 500T292 449T331 396Q354 427 376 457T420 519T465 581L389 602Q389 612 390 621T394 640Q431 641 467 641T541 644T614 649Q617 637 618 626T620 602L567 588Q556 579 535 554T475 478T372 341Q417 282 461 227T545 127T611 56L672 38Q672 28 671 19T667
0Q632 0 597 0T527 -2T456 -5T386 -9Q383 3 382 14T380 38L471 58Q443 100 403 155T318 269Q293 234 267 199T216 128T164 57L265 38Q265 28 264 19T260 0Q230 0 200 -1T139 -3T78 -5T17 -9Z" />
<glyph unicode="Y" horiz-adv-x="597" d="M165 -9Q162 3 161 14T159 38L258 56Q261 84 263 115T266 180T269 246Q250 286 229 325T186 401T142 470T101 530T68 579L1 593Q1 605 2 616T6 640Q54 640 99 641T180 644T237 647T258 649Q261 639 262 630T264 611L174
590Q182 572 198 541T236 472T280 400T322 340L324 343Q338 363 355 393T391 457T426 523T453 578L362 602Q362 612 363 621T367 640Q432 640 482 642T561 646T590 649Q596 625 596 602L540 582Q535 576 519 551T479 489T432 414T386 338T352 276Q354 220 354 175T357
70L470 38Q470 28 469 19T465 0Q390 -1 315 -3T165 -9Z" />
<glyph unicode="Z" horiz-adv-x="584" d="M71 -12L36 23Q81 85 122 143T202 257T276 367T345 476T409 585Q377 583 343 581T275 577T208 573T147 566L116 440Q104 440 93 442T69 448L56 644Q121 643 187 642T310 640Q352 641 385 642T453 646T537 652L551 618Q540
607 517 574T461 493T393 390T320 276T247 163T183 65Q233 66 282 67T382 72T481 79L512 198Q524 198 536 197T560 190L553 0Q511 0 469 0T384 2T299 4T214 6T129 9L71 -12Z" />
<glyph unicode="[" horiz-adv-x="318" d="M119 -127L99 -109L107 15V241Q107 313 106 381T102 508T99 607T96 667L109 678Q139 676 169 674T230 671T288 670Q291 663 292 653T293 632L175 612Q174 600 174 569T172 496T171 408T170 319T169 243Q169 197 169 158T170
86T172 26T174 -23T176 -61L294 -82Q294 -92 293 -101T288 -118Q273 -118 253 -118T210 -120T164 -123T119 -127Z" />
<glyph unicode="\" horiz-adv-x="366" d="M294 -125Q279 -62 255 20T203 193T144 375T86 547T36 689L47 701H102Q137 569 180 428T270 150T361 -107L348 -125H294Z" />
<glyph unicode="]" horiz-adv-x="318" d="M201 -126Q201 -126 175 -124T109 -121T30 -119Q27 -111 26 -101T25 -81L143 -61Q144 -49 144 -18T146 55T147 143T148 232T149 308Q149 354 149 393T148 465T146 525T144 574T142 612L24 633Q24 643 25 652T30 669Q45
669 66 669T111 671T159 674T205 678L219 668L211 486V260Q211 188 212 128T216 22T219 -58T222 -110L201 -126Z" />
<glyph unicode="^" horiz-adv-x="442" d="M52 258L23 270L21 277Q42 319 70 377T129 502T190 636Q195 639 201 642T216 648T235 652L246 647Q258 617 275 576T312 490T351 401T386 324T411 272L384 258L376 261L216 550H210L52 258Z" />
<glyph unicode="_" horiz-adv-x="546" d="M47 -110L40 -101L45 -54Q86 -54 127 -54T209 -52T289 -50T364 -48T432 -44T492 -40L506 -51L501 -99Q453 -99 408 -99T318 -99T230 -101T141 -105T47 -110Z" />
<glyph unicode="`" horiz-adv-x="289" d="M226 533L210 535Q174 561 147 581T101 615T69 639T52 654T46 661L49 681Q67 694 84 703T104 713L124 690L216 585L245 552L226 533Z" />
<glyph unicode="a" horiz-adv-x="479" d="M231 0Q218 -4 189 -8T124 -12Q110 -2 93 14T64 52T51 93Q51 112 55 130T66 165T82 194T101 216Q125 224 156 229T219 239T273 244T305 246V375Q285 387 253 396T190 405Q182 405 174 404T158 401L140 309L80 316L74 416L80
425Q114 438 165 450T279 462Q309 462 329 451T361 423T379 394T386 376Q385 350 383 319T380 260T379 221Q379 178 381 146T387 93T392 68L453 64L459 35Q434 22 403 9T330 -12L308 20L305 74L303 72Q291 60 279 48T255 24T231 0ZM144 76Q149 73 159 69T183 62T210
58Q216 58 230 66T260 84T289 104T305 115V205Q279 203 251 198T194 184T138 165Q137 160 137 155T136 146T136 136Q136 115 138 100T144 76Z" />
<glyph unicode="b" horiz-adv-x="546" d="M113 35Q115 66 117 102T120 177T123 258T124 342Q124 379 124 414T122 480T120 539T117 586T115 618T114 633L35 649Q35 661 37 670T41 687L169 712L212 682L203 432L199 316L209 312Q212 318 222 342T249 396T283 450Q303
455 323 457T363 461T403 462Q415 457 433 447T469 414T499 352T511 249Q511 207 502 168T469 97Q463 89 443 63T387 8Q368 -2 344 -7T296 -12Q261 -12 211 -2T113 35ZM339 46Q346 48 367 56T411 83Q413 90 419 118T425 188Q425 238 417 282T395 363Q384 373 371
380T344 393T313 402Q300 392 279 363T236 300T201 237V78Q207 76 242 64T339 46Z" />
<glyph unicode="c" horiz-adv-x="426" d="M218 -12Q165 -12 124 18T59 98T35 209Q35 250 48 297T83 379Q104 398 129 414T184 443T245 462Q289 462 329 454T388 440L391 434L385 306L338 300L334 304L317 386Q306 391 296 394T274 399T247 401Q224 401 203 398T169
390Q149 366 134 326T119 230Q119 174 143 130T209 57Q234 57 267 64T332 82T386 102L401 78Q382 59 357 39T302 0Q297 -1 274 -6T218 -12Z" />
<glyph unicode="d" horiz-adv-x="533" d="M143 -12Q131 -7 113 4T77 37T47 98T35 201Q35 254 50 298T93 378T159 442Q172 449 187 453T218 459T250 462Q269 462 294 460T345 450V633L266 649Q266 659 267 668T272 687L400 712L443 682Q442 668 440 641T435 576T430
496T426 407T424 317Q424 300 424 275T426 222T428 166T430 113T431 70L498 49L503 20Q484 10 450 -1T373 -12L351 20L347 134L337 138Q332 125 319 99T291 44T263 0Q233 -7 203 -9T143 -12ZM233 48Q246 59 267 87T310 151T345 213V372Q322 381 299 387T253 398T207
404Q189 399 170 390T135 367Q129 341 125 315T121 262Q121 213 129 168T151 87Q168 73 188 63T233 48Z" />
<glyph unicode="e" horiz-adv-x="448" d="M224 -12Q168 -12 126 18T59 98T35 209Q35 257 49 302T83 379Q105 398 132 414T191 443T257 462Q286 462 318 444T375 386T406 281L375 225Q335 219 267 213T120 205Q125 157 149 120T215 57Q243 57 277 64T344 82T398
102L413 78Q394 59 369 39T314 0Q305 -2 281 -7T224 -12ZM119 243Q178 247 228 253T318 269Q318 292 313 316T296 363T270 400Q246 400 215 397T169 388Q150 366 136 329T119 243Z" />
<glyph unicode="f" horiz-adv-x="342" d="M45 -8Q42 1 41 12T40 32L109 65V392L50 396L40 407L43 445L109 450Q109 491 111 534T126 609Q144 631 166 655T217 695T282 712Q292 712 309 712T343 710T369 706L382 688L360 625L342 620L328 626Q304 636 278 644T223
657Q208 637 200 613T189 563T186 512V450Q206 450 226 450T266 452T307 453L322 443L313 389L187 392L195 55L294 34Q294 27 294 18T291 0Q270 0 238 0T170 -2T101 -4T45 -8Z" />
<glyph unicode="g" horiz-adv-x="499" d="M161 -212Q154 -212 134 -206T91 -186T52 -143T35 -69Q51 -55 68 -41T103 -14T139 11Q112 22 94 45T73 97L150 149Q122 161 101 182T69 230T57 288Q57 321 69 352T99 405Q117 418 139 429T188 449T242 462Q256 462 269
460T294 454Q306 450 316 445T337 434L449 462L469 443Q469 429 467 414T459 385Q449 385 435 386T405 391T374 399L380 390L383 385Q393 369 398 349T403 309Q403 275 390 244T357 190Q340 178 318 167T270 148T218 136Q209 136 201 137T184 139Q177 131 171 116T164
87Q178 82 195 79T232 73T272 69T314 65Q355 62 391 55T451 31T474 -17Q474 -49 461 -83T420 -145Q389 -168 347 -183T257 -205T161 -212ZM186 -168Q208 -168 235 -164T287 -154T329 -143T347 -135Q353 -129 361 -112T376 -73T383 -30Q370 -26 352 -23T310 -18T264
-13T217 -8T174 0Q162 -11 150 -25T129 -52T120 -67Q120 -79 129 -96T150 -129T172 -157T186 -168ZM223 183Q240 183 255 186T281 193Q297 208 307 235T318 296Q318 324 309 347T283 387T241 416Q223 416 207 414T179 408Q163 392 153 366T142 304Q142 261 163
230T223 183Z" />
<glyph unicode="h" horiz-adv-x="588" d="M46 -4Q43 5 42 14T41 32L112 65Q115 100 116 145T118 238T119 324Q119 359 119 396T118 468T116 536T113 593T109 633L25 649Q25 660 27 670T31 687L159 712L203 682L194 393L191 316L201 312Q204 319 215 343T242 396T277
450Q307 457 331 459T386 462Q407 462 425 451T459 423T481 390Q483 348 484 306T487 222T491 138T494 54L568 34Q568 27 568 18T565 0Q552 0 522 0T455 -1T388 -2T342 -4Q339 5 338 14T337 32L409 65L411 230Q411 247 411 265T410 301T407 336T402 368Q381 377
355 383T299 393Q285 382 267 358T228 302T191 232L198 54L272 34Q272 27 272 18T269 0Q256 0 226 0T159 -1T92 -2T46 -4Z" />
<glyph unicode="i" horiz-adv-x="264" d="M30 -4Q27 5 26 14T25 32L95 64Q97 83 98 105T101 150T103 193Q103 224 102 255T97 318T89 385L26 399Q26 409 27 418T32 437L163 462L186 446L179 412Q176 380 175 347T173 280Q173 242 174 204T178 129T184 54L256 34Q256
27 256 18T253 0Q240 0 210 0T143 -1T76 -2T30 -4ZM91 564Q89 577 87 590T84 616T83 642Q90 646 96 649T109 654T122 658Q131 660 139 661T155 662T172 663Q175 648 176 631T177 600T178 581Q178 580 175 574T169 562T163 556Q153 556 129 558T91 564Z" />
<glyph unicode="j" horiz-adv-x="309" d="M26 -212Q15 -194 4 -176T-15 -140Q-13 -135 -11 -131T-4 -122Q15 -122 33 -122T71 -121T108 -119Q114 -104 117 -84T121 -39T122 10Q122 60 122 106T120 198T118 289T113 385Q97 388 81 391T47 399Q47 418 53 437L181
462L204 446L203 427Q201 364 200 309T199 201T199 88T198 -46Q198 -54 193 -71T178 -108T156 -142Q141 -161 103 -181T26 -212ZM114 564Q112 577 110 590T107 616T106 642Q113 646 119 649T132 654T145 658Q154 660 162 661T178 662T195 663Q198 648 199 631T200
600T201 581Q201 580 198 574T192 562T186 556Q176 556 152 558T114 564Z" />
<glyph unicode="k" horiz-adv-x="569" d="M408 -12Q404 -9 395 5T371 42T339 97T297 164T246 241Q237 245 224 247T201 250L208 54L282 34Q283 26 282 17T279 0Q266 0 236 0T169 -1T102 -2T56 -4Q53 5 52 14T51 32L122 65Q125 100 126 145T128 238T129 324Q129
359 129 396T128 468T126 536T123 593T119 633L35 649Q35 659 36 668T41 687L169 712L214 682L201 301H266Q288 330 317 373T366 454L504 463Q510 439 510 416L431 398L304 273L313 260Q327 239 347 211T387 155T426 103T454 67L554 44Q554 34 552 25T545 5Q511
-3 477 -7T408 -12Z" />
<glyph unicode="l" horiz-adv-x="312" d="M56 -4Q53 5 52 14T51 32L122 65Q125 100 126 145T128 238T129 324Q129 382 128 444T125 557T119 633L35 649Q35 671 41 687L169 712L214 682Q213 671 212 640T209 566T206 476T203 386T202 311Q202 280 202 242T204 166T206
98T208 54L282 34Q282 27 282 18T279 0Q266 0 236 0T169 -1T102 -2T56 -4Z" />
<glyph unicode="m" horiz-adv-x="879" d="M42 -4Q39 5 38 14T37 32L109 65Q114 105 116 145T118 210Q118 236 116 265T112 323T106 378L33 389Q30 394 28 403T25 419Q57 434 94 445T166 462L185 433L190 316L200 312Q216 346 233 381T276 450Q306 457 330 459T385
462Q416 462 442 438T480 390Q481 371 481 353T483 316L493 312Q507 341 526 380T569 450Q599 457 623 459T678 462Q699 462 717 451T751 423T773 390Q775 348 776 306T780 222T783 138T787 54L859 34Q859 27 859 18T856 0Q843 0 813 0T746 -1T679 -2T633 -4Q630
5 629 14T628 32L700 65Q701 105 701 139T703 205Q703 231 703 253T701 296T699 334T694 368Q673 377 647 383T591 393Q578 382 560 359T522 305T486 238L494 54L566 34Q566 27 566 18T563 0Q550 0 520 0T453 -1T386 -2T340 -4Q337 5 336 14T335 32L407 65Q408
105 408 140T410 206Q410 231 410 253T408 296T406 334T401 368Q380 377 354 383T298 393Q284 382 266 358T227 302T190 232L196 54L268 34Q268 27 268 18T265 0Q252 0 222 0T155 -1T88 -2T42 -4Z" />
<glyph unicode="n" horiz-adv-x="587" d="M45 -4Q42 5 41 14T40 32L111 65Q113 94 115 131T118 200Q118 226 116 257T112 321T106 378L33 389Q29 397 28 404T25 419Q57 434 94 445T166 462L185 433L190 316L200 312Q214 344 232 378T276 450Q306 457 330 459T385
462Q406 462 424 451T458 423T480 390Q482 348 483 306T486 222T490 138T493 54L567 34Q568 26 567 17T564 0Q551 0 521 0T454 -1T387 -2T341 -4Q338 5 337 14T336 32L410 65V230Q410 247 410 265T408 301T406 336T401 368Q380 377 354 383T298 393Q284 382 266
358T227 302T190 232L197 54L271 34Q272 26 271 17T268 0Q255 0 225 0T158 -1T91 -2T45 -4Z" />
<glyph unicode="o" horiz-adv-x="494" d="M234 -12Q181 -12 136 15T63 93T35 209Q35 257 51 302T86 379Q108 398 136 414T195 443T260 462Q314 462 359 434T431 357T459 240Q459 207 451 175T431 115T404 66Q382 49 355 33T297 6T234 -12ZM237 54Q254 54 269 56T298
61T322 67Q337 83 349 105T369 157T377 221Q377 289 346 335T262 397Q235 397 211 394T170 386Q148 363 132 323T115 231Q115 162 147 116T237 54Z" />
<glyph unicode="p" horiz-adv-x="532" d="M29 -212Q26 -203 25 -194T24 -176L96 -143Q98 -121 100 -90T104 -22T107 54T108 133Q108 164 108 194T106 255T104 316T101 378L28 389Q25 394 23 403T20 419Q52 434 89 445T161 462L180 433L185 316L195 312Q197 317
207 341T234 395T269 450Q289 455 309 457T349 461T389 462Q401 457 419 447T455 414T485 352T497 249Q497 172 464 112T373 8Q354 -2 330 -7T282 -12Q263 -12 238 -10T187 0V-151L285 -170Q285 -177 285 -186T282 -204Q272 -204 247 -204T190 -206T125 -208T67
-210T29 -212ZM325 46Q332 48 353 56T397 83Q397 83 404 114T411 188Q411 238 403 282T381 363Q370 373 357 380T330 393T299 402Q286 392 265 363T222 300T187 237V78Q192 76 228 64T325 46Z" />
<glyph unicode="q" horiz-adv-x="506" d="M243 -218Q242 -210 241 -201T240 -184L337 -165L347 134L337 138Q325 111 307 74T263 0Q233 -7 203 -9T143 -12Q131 -7 113 4T77 37T47 98T35 201Q35 251 48 293T89 372T159 442Q172 449 187 453T218 459T250 462Q273
462 304 458T366 444L387 455L424 474L437 462Q434 431 432 388T427 296T423 199T422 108Q422 80 422 51T423 -5T425 -57T427 -103T429 -141L501 -174Q501 -183 500 -192T496 -210Q484 -211 458 -212T400 -214T336 -216T279 -217T243 -218ZM233 48Q246 59 267 87T310
151T345 213V372Q316 384 278 393T207 404Q191 400 173 391T135 367Q135 367 128 336T121 262Q121 213 129 168T151 87Q168 73 188 63T233 48Z" />
<glyph unicode="r" horiz-adv-x="385" d="M45 -4Q42 5 41 14T40 32L111 65Q113 94 115 131T118 200Q118 226 116 257T112 321T106 378L33 389Q29 397 28 404T25 419Q57 434 94 445T166 462L185 433L178 320L188 316Q202 351 219 384T257 450Q274 454 291 456T324
460T358 462L370 444L360 381L357 364Q341 364 324 364T289 363T254 358Q241 344 230 327T209 292T190 256L197 54L281 34Q282 26 281 17T278 0Q265 0 233 0T163 -1T93 -2T45 -4Z" />
<glyph unicode="s" horiz-adv-x="416" d="M204 -12Q187 -12 162 -9T111 0T67 12L64 19L54 127L57 132L95 140L128 60Q145 53 160 49T198 44Q224 44 247 47T287 56Q296 73 301 90T306 128Q289 142 267 153T221 174T173 194Q142 208 115 224T72 264T55 323Q55 335
58 347T68 371T87 395Q116 424 154 441T236 462Q252 462 274 459T317 450T353 438L356 431L352 317L316 313L311 317L291 387Q274 396 254 400T213 404Q194 404 176 401T140 391Q136 381 134 372T131 353Q131 334 138 316T168 285Q205 267 242 255T310 229T359
196T378 146Q378 122 373 99T351 55Q325 27 285 10T204 -12Z" />
<glyph unicode="t" horiz-adv-x="330" d="M135 -12Q124 5 114 26T95 70T79 116Q81 148 82 180T85 244T88 309T89 373Q84 379 75 383T55 391T35 397L25 410L30 445L91 462L127 552H173L170 450L289 453L304 443L295 389Q287 389 271 389T236 390T198 391T168 392Q167
368 167 343T166 294T165 254T165 231Q165 173 166 130T176 56Q200 56 221 57T261 62T300 71L315 47Q296 31 274 18T231 -5Q219 -6 207 -7T183 -10T159 -11T135 -12Z" />
<glyph unicode="u" horiz-adv-x="555" d="M182 -12Q167 -2 149 14T117 52T103 93Q103 111 102 145T99 222T96 308T92 385L20 404Q20 414 21 423T26 442L138 454L181 432L180 400Q178 366 177 330T175 259T174 192T177 131T183 80Q205 70 228 65T267 60Q282 60
298 67T334 86T376 115Q376 162 376 207T374 298T371 391L301 409Q301 420 302 430T306 450L422 454L461 432L458 393Q455 336 453 282T452 175T459 70L529 64Q532 57 533 50T535 35Q509 22 477 9T403 -12L381 20L378 67V74Q359 55 340 37T300 0Q276 -5 248 -8T182
-12Z" />
<glyph unicode="v" horiz-adv-x="494" d="M219 -12L66 385L5 408Q6 416 7 425T13 442L123 454L159 416L253 93L264 97Q281 142 296 187T324 274T346 346T359 392L273 416Q272 424 273 433T276 450Q289 450 315 450T373 451T431 452T474 454Q477 445 478 436T479
418L429 385L284 7Q268 1 252 -4T219 -12Z" />
<glyph unicode="w" horiz-adv-x="756" d="M219 -12L66 385L5 408Q5 416 7 425T13 442L123 454L159 416L253 93L264 97Q276 130 288 163T310 229T329 289T344 341L328 385L267 408Q267 416 269 425T275 442Q294 444 312 446T348 450T385 454L421 416L515 93L526
97Q543 142 558 187T586 274T608 346T621 392L535 416Q535 424 536 433T538 450Q551 450 577 450T635 451T693 452T736 454Q739 445 740 436T741 418L691 385L546 7Q530 1 514 -4T481 -12L378 254L284 7Q268 1 252 -4T219 -12Z" />
<glyph unicode="x" horiz-adv-x="511" d="M20 -4Q17 5 16 14T15 32L63 52Q78 65 101 91T153 151T210 221Q179 265 145 307T74 391L19 414Q19 423 20 432T24 450Q39 450 66 450T123 451T179 452T218 454L221 424L176 409Q196 378 216 347T259 283Q292 326 316 359T346
402L304 420L307 450Q325 450 355 450T416 452T468 454Q471 445 472 436T473 418L422 395Q389 361 355 322T289 242Q322 197 358 152T436 60L496 36Q496 27 495 18T491 0Q476 0 446 0T382 -1T319 -2T277 -4L274 26L335 42Q312 77 289 111T240 179Q219 151 201 126T169
80T147 45L204 30L201 0Q188 0 164 0T113 -1T60 -2T20 -4Z" />
<glyph unicode="y" horiz-adv-x="494" d="M61 -205L45 -149L50 -142Q62 -142 79 -141T116 -137T149 -130Q166 -115 180 -95T206 -49T230 7L209 22L66 385L5 408Q6 416 7 425T13 442L123 454L159 416L252 97L261 90Q278 136 293 183T321 272T342 346T354 394L273
416Q272 424 273 433T276 450Q326 450 375 451T474 454Q477 445 478 436T479 418L427 386Q409 337 389 280T347 164T307 54Q282 -15 255 -76T206 -176Q188 -189 166 -197T122 -212Q111 -212 92 -211T61 -205Z" />
<glyph unicode="z" horiz-adv-x="479" d="M84 -12L42 13L45 17Q71 52 113 110T204 243T303 399Q267 399 242 398T197 395T164 388T135 378L110 285L105 279L60 285L54 444L58 453Q106 452 147 451T231 450Q263 450 289 451T343 455T406 462L421 446L408 426L146
27L129 54L261 58Q281 59 297 61T327 67T354 78T384 94L345 49L395 170L433 166L437 159L423 9L415 0Q312 0 236 2T125 6L84 -12Z" />
<glyph unicode="{" horiz-adv-x="330" d="M274 -148Q253 -142 230 -135T184 -120T140 -101T101 -81L96 -66Q99 -40 112 -7T138 66T151 148Q151 177 136 198T96 233T46 259L50 281Q79 289 102 300T143 325T171 358Q166 385 157 415T135 476T113 540T95 603L102
616Q124 629 154 640T214 662T266 677L275 673L285 650Q261 635 235 618T186 580Q186 546 200 511T229 442T244 376Q244 335 221 314T139 273V267Q155 262 169 256T198 243T231 228Q231 189 225 156T209 91T194 26T187 -49Q213 -70 236 -85T282 -115L285 -125L274
-148Z" />
<glyph unicode="|" horiz-adv-x="303" d="M130 -269L120 -255Q122 -231 123 -171T124 -28T125 151T125 338Q125 407 125 477T125 610T124 722T124 797L185 802L193 795Q191 765 190 704T189 567T188 413Q188 337 188 255T189 94T189 -56T190 -180T191 -264L130 -269Z" />
<glyph unicode="}" horiz-adv-x="330" d="M64 -146L55 -142L45 -119Q69 -104 95 -86T144 -49Q144 -15 130 20T101 89T86 155Q86 196 109 217T191 258V264Q176 269 162 275T132 288T99 303Q99 342 105 375T121 440T136 506T143 580Q117 601 94 616T48 646L45 656L56
679Q77 673 99 666T143 651T186 634T225 614L234 598Q231 572 218 538T192 465T179 383Q179 354 194 334T234 298T284 272L280 250Q252 243 228 232T187 206T159 173Q164 146 173 116T195 55T217 -9T235 -72L228 -85Q206 -97 176 -109T116 -130T64 -146Z" />
<glyph unicode="~" horiz-adv-x="567" d="M69 173L50 190Q64 209 84 231T130 275T187 309Q199 309 215 305T251 293T293 277T341 262T393 250Q423 251 448 272T492 314L498 315L517 300Q507 283 490 263T453 224T412 195T373 183Q366 183 349 189T307 203T256
220T204 235T160 241Q143 236 127 224T98 198T74 174L69 173Z" />
<glyph unicode="&#xa0;" horiz-adv-x="210" />
<glyph unicode="&#xa1;" horiz-adv-x="272" d="M93 -212Q92 -212 84 -203T76 -189Q81 -118 88 -37T105 126T122 281Q128 284 138 285T158 287L168 277L187 -181L188 -204Q184 -205 172 -206T144 -209T115 -211T93 -212ZM177 367Q155 367 139 368T105 370Q105 370
103 393T101 444Q107 447 116 449T135 454T153 458T166 461Q169 460 175 452T183 442Q186 429 187 413T189 377Q187 376 185 374T181 371T177 367Z" />
<glyph unicode="&#xa2;" horiz-adv-x="422" d="M225 -12Q172 -12 131 18T66 98T42 209Q42 250 55 297T90 379Q111 398 136 414T191 443T252 462Q296 462 336 454T395 440L398 434L392 306L345 300L341 304L324 386Q313 391 303 394T281 399T254 401Q231 401 210
398T176 390Q156 366 141 326T126 230Q126 174 150 130T216 57Q241 57 274 64T339 82T393 102L408 78Q389 59 364 39T309 0Q304 -1 281 -6T225 -12ZM203 -118L199 -109Q202 -87 205 -49T211 40T217 156T224 294T232 450T239 620L270 622L274 618L233 -116L203 -118Z"
/>
<glyph unicode="&#xa3;" horiz-adv-x="526" d="M53 -12L36 16Q69 40 86 57T110 100T118 169Q119 193 119 222T118 281T121 333Q132 373 155 407T212 469T291 516Q326 516 355 515T410 510T454 500L467 482L445 429L427 424Q404 435 375 439T297 444Q274 444 251
437T206 414Q203 406 201 394T197 364T196 318Q196 294 196 264T196 193Q196 171 194 153T182 116T149 73L153 68Q163 72 172 75T192 83T211 91Q227 91 247 89T289 85T333 79T375 73T413 68Q422 91 430 113T448 158L486 154L490 147L476 -3L468 -12Q426 -8 380
-4T290 5T208 13T142 16Q113 16 91 5T53 -12ZM57 230L62 273L376 286L391 276L382 222L62 225L57 230Z" />
<glyph unicode="&#xa4;" horiz-adv-x="562" d="M278 108Q238 108 202 125T140 169T98 231T82 298Q82 338 102 377T155 447Q185 475 223 493T305 516Q346 516 381 499T443 454T485 392T501 325Q501 288 484 252T438 186Q418 165 393 149T338 122T278 108ZM75 57L32
85V96L178 229L212 194L75 57ZM165 401L32 521L33 532L76 561L198 435L165 401ZM280 164Q298 164 314 166T343 170T366 176Q382 189 394 208T414 253T422 308Q422 342 409 371T369 423T306 459Q280 459 255 457T216 449Q204 439 194 426T176 395T164 358T160 316Q160
281 174 252T215 200T280 164ZM509 57L385 186L421 220L557 86L555 75L509 57ZM421 398L385 432L509 561L555 543L557 532L421 398Z" />
<glyph unicode="&#xa5;" horiz-adv-x="597" d="M178 -8Q175 4 174 16T173 41L262 57L268 159L63 152L56 158L61 197H272Q266 208 257 222T232 262T188 332T114 446L41 462Q41 473 42 483T45 504Q74 505 102 505T158 507T215 509T272 512Q275 504 276 495T277 478L201
460Q208 447 222 422T253 368T288 312T320 266L324 273Q335 293 353 326T391 393T422 450L346 470Q346 478 347 487T350 504Q384 505 417 506T484 508T551 512Q554 502 555 492T556 470L492 447L346 219V200L542 208L556 200L551 160H347L351 63L453 34Q453 26
452 17T448 0Q381 -1 314 -3T178 -8ZM63 275L56 281L61 320H198L223 281L63 275ZM385 284L411 325L542 330L556 322L551 284H385Z" />
<glyph unicode="&#xa6;" horiz-adv-x="303" d="M130 -269L120 -255Q122 -230 123 -168T124 -18T125 165L179 175L188 161Q188 90 188 25T189 -95T190 -194T191 -264L130 -269ZM134 367L125 374Q125 463 125 547T125 697T124 797L185 802L193 795Q192 772 191 731T189
635T188 514T188 376L134 367Z" />
<glyph unicode="&#xa7;" horiz-adv-x="506" d="M381 125L353 148Q360 158 370 172T380 194Q380 217 365 240T326 285Q304 306 270 332T201 385T143 432Q121 452 108 472T94 513Q99 530 109 545T134 576T165 604Q189 622 218 635T275 652Q291 652 313 649T356 640T392
628L395 621L391 507L355 503L350 507L330 577Q314 586 296 590T259 594Q241 594 224 591T189 581Q185 571 183 562T180 543Q180 534 185 525T199 504Q211 491 236 469T293 422T351 377T391 344Q420 319 438 294T456 238Q443 210 422 178T381 125ZM213 -118Q200
-118 182 -116T145 -111T108 -104T76 -94L73 -87L63 21L66 26L104 34L137 -46Q155 -54 174 -58T214 -62Q232 -62 256 -58T299 -47Q303 -37 305 -28T308 -9Q308 -3 306 3T300 16T290 29Q278 43 251 66T191 115T130 163T87 199Q62 222 47 245T32 296Q41 315 53 335T80
375T107 409L135 386Q128 376 118 362T108 340Q108 327 113 314T127 288Q141 268 171 242T236 188T301 138T345 102Q368 82 381 62T394 21Q387 -3 369 -26T325 -68T271 -101T213 -118Z" />
<glyph unicode="&#xa8;" horiz-adv-x="327" d="M58 557L50 621Q50 626 53 633T57 640Q63 640 75 641T101 644T127 646Q128 646 129 638T131 617T133 596T134 583Q134 579 128 571T119 560Q109 558 94 558T58 557ZM204 568Q200 585 198 601T196 634Q215 643 233
647T271 651Q274 638 275 624T277 598T277 583Q277 582 275 577T269 567T264 562Q259 562 248 562T224 564T204 568Z" />
<glyph unicode="&#xa9;" horiz-adv-x="690" d="M345 -12Q282 -12 228 11T131 77T66 173T42 291Q42 354 65 408T131 505T227 570T345 594Q408 594 462 571T559 505T624 409T648 291Q648 228 625 174T559 77T463 12T345 -12ZM335 128Q297 128 266 152T217 212T199
284Q199 316 212 347T247 404Q268 427 295 443T353 463Q373 463 403 458T451 445L453 441L449 361L414 358L410 361L398 408Q388 415 374 417T345 420Q333 420 322 418T305 412Q292 395 282 366T271 299Q271 268 280 243T307 200T348 175Q372 175 399 187T447 209L464
180Q438 159 406 146T335 128ZM345 30Q399 30 446 50T529 106T585 189T606 291Q606 345 586 392T530 475T447 531T345 552Q291 552 244 532T161 476T105 393T84 291Q84 237 104 190T160 107T243 51T345 30Z" />
<glyph unicode="&#xaa;" horiz-adv-x="328" d="M78 318Q64 329 47 350T30 393Q30 419 40 442T63 479Q79 485 100 489T144 495T182 499T205 500V591Q190 603 174 607T139 612Q133 612 123 612T106 609L93 549L89 545L51 549L46 616L52 625Q75 635 111 643T190 652Q219
652 236 638T260 609T267 591Q267 591 267 573T266 530T265 482Q265 442 266 419T269 385T271 375L314 372L318 351Q299 341 277 333T225 318L207 340L205 379L204 378Q196 371 187 362T167 344T148 327Q148 327 129 323T78 318ZM144 369Q154 374 164 380T185 393T205
408V471Q183 468 152 461T98 443Q97 438 97 433T97 422Q97 408 99 398T103 382Q107 379 120 374T144 369Z" />
<glyph unicode="&#xab;" horiz-adv-x="411" d="M193 29Q166 56 125 96T16 200L11 225Q51 258 94 304T186 405L215 388L216 380Q199 350 181 322T144 269T105 219L216 54L215 45Q211 41 205 37T193 29ZM366 28Q317 85 274 130T191 208L196 233Q263 297 304 337T373
405Q379 402 385 398T395 389L396 380L285 214Q315 178 343 138T396 53L395 45L366 28Z" />
<glyph unicode="&#xac;" horiz-adv-x="546" d="M487 92L440 99Q442 131 443 175T444 258Q425 259 385 259T295 260T196 260T110 260T57 259L50 268L57 314Q88 313 123 312T196 311T273 310T349 310T421 310T486 312L495 303V234Q495 187 495 149T496 99L487 92Z" />
<glyph unicode="&#xad;" horiz-adv-x="308" d="M35 194L28 203L33 250Q71 250 116 252T203 258T270 264L284 253L279 205Q259 205 223 205T138 202T35 194Z" />
<glyph unicode="&#xae;" horiz-adv-x="454" d="M227 264Q170 264 124 292T49 366T21 470Q21 527 49 573T123 648T227 676Q284 676 331 648T405 574T433 470Q433 413 406 367T331 292T227 264ZM227 300Q274 300 312 323T374 384T397 470Q397 517 374 555T313 617T227
640Q180 640 142 617T80 556T57 470Q57 423 80 385T141 323T227 300ZM273 367Q271 368 265 378T248 406T219 451Q219 451 213 453T198 455Q198 437 199 422T201 394L226 384Q226 378 226 375T225 372Q188 372 160 370T131 368Q131 368 131 373T130 384L156 390Q157
410 157 430T158 472Q158 486 158 500T157 527T155 554L129 562L131 575Q159 575 186 577T236 579Q251 579 259 577T268 575Q268 575 276 570T291 553T299 525Q299 510 294 498T289 486Q282 480 273 474T254 461Q262 451 270 440T287 416T307 392L336 386Q336 381
335 377T333 373Q333 373 314 370T273 367ZM198 477H233Q238 479 243 482T253 489Q255 496 255 503T256 519Q256 537 248 547T238 557Q228 557 218 556T198 551V477Z" />
<glyph unicode="&#xaf;" horiz-adv-x="393" d="M57 572L50 581L55 628Q75 627 102 627T157 625T208 624T240 623L329 628L343 620L338 572H57Z" />
<glyph unicode="&#xb0;" horiz-adv-x="300" d="M149 266Q98 266 62 295T25 392Q25 458 61 487T149 516Q202 516 238 487T275 392Q275 325 239 296T149 266ZM157 311Q186 311 205 327T225 386Q225 403 220 422T203 463Q190 466 174 468T144 471Q116 471 96 456T76
396Q76 377 81 357T98 320Q111 317 127 314T157 311Z" />
<glyph unicode="&#xb1;" horiz-adv-x="581" d="M275 87L266 94Q267 100 267 126T267 189T267 267Q218 267 174 267T99 267T61 266L54 275L61 321Q110 319 157 318T267 317Q267 374 266 413T263 479L311 486L322 472Q322 462 321 439T320 385T319 317Q387 317 440
318T513 320L527 309L520 263Q486 264 437 265T319 267Q319 219 320 172T323 94L275 87ZM520 -4Q491 -3 445 -3T344 -1T235 0T135 1T61 -1L54 8L61 54Q95 53 133 52T211 51T293 50T373 50T447 51T513 53L527 42L520 -4Z" />
<glyph unicode="&#xb2;" horiz-adv-x="387" d="M40 296L24 326Q39 335 55 348T88 379T124 416Q157 452 179 486T212 544T223 575Q219 588 211 602T196 628T186 639Q168 639 150 633T115 616T87 597T69 582H57L41 603Q56 620 78 642T125 682T169 700Q204 700 229
691T282 664Q285 663 289 649T298 614T302 574Q302 549 287 520T247 463T195 410T146 368V357Q172 359 193 361T236 366T283 370L304 441Q315 440 326 439T347 433L342 305Q297 305 251 306T160 308T69 309L40 296Z" />
<glyph unicode="&#xb3;" horiz-adv-x="338" d="M98 300Q82 300 66 301T32 305V338Q58 339 81 341T125 348T165 359Q176 368 185 381T201 405T208 420Q208 431 200 448T177 476Q159 481 131 483T76 486L70 492L67 513L126 526Q142 535 155 547T175 575T183 603Q183
614 180 628T162 656Q144 656 123 650T83 635T56 622H48L33 648Q46 657 69 669T116 691T154 700Q172 700 189 698T221 690T248 675Q254 669 259 647T265 603Q265 590 257 577T235 550T204 523V518Q240 508 265 489T290 441Q290 386 265 355T196 312T98 300Z" />
<glyph unicode="&#xb4;" horiz-adv-x="298" d="M63 535L44 554L84 594L191 701L197 706Q200 706 216 695T249 670L251 650Q251 649 242 642T213 621T159 586T79 536L63 535Z" />
<glyph unicode="&#xb5;" horiz-adv-x="555" d="M132 -169L114 -159Q112 -146 111 -126T108 -82T105 -29T104 29T103 89Q103 109 102 144T99 222T96 308T92 385L20 404Q20 414 21 423T26 442L138 454L181 432L180 400Q177 343 176 283T175 170T183 80Q205 70 228
65T267 60Q282 60 298 67T334 86T376 115Q376 186 375 253T371 391L301 409Q301 420 302 430T306 450L422 454L461 432L458 393Q455 336 453 282T452 175T459 70L529 64Q532 57 533 50T535 35Q509 22 477 9T403 -12L381 20L378 67V74Q359 55 340 37T300 0Q276 -5
248 -8T182 -12Q175 -8 168 -3T154 9Q166 -28 175 -56T190 -106T201 -152Q193 -155 181 -158T157 -164T132 -169Z" />
<glyph unicode="&#xb6;" horiz-adv-x="578" d="M229 -118Q217 -100 207 -82T188 -46L199 -28Q210 -29 224 -29T254 -30Q265 -30 276 -30T298 -29T320 -27Q331 8 337 62T345 180T348 310Q348 344 348 376T348 439T347 495T346 544T344 583Q325 585 291 585T225
584T174 578Q160 561 150 539T134 494T129 445Q129 402 135 379T152 336Q171 321 198 305T252 276T298 255L304 245L294 207Q254 212 215 224T139 258T72 307Q54 343 45 379T35 452Q35 484 46 519T78 586T132 640Q149 644 165 646T198 650T231 652Q259 652 291
651T356 647Q395 644 436 642T517 640L522 602L442 583Q434 501 432 435T430 305Q430 268 429 230T427 152T421 64Q420 44 407 17T369 -39T310 -88T229 -118Z" />
<glyph unicode="&#xb7;" horiz-adv-x="284" d="M135 212Q125 219 114 229T94 250T79 269Q85 279 93 291T112 315T130 334L149 324Q162 317 174 308T198 288V276Q188 261 178 247T156 218L135 212Z" />
<glyph unicode="&#xb8;" horiz-adv-x="277" d="M119 -212Q97 -212 79 -198T50 -171L62 -154Q62 -154 75 -159T106 -169T137 -175Q139 -175 145 -167T157 -149T163 -133Q163 -130 145 -112T98 -77L120 0H162L146 -50Q165 -59 183 -74T214 -104T227 -130Q227 -135
222 -147T210 -171T202 -184Q183 -197 160 -204T119 -212Z" />
<glyph unicode="&#xb9;" horiz-adv-x="312" d="M57 301Q54 310 53 319T52 337L122 362Q127 385 129 410T131 459Q131 474 131 492T130 532T126 576L56 558L46 561L36 586Q61 604 84 622T131 660T175 700L206 679L198 638V351L256 339Q256 332 256 323T253 305Q240
305 214 305T157 304T99 303T57 301Z" />
<glyph unicode="&#xba;" horiz-adv-x="365" d="M172 319Q136 319 105 338T53 393T33 474Q33 508 44 540T68 594Q84 607 104 618T147 639T193 652Q230 652 261 633T312 578T332 497Q332 461 320 429T293 374Q269 355 238 341T172 319ZM177 364Q193 364 206 367T230
375Q245 390 254 418T263 483Q263 530 245 562T193 607Q175 607 160 605T134 599Q120 583 111 555T101 490Q101 441 120 409T177 364Z" />
<glyph unicode="&#xbb;" horiz-adv-x="426" d="M41 28L12 45L11 53Q37 98 64 138T122 214L11 380L12 389Q22 399 34 405Q61 378 102 338T211 233L216 208Q176 175 134 130T41 28ZM214 28Q208 31 203 35T192 44L191 53L302 219Q282 243 263 268T226 322T191 380L192
388L221 405Q271 348 313 303T396 225L391 200Q324 136 283 96T214 28Z" />
<glyph unicode="&#xbc;" horiz-adv-x="833" d="M57 253Q54 262 53 271T52 289L122 314Q127 337 129 362T131 411Q131 426 131 444T130 484T126 528L56 510L46 513L36 538Q61 556 84 574T131 612T175 652L206 631L198 590V303L256 291Q256 284 256 275T253 257Q240
257 214 257T157 256T99 255T57 253ZM140 -122L92 -90V-75Q139 -14 193 63T305 225T419 397T527 567T620 719L666 686V670Q608 586 546 495T423 313T308 140T211 -10T140 -122ZM663 -12L654 -6L658 113Q612 113 581 113T529 111T490 105L468 143Q499 181 534 221T603
303T666 390L724 395L733 386Q732 368 731 339T730 276T728 212T726 164Q744 164 766 166T808 170L813 167Q812 158 810 142T803 113H726Q727 80 729 53T734 11T737 -5L663 -12ZM541 164H658V301Q642 280 622 257T582 211T541 164Z" />
<glyph unicode="&#xbd;" horiz-adv-x="853" d="M57 253Q54 262 53 271T52 289L122 314Q127 337 129 362T131 411Q131 426 131 444T130 484T126 528L56 510L46 513L36 538Q61 556 84 574T131 612T175 652L206 631L198 590V303L256 291Q256 284 256 275T253 257Q240
257 214 257T157 256T99 255T57 253ZM140 -122L92 -90V-75Q139 -14 193 63T305 225T419 397T527 567T620 719L666 686V670Q608 586 546 495T423 313T308 140T211 -10T140 -122ZM506 -9L490 21Q505 30 521 43T554 74T590 111Q623 147 645 181T678 239T689 270Q685
283 677 297T662 323T652 334Q634 334 616 328T581 311T553 292T535 277H523L507 298Q522 315 544 337T591 377T635 395Q670 395 695 386T748 359Q751 358 755 344T764 309T768 269Q768 244 753 215T713 158T661 105T612 63V52Q638 54 659 56T702 61T749 65L770
136Q781 135 792 134T813 128L808 0Q763 0 717 1T626 3T535 4L506 -9Z" />
<glyph unicode="&#xbe;" horiz-adv-x="859" d="M98 252Q82 252 66 253T32 257V290Q58 291 81 293T125 300T165 311Q176 320 185 333T201 357T208 372Q208 383 200 400T177 428Q159 433 131 435T76 438L70 444L67 465L126 478Q142 487 155 499T175 527T183 555Q183
566 180 580T162 608Q144 608 123 602T83 587T56 574H48L33 600Q46 609 69 621T116 643T154 652Q172 652 189 650T221 642T248 627Q254 621 259 599T265 555Q265 542 257 529T235 502T204 475V470Q240 460 265 441T290 393Q290 338 265 307T196 264T98 252ZM166
-122L118 -90V-75Q165 -14 219 63T331 225T445 397T553 567T646 719L692 686V670Q634 586 572 495T449 313T334 140T237 -10T166 -122ZM689 -12L680 -6L684 113Q638 113 607 113T555 111T516 105L494 143Q525 181 560 221T629 303T692 390L750 395L759 386Q758
368 757 339T756 276T754 212T752 164Q770 164 792 166T834 170L839 167Q838 158 836 142T829 113H752Q753 80 755 53T760 11T763 -5L689 -12ZM567 164H684V301Q668 280 648 257T608 211T567 164Z" />
<glyph unicode="&#xbf;" horiz-adv-x="456" d="M237 -212Q211 -212 184 -208T133 -193T88 -166Q86 -164 81 -146T71 -102T66 -49Q66 -33 68 -19T75 7Q89 40 117 72T177 132T238 180T281 210L277 281Q282 286 295 289T318 292L324 287L343 187Q296 145 260 105T198
31T160 -24T147 -52Q153 -75 165 -98T188 -136T203 -152Q236 -150 268 -142T326 -124T367 -107T383 -100L402 -131Q381 -149 352 -167T293 -199T237 -212ZM331 368Q309 368 292 369T259 371Q258 379 257 398T255 445Q261 448 270 450T289 455T307 459T320 462Q322
463 329 454T337 443Q340 430 341 414T343 378L331 368Z" />
<glyph unicode="&#xc0;" horiz-adv-x="645" d="M7 -9Q6 -2 4 11T1 38L57 58Q61 66 75 100T111 184T157 293T204 409T246 516T275 596V627Q283 632 300 638T334 648T359 652L361 645Q378 590 397 534T437 422T477 316T516 219T551 135T579 67L644 47Q644 34 643
21T639 0Q581 0 528 -2T437 -6T384 -9Q382 -2 380 8T378 29L468 50Q462 78 448 122T416 219L192 209Q179 168 168 130T149 62L240 38Q240 28 239 18T235 0Q154 0 96 -3T7 -9ZM214 274H397Q376 333 354 392T313 499L305 521Q296 497 281 457T249 370T214 274ZM419
703Q366 717 329 727T268 743T233 754T221 759L217 778Q224 790 232 800T247 818T257 826L269 819L366 767L425 736L429 724Q428 720 426 714T419 703Z" />
<glyph unicode="&#xc1;" horiz-adv-x="645" d="M7 -9Q6 -2 4 11T1 38L57 58Q61 66 75 100T111 184T157 293T204 409T246 516T275 596V627Q283 632 300 638T334 648T359 652L361 645Q378 590 397 534T437 422T477 316T516 219T551 135T579 67L644 47Q644 34 643
21T639 0Q581 0 528 -2T437 -6T384 -9Q382 -2 380 8T378 29L468 50Q462 78 448 122T416 219L192 209Q179 168 168 130T149 62L240 38Q240 28 239 18T235 0Q154 0 96 -3T7 -9ZM214 274H397Q376 333 354 392T313 499L305 521Q296 497 281 457T249 370T214 274ZM227
715Q223 720 221 726T218 736L220 748L260 770L380 837L388 841Q391 840 397 833T412 815T427 792L424 773Q424 772 413 768T378 757T318 740T227 715Z" />
<glyph unicode="&#xc2;" horiz-adv-x="645" d="M7 -9Q6 -2 4 11T1 38L57 58Q61 66 75 100T111 184T157 293T204 409T246 516T275 596V627Q283 632 300 638T334 648T359 652L361 645Q378 590 397 534T437 422T477 316T516 219T551 135T579 67L644 47Q644 34 643
21T639 0Q581 0 528 -2T437 -6T384 -9Q382 -2 380 8T378 29L468 50Q462 78 448 122T416 219L192 209Q179 168 168 130T149 62L240 38Q240 28 239 18T235 0Q154 0 96 -3T7 -9ZM214 274H397Q376 333 354 392T313 499L305 521Q296 497 281 457T249 370T214 274ZM454
698Q438 707 414 718T366 742T324 767Q303 756 282 745T240 723T197 701L191 698Q188 698 181 705T173 716L318 838Q323 838 329 838T340 838L473 718Q473 715 465 707T454 698Z" />
<glyph unicode="&#xc3;" horiz-adv-x="645" d="M7 -9Q6 -2 4 11T1 38L57 58Q61 66 75 100T111 184T157 293T204 409T246 516T275 596V627Q283 632 300 638T334 648T359 652L361 645Q378 590 397 534T437 422T477 316T516 219T551 135T579 67L644 47Q644 34 643
21T639 0Q581 0 528 -2T437 -6T384 -9Q382 -2 380 8T378 29L468 50Q462 78 448 122T416 219L192 209Q179 168 168 130T149 62L240 38Q240 28 239 18T235 0Q154 0 96 -3T7 -9ZM214 274H397Q376 333 354 392T313 499L305 521Q296 497 281 457T249 370T214 274ZM166
725L147 742Q161 761 178 778T215 811T260 843Q269 844 290 835T335 813Q354 803 371 794T398 780Q418 788 436 803T470 832H480L499 817Q488 803 474 788T443 759T410 734T380 717Q377 717 355 728T306 753Q288 762 272 769T247 779Q238 775 226 766T201 746T178
725H166Z" />
<glyph unicode="&#xc4;" horiz-adv-x="645" d="M7 -9Q6 -2 4 11T1 38L57 58Q61 66 75 100T111 184T157 293T204 409T246 516T275 596V627Q283 632 300 638T334 648T359 652L361 645Q378 590 397 534T437 422T477 316T516 219T551 135T579 67L644 47Q644 34 643
21T639 0Q581 0 528 -2T437 -6T384 -9Q382 -2 380 8T378 29L468 50Q462 78 448 122T416 219L192 209Q179 168 168 130T149 62L240 38Q240 28 239 18T235 0Q154 0 96 -3T7 -9ZM214 274H397Q376 333 354 392T313 499L305 521Q296 497 281 457T249 370T214 274ZM217
733L209 797Q209 802 212 809T216 816Q222 816 234 817T260 820T286 822Q287 822 288 814T290 793T292 772T293 759Q293 755 287 747T278 736Q268 734 253 734T217 733ZM363 744Q359 761 357 777T355 810Q374 819 392 823T430 827Q433 814 434 800T436 774T436
759Q436 758 434 753T428 743T423 738Q418 738 407 738T383 740T363 744Z" />
<glyph unicode="&#xc5;" horiz-adv-x="645" d="M7 -9Q6 -2 4 11T1 38L57 58Q61 66 75 100T111 184T157 293T204 409T246 516T275 596V627Q283 632 300 638T334 648T359 652L361 645Q378 590 397 534T437 422T477 316T516 219T551 135T579 67L644 47Q644 34 643
21T639 0Q581 0 528 -2T437 -6T384 -9Q382 -2 380 8T378 29L468 50Q462 78 448 122T416 219L192 209Q179 168 168 130T149 62L240 38Q240 28 239 18T235 0Q154 0 96 -3T7 -9ZM214 274H397Q376 333 354 392T313 499L305 521Q296 497 281 457T249 370T214 274ZM317
718Q287 718 271 731T248 762T242 792Q242 815 251 836T279 874Q290 879 302 880T328 882Q359 882 375 869T397 838T403 807Q403 783 395 764T366 725Q356 721 344 720T317 718ZM327 758Q344 758 354 767T364 798Q364 807 362 818T354 839Q347 841 338 842T318
843Q301 843 291 835T281 803Q281 794 283 783T291 763Q299 761 308 760T327 758Z" />
<glyph unicode="&#xc6;" horiz-adv-x="849" d="M7 -9Q6 -2 4 11T1 38L57 58Q73 91 97 147T148 269T202 403T250 526T283 616Q291 621 308 626T342 636T367 640Q406 640 447 641T529 643T611 645T691 647V641L697 462Q685 458 674 456T650 454L646 465L606 581Q570
581 538 581T472 579T402 575Q415 534 428 493T454 410T479 330L656 368L672 353V285L502 260Q522 199 540 148T573 60Q591 61 607 62T639 66T667 70T693 74L724 178Q736 177 747 176T771 170V166V4L762 -6Q718 -4 678 -3T597 0Q547 -1 504 -2T429 -6T384 -9Q382
-2 380 8T378 29L468 50Q463 74 450 128T419 248L195 216Q179 169 167 129T149 62L240 38Q240 28 239 18T235 0Q154 0 96 -3T7 -9ZM215 274L401 314Q382 385 362 450T327 553Q325 553 322 552T316 548Q295 493 268 420T215 274Z" />
<glyph unicode="&#xc7;" horiz-adv-x="601" d="M305 -12Q249 -12 200 15T114 88T56 188T35 297Q35 341 47 384T82 466T135 540Q163 570 196 593T266 632T342 652Q368 652 404 648T476 635T534 618L538 609L532 450L484 444L479 450L453 551Q436 559 420 564T384
571T340 574Q303 574 270 570T215 557Q193 535 174 501T144 422T133 326Q133 265 154 214T215 124T313 62Q349 62 389 73T469 101T540 129L561 92Q509 51 445 24T305 -12ZM290 -212Q268 -212 250 -198T221 -171L233 -154Q233 -154 246 -159T277 -169T308 -175Q310
-175 316 -167T328 -149T334 -133Q334 -130 316 -112T269 -77L291 0H333L317 -50Q336 -59 354 -74T385 -104T398 -130Q398 -135 393 -147T381 -171T373 -184Q354 -197 331 -204T290 -212Z" />
<glyph unicode="&#xc8;" horiz-adv-x="625" d="M66 -9Q60 15 60 38L146 54Q146 120 146 183T145 310Q145 354 144 397T143 485T141 574L58 596Q58 607 59 618T64 640Q109 640 153 640T243 641T332 643T421 645T511 649V641L517 470Q505 466 494 464T470 462L466
473L429 586Q393 586 354 584T283 578T239 574Q238 544 237 509T234 434T232 353L426 357L452 332L446 289L231 295L230 57Q256 57 283 58T337 60T388 64T433 68T469 74L500 178Q512 177 523 176T547 170V164L540 4V-6Q501 -4 462 -3T384 -1T305 0Q275 0 245 0T186
-2T126 -5T66 -9ZM409 691Q356 705 319 715T258 731T223 742T211 747L207 766Q214 778 222 788T237 806T247 814L259 807L356 755L415 724L419 712Q418 708 416 702T409 691Z" />
<glyph unicode="&#xc9;" horiz-adv-x="625" d="M66 -9Q60 15 60 38L146 54Q146 120 146 183T145 310Q145 354 144 397T143 485T141 574L58 596Q58 607 59 618T64 640Q109 640 153 640T243 641T332 643T421 645T511 649V641L517 470Q505 466 494 464T470 462L466
473L429 586Q393 586 354 584T283 578T239 574Q238 544 237 509T234 434T232 353L426 357L452 332L446 289L231 295L230 57Q256 57 283 58T337 60T388 64T433 68T469 74L500 178Q512 177 523 176T547 170V164L540 4V-6Q501 -4 462 -3T384 -1T305 0Q275 0 245 0T186
-2T126 -5T66 -9ZM217 703Q213 708 211 714T208 724L210 736L250 758L370 825L378 829Q381 828 387 821T402 803T417 780L414 761Q414 760 403 756T368 745T308 728T217 703Z" />
<glyph unicode="&#xca;" horiz-adv-x="625" d="M66 -9Q60 15 60 38L146 54Q146 120 146 183T145 310Q145 354 144 397T143 485T141 574L58 596Q58 607 59 618T64 640Q109 640 153 640T243 641T332 643T421 645T511 649V641L517 470Q505 466 494 464T470 462L466
473L429 586Q393 586 354 584T283 578T239 574Q238 544 237 509T234 434T232 353L426 357L452 332L446 289L231 295L230 57Q256 57 283 58T337 60T388 64T433 68T469 74L500 178Q512 177 523 176T547 170V164L540 4V-6Q501 -4 462 -3T384 -1T305 0Q275 0 245 0T186
-2T126 -5T66 -9ZM444 686Q428 695 404 706T356 730T314 755Q293 744 272 733T230 711T187 689L181 686Q178 686 171 693T163 704L308 826Q313 826 319 826T330 826L463 706Q463 703 455 695T444 686Z" />
<glyph unicode="&#xcb;" horiz-adv-x="625" d="M66 -9Q60 15 60 38L146 54Q146 120 146 183T145 310Q145 354 144 397T143 485T141 574L58 596Q58 607 59 618T64 640Q109 640 153 640T243 641T332 643T421 645T511 649V641L517 470Q505 466 494 464T470 462L466
473L429 586Q393 586 354 584T283 578T239 574Q238 544 237 509T234 434T232 353L426 357L452 332L446 289L231 295L230 57Q256 57 283 58T337 60T388 64T433 68T469 74L500 178Q512 177 523 176T547 170V164L540 4V-6Q501 -4 462 -3T384 -1T305 0Q275 0 245 0T186
-2T126 -5T66 -9ZM207 721L199 785Q199 790 202 797T206 804Q212 804 224 805T250 808T276 810Q277 810 278 802T280 781T282 760T283 747Q283 743 277 735T268 724Q258 722 243 722T207 721ZM353 732Q349 749 347 765T345 798Q364 807 382 811T420 815Q423 802
424 788T426 762T426 747Q426 746 424 741T418 731T413 726Q408 726 397 726T373 728T353 732Z" />
<glyph unicode="&#xcc;" horiz-adv-x="382" d="M64 -9Q61 3 60 14T58 38L144 57Q147 94 149 131T151 206T152 280Q152 331 152 381T151 479T146 571L58 602Q58 612 59 621T63 640Q127 640 190 642T318 649Q320 637 322 626T324 602L243 582Q239 527 237 471T235
358Q235 320 235 283T235 209T237 138T241 70L324 38Q324 28 323 19T319 0Q255 0 192 -2T64 -9ZM290 703Q237 717 200 727T139 743T104 754T92 759L88 778Q95 790 103 800T118 818T128 826L140 819L237 767L296 736L300 724Q299 720 297 714T290 703Z" />
<glyph unicode="&#xcd;" horiz-adv-x="382" d="M64 -9Q61 3 60 14T58 38L144 57Q147 94 149 131T151 206T152 280Q152 331 152 381T151 479T146 571L58 602Q58 612 59 621T63 640Q127 640 190 642T318 649Q320 637 322 626T324 602L243 582Q239 527 237 471T235
358Q235 320 235 283T235 209T237 138T241 70L324 38Q324 28 323 19T319 0Q255 0 192 -2T64 -9ZM98 715Q94 720 92 726T89 736L91 748L131 770L251 837L259 841Q262 840 268 833T283 815T298 792L295 773Q295 772 284 768T249 757T189 740T98 715Z" />
<glyph unicode="&#xce;" horiz-adv-x="382" d="M64 -9Q61 3 60 14T58 38L144 57Q147 94 149 131T151 206T152 280Q152 331 152 381T151 479T146 571L58 602Q58 612 59 621T63 640Q127 640 190 642T318 649Q320 637 322 626T324 602L243 582Q239 527 237 471T235
358Q235 320 235 283T235 209T237 138T241 70L324 38Q324 28 323 19T319 0Q255 0 192 -2T64 -9ZM325 698Q309 707 285 718T237 742T195 767Q174 756 153 745T111 723T68 701L62 698Q59 698 52 705T44 716L189 838Q194 838 200 838T211 838L344 718Q344 715 336
707T325 698Z" />
<glyph unicode="&#xcf;" horiz-adv-x="382" d="M64 -9Q61 3 60 14T58 38L144 57Q147 94 149 131T151 206T152 280Q152 331 152 381T151 479T146 571L58 602Q58 612 59 621T63 640Q127 640 190 642T318 649Q320 637 322 626T324 602L243 582Q239 527 237 471T235
358Q235 320 235 283T235 209T237 138T241 70L324 38Q324 28 323 19T319 0Q255 0 192 -2T64 -9ZM88 733L80 797Q80 802 83 809T87 816Q93 816 105 817T131 820T157 822Q158 822 159 814T161 793T163 772T164 759Q164 755 158 747T149 736Q139 734 124 734T88 733ZM234
744Q230 761 228 777T226 810Q245 819 263 823T301 827Q304 814 305 800T307 774T307 759Q307 758 305 753T299 743T294 738Q289 738 278 738T254 740T234 744Z" />
<glyph unicode="&#xd0;" horiz-adv-x="707" d="M396 289Q383 290 348 290T266 291T169 292T73 292L66 301L73 344H389L403 332L396 289ZM273 -12Q256 -12 227 -12T164 -11T104 -10T64 -9Q58 15 58 38L150 59Q154 110 158 189T162 351Q162 410 160 453T154 525T149
568L64 602Q64 619 66 629T69 640Q132 640 183 642T275 646T347 650T403 652Q459 652 508 625T594 552T652 452T673 343Q673 286 652 230T595 127T510 45Q478 23 442 8T366 -12Q356 -12 346 -12T326 -12T307 -12T290 -12T273 -12ZM362 52Q391 52 418 56T473 70Q496
93 519 130T559 215T575 314Q575 360 563 402T528 481T472 545T395 591Q370 591 344 589T295 582T258 573Q254 550 248 494T241 355Q241 314 241 262T243 157T248 67Q261 64 275 61T303 56T332 53T362 52Z" />
<glyph unicode="&#xd1;" horiz-adv-x="753" d="M572 -19Q552 17 511 78T416 215T306 374T200 536Q200 485 201 422T203 293Q203 262 203 231T205 172T206 118T207 72L303 38Q303 28 302 19T298 0Q236 -1 173 -2T48 -9Q46 3 44 14T42 38L130 59Q132 80 133 112T136
190T137 295Q137 327 136 370T133 458T130 536T127 582L43 602Q43 612 44 621T48 640Q94 640 139 643T231 649Q262 601 289 558T343 474T394 396T446 320T500 243T559 162Q559 203 560 246T561 329Q561 369 561 408T559 488T555 568L460 602Q460 612 461 621T465
640Q525 641 585 642T705 649Q708 637 709 626T711 602L640 580Q633 514 629 435T624 277Q624 251 624 223T624 166T626 112T628 64L639 15Q634 11 627 6T611 -3T595 -11T581 -17T572 -19ZM230 725L211 742Q225 761 242 778T279 811T324 843Q333 844 354 835T399
813Q418 803 435 794T462 780Q482 788 500 803T534 832H544L563 817Q552 803 538 788T507 759T474 734T444 717Q441 717 419 728T370 753Q352 762 336 769T311 779Q302 775 290 766T265 746T242 725H230Z" />
<glyph unicode="&#xd2;" horiz-adv-x="652" d="M307 -12Q250 -12 201 15T115 88T56 188T35 297Q35 328 41 358T60 419T89 476Q117 522 156 559T244 621T343 652Q400 652 449 624T535 551T594 450T615 341Q615 311 609 282T592 223T565 167Q537 121 497 83T408
20T307 -12ZM310 63Q335 63 358 65T401 73T435 83Q469 117 493 176T517 312Q517 357 506 396T472 470T419 530T346 574Q309 574 273 570T215 557Q181 523 157 463T133 326Q133 281 144 241T179 167T235 107T310 63ZM422 703Q369 717 332 727T271 743T236 754T224
759L220 778Q227 790 235 800T250 818T260 826L272 819L369 767L428 736L432 724Q431 720 429 714T422 703Z" />
<glyph unicode="&#xd3;" horiz-adv-x="652" d="M307 -12Q250 -12 201 15T115 88T56 188T35 297Q35 328 41 358T60 419T89 476Q117 522 156 559T244 621T343 652Q400 652 449 624T535 551T594 450T615 341Q615 311 609 282T592 223T565 167Q537 121 497 83T408
20T307 -12ZM310 63Q335 63 358 65T401 73T435 83Q469 117 493 176T517 312Q517 357 506 396T472 470T419 530T346 574Q309 574 273 570T215 557Q181 523 157 463T133 326Q133 281 144 241T179 167T235 107T310 63ZM230 715Q226 720 224 726T221 736L223 748L263
770L383 837L391 841Q394 840 400 833T415 815T430 792L427 773Q427 772 416 768T381 757T321 740T230 715Z" />
<glyph unicode="&#xd4;" horiz-adv-x="652" d="M307 -12Q250 -12 201 15T115 88T56 188T35 297Q35 328 41 358T60 419T89 476Q117 522 156 559T244 621T343 652Q400 652 449 624T535 551T594 450T615 341Q615 311 609 282T592 223T565 167Q537 121 497 83T408
20T307 -12ZM310 63Q335 63 358 65T401 73T435 83Q469 117 493 176T517 312Q517 357 506 396T472 470T419 530T346 574Q309 574 273 570T215 557Q181 523 157 463T133 326Q133 281 144 241T179 167T235 107T310 63ZM457 698Q441 707 417 718T369 742T327 767Q306
756 285 745T243 723T200 701L194 698Q191 698 184 705T176 716L321 838Q326 838 332 838T343 838L476 718Q476 715 468 707T457 698Z" />
<glyph unicode="&#xd5;" horiz-adv-x="652" d="M307 -12Q250 -12 201 15T115 88T56 188T35 297Q35 328 41 358T60 419T89 476Q117 522 156 559T244 621T343 652Q400 652 449 624T535 551T594 450T615 341Q615 311 609 282T592 223T565 167Q537 121 497 83T408
20T307 -12ZM310 63Q335 63 358 65T401 73T435 83Q469 117 493 176T517 312Q517 357 506 396T472 470T419 530T346 574Q309 574 273 570T215 557Q181 523 157 463T133 326Q133 281 144 241T179 167T235 107T310 63ZM169 725L150 742Q164 761 181 778T218 811T263
843Q272 844 293 835T338 813Q357 803 374 794T401 780Q421 788 439 803T473 832H483L502 817Q491 803 477 788T446 759T413 734T383 717Q380 717 358 728T309 753Q291 762 275 769T250 779Q241 775 229 766T204 746T181 725H169Z" />
<glyph unicode="&#xd6;" horiz-adv-x="652" d="M307 -12Q250 -12 201 15T115 88T56 188T35 297Q35 328 41 358T60 419T89 476Q117 522 156 559T244 621T343 652Q400 652 449 624T535 551T594 450T615 341Q615 311 609 282T592 223T565 167Q537 121 497 83T408
20T307 -12ZM310 63Q335 63 358 65T401 73T435 83Q469 117 493 176T517 312Q517 357 506 396T472 470T419 530T346 574Q309 574 273 570T215 557Q181 523 157 463T133 326Q133 281 144 241T179 167T235 107T310 63ZM220 733L212 797Q212 802 215 809T219 816Q225
816 237 817T263 820T289 822Q290 822 291 814T293 793T295 772T296 759Q296 755 290 747T281 736Q271 734 256 734T220 733ZM366 744Q362 761 360 777T358 810Q377 819 395 823T433 827Q436 814 437 800T439 774T439 759Q439 758 437 753T431 743T426 738Q421
738 410 738T386 740T366 744Z" />
<glyph unicode="&#xd7;" horiz-adv-x="581" d="M138 56L102 90Q108 95 131 118T187 175T256 243Q221 279 190 309T139 360T112 386L114 397L151 425Q171 403 203 370T290 277Q347 334 379 369T434 427L446 429L483 398Q467 381 423 338T326 242Q376 193 416 155T470
104L472 87L435 59Q410 86 377 121T292 208Q240 153 205 117T151 59L138 56Z" />
<glyph unicode="&#xd8;" horiz-adv-x="652" d="M124 -90L98 -74Q150 22 185 87T246 201T294 292Q313 328 332 366T375 452T430 562T504 712L540 704L542 692Q529 668 506 625T452 526T389 406T322 277Q282 199 245 126T179 -4T138 -90H124ZM307 -12Q250 -12 201
15T115 88T56 188T35 297Q35 328 41 358T60 419T89 476Q117 522 156 559T244 621T343 652Q400 652 449 624T535 551T594 450T615 341Q615 311 609 282T592 223T565 167Q537 121 497 83T408 20T307 -12ZM310 63Q335 63 358 65T401 73T435 83Q469 117 493 176T517
312Q517 357 506 396T472 470T419 530T346 574Q309 574 273 570T215 557Q181 523 157 463T133 326Q133 281 144 241T179 167T235 107T310 63Z" />
<glyph unicode="&#xd9;" horiz-adv-x="718" d="M352 -12Q323 -12 283 -2T205 34T142 106T116 223Q116 277 116 331T114 434T113 518T111 571L24 602Q24 612 25 621T29 640Q94 640 159 642T289 649Q295 625 295 602L210 584Q209 561 207 518T204 422T202 314T201
215Q209 176 222 146T255 97T303 67T369 57Q408 57 448 70T516 103Q532 138 537 190T542 299Q542 352 540 404T536 499T531 569L429 602Q429 612 430 621T434 640Q498 640 562 642T690 649Q696 625 696 602L618 582Q618 578 617 549T614 472T611 368T610 248Q610
196 605 157T586 84Q562 62 531 41T456 1Q430 -5 404 -8T352 -12ZM455 703Q402 717 365 727T304 743T269 754T257 759L253 778Q260 790 268 800T283 818T293 826L305 819L402 767L461 736L465 724Q464 720 462 714T455 703Z" />
<glyph unicode="&#xda;" horiz-adv-x="718" d="M352 -12Q323 -12 283 -2T205 34T142 106T116 223Q116 277 116 331T114 434T113 518T111 571L24 602Q24 612 25 621T29 640Q94 640 159 642T289 649Q295 625 295 602L210 584Q209 561 207 518T204 422T202 314T201
215Q209 176 222 146T255 97T303 67T369 57Q408 57 448 70T516 103Q532 138 537 190T542 299Q542 352 540 404T536 499T531 569L429 602Q429 612 430 621T434 640Q498 640 562 642T690 649Q696 625 696 602L618 582Q618 578 617 549T614 472T611 368T610 248Q610
196 605 157T586 84Q562 62 531 41T456 1Q430 -5 404 -8T352 -12ZM263 715Q259 720 257 726T254 736L256 748L296 770L416 837L424 841Q427 840 433 833T448 815T463 792L460 773Q460 772 449 768T414 757T354 740T263 715Z" />
<glyph unicode="&#xdb;" horiz-adv-x="718" d="M352 -12Q323 -12 283 -2T205 34T142 106T116 223Q116 277 116 331T114 434T113 518T111 571L24 602Q24 612 25 621T29 640Q94 640 159 642T289 649Q295 625 295 602L210 584Q209 561 207 518T204 422T202 314T201
215Q209 176 222 146T255 97T303 67T369 57Q408 57 448 70T516 103Q532 138 537 190T542 299Q542 352 540 404T536 499T531 569L429 602Q429 612 430 621T434 640Q498 640 562 642T690 649Q696 625 696 602L618 582Q618 578 617 549T614 472T611 368T610 248Q610
196 605 157T586 84Q562 62 531 41T456 1Q430 -5 404 -8T352 -12ZM490 698Q474 707 450 718T402 742T360 767Q339 756 318 745T276 723T233 701L227 698Q224 698 217 705T209 716L354 838Q359 838 365 838T376 838L509 718Q509 715 501 707T490 698Z" />
<glyph unicode="&#xdc;" horiz-adv-x="718" d="M352 -12Q323 -12 283 -2T205 34T142 106T116 223Q116 277 116 331T114 434T113 518T111 571L24 602Q24 612 25 621T29 640Q94 640 159 642T289 649Q295 625 295 602L210 584Q209 561 207 518T204 422T202 314T201
215Q209 176 222 146T255 97T303 67T369 57Q408 57 448 70T516 103Q532 138 537 190T542 299Q542 352 540 404T536 499T531 569L429 602Q429 612 430 621T434 640Q498 640 562 642T690 649Q696 625 696 602L618 582Q618 578 617 549T614 472T611 368T610 248Q610
196 605 157T586 84Q562 62 531 41T456 1Q430 -5 404 -8T352 -12ZM253 733L245 797Q245 802 248 809T252 816Q258 816 270 817T296 820T322 822Q323 822 324 814T326 793T328 772T329 759Q329 755 323 747T314 736Q304 734 289 734T253 733ZM399 744Q395 761 393
777T391 810Q410 819 428 823T466 827Q469 814 470 800T472 774T472 759Q472 758 470 753T464 743T459 738Q454 738 443 738T419 740T399 744Z" />
<glyph unicode="&#xdd;" horiz-adv-x="597" d="M165 -9Q162 3 161 14T159 38L258 56Q261 84 263 115T266 180T269 246Q250 286 229 325T186 401T142 470T101 530T68 579L1 593Q1 605 2 616T6 640Q54 640 99 641T180 644T237 647T258 649Q261 639 262 630T264 611L174
590Q182 572 198 541T236 472T280 400T322 340L324 343Q338 363 355 393T391 457T426 523T453 578L362 602Q362 612 363 621T367 640Q432 640 482 642T561 646T590 649Q596 625 596 602L540 582Q535 576 519 551T479 489T432 414T386 338T352 276Q354 220 354 175T357
70L470 38Q470 28 469 19T465 0Q390 -1 315 -3T165 -9ZM203 715Q199 720 197 726T194 736L196 748L236 770L356 837L364 841Q367 840 373 833T388 815T403 792L400 773Q400 772 389 768T354 757T294 740T203 715Z" />
<glyph unicode="&#xde;" horiz-adv-x="573" d="M64 -9Q61 3 60 14T58 38L144 57Q147 94 149 131T151 206T152 280Q152 356 152 430T146 571L58 602Q58 612 59 621T63 640Q127 641 190 643T318 649Q324 625 324 602L243 582Q241 560 240 537T237 490Q262 492 291
495T354 498Q398 498 423 493T448 488Q492 462 514 423T537 343Q537 317 528 291T503 239Q476 214 447 191T387 148Q373 148 359 148T330 149T302 151T273 155Q273 166 273 175T275 189L283 196Q305 197 326 199T367 206Q388 211 406 218T439 234Q444 257 447 280T450
326Q450 359 433 393T392 446Q373 446 354 446T318 443Q285 441 262 438T235 433Q235 377 235 333T235 255T236 195T237 147T239 107T241 70L324 38Q324 28 323 19T319 0Q255 0 192 -2T64 -9Z" />
<glyph unicode="&#xdf;" horiz-adv-x="604" d="M414 -12Q388 -12 356 -4T306 12L303 19L293 127L296 132L334 140Q342 120 350 100T367 60Q383 53 401 48T438 43Q450 43 460 45T480 54Q490 61 497 72T506 102Q484 136 457 168T404 230T354 288T318 343T304 394Q325
405 349 423T397 465T443 518Q443 538 436 562T418 607T396 640Q370 640 339 638T281 630T237 610Q234 592 232 570T229 522T227 471T226 416Q226 341 228 264T234 119T239 0Q201 0 162 -2T85 -8Q82 2 81 12T80 32L149 65V373Q141 381 125 387T93 397L83 410L88
445L149 457Q150 475 150 493T152 529Q168 588 212 635T322 712Q362 712 394 704T450 679T485 639T498 584Q498 554 491 532T472 493T446 460T416 432T387 402Q412 366 436 339T480 288T516 243T541 195T550 138Q550 98 537 71T498 25Q482 13 461 4T414 -12Z" />
<glyph unicode="&#xe0;" horiz-adv-x="479" d="M231 0Q218 -4 189 -8T124 -12Q110 -2 93 14T64 52T51 93Q51 112 55 130T66 165T82 194T101 216Q125 224 156 229T219 239T273 244T305 246V375Q285 387 253 396T190 405Q182 405 174 404T158 401L140 309L80 316L74
416L80 425Q114 438 165 450T279 462Q309 462 329 451T361 423T379 394T386 376Q385 350 383 319T380 260T379 221Q379 178 381 146T387 93T392 68L453 64L459 35Q434 22 403 9T330 -12L308 20L305 74L303 72Q291 60 279 48T255 24T231 0ZM144 76Q149 73 159 69T183
62T210 58Q216 58 230 66T260 84T289 104T305 115V205Q279 203 251 198T194 184T138 165Q137 160 137 155T136 146T136 136Q136 115 138 100T144 76ZM312 537L296 539Q260 565 233 585T187 619T155 643T138 658T132 665L135 685Q153 698 170 707T190 717L210 694L302
589L331 556L312 537Z" />
<glyph unicode="&#xe1;" horiz-adv-x="479" d="M231 0Q218 -4 189 -8T124 -12Q110 -2 93 14T64 52T51 93Q51 112 55 130T66 165T82 194T101 216Q125 224 156 229T219 239T273 244T305 246V375Q285 387 253 396T190 405Q182 405 174 404T158 401L140 309L80 316L74
416L80 425Q114 438 165 450T279 462Q309 462 329 451T361 423T379 394T386 376Q385 350 383 319T380 260T379 221Q379 178 381 146T387 93T392 68L453 64L459 35Q434 22 403 9T330 -12L308 20L305 74L303 72Q291 60 279 48T255 24T231 0ZM144 76Q149 73 159 69T183
62T210 58Q216 58 230 66T260 84T289 104T305 115V205Q279 203 251 198T194 184T138 165Q137 160 137 155T136 146T136 136Q136 115 138 100T144 76ZM164 539L145 558L185 598L292 705L298 710Q301 710 317 699T350 674L352 654Q352 653 343 646T314 625T260 590T180
540L164 539Z" />
<glyph unicode="&#xe2;" horiz-adv-x="479" d="M231 0Q218 -4 189 -8T124 -12Q110 -2 93 14T64 52T51 93Q51 112 55 130T66 165T82 194T101 216Q125 224 156 229T219 239T273 244T305 246V375Q285 387 253 396T190 405Q182 405 174 404T158 401L140 309L80 316L74
416L80 425Q114 438 165 450T279 462Q309 462 329 451T361 423T379 394T386 376Q385 350 383 319T380 260T379 221Q379 178 381 146T387 93T392 68L453 64L459 35Q434 22 403 9T330 -12L308 20L305 74L303 72Q291 60 279 48T255 24T231 0ZM144 76Q149 73 159 69T183
62T210 58Q216 58 230 66T260 84T289 104T305 115V205Q279 203 251 198T194 184T138 165Q137 160 137 155T136 146T136 136Q136 115 138 100T144 76ZM139 531L135 528Q128 528 118 536T107 548Q121 565 143 590T187 643T223 692Q225 694 234 696T252 700T263 702L337
603L374 554Q374 550 365 540T349 528Q335 540 314 557T272 594T240 628L223 599Q214 589 201 578T172 554T139 531Z" />
<glyph unicode="&#xe3;" horiz-adv-x="479" d="M231 0Q218 -4 189 -8T124 -12Q110 -2 93 14T64 52T51 93Q51 112 55 130T66 165T82 194T101 216Q125 224 156 229T219 239T273 244T305 246V375Q285 387 253 396T190 405Q182 405 174 404T158 401L140 309L80 316L74
416L80 425Q114 438 165 450T279 462Q309 462 329 451T361 423T379 394T386 376Q385 350 383 319T380 260T379 221Q379 178 381 146T387 93T392 68L453 64L459 35Q434 22 403 9T330 -12L308 20L305 74L303 72Q291 60 279 48T255 24T231 0ZM144 76Q149 73 159 69T183
62T210 58Q216 58 230 66T260 84T289 104T305 115V205Q279 203 251 198T194 184T138 165Q137 160 137 155T136 146T136 136Q136 115 138 100T144 76ZM83 558L64 575Q78 594 95 611T132 644T177 676Q186 677 207 668T252 646Q271 636 288 627T315 613Q335 621 353
636T387 665H397L416 650Q405 636 391 621T360 592T327 567T297 550Q294 550 272 561T223 586Q205 595 189 602T164 612Q155 608 143 599T118 579T95 558H83Z" />
<glyph unicode="&#xe4;" horiz-adv-x="479" d="M231 0Q218 -4 189 -8T124 -12Q110 -2 93 14T64 52T51 93Q51 112 55 130T66 165T82 194T101 216Q125 224 156 229T219 239T273 244T305 246V375Q285 387 253 396T190 405Q182 405 174 404T158 401L140 309L80 316L74
416L80 425Q114 438 165 450T279 462Q309 462 329 451T361 423T379 394T386 376Q385 350 383 319T380 260T379 221Q379 178 381 146T387 93T392 68L453 64L459 35Q434 22 403 9T330 -12L308 20L305 74L303 72Q291 60 279 48T255 24T231 0ZM144 76Q149 73 159 69T183
62T210 58Q216 58 230 66T260 84T289 104T305 115V205Q279 203 251 198T194 184T138 165Q137 160 137 155T136 146T136 136Q136 115 138 100T144 76ZM134 561L126 625Q126 630 129 637T133 644Q139 644 151 645T177 648T203 650Q204 650 205 642T207 621T209 600T210
587Q210 583 204 575T195 564Q185 562 170 562T134 561ZM280 572Q276 589 274 605T272 638Q291 647 309 651T347 655Q350 642 351 628T353 602T353 587Q353 586 351 581T345 571T340 566Q335 566 324 566T300 568T280 572Z" />
<glyph unicode="&#xe5;" horiz-adv-x="479" d="M231 0Q218 -4 189 -8T124 -12Q110 -2 93 14T64 52T51 93Q51 112 55 130T66 165T82 194T101 216Q125 224 156 229T219 239T273 244T305 246V375Q285 387 253 396T190 405Q182 405 174 404T158 401L140 309L80 316L74
416L80 425Q114 438 165 450T279 462Q309 462 329 451T361 423T379 394T386 376Q385 350 383 319T380 260T379 221Q379 178 381 146T387 93T392 68L453 64L459 35Q434 22 403 9T330 -12L308 20L305 74L303 72Q291 60 279 48T255 24T231 0ZM144 76Q149 73 159 69T183
62T210 58Q216 58 230 66T260 84T289 104T305 115V205Q279 203 251 198T194 184T138 165Q137 160 137 155T136 146T136 136Q136 115 138 100T144 76ZM234 528Q204 528 188 541T165 572T159 602Q159 625 168 646T196 684Q207 689 219 690T245 692Q276 692 292 679T314
648T320 617Q320 593 312 574T283 535Q273 531 261 530T234 528ZM244 568Q261 568 271 577T281 608Q281 617 279 628T271 649Q264 651 255 652T235 653Q218 653 208 645T198 613Q198 604 200 593T208 573Q216 571 225 570T244 568Z" />
<glyph unicode="&#xe6;" horiz-adv-x="704" d="M124 -12Q110 -2 93 14T64 52T51 93Q51 112 55 130T66 165T82 194T101 216Q125 224 156 229T217 239T271 244T303 246Q303 278 303 310T303 375Q283 387 252 396T190 405Q182 405 174 404T158 401L141 314L137 310L80
316L74 416L80 425Q114 438 165 450T279 462Q320 462 343 441T377 400Q406 422 440 438T513 462Q542 462 574 444T631 386T662 281L631 225Q591 219 526 213T388 205Q393 157 416 120T477 57Q502 57 535 64T600 82T654 102L669 78Q650 59 625 39T570 0Q570 0 546
-6T486 -12Q437 -12 398 13T335 82Q318 69 301 55T266 28T231 0Q231 0 203 -6T124 -12ZM210 60Q229 69 247 77T284 95T321 112Q313 133 308 156T303 205Q277 203 249 198T193 184T138 165Q137 160 137 155T136 146T136 136Q136 116 138 101T144 78Q149 75 159 71T183
64T210 60ZM387 243Q425 246 458 249T520 258T574 269Q574 293 568 319T552 369T526 407Q504 407 478 404T437 395Q425 380 414 357T396 306T387 243Z" />
<glyph unicode="&#xe7;" horiz-adv-x="426" d="M218 -12Q165 -12 124 18T59 98T35 209Q35 250 48 297T83 379Q104 398 129 414T184 443T245 462Q289 462 329 454T388 440L391 434L385 306L338 300L334 304L317 386Q306 391 296 394T274 399T247 401Q224 401 203
398T169 390Q149 366 134 326T119 230Q119 174 143 130T209 57Q234 57 267 64T332 82T386 102L401 78Q382 59 357 39T302 0Q297 -1 274 -6T218 -12ZM199 -212Q177 -212 159 -198T130 -171L142 -154Q142 -154 155 -159T186 -169T217 -175Q219 -175 225 -167T237
-149T243 -133Q243 -130 225 -112T178 -77L200 0H242L226 -50Q245 -59 263 -74T294 -104T307 -130Q307 -135 302 -147T290 -171T282 -184Q263 -197 240 -204T199 -212Z" />
<glyph unicode="&#xe8;" horiz-adv-x="448" d="M224 -12Q168 -12 126 18T59 98T35 209Q35 257 49 302T83 379Q105 398 132 414T191 443T257 462Q286 462 318 444T375 386T406 281L375 225Q335 219 267 213T120 205Q125 157 149 120T215 57Q243 57 277 64T344 82T398
102L413 78Q394 59 369 39T314 0Q305 -2 281 -7T224 -12ZM119 243Q178 247 228 253T318 269Q318 292 313 316T296 363T270 400Q246 400 215 397T169 388Q150 366 136 329T119 243ZM299 533L283 535Q247 561 220 581T174 615T142 639T125 654T119 661L122 681Q140
694 157 703T177 713L197 690L289 585L318 552L299 533Z" />
<glyph unicode="&#xe9;" horiz-adv-x="448" d="M224 -12Q168 -12 126 18T59 98T35 209Q35 257 49 302T83 379Q105 398 132 414T191 443T257 462Q286 462 318 444T375 386T406 281L375 225Q335 219 267 213T120 205Q125 157 149 120T215 57Q243 57 277 64T344 82T398
102L413 78Q394 59 369 39T314 0Q305 -2 281 -7T224 -12ZM119 243Q178 247 228 253T318 269Q318 292 313 316T296 363T270 400Q246 400 215 397T169 388Q150 366 136 329T119 243ZM151 535L132 554L172 594L279 701L285 706Q288 706 304 695T337 670L339 650Q339
649 330 642T301 621T247 586T167 536L151 535Z" />
<glyph unicode="&#xea;" horiz-adv-x="448" d="M224 -12Q168 -12 126 18T59 98T35 209Q35 257 49 302T83 379Q105 398 132 414T191 443T257 462Q286 462 318 444T375 386T406 281L375 225Q335 219 267 213T120 205Q125 157 149 120T215 57Q243 57 277 64T344 82T398
102L413 78Q394 59 369 39T314 0Q305 -2 281 -7T224 -12ZM119 243Q178 247 228 253T318 269Q318 292 313 316T296 363T270 400Q246 400 215 397T169 388Q150 366 136 329T119 243ZM126 527L122 524Q115 524 105 532T94 544Q108 561 130 586T174 639T210 688Q212
690 221 692T239 696T250 698L324 599L361 550Q361 546 352 536T336 524Q322 536 301 553T259 590T227 624L210 595Q201 585 188 574T159 550T126 527Z" />
<glyph unicode="&#xeb;" horiz-adv-x="448" d="M224 -12Q168 -12 126 18T59 98T35 209Q35 257 49 302T83 379Q105 398 132 414T191 443T257 462Q286 462 318 444T375 386T406 281L375 225Q335 219 267 213T120 205Q125 157 149 120T215 57Q243 57 277 64T344 82T398
102L413 78Q394 59 369 39T314 0Q305 -2 281 -7T224 -12ZM119 243Q178 247 228 253T318 269Q318 292 313 316T296 363T270 400Q246 400 215 397T169 388Q150 366 136 329T119 243ZM121 557L113 621Q113 626 116 633T120 640Q126 640 138 641T164 644T190 646Q191
646 192 638T194 617T196 596T197 583Q197 579 191 571T182 560Q172 558 157 558T121 557ZM267 568Q263 585 261 601T259 634Q278 643 296 647T334 651Q337 638 338 624T340 598T340 583Q340 582 338 577T332 567T327 562Q322 562 311 562T287 564T267 568Z" />
<glyph unicode="&#xec;" horiz-adv-x="264" d="M30 -4Q27 5 26 14T25 32L95 64Q97 83 98 105T101 150T103 193Q103 224 102 255T97 318T89 385L26 399Q26 409 27 418T32 437L163 462L186 446L179 412Q176 380 175 347T173 280Q173 242 174 204T178 129T184 54L256
34Q256 27 256 18T253 0Q240 0 210 0T143 -1T76 -2T30 -4ZM203 533L187 535Q151 561 124 581T78 615T46 639T29 654T23 661L26 681Q44 694 61 703T81 713L101 690L193 585L222 552L203 533Z" />
<glyph unicode="&#xed;" horiz-adv-x="264" d="M30 -4Q27 5 26 14T25 32L95 64Q97 83 98 105T101 150T103 193Q103 224 102 255T97 318T89 385L26 399Q26 409 27 418T32 437L163 462L186 446L179 412Q176 380 175 347T173 280Q173 242 174 204T178 129T184 54L256
34Q256 27 256 18T253 0Q240 0 210 0T143 -1T76 -2T30 -4ZM55 535L36 554L76 594L183 701L189 706Q192 706 208 695T241 670L243 650Q243 649 234 642T205 621T151 586T71 536L55 535Z" />
<glyph unicode="&#xee;" horiz-adv-x="264" d="M30 -4Q27 5 26 14T25 32L95 64Q97 83 98 105T101 150T103 193Q103 224 102 255T97 318T89 385L26 399Q26 409 27 418T32 437L163 462L186 446L179 412Q176 380 175 347T173 280Q173 242 174 204T178 129T184 54L256
34Q256 27 256 18T253 0Q240 0 210 0T143 -1T76 -2T30 -4ZM286 527L282 524Q275 524 265 532T254 544Q268 561 290 586T334 639T370 688Q372 690 381 692T399 696T410 698L484 599L521 550Q521 546 512 536T496 524Q482 536 461 553T419 590T387 624L370 595Q361
585 348 574T319 550T286 527Z" />
<glyph unicode="&#xef;" horiz-adv-x="264" d="M30 -4Q27 5 26 14T25 32L95 64Q97 83 98 105T101 150T103 193Q103 224 102 255T97 318T89 385L26 399Q26 409 27 418T32 437L163 462L186 446L179 412Q176 380 175 347T173 280Q173 242 174 204T178 129T184 54L256
34Q256 27 256 18T253 0Q240 0 210 0T143 -1T76 -2T30 -4ZM25 557L17 621Q17 626 20 633T24 640Q30 640 42 641T68 644T94 646Q95 646 96 638T98 617T100 596T101 583Q101 579 95 571T86 560Q76 558 61 558T25 557ZM171 568Q167 585 165 601T163 634Q182 643 200
647T238 651Q241 638 242 624T244 598T244 583Q244 582 242 577T236 567T231 562Q226 562 215 562T191 564T171 568Z" />
<glyph unicode="&#xf0;" horiz-adv-x="527" d="M247 -12Q200 -12 157 15T87 89T60 197Q60 245 76 290T111 367Q144 396 184 418T273 450Q301 436 328 416T383 369Q374 434 355 491T310 581Q285 596 260 608T208 632T155 652T100 671L107 704L117 712Q162 701 203
686T281 652T352 608T416 552Q444 494 459 427T475 289Q475 227 461 169T417 66Q395 49 368 33T310 6T247 -12ZM250 54Q275 54 297 58T335 67Q367 99 378 155T389 298Q361 330 333 352T275 385Q248 385 230 382T195 374Q173 351 157 311T140 219Q140 159 170 115T250
54ZM162 495L151 500L139 535L392 653L447 678L463 677L476 641L162 495Z" />
<glyph unicode="&#xf1;" horiz-adv-x="587" d="M45 -4Q42 5 41 14T40 32L111 65Q113 94 115 131T118 200Q118 226 116 257T112 321T106 378L33 389Q29 397 28 404T25 419Q57 434 94 445T166 462L185 433L190 316L200 312Q214 344 232 378T276 450Q306 457 330
459T385 462Q406 462 424 451T458 423T480 390Q482 348 483 306T486 222T490 138T493 54L567 34Q568 26 567 17T564 0Q551 0 521 0T454 -1T387 -2T341 -4Q338 5 337 14T336 32L410 65V230Q410 247 410 265T408 301T406 336T401 368Q380 377 354 383T298 393Q284
382 266 358T227 302T190 232L197 54L271 34Q272 26 271 17T268 0Q255 0 225 0T158 -1T91 -2T45 -4ZM141 554L122 571Q136 590 153 607T190 640T235 672Q244 673 265 664T310 642Q329 632 346 623T373 609Q393 617 411 632T445 661H455L474 646Q463 632 449 617T418
588T385 563T355 546Q352 546 330 557T281 582Q263 591 247 598T222 608Q213 604 201 595T176 575T153 554H141Z" />
<glyph unicode="&#xf2;" horiz-adv-x="494" d="M234 -12Q181 -12 136 15T63 93T35 209Q35 257 51 302T86 379Q108 398 136 414T195 443T260 462Q314 462 359 434T431 357T459 240Q459 207 451 175T431 115T404 66Q382 49 355 33T297 6T234 -12ZM237 54Q254 54
269 56T298 61T322 67Q337 83 349 105T369 157T377 221Q377 289 346 335T262 397Q235 397 211 394T170 386Q148 363 132 323T115 231Q115 162 147 116T237 54ZM319 533L303 535Q267 561 240 581T194 615T162 639T145 654T139 661L142 681Q160 694 177 703T197 713L217
690L309 585L338 552L319 533Z" />
<glyph unicode="&#xf3;" horiz-adv-x="494" d="M234 -12Q181 -12 136 15T63 93T35 209Q35 257 51 302T86 379Q108 398 136 414T195 443T260 462Q314 462 359 434T431 357T459 240Q459 207 451 175T431 115T404 66Q382 49 355 33T297 6T234 -12ZM237 54Q254 54
269 56T298 61T322 67Q337 83 349 105T369 157T377 221Q377 289 346 335T262 397Q235 397 211 394T170 386Q148 363 132 323T115 231Q115 162 147 116T237 54ZM171 535L152 554L192 594L299 701L305 706Q308 706 324 695T357 670L359 650Q359 649 350 642T321 621T267
586T187 536L171 535Z" />
<glyph unicode="&#xf4;" horiz-adv-x="494" d="M234 -12Q181 -12 136 15T63 93T35 209Q35 257 51 302T86 379Q108 398 136 414T195 443T260 462Q314 462 359 434T431 357T459 240Q459 207 451 175T431 115T404 66Q382 49 355 33T297 6T234 -12ZM237 54Q254 54
269 56T298 61T322 67Q337 83 349 105T369 157T377 221Q377 289 346 335T262 397Q235 397 211 394T170 386Q148 363 132 323T115 231Q115 162 147 116T237 54ZM146 527L142 524Q135 524 125 532T114 544Q128 561 150 586T194 639T230 688Q232 690 241 692T259 696T270
698L344 599L381 550Q381 546 372 536T356 524Q342 536 321 553T279 590T247 624L230 595Q221 585 208 574T179 550T146 527Z" />
<glyph unicode="&#xf5;" horiz-adv-x="494" d="M234 -12Q181 -12 136 15T63 93T35 209Q35 257 51 302T86 379Q108 398 136 414T195 443T260 462Q314 462 359 434T431 357T459 240Q459 207 451 175T431 115T404 66Q382 49 355 33T297 6T234 -12ZM237 54Q254 54
269 56T298 61T322 67Q337 83 349 105T369 157T377 221Q377 289 346 335T262 397Q235 397 211 394T170 386Q148 363 132 323T115 231Q115 162 147 116T237 54ZM90 554L71 571Q85 590 102 607T139 640T184 672Q193 673 214 664T259 642Q278 632 295 623T322 609Q342
617 360 632T394 661H404L423 646Q412 632 398 617T367 588T334 563T304 546Q301 546 279 557T230 582Q212 591 196 598T171 608Q162 604 150 595T125 575T102 554H90Z" />
<glyph unicode="&#xf6;" horiz-adv-x="494" d="M234 -12Q181 -12 136 15T63 93T35 209Q35 257 51 302T86 379Q108 398 136 414T195 443T260 462Q314 462 359 434T431 357T459 240Q459 207 451 175T431 115T404 66Q382 49 355 33T297 6T234 -12ZM237 54Q254 54
269 56T298 61T322 67Q337 83 349 105T369 157T377 221Q377 289 346 335T262 397Q235 397 211 394T170 386Q148 363 132 323T115 231Q115 162 147 116T237 54ZM141 557L133 621Q133 626 136 633T140 640Q146 640 158 641T184 644T210 646Q211 646 212 638T214 617T216
596T217 583Q217 579 211 571T202 560Q192 558 177 558T141 557ZM287 568Q283 585 281 601T279 634Q298 643 316 647T354 651Q357 638 358 624T360 598T360 583Q360 582 358 577T352 567T347 562Q342 562 331 562T307 564T287 568Z" />
<glyph unicode="&#xf7;" horiz-adv-x="581" d="M61 217L54 226L61 272Q95 271 133 270T211 269T293 268T373 268T447 269T513 271L527 260L520 214Q491 215 445 215T344 217T235 218T135 219T61 217ZM306 57Q291 62 275 71T244 90L243 101Q251 115 258 128T276
154L293 160Q306 153 322 140T345 116Q340 102 328 85T306 57ZM295 330Q282 338 266 351T243 374Q248 388 260 405T282 433Q297 428 314 420T344 400L345 389Q337 375 330 362T312 336L295 330Z" />
<glyph unicode="&#xf8;" horiz-adv-x="494" d="M95 -90L69 -74Q154 79 232 232T386 539L422 531L424 519Q396 468 369 418T314 316T261 215T209 113T158 12T109 -90H95ZM234 -12Q181 -12 136 15T63 93T35 209Q35 257 51 302T86 379Q108 398 136 414T195 443T260
462Q314 462 359 434T431 357T459 240Q459 207 451 175T431 115T404 66Q382 49 355 33T297 6T234 -12ZM237 54Q254 54 269 56T298 61T322 67Q337 83 349 105T369 157T377 221Q377 289 346 335T262 397Q235 397 211 394T170 386Q148 363 132 323T115 231Q115 162
147 116T237 54Z" />
<glyph unicode="&#xf9;" horiz-adv-x="555" d="M182 -12Q167 -2 149 14T117 52T103 93Q103 111 102 145T99 222T96 308T92 385L20 404Q20 414 21 423T26 442L138 454L181 432L180 400Q178 366 177 330T175 259T174 192T177 131T183 80Q205 70 228 65T267 60Q282
60 298 67T334 86T376 115Q376 162 376 207T374 298T371 391L301 409Q301 420 302 430T306 450L422 454L461 432L458 393Q455 336 453 282T452 175T459 70L529 64Q532 57 533 50T535 35Q509 22 477 9T403 -12L381 20L378 67V74Q359 55 340 37T300 0Q276 -5 248
-8T182 -12ZM349 533L333 535Q297 561 270 581T224 615T192 639T175 654T169 661L172 681Q190 694 207 703T227 713L247 690L339 585L368 552L349 533Z" />
<glyph unicode="&#xfa;" horiz-adv-x="555" d="M182 -12Q167 -2 149 14T117 52T103 93Q103 111 102 145T99 222T96 308T92 385L20 404Q20 414 21 423T26 442L138 454L181 432L180 400Q178 366 177 330T175 259T174 192T177 131T183 80Q205 70 228 65T267 60Q282
60 298 67T334 86T376 115Q376 162 376 207T374 298T371 391L301 409Q301 420 302 430T306 450L422 454L461 432L458 393Q455 336 453 282T452 175T459 70L529 64Q532 57 533 50T535 35Q509 22 477 9T403 -12L381 20L378 67V74Q359 55 340 37T300 0Q276 -5 248
-8T182 -12ZM201 535L182 554L222 594L329 701L335 706Q338 706 354 695T387 670L389 650Q389 649 380 642T351 621T297 586T217 536L201 535Z" />
<glyph unicode="&#xfb;" horiz-adv-x="555" d="M182 -12Q167 -2 149 14T117 52T103 93Q103 111 102 145T99 222T96 308T92 385L20 404Q20 414 21 423T26 442L138 454L181 432L180 400Q178 366 177 330T175 259T174 192T177 131T183 80Q205 70 228 65T267 60Q282
60 298 67T334 86T376 115Q376 162 376 207T374 298T371 391L301 409Q301 420 302 430T306 450L422 454L461 432L458 393Q455 336 453 282T452 175T459 70L529 64Q532 57 533 50T535 35Q509 22 477 9T403 -12L381 20L378 67V74Q359 55 340 37T300 0Q276 -5 248
-8T182 -12ZM176 527L172 524Q165 524 155 532T144 544Q158 561 180 586T224 639T260 688Q262 690 271 692T289 696T300 698L374 599L411 550Q411 546 402 536T386 524Q372 536 351 553T309 590T277 624L260 595Q251 585 238 574T209 550T176 527Z" />
<glyph unicode="&#xfc;" horiz-adv-x="555" d="M182 -12Q167 -2 149 14T117 52T103 93Q103 111 102 145T99 222T96 308T92 385L20 404Q20 414 21 423T26 442L138 454L181 432L180 400Q178 366 177 330T175 259T174 192T177 131T183 80Q205 70 228 65T267 60Q282
60 298 67T334 86T376 115Q376 162 376 207T374 298T371 391L301 409Q301 420 302 430T306 450L422 454L461 432L458 393Q455 336 453 282T452 175T459 70L529 64Q532 57 533 50T535 35Q509 22 477 9T403 -12L381 20L378 67V74Q359 55 340 37T300 0Q276 -5 248
-8T182 -12ZM171 557L163 621Q163 626 166 633T170 640Q176 640 188 641T214 644T240 646Q241 646 242 638T244 617T246 596T247 583Q247 579 241 571T232 560Q222 558 207 558T171 557ZM317 568Q313 585 311 601T309 634Q328 643 346 647T384 651Q387 638 388
624T390 598T390 583Q390 582 388 577T382 567T377 562Q372 562 361 562T337 564T317 568Z" />
<glyph unicode="&#xfd;" horiz-adv-x="494" d="M61 -205L45 -149L50 -142Q62 -142 79 -141T116 -137T149 -130Q166 -115 180 -95T206 -49T230 7L209 22L66 385L5 408Q6 416 7 425T13 442L123 454L159 416L252 97L261 90Q278 136 293 183T321 272T342 346T354 394L273
416Q272 424 273 433T276 450Q326 450 375 451T474 454Q477 445 478 436T479 418L427 386Q409 337 389 280T347 164T307 54Q282 -15 255 -76T206 -176Q188 -189 166 -197T122 -212Q111 -212 92 -211T61 -205ZM164 535L145 554L185 594L292 701L298 706Q301 706
317 695T350 670L352 650Q352 649 343 642T314 621T260 586T180 536L164 535Z" />
<glyph unicode="&#xfe;" horiz-adv-x="531" d="M28 -218Q25 -209 24 -200T23 -182L95 -149Q99 -104 102 -59T107 33T111 128T113 225T114 324Q114 359 114 396T113 468T111 536T108 593T104 633L20 649Q20 659 21 668T26 687L154 712L199 682Q196 616 193 527T187
349V315L194 312Q208 347 226 381T268 450Q288 455 308 457T348 461T388 462Q400 457 418 447T454 414T484 352T496 249Q496 191 482 150T440 76T372 8Q353 -2 329 -7T281 -12Q262 -12 237 -10T186 0V-157L284 -176Q284 -183 284 -192T281 -210Q271 -210 246 -210T189
-212T124 -214T66 -216T28 -218ZM324 46Q324 46 336 50T364 62T396 83Q396 83 403 114T410 188Q410 221 407 252T397 311T380 363Q369 373 356 380T329 393T298 402Q285 392 264 363T221 300T186 237V78Q186 78 224 65T324 46Z" />
<glyph unicode="&#xff;" horiz-adv-x="494" d="M61 -205L45 -149L50 -142Q62 -142 79 -141T116 -137T149 -130Q166 -115 180 -95T206 -49T230 7L209 22L66 385L5 408Q6 416 7 425T13 442L123 454L159 416L252 97L261 90Q278 136 293 183T321 272T342 346T354 394L273
416Q272 424 273 433T276 450Q326 450 375 451T474 454Q477 445 478 436T479 418L427 386Q409 337 389 280T347 164T307 54Q282 -15 255 -76T206 -176Q188 -189 166 -197T122 -212Q111 -212 92 -211T61 -205ZM134 557L126 621Q126 626 129 633T133 640Q139 640
151 641T177 644T203 646Q204 646 205 638T207 617T209 596T210 583Q210 579 204 571T195 560Q185 558 170 558T134 557ZM280 568Q276 585 274 601T272 634Q291 643 309 647T347 651Q350 638 351 624T353 598T353 583Q353 582 351 577T345 567T340 562Q335 562
324 562T300 564T280 568Z" />
<glyph unicode="&#x2013;" horiz-adv-x="523" d="M35 215L28 224L33 275Q74 275 115 275T198 277T279 279T355 281T425 285T485 289L499 278L494 226Q446 226 400 226T309 226T220 224T129 220T35 215Z" />
<glyph unicode="&#x2014;" horiz-adv-x="973" d="M35 215L28 224L33 275Q68 275 128 275T264 276T422 278T585 280T737 282T859 285T935 289L949 278L944 226Q910 226 852 226T722 226T569 226T409 224T257 222T127 219T35 215Z" />
<glyph unicode="&#x2018;" horiz-adv-x="178" d="M144 697Q148 697 152 695T160 690T167 683V673Q162 666 151 652T128 618T109 576L140 528V514Q131 505 110 494T68 481L66 483Q53 500 43 519T33 545Q38 566 49 586T75 626T108 664T144 697Z" />
<glyph unicode="&#x2019;" horiz-adv-x="178" d="M34 489Q31 489 27 491T18 497T11 503V513Q16 520 27 534T50 568T69 610L38 658V672Q47 681 68 692T110 705L112 703Q126 686 135 667T145 641Q140 620 129 600T103 560T70 522T34 489Z" />
<glyph unicode="&#x201a;" horiz-adv-x="232" d="M66 -119Q63 -119 59 -117T50 -111T43 -105V-95Q48 -88 59 -74T82 -40T101 2L70 50V64Q79 73 101 85T144 97Q157 80 167 60T177 33Q172 12 161 -8T135 -48T102 -86T66 -119Z" />
<glyph unicode="&#x201c;" horiz-adv-x="312" d="M116 701Q119 702 123 700T133 696T141 691L142 681Q139 674 131 658T114 620T102 576L141 534L143 520Q136 510 117 495T78 476H75Q59 491 47 509T33 533Q34 554 41 575T59 619T85 662T116 701ZM274 701Q277 702
281 700T291 696T299 691L300 681Q297 674 289 658T272 620T260 576L299 534L301 520Q294 510 275 495T236 476H233Q217 491 205 509T191 533Q192 554 199 575T217 619T243 662T274 701Z" />
<glyph unicode="&#x201d;" horiz-adv-x="311" d="M196 478Q193 478 188 479T178 483T170 488L169 498Q173 506 181 522T197 560T209 604L170 646L168 659Q175 670 194 685T233 704L235 703Q252 688 264 671T278 647Q277 626 270 604T252 560T226 517T196 478ZM39
479Q36 479 31 480T21 484T13 489L12 499Q16 507 24 523T40 561T52 605L13 647L11 660Q18 671 37 686T76 705L78 704Q95 689 107 672T121 648Q120 627 113 605T95 561T69 518T39 479Z" />
<glyph unicode="&#x201e;" horiz-adv-x="392" d="M66 -119Q63 -119 59 -117T50 -111T43 -105V-95Q48 -88 59 -74T82 -40T101 2L70 50V64Q79 73 101 85T144 97Q157 80 167 60T177 33Q172 12 161 -8T135 -48T102 -86T66 -119ZM226 -119Q223 -119 219 -117T210 -111T203
-105V-95Q208 -88 219 -74T242 -40T261 2L230 50V64Q239 73 261 85T304 97Q317 80 327 60T337 33Q332 12 321 -8T295 -48T262 -86T226 -119Z" />
<glyph unicode="&#x2022;" horiz-adv-x="328" d="M148 145Q131 159 112 179T76 221T52 260Q63 278 81 299T119 341T154 374L183 356Q207 340 231 321T276 279L274 257Q254 230 234 205T187 154L148 145Z" />
<glyph unicode="&#x2039;" horiz-adv-x="239" d="M193 28Q166 55 125 95T16 200L11 225Q51 258 94 303T186 405L215 388L216 380Q199 350 181 322T144 269T105 219L216 53L215 44Q211 40 205 36T193 28Z" />
<glyph unicode="&#x203a;" horiz-adv-x="247" d="M41 28L12 45L11 53Q37 98 64 138T122 214L11 380L12 389Q17 394 22 398T34 405Q61 378 102 338T211 233L216 208Q176 175 134 130T41 28Z" />
</font>
</defs>
</svg>
