<?xml version="1.0" standalone="no"?>
<!DOCTYPE svg PUBLIC "-//W3C//DTD SVG 1.1//EN" "http://www.w3.org/Graphics/SVG/1.1/DTD/svg11.dtd">
<svg xmlns="http://www.w3.org/2000/svg">
<defs >
<font id="Besley" horiz-adv-x="1203" ><font-face
    font-family="Besley"
    units-per-em="2000"
    panose-1="0 0 0 0 0 0 0 0 0 0"
    ascent="2500"
    descent="-850"
    alphabetic="0" />
<glyph unicode=" " horiz-adv-x="600" />
<glyph unicode="!" horiz-adv-x="638" d="M200 98Q200 65 216 38T258 -4T318 -20Q351 -20 378 -5T420 38T436 98Q436 131 421 158T378 200T318 216Q285 216 259 201T216 158T200 98ZM436 1318Q436 1329 437 1338T438 1356Q438 1402 428 1438T391 1495T318 1516Q271
1516 246 1495T210 1438T200 1356Q200 1347 200 1338T200 1318Q208 1189 221 1076T247 859T269 651T280 440Q280 427 283 422T301 416H332Q350 416 353 422T356 445Q357 531 363 613T379 778T400 946T420 1124T436 1318Z" />
<glyph unicode="&quot;" horiz-adv-x="750" d="M648 1358Q650 1369 650 1377T650 1394Q650 1453 622 1484T550 1516Q507 1516 479 1485T450 1394Q450 1385 450 1377T452 1358Q463 1288 476 1228T499 1111T512 999Q513 987 517 982T534 976H564Q577 976 582 979T588
994Q590 1051 600 1107T624 1225T648 1358ZM298 1358Q300 1369 300 1377T300 1394Q300 1453 272 1484T200 1516Q157 1516 129 1485T100 1394Q100 1385 100 1377T102 1358Q113 1288 126 1228T149 1111T162 999Q163 987 167 982T184 976H214Q227 976 232 979T238
994Q240 1051 250 1107T274 1225T298 1358Z" />
<glyph unicode="#" horiz-adv-x="1320" d="M486 1610Q466 1610 463 1607T457 1585L402 1114Q400 1092 393 1086T356 1080H64Q47 1080 44 1072T40 1047V1009Q40 986 45 978T72 970H359Q380 970 382 966T383 943L342 598Q339 576 337 568T308 560H11Q-7 560 -13
556T-20 535V480Q-20 463 -16 457T4 450H289Q315 450 319 443T321 414L263 -83Q261 -99 262 -104T282 -110H345Q365 -110 368 -107T373 -86L432 423Q434 445 440 447T471 450H746Q773 450 778 445T782 420L724 -79Q722 -101 725 -105T753 -110H802Q823 -110 827
-107T833 -84L892 425Q894 443 898 446T922 450H1239Q1262 450 1271 455T1280 485V531Q1280 548 1276 554T1255 560H945Q918 560 914 567T912 597L953 945Q955 964 959 967T985 970H1314Q1328 970 1334 975T1340 996V1053Q1340 1068 1336 1074T1317 1080H1013Q979
1080 974 1085T973 1120L1026 1579Q1028 1601 1026 1605T998 1610H946Q924 1610 922 1605T917 1581L863 1119Q860 1091 855 1086T817 1080H550Q519 1080 515 1087T513 1121L567 1584Q569 1600 566 1605T546 1610H486ZM801 970Q829 970 837 965T841 927L802 593Q800
574 793 567T756 560H488Q463 560 456 565T452 596L491 931Q494 954 502 962T544 970H801Z" />
<glyph unicode="$" horiz-adv-x="1320" d="M660 1670L650 1520Q526 1520 414 1477T231 1344T160 1110Q160 1002 197 931T296 817T437 747T597 701L557 88Q452 100 389 131T298 199T270 260Q270 283 286 298T318 332T334 388Q334 444 298 474T220 504Q191 504 162
491T112 449T92 372Q92 274 144 192T298 55T550 -15L540 -170H650L660 -20Q796 -20 900 11T1076 100T1183 241T1220 430Q1220 561 1176 643T1059 773T898 849T720 896L753 1412Q872 1396 921 1352T970 1270Q970 1247 954 1232T922 1198T906 1142Q906 1105 923 1079T967
1040T1020 1026Q1064 1026 1106 1056T1148 1158Q1148 1276 1094 1349T952 1462T760 1513L770 1670H660ZM1040 380Q1040 312 1002 244T882 130T666 82L705 675Q795 653 871 621T993 533T1040 380ZM340 1170Q340 1271 416 1342T644 1418L611 922Q536 942 475 970T377
1045T340 1170Z" />
<glyph unicode="%" horiz-adv-x="2000" d="M70 1080Q70 937 123 839T266 691T470 640Q563 640 655 690T808 839T870 1080Q870 1223 817 1321T674 1469T470 1520Q357 1520 267 1470T123 1321T70 1080ZM290 1080Q290 1182 304 1258T357 1377T470 1420Q544 1420 583
1378T636 1259T650 1080Q650 978 636 902T583 783T470 740Q396 740 357 782T304 901T290 1080ZM1430 1500Q1413 1500 1404 1495T1388 1478L495 41Q487 28 486 14T514 0H567Q593 0 604 6T625 28L1506 1468Q1517 1485 1515 1492T1487 1500H1430ZM1130 420Q1130 277
1183 179T1326 31T1530 -20Q1623 -20 1715 30T1869 179T1930 420Q1930 563 1877 661T1734 809T1530 860Q1417 860 1327 810T1183 661T1130 420ZM1350 420Q1350 522 1364 598T1417 717T1530 760Q1604 760 1643 718T1696 599T1710 420Q1710 318 1696 242T1643 123T1530
80Q1456 80 1417 122T1364 241T1350 420Z" />
<glyph unicode="&amp;" horiz-adv-x="1740" d="M1117 920Q1099 920 1095 914T1090 888V853Q1090 826 1096 818T1128 810H1242Q1265 810 1272 806T1276 781Q1242 580 1111 401Q1088 370 1081 373T1053 408L781 839Q766 862 765 871T789 892Q881 931 959 979T1084
1097T1132 1270Q1132 1350 1084 1406T951 1491T760 1520Q644 1520 553 1484T410 1382T358 1226Q358 1174 385 1107T450 980L486 923Q500 901 505 893T483 873Q400 841 321 803T179 712T79 583T42 400Q42 257 111 164T293 26T540 -20Q657 -20 762 12T957 102Q980
117 987 119T1010 97L1052 31Q1065 11 1075 6T1120 0H1512Q1532 0 1536 7T1540 35V75Q1540 96 1535 103T1510 110H1275Q1251 110 1244 114T1228 132L1161 238Q1145 264 1152 268T1176 293Q1262 399 1313 525T1387 787Q1389 803 1392 806T1414 810H1546Q1564 810
1567 813T1570 834V892Q1570 909 1563 914T1540 920H1117ZM529 783Q555 796 562 794T585 769L912 253Q926 231 927 224T905 202Q838 159 764 135T610 110Q516 110 437 146T310 255T262 440Q262 573 339 651T529 783ZM944 1280Q944 1165 883 1095T727 976Q711 968
706 967T690 980Q629 1078 592 1153T554 1280Q554 1360 613 1400T758 1440Q813 1440 855 1420T920 1363T944 1280Z" />
<glyph unicode="&apos;" horiz-adv-x="400" d="M298 1358Q300 1369 300 1377T300 1394Q300 1453 272 1484T200 1516Q157 1516 129 1485T100 1394Q100 1385 100 1377T102 1358Q113 1288 126 1228T149 1111T162 999Q163 987 167 982T184 976H214Q227 976 232 979T238
994Q240 1051 250 1107T274 1225T298 1358Z" />
<glyph unicode="(" horiz-adv-x="890" d="M823 -276Q828 -253 827 -246T804 -232Q557 -150 449 80T340 650Q340 987 447 1198T798 1490Q820 1498 824 1501T824 1530L815 1569Q810 1595 795 1594T757 1587Q602 1545 482 1464T279 1266T153 994T110 650Q110 457
155 295T286 6T498 -207T785 -334Q802 -338 806 -337T814 -318L823 -276Z" />
<glyph unicode=")" horiz-adv-x="890" d="M67 1536Q63 1513 63 1507T86 1492Q333 1410 441 1180T550 610Q550 273 443 62T92 -230Q70 -237 66 -241T66 -270L75 -309Q80 -335 95 -334T133 -327Q288 -285 408 -204T611 -6T737 266T780 610Q780 804 735 966T604 1255T392
1468T105 1594Q88 1599 84 1598T76 1578L67 1536Z" />
<glyph unicode="*" horiz-adv-x="1270" d="M165 772Q187 735 228 727T321 747Q358 768 390 794T453 847T511 901T566 950Q581 962 586 964T586 939Q580 904 571 867T553 790T538 709T532 622Q532 564 560 532T632 500Q676 500 704 532T732 622Q732 666 726 707T712
787T694 862T679 933Q675 961 678 961T698 947Q725 925 753 898T812 844T875 790T945 742Q996 713 1037 722T1101 768Q1123 806 1110 846T1045 915Q1010 935 972 950T895 978T819 1002T748 1026Q722 1036 726 1039T754 1051Q787 1063 824 1074T899 1097T975 1125T1047
1160Q1098 1189 1111 1230T1103 1308Q1081 1346 1040 1354T947 1333Q911 1312 880 1288T819 1237T763 1185T709 1136Q694 1123 686 1117T682 1142Q688 1177 697 1214T715 1290T730 1372T736 1458Q736 1517 708 1548T636 1580Q593 1580 565 1549T536 1458Q536 1413
542 1372T557 1291T575 1214T590 1142Q595 1117 590 1119T570 1133Q543 1156 515 1182T456 1236T393 1290T323 1338Q272 1367 231 1359T167 1312Q145 1275 158 1235T223 1165Q259 1144 298 1129T377 1101T455 1077T526 1052Q546 1045 545 1042T524 1032Q491 1019
453 1008T375 984T296 956T221 920Q170 891 157 851T165 772Z" />
<glyph unicode="+" horiz-adv-x="1060" d="M620 836Q597 836 591 843T584 874V1161Q584 1177 581 1183T562 1190H505Q486 1190 481 1184T476 1160V870Q476 848 469 842T442 836H150Q134 836 127 831T120 809V755Q120 737 125 732T149 726H440Q466 726 471 719T476
685V390Q476 375 481 373T501 370H559Q573 370 578 373T584 389V692Q584 715 592 720T624 726H922Q935 726 937 732T940 751V808Q940 826 932 831T906 836H620Z" />
<glyph unicode="," horiz-adv-x="508" d="M119 98Q119 49 147 15T225 -20Q241 -20 252 -18T276 -8Q284 -3 290 0T298 -9Q304 -66 283 -114T224 -192T140 -230Q129 -231 122 -235T115 -253V-296Q115 -309 121 -310T138 -311Q200 -305 247 -274T327 -196T376 -96T393
8Q393 118 353 167T253 216Q215 216 185 201T137 158T119 98Z" />
<glyph unicode="-" horiz-adv-x="920" d="M148 830Q132 830 126 825T120 802V750Q120 731 123 726T146 720H772Q792 720 796 727T800 753V802Q800 820 796 825T774 830H148Z" />
<glyph unicode="." horiz-adv-x="470" d="M115 100Q115 67 131 40T175 -4T235 -20Q268 -20 295 -4T339 39T355 100Q355 133 339 160T296 203T235 220Q202 220 175 204T132 160T115 100Z" />
<glyph unicode="/" horiz-adv-x="1040" d="M874 1560Q844 1560 835 1553T818 1526L97 -258Q88 -281 94 -290T137 -300H169Q200 -300 211 -295T231 -268L948 1530Q956 1549 952 1554T919 1560H874Z" />
<glyph unicode="0" horiz-adv-x="1180" d="M80 750Q80 538 124 391T243 153T407 21T590 -20Q675 -20 764 21T930 152T1053 390T1100 750Q1100 962 1059 1109T945 1347T782 1479T590 1520Q498 1520 408 1479T243 1348T125 1110T80 750ZM300 750Q300 992 337 1139T440
1353T590 1420Q684 1420 748 1354T846 1140T880 750Q880 508 847 361T749 147T590 80Q506 80 441 146T338 360T300 750Z" />
<glyph unicode="1" horiz-adv-x="1050" d="M100 38Q100 15 106 8T134 0H916Q939 0 944 8T950 40V80Q950 102 938 106T906 110H684Q648 110 639 118T630 162V1554Q630 1573 621 1576T592 1580H564Q539 1580 535 1567T522 1538Q479 1442 437 1398T334 1343T176 1330Q148
1330 141 1321T134 1284V1254Q134 1230 145 1225T178 1220H402Q428 1220 434 1210T440 1173V152Q440 127 433 119T398 110H140Q118 110 109 106T100 80V38Z" />
<glyph unicode="2" horiz-adv-x="1140" d="M1070 325Q1069 343 1065 348T1044 354H1003Q984 354 981 349T975 327Q970 258 930 220T802 181Q726 181 668 203T553 247T420 269Q360 269 313 248T230 191Q210 170 205 152T186 134Q178 134 181 143T192 169T207 204Q247
305 333 402T564 580Q670 640 760 701T916 830T1019 973T1056 1140Q1056 1335 926 1427T584 1520Q437 1520 332 1469T169 1336T112 1162Q112 1114 133 1085T185 1043T245 1030Q286 1030 325 1060T364 1146Q364 1181 350 1202T317 1237T284 1264T270 1294Q270 1321
308 1354T410 1412T554 1436Q688 1436 761 1370T834 1170Q834 1085 806 1015T730 887T626 784T514 698Q305 552 196 395T80 29Q80 15 83 8T103 0H151Q171 0 178 8T190 30Q205 62 230 81T300 100Q355 100 408 82T519 40T643 -2T790 -20Q877 -20 942 11T1043 118T1070
325Z" />
<glyph unicode="3" horiz-adv-x="1060" d="M50 298Q50 216 99 144T249 26T502 -20Q615 -20 704 11T854 97T948 225T980 380Q980 496 928 593T726 743Q695 754 671 756T646 770Q646 787 661 787T732 814Q819 855 863 915T924 1044T940 1182Q940 1302 878 1376T719
1485T522 1520Q380 1520 289 1475T154 1358T110 1204Q110 1156 130 1127T179 1085T238 1072Q279 1072 315 1102T352 1188Q352 1215 343 1232T320 1261T298 1286T288 1316Q288 1357 337 1396T482 1436Q616 1436 677 1365T738 1182Q738 1139 732 1084T700 975T622
881T474 826Q452 823 431 824T397 818T384 780V762Q384 733 397 725T430 718T474 717Q603 701 668 646T756 519T778 380Q778 306 750 233T656 112T482 64Q398 64 342 83T257 130T228 186Q228 203 237 215T260 240T282 270T292 314Q292 370 256 400T178 430Q135
430 93 400T50 298Z" />
<glyph unicode="4" horiz-adv-x="1080" d="M1030 84Q1030 103 1022 106T995 110H918Q894 110 887 116T880 146V421Q880 443 886 451T915 460H1024Q1045 460 1052 465T1060 490V535Q1060 556 1055 563T1029 570H922Q894 570 887 578T880 614V939Q880 957 877 963T854
970H848Q829 970 827 961T820 938Q798 871 774 832T715 765Q702 755 696 750T690 720V595Q690 580 689 575T672 570H280Q252 570 239 575T225 592T234 618Q281 695 359 765T528 906T702 1058T846 1237T922 1459Q926 1487 918 1493T878 1500H769Q738 1500 736 1485T728
1447Q697 1328 635 1233T495 1057T335 898T185 737T74 555Q66 535 65 526T77 503L103 477Q114 467 123 464T154 460H657Q680 460 685 453T690 422V135Q690 120 684 115T662 110H530Q511 110 506 104T500 77V32Q500 12 506 6T532 0H999Q1017 0 1023 4T1030 26V84Z"
/>
<glyph unicode="5" horiz-adv-x="1030" d="M60 278Q60 196 107 129T242 21T452 -20Q593 -20 711 47T899 232T970 500Q970 640 919 753T762 933T496 1000Q415 1000 360 982T266 934Q239 913 230 900T211 890Q205 893 210 911T219 966L261 1288Q264 1309 274 1314T306
1320H350Q528 1320 631 1325T787 1348T861 1402T896 1500L908 1550Q912 1564 894 1564H837Q818 1564 812 1554T798 1536Q768 1503 736 1497T644 1495T474 1500H228Q203 1500 195 1493T183 1462L100 818Q97 796 100 785T131 774H173Q202 774 212 781T234 803Q281
860 334 881T472 902Q561 902 627 848T731 694T768 460Q768 356 726 266T607 120T432 64Q351 64 295 95T238 166Q238 189 254 204T286 238T302 294Q302 350 266 380T188 410Q145 410 103 380T60 278Z" />
<glyph unicode="6" horiz-adv-x="1100" d="M746 1382Q746 1369 734 1356T710 1323T698 1266Q698 1211 735 1181T812 1150Q856 1150 898 1180T940 1282Q940 1364 896 1416T781 1494T628 1520Q467 1520 349 1425T165 1155T100 740Q100 526 129 380T218 146T367 19T578
-20Q684 -20 769 11T914 105T1007 258T1040 470Q1040 635 985 743T836 906T632 960Q533 960 458 928T333 839Q320 825 315 816T304 810Q299 813 300 824T303 860Q311 1032 346 1161T451 1363T638 1436Q697 1436 721 1419T746 1382ZM840 470Q840 361 817 270T740
125T598 70Q450 70 375 203T300 560Q300 640 337 709T440 820T588 862Q707 862 773 752T840 470Z" />
<glyph unicode="7" horiz-adv-x="1048" d="M80 1162Q80 1151 85 1149T102 1146H158Q169 1146 171 1150T174 1166Q177 1252 217 1293T348 1334Q405 1334 443 1324T516 1300T598 1277T720 1266Q747 1266 770 1268T812 1277Q828 1282 837 1291T850 1296Q854 1292
848 1281T833 1254Q778 1136 702 1003T558 762Q492 658 452 562T393 373T374 192Q374 89 411 35T506 -20Q550 -20 578 -2T620 48T634 116Q634 151 624 177T601 230T578 293T568 384Q568 428 576 473T607 580T676 736Q724 834 781 939T890 1146T980 1332T1026 1473Q1028
1489 1028 1494T1010 1500H941Q927 1500 924 1497T916 1483Q901 1446 874 1423T790 1400Q728 1400 680 1418T586 1460T487 1502T360 1520Q273 1520 211 1488T116 1379T80 1162Z" />
<glyph unicode="8" horiz-adv-x="1060" d="M270 420Q270 504 298 584T383 717T530 770Q619 770 676 718T762 585T790 420Q790 336 762 256T677 123T530 70Q441 70 384 122T298 255T270 420ZM120 1140Q120 1028 175 951T324 833Q347 823 359 819T372 808Q372 801
356 796T326 784Q207 738 139 645T70 420Q70 300 126 200T285 40T530 -20Q671 -20 774 40T934 200T990 420Q990 554 919 651T726 794Q709 800 702 803T695 811Q695 816 704 818T728 827Q826 867 883 946T940 1140Q940 1250 888 1336T744 1471T530 1520Q409 1520
317 1471T172 1336T120 1140ZM320 1140Q320 1214 344 1280T414 1388T530 1430Q599 1430 645 1389T716 1281T740 1140Q740 1066 716 1000T646 892T530 850Q461 850 415 891T344 999T320 1140Z" />
<glyph unicode="9" horiz-adv-x="1100" d="M354 118Q354 131 366 144T390 177T402 234Q402 290 365 320T288 350Q244 350 202 320T160 218Q160 136 204 84T319 6T472 -20Q633 -20 751 75T935 345T1000 760Q1000 974 971 1120T882 1354T733 1481T522 1520Q416 1520
331 1489T186 1395T93 1242T60 1030Q60 865 115 757T264 594T468 540Q567 540 642 573T767 661Q780 675 785 684T796 690Q801 687 800 676T797 640Q789 469 754 339T649 137T462 64Q403 64 379 81T354 118ZM260 1030Q260 1139 283 1230T360 1375T502 1430Q651 1430
725 1297T800 940Q800 860 763 791T660 680T512 638Q393 638 327 748T260 1030Z" />
<glyph unicode=":" horiz-adv-x="470" d="M115 940Q115 907 131 880T175 836T235 820Q268 820 295 836T339 879T355 940Q355 973 339 1000T296 1043T235 1060Q202 1060 175 1044T132 1000T115 940ZM115 100Q115 67 131 40T175 -4T235 -20Q268 -20 295 -4T339 39T355
100Q355 133 339 160T296 203T235 220Q202 220 175 204T132 160T115 100Z" />
<glyph unicode=";" horiz-adv-x="508" d="M115 940Q115 907 131 880T175 836T235 820Q268 820 295 836T339 879T355 940Q355 973 339 1000T296 1043T235 1060Q202 1060 175 1044T132 1000T115 940ZM119 98Q119 49 147 15T225 -20Q241 -20 252 -18T276 -8Q284 -3
290 0T298 -9Q304 -66 283 -114T224 -192T140 -230Q129 -231 122 -235T115 -253V-296Q115 -309 121 -310T138 -311Q200 -305 247 -274T327 -196T376 -96T393 8Q393 118 353 167T253 216Q215 216 185 201T137 158T119 98Z" />
<glyph unicode="&lt;" horiz-adv-x="1120" d="M296 752Q271 762 261 765T250 776Q250 784 262 787T298 799L964 1056Q983 1064 991 1074T1000 1113V1159Q1000 1185 993 1190T966 1187L154 873Q132 865 126 859T120 820V740Q120 709 125 698T152 678L956 367Q976
360 988 360T1000 395V437Q1000 467 992 477T962 495L296 752Z" />
<glyph unicode="=" horiz-adv-x="1120" d="M157 980Q136 980 128 975T120 952V900Q120 881 125 876T154 870H964Q989 870 994 877T1000 903V952Q1000 970 995 975T967 980H157ZM157 680Q136 680 128 675T120 652V600Q120 581 125 576T154 570H964Q989 570 994
577T1000 603V652Q1000 670 995 675T967 680H157Z" />
<glyph unicode="&gt;" horiz-adv-x="1120" d="M824 798Q849 788 859 785T870 774Q870 766 858 763T822 751L156 494Q137 487 129 476T120 437V391Q120 366 127 361T154 363L966 677Q988 685 994 692T1000 730V810Q1000 841 995 852T968 872L164 1183Q144 1191
132 1190T120 1155V1113Q120 1083 128 1073T158 1055L824 798Z" />
<glyph unicode="?" horiz-adv-x="1100" d="M298 1324Q298 1357 347 1396T522 1436Q621 1436 682 1393T770 1282T798 1140Q798 995 709 880T473 711Q451 703 443 693T434 651V455Q434 429 443 424T478 418H515Q538 418 546 423T554 451V587Q554 619 565 626T601
640Q724 672 813 742T951 907T1000 1100Q1000 1230 948 1324T789 1469T522 1520Q380 1520 284 1470T139 1342T90 1182Q90 1134 109 1103T158 1056T224 1040Q259 1040 290 1052T340 1091T360 1160Q360 1198 351 1220T329 1257T308 1287T298 1324ZM413 100Q413 67
429 40T473 -4T533 -20Q566 -20 593 -4T637 39T653 100Q653 133 637 160T594 203T533 220Q500 220 473 204T430 160T413 100Z" />
<glyph unicode="@" horiz-adv-x="2120" d="M1328 692Q1328 596 1299 515T1224 372T1126 278T1028 244Q932 244 901 312T870 480Q870 573 895 658T963 811T1059 917T1168 956Q1218 956 1249 928T1297 856T1321 768T1328 692ZM1640 -161Q1658 -142 1663 -134T1649
-107L1620 -78Q1596 -54 1588 -58T1557 -86Q1471 -170 1377 -221T1186 -295T990 -318Q882 -318 768 -281T557 -155T400 85T340 462Q340 666 405 848T589 1172T864 1393T1204 1474Q1342 1474 1465 1427T1682 1295T1830 1097T1884 850Q1884 735 1857 630T1781 442T1667
312T1526 264Q1491 264 1475 284T1456 332T1456 385T1460 420L1591 986Q1599 1017 1592 1028T1550 1040H1459Q1437 1040 1429 1034T1417 1010L1393 905Q1382 857 1377 860T1351 912Q1321 981 1267 1019T1136 1058Q1065 1058 997 1025T869 934T764 800T694 637T668
460Q668 356 710 285T820 177T968 140Q1035 140 1101 174T1223 271Q1260 312 1267 306T1289 267Q1314 215 1358 178T1482 140Q1610 140 1708 203T1874 371T1975 598T2010 842Q2010 979 1956 1110T1795 1348T1532 1517T1170 1580Q1006 1580 853 1526T568 1372T339
1131T185 816T130 442Q130 242 185 96T331 -152T530 -313T745 -401T938 -428Q1168 -428 1342 -360T1640 -161Z" />
<glyph unicode="A" horiz-adv-x="1720" d="M816 1262Q827 1288 832 1287T848 1256L1096 596Q1108 564 1106 557T1058 550H552Q525 550 521 555T524 578L816 1262ZM0 42Q0 12 11 6T50 0H528Q552 0 556 4T560 32V80Q560 99 553 104T528 110H377Q344 110 340 122T346
158L449 400Q459 423 470 431T516 440H1096Q1144 440 1153 430T1175 386L1265 146Q1270 132 1271 121T1248 110H1096Q1077 110 1069 105T1060 78V32Q1060 10 1069 5T1098 0H1688Q1711 0 1715 6T1720 35V79Q1720 99 1716 104T1692 110H1534Q1500 110 1494 120T1478
154L935 1518Q932 1526 927 1528T909 1530H829Q819 1530 815 1529T808 1520L215 150Q206 129 196 120T154 110H28Q12 110 6 105T0 84V42Z" />
<glyph unicode="B" horiz-adv-x="1495" d="M875 110H531Q505 110 495 116T485 148V666Q485 700 493 710T534 720H875Q961 720 1034 686T1151 586T1195 420Q1195 321 1151 252T1034 147T875 110ZM534 830Q504 830 495 835T485 870V1345Q485 1370 490 1380T520 1390H855Q931
1390 999 1362T1111 1271T1155 1110Q1155 1011 1112 950T1000 859T855 830H534ZM895 0Q1056 0 1172 42T1352 177T1415 420Q1415 563 1339 646T1126 766Q1108 771 1107 779T1128 793Q1240 825 1297 902T1355 1110Q1355 1240 1293 1326T1119 1456T855 1500H108Q89
1500 82 1494T75 1468V1426Q75 1401 83 1396T116 1390H250Q278 1390 286 1385T295 1352V140Q295 120 286 115T255 110H112Q91 110 83 105T75 76V32Q75 9 84 5T116 0H895Z" />
<glyph unicode="C" horiz-adv-x="1620" d="M110 750Q110 583 163 442T315 198T546 37T840 -20Q1041 -20 1186 58T1414 271T1509 576Q1510 586 1505 588T1488 590H1418Q1408 590 1404 587T1398 574Q1385 455 1319 346T1137 167T860 98Q686 98 571 185T398 420T340
750Q340 932 402 1080T585 1316T880 1404Q1017 1404 1122 1348T1293 1204T1376 1019Q1379 1003 1380 997T1400 990H1461Q1478 990 1484 995T1490 1016V1491Q1490 1503 1487 1506T1470 1510H1416Q1402 1510 1400 1507T1395 1492L1353 1349Q1345 1321 1337 1319T1314
1333Q1238 1413 1127 1466T870 1520Q718 1520 581 1463T338 1303T171 1058T110 750Z" />
<glyph unicode="D" horiz-adv-x="1645" d="M75 34Q75 13 81 7T110 0H815Q975 0 1107 56T1335 215T1483 453T1535 750Q1535 910 1486 1046T1343 1285T1116 1443T815 1500H130Q107 1500 91 1495T75 1471V1426Q75 1400 88 1395T132 1390H260Q286 1390 290 1381T295
1346V150Q295 127 291 119T264 110H110Q87 110 81 103T75 72V34ZM526 110Q501 110 493 115T485 144V1346Q485 1375 492 1382T528 1390H815Q989 1390 1097 1306T1255 1077T1305 750Q1305 568 1259 423T1106 194T815 110H526Z" />
<glyph unicode="E" horiz-adv-x="1515" d="M246 1390Q277 1390 286 1385T295 1348V166Q295 129 287 120T241 110H111Q91 110 83 106T75 82V36Q75 12 84 6T115 0H1353Q1373 0 1379 6T1385 34V480Q1385 500 1376 505T1347 510H1309Q1296 510 1291 504T1285 478Q1283
334 1253 254T1150 142T945 110H529Q500 110 493 118T485 154V692Q485 719 491 727T523 736H655Q735 736 785 709T862 636T893 530Q895 507 903 502T920 496H953Q975 496 980 504T985 536V1016Q985 1033 978 1039T954 1046H921Q906 1046 901 1040T894 1014Q887
926 831 871T655 816H519Q495 816 490 827T485 860V1346Q485 1375 493 1382T529 1390H965Q1077 1390 1141 1361T1233 1261T1265 1068Q1266 1049 1270 1040T1297 1030H1337Q1363 1030 1364 1038T1365 1070V1452Q1365 1487 1356 1493T1311 1500H109Q87 1500 81 1493T75
1462V1432Q75 1409 80 1400T111 1390H246Z" />
<glyph unicode="F" horiz-adv-x="1445" d="M266 1390Q286 1390 290 1385T295 1360V140Q295 123 290 117T268 110H102Q89 110 82 108T75 92V20Q75 5 80 3T100 0H692Q710 0 717 5T725 30V90Q725 104 718 107T697 110H523Q498 110 492 118T485 150V659Q485 681 489
688T515 696H675Q800 696 855 644T915 499Q916 486 918 481T934 476H986Q1000 476 1002 483T1005 503V982Q1005 999 998 1002T974 1006H940Q915 1006 915 996T913 964Q903 883 847 840T675 796H524Q499 796 492 803T485 836V1353Q485 1370 492 1380T519 1390H945Q1060
1390 1124 1360T1216 1257T1245 1054Q1245 1040 1247 1035T1265 1030H1317Q1331 1030 1338 1033T1345 1050V1471Q1345 1488 1341 1494T1321 1500H90Q80 1500 78 1496T75 1481V1412Q75 1397 80 1394T99 1390H266Z" />
<glyph unicode="G" horiz-adv-x="1740" d="M1087 740Q1064 740 1057 733T1050 702V646Q1050 621 1058 616T1091 610H1259Q1279 610 1289 606T1300 578V400Q1300 381 1298 369T1290 344Q1265 285 1209 226T1064 129T850 90Q681 90 568 179T397 418T340 750Q340
932 407 1081T597 1319T884 1408Q1057 1408 1159 1353T1312 1210T1376 1026Q1379 1004 1385 997T1417 990H1465Q1482 990 1486 1004T1490 1034V1474Q1490 1487 1483 1493T1463 1500H1419Q1406 1500 1400 1489T1389 1464L1357 1364Q1350 1340 1343 1336T1318 1349Q1242
1429 1132 1474T870 1520Q718 1520 581 1463T338 1303T171 1058T110 750Q110 583 165 442T319 198T551 37T840 -20Q996 -20 1113 18T1312 117T1441 251T1504 392Q1509 412 1509 434T1510 482V572Q1510 595 1515 602T1543 610H1673Q1696 610 1703 616T1710 644V694Q1710
726 1701 733T1661 740H1087Z" />
<glyph unicode="H" horiz-adv-x="1770" d="M485 1347Q485 1374 492 1382T524 1390H688Q711 1390 718 1397T725 1428V1468Q725 1490 715 1495T685 1500H115Q93 1500 84 1493T75 1462V1436Q75 1410 80 1400T110 1390H256Q279 1390 287 1383T295 1351V144Q295 120
287 115T254 110H116Q90 110 83 103T75 68V40Q75 14 82 7T115 0H675Q708 0 716 8T725 50V76Q725 98 719 104T692 110H523Q498 110 492 118T485 150V678Q485 707 493 713T532 720H1236Q1266 720 1275 712T1285 672V160Q1285 132 1279 121T1243 110H1074Q1054 110
1050 103T1045 74V44Q1045 16 1051 8T1085 0H1645Q1674 0 1684 6T1695 44V78Q1695 100 1686 105T1656 110H1512Q1490 110 1483 116T1475 144V1344Q1475 1377 1486 1383T1530 1390H1656Q1679 1390 1687 1396T1695 1424V1462Q1695 1488 1687 1494T1655 1500H1085Q1059
1500 1052 1493T1045 1458V1429Q1045 1410 1051 1400T1079 1390H1242Q1274 1390 1279 1380T1285 1338V894Q1285 854 1278 842T1232 830H542Q502 830 494 840T485 888V1347Z" />
<glyph unicode="I" horiz-adv-x="830" d="M500 1354Q500 1379 507 1384T538 1390H698Q717 1390 728 1398T740 1432V1466Q740 1489 734 1494T704 1500H120Q103 1500 97 1497T90 1474V1420Q90 1404 97 1397T124 1390H280Q303 1390 306 1383T310 1356V160Q310 126
289 118T242 110H136Q108 110 99 104T90 82V32Q90 13 99 7T130 0H700Q721 0 730 7T740 32V78Q740 92 736 101T718 110H538Q516 110 508 119T500 154V1354Z" />
<glyph unicode="J" horiz-adv-x="1177" d="M20 290Q20 220 61 149T188 29T412 -20Q573 -20 679 53T839 253T892 540V1338Q892 1371 898 1380T937 1390H1103Q1123 1390 1127 1397T1132 1424V1472Q1132 1492 1121 1496T1092 1500H472Q445 1500 434 1495T422 1460V1440Q422
1408 429 1399T467 1390H655Q689 1390 695 1378T702 1331V480Q702 340 668 254T568 129T412 90Q330 90 289 105T233 142T218 180Q218 212 231 226T262 253T292 289T306 362Q306 416 269 448T178 480Q118 480 69 432T20 290Z" />
<glyph unicode="K" horiz-adv-x="1745" d="M75 38Q75 15 81 8T109 0H687Q712 0 718 7T725 40V72Q725 95 719 102T689 110H527Q500 110 493 117T485 150V414Q485 448 489 461T509 490L750 738Q770 759 783 758T815 732L1256 150Q1270 132 1266 121T1226 110H1123Q1097
110 1091 102T1085 66V34Q1085 14 1091 7T1119 0H1711Q1737 0 1741 4T1745 34V70Q1745 96 1738 103T1705 110H1571Q1537 110 1523 119T1495 146L930 870Q917 887 917 898T933 926L1351 1356Q1368 1373 1384 1381T1437 1390H1575Q1602 1390 1608 1398T1615 1434V1460Q1615
1485 1609 1492T1579 1500H1057Q1034 1500 1025 1495T1015 1464V1432Q1015 1407 1021 1399T1055 1390H1173Q1207 1390 1212 1382T1201 1356L524 655Q498 628 492 633T485 682V1334Q485 1369 492 1379T533 1390H679Q706 1390 715 1396T725 1432V1470Q725 1489 719
1494T695 1500H103Q86 1500 81 1494T75 1470V1418Q75 1396 80 1393T107 1390H263Q287 1390 291 1386T295 1358V156Q295 129 289 120T253 110H107Q88 110 82 104T75 78V38Z" />
<glyph unicode="L" horiz-adv-x="1455" d="M253 1390Q279 1390 287 1384T295 1352V150Q295 122 286 116T248 110H100Q83 110 79 103T75 78V36Q75 11 85 6T118 0H1336Q1364 0 1369 9T1375 46V482Q1375 502 1367 506T1338 510H1296Q1282 510 1279 503T1275 482Q1274
356 1245 274T1142 151T935 110H527Q505 110 495 115T485 142V1351Q485 1376 494 1383T526 1390H670Q690 1390 697 1396T705 1424V1466Q705 1490 697 1495T664 1500H108Q89 1500 82 1495T75 1471V1424Q75 1403 81 1397T106 1390H253Z" />
<glyph unicode="M" horiz-adv-x="2070" d="M318 1390Q341 1390 348 1380T354 1350L297 154Q296 132 286 121T250 110H112Q85 110 78 103T70 68V40Q70 13 78 7T114 0H608Q635 0 647 7T660 40V66Q660 96 652 103T614 110H492Q449 110 437 122T426 175L471 1278Q473
1325 476 1342T484 1360Q497 1360 504 1336T516 1280T528 1228L934 34Q942 9 952 -5T998 -20H1044Q1070 -20 1078 -11T1092 16L1480 1172Q1490 1201 1500 1239T1522 1307T1544 1336Q1549 1336 1549 1305T1550 1235T1550 1169L1585 152Q1586 128 1579 119T1546 110H1390Q1361
110 1356 101T1350 62V38Q1350 13 1362 7T1398 0H1964Q1989 0 1994 8T2000 42V72Q2000 101 1996 105T1962 110H1816Q1789 110 1782 118T1774 152L1726 1336Q1725 1362 1732 1376T1767 1390H1894Q1926 1390 1933 1399T1940 1440V1464Q1940 1487 1933 1493T1904 1500H1484Q1456
1500 1452 1493T1441 1466L1056 298Q1048 273 1045 262T1034 251Q1026 251 1023 270T1009 318L633 1454Q628 1470 626 1480T615 1495T584 1500H172Q150 1500 140 1495T130 1466V1420Q130 1401 137 1396T164 1390H318Z" />
<glyph unicode="N" horiz-adv-x="1750" d="M234 1390Q269 1390 279 1383T290 1341V161Q290 127 280 119T235 110H126Q103 110 92 105T80 73V37Q80 12 88 6T122 0H608Q633 0 641 6T650 39V69Q650 91 645 100T616 110H464Q435 110 428 117T420 153V1167Q420 1241
435 1247T472 1225L1411 5Q1421 -8 1432 -14T1466 -20H1472Q1492 -20 1496 -7T1500 25V1339Q1500 1372 1508 1381T1548 1390H1674Q1700 1390 1705 1399T1710 1434V1471Q1710 1493 1695 1496T1660 1500H1198Q1167 1500 1159 1487T1150 1443V1421Q1150 1396 1174
1393T1220 1390H1318Q1350 1390 1360 1383T1370 1343V457Q1370 397 1356 390T1322 408L532 1445Q509 1476 494 1488T420 1500H116Q90 1500 85 1491T80 1455V1425Q80 1405 86 1398T114 1390H234Z" />
<glyph unicode="O" horiz-adv-x="1660" d="M110 750Q110 590 159 451T302 205T529 40T830 -20Q990 -20 1122 39T1350 205T1498 450T1550 750Q1550 910 1501 1049T1358 1295T1131 1460T830 1520Q663 1520 530 1461T303 1295T160 1050T110 750ZM340 750Q340 887
368 1008T454 1221T606 1367T830 1420Q961 1420 1054 1367T1205 1222T1292 1008T1320 750Q1320 614 1295 493T1213 279T1062 133T830 80Q700 80 607 133T455 278T368 492T340 750Z" />
<glyph unicode="P" horiz-adv-x="1380" d="M263 1390Q281 1390 288 1386T295 1364V158Q295 130 288 120T249 110H107Q88 110 82 105T75 82V46Q75 13 86 7T129 0H663Q693 0 699 9T705 48V70Q705 93 701 101T673 110H543Q503 110 494 121T485 173V604Q485 645 496
652T549 660H785Q921 660 1019 689T1180 772T1274 905T1305 1080Q1305 1178 1275 1255T1181 1387T1019 1471T785 1500H112Q90 1500 83 1494T75 1464V1423Q75 1405 78 1398T100 1390H263ZM535 770Q504 770 495 776T485 814V1351Q485 1371 490 1380T514 1390H785Q929
1390 1007 1302T1085 1080Q1085 947 1007 859T785 770H535Z" />
<glyph unicode="Q" horiz-adv-x="1660" d="M110 750Q110 590 159 451T302 205T529 40T830 -20Q921 -20 1000 -1Q1032 7 1044 5T1067 -20Q1096 -82 1129 -134T1208 -218T1320 -250Q1387 -250 1440 -221T1531 -139T1589 -18T1609 131Q1609 153 1602 158T1572 164H1536Q1520
164 1515 159T1509 139Q1506 87 1487 38T1431 -42T1336 -74Q1302 -74 1272 -43T1211 40Q1195 68 1199 75T1229 100Q1379 202 1464 373T1550 750Q1550 910 1501 1049T1358 1295T1131 1460T830 1520Q663 1520 530 1461T303 1295T160 1050T110 750ZM630 121Q600 136
585 158Q553 209 561 270T612 375T728 420Q803 420 852 382T935 283T1001 151Q1012 126 1006 116T965 96Q934 89 901 85T830 80Q773 80 723 90T630 121ZM1180 232Q1153 200 1143 197T1113 233Q1068 323 1014 409T889 550T724 606Q631 606 575 560T491 448T460 322Q458
291 452 291T429 324Q383 412 362 520T340 750Q340 887 368 1008T454 1221T606 1367T830 1420Q961 1420 1054 1367T1205 1222T1292 1008T1320 750Q1320 596 1288 461T1180 232Z" />
<glyph unicode="R" horiz-adv-x="1545" d="M1590 190Q1594 203 1587 208T1565 218L1515 234Q1500 239 1495 232T1484 212Q1462 160 1434 135T1377 110Q1322 110 1301 143T1276 230T1272 351T1263 485T1220 612T1112 710Q1079 727 1079 737T1108 756Q1251 800 1308
888T1365 1100Q1365 1210 1316 1301T1156 1446T865 1500H103Q84 1500 80 1493T75 1466V1435Q75 1408 80 1399T111 1390H246Q278 1390 286 1382T295 1342V153Q295 123 287 117T247 110H111Q90 110 83 104T75 75V32Q75 13 81 7T106 0H672Q692 0 698 5T705 29V74Q705
96 700 103T674 110H525Q501 110 493 115T485 144V638Q485 671 491 680T531 690H785Q895 690 952 652T1031 550T1058 411T1066 260T1087 121T1155 19T1305 -20Q1428 -20 1495 39T1590 190ZM532 810Q500 810 493 818T485 858V1343Q485 1378 491 1384T532 1390H865Q941
1390 1009 1359T1121 1264T1165 1100Q1165 1001 1122 937T1010 842T865 810H532Z" />
<glyph unicode="S" horiz-adv-x="1345" d="M1079 1047Q1081 1022 1083 1016T1112 1010H1156Q1175 1010 1182 1013T1190 1036V1467Q1190 1487 1186 1493T1162 1500H1098Q1086 1500 1083 1498T1075 1488L1044 1417Q1033 1390 1021 1391T992 1407Q932 1459 849 1489T670
1520Q572 1520 485 1496T332 1420T228 1292T190 1110Q190 990 237 916T363 799T536 729T724 679T896 621T1022 528T1070 370Q1070 301 1032 232T910 118T690 72Q554 72 457 133T306 288T242 476Q241 493 236 501T210 510H168Q147 510 139 507T130 482V24Q130 2
137 -4T168 -10H199Q228 -10 235 -6T251 18L282 95Q294 125 303 127T334 109Q402 49 499 10T710 -30Q881 -30 1002 24T1186 179T1250 420Q1250 549 1203 629T1077 758T904 835T716 887T544 942T418 1026T370 1170Q370 1274 443 1346T690 1418Q798 1418 883 1371T1019
1240T1079 1047Z" />
<glyph unicode="T" horiz-adv-x="1550" d="M420 41Q420 13 428 7T466 0H1072Q1099 0 1114 6T1130 42V61Q1130 92 1124 101T1088 110H924Q887 110 879 119T870 167V1357Q870 1384 876 1392T908 1400H1010Q1140 1400 1212 1367T1315 1255T1349 1037Q1350 1013 1355
1002T1388 990H1412Q1435 990 1442 994T1450 1021V1453Q1450 1483 1444 1491T1408 1500H148Q114 1500 107 1491T100 1447V1041Q100 1019 104 1005T134 990H162Q188 990 193 999T200 1031Q203 1172 233 1252T336 1366T540 1400H636Q664 1400 672 1392T680 1355V165Q680
128 671 119T626 110H462Q440 110 430 105T420 75V41Z" />
<glyph unicode="U" horiz-adv-x="1680" d="M1248 1390Q1277 1390 1283 1382T1290 1345V600Q1290 418 1252 306T1124 142T880 90Q716 90 625 159T497 348T460 620V1345Q460 1377 469 1383T510 1390H652Q681 1390 690 1397T700 1435V1463Q700 1489 689 1494T654
1500H92Q70 1500 60 1495T50 1465V1433Q50 1408 54 1399T84 1390H220Q246 1390 258 1384T270 1349V600Q270 463 301 348T400 148T579 17T850 -30Q1147 -30 1278 124T1410 600V1351Q1410 1378 1418 1384T1454 1390H1588Q1612 1390 1621 1396T1630 1427V1461Q1630
1488 1621 1494T1586 1500H1080Q1056 1500 1048 1494T1040 1461V1423Q1040 1403 1045 1397T1070 1390H1248Z" />
<glyph unicode="V" horiz-adv-x="1720" d="M971 336Q955 297 944 277T921 256T897 279T863 351L465 1339Q454 1367 459 1378T508 1390H614Q645 1390 652 1398T660 1439V1453Q660 1482 655 1491T622 1500H38Q14 1500 7 1493T0 1461V1429Q0 1406 5 1398T32 1390H188Q218
1390 224 1385T239 1359L804 8Q812 -12 823 -21T865 -30H895Q913 -30 922 -25T936 -11T946 10L1497 1347Q1506 1369 1516 1379T1560 1390H1693Q1713 1390 1716 1398T1720 1426V1463Q1720 1484 1716 1492T1691 1500H1189Q1171 1500 1166 1494T1160 1469V1420Q1160
1400 1167 1395T1195 1390H1337Q1379 1390 1388 1383T1387 1347L971 336Z" />
<glyph unicode="W" horiz-adv-x="2360" d="M836 322Q825 292 817 279T800 266Q788 266 779 293T762 359T743 428L435 1338Q425 1367 431 1378T481 1390H615Q638 1390 649 1395T660 1425V1450Q660 1480 647 1490T605 1500H43Q14 1500 7 1492T0 1454V1428Q0 1403
7 1397T41 1390H163Q196 1390 208 1383T229 1350L696 20Q703 1 712 -9T749 -20H791Q825 -20 831 -12T845 20L1189 966Q1211 1025 1226 1025Q1237 1025 1244 999T1259 935T1277 866L1543 16Q1550 -5 1558 -12T1593 -20H1635Q1661 -20 1666 -16T1679 8L2126 1352Q2134
1375 2139 1382T2177 1390H2315Q2344 1390 2352 1397T2360 1434V1458Q2360 1488 2351 1494T2311 1500H1843Q1812 1500 1806 1491T1800 1450V1434Q1800 1407 1805 1399T1837 1390H1985Q2017 1390 2018 1386T2012 1358L1671 334Q1661 302 1654 293T1639 284Q1633
284 1628 304T1617 353T1605 406L1325 1341Q1315 1373 1328 1381T1381 1390H1439Q1470 1390 1485 1396T1500 1436V1462Q1500 1486 1493 1493T1463 1500H987Q956 1500 948 1492T940 1452V1434Q940 1407 945 1399T977 1390H1065Q1095 1390 1106 1383T1124 1352L1153
1264Q1164 1230 1158 1209T1141 1156L836 322Z" />
<glyph unicode="X" horiz-adv-x="1740" d="M20 34Q20 14 25 7T50 0H592Q610 0 615 6T620 32V79Q620 99 613 104T586 110H478Q426 110 419 119T430 154L789 611Q827 659 838 659T887 611L1244 141Q1253 129 1258 120T1234 110H1096Q1077 110 1069 105T1060 79V27Q1060
10 1066 5T1091 0H1688Q1710 0 1715 8T1720 38V75Q1720 98 1712 104T1681 110H1559Q1519 110 1508 118T1479 148L1020 747Q995 780 989 797T992 831T1026 879L1398 1362Q1409 1376 1416 1383T1451 1390H1617Q1636 1390 1643 1396T1650 1421V1459Q1650 1488 1641
1494T1605 1500H1081Q1063 1500 1057 1495T1050 1469V1420Q1050 1398 1059 1394T1090 1390H1235Q1275 1390 1277 1384T1264 1358L947 950Q915 909 906 909T864 950L548 1361Q538 1374 538 1380T551 1388T587 1390H721Q739 1390 744 1396T750 1421V1476Q750 1493
742 1496T717 1500H120Q101 1500 96 1494T90 1468V1426Q90 1401 101 1396T136 1390H256Q288 1390 296 1384T317 1360L722 827Q744 799 754 783T761 752T733 707L284 141Q269 122 259 116T213 110H45Q33 110 27 106T20 87V34Z" />
<glyph unicode="Y" horiz-adv-x="1570" d="M490 34Q490 9 502 5T536 0H1090Q1117 0 1128 5T1140 40V86Q1140 102 1134 106T1110 110H940Q910 110 905 115T900 150V602Q900 648 908 668T932 714L1335 1332Q1354 1361 1365 1375T1428 1390H1524Q1553 1390 1561 1397T1570
1432V1460Q1570 1483 1566 1491T1538 1500H1006Q981 1500 976 1492T970 1458V1424Q970 1404 976 1397T1004 1390H1160Q1211 1390 1218 1385T1206 1348L864 822Q847 795 839 786T822 785T796 820L439 1352Q426 1372 435 1381T484 1390H622Q648 1390 654 1398T660
1432V1464Q660 1487 654 1493T626 1500H34Q12 1500 6 1493T0 1462V1416Q0 1397 7 1394T34 1390H140Q181 1390 192 1384T218 1354L683 658Q700 633 705 609T710 540V148Q710 123 703 117T670 110H534Q509 110 500 104T490 70V34Z" />
<glyph unicode="Z" horiz-adv-x="1510" d="M228 1500Q192 1500 181 1494T170 1452V1076Q170 1050 176 1040T210 1030H228Q256 1030 263 1035T270 1068Q273 1190 303 1260T407 1360T610 1390H1018Q1083 1390 1083 1373Q1083 1348 1055 1322T1004 1268L112 137Q100
122 95 107T90 62V34Q90 12 98 6T128 0H1348Q1390 0 1400 9T1410 58V468Q1410 490 1405 500T1376 510H1341Q1319 510 1315 499T1310 468Q1307 328 1277 250T1174 141T970 110H372Q350 110 343 116T336 132Q336 153 364 177T418 234L1289 1338Q1305 1358 1317 1378T1330
1434V1466Q1330 1486 1326 1493T1302 1500H228Z" />
<glyph unicode="[" horiz-adv-x="650" d="M167 1560Q128 1560 119 1547T110 1500V-231Q110 -277 125 -288T180 -300H549Q575 -300 582 -294T590 -262V-226Q590 -200 579 -195T545 -190H337Q308 -190 299 -184T290 -150V1401Q290 1436 308 1443T357 1450H555Q578
1450 584 1457T590 1488V1511Q590 1548 576 1554T527 1560H167Z" />
<glyph unicode="\" horiz-adv-x="1040" d="M208 1560H80L822 -300H960L208 1560Z" />
<glyph unicode="]" horiz-adv-x="650" d="M483 -300Q522 -300 531 -287T540 -240V1491Q540 1537 525 1548T470 1560H101Q75 1560 68 1554T60 1522V1486Q60 1461 71 1456T105 1450H313Q342 1450 351 1445T360 1410V-141Q360 -176 343 -183T293 -190H95Q72 -190
66 -197T60 -228V-251Q60 -288 74 -294T123 -300H483Z" />
<glyph unicode="^" horiz-adv-x="1090" d="M508 1399Q537 1422 547 1421T585 1397L898 1138Q913 1125 921 1125T947 1136L967 1147Q984 1156 983 1162T970 1180L632 1518Q622 1529 612 1534T580 1540H504Q485 1540 477 1535T460 1520L120 1180Q109 1169 107 1163T120
1147L145 1134Q163 1124 170 1125T192 1138L508 1399Z" />
<glyph unicode="_" horiz-adv-x="1120" d="M478 -20Q462 -20 456 -25T450 -48V-100Q450 -119 453 -124T476 -130H1102Q1122 -130 1126 -123T1130 -97V-48Q1130 -30 1126 -25T1104 -20H478ZM18 -20Q2 -20 -4 -25T-10 -48V-100Q-10 -119 -7 -124T16 -130H642Q662
-130 666 -123T670 -97V-48Q670 -30 666 -25T644 -20H18Z" />
<glyph unicode="`" horiz-adv-x="790" d="M180 1440L641 1421Q660 1420 667 1423T675 1440Q677 1455 667 1460T637 1470L200 1576Q172 1583 152 1574T121 1547T110 1510Q110 1482 131 1462T180 1440Z" />
<glyph unicode="a" horiz-adv-x="1112" d="M100 246Q100 120 188 50T410 -20Q516 -20 578 6T672 67T720 123Q734 142 739 142T748 124Q752 100 764 66T813 6T925 -20H926Q967 -20 1005 -6T1077 37T1134 110Q1141 126 1128 134L1092 156Q1079 166 1069 149Q1043
108 1019 96T974 84Q953 84 938 98T922 142V744Q922 825 897 897T799 1015T586 1060Q510 1060 435 1042T297 988T198 902T160 786Q160 720 196 695T278 670Q329 670 358 702T388 786Q388 825 374 840T346 863T332 890Q332 910 363 928T443 957T546 968Q626 968
668 938T726 854T742 734V624Q742 606 738 602T716 598H618Q446 598 331 549T158 420T100 246ZM304 276Q304 353 334 408T433 492T618 522H722Q742 522 742 502V382Q742 246 672 169T500 92Q425 92 365 134T304 276Z" />
<glyph unicode="b" horiz-adv-x="1281" d="M410 520Q410 634 446 733T548 894T706 956Q790 956 853 895T951 734T986 520Q986 406 951 307T853 146T706 84Q615 84 549 145T446 306T410 520ZM67 1450H214Q230 1450 230 1430V128Q230 117 227 114T213 110H69Q59
110 55 107T50 94V17Q50 5 53 3T69 0H385Q401 0 405 10T410 36V152Q410 188 413 191T426 177Q476 83 556 32T742 -20Q861 -20 962 44T1124 229T1186 520Q1186 690 1125 810T962 994T742 1058Q634 1058 552 1003T420 850Q414 838 412 841T410 867V1547Q410 1555
406 1557T394 1560H61Q54 1560 52 1557T50 1545V1470Q50 1460 53 1455T67 1450Z" />
<glyph unicode="c" horiz-adv-x="1086" d="M90 520Q90 370 142 248T304 53T584 -20Q702 -20 785 24T924 147T1011 328Q1015 339 1012 342T992 346H930Q916 346 911 342T902 327Q863 215 785 147T588 78Q479 78 414 141T321 305T292 520Q292 634 325 736T429 902T608
966Q689 966 745 941T802 874Q802 851 786 836T754 802T738 746Q738 691 775 661T852 630Q896 630 938 660T980 762Q980 844 933 911T798 1019T588 1060Q467 1060 375 1019T219 903T123 731T90 520Z" />
<glyph unicode="d" horiz-adv-x="1281" d="M300 520Q300 634 335 733T433 894T580 956Q671 956 737 895T840 734T876 520Q876 406 840 307T738 146T580 84Q496 84 433 145T335 306T300 520ZM100 520Q100 350 161 229T324 44T544 -20Q648 -20 720 30T850 173Q864
194 870 189T876 157V36Q876 14 882 7T910 0H1210Q1228 0 1232 5T1236 29V84Q1236 103 1230 106T1204 110H1091Q1069 110 1063 115T1056 142V1530Q1056 1550 1046 1555T1017 1560H719Q708 1560 702 1557T696 1541V1475Q696 1462 699 1456T714 1450H844Q864 1450
870 1447T876 1423V893Q876 853 873 850T858 865Q808 957 728 1007T544 1058Q425 1058 324 995T162 811T100 520Z" />
<glyph unicode="e" horiz-adv-x="1096" d="M90 500Q90 360 143 242T301 52T556 -20Q683 -20 772 24T917 145T1001 325Q1004 336 1000 341T981 346H923Q908 346 904 340T896 322Q856 212 778 145T580 78Q477 78 414 135T321 288T292 493Q292 510 300 516T325 522H968Q989
522 996 526T1004 551Q1004 622 990 694T945 832T864 949T741 1030T570 1060Q409 1060 303 987T143 787T90 500ZM324 608Q306 608 301 613T296 633Q296 712 326 790T417 920T570 972Q631 972 675 937T748 848T791 734T805 624Q805 614 801 611T776 608H324Z" />
<glyph unicode="f" horiz-adv-x="782" d="M402 900Q402 917 406 923T427 930H651Q672 930 677 934T682 959V1010Q682 1032 674 1036T646 1040H427Q411 1040 407 1046T402 1068V1100Q402 1227 423 1314T492 1445T620 1490Q698 1490 729 1472T760 1436Q760 1416
750 1402T729 1370T718 1322Q718 1280 750 1253T834 1226Q887 1226 919 1260T952 1358Q952 1415 910 1466T793 1548T616 1580Q486 1580 399 1526T267 1373T222 1144V1068Q222 1049 218 1045T196 1040H69Q54 1040 48 1036T42 1016V954Q42 938 47 934T67 930H196Q215
930 218 923T222 896V137Q222 122 219 116T200 110H70Q57 110 50 107T42 88V26Q42 10 45 5T65 0H610Q628 0 635 5T642 30V88Q642 104 630 107T603 110H435Q411 110 407 116T402 146V900Z" />
<glyph unicode="g" horiz-adv-x="1199" d="M295 690Q295 764 314 830T378 938T503 980Q582 980 627 939T692 831T711 690Q711 616 692 550T628 442T503 400Q424 400 379 441T314 549T295 690ZM105 690Q105 588 147 508T268 380Q290 367 293 364T270 350Q200 319
160 272T119 168Q119 105 144 69T213 13Q233 4 236 3T219 -10Q158 -44 107 -111T55 -270Q55 -397 183 -458T525 -520Q685 -520 801 -477T981 -355T1045 -164Q1045 -62 1014 -1T929 90T809 130T671 140Q650 140 620 140T558 139T497 139T449 138Q367 138 311 147T255
212Q255 241 289 270T370 320Q385 327 396 328T426 326Q445 323 464 322T503 320Q624 320 713 366T852 496T901 690Q901 795 854 880Q849 889 851 893T858 906Q889 951 925 968T997 986Q1035 986 1035 956Q1035 940 1026 930T1007 904T997 856Q997 819 1024 794T1093
768Q1138 768 1168 797T1199 878Q1199 930 1177 971T1108 1036T991 1060Q954 1060 904 1038T810 965Q802 956 800 955T788 962Q736 1009 664 1034T503 1060Q382 1060 293 1014T154 884T105 690ZM903 -214Q903 -286 852 -333T721 -403T557 -426Q398 -426 322 -366T245
-204Q245 -171 253 -120T305 -23Q311 -16 315 -14T332 -14Q367 -17 403 -17T477 -18Q499 -18 545 -18T638 -18T705 -18Q803 -18 853 -75T903 -214Z" />
<glyph unicode="h" horiz-adv-x="1315" d="M208 1450Q222 1450 226 1444T230 1423V134Q230 118 224 114T201 110H69Q53 110 52 106T50 87V19Q50 4 53 2T70 0H569Q583 0 586 7T590 28V78Q590 98 584 104T559 110H438Q422 110 416 114T410 135V566Q410 669 449 755T560
894T730 946Q829 946 874 887T920 716V139Q920 120 917 115T895 110H758Q747 110 745 104T742 86V23Q742 10 746 5T763 0H1257Q1271 0 1275 3T1280 20V88Q1280 102 1277 106T1259 110H1131Q1111 110 1106 115T1100 139V738Q1100 899 1019 979T776 1060Q665 1060
575 1009T436 881Q427 866 421 853T413 844T410 882V1528Q410 1547 406 1553T383 1560H75Q60 1560 55 1557T50 1539V1472Q50 1456 53 1453T72 1450H208Z" />
<glyph unicode="i" horiz-adv-x="665" d="M225 1400Q225 1351 260 1316T345 1280Q395 1280 430 1315T465 1400Q465 1450 430 1485T345 1520Q296 1520 261 1485T225 1400ZM241 930Q265 930 265 906V138Q265 122 262 116T242 110H118Q100 110 93 105T85 80V24Q85
8 92 4T116 0H606Q620 0 622 5T625 24V90Q625 104 620 107T601 110H466Q454 110 450 115T445 134V1019Q445 1032 442 1036T426 1040H109Q85 1040 85 1014V954Q85 939 88 935T106 930H241Z" />
<glyph unicode="j" horiz-adv-x="584" d="M184 1400Q184 1351 219 1316T304 1280Q354 1280 389 1315T424 1400Q424 1450 389 1485T304 1520Q255 1520 220 1485T184 1400ZM210 930Q221 930 225 926T230 911V208Q230 140 236 55T243 -115T233 -272T187 -388T86 -432Q31
-432 16 -405T0 -358Q0 -338 9 -327T28 -301T38 -250Q38 -200 6 -169T-78 -138Q-130 -138 -163 -180T-196 -280Q-196 -342 -163 -397T-66 -486T86 -520Q192 -520 256 -478T353 -362T398 -189T410 22V1018Q410 1032 405 1036T386 1040H73Q58 1040 54 1036T50 1017V950Q50
936 54 933T73 930H210Z" />
<glyph unicode="k" horiz-adv-x="1222" d="M191 1450Q211 1450 220 1445T230 1418V138Q230 119 223 115T195 110H77Q64 110 57 108T50 92V30Q50 16 54 8T75 0H541Q557 0 563 3T570 22V84Q570 101 560 105T533 110H443Q421 110 416 118T410 146V518Q410 545 414
551T429 546L828 136Q841 123 841 117T808 110H759Q738 110 733 104T728 75V38Q728 16 732 8T757 0H1163Q1186 0 1194 7T1202 38V85Q1202 99 1198 104T1179 110H1117Q1089 110 1080 115T1058 134L623 590Q607 607 608 612T627 631L969 910Q980 920 993 925T1029
930H1137Q1159 930 1166 934T1174 960V1010Q1174 1028 1168 1034T1145 1040H653Q637 1040 633 1034T628 1010V972Q628 947 632 939T661 930H779Q830 930 828 925T799 899L429 610Q411 596 411 608T410 648V1521Q410 1546 398 1553T363 1560H79Q59 1560 55 1553T50
1524V1476Q50 1459 54 1455T76 1450H191Z" />
<glyph unicode="l" horiz-adv-x="624" d="M182 1450Q205 1450 212 1444T219 1416V144Q219 120 216 115T188 110H64Q46 110 43 102T39 76V36Q39 12 47 6T78 0H532Q558 0 568 6T579 40V84Q579 100 573 105T552 110H430Q402 110 401 119T399 154V1524Q399 1550 390
1555T354 1560H80Q61 1560 50 1556T39 1530V1492Q39 1471 44 1461T72 1450H182Z" />
<glyph unicode="m" horiz-adv-x="1841" d="M80 30Q80 12 86 6T108 0H582Q598 0 602 11T606 36V76Q606 99 599 104T570 110H462Q431 110 426 115T420 152V566Q420 669 449 755T541 894T702 946Q786 946 819 887T852 716V150Q852 123 844 117T808 110H734Q706 110
699 102T692 64V34Q692 12 700 6T730 0H1156Q1182 0 1188 8T1194 40V76Q1194 100 1183 105T1150 110H1080Q1055 110 1044 115T1032 148V566Q1032 669 1057 755T1144 894T1314 946Q1398 946 1431 887T1464 716V150Q1464 122 1456 116T1418 110H1314Q1291 110 1285
103T1278 72V44Q1278 13 1288 7T1328 0H1760Q1789 0 1797 7T1806 44V82Q1806 97 1802 103T1784 110H1686Q1658 110 1651 118T1644 154V738Q1644 899 1583 979T1360 1060Q1255 1060 1183 1014T1054 903Q1041 888 1032 887T1008 910Q971 980 914 1020T748 1060Q648
1060 577 1020T460 915Q448 897 439 887T425 887T420 946V1006Q420 1029 411 1034T380 1040H118Q93 1040 87 1032T80 998V966Q80 942 87 936T120 930H202Q222 930 231 925T240 898V148Q240 123 232 117T198 110H106Q92 110 86 106T80 88V30Z" />
<glyph unicode="n" horiz-adv-x="1345" d="M236 930Q248 930 254 927T260 913V138Q260 119 253 115T226 110H116Q97 110 89 105T80 78V32Q80 13 85 7T108 0H592Q609 0 614 6T620 30V76Q620 98 613 104T585 110H482Q459 110 450 119T440 151V566Q440 669 479 755T590
894T760 946Q859 946 904 887T950 716V149Q950 123 942 117T910 110H795Q779 110 775 104T770 81V31Q770 15 773 8T792 0H1279Q1296 0 1303 3T1310 22V80Q1310 97 1306 103T1284 110H1166Q1140 110 1135 119T1130 155V738Q1130 845 1102 916T1004 1024T806 1060Q676
1060 592 1006T460 871Q450 855 445 852T440 888V1005Q440 1019 433 1029T409 1040H99Q88 1040 84 1035T80 1017V955Q80 942 84 936T101 930H236Z" />
<glyph unicode="o" horiz-adv-x="1136" d="M300 540Q300 618 311 694T352 833T433 932T568 970Q677 970 735 904T814 731T836 500Q836 422 825 346T784 207T703 108T568 70Q459 70 401 136T322 309T300 540ZM90 500Q90 360 142 242T301 52T568 -20Q729 -20 835
53T993 253T1046 540Q1046 680 994 798T835 988T568 1060Q407 1060 301 987T143 787T90 500Z" />
<glyph unicode="p" horiz-adv-x="1276" d="M410 520Q410 634 446 733T548 894T706 956Q790 956 853 895T951 734T986 520Q986 406 951 307T853 146T706 84Q615 84 549 145T446 306T410 520ZM50 970Q50 948 55 939T85 930H185Q210 930 220 924T230 892V-344Q230
-372 225 -381T191 -390H77Q58 -390 54 -397T50 -424V-464Q50 -483 55 -491T81 -500H559Q580 -500 585 -496T590 -469V-428Q590 -404 584 -397T555 -390H457Q427 -390 419 -383T410 -344V78Q410 158 419 164T450 138Q500 64 574 23T742 -18Q861 -18 962 45T1124
229T1186 520Q1186 690 1125 811T962 996T742 1060Q641 1060 559 1008T428 866Q419 850 415 852T410 892V1006Q410 1029 403 1034T373 1040H87Q68 1040 59 1035T50 1008V970Z" />
<glyph unicode="q" horiz-adv-x="1256" d="M866 520Q866 406 830 307T728 146T570 84Q486 84 423 145T325 306T290 520Q290 634 325 733T423 894T570 956Q661 956 727 895T830 734T866 520ZM1102 -390Q1071 -390 1059 -385T1046 -348V892Q1046 916 1055 923T1090
930H1185Q1210 930 1218 938T1226 970V1008Q1226 1031 1216 1035T1185 1040H923Q893 1040 880 1034T866 998V928Q866 871 859 868T837 886Q787 969 710 1014T534 1060Q415 1060 314 996T152 811T90 520Q90 350 151 230T314 46T534 -18Q634 -18 711 28T839 159Q852
181 859 180T866 124V-336Q866 -370 859 -380T819 -390H721Q697 -390 692 -397T686 -430V-462Q686 -486 693 -493T723 -500H1183Q1209 -500 1217 -495T1226 -464V-416Q1226 -401 1219 -396T1195 -390H1102Z" />
<glyph unicode="r" horiz-adv-x="961" d="M260 892V145Q260 123 251 117T219 110H108Q93 110 87 105T80 82V19Q80 6 87 3T108 0H594Q611 0 615 6T620 31V76Q620 95 617 102T594 110H472Q449 110 445 119T440 151V566Q440 669 470 759T554 906T676 962Q712 962
724 955T736 932Q736 920 725 909T702 878T690 822Q690 776 725 748T812 720Q847 720 875 740T919 795T936 872Q936 959 870 1009T720 1060Q622 1060 560 1016T461 903Q448 878 444 880T440 907V1012Q440 1031 431 1035T404 1040H112Q91 1040 86 1033T80 1005V968Q80
946 84 938T110 930H224Q247 930 253 923T260 892Z" />
<glyph unicode="s" horiz-adv-x="1005" d="M766 729Q771 714 774 707T799 700H855Q872 700 878 704T884 725V1032Q884 1060 858 1060H813Q794 1060 788 1056T777 1038L751 959Q743 932 740 936T720 956Q680 997 611 1030T444 1064Q359 1064 289 1030T176 930T134
770Q134 665 179 603T294 507T444 453T593 411T709 352T754 246Q754 170 698 125T536 80Q453 80 392 106T289 185T221 319Q217 331 212 338T189 346H128Q111 346 106 340T100 315V7Q100 -8 105 -14T125 -20H171Q187 -20 195 -14T208 4L231 76Q238 96 247 96T272
81Q318 41 393 9T566 -24Q663 -24 743 14T872 126T920 304Q920 403 875 461T758 552T606 606T453 651T336 713T290 822Q290 885 333 923T456 962Q557 962 643 901T766 729Z" />
<glyph unicode="t" horiz-adv-x="710" d="M689 195Q694 208 690 213T673 222L641 233Q625 239 620 236T607 218Q581 161 547 131T469 100Q429 100 405 127T381 214V897Q381 920 391 925T422 930H642Q660 930 667 933T675 955V1007Q675 1028 669 1034T642 1040H420Q401
1040 391 1045T381 1071V1291Q381 1320 355 1320H301Q279 1320 274 1314T265 1291Q245 1204 228 1153T189 1078T133 1047T45 1040Q26 1040 21 1037T15 1014V960Q15 940 22 935T50 930H169Q187 930 194 922T201 896V172Q201 90 248 33T403 -24Q481 -24 537 5T631
85T689 195Z" />
<glyph unicode="u" horiz-adv-x="1315" d="M220 302Q220 195 248 124T346 16T544 -20Q675 -20 756 31T886 163Q897 181 903 175T910 159V38Q910 15 916 8T944 0H1242Q1262 0 1266 7T1270 34V86Q1270 102 1260 106T1236 110H1124Q1101 110 1096 116T1090 144V1010Q1090
1027 1086 1033T1066 1040H754Q739 1040 735 1034T730 1012V949Q730 936 737 933T758 930H868Q890 930 900 925T910 896V474Q910 371 871 280T760 131T590 74Q491 74 446 143T400 324V1009Q400 1031 393 1035T362 1040H76Q54 1040 47 1034T40 1004V958Q40 938 48
934T76 930H194Q212 930 216 923T220 897V302Z" />
<glyph unicode="v" horiz-adv-x="1158" d="M648 285Q637 254 631 239T619 224Q614 224 608 240T591 288L380 900Q375 916 378 923T404 930H500Q524 930 533 934T542 962V1012Q542 1029 536 1034T514 1040H42Q22 1040 11 1034T0 1005V954Q0 942 5 936T24 930H134Q155
930 165 927T180 909L529 -1Q534 -13 542 -16T568 -20H613Q630 -20 638 -17T651 -1L989 903Q995 918 998 924T1024 930H1128Q1145 930 1151 933T1158 953V1006Q1158 1029 1151 1034T1122 1040H733Q720 1040 715 1033T710 1013V959Q710 930 736 930H848Q874 930
879 924T877 897L648 285Z" />
<glyph unicode="w" horiz-adv-x="1720" d="M587 263Q583 251 581 243T572 235Q566 235 564 243T557 263L362 911Q359 922 363 926T383 930H558Q579 930 583 938T587 968V1008Q587 1027 582 1033T559 1040H22Q10 1040 8 1034T5 1015V954Q5 942 7 936T21 930H147Q161
930 168 926T178 910L473 3Q478 -14 489 -17T523 -20H586Q609 -20 616 -14T628 9L849 726Q854 742 857 749T865 757Q870 757 873 749T881 726L1105 5Q1110 -10 1117 -15T1145 -20H1217Q1240 -20 1247 -14T1259 8L1518 904Q1523 923 1528 926T1558 930H1687Q1704
930 1709 935T1715 955V1009Q1715 1026 1712 1033T1692 1040H1229Q1215 1040 1211 1034T1207 1012V955Q1207 938 1214 934T1239 930H1373Q1394 930 1397 924T1396 901L1215 269Q1211 256 1209 246T1201 235Q1196 235 1193 245T1185 269L952 1017Q948 1033 939 1036T908
1040H855Q836 1040 828 1036T814 1017L587 263Z" />
<glyph unicode="x" horiz-adv-x="1163" d="M688 729Q664 703 649 687T623 670Q613 670 602 685T571 727L442 897Q434 908 430 919T449 930H494Q510 930 516 935T522 958V1008Q522 1025 519 1032T498 1040H64Q48 1040 39 1035T30 1012V966Q30 943 37 937T66 930H158Q193
930 202 923T225 897L438 610Q461 579 475 561T490 527Q490 513 476 496T439 453L148 131Q138 121 132 116T104 110H54Q39 110 35 102T30 79V27Q30 9 36 5T62 0H408Q422 0 425 6T428 27V81Q428 98 424 104T404 110H330Q299 110 295 116T302 135L511 368Q532 392
546 409T570 426Q580 426 590 409T619 365L781 149Q792 135 799 123T777 110H706Q690 110 683 105T676 83V29Q676 13 679 7T698 0H1106Q1123 0 1130 3T1138 22V88Q1138 102 1132 106T1110 110H1060Q1035 110 1028 114T1010 133L744 493Q725 520 711 536T697 565Q697
579 713 593T751 633L1002 911Q1012 922 1021 926T1052 930H1113Q1127 930 1132 934T1138 952V1014Q1138 1028 1134 1034T1116 1040H772Q759 1040 755 1034T750 1014V947Q750 935 756 933T775 930H836Q850 930 854 925T846 906L688 729Z" />
<glyph unicode="y" horiz-adv-x="1236" d="M16 -262Q16 -329 45 -388T130 -483T262 -520Q320 -520 386 -496T517 -403T634 -204L1067 888Q1077 912 1083 921T1123 930H1205Q1228 930 1232 939T1236 970V1016Q1236 1033 1229 1036T1205 1040H847Q822 1040 814 1033T806
1000V966Q806 946 811 938T839 930H911Q943 930 947 924T944 896L712 306Q699 271 692 253T677 235Q671 235 664 249T642 294L370 900Q360 921 367 925T405 930H499Q528 930 535 937T542 975V1000Q542 1026 536 1033T505 1040H27Q13 1040 7 1037T0 1020V964Q0 943
6 937T35 930H121Q151 930 157 924T173 898L566 30Q580 0 580 -15T569 -62L546 -120Q499 -240 448 -305T349 -395T262 -420Q213 -420 184 -393T154 -332Q154 -316 162 -307T183 -290T208 -274T229 -251T238 -214Q238 -167 211 -142T138 -116Q107 -116 79 -133T34
-183T16 -262Z" />
<glyph unicode="z" horiz-adv-x="1080" d="M482 940H662Q725 940 742 934T731 893L118 146Q105 130 93 117T80 73V36Q80 15 87 8T116 0H954Q993 0 1001 10T1010 60V400Q1010 419 1003 423T976 428H939Q924 428 917 426T910 408Q910 321 902 262T866 167T776 116T608
100H358Q303 100 305 107T331 142L959 905Q972 921 980 933T988 976V1009Q988 1029 981 1034T954 1040H180Q145 1040 136 1033T126 990V667Q126 646 133 641T162 636H201Q221 636 223 645T226 671Q227 761 242 820T312 910T482 940Z" />
<glyph unicode="{" horiz-adv-x="544" d="M442 -299Q467 -300 475 -294T484 -261V-233Q484 -208 472 -207T440 -204Q369 -196 333 -155T296 -32Q296 25 306 72T330 166T353 269T364 400Q364 470 341 519T276 602Q261 614 253 618T245 630Q245 639 252 642T275
658Q317 693 340 742T364 862Q364 937 354 993T330 1096T307 1190T296 1294Q296 1380 336 1420T454 1465Q477 1467 480 1470T484 1498V1520Q484 1546 479 1553T450 1560Q319 1556 245 1523T140 1429T110 1282Q110 1179 128 1107T170 982T212 884T230 792Q230 743
206 723T146 692Q131 687 121 680T110 651V617Q110 589 116 583T142 570Q178 559 204 540T230 470Q230 423 212 379T170 281T128 155T110 -20Q110 -147 180 -219T442 -299Z" />
<glyph unicode="|" horiz-adv-x="600" d="M257 1560Q223 1560 217 1550T210 1506V-456Q210 -485 218 -492T257 -500H353Q379 -500 384 -489T390 -454V1512Q390 1544 382 1552T339 1560H257Z" />
<glyph unicode="}" horiz-adv-x="544" d="M102 1559Q77 1560 69 1554T60 1521V1493Q60 1468 72 1467T104 1464Q175 1456 211 1416T248 1292Q248 1235 238 1188T214 1094T191 991T180 860Q180 790 203 741T268 658Q283 646 291 642T299 630Q299 621 292 618T269
602Q227 568 204 518T180 398Q180 323 190 267T214 164T237 70T248 -34Q248 -120 208 -160T90 -205Q67 -206 64 -210T60 -238V-260Q60 -286 65 -293T94 -300Q225 -296 299 -263T404 -168T434 -22Q434 81 416 153T374 278T332 376T314 468Q314 517 338 537T398 568Q413
573 423 580T434 609V643Q434 671 428 677T402 690Q366 701 340 720T314 790Q314 837 332 881T374 979T416 1105T434 1280Q434 1407 364 1479T102 1559Z" />
<glyph unicode="~" horiz-adv-x="1376" d="M456 874Q503 874 534 855T593 808T656 752T743 705T878 686Q955 686 1021 717T1129 817T1176 992Q1177 1012 1169 1016T1142 1020H1096Q1075 1020 1069 1014T1061 989Q1055 911 1020 872T920 832Q865 832 829 851T762
898T698 954T617 1001T498 1020Q423 1020 357 988T249 887T201 714Q200 695 207 691T234 686H284Q301 686 307 689T315 709Q320 791 355 832T456 874Z" />
<glyph unicode="&#xa0;" horiz-adv-x="600" />
<glyph unicode="&#xa1;" horiz-adv-x="638" d="M438 942Q438 975 423 1002T380 1044T320 1060Q287 1060 261 1045T218 1002T202 942Q202 909 218 883T260 840T320 824Q353 824 380 840T422 882T438 942ZM202 -278Q202 -288 201 -297T200 -316Q200 -362 210 -398T247
-455T320 -476Q367 -476 392 -455T428 -398T438 -316Q438 -307 438 -298T438 -278Q430 -149 417 -36T391 181T369 389T358 600Q358 614 355 619T337 624H306Q288 624 285 618T282 595Q281 509 275 427T259 262T238 94T218 -84T202 -278Z" />
<glyph unicode="&#xa2;" horiz-adv-x="1096" d="M627 1230Q616 1230 614 1228T610 1216L415 -147Q414 -160 418 -165T439 -170H493Q507 -170 514 -165T523 -146L718 1205Q720 1220 717 1225T697 1230H627ZM90 520Q90 370 142 248T304 53T584 -20Q702 -20 785 24T924
147T1011 328Q1015 339 1012 342T992 346H930Q916 346 911 342T902 327Q863 215 785 147T588 78Q479 78 414 141T321 305T292 520Q292 634 325 736T429 902T608 966Q689 966 745 941T802 874Q802 851 786 836T754 802T738 746Q738 691 775 661T852 630Q896 630
938 660T980 762Q980 844 933 911T798 1019T588 1060Q467 1060 375 1019T219 903T123 731T90 520Z" />
<glyph unicode="&#xa3;" horiz-adv-x="1270" d="M111 -7Q112 -22 113 -31T132 -40H198Q213 -40 215 -33T222 -15Q232 8 247 25T285 51T344 60Q391 60 435 42T533 0T659 -42T834 -60Q920 -60 995 -30T1118 74T1173 280Q1174 295 1172 304T1152 314H1101Q1090 314
1086 313T1081 308T1079 294Q1071 211 1003 169T846 126Q770 126 710 143T582 177T414 194Q389 194 367 192T326 184Q302 178 288 167T267 149T255 143Q241 152 265 177T307 223Q345 267 385 305T461 385T518 486T540 629Q540 648 545 654T571 660H876Q890 660
895 665T900 682V743Q900 763 897 766T873 770H567Q542 770 531 772T515 782T503 809Q478 878 453 953T428 1120Q428 1194 456 1267T551 1388T738 1436Q812 1436 874 1420T974 1377T1012 1324Q1012 1301 996 1286T964 1252T948 1196Q948 1159 965 1133T1009 1094T1062
1080Q1091 1080 1120 1093T1170 1135T1190 1212Q1190 1294 1141 1364T991 1477T738 1520Q577 1520 458 1474T272 1334T206 1100Q206 1015 231 947T286 813Q293 799 298 789T299 775T269 770H32Q14 770 7 765T0 740V696Q0 676 4 668T27 660H303Q338 660 353 620T368
522Q368 485 341 445T275 357T196 255T132 135T111 -7Z" />
<glyph unicode="&#xa4;" horiz-adv-x="1140" d="M121 248L278 405Q332 359 403 335T571 310Q668 310 738 334T862 405L1019 248L1092 321L935 478Q987 542 1007 612T1028 770Q1028 858 1007 928T934 1061L1092 1219L1019 1292L862 1135Q807 1181 738 1205T571
1229Q474 1229 404 1205T279 1134L121 1292L48 1219L206 1061Q154 998 133 928T112 770Q112 682 133 612T206 479L48 321L121 248ZM571 433Q420 433 331 527T242 770Q242 919 330 1013T571 1107Q723 1107 810 1013T898 770Q898 621 811 527T571 433Z" />
<glyph unicode="&#xa5;" horiz-adv-x="1570" d="M404 460Q384 460 376 455T368 432V380Q368 361 372 356T401 350H1213Q1239 350 1244 357T1250 383V432Q1250 450 1244 455T1216 460H404ZM404 740Q384 740 376 735T368 712V660Q368 641 372 636T401 630H1213Q1239
630 1244 637T1250 663V712Q1250 730 1244 735T1216 740H404ZM490 34Q490 9 502 5T536 0H1090Q1117 0 1128 5T1140 40V86Q1140 102 1134 106T1110 110H940Q910 110 905 115T900 150V602Q900 648 908 668T932 714L1335 1332Q1354 1361 1365 1375T1428 1390H1524Q1553
1390 1561 1397T1570 1432V1460Q1570 1483 1566 1491T1538 1500H1006Q981 1500 976 1492T970 1458V1424Q970 1404 976 1397T1004 1390H1160Q1211 1390 1218 1385T1206 1348L864 822Q847 795 839 786T822 785T796 820L439 1352Q426 1372 435 1381T484 1390H622Q648
1390 654 1398T660 1432V1464Q660 1487 654 1493T626 1500H34Q12 1500 6 1493T0 1462V1416Q0 1397 7 1394T34 1390H140Q181 1390 192 1384T218 1354L683 658Q700 633 705 609T710 540V148Q710 123 703 117T670 110H534Q509 110 500 104T490 70V34Z" />
<glyph unicode="&#xa6;" horiz-adv-x="479" d="M200 818H313V1560H200V818ZM200 -500H313V332H200V-500Z" />
<glyph unicode="&#xa7;" horiz-adv-x="1068" d="M714 1316Q714 1293 698 1278T666 1244T650 1188Q650 1151 667 1125T711 1086T764 1072Q793 1072 822 1090T872 1142T892 1224Q892 1304 856 1360T759 1451T622 1503T464 1520Q393 1520 327 1502T208 1446T125 1352T94
1216Q94 1143 127 1092T213 1006Q141 957 100 904T58 750Q58 669 109 614T240 522T411 456T581 398T713 329T764 232Q764 185 722 152T615 100T488 82Q436 82 374 99T266 143T220 204Q220 227 236 242T268 276T284 332Q284 369 267 395T224 434T170 448Q141 448
112 430T62 378T42 296Q42 209 81 149T185 51T329 -3T490 -20Q569 -20 645 -2T784 54T883 148T920 284Q920 358 887 408T800 494Q871 547 903 612T936 750Q936 832 887 886T759 978T593 1044T427 1102T300 1171T250 1268Q250 1339 321 1378T486 1418Q538 1418 590
1407T678 1372T714 1316ZM294 963Q368 930 449 906T602 854T719 788T764 686Q764 603 712 541Q638 573 558 597T407 647T294 713T250 814Q250 863 266 901T294 963Z" />
<glyph unicode="&#xa8;" horiz-adv-x="1000" d="M660 1690Q700 1690 728 1718T756 1786Q756 1826 728 1854T660 1883Q620 1883 592 1855T564 1786Q564 1746 592 1718T660 1690ZM340 1690Q380 1690 408 1718T436 1786Q436 1826 408 1854T340 1883Q300 1883 272
1855T244 1786Q244 1746 272 1718T340 1690Z" />
<glyph unicode="&#xa9;" horiz-adv-x="1739" d="M870 1520Q704 1520 564 1463T319 1301T158 1057T100 750Q100 584 157 444T318 199T563 38T870 -20Q1036 -20 1176 37T1421 198T1583 443T1641 750Q1641 916 1584 1056T1422 1301T1178 1462T870 1520ZM870 73Q680
73 527 158T284 396T194 750Q194 951 283 1103T525 1341T870 1427Q1013 1427 1136 1378T1351 1239T1494 1025T1546 750Q1546 550 1457 397T1215 159T870 73ZM420 740Q420 640 452 556T543 409T682 312T858 278Q978 278 1065 325T1202 453T1259 636Q1260 641 1257
642T1247 644H1205Q1199 644 1196 642T1193 634Q1185 563 1145 498T1036 391T870 349Q766 349 697 401T593 542T558 740Q558 849 595 938T705 1079T882 1132Q964 1132 1027 1099T1130 1013T1180 901Q1181 892 1181 888T1194 884H1231Q1241 884 1244 887T1248 900V1185Q1248
1192 1246 1194T1236 1196H1204Q1195 1196 1194 1194T1191 1185L1166 1099Q1161 1083 1156 1082T1142 1090Q1097 1138 1030 1170T876 1202Q785 1202 703 1168T557 1072T457 925T420 740Z" />
<glyph unicode="&#xaa;" horiz-adv-x="703" d="M40 1112Q40 1036 93 994T226 952Q289 952 326 968T383 1004T412 1038Q420 1049 423 1049T429 1038Q431 1024 438 1004T468 968T535 952H536Q560 952 583 960T626 986T660 1030Q665 1039 657 1044L635 1058Q627 1064
621 1053Q606 1029 592 1022T564 1014Q552 1014 543 1022T533 1049V1410Q533 1459 518 1502T459 1573T332 1600Q286 1600 241 1589T159 1557T99 1506T76 1436Q76 1396 97 1381T147 1366Q177 1366 195 1385T213 1436Q213 1459 205 1468T188 1482T179 1498Q179 1510
197 1520T245 1538T308 1545Q356 1545 381 1527T415 1477T425 1404V1338Q425 1328 423 1326T410 1323H351Q248 1323 179 1294T75 1216T40 1112ZM162 1130Q162 1176 180 1209T240 1259T351 1277H413Q425 1277 425 1265V1193Q425 1111 383 1065T280 1019Q235 1019
199 1044T162 1130Z" />
<glyph unicode="&#xab;" horiz-adv-x="1390" d="M862 775L1330 1170L1270 1260L610 800V750L1270 290L1330 380L862 775ZM302 775L770 1170L710 1260L50 800V750L710 290L770 380L302 775Z" />
<glyph unicode="&#xac;" horiz-adv-x="971" d="M739 406H852V830H120V716H739V406Z" />
<glyph unicode="&#xad;" horiz-adv-x="920" d="M148 830Q132 830 126 825T120 802V750Q120 731 123 726T146 720H772Q792 720 796 727T800 753V802Q800 820 796 825T774 830H148Z" />
<glyph unicode="&#xae;" horiz-adv-x="1739" d="M870 1520Q704 1520 564 1463T319 1301T158 1057T100 750Q100 584 157 444T318 199T563 38T870 -20Q1036 -20 1176 37T1421 198T1583 443T1641 750Q1641 916 1584 1056T1422 1301T1178 1462T870 1520ZM870 73Q680
73 527 158T284 396T194 750Q194 951 283 1103T525 1341T870 1427Q1013 1427 1136 1378T1351 1239T1494 1025T1546 750Q1546 550 1457 397T1215 159T870 73ZM1357 420Q1359 428 1355 431T1342 437L1312 446Q1303 450 1300 445T1293 433Q1280 402 1263 387T1229
372Q1196 372 1183 391T1168 444T1166 516T1161 597T1135 673T1070 732Q1050 742 1050 748T1068 760Q1153 786 1187 839T1222 966Q1222 1032 1193 1086T1097 1173T922 1206H465Q454 1206 451 1202T448 1186V1167Q448 1151 451 1146T470 1140H551Q570 1140 575 1136T580
1111V398Q580 380 575 376T551 372H470Q457 372 453 369T448 351V325Q448 314 451 310T467 306H806Q818 306 822 309T826 323V350Q826 363 823 367T807 372H718Q704 372 699 375T694 392V689Q694 709 698 714T722 720H874Q940 720 974 697T1021 636T1038 553T1042
462T1055 378T1096 317T1186 294Q1260 294 1300 330T1357 420ZM722 792Q703 792 699 797T694 821V1112Q694 1133 697 1136T722 1140H922Q968 1140 1009 1122T1076 1064T1102 966Q1102 907 1076 869T1009 811T922 792H722Z" />
<glyph unicode="&#xaf;" horiz-adv-x="1000" d="M260 1712Q260 1691 268 1686T295 1680H718Q734 1680 737 1687T740 1710V1741Q740 1761 733 1766T706 1772H280Q267 1772 264 1766T260 1745V1712Z" />
<glyph unicode="&#xb0;" horiz-adv-x="639" d="M320 1120Q422 1120 491 1188T561 1359Q561 1462 492 1531T320 1600Q218 1600 149 1531T80 1359Q80 1257 149 1189T320 1120ZM320 1230Q265 1230 227 1267T189 1359Q189 1415 227 1452T320 1490Q376 1490 413 1453T450
1359Q450 1304 413 1267T320 1230Z" />
<glyph unicode="&#xb1;" horiz-adv-x="1059" d="M473 361H586V716H939V828H586V1180H473V828H120V716H473V361ZM121 -15H940V97H121V-15Z" />
<glyph unicode="&#xb2;" horiz-adv-x="675" d="M634 1109Q634 1120 632 1123T618 1126H594Q582 1126 580 1124T577 1110Q574 1069 550 1046T473 1023Q428 1023 393 1036T324 1062T244 1075Q208 1075 180 1063T130 1029Q118 1016 115 1005T104 994Q99 994 100 1000T107
1015T116 1036Q140 1097 192 1155T330 1262Q394 1298 448 1335T542 1412T604 1498T626 1598Q626 1715 548 1770T342 1826Q254 1826 191 1796T93 1716T59 1611Q59 1582 72 1565T103 1540T139 1532Q163 1532 186 1550T210 1602Q210 1622 202 1635T182 1656T163 1672T154
1690Q154 1707 177 1727T238 1761T324 1776Q405 1776 448 1736T492 1616Q492 1565 475 1523T430 1447T368 1384T300 1333Q175 1245 110 1151T40 931Q40 923 42 919T54 914H83Q95 914 99 919T106 932Q115 951 130 962T172 974Q205 974 237 963T303 938T378 913T466
902Q518 902 557 921T618 985T634 1109Z" />
<glyph unicode="&#xb3;" horiz-adv-x="638" d="M40 1093Q40 1044 70 1000T160 929T311 902Q379 902 432 920T522 972T578 1049T598 1142Q598 1211 567 1269T446 1360Q427 1367 413 1368T398 1376Q398 1386 406 1386T449 1402Q501 1427 528 1463T564 1540T574 1623Q574
1695 537 1740T442 1805T323 1826Q238 1826 184 1799T103 1729T76 1636Q76 1608 88 1591T117 1565T153 1557Q177 1557 199 1575T221 1627Q221 1643 216 1653T202 1671T189 1686T183 1704Q183 1728 212 1752T299 1776Q379 1776 416 1733T453 1623Q453 1597 449 1564T430
1499T383 1443T294 1410Q281 1408 269 1408T248 1405T240 1382V1371Q240 1354 248 1349T268 1345T294 1344Q372 1335 411 1302T463 1226T477 1142Q477 1098 460 1054T404 981T299 952Q249 952 215 964T164 992T147 1026Q147 1036 152 1043T166 1058T179 1076T185
1102Q185 1136 163 1154T117 1172Q91 1172 66 1154T40 1093Z" />
<glyph unicode="&#xb4;" horiz-adv-x="790" d="M605 1440Q634 1441 654 1461T675 1510Q675 1529 664 1546T633 1573T585 1576L148 1470Q129 1466 119 1461T110 1440Q112 1426 118 1423T144 1421L605 1440Z" />
<glyph unicode="&#xb5;" horiz-adv-x="1233" d="M332 847H220V-242Q220 -367 299 -443T500 -520Q550 -520 587 -504T646 -457T667 -380Q667 -326 632 -286T544 -246Q495 -246 458 -278T421 -352Q421 -379 425 -391T434 -407T434 -415Q431 -418 415 -415T380 -396T347
-343T332 -242V847ZM220 302Q220 195 248 124T346 16T544 -20Q675 -20 756 31T886 163Q897 181 903 175T910 159V38Q910 15 916 8T944 0H1242Q1262 0 1266 7T1270 34V86Q1270 102 1260 106T1236 110H1124Q1101 110 1096 116T1090 144V1010Q1090 1027 1086 1033T1066
1040H754Q739 1040 735 1034T730 1012V949Q730 936 737 933T758 930H868Q890 930 900 925T910 896V474Q910 371 871 280T760 131T590 74Q491 74 446 143T400 324V1009Q400 1031 393 1035T362 1040H76Q54 1040 47 1034T40 1004V958Q40 938 48 934T76 930H194Q212
930 216 923T220 897V302Z" />
<glyph unicode="&#xb6;" horiz-adv-x="1332" d="M535 -270Q535 -292 548 -296T581 -300H1207Q1232 -300 1239 -292T1246 -259V-214Q1246 -194 1239 -191T1211 -187H1107Q1079 -187 1073 -172T1066 -132V1336Q1066 1368 1072 1377T1109 1387H1199Q1228 1387 1237
1393T1246 1428V1466Q1246 1489 1238 1494T1209 1500H596Q499 1500 414 1479T264 1413T163 1300T126 1139Q126 1046 163 979T265 867T415 801T596 779H673Q698 779 706 773T715 740V-154Q715 -178 706 -182T673 -187H585Q548 -187 542 -198T535 -246V-270ZM953
-144Q953 -175 943 -181T901 -187H865Q837 -187 833 -174T828 -136V1342Q828 1371 835 1379T871 1387H915Q937 1387 945 1383T953 1358V-144Z" />
<glyph unicode="&#xb7;" horiz-adv-x="395" d="M115 800Q115 767 131 740T175 696T235 680Q268 680 295 696T339 739T355 800Q355 833 339 860T296 903T235 920Q202 920 175 904T132 860T115 800Z" />
<glyph unicode="&#xb8;" horiz-adv-x="1000" d="M345 -480Q345 -510 370 -509Q429 -507 484 -496T585 -462T656 -402T683 -310Q683 -226 633 -192T501 -150Q474 -148 472 -146T482 -126L571 -8Q579 3 582 7T563 12H512Q500 12 497 11T489 2L338 -200Q328 -213
332 -219T365 -229Q410 -233 450 -242T516 -274T541 -336Q541 -385 489 -408T376 -436Q361 -437 353 -441T345 -463V-480Z" />
<glyph unicode="&#xb9;" horiz-adv-x="630" d="M60 935Q60 921 63 917T80 912H550Q564 912 567 917T570 936V960Q570 973 563 975T544 978H410Q389 978 384 983T378 1009V1844Q378 1856 372 1858T355 1860H338Q323 1860 321 1852T313 1835Q287 1777 262 1751T200
1717T106 1710Q89 1710 85 1705T80 1682V1664Q80 1650 87 1647T107 1644H241Q257 1644 260 1638T264 1616V1003Q264 988 260 983T239 978H84Q71 978 66 976T60 960V935Z" />
<glyph unicode="&#xba;" horiz-adv-x="654" d="M166 1286Q166 1333 173 1378T197 1461T246 1521T327 1544Q392 1544 427 1505T475 1401T488 1262Q488 1215 481 1170T457 1087T408 1027T327 1004Q261 1004 227 1043T179 1147T166 1286ZM40 1262Q40 1178 71 1107T166
993T327 950Q423 950 487 994T582 1114T614 1286Q614 1370 583 1441T487 1555T327 1598Q230 1598 167 1554T72 1434T40 1262Z" />
<glyph unicode="&#xbb;" horiz-adv-x="1390" d="M528 775L60 380L120 290L780 750V800L120 1260L60 1170L528 775ZM1088 775L620 380L680 290L1340 750V800L680 1260L620 1170L1088 775Z" />
<glyph unicode="&#xbc;" horiz-adv-x="2000" d="M1402 1440L470 -60H608L1530 1440H1402ZM1688 54Q1688 66 1683 68T1667 70H1621Q1606 70 1602 74T1598 92V257Q1598 270 1601 275T1619 280H1684Q1697 280 1701 283T1706 298V325Q1706 338 1703 342T1687 346H1623Q1607
346 1603 350T1598 372V567Q1598 578 1596 582T1582 586H1579Q1568 586 1567 580T1562 567Q1549 526 1535 503T1499 463Q1491 457 1488 454T1484 436V361Q1484 352 1484 349T1473 346H1238Q1221 346 1213 349T1205 359T1210 375Q1239 421 1286 463T1387 548T1491
639T1577 746T1623 879Q1625 896 1620 900T1597 904H1531Q1513 904 1512 895T1507 872Q1488 801 1451 744T1367 638T1271 543T1182 447T1114 337Q1109 325 1109 320T1116 306L1132 290Q1138 284 1143 282T1162 280H1464Q1478 280 1481 276T1484 257V85Q1484 76
1481 73T1467 70H1388Q1377 70 1374 66T1370 50V23Q1370 11 1374 8T1389 4H1669Q1680 4 1684 6T1688 20V54ZM274 655Q274 641 277 637T294 632H764Q778 632 781 637T784 656V680Q784 693 777 695T758 698H624Q603 698 598 703T592 729V1564Q592 1576 586 1578T569
1580H552Q537 1580 535 1572T527 1555Q501 1497 476 1471T414 1437T320 1430Q303 1430 299 1425T294 1402V1384Q294 1370 301 1367T321 1364H455Q471 1364 474 1358T478 1336V723Q478 708 474 703T453 698H298Q285 698 280 696T274 680V655Z" />
<glyph unicode="&#xbd;" horiz-adv-x="2000" d="M1402 1450L470 -50H608L1530 1450H1402ZM1794 179Q1794 190 1792 193T1778 196H1754Q1742 196 1740 194T1737 180Q1734 139 1710 116T1633 93Q1588 93 1553 106T1484 132T1404 145Q1368 145 1340 133T1290 99Q1278
86 1275 75T1264 64Q1259 64 1260 70T1267 85T1276 106Q1300 167 1352 225T1490 332Q1554 368 1608 405T1702 482T1764 568T1786 668Q1786 785 1708 840T1502 896Q1414 896 1351 866T1253 786T1219 681Q1219 652 1232 635T1263 610T1299 602Q1323 602 1346 620T1370
672Q1370 692 1362 705T1342 726T1323 742T1314 760Q1314 777 1337 797T1398 831T1484 846Q1565 846 1608 806T1652 686Q1652 635 1635 593T1590 517T1528 454T1460 403Q1335 315 1270 221T1200 1Q1200 -7 1202 -11T1214 -16H1243Q1255 -16 1259 -11T1266 2Q1275
21 1290 32T1332 44Q1365 44 1397 33T1463 8T1538 -17T1626 -28Q1678 -28 1717 -9T1778 55T1794 179ZM274 645Q274 631 277 627T294 622H764Q778 622 781 627T784 646V670Q784 683 777 685T758 688H624Q603 688 598 693T592 719V1554Q592 1566 586 1568T569 1570H552Q537
1570 535 1562T527 1545Q501 1487 476 1461T414 1427T320 1420Q303 1420 299 1415T294 1392V1374Q294 1360 301 1357T321 1354H455Q471 1354 474 1348T478 1326V713Q478 698 474 693T453 688H298Q285 688 280 686T274 670V645Z" />
<glyph unicode="&#xbe;" horiz-adv-x="2000" d="M1402 1400L470 -100H608L1530 1400H1402ZM1688 14Q1688 26 1683 28T1667 30H1621Q1606 30 1602 34T1598 52V217Q1598 230 1601 235T1619 240H1684Q1697 240 1701 243T1706 258V285Q1706 298 1703 302T1687 306H1623Q1607
306 1603 310T1598 332V527Q1598 538 1596 542T1582 546H1579Q1568 546 1567 540T1562 527Q1549 486 1535 463T1499 423Q1491 417 1488 414T1484 396V321Q1484 312 1484 309T1473 306H1238Q1221 306 1213 309T1205 319T1210 335Q1239 381 1286 423T1387 508T1491
599T1577 706T1623 839Q1625 856 1620 860T1597 864H1531Q1513 864 1512 855T1507 832Q1488 761 1451 704T1367 598T1271 503T1182 407T1114 297Q1109 285 1109 280T1116 266L1132 250Q1138 244 1143 242T1162 240H1464Q1478 240 1481 236T1484 217V45Q1484 36
1481 33T1467 30H1388Q1377 30 1374 26T1370 10V-17Q1370 -29 1374 -32T1389 -36H1669Q1680 -36 1684 -34T1688 -20V14ZM160 793Q160 744 190 700T280 629T431 602Q499 602 552 620T642 672T698 749T718 842Q718 911 687 969T566 1060Q547 1067 533 1068T518 1076Q518
1086 526 1086T569 1102Q621 1127 648 1163T684 1240T694 1323Q694 1395 657 1440T562 1505T443 1526Q358 1526 304 1499T223 1429T196 1336Q196 1308 208 1291T237 1265T273 1257Q297 1257 319 1275T341 1327Q341 1343 336 1353T322 1371T309 1386T303 1404Q303
1428 332 1452T419 1476Q499 1476 536 1433T573 1323Q573 1297 569 1264T550 1199T503 1143T414 1110Q401 1108 389 1108T368 1105T360 1082V1071Q360 1054 368 1049T388 1045T414 1044Q492 1035 531 1002T583 926T597 842Q597 798 580 754T524 681T419 652Q369
652 335 664T284 692T267 726Q267 736 272 743T286 758T299 776T305 802Q305 836 283 854T237 872Q211 872 186 854T160 793Z" />
<glyph unicode="&#xbf;" horiz-adv-x="1100" d="M792 -284Q792 -317 743 -356T568 -396Q469 -396 409 -353T320 -242T292 -100Q292 45 382 160T617 329Q640 337 648 347T656 389V585Q656 611 647 616T612 622H575Q552 622 544 617T536 589V453Q536 421 525 414T489
400Q366 369 277 298T139 133T90 -60Q90 -190 142 -284T301 -429T568 -480Q710 -480 806 -430T951 -302T1000 -142Q1000 -94 981 -63T932 -16T866 0Q831 0 800 -12T750 -51T730 -120Q730 -158 739 -180T761 -217T782 -246T792 -284ZM677 940Q677 973 661 1000T618
1044T557 1060Q524 1060 497 1044T454 1001T437 940Q437 907 453 880T497 837T557 820Q590 820 617 836T661 880T677 940Z" />
<glyph unicode="&#xc0;" horiz-adv-x="1720" d="M888 1669Q899 1662 904 1664T918 1675L952 1711Q969 1729 951 1747L757 1936Q739 1955 713 1959T663 1953T625 1920Q603 1883 615 1853T652 1807L888 1669ZM816 1262Q827 1288 832 1287T848 1256L1096 596Q1108
564 1106 557T1058 550H552Q525 550 521 555T524 578L816 1262ZM0 42Q0 12 11 6T50 0H528Q552 0 556 4T560 32V80Q560 99 553 104T528 110H377Q344 110 340 122T346 158L449 400Q459 423 470 431T516 440H1096Q1144 440 1153 430T1175 386L1265 146Q1270 132 1271
121T1248 110H1096Q1077 110 1069 105T1060 78V32Q1060 10 1069 5T1098 0H1688Q1711 0 1715 6T1720 35V79Q1720 99 1716 104T1692 110H1534Q1500 110 1494 120T1478 154L935 1518Q932 1526 927 1528T909 1530H829Q819 1530 815 1529T808 1520L215 150Q206 129 196
120T154 110H28Q12 110 6 105T0 84V42Z" />
<glyph unicode="&#xc1;" horiz-adv-x="1720" d="M809 1677Q820 1665 827 1665T848 1674L1076 1807Q1102 1822 1113 1852T1103 1920Q1090 1943 1066 1953T1016 1959T971 1936L775 1745Q759 1730 775 1713L809 1677ZM816 1262Q827 1288 832 1287T848 1256L1096 596Q1108
564 1106 557T1058 550H552Q525 550 521 555T524 578L816 1262ZM0 42Q0 12 11 6T50 0H528Q552 0 556 4T560 32V80Q560 99 553 104T528 110H377Q344 110 340 122T346 158L449 400Q459 423 470 431T516 440H1096Q1144 440 1153 430T1175 386L1265 146Q1270 132 1271
121T1248 110H1096Q1077 110 1069 105T1060 78V32Q1060 10 1069 5T1098 0H1688Q1711 0 1715 6T1720 35V79Q1720 99 1716 104T1692 110H1534Q1500 110 1494 120T1478 154L935 1518Q932 1526 927 1528T909 1530H829Q819 1530 815 1529T808 1520L215 150Q206 129 196
120T154 110H28Q12 110 6 105T0 84V42Z" />
<glyph unicode="&#xc2;" horiz-adv-x="1720" d="M607 1690Q626 1671 643 1684L840 1831Q864 1849 890 1830L1085 1685Q1098 1676 1102 1676T1117 1686L1150 1719Q1158 1727 1158 1730T1149 1740L957 1932Q948 1941 940 1945T911 1949H826Q804 1949 794 1946T773
1932L585 1744Q574 1733 574 1729T585 1714L607 1690ZM816 1262Q827 1288 832 1287T848 1256L1096 596Q1108 564 1106 557T1058 550H552Q525 550 521 555T524 578L816 1262ZM0 42Q0 12 11 6T50 0H528Q552 0 556 4T560 32V80Q560 99 553 104T528 110H377Q344 110
340 122T346 158L449 400Q459 423 470 431T516 440H1096Q1144 440 1153 430T1175 386L1265 146Q1270 132 1271 121T1248 110H1096Q1077 110 1069 105T1060 78V32Q1060 10 1069 5T1098 0H1688Q1711 0 1715 6T1720 35V79Q1720 99 1716 104T1692 110H1534Q1500 110
1494 120T1478 154L935 1518Q932 1526 927 1528T909 1530H829Q819 1530 815 1529T808 1520L215 150Q206 129 196 120T154 110H28Q12 110 6 105T0 84V42Z" />
<glyph unicode="&#xc3;" horiz-adv-x="1720" d="M1014 1680Q1083 1680 1126 1707T1192 1786T1216 1912Q1217 1924 1214 1929T1197 1934H1164Q1150 1934 1147 1929T1142 1912Q1134 1796 1031 1796Q991 1796 965 1823T917 1875Q888 1907 847 1930T742 1954Q680 1954
633 1925T556 1845T521 1730Q520 1715 522 1708T542 1700H574Q593 1700 594 1714Q596 1774 622 1806T705 1838Q750 1838 780 1811T836 1759Q868 1728 909 1704T1014 1680ZM816 1262Q827 1288 832 1287T848 1256L1096 596Q1108 564 1106 557T1058 550H552Q525 550
521 555T524 578L816 1262ZM0 42Q0 12 11 6T50 0H528Q552 0 556 4T560 32V80Q560 99 553 104T528 110H377Q344 110 340 122T346 158L449 400Q459 423 470 431T516 440H1096Q1144 440 1153 430T1175 386L1265 146Q1270 132 1271 121T1248 110H1096Q1077 110 1069
105T1060 78V32Q1060 10 1069 5T1098 0H1688Q1711 0 1715 6T1720 35V79Q1720 99 1716 104T1692 110H1534Q1500 110 1494 120T1478 154L935 1518Q932 1526 927 1528T909 1530H829Q819 1530 815 1529T808 1520L215 150Q206 129 196 120T154 110H28Q12 110 6 105T0
84V42Z" />
<glyph unicode="&#xc4;" horiz-adv-x="1720" d="M1023 1690Q1063 1690 1091 1718T1119 1786Q1119 1826 1091 1854T1023 1883Q983 1883 955 1855T927 1786Q927 1746 955 1718T1023 1690ZM703 1690Q743 1690 771 1718T799 1786Q799 1826 771 1854T703 1883Q663 1883
635 1855T607 1786Q607 1746 635 1718T703 1690ZM816 1262Q827 1288 832 1287T848 1256L1096 596Q1108 564 1106 557T1058 550H552Q525 550 521 555T524 578L816 1262ZM0 42Q0 12 11 6T50 0H528Q552 0 556 4T560 32V80Q560 99 553 104T528 110H377Q344 110 340
122T346 158L449 400Q459 423 470 431T516 440H1096Q1144 440 1153 430T1175 386L1265 146Q1270 132 1271 121T1248 110H1096Q1077 110 1069 105T1060 78V32Q1060 10 1069 5T1098 0H1688Q1711 0 1715 6T1720 35V79Q1720 99 1716 104T1692 110H1534Q1500 110 1494
120T1478 154L935 1518Q932 1526 927 1528T909 1530H829Q819 1530 815 1529T808 1520L215 150Q206 129 196 120T154 110H28Q12 110 6 105T0 84V42Z" />
<glyph unicode="&#xc5;" horiz-adv-x="1720" d="M864 1680Q915 1680 955 1703T1020 1768T1044 1859Q1044 1910 1021 1951T956 2016T864 2040Q814 2040 773 2016T709 1951T685 1859Q685 1809 708 1768T773 1704T864 1680ZM864 1754Q819 1754 791 1782T763 1859Q763
1906 791 1936T864 1967Q909 1967 937 1937T966 1859Q966 1811 938 1783T864 1754ZM816 1262Q827 1288 832 1287T848 1256L1096 596Q1108 564 1106 557T1058 550H552Q525 550 521 555T524 578L816 1262ZM0 42Q0 12 11 6T50 0H528Q552 0 556 4T560 32V80Q560 99
553 104T528 110H377Q344 110 340 122T346 158L449 400Q459 423 470 431T516 440H1096Q1144 440 1153 430T1175 386L1265 146Q1270 132 1271 121T1248 110H1096Q1077 110 1069 105T1060 78V32Q1060 10 1069 5T1098 0H1688Q1711 0 1715 6T1720 35V79Q1720 99 1716
104T1692 110H1534Q1500 110 1494 120T1478 154L935 1518Q932 1526 927 1528T909 1530H829Q819 1530 815 1529T808 1520L215 150Q206 129 196 120T154 110H28Q12 110 6 105T0 84V42Z" />
<glyph unicode="&#xc6;" horiz-adv-x="2505" d="M0 42Q0 12 11 6T50 0H528Q552 0 556 4T560 32V80Q560 99 553 104T528 110H377Q344 110 337 121T346 158L529 400Q543 421 556 430T596 440H1354L1374 550H682Q655 550 650 556T654 578L1219 1351Q1230 1366 1232
1374T1243 1386T1278 1390H1522Q1542 1390 1546 1397T1550 1423V1472Q1550 1490 1546 1495T1524 1500H898Q882 1500 876 1495T870 1472V1420Q870 1401 873 1396T896 1390H1024Q1077 1390 1091 1386T1082 1349L215 150Q201 128 189 119T144 110H28Q0 110 0 84V42ZM1236
1390Q1267 1390 1276 1385T1285 1348V166Q1285 129 1277 120T1231 110H1101Q1081 110 1073 106T1065 82V36Q1065 12 1074 6T1105 0H2343Q2363 0 2369 6T2375 34V480Q2375 500 2366 505T2337 510H2299Q2286 510 2281 504T2275 478Q2273 334 2243 254T2140 142T1935
110H1519Q1490 110 1483 118T1475 154V692Q1475 719 1481 727T1513 736H1645Q1725 736 1775 709T1852 636T1883 530Q1885 507 1893 502T1910 496H1943Q1965 496 1970 504T1975 536V1016Q1975 1033 1968 1039T1944 1046H1911Q1896 1046 1891 1040T1884 1014Q1877
926 1821 871T1645 816H1509Q1485 816 1480 827T1475 860V1346Q1475 1375 1483 1382T1519 1390H1955Q2067 1390 2131 1361T2223 1261T2255 1068Q2256 1049 2260 1040T2287 1030H2327Q2353 1030 2354 1038T2355 1070V1452Q2355 1487 2346 1493T2301 1500H1099Q1077
1500 1071 1493T1065 1462V1432Q1065 1409 1070 1400T1101 1390H1236Z" />
<glyph unicode="&#xc7;" horiz-adv-x="1620" d="M655 -495Q655 -525 680 -524Q739 -522 794 -511T895 -477T966 -417T993 -325Q993 -241 943 -207T811 -165Q784 -163 782 -161T792 -141L881 -23Q889 -12 892 -8T873 -3H822Q810 -3 807 -4T799 -13L648 -215Q638
-228 642 -234T675 -244Q720 -248 760 -257T826 -289T851 -351Q851 -400 799 -423T686 -451Q671 -452 663 -456T655 -478V-495ZM110 750Q110 583 163 442T315 198T546 37T840 -20Q1041 -20 1186 58T1414 271T1509 576Q1510 586 1505 588T1488 590H1418Q1408 590
1404 587T1398 574Q1385 455 1319 346T1137 167T860 98Q686 98 571 185T398 420T340 750Q340 932 402 1080T585 1316T880 1404Q1017 1404 1122 1348T1293 1204T1376 1019Q1379 1003 1380 997T1400 990H1461Q1478 990 1484 995T1490 1016V1491Q1490 1503 1487 1506T1470
1510H1416Q1402 1510 1400 1507T1395 1492L1353 1349Q1345 1321 1337 1319T1314 1333Q1238 1413 1127 1466T870 1520Q718 1520 581 1463T338 1303T171 1058T110 750Z" />
<glyph unicode="&#xc8;" horiz-adv-x="1515" d="M818 1669Q829 1662 834 1664T848 1675L882 1711Q899 1729 881 1747L687 1936Q669 1955 643 1959T593 1953T555 1920Q533 1883 545 1853T582 1807L818 1669ZM246 1390Q277 1390 286 1385T295 1348V166Q295 129 287
120T241 110H111Q91 110 83 106T75 82V36Q75 12 84 6T115 0H1353Q1373 0 1379 6T1385 34V480Q1385 500 1376 505T1347 510H1309Q1296 510 1291 504T1285 478Q1283 334 1253 254T1150 142T945 110H529Q500 110 493 118T485 154V692Q485 719 491 727T523 736H655Q735
736 785 709T862 636T893 530Q895 507 903 502T920 496H953Q975 496 980 504T985 536V1016Q985 1033 978 1039T954 1046H921Q906 1046 901 1040T894 1014Q887 926 831 871T655 816H519Q495 816 490 827T485 860V1346Q485 1375 493 1382T529 1390H965Q1077 1390
1141 1361T1233 1261T1265 1068Q1266 1049 1270 1040T1297 1030H1337Q1363 1030 1364 1038T1365 1070V1452Q1365 1487 1356 1493T1311 1500H109Q87 1500 81 1493T75 1462V1432Q75 1409 80 1400T111 1390H246Z" />
<glyph unicode="&#xc9;" horiz-adv-x="1515" d="M739 1677Q750 1665 757 1665T778 1674L1006 1807Q1032 1822 1043 1852T1033 1920Q1020 1943 996 1953T946 1959T901 1936L705 1745Q689 1730 705 1713L739 1677ZM246 1390Q277 1390 286 1385T295 1348V166Q295
129 287 120T241 110H111Q91 110 83 106T75 82V36Q75 12 84 6T115 0H1353Q1373 0 1379 6T1385 34V480Q1385 500 1376 505T1347 510H1309Q1296 510 1291 504T1285 478Q1283 334 1253 254T1150 142T945 110H529Q500 110 493 118T485 154V692Q485 719 491 727T523
736H655Q735 736 785 709T862 636T893 530Q895 507 903 502T920 496H953Q975 496 980 504T985 536V1016Q985 1033 978 1039T954 1046H921Q906 1046 901 1040T894 1014Q887 926 831 871T655 816H519Q495 816 490 827T485 860V1346Q485 1375 493 1382T529 1390H965Q1077
1390 1141 1361T1233 1261T1265 1068Q1266 1049 1270 1040T1297 1030H1337Q1363 1030 1364 1038T1365 1070V1452Q1365 1487 1356 1493T1311 1500H109Q87 1500 81 1493T75 1462V1432Q75 1409 80 1400T111 1390H246Z" />
<glyph unicode="&#xca;" horiz-adv-x="1515" d="M537 1690Q556 1671 573 1684L770 1831Q794 1849 820 1830L1015 1685Q1028 1676 1032 1676T1047 1686L1080 1719Q1088 1727 1088 1730T1079 1740L887 1932Q878 1941 870 1945T841 1949H756Q734 1949 724 1946T703
1932L515 1744Q504 1733 504 1729T515 1714L537 1690ZM246 1390Q277 1390 286 1385T295 1348V166Q295 129 287 120T241 110H111Q91 110 83 106T75 82V36Q75 12 84 6T115 0H1353Q1373 0 1379 6T1385 34V480Q1385 500 1376 505T1347 510H1309Q1296 510 1291 504T1285
478Q1283 334 1253 254T1150 142T945 110H529Q500 110 493 118T485 154V692Q485 719 491 727T523 736H655Q735 736 785 709T862 636T893 530Q895 507 903 502T920 496H953Q975 496 980 504T985 536V1016Q985 1033 978 1039T954 1046H921Q906 1046 901 1040T894
1014Q887 926 831 871T655 816H519Q495 816 490 827T485 860V1346Q485 1375 493 1382T529 1390H965Q1077 1390 1141 1361T1233 1261T1265 1068Q1266 1049 1270 1040T1297 1030H1337Q1363 1030 1364 1038T1365 1070V1452Q1365 1487 1356 1493T1311 1500H109Q87 1500
81 1493T75 1462V1432Q75 1409 80 1400T111 1390H246Z" />
<glyph unicode="&#xcb;" horiz-adv-x="1515" d="M953 1690Q993 1690 1021 1718T1049 1786Q1049 1826 1021 1854T953 1883Q913 1883 885 1855T857 1786Q857 1746 885 1718T953 1690ZM633 1690Q673 1690 701 1718T729 1786Q729 1826 701 1854T633 1883Q593 1883
565 1855T537 1786Q537 1746 565 1718T633 1690ZM246 1390Q277 1390 286 1385T295 1348V166Q295 129 287 120T241 110H111Q91 110 83 106T75 82V36Q75 12 84 6T115 0H1353Q1373 0 1379 6T1385 34V480Q1385 500 1376 505T1347 510H1309Q1296 510 1291 504T1285 478Q1283
334 1253 254T1150 142T945 110H529Q500 110 493 118T485 154V692Q485 719 491 727T523 736H655Q735 736 785 709T862 636T893 530Q895 507 903 502T920 496H953Q975 496 980 504T985 536V1016Q985 1033 978 1039T954 1046H921Q906 1046 901 1040T894 1014Q887
926 831 871T655 816H519Q495 816 490 827T485 860V1346Q485 1375 493 1382T529 1390H965Q1077 1390 1141 1361T1233 1261T1265 1068Q1266 1049 1270 1040T1297 1030H1337Q1363 1030 1364 1038T1365 1070V1452Q1365 1487 1356 1493T1311 1500H109Q87 1500 81 1493T75
1462V1432Q75 1409 80 1400T111 1390H246Z" />
<glyph unicode="&#xcc;" horiz-adv-x="830" d="M430 1669Q441 1662 446 1664T460 1675L494 1711Q511 1729 493 1747L299 1936Q281 1955 255 1959T205 1953T167 1920Q145 1883 157 1853T194 1807L430 1669ZM500 1354Q500 1379 507 1384T538 1390H698Q717 1390 728
1398T740 1432V1466Q740 1489 734 1494T704 1500H120Q103 1500 97 1497T90 1474V1420Q90 1404 97 1397T124 1390H280Q303 1390 306 1383T310 1356V160Q310 126 289 118T242 110H136Q108 110 99 104T90 82V32Q90 13 99 7T130 0H700Q721 0 730 7T740 32V78Q740 92
736 101T718 110H538Q516 110 508 119T500 154V1354Z" />
<glyph unicode="&#xcd;" horiz-adv-x="830" d="M607 1677Q618 1665 625 1665T646 1674L874 1807Q900 1822 911 1852T901 1920Q888 1943 864 1953T814 1959T769 1936L573 1745Q557 1730 573 1713L607 1677ZM500 1354Q500 1379 507 1384T538 1390H698Q717 1390 728
1398T740 1432V1466Q740 1489 734 1494T704 1500H120Q103 1500 97 1497T90 1474V1420Q90 1404 97 1397T124 1390H280Q303 1390 306 1383T310 1356V160Q310 126 289 118T242 110H136Q108 110 99 104T90 82V32Q90 13 99 7T130 0H700Q721 0 730 7T740 32V78Q740 92
736 101T718 110H538Q516 110 508 119T500 154V1354Z" />
<glyph unicode="&#xce;" horiz-adv-x="830" d="M405 1690Q424 1671 441 1684L638 1831Q662 1849 688 1830L883 1685Q896 1676 900 1676T915 1686L948 1719Q956 1727 956 1730T947 1740L755 1932Q746 1941 738 1945T709 1949H624Q602 1949 592 1946T571 1932L383
1744Q372 1733 372 1729T383 1714L405 1690ZM500 1354Q500 1379 507 1384T538 1390H698Q717 1390 728 1398T740 1432V1466Q740 1489 734 1494T704 1500H120Q103 1500 97 1497T90 1474V1420Q90 1404 97 1397T124 1390H280Q303 1390 306 1383T310 1356V160Q310 126
289 118T242 110H136Q108 110 99 104T90 82V32Q90 13 99 7T130 0H700Q721 0 730 7T740 32V78Q740 92 736 101T718 110H538Q516 110 508 119T500 154V1354Z" />
<glyph unicode="&#xcf;" horiz-adv-x="830" d="M821 1690Q861 1690 889 1718T917 1786Q917 1826 889 1854T821 1883Q781 1883 753 1855T725 1786Q725 1746 753 1718T821 1690ZM501 1690Q541 1690 569 1718T597 1786Q597 1826 569 1854T501 1883Q461 1883 433 1855T405
1786Q405 1746 433 1718T501 1690ZM500 1354Q500 1379 507 1384T538 1390H698Q717 1390 728 1398T740 1432V1466Q740 1489 734 1494T704 1500H120Q103 1500 97 1497T90 1474V1420Q90 1404 97 1397T124 1390H280Q303 1390 306 1383T310 1356V160Q310 126 289 118T242
110H136Q108 110 99 104T90 82V32Q90 13 99 7T130 0H700Q721 0 730 7T740 32V78Q740 92 736 101T718 110H538Q516 110 508 119T500 154V1354Z" />
<glyph unicode="&#xd0;" horiz-adv-x="1645" d="M110 840Q91 840 84 835T76 812V760Q76 741 80 736T108 730H869Q893 730 898 737T903 763V812Q903 830 898 835T872 840H110ZM75 34Q75 13 81 7T110 0H815Q975 0 1107 56T1335 215T1483 453T1535 750Q1535 910 1486
1046T1343 1285T1116 1443T815 1500H130Q107 1500 91 1495T75 1471V1426Q75 1400 88 1395T132 1390H260Q286 1390 290 1381T295 1346V150Q295 127 291 119T264 110H110Q87 110 81 103T75 72V34ZM526 110Q501 110 493 115T485 144V1346Q485 1375 492 1382T528 1390H815Q989
1390 1097 1306T1255 1077T1305 750Q1305 568 1259 423T1106 194T815 110H526Z" />
<glyph unicode="&#xd1;" horiz-adv-x="1750" d="M1046 1680Q1115 1680 1158 1707T1224 1786T1248 1912Q1249 1924 1246 1929T1229 1934H1196Q1182 1934 1179 1929T1174 1912Q1166 1796 1063 1796Q1023 1796 997 1823T949 1875Q920 1907 879 1930T774 1954Q712
1954 665 1925T588 1845T553 1730Q552 1715 554 1708T574 1700H606Q625 1700 626 1714Q628 1774 654 1806T737 1838Q782 1838 812 1811T868 1759Q900 1728 941 1704T1046 1680ZM234 1390Q269 1390 279 1383T290 1341V161Q290 127 280 119T235 110H126Q103 110 92
105T80 73V37Q80 12 88 6T122 0H608Q633 0 641 6T650 39V69Q650 91 645 100T616 110H464Q435 110 428 117T420 153V1167Q420 1241 435 1247T472 1225L1411 5Q1421 -8 1432 -14T1466 -20H1472Q1492 -20 1496 -7T1500 25V1339Q1500 1372 1508 1381T1548 1390H1674Q1700
1390 1705 1399T1710 1434V1471Q1710 1493 1695 1496T1660 1500H1198Q1167 1500 1159 1487T1150 1443V1421Q1150 1396 1174 1393T1220 1390H1318Q1350 1390 1360 1383T1370 1343V457Q1370 397 1356 390T1322 408L532 1445Q509 1476 494 1488T420 1500H116Q90 1500
85 1491T80 1455V1425Q80 1405 86 1398T114 1390H234Z" />
<glyph unicode="&#xd2;" horiz-adv-x="1660" d="M850 1669Q861 1662 866 1664T880 1675L914 1711Q931 1729 913 1747L719 1936Q701 1955 675 1959T625 1953T587 1920Q565 1883 577 1853T614 1807L850 1669ZM110 750Q110 590 159 451T302 205T529 40T830 -20Q990
-20 1122 39T1350 205T1498 450T1550 750Q1550 910 1501 1049T1358 1295T1131 1460T830 1520Q663 1520 530 1461T303 1295T160 1050T110 750ZM340 750Q340 887 368 1008T454 1221T606 1367T830 1420Q961 1420 1054 1367T1205 1222T1292 1008T1320 750Q1320 614
1295 493T1213 279T1062 133T830 80Q700 80 607 133T455 278T368 492T340 750Z" />
<glyph unicode="&#xd3;" horiz-adv-x="1660" d="M771 1677Q782 1665 789 1665T810 1674L1038 1807Q1064 1822 1075 1852T1065 1920Q1052 1943 1028 1953T978 1959T933 1936L737 1745Q721 1730 737 1713L771 1677ZM110 750Q110 590 159 451T302 205T529 40T830
-20Q990 -20 1122 39T1350 205T1498 450T1550 750Q1550 910 1501 1049T1358 1295T1131 1460T830 1520Q663 1520 530 1461T303 1295T160 1050T110 750ZM340 750Q340 887 368 1008T454 1221T606 1367T830 1420Q961 1420 1054 1367T1205 1222T1292 1008T1320 750Q1320
614 1295 493T1213 279T1062 133T830 80Q700 80 607 133T455 278T368 492T340 750Z" />
<glyph unicode="&#xd4;" horiz-adv-x="1660" d="M569 1690Q588 1671 605 1684L802 1831Q826 1849 852 1830L1047 1685Q1060 1676 1064 1676T1079 1686L1112 1719Q1120 1727 1120 1730T1111 1740L919 1932Q910 1941 902 1945T873 1949H788Q766 1949 756 1946T735
1932L547 1744Q536 1733 536 1729T547 1714L569 1690ZM110 750Q110 590 159 451T302 205T529 40T830 -20Q990 -20 1122 39T1350 205T1498 450T1550 750Q1550 910 1501 1049T1358 1295T1131 1460T830 1520Q663 1520 530 1461T303 1295T160 1050T110 750ZM340 750Q340
887 368 1008T454 1221T606 1367T830 1420Q961 1420 1054 1367T1205 1222T1292 1008T1320 750Q1320 614 1295 493T1213 279T1062 133T830 80Q700 80 607 133T455 278T368 492T340 750Z" />
<glyph unicode="&#xd5;" horiz-adv-x="1660" d="M976 1680Q1045 1680 1088 1707T1154 1786T1178 1912Q1179 1924 1176 1929T1159 1934H1126Q1112 1934 1109 1929T1104 1912Q1096 1796 993 1796Q953 1796 927 1823T879 1875Q850 1907 809 1930T704 1954Q642 1954
595 1925T518 1845T483 1730Q482 1715 484 1708T504 1700H536Q555 1700 556 1714Q558 1774 584 1806T667 1838Q712 1838 742 1811T798 1759Q830 1728 871 1704T976 1680ZM110 750Q110 590 159 451T302 205T529 40T830 -20Q990 -20 1122 39T1350 205T1498 450T1550
750Q1550 910 1501 1049T1358 1295T1131 1460T830 1520Q663 1520 530 1461T303 1295T160 1050T110 750ZM340 750Q340 887 368 1008T454 1221T606 1367T830 1420Q961 1420 1054 1367T1205 1222T1292 1008T1320 750Q1320 614 1295 493T1213 279T1062 133T830 80Q700
80 607 133T455 278T368 492T340 750Z" />
<glyph unicode="&#xd6;" horiz-adv-x="1660" d="M990 1640Q1030 1640 1058 1668T1086 1736Q1086 1776 1058 1804T990 1833Q950 1833 922 1805T894 1736Q894 1696 922 1668T990 1640ZM670 1640Q710 1640 738 1668T766 1736Q766 1776 738 1804T670 1833Q630 1833
602 1805T574 1736Q574 1696 602 1668T670 1640ZM110 750Q110 590 159 451T302 205T529 40T830 -20Q990 -20 1122 39T1350 205T1498 450T1550 750Q1550 910 1501 1049T1358 1295T1131 1460T830 1520Q663 1520 530 1461T303 1295T160 1050T110 750ZM340 750Q340
887 368 1008T454 1221T606 1367T830 1420Q961 1420 1054 1367T1205 1222T1292 1008T1320 750Q1320 614 1295 493T1213 279T1062 133T830 80Q700 80 607 133T455 278T368 492T340 750Z" />
<glyph unicode="&#xd7;" horiz-adv-x="1003" d="M525 886Q509 869 500 869T473 887L270 1090Q259 1101 252 1103T234 1095L194 1055Q180 1041 181 1033T194 1013L399 808Q415 792 415 783T399 760L193 553Q182 542 181 534T191 513L229 475Q242 462 249 462T270
475L476 680Q494 699 503 698T530 677L739 468Q749 458 754 459T771 472L812 513Q821 522 823 528T816 544L602 758Q585 775 587 784T606 811L817 1021Q826 1030 824 1036T812 1052L771 1092Q759 1105 750 1103T727 1088L525 886Z" />
<glyph unicode="&#xd8;" horiz-adv-x="1660" d="M110 750Q110 590 159 451T302 205T529 40T830 -20Q990 -20 1122 39T1350 205T1498 450T1550 750Q1550 910 1501 1049T1358 1295T1131 1460T830 1520Q663 1520 530 1461T303 1295T160 1050T110 750ZM340 750Q340
887 368 1008T454 1221T606 1367T830 1420Q961 1420 1054 1367T1205 1222T1292 1008T1320 750Q1320 614 1295 493T1213 279T1062 133T830 80Q700 80 607 133T455 278T368 492T340 750ZM1186 1660Q1156 1660 1147 1653T1130 1626L409 -158Q400 -181 406 -190T449
-200H481Q512 -200 523 -195T543 -168L1260 1630Q1268 1649 1264 1654T1231 1660H1186Z" />
<glyph unicode="&#xd9;" horiz-adv-x="1680" d="M900 1669Q911 1662 916 1664T930 1675L964 1711Q981 1729 963 1747L769 1936Q751 1955 725 1959T675 1953T637 1920Q615 1883 627 1853T664 1807L900 1669ZM1248 1390Q1277 1390 1283 1382T1290 1345V600Q1290
418 1252 306T1124 142T880 90Q716 90 625 159T497 348T460 620V1345Q460 1377 469 1383T510 1390H652Q681 1390 690 1397T700 1435V1463Q700 1489 689 1494T654 1500H92Q70 1500 60 1495T50 1465V1433Q50 1408 54 1399T84 1390H220Q246 1390 258 1384T270 1349V600Q270
463 301 348T400 148T579 17T850 -30Q1147 -30 1278 124T1410 600V1351Q1410 1378 1418 1384T1454 1390H1588Q1612 1390 1621 1396T1630 1427V1461Q1630 1488 1621 1494T1586 1500H1080Q1056 1500 1048 1494T1040 1461V1423Q1040 1403 1045 1397T1070 1390H1248Z"
/>
<glyph unicode="&#xda;" horiz-adv-x="1680" d="M821 1677Q832 1665 839 1665T860 1674L1088 1807Q1114 1822 1125 1852T1115 1920Q1102 1943 1078 1953T1028 1959T983 1936L787 1745Q771 1730 787 1713L821 1677ZM1248 1390Q1277 1390 1283 1382T1290 1345V600Q1290
418 1252 306T1124 142T880 90Q716 90 625 159T497 348T460 620V1345Q460 1377 469 1383T510 1390H652Q681 1390 690 1397T700 1435V1463Q700 1489 689 1494T654 1500H92Q70 1500 60 1495T50 1465V1433Q50 1408 54 1399T84 1390H220Q246 1390 258 1384T270 1349V600Q270
463 301 348T400 148T579 17T850 -30Q1147 -30 1278 124T1410 600V1351Q1410 1378 1418 1384T1454 1390H1588Q1612 1390 1621 1396T1630 1427V1461Q1630 1488 1621 1494T1586 1500H1080Q1056 1500 1048 1494T1040 1461V1423Q1040 1403 1045 1397T1070 1390H1248Z"
/>
<glyph unicode="&#xdb;" horiz-adv-x="1680" d="M619 1690Q638 1671 655 1684L852 1831Q876 1849 902 1830L1097 1685Q1110 1676 1114 1676T1129 1686L1162 1719Q1170 1727 1170 1730T1161 1740L969 1932Q960 1941 952 1945T923 1949H838Q816 1949 806 1946T785
1932L597 1744Q586 1733 586 1729T597 1714L619 1690ZM1248 1390Q1277 1390 1283 1382T1290 1345V600Q1290 418 1252 306T1124 142T880 90Q716 90 625 159T497 348T460 620V1345Q460 1377 469 1383T510 1390H652Q681 1390 690 1397T700 1435V1463Q700 1489 689
1494T654 1500H92Q70 1500 60 1495T50 1465V1433Q50 1408 54 1399T84 1390H220Q246 1390 258 1384T270 1349V600Q270 463 301 348T400 148T579 17T850 -30Q1147 -30 1278 124T1410 600V1351Q1410 1378 1418 1384T1454 1390H1588Q1612 1390 1621 1396T1630 1427V1461Q1630
1488 1621 1494T1586 1500H1080Q1056 1500 1048 1494T1040 1461V1423Q1040 1403 1045 1397T1070 1390H1248Z" />
<glyph unicode="&#xdc;" horiz-adv-x="1680" d="M999 1640Q1039 1640 1067 1668T1095 1736Q1095 1776 1067 1804T999 1833Q959 1833 931 1805T903 1736Q903 1696 931 1668T999 1640ZM679 1640Q719 1640 747 1668T775 1736Q775 1776 747 1804T679 1833Q639 1833
611 1805T583 1736Q583 1696 611 1668T679 1640ZM1248 1390Q1277 1390 1283 1382T1290 1345V600Q1290 418 1252 306T1124 142T880 90Q716 90 625 159T497 348T460 620V1345Q460 1377 469 1383T510 1390H652Q681 1390 690 1397T700 1435V1463Q700 1489 689 1494T654
1500H92Q70 1500 60 1495T50 1465V1433Q50 1408 54 1399T84 1390H220Q246 1390 258 1384T270 1349V600Q270 463 301 348T400 148T579 17T850 -30Q1147 -30 1278 124T1410 600V1351Q1410 1378 1418 1384T1454 1390H1588Q1612 1390 1621 1396T1630 1427V1461Q1630
1488 1621 1494T1586 1500H1080Q1056 1500 1048 1494T1040 1461V1423Q1040 1403 1045 1397T1070 1390H1248Z" />
<glyph unicode="&#xdd;" horiz-adv-x="1570" d="M761 1677Q772 1665 779 1665T800 1674L1028 1807Q1054 1822 1065 1852T1055 1920Q1042 1943 1018 1953T968 1959T923 1936L727 1745Q711 1730 727 1713L761 1677ZM490 34Q490 9 502 5T536 0H1090Q1117 0 1128 5T1140
40V86Q1140 102 1134 106T1110 110H940Q910 110 905 115T900 150V602Q900 648 908 668T932 714L1335 1332Q1354 1361 1365 1375T1428 1390H1524Q1553 1390 1561 1397T1570 1432V1460Q1570 1483 1566 1491T1538 1500H1006Q981 1500 976 1492T970 1458V1424Q970 1404
976 1397T1004 1390H1160Q1211 1390 1218 1385T1206 1348L864 822Q847 795 839 786T822 785T796 820L439 1352Q426 1372 435 1381T484 1390H622Q648 1390 654 1398T660 1432V1464Q660 1487 654 1493T626 1500H34Q12 1500 6 1493T0 1462V1416Q0 1397 7 1394T34 1390H140Q181
1390 192 1384T218 1354L683 658Q700 633 705 609T710 540V148Q710 123 703 117T670 110H534Q509 110 500 104T490 70V34Z" />
<glyph unicode="&#xde;" horiz-adv-x="1380" d="M535 454Q504 454 495 460T485 498V1035Q485 1055 490 1064T514 1074H785Q929 1074 1007 986T1085 764Q1085 631 1007 543T785 454H535ZM485 288Q485 329 496 336T549 344H785Q1057 344 1181 456T1305 764Q1305
959 1181 1071T785 1184H522Q499 1184 492 1191T485 1222V1342Q485 1371 492 1380T531 1390H673Q692 1390 698 1395T705 1418V1454Q705 1487 694 1493T651 1500H112Q90 1500 83 1494T75 1464V1423Q75 1405 78 1398T100 1390H263Q281 1390 288 1386T295 1364V158Q295
130 288 120T249 110H107Q88 110 82 105T75 82V46Q75 13 86 7T129 0H663Q693 0 699 9T705 48V70Q705 93 701 101T673 110H543Q503 110 494 121T485 173V288Z" />
<glyph unicode="&#xdf;" horiz-adv-x="1561" d="M1402 320Q1402 388 1361 449T1259 566T1137 670T1035 762T994 843Q994 875 1028 907T1112 974T1214 1050T1299 1144T1333 1262Q1333 1332 1298 1388T1196 1485T1030 1548T806 1570Q593 1570 462 1495T270 1288T210
982V161Q210 136 205 125T173 113H63Q44 113 37 107T29 80V37Q29 15 34 8T60 0H351Q377 0 384 6T391 37V962Q391 1104 428 1217T556 1397T806 1463Q962 1463 1046 1403T1130 1233Q1130 1177 1101 1135T1027 1058T939 985T866 901T836 787Q836 724 873 675T964 583T1072
498T1163 405T1200 290Q1200 194 1149 144T993 93Q942 93 895 103T811 141Q792 156 796 159T817 176Q836 191 847 212T858 260Q858 314 827 343T750 372Q698 372 662 338T626 241Q626 159 684 101T829 11T1002 -20Q1093 -20 1166 2T1292 67T1373 174T1402 320Z"
/>
<glyph unicode="&#xe0;" horiz-adv-x="1112" d="M596 1209Q607 1202 612 1204T626 1215L660 1251Q677 1269 659 1287L465 1476Q447 1495 421 1499T371 1493T333 1460Q311 1423 323 1393T360 1347L596 1209ZM100 246Q100 120 188 50T410 -20Q516 -20 578 6T672
67T720 123Q734 142 739 142T748 124Q752 100 764 66T813 6T925 -20H926Q967 -20 1005 -6T1077 37T1134 110Q1141 126 1128 134L1092 156Q1079 166 1069 149Q1043 108 1019 96T974 84Q953 84 938 98T922 142V744Q922 825 897 897T799 1015T586 1060Q510 1060 435
1042T297 988T198 902T160 786Q160 720 196 695T278 670Q329 670 358 702T388 786Q388 825 374 840T346 863T332 890Q332 910 363 928T443 957T546 968Q626 968 668 938T726 854T742 734V624Q742 606 738 602T716 598H618Q446 598 331 549T158 420T100 246ZM304
276Q304 353 334 408T433 492T618 522H722Q742 522 742 502V382Q742 246 672 169T500 92Q425 92 365 134T304 276Z" />
<glyph unicode="&#xe1;" horiz-adv-x="1112" d="M517 1217Q528 1205 535 1205T556 1214L784 1347Q810 1362 821 1392T811 1460Q798 1483 774 1493T724 1499T679 1476L483 1285Q467 1270 483 1253L517 1217ZM100 246Q100 120 188 50T410 -20Q516 -20 578 6T672
67T720 123Q734 142 739 142T748 124Q752 100 764 66T813 6T925 -20H926Q967 -20 1005 -6T1077 37T1134 110Q1141 126 1128 134L1092 156Q1079 166 1069 149Q1043 108 1019 96T974 84Q953 84 938 98T922 142V744Q922 825 897 897T799 1015T586 1060Q510 1060 435
1042T297 988T198 902T160 786Q160 720 196 695T278 670Q329 670 358 702T388 786Q388 825 374 840T346 863T332 890Q332 910 363 928T443 957T546 968Q626 968 668 938T726 854T742 734V624Q742 606 738 602T716 598H618Q446 598 331 549T158 420T100 246ZM304
276Q304 353 334 408T433 492T618 522H722Q742 522 742 502V382Q742 246 672 169T500 92Q425 92 365 134T304 276Z" />
<glyph unicode="&#xe2;" horiz-adv-x="1112" d="M315 1230Q334 1211 351 1224L548 1371Q572 1389 598 1370L793 1225Q806 1216 810 1216T825 1226L858 1259Q866 1267 866 1270T857 1280L665 1472Q656 1481 648 1485T619 1489H534Q512 1489 502 1486T481 1472L293
1284Q282 1273 282 1269T293 1254L315 1230ZM100 246Q100 120 188 50T410 -20Q516 -20 578 6T672 67T720 123Q734 142 739 142T748 124Q752 100 764 66T813 6T925 -20H926Q967 -20 1005 -6T1077 37T1134 110Q1141 126 1128 134L1092 156Q1079 166 1069 149Q1043
108 1019 96T974 84Q953 84 938 98T922 142V744Q922 825 897 897T799 1015T586 1060Q510 1060 435 1042T297 988T198 902T160 786Q160 720 196 695T278 670Q329 670 358 702T388 786Q388 825 374 840T346 863T332 890Q332 910 363 928T443 957T546 968Q626 968
668 938T726 854T742 734V624Q742 606 738 602T716 598H618Q446 598 331 549T158 420T100 246ZM304 276Q304 353 334 408T433 492T618 522H722Q742 522 742 502V382Q742 246 672 169T500 92Q425 92 365 134T304 276Z" />
<glyph unicode="&#xe3;" horiz-adv-x="1112" d="M722 1220Q791 1220 834 1247T900 1326T924 1452Q925 1464 922 1469T905 1474H872Q858 1474 855 1469T850 1452Q842 1336 739 1336Q699 1336 673 1363T625 1415Q596 1447 555 1470T450 1494Q388 1494 341 1465T264
1385T229 1270Q228 1255 230 1248T250 1240H282Q301 1240 302 1254Q304 1314 330 1346T413 1378Q458 1378 488 1351T544 1299Q576 1268 617 1244T722 1220ZM100 246Q100 120 188 50T410 -20Q516 -20 578 6T672 67T720 123Q734 142 739 142T748 124Q752 100 764
66T813 6T925 -20H926Q967 -20 1005 -6T1077 37T1134 110Q1141 126 1128 134L1092 156Q1079 166 1069 149Q1043 108 1019 96T974 84Q953 84 938 98T922 142V744Q922 825 897 897T799 1015T586 1060Q510 1060 435 1042T297 988T198 902T160 786Q160 720 196 695T278
670Q329 670 358 702T388 786Q388 825 374 840T346 863T332 890Q332 910 363 928T443 957T546 968Q626 968 668 938T726 854T742 734V624Q742 606 738 602T716 598H618Q446 598 331 549T158 420T100 246ZM304 276Q304 353 334 408T433 492T618 522H722Q742 522
742 502V382Q742 246 672 169T500 92Q425 92 365 134T304 276Z" />
<glyph unicode="&#xe4;" horiz-adv-x="1112" d="M731 1230Q771 1230 799 1258T827 1326Q827 1366 799 1394T731 1423Q691 1423 663 1395T635 1326Q635 1286 663 1258T731 1230ZM411 1230Q451 1230 479 1258T507 1326Q507 1366 479 1394T411 1423Q371 1423 343
1395T315 1326Q315 1286 343 1258T411 1230ZM100 246Q100 120 188 50T410 -20Q516 -20 578 6T672 67T720 123Q734 142 739 142T748 124Q752 100 764 66T813 6T925 -20H926Q967 -20 1005 -6T1077 37T1134 110Q1141 126 1128 134L1092 156Q1079 166 1069 149Q1043
108 1019 96T974 84Q953 84 938 98T922 142V744Q922 825 897 897T799 1015T586 1060Q510 1060 435 1042T297 988T198 902T160 786Q160 720 196 695T278 670Q329 670 358 702T388 786Q388 825 374 840T346 863T332 890Q332 910 363 928T443 957T546 968Q626 968
668 938T726 854T742 734V624Q742 606 738 602T716 598H618Q446 598 331 549T158 420T100 246ZM304 276Q304 353 334 408T433 492T618 522H722Q742 522 742 502V382Q742 246 672 169T500 92Q425 92 365 134T304 276Z" />
<glyph unicode="&#xe5;" horiz-adv-x="1112" d="M572 1220Q623 1220 663 1243T728 1308T752 1399Q752 1450 729 1491T664 1556T572 1580Q522 1580 481 1556T417 1491T393 1399Q393 1349 416 1308T481 1244T572 1220ZM572 1294Q527 1294 499 1322T471 1399Q471
1446 499 1476T572 1507Q617 1507 645 1477T674 1399Q674 1351 646 1323T572 1294ZM100 246Q100 120 188 50T410 -20Q516 -20 578 6T672 67T720 123Q734 142 739 142T748 124Q752 100 764 66T813 6T925 -20H926Q967 -20 1005 -6T1077 37T1134 110Q1141 126 1128
134L1092 156Q1079 166 1069 149Q1043 108 1019 96T974 84Q953 84 938 98T922 142V744Q922 825 897 897T799 1015T586 1060Q510 1060 435 1042T297 988T198 902T160 786Q160 720 196 695T278 670Q329 670 358 702T388 786Q388 825 374 840T346 863T332 890Q332
910 363 928T443 957T546 968Q626 968 668 938T726 854T742 734V624Q742 606 738 602T716 598H618Q446 598 331 549T158 420T100 246ZM304 276Q304 353 334 408T433 492T618 522H722Q742 522 742 502V382Q742 246 672 169T500 92Q425 92 365 134T304 276Z" />
<glyph unicode="&#xe6;" horiz-adv-x="1746" d="M974 608Q956 608 951 613T946 633Q946 712 976 790T1067 920T1220 972Q1281 972 1325 937T1398 848T1441 734T1455 624Q1455 614 1451 611T1426 608H974ZM742 447V382Q742 246 672 169T500 92Q425 92 365 134T304
276Q304 353 334 408T433 492T618 522H712Q734 522 738 502T742 447ZM100 246Q100 120 188 50T410 -20Q489 -20 557 -3T678 39T768 90T820 133Q836 150 850 149T878 134Q898 114 947 77T1065 10T1217 -20Q1340 -20 1427 24T1569 147T1651 325Q1654 336 1650 341T1631
346H1573Q1558 346 1554 340T1546 322Q1506 212 1428 145T1230 78Q1127 78 1064 135T971 288T942 493Q942 510 950 516T975 522H1618Q1639 522 1646 526T1654 551Q1654 622 1640 694T1595 832T1514 949T1391 1030T1220 1060Q1120 1060 1041 1031T904 948Q884 930
881 935T861 960Q824 1005 759 1032T586 1060Q510 1060 435 1042T297 988T198 902T160 786Q160 720 196 695T278 670Q329 670 358 702T388 786Q388 825 374 840T346 863T332 890Q332 910 363 928T443 957T546 968Q626 968 668 938T726 854T742 734V624Q742 606
738 602T716 598H618Q446 598 331 549T158 420T100 246Z" />
<glyph unicode="&#xe7;" horiz-adv-x="1086" d="M399 -239Q399 -269 424 -268Q483 -266 538 -255T639 -221T710 -161T737 -69Q737 15 687 49T555 91Q528 93 526 95T536 115L625 233Q633 244 636 248T617 253H566Q554 253 551 252T543 243L392 41Q382 28 386 22T419
12Q464 8 504 -1T570 -33T595 -95Q595 -144 543 -167T430 -195Q415 -196 407 -200T399 -222V-239ZM90 520Q90 370 142 248T304 53T584 -20Q702 -20 785 24T924 147T1011 328Q1015 339 1012 342T992 346H930Q916 346 911 342T902 327Q863 215 785 147T588 78Q479
78 414 141T321 305T292 520Q292 634 325 736T429 902T608 966Q689 966 745 941T802 874Q802 851 786 836T754 802T738 746Q738 691 775 661T852 630Q896 630 938 660T980 762Q980 844 933 911T798 1019T588 1060Q467 1060 375 1019T219 903T123 731T90 520Z" />
<glyph unicode="&#xe8;" horiz-adv-x="1096" d="M589 1209Q600 1202 605 1204T619 1215L653 1251Q670 1269 652 1287L458 1476Q440 1495 414 1499T364 1493T326 1460Q304 1423 316 1393T353 1347L589 1209ZM90 500Q90 360 143 242T301 52T556 -20Q683 -20 772
24T917 145T1001 325Q1004 336 1000 341T981 346H923Q908 346 904 340T896 322Q856 212 778 145T580 78Q477 78 414 135T321 288T292 493Q292 510 300 516T325 522H968Q989 522 996 526T1004 551Q1004 622 990 694T945 832T864 949T741 1030T570 1060Q409 1060
303 987T143 787T90 500ZM324 608Q306 608 301 613T296 633Q296 712 326 790T417 920T570 972Q631 972 675 937T748 848T791 734T805 624Q805 614 801 611T776 608H324Z" />
<glyph unicode="&#xe9;" horiz-adv-x="1096" d="M510 1217Q521 1205 528 1205T549 1214L777 1347Q803 1362 814 1392T804 1460Q791 1483 767 1493T717 1499T672 1476L476 1285Q460 1270 476 1253L510 1217ZM90 500Q90 360 143 242T301 52T556 -20Q683 -20 772
24T917 145T1001 325Q1004 336 1000 341T981 346H923Q908 346 904 340T896 322Q856 212 778 145T580 78Q477 78 414 135T321 288T292 493Q292 510 300 516T325 522H968Q989 522 996 526T1004 551Q1004 622 990 694T945 832T864 949T741 1030T570 1060Q409 1060
303 987T143 787T90 500ZM324 608Q306 608 301 613T296 633Q296 712 326 790T417 920T570 972Q631 972 675 937T748 848T791 734T805 624Q805 614 801 611T776 608H324Z" />
<glyph unicode="&#xea;" horiz-adv-x="1096" d="M308 1230Q327 1211 344 1224L541 1371Q565 1389 591 1370L786 1225Q799 1216 803 1216T818 1226L851 1259Q859 1267 859 1270T850 1280L658 1472Q649 1481 641 1485T612 1489H527Q505 1489 495 1486T474 1472L286
1284Q275 1273 275 1269T286 1254L308 1230ZM90 500Q90 360 143 242T301 52T556 -20Q683 -20 772 24T917 145T1001 325Q1004 336 1000 341T981 346H923Q908 346 904 340T896 322Q856 212 778 145T580 78Q477 78 414 135T321 288T292 493Q292 510 300 516T325 522H968Q989
522 996 526T1004 551Q1004 622 990 694T945 832T864 949T741 1030T570 1060Q409 1060 303 987T143 787T90 500ZM324 608Q306 608 301 613T296 633Q296 712 326 790T417 920T570 972Q631 972 675 937T748 848T791 734T805 624Q805 614 801 611T776 608H324Z" />
<glyph unicode="&#xeb;" horiz-adv-x="1096" d="M724 1230Q764 1230 792 1258T820 1326Q820 1366 792 1394T724 1423Q684 1423 656 1395T628 1326Q628 1286 656 1258T724 1230ZM404 1230Q444 1230 472 1258T500 1326Q500 1366 472 1394T404 1423Q364 1423 336
1395T308 1326Q308 1286 336 1258T404 1230ZM90 500Q90 360 143 242T301 52T556 -20Q683 -20 772 24T917 145T1001 325Q1004 336 1000 341T981 346H923Q908 346 904 340T896 322Q856 212 778 145T580 78Q477 78 414 135T321 288T292 493Q292 510 300 516T325 522H968Q989
522 996 526T1004 551Q1004 622 990 694T945 832T864 949T741 1030T570 1060Q409 1060 303 987T143 787T90 500ZM324 608Q306 608 301 613T296 633Q296 712 326 790T417 920T570 972Q631 972 675 937T748 848T791 734T805 624Q805 614 801 611T776 608H324Z" />
<glyph unicode="&#xec;" horiz-adv-x="665" d="M373 1209Q384 1202 389 1204T403 1215L437 1251Q454 1269 436 1287L242 1476Q224 1495 198 1499T148 1493T110 1460Q88 1423 100 1393T137 1347L373 1209ZM241 930Q265 930 265 906V138Q265 122 262 116T242 110H118Q100
110 93 105T85 80V24Q85 8 92 4T116 0H606Q620 0 622 5T625 24V90Q625 104 620 107T601 110H466Q454 110 450 115T445 134V1019Q445 1032 442 1036T426 1040H109Q85 1040 85 1014V954Q85 939 88 935T106 930H241Z" />
<glyph unicode="&#xed;" horiz-adv-x="665" d="M294 1217Q305 1205 312 1205T333 1214L561 1347Q587 1362 598 1392T588 1460Q575 1483 551 1493T501 1499T456 1476L260 1285Q244 1270 260 1253L294 1217ZM241 930Q265 930 265 906V138Q265 122 262 116T242 110H118Q100
110 93 105T85 80V24Q85 8 92 4T116 0H606Q620 0 622 5T625 24V90Q625 104 620 107T601 110H466Q454 110 450 115T445 134V1019Q445 1032 442 1036T426 1040H109Q85 1040 85 1014V954Q85 939 88 935T106 930H241Z" />
<glyph unicode="&#xee;" horiz-adv-x="665" d="M92 1230Q111 1211 128 1224L325 1371Q349 1389 375 1370L570 1225Q583 1216 587 1216T602 1226L635 1259Q643 1267 643 1270T634 1280L442 1472Q433 1481 425 1485T396 1489H311Q289 1489 279 1486T258 1472L70
1284Q59 1273 59 1269T70 1254L92 1230ZM241 930Q265 930 265 906V138Q265 122 262 116T242 110H118Q100 110 93 105T85 80V24Q85 8 92 4T116 0H606Q620 0 622 5T625 24V90Q625 104 620 107T601 110H466Q454 110 450 115T445 134V1019Q445 1032 442 1036T426 1040H109Q85
1040 85 1014V954Q85 939 88 935T106 930H241Z" />
<glyph unicode="&#xef;" horiz-adv-x="665" d="M508 1230Q548 1230 576 1258T604 1326Q604 1366 576 1394T508 1423Q468 1423 440 1395T412 1326Q412 1286 440 1258T508 1230ZM188 1230Q228 1230 256 1258T284 1326Q284 1366 256 1394T188 1423Q148 1423 120 1395T92
1326Q92 1286 120 1258T188 1230ZM241 930Q265 930 265 906V138Q265 122 262 116T242 110H118Q100 110 93 105T85 80V24Q85 8 92 4T116 0H606Q620 0 622 5T625 24V90Q625 104 620 107T601 110H466Q454 110 450 115T445 134V1019Q445 1032 442 1036T426 1040H109Q85
1040 85 1014V954Q85 939 88 935T106 930H241Z" />
<glyph unicode="&#xf0;" horiz-adv-x="1240" d="M521 1552Q501 1560 493 1541L468 1480Q462 1467 467 1464T485 1454Q550 1421 625 1381T770 1282T885 1139T937 930Q939 905 940 894T936 880Q930 877 925 886T907 909Q879 941 840 976T740 1035T588 1060Q452 1060
342 992T166 799T100 510Q100 350 161 231T336 46T612 -20Q733 -20 830 21T996 148T1103 372T1140 700Q1140 846 1100 965T992 1180T844 1347T678 1470T521 1552ZM300 510Q300 624 339 727T453 896T632 962Q715 962 785 918T897 802T940 650Q940 542 914 439T840
252T730 119T592 70Q483 70 419 134T328 300T300 510ZM529 1237Q518 1227 517 1219T527 1198L561 1159Q574 1144 580 1143T601 1153L1070 1568Q1085 1581 1083 1589T1069 1611L1037 1648Q1025 1661 1019 1662T999 1651L529 1237Z" />
<glyph unicode="&#xf1;" horiz-adv-x="1345" d="M835 1220Q904 1220 947 1247T1013 1326T1037 1452Q1038 1464 1035 1469T1018 1474H985Q971 1474 968 1469T963 1452Q955 1336 852 1336Q812 1336 786 1363T738 1415Q709 1447 668 1470T563 1494Q501 1494 454 1465T377
1385T342 1270Q341 1255 343 1248T363 1240H395Q414 1240 415 1254Q417 1314 443 1346T526 1378Q571 1378 601 1351T657 1299Q689 1268 730 1244T835 1220ZM236 930Q248 930 254 927T260 913V138Q260 119 253 115T226 110H116Q97 110 89 105T80 78V32Q80 13 85
7T108 0H592Q609 0 614 6T620 30V76Q620 98 613 104T585 110H482Q459 110 450 119T440 151V566Q440 669 479 755T590 894T760 946Q859 946 904 887T950 716V149Q950 123 942 117T910 110H795Q779 110 775 104T770 81V31Q770 15 773 8T792 0H1279Q1296 0 1303 3T1310
22V80Q1310 97 1306 103T1284 110H1166Q1140 110 1135 119T1130 155V738Q1130 845 1102 916T1004 1024T806 1060Q676 1060 592 1006T460 871Q450 855 445 852T440 888V1005Q440 1019 433 1029T409 1040H99Q88 1040 84 1035T80 1017V955Q80 942 84 936T101 930H236Z"
/>
<glyph unicode="&#xf2;" horiz-adv-x="1136" d="M592 1209Q603 1202 608 1204T622 1215L656 1251Q673 1269 655 1287L461 1476Q443 1495 417 1499T367 1493T329 1460Q307 1423 319 1393T356 1347L592 1209ZM300 540Q300 618 311 694T352 833T433 932T568 970Q677
970 735 904T814 731T836 500Q836 422 825 346T784 207T703 108T568 70Q459 70 401 136T322 309T300 540ZM90 500Q90 360 142 242T301 52T568 -20Q729 -20 835 53T993 253T1046 540Q1046 680 994 798T835 988T568 1060Q407 1060 301 987T143 787T90 500Z" />
<glyph unicode="&#xf3;" horiz-adv-x="1136" d="M513 1217Q524 1205 531 1205T552 1214L780 1347Q806 1362 817 1392T807 1460Q794 1483 770 1493T720 1499T675 1476L479 1285Q463 1270 479 1253L513 1217ZM300 540Q300 618 311 694T352 833T433 932T568 970Q677
970 735 904T814 731T836 500Q836 422 825 346T784 207T703 108T568 70Q459 70 401 136T322 309T300 540ZM90 500Q90 360 142 242T301 52T568 -20Q729 -20 835 53T993 253T1046 540Q1046 680 994 798T835 988T568 1060Q407 1060 301 987T143 787T90 500Z" />
<glyph unicode="&#xf4;" horiz-adv-x="1136" d="M311 1230Q330 1211 347 1224L544 1371Q568 1389 594 1370L789 1225Q802 1216 806 1216T821 1226L854 1259Q862 1267 862 1270T853 1280L661 1472Q652 1481 644 1485T615 1489H530Q508 1489 498 1486T477 1472L289
1284Q278 1273 278 1269T289 1254L311 1230ZM300 540Q300 618 311 694T352 833T433 932T568 970Q677 970 735 904T814 731T836 500Q836 422 825 346T784 207T703 108T568 70Q459 70 401 136T322 309T300 540ZM90 500Q90 360 142 242T301 52T568 -20Q729 -20 835
53T993 253T1046 540Q1046 680 994 798T835 988T568 1060Q407 1060 301 987T143 787T90 500Z" />
<glyph unicode="&#xf5;" horiz-adv-x="1136" d="M718 1220Q787 1220 830 1247T896 1326T920 1452Q921 1464 918 1469T901 1474H868Q854 1474 851 1469T846 1452Q838 1336 735 1336Q695 1336 669 1363T621 1415Q592 1447 551 1470T446 1494Q384 1494 337 1465T260
1385T225 1270Q224 1255 226 1248T246 1240H278Q297 1240 298 1254Q300 1314 326 1346T409 1378Q454 1378 484 1351T540 1299Q572 1268 613 1244T718 1220ZM300 540Q300 618 311 694T352 833T433 932T568 970Q677 970 735 904T814 731T836 500Q836 422 825 346T784
207T703 108T568 70Q459 70 401 136T322 309T300 540ZM90 500Q90 360 142 242T301 52T568 -20Q729 -20 835 53T993 253T1046 540Q1046 680 994 798T835 988T568 1060Q407 1060 301 987T143 787T90 500Z" />
<glyph unicode="&#xf6;" horiz-adv-x="1136" d="M727 1230Q767 1230 795 1258T823 1326Q823 1366 795 1394T727 1423Q687 1423 659 1395T631 1326Q631 1286 659 1258T727 1230ZM407 1230Q447 1230 475 1258T503 1326Q503 1366 475 1394T407 1423Q367 1423 339
1395T311 1326Q311 1286 339 1258T407 1230ZM300 540Q300 618 311 694T352 833T433 932T568 970Q677 970 735 904T814 731T836 500Q836 422 825 346T784 207T703 108T568 70Q459 70 401 136T322 309T300 540ZM90 500Q90 360 142 242T301 52T568 -20Q729 -20 835
53T993 253T1046 540Q1046 680 994 798T835 988T568 1060Q407 1060 301 987T143 787T90 500Z" />
<glyph unicode="&#xf7;" horiz-adv-x="1119" d="M135 836Q111 836 106 829T100 796V754Q100 735 106 730T132 724H996Q1020 724 1020 742V808Q1020 836 994 836H135ZM439 430Q439 381 475 346T561 310Q611 310 645 345T680 430Q680 480 646 515T561 550Q512 550
476 515T439 430ZM439 1140Q439 1091 475 1056T561 1020Q611 1020 645 1055T680 1140Q680 1190 646 1225T561 1260Q512 1260 476 1225T439 1140Z" />
<glyph unicode="&#xf8;" horiz-adv-x="1139" d="M926 1215Q896 1215 887 1210T870 1189L149 -158Q140 -175 146 -182T189 -189H221Q252 -189 263 -185T283 -165L1000 1192Q1008 1206 1004 1210T971 1215H926ZM300 540Q300 618 311 694T352 833T433 932T568 970Q677
970 735 904T814 731T836 500Q836 422 825 346T784 207T703 108T568 70Q459 70 401 136T322 309T300 540ZM90 500Q90 360 142 242T301 52T568 -20Q729 -20 835 53T993 253T1046 540Q1046 680 994 798T835 988T568 1060Q407 1060 301 987T143 787T90 500Z" />
<glyph unicode="&#xf9;" horiz-adv-x="1315" d="M674 1209Q685 1202 690 1204T704 1215L738 1251Q755 1269 737 1287L543 1476Q525 1495 499 1499T449 1493T411 1460Q389 1423 401 1393T438 1347L674 1209ZM220 302Q220 195 248 124T346 16T544 -20Q675 -20 756
31T886 163Q897 181 903 175T910 159V38Q910 15 916 8T944 0H1242Q1262 0 1266 7T1270 34V86Q1270 102 1260 106T1236 110H1124Q1101 110 1096 116T1090 144V1010Q1090 1027 1086 1033T1066 1040H754Q739 1040 735 1034T730 1012V949Q730 936 737 933T758 930H868Q890
930 900 925T910 896V474Q910 371 871 280T760 131T590 74Q491 74 446 143T400 324V1009Q400 1031 393 1035T362 1040H76Q54 1040 47 1034T40 1004V958Q40 938 48 934T76 930H194Q212 930 216 923T220 897V302Z" />
<glyph unicode="&#xfa;" horiz-adv-x="1315" d="M595 1217Q606 1205 613 1205T634 1214L862 1347Q888 1362 899 1392T889 1460Q876 1483 852 1493T802 1499T757 1476L561 1285Q545 1270 561 1253L595 1217ZM220 302Q220 195 248 124T346 16T544 -20Q675 -20 756
31T886 163Q897 181 903 175T910 159V38Q910 15 916 8T944 0H1242Q1262 0 1266 7T1270 34V86Q1270 102 1260 106T1236 110H1124Q1101 110 1096 116T1090 144V1010Q1090 1027 1086 1033T1066 1040H754Q739 1040 735 1034T730 1012V949Q730 936 737 933T758 930H868Q890
930 900 925T910 896V474Q910 371 871 280T760 131T590 74Q491 74 446 143T400 324V1009Q400 1031 393 1035T362 1040H76Q54 1040 47 1034T40 1004V958Q40 938 48 934T76 930H194Q212 930 216 923T220 897V302Z" />
<glyph unicode="&#xfb;" horiz-adv-x="1315" d="M393 1230Q412 1211 429 1224L626 1371Q650 1389 676 1370L871 1225Q884 1216 888 1216T903 1226L936 1259Q944 1267 944 1270T935 1280L743 1472Q734 1481 726 1485T697 1489H612Q590 1489 580 1486T559 1472L371
1284Q360 1273 360 1269T371 1254L393 1230ZM220 302Q220 195 248 124T346 16T544 -20Q675 -20 756 31T886 163Q897 181 903 175T910 159V38Q910 15 916 8T944 0H1242Q1262 0 1266 7T1270 34V86Q1270 102 1260 106T1236 110H1124Q1101 110 1096 116T1090 144V1010Q1090
1027 1086 1033T1066 1040H754Q739 1040 735 1034T730 1012V949Q730 936 737 933T758 930H868Q890 930 900 925T910 896V474Q910 371 871 280T760 131T590 74Q491 74 446 143T400 324V1009Q400 1031 393 1035T362 1040H76Q54 1040 47 1034T40 1004V958Q40 938 48
934T76 930H194Q212 930 216 923T220 897V302Z" />
<glyph unicode="&#xfc;" horiz-adv-x="1315" d="M809 1230Q849 1230 877 1258T905 1326Q905 1366 877 1394T809 1423Q769 1423 741 1395T713 1326Q713 1286 741 1258T809 1230ZM489 1230Q529 1230 557 1258T585 1326Q585 1366 557 1394T489 1423Q449 1423 421
1395T393 1326Q393 1286 421 1258T489 1230ZM220 302Q220 195 248 124T346 16T544 -20Q675 -20 756 31T886 163Q897 181 903 175T910 159V38Q910 15 916 8T944 0H1242Q1262 0 1266 7T1270 34V86Q1270 102 1260 106T1236 110H1124Q1101 110 1096 116T1090 144V1010Q1090
1027 1086 1033T1066 1040H754Q739 1040 735 1034T730 1012V949Q730 936 737 933T758 930H868Q890 930 900 925T910 896V474Q910 371 871 280T760 131T590 74Q491 74 446 143T400 324V1009Q400 1031 393 1035T362 1040H76Q54 1040 47 1034T40 1004V958Q40 938 48
934T76 930H194Q212 930 216 923T220 897V302Z" />
<glyph unicode="&#xfd;" horiz-adv-x="1236" d="M619 1217Q630 1205 637 1205T658 1214L886 1347Q912 1362 923 1392T913 1460Q900 1483 876 1493T826 1499T781 1476L585 1285Q569 1270 585 1253L619 1217ZM16 -262Q16 -329 45 -388T130 -483T262 -520Q320 -520
386 -496T517 -403T634 -204L1067 888Q1077 912 1083 921T1123 930H1205Q1228 930 1232 939T1236 970V1016Q1236 1033 1229 1036T1205 1040H847Q822 1040 814 1033T806 1000V966Q806 946 811 938T839 930H911Q943 930 947 924T944 896L712 306Q699 271 692 253T677
235Q671 235 664 249T642 294L370 900Q360 921 367 925T405 930H499Q528 930 535 937T542 975V1000Q542 1026 536 1033T505 1040H27Q13 1040 7 1037T0 1020V964Q0 943 6 937T35 930H121Q151 930 157 924T173 898L566 30Q580 0 580 -15T569 -62L546 -120Q499 -240
448 -305T349 -395T262 -420Q213 -420 184 -393T154 -332Q154 -316 162 -307T183 -290T208 -274T229 -251T238 -214Q238 -167 211 -142T138 -116Q107 -116 79 -133T34 -183T16 -262Z" />
<glyph unicode="&#xfe;" horiz-adv-x="1276" d="M410 520Q410 634 446 733T548 894T706 956Q790 956 853 895T951 734T986 520Q986 406 951 307T853 146T706 84Q615 84 549 145T446 306T410 520ZM50 1490Q50 1468 55 1459T85 1450H185Q210 1450 220 1444T230 1412V-344Q230
-372 225 -381T191 -390H77Q58 -390 54 -397T50 -424V-464Q50 -483 55 -491T81 -500H559Q580 -500 585 -496T590 -469V-428Q590 -404 584 -397T555 -390H457Q427 -390 419 -383T410 -344V78Q410 158 419 164T450 138Q500 64 574 23T742 -18Q861 -18 962 45T1124
229T1186 520Q1186 690 1125 811T962 996T742 1060Q641 1060 559 1008T428 866Q419 850 415 852T410 892V1526Q410 1549 403 1554T373 1560H87Q68 1560 59 1555T50 1528V1490Z" />
<glyph unicode="&#xff;" horiz-adv-x="1236" d="M833 1230Q873 1230 901 1258T929 1326Q929 1366 901 1394T833 1423Q793 1423 765 1395T737 1326Q737 1286 765 1258T833 1230ZM513 1230Q553 1230 581 1258T609 1326Q609 1366 581 1394T513 1423Q473 1423 445
1395T417 1326Q417 1286 445 1258T513 1230ZM16 -262Q16 -329 45 -388T130 -483T262 -520Q320 -520 386 -496T517 -403T634 -204L1067 888Q1077 912 1083 921T1123 930H1205Q1228 930 1232 939T1236 970V1016Q1236 1033 1229 1036T1205 1040H847Q822 1040 814 1033T806
1000V966Q806 946 811 938T839 930H911Q943 930 947 924T944 896L712 306Q699 271 692 253T677 235Q671 235 664 249T642 294L370 900Q360 921 367 925T405 930H499Q528 930 535 937T542 975V1000Q542 1026 536 1033T505 1040H27Q13 1040 7 1037T0 1020V964Q0 943
6 937T35 930H121Q151 930 157 924T173 898L566 30Q580 0 580 -15T569 -62L546 -120Q499 -240 448 -305T349 -395T262 -420Q213 -420 184 -393T154 -332Q154 -316 162 -307T183 -290T208 -274T229 -251T238 -214Q238 -167 211 -142T138 -116Q107 -116 79 -133T34
-183T16 -262Z" />
<glyph unicode="&#x2013;" horiz-adv-x="1432" d="M169 830Q142 830 131 825T120 802V750Q120 731 126 726T166 720H1263Q1297 720 1304 727T1312 753V802Q1312 820 1305 825T1267 830H169Z" />
<glyph unicode="&#x2014;" horiz-adv-x="2124" d="M198 830Q154 830 137 825T120 802V750Q120 731 130 726T192 720H1927Q1981 720 1992 727T2004 753V802Q2004 820 1992 825T1932 830H198Z" />
<glyph unicode="&#x2018;" horiz-adv-x="478" d="M374 1190Q374 1240 346 1274T268 1308Q252 1308 241 1306T217 1296Q209 1291 203 1288T195 1297Q190 1355 211 1402T270 1480T353 1518Q364 1520 371 1524T378 1541V1584Q378 1597 372 1598T355 1599Q293 1593
246 1562T166 1484T117 1384T100 1280Q100 1171 141 1122T240 1072Q278 1072 308 1088T356 1130T374 1190Z" />
<glyph unicode="&#x2019;" horiz-adv-x="478" d="M104 1402Q104 1353 132 1319T210 1284Q226 1284 237 1286T261 1296Q269 1301 275 1304T283 1295Q289 1238 268 1190T208 1112T125 1074Q114 1073 107 1069T100 1051V1008Q100 995 106 994T123 993Q185 999 232
1030T312 1108T361 1208T378 1312Q378 1422 338 1471T238 1520Q200 1520 170 1505T122 1462T104 1402Z" />
<glyph unicode="&#x201a;" horiz-adv-x="478" d="M104 97Q104 47 132 13T210 -21Q226 -21 237 -19T261 -9Q269 -4 275 -1T283 -10Q289 -68 268 -115T208 -193T125 -231Q114 -233 107 -237T100 -254V-297Q100 -310 106 -311T123 -312Q185 -306 232 -275T312 -197T361
-97T378 7Q378 116 338 165T238 215Q200 215 170 199T122 157T104 97Z" />
<glyph unicode="&#x201c;" horiz-adv-x="878" d="M774 1190Q774 1240 746 1274T668 1308Q652 1308 641 1306T617 1296Q609 1291 603 1288T595 1297Q590 1355 611 1402T670 1480T753 1518Q764 1520 771 1524T778 1541V1584Q778 1597 772 1598T755 1599Q693 1593
646 1562T566 1484T517 1384T500 1280Q500 1171 541 1122T640 1072Q678 1072 708 1088T756 1130T774 1190ZM374 1190Q374 1240 346 1274T268 1308Q252 1308 241 1306T217 1296Q209 1291 203 1288T195 1297Q190 1355 211 1402T270 1480T353 1518Q364 1520 371 1524T378
1541V1584Q378 1597 372 1598T355 1599Q293 1593 246 1562T166 1484T117 1384T100 1280Q100 1171 141 1122T240 1072Q278 1072 308 1088T356 1130T374 1190Z" />
<glyph unicode="&#x201d;" horiz-adv-x="878" d="M104 1402Q104 1353 132 1319T210 1284Q226 1284 237 1286T261 1296Q269 1301 275 1304T283 1295Q288 1238 267 1190T208 1112T125 1074Q114 1073 107 1069T100 1051V1008Q100 995 106 994T123 993Q185 999 232
1030T312 1108T361 1208T378 1312Q378 1422 337 1471T238 1520Q200 1520 170 1505T122 1462T104 1402ZM504 1402Q504 1353 532 1319T610 1284Q626 1284 637 1286T661 1296Q669 1301 675 1304T683 1295Q688 1238 667 1190T608 1112T525 1074Q514 1073 507 1069T500
1051V1008Q500 995 506 994T523 993Q585 999 632 1030T712 1108T761 1208T778 1312Q778 1422 737 1471T638 1520Q600 1520 570 1505T522 1462T504 1402Z" />
<glyph unicode="&#x201e;" horiz-adv-x="878" d="M104 97Q104 48 132 14T210 -21Q226 -21 237 -19T261 -9Q269 -4 275 -1T283 -10Q288 -67 267 -115T208 -193T125 -231Q114 -232 107 -236T100 -254V-297Q100 -310 106 -311T123 -312Q185 -306 232 -275T312 -197T361
-97T378 7Q378 117 337 166T238 215Q200 215 170 200T122 157T104 97ZM504 97Q504 48 532 14T610 -21Q626 -21 637 -19T661 -9Q669 -4 675 -1T683 -10Q688 -67 667 -115T608 -193T525 -231Q514 -232 507 -236T500 -254V-297Q500 -310 506 -311T523 -312Q585 -306
632 -275T712 -197T761 -97T778 7Q778 117 737 166T638 215Q600 215 570 200T522 157T504 97Z" />
<glyph unicode="&#x2022;" horiz-adv-x="440" d="M100 730Q100 697 116 670T160 626T220 610Q253 610 280 626T324 669T340 730Q340 763 324 790T281 833T220 850Q187 850 160 834T117 790T100 730Z" />
<glyph unicode="&#x2039;" horiz-adv-x="830" d="M302 775L770 1170L710 1260L50 800V750L710 290L770 380L302 775Z" />
<glyph unicode="&#x203a;" horiz-adv-x="830" d="M528 775L60 380L120 290L780 750V800L120 1260L60 1170L528 775Z" />
</font>
</defs>
</svg>
