<?xml version="1.0" standalone="no"?>
<!DOCTYPE svg PUBLIC "-//W3C//DTD SVG 1.1//EN" "http://www.w3.org/Graphics/SVG/1.1/DTD/svg11.dtd">
<svg xmlns="http://www.w3.org/2000/svg">
<defs >
<font id="Birthstone" horiz-adv-x="515" ><font-face
    font-family="Birthstone"
    units-per-em="1000"
    panose-1="0 0 0 0 0 0 0 0 0 0"
    ascent="950"
    descent="-410"
    alphabetic="0" />
<glyph unicode=" " glyph-name="space" horiz-adv-x="170" />
<glyph unicode="!" glyph-name="exclam" horiz-adv-x="223" d="M160 135Q157 135 157 145Q157 150 158 158T161 178Q166 199 179 236T210 316T249 400T289 467Q328 523 358 545T409 571T442 575Q419 551 389 512T326 425T263 326T211 225Q206 213 196 192T175
153T160 135ZM105 -7Q94 -7 88 -1T78 12Q75 17 75 21Q75 27 79 32T86 41Q93 46 100 51T117 61Q125 65 131 67T144 75Q148 77 150 75T150 70Q144 61 141 43T130 9T105 -7Z" />
<glyph unicode="&quot;" glyph-name="quotedbl" horiz-adv-x="179" d="M130 449Q129 448 126 448T128 456Q133 461 145 480T173 524T202 572T219 609Q221 612 221 615T221 623Q221 634 219 638Q261 641 261 604Q261 577 240 546T189 488T130 449ZM31 449Q30 448
27 448T29 456Q34 461 46 480T74 524T102 572T120 609Q122 617 122 624Q122 634 120 638Q161 641 161 605Q161 578 141 546T90 488T31 449Z" />
<glyph unicode="#" glyph-name="numbersign" horiz-adv-x="540" d="M133 56Q130 56 130 61L131 71Q134 84 143 105T162 149T178 184Q173 184 161 184T135 183Q114 183 95 186T76 199Q76 210 88 214T105 218H194L248 347Q234 347 221 346T194 345Q190 345 179 346T159
351T149 362Q149 371 161 376T178 381Q199 381 220 380T262 379Q268 394 276 416T294 458T310 493T320 507Q324 507 324 500Q324 493 322 485T320 475Q315 450 306 427T286 378Q309 378 331 378T376 377H388Q391 384 400 404T420 449T440 490T452 507Q456 507 456
499Q456 493 455 486T452 476Q447 451 437 427T416 378Q439 378 462 380T508 382Q510 382 517 381T524 375Q523 368 508 362T476 352T455 348H404L347 219H427Q434 219 442 218T450 212Q449 205 434 199T403 190T382 186L333 185Q330 177 322 156T302 112T281 73T265
56Q260 56 260 63Q260 70 262 74Q265 87 274 108T292 151T308 185H202Q199 176 191 156T171 112T150 73T133 56ZM217 219H320L375 347H272L217 219Z" />
<glyph unicode="$" glyph-name="dollar" horiz-adv-x="407" d="M77 27Q66 27 66 46Q66 55 70 63Q83 92 105 122Q80 140 65 159T41 178Q44 188 51 194T70 201Q84 201 93 192T116 166Q137 141 155 128T201 115Q215 115 230 125T246 155Q246 173 233 188T202 217T164
249T132 287T119 338Q119 375 137 409T183 469T245 511T309 527Q319 540 334 559T362 597T379 622Q389 622 389 605Q389 598 386 586T374 558Q374 558 370 550T359 531T348 513Q358 503 364 485T371 449Q371 430 360 409T338 368T326 331Q316 331 305 339T293 360Q293
383 304 400T326 435T337 473V474Q337 478 335 485T318 492Q297 492 272 478T223 441T186 392T171 343Q171 321 184 304T218 271T257 242T290 211T304 174Q304 148 286 130T241 102T189 93Q160 93 135 104Q122 88 106 65T83 31Q80 27 77 27Z" />
<glyph unicode="%" glyph-name="percent" horiz-adv-x="419" d="M80 100Q70 100 75 117Q80 137 100 174T152 261T225 365T312 473Q309 472 306 472T297 471Q280 471 260 478T224 497Q225 494 225 491T225 483Q225 467 222 453Q213 422 196 396T156 353T110 337Q84
337 72 350T60 386Q60 400 65 416T77 449Q95 487 121 510T175 534Q182 534 188 533T198 530Q198 530 199 530T201 529Q210 523 218 513Q233 505 253 499T294 493Q323 493 343 506V507H344Q349 507 357 496T366 476Q366 475 366 474T365 472Q355 461 334 434T284
371T225 296T168 220T120 154T91 110Q85 100 80 100ZM113 356Q127 356 141 369T166 404T183 447T190 485Q190 509 176 509Q155 509 137 487T108 435T96 383Q96 356 113 356ZM262 116Q237 117 226 131T215 167Q215 197 232 231Q249 268 276 291T331 314Q357 314
369 299T381 262Q381 247 377 234Q368 202 350 175T308 132T262 116ZM268 137Q282 137 296 150T321 185T338 229T345 267Q345 291 331 291Q310 291 292 269T262 217T251 165Q251 137 268 137Z" />
<glyph unicode="&amp;" glyph-name="ampersand" horiz-adv-x="431" d="M165 -3Q108 -3 78 29T48 108Q48 156 68 192T119 253T186 292Q166 303 157 319T148 370Q148 400 165 430T212 484T279 523T355 538Q385 538 402 516T419 462Q419 442 411 420T393 378T377
343Q366 343 359 353T352 376Q352 400 361 417T381 450T391 488Q391 491 387 501T364 512Q338 512 302 490T237 436Q217 412 205 387T192 342Q192 311 224 311Q241 311 262 310T298 301T314 275Q277 276 238 266T166 233T113 177T93 98Q93 72 108 49T149 26Q180
26 209 41T259 85T287 151Q273 148 256 144T220 139Q193 139 186 156T178 192Q189 185 222 185Q248 185 281 188Q292 189 312 191T353 196T384 199Q406 199 415 183T424 150Q417 161 371 161Q352 161 326 158Q326 114 306 78T250 19T165 -3Z" />
<glyph unicode="&apos;" glyph-name="quotesingle" horiz-adv-x="210" d="M161 449Q160 448 157 448T159 456Q164 461 176 480T204 524T232 572T250 609Q252 617 252 624Q252 634 250 638Q291 641 291 605Q291 578 271 546T220 488T161 449Z" />
<glyph unicode="(" glyph-name="parenleft" horiz-adv-x="303" d="M200 -46Q193 -46 184 -43Q127 -22 102 21T77 119Q77 131 78 142T81 166Q89 218 114 271T175 368T251 440T329 468Q346 468 345 464Q309 454 279 425T222 360Q188 313 159 251T119 122Q117 110
116 99T115 76Q115 34 133 6T194 -26Q211 -28 211 -38Q211 -46 200 -46Z" />
<glyph unicode=")" glyph-name="parenright" horiz-adv-x="320" d="M59 -46Q41 -46 43 -42Q80 -31 110 -2T167 63Q201 110 230 172T269 301Q271 313 272 324T273 346Q273 388 255 416T195 449Q178 451 178 461Q178 468 189 468Q195 468 205 465Q262 445 287 401T312
302Q312 292 311 280T308 257Q300 205 275 152T213 54T137 -18T59 -46Z" />
<glyph unicode="*" glyph-name="asterisk" horiz-adv-x="317" d="M164 290Q158 290 157 299T155 313V320Q155 341 157 365T162 409Q159 406 150 396T127 374T102 354T81 345Q79 345 76 346T73 352Q73 357 77 364T85 375L145 432Q141 432 133 432T113 431Q90 431
66 434T40 448Q40 454 49 458T64 462L150 466Q146 472 137 487T117 519T98 551T90 572Q91 572 91 576T96 581Q101 581 107 575T116 565L172 488L184 576Q184 583 187 599T196 616Q201 616 203 607T205 586T206 570Q206 548 204 527T200 483Q201 485 212 495T238
519T265 542T282 552Q284 552 285 550T287 547Q287 534 274 517T244 485T220 462H305Q311 462 316 461T322 454Q323 446 309 442T276 435T239 433T217 432Q217 432 227 417T252 381T276 343T287 321Q287 320 286 318T283 316Q276 316 264 327T237 355T212 385T195
406Q194 400 191 382T184 342T175 306T164 290Z" />
<glyph unicode="+" glyph-name="plus" horiz-adv-x="381" d="M138 59Q131 59 130 67T129 82Q130 85 137 100T153 135T169 171T178 192Q172 192 154 193T114 196T78 202T65 213Q68 222 75 228T89 235Q117 235 145 236T201 237Q219 278 238 319T274 401Q279 401
280 395T282 381Q282 368 280 353T275 332Q268 308 257 280T235 237Q256 237 281 237T330 238T365 240Q365 240 364 235T357 222Q353 216 335 212T294 205T252 200T224 195Q221 188 210 167T184 120T157 77T138 59Z" />
<glyph unicode="," glyph-name="comma" horiz-adv-x="175" d="M-5 -107Q-13 -111 -14 -108T-14 -103L19 -65Q38 -46 53 -24T79 22Q81 32 81 40Q81 48 79 51Q76 54 76 56Q76 58 79 58Q88 58 98 51Q115 39 115 15Q115 -12 98 -31T55 -65T7 -93Q3 -95 0 -100T-5 -107Z" />
<glyph unicode="-" glyph-name="hyphen" horiz-adv-x="351" d="M308 184Q305 188 290 192T245 197Q237 197 227 197T206 195Q196 195 174 193T128 188T85 186Q60 186 54 199T47 229Q64 226 90 226Q120 226 155 228T221 232T268 232Q297 230 302 215T308 184Z" />
<glyph unicode="." glyph-name="period" horiz-adv-x="203" d="M90 -7Q79 -7 73 -1T62 12Q60 18 60 20Q60 27 63 32T70 41Q77 46 85 51T102 61Q110 65 116 67T129 75Q132 77 134 75T135 70Q129 61 125 43T114 9T90 -7Z" />
<glyph unicode="/" glyph-name="slash" horiz-adv-x="361" d="M71 -60Q63 -60 58 -49T52 -30Q52 -2 68 47T114 159T183 295T270 440T369 583Q369 584 371 584Q375 584 381 576T393 556T399 537Q399 535 397 531Q384 514 356 472T293 374T220 255T152 135T101 31T81
-38Q81 -42 81 -45T82 -50Q82 -60 71 -60Z" />
<glyph unicode="0" glyph-name="zero" horiz-adv-x="444" d="M174 -16Q109 -16 83 24T56 134Q56 182 72 238T118 350T184 451T264 524T350 552Q416 552 445 509T474 394Q474 336 456 278T406 167T335 73T254 8T174 -16ZM166 9Q205 9 242 39T313 119T371 227T411
342T426 443Q426 478 415 498T377 518Q335 518 296 490T222 415T161 315T121 206T106 110Q106 66 119 38T166 9Z" />
<glyph unicode="1" glyph-name="one" horiz-adv-x="234" d="M104 -25Q93 -25 89 -11T84 23Q84 47 88 73T95 112Q105 153 128 206T180 314T237 416T285 492Q281 491 265 482T227 463T185 443T155 431Q152 430 149 430Q142 430 142 434T139 440Q139 441 156 453T198
484T249 519T296 549T322 561Q327 561 342 557T370 545T381 531Q381 530 381 528T379 525Q363 503 341 470T296 399T252 327T217 263Q159 153 137 86T115 -17Q115 -25 104 -25Z" />
<glyph unicode="2" glyph-name="two" horiz-adv-x="367" d="M-20 -22Q-29 -20 -36 -5T-43 17Q-15 28 12 45T66 83Q96 106 136 141T219 218T297 307T355 400T377 487Q377 510 366 518T341 526Q310 526 282 509T232 467T196 418T181 380Q170 382 162 402T155 441Q173
474 208 499T285 539T363 554Q398 554 420 537T442 477Q442 434 418 387T353 294T266 204T173 126T90 65L42 31Q60 37 90 44T156 58T222 64Q249 64 268 58Q285 52 297 41T307 8Q305 1 300 -6T290 -14Q287 -11 284 -6T270 3Q260 7 246 8T214 9Q183 9 146 6T75 -3T17
-14T-14 -21Q-17 -21 -18 -21T-20 -22Z" />
<glyph unicode="3" glyph-name="three" horiz-adv-x="407" d="M137 -20Q82 -20 48 6T13 87Q13 127 39 159T114 195Q98 179 81 152T64 89Q64 44 84 25T142 5Q170 5 201 22T261 68T306 129T324 195Q324 222 313 239T269 257Q257 257 234 253T184 234Q172 228 164
240T155 265Q155 276 161 279Q184 285 217 295T286 322T352 360T402 410T421 472Q421 494 410 510T364 526Q334 526 306 509T256 467T220 418T205 380Q193 382 185 402T179 441Q197 474 231 499T304 539T371 554Q400 554 424 548T464 524T479 473Q479 431 454 397T393
339T321 303T266 290Q315 290 341 274T377 234T387 189Q387 129 352 82T260 7T137 -20Z" />
<glyph unicode="4" glyph-name="four" horiz-adv-x="428" d="M255 -37Q245 -37 241 -24T237 8Q237 31 240 56T247 93Q253 119 264 146T288 202Q251 202 210 193T134 174T81 158Q76 157 69 169T55 195T50 216Q55 235 81 264T147 329T233 401T324 469T405 523T460
553Q464 555 468 555Q477 555 487 543T505 516T509 496Q504 483 491 458T460 401T424 337T391 279T368 238Q398 233 416 218T435 190Q427 194 402 196T348 200Q302 112 284 56T266 -30Q266 -37 255 -37ZM88 214Q135 227 183 236T280 246H309Q309 246 320 267T348
321T384 390T421 459T449 511Q430 496 405 477T353 439T307 405T279 382Q245 355 217 332T158 282T88 214Z" />
<glyph unicode="5" glyph-name="five" horiz-adv-x="413" d="M136 -24Q83 -24 48 4T12 87Q12 110 22 133T49 172T88 188Q97 188 106 185Q93 180 82 162T64 122T57 85Q57 47 78 25T136 3Q174 3 210 26T274 84T319 159T336 230Q336 273 319 291T272 310Q259 310
238 299T194 268T154 219Q140 219 132 233T124 267Q124 285 130 298Q130 298 140 316T165 362T197 420T227 476Q212 476 196 482T179 513Q208 522 247 527T326 534T399 536T444 537Q483 537 500 532T523 516T528 488Q516 490 490 492T431 494Q417 494 403 494T374
492Q348 490 322 483T282 462L194 321Q206 327 234 332T282 337Q338 337 370 314T402 228Q402 182 379 138T318 57T232 -2T136 -24Z" />
<glyph unicode="6" glyph-name="six" horiz-adv-x="396" d="M183 -22Q139 -22 112 -1T73 54T60 126Q60 176 77 233T126 347T197 449T284 522T380 550Q414 550 433 526T453 467Q453 447 444 424T423 378T405 338Q392 338 384 350T376 375Q376 402 387 420T409 455T421
496Q421 499 416 510T389 522Q354 522 318 496T249 431T191 351T153 280Q173 301 207 319T269 337Q330 337 357 300T385 212Q385 173 371 132T330 56T266 0T183 -22ZM176 -1Q210 -1 237 21T284 78T314 152T325 226Q325 261 313 285T275 309Q241 309 214 291T166
246Q141 212 127 170T113 89Q113 51 128 25T176 -1Z" />
<glyph unicode="7" glyph-name="seven" horiz-adv-x="335" d="M89 -33Q74 -27 68 -16T61 8Q61 28 70 51T92 95T113 132Q134 167 165 209T234 296T307 380T374 452T424 500Q418 500 401 498T362 492T318 484T283 477Q260 472 240 469T203 465Q177 465 162 475T146
511Q163 511 194 516T263 526T337 536T398 541Q432 541 452 524T469 474V468Q454 454 424 423T357 353T288 272Q263 240 230 197T165 109T112 26T89 -33Z" />
<glyph unicode="8" glyph-name="eight" horiz-adv-x="373" d="M127 -26Q81 -26 50 -4T18 70Q18 109 36 146T83 215T141 274T191 318Q179 338 174 359T168 401Q168 442 189 478T248 536T341 559Q360 559 381 551T419 525T439 479Q461 479 481 479T507 467Q440 432
379 390T257 298Q269 284 286 258T315 202T328 144Q328 91 299 53T223 -5T127 -26ZM236 348L327 413Q344 424 361 435T389 453Q389 469 388 486T376 516T341 529Q306 529 280 511T239 465T224 403Q224 375 236 348ZM129 2Q162 2 194 19T248 66T270 132Q270 159
259 186T233 236T210 273Q183 251 150 219T94 146T70 60Q70 28 87 15T129 2Z" />
<glyph unicode="9" glyph-name="nine" horiz-adv-x="417" d="M106 -15Q75 -15 51 4T26 67Q26 93 44 115T90 138Q100 138 110 135Q94 130 83 107T72 59Q72 40 80 26T109 12Q141 12 172 31T231 80T279 139Q302 175 323 214T359 290Q347 274 327 252T278 213T210
196Q159 196 136 231T113 314Q113 355 129 397T176 475T245 532T331 554Q397 554 420 515T444 408Q444 368 431 319T392 220T332 123Q288 64 230 25T106 -15ZM216 224Q249 224 278 242T329 287Q359 325 376 372T394 459Q394 492 381 513T337 535Q301 535 271 511T219
448T184 369T171 293Q171 263 182 244T216 224Z" />
<glyph unicode=":" glyph-name="colon" horiz-adv-x="239" d="M188 173Q177 173 171 179T161 192Q159 198 159 200Q159 207 162 212T169 221Q176 227 183 232T200 241Q208 245 214 247T228 255Q230 257 232 255T233 250Q227 241 223 223T212 189T188 173ZM80 -7Q69
-7 63 -1T53 12Q50 17 50 21Q50 27 54 32T61 41Q68 46 75 51T92 61Q100 65 106 67T119 75Q122 77 124 75T125 70Q119 61 115 43T104 9T80 -7Z" />
<glyph unicode=";" glyph-name="semicolon" horiz-adv-x="227" d="M160 173Q150 173 144 179T133 192Q132 194 132 196T131 200Q131 207 134 212T141 221Q148 227 156 232T172 241Q180 245 186 247T201 255Q203 257 205 255T206 250Q200 241 196 223T185 189T160
173ZM9 -107Q2 -111 1 -108T1 -103L34 -65Q53 -46 68 -24T93 22Q96 30 96 39Q96 47 93 51Q91 55 91 56Q91 58 94 58Q103 58 112 51Q130 38 130 13Q130 -13 113 -32T70 -66T21 -93Q17 -95 15 -100T9 -107Z" />
<glyph unicode="&lt;" glyph-name="less" horiz-adv-x="320" d="M211 77Q199 98 173 122T119 169T69 207L67 212Q71 218 95 237T156 282T231 332T300 371Q302 372 311 375T327 378Q334 378 334 373Q334 370 331 365Q330 362 313 350T271 320T220 284T173 250T144
226Q150 220 162 206T189 173T214 135T224 100Q224 84 211 77Z" />
<glyph unicode="=" glyph-name="equal" horiz-adv-x="397" d="M143 238Q134 238 128 238T119 239H117Q115 239 118 244Q122 250 131 261T151 282T167 292H169Q177 285 200 283T252 280Q280 280 308 281T357 285T385 288Q386 288 386 286Q383 282 375 271T363 258Q352
254 325 250T263 244T196 240T143 238ZM72 121Q52 121 50 122H48Q46 122 48 127Q52 133 61 144T81 165T97 174H99Q107 168 130 166T182 163Q210 163 237 164T286 168T316 171Q315 171 315 169Q313 165 305 154T294 141Q282 136 255 133T192 127T125 123T72 121Z"
/>
<glyph unicode="&gt;" glyph-name="greater" horiz-adv-x="378" d="M85 88Q78 88 78 93Q78 97 81 101Q83 104 99 116T141 146T192 182T240 216T269 240Q263 246 250 260T223 293T199 331T189 365Q189 381 201 388Q214 368 240 344T294 297T343 258Q345 256 345
253Q341 247 317 228T256 183T182 134T112 95Q110 94 101 91T85 88Z" />
<glyph unicode="?" glyph-name="question" horiz-adv-x="311" d="M192 125Q183 125 176 132T167 150Q167 155 167 161T168 173Q177 212 224 263Q248 289 275 323T324 391Q347 428 353 453Q354 458 354 463T355 474Q355 496 345 509T313 523Q284 523 258 501T212
451T184 404Q178 390 175 390Q172 390 172 397Q172 407 176 416Q199 481 247 514T355 547Q396 547 411 529T427 484Q427 478 427 472T425 460Q415 411 381 372T313 305Q285 282 256 260T205 201Q200 193 198 185T193 172Q192 169 192 166T192 161Q192 144 204 139Q207
138 207 134Q205 127 198 126Q196 125 192 125ZM127 -7Q116 -7 110 -1T99 12Q97 18 97 20Q97 27 100 32T107 41Q114 46 122 51T139 61Q147 65 153 67T166 75Q169 77 171 75T172 70Q166 61 162 43T151 9T127 -7Z" />
<glyph unicode="@" glyph-name="at" horiz-adv-x="568" d="M244 -2Q165 -2 131 41T96 146Q96 198 117 254T177 360T267 439T379 470Q437 470 472 449T524 393T541 317Q541 279 529 241T494 171T443 120T379 101Q355 101 346 113T336 143Q336 160 343 179T357 211Q342
188 322 165T281 127T237 112Q215 112 206 125T196 157Q196 179 205 204T227 251Q247 283 273 309T329 352T386 368Q401 368 417 364T443 347Q451 335 451 322Q451 306 443 306Q438 306 433 318Q423 345 400 345Q382 345 360 331T316 293Q290 267 270 236T240 179Q235
167 233 159T231 144Q231 131 241 131Q254 131 278 150Q296 164 315 184T351 223T376 255L388 275Q396 283 413 283Q422 283 428 280T430 270Q429 269 415 246T390 196Q383 180 377 163T371 134Q371 117 384 117Q417 117 443 147T483 222T498 314Q498 350 488 380T455
430T395 449Q342 449 296 418T214 339T159 235T139 132Q139 83 163 51T240 18Q279 18 308 34T363 68Q357 40 326 19T244 -2Z" />
<glyph unicode="A" glyph-name="A" horiz-adv-x="450" d="M44 -9Q21 -4 14 10T6 42Q6 64 20 87T45 123Q23 124 11 136T-1 158Q-1 165 5 165Q10 165 14 162Q34 153 63 153Q75 171 102 206T166 286T243 376T323 459T396 521T451 545Q471 545 486 533T511 509T521
497Q502 470 478 418T433 301T396 176Q411 176 423 163T436 136Q436 136 421 143T389 148Q386 137 382 115T373 67T369 20Q369 13 369 8T371 -3Q349 -8 340 14T330 67Q330 112 343 149Q246 145 189 133T108 112Q88 84 70 50T44 -9ZM136 156Q169 162 211 167T292
177T351 180Q355 194 365 228T390 309T428 406T478 504Q475 509 468 509Q453 509 427 489T367 435T298 362T230 282T173 209T136 156Z" />
<glyph unicode="B" glyph-name="B" horiz-adv-x="476" d="M130 -20Q107 -20 83 -16T43 2T27 48Q27 69 43 106T86 187T139 272T187 341Q211 373 230 405T253 462Q252 464 233 460T191 455Q175 455 170 459T164 471Q164 476 166 481T171 494Q215 498 266 510T369
534T465 546Q532 546 560 516T588 443Q588 406 564 375T502 318T421 275T339 247T276 236Q316 236 351 226T410 194T433 139Q433 105 413 79T362 34T293 3T222 -14T163 -20H130ZM190 238Q223 240 270 254T367 290T461 339T532 396T560 455Q560 496 470 496Q424
496 375 486T279 467Q285 457 285 441Q285 419 274 391T246 333T215 278T190 238ZM158 2Q192 2 230 15T302 51T357 97T379 144Q379 176 355 191T297 212T231 217Q213 217 199 217T176 215Q161 189 137 155T94 88T75 29Q75 18 90 10T158 2Z" />
<glyph unicode="C" glyph-name="C" horiz-adv-x="477" d="M210 -20Q155 -20 122 0T73 54T58 132Q58 185 78 242T133 353T213 448T311 516T418 541Q478 541 506 514T534 449Q534 431 528 411Q521 389 511 366T493 324T482 297Q466 297 460 306T454 330Q454 347
461 370T477 415Q487 438 487 461Q487 484 474 500T432 516Q379 516 332 489T247 416T180 316T137 209T121 112Q121 64 141 34T217 3Q283 3 340 55T429 190Q441 183 441 160Q441 121 418 88T359 31T283 -6T210 -20Z" />
<glyph unicode="D" glyph-name="D" horiz-adv-x="499" d="M109 -25Q87 -25 71 -20T47 -1Q34 -1 23 10T11 47Q11 90 42 138T117 258Q127 275 144 299T180 352T213 407T233 456Q223 455 211 453T188 449Q184 448 181 448T175 448Q156 448 150 455T144 471T144 485Q179
488 221 497Q275 507 328 522T439 537Q501 537 536 511T571 425Q571 377 549 322T490 213T406 113T308 37Q280 20 245 6T175 -16T109 -25ZM110 3Q166 3 216 27T311 91T389 174Q409 199 433 234T479 308T515 382T530 443Q530 466 519 479T479 492Q458 492 421 487T342
476T269 463Q274 455 274 445Q274 424 261 393T228 329T190 267T160 221Q135 184 110 140T69 52Q65 41 65 30Q65 17 75 10T110 3Z" />
<glyph unicode="E" glyph-name="E" horiz-adv-x="361" d="M113 3Q84 3 67 13T42 38T34 65Q34 115 62 175T128 294Q159 342 191 382T247 450T280 485Q267 485 255 491T243 507Q243 512 251 517T282 525Q315 530 348 531T408 533T450 534Q488 534 496 522T504 490Q496
492 478 493T437 494Q421 494 405 494T375 492Q355 490 338 485T309 470Q302 463 287 443T254 397T219 343T188 293T171 258Q187 261 214 266T276 272Q323 272 323 244Q323 239 320 231H157Q158 233 149 216T127 171T105 116T95 67Q95 48 114 48Q146 48 181 56T255
65Q282 65 302 60T324 31Q321 32 318 32T310 32Q291 32 263 28T205 18T150 8T113 3Z" />
<glyph unicode="F" glyph-name="F" horiz-adv-x="366" d="M85 -12Q34 -12 34 47Q34 84 50 128T91 219T146 311T203 392T252 454T280 485Q246 485 232 489T218 500Q218 509 235 514T281 524Q319 529 360 531T434 533T482 534Q520 534 528 522T536 490Q529 492 510
493T469 494Q453 494 437 494T407 492Q377 490 353 485T304 459T248 392Q230 365 212 338T181 288T162 253Q179 256 215 260T286 265Q318 265 339 259T352 235Q344 235 315 234T252 232T188 228T151 224Q146 214 134 186T110 119Q101 90 94 57T85 -12Z" />
<glyph unicode="G" glyph-name="G" horiz-adv-x="508" d="M210 -20Q155 -20 122 0T73 54T58 132Q58 185 78 242T133 353T213 448T311 516T418 541Q478 541 506 514T534 449Q534 431 528 411Q521 389 511 366T493 324T482 297Q466 297 460 306T454 330Q454 347
461 370T477 415Q489 441 489 465Q489 488 477 502T437 517Q384 517 337 489T250 416T182 316T137 209T121 112Q121 64 140 33T215 2Q259 2 297 26T370 93Q384 110 393 133T404 176Q387 174 368 173T330 171Q309 171 290 173T258 182Q241 190 240 206Q240 206 248
206T270 205Q279 205 290 205T313 207Q331 209 356 212T407 220T451 226T474 229Q529 229 535 191Q526 194 516 194Q502 194 485 190T441 181Q443 177 443 173T443 164Q443 121 420 87T360 29T283 -7T210 -20Z" />
<glyph unicode="H" glyph-name="H" horiz-adv-x="441" d="M46 -12Q31 -4 24 10T16 53Q16 75 26 96T51 138T76 177Q54 183 46 201T40 226Q49 223 66 221T102 218Q137 275 171 332T231 443T268 543Q285 543 291 532T297 507T297 484Q296 468 282 435T246 363T205
289T172 235L161 218Q189 219 223 221T291 225T351 229Q385 283 417 338T475 446T511 543Q528 543 534 532T540 507T540 484Q540 468 526 435T490 363T449 289T415 235L411 229Q434 225 441 212T448 186Q444 191 428 193T392 197Q379 175 365 150T337 99Q318 63
305 33T290 -12Q274 -4 267 10T259 53Q259 74 270 97T297 143T324 184Q328 191 332 197Q271 194 221 189T138 180Q127 161 116 140T94 99Q75 63 62 33T46 -12Z" />
<glyph unicode="I" glyph-name="I" horiz-adv-x="189" d="M39 -12Q24 -4 16 10T8 53Q8 74 19 97T46 143T73 184Q111 246 149 309T218 433T261 543Q278 543 284 532T290 507T290 484Q289 468 275 435T239 363T198 289T165 235Q146 207 126 171T87 99Q68 63 55 33T39 -12Z" />
<glyph unicode="J" glyph-name="J" horiz-adv-x="356" d="M101 -12Q65 -12 37 14T8 88Q8 104 13 128T33 171T80 190Q67 166 59 138T51 90Q51 74 56 54T73 20T108 6Q146 6 179 38T242 124T303 245Q314 268 327 302T354 374T381 450T403 515T415 557Q429 542 433
523T438 482Q438 445 419 391T364 249Q348 207 325 161T271 76T198 13T101 -12Z" />
<glyph unicode="K" glyph-name="K" horiz-adv-x="360" d="M36 -12Q21 -4 14 9T6 53Q6 76 17 99T44 144T70 184Q108 246 147 310T218 434T262 545Q279 545 285 534T291 509T291 485Q290 470 276 438T240 368T199 295T165 240Q186 253 218 279T287 339T362 409T432
477T487 531T517 561Q528 561 528 549Q528 536 519 517T498 483Q475 452 440 418T364 352T284 291T213 241T165 207Q183 185 210 156T258 94T279 30Q279 -9 259 -9Q242 27 217 65T166 132T125 174Q114 156 104 137T84 99Q65 63 52 33T36 -12Z" />
<glyph unicode="L" glyph-name="L" horiz-adv-x="334" d="M113 3Q84 3 67 13T42 38T34 65Q34 115 62 175T128 294Q153 334 179 381T223 472T241 545Q247 547 250 547Q266 547 275 528T284 493Q284 477 274 451T248 393Q226 350 198 304T147 214Q139 198 125 173T100
121T89 74Q89 49 116 49Q150 49 184 57T255 65Q282 65 302 60T324 31Q321 32 318 32T310 32Q291 32 263 28T205 18T150 8T113 3Z" />
<glyph unicode="M" glyph-name="M" horiz-adv-x="550" d="M39 -12Q24 -4 16 10T8 53Q8 74 19 97T46 143T73 184Q111 246 150 310T221 434T264 545Q266 546 272 546Q290 546 309 529T331 494Q331 491 331 488T332 481Q332 456 324 420T307 344T290 265Q283 224
277 186T265 122Q289 153 320 194T385 282T452 372T512 454T557 517T578 547Q596 547 615 537T634 507Q634 503 631 492T609 445Q578 381 544 315T482 181Q470 151 458 120T433 53Q426 32 425 16T422 -9Q401 2 392 21T382 65Q382 97 400 141T444 233T497 328T542
413T560 474Q560 474 547 456T514 411T473 355T436 304T413 274Q370 215 334 167T278 82Q268 61 265 45T261 15Q236 15 227 37T218 87Q218 104 220 121T224 152Q231 195 242 250T264 360T282 453Q273 427 257 396T224 333T190 275T165 235Q146 207 126 171T87 99Q68
63 55 33T39 -12Z" />
<glyph unicode="N" glyph-name="N" horiz-adv-x="406" d="M33 -12Q7 2 7 35Q7 58 17 85T41 138T67 184Q105 246 143 307T210 426T252 535Q258 537 261 537Q279 537 297 519T319 484Q322 460 316 425T301 349T284 265Q277 222 268 178T256 87Q268 122 290 162T334
239T367 293Q386 322 406 358T446 429Q465 466 478 496T493 541Q509 533 516 519T524 476Q524 455 513 432T486 386T459 345Q422 284 383 221T314 98T271 -12Q271 -11 271 -11T270 -10Q243 -8 229 19T214 92Q214 106 215 121T219 152Q226 195 235 248T254 353T270
443Q268 433 254 405T221 343T185 279T159 235Q141 206 120 170T80 97T48 31T33 -12Z" />
<glyph unicode="O" glyph-name="O" horiz-adv-x="460" d="M202 -9Q126 -9 92 37T58 150Q58 199 73 252T117 357T183 449T266 515T361 540Q441 540 475 496T509 387Q509 338 493 284T447 178T378 84T294 16T202 -9ZM197 14Q240 14 278 39T347 106T402 199T437 301T450
396Q450 445 433 476T378 508Q335 508 296 483T225 416T168 324T130 222T116 126Q116 77 135 46T197 14Z" />
<glyph unicode="P" glyph-name="P" horiz-adv-x="410" d="M43 -12Q28 -4 20 10T12 53Q12 74 23 97T50 143T77 184Q118 252 161 321T232 453Q224 451 217 451T201 449Q197 448 193 448T184 448Q163 448 154 455T145 472Q145 476 146 479T149 487Q174 489 200 494T253
506Q255 513 257 520T261 535Q273 535 279 529T288 514Q320 522 350 528T406 534Q460 534 483 505T506 434Q506 397 482 353T416 267T325 200T223 174Q203 174 183 179T143 195Q130 172 117 148T91 99Q72 63 59 33T43 -12ZM153 212Q186 210 228 222T315 258T396
312T457 377T480 446Q480 485 410 485Q381 485 350 479T289 466Q285 447 270 416T236 349T198 284T169 235L153 212Z" />
<glyph unicode="Q" glyph-name="Q" horiz-adv-x="476" d="M339 -167Q314 -167 288 -156T234 -128T180 -98T126 -76Q114 -71 104 -70Q77 -97 57 -97Q36 -97 36 -81Q36 -68 52 -54T100 -40H110L147 5Q107 23 89 63T70 152Q70 201 85 255T128 360T193 453T273 519T364
544Q448 544 484 499T520 385Q520 336 504 282T458 176T391 83T309 16T218 -9Q202 -9 187 -7T159 -1Q156 -8 146 -20T128 -43Q163 -51 208 -65T297 -101Q314 -109 333 -117T371 -125Q391 -125 405 -114Q406 -121 400 -134T380 -157T339 -167ZM203 15Q248 15 288
41T361 111T417 207T454 312T467 409Q467 455 452 483T403 512Q356 512 314 487T238 419T178 325T138 222T124 126Q124 78 143 47T203 15Z" />
<glyph unicode="R" glyph-name="R" horiz-adv-x="424" d="M317 -16Q301 10 277 41T226 101T176 153T140 183L94 99Q75 63 62 33T46 -12Q31 -4 24 10T16 53Q16 74 27 97T54 143T80 184Q122 252 167 325T240 462L217 459Q212 458 208 458T199 458Q161 458 161 482Q161
486 162 489T165 497Q188 499 212 503T260 513Q263 521 265 529T270 545Q282 545 288 539T297 523Q330 531 362 537T422 544Q476 544 499 515T522 445Q522 414 504 376T455 301T385 233T302 187T216 174Q236 155 268 123T322 53Q332 33 332 10Q332 0 329 -7T317
-16ZM186 212Q218 212 259 227T341 267T418 324T474 390T496 456Q496 496 426 496Q395 496 362 489T297 473Q290 447 269 406T222 320T176 241Q174 237 172 233T170 223Q170 212 186 212Z" />
<glyph unicode="S" glyph-name="S" horiz-adv-x="387" d="M216 -15Q171 -15 137 1T79 40T39 80T13 99Q17 112 24 119T47 126Q66 126 79 113T113 77Q141 47 168 30T233 12Q256 12 277 25T299 64Q299 88 281 106T235 141T180 177T134 224T115 290Q115 340 138 384T200
463T283 516T371 535Q409 535 429 507T450 437Q450 419 440 399T415 358T390 316T379 273Q364 273 355 286T345 316Q345 339 355 358T380 396T404 432T415 471Q415 475 410 488T382 501Q352 501 316 481T247 430T193 363T172 297Q172 268 190 246T234 207T287 172T331
135T349 88Q349 53 330 30T281 -4T216 -15Z" />
<glyph unicode="T" glyph-name="T" horiz-adv-x="306" d="M111 -12Q96 -4 88 10T80 53Q80 74 91 97T118 143T145 184Q192 261 240 339T314 484Q287 480 253 477T184 473Q143 473 132 488T120 522Q129 519 144 518T182 517Q205 517 234 518T298 521Q303 521 310
521T326 523Q329 528 329 535Q337 535 342 532T351 524Q385 528 420 531T475 534Q500 534 510 525T523 503T526 477Q520 482 493 487T415 492Q402 492 388 492T358 490V475Q358 459 344 428T310 359T269 288T237 235Q218 207 198 171T159 99Q140 63 127 33T111
-12Z" />
<glyph unicode="U" glyph-name="U" horiz-adv-x="439" d="M173 -5Q101 -5 71 30T40 112Q40 132 45 151T58 190Q78 236 107 289T165 392T213 479T232 532Q235 534 238 534T243 534Q257 534 264 521T271 499Q271 474 259 446T229 385Q211 355 188 320T142 245T105
167T90 89Q90 58 104 38T158 18Q195 18 231 47T302 122T366 223T420 328T462 416Q489 475 495 500T502 535Q505 536 507 536T512 537Q527 537 534 521T541 490Q541 479 539 462T525 414T487 326Q466 282 439 236T385 149T335 82Q304 46 264 21T173 -5Z" />
<glyph unicode="V" glyph-name="V" horiz-adv-x="335" d="M130 -10Q107 -10 93 14Q83 35 83 71Q83 100 88 130T99 182Q111 230 122 287T141 400T149 495Q149 518 146 533Q173 532 191 516T209 464Q209 432 202 389T185 307T169 245Q162 223 152 187T134 113T124
42Q129 55 142 75T171 117T197 154Q231 201 269 251T343 350T407 445T451 529Q468 529 479 519T491 492Q491 482 485 468Q475 446 467 432T450 404T425 369Q402 338 372 300T309 221T249 144T200 83T175 49Q162 30 154 15T141 -8Q138 -9 136 -9T130 -10Z" />
<glyph unicode="W" glyph-name="W" horiz-adv-x="549" d="M123 -10Q100 -10 86 14Q79 27 77 43T74 76Q74 100 78 123T86 160Q89 172 96 199T111 262T128 335T141 405T146 458Q146 482 144 499T139 530Q142 532 149 532Q165 532 179 516T198 486Q202 475 202 454Q202
423 195 382T179 304T162 245Q156 226 148 194T131 127T119 69T116 42Q122 55 135 75T162 115T184 150Q223 213 267 278T349 404T400 516Q415 520 424 511T437 489T443 465Q443 462 443 459T444 452Q444 419 430 373T395 248Q391 231 383 201T365 139T348 80T337
42Q364 89 401 141T480 248T560 354T630 455T679 545Q682 546 688 546Q700 546 704 536T709 512Q709 499 706 490Q702 480 688 459T656 412T621 363T592 324Q510 215 449 134T355 -8Q352 -9 349 -9T343 -10Q332 -10 322 -4T307 14Q302 29 302 46Q302 71 309 105T327
181Q339 226 357 285T388 394Q381 385 376 376Q356 346 330 307T277 225T227 146T187 83T167 48Q157 29 148 15T134 -8Q131 -9 129 -9T123 -10Z" />
<glyph unicode="X" glyph-name="X" horiz-adv-x="362" d="M20 -15Q12 -16 7 -7T2 19Q2 46 17 69T54 115T95 156Q121 182 150 210T211 267L189 411Q180 470 162 497T139 529Q144 531 155 533T173 536Q197 536 210 520T231 480T241 429L257 312Q297 352 335 393T405
471T456 538Q466 538 473 532T480 514Q480 485 460 458T417 408Q381 374 337 338T262 274L280 144Q284 113 293 81T314 27T335 -1Q325 -12 308 -12Q293 -12 278 -2T255 25Q235 71 230 124T216 228Q170 179 131 132T63 46T20 -15Z" />
<glyph unicode="Y" glyph-name="Y" horiz-adv-x="307" d="M160 -11Q140 -6 129 14T118 56Q118 84 124 106T140 156Q149 182 159 210T178 263T193 299L176 411Q167 470 149 497T126 529Q132 531 142 533T160 536Q185 536 198 520T218 480T228 429L244 312Q284 352
322 393T392 471T443 538Q467 538 467 514Q467 485 447 458T404 408Q382 387 354 363T299 316T250 274Q236 242 220 204T190 128T168 62Q158 26 158 6Q158 1 158 -3T160 -11Z" />
<glyph unicode="Z" glyph-name="Z" horiz-adv-x="335" d="M48 -11Q23 -11 9 11T-6 59Q-6 78 12 103T59 158T121 216T184 271Q221 305 263 345T343 424T406 496Q339 489 297 477T223 464Q188 464 170 482T155 511Q165 507 182 506T219 504Q233 504 247 505T275
508Q306 513 341 519T411 526Q428 526 439 513T450 480Q450 464 435 445T398 408T362 375Q334 348 298 313T222 241T149 170T90 110T59 72Q49 55 49 44Q49 33 58 29T79 24Q84 24 90 24T101 26Q118 29 147 35T203 46T244 51Q282 51 299 40T316 -1Q304 2 280 5T235
6Q203 3 168 -1T102 -8T48 -11Z" />
<glyph unicode="[" glyph-name="bracketleft" horiz-adv-x="250" d="M12 -152Q6 -152 -8 -152T-39 -150T-66 -141T-77 -124Q-77 -113 -74 -102T-66 -77Q-54 -38 -31 18T24 137T89 263T156 380T218 471T266 520Q277 527 299 529T334 531Q339 531 353 531T381 528T394
520L393 512Q388 511 383 511Q373 511 363 512T341 513Q334 513 324 513T307 509Q291 493 264 456T205 367T140 258T77 143T25 36T-8 -48Q-18 -82 -18 -102Q-18 -133 8 -133Q19 -133 30 -132T51 -130Q54 -130 60 -131T66 -139Q64 -145 52 -148T28 -151T12 -152Z"
/>
<glyph unicode="\" glyph-name="backslash" horiz-adv-x="378" d="M254 -71Q245 -71 249 -62L253 -50Q255 -43 256 -34T257 -13Q257 25 248 81T224 199T193 320T164 423T144 485V490Q147 498 155 508T171 527T182 535Q183 535 183 535T183 534Q215 448 238 354T275
175T288 29Q288 -16 280 -43Q278 -50 270 -60T254 -71Z" />
<glyph unicode="]" glyph-name="bracketright" horiz-adv-x="315" d="M-20 -154Q-24 -154 -38 -154T-65 -151T-78 -143L-77 -134Q-73 -133 -68 -133Q-57 -133 -47 -134T-26 -136Q-18 -136 -9 -136T8 -132Q25 -116 51 -79T109 10T174 120T237 235T289 342T322 426Q332
459 332 480Q332 511 307 511Q296 511 285 509T263 507Q260 507 254 508T248 517Q250 523 260 526T283 529T303 530Q313 530 334 529T373 522T392 502Q392 492 389 480T382 454Q370 415 346 359T291 240T225 114T157 -3T95 -94T48 -143Q38 -149 16 -151T-20 -154Z"
/>
<glyph unicode="^" glyph-name="asciicircum" horiz-adv-x="319" d="M262 382Q254 383 240 396T210 426T183 461T170 488Q164 483 147 467T111 431T76 398T57 384Q51 384 51 390Q51 396 57 406T70 424Q74 429 92 445T133 481T175 516T199 532Q204 508 215 480T240
425T262 382Z" />
<glyph unicode="_" glyph-name="underscore" horiz-adv-x="456" d="M-12 -37Q-16 -37 -14 -32Q-13 -27 -7 -21T3 -14H462Q467 -14 467 -20Q466 -24 462 -28T453 -37H-12Z" />
<glyph unicode="`" glyph-name="grave" horiz-adv-x="131" d="M124 389Q122 390 111 396T88 410T70 422Q61 428 45 439T15 462T0 475Q0 479 7 484T27 491H28Q35 491 41 487T52 477Q63 467 86 444T128 403Q131 400 131 396Q131 387 124 389Z" />
<glyph unicode="a" glyph-name="a" horiz-adv-x="366" d="M64 -4Q31 -4 18 12T5 51Q5 81 19 115T45 168Q72 211 109 250T187 313T267 338Q287 338 306 332T343 310Q352 303 355 297T359 285Q359 270 346 270Q337 270 333 282Q320 316 291 316Q266 316 234 293T171
238Q137 202 109 161T67 85Q60 70 58 59T55 39Q55 21 70 21Q87 21 120 46Q144 65 169 92T217 145T252 187Q257 195 261 202T270 214Q274 219 283 222T303 225Q315 225 323 221T326 207Q326 206 315 187T290 140T264 88Q258 74 254 62T250 42Q250 29 260 29Q267
29 281 37Q303 48 325 69T367 112Q378 123 387 133T404 154Q407 157 409 157Q415 157 415 148Q415 143 411 139Q400 126 389 113T366 86Q355 73 344 61T320 37Q277 -3 241 -3Q225 -3 214 8T203 45Q203 64 210 88Q212 99 216 110T225 133Q205 101 180 70T125 17T64
-4Z" />
<glyph unicode="b" glyph-name="b" horiz-adv-x="311" d="M93 -18Q53 -18 39 3T24 55Q24 86 33 118T50 170Q66 212 88 255T133 339T173 411Q209 473 242 506T303 552T346 564Q320 536 286 484T213 366T138 226Q125 201 113 176T90 126Q82 108 75 84T68 40Q68 23
75 11T99 -1Q120 -1 144 17T189 64T224 122T240 175L241 188Q214 195 214 234Q214 257 223 274T245 291Q260 291 266 276T272 237Q272 225 271 212T267 186Q272 183 288 181T314 178Q349 178 374 200T421 251Q424 255 426 255Q429 255 430 251T431 242Q431 235
430 233Q407 199 379 179T314 159Q303 159 291 161T266 167Q263 156 260 146T254 127Q243 99 219 65T163 7T93 -18Z" />
<glyph unicode="c" glyph-name="c" horiz-adv-x="275" d="M105 -15Q66 -15 42 5T18 68Q18 98 27 130T47 182Q68 224 98 259T161 315T224 337Q253 337 269 318T285 275Q285 255 274 241Q260 222 250 214T235 206Q230 206 230 213Q230 219 235 232Q237 238 243 253T254
283T258 303Q243 306 216 287T159 236T111 169Q107 161 97 139T79 92T71 44Q71 27 79 16T106 4Q122 4 144 12Q182 24 214 52T275 111Q285 122 294 132T311 152Q313 154 314 155T317 157Q322 157 322 149Q322 142 318 137Q308 124 297 111T275 85Q242 48 201 17T105
-15Z" />
<glyph unicode="d" glyph-name="d" horiz-adv-x="391" d="M73 -4Q40 -4 27 12T14 51Q14 81 28 115T54 168Q81 211 118 250T196 313T276 338Q302 338 327 326Q332 337 336 345T344 362Q379 424 403 467T456 534T531 564Q504 528 484 499T446 441T409 376T366 293Q368
287 368 285Q368 278 364 274T354 269Q333 227 314 185T282 107T269 51Q269 30 284 30Q293 30 306 37Q328 48 350 68T392 111Q403 122 412 132T429 154Q432 157 434 157Q440 157 440 149Q440 143 436 139Q419 117 401 96T363 54Q359 50 355 46T346 37Q325 20 304
8T265 -4Q240 -4 232 11T223 48Q223 62 225 77T232 103Q235 114 239 128T250 156Q228 122 200 85T140 22T73 -4ZM79 21Q96 21 129 46Q153 65 179 92T227 146T262 188Q274 217 288 248T319 311Q311 315 300 315Q275 315 243 293T180 238Q146 202 118 161T76 85Q69
70 67 59T64 39Q64 21 79 21Z" />
<glyph unicode="e" glyph-name="e" horiz-adv-x="272" d="M99 -15Q62 -15 40 6T18 67Q18 97 29 130T52 182Q75 224 107 259T174 315T238 337Q265 337 284 322T304 282Q304 272 299 259T283 232Q243 181 195 153T84 110Q80 97 77 85T72 61Q71 56 71 52T70 42Q70
22 79 14T103 5Q125 5 150 16T197 43T230 67Q241 77 251 87T275 111Q285 122 294 132T311 154Q314 157 316 157Q322 157 322 148Q322 143 318 139Q300 117 282 96T245 54Q223 31 185 8T99 -15ZM90 123Q116 134 150 155T217 205T271 269Q278 280 278 289Q278 303
262 303Q251 303 235 295Q185 268 149 222T90 123Z" />
<glyph unicode="f" glyph-name="f" horiz-adv-x="244" d="M-22 -349Q-50 -349 -61 -329T-72 -277Q-72 -257 -69 -233T-59 -184Q-32 -72 18 36T121 252H102Q91 252 91 258Q91 262 96 265T112 269H127Q153 325 178 372T234 475Q257 516 287 540T346 564Q349 564
352 564T359 563Q326 516 300 474T247 383T187 269H309Q314 269 314 264Q314 260 311 256T302 252H178L160 215Q167 195 170 168T173 111Q173 65 168 18T156 -60Q141 -137 117 -203T58 -309T-22 -349ZM-12 -332Q7 -332 25 -311T60 -258T89 -197T107 -151Q118 -121
128 -76T145 19T152 116Q152 155 146 185Q128 146 105 95T57 -13T13 -124T-19 -224T-32 -298Q-32 -331 -12 -332Z" />
<glyph unicode="g" glyph-name="g" horiz-adv-x="367" d="M-65 -349Q-107 -349 -120 -329T-133 -287Q-130 -250 -108 -217T-50 -155T25 -102T102 -59T168 -25T207 -3Q222 41 229 81T234 153Q224 133 205 101T160 42Q140 20 118 6T73 -9Q42 -9 30 13T18 64Q18 73
19 82T22 99Q30 131 46 162T79 219T109 258Q138 293 177 315T258 338Q300 338 337 310Q352 298 352 285Q352 270 340 270Q330 270 326 282Q313 319 283 319Q254 319 224 299T165 245T115 175T79 104T66 48Q66 21 87 21Q106 21 128 40T172 87T209 144T230 190Q237
212 247 219T268 226Q272 226 275 226T283 224Q284 219 284 209T285 185Q285 156 282 114T269 31L280 39Q306 58 331 78T368 112Q379 123 388 133T405 154Q407 157 410 157Q416 157 416 149Q416 144 411 139Q390 113 367 86Q361 79 338 59T288 20Q275 10 262 3Q243
-63 210 -125T132 -238T38 -319T-65 -349ZM-70 -328Q-31 -328 10 -299T89 -225T156 -128T199 -31Q182 -42 147 -59T68 -101T-14 -154T-81 -217T-110 -290Q-111 -303 -102 -315T-70 -328Z" />
<glyph unicode="h" glyph-name="h" horiz-adv-x="330" d="M-28 -5Q22 120 73 226T171 416Q205 479 236 511T294 554T337 564Q313 538 282 492T217 385T149 259T85 126Q94 138 111 160T152 210T199 261T248 301T291 317Q313 317 320 307T328 282Q328 263 316 237T285
184T250 132T222 88Q208 60 208 44Q208 29 221 29Q225 29 231 31T245 37Q267 48 289 69T331 112Q341 123 350 133T367 154Q370 157 372 157Q378 157 378 148Q378 143 374 139Q353 113 330 86Q318 73 307 61T284 37Q241 -3 203 -3Q183 -3 174 9T164 41Q164 67 177
101T211 167Q213 170 223 186T247 223T270 263T280 290Q280 297 272 294T244 274Q223 256 197 228T143 168T91 102T48 41L42 24Q36 8 25 4T0 -1T-28 -5Z" />
<glyph unicode="i" glyph-name="i" horiz-adv-x="203" d="M211 395Q200 395 193 402T186 420Q186 435 196 445T220 456Q233 456 240 448T246 426Q243 413 234 404T211 395ZM74 0Q52 0 36 14T20 64Q20 79 23 97Q32 144 52 187T92 261T118 303Q123 313 144 322T179
332Q191 332 191 324Q191 317 186 311Q171 287 152 257T114 192T84 125T72 64Q72 49 77 40T98 31Q114 31 135 46T175 81T204 112Q214 123 223 133T241 154Q244 157 246 157Q252 157 252 148Q252 143 248 139Q237 126 226 113T203 86Q187 67 167 47T124 14T74 0Z"
/>
<glyph unicode="j" glyph-name="j" horiz-adv-x="193" d="M209 395Q198 395 191 402T184 420Q184 435 194 445T218 456Q230 456 237 449T244 430Q244 416 234 406T209 395ZM-162 -336Q-186 -336 -198 -327T-214 -305T-218 -282Q-218 -249 -192 -212T-125 -136T-42
-63T34 -1Q40 14 51 43T74 106T98 172T118 228T127 258Q135 302 155 315T191 329Q198 329 204 327Q205 318 197 292T175 229T146 156T116 85T94 31L105 39Q131 58 156 78T193 112Q204 123 212 133T229 154Q232 157 234 157Q240 157 240 149Q240 143 236 139Q215
113 192 86Q186 79 163 59T113 20Q107 16 99 10T83 0Q47 -102 11 -177T-67 -294T-162 -336ZM-167 -317Q-145 -317 -125 -297T-83 -246Q-62 -212 -41 -172T-4 -95T22 -31Q-12 -62 -49 -96T-120 -164T-175 -229T-196 -286Q-196 -295 -190 -306T-167 -317Z" />
<glyph unicode="k" glyph-name="k" horiz-adv-x="334" d="M229 -7Q198 -7 179 14T151 62T140 108H138Q124 108 124 114Q124 117 128 120T137 125Q138 125 139 125T141 126Q144 143 148 138L152 129Q182 140 208 162T253 208T280 248Q289 265 294 280T300 304Q300
317 288 311Q274 306 252 289T208 249T169 207Q152 186 130 156T86 95T50 39Q47 33 44 24Q38 8 27 4T2 -1T-26 -5Q25 120 80 231T191 430Q223 482 253 509T307 548T347 561Q281 482 217 375T92 136Q107 157 130 189T180 253T235 309T291 338Q297 340 303 340T314
340Q339 340 349 328T360 297Q360 266 337 233Q322 212 295 187T234 142T162 112Q171 98 181 85T200 62Q209 52 220 45T243 37Q262 37 274 54T294 87Q305 87 305 72Q305 35 280 14T229 -7Z" />
<glyph unicode="l" glyph-name="l" horiz-adv-x="191" d="M58 -3Q39 -3 26 9T13 53Q13 60 14 68T17 87Q22 114 38 156T76 245T121 337T163 414Q200 475 232 508T289 553T331 564Q305 535 274 493T208 392Q164 316 132 254T76 127Q63 89 63 65Q63 31 86 31Q104
31 126 49T162 81Q182 101 197 118T228 154Q231 157 233 157Q239 157 239 148Q239 143 235 139Q224 126 214 113T191 86Q181 73 169 61T144 37Q127 21 103 9T58 -3Z" />
<glyph unicode="m" glyph-name="m" horiz-adv-x="490" d="M-35 -6Q8 74 36 148T102 299Q113 319 130 326T163 334Q176 334 186 331Q183 324 171 304T144 257Q134 239 114 202T77 124Q86 137 104 160T146 211T195 262T244 301T287 317Q307 317 314 307T322 282Q322
264 309 242T281 191Q273 176 262 156T240 116T223 83Q233 102 253 131T299 192T354 252T408 298T455 316Q475 316 482 306T490 282Q490 263 478 237T447 184T411 132T383 88Q369 60 369 45Q369 29 382 29Q393 29 406 37Q429 48 451 68T492 112Q502 124 513 136T529
154Q531 157 534 157Q540 157 540 149Q540 144 535 139Q525 126 514 113T491 86Q481 73 470 61T445 37Q402 -3 365 -3Q344 -3 335 9T326 41Q326 67 339 101T372 167Q374 170 385 186T409 223T432 263T442 290Q442 297 434 294T405 274Q381 253 351 221T291 151T236
69Q231 59 222 49T198 39H195Q189 39 182 43T174 61Q174 86 190 120T227 189T263 254Q268 265 271 274T275 288Q275 296 267 294T238 274Q214 254 184 221T122 150T65 76T25 12Q21 3 15 2T-6 -1Q-16 -1 -22 -1T-35 -6Z" />
<glyph unicode="n" glyph-name="n" horiz-adv-x="335" d="M-30 -6Q13 74 41 148T107 299Q118 319 135 326T168 334Q181 334 191 331Q188 324 176 304T149 257Q139 239 119 202T82 124Q91 135 110 160T154 214T206 271T260 316T308 334Q324 334 336 324T348 297Q348
272 327 239T285 173Q281 167 271 150T248 112T228 71T219 40Q219 29 228 29Q247 29 267 44T307 78T337 111Q348 123 357 134T375 155Q378 158 380 158Q386 158 386 149Q386 143 382 139Q371 126 360 113T337 86Q326 73 315 61T291 37Q248 -3 211 -3Q186 -3 178
12T169 49Q169 73 182 101T214 158T252 216T285 267T298 307Q298 313 291 313Q285 313 268 299T230 265T193 227T169 201Q144 174 121 143T76 83Q64 66 55 49T35 12Q30 3 22 2T-1 -1Q-11 -1 -17 -1T-30 -6Z" />
<glyph unicode="o" glyph-name="o" horiz-adv-x="300" d="M88 -7Q51 -7 33 17T14 78Q14 120 36 170Q56 215 87 252T156 311T227 334Q268 334 287 309T306 246Q306 205 285 158Q274 134 253 106T205 52T148 10T88 -7ZM107 13Q128 13 149 27T189 63T222 105T244
142Q261 174 269 203T277 255Q277 303 241 303Q219 303 195 286T147 239T107 174Q71 102 71 57Q71 21 94 15Q97 14 100 14T107 13Z" />
<glyph unicode="p" glyph-name="p" horiz-adv-x="350" d="M-98 -348Q-100 -356 -106 -348T-118 -320T-123 -278Q-123 -260 -119 -245Q-108 -198 -86 -139T-37 -16T21 109T79 223T131 309Q168 366 195 389T242 419T279 428Q218 352 163 263T50 61Q76 101 107 148T173
238Q206 279 238 306T293 334Q322 334 332 317T343 277Q343 245 330 207T294 129T239 56T170 0Q205 8 233 20T289 53T350 111Q361 122 372 135T392 160Q395 163 397 163Q403 163 403 154Q403 148 399 144Q389 131 376 116T350 86Q315 50 274 23T179 -19Q143 -28
100 -28Q91 -28 82 -28T65 -26Q51 -25 38 -19T24 6Q-23 -92 -50 -182T-98 -348ZM77 -9Q108 -9 142 17T207 84T258 174Q269 199 278 231T288 284Q288 304 277 304Q264 304 244 284T190 226Q179 213 163 190T129 142T97 94T76 60Q70 49 64 35T57 9Q57 -9 77 -9Z"
/>
<glyph unicode="q" glyph-name="q" horiz-adv-x="393" d="M115 -341Q107 -341 97 -322T86 -274Q86 -266 87 -258T90 -241Q102 -188 122 -135T167 -28Q160 -29 154 -29T141 -29Q125 -29 125 -23Q125 -14 143 -12Q151 -11 157 -11T173 -9Q196 38 223 86T275 180Q251
151 225 119T172 59T118 14T64 -4Q31 -4 18 12T5 51Q5 81 19 115T45 168Q72 211 109 250T187 313T267 338Q286 338 307 333T344 313Q367 351 385 362T419 374Q428 374 435 372T449 369Q433 350 419 330T387 280T342 206Q311 154 284 103T233 3Q271 16 312 42T393
111Q403 122 412 132T429 154Q432 157 434 157Q440 157 440 148Q440 143 436 139Q426 126 416 113T393 86Q359 49 318 23T225 -18Q190 -100 165 -178T121 -335Q120 -341 115 -341ZM70 21Q87 21 120 46Q183 96 237 157T331 291Q321 316 295 316Q270 316 236 293T171
238Q137 202 109 161T67 85Q60 70 58 59T55 39Q55 21 70 21Z" />
<glyph unicode="r" glyph-name="r" horiz-adv-x="292" d="M160 -5Q141 -5 128 8Q115 21 115 45Q115 56 117 65T122 82Q127 97 141 121T172 171T201 219Q216 245 216 264Q216 285 198 297Q191 302 184 306T172 315L144 270Q120 237 94 202T44 138T3 88Q0 85 -3
85Q-8 85 -11 90T-10 99Q29 143 65 189T132 287L156 328Q152 331 144 341T128 363T120 385Q120 393 125 397T145 402Q179 402 178 329Q192 318 209 312T241 301T267 285T277 255Q277 238 268 216T245 176Q234 161 220 140T192 98T173 60Q168 47 168 41Q168 28 180
28Q191 28 207 37Q228 48 250 68T292 111Q303 122 312 132T329 154Q332 157 334 157Q340 157 340 148Q340 143 336 139Q315 114 293 87T246 37Q231 25 207 10T160 -5Z" />
<glyph unicode="s" glyph-name="s" horiz-adv-x="289" d="M128 -23Q90 -23 48 8Q30 21 17 44Q10 56 10 70Q10 86 21 86Q26 86 33 78T47 56Q56 36 66 22T98 7Q118 7 131 30T151 89T162 165T167 238T169 290Q122 233 81 183T2 88Q-2 83 -5 83Q-8 83 -8 89Q-8 100
-3 107Q17 131 41 160T89 220T133 273T162 309Q162 339 176 356T210 382T248 390Q265 390 273 386Q280 383 280 379Q280 376 270 373Q246 367 236 348T224 301T221 242Q221 196 217 145T204 59Q202 52 199 44T192 28Q220 48 247 71T289 111Q300 122 308 132T326
154Q328 157 331 157Q337 157 337 149Q337 144 332 139Q311 114 290 86T242 37Q231 28 214 14T180 -9Q152 -23 128 -23Z" />
<glyph unicode="t" glyph-name="t" horiz-adv-x="205" d="M65 -3Q43 -3 28 10T13 54Q13 62 14 70T17 87Q25 127 50 184T114 315H76Q65 315 65 321Q65 324 70 327T86 331H122Q139 360 149 376T167 402Q193 435 214 448T252 464T275 466Q261 451 244 427T211 378T184
331H286Q297 331 297 326Q297 322 291 319T275 315H174Q158 286 146 264T121 216T90 154Q76 123 70 101T63 64Q63 45 71 37T91 29Q103 29 119 37Q141 48 163 69T205 112Q215 123 224 133T241 154Q244 157 246 157Q252 157 252 149Q252 143 248 139Q227 113 204
86Q177 55 144 26T65 -3Z" />
<glyph unicode="u" glyph-name="u" horiz-adv-x="347" d="M215 -3Q181 -3 181 39Q181 59 188 85T207 143Q186 110 161 77T109 23T57 1Q29 1 20 19T10 60Q10 79 14 96T22 122Q37 160 59 206T100 286Q110 303 132 315T169 327Q184 327 184 317Q184 309 174 293Q165
280 149 253T115 191T79 124Q57 82 57 51Q57 26 72 26Q80 26 93 35T124 64Q132 72 148 96T186 150T227 210T260 259Q284 305 311 321T375 337Q365 332 351 311T322 268Q312 253 300 229T276 179T256 129T244 93Q239 71 239 58Q239 34 251 34Q255 34 261 37Q283
48 305 69T347 112Q357 123 366 133T383 154Q386 157 388 157Q394 157 394 149Q394 143 390 139Q369 113 346 86Q324 61 300 37Q280 18 256 8T215 -3Z" />
<glyph unicode="v" glyph-name="v" horiz-adv-x="309" d="M88 -12Q60 -12 47 6T34 53Q34 83 46 120T80 196T129 266T184 315Q158 314 131 304T83 293Q66 293 55 306T44 330Q44 336 50 336Q54 336 61 332Q71 326 86 324T118 322Q141 322 162 324T195 328Q198 329
202 329T210 329Q221 329 229 327T238 319Q238 312 227 304Q213 294 190 266T142 201T99 126Q97 120 90 103T77 65T71 29Q71 5 88 5Q118 5 149 28T208 88T258 168T293 253T306 327Q306 344 305 358T300 385Q303 386 306 386T311 386Q334 386 344 365T355 318Q355
267 322 203T234 76Q216 57 194 37T145 2T88 -12Z" />
<glyph unicode="w" glyph-name="w" horiz-adv-x="490" d="M274 -8Q241 -8 226 14T210 68Q210 86 214 101Q186 60 149 30T82 0Q57 0 46 16T34 52Q34 84 47 122T81 198T130 267T185 315Q160 314 132 304T84 293Q68 293 57 306T45 329Q45 336 52 336Q56 336 63 332Q73
326 88 324T120 322Q143 322 164 324T197 328Q200 329 204 329T212 329Q222 329 231 327T240 319Q240 312 229 304Q215 294 192 266T144 201T101 126Q92 104 87 84T81 50Q81 25 99 25Q114 25 173 96Q214 146 240 198T290 281Q296 289 304 293T320 297Q330 297 337
292T344 279Q344 271 336 260Q330 253 319 233T296 186T273 131T259 76Q258 69 258 63T257 50Q257 28 263 19T278 11Q298 11 323 31T375 85T425 161T463 247T480 331Q480 334 480 338T481 348Q481 368 475 391T446 414Q432 414 414 403Q409 400 409 402T411 409Q415
412 427 419T452 426Q495 426 514 405T533 349Q533 297 503 228T420 91Q389 51 351 22T274 -8Z" />
<glyph unicode="x" glyph-name="x" horiz-adv-x="320" d="M-12 -40Q-21 -40 -21 -25Q-21 -15 -16 -7Q-6 12 21 38T81 94T144 148Q146 173 154 207T176 274T205 323Q189 318 168 304T127 290Q115 290 105 299T88 319T81 337Q81 343 86 343Q90 343 97 339Q107 333
122 331T156 328Q179 328 201 331T235 335Q238 336 244 336Q252 336 252 329Q252 326 251 322T246 311Q239 299 232 285T219 256Q209 229 205 201Q246 239 286 278T355 347T392 389Q402 402 406 402Q410 402 408 392T401 367T386 341Q364 313 314 272T201 175Q199
160 198 146T196 118Q196 71 203 52T223 32Q234 32 249 44T284 75Q293 83 302 92T320 112Q330 123 339 133T356 154Q359 157 361 157Q367 157 367 148Q367 143 363 139Q352 126 341 113T319 86Q307 73 296 61T273 37Q248 14 229 4T196 -7Q165 -7 154 31T143 122Q101
84 68 52T14 -15Q-1 -40 -12 -40Z" />
<glyph unicode="y" glyph-name="y" horiz-adv-x="319" d="M-60 -330Q-88 -330 -103 -315T-119 -272Q-119 -232 -96 -196T-38 -130T36 -74T105 -31T149 -3Q174 42 196 89T235 184Q209 138 179 96T118 27T59 0Q30 0 20 19T10 62Q10 80 13 97T20 122Q29 148 43 179T71
241T97 295Q105 312 127 324T163 337Q178 337 178 326Q178 318 169 303Q161 289 145 259T111 193T77 124Q59 85 59 54Q59 41 63 33T76 25Q84 25 97 34T127 64Q136 74 154 98T195 154T237 223T269 294L275 316Q283 323 291 323Q302 323 310 313T319 301Q303 243
279 177T217 29Q255 53 281 75T319 111Q329 122 338 133T356 155Q359 158 361 158Q367 158 367 149Q367 143 363 139Q352 126 342 113T319 85Q299 63 266 38T200 -6Q175 -65 148 -122T89 -227T21 -302T-60 -330ZM-64 -309Q-38 -309 -13 -288T36 -234T79 -162T114
-89T140 -31Q123 -42 94 -62T32 -109T-30 -164T-78 -221T-97 -274Q-97 -286 -90 -297T-64 -309Z" />
<glyph unicode="z" glyph-name="z" horiz-adv-x="324" d="M18 -19Q11 -19 11 -9Q11 1 26 21T64 66T113 118T161 166T197 201Q221 224 245 250T291 297Q286 297 272 298T240 299Q232 299 224 299T209 297Q173 291 148 270T103 221T62 162T16 106Q12 102 8 102Q4
102 2 106T4 115Q30 146 51 185T93 260T140 318T204 337Q230 335 252 334T293 332Q314 332 332 333T365 336Q325 299 284 260T214 191Q186 163 152 130T96 71Q98 72 101 72T106 72Q132 72 150 59Q158 55 172 46T209 36Q221 36 234 40T264 57Q270 61 282 70T307
91T328 112Q339 123 348 133T365 154Q367 157 370 157Q376 157 376 149Q376 144 371 139Q361 126 350 113T327 86Q323 81 307 66T271 33T232 3Q219 -7 207 -10T185 -14Q160 -14 144 -1T113 16Q109 17 105 17T95 18Q58 18 34 -9Q24 -19 18 -19Z" />
<glyph unicode="{" glyph-name="braceleft" horiz-adv-x="339" d="M58 -72Q44 -72 34 -66T24 -43Q24 -37 25 -30T29 -13Q42 30 65 73T102 160Q105 172 105 180Q105 199 93 206T70 213Q68 213 66 213T62 212L65 224Q94 233 114 244T150 277T184 335Q200 368 213
401T244 464T287 516T353 550Q357 550 370 552T388 555H390Q396 555 396 550Q396 549 393 545T384 541Q343 533 321 506T283 436T239 342Q227 319 203 295T152 252T105 224Q123 223 140 211T157 178Q157 175 157 172T155 166Q142 121 119 79T83 -8Q79 -20 79 -31Q79
-46 87 -49T104 -53H111Q121 -53 121 -56Q121 -63 107 -66T77 -71T58 -72Z" />
<glyph unicode="|" glyph-name="bar" horiz-adv-x="210" d="M12 -30Q4 -30 7 -13Q10 12 25 70T65 206T125 371T202 544Q202 544 205 547Q209 547 220 536T234 513Q234 510 233 508Q225 491 208 451T170 358T125 248T82 137T46 43T24 -15Q18 -30 12 -30Z" />
<glyph unicode="}" glyph-name="braceright" horiz-adv-x="315" d="M-13 -73Q-19 -73 -19 -69Q-19 -67 -16 -64T-7 -59Q34 -51 56 -24T95 46T138 140Q150 163 174 187T225 230T271 258Q253 259 237 271T220 304Q220 307 220 310T222 316Q236 361 258 404T293 490Q297
503 297 513Q297 527 289 531T272 535Q265 535 260 535T255 539Q257 546 271 549T301 553T319 554Q333 554 343 548T353 523Q353 513 348 495Q335 452 312 409T275 322Q274 316 273 311T271 301Q271 282 283 276T307 269H314L311 258Q283 250 263 238T226 205T192
147Q176 114 163 81T133 18T91 -34T24 -68Q20 -68 7 -70T-10 -73H-13Z" />
<glyph unicode="~" glyph-name="asciitilde" horiz-adv-x="286" d="M40 422Q34 421 33 422T32 425Q32 445 54 465T123 486Q163 486 198 474T266 461Q282 461 293 466T311 485Q316 485 316 482T317 476Q317 454 293 438T231 422Q202 422 182 430T145 447T105 455Q75
455 62 446T40 422Z" />
<glyph unicode="&#xa0;" glyph-name="uni00A0" horiz-adv-x="170" />
<glyph unicode="&#xa1;" glyph-name="exclamdown" horiz-adv-x="223" d="M215 265Q204 265 198 271T188 284Q185 289 185 293Q185 299 188 304T195 313Q203 318 210 323T227 333Q235 337 241 339T254 347Q257 349 259 347T260 342Q254 333 250 315T239 281T215
265ZM-111 -239Q-88 -215 -58 -176T6 -89T69 10T122 111Q128 124 138 145T158 184T173 201Q176 201 176 192Q176 187 175 179T172 159Q168 138 155 101T122 20T83 -64T43 -131Q4 -186 -26 -208T-78 -234T-111 -239Z" />
<glyph unicode="&#xa2;" glyph-name="cent" horiz-adv-x="400" d="M72 18Q68 18 65 24T61 38Q61 46 65 54Q70 65 81 84T103 117Q81 128 71 154T61 210Q61 246 74 283T100 343Q126 390 160 428T232 489T303 515Q315 531 331 553T361 595T379 622Q389 622 389 605Q389
598 386 586T374 558Q374 558 368 549T355 528T342 508Q363 504 372 490T382 459Q382 434 365 412Q348 390 336 381T319 371Q313 371 313 379Q313 388 320 401Q323 408 331 425T346 459T352 482Q342 487 333 487Q310 487 280 469T219 418T167 345Q154 323 141 292T118
230T109 176Q109 153 118 143T143 133Q162 133 187 145T239 174T286 209T320 237Q322 233 323 230T324 223Q324 206 308 187T270 151Q248 135 220 121T160 106Q155 106 150 106T139 108Q130 98 118 81T94 47T78 23Q75 18 72 18Z" />
<glyph unicode="&#xa3;" glyph-name="sterling" horiz-adv-x="649" d="M547 -35Q485 -35 416 -12T280 36Q246 12 206 -1T117 -15Q67 -15 45 5T22 52Q22 80 44 103T108 127Q142 127 183 113T270 81Q289 100 305 120T337 163Q321 162 306 162T279 161Q252 161 246
175T239 205Q256 202 285 202Q323 202 365 205L374 218Q392 247 415 287T464 371T521 453T586 515T658 541Q693 541 709 520T725 468Q725 439 712 408T675 354Q656 338 643 331T621 323Q613 323 613 329Q613 337 630 350Q671 382 685 417T700 481Q698 520 660 520Q642
520 623 506T587 472T555 432T533 398Q508 358 484 312T433 221Q430 218 429 215T425 208H458Q484 208 495 201T508 182T511 158Q508 163 493 168T447 173Q429 173 405 170H401Q382 142 361 115T314 64Q348 51 382 38T453 16Q478 10 504 7T554 3Q579 3 597 7T625
20Q636 26 636 18Q636 12 626 -1T597 -24T547 -35ZM121 5Q154 5 183 17T238 51Q199 65 164 74T99 84Q73 84 61 75T48 52Q48 34 68 20T121 5Z" />
<glyph unicode="&#xa4;" glyph-name="currency" horiz-adv-x="439" d="M339 142Q333 142 330 147Q317 161 306 174T283 199Q245 170 202 170Q160 170 138 200Q122 188 105 176T67 149Q59 143 54 143Q49 143 51 150T72 175Q82 184 96 195T127 219Q124 227 122 237T120
257Q120 265 121 274T125 293Q130 310 138 326T158 357L116 405Q117 419 118 430T126 442Q128 442 135 437Q144 430 156 414T181 380Q201 397 223 406T269 416Q291 416 308 408T336 385Q354 400 371 413T399 433Q406 437 410 437Q417 437 413 426T402 401L348 362Q351
355 352 347T353 329Q353 321 352 312T348 293Q343 271 331 252T304 217Q315 204 323 193T337 174Q346 159 346 149Q346 142 339 142ZM198 189Q230 189 261 218T313 289Q318 301 319 312T321 333Q321 359 309 375T276 392Q255 392 232 378T190 341T160 289Q151
267 151 246Q151 221 164 205T198 189Z" />
<glyph unicode="&#xa5;" glyph-name="yen" horiz-adv-x="294" d="M145 -11Q125 -6 114 14T103 56Q103 83 109 104T123 151Q111 150 100 150T79 150Q54 150 48 163T41 192Q56 189 82 189Q95 189 109 189T137 191L155 240Q142 239 129 238T105 237Q80 237 73 250T66
280Q81 277 107 277Q121 277 137 277T170 279L178 299L161 411Q153 470 135 497T111 529Q117 531 127 533T145 536Q170 536 183 520T203 480T213 429L229 312Q269 352 307 393T377 471T428 538Q452 538 452 514Q452 485 432 458T389 408Q358 379 318 345T246 283Q272
285 287 283Q316 281 321 266T327 235Q324 239 309 243T265 248Q256 248 246 248T225 246H223Q218 233 212 221T201 195Q220 195 236 195T262 195Q291 193 296 178T302 147Q299 152 284 156T239 161Q231 161 221 161T200 159L186 157Q176 131 167 107T153 62Q143
26 143 6Q143 1 143 -3T145 -11Z" />
<glyph unicode="&#xa6;" glyph-name="brokenbar" horiz-adv-x="303" d="M132 322Q152 377 176 433T228 544Q228 543 230 547Q234 547 246 536T259 513Q259 510 258 508Q249 488 228 437T180 322H132ZM38 -30Q31 -30 31 -19Q31 5 50 75T102 240L148 241Q126 185
106 133T70 42T49 -15Q43 -30 38 -30Z" />
<glyph unicode="&#xa7;" glyph-name="section" horiz-adv-x="457" d="M224 -105Q179 -105 146 -89T89 -52T50 -14T25 4Q29 17 36 24T59 31Q78 31 91 19T125 -17Q153 -48 178 -64T241 -80Q264 -80 286 -67T308 -28Q308 -4 290 14T246 48T192 83T147 129T129 195Q129
231 142 250T172 279T201 293Q197 301 196 309T195 328Q195 363 214 399T267 466T342 516T426 535Q464 535 485 507T506 437Q506 419 495 399T470 358T445 316T434 273Q419 273 410 286T400 316Q400 339 410 358T435 396T459 432T470 471Q470 475 465 488T438 501Q408
501 377 485T318 443T274 389T257 335Q257 311 272 294T309 263T353 236T390 207T405 169Q405 132 379 104T320 61Q337 48 347 33T357 -2Q357 -37 338 -60T289 -94T224 -105ZM295 80L315 88Q332 96 349 110T367 146Q367 166 350 180T306 208T254 238T212 276Q193
258 184 241T175 207Q175 185 189 164T226 125Q242 113 260 102T295 80Z" />
<glyph unicode="&#xa8;" glyph-name="dieresis" horiz-adv-x="184" d="M145 387Q134 387 128 392T118 405Q116 408 116 414Q116 419 119 424T125 432Q140 445 155 452Q159 456 175 456Q187 456 183 447Q177 439 174 425T166 399T145 387ZM29 387Q18 387 12 392T2
405Q0 408 0 414Q0 419 3 424T9 432Q24 445 39 452Q43 456 59 456Q71 456 67 447Q61 439 58 425T50 399T29 387Z" />
<glyph unicode="&#xa9;" glyph-name="copyright" horiz-adv-x="572" d="M209 -6Q156 -6 117 18T57 86T35 184Q35 224 47 269Q63 326 95 376T171 465T265 525T365 547Q418 547 457 522T517 454T538 354Q538 314 526 269Q510 212 478 162T402 74T309 15T209 -6ZM214
25Q270 25 325 57T423 145T488 269Q501 312 501 354Q501 424 465 469T363 514Q308 514 252 481T153 393T89 269Q82 247 79 226T76 184Q76 114 113 70T214 25ZM249 138Q206 138 187 161T168 218Q168 253 184 290T227 358T287 410T356 430Q388 430 402 414T416 378Q416
374 416 370T414 360Q410 346 403 330T392 306L389 301L388 300Q372 300 372 320Q372 329 375 341T383 365Q389 379 389 390Q389 401 384 408T366 415Q333 415 304 394T253 339T219 270T207 207Q207 185 214 169T249 152Q282 152 312 180T359 249Q361 252 363 251Q371
246 371 232Q371 205 351 184T302 151T249 138Z" />
<glyph unicode="&#xaa;" glyph-name="ordfeminine" horiz-adv-x="336" d="M81 278Q56 279 47 291T38 320Q38 343 48 368T67 408Q87 440 115 469T174 516T234 535Q248 535 263 530T291 514Q303 505 303 495Q303 484 293 484Q286 484 283 493Q273 518 252 518Q233
518 209 501T161 460Q136 433 116 402T84 345Q74 322 74 310Q74 297 85 297Q98 297 123 316Q142 330 161 350T196 390T223 422Q226 427 229 432T236 442Q239 446 246 448T261 450Q270 450 276 447T278 437Q278 436 270 422T251 387T232 347Q228 337 225 328T221
312Q221 304 229 304Q236 304 245 309Q261 317 277 333T309 365Q317 374 323 381T337 397Q338 399 341 399Q345 399 345 393Q345 390 342 385L309 346Q300 336 292 327T274 309Q242 279 214 279Q202 279 194 287T186 315Q186 325 191 347Q193 355 196 364T202 381Q187
357 168 334T126 294T81 278Z" />
<glyph unicode="&#xab;" glyph-name="guillemotleft" horiz-adv-x="383" d="M296 108L288 110Q282 118 272 135T252 172T232 211T216 240Q221 244 236 257T271 287T312 320T347 347T364 358L370 355L372 349Q369 339 356 323T326 290T293 258T269 235L303 119L301
110L296 108ZM173 101Q168 101 165 104Q144 133 127 167T93 234Q98 238 113 251T148 281T189 314T223 341T241 352L247 349L250 343Q247 333 233 317T201 283T168 251T145 229L179 113L178 105L173 101Z" />
<glyph unicode="&#xac;" glyph-name="logicalnot" horiz-adv-x="687" d="M502 12Q496 12 491 18T486 31L521 195H77Q73 195 67 197T60 206Q60 213 69 224T86 235H569L525 31Q524 23 518 18T502 12Z" />
<glyph unicode="&#xad;" glyph-name="uni00AD" horiz-adv-x="351" d="M308 184Q305 188 290 192T245 197Q237 197 227 197T206 195Q196 195 174 193T128 188T85 186Q60 186 54 199T47 229Q64 226 90 226Q120 226 155 228T221 232T268 232Q297 230 302 215T308 184Z" />
<glyph unicode="&#xae;" glyph-name="registered" horiz-adv-x="572" d="M209 -6Q156 -6 117 18T57 86T35 184Q35 224 47 269Q63 326 95 376T171 465T265 525T365 547Q418 547 457 522T517 454T538 354Q538 314 526 269Q510 212 478 162T402 74T309 15T209 -6ZM214
25Q270 25 325 57T423 145T488 269Q501 312 501 354Q501 424 465 469T363 514Q308 514 252 481T153 393T89 269Q82 247 79 226T76 184Q76 114 113 70T214 25ZM300 134Q300 134 299 134T298 136Q290 154 276 175T248 215T224 243L202 201Q193 182 186 166T177 142Q177
139 173 139Q164 144 160 152T156 177Q156 191 163 205T179 232V231Q182 236 185 239T190 247L207 277Q224 305 241 333T270 386Q269 385 267 385T263 385H256Q230 385 230 400Q230 405 232 408Q232 410 235 410Q246 411 258 413T284 418L288 433Q288 435 291 435Q303
435 306 424Q323 429 339 432T371 435Q401 435 414 419T427 380Q427 359 413 335T376 288T325 252T269 239Q283 222 290 210T305 178Q309 170 309 153Q309 146 307 140T300 134ZM249 263Q272 266 299 277T350 306T391 344T407 386Q407 404 373 404Q360 404 346
401T318 396L306 393Q302 378 290 355T265 309T243 272L241 274L249 263Z" />
<glyph unicode="&#xaf;" glyph-name="overscore" horiz-adv-x="191" d="M178 376Q172 379 159 380T128 381Q97 381 71 379T27 377Q7 377 6 391T5 417Q13 415 26 414T54 413Q85 413 110 415T157 417Q174 417 176 403T178 376Z" />
<glyph unicode="&#xb0;" glyph-name="degree" horiz-adv-x="326" d="M147 297Q122 297 108 314T94 358Q94 388 108 413T145 453T190 468Q215 468 230 451T245 408Q245 378 231 353T194 313T147 297ZM149 314Q166 314 182 333T210 380Q212 388 213 395T214 408Q214
426 208 437T190 448Q176 448 161 434T135 398T124 351Q124 335 131 325T149 314Z" />
<glyph unicode="&#xb1;" glyph-name="plusminus" horiz-adv-x="461" d="M193 59Q186 59 185 67T184 82Q185 85 192 100T208 135T224 171T233 192Q227 192 209 193T169 196T134 202T121 213Q123 222 130 228T144 235Q172 235 200 236T256 237Q274 278 293 319T329
401Q334 401 335 395T337 381Q337 368 335 353T330 332Q323 308 312 280T291 237Q311 237 336 237T385 238T421 240Q421 240 420 235T412 222Q408 216 390 212T349 205T307 200T280 195Q277 188 266 167T240 120T212 77T193 59ZM314 -32Q311 -27 296 -23T248 -18Q241
-18 232 -18T212 -20Q202 -21 181 -23T135 -28T92 -30Q67 -30 61 -17T54 13Q71 10 97 10Q127 10 162 12T228 16T275 16Q304 14 309 -1T314 -32Z" />
<glyph unicode="&#xb2;" glyph-name="uni00B2" horiz-adv-x="359" d="M268 184Q266 185 266 188T265 192Q265 193 265 193T266 195Q266 201 259 202Q254 204 246 205T227 206Q203 206 174 203T122 195T93 188Q93 188 92 188T88 187Q82 189 77 199T73 214Q73 216
75 216Q91 222 107 232T138 253Q160 270 191 298T251 359T300 426T320 490Q320 502 315 507T303 512Q288 512 274 500T250 472T232 444Q217 419 201 413T177 406Q174 406 174 409Q176 436 198 464T253 512T314 531Q336 531 348 520T360 482Q358 449 336 414T282
346T216 285T156 239L141 229Q159 234 183 238T229 242Q238 242 245 242T258 240Q269 236 277 228T284 207Q283 203 278 194T268 184Z" />
<glyph unicode="&#xb3;" glyph-name="uni00B3" horiz-adv-x="382" d="M160 186Q130 186 112 205T93 258Q93 284 106 301T151 320Q153 320 154 319T153 315Q144 307 134 288T124 254Q123 235 132 222T163 209Q192 209 217 226T257 268T273 318Q273 333 267 343T243
353Q236 353 227 351T201 340Q199 339 196 339Q189 339 185 347T178 362V366Q177 368 177 369T179 371Q200 372 225 380T274 404T313 440T328 486Q328 514 306 514Q283 514 265 494T238 457Q225 436 210 431T187 425Q184 425 184 428Q186 452 206 476T256 516T312
532Q331 532 348 521T365 479Q365 453 346 432T303 396T261 374Q294 370 305 352T316 314Q316 277 291 248T230 203T160 186Z" />
<glyph unicode="&#xb4;" glyph-name="acute" horiz-adv-x="131" d="M6 387Q0 387 0 394Q0 398 4 401Q23 418 46 441T80 475Q84 480 90 484T104 489Q118 489 124 483T131 473Q131 471 118 460T88 438T62 420Q56 416 44 408T21 394T7 387H6Z" />
<glyph unicode="&#xb5;" glyph-name="uni00B5" horiz-adv-x="347" d="M-79 -257Q-87 -257 -84 -240Q-81 -192 -65 -128T-22 7T35 148T99 279Q108 296 130 308T167 320Q183 320 183 309Q183 300 173 286Q159 265 132 220T79 124Q57 82 57 51Q57 26 72 26Q80 26
93 35T124 64Q132 72 148 94T185 146T225 204T258 252Q282 298 309 314T373 330Q363 324 349 304T320 260Q310 246 298 223T275 175T255 128T244 93Q238 72 238 57Q238 36 253 36Q258 36 261 37H264Q271 37 266 27T247 7T215 -3Q181 -3 181 39Q181 59 188 85T207
143Q186 110 161 77T109 23T57 1Q47 1 41 3T29 8Q8 -46 -12 -96T-46 -185T-67 -242Q-73 -257 -79 -257Z" />
<glyph unicode="&#xb6;" glyph-name="paragraph" horiz-adv-x="343" d="M97 -30Q89 -30 92 -13Q94 9 106 57T138 170T186 309H150Q95 310 70 334T45 391Q45 421 61 452T108 508T179 544Q224 556 266 556H441Q444 552 444 547Q444 539 437 530T417 516Q417 515
417 514T418 513Q418 510 417 508Q409 491 392 451T354 358T310 248T266 137T230 43T208 -15Q202 -30 197 -30Q190 -30 190 -19Q190 0 203 53T241 181T298 342T371 513H319Q319 510 318 508Q310 491 293 451T255 358T210 248T167 137T131 43T109 -15Q103 -30 97
-30Z" />
<glyph unicode="&#xb7;" glyph-name="middot" horiz-adv-x="310" d="M195 188Q184 188 178 193T167 207Q165 213 165 215Q165 222 168 227T175 235Q182 241 190 246T207 256Q215 260 221 262T234 269Q237 271 239 269T240 264Q234 255 230 237T219 204T195 188Z" />
<glyph unicode="&#xb8;" glyph-name="cedilla" horiz-adv-x="164" d="M39 -193Q24 -193 13 -188T0 -169Q6 -170 15 -171T34 -172Q54 -172 74 -163T100 -125Q103 -110 97 -100T83 -79T75 -50Q75 -18 99 -4T155 10Q164 10 164 4Q142 0 129 -7T116 -36Q116 -50 122
-60T133 -80T139 -106Q139 -133 123 -152T83 -182T39 -193Z" />
<glyph unicode="&#xb9;" glyph-name="uni00B9" horiz-adv-x="339" d="M166 173Q159 173 156 181T152 202Q152 217 154 232T158 256Q169 297 192 341T239 426V425Q243 432 246 437T253 449Q247 447 246 447Q243 447 240 448T235 450V453Q235 454 242 464T259 488T279
511T293 521Q297 521 306 518T324 510T331 500Q331 496 328 496Q316 478 299 450T264 394T235 343Q203 282 189 240T175 179Q175 173 166 173Z" />
<glyph unicode="&#xba;" glyph-name="ordmasculine" horiz-adv-x="300" d="M126 280Q98 280 85 298T72 344Q72 378 88 413Q103 446 127 474T178 519T232 536Q261 536 275 518T289 470Q289 439 274 404Q263 380 239 351T186 301T126 280ZM141 296Q162 296 182 314T219
354T243 392Q256 416 262 438T268 476Q268 513 241 513Q217 513 189 485T141 416Q128 391 121 368T114 328Q114 301 131 297Q134 296 141 296Z" />
<glyph unicode="&#xbb;" glyph-name="guillemotright" horiz-adv-x="397" d="M224 108L218 110L215 116Q218 126 232 142T264 176T297 209T320 231L286 347L287 355L292 359Q296 359 300 356Q321 327 338 293T372 226Q368 222 353 209T317 179T276 146T242 119T224
108ZM101 102L95 105L93 110Q96 121 109 137T139 170T172 202T196 225L162 341L164 349L169 352L177 350Q183 343 193 326T214 288T234 249T249 220Q245 216 230 203T194 173T153 140T118 113T101 102Z" />
<glyph unicode="&#xbc;" glyph-name="onequarter" horiz-adv-x="713" d="M166 173Q159 173 156 181T152 202Q152 217 154 232T158 256Q169 297 192 341T239 426V425Q243 432 246 437T253 449Q247 447 246 447Q243 447 240 448T235 450V453Q235 454 242 464T259
488T279 511T293 521Q297 521 306 518T324 510T331 500Q331 496 328 496Q316 478 299 450T264 394T235 343Q203 282 189 240T175 179Q175 173 166 173ZM174 -94Q170 -94 170 -88Q170 -86 170 -83T172 -77Q180 -52 207 6T276 142T371 307T483 480Q483 479 485 483Q490
484 498 473T507 450Q507 446 506 445Q494 428 469 388T412 295T344 184T278 73T222 -21T188 -79Q179 -94 174 -94ZM516 -14Q508 -14 505 -5T501 16Q501 30 504 45T508 67Q512 82 517 96T530 127Q505 126 477 119T428 105L413 101Q410 100 405 107T397 125T393
139Q396 152 417 174T470 223T534 273T595 316T637 339Q638 339 639 339T641 340Q645 340 649 337Q655 332 662 319T667 301Q663 289 652 268T627 223T602 179L586 153Q603 149 613 140T624 122Q624 118 620 120Q616 122 602 123T571 126Q544 74 534 42T524 -7Q524
-14 516 -14ZM425 142Q451 149 476 154T530 159Q532 159 534 159T539 158L545 157Q545 157 553 174T573 215T598 263T617 301Q602 290 584 276T552 251T530 234Q523 228 517 223T505 213Q486 198 468 183T425 142Z" />
<glyph unicode="&#xbd;" glyph-name="onehalf" horiz-adv-x="617" d="M166 173Q159 173 156 181T152 202Q152 217 154 232T158 256Q169 297 192 341T239 426V425Q243 432 246 437T253 449Q247 447 246 447Q243 447 240 448T235 450V453Q235 454 242 464T259 488T279
511T293 521Q297 521 306 518T324 510T331 500Q331 496 328 496Q316 478 299 450T264 394T235 343Q203 282 189 240T175 179Q175 173 166 173ZM174 -94Q170 -94 170 -88Q170 -86 170 -83T172 -77Q180 -52 207 6T276 142T371 307T483 480Q483 479 485 483Q490 484
498 473T507 450Q507 446 506 445Q494 428 469 388T412 295T344 184T278 73T222 -21T188 -79Q179 -94 174 -94ZM566 -14Q564 -12 564 -5V-3Q564 3 558 5Q552 7 544 7T525 8Q502 8 473 5T421 -3T392 -9Q391 -9 390 -9T386 -10Q380 -9 376 2T371 17Q371 19 373 19Q389
25 405 35T436 56Q459 73 489 101T549 162T598 228T618 292Q618 305 613 309T601 314Q586 314 572 302T548 274T530 246Q516 222 500 216T475 209Q473 209 473 212Q475 239 497 267T551 315T612 334Q633 334 645 324T658 290Q658 257 637 221T583 151T516 89T454
42L439 32Q457 37 481 41T528 45Q545 45 557 42Q568 39 576 31T582 9Q581 5 576 -4T566 -14Z" />
<glyph unicode="&#xbe;" glyph-name="threequarters" horiz-adv-x="645" d="M160 186Q130 186 112 205T93 258Q93 284 106 301T151 320Q153 320 154 319T153 315Q144 307 134 288T124 254Q123 235 132 222T163 209Q192 209 217 226T257 268T273 318Q273 333 267
343T243 353Q236 353 227 351T201 340Q199 339 196 339Q189 339 185 347T178 362V366Q177 368 177 369T179 371Q200 372 225 380T274 404T313 440T328 486Q328 514 306 514Q283 514 265 494T238 457Q225 436 210 431T187 425Q184 425 184 428Q186 452 206 476T256
516T312 532Q331 532 348 521T365 479Q365 453 346 432T303 396T261 374Q294 370 305 352T316 314Q316 277 291 248T230 203T160 186ZM174 -94Q170 -94 170 -88Q170 -86 170 -83T172 -77Q180 -52 207 6T276 142T371 307T483 480Q483 479 485 483Q490 484 498 473T507
450Q507 446 506 445Q494 428 469 388T412 295T344 184T278 73T222 -21T188 -79Q179 -94 174 -94ZM516 -14Q508 -14 505 -5T501 16Q501 30 504 45T508 67Q512 82 517 96T530 127Q505 126 477 119T428 105L413 101Q410 100 405 107T397 125T393 139Q396 152 417
174T470 223T534 273T595 316T637 339Q638 339 639 339T641 340Q645 340 649 337Q655 332 662 319T667 301Q663 289 652 268T627 223T602 179L586 153Q603 149 613 140T624 122Q624 118 620 120Q616 122 602 123T571 126Q544 74 534 42T524 -7Q524 -14 516 -14ZM425
142Q451 149 476 154T530 159Q532 159 534 159T539 158L545 157Q545 157 553 174T573 215T598 263T617 301Q602 290 584 276T552 251T530 234Q523 228 517 223T505 213Q486 198 468 183T425 142Z" />
<glyph unicode="&#xbf;" glyph-name="questiondown" horiz-adv-x="408" d="M297 268Q294 267 292 269T291 273Q298 283 301 301T312 334T336 350Q347 350 353 345T364 331Q366 328 366 323Q366 310 356 302Q349 297 341 292T324 282Q317 278 311 276T297 268ZM106
-203Q66 -203 50 -185T34 -140Q34 -134 34 -128T36 -116Q47 -66 81 -27T149 38Q178 61 207 83T257 142Q263 150 266 158T270 171Q271 174 271 177T271 182Q271 199 258 204Q255 206 255 209Q257 216 265 217Q267 218 271 218Q280 218 287 211T296 193Q296 188 296
182T295 170Q286 130 238 80Q214 55 188 21T138 -47Q114 -83 108 -109Q107 -114 107 -119T106 -130Q106 -152 116 -165T149 -179Q178 -178 205 -157T251 -107T279 -60Q285 -46 288 -46Q291 -46 291 -53Q291 -63 287 -72Q263 -136 215 -169T106 -203Z" />
<glyph unicode="&#xc0;" glyph-name="Agrave" horiz-adv-x="450" d="M44 -9Q21 -4 14 10T6 42Q6 64 20 87T45 123Q23 124 11 136T-1 158Q-1 165 5 165Q10 165 14 162Q34 153 63 153Q75 171 102 206T166 286T243 376T323 459T396 521T451 545Q471 545 486 533T511
509T521 497Q502 470 478 418T433 301T396 176Q411 176 423 163T436 136Q436 136 421 143T389 148Q386 137 382 115T373 67T369 20Q369 13 369 8T371 -3Q349 -8 340 14T330 67Q330 112 343 149Q246 145 189 133T108 112Q88 84 70 50T44 -9ZM136 156Q169 162 211
167T292 177T351 180Q355 194 365 228T390 309T428 406T478 504Q475 509 468 509Q453 509 427 489T367 435T298 362T230 282T173 209T136 156ZM498 583Q496 584 485 590T462 604T444 616Q435 622 419 633T389 656T374 669Q374 673 381 678T401 685H403Q409 685
415 681T426 671Q433 665 446 652T474 624T502 597Q506 594 506 590Q506 587 503 585T498 583Z" />
<glyph unicode="&#xc1;" glyph-name="Aacute" horiz-adv-x="450" d="M44 -9Q21 -4 14 10T6 42Q6 64 20 87T45 123Q23 124 11 136T-1 158Q-1 165 5 165Q10 165 14 162Q34 153 63 153Q75 171 102 206T166 286T243 376T323 459T396 521T451 545Q471 545 486 533T511
509T521 497Q502 470 478 418T433 301T396 176Q411 176 423 163T436 136Q436 136 421 143T389 148Q386 137 382 115T373 67T369 20Q369 13 369 8T371 -3Q349 -8 340 14T330 67Q330 112 343 149Q246 145 189 133T108 112Q88 84 70 50T44 -9ZM136 156Q169 162 211
167T292 177T351 180Q355 194 365 228T390 309T428 406T478 504Q475 509 468 509Q453 509 427 489T367 435T298 362T230 282T173 209T136 156ZM460 586Q457 585 454 590T457 600Q476 617 499 640T533 674Q537 679 543 683T556 688Q571 688 577 682T584 672Q584
670 571 659T541 637T515 619Q509 615 497 607T474 593T460 586Z" />
<glyph unicode="&#xc2;" glyph-name="Acircumflex" horiz-adv-x="450" d="M44 -9Q21 -4 14 10T6 42Q6 64 20 87T45 123Q23 124 11 136T-1 158Q-1 165 5 165Q10 165 14 162Q34 153 63 153Q75 171 102 206T166 286T243 376T323 459T396 521T451 545Q471 545 486
533T511 509T521 497Q502 470 478 418T433 301T396 176Q411 176 423 163T436 136Q436 136 421 143T389 148Q386 137 382 115T373 67T369 20Q369 13 369 8T371 -3Q349 -8 340 14T330 67Q330 112 343 149Q246 145 189 133T108 112Q88 84 70 50T44 -9ZM136 156Q169
162 211 167T292 177T351 180Q355 194 365 228T390 309T428 406T478 504Q475 509 468 509Q453 509 427 489T367 435T298 362T230 282T173 209T136 156ZM375 582Q370 582 370 587Q370 592 375 596Q397 613 418 627T460 653Q471 660 483 667T503 674Q509 674 519
668T534 657Q545 647 564 630T600 596Q602 594 602 590Q602 586 599 584T594 582Q590 583 576 589T545 605Q533 612 522 619T496 636Q483 629 467 622T439 608Q432 605 418 599T392 588T376 582H375Z" />
<glyph unicode="&#xc3;" glyph-name="Atilde" horiz-adv-x="450" d="M44 -9Q21 -4 14 10T6 42Q6 64 20 87T45 123Q23 124 11 136T-1 158Q-1 165 5 165Q10 165 14 162Q34 153 63 153Q75 171 102 206T166 286T243 376T323 459T396 521T451 545Q471 545 486 533T511
509T521 497Q502 470 478 418T433 301T396 176Q411 176 423 163T436 136Q436 136 421 143T389 148Q386 137 382 115T373 67T369 20Q369 13 369 8T371 -3Q349 -8 340 14T330 67Q330 112 343 149Q246 145 189 133T108 112Q88 84 70 50T44 -9ZM136 156Q169 162 211
167T292 177T351 180Q355 194 365 228T390 309T428 406T478 504Q475 509 468 509Q453 509 427 489T367 435T298 362T230 282T173 209T136 156ZM538 585Q516 585 502 593T475 610T445 618Q428 618 417 606T400 586Q393 583 393 588Q393 602 403 616T428 639T459
649Q478 649 494 641T526 625T558 617Q569 617 576 627T591 650Q594 650 596 649T599 639Q599 624 588 612T563 593T538 585Z" />
<glyph unicode="&#xc4;" glyph-name="Adieresis" horiz-adv-x="450" d="M44 -9Q21 -4 14 10T6 42Q6 64 20 87T45 123Q23 124 11 136T-1 158Q-1 165 5 165Q10 165 14 162Q34 153 63 153Q75 171 102 206T166 286T243 376T323 459T396 521T451 545Q471 545 486 533T511
509T521 497Q502 470 478 418T433 301T396 176Q411 176 423 163T436 136Q436 136 421 143T389 148Q386 137 382 115T373 67T369 20Q369 13 369 8T371 -3Q349 -8 340 14T330 67Q330 112 343 149Q246 145 189 133T108 112Q88 84 70 50T44 -9ZM136 156Q169 162 211
167T292 177T351 180Q355 194 365 228T390 309T428 406T478 504Q475 509 468 509Q453 509 427 489T367 435T298 362T230 282T173 209T136 156ZM545 585Q534 585 528 590T518 603Q516 606 516 612Q516 617 519 622T525 630Q540 643 555 650Q559 654 575 654Q587
654 583 645Q577 637 574 623T566 597T545 585ZM434 585Q423 585 417 590T407 603Q405 606 405 612Q405 617 408 622T414 630Q429 643 444 650Q448 654 464 654Q476 654 472 645Q466 637 463 623T455 597T434 585Z" />
<glyph unicode="&#xc5;" glyph-name="Aring" horiz-adv-x="450" d="M44 -9Q21 -4 14 10T6 42Q6 64 20 87T45 123Q23 124 11 136T-1 158Q-1 165 5 165Q10 165 14 162Q34 153 63 153Q75 171 102 206T166 286T243 376T323 459T396 521T451 545Q471 545 486 533T511
509T521 497Q502 470 478 418T433 301T396 176Q411 176 423 163T436 136Q436 136 421 143T389 148Q386 137 382 115T373 67T369 20Q369 13 369 8T371 -3Q349 -8 340 14T330 67Q330 112 343 149Q246 145 189 133T108 112Q88 84 70 50T44 -9ZM136 156Q169 162 211
167T292 177T351 180Q355 194 365 228T390 309T428 406T478 504Q475 509 468 509Q453 509 427 489T367 435T298 362T230 282T173 209T136 156ZM498 582Q467 582 450 599T433 638Q433 667 459 691T524 715Q556 715 573 699T590 661Q590 632 565 607T498 582ZM499
599Q513 599 526 613T547 647Q549 652 549 655T549 663Q549 677 542 686T525 696Q508 696 491 677T474 632Q474 618 481 609T499 599Z" />
<glyph unicode="&#xc6;" glyph-name="AE" horiz-adv-x="628" d="M54 -9Q31 -4 24 10T16 42Q16 64 30 87T55 123Q33 124 21 136T9 158Q9 165 15 165Q20 165 24 162Q44 153 73 153Q85 171 117 206T192 285T284 374T379 456T464 517T523 540Q531 539 538 537T552
530Q584 534 616 535T676 537T717 538Q755 538 763 527T772 495Q764 497 747 498T708 499Q692 499 675 499T643 496Q622 494 605 489T576 474Q569 467 555 447T525 399T492 344T464 293T448 258Q464 261 491 266T553 272Q600 272 600 244Q600 239 597 231H434Q433
229 426 212T410 168T394 114T387 67Q387 48 405 48Q438 48 473 56T547 65Q573 65 594 60T615 31Q611 32 601 32Q582 32 554 28T496 18T442 8T405 3Q376 3 359 13T334 38T326 65Q326 84 330 100T342 138Q249 134 195 127T118 112Q98 84 80 50T54 -9ZM146 156Q178
162 218 167T295 176T355 180Q392 260 437 341T542 493Q538 498 528 498Q509 498 477 479T406 427T326 357T249 280T185 209T146 156Z" />
<glyph unicode="&#xc7;" glyph-name="Ccedilla" horiz-adv-x="477" d="M210 -20Q155 -20 122 0T73 54T58 132Q58 185 78 242T133 353T213 448T311 516T418 541Q478 541 506 514T534 449Q534 431 528 411Q521 389 511 366T493 324T482 297Q466 297 460 306T454
330Q454 347 461 370T477 415Q487 438 487 461Q487 484 474 500T432 516Q379 516 332 489T247 416T180 316T137 209T121 112Q121 64 141 34T217 3Q283 3 340 55T429 190Q441 183 441 160Q441 121 418 88T359 31T283 -6T210 -20ZM84 45Q69 45 58 50T45 69Q51 68
60 67T79 66Q99 66 119 75T145 113Q148 128 142 138T128 159T120 188Q120 220 144 234T200 248Q209 248 209 242Q187 238 174 231T161 202Q161 188 167 178T178 158T184 132Q184 105 168 86T128 56T84 45Z" />
<glyph unicode="&#xc8;" glyph-name="Egrave" horiz-adv-x="361" d="M113 3Q84 3 67 13T42 38T34 65Q34 115 62 175T128 294Q159 342 191 382T247 450T280 485Q267 485 255 491T243 507Q243 512 251 517T282 525Q315 530 348 531T408 533T450 534Q488 534 496
522T504 490Q496 492 478 493T437 494Q421 494 405 494T375 492Q355 490 338 485T309 470Q302 463 287 443T254 397T219 343T188 293T171 258Q187 261 214 266T276 272Q323 272 323 244Q323 239 320 231H157Q158 233 149 216T127 171T105 116T95 67Q95 48 114 48Q146
48 181 56T255 65Q282 65 302 60T324 31Q321 32 318 32T310 32Q291 32 263 28T205 18T150 8T113 3ZM404 572Q402 573 391 579T368 593T350 605Q341 611 325 622T295 645T280 658Q280 662 287 667T307 674H309Q315 674 321 670T332 660Q339 654 352 641T380 613T408
586Q412 583 412 579Q412 576 409 574T404 572Z" />
<glyph unicode="&#xc9;" glyph-name="Eacute" horiz-adv-x="361" d="M113 3Q84 3 67 13T42 38T34 65Q34 115 62 175T128 294Q159 342 191 382T247 450T280 485Q267 485 255 491T243 507Q243 512 251 517T282 525Q315 530 348 531T408 533T450 534Q488 534 496
522T504 490Q496 492 478 493T437 494Q421 494 405 494T375 492Q355 490 338 485T309 470Q302 463 287 443T254 397T219 343T188 293T171 258Q187 261 214 266T276 272Q323 272 323 244Q323 239 320 231H157Q158 233 149 216T127 171T105 116T95 67Q95 48 114 48Q146
48 181 56T255 65Q282 65 302 60T324 31Q321 32 318 32T310 32Q291 32 263 28T205 18T150 8T113 3ZM366 575Q363 574 360 579T363 589Q382 606 405 629T439 663Q443 668 449 672T462 677Q477 677 483 671T490 661Q490 659 477 648T447 626T421 608Q415 604 403
596T380 582T366 575Z" />
<glyph unicode="&#xca;" glyph-name="Ecircumflex" horiz-adv-x="361" d="M113 3Q84 3 67 13T42 38T34 65Q34 115 62 175T128 294Q159 342 191 382T247 450T280 485Q267 485 255 491T243 507Q243 512 251 517T282 525Q315 530 348 531T408 533T450 534Q488 534
496 522T504 490Q496 492 478 493T437 494Q421 494 405 494T375 492Q355 490 338 485T309 470Q302 463 287 443T254 397T219 343T188 293T171 258Q187 261 214 266T276 272Q323 272 323 244Q323 239 320 231H157Q158 233 149 216T127 171T105 116T95 67Q95 48 114
48Q146 48 181 56T255 65Q282 65 302 60T324 31Q321 32 318 32T310 32Q291 32 263 28T205 18T150 8T113 3ZM281 571Q276 571 276 576Q276 581 281 585Q303 602 324 616T366 642Q377 649 389 656T409 663Q415 663 425 657T440 646Q451 636 470 619T506 585Q508 583
508 579Q508 575 505 573T500 571Q496 572 482 578T451 594Q439 601 428 608T402 625Q389 618 373 611T345 597Q338 594 324 588T298 577T282 571H281Z" />
<glyph unicode="&#xcb;" glyph-name="Edieresis" horiz-adv-x="361" d="M113 3Q84 3 67 13T42 38T34 65Q34 115 62 175T128 294Q159 342 191 382T247 450T280 485Q267 485 255 491T243 507Q243 512 251 517T282 525Q315 530 348 531T408 533T450 534Q488 534 496
522T504 490Q496 492 478 493T437 494Q421 494 405 494T375 492Q355 490 338 485T309 470Q302 463 287 443T254 397T219 343T188 293T171 258Q187 261 214 266T276 272Q323 272 323 244Q323 239 320 231H157Q158 233 149 216T127 171T105 116T95 67Q95 48 114 48Q146
48 181 56T255 65Q282 65 302 60T324 31Q321 32 318 32T310 32Q291 32 263 28T205 18T150 8T113 3ZM451 574Q440 574 434 579T424 592Q422 595 422 601Q422 606 425 611T431 619Q446 632 461 639Q465 643 481 643Q493 643 489 634Q483 626 480 612T472 586T451
574ZM340 574Q329 574 323 579T313 592Q311 595 311 601Q311 606 314 611T320 619Q335 632 350 639Q354 643 370 643Q382 643 378 634Q372 626 369 612T361 586T340 574Z" />
<glyph unicode="&#xcc;" glyph-name="Igrave" horiz-adv-x="189" d="M39 -12Q24 -4 16 10T8 53Q8 74 19 97T46 143T73 184Q111 246 149 309T218 433T261 543Q278 543 284 532T290 507T290 484Q289 468 275 435T239 363T198 289T165 235Q146 207 126 171T87 99Q68
63 55 33T39 -12ZM304 581Q302 582 291 588T268 602T250 614Q241 620 225 631T195 654T180 667Q180 671 187 676T207 683H209Q215 683 221 679T232 669Q239 663 252 650T280 622T308 595Q312 592 312 588Q312 585 309 583T304 581Z" />
<glyph unicode="&#xcd;" glyph-name="Iacute" horiz-adv-x="189" d="M39 -12Q24 -4 16 10T8 53Q8 74 19 97T46 143T73 184Q111 246 149 309T218 433T261 543Q278 543 284 532T290 507T290 484Q289 468 275 435T239 363T198 289T165 235Q146 207 126 171T87 99Q68
63 55 33T39 -12ZM266 584Q263 583 260 588T263 598Q282 615 305 638T339 672Q343 677 349 681T362 686Q377 686 383 680T390 670Q390 668 377 657T347 635T321 617Q315 613 303 605T280 591T266 584Z" />
<glyph unicode="&#xce;" glyph-name="Icircumflex" horiz-adv-x="189" d="M39 -12Q24 -4 16 10T8 53Q8 74 19 97T46 143T73 184Q111 246 149 309T218 433T261 543Q278 543 284 532T290 507T290 484Q289 468 275 435T239 363T198 289T165 235Q146 207 126 171T87
99Q68 63 55 33T39 -12ZM181 580Q176 580 176 585Q176 590 181 594Q203 611 224 625T266 651Q277 658 289 665T309 672Q315 672 325 666T340 655Q351 645 370 628T406 594Q408 592 408 588Q408 584 405 582T400 580Q396 581 382 587T351 603Q339 610 328 617T302
634Q289 627 273 620T245 606Q238 603 224 597T198 586T182 580H181Z" />
<glyph unicode="&#xcf;" glyph-name="Idieresis" horiz-adv-x="189" d="M39 -12Q24 -4 16 10T8 53Q8 74 19 97T46 143T73 184Q111 246 149 309T218 433T261 543Q278 543 284 532T290 507T290 484Q289 468 275 435T239 363T198 289T165 235Q146 207 126 171T87
99Q68 63 55 33T39 -12ZM351 583Q340 583 334 588T324 601Q322 604 322 610Q322 615 325 620T331 628Q346 641 361 648Q365 652 381 652Q393 652 389 643Q383 635 380 621T372 595T351 583ZM240 583Q229 583 223 588T213 601Q211 604 211 610Q211 615 214 620T220
628Q235 641 250 648Q254 652 270 652Q282 652 278 643Q272 635 269 621T261 595T240 583Z" />
<glyph unicode="&#xd0;" glyph-name="Eth" horiz-adv-x="499" d="M109 -25Q87 -25 71 -20T47 -1Q34 -1 23 10T11 47Q11 90 42 138T117 258Q127 275 144 299T180 352T213 407T233 456Q223 455 211 453T188 449Q184 448 181 448T175 448Q156 448 150 455T144 471T144
485Q179 488 221 497Q275 507 328 522T439 537Q501 537 536 511T571 425Q571 377 549 322T490 213T406 113T308 37Q280 20 245 6T175 -16T109 -25ZM110 3Q166 3 216 27T311 91T389 174Q409 199 433 234T479 308T515 382T530 443Q530 466 519 479T479 492Q458 492
421 487T342 476T269 463Q274 455 274 445Q274 424 261 393T228 329T190 267T160 221Q135 184 110 140T69 52Q65 41 65 30Q65 17 75 10T110 3ZM346 418Q340 421 327 422T296 423Q265 423 230 421T177 419Q157 419 156 433T155 459Q163 457 176 456T204 455Q235
455 269 457T325 459Q342 459 344 445T346 418Z" />
<glyph unicode="&#xd1;" glyph-name="Ntilde" horiz-adv-x="406" d="M33 -12Q7 2 7 35Q7 58 17 85T41 138T67 184Q105 246 143 307T210 426T252 535Q258 537 261 537Q279 537 297 519T319 484Q322 460 316 425T301 349T284 265Q277 222 268 178T256 87Q268 122
290 162T334 239T367 293Q386 322 406 358T446 429Q465 466 478 496T493 541Q509 533 516 519T524 476Q524 455 513 432T486 386T459 345Q422 284 383 221T314 98T271 -12Q271 -11 271 -11T270 -10Q243 -8 229 19T214 92Q214 106 215 121T219 152Q226 195 235 248T254
353T270 443Q268 433 254 405T221 343T185 279T159 235Q141 206 120 170T80 97T48 31T33 -12ZM445 585Q423 585 409 593T382 610T352 618Q335 618 324 606T307 586Q300 583 300 588Q300 602 310 616T335 639T366 649Q385 649 401 641T433 625T465 617Q476 617 483
627T498 650Q501 650 503 649T506 639Q506 624 495 612T470 593T445 585Z" />
<glyph unicode="&#xd2;" glyph-name="Ograve" horiz-adv-x="460" d="M202 -9Q126 -9 92 37T58 150Q58 199 73 252T117 357T183 449T266 515T361 540Q441 540 475 496T509 387Q509 338 493 284T447 178T378 84T294 16T202 -9ZM197 14Q240 14 278 39T347 106T402
199T437 301T450 396Q450 445 433 476T378 508Q335 508 296 483T225 416T168 324T130 222T116 126Q116 77 135 46T197 14ZM410 580Q408 581 397 587T374 601T356 613Q347 619 331 630T301 653T286 666Q286 670 293 675T313 682H315Q321 682 327 678T338 668Q345
662 358 649T386 621T414 594Q418 591 418 587Q418 584 415 582T410 580Z" />
<glyph unicode="&#xd3;" glyph-name="Oacute" horiz-adv-x="460" d="M202 -9Q126 -9 92 37T58 150Q58 199 73 252T117 357T183 449T266 515T361 540Q441 540 475 496T509 387Q509 338 493 284T447 178T378 84T294 16T202 -9ZM197 14Q240 14 278 39T347 106T402
199T437 301T450 396Q450 445 433 476T378 508Q335 508 296 483T225 416T168 324T130 222T116 126Q116 77 135 46T197 14ZM372 583Q369 582 366 587T369 597Q388 614 411 637T445 671Q449 676 455 680T468 685Q483 685 489 679T496 669Q496 667 483 656T453 634T427
616Q421 612 409 604T386 590T372 583Z" />
<glyph unicode="&#xd4;" glyph-name="Ocircumflex" horiz-adv-x="460" d="M202 -9Q126 -9 92 37T58 150Q58 199 73 252T117 357T183 449T266 515T361 540Q441 540 475 496T509 387Q509 338 493 284T447 178T378 84T294 16T202 -9ZM197 14Q240 14 278 39T347 106T402
199T437 301T450 396Q450 445 433 476T378 508Q335 508 296 483T225 416T168 324T130 222T116 126Q116 77 135 46T197 14ZM287 579Q282 579 282 584Q282 589 287 593Q309 610 330 624T372 650Q383 657 395 664T415 671Q421 671 431 665T446 654Q457 644 476 627T512
593Q514 591 514 587Q514 583 511 581T506 579Q502 580 488 586T457 602Q445 609 434 616T408 633Q395 626 379 619T351 605Q344 602 330 596T304 585T288 579H287Z" />
<glyph unicode="&#xd5;" glyph-name="Otilde" horiz-adv-x="460" d="M202 -9Q126 -9 92 37T58 150Q58 199 73 252T117 357T183 449T266 515T361 540Q441 540 475 496T509 387Q509 338 493 284T447 178T378 84T294 16T202 -9ZM197 14Q240 14 278 39T347 106T402
199T437 301T450 396Q450 445 433 476T378 508Q335 508 296 483T225 416T168 324T130 222T116 126Q116 77 135 46T197 14ZM450 582Q428 582 414 590T387 607T357 615Q340 615 329 603T312 583Q305 580 305 585Q305 599 315 613T340 636T371 646Q390 646 406 638T438
622T470 614Q481 614 488 624T503 647Q506 647 508 646T511 636Q511 621 500 609T475 590T450 582Z" />
<glyph unicode="&#xd6;" glyph-name="Odieresis" horiz-adv-x="460" d="M202 -9Q126 -9 92 37T58 150Q58 199 73 252T117 357T183 449T266 515T361 540Q441 540 475 496T509 387Q509 338 493 284T447 178T378 84T294 16T202 -9ZM197 14Q240 14 278 39T347 106T402
199T437 301T450 396Q450 445 433 476T378 508Q335 508 296 483T225 416T168 324T130 222T116 126Q116 77 135 46T197 14ZM457 582Q446 582 440 587T430 600Q428 603 428 609Q428 614 431 619T437 627Q452 640 467 647Q471 651 487 651Q499 651 495 642Q489 634
486 620T478 594T457 582ZM346 582Q335 582 329 587T319 600Q317 603 317 609Q317 614 320 619T326 627Q341 640 356 647Q360 651 376 651Q388 651 384 642Q378 634 375 620T367 594T346 582Z" />
<glyph unicode="&#xd7;" glyph-name="multiply" horiz-adv-x="401" d="M105 86Q99 86 101 94T122 121Q140 137 169 160T238 216Q238 216 232 226T216 250T198 279T185 300Q180 309 180 319Q180 331 189 337T213 344Q229 344 236 329T251 290T272 245Q290 259 315
281T365 325T404 355Q412 360 416 360Q422 360 418 348T407 321L285 224Q296 203 313 174T356 105V103Q356 94 344 94Q336 94 327 98T317 105Q304 118 287 140T248 195Q223 174 191 149T117 92Q111 86 105 86Z" />
<glyph unicode="&#xd8;" glyph-name="Oslash" horiz-adv-x="442" d="M15 -81Q10 -81 10 -74Q10 -68 13 -62Q24 -35 66 36Q45 57 36 87T26 154Q26 201 41 253T82 354T144 444T222 507T309 531Q333 531 352 526T388 513Q403 533 418 551T448 588L452 590Q457 590
463 583T467 564Q467 561 466 558Q459 550 447 533T417 493Q438 472 448 443T458 378Q458 331 442 279T399 177T334 87T255 23T167 -1Q120 -1 88 19Q68 -10 54 -32T31 -66Q23 -81 15 -81ZM87 70Q122 127 167 198T266 345T373 493Q360 501 345 501Q300 501 260 477T187
411T129 321T92 221T78 129Q78 96 87 70ZM154 22Q197 22 235 47T305 114T359 206T394 307T407 400Q407 437 396 464Q365 421 328 367T251 255T174 142T105 42Q122 22 154 22Z" />
<glyph unicode="&#xd9;" glyph-name="Ugrave" horiz-adv-x="439" d="M173 -5Q101 -5 71 30T40 112Q40 132 45 151T58 190Q78 236 107 289T165 392T213 479T232 532Q235 534 238 534T243 534Q257 534 264 521T271 499Q271 474 259 446T229 385Q211 355 188 320T142
245T105 167T90 89Q90 58 104 38T158 18Q195 18 231 47T302 122T366 223T420 328T462 416Q489 475 495 500T502 535Q505 536 507 536T512 537Q527 537 534 521T541 490Q541 479 539 462T525 414T487 326Q466 282 439 236T385 149T335 82Q304 46 264 21T173 -5ZM410
584Q408 585 397 591T374 605T356 617Q347 623 331 634T301 657T286 670Q286 674 293 679T313 686H315Q321 686 327 682T338 672Q345 666 358 653T386 625T414 598Q418 595 418 591Q418 588 415 586T410 584Z" />
<glyph unicode="&#xda;" glyph-name="Uacute" horiz-adv-x="439" d="M173 -5Q101 -5 71 30T40 112Q40 132 45 151T58 190Q78 236 107 289T165 392T213 479T232 532Q235 534 238 534T243 534Q257 534 264 521T271 499Q271 474 259 446T229 385Q211 355 188 320T142
245T105 167T90 89Q90 58 104 38T158 18Q195 18 231 47T302 122T366 223T420 328T462 416Q489 475 495 500T502 535Q505 536 507 536T512 537Q527 537 534 521T541 490Q541 479 539 462T525 414T487 326Q466 282 439 236T385 149T335 82Q304 46 264 21T173 -5ZM372
587Q369 586 366 591T369 601Q388 618 411 641T445 675Q449 680 455 684T468 689Q483 689 489 683T496 673Q496 671 483 660T453 638T427 620Q421 616 409 608T386 594T372 587Z" />
<glyph unicode="&#xdb;" glyph-name="Ucircumflex" horiz-adv-x="439" d="M173 -5Q101 -5 71 30T40 112Q40 132 45 151T58 190Q78 236 107 289T165 392T213 479T232 532Q235 534 238 534T243 534Q257 534 264 521T271 499Q271 474 259 446T229 385Q211 355 188
320T142 245T105 167T90 89Q90 58 104 38T158 18Q195 18 231 47T302 122T366 223T420 328T462 416Q489 475 495 500T502 535Q505 536 507 536T512 537Q527 537 534 521T541 490Q541 479 539 462T525 414T487 326Q466 282 439 236T385 149T335 82Q304 46 264 21T173
-5ZM287 583Q282 583 282 588Q282 593 287 597Q309 614 330 628T372 654Q383 661 395 668T415 675Q421 675 431 669T446 658Q457 648 476 631T512 597Q514 595 514 591Q514 587 511 585T506 583Q502 584 488 590T457 606Q445 613 434 620T408 637Q395 630 379 623T351
609Q344 606 330 600T304 589T288 583H287Z" />
<glyph unicode="&#xdc;" glyph-name="Udieresis" horiz-adv-x="439" d="M173 -5Q101 -5 71 30T40 112Q40 132 45 151T58 190Q78 236 107 289T165 392T213 479T232 532Q235 534 238 534T243 534Q257 534 264 521T271 499Q271 474 259 446T229 385Q211 355 188 320T142
245T105 167T90 89Q90 58 104 38T158 18Q195 18 231 47T302 122T366 223T420 328T462 416Q489 475 495 500T502 535Q505 536 507 536T512 537Q527 537 534 521T541 490Q541 479 539 462T525 414T487 326Q466 282 439 236T385 149T335 82Q304 46 264 21T173 -5ZM457
586Q446 586 440 591T430 604Q428 607 428 613Q428 618 431 623T437 631Q452 644 467 651Q471 655 487 655Q499 655 495 646Q489 638 486 624T478 598T457 586ZM346 586Q335 586 329 591T319 604Q317 607 317 613Q317 618 320 623T326 631Q341 644 356 651Q360
655 376 655Q388 655 384 646Q378 638 375 624T367 598T346 586Z" />
<glyph unicode="&#xdd;" glyph-name="Yacute" horiz-adv-x="307" d="M160 -11Q140 -6 129 14T118 56Q118 84 124 106T140 156Q149 182 159 210T178 263T193 299L176 411Q167 470 149 497T126 529Q132 531 142 533T160 536Q185 536 198 520T218 480T228 429L244
312Q284 352 322 393T392 471T443 538Q467 538 467 514Q467 485 447 458T404 408Q382 387 354 363T299 316T250 274Q236 242 220 204T190 128T168 62Q158 26 158 6Q158 1 158 -3T160 -11ZM296 589Q293 588 290 593T293 603Q312 620 335 643T369 677Q373 682 379
686T392 691Q407 691 413 685T420 675Q420 673 407 662T377 640T351 622Q345 618 333 610T310 596T296 589Z" />
<glyph unicode="&#xde;" glyph-name="Thorn" horiz-adv-x="412" d="M84 -33Q72 -33 74 -20Q78 6 98 73T152 235T230 437Q225 436 220 436T210 435Q206 434 202 434T193 434Q172 434 163 441T154 458Q154 462 155 465T158 473Q181 475 205 479T253 490Q270 528
287 567T324 646Q324 648 327 649Q330 650 338 643T354 626T363 607Q363 603 361 601Q355 588 344 563T319 506Q351 513 373 516T415 520Q469 520 492 491T515 421Q515 391 499 356T455 286T390 223T312 177T230 159Q204 159 178 168Q152 104 132 54T105 -15Q102
-24 96 -28T84 -33ZM190 199Q224 201 264 215T344 253T416 306T469 368T489 433Q489 472 419 472Q394 472 360 466T297 453Q272 395 244 328T190 199Z" />
<glyph unicode="&#xdf;" glyph-name="germandbls" horiz-adv-x="367" d="M-180 -178Q-208 -178 -230 -160T-250 -113Q-249 -103 -244 -89T-225 -62T-187 -50Q-199 -65 -206 -82T-216 -111Q-217 -127 -210 -145T-175 -163Q-146 -163 -116 -128T-46 -19Q-26 17 1
74T61 197T125 325T186 435Q219 488 259 525T354 563Q383 563 404 546T422 493Q419 460 390 435T311 392Q271 379 271 357V349Q292 306 304 261T311 161Q307 127 297 95T263 28Q292 48 322 71T367 111Q378 122 387 132T404 154Q407 157 409 157Q415 157 415 148Q415
143 411 139Q390 114 368 86T320 37Q309 28 287 14T247 -9Q216 -23 193 -23Q155 -23 116 8Q109 14 102 24T88 44Q87 49 86 56T85 71Q85 86 98 86Q103 86 109 78T120 56Q128 36 135 22T165 7Q185 7 201 26T228 75T247 135T257 188Q263 242 259 275T250 328T245 360Q245
369 252 375Q261 386 282 401T327 435T367 474T384 514Q384 526 378 534T348 542Q314 542 284 504T218 401Q194 356 165 294T105 164T40 34T-25 -74Q-56 -118 -94 -148T-180 -178Z" />
<glyph unicode="&#xe0;" glyph-name="agrave" horiz-adv-x="366" d="M64 -4Q31 -4 18 12T5 51Q5 81 19 115T45 168Q72 211 109 250T187 313T267 338Q287 338 306 332T343 310Q352 303 355 297T359 285Q359 270 346 270Q337 270 333 282Q320 316 291 316Q266 316
234 293T171 238Q137 202 109 161T67 85Q60 70 58 59T55 39Q55 21 70 21Q87 21 120 46Q144 65 169 92T217 145T252 187Q257 195 261 202T270 214Q274 219 283 222T303 225Q315 225 323 221T326 207Q326 206 315 187T290 140T264 88Q258 74 254 62T250 42Q250 29
260 29Q267 29 281 37Q303 48 325 69T367 112Q378 123 387 133T404 154Q407 157 409 157Q415 157 415 148Q415 143 411 139Q400 126 389 113T366 86Q355 73 344 61T320 37Q277 -3 241 -3Q225 -3 214 8T203 45Q203 64 210 88Q212 99 216 110T225 133Q205 101 180
70T125 17T64 -4ZM298 389Q296 390 285 396T262 410T244 422Q235 428 219 439T189 462T174 475Q174 479 181 484T201 491H202Q209 491 215 487T226 477Q237 467 260 444T302 403Q305 400 305 396Q305 387 298 389Z" />
<glyph unicode="&#xe1;" glyph-name="aacute" horiz-adv-x="366" d="M64 -4Q31 -4 18 12T5 51Q5 81 19 115T45 168Q72 211 109 250T187 313T267 338Q287 338 306 332T343 310Q352 303 355 297T359 285Q359 270 346 270Q337 270 333 282Q320 316 291 316Q266 316
234 293T171 238Q137 202 109 161T67 85Q60 70 58 59T55 39Q55 21 70 21Q87 21 120 46Q144 65 169 92T217 145T252 187Q257 195 261 202T270 214Q274 219 283 222T303 225Q315 225 323 221T326 207Q326 206 315 187T290 140T264 88Q258 74 254 62T250 42Q250 29
260 29Q267 29 281 37Q303 48 325 69T367 112Q378 123 387 133T404 154Q407 157 409 157Q415 157 415 148Q415 143 411 139Q400 126 389 113T366 86Q355 73 344 61T320 37Q277 -3 241 -3Q225 -3 214 8T203 45Q203 64 210 88Q212 99 216 110T225 133Q205 101 180
70T125 17T64 -4ZM258 387Q252 387 252 394Q252 398 256 401Q275 418 298 441T332 475Q336 480 342 484T356 489Q370 489 376 483T383 473Q383 471 370 460T340 438T314 420Q308 416 296 408T273 394T259 387H258Z" />
<glyph unicode="&#xe2;" glyph-name="acircumflex" horiz-adv-x="366" d="M64 -4Q31 -4 18 12T5 51Q5 81 19 115T45 168Q72 211 109 250T187 313T267 338Q287 338 306 332T343 310Q352 303 355 297T359 285Q359 270 346 270Q337 270 333 282Q320 316 291 316Q266
316 234 293T171 238Q137 202 109 161T67 85Q60 70 58 59T55 39Q55 21 70 21Q87 21 120 46Q144 65 169 92T217 145T252 187Q257 195 261 202T270 214Q274 219 283 222T303 225Q315 225 323 221T326 207Q326 206 315 187T290 140T264 88Q258 74 254 62T250 42Q250
29 260 29Q267 29 281 37Q303 48 325 69T367 112Q378 123 387 133T404 154Q407 157 409 157Q415 157 415 148Q415 143 411 139Q400 126 389 113T366 86Q355 73 344 61T320 37Q277 -3 241 -3Q225 -3 214 8T203 45Q203 64 210 88Q212 99 216 110T225 133Q205 101
180 70T125 17T64 -4ZM178 386Q173 386 173 391Q173 396 178 400Q193 412 210 426T242 454T266 474Q282 488 296 488Q302 488 309 484T320 474Q328 464 347 441T383 400Q385 398 385 394Q385 390 382 388T377 386Q375 387 365 393T344 407T328 419Q322 424 311
432T289 450Q276 441 262 433T239 419Q232 415 219 407T194 393T179 386H178Z" />
<glyph unicode="&#xe3;" glyph-name="atilde" horiz-adv-x="366" d="M64 -4Q31 -4 18 12T5 51Q5 81 19 115T45 168Q72 211 109 250T187 313T267 338Q287 338 306 332T343 310Q352 303 355 297T359 285Q359 270 346 270Q337 270 333 282Q320 316 291 316Q266 316
234 293T171 238Q137 202 109 161T67 85Q60 70 58 59T55 39Q55 21 70 21Q87 21 120 46Q144 65 169 92T217 145T252 187Q257 195 261 202T270 214Q274 219 283 222T303 225Q315 225 323 221T326 207Q326 206 315 187T290 140T264 88Q258 74 254 62T250 42Q250 29
260 29Q267 29 281 37Q303 48 325 69T367 112Q378 123 387 133T404 154Q407 157 409 157Q415 157 415 148Q415 143 411 139Q400 126 389 113T366 86Q355 73 344 61T320 37Q277 -3 241 -3Q225 -3 214 8T203 45Q203 64 210 88Q212 99 216 110T225 133Q205 101 180
70T125 17T64 -4ZM317 388Q297 388 284 395T260 410T233 418Q217 418 207 407T192 389Q185 386 185 391Q185 409 204 428T245 448Q271 448 292 436T335 424Q346 424 352 429T365 447Q368 447 370 446T373 437Q373 424 363 413T340 395T317 388Z" />
<glyph unicode="&#xe4;" glyph-name="adieresis" horiz-adv-x="366" d="M64 -4Q31 -4 18 12T5 51Q5 81 19 115T45 168Q72 211 109 250T187 313T267 338Q287 338 306 332T343 310Q352 303 355 297T359 285Q359 270 346 270Q337 270 333 282Q320 316 291 316Q266
316 234 293T171 238Q137 202 109 161T67 85Q60 70 58 59T55 39Q55 21 70 21Q87 21 120 46Q144 65 169 92T217 145T252 187Q257 195 261 202T270 214Q274 219 283 222T303 225Q315 225 323 221T326 207Q326 206 315 187T290 140T264 88Q258 74 254 62T250 42Q250
29 260 29Q267 29 281 37Q303 48 325 69T367 112Q378 123 387 133T404 154Q407 157 409 157Q415 157 415 148Q415 143 411 139Q400 126 389 113T366 86Q355 73 344 61T320 37Q277 -3 241 -3Q225 -3 214 8T203 45Q203 64 210 88Q212 99 216 110T225 133Q205 101
180 70T125 17T64 -4ZM355 387Q344 387 338 392T328 405Q326 408 326 414Q326 419 329 424T335 432Q350 445 365 452Q369 456 385 456Q397 456 393 447Q387 439 384 425T376 399T355 387ZM239 387Q228 387 222 392T212 405Q210 408 210 414Q210 419 213 424T219
432Q234 445 249 452Q253 456 269 456Q281 456 277 447Q271 439 268 425T260 399T239 387Z" />
<glyph unicode="&#xe5;" glyph-name="aring" horiz-adv-x="366" d="M64 -4Q31 -4 18 12T5 51Q5 81 19 115T45 168Q72 211 109 250T187 313T267 338Q287 338 306 332T343 310Q352 303 355 297T359 285Q359 270 346 270Q337 270 333 282Q320 316 291 316Q266 316
234 293T171 238Q137 202 109 161T67 85Q60 70 58 59T55 39Q55 21 70 21Q87 21 120 46Q144 65 169 92T217 145T252 187Q257 195 261 202T270 214Q274 219 283 222T303 225Q315 225 323 221T326 207Q326 206 315 187T290 140T264 88Q258 74 254 62T250 42Q250 29
260 29Q267 29 281 37Q303 48 325 69T367 112Q378 123 387 133T404 154Q407 157 409 157Q415 157 415 148Q415 143 411 139Q400 126 389 113T366 86Q355 73 344 61T320 37Q277 -3 241 -3Q225 -3 214 8T203 45Q203 64 210 88Q212 99 216 110T225 133Q205 101 180
70T125 17T64 -4ZM298 384Q274 384 255 399T236 436Q236 442 237 446Q245 480 271 493T324 507Q348 507 368 495T388 460Q388 457 388 454T386 446Q377 412 351 398T298 384ZM299 396Q313 396 326 410T347 444Q349 449 349 452T349 459Q349 474 343 483T325 493Q308
493 291 473T274 428Q274 414 281 405T299 396Z" />
<glyph unicode="&#xe6;" glyph-name="ae" horiz-adv-x="580" d="M405 -15Q374 -15 353 0T326 42L320 37Q300 21 281 9T244 -3Q226 -3 215 8T204 45Q204 63 210 88Q212 99 216 110T225 133Q205 101 180 70T125 17T64 -4Q31 -4 18 12T5 51Q5 81 19 115T45 168Q72
211 109 250T187 313T267 338Q287 338 306 332T343 310Q352 303 355 297T359 285Q359 270 346 270Q337 270 333 282Q320 316 291 316Q266 316 234 293T171 238Q137 202 109 161T67 85Q60 70 58 59T55 39Q55 21 70 21Q87 21 120 46Q144 65 169 92T217 145T252 187Q257
195 261 202T270 214Q274 219 283 222T303 225Q315 225 323 221T326 207Q326 206 315 187T290 140T264 88Q258 74 254 62T250 42Q250 29 260 29Q267 29 281 37Q297 45 306 50T323 56V64Q323 95 334 128T357 182Q380 224 412 259T479 315T543 337Q570 337 589 322T609
282Q609 272 604 259T588 232Q548 181 501 152T391 108Q387 96 383 84T377 61Q376 57 376 53T376 44Q376 23 385 14T408 5Q430 5 455 16T502 43T535 67Q546 77 557 87T580 111Q590 122 599 132T616 154Q619 157 621 157Q627 157 627 148Q627 143 623 139Q605 117
587 96T550 54Q528 31 490 8T405 -15ZM397 122Q423 132 457 154T523 205T576 269Q584 283 584 290Q584 302 570 302Q554 302 526 283T469 233T421 169Q415 159 409 147T397 122Z" />
<glyph unicode="&#xe7;" glyph-name="ccedilla" horiz-adv-x="275" d="M105 -15Q66 -15 42 5T18 68Q18 98 27 130T47 182Q68 224 98 259T161 315T224 337Q253 337 269 318T285 275Q285 255 274 241Q260 222 250 214T235 206Q230 206 230 213Q230 219 235 232Q237
238 243 253T254 283T258 303Q243 306 216 287T159 236T111 169Q107 161 97 139T79 92T71 44Q71 27 79 16T106 4Q122 4 144 12Q182 24 214 52T275 111Q285 122 294 132T311 152Q313 154 314 155T317 157Q322 157 322 149Q322 142 318 137Q308 124 297 111T275 85Q242
48 201 17T105 -15ZM253 55Q238 55 227 60T214 79Q220 78 229 77T248 76Q268 76 288 85T314 123Q317 138 311 148T297 169T289 198Q289 230 313 244T369 258Q378 258 378 252Q356 248 343 241T330 212Q330 198 336 188T347 168T353 142Q353 115 337 96T297 66T253
55Z" />
<glyph unicode="&#xe8;" glyph-name="egrave" horiz-adv-x="272" d="M99 -15Q62 -15 40 6T18 67Q18 97 29 130T52 182Q75 224 107 259T174 315T238 337Q265 337 284 322T304 282Q304 272 299 259T283 232Q243 181 195 153T84 110Q80 97 77 85T72 61Q71 56 71 52T70
42Q70 22 79 14T103 5Q125 5 150 16T197 43T230 67Q241 77 251 87T275 111Q285 122 294 132T311 154Q314 157 316 157Q322 157 322 148Q322 143 318 139Q300 117 282 96T245 54Q223 31 185 8T99 -15ZM90 123Q116 134 150 155T217 205T271 269Q278 280 278 289Q278
303 262 303Q251 303 235 295Q185 268 149 222T90 123ZM265 389Q263 390 252 396T229 410T211 422Q202 428 186 439T156 462T141 475Q141 479 148 484T168 491H169Q176 491 182 487T193 477Q204 467 227 444T269 403Q272 400 272 396Q272 387 265 389Z" />
<glyph unicode="&#xe9;" glyph-name="eacute" horiz-adv-x="272" d="M99 -15Q62 -15 40 6T18 67Q18 97 29 130T52 182Q75 224 107 259T174 315T238 337Q265 337 284 322T304 282Q304 272 299 259T283 232Q243 181 195 153T84 110Q80 97 77 85T72 61Q71 56 71 52T70
42Q70 22 79 14T103 5Q125 5 150 16T197 43T230 67Q241 77 251 87T275 111Q285 122 294 132T311 154Q314 157 316 157Q322 157 322 148Q322 143 318 139Q300 117 282 96T245 54Q223 31 185 8T99 -15ZM90 123Q116 134 150 155T217 205T271 269Q278 280 278 289Q278
303 262 303Q251 303 235 295Q185 268 149 222T90 123ZM225 387Q219 387 219 394Q219 398 223 401Q242 418 265 441T299 475Q303 480 309 484T323 489Q337 489 343 483T350 473Q350 471 337 460T307 438T281 420Q275 416 263 408T240 394T226 387H225Z" />
<glyph unicode="&#xea;" glyph-name="ecircumflex" horiz-adv-x="272" d="M99 -15Q62 -15 40 6T18 67Q18 97 29 130T52 182Q75 224 107 259T174 315T238 337Q265 337 284 322T304 282Q304 272 299 259T283 232Q243 181 195 153T84 110Q80 97 77 85T72 61Q71 56
71 52T70 42Q70 22 79 14T103 5Q125 5 150 16T197 43T230 67Q241 77 251 87T275 111Q285 122 294 132T311 154Q314 157 316 157Q322 157 322 148Q322 143 318 139Q300 117 282 96T245 54Q223 31 185 8T99 -15ZM90 123Q116 134 150 155T217 205T271 269Q278 280
278 289Q278 303 262 303Q251 303 235 295Q185 268 149 222T90 123ZM145 386Q140 386 140 391Q140 396 145 400Q160 412 177 426T209 454T233 474Q249 488 263 488Q269 488 276 484T287 474Q295 464 314 441T350 400Q352 398 352 394Q352 390 349 388T344 386Q342
387 332 393T311 407T295 419Q289 424 278 432T256 450Q243 441 229 433T206 419Q199 415 186 407T161 393T146 386H145Z" />
<glyph unicode="&#xeb;" glyph-name="edieresis" horiz-adv-x="272" d="M99 -15Q62 -15 40 6T18 67Q18 97 29 130T52 182Q75 224 107 259T174 315T238 337Q265 337 284 322T304 282Q304 272 299 259T283 232Q243 181 195 153T84 110Q80 97 77 85T72 61Q71 56 71
52T70 42Q70 22 79 14T103 5Q125 5 150 16T197 43T230 67Q241 77 251 87T275 111Q285 122 294 132T311 154Q314 157 316 157Q322 157 322 148Q322 143 318 139Q300 117 282 96T245 54Q223 31 185 8T99 -15ZM90 123Q116 134 150 155T217 205T271 269Q278 280 278
289Q278 303 262 303Q251 303 235 295Q185 268 149 222T90 123ZM322 387Q311 387 305 392T295 405Q293 408 293 414Q293 419 296 424T302 432Q317 445 332 452Q336 456 352 456Q364 456 360 447Q354 439 351 425T343 399T322 387ZM206 387Q195 387 189 392T179
405Q177 408 177 414Q177 419 180 424T186 432Q201 445 216 452Q220 456 236 456Q248 456 244 447Q238 439 235 425T227 399T206 387Z" />
<glyph unicode="&#xec;" glyph-name="igrave" horiz-adv-x="208" d="M78 0Q56 0 40 14T24 64Q24 79 27 97Q36 144 56 187T96 261T122 303Q127 313 148 322T183 332Q195 332 195 324Q195 317 190 311Q175 287 156 257T118 192T88 125T76 64Q76 49 81 40T102 31Q118
31 139 46T179 81T208 112Q218 123 227 133T245 154Q248 157 250 157Q256 157 256 148Q256 143 252 139Q241 126 230 113T207 86Q191 67 171 47T128 14T78 0ZM209 389Q207 390 196 396T173 410T155 422Q146 428 130 439T100 462T85 475Q85 479 92 484T112 491H113Q120
491 126 487T137 477Q148 467 171 444T213 403Q216 400 216 396Q216 387 209 389Z" />
<glyph unicode="&#xed;" glyph-name="iacute" horiz-adv-x="208" d="M78 0Q56 0 40 14T24 64Q24 79 27 97Q36 144 56 187T96 261T122 303Q127 313 148 322T183 332Q195 332 195 324Q195 317 190 311Q175 287 156 257T118 192T88 125T76 64Q76 49 81 40T102 31Q118
31 139 46T179 81T208 112Q218 123 227 133T245 154Q248 157 250 157Q256 157 256 148Q256 143 252 139Q241 126 230 113T207 86Q191 67 171 47T128 14T78 0ZM169 387Q163 387 163 394Q163 398 167 401Q186 418 209 441T243 475Q247 480 253 484T267 489Q281 489
287 483T294 473Q294 471 281 460T251 438T225 420Q219 416 207 408T184 394T170 387H169Z" />
<glyph unicode="&#xee;" glyph-name="icircumflex" horiz-adv-x="208" d="M78 0Q56 0 40 14T24 64Q24 79 27 97Q36 144 56 187T96 261T122 303Q127 313 148 322T183 332Q195 332 195 324Q195 317 190 311Q175 287 156 257T118 192T88 125T76 64Q76 49 81 40T102
31Q118 31 139 46T179 81T208 112Q218 123 227 133T245 154Q248 157 250 157Q256 157 256 148Q256 143 252 139Q241 126 230 113T207 86Q191 67 171 47T128 14T78 0ZM89 386Q84 386 84 391Q84 396 89 400Q104 412 121 426T153 454T177 474Q193 488 207 488Q213
488 220 484T231 474Q239 464 258 441T294 400Q296 398 296 394Q296 390 293 388T288 386Q286 387 276 393T255 407T239 419Q233 424 222 432T200 450Q187 441 173 433T150 419Q143 415 130 407T105 393T90 386H89Z" />
<glyph unicode="&#xef;" glyph-name="idieresis" horiz-adv-x="208" d="M78 0Q56 0 40 14T24 64Q24 79 27 97Q36 144 56 187T96 261T122 303Q127 313 148 322T183 332Q195 332 195 324Q195 317 190 311Q175 287 156 257T118 192T88 125T76 64Q76 49 81 40T102
31Q118 31 139 46T179 81T208 112Q218 123 227 133T245 154Q248 157 250 157Q256 157 256 148Q256 143 252 139Q241 126 230 113T207 86Q191 67 171 47T128 14T78 0ZM266 387Q255 387 249 392T239 405Q237 408 237 414Q237 419 240 424T246 432Q261 445 276 452Q280
456 296 456Q308 456 304 447Q298 439 295 425T287 399T266 387ZM150 387Q139 387 133 392T123 405Q121 408 121 414Q121 419 124 424T130 432Q145 445 160 452Q164 456 180 456Q192 456 188 447Q182 439 179 425T171 399T150 387Z" />
<glyph unicode="&#xf0;" glyph-name="eth" horiz-adv-x="303" d="M97 -8Q56 -8 39 21T21 88Q21 123 32 158Q58 241 110 286T222 331Q241 331 253 323T269 303Q270 335 264 372T241 440Q228 430 213 420T186 404Q176 398 169 398Q159 398 154 406T144 424Q157 428
179 441T224 469Q209 486 190 497T144 508Q136 508 129 507T113 505Q104 505 104 511Q104 520 114 523T135 528T153 529Q185 529 210 518T253 490Q267 498 278 505T297 515Q309 520 314 520Q326 520 333 511T344 490Q340 492 336 492Q327 492 312 486T274 465Q294
435 303 397T313 320Q313 269 300 212T259 105T192 24T97 -8ZM99 14Q120 14 142 32T184 80T219 144T244 212T253 270Q253 290 247 301T226 313Q196 313 169 286T121 217T87 133T75 58Q75 39 80 27T99 14Z" />
<glyph unicode="&#xf1;" glyph-name="ntilde" horiz-adv-x="335" d="M-30 -6Q13 74 41 148T107 299Q118 319 135 326T168 334Q181 334 191 331Q188 324 176 304T149 257Q139 239 119 202T82 124Q91 135 110 160T154 214T206 271T260 316T308 334Q324 334 336 324T348
297Q348 272 327 239T285 173Q281 167 271 150T248 112T228 71T219 40Q219 29 228 29Q247 29 267 44T307 78T337 111Q348 123 357 134T375 155Q378 158 380 158Q386 158 386 149Q386 143 382 139Q371 126 360 113T337 86Q326 73 315 61T291 37Q248 -3 211 -3Q186
-3 178 12T169 49Q169 73 182 101T214 158T252 216T285 267T298 307Q298 313 291 313Q285 313 268 299T230 265T193 227T169 201Q144 174 121 143T76 83Q64 66 55 49T35 12Q30 3 22 2T-1 -1Q-11 -1 -17 -1T-30 -6ZM314 388Q294 388 281 395T257 410T230 418Q214
418 204 407T189 389Q182 386 182 391Q182 409 201 428T242 448Q268 448 289 436T332 424Q343 424 349 429T362 447Q365 447 367 446T370 437Q370 424 360 413T337 395T314 388Z" />
<glyph unicode="&#xf2;" glyph-name="ograve" horiz-adv-x="300" d="M88 -7Q51 -7 33 17T14 78Q14 120 36 170Q56 215 87 252T156 311T227 334Q268 334 287 309T306 246Q306 205 285 158Q274 134 253 106T205 52T148 10T88 -7ZM107 13Q128 13 149 27T189 63T222
105T244 142Q261 174 269 203T277 255Q277 303 241 303Q219 303 195 286T147 239T107 174Q71 102 71 57Q71 21 94 15Q97 14 100 14T107 13ZM266 389Q264 390 253 396T230 410T212 422Q203 428 187 439T157 462T142 475Q142 479 149 484T169 491H170Q177 491 183
487T194 477Q205 467 228 444T270 403Q273 400 273 396Q273 387 266 389Z" />
<glyph unicode="&#xf3;" glyph-name="oacute" horiz-adv-x="300" d="M88 -7Q51 -7 33 17T14 78Q14 120 36 170Q56 215 87 252T156 311T227 334Q268 334 287 309T306 246Q306 205 285 158Q274 134 253 106T205 52T148 10T88 -7ZM107 13Q128 13 149 27T189 63T222
105T244 142Q261 174 269 203T277 255Q277 303 241 303Q219 303 195 286T147 239T107 174Q71 102 71 57Q71 21 94 15Q97 14 100 14T107 13ZM226 387Q220 387 220 394Q220 398 224 401Q243 418 266 441T300 475Q304 480 310 484T324 489Q338 489 344 483T351 473Q351
471 338 460T308 438T282 420Q276 416 264 408T241 394T227 387H226Z" />
<glyph unicode="&#xf4;" glyph-name="ocircumflex" horiz-adv-x="300" d="M88 -7Q51 -7 33 17T14 78Q14 120 36 170Q56 215 87 252T156 311T227 334Q268 334 287 309T306 246Q306 205 285 158Q274 134 253 106T205 52T148 10T88 -7ZM107 13Q128 13 149 27T189
63T222 105T244 142Q261 174 269 203T277 255Q277 303 241 303Q219 303 195 286T147 239T107 174Q71 102 71 57Q71 21 94 15Q97 14 100 14T107 13ZM146 386Q141 386 141 391Q141 396 146 400Q161 412 178 426T210 454T234 474Q250 488 264 488Q270 488 277 484T288
474Q296 464 315 441T351 400Q353 398 353 394Q353 390 350 388T345 386Q343 387 333 393T312 407T296 419Q290 424 279 432T257 450Q244 441 230 433T207 419Q200 415 187 407T162 393T147 386H146Z" />
<glyph unicode="&#xf5;" glyph-name="otilde" horiz-adv-x="300" d="M88 -7Q51 -7 33 17T14 78Q14 120 36 170Q56 215 87 252T156 311T227 334Q268 334 287 309T306 246Q306 205 285 158Q274 134 253 106T205 52T148 10T88 -7ZM107 13Q128 13 149 27T189 63T222
105T244 142Q261 174 269 203T277 255Q277 303 241 303Q219 303 195 286T147 239T107 174Q71 102 71 57Q71 21 94 15Q97 14 100 14T107 13ZM285 388Q265 388 252 395T228 410T201 418Q185 418 175 407T160 389Q153 386 153 391Q153 409 172 428T213 448Q239 448
260 436T303 424Q314 424 320 429T333 447Q336 447 338 446T341 437Q341 424 331 413T308 395T285 388Z" />
<glyph unicode="&#xf6;" glyph-name="odieresis" horiz-adv-x="300" d="M88 -7Q51 -7 33 17T14 78Q14 120 36 170Q56 215 87 252T156 311T227 334Q268 334 287 309T306 246Q306 205 285 158Q274 134 253 106T205 52T148 10T88 -7ZM107 13Q128 13 149 27T189 63T222
105T244 142Q261 174 269 203T277 255Q277 303 241 303Q219 303 195 286T147 239T107 174Q71 102 71 57Q71 21 94 15Q97 14 100 14T107 13ZM323 387Q312 387 306 392T296 405Q294 408 294 414Q294 419 297 424T303 432Q318 445 333 452Q337 456 353 456Q365 456
361 447Q355 439 352 425T344 399T323 387ZM207 387Q196 387 190 392T180 405Q178 408 178 414Q178 419 181 424T187 432Q202 445 217 452Q221 456 237 456Q249 456 245 447Q239 439 236 425T228 399T207 387Z" />
<glyph unicode="&#xf7;" glyph-name="divide" horiz-adv-x="363" d="M252 235Q241 235 235 241T225 254Q224 256 224 258T223 262Q223 269 226 274T233 283Q240 289 247 294T264 303Q272 308 278 310T292 317Q295 319 297 317T297 312Q291 303 288 285T277 251T252
235ZM310 133Q307 137 292 141T248 146Q239 146 229 146T208 144Q198 144 177 142T131 137T88 135Q63 135 56 148T49 178Q66 175 92 175Q122 175 157 177T223 181T270 181Q299 179 304 164T310 133ZM101 -7Q90 -7 84 -1T74 12Q71 17 71 21Q71 27 75 32T82 41Q89
46 96 51T113 61Q121 65 127 67T140 75Q143 77 145 75T146 70Q140 61 136 43T125 9T101 -7Z" />
<glyph unicode="&#xf8;" glyph-name="oslash" horiz-adv-x="300" d="M8 -98Q8 -97 8 -97T7 -96Q6 -96 6 -94Q6 -93 6 -92T6 -90Q6 -88 8 -82Q13 -70 25 -49T53 1L48 3Q47 3 47 3T46 4Q43 6 41 8T36 13Q25 24 20 41T14 79Q14 117 31 160Q33 165 36 170L38 177Q43
185 48 193T57 209L65 222L73 234Q77 240 82 245T92 257Q103 270 116 281Q121 285 125 288T133 295Q134 296 135 297T138 299Q143 302 146 305T154 310Q162 315 170 319T187 326Q190 327 192 328T198 330L214 333Q217 333 220 333T225 334H230Q238 334 244 333T257
329Q257 329 261 327L269 324Q282 341 294 356T320 388L322 392L328 399L331 400Q333 400 337 398L340 394H341Q343 388 343 387Q343 386 343 386T344 384V378Q344 377 344 377T343 377V374L328 356L320 345Q314 337 307 326T291 303Q299 292 302 278T305 246Q305
204 285 158L282 153Q277 144 271 133T257 110L244 93Q237 83 228 73T209 55L198 46L187 36L181 31Q175 27 170 23T157 15L145 8Q141 7 137 5T127 1Q118 -3 110 -4Q101 -7 92 -7H86Q85 -7 84 -7T82 -6H77L68 -20Q54 -42 42 -59T24 -86Q15 -100 8 -98ZM74 37L105
86L142 144Q166 182 194 221T252 301V302Q248 303 241 303H230L224 301L219 299Q215 298 212 296T204 292L193 285L189 281L181 275Q174 270 168 263T154 247L146 238L128 213Q127 212 127 211T125 207L110 180L107 174Q103 167 100 161T94 147L92 140Q88 130 85
121T78 101L76 96Q74 85 73 75T71 57Q71 46 74 37ZM99 14Q102 14 105 14T112 14Q132 14 148 27L157 34Q162 37 166 40T174 48Q187 59 195 70Q203 79 210 87T223 106L229 116L241 135L244 142L246 148L251 156Q260 177 267 197T275 234V238Q275 243 276 247T277
256Q277 263 276 269T274 280Q243 236 207 184T136 81L131 72Q121 58 111 44T92 16Q93 15 94 15Q95 14 99 14Z" />
<glyph unicode="&#xf9;" glyph-name="ugrave" horiz-adv-x="347" d="M215 -3Q181 -3 181 39Q181 59 188 85T207 143Q186 110 161 77T109 23T57 1Q29 1 20 19T10 60Q10 79 14 96T22 122Q37 160 59 206T100 286Q110 303 132 315T169 327Q184 327 184 317Q184 309
174 293Q165 280 149 253T115 191T79 124Q57 82 57 51Q57 26 72 26Q80 26 93 35T124 64Q132 72 148 96T186 150T227 210T260 259Q284 305 311 321T375 337Q365 332 351 311T322 268Q312 253 300 229T276 179T256 129T244 93Q239 71 239 58Q239 34 251 34Q255 34
261 37Q283 48 305 69T347 112Q357 123 366 133T383 154Q386 157 388 157Q394 157 394 149Q394 143 390 139Q369 113 346 86Q324 61 300 37Q280 18 256 8T215 -3ZM266 389Q264 390 253 396T230 410T212 422Q203 428 187 439T157 462T142 475Q142 479 149 484T169
491H170Q177 491 183 487T194 477Q205 467 228 444T270 403Q273 400 273 396Q273 387 266 389Z" />
<glyph unicode="&#xfa;" glyph-name="uacute" horiz-adv-x="347" d="M215 -3Q181 -3 181 39Q181 59 188 85T207 143Q186 110 161 77T109 23T57 1Q29 1 20 19T10 60Q10 79 14 96T22 122Q37 160 59 206T100 286Q110 303 132 315T169 327Q184 327 184 317Q184 309
174 293Q165 280 149 253T115 191T79 124Q57 82 57 51Q57 26 72 26Q80 26 93 35T124 64Q132 72 148 96T186 150T227 210T260 259Q284 305 311 321T375 337Q365 332 351 311T322 268Q312 253 300 229T276 179T256 129T244 93Q239 71 239 58Q239 34 251 34Q255 34
261 37Q283 48 305 69T347 112Q357 123 366 133T383 154Q386 157 388 157Q394 157 394 149Q394 143 390 139Q369 113 346 86Q324 61 300 37Q280 18 256 8T215 -3ZM226 387Q220 387 220 394Q220 398 224 401Q243 418 266 441T300 475Q304 480 310 484T324 489Q338
489 344 483T351 473Q351 471 338 460T308 438T282 420Q276 416 264 408T241 394T227 387H226Z" />
<glyph unicode="&#xfb;" glyph-name="ucircumflex" horiz-adv-x="347" d="M215 -3Q181 -3 181 39Q181 59 188 85T207 143Q186 110 161 77T109 23T57 1Q29 1 20 19T10 60Q10 79 14 96T22 122Q37 160 59 206T100 286Q110 303 132 315T169 327Q184 327 184 317Q184
309 174 293Q165 280 149 253T115 191T79 124Q57 82 57 51Q57 26 72 26Q80 26 93 35T124 64Q132 72 148 96T186 150T227 210T260 259Q284 305 311 321T375 337Q365 332 351 311T322 268Q312 253 300 229T276 179T256 129T244 93Q239 71 239 58Q239 34 251 34Q255
34 261 37Q283 48 305 69T347 112Q357 123 366 133T383 154Q386 157 388 157Q394 157 394 149Q394 143 390 139Q369 113 346 86Q324 61 300 37Q280 18 256 8T215 -3ZM146 386Q141 386 141 391Q141 396 146 400Q161 412 178 426T210 454T234 474Q250 488 264 488Q270
488 277 484T288 474Q296 464 315 441T351 400Q353 398 353 394Q353 390 350 388T345 386Q343 387 333 393T312 407T296 419Q290 424 279 432T257 450Q244 441 230 433T207 419Q200 415 187 407T162 393T147 386H146Z" />
<glyph unicode="&#xfc;" glyph-name="udieresis" horiz-adv-x="347" d="M215 -3Q181 -3 181 39Q181 59 188 85T207 143Q186 110 161 77T109 23T57 1Q29 1 20 19T10 60Q10 79 14 96T22 122Q37 160 59 206T100 286Q110 303 132 315T169 327Q184 327 184 317Q184
309 174 293Q165 280 149 253T115 191T79 124Q57 82 57 51Q57 26 72 26Q80 26 93 35T124 64Q132 72 148 96T186 150T227 210T260 259Q284 305 311 321T375 337Q365 332 351 311T322 268Q312 253 300 229T276 179T256 129T244 93Q239 71 239 58Q239 34 251 34Q255
34 261 37Q283 48 305 69T347 112Q357 123 366 133T383 154Q386 157 388 157Q394 157 394 149Q394 143 390 139Q369 113 346 86Q324 61 300 37Q280 18 256 8T215 -3ZM323 387Q312 387 306 392T296 405Q294 408 294 414Q294 419 297 424T303 432Q318 445 333 452Q337
456 353 456Q365 456 361 447Q355 439 352 425T344 399T323 387ZM207 387Q196 387 190 392T180 405Q178 408 178 414Q178 419 181 424T187 432Q202 445 217 452Q221 456 237 456Q249 456 245 447Q239 439 236 425T228 399T207 387Z" />
<glyph unicode="&#xfd;" glyph-name="yacute" horiz-adv-x="319" d="M-60 -330Q-88 -330 -103 -315T-119 -272Q-119 -232 -96 -196T-38 -130T36 -74T105 -31T149 -3Q174 42 196 89T235 184Q209 138 179 96T118 27T59 0Q30 0 20 19T10 62Q10 80 13 97T20 122Q29
148 43 179T71 241T97 295Q105 312 127 324T163 337Q178 337 178 326Q178 318 169 303Q161 289 145 259T111 193T77 124Q59 85 59 54Q59 41 63 33T76 25Q84 25 97 34T127 64Q136 74 154 98T195 154T237 223T269 294L275 316Q283 323 291 323Q302 323 310 313T319
301Q303 243 279 177T217 29Q255 53 281 75T319 111Q329 122 338 133T356 155Q359 158 361 158Q367 158 367 149Q367 143 363 139Q352 126 342 113T319 85Q299 63 266 38T200 -6Q175 -65 148 -122T89 -227T21 -302T-60 -330ZM-64 -309Q-38 -309 -13 -288T36 -234T79
-162T114 -89T140 -31Q123 -42 94 -62T32 -109T-30 -164T-78 -221T-97 -274Q-97 -286 -90 -297T-64 -309ZM201 387Q195 387 195 394Q195 398 199 401Q218 418 241 441T275 475Q279 480 285 484T299 489Q313 489 319 483T326 473Q326 471 313 460T283 438T257 420Q251
416 239 408T216 394T202 387H201Z" />
<glyph unicode="&#xfe;" glyph-name="thorn" horiz-adv-x="299" d="M-29 -132Q-35 -132 -35 -121Q-35 -110 -26 -73T1 19T40 140T89 278T144 417T202 544Q202 544 205 547Q209 547 220 536T234 513Q234 510 233 508Q226 495 212 462T179 382Q208 389 228 392T265
395Q311 395 330 371T349 311Q349 280 328 242T273 170T196 113T110 91Q89 91 65 99Q35 23 13 -37T-17 -117Q-23 -132 -29 -132ZM76 124Q112 126 155 144T237 190T301 253T327 321Q327 354 269 354Q247 354 217 349T161 337Q141 288 119 233T76 124Z" />
<glyph unicode="&#xff;" glyph-name="ydieresis" horiz-adv-x="319" d="M-60 -330Q-88 -330 -103 -315T-119 -272Q-119 -232 -96 -196T-38 -130T36 -74T105 -31T149 -3Q174 42 196 89T235 184Q209 138 179 96T118 27T59 0Q30 0 20 19T10 62Q10 80 13 97T20 122Q29
148 43 179T71 241T97 295Q105 312 127 324T163 337Q178 337 178 326Q178 318 169 303Q161 289 145 259T111 193T77 124Q59 85 59 54Q59 41 63 33T76 25Q84 25 97 34T127 64Q136 74 154 98T195 154T237 223T269 294L275 316Q283 323 291 323Q302 323 310 313T319
301Q303 243 279 177T217 29Q255 53 281 75T319 111Q329 122 338 133T356 155Q359 158 361 158Q367 158 367 149Q367 143 363 139Q352 126 342 113T319 85Q299 63 266 38T200 -6Q175 -65 148 -122T89 -227T21 -302T-60 -330ZM-64 -309Q-38 -309 -13 -288T36 -234T79
-162T114 -89T140 -31Q123 -42 94 -62T32 -109T-30 -164T-78 -221T-97 -274Q-97 -286 -90 -297T-64 -309ZM298 387Q287 387 281 392T271 405Q269 408 269 414Q269 419 272 424T278 432Q293 445 308 452Q312 456 328 456Q340 456 336 447Q330 439 327 425T319 399T298
387ZM182 387Q171 387 165 392T155 405Q153 408 153 414Q153 419 156 424T162 432Q177 445 192 452Q196 456 212 456Q224 456 220 447Q214 439 211 425T203 399T182 387Z" />
<glyph unicode="&#x2013;" glyph-name="endash" horiz-adv-x="423" d="M402 184Q399 189 367 192T285 196Q274 196 262 196T237 195Q185 192 149 189T85 186Q60 186 54 199T47 229Q64 226 102 226Q134 226 173 227T251 230T320 232T362 232Q391 230 396 215T402 184Z" />
<glyph unicode="&#x2014;" glyph-name="emdash" horiz-adv-x="580" d="M558 184Q545 192 512 194T441 196Q405 196 369 195T307 193Q262 192 215 190T133 187T85 186Q60 186 54 199T47 229Q64 226 122 226Q160 226 208 227T307 229T401 231T477 232T518 232Q547
230 552 215T558 184Z" />
<glyph unicode="&#x2018;" glyph-name="quoteleft" horiz-adv-x="192" d="M168 448Q137 448 137 480Q137 508 158 539T209 598T268 637Q269 638 273 637T269 631Q238 609 218 577T187 514Q198 501 198 482Q198 469 191 459T168 448Z" />
<glyph unicode="&#x2019;" glyph-name="quoteright" horiz-adv-x="272" d="M141 449Q140 448 136 449T139 456Q171 478 191 509T222 572Q211 585 211 604Q211 617 218 627T241 638Q272 638 272 606Q272 579 251 547T200 488T141 449Z" />
<glyph unicode="&#x201a;" glyph-name="quotesinglbase" horiz-adv-x="300" d="M110 -37Q109 -38 106 -38T107 -31Q110 -25 121 -4T146 43T174 93T197 128Q211 146 226 146Q242 146 242 127Q242 112 229 93Q207 59 175 24T110 -37Z" />
<glyph unicode="&#x201c;" glyph-name="quotedblleft" horiz-adv-x="303" d="M275 448Q244 448 244 480Q244 508 265 539T316 598T375 637Q377 638 380 637T377 631Q345 609 325 577T294 514Q305 501 305 482Q305 469 298 459T275 448ZM168 448Q137 448 137 480Q137
508 158 539T209 598T268 637Q269 638 273 637T269 631Q238 609 218 577T187 514Q198 501 198 482Q198 469 191 459T168 448Z" />
<glyph unicode="&#x201d;" glyph-name="quotedblright" horiz-adv-x="323" d="M162 449Q161 448 157 449T160 456Q192 478 212 509T243 572Q232 585 232 604Q232 617 239 627T262 638Q293 638 293 606Q293 579 272 547T221 488T162 449ZM263 449Q262 448 259 449T262
456Q294 478 314 509T344 572Q333 585 333 604Q333 617 340 627T363 638Q394 638 394 606Q394 579 373 547T322 488T263 449Z" />
<glyph unicode="&#x201e;" glyph-name="quotedblbase" horiz-adv-x="412" d="M110 -37Q109 -38 106 -38T107 -31Q110 -25 121 -4T146 43T174 93T197 128Q211 146 226 146Q242 146 242 127Q242 112 229 93Q207 59 175 24T110 -37ZM223 -37Q222 -38 219 -38T219
-31Q222 -25 233 -4T258 43T286 93T309 128Q323 146 338 146Q354 146 354 126Q354 119 352 111T342 93Q319 59 287 24T223 -37Z" />
<glyph unicode="&#x2022;" glyph-name="bullet" horiz-adv-x="436" d="M183 63Q131 63 99 95T66 180Q66 228 93 270T163 339T253 366Q304 366 337 333T370 249Q370 201 344 159T274 90T183 63Z" />
<glyph unicode="&#x2039;" glyph-name="guilsinglleft" horiz-adv-x="320" d="M224 72Q212 93 183 119T122 168T69 207L67 212Q72 221 101 243T171 291T253 337Q255 338 264 341T280 344Q287 344 287 339Q287 334 285 331Q283 327 265 314T223 285T176 252T144
226Q150 220 164 205T195 169T223 129T235 93Q235 79 224 72Z" />
<glyph unicode="&#x203a;" glyph-name="guilsinglright" horiz-adv-x="330" d="M85 83Q78 83 78 88Q78 92 81 96Q83 99 101 112T143 142T190 175T222 201Q216 206 201 221T170 257T142 297T130 333Q130 347 141 354Q154 334 183 308T244 259T297 219L298 214Q293
206 264 184T195 137T112 90Q110 89 101 86T85 83Z" />
</font>
</defs>
</svg>
