<?xml version="1.0" standalone="no"?>
<!DOCTYPE svg PUBLIC "-//W3C//DTD SVG 1.1//EN" "http://www.w3.org/Graphics/SVG/1.1/DTD/svg11.dtd">
<svg xmlns="http://www.w3.org/2000/svg">
<defs >
<font id="ProtestStrike" horiz-adv-x="517" ><font-face
    font-family="Protest Strike"
    units-per-em="1000"
    panose-1="0 0 0 0 0 0 0 0 0 0"
    ascent="960"
    descent="-240"
    alphabetic="0" />
<glyph unicode=" " glyph-name="space" horiz-adv-x="250" />
<glyph unicode="!" glyph-name="exclam" horiz-adv-x="300" d="M82 224L52 610V779H248V610L218 224H82ZM60 0V136H241V0H60Z" />
<glyph unicode="&quot;" glyph-name="quotedbl" horiz-adv-x="439" d="M30 754H206L184 458H51L30 754ZM233 754H409L387 458H254L233 754Z" />
<glyph unicode="#" glyph-name="numbersign" horiz-adv-x="605" d="M24 154L42 267H120L149 461H71L89 574H166L188 720H316L294 574H380L402 720H530L508 574H581L564 461H491L462 267H534L518 154H445L422 0H294L317 154H231L208 0H80L103 154H24ZM248 267H334L363
461H277L248 267Z" />
<glyph unicode="$" glyph-name="dollar" horiz-adv-x="523" d="M225 163Q263 163 282 174T301 210Q301 227 292 237T260 257L154 306Q95 333 63 378T31 509Q31 606 75 659T218 725V798H296V729Q347 728 388 723T453 713T478 708L458 547Q458 547 434 550T373 555T303
558Q267 558 249 548T230 508Q230 492 244 482T283 460L368 423Q436 393 467 349T498 222Q498 121 451 62T296 -8V-74H218V-9Q162 -8 113 0T25 18L45 179Q45 179 69 175T135 167T225 163Z" />
<glyph unicode="%" glyph-name="percent" horiz-adv-x="856" d="M629 748L703 693L242 4L168 59L629 748ZM197 325Q108 325 64 375T20 520Q20 615 64 666T197 717Q286 717 330 666T374 520Q374 426 330 376T197 325ZM197 410Q219 410 226 436T234 520Q234 577
227 603T197 630Q175 630 168 604T160 520Q160 463 167 437T197 410ZM669 -10Q580 -10 536 40T492 185Q492 280 536 331T669 382Q758 382 802 331T846 185Q846 91 802 41T669 -10ZM669 75Q691 75 698 101T706 185Q706 242 699 268T669 295Q647 295 640 269T632
185Q632 128 639 102T669 75Z" />
<glyph unicode="&amp;" glyph-name="ampersand" horiz-adv-x="746" d="M466 300Q477 341 480 382T484 451H670Q670 413 663 363T638 260T588 162L731 1H476L444 38Q416 15 372 3T275 -10Q204 -10 152 22T73 106T45 213Q45 248 55 283T89 349T156 397Q138 431 129
463T119 526Q119 597 150 641T233 706T352 727Q389 727 428 722T507 705L493 549Q472 557 450 562T406 567Q366 567 343 552T319 502Q319 468 363 417L466 300ZM342 137Q347 137 352 137T364 138L235 290Q230 270 230 250Q230 204 257 171T342 137Z" />
<glyph unicode="&apos;" glyph-name="quotesingle" horiz-adv-x="236" d="M30 754H206L184 458H51L30 754Z" />
<glyph unicode="(" glyph-name="parenleft" horiz-adv-x="380" d="M232 -146L71 16Q51 36 43 53T35 96V540Q35 566 43 583T71 620L232 782L348 665L236 556Q224 545 222 533T219 504V132Q219 116 221 104T236 80L348 -29L232 -146Z" />
<glyph unicode=")" glyph-name="parenright" horiz-adv-x="380" d="M148 782L309 620Q329 600 337 583T345 540V96Q345 70 337 53T309 16L148 -146L32 -29L144 80Q156 91 158 103T161 132V504Q161 520 159 532T144 556L32 665L148 782Z" />
<glyph unicode="*" glyph-name="asterisk" horiz-adv-x="482" d="M180 386L204 526L94 436L33 541L166 590L34 641L96 745L204 656L180 794H302L279 656L386 745L447 640L316 590L449 540L386 436L278 525L302 386H180Z" />
<glyph unicode="+" glyph-name="plus" horiz-adv-x="450" d="M267 341V183H184V341H30V418H184V573H267V418H420V341H267Z" />
<glyph unicode="," glyph-name="comma" horiz-adv-x="300" d="M75 164H255L161 -84H20L75 164Z" />
<glyph unicode="-" glyph-name="hyphen" horiz-adv-x="300" d="M270 408V269H30V408H270Z" />
<glyph unicode="." glyph-name="period" horiz-adv-x="300" d="M62 165H238V0H62V165Z" />
<glyph unicode="/" glyph-name="slash" horiz-adv-x="427" d="M258 755H427L169 -36H0L258 755Z" />
<glyph unicode="0" glyph-name="zero" horiz-adv-x="635" d="M317 728Q459 728 522 642T585 364Q585 172 522 81T317 -10Q175 -10 113 81T50 364Q50 556 112 642T317 728ZM317 145Q348 145 361 199T375 364Q375 474 362 523T317 573Q286 573 273 524T259 364Q259
254 272 200T317 145Z" />
<glyph unicode="1" glyph-name="one" horiz-adv-x="383" d="M15 647L181 720H338V0H142V542L32 497L15 647Z" />
<glyph unicode="2" glyph-name="two" horiz-adv-x="512" d="M188 327Q220 369 244 415T268 500Q268 536 240 550T172 565Q145 565 115 560T59 546L29 693Q83 710 136 719T236 728Q304 728 356 708T439 645T469 530Q469 469 443 412T376 301L268 160H482V0H35V126L188
327Z" />
<glyph unicode="3" glyph-name="three" horiz-adv-x="505" d="M219 -10Q171 -10 122 -1T25 25L43 178Q78 165 115 157T186 148Q229 148 257 164T286 217Q286 252 262 269T180 286H107V432H183Q239 432 262 450T286 506Q286 541 258 554T188 568Q160 568 130 564T71
552L43 695Q93 711 143 719T241 728Q308 728 362 710T448 652T482 547Q482 478 456 434T377 364V362Q428 343 459 303T490 194Q490 124 453 79T354 12T219 -10Z" />
<glyph unicode="4" glyph-name="four" horiz-adv-x="582" d="M490 712V285H581L552 133H490V0H302V132H20V277L256 726L490 712ZM302 285V515L178 285H302Z" />
<glyph unicode="5" glyph-name="five" horiz-adv-x="499" d="M484 235Q484 119 417 55T198 -10Q145 -10 97 0T11 24L32 177Q75 161 120 153T203 149T264 173T288 233Q288 270 265 288T206 311T127 314T46 310V720H472L437 540H224V444Q247 446 271 446Q366 446
425 396T484 235Z" />
<glyph unicode="6" glyph-name="six" horiz-adv-x="574" d="M554 250Q554 125 493 58T304 -9Q177 -9 106 71T35 330Q35 409 51 480T105 607T208 695T370 727Q404 727 437 723T500 713L481 555Q425 566 385 566Q317 566 286 537T245 443Q277 456 307 463T365 470Q448
470 501 414T554 250ZM289 331Q268 331 239 323Q239 237 243 194T260 137T300 122Q325 122 341 149T358 224Q358 282 343 306T289 331Z" />
<glyph unicode="7" glyph-name="seven" horiz-adv-x="489" d="M77 0L288 540H25V720H474V578L285 0H77Z" />
<glyph unicode="8" glyph-name="eight" horiz-adv-x="570" d="M285 -10Q196 -10 137 16T49 86T20 185Q20 333 152 380V382Q41 418 41 539Q41 631 102 679T285 727Q407 727 468 679T529 539Q529 418 418 382V380Q550 333 550 185Q550 130 521 86T434 16T285 -10ZM285
441Q313 441 324 461T336 528Q336 566 325 585T285 605Q257 605 246 586T234 528Q234 482 245 462T285 441ZM285 104Q318 104 332 129T346 207Q346 259 332 284T285 310Q252 310 238 285T224 207Q224 155 238 130T285 104Z" />
<glyph unicode="9" glyph-name="nine" horiz-adv-x="574" d="M20 468Q20 593 81 660T270 727Q397 727 468 647T539 388Q539 309 523 238T469 111T367 23T204 -9Q170 -9 137 -5T74 5L93 163Q149 152 189 152Q257 152 288 181T329 275Q297 262 267 255T209 248Q127
248 74 304T20 468ZM285 387Q306 387 335 395Q335 481 331 524T314 581T274 596Q249 596 233 569T216 494Q216 436 232 412T285 387Z" />
<glyph unicode=":" glyph-name="colon" horiz-adv-x="300" d="M62 165H238V0H62V165ZM62 513H238V348H62V513Z" />
<glyph unicode=";" glyph-name="semicolon" horiz-adv-x="300" d="M62 513H238V348H62V513ZM75 164H255L161 -84H20L75 164Z" />
<glyph unicode="&lt;" glyph-name="less" horiz-adv-x="450" d="M410 218V138L40 308V372L410 542V462L151 340L410 218Z" />
<glyph unicode="=" glyph-name="equal" horiz-adv-x="450" d="M30 405V482H420V405H30ZM30 205V282H420V205H30Z" />
<glyph unicode="&gt;" glyph-name="greater" horiz-adv-x="450" d="M40 218L299 340L40 462V542L410 372V308L40 138V218Z" />
<glyph unicode="?" glyph-name="question" horiz-adv-x="441" d="M62 224V470H72Q103 470 133 476T184 500T205 550Q205 579 178 599T100 620Q76 620 59 619T28 615L10 774Q45 782 79 785T164 788Q230 788 287 767T380 700T416 575Q416 489 372 427T242 350V224H62ZM62
0V136H242V0H62Z" />
<glyph unicode="@" glyph-name="at" horiz-adv-x="797" d="M460 -141Q333 -141 240 -100T96 30T45 267Q45 414 96 505T240 637T460 679Q540 679 605 657T708 587T747 463V95H591L579 138Q554 111 523 98T461 85Q421 85 386 105T329 165T307 259Q307 345 367 389T524
433H567Q567 489 535 513T440 538Q378 538 330 514T256 431T229 270Q229 168 255 109T330 25T440 0Q492 0 531 3T615 22L636 -121Q595 -133 547 -137T460 -141ZM531 217Q551 217 567 235V334H554Q524 334 503 320T482 276Q482 248 497 233T531 217Z" />
<glyph unicode="A" glyph-name="A" horiz-adv-x="590" d="M233 97L214 0H5L149 630L126 728H428L585 0H378L359 97H233ZM253 252H338L296 514L253 252Z" />
<glyph unicode="B" glyph-name="B" horiz-adv-x="584" d="M55 0V583L0 720H300Q421 720 476 672T531 541Q531 488 511 445T435 373V371Q503 349 531 306T560 193Q560 100 492 50T285 0H55ZM250 424H259Q304 424 324 441T345 503Q345 548 325 565T259 583H250V424ZM250
132H260Q310 132 333 150T357 216Q357 264 334 282T260 301H250V132Z" />
<glyph unicode="C" glyph-name="C" horiz-adv-x="505" d="M20 355Q20 497 53 578T152 694T318 728Q350 728 391 725T472 712V448H351L335 569Q308 569 289 563T256 535T237 471T230 356Q230 278 247 234T298 171T387 152Q411 152 433 155T480 162V4Q451 -3 410
-6T337 -10Q166 -10 93 82T20 355Z" />
<glyph unicode="D" glyph-name="D" horiz-adv-x="600" d="M293 720Q396 720 459 689T551 582T580 374Q580 232 551 150T459 34T293 0H55V583L0 720H293ZM281 160Q313 160 332 179T361 245T370 374Q370 449 362 489T335 545T281 560H250V160H281Z" />
<glyph unicode="E" glyph-name="E" horiz-adv-x="501" d="M0 720H479L449 560H250V450H437L407 290H250V160H486L456 0H55V583L0 720Z" />
<glyph unicode="F" glyph-name="F" horiz-adv-x="474" d="M464 720L434 560H250V424H416L386 264H250V0H55V583L0 720H464Z" />
<glyph unicode="G" glyph-name="G" horiz-adv-x="547" d="M230 356Q230 282 241 238T278 174T352 150V219L297 356H532V34Q500 13 449 2T332 -10Q236 -10 166 26T58 142T20 355Q20 488 61 570T176 690T348 728Q383 728 421 722T499 708L481 544Q448 550 425 553T377
557Q325 557 293 540T245 480T230 356Z" />
<glyph unicode="H" glyph-name="H" horiz-adv-x="580" d="M45 0V720H240V443H340V720H535V0H340V283H240V0H45Z" />
<glyph unicode="I" glyph-name="I" horiz-adv-x="285" d="M45 720H240V0H45V720Z" />
<glyph unicode="J" glyph-name="J" horiz-adv-x="423" d="M188 583L133 720H383V215Q383 143 372 99T335 31T267 -1T162 -10Q143 -10 114 -8T57 0T10 10L29 169Q45 165 63 162T98 158Q137 158 156 168T182 205T188 281V583Z" />
<glyph unicode="K" glyph-name="K" horiz-adv-x="565" d="M45 720H240V431L347 720H557L423 371L550 0H340L240 305V0H45V720Z" />
<glyph unicode="L" glyph-name="L" horiz-adv-x="466" d="M45 720H240V170H461L430 0H45V720Z" />
<glyph unicode="M" glyph-name="M" horiz-adv-x="737" d="M323 148L235 358V0H45V583L-10 720H228L368 419L508 720H692V0H502V356L414 148H323Z" />
<glyph unicode="N" glyph-name="N" horiz-adv-x="638" d="M262 720L403 309V720H593V0H359L231 374V0H41V617L0 720H262Z" />
<glyph unicode="O" glyph-name="O" horiz-adv-x="586" d="M293 -10Q195 -10 135 23T48 137T20 359Q20 500 47 580T135 694T293 728Q391 728 451 695T538 581T566 359Q566 218 539 138T451 24T293 -10ZM356 361Q356 447 351 492T332 555T293 573Q269 573 255 556T236
493T230 361Q230 276 235 229T255 164T293 145Q318 145 331 163T350 229T356 361Z" />
<glyph unicode="P" glyph-name="P" horiz-adv-x="569" d="M55 0V583L0 720H288Q378 720 437 696T525 613T554 455Q554 317 488 256T288 195H250V0H55ZM250 338Q298 338 321 364T345 457Q345 508 337 534T308 569T250 579V338Z" />
<glyph unicode="Q" glyph-name="Q" horiz-adv-x="586" d="M288 -10Q192 -9 133 25T47 139T20 359Q20 500 47 580T135 694T293 728Q391 728 451 695T538 581T566 359Q566 237 546 161T480 44Q503 28 522 6T553 -45L368 -151L288 -10ZM356 361Q356 447 351 492T332
555T293 573Q269 573 255 556T236 493T230 361Q230 276 235 229T255 164T293 145Q318 145 331 163T350 229T356 361Z" />
<glyph unicode="R" glyph-name="R" horiz-adv-x="583" d="M284 720Q372 720 431 698T519 623T549 479Q549 403 526 355T456 277L578 0H361L282 234H250V0H55V583L0 720H284ZM250 368Q296 368 318 391T340 472Q340 518 332 540T305 571T250 579V368Z" />
<glyph unicode="S" glyph-name="S" horiz-adv-x="523" d="M225 163Q263 163 282 174T301 210Q301 227 292 237T260 257L154 306Q95 333 63 378T31 509Q31 619 88 673T279 729Q334 729 379 724T451 714T478 708L458 547Q458 547 434 550T373 555T303 558Q267 558
249 548T230 508Q230 492 244 482T283 460L368 423Q436 393 467 349T498 222Q498 111 440 51T249 -10Q183 -10 126 -2T25 18L45 179Q45 179 69 175T135 167T225 163Z" />
<glyph unicode="T" glyph-name="T" horiz-adv-x="519" d="M484 560H352V0H156V560H10V720H514L484 560Z" />
<glyph unicode="U" glyph-name="U" horiz-adv-x="570" d="M235 245Q235 192 247 169T285 145Q312 145 323 168T335 245V720H530V254Q530 115 470 53T285 -10Q161 -10 101 52T40 254V720H235V245Z" />
<glyph unicode="V" glyph-name="V" horiz-adv-x="570" d="M5 720H213L258 419L289 213L323 419L368 720H565L401 0H169L5 720Z" />
<glyph unicode="W" glyph-name="W" horiz-adv-x="846" d="M134 0L20 720H228L262 280L345 622H501L585 277L618 720H826L712 0H521L425 424L325 0H134Z" />
<glyph unicode="X" glyph-name="X" horiz-adv-x="563" d="M208 720L293 493L365 720H555L423 346L555 0H355L278 214L198 0H9L149 356L8 720H208Z" />
<glyph unicode="Y" glyph-name="Y" horiz-adv-x="570" d="M187 220L5 720H215L273 508L289 420H291L307 508L365 720H565L382 220V0H187V220Z" />
<glyph unicode="Z" glyph-name="Z" horiz-adv-x="506" d="M25 720H486V599L256 160H491V0H15V121L244 560H25V720Z" />
<glyph unicode="[" glyph-name="bracketleft" horiz-adv-x="349" d="M55 755H314V607H215V24H314V-124H55V755Z" />
<glyph unicode="\" glyph-name="backslash" horiz-adv-x="427" d="M169 755L427 -36H258L0 755H169Z" />
<glyph unicode="]" glyph-name="bracketright" horiz-adv-x="349" d="M294 -124H35V24H134V607H35V755H294V-124Z" />
<glyph unicode="^" glyph-name="asciicircum" horiz-adv-x="450" d="M123 440H43L193 720H257L407 440H327L225 617L123 440Z" />
<glyph unicode="_" glyph-name="underscore" horiz-adv-x="450" d="M440 -31V-150H10V-31H440Z" />
<glyph unicode="`" glyph-name="grave" horiz-adv-x="281" d="M261 620H110L20 755H210L261 620Z" />
<glyph unicode="a" glyph-name="a" horiz-adv-x="495" d="M174 -10Q134 -10 99 10T42 70T20 164Q20 250 80 294T237 338H280V393Q280 422 260 432T209 443Q171 443 136 436T66 416V556Q111 566 159 574T257 583Q312 583 358 570T432 521T460 421V0H304L292 43Q267
16 236 3T174 -10ZM244 122Q264 122 280 140V239H267Q237 239 216 225T195 181Q195 153 210 138T244 122Z" />
<glyph unicode="b" glyph-name="b" horiz-adv-x="538" d="M259 -10Q197 -10 140 1T40 34V729L220 755V541Q242 561 271 572T334 583Q389 583 424 560T480 495T509 403T518 294Q518 130 452 60T259 -10ZM261 130Q307 130 319 172T332 299Q332 378 320 410T275 443Q265
443 251 439T220 426V136Q243 130 261 130Z" />
<glyph unicode="c" glyph-name="c" horiz-adv-x="445" d="M273 -10Q219 -10 173 4T93 51T39 142T20 288Q20 374 42 431T104 521T192 568T295 583Q330 583 359 578T419 563V338H316L296 442Q251 442 229 408T206 286Q206 223 222 189T267 143T336 134T423 150V8Q392
-1 350 -5T273 -10Z" />
<glyph unicode="d" glyph-name="d" horiz-adv-x="538" d="M204 -10Q149 -10 114 13T58 78T29 170T20 279Q20 443 71 513T220 583Q264 583 318 565V728L498 755V0H345L330 44Q308 19 275 5T204 -10ZM263 130Q274 130 288 134T318 147V437Q296 443 277 443Q231 443
219 401T206 274Q206 195 218 163T263 130Z" />
<glyph unicode="e" glyph-name="e" horiz-adv-x="474" d="M284 -10Q225 -10 177 3T93 49T39 140T20 288Q20 434 74 508T250 583Q360 583 409 523T459 343Q459 315 457 286T450 232H211Q217 171 245 151T339 130Q362 130 386 134T434 143V7Q399 0 361 -5T284 -10ZM257
451Q217 451 210 343H292Q292 365 291 390T282 433T257 451Z" />
<glyph unicode="f" glyph-name="f" horiz-adv-x="379" d="M80 0V440H20V575H80V601Q80 663 104 698T180 748T317 763Q337 763 359 760V631Q338 634 320 634Q291 634 276 624T260 588V575H359V440H260V0H80Z" />
<glyph unicode="g" glyph-name="g" horiz-adv-x="542" d="M281 -160Q240 -160 200 -157T134 -150T108 -146V-10Q142 -14 170 -16T230 -19Q274 -19 298 -3T322 51V82Q277 40 206 40Q152 40 117 61T61 120T33 205T24 305Q24 455 74 519T221 583Q292 583 336 536L349
575H502V70Q502 -45 445 -102T281 -160ZM267 170Q278 170 292 173T322 185V438Q311 440 301 441T281 443Q235 443 223 406T210 295Q210 227 222 199T267 170Z" />
<glyph unicode="h" glyph-name="h" horiz-adv-x="529" d="M220 546Q274 583 334 583Q403 583 448 540T494 411V0H314V382Q314 443 259 443Q237 443 220 432V0H40V729L220 755V546Z" />
<glyph unicode="i" glyph-name="i" horiz-adv-x="260" d="M40 575H220V0H40V575ZM35 755H225V619H35V755Z" />
<glyph unicode="j" glyph-name="j" horiz-adv-x="260" d="M40 575H220V-125L40 -150V575ZM35 755H225V619H35V755Z" />
<glyph unicode="k" glyph-name="k" horiz-adv-x="511" d="M220 325L316 575H503L390 294L503 0H312L220 258V0H40V731L220 755V325Z" />
<glyph unicode="l" glyph-name="l" horiz-adv-x="260" d="M220 0H40V731L220 755V0Z" />
<glyph unicode="m" glyph-name="m" horiz-adv-x="771" d="M298 382Q298 443 252 443Q234 443 220 432V0H40V575H193L206 536Q262 583 328 583Q366 583 397 568T448 523Q480 554 515 568T587 583Q652 583 694 540T736 411V0H556V382Q556 443 510 443Q490 443 477
433Q477 428 477 422T478 411V0H298V382Z" />
<glyph unicode="n" glyph-name="n" horiz-adv-x="529" d="M206 536Q265 583 334 583Q403 583 448 540T494 411V0H314V382Q314 443 259 443Q237 443 220 432V0H40V575H193L206 536Z" />
<glyph unicode="o" glyph-name="o" horiz-adv-x="534" d="M267 -10Q178 -10 124 20T45 115T20 287Q20 393 44 458T123 553T267 583Q357 583 411 553T489 458T514 287Q514 181 490 116T411 20T267 -10ZM266 131Q300 131 314 167T328 286Q328 369 314 405T266 442Q233
442 220 406T206 286Q206 204 219 168T266 131Z" />
<glyph unicode="p" glyph-name="p" horiz-adv-x="538" d="M40 -150V575H193L208 529Q231 555 263 569T334 583Q389 583 424 560T480 495T509 403T518 294Q518 130 467 60T318 -10Q274 -10 220 8V-124L40 -150ZM261 130Q307 130 319 172T332 299Q332 378 320 410T275
443Q265 443 251 439T220 426V136Q243 130 261 130Z" />
<glyph unicode="q" glyph-name="q" horiz-adv-x="538" d="M318 -182V32Q296 13 267 2T204 -10Q149 -10 114 13T58 78T29 170T20 279Q20 443 86 513T279 583Q341 583 398 572T498 539V-156L318 -182ZM263 130Q274 130 288 134T318 147V437Q296 443 277 443Q231
443 219 401T206 274Q206 195 218 163T263 130Z" />
<glyph unicode="r" glyph-name="r" horiz-adv-x="389" d="M40 0V575H193L213 495H215Q231 545 271 568T374 580V410Q335 410 294 405T220 391V0H40Z" />
<glyph unicode="s" glyph-name="s" horiz-adv-x="429" d="M225 168Q225 185 200 201L114 257Q67 288 46 324T25 418Q25 501 74 541T235 583Q277 583 312 580T369 572T391 568L376 435Q376 435 361 437T323 441T274 444Q238 444 222 438T206 415Q206 405 212 399T231
384L319 327Q367 296 388 261T409 169Q409 80 358 36T191 -10Q140 -10 98 -5T20 10L35 146Q35 146 72 141T170 135Q225 135 225 168Z" />
<glyph unicode="t" glyph-name="t" horiz-adv-x="394" d="M265 575H374V440H265V191Q265 163 279 150T326 137Q342 137 354 138T374 142V9Q350 1 324 -4T270 -10Q178 -10 132 29T85 171V440H10V575H85V701H265V575Z" />
<glyph unicode="u" glyph-name="u" horiz-adv-x="519" d="M313 39Q285 16 253 3T189 -10Q123 -10 79 33T35 162V575H215V193Q215 132 264 132Q283 132 299 143V575H479V0H326L313 39Z" />
<glyph unicode="v" glyph-name="v" horiz-adv-x="491" d="M139 0L5 575H190L248 194H250L306 575H486L350 0H139Z" />
<glyph unicode="w" glyph-name="w" horiz-adv-x="783" d="M638 0H438L411 118L387 274L363 118L335 0H135L5 575H188L229 288L245 194L261 288L303 575H485L527 288L543 194L559 288L596 575H778L638 0Z" />
<glyph unicode="x" glyph-name="x" horiz-adv-x="491" d="M301 575H483L369 285L482 0H300L260 110L244 176L190 0H8L122 290L9 575H191L231 465L247 399L301 575Z" />
<glyph unicode="y" glyph-name="y" horiz-adv-x="491" d="M339 0L311 -126L135 -150L163 0H139L5 575H190L248 194H250L306 575H486L339 0Z" />
<glyph unicode="z" glyph-name="z" horiz-adv-x="457" d="M30 110L202 435H37V575H418V469L244 140H427V0H30V110Z" />
<glyph unicode="{" glyph-name="braceleft" horiz-adv-x="436" d="M337 -123Q256 -123 207 -106T137 -47T115 67V122Q115 193 91 220T10 247V385Q67 385 91 412T115 510V565Q115 637 136 678T207 737T337 755H387V607H343Q315 607 303 592T291 536V465Q291 395
259 363T171 317V315Q226 302 258 270T291 167V96Q291 56 303 41T343 25H387V-123H337Z" />
<glyph unicode="|" glyph-name="bar" horiz-adv-x="280" d="M200 -120H80V805H200V-120Z" />
<glyph unicode="}" glyph-name="braceright" horiz-adv-x="436" d="M99 -123H49V25H93Q121 25 133 40T145 96V167Q145 238 177 270T265 315V317Q210 331 178 363T145 465V536Q145 577 133 592T93 607H49V755H99Q180 755 229 738T299 679T321 565V510Q321 439 345
412T426 385V247Q369 247 345 220T321 122V67Q321 -5 300 -46T229 -105T99 -123Z" />
<glyph unicode="~" glyph-name="asciitilde" horiz-adv-x="450" d="M337 309Q309 309 281 319T225 341Q197 353 169 363T112 373Q92 373 71 366T30 341V418Q51 435 71 442T113 450Q142 450 170 440T226 418Q254 406 282 396T338 386Q358 386 379 393T420 418V341Q399
324 379 317T337 309Z" />
<glyph unicode="&#xa0;" glyph-name="uni00A0" horiz-adv-x="250" />
<glyph unicode="&#xa1;" glyph-name="exclamdown" horiz-adv-x="300" d="M82 405H218L248 19V-150H52V19L82 405ZM60 629H241V493H60V629Z" />
<glyph unicode="&#xa2;" glyph-name="cent" horiz-adv-x="445" d="M203 -103V-4Q149 6 108 37T44 130T20 288Q20 330 30 375T62 461T119 533T203 576V682H305V582Q334 581 364 577T419 565V338H316L296 442Q251 442 229 408T206 286Q206 223 222 189T267 143T336
134T423 150V8Q398 1 367 -3T305 -9V-103H203Z" />
<glyph unicode="&#xa3;" glyph-name="sterling" horiz-adv-x="525" d="M24 0V125L56 141Q92 159 106 182T120 233Q120 248 117 264T110 298H5V409H84Q81 426 80 443T78 480Q78 563 113 618T210 700T353 728Q384 728 415 724T480 711V556Q421 573 377 573Q327 573
297 546T267 454Q267 443 268 432T271 409H450V298H289Q290 288 290 278Q290 245 277 215T230 160H515V0H24Z" />
<glyph unicode="&#xa4;" glyph-name="currency" horiz-adv-x="601" d="M135 86L35 190L102 261Q79 307 79 362Q79 416 102 464L35 536L135 640L204 566Q250 588 301 588Q350 588 396 566L466 640L566 536L498 464Q509 441 515 415T522 362Q522 307 499 261L566
190L466 86L397 159Q351 137 301 137Q274 137 250 143T203 159L135 86ZM300 250Q347 250 378 283T410 362Q410 409 379 442T300 475Q254 475 222 442T190 362Q190 316 222 283T300 250Z" />
<glyph unicode="&#xa5;" glyph-name="yen" horiz-adv-x="570" d="M45 93V204H187V220L174 256H45V367H133L5 720H215L273 508L289 420H291L307 508L365 720H565L436 367H526V256H395L382 220V204H526V93H382V0H187V93H45Z" />
<glyph unicode="&#xa6;" glyph-name="brokenbar" horiz-adv-x="280" d="M80 402V805H200V402H80ZM200 283V-120H80V283H200Z" />
<glyph unicode="&#xa7;" glyph-name="section" horiz-adv-x="489" d="M206 -101Q155 -101 113 -96T35 -81L50 55Q50 55 87 50T185 44Q240 44 240 76Q240 89 234 95T217 108L137 161Q109 180 87 200T53 251T40 327Q40 381 60 417T127 472Q101 494 86 524T70 606Q70
685 119 723T280 763Q322 763 357 760T414 752T436 748L421 615Q421 615 406 617T368 621T319 624Q283 624 267 618T251 595Q251 585 257 579T276 564L360 510Q389 492 410 471T442 420T454 343Q454 287 432 251T362 196Q394 171 409 141T424 67Q424 -17 374 -58T206
-101ZM252 269Q277 276 293 291T310 326Q310 346 302 356T277 377L255 390Q231 384 215 369T198 334Q198 315 206 305T231 283L252 269Z" />
<glyph unicode="&#xa8;" glyph-name="dieresis" horiz-adv-x="404" d="M20 755H180V619H20V755ZM224 755H384V619H224V755Z" />
<glyph unicode="&#xa9;" glyph-name="copyright" horiz-adv-x="761" d="M380 72Q307 72 244 97T134 170T61 280T35 418Q35 493 61 556T134 665T244 737T380 763Q454 763 517 738T627 666T700 556T726 418Q726 343 700 280T627 170T517 98T380 72ZM380 158Q455
158 513 191T606 283T640 418Q640 494 606 552T514 644T380 678Q306 678 247 645T154 553T120 418Q120 342 154 283T247 191T380 158ZM391 223Q338 223 296 243T229 306T205 417Q205 488 234 530T310 590T408 609Q434 609 455 606T499 596V449H423L408 517Q375
517 359 496T342 420Q342 368 363 347T420 325T502 334V235Q480 229 449 226T391 223Z" />
<glyph unicode="&#xaa;" glyph-name="ordfeminine" horiz-adv-x="369" d="M133 304Q87 304 59 338T30 420Q30 473 65 506T149 539H203V571Q203 587 189 592T157 598Q135 598 113 595T75 589T60 585V681Q60 681 82 684T136 690T194 693Q257 693 290 666T324 588V312H221L215
335Q198 320 179 312T133 304ZM179 395Q192 395 203 408V472H183Q165 472 155 462T144 435Q144 412 153 404T179 395Z" />
<glyph unicode="&#xab;" glyph-name="guillemotleft" horiz-adv-x="549" d="M306 59H150L20 254V264L150 459H306L176 259L306 59ZM509 59H353L223 254V264L353 459H509L379 259L509 59Z" />
<glyph unicode="&#xac;" glyph-name="logicalnot" horiz-adv-x="450" d="M440 183H357V341H10V418H440V183Z" />
<glyph unicode="&#xae;" glyph-name="registered" horiz-adv-x="761" d="M380 72Q307 72 244 97T134 170T61 280T35 418Q35 493 61 556T134 665T244 737T380 763Q454 763 517 738T627 666T700 556T726 418Q726 343 700 280T627 170T517 98T380 72ZM380 158Q455
158 513 191T606 283T640 418Q640 494 606 552T514 644T380 678Q306 678 247 645T154 553T120 418Q120 342 154 283T247 191T380 158ZM248 228V543L229 614H396Q470 614 498 580T527 491Q527 453 516 426T485 380L541 228H420L380 359H366V228H248ZM366 430H370Q390
430 398 441T406 483Q406 515 398 526T370 538H366V430Z" />
<glyph unicode="&#xaf;" glyph-name="overscore" horiz-adv-x="336" d="M20 755H316V637H20V755Z" />
<glyph unicode="&#xb0;" glyph-name="degree" horiz-adv-x="468" d="M234 341Q146 341 93 394T40 535Q40 623 93 676T234 729Q323 729 375 676T428 535Q428 448 376 395T234 341ZM234 423Q283 423 312 454T341 536Q341 586 312 616T234 647Q185 647 156 616T127
535Q127 486 156 455T234 423Z" />
<glyph unicode="&#xb1;" glyph-name="plusminus" horiz-adv-x="450" d="M267 401V243H184V401H30V478H184V633H267V478H420V401H267ZM30 139V216H420V139H30Z" />
<glyph unicode="&#xb2;" glyph-name="uni00B2" horiz-adv-x="324" d="M29 332V415L57 447Q93 489 111 514T136 554T143 581Q143 598 126 605T89 613Q61 613 42 606L29 695Q77 715 141 715Q205 715 247 690T290 615Q290 547 229 483L175 427H294V332H29Z" />
<glyph unicode="&#xb3;" glyph-name="uni00B3" horiz-adv-x="313" d="M10 344L25 426Q41 421 62 418T104 416T137 426T150 450Q150 474 132 480T70 487H61V562H68Q109 562 126 568T142 594Q143 608 131 614T100 622T64 622T35 614L20 697Q58 711 105 714T195 709T266
677T294 618Q294 543 218 523V521Q255 509 277 490T299 433Q299 391 271 366T197 331T102 325T10 344Z" />
<glyph unicode="&#xb4;" glyph-name="acute" horiz-adv-x="281" d="M71 755H261L171 620H20L71 755Z" />
<glyph unicode="&#xb5;" glyph-name="uni00B5" horiz-adv-x="524" d="M40 -150V575H220V193Q220 132 269 132Q288 132 304 143V575H484V0H331L318 39Q300 16 281 3T241 -10Q230 -10 220 -7V-150H40Z" />
<glyph unicode="&#xb6;" glyph-name="paragraph" horiz-adv-x="580" d="M242 227Q135 227 85 283T35 473Q35 607 86 663T242 720H580L525 583V0H420V634H391V0H286V227H242Z" />
<glyph unicode="&#xb7;" glyph-name="middot" horiz-adv-x="300" d="M62 403H238V238H62V403Z" />
<glyph unicode="&#xb8;" glyph-name="cedilla" horiz-adv-x="236" d="M205 16Q211 -6 213 -24T216 -58Q216 -115 181 -137T97 -160Q81 -160 62 -159T20 -154V-72Q30 -73 41 -75T62 -77Q106 -77 106 -27Q106 -9 100 16H205Z" />
<glyph unicode="&#xb9;" glyph-name="uni00B9" horiz-adv-x="280" d="M15 665L138 710H235V332H94V566L28 545L15 665Z" />
<glyph unicode="&#xba;" glyph-name="ordmasculine" horiz-adv-x="383" d="M353 498Q353 424 337 382T285 322T191 304Q133 304 98 321T46 381T29 498Q29 573 45 615T97 675T191 693Q249 693 284 676T336 616T353 498ZM157 499Q157 442 165 421T191 400Q209 400
217 421T225 499Q225 555 217 576T191 597Q173 597 165 576T157 499Z" />
<glyph unicode="&#xbb;" glyph-name="guillemotright" horiz-adv-x="549" d="M243 59L373 259L243 459H399L529 264V254L399 59H243ZM40 59L170 259L40 459H196L326 264V254L196 59H40Z" />
<glyph unicode="&#xbc;" glyph-name="onequarter" horiz-adv-x="770" d="M15 665L138 710H235V332H94V566L28 545L15 665ZM575 748L649 693L188 4L114 59L575 748ZM718 360V151H765L750 48H718V0H587V48H428V137Q446 202 471 263T540 378L718 360ZM587 151V180L593
281L568 225Q559 205 555 188T547 151H587Z" />
<glyph unicode="&#xbd;" glyph-name="onehalf" horiz-adv-x="765" d="M15 665L138 710H235V332H94V566L28 545L15 665ZM575 748L649 693L188 4L114 59L575 748ZM470 0V83L498 115Q534 157 552 182T577 222T584 249Q584 266 567 273T530 281Q502 281 483 274L470
363Q518 383 582 383Q646 383 688 358T731 283Q731 215 670 151L616 95H735V0H470Z" />
<glyph unicode="&#xbe;" glyph-name="threequarters" horiz-adv-x="770" d="M10 344L25 426Q41 421 62 418T104 416T137 426T150 450Q150 474 132 480T70 487H61V562H68Q109 562 126 568T142 594Q143 608 131 614T100 622T64 622T35 614L20 697Q58 711 105 714T195
709T266 677T294 618Q294 543 218 523V521Q255 509 277 490T299 433Q299 391 271 366T197 331T102 325T10 344ZM608 748L682 693L221 4L147 59L608 748ZM718 360V151H765L750 48H718V0H587V48H428V137Q446 202 471 263T540 378L718 360ZM587 151V180L593 281L568
225Q559 205 555 188T547 151H587Z" />
<glyph unicode="&#xbf;" glyph-name="questiondown" horiz-adv-x="441" d="M379 405V159H369Q338 159 308 153T257 129T236 79Q236 50 263 30T341 9Q365 9 382 10T413 14L431 -145Q397 -152 362 -155T277 -159Q211 -159 154 -138T61 -70T25 54Q25 140 69 202T199
279V405H379ZM379 629V493H199V629H379Z" />
<glyph unicode="&#xc0;" glyph-name="Agrave" horiz-adv-x="590" d="M233 97L214 0H5L149 630L126 728H428L585 0H378L359 97H233ZM253 252H338L296 514L253 252ZM333 891L378 771H227L147 891H333Z" />
<glyph unicode="&#xc1;" glyph-name="Aacute" horiz-adv-x="590" d="M233 97L214 0H5L149 630L126 728H428L585 0H378L359 97H233ZM253 252H338L296 514L253 252ZM262 891H448L368 771H217L262 891Z" />
<glyph unicode="&#xc2;" glyph-name="Acircumflex" horiz-adv-x="590" d="M233 97L214 0H5L149 630L126 728H428L585 0H378L359 97H233ZM253 252H338L296 514L253 252ZM126 771L234 891H356L464 771H340L295 812L250 771H126Z" />
<glyph unicode="&#xc3;" glyph-name="Atilde" horiz-adv-x="590" d="M233 97L214 0H5L149 630L126 728H428L585 0H378L359 97H233ZM253 252H338L296 514L253 252ZM438 909Q440 899 441 889T443 868Q443 825 420 796T348 766Q328 766 310 775T278 792T253 801Q240
801 235 793T230 774H159Q157 785 156 795T154 815Q154 859 177 888T249 917Q269 917 287 909T319 891T344 882Q358 882 362 890T367 909H438Z" />
<glyph unicode="&#xc4;" glyph-name="Adieresis" horiz-adv-x="590" d="M233 97L214 0H5L149 630L126 728H428L585 0H378L359 97H233ZM253 252H338L296 514L253 252ZM113 913H273V777H113V913ZM317 913H477V777H317V913Z" />
<glyph unicode="&#xc5;" glyph-name="Aring" horiz-adv-x="590" d="M233 97L214 0H5L149 630L126 728H428L585 0H378L359 97H233ZM253 252H338L296 514L253 252ZM417 847Q417 806 388 787T296 768Q232 768 203 787T173 847Q173 892 202 911T296 931Q359 931 388
912T417 847ZM268 848Q268 831 276 825T296 818Q305 818 314 824T323 848Q323 868 314 874T296 880Q285 880 277 874T268 848Z" />
<glyph unicode="&#xc6;" glyph-name="AE" horiz-adv-x="753" d="M6 0L210 615L182 720H731L701 560H522V450H689L659 290H522V160H738L708 0H327V97H221L196 0H6ZM260 252H327V519H325L260 252Z" />
<glyph unicode="&#xc7;" glyph-name="Ccedilla" horiz-adv-x="505" d="M20 355Q20 497 53 578T152 694T318 728Q350 728 391 725T472 712V448H351L335 569Q308 569 289 563T256 535T237 471T230 356Q230 278 247 234T298 171T387 152Q411 152 433 155T480 162V4Q451
-3 410 -6T337 -10Q166 -10 93 82T20 355ZM348 16Q354 -6 356 -24T359 -58Q359 -115 324 -137T240 -160Q224 -160 205 -159T163 -154V-72Q173 -73 184 -75T205 -77Q249 -77 249 -27Q249 -9 243 16H348Z" />
<glyph unicode="&#xc8;" glyph-name="Egrave" horiz-adv-x="501" d="M0 720H479L449 560H250V450H437L407 290H250V160H486L456 0H55V583L0 720ZM297 891L342 771H191L111 891H297Z" />
<glyph unicode="&#xc9;" glyph-name="Eacute" horiz-adv-x="501" d="M0 720H479L449 560H250V450H437L407 290H250V160H486L456 0H55V583L0 720ZM226 891H412L332 771H181L226 891Z" />
<glyph unicode="&#xca;" glyph-name="Ecircumflex" horiz-adv-x="501" d="M0 720H479L449 560H250V450H437L407 290H250V160H486L456 0H55V583L0 720ZM90 771L198 891H320L428 771H304L259 812L214 771H90Z" />
<glyph unicode="&#xcb;" glyph-name="Edieresis" horiz-adv-x="501" d="M0 720H479L449 560H250V450H437L407 290H250V160H486L456 0H55V583L0 720ZM77 913H237V777H77V913ZM281 913H441V777H281V913Z" />
<glyph unicode="&#xcc;" glyph-name="Igrave" horiz-adv-x="285" d="M45 720H240V0H45V720ZM180 891L225 771H74L-6 891H180Z" />
<glyph unicode="&#xcd;" glyph-name="Iacute" horiz-adv-x="285" d="M45 720H240V0H45V720ZM109 891H295L215 771H64L109 891Z" />
<glyph unicode="&#xce;" glyph-name="Icircumflex" horiz-adv-x="285" d="M45 720H240V0H45V720ZM-27 771L81 891H203L311 771H187L142 812L97 771H-27Z" />
<glyph unicode="&#xcf;" glyph-name="Idieresis" horiz-adv-x="285" d="M45 720H240V0H45V720ZM-40 913H120V777H-40V913ZM164 913H324V777H164V913Z" />
<glyph unicode="&#xd0;" glyph-name="Eth" horiz-adv-x="600" d="M13 323V406H55V583L0 720H293Q396 720 459 689T551 582T580 374Q580 232 551 150T459 34T293 0H55V323H13ZM281 160Q313 160 332 179T361 245T370 374Q370 449 362 489T335 545T281 560H250V406H319V323H250V160H281Z"
/>
<glyph unicode="&#xd1;" glyph-name="Ntilde" horiz-adv-x="638" d="M262 720L403 309V720H593V0H359L231 374V0H41V617L0 720H262ZM482 909Q484 899 485 889T487 868Q487 825 464 796T392 766Q372 766 354 775T322 792T297 801Q284 801 279 793T274 774H203Q201
785 200 795T198 815Q198 859 221 888T293 917Q313 917 331 909T363 891T388 882Q402 882 406 890T411 909H482Z" />
<glyph unicode="&#xd2;" glyph-name="Ograve" horiz-adv-x="586" d="M293 -10Q195 -10 135 23T48 137T20 359Q20 500 47 580T135 694T293 728Q391 728 451 695T538 581T566 359Q566 218 539 138T451 24T293 -10ZM356 361Q356 447 351 492T332 555T293 573Q269
573 255 556T236 493T230 361Q230 276 235 229T255 164T293 145Q318 145 331 163T350 229T356 361ZM331 891L376 771H225L145 891H331Z" />
<glyph unicode="&#xd3;" glyph-name="Oacute" horiz-adv-x="586" d="M293 -10Q195 -10 135 23T48 137T20 359Q20 500 47 580T135 694T293 728Q391 728 451 695T538 581T566 359Q566 218 539 138T451 24T293 -10ZM356 361Q356 447 351 492T332 555T293 573Q269
573 255 556T236 493T230 361Q230 276 235 229T255 164T293 145Q318 145 331 163T350 229T356 361ZM260 891H446L366 771H215L260 891Z" />
<glyph unicode="&#xd4;" glyph-name="Ocircumflex" horiz-adv-x="586" d="M293 -10Q195 -10 135 23T48 137T20 359Q20 500 47 580T135 694T293 728Q391 728 451 695T538 581T566 359Q566 218 539 138T451 24T293 -10ZM356 361Q356 447 351 492T332 555T293 573Q269
573 255 556T236 493T230 361Q230 276 235 229T255 164T293 145Q318 145 331 163T350 229T356 361ZM124 771L232 891H354L462 771H338L293 812L248 771H124Z" />
<glyph unicode="&#xd5;" glyph-name="Otilde" horiz-adv-x="586" d="M293 -10Q195 -10 135 23T48 137T20 359Q20 500 47 580T135 694T293 728Q391 728 451 695T538 581T566 359Q566 218 539 138T451 24T293 -10ZM356 361Q356 447 351 492T332 555T293 573Q269
573 255 556T236 493T230 361Q230 276 235 229T255 164T293 145Q318 145 331 163T350 229T356 361ZM436 909Q438 899 439 889T441 868Q441 825 418 796T346 766Q326 766 308 775T276 792T251 801Q238 801 233 793T228 774H157Q155 785 154 795T152 815Q152 859
175 888T247 917Q267 917 285 909T317 891T342 882Q356 882 360 890T365 909H436Z" />
<glyph unicode="&#xd6;" glyph-name="Odieresis" horiz-adv-x="586" d="M293 -10Q195 -10 135 23T48 137T20 359Q20 500 47 580T135 694T293 728Q391 728 451 695T538 581T566 359Q566 218 539 138T451 24T293 -10ZM356 361Q356 447 351 492T332 555T293 573Q269
573 255 556T236 493T230 361Q230 276 235 229T255 164T293 145Q318 145 331 163T350 229T356 361ZM111 913H271V777H111V913ZM315 913H475V777H315V913Z" />
<glyph unicode="&#xd7;" glyph-name="multiply" horiz-adv-x="450" d="M281 382L389 273L330 214L222 323L113 214L59 268L168 377L58 487L117 546L226 436L335 544L389 490L281 382Z" />
<glyph unicode="&#xd8;" glyph-name="Oslash" horiz-adv-x="586" d="M293 -10Q247 -10 210 -3T143 19L103 -48L29 -5L77 77Q20 160 20 359Q20 500 47 580T135 694T293 728Q340 728 378 721T446 698L486 765L559 721L510 639Q566 556 566 359Q566 218 539 138T451
24T293 -10ZM230 361Q230 345 230 332L342 535Q334 557 323 565T293 573Q269 573 255 556T236 493T230 361ZM356 361Q356 373 356 383L246 181Q253 161 264 153T293 145Q318 145 331 163T350 229T356 361Z" />
<glyph unicode="&#xd9;" glyph-name="Ugrave" horiz-adv-x="570" d="M235 245Q235 192 247 169T285 145Q312 145 323 168T335 245V720H530V254Q530 115 470 53T285 -10Q161 -10 101 52T40 254V720H235V245ZM323 891L368 771H217L137 891H323Z" />
<glyph unicode="&#xda;" glyph-name="Uacute" horiz-adv-x="570" d="M235 245Q235 192 247 169T285 145Q312 145 323 168T335 245V720H530V254Q530 115 470 53T285 -10Q161 -10 101 52T40 254V720H235V245ZM252 891H438L358 771H207L252 891Z" />
<glyph unicode="&#xdb;" glyph-name="Ucircumflex" horiz-adv-x="570" d="M235 245Q235 192 247 169T285 145Q312 145 323 168T335 245V720H530V254Q530 115 470 53T285 -10Q161 -10 101 52T40 254V720H235V245ZM116 771L224 891H346L454 771H330L285 812L240 771H116Z" />
<glyph unicode="&#xdc;" glyph-name="Udieresis" horiz-adv-x="570" d="M235 245Q235 192 247 169T285 145Q312 145 323 168T335 245V720H530V254Q530 115 470 53T285 -10Q161 -10 101 52T40 254V720H235V245ZM103 913H263V777H103V913ZM307 913H467V777H307V913Z" />
<glyph unicode="&#xdd;" glyph-name="Yacute" horiz-adv-x="570" d="M187 220L5 720H215L273 508L289 420H291L307 508L365 720H565L382 220V0H187V220ZM252 891H438L358 771H207L252 891Z" />
<glyph unicode="&#xde;" glyph-name="Thorn" horiz-adv-x="559" d="M45 0V721H239V631H279Q369 631 427 607T515 525T544 367Q544 229 479 168T279 106H241V0H45ZM240 249Q288 249 311 275T335 368Q335 419 327 445T298 480T240 490V249Z" />
<glyph unicode="&#xdf;" glyph-name="germandbls" horiz-adv-x="670" d="M266 418Q266 455 280 477T316 512T359 535Q384 547 402 559T420 595Q420 619 394 629T319 640Q264 640 242 617T220 546V0H40V560Q40 662 104 712T324 763Q475 763 542 721T609 593Q609
546 590 518T543 475T491 449Q472 441 460 434T447 417Q447 400 472 384L560 327Q608 296 629 261T650 169Q650 80 599 36T432 -10Q381 -10 339 -5T261 10L276 146Q276 146 313 141T411 135Q466 135 466 168Q466 185 441 201L355 257Q308 288 287 324T266 418Z"
/>
<glyph unicode="&#xe0;" glyph-name="agrave" horiz-adv-x="495" d="M174 -10Q134 -10 99 10T42 70T20 164Q20 250 80 294T237 338H280V393Q280 422 260 432T209 443Q171 443 136 436T66 416V556Q111 566 159 574T257 583Q312 583 358 570T432 521T460 421V0H304L292
43Q267 16 236 3T174 -10ZM244 122Q264 122 280 140V239H267Q237 239 216 225T195 181Q195 153 210 138T244 122ZM361 620H210L120 755H310L361 620Z" />
<glyph unicode="&#xe1;" glyph-name="aacute" horiz-adv-x="495" d="M174 -10Q134 -10 99 10T42 70T20 164Q20 250 80 294T237 338H280V393Q280 422 260 432T209 443Q171 443 136 436T66 416V556Q111 566 159 574T257 583Q312 583 358 570T432 521T460 421V0H304L292
43Q267 16 236 3T174 -10ZM244 122Q264 122 280 140V239H267Q237 239 216 225T195 181Q195 153 210 138T244 122ZM223 755H413L323 620H172L223 755Z" />
<glyph unicode="&#xe2;" glyph-name="acircumflex" horiz-adv-x="495" d="M174 -10Q134 -10 99 10T42 70T20 164Q20 250 80 294T237 338H280V393Q280 422 260 432T209 443Q171 443 136 436T66 416V556Q111 566 159 574T257 583Q312 583 358 570T432 521T460 421V0H304L292
43Q267 16 236 3T174 -10ZM244 122Q264 122 280 140V239H267Q237 239 216 225T195 181Q195 153 210 138T244 122ZM197 769H319L428 620H297L258 667L219 620H88L197 769Z" />
<glyph unicode="&#xe3;" glyph-name="atilde" horiz-adv-x="495" d="M174 -10Q134 -10 99 10T42 70T20 164Q20 250 80 294T237 338H280V393Q280 422 260 432T209 443Q171 443 136 436T66 416V556Q111 566 159 574T257 583Q312 583 358 570T432 521T460 421V0H304L292
43Q267 16 236 3T174 -10ZM244 122Q264 122 280 140V239H267Q237 239 216 225T195 181Q195 153 210 138T244 122ZM398 760Q400 750 401 740T403 719Q403 676 380 647T308 617Q288 617 270 626T238 643T213 652Q200 652 195 644T190 625H119Q117 636 116 646T114
666Q114 710 137 739T209 768Q229 768 247 760T279 742T304 733Q318 733 322 741T327 760H398Z" />
<glyph unicode="&#xe4;" glyph-name="adieresis" horiz-adv-x="495" d="M174 -10Q134 -10 99 10T42 70T20 164Q20 250 80 294T237 338H280V393Q280 422 260 432T209 443Q171 443 136 436T66 416V556Q111 566 159 574T257 583Q312 583 358 570T432 521T460 421V0H304L292
43Q267 16 236 3T174 -10ZM244 122Q264 122 280 140V239H267Q237 239 216 225T195 181Q195 153 210 138T244 122ZM76 755H236V619H76V755ZM280 755H440V619H280V755Z" />
<glyph unicode="&#xe5;" glyph-name="aring" horiz-adv-x="495" d="M174 -10Q134 -10 99 10T42 70T20 164Q20 250 80 294T237 338H280V393Q280 422 260 432T209 443Q171 443 136 436T66 416V556Q111 566 159 574T257 583Q312 583 358 570T432 521T460 421V0H304L292
43Q267 16 236 3T174 -10ZM244 122Q264 122 280 140V239H267Q237 239 216 225T195 181Q195 153 210 138T244 122ZM395 702Q395 655 363 634T259 612Q186 612 153 633T120 702Q120 752 153 774T259 796Q330 796 362 774T395 702ZM226 703Q226 684 236 677T259 669Q270
669 280 676T290 703Q290 724 280 731T259 739Q246 739 236 732T226 703Z" />
<glyph unicode="&#xe6;" glyph-name="ae" horiz-adv-x="723" d="M174 -10Q134 -10 99 10T42 70T20 164Q20 250 80 294T237 338H280V393Q280 422 258 432T205 443Q167 443 134 436T66 416V556Q111 566 159 574T257 583Q294 583 327 577T387 557Q436 583 499 583Q566
583 607 562T670 506T700 429T708 343Q708 315 705 286T697 232H460Q466 177 491 154T581 130Q603 130 628 133T683 143V7Q637 -2 588 -6T492 -7T403 14T331 69Q300 30 257 10T174 -10ZM507 451Q485 451 474 423T459 343H542Q543 364 541 389T531 433T507 451ZM244
122Q264 122 280 140V239H267Q237 239 216 225T195 181Q195 153 210 138T244 122Z" />
<glyph unicode="&#xe7;" glyph-name="ccedilla" horiz-adv-x="445" d="M273 -10Q219 -10 173 4T93 51T39 142T20 288Q20 374 42 431T104 521T192 568T295 583Q330 583 359 578T419 563V338H316L296 442Q251 442 229 408T206 286Q206 223 222 189T267 143T336 134T423
150V8Q392 -1 350 -5T273 -10ZM323 16Q329 -6 331 -24T334 -58Q334 -115 299 -137T215 -160Q199 -160 180 -159T138 -154V-72Q148 -73 159 -75T180 -77Q224 -77 224 -27Q224 -9 218 16H323Z" />
<glyph unicode="&#xe8;" glyph-name="egrave" horiz-adv-x="474" d="M284 -10Q225 -10 177 3T93 49T39 140T20 288Q20 434 74 508T250 583Q360 583 409 523T459 343Q459 315 457 286T450 232H211Q217 171 245 151T339 130Q362 130 386 134T434 143V7Q399 0 361
-5T284 -10ZM257 451Q217 451 210 343H292Q292 365 291 390T282 433T257 451ZM353 620H202L112 755H302L353 620Z" />
<glyph unicode="&#xe9;" glyph-name="eacute" horiz-adv-x="474" d="M284 -10Q225 -10 177 3T93 49T39 140T20 288Q20 434 74 508T250 583Q360 583 409 523T459 343Q459 315 457 286T450 232H211Q217 171 245 151T339 130Q362 130 386 134T434 143V7Q399 0 361
-5T284 -10ZM257 451Q217 451 210 343H292Q292 365 291 390T282 433T257 451ZM215 755H405L315 620H164L215 755Z" />
<glyph unicode="&#xea;" glyph-name="ecircumflex" horiz-adv-x="474" d="M284 -10Q225 -10 177 3T93 49T39 140T20 288Q20 434 74 508T250 583Q360 583 409 523T459 343Q459 315 457 286T450 232H211Q217 171 245 151T339 130Q362 130 386 134T434 143V7Q399
0 361 -5T284 -10ZM257 451Q217 451 210 343H292Q292 365 291 390T282 433T257 451ZM189 769H311L420 620H289L250 667L211 620H80L189 769Z" />
<glyph unicode="&#xeb;" glyph-name="edieresis" horiz-adv-x="474" d="M284 -10Q225 -10 177 3T93 49T39 140T20 288Q20 434 74 508T250 583Q360 583 409 523T459 343Q459 315 457 286T450 232H211Q217 171 245 151T339 130Q362 130 386 134T434 143V7Q399 0
361 -5T284 -10ZM257 451Q217 451 210 343H292Q292 365 291 390T282 433T257 451ZM68 755H228V619H68V755ZM272 755H432V619H272V755Z" />
<glyph unicode="&#xec;" glyph-name="igrave" horiz-adv-x="260" d="M40 575H220V0H40V575ZM233 620H82L-8 755H182L233 620Z" />
<glyph unicode="&#xed;" glyph-name="iacute" horiz-adv-x="260" d="M40 575H220V0H40V575ZM95 755H285L195 620H44L95 755Z" />
<glyph unicode="&#xee;" glyph-name="icircumflex" horiz-adv-x="260" d="M40 575H220V0H40V575ZM69 769H191L300 620H169L130 667L91 620H-40L69 769Z" />
<glyph unicode="&#xef;" glyph-name="idieresis" horiz-adv-x="260" d="M40 575H220V0H40V575ZM-52 755H108V619H-52V755ZM152 755H312V619H152V755Z" />
<glyph unicode="&#xf0;" glyph-name="eth" horiz-adv-x="534" d="M20 259Q20 334 49 389T129 476T244 512Q218 540 181 567T93 621L186 763Q221 745 251 727T308 690L375 763L467 680L402 610Q453 557 477 506T507 408T514 321Q514 204 492 131T414 24T257 -10Q130
-10 75 56T20 259ZM329 282Q329 308 327 337T313 398Q253 391 231 353T208 261Q208 227 212 198T228 150T267 131Q296 131 312 170T329 282Z" />
<glyph unicode="&#xf1;" glyph-name="ntilde" horiz-adv-x="529" d="M206 536Q265 583 334 583Q403 583 448 540T494 411V0H314V382Q314 443 259 443Q237 443 220 432V0H40V575H193L206 536ZM410 760Q412 750 413 740T415 719Q415 676 392 647T320 617Q300 617
282 626T250 643T225 652Q212 652 207 644T202 625H131Q129 636 128 646T126 666Q126 710 149 739T221 768Q241 768 259 760T291 742T316 733Q330 733 334 741T339 760H410Z" />
<glyph unicode="&#xf2;" glyph-name="ograve" horiz-adv-x="534" d="M267 -10Q178 -10 124 20T45 115T20 287Q20 393 44 458T123 553T267 583Q357 583 411 553T489 458T514 287Q514 181 490 116T411 20T267 -10ZM266 131Q300 131 314 167T328 286Q328 369 314
405T266 442Q233 442 220 406T206 286Q206 204 219 168T266 131ZM370 620H219L129 755H319L370 620Z" />
<glyph unicode="&#xf3;" glyph-name="oacute" horiz-adv-x="534" d="M267 -10Q178 -10 124 20T45 115T20 287Q20 393 44 458T123 553T267 583Q357 583 411 553T489 458T514 287Q514 181 490 116T411 20T267 -10ZM266 131Q300 131 314 167T328 286Q328 369 314
405T266 442Q233 442 220 406T206 286Q206 204 219 168T266 131ZM232 755H422L332 620H181L232 755Z" />
<glyph unicode="&#xf4;" glyph-name="ocircumflex" horiz-adv-x="534" d="M267 -10Q178 -10 124 20T45 115T20 287Q20 393 44 458T123 553T267 583Q357 583 411 553T489 458T514 287Q514 181 490 116T411 20T267 -10ZM266 131Q300 131 314 167T328 286Q328 369
314 405T266 442Q233 442 220 406T206 286Q206 204 219 168T266 131ZM206 769H328L437 620H306L267 667L228 620H97L206 769Z" />
<glyph unicode="&#xf5;" glyph-name="otilde" horiz-adv-x="534" d="M267 -10Q178 -10 124 20T45 115T20 287Q20 393 44 458T123 553T267 583Q357 583 411 553T489 458T514 287Q514 181 490 116T411 20T267 -10ZM266 131Q300 131 314 167T328 286Q328 369 314
405T266 442Q233 442 220 406T206 286Q206 204 219 168T266 131ZM407 760Q409 750 410 740T412 719Q412 676 389 647T317 617Q297 617 279 626T247 643T222 652Q209 652 204 644T199 625H128Q126 636 125 646T123 666Q123 710 146 739T218 768Q238 768 256 760T288
742T313 733Q327 733 331 741T336 760H407Z" />
<glyph unicode="&#xf6;" glyph-name="odieresis" horiz-adv-x="534" d="M267 -10Q178 -10 124 20T45 115T20 287Q20 393 44 458T123 553T267 583Q357 583 411 553T489 458T514 287Q514 181 490 116T411 20T267 -10ZM266 131Q300 131 314 167T328 286Q328 369 314
405T266 442Q233 442 220 406T206 286Q206 204 219 168T266 131ZM85 755H245V619H85V755ZM289 755H449V619H289V755Z" />
<glyph unicode="&#xf7;" glyph-name="divide" horiz-adv-x="450" d="M155 598H294V482H155V598ZM30 341V418H420V341H30ZM155 265H294V149H155V265Z" />
<glyph unicode="&#xf8;" glyph-name="oslash" horiz-adv-x="534" d="M108 -85L36 -44L88 47Q52 82 36 141T20 287Q20 393 44 458T123 553T267 583Q334 583 381 567L425 645L496 604L450 522Q484 487 499 429T514 287Q514 181 490 116T411 20T267 -10Q203 -10 158
5L108 -85ZM206 286Q206 268 207 253L295 433Q284 442 266 442Q233 442 220 406T206 286ZM266 131Q300 131 314 167T328 286Q328 300 328 312L241 138Q252 131 266 131Z" />
<glyph unicode="&#xf9;" glyph-name="ugrave" horiz-adv-x="519" d="M313 39Q285 16 253 3T189 -10Q123 -10 79 33T35 162V575H215V193Q215 132 264 132Q283 132 299 143V575H479V0H326L313 39ZM360 620H209L119 755H309L360 620Z" />
<glyph unicode="&#xfa;" glyph-name="uacute" horiz-adv-x="519" d="M313 39Q285 16 253 3T189 -10Q123 -10 79 33T35 162V575H215V193Q215 132 264 132Q283 132 299 143V575H479V0H326L313 39ZM222 755H412L322 620H171L222 755Z" />
<glyph unicode="&#xfb;" glyph-name="ucircumflex" horiz-adv-x="519" d="M313 39Q285 16 253 3T189 -10Q123 -10 79 33T35 162V575H215V193Q215 132 264 132Q283 132 299 143V575H479V0H326L313 39ZM196 769H318L427 620H296L257 667L218 620H87L196 769Z" />
<glyph unicode="&#xfc;" glyph-name="udieresis" horiz-adv-x="519" d="M313 39Q285 16 253 3T189 -10Q123 -10 79 33T35 162V575H215V193Q215 132 264 132Q283 132 299 143V575H479V0H326L313 39ZM75 755H235V619H75V755ZM279 755H439V619H279V755Z" />
<glyph unicode="&#xfd;" glyph-name="yacute" horiz-adv-x="491" d="M339 0L311 -126L135 -150L163 0H139L5 575H190L248 194H250L306 575H486L339 0ZM213 755H403L313 620H162L213 755Z" />
<glyph unicode="&#xfe;" glyph-name="thorn" horiz-adv-x="538" d="M220 755V541Q242 561 271 572T334 583Q389 583 424 560T480 495T509 403T518 294Q518 130 467 60T318 -10Q274 -10 220 8V-124L40 -150V731L220 755ZM220 136Q243 130 261 130Q307 130 319 172T332
299Q332 378 320 410T275 443Q265 443 251 439T220 426V136Z" />
<glyph unicode="&#xff;" glyph-name="ydieresis" horiz-adv-x="491" d="M339 0L311 -126L135 -150L163 0H139L5 575H190L248 194H250L306 575H486L339 0ZM66 755H226V619H66V755ZM270 755H430V619H270V755Z" />
<glyph unicode="&#x2013;" glyph-name="endash" horiz-adv-x="450" d="M440 398V279H10V398H440Z" />
<glyph unicode="&#x2014;" glyph-name="emdash" horiz-adv-x="675" d="M625 398V279H50V398H625Z" />
<glyph unicode="&#x2018;" glyph-name="quoteleft" horiz-adv-x="257" d="M45 737L237 763V458H152Q45 458 45 558V737Z" />
<glyph unicode="&#x2019;" glyph-name="quoteright" horiz-adv-x="257" d="M212 484L20 458V763H105Q212 763 212 663V484Z" />
<glyph unicode="&#x201a;" glyph-name="quotesinglbase" horiz-adv-x="257" d="M212 -134L20 -160V145H105Q212 145 212 45V-134Z" />
<glyph unicode="&#x201c;" glyph-name="quotedblleft" horiz-adv-x="488" d="M45 737L237 763V458H152Q45 458 45 558V737ZM276 737L468 763V458H383Q276 458 276 558V737Z" />
<glyph unicode="&#x201d;" glyph-name="quotedblright" horiz-adv-x="488" d="M443 484L251 458V763H336Q443 763 443 663V484ZM212 484L20 458V763H105Q212 763 212 663V484Z" />
<glyph unicode="&#x201e;" glyph-name="quotedblbase" horiz-adv-x="488" d="M443 -134L251 -160V145H336Q443 145 443 45V-134ZM212 -134L20 -160V145H105Q212 145 212 45V-134Z" />
<glyph unicode="&#x2022;" glyph-name="bullet" horiz-adv-x="400" d="M199 174Q126 174 91 212T55 319Q55 387 90 426T199 465Q271 465 308 426T345 319Q345 251 308 213T199 174Z" />
<glyph unicode="&#x2039;" glyph-name="guilsinglleft" horiz-adv-x="346" d="M306 59H150L20 254V264L150 459H306L176 259L306 59Z" />
<glyph unicode="&#x203a;" glyph-name="guilsinglright" horiz-adv-x="346" d="M40 59L170 259L40 459H196L326 264V254L196 59H40Z" />
</font>
</defs>
</svg>
