<?xml version="1.0" standalone="no"?>
<!DOCTYPE svg PUBLIC "-//W3C//DTD SVG 1.1//EN" "http://www.w3.org/Graphics/SVG/1.1/DTD/svg11.dtd">
<svg xmlns="http://www.w3.org/2000/svg">
<defs >
<font id="DenkOne" horiz-adv-x="1050" ><font-face
    font-family="Denk One"
    units-per-em="2048"
    panose-1="2 0 5 6 6 0 0 2 0 4"
    ascent="2118"
    descent="-442"
    alphabetic="0" />
<glyph unicode=" " glyph-name="space" horiz-adv-x="500" />
<glyph unicode="!" glyph-name="exclam" horiz-adv-x="620" d="M310 600Q217 600 195 611T170 669L126 1640Q125 1675 137 1693T190 1717T310 1724Q390 1724 429 1718T482 1693T494 1640L450 669Q449 623 426 612T310 600ZM310 0Q213 0 188 10T160 57L148 252Q145
295 173 310T310 325Q419 325 446 310T472 252L461 57Q459 20 434 10T310 0Z" />
<glyph unicode="&quot;" glyph-name="quotedbl" horiz-adv-x="976" d="M249 1016Q180 1016 163 1027T141 1085L101 1640Q100 1693 127 1708T249 1724Q343 1724 371 1709T397 1640L357 1085Q353 1039 336 1028T249 1016ZM727 1016Q658 1016 641 1027T619 1085L579
1640Q578 1693 605 1708T727 1724Q821 1724 849 1709T875 1640L835 1085Q831 1039 814 1028T727 1016Z" />
<glyph unicode="#" glyph-name="numbersign" horiz-adv-x="1319" d="M283 -1Q217 0 204 10T197 57L243 341H132Q80 341 70 360T60 429Q60 485 70 506T132 527H274L326 849H214Q162 849 152 868T142 937Q142 993 152 1014T214 1035H356L405 1333Q415 1360 425 1375T464
1398T553 1404Q639 1403 662 1389T677 1334L612 1035H830L879 1333Q886 1375 910 1390T1027 1404Q1113 1403 1136 1389T1151 1334L1086 1035H1187Q1240 1035 1249 1014T1259 936Q1259 887 1250 868T1187 849H1046L976 527H1079Q1132 527 1141 506T1151 428Q1151
379 1142 360T1079 341H936L872 48Q859 14 835 6T757 -1Q691 0 678 10T671 57L717 341H462L398 48Q385 14 361 6T283 -1ZM502 527H748L800 849H572L502 527Z" />
<glyph unicode="$" glyph-name="dollar" horiz-adv-x="1170" d="M603 -239Q552 -240 536 -230T518 -183L513 -8Q319 10 235 98T147 305L144 415Q143 476 169 491T286 507Q378 507 412 492T445 415L441 296Q438 212 475 182T601 151Q692 151 728 181T763 296L762
361Q761 431 747 476T667 549L320 697Q205 747 165 824T120 1026L110 1365Q106 1499 196 1588T489 1696L485 1873Q484 1915 505 1929T602 1944Q678 1944 699 1930T719 1874L716 1695Q909 1673 995 1585T1078 1365L1068 965Q1067 904 1032 889T904 873Q810 873 776
888T739 965L727 1396Q725 1484 692 1506T594 1529Q530 1529 497 1507T461 1396L450 997Q449 922 471 880T558 810L882 674Q953 645 993 608T1048 512T1059 357L1057 301Q1053 184 969 97T693 -8L688 -182Q687 -219 671 -229T603 -239Z" />
<glyph unicode="%" glyph-name="percent" horiz-adv-x="1698" d="M435 -1Q369 0 351 11T349 57L1080 1628Q1090 1655 1101 1670T1142 1693T1232 1699Q1318 1698 1342 1683T1352 1629L550 48Q537 14 513 6T435 -1ZM424 940Q343 940 270 958T149 1020T96 1142L80
1463Q75 1548 122 1600T251 1675T424 1699Q516 1699 595 1676T723 1600T766 1463L752 1142Q748 1064 700 1020T579 958T424 940ZM424 1070Q473 1070 504 1095T533 1183L524 1463Q521 1521 497 1540T424 1559Q375 1559 351 1540T323 1463L314 1183Q311 1119 342
1095T424 1070ZM1274 0Q1193 0 1120 18T999 79T946 202L930 523Q925 608 972 660T1101 735T1274 759Q1366 759 1445 736T1573 660T1616 523L1602 202Q1598 123 1550 80T1429 18T1274 0ZM1274 130Q1323 130 1354 154T1383 243L1374 523Q1371 581 1347 600T1274 619Q1225
619 1201 600T1173 523L1164 243Q1161 179 1192 155T1274 130Z" />
<glyph unicode="&amp;" glyph-name="ampersand" horiz-adv-x="1237" d="M589 -12Q424 -12 330 28T195 134T152 278L145 427Q142 498 164 543T232 622T344 694V702Q213 758 174 828T132 981L121 1402Q119 1485 161 1541T274 1632T428 1681T589 1696Q667 1696 749
1681T902 1632T1015 1542T1055 1402L1041 1044Q1039 983 1008 968T889 952Q801 952 768 967T732 1044L719 1384Q716 1462 687 1489T589 1517Q519 1517 490 1490T457 1384L443 929Q440 845 475 814T587 783H1132Q1185 783 1195 764T1205 695Q1205 646 1196 627T1133
607H1027L1024 278Q1022 200 982 134T847 28T589 -12ZM589 161Q675 161 715 194T753 307L744 607H589Q508 607 470 583T429 481L423 307Q421 227 461 194T587 161H589Z" />
<glyph unicode="&apos;" glyph-name="quotesingle" horiz-adv-x="498" d="M249 1016Q180 1016 163 1027T141 1085L101 1640Q100 1693 127 1708T249 1724Q343 1724 371 1709T397 1640L357 1085Q353 1039 336 1028T249 1016Z" />
<glyph unicode="(" glyph-name="parenleft" horiz-adv-x="687" d="M529 -291Q339 -291 232 -155T119 244L101 1324Q97 1513 162 1641T335 1834T566 1900H607Q649 1900 658 1886T667 1817Q667 1756 655 1743T608 1729Q475 1730 418 1660T357 1426L344 150Q341 -11
400 -75T579 -140Q611 -140 624 -152T638 -218Q638 -266 628 -278T578 -291H529Z" />
<glyph unicode=")" glyph-name="parenright" horiz-adv-x="687" d="M158 -291H109Q70 -291 60 -279T49 -218Q49 -164 62 -152T108 -140Q227 -140 286 -76T343 150L330 1426Q327 1589 270 1659T79 1729Q44 1729 32 1742T20 1817Q20 1872 29 1886T80 1900H121Q244
1900 351 1835T524 1641T586 1324L568 244Q564 -18 456 -154T158 -291Z" />
<glyph unicode="*" glyph-name="asterisk" horiz-adv-x="1018" d="M396 1112Q374 1082 353 1087T290 1123Q248 1153 241 1172T255 1223L357 1361L181 1405Q141 1416 130 1437T141 1530Q163 1601 184 1617T246 1619L405 1558L394 1802Q392 1845 414 1860T511 1875Q587
1875 608 1861T628 1803L617 1560L771 1619Q812 1633 833 1617T876 1530Q898 1458 888 1437T836 1405L662 1362L765 1222Q787 1191 780 1172T730 1123Q689 1093 668 1088T624 1112L510 1274L396 1112Z" />
<glyph unicode="+" glyph-name="plus" horiz-adv-x="978" d="M493 324Q432 324 410 334T387 396L378 664H112Q61 664 51 683T40 760Q40 825 50 845T112 866H371L361 1150Q361 1203 391 1212T494 1222Q561 1222 588 1213T615 1150L605 866H866Q917 866 927 845T938
759Q938 701 928 683T866 664H598L589 396Q588 344 569 334T493 324Z" />
<glyph unicode="," glyph-name="comma" horiz-adv-x="619" d="M276 -313Q237 -313 217 -307T196 -278Q196 -261 202 -234T219 -166L261 8H203Q167 8 157 24T144 65L136 252Q134 281 145 296T197 318T318 325Q395 325 432 319T480 297T490 252L482 89Q481 58 477
41T464 0L377 -237Q357 -288 341 -300T276 -313Z" />
<glyph unicode="-" glyph-name="hyphen" horiz-adv-x="849" d="M196 490Q144 490 134 512T124 588Q124 648 134 672T196 696H652Q705 696 714 672T724 587Q724 533 715 512T652 490H196Z" />
<glyph unicode="." glyph-name="period" horiz-adv-x="600" d="M300 0Q203 0 178 10T150 57L138 252Q135 295 163 310T300 325Q409 325 436 310T462 252L451 57Q449 20 424 10T300 0Z" />
<glyph unicode="/" glyph-name="slash" horiz-adv-x="964" d="M174 -1Q108 0 90 11T88 57L616 1686Q625 1713 636 1728T674 1751T758 1757Q844 1756 868 1741T878 1687L289 48Q276 14 252 6T174 -1Z" />
<glyph unicode="0" glyph-name="zero" horiz-adv-x="1171" d="M585 -12Q384 -12 269 65T150 273L121 1389Q117 1539 242 1620T585 1701Q803 1701 928 1620T1050 1389L1021 273Q1017 143 902 66T585 -12ZM585 159Q673 159 711 193T748 312L718 1389Q716 1476 683
1498T585 1521Q521 1521 488 1499T453 1389L423 312Q421 228 459 194T585 159Z" />
<glyph unicode="1" glyph-name="one" horiz-adv-x="684" d="M391 0Q312 0 290 11T266 68L245 1278H236L98 1143Q65 1110 39 1110Q26 1110 14 1120T1 1172V1344Q1 1390 11 1414T46 1464L238 1665Q264 1690 391 1690Q498 1690 540 1675T580 1607L536 68Q535 22 503
11T391 0Z" />
<glyph unicode="2" glyph-name="two" horiz-adv-x="1170" d="M228 0Q185 0 171 13T156 67V97Q156 132 164 153T188 194L648 813Q693 867 711 908T728 1027L717 1389Q715 1476 682 1498T584 1521Q520 1521 487 1499T452 1389L440 965Q439 904 406 889T283 873Q195
873 164 888T131 965L101 1381Q97 1531 224 1616T584 1701Q811 1701 937 1616T1059 1381L1037 955Q1036 887 1010 834T925 720L468 194V186H949Q1002 186 1011 163T1021 101Q1021 46 1012 23T949 0H228Z" />
<glyph unicode="3" glyph-name="three" horiz-adv-x="1176" d="M587 -12Q424 -12 330 28T195 134T152 278L148 415Q147 476 174 491T287 507Q368 507 398 492T426 415L423 307Q421 227 461 194T587 161H589Q675 161 715 194T753 307L747 536Q746 614 707 637T587
661H531Q479 661 469 681T459 750Q459 799 469 818T532 838H589Q666 838 701 869T733 984L719 1389Q716 1467 687 1494T587 1522Q519 1522 489 1495T457 1389L444 1044Q443 983 410 968T287 952Q199 952 168 967T135 1044L113 1407Q111 1490 155 1546T270 1637T425
1686T587 1701Q665 1701 748 1686T903 1637T1017 1547T1058 1407L1044 1036Q1042 981 1026 932T965 838T832 757V749Q899 711 944 677T1011 598T1031 482L1024 278Q1022 200 982 134T848 28T587 -12Z" />
<glyph unicode="4" glyph-name="four" horiz-adv-x="1009" d="M124 365Q94 365 53 380T11 427V460Q11 490 21 518T41 577L371 1596Q391 1658 431 1674T570 1690Q689 1690 729 1665T748 1589L334 561H630L620 917Q619 969 657 984T789 1000Q860 1000 892 995T931
971T938 917L914 68Q913 22 881 11T769 0Q690 0 668 11T644 68L636 365H154V365Q140 365 124 365Z" />
<glyph unicode="5" glyph-name="five" horiz-adv-x="1115" d="M551 -12Q355 -12 243 65T126 273L122 417Q121 469 145 484T262 500Q362 500 388 485T412 417L409 312Q407 228 440 194T551 159Q628 159 662 193T694 312L680 818Q678 902 644 931T531 961H327Q306
960 275 960Q182 960 160 971T135 1028L111 1607Q110 1659 142 1674T275 1690H276V1690H917Q970 1690 979 1668T989 1579Q989 1513 980 1491T917 1468H434L420 1147H735Q772 1147 820 1135T913 1094T987 1015T1014 890L977 273Q973 143 861 66T551 -12Z" />
<glyph unicode="6" glyph-name="six" horiz-adv-x="1159" d="M585 -12Q384 -12 269 65T150 273L111 1378Q107 1528 235 1609T586 1690H925Q987 1690 1000 1671T1014 1577Q1014 1517 1002 1493T954 1469H585Q521 1469 488 1447T452 1337L446 1111Q487 1123 537
1131T649 1139Q704 1139 773 1127T905 1086T1009 1007T1048 882L1021 273Q1017 143 902 66T585 -12ZM585 159Q673 159 711 193T748 312L734 810Q732 894 698 924T585 955Q548 955 513 951T442 932L423 312Q421 228 459 194T585 159Z" />
<glyph unicode="7" glyph-name="seven" horiz-adv-x="1029" d="M362 0Q283 0 255 11T237 68L637 1485L329 1484L303 1271Q302 1234 281 1224T182 1214Q91 1214 67 1224T42 1271L30 1617Q29 1658 54 1673T182 1690H936Q989 1690 998 1671T1008 1592Q1009 1561 1007
1543T1003 1516L487 68Q472 30 451 15T362 0Z" />
<glyph unicode="8" glyph-name="eight" horiz-adv-x="1176" d="M587 -12Q424 -12 330 28T195 134T152 278L145 482Q143 553 165 598T232 677T344 749V757Q213 813 174 883T132 1036L111 1407Q109 1490 152 1546T268 1637T424 1686T587 1701Q667 1701 751 1686T908
1637T1023 1547T1065 1407L1044 1036Q1043 954 1003 884T832 757V749Q899 711 944 677T1011 598T1031 482L1024 278Q1022 200 982 134T848 28T587 -12ZM589 837Q666 837 701 868T733 984L719 1389Q716 1467 687 1494T587 1522Q519 1522 490 1495T457 1389L443 984Q440
900 475 869T589 837ZM587 161H589Q675 161 715 194T753 307L747 536Q746 614 707 637T587 661Q508 661 470 638T429 536L423 307Q421 227 461 194T587 161Z" />
<glyph unicode="9" glyph-name="nine" horiz-adv-x="1166" d="M300 0Q259 0 240 3T216 25T211 94Q211 154 223 170T271 186H560Q656 186 694 224T732 353V582Q694 570 649 561T525 551Q470 551 403 562T273 602T169 679T126 803L101 1407Q99 1490 142 1546T258
1637T414 1686T577 1701Q657 1701 741 1686T898 1637T1014 1547T1055 1407L1004 290Q1002 212 962 146T826 40T559 0H300ZM579 727Q616 727 653 732T726 751L709 1389Q707 1467 677 1494T577 1522Q509 1522 480 1495T447 1389L433 874Q430 790 465 759T579 727Z"
/>
<glyph unicode=":" glyph-name="colon" horiz-adv-x="596" d="M298 843Q194 843 163 853T130 900L121 1128Q118 1171 150 1186T298 1201Q414 1201 445 1186T475 1128L466 900Q464 863 433 853T298 843ZM300 0Q203 0 178 10T150 57L138 252Q135 295 163 310T300
325Q409 325 436 310T462 252L451 57Q449 20 424 10T300 0Z" />
<glyph unicode=";" glyph-name="semicolon" horiz-adv-x="596" d="M298 843Q194 843 163 853T130 900L121 1128Q118 1171 150 1186T298 1201Q414 1201 445 1186T475 1128L466 900Q464 863 433 853T298 843ZM276 -313Q237 -313 217 -307T196 -278Q196 -261 202
-234T219 -166L261 8H203Q167 8 157 24T144 65L136 252Q134 281 145 296T197 318T318 325Q395 325 432 319T480 297T490 252L482 89Q481 58 477 41T464 0L377 -237Q357 -288 341 -300T276 -313Z" />
<glyph unicode="&lt;" glyph-name="less" horiz-adv-x="802" d="M604 242Q558 242 527 248T458 288L100 597Q77 617 69 633T60 665Q60 691 94 733L401 1099Q436 1140 469 1150T579 1161Q662 1161 692 1152T722 1118Q722 1094 676 1040L323 665L648 363Q676 337
695 318T715 282Q715 257 695 250T604 242Z" />
<glyph unicode="=" glyph-name="equal" horiz-adv-x="938" d="M132 831Q81 831 71 852T60 931Q60 996 70 1018T132 1041H806Q857 1041 867 1018T878 930Q878 872 868 852T806 831H132ZM132 428Q81 428 71 449T60 528Q60 593 70 615T132 638H806Q857 638 867 615T878
527Q878 469 868 449T806 428H132Z" />
<glyph unicode="&gt;" glyph-name="greater" horiz-adv-x="802" d="M198 242Q127 242 107 249T87 282Q87 298 106 317T154 363L479 665L126 1040Q80 1094 80 1118Q80 1143 110 1152T223 1161Q300 1161 333 1151T401 1099L708 733Q742 691 742 665Q742 649 734
633T702 597L344 288Q306 255 275 249T198 242Z" />
<glyph unicode="?" glyph-name="question" horiz-adv-x="1170" d="M596 462Q527 462 503 472T478 534L468 622Q467 658 472 681T497 721L637 840Q680 879 700 908T725 975T728 1079L717 1378Q715 1467 682 1490T584 1513Q520 1513 487 1490T452 1378L440 1028Q439
966 406 950T283 934Q195 934 164 950T131 1028L121 1370Q117 1523 234 1610T584 1697Q811 1697 932 1610T1049 1370L1037 1056Q1036 987 1013 942T925 841L724 668L714 534Q711 482 688 472T596 462ZM595 0Q498 0 473 10T445 57L433 252Q430 295 458 310T595 325Q704
325 731 310T757 252L746 57Q744 20 719 10T595 0Z" />
<glyph unicode="@" glyph-name="at" horiz-adv-x="2089" d="M944 -15Q870 -15 804 10T695 102T650 288L637 857Q633 1002 712 1083T931 1164Q1013 1164 1065 1137T1149 1078V1080Q1148 1123 1177 1138T1302 1153Q1398 1153 1428 1138T1456 1080L1430 144H1595Q1644
144 1671 175T1697 282L1689 1054Q1687 1214 1602 1306T1373 1437T1051 1476Q874 1476 730 1437T501 1306T414 1054L406 132Q405 12 451 -69T578 -200T761 -270T972 -292H1242Q1287 -292 1295 -307T1304 -361Q1304 -406 1296 -424T1242 -442H972Q810 -442 671 -411T426
-312T260 -135T198 132L190 1078Q188 1232 257 1344T448 1530T724 1640T1051 1676Q1222 1676 1378 1640T1655 1531T1845 1345T1913 1078L1905 282Q1901 119 1823 60T1606 0H1348Q1291 0 1249 18T1196 96Q1145 47 1082 16T944 -15ZM910 288Q908 209 946 180T1042
151Q1088 151 1121 169T1175 210L1153 947Q1133 966 1105 981T1047 997Q929 997 926 857L910 288Z" />
<glyph unicode="A" glyph-name="A" horiz-adv-x="1079" d="M152 0Q74 0 44 12T23 78L288 1605Q294 1643 311 1662T379 1689T540 1696Q649 1696 700 1689T768 1663T791 1605L1056 78Q1065 25 1036 13T927 0Q864 0 833 4T789 26T771 78L730 317H349L308 78Q302 43
290 26T247 5T152 0ZM535 1394L382 507H697L544 1394H535Z" />
<glyph unicode="B" glyph-name="B" horiz-adv-x="1140" d="M307 0Q215 0 193 11T168 68L125 1607Q124 1642 136 1659T188 1683T307 1690Q321 1690 332 1690V1690H560Q697 1690 806 1657T979 1552T1040 1364L1034 1087Q1032 1003 983 917T810 784Q908 745 965 673T1018
494L1012 317Q1010 241 969 168T831 48T568 0H325V0Q317 0 307 0ZM528 1517H486L468 872H539Q635 872 670 903T702 1019L688 1396Q685 1473 655 1495T528 1517ZM544 697H463L448 163H554Q651 163 685 195T718 311L712 571Q711 649 676 673T544 697Z" />
<glyph unicode="C" glyph-name="C" horiz-adv-x="1198" d="M604 -12Q443 -12 343 31T197 146T148 305L120 1365Q116 1515 230 1608T604 1701Q863 1701 977 1608T1088 1365L1076 879Q1075 818 1040 803T912 787Q818 787 785 802T749 879L736 1396Q734 1484 701
1506T604 1529Q540 1529 507 1507T472 1396L443 296Q441 212 478 182T604 151Q693 151 730 181T765 296L761 415Q759 476 793 491T920 507Q1011 507 1037 492T1062 415L1059 303Q1057 216 1011 145T865 31T604 -12Z" />
<glyph unicode="D" glyph-name="D" horiz-adv-x="1222" d="M280 0V0Q206 1 188 13T168 68L125 1607Q124 1642 136 1659T187 1683T304 1690V1690H599Q868 1690 985 1599T1098 1334L1069 324Q1065 174 954 87T602 0H280ZM617 1517H486L448 163H612Q707 163 742 195T776
311L747 1382Q745 1469 713 1493T617 1517Z" />
<glyph unicode="E" glyph-name="E" horiz-adv-x="901" d="M307 0Q215 0 193 11T168 68L125 1607Q124 1659 147 1674T237 1690Q275 1690 347 1690T503 1690T659 1689T770 1689Q823 1689 832 1670T841 1591Q841 1530 832 1512T770 1493H486L468 879H709Q761 879
770 861T780 784Q780 726 771 708T709 689H463L449 186H733Q785 186 794 167T804 93Q804 39 795 20T733 0H307Z" />
<glyph unicode="F" glyph-name="F" horiz-adv-x="901" d="M307 0Q215 0 193 11T168 68L125 1607Q124 1659 149 1674T257 1690Q300 1690 375 1690T532 1690T680 1689T770 1689Q823 1689 832 1670T841 1591Q841 1530 832 1512T770 1493H486L468 879H709Q761 879
770 861T780 784Q780 726 771 708T709 689H463L445 63Q444 24 422 12T307 0Z" />
<glyph unicode="G" glyph-name="G" horiz-adv-x="1145" d="M589 -12Q435 -12 340 31T200 146T153 305L125 1357Q123 1454 172 1529T332 1647T625 1690H923Q969 1690 987 1683T1008 1651T1012 1578Q1012 1518 1000 1502T952 1486H624Q550 1486 515 1465T477 1355L447
296Q445 212 478 182T589 151Q667 151 700 181T731 296L713 938Q712 999 746 1014T885 1030Q955 1030 989 1024T1033 999T1043 938L1025 303Q1023 216 979 145T839 31T589 -12Z" />
<glyph unicode="H" glyph-name="H" horiz-adv-x="1231" d="M307 0Q215 0 193 11T168 68L125 1607Q124 1642 136 1659T188 1683T307 1690Q386 1690 425 1684T477 1660T489 1607L468 879H762L742 1607Q741 1642 753 1659T805 1683T924 1690Q1003 1690 1042 1684T1094
1660T1106 1607L1062 68Q1061 22 1039 11T924 0Q832 0 810 11T785 68L768 689H463L445 68Q444 22 422 11T307 0Z" />
<glyph unicode="I" glyph-name="I" horiz-adv-x="614" d="M307 0Q215 0 193 11T168 68L125 1607Q124 1642 136 1659T188 1683T307 1690Q386 1690 425 1684T477 1660T489 1607L445 68Q444 22 422 11T307 0Z" />
<glyph unicode="J" glyph-name="J" horiz-adv-x="1015" d="M460 -12Q320 -12 233 30T105 144T61 303L50 696Q49 757 80 772T204 788Q308 788 338 773T367 696L358 296Q356 212 379 182T460 151Q518 151 541 181T562 296L526 1607Q525 1642 537 1659T589 1683T708
1690Q787 1690 826 1684T878 1660T890 1607L854 305Q852 218 812 146T687 31T460 -12Z" />
<glyph unicode="K" glyph-name="K" horiz-adv-x="1100" d="M934 0Q864 0 843 15T800 80L528 719L711 1600Q720 1639 736 1658T788 1683T894 1690Q981 1690 1023 1680T1066 1632Q1066 1607 1062 1590T1049 1545L804 719L1031 142Q1045 106 1052 84T1060 45Q1060
21 1039 11T934 0ZM307 0Q215 0 193 11T168 68L125 1607Q124 1642 136 1659T188 1683T307 1690Q386 1690 425 1684T477 1660T489 1607L445 68Q444 22 422 11T307 0Z" />
<glyph unicode="L" glyph-name="L" horiz-adv-x="820" d="M307 0Q215 0 193 11T168 68L125 1607Q124 1642 136 1659T188 1683T307 1690Q386 1690 425 1684T477 1660T489 1607L449 186H709Q761 186 770 167T780 93Q780 39 771 20T709 0H307Z" />
<glyph unicode="M" glyph-name="M" horiz-adv-x="1546" d="M297 0Q212 0 191 11T168 68L125 1607Q124 1659 160 1674T307 1690Q407 1690 446 1679T496 1635L774 785H785L1059 1635Q1068 1668 1106 1679T1238 1690Q1356 1690 1389 1675T1421 1607L1377 68Q1376
22 1355 11T1248 0Q1163 0 1142 11T1120 68L1127 1145H1114L884 346Q872 308 853 297T766 286Q706 286 690 297T661 346L434 1145H421L426 68Q425 22 404 11T297 0Z" />
<glyph unicode="N" glyph-name="N" horiz-adv-x="1234" d="M304 0Q215 0 193 11T168 68L125 1607Q124 1659 151 1674T283 1690Q359 1690 391 1682T432 1646V1646L806 627H814L767 1607Q765 1659 794 1674T930 1690Q1009 1690 1047 1684T1098 1660T1109 1607L1065
98Q1064 52 1045 26T946 0Q908 0 884 5T850 30L847 28L442 1063H431L423 68Q422 22 403 11T304 0Z" />
<glyph unicode="O" glyph-name="O" horiz-adv-x="1212" d="M606 -12Q445 -12 345 31T199 146T150 305L122 1365Q118 1515 232 1608T606 1701Q865 1701 979 1608T1090 1365L1061 305Q1059 218 1013 146T867 31T606 -12ZM606 151Q695 151 732 181T767 296L738 1396Q736
1484 703 1506T606 1529Q542 1529 509 1507T474 1396L445 296Q443 212 480 182T606 151Z" />
<glyph unicode="P" glyph-name="P" horiz-adv-x="1126" d="M307 0Q215 0 193 11T168 68L125 1607Q124 1642 136 1659T188 1683T307 1690Q321 1690 332 1690V1690H560Q697 1690 807 1657T980 1552T1040 1364L1027 889Q1025 813 984 740T847 618T583 570H459L445
68Q444 22 422 11T307 0ZM528 1517H486L464 733H539Q635 733 669 765T702 881L688 1396Q686 1473 655 1495T528 1517Z" />
<glyph unicode="Q" glyph-name="Q" horiz-adv-x="1208" d="M604 -12Q443 -12 343 31T197 146T148 305L120 1365Q116 1515 230 1608T604 1701Q863 1701 977 1608T1088 1365L1059 305Q1057 222 1016 153T883 40L1006 -144Q1030 -179 1045 -202T1060 -241Q1060 -265
1041 -275T939 -286Q888 -286 863 -281T823 -260T783 -212L636 -12Q620 -12 604 -12ZM604 151Q693 151 730 181T765 296L736 1396Q734 1484 701 1506T604 1529Q540 1529 507 1507T472 1396L443 296Q441 212 478 182T604 151Z" />
<glyph unicode="R" glyph-name="R" horiz-adv-x="1140" d="M307 0Q215 0 193 11T168 68L125 1607Q124 1642 136 1659T188 1683T307 1690Q321 1690 332 1690V1690H560Q697 1690 807 1657T980 1552T1040 1364L1027 889Q1025 812 984 738T842 617L1029 142Q1043 106
1050 84T1058 45Q1058 21 1037 11T932 0Q879 0 852 6T809 30T778 80L569 570H459L445 68Q444 22 422 11T307 0ZM528 1517H486L464 733H539Q635 733 669 765T702 881L688 1396Q686 1473 655 1495T528 1517Z" />
<glyph unicode="S" glyph-name="S" horiz-adv-x="1158" d="M601 -12Q440 -12 341 31T195 146T147 305L144 415Q143 476 169 491T286 507Q378 507 412 492T445 415L441 296Q438 212 475 182T601 151Q692 151 728 181T763 296L762 361Q761 431 747 476T667 549L320
697Q205 747 165 824T120 1026L110 1365Q106 1515 220 1608T594 1701Q854 1701 968 1608T1078 1365L1068 965Q1067 904 1032 889T904 873Q810 873 776 888T739 965L727 1396Q725 1484 692 1506T594 1529Q530 1529 497 1507T461 1396L450 997Q449 922 471 880T558
810L882 674Q953 645 993 608T1048 512T1059 357L1057 301Q1054 214 1008 143T862 30T601 -12Z" />
<glyph unicode="T" glyph-name="T" horiz-adv-x="954" d="M477 0Q385 0 363 11T339 68L298 1494H111Q59 1494 50 1512T40 1592Q40 1652 49 1671T111 1690H843Q896 1690 905 1671T915 1592Q915 1531 906 1513T843 1494H656L616 63Q615 24 592 12T477 0Z" />
<glyph unicode="U" glyph-name="U" horiz-adv-x="1201" d="M601 -12Q440 -12 340 31T194 146T146 305L110 1607Q109 1642 121 1659T173 1683T292 1690Q371 1690 410 1684T462 1660T474 1607L440 296Q438 212 475 182T601 151Q690 151 727 181T762 296L727 1607Q726
1642 738 1659T790 1683T909 1690Q988 1690 1027 1684T1079 1660T1091 1607L1056 305Q1054 218 1008 146T862 31T601 -12Z" />
<glyph unicode="V" glyph-name="V" horiz-adv-x="1121" d="M570 0Q496 0 457 4T401 24T375 68L34 1607Q23 1657 58 1673T206 1690Q290 1690 329 1684T381 1659T398 1607L552 399H584L734 1607Q738 1641 750 1659T799 1683T916 1690Q1028 1690 1063 1674T1088 1607L755
68Q744 24 711 12T570 0Z" />
<glyph unicode="W" glyph-name="W" horiz-adv-x="1764" d="M493 0Q393 0 361 12T318 68L53 1607Q41 1657 80 1673T246 1690Q330 1690 370 1684T423 1660T438 1607L501 287H531L726 1607Q731 1641 741 1659T785 1683T888 1690Q963 1690 997 1684T1043 1659T1060
1607L1256 287H1286L1348 1607Q1350 1641 1362 1659T1413 1683T1531 1690Q1650 1690 1685 1674T1713 1607L1448 68Q1438 24 1410 12T1293 0Q1215 0 1173 4T1114 23T1088 68L898 1192H878L688 68Q681 38 664 24T608 5T493 0Z" />
<glyph unicode="X" glyph-name="X" horiz-adv-x="1124" d="M209 0Q133 0 113 14T92 53Q92 68 97 87T114 142L321 790L51 1545Q41 1573 36 1593T30 1632Q30 1670 67 1680T215 1690Q289 1690 325 1686T376 1663T400 1602L552 916H572L723 1602Q733 1645 747 1663T798
1685T908 1690Q1018 1690 1056 1680T1094 1632Q1094 1613 1088 1594T1071 1545L806 790L1013 142Q1035 75 1035 53Q1035 29 1015 15T918 0Q838 0 810 15T764 80L574 632H553L362 80Q345 30 317 15T209 0Z" />
<glyph unicode="Y" glyph-name="Y" horiz-adv-x="1124" d="M562 0Q471 0 449 11T424 68L411 527L51 1541Q42 1568 36 1590T30 1632Q30 1670 67 1680T215 1690Q289 1690 325 1686T377 1663T400 1602L552 820H574L723 1602Q731 1645 745 1663T797 1686T908 1690Q1018
1690 1056 1680T1094 1632Q1094 1613 1087 1591T1071 1541L714 520L701 68Q700 22 677 11T562 0Z" />
<glyph unicode="Z" glyph-name="Z" horiz-adv-x="994" d="M173 0Q121 0 112 19T102 98Q102 125 103 143T109 172L550 1494H131Q79 1494 69 1512T59 1592Q59 1652 69 1671T131 1690H863Q916 1690 925 1671T935 1592Q935 1568 935 1551T930 1523V1523V1522Q929 1520
928 1518L418 196H820Q872 196 881 177T891 98Q891 38 882 19T820 0H173Z" />
<glyph unicode="[" glyph-name="bracketleft" horiz-adv-x="666" d="M274 -294Q219 -294 201 -278T180 -200L126 1758Q124 1823 135 1854T182 1894T285 1902H596Q638 1902 647 1888T656 1818Q656 1757 644 1741T597 1725L408 1724L371 -128H570Q608 -129 616 -144T625
-214Q625 -269 614 -281T564 -294H274Z" />
<glyph unicode="\" glyph-name="backslash" horiz-adv-x="964" d="M790 -1Q737 -2 713 6T675 48L86 1687Q72 1726 96 1741T206 1757Q264 1758 290 1751T328 1729T348 1686L876 57Q892 23 874 12T790 -1Z" />
<glyph unicode="]" glyph-name="bracketright" horiz-adv-x="666" d="M102 -294Q65 -294 53 -282T41 -214Q41 -159 50 -144T96 -128H295L258 1724L69 1725Q34 1725 22 1741T10 1818Q10 1873 19 1887T70 1902H381Q450 1903 484 1894T530 1854T540 1758L486 -200Q485
-261 467 -277T392 -294H102Z" />
<glyph unicode="^" glyph-name="asciicircum" horiz-adv-x="1086" d="M156 323Q98 323 76 339T64 396L365 1595Q378 1642 410 1663T538 1684Q639 1684 673 1663T721 1595L1022 396Q1033 355 1009 339T920 323Q847 323 826 339T792 396L550 1237H526L284 396Q272
355 251 339T156 323Z" />
<glyph unicode="_" glyph-name="underscore" horiz-adv-x="1243" d="M-10 -257V-100H1253V-257H-10Z" />
<glyph unicode="`" glyph-name="grave" horiz-adv-x="200" d="M696 1332Q648 1332 625 1337T589 1354T557 1391L385 1617Q367 1640 355 1659T343 1695Q343 1715 369 1724T477 1734Q560 1734 587 1723T636 1672L743 1472Q763 1435 777 1412T792 1369Q792 1332 696 1332Z" />
<glyph unicode="a" glyph-name="a" horiz-adv-x="1086" d="M394 -12Q254 -12 183 60T110 237L109 291Q108 366 150 417T256 502T386 557Q450 578 520 593T657 619L648 950Q645 1058 540 1058Q489 1058 457 1038T422 951L415 724Q414 687 388 677T264 667Q173 667
149 677T122 724L114 937Q111 1017 154 1070T265 1155T408 1200T543 1214Q658 1214 755 1180T910 1082T965 925L934 57Q933 20 910 10T803 0Q726 0 706 10T683 57L682 92Q628 52 555 20T394 -12ZM383 267Q383 206 416 180T496 154Q554 154 596 173T668 218L661
475Q557 456 493 428Q444 406 414 378T383 306V267Z" />
<glyph unicode="b" glyph-name="b" horiz-adv-x="1082" d="M275 0Q191 0 169 10T145 57L113 1651Q113 1680 123 1695T168 1717T275 1724Q348 1724 382 1718T427 1696T437 1651L427 1100Q460 1137 520 1175T666 1214Q806 1214 891 1121T971 883L953 320Q947 139
872 64T667 -12Q573 -12 506 22T397 95L396 57Q395 20 374 10T275 0ZM549 1007Q515 1007 481 991T424 955L410 218Q432 198 466 183T542 167Q606 167 642 207T677 320L662 883Q661 952 627 979T549 1007Z" />
<glyph unicode="c" glyph-name="c" horiz-adv-x="1062" d="M542 -12Q439 -12 347 14T197 104T134 276L111 910Q107 1017 168 1084T330 1182T541 1214Q655 1214 754 1183T914 1084T971 910L961 599Q960 562 933 552T812 542Q718 542 691 552T663 599L654 927Q652
1012 622 1035T541 1058Q492 1058 461 1035T428 927L408 268Q406 192 438 162T541 132Q611 132 642 160T674 259V290Q674 328 698 341T812 355Q901 355 925 342T949 291V267Q949 162 890 101T738 14T542 -12Z" />
<glyph unicode="d" glyph-name="d" horiz-adv-x="1098" d="M425 -12Q296 -12 221 63T139 320L121 883Q117 1028 202 1121T426 1214Q510 1214 570 1176T664 1101L653 1651Q653 1680 663 1695T708 1717T815 1724Q888 1724 922 1718T967 1696T977 1651L946 57Q945
20 922 10T815 0Q738 0 717 10T695 57V95Q653 57 586 23T425 -12ZM415 320Q413 247 449 207T550 167Q592 167 626 182T682 218L667 956Q643 976 610 991T543 1007Q499 1007 466 980T430 883L415 320Z" />
<glyph unicode="e" glyph-name="e" horiz-adv-x="1059" d="M538 -12Q437 -12 346 14T195 104T131 276L108 910Q104 1017 167 1084T331 1182T543 1214Q649 1214 746 1183T903 1084T958 910L943 541Q942 504 917 494T801 484H412L405 268Q403 192 438 162T537 132Q602
132 631 160T661 259V290Q661 328 685 341T799 355Q888 355 911 342T935 291V247Q935 142 878 86T729 9T538 -12ZM425 927L416 634H661L651 927Q648 1012 618 1035T543 1058Q494 1058 461 1035T425 927Z" />
<glyph unicode="f" glyph-name="f" horiz-adv-x="635" d="M292 0Q208 0 186 10T162 57L144 926H110Q58 926 48 945T38 1026Q38 1082 48 1099T110 1116H140L135 1384Q134 1471 166 1548T267 1675T440 1724H572Q625 1724 634 1707T644 1634Q644 1584 637 1564T590
1544H550Q520 1544 486 1519T450 1413L444 1116H524Q577 1116 586 1099T596 1026Q596 965 587 946T524 926H440L423 57Q422 20 399 10T292 0Z" />
<glyph unicode="g" glyph-name="g" horiz-adv-x="1068" d="M405 -12Q276 -12 201 63T119 320L101 883Q97 1028 182 1121T406 1214Q490 1214 550 1176T644 1102L643 1129Q642 1172 668 1187T797 1202Q899 1202 924 1187T949 1129L923 -131Q920 -294 809 -357T508
-420Q438 -420 397 -416T330 -408Q306 -403 300 -388T293 -324Q293 -274 300 -253T330 -234Q354 -235 391 -240T495 -245Q582 -245 618 -215T653 -108L649 73Q606 40 546 14T405 -12ZM395 320Q393 247 429 207T530 167Q565 167 594 178T646 205L627 971Q605 986
578 996T523 1007Q479 1007 446 980T410 883L395 320Z" />
<glyph unicode="h" glyph-name="h" horiz-adv-x="1080" d="M275 0Q191 0 169 10T145 57L113 1651Q113 1680 123 1695T168 1717T275 1724Q348 1724 382 1718T427 1696T437 1651L426 1082Q479 1140 541 1177T688 1214Q810 1214 891 1128T968 890L944 57Q943 20 920
10T813 0Q729 0 707 10T683 57L660 861Q658 940 627 967T546 994Q506 994 475 970T423 913L406 57Q405 20 382 10T275 0Z" />
<glyph unicode="i" glyph-name="i" horiz-adv-x="566" d="M283 0Q199 0 177 10T153 57L121 1129Q120 1172 147 1187T283 1202Q392 1202 419 1187T445 1129L414 57Q413 20 390 10T283 0ZM539 1360Q442 1360 417 1370T389 1417L377 1612Q374 1655 402 1670T539 1685Q648
1685 675 1670T701 1612L690 1417Q688 1380 663 1370T539 1360Z" />
<glyph unicode="j" glyph-name="j" horiz-adv-x="571" d="M286 1360Q189 1360 164 1370T136 1417L124 1612Q121 1655 149 1670T286 1685Q395 1685 422 1670T448 1612L437 1417Q435 1380 410 1370T286 1360ZM285 -420Q201 -420 179 -410T156 -363L123 1129Q122
1172 149 1187T285 1202Q394 1202 421 1187T447 1129L415 -363Q414 -400 391 -410T285 -420Z" />
<glyph unicode="k" glyph-name="k" horiz-adv-x="1005" d="M293 0Q209 0 187 10T163 57L131 1651Q131 1680 141 1695T186 1717T293 1724Q366 1724 400 1718T445 1696T455 1651L424 57Q423 20 400 10T293 0ZM831 0Q753 0 732 10T695 57L499 542L649 1137Q660 1178
691 1190T825 1202Q918 1202 941 1194T965 1153Q965 1142 961 1128T951 1094L767 542L935 87Q952 41 952 32Q952 12 931 6T831 0Z" />
<glyph unicode="l" glyph-name="l" horiz-adv-x="586" d="M293 0Q209 0 187 10T163 57L131 1651Q131 1680 141 1695T186 1717T293 1724Q366 1724 400 1718T445 1696T455 1651L424 57Q423 20 400 10T293 0Z" />
<glyph unicode="m" glyph-name="m" horiz-adv-x="1630" d="M283 0Q199 0 177 10T153 57L121 1129Q120 1172 145 1187T273 1202Q375 1202 400 1187T425 1129L424 1068Q480 1132 544 1173T698 1214Q783 1214 849 1172T950 1052Q1009 1122 1075 1168T1238 1214Q1360
1214 1441 1128T1518 890L1494 57Q1493 20 1470 10T1363 0Q1279 0 1257 10T1233 57L1210 861Q1208 940 1177 967T1096 994Q1058 994 1029 973T978 921Q978 906 978 890L954 57Q953 20 930 10T823 0Q739 0 717 10T693 57L670 861Q668 940 637 967T556 994Q519 994
490 973T439 923L414 57Q413 20 390 10T283 0Z" />
<glyph unicode="n" glyph-name="n" horiz-adv-x="1090" d="M283 0Q199 0 177 10T153 57L121 1129Q120 1172 145 1187T273 1202Q375 1202 400 1187T425 1129L424 1068Q480 1132 544 1173T698 1214Q820 1214 901 1128T978 890L954 57Q953 20 930 10T823 0Q739 0
717 10T693 57L670 861Q668 940 637 967T556 994Q519 994 490 973T439 923L414 57Q413 20 390 10T283 0Z" />
<glyph unicode="o" glyph-name="o" horiz-adv-x="1078" d="M540 -12Q437 -12 345 14T195 104T132 276L109 910Q105 1017 166 1084T328 1182T539 1214Q650 1214 750 1183T911 1084T969 910L946 277Q942 168 884 105T734 15T540 -12ZM539 132Q609 132 641 162T672
269L652 927Q650 1012 620 1035T539 1058Q490 1058 459 1035T426 927L406 268Q404 192 436 162T539 132Z" />
<glyph unicode="p" glyph-name="p" horiz-adv-x="1087" d="M283 -420Q199 -420 177 -410T154 -363L121 1129Q120 1172 145 1187T273 1202Q375 1202 401 1187T425 1129L424 1094Q472 1142 533 1178T671 1214Q811 1214 896 1121T976 883L958 320Q952 139 877 64T672
-12Q589 -12 527 15T423 77L413 -363Q412 -400 389 -410T283 -420ZM554 1007Q524 1007 495 995T442 966L425 209Q448 192 479 180T547 167Q611 167 647 207T682 320L667 883Q666 952 632 979T554 1007Z" />
<glyph unicode="q" glyph-name="q" horiz-adv-x="1078" d="M415 -12Q286 -12 211 63T129 320L111 883Q107 1028 192 1121T416 1214Q503 1214 564 1174T658 1097V1129Q657 1172 682 1187T810 1202Q912 1202 938 1187T962 1129L930 -363Q929 -400 906 -410T800 -420Q716
-420 694 -410T671 -363L661 75Q619 42 558 15T415 -12ZM405 320Q403 247 439 207T540 167Q576 167 606 178T658 207L641 968Q618 984 590 995T533 1007Q489 1007 456 980T420 883L405 320Z" />
<glyph unicode="r" glyph-name="r" horiz-adv-x="952" d="M283 0Q199 0 177 10T153 57L121 1129Q120 1172 145 1187T273 1202Q375 1202 400 1187T425 1129V1070Q481 1132 545 1173T692 1214Q789 1214 853 1155T912 954L905 724Q904 687 880 677T764 667Q673 667
650 677T626 724L622 861Q620 940 599 967T542 994Q513 994 487 972T439 923L414 57Q413 20 390 10T283 0Z" />
<glyph unicode="s" glyph-name="s" horiz-adv-x="1054" d="M538 -12Q465 -12 393 -1T260 40T163 120T126 250V291Q126 329 150 342T263 355Q352 355 376 342T401 290V241Q401 180 437 156T537 132Q602 132 627 159T653 251V300Q653 350 627 374T546 417L250 521Q180
546 145 603T107 743L101 918Q97 1025 159 1090T321 1184T533 1214Q642 1214 739 1189T897 1102T953 934L945 724Q944 687 919 677T803 667Q706 667 680 677T652 724L645 951Q643 1018 613 1038T533 1058Q484 1058 453 1038T419 952L412 735Q409 639 507 606L759
516Q860 480 896 428T927 281L925 235Q921 143 867 89T725 12T538 -12Z" />
<glyph unicode="t" glyph-name="t" horiz-adv-x="638" d="M319 0Q235 0 213 10T189 57L168 926H112Q60 926 50 945T40 1026Q40 1082 50 1099T112 1116H164L157 1395Q157 1424 167 1439T212 1461T319 1468Q392 1468 426 1462T471 1440T481 1395L475 1116H526Q579
1116 588 1099T598 1026Q598 965 589 946T526 926H470L450 57Q449 20 426 10T319 0Z" />
<glyph unicode="u" glyph-name="u" horiz-adv-x="1086" d="M396 -12Q273 -12 202 59T126 268L101 1129Q101 1158 111 1173T156 1195T263 1202Q336 1202 370 1196T415 1174T425 1129L402 313Q400 226 441 197T530 167Q573 167 607 185T668 227L641 1129Q641 1158
651 1173T696 1195T803 1202Q876 1202 910 1196T955 1174T965 1129L934 57Q933 20 910 10T803 0Q726 0 706 10T683 57L681 104Q638 64 568 26T396 -12Z" />
<glyph unicode="v" glyph-name="v" horiz-adv-x="958" d="M426 0Q348 0 327 10T296 57L24 1129Q13 1170 45 1186T186 1202Q259 1202 291 1196T334 1174T348 1129L467 240H491L610 1129Q614 1158 624 1173T667 1195T772 1202Q881 1202 913 1186T934 1129L662 57Q652
21 631 11T532 0H426Z" />
<glyph unicode="w" glyph-name="w" horiz-adv-x="1509" d="M350 0Q272 0 251 10T220 57L34 1129Q24 1170 54 1186T186 1202Q259 1202 292 1196T336 1174T348 1129L413 240H437L588 1129Q594 1158 606 1173T652 1195T754 1202Q827 1202 861 1196T907 1174T926 1129L1077
240H1101L1166 1129Q1169 1172 1195 1187T1324 1202Q1426 1202 1455 1186T1476 1129L1290 57Q1283 20 1261 10T1160 0H1056Q978 0 956 10T926 57L759 868H749L582 57Q572 21 551 11T452 0H350Z" />
<glyph unicode="x" glyph-name="x" horiz-adv-x="978" d="M202 0Q124 0 103 6T81 32Q81 41 98 87L278 590L58 1094Q51 1112 46 1127T40 1153Q40 1186 68 1194T184 1202Q257 1202 291 1198T339 1181T360 1141L483 719H497L618 1141Q626 1168 639 1181T687 1198T794
1202Q881 1202 909 1194T938 1153Q938 1142 933 1127T920 1094L700 590L880 87Q897 45 897 32Q897 12 876 6T776 0Q698 0 676 10T640 57L497 454H483L338 57Q325 20 303 10T202 0Z" />
<glyph unicode="y" glyph-name="y" horiz-adv-x="958" d="M396 0Q336 0 314 10T282 57L24 1129Q14 1170 45 1186T186 1202Q259 1202 291 1196T334 1174T348 1129L481 240H505L610 1129Q614 1158 624 1173T667 1195T772 1202Q881 1202 912 1187T934 1129L706 119V119L602
-346Q592 -389 570 -404T471 -419Q403 -419 382 -403T369 -346L439 0H396Z" />
<glyph unicode="z" glyph-name="z" horiz-adv-x="823" d="M168 0Q84 0 69 34T72 116L419 992H102Q50 992 40 1011T30 1092Q30 1160 40 1181T102 1202H716Q775 1202 786 1165T781 1081L373 180H690Q743 180 752 163T762 90Q762 35 753 18T690 0H168Z" />
<glyph unicode="{" glyph-name="braceleft" horiz-adv-x="775" d="M610 -294Q418 -294 347 -207T271 46L259 497Q257 572 220 598T120 624H102Q57 624 49 644T40 714Q40 764 48 784T102 804H120Q182 804 215 839T246 954L231 1540Q229 1644 255 1726T356 1855T576
1902H695Q737 1902 746 1888T755 1818Q755 1757 743 1741T696 1725H642Q558 1725 532 1687T503 1540L494 1039Q493 972 484 916T444 811T343 722V714Q410 672 440 634T477 547T483 425L474 46Q472 -42 504 -85T627 -128H669Q707 -129 715 -144T724 -214Q724 -269
713 -281T663 -294H610Z" />
<glyph unicode="|" glyph-name="bar" horiz-adv-x="508" d="M255 -420Q204 -421 188 -411T170 -363L137 1651Q136 1694 157 1709T254 1724Q330 1724 351 1710T371 1652L340 -362Q339 -399 323 -409T255 -420Z" />
<glyph unicode="}" glyph-name="braceright" horiz-adv-x="775" d="M112 -294Q75 -294 63 -282T51 -214Q51 -159 60 -144T106 -128H148Q239 -128 271 -85T301 46L292 425Q291 498 298 546T335 633T432 714V722Q364 763 332 811T291 915T281 1039L272 1540Q270
1648 244 1686T133 1725H79Q44 1725 32 1741T20 1818Q20 1873 29 1887T80 1902H199Q343 1902 418 1855T520 1726T544 1540L529 954Q527 874 560 839T655 804H673Q719 804 727 784T735 714Q735 665 727 645T673 624H655Q592 624 555 598T516 497L504 46Q500 -120
429 -207T165 -294H112Z" />
<glyph unicode="~" glyph-name="asciitilde" horiz-adv-x="1335" d="M223 527Q172 527 151 535T130 565Q130 581 138 599T160 648L313 943Q336 990 364 1000T451 1010H504Q559 1010 580 998T626 960L786 795Q798 782 810 770T833 758Q844 758 854 775T877 817L946
958Q958 982 968 993T1003 1007T1077 1010Q1147 1010 1176 1005T1205 975Q1205 940 1172 883L1018 605Q992 559 966 544T886 528H802Q751 528 724 538T656 590L525 722Q488 758 478 758Q466 758 458 747T433 710L359 580Q345 556 332 545T295 530T223 527Z" />
<glyph unicode="&#xa0;" glyph-name="uni00A0" horiz-adv-x="500" />
<glyph unicode="&#xa1;" glyph-name="exclamdown" horiz-adv-x="620" d="M310 1202Q408 1202 433 1193T460 1145L472 950Q475 907 447 892T310 877Q201 877 174 892T148 950L159 1145Q161 1183 187 1192T310 1202ZM310 602Q403 602 426 591T450 533L494 -438Q495
-473 482 -491T430 -515T310 -522Q230 -522 190 -516T138 -491T126 -438L170 533Q172 580 194 591T310 602Z" />
<glyph unicode="&#xa2;" glyph-name="cent" horiz-adv-x="1062" d="M547 -244Q496 -245 480 -235T462 -187L457 -8Q371 1 299 32T182 122T134 276L111 910Q108 999 151 1060T270 1158T436 1207L429 1457Q428 1500 449 1515T546 1530Q622 1530 643 1516T663 1458L657
1206Q746 1192 818 1156T932 1059T971 910L961 599Q960 562 933 552T812 542Q718 542 691 552T663 599L654 927Q652 1012 622 1035T541 1058Q492 1058 461 1035T428 927L408 268Q406 192 438 162T541 132Q611 132 642 160T674 259V290Q674 328 698 341T812 355Q901
355 925 342T949 291V267Q949 178 906 121T792 34T637 -7L632 -186Q631 -223 615 -233T547 -244Z" />
<glyph unicode="&#xa3;" glyph-name="sterling" horiz-adv-x="1215" d="M186 -1Q134 -1 124 20T114 95Q114 155 124 178T186 201H246Q254 227 258 260T262 339L257 480H176Q124 480 114 501T104 576Q104 637 114 659T176 682H249L224 1376Q219 1526 338 1611T679
1696Q907 1696 1021 1611T1132 1376L1122 960Q1121 899 1090 884T970 868Q882 868 849 883T813 960L801 1384Q799 1471 769 1493T679 1516Q619 1516 589 1494T556 1384L530 682H776Q829 682 838 659T848 575Q848 521 839 501T776 480H523L520 406Q515 338 503 289T475
201H1024Q1077 201 1086 178T1096 94Q1096 40 1087 20T1024 -1H186Z" />
<glyph unicode="&#xa4;" glyph-name="currency" horiz-adv-x="1360" d="M258 159Q199 159 181 166T162 199Q162 215 175 233T209 280L340 456Q315 495 314 544L308 805Q307 858 337 901L173 1089Q148 1118 138 1134T128 1167Q128 1192 158 1201T271 1210Q323 1210
350 1207T393 1190T429 1148L525 1008Q599 1026 682 1026Q762 1026 833 1009L929 1148Q949 1177 965 1190T1008 1206T1087 1210Q1170 1210 1200 1201T1230 1167Q1230 1151 1221 1135T1185 1089L1022 902Q1051 859 1050 807L1044 546Q1043 497 1018 457L1149 281Q1170
253 1183 235T1196 200Q1196 175 1178 168T1100 160Q1060 160 1032 164T974 206L855 349Q776 326 679 326Q583 326 504 349L384 205Q353 168 326 164T258 159ZM679 485Q747 487 799 514T850 612L845 745Q844 798 818 823T755 856T679 864Q641 864 604 856T541 822T513
743L508 610Q506 540 559 513T679 485Z" />
<glyph unicode="&#xa5;" glyph-name="yen" horiz-adv-x="1135" d="M230 307Q178 307 168 325T158 393Q158 442 168 460T230 479H418L415 630L404 658H214Q162 658 152 676T142 744Q142 798 152 819T214 840H331L52 1541Q42 1568 36 1590T30 1632Q30 1670 66 1680T213
1690Q288 1690 325 1686T377 1663T400 1602L568 835H569L735 1602Q744 1645 759 1663T811 1686T922 1690Q1033 1690 1069 1680T1105 1632Q1105 1613 1098 1591T1082 1541L806 840H949Q1002 840 1011 819T1021 743Q1021 694 1012 676T949 658H735L721 623L718 479H932Q985
479 994 461T1004 392Q1004 343 995 325T932 307H714L708 68Q707 22 684 11T568 0Q475 0 453 11T428 68L422 307H230Z" />
<glyph unicode="&#xa6;" glyph-name="brokenbar" horiz-adv-x="508" d="M255 820Q192 820 171 830T149 878L137 1651Q136 1694 157 1709T254 1724Q330 1724 351 1710T371 1652L359 878Q358 841 338 831T255 820ZM255 -420Q204 -420 184 -410T163 -363L154 324Q153
373 173 385T254 397Q316 397 336 386T355 325L347 -362Q346 -399 326 -409T255 -420Z" />
<glyph unicode="&#xa7;" glyph-name="section" horiz-adv-x="1347" d="M660 -420Q562 -420 471 -395T321 -315T262 -168V-117Q262 -61 286 -42T399 -23Q488 -23 512 -42T537 -118V-177Q537 -232 568 -254T675 -276Q746 -276 774 -249T803 -157V-81Q803 -27 789
0T742 44T652 86L415 172Q350 197 312 224T256 297T238 425V589Q238 647 273 691T362 767T474 819L398 852Q292 898 254 953T212 1102L201 1436Q199 1512 252 1577T413 1682T675 1723Q904 1723 1030 1638T1146 1403L1125 1066Q1121 1005 1086 990T958 974Q881 974
850 988T816 1059L801 1410Q797 1498 769 1520T675 1543Q611 1543 577 1521T541 1410L530 1079Q528 1015 547 982T626 921L927 786Q1006 752 1053 703T1101 545V387Q1101 308 1033 249T869 158L954 118Q1027 80 1051 39T1075 -75V-132Q1075 -231 1020 -295T870
-389T660 -420ZM602 278L706 243Q759 249 788 277T818 361V526Q818 576 807 609T727 668L613 716Q575 711 548 685T520 604L519 400Q519 351 536 323T602 278Z" />
<glyph unicode="&#xa8;" glyph-name="dieresis" horiz-adv-x="200" d="M796 1377Q712 1377 691 1387T666 1434L654 1605Q651 1648 676 1663T796 1678Q891 1678 916 1663T938 1605L927 1434Q925 1397 903 1387T796 1377ZM366 1377Q282 1377 261 1387T236 1434L224
1605Q221 1648 246 1663T366 1678Q461 1678 486 1663T508 1605L497 1434Q495 1397 473 1387T366 1377Z" />
<glyph unicode="&#xa9;" glyph-name="copyright" horiz-adv-x="1865" d="M932 71Q770 71 631 101T386 199T221 376T159 643L151 1299Q149 1453 211 1565T384 1751T635 1861T932 1897Q1088 1897 1229 1861T1481 1752T1653 1566T1714 1299L1706 643Q1704 486 1645
377T1480 200T1234 102T932 71ZM932 221Q1042 221 1144 242T1326 312T1453 442T1498 643L1490 1275Q1488 1435 1413 1527T1212 1658T932 1697Q779 1697 653 1658T452 1527T375 1275L367 643Q366 523 412 442T538 313T721 243T932 221ZM933 442Q758 442 682 498T603
633L586 1235Q584 1324 666 1384T933 1444Q1118 1444 1200 1384T1280 1235L1273 968Q1272 931 1244 922T1145 913Q1072 913 1046 922T1019 968L1010 1222Q1009 1274 990 1287T933 1301Q895 1301 876 1288T856 1222L837 652Q836 601 858 582T933 563Q986 563 1008
582T1028 652L1026 688Q1025 726 1051 735T1151 745Q1225 745 1245 736T1265 688L1263 631Q1262 554 1185 498T933 442Z" />
<glyph unicode="&#xaa;" glyph-name="ordfeminine" horiz-adv-x="957" d="M319 672Q213 672 172 728T130 858V890Q130 942 165 979T248 1040T331 1076Q392 1094 451 1104T562 1119L555 1317Q554 1361 538 1376T483 1392Q448 1392 428 1379T406 1318L401 1213Q400
1187 378 1176T274 1165Q194 1165 173 1176T149 1212L143 1336Q140 1392 174 1429T264 1489T379 1520T487 1530Q644 1530 736 1477T826 1327L801 720Q800 694 780 687T685 680Q619 680 602 687T583 720L582 747Q535 720 468 696T319 672ZM385 894Q385 860 404 842T453
823Q485 823 515 831T571 849L566 1004Q545 1001 524 998T483 989Q430 975 408 952T385 894Z" />
<glyph unicode="&#xab;" glyph-name="guillemotleft" horiz-adv-x="1210" d="M1019 170Q976 170 944 176T883 216L624 525Q605 548 599 562T592 593Q592 609 598 621T619 661L808 1027Q831 1074 869 1081T989 1089Q1069 1089 1099 1080T1130 1046Q1130 1030 1123
1015T1096 968L855 593L1084 291Q1107 260 1118 243T1130 210Q1130 185 1110 178T1019 170ZM477 170Q434 170 401 176T341 216L82 525Q63 548 57 562T50 593Q50 609 56 621T77 661L266 1027Q290 1074 328 1081T447 1089Q527 1089 557 1080T588 1046Q588 1030 581
1015T554 968L313 593L542 291Q565 260 576 243T588 210Q588 185 568 178T477 170Z" />
<glyph unicode="&#xac;" glyph-name="logicalnot" horiz-adv-x="939" d="M112 660Q61 660 51 681T40 760Q40 825 50 847T112 870H786Q837 870 847 847T858 759H859L856 369Q855 332 835 322T764 311Q713 311 693 321T672 368L669 660H112Z" />
<glyph unicode="&#xad;" glyph-name="uni00AD" horiz-adv-x="849" d="M196 480Q144 480 134 503T124 588Q124 656 134 681T196 706H652Q705 706 714 681T724 587Q724 526 715 503T652 480H196Z" />
<glyph unicode="&#xae;" glyph-name="registered" horiz-adv-x="1865" d="M932 71Q770 71 631 101T386 199T221 376T159 643L151 1299Q149 1453 211 1565T384 1751T635 1861T932 1897Q1088 1897 1229 1861T1481 1752T1653 1566T1714 1299L1706 643Q1704 486 1645
377T1480 200T1234 102T932 71ZM932 221Q1042 221 1144 242T1326 312T1453 442T1498 643L1490 1275Q1488 1435 1413 1527T1212 1658T932 1697Q779 1697 653 1658T452 1527T375 1275L367 643Q366 523 412 442T538 313T721 243T932 221ZM731 450Q662 450 639 460T615
508L593 1367Q592 1410 617 1424T730 1438H1012Q1145 1438 1219 1378T1288 1171L1282 1002Q1280 936 1249 882T1138 805L1263 542Q1282 503 1282 485Q1282 471 1264 461T1183 451Q1133 451 1112 460T1074 498L909 791H852L845 508Q844 471 822 461T731 450ZM925
1301H865L855 903H936Q992 903 1012 925T1030 997L1018 1222Q1016 1267 999 1284T925 1301Z" />
<glyph unicode="&#xaf;" glyph-name="overscore" horiz-adv-x="200" d="M293 1382Q241 1382 231 1405T221 1490Q221 1558 231 1583T293 1608H829Q882 1608 891 1583T901 1489Q901 1428 892 1405T829 1382H293Z" />
<glyph unicode="&#xb0;" glyph-name="degree" horiz-adv-x="849" d="M424 1020Q343 1020 270 1038T149 1100T96 1222L80 1463Q75 1548 122 1600T251 1675T424 1699Q516 1699 595 1676T723 1600T766 1463L752 1222Q748 1144 700 1100T579 1038T424 1020ZM424 1150Q473
1150 504 1174T533 1263L524 1463Q521 1521 497 1540T424 1559Q375 1559 351 1540T323 1463L314 1263Q311 1199 342 1175T424 1150Z" />
<glyph unicode="&#xb1;" glyph-name="plusminus" horiz-adv-x="1058" d="M533 527Q472 527 450 537T427 599L418 867H152Q101 867 91 886T80 963Q80 1028 90 1048T152 1069H411L401 1353Q401 1406 431 1415T534 1425Q601 1425 628 1416T655 1353L645 1069H906Q957
1069 967 1048T978 962Q978 904 968 886T906 867H638L629 599Q628 547 609 537T533 527ZM214 169Q162 169 152 188T142 259Q142 318 152 338T214 359H844Q896 359 906 338T916 258Q916 206 906 188T844 169H214Z" />
<glyph unicode="&#xb2;" glyph-name="uni00B2" horiz-adv-x="884" d="M177 680Q151 680 142 687T133 720V738Q133 759 138 772T152 797L479 1168Q505 1201 516 1225T525 1296L519 1469Q518 1521 499 1534T449 1547Q412 1547 392 1534T370 1468L363 1259Q362 1222
337 1213T243 1204Q170 1204 144 1213T116 1259L101 1509Q96 1598 190 1649T449 1701Q615 1701 711 1650T803 1509L791 1253Q790 1212 775 1181T724 1112L460 856V851H754Q785 851 791 828T798 766Q798 723 792 702T754 680H177Z" />
<glyph unicode="&#xb3;" glyph-name="uni00B3" horiz-adv-x="869" d="M430 672Q243 672 172 718T98 829L96 924Q95 961 121 970T235 980Q311 980 340 971T368 925L367 879Q366 840 384 830T453 819Q482 819 502 834T519 907L516 991Q515 1027 499 1037T450 1048H412Q381
1048 375 1064T369 1129Q369 1172 375 1189T413 1207H451Q479 1207 494 1222T507 1277L499 1468Q495 1515 482 1531T430 1548Q386 1548 370 1532T352 1468L344 1323Q343 1286 318 1277T225 1268Q151 1268 123 1277T94 1323L81 1523Q80 1573 113 1607T199 1661T314
1691T430 1700Q487 1700 548 1691T663 1662T750 1607T782 1523L774 1301Q773 1268 763 1238T720 1182T616 1133V1128Q705 1094 741 1063T776 968L772 846Q771 799 740 760T634 696T430 672Z" />
<glyph unicode="&#xb4;" glyph-name="acute" horiz-adv-x="200" d="M-28 1382Q-124 1382 -124 1419Q-124 1438 -110 1461T-75 1522L32 1722Q53 1762 80 1773T191 1784Q274 1784 299 1775T325 1745Q325 1729 313 1710T283 1667L111 1441Q93 1417 80 1405T43 1387T-28
1382Z" />
<glyph unicode="&#xb5;" glyph-name="uni00B5" horiz-adv-x="1092" d="M252 -354Q186 -354 168 -329T148 -247L105 1129Q104 1172 131 1187T267 1202Q369 1202 394 1187T419 1129L398 249Q421 225 454 209T535 192Q593 192 631 211T698 257L673 1129Q672 1172
696 1187T815 1202Q924 1202 951 1187T977 1129L941 190H991Q1044 190 1053 173T1063 100Q1063 39 1054 20T991 0H857V0Q851 0 842 0Q776 0 751 37T726 126H716Q676 63 633 32T535 0Q489 0 446 25T368 90H358V-247Q358 -304 340 -329T252 -354Z" />
<glyph unicode="&#xb6;" glyph-name="paragraph" horiz-adv-x="1277" d="M1009 0Q948 0 928 10T907 57L866 1651Q865 1694 891 1709T1008 1724Q1100 1724 1125 1710T1150 1652L1112 58Q1111 21 1091 11T1009 0ZM557 0Q495 0 475 10T454 57L436 708Q302 726 232
775T135 886T106 1003L86 1422Q83 1506 126 1564T243 1656T403 1706T572 1722Q647 1722 672 1709T697 1652L659 58Q658 21 638 11T557 0Z" />
<glyph unicode="&#xb7;" glyph-name="middot" horiz-adv-x="600" d="M300 455Q203 455 178 465T150 512L138 707Q135 750 163 765T300 780Q409 780 436 765T462 707L451 512Q449 475 424 465T300 455Z" />
<glyph unicode="&#xb8;" glyph-name="cedilla" horiz-adv-x="200" d="M486 -466Q416 -466 356 -451T262 -396Q248 -378 260 -333Q275 -283 285 -245T320 -206Q355 -206 376 -218T447 -230Q478 -230 507 -198T537 -112Q537 -73 512 -31T417 28Q461 28 505 28T577
29Q606 29 640 -9T699 -106T724 -226Q724 -341 656 -403T486 -466Z" />
<glyph unicode="&#xb9;" glyph-name="uni00B9" horiz-adv-x="614" d="M365 671Q290 671 268 677T245 712L233 1382L118 1268Q98 1248 83 1248Q75 1248 68 1254T60 1285V1441Q60 1469 66 1483T87 1513L228 1662Q240 1672 266 1678T365 1685Q450 1685 472 1672T493
1628L467 712Q466 684 444 678T365 671Z" />
<glyph unicode="&#xba;" glyph-name="ordmasculine" horiz-adv-x="954" d="M477 682Q392 682 316 700T192 763T140 884L121 1316Q118 1391 169 1438T302 1507T477 1529Q569 1529 651 1507T785 1438T833 1316L814 884Q811 808 763 764T639 701T477 682ZM477 814Q530
814 555 831T578 902L562 1307Q557 1366 536 1378T477 1391Q440 1391 419 1379T392 1307L376 902Q375 849 399 832T477 814Z" />
<glyph unicode="&#xbb;" glyph-name="guillemotright" horiz-adv-x="1210" d="M191 170Q120 170 100 177T80 210Q80 226 91 243T126 291L355 593L114 968Q94 1000 87 1015T80 1046Q80 1071 110 1080T221 1089Q302 1089 341 1082T402 1027L591 661Q605 633 611
621T618 593Q618 577 612 563T586 525L327 216Q299 183 267 177T191 170ZM733 170Q662 170 642 177T622 210Q622 226 633 243T668 291L897 593L656 968Q636 1000 629 1015T622 1046Q622 1071 652 1080T763 1089Q844 1089 882 1082T944 1027L1133 661Q1148 634 1154
622T1160 593Q1160 577 1154 563T1128 525L869 216Q842 182 809 176T733 170Z" />
<glyph unicode="&#xbc;" glyph-name="onequarter" horiz-adv-x="1699" d="M510 -1Q452 0 438 11T434 57L936 1615Q948 1655 966 1671T1058 1686Q1135 1685 1157 1670T1168 1616L605 48Q594 14 574 6T510 -1ZM405 671Q330 671 308 677T285 712L273 1382L158 1268Q138
1248 123 1248Q115 1248 108 1254T100 1285V1441Q100 1469 106 1483T127 1513L268 1662Q280 1672 306 1678T405 1685Q490 1685 512 1672T533 1628L507 712Q506 684 484 678T405 671ZM995 218Q977 218 952 227T927 255V275Q927 293 932 310T945 345L1175 976Q1189
1014 1224 1023T1348 1033Q1422 1033 1448 1018T1463 971L1184 389H1382L1378 549Q1377 580 1407 589T1508 599Q1591 599 1609 591T1627 550L1612 40Q1611 12 1584 6T1496 -1Q1433 -1 1413 5T1392 40L1387 218H995Z" />
<glyph unicode="&#xbd;" glyph-name="onehalf" horiz-adv-x="1810" d="M510 -1Q452 0 438 11T434 57L936 1615Q948 1655 966 1671T1058 1686Q1135 1685 1157 1670T1168 1616L605 48Q594 14 574 6T510 -1ZM405 671Q330 671 308 677T285 712L273 1382L158 1268Q138
1248 123 1248Q115 1248 108 1254T100 1285V1441Q100 1469 106 1483T127 1513L268 1662Q280 1672 306 1678T405 1685Q490 1685 512 1672T533 1628L507 712Q506 684 484 678T405 671ZM1083 1Q1057 1 1048 8T1039 41V59Q1039 80 1044 93T1058 118L1385 489Q1411 522
1422 546T1431 617L1425 790Q1424 842 1405 855T1355 868Q1318 868 1298 855T1276 789L1269 580Q1268 543 1243 534T1149 525Q1076 525 1050 534T1022 580L1007 830Q1002 919 1096 970T1355 1022Q1521 1022 1617 971T1709 830L1697 574Q1696 533 1681 502T1630
433L1366 177V172H1660Q1691 172 1697 149T1704 87Q1704 44 1698 23T1660 1H1083Z" />
<glyph unicode="&#xbe;" glyph-name="threequarters" horiz-adv-x="1948" d="M440 672Q253 672 182 718T108 829L106 924Q105 961 131 970T245 980Q321 980 350 971T378 925L377 879Q376 840 394 830T463 819Q492 819 512 834T529 907L526 991Q525 1027 509 1037T460
1048H422Q391 1048 385 1064T379 1129Q379 1172 385 1189T423 1207H461Q489 1207 504 1222T517 1277L509 1468Q505 1515 492 1531T440 1548Q396 1548 380 1532T362 1468L354 1323Q353 1286 328 1277T235 1268Q161 1268 133 1277T104 1323L91 1523Q90 1573 123 1607T209
1661T324 1691T440 1700Q497 1700 558 1691T673 1662T760 1607T792 1523L784 1301Q783 1268 773 1238T730 1182T626 1133V1128Q715 1094 751 1063T786 968L782 846Q781 799 750 760T644 696T440 672ZM759 -1Q701 0 687 11T683 57L1185 1615Q1197 1655 1215 1671T1307
1686Q1384 1685 1406 1670T1417 1616L854 48Q843 14 823 6T759 -1ZM1235 218Q1217 218 1192 227T1167 255V275Q1167 293 1172 310T1185 345L1415 976Q1429 1014 1464 1023T1588 1033Q1662 1033 1688 1018T1703 971L1424 389H1622L1618 549Q1617 580 1647 589T1748
599Q1831 599 1849 591T1867 550L1852 40Q1851 12 1824 6T1736 -1Q1673 -1 1653 5T1632 40L1627 218H1235Z" />
<glyph unicode="&#xbf;" glyph-name="questiondown" horiz-adv-x="1170" d="M575 1202Q673 1202 698 1193T725 1145L737 950Q740 907 712 892T575 877Q466 877 439 892T413 950L424 1145Q426 1183 452 1192T575 1202ZM574 740Q643 740 667 731T692 668L702 580Q704
544 698 521T673 481L533 362Q491 324 471 295T445 227T442 123L453 -176Q455 -265 488 -288T586 -311Q651 -311 683 -288T718 -176L730 174Q732 236 765 252T887 268Q975 268 1006 252T1039 174L1049 -168Q1053 -321 936 -408T586 -495Q359 -495 238 -408T121
-168L133 146Q135 215 158 260T245 361L446 534L456 668Q459 721 483 730T574 740Z" />
<glyph unicode="&#xc0;" glyph-name="Agrave" horiz-adv-x="1079" d="M152 0Q74 0 44 12T23 78L288 1605Q294 1643 311 1662T379 1689T540 1696Q649 1696 700 1689T768 1663T791 1605L1056 78Q1065 25 1036 13T927 0Q864 0 833 4T789 26T771 78L730 317H349L308
78Q302 43 290 26T247 5T152 0ZM535 1394L382 507H697L544 1394H535ZM536 1804Q488 1804 466 1808T430 1825T396 1861L271 2005Q251 2029 239 2048T226 2083Q226 2103 254 2110T358 2118Q415 2118 443 2114T487 2096T517 2056L580 1944Q601 1907 617 1881T634 1838Q634
1804 536 1804Z" />
<glyph unicode="&#xc1;" glyph-name="Aacute" horiz-adv-x="1079" d="M152 0Q74 0 44 12T23 78L288 1605Q294 1643 311 1662T379 1689T540 1696Q649 1696 700 1689T768 1663T791 1605L1056 78Q1065 25 1036 13T927 0Q864 0 833 4T789 26T771 78L730 317H349L308
78Q302 43 290 26T247 5T152 0ZM535 1394L382 507H697L544 1394H535ZM551 1803Q453 1803 453 1837Q453 1854 468 1880T505 1943L572 2056Q588 2082 602 2095T646 2113T731 2118Q808 2118 835 2111T863 2083Q863 2055 818 2005L691 1860Q671 1838 658 1826T622 1808T551
1803Z" />
<glyph unicode="&#xc2;" glyph-name="Acircumflex" horiz-adv-x="1079" d="M152 0Q74 0 44 12T23 78L288 1605Q294 1643 311 1662T379 1689T540 1696Q649 1696 700 1689T768 1663T791 1605L1056 78Q1065 25 1036 13T927 0Q864 0 833 4T789 26T771 78L730 317H349L308
78Q302 43 290 26T247 5T152 0ZM535 1394L382 507H697L544 1394H535ZM268 1770Q213 1770 194 1778T175 1806Q175 1822 188 1841T225 1894L341 2056Q371 2098 397 2108T466 2118H621Q655 2118 679 2108T735 2056L854 1894Q879 1860 891 1841T904 1806Q904 1787 889
1779T811 1770Q759 1770 737 1782T673 1832L581 1918Q555 1944 540 1944Q526 1944 497 1917L408 1832Q381 1806 364 1793T327 1775T268 1770Z" />
<glyph unicode="&#xc3;" glyph-name="Atilde" horiz-adv-x="1079" d="M152 0Q74 0 44 12T23 78L288 1605Q294 1643 311 1662T379 1689T540 1696Q649 1696 700 1689T768 1663T791 1605L1056 78Q1065 25 1036 13T927 0Q864 0 833 4T789 26T771 78L730 317H349L308
78Q302 43 290 26T247 5T152 0ZM535 1394L382 507H697L544 1394H535ZM615 1801Q575 1801 556 1809T504 1849L453 1899Q437 1915 431 1918T419 1921Q405 1921 385 1882L363 1839Q349 1812 332 1807T258 1802Q218 1802 202 1808T186 1832Q186 1844 192 1858T208 1893L278
2052Q295 2090 321 2097T385 2104H437Q479 2104 496 2095T533 2065L590 2004Q624 1968 641 1968Q649 1968 656 1976T672 2009L692 2064Q703 2093 719 2098T794 2104Q848 2104 870 2100T893 2076Q893 2054 868 2005L791 1854Q775 1822 755 1812T693 1801H615Z" />
<glyph unicode="&#xc4;" glyph-name="Adieresis" horiz-adv-x="1079" d="M152 0Q74 0 44 12T23 78L288 1605Q294 1643 311 1662T379 1689T540 1696Q649 1696 700 1689T768 1663T791 1605L1056 78Q1065 25 1036 13T927 0Q864 0 833 4T789 26T771 78L730 317H349L308
78Q302 43 290 26T247 5T152 0ZM535 1394L382 507H697L544 1394H535ZM763 1817Q679 1817 657 1827T633 1874L621 2037Q618 2080 643 2095T763 2110Q858 2110 882 2095T905 2037L894 1874Q892 1837 870 1827T763 1817ZM317 1817Q233 1817 211 1827T187 1874L175
2037Q172 2080 197 2095T317 2110Q412 2110 436 2095T459 2037L448 1874Q446 1837 424 1827T317 1817Z" />
<glyph unicode="&#xc5;" glyph-name="Aring" horiz-adv-x="1079" d="M152 0Q74 0 44 12T23 78L288 1605Q294 1643 311 1662T379 1689T540 1696Q649 1696 700 1689T768 1663T791 1605L1056 78Q1065 25 1036 13T927 0Q864 0 833 4T789 26T771 78L730 317H349L308
78Q302 43 290 26T247 5T152 0ZM535 1394L382 507H697L544 1394H535ZM540 1643Q408 1643 317 1691T226 1844V1917Q226 2021 317 2069T540 2118Q672 2118 763 2070T854 1917V1844Q854 1740 763 1692T540 1643ZM540 1763Q640 1763 640 1845V1916Q640 1998 540 1998Q440
1998 440 1916V1845Q440 1763 540 1763Z" />
<glyph unicode="&#xc6;" glyph-name="AE" horiz-adv-x="1459" d="M172 0Q93 0 64 12T43 78L385 1598Q394 1636 411 1655T474 1682T617 1690H1328Q1380 1690 1389 1671T1399 1592Q1399 1531 1390 1513T1328 1494H1043L1026 880H1266Q1319 880 1328 862T1337 785Q1337
727 1328 709T1266 690H1020L1006 187H1290Q1342 187 1351 168T1361 94Q1361 40 1352 21T1290 1H864Q779 1 759 12T736 69L729 317H377L316 78Q307 43 295 27T256 5T172 0ZM678 1494L426 507H723L695 1494H678Z" />
<glyph unicode="&#xc7;" glyph-name="Ccedilla" horiz-adv-x="1198" d="M604 -12Q443 -12 343 31T197 146T148 305L120 1365Q116 1515 230 1608T604 1701Q863 1701 977 1608T1088 1365L1076 879Q1075 818 1040 803T912 787Q818 787 785 802T749 879L736 1396Q734
1484 701 1506T604 1529Q540 1529 507 1507T472 1396L443 296Q441 212 478 182T604 151Q693 151 730 181T765 296L761 415Q759 476 793 491T920 507Q1011 507 1037 492T1062 415L1059 303Q1057 216 1011 145T865 31T604 -12ZM502 -466Q432 -466 372 -451T278 -396Q264
-378 276 -333Q291 -283 301 -245T336 -206Q371 -206 392 -218T463 -230Q494 -230 523 -198T553 -112Q553 -73 528 -31T433 28Q477 28 521 28T593 29Q622 29 656 -9T715 -106T740 -226Q740 -341 672 -403T502 -466Z" />
<glyph unicode="&#xc8;" glyph-name="Egrave" horiz-adv-x="901" d="M307 0Q215 0 193 11T168 68L125 1607Q124 1659 147 1674T237 1690Q275 1690 347 1690T503 1690T659 1689T770 1689Q823 1689 832 1670T841 1591Q841 1530 832 1512T770 1493H486L468 879H709Q761
879 770 861T780 784Q780 726 771 708T709 689H463L449 186H733Q785 186 794 167T804 93Q804 39 795 20T733 0H307ZM447 1804Q399 1804 377 1808T341 1825T307 1861L182 2005Q162 2029 150 2048T137 2083Q137 2103 165 2110T269 2118Q326 2118 354 2114T398 2096T428
2056L491 1944Q512 1907 528 1881T545 1838Q545 1804 447 1804Z" />
<glyph unicode="&#xc9;" glyph-name="Eacute" horiz-adv-x="901" d="M307 0Q215 0 193 11T168 68L125 1607Q124 1659 147 1674T237 1690Q275 1690 347 1690T503 1690T659 1689T770 1689Q823 1689 832 1670T841 1591Q841 1530 832 1512T770 1493H486L468 879H709Q761
879 770 861T780 784Q780 726 771 708T709 689H463L449 186H733Q785 186 794 167T804 93Q804 39 795 20T733 0H307ZM462 1803Q364 1803 364 1837Q364 1854 379 1880T416 1943L483 2056Q499 2082 513 2095T557 2113T642 2118Q719 2118 746 2111T774 2083Q774 2055
729 2005L602 1860Q582 1838 569 1826T533 1808T462 1803Z" />
<glyph unicode="&#xca;" glyph-name="Ecircumflex" horiz-adv-x="901" d="M307 0Q215 0 193 11T168 68L125 1607Q124 1659 147 1674T237 1690Q275 1690 347 1690T503 1690T659 1689T770 1689Q823 1689 832 1670T841 1591Q841 1530 832 1512T770 1493H486L468 879H709Q761
879 770 861T780 784Q780 726 771 708T709 689H463L449 186H733Q785 186 794 167T804 93Q804 39 795 20T733 0H307ZM179 1770Q124 1770 105 1778T86 1806Q86 1822 99 1841T136 1894L252 2056Q282 2098 308 2108T377 2118H532Q566 2118 590 2108T646 2056L765 1894Q790
1860 802 1841T815 1806Q815 1787 800 1779T722 1770Q670 1770 648 1782T584 1832L492 1918Q466 1944 451 1944Q437 1944 408 1917L319 1832Q292 1806 275 1793T238 1775T179 1770Z" />
<glyph unicode="&#xcb;" glyph-name="Edieresis" horiz-adv-x="901" d="M307 0Q215 0 193 11T168 68L125 1607Q124 1659 147 1674T237 1690Q275 1690 347 1690T503 1690T659 1689T770 1689Q823 1689 832 1670T841 1591Q841 1530 832 1512T770 1493H486L468 879H709Q761
879 770 861T780 784Q780 726 771 708T709 689H463L449 186H733Q785 186 794 167T804 93Q804 39 795 20T733 0H307ZM674 1817Q590 1817 568 1827T544 1874L532 2037Q529 2080 554 2095T674 2110Q769 2110 793 2095T816 2037L805 1874Q803 1837 781 1827T674 1817ZM228
1817Q144 1817 122 1827T98 1874L86 2037Q83 2080 108 2095T228 2110Q323 2110 347 2095T370 2037L359 1874Q357 1837 335 1827T228 1817Z" />
<glyph unicode="&#xcc;" glyph-name="Igrave" horiz-adv-x="614" d="M307 0Q215 0 193 11T168 68L125 1607Q124 1642 136 1659T188 1683T307 1690Q386 1690 425 1684T477 1660T489 1607L445 68Q444 22 422 11T307 0ZM303 1804Q255 1804 233 1808T197 1825T163
1861L38 2005Q18 2029 6 2048T-7 2083Q-7 2103 21 2110T125 2118Q182 2118 210 2114T254 2096T284 2056L347 1944Q368 1907 384 1881T401 1838Q401 1804 303 1804Z" />
<glyph unicode="&#xcd;" glyph-name="Iacute" horiz-adv-x="614" d="M307 0Q215 0 193 11T168 68L125 1607Q124 1642 136 1659T188 1683T307 1690Q386 1690 425 1684T477 1660T489 1607L445 68Q444 22 422 11T307 0ZM318 1803Q220 1803 220 1837Q220 1854 235
1880T272 1943L339 2056Q355 2082 369 2095T413 2113T498 2118Q575 2118 602 2111T630 2083Q630 2055 585 2005L458 1860Q438 1838 425 1826T389 1808T318 1803Z" />
<glyph unicode="&#xce;" glyph-name="Icircumflex" horiz-adv-x="614" d="M307 0Q215 0 193 11T168 68L125 1607Q124 1642 136 1659T188 1683T307 1690Q386 1690 425 1684T477 1660T489 1607L445 68Q444 22 422 11T307 0ZM35 1770Q-20 1770 -39 1778T-58 1806Q-58
1822 -45 1841T-8 1894L108 2056Q138 2098 164 2108T233 2118H388Q422 2118 446 2108T502 2056L621 1894Q646 1860 658 1841T671 1806Q671 1787 656 1779T578 1770Q526 1770 504 1782T440 1832L348 1918Q322 1944 307 1944Q293 1944 264 1917L175 1832Q148 1806
131 1793T94 1775T35 1770Z" />
<glyph unicode="&#xcf;" glyph-name="Idieresis" horiz-adv-x="614" d="M307 0Q215 0 193 11T168 68L125 1607Q124 1642 136 1659T188 1683T307 1690Q386 1690 425 1684T477 1660T489 1607L445 68Q444 22 422 11T307 0ZM530 1817Q446 1817 424 1827T400 1874L388
2037Q385 2080 410 2095T530 2110Q625 2110 649 2095T672 2037L661 1874Q659 1837 637 1827T530 1817ZM84 1817Q0 1817 -22 1827T-46 1874L-58 2037Q-61 2080 -36 2095T84 2110Q179 2110 203 2095T226 2037L215 1874Q213 1837 191 1827T84 1817Z" />
<glyph unicode="&#xd0;" glyph-name="Eth" horiz-adv-x="1222" d="M280 0V0Q206 1 188 13T168 68L148 781H89Q37 781 27 798T17 871Q17 927 27 944T89 961H143L125 1607Q124 1642 136 1659T187 1683T304 1690V1690H599Q868 1690 985 1599T1098 1334L1069 324Q1065
174 954 87T602 0H280ZM578 781H465L448 163H612Q707 163 742 195T776 311L747 1382Q745 1469 713 1493T617 1517H486L471 961H578Q631 961 640 944T650 871Q650 816 641 799T578 781Z" />
<glyph unicode="&#xd1;" glyph-name="Ntilde" horiz-adv-x="1234" d="M304 0Q215 0 193 11T168 68L125 1607Q124 1659 151 1674T283 1690Q359 1690 391 1682T432 1646V1646L806 627H814L767 1607Q765 1659 794 1674T930 1690Q1009 1690 1047 1684T1098 1660T1109
1607L1065 98Q1064 52 1045 26T946 0Q908 0 884 5T850 30L847 28L442 1063H431L423 68Q422 22 403 11T304 0ZM692 1801Q652 1801 633 1809T581 1849L530 1899Q514 1915 508 1918T496 1921Q482 1921 462 1882L440 1839Q426 1812 409 1807T335 1802Q295 1802 279
1808T263 1832Q263 1844 269 1858T285 1893L355 2052Q372 2090 398 2097T462 2104H514Q556 2104 573 2095T610 2065L667 2004Q701 1968 718 1968Q726 1968 733 1976T749 2009L769 2064Q780 2093 796 2098T871 2104Q925 2104 947 2100T970 2076Q970 2054 945 2005L868
1854Q852 1822 832 1812T770 1801H692Z" />
<glyph unicode="&#xd2;" glyph-name="Ograve" horiz-adv-x="1212" d="M606 -12Q445 -12 345 31T199 146T150 305L122 1365Q118 1515 232 1608T606 1701Q865 1701 979 1608T1090 1365L1061 305Q1059 218 1013 146T867 31T606 -12ZM606 151Q695 151 732 181T767
296L738 1396Q736 1484 703 1506T606 1529Q542 1529 509 1507T474 1396L445 296Q443 212 480 182T606 151ZM602 1804Q554 1804 532 1808T496 1825T462 1861L337 2005Q317 2029 305 2048T292 2083Q292 2103 320 2110T424 2118Q481 2118 509 2114T553 2096T583 2056L646
1944Q667 1907 683 1881T700 1838Q700 1804 602 1804Z" />
<glyph unicode="&#xd3;" glyph-name="Oacute" horiz-adv-x="1212" d="M606 -12Q445 -12 345 31T199 146T150 305L122 1365Q118 1515 232 1608T606 1701Q865 1701 979 1608T1090 1365L1061 305Q1059 218 1013 146T867 31T606 -12ZM606 151Q695 151 732 181T767
296L738 1396Q736 1484 703 1506T606 1529Q542 1529 509 1507T474 1396L445 296Q443 212 480 182T606 151ZM617 1803Q519 1803 519 1837Q519 1854 534 1880T571 1943L638 2056Q654 2082 668 2095T712 2113T797 2118Q874 2118 901 2111T929 2083Q929 2055 884 2005L757
1860Q737 1838 724 1826T688 1808T617 1803Z" />
<glyph unicode="&#xd4;" glyph-name="Ocircumflex" horiz-adv-x="1212" d="M606 -12Q445 -12 345 31T199 146T150 305L122 1365Q118 1515 232 1608T606 1701Q865 1701 979 1608T1090 1365L1061 305Q1059 218 1013 146T867 31T606 -12ZM606 151Q695 151 732 181T767
296L738 1396Q736 1484 703 1506T606 1529Q542 1529 509 1507T474 1396L445 296Q443 212 480 182T606 151ZM334 1770Q279 1770 260 1778T241 1806Q241 1822 254 1841T291 1894L407 2056Q437 2098 463 2108T532 2118H687Q721 2118 745 2108T801 2056L920 1894Q945
1860 957 1841T970 1806Q970 1787 955 1779T877 1770Q825 1770 803 1782T739 1832L647 1918Q621 1944 606 1944Q592 1944 563 1917L474 1832Q447 1806 430 1793T393 1775T334 1770Z" />
<glyph unicode="&#xd5;" glyph-name="Otilde" horiz-adv-x="1212" d="M606 -12Q445 -12 345 31T199 146T150 305L122 1365Q118 1515 232 1608T606 1701Q865 1701 979 1608T1090 1365L1061 305Q1059 218 1013 146T867 31T606 -12ZM606 151Q695 151 732 181T767
296L738 1396Q736 1484 703 1506T606 1529Q542 1529 509 1507T474 1396L445 296Q443 212 480 182T606 151ZM681 1801Q641 1801 622 1809T570 1849L519 1899Q503 1915 497 1918T485 1921Q471 1921 451 1882L429 1839Q415 1812 398 1807T324 1802Q284 1802 268 1808T252
1832Q252 1844 258 1858T274 1893L344 2052Q361 2090 387 2097T451 2104H503Q545 2104 562 2095T599 2065L656 2004Q690 1968 707 1968Q715 1968 722 1976T738 2009L758 2064Q769 2093 785 2098T860 2104Q914 2104 936 2100T959 2076Q959 2054 934 2005L857 1854Q841
1822 821 1812T759 1801H681Z" />
<glyph unicode="&#xd6;" glyph-name="Odieresis" horiz-adv-x="1212" d="M606 -12Q445 -12 345 31T199 146T150 305L122 1365Q118 1515 232 1608T606 1701Q865 1701 979 1608T1090 1365L1061 305Q1059 218 1013 146T867 31T606 -12ZM606 151Q695 151 732 181T767
296L738 1396Q736 1484 703 1506T606 1529Q542 1529 509 1507T474 1396L445 296Q443 212 480 182T606 151ZM829 1817Q745 1817 723 1827T699 1874L687 2037Q684 2080 709 2095T829 2110Q924 2110 948 2095T971 2037L960 1874Q958 1837 936 1827T829 1817ZM383 1817Q299
1817 277 1827T253 1874L241 2037Q238 2080 263 2095T383 2110Q478 2110 502 2095T525 2037L514 1874Q512 1837 490 1827T383 1817Z" />
<glyph unicode="&#xd7;" glyph-name="multiply" horiz-adv-x="1013" d="M188 340Q129 340 107 347T84 380Q84 396 96 414T131 461L363 762L94 1080Q69 1109 55 1125T40 1158Q40 1183 70 1192T183 1201Q235 1201 262 1198T306 1181T341 1139L507 905L672 1139Q691
1168 707 1181T751 1197T830 1201Q913 1201 943 1192T973 1158Q973 1142 959 1126T919 1080L650 762L884 461Q906 433 917 415T929 380Q929 355 907 348T825 340Q785 340 757 344T699 386L507 617L314 386Q285 349 257 345T188 340Z" />
<glyph unicode="&#xd8;" glyph-name="Oslash" horiz-adv-x="1208" d="M254 -265Q188 -264 170 -253T168 -207L261 80Q205 123 179 181T150 305L122 1365Q118 1515 232 1608T606 1701Q677 1701 738 1693L814 1926Q823 1953 834 1968T872 1991T956 1997Q1042 1996
1067 1981T1076 1927L955 1625Q1027 1580 1059 1514T1090 1365L1061 305Q1059 218 1013 146T867 31T606 -12Q525 -12 458 0L369 -216Q355 -250 331 -258T254 -265ZM606 151Q695 151 732 181T767 296L738 1396Q736 1484 703 1506T606 1529Q542 1529 509 1507T474
1396L445 296Q443 212 480 182T606 151Z" />
<glyph unicode="&#xd9;" glyph-name="Ugrave" horiz-adv-x="1201" d="M601 -12Q440 -12 340 31T194 146T146 305L110 1607Q109 1642 121 1659T173 1683T292 1690Q371 1690 410 1684T462 1660T474 1607L440 296Q438 212 475 182T601 151Q690 151 727 181T762 296L727
1607Q726 1642 738 1659T790 1683T909 1690Q988 1690 1027 1684T1079 1660T1091 1607L1056 305Q1054 218 1008 146T862 31T601 -12ZM597 1804Q549 1804 527 1808T491 1825T457 1861L332 2005Q312 2029 300 2048T287 2083Q287 2103 315 2110T419 2118Q476 2118 504
2114T548 2096T578 2056L641 1944Q662 1907 678 1881T695 1838Q695 1804 597 1804Z" />
<glyph unicode="&#xda;" glyph-name="Uacute" horiz-adv-x="1201" d="M601 -12Q440 -12 340 31T194 146T146 305L110 1607Q109 1642 121 1659T173 1683T292 1690Q371 1690 410 1684T462 1660T474 1607L440 296Q438 212 475 182T601 151Q690 151 727 181T762 296L727
1607Q726 1642 738 1659T790 1683T909 1690Q988 1690 1027 1684T1079 1660T1091 1607L1056 305Q1054 218 1008 146T862 31T601 -12ZM612 1803Q514 1803 514 1837Q514 1854 529 1880T566 1943L633 2056Q649 2082 663 2095T707 2113T792 2118Q869 2118 896 2111T924
2083Q924 2055 879 2005L752 1860Q732 1838 719 1826T683 1808T612 1803Z" />
<glyph unicode="&#xdb;" glyph-name="Ucircumflex" horiz-adv-x="1201" d="M601 -12Q440 -12 340 31T194 146T146 305L110 1607Q109 1642 121 1659T173 1683T292 1690Q371 1690 410 1684T462 1660T474 1607L440 296Q438 212 475 182T601 151Q690 151 727 181T762
296L727 1607Q726 1642 738 1659T790 1683T909 1690Q988 1690 1027 1684T1079 1660T1091 1607L1056 305Q1054 218 1008 146T862 31T601 -12ZM329 1770Q274 1770 255 1778T236 1806Q236 1822 249 1841T286 1894L402 2056Q432 2098 458 2108T527 2118H682Q716 2118
740 2108T796 2056L915 1894Q940 1860 952 1841T965 1806Q965 1787 950 1779T872 1770Q820 1770 798 1782T734 1832L642 1918Q616 1944 601 1944Q587 1944 558 1917L469 1832Q442 1806 425 1793T388 1775T329 1770Z" />
<glyph unicode="&#xdc;" glyph-name="Udieresis" horiz-adv-x="1201" d="M601 -12Q440 -12 340 31T194 146T146 305L110 1607Q109 1642 121 1659T173 1683T292 1690Q371 1690 410 1684T462 1660T474 1607L440 296Q438 212 475 182T601 151Q690 151 727 181T762
296L727 1607Q726 1642 738 1659T790 1683T909 1690Q988 1690 1027 1684T1079 1660T1091 1607L1056 305Q1054 218 1008 146T862 31T601 -12ZM824 1817Q740 1817 718 1827T694 1874L682 2037Q679 2080 704 2095T824 2110Q919 2110 943 2095T966 2037L955 1874Q953
1837 931 1827T824 1817ZM378 1817Q294 1817 272 1827T248 1874L236 2037Q233 2080 258 2095T378 2110Q473 2110 497 2095T520 2037L509 1874Q507 1837 485 1827T378 1817Z" />
<glyph unicode="&#xdd;" glyph-name="Yacute" horiz-adv-x="1124" d="M562 0Q471 0 449 11T424 68L411 527L51 1541Q42 1568 36 1590T30 1632Q30 1670 67 1680T215 1690Q289 1690 325 1686T377 1663T400 1602L552 820H574L723 1602Q731 1645 745 1663T797 1686T908
1690Q1018 1690 1056 1680T1094 1632Q1094 1613 1087 1591T1071 1541L714 520L701 68Q700 22 677 11T562 0ZM573 1803Q475 1803 475 1837Q475 1854 490 1880T527 1943L594 2056Q610 2082 624 2095T668 2113T753 2118Q830 2118 857 2111T885 2083Q885 2055 840 2005L713
1860Q693 1838 680 1826T644 1808T573 1803Z" />
<glyph unicode="&#xde;" glyph-name="Thorn" horiz-adv-x="1180" d="M307 0Q215 0 193 11T168 68L125 1607Q124 1642 136 1659T188 1683T307 1690Q386 1690 425 1684T477 1660T489 1607L484 1418H600Q737 1418 847 1385T1020 1281T1080 1093L1066 617Q1064 541
1023 468T886 347T623 299H452L445 68Q444 22 422 11T307 0ZM567 1246H479L456 462H578Q675 462 709 494T742 610L728 1124Q726 1202 695 1224T567 1246Z" />
<glyph unicode="&#xdf;" glyph-name="germandbls" horiz-adv-x="1105" d="M293 -172Q209 -172 187 -162T163 -115L140 1440Q139 1527 193 1590T346 1689T571 1724Q681 1724 778 1693T937 1598T998 1432L989 1156Q989 1098 985 1056T965 976T914 891L791 728V716L902
629Q964 581 998 530T1030 406L1027 277Q1026 215 999 151T907 43T728 0H621Q580 0 570 14T559 77Q559 127 569 142T621 157H636Q708 157 732 187T754 294L750 407Q748 473 734 505T688 565L626 618Q601 640 592 650T582 682V718Q582 734 584 743T599 768L657 857Q685
897 690 921T694 998L680 1438Q677 1512 655 1541T573 1570Q524 1570 491 1549T455 1447L424 -115Q423 -152 400 -162T293 -172Z" />
<glyph unicode="&#xe0;" glyph-name="agrave" horiz-adv-x="1086" d="M394 -12Q254 -12 183 60T110 237L109 291Q108 366 150 417T256 502T386 557Q450 578 520 593T657 619L648 950Q645 1058 540 1058Q489 1058 457 1038T422 951L415 724Q414 687 388 677T264
667Q173 667 149 677T122 724L114 937Q111 1017 154 1070T265 1155T408 1200T543 1214Q658 1214 755 1180T910 1082T965 925L934 57Q933 20 910 10T803 0Q726 0 706 10T683 57L682 92Q628 52 555 20T394 -12ZM383 267Q383 206 416 180T496 154Q554 154 596 173T668
218L661 475Q557 456 493 428Q444 406 414 378T383 306V267ZM546 1332Q498 1332 475 1337T439 1354T407 1391L235 1617Q217 1640 205 1659T193 1695Q193 1715 219 1724T327 1734Q410 1734 437 1723T486 1672L593 1472Q613 1435 627 1412T642 1369Q642 1332 546
1332Z" />
<glyph unicode="&#xe1;" glyph-name="aacute" horiz-adv-x="1086" d="M394 -12Q254 -12 183 60T110 237L109 291Q108 366 150 417T256 502T386 557Q450 578 520 593T657 619L648 950Q645 1058 540 1058Q489 1058 457 1038T422 951L415 724Q414 687 388 677T264
667Q173 667 149 677T122 724L114 937Q111 1017 154 1070T265 1155T408 1200T543 1214Q658 1214 755 1180T910 1082T965 925L934 57Q933 20 910 10T803 0Q726 0 706 10T683 57L682 92Q628 52 555 20T394 -12ZM383 267Q383 206 416 180T496 154Q554 154 596 173T668
218L661 475Q557 456 493 428Q444 406 414 378T383 306V267ZM539 1382Q443 1382 443 1419Q443 1438 457 1461T492 1522L599 1722Q620 1762 647 1773T758 1784Q841 1784 866 1775T892 1745Q892 1729 880 1710T850 1667L678 1441Q660 1417 647 1405T610 1387T539
1382Z" />
<glyph unicode="&#xe2;" glyph-name="acircumflex" horiz-adv-x="1086" d="M394 -12Q254 -12 183 60T110 237L109 291Q108 366 150 417T256 502T386 557Q450 578 520 593T657 619L648 950Q645 1058 540 1058Q489 1058 457 1038T422 951L415 724Q414 687 388 677T264
667Q173 667 149 677T122 724L114 937Q111 1017 154 1070T265 1155T408 1200T543 1214Q658 1214 755 1180T910 1082T965 925L934 57Q933 20 910 10T803 0Q726 0 706 10T683 57L682 92Q628 52 555 20T394 -12ZM383 267Q383 206 416 180T496 154Q554 154 596 173T668
218L661 475Q557 456 493 428Q444 406 414 378T383 306V267ZM271 1362Q214 1362 192 1372T170 1401Q170 1422 184 1444T219 1504L342 1702Q368 1742 399 1757T519 1772H567Q656 1772 687 1757T744 1702L867 1504Q890 1468 903 1445T916 1401Q916 1382 894 1372T814
1362Q753 1362 732 1375T681 1421L580 1540Q558 1565 544 1565Q528 1565 504 1536L406 1421Q377 1387 356 1375T271 1362Z" />
<glyph unicode="&#xe3;" glyph-name="atilde" horiz-adv-x="1086" d="M394 -12Q254 -12 183 60T110 237L109 291Q108 366 150 417T256 502T386 557Q450 578 520 593T657 619L648 950Q645 1058 540 1058Q489 1058 457 1038T422 951L415 724Q414 687 388 677T264
667Q173 667 149 677T122 724L114 937Q111 1017 154 1070T265 1155T408 1200T543 1214Q658 1214 755 1180T910 1082T965 925L934 57Q933 20 910 10T803 0Q726 0 706 10T683 57L682 92Q628 52 555 20T394 -12ZM383 267Q383 206 416 180T496 154Q554 154 596 173T668
218L661 475Q557 456 493 428Q444 406 414 378T383 306V267ZM217 1362Q173 1362 155 1369T137 1395Q137 1409 143 1425T163 1466L263 1665Q283 1706 308 1714T382 1723H428Q475 1723 493 1713T533 1679L615 1592Q626 1581 636 1571T655 1560Q665 1560 674 1574T693
1611L725 1678Q740 1709 757 1716T838 1723Q898 1723 923 1719T948 1692Q948 1662 920 1613L815 1428Q793 1388 771 1375T702 1362H629Q586 1362 563 1370T504 1415L445 1475Q414 1506 405 1506Q391 1506 367 1465L334 1408Q315 1376 297 1369T217 1362Z" />
<glyph unicode="&#xe4;" glyph-name="adieresis" horiz-adv-x="1086" d="M394 -12Q254 -12 183 60T110 237L109 291Q108 366 150 417T256 502T386 557Q450 578 520 593T657 619L648 950Q645 1058 540 1058Q489 1058 457 1038T422 951L415 724Q414 687 388 677T264
667Q173 667 149 677T122 724L114 937Q111 1017 154 1070T265 1155T408 1200T543 1214Q658 1214 755 1180T910 1082T965 925L934 57Q933 20 910 10T803 0Q726 0 706 10T683 57L682 92Q628 52 555 20T394 -12ZM383 267Q383 206 416 180T496 154Q554 154 596 173T668
218L661 475Q557 456 493 428Q444 406 414 378T383 306V267ZM758 1377Q674 1377 653 1387T628 1434L616 1605Q613 1648 638 1663T758 1678Q853 1678 878 1663T900 1605L889 1434Q887 1397 865 1387T758 1377ZM328 1377Q244 1377 223 1387T198 1434L186 1605Q183
1648 208 1663T328 1678Q423 1678 448 1663T470 1605L459 1434Q457 1397 435 1387T328 1377Z" />
<glyph unicode="&#xe5;" glyph-name="aring" horiz-adv-x="1086" d="M394 -12Q254 -12 183 60T110 237L109 291Q108 366 150 417T256 502T386 557Q450 578 520 593T657 619L648 950Q645 1058 540 1058Q489 1058 457 1038T422 951L415 724Q414 687 388 677T264
667Q173 667 149 677T122 724L114 937Q111 1017 154 1070T265 1155T408 1200T543 1214Q658 1214 755 1180T910 1082T965 925L934 57Q933 20 910 10T803 0Q726 0 706 10T683 57L682 92Q628 52 555 20T394 -12ZM383 267Q383 206 416 180T496 154Q554 154 596 173T668
218L661 475Q557 456 493 428Q444 406 414 378T383 306V267ZM543 1341Q425 1341 342 1389T259 1542V1599Q259 1703 342 1751T543 1800Q662 1800 744 1752T827 1599V1542Q827 1438 745 1390T543 1341ZM543 1461Q633 1461 633 1543V1598Q633 1680 543 1680Q453 1680
453 1598V1543Q453 1461 543 1461Z" />
<glyph unicode="&#xe6;" glyph-name="ae" horiz-adv-x="1606" d="M421 -12Q267 -12 190 60T110 237L109 291Q108 366 150 416T257 501T386 557Q452 578 525 593T666 620L655 973Q643 1058 550 1058Q499 1058 467 1038T432 951L425 724Q424 687 398 677T274 667Q183
667 159 677T132 724L124 958Q121 1030 162 1079T266 1158T399 1201T522 1214Q719 1214 841 1134Q893 1171 965 1192T1131 1214Q1191 1214 1257 1197T1381 1142T1473 1048T1505 910L1490 541Q1489 504 1464 494T1348 484H957L950 250Q949 187 986 160T1092 132Q1157
132 1186 154T1216 247V290Q1216 328 1239 341T1344 355Q1433 355 1456 342T1480 291V247Q1480 142 1423 86T1274 9T1083 -12Q996 -12 904 20T740 126Q688 78 605 33T421 -12ZM969 927L961 634H1208L1198 927Q1196 1012 1166 1035T1090 1058Q1041 1058 1006 1035T969
927ZM383 267Q383 206 416 180T496 154Q559 154 604 175T679 222L671 476Q560 457 493 428Q444 406 414 378T383 306V267Z" />
<glyph unicode="&#xe7;" glyph-name="ccedilla" horiz-adv-x="1062" d="M542 -12Q439 -12 347 14T197 104T134 276L111 910Q107 1017 168 1084T330 1182T541 1214Q655 1214 754 1183T914 1084T971 910L961 599Q960 562 933 552T812 542Q718 542 691 552T663 599L654
927Q652 1012 622 1035T541 1058Q492 1058 461 1035T428 927L408 268Q406 192 438 162T541 132Q611 132 642 160T674 259V290Q674 328 698 341T812 355Q901 355 925 342T949 291V267Q949 162 890 101T738 14T542 -12ZM434 -466Q364 -466 304 -451T210 -396Q196
-378 208 -333Q223 -283 233 -245T268 -206Q303 -206 324 -218T395 -230Q426 -230 455 -198T485 -112Q485 -73 460 -31T365 28Q409 28 453 28T525 29Q554 29 588 -9T647 -106T672 -226Q672 -341 604 -403T434 -466Z" />
<glyph unicode="&#xe8;" glyph-name="egrave" horiz-adv-x="1059" d="M538 -12Q437 -12 346 14T195 104T131 276L108 910Q104 1017 167 1084T331 1182T543 1214Q649 1214 746 1183T903 1084T958 910L943 541Q942 504 917 494T801 484H412L405 268Q403 192 438
162T537 132Q602 132 631 160T661 259V290Q661 328 685 341T799 355Q888 355 911 342T935 291V247Q935 142 878 86T729 9T538 -12ZM425 927L416 634H661L651 927Q648 1012 618 1035T543 1058Q494 1058 461 1035T425 927ZM531 1332Q483 1332 460 1337T424 1354T392
1391L220 1617Q202 1640 190 1659T178 1695Q178 1715 204 1724T312 1734Q395 1734 422 1723T471 1672L578 1472Q598 1435 612 1412T627 1369Q627 1332 531 1332Z" />
<glyph unicode="&#xe9;" glyph-name="eacute" horiz-adv-x="1059" d="M538 -12Q437 -12 346 14T195 104T131 276L108 910Q104 1017 167 1084T331 1182T543 1214Q649 1214 746 1183T903 1084T958 910L943 541Q942 504 917 494T801 484H412L405 268Q403 192 438
162T537 132Q602 132 631 160T661 259V290Q661 328 685 341T799 355Q888 355 911 342T935 291V247Q935 142 878 86T729 9T538 -12ZM425 927L416 634H661L651 927Q648 1012 618 1035T543 1058Q494 1058 461 1035T425 927ZM524 1382Q428 1382 428 1419Q428 1438 442
1461T477 1522L584 1722Q605 1762 632 1773T743 1784Q826 1784 851 1775T877 1745Q877 1729 865 1710T835 1667L663 1441Q645 1417 632 1405T595 1387T524 1382Z" />
<glyph unicode="&#xea;" glyph-name="ecircumflex" horiz-adv-x="1059" d="M538 -12Q437 -12 346 14T195 104T131 276L108 910Q104 1017 167 1084T331 1182T543 1214Q649 1214 746 1183T903 1084T958 910L943 541Q942 504 917 494T801 484H412L405 268Q403 192
438 162T537 132Q602 132 631 160T661 259V290Q661 328 685 341T799 355Q888 355 911 342T935 291V247Q935 142 878 86T729 9T538 -12ZM425 927L416 634H661L651 927Q648 1012 618 1035T543 1058Q494 1058 461 1035T425 927ZM256 1362Q199 1362 177 1372T155 1401Q155
1422 169 1444T204 1504L327 1702Q353 1742 384 1757T504 1772H552Q641 1772 672 1757T729 1702L852 1504Q875 1468 888 1445T901 1401Q901 1382 879 1372T799 1362Q738 1362 717 1375T666 1421L565 1540Q543 1565 529 1565Q513 1565 489 1536L391 1421Q362 1387
341 1375T256 1362Z" />
<glyph unicode="&#xeb;" glyph-name="edieresis" horiz-adv-x="1059" d="M538 -12Q437 -12 346 14T195 104T131 276L108 910Q104 1017 167 1084T331 1182T543 1214Q649 1214 746 1183T903 1084T958 910L943 541Q942 504 917 494T801 484H412L405 268Q403 192 438
162T537 132Q602 132 631 160T661 259V290Q661 328 685 341T799 355Q888 355 911 342T935 291V247Q935 142 878 86T729 9T538 -12ZM425 927L416 634H661L651 927Q648 1012 618 1035T543 1058Q494 1058 461 1035T425 927ZM743 1377Q659 1377 638 1387T613 1434L601
1605Q598 1648 623 1663T743 1678Q838 1678 863 1663T885 1605L874 1434Q872 1397 850 1387T743 1377ZM313 1377Q229 1377 208 1387T183 1434L171 1605Q168 1648 193 1663T313 1678Q408 1678 433 1663T455 1605L444 1434Q442 1397 420 1387T313 1377Z" />
<glyph unicode="&#xec;" glyph-name="igrave" horiz-adv-x="566" d="M283 0Q199 0 177 10T153 57L121 1129Q120 1172 147 1187T283 1202Q392 1202 419 1187T445 1129L414 57Q413 20 390 10T283 0ZM286 1332Q238 1332 215 1337T179 1354T147 1391L-25 1617Q-43
1640 -55 1659T-67 1695Q-67 1715 -41 1724T67 1734Q150 1734 177 1723T226 1672L333 1472Q353 1435 367 1412T382 1369Q382 1332 286 1332Z" />
<glyph unicode="&#xed;" glyph-name="iacute" horiz-adv-x="566" d="M283 0Q199 0 177 10T153 57L121 1129Q120 1172 147 1187T283 1202Q392 1202 419 1187T445 1129L414 57Q413 20 390 10T283 0ZM279 1382Q183 1382 183 1419Q183 1438 197 1461T232 1522L339
1722Q360 1762 387 1773T498 1784Q581 1784 606 1775T632 1745Q632 1729 620 1710T590 1667L418 1441Q400 1417 387 1405T350 1387T279 1382Z" />
<glyph unicode="&#xee;" glyph-name="icircumflex" horiz-adv-x="566" d="M283 0Q199 0 177 10T153 57L121 1129Q120 1172 147 1187T283 1202Q392 1202 419 1187T445 1129L414 57Q413 20 390 10T283 0ZM11 1362Q-46 1362 -68 1372T-90 1401Q-90 1422 -76 1444T-41
1504L82 1702Q108 1742 139 1757T259 1772H307Q396 1772 427 1757T484 1702L607 1504Q630 1468 643 1445T656 1401Q656 1382 634 1372T554 1362Q493 1362 472 1375T421 1421L320 1540Q298 1565 284 1565Q268 1565 244 1536L146 1421Q117 1387 96 1375T11 1362Z"
/>
<glyph unicode="&#xef;" glyph-name="idieresis" horiz-adv-x="566" d="M283 0Q199 0 177 10T153 57L121 1129Q120 1172 147 1187T283 1202Q392 1202 419 1187T445 1129L414 57Q413 20 390 10T283 0ZM498 1377Q414 1377 393 1387T368 1434L356 1605Q353 1648 378
1663T498 1678Q593 1678 618 1663T640 1605L629 1434Q627 1397 605 1387T498 1377ZM68 1377Q-16 1377 -37 1387T-62 1434L-74 1605Q-77 1648 -52 1663T68 1678Q163 1678 188 1663T210 1605L199 1434Q197 1397 175 1387T68 1377Z" />
<glyph unicode="&#xf0;" glyph-name="eth" horiz-adv-x="1082" d="M542 -12Q439 -12 347 14T197 104T134 276L111 910Q105 1068 214 1140T584 1214L450 1410L338 1343Q293 1317 276 1326T230 1384Q202 1432 202 1451T246 1498L348 1559L234 1725Q217 1751 203
1772T185 1812Q178 1850 224 1860T359 1870Q447 1870 488 1858T556 1782Q572 1745 593 1704L712 1775Q757 1801 774 1792T820 1734Q849 1686 849 1667T804 1620L683 1548Q752 1433 823 1317T933 1091Q953 1036 962 984T966 882Q967 881 967 881T967 880L948 277Q944
168 886 105T736 15T542 -12ZM541 132Q611 132 643 162T674 269L654 927Q652 1012 622 1035T541 1058Q492 1058 461 1035T428 927L408 268Q406 192 438 162T541 132Z" />
<glyph unicode="&#xf1;" glyph-name="ntilde" horiz-adv-x="1090" d="M283 0Q199 0 177 10T153 57L121 1129Q120 1172 145 1187T273 1202Q375 1202 400 1187T425 1129L424 1068Q480 1132 544 1173T698 1214Q820 1214 901 1128T978 890L954 57Q953 20 930 10T823
0Q739 0 717 10T693 57L670 861Q668 940 637 967T556 994Q519 994 490 973T439 923L414 57Q413 20 390 10T283 0ZM214 1362Q170 1362 152 1369T134 1395Q134 1409 140 1425T160 1466L260 1665Q280 1706 305 1714T379 1723H425Q472 1723 490 1713T530 1679L612 1592Q623
1581 633 1571T652 1560Q662 1560 671 1574T690 1611L722 1678Q737 1709 754 1716T835 1723Q895 1723 920 1719T945 1692Q945 1662 917 1613L812 1428Q790 1388 768 1375T699 1362H626Q583 1362 560 1370T501 1415L442 1475Q411 1506 402 1506Q388 1506 364 1465L331
1408Q312 1376 294 1369T214 1362Z" />
<glyph unicode="&#xf2;" glyph-name="ograve" horiz-adv-x="1078" d="M540 -12Q437 -12 345 14T195 104T132 276L109 910Q105 1017 166 1084T328 1182T539 1214Q650 1214 750 1183T911 1084T969 910L946 277Q942 168 884 105T734 15T540 -12ZM539 132Q609 132
641 162T672 269L652 927Q650 1012 620 1035T539 1058Q490 1058 459 1035T426 927L406 268Q404 192 436 162T539 132ZM542 1332Q494 1332 471 1337T435 1354T403 1391L231 1617Q213 1640 201 1659T189 1695Q189 1715 215 1724T323 1734Q406 1734 433 1723T482 1672L589
1472Q609 1435 623 1412T638 1369Q638 1332 542 1332Z" />
<glyph unicode="&#xf3;" glyph-name="oacute" horiz-adv-x="1078" d="M540 -12Q437 -12 345 14T195 104T132 276L109 910Q105 1017 166 1084T328 1182T539 1214Q650 1214 750 1183T911 1084T969 910L946 277Q942 168 884 105T734 15T540 -12ZM539 132Q609 132
641 162T672 269L652 927Q650 1012 620 1035T539 1058Q490 1058 459 1035T426 927L406 268Q404 192 436 162T539 132ZM535 1382Q439 1382 439 1419Q439 1438 453 1461T488 1522L595 1722Q616 1762 643 1773T754 1784Q837 1784 862 1775T888 1745Q888 1729 876 1710T846
1667L674 1441Q656 1417 643 1405T606 1387T535 1382Z" />
<glyph unicode="&#xf4;" glyph-name="ocircumflex" horiz-adv-x="1078" d="M540 -12Q437 -12 345 14T195 104T132 276L109 910Q105 1017 166 1084T328 1182T539 1214Q650 1214 750 1183T911 1084T969 910L946 277Q942 168 884 105T734 15T540 -12ZM539 132Q609
132 641 162T672 269L652 927Q650 1012 620 1035T539 1058Q490 1058 459 1035T426 927L406 268Q404 192 436 162T539 132ZM267 1362Q210 1362 188 1372T166 1401Q166 1422 180 1444T215 1504L338 1702Q364 1742 395 1757T515 1772H563Q652 1772 683 1757T740 1702L863
1504Q886 1468 899 1445T912 1401Q912 1382 890 1372T810 1362Q749 1362 728 1375T677 1421L576 1540Q554 1565 540 1565Q524 1565 500 1536L402 1421Q373 1387 352 1375T267 1362Z" />
<glyph unicode="&#xf5;" glyph-name="otilde" horiz-adv-x="1078" d="M540 -12Q437 -12 345 14T195 104T132 276L109 910Q105 1017 166 1084T328 1182T539 1214Q650 1214 750 1183T911 1084T969 910L946 277Q942 168 884 105T734 15T540 -12ZM539 132Q609 132
641 162T672 269L652 927Q650 1012 620 1035T539 1058Q490 1058 459 1035T426 927L406 268Q404 192 436 162T539 132ZM213 1362Q169 1362 151 1369T133 1395Q133 1409 139 1425T159 1466L259 1665Q279 1706 304 1714T378 1723H424Q471 1723 489 1713T529 1679L611
1592Q622 1581 632 1571T651 1560Q661 1560 670 1574T689 1611L721 1678Q736 1709 753 1716T834 1723Q894 1723 919 1719T944 1692Q944 1662 916 1613L811 1428Q789 1388 767 1375T698 1362H625Q582 1362 559 1370T500 1415L441 1475Q410 1506 401 1506Q387 1506
363 1465L330 1408Q311 1376 293 1369T213 1362Z" />
<glyph unicode="&#xf6;" glyph-name="odieresis" horiz-adv-x="1078" d="M540 -12Q437 -12 345 14T195 104T132 276L109 910Q105 1017 166 1084T328 1182T539 1214Q650 1214 750 1183T911 1084T969 910L946 277Q942 168 884 105T734 15T540 -12ZM539 132Q609 132
641 162T672 269L652 927Q650 1012 620 1035T539 1058Q490 1058 459 1035T426 927L406 268Q404 192 436 162T539 132ZM754 1377Q670 1377 649 1387T624 1434L612 1605Q609 1648 634 1663T754 1678Q849 1678 874 1663T896 1605L885 1434Q883 1397 861 1387T754 1377ZM324
1377Q240 1377 219 1387T194 1434L182 1605Q179 1648 204 1663T324 1678Q419 1678 444 1663T466 1605L455 1434Q453 1397 431 1387T324 1377Z" />
<glyph unicode="&#xf7;" glyph-name="divide" horiz-adv-x="976" d="M489 1002Q398 1002 371 1014T342 1063L333 1246Q332 1289 361 1306T489 1323Q588 1323 617 1306T644 1246L633 1063Q632 1026 603 1014T489 1002ZM112 664Q61 664 51 685T40 764Q40 829 50
847T112 866H864Q915 866 925 847T936 763Q936 705 926 685T864 664H112ZM489 237Q404 237 382 248T357 297L351 453Q350 496 371 511T489 526Q584 526 606 511T627 453L622 297Q620 260 597 249T489 237Z" />
<glyph unicode="&#xf8;" glyph-name="oslash" horiz-adv-x="1081" d="M250 -253Q184 -252 168 -241T164 -195L249 59Q199 93 168 146T134 276L111 910Q107 1017 168 1084T330 1182T541 1214Q630 1214 709 1195L784 1427Q793 1453 803 1469T841 1492T926 1498Q1012
1497 1036 1482T1046 1428L910 1086Q941 1052 957 1008T971 910L948 277Q944 168 886 105T736 15T542 -12Q493 -12 449 -7L365 -204Q351 -238 327 -246T250 -253ZM541 132Q611 132 643 162T674 269L654 927Q652 1012 622 1035T541 1058Q492 1058 461 1035T428 927L408
268Q406 192 438 162T541 132Z" />
<glyph unicode="&#xf9;" glyph-name="ugrave" horiz-adv-x="1086" d="M396 -12Q273 -12 202 59T126 268L101 1129Q101 1158 111 1173T156 1195T263 1202Q336 1202 370 1196T415 1174T425 1129L402 313Q400 226 441 197T530 167Q573 167 607 185T668 227L641 1129Q641
1158 651 1173T696 1195T803 1202Q876 1202 910 1196T955 1174T965 1129L934 57Q933 20 910 10T803 0Q726 0 706 10T683 57L681 104Q638 64 568 26T396 -12ZM546 1332Q498 1332 475 1337T439 1354T407 1391L235 1617Q217 1640 205 1659T193 1695Q193 1715 219 1724T327
1734Q410 1734 437 1723T486 1672L593 1472Q613 1435 627 1412T642 1369Q642 1332 546 1332Z" />
<glyph unicode="&#xfa;" glyph-name="uacute" horiz-adv-x="1086" d="M396 -12Q273 -12 202 59T126 268L101 1129Q101 1158 111 1173T156 1195T263 1202Q336 1202 370 1196T415 1174T425 1129L402 313Q400 226 441 197T530 167Q573 167 607 185T668 227L641 1129Q641
1158 651 1173T696 1195T803 1202Q876 1202 910 1196T955 1174T965 1129L934 57Q933 20 910 10T803 0Q726 0 706 10T683 57L681 104Q638 64 568 26T396 -12ZM539 1382Q443 1382 443 1419Q443 1438 457 1461T492 1522L599 1722Q620 1762 647 1773T758 1784Q841 1784
866 1775T892 1745Q892 1729 880 1710T850 1667L678 1441Q660 1417 647 1405T610 1387T539 1382Z" />
<glyph unicode="&#xfb;" glyph-name="ucircumflex" horiz-adv-x="1086" d="M396 -12Q273 -12 202 59T126 268L101 1129Q101 1158 111 1173T156 1195T263 1202Q336 1202 370 1196T415 1174T425 1129L402 313Q400 226 441 197T530 167Q573 167 607 185T668 227L641
1129Q641 1158 651 1173T696 1195T803 1202Q876 1202 910 1196T955 1174T965 1129L934 57Q933 20 910 10T803 0Q726 0 706 10T683 57L681 104Q638 64 568 26T396 -12ZM271 1362Q214 1362 192 1372T170 1401Q170 1422 184 1444T219 1504L342 1702Q368 1742 399 1757T519
1772H567Q656 1772 687 1757T744 1702L867 1504Q890 1468 903 1445T916 1401Q916 1382 894 1372T814 1362Q753 1362 732 1375T681 1421L580 1540Q558 1565 544 1565Q528 1565 504 1536L406 1421Q377 1387 356 1375T271 1362Z" />
<glyph unicode="&#xfc;" glyph-name="udieresis" horiz-adv-x="1086" d="M396 -12Q273 -12 202 59T126 268L101 1129Q101 1158 111 1173T156 1195T263 1202Q336 1202 370 1196T415 1174T425 1129L402 313Q400 226 441 197T530 167Q573 167 607 185T668 227L641
1129Q641 1158 651 1173T696 1195T803 1202Q876 1202 910 1196T955 1174T965 1129L934 57Q933 20 910 10T803 0Q726 0 706 10T683 57L681 104Q638 64 568 26T396 -12ZM758 1377Q674 1377 653 1387T628 1434L616 1605Q613 1648 638 1663T758 1678Q853 1678 878 1663T900
1605L889 1434Q887 1397 865 1387T758 1377ZM328 1377Q244 1377 223 1387T198 1434L186 1605Q183 1648 208 1663T328 1678Q423 1678 448 1663T470 1605L459 1434Q457 1397 435 1387T328 1377Z" />
<glyph unicode="&#xfd;" glyph-name="yacute" horiz-adv-x="958" d="M396 0Q336 0 314 10T282 57L24 1129Q14 1170 45 1186T186 1202Q259 1202 291 1196T334 1174T348 1129L481 240H505L610 1129Q614 1158 624 1173T667 1195T772 1202Q881 1202 912 1187T934 1129L706
119V119L602 -346Q592 -389 570 -404T471 -419Q403 -419 382 -403T369 -346L439 0H396ZM475 1382Q379 1382 379 1419Q379 1438 393 1461T428 1522L535 1722Q556 1762 583 1773T694 1784Q777 1784 802 1775T828 1745Q828 1729 816 1710T786 1667L614 1441Q596 1417
583 1405T546 1387T475 1382Z" />
<glyph unicode="&#xfe;" glyph-name="thorn" horiz-adv-x="1087" d="M283 -419Q198 -419 176 -410T153 -363L120 1651Q120 1680 130 1695T175 1717T282 1724Q355 1724 389 1718T434 1697T444 1652L436 1106Q482 1150 540 1182T671 1214Q811 1214 896 1121T976
883L958 320Q952 139 877 64T672 -12Q588 -12 525 16T420 80L413 -362Q412 -399 390 -409T283 -419ZM554 1007Q521 1007 489 993T433 959L422 212Q444 194 476 181T547 167Q611 167 647 207T682 320L667 883Q666 952 632 979T554 1007Z" />
<glyph unicode="&#xff;" glyph-name="ydieresis" horiz-adv-x="958" d="M396 0Q336 0 314 10T282 57L24 1129Q14 1170 45 1186T186 1202Q259 1202 291 1196T334 1174T348 1129L481 240H505L610 1129Q614 1158 624 1173T667 1195T772 1202Q881 1202 912 1187T934
1129L706 119V119L602 -346Q592 -389 570 -404T471 -419Q403 -419 382 -403T369 -346L439 0H396ZM950 1377Q866 1377 845 1387T820 1434L808 1605Q805 1648 830 1663T950 1678Q1045 1678 1070 1663T1092 1605L1081 1434Q1079 1397 1057 1387T950 1377ZM520 1377Q436
1377 415 1387T390 1434L378 1605Q375 1648 400 1663T520 1678Q615 1678 640 1663T662 1605L651 1434Q649 1397 627 1387T520 1377Z" />
<glyph unicode="&#x2013;" glyph-name="endash" horiz-adv-x="1279" d="M182 480Q130 480 120 503T110 588Q110 656 120 681T182 706H1097Q1150 706 1159 681T1169 587Q1169 526 1160 503T1097 480H182Z" />
<glyph unicode="&#x2014;" glyph-name="emdash" horiz-adv-x="2050" d="M182 480Q130 480 120 503T110 588Q110 656 120 681T182 706H1868Q1921 706 1930 681T1940 587Q1940 526 1931 503T1868 480H182Z" />
<glyph unicode="&#x2018;" glyph-name="quoteleft" horiz-adv-x="520" d="M376 1724Q426 1724 448 1717T470 1684Q470 1670 459 1647T427 1577L304 1280H361Q403 1280 415 1260T428 1215L438 1079Q441 1036 411 1021T265 1006Q184 1006 144 1012T92 1035T81 1079L88
1220Q90 1264 94 1293T115 1360L248 1656Q269 1700 291 1712T376 1724Z" />
<glyph unicode="&#x2019;" glyph-name="quoteright" horiz-adv-x="520" d="M144 1006Q95 1006 73 1013T50 1046Q50 1060 62 1083T93 1153L216 1450H159Q117 1450 106 1470T92 1515L82 1651Q79 1694 109 1709T255 1724Q337 1724 376 1718T428 1696T439 1651L432
1510Q430 1466 426 1437T405 1370L272 1074Q251 1031 229 1019T144 1006Z" />
<glyph unicode="&#x201a;" glyph-name="quotesinglbase" horiz-adv-x="520" d="M144 -379Q95 -379 73 -372T50 -339Q50 -325 62 -302T93 -232L216 65H159Q117 65 106 85T92 130L82 266Q79 309 109 324T255 339Q337 339 376 333T428 311T439 266L432 125Q430 81
426 52T405 -15L272 -311Q251 -354 229 -366T144 -379Z" />
<glyph unicode="&#x201c;" glyph-name="quotedblleft" horiz-adv-x="950" d="M376 1724Q426 1724 448 1717T470 1684Q470 1670 459 1647T427 1577L304 1280H361Q403 1280 415 1260T428 1215L438 1079Q441 1036 411 1021T265 1006Q184 1006 144 1012T92 1035T81
1079L88 1220Q90 1264 94 1293T115 1360L248 1656Q269 1700 291 1712T376 1724ZM806 1724Q856 1724 878 1717T900 1684Q900 1670 889 1647T857 1577L734 1280H791Q833 1280 845 1260T858 1215L868 1079Q871 1036 841 1021T695 1006Q614 1006 574 1012T522 1035T511
1079L518 1220Q520 1264 524 1293T545 1360L678 1656Q699 1700 721 1712T806 1724Z" />
<glyph unicode="&#x201d;" glyph-name="quotedblright" horiz-adv-x="962" d="M144 1006Q95 1006 73 1013T50 1046Q50 1060 62 1083T93 1153L216 1450H159Q117 1450 106 1470T92 1515L82 1651Q79 1694 109 1709T255 1724Q337 1724 376 1718T428 1696T439 1651L432
1510Q430 1466 426 1437T405 1370L272 1074Q251 1031 229 1019T144 1006ZM586 1006Q537 1006 515 1013T492 1046Q492 1060 504 1083T535 1153L658 1450H601Q559 1450 548 1470T534 1515L524 1651Q521 1694 551 1709T697 1724Q779 1724 818 1718T870 1696T881 1651L874
1510Q872 1466 868 1437T847 1370L714 1074Q693 1031 671 1019T586 1006Z" />
<glyph unicode="&#x201e;" glyph-name="quotedblbase" horiz-adv-x="962" d="M144 -377Q95 -377 73 -370T50 -337Q50 -323 62 -300T93 -230L216 67H159Q117 67 106 87T92 132L82 268Q79 311 109 326T255 341Q337 341 376 335T428 313T439 268L432 127Q430 83 426
54T405 -13L272 -309Q251 -352 229 -364T144 -377ZM586 -377Q537 -377 515 -370T492 -337Q492 -323 504 -300T535 -230L658 67H601Q559 67 548 87T534 132L524 268Q521 311 551 326T697 341Q779 341 818 335T870 313T881 268L874 127Q872 83 868 54T847 -13L714
-309Q693 -352 671 -364T586 -377Z" />
<glyph unicode="&#x2022;" glyph-name="bullet" horiz-adv-x="763" d="M379 480Q260 480 192 525T117 689L110 836Q105 946 175 995T379 1045Q512 1045 582 996T648 836L641 689Q635 571 567 526T379 480Z" />
<glyph unicode="&#x2039;" glyph-name="guilsinglleft" horiz-adv-x="668" d="M477 170Q434 170 401 176T341 216L82 525Q63 548 57 562T50 593Q50 609 56 621T77 661L266 1027Q290 1074 328 1081T447 1089Q527 1089 557 1080T588 1046Q588 1030 581 1015T554
968L313 593L542 291Q565 260 576 243T588 210Q588 185 568 178T477 170Z" />
<glyph unicode="&#x203a;" glyph-name="guilsinglright" horiz-adv-x="668" d="M191 170Q120 170 100 177T80 210Q80 226 91 243T126 291L355 593L114 968Q94 1000 87 1015T80 1046Q80 1071 110 1080T221 1089Q302 1089 340 1082T402 1027L591 661Q606 634 612
622T618 593Q618 577 612 563T586 525L327 216Q300 182 267 176T191 170Z" />
</font>
</defs>
</svg>
