<?xml version="1.0" standalone="no"?>
<!DOCTYPE svg PUBLIC "-//W3C//DTD SVG 1.1//EN" "http://www.w3.org/Graphics/SVG/1.1/DTD/svg11.dtd">
<svg xmlns="http://www.w3.org/2000/svg">
<defs >
<font id="MontaguSlab" horiz-adv-x="566" ><font-face
    font-family="Montagu Slab 144pt"
    units-per-em="1000"
    panose-1="0 0 0 0 0 0 0 0 0 0"
    ascent="982"
    descent="-300"
    alphabetic="0" />
<glyph unicode=" " horiz-adv-x="214" />
<glyph unicode="!" horiz-adv-x="279" d="M117 209Q110 298 104 361T94 468T87 541T83 589T81 624Q81 655 96 672T140 690Q167 690 182 673T198 624Q198 608 197 589T193 541T186 469T176 362T162 209H117ZM140 -8Q109 -8 90 11T71 59Q71 88 90 107T140 126Q171
126 189 107T208 59Q208 30 190 11T140 -8Z" />
<glyph unicode="&quot;" horiz-adv-x="409" d="M46 457Q88 465 112 495T137 566Q131 564 125 563T112 561Q84 561 68 579T51 623Q51 653 68 671T115 690Q144 690 163 669T183 607Q183 550 166 511T118 450T46 423V457ZM221 457Q262 465 286 495T311 566Q306 564
300 563T286 561Q258 561 242 579T226 623Q226 653 243 671T290 690Q319 690 338 669T358 607Q358 550 341 511T293 450T221 423V457Z" />
<glyph unicode="#" horiz-adv-x="635" d="M361 0L439 682H493L415 0H361ZM54 179V229H581V179H54ZM143 0L221 682H274L196 0H143ZM54 453V503H581V453H54Z" />
<glyph unicode="$" horiz-adv-x="685" d="M329 -100V782H382V-100H329ZM400 -13Q330 -13 269 13T165 95T105 243H132Q154 176 192 131T281 62T390 39Q460 39 498 71T537 164Q537 206 517 230T463 268T388 289L308 304Q242 315 190 337T107 400T76 506Q76 571 104
612T182 674T298 694Q363 694 419 670T517 591T574 448H547Q518 546 454 595T311 644Q241 644 203 614T164 525Q164 486 182 462T233 425T306 403L385 389Q455 378 509 356T595 293T627 186Q627 120 599 76T520 9T400 -13ZM79 0V243H105L132 195V0H79ZM574 448L547
495V682H600V448H574Z" />
<glyph unicode="%" horiz-adv-x="851" d="M154 0L624 682H693L224 0H154ZM224 388Q177 388 140 406T83 458T62 540Q62 587 82 621T140 673T224 691Q296 691 342 651T388 539Q388 469 342 429T224 388ZM224 430Q265 430 289 460T314 542Q314 592 290 620T224 649Q184
649 160 620T136 540Q136 488 160 459T224 430ZM623 -9Q553 -9 508 31T462 142Q462 213 507 253T623 294Q696 294 742 254T788 142Q788 72 742 32T623 -9ZM623 33Q665 33 690 62T715 144Q715 194 690 223T623 252Q583 252 559 223T535 142Q535 91 559 62T623 33Z"
/>
<glyph unicode="&amp;" horiz-adv-x="794" d="M687 282H734V113Q734 59 709 27T629 -5Q594 -5 569 7T523 38T483 78L241 347Q218 374 196 402T159 464T144 540Q144 589 166 623T227 676T319 694Q393 694 436 659T480 558Q480 511 458 479T398 426T315 387L290
377Q263 367 237 354T189 320T154 272T141 206Q141 160 164 123T228 65T325 43Q453 43 517 137T589 403H503V450H725V403H639Q635 311 616 235T557 103T457 18T308 -12Q231 -12 174 14T85 87T53 196Q53 246 71 281T118 340T182 379T247 407L283 420Q321 435 349
453T392 496T408 557Q408 602 384 626T319 651Q276 651 250 625T223 548Q223 505 245 471T298 402L560 110Q577 91 595 76T637 60Q663 60 675 76T687 119V282Z" />
<glyph unicode="&apos;" horiz-adv-x="243" d="M46 458Q91 466 116 495T143 566Q137 564 131 563T117 561Q86 561 69 579T51 623Q51 653 70 671T120 690Q151 690 171 669T192 607Q192 549 174 510T123 449T46 423V458Z" />
<glyph unicode="(" horiz-adv-x="310" d="M65 284Q65 359 80 421T119 534T171 624T227 693H273Q244 642 218 582T174 448T157 284H65ZM227 -125Q200 -96 172 -57T119 33T80 146T65 284H157Q157 193 174 120T217 -14T273 -125H227Z" />
<glyph unicode=")" horiz-adv-x="310" d="M153 284Q153 375 136 448T93 581T37 693H83Q110 663 138 624T191 535T230 422T245 284H153ZM37 -125Q66 -74 92 -14T136 119T153 284H245Q245 209 230 147T191 34T139 -56T83 -125H37Z" />
<glyph unicode="*" horiz-adv-x="457" d="M223 500Q219 540 215 574T209 633T206 668Q206 694 228 694Q239 694 244 688T250 668Q250 658 248 634T242 575T233 500H223ZM233 500Q238 461 242 427T248 368T250 333Q250 320 245 314T228 307Q206 307 206 333Q206
344 208 368T215 426T223 500H233ZM228 505Q268 510 302 514T361 520T396 523Q422 523 422 500Q422 490 416 484T396 478Q386 478 362 480T303 487T228 496V505ZM228 496Q189 491 155 487T96 481T61 478Q48 478 41 484T34 500Q34 523 61 523Q72 523 96 521T154
514T228 505V496ZM225 504Q250 536 271 562T308 608T331 634Q350 653 365 637Q373 630 372 621T362 603Q355 596 336 581T291 544T232 497L225 504ZM232 497Q207 466 186 439T149 393T126 366Q116 357 108 357T91 364Q75 379 94 398Q102 405 121 420T167 457T225
504L232 497ZM225 497Q194 522 167 543T121 580T94 603Q75 622 91 637Q99 645 107 644T126 634Q133 627 148 608T185 563T232 504L225 497ZM232 504Q264 479 290 458T336 421T362 398Q371 389 372 380T365 364Q351 346 331 366Q324 374 309 392T272 438T225 497L232
504Z" />
<glyph unicode="+" horiz-adv-x="550" d="M240 125V558H311V125H240ZM62 308V375H489V308H62Z" />
<glyph unicode="," horiz-adv-x="243" d="M46 -107Q91 -99 116 -70T143 1Q137 -1 131 -2T117 -4Q86 -4 69 14T51 58Q51 88 70 106T120 125Q151 125 171 104T192 42Q192 -16 174 -55T123 -116T46 -142V-107Z" />
<glyph unicode="-" horiz-adv-x="428" d="M62 233V291H367V233H62Z" />
<glyph unicode="." horiz-adv-x="243" d="M121 -8Q90 -8 72 11T53 59Q53 88 71 107T121 126Q153 126 171 107T190 59Q190 30 172 11T121 -8Z" />
<glyph unicode="/" horiz-adv-x="315" d="M40 0L219 682H276L97 0H40Z" />
<glyph unicode="0" horiz-adv-x="662" d="M331 -11Q247 -11 185 30T87 151T52 341Q52 453 87 531T184 651T331 693Q415 693 478 652T575 532T610 341Q610 230 576 151T478 31T331 -11ZM331 36Q386 36 425 73T484 178T505 341Q505 436 485 504T425 609T331 646Q277
646 238 609T178 504T157 341Q157 247 178 179T238 73T331 36Z" />
<glyph unicode="1" horiz-adv-x="423" d="M68 0V47H199V513H42V562H94Q145 562 172 572T211 607T226 670L227 682H295V47H395V0H68Z" />
<glyph unicode="2" horiz-adv-x="624" d="M66 18Q66 94 89 146T154 235T253 302L319 339Q343 352 367 367T411 403T443 450T455 510L550 499Q550 449 532 411T485 346T419 298T345 262L280 231Q232 210 197 189T141 141T113 75L66 0V18ZM66 0V18L113 75H551V0H66ZM429
75Q472 75 485 91T499 151V207H551V75H429ZM150 430Q133 430 118 438T93 462T83 503Q83 564 114 605T199 668T319 690Q384 690 436 670T519 607T550 499L455 510Q455 554 435 583T381 626T304 640Q260 640 223 626T163 585T135 514L129 532Q164 533 185 520T206
480Q206 457 191 444T150 430Z" />
<glyph unicode="3" horiz-adv-x="599" d="M306 -8Q228 -8 171 19T84 101T55 236H101Q103 180 127 142T192 84T284 64Q365 64 407 104T450 206Q450 252 427 285T355 335T231 350V388Q342 396 411 373T513 303T546 195Q546 137 519 91T438 19T306 -8ZM231 394Q332
394 383 427T435 524Q435 580 394 610T289 640Q244 640 208 629T150 595T123 539L117 557Q150 559 170 547T190 512Q190 490 176 478T136 465Q109 465 90 482T70 533Q70 583 101 618T186 671T304 690Q368 690 418 671T497 616T526 530Q526 449 450 411T231 376V394Z"
/>
<glyph unicode="4" horiz-adv-x="616" d="M191 0V48H345V652L353 682H441V48H532V0H191ZM16 217V263L41 268H588V217H16ZM16 263L353 682L352 600L82 263H16Z" />
<glyph unicode="5" horiz-adv-x="613" d="M307 -8Q232 -8 178 20T94 100T64 219H110Q114 177 135 141T194 83T288 61Q343 61 380 82T436 142T455 227Q455 273 435 308T378 364T293 385Q237 385 198 360T135 302L119 330Q137 366 164 393T232 436T327 452Q387 452
437 427T519 352T550 229Q550 158 521 105T437 22T307 -8ZM79 302L114 682H165L134 326L135 302H79ZM152 608L114 682H517V608H152ZM466 545Q466 582 452 595T396 608H517V513H466V545Z" />
<glyph unicode="6" horiz-adv-x="622" d="M52 313Q52 436 87 520T188 647T342 690Q381 690 417 681T482 653T527 607T544 542Q544 512 526 497T482 481Q456 481 440 493T424 528Q424 554 445 565T498 575L492 549Q489 582 469 602T420 633T355 643Q306 643 267
621T200 553T160 439T154 274L52 313ZM318 -8Q237 -8 177 27T85 134T52 313L154 274Q165 344 216 387T350 431Q411 431 459 407T535 335T564 219Q564 149 534 98T448 20T318 -8ZM319 38Q363 38 397 58T450 116T469 206Q469 259 450 296T397 354T319 375Q275 375
242 355T189 296T170 206Q170 154 189 117T241 59T319 38Z" />
<glyph unicode="7" horiz-adv-x="619" d="M209 0Q212 111 236 202T301 366T398 500T516 608L568 613Q510 552 464 487T385 349T336 189T316 0H209ZM60 471V608H182Q139 608 126 592T112 532V471H60ZM60 608V682H568V613L516 608H60Z" />
<glyph unicode="8" horiz-adv-x="644" d="M318 -8Q243 -8 184 12T91 72T57 170Q57 228 90 266T175 324T283 349L290 335Q254 328 221 308T165 256T143 180Q143 135 166 103T229 53T321 36Q395 36 442 71T489 170Q489 214 464 242T400 287T320 312L290 318Q250
327 212 341T142 378T93 432T74 510Q74 572 108 611T199 670T322 690Q389 690 443 672T528 620T560 533Q560 481 530 447T452 394T349 370L342 383Q378 393 408 411T456 457T474 523Q474 563 453 590T397 632T319 647Q278 647 244 634T190 596T170 533Q170 495
191 470T245 429T318 405L348 399Q390 390 432 375T509 337T565 278T587 191Q587 96 515 44T318 -8Z" />
<glyph unicode="9" horiz-adv-x="622" d="M570 369Q571 246 535 162T434 35T280 -8Q241 -8 205 1T140 29T95 75T78 140Q78 170 96 185T140 201Q166 201 182 189T198 154Q198 129 177 118T124 107L130 133Q134 101 153 80T203 49T267 39Q316 39 355 61T422 129T462
244T468 408L570 369ZM304 690Q386 690 445 655T538 548T570 369L468 408Q458 338 407 295T272 251Q212 251 164 275T87 347T58 463Q58 533 88 584T174 662T304 690ZM303 644Q259 644 225 624T172 566T153 476Q153 424 172 386T225 328T303 307Q347 307 380 327T433
386T452 476Q452 528 433 565T381 623T303 644Z" />
<glyph unicode=":" horiz-adv-x="243" d="M121 377Q90 377 72 396T53 444Q53 473 71 492T121 511Q153 511 171 492T190 444Q190 415 172 396T121 377ZM121 -8Q90 -8 72 11T53 59Q53 88 71 107T121 126Q153 126 171 107T190 59Q190 30 172 11T121 -8Z" />
<glyph unicode=";" horiz-adv-x="243" d="M121 377Q90 377 72 396T53 444Q53 473 71 492T121 511Q153 511 171 492T190 444Q190 415 172 396T121 377ZM46 -107Q91 -99 116 -70T143 1Q137 -1 131 -2T117 -4Q86 -4 69 14T51 58Q51 88 70 106T120 125Q151 125 171
104T192 42Q192 -16 174 -55T123 -116T46 -142V-107Z" />
<glyph unicode="&lt;" horiz-adv-x="550" d="M488 208V137L61 310V373L488 546V475L147 342L488 208Z" />
<glyph unicode="=" horiz-adv-x="550" d="M62 405V473H489V405H62ZM62 210V278H489V210H62Z" />
<glyph unicode="&gt;" horiz-adv-x="550" d="M62 208L403 342L62 475V546L489 373V310L62 137V208Z" />
<glyph unicode="?" horiz-adv-x="507" d="M99 457Q73 457 53 475T33 527Q33 583 61 621T138 678T247 698Q311 698 362 679T442 621T472 522L378 528Q379 571 360 599T308 641T234 655Q197 655 164 642T108 603T82 536L78 555Q113 556 134 544T155 506Q155 484
141 471T99 457ZM224 209Q207 265 216 307T269 380Q295 399 320 419T362 465T378 528L472 522Q472 482 458 451T420 398T372 358T324 327Q302 313 290 297T273 260T269 209H224ZM248 -8Q217 -8 198 11T179 59Q179 88 198 107T248 126Q280 126 298 107T316 59Q316
30 298 11T248 -8Z" />
<glyph unicode="@" horiz-adv-x="913" d="M691 39Q636 39 608 71T579 154V198H564V336H560L565 369V401L640 388V153Q640 125 654 108T696 90Q741 90 766 145T791 294V305H841V294Q841 174 803 107T691 39ZM401 39Q336 39 297 72T258 164Q258 204 275 230T325
273T399 300L464 316Q494 323 517 332T552 357T565 399L568 336H564Q555 314 533 302T474 281L439 272Q411 265 389 254T353 224T339 178Q339 138 364 117T432 95Q468 95 498 111T546 162T564 256L587 252Q587 177 564 130T500 61T401 39ZM346 349Q323 349 307
364T291 408Q291 449 317 475T384 514T474 527Q554 527 597 493T640 388L565 401Q565 445 538 467T457 489Q425 489 397 481T351 455T330 409L331 432Q359 432 375 422T392 390Q392 371 380 360T346 349ZM69 299Q69 428 117 517T255 651T466 697Q587 697 670 650T797
517T841 313V305H791V313Q791 415 754 491T645 610T466 653Q300 653 210 560T119 299H69ZM700 -73Q654 -104 596 -120T471 -136Q347 -136 257 -87T118 54T69 277V299H119V277Q119 163 160 81T281 -47T471 -92Q534 -92 587 -77T682 -33L700 -73Z" />
<glyph unicode="A" horiz-adv-x="789" d="M19 0V48H93L353 687H436L696 48H770V0H464V48H588L357 627H389L154 48H278V0H19ZM205 218V269H541V218H205Z" />
<glyph unicode="B" horiz-adv-x="698" d="M21 0V48H121V634H23V682H221V0H21ZM221 0V52H408Q479 52 520 86T562 187Q562 253 521 287T408 322H221V354H438Q542 354 602 313T663 184Q663 93 602 47T440 0H221ZM221 349V373H384Q452 373 492 405T532 502Q532 566
492 598T384 631H221V682H416Q513 682 572 640T632 513Q632 430 575 390T423 349H221Z" />
<glyph unicode="C" horiz-adv-x="732" d="M378 -13Q281 -13 206 29T88 150T45 341Q45 453 87 532T202 653T369 695Q459 695 520 661T614 566T647 422H620Q616 480 592 530T521 611T398 643Q326 643 271 607T183 504T151 347Q151 259 183 194T272 93T400 57Q473
57 522 87T597 169T627 283H676Q674 203 641 136T542 28T378 -13ZM647 422L618 488V682H672V422H647Z" />
<glyph unicode="D" horiz-adv-x="746" d="M221 0V52H334Q412 52 470 87T561 188T594 341Q594 430 562 495T471 595T334 631H221V682H343Q451 682 532 642T657 526T702 341Q702 233 658 157T532 40T343 0H221ZM21 0V48H121V634H23V682H221V0H21Z" />
<glyph unicode="E" horiz-adv-x="689" d="M21 0V48H121V634H23V682H221V0H21ZM221 0V52H625V0H221ZM402 252Q402 295 386 312T329 330H449V147H402V252ZM221 330V381H449V330H221ZM497 52Q541 52 557 70T574 134V264H625V52H497ZM329 381Q370 381 386 398T402
459V540H449V381H329ZM221 631V682H618V631H221ZM567 548Q567 595 550 613T489 631H618V427H567V548Z" />
<glyph unicode="F" horiz-adv-x="649" d="M21 0V48H121V634H23V682H221V48H398V0H21ZM221 631V682H604V631H221ZM221 323V373H445V323H221ZM552 548Q552 594 536 612T475 631H604V423H552V548ZM325 373Q366 373 382 391T398 452V539H445V373H325ZM398 245Q398
289 382 306T325 323H445V149H398V245Z" />
<glyph unicode="G" horiz-adv-x="786" d="M378 -14Q283 -14 208 28T89 149T45 341Q45 453 88 532T205 653T371 695Q457 695 514 664T602 575T633 436H610Q606 492 583 538T515 612T400 640Q328 640 273 603T187 499T155 341Q155 251 186 185T275 82T406 45Q480
45 529 77T603 165T629 286H653Q653 201 625 133T536 26T378 -14ZM630 0V200L653 286H683V0H630ZM368 286V337H777V286H368ZM633 436L610 497V682H663V436H633Z" />
<glyph unicode="H" horiz-adv-x="783" d="M21 0V48H121V634H23V682H328V634H221V48H329V0H21ZM454 0V48H562V634H455V682H760V634H662V48H762V0H454ZM221 321V373H562V321H221Z" />
<glyph unicode="I" horiz-adv-x="358" d="M20 0V48H129V634H22V682H336V634H229V48H338V0H20Z" />
<glyph unicode="J" horiz-adv-x="546" d="M237 -11Q175 -11 130 11T61 79T36 191V269H88V192Q88 127 120 92T212 56Q272 56 304 91T337 192V634H162V682H534V634H436V193Q436 90 383 40T237 -11Z" />
<glyph unicode="K" horiz-adv-x="768" d="M202 236L165 277L563 634H441V682H711V634H647L202 236ZM21 0V48H121V634H23V682H324V634H221V48H318V0H21ZM445 0V48H552L292 341L362 401L676 48H741V0H445Z" />
<glyph unicode="L" horiz-adv-x="652" d="M21 0V48H121V634H23V682H396V634H221V0H21ZM221 0V52H607V0H221ZM478 52Q522 52 538 70T555 134V260H607V52H478Z" />
<glyph unicode="M" horiz-adv-x="948" d="M424 0L177 551V682H222L483 96H466L722 682H729V561L484 0H424ZM21 0V48H121V634H23V682H177V48H286V0H21ZM620 0V48H729V682H925V634H827V48H927V0H620Z" />
<glyph unicode="N" horiz-adv-x="764" d="M606 0L177 548L193 682L607 152L606 0ZM21 0V48H121V634H23V682H193L177 548V48H286V0H21ZM606 0L603 152H607V634H500V682H758V634H663V0H606Z" />
<glyph unicode="O" horiz-adv-x="797" d="M399 -13Q294 -13 215 29T90 150T45 341Q45 453 90 532T214 653T399 695Q504 695 583 653T708 532T753 341Q753 229 708 150T584 29T399 -13ZM399 38Q474 38 528 74T612 179T642 341Q642 435 613 503T529 607T399 644Q325
644 270 608T185 503T155 341Q155 247 185 179T270 75T399 38Z" />
<glyph unicode="P" horiz-adv-x="679" d="M21 0V48H121V634H23V682H221V48H407V0H21ZM221 301V352H387Q461 352 504 387T547 491Q547 561 504 596T387 631H221V682H420Q523 682 585 635T647 491Q647 397 585 349T420 301H221Z" />
<glyph unicode="Q" horiz-adv-x="799" d="M399 -14Q295 -14 215 28T90 149T45 341Q45 453 90 532T215 653T399 695Q504 695 584 653T709 532T754 341Q754 229 709 150T584 28T399 -14ZM399 35Q476 35 532 71T618 176T648 341Q648 435 618 503T532 609T399 646Q322
646 266 609T180 504T150 341Q150 247 180 178T266 72T399 35ZM309 129Q309 187 338 216T414 245Q461 245 489 216T517 129V0H449V136Q449 193 403 193Q381 193 369 179T356 136V14H309V129ZM553 -163Q507 -163 478 -135T449 -49V0H517V-56Q517 -112 564 -112Q586
-112 598 -98T610 -56V-8H654V-49Q654 -106 627 -134T553 -163Z" />
<glyph unicode="R" horiz-adv-x="723" d="M21 0V48H121V634H23V682H221V48H330V0H21ZM557 -9Q514 -9 488 7T447 54T427 124L419 192Q412 252 385 283T301 315H221V333H343Q431 333 471 293T516 166L521 117Q523 90 534 74T571 57Q597 57 608 73T620 117V284H673V118Q673
60 647 26T557 -9ZM221 315V365H407Q480 365 522 398T564 498Q564 565 522 598T407 631H221V682H441Q541 682 603 637T665 503Q665 415 603 372T441 329H361L345 315H221Z" />
<glyph unicode="S" horiz-adv-x="678" d="M393 -13Q323 -13 262 13T158 95T98 243H125Q147 176 185 131T274 62T383 39Q453 39 491 71T530 164Q530 206 510 230T456 268T381 289L301 304Q235 315 183 337T100 400T69 506Q69 571 97 612T175 674T291 694Q356 694
412 670T510 591T567 448H540Q511 546 447 595T304 644Q234 644 196 614T157 525Q157 486 175 462T226 425T299 403L378 389Q448 378 502 356T588 293T620 186Q620 120 592 76T513 9T393 -13ZM72 0V243H98L125 195V0H72ZM567 448L540 495V682H593V448H567Z" />
<glyph unicode="T" horiz-adv-x="735" d="M164 0V48H318V682H418V48H572V0H164ZM45 432V631H173Q130 631 113 613T96 548V432H45ZM45 631V682H690V631H45ZM639 548Q639 595 623 613T562 631H690V432H639V548Z" />
<glyph unicode="U" horiz-adv-x="772" d="M385 -11Q246 -11 177 60T107 262V634H12V682H314V634H207V247Q207 153 255 99T403 44Q504 44 551 98T599 247V634H492V682H760V634H665V262Q665 132 595 61T385 -11Z" />
<glyph unicode="V" horiz-adv-x="783" d="M352 -5L92 634H19V682H323V634H200L430 55H396L630 634H507V682H764V634H691L431 -5H352Z" />
<glyph unicode="W" horiz-adv-x="1057" d="M677 -3L464 634H391V682H687V634H565L752 57H715L906 634H785V682H1039V634H966L754 -3H677ZM304 -3L91 634H18V682H301V634H194L381 57H346L508 545L536 465L380 -3H304Z" />
<glyph unicode="X" horiz-adv-x="769" d="M27 0V48H96L359 376H426L677 48H744V0H431V48H554L349 319H384L168 48H289V0H27ZM340 325L103 634H38V682H345V634H227L418 381H383L584 634H467V682H723V634H657L407 325H340Z" />
<glyph unicode="Y" horiz-adv-x="761" d="M334 263L87 634H21V682H324V634H204L414 317H395L607 634H487V682H741V634H675L426 263H334ZM177 0V48H331V323H431V48H585V0H177Z" />
<glyph unicode="Z" horiz-adv-x="682" d="M59 47L497 631L621 634L184 52L59 47ZM59 0V47L184 52H616V0H59ZM82 423V631H210Q167 631 150 613T133 548V423H82ZM488 52Q532 52 548 70T565 133V268H616V52H488ZM82 631V682H621V634L497 631H82Z" />
<glyph unicode="[" horiz-adv-x="362" d="M99 -125V693H195V-125H99ZM99 -125V-76H336V-125H99ZM99 644V693H336V644H99Z" />
<glyph unicode="\" horiz-adv-x="315" d="M275 0H218L39 682H96L275 0Z" />
<glyph unicode="]" horiz-adv-x="362" d="M263 -125H167V693H263V-125ZM263 -125H26V-76H263V-125ZM263 644H26V693H263V644Z" />
<glyph unicode="^" horiz-adv-x="443" d="M339 324L219 600L101 324H32L193 682H250L412 324H339Z" />
<glyph unicode="_" horiz-adv-x="647" d="M62 -106V-48H585V-106H62Z" />
<glyph unicode="`" horiz-adv-x="260" d="M160 564L39 703H138L221 564H160Z" />
<glyph unicode="a" horiz-adv-x="631" d="M143 317Q118 317 100 333T81 381Q81 427 109 456T184 499T282 514Q369 514 415 477T462 363L373 376Q373 423 345 447T261 471Q228 471 199 462T150 433T127 383L125 411Q157 411 177 400T197 364Q197 342 183 330T143
317ZM490 -9Q436 -9 409 22T382 109V168H372V305H368L373 340V376L462 363V106Q462 84 473 70T505 55Q527 55 538 69T549 106V317H600V110Q600 55 573 23T490 -9ZM199 -9Q127 -9 85 27T42 122Q42 166 61 194T114 241T193 270L274 289Q305 297 327 306T361 331T373
374L377 305H372Q364 286 344 274T286 251L239 239Q207 230 185 218T152 187T140 141Q140 101 166 79T235 56Q272 56 303 72T353 125T372 222L391 217Q392 138 369 88T302 15T199 -9Z" />
<glyph unicode="b" horiz-adv-x="620" d="M357 -10Q289 -10 244 22T176 113T153 250L158 252Q158 332 179 390T245 481T358 513Q422 513 471 483T547 394T575 251Q575 168 548 110T471 21T357 -10ZM325 45Q369 45 402 69T453 140T472 251Q472 317 454 363T402
434T325 458Q280 458 247 434T194 364T175 251Q175 186 194 140T246 70T325 45ZM85 0V635H3V682H181V356L163 254L174 149V0H85Z" />
<glyph unicode="c" horiz-adv-x="543" d="M284 -11Q213 -11 159 19T74 109T43 252Q43 336 74 394T162 483T292 513L309 471Q255 471 217 446T158 374T138 264Q138 203 158 157T216 86T304 61Q341 61 369 73T415 105T444 151T458 202H504Q502 159 488 120T446 52T379
6T284 -11ZM433 294Q407 294 392 308T376 344Q376 371 398 384T454 395L452 366Q449 393 433 417T386 456T309 471L292 513Q356 513 402 492T472 436T497 362Q497 330 480 312T433 294Z" />
<glyph unicode="d" horiz-adv-x="635" d="M263 -10Q199 -10 150 20T74 109T46 251Q46 336 73 394T150 482T263 513Q332 513 376 481T441 391T462 252L467 250Q468 172 446 114T378 23T263 -10ZM295 45Q340 45 373 69T426 140T445 251Q445 317 426 363T374 434T295
458Q250 458 217 434T166 364T148 251Q148 186 166 140T217 70T295 45ZM447 0V149L456 254L439 356V634H355V682H535V48H618V0H447Z" />
<glyph unicode="e" horiz-adv-x="558" d="M286 -9Q215 -9 160 22T74 111T43 251Q43 334 74 392T160 481T286 512L288 466Q243 466 210 444T158 376T139 259Q139 165 185 112T310 59Q362 59 395 80T446 133T467 197H512Q511 160 497 123T455 57T385 9T286 -9ZM94
264V310H420L514 279V264H94ZM420 310Q419 355 404 390T360 446T288 466L286 512Q361 512 411 483T488 401T514 279L420 310Z" />
<glyph unicode="f" horiz-adv-x="420" d="M41 0V48H132V522L227 544V48H377V0H41ZM11 452V503H391V452H11ZM132 522Q132 588 155 630T223 692T330 712L336 673Q284 673 256 642T227 543L132 522ZM408 574Q387 574 373 585T359 616Q359 637 376 647T419 658L414
640Q407 657 387 665T336 673L330 712Q368 712 398 702T447 672T465 627Q465 604 450 589T408 574Z" />
<glyph unicode="g" horiz-adv-x="596" d="M232 -186Q155 -186 111 -160T66 -78Q66 -45 83 -24T128 8T186 22L191 14Q180 9 167 -1T146 -25T137 -60Q137 -100 166 -120T249 -141H360Q402 -141 427 -130T464 -99T476 -56Q476 -24 456 -8T398 9H168Q107 9 69 39T30
120Q30 157 48 181T96 219T164 232L169 211Q139 209 120 194T101 149Q101 121 119 105T174 88H420Q489 88 525 57T561 -29Q561 -74 540 -109T474 -165T360 -186H232ZM290 174Q226 174 178 194T104 251T78 341Q78 419 136 463T293 507L402 458Q438 448 467 418T496
332Q496 259 441 217T290 174ZM290 216Q343 216 374 250T405 341Q405 397 374 431T290 465Q238 465 207 431T176 341Q176 284 207 250T290 216ZM402 458L293 507H566V458H402Z" />
<glyph unicode="h" horiz-adv-x="610" d="M15 0V48H106V634H22V682H202V48H290V0H15ZM335 0V48H423V353Q423 403 398 426T329 450Q296 450 267 435T220 386T202 299H192Q192 372 211 418T270 488T367 511Q434 511 476 474T519 355V48H592V0H335Z" />
<glyph unicode="i" horiz-adv-x="305" d="M16 0V48H110V455H26V503H205V48H288V0H16ZM152 575Q125 575 109 591T92 636Q92 663 108 679T152 696Q179 696 195 680T212 636Q212 608 196 592T152 575Z" />
<glyph unicode="j" horiz-adv-x="275" d="M111 -53V455H27V503H208V-14L111 -53ZM-41 -72Q-21 -72 -8 -82T6 -111Q6 -133 -10 -143T-52 -154L-44 -134Q-39 -150 -22 -158T23 -166L31 -206Q-24 -206 -60 -184T-97 -124Q-97 -101 -82 -87T-41 -72ZM23 -166Q67 -166
89 -139T111 -53L208 -14Q208 -83 187 -125T126 -186T31 -206L23 -166ZM156 575Q129 575 113 591T96 636Q96 663 112 679T156 696Q183 696 199 680T216 636Q216 608 200 592T156 575Z" />
<glyph unicode="k" horiz-adv-x="621" d="M15 0V48H106V634H22V682H202V48H274V0H15ZM348 0V48H436L263 268L321 326L541 48H596V0H348ZM193 171L161 209L436 455H331V503H570V455H514L193 171Z" />
<glyph unicode="l" horiz-adv-x="301" d="M15 0V48H106V634H22V682H202V48H285V0H15Z" />
<glyph unicode="m" horiz-adv-x="841" d="M16 0V48H110V455H26V503H192V346L203 347V48H273V0H16ZM312 0V48H382V369Q382 410 362 429T303 449Q277 449 254 437T217 398T203 327L186 326Q186 387 202 428T251 490T336 511Q398 511 437 478T476 371V48H546V0H312ZM585
0V48H655V369Q655 410 635 429T576 449Q550 449 527 437T490 398T476 327L463 326Q463 387 479 428T528 490T612 511Q674 511 711 478T748 369V48H822V0H585Z" />
<glyph unicode="n" horiz-adv-x="615" d="M340 0V48H428V352Q428 402 403 425T334 449Q301 449 272 434T224 385T206 298H189Q189 370 209 417T269 488T368 511Q436 511 480 474T524 355V48H597V0H340ZM16 0V48H110V455H26V503H195V347L206 349V48H294V0H16Z" />
<glyph unicode="o" horiz-adv-x="597" d="M299 -11Q223 -11 166 20T76 109T43 251Q43 335 75 393T165 483T299 514Q375 514 432 483T521 394T554 251Q554 168 522 110T432 20T299 -11ZM299 35Q345 35 378 61T430 136T449 255Q449 322 431 369T379 442T299 468Q253
468 220 443T168 369T149 251Q149 183 167 135T219 61T299 35Z" />
<glyph unicode="p" horiz-adv-x="637" d="M374 -9Q305 -9 261 23T196 113T175 251L170 252Q170 331 192 389T260 480T374 513Q439 513 488 483T564 394T592 251Q592 168 565 110T488 21T374 -9ZM342 46Q386 46 419 70T470 140T489 251Q489 317 471 363T419 434T342
458Q297 458 264 434T211 364T192 251Q192 186 211 140T263 70T342 46ZM11 -191V-143H102V455H18V503H191V329L182 254L198 158V-143H352V-191H11Z" />
<glyph unicode="q" horiz-adv-x="611" d="M263 -9Q199 -9 150 21T74 109T46 251Q46 336 73 394T150 482T263 513Q332 513 377 481T445 390T467 252L462 250Q462 171 441 113T376 23T263 -9ZM295 46Q340 46 373 70T426 140T445 251Q445 317 426 363T374 434T295
458Q250 458 217 434T166 364T148 251Q148 186 166 140T217 70T295 46ZM285 -191V-143H439V156L453 254L447 332V503H535V-143H617V-191H285Z" />
<glyph unicode="r" horiz-adv-x="491" d="M16 0V48H110V455H26V503H196V331L205 333V48H359V0H16ZM178 303Q179 377 200 424T260 493T348 516Q400 516 431 490T463 417Q463 388 447 369T401 349Q376 349 361 362T346 397Q346 423 364 436T420 448L415 418Q414
447 394 462T338 477Q301 477 271 458T223 400T205 303H178Z" />
<glyph unicode="s" horiz-adv-x="526" d="M306 -8Q254 -8 210 12T136 74T98 183H114Q133 129 161 98T223 52T290 38Q340 38 367 59T394 120Q394 146 380 163T341 191T286 208L226 222Q174 234 136 252T77 301T56 376Q56 444 103 477T220 511Q268 511 310 493T381
435T415 329H400Q385 381 358 411T298 453T235 466Q192 466 165 447T138 390Q138 363 152 346T190 320T244 303L303 290Q353 279 392 262T453 215T476 138Q476 67 430 30T306 -8ZM64 0V183H98L117 153V0H64ZM415 329L397 359V503H450V329H415Z" />
<glyph unicode="t" horiz-adv-x="472" d="M264 -10Q191 -10 155 35T123 162L130 452H4V499H49Q91 499 115 509T150 543T160 604V644H216V148Q216 106 233 83T286 60Q321 60 337 82T353 148V313H407V144Q407 72 371 31T264 -10ZM216 452V503H437V452H216Z" />
<glyph unicode="u" horiz-adv-x="609" d="M250 -8Q204 -8 169 8T113 60T92 151V455H19V503H187V151Q187 102 213 78T283 54Q317 54 346 69T394 118T413 205L432 206Q432 134 411 87T350 16T250 -8ZM425 0V167L413 165V455H329V503H509V48H592V0H425Z" />
<glyph unicode="v" horiz-adv-x="563" d="M247 -2L66 455H10V503H266V455H168L313 66L290 67L441 455H342V503H552V455H496L315 -2H247Z" />
<glyph unicode="w" horiz-adv-x="783" d="M499 -2L344 455H292V503H531V455H437L560 67L537 68L666 455H573V503H773V455H722L564 -2H499ZM217 -2L62 455H10V503H244V455H161L284 67L261 68L379 424L401 343L286 -2H217Z" />
<glyph unicode="x" horiz-adv-x="594" d="M28 0V48H82L267 277H342L516 48H569V0H310V48H405L269 233H296L149 48H242V0H28ZM253 235L84 455H35V503H285V455H195L326 278H299L439 455H351V503H557V455H506L328 235H253Z" />
<glyph unicode="y" d="M120 -165Q149 -165 169 -152T206 -113T237 -53L283 51L293 68L444 455H345V503H556V455H500L302 -39Q281 -93 256 -130T199 -186T120 -206V-165ZM270 -53L66 455H10V503H268V455H168L314 70L270 -53ZM64 -70Q84 -70 97 -80T111 -110Q111
-131 96 -141T55 -152L56 -127Q61 -146 78 -155T120 -165V-206Q71 -206 39 -183T7 -121Q8 -98 23 -84T64 -70Z" />
<glyph unicode="z" horiz-adv-x="532" d="M47 43L359 453L478 460L165 50L47 43ZM47 0V43L165 50H475V0H47ZM69 312V453H190Q148 453 134 437T120 377V312H69ZM353 50Q396 50 409 66T423 126V200H475V50H353ZM69 453V503H478V460L359 453H69Z" />
<glyph unicode="{" horiz-adv-x="414" d="M388 644Q313 644 279 609T248 493L250 443Q252 389 238 354T191 302T104 284H31V308Q103 308 133 335T159 414L154 478Q148 556 171 603T241 672T354 693H388V644ZM354 -125Q288 -125 241 -104T171 -36T154 90L159 154Q163
206 133 232T31 259V284H104Q158 283 190 266T237 213T250 124L248 74Q244 -6 278 -41T388 -76V-125H354Z" />
<glyph unicode="|" horiz-adv-x="186" d="M64 -200V682H121V-200H64Z" />
<glyph unicode="}" horiz-adv-x="414" d="M26 644V693H60Q127 693 173 672T243 604T260 478L255 414Q251 362 281 335T383 308V284H310Q257 285 224 302T177 354T164 443L166 493Q170 574 136 609T26 644ZM60 -125H26V-76Q101 -76 135 -41T166 74L164 124Q162
178 176 213T224 265T310 284H383V259Q311 259 281 233T255 154L260 90Q266 12 243 -35T174 -104T60 -125Z" />
<glyph unicode="~" horiz-adv-x="570" d="M323 356L285 300L246 328Q224 345 206 356T167 368Q126 368 126 321V252H62V336Q62 388 85 415T154 443Q191 443 221 426T284 384L323 356ZM246 328L284 384L323 356Q345 340 363 329T403 317Q443 317 443 363V432H508V348Q508
296 485 269T415 241Q379 241 349 258T285 300L246 328Z" />
<glyph unicode="&#xa0;" horiz-adv-x="214" />
<glyph unicode="&#xa1;" horiz-adv-x="279" d="M162 295Q170 206 175 143T185 36T192 -37T196 -85T198 -120Q198 -151 183 -168T139 -186Q112 -186 97 -169T81 -120Q81 -104 82 -85T86 -37T93 35T104 142T117 295H162ZM139 512Q171 512 189 493T208 445Q208 416
190 397T139 378Q108 378 90 397T71 445Q71 474 89 493T139 512Z" />
<glyph unicode="&#xa2;" d="M294 0V682H347V0H294ZM314 79Q242 79 187 109T100 199T68 342Q68 426 99 484T187 573T317 604L321 560Q268 560 230 535T172 463T152 354Q152 291 172 245T230 173T317 147Q356 147 385 158T435 190T467 237T483 293H526Q524 249 510
211T469 143T403 96T314 79ZM471 389Q450 389 437 400T424 430Q424 453 441 465T485 475L480 454Q473 485 453 508T400 546T321 560L317 604Q381 604 426 582T497 525T522 448Q522 420 509 405T471 389Z" />
<glyph unicode="&#xa3;" horiz-adv-x="695" d="M98 0V23L179 75H627V0H98ZM98 47Q154 82 184 122T214 215L306 239Q306 182 276 141T179 75L98 0V47ZM214 215Q214 253 202 285T174 350T146 418T134 500Q134 566 163 609T242 673T355 694Q415 694 465 672T549 602T593
477H567Q550 558 503 600T386 642Q316 642 275 605T233 502Q233 463 244 431T269 368T295 306T306 239L214 215ZM593 477L567 527V682H620V477H593ZM66 345V396H464V345H66ZM507 75Q547 75 561 90T575 148V251H627V75H507Z" />
<glyph unicode="&#xa4;" horiz-adv-x="607" d="M304 120Q241 120 192 146T114 223T85 341Q85 410 113 459T191 535T304 562Q367 562 416 536T493 460T521 341Q521 272 493 223T416 147T304 120ZM304 171Q352 171 388 191T444 250T464 341Q464 394 444 432T388
490T304 511Q256 511 220 491T164 432T143 341Q143 289 163 251T220 192T304 171ZM45 117L145 217L183 178L84 78L45 117ZM423 504L523 603L562 565L462 465L423 504ZM562 117L523 78L423 178L462 217L562 117ZM183 504L145 465L45 565L84 603L183 504Z" />
<glyph unicode="&#xa5;" horiz-adv-x="761" d="M114 199V244H648V199H114ZM114 332V377H290L321 332H114ZM444 332L474 377H648V332H444ZM334 263L87 634H21V682H324V634H204L414 317H395L607 634H487V682H741V634H675L426 263H334ZM177 0V48H331V323H431V48H585V0H177Z" />
<glyph unicode="&#xa6;" horiz-adv-x="186" d="M64 341V682H121V341H64ZM64 -200V141H121V-200H64Z" />
<glyph unicode="&#xa7;" horiz-adv-x="529" d="M397 520Q381 564 354 590T295 628T235 640Q193 640 166 622T138 567Q138 541 152 525T190 501T244 485L328 467Q371 459 405 444T459 402T480 334Q480 285 454 256T381 219L361 241Q387 249 402 266T418 312Q418
339 403 355T362 382T306 398L227 414Q176 425 138 442T80 487T59 559Q59 603 80 632T137 675T220 690Q268 690 308 672T377 617T412 520H397ZM412 520L400 547V682H454V520H412ZM119 171Q148 100 195 72T291 43Q339 43 366 64T394 122Q394 147 380 163T343 188T289
204L201 223Q158 232 126 248T75 291T56 358Q56 391 70 413T107 449T156 468L175 443Q148 437 132 421T116 377Q116 350 130 334T169 308T223 293L304 275Q353 265 392 249T453 206T476 132Q476 65 431 29T307 -7Q255 -7 212 12T141 70T103 171H119ZM62 0V171H103L116
142V0H62Z" />
<glyph unicode="&#xa8;" horiz-adv-x="375" d="M282 576Q258 576 243 591T227 633Q227 658 242 673T282 688Q306 688 321 673T336 632Q336 607 321 592T282 576ZM93 576Q68 576 54 591T39 633Q39 658 53 673T93 688Q118 688 132 673T147 632Q147 607 133 592T93 576Z" />
<glyph unicode="&#xa9;" horiz-adv-x="759" d="M389 138Q305 138 256 192T207 344Q207 440 256 493T386 547Q459 547 493 506T528 397H512Q511 425 500 449T466 490T405 506Q346 506 311 464T276 349Q276 275 310 232T404 189Q460 189 486 223T515 308H554Q553
262 535 223T481 161T389 138ZM528 397L510 442V532H549V397H528ZM379 -15Q280 -15 205 26T88 147T45 341Q45 455 87 534T205 655T379 697Q478 697 553 656T671 535T714 341Q714 227 672 148T554 27T379 -15ZM379 24Q467 24 532 62T632 171T668 341Q668 440 633
511T532 620T379 658Q291 658 227 620T127 511T91 341Q91 242 126 171T226 62T379 24Z" />
<glyph unicode="&#xaa;" horiz-adv-x="449" d="M107 562Q89 562 76 572T62 603Q62 631 81 649T131 677T197 687Q256 687 288 661T319 581L254 596Q254 624 237 638T186 653Q153 653 128 640T100 599L99 620Q118 621 130 614T143 591Q143 578 134 570T107 562ZM341
330Q304 330 283 353T261 417V442H253V544H250L254 570V596L319 581V413Q319 397 327 387T350 377Q365 377 372 387T380 413V525H419V415Q419 375 399 353T341 330ZM147 330Q99 330 70 355T41 421Q41 453 55 472T91 504T141 523L194 537Q222 544 238 556T254 595L256
544H253Q248 530 235 523T202 507L174 499Q158 493 145 486T123 466T114 434Q114 409 131 395T174 381Q195 381 213 391T242 424T253 483L272 482Q272 429 256 395T212 346T147 330Z" />
<glyph unicode="&#xab;" horiz-adv-x="427" d="M220 83H168L26 266L168 450H220L112 266L220 83ZM392 83H340L208 266L340 450H392L294 266L392 83Z" />
<glyph unicode="&#xac;" horiz-adv-x="550" d="M272 200V376H489V200H272ZM208 232V376H489V232H208Z" />
<glyph unicode="&#xad;" horiz-adv-x="428" d="M62 233V291H367V233H62Z" />
<glyph unicode="&#xae;" horiz-adv-x="603" d="M173 312V341H219V554H175V583H264V341H304V312H173ZM384 307Q358 307 345 323T329 365L327 388Q326 413 316 425T284 437H264V446H305Q334 446 352 433T371 379L373 363Q374 350 378 344T392 337Q403 337 407 343T412
362V420H436V364Q436 337 425 322T384 307ZM264 437V462H335Q361 462 376 474T391 510Q391 534 376 546T335 558H264V583H347Q388 583 412 566T436 512Q436 477 412 460T347 443H311L301 437H264ZM302 193Q230 193 175 223T89 309T58 445Q58 525 89 581T175 668T302
698Q375 698 429 668T515 582T546 445Q546 366 515 310T430 223T302 193ZM302 222Q367 222 414 249T487 326T513 445Q513 515 487 565T414 642T302 669Q237 669 190 642T116 565T90 445Q90 376 116 326T189 249T302 222Z" />
<glyph unicode="&#xaf;" horiz-adv-x="375" d="M39 580V632H336V580H39Z" />
<glyph unicode="&#xb0;" horiz-adv-x="451" d="M224 388Q177 388 140 406T83 458T62 540Q62 587 82 621T140 673T224 691Q296 691 342 651T388 539Q388 469 342 429T224 388ZM224 430Q265 430 289 460T314 542Q314 592 290 620T224 649Q184 649 160 620T136 540Q136
488 160 459T224 430Z" />
<glyph unicode="&#xb1;" horiz-adv-x="550" d="M62 320V386H489V320H62ZM240 147V558H311V147H240ZM62 0V67H489V0H62Z" />
<glyph unicode="&#xb2;" horiz-adv-x="344" d="M32 347Q32 406 59 440T139 499L173 515Q189 523 205 532T233 555T245 591L309 586Q310 552 293 531T249 496T190 471L155 457Q137 450 120 441T90 418T72 385L32 336V347ZM32 336V347L72 385H309V336H32ZM235 385Q261
385 267 396T274 426V444H309V385H235ZM84 552Q68 552 55 563T42 597Q42 626 59 646T107 676T176 687Q213 687 243 677T292 644T309 586L245 591Q245 622 222 637T165 652Q131 652 105 638T79 594L73 608Q92 611 105 604T119 582Q119 569 110 561T84 552Z" />
<glyph unicode="&#xb3;" horiz-adv-x="333" d="M170 331Q103 331 65 364T28 459H61Q62 420 89 400T155 380Q196 380 218 398T240 444Q240 474 212 492T127 508V533Q220 538 262 512T305 438Q305 393 271 362T170 331ZM127 541Q179 541 206 556T234 601Q234 624
213 638T157 653Q123 653 101 643T73 611L69 621Q89 623 101 617T113 597Q113 586 104 578T78 570Q62 571 49 580T36 609Q36 633 54 650T102 677T168 687Q223 687 259 666T295 605Q295 564 253 545T127 526V541Z" />
<glyph unicode="&#xb4;" horiz-adv-x="260" d="M39 564L122 703H221L101 564H39Z" />
<glyph unicode="&#xb5;" horiz-adv-x="608" d="M264 -8Q224 -8 194 7T147 54T130 131H92V504H187V153Q187 104 213 80T283 56Q317 56 346 71T394 120T413 207L431 206Q431 134 411 87T354 16T264 -8ZM425 0V167H413V504H508V48H591V0H425ZM92 131H148V-191H92V131Z" />
<glyph unicode="&#xb6;" horiz-adv-x="663" d="M545 -136H486V682H643V634H545V-136ZM268 287Q162 287 97 336T32 485Q32 583 97 632T268 682H486V627H383V287H268ZM383 -136H324V673H383V-136Z" />
<glyph unicode="&#xb7;" horiz-adv-x="225" d="M113 206Q86 206 70 222T53 266Q53 293 69 309T113 326Q140 326 156 310T173 266Q173 239 157 223T113 206Z" />
<glyph unicode="&#xb8;" horiz-adv-x="271" d="M135 -194Q107 -194 82 -186T39 -165L56 -132Q72 -142 90 -149T129 -155Q155 -155 166 -145T178 -119Q178 -104 168 -97T140 -90H98L112 5H152L144 -54H154Q172 -54 189 -59T219 -79T231 -118Q231 -155 205 -174T135 -194Z" />
<glyph unicode="&#xb9;" horiz-adv-x="269" d="M48 336V370H123V581H29V614H58Q99 614 118 626T142 676L143 682H188V370H250V336H48Z" />
<glyph unicode="&#xba;" horiz-adv-x="430" d="M215 330Q164 330 125 351T64 412T41 509Q41 566 63 605T125 666T215 687Q266 687 305 666T366 605T389 508Q389 452 367 412T305 351T215 330ZM215 364Q258 364 284 402T310 511Q310 577 285 615T216 653Q172 653
146 615T120 509Q120 441 146 403T215 364Z" />
<glyph unicode="&#xbb;" horiz-adv-x="427" d="M207 83L315 266L207 450H259L401 266L259 83H207ZM35 83L133 266L35 450H87L219 266L87 83H35Z" />
<glyph unicode="&#xbc;" horiz-adv-x="795" d="M48 336V370H123V581H29V614H58Q99 614 118 626T142 676L143 682H188V370H250V336H48ZM127 0L596 682H661L192 0H127ZM546 0V35H632V328L637 346H695V35H747V0H546ZM450 105V137L467 140H775V105H450ZM450 137L637
346L636 298L494 137H450Z" />
<glyph unicode="&#xbd;" horiz-adv-x="833" d="M48 336V370H123V581H29V614H58Q99 614 118 626T142 676L143 682H188V370H250V336H48ZM127 0L596 682H661L192 0H127ZM521 11Q521 70 548 104T628 163L662 179Q678 187 694 196T722 219T734 255L798 250Q799 216
782 195T738 160T679 135L644 121Q626 114 609 105T579 82T561 49L521 0V11ZM521 0V11L561 49H798V0H521ZM724 49Q750 49 756 60T763 90V108H798V49H724ZM573 216Q557 216 544 227T531 261Q531 290 548 310T596 340T665 351Q702 351 732 341T781 308T798 250L734
255Q734 286 711 301T654 316Q620 316 594 302T568 258L562 272Q581 275 594 268T608 246Q608 233 599 225T573 216Z" />
<glyph unicode="&#xbe;" horiz-adv-x="814" d="M170 331Q103 331 65 364T28 459H61Q62 420 89 400T155 380Q196 380 218 398T240 444Q240 474 212 492T127 508V533Q220 538 262 512T305 438Q305 393 271 362T170 331ZM127 541Q179 541 206 556T234 601Q234 624
213 638T157 653Q123 653 101 643T73 611L69 621Q89 623 101 617T113 597Q113 586 104 578T78 570Q62 571 49 580T36 609Q36 633 54 650T102 677T168 687Q223 687 259 666T295 605Q295 564 253 545T127 526V541ZM147 0L616 682H681L212 0H147ZM565 0V35H651V328L656
346H714V35H766V0H565ZM469 105V137L486 140H794V105H469ZM469 137L656 346L655 298L513 137H469Z" />
<glyph unicode="&#xbf;" horiz-adv-x="535" d="M422 47Q448 47 468 30T488 -23Q488 -78 460 -116T383 -174T274 -194Q210 -194 159 -175T79 -117T49 -18L143 -24Q143 -67 162 -95T214 -137T287 -151Q325 -151 358 -138T413 -99T439 -32L443 -51Q408 -52 387 -40T366
-2Q366 20 380 33T422 47ZM297 295Q314 239 305 197T252 124Q226 106 201 86T159 39T143 -24L49 -18Q49 23 63 53T101 106T149 146T197 177Q220 191 232 207T249 244T252 295H297ZM273 512Q305 512 323 493T342 445Q342 416 324 397T273 378Q242 378 224 397T205
445Q205 474 223 493T273 512Z" />
<glyph unicode="&#xc0;" horiz-adv-x="789" d="M19 0V48H93L353 687H436L696 48H770V0H464V48H588L357 627H389L154 48H278V0H19ZM205 218V269H541V218H205ZM378 743L257 882H356L439 743H378Z" />
<glyph unicode="&#xc1;" horiz-adv-x="789" d="M19 0V48H93L353 687H436L696 48H770V0H464V48H588L357 627H389L154 48H278V0H19ZM205 218V269H541V218H205ZM350 743L433 882H532L412 743H350Z" />
<glyph unicode="&#xc2;" horiz-adv-x="789" d="M19 0V48H93L353 687H436L696 48H770V0H464V48H588L357 627H389L154 48H278V0H19ZM205 218V269H541V218H205ZM248 743L347 882H441L540 743H472L366 857H408L301 743H248Z" />
<glyph unicode="&#xc3;" horiz-adv-x="789" d="M19 0V48H93L353 687H436L696 48H770V0H464V48H588L357 627H389L154 48H278V0H19ZM205 218V269H541V218H205ZM464 740Q439 740 421 752T388 781L375 793L402 834L414 822Q424 811 434 803T459 794Q475 794 483 805T491
842V867H534V829Q534 786 517 763T464 740ZM256 786Q256 828 273 851T326 874Q352 874 369 862T402 834L414 822L388 781L375 793Q365 804 355 812T330 820Q314 820 307 809T299 772V747H256V786Z" />
<glyph unicode="&#xc4;" horiz-adv-x="789" d="M19 0V48H93L353 687H436L696 48H770V0H464V48H588L357 627H389L154 48H278V0H19ZM205 218V269H541V218H205ZM489 755Q465 755 450 770T434 812Q434 837 449 852T489 867Q513 867 528 852T543 811Q543 786 528 771T489
755ZM300 755Q275 755 261 770T246 812Q246 837 260 852T300 867Q325 867 339 852T354 811Q354 786 340 771T300 755Z" />
<glyph unicode="&#xc5;" horiz-adv-x="789" d="M19 0V48H93L353 687H436L696 48H770V0H464V48H588L357 627H389L154 48H278V0H19ZM205 218V269H541V218H205ZM394 734Q348 734 319 758T289 825Q289 868 318 892T394 916Q440 916 469 892T499 825Q499 782 470 758T394
734ZM394 766Q417 766 431 781T445 825Q445 853 431 868T394 884Q372 884 358 869T343 825Q343 797 357 782T394 766Z" />
<glyph unicode="&#xc6;" horiz-adv-x="1059" d="M14 0V48H93L480 682H544L159 48H277V0H14ZM406 0V48H509V634H340V682H607V0H406ZM249 218V269H509V218H249ZM607 0V52H995V0H607ZM774 252Q774 296 759 313T703 331H822V147H774V252ZM607 331V381H822V331H607ZM867
52Q911 52 927 70T944 134V264H995V52H867ZM703 381Q743 381 758 398T774 459V540H822V381H703ZM607 631V682H988V631H607ZM937 548Q937 594 921 612T860 631H988V427H937V548Z" />
<glyph unicode="&#xc7;" horiz-adv-x="732" d="M378 -13Q281 -13 206 29T88 150T45 341Q45 453 87 532T202 653T369 695Q459 695 520 661T614 566T647 422H620Q616 480 592 530T521 611T398 643Q326 643 271 607T183 504T151 347Q151 259 183 194T272 93T400 57Q473
57 522 87T597 169T627 283H676Q674 203 641 136T542 28T378 -13ZM647 422L618 488V682H672V422H647ZM382 -194Q354 -194 329 -186T286 -165L303 -132Q319 -142 337 -149T376 -155Q402 -155 413 -145T425 -119Q425 -104 415 -97T387 -90H345L359 5H399L391 -54H401Q419
-54 436 -59T466 -79T478 -118Q478 -155 452 -174T382 -194Z" />
<glyph unicode="&#xc8;" horiz-adv-x="689" d="M21 0V48H121V634H23V682H221V0H21ZM221 0V52H625V0H221ZM402 252Q402 295 386 312T329 330H449V147H402V252ZM221 330V381H449V330H221ZM497 52Q541 52 557 70T574 134V264H625V52H497ZM329 381Q370 381 386 398T402
459V540H449V381H329ZM221 631V682H618V631H221ZM567 548Q567 595 550 613T489 631H618V427H567V548ZM342 743L221 882H320L403 743H342Z" />
<glyph unicode="&#xc9;" horiz-adv-x="689" d="M21 0V48H121V634H23V682H221V0H21ZM221 0V52H625V0H221ZM402 252Q402 295 386 312T329 330H449V147H402V252ZM221 330V381H449V330H221ZM497 52Q541 52 557 70T574 134V264H625V52H497ZM329 381Q370 381 386 398T402
459V540H449V381H329ZM221 631V682H618V631H221ZM567 548Q567 595 550 613T489 631H618V427H567V548ZM314 743L397 882H496L376 743H314Z" />
<glyph unicode="&#xca;" horiz-adv-x="689" d="M21 0V48H121V634H23V682H221V0H21ZM221 0V52H625V0H221ZM402 252Q402 295 386 312T329 330H449V147H402V252ZM221 330V381H449V330H221ZM497 52Q541 52 557 70T574 134V264H625V52H497ZM329 381Q370 381 386 398T402
459V540H449V381H329ZM221 631V682H618V631H221ZM567 548Q567 595 550 613T489 631H618V427H567V548ZM212 743L311 882H405L504 743H436L330 857H372L265 743H212Z" />
<glyph unicode="&#xcb;" horiz-adv-x="689" d="M21 0V48H121V634H23V682H221V0H21ZM221 0V52H625V0H221ZM402 252Q402 295 386 312T329 330H449V147H402V252ZM221 330V381H449V330H221ZM497 52Q541 52 557 70T574 134V264H625V52H497ZM329 381Q370 381 386 398T402
459V540H449V381H329ZM221 631V682H618V631H221ZM567 548Q567 595 550 613T489 631H618V427H567V548ZM453 755Q429 755 414 770T398 812Q398 837 413 852T453 867Q477 867 492 852T507 811Q507 786 492 771T453 755ZM264 755Q239 755 225 770T210 812Q210 837 224
852T264 867Q289 867 303 852T318 811Q318 786 304 771T264 755Z" />
<glyph unicode="&#xcc;" horiz-adv-x="358" d="M20 0V48H129V634H22V682H336V634H229V48H338V0H20ZM163 743L42 882H141L224 743H163Z" />
<glyph unicode="&#xcd;" horiz-adv-x="358" d="M20 0V48H129V634H22V682H336V634H229V48H338V0H20ZM134 743L217 882H316L196 743H134Z" />
<glyph unicode="&#xce;" horiz-adv-x="358" d="M20 0V48H129V634H22V682H336V634H229V48H338V0H20ZM33 743L132 882H226L325 743H257L151 857H193L86 743H33Z" />
<glyph unicode="&#xcf;" horiz-adv-x="358" d="M20 0V48H129V634H22V682H336V634H229V48H338V0H20ZM274 755Q250 755 235 770T219 812Q219 837 234 852T274 867Q298 867 313 852T328 811Q328 786 313 771T274 755ZM85 755Q60 755 46 770T31 812Q31 837 45 852T85
867Q110 867 124 852T139 811Q139 786 125 771T85 755Z" />
<glyph unicode="&#xd0;" horiz-adv-x="746" d="M221 0V52H334Q412 52 470 87T561 188T594 341Q594 430 562 495T471 595T334 631H221V682H343Q451 682 532 642T657 526T702 341Q702 233 658 157T532 40T343 0H221ZM21 0V48H121V634H23V682H221V0H21ZM25 318V364H367V318H25Z"
/>
<glyph unicode="&#xd1;" horiz-adv-x="764" d="M606 0L177 548L193 682L607 152L606 0ZM21 0V48H121V634H23V682H193L177 548V48H286V0H21ZM606 0L603 152H607V634H500V682H758V634H663V0H606ZM467 740Q442 740 424 752T391 781L378 793L405 834L417 822Q427 811
437 803T462 794Q478 794 486 805T494 842V867H537V829Q537 786 520 763T467 740ZM259 786Q259 828 276 851T329 874Q355 874 372 862T405 834L417 822L391 781L378 793Q368 804 358 812T333 820Q317 820 310 809T302 772V747H259V786Z" />
<glyph unicode="&#xd2;" horiz-adv-x="797" d="M399 -13Q294 -13 215 29T90 150T45 341Q45 453 90 532T214 653T399 695Q504 695 583 653T708 532T753 341Q753 229 708 150T584 29T399 -13ZM399 38Q474 38 528 74T612 179T642 341Q642 435 613 503T529 607T399
644Q325 644 270 608T185 503T155 341Q155 247 185 179T270 75T399 38ZM383 743L262 882H361L444 743H383Z" />
<glyph unicode="&#xd3;" horiz-adv-x="797" d="M399 -13Q294 -13 215 29T90 150T45 341Q45 453 90 532T214 653T399 695Q504 695 583 653T708 532T753 341Q753 229 708 150T584 29T399 -13ZM399 38Q474 38 528 74T612 179T642 341Q642 435 613 503T529 607T399
644Q325 644 270 608T185 503T155 341Q155 247 185 179T270 75T399 38ZM354 743L437 882H536L416 743H354Z" />
<glyph unicode="&#xd4;" horiz-adv-x="797" d="M399 -13Q294 -13 215 29T90 150T45 341Q45 453 90 532T214 653T399 695Q504 695 583 653T708 532T753 341Q753 229 708 150T584 29T399 -13ZM399 38Q474 38 528 74T612 179T642 341Q642 435 613 503T529 607T399
644Q325 644 270 608T185 503T155 341Q155 247 185 179T270 75T399 38ZM253 743L352 882H446L545 743H477L371 857H413L306 743H253Z" />
<glyph unicode="&#xd5;" horiz-adv-x="797" d="M399 -13Q294 -13 215 29T90 150T45 341Q45 453 90 532T214 653T399 695Q504 695 583 653T708 532T753 341Q753 229 708 150T584 29T399 -13ZM399 38Q474 38 528 74T612 179T642 341Q642 435 613 503T529 607T399
644Q325 644 270 608T185 503T155 341Q155 247 185 179T270 75T399 38ZM468 740Q443 740 425 752T392 781L379 793L406 834L418 822Q428 811 438 803T463 794Q479 794 487 805T495 842V867H538V829Q538 786 521 763T468 740ZM260 786Q260 828 277 851T330 874Q356
874 373 862T406 834L418 822L392 781L379 793Q369 804 359 812T334 820Q318 820 311 809T303 772V747H260V786Z" />
<glyph unicode="&#xd6;" horiz-adv-x="797" d="M399 -13Q294 -13 215 29T90 150T45 341Q45 453 90 532T214 653T399 695Q504 695 583 653T708 532T753 341Q753 229 708 150T584 29T399 -13ZM399 38Q474 38 528 74T612 179T642 341Q642 435 613 503T529 607T399
644Q325 644 270 608T185 503T155 341Q155 247 185 179T270 75T399 38ZM493 755Q469 755 454 770T438 811Q438 837 453 852T493 867Q517 867 532 852T547 811Q547 786 532 771T493 755ZM304 755Q279 755 265 770T250 811Q250 837 264 852T304 867Q329 867 343 852T358
811Q358 786 344 771T304 755Z" />
<glyph unicode="&#xd7;" horiz-adv-x="477" d="M85 141L38 188L392 543L440 496L85 141ZM392 141L38 496L85 543L440 188L392 141Z" />
<glyph unicode="&#xd8;" horiz-adv-x="797" d="M399 -13Q294 -13 215 29T90 150T45 341Q45 453 90 532T214 653T399 695Q504 695 583 653T708 532T753 341Q753 229 708 150T584 29T399 -13ZM399 38Q474 38 528 74T612 179T642 341Q642 435 613 503T529 607T399
644Q325 644 270 608T185 503T155 341Q155 247 185 179T270 75T399 38ZM49 0L678 682H749L121 0H49Z" />
<glyph unicode="&#xd9;" horiz-adv-x="772" d="M385 -11Q246 -11 177 60T107 262V634H12V682H314V634H207V247Q207 153 255 99T403 44Q504 44 551 98T599 247V634H492V682H760V634H665V262Q665 132 595 61T385 -11ZM385 743L264 882H363L446 743H385Z" />
<glyph unicode="&#xda;" horiz-adv-x="772" d="M385 -11Q246 -11 177 60T107 262V634H12V682H314V634H207V247Q207 153 255 99T403 44Q504 44 551 98T599 247V634H492V682H760V634H665V262Q665 132 595 61T385 -11ZM356 743L439 882H538L418 743H356Z" />
<glyph unicode="&#xdb;" horiz-adv-x="772" d="M385 -11Q246 -11 177 60T107 262V634H12V682H314V634H207V247Q207 153 255 99T403 44Q504 44 551 98T599 247V634H492V682H760V634H665V262Q665 132 595 61T385 -11ZM255 743L354 882H448L547 743H479L373 857H415L308
743H255Z" />
<glyph unicode="&#xdc;" horiz-adv-x="772" d="M385 -11Q246 -11 177 60T107 262V634H12V682H314V634H207V247Q207 153 255 99T403 44Q504 44 551 98T599 247V634H492V682H760V634H665V262Q665 132 595 61T385 -11ZM495 755Q471 755 456 770T440 812Q440 837 455
852T495 867Q519 867 534 852T549 811Q549 786 534 771T495 755ZM306 755Q281 755 267 770T252 812Q252 837 266 852T306 867Q331 867 345 852T360 811Q360 786 346 771T306 755Z" />
<glyph unicode="&#xdd;" horiz-adv-x="761" d="M334 263L87 634H21V682H324V634H204L414 317H395L607 634H487V682H741V634H675L426 263H334ZM177 0V48H331V323H431V48H585V0H177ZM358 743L441 882H540L420 743H358Z" />
<glyph unicode="&#xde;" horiz-adv-x="658" d="M20 0V48H129V634H22V682H336V634H229V48H338V0H20ZM229 164V215H385Q456 215 497 248T538 348Q538 415 497 448T385 482H229V532H418Q517 532 578 486T639 348Q639 257 578 211T418 164H229Z" />
<glyph unicode="&#xdf;" horiz-adv-x="616" d="M15 0V48H92V476Q92 587 154 642T322 697Q379 697 423 679T493 628T519 546Q519 495 493 462T424 413T325 396L345 403Q391 403 434 393T513 357T568 290T589 183Q589 98 546 45T420 -9L396 53Q446 53 469 90T492
185Q492 282 437 325T272 369V418Q328 418 361 433T410 476T425 543Q425 595 395 622T316 650Q257 650 222 611T187 495V0H15ZM420 -9Q342 -9 299 37T254 168H299Q301 113 327 83T396 53L420 -9Z" />
<glyph unicode="&#xe0;" horiz-adv-x="631" d="M143 317Q118 317 100 333T81 381Q81 427 109 456T184 499T282 514Q369 514 415 477T462 363L373 376Q373 423 345 447T261 471Q228 471 199 462T150 433T127 383L125 411Q157 411 177 400T197 364Q197 342 183 330T143
317ZM490 -9Q436 -9 409 22T382 109V168H372V305H368L373 340V376L462 363V106Q462 84 473 70T505 55Q527 55 538 69T549 106V317H600V110Q600 55 573 23T490 -9ZM199 -9Q127 -9 85 27T42 122Q42 166 61 194T114 241T193 270L274 289Q305 297 327 306T361 331T373
374L377 305H372Q364 286 344 274T286 251L239 239Q207 230 185 218T152 187T140 141Q140 101 166 79T235 56Q272 56 303 72T353 125T372 222L391 217Q392 138 369 88T302 15T199 -9ZM263 564L142 703H241L324 564H263Z" />
<glyph unicode="&#xe1;" horiz-adv-x="631" d="M143 317Q118 317 100 333T81 381Q81 427 109 456T184 499T282 514Q369 514 415 477T462 363L373 376Q373 423 345 447T261 471Q228 471 199 462T150 433T127 383L125 411Q157 411 177 400T197 364Q197 342 183 330T143
317ZM490 -9Q436 -9 409 22T382 109V168H372V305H368L373 340V376L462 363V106Q462 84 473 70T505 55Q527 55 538 69T549 106V317H600V110Q600 55 573 23T490 -9ZM199 -9Q127 -9 85 27T42 122Q42 166 61 194T114 241T193 270L274 289Q305 297 327 306T361 331T373
374L377 305H372Q364 286 344 274T286 251L239 239Q207 230 185 218T152 187T140 141Q140 101 166 79T235 56Q272 56 303 72T353 125T372 222L391 217Q392 138 369 88T302 15T199 -9ZM235 564L318 703H417L297 564H235Z" />
<glyph unicode="&#xe2;" horiz-adv-x="631" d="M143 317Q118 317 100 333T81 381Q81 427 109 456T184 499T282 514Q369 514 415 477T462 363L373 376Q373 423 345 447T261 471Q228 471 199 462T150 433T127 383L125 411Q157 411 177 400T197 364Q197 342 183 330T143
317ZM490 -9Q436 -9 409 22T382 109V168H372V305H368L373 340V376L462 363V106Q462 84 473 70T505 55Q527 55 538 69T549 106V317H600V110Q600 55 573 23T490 -9ZM199 -9Q127 -9 85 27T42 122Q42 166 61 194T114 241T193 270L274 289Q305 297 327 306T361 331T373
374L377 305H372Q364 286 344 274T286 251L239 239Q207 230 185 218T152 187T140 141Q140 101 166 79T235 56Q272 56 303 72T353 125T372 222L391 217Q392 138 369 88T302 15T199 -9ZM133 564L232 703H326L425 564H357L251 678H293L186 564H133Z" />
<glyph unicode="&#xe3;" horiz-adv-x="631" d="M143 317Q118 317 100 333T81 381Q81 427 109 456T184 499T282 514Q369 514 415 477T462 363L373 376Q373 423 345 447T261 471Q228 471 199 462T150 433T127 383L125 411Q157 411 177 400T197 364Q197 342 183 330T143
317ZM490 -9Q436 -9 409 22T382 109V168H372V305H368L373 340V376L462 363V106Q462 84 473 70T505 55Q527 55 538 69T549 106V317H600V110Q600 55 573 23T490 -9ZM199 -9Q127 -9 85 27T42 122Q42 166 61 194T114 241T193 270L274 289Q305 297 327 306T361 331T373
374L377 305H372Q364 286 344 274T286 251L239 239Q207 230 185 218T152 187T140 141Q140 101 166 79T235 56Q272 56 303 72T353 125T372 222L391 217Q392 138 369 88T302 15T199 -9ZM349 561Q324 561 306 573T273 602L260 614L287 655L299 643Q309 632 319 624T344
615Q360 615 368 626T376 663V688H419V650Q419 607 402 584T349 561ZM141 607Q141 649 158 672T211 695Q237 695 254 683T287 655L299 643L273 602L260 614Q250 625 240 633T215 641Q199 641 192 630T184 593V568H141V607Z" />
<glyph unicode="&#xe4;" horiz-adv-x="631" d="M143 317Q118 317 100 333T81 381Q81 427 109 456T184 499T282 514Q369 514 415 477T462 363L373 376Q373 423 345 447T261 471Q228 471 199 462T150 433T127 383L125 411Q157 411 177 400T197 364Q197 342 183 330T143
317ZM490 -9Q436 -9 409 22T382 109V168H372V305H368L373 340V376L462 363V106Q462 84 473 70T505 55Q527 55 538 69T549 106V317H600V110Q600 55 573 23T490 -9ZM199 -9Q127 -9 85 27T42 122Q42 166 61 194T114 241T193 270L274 289Q305 297 327 306T361 331T373
374L377 305H372Q364 286 344 274T286 251L239 239Q207 230 185 218T152 187T140 141Q140 101 166 79T235 56Q272 56 303 72T353 125T372 222L391 217Q392 138 369 88T302 15T199 -9ZM374 576Q350 576 335 591T319 632Q319 658 334 673T374 688Q398 688 413 673T428
632Q428 607 413 592T374 576ZM185 576Q160 576 146 591T131 632Q131 658 145 673T185 688Q210 688 224 673T239 632Q239 607 225 592T185 576Z" />
<glyph unicode="&#xe5;" horiz-adv-x="631" d="M143 317Q118 317 100 333T81 381Q81 427 109 456T184 499T282 514Q369 514 415 477T462 363L373 376Q373 423 345 447T261 471Q228 471 199 462T150 433T127 383L125 411Q157 411 177 400T197 364Q197 342 183 330T143
317ZM490 -9Q436 -9 409 22T382 109V168H372V305H368L373 340V376L462 363V106Q462 84 473 70T505 55Q527 55 538 69T549 106V317H600V110Q600 55 573 23T490 -9ZM199 -9Q127 -9 85 27T42 122Q42 166 61 194T114 241T193 270L274 289Q305 297 327 306T361 331T373
374L377 305H372Q364 286 344 274T286 251L239 239Q207 230 185 218T152 187T140 141Q140 101 166 79T235 56Q272 56 303 72T353 125T372 222L391 217Q392 138 369 88T302 15T199 -9ZM280 555Q234 555 205 579T175 646Q175 689 204 713T280 737Q326 737 355 713T385
646Q385 603 356 579T280 555ZM280 587Q303 587 317 602T331 646Q331 674 317 689T280 705Q258 705 244 690T229 646Q229 618 243 603T280 587Z" />
<glyph unicode="&#xe6;" horiz-adv-x="860" d="M135 317Q108 317 89 333T70 380Q70 425 97 454T168 498T263 512Q351 512 397 474T443 355L368 375Q368 422 339 446T254 470Q220 470 192 460T145 431T122 380L118 410Q150 411 170 401T191 365Q191 343 176 330T135
317ZM443 169L391 179L367 176V305H363L368 340V375L443 355V169ZM201 -9Q128 -9 85 26T42 121Q42 164 61 192T114 239T193 268L270 287Q300 295 322 304T356 330T368 373L372 305H367Q358 284 339 272T282 249L238 238Q207 229 185 217T151 186T139 139Q139 100
166 78T234 56Q270 56 300 72T349 125T367 222L395 198Q395 132 371 86T304 15T201 -9ZM601 -9Q534 -9 483 21T404 110T375 249Q375 333 403 391T483 481T600 512L597 466Q536 466 500 417T463 264Q463 167 505 113T620 59Q656 59 682 71T726 104T753 149T765 196H810Q809
159 796 123T757 56T693 9T601 -9ZM417 264V310H721L816 279V264H417ZM721 310Q720 355 706 390T665 446T597 466L600 512Q670 512 718 483T791 401T816 279L721 310Z" />
<glyph unicode="&#xe7;" horiz-adv-x="543" d="M284 -11Q213 -11 159 19T74 109T43 252Q43 336 74 394T162 483T292 513L309 471Q255 471 217 446T158 374T138 264Q138 203 158 157T216 86T304 61Q341 61 369 73T415 105T444 151T458 202H504Q502 159 488 120T446
52T379 6T284 -11ZM433 294Q407 294 392 308T376 344Q376 371 398 384T454 395L452 366Q449 393 433 417T386 456T309 471L292 513Q356 513 402 492T472 436T497 362Q497 330 480 312T433 294ZM288 -194Q260 -194 235 -186T192 -165L209 -132Q225 -142 243 -149T282
-155Q308 -155 319 -145T331 -119Q331 -104 321 -97T293 -90H251L265 5H305L297 -54H307Q325 -54 342 -59T372 -79T384 -118Q384 -155 358 -174T288 -194Z" />
<glyph unicode="&#xe8;" horiz-adv-x="558" d="M286 -9Q215 -9 160 22T74 111T43 251Q43 334 74 392T160 481T286 512L288 466Q243 466 210 444T158 376T139 259Q139 165 185 112T310 59Q362 59 395 80T446 133T467 197H512Q511 160 497 123T455 57T385 9T286
-9ZM94 264V310H420L514 279V264H94ZM420 310Q419 355 404 390T360 446T288 466L286 512Q361 512 411 483T488 401T514 279L420 310ZM270 564L149 703H248L331 564H270Z" />
<glyph unicode="&#xe9;" horiz-adv-x="558" d="M286 -9Q215 -9 160 22T74 111T43 251Q43 334 74 392T160 481T286 512L288 466Q243 466 210 444T158 376T139 259Q139 165 185 112T310 59Q362 59 395 80T446 133T467 197H512Q511 160 497 123T455 57T385 9T286
-9ZM94 264V310H420L514 279V264H94ZM420 310Q419 355 404 390T360 446T288 466L286 512Q361 512 411 483T488 401T514 279L420 310ZM241 564L324 703H423L303 564H241Z" />
<glyph unicode="&#xea;" horiz-adv-x="558" d="M286 -9Q215 -9 160 22T74 111T43 251Q43 334 74 392T160 481T286 512L288 466Q243 466 210 444T158 376T139 259Q139 165 185 112T310 59Q362 59 395 80T446 133T467 197H512Q511 160 497 123T455 57T385 9T286
-9ZM94 264V310H420L514 279V264H94ZM420 310Q419 355 404 390T360 446T288 466L286 512Q361 512 411 483T488 401T514 279L420 310ZM140 564L239 703H333L432 564H364L258 678H300L193 564H140Z" />
<glyph unicode="&#xeb;" horiz-adv-x="558" d="M286 -9Q215 -9 160 22T74 111T43 251Q43 334 74 392T160 481T286 512L288 466Q243 466 210 444T158 376T139 259Q139 165 185 112T310 59Q362 59 395 80T446 133T467 197H512Q511 160 497 123T455 57T385 9T286
-9ZM94 264V310H420L514 279V264H94ZM420 310Q419 355 404 390T360 446T288 466L286 512Q361 512 411 483T488 401T514 279L420 310ZM381 576Q357 576 342 591T326 632Q326 658 341 673T381 688Q405 688 420 673T435 632Q435 607 420 592T381 576ZM192 576Q167
576 153 591T138 632Q138 658 152 673T192 688Q217 688 231 673T246 632Q246 607 232 592T192 576Z" />
<glyph unicode="&#xec;" horiz-adv-x="305" d="M16 0V48H110V455H26V503H205V48H288V0H16ZM136 564L15 703H114L197 564H136Z" />
<glyph unicode="&#xed;" horiz-adv-x="305" d="M16 0V48H110V455H26V503H205V48H288V0H16ZM108 564L191 703H290L170 564H108Z" />
<glyph unicode="&#xee;" horiz-adv-x="305" d="M16 0V48H110V455H26V503H205V48H288V0H16ZM6 564L105 703H199L298 564H230L124 678H166L59 564H6Z" />
<glyph unicode="&#xef;" horiz-adv-x="305" d="M16 0V48H110V455H26V503H205V48H288V0H16ZM247 576Q223 576 208 591T192 633Q192 658 207 673T247 688Q271 688 286 673T301 632Q301 607 286 592T247 576ZM58 576Q33 576 19 591T4 633Q4 658 18 673T58 688Q83
688 97 673T112 632Q112 607 98 592T58 576Z" />
<glyph unicode="&#xf0;" horiz-adv-x="596" d="M293 -10Q216 -10 160 21T73 111T43 251Q43 330 70 386T148 472T263 502Q327 502 370 477T436 395T459 247L445 248Q445 349 404 401T295 453Q250 453 216 429T163 359T144 245Q144 178 163 131T216 60T295 36Q340
36 373 60T426 132T445 248L450 251Q451 363 423 446T341 594T212 712L239 750Q335 698 403 628T507 471T544 276Q544 187 515 123T429 24T293 -10ZM176 559V602L531 667V624L176 559Z" />
<glyph unicode="&#xf1;" horiz-adv-x="615" d="M340 0V48H428V352Q428 402 403 425T334 449Q301 449 272 434T224 385T206 298H189Q189 370 209 417T269 488T368 511Q436 511 480 474T524 355V48H597V0H340ZM16 0V48H110V455H26V503H195V347L206 349V48H294V0H16ZM376
561Q351 561 333 573T300 602L287 614L314 655L326 643Q336 632 346 624T371 615Q387 615 395 626T403 663V688H446V650Q446 607 429 584T376 561ZM168 607Q168 649 185 672T238 695Q264 695 281 683T314 655L326 643L300 602L287 614Q277 625 267 633T242 641Q226
641 219 630T211 593V568H168V607Z" />
<glyph unicode="&#xf2;" horiz-adv-x="597" d="M299 -11Q223 -11 166 20T76 109T43 251Q43 335 75 393T165 483T299 514Q375 514 432 483T521 394T554 251Q554 168 522 110T432 20T299 -11ZM299 35Q345 35 378 61T430 136T449 255Q449 322 431 369T379 442T299
468Q253 468 220 443T168 369T149 251Q149 183 167 135T219 61T299 35ZM283 564L162 703H261L344 564H283Z" />
<glyph unicode="&#xf3;" horiz-adv-x="597" d="M299 -11Q223 -11 166 20T76 109T43 251Q43 335 75 393T165 483T299 514Q375 514 432 483T521 394T554 251Q554 168 522 110T432 20T299 -11ZM299 35Q345 35 378 61T430 136T449 255Q449 322 431 369T379 442T299
468Q253 468 220 443T168 369T149 251Q149 183 167 135T219 61T299 35ZM254 564L337 703H436L316 564H254Z" />
<glyph unicode="&#xf4;" horiz-adv-x="597" d="M299 -11Q223 -11 166 20T76 109T43 251Q43 335 75 393T165 483T299 514Q375 514 432 483T521 394T554 251Q554 168 522 110T432 20T299 -11ZM299 35Q345 35 378 61T430 136T449 255Q449 322 431 369T379 442T299
468Q253 468 220 443T168 369T149 251Q149 183 167 135T219 61T299 35ZM153 564L252 703H346L445 564H377L271 678H313L206 564H153Z" />
<glyph unicode="&#xf5;" horiz-adv-x="597" d="M299 -11Q223 -11 166 20T76 109T43 251Q43 335 75 393T165 483T299 514Q375 514 432 483T521 394T554 251Q554 168 522 110T432 20T299 -11ZM299 35Q345 35 378 61T430 136T449 255Q449 322 431 369T379 442T299
468Q253 468 220 443T168 369T149 251Q149 183 167 135T219 61T299 35ZM368 561Q343 561 325 573T292 602L279 614L306 655L318 643Q328 632 338 624T363 615Q379 615 387 626T395 663V688H438V650Q438 607 421 584T368 561ZM160 607Q160 649 177 672T230 695Q256
695 273 683T306 655L318 643L292 602L279 614Q269 625 259 633T234 641Q218 641 211 630T203 593V568H160V607Z" />
<glyph unicode="&#xf6;" horiz-adv-x="597" d="M299 -11Q223 -11 166 20T76 109T43 251Q43 335 75 393T165 483T299 514Q375 514 432 483T521 394T554 252Q554 168 522 110T432 20T299 -11ZM299 35Q345 35 378 61T430 136T449 255Q449 322 431 369T379 442T299
468Q253 468 220 443T168 369T149 251Q149 183 167 135T219 61T299 35ZM394 576Q370 576 355 591T339 633Q339 658 354 673T394 688Q418 688 433 673T448 632Q448 607 433 592T394 576ZM205 576Q180 576 166 591T151 633Q151 658 165 673T205 688Q230 688 244 673T259
632Q259 607 245 592T205 576Z" />
<glyph unicode="&#xf7;" horiz-adv-x="550" d="M62 308V376H489V308H62ZM275 120Q249 120 233 135T217 176Q217 201 233 216T275 232Q301 232 317 217T333 176Q333 151 317 136T275 120ZM275 452Q249 452 233 467T217 508Q217 532 233 547T275 563Q301 563 317
548T333 507Q333 483 317 468T275 452Z" />
<glyph unicode="&#xf8;" horiz-adv-x="600" d="M300 -9Q225 -9 168 22T78 111T45 251Q45 334 77 392T167 482T300 513Q376 513 433 482T523 393T556 251Q556 169 524 111T434 22T300 -9ZM300 36Q348 36 383 62T438 137T458 255Q458 322 439 369T384 441T300 467Q252
467 217 442T162 368T142 251Q142 183 161 135T216 62T300 36ZM32 0L502 504H568L99 0H32Z" />
<glyph unicode="&#xf9;" horiz-adv-x="609" d="M250 -8Q204 -8 169 8T113 60T92 151V455H19V503H187V151Q187 102 213 78T283 54Q317 54 346 69T394 118T413 205L432 206Q432 134 411 87T350 16T250 -8ZM425 0V167L413 165V455H329V503H509V48H592V0H425ZM276
564L155 703H254L337 564H276Z" />
<glyph unicode="&#xfa;" horiz-adv-x="609" d="M250 -8Q204 -8 169 8T113 60T92 151V455H19V503H187V151Q187 102 213 78T283 54Q317 54 346 69T394 118T413 205L432 206Q432 134 411 87T350 16T250 -8ZM425 0V167L413 165V455H329V503H509V48H592V0H425ZM247
564L330 703H429L309 564H247Z" />
<glyph unicode="&#xfb;" horiz-adv-x="609" d="M250 -8Q204 -8 169 8T113 60T92 151V455H19V503H187V151Q187 102 213 78T283 54Q317 54 346 69T394 118T413 205L432 206Q432 134 411 87T350 16T250 -8ZM425 0V167L413 165V455H329V503H509V48H592V0H425ZM146
564L245 703H339L438 564H370L264 678H306L199 564H146Z" />
<glyph unicode="&#xfc;" horiz-adv-x="609" d="M250 -8Q204 -8 169 8T113 60T92 151V455H19V503H187V151Q187 103 213 79T283 54Q317 54 346 69T394 118T413 205L432 206Q432 134 411 87T350 16T250 -8ZM425 0V167L413 165V455H329V503H509V48H592V0H425ZM386
576Q362 576 347 591T331 633Q331 658 346 673T386 688Q410 688 425 673T440 632Q440 607 425 592T386 576ZM197 576Q172 576 158 591T143 633Q143 658 157 673T197 688Q222 688 236 673T251 632Q251 607 237 592T197 576Z" />
<glyph unicode="&#xfd;" d="M120 -165Q149 -165 169 -152T206 -113T237 -53L283 51L293 68L444 455H345V503H556V455H500L302 -39Q281 -93 256 -130T199 -186T120 -206V-165ZM270 -53L66 455H10V503H268V455H168L314 70L270 -53ZM64 -70Q84 -70 97 -80T111 -110Q111
-131 96 -141T55 -152L56 -127Q61 -146 78 -155T120 -165V-206Q71 -206 39 -183T7 -121Q8 -98 23 -84T64 -70ZM261 564L344 703H443L323 564H261Z" />
<glyph unicode="&#xfe;" horiz-adv-x="625" d="M364 -8Q294 -8 250 24T186 114T165 251L160 252Q160 330 182 388T249 479T363 511Q428 511 477 480T554 391T582 251Q582 170 554 112T477 23T364 -8ZM331 48Q376 48 409 72T461 141T480 251Q480 317 462 362T410
431T331 455Q287 455 254 432T202 363T183 251Q183 187 201 142T253 72T331 48ZM0 -191V-143H91V634H7V682H187V356L172 254L187 149V-143H341V-191H0Z" />
<glyph unicode="&#xff;" d="M120 -165Q149 -165 169 -152T206 -113T237 -53L283 51L293 68L444 455H345V503H556V455H500L302 -39Q281 -93 256 -130T199 -186T120 -206V-165ZM270 -53L66 455H10V503H268V455H168L314 70L270 -53ZM64 -70Q84 -70 97 -80T111 -110Q111
-131 96 -141T55 -152L56 -127Q61 -146 78 -155T120 -165V-206Q71 -206 39 -183T7 -121Q8 -98 23 -84T64 -70ZM400 576Q376 576 361 591T345 632Q345 658 360 673T400 688Q424 688 439 673T454 632Q454 607 439 592T400 576ZM211 576Q186 576 172 591T157 632Q157
658 171 673T211 688Q236 688 250 673T265 632Q265 607 251 592T211 576Z" />
<glyph unicode="&#x2013;" horiz-adv-x="647" d="M62 233V291H585V233H62Z" />
<glyph unicode="&#x2014;" horiz-adv-x="908" d="M62 233V291H846V233H62Z" />
<glyph unicode="&#x2018;" horiz-adv-x="248" d="M197 665Q152 658 127 629T100 557Q106 559 112 560T126 562Q157 562 174 544T192 500Q192 470 174 452T123 433Q92 433 72 454T51 516Q51 575 69 614T120 674T197 700V665Z" />
<glyph unicode="&#x2019;" horiz-adv-x="243" d="M46 458Q91 466 116 495T143 566Q137 564 131 563T117 561Q86 561 69 579T51 623Q51 653 70 671T120 690Q151 690 171 669T192 607Q192 549 174 510T123 449T46 423V458Z" />
<glyph unicode="&#x201a;" horiz-adv-x="243" d="M46 -107Q91 -99 116 -70T143 1Q137 -1 131 -2T117 -4Q86 -4 69 14T51 58Q51 88 70 106T120 125Q151 125 171 104T192 42Q192 -16 174 -55T123 -116T46 -142V-107Z" />
<glyph unicode="&#x201c;" horiz-adv-x="414" d="M363 666Q321 658 298 628T272 557Q278 559 284 560T297 562Q326 562 342 544T358 500Q358 470 341 452T294 433Q265 433 246 454T226 516Q226 574 243 613T291 673T363 700V666ZM188 666Q147 658 124 628T98 557Q103
559 109 560T123 562Q151 562 167 544T183 500Q183 470 166 452T119 433Q91 433 71 454T51 516Q51 574 68 613T116 673T188 700V666Z" />
<glyph unicode="&#x201d;" horiz-adv-x="409" d="M46 457Q88 465 112 495T137 566Q131 564 125 563T112 561Q84 561 68 579T51 623Q51 653 68 671T115 690Q144 690 163 669T183 607Q183 550 166 511T118 450T46 423V457ZM221 457Q262 465 286 495T311 566Q306
564 300 563T286 561Q258 561 242 579T226 623Q226 653 243 671T290 690Q319 690 338 669T358 607Q358 550 341 511T293 450T221 423V457Z" />
<glyph unicode="&#x201e;" horiz-adv-x="409" d="M46 -108Q88 -100 112 -70T137 1Q131 -1 125 -2T112 -4Q84 -4 68 14T51 58Q51 88 68 106T115 125Q144 125 163 104T183 42Q183 -15 166 -54T118 -115T46 -142V-108ZM221 -108Q262 -100 286 -70T311 1Q306 -1 300
-2T286 -4Q258 -4 242 14T226 58Q226 88 243 106T290 125Q319 125 338 104T358 42Q358 -15 341 -54T293 -115T221 -142V-108Z" />
<glyph unicode="&#x2022;" horiz-adv-x="366" d="M183 160Q137 160 110 188T83 261Q83 305 110 333T183 362Q229 362 256 334T283 261Q283 217 256 189T183 160Z" />
<glyph unicode="&#x2039;" horiz-adv-x="275" d="M240 78H183L25 262L183 445H240L122 262L240 78Z" />
<glyph unicode="&#x203a;" horiz-adv-x="275" d="M35 78L153 262L35 445H92L250 262L92 78H35Z" />
</font>
</defs>
</svg>
