<?xml version="1.0" standalone="no"?>
<!DOCTYPE svg PUBLIC "-//W3C//DTD SVG 1.1//EN" "http://www.w3.org/Graphics/SVG/1.1/DTD/svg11.dtd">
<svg xmlns="http://www.w3.org/2000/svg">
<defs >
<font id="AlbertSans" horiz-adv-x="535" ><font-face
    font-family="Albert Sans"
    units-per-em="1000"
    panose-1="0 0 0 0 0 0 0 0 0 0"
    ascent="950"
    descent="-250"
    alphabetic="0" />
<glyph unicode=" " horiz-adv-x="280" />
<glyph unicode="!" horiz-adv-x="261" d="M85 700H170L161 191H94L85 700ZM131 -4Q107 -4 92 12T77 51Q77 74 92 90T131 106Q153 106 169 90T185 51Q185 28 169 12T131 -4Z" />
<glyph unicode="&quot;" horiz-adv-x="305" d="M51 700H127L117 510H62L51 700ZM177 700H254L244 510H189L177 700Z" />
<glyph unicode="#" horiz-adv-x="811" d="M294 700H370L334 520H550L586 700H663L627 520H769V450H613L577 268H725V198H564L525 0H448L487 198H271L232 0H156L195 198H43V268H208L244 450H86V520H258L294 700ZM284 268H500L536 450H320L284 268Z" />
<glyph unicode="$" horiz-adv-x="574" d="M259 775H308V-75H259V775ZM124 178Q130 151 149 125T203 81T292 63Q369 63 406 99T443 184Q443 223 422 248T365 289T284 319Q244 330 205 343T133 377T82 431T63 513Q63 572 91 615T170 683T289 707Q348 707 392 690T465
643T509 572L438 545Q431 568 411 589T359 625T286 639Q246 639 214 625T162 585T143 522Q143 482 165 459T225 421T308 393Q349 380 387 365T456 328T505 273T523 192Q523 139 498 94T423 21T293 -7Q227 -7 177 13T95 69T51 149L124 178Z" />
<glyph unicode="%" horiz-adv-x="758" d="M51 561Q51 629 91 668T194 707Q255 707 296 668T337 561Q337 493 296 454T194 414Q132 414 92 453T51 561ZM194 657Q158 657 137 633T115 561Q115 514 136 489T194 464Q229 464 251 489T273 561Q273 608 251 632T194
657ZM543 700H622L214 0H135L543 700ZM422 139Q422 207 462 246T564 286Q625 286 666 247T707 139Q707 72 666 33T564 -7Q503 -7 463 32T422 139ZM564 235Q529 235 507 211T485 139Q485 93 507 69T564 44Q599 44 621 68T643 139Q643 186 621 210T564 235Z" />
<glyph unicode="&amp;" horiz-adv-x="704" d="M414 595Q394 615 365 625T298 636Q229 636 196 600T162 509Q162 469 182 443T245 404T353 391H570V321H354Q254 321 202 293T149 191Q149 153 164 124T211 80T294 64Q371 64 403 101T435 214V342H512V214Q512 135
486 87T411 16T294 -7Q219 -7 169 17T93 85T68 184Q68 234 87 268T139 324T216 355V360Q173 368 143 391T97 446T81 517Q81 569 105 612T178 681T295 707Q352 707 398 690T477 640L414 595ZM477 640L414 595L477 640ZM397 391Q410 391 420 396T435 412T440 435V514H513V391H647V321H513V161Q513
112 539 89T608 66Q617 66 626 67T647 69V4Q634 1 621 -1T595 -3Q553 -3 517 14T457 67T434 161V321H359V391H397Z" />
<glyph unicode="&apos;" horiz-adv-x="190" d="M55 700H134L122 510H67L55 700Z" />
<glyph unicode="(" horiz-adv-x="408" d="M262 -100Q199 -50 154 19T84 173T60 349Q60 441 85 524T158 678T275 800H358V794Q283 736 234 664T161 512T137 349Q137 266 160 186T229 35T345 -93V-100H262Z" />
<glyph unicode=")" horiz-adv-x="409" d="M147 -100H64V-93Q133 -36 179 35T248 186T272 349Q272 432 248 512T175 664T51 794V800H134Q203 749 251 679T324 525T349 349Q349 257 325 173T255 20T147 -100Z" />
<glyph unicode="*" horiz-adv-x="476" d="M258 579L384 666L416 608L275 547L417 486L384 427L258 514L272 360H207L219 514L94 426L60 487L201 548L60 607L93 666L220 579L207 733H273L258 579Z" />
<glyph unicode="+" horiz-adv-x="636" d="M355 605V95H281V605H355ZM64 384H573V316H64V384Z" />
<glyph unicode="," horiz-adv-x="264" d="M112 121H200L92 -145H38L112 121Z" />
<glyph unicode="-" horiz-adv-x="521" d="M64 312H458V244H64V312Z" />
<glyph unicode="." horiz-adv-x="235" d="M118 -5Q95 -5 80 11T64 50Q64 73 79 89T118 105Q140 105 156 89T172 50Q172 27 156 11T118 -5Z" />
<glyph unicode="/" horiz-adv-x="319" d="M239 800H319L78 -100H0L239 800Z" />
<glyph unicode="0" horiz-adv-x="629" d="M68 350Q68 427 79 492T117 606T192 680T315 707Q389 707 437 681T512 606T550 493T561 350Q561 272 550 207T512 93T437 19T315 -7Q241 -7 193 19T117 93T79 206T68 350ZM480 350Q480 409 475 460T453 551T404 613T315
636Q260 636 227 614T177 552T155 461T149 350Q149 289 154 237T176 146T226 86T315 64Q371 64 404 85T453 146T474 237T480 350Z" />
<glyph unicode="1" horiz-adv-x="306" d="M141 630H43V700H221V0H141V630Z" />
<glyph unicode="2" horiz-adv-x="601" d="M57 60L270 257Q332 314 368 355T419 431T435 504Q435 563 400 599T293 636Q244 636 210 615T158 557T139 470H62Q64 548 94 600T177 680T293 707Q363 707 413 682T489 611T516 504Q516 459 499 417T442 327T331 213L177
70H536V0H57V60Z" />
<glyph unicode="3" horiz-adv-x="599" d="M68 511Q72 573 103 616T185 683T304 707Q373 707 421 681T493 612T518 517Q518 479 502 447T456 391T383 360V355Q426 346 459 325T512 269T531 184Q531 129 506 86T431 18T305 -7Q232 -7 179 15T94 83T57 204H134Q141
135 181 100T305 64Q355 64 387 79T434 124T450 191Q450 264 398 292T245 321H222V391H246Q311 391 353 404T416 443T437 509Q437 564 404 600T301 636Q257 636 224 621T171 579T145 511H68Z" />
<glyph unicode="4" horiz-adv-x="655" d="M417 166H43V226L401 700H497V236H599V166H497V0H417V166ZM419 236V615L135 236H419Z" />
<glyph unicode="5" horiz-adv-x="624" d="M516 700V630H162V397Q185 429 229 449T328 469Q392 469 436 448T507 393T547 319T560 239Q560 173 533 117T451 27T315 -7Q245 -7 193 18T109 87T68 191H146Q160 129 204 97T315 64Q371 64 407 86T461 147T479 237Q479
314 437 356T317 398Q260 398 219 373T157 303H82V700H516Z" />
<glyph unicode="6" horiz-adv-x="599" d="M304 -7Q229 -7 174 25T88 113T57 237Q57 289 74 340T131 445L317 700H403L198 421L97 309Q118 381 175 425T313 469Q384 469 437 440T519 358T548 235Q548 165 517 110T431 24T304 -7ZM138 236Q138 184 157 145T214 85T304
64Q357 64 393 85T448 144T467 235Q467 288 449 324T394 379T304 398Q251 398 214 379T158 324T138 236Z" />
<glyph unicode="7" horiz-adv-x="556" d="M514 700V640L236 0H155L437 630H43V700H514Z" />
<glyph unicode="8" horiz-adv-x="632" d="M202 368Q142 388 111 427T80 525Q80 576 107 617T186 682T316 707Q393 707 445 683T525 617T552 525Q552 468 520 428T430 368Q495 351 533 307T571 197Q571 135 539 89T450 18T316 -7Q240 -7 183 18T93 89T61 197Q61
264 99 307T202 368ZM471 516Q471 578 430 607T316 636Q245 636 203 608T161 515Q161 458 203 428T316 398Q387 398 429 428T471 516ZM316 331Q267 331 228 318T165 277T142 199Q142 134 188 99T316 64Q397 64 443 99T490 199Q490 247 467 276T405 318T316 331Z"
/>
<glyph unicode="9" horiz-adv-x="599" d="M295 707Q370 707 425 675T511 587T542 463Q542 411 525 360T468 255L282 0H196L401 279L502 391Q482 319 425 275T286 231Q215 231 163 260T81 343T51 465Q51 536 82 590T168 676T295 707ZM461 464Q461 517 442 555T385
615T295 636Q242 636 206 615T151 556T132 465Q132 413 150 377T205 321T295 302Q348 302 385 321T441 376T461 464Z" />
<glyph unicode=":" horiz-adv-x="244" d="M122 -5Q99 -5 84 11T68 50Q68 73 83 89T122 105Q144 105 160 89T176 50Q176 27 160 11T122 -5ZM122 427Q99 427 84 443T68 482Q68 505 83 521T122 537Q144 537 160 521T176 482Q176 459 160 443T122 427Z" />
<glyph unicode=";" horiz-adv-x="280" d="M158 428Q135 428 120 444T104 483Q104 506 119 522T158 538Q180 538 196 522T212 483Q212 460 196 444T158 428ZM116 121H204L96 -145H42L116 121Z" />
<glyph unicode="&lt;" horiz-adv-x="497" d="M412 119H311L64 350L311 581H412L164 350L412 119Z" />
<glyph unicode="=" horiz-adv-x="667" d="M77 280H591V212H77V280ZM77 489H591V421H77V489Z" />
<glyph unicode="&gt;" horiz-adv-x="496" d="M332 350L85 581H185L432 350L185 119H85L332 350Z" />
<glyph unicode="?" horiz-adv-x="548" d="M273 707Q337 707 386 682T464 612T492 503Q492 429 460 383T373 316T247 295L244 191H176L172 350H198Q241 350 279 355T347 377T394 423T411 503Q411 545 394 575T347 620T273 636Q207 636 169 603T131 508H57Q56 569
83 613T159 682T273 707ZM214 -5Q191 -5 176 11T160 50Q160 73 175 89T214 105Q237 105 252 89T268 50Q268 27 253 11T214 -5Z" />
<glyph unicode="@" horiz-adv-x="983" d="M594 155L611 128Q585 67 530 31T410 -6Q333 -6 291 40T248 165Q248 221 265 271T315 361T392 424T492 447Q554 447 591 415T635 320L613 307L636 436H705L654 146Q647 103 658 76T707 48Q740 48 765 71T807 133T832 215T841
300Q841 389 805 451T700 547T535 581Q444 581 367 548T233 454T145 314T114 142Q113 52 150 -11T256 -107T420 -140Q461 -140 504 -132T585 -106L596 -160Q552 -179 503 -188T403 -197Q296 -197 216 -157T92 -41T47 135Q47 241 83 332T187 492T345 599T545 638Q656
638 737 596T863 479T907 305Q907 248 893 193T852 92T785 21T695 -6Q636 -6 611 29T591 121L594 155ZM492 386Q439 386 402 356T344 277T323 176Q323 123 350 90T434 56Q478 56 515 80T575 146T604 242Q608 282 597 314T560 366T492 386Z" />
<glyph unicode="A" horiz-adv-x="672" d="M354 630H321L90 0H9L265 700H409L664 0H583L354 630ZM134 254H542V184H134V254Z" />
<glyph unicode="B" horiz-adv-x="660" d="M508 510Q508 565 472 597T363 630H165V391H366Q434 391 471 423T508 510ZM85 0V700H370Q444 700 492 675T563 610T587 520Q587 472 570 440T523 388T458 362V355Q500 349 533 329T585 273T604 188Q604 136 578 93T502
25T378 0H85ZM165 70H372Q444 70 484 102T525 196Q525 257 483 289T369 321H165V70Z" />
<glyph unicode="C" horiz-adv-x="765" d="M43 350Q43 429 69 494T142 607T252 681T389 707Q497 707 578 657T702 515L637 491Q614 540 576 571T490 619T389 635Q314 635 254 601T160 503T125 350Q125 262 159 198T254 100T389 65Q443 65 492 82T580 135T644 225L709
201Q666 98 583 46T389 -7Q315 -7 253 19T143 93T69 206T43 350Z" />
<glyph unicode="D" horiz-adv-x="729" d="M316 700Q432 700 514 658T641 536T686 348Q686 240 642 162T515 42T316 0H85V700H316ZM316 70Q459 70 532 143T605 348Q605 481 532 555T316 630H165V70H316Z" />
<glyph unicode="E" horiz-adv-x="609" d="M544 630H165V391H450V321H165V70H544V0H85V700H544V630Z" />
<glyph unicode="F" horiz-adv-x="587" d="M85 700H544V630H165V391H450V321H165V0H85V700Z" />
<glyph unicode="G" horiz-adv-x="770" d="M633 490Q595 565 532 600T392 636Q316 636 255 601T159 502T124 350Q124 263 159 199T255 100T392 65Q449 65 498 84T583 140T638 228V309H398V374H719V224Q696 157 649 105T536 23T392 -7Q318 -7 255 19T144 92T70 205T43
350Q43 429 69 494T143 607T254 681T392 707Q461 707 521 685T629 620T703 516L633 490Z" />
<glyph unicode="H" horiz-adv-x="705" d="M85 700H165V391H540V700H620V0H540V321H165V0H85V700Z" />
<glyph unicode="I" horiz-adv-x="250" d="M85 700H165V0H85V700Z" />
<glyph unicode="J" horiz-adv-x="508" d="M347 700H427V183Q427 128 403 85T337 18T237 -7Q165 -7 119 29T56 130L125 155Q132 129 145 108T181 75T237 63Q276 63 300 81T335 126T347 183V700Z" />
<glyph unicode="K" horiz-adv-x="607" d="M85 700H165V391H199L488 700H591L269 356L594 0H488L198 321H165V0H85V700Z" />
<glyph unicode="L" horiz-adv-x="520" d="M165 700V70H492V0H85V700H165Z" />
<glyph unicode="M" horiz-adv-x="864" d="M165 0H85V700H173L433 110L692 700H779V0H699V542L461 0H404L165 542V0Z" />
<glyph unicode="N" horiz-adv-x="705" d="M620 700V0H539L165 572V0H85V700H166L540 129V700H620Z" />
<glyph unicode="O" horiz-adv-x="781" d="M392 -7Q318 -7 255 19T144 92T70 205T43 350Q43 429 69 494T143 607T254 681T392 707Q465 707 528 681T639 608T712 495T739 350Q739 271 713 206T639 93T529 19T392 -7ZM392 63Q467 63 527 98T622 197T657 350Q657 439
622 503T527 602T392 637Q316 637 256 603T160 504T125 350Q125 262 160 198T255 98T392 63Z" />
<glyph unicode="P" horiz-adv-x="612" d="M332 356Q388 356 423 373T474 421T491 493Q491 558 454 594T332 630H165V356H332ZM570 493Q570 452 557 415T514 348T440 303T332 286H165V0H85V700H332Q414 700 466 672T544 597T570 493Z" />
<glyph unicode="Q" horiz-adv-x="781" d="M353 163H433V-100H353V163ZM392 -7Q318 -7 255 19T144 92T70 205T43 350Q43 429 69 494T143 607T254 681T392 707Q465 707 528 681T639 608T712 495T739 350Q739 271 713 206T639 93T529 19T392 -7ZM392 63Q467 63 527
98T622 197T657 350Q657 439 622 503T527 602T392 637Q316 637 256 603T160 504T125 350Q125 262 160 198T255 98T392 63Z" />
<glyph unicode="R" horiz-adv-x="625" d="M489 493Q489 556 452 593T331 630H165V356H332Q387 356 421 373T472 421T489 493ZM331 700Q413 700 465 672T544 598T570 493Q570 452 557 415T514 349T440 303T332 286H165V0H85V700H331ZM389 316L583 0H492L303 316H389Z" />
<glyph unicode="S" horiz-adv-x="574" d="M124 178Q130 151 149 125T203 81T292 63Q369 63 406 99T443 184Q443 223 422 248T365 289T284 319Q244 330 205 343T133 377T82 431T63 513Q63 572 91 615T170 683T289 707Q348 707 392 690T465 643T509 572L438 545Q431
568 411 589T359 625T286 639Q246 639 214 625T162 585T143 522Q143 482 165 459T225 421T308 393Q349 380 387 365T456 328T505 273T523 192Q523 139 498 94T423 21T293 -7Q227 -7 177 13T95 69T51 149L124 178Z" />
<glyph unicode="T" horiz-adv-x="610" d="M43 700H568V630H346V0H266V630H43V700Z" />
<glyph unicode="U" horiz-adv-x="697" d="M81 700H161V258Q161 189 186 146T253 83T350 63Q403 63 445 83T512 146T537 258V700H617V259Q617 190 596 140T536 58T450 9T349 -7Q277 -7 216 21T118 109T81 259V700Z" />
<glyph unicode="V" horiz-adv-x="677" d="M563 700H648L382 0H290L28 700H113L338 85L563 700Z" />
<glyph unicode="W" horiz-adv-x="971" d="M313 0H225L28 700H113L269 97L441 700H530L701 98L858 700H942L745 0H657L485 580L313 0Z" />
<glyph unicode="X" horiz-adv-x="708" d="M57 700H145L354 414L563 700H652L399 350L652 0H563L354 286L145 0H57L309 350L57 700Z" />
<glyph unicode="Y" horiz-adv-x="649" d="M531 700H620L364 269V0H284V268L28 700H117L324 345L531 700Z" />
<glyph unicode="Z" horiz-adv-x="596" d="M536 637L150 70H540V0H57V63L442 630H61V700H536V637Z" />
<glyph unicode="[" horiz-adv-x="298" d="M81 800H247V734H156V-33H247V-100H81V800Z" />
<glyph unicode="\" horiz-adv-x="320" d="M320 -100H241L0 800H79L320 -100Z" />
<glyph unicode="]" horiz-adv-x="298" d="M217 800V-100H51V-33H142V734H51V800H217Z" />
<glyph unicode="^" horiz-adv-x="653" d="M326 602L137 250H55L289 700H362L597 250H514L326 602Z" />
<glyph unicode="_" horiz-adv-x="515" d="M-2 -36H517V-110H-2V-36Z" />
<glyph unicode="`" horiz-adv-x="234" d="M13 775L221 650V590L13 706V775Z" />
<glyph unicode="a" horiz-adv-x="528" d="M390 0L384 90Q363 44 322 19T218 -7Q164 -7 126 10T68 58T47 133Q47 196 94 236T230 286L384 303V343Q384 385 353 410T269 436Q217 436 183 412T135 343L67 367Q87 433 140 470T271 507Q360 507 409 462T459 338V0H390ZM384
239L229 221Q179 215 153 194T127 137Q127 102 152 81T226 60Q281 60 316 82T367 141T384 223V239Z" />
<glyph unicode="b" horiz-adv-x="606" d="M144 399Q166 445 213 476T332 507Q401 507 452 475T532 386T561 250Q561 172 532 114T452 25T332 -7Q264 -7 219 22T151 93L146 0H77V720H152V398L144 399ZM480 250Q480 336 436 386T316 437Q269 437 232 415T173 351T152
250Q152 191 173 149T231 85T316 63Q391 63 435 113T480 250Z" />
<glyph unicode="c" horiz-adv-x="556" d="M290 -7Q217 -7 162 25T77 114T46 248Q46 325 76 383T162 474T290 507Q367 507 425 472T509 373L440 349Q425 389 386 412T294 436Q243 436 206 413T148 348T127 249Q127 165 172 115T292 64Q343 64 383 87T442 149L510
125Q483 63 425 28T290 -7Z" />
<glyph unicode="d" horiz-adv-x="606" d="M463 399L455 398V720H530V0H461L456 93Q433 51 388 22T275 -7Q206 -7 155 24T75 114T46 250Q46 328 74 385T154 475T275 507Q346 507 393 476T463 399ZM127 250Q127 164 171 114T291 63Q338 63 375 85T433 149T455 250Q455
309 434 350T375 414T291 437Q216 437 172 387T127 250Z" />
<glyph unicode="e" horiz-adv-x="564" d="M287 -7Q217 -7 163 27T77 120T46 255Q46 328 77 385T162 474T285 507Q353 507 406 477T490 394T518 273Q518 262 517 250T515 224H128Q130 177 151 141T206 85T285 64Q343 64 383 86T442 149L507 123Q477 60 420 27T287
-7ZM436 289Q437 332 418 365T363 417T282 436Q242 436 209 417T155 365T129 289H436Z" />
<glyph unicode="f" horiz-adv-x="324" d="M104 559Q104 614 122 652T179 707T285 720V653Q225 658 202 634T179 559V500H289V430H179V0H104V430H34V500H104V559Z" />
<glyph unicode="g" horiz-adv-x="606" d="M461 500H530V92Q530 0 489 -65T370 -165T180 -200L168 -131Q309 -129 382 -73T455 92V103L463 101Q440 57 394 26T275 -7Q206 -7 155 24T75 114T46 250Q46 328 74 385T154 475T275 507Q320 507 355 494T415 458T456 407L461
500ZM127 250Q127 164 171 114T292 63Q338 63 375 85T433 149T455 250Q455 309 434 350T375 414T292 437Q217 437 172 386T127 250Z" />
<glyph unicode="h" horiz-adv-x="567" d="M77 720H152V432Q176 468 217 487T309 507Q364 507 407 482T474 408T499 286V0H419V277Q419 355 386 396T290 438Q225 438 189 394T152 266V0H77V720Z" />
<glyph unicode="i" horiz-adv-x="258" d="M92 500H166V0H92V500ZM130 600Q107 600 92 615T77 652Q77 675 92 690T130 705Q151 705 166 690T182 652Q182 630 167 615T130 600Z" />
<glyph unicode="j" horiz-adv-x="251" d="M88 13Q88 -51 56 -88T-34 -131L-23 -200Q27 -198 69 -173T137 -100T163 12V500H88V13ZM126 600Q104 600 89 615T73 652Q73 675 88 690T126 705Q148 705 163 690T178 652Q178 630 163 615T126 600Z" />
<glyph unicode="k" horiz-adv-x="518" d="M77 720H153V283H199L396 500H502L266 250L503 0H396L199 218H153V0H77V720Z" />
<glyph unicode="l" horiz-adv-x="228" d="M77 720H152V0H77V720Z" />
<glyph unicode="m" horiz-adv-x="896" d="M77 500H146L151 428Q173 464 210 485T300 507Q353 507 396 482T464 406Q487 457 534 482T638 507Q694 507 737 483T804 410T828 288V0H753V279Q753 357 720 397T624 438Q561 438 524 395T487 266V0H412V279Q412 357 380
397T286 438Q223 438 188 395T152 266V0H77V500Z" />
<glyph unicode="n" horiz-adv-x="563" d="M77 500H146L150 429Q174 466 213 486T304 507Q361 507 404 483T471 410T495 288V0H420V279Q420 357 387 397T290 438Q225 438 189 395T152 268V0H77V500Z" />
<glyph unicode="o" horiz-adv-x="590" d="M293 -7Q222 -7 166 24T78 112T46 249Q46 329 78 387T167 476T295 507Q366 507 422 476T511 388T544 251Q544 171 511 113T421 24T293 -7ZM292 64Q336 64 375 83T438 144T463 250Q463 315 439 356T377 416T294 436Q250
436 212 417T151 356T127 250Q127 185 150 144T210 84T292 64Z" />
<glyph unicode="p" horiz-adv-x="606" d="M144 101L152 102V-200H77V500H146L151 407Q174 449 219 478T332 507Q397 507 449 476T531 387T561 250Q561 172 533 115T453 25T332 -7Q260 -7 213 24T144 101ZM480 250Q480 336 436 386T316 437Q269 437 232 415T173
351T152 250Q152 192 173 150T231 86T316 63Q391 63 435 113T480 250Z" />
<glyph unicode="q" horiz-adv-x="606" d="M463 101Q440 55 393 24T275 -7Q206 -7 155 25T75 114T46 250Q46 329 74 386T154 475T275 507Q342 507 387 478T456 407L461 500H530V-200H455V102L463 101ZM127 250Q127 164 171 114T291 63Q338 63 375 85T433 150T455
250Q455 309 434 351T375 415T291 437Q215 437 171 387T127 250Z" />
<glyph unicode="r" horiz-adv-x="360" d="M77 500H146L150 427Q170 454 198 473T261 499T335 500V425Q293 433 260 425T202 395T165 340T152 262V0H77V500Z" />
<glyph unicode="s" horiz-adv-x="475" d="M118 153Q124 123 140 104T181 74T241 64Q294 64 321 84T349 136Q349 162 333 178T289 204T229 223Q203 229 173 237T116 261T72 300T55 363Q55 406 78 438T143 489T239 507Q301 507 349 480T417 396L347 372Q340 398
322 412T281 431T236 436Q191 436 164 419T136 366Q136 347 145 335T170 314T208 301T256 288Q285 281 315 271T371 244T413 202T430 138Q430 94 406 62T340 11T241 -7Q164 -7 114 27T46 129L118 153Z" />
<glyph unicode="t" horiz-adv-x="352" d="M109 500V640H184V500H317V430H184V161Q184 115 203 94T253 69T317 69V4Q278 -5 241 -1T174 21T127 74T109 161V430H34V500H109Z" />
<glyph unicode="u" horiz-adv-x="562" d="M486 0H418L413 72Q390 34 351 14T260 -7Q202 -7 159 17T93 89T69 210V500H143V218Q143 141 176 102T273 62Q337 62 374 103T412 229V500H486V0Z" />
<glyph unicode="v" horiz-adv-x="527" d="M106 500L264 84L423 500H502L302 0H224L26 500H106Z" />
<glyph unicode="w" horiz-adv-x="754" d="M251 0H183L26 500H102L217 93L346 500H414L541 94L655 500H729L573 0H504L378 388L251 0Z" />
<glyph unicode="x" horiz-adv-x="491" d="M31 500H117L245 309L373 500H460L287 251L460 0H373L245 193L117 0H31L204 251L31 500Z" />
<glyph unicode="y" horiz-adv-x="513" d="M416 500H494L208 -200H136L221 7L19 500H101L261 96L416 500Z" />
<glyph unicode="z" horiz-adv-x="479" d="M425 435L144 70H428V0H50V65L331 430H53V500H425V435Z" />
<glyph unicode="{" horiz-adv-x="377" d="M47 376Q87 383 109 396T141 428T151 466Q151 498 146 535T135 610T129 683Q129 742 170 771T276 800H330V745H291Q250 745 229 730T207 679Q207 647 212 609T222 534T228 463Q228 422 202 392T118 351V349Q176 339 202
309T228 238Q228 205 223 167T212 92T207 22Q207 -14 228 -29T291 -44H330V-100H276Q211 -100 170 -71T129 17Q129 52 134 90T145 166T151 235Q151 255 142 273T110 304T47 325V376Z" />
<glyph unicode="|" horiz-adv-x="284" d="M182 800V-100H102V800H182Z" />
<glyph unicode="}" horiz-adv-x="376" d="M330 376V325Q290 318 267 305T235 273T226 235Q226 204 231 167T242 91T248 17Q248 -41 207 -70T101 -100H47V-44H86Q126 -44 148 -29T170 22Q170 54 165 91T154 167T149 238Q149 279 175 309T259 349V351Q201 362 175
392T149 463Q149 496 154 533T164 609T170 679Q170 714 148 729T86 745H47V800H101Q166 800 207 771T248 683Q248 649 243 611T232 535T226 466Q226 446 235 428T267 397T330 376Z" />
<glyph unicode="~" horiz-adv-x="545" d="M60 282Q72 351 106 385T192 419Q219 419 241 409T282 386T320 362T360 352Q386 352 404 370T426 418H486Q474 348 440 315T354 281Q326 281 305 291T264 314T227 338T186 348Q159 348 141 330T119 282H60Z" />
<glyph unicode="&#xa0;" horiz-adv-x="280" />
<glyph unicode="&#xa1;" horiz-adv-x="261" d="M131 561Q153 561 169 545T185 506Q185 483 169 467T131 451Q107 451 92 467T77 506Q77 529 92 545T131 561ZM85 -143L94 366H161L170 -143H85Z" />
<glyph unicode="&#xa2;" horiz-adv-x="556" d="M273 600H322V472H273V600ZM273 51H322V-100H273V51ZM290 -7Q217 -7 162 25T77 114T46 248Q46 325 76 383T162 474T290 507Q367 507 425 472T509 373L440 349Q425 389 386 412T294 436Q243 436 206 413T148 348T127
249Q127 165 172 115T292 64Q343 64 383 87T442 149L510 125Q483 63 425 28T290 -7Z" />
<glyph unicode="&#xa3;" horiz-adv-x="605" d="M338 707Q408 707 454 679T524 605T552 503H479Q476 562 441 601T338 640Q301 640 270 626T220 580T201 497Q201 459 210 427T230 364T251 304T261 240Q261 189 243 147T188 66H554V0H116L102 46Q126 74 145 101T175
162T186 239Q186 274 177 302T155 359T134 422T125 501Q125 564 151 610T226 681T338 707ZM425 368V311H60V368H425Z" />
<glyph unicode="&#xa4;" horiz-adv-x="539" d="M269 553Q317 553 356 532T419 471T443 377Q443 324 420 285T356 223T268 201Q218 201 180 223T120 284T98 377Q98 431 120 470T181 531T269 553ZM269 502Q225 502 195 470T164 377Q164 317 194 285T268 253Q295
253 319 267T359 309T375 377Q375 417 360 445T321 487T269 502ZM151 465L69 546L106 583L187 502L151 465ZM352 501L433 583L470 546L386 462L352 501ZM390 290L470 211L433 173L355 252L390 290ZM189 256L106 173L69 211L151 293L189 256Z" />
<glyph unicode="&#xa5;" horiz-adv-x="649" d="M374 377H563V318H362L374 377ZM84 225H563V166H84V225ZM84 377H284L296 318H84V377ZM531 700H620L364 269V0H284V268L28 700H117L324 345L531 700Z" />
<glyph unicode="&#xa6;" horiz-adv-x="283" d="M181 277V-100H102V277H181ZM102 425V800H181V425H102Z" />
<glyph unicode="&#xa7;" horiz-adv-x="460" d="M73 588Q73 638 112 672T223 707Q290 707 334 674T381 577H321Q319 599 309 618T277 650T223 663Q182 663 157 646T132 593Q132 572 143 557T180 528T254 498Q301 483 336 464T390 418T409 351Q409 317 392 288T341
239T256 214L261 236Q293 225 322 210T369 171T387 113Q387 63 348 28T239 -7Q171 -7 127 26T79 123H138Q141 100 152 81T184 49T239 37Q279 37 303 55T327 108Q327 129 317 144T280 174T206 203Q159 218 125 237T71 283T51 351Q51 385 68 414T120 463T204 486L198
465Q166 477 138 492T91 530T73 588ZM348 351Q348 391 316 418T228 445Q172 445 142 417T112 351Q112 311 143 284T231 256Q287 256 317 284T348 351Z" />
<glyph unicode="&#xa8;" horiz-adv-x="282" d="M62 622Q41 622 27 636T13 670Q13 690 27 705T62 720Q82 720 96 705T111 670Q111 650 97 636T62 622ZM220 622Q199 622 185 636T171 670Q171 690 185 705T220 720Q239 720 254 705T269 670Q269 650 254 636T220 622Z" />
<glyph unicode="&#xa9;" horiz-adv-x="807" d="M404 707Q507 707 584 661T705 535T749 350Q749 246 706 166T585 39T404 -7Q301 -7 223 39T101 165T57 350Q57 454 101 534T223 661T404 707ZM404 671Q310 671 241 630T134 517T96 350Q96 256 134 184T241 70T404
29Q498 29 567 70T673 183T710 350Q710 444 673 516T567 630T404 671ZM400 90Q327 90 272 122T187 211T156 346Q156 423 186 481T272 571T400 604Q477 604 535 569T619 470L550 446Q534 486 495 509T404 533Q353 533 316 510T258 445T237 347Q237 262 282 212T402
161Q452 161 492 184T552 246L620 222Q593 161 535 126T400 90Z" />
<glyph unicode="&#xaa;" horiz-adv-x="450" d="M35 529Q35 583 56 623T115 686T200 709Q251 709 285 688T335 635V703H398V353H335V420Q320 389 286 368T202 347Q154 347 117 370T57 435T35 529ZM100 529Q100 468 134 433T216 397Q266 397 300 432T335 528Q335
590 301 624T216 659Q169 659 135 625T100 529Z" />
<glyph unicode="&#xab;" horiz-adv-x="446" d="M220 75H141L43 250L141 425H220L119 250L220 75ZM395 75H315L218 250L315 425H395L294 250L395 75Z" />
<glyph unicode="&#xac;" horiz-adv-x="651" d="M38 431H600V225H522V367H38V431Z" />
<glyph unicode="&#xad;" horiz-adv-x="504" d="M55 312H449V244H55V312Z" />
<glyph unicode="&#xae;" horiz-adv-x="515" d="M57 505Q57 563 83 608T154 680T257 707Q316 707 361 681T431 609T457 505Q457 447 432 401T361 329T257 302Q199 302 154 328T83 401T57 505ZM96 505Q96 457 116 420T172 361T257 339Q306 339 342 360T399 419T419
505Q419 554 399 591T343 649T257 671Q208 671 172 650T116 591T96 505ZM179 614V399H226V481H273Q306 481 326 499T346 548Q346 578 326 596T273 614H179ZM298 399L354 400L287 498H236L298 399ZM270 571Q282 571 290 566T299 546Q299 533 291 527T270 521H226V571H270Z"
/>
<glyph unicode="&#xaf;" horiz-adv-x="371" d="M13 704H358V644H13V704Z" />
<glyph unicode="&#xb0;" horiz-adv-x="394" d="M25 525Q25 579 47 618T108 678T197 700Q247 700 286 679T346 618T368 525Q368 472 346 433T285 372T195 350Q120 350 73 398T25 525ZM303 525Q303 587 272 619T196 652Q151 652 120 620T89 525Q89 463 119 431T195
399Q240 399 271 431T303 525Z" />
<glyph unicode="&#xb1;" horiz-adv-x="747" d="M410 606V146H336V606H410ZM119 426H628V359H119V426ZM119 161H628V94H119V161Z" />
<glyph unicode="&#xb2;" horiz-adv-x="335" d="M38 599Q41 645 72 676T165 707Q202 707 229 693T271 654T286 599Q286 572 276 551T247 509T198 465L99 382L93 402H291V350H39V395L150 489Q179 513 199 537T219 596Q219 626 203 641T163 657Q136 657 121 642T103 599H38Z" />
<glyph unicode="&#xb3;" horiz-adv-x="349" d="M41 610Q44 638 61 660T106 694T174 707Q209 707 238 694T284 657T302 605Q302 574 285 554T238 526V524Q265 516 284 494T304 439Q304 401 268 372T170 343Q113 343 77 370T38 448H101Q105 417 123 404T170 391Q200
391 218 406T236 447Q236 474 217 489T167 505H122V548H167Q196 548 214 561T233 602Q233 627 216 642T170 657Q140 657 124 644T102 610H41Z" />
<glyph unicode="&#xb4;" horiz-adv-x="234" d="M221 775V705L13 590V650L221 775Z" />
<glyph unicode="&#xb5;" horiz-adv-x="598" d="M522 0H443V82Q417 36 374 14T280 -9Q256 -9 233 -3T189 18T156 58V-200H77V500H156V230Q156 145 196 103T300 60Q363 60 403 101T443 228V500H522V0Z" />
<glyph unicode="&#xb6;" horiz-adv-x="597" d="M513 700V0H441V637H359V0H288V297H279Q198 297 146 323T68 395T43 498Q43 555 68 601T145 673T279 700H513Z" />
<glyph unicode="&#xb7;" horiz-adv-x="221" d="M111 288Q88 288 73 304T57 343Q57 366 72 382T111 398Q133 398 149 382T165 343Q165 320 149 304T111 288Z" />
<glyph unicode="&#xb8;" horiz-adv-x="252" d="M110 -63Q148 -62 177 -72T222 -105T239 -159Q239 -189 224 -211T181 -246T119 -259H13V-207H104Q139 -207 155 -196T172 -159Q172 -136 156 -125T104 -113H55V7H110V-63Z" />
<glyph unicode="&#xb9;" horiz-adv-x="202" d="M82 650H28V700H145V350H82V650Z" />
<glyph unicode="&#xba;" horiz-adv-x="434" d="M34 527Q34 583 58 623T124 686T217 709Q269 709 310 687T375 624T399 527Q399 473 375 432T310 369T216 346Q164 346 123 368T58 432T34 527ZM333 527Q333 592 298 625T216 658Q170 658 135 625T100 527Q100 464
134 431T216 397Q263 397 298 430T333 527Z" />
<glyph unicode="&#xbb;" horiz-adv-x="445" d="M226 75L326 250L226 425H305L403 250L305 75H226ZM51 75L152 250L51 425H130L228 250L130 75H51Z" />
<glyph unicode="&#xbc;" horiz-adv-x="616" d="M440 700H515L135 0H59L440 700ZM582 113V70H534V0H470V70H289V108L450 354H534V113H582ZM471 113V294L354 113H471ZM82 650H28V700H145V350H82V650Z" />
<glyph unicode="&#xbd;" horiz-adv-x="668" d="M435 700H511L131 0H56L435 700ZM82 650H28V700H145V350H82V650ZM358 249Q361 295 392 326T485 357Q522 357 549 343T591 304T606 249Q606 222 596 201T567 159T518 115L419 32L413 52H611V0H359V45L470 139Q499
163 519 187T539 246Q539 276 523 291T483 307Q456 307 441 292T423 249H358Z" />
<glyph unicode="&#xbe;" horiz-adv-x="693" d="M523 700H599L219 0H144L523 700ZM665 113V70H617V0H553V70H372V108L533 354H617V113H665ZM554 113V294L437 113H554ZM31 610Q34 638 51 660T97 694T164 707Q200 707 229 694T275 657T292 605Q292 574 275 554T228
526V524Q256 516 275 494T294 439Q294 401 258 372T160 343Q103 343 68 370T28 448H91Q96 417 114 404T160 391Q190 391 208 406T226 447Q226 474 207 489T157 505H112V548H157Q187 548 205 561T223 602Q223 627 207 642T160 657Q130 657 114 644T92 610H31Z" />
<glyph unicode="&#xbf;" horiz-adv-x="548" d="M334 553Q357 553 372 537T388 498Q388 475 373 459T334 443Q311 443 296 459T280 498Q280 521 295 537T334 553ZM276 -159Q211 -159 162 -134T85 -63T57 45Q57 120 88 165T175 232T302 253L305 357H373L377 198H351Q307
198 269 193T201 171T155 125T138 45Q138 3 154 -26T202 -72T276 -88Q341 -88 379 -55T418 40H492Q492 -20 465 -65T389 -134T276 -159Z" />
<glyph unicode="&#xc0;" horiz-adv-x="672" d="M223 939L431 813V753L223 869V939ZM354 630H321L90 0H9L265 700H409L664 0H583L354 630ZM134 254H542V184H134V254Z" />
<glyph unicode="&#xc1;" horiz-adv-x="672" d="M431 939V868L223 753V813L431 939ZM354 630H321L90 0H9L265 700H409L664 0H583L354 630ZM134 254H542V184H134V254Z" />
<glyph unicode="&#xc2;" horiz-adv-x="672" d="M473 764L337 848L201 764V828L337 910L473 828V764ZM354 630H321L90 0H9L265 700H409L664 0H583L354 630ZM134 254H542V184H134V254Z" />
<glyph unicode="&#xc3;" horiz-adv-x="672" d="M191 763Q197 811 222 835T284 859Q310 859 327 848T360 825T397 813Q413 813 425 823T441 854H488Q482 807 456 783T394 759Q367 759 349 770T316 793T281 805Q263 805 252 796T238 763H191ZM354 630H321L90 0H9L265
700H409L664 0H583L354 630ZM134 254H542V184H134V254Z" />
<glyph unicode="&#xc4;" horiz-adv-x="672" d="M258 785Q237 785 223 799T209 833Q209 854 223 868T258 883Q278 883 292 869T307 833Q307 813 293 799T258 785ZM416 785Q395 785 381 799T367 833Q367 854 381 868T416 883Q435 883 450 869T465 833Q465 813 450
799T416 785ZM354 630H321L90 0H9L265 700H409L664 0H583L354 630ZM134 254H542V184H134V254Z" />
<glyph unicode="&#xc5;" horiz-adv-x="672" d="M441 854Q441 807 410 780T337 752Q294 752 264 779T233 854Q233 902 263 930T337 958Q379 958 410 930T441 854ZM394 854Q394 882 378 897T337 913Q313 913 297 898T281 854Q281 828 297 812T337 796Q361 796 377
812T394 854ZM354 630H321L90 0H9L265 700H409L664 0H583L354 630ZM134 254H542V184H134V254Z" />
<glyph unicode="&#xc6;" horiz-adv-x="892" d="M539 630V391H737V321H539V70H828V0H459V184H201L96 0H9L410 700H828V630H539ZM240 254H459V636L240 254Z" />
<glyph unicode="&#xc7;" horiz-adv-x="765" d="M423 -63Q461 -62 490 -73T535 -105T552 -159Q552 -190 537 -212T494 -247T432 -260H326V-207H417Q452 -207 468 -196T485 -159Q485 -136 469 -125T417 -113H368V7H423V-63ZM43 350Q43 429 69 494T142 607T252 681T389
707Q497 707 578 657T702 515L637 491Q614 540 576 571T490 619T389 635Q314 635 254 601T160 503T125 350Q125 262 159 198T254 100T389 65Q443 65 492 82T580 135T644 225L709 201Q666 98 583 46T389 -7Q315 -7 253 19T143 93T69 206T43 350Z" />
<glyph unicode="&#xc8;" horiz-adv-x="609" d="M200 939L408 813V753L200 869V939ZM544 630H165V391H450V321H165V70H544V0H85V700H544V630Z" />
<glyph unicode="&#xc9;" horiz-adv-x="609" d="M408 939V868L200 753V813L408 939ZM544 630H165V391H450V321H165V70H544V0H85V700H544V630Z" />
<glyph unicode="&#xca;" horiz-adv-x="609" d="M450 764L314 848L178 764V828L314 910L450 828V764ZM544 630H165V391H450V321H165V70H544V0H85V700H544V630Z" />
<glyph unicode="&#xcb;" horiz-adv-x="609" d="M235 785Q214 785 200 799T186 833Q186 854 200 868T235 883Q255 883 269 869T284 833Q284 813 270 799T235 785ZM393 785Q372 785 358 799T344 833Q344 854 358 868T393 883Q413 883 427 869T442 833Q442 813 428
799T393 785ZM544 630H165V391H450V321H165V70H544V0H85V700H544V630Z" />
<glyph unicode="&#xcc;" horiz-adv-x="250" d="M10 939L218 813V753L10 869V939ZM85 700H165V0H85V700Z" />
<glyph unicode="&#xcd;" horiz-adv-x="250" d="M218 939V868L10 753V813L218 939ZM85 700H165V0H85V700Z" />
<glyph unicode="&#xce;" horiz-adv-x="250" d="M260 764L124 848L-12 764V828L124 910L260 828V764ZM85 700H165V0H85V700Z" />
<glyph unicode="&#xcf;" horiz-adv-x="250" d="M45 785Q24 785 10 799T-4 833Q-4 854 10 868T45 883Q65 883 79 869T94 833Q94 813 80 799T45 785ZM203 785Q182 785 168 799T154 833Q154 854 168 868T203 883Q223 883 237 869T252 833Q252 813 238 799T203 785ZM85
700H165V0H85V700Z" />
<glyph unicode="&#xd0;" horiz-adv-x="780" d="M65 385H155V700H368Q484 700 566 658T693 536T737 348Q737 240 693 162T567 42T368 0H155V312H65V385ZM236 62H368Q510 61 583 138T656 348Q656 481 583 558T368 635H236V385H434V312H236V62Z" />
<glyph unicode="&#xd1;" horiz-adv-x="705" d="M215 763Q222 811 246 835T308 859Q335 859 352 848T384 825T421 813Q438 813 450 823T465 854H512Q506 807 481 783T418 759Q391 759 374 770T341 793T305 805Q288 805 277 796T262 763H215ZM620 700V0H539L165
572V0H85V700H166L540 129V700H620Z" />
<glyph unicode="&#xd2;" horiz-adv-x="781" d="M281 939L489 813V753L281 869V939ZM392 -7Q318 -7 255 19T144 92T70 205T43 350Q43 429 69 494T143 607T254 681T392 707Q465 707 528 681T639 608T712 495T739 350Q739 271 713 206T639 93T529 19T392 -7ZM392
63Q467 63 527 98T622 197T657 350Q657 439 622 503T527 602T392 637Q316 637 256 603T160 504T125 350Q125 262 160 198T255 98T392 63Z" />
<glyph unicode="&#xd3;" horiz-adv-x="781" d="M489 939V868L281 753V813L489 939ZM392 -7Q318 -7 255 19T144 92T70 205T43 350Q43 429 69 494T143 607T254 681T392 707Q465 707 528 681T639 608T712 495T739 350Q739 271 713 206T639 93T529 19T392 -7ZM392
63Q467 63 527 98T622 197T657 350Q657 439 622 503T527 602T392 637Q316 637 256 603T160 504T125 350Q125 262 160 198T255 98T392 63Z" />
<glyph unicode="&#xd4;" horiz-adv-x="781" d="M531 764L395 848L259 764V828L395 910L531 828V764ZM392 -7Q318 -7 255 19T144 92T70 205T43 350Q43 429 69 494T143 607T254 681T392 707Q465 707 528 681T639 608T712 495T739 350Q739 271 713 206T639 93T529
19T392 -7ZM392 63Q467 63 527 98T622 197T657 350Q657 439 622 503T527 602T392 637Q316 637 256 603T160 504T125 350Q125 262 160 198T255 98T392 63Z" />
<glyph unicode="&#xd5;" horiz-adv-x="781" d="M249 763Q255 811 280 835T342 859Q368 859 385 848T418 825T455 813Q471 813 483 823T499 854H546Q540 807 514 783T452 759Q425 759 407 770T374 793T339 805Q321 805 310 796T296 763H249ZM392 -7Q318 -7 255
19T144 92T70 205T43 350Q43 429 69 494T143 607T254 681T392 707Q465 707 528 681T639 608T712 495T739 350Q739 271 713 206T639 93T529 19T392 -7ZM392 63Q467 63 527 98T622 197T657 350Q657 439 622 503T527 602T392 637Q316 637 256 603T160 504T125 350Q125
262 160 198T255 98T392 63Z" />
<glyph unicode="&#xd6;" horiz-adv-x="781" d="M316 785Q295 785 281 799T267 833Q267 854 281 868T316 883Q336 883 350 869T365 833Q365 813 351 799T316 785ZM474 785Q453 785 439 799T425 833Q425 854 439 868T474 883Q493 883 508 869T523 833Q523 813 508
799T474 785ZM392 -7Q318 -7 255 19T144 92T70 205T43 350Q43 429 69 494T143 607T254 681T392 707Q465 707 528 681T639 608T712 495T739 350Q739 271 713 206T639 93T529 19T392 -7ZM392 63Q467 63 527 98T622 197T657 350Q657 439 622 503T527 602T392 637Q316
637 256 603T160 504T125 350Q125 262 160 198T255 98T392 63Z" />
<glyph unicode="&#xd7;" horiz-adv-x="555" d="M117 564L492 189L441 137L66 513L117 564ZM64 190L438 564L490 512L116 138L64 190Z" />
<glyph unicode="&#xd8;" horiz-adv-x="781" d="M582 608L645 574L212 103L149 137L582 608ZM392 -7Q318 -7 255 19T144 92T70 205T43 350Q43 429 69 494T143 607T254 681T392 707Q465 707 528 681T639 608T712 495T739 350Q739 271 713 206T639 93T529 19T392
-7ZM392 63Q467 63 527 98T622 197T657 350Q657 439 622 503T527 602T392 637Q316 637 256 603T160 504T125 350Q125 262 160 198T255 98T392 63Z" />
<glyph unicode="&#xd9;" horiz-adv-x="697" d="M234 939L442 813V753L234 869V939ZM81 700H161V258Q161 189 186 146T253 83T350 63Q403 63 445 83T512 146T537 258V700H617V259Q617 190 596 140T536 58T450 9T349 -7Q277 -7 216 21T118 109T81 259V700Z" />
<glyph unicode="&#xda;" horiz-adv-x="697" d="M442 939V868L234 753V813L442 939ZM81 700H161V258Q161 189 186 146T253 83T350 63Q403 63 445 83T512 146T537 258V700H617V259Q617 190 596 140T536 58T450 9T349 -7Q277 -7 216 21T118 109T81 259V700Z" />
<glyph unicode="&#xdb;" horiz-adv-x="697" d="M484 764L348 848L212 764V828L348 910L484 828V764ZM81 700H161V258Q161 189 186 146T253 83T350 63Q403 63 445 83T512 146T537 258V700H617V259Q617 190 596 140T536 58T450 9T349 -7Q277 -7 216 21T118 109T81 259V700Z" />
<glyph unicode="&#xdc;" horiz-adv-x="697" d="M269 785Q248 785 234 799T220 833Q220 854 234 868T269 883Q289 883 303 869T318 833Q318 813 304 799T269 785ZM427 785Q406 785 392 799T378 833Q378 854 392 868T427 883Q446 883 461 869T476 833Q476 813 461
799T427 785ZM81 700H161V258Q161 189 186 146T253 83T350 63Q403 63 445 83T512 146T537 258V700H617V259Q617 190 596 140T536 58T450 9T349 -7Q277 -7 216 21T118 109T81 259V700Z" />
<glyph unicode="&#xdd;" horiz-adv-x="649" d="M418 939V868L210 753V813L418 939ZM531 700H620L364 269V0H284V268L28 700H117L324 345L531 700Z" />
<glyph unicode="&#xde;" horiz-adv-x="582" d="M302 213Q386 213 422 250T458 350Q458 415 422 452T302 489H164V213H302ZM540 350Q540 295 516 250T439 177T302 149H164V0H85V700H163V552H302Q384 552 436 526T514 454T540 350Z" />
<glyph unicode="&#xdf;" horiz-adv-x="620" d="M77 510Q77 565 98 609T165 680T281 707Q345 707 389 686T455 630T478 555Q478 522 465 499T433 459T395 426Q376 410 362 395T348 362Q348 343 368 328T449 294Q516 271 545 231T575 138Q575 73 531 33T405 -7Q327
-7 277 36T219 159H300Q303 112 330 85T405 57Q447 57 470 76T494 133Q494 166 474 191T405 233Q331 257 300 283T268 353Q268 390 289 415T337 463Q361 483 379 502T398 550Q398 591 367 615T281 640Q236 640 207 623T165 574T152 501V0H77V510Z" />
<glyph unicode="&#xe0;" horiz-adv-x="528" d="M164 715L352 602V548L164 653V715ZM390 0L384 90Q363 44 322 19T218 -7Q164 -7 126 10T68 58T47 133Q47 196 94 236T230 286L384 303V343Q384 385 353 410T269 436Q217 436 183 412T135 343L67 367Q87 433 140 470T271
507Q360 507 409 462T459 338V0H390ZM384 239L229 221Q179 215 153 194T127 137Q127 102 152 81T226 60Q281 60 316 82T367 141T384 223V239Z" />
<glyph unicode="&#xe1;" horiz-adv-x="528" d="M352 715V652L164 548V602L352 715ZM390 0L384 90Q363 44 322 19T218 -7Q164 -7 126 10T68 58T47 133Q47 196 94 236T230 286L384 303V343Q384 385 353 410T269 436Q217 436 183 412T135 343L67 367Q87 433 140 470T271
507Q360 507 409 462T459 338V0H390ZM384 239L229 221Q179 215 153 194T127 137Q127 102 152 81T226 60Q281 60 316 82T367 141T384 223V239Z" />
<glyph unicode="&#xe2;" horiz-adv-x="528" d="M390 558L267 634L144 558V616L267 690L390 616V558ZM390 0L384 90Q363 44 322 19T218 -7Q164 -7 126 10T68 58T47 133Q47 196 94 236T230 286L384 303V343Q384 385 353 410T269 436Q217 436 183 412T135 343L67
367Q87 433 140 470T271 507Q360 507 409 462T459 338V0H390ZM384 239L229 221Q179 215 153 194T127 137Q127 102 152 81T226 60Q281 60 316 82T367 141T384 223V239Z" />
<glyph unicode="&#xe3;" horiz-adv-x="528" d="M135 557Q142 600 164 622T219 644Q243 644 259 634T289 613T321 602Q336 602 347 610T361 639H404Q398 596 375 575T319 553Q294 553 278 563T249 584T217 595Q201 595 191 586T178 557H135ZM390 0L384 90Q363 44
322 19T218 -7Q164 -7 126 10T68 58T47 133Q47 196 94 236T230 286L384 303V343Q384 385 353 410T269 436Q217 436 183 412T135 343L67 367Q87 433 140 470T271 507Q360 507 409 462T459 338V0H390ZM384 239L229 221Q179 215 153 194T127 137Q127 102 152 81T226
60Q281 60 316 82T367 141T384 223V239Z" />
<glyph unicode="&#xe4;" horiz-adv-x="528" d="M196 577Q177 577 165 589T152 620Q152 638 164 651T196 665Q214 665 227 652T240 620Q240 602 227 590T196 577ZM339 577Q320 577 307 589T294 620Q294 638 307 651T339 665Q356 665 369 652T383 620Q383 602 370
590T339 577ZM390 0L384 90Q363 44 322 19T218 -7Q164 -7 126 10T68 58T47 133Q47 196 94 236T230 286L384 303V343Q384 385 353 410T269 436Q217 436 183 412T135 343L67 367Q87 433 140 470T271 507Q360 507 409 462T459 338V0H390ZM384 239L229 221Q179 215
153 194T127 137Q127 102 152 81T226 60Q281 60 316 82T367 141T384 223V239Z" />
<glyph unicode="&#xe5;" horiz-adv-x="528" d="M361 639Q361 596 334 572T267 547Q229 547 201 571T173 639Q173 682 201 707T267 732Q306 732 333 707T361 639ZM319 639Q319 664 304 678T267 692Q246 692 232 678T217 639Q217 615 231 601T267 587Q289 587 304
601T319 639ZM390 0L384 90Q363 44 322 19T218 -7Q164 -7 126 10T68 58T47 133Q47 196 94 236T230 286L384 303V343Q384 385 353 410T269 436Q217 436 183 412T135 343L67 367Q87 433 140 470T271 507Q360 507 409 462T459 338V0H390ZM384 239L229 221Q179 215
153 194T127 137Q127 102 152 81T226 60Q281 60 316 82T367 141T384 223V239Z" />
<glyph unicode="&#xe6;" horiz-adv-x="898" d="M621 -7Q550 -7 498 25T416 117T387 255Q387 373 448 440T619 507Q693 507 745 476T824 393T852 273Q852 263 852 251T849 224H462Q465 170 486 135T542 82T619 64Q678 64 717 85T776 149L841 123Q813 65 759 29T621
-7ZM771 289Q772 338 752 370T696 419T617 436Q578 436 545 420T490 372T464 289H771ZM425 201L432 125Q413 75 379 46T302 5T218 -7Q168 -7 130 9T69 56T47 134Q47 174 63 201T105 246T164 273T230 286L384 304V343Q384 378 356 407T269 436Q220 436 184 413T135
343L67 367Q86 432 138 469T271 507Q360 507 410 461T461 338V250L425 201ZM384 238L230 221Q177 216 152 195T127 138Q127 98 156 81T227 63Q276 63 311 84T365 143T384 224V238Z" />
<glyph unicode="&#xe7;" horiz-adv-x="556" d="M309 -53Q344 -52 370 -61T411 -91T426 -140Q426 -167 412 -187T374 -219T317 -230H221V-183H304Q335 -183 350 -173T365 -140Q365 -119 350 -109T304 -98H259V10H309V-53ZM290 -7Q217 -7 162 25T77 114T46 248Q46
325 76 383T162 474T290 507Q367 507 425 472T509 373L440 349Q425 389 386 412T294 436Q243 436 206 413T148 348T127 249Q127 165 172 115T292 64Q343 64 383 87T442 149L510 125Q483 63 425 28T290 -7Z" />
<glyph unicode="&#xe8;" horiz-adv-x="564" d="M183 715L371 602V548L183 653V715ZM287 -7Q217 -7 163 27T77 120T46 255Q46 328 77 385T162 474T285 507Q353 507 406 477T490 394T518 273Q518 262 517 250T515 224H128Q130 177 151 141T206 85T285 64Q343 64
383 86T442 149L507 123Q477 60 420 27T287 -7ZM436 289Q437 332 418 365T363 417T282 436Q242 436 209 417T155 365T129 289H436Z" />
<glyph unicode="&#xe9;" horiz-adv-x="564" d="M371 715V652L183 548V602L371 715ZM287 -7Q217 -7 163 27T77 120T46 255Q46 328 77 385T162 474T285 507Q353 507 406 477T490 394T518 273Q518 262 517 250T515 224H128Q130 177 151 141T206 85T285 64Q343 64
383 86T442 149L507 123Q477 60 420 27T287 -7ZM436 289Q437 332 418 365T363 417T282 436Q242 436 209 417T155 365T129 289H436Z" />
<glyph unicode="&#xea;" horiz-adv-x="564" d="M409 558L286 634L163 558V616L286 690L409 616V558ZM287 -7Q217 -7 163 27T77 120T46 255Q46 328 77 385T162 474T285 507Q353 507 406 477T490 394T518 273Q518 262 517 250T515 224H128Q130 177 151 141T206 85T285
64Q343 64 383 86T442 149L507 123Q477 60 420 27T287 -7ZM436 289Q437 332 418 365T363 417T282 436Q242 436 209 417T155 365T129 289H436Z" />
<glyph unicode="&#xeb;" horiz-adv-x="564" d="M215 577Q196 577 183 589T170 620Q170 638 183 651T215 665Q233 665 246 652T259 620Q259 602 246 590T215 577ZM357 577Q338 577 326 589T313 620Q313 638 325 651T357 665Q375 665 388 652T402 620Q402 602 389
590T357 577ZM287 -7Q217 -7 163 27T77 120T46 255Q46 328 77 385T162 474T285 507Q353 507 406 477T490 394T518 273Q518 262 517 250T515 224H128Q130 177 151 141T206 85T285 64Q343 64 383 86T442 149L507 123Q477 60 420 27T287 -7ZM436 289Q437 332 418 365T363
417T282 436Q242 436 209 417T155 365T129 289H436Z" />
<glyph unicode="&#xec;" horiz-adv-x="233" d="M14 713L201 600V546L14 651V713ZM77 500H157V0H77V500Z" />
<glyph unicode="&#xed;" horiz-adv-x="233" d="M201 713V650L14 546V600L201 713ZM77 500H157V0H77V500Z" />
<glyph unicode="&#xee;" horiz-adv-x="233" d="M239 556L117 632L-6 556V614L117 688L239 614V556ZM77 500H157V0H77V500Z" />
<glyph unicode="&#xef;" horiz-adv-x="233" d="M45 575Q26 575 14 587T1 618Q1 636 13 649T45 663Q63 663 76 650T89 618Q89 600 76 588T45 575ZM188 575Q169 575 157 587T144 618Q144 636 156 649T188 663Q205 663 218 650T232 618Q232 600 219 588T188 575ZM77
500H157V0H77V500Z" />
<glyph unicode="&#xf0;" horiz-adv-x="596" d="M513 679V631L438 605Q494 534 522 452T550 286Q550 189 517 124T427 25T296 -8Q222 -8 166 24T78 116T46 254Q46 331 78 388T165 476T292 508Q326 508 357 499T412 471T455 422Q442 460 422 501T372 583L239 538V586L342
621Q325 641 305 661T260 700H344Q377 673 406 643L513 679ZM296 60Q341 60 380 82T444 146T469 251Q469 314 445 356T382 420T297 441Q250 441 212 420T151 357T128 254Q128 191 150 148T211 82T296 60Z" />
<glyph unicode="&#xf1;" horiz-adv-x="563" d="M157 557Q163 600 185 622T241 644Q265 644 280 634T310 613T343 602Q358 602 369 610T382 639H425Q419 596 396 575T340 553Q316 553 300 563T270 584T238 595Q222 595 212 586T199 557H157ZM77 500H146L150 429Q174
466 213 486T304 507Q361 507 404 483T471 410T495 288V0H420V279Q420 357 387 397T290 438Q225 438 189 395T152 268V0H77V500Z" />
<glyph unicode="&#xf2;" horiz-adv-x="590" d="M196 715L384 602V548L196 653V715ZM293 -7Q222 -7 166 24T78 112T46 249Q46 329 78 387T167 476T295 507Q366 507 422 476T511 388T544 251Q544 171 511 113T421 24T293 -7ZM292 64Q336 64 375 83T438 144T463 250Q463
315 439 356T377 416T294 436Q250 436 212 417T151 356T127 250Q127 185 150 144T210 84T292 64Z" />
<glyph unicode="&#xf3;" horiz-adv-x="590" d="M384 715V652L196 548V602L384 715ZM293 -7Q222 -7 166 24T78 112T46 249Q46 329 78 387T167 476T295 507Q366 507 422 476T511 388T544 251Q544 171 511 113T421 24T293 -7ZM292 64Q336 64 375 83T438 144T463 250Q463
315 439 356T377 416T294 436Q250 436 212 417T151 356T127 250Q127 185 150 144T210 84T292 64Z" />
<glyph unicode="&#xf4;" horiz-adv-x="590" d="M422 558L299 634L176 558V616L299 690L422 616V558ZM293 -7Q222 -7 166 24T78 112T46 249Q46 329 78 387T167 476T295 507Q366 507 422 476T511 388T544 251Q544 171 511 113T421 24T293 -7ZM292 64Q336 64 375
83T438 144T463 250Q463 315 439 356T377 416T294 436Q250 436 212 417T151 356T127 250Q127 185 150 144T210 84T292 64Z" />
<glyph unicode="&#xf5;" horiz-adv-x="590" d="M167 557Q173 600 195 622T251 644Q275 644 290 634T320 613T353 602Q368 602 379 610T393 639H435Q430 596 407 575T350 553Q326 553 310 563T280 584T248 595Q233 595 223 586T209 557H167ZM293 -7Q222 -7 166
24T78 112T46 249Q46 329 78 387T167 476T295 507Q366 507 422 476T511 388T544 251Q544 171 511 113T421 24T293 -7ZM292 64Q336 64 375 83T438 144T463 250Q463 315 439 356T377 416T294 436Q250 436 212 417T151 356T127 250Q127 185 150 144T210 84T292 64Z"
/>
<glyph unicode="&#xf6;" horiz-adv-x="590" d="M228 577Q209 577 196 589T183 620Q183 638 196 651T228 665Q246 665 259 652T272 620Q272 602 259 590T228 577ZM370 577Q351 577 339 589T326 620Q326 638 338 651T370 665Q388 665 401 652T415 620Q415 602 402
590T370 577ZM293 -7Q222 -7 166 24T78 112T46 249Q46 329 78 387T167 476T295 507Q366 507 422 476T511 388T544 251Q544 171 511 113T421 24T293 -7ZM292 64Q336 64 375 83T438 144T463 250Q463 315 439 356T377 416T294 436Q250 436 212 417T151 356T127 250Q127
185 150 144T210 84T292 64Z" />
<glyph unicode="&#xf7;" horiz-adv-x="637" d="M64 384H574V317H64V384ZM326 81Q303 81 288 97T272 136Q272 159 287 175T326 191Q348 191 364 175T380 136Q380 113 364 97T326 81ZM326 510Q303 510 288 526T272 565Q272 588 287 604T326 620Q348 620 364 604T380
565Q380 542 364 526T326 510Z" />
<glyph unicode="&#xf8;" horiz-adv-x="590" d="M434 445L490 407L175 61L119 100L434 445ZM293 -7Q222 -7 166 24T78 112T46 249Q46 329 78 387T167 476T295 507Q366 507 422 476T511 388T544 251Q544 171 511 113T421 24T293 -7ZM292 64Q336 64 375 83T438 144T463
250Q463 315 439 356T377 416T294 436Q250 436 212 417T151 356T127 250Q127 185 150 144T210 84T292 64Z" />
<glyph unicode="&#xf9;" horiz-adv-x="562" d="M169 715L357 602V548L169 653V715ZM486 0H418L413 72Q390 34 351 14T260 -7Q202 -7 159 17T93 89T69 210V500H143V218Q143 141 176 102T273 62Q337 62 374 103T412 229V500H486V0Z" />
<glyph unicode="&#xfa;" horiz-adv-x="562" d="M357 715V652L169 548V602L357 715ZM486 0H418L413 72Q390 34 351 14T260 -7Q202 -7 159 17T93 89T69 210V500H143V218Q143 141 176 102T273 62Q337 62 374 103T412 229V500H486V0Z" />
<glyph unicode="&#xfb;" horiz-adv-x="562" d="M395 558L272 634L149 558V616L272 690L395 616V558ZM486 0H418L413 72Q390 34 351 14T260 -7Q202 -7 159 17T93 89T69 210V500H143V218Q143 141 176 102T273 62Q337 62 374 103T412 229V500H486V0Z" />
<glyph unicode="&#xfc;" horiz-adv-x="562" d="M200 577Q182 577 169 589T156 620Q156 638 169 651T200 665Q219 665 232 652T245 620Q245 602 232 590T200 577ZM343 577Q324 577 312 589T299 620Q299 638 311 651T343 665Q361 665 374 652T387 620Q387 602 374
590T343 577ZM486 0H418L413 72Q390 34 351 14T260 -7Q202 -7 159 17T93 89T69 210V500H143V218Q143 141 176 102T273 62Q337 62 374 103T412 229V500H486V0Z" />
<glyph unicode="&#xfd;" horiz-adv-x="513" d="M341 715V652L153 548V602L341 715ZM416 500H494L208 -200H136L221 7L19 500H101L261 96L416 500Z" />
<glyph unicode="&#xfe;" horiz-adv-x="623" d="M151 -213H77V708H151V398Q174 446 221 477T338 509Q406 509 460 477T546 388T578 252Q578 174 547 116T461 25T338 -8Q294 -8 258 7T194 48T151 106V-213ZM497 252Q497 312 474 353T411 417T324 439Q277 439 238
417T175 352T151 251Q151 192 174 150T237 84T324 61Q372 61 411 84T473 149T497 252Z" />
<glyph unicode="&#xff;" horiz-adv-x="513" d="M185 577Q166 577 154 589T141 620Q141 638 153 651T185 665Q203 665 216 652T229 620Q229 602 216 590T185 577ZM327 577Q309 577 296 589T283 620Q283 638 296 651T327 665Q345 665 358 652T372 620Q372 602 359
590T327 577ZM416 500H494L208 -200H136L221 7L19 500H101L261 96L416 500Z" />
<glyph unicode="&#x2013;" horiz-adv-x="634" d="M55 312H578V245H55V312Z" />
<glyph unicode="&#x2014;" horiz-adv-x="837" d="M55 312H781V245H55V312Z" />
<glyph unicode="&#x2018;" horiz-adv-x="250" d="M207 700L149 480H59L150 700H207Z" />
<glyph unicode="&#x2019;" horiz-adv-x="250" d="M43 480L101 700H191L100 480H43Z" />
<glyph unicode="&#x201a;" horiz-adv-x="251" d="M43 -100L102 120H192L101 -100H43Z" />
<glyph unicode="&#x201c;" horiz-adv-x="403" d="M208 700L150 480H60L151 700H208ZM361 700L303 480H213L304 700H361Z" />
<glyph unicode="&#x201d;" horiz-adv-x="403" d="M196 480L254 700H344L253 480H196ZM43 480L101 700H191L100 480H43Z" />
<glyph unicode="&#x201e;" horiz-adv-x="406" d="M43 -100L102 120H192L101 -100H43ZM199 -100L257 120H347L256 -100H199Z" />
<glyph unicode="&#x2022;" horiz-adv-x="442" d="M220 215Q188 215 161 231T118 273T102 333Q102 367 118 393T161 436T220 452Q254 452 281 436T324 394T340 333Q340 300 324 274T281 231T220 215Z" />
<glyph unicode="&#x2039;" horiz-adv-x="271" d="M220 75H141L43 250L141 425H220L119 250L220 75Z" />
<glyph unicode="&#x203a;" horiz-adv-x="270" d="M51 75L152 250L51 425H130L228 250L130 75H51Z" />
</font>
</defs>
</svg>
