<?xml version="1.0" standalone="no"?>
<!DOCTYPE svg PUBLIC "-//W3C//DTD SVG 1.1//EN" "http://www.w3.org/Graphics/SVG/1.1/DTD/svg11.dtd">
<svg xmlns="http://www.w3.org/2000/svg">
<defs >
<font id="Srisakdi" horiz-adv-x="534" ><font-face
    font-family="Srisakdi"
    units-per-em="1000"
    panose-1="0 0 5 0 0 0 0 0 0 0"
    ascent="950"
    descent="-250"
    alphabetic="0" />
<glyph unicode=" " glyph-name="space" horiz-adv-x="258" />
<glyph unicode="!" glyph-name="exclam" horiz-adv-x="199" d="M187 662Q192 685 207 700T242 720L106 209Q95 171 65 139L187 662ZM28 -8T19 1T9 24Q9 43 22 56T55 70Q70 70 79 61T88 37Q88 18 75 5T43 -8Q28 -8 19 1Z" />
<glyph unicode="&quot;" glyph-name="quotedbl" horiz-adv-x="271" d="M172 667Q176 684 190 698T226 720L176 550Q173 540 164 531T142 518L172 667ZM266 667Q270 684 284 698T320 720L270 550Q267 540 258 531T236 518L266 667Z" />
<glyph unicode="#" glyph-name="numbersign" horiz-adv-x="567" d="M468 491L393 291H525L520 261H382L284 0H246L344 261H205L107 0H69L167 261H49L54 291H178L253 491H117L122 521H265L332 700H370L303 521H442L509 700H547L480 521H596L591 491H468ZM430 491H291L216
291H355L430 491Z" />
<glyph unicode="$" glyph-name="dollar" horiz-adv-x="690" d="M564 474T611 438T658 332Q658 239 603 163T454 40Q481 1 502 -45Q471 3 443 35Q401 17 364 7L337 -100H301L325 -2Q279 -10 235 -10Q151 -10 86 8T-5 58Q-11 75 -11 95Q-11 154 31 189T146 225Q262
225 362 143L413 351Q370 316 308 316Q244 316 207 351T169 446Q169 514 205 575T301 673T431 710Q465 710 500 700L525 800H561L533 689Q540 687 564 678T612 664T660 659Q726 659 792 693Q762 663 724 646T644 629Q618 629 595 635T552 648T525 657L480 474H482Q564
474 611 438ZM377 346T418 368L437 445Q373 438 316 388Q361 458 443 471L492 669Q452 680 423 680Q367 680 318 647T239 562T209 455Q209 405 240 376T329 346Q377 346 418 368ZM519 105T568 174T618 326Q618 385 580 415T473 447L391 117Q423 83 437 65Q519 105
568 174ZM290 20T333 29L355 119Q253 195 139 195Q87 195 56 158T25 57Q49 40 106 30T242 20Q290 20 333 29ZM389 44T423 58Q407 76 385 94L372 39Q389 44 423 58Z" />
<glyph unicode="%" glyph-name="percent" horiz-adv-x="933" d="M854 740H890L188 -40H152L854 740ZM201 290T172 309T124 359Q117 385 117 413Q117 542 225 614Q183 568 166 516T149 400Q149 374 153 358Q170 338 188 327T233 316Q284 316 319 358T372 465T390
600Q390 627 386 651Q367 684 333 684Q300 684 286 657T271 591Q271 549 290 513Q241 552 241 609Q241 651 266 680T330 710Q360 710 379 692T414 642Q422 613 422 581Q422 510 401 443T337 333T238 290Q201 290 172 309ZM645 -10T616 9T568 59Q561 85 561 113Q561
242 669 314Q627 268 610 216T593 100Q593 74 597 58Q614 38 632 27T677 16Q728 16 763 58T816 165T834 300Q834 327 830 351Q811 384 777 384Q744 384 730 357T715 291Q715 249 734 213Q685 252 685 309Q685 351 710 380T774 410Q804 410 823 392T858 342Q866
313 866 281Q866 210 845 143T781 33T682 -10Q645 -10 616 9Z" />
<glyph unicode="&amp;" glyph-name="ampersand" horiz-adv-x="729" d="M671 343T701 355T759 388Q734 353 698 333T625 312Q604 312 586 315Q549 156 474 73T275 -10Q140 -10 65 92Q46 140 46 177Q46 236 85 285T189 354Q153 375 132 410T111 485Q111 548 145
599T238 680T364 710Q413 710 450 691T503 637Q505 625 505 613Q505 525 466 476T360 426Q316 426 288 447T260 501Q260 534 288 563T367 601Q333 592 315 569T297 519Q297 491 315 474T364 456Q410 456 438 498T467 617Q467 630 464 642Q452 659 423 669T356 680Q303
680 256 654T179 583T150 485Q150 439 174 404T239 357V349Q169 330 127 282T85 171Q85 130 101 88Q129 60 179 40T275 20Q386 20 451 97T550 323Q542 325 520 330T478 338T437 341Q399 341 364 329T301 296Q326 331 364 351T445 372Q473 372 495 369T553 357Q584
350 603 347T645 343Q671 343 701 355Z" />
<glyph unicode="&apos;" glyph-name="quotesingle" horiz-adv-x="169" d="M172 667Q176 684 190 698T226 720L176 550Q173 540 164 531T142 518L172 667Z" />
<glyph unicode="(" glyph-name="parenleft" horiz-adv-x="257" d="M84 -118T60 -48T36 113Q36 204 59 295Q95 440 175 563T357 750Q265 664 197 545T97 295Q71 189 71 94Q71 -56 131 -160Q84 -118 60 -48Z" />
<glyph unicode=")" glyph-name="parenright" horiz-adv-x="257" d="M22 -74T90 45T190 295Q216 401 216 496Q216 647 156 750Q202 708 226 637T251 475Q251 386 228 295Q192 150 111 27T-70 -160Q22 -74 90 45Z" />
<glyph unicode="*" glyph-name="asterisk" horiz-adv-x="368" d="M149 469L248 566L141 609L160 647L261 592L275 720H315L289 592L406 647L413 609L294 566L360 459L326 430L268 550L174 440L149 469Z" />
<glyph unicode="+" glyph-name="plus" horiz-adv-x="521" d="M493 287H288L237 82H207L258 287H53L61 317H266L317 522H347L296 317H501L493 287Z" />
<glyph unicode="," glyph-name="comma" horiz-adv-x="214" d="M75 70T85 60T95 30Q95 -8 71 -45T4 -107Q49 -66 55 -9Q52 -10 46 -10Q32 -10 23 -1T13 23Q13 43 26 56T58 70Q75 70 85 60Z" />
<glyph unicode="-" glyph-name="hyphen" horiz-adv-x="341" d="M70 313H310L302 283H62L70 313Z" />
<glyph unicode="." glyph-name="period" horiz-adv-x="199" d="M28 -8T19 1T9 24Q9 43 22 56T55 70Q70 70 79 61T88 37Q88 18 75 5T43 -8Q28 -8 19 1Z" />
<glyph unicode="/" glyph-name="slash" horiz-adv-x="342" d="M406 750H446L-44 -160H-84L406 750Z" />
<glyph unicode="0" glyph-name="zero" horiz-adv-x="584" d="M172 -10T129 19T62 93Q54 135 54 175Q54 290 101 387T240 546Q167 464 129 363T91 150Q91 130 93 92Q118 60 156 40T237 20Q331 20 399 101T504 306T540 553Q540 587 539 602Q489 680 426 680Q386
680 356 655T310 588T294 499Q294 453 311 406Q264 464 264 525Q264 573 287 615T349 684T431 710Q476 710 512 679T574 587Q577 557 577 524Q577 397 533 273T410 70T229 -10Q172 -10 129 19Z" />
<glyph unicode="1" glyph-name="one" horiz-adv-x="313" d="M133 14T140 32T157 92L262 515Q280 582 297 629L293 631Q228 558 131 535Q182 561 226 603T318 706L345 694L195 92Q189 67 185 48T181 19Q181 9 184 0H122Q133 14 140 32Z" />
<glyph unicode="2" glyph-name="two" horiz-adv-x="538" d="M140 54T173 49T247 33Q301 20 323 20Q394 20 453 78Q405 -10 315 -10Q280 -10 220 5Q181 14 154 19T95 24Q62 24 45 18T5 -10L-18 2Q24 73 84 135T258 280Q335 337 382 384T456 487T482 613L481 635Q463
655 433 667T359 680Q310 680 272 657T212 592T190 498Q190 457 208 406Q161 464 161 525Q161 577 189 619T264 686T366 710Q412 710 444 693T503 635Q516 612 516 578Q516 492 454 415T283 256Q183 181 131 133T52 45Q76 54 102 54Q140 54 173 49Z" />
<glyph unicode="3" glyph-name="three" horiz-adv-x="483" d="M523 557T476 503T348 397H351Q382 397 404 380T445 324Q452 304 452 279Q452 189 395 115Q409 98 423 75Q417 82 389 107Q344 53 276 22T133 -10Q81 -10 48 4T1 44Q0 50 0 62Q0 135 52 174T188 214Q300
214 374 140Q425 220 421 329Q411 348 391 358T343 369Q304 369 272 345L258 369Q342 423 390 462T464 547T487 654Q479 665 458 672T412 680Q361 680 315 642T222 503Q226 555 250 602T317 680T415 710Q448 710 470 698T513 658Q523 639 523 617Q523 557 476 503ZM209
20T267 47T364 126Q281 184 184 184Q37 184 37 48Q44 35 72 28T138 20Q209 20 267 47Z" />
<glyph unicode="4" glyph-name="four" horiz-adv-x="526" d="M444 204T463 209T504 226Q464 174 398 174Q384 174 377 175L348 92Q336 61 331 36T328 0H266Q277 13 285 30T309 92L341 181Q323 185 299 191T264 201Q230 211 213 215Q181 179 148 163T78 146Q47
146 28 157T8 188Q8 219 43 237T136 256Q166 256 204 249Q248 306 299 415T417 700H456Q387 524 334 415T235 243Q253 239 287 229L352 212L443 470H482L388 206Q410 204 419 204Q444 204 463 209ZM135 174T180 222Q152 228 123 228Q89 228 68 220T46 196Q46 186
57 180T86 174Q135 174 180 222Z" />
<glyph unicode="5" glyph-name="five" horiz-adv-x="497" d="M390 630T361 654Q311 552 250 453Q287 470 332 470Q377 470 407 450T462 384Q472 360 472 325Q472 271 453 219T399 123Q415 104 433 75Q410 98 391 113Q343 56 277 23T138 -10Q91 -10 57 4T10 44Q9
49 9 59Q9 133 61 173T198 214Q303 214 374 149Q409 199 427 262T442 392Q427 415 397 427T330 440Q256 440 200 388L179 402Q215 455 262 538T346 700H354Q368 681 390 671T442 660Q473 660 504 672T562 706Q509 630 434 630Q390 630 361 654ZM207 20T264 50T362
133Q282 184 193 184Q46 184 46 48Q52 36 79 28T141 20Q207 20 264 50Z" />
<glyph unicode="6" glyph-name="six" horiz-adv-x="516" d="M168 -10T128 12T65 70Q56 106 56 147Q56 259 132 369T330 567T582 702Q352 571 223 434T94 129Q94 110 96 74Q150 20 227 20Q299 20 350 64T429 183T460 348Q448 372 424 385T368 398Q308 398 275 358T241
252Q241 222 248 184Q211 235 211 282Q211 322 233 355T293 408T373 428Q412 428 436 408T480 339Q487 317 487 288Q487 210 454 142T360 32T225 -10Q168 -10 128 12Z" />
<glyph unicode="7" glyph-name="seven" horiz-adv-x="418" d="M464 613Q357 489 309 430H403Q373 401 314 401H286Q216 311 165 225T64 22Q61 16 61 10Q61 5 64 0H9Q24 19 28 29Q79 145 130 228T252 401H143Q173 430 232 430H275Q305 468 362 534L438 625L435
628Q389 609 324 598T215 586Q133 586 133 633Q133 665 159 687T222 710Q248 710 269 699T317 667Q275 682 231 682Q205 682 188 671T171 642Q171 614 226 614Q280 614 366 634T530 700H538L464 613Z" />
<glyph unicode="8" glyph-name="eight" horiz-adv-x="468" d="M487 485T327 375Q368 312 386 269T404 190Q404 133 373 88T288 16T173 -10Q124 -10 91 5T38 44Q23 87 23 117Q23 161 45 199T118 279T256 371L276 383Q249 437 249 498Q249 541 264 580Q263 571 263
554Q263 485 309 404Q380 452 415 505T451 626Q451 641 450 649Q439 663 413 671T354 680Q281 680 243 635T204 509Q204 473 215 443Q170 490 170 547Q170 594 196 631T266 689T362 710Q400 710 426 697T474 652Q487 632 487 605Q487 485 327 375ZM364 218T348
257T293 353L274 341Q191 293 148 260T81 185T58 84Q58 75 60 57Q73 41 106 31T181 20Q232 20 274 42T340 101T364 185Q364 218 348 257Z" />
<glyph unicode="9" glyph-name="nine" horiz-adv-x="515" d="M221 129T350 266T479 571Q479 590 477 626Q423 680 346 680Q276 680 225 635T145 514T113 352Q141 302 209 302Q254 302 291 324T379 398Q337 333 296 303T205 272Q165 272 139 293T93 361Q86 383
86 412Q86 489 121 557T218 668T353 710Q457 710 508 630Q517 594 517 553Q517 441 441 331T243 133T-9 -2Q221 129 350 266Z" />
<glyph unicode=":" glyph-name="colon" horiz-adv-x="232" d="M145 394T136 403T126 426Q126 445 139 458T172 472Q187 472 196 463T205 439Q205 420 192 407T160 394Q145 394 136 403ZM46 0T37 9T27 32Q27 51 40 64T73 78Q88 78 97 69T106 45Q106 26 93 13T61
0Q46 0 37 9Z" />
<glyph unicode=";" glyph-name="semicolon" horiz-adv-x="214" d="M75 70T85 60T95 30Q95 -8 71 -45T4 -107Q49 -66 55 -9Q52 -10 46 -10Q32 -10 23 -1T13 23Q13 43 26 56T58 70Q75 70 85 60ZM135 394T126 403T116 426Q116 445 129 458T162 472Q177 472 186 463T195
439Q195 420 182 407T150 394Q135 394 126 403Z" />
<glyph unicode="&lt;" glyph-name="less" horiz-adv-x="521" d="M54 290L60 314L552 521L544 491L95 302L450 113L442 83L54 290Z" />
<glyph unicode="=" glyph-name="equal" horiz-adv-x="521" d="M81 398H521L513 368H73L81 398ZM41 236H481L473 206H33L41 236Z" />
<glyph unicode="&gt;" glyph-name="greater" horiz-adv-x="520" d="M10 113L459 302L104 491L112 521L500 314L494 290L2 83L10 113Z" />
<glyph unicode="?" glyph-name="question" horiz-adv-x="432" d="M168 177T168 187Q168 255 208 315T325 439Q390 494 413 526T436 595Q436 634 406 656T322 678Q275 678 237 660T175 609T152 537Q152 509 167 493T212 476Q252 476 278 506T304 579Q304 589 301
596Q314 586 321 572T329 543Q329 500 292 473T206 446Q161 446 137 468T112 530Q112 582 142 623T222 687T330 710Q399 710 437 682T475 603Q475 552 443 510T345 411Q265 344 227 289T170 159Q168 177 168 187ZM118 -8T109 1T99 24Q99 43 112 56T145 70Q160 70
169 61T178 37Q178 18 165 5T133 -8Q118 -8 109 1Z" />
<glyph unicode="@" glyph-name="at" horiz-adv-x="810" d="M476 135T476 155Q476 164 480 172L509 242Q467 190 415 161T314 131Q248 131 217 203Q215 223 215 234Q215 321 261 404T384 539T550 591Q638 591 697 514Q621 561 541 561Q471 561 408 518T303 405T251
261Q246 223 246 196Q262 176 277 168T314 159Q367 159 428 202T541 319L613 490Q616 497 623 501T638 506Q647 506 650 502T651 490L524 186Q522 178 522 176Q522 165 530 165Q597 165 650 201T734 301T765 446Q765 553 705 616T542 679Q420 679 322 628T169 487T114
284Q114 204 143 145T227 53T354 20Q433 20 539 80Q510 40 462 15T365 -10Q277 -10 211 26T110 128T74 284Q74 405 133 502T297 654T534 709Q616 709 677 677T771 586T804 446Q804 357 765 286T655 175T498 135Q476 135 476 155Z" />
<glyph unicode="A" glyph-name="A" horiz-adv-x="702" d="M574 710T627 692T714 637T747 550Q747 490 713 448T618 397Q659 417 683 454T708 537Q708 601 653 640T509 679Q382 679 290 602T150 398T105 123Q130 74 167 47T242 20Q298 20 367 77T503 233L544 398Q553
433 559 454T576 502L572 504Q484 368 358 368Q311 368 285 386T258 435Q258 471 281 493T342 516Q367 516 380 504T392 469Q374 487 348 487Q325 487 311 474T297 442Q297 423 316 411T370 399Q434 399 491 447T628 613H636L506 92Q493 38 493 14Q493 6 495 0H433Q444
14 451 32T468 92L483 152H480Q351 -10 234 -10Q175 -10 135 27T78 127Q73 159 73 190Q73 324 129 444T286 637T513 710Q574 710 627 692Z" />
<glyph unicode="B" glyph-name="B" horiz-adv-x="729" d="M646 361T670 334Q683 310 683 279Q683 210 651 143T562 34T441 -9Q354 -9 306 57Q333 39 363 31T441 22Q500 22 548 64T622 170T649 298Q649 325 640 346Q632 353 614 365Q583 338 548 323T475 308Q436
308 414 320T392 354Q392 385 423 404T504 424Q556 424 602 395Q638 433 659 484T681 586Q681 610 673 631Q619 679 535 679Q298 679 239 473Q279 489 319 523T411 613H419L290 92Q278 44 278 13Q278 3 279 0H217Q228 14 235 32T252 92L328 398Q345 468 365 522L361
524Q302 467 232 442Q219 385 221 306Q200 351 200 405Q200 424 201 433Q176 428 157 428Q110 428 84 446T57 495Q57 531 80 553T141 576Q166 576 179 564T191 529Q173 547 147 547Q124 547 110 534T96 502Q96 483 115 471T169 459Q188 459 204 462Q223 580 313
645T543 710Q595 710 632 687T703 623Q716 599 716 570Q716 519 692 468T627 377Q646 361 670 334ZM537 336T585 379Q543 396 497 396Q466 396 447 387T427 361Q427 350 442 343T482 336Q537 336 585 379Z" />
<glyph unicode="C" glyph-name="C" horiz-adv-x="726" d="M416 679T351 620T244 462Q318 471 380 510T482 613H490L395 233Q383 185 383 154Q383 144 384 141H322Q333 155 340 173T357 233L398 398Q414 463 432 512L429 514Q328 443 231 431Q204 359 190 279T178
122Q211 76 274 49T413 21Q473 21 532 43T663 116Q547 -10 406 -10Q299 -10 239 27T152 130Q147 155 147 196Q147 314 190 428H189Q131 428 99 445T66 493Q66 524 91 545T150 566Q175 566 187 554T198 519Q180 537 155 537Q134 537 120 526T105 497Q105 478 129
469T197 459H202Q250 571 329 640T507 710Q540 710 567 706T627 694Q683 681 717 681Q742 681 768 686T831 706Q800 678 768 664T697 650Q664 650 610 663Q578 671 553 675T498 679Q416 679 351 620Z" />
<glyph unicode="D" glyph-name="D" horiz-adv-x="816" d="M810 540T810 503Q810 366 758 249T610 61T388 -10Q318 -10 262 14T168 87Q222 53 274 37T387 21Q517 21 606 97T738 301T778 578Q745 624 682 651T543 679Q465 679 401 656T299 587T261 478V467Q327 481
382 518T472 613H480L370 173Q356 117 356 102Q356 93 359 81H297Q308 95 315 113T332 173L371 328Q315 335 279 362T228 432Q207 428 179 428Q121 428 89 445T56 493Q56 524 81 545T140 566Q165 566 177 554T188 519Q170 537 145 537Q124 537 110 526T95 497Q95
478 119 469T187 459Q198 459 222 461Q221 467 221 479Q221 552 264 604T381 683T543 710Q650 710 713 672T804 570Q810 540 810 503ZM340 458T266 439Q286 373 371 329L388 398Q404 463 422 512L419 514Q340 458 266 439Z" />
<glyph unicode="E" glyph-name="E" horiz-adv-x="726" d="M416 679T351 620T244 462Q318 471 380 510T482 613H490L422 342H426Q467 402 502 427T586 453Q616 453 635 436T658 391Q649 405 629 413T584 422Q538 422 497 385T400 252L395 233Q383 185 383 154Q383
144 384 141H322Q333 155 340 173T357 233L398 398Q414 463 432 512L429 514Q328 443 231 431Q204 359 190 279T178 122Q211 76 274 49T413 21Q473 21 532 43T663 116Q547 -10 406 -10Q299 -10 239 27T152 130Q147 155 147 196Q147 314 190 428H189Q131 428 99
445T66 493Q66 524 91 545T150 566Q175 566 187 554T198 519Q180 537 155 537Q134 537 120 526T105 497Q105 478 129 469T197 459H202Q250 571 329 640T507 710Q540 710 567 706T627 694Q683 681 717 681Q742 681 768 686T831 706Q800 678 768 664T697 650Q664
650 610 663Q578 671 553 675T498 679Q416 679 351 620Z" />
<glyph unicode="F" glyph-name="F" horiz-adv-x="735" d="M363 679T325 649T266 570T241 463Q314 474 374 512T471 613H479L402 302H406Q447 362 482 387T565 413Q595 413 614 396T637 351Q628 365 608 373T563 382Q517 382 476 345T379 212L349 92Q336 40 336
14Q336 6 338 0H276Q287 13 293 31T311 92L377 357Q397 437 422 512L419 514Q329 450 241 434Q244 375 274 328Q222 372 210 429Q200 428 179 428Q121 428 89 445T56 493Q56 524 81 545T140 566Q190 566 188 519Q170 537 144 537Q123 537 109 526T94 498Q94 479
119 469T187 459Q200 459 206 460V468Q206 534 234 589T314 677T430 710Q459 710 481 705T535 689Q572 677 601 671T671 664Q761 664 840 706Q796 670 749 652T645 633Q609 633 581 639T513 658Q481 669 460 674T415 679Q363 679 325 649Z" />
<glyph unicode="G" glyph-name="G" horiz-adv-x="838" d="M710 504T747 480T808 417Q822 389 822 364Q822 279 767 192T625 47T449 -10Q356 -10 286 28T188 130Q183 155 183 196Q183 266 203 345Q212 385 229 430Q201 428 189 428Q131 428 99 445T66 493Q66 524
91 545T150 566Q175 566 187 554T198 519Q180 537 155 537Q134 537 120 526T105 497Q105 478 129 469T197 459Q218 459 241 462Q290 579 368 644T543 710Q576 710 603 706T663 694Q719 681 753 681Q778 681 804 686T867 706Q836 678 804 664T733 650Q700 650 646
663Q614 671 589 675T534 679Q456 679 392 624T283 469Q352 485 411 522T502 613H510L451 379Q484 432 541 468T657 504Q710 504 747 480ZM530 21T609 75T737 213T787 375Q787 401 778 425Q759 448 725 460T649 473Q596 473 540 435T435 315L420 254Q407 202 407
176Q407 168 409 162H347Q358 175 364 193T382 254L408 357Q431 449 452 512L449 514Q370 458 269 436Q252 387 241 345Q223 271 218 224T214 122Q247 76 310 49T449 21Q530 21 609 75Z" />
<glyph unicode="H" glyph-name="H" horiz-adv-x="866" d="M761 504T833 417Q840 402 843 391T846 363Q846 281 801 194T684 48T536 -10Q491 -10 464 6T424 59Q457 39 482 30T537 21Q607 21 670 78T772 220T811 381Q811 404 803 425Q776 448 739 460T659 473Q591
473 529 431T398 285L350 92Q338 44 338 13Q338 3 339 0H277Q288 14 295 32T312 92L378 357Q401 449 422 512L419 514Q344 461 271 440Q274 368 306 318Q259 372 243 434Q211 428 179 428Q121 428 89 445T56 493Q56 524 81 545T140 566Q165 566 177 554T188 519Q170
537 145 537Q124 537 110 526T95 497Q95 478 119 469T187 459Q215 459 238 463Q236 479 236 489Q236 551 264 601T342 681T454 710Q504 710 580 691Q621 682 647 678T703 673Q806 673 866 704Q834 672 790 657T695 642Q668 642 641 646T571 660Q491 679 444 679Q365
679 319 620T270 469Q333 484 385 520T472 613H480L414 349Q523 504 667 504Q761 504 833 417Z" />
<glyph unicode="I" glyph-name="I" horiz-adv-x="517" d="M495 180T525 116Q489 168 433 202L432 199Q408 103 333 47T156 -10Q98 -10 55 8T-4 59Q-6 73 -6 82Q-6 140 23 186T102 259T214 285Q324 285 405 242L457 452Q480 544 501 607L498 609Q376 523 263 523Q205
523 173 543T140 601Q140 640 165 668T229 696Q281 696 277 641Q261 665 235 665Q211 665 195 648T178 609Q178 584 203 569T271 554Q317 554 371 572T473 625T551 708H559L438 222Q495 180 525 116ZM399 219Q322 254 206 254Q123 254 76 201T29 59Q40 42 77 32T164
21Q249 21 311 69T394 199L399 219Z" />
<glyph unicode="J" glyph-name="J" horiz-adv-x="516" d="M432 -69T462 -134Q424 -79 369 -48L368 -51Q345 -147 270 -203T93 -260Q35 -260 -8 -242T-67 -191Q-69 -177 -69 -168Q-69 -110 -40 -64T39 9T151 35Q260 35 341 -7L456 452Q475 528 500 607L497 609Q377
523 263 523Q205 523 172 544T139 602Q139 640 164 668T228 696Q280 696 276 641Q260 665 234 665Q210 665 194 648T177 609Q177 584 202 569T270 554Q316 554 370 572T472 625T550 708H558L374 -28Q432 -69 462 -134ZM335 -30Q257 4 143 4Q59 4 13 -49T-34 -191Q-23
-208 14 -218T101 -229Q186 -229 248 -181T330 -51L335 -30Z" />
<glyph unicode="K" glyph-name="K" horiz-adv-x="756" d="M788 710T815 692T842 641Q842 595 807 568T717 541Q646 541 622 586Q660 570 702 570Q747 570 775 586T803 634Q803 655 784 667T731 680Q685 680 643 655T556 575T454 427Q506 284 672 -101Q564 87 508
197T425 378Q384 309 279 120L272 92Q259 40 259 14Q259 6 261 0H199Q210 13 216 31T234 92L332 485Q349 555 369 609L365 611Q333 568 285 542T179 515Q131 515 105 533T78 582Q78 618 101 640T162 663Q187 663 200 651T212 616Q194 634 168 634Q145 634 131 621T117
589Q117 570 136 558T192 546Q250 546 300 581T416 700H424L308 235Q410 420 471 515T596 660T738 710Q788 710 815 692Z" />
<glyph unicode="L" glyph-name="L" horiz-adv-x="695" d="M317 298Q289 186 236 108L273 89Q329 60 367 46T444 31Q498 31 546 46T648 95Q600 45 551 23T437 0Q394 0 349 17T240 66Q236 69 215 79Q180 36 140 13T59 -10Q16 -10 -7 6T-31 51Q-31 95 7 121T99 148Q148
148 207 121Q252 193 279 298L315 441Q320 460 322 466Q270 509 236 584Q278 525 329 490Q366 596 432 653T585 710Q635 710 672 692T726 641Q728 629 728 618Q728 557 699 509T619 433T505 405Q417 405 354 443L353 441L317 298ZM505 679T449 625T361 471Q428
436 512 436Q596 436 643 491T693 641Q681 658 650 668T577 679Q505 679 449 625ZM97 19T127 38T186 92Q129 119 91 119Q55 119 31 102T7 57Q7 39 22 29T66 19Q97 19 127 38Z" />
<glyph unicode="M" glyph-name="M" horiz-adv-x="1067" d="M1001 566T971 568Q915 484 879 369T843 168Q843 97 872 58T955 19Q1012 19 1053 59Q1014 -10 930 -10Q868 -10 835 34T802 157Q802 254 838 370T935 573Q891 580 848 592T748 625Q667 653 613 666T501
680Q394 680 328 623T251 466Q302 479 347 513T452 613H460L395 353Q472 357 543 404T690 533H698L588 92Q575 38 575 14Q575 6 577 0H515Q526 14 533 32T550 92L606 318Q623 388 643 442L639 444Q577 388 517 358T388 323L330 92Q317 38 317 14Q317 6 319 0H257Q268
14 275 32T292 92L350 324Q302 328 270 347T224 396Q217 415 216 431Q196 428 177 428Q118 428 88 446T57 495Q57 529 81 552T141 576Q166 576 179 564T191 529Q173 547 147 547Q124 547 110 534T96 503Q96 483 119 471T189 459Q207 459 215 460Q217 535 256 591T361
679T509 710Q574 710 632 696T776 651Q832 631 872 619T955 600Q996 652 1041 681T1135 710Q1168 710 1185 699T1202 666Q1202 617 1147 592T1016 566Q1001 566 971 568ZM1056 681T990 595L1026 594Q1093 594 1127 612T1162 656Q1162 668 1152 674T1122 681Q1056
681 990 595ZM335 458T249 437V429Q249 410 250 401Q266 382 294 370T357 354L368 398Q385 468 405 522L401 524Q335 458 249 437Z" />
<glyph unicode="N" glyph-name="N" horiz-adv-x="834" d="M776 576T744 580Q687 496 649 375T610 168Q610 97 639 58T722 19Q779 19 820 59Q781 -10 697 -10Q635 -10 602 34T569 157Q569 256 609 378T712 588Q675 600 627 631Q586 656 557 668T489 680Q420 680
368 654T286 579T254 467Q304 480 349 515T452 613H460L395 352Q480 358 521 412Q483 335 388 324L330 92Q317 38 317 14Q317 6 319 0H257Q268 14 275 32T292 92L349 323Q289 325 255 352T216 431Q196 428 177 428Q118 428 88 446T57 495Q57 529 81 552T141 576Q166
576 179 564T191 529Q173 547 147 547Q124 547 110 534T96 503Q96 483 119 471T189 459Q207 459 215 460Q218 535 254 592T353 679T497 710Q545 710 578 697T652 656Q671 644 691 633T732 615Q811 710 892 710Q925 710 942 699T959 666Q959 619 913 598T795 576Q776
576 744 580ZM823 681T764 607Q782 604 805 604Q919 604 919 654Q919 681 879 681Q823 681 764 607ZM401 524Q335 460 255 439Q264 362 357 353L368 398Q385 468 405 522L401 524Z" />
<glyph unicode="O" glyph-name="O" horiz-adv-x="736" d="M240 -10T181 26T86 119Q70 166 70 227Q70 378 148 497T371 682Q251 593 180 470T108 211Q108 163 115 107Q145 72 205 47T317 21Q424 21 508 87T639 259T686 478Q686 562 680 603Q615 679 540 679Q491
679 453 650T394 575T373 487Q373 438 402 397T482 328Q414 336 375 378T335 487Q335 541 360 593T432 677T540 710Q591 710 636 678T716 587Q724 545 724 478Q724 360 675 247T533 62T322 -10Q240 -10 181 26Z" />
<glyph unicode="P" glyph-name="P" horiz-adv-x="714" d="M744 589T744 551Q744 454 695 377T560 255T373 211Q346 211 320 214L289 92Q276 40 276 14Q276 6 278 0H216Q227 13 233 31T251 92L283 221Q248 229 222 243T181 277Q212 256 290 247L328 398Q345 468
365 522L361 524Q305 470 239 445Q231 395 231 346Q212 388 210 435Q179 428 157 428Q110 428 84 446T57 495Q57 531 80 553T141 576Q166 576 179 564T190 529Q173 547 147 547Q124 547 110 534T96 502Q96 482 115 471T169 459Q188 459 211 464Q216 538 259 593T371
679T523 710Q612 710 660 685T732 613Q744 589 744 551ZM470 242T547 283T666 400T709 572Q709 606 702 621Q678 652 636 665T515 679Q408 679 340 626T246 476Q284 492 323 525T411 613H419L327 243Q342 242 369 242Q470 242 547 283Z" />
<glyph unicode="Q" glyph-name="Q" horiz-adv-x="736" d="M724 389T695 301T612 141T483 30Q523 -21 572 -77Q492 -11 460 19Q396 -10 322 -10Q240 -10 181 26T86 119Q70 166 70 227Q70 378 148 497T371 682Q251 593 180 470T108 211Q108 163 115 107Q145 72 205
47T317 21Q379 21 434 44Q385 93 337 149Q369 153 388 159Q437 89 462 57Q530 93 580 159T658 309T686 478Q686 562 680 603Q615 679 540 679Q491 679 453 650T394 575T373 487Q373 438 402 397T482 328Q414 336 375 378T335 487Q335 541 360 593T432 677T540 710Q591
710 636 678T716 587Q724 545 724 478Q724 389 695 301Z" />
<glyph unicode="R" glyph-name="R" horiz-adv-x="747" d="M758 520T721 458T616 347T455 273Q495 205 541 135T703 -100Q575 38 518 110T398 281L400 289Q567 330 648 418T729 646Q719 662 696 671T640 680Q588 680 544 644T448 524T317 279H316L270 92Q257 38
257 14Q257 6 259 0H197Q208 14 215 32T232 92L330 485Q347 555 367 609L363 611Q319 566 274 541T176 515Q132 515 106 533T80 583Q80 619 103 641T163 663Q188 663 201 651T213 616Q196 634 170 634Q149 634 134 622T118 590Q118 570 137 558T190 546Q228 546
261 563T328 611T413 700H421L344 391Q402 509 450 578T545 679T642 710Q680 710 705 693T750 638Q758 618 758 590Q758 520 721 458Z" />
<glyph unicode="S" glyph-name="S" horiz-adv-x="690" d="M244 316T207 351T169 446Q169 514 205 575T301 673T431 710Q461 710 484 704T546 685Q579 672 604 666T660 659Q726 659 792 693Q762 663 724 646T644 629Q616 629 592 635T532 655Q496 668 473 674T423
680Q367 680 318 647T239 562T209 455Q209 405 240 376T329 346Q392 346 446 387Q398 316 308 316Q244 316 207 351ZM564 474T611 438T658 332Q658 239 603 163T454 40Q481 1 502 -45Q471 3 443 35Q345 -10 235 -10Q151 -10 86 8T-5 58Q-11 75 -11 95Q-11 154 31
189T146 225Q233 225 307 181T437 65Q519 105 568 174T618 326Q618 387 578 417T465 447Q423 447 387 433T316 388Q370 474 482 474Q564 474 611 438ZM336 20T423 58Q363 122 291 158T139 195Q87 195 56 158T25 57Q49 40 106 30T242 20Q336 20 423 58Z" />
<glyph unicode="T" glyph-name="T" horiz-adv-x="617" d="M444 20T512 56T625 158Q585 77 509 34T334 -10Q237 -10 183 20T101 104Q94 137 94 166Q94 226 110 285T157 398Q120 414 105 446Q94 474 94 506Q94 567 125 613T209 685T329 710Q366 710 402 703T492
683Q544 670 573 665T631 659Q695 659 763 693Q733 663 695 646T615 629Q588 629 559 635T479 653Q423 667 389 673T321 680Q231 680 180 628T128 485Q128 473 130 451Q149 433 174 424Q212 479 264 518T378 575Q328 555 284 514T207 416Q222 413 238 413Q287 413
331 436T415 496T511 593H519L423 211Q410 159 410 133Q410 125 412 119H350Q361 132 367 150T385 211L427 378Q444 448 464 502L460 504Q404 445 349 414T232 383Q208 383 191 387Q161 329 145 266T129 143Q129 129 131 101Q164 64 223 42T355 20Q444 20 512 56Z"
/>
<glyph unicode="U" glyph-name="U" horiz-adv-x="688" d="M582 92Q569 38 569 14Q569 6 571 0H509Q520 14 527 32T544 92L578 228Q516 106 449 48T306 -10Q240 -10 197 24T137 113Q134 137 134 159Q134 243 163 328Q123 342 100 371T77 443Q77 538 157 596T366
674Q412 682 454 700H462Q363 600 304 520T212 352Q234 347 253 347Q297 347 331 363T401 419Q370 369 331 343T233 317Q221 317 201 319Q172 226 168 108Q188 68 227 44T314 20Q386 20 458 102T612 366L642 485Q659 555 679 609L675 611Q567 505 485 505Q456 505
440 517T423 552Q423 582 446 602T504 623Q557 623 555 576Q537 594 507 594Q487 594 475 584T462 559Q462 548 472 542T498 536Q541 536 596 577T726 700H734L582 92ZM117 422T133 400T177 364Q237 512 369 647Q255 629 186 580T117 452Q117 422 133 400Z" />
<glyph unicode="V" glyph-name="V" horiz-adv-x="655" d="M680 532T668 538Q628 408 505 260T237 0H221Q185 59 166 113T147 227Q147 280 159 328Q119 342 96 371T72 443Q72 537 152 595T362 674Q408 682 449 700H457Q351 594 290 515T203 353Q225 347 249 347Q292
347 326 363T397 419Q365 368 327 343T229 317Q210 317 194 320Q184 279 184 230Q184 130 241 33Q376 145 488 288T636 556Q568 598 568 644Q568 673 585 691T630 710Q656 710 670 692T685 637Q685 596 671 548Q686 536 708 520Q680 532 668 538ZM605 618T641 577Q649
614 649 643Q649 682 627 682Q616 682 611 672T605 651Q605 618 641 577ZM112 423T127 401T170 365Q194 436 242 503T365 647Q252 629 182 580T112 453Q112 423 127 401Z" />
<glyph unicode="W" glyph-name="W" horiz-adv-x="901" d="M915 538Q876 410 763 260T519 0H503Q466 115 461 227Q357 103 236 0H220Q168 125 168 233Q168 289 182 342Q133 354 104 384T74 459Q74 543 155 598T361 674Q405 682 444 700H452Q357 589 305 516T227
369Q245 367 253 367Q296 367 330 383T401 439Q369 388 331 363T233 337H218Q205 291 205 235Q205 150 244 41Q361 146 460 271Q460 363 480 466T539 639T634 710Q657 710 668 698T680 658Q680 579 631 479T497 271Q497 160 531 43Q650 154 750 294T883 556Q814
598 814 644Q814 673 831 691T876 710Q902 710 916 692T931 637Q931 598 918 548Q930 537 954 520L915 538ZM594 682T568 625T523 483T499 323Q565 415 604 501T643 658Q643 682 625 682Q594 682 568 625ZM851 617T888 577Q895 617 895 643Q895 682 873 682Q862
682 857 672T851 651Q851 617 888 577ZM115 435T136 412T193 377Q216 440 257 502T367 647Q256 628 186 583T115 468Q115 435 136 412Z" />
<glyph unicode="X" glyph-name="X" horiz-adv-x="892" d="M911 710T936 692T961 643Q961 608 938 581T878 540T800 525Q767 525 740 534Q813 541 867 565T921 635Q921 655 904 667T856 680Q816 680 778 656T696 573L556 391Q630 367 679 303Q617 345 546 362L549
102Q550 62 552 42T560 0H494Q511 39 511 96L509 330L376 157Q314 76 248 33T116 -10Q75 -10 47 10T11 65Q11 99 22 145Q53 270 162 338T432 406Q470 406 508 401L506 623Q458 570 409 544T298 517Q246 517 217 535T187 584Q187 627 225 653T316 680Q388 680 400
629Q375 640 355 645T313 651Q276 651 251 634T225 590Q225 570 246 559T305 547Q377 547 435 588T535 700H543L546 431L662 582Q715 651 762 680T864 710Q911 710 936 692ZM500 371Q460 376 424 376Q282 376 185 316T61 145Q53 113 45 61Q51 42 71 31T123 19Q174
19 232 60T346 172L500 371Z" />
<glyph unicode="Y" glyph-name="Y" horiz-adv-x="764" d="M807 526T797 531T780 539Q745 431 657 302T444 82T180 -10Q131 -10 91 4T38 42Q36 54 36 62Q36 125 85 160T209 196Q271 196 312 177T379 117Q305 167 201 167Q142 167 108 134T73 45Q84 34 112 27T180
20Q266 20 352 65T516 189Q473 298 449 410T421 623Q374 570 322 544T208 517Q156 517 127 535T97 584Q97 627 135 653T226 680Q298 680 310 629Q285 640 265 645T223 651Q186 651 161 634T135 590Q135 570 156 559T215 547Q287 547 345 588T445 700H453Q457 560
477 450T545 219Q618 299 672 390T748 557Q681 599 681 644Q681 673 698 691T743 710Q770 710 784 691T798 636Q798 608 789 569Q788 565 787 560T783 549Q801 534 821 520Q807 526 797 531ZM719 682T719 652Q719 618 753 579Q762 612 762 642Q762 682 740 682Q719
682 719 652Z" />
<glyph unicode="Z" glyph-name="Z" horiz-adv-x="676" d="M583 419T622 389T661 301Q661 208 597 138T427 29Q448 -10 455 -46Q443 -11 415 25Q313 -10 199 -10Q123 -10 64 5T-20 46Q-26 60 -26 78Q-26 135 25 168T148 202Q227 202 297 161T412 55Q507 89 564
150T621 294Q621 340 590 365T503 390Q461 390 424 376T349 331L334 350L582 597Q521 568 468 554T361 539Q299 539 267 556T235 605Q235 650 275 674T373 699Q459 699 513 646Q445 676 367 676Q327 676 301 658T274 612Q274 591 297 580T364 568Q454 568 548 609T715
700H723L426 403Q469 419 514 419Q583 419 622 389ZM305 20T394 49Q343 102 274 137T140 172Q82 172 47 147T12 69Q12 63 14 49Q34 35 85 28T206 20Q305 20 394 49Z" />
<glyph unicode="[" glyph-name="bracketleft" horiz-adv-x="290" d="M210 750H380L373 720H241L29 -130H161L154 -160H-16L210 750Z" />
<glyph unicode="\" glyph-name="backslash" horiz-adv-x="506" d="M152 750H192L394 -160H354L152 750Z" />
<glyph unicode="]" glyph-name="bracketright" horiz-adv-x="290" d="M-60 -160L-53 -130H79L291 720H159L166 750H336L110 -160H-60Z" />
<glyph unicode="^" glyph-name="asciicircum" horiz-adv-x="458" d="M343 720H359L454 378H424L340 676L106 378H76L343 720Z" />
<glyph unicode="_" glyph-name="underscore" horiz-adv-x="381" d="M-78 -40H322L314 -70H-86L-78 -40Z" />
<glyph unicode="`" glyph-name="grave" horiz-adv-x="181" d="M133 648H177L220 510H204L133 648Z" />
<glyph unicode="a" glyph-name="a" horiz-adv-x="497" d="M358 46T358 41Q358 33 367 33Q378 33 397 42T451 74Q418 38 386 16T331 -6Q323 -6 320 -3T316 9Q316 18 319 34L339 115Q305 60 252 25T154 -10Q119 -10 95 10T50 67Q40 104 40 140Q40 227 76 305T178
432T325 480Q414 480 483 400Q399 450 320 450Q250 450 194 404T107 283T75 129Q75 94 80 59Q98 39 114 30T153 20Q203 20 261 67T358 191L404 374Q406 382 412 386T426 391Q434 391 438 387T440 374L359 49Q358 46 358 41Z" />
<glyph unicode="b" glyph-name="b" horiz-adv-x="492" d="M161 -10T130 6T80 51Q65 85 65 118Q65 143 75 185L204 703Q205 706 205 711Q205 719 196 719Q173 719 112 678Q144 713 177 735T232 758Q240 758 243 755T247 743Q247 735 244 718L111 185Q100 143 100
109Q100 76 110 43Q125 31 150 26T197 20Q264 20 314 69T390 196T417 357Q417 383 414 404Q400 425 374 437T317 450Q274 450 244 419T182 303Q197 403 236 441T324 480Q363 480 392 459T445 396Q452 374 452 336Q452 254 420 174T330 42T200 -10Q161 -10 130 6Z"
/>
<glyph unicode="c" glyph-name="c" horiz-adv-x="454" d="M137 -10T104 14T52 77Q42 107 42 149Q42 236 79 312T182 434T331 480Q387 480 417 453T448 383Q448 331 418 294T339 256Q309 256 294 270T278 311Q278 333 284 348T304 364Q317 364 317 351Q317 346
315 338T313 319Q313 303 321 294T346 285Q375 285 393 314T411 375Q411 407 389 428T324 450Q250 450 194 407T107 291T77 135Q77 102 82 69Q118 20 184 20Q235 20 291 50T399 141Q350 63 298 27T188 -10Q137 -10 104 14Z" />
<glyph unicode="d" glyph-name="d" horiz-adv-x="502" d="M364 49Q363 46 363 41Q363 33 372 33Q395 33 456 74Q424 39 391 17T336 -6Q328 -6 325 -3T321 9Q321 18 324 34L344 115Q310 61 255 26T155 -10Q120 -10 96 10T51 67Q41 104 41 140Q41 228 76 306T170
432T296 480Q332 480 356 468T396 429Q348 450 296 450Q234 450 184 402T105 280T76 129Q76 94 81 59Q99 39 116 30T155 20Q187 20 225 41T300 101T363 191L491 703Q492 706 492 711Q492 719 483 719Q461 719 399 678Q431 713 464 735T519 758Q535 758 535 743Q535
733 531 718L364 49Z" />
<glyph unicode="e" glyph-name="e" horiz-adv-x="471" d="M137 -10T104 14T52 77Q42 107 42 149Q42 228 75 305T168 431T299 480Q388 480 436 400Q448 364 448 330Q448 265 400 224T279 183Q189 183 144 243Q166 228 200 220T269 211Q335 211 374 244T414 338Q414
366 406 408Q365 450 300 450Q236 450 185 404T106 285T77 135Q77 102 82 69Q118 20 184 20Q235 20 291 50T399 141Q350 63 298 27T188 -10Q137 -10 104 14Z" />
<glyph unicode="f" glyph-name="f" horiz-adv-x="352" d="M382 598T411 627T440 692Q440 713 426 724T383 736Q337 736 305 708T260 627L221 470H389L381 441H213L78 -99Q145 -112 193 -143Q142 -126 72 -120Q40 -234 -17 -296T-142 -358Q-222 -358 -254 -307Q-263
-289 -263 -266Q-263 -212 -226 -173T-128 -112T-1 -91Q15 -91 43 -93L177 441H61L69 470H185L224 627Q241 694 283 730T390 766Q431 766 453 750T475 701Q475 650 437 619T337 587Q382 598 411 627ZM-89 -329T-40 -275T37 -118H15Q-95 -118 -162 -157T-229 -277Q-229
-301 -223 -311Q-205 -329 -151 -329Q-89 -329 -40 -275Z" />
<glyph unicode="g" glyph-name="g" horiz-adv-x="501" d="M436 391T440 387T442 374L323 -103V-104Q398 -120 438 -146Q398 -133 317 -125Q285 -238 222 -298T71 -358Q-9 -358 -41 -307Q-50 -289 -50 -266Q-50 -214 -11 -175T91 -115T221 -94Q251 -94 288 -99L342
119Q308 68 254 34T156 0Q121 0 97 20T52 77Q42 114 42 150Q42 232 79 308T181 432T327 480Q416 480 485 400Q401 450 322 450Q253 450 197 404T109 286T77 139Q77 104 82 69Q100 49 116 40T155 30Q204 30 262 75T360 191L406 374Q408 382 414 386T428 391Q436
391 440 387ZM144 -329T198 -278T282 -122Q267 -121 239 -121Q160 -121 102 -141T14 -197T-17 -277Q-17 -299 -10 -311Q8 -329 62 -329Q144 -329 198 -278Z" />
<glyph unicode="h" glyph-name="h" horiz-adv-x="475" d="M38 -6T34 -2T32 11L205 703Q206 706 206 711Q206 719 197 719Q175 719 112 678Q145 714 177 736T232 758Q241 758 245 755T249 745Q249 738 244 718L151 344Q183 377 229 408T319 460T385 480Q405 480
422 463T436 432L340 49Q339 46 339 42Q339 33 348 33Q370 33 433 74Q400 38 368 16T313 -6Q304 -6 300 -3T296 7Q296 14 301 34L404 448Q343 441 273 402T141 302L68 11Q66 3 60 -1T46 -6Q38 -6 34 -2Z" />
<glyph unicode="i" glyph-name="i" horiz-adv-x="222" d="M184 595T174 604T164 629Q164 651 182 667T222 683Q238 683 248 674T258 649Q258 627 240 611T200 595Q184 595 174 604ZM42 -6T42 9Q42 19 46 34L143 421Q144 424 144 429Q144 437 135 437Q113 437 50
396Q83 432 115 454T170 476Q179 476 183 473T187 463Q187 456 182 436L86 49Q85 46 85 41Q85 33 94 33Q116 33 178 74Q146 39 113 17T58 -6Q42 -6 42 9Z" />
<glyph unicode="j" glyph-name="j" horiz-adv-x="231" d="M238 683T248 674T258 649Q258 627 240 611T200 595Q184 595 174 604T164 629Q164 651 182 667T222 683Q238 683 248 674ZM179 476T182 473T186 462Q186 452 182 436L49 -99Q113 -112 164 -143Q113 -126
43 -120Q12 -233 -46 -295T-172 -358Q-249 -358 -280 -307Q-289 -289 -289 -264Q-289 -215 -256 -176T-163 -114T-30 -91Q-14 -91 14 -93L143 421Q144 424 144 429Q144 437 135 437Q113 437 50 396Q83 432 115 454T170 476Q179 476 182 473ZM-119 -329T-70 -274T8
-118H-14Q-83 -118 -138 -138T-225 -195T-256 -276Q-256 -299 -249 -311Q-241 -320 -222 -324T-181 -329Q-119 -329 -70 -274Z" />
<glyph unicode="k" glyph-name="k" horiz-adv-x="467" d="M475 480T492 467T509 432Q509 406 489 388T438 365Q453 377 463 393T474 426Q474 450 438 450Q411 450 388 434T323 372L221 261Q246 161 290 57T414 -178Q320 -63 268 36T191 229L96 125L67 11Q65 3
59 -1T45 -6Q37 -6 33 -2T31 11L204 703Q205 706 205 712Q205 719 197 719Q175 719 112 678Q145 714 177 736T232 758Q241 758 245 755T249 745Q249 738 244 718L110 181L298 388Q344 439 377 459T445 480Q475 480 492 467Z" />
<glyph unicode="l" glyph-name="l" horiz-adv-x="216" d="M36 -6T36 9Q36 19 40 34L207 703Q208 706 208 711Q208 719 199 719Q177 719 114 678Q147 714 179 736T234 758Q243 758 247 755T251 745Q251 738 246 718L79 49Q78 47 78 42Q78 33 88 33Q110 33 172 74Q140
39 107 17T52 -6Q36 -6 36 9Z" />
<glyph unicode="m" glyph-name="m" horiz-adv-x="726" d="M44 -6T41 -2T39 11L140 419Q141 421 141 425Q141 429 139 432T132 435Q121 435 102 426T48 394Q81 430 113 452T168 474Q184 474 184 459Q184 449 180 434L158 344Q190 377 234 409T320 460T383 480Q403
480 420 463T434 432L412 344Q444 377 488 409T574 460T637 480Q657 480 674 463T688 432L592 49Q591 46 591 41Q591 33 600 33Q623 33 684 74Q652 39 619 17T564 -6Q548 -6 548 9Q548 19 552 34L656 448Q596 441 530 402T401 302L338 49Q337 46 337 41Q337 33
346 33Q368 33 430 74Q398 39 365 17T310 -6Q294 -6 294 9Q294 19 298 34L402 448Q342 441 276 402T147 302L75 11Q73 3 67 -1T52 -6Q44 -6 41 -2Z" />
<glyph unicode="n" glyph-name="n" horiz-adv-x="482" d="M44 -6T41 -2T39 11L140 419Q141 422 141 427Q141 435 132 435Q121 435 102 426T48 394Q81 430 113 452T168 474Q184 474 184 459Q184 449 180 434L158 344Q190 377 236 408T327 460T393 480Q413 480 430
463T444 432L348 49Q347 46 347 42Q347 33 356 33Q379 33 440 74Q408 39 375 17T320 -6Q304 -6 304 9Q304 19 308 34L412 448Q350 441 280 401T147 302L75 11Q73 3 67 -1T52 -6Q44 -6 41 -2Z" />
<glyph unicode="o" glyph-name="o" horiz-adv-x="506" d="M152 -10T114 14T53 77Q43 108 43 151Q43 253 93 334T237 459Q161 401 120 318T78 140Q78 106 83 69Q102 46 135 33T202 20Q280 20 332 75T409 219T431 406Q407 429 390 438T348 448Q300 448 273 410T245
320Q245 254 309 219Q260 225 236 250T211 317Q211 358 228 395T275 455T346 478Q386 478 410 457T460 395Q465 365 465 334Q465 247 434 168T343 40T205 -10Q152 -10 114 14Z" />
<glyph unicode="p" glyph-name="p" horiz-adv-x="504" d="M466 360T466 342Q466 247 426 167T313 38T150 -10Q111 -10 73 -2L-11 -337Q-13 -345 -19 -349T-33 -354Q-41 -354 -45 -350T-47 -337L39 8Q-15 25 -35 55Q6 41 45 33L142 421Q143 424 143 429Q143 437
134 437Q123 437 104 428T50 396Q82 431 115 453T167 476Q178 476 182 473T186 461Q186 451 182 436L162 354Q196 409 251 444T351 480Q414 480 462 396Q466 360 466 342ZM235 20T299 67T398 194T433 366Q433 378 431 404Q418 424 394 437T346 450Q317 450 279
429T205 368T143 279L80 26Q116 20 150 20Q235 20 299 67Z" />
<glyph unicode="q" glyph-name="q" horiz-adv-x="500" d="M373 19T406 42T481 80Q438 50 401 14T328 -73L262 -337Q260 -345 254 -349T240 -354Q232 -354 228 -350T226 -337L339 115Q305 60 252 25T154 -10Q119 -10 95 10T50 67Q40 104 40 140Q40 227 76 305T178
432T325 480Q414 480 483 400Q399 450 320 450Q250 450 194 404T107 283T75 129Q75 94 80 59Q98 39 114 30T153 20Q203 20 261 67T358 191L404 374Q406 382 412 386T426 391Q434 391 438 387T440 374L342 -18Q373 19 406 42Z" />
<glyph unicode="r" glyph-name="r" horiz-adv-x="367" d="M44 -6T41 -2T39 11L140 419Q141 422 141 427Q141 435 132 435Q121 435 102 426T48 394Q81 430 113 452T168 474Q184 474 184 459Q184 449 180 434L161 356Q250 480 339 480Q369 480 385 468T402 432Q402
408 389 388T356 368Q339 368 335 384Q347 385 355 394T363 420Q363 448 327 448Q287 448 240 408T144 288L75 11Q73 3 67 -1T52 -6Q44 -6 41 -2Z" />
<glyph unicode="s" glyph-name="s" horiz-adv-x="439" d="M160 210T125 239T90 317Q90 364 115 401T181 459T269 480Q321 480 356 456T407 388Q359 450 276 450Q208 450 167 414T126 318Q126 273 163 248T274 218Q245 210 218 210Q160 210 125 239ZM93 -10T53
12T12 75Q12 112 41 140T110 168Q138 168 154 154T170 117Q170 102 163 85Q151 139 107 139Q81 139 65 122T49 81Q49 52 81 36T165 20Q243 20 288 60T334 169Q334 260 187 269Q217 277 243 277Q300 277 335 249T370 169Q370 115 343 75T268 12T159 -10Q93 -10 53
12Z" />
<glyph unicode="t" glyph-name="t" horiz-adv-x="282" d="M91 55Q90 53 90 50Q90 40 104 40Q123 40 153 49T223 78Q183 43 142 22T71 0Q59 0 54 3T48 16Q48 27 52 40L152 441H76L83 470H159L182 563Q187 580 204 580Q212 580 216 575T218 563L195 470H309L302
441H188L91 55Z" />
<glyph unicode="u" glyph-name="u" horiz-adv-x="478" d="M77 -10T60 7T46 38L140 421Q141 424 141 429Q141 437 132 437Q110 437 48 396Q80 431 113 453T168 476Q184 476 184 461Q184 451 180 436L78 22Q144 29 209 63T335 156L411 459Q413 467 419 471T434 476Q442
476 445 472T447 459L344 49Q343 46 343 41Q343 33 352 33Q363 33 382 42T436 74Q403 38 371 16T316 -6Q300 -6 300 9Q300 19 304 34L324 114Q292 81 249 53T164 7T97 -10Q77 -10 60 7Z" />
<glyph unicode="v" glyph-name="v" horiz-adv-x="480" d="M108 94T82 170T56 308Q56 379 87 427T177 476Q220 476 247 454T274 393Q274 380 269 362Q248 447 177 447Q132 447 112 408T92 308Q92 202 175 32Q285 126 341 185T419 291T442 391Q442 447 385 447Q354
447 332 430Q341 453 360 464T405 476Q441 476 460 455T479 396Q479 336 453 284T360 165T164 -6Q108 94 82 170Z" />
<glyph unicode="w" glyph-name="w" horiz-adv-x="686" d="M546 470T559 470Q606 470 638 433T671 345Q671 295 649 251T570 147T404 -6Q344 88 318 144Q258 83 148 -6Q92 57 69 113T45 222Q45 309 93 379T224 475Q152 421 117 361T81 222Q81 173 99 127T157 30Q252
112 306 170Q274 245 274 308Q274 350 288 388T328 451T386 476Q415 476 429 455T443 398Q443 336 421 284T344 171Q371 107 414 36Q505 117 552 168T618 259T637 347Q637 393 610 424T534 467Q546 470 559 470ZM310 266T333 200Q375 251 392 296T409 396Q409 447
380 447Q350 447 330 405T310 316Q310 266 333 200Z" />
<glyph unicode="x" glyph-name="x" horiz-adv-x="580" d="M616 410T597 372Q599 384 599 390Q599 414 589 430T560 447Q544 447 525 430T474 371T372 231L369 227Q394 123 410 78T443 20T491 8Q477 2 459 -2T430 -6Q411 -6 399 8T375 62T342 190Q256 77 194 35T64
-8Q20 -8 -6 14T-32 74Q-32 121 0 149T88 177Q116 177 141 163T182 125Q161 137 139 142T84 148Q47 148 25 128T2 74Q2 50 20 36T70 21Q109 21 145 39T225 104T332 233Q310 330 297 375T273 434T249 448Q222 448 195 436Q215 456 236 466T277 476Q293 476 302 463T324
410T359 270Q425 359 459 400T517 459T567 476Q588 476 602 466T616 436Q616 410 597 372Z" />
<glyph unicode="y" glyph-name="y" horiz-adv-x="491" d="M305 -103V-104Q380 -120 420 -146Q380 -133 299 -125Q267 -238 204 -298T53 -358Q-27 -358 -59 -307Q-68 -289 -68 -266Q-68 -214 -29 -175T73 -115T203 -94Q233 -94 270 -99L325 120Q294 87 250 60T165
16T98 0Q78 0 61 17T47 48L140 421Q141 424 141 429Q141 437 132 437Q110 437 48 396Q81 432 113 454T167 476Q176 476 180 473T184 463Q184 456 179 436L79 32Q145 40 210 72T335 162L410 459Q415 476 432 476Q440 476 444 471T446 459L305 -103ZM126 -329T180
-278T264 -122Q249 -121 221 -121Q142 -121 84 -141T-4 -197T-35 -277Q-35 -299 -28 -311Q-10 -329 44 -329Q126 -329 180 -278Z" />
<glyph unicode="z" glyph-name="z" horiz-adv-x="441" d="M317 147T350 127T384 69Q384 36 369 15T326 -6Q303 -6 287 14Q297 12 301 12Q321 12 334 26T348 63Q348 89 321 103T244 118Q172 118 104 86T-24 -6H-56L208 259H119L126 289H238L361 412Q294 377 223
377Q166 377 139 405T106 494Q130 443 160 425T239 406Q291 406 340 424T429 476H461L274 289H364L357 259H245L77 91Q126 120 167 133T257 147Q317 147 350 127Z" />
<glyph unicode="{" glyph-name="braceleft" horiz-adv-x="338" d="M131 252T112 268T48 291L50 299Q112 307 142 335T190 432Q196 457 202 501Q208 549 215 575Q233 647 274 687T373 727Q391 727 419 720Q357 720 310 681T247 576Q239 543 234 499Q225 443 221
428Q193 317 127 295Q163 277 163 221Q163 190 155 160T131 88Q116 47 109 22T101 -31Q101 -78 128 -104T207 -130Q176 -137 157 -137Q113 -137 90 -113T67 -43Q67 -13 75 17T100 92Q115 133 123 161T131 217Q131 252 112 268Z" />
<glyph unicode="|" glyph-name="bar" horiz-adv-x="206" d="M212 750H250L24 -160H-14L212 750Z" />
<glyph unicode="}" glyph-name="braceright" horiz-adv-x="338" d="M11 -130T58 -91T121 14Q129 47 134 91Q142 141 147 162Q160 213 184 247T241 295Q204 310 204 365Q204 392 213 428Q219 451 238 503Q253 543 260 569T267 621Q267 668 240 694T161 720Q193
727 211 727Q255 727 278 703T301 634Q301 604 294 577T271 508Q254 462 246 432Q237 398 237 374Q237 339 257 322T320 299L318 291Q276 285 250 272T207 232T178 158Q172 133 166 89Q160 41 153 15Q135 -57 94 -97T-5 -137Q-23 -137 -51 -130Q11 -130 58 -91Z"
/>
<glyph unicode="~" glyph-name="asciitilde" horiz-adv-x="483" d="M319 244T299 250T247 271Q219 284 198 291T152 298Q116 298 92 287T44 250Q79 328 167 328Q189 328 208 322T257 302Q288 288 310 281T357 274Q393 274 417 285T465 322Q430 244 342 244Q319
244 299 250Z" />
<glyph unicode="&#xa0;" glyph-name="uni00A0" horiz-adv-x="258" />
<glyph unicode="&#xa1;" glyph-name="exclamdown" horiz-adv-x="198" d="M177 504T186 495T196 472Q196 453 183 440T150 426Q135 426 126 435T117 459Q117 478 130 491T162 504Q177 504 186 495ZM18 -166Q13 -189 -2 -204T-37 -224L99 287Q110 325 140 357L18 -166Z" />
<glyph unicode="&#xa2;" glyph-name="cent" horiz-adv-x="455" d="M345 476T345 463Q345 458 343 450T341 431Q341 415 349 406T374 397Q403 397 421 426T439 487Q439 519 417 540T352 562Q326 562 300 556L195 133Q201 132 212 132Q263 132 319 162T427 253Q378
175 326 139T216 102Q206 102 188 104L163 3H129L156 113Q104 135 80 189Q70 219 70 261Q70 332 95 396T166 508T272 577L299 687H333L308 587Q336 592 359 592Q415 592 445 565T476 495Q476 443 446 406T367 368Q337 368 322 382T306 423Q306 445 312 460T332
476Q345 476 345 463ZM263 543Q190 510 148 429T105 247Q105 214 110 181Q129 154 163 140L263 543Z" />
<glyph unicode="&#xa3;" glyph-name="sterling" horiz-adv-x="695" d="M602 498T626 529T650 599Q650 636 627 657T560 679Q489 679 435 618T353 441L333 361H544L536 331H325L317 298Q289 186 236 108L273 89Q329 60 367 46T444 31Q498 31 546 46T648 95Q600
45 551 23T437 0Q394 0 349 17T240 66Q236 69 215 79Q180 36 140 13T59 -10Q16 -10 -7 6T-31 51Q-31 95 7 121T99 148Q148 148 207 121Q252 193 279 298L287 331H149L157 361H295L315 441Q348 572 410 641T565 710Q624 710 656 683T688 609Q688 559 654 522T560
477Q602 498 626 529ZM97 19T127 38T186 92Q129 119 91 119Q55 119 31 102T7 57Q7 39 22 29T66 19Q97 19 127 38Z" />
<glyph unicode="&#xa4;" glyph-name="currency" horiz-adv-x="635" d="M70 159L148 219Q127 255 127 307Q127 357 152 408T216 495L168 555L201 582L248 519Q278 542 320 557T402 572Q441 572 475 558T528 519L607 582L626 555L548 495Q569 459 569 407Q569 357
544 306T480 219L528 159L495 132L448 195Q418 172 376 157T294 142Q255 142 221 156T168 195L89 132L70 159ZM363 172T416 206T500 295T531 409Q531 469 494 505T394 542Q333 542 280 508T196 419T165 305Q165 245 202 209T302 172Q363 172 416 206Z" />
<glyph unicode="&#xa5;" glyph-name="yen" horiz-adv-x="764" d="M689 351Q671 322 646 287H817L809 257H623Q532 139 418 65T180 -10Q131 -10 91 4T38 42Q36 54 36 62Q36 125 85 160T209 196Q271 196 312 177T379 117Q305 167 201 167Q142 167 108 134T73 45Q84
34 112 27T180 20Q266 20 352 65T516 189L507 214Q505 220 500 233T492 257H264L272 287H482Q477 302 463 351H287L295 381H455Q424 510 421 623Q374 570 322 544T208 517Q156 517 127 535T97 584Q97 627 135 653T226 680Q298 680 310 629Q285 640 265 645T223
651Q186 651 161 634T135 590Q135 570 156 559T215 547Q287 547 345 588T445 700H453Q457 560 477 450T545 219Q618 299 672 390T748 557Q681 599 681 644Q681 673 698 691T743 710Q770 710 784 691T798 636Q798 608 789 569Q788 565 787 560T783 549Q801 534 821
520Q807 526 797 531T780 539Q756 466 707 381H840L832 351H689ZM719 682T719 652Q719 618 753 579Q762 612 762 642Q762 682 740 682Q719 682 719 652Z" />
<glyph unicode="&#xa6;" glyph-name="brokenbar" horiz-adv-x="206" d="M212 750H250L152 355H114L212 750ZM84 235H122L24 -160H-14L84 235Z" />
<glyph unicode="&#xa7;" glyph-name="section" horiz-adv-x="378" d="M334 233T334 270Q334 298 314 318T243 361Q123 416 123 492Q123 526 145 553T207 597T299 613Q361 613 396 590T432 525Q432 515 431 509Q423 543 389 563T302 583Q241 583 203 559T165 497Q165
469 188 447T264 400Q326 371 351 346T377 287Q377 254 353 227T294 195Q334 233 334 270ZM49 -46T12 -23T-25 42Q-25 52 -24 58Q-16 23 18 4T104 -16Q149 -16 184 -2T238 37T258 88Q258 119 236 142T158 190Q102 215 74 245T45 307Q45 338 68 362T128 392Q109
374 99 357T88 321Q88 296 110 274T179 228Q245 194 272 163T299 90Q299 54 279 23T218 -27T115 -46Q49 -46 12 -23Z" />
<glyph unicode="&#xa8;" glyph-name="dieresis" horiz-adv-x="281" d="M127 510T118 519T108 543Q108 563 121 575T154 588Q170 588 179 579T188 556Q188 536 175 523T142 510Q127 510 118 519ZM268 510T259 519T249 543Q249 563 262 575T295 588Q311 588 320
579T329 556Q329 536 316 523T283 510Q268 510 259 519Z" />
<glyph unicode="&#xa9;" glyph-name="copyright" horiz-adv-x="844" d="M271 -12T205 22T103 117T67 260Q67 383 133 492T310 666T546 732Q635 732 701 698T803 603T839 460Q839 337 773 228T596 54T360 -12Q271 -12 205 22ZM482 18T581 79T740 241T800 453Q800
527 768 583T677 671T538 702Q424 702 325 641T166 479T106 267Q106 193 138 137T229 49T368 18Q482 18 581 79ZM365 140T332 162T282 218Q273 247 273 282Q273 367 307 434T402 540T539 579Q589 579 619 556T649 492Q649 439 621 408T546 376Q519 376 504 390T489
428Q489 447 495 461T515 475Q527 475 527 463Q527 459 525 452T523 435Q523 421 530 413T552 404Q579 404 595 426T611 485Q611 515 590 533T533 551Q469 551 419 515T340 415T311 270Q311 241 316 211Q347 168 407 168Q453 168 503 194T600 275Q556 205 510 173T411
140Q365 140 332 162Z" />
<glyph unicode="&#xaa;" glyph-name="ordfeminine" horiz-adv-x="371" d="M348 404Q348 397 355 397Q369 397 413 426Q390 401 367 386T329 370Q313 370 313 386Q313 390 315 398L325 437Q282 367 226 367Q198 367 175 383T136 430Q125 460 125 497Q125 552 146
600T210 679T313 710Q354 710 383 696T436 654Q381 684 330 684Q273 684 234 656T176 580T157 475Q157 451 160 424Q188 393 221 393Q284 393 343 512L371 625Q373 635 378 640T391 646Q399 646 402 641T403 625L349 408L348 404Z" />
<glyph unicode="&#xab;" glyph-name="guillemotleft" horiz-adv-x="371" d="M70 298L232 430H272L114 298L206 166H166L70 298ZM174 298L336 430H376L218 298L310 166H270L174 298Z" />
<glyph unicode="&#xac;" glyph-name="logicalnot" horiz-adv-x="520" d="M467 182H437L479 352H69L77 382H517L467 182Z" />
<glyph unicode="&#xad;" glyph-name="uni00AD" horiz-adv-x="341" d="M70 313H310L302 283H62L70 313Z" />
<glyph unicode="&#xae;" glyph-name="registered" horiz-adv-x="469" d="M425 724T464 687T503 586Q503 528 470 475T382 389T264 356Q197 356 158 393T119 494Q119 552 152 605T240 691T358 724Q425 724 464 687ZM418 445T443 489T469 581Q469 633 437 664T350
696Q298 696 253 668T180 593T153 499Q153 447 185 416T272 384Q327 384 375 416L289 492L282 464Q279 455 279 449T279 439H242Q248 447 253 466L277 565Q282 583 292 599L290 601Q279 590 269 585T246 580Q229 580 220 587T211 607Q211 619 218 626T238 634Q253
634 253 617Q248 622 241 622Q237 622 234 619T231 611Q231 598 253 598Q289 598 315 629H323L318 610Q340 632 360 632Q373 632 385 623T403 603Q405 595 405 590Q405 566 380 545T312 513L376 417Q418 445 443 489ZM298 529Q334 538 355 558T377 605Q372 612
363 612Q339 612 309 573L298 529Z" />
<glyph unicode="&#xaf;" glyph-name="overscore" horiz-adv-x="366" d="M106 540H410L405 510H101L106 540Z" />
<glyph unicode="&#xb0;" glyph-name="degree" horiz-adv-x="411" d="M207 444T177 472T147 547Q147 592 172 633T239 699T328 724Q379 724 409 696T439 621Q439 576 414 535T347 469T258 444Q207 444 177 472ZM302 474T333 494T382 548T400 615Q400 651 379 672T320
694Q284 694 253 674T204 620T186 553Q186 517 207 496T266 474Q302 474 333 494Z" />
<glyph unicode="&#xb1;" glyph-name="plusminus" horiz-adv-x="521" d="M507 342L500 312H295L247 118H217L265 312H60L67 342H273L321 536H351L303 342H507ZM-10 30H430L422 0H-18L-10 30Z" />
<glyph unicode="&#xb2;" glyph-name="uni00B2" horiz-adv-x="356" d="M75 336T96 333T136 325Q174 316 191 316Q228 316 264 350Q230 290 181 290Q169 290 131 298Q83 310 44 310Q27 310 18 306T-6 290L-19 297Q5 336 41 372T142 459Q207 509 232 537T266 603Q273
633 272 657Q249 684 203 684Q160 684 139 660T117 593Q117 576 121 563T133 533Q106 548 96 565T85 602Q85 650 120 680T205 710Q265 710 295 666Q304 648 304 625Q304 578 270 536T172 445Q74 371 43 335L59 336Q75 336 96 333Z" />
<glyph unicode="&#xb3;" glyph-name="uni00B3" horiz-adv-x="321" d="M298 613T278 586T210 526Q223 523 235 514T254 492Q258 481 258 464Q258 411 229 366Q244 350 251 336Q245 342 224 359Q200 327 165 309T86 290Q21 290 -4 332Q-6 340 -6 350Q-6 383 22 402T98
421Q158 421 202 389Q215 413 221 434Q229 459 230 485Q219 501 193 501Q173 501 152 488L145 511Q204 550 230 574T266 629Q272 648 270 667Q267 672 256 678T230 684Q206 684 178 662T124 589Q126 624 142 651T182 694T230 710Q247 710 261 701T292 670Q298 660
298 642Q298 613 278 586ZM154 316T194 376Q150 395 102 395Q71 395 51 386T28 362Q25 349 25 334Q39 316 80 316Q154 316 194 376Z" />
<glyph unicode="&#xb4;" glyph-name="acute" horiz-adv-x="113" d="M142 648H186L115 510H99L142 648Z" />
<glyph unicode="&#xb5;" glyph-name="uni00B5" horiz-adv-x="522" d="M-43 -354T-47 -350T-49 -337L141 425Q142 428 142 433Q142 441 133 441Q111 441 49 400Q81 435 114 457T169 480Q185 480 185 465Q185 455 181 440L77 26Q144 34 209 66T334 156L410 463Q412
471 418 475T433 480Q441 480 444 476T446 463L345 55Q344 52 344 47Q344 39 353 39Q364 39 383 48T437 80Q404 44 372 22T317 0Q301 0 301 15Q301 25 305 40L323 114Q292 81 248 54T163 10T96 -6Q84 -6 71 2L-14 -337Q-16 -345 -21 -349T-35 -354Q-43 -354 -47
-350Z" />
<glyph unicode="&#xb6;" glyph-name="paragraph" horiz-adv-x="613" d="M403 315H302Q218 315 167 355T116 463Q116 532 154 586T257 670T398 700H537L327 -144H289L403 315ZM613 700H651L441 -144H403L613 700Z" />
<glyph unicode="&#xb7;" glyph-name="middot" horiz-adv-x="198" d="M88 235T79 244T69 267Q69 286 82 299T115 313Q130 313 139 304T148 280Q148 261 135 248T103 235Q88 235 79 244Z" />
<glyph unicode="&#xb8;" glyph-name="cedilla" horiz-adv-x="214" d="M-2 -175T-24 -164T-61 -131Q-26 -147 9 -147Q30 -147 44 -138T58 -112Q58 -86 11 -86Q-8 -86 -28 -92L-32 -84L52 16L73 7L22 -56Q57 -56 77 -69T97 -106Q97 -137 76 -156T22 -175Q-2 -175 -24 -164Z" />
<glyph unicode="&#xb9;" glyph-name="uni00B9" horiz-adv-x="255" d="M86 307T90 318T100 353L158 586Q167 625 178 652L175 653Q158 635 130 620T72 598Q105 614 137 643T193 706L218 699L132 353Q124 319 124 311Q124 306 126 300H80Q86 307 90 318Z" />
<glyph unicode="&#xba;" glyph-name="ordmasculine" horiz-adv-x="388" d="M171 367T134 428Q123 456 123 490Q123 559 158 612T259 697Q155 617 155 477Q155 449 159 425Q191 393 238 393Q316 393 354 472T390 661Q369 684 337 684Q308 684 290 664T272 606Q272
581 280 560T310 528Q276 532 259 556T241 616Q241 660 266 685T330 710Q361 710 379 695T414 653Q419 634 419 609Q419 548 397 493T334 402T239 367Q171 367 134 428Z" />
<glyph unicode="&#xbb;" glyph-name="guillemotright" horiz-adv-x="371" d="M27 166L185 298L93 430H133L229 298L67 166H27ZM131 166L289 298L197 430H237L333 298L171 166H131Z" />
<glyph unicode="&#xbc;" glyph-name="onequarter" horiz-adv-x="731" d="M86 307T90 318T100 353L158 586Q167 625 178 652L175 653Q158 635 130 620T72 598Q105 614 137 643T193 706L218 699L132 353Q124 319 124 311Q124 306 126 300H80Q86 307 90 318ZM482
644Q505 695 545 710L241 43Q219 -5 184 -11L482 644ZM666 127T687 139Q656 99 627 99Q619 99 615 100L598 53Q590 32 588 20T587 0H541Q548 7 552 17T566 53L585 105L530 120Q493 73 454 73Q431 73 418 82T404 107Q404 130 423 143T477 156Q492 156 520 152Q540
184 565 243T628 400H660Q624 305 598 244T547 145Q556 143 567 140T594 133L643 269H675L625 128Q629 127 639 127Q666 127 687 139ZM481 99T503 127Q486 130 470 130Q454 130 445 125T436 112Q436 106 442 103T459 99Q481 99 503 127Z" />
<glyph unicode="&#xbd;" glyph-name="onehalf" horiz-adv-x="773" d="M86 307T90 318T100 353L158 586Q167 625 178 652L175 653Q158 635 130 620T72 598Q105 614 137 643T193 706L218 699L132 353Q124 319 124 311Q124 306 126 300H80Q86 307 90 318ZM482 644Q505
695 545 710L241 43Q219 -5 184 -11L482 644ZM492 36T513 33T553 25Q591 16 608 16Q645 16 681 50Q647 -10 598 -10Q586 -10 548 -2Q500 10 461 10Q444 10 435 6T411 -10L398 -3Q422 36 458 72T559 159Q624 209 649 237T683 303Q690 333 689 357Q666 384 620 384Q577
384 556 360T534 293Q534 276 538 263T550 233Q523 248 513 265T502 302Q502 350 537 380T622 410Q682 410 712 366Q721 348 721 325Q721 278 687 236T589 145Q491 71 460 35L476 36Q492 36 513 33Z" />
<glyph unicode="&#xbe;" glyph-name="threequarters" horiz-adv-x="797" d="M298 613T278 586T210 526Q223 523 235 514T254 492Q258 481 258 464Q258 411 229 366Q244 350 251 336Q245 342 224 359Q200 327 165 309T86 290Q21 290 -4 332Q-6 340 -6 350Q-6 383
22 402T98 421Q158 421 202 389Q215 413 221 434Q229 459 230 485Q219 501 193 501Q173 501 152 488L145 511Q204 550 230 574T266 629Q272 648 270 667Q267 672 256 678T230 684Q206 684 178 662T124 589Q126 624 142 651T182 694T230 710Q247 710 261 701T292
670Q298 660 298 642Q298 613 278 586ZM154 316T194 376Q150 395 102 395Q71 395 51 386T28 362Q25 349 25 334Q39 316 80 316Q154 316 194 376ZM548 644Q571 695 611 710L307 43Q285 -5 250 -11L548 644ZM732 127T753 139Q722 99 693 99Q685 99 681 100L664 53Q656
32 654 20T653 0H607Q614 7 618 17T632 53L651 105L596 120Q559 73 520 73Q497 73 484 82T470 107Q470 130 489 143T543 156Q558 156 586 152Q606 184 631 243T694 400H726Q690 305 664 244T613 145Q622 143 633 140T660 133L709 269H741L691 128Q695 127 705 127Q732
127 753 139ZM547 99T569 127Q552 130 536 130Q520 130 511 125T502 112Q502 106 508 103T525 99Q547 99 569 127Z" />
<glyph unicode="&#xbf;" glyph-name="questiondown" horiz-adv-x="431" d="M314 480T323 471T333 448Q333 429 320 416T287 402Q272 402 263 411T254 435Q254 454 267 467T299 480Q314 480 323 471ZM264 295T264 285Q264 217 224 157T107 33Q42 -22 19 -54T-4
-123Q-4 -162 26 -184T110 -206Q157 -206 195 -188T257 -137T280 -65Q280 -37 265 -21T220 -4Q180 -4 154 -34T128 -107Q128 -117 131 -124Q118 -114 111 -100T103 -71Q103 -28 140 -1T226 26Q271 26 295 4T320 -58Q320 -110 290 -151T210 -215T102 -238Q33 -238
-5 -210T-43 -131Q-43 -80 -11 -38T87 61Q167 128 205 183T262 313Q264 295 264 285Z" />
<glyph unicode="&#xc0;" glyph-name="Agrave" horiz-adv-x="702" d="M574 710T627 692T714 637T747 550Q747 490 713 448T618 397Q659 417 683 454T708 537Q708 601 653 640T509 679Q382 679 290 602T150 398T105 123Q130 74 167 47T242 20Q298 20 367 77T503
233L544 398Q553 433 559 454T576 502L572 504Q484 368 358 368Q311 368 285 386T258 435Q258 471 281 493T342 516Q367 516 380 504T392 469Q374 487 348 487Q325 487 311 474T297 442Q297 423 316 411T370 399Q434 399 491 447T628 613H636L506 92Q493 38 493
14Q493 6 495 0H433Q444 14 451 32T468 92L483 152H480Q351 -10 234 -10Q175 -10 135 27T78 127Q73 159 73 190Q73 324 129 444T286 637T513 710Q574 710 627 692ZM414 878H458L501 740H485L414 878Z" />
<glyph unicode="&#xc1;" glyph-name="Aacute" horiz-adv-x="702" d="M574 710T627 692T714 637T747 550Q747 490 713 448T618 397Q659 417 683 454T708 537Q708 601 653 640T509 679Q382 679 290 602T150 398T105 123Q130 74 167 47T242 20Q298 20 367 77T503
233L544 398Q553 433 559 454T576 502L572 504Q484 368 358 368Q311 368 285 386T258 435Q258 471 281 493T342 516Q367 516 380 504T392 469Q374 487 348 487Q325 487 311 474T297 442Q297 423 316 411T370 399Q434 399 491 447T628 613H636L506 92Q493 38 493
14Q493 6 495 0H433Q444 14 451 32T468 92L483 152H480Q351 -10 234 -10Q175 -10 135 27T78 127Q73 159 73 190Q73 324 129 444T286 637T513 710Q574 710 627 692ZM476 878H520L449 740H433L476 878Z" />
<glyph unicode="&#xc2;" glyph-name="Acircumflex" horiz-adv-x="702" d="M574 710T627 692T714 637T747 550Q747 490 713 448T618 397Q659 417 683 454T708 537Q708 601 653 640T509 679Q382 679 290 602T150 398T105 123Q130 74 167 47T242 20Q298 20 367 77T503
233L544 398Q553 433 559 454T576 502L572 504Q484 368 358 368Q311 368 285 386T258 435Q258 471 281 493T342 516Q367 516 380 504T392 469Q374 487 348 487Q325 487 311 474T297 442Q297 423 316 411T370 399Q434 399 491 447T628 613H636L506 92Q493 38 493
14Q493 6 495 0H433Q444 14 451 32T468 92L483 152H480Q351 -10 234 -10Q175 -10 135 27T78 127Q73 159 73 190Q73 324 129 444T286 637T513 710Q574 710 627 692ZM473 878H521L605 740L493 838L345 740L473 878Z" />
<glyph unicode="&#xc3;" glyph-name="Atilde" horiz-adv-x="702" d="M574 710T627 692T714 637T747 550Q747 490 713 448T618 397Q659 417 683 454T708 537Q708 601 653 640T509 679Q382 679 290 602T150 398T105 123Q130 74 167 47T242 20Q298 20 367 77T503
233L544 398Q553 433 559 454T576 502L572 504Q484 368 358 368Q311 368 285 386T258 435Q258 471 281 493T342 516Q367 516 380 504T392 469Q374 487 348 487Q325 487 311 474T297 442Q297 423 316 411T370 399Q434 399 491 447T628 613H636L506 92Q493 38 493
14Q493 6 495 0H433Q444 14 451 32T468 92L483 152H480Q351 -10 234 -10Q175 -10 135 27T78 127Q73 159 73 190Q73 324 129 444T286 637T513 710Q574 710 627 692ZM345 789T369 817T427 846Q448 846 463 836T497 807Q514 790 525 782T552 774Q590 774 633 846Q622
795 598 768T540 740Q518 740 503 750T467 780Q449 797 438 804T412 812Q393 812 375 796T334 740Q345 789 369 817Z" />
<glyph unicode="&#xc4;" glyph-name="Adieresis" horiz-adv-x="702" d="M574 710T627 692T714 637T747 550Q747 490 713 448T618 397Q659 417 683 454T708 537Q708 601 653 640T509 679Q382 679 290 602T150 398T105 123Q130 74 167 47T242 20Q298 20 367 77T503
233L544 398Q553 433 559 454T576 502L572 504Q484 368 358 368Q311 368 285 386T258 435Q258 471 281 493T342 516Q367 516 380 504T392 469Q374 487 348 487Q325 487 311 474T297 442Q297 423 316 411T370 399Q434 399 491 447T628 613H636L506 92Q493 38 493
14Q493 6 495 0H433Q444 14 451 32T468 92L483 152H480Q351 -10 234 -10Q175 -10 135 27T78 127Q73 159 73 190Q73 324 129 444T286 637T513 710Q574 710 627 692ZM389 740T380 749T370 773Q370 793 383 805T416 818Q432 818 441 809T450 786Q450 766 437 753T404
740Q389 740 380 749ZM530 740T521 749T511 773Q511 793 524 805T557 818Q573 818 582 809T591 786Q591 766 578 753T545 740Q530 740 521 749Z" />
<glyph unicode="&#xc5;" glyph-name="Aring" horiz-adv-x="702" d="M574 710T627 692T714 637T747 550Q747 490 713 448T618 397Q659 417 683 454T708 537Q708 601 653 640T509 679Q382 679 290 602T150 398T105 123Q130 74 167 47T242 20Q298 20 367 77T503 233L544
398Q553 433 559 454T576 502L572 504Q484 368 358 368Q311 368 285 386T258 435Q258 471 281 493T342 516Q367 516 380 504T392 469Q374 487 348 487Q325 487 311 474T297 442Q297 423 316 411T370 399Q434 399 491 447T628 613H636L506 92Q493 38 493 14Q493
6 495 0H433Q444 14 451 32T468 92L483 152H480Q351 -10 234 -10Q175 -10 135 27T78 127Q73 159 73 190Q73 324 129 444T286 637T513 710Q574 710 627 692ZM441 740T420 759T398 811Q398 850 427 877T498 904Q532 904 553 886T574 834Q574 795 546 768T475 740Q441
740 420 759ZM504 768T521 786T538 831Q538 852 526 864T495 876Q470 876 452 858T434 813Q434 792 446 780T479 768Q504 768 521 786Z" />
<glyph unicode="&#xc6;" glyph-name="AE" horiz-adv-x="1090" d="M1028 650T974 663Q942 671 917 675T862 679Q786 679 722 627Q747 593 747 550Q747 531 742 509Q808 548 846 613H854L786 342H790Q831 402 866 427T950 453Q987 453 1003 440T1019 398Q1019 386
1018 379Q1005 400 991 411T948 422Q902 422 861 385T764 252L759 233Q746 185 746 163Q746 155 748 141H686Q697 155 704 173T721 233L762 398Q778 463 796 512L793 514Q762 491 730 475Q715 443 686 423T618 397Q657 416 683 453Q641 437 595 431Q580 387 573
359L541 233Q544 182 569 134T646 53T777 20Q836 20 895 42T1027 116Q911 -10 770 -10Q666 -10 610 34T524 152H521L506 92Q493 37 493 20Q493 7 495 0H433Q444 14 451 32T468 92L483 152H480Q351 -10 234 -10Q175 -10 135 27T78 127Q73 159 73 190Q73 324 129
444T286 637T513 710Q570 710 621 694T704 647Q773 710 871 710Q904 710 931 706T991 694Q1047 681 1081 681Q1106 681 1132 686T1195 706Q1164 678 1132 664T1061 650Q1028 650 974 663ZM550 424T552 428H543Q518 428 506 429Q468 398 425 383T341 368Q294 368
268 386T241 435Q241 471 264 493T325 516Q350 516 363 504T375 469Q357 487 331 487Q308 487 294 474T280 442Q280 423 299 411T353 399Q411 399 467 435Q403 451 403 493Q403 525 427 545T487 566Q512 566 524 554T535 519Q517 537 492 537Q471 537 457 526T442
497Q442 469 501 461Q561 512 628 613H636L609 504Q637 570 677 618Q652 647 608 663T509 679Q382 679 290 602T150 398T105 123Q130 74 167 47T242 20Q298 20 367 77T503 233L544 398Q550 424 552 428ZM658 469T700 488Q708 512 708 537Q708 569 692 598Q641 544
607 463Q658 469 700 488ZM568 480T576 502L572 504Q554 477 538 459H551H561Q568 480 576 502Z" />
<glyph unicode="&#xc7;" glyph-name="Ccedilla" horiz-adv-x="726" d="M416 679T351 620T244 462Q318 471 380 510T482 613H490L395 233Q383 185 383 154Q383 144 384 141H322Q333 155 340 173T357 233L398 398Q414 463 432 512L429 514Q328 443 231 431Q204 359
190 279T178 122Q211 76 274 49T413 21Q473 21 532 43T663 116Q547 -10 406 -10H404L367 -56Q402 -56 422 -69T442 -106Q442 -137 421 -156T367 -175Q343 -175 321 -164T284 -131Q319 -147 354 -147Q375 -147 389 -138T403 -112Q403 -86 356 -86Q337 -86 317 -92L313
-84L376 -9Q283 -4 231 32T152 130Q147 155 147 196Q147 314 190 428H189Q131 428 99 445T66 493Q66 524 91 545T150 566Q175 566 187 554T198 519Q180 537 155 537Q134 537 120 526T105 497Q105 478 129 469T197 459H202Q250 571 329 640T507 710Q540 710 567
706T627 694Q683 681 717 681Q742 681 768 686T831 706Q800 678 768 664T697 650Q664 650 610 663Q578 671 553 675T498 679Q416 679 351 620Z" />
<glyph unicode="&#xc8;" glyph-name="Egrave" horiz-adv-x="726" d="M416 679T351 620T244 462Q318 471 380 510T482 613H490L422 342H426Q467 402 502 427T586 453Q616 453 635 436T658 391Q649 405 629 413T584 422Q538 422 497 385T400 252L395 233Q383 185
383 154Q383 144 384 141H322Q333 155 340 173T357 233L398 398Q414 463 432 512L429 514Q328 443 231 431Q204 359 190 279T178 122Q211 76 274 49T413 21Q473 21 532 43T663 116Q547 -10 406 -10Q299 -10 239 27T152 130Q147 155 147 196Q147 314 190 428H189Q131
428 99 445T66 493Q66 524 91 545T150 566Q175 566 187 554T198 519Q180 537 155 537Q134 537 120 526T105 497Q105 478 129 469T197 459H202Q250 571 329 640T507 710Q540 710 567 706T627 694Q683 681 717 681Q742 681 768 686T831 706Q800 678 768 664T697 650Q664
650 610 663Q578 671 553 675T498 679Q416 679 351 620ZM476 878H520L563 740H547L476 878Z" />
<glyph unicode="&#xc9;" glyph-name="Eacute" horiz-adv-x="726" d="M416 679T351 620T244 462Q318 471 380 510T482 613H490L422 342H426Q467 402 502 427T586 453Q616 453 635 436T658 391Q649 405 629 413T584 422Q538 422 497 385T400 252L395 233Q383 185
383 154Q383 144 384 141H322Q333 155 340 173T357 233L398 398Q414 463 432 512L429 514Q328 443 231 431Q204 359 190 279T178 122Q211 76 274 49T413 21Q473 21 532 43T663 116Q547 -10 406 -10Q299 -10 239 27T152 130Q147 155 147 196Q147 314 190 428H189Q131
428 99 445T66 493Q66 524 91 545T150 566Q175 566 187 554T198 519Q180 537 155 537Q134 537 120 526T105 497Q105 478 129 469T197 459H202Q250 571 329 640T507 710Q540 710 567 706T627 694Q683 681 717 681Q742 681 768 686T831 706Q800 678 768 664T697 650Q664
650 610 663Q578 671 553 675T498 679Q416 679 351 620ZM538 878H582L511 740H495L538 878Z" />
<glyph unicode="&#xca;" glyph-name="Ecircumflex" horiz-adv-x="726" d="M416 679T351 620T244 462Q318 471 380 510T482 613H490L422 342H426Q467 402 502 427T586 453Q616 453 635 436T658 391Q649 405 629 413T584 422Q538 422 497 385T400 252L395 233Q383
185 383 154Q383 144 384 141H322Q333 155 340 173T357 233L398 398Q414 463 432 512L429 514Q328 443 231 431Q204 359 190 279T178 122Q211 76 274 49T413 21Q473 21 532 43T663 116Q547 -10 406 -10Q299 -10 239 27T152 130Q147 155 147 196Q147 314 190 428H189Q131
428 99 445T66 493Q66 524 91 545T150 566Q175 566 187 554T198 519Q180 537 155 537Q134 537 120 526T105 497Q105 478 129 469T197 459H202Q250 571 329 640T507 710Q540 710 567 706T627 694Q683 681 717 681Q742 681 768 686T831 706Q800 678 768 664T697 650Q664
650 610 663Q578 671 553 675T498 679Q416 679 351 620ZM535 878H583L667 740L555 838L407 740L535 878Z" />
<glyph unicode="&#xcb;" glyph-name="Edieresis" horiz-adv-x="726" d="M416 679T351 620T244 462Q318 471 380 510T482 613H490L422 342H426Q467 402 502 427T586 453Q616 453 635 436T658 391Q649 405 629 413T584 422Q538 422 497 385T400 252L395 233Q383
185 383 154Q383 144 384 141H322Q333 155 340 173T357 233L398 398Q414 463 432 512L429 514Q328 443 231 431Q204 359 190 279T178 122Q211 76 274 49T413 21Q473 21 532 43T663 116Q547 -10 406 -10Q299 -10 239 27T152 130Q147 155 147 196Q147 314 190 428H189Q131
428 99 445T66 493Q66 524 91 545T150 566Q175 566 187 554T198 519Q180 537 155 537Q134 537 120 526T105 497Q105 478 129 469T197 459H202Q250 571 329 640T507 710Q540 710 567 706T627 694Q683 681 717 681Q742 681 768 686T831 706Q800 678 768 664T697 650Q664
650 610 663Q578 671 553 675T498 679Q416 679 351 620ZM451 740T442 749T432 773Q432 793 445 805T478 818Q494 818 503 809T512 786Q512 766 499 753T466 740Q451 740 442 749ZM592 740T583 749T573 773Q573 793 586 805T619 818Q635 818 644 809T653 786Q653
766 640 753T607 740Q592 740 583 749Z" />
<glyph unicode="&#xcc;" glyph-name="Igrave" horiz-adv-x="517" d="M495 180T525 116Q489 168 433 202L432 199Q408 103 333 47T156 -10Q98 -10 55 8T-4 59Q-6 73 -6 82Q-6 140 23 186T102 259T214 285Q324 285 405 242L457 452Q480 544 501 607L498 609Q376
523 263 523Q205 523 173 543T140 601Q140 640 165 668T229 696Q281 696 277 641Q261 665 235 665Q211 665 195 648T178 609Q178 584 203 569T271 554Q317 554 371 572T473 625T551 708H559L438 222Q495 180 525 116ZM399 219Q322 254 206 254Q123 254 76 201T29
59Q40 42 77 32T164 21Q249 21 311 69T394 199L399 219ZM322 878H366L409 740H393L322 878Z" />
<glyph unicode="&#xcd;" glyph-name="Iacute" horiz-adv-x="517" d="M495 180T525 116Q489 168 433 202L432 199Q408 103 333 47T156 -10Q98 -10 55 8T-4 59Q-6 73 -6 82Q-6 140 23 186T102 259T214 285Q324 285 405 242L457 452Q480 544 501 607L498 609Q376
523 263 523Q205 523 173 543T140 601Q140 640 165 668T229 696Q281 696 277 641Q261 665 235 665Q211 665 195 648T178 609Q178 584 203 569T271 554Q317 554 371 572T473 625T551 708H559L438 222Q495 180 525 116ZM399 219Q322 254 206 254Q123 254 76 201T29
59Q40 42 77 32T164 21Q249 21 311 69T394 199L399 219ZM384 878H428L357 740H341L384 878Z" />
<glyph unicode="&#xce;" glyph-name="Icircumflex" horiz-adv-x="517" d="M495 180T525 116Q489 168 433 202L432 199Q408 103 333 47T156 -10Q98 -10 55 8T-4 59Q-6 73 -6 82Q-6 140 23 186T102 259T214 285Q324 285 405 242L457 452Q480 544 501 607L498 609Q376
523 263 523Q205 523 173 543T140 601Q140 640 165 668T229 696Q281 696 277 641Q261 665 235 665Q211 665 195 648T178 609Q178 584 203 569T271 554Q317 554 371 572T473 625T551 708H559L438 222Q495 180 525 116ZM399 219Q322 254 206 254Q123 254 76 201T29
59Q40 42 77 32T164 21Q249 21 311 69T394 199L399 219ZM381 878H429L513 740L401 838L253 740L381 878Z" />
<glyph unicode="&#xcf;" glyph-name="Idieresis" horiz-adv-x="517" d="M495 180T525 116Q489 168 433 202L432 199Q408 103 333 47T156 -10Q98 -10 55 8T-4 59Q-6 73 -6 82Q-6 140 23 186T102 259T214 285Q324 285 405 242L457 452Q480 544 501 607L498 609Q376
523 263 523Q205 523 173 543T140 601Q140 640 165 668T229 696Q281 696 277 641Q261 665 235 665Q211 665 195 648T178 609Q178 584 203 569T271 554Q317 554 371 572T473 625T551 708H559L438 222Q495 180 525 116ZM399 219Q322 254 206 254Q123 254 76 201T29
59Q40 42 77 32T164 21Q249 21 311 69T394 199L399 219ZM297 740T288 749T278 773Q278 793 291 805T324 818Q340 818 349 809T358 786Q358 766 345 753T312 740Q297 740 288 749ZM438 740T429 749T419 773Q419 793 432 805T465 818Q481 818 490 809T499 786Q499
766 486 753T453 740Q438 740 429 749Z" />
<glyph unicode="&#xd0;" glyph-name="Eth" horiz-adv-x="815" d="M810 540T810 503Q810 366 758 249T610 61T388 -10Q318 -10 262 14T168 87Q222 53 274 37T387 21Q517 21 606 97T738 301T778 578Q745 624 682 651T543 679Q465 679 401 656T299 587T261 478V467Q327
481 382 518T472 613H480L404 308H579L571 279H397L370 173Q356 117 356 102Q356 93 359 81H297Q308 95 315 113T332 173L358 279H162L169 308H366L371 328Q315 335 279 362T228 432Q207 428 179 428Q121 428 89 445T56 493Q56 524 81 545T140 566Q165 566 177
554T188 519Q170 537 145 537Q124 537 110 526T95 497Q95 478 119 469T187 459Q198 459 222 461Q221 467 221 479Q221 552 264 604T381 683T543 710Q650 710 713 672T804 570Q810 540 810 503ZM340 458T266 439Q286 373 371 329L388 398Q404 463 422 512L419 514Q340
458 266 439Z" />
<glyph unicode="&#xd1;" glyph-name="Ntilde" horiz-adv-x="834" d="M776 576T744 580Q687 496 649 375T610 168Q610 97 639 58T722 19Q779 19 820 59Q781 -10 697 -10Q635 -10 602 34T569 157Q569 256 609 378T712 588Q675 600 627 631Q586 656 557 668T489 680Q420
680 368 654T286 579T254 467Q304 480 349 515T452 613H460L395 352Q480 358 521 412Q483 335 388 324L330 92Q317 38 317 14Q317 6 319 0H257Q268 14 275 32T292 92L349 323Q289 325 255 352T216 431Q196 428 177 428Q118 428 88 446T57 495Q57 529 81 552T141
576Q166 576 179 564T191 529Q173 547 147 547Q124 547 110 534T96 503Q96 483 119 471T189 459Q207 459 215 460Q218 535 254 592T353 679T497 710Q545 710 578 697T652 656Q671 644 691 633T732 615Q811 710 892 710Q925 710 942 699T959 666Q959 619 913 598T795
576Q776 576 744 580ZM823 681T764 607Q782 604 805 604Q919 604 919 654Q919 681 879 681Q823 681 764 607ZM401 524Q335 460 255 439Q264 362 357 353L368 398Q385 468 405 522L401 524ZM461 789T485 817T543 846Q564 846 579 836T613 807Q630 790 641 782T668
774Q706 774 749 846Q738 795 714 768T656 740Q634 740 619 750T583 780Q565 797 554 804T528 812Q509 812 491 796T450 740Q461 789 485 817Z" />
<glyph unicode="&#xd2;" glyph-name="Ograve" horiz-adv-x="736" d="M240 -10T181 26T86 119Q70 166 70 227Q70 378 148 497T371 682Q251 593 180 470T108 211Q108 163 115 107Q145 72 205 47T317 21Q424 21 508 87T639 259T686 478Q686 562 680 603Q615 679 540
679Q491 679 453 650T394 575T373 487Q373 438 402 397T482 328Q414 336 375 378T335 487Q335 541 360 593T432 677T540 710Q591 710 636 678T716 587Q724 545 724 478Q724 360 675 247T533 62T322 -10Q240 -10 181 26ZM471 878H515L558 740H542L471 878Z" />
<glyph unicode="&#xd3;" glyph-name="Oacute" horiz-adv-x="736" d="M240 -10T181 26T86 119Q70 166 70 227Q70 378 148 497T371 682Q251 593 180 470T108 211Q108 163 115 107Q145 72 205 47T317 21Q424 21 508 87T639 259T686 478Q686 562 680 603Q615 679 540
679Q491 679 453 650T394 575T373 487Q373 438 402 397T482 328Q414 336 375 378T335 487Q335 541 360 593T432 677T540 710Q591 710 636 678T716 587Q724 545 724 478Q724 360 675 247T533 62T322 -10Q240 -10 181 26ZM533 878H577L506 740H490L533 878Z" />
<glyph unicode="&#xd4;" glyph-name="Ocircumflex" horiz-adv-x="736" d="M240 -10T181 26T86 119Q70 166 70 227Q70 378 148 497T371 682Q251 593 180 470T108 211Q108 163 115 107Q145 72 205 47T317 21Q424 21 508 87T639 259T686 478Q686 562 680 603Q615
679 540 679Q491 679 453 650T394 575T373 487Q373 438 402 397T482 328Q414 336 375 378T335 487Q335 541 360 593T432 677T540 710Q591 710 636 678T716 587Q724 545 724 478Q724 360 675 247T533 62T322 -10Q240 -10 181 26ZM530 878H578L662 740L550 838L402
740L530 878Z" />
<glyph unicode="&#xd5;" glyph-name="Otilde" horiz-adv-x="736" d="M240 -10T181 26T86 119Q70 166 70 227Q70 378 148 497T371 682Q251 593 180 470T108 211Q108 163 115 107Q145 72 205 47T317 21Q424 21 508 87T639 259T686 478Q686 562 680 603Q615 679 540
679Q491 679 453 650T394 575T373 487Q373 438 402 397T482 328Q414 336 375 378T335 487Q335 541 360 593T432 677T540 710Q591 710 636 678T716 587Q724 545 724 478Q724 360 675 247T533 62T322 -10Q240 -10 181 26ZM402 789T426 817T484 846Q505 846 520 836T554
807Q571 790 582 782T609 774Q647 774 690 846Q679 795 655 768T597 740Q575 740 560 750T524 780Q506 797 495 804T469 812Q450 812 432 796T391 740Q402 789 426 817Z" />
<glyph unicode="&#xd6;" glyph-name="Odieresis" horiz-adv-x="736" d="M240 -10T181 26T86 119Q70 166 70 227Q70 378 148 497T371 682Q251 593 180 470T108 211Q108 163 115 107Q145 72 205 47T317 21Q424 21 508 87T639 259T686 478Q686 562 680 603Q615 679
540 679Q491 679 453 650T394 575T373 487Q373 438 402 397T482 328Q414 336 375 378T335 487Q335 541 360 593T432 677T540 710Q591 710 636 678T716 587Q724 545 724 478Q724 360 675 247T533 62T322 -10Q240 -10 181 26ZM446 740T437 749T427 773Q427 793 440
805T473 818Q489 818 498 809T507 786Q507 766 494 753T461 740Q446 740 437 749ZM587 740T578 749T568 773Q568 793 581 805T614 818Q630 818 639 809T648 786Q648 766 635 753T602 740Q587 740 578 749Z" />
<glyph unicode="&#xd7;" glyph-name="multiply" horiz-adv-x="441" d="M17 143L216 302L97 461L123 482L242 323L441 482L457 461L258 302L377 143L351 122L232 281L33 122L17 143Z" />
<glyph unicode="&#xd8;" glyph-name="Oslash" horiz-adv-x="736" d="M687 639T716 587Q724 545 724 478Q724 360 675 247T533 62T322 -10Q253 -10 197 18L189 7Q162 -33 136 -59T76 -100L168 34Q119 67 86 119Q70 166 70 227Q70 378 148 497T371 682Q251 593 180
470T108 211Q108 163 115 107Q138 79 183 57L392 362Q365 383 350 414T335 487Q335 541 360 593T432 677T540 710Q580 710 617 690L619 693Q650 738 674 763T733 800L645 672Q687 639 716 587ZM373 432T409 387L600 666Q571 679 540 679Q491 679 453 650T394 575T373
487Q373 432 409 387ZM424 21T508 87T639 259T686 478Q686 562 680 603Q656 631 630 649L433 362Q453 343 482 328Q445 333 421 345L214 43Q267 21 317 21Q424 21 508 87Z" />
<glyph unicode="&#xd9;" glyph-name="Ugrave" horiz-adv-x="688" d="M582 92Q569 38 569 14Q569 6 571 0H509Q520 14 527 32T544 92L578 228Q516 106 449 48T306 -10Q240 -10 197 24T137 113Q134 137 134 159Q134 243 163 328Q123 342 100 371T77 443Q77 538 157
596T366 674Q412 682 454 700H462Q363 600 304 520T212 352Q234 347 253 347Q297 347 331 363T401 419Q370 369 331 343T233 317Q221 317 201 319Q172 226 168 108Q188 68 227 44T314 20Q386 20 458 102T612 366L642 485Q659 555 679 609L675 611Q567 505 485 505Q456
505 440 517T423 552Q423 582 446 602T504 623Q557 623 555 576Q537 594 507 594Q487 594 475 584T462 559Q462 548 472 542T498 536Q541 536 596 577T726 700H734L582 92ZM117 422T133 400T177 364Q237 512 369 647Q255 629 186 580T117 452Q117 422 133 400ZM519
878H563L606 740H590L519 878Z" />
<glyph unicode="&#xda;" glyph-name="Uacute" horiz-adv-x="688" d="M582 92Q569 38 569 14Q569 6 571 0H509Q520 14 527 32T544 92L578 228Q516 106 449 48T306 -10Q240 -10 197 24T137 113Q134 137 134 159Q134 243 163 328Q123 342 100 371T77 443Q77 538 157
596T366 674Q412 682 454 700H462Q363 600 304 520T212 352Q234 347 253 347Q297 347 331 363T401 419Q370 369 331 343T233 317Q221 317 201 319Q172 226 168 108Q188 68 227 44T314 20Q386 20 458 102T612 366L642 485Q659 555 679 609L675 611Q567 505 485 505Q456
505 440 517T423 552Q423 582 446 602T504 623Q557 623 555 576Q537 594 507 594Q487 594 475 584T462 559Q462 548 472 542T498 536Q541 536 596 577T726 700H734L582 92ZM117 422T133 400T177 364Q237 512 369 647Q255 629 186 580T117 452Q117 422 133 400ZM581
878H625L554 740H538L581 878Z" />
<glyph unicode="&#xdb;" glyph-name="Ucircumflex" horiz-adv-x="688" d="M582 92Q569 38 569 14Q569 6 571 0H509Q520 14 527 32T544 92L578 228Q516 106 449 48T306 -10Q240 -10 197 24T137 113Q134 137 134 159Q134 243 163 328Q123 342 100 371T77 443Q77
538 157 596T366 674Q412 682 454 700H462Q363 600 304 520T212 352Q234 347 253 347Q297 347 331 363T401 419Q370 369 331 343T233 317Q221 317 201 319Q172 226 168 108Q188 68 227 44T314 20Q386 20 458 102T612 366L642 485Q659 555 679 609L675 611Q567 505
485 505Q456 505 440 517T423 552Q423 582 446 602T504 623Q557 623 555 576Q537 594 507 594Q487 594 475 584T462 559Q462 548 472 542T498 536Q541 536 596 577T726 700H734L582 92ZM117 422T133 400T177 364Q237 512 369 647Q255 629 186 580T117 452Q117 422
133 400ZM578 878H626L710 740L598 838L450 740L578 878Z" />
<glyph unicode="&#xdc;" glyph-name="Udieresis" horiz-adv-x="688" d="M582 92Q569 38 569 14Q569 6 571 0H509Q520 14 527 32T544 92L578 228Q516 106 449 48T306 -10Q240 -10 197 24T137 113Q134 137 134 159Q134 243 163 328Q123 342 100 371T77 443Q77 538
157 596T366 674Q412 682 454 700H462Q363 600 304 520T212 352Q234 347 253 347Q297 347 331 363T401 419Q370 369 331 343T233 317Q221 317 201 319Q172 226 168 108Q188 68 227 44T314 20Q386 20 458 102T612 366L642 485Q659 555 679 609L675 611Q567 505 485
505Q456 505 440 517T423 552Q423 582 446 602T504 623Q557 623 555 576Q537 594 507 594Q487 594 475 584T462 559Q462 548 472 542T498 536Q541 536 596 577T726 700H734L582 92ZM117 422T133 400T177 364Q237 512 369 647Q255 629 186 580T117 452Q117 422 133
400ZM494 740T485 749T475 773Q475 793 488 805T521 818Q537 818 546 809T555 786Q555 766 542 753T509 740Q494 740 485 749ZM635 740T626 749T616 773Q616 793 629 805T662 818Q678 818 687 809T696 786Q696 766 683 753T650 740Q635 740 626 749Z" />
<glyph unicode="&#xdd;" glyph-name="Yacute" horiz-adv-x="764" d="M807 526T797 531T780 539Q745 431 657 302T444 82T180 -10Q131 -10 91 4T38 42Q36 54 36 62Q36 125 85 160T209 196Q271 196 312 177T379 117Q305 167 201 167Q142 167 108 134T73 45Q84 34
112 27T180 20Q266 20 352 65T516 189Q473 298 449 410T421 623Q374 570 322 544T208 517Q156 517 127 535T97 584Q97 627 135 653T226 680Q298 680 310 629Q285 640 265 645T223 651Q186 651 161 634T135 590Q135 570 156 559T215 547Q287 547 345 588T445 700H453Q457
560 477 450T545 219Q618 299 672 390T748 557Q681 599 681 644Q681 673 698 691T743 710Q770 710 784 691T798 636Q798 608 789 569Q788 565 787 560T783 549Q801 534 821 520Q807 526 797 531ZM719 682T719 652Q719 618 753 579Q762 612 762 642Q762 682 740
682Q719 682 719 652ZM578 878H622L551 740H535L578 878Z" />
<glyph unicode="&#xde;" glyph-name="Thorn" horiz-adv-x="692" d="M674 389T674 351Q674 276 629 222T514 139T373 111Q330 111 296 118L289 92Q275 36 275 19Q275 9 278 0H216Q227 13 233 31T251 92L260 127Q205 144 181 177Q206 160 266 150L339 442Q271 402
242 334Q227 297 227 254Q227 240 231 206Q210 253 210 304Q210 362 248 407T349 481L350 485Q371 568 387 609L383 611Q340 569 286 542T179 515Q132 515 106 533T79 582Q79 618 102 640T163 663Q188 663 201 651T212 616Q195 634 169 634Q146 634 132 621T118
589Q118 569 137 558T191 546Q251 546 305 583T433 700H441L390 495Q440 510 493 510Q555 510 597 484T662 413Q674 389 674 351ZM439 142T501 168T601 246T639 372Q639 406 632 421Q587 479 485 479Q429 479 381 461L302 146Q334 142 369 142Q439 142 501 168Z"
/>
<glyph unicode="&#xdf;" glyph-name="germandbls" horiz-adv-x="540" d="M155 534Q181 638 248 699T405 760Q448 760 479 742T538 693Q550 672 550 651Q550 633 545 614Q534 572 505 544T426 481Q393 459 376 444T353 411Q349 394 361 379T400 338Q437 304 458
275T479 205Q479 190 474 170Q454 88 396 39T259 -10Q170 -10 124 56Q151 38 183 29T267 20Q328 20 374 60T438 170Q441 184 441 195Q441 226 424 249T374 303Q344 331 330 350T315 394Q315 399 317 411Q324 438 345 458T407 504Q451 533 475 556T509 614Q515 641
515 658Q515 677 508 696Q459 730 398 730Q325 730 270 677T191 534L28 -117Q17 -163 -1 -201T-43 -260L155 534Z" />
<glyph unicode="&#xe0;" glyph-name="agrave" horiz-adv-x="497" d="M358 46T358 41Q358 33 367 33Q378 33 397 42T451 74Q418 38 386 16T331 -6Q323 -6 320 -3T316 9Q316 18 319 34L339 115Q305 60 252 25T154 -10Q119 -10 95 10T50 67Q40 104 40 140Q40 227
76 305T178 432T325 480Q414 480 483 400Q399 450 320 450Q250 450 194 404T107 283T75 129Q75 94 80 59Q98 39 114 30T153 20Q203 20 261 67T358 191L404 374Q406 382 412 386T426 391Q434 391 438 387T440 374L359 49Q358 46 358 41ZM255 648H299L342 510H326L255
648Z" />
<glyph unicode="&#xe1;" glyph-name="aacute" horiz-adv-x="497" d="M358 46T358 41Q358 33 367 33Q378 33 397 42T451 74Q418 38 386 16T331 -6Q323 -6 320 -3T316 9Q316 18 319 34L339 115Q305 60 252 25T154 -10Q119 -10 95 10T50 67Q40 104 40 140Q40 227
76 305T178 432T325 480Q414 480 483 400Q399 450 320 450Q250 450 194 404T107 283T75 129Q75 94 80 59Q98 39 114 30T153 20Q203 20 261 67T358 191L404 374Q406 382 412 386T426 391Q434 391 438 387T440 374L359 49Q358 46 358 41ZM317 648H361L290 510H274L317
648Z" />
<glyph unicode="&#xe2;" glyph-name="acircumflex" horiz-adv-x="497" d="M358 46T358 41Q358 33 367 33Q378 33 397 42T451 74Q418 38 386 16T331 -6Q323 -6 320 -3T316 9Q316 18 319 34L339 115Q305 60 252 25T154 -10Q119 -10 95 10T50 67Q40 104 40 140Q40
227 76 305T178 432T325 480Q414 480 483 400Q399 450 320 450Q250 450 194 404T107 283T75 129Q75 94 80 59Q98 39 114 30T153 20Q203 20 261 67T358 191L404 374Q406 382 412 386T426 391Q434 391 438 387T440 374L359 49Q358 46 358 41ZM314 648H362L446 510L334
608L186 510L314 648Z" />
<glyph unicode="&#xe3;" glyph-name="atilde" horiz-adv-x="497" d="M358 46T358 41Q358 33 367 33Q378 33 397 42T451 74Q418 38 386 16T331 -6Q323 -6 320 -3T316 9Q316 18 319 34L339 115Q305 60 252 25T154 -10Q119 -10 95 10T50 67Q40 104 40 140Q40 227
76 305T178 432T325 480Q414 480 483 400Q399 450 320 450Q250 450 194 404T107 283T75 129Q75 94 80 59Q98 39 114 30T153 20Q203 20 261 67T358 191L404 374Q406 382 412 386T426 391Q434 391 438 387T440 374L359 49Q358 46 358 41ZM186 559T210 587T268 616Q289
616 304 606T338 577Q355 560 366 552T393 544Q431 544 474 616Q463 565 439 538T381 510Q359 510 344 520T308 550Q290 567 279 574T253 582Q234 582 216 566T175 510Q186 559 210 587Z" />
<glyph unicode="&#xe4;" glyph-name="adieresis" horiz-adv-x="497" d="M358 46T358 41Q358 33 367 33Q378 33 397 42T451 74Q418 38 386 16T331 -6Q323 -6 320 -3T316 9Q316 18 319 34L339 115Q305 60 252 25T154 -10Q119 -10 95 10T50 67Q40 104 40 140Q40 227
76 305T178 432T325 480Q414 480 483 400Q399 450 320 450Q250 450 194 404T107 283T75 129Q75 94 80 59Q98 39 114 30T153 20Q203 20 261 67T358 191L404 374Q406 382 412 386T426 391Q434 391 438 387T440 374L359 49Q358 46 358 41ZM230 510T221 519T211 543Q211
563 224 575T257 588Q273 588 282 579T291 556Q291 536 278 523T245 510Q230 510 221 519ZM371 510T362 519T352 543Q352 563 365 575T398 588Q414 588 423 579T432 556Q432 536 419 523T386 510Q371 510 362 519Z" />
<glyph unicode="&#xe5;" glyph-name="aring" horiz-adv-x="497" d="M358 46T358 41Q358 33 367 33Q378 33 397 42T451 74Q418 38 386 16T331 -6Q323 -6 320 -3T316 9Q316 18 319 34L339 115Q305 60 252 25T154 -10Q119 -10 95 10T50 67Q40 104 40 140Q40 227 76
305T178 432T325 480Q414 480 483 400Q399 450 320 450Q250 450 194 404T107 283T75 129Q75 94 80 59Q98 39 114 30T153 20Q203 20 261 67T358 191L404 374Q406 382 412 386T426 391Q434 391 438 387T440 374L359 49Q358 46 358 41ZM282 510T261 529T239 581Q239
620 268 647T339 674Q373 674 394 656T415 604Q415 565 387 538T316 510Q282 510 261 529ZM345 538T362 556T379 601Q379 622 367 634T336 646Q311 646 293 628T275 583Q275 562 287 550T320 538Q345 538 362 556Z" />
<glyph unicode="&#xe6;" glyph-name="ae" horiz-adv-x="788" d="M652 211T691 244T731 338Q731 366 723 408Q682 450 617 450Q553 450 502 404T423 285T394 135Q394 102 399 69Q435 20 501 20Q552 20 608 50T716 141Q667 63 615 27T505 -10Q454 -10 421 14T369
77Q359 107 359 149V150Q326 80 268 35T152 -10Q118 -10 94 10T50 67Q40 104 40 140Q40 227 76 305T178 432T325 480Q391 480 443 420Q385 450 320 450Q250 450 194 404T107 283T75 129Q75 94 80 59Q98 39 114 30T153 20Q203 20 261 67T358 191L369 234Q384 300
419 356T506 446T616 480Q705 480 753 400Q765 364 765 330Q765 265 717 224T596 183Q506 183 461 243Q483 228 517 220T586 211Q652 211 691 244Z" />
<glyph unicode="&#xe7;" glyph-name="ccedilla" horiz-adv-x="454" d="M317 364T317 351Q317 346 315 338T313 319Q313 303 321 294T346 285Q375 285 393 314T411 375Q411 407 389 428T324 450Q250 450 194 407T107 291T77 135Q77 102 82 69Q118 20 184 20Q235
20 291 50T399 141Q350 63 298 27T188 -10Q176 -10 170 -9L132 -56Q167 -56 187 -69T207 -106Q207 -137 186 -156T132 -175Q108 -175 86 -164T49 -131Q84 -147 119 -147Q140 -147 154 -138T168 -112Q168 -86 121 -86Q101 -86 82 -92L78 -84L145 -4Q112 4 89 26T52
77Q42 107 42 149Q42 236 79 312T182 434T331 480Q387 480 417 453T448 383Q448 331 418 294T339 256Q309 256 294 270T278 311Q278 333 284 348T304 364Q317 364 317 351Z" />
<glyph unicode="&#xe8;" glyph-name="egrave" horiz-adv-x="471" d="M137 -10T104 14T52 77Q42 107 42 149Q42 228 75 305T168 431T299 480Q388 480 436 400Q448 364 448 330Q448 265 400 224T279 183Q189 183 144 243Q166 228 200 220T269 211Q335 211 374 244T414
338Q414 366 406 408Q365 450 300 450Q236 450 185 404T106 285T77 135Q77 102 82 69Q118 20 184 20Q235 20 291 50T399 141Q350 63 298 27T188 -10Q137 -10 104 14ZM242 648H286L329 510H313L242 648Z" />
<glyph unicode="&#xe9;" glyph-name="eacute" horiz-adv-x="471" d="M137 -10T104 14T52 77Q42 107 42 149Q42 228 75 305T168 431T299 480Q388 480 436 400Q448 364 448 330Q448 265 400 224T279 183Q189 183 144 243Q166 228 200 220T269 211Q335 211 374 244T414
338Q414 366 406 408Q365 450 300 450Q236 450 185 404T106 285T77 135Q77 102 82 69Q118 20 184 20Q235 20 291 50T399 141Q350 63 298 27T188 -10Q137 -10 104 14ZM304 648H348L277 510H261L304 648Z" />
<glyph unicode="&#xea;" glyph-name="ecircumflex" horiz-adv-x="471" d="M137 -10T104 14T52 77Q42 107 42 149Q42 228 75 305T168 431T299 480Q388 480 436 400Q448 364 448 330Q448 265 400 224T279 183Q189 183 144 243Q166 228 200 220T269 211Q335 211 374
244T414 338Q414 366 406 408Q365 450 300 450Q236 450 185 404T106 285T77 135Q77 102 82 69Q118 20 184 20Q235 20 291 50T399 141Q350 63 298 27T188 -10Q137 -10 104 14ZM301 648H349L433 510L321 608L173 510L301 648Z" />
<glyph unicode="&#xeb;" glyph-name="edieresis" horiz-adv-x="471" d="M137 -10T104 14T52 77Q42 107 42 149Q42 228 75 305T168 431T299 480Q388 480 436 400Q448 364 448 330Q448 265 400 224T279 183Q189 183 144 243Q166 228 200 220T269 211Q335 211 374
244T414 338Q414 366 406 408Q365 450 300 450Q236 450 185 404T106 285T77 135Q77 102 82 69Q118 20 184 20Q235 20 291 50T399 141Q350 63 298 27T188 -10Q137 -10 104 14ZM217 510T208 519T198 543Q198 563 211 575T244 588Q260 588 269 579T278 556Q278 536
265 523T232 510Q217 510 208 519ZM358 510T349 519T339 543Q339 563 352 575T385 588Q401 588 410 579T419 556Q419 536 406 523T373 510Q358 510 349 519Z" />
<glyph unicode="&#xec;" glyph-name="igrave" horiz-adv-x="222" d="M42 -6T42 9Q42 19 46 34L143 421Q144 424 144 429Q144 437 135 437Q113 437 50 396Q83 432 115 454T170 476Q179 476 183 473T187 463Q187 456 182 436L86 49Q85 46 85 41Q85 33 94 33Q116
33 178 74Q146 39 113 17T58 -6Q42 -6 42 9ZM117 648H161L204 510H188L117 648Z" />
<glyph unicode="&#xed;" glyph-name="iacute" horiz-adv-x="222" d="M42 -6T42 9Q42 19 46 34L143 421Q144 424 144 429Q144 437 135 437Q113 437 50 396Q83 432 115 454T170 476Q179 476 183 473T187 463Q187 456 182 436L86 49Q85 46 85 41Q85 33 94 33Q116
33 178 74Q146 39 113 17T58 -6Q42 -6 42 9ZM179 648H223L152 510H136L179 648Z" />
<glyph unicode="&#xee;" glyph-name="icircumflex" horiz-adv-x="222" d="M42 -6T42 9Q42 19 46 34L143 421Q144 424 144 429Q144 437 135 437Q113 437 50 396Q83 432 115 454T170 476Q179 476 183 473T187 463Q187 456 182 436L86 49Q85 46 85 41Q85 33 94 33Q116
33 178 74Q146 39 113 17T58 -6Q42 -6 42 9ZM176 648H224L308 510L196 608L48 510L176 648Z" />
<glyph unicode="&#xef;" glyph-name="idieresis" horiz-adv-x="222" d="M42 -6T42 9Q42 19 46 34L143 421Q144 424 144 429Q144 437 135 437Q113 437 50 396Q83 432 115 454T170 476Q179 476 183 473T187 463Q187 456 182 436L86 49Q85 46 85 41Q85 33 94 33Q116
33 178 74Q146 39 113 17T58 -6Q42 -6 42 9ZM92 510T83 519T73 543Q73 563 86 575T119 588Q135 588 144 579T153 556Q153 536 140 523T107 510Q92 510 83 519ZM233 510T224 519T214 543Q214 563 227 575T260 588Q276 588 285 579T294 556Q294 536 281 523T248 510Q233
510 224 519Z" />
<glyph unicode="&#xf0;" glyph-name="eth" horiz-adv-x="502" d="M364 49Q363 46 363 41Q363 33 372 33Q395 33 456 74Q424 39 391 17T336 -6Q328 -6 325 -3T321 9Q321 18 324 34L344 115Q310 61 255 26T155 -10Q120 -10 96 10T51 67Q41 104 41 140Q41 228 76
306T170 432T296 480Q332 480 356 468T396 429Q348 450 296 450Q234 450 184 402T105 280T76 129Q76 94 81 59Q99 39 116 30T155 20Q187 20 225 41T300 101T363 191L465 600H308L315 630H473L491 703Q492 706 492 711Q492 719 483 719Q461 719 399 678Q431 713
464 735T519 758Q535 758 535 743Q535 733 531 718L509 630H582L575 600H502L364 49Z" />
<glyph unicode="&#xf1;" glyph-name="ntilde" horiz-adv-x="482" d="M44 -6T41 -2T39 11L140 419Q141 422 141 427Q141 435 132 435Q121 435 102 426T48 394Q81 430 113 452T168 474Q184 474 184 459Q184 449 180 434L158 344Q190 377 236 408T327 460T393 480Q413
480 430 463T444 432L348 49Q347 46 347 42Q347 33 356 33Q379 33 440 74Q408 39 375 17T320 -6Q304 -6 304 9Q304 19 308 34L412 448Q350 441 280 401T147 302L75 11Q73 3 67 -1T52 -6Q44 -6 41 -2ZM158 559T182 587T240 616Q261 616 276 606T310 577Q327 560
338 552T365 544Q403 544 446 616Q435 565 411 538T353 510Q331 510 316 520T280 550Q262 567 251 574T225 582Q206 582 188 566T147 510Q158 559 182 587Z" />
<glyph unicode="&#xf2;" glyph-name="ograve" horiz-adv-x="506" d="M152 -10T114 14T53 77Q43 108 43 151Q43 253 93 334T237 459Q161 401 120 318T78 140Q78 106 83 69Q102 46 135 33T202 20Q280 20 332 75T409 219T431 406Q407 429 390 438T348 448Q300 448
273 410T245 320Q245 254 309 219Q260 225 236 250T211 317Q211 358 228 395T275 455T346 478Q386 478 410 457T460 395Q465 365 465 334Q465 247 434 168T343 40T205 -10Q152 -10 114 14ZM259 648H303L346 510H330L259 648Z" />
<glyph unicode="&#xf3;" glyph-name="oacute" horiz-adv-x="506" d="M152 -10T114 14T53 77Q43 108 43 151Q43 253 93 334T237 459Q161 401 120 318T78 140Q78 106 83 69Q102 46 135 33T202 20Q280 20 332 75T409 219T431 406Q407 429 390 438T348 448Q300 448
273 410T245 320Q245 254 309 219Q260 225 236 250T211 317Q211 358 228 395T275 455T346 478Q386 478 410 457T460 395Q465 365 465 334Q465 247 434 168T343 40T205 -10Q152 -10 114 14ZM321 648H365L294 510H278L321 648Z" />
<glyph unicode="&#xf4;" glyph-name="ocircumflex" horiz-adv-x="506" d="M152 -10T114 14T53 77Q43 108 43 151Q43 253 93 334T237 459Q161 401 120 318T78 140Q78 106 83 69Q102 46 135 33T202 20Q280 20 332 75T409 219T431 406Q407 429 390 438T348 448Q300
448 273 410T245 320Q245 254 309 219Q260 225 236 250T211 317Q211 358 228 395T275 455T346 478Q386 478 410 457T460 395Q465 365 465 334Q465 247 434 168T343 40T205 -10Q152 -10 114 14ZM318 648H366L450 510L338 608L190 510L318 648Z" />
<glyph unicode="&#xf5;" glyph-name="otilde" horiz-adv-x="506" d="M152 -10T114 14T53 77Q43 108 43 151Q43 253 93 334T237 459Q161 401 120 318T78 140Q78 106 83 69Q102 46 135 33T202 20Q280 20 332 75T409 219T431 406Q407 429 390 438T348 448Q300 448
273 410T245 320Q245 254 309 219Q260 225 236 250T211 317Q211 358 228 395T275 455T346 478Q386 478 410 457T460 395Q465 365 465 334Q465 247 434 168T343 40T205 -10Q152 -10 114 14ZM190 559T214 587T272 616Q293 616 308 606T342 577Q359 560 370 552T397
544Q435 544 478 616Q467 565 443 538T385 510Q363 510 348 520T312 550Q294 567 283 574T257 582Q238 582 220 566T179 510Q190 559 214 587Z" />
<glyph unicode="&#xf6;" glyph-name="odieresis" horiz-adv-x="506" d="M152 -10T114 14T53 77Q43 108 43 151Q43 253 93 334T237 459Q161 401 120 318T78 140Q78 106 83 69Q102 46 135 33T202 20Q280 20 332 75T409 219T431 406Q407 429 390 438T348 448Q300
448 273 410T245 320Q245 254 309 219Q260 225 236 250T211 317Q211 358 228 395T275 455T346 478Q386 478 410 457T460 395Q465 365 465 334Q465 247 434 168T343 40T205 -10Q152 -10 114 14ZM234 510T225 519T215 543Q215 563 228 575T261 588Q277 588 286 579T295
556Q295 536 282 523T249 510Q234 510 225 519ZM375 510T366 519T356 543Q356 563 369 575T402 588Q418 588 427 579T436 556Q436 536 423 523T390 510Q375 510 366 519Z" />
<glyph unicode="&#xf7;" glyph-name="divide" horiz-adv-x="521" d="M284 400T274 410T263 436Q263 461 282 479T326 498Q344 498 354 488T365 462Q365 437 346 419T301 400Q284 400 274 410ZM61 317H501L493 287H53L61 317ZM210 106T200 116T189 142Q189 167
208 185T253 204Q270 204 280 194T291 168Q291 143 272 125T228 106Q210 106 200 116Z" />
<glyph unicode="&#xf8;" glyph-name="oslash" horiz-adv-x="506" d="M465 365T465 334Q465 247 434 168T343 40T205 -10Q169 -10 136 3L117 -29Q102 -55 81 -77T36 -110L109 18Q75 40 53 77Q43 108 43 151Q43 253 93 334T237 459Q161 401 120 318T78 140Q78 106
83 69Q98 51 121 40L239 247Q211 272 211 317Q211 358 228 395T275 455T346 478Q355 478 369 476L376 489Q392 516 415 538T461 570L400 464Q417 453 430 437T460 395Q465 365 465 334ZM245 295T254 275L353 448H348Q300 448 273 410T245 320Q245 295 254 275ZM280
20T332 75T409 219T431 406Q403 432 386 440L274 245Q288 231 309 219Q286 222 266 230L150 28Q177 20 202 20Q280 20 332 75Z" />
<glyph unicode="&#xf9;" glyph-name="ugrave" horiz-adv-x="478" d="M77 -10T60 7T46 38L140 421Q141 424 141 429Q141 437 132 437Q110 437 48 396Q80 431 113 453T168 476Q184 476 184 461Q184 451 180 436L78 22Q144 29 209 63T335 156L411 459Q413 467 419
471T434 476Q442 476 445 472T447 459L344 49Q343 46 343 41Q343 33 352 33Q363 33 382 42T436 74Q403 38 371 16T316 -6Q300 -6 300 9Q300 19 304 34L324 114Q292 81 249 53T164 7T97 -10Q77 -10 60 7ZM246 648H290L333 510H317L246 648Z" />
<glyph unicode="&#xfa;" glyph-name="uacute" horiz-adv-x="478" d="M77 -10T60 7T46 38L140 421Q141 424 141 429Q141 437 132 437Q110 437 48 396Q80 431 113 453T168 476Q184 476 184 461Q184 451 180 436L78 22Q144 29 209 63T335 156L411 459Q413 467 419
471T434 476Q442 476 445 472T447 459L344 49Q343 46 343 41Q343 33 352 33Q363 33 382 42T436 74Q403 38 371 16T316 -6Q300 -6 300 9Q300 19 304 34L324 114Q292 81 249 53T164 7T97 -10Q77 -10 60 7ZM308 648H352L281 510H265L308 648Z" />
<glyph unicode="&#xfb;" glyph-name="ucircumflex" horiz-adv-x="478" d="M77 -10T60 7T46 38L140 421Q141 424 141 429Q141 437 132 437Q110 437 48 396Q80 431 113 453T168 476Q184 476 184 461Q184 451 180 436L78 22Q144 29 209 63T335 156L411 459Q413 467
419 471T434 476Q442 476 445 472T447 459L344 49Q343 46 343 41Q343 33 352 33Q363 33 382 42T436 74Q403 38 371 16T316 -6Q300 -6 300 9Q300 19 304 34L324 114Q292 81 249 53T164 7T97 -10Q77 -10 60 7ZM305 648H353L437 510L325 608L177 510L305 648Z" />
<glyph unicode="&#xfc;" glyph-name="udieresis" horiz-adv-x="478" d="M77 -10T60 7T46 38L140 421Q141 424 141 429Q141 437 132 437Q110 437 48 396Q80 431 113 453T168 476Q184 476 184 461Q184 451 180 436L78 22Q144 29 209 63T335 156L411 459Q413 467
419 471T434 476Q442 476 445 472T447 459L344 49Q343 46 343 41Q343 33 352 33Q363 33 382 42T436 74Q403 38 371 16T316 -6Q300 -6 300 9Q300 19 304 34L324 114Q292 81 249 53T164 7T97 -10Q77 -10 60 7ZM221 510T212 519T202 543Q202 563 215 575T248 588Q264
588 273 579T282 556Q282 536 269 523T236 510Q221 510 212 519ZM362 510T353 519T343 543Q343 563 356 575T389 588Q405 588 414 579T423 556Q423 536 410 523T377 510Q362 510 353 519Z" />
<glyph unicode="&#xfd;" glyph-name="yacute" horiz-adv-x="491" d="M305 -103V-104Q380 -120 420 -146Q380 -133 299 -125Q267 -238 204 -298T53 -358Q-27 -358 -59 -307Q-68 -289 -68 -266Q-68 -214 -29 -175T73 -115T203 -94Q233 -94 270 -99L325 120Q294 87
250 60T165 16T98 0Q78 0 61 17T47 48L140 421Q141 424 141 429Q141 437 132 437Q110 437 48 396Q81 432 113 454T167 476Q176 476 180 473T184 463Q184 456 179 436L79 32Q145 40 210 72T335 162L410 459Q415 476 432 476Q440 476 444 471T446 459L305 -103ZM126
-329T180 -278T264 -122Q249 -121 221 -121Q142 -121 84 -141T-4 -197T-35 -277Q-35 -299 -28 -311Q-10 -329 44 -329Q126 -329 180 -278ZM314 648H358L287 510H271L314 648Z" />
<glyph unicode="&#xfe;" glyph-name="thorn" horiz-adv-x="504" d="M466 360T466 342Q466 247 426 167T313 38T150 -10Q111 -10 73 -2L-11 -337Q-13 -345 -19 -349T-33 -354Q-41 -354 -45 -349T-47 -337L39 7Q-15 26 -35 55Q6 41 45 33L201 654Q202 657 202 662Q202
670 193 670Q182 670 163 661T109 629Q141 664 174 686T226 709Q237 709 241 706T245 694Q245 684 241 669L162 354Q196 409 251 444T351 480Q414 480 462 396Q466 360 466 342ZM235 20T299 67T398 194T433 366Q433 378 431 404Q418 424 394 437T346 450Q317 450
279 429T205 368T143 279L80 26Q116 20 150 20Q235 20 299 67Z" />
<glyph unicode="&#xff;" glyph-name="ydieresis" horiz-adv-x="491" d="M305 -103V-104Q380 -120 420 -146Q380 -133 299 -125Q267 -238 204 -298T53 -358Q-27 -358 -59 -307Q-68 -289 -68 -266Q-68 -214 -29 -175T73 -115T203 -94Q233 -94 270 -99L325 120Q294
87 250 60T165 16T98 0Q78 0 61 17T47 48L140 421Q141 424 141 429Q141 437 132 437Q110 437 48 396Q81 432 113 454T167 476Q176 476 180 473T184 463Q184 456 179 436L79 32Q145 40 210 72T335 162L410 459Q415 476 432 476Q440 476 444 471T446 459L305 -103ZM126
-329T180 -278T264 -122Q249 -121 221 -121Q142 -121 84 -141T-4 -197T-35 -277Q-35 -299 -28 -311Q-10 -329 44 -329Q126 -329 180 -278ZM227 510T218 519T208 543Q208 563 221 575T254 588Q270 588 279 579T288 556Q288 536 275 523T242 510Q227 510 218 519ZM368
510T359 519T349 543Q349 563 362 575T395 588Q411 588 420 579T429 556Q429 536 416 523T383 510Q368 510 359 519Z" />
<glyph unicode="&#x2013;" glyph-name="endash" horiz-adv-x="521" d="M70 313H490L482 283H62L70 313Z" />
<glyph unicode="&#x2014;" glyph-name="emdash" horiz-adv-x="901" d="M70 313H870L862 283H62L70 313Z" />
<glyph unicode="&#x2018;" glyph-name="quoteleft" horiz-adv-x="213" d="M200 679T194 622Q197 623 203 623Q217 623 226 614T236 590Q236 570 223 557T191 543Q174 543 164 553T154 583Q154 621 178 658T245 720Q200 679 194 622Z" />
<glyph unicode="&#x2019;" glyph-name="quoteright" horiz-adv-x="214" d="M237 720T247 710T257 680Q257 642 233 605T166 543Q211 584 217 641Q214 640 208 640Q194 640 185 649T175 673Q175 693 188 706T220 720Q237 720 247 710Z" />
<glyph unicode="&#x201a;" glyph-name="quotesinglbase" horiz-adv-x="214" d="M75 70T85 60T95 30Q95 -8 71 -45T4 -107Q49 -66 55 -9Q52 -10 46 -10Q32 -10 23 -1T13 23Q13 43 26 56T58 70Q75 70 85 60Z" />
<glyph unicode="&#x201c;" glyph-name="quotedblleft" horiz-adv-x="336" d="M200 679T194 622Q197 623 203 623Q217 623 226 614T236 590Q236 570 223 557T191 543Q174 543 164 553T154 583Q154 621 178 658T245 720Q200 679 194 622ZM323 679T317 622Q320 623
326 623Q340 623 349 614T359 590Q359 570 346 557T314 543Q297 543 287 553T277 583Q277 621 301 658T368 720Q323 679 317 622Z" />
<glyph unicode="&#x201d;" glyph-name="quotedblright" horiz-adv-x="337" d="M237 720T247 710T257 680Q257 642 233 605T166 543Q211 584 217 641Q214 640 208 640Q194 640 185 649T175 673Q175 693 188 706T220 720Q237 720 247 710ZM360 720T370 710T380 680Q380
642 356 605T289 543Q334 584 340 641Q337 640 331 640Q317 640 308 649T298 673Q298 693 311 706T343 720Q360 720 370 710Z" />
<glyph unicode="&#x201e;" glyph-name="quotedblbase" horiz-adv-x="337" d="M75 70T85 60T95 30Q95 -8 71 -45T4 -107Q49 -66 55 -9Q52 -10 46 -10Q32 -10 23 -1T13 23Q13 43 26 56T58 70Q75 70 85 60ZM198 70T208 60T218 30Q218 -8 194 -45T127 -107Q172 -66
178 -9Q175 -10 169 -10Q155 -10 146 -1T136 23Q136 43 149 56T181 70Q198 70 208 60Z" />
<glyph unicode="&#x2022;" glyph-name="bullet" horiz-adv-x="246" d="M97 199T82 213T66 250Q66 280 88 302T140 324Q165 324 179 310T193 271Q193 241 172 220T121 199Q97 199 82 213Z" />
<glyph unicode="&#x2039;" glyph-name="guilsinglleft" horiz-adv-x="267" d="M70 298L232 430H272L114 298L206 166H166L70 298Z" />
<glyph unicode="&#x203a;" glyph-name="guilsinglright" horiz-adv-x="267" d="M27 166L185 298L93 430H133L229 298L67 166H27Z" />
</font>
</defs>
</svg>
