<?xml version="1.0" standalone="no"?>
<!DOCTYPE svg PUBLIC "-//W3C//DTD SVG 1.1//EN" "http://www.w3.org/Graphics/SVG/1.1/DTD/svg11.dtd">
<svg xmlns="http://www.w3.org/2000/svg">
<defs >
<font id="LexendGiga" horiz-adv-x="695" ><font-face
    font-family="Lexend Giga"
    units-per-em="1000"
    panose-1="0 0 0 0 0 0 0 0 0 0"
    ascent="1000"
    descent="-250"
    alphabetic="0" />
<glyph unicode=" " horiz-adv-x="395" />
<glyph unicode="!" horiz-adv-x="411" d="M175 241Q165 300 156 366T141 500T135 630V700H276V630Q276 567 271 498T257 363T235 241H175ZM204 -11Q159 -11 137 9T115 64Q115 94 137 116T204 139Q248 139 270 119T292 64Q292 34 270 12T204 -11Z" />
<glyph unicode="&quot;" horiz-adv-x="527" d="M303 431L321 700H454L374 431H303ZM78 431L95 700H230L149 431H78Z" />
<glyph unicode="#" horiz-adv-x="822" d="M464 0L584 700H680L560 0H464ZM64 165V256H727V165H64ZM159 0L279 700H375L255 0H159ZM102 445V536H764V445H102Z" />
<glyph unicode="$" horiz-adv-x="798" d="M406 -10Q308 -10 230 23T94 126L164 214Q219 149 276 118T411 87Q457 87 497 99T563 135T589 192Q589 214 577 230T544 257T497 277T442 290T387 300Q306 313 248 338T160 406T129 508Q129 554 150 591T209 655T298 696T409
710Q504 710 574 678T685 587L611 510Q576 557 525 585T406 613Q358 613 322 601T264 568T242 516Q242 492 254 474T290 442T347 420T425 404Q483 395 533 381T622 344T681 290T702 212Q702 145 666 95T563 18T406 -10ZM334 -91V363L436 330V-91H334ZM476 330L374
363V782H476V330Z" />
<glyph unicode="%" horiz-adv-x="1018" d="M207 0L681 700H787L307 0H207ZM238 295Q187 295 149 322T89 396T68 501Q68 560 89 607T149 681T239 709Q290 709 328 682T387 607T409 501Q409 444 387 397T326 323T238 295ZM239 379Q263 379 279 395T304 438T313 501Q313
538 305 565T280 609T238 625Q214 625 197 609T171 565T162 501Q162 465 171 438T197 395T239 379ZM770 -13Q719 -13 681 14T621 89T600 193Q600 252 621 299T680 373T770 401Q822 401 860 374T919 299T940 193Q940 136 918 90T858 15T770 -13ZM770 70Q795 70 811
86T836 129T845 193Q845 230 837 257T811 300T770 316Q746 316 729 300T703 256T694 193Q694 157 703 129T729 86T770 70Z" />
<glyph unicode="&amp;" horiz-adv-x="897" d="M674 0L591 92L567 116L377 304Q353 328 325 356T272 415T231 475T215 536Q215 581 242 621T321 686T443 712Q502 712 550 694T632 645T686 575L611 513Q581 567 537 591T445 615Q415 615 391 608T352 584T338 542Q338
523 348 502T375 460T410 421T444 387L651 185L674 156L814 0H674ZM387 -13Q295 -13 231 18T132 99T98 208Q98 281 144 339T283 433L349 359Q278 341 248 307T218 225Q218 188 237 158T296 109T400 91Q442 91 484 105T561 148T620 222T647 329H750Q747 262 725
208T667 112T586 43T490 1T387 -13Z" />
<glyph unicode="&apos;" horiz-adv-x="298" d="M78 431L95 700H219L138 431H78Z" />
<glyph unicode="(" horiz-adv-x="542" d="M413 -186Q249 -108 167 7T85 258Q85 393 167 508T414 702L469 632Q330 558 262 463T193 258Q193 148 261 53T469 -116L413 -186Z" />
<glyph unicode=")" horiz-adv-x="542" d="M128 -186L73 -116Q213 -42 281 53T349 258Q349 368 281 463T73 632L129 702Q294 624 376 509T458 258Q458 123 376 8T128 -186Z" />
<glyph unicode="*" horiz-adv-x="539" d="M229 341L237 469L240 461L131 382L87 454L237 532L219 510L80 582L130 652L252 568L237 563L229 700H315L306 551L295 568L415 650L458 579L319 505L317 531L458 458L409 387L295 464L307 469L315 341H229Z" />
<glyph unicode="+" horiz-adv-x="753" d="M93 235V339H661V235H93ZM318 20V547H434V20H318Z" />
<glyph unicode="," horiz-adv-x="401" d="M136 -192L92 -141Q134 -117 161 -91T188 -44Q188 -29 179 -19T152 5Q132 20 119 34T105 70Q105 101 127 117T182 134Q212 134 238 117T281 71T297 5Q297 -25 284 -54T247 -110T196 -158T136 -192Z" />
<glyph unicode="-" horiz-adv-x="514" d="M93 238V337H421V238H93Z" />
<glyph unicode="." horiz-adv-x="407" d="M204 -11Q159 -11 137 9T115 64Q115 94 137 116T204 139Q248 139 270 119T292 64Q292 34 270 12T204 -11Z" />
<glyph unicode="/" horiz-adv-x="691" d="M70 -132L482 700H600L189 -132H70Z" />
<glyph unicode="0" horiz-adv-x="729" d="M367 -10Q275 -10 210 35T110 162T76 350Q76 457 110 538T209 664T367 710Q458 710 522 665T619 538T653 350Q653 243 620 162T522 36T367 -10ZM367 88Q453 88 500 156T548 350Q548 475 501 543T367 612Q279 612 230 544T180
350Q180 225 229 157T367 88Z" />
<glyph unicode="1" horiz-adv-x="591" d="M269 49V617L308 604L151 519L117 610L300 710H378V49H269ZM136 0V104H498V0H136Z" />
<glyph unicode="2" horiz-adv-x="675" d="M126 0L93 82L322 305Q346 329 371 355T418 407T453 459T466 509Q466 541 453 563T412 598T347 610Q313 610 279 595T216 551T164 478L84 532Q109 586 149 626T242 688T360 710Q426 710 475 686T550 619T577 520Q577 489
567 460T539 401T497 344T446 288T390 231L222 66L205 104H599V0H126Z" />
<glyph unicode="3" horiz-adv-x="661" d="M318 -10Q230 -10 168 29T59 138L143 199Q165 169 191 143T249 101T321 85Q361 85 398 99T460 144T485 219Q485 260 465 286T413 324T345 337Q326 337 308 335T273 327T238 316L204 387L448 631L452 600H98V700H555L575
643L318 384L293 426Q304 430 327 433T369 436Q414 436 453 420T523 376T571 310T589 227Q589 157 553 104T455 20T318 -10Z" />
<glyph unicode="4" horiz-adv-x="708" d="M408 0V613L456 610L149 253L147 289H656V190H98L52 280L418 700H512V0H408Z" />
<glyph unicode="5" horiz-adv-x="675" d="M319 -7Q246 -7 184 24T79 108L137 185Q184 138 229 115T319 92Q367 92 405 109T466 159T488 234Q488 272 466 303T408 352T327 371Q295 371 268 366T216 351T165 329L108 403L149 700H549V600H217L234 619L201 397L180
426Q191 436 218 445T280 461T346 468Q415 468 470 439T559 359T593 238Q593 169 557 114T458 26T319 -7Z" />
<glyph unicode="6" horiz-adv-x="689" d="M345 0Q289 0 241 18T156 69T100 147T79 247Q79 284 89 322T119 400T165 482T224 565L337 712H455L459 702L309 517Q276 473 247 428T199 339T171 260L125 346Q145 377 170 403T227 448T296 478T375 489Q440 489 493 459T579
376T612 260Q612 188 579 129T485 35T345 0ZM345 100Q390 100 427 118T486 169T508 247Q508 282 487 314T430 368T347 389Q297 389 261 370T204 318T183 248Q183 208 203 175T259 121T345 100Z" />
<glyph unicode="7" horiz-adv-x="629" d="M168 0L458 632L470 600H77V700H549L563 631L284 0H168Z" />
<glyph unicode="8" horiz-adv-x="710" d="M355 -3Q279 -3 220 25T126 102T91 207Q91 242 101 269T130 318T173 355T226 385L220 353Q198 362 179 376T146 410T123 454T115 506Q115 560 147 603T233 673T355 700Q422 700 476 674T561 604T593 506Q593 477 585 453T562
409T528 376T489 353L486 381Q516 369 540 351T583 311T610 262T620 207Q620 149 585 101T491 25T355 -3ZM355 97Q400 97 436 111T493 151T514 208Q514 241 493 265T436 304T355 319Q310 319 274 305T217 266T195 208Q195 177 216 152T273 112T355 97ZM355 411Q392
411 422 423T469 458T487 509Q487 535 470 555T423 588T355 600Q316 600 286 588T238 556T221 509Q221 480 238 458T286 424T355 411Z" />
<glyph unicode="9" horiz-adv-x="677" d="M279 0L275 10L521 452L519 375Q497 346 473 322T421 280T364 253T299 243Q237 243 186 273T105 354T75 462Q75 534 110 590T206 679T341 712Q394 712 441 694T523 644T579 570T600 478Q600 449 591 416T566 345T529 265T481
174L387 0H279ZM330 344Q378 344 414 362T470 409T490 474Q490 511 471 542T416 592T332 611Q291 611 257 595T203 548T182 475Q182 442 201 412T253 363T330 344Z" />
<glyph unicode=":" horiz-adv-x="407" d="M204 -11Q159 -11 137 9T115 64Q115 94 137 116T204 139Q248 139 270 119T292 64Q292 34 270 12T204 -11ZM204 386Q159 386 137 406T115 461Q115 491 137 513T204 536Q248 536 270 516T292 461Q292 431 270 409T204 386Z" />
<glyph unicode=";" horiz-adv-x="437" d="M159 -192L115 -141Q157 -117 184 -91T211 -44Q211 -29 202 -19T175 5Q155 20 142 34T128 70Q128 101 150 117T205 134Q235 134 261 117T304 71T320 5Q320 -25 307 -54T270 -110T219 -158T159 -192ZM238 386Q193 386 171
406T149 461Q149 491 171 513T238 536Q282 536 304 516T326 461Q326 431 304 409T238 386Z" />
<glyph unicode="&lt;" horiz-adv-x="661" d="M506 4L72 211V292L506 499L554 418L122 212V291L554 85L506 4Z" />
<glyph unicode="=" horiz-adv-x="723" d="M89 331V430H634V331H89ZM89 134V231H634V134H89Z" />
<glyph unicode="&gt;" horiz-adv-x="661" d="M155 4L107 85L539 291V212L107 418L155 499L589 292V211L155 4Z" />
<glyph unicode="?" horiz-adv-x="689" d="M287 211L261 360Q296 368 328 378T388 401T436 430T468 466T480 508Q480 539 461 560T412 593T346 604Q284 604 235 576T152 499L77 570Q126 634 197 671T355 709Q427 709 483 683T572 613T604 511Q604 476 587 444T540
385T470 336T387 302L370 211H287ZM242 64Q242 94 264 116T331 139Q375 139 397 119T419 64Q419 34 397 12T331 -11Q286 -11 264 9T242 64Z" />
<glyph unicode="@" horiz-adv-x="1144" d="M464 -173Q376 -173 304 -144T178 -63T97 59T68 213Q68 330 114 424T241 584T428 686T654 721Q755 721 833 695T966 621T1048 511T1076 374Q1076 300 1054 242T992 141T901 78T792 56Q752 56 724 71T680 110T664 163Q664
177 667 192T672 223L692 200Q668 156 633 124T556 74T469 56Q420 56 382 77T321 137T299 231Q299 279 318 327T372 416T458 481T569 506Q613 506 646 491T698 448T723 386L693 320L719 490H820L775 229Q770 200 774 181T791 152T823 142Q853 142 881 157T931 202T968
274T982 369Q982 451 943 511T829 603T650 636Q542 636 453 608T299 525T199 393T163 214Q163 144 185 90T247 -4T344 -64T467 -85Q520 -85 557 -79T628 -59T705 -25L742 -100Q692 -123 650 -139T563 -164T464 -173ZM500 149Q539 149 575 166T637 213T674 278Q678
292 680 305T684 331Q686 359 673 379T636 409T579 420Q529 420 491 393T432 325T410 242Q410 199 436 174T500 149Z" />
<glyph unicode="A" horiz-adv-x="864" d="M63 0L373 700H492L801 0H684L482 456Q475 469 467 491T449 537T431 585T416 626L444 627Q436 606 428 583T410 537T392 492T375 452L175 0H63ZM199 168L240 272H613L643 168H199Z" />
<glyph unicode="B" horiz-adv-x="857" d="M145 0V700H487Q566 700 619 680T700 620T727 524Q727 468 693 428T593 371L597 391Q643 381 681 358T741 296T764 206Q764 150 744 111T687 47T605 12T506 0H145ZM253 104H506Q551 104 584 115T635 150T654 208Q654 244
632 266T575 298T501 309H253V104ZM253 413H496Q529 413 557 424T601 457T617 506Q617 552 580 574T484 596H253V413Z" />
<glyph unicode="C" horiz-adv-x="848" d="M466 -10Q387 -10 319 15T200 89T121 203T93 350Q93 426 123 491T205 604T325 679T470 706Q530 706 586 690T688 646T762 587L694 503Q661 533 625 554T549 587T464 599Q413 599 366 581T283 531T225 452T203 350Q203
290 224 243T284 164T372 114T478 97Q527 97 567 109T640 142T700 185L753 96Q727 71 683 47T583 6T466 -10Z" />
<glyph unicode="D" horiz-adv-x="921" d="M145 0V700H464Q551 700 618 674T733 599T804 488T828 350Q828 275 804 211T734 100T619 27T464 0H145ZM253 93L250 104H459Q524 104 572 122T652 173T699 251T715 350Q715 403 700 447T652 525T572 577T459 596H247L253 605V93Z" />
<glyph unicode="E" horiz-adv-x="787" d="M145 0V700H664V596H253V104H664V0H145ZM200 307V411H609V307H200Z" />
<glyph unicode="F" horiz-adv-x="767" d="M145 0V700H253V0H145ZM186 292V396H621V292H186ZM194 596V700H666V596H194Z" />
<glyph unicode="G" horiz-adv-x="943" d="M485 -10Q406 -10 335 15T209 86T124 200T93 350Q93 425 123 490T209 603T337 679T494 706Q560 706 618 690T722 647T795 587L725 511Q692 539 655 559T578 590T494 601Q433 601 381 582T289 529T228 450T206 350Q206
290 229 243T292 162T383 112T492 95Q543 95 588 106T668 139T721 189T739 250L738 266L754 248H492V353H852Q854 340 855 331T856 314T857 301Q857 227 830 169T752 72T635 11T485 -10Z" />
<glyph unicode="H" horiz-adv-x="933" d="M680 0V700H788V0H680ZM145 0V700H253V0H145ZM192 295L193 399H728V295H192Z" />
<glyph unicode="I" horiz-adv-x="689" d="M138 0V104H290V596H138V700H550V596H398V104H550V0H138Z" />
<glyph unicode="J" horiz-adv-x="776" d="M337 -10Q286 -10 246 4T175 41T124 89T92 134L162 208Q182 180 200 159T239 123T283 100T337 92Q386 92 421 114T476 173T496 257V596H343V700H726V596H604V247Q604 195 586 149T534 67T450 11T337 -10Z" />
<glyph unicode="K" horiz-adv-x="922" d="M228 191L225 313L676 700H828L228 191ZM145 0V700H253V0H145ZM682 0L393 370L465 448L822 0H682Z" />
<glyph unicode="L" horiz-adv-x="766" d="M145 0V700H253V104H659V0H145Z" />
<glyph unicode="M" horiz-adv-x="1039" d="M145 0V700H251L542 296L498 297L790 700H894V0H786V293Q786 379 790 451T806 598L818 558L551 201H485L222 557L233 598Q245 526 249 454T253 293V0H145Z" />
<glyph unicode="N" horiz-adv-x="977" d="M145 0V700H248L754 127L744 118Q739 146 736 178T731 245T727 318T725 394T724 470V700H832V0H727L228 552L233 566Q236 529 239 497T244 435T249 380T252 333T253 291V0H145Z" />
<glyph unicode="O" horiz-adv-x="961" d="M480 -10Q396 -10 326 17T203 94T122 208T93 350Q93 426 121 491T202 606T325 682T480 710Q565 710 635 683T758 607T839 492T868 350Q868 274 840 209T759 94T636 17T480 -10ZM481 95Q542 95 592 114T680 168T737 249T758
350Q758 404 738 450T680 531T592 585T481 605Q420 605 369 586T281 532T223 452T203 350Q203 296 223 249T280 168T369 115T481 95Z" />
<glyph unicode="P" horiz-adv-x="813" d="M145 0V700H499Q559 700 608 672T687 594T717 485Q717 423 686 373T603 293T488 262H253V0H145ZM253 366H482Q515 366 543 382T587 426T604 485Q604 516 588 541T543 581T482 596H253V366Z" />
<glyph unicode="Q" horiz-adv-x="961" d="M715 -110L450 237L539 290L801 -54L715 -110ZM480 -10Q396 -10 326 17T203 94T122 208T93 350Q93 426 121 491T202 606T325 682T480 710Q565 710 635 683T758 607T839 492T868 350Q868 274 840 209T759 94T636 17T480
-10ZM481 95Q542 95 592 114T680 168T737 249T758 350Q758 404 738 450T680 531T592 585T481 605Q420 605 369 586T281 532T223 452T203 350Q203 296 223 249T280 168T369 115T481 95Z" />
<glyph unicode="R" horiz-adv-x="872" d="M145 0V700H505Q566 700 617 671T699 593T730 481Q730 421 698 371T612 290T494 260H253V0H145ZM632 0L420 316L533 341L765 -1L632 0ZM253 364H493Q527 364 555 380T600 423T617 482Q617 515 599 540T549 581T480 596H253V364Z" />
<glyph unicode="S" horiz-adv-x="798" d="M406 -10Q339 -10 282 5T178 50T94 126L164 214Q222 145 279 116T411 87Q457 87 497 99T563 135T589 192Q589 214 577 230T544 257T497 277T442 290T387 300Q326 310 278 326T197 368T146 428T129 508Q129 554 150 591T209
655T298 696T409 710Q472 710 524 696T617 655T685 587L611 510Q587 543 555 566T486 601T406 613Q358 613 322 601T264 568T242 516Q242 492 254 474T290 442T347 420T425 404Q483 395 533 381T622 344T681 290T702 212Q702 145 666 95T563 18T406 -10Z" />
<glyph unicode="T" horiz-adv-x="727" d="M307 0V596H71V700H656V596H415V0H307Z" />
<glyph unicode="U" horiz-adv-x="910" d="M455 -6Q360 -6 288 34T175 146T134 306V701H242V312Q242 251 270 203T347 127T455 99Q517 99 566 126T644 202T673 312V701H776V306Q776 217 736 146T623 35T455 -6Z" />
<glyph unicode="V" horiz-adv-x="848" d="M366 0L62 700H185L363 279Q371 258 382 232T405 179T427 126T445 78L416 77Q425 104 438 138T466 208T494 278L659 700H786L485 0H366Z" />
<glyph unicode="W" horiz-adv-x="1153" d="M305 0L62 700H179L322 277Q329 258 335 235T348 187T360 142T370 103L333 104Q345 143 355 174T376 230T396 278L523 579H624L748 279Q760 252 770 224T791 167T807 113L773 106Q778 128 782 145T790 178T800 209T811
243T824 282L975 700H1091L831 0H756L561 456L576 452L383 0H305Z" />
<glyph unicode="X" horiz-adv-x="840" d="M635 0L384 315L67 700H210L452 394L778 0H635ZM62 0L366 381L430 302L197 0H62ZM473 325L411 401L632 700H767L473 325Z" />
<glyph unicode="Y" horiz-adv-x="828" d="M370 0V329L384 264L49 700H190L438 366L414 367L649 700H779L469 274L478 337V0H370Z" />
<glyph unicode="Z" horiz-adv-x="785" d="M82 0V79L546 613L575 595H108V700H694V622L231 87L202 105H705V0H82Z" />
<glyph unicode="[" horiz-adv-x="540" d="M119 -190V700H455V613H217L223 621V-115L213 -103H455V-190H119Z" />
<glyph unicode="\" horiz-adv-x="692" d="M495 -107L97 700H212L612 -107H495Z" />
<glyph unicode="]" horiz-adv-x="540" d="M85 -190V-103H322L316 -111V625L326 613H85V700H420V-190H85Z" />
<glyph unicode="^" horiz-adv-x="735" d="M63 368L313 727H422L673 368H549L354 644L383 647L185 368H63Z" />
<glyph unicode="_" horiz-adv-x="810" d="M93 -160V-74H717V-160H93Z" />
<glyph unicode="`" horiz-adv-x="500" d="M320 606L146 700L211 782L354 657L320 606Z" />
<glyph unicode="a" horiz-adv-x="830" d="M362 -10Q281 -10 218 25T120 123T84 263Q84 343 121 404T222 501T370 536Q420 536 463 523T538 489T589 441T609 387L582 389V525H686V0H582V136L604 135Q602 110 582 85T528 38T452 3T362 -10ZM387 85Q446 85 491 108T561
172T586 263Q586 314 561 354T491 417T387 440Q329 440 285 417T215 354T189 263Q189 213 214 173T284 109T387 85Z" />
<glyph unicode="b" horiz-adv-x="836" d="M459 -10Q415 -10 374 2T301 35T248 78T221 123L258 131V3H155V740H258V405L231 408Q236 430 256 452T307 493T378 524T461 536Q542 536 606 501T708 405T746 264Q746 185 709 123T607 26T459 -10ZM447 85Q505 85 550
108T620 172T646 264Q646 315 621 355T551 418T447 441Q389 441 344 418T273 355T247 264Q247 213 273 173T344 109T447 85Z" />
<glyph unicode="c" horiz-adv-x="728" d="M385 -10Q301 -10 235 26T129 124T90 263Q90 341 129 402T234 500T385 536Q467 536 536 509T644 432L587 354Q565 379 532 399T462 431T389 443Q332 443 288 420T219 356T194 263Q194 211 220 171T291 107T390 83Q432
83 467 93T533 121T588 159L644 83Q599 45 532 18T385 -10Z" />
<glyph unicode="d" horiz-adv-x="819" d="M370 -10Q285 -10 221 25T121 122T85 263Q85 343 122 404T224 501T372 536Q422 536 466 523T543 488T595 441T614 391L584 389V740H687V0H584V136L604 132Q604 108 585 84T533 38T458 3T370 -10ZM389 82Q448 82 493 106T563
171T588 263Q588 314 563 355T493 419T389 443Q331 443 286 420T216 355T190 263Q190 212 215 171T286 106T389 82Z" />
<glyph unicode="e" horiz-adv-x="779" d="M407 -10Q313 -10 240 24T126 119T85 257Q85 321 109 372T176 460T276 517T398 537Q457 537 509 518T600 465T660 385T680 282L679 232H172L149 314H590L575 303V327Q571 361 545 387T481 427T398 442Q336 442 288 424T214
366T187 264Q187 210 216 170T299 107T422 85Q485 85 529 102T609 146L657 70Q630 48 590 30T502 1T407 -10Z" />
<glyph unicode="f" horiz-adv-x="582" d="M207 0V550Q207 605 231 648T298 715T397 739Q441 739 474 726T524 695L489 610Q474 623 452 633T409 643Q372 643 349 631T316 597T306 550V0H257Q246 0 234 0T207 0ZM101 415V510H491V415H101Z" />
<glyph unicode="g" horiz-adv-x="846" d="M415 -230Q339 -230 279 -212T181 -167L218 -84Q239 -96 269 -108T336 -129T415 -138Q471 -138 512 -117T576 -56T599 42V121L610 114Q605 85 571 56T485 9T375 -10Q292 -10 228 25T127 122T90 263Q90 343 128 404T232
501T383 536Q409 536 440 530T503 511T560 482T603 448T621 410L599 402V525H702V54Q702 -16 680 -69T619 -158T527 -212T415 -230ZM403 85Q462 85 507 108T578 171T603 263Q603 315 578 355T508 418T403 442Q343 442 296 419T222 355T195 263Q195 213 222 173T296
109T403 85Z" />
<glyph unicode="h" horiz-adv-x="830" d="M155 0V740H258V395L229 388Q240 425 274 458T358 514T463 536Q535 536 582 509T653 431T677 314V0H574V302Q574 346 556 378T505 426T429 443Q392 443 361 430T306 395T271 348T258 296V0H207Q187 0 174 0T155 0Z" />
<glyph unicode="i" horiz-adv-x="424" d="M162 0V525H265V0H162ZM212 647Q179 647 161 664T143 712Q143 741 161 759T212 777Q245 777 263 760T281 712Q281 683 263 665T212 647Z" />
<glyph unicode="j" horiz-adv-x="452" d="M76 -197L37 -111Q92 -111 128 -89T181 -26T198 74V525H301V49Q301 -26 272 -81T192 -166T76 -197ZM252 647Q219 647 201 664T183 712Q183 741 201 759T252 777Q285 777 303 760T321 712Q321 683 303 665T252 647Z" />
<glyph unicode="k" horiz-adv-x="782" d="M239 147L244 259L561 525H703L239 147ZM155 0V740H252V0H155ZM576 0L336 265L406 332L708 0H576Z" />
<glyph unicode="l" horiz-adv-x="403" d="M150 0V740H253V0H150Z" />
<glyph unicode="m" horiz-adv-x="1203" d="M143 0V525H247V391L217 390Q225 414 245 439T298 485T369 520T455 534Q506 534 547 518T613 467T646 382L619 388L626 405Q638 426 660 448T714 490T781 521T858 534Q932 534 977 506T1042 428T1062 309V0H958V298Q958
342 945 373T905 422T834 439Q796 439 763 427T705 393T667 343T653 280V0H549V300Q549 342 535 373T490 422T412 439Q377 439 347 426T294 392T259 345T247 294V0H143Z" />
<glyph unicode="n" horiz-adv-x="830" d="M155 0V525H258V395L229 388Q246 425 279 458T358 514T458 536Q531 536 579 509T652 431T677 314V0H574V302Q574 346 556 377T505 425T429 441Q392 441 361 428T306 394T271 348T258 296V0H207Q187 0 174 0T155 0Z" />
<glyph unicode="o" horiz-adv-x="805" d="M403 -10Q312 -10 242 25T131 122T90 263Q90 343 130 404T241 501T403 536Q494 536 564 501T674 405T715 263Q715 184 675 122T564 25T403 -10ZM403 84Q462 84 509 107T584 170T610 263Q612 316 585 356T510 419T403 442Q344
442 297 419T222 356T195 263Q194 211 221 171T296 107T403 84Z" />
<glyph unicode="p" horiz-adv-x="843" d="M155 -220V526H259V405L243 414Q250 442 283 469T364 515T468 534Q553 534 616 500T716 404T752 263Q752 184 716 123T617 26T471 -9Q412 -9 361 10T275 59T233 117L259 131V-220H155ZM454 86Q512 86 557 109T627 173T653
263Q653 313 628 353T558 416T454 439Q396 439 351 416T280 353T254 263Q254 213 279 173T350 110T454 86Z" />
<glyph unicode="q" horiz-adv-x="825" d="M582 -226V136L602 132Q602 108 583 84T530 38T456 3T369 -10Q284 -10 220 25T121 122T85 263Q85 343 121 404T223 501T371 536Q420 536 464 523T541 488T593 441T612 391L582 389V525H685V-226H582ZM387 85Q445 85 490
108T560 172T586 263Q586 314 561 354T490 417T387 441Q328 441 283 418T213 354T187 263Q187 213 212 173T283 109T387 85Z" />
<glyph unicode="r" horiz-adv-x="615" d="M155 0V525H259V345L238 366Q251 413 283 451T358 513T447 536Q475 536 501 530T543 515L516 406Q498 416 474 421T427 427Q390 427 360 414T307 379T272 330T259 273V0H155Z" />
<glyph unicode="s" horiz-adv-x="657" d="M343 -10Q262 -10 196 13T85 87L155 149Q190 113 236 95T340 76Q362 76 385 79T427 90T458 111T470 142Q470 172 430 188Q410 195 382 202T318 217Q258 230 213 245T140 284Q119 303 108 327T97 384Q97 419 115 446T164
494T238 525T329 536Q372 536 416 527T501 499T568 452L512 384Q488 403 457 418T394 442T332 451Q308 451 285 448T243 438T212 418T200 388Q201 376 207 366T226 347Q244 335 276 326T351 308Q404 298 448 284T521 249Q546 232 558 209T571 154Q571 103 541 66T458
10T343 -10Z" />
<glyph unicode="t" horiz-adv-x="588" d="M225 0V676H328V0H225ZM82 425V525H495V425H82Z" />
<glyph unicode="u" horiz-adv-x="816" d="M356 -10Q292 -10 245 19T171 104T144 235V525H247V268Q247 210 263 170T313 108T398 87Q433 87 464 98T518 131T555 182T569 248V525H672V0H569V110L587 122Q574 89 542 59T463 9T356 -10Z" />
<glyph unicode="v" horiz-adv-x="739" d="M322 0L57 525H174L379 103L354 94L570 525H681L407 0H322Z" />
<glyph unicode="w" horiz-adv-x="938" d="M244 0L57 525L167 526L296 122L273 124L424 442H500L653 123L632 121L776 525H880L683 0H612L437 372L488 377L314 0H244Z" />
<glyph unicode="x" horiz-adv-x="803" d="M572 0L367 228L349 248L102 525H246L432 304L449 284L712 0H572ZM92 0L332 276L399 209L227 0H92ZM455 251L396 323L564 525H700L455 251Z" />
<glyph unicode="y" horiz-adv-x="784" d="M240 -230L366 14V-65L64 525H184L343 194Q366 152 383 114T407 46L388 43Q400 73 416 112T455 198L599 525H720L459 -3L350 -230H240Z" />
<glyph unicode="z" horiz-adv-x="621" d="M78 0V86L423 448L433 438H78V525H539V441L197 84L184 87H545V0H78Z" />
<glyph unicode="{" horiz-adv-x="605" d="M507 -200Q453 -192 410 -178T336 -141T288 -86T271 -7L272 88Q273 145 240 175T146 206H103V290H148Q209 291 241 324T272 412L271 507Q271 588 325 633T507 700L525 623Q477 612 443 597T391 555T374 485L376 398Q377
339 345 301T253 249L252 252Q312 236 344 199T376 102L374 15Q373 -28 390 -54T441 -94T525 -123L507 -200Z" />
<glyph unicode="|" horiz-adv-x="380" d="M136 -193V740H244V-193H136Z" />
<glyph unicode="}" horiz-adv-x="605" d="M99 -200L81 -123Q128 -112 162 -97T214 -55T232 15L230 102Q229 161 261 199T352 251L353 248Q293 264 261 301T230 398L232 485Q232 529 215 554T165 595T81 623L99 700Q152 692 195 678T269 641T317 586T334 507L333
412Q332 355 365 325T459 294H502V210H457Q396 209 364 176T333 88L334 -7Q335 -88 281 -133T99 -200Z" />
<glyph unicode="~" horiz-adv-x="694" d="M468 254Q449 254 425 260T376 277T330 296Q311 304 291 311T253 324T223 329Q199 329 181 312T164 265L79 262Q79 334 117 376T226 419Q243 419 261 416T297 406T333 394T366 380Q386 373 406 365T444 351T476 345Q502
345 516 363T530 411H615Q615 367 599 332T550 275T468 254Z" />
<glyph unicode="&#xa0;" horiz-adv-x="395" />
<glyph unicode="&#xa1;" horiz-adv-x="411" d="M232 289Q243 231 252 165T267 30T273 -100V-170H131V-100Q131 -36 136 32T150 167T172 289H232ZM204 541Q248 541 270 521T292 466Q292 436 270 414T204 391Q159 391 137 411T115 466Q115 496 137 518T204 541Z" />
<glyph unicode="&#xa2;" horiz-adv-x="728" d="M385 78Q301 78 235 114T129 212T90 351Q90 429 129 490T234 588T385 624Q467 624 536 597T644 520L587 442Q565 467 532 487T462 519T389 531Q332 531 288 508T219 444T194 351Q194 299 220 259T291 195T390 171Q432
171 467 181T533 209T588 247L644 171Q599 133 532 106T385 78ZM331 0V108L338 145V563L331 606V700H439V605L432 572V141L439 107V0H331Z" />
<glyph unicode="&#xa3;" horiz-adv-x="795" d="M257 53L172 74Q186 81 198 99T217 144T225 201Q225 218 223 235T217 270T207 308T193 351Q184 381 178 404T168 447T164 487Q164 553 196 603T288 682T430 710Q516 710 574 683T658 614L584 549Q564 569 541 582T490
602T430 609Q379 609 345 593T293 550T276 486Q276 456 285 421T306 354Q317 321 327 287T337 224Q337 190 326 160T297 103T257 53ZM554 -21Q524 -21 483 -11T406 8Q382 15 356 21T307 32T264 37Q227 37 189 24T120 -6L80 74Q118 103 167 118T272 134Q310 134
346 126T427 103Q459 93 492 85T554 76Q586 76 614 90T667 122L719 48Q688 15 645 -3T554 -21ZM94 313V408H581V313H94Z" />
<glyph unicode="&#xa4;" horiz-adv-x="707" d="M357 116Q307 116 265 141T199 208T174 302Q174 353 198 395T265 462T357 488Q408 488 449 463T516 395T541 302Q541 251 516 209T450 141T357 116ZM207 82L136 152L228 250L299 179L207 82ZM226 359L128 451L198
521L296 429L226 359ZM358 210Q383 210 401 222T430 255T440 302Q440 328 430 349T402 382T358 395Q333 395 315 383T286 349T275 302Q275 276 285 255T314 222T358 210ZM506 90L408 182L478 252L576 160L506 90ZM485 362L415 432L507 530L578 460L485 362Z" />
<glyph unicode="&#xa5;" horiz-adv-x="828" d="M370 0V329L384 264L49 700H190L438 366L414 367L649 700H779L469 274L478 337V0H370ZM208 82V176L664 174V80L208 82ZM208 230V324L664 322V228L208 230Z" />
<glyph unicode="&#xa6;" horiz-adv-x="383" d="M138 -202V198H246V-202H138ZM138 341V740H246V341H138Z" />
<glyph unicode="&#xa7;" horiz-adv-x="715" d="M443 121L411 184Q447 184 471 193T508 219T521 259Q521 291 497 307T435 332L273 366Q241 372 212 385T159 420T123 472T109 540Q109 577 123 608T168 663T241 698T343 711Q392 711 440 701T530 671T603 621L541
540Q515 563 481 578T411 602T340 610Q288 610 253 594T218 542Q218 527 226 514T254 489T312 470L458 441Q544 423 584 382T624 273Q623 230 602 197T541 144T443 121ZM373 -153Q323 -153 272 -142T175 -110T96 -60L150 25Q198 -12 256 -33T378 -54Q430 -54 464
-39T499 13Q499 28 491 40T462 63T407 81L250 114Q167 132 128 173T88 281Q88 321 107 355T165 411T262 435L293 368Q263 369 241 360T207 335T195 294Q195 263 220 245T287 217L434 188Q488 177 527 155T587 100T608 21Q608 -30 582 -69T503 -131T373 -153Z" />
<glyph unicode="&#xa8;" horiz-adv-x="500" d="M350 648Q317 648 299 665T281 713Q281 742 299 760T350 778Q383 778 401 761T419 713Q419 684 401 666T350 648ZM150 648Q117 648 99 665T81 713Q81 742 99 760T150 778Q183 778 201 761T219 713Q219 684 201 666T150 648Z" />
<glyph unicode="&#xa9;" horiz-adv-x="891" d="M446 -13Q371 -13 305 15T189 93T111 208T83 350Q83 426 111 491T189 607T305 685T446 713Q520 713 585 685T701 607T780 492T808 350Q808 274 780 209T702 93T586 15T446 -13ZM464 142Q406 142 357 168T279 241T250
350Q250 406 278 453T355 528T464 557Q498 557 531 545T593 512L556 437Q540 449 525 457T494 471T464 476Q427 476 398 459T353 414T336 350Q336 312 353 283T399 239T464 223Q488 223 512 233T560 261L597 185Q566 163 532 153T464 142ZM446 67Q504 67 555 88T646
148T707 238T729 350Q729 410 707 461T646 551T556 611T446 633Q387 633 336 612T246 552T185 462T163 350Q163 290 185 239T245 149T335 89T446 67Z" />
<glyph unicode="&#xaa;" horiz-adv-x="452" d="M191 391Q150 391 121 413T78 475T63 562Q63 607 80 643T129 700T203 721Q250 721 277 689T305 592L290 648V715H383V401H290V474L305 512Q305 485 290 457T250 410T191 391ZM220 458Q241 458 257 469T284 503T294
555Q294 601 274 627T219 654Q202 654 188 642T165 609T156 562Q156 532 163 509T184 472T220 458Z" />
<glyph unicode="&#xab;" horiz-adv-x="706" d="M536 50L338 257V259L535 471L604 420L451 249L452 272L605 101L536 50ZM264 50L66 257V259L263 471L332 420L179 249L180 272L333 101L264 50Z" />
<glyph unicode="&#xac;" horiz-adv-x="832" d="M627 117V319L646 293H89V404H743V117H627Z" />
<glyph unicode="&#xad;" horiz-adv-x="514" d="M93 238V337H421V238H93Z" />
<glyph unicode="&#xae;" horiz-adv-x="609" d="M307 259Q244 259 192 289T108 370T77 484Q77 531 95 571T144 643T217 691T307 709Q354 709 395 692T468 643T518 572T536 484Q536 437 518 396T469 325T396 277T307 259ZM307 322Q353 322 390 343T450 402T473 484Q473
530 451 566T391 625T307 647Q260 647 223 625T162 567T139 484Q139 439 162 402T223 344T307 322ZM340 367L303 467L356 481L400 367H340ZM220 367V606H330Q362 606 383 587T404 534Q404 499 381 480T330 461H259L277 470V367H220ZM277 495L261 502H310Q327 502
338 509T349 529Q349 543 339 549T312 556H258L277 564V495Z" />
<glyph unicode="&#xaf;" horiz-adv-x="446" d="M102 642V717H398V642H102Z" />
<glyph unicode="&#xb0;" horiz-adv-x="532" d="M266 399Q221 399 186 420T130 476T110 553Q110 596 130 631T185 688T266 709Q311 709 346 688T402 632T422 554Q422 512 402 477T347 420T266 399ZM266 466Q289 466 307 478T336 511T347 554Q347 578 337 597T308
629T266 641Q242 641 224 629T196 597T185 553Q185 529 195 510T224 478T266 466Z" />
<glyph unicode="&#xb1;" horiz-adv-x="700" d="M89 285V375H610V285H89ZM89 -1V91H610V-1H89ZM298 143V534H402V143H298Z" />
<glyph unicode="&#xb2;" horiz-adv-x="346" d="M65 418L56 489L156 589Q165 597 177 610T199 638T209 670Q209 687 200 697T174 707Q156 707 136 695T95 655L42 693Q55 716 76 735T124 767T183 779Q218 779 242 766T280 729T293 678Q293 652 278 627T243 580T205
541L138 476L142 485H296V418H65Z" />
<glyph unicode="&#xb3;" horiz-adv-x="342" d="M165 412Q146 412 126 416T88 428T57 446L90 501Q111 488 127 483T159 478Q185 478 203 491T222 532Q222 553 206 565T165 577Q151 577 137 574T109 565L88 622L190 710L209 704H79V772H265L272 706L173 624L160
631Q164 633 172 635T186 638Q239 638 268 609T297 533Q297 496 279 469T230 427T165 412Z" />
<glyph unicode="&#xb4;" horiz-adv-x="500" d="M180 606L146 657L289 782L354 700L180 606Z" />
<glyph unicode="&#xb5;" horiz-adv-x="760" d="M120 -157L119 525H227V231Q227 188 241 156T285 107T362 89Q400 89 432 101T487 133T524 181T537 239V525H645V0H537V104L559 126Q543 86 514 56T442 8T347 -10Q325 -10 299 -3T252 17T220 49L227 62V-157H120Z" />
<glyph unicode="&#xb6;" horiz-adv-x="893" d="M330 0V314L354 279H320Q248 279 197 305T120 378T93 486Q93 552 123 600T212 674T357 700H748V0H629V660L645 588H394L449 652V0H330Z" />
<glyph unicode="&#xb7;" horiz-adv-x="407" d="M204 253Q159 253 137 273T115 328Q115 358 137 380T204 403Q248 403 270 383T292 328Q292 298 270 276T204 253Z" />
<glyph unicode="&#xb8;" horiz-adv-x="500" d="M159 -244L152 -194Q179 -193 206 -187T251 -169T269 -142Q269 -127 252 -118T212 -105T174 -100L163 -84L233 24H292L249 -46Q293 -55 321 -77T349 -139Q349 -166 331 -186T285 -219T224 -239T159 -244Z" />
<glyph unicode="&#xb9;" horiz-adv-x="281" d="M126 429V703L132 685L82 653L47 719L145 777H201V429H164Q156 429 147 429T126 429Z" />
<glyph unicode="&#xba;" horiz-adv-x="466" d="M232 392Q188 392 153 412T97 469T76 549Q76 595 96 631T152 688T232 710Q277 710 312 689T369 631T390 549Q390 505 369 469T313 413T232 392ZM232 463Q253 463 268 474T292 505T301 549Q301 575 293 595T269 627T232
639Q211 639 196 628T173 596T164 549Q164 525 172 506T196 475T232 463Z" />
<glyph unicode="&#xbb;" horiz-adv-x="696" d="M432 50L364 101L516 272L515 249L363 420L431 471L629 264V262L432 50ZM171 50L103 101L255 272L254 249L102 420L170 471L368 264V262L171 50Z" />
<glyph unicode="&#xbc;" horiz-adv-x="949" d="M159 359V633L165 615L115 583L80 649L178 707H234V359H197Q189 359 180 359T159 359ZM181 0L660 700H760L280 0H181ZM820 149H897V81H820V149ZM654 115L638 149H794L761 129V284L790 273L654 115ZM836 -2H761V98L792
81H619L602 150L770 356H836V-2Z" />
<glyph unicode="&#xbd;" horiz-adv-x="960" d="M159 359V633L165 615L115 583L80 649L178 707H234V359H197Q189 359 180 359T159 359ZM166 0L645 700H745L265 0H166ZM659 0L650 71L750 171Q759 179 771 192T793 220T803 252Q803 269 794 279T768 289Q750 289 730
277T689 237L636 275Q649 298 670 317T718 349T777 361Q812 361 836 348T874 311T887 260Q887 234 872 209T837 162T799 123L732 58L736 67H890V0H659Z" />
<glyph unicode="&#xbe;" horiz-adv-x="966" d="M167 342Q148 342 128 346T90 358T59 376L92 431Q113 418 129 413T161 408Q187 408 205 421T224 462Q224 483 208 495T167 507Q153 507 139 504T111 495L90 552L192 640L211 634H81V702H267L274 636L175 554L162
561Q166 563 174 565T188 568Q241 568 270 539T299 463Q299 426 281 399T232 357T167 342ZM190 0L669 700H769L289 0H190ZM837 149H914V81H837V149ZM671 115L655 149H811L778 129V284L807 273L671 115ZM853 -2H778V98L809 81H636L619 150L787 356H853V-2Z" />
<glyph unicode="&#xbf;" horiz-adv-x="689" d="M394 323L420 174Q385 166 353 156T293 133T245 104T213 68T201 26Q201 -5 220 -26T269 -59T335 -70Q397 -70 446 -42T529 35L604 -36Q555 -100 484 -137T326 -175Q254 -175 198 -149T109 -78T77 23Q77 58 94 90T141
149T211 198T294 232L311 323H394ZM439 470Q439 440 417 418T351 395Q306 395 284 415T262 470Q262 500 284 522T351 545Q395 545 417 525T439 470Z" />
<glyph unicode="&#xc0;" horiz-adv-x="864" d="M63 0L373 700H492L801 0H684L482 456Q475 469 467 491T449 537T431 585T416 626L444 627Q436 606 428 583T410 537T392 492T375 452L175 0H63ZM199 168L240 272H613L643 168H199ZM513 755L311 830L360 920L543 807L513
755Z" />
<glyph unicode="&#xc1;" horiz-adv-x="864" d="M63 0L373 700H492L801 0H684L482 456Q475 469 467 491T449 537T431 585T416 626L444 627Q436 606 428 583T410 537T392 492T375 452L175 0H63ZM199 168L240 272H613L643 168H199ZM358 755L330 807L513 920L560 830L358
755Z" />
<glyph unicode="&#xc2;" horiz-adv-x="864" d="M63 0L373 700H492L801 0H684L482 456Q475 469 467 491T449 537T431 585T416 626L444 627Q436 606 428 583T410 537T392 492T375 452L175 0H63ZM199 168L240 272H613L643 168H199ZM308 755L271 790L395 891H468L592
790L555 755L417 820H446L308 755Z" />
<glyph unicode="&#xc3;" horiz-adv-x="864" d="M63 0L373 700H492L801 0H684L482 456Q475 469 467 491T449 537T431 585T416 626L444 627Q436 606 428 583T410 537T392 492T375 452L175 0H63ZM199 168L240 272H613L643 168H199ZM506 768Q483 768 460 775T415 791Q398
798 386 802T364 806Q351 806 343 796T334 768H257Q257 822 292 851T371 881Q392 881 412 874T451 859Q465 853 478 849T501 845Q515 845 523 855T530 881H606Q606 852 594 826T560 784T506 768Z" />
<glyph unicode="&#xc4;" horiz-adv-x="864" d="M63 0L373 700H492L801 0H684L482 456Q475 469 467 491T449 537T431 585T416 626L444 627Q436 606 428 583T410 537T392 492T375 452L175 0H63ZM199 168L240 272H613L643 168H199ZM535 759Q500 759 483 777T466 824Q466
849 483 869T535 889Q570 889 587 871T604 824Q604 799 587 779T535 759ZM329 759Q294 759 277 777T260 824Q260 849 277 869T329 889Q364 889 381 871T398 824Q398 799 381 779T329 759Z" />
<glyph unicode="&#xc5;" horiz-adv-x="864" d="M63 0L373 700H492L801 0H684L482 456Q475 469 467 491T449 537T431 585T416 626L444 627Q436 606 428 583T410 537T392 492T375 452L175 0H63ZM199 168L240 272H613L643 168H199ZM431 724Q403 724 378 738T338 777T322
829Q322 859 337 883T378 921T431 935Q460 935 485 921T525 883T541 829Q541 801 526 777T485 739T431 724ZM431 783Q452 783 466 796T481 829Q481 852 466 864T431 876Q411 876 397 863T382 829Q382 810 396 797T431 783Z" />
<glyph unicode="&#xc6;" horiz-adv-x="1222" d="M54 0L620 700H1100V601H697V399H1055V300H697V99H1100V0H592V153H280L360 252H592V568L620 557L174 0H54Z" />
<glyph unicode="&#xc7;" horiz-adv-x="848" d="M466 -10Q387 -10 319 15T200 89T121 203T93 350Q93 426 123 491T205 604T325 679T470 706Q530 706 586 690T688 646T762 587L694 503Q661 533 625 554T549 587T464 599Q413 599 366 581T283 531T225 452T203 350Q203
290 224 243T284 164T372 114T478 97Q527 97 567 109T640 142T700 185L753 96Q727 71 683 47T583 6T466 -10ZM368 -244L361 -194Q388 -193 415 -187T460 -169T478 -142Q478 -127 461 -118T421 -105T383 -100L371 -84L442 24H501L458 -46Q501 -55 529 -77T558 -139Q558
-166 541 -186T495 -219T433 -239T368 -244Z" />
<glyph unicode="&#xc8;" horiz-adv-x="787" d="M145 0V700H664V596H253V104H664V0H145ZM200 307V411H609V307H200ZM495 755L293 830L342 920L525 807L495 755Z" />
<glyph unicode="&#xc9;" horiz-adv-x="787" d="M145 0V700H664V596H253V104H664V0H145ZM200 307V411H609V307H200ZM340 755L312 807L495 920L542 830L340 755Z" />
<glyph unicode="&#xca;" horiz-adv-x="787" d="M145 0V700H664V596H253V104H664V0H145ZM200 307V411H609V307H200ZM289 755L252 790L376 891H449L573 790L536 755L398 820H427L289 755Z" />
<glyph unicode="&#xcb;" horiz-adv-x="787" d="M145 0V700H664V596H253V104H664V0H145ZM200 307V411H609V307H200ZM516 759Q481 759 464 777T447 824Q447 849 464 869T516 889Q551 889 568 871T585 824Q585 799 568 779T516 759ZM310 759Q275 759 258 777T241
824Q241 849 258 869T310 889Q345 889 362 871T379 824Q379 799 362 779T310 759Z" />
<glyph unicode="&#xcc;" horiz-adv-x="689" d="M138 0V104H290V596H138V700H550V596H398V104H550V0H138ZM426 755L224 830L273 920L456 807L426 755Z" />
<glyph unicode="&#xcd;" horiz-adv-x="689" d="M138 0V104H290V596H138V700H550V596H398V104H550V0H138ZM271 755L243 807L426 920L473 830L271 755Z" />
<glyph unicode="&#xce;" horiz-adv-x="689" d="M138 0V104H290V596H138V700H550V596H398V104H550V0H138ZM220 755L183 790L307 891H380L504 790L467 755L329 820H358L220 755Z" />
<glyph unicode="&#xcf;" horiz-adv-x="689" d="M138 0V104H290V596H138V700H550V596H398V104H550V0H138ZM447 759Q412 759 395 777T378 824Q378 849 395 869T447 889Q482 889 499 871T516 824Q516 799 499 779T447 759ZM241 759Q206 759 189 777T172 824Q172 849
189 869T241 889Q276 889 293 871T310 824Q310 799 293 779T241 759Z" />
<glyph unicode="&#xd0;" horiz-adv-x="921" d="M77 306V394H423V306H77ZM145 0V700H464Q551 700 618 674T733 599T804 488T828 350Q828 275 804 211T734 100T619 27T464 0H145ZM253 93L250 104H459Q524 104 572 122T652 173T699 251T715 350Q715 403 700 447T652
525T572 577T459 596H247L253 605V93Z" />
<glyph unicode="&#xd1;" horiz-adv-x="977" d="M145 0V700H248L754 127L744 118Q739 146 736 178T731 245T727 318T725 394T724 470V700H832V0H727L228 552L233 566Q236 529 239 497T244 435T249 380T252 333T253 291V0H145ZM563 768Q540 768 517 775T472 791Q455
798 443 802T421 806Q408 806 400 796T391 768H314Q314 822 349 851T428 881Q449 881 469 874T508 859Q522 853 535 849T558 845Q572 845 580 855T587 881H663Q663 852 651 826T617 784T563 768Z" />
<glyph unicode="&#xd2;" horiz-adv-x="961" d="M480 -10Q396 -10 326 17T203 94T122 208T93 350Q93 426 121 491T202 606T325 682T480 710Q565 710 635 683T758 607T839 492T868 350Q868 274 840 209T759 94T636 17T480 -10ZM481 95Q542 95 592 114T680 168T737
249T758 350Q758 404 738 450T680 531T592 585T481 605Q420 605 369 586T281 532T223 452T203 350Q203 296 223 249T280 168T369 115T481 95ZM562 755L360 830L409 920L592 807L562 755Z" />
<glyph unicode="&#xd3;" horiz-adv-x="961" d="M480 -10Q396 -10 326 17T203 94T122 208T93 350Q93 426 121 491T202 606T325 682T480 710Q565 710 635 683T758 607T839 492T868 350Q868 274 840 209T759 94T636 17T480 -10ZM481 95Q542 95 592 114T680 168T737
249T758 350Q758 404 738 450T680 531T592 585T481 605Q420 605 369 586T281 532T223 452T203 350Q203 296 223 249T280 168T369 115T481 95ZM407 755L379 807L562 920L609 830L407 755Z" />
<glyph unicode="&#xd4;" horiz-adv-x="961" d="M480 -10Q396 -10 326 17T203 94T122 208T93 350Q93 426 121 491T202 606T325 682T480 710Q565 710 635 683T758 607T839 492T868 350Q868 274 840 209T759 94T636 17T480 -10ZM481 95Q542 95 592 114T680 168T737
249T758 350Q758 404 738 450T680 531T592 585T481 605Q420 605 369 586T281 532T223 452T203 350Q203 296 223 249T280 168T369 115T481 95ZM357 755L320 790L444 891H517L641 790L604 755L466 820H495L357 755Z" />
<glyph unicode="&#xd5;" horiz-adv-x="961" d="M480 -10Q396 -10 326 17T203 94T122 208T93 350Q93 426 121 491T202 606T325 682T480 710Q565 710 635 683T758 607T839 492T868 350Q868 274 840 209T759 94T636 17T480 -10ZM481 95Q542 95 592 114T680 168T737
249T758 350Q758 404 738 450T680 531T592 585T481 605Q420 605 369 586T281 532T223 452T203 350Q203 296 223 249T280 168T369 115T481 95ZM555 768Q532 768 509 775T464 791Q447 798 435 802T413 806Q400 806 392 796T383 768H306Q306 822 341 851T420 881Q441
881 461 874T500 859Q514 853 527 849T550 845Q564 845 572 855T579 881H655Q655 852 643 826T609 784T555 768Z" />
<glyph unicode="&#xd6;" horiz-adv-x="961" d="M480 -10Q396 -10 326 17T203 94T122 208T93 350Q93 426 121 491T202 606T325 682T480 710Q565 710 635 683T758 607T839 492T868 350Q868 274 840 209T759 94T636 17T480 -10ZM481 95Q542 95 592 114T680 168T737
249T758 350Q758 404 738 450T680 531T592 585T481 605Q420 605 369 586T281 532T223 452T203 350Q203 296 223 249T280 168T369 115T481 95ZM584 759Q549 759 532 777T515 824Q515 849 532 869T584 889Q619 889 636 871T653 824Q653 799 636 779T584 759ZM378
759Q343 759 326 777T309 824Q309 849 326 869T378 889Q413 889 430 871T447 824Q447 799 430 779T378 759Z" />
<glyph unicode="&#xd7;" horiz-adv-x="641" d="M489 38L83 441L159 513L565 109L489 38ZM159 35L91 110L486 507L556 434L159 35Z" />
<glyph unicode="&#xd8;" horiz-adv-x="972" d="M159 -34L98 31L810 739L877 680L159 -34ZM488 -10Q403 -10 333 17T210 94T129 208T100 350Q100 426 128 491T209 606T332 682T488 710Q572 710 642 683T765 607T847 492T876 350Q876 274 847 209T766 94T643 17T488
-10ZM488 95Q549 95 599 114T687 168T745 249T766 350Q766 404 746 450T688 531T600 585T488 605Q427 605 376 586T288 532T230 452T210 350Q210 296 230 249T287 168T376 115T488 95Z" />
<glyph unicode="&#xd9;" horiz-adv-x="910" d="M455 -6Q360 -6 288 34T175 146T134 306V701H242V312Q242 251 270 203T347 127T455 99Q517 99 566 126T644 202T673 312V701H776V306Q776 217 736 146T623 35T455 -6ZM537 755L335 830L384 920L567 807L537 755Z" />
<glyph unicode="&#xda;" horiz-adv-x="910" d="M455 -6Q360 -6 288 34T175 146T134 306V701H242V312Q242 251 270 203T347 127T455 99Q517 99 566 126T644 202T673 312V701H776V306Q776 217 736 146T623 35T455 -6ZM382 755L354 807L537 920L584 830L382 755Z" />
<glyph unicode="&#xdb;" horiz-adv-x="910" d="M455 -6Q360 -6 288 34T175 146T134 306V701H242V312Q242 251 270 203T347 127T455 99Q517 99 566 126T644 202T673 312V701H776V306Q776 217 736 146T623 35T455 -6ZM331 755L294 790L418 891H491L615 790L578 755L440
820H469L331 755Z" />
<glyph unicode="&#xdc;" horiz-adv-x="910" d="M455 -6Q360 -6 288 34T175 146T134 306V701H242V312Q242 251 270 203T347 127T455 99Q517 99 566 126T644 202T673 312V701H776V306Q776 217 736 146T623 35T455 -6ZM558 759Q523 759 506 777T489 824Q489 849 506
869T558 889Q593 889 610 871T627 824Q627 799 610 779T558 759ZM352 759Q317 759 300 777T283 824Q283 849 300 869T352 889Q387 889 404 871T421 824Q421 799 404 779T352 759Z" />
<glyph unicode="&#xdd;" horiz-adv-x="828" d="M370 0V329L384 264L49 700H190L438 366L414 367L649 700H779L469 274L478 337V0H370ZM340 755L312 807L495 920L542 830L340 755Z" />
<glyph unicode="&#xde;" horiz-adv-x="821" d="M145 0V700H253V573H498Q565 573 616 547T696 472T726 358Q726 298 697 249T616 170T498 141H253V0H145ZM253 245H504Q534 245 558 260T598 301T613 358Q613 389 598 414T559 454T504 469H253V245Z" />
<glyph unicode="&#xdf;" horiz-adv-x="867" d="M552 -10Q491 -10 446 8T370 57L416 125Q451 101 485 89T556 77Q608 77 640 110T673 193Q673 231 660 260T621 311T555 348T464 374V439Q488 447 512 459T558 487T592 519T605 554Q605 594 569 617T470 641Q387 641
342 602T296 502V0H196V499Q196 567 228 620T323 703T474 734Q550 734 603 712T684 650T713 563Q713 532 694 504T643 453T569 417L567 443Q610 432 649 410T718 358T765 289T782 206Q782 143 752 95T670 18T552 -10ZM101 404V497H261V404H101Z" />
<glyph unicode="&#xe0;" horiz-adv-x="830" d="M362 -10Q281 -10 218 25T120 123T84 263Q84 343 121 404T222 501T370 536Q420 536 463 523T538 489T589 441T609 387L582 389V525H686V0H582V136L604 135Q602 110 582 85T528 38T452 3T362 -10ZM387 85Q446 85 491
108T561 172T586 263Q586 314 561 354T491 417T387 440Q329 440 285 417T215 354T189 263Q189 213 214 173T284 109T387 85ZM458 606L284 700L349 782L492 657L458 606Z" />
<glyph unicode="&#xe1;" horiz-adv-x="830" d="M362 -10Q281 -10 218 25T120 123T84 263Q84 343 121 404T222 501T370 536Q420 536 463 523T538 489T589 441T609 387L582 389V525H686V0H582V136L604 135Q602 110 582 85T528 38T452 3T362 -10ZM387 85Q446 85 491
108T561 172T586 263Q586 314 561 354T491 417T387 440Q329 440 285 417T215 354T189 263Q189 213 214 173T284 109T387 85ZM338 606L304 657L447 782L512 700L338 606Z" />
<glyph unicode="&#xe2;" horiz-adv-x="830" d="M362 -10Q281 -10 218 25T120 123T84 263Q84 343 121 404T222 501T370 536Q420 536 463 523T538 489T589 441T609 387L582 389V525H686V0H582V136L604 135Q602 110 582 85T528 38T452 3T362 -10ZM387 85Q446 85 491
108T561 172T586 263Q586 314 561 354T491 417T387 440Q329 440 285 417T215 354T189 263Q189 213 214 173T284 109T387 85ZM282 607L244 640L359 753H445L560 640L522 607L387 680H417L282 607Z" />
<glyph unicode="&#xe3;" horiz-adv-x="830" d="M362 -10Q281 -10 218 25T120 123T84 263Q84 343 121 404T222 501T370 536Q420 536 463 523T538 489T589 441T609 387L582 389V525H686V0H582V136L604 135Q602 110 582 85T528 38T452 3T362 -10ZM387 85Q446 85 491
108T561 172T586 263Q586 314 561 354T491 417T387 440Q329 440 285 417T215 354T189 263Q189 213 214 173T284 109T387 85ZM453 615Q433 615 420 623T391 643Q372 660 363 666T345 673Q332 673 322 659T308 615L240 625Q242 674 271 710T350 746Q370 746 383 738T412
718Q432 702 441 695T458 688Q472 688 481 703T495 746L563 736Q562 704 548 676T510 632T453 615Z" />
<glyph unicode="&#xe4;" horiz-adv-x="830" d="M362 -10Q281 -10 218 25T120 123T84 263Q84 343 121 404T222 501T370 536Q420 536 463 523T538 489T589 441T609 387L582 389V525H686V0H582V136L604 135Q602 110 582 85T528 38T452 3T362 -10ZM387 85Q446 85 491
108T561 172T586 263Q586 314 561 354T491 417T387 440Q329 440 285 417T215 354T189 263Q189 213 214 173T284 109T387 85ZM502 648Q469 648 451 665T433 713Q433 742 451 760T502 778Q535 778 553 761T571 713Q571 684 553 666T502 648ZM302 648Q269 648 251
665T233 713Q233 742 251 760T302 778Q335 778 353 761T371 713Q371 684 353 666T302 648Z" />
<glyph unicode="&#xe5;" horiz-adv-x="830" d="M362 -10Q281 -10 218 25T120 123T84 263Q84 343 121 404T222 501T370 536Q420 536 463 523T538 489T589 441T609 387L582 389V525H686V0H582V136L604 135Q602 110 582 85T528 38T452 3T362 -10ZM387 85Q446 85 491
108T561 172T586 263Q586 314 561 354T491 417T387 440Q329 440 285 417T215 354T189 263Q189 213 214 173T284 109T387 85ZM401 604Q373 604 348 618T308 657T292 709Q292 738 307 762T347 800T401 815Q431 815 456 801T496 762T511 709Q511 681 496 657T456 619T401
604ZM401 663Q422 663 436 676T451 709Q451 730 437 743T401 756Q380 756 366 743T352 709Q352 690 366 677T401 663Z" />
<glyph unicode="&#xe6;" horiz-adv-x="1161" d="M301 -10Q238 -10 189 8T112 62T84 149Q84 200 105 233T163 285T251 311T359 319H972L957 302V326Q953 361 928 387T865 429T785 444Q727 444 681 427T607 370T579 264Q579 205 612 165T699 103T818 82Q880 82 924
97T1002 142L1052 64Q1029 45 989 28T902 1T808 -10Q711 -10 639 24T526 118T486 257Q486 321 510 372T575 460T671 516T785 536Q863 536 925 503T1025 413T1062 281L1061 237H346Q316 237 287 233T233 220T195 195T181 154Q181 129 197 112T242 87T305 78Q353
78 394 94T465 134T509 180L551 112Q530 84 494 56T409 9T301 -10ZM486 257V345Q486 366 474 384T440 414T395 434T347 442Q297 442 250 425T164 371L103 441Q135 470 173 491T255 524T349 536Q393 536 434 528T508 501T560 455T579 388V263L486 257Z" />
<glyph unicode="&#xe7;" horiz-adv-x="728" d="M385 -10Q301 -10 235 26T129 124T90 263Q90 341 129 402T234 500T385 536Q467 536 536 509T644 432L587 354Q565 379 532 399T462 431T389 443Q332 443 288 420T219 356T194 263Q194 211 220 171T291 107T390 83Q432
83 467 93T533 121T588 159L644 83Q599 45 532 18T385 -10ZM289 -244L282 -194Q309 -193 336 -187T381 -169T399 -142Q399 -127 382 -118T342 -105T304 -100L293 -84L363 24H422L379 -46Q423 -55 451 -77T479 -139Q479 -166 461 -186T415 -219T354 -239T289 -244Z"
/>
<glyph unicode="&#xe8;" horiz-adv-x="779" d="M407 -10Q313 -10 240 24T126 119T85 257Q85 321 109 372T176 460T276 517T398 537Q457 537 509 518T600 465T660 385T680 282L679 232H172L149 314H590L575 303V327Q571 361 545 387T481 427T398 442Q336 442 288
424T214 366T187 264Q187 210 216 170T299 107T422 85Q485 85 529 102T609 146L657 70Q630 48 590 30T502 1T407 -10ZM453 606L279 700L344 782L487 657L453 606Z" />
<glyph unicode="&#xe9;" horiz-adv-x="779" d="M407 -10Q313 -10 240 24T126 119T85 257Q85 321 109 372T176 460T276 517T398 537Q457 537 509 518T600 465T660 385T680 282L679 232H172L149 314H590L575 303V327Q571 361 545 387T481 427T398 442Q336 442 288
424T214 366T187 264Q187 210 216 170T299 107T422 85Q485 85 529 102T609 146L657 70Q630 48 590 30T502 1T407 -10ZM333 606L299 657L442 782L507 700L333 606Z" />
<glyph unicode="&#xea;" horiz-adv-x="779" d="M407 -10Q313 -10 240 24T126 119T85 257Q85 321 109 372T176 460T276 517T398 537Q457 537 509 518T600 465T660 385T680 282L679 232H172L149 314H590L575 303V327Q571 361 545 387T481 427T398 442Q336 442 288
424T214 366T187 264Q187 210 216 170T299 107T422 85Q485 85 529 102T609 146L657 70Q630 48 590 30T502 1T407 -10ZM278 607L240 640L355 753H441L556 640L518 607L383 680H413L278 607Z" />
<glyph unicode="&#xeb;" horiz-adv-x="779" d="M407 -10Q313 -10 240 24T126 119T85 257Q85 321 109 372T176 460T276 517T398 537Q457 537 509 518T600 465T660 385T680 282L679 232H172L149 314H590L575 303V327Q571 361 545 387T481 427T398 442Q336 442 288
424T214 366T187 264Q187 210 216 170T299 107T422 85Q485 85 529 102T609 146L657 70Q630 48 590 30T502 1T407 -10ZM498 648Q465 648 447 665T429 713Q429 742 447 760T498 778Q531 778 549 761T567 713Q567 684 549 666T498 648ZM298 648Q265 648 247 665T229
713Q229 742 247 760T298 778Q331 778 349 761T367 713Q367 684 349 666T298 648Z" />
<glyph unicode="&#xec;" horiz-adv-x="389" d="M143 0V525H246V0H143ZM504 606L330 700L395 782L538 657L504 606Z" />
<glyph unicode="&#xed;" horiz-adv-x="389" d="M143 0V525H246V0H143ZM384 606L350 657L493 782L558 700L384 606Z" />
<glyph unicode="&#xee;" horiz-adv-x="389" d="M143 0V525H246V0H143ZM329 607L291 640L406 753H492L607 640L569 607L434 680H464L329 607Z" />
<glyph unicode="&#xef;" horiz-adv-x="389" d="M143 0V525H246V0H143ZM549 648Q516 648 498 665T480 713Q480 742 498 760T549 778Q582 778 600 761T618 713Q618 684 600 666T549 648ZM349 648Q316 648 298 665T280 713Q280 742 298 760T349 778Q382 778 400 761T418
713Q418 684 400 666T349 648Z" />
<glyph unicode="&#xf0;" horiz-adv-x="759" d="M377 -7Q291 -7 227 29T127 126T90 262Q90 317 111 365T171 450T259 507T365 528Q428 528 476 505T554 441T597 348L556 354Q555 395 543 432T510 502T459 565T392 620T309 668L357 740Q402 724 446 693T531 618T602
522T650 408T668 282Q668 194 630 129T525 29T377 -7ZM377 83Q430 83 472 107T540 171T566 262Q566 310 541 349T471 413T371 438Q321 438 281 415T216 352T192 262Q192 212 216 172T283 107T377 83ZM285 539L272 604L417 630L472 650L618 672L636 606L523 591L482
574L285 539Z" />
<glyph unicode="&#xf1;" horiz-adv-x="830" d="M155 0V525H258V395L229 388Q246 425 279 458T358 514T458 536Q531 536 579 509T652 431T677 314V0H574V302Q574 346 556 377T505 425T429 441Q392 441 361 428T306 394T271 348T258 296V0H207Q187 0 174 0T155 0ZM490
615Q470 615 457 623T428 643Q409 660 400 666T382 673Q369 673 359 659T345 615L277 625Q279 674 308 710T387 746Q407 746 420 738T449 718Q469 702 478 695T495 688Q509 688 518 703T532 746L600 736Q599 704 585 676T547 632T490 615Z" />
<glyph unicode="&#xf2;" horiz-adv-x="805" d="M403 -10Q312 -10 242 25T131 122T90 263Q90 343 130 404T241 501T403 536Q494 536 564 501T674 405T715 263Q715 184 675 122T564 25T403 -10ZM403 84Q462 84 509 107T584 170T610 263Q612 316 585 356T510 419T403
442Q344 442 297 419T222 356T195 263Q194 211 221 171T296 107T403 84ZM459 606L285 700L350 782L493 657L459 606Z" />
<glyph unicode="&#xf3;" horiz-adv-x="805" d="M403 -10Q312 -10 242 25T131 122T90 263Q90 343 130 404T241 501T403 536Q494 536 564 501T674 405T715 263Q715 184 675 122T564 25T403 -10ZM403 84Q462 84 509 107T584 170T610 263Q612 316 585 356T510 419T403
442Q344 442 297 419T222 356T195 263Q194 211 221 171T296 107T403 84ZM339 606L305 657L448 782L513 700L339 606Z" />
<glyph unicode="&#xf4;" horiz-adv-x="805" d="M403 -10Q312 -10 242 25T131 122T90 263Q90 343 130 404T241 501T403 536Q494 536 564 501T674 405T715 263Q715 184 675 122T564 25T403 -10ZM403 84Q462 84 509 107T584 170T610 263Q612 316 585 356T510 419T403
442Q344 442 297 419T222 356T195 263Q194 211 221 171T296 107T403 84ZM283 607L245 640L360 753H446L561 640L523 607L388 680H418L283 607Z" />
<glyph unicode="&#xf5;" horiz-adv-x="805" d="M403 -10Q312 -10 242 25T131 122T90 263Q90 343 130 404T241 501T403 536Q494 536 564 501T674 405T715 263Q715 184 675 122T564 25T403 -10ZM403 84Q462 84 509 107T584 170T610 263Q612 316 585 356T510 419T403
442Q344 442 297 419T222 356T195 263Q194 211 221 171T296 107T403 84ZM454 615Q434 615 421 623T392 643Q373 660 364 666T346 673Q333 673 323 659T309 615L241 625Q243 674 272 710T351 746Q371 746 384 738T413 718Q433 702 442 695T459 688Q473 688 482 703T496
746L564 736Q563 704 549 676T511 632T454 615Z" />
<glyph unicode="&#xf6;" horiz-adv-x="805" d="M403 -10Q312 -10 242 25T131 122T90 263Q90 343 130 404T241 501T403 536Q494 536 564 501T674 405T715 263Q715 184 675 122T564 25T403 -10ZM403 84Q462 84 509 107T584 170T610 263Q612 316 585 356T510 419T403
442Q344 442 297 419T222 356T195 263Q194 211 221 171T296 107T403 84ZM503 648Q470 648 452 665T434 713Q434 742 452 760T503 778Q536 778 554 761T572 713Q572 684 554 666T503 648ZM303 648Q270 648 252 665T234 713Q234 742 252 760T303 778Q336 778 354
761T372 713Q372 684 354 666T303 648Z" />
<glyph unicode="&#xf7;" horiz-adv-x="754" d="M89 215V313H665V215H89ZM371 15Q347 15 324 22T287 44T272 79Q272 102 287 117T325 138T371 145Q396 145 419 138T456 117T471 81Q471 58 456 44T418 22T371 15ZM371 380Q347 380 324 387T287 409T272 444Q272 467
287 481T325 503T371 510Q396 510 419 503T456 482T471 446Q471 423 456 409T417 387T371 380Z" />
<glyph unicode="&#xf8;" horiz-adv-x="806" d="M162 -24L101 30L638 540L699 485L162 -24ZM404 -10Q313 -10 243 25T132 122T91 263Q91 343 131 404T242 501T404 536Q494 536 564 501T675 405T716 263Q716 184 676 122T565 25T404 -10ZM404 84Q463 84 510 107T584
170T611 263Q612 316 585 356T510 419T404 442Q345 442 298 419T223 356T196 263Q195 211 222 171T297 107T404 84Z" />
<glyph unicode="&#xf9;" horiz-adv-x="816" d="M356 -10Q292 -10 245 19T171 104T144 235V525H247V268Q247 210 263 170T313 108T398 87Q433 87 464 98T518 131T555 182T569 248V525H672V0H569V110L587 122Q574 89 542 59T463 9T356 -10ZM464 606L290 700L355
782L498 657L464 606Z" />
<glyph unicode="&#xfa;" horiz-adv-x="816" d="M356 -10Q292 -10 245 19T171 104T144 235V525H247V268Q247 210 263 170T313 108T398 87Q433 87 464 98T518 131T555 182T569 248V525H672V0H569V110L587 122Q574 89 542 59T463 9T356 -10ZM344 606L310 657L453
782L518 700L344 606Z" />
<glyph unicode="&#xfb;" horiz-adv-x="816" d="M356 -10Q292 -10 245 19T171 104T144 235V525H247V268Q247 210 263 170T313 108T398 87Q433 87 464 98T518 131T555 182T569 248V525H672V0H569V110L587 122Q574 89 542 59T463 9T356 -10ZM288 607L250 640L365
753H451L566 640L528 607L393 680H423L288 607Z" />
<glyph unicode="&#xfc;" horiz-adv-x="816" d="M356 -10Q292 -10 245 19T171 104T144 235V525H247V268Q247 210 263 170T313 108T398 87Q433 87 464 98T518 131T555 182T569 248V525H672V0H569V110L587 122Q574 89 542 59T463 9T356 -10ZM508 648Q475 648 457
665T439 713Q439 742 457 760T508 778Q541 778 559 761T577 713Q577 684 559 666T508 648ZM308 648Q275 648 257 665T239 713Q239 742 257 760T308 778Q341 778 359 761T377 713Q377 684 359 666T308 648Z" />
<glyph unicode="&#xfd;" horiz-adv-x="784" d="M240 -230L366 14V-65L64 525H184L343 194Q366 152 383 114T407 46L388 43Q400 73 416 112T455 198L599 525H720L459 -3L350 -230H240ZM328 606L294 657L437 782L502 700L328 606Z" />
<glyph unicode="&#xfe;" horiz-adv-x="843" d="M155 -220V740H259V405L243 414Q250 442 283 469T364 515T468 534Q529 534 580 514T671 458T731 373T752 263Q752 184 715 123T615 26T471 -9Q412 -9 361 10T275 59T233 117L259 131V-220H155ZM454 86Q512 86 557
109T627 173T653 263Q653 313 628 353T558 416T454 439Q396 439 351 416T280 353T254 263Q254 213 279 173T350 110T454 86Z" />
<glyph unicode="&#xff;" horiz-adv-x="784" d="M240 -230L366 14V-65L64 525H184L343 194Q366 152 383 114T407 46L388 43Q400 73 416 112T455 198L599 525H720L459 -3L350 -230H240ZM492 648Q459 648 441 665T423 713Q423 742 441 760T492 778Q525 778 543 761T561
713Q561 684 543 666T492 648ZM292 648Q259 648 241 665T223 713Q223 742 241 760T292 778Q325 778 343 761T361 713Q361 684 343 666T292 648Z" />
<glyph unicode="&#x2013;" horiz-adv-x="628" d="M93 240V336H535V240H93Z" />
<glyph unicode="&#x2014;" horiz-adv-x="988" d="M93 240V337H895V240H93Z" />
<glyph unicode="&#x2018;" horiz-adv-x="297" d="M187 436Q156 436 129 453T85 499T68 565Q68 593 82 621T119 675T172 721T233 753L277 702Q233 679 205 654T177 609Q177 594 188 583T213 564Q234 549 249 535T264 499Q264 468 242 452T187 436Z" />
<glyph unicode="&#x2019;" horiz-adv-x="297" d="M64 427L20 478Q64 502 92 527T120 572Q120 587 109 598T84 617Q63 632 48 645T33 681Q33 712 55 728T110 745Q141 745 168 728T212 682T229 616Q229 587 215 559T178 506T125 460T64 427Z" />
<glyph unicode="&#x201a;" horiz-adv-x="401" d="M136 -192L92 -141Q134 -117 161 -91T188 -44Q188 -29 179 -19T152 5Q132 20 119 34T105 70Q105 101 127 117T182 134Q212 134 238 117T281 71T297 5Q297 -25 284 -54T247 -110T196 -158T136 -192Z" />
<glyph unicode="&#x201c;" horiz-adv-x="544" d="M187 690Q156 690 129 707T85 753T68 819Q68 847 82 875T119 929T172 975T233 1007L277 956Q233 933 205 908T177 863Q177 848 188 837T213 818Q234 803 249 789T264 753Q264 722 242 706T187 690ZM434 434Q403
434 376 451T332 497T315 563Q315 591 329 619T366 673T419 719T480 751L524 700Q480 677 452 652T424 607Q424 592 435 581T460 562Q481 547 496 533T511 497Q511 466 489 450T434 434Z" />
<glyph unicode="&#x201d;" horiz-adv-x="543" d="M64 434L20 485Q64 509 92 534T120 579Q120 594 109 605T84 624Q63 639 48 652T33 688Q33 719 55 735T110 752Q141 752 168 735T212 689T229 623Q229 594 215 566T178 513T125 467T64 434ZM310 434L266 485Q310
509 338 534T366 579Q366 594 355 605T330 624Q309 639 294 652T279 688Q279 719 301 735T356 752Q387 752 414 735T458 689T475 623Q475 594 461 566T424 513T371 467T310 434Z" />
<glyph unicode="&#x201e;" horiz-adv-x="672" d="M136 -192L92 -141Q134 -117 161 -91T188 -44Q188 -29 179 -19T152 5Q132 20 119 34T105 70Q105 101 127 117T182 134Q212 134 238 117T281 71T297 5Q297 -25 284 -54T247 -110T196 -158T136 -192ZM407 -192L363
-141Q405 -117 432 -91T459 -44Q459 -29 450 -19T423 5Q403 20 390 34T376 70Q376 101 398 117T453 134Q483 134 509 117T552 71T568 5Q568 -25 555 -54T518 -110T467 -158T407 -192Z" />
<glyph unicode="&#x2022;" horiz-adv-x="501" d="M250 216Q213 216 182 234T133 283T114 351Q114 390 132 421T182 470T251 488Q288 488 319 470T368 421T387 351Q387 314 369 283T319 234T250 216Z" />
<glyph unicode="&#x2039;" horiz-adv-x="434" d="M264 50L66 257V259L263 471L332 420L179 249L180 272L333 101L264 50Z" />
<glyph unicode="&#x203a;" horiz-adv-x="435" d="M171 50L103 101L255 272L254 249L102 420L170 471L368 264V262L171 50Z" />
</font>
</defs>
</svg>
