<?xml version="1.0" standalone="no"?>
<!DOCTYPE svg PUBLIC "-//W3C//DTD SVG 1.1//EN" "http://www.w3.org/Graphics/SVG/1.1/DTD/svg11.dtd">
<svg xmlns="http://www.w3.org/2000/svg">
<defs >
<font id="Dokdo" horiz-adv-x="682" ><font-face
    font-family="Dokdo"
    units-per-em="1000"
    panose-1="0 0 0 0 0 0 0 0 0 0"
    ascent="696"
    descent="-304"
    alphabetic="0" />
<glyph unicode=" " horiz-adv-x="276" />
<glyph unicode="!" horiz-adv-x="368" d="M248 197V260L246 300L244 318V437L224 451L213 443L143 450L125 435V242L141 108L151 84L165 86H219L235 98L243 163L249 180L248 197ZM256 -96L249 -49L252 -34V10L224 24H146L134 9V-82L156 -102L190 -109L217 -101L256 -96Z" />
<glyph unicode="&quot;" horiz-adv-x="423" d="M337 521L330 539L305 545L275 548L239 540V420L236 415L242 342H259L275 338L310 343L329 366V480L337 521ZM198 503L194 538L173 551L105 545L93 522V398L100 347L107 332H155L191 341V447V471L198 503Z" />
<glyph unicode="#" horiz-adv-x="672" d="M627 165L618 189L530 180L489 190V282Q497 282 510 282T535 284T557 285T569 286L592 294V344L576 363Q574 363 566 363T546 362T519 361T493 360L496 419L505 440L499 481L432 495L417 477V353H334L302 357H282V412L270
430V477H200L179 486L164 469L171 358L69 342L74 292L129 286H178L173 208L182 180L183 174L90 167L58 159L52 73L68 69L104 79L121 77L185 83L190 15L199 2L194 -49L207 -64L301 -51V84L377 89L399 94L397 80L406 13L402 -31L425 -52L481 -31V93H531H600H623L627
165ZM401 207V187L312 178H290V282L314 286L333 283H405V224L401 207Z" />
<glyph unicode="$" horiz-adv-x="589" d="M247 121V34L233 40L215 28L193 30L150 24H134L113 17V-70H134L250 -52L255 -92L258 -122H353L362 -98V-29Q388 -26 415 -19T463 0T497 32T510 79L501 144Q490 157 478 166T454 182T428 197T399 216L362 229V351L439 362L469
363L480 425L460 450H361L364 492L347 510L309 506L266 512L248 501L244 467L245 429Q225 425 212 422T186 413T160 401T129 385L99 333Q94 320 94 310Q94 283 105 256T132 205L179 178L249 156L247 121ZM421 99L419 84L405 77L361 74L364 127L398 117L421 99ZM242
252Q221 263 205 271T189 293Q189 299 194 302T208 310T226 318T244 331L254 299V283L242 252Z" />
<glyph unicode="%" horiz-adv-x="681" d="M650 116L603 180L528 185L519 190L490 185L452 131Q449 107 445 89T440 51Q440 29 448 10T471 -17L507 -38L511 -36L567 -32Q587 -21 608 0T648 46L650 116ZM277 394L259 443L231 479L144 487L127 478Q110 467 99 455T81
427T69 395T59 362L63 328L90 285L167 264L175 274L224 284L257 326L277 394ZM574 400L551 432H535L503 457L394 344L360 302L282 215L268 206L134 60L120 40L97 17L162 -38L186 -35L359 149L403 190L408 201L433 239L574 400ZM577 52Q569 44 562 42T547 40Q541
40 536 40T524 41H519L501 70L514 98L525 111H571L581 91Q588 78 588 71Q588 60 577 52ZM215 364Q214 356 206 351T188 343T170 339T161 338Q155 338 151 338T140 337Q135 338 134 346T131 363T129 380T129 389Q134 401 147 409T175 417Q189 417 196 413T208 402T214
389T215 376V364Z" />
<glyph unicode="&amp;" horiz-adv-x="681" d="M645 180L629 204L578 247L457 181L453 165L435 162L407 186L393 195L363 224L428 292L430 297L455 328L463 374L419 431L351 464L312 494L261 505L242 507L137 431L125 352L186 253L205 236L186 223L112 132V120L98
83V8Q100 -7 110 -18T131 -37T151 -49T164 -53Q169 -54 178 -55T203 -59L221 -58L293 -37L304 -36L421 20L440 18L518 -77L549 -82L599 -46L604 -16L524 74L522 81L544 100L604 140L645 180ZM313 336L300 321L277 310L252 361V379L270 390L329 361L331 348L313
336ZM333 105Q332 103 329 100L326 97V94H327L305 81L284 70Q279 68 273 63T258 57Q246 57 236 65T226 81Q226 101 232 112T248 129T266 139T280 148H283Q285 148 288 148T296 149Q305 135 313 127T333 105Z" />
<glyph unicode="&apos;" horiz-adv-x="322" d="M208 470L204 489L210 501L207 536L185 550L113 546L100 522L108 416V380V330L117 316H172H208V470Z" />
<glyph unicode="(" horiz-adv-x="432" d="M354 436L304 481H293L211 423L192 403L134 324L113 247V189L143 87L165 61L173 48L182 42L250 -22L293 -43L337 1L354 16L235 119L201 191L206 242L224 305L293 366L352 410L354 436Z" />
<glyph unicode=")" horiz-adv-x="432" d="M328 184V248L297 350L290 359L282 360L278 364L279 376L270 394L259 398L190 470L149 493L86 436L83 411L167 340L189 316L216 224L219 197L183 115L184 109L172 90L137 53V44H123L64 -6L80 -33L137 -82H149L232 -4L247
4L295 76L305 88L328 184Z" />
<glyph unicode="*" horiz-adv-x="405" d="M318 389L326 410L266 464L253 470L268 478L303 508L306 536L284 549L231 514L224 524V560L212 578H206L196 583L180 581L156 575V529L158 517L155 511L134 520L92 546L86 536L72 530L52 510L131 449L63 406L59 382L93
346L128 372L160 402L158 380V323L179 316L224 323V388L244 392L292 358L318 389Z" />
<glyph unicode="+" horiz-adv-x="561" d="M479 195V270L467 285H326L321 299V411L312 426H215L202 413V294L190 282L50 272L48 253V187L73 181H186L200 182V39L221 27L307 36L318 53V180L329 183H438L479 195Z" />
<glyph unicode="," horiz-adv-x="221" d="M58 -17L63 -88L117 -98L105 -174L139 -178L159 -168L171 -113V-44L166 15H95L63 6L58 -17Z" />
<glyph unicode="-" horiz-adv-x="515" d="M471 251L466 285H251L49 264V163H390L477 182L471 251Z" />
<glyph unicode="." horiz-adv-x="221" d="M169 6L148 15L98 19L60 -2L56 -31L52 -45L63 -98H149L169 -90V6Z" />
<glyph unicode="/" horiz-adv-x="552" d="M532 429L448 473L429 470L322 334L305 307L102 13L55 -36L40 -65L26 -90L125 -147L137 -142L185 -80L331 128L356 158L524 402L532 429Z" />
<glyph unicode="0" horiz-adv-x="589" d="M510 327Q507 347 498 365T478 399T453 426T427 449Q396 449 362 453T300 458Q290 454 283 453T270 452T260 451T249 446Q242 444 237 444H236Q217 435 207 426T189 408T169 390T138 372Q138 364 137 361T129 358L83 291Q82
283 81 273T77 252T74 233T73 221Q74 187 77 168T84 134T93 104T102 63Q104 60 108 56T119 47L136 30Q154 20 166 16T190 9T217 6T254 1Q265 -2 277 -2Q295 -2 311 1T332 4H335Q338 6 346 8T359 16Q372 29 387 40T418 64T447 92T470 133Q472 140 475 148T489 178Q492
178 496 192T503 225T509 263T512 295Q512 303 512 310T510 327ZM411 277Q408 269 403 253T391 220T378 191T362 177L352 154Q353 151 335 139T274 120Q247 126 232 132T210 145T199 160T191 178Q182 190 182 196Q182 211 185 224T192 253L213 293Q221 299 224
303T228 311T230 317T233 325L270 341Q280 346 288 350T309 360Q330 356 356 354Q369 341 379 331T404 310Q404 305 407 294T411 277Z" />
<glyph unicode="1" horiz-adv-x="386" d="M235 427L219 446H155L144 413V22L159 6H232L258 30V266L251 310L240 349L235 427Z" />
<glyph unicode="2" horiz-adv-x="515" d="M437 47V128L408 132L360 129L299 133L236 122L268 144L305 182L373 262L409 351V374L403 401L380 423L336 442L310 450L172 461Q152 459 140 457T111 454Q107 444 105 433T102 409Q102 396 104 383T109 360L123 346L153
342H233L306 323L310 300L202 190L94 125L83 92V24L103 10L180 19L225 17H424L437 47Z" />
<glyph unicode="3" horiz-adv-x="515" d="M442 63Q438 86 437 107T431 147T414 184T375 216Q364 223 352 227T324 242L295 247L371 304L388 337L410 371L397 443L351 484L247 500L225 498L223 503H126H109L102 473V403L121 398L155 403L280 397Q303 395 312 387T321
370Q321 356 302 340T256 310T203 284T157 268L133 258V241V209Q133 201 134 193T141 174L213 162L298 133Q317 115 317 94Q317 58 282 50L190 24H96V-48L103 -63V-87L122 -96L271 -75L307 -64L347 -50L415 11L442 63Z" />
<glyph unicode="4" horiz-adv-x="580" d="M540 172L534 177L443 170L434 178V423L417 443H347V169L259 157L247 170Q247 198 247 221T246 266T244 313T243 367Q243 381 243 394T244 419Q244 431 244 441T242 461H148L126 448V89L129 74L313 86L330 89V-15L335
-30H431V102L512 112L540 120V172Z" />
<glyph unicode="5" horiz-adv-x="515" d="M252 465L233 476H155L134 462L120 315L106 222L125 194L179 191Q195 189 220 184T268 172T308 153T325 122Q325 108 310 97T272 78T225 67T180 63Q177 63 173 63T166 63L81 58V-33L102 -59L250 -48L343 -10L377 20L390
36L420 108L424 155L400 214L343 259L267 279L236 286L234 291L242 368H417L439 389V457L431 471H325L252 465Z" />
<glyph unicode="6" horiz-adv-x="524" d="M451 149L431 188Q420 209 406 225T360 259H346L330 270H252L212 258L270 350L271 362L289 380L316 426L328 454L245 486L233 485L148 348L124 317L89 218L84 160Q83 155 83 150T83 139Q83 116 87 95T98 55T115 24T138
6Q145 2 154 -2T174 -11L198 -23H257H318L396 9L447 70L451 149ZM326 89L274 70L224 98L208 121L225 161L263 168Q269 171 282 171Q313 171 332 159T351 129Q351 116 342 106T326 89Z" />
<glyph unicode="7" horiz-adv-x="497" d="M444 397L403 415H325L316 427H224L208 414L186 426L142 420L120 412L111 418L60 408V357L75 343H267L253 322L196 129L164 38L168 17H268L292 27L318 115L337 150L343 173L407 264L421 324L420 334L440 367L444 397Z" />
<glyph unicode="8" horiz-adv-x="552" d="M463 150L409 203L378 220L359 226L377 233L434 284L441 324L454 348L458 392L345 481H294L286 490L259 480L177 466L141 431L126 413L113 374L103 361L111 347L96 314L115 265L177 232H203L201 227L175 221L109 152Q100
135 97 120T93 88Q93 58 105 28T146 -16Q157 -21 167 -23T185 -28L384 -20L431 12L458 53L469 98L463 150ZM373 345L333 294H270L226 299L211 329L218 376L272 406H292L341 381L362 374L373 345ZM342 74H265L224 96V121L249 155L297 173L343 165L370 121L373 112L342
74Z" />
<glyph unicode="9" horiz-adv-x="543" d="M448 270V390L401 441H295L183 424L109 396L98 363L81 340L69 275L90 209L103 193L204 158L215 160L224 167L281 173L286 162L251 22L268 6H340L356 3L399 7L414 92L419 146L448 270ZM320 330L316 310L313 306L303 281L245
263L197 269L175 288L187 320L199 332L244 348L314 339L320 330Z" />
<glyph unicode=":" horiz-adv-x="313" d="M196 409L177 417L145 422L111 420L108 375L104 360L114 316H178L196 324V409ZM201 99L196 117L117 111L109 64V15H184L201 21V99Z" />
<glyph unicode=";" horiz-adv-x="313" d="M196 408L176 416L144 420H111L108 384L104 368L114 316H178L195 322L196 408ZM110 84L115 18L146 7L134 -58L141 -62L188 -52L199 -7V52V114H148L116 107L110 84Z" />
<glyph unicode="&lt;" horiz-adv-x="432" d="M382 398L312 467H303L223 392L210 385L95 274L69 256L80 222L93 206L95 198L161 111L165 100L183 72L228 20V13L234 2L247 -5L270 -41L328 -6L331 18L237 165L223 171L183 217L200 220L271 269L282 291L309 317L380
374L382 398Z" />
<glyph unicode="=" horiz-adv-x="561" d="M461 368L440 376H259L84 351V260L416 283L450 293L461 368ZM459 122L450 167L448 180H190L98 168L89 151L83 103L106 89L122 94H315H417L459 122Z" />
<glyph unicode="&gt;" horiz-adv-x="432" d="M366 219L357 243L295 322L282 325L259 356L236 403L188 451L166 489L134 505L83 454V420L187 293L220 247L216 232L165 171L136 123L40 -8L44 -32L127 -100L147 -86L211 9L234 27L238 44L276 82L270 87L280 94L343
184L346 192L366 219Z" />
<glyph unicode="?" horiz-adv-x="460" d="M409 344Q405 366 392 383T363 416L356 420Q355 420 353 421T350 424V430Q350 431 350 432T351 435L312 456Q303 460 293 465T271 478Q257 482 245 484T222 487T198 490T170 493Q155 490 145 489T127 486T108 483T86 479Q85
459 83 445T80 414Q80 397 84 381Q102 381 124 382T170 384Q184 384 202 383T238 377T267 365T279 343Q279 329 269 317T243 295T210 276T179 260Q163 253 154 248T137 235T122 218T104 191Q104 178 104 172T106 162T108 153T109 136Q108 112 108 96T108 56Q122
45 142 45T173 44Q182 44 192 43T217 42Q220 46 222 49T225 56L236 70Q236 75 236 81T238 99Q238 106 238 115T237 134T236 151T236 160Q239 161 242 166T256 177L277 188Q282 190 287 192T299 200L304 204Q321 210 340 220T375 244T401 277T411 317Q411 324 411
330T409 344ZM243 -73L240 -59V-16L204 -4L121 -10L110 -24V-116L127 -134H201L239 -112L243 -73Z" />
<glyph unicode="@" horiz-adv-x="681" d="M643 294Q639 333 626 366T593 424T546 465T489 487Q485 490 485 492Q485 493 489 493Q471 495 461 496T442 499T426 501T408 505Q404 503 402 502T397 500H384Q381 500 378 500T372 500V509H327Q308 506 295 504T268
499T240 493T208 483Q202 478 194 476T184 473L172 470Q167 466 163 463T156 458L141 446Q128 425 118 408T97 374T78 340T56 304Q51 277 47 257T38 212Q40 206 41 199T47 187Q45 182 43 180T41 175Q54 140 58 118T68 75T85 35T123 -15Q136 -29 147 -36T168 -47T187
-52T205 -58L262 -75Q282 -77 294 -77T326 -78L520 -58H531L573 -38Q581 -33 592 -29T615 -17Q617 -13 619 -9T623 0L630 18L606 41Q592 40 585 40T570 39T554 35T527 29L517 32Q500 27 493 25T471 17L469 15Q468 13 467 11T464 6Q460 6 455 9T447 15Q440 14 438
14T432 13T423 10T399 5Q379 0 372 0Q365 5 364 5T362 7Q335 7 316 7T272 9Q256 16 248 18T237 21T231 22T226 22T215 26T191 38Q190 40 184 45T172 56T160 70T151 86L132 127Q128 136 126 146T123 169L130 186Q132 190 133 193T137 202Q137 203 137 205T136 212V230Q139
242 139 258T140 291T145 321T160 339Q171 346 174 355T183 374T201 394T242 413Q253 417 265 420T292 431Q309 431 324 431T355 431T385 432T420 434Q436 426 447 419T467 405T485 395T504 387Q505 387 507 387T516 390L525 383Q525 382 526 378T530 368T533 358T535
353L543 341Q549 332 553 316T559 280T563 242T567 210Q556 207 551 205T541 201T531 196T512 189Q483 192 472 210T456 252T449 301T435 344V352Q417 365 404 366T374 374Q367 376 356 380T332 385Q331 384 326 380T314 371T302 364T297 360Q282 342 273 329T255
305T236 281T210 251V243Q207 241 204 233T199 212T195 187T193 163Q193 155 197 147T206 129T218 109T228 91L245 79Q249 75 253 72T262 67Q274 71 294 71Q305 71 317 70T339 69Q348 69 353 69T363 71T373 77T388 89Q395 95 398 97T404 101T412 106T424 116Q430
121 436 125T449 132Q450 130 456 126T466 121Q470 118 475 111T486 97T496 85T502 79Q511 79 513 79T520 81H527Q529 81 535 81T544 90Q544 92 545 93L555 98Q558 98 564 99L575 102Q591 110 604 114T627 127T643 152T649 202Q649 227 647 252T643 294ZM388 201Q385
198 384 194L379 188Q367 183 359 181T339 177V171L340 169Q335 167 331 167T321 166Q317 166 316 167L310 170Q310 169 308 168Q306 167 304 167T296 164Q291 167 287 172T279 184Q275 190 271 199Q275 208 278 213T285 221T292 228T298 238L308 259Q309 259 314
262T325 269T337 276T350 280Q355 271 358 269T364 265T370 261T379 253Q381 241 383 225T388 201Z" />
<glyph unicode="A" horiz-adv-x="580" d="M516 11Q508 51 502 83T491 147T479 212T465 287Q460 293 457 304T452 327T449 351T446 372Q443 390 439 414T423 459Q420 463 414 472T406 484Q393 484 383 484T363 485T343 486T318 488Q308 488 303 488T291 489Q287
489 283 489H276Q255 459 236 434T200 383T168 329T138 262Q125 228 114 213T97 187Q86 167 80 154T63 120L48 73Q44 62 41 51T33 27Q34 18 35 13T38 0H144Q152 21 159 38T172 71T186 106T202 146Q208 152 219 154T245 156T274 157T303 157Q324 157 345 157T388
159Q390 146 391 134T393 118Q393 114 391 113T389 103Q389 76 392 56T399 11L430 8Q436 7 443 7T460 6Q469 6 475 7T488 8L516 11ZM379 220L374 214H331Q319 214 308 214T289 215Q264 213 243 213Q243 214 243 214T242 216V217L256 247Q266 274 280 301T313 346Q319
351 325 357T337 372Q341 372 344 372T348 371H351V370Q351 368 354 367Q357 343 364 326T373 293L375 257Q376 248 376 240T379 220Z" />
<glyph unicode="B" horiz-adv-x="543" d="M411 283Q416 286 423 291T436 302T448 316T454 329Q454 354 444 379T413 423T364 456T294 473Q282 473 271 475T260 483L206 477H190L181 468L140 475L122 460V191L103 189L109 186V10L113 -13H128L139 -4H205L249 -18Q259
-18 271 -16T293 -7L402 29Q412 33 429 42T464 63T493 91T506 125Q506 180 481 219T411 283ZM227 303L221 355V409Q238 412 239 412Q241 412 242 412T245 410T252 407T267 403Q283 399 301 398T335 395T363 384T382 359L347 311L317 305Q316 304 313 303T305 300T296
297T289 295Q286 295 286 297L227 303ZM238 213Q247 215 257 218T278 224H282Q291 224 298 222T317 217Q334 213 352 212T387 206T417 192T435 160L399 110L260 84H246V109L238 155V213Z" />
<glyph unicode="C" horiz-adv-x="561" d="M492 82Q487 94 486 99T484 106Q470 106 461 106T443 107L401 109Q372 108 351 107T304 105Q292 107 285 108T273 110T262 112T250 117Q249 116 247 116Q237 116 228 123T210 141T198 166T193 198Q193 213 198 222T210
239T226 255T240 277Q247 282 250 283L255 287Q255 287 259 291T268 300T279 309T287 314Q293 317 304 321T327 328T347 333T360 335Q367 333 370 332T375 330Q388 330 397 331T416 333L449 336L468 382Q467 388 467 395T467 410T465 424T457 437H385Q369 437 353
437T315 438L288 430Q273 430 258 426T228 415T203 403T189 394Q169 377 155 364T130 335T108 303T86 260Q79 245 77 229T75 194Q75 162 80 145T92 118T103 103T109 91L132 70L144 67Q161 62 169 58T184 52T195 46T213 39Q217 38 220 38T228 37Q236 37 243 38T261
39Q269 39 278 39T300 36Q328 36 347 36T383 36T420 37T468 39L478 48Q483 52 485 53T498 64L505 71Q504 71 498 72T492 82Z" />
<glyph unicode="D" horiz-adv-x="543" d="M483 240L478 285L458 339L456 351L449 362L384 421L371 430L228 463H120L103 445V210V158V10L131 -10L206 -2L349 53L422 131L426 142L437 144L483 240ZM375 314V195L365 163L344 132L317 105L265 95L223 82L226 135V345L234
385L309 378L351 339L375 314Z" />
<glyph unicode="E" horiz-adv-x="543" d="M485 58L466 64H261L251 65L239 167V201L349 223H380L419 230L431 245L425 274H359L339 276L259 267H233L224 294L209 396L216 402L430 418L448 428V477L408 490L328 478L227 464L213 475H124L118 477L104 461V279L109
265V100L100 59L106 45V-18H305L344 -6L435 12L478 15Q482 23 485 27T489 33V40Q488 43 487 47T485 58Z" />
<glyph unicode="F" horiz-adv-x="534" d="M456 458L407 449L380 456H114L93 441V-3L159 -9L259 6L263 63L246 100L237 194H288L364 207L382 202H416L425 218L430 242L416 248L342 260H235L227 275V368L224 373L233 381L270 375L272 364L274 363L291 375H447L463
397L456 458Z" />
<glyph unicode="G" horiz-adv-x="598" d="M569 188Q569 201 569 218T560 247L553 256Q546 257 539 257T525 257Q500 257 478 254T431 250Q417 250 399 252T367 255Q337 255 328 245Q325 247 316 247Q312 247 308 247T298 246Q292 246 289 248Q289 247 288 243T282
238Q281 238 280 239Q280 235 280 235T279 234T278 230T277 218Q306 213 325 206T349 197H350Q351 197 351 197T353 198Q355 198 357 198T363 197V177Q363 176 363 174T362 169V155Q359 151 358 151L354 147Q330 143 305 142T256 138Q253 135 246 135Q227 135 211
140Q201 142 194 144Q184 144 178 151T171 175Q171 201 175 215T186 240T203 262T224 293Q224 295 224 296T224 299V300Q226 301 231 307L244 321Q247 321 249 321T255 322L260 324Q267 327 273 333T286 346T301 361T320 371Q325 372 338 381T365 390Q367 390 368
390T370 389Q380 389 388 390T405 392Q420 392 434 391T463 390Q468 390 474 390T487 392L504 410Q504 413 504 416T503 422V438Q503 441 503 447T502 464Q495 467 492 470T488 475Q466 472 448 472T413 471T379 471T342 469L334 460H322Q320 460 320 461Q302 456
289 455T257 452L198 417Q188 414 182 411T171 402T160 389T144 371L64 275Q62 260 60 248T57 225L50 176V172Q50 153 56 134T71 99T89 72T107 54Q120 44 142 33T186 21Q199 21 223 27T270 35L300 38Q305 42 315 46T336 59Q340 55 343 54T349 52Q349 33 345 19T340
-17Q345 -21 348 -23T359 -30Q390 -29 418 -26T478 -18L482 -5Q482 1 486 9Q486 29 483 44T475 75T468 105T465 140Q465 140 465 147T466 164T469 181T475 189L479 193Q490 189 501 189T524 188Q535 191 543 191Q551 191 555 189T565 187Q568 187 569 188Z" />
<glyph unicode="H" horiz-adv-x="598" d="M477 439L459 452H399L385 443V293L369 286H221L225 293V454L212 466L161 472L142 464L127 305L109 255L97 61L106 11H200L225 17V229L245 232H295H362L359 143L363 142L359 125V55L352 34L361 8H418L443 3L500 28V60V73V116L477
256V439Z" />
<glyph unicode="I" horiz-adv-x="340" d="M238 126L232 151L227 189L229 196V276L220 322V450L207 476H189L180 468L140 475L122 460V10L112 -13H127L139 -4H216L236 13L232 58L238 126Z" />
<glyph unicode="J" horiz-adv-x="460" d="M449 391Q444 391 444 397Q444 398 445 404T446 413Q445 414 445 417T445 422Q445 427 447 431Q441 435 441 440T436 452Q426 448 421 448L408 445Q403 445 393 444T374 443Q367 443 365 443L362 446Q361 446 361 450Q325
450 296 451T240 454T183 456T118 458L112 455Q107 454 107 454Q98 454 91 454T76 455H61L53 449Q52 447 51 446T47 443Q47 438 47 428T48 408T51 389T60 378Q62 376 63 375T68 372Q78 372 82 372T101 374Q102 377 109 377Q116 377 122 376T131 374Q134 374 139
374T148 374L167 376Q170 382 179 382Q190 382 190 379Q190 374 190 370T189 361Q189 342 189 320T191 275T194 229T196 186Q196 167 196 151T190 118Q186 97 186 79T182 45T167 17T127 -6Q108 -13 98 -16T82 -22T76 -26T73 -30Q77 -38 76 -44T79 -56Q86 -62 86
-65T86 -70T90 -74T111 -75Q123 -75 132 -71Q135 -75 143 -75Q151 -75 157 -72T170 -64L200 -52Q205 -50 209 -49T216 -46L225 -43Q229 -40 231 -40T237 -37T250 -22T276 17L287 27Q300 38 310 80T322 189Q319 220 319 261Q319 269 319 275T320 289Q319 295 318
307T317 332T316 358T315 379Q321 377 328 376T342 374Q344 374 345 374T348 374T356 376T372 378Q383 376 392 376T413 376Q418 377 428 380T449 391Z" />
<glyph unicode="K" horiz-adv-x="541" d="M232 304Q228 302 223 302Q217 302 213 310T208 339L206 418Q205 434 203 449T195 481Q178 481 170 481T156 481T142 482T120 484Q115 479 111 478T102 473V428Q102 380 101 339T98 257T96 177T95 91Q95 74 95 56T96 18L90
4L109 -35Q141 -35 177 -35T240 -21Q238 -11 238 -1T238 23Q238 41 239 57T242 94Q239 97 238 104T237 120T236 136T236 146Q236 148 236 151T235 159Q235 166 235 171T243 180Q251 175 255 170T262 160T269 151T278 144Q281 138 283 134T285 124Q312 95 340 62T397
3Q397 -8 404 -14T420 -24L438 -33L473 -17Q492 -7 511 -1T530 13Q530 19 524 26T509 42T492 59T477 75Q456 94 432 116T384 162T339 209T304 251Q323 276 343 298T384 341T425 385T466 431Q463 439 459 446T447 459Q440 455 431 455Q421 455 415 460Q397 441 384
429T359 405T332 382T300 351Q283 344 277 338T260 322L234 297Q232 299 232 302V304Z" />
<glyph unicode="L" horiz-adv-x="478" d="M456 45L434 68H353L321 59L273 65L247 59L240 81V298L216 359L208 458L199 470L132 464L117 442V347L98 251V65L102 9L114 -14L139 -9L220 -16L251 -7L355 -14L397 0L447 -5L456 45Z" />
<glyph unicode="M" horiz-adv-x="764" d="M397 80V81Q398 81 400 83Q403 83 404 83T407 82H408L442 110Q447 114 449 120T455 135T463 151T479 166Q486 168 490 173T498 184T507 195T522 203Q523 202 527 202Q535 202 537 207T539 221T541 242T554 267L555 173Q555
164 554 142T553 96Q553 73 555 54T564 33L619 19H636L641 26Q641 35 644 56T649 99T655 141T658 165Q661 190 662 207T663 241Q663 258 662 276T657 324L666 344Q666 346 667 352T679 374L673 412L662 454H552V447H543L457 313L455 306L442 294V287L420 249L372
210L367 223L331 260L316 296V303L306 314L305 320L243 446L225 443L224 449H96V281L107 268L98 167Q98 158 98 136T97 90Q97 66 99 48T108 27L163 14H179L186 19Q186 30 189 51T198 94T207 134T211 158Q213 178 213 194T214 225V249Q214 259 214 269T216 293H229L242
268Q250 259 250 247Q250 240 249 234T247 224Q247 216 255 216Q259 216 260 217Q268 214 271 210T278 200T284 189T293 181Q299 176 302 168T308 152T313 138T320 130L344 103H349Q351 99 351 100T352 99H355Q363 94 368 91T380 86L397 80Z" />
<glyph unicode="N" horiz-adv-x="626" d="M377 103H382Q382 102 383 102Q384 101 384 101T386 99H389Q408 86 417 70T431 52Q431 48 431 45T431 40V36Q431 37 441 33L498 19H514L521 26Q521 100 526 157T532 241Q532 258 530 276T524 324L535 344Q535 346 536
352T547 374L541 412L531 454H420L419 447V217H395L393 223L338 280L303 331L301 339L240 447L180 437L112 449L92 429V281L103 268L96 167Q96 158 95 136T94 90Q94 66 96 48T104 27L159 14H176L182 19Q182 30 186 51T195 94T203 134T207 158Q210 178 210 194T211
225V249Q211 259 211 269T213 293H225L239 268Q247 260 250 253T254 239T257 228T264 224Q267 224 269 224Q275 222 280 216T291 202T300 189T310 179Q321 170 333 159T352 138L377 103Z" />
<glyph unicode="O" horiz-adv-x="598" d="M92 258Q89 231 88 209T86 165Q86 148 87 132T97 99L108 83L248 36Q259 36 266 36T280 37T294 41T311 51L420 92Q448 102 476 127T524 189V198Q524 270 493 327T399 416Q397 419 390 419Q385 419 376 418T358 417Q348
417 340 418T330 427L234 410Q209 402 185 389T141 358T108 314T92 258ZM336 327Q353 320 372 315T406 302T434 279T453 240L418 185L279 153H261L229 186L235 276Q243 282 251 290T270 307T291 322T316 329Q325 329 336 327Z" />
<glyph unicode="P" horiz-adv-x="515" d="M109 186V10L112 -13H128L139 -4H216L236 13L233 58L238 126L234 144Q247 146 255 149T275 158L385 195Q395 199 412 207T447 229T476 257T489 290Q489 320 479 351T448 408T398 450T328 469Q316 470 306 472T294 483L204
476H189L181 468L140 475L122 460V191L102 189L109 186ZM220 390Q228 391 235 392T250 393Q269 393 300 384Q316 379 334 378T369 372T398 359T417 327L381 277L243 249H228V276L220 322V390Z" />
<glyph unicode="Q" horiz-adv-x="616" d="M477 137Q484 144 492 153T507 172T520 194T525 216Q525 294 493 356T400 452Q397 454 392 454H373Q368 454 365 454T356 453Q346 453 339 455T331 464L235 445Q210 436 186 422T142 388T109 340T93 278Q91 248 89 223T86
173Q86 156 88 140T97 105L109 86L250 36Q261 36 268 36T282 37T295 42T311 52L390 85Q398 72 407 59T434 29Q433 19 441 14T457 4L476 -6L511 10Q531 20 549 27T568 41Q568 49 561 56T541 77L515 101Q505 111 496 119T477 137ZM420 200L397 225Q392 232 387 238T376
252L328 302Q323 300 317 291T302 272T287 254T272 246Q269 246 268 249L319 178Q322 175 323 175L280 165H262L225 200V210Q225 220 225 229T224 247Q224 259 225 270T233 298Q241 303 250 312T269 331T292 348T318 356Q325 356 336 354T360 347T386 337T408 327Q424
317 436 302T454 259L420 200Z" />
<glyph unicode="R" horiz-adv-x="580" d="M401 201Q410 204 425 213T455 235T480 261T490 290Q490 320 480 351T450 408T400 450T330 469Q318 470 308 472T296 483L206 476H190L183 467L142 475L124 460V191L104 188L111 186V10L115 -13H130L141 -5H219L238 12L235
58L240 126L236 144Q248 146 257 149T277 158L309 168Q316 158 322 154T334 144Q339 132 348 126T357 108Q371 92 379 81T394 59T410 37T432 12Q431 2 439 -3T455 -14L474 -24L509 -7Q529 3 547 10T566 24Q566 29 560 36T546 52T529 69T514 84Q481 114 454 142T401
201ZM222 390Q229 391 236 391T249 392Q261 392 272 390T302 383Q318 378 336 377T370 372T400 359T419 326L383 276L245 249H230V275L222 322V390Z" />
<glyph unicode="S" horiz-adv-x="524" d="M453 133Q452 139 449 144T441 154T434 163T431 174Q420 178 414 181T402 189L371 206Q366 208 365 211Q341 221 317 234T273 259L227 285Q223 285 218 291T213 320Q213 341 218 351T247 376H252Q262 376 275 381T295
391Q305 395 321 400T350 408L369 417Q375 417 388 417T409 427Q408 435 408 439T408 446T407 454T407 468Q396 473 392 475T377 483Q361 481 350 480T323 479Q316 479 313 479T303 482Q282 475 269 472T238 464L187 438Q169 429 146 417T113 389Q109 384 105 378T91
365Q91 352 85 343T78 323Q78 320 79 319T80 312Q80 306 79 300T75 291Q77 274 82 262T98 242L110 232Q124 227 133 220T151 205T168 190T190 181L254 152L282 140Q282 134 285 130T293 120T301 108T305 95Q305 77 295 68T273 54T251 48T240 47Q210 40 193 35T154
30Q144 30 131 31T101 35Q98 32 91 32Q84 32 75 35T64 37Q66 29 67 20T70 3T73 -10T77 -16H79Q77 -17 76 -20T74 -25Q74 -28 75 -28Q74 -29 74 -30Q74 -32 77 -35T84 -40T92 -44T96 -46Q108 -45 116 -45T133 -43T151 -40T174 -36Q184 -34 192 -32T210 -31Q232 -31
249 -35T282 -40Q290 -40 298 -39T313 -36T326 -32T332 -30Q333 -30 334 -30T339 -28T348 -24T364 -15Q377 -8 393 -1T423 17T447 40T457 74Q457 86 455 100T453 133Z" />
<glyph unicode="T" horiz-adv-x="476" d="M184 366V301L167 205V65L170 8L182 -15L207 -10L288 -17L314 -9V60L308 81V252L284 312L280 366H316Q322 364 325 363T335 362Q338 362 343 363T364 367Q375 365 384 365T406 365Q410 366 420 369T442 380Q440 380 439
380T437 385Q437 387 438 392T439 399Q438 399 438 404Q438 408 440 411Q432 417 432 422T429 432Q421 430 416 428T405 425T391 423T367 422Q360 422 358 423L355 426Q353 428 353 431Q317 431 288 433T231 439T173 444T110 447L105 444Q99 443 99 443Q90 443
83 443T69 444H53L46 438Q44 436 43 435T40 432Q40 427 40 417T40 396T44 377T52 367Q54 365 56 364T61 361Q71 361 75 361T94 363Q95 366 102 366Q109 366 115 365T123 362Q127 362 131 362T141 363L159 365Q163 370 170 370Q178 370 178 366H184Z" />
<glyph unicode="U" horiz-adv-x="600" d="M520 413Q515 416 514 417T509 423Q494 420 483 420L457 417Q450 417 446 417T433 418Q423 413 420 413T409 410V293Q409 284 411 280T415 270Q411 265 410 261T408 252V247Q408 246 408 245T408 243Q406 234 404 220T399
190T396 158T391 128Q392 127 392 127L390 116Q390 103 382 95T364 83T343 78T328 77L299 74Q293 75 288 77T278 80L258 87Q252 91 248 95T238 103L221 120L218 160Q217 172 217 183T216 202Q216 218 216 231T218 265Q214 270 214 275L211 285Q212 305 212 321T215
354T219 387T223 427L218 432Q215 435 214 438H158Q146 438 134 438T103 439Q98 433 83 429V350Q83 339 83 334T85 322V229L93 168Q94 140 102 118T122 77T151 44T186 16Q204 -1 224 -3T264 -6H290Q292 -7 294 -7Q299 -7 302 -6T312 -5Q314 -5 316 -5T322 -6Q333
0 337 0Q339 0 339 0T341 -1Q353 -1 361 0T385 4L394 12Q402 15 409 20T424 32T438 45T456 54Q459 59 462 62T467 70L478 86L500 178L504 194Q510 224 512 249T515 300T516 353T520 413Z" />
<glyph unicode="V" horiz-adv-x="561" d="M490 379V406L473 408H408L351 303L325 282L305 251L293 216L282 210L275 196L261 187L189 278L178 295L109 398L99 404L49 398L46 385L112 236L128 195L201 82L204 66L215 58H264H339L351 63L365 107L377 120L455 277L470
333L490 379Z" />
<glyph unicode="W" horiz-adv-x="764" d="M362 288L382 238L394 195L453 82L455 67L465 58H502H562L571 63L583 107L592 122L630 217L663 278L674 335L692 381V406L678 408H592L548 303L517 281L502 253L487 200L442 276L387 379V406L375 408H298L252 302L246
264L220 201L190 215L144 279L94 408L86 413L47 407L45 396L98 195L158 82L160 67L169 58H207H267L276 63L288 107L296 121L335 217L362 288Z" />
<glyph unicode="X" horiz-adv-x="506" d="M291 273L141 432Q136 431 129 422T115 402T100 384T86 375Q83 375 82 378Q84 375 103 353T146 301T195 245T233 203L199 153Q190 143 184 135T169 117T146 96T112 65Q89 45 81 35T73 19Q73 13 83 10T107 3T138 -3T166
-9L184 0Q187 2 189 3T195 6T200 12T206 27Q219 40 227 51T244 73T262 97T289 129Q301 115 309 104T324 83T338 64T357 44Q357 30 365 25T379 17L397 8Q414 14 430 16T460 21T482 28T490 43Q490 51 481 63T452 94T406 142T345 209Q359 230 379 258T419 312T452
355T466 373Q463 368 457 368Q454 368 448 371T436 378T425 387T417 393L291 273Z" />
<glyph unicode="Y" horiz-adv-x="497" d="M203 214L187 10L198 -13H213L224 -5H302L322 12L317 58L324 126L317 150L312 188L314 196V213H318L332 236L359 259L436 373L451 413L472 447V467L454 469H388L332 393L305 377L289 358L274 329L264 325L256 315L243
308L170 375L161 387L92 464L82 466L30 463L27 453L93 345L109 314L191 231L194 220L205 214H203Z" />
<glyph unicode="Z" horiz-adv-x="561" d="M456 12Q458 14 461 19T475 36V72Q454 77 443 79T422 84T401 87T368 92Q352 90 341 89T316 88Q308 88 299 90L283 93L267 90Q263 90 258 90T245 88Q245 96 250 105T263 124T279 143T293 158Q303 171 313 183T338 212L405
316L408 327Q414 346 430 363T461 398Q456 407 454 414T448 431L436 464Q432 465 430 466T424 468L414 472Q381 472 355 472T303 471H114Q106 467 103 467T95 466Q95 459 95 453T97 440L99 414Q109 404 128 404T158 405Q183 403 209 402T260 399T304 397T334 396Q321
380 311 366T291 337T269 308T240 280Q219 262 205 245T178 210T151 173T119 130Q104 109 95 95T70 63L56 45Q56 33 57 24T60 4H90Q93 2 95 1T102 0Q138 2 167 3T224 6T281 9T347 14L381 11Q388 10 396 10T415 9Q427 9 434 9T456 12Z" />
<glyph unicode="[" horiz-adv-x="451" d="M413 -25L401 -17H236L227 19L223 46L204 207L195 262V346L190 403L232 410L354 457L368 475L357 499L341 505L235 480L231 471L214 466L209 475L174 466L158 474L126 460H109L98 449V15L97 3V-86H201L248 -75H349L368
-68L400 -64L413 -25Z" />
<glyph unicode="\" horiz-adv-x="552" d="M26 429L33 402L201 158L226 128L373 -80L420 -142L432 -147L532 -90L517 -65L502 -36L455 13L252 307L236 334L129 470L109 473L69 452L26 429Z" />
<glyph unicode="]" horiz-adv-x="451" d="M45 -25L58 -65L90 -68L109 -77H210L257 -86H362V3L366 15V449L347 462L301 475L284 466L230 478L118 497L101 490L90 466L103 449L225 419L268 411L262 346V262L227 55L222 19V-24H57L45 -25Z" />
<glyph unicode="^" horiz-adv-x="405" d="M342 385V401L286 475L205 571L173 560L102 450L52 382L57 367L121 339L129 346L171 421L172 431L193 463H209L285 361H316L342 385Z" />
<glyph unicode="_" horiz-adv-x="681" d="M601 -180L598 -170H538L521 -178L179 -208L145 -205L101 -209L86 -248L96 -270H261L337 -278H555L601 -262V-180Z" />
<glyph unicode="a" horiz-adv-x="488" d="M78 358Q85 358 90 352T100 338T109 324T116 318Q126 320 146 326T191 340T239 352T278 357Q286 357 289 354T294 347T296 340T303 334Q305 331 309 329T313 320Q308 308 307 298T306 278V272L277 270Q270 269 263 269T247
268L217 251Q204 251 195 249T177 242T155 232T123 222Q75 198 52 164T28 80Q28 64 39 49T66 21T99 1T129 -7Q144 -7 157 -7T183 -8H238H239Q241 -8 242 -6T246 0T255 6T274 9Q287 9 301 2T325 -6Q333 -6 340 -5T354 -2T372 1T395 3Q398 -2 406 -6H420Q421 -1 424
3T431 16Q430 39 429 57T427 91T426 126T424 167H427Q428 168 429 168Q426 168 424 176T421 192T420 208T419 216Q418 224 416 228T411 239T406 258T402 297Q399 299 397 309T394 330T392 352T390 365H388Q380 365 375 374T366 394T359 413T352 422Q350 424 348
426T344 431H328Q318 431 312 431T300 431T288 432T273 435Q272 430 262 429T239 427T216 427T204 424Q177 415 155 409T118 397T93 382T78 358ZM295 190V139Q290 123 289 106T288 81V73H274Q254 71 237 70T204 68L134 64Q127 76 123 83T118 104Q118 132 125 148T146
172T178 185T216 194Q226 197 234 199T251 201H255Q265 198 275 195T295 190Z" />
<glyph unicode="b" horiz-adv-x="488" d="M319 282L298 278H282H273Q267 278 267 280L208 285V292L192 355V400Q197 400 197 405Q197 411 194 422T190 448V454L172 468H121L103 451V191L84 188L90 185V9L94 -13H109L120 -5H186L230 -18Q239 -18 251 -16T274 -8L357
20Q367 24 383 35T414 60T441 92T452 124Q452 152 448 171T435 205T411 232T373 258L319 282ZM219 213L237 217Q243 219 248 220T259 224H263Q270 224 282 222T307 216T332 209T350 202Q355 199 367 185T379 148Q379 140 375 134T365 123T353 113T344 102Q329 98
318 94T297 88T277 84T254 82Q250 82 247 82T239 83H226V109L219 155V213Z" />
<glyph unicode="c" horiz-adv-x="478" d="M427 44L423 48Q423 53 421 57T416 68Q409 68 404 66T394 61T381 56T362 53H357Q345 52 337 52T321 52T305 51T285 50Q267 52 255 52T225 58Q224 57 224 57Q223 57 223 57T220 56Q208 60 203 62T197 69Q197 73 188 83T178
106Q178 118 186 130T205 150T224 164T230 168Q232 168 234 170Q236 171 237 172T242 176Q247 182 254 185T289 193Q310 197 322 199T344 201T361 201T382 201Q385 211 387 215T397 233Q395 243 395 256T388 271H333Q321 271 309 271T279 272Q253 263 225 259T175
242Q162 232 153 223T135 203T118 179T99 148Q95 140 93 132T90 116Q90 101 91 87T106 54Q110 50 114 45T118 40L123 35Q125 35 127 30T130 24H147Q159 17 166 13T179 7T193 4T211 3Q216 3 222 3T236 4Q243 4 250 4T267 2Q288 2 302 4T331 11T362 18T404 22Q409
24 418 31T427 41Q427 44 421 44H427Z" />
<glyph unicode="d" horiz-adv-x="524" d="M215 254L161 229Q136 215 122 201T100 170T89 133T82 88Q81 85 81 78Q81 62 90 48T113 25T143 10T175 2L259 -7Q270 -15 281 -17T304 -19L348 -5H414L425 -14H440L451 9V185L450 188L443 190V433L412 449H362L343 436Q343
420 340 407T336 387Q336 382 341 382V337L326 292V285L267 262Q267 260 260 260Q251 260 247 261Q243 261 238 262L215 254ZM324 213V155L316 109V83H304Q285 80 271 79T240 77Q230 77 220 78T196 84Q194 84 193 84T190 83Q172 83 164 95T155 138Q155 160 161
170T178 185T204 192T236 199Q246 201 253 203T270 207H275Q276 206 279 206Q284 206 293 209T315 213H324Z" />
<glyph unicode="e" horiz-adv-x="442" d="M408 44L405 48Q405 53 402 57T397 68Q391 68 386 66T376 61T363 56T344 53H339Q327 52 318 52T301 52T285 51T266 50Q247 53 242 54T236 56Q236 56 237 56T234 58Q233 57 232 57Q231 57 231 57T228 56Q217 60 211 62T204
69Q204 73 195 83T185 106Q185 121 188 144T200 182Q208 187 228 193T268 200Q280 200 286 197T297 188T301 178T302 167Q302 160 297 157T285 153T271 152T259 151Q239 145 227 143T212 141Q217 139 219 133T222 121T223 109T224 103Q259 103 282 106T320 113T344
121T362 126Q366 136 371 138T382 148Q380 162 376 176T366 203T357 225T352 236Q345 236 341 239T334 245T330 251T328 254Q317 254 311 259Q307 261 305 264Q289 264 280 268T260 272Q235 263 207 259T156 242Q144 232 134 223T116 203T99 179T81 148Q76 140
75 132T72 116Q72 101 73 87T87 54Q92 50 95 45T99 40L105 35Q107 35 108 30T111 24H129Q141 17 148 13T161 7T174 4T192 3Q198 3 204 3T218 4Q224 4 231 4T248 2Q270 2 284 4T313 11T344 18T385 22Q391 24 399 31T408 41Q408 44 403 44H408Z" />
<glyph unicode="f" horiz-adv-x="405" d="M334 204L338 212Q338 220 338 223T340 229T343 234T346 242Q340 242 334 244T322 249T313 254T309 256Q306 256 305 258L294 260H271Q267 260 256 260T234 261T214 266T205 275Q205 289 205 294T206 305V316Q206 320
206 324T207 337H206Q206 339 209 343T212 349V350L220 361Q227 374 234 379T250 386T265 388T282 393Q293 390 298 389T305 388T310 387T315 388Q316 390 320 390T328 391H329Q330 396 330 399T330 405Q330 411 329 414T327 419T325 425T322 439Q311 444 288 444Q282
444 271 444T244 444T212 437T180 419Q161 402 151 386T135 352T124 314T109 272Q108 231 107 198T104 132T103 68T101 -3Q109 -5 115 -6T126 -7T139 -8T156 -10Q170 -8 179 -7T195 -4T212 0T236 5Q236 13 236 20T238 34L241 63L232 81Q224 98 223 113T219 147L215
195H267Q275 196 278 197T286 201L316 208Q320 207 324 206T334 204Z" />
<glyph unicode="g" horiz-adv-x="460" d="M404 166Q404 179 405 192T407 217Q407 227 406 235T403 251T398 271T393 302Q391 320 389 331T372 342Q366 342 361 343T355 346Q353 346 350 343T342 335T332 327T319 324Q316 324 312 326T301 333T285 340T261 346Q237
346 205 334T143 300T94 244T74 168Q74 149 78 130T88 92L113 63Q129 58 138 54T155 46T170 41T190 39Q200 39 218 40T256 45T291 50T310 53Q306 39 306 19T302 -22T290 -61T258 -91Q250 -94 227 -101T182 -113Q153 -121 144 -125T133 -132T133 -141T130 -155Q134
-155 134 -160V-161Q134 -165 139 -169T156 -174Q191 -174 221 -166T272 -153Q283 -150 291 -148T309 -141T330 -126T358 -96Q373 -75 386 -45T400 32Q400 53 399 77T398 122Q398 138 399 149T404 166ZM259 273Q274 272 284 271T302 263T313 246T323 214L317 120Q302
111 289 108T265 104Q254 104 243 104T219 105H207L183 131Q183 158 190 189T230 258Q236 264 242 268T259 273Z" />
<glyph unicode="h" horiz-adv-x="497" d="M386 272Q380 274 375 276T365 279L344 286H220L216 295V466L160 472L141 464L126 305L113 255L96 61L105 11H199L224 17V229L244 232L295 235Q307 232 315 226T329 213T336 200T340 190Q342 184 345 180T348 167Q348
163 348 158T347 143L352 142L347 125V55L341 34L350 8H391L417 3L465 28V60L466 73L446 213Q433 221 427 229T415 246T403 262T386 272Z" />
<glyph unicode="i" horiz-adv-x="350" d="M234 394L200 408L156 416L124 423L100 415V320L103 308L163 318L210 309L224 319L234 394ZM241 61L224 75L230 93V140L223 165V234L211 247L190 248L182 244L142 247L125 239L104 -3L114 -14H132L144 -10H221L240 -1L235
23L241 61Z" />
<glyph unicode="j" horiz-adv-x="377" d="M282 409V437L267 446L272 466H278V489L244 502H150L143 492V413L160 397H198L237 387L282 409ZM178 293Q178 285 175 273T168 248T160 228T154 218Q154 194 161 170T168 126Q168 121 168 118T167 111Q167 98 167 79T169
39T171 0T172 -33Q169 -57 167 -74T158 -104T138 -125T101 -139Q72 -150 64 -154T55 -161T58 -163T54 -162Q52 -163 51 -164T45 -171Q50 -178 48 -185T52 -198Q58 -204 58 -208T59 -213T61 -214T77 -215Q84 -215 91 -214T105 -211Q108 -213 111 -213Q116 -213 124
-209T144 -198L172 -186Q178 -183 181 -182T188 -180T197 -176T215 -166Q220 -163 229 -154T250 -129T271 -90T287 -38Q296 10 295 61T296 159Q295 164 295 170T295 186Q295 195 295 205T296 227Q296 247 296 266T295 293Q295 292 294 292H288Q268 292 258 298T238
304Q220 304 206 301T178 293Z" />
<glyph unicode="k" horiz-adv-x="506" d="M231 207Q227 205 223 205Q216 205 213 211L207 242Q206 263 206 297T205 366T202 433T195 481Q178 481 170 481T156 481T141 482T119 484Q113 478 109 478T101 473V428Q101 380 100 339T97 257T95 177T94 91Q94 74 94
56T95 18Q93 14 92 10T90 4Q93 -3 95 -7T99 -16L109 -35Q121 -35 138 -35T172 -36T207 -32T239 -21Q237 -3 237 18T232 64Q227 83 226 90T225 107Q225 112 225 118T233 128Q267 103 286 87T316 60T330 44T335 37L339 30V29Q339 28 342 23T361 2Q370 -6 374 -9T382
-15T386 -18T393 -22L411 -31Q423 -26 435 -13T471 12Q483 17 489 19T495 27Q495 33 490 39T478 51T464 64T452 76Q431 96 411 109T374 133T342 153T313 172Q330 184 344 195T372 219T402 247T439 283Q436 289 433 296T422 307Q420 306 414 306Q410 306 405 307T394
312Q380 304 371 299T352 288T330 272T300 244Q282 236 276 231T260 221Q255 217 248 213T233 201Q231 202 231 205V207Z" />
<glyph unicode="l" horiz-adv-x="304" d="M195 330L190 339L198 371V464L186 472L109 431L101 397V268L82 4L97 -9L159 -4L184 -12L205 2V180V218L195 330Z" />
<glyph unicode="m" horiz-adv-x="635" d="M581 112L578 298Q571 314 562 329T538 351L440 353L409 350L397 343L373 339L325 368L271 372L212 351L200 354L195 363L170 380L148 377L103 388L83 350L75 265V89L127 85L141 92H194L216 97V298H266L278 281L282 243V165V106L292
97H374L396 114L386 183V230V263L388 285L431 281L437 263L450 159V109L476 98H572L581 112Z" />
<glyph unicode="n" horiz-adv-x="478" d="M378 334L362 347H293L235 323L212 313L191 304L160 360H90L72 334V309V134L86 101L112 111H128L143 102L191 114L185 210L183 212V252L247 259L265 269H277L300 236L284 120L297 109H401L411 121V241L415 264L378 334Z" />
<glyph unicode="o" horiz-adv-x="460" d="M55 250Q52 232 52 216T51 187Q51 163 58 145L68 132L174 101H198Q202 102 207 104T218 110L302 138Q309 141 322 148T348 164T370 186T379 211Q379 259 355 298T285 358H283Q279 358 269 357T251 356Q244 356 239 358T233
364L162 353Q144 348 126 339T93 318T68 289T55 250ZM240 296Q252 292 266 289T292 281T313 266T328 239L302 201L195 179H181L155 202L160 262Q166 265 172 271T185 283T202 294T223 299Q230 299 240 296Z" />
<glyph unicode="p" horiz-adv-x="460" d="M64 -54L75 -77H91L102 -68H179L200 -52L196 -6L201 62L197 80Q210 82 218 84T238 94L348 131Q358 134 375 143T410 165T439 193T452 225Q452 256 442 287T411 343T361 386T292 405Q280 406 270 408T258 419L167 411H152L144
404L107 409L97 366L87 241L76 208V24L64 -54ZM183 326Q191 327 198 327T213 328Q232 328 263 319Q280 315 298 314T332 308T361 294T380 262L344 213L206 185H191V212L183 258V326Z" />
<glyph unicode="q" horiz-adv-x="451" d="M414 -54V132L402 208L391 241L382 366L372 409L334 404L327 412H311L221 419Q219 410 208 408T185 405T163 404T152 401Q90 374 59 332T27 225V215Q46 183 73 162T131 131L240 94Q251 87 260 85T282 80L279 62V-6V-52L299
-68H376L387 -77H403L414 -54ZM295 326V258L288 212V185H274L134 213L98 262Q103 284 115 294T144 308T179 313T215 319Q231 324 242 326T264 328Q271 328 278 328T295 326Z" />
<glyph unicode="r" horiz-adv-x="405" d="M374 326L336 386L323 382L256 328L226 276L205 256V325L178 383H120L104 365V109L99 98L101 72L211 81L228 91V111L233 143L228 196Q235 201 239 208T249 222T262 237T281 254L327 289Q338 297 349 306T374 326Z" />
<glyph unicode="s" horiz-adv-x="423" d="M341 163Q339 172 332 177T325 191Q316 194 311 196T303 200T296 205T285 211Q283 211 274 216T261 223L247 230Q234 236 229 241T222 250L204 267Q200 267 197 271T193 291Q193 305 196 312T219 329H221Q224 329 229
331T238 339Q238 341 241 343T265 351Q270 351 273 352T281 357H295Q298 357 301 357T308 359Q307 359 307 360Q308 360 308 361Q308 362 309 362Q309 365 309 367T308 371V377Q308 392 301 394T288 402Q276 400 268 400T247 399Q240 399 238 399T234 401Q221 396
211 395T189 388L151 372Q138 364 123 357T97 338Q92 329 81 321Q81 312 77 307T72 295Q72 293 73 292T74 286Q74 282 73 277T70 270Q70 261 75 251T86 238L95 230Q105 226 112 221T125 211T137 201T154 195Q168 190 171 187T175 181T178 176T193 167Q193 163 200
156L208 148Q211 140 211 133Q211 124 205 119T190 110T174 105T167 105Q144 98 135 95T116 92Q109 92 88 95Q86 92 81 92Q76 92 69 95T62 97Q68 83 67 72T71 60H72Q71 59 70 57Q69 55 69 52Q69 52 70 52Q68 51 68 51Q68 49 76 45T86 40Q105 42 124 46T166 50Q180
50 192 47T217 44Q236 44 247 48T266 56T279 64T293 68L314 78Q325 84 334 95T344 121Q344 130 343 140T341 163Z" />
<glyph unicode="t" horiz-adv-x="432" d="M279 234L305 235Q310 233 314 232T325 231Q329 231 333 232T342 234T354 235T374 236Q378 236 381 236T387 235Q388 235 389 235T397 239Q392 239 392 246Q392 247 393 252T394 259Q393 259 393 264Q393 268 395 270Q388
275 388 280T384 292Q378 290 375 290Q368 290 366 290T360 292T350 293T325 295Q313 296 296 297T259 300L249 411L240 424L174 418L158 395L155 305Q141 305 128 305T103 306Q93 303 92 303Q83 303 76 303T62 305H46L31 292Q31 284 31 274T32 254T37 237T45 227L53
220Q63 220 68 220T86 223Q87 225 95 225Q101 225 107 224T116 222Q119 222 122 222T130 223L144 224L140 204V74L144 17L155 -6L180 -2L262 -8L318 0Q324 17 324 34Q324 51 318 70L279 91V234Z" />
<glyph unicode="u" horiz-adv-x="451" d="M376 247L346 351L296 362L281 354V191L269 183H252L201 166L190 170L186 185L178 197V307L161 359H86L70 354L62 289L79 255L68 146L90 91L114 83L142 65L164 72L168 79L203 75L223 85L263 125L276 131L286 121L283 114L307
98H367L376 110V247Z" />
<glyph unicode="v" horiz-adv-x="432" d="M378 354L374 362H312L275 365L252 336L253 325L178 167L162 237L121 337L99 378L87 377L64 380L52 378L42 360L89 224L129 110L132 96L145 81H203L250 90L272 127L313 204L341 268L359 305L360 319L374 340L378 354Z" />
<glyph unicode="w" horiz-adv-x="626" d="M305 194L328 96L342 81H402L456 90L479 127L534 236L566 305L567 319L580 340L585 354L580 362H518L482 365L458 336L459 325L385 170L346 270L309 366L270 369L255 319L183 167L167 237L127 337L105 378L93 377L70 380L58
378L47 360L95 224L133 110L136 96L150 81H209L255 90L278 144L305 194Z" />
<glyph unicode="x" horiz-adv-x="497" d="M420 380Q420 379 417 379Q413 379 407 382T395 388T384 395T376 401L254 305L107 433Q103 431 97 424T83 409T68 394T54 387Q52 387 49 390Q49 391 67 373T110 331T160 282T199 246L165 206Q155 196 144 185T117 160L80
134Q56 118 49 111T42 98Q42 92 52 89T76 83T105 78T132 73Q138 75 142 77T149 81L167 90Q167 95 172 102T184 116T197 130T208 141Q216 149 226 159T252 185Q264 172 273 163T289 146T303 129T321 110Q321 106 325 103T336 96T348 91T359 87Q370 91 385 93T415
98T438 104T448 117Q448 121 439 135T398 175Q373 195 351 213T307 251Q319 266 336 285T371 325L420 380Z" />
<glyph unicode="y" horiz-adv-x="460" d="M206 49L106 -145L119 -169H133L144 -161H213L233 -145L247 -100L271 -40L302 9L314 29V48H309L323 70L350 94L380 165L411 210L433 248L445 284V303H362L324 254L305 213L288 192L278 164L268 160L259 149L247 144L169
210L160 222L91 298L81 302L29 297L26 287L92 180L109 148L195 65L198 55L209 49H206Z" />
<glyph unicode="z" horiz-adv-x="442" d="M382 146L346 160H287L282 155H245L235 141L216 159L267 210L272 223L305 268V282L316 284V288L313 294L335 306L336 317L375 377L365 389H167L155 387H73L59 341V321L143 316L189 325H212V306L69 115L71 97L85 83H238L254
85L374 93L382 103V146Z" />
<glyph unicode="{" horiz-adv-x="469" d="M233 -209V-208Q233 -207 235 -206Q238 -204 243 -204Q250 -204 251 -205T253 -208Q253 -210 253 -210T252 -211V-212Q260 -212 265 -209T277 -200T298 -186T339 -165Q360 -155 376 -147T393 -132V-99Q391 -94 387 -91Q385
-89 382 -88Q381 -89 375 -89Q364 -89 343 -86T305 -83Q294 -83 289 -85Q284 -75 280 -69T276 -62Q276 -60 279 -57Q279 -52 279 -35T278 4Q278 25 280 46T283 84Q273 92 272 101T269 120T263 140T244 163Q236 169 229 173T220 179Q220 180 228 187T248 203T268
222T277 239Q277 254 270 266T255 291T241 317T234 349Q234 357 238 368T251 388T270 405T293 415Q294 412 298 412Q311 412 313 424T316 448Q316 457 316 463T315 475T308 483T292 490Q283 493 275 495T265 497Q263 495 256 489T241 483Q230 483 228 488Q216 487
201 481T171 464T148 438T138 406Q138 386 143 364T154 322T166 284T171 255Q171 249 160 238T134 215T108 195T95 187V172Q96 168 103 167L110 158Q110 157 115 155T126 151T141 146T155 144Q159 144 163 146Q169 133 172 127T176 117T177 110T177 104V2Q177 -36
177 -57T178 -91T178 -108T178 -118Q178 -122 177 -133T173 -153Q177 -155 183 -164T198 -182T216 -199T233 -209Z" />
<glyph unicode="|" horiz-adv-x="405" d="M268 393L259 418L266 439L257 462V498L246 512L219 502H152L144 489V-63L176 -78L199 -72H238L264 -2L257 20L260 59V348L266 364L262 383L268 393Z" />
<glyph unicode="}" horiz-adv-x="469" d="M229 -202V-201Q229 -200 231 -198T240 -195Q245 -195 246 -195T249 -197L251 -199L250 -200Q257 -199 265 -193T282 -178T298 -163T310 -153Q307 -144 306 -133T305 -118V-110Q305 -109 305 -107T306 -99V86Q306 95 307
108T320 141Q321 140 324 140Q328 140 336 144T352 153T366 162T373 167Q374 174 379 175T388 181V196Q386 196 374 202T349 217T324 234T312 249Q312 259 317 277T328 318T340 363T345 406Q345 423 336 438T312 464T282 481T255 489Q254 487 252 486Q249 483 242
483Q234 483 226 489T218 497Q215 497 204 495T181 491T160 484T150 475Q150 470 150 466T149 454Q149 447 149 440T151 426T160 416T178 412Q187 412 190 416Q201 413 212 405T231 388T244 368T249 349Q249 330 243 316T228 289T213 262T206 235Q206 227 215 217T235
198T254 182T263 174Q260 173 253 166T237 150T222 131T215 115Q215 107 211 91T200 68Q201 52 202 30T204 -13V-74Q206 -75 206 -77Q206 -81 202 -87T194 -102Q193 -102 192 -102T190 -101Q183 -101 170 -107T143 -121T118 -135T102 -142Q101 -142 101 -141Q96
-141 94 -146T91 -159T90 -173T90 -185Q90 -188 96 -190T111 -193T132 -196T154 -197Q161 -197 166 -197T175 -196Q180 -196 188 -197T205 -199T219 -201T229 -202Z" />
<glyph unicode="~" horiz-adv-x="626" d="M615 272Q614 288 610 299T605 326Q598 326 598 326T592 328Q578 324 563 311T531 285T499 261T466 250Q436 250 416 254T382 265T358 277T339 290Q338 290 338 290T337 289Q332 289 321 297T297 314T273 332T258 344Q249
347 238 347Q224 347 207 344T177 341H173Q147 329 132 318T102 295T72 272T29 248Q28 242 28 237T28 225Q31 215 35 209T42 198L58 172H67Q89 172 107 186T151 220Q160 225 165 229T175 235T186 238T202 239Q228 239 244 234T272 221T298 201T330 178Q333 170
339 167T354 162T369 158T383 152H412Q416 151 419 151T427 150Q433 150 444 152T465 158L489 167Q496 167 500 167T513 169L540 200Q545 200 554 201L569 204Q572 207 577 216T588 236T601 257T615 272Z" />
<glyph unicode="&#xa1;" horiz-adv-x="690" d="M302 180V117L305 77L306 59V-60L327 -74L338 -66L408 -73L425 -58V135L409 270L399 293L385 291H331L316 279L307 214L301 197L302 180ZM415 464L394 472L346 477L308 455L305 426L301 412L311 362H395L415 369V464Z" />
<glyph unicode="&#xb7;" horiz-adv-x="230" d="M164 257L143 265L113 270L75 248L72 219L68 205L78 164H144L164 171V257Z" />
<glyph unicode="&#xbf;" horiz-adv-x="690" d="M172 35Q174 23 180 10T194 -14T212 -34T232 -45Q232 -47 232 -48T231 -52V-56Q266 -82 310 -97T411 -114Q424 -112 433 -111T452 -108T471 -105T496 -100Q496 -80 498 -64T500 -30Q500 -18 498 -2Q477 -2 454 -4T408
-6Q395 -6 377 -5T342 1T314 14T302 35Q302 52 320 69T365 101T417 128T456 149Q460 154 463 165T477 188Q477 201 476 207T474 216T473 225T472 243Q472 266 472 282T474 323Q466 325 461 327T452 333Q437 333 427 333T408 334T388 335T364 337Q359 327 355 322T346
309L344 298Q344 294 344 290T343 280Q343 272 343 262T344 243T345 227T346 219Q341 217 337 211T326 202Q318 198 313 196T304 190L282 179L277 174Q259 167 240 157T206 133T180 102T169 63Q169 50 172 35ZM459 501L438 510L387 514L350 493L346 464L342 450L352
397H439L459 405V501Z" />
<glyph unicode="&#x2018;" horiz-adv-x="230" d="M190 452L184 512L134 524L146 600L121 604L101 594L89 539V480L95 421H153L185 429L190 452Z" />
<glyph unicode="&#x2019;" horiz-adv-x="230" d="M37 557L42 496L92 484L80 408L105 404L125 414L137 469V528L132 587H74L41 580L37 557Z" />
<glyph unicode="&#x201c;" horiz-adv-x="340" d="M306 452L301 512L251 524L263 600L238 604L218 594L206 539V480L212 421H270L302 429L306 452ZM183 452L178 512L128 524L140 600L115 604L95 594L83 539V480L88 421H146L178 429L183 452Z" />
<glyph unicode="&#x201d;" horiz-adv-x="340" d="M29 553L35 492L85 480L73 405L98 400L118 410L130 466V524L124 583H66L34 576L29 553ZM153 553L158 492L208 480L196 405L221 400L241 410L253 466V524L247 583H190L157 576L153 553Z" />
</font>
</defs>
</svg>
