<?xml version="1.0" standalone="no"?>
<!DOCTYPE svg PUBLIC "-//W3C//DTD SVG 1.1//EN" "http://www.w3.org/Graphics/SVG/1.1/DTD/svg11.dtd">
<svg xmlns="http://www.w3.org/2000/svg">
<defs >
<font id="RethinkSans" horiz-adv-x="559" ><font-face
    font-family="Rethink Sans"
    units-per-em="1000"
    panose-1="0 0 0 0 0 0 0 0 0 0"
    ascent="992"
    descent="-310"
    alphabetic="0" />
<glyph unicode=" " horiz-adv-x="265" />
<glyph unicode="!" horiz-adv-x="248" d="M87 194L77 700H168L158 194H87ZM125 -5Q100 -5 84 11T67 52Q67 76 83 92T125 109Q149 109 165 93T182 52Q182 28 166 12T125 -5Z" />
<glyph unicode="&quot;" horiz-adv-x="370" d="M190 477L247 700H341L250 477H190ZM33 477L91 700H185L93 477H33Z" />
<glyph unicode="#" horiz-adv-x="814" d="M145 0L188 197H46V272H204L238 435H88V509H254L296 706H376L334 509H549L591 706H670L628 509H767V435H612L578 272H723V197H562L519 0H439L482 197H267L225 0H145ZM283 272H498L533 435H318L283 272Z" />
<glyph unicode="$" horiz-adv-x="578" d="M254 -86V-9Q194 -2 147 25T72 100T44 210H132Q132 151 165 113T254 63V333L227 342Q177 360 142 383T87 439T68 520Q67 576 91 616T158 681T254 710V791H323V710Q376 704 417 680T484 615T510 518H422Q422 562 395 594T323
636V395L329 393Q377 377 415 360T479 319T519 263T533 183Q533 125 505 83T429 18T323 -11V-86H254ZM323 60Q377 66 411 96T446 178Q446 217 433 240T392 280T323 310V60ZM254 419V638Q211 632 183 604T155 528Q155 485 176 463T254 419Z" />
<glyph unicode="%" horiz-adv-x="773" d="M138 0L545 700H629L222 0H138ZM200 375Q155 375 119 396T61 454Q40 492 40 543Q40 595 61 632T120 691Q157 711 201 711Q246 711 282 691T339 633Q350 614 355 592T360 543Q360 491 339 454T281 396Q245 375 200 375ZM200
440Q235 440 261 466T288 543Q288 595 262 621T201 648Q166 648 139 622T111 543Q111 492 138 466T200 440ZM574 -12Q529 -12 493 9T435 67Q414 105 414 156Q414 208 435 245T493 304Q530 324 574 324Q619 324 655 304T712 246Q723 227 728 205T733 156Q733 104
712 67T655 9Q619 -12 574 -12ZM573 53Q609 53 635 79T662 156Q662 208 636 234T574 260Q539 260 512 234T485 156Q485 105 511 79T573 53Z" />
<glyph unicode="&amp;" horiz-adv-x="691" d="M258 -12Q207 -12 168 4T101 48T59 112T45 188Q45 231 62 267T105 333T161 382L167 387L161 394Q134 426 118 460T102 535Q102 585 125 625T192 688T296 712Q356 712 400 689T468 623T493 522H411Q411 561 397 587T357
626T295 640Q261 640 236 627T198 589T184 534Q184 486 219 444T307 350L452 207L561 404H648L506 154L662 0H558L462 95L457 87Q420 44 373 16T258 -12ZM262 61Q309 61 344 82T411 145L219 333Q179 308 153 273T126 191Q126 158 142 128T189 80T262 61Z" />
<glyph unicode="&apos;" horiz-adv-x="213" d="M33 477L91 700H185L93 477H33Z" />
<glyph unicode="(" horiz-adv-x="372" d="M248 -145Q194 -93 148 -22T75 140Q61 184 54 232T47 333Q47 437 74 526T148 688Q195 760 248 811H334V803Q242 713 187 593T131 333Q131 194 187 74T334 -137V-145H248Z" />
<glyph unicode=")" horiz-adv-x="372" d="M38 -145V-137Q129 -47 185 73T241 333Q241 472 186 592T38 803V811H124Q151 785 176 754T224 688Q270 616 297 527T325 333Q325 281 319 233T298 140Q270 50 224 -21T124 -145H38Z" />
<glyph unicode="*" horiz-adv-x="478" d="M211 356V493L93 425L63 476L181 545L63 613L93 664L211 596V733H270V596L390 664L419 613L300 545L419 476L390 425L270 493V356H211Z" />
<glyph unicode="+" horiz-adv-x="600" d="M263 72V255H72V326H263V508H338V326H529V255H338V72H263Z" />
<glyph unicode="," horiz-adv-x="178" d="M2 -119L60 102H147L60 -119H2Z" />
<glyph unicode="-" horiz-adv-x="513" d="M59 255V326H455V255H59Z" />
<glyph unicode="." horiz-adv-x="195" d="M98 -5Q73 -5 57 11T40 52Q40 76 56 92T98 109Q122 109 138 93T155 52Q155 28 139 12T98 -5Z" />
<glyph unicode="/" horiz-adv-x="391" d="M28 -95L279 764H362L111 -95H28Z" />
<glyph unicode="0" horiz-adv-x="600" d="M301 -12Q205 -12 147 36T63 166T37 350Q37 452 63 534T147 664T301 712Q397 712 454 665T538 536T564 350Q564 246 538 164T455 35T301 -12ZM301 63Q393 63 435 140T478 350Q478 483 436 560T301 637Q210 637 167 560T123
350Q123 217 166 140T301 63Z" />
<glyph unicode="1" horiz-adv-x="600" d="M89 0V69H304V604L92 547V606L341 700H385V69H563V0H89Z" />
<glyph unicode="2" horiz-adv-x="600" d="M73 0V73Q73 73 88 89T130 132T185 189T244 250T295 303Q332 341 361 374T409 438T427 500Q427 562 397 601T298 640Q255 640 224 621T176 568T159 492H78Q78 559 105 608T183 684T299 712Q364 712 411 689T485 619T511
503Q511 456 488 415T433 340T374 278Q358 262 333 236T280 182T228 128T188 86T172 70H535V0H73Z" />
<glyph unicode="3" horiz-adv-x="600" d="M303 -12Q234 -12 181 12T96 82T56 190H137Q150 135 191 98T303 60Q380 60 421 103T463 212Q463 283 420 320T304 357Q285 357 266 352T229 336L177 395L418 631H85V700H521V634L303 419Q348 424 391 413T468 375T523
308T544 213Q544 142 514 92T429 15T303 -12Z" />
<glyph unicode="4" horiz-adv-x="600" d="M386 0V150H42V215L285 700H368L131 224H390V423H469V224H571V150H469V0H386Z" />
<glyph unicode="5" horiz-adv-x="600" d="M306 -12Q239 -12 186 12T99 82T58 189H140Q152 131 196 96T307 60Q357 60 393 83T448 146T468 236Q468 314 424 362T310 410Q252 410 211 384T151 316H71L131 700H498V627H196L155 414Q179 443 221 462T319 481Q388 481
439 449T520 362Q534 334 541 303T549 237Q549 164 519 108T434 20T306 -12Z" />
<glyph unicode="6" horiz-adv-x="600" d="M318 -12Q247 -12 198 16T118 93Q89 141 76 200T62 322Q62 438 92 525T180 662Q208 687 242 699T317 712Q379 712 423 686T494 616Q507 594 514 570T526 520H449Q439 577 404 608T316 639Q269 639 230 609T167 513T141
341Q164 388 211 418T328 448Q385 448 434 420T515 341Q546 290 546 223Q546 164 519 110T439 22Q389 -12 318 -12ZM313 62Q360 62 393 83T443 141T461 219Q461 290 419 332T313 375Q269 375 235 353T183 296T164 218Q164 174 182 139T235 83T313 62Z" />
<glyph unicode="7" horiz-adv-x="600" d="M164 0L461 628H55V700H547V637L253 0H164Z" />
<glyph unicode="8" horiz-adv-x="600" d="M300 -12Q235 -12 182 13T97 83T65 190Q65 254 101 305T198 373Q143 392 113 434T83 526Q83 585 112 626T191 690T300 712Q362 712 411 689T489 624T518 526Q518 477 488 435T402 373Q463 356 499 305T535 190Q535 144
517 107T467 44T392 3T300 -12ZM300 62Q371 62 411 98T451 195Q451 263 408 298T300 333Q236 333 193 298T149 195Q149 135 189 99T300 62ZM300 403Q356 403 394 435T433 521Q433 580 394 610T300 640Q245 640 207 610T168 521Q168 468 206 436T300 403Z" />
<glyph unicode="9" horiz-adv-x="600" d="M287 -12Q225 -12 181 14T110 84Q84 129 78 180H155Q166 123 201 92T288 61Q335 61 374 91T437 188T463 359Q441 312 394 282T275 252Q219 252 170 280T89 359Q58 408 58 477Q58 536 85 590T164 678Q214 712 286 712Q357
712 406 684T485 607Q515 559 528 500T542 378Q542 262 512 175T424 38Q396 13 362 1T287 -12ZM291 325Q336 325 369 347T421 406T440 482Q440 528 420 563T367 618T291 638Q245 638 212 617T161 561T143 481Q143 410 185 368T291 325Z" />
<glyph unicode=":" horiz-adv-x="199" d="M98 394Q73 394 57 410T40 451Q40 475 56 491T98 508Q122 508 138 492T155 451Q155 427 139 411T98 394ZM98 -5Q73 -5 57 11T40 52Q40 76 56 92T98 109Q122 109 138 93T155 52Q155 28 139 12T98 -5Z" />
<glyph unicode=";" horiz-adv-x="223" d="M23 -119L81 102H168L81 -119H23ZM123 394Q98 394 82 410T65 451Q65 475 81 491T123 508Q147 508 163 492T180 451Q180 427 164 411T123 394Z" />
<glyph unicode="&lt;" horiz-adv-x="600" d="M369 137L125 367L369 598H476L231 367L476 137H369Z" />
<glyph unicode="=" horiz-adv-x="600" d="M101 359V431H500V359H101ZM101 151V223H500V151H101Z" />
<glyph unicode="&gt;" horiz-adv-x="600" d="M125 137L370 367L125 598H232L476 367L232 137H125Z" />
<glyph unicode="?" horiz-adv-x="516" d="M151 196L147 357H178Q234 357 282 368T361 411Q391 443 391 507Q391 569 353 605T251 641Q187 641 150 606T113 512H33Q33 572 60 617T137 687Q162 700 190 706T251 712Q316 712 366 687T444 616Q458 593 465 566T472
507Q472 433 441 387T354 320Q326 310 294 305T227 299L224 196H151ZM187 -5Q162 -5 146 11T129 52Q129 76 145 92T187 109Q212 109 228 93T244 52Q244 28 228 12T187 -5Z" />
<glyph unicode="@" horiz-adv-x="1034" d="M519 -212Q422 -212 340 -181T198 -93T105 43T72 218Q72 316 106 396T202 534T346 623T523 654Q614 654 694 626T834 545T929 417T964 248Q964 183 944 127T882 36T777 2Q734 2 703 22T655 80Q630 50 594 25T498 0Q435
0 388 28T315 106T288 219Q288 282 314 331T388 407T499 435Q544 435 581 419T644 370V425H724V147Q724 115 741 94T791 73Q831 73 854 99T887 166T897 246Q897 352 849 430T717 550T523 593Q441 593 372 566T250 488T169 369T140 218Q140 134 169 66T251 -50T371
-124T519 -150Q569 -150 615 -141T701 -113L721 -173Q702 -181 681 -188T634 -200Q577 -212 519 -212ZM510 72Q577 72 613 114T650 218Q650 261 633 293T585 345T510 364Q446 364 409 323T371 218Q371 151 410 112T510 72Z" />
<glyph unicode="A" horiz-adv-x="664" d="M30 0L288 700H377L634 0H545L481 180H183L118 0H30ZM208 248H456L332 594L208 248Z" />
<glyph unicode="B" horiz-adv-x="602" d="M74 0V700H315Q414 700 471 653T529 529Q529 471 498 431T421 377Q467 363 498 337T545 277T561 199Q561 141 537 96T464 26T338 0H74ZM158 70H312Q389 70 432 102T476 204Q476 275 429 307T310 339H158V70ZM158 406H309Q374
406 409 436T444 518Q444 571 409 600T306 630H158V406Z" />
<glyph unicode="C" horiz-adv-x="720" d="M381 -12Q275 -12 200 35T86 165T47 350Q47 452 85 534T199 664T381 712Q501 712 576 655T673 494H580Q564 559 515 598T381 638Q298 638 243 600T161 496T133 350Q133 267 161 202T245 100T381 62Q465 62 514 100T580
203H673Q652 102 577 45T381 -12Z" />
<glyph unicode="D" horiz-adv-x="696" d="M74 0V700H289Q413 700 492 658T610 537T649 348Q649 240 611 162T493 42T289 0H74ZM158 70H287Q387 70 447 102T535 197T562 348Q562 491 496 560T287 630H158V70Z" />
<glyph unicode="E" horiz-adv-x="564" d="M74 0V700H507V631H158V404H463V336H158V69H507V0H74Z" />
<glyph unicode="F" horiz-adv-x="534" d="M74 0V700H500V631H158V395H449V327H158V0H74Z" />
<glyph unicode="G" horiz-adv-x="757" d="M375 -12Q275 -12 202 34T88 162T47 349Q47 453 87 535T203 664T387 712Q505 712 583 655T685 498H588Q574 561 522 598T387 635Q304 635 247 597T162 495T133 349Q133 267 162 202T246 100T378 63Q490 63 547 128T612
308H360V374H698V0H621L614 115Q576 54 521 21T375 -12Z" />
<glyph unicode="H" horiz-adv-x="679" d="M74 0V700H158V405H521V700H605V0H521V336H158V0H74Z" />
<glyph unicode="I" horiz-adv-x="232" d="M74 0V700H158V0H74Z" />
<glyph unicode="J" horiz-adv-x="499" d="M230 -12Q135 -12 81 41T27 188H112Q112 135 138 99T229 63Q292 63 316 98T341 185V700H425V185Q425 92 374 40T230 -12Z" />
<glyph unicode="K" horiz-adv-x="582" d="M542 700L296 436L569 0H467L236 371L158 288V0H74V700H158V398L436 700H542Z" />
<glyph unicode="L" horiz-adv-x="525" d="M74 0V700H158V67H484V0H74Z" />
<glyph unicode="M" horiz-adv-x="827" d="M74 0V700H172L414 214L654 700H753V0H669V548L445 100H382L158 547V0H74Z" />
<glyph unicode="N" horiz-adv-x="689" d="M74 0V700H158L531 139V700H615V0H531L158 561V0H74Z" />
<glyph unicode="O" horiz-adv-x="784" d="M392 -12Q312 -12 248 15T139 92T71 207T47 350Q47 427 70 493T139 608T247 684T392 712Q472 712 535 686T644 611T713 496T737 350Q737 271 713 205T644 90T536 15T392 -12ZM392 62Q474 62 532 99T620 201T651 350Q651
436 621 500T532 601T392 637Q311 637 253 600T164 499T133 350Q133 267 164 202T253 99T392 62Z" />
<glyph unicode="P" horiz-adv-x="579" d="M74 0V700H305Q379 700 432 678T514 612T543 502Q543 434 513 390T429 325T305 304H158V0H74ZM158 375H303Q387 375 422 407T457 502Q457 565 422 597T303 630H158V375Z" />
<glyph unicode="Q" horiz-adv-x="789" d="M677 -11L607 56Q565 24 511 6T392 -12Q312 -12 248 15T139 92T71 207T47 350Q47 427 70 493T139 608T247 684T392 712Q472 712 535 686T644 611T713 496T737 350Q737 277 717 215T658 106L727 41L677 -11ZM133 350Q133
267 164 202T253 99T392 62Q440 62 480 74T552 110L443 215L494 267L601 162Q626 199 638 247T651 350Q651 436 621 500T532 601T392 637Q311 637 253 600T164 499T133 350Z" />
<glyph unicode="R" horiz-adv-x="593" d="M74 0V700H281Q355 700 407 679T487 614T515 505Q515 423 473 381T357 326L558 0H454L274 310H158V0H74ZM158 381H279Q335 381 368 394T415 436T429 505Q429 547 415 575T368 616T279 630H158V381Z" />
<glyph unicode="S" horiz-adv-x="578" d="M297 -12Q226 -12 169 14T78 89T44 210H132Q132 140 178 100T297 59Q361 59 403 90T446 178Q446 217 433 240T392 279T324 309T227 342Q177 360 142 383T87 439T68 520Q67 582 96 624T176 689T288 712Q350 712 399 690T479
624T510 518H422Q422 571 384 605T285 640Q231 642 193 613T155 528Q155 491 170 470T224 432T329 393Q377 377 415 360T479 319T519 263T533 183Q533 120 501 77T415 11T297 -12Z" />
<glyph unicode="T" horiz-adv-x="560" d="M238 0V631H29V700H531V631H322V0H238Z" />
<glyph unicode="U" horiz-adv-x="656" d="M327 -12Q235 -12 178 25T95 124T68 258V700H152V257Q152 155 201 109T329 63Q408 63 456 109T504 257V700H588V258Q588 181 565 129T504 46T419 2T327 -12Z" />
<glyph unicode="V" horiz-adv-x="668" d="M285 0L22 700H113L334 89L557 700H646L383 0H285Z" />
<glyph unicode="W" horiz-adv-x="967" d="M273 0L23 700H109L321 79L428 383L317 700H403L483 452L563 700H649L538 383L645 79L857 700H943L693 0H597L483 319L369 0H273Z" />
<glyph unicode="X" horiz-adv-x="602" d="M31 0L252 376L58 700H152L301 451L442 700H537L346 377L571 0H477L297 300L127 0H31Z" />
<glyph unicode="Y" horiz-adv-x="579" d="M248 0V266L20 700H115L290 346L465 700H559L332 266V0H248Z" />
<glyph unicode="Z" horiz-adv-x="535" d="M44 0V66L389 627H49V700H487V634L141 73H491V0H44Z" />
<glyph unicode="[" horiz-adv-x="307" d="M74 -151V811H248V742H153V-81H248V-151H74Z" />
<glyph unicode="\" horiz-adv-x="391" d="M280 -95L28 764H112L362 -95H280Z" />
<glyph unicode="]" horiz-adv-x="307" d="M59 -151V-81H154V742H59V811H233V-151H59Z" />
<glyph unicode="^" horiz-adv-x="620" d="M37 178L272 700H349L584 178H498L311 597L123 178H37Z" />
<glyph unicode="_" horiz-adv-x="642" d="M59 -115V-36H583V-115H59Z" />
<glyph unicode="`" horiz-adv-x="0" d="M361 557L151 674V747L361 620V557Z" />
<glyph unicode="a" horiz-adv-x="571" d="M234 -12Q183 -12 141 5T75 56T50 141Q50 199 80 233T159 283T266 299H400Q400 351 383 381T337 424T275 437Q226 437 191 414T146 341H60Q65 395 96 432T174 488T275 508Q350 508 396 481T463 407T484 305V153Q484 116
493 97T539 74V0Q506 0 479 8T434 36T407 88Q382 46 339 17T234 -12ZM247 59Q297 59 331 84T382 150T400 233V234H273Q238 234 207 227T157 200T138 145Q138 100 170 80T247 59Z" />
<glyph unicode="b" horiz-adv-x="628" d="M334 -12Q273 -12 226 13T153 83L145 0H69V700H153V414Q177 450 221 479T335 508Q410 508 465 474T550 381T580 247Q580 173 550 114T465 22T334 -12ZM325 61Q376 61 414 84T473 150T495 248Q495 301 475 343T416 410T325
435Q275 435 237 412T177 346T155 248Q155 196 176 154T235 86T325 61Z" />
<glyph unicode="c" horiz-adv-x="570" d="M297 -12Q227 -12 171 20T81 110T48 248Q48 325 80 383T168 475T297 508Q385 508 445 462T522 339H436Q426 385 387 410T296 436Q243 436 207 410T153 341T134 248Q134 193 155 150T212 83T296 59Q348 59 387 84T436 157H522Q512
107 481 69T403 10T297 -12Z" />
<glyph unicode="d" horiz-adv-x="628" d="M294 -12Q218 -12 163 23T78 117T48 249Q48 321 77 380T162 473T295 508Q356 508 403 483T476 413V700H560V0H484L476 82Q452 46 407 17T294 -12ZM303 61Q358 61 396 86T453 154T473 248Q473 302 453 344T395 410T303
435Q255 435 217 412T157 348T134 248Q134 190 157 148T218 84T303 61Z" />
<glyph unicode="e" horiz-adv-x="569" d="M292 -12Q223 -12 168 20T80 110T48 248Q48 326 78 384T164 475T294 508Q364 508 416 477T497 394T527 276Q527 262 527 254T526 229H131Q134 180 154 142T210 81T292 59Q344 59 379 83T430 148H513Q500 102 470 66T396
9T292 -12ZM132 294H444Q441 361 398 399T292 437Q232 437 186 401T132 294Z" />
<glyph unicode="f" horiz-adv-x="333" d="M96 0V425H21V496H96V562Q96 634 132 667T237 700H287V628H250Q212 628 196 613T180 560V496H302V425H180V0H96Z" />
<glyph unicode="g" horiz-adv-x="529" d="M266 -232Q207 -232 153 -217T66 -167T32 -72Q32 -31 51 -4T101 37Q77 51 62 72T47 120Q47 180 101 217Q81 240 70 268T58 332Q58 387 83 426T153 487T255 508Q297 508 334 496H503V425H426Q439 405 445 382T452 332Q452
275 426 236T355 177T255 156Q227 156 204 162T158 179Q132 166 132 139Q132 89 216 89H299Q355 89 398 75T465 28T490 -61Q490 -118 458 -156T375 -213T266 -232ZM264 -162Q324 -162 366 -140T408 -71Q408 15 304 15H219Q170 15 142 -6T114 -71Q114 -104 135 -124T190
-153T264 -162ZM253 226Q305 226 338 256T371 332Q371 378 338 408T253 438Q201 438 170 408T138 332Q138 286 168 256T253 226Z" />
<glyph unicode="h" horiz-adv-x="572" d="M69 0V700H153V411Q178 457 224 482T324 508Q410 508 462 455T514 290V0H431V281Q431 358 400 397T306 436Q241 436 197 390T153 257V0H69Z" />
<glyph unicode="i" horiz-adv-x="239" d="M120 606Q95 606 79 622T62 664Q62 688 78 704T120 720Q144 720 161 704T178 664Q178 639 161 623T120 606ZM78 0V496H162V0H78Z" />
<glyph unicode="j" horiz-adv-x="242" d="M-28 -220V-148H11Q48 -148 64 -133T81 -80V496H165V-82Q165 -130 149 -160T102 -205T24 -220H-28ZM124 606Q100 606 83 622T66 664Q66 688 83 704T124 720Q148 720 164 704T181 664Q181 639 165 623T124 606Z" />
<glyph unicode="k" horiz-adv-x="504" d="M69 0V700H153V287L356 496H459L239 272L487 0H380L153 257V0H69Z" />
<glyph unicode="l" horiz-adv-x="222" d="M69 0V700H153V0H69Z" />
<glyph unicode="m" horiz-adv-x="895" d="M69 0V496H145L151 424Q175 464 215 486T305 508Q364 508 406 484T472 411Q498 456 543 482T642 508Q702 508 745 485T813 413T837 290V0H754V281Q754 358 723 397T634 436Q574 436 535 390T495 257V0H411V281Q411 358
380 397T291 436Q232 436 193 390T153 257V0H69Z" />
<glyph unicode="n" horiz-adv-x="573" d="M69 0V496H145L150 407Q174 454 219 481T321 508Q409 508 461 455T514 290V0H430V281Q430 358 398 397T302 436Q238 436 196 390T153 257V0H69Z" />
<glyph unicode="o" horiz-adv-x="604" d="M298 -12Q230 -12 173 18T82 107T48 249Q48 328 81 386T172 476T302 508Q371 508 428 478T521 390T556 249Q556 173 523 114T432 22T298 -12ZM298 61Q347 61 386 84T448 150T471 249Q471 303 451 345T393 411T301 435Q246
435 209 410T152 343T133 249Q133 183 157 142T219 81T298 61Z" />
<glyph unicode="p" horiz-adv-x="628" d="M69 -220V496H145L153 414Q177 450 221 479T335 508Q410 508 465 474T550 381T580 247Q580 173 550 114T465 22T334 -12Q273 -12 226 13T153 83V-220H69ZM325 61Q376 61 414 84T473 150T495 248Q495 301 475 343T416 410T325
435Q275 435 237 412T177 346T155 248Q155 196 176 154T235 86T325 61Z" />
<glyph unicode="q" horiz-adv-x="628" d="M476 -220V82Q452 46 407 17T294 -12Q218 -12 163 23T78 117T48 249Q48 321 77 380T162 473T295 508Q356 508 403 483T476 413L484 496H560V-220H476ZM303 61Q358 61 396 86T453 154T473 248Q473 302 453 344T395 410T303
435Q255 435 217 412T157 348T134 248Q134 190 157 148T218 84T303 61Z" />
<glyph unicode="r" horiz-adv-x="363" d="M69 0V496H145L152 401Q175 450 222 479T338 508V420H315Q233 420 193 376T153 250V0H69Z" />
<glyph unicode="s" horiz-adv-x="500" d="M259 -12Q200 -12 153 8T78 66T42 155H128Q136 116 169 88T260 59Q313 59 338 81T363 135Q363 165 349 181T307 205T239 222Q197 231 157 246T91 289T65 360Q65 404 87 437T149 489T245 508Q324 508 374 469T433 356H350Q345
394 318 415T244 437Q199 437 175 418T150 368Q150 348 164 334T204 310T267 292Q317 282 358 267T424 224T449 142Q450 98 427 63T361 8T259 -12Z" />
<glyph unicode="t" horiz-adv-x="387" d="M265 0Q197 0 158 33T119 152V425H33V496H119V615H203V496H342V425H203V152Q203 105 222 89T289 72H342V0H265Z" />
<glyph unicode="u" horiz-adv-x="572" d="M251 -12Q193 -12 150 11T82 83T58 206V496H142V215Q142 138 174 99T270 60Q334 60 376 106T419 239V496H503V0H427L422 89Q398 42 353 15T251 -12Z" />
<glyph unicode="v" horiz-adv-x="521" d="M212 0L24 496H112L261 81L411 496H497L309 0H212Z" />
<glyph unicode="w" horiz-adv-x="754" d="M169 0L24 496H108L213 107L329 496H424L541 107L645 496H730L585 0H499L377 409L255 0H169Z" />
<glyph unicode="x" horiz-adv-x="498" d="M19 0L191 248L19 496H110L249 291L389 496H479L307 248L479 0H389L249 205L110 0H19Z" />
<glyph unicode="y" horiz-adv-x="556" d="M123 -220L233 20L20 496H111L275 110L449 496H536L211 -220H123Z" />
<glyph unicode="z" horiz-adv-x="452" d="M35 0V69L311 426H40V496H405V427L129 70H410V0H35Z" />
<glyph unicode="{" horiz-adv-x="425" d="M320 -152Q252 -152 210 -115T168 -2Q168 39 173 65T184 117T190 184Q190 220 169 251T87 296V364Q148 377 169 408T190 476Q190 516 185 542T174 594T168 661Q168 737 210 774T320 811H373V739H335Q293 739 272 720T250
654Q250 627 253 606T261 564Q265 544 268 523T271 473Q271 420 245 382T160 331V329Q218 315 244 277T271 186Q271 159 268 139T261 98Q257 77 254 56T250 5Q250 -40 271 -60T335 -80H373V-152H320Z" />
<glyph unicode="|" horiz-adv-x="232" d="M74 -100V720H158V-100H74Z" />
<glyph unicode="}" horiz-adv-x="425" d="M52 -152V-80H90Q132 -80 153 -60T175 5Q175 25 173 41T169 73Q164 99 159 125T154 186Q154 239 180 277T265 329V331Q207 344 181 382T154 473Q154 503 158 526T166 571Q169 590 172 609T175 654Q175 700 154 719T90
739H52V811H105Q173 811 215 774T257 661Q257 621 252 595T241 542T235 476Q235 439 256 408T338 364V296Q277 283 256 252T235 184Q235 144 240 118T251 65T257 -2Q257 -77 215 -114T105 -152H52Z" />
<glyph unicode="~" horiz-adv-x="600" d="M383 249Q355 249 334 259T293 282T255 306T212 316Q185 316 168 298T146 250H83Q95 322 129 356T217 391Q245 391 267 381T308 358T346 335T388 325Q415 325 432 343T454 391H517Q506 319 472 284T383 249Z" />
<glyph unicode="&#xa0;" horiz-adv-x="265" />
<glyph unicode="&#xa1;" horiz-adv-x="248" d="M77 -143L87 363H158L168 -143H77ZM125 448Q100 448 84 464T67 505Q67 529 83 545T125 562Q149 562 165 546T182 505Q182 481 166 465T125 448Z" />
<glyph unicode="&#xa2;" horiz-adv-x="570" d="M255 -104V-9Q194 0 148 34T75 124Q62 151 55 182T48 248Q48 318 75 373T148 462Q171 479 197 490T255 505V600H336V505Q409 496 458 452T522 339H436Q426 385 387 410T296 436Q243 436 207 410T153 341T134 248Q134
184 158 142T220 80T296 59Q348 59 387 84T436 157H522Q508 91 459 46T336 -9V-104H255Z" />
<glyph unicode="&#xa3;" horiz-adv-x="600" d="M87 0V54Q114 85 132 111T160 168T170 240Q170 260 167 275T159 310H45V369H138Q126 403 118 435T109 507Q109 572 137 617T213 687T322 712Q370 712 409 698T476 658T520 593T539 507H462Q459 563 426 602T322 642Q291
642 261 629T210 586T189 503Q189 466 200 429T220 369H412V310H239Q245 289 247 276T249 242Q249 193 231 150T176 69H541V0H87Z" />
<glyph unicode="&#xa4;" horiz-adv-x="532" d="M103 92L65 130L124 189Q92 235 92 297Q92 330 101 357T126 406L65 466L103 504L164 443Q208 473 267 473Q326 473 369 443L429 504L467 466L407 406Q423 385 432 358T441 297Q441 265 433 238T408 189L467 130L429
92L370 152Q326 121 266 121Q205 121 162 152L103 92ZM266 186Q293 186 314 198T349 236T362 297Q362 356 332 382T266 409Q229 409 200 383T171 297Q171 238 200 212T266 186Z" />
<glyph unicode="&#xa5;" horiz-adv-x="601" d="M259 0V167H59V228H259V266L232 318H59V379H200L31 700H126L301 343L475 700H570L402 379H543V318H370L343 266V228H543V167H343V0H259Z" />
<glyph unicode="&#xa6;" horiz-adv-x="232" d="M74 387V720H158V387H74ZM74 -100V233H158V-100H74Z" />
<glyph unicode="&#xa7;" horiz-adv-x="584" d="M289 -232Q225 -232 176 -208T98 -140T67 -38H155Q155 -63 168 -91T212 -140T292 -160Q330 -160 359 -148T405 -110T422 -48Q422 0 396 23T325 60Q303 68 276 76T219 95Q169 114 129 138T67 199T44 295Q44 372 100
428Q73 466 73 520Q73 581 102 623T181 689T294 712Q365 712 414 686T490 615T516 518H428Q428 556 410 583T360 625T291 640Q236 642 199 613T161 528Q161 484 187 460Q212 436 258 421Q281 414 307 405T364 385Q390 377 412 367T454 344Q474 332 489 317T516
281Q539 245 539 185Q539 167 536 149T525 114Q511 78 482 52Q509 13 509 -40Q511 -99 482 -142T402 -209T289 -232ZM422 104Q452 134 452 180Q452 220 435 245T388 287T320 315Q310 318 292 324T253 337T217 350T196 358Q187 363 178 367T161 376Q131 346 131
300Q131 258 150 233T200 192T264 166Q285 159 307 152T351 136T391 120T422 104Z" />
<glyph unicode="&#xa8;" horiz-adv-x="0" d="M-88 606Q-113 606 -129 622T-146 664Q-146 688 -130 704T-88 720Q-64 720 -47 704T-30 664Q-30 639 -47 623T-88 606ZM89 606Q64 606 48 622T31 664Q31 688 47 704T89 720Q113 720 130 704T147 664Q147 639 130 623T89 606Z" />
<glyph unicode="&#xa9;" horiz-adv-x="794" d="M397 -4Q294 -4 217 41T95 167Q51 247 51 350Q51 454 94 534T216 659Q294 704 397 704Q500 704 578 659T700 534Q743 455 743 350Q743 247 700 167T578 42Q501 -4 397 -4ZM397 119Q337 119 288 146T210 226Q180 279
180 351Q180 424 209 476T288 556Q313 570 340 576T397 583Q471 583 527 544T602 430H525Q511 475 476 498T396 522Q338 522 296 479T254 350Q254 265 296 222T396 179Q445 179 477 201T525 270H602Q583 200 527 160T397 119ZM397 33Q491 33 560 73T667 185Q704
256 704 350Q704 445 667 516T560 628Q526 648 485 658T397 668Q303 668 235 628T128 517Q90 444 90 350Q90 257 127 185T234 73Q302 33 397 33Z" />
<glyph unicode="&#xaa;" horiz-adv-x="407" d="M165 347Q129 347 100 359T54 395T37 454Q37 494 58 518T113 553T188 564H281Q281 617 256 638T194 660Q160 660 136 643T104 593H44Q47 631 69 657T124 696T194 710Q233 710 260 699T305 669T331 624T340 568V445Q340
425 349 416T378 406V354H371Q340 354 317 369T286 417Q269 387 239 367T165 347ZM174 396Q209 396 233 414T269 460T281 518H193Q156 518 127 506T98 456Q98 425 120 411T174 396Z" />
<glyph unicode="&#xab;" horiz-adv-x="452" d="M319 120L222 295L319 470H402L302 295L402 120H319ZM141 120L44 295L141 470H224L124 295L224 120H141Z" />
<glyph unicode="&#xac;" horiz-adv-x="600" d="M461 223V365H45V432H545V223H461Z" />
<glyph unicode="&#xae;" horiz-adv-x="377" d="M189 425Q150 425 117 444T65 496T45 568Q45 608 64 640T117 692T189 712Q229 712 261 693T312 641T332 568Q332 529 313 497T261 445T189 425ZM122 496Q123 498 129 509T143 533T157 557T163 568Q134 578 134 607Q134
622 144 636T182 651H236V496H208V561H190Q190 561 185 552T173 530T161 507T155 496H122ZM189 448Q222 448 249 464T293 508T309 568Q309 601 293 628T250 672T189 688Q156 688 129 672T86 629T69 568Q69 535 85 508T129 465T189 448ZM189 585H208V628H186Q161
628 161 607Q161 596 169 591T189 585Z" />
<glyph unicode="&#xaf;" horiz-adv-x="0" d="M-173 632V695H174V632H-173Z" />
<glyph unicode="&#xb0;" horiz-adv-x="343" d="M171 444Q135 444 105 460T57 507T39 577Q39 617 57 647T105 695T172 712Q225 712 264 676T303 577Q303 519 265 482T171 444ZM171 506Q195 506 216 524T238 578Q238 614 217 632T172 650Q147 650 126 632T105 578Q105
542 125 524T171 506Z" />
<glyph unicode="&#xb1;" horiz-adv-x="600" d="M263 125V266H63V337H263V478H338V337H538V266H338V125H263ZM63 0V73H538V0H63Z" />
<glyph unicode="&#xb2;" horiz-adv-x="310" d="M33 347V394Q33 394 38 399T51 413T71 434T95 459T121 486Q155 521 179 547T204 599Q204 622 190 636T151 651Q123 651 110 633T96 589H33Q35 646 68 675T153 705Q212 705 239 675T267 600Q267 563 243 534T186 470L118
402H275V347H33Z" />
<glyph unicode="&#xb3;" horiz-adv-x="320" d="M161 342Q105 342 71 371T34 457H97Q97 431 114 414T161 397Q190 397 207 412T224 459Q224 488 207 502T161 517Q151 517 142 515T124 507L88 549L196 645H45V700H275V647L186 566Q236 562 261 531T286 459Q286 404
252 373T161 342Z" />
<glyph unicode="&#xb4;" horiz-adv-x="0" d="M151 553V620L361 747V670L151 553Z" />
<glyph unicode="&#xb5;" horiz-adv-x="583" d="M69 -220V496H153V215Q153 138 185 99T281 60Q345 60 387 106T430 239V496H514V0H438L433 88Q409 42 364 15T261 -12Q228 -12 201 -4T153 20V-220H69Z" />
<glyph unicode="&#xb6;" horiz-adv-x="586" d="M282 -100V295H272Q190 295 138 322T61 395Q48 418 42 443T36 497Q36 554 61 600T139 673Q165 687 198 693T272 700H512V-100H438V634H356V-100H282Z" />
<glyph unicode="&#xb7;" horiz-adv-x="195" d="M98 285Q73 285 57 301T40 342Q40 367 56 383T98 399Q122 399 138 383T155 342Q155 318 139 302T98 285Z" />
<glyph unicode="&#xb8;" horiz-adv-x="0" d="M142 -259V-206H234Q302 -206 302 -158Q302 -113 234 -113H185V17H241V-63Q279 -62 308 -72T353 -105T370 -159Q370 -190 355 -212T312 -247T249 -259H142Z" />
<glyph unicode="&#xb9;" horiz-adv-x="316" d="M42 347V402H137V628L45 607V656L164 700H198V402H281V347H42Z" />
<glyph unicode="&#xba;" horiz-adv-x="433" d="M216 349Q168 349 127 370T60 431T35 531Q35 584 57 624T121 688T217 712Q267 712 308 692T374 631T399 531Q399 476 375 435T309 372T216 349ZM216 404Q247 404 273 418T315 461T331 531Q331 593 297 626T216 659Q186
659 160 645T119 602T103 531Q103 469 136 437T216 404Z" />
<glyph unicode="&#xbb;" horiz-adv-x="452" d="M228 120L328 295L228 470H311L408 295L311 120H228ZM50 120L150 295L50 470H133L230 295L133 120H50Z" />
<glyph unicode="&#xbc;" horiz-adv-x="759" d="M98 0L617 700H688L168 0H98ZM40 347V402H135V628L43 607V657L162 700H196V402H279V347H40ZM614 0V66H452V117L571 353H635L521 122H618V213H678V122H719V66H678V0H614Z" />
<glyph unicode="&#xbd;" horiz-adv-x="765" d="M40 347V402H135V628L43 607V657L162 700H196V402H279V347H40ZM98 0L617 700H688L168 0H98ZM478 0V46L566 139Q599 174 624 200T649 251Q649 275 635 289T596 304Q568 304 555 286T541 242H478Q480 298 513 328T598
358Q657 358 684 327T712 252Q712 215 688 187T631 123L563 55H720V0H478Z" />
<glyph unicode="&#xbe;" horiz-adv-x="758" d="M97 0L616 700H687L167 0H97ZM613 0V66H451V117L570 353H634L520 122H617V213H677V122H718V66H677V0H613ZM167 342Q111 342 77 371T40 457H103Q103 431 120 414T167 397Q196 397 213 412T230 459Q230 488 213 502T167
517Q157 517 148 515T130 507L94 549L202 645H51V700H281V647L192 566Q242 562 267 531T292 459Q292 404 258 373T167 342Z" />
<glyph unicode="&#xbf;" horiz-adv-x="516" d="M265 -164Q200 -164 150 -139T72 -68Q44 -22 44 41Q44 115 75 161T162 228Q190 239 222 244T289 249L292 352H365L369 191H338Q282 191 234 180T155 137Q125 106 125 41Q125 -21 163 -57T265 -93Q329 -93 366 -58T403
36H483Q483 -24 456 -69T379 -139Q330 -164 265 -164ZM329 439Q304 439 288 455T272 496Q272 520 288 536T329 553Q354 553 370 537T387 496Q387 472 371 456T329 439Z" />
<glyph unicode="&#xc0;" horiz-adv-x="664" d="M30 0L288 700H377L634 0H545L481 180H183L118 0H30ZM208 248H456L332 594L208 248ZM437 741L227 858V931L437 804V741Z" />
<glyph unicode="&#xc1;" horiz-adv-x="664" d="M30 0L288 700H377L634 0H545L481 180H183L118 0H30ZM208 248H456L332 594L208 248ZM227 741V804L437 931V858L227 741Z" />
<glyph unicode="&#xc2;" horiz-adv-x="664" d="M30 0L288 700H377L634 0H545L481 180H183L118 0H30ZM208 248H456L332 594L208 248ZM195 755V821L332 902L469 821V755L332 839L195 755Z" />
<glyph unicode="&#xc3;" horiz-adv-x="664" d="M30 0L288 700H377L634 0H545L481 180H183L118 0H30ZM208 248H456L332 594L208 248ZM387 756Q360 756 343 768T311 791T272 803Q236 803 230 758H181Q188 809 213 834T276 859Q303 859 320 848T352 824T391 812Q407
812 419 823T434 857H483Q477 808 451 782T387 756Z" />
<glyph unicode="&#xc4;" horiz-adv-x="664" d="M30 0L288 700H377L634 0H545L481 180H183L118 0H30ZM208 248H456L332 594L208 248ZM243 775Q218 775 202 791T185 833Q185 857 201 873T243 889Q267 889 284 873T301 833Q301 808 284 792T243 775ZM420 775Q395
775 379 791T362 833Q362 857 378 873T420 889Q444 889 461 873T478 833Q478 808 461 792T420 775Z" />
<glyph unicode="&#xc5;" horiz-adv-x="664" d="M30 0L288 700H377L634 0H545L481 180H183L118 0H30ZM208 248H456L332 594L208 248ZM332 761Q289 761 258 788T227 864Q227 912 258 939T332 967Q376 967 406 940T437 864Q437 816 407 789T332 761ZM332 804Q356
804 372 820T389 864Q389 891 373 907T332 923Q308 923 292 907T275 864Q275 837 291 821T332 804Z" />
<glyph unicode="&#xc6;" horiz-adv-x="911" d="M30 0L429 700H854V633H565V406H808V338H565V67H854V0H481V159H212L122 0H30ZM250 226H481V631L250 226Z" />
<glyph unicode="&#xc7;" horiz-adv-x="720" d="M381 -12Q275 -12 200 35T86 165T47 350Q47 452 85 534T199 664T381 712Q501 712 576 655T673 494H580Q564 559 515 598T381 638Q298 638 243 600T161 496T133 350Q133 267 161 202T245 100T381 62Q465 62 514 100T580
203H673Q652 102 577 45T381 -12ZM309 -259V-206H401Q469 -206 469 -158Q469 -113 401 -113H352V17H408V-63Q446 -62 475 -72T520 -105T537 -159Q537 -190 522 -212T479 -247T416 -259H309Z" />
<glyph unicode="&#xc8;" horiz-adv-x="564" d="M74 0V700H507V631H158V404H463V336H158V69H507V0H74ZM387 741L177 858V931L387 804V741Z" />
<glyph unicode="&#xc9;" horiz-adv-x="564" d="M74 0V700H507V631H158V404H463V336H158V69H507V0H74ZM177 741V804L387 931V858L177 741Z" />
<glyph unicode="&#xca;" horiz-adv-x="564" d="M74 0V700H507V631H158V404H463V336H158V69H507V0H74ZM145 755V821L282 902L419 821V755L282 839L145 755Z" />
<glyph unicode="&#xcb;" horiz-adv-x="564" d="M74 0V700H507V631H158V404H463V336H158V69H507V0H74ZM193 775Q168 775 152 791T135 833Q135 857 151 873T193 889Q217 889 234 873T251 833Q251 808 234 792T193 775ZM370 775Q345 775 329 791T312 833Q312 857
328 873T370 889Q394 889 411 873T428 833Q428 808 411 792T370 775Z" />
<glyph unicode="&#xcc;" horiz-adv-x="232" d="M74 0V700H158V0H74ZM221 741L11 858V931L221 804V741Z" />
<glyph unicode="&#xcd;" horiz-adv-x="232" d="M74 0V700H158V0H74ZM11 741V804L221 931V858L11 741Z" />
<glyph unicode="&#xce;" horiz-adv-x="232" d="M74 0V700H158V0H74ZM235 755V821L372 902L509 821V755L372 839L235 755Z" />
<glyph unicode="&#xcf;" horiz-adv-x="232" d="M74 0V700H158V0H74ZM283 775Q258 775 242 791T225 833Q225 857 241 873T283 889Q307 889 324 873T341 833Q341 808 324 792T283 775ZM460 775Q435 775 419 791T402 833Q402 857 418 873T460 889Q484 889 501 873T518
833Q518 808 501 792T460 775Z" />
<glyph unicode="&#xd0;" horiz-adv-x="717" d="M95 0V311H8V387H95V700H310Q434 700 513 658T631 537T670 348Q670 240 632 162T514 42T310 0H95ZM179 70H309Q415 70 474 105T559 203T584 348Q584 491 518 560T309 630H179V387H381V311H179V70Z" />
<glyph unicode="&#xd1;" horiz-adv-x="689" d="M74 0V700H158L531 139V700H615V0H531L158 561V0H74ZM400 756Q373 756 356 768T324 791T285 803Q249 803 243 758H194Q201 809 226 834T289 859Q316 859 333 848T365 824T404 812Q420 812 432 823T447 857H496Q490
808 464 782T400 756Z" />
<glyph unicode="&#xd2;" horiz-adv-x="784" d="M392 -12Q312 -12 248 15T139 92T71 207T47 350Q47 427 70 493T139 608T247 684T392 712Q472 712 535 686T644 611T713 496T737 350Q737 271 713 205T644 90T536 15T392 -12ZM392 62Q474 62 532 99T620 201T651 350Q651
436 621 500T532 601T392 637Q311 637 253 600T164 499T133 350Q133 267 164 202T253 99T392 62ZM497 741L287 858V931L497 804V741Z" />
<glyph unicode="&#xd3;" horiz-adv-x="784" d="M392 -12Q312 -12 248 15T139 92T71 207T47 350Q47 427 70 493T139 608T247 684T392 712Q472 712 535 686T644 611T713 496T737 350Q737 271 713 205T644 90T536 15T392 -12ZM392 62Q474 62 532 99T620 201T651 350Q651
436 621 500T532 601T392 637Q311 637 253 600T164 499T133 350Q133 267 164 202T253 99T392 62ZM287 741V804L497 931V858L287 741Z" />
<glyph unicode="&#xd4;" horiz-adv-x="784" d="M392 -12Q312 -12 248 15T139 92T71 207T47 350Q47 427 70 493T139 608T247 684T392 712Q472 712 535 686T644 611T713 496T737 350Q737 271 713 205T644 90T536 15T392 -12ZM392 62Q474 62 532 99T620 201T651 350Q651
436 621 500T532 601T392 637Q311 637 253 600T164 499T133 350Q133 267 164 202T253 99T392 62ZM255 755V821L392 902L529 821V755L392 839L255 755Z" />
<glyph unicode="&#xd5;" horiz-adv-x="784" d="M392 -12Q312 -12 248 15T139 92T71 207T47 350Q47 427 70 493T139 608T247 684T392 712Q472 712 535 686T644 611T713 496T737 350Q737 271 713 205T644 90T536 15T392 -12ZM392 62Q474 62 532 99T620 201T651 350Q651
436 621 500T532 601T392 637Q311 637 253 600T164 499T133 350Q133 267 164 202T253 99T392 62ZM447 756Q420 756 403 768T371 791T332 803Q296 803 290 758H241Q248 809 273 834T336 859Q363 859 380 848T412 824T451 812Q467 812 479 823T494 857H543Q537 808
511 782T447 756Z" />
<glyph unicode="&#xd6;" horiz-adv-x="784" d="M392 -12Q312 -12 248 15T139 92T71 207T47 350Q47 427 70 493T139 608T247 684T392 712Q472 712 535 686T644 611T713 496T737 350Q737 271 713 205T644 90T536 15T392 -12ZM392 62Q474 62 532 99T620 201T651 350Q651
436 621 500T532 601T392 637Q311 637 253 600T164 499T133 350Q133 267 164 202T253 99T392 62ZM303 775Q278 775 262 791T245 833Q245 857 261 873T303 889Q327 889 344 873T361 833Q361 808 344 792T303 775ZM480 775Q455 775 439 791T422 833Q422 857 438 873T480
889Q504 889 521 873T538 833Q538 808 521 792T480 775Z" />
<glyph unicode="&#xd7;" horiz-adv-x="600" d="M166 106L116 156L250 291L121 420L172 470L301 341L435 476L485 426L351 291L480 162L429 112L300 241L166 106Z" />
<glyph unicode="&#xd8;" horiz-adv-x="786" d="M392 -12Q329 -12 275 5T179 56L129 0H39L130 102Q90 149 69 212T47 350Q47 453 88 534T207 664T392 712Q456 712 510 694T607 643L658 700H747L655 596Q694 549 715 487T737 350Q737 245 695 163T576 35T392 -12ZM392
62Q474 62 532 99T620 201T651 350Q651 406 638 452T601 534L231 115Q296 62 392 62ZM184 164L555 584Q488 637 392 637Q311 637 253 600T164 499T133 350Q133 293 146 247T184 164Z" />
<glyph unicode="&#xd9;" horiz-adv-x="656" d="M327 -12Q235 -12 178 25T95 124T68 258V700H152V257Q152 155 201 109T329 63Q408 63 456 109T504 257V700H588V258Q588 181 565 129T504 46T419 2T327 -12ZM433 741L223 858V931L433 804V741Z" />
<glyph unicode="&#xda;" horiz-adv-x="656" d="M327 -12Q235 -12 178 25T95 124T68 258V700H152V257Q152 155 201 109T329 63Q408 63 456 109T504 257V700H588V258Q588 181 565 129T504 46T419 2T327 -12ZM223 741V804L433 931V858L223 741Z" />
<glyph unicode="&#xdb;" horiz-adv-x="656" d="M327 -12Q235 -12 178 25T95 124T68 258V700H152V257Q152 155 201 109T329 63Q408 63 456 109T504 257V700H588V258Q588 181 565 129T504 46T419 2T327 -12ZM191 755V821L328 902L465 821V755L328 839L191 755Z" />
<glyph unicode="&#xdc;" horiz-adv-x="656" d="M327 -12Q235 -12 178 25T95 124T68 258V700H152V257Q152 155 201 109T329 63Q408 63 456 109T504 257V700H588V258Q588 181 565 129T504 46T419 2T327 -12ZM239 775Q214 775 198 791T181 833Q181 857 197 873T239
889Q263 889 280 873T297 833Q297 808 280 792T239 775ZM416 775Q391 775 375 791T358 833Q358 857 374 873T416 889Q440 889 457 873T474 833Q474 808 457 792T416 775Z" />
<glyph unicode="&#xdd;" horiz-adv-x="579" d="M248 0V266L20 700H115L290 346L465 700H559L332 266V0H248ZM185 741V804L395 931V858L185 741Z" />
<glyph unicode="&#xde;" horiz-adv-x="579" d="M74 0V700H158V554H304Q386 554 439 528T518 455Q543 409 543 350Q543 293 518 247T440 174Q388 147 304 147H158V0H74ZM158 217H302Q386 217 421 253T457 350Q457 414 422 449T302 484H158V217Z" />
<glyph unicode="&#xdf;" horiz-adv-x="664" d="M441 -10Q358 -10 302 37T238 169H321Q325 123 354 90T440 56Q484 56 512 78T541 144Q541 175 528 194T491 225T438 246Q403 258 369 274T313 314T290 375Q290 407 305 426T340 458Q351 465 361 472T383 486Q406
500 419 518T432 562Q432 615 393 638T300 661Q246 661 214 641T168 588T154 512V0H71V520Q71 589 100 636T181 707T302 732Q360 732 408 714T486 659T516 569Q516 534 502 511T466 472T425 445Q409 435 392 422T375 386Q375 364 395 349T441 324T489 307Q551 285
588 251T626 150Q626 98 602 63T535 9T441 -10Z" />
<glyph unicode="&#xe0;" horiz-adv-x="571" d="M234 -12Q183 -12 141 5T75 56T50 141Q50 199 80 233T159 283T266 299H400Q400 351 383 381T337 424T275 437Q226 437 191 414T146 341H60Q65 395 96 432T174 488T275 508Q350 508 396 481T463 407T484 305V153Q484
116 493 97T539 74V0Q506 0 479 8T434 36T407 88Q382 46 339 17T234 -12ZM247 59Q297 59 331 84T382 150T400 233V234H273Q238 234 207 227T157 200T138 145Q138 100 170 80T247 59ZM380 557L170 674V747L380 620V557Z" />
<glyph unicode="&#xe1;" horiz-adv-x="571" d="M234 -12Q183 -12 141 5T75 56T50 141Q50 199 80 233T159 283T266 299H400Q400 351 383 381T337 424T275 437Q226 437 191 414T146 341H60Q65 395 96 432T174 488T275 508Q350 508 396 481T463 407T484 305V153Q484
116 493 97T539 74V0Q506 0 479 8T434 36T407 88Q382 46 339 17T234 -12ZM247 59Q297 59 331 84T382 150T400 233V234H273Q238 234 207 227T157 200T138 145Q138 100 170 80T247 59ZM170 553V620L380 747V670L170 553Z" />
<glyph unicode="&#xe2;" horiz-adv-x="571" d="M234 -12Q183 -12 141 5T75 56T50 141Q50 199 80 233T159 283T266 299H400Q400 351 383 381T337 424T275 437Q226 437 191 414T146 341H60Q65 395 96 432T174 488T275 508Q350 508 396 481T463 407T484 305V153Q484
116 493 97T539 74V0Q506 0 479 8T434 36T407 88Q382 46 339 17T234 -12ZM247 59Q297 59 331 84T382 150T400 233V234H273Q238 234 207 227T157 200T138 145Q138 100 170 80T247 59ZM138 582V652L275 733L412 652V582L275 666L138 582Z" />
<glyph unicode="&#xe3;" horiz-adv-x="571" d="M234 -12Q183 -12 141 5T75 56T50 141Q50 199 80 233T159 283T266 299H400Q400 351 383 381T337 424T275 437Q226 437 191 414T146 341H60Q65 395 96 432T174 488T275 508Q350 508 396 481T463 407T484 305V153Q484
116 493 97T539 74V0Q506 0 479 8T434 36T407 88Q382 46 339 17T234 -12ZM247 59Q297 59 331 84T382 150T400 233V234H273Q238 234 207 227T157 200T138 145Q138 100 170 80T247 59ZM330 602Q303 602 286 613T254 634T215 645Q197 645 187 636T173 604H124Q131
655 156 680T219 705Q246 705 263 695T295 673T334 662Q350 662 362 671T377 703H426Q420 654 394 628T330 602Z" />
<glyph unicode="&#xe4;" horiz-adv-x="571" d="M234 -12Q183 -12 141 5T75 56T50 141Q50 199 80 233T159 283T266 299H400Q400 351 383 381T337 424T275 437Q226 437 191 414T146 341H60Q65 395 96 432T174 488T275 508Q350 508 396 481T463 407T484 305V153Q484
116 493 97T539 74V0Q506 0 479 8T434 36T407 88Q382 46 339 17T234 -12ZM247 59Q297 59 331 84T382 150T400 233V234H273Q238 234 207 227T157 200T138 145Q138 100 170 80T247 59ZM186 606Q161 606 145 622T128 664Q128 688 144 704T186 720Q210 720 227 704T244
664Q244 639 227 623T186 606ZM363 606Q338 606 322 622T305 664Q305 688 321 704T363 720Q387 720 404 704T421 664Q421 639 404 623T363 606Z" />
<glyph unicode="&#xe5;" horiz-adv-x="571" d="M234 -12Q183 -12 141 5T75 56T50 141Q50 199 80 233T159 283T266 299H400Q400 351 383 381T337 424T275 437Q226 437 191 414T146 341H60Q65 395 96 432T174 488T275 508Q350 508 396 481T463 407T484 305V153Q484
116 493 97T539 74V0Q506 0 479 8T434 36T407 88Q382 46 339 17T234 -12ZM247 59Q297 59 331 84T382 150T400 233V234H273Q238 234 207 227T157 200T138 145Q138 100 170 80T247 59ZM275 557Q232 557 201 584T170 660Q170 708 201 735T275 763Q319 763 349 736T380
660Q380 612 350 585T275 557ZM275 600Q299 600 315 616T332 660Q332 687 316 703T275 719Q251 719 235 703T218 660Q218 633 234 617T275 600Z" />
<glyph unicode="&#xe6;" horiz-adv-x="913" d="M237 -12Q182 -12 140 6T74 59T50 141Q50 192 76 226T149 279T261 297H399Q399 368 365 402T277 437Q232 437 198 413T155 341H68Q74 397 106 434T183 489T277 508Q340 508 385 484T455 417Q487 461 535 484T642
508Q712 508 763 477T842 393T871 278Q871 268 871 257T869 232H484Q486 180 507 141T563 81T640 59Q692 59 725 83T776 148H859Q845 102 815 66T741 9T641 -12Q575 -12 521 19T436 106Q407 56 358 22T237 -12ZM243 59Q283 59 316 80T372 136T398 212V232H269Q198
232 168 208T138 146Q138 107 166 83T243 59ZM485 297H788Q784 363 742 400T642 437Q584 437 539 401T485 297Z" />
<glyph unicode="&#xe7;" horiz-adv-x="570" d="M297 -12Q227 -12 171 20T81 110T48 248Q48 325 80 383T168 475T297 508Q385 508 445 462T522 339H436Q426 385 387 410T296 436Q243 436 207 410T153 341T134 248Q134 193 155 150T212 83T296 59Q348 59 387 84T436
157H522Q512 107 481 69T403 10T297 -12ZM222 -259V-206H314Q382 -206 382 -158Q382 -113 314 -113H265V17H321V-63Q359 -62 388 -72T433 -105T450 -159Q450 -190 435 -212T392 -247T329 -259H222Z" />
<glyph unicode="&#xe8;" horiz-adv-x="569" d="M292 -12Q223 -12 168 20T80 110T48 248Q48 326 78 384T164 475T294 508Q364 508 416 477T497 394T527 276Q527 262 527 254T526 229H131Q134 180 154 142T210 81T292 59Q344 59 379 83T430 148H513Q500 102 470
66T396 9T292 -12ZM132 294H444Q441 361 398 399T292 437Q232 437 186 401T132 294ZM394 557L184 674V747L394 620V557Z" />
<glyph unicode="&#xe9;" horiz-adv-x="569" d="M292 -12Q223 -12 168 20T80 110T48 248Q48 326 78 384T164 475T294 508Q364 508 416 477T497 394T527 276Q527 262 527 254T526 229H131Q134 180 154 142T210 81T292 59Q344 59 379 83T430 148H513Q500 102 470
66T396 9T292 -12ZM132 294H444Q441 361 398 399T292 437Q232 437 186 401T132 294ZM184 553V620L394 747V670L184 553Z" />
<glyph unicode="&#xea;" horiz-adv-x="569" d="M292 -12Q223 -12 168 20T80 110T48 248Q48 326 78 384T164 475T294 508Q364 508 416 477T497 394T527 276Q527 262 527 254T526 229H131Q134 180 154 142T210 81T292 59Q344 59 379 83T430 148H513Q500 102 470
66T396 9T292 -12ZM132 294H444Q441 361 398 399T292 437Q232 437 186 401T132 294ZM152 582V652L289 733L426 652V582L289 666L152 582Z" />
<glyph unicode="&#xeb;" horiz-adv-x="569" d="M292 -12Q223 -12 168 20T80 110T48 248Q48 326 78 384T164 475T294 508Q364 508 416 477T497 394T527 276Q527 262 527 254T526 229H131Q134 180 154 142T210 81T292 59Q344 59 379 83T430 148H513Q500 102 470
66T396 9T292 -12ZM132 294H444Q441 361 398 399T292 437Q232 437 186 401T132 294ZM200 606Q175 606 159 622T142 664Q142 688 158 704T200 720Q224 720 241 704T258 664Q258 639 241 623T200 606ZM377 606Q352 606 336 622T319 664Q319 688 335 704T377 720Q401
720 418 704T435 664Q435 639 418 623T377 606Z" />
<glyph unicode="&#xec;" horiz-adv-x="222" d="M69 0V496H153V0H69ZM216 557L6 674V747L216 620V557Z" />
<glyph unicode="&#xed;" horiz-adv-x="222" d="M69 0V496H153V0H69ZM6 553V620L216 747V670L6 553Z" />
<glyph unicode="&#xee;" horiz-adv-x="222" d="M69 0V496H153V0H69ZM230 582V652L367 733L504 652V582L367 666L230 582Z" />
<glyph unicode="&#xef;" horiz-adv-x="222" d="M69 0V496H153V0H69ZM288 606Q263 606 247 622T230 664Q230 688 246 704T288 720Q312 720 329 704T346 664Q346 639 329 623T288 606ZM445 606Q420 606 404 622T387 664Q387 688 403 704T445 720Q469 720 486 704T503
664Q503 639 486 623T445 606Z" />
<glyph unicode="&#xf0;" horiz-adv-x="626" d="M311 -12Q234 -12 175 23T82 117Q65 146 57 178T48 247Q48 322 82 381T175 474Q234 507 305 507Q354 507 401 489T483 429Q467 473 444 515T386 598L252 551V608L347 641Q333 656 317 671T283 700H367Q378 691 388
682T408 663L539 708V651L449 619Q514 543 546 457T578 272Q578 188 543 124T447 24Q386 -12 311 -12ZM313 59Q368 59 408 85T470 154T492 248Q492 308 466 350T400 414T313 436Q259 436 219 410T156 342T134 248Q134 189 159 147T226 82T313 59Z" />
<glyph unicode="&#xf1;" horiz-adv-x="573" d="M69 0V496H145L150 407Q174 454 219 481T321 508Q409 508 461 455T514 290V0H430V281Q430 358 398 397T302 436Q238 436 196 390T153 257V0H69ZM361 602Q334 602 317 613T285 634T246 645Q228 645 218 636T204 604H155Q162
655 187 680T250 705Q277 705 294 695T326 673T365 662Q381 662 393 671T408 703H457Q451 654 425 628T361 602Z" />
<glyph unicode="&#xf2;" horiz-adv-x="604" d="M298 -12Q230 -12 173 18T82 107T48 249Q48 328 81 386T172 476T302 508Q371 508 428 478T521 390T556 249Q556 173 523 114T432 22T298 -12ZM298 61Q347 61 386 84T448 150T471 249Q471 303 451 345T393 411T301
435Q246 435 209 410T152 343T133 249Q133 183 157 142T219 81T298 61ZM407 557L197 674V747L407 620V557Z" />
<glyph unicode="&#xf3;" horiz-adv-x="604" d="M298 -12Q230 -12 173 18T82 107T48 249Q48 328 81 386T172 476T302 508Q371 508 428 478T521 390T556 249Q556 173 523 114T432 22T298 -12ZM298 61Q347 61 386 84T448 150T471 249Q471 303 451 345T393 411T301
435Q246 435 209 410T152 343T133 249Q133 183 157 142T219 81T298 61ZM197 553V620L407 747V670L197 553Z" />
<glyph unicode="&#xf4;" horiz-adv-x="604" d="M298 -12Q230 -12 173 18T82 107T48 249Q48 328 81 386T172 476T302 508Q371 508 428 478T521 390T556 249Q556 173 523 114T432 22T298 -12ZM298 61Q347 61 386 84T448 150T471 249Q471 303 451 345T393 411T301
435Q246 435 209 410T152 343T133 249Q133 183 157 142T219 81T298 61ZM165 582V652L302 733L439 652V582L302 666L165 582Z" />
<glyph unicode="&#xf5;" horiz-adv-x="604" d="M298 -12Q230 -12 173 18T82 107T48 249Q48 328 81 386T172 476T302 508Q371 508 428 478T521 390T556 249Q556 173 523 114T432 22T298 -12ZM298 61Q347 61 386 84T448 150T471 249Q471 303 451 345T393 411T301
435Q246 435 209 410T152 343T133 249Q133 183 157 142T219 81T298 61ZM357 602Q330 602 313 613T281 634T242 645Q224 645 214 636T200 604H151Q158 655 183 680T246 705Q273 705 290 695T322 673T361 662Q377 662 389 671T404 703H453Q447 654 421 628T357 602Z"
/>
<glyph unicode="&#xf6;" horiz-adv-x="604" d="M298 -12Q230 -12 173 18T82 107T48 249Q48 328 81 386T172 476T302 508Q371 508 428 478T521 390T556 249Q556 173 523 114T432 22T298 -12ZM298 61Q347 61 386 84T448 150T471 249Q471 303 451 345T393 411T301
435Q246 435 209 410T152 343T133 249Q133 183 157 142T219 81T298 61ZM213 606Q188 606 172 622T155 664Q155 688 171 704T213 720Q237 720 254 704T271 664Q271 639 254 623T213 606ZM390 606Q365 606 349 622T332 664Q332 688 348 704T390 720Q414 720 431 704T448
664Q448 639 431 623T390 606Z" />
<glyph unicode="&#xf7;" horiz-adv-x="600" d="M101 255V326H499V255H101ZM300 89Q275 89 259 105T242 146Q242 170 258 186T300 203Q324 203 340 187T357 146Q357 122 341 106T300 89ZM300 378Q275 378 259 395T242 436Q242 460 258 476T300 493Q324 493 340
477T357 436Q357 412 341 395T300 378Z" />
<glyph unicode="&#xf8;" horiz-adv-x="601" d="M302 -12Q219 -12 156 33L128 0H48L112 74Q85 107 70 151T55 248Q55 327 88 385T177 476T304 508Q345 508 382 497T450 463L479 496H558L493 422Q520 389 535 345T551 248Q551 171 519 113T431 21T302 -12ZM302 58Q355
58 391 83T447 152T467 248Q467 282 460 310T440 360L205 90Q248 58 302 58ZM166 136L400 406Q359 438 304 438Q249 438 212 412T157 343T139 248Q139 214 146 186T166 136Z" />
<glyph unicode="&#xf9;" horiz-adv-x="572" d="M251 -12Q193 -12 150 11T82 83T58 206V496H142V215Q142 138 174 99T270 60Q334 60 376 106T419 239V496H503V0H427L422 89Q398 42 353 15T251 -12ZM389 557L179 674V747L389 620V557Z" />
<glyph unicode="&#xfa;" horiz-adv-x="572" d="M251 -12Q193 -12 150 11T82 83T58 206V496H142V215Q142 138 174 99T270 60Q334 60 376 106T419 239V496H503V0H427L422 89Q398 42 353 15T251 -12ZM179 553V620L389 747V670L179 553Z" />
<glyph unicode="&#xfb;" horiz-adv-x="572" d="M251 -12Q193 -12 150 11T82 83T58 206V496H142V215Q142 138 174 99T270 60Q334 60 376 106T419 239V496H503V0H427L422 89Q398 42 353 15T251 -12ZM147 582V652L284 733L421 652V582L284 666L147 582Z" />
<glyph unicode="&#xfc;" horiz-adv-x="572" d="M251 -12Q193 -12 150 11T82 83T58 206V496H142V215Q142 138 174 99T270 60Q334 60 376 106T419 239V496H503V0H427L422 89Q398 42 353 15T251 -12ZM195 606Q170 606 154 622T137 664Q137 688 153 704T195 720Q219
720 236 704T253 664Q253 639 236 623T195 606ZM372 606Q347 606 331 622T314 664Q314 688 330 704T372 720Q396 720 413 704T430 664Q430 639 413 623T372 606Z" />
<glyph unicode="&#xfd;" horiz-adv-x="556" d="M123 -220L233 20L20 496H111L275 110L449 496H536L211 -220H123ZM173 553V620L383 747V670L173 553Z" />
<glyph unicode="&#xfe;" horiz-adv-x="628" d="M69 -220V700H153V414Q177 450 221 479T335 508Q410 508 465 474T550 381T580 247Q580 173 550 114T465 22T334 -12Q273 -12 226 13T153 83V-220H69ZM325 61Q376 61 414 84T473 150T495 248Q495 301 475 343T416
410T325 435Q275 435 237 412T177 346T155 248Q155 196 176 154T235 86T325 61Z" />
<glyph unicode="&#xff;" horiz-adv-x="556" d="M123 -220L233 20L20 496H111L275 110L449 496H536L211 -220H123ZM189 606Q164 606 148 622T131 664Q131 688 147 704T189 720Q213 720 230 704T247 664Q247 639 230 623T189 606ZM366 606Q341 606 325 622T308 664Q308
688 324 704T366 720Q390 720 407 704T424 664Q424 639 407 623T366 606Z" />
<glyph unicode="&#x2013;" horiz-adv-x="641" d="M59 255V326H583V255H59Z" />
<glyph unicode="&#x2014;" horiz-adv-x="846" d="M59 255V326H787V255H59Z" />
<glyph unicode="&#x2018;" horiz-adv-x="212" d="M29 477L119 700H179L123 477H29Z" />
<glyph unicode="&#x2019;" horiz-adv-x="213" d="M33 477L91 700H185L93 477H33Z" />
<glyph unicode="&#x201a;" horiz-adv-x="184" d="M2 -121L59 102H153L62 -121H2Z" />
<glyph unicode="&#x201c;" horiz-adv-x="370" d="M185 477L276 700H336L279 477H185ZM29 477L119 700H179L123 477H29Z" />
<glyph unicode="&#x201d;" horiz-adv-x="370" d="M190 477L247 700H341L250 477H190ZM33 477L91 700H185L93 477H33Z" />
<glyph unicode="&#x201e;" horiz-adv-x="342" d="M2 -121L59 102H153L62 -121H2ZM161 -121L217 102H311L221 -121H161Z" />
<glyph unicode="&#x2022;" horiz-adv-x="358" d="M178 213Q145 213 118 229T75 272T59 333Q59 367 75 394T118 438T178 454Q212 454 239 438T283 395T299 333Q299 300 283 273T240 229T178 213Z" />
<glyph unicode="&#x2039;" horiz-adv-x="274" d="M141 120L44 295L141 470H224L124 295L224 120H141Z" />
<glyph unicode="&#x203a;" horiz-adv-x="274" d="M50 120L150 295L50 470H133L230 295L133 120H50Z" />
</font>
</defs>
</svg>
