<?xml version="1.0" standalone="no"?>
<!DOCTYPE svg PUBLIC "-//W3C//DTD SVG 1.1//EN" "http://www.w3.org/Graphics/SVG/1.1/DTD/svg11.dtd">
<svg xmlns="http://www.w3.org/2000/svg">
<defs >
<font id="BIZUDPGothic" horiz-adv-x="1804" ><font-face
    font-family="BIZ UDPGothic"
    units-per-em="2048"
    panose-1="2 11 4 0 0 0 0 0 0 0"
    ascent="1802"
    descent="-246"
    alphabetic="0" />
<glyph unicode=" " horiz-adv-x="683" />
<glyph unicode="!" horiz-adv-x="676" d="M221 1608H455L416 381H260L221 1608ZM209 207H467V-51H209V207Z" />
<glyph unicode="&quot;" horiz-adv-x="963" d="M143 1751H417V1593Q417 1341 249 1161H127Q251 1309 274 1477H143V1751ZM520 1751H792V1593Q792 1338 624 1161H504Q629 1308 649 1477H520V1751Z" />
<glyph unicode="#" horiz-adv-x="1884" d="M727 1679H876L811 1247H1212L1278 1679H1427L1362 1247H1654V1100H1341L1243 456H1546V309H1222L1157 -123H1007L1073 309H671L606 -123H456L522 309H229V456H542L641 1100H338V1247H661L727 1679ZM790 1100L692 456H1093L1192
1100H790Z" />
<glyph unicode="$" horiz-adv-x="1638" d="M759 1751H890V1556Q1110 1544 1320 1399L1232 1268Q1081 1383 890 1411V881L935 864L965 853Q1156 783 1232 727Q1388 615 1388 421Q1388 225 1228 100Q1109 7 890 -2V-195H759V0Q433 27 229 219L333 348Q493 193 759
160V743L741 750Q523 822 431 893Q292 1001 292 1157Q292 1356 466 1470Q581 1544 759 1559V1751ZM890 705V158Q1011 169 1085 215Q1119 237 1146 273Q1191 335 1191 409Q1191 523 1108 592Q1032 655 890 705ZM759 1413Q646 1398 574 1345Q480 1277 480 1170Q480
1076 568 1014Q636 966 759 926V1413Z" />
<glyph unicode="%" horiz-adv-x="2048" d="M1552 1608H1708L495 -51H340L1552 1608ZM515 1647Q666 1647 771 1539Q891 1414 891 1212Q891 1074 830 964Q723 774 512 774Q346 774 238 905Q137 1029 137 1213Q137 1426 269 1550Q372 1647 515 1647ZM513 1508Q418
1508 359 1429Q299 1348 299 1212Q299 1118 329 1049Q385 917 515 917Q608 917 666 991Q729 1072 729 1211Q729 1339 677 1418Q618 1508 513 1508ZM1536 782Q1686 782 1791 674Q1911 550 1911 348Q1911 209 1850 100Q1743 -90 1533 -90Q1366 -90 1258 41Q1157 165
1157 349Q1157 561 1289 685Q1392 782 1536 782ZM1533 643Q1438 643 1379 564Q1319 483 1319 348Q1319 254 1349 185Q1405 53 1535 53Q1628 53 1686 127Q1749 207 1749 346Q1749 474 1697 553Q1638 643 1533 643Z" />
<glyph unicode="&amp;" horiz-adv-x="1823" d="M1565 -72Q1419 42 1280 170Q1058 -74 714 -74Q554 -74 431 -7Q320 53 258 153Q195 254 195 375Q195 693 598 862Q518 961 479 1027Q406 1149 406 1265Q406 1404 495 1504Q616 1638 820 1638Q971 1638 1084 1557Q1235
1448 1235 1268Q1235 1098 1100 972Q1014 892 854 819Q1063 595 1266 422Q1358 560 1416 801L1581 735Q1497 449 1391 311Q1513 204 1692 72L1565 -72ZM756 934Q1051 1064 1051 1265Q1051 1346 995 1406Q926 1482 818 1482Q735 1482 672 1433Q590 1370 590 1262Q590
1169 653 1069Q681 1024 721 976Q755 934 756 934ZM699 748Q565 690 487 608Q388 505 388 380Q388 257 477 179Q574 92 738 92Q903 92 1038 175Q1105 217 1158 281Q927 492 699 748Z" />
<glyph unicode="&apos;" horiz-adv-x="594" d="M143 1751H417V1593Q417 1341 249 1161H127Q251 1309 274 1477H143V1751Z" />
<glyph unicode="(" horiz-adv-x="1004" d="M710 -195Q527 -30 410 208Q266 501 266 779Q266 1094 447 1420Q557 1616 710 1751H860Q725 1597 644 1467Q436 1135 436 777Q436 439 622 125Q709 -23 860 -195H710Z" />
<glyph unicode=")" horiz-adv-x="1004" d="M143 -195Q277 -41 359 90Q567 421 567 777Q567 1117 381 1431Q294 1577 143 1751H293Q476 1585 593 1348Q737 1055 737 778Q737 463 555 137Q446 -60 293 -195H143Z" />
<glyph unicode="*" horiz-adv-x="1024" d="M483 829L420 1196Q417 1212 417 1228Q417 1323 512 1323Q609 1323 609 1227Q609 1213 606 1196L543 829L788 1092Q831 1137 875 1137Q911 1137 942 1103Q970 1072 970 1035Q970 978 901 944L567 778L901 612Q970 578
970 520Q970 493 951 464Q920 419 874 419Q831 419 788 465L543 727L606 360Q609 344 609 329Q609 234 512 234Q417 234 417 328Q417 345 420 360L483 727L237 465Q194 419 150 419Q114 419 84 453Q56 485 56 521Q56 578 125 612L459 778L125 944Q56 978 56 1036Q56
1064 75 1092Q106 1137 152 1137Q195 1137 237 1092L483 829Z" />
<glyph unicode="+" horiz-adv-x="1720" d="M792 1454H927V846H1535V711H927V103H792V711H184V846H792V1454Z" />
<glyph unicode="," horiz-adv-x="635" d="M144 326H430V166Q430 -84 256 -243H119Q251 -113 275 43H144V326Z" />
<glyph unicode="-" horiz-adv-x="983" d="M150 795H834V641H150V795Z" />
<glyph unicode="." horiz-adv-x="635" d="M143 236H430V-51H143V236Z" />
<glyph unicode="/" horiz-adv-x="1024" d="M850 1729L944 1686L176 -172L82 -129L850 1729Z" />
<glyph unicode="0" horiz-adv-x="1556" d="M780 1640Q1069 1640 1234 1397Q1389 1169 1389 779Q1389 419 1258 195Q1093 -88 778 -88Q482 -88 317 166Q168 395 168 779Q168 1181 333 1412Q497 1640 780 1640ZM777 1480Q580 1480 471 1273Q373 1088 373 777Q373
490 457 310Q567 76 779 76Q972 76 1081 275Q1184 461 1184 776Q1184 1108 1073 1296Q965 1480 777 1480Z" />
<glyph unicode="1" horiz-adv-x="1290" d="M627 -51V1430Q460 1361 226 1309L185 1456Q515 1538 678 1638H811V-51H627Z" />
<glyph unicode="2" horiz-adv-x="1556" d="M199 -51V115Q293 446 711 729L768 768Q953 893 1015 955Q1127 1065 1127 1195Q1127 1317 1035 1394Q937 1477 778 1477Q533 1477 344 1262L215 1374Q427 1639 779 1639Q974 1639 1115 1556Q1332 1429 1332 1187Q1332
1015 1195 881Q1129 817 927 677L893 653L822 604Q444 345 394 123H1354V-51H199Z" />
<glyph unicode="3" horiz-adv-x="1556" d="M497 901H626Q817 901 933 962Q959 976 982 995Q1083 1080 1083 1206Q1083 1338 977 1413Q880 1480 728 1480Q500 1480 309 1300L192 1425Q272 1503 374 1553Q546 1638 737 1638Q933 1638 1076 1559Q1286 1443 1286 1222Q1286
1054 1163 941Q1068 852 889 829V821Q1101 799 1218 696Q1345 583 1345 394Q1345 156 1157 27Q995 -84 731 -84Q365 -84 137 150L256 276Q321 208 401 165Q556 80 731 80Q928 80 1040 170Q1140 251 1140 397Q1140 745 622 745H497V901Z" />
<glyph unicode="4" horiz-adv-x="1556" d="M877 1618H1102V510H1419V352H1102V-51H922V352H78V508L877 1618ZM922 510V1100Q922 1270 932 1454H924Q836 1280 774 1194L287 510H922Z" />
<glyph unicode="5" horiz-adv-x="1556" d="M336 1608H1268V1444H498L432 866H440Q595 1000 820 1000Q1035 1000 1184 876Q1360 729 1360 471Q1360 305 1277 174Q1179 17 993 -47Q890 -82 766 -82Q423 -82 211 113L313 242Q396 168 509 128Q638 82 766 82Q944 82
1058 202Q1161 311 1161 471Q1161 632 1066 733Q961 846 777 846Q645 846 530 782Q453 739 410 676L240 701L336 1608Z" />
<glyph unicode="6" horiz-adv-x="1556" d="M391 766Q471 901 615 964Q721 1010 831 1010Q1034 1010 1194 869Q1362 720 1362 487Q1362 257 1217 90Q1064 -84 807 -84Q510 -84 344 137Q263 244 228 356Q188 485 188 659Q188 818 254 987Q450 1493 1040 1677L1114
1534Q763 1405 597 1214Q416 1005 383 766H391ZM795 856Q634 856 513 729Q411 621 411 486Q411 362 486 251Q603 78 798 78Q967 78 1070 196Q1169 309 1169 474Q1169 654 1066 752Q957 856 795 856Z" />
<glyph unicode="7" horiz-adv-x="1556" d="M215 1608H1407V1458Q1216 1121 1052 670Q921 310 848 -51H651Q728 344 903 778Q1083 1225 1202 1438H393V1071H215V1608Z" />
<glyph unicode="8" horiz-adv-x="1556" d="M551 795Q413 846 317 938Q213 1039 213 1200Q213 1412 400 1538Q552 1640 771 1640Q973 1640 1119 1552Q1323 1430 1323 1218Q1323 1033 1181 923Q1075 840 954 811V805Q1141 751 1241 655Q1376 527 1376 364Q1376 159
1201 33Q1035 -86 770 -86Q516 -86 356 16Q166 137 166 359Q166 527 298 647Q397 738 551 786V795ZM772 872Q941 915 1037 999Q1135 1087 1135 1200Q1135 1325 1037 1410Q934 1499 772 1499Q640 1499 546 1440Q410 1356 410 1200Q410 1078 504 998Q568 945 670
905Q760 869 772 872ZM756 733Q573 682 460 580Q365 494 365 371Q365 217 500 135Q607 70 770 70Q927 70 1034 137Q1173 224 1173 378Q1173 530 997 637Q919 684 801 721Q759 734 756 733Z" />
<glyph unicode="9" horiz-adv-x="1556" d="M1155 776Q1109 684 1034 622Q894 506 711 506Q501 506 347 643Q178 791 178 1047Q178 1301 353 1478Q514 1640 754 1640Q1037 1640 1197 1427Q1349 1226 1349 886Q1349 399 1101 155Q888 -55 438 -109L354 49Q757 74
950 257Q1135 432 1163 776H1155ZM752 1480Q602 1480 501 1380Q373 1254 373 1060Q373 882 469 779Q576 664 736 664Q885 664 998 771Q1128 893 1128 1058Q1128 1272 983 1399Q891 1480 752 1480Z" />
<glyph unicode=":" horiz-adv-x="635" d="M184 1116H450V848H184V1116ZM184 217H450V-51H184V217Z" />
<glyph unicode=";" horiz-adv-x="635" d="M184 1157H450V889H184V1157ZM184 340H450V178Q450 -65 297 -244H184Q296 -98 315 72H184V340Z" />
<glyph unicode="&lt;" horiz-adv-x="1720" d="M1536 1446V1303L433 778L1536 254V111L154 778L1536 1446Z" />
<glyph unicode="=" horiz-adv-x="1720" d="M184 1085H1536V950H184V1085ZM184 606H1536V471H184V606Z" />
<glyph unicode="&gt;" horiz-adv-x="1720" d="M184 111V254L1288 778L184 1303V1446L1566 778L184 111Z" />
<glyph unicode="?" horiz-adv-x="1587" d="M614 207H872V-51H614V207ZM137 1350Q230 1473 358 1541Q538 1638 759 1638Q1005 1638 1168 1544Q1274 1482 1328 1390Q1368 1321 1368 1244Q1368 1126 1298 1035Q1243 963 1128 895Q978 805 921 741Q852 665 835 552Q825
490 825 381H663Q664 567 694 663Q748 838 932 950Q1044 1018 1089 1067Q1155 1137 1155 1239Q1155 1354 1037 1424Q936 1484 761 1484Q457 1484 266 1241L137 1350Z" />
<glyph unicode="@" horiz-adv-x="2007" d="M1304 1231L1429 1190Q1373 1053 1342 885Q1315 742 1315 631Q1315 444 1446 444Q1553 444 1630 565Q1704 681 1704 855Q1704 1119 1530 1303Q1329 1516 1014 1516Q731 1516 523 1334Q276 1117 276 775Q276 446 496 238Q699
45 1014 45Q1432 45 1704 326L1796 217Q1477 -84 1015 -84Q600 -84 351 195Q141 431 141 776Q141 1119 374 1366Q534 1536 757 1606Q883 1645 1015 1645Q1325 1645 1554 1462Q1727 1323 1797 1114Q1837 993 1837 862Q1837 627 1725 476Q1606 315 1431 315Q1317
315 1253 401Q1220 445 1208 516Q1145 407 1051 352Q962 299 862 299Q708 299 613 409Q520 517 520 697Q520 931 659 1094Q801 1260 998 1260Q1184 1260 1257 1104L1304 1231ZM1000 1129Q887 1129 798 1035Q674 904 674 698Q674 594 712 527Q764 434 875 434Q991
434 1081 553Q1194 704 1194 889Q1194 1129 1000 1129Z" />
<glyph unicode="A" horiz-adv-x="1556" d="M682 1616H875L1532 -51H1323L1137 438H420L234 -51H25L682 1616ZM1082 596L908 1055Q813 1299 783 1423H775Q745 1306 650 1055L476 596H1082Z" />
<glyph unicode="B" horiz-adv-x="1577" d="M223 1608H737Q956 1608 1089 1559Q1205 1516 1276 1432Q1361 1332 1361 1192Q1361 1022 1247 921Q1160 844 1013 815V809Q1190 775 1294 696Q1437 587 1437 409Q1437 144 1203 28Q1042 -51 800 -51H223V1608ZM409 1454V889H710Q876
889 997 940Q1158 1008 1158 1168Q1158 1454 724 1454H409ZM409 739V105H776Q964 105 1070 160Q1112 181 1146 214Q1230 297 1230 418Q1230 578 1071 662Q923 739 720 739H409Z" />
<glyph unicode="C" horiz-adv-x="1638" d="M1534 139Q1276 -84 921 -84Q554 -84 319 182Q121 407 121 774Q121 1076 272 1301Q322 1376 385 1435Q606 1640 909 1640Q1097 1640 1250 1574Q1370 1522 1497 1409L1381 1272Q1262 1394 1138 1437Q1040 1472 919 1472Q653
1472 494 1279Q326 1076 326 771Q326 510 457 328Q535 220 654 155Q780 86 919 86Q1220 86 1430 295L1534 139Z" />
<glyph unicode="D" horiz-adv-x="1720" d="M201 1608H698Q1048 1608 1267 1462Q1413 1366 1498 1213Q1601 1026 1601 782Q1601 477 1450 267Q1221 -51 682 -51H201V1608ZM389 1444V115H670Q950 115 1130 226Q1273 314 1342 477Q1398 610 1398 779Q1398 1176 1130
1338Q955 1444 682 1444H389Z" />
<glyph unicode="E" horiz-adv-x="1434" d="M207 1608H1286V1444H393V889H1190V729H393V117H1313V-51H207V1608Z" />
<glyph unicode="F" horiz-adv-x="1352" d="M211 1608H1253V1442H399V883H1159V723H399V-51H211V1608Z" />
<glyph unicode="G" horiz-adv-x="1720" d="M1408 -60L1375 153Q1332 94 1284 54Q1120 -82 895 -82Q553 -82 331 156Q114 388 114 773Q114 1154 341 1401Q561 1641 909 1641Q1121 1641 1278 1572Q1379 1527 1492 1438L1385 1297Q1289 1382 1197 1422Q1079 1473
916 1473Q653 1473 487 1289Q319 1103 319 770Q319 510 429 339Q510 213 642 147Q763 86 905 86Q1076 86 1203 174Q1312 248 1371 346V602H900V760H1551V-60H1408Z" />
<glyph unicode="H" horiz-adv-x="1679" d="M199 1608H385V889H1295V1608H1481V-51H1295V729H385V-51H199V1608Z" />
<glyph unicode="I" horiz-adv-x="860" d="M127 1608H733V1463H524V94H733V-51H127V94H336V1463H127V1608Z" />
<glyph unicode="J" horiz-adv-x="1106" d="M670 1608H860V402Q860 159 764 51Q644 -84 417 -84Q141 -84 0 209L117 324Q222 86 411 86Q560 86 625 189Q670 261 670 414V1608Z" />
<glyph unicode="K" horiz-adv-x="1536" d="M209 1608H397V813L1159 1608H1407L729 918L1499 -51H1247L600 803L397 606V-51H209V1608Z" />
<glyph unicode="L" horiz-adv-x="1229" d="M217 1608H410V119H1209V-51H217V1608Z" />
<glyph unicode="M" horiz-adv-x="2007" d="M188 1608H472L856 815Q947 626 999 465H1007Q1058 624 1151 815L1534 1608H1818V-51H1634V858Q1634 1261 1642 1454H1632Q1548 1231 1439 1002L1073 228H933L567 1002Q455 1236 374 1454H364Q371 1259 372 895V858V-51H188V1608Z"
/>
<glyph unicode="N" horiz-adv-x="1679" d="M193 1608H455L1090 629Q1207 448 1313 236H1319Q1303 649 1303 807V1608H1487V-51H1313L572 1092Q476 1239 373 1434H363Q379 1192 379 840V-51H193V1608Z" />
<glyph unicode="O" horiz-adv-x="1761" d="M884 1640Q1118 1640 1303 1518Q1505 1386 1599 1144Q1663 977 1663 779Q1663 517 1555 313Q1446 107 1248 3Q1082 -84 880 -84Q605 -84 405 73Q223 215 147 454Q98 605 98 779Q98 1191 352 1434Q567 1640 884 1640ZM878
1478Q691 1478 547 1363Q305 1170 305 778Q305 557 388 393Q454 263 564 184Q702 84 881 84Q1148 84 1310 294Q1456 482 1456 778Q1456 1083 1302 1275Q1139 1478 878 1478Z" />
<glyph unicode="P" horiz-adv-x="1516" d="M219 1608H774Q1022 1608 1179 1524Q1255 1483 1307 1417Q1408 1290 1408 1115Q1408 596 763 596H409V-51H219V1608ZM409 1448V754H724Q971 754 1082 830Q1201 910 1201 1112Q1201 1294 1065 1379Q955 1448 757 1448H409Z" />
<glyph unicode="Q" horiz-adv-x="1823" d="M1600 -182Q1468 -101 1307 31Q1130 -84 893 -84Q620 -84 419 74Q240 216 163 453Q115 603 115 778Q115 1131 309 1369Q530 1640 897 1640Q1252 1640 1473 1382Q1678 1141 1678 780Q1678 389 1438 139Q1569 38 1710 -43L1600
-182ZM856 547Q1086 406 1295 252Q1475 442 1475 776Q1475 995 1394 1160Q1331 1288 1226 1368Q1083 1478 897 1478Q709 1478 564 1366Q316 1174 316 777Q316 538 415 364Q489 232 610 157Q740 76 902 76Q1060 76 1176 150L1151 167Q915 333 756 426L856 547Z"
/>
<glyph unicode="R" horiz-adv-x="1556" d="M209 1608H766Q1022 1608 1171 1514Q1368 1390 1368 1157Q1368 948 1209 835Q1117 769 915 731V724Q1073 671 1180 505Q1304 311 1484 -51H1253Q1068 377 945 520Q814 671 598 671H397V-51H209V1608ZM397 1450V823H700Q912
823 1034 901Q1165 984 1165 1149Q1165 1450 733 1450H397Z" />
<glyph unicode="S" horiz-adv-x="1454" d="M199 326Q412 86 738 86Q907 86 1000 156Q1106 236 1106 371Q1106 507 1002 589Q917 656 709 727L600 764Q398 833 308 903Q170 1011 170 1192Q170 1394 312 1512Q462 1638 710 1638Q1014 1638 1247 1454L1147 1311Q962
1478 709 1478Q541 1478 451 1400Q371 1330 371 1210Q371 1111 442 1045Q520 972 725 905L844 866Q1086 787 1194 678Q1313 558 1313 381Q1313 156 1142 29Q993 -82 734 -82Q325 -82 84 193L199 326Z" />
<glyph unicode="T" horiz-adv-x="1434" d="M25 1608H1409V1440H809V-51H625V1440H25V1608Z" />
<glyph unicode="U" horiz-adv-x="1720" d="M213 1608H401V545Q401 385 467 282Q491 244 526 211Q662 84 862 84Q1076 84 1212 230Q1319 343 1319 545V1608H1507V523Q1507 290 1399 157Q1204 -84 858 -84Q507 -84 314 166Q213 296 213 523V1608Z" />
<glyph unicode="V" horiz-adv-x="1516" d="M20 1608H231L636 535Q709 343 753 176H761Q800 330 878 535L1284 1608H1495L837 -73H677L20 1608Z" />
<glyph unicode="W" horiz-adv-x="2007" d="M2001 1608L1558 -73H1395L1096 844Q1037 1022 1007 1211H999Q968 1018 911 844L612 -73H448L6 1608H205L442 654Q486 479 538 228H547Q586 416 655 637L917 1475H1089L1352 637Q1418 425 1460 228H1468Q1511 436 1565
654L1802 1608H2001Z" />
<glyph unicode="X" horiz-adv-x="1638" d="M108 1608H344L819 924L1294 1608H1530L938 793L1583 -51H1339L819 668L299 -51H55L700 793L108 1608Z" />
<glyph unicode="Y" horiz-adv-x="1475" d="M23 1608H256L738 877L1219 1608H1452L830 719V-51H646V719L23 1608Z" />
<glyph unicode="Z" horiz-adv-x="1536" d="M156 1608H1354V1463L561 404Q459 267 332 125V115H1433V-51H90V90L895 1151Q899 1157 912 1174Q1012 1309 1112 1434V1442H156V1608Z" />
<glyph unicode="[" horiz-adv-x="1024" d="M291 1751H881V1591H451V-35H881V-195H291V1751Z" />
<glyph unicode="\" horiz-adv-x="1024" d="M850 -172L944 -129L176 1729L82 1686L850 -172Z" />
<glyph unicode="]" horiz-adv-x="1024" d="M733 1751V-195H143V-35H573V1591H143V1751H733Z" />
<glyph unicode="^" horiz-adv-x="1024" d="M411 1608H612L876 1340H710L512 1512L313 1340H147L411 1608Z" />
<glyph unicode="_" horiz-adv-x="625" d="M0 -246V-195H625V-246H0Z" />
<glyph unicode="`" horiz-adv-x="1024" d="M477 1608L731 1340H561L223 1608H477Z" />
<glyph unicode="a" horiz-adv-x="1331" d="M959 713V752Q959 896 880 967Q808 1032 658 1032Q438 1032 254 891L172 1024Q386 1186 661 1186Q911 1186 1038 1051Q1143 939 1143 743V309Q1143 79 1215 -51H1035Q996 32 977 162H971Q914 60 803 -12Q690 -86 524
-86Q351 -86 237 16Q117 124 117 291Q117 491 292 603Q465 713 819 713H959ZM959 571H830Q310 571 310 293Q310 203 366 143Q434 72 553 72Q707 72 823 170Q959 284 959 440V571Z" />
<glyph unicode="b" horiz-adv-x="1454" d="M197 1700H383V967Q432 1046 507 1098Q635 1186 789 1186Q940 1186 1069 1108Q1239 1006 1308 804Q1348 689 1348 552Q1348 294 1217 123Q1058 -84 784 -84Q598 -84 459 28Q413 64 373 119L350 -57H197V1700ZM383 317Q439
213 519 153Q628 72 756 72Q952 72 1063 231Q1151 356 1151 548Q1151 692 1098 803Q1049 907 960 967Q867 1030 754 1030Q534 1030 383 762V317Z" />
<glyph unicode="c" horiz-adv-x="1311" d="M1231 143Q1043 -86 714 -86Q454 -86 291 73Q111 248 111 550Q111 775 223 940Q326 1092 498 1154Q593 1188 701 1188Q975 1188 1178 1014L1080 877Q918 1030 712 1030Q512 1030 399 874Q306 747 306 551Q306 393 370
279Q439 157 563 105Q637 74 723 74Q957 74 1112 266L1231 143Z" />
<glyph unicode="d" horiz-adv-x="1454" d="M1071 1700H1257V-57H1079V119Q1034 52 975 9Q844 -84 669 -84Q485 -84 344 19Q106 192 106 552Q106 760 195 914Q293 1082 469 1150Q564 1186 664 1186Q834 1186 966 1084Q1028 1036 1071 967V1700ZM1071 762Q919 1030
699 1030Q563 1030 458 939Q303 806 303 548Q303 372 377 252Q487 72 700 72Q836 72 949 166Q1019 225 1071 324V762Z" />
<glyph unicode="e" horiz-adv-x="1413" d="M1257 533H326Q330 343 415 230Q530 77 749 77Q980 77 1137 277L1253 154Q1054 -85 740 -85Q427 -85 259 128Q129 293 129 542Q129 756 223 915Q315 1069 473 1140Q583 1190 707 1190Q995 1190 1150 960Q1257 801 1257
586V533ZM1061 676Q1049 824 967 918Q865 1036 703 1036Q585 1036 488 961Q360 863 334 676H1061Z" />
<glyph unicode="f" horiz-adv-x="1024" d="M338 1157V1251Q338 1439 414 1547Q523 1700 731 1700Q879 1700 1011 1620L938 1489Q845 1546 746 1546Q603 1546 547 1415Q522 1355 522 1253V1157H919V1014H522V-51H338V1014H29V1157H338Z" />
<glyph unicode="g" horiz-adv-x="1372" d="M1190 1157V274Q1190 19 1061 -109Q925 -244 666 -244Q371 -244 168 -88L259 47Q420 -88 667 -88Q876 -88 960 52Q1006 128 1006 236V373Q953 303 866 261Q761 211 654 211Q485 211 350 299Q134 438 134 698Q134 928
320 1073Q467 1186 657 1186Q866 1186 1014 1051L1045 1157H1190ZM1006 848Q895 1030 670 1030Q563 1030 481 980Q329 888 329 699Q329 575 407 483Q504 367 667 367Q837 367 950 486Q981 518 1006 563V848Z" />
<glyph unicode="h" horiz-adv-x="1434" d="M197 1700H383V942Q466 1054 577 1116Q694 1180 814 1180Q1045 1180 1153 1025Q1233 911 1233 713V-51H1045V690Q1045 844 995 920Q931 1018 787 1018Q689 1018 594 961Q457 878 383 717V-51H197V1700Z" />
<glyph unicode="i" horiz-adv-x="655" d="M215 1638H440V1415H215V1638ZM233 1157H421V-51H233V1157Z" />
<glyph unicode="j" horiz-adv-x="778" d="M330 1638H553V1415H330V1638ZM349 1157H535V260Q535 92 507 6Q434 -224 64 -244L1 -86Q215 -78 294 18Q349 85 349 262V1157Z" />
<glyph unicode="k" horiz-adv-x="1290" d="M201 1700H387V629L946 1157H1190L708 698L1237 -51H997L582 588L387 410V-51H201V1700Z" />
<glyph unicode="l" horiz-adv-x="676" d="M225 1700H413V141Q413 102 450 102H610L589 -51H399Q225 -51 225 119V1700Z" />
<glyph unicode="m" horiz-adv-x="1925" d="M340 1157V948Q393 1067 507 1132Q591 1180 677 1180Q932 1180 1011 928Q1056 1027 1125 1087Q1233 1180 1370 1180Q1564 1180 1673 1024Q1745 920 1745 713V-51H1563V709Q1563 860 1504 939Q1442 1022 1335 1022Q1236
1022 1150 931Q1073 851 1046 735V-51H866V719Q866 853 812 930Q747 1022 640 1022Q533 1022 445 914Q378 833 348 711V-51H164V1157H340Z" />
<glyph unicode="n" horiz-adv-x="1434" d="M379 1157V940Q471 1060 591 1122Q702 1180 816 1180Q966 1180 1073 1106Q1235 993 1235 713V-51H1049V690Q1049 1018 792 1018Q693 1018 600 962Q460 880 385 717V-51H197V1157H379Z" />
<glyph unicode="o" horiz-adv-x="1393" d="M699 1188Q946 1188 1117 1020Q1298 843 1298 554Q1298 385 1236 250Q1156 77 993 -12Q858 -86 695 -86Q401 -86 229 131Q94 301 94 554Q94 884 324 1063Q485 1188 699 1188ZM694 1034Q511 1034 392 882Q289 751 289
551Q289 409 342 300Q392 195 483 135Q579 72 697 72Q840 72 949 165Q1103 298 1103 552Q1103 767 984 902Q867 1034 694 1034Z" />
<glyph unicode="p" horiz-adv-x="1454" d="M373 1157V983Q450 1074 553 1126Q670 1186 795 1186Q1055 1186 1209 1012Q1348 855 1348 593Q1348 360 1240 209Q1089 -2 800 -2Q638 -2 512 82Q435 135 383 217V-244H197V1157H373ZM383 414Q531 154 770 154Q972 154
1075 307Q1151 419 1151 596Q1151 783 1064 896Q960 1030 763 1030Q655 1030 557 972Q449 908 383 784V414Z" />
<glyph unicode="q" horiz-adv-x="1454" d="M1071 -244V217Q1021 139 951 89Q822 -2 652 -2Q374 -2 222 198Q106 351 106 592Q106 837 227 990Q381 1186 661 1186Q906 1186 1081 983L1106 1157H1257V-244H1071ZM1071 784Q1015 890 929 951Q819 1030 691 1030Q518
1030 414 923Q303 810 303 595Q303 404 392 288Q495 154 686 154Q921 154 1071 414V784Z" />
<glyph unicode="r" horiz-adv-x="922" d="M363 823H371Q498 1186 764 1186Q847 1186 918 1153L860 981Q808 1004 738 1004Q484 1004 381 580V-51H193V1157H373L363 823Z" />
<glyph unicode="s" horiz-adv-x="1208" d="M202 236Q388 82 621 82Q890 82 890 260Q890 342 798 400Q739 437 614 481L510 518Q337 579 259 643Q163 722 163 856Q163 1016 300 1110Q413 1188 583 1188Q831 1188 1040 1044L944 901Q777 1028 593 1028Q511 1028
454 998Q363 952 363 861Q363 789 427 748Q467 722 608 670L735 623Q908 558 992 485Q1095 396 1095 264Q1095 92 945 -8Q830 -84 607 -84Q322 -84 102 94L202 236Z" />
<glyph unicode="t" horiz-adv-x="963" d="M494 1528V1157H868V1014H494V262Q494 176 509 139Q535 74 614 74Q718 74 823 146L875 13Q742 -76 584 -76Q312 -76 312 238V1014H27V1157H312V1432L494 1528Z" />
<glyph unicode="u" horiz-adv-x="1434" d="M197 1157H383V418Q383 85 643 85Q746 85 845 149Q975 234 1045 393V1157H1235V-51H1055V170Q964 47 840 -17Q729 -74 613 -74Q384 -74 275 80Q197 190 197 393V1157Z" />
<glyph unicode="v" horiz-adv-x="1188" d="M23 1157H234L502 428L512 402Q566 253 590 164H598Q620 247 679 409L687 428L955 1157H1166L670 -72H519L23 1157Z" />
<glyph unicode="w" horiz-adv-x="1802" d="M33 1157H230L434 448Q479 294 508 168H514Q564 357 596 448L817 1071H985L1207 448Q1234 372 1282 191L1288 168H1295Q1321 286 1368 448L1573 1157H1770L1379 -70H1221L975 600Q936 706 905 860H897Q862 693 828 600L582
-70H424L33 1157Z" />
<glyph unicode="x" horiz-adv-x="1229" d="M64 1157H283L615 680L946 1157H1165L729 569L1194 -51H969L615 451L260 -51H35L500 569L64 1157Z" />
<glyph unicode="y" horiz-adv-x="1249" d="M70 1157H283L539 592Q595 468 635 340H641L650 360Q720 529 748 588L1014 1157H1225L648 -12Q576 -158 468 -208Q390 -244 269 -244H193L142 -82H244Q344 -82 397 -52Q452 -22 490 57L545 172L70 1157Z" />
<glyph unicode="z" horiz-adv-x="1188" d="M141 1157H1032V1032L514 353Q433 246 315 113V105H1075V-51H84V82L610 762Q707 886 803 997V1005H141V1157Z" />
<glyph unicode="{" horiz-adv-x="1065" d="M211 840Q305 842 365 879Q477 949 477 1108V1393Q477 1561 533 1634Q620 1748 922 1751V1610Q762 1608 700 1567Q637 1525 637 1405V1098Q637 863 450 778Q637 694 637 459V152Q637 33 700 -10Q762 -52 922 -53V-195Q656
-193 563 -111Q497 -52 483 57Q477 100 477 164V449Q477 543 436 607Q368 713 211 717V840Z" />
<glyph unicode="|" horiz-adv-x="901" d="M401 1802H499V-246H401V1802Z" />
<glyph unicode="}" horiz-adv-x="1065" d="M143 -53Q268 -53 347 -20Q428 15 428 152V459Q428 693 614 778Q428 860 428 1098V1405Q428 1524 364 1567Q304 1607 143 1610V1751Q410 1748 502 1667Q568 1608 582 1500Q588 1456 588 1393V1108Q588 1013 628 950Q697
843 854 840V717Q759 714 700 677Q588 608 588 449V164Q588 -5 532 -78Q443 -192 143 -195V-53Z" />
<glyph unicode="~" horiz-adv-x="1024" d="M846 1424Q788 1360 685 1360Q620 1360 506 1407Q412 1446 343 1446Q253 1446 178 1393V1514Q240 1577 340 1577Q403 1577 520 1528Q608 1491 681 1491Q776 1491 846 1542V1424Z" />
<glyph unicode="&#xa0;" horiz-adv-x="683" />
<glyph unicode="&#xa1;" horiz-adv-x="676" d="M260 1176H416L455 -51H221L260 1176ZM209 1608H467V1350H209V1608Z" />
<glyph unicode="&#xa2;" horiz-adv-x="1495" d="M1008 1640L1123 1593L1037 1368Q1165 1321 1297 1208L1200 1077Q1096 1179 977 1221L633 332Q711 293 812 293Q1044 293 1203 485L1321 362Q1130 133 806 133Q681 133 570 172L467 -94L353 -47L459 227Q199 407
199 769Q199 995 312 1160Q414 1310 583 1371Q682 1407 792 1407Q832 1407 900 1400L914 1399L1008 1640ZM854 1245Q833 1249 804 1249Q605 1249 492 1099Q396 970 396 769Q396 543 529 406L854 1245Z" />
<glyph unicode="&#xa3;" horiz-adv-x="1638" d="M528 920V1086Q528 1376 698 1528Q825 1641 1019 1641Q1250 1641 1423 1479L1325 1346Q1200 1479 1022 1479Q826 1479 748 1305Q704 1210 704 1072V920H1228V785H704V633Q704 448 660 324Q619 207 524 119H1402V-51H284V88Q418
193 473 315Q528 438 528 613V785H231V920H528Z" />
<glyph unicode="&#xa4;" horiz-adv-x="1638" d="M1368 1243L1218 1094Q1333 948 1333 779Q1333 608 1218 461L1368 311L1284 227L1134 377Q989 264 820 264Q646 264 502 377L352 227L268 311L418 461Q303 604 303 780Q303 952 418 1094L266 1243L350 1327L502
1178Q646 1290 818 1290Q989 1290 1134 1178L1284 1327L1368 1243ZM817 1175Q722 1175 635 1130Q525 1073 467 964Q420 877 420 777Q420 663 482 564Q540 473 635 423Q722 377 820 377Q941 377 1043 448Q1137 513 1183 618Q1216 695 1216 779Q1216 955 1085 1074Q973
1175 817 1175Z" />
<glyph unicode="&#xa5;" horiz-adv-x="1638" d="M166 1608H391L819 945L1247 1608H1472L960 879H1415V762H909V506H1415V387H909V-51H729V387H223V506H729V762H223V879H678L166 1608Z" />
<glyph unicode="&#xa6;" horiz-adv-x="901" d="M401 1731H499V850H401V1731ZM401 707H499V-174H401V707Z" />
<glyph unicode="&#xa7;" horiz-adv-x="2048" d="M665 190Q833 30 1077 30Q1196 30 1268 88Q1319 130 1319 190Q1319 266 1249 309Q1180 352 993 430L885 475Q714 546 624 616Q520 699 520 831Q520 1022 727 1112Q590 1201 590 1347Q590 1477 713 1573Q833 1667
1027 1667Q1215 1667 1372 1565Q1430 1527 1474 1479L1368 1372Q1215 1524 1028 1524Q906 1524 850 1489Q770 1440 770 1362Q770 1288 848 1235Q911 1192 1071 1133L1147 1104Q1322 1038 1421 971Q1550 884 1550 732Q1550 611 1460 524Q1409 474 1331 444Q1493
355 1493 202Q1493 71 1397 -6Q1262 -115 1057 -115Q748 -115 551 80L665 190ZM882 1040Q811 1026 764 986Q694 926 694 842Q694 763 788 699Q847 659 991 596L1075 559Q1104 546 1166 522Q1191 512 1212 504Q1380 575 1380 707Q1380 815 1269 880Q1221 907 1043
977Q1019 986 991 997L882 1040Z" />
<glyph unicode="&#xa8;" horiz-adv-x="1024" d="M178 1561H399V1340H178V1561ZM625 1561H846V1340H625V1561Z" />
<glyph unicode="&#xa9;" horiz-adv-x="2048" d="M1528 285Q1323 102 1046 102Q753 102 570 319Q424 492 424 768Q424 1038 580 1226Q644 1304 736 1357Q876 1438 1035 1438Q1210 1438 1350 1361Q1419 1322 1499 1249L1395 1124Q1328 1195 1268 1230Q1171 1286
1043 1286Q850 1286 728 1143Q604 996 604 765Q604 550 715 416Q846 256 1044 256Q1271 256 1432 424L1528 285ZM1028 1759Q1275 1759 1498 1633Q1690 1523 1818 1347Q2005 1088 2005 777Q2005 484 1836 235Q1678 2 1425 -115Q1233 -203 1023 -203Q771 -203 546
-75Q352 37 224 217Q43 473 43 780Q43 996 140 1196Q274 1473 548 1631Q768 1759 1028 1759ZM1021 1669Q801 1669 602 1559Q424 1461 306 1299Q133 1063 133 776Q133 555 243 356Q341 178 502 60Q739 -113 1026 -113Q1247 -113 1445 -3Q1623 95 1742 257Q1915 493
1915 779Q1915 970 1832 1147Q1712 1402 1464 1549Q1260 1669 1021 1669Z" />
<glyph unicode="&#xaa;" horiz-adv-x="1077" d="M691 1321V1350Q691 1513 506 1513Q372 1513 255 1423L189 1520Q333 1626 515 1626Q675 1626 763 1538Q830 1471 830 1350V1075Q830 929 877 844H744Q723 889 709 971Q598 825 426 825Q325 825 253 876Q158 942
158 1058Q158 1191 287 1260Q398 1321 605 1321H691ZM691 1225L607 1223Q458 1219 380 1182Q303 1147 303 1064Q303 1004 348 969Q387 938 450 938Q568 938 645 1028Q691 1083 691 1145V1225Z" />
<glyph unicode="&#xab;" horiz-adv-x="942" d="M725 1014H866L563 551L866 88H725L422 551L725 1014ZM434 1014H575L272 551L575 88H434L131 551L434 1014Z" />
<glyph unicode="&#xac;" horiz-adv-x="2048" d="M193 1174H1827V363H1692V1039H193V1174Z" />
<glyph unicode="&#xad;" horiz-adv-x="1720" d="M184 846H1536V711H184V846Z" />
<glyph unicode="&#xae;" horiz-adv-x="2048" d="M584 1413H1020Q1211 1413 1318 1352Q1489 1255 1489 1059Q1489 902 1372 811Q1294 750 1174 731V725Q1264 701 1358 555Q1430 444 1588 127H1383Q1239 452 1150 563Q1057 678 893 678H752V127H584V1413ZM752 1268V817H971Q1125
817 1229 885Q1311 939 1311 1052Q1311 1189 1192 1238Q1121 1268 996 1268H752ZM1028 1759Q1275 1759 1498 1633Q1690 1523 1818 1347Q2005 1088 2005 777Q2005 484 1836 235Q1678 2 1425 -115Q1233 -203 1023 -203Q771 -203 546 -75Q352 37 224 217Q43 473 43
780Q43 996 140 1196Q274 1473 548 1631Q768 1759 1028 1759ZM1021 1669Q801 1669 602 1559Q424 1461 306 1299Q133 1063 133 776Q133 555 243 356Q341 178 502 60Q739 -113 1026 -113Q1247 -113 1445 -3Q1623 95 1742 257Q1915 493 1915 779Q1915 970 1832 1147Q1712
1402 1464 1549Q1260 1669 1021 1669Z" />
<glyph unicode="&#xaf;" horiz-adv-x="1024" d="M154 1505H871V1390H154V1505Z" />
<glyph unicode="&#xb0;" horiz-adv-x="717" d="M342 1749Q417 1749 484 1707Q611 1627 611 1478Q611 1370 533 1290Q454 1208 339 1208Q281 1208 227 1234Q161 1265 119 1324Q70 1394 70 1480Q70 1538 96 1592Q149 1705 269 1739Q305 1749 342 1749ZM339 1640Q273
1640 224 1590Q179 1543 179 1477Q179 1435 202 1397Q250 1317 341 1317Q399 1317 444 1355Q502 1404 502 1479Q502 1561 434 1610Q392 1640 339 1640Z" />
<glyph unicode="&#xb1;" horiz-adv-x="1720" d="M792 1526H927V1047H1535V912H927V421H792V912H184V1047H792V1526ZM184 256H1536V121H184V256Z" />
<glyph unicode="&#xb2;" horiz-adv-x="983" d="M139 713V826Q221 1038 434 1145L500 1178Q588 1222 626 1257Q669 1298 669 1358Q669 1413 622 1445Q572 1479 497 1479Q339 1479 235 1358L135 1444Q258 1606 494 1606Q623 1606 710 1555Q831 1485 831 1354Q831
1243 746 1175Q694 1133 586 1082L512 1047Q347 969 305 844H846V713H139Z" />
<glyph unicode="&#xb3;" horiz-adv-x="983" d="M365 1227H451Q540 1227 594 1255Q663 1291 663 1364Q663 1407 629 1439Q575 1487 485 1487Q353 1487 244 1393L160 1483Q296 1604 493 1604Q612 1604 695 1563Q827 1498 827 1372Q827 1207 619 1174V1168Q838 1124
838 950Q838 820 720 753Q629 701 484 701Q264 701 127 826L211 920Q309 822 479 822Q670 822 670 964Q670 1040 603 1079Q544 1114 453 1114H365V1227Z" />
<glyph unicode="&#xb4;" horiz-adv-x="1024" d="M547 1608H801L463 1340H293L547 1608Z" />
<glyph unicode="&#xb5;" horiz-adv-x="1434" d="M197 -245V1157H383V418Q383 85 643 85Q747 85 845 149Q974 234 1045 393V1157H1235V-51H1055V170Q980 67 869 -3T643 -74Q561 -74 491 -42T383 45V-245H197Z" />
<glyph unicode="&#xb6;" horiz-adv-x="1565" d="M693 682H617Q430 682 301 788Q150 912 150 1137Q150 1411 380 1534Q514 1606 695 1606H1385V1518H1197V-77H1088V1518H802V-77H693V682Z" />
<glyph unicode="&#xb7;" horiz-adv-x="819" d="M411 963Q488 963 544 903Q594 851 594 778Q594 726 565 680Q510 594 408 594Q364 594 324 615Q225 668 225 780Q225 873 303 929Q351 963 411 963Z" />
<glyph unicode="&#xb8;" horiz-adv-x="1024" d="M570 195L482 63Q764 50 764 -83Q764 -170 644 -207Q539 -238 287 -244V-164Q594 -160 594 -84Q594 -14 357 -14Q350 -14 332 -14V27L439 195H570Z" />
<glyph unicode="&#xb9;" horiz-adv-x="983" d="M446 725V1458Q300 1392 213 1370L174 1485Q320 1524 462 1608H596V725H446Z" />
<glyph unicode="&#xba;" horiz-adv-x="1077" d="M513 1622Q724 1622 832 1460Q899 1359 899 1224Q899 1080 828 979Q719 825 512 825Q350 825 242 927Q125 1037 125 1222Q125 1369 202 1473Q312 1622 513 1622ZM515 1505Q408 1505 338 1423Q272 1345 272 1219Q272
1140 300 1079Q362 942 514 942Q622 942 689 1022Q752 1097 752 1219Q752 1331 698 1407Q629 1505 515 1505Z" />
<glyph unicode="&#xbb;" horiz-adv-x="942" d="M217 1014L520 551L217 88H76L379 551L76 1014H217ZM508 1014L811 551L508 88H367L670 551L367 1014H508Z" />
<glyph unicode="&#xbc;" horiz-adv-x="2048" d="M434 721V1463Q313 1401 215 1377L176 1485Q320 1526 448 1608H575V721H434ZM1540 1651L1620 1593L303 -94L223 -37L1540 1651ZM1485 859H1657V275H1839V154H1657V-53H1520V154H1024V281L1485 859ZM1520 275V564Q1520
655 1524 728H1518Q1454 629 1409 572L1176 275H1520Z" />
<glyph unicode="&#xbd;" horiz-adv-x="2048" d="M434 721V1463Q313 1401 215 1377L176 1485Q320 1526 448 1608H575V721H434ZM1175 -51V63Q1255 278 1472 387L1542 422Q1628 465 1665 500Q1712 543 1712 606Q1712 649 1679 678Q1628 725 1532 725Q1378 725 1270
596L1171 682Q1306 846 1533 846Q1663 846 1753 790Q1868 718 1868 599Q1868 487 1781 416Q1728 373 1618 319L1550 287Q1383 206 1341 86H1884V-51H1175ZM303 -94L223 -37L1540 1651L1620 1593L303 -94Z" />
<glyph unicode="&#xbe;" horiz-adv-x="2048" d="M451 -96L371 -39L1684 1653L1763 1595L451 -96ZM406 1227H492Q581 1227 635 1255Q704 1291 704 1364Q704 1407 670 1439Q616 1487 526 1487Q394 1487 285 1393L201 1483Q337 1604 534 1604Q653 1604 736 1563Q868
1498 868 1372Q868 1207 660 1174V1168Q879 1124 879 950Q879 820 761 753Q670 701 525 701Q305 701 168 826L252 920Q350 822 520 822Q711 822 711 964Q711 1040 644 1079Q585 1114 494 1114H406V1227ZM1546 859H1718V275H1900V154H1718V-53H1581V154H1085V281L1546
859ZM1581 275V564Q1581 655 1585 728H1579Q1515 629 1470 572L1237 275H1581Z" />
<glyph unicode="&#xbf;" horiz-adv-x="1587" d="M963 1350H705V1608H963V1350ZM1440 207Q1347 83 1219 15Q1039 -82 818 -82Q575 -82 409 12Q304 72 249 166Q209 235 209 313Q209 430 279 522Q333 593 449 662Q598 751 656 815Q725 892 742 1004Q751 1064 752
1176H914Q912 987 883 893Q829 718 645 606Q533 538 488 489Q422 419 422 316Q422 201 540 132Q642 72 817 72Q1120 72 1311 315L1440 207Z" />
<glyph unicode="&#xc0;" horiz-adv-x="1556" d="M682 1493H875L1532 -51H1323L1137 395H420L234 -51H25L682 1493ZM1078 553L908 973Q815 1196 783 1315H775Q745 1207 650 973L480 553H1078ZM764 1800L998 1606H828L510 1800H764Z" />
<glyph unicode="&#xc1;" horiz-adv-x="1556" d="M793 1800H1047L730 1606H560L793 1800ZM682 1493H875L1532 -51H1323L1137 395H420L234 -51H25L682 1493ZM1078 553L908 973Q815 1196 783 1315H775Q745 1207 650 973L480 553H1078Z" />
<glyph unicode="&#xc2;" horiz-adv-x="1556" d="M678 1800H879L1143 1585H977L779 1704L580 1585H414L678 1800ZM682 1493H875L1532 -51H1323L1137 395H420L234 -51H25L682 1493ZM1078 553L908 973Q815 1196 783 1315H775Q745 1207 650 973L480 553H1078Z" />
<glyph unicode="&#xc3;" horiz-adv-x="1556" d="M682 1493H875L1532 -51H1323L1137 395H420L234 -51H25L682 1493ZM1078 553L908 973Q815 1196 783 1315H775Q745 1207 650 973L480 553H1078ZM1112 1647Q1054 1583 952 1583Q886 1583 773 1630Q678 1669 610 1669Q519
1669 445 1616V1727Q505 1790 607 1790Q674 1790 787 1743Q880 1704 949 1704Q1042 1704 1112 1757V1647Z" />
<glyph unicode="&#xc4;" horiz-adv-x="1556" d="M459 1800H680V1605H459V1800ZM879 1800H1100V1605H879V1800ZM682 1493H875L1532 -51H1323L1137 395H420L234 -51H25L682 1493ZM1078 553L908 973Q815 1196 783 1315H775Q745 1207 650 973L480 553H1078Z" />
<glyph unicode="&#xc5;" horiz-adv-x="1556" d="M778 1800Q856 1800 914 1745Q970 1693 970 1628Q970 1591 952 1557Q936 1526 908 1503Q852 1458 777 1458Q708 1458 654 1498Q585 1549 585 1628Q585 1695 645 1749Q702 1800 778 1800ZM777 1724Q733 1724 697
1697Q663 1670 663 1627Q663 1595 687 1569Q723 1532 777 1532Q827 1532 863 1565Q892 1591 892 1628Q892 1668 858 1697Q824 1724 777 1724ZM675 1434H870L1527 -51H1318L1130 383H411L225 -51H18L675 1434ZM1075 530L901 938Q808 1155 776 1270H770Q739 1163
643 938L469 530H1075Z" />
<glyph unicode="&#xc6;" horiz-adv-x="1946" d="M1822 -51H1140L1046 438H450L235 -51H18L780 1608H1790V1444H1056L1155 891H1699V733H1175L1300 115H1822V-51ZM1026 596L892 1430H884L510 596H1026Z" />
<glyph unicode="&#xc7;" horiz-adv-x="1638" d="M778 80Q498 121 320 310Q121 520 121 850Q121 1193 365 1425Q590 1640 907 1640Q1103 1640 1257 1576Q1378 1525 1497 1419L1381 1286Q1267 1394 1144 1436Q1041 1470 917 1470Q678 1470 533 1331Q326 1132 326
847Q326 606 477 430Q638 244 918 244Q1221 244 1430 432L1534 285Q1265 72 889 72L842 -6Q879 -4 905 -4Q988 -4 1032 -27Q1106 -65 1106 -124Q1106 -244 874 -244Q763 -244 686 -219V-147Q776 -170 869 -170Q987 -170 987 -123Q987 -70 854 -70Q786 -70 688 -82L778
80Z" />
<glyph unicode="&#xc8;" horiz-adv-x="1434" d="M723 1800L957 1606H787L469 1800H723ZM207 1485H1286V1321H393V827H1190V667H393V117H1313V-51H207V1485Z" />
<glyph unicode="&#xc9;" horiz-adv-x="1434" d="M752 1800H1006L688 1606H518L752 1800ZM207 1485H1286V1321H393V827H1190V667H393V117H1313V-51H207V1485Z" />
<glyph unicode="&#xca;" horiz-adv-x="1434" d="M637 1800H838L1102 1585H936L737 1704L539 1585H373L637 1800ZM207 1485H1286V1321H393V827H1190V667H393V117H1313V-51H207V1485Z" />
<glyph unicode="&#xcb;" horiz-adv-x="1434" d="M418 1800H639V1605H418V1800ZM838 1800H1059V1605H838V1800ZM207 1485H1286V1321H393V827H1190V667H393V117H1313V-51H207V1485Z" />
<glyph unicode="&#xcc;" horiz-adv-x="860" d="M127 1485H733V1340H524V94H733V-51H127V94H336V1340H127V1485ZM416 1800L649 1606H479L162 1800H416Z" />
<glyph unicode="&#xcd;" horiz-adv-x="860" d="M127 1485H733V1340H524V94H733V-51H127V94H336V1340H127V1485ZM444 1800H698L381 1606H211L444 1800Z" />
<glyph unicode="&#xce;" horiz-adv-x="860" d="M127 1485H733V1340H524V94H733V-51H127V94H336V1340H127V1485ZM330 1800H531L795 1585H629L431 1704L232 1585H66L330 1800Z" />
<glyph unicode="&#xcf;" horiz-adv-x="860" d="M127 1485H733V1340H524V94H733V-51H127V94H336V1340H127V1485ZM111 1800H332V1605H111V1800ZM531 1800H752V1605H531V1800Z" />
<glyph unicode="&#xd0;" horiz-adv-x="1720" d="M201 1608H698Q1048 1608 1267 1462Q1414 1365 1498 1213Q1601 1026 1601 782Q1601 477 1450 267Q1221 -51 682 -51H201V787H0V881H201V1608ZM389 1444V881H655V787H389V115H669Q950 115 1130 226Q1398 391 1398
780Q1398 1176 1130 1338Q955 1444 682 1444H389Z" />
<glyph unicode="&#xd1;" horiz-adv-x="1679" d="M1174 1647Q1116 1583 1013 1583Q948 1583 834 1630Q740 1669 672 1669Q581 1669 506 1616V1727Q567 1790 669 1790Q736 1790 848 1743Q941 1704 1010 1704Q1103 1704 1174 1757V1647ZM193 1485H455L1090 578Q1095
571 1104 558Q1249 352 1313 236H1319Q1303 613 1303 744V1485H1487V-51H1313L572 1008Q464 1159 373 1303H363Q379 1082 379 774V-51H193V1485Z" />
<glyph unicode="&#xd2;" horiz-adv-x="1761" d="M866 1800L1099 1606H929L612 1800H866ZM883 1518Q1197 1518 1405 1341Q1663 1122 1663 719Q1663 424 1520 221Q1407 60 1222 -19Q1068 -84 881 -84Q473 -84 257 199Q98 408 98 719Q98 1140 376 1358Q581 1518 883
1518ZM878 1356Q593 1356 431 1142Q305 974 305 717Q305 470 420 307Q579 84 882 84Q1154 84 1313 271Q1456 440 1456 716Q1456 1029 1277 1203Q1119 1356 878 1356Z" />
<glyph unicode="&#xd3;" horiz-adv-x="1761" d="M895 1800H1149L831 1606H661L895 1800ZM883 1518Q1197 1518 1405 1341Q1663 1122 1663 719Q1663 424 1520 221Q1407 60 1222 -19Q1068 -84 881 -84Q473 -84 257 199Q98 408 98 719Q98 1140 376 1358Q581 1518 883
1518ZM878 1356Q593 1356 431 1142Q305 974 305 717Q305 470 420 307Q579 84 882 84Q1154 84 1313 271Q1456 440 1456 716Q1456 1029 1277 1203Q1119 1356 878 1356Z" />
<glyph unicode="&#xd4;" horiz-adv-x="1761" d="M780 1800H981L1245 1585H1079L880 1704L682 1585H516L780 1800ZM883 1518Q1197 1518 1405 1341Q1663 1122 1663 719Q1663 424 1520 221Q1407 60 1222 -19Q1068 -84 881 -84Q473 -84 257 199Q98 408 98 719Q98 1140
376 1358Q581 1518 883 1518ZM878 1356Q593 1356 431 1142Q305 974 305 717Q305 470 420 307Q579 84 882 84Q1154 84 1313 271Q1456 440 1456 716Q1456 1029 1277 1203Q1119 1356 878 1356Z" />
<glyph unicode="&#xd5;" horiz-adv-x="1761" d="M1214 1647Q1156 1583 1054 1583Q988 1583 874 1630Q780 1669 712 1669Q621 1669 547 1616V1727Q607 1790 709 1790Q776 1790 889 1743Q982 1704 1050 1704Q1144 1704 1214 1757V1647ZM883 1518Q1197 1518 1405
1341Q1663 1122 1663 719Q1663 424 1520 221Q1407 60 1222 -19Q1068 -84 881 -84Q473 -84 257 199Q98 408 98 719Q98 1140 376 1358Q581 1518 883 1518ZM878 1356Q593 1356 431 1142Q305 974 305 717Q305 470 420 307Q579 84 882 84Q1154 84 1313 271Q1456 440
1456 716Q1456 1029 1277 1203Q1119 1356 878 1356Z" />
<glyph unicode="&#xd6;" horiz-adv-x="1761" d="M561 1800H782V1605H561V1800ZM981 1800H1202V1605H981V1800ZM883 1518Q1197 1518 1405 1341Q1663 1122 1663 719Q1663 424 1520 221Q1407 60 1222 -19Q1068 -84 881 -84Q473 -84 257 199Q98 408 98 719Q98 1140
376 1358Q581 1518 883 1518ZM878 1356Q593 1356 431 1142Q305 974 305 717Q305 470 420 307Q579 84 882 84Q1154 84 1313 271Q1456 440 1456 716Q1456 1029 1277 1203Q1119 1356 878 1356Z" />
<glyph unicode="&#xd7;" horiz-adv-x="1720" d="M344 1386L860 868L1376 1386L1469 1294L950 778L1469 262L1376 170L860 688L344 170L252 262L770 778L252 1294L344 1386Z" />
<glyph unicode="&#xd8;" horiz-adv-x="1761" d="M1556 1661L1632 1597L1454 1386Q1663 1137 1663 778Q1663 427 1475 192Q1256 -84 880 -84Q590 -84 374 98L202 -104L131 -41L305 168Q98 412 98 778Q98 1131 291 1367Q513 1640 879 1640Q1165 1640 1384 1456L1556
1661ZM1331 1237L495 244Q653 84 880 84Q1079 84 1225 206Q1456 397 1456 775Q1456 1041 1331 1237ZM1267 1315Q1103 1478 881 1478Q609 1478 446 1258Q305 1069 305 778Q305 508 432 319L1267 1315Z" />
<glyph unicode="&#xd9;" horiz-adv-x="1720" d="M846 1800L1079 1606H909L592 1800H846ZM213 1485H401V500Q401 317 508 211Q636 84 860 84Q1097 84 1226 225Q1319 326 1319 500V1485H1507V477Q1507 277 1412 156Q1324 44 1180 -21Q1040 -84 860 -84Q519 -84 323
137Q213 262 213 477V1485Z" />
<glyph unicode="&#xda;" horiz-adv-x="1720" d="M875 1800H1128L811 1606H641L875 1800ZM213 1485H401V500Q401 317 508 211Q636 84 860 84Q1097 84 1226 225Q1319 326 1319 500V1485H1507V477Q1507 277 1412 156Q1324 44 1180 -21Q1040 -84 860 -84Q519 -84 323
137Q213 262 213 477V1485Z" />
<glyph unicode="&#xdb;" horiz-adv-x="1720" d="M760 1800H961L1225 1585H1059L860 1704L662 1585H496L760 1800ZM213 1485H401V500Q401 317 508 211Q636 84 860 84Q1097 84 1226 225Q1319 326 1319 500V1485H1507V477Q1507 277 1412 156Q1324 44 1180 -21Q1040
-84 860 -84Q519 -84 323 137Q213 262 213 477V1485Z" />
<glyph unicode="&#xdc;" horiz-adv-x="1720" d="M541 1800H762V1605H541V1800ZM961 1800H1182V1605H961V1800ZM213 1485H401V500Q401 317 508 211Q636 84 860 84Q1097 84 1226 225Q1319 326 1319 500V1485H1507V477Q1507 277 1412 156Q1324 44 1180 -21Q1040 -84
860 -84Q519 -84 323 137Q213 262 213 477V1485Z" />
<glyph unicode="&#xdd;" horiz-adv-x="1475" d="M752 1800H1006L688 1606H518L752 1800ZM23 1485H256L738 819L1219 1485H1452L830 662V-51H646V662L23 1485Z" />
<glyph unicode="&#xde;" horiz-adv-x="1516" d="M426 1335H799Q1033 1335 1191 1253Q1281 1207 1337 1132Q1429 1010 1429 841Q1429 547 1208 412Q1061 322 786 322H428V-51H240V1608H426V1335ZM426 482H754Q979 482 1093 548Q1226 626 1226 838Q1226 1010 1106
1095Q996 1173 786 1173H426V482Z" />
<glyph unicode="&#xdf;" horiz-adv-x="1393" d="M217 -51V1124Q217 1367 351 1503Q476 1630 689 1630Q861 1630 981 1556Q1163 1444 1163 1230Q1163 1016 992 904Q927 861 831 842V831Q963 806 1068 723Q1237 589 1237 372Q1237 141 1077 18Q951 -78 757 -78Q613
-78 503 -10L557 131Q631 72 739 72Q861 72 943 148Q1036 233 1036 382Q1036 575 880 676Q784 739 653 752V893Q796 903 885 990Q975 1078 975 1209Q975 1325 902 1400Q822 1480 690 1480Q522 1480 446 1334Q399 1244 399 1108V-51H217Z" />
<glyph unicode="&#xe0;" horiz-adv-x="1331" d="M641 1608L895 1340H725L387 1608H641ZM959 713V752Q959 896 880 967Q808 1032 658 1032Q438 1032 254 891L172 1024Q386 1186 661 1186Q911 1186 1038 1051Q1143 939 1143 743V309Q1143 79 1215 -51H1035Q996 32
977 162H971Q914 60 803 -12Q690 -86 524 -86Q351 -86 237 16Q117 124 117 291Q117 491 292 603Q465 713 819 713H959ZM959 571H830Q310 571 310 293Q310 203 366 143Q434 72 553 72Q707 72 823 170Q959 284 959 440V571Z" />
<glyph unicode="&#xe1;" horiz-adv-x="1331" d="M711 1608H965L627 1340H457L711 1608ZM959 713V752Q959 896 880 967Q808 1032 658 1032Q438 1032 254 891L172 1024Q386 1186 661 1186Q911 1186 1038 1051Q1143 939 1143 743V309Q1143 79 1215 -51H1035Q996 32
977 162H971Q914 60 803 -12Q690 -86 524 -86Q351 -86 237 16Q117 124 117 291Q117 491 292 603Q465 713 819 713H959ZM959 571H830Q310 571 310 293Q310 203 366 143Q434 72 553 72Q707 72 823 170Q959 284 959 440V571Z" />
<glyph unicode="&#xe2;" horiz-adv-x="1331" d="M576 1608H776L1041 1340H875L676 1512L477 1340H312L576 1608ZM959 713V752Q959 896 880 967Q808 1032 658 1032Q438 1032 254 891L172 1024Q386 1186 661 1186Q911 1186 1038 1051Q1143 939 1143 743V309Q1143
79 1215 -51H1035Q996 32 977 162H971Q914 60 803 -12Q690 -86 524 -86Q351 -86 237 16Q117 124 117 291Q117 491 292 603Q465 713 819 713H959ZM959 571H830Q310 571 310 293Q310 203 366 143Q434 72 553 72Q707 72 823 170Q959 284 959 440V571Z" />
<glyph unicode="&#xe3;" horiz-adv-x="1331" d="M1010 1424Q952 1360 849 1360Q784 1360 670 1407Q576 1446 508 1446Q417 1446 342 1393V1514Q405 1577 504 1577Q567 1577 684 1528Q772 1491 846 1491Q941 1491 1010 1542V1424ZM959 713V752Q959 896 880 967Q808
1032 658 1032Q438 1032 254 891L172 1024Q386 1186 661 1186Q911 1186 1038 1051Q1143 939 1143 743V309Q1143 79 1215 -51H1035Q996 32 977 162H971Q914 60 803 -12Q690 -86 524 -86Q351 -86 237 16Q117 124 117 291Q117 491 292 603Q465 713 819 713H959ZM959
571H830Q310 571 310 293Q310 203 366 143Q434 72 553 72Q707 72 823 170Q959 284 959 440V571Z" />
<glyph unicode="&#xe4;" horiz-adv-x="1331" d="M342 1561H563V1340H342V1561ZM789 1561H1010V1340H789V1561ZM959 713V752Q959 896 880 967Q808 1032 658 1032Q438 1032 254 891L172 1024Q386 1186 661 1186Q911 1186 1038 1051Q1143 939 1143 743V309Q1143 79
1215 -51H1035Q996 32 977 162H971Q914 60 803 -12Q690 -86 524 -86Q351 -86 237 16Q117 124 117 291Q117 491 292 603Q465 713 819 713H959ZM959 571H830Q310 571 310 293Q310 203 366 143Q434 72 553 72Q707 72 823 170Q959 284 959 440V571Z" />
<glyph unicode="&#xe5;" horiz-adv-x="1331" d="M677 1700Q754 1700 814 1644Q875 1586 875 1501Q875 1452 851 1408Q794 1303 675 1303Q592 1303 533 1364Q477 1422 477 1503Q477 1600 556 1660Q609 1700 677 1700ZM676 1610Q646 1610 618 1593Q567 1561 567
1501Q567 1461 594 1430Q627 1393 676 1393Q703 1393 726 1405Q785 1436 785 1501Q785 1551 746 1584Q716 1610 676 1610ZM959 713V752Q959 896 880 967Q808 1032 658 1032Q438 1032 254 891L172 1024Q386 1186 661 1186Q911 1186 1038 1051Q1143 939 1143 743V309Q1143
79 1215 -51H1035Q996 32 977 162H971Q914 60 803 -12Q690 -86 524 -86Q351 -86 237 16Q117 124 117 291Q117 491 292 603Q465 713 819 713H959ZM959 571H830Q310 571 310 293Q310 203 366 143Q434 72 553 72Q707 72 823 170Q959 284 959 440V571Z" />
<glyph unicode="&#xe6;" horiz-adv-x="2048" d="M897 705V754Q897 882 822 958Q776 1004 714 1019Q668 1030 593 1030Q387 1030 209 893L123 1018Q342 1184 596 1184Q752 1184 850 1132Q950 1079 1010 953Q1162 1186 1429 1186Q1726 1186 1865 937Q1948 790 1948
592V537H1063Q1075 74 1469 74Q1696 74 1848 273L1956 150Q1755 -84 1460 -84Q1243 -84 1109 21Q1029 83 961 201Q887 71 754 -8Q626 -84 482 -84Q359 -84 264 -32Q74 73 74 292Q74 506 297 624Q448 705 731 705H897ZM1766 674Q1751 826 1684 913Q1589 1036 1424
1036Q1237 1036 1136 873Q1086 794 1069 674H1766ZM895 572H756Q507 572 378 494Q264 425 264 295Q264 202 325 140Q395 69 514 69Q630 69 742 156Q820 218 862 303Q895 372 895 437V572Z" />
<glyph unicode="&#xe7;" horiz-adv-x="1311" d="M613 74Q473 97 389 141Q211 236 145 421Q111 515 111 625Q111 912 328 1072Q484 1188 700 1188Q978 1188 1178 1034L1080 903Q928 1028 713 1028Q522 1028 412 917Q306 810 306 627Q306 457 407 351Q523 229 723
229Q966 229 1112 387L1231 268Q1056 75 723 68L678 -6Q716 -4 742 -4Q824 -4 868 -27Q942 -65 942 -124Q942 -244 710 -244Q600 -244 523 -219V-147Q612 -170 705 -170Q823 -170 823 -123Q823 -70 690 -70Q623 -70 525 -82L613 74Z" />
<glyph unicode="&#xe8;" horiz-adv-x="1413" d="M682 1608L936 1340H766L428 1608H682ZM1257 533H326Q330 343 415 230Q530 77 749 77Q980 77 1137 277L1253 154Q1054 -85 740 -85Q427 -85 259 128Q129 293 129 542Q129 756 223 915Q315 1069 473 1140Q583 1190
707 1190Q995 1190 1150 960Q1257 801 1257 586V533ZM1061 676Q1049 824 967 918Q865 1036 703 1036Q585 1036 488 961Q360 863 334 676H1061Z" />
<glyph unicode="&#xe9;" horiz-adv-x="1413" d="M752 1608H1006L668 1340H498L752 1608ZM1257 533H326Q330 343 415 230Q530 77 749 77Q980 77 1137 277L1253 154Q1054 -85 740 -85Q427 -85 259 128Q129 293 129 542Q129 756 223 915Q315 1069 473 1140Q583 1190
707 1190Q995 1190 1150 960Q1257 801 1257 586V533ZM1061 676Q1049 824 967 918Q865 1036 703 1036Q585 1036 488 961Q360 863 334 676H1061Z" />
<glyph unicode="&#xea;" horiz-adv-x="1413" d="M616 1608H817L1081 1340H915L717 1512L518 1340H352L616 1608ZM1257 533H326Q330 343 415 230Q530 77 749 77Q980 77 1137 277L1253 154Q1054 -85 740 -85Q427 -85 259 128Q129 293 129 542Q129 756 223 915Q315
1069 473 1140Q583 1190 707 1190Q995 1190 1150 960Q1257 801 1257 586V533ZM1061 676Q1049 824 967 918Q865 1036 703 1036Q585 1036 488 961Q360 863 334 676H1061Z" />
<glyph unicode="&#xeb;" horiz-adv-x="1413" d="M383 1561H604V1340H383V1561ZM830 1561H1051V1340H830V1561ZM1257 533H326Q330 343 415 230Q530 77 749 77Q980 77 1137 277L1253 154Q1054 -85 740 -85Q427 -85 259 128Q129 293 129 542Q129 756 223 915Q315
1069 473 1140Q583 1190 707 1190Q995 1190 1150 960Q1257 801 1257 586V533ZM1061 676Q1049 824 967 918Q865 1036 703 1036Q585 1036 488 961Q360 863 334 676H1061Z" />
<glyph unicode="&#xec;" horiz-adv-x="655" d="M293 1608L547 1340H377L39 1608H293ZM234 1157H422V-51H234V1157Z" />
<glyph unicode="&#xed;" horiz-adv-x="655" d="M363 1608H617L279 1340H109L363 1608ZM234 1157H422V-51H234V1157Z" />
<glyph unicode="&#xee;" horiz-adv-x="655" d="M227 1608H428L655 1340H489L328 1512L166 1340H0L227 1608ZM233 1157H421V-51H233V1157Z" />
<glyph unicode="&#xef;" horiz-adv-x="655" d="M0 1561H215V1340H0V1561ZM440 1561H655V1340H440V1561ZM233 1157H421V-51H233V1157Z" />
<glyph unicode="&#xf0;" horiz-adv-x="1393" d="M1102 1604L839 1481Q972 1382 1088 1211Q1296 903 1296 569Q1296 303 1157 130Q985 -84 695 -84Q545 -84 417 -20Q211 82 134 307Q96 418 96 550Q96 785 217 947Q317 1082 478 1140Q577 1176 685 1176Q854 1176
973 1063L979 1067Q858 1297 686 1407L266 1206L211 1315L563 1481Q471 1535 309 1583L407 1696Q613 1629 733 1561L1046 1710L1102 1604ZM695 1033Q517 1033 399 895Q284 762 284 552Q284 395 349 279Q409 171 513 117Q597 74 694 74Q863 74 978 199Q1101 335
1101 558Q1101 767 984 906Q876 1033 695 1033Z" />
<glyph unicode="&#xf1;" horiz-adv-x="1434" d="M1051 1424Q993 1360 890 1360Q825 1360 711 1407Q617 1446 549 1446Q458 1446 383 1393V1514Q446 1577 545 1577Q608 1577 725 1528Q813 1491 887 1491Q982 1491 1051 1542V1424ZM379 1157V940Q471 1060 591 1122Q702
1180 816 1180Q966 1180 1073 1106Q1235 993 1235 713V-51H1049V690Q1049 1018 792 1018Q693 1018 600 962Q460 880 385 717V-51H197V1157H379Z" />
<glyph unicode="&#xf2;" horiz-adv-x="1393" d="M661 1608L915 1340H745L407 1608H661ZM699 1188Q946 1188 1117 1020Q1298 843 1298 554Q1298 385 1236 250Q1156 77 993 -12Q858 -86 695 -86Q401 -86 229 131Q94 301 94 554Q94 884 324 1063Q485 1188 699 1188ZM694
1034Q511 1034 392 882Q289 751 289 551Q289 409 342 300Q392 195 483 135Q579 72 697 72Q840 72 949 165Q1103 298 1103 552Q1103 767 984 902Q867 1034 694 1034Z" />
<glyph unicode="&#xf3;" horiz-adv-x="1393" d="M731 1608H985L647 1340H477L731 1608ZM699 1188Q946 1188 1117 1020Q1298 843 1298 554Q1298 385 1236 250Q1156 77 993 -12Q858 -86 695 -86Q401 -86 229 131Q94 301 94 554Q94 884 324 1063Q485 1188 699 1188ZM694
1034Q511 1034 392 882Q289 751 289 551Q289 409 342 300Q392 195 483 135Q579 72 697 72Q840 72 949 165Q1103 298 1103 552Q1103 767 984 902Q867 1034 694 1034Z" />
<glyph unicode="&#xf4;" horiz-adv-x="1393" d="M596 1608H796L1061 1340H895L696 1512L497 1340H332L596 1608ZM699 1188Q946 1188 1117 1020Q1298 843 1298 554Q1298 385 1236 250Q1156 77 993 -12Q858 -86 695 -86Q401 -86 229 131Q94 301 94 554Q94 884 324
1063Q485 1188 699 1188ZM694 1034Q511 1034 392 882Q289 751 289 551Q289 409 342 300Q392 195 483 135Q579 72 697 72Q840 72 949 165Q1103 298 1103 552Q1103 767 984 902Q867 1034 694 1034Z" />
<glyph unicode="&#xf5;" horiz-adv-x="1393" d="M1030 1424Q972 1360 869 1360Q804 1360 690 1407Q596 1446 528 1446Q437 1446 362 1393V1514Q425 1577 524 1577Q587 1577 704 1528Q792 1491 866 1491Q961 1491 1030 1542V1424ZM699 1188Q946 1188 1117 1020Q1298
843 1298 554Q1298 385 1236 250Q1156 77 993 -12Q858 -86 695 -86Q401 -86 229 131Q94 301 94 554Q94 884 324 1063Q485 1188 699 1188ZM694 1034Q511 1034 392 882Q289 751 289 551Q289 409 342 300Q392 195 483 135Q579 72 697 72Q840 72 949 165Q1103 298 1103
552Q1103 767 984 902Q867 1034 694 1034Z" />
<glyph unicode="&#xf6;" horiz-adv-x="1393" d="M362 1561H583V1340H362V1561ZM809 1561H1030V1340H809V1561ZM699 1188Q946 1188 1117 1020Q1298 843 1298 554Q1298 385 1236 250Q1156 77 993 -12Q858 -86 695 -86Q401 -86 229 131Q94 301 94 554Q94 884 324
1063Q485 1188 699 1188ZM694 1034Q511 1034 392 882Q289 751 289 551Q289 409 342 300Q392 195 483 135Q579 72 697 72Q840 72 949 165Q1103 298 1103 552Q1103 767 984 902Q867 1034 694 1034Z" />
<glyph unicode="&#xf7;" horiz-adv-x="1720" d="M184 846H1536V711H184V846ZM860 1397Q896 1397 928 1377Q987 1339 987 1270Q987 1220 952 1183Q915 1143 860 1143Q828 1143 800 1158Q733 1195 733 1270Q733 1328 777 1366Q813 1397 860 1397ZM860 414Q896 414
928 393Q987 356 987 287Q987 237 952 200Q915 160 860 160Q828 160 800 175Q733 211 733 287Q733 345 777 383Q813 414 860 414Z" />
<glyph unicode="&#xf8;" horiz-adv-x="1393" d="M1210 1219L1286 1151L1145 991Q1298 811 1298 553Q1298 285 1147 111Q975 -86 696 -86Q479 -86 313 47L180 -104L108 -33L239 117Q94 294 94 554Q94 774 202 933Q298 1074 455 1140Q570 1188 695 1188Q905 1188
1071 1061L1210 1219ZM1022 852L430 178Q545 72 698 72Q840 72 949 165Q1103 298 1103 553Q1103 723 1022 852ZM956 930Q841 1034 697 1034Q511 1034 392 882Q289 751 289 551Q289 381 364 258L956 930Z" />
<glyph unicode="&#xf9;" horiz-adv-x="1434" d="M682 1608L936 1340H766L428 1608H682ZM197 1157H383V418Q383 85 643 85Q746 85 845 149Q975 234 1045 393V1157H1235V-51H1055V170Q964 47 840 -17Q729 -74 613 -74Q384 -74 275 80Q197 190 197 393V1157Z" />
<glyph unicode="&#xfa;" horiz-adv-x="1434" d="M752 1608H1006L668 1340H498L752 1608ZM197 1157H383V418Q383 85 643 85Q746 85 845 149Q975 234 1045 393V1157H1235V-51H1055V170Q964 47 840 -17Q729 -74 613 -74Q384 -74 275 80Q197 190 197 393V1157Z" />
<glyph unicode="&#xfb;" horiz-adv-x="1434" d="M617 1608H818L1082 1340H916L717 1512L519 1340H353L617 1608ZM197 1157H383V418Q383 85 643 85Q746 85 845 149Q975 234 1045 393V1157H1235V-51H1055V170Q964 47 840 -17Q729 -74 613 -74Q384 -74 275 80Q197
190 197 393V1157Z" />
<glyph unicode="&#xfc;" horiz-adv-x="1434" d="M383 1561H604V1340H383V1561ZM830 1561H1051V1340H830V1561ZM197 1157H383V418Q383 85 643 85Q746 85 845 149Q975 234 1045 393V1157H1235V-51H1055V170Q964 47 840 -17Q729 -74 613 -74Q384 -74 275 80Q197 190
197 393V1157Z" />
<glyph unicode="&#xfd;" horiz-adv-x="1249" d="M670 1608H924L586 1340H416L670 1608ZM70 1157H283L539 592Q595 468 635 340H641L650 360Q720 529 748 588L1014 1157H1225L648 -12Q576 -158 468 -208Q390 -244 269 -244H193L142 -82H244Q344 -82 397 -52Q452
-22 490 57L545 172L70 1157Z" />
<glyph unicode="&#xfe;" horiz-adv-x="1454" d="M379 1700V944Q451 1058 567 1122Q674 1182 788 1182Q1049 1182 1202 1007Q1344 846 1344 574Q1344 324 1215 162Q1057 -35 781 -35Q609 -35 487 75Q421 136 379 227V-244H199V1700H379ZM379 440Q435 292 534 207Q636
119 758 119Q962 119 1075 281Q1156 398 1156 576Q1156 766 1067 884Q957 1030 756 1030Q629 1030 518 937Q439 870 379 756V440Z" />
<glyph unicode="&#xff;" horiz-adv-x="1249" d="M301 1561H522V1340H301V1561ZM748 1561H969V1340H748V1561ZM70 1157H283L539 592Q595 468 635 340H641L650 360Q720 529 748 588L1014 1157H1225L648 -12Q576 -158 468 -208Q390 -244 269 -244H193L142 -82H244Q344
-82 397 -52Q452 -22 490 57L545 172L70 1157Z" />
<glyph unicode="&#x2013;" horiz-adv-x="1024" d="M0 827H1024V729H0V827Z" />
<glyph unicode="&#x2014;" horiz-adv-x="2048" d="M0 827H2048V729H0V827Z" />
<glyph unicode="&#x2018;" horiz-adv-x="1024" d="M606 1161V1317Q606 1569 774 1751H896Q771 1601 749 1433H880V1161H606Z" />
<glyph unicode="&#x2019;" horiz-adv-x="1024" d="M143 1751H417V1593Q417 1341 249 1161H127Q251 1309 274 1477H143V1751Z" />
<glyph unicode="&#x201a;" horiz-adv-x="635" d="M144 43V326H430V166Q430 -84 256 -243H119Q251 -112 275 43H144Z" />
<glyph unicode="&#x201c;" horiz-adv-x="1024" d="M503 1161H231V1317Q231 1572 399 1751H519Q394 1605 374 1433H503V1161ZM880 1161H606V1317Q606 1569 773 1751H896Q771 1601 749 1433H880V1161Z" />
<glyph unicode="&#x201d;" horiz-adv-x="1024" d="M143 1751H417V1593Q417 1341 249 1161H127Q251 1309 274 1477H143V1751ZM520 1751H792V1593Q792 1338 624 1161H504Q629 1308 649 1477H520V1751Z" />
<glyph unicode="&#x201e;" horiz-adv-x="1023" d="M532 43V326H818V166Q818 -84 644 -243H507Q639 -112 663 43H532ZM144 43V326H430V166Q430 -84 256 -243H119Q251 -112 275 43H144Z" />
<glyph unicode="&#x2022;" horiz-adv-x="860" d="M432 1004Q510 1004 573 952Q656 884 656 778Q656 713 619 657Q552 553 429 553Q375 553 326 579Q287 599 260 632Q205 697 205 780Q205 896 302 964Q360 1004 432 1004Z" />
<glyph unicode="&#x2039;" horiz-adv-x="643" d="M131 551L434 1014H567L264 551L567 88H434L131 551Z" />
<glyph unicode="&#x203a;" horiz-adv-x="643" d="M512 551L209 88H76L379 551L76 1014H209L512 551Z" />
</font>
</defs>
</svg>
