<?xml version="1.0" standalone="no"?>
<!DOCTYPE svg PUBLIC "-//W3C//DTD SVG 1.1//EN" "http://www.w3.org/Graphics/SVG/1.1/DTD/svg11.dtd">
<svg xmlns="http://www.w3.org/2000/svg">
<defs >
<font id="Lemon" horiz-adv-x="675" ><font-face
    font-family="Lemon"
    units-per-em="1000"
    panose-1="0 0 0 0 0 0 0 0 0 0"
    ascent="1019"
    descent="-287"
    alphabetic="0" />
<glyph unicode=" " glyph-name="space" horiz-adv-x="300" />
<glyph unicode="!" glyph-name="exclam" horiz-adv-x="458" d="M199 279Q158 279 144 303T129 364Q129 382 132 416T138 490T145 569T148 631Q148 650 143 672T123 708Q156 742 201 758T297 775Q356 775 380 746T405 672Q405 634 394 585T365 486T330 391T301
317Q279 298 250 289T199 279ZM167 -25Q121 -25 91 5T60 80Q60 114 77 142T122 189T186 207Q232 207 262 177T293 102Q293 69 276 40T231 -7T167 -25Z" />
<glyph unicode="&quot;" glyph-name="quotedbl" horiz-adv-x="516" d="M359 446Q325 446 313 460T300 496Q300 528 313 564T339 638T352 716Q352 739 345 759Q368 770 392 775T437 780Q471 780 483 766T496 730Q496 697 483 661T457 587T444 510Q444 487 451 467Q429
457 404 452T359 446ZM129 446Q95 446 83 460T70 496Q70 528 83 564T109 638T122 716Q122 739 115 759Q138 770 162 775T207 780Q241 780 253 766T266 730Q266 697 253 661T227 587T214 510Q214 487 221 467Q199 457 174 452T129 446Z" />
<glyph unicode="#" glyph-name="numbersign" horiz-adv-x="733" d="M70 153Q49 153 27 159T-20 185Q5 208 26 259T64 371Q100 497 128 616T180 836T222 1010Q229 1038 247 1056T301 1074Q335 1074 364 1062T417 1027Q400 1001 384 965T354 893T333 827Q311 750
293 682T258 549T223 413T181 261Q167 210 141 182T70 153ZM384 -103Q363 -103 341 -97T294 -71Q319 -48 340 3T378 115Q414 241 442 360T494 580T536 754Q543 782 561 800T615 818Q649 818 678 806T731 771Q714 745 698 709T668 637T647 571Q625 494 607 426T572
293T537 157T495 5Q481 -46 455 -74T384 -103ZM102 442Q84 442 71 454T58 500Q58 532 67 563T92 618Q121 607 157 603T222 599Q274 599 328 600T438 602Q552 605 667 605Q707 605 729 588T751 529Q751 510 747 489T731 448Q710 457 678 461T608 466Q535 466 450
462T289 452Q231 448 183 445T102 442ZM26 140Q8 140 -5 152T-18 198Q-18 230 -9 261T16 316Q45 305 81 301T146 297Q198 297 252 298T362 300Q476 303 591 303Q631 303 653 286T675 227Q675 208 671 187T655 146Q634 155 602 159T532 164Q459 164 374 160T213
150Q155 146 107 143T26 140Z" />
<glyph unicode="$" glyph-name="dollar" horiz-adv-x="724" d="M278 -194Q246 -194 246 -140Q246 -108 253 -73T271 -1Q189 4 144 23T80 72T62 138Q62 165 69 197T91 258Q114 233 149 213T224 180T304 167Q348 167 372 180T406 222Q324 234 269 255T181 303T131
357T109 408T103 448Q103 505 124 544T180 610T261 650T353 670Q359 696 362 720T366 768Q366 777 366 785T364 799Q418 853 450 853Q479 853 479 808Q479 779 472 745T452 673Q483 672 519 667T587 650T640 615T661 556Q661 534 655 505T636 455Q602 478 549 487T445
496Q402 496 372 482T339 433Q441 414 513 389T624 321T663 209Q663 160 638 123T571 59T477 19T371 -1Q365 -27 362 -53T358 -102Q358 -112 359 -123T362 -142Q313 -194 278 -194Z" />
<glyph unicode="%" glyph-name="percent" horiz-adv-x="1150" d="M416 -25Q389 -25 368 -15T330 13Q350 35 369 64T405 123T434 177Q465 240 491 295T543 403T596 513T656 637Q677 679 703 702T765 725Q782 725 799 720T832 699Q810 677 784 637T732 547Q682 445
639 348T559 169T493 27Q483 5 465 -10T416 -25ZM234 193Q166 193 118 221T44 300T18 417Q18 502 55 565T160 664T314 700Q328 700 346 698T374 690Q380 682 382 656Q444 642 472 593T500 476Q500 391 463 328T366 229T234 193ZM239 307Q261 307 279 332T310 396T322
478Q322 513 310 537T259 562Q248 562 233 559Q211 525 201 484T190 405Q190 364 202 336T239 307ZM867 -19Q799 -19 751 9T677 88T651 205Q651 290 688 353T793 452T947 488Q961 488 979 486T1007 478Q1013 470 1015 444Q1077 430 1105 381T1133 264Q1133 179
1096 116T999 17T867 -19ZM872 95Q894 95 912 120T943 184T955 266Q955 301 943 325T892 350Q881 350 866 347Q844 313 834 272T823 193Q823 152 835 124T872 95Z" />
<glyph unicode="&amp;" glyph-name="ampersand" horiz-adv-x="758" d="M247 -112Q169 -112 118 -85T41 -12T15 87Q15 155 56 225T178 343Q129 373 105 418T80 512Q80 560 104 606T175 691T290 752T447 775Q536 775 584 742T633 658Q633 610 599 585T520 560Q490
560 457 580T404 642Q343 628 313 591T283 516Q283 478 312 449T400 419Q440 419 486 427T580 447T671 466T746 475Q765 475 776 464T788 421Q788 402 784 373T769 319Q759 321 746 323T716 325Q698 325 677 324T632 317Q632 206 599 125T510 -8T386 -86T247 -112ZM333
91Q357 91 388 103T448 142T498 210T526 309Q484 305 443 301T364 297Q348 297 333 298T304 301Q273 267 259 234T244 173Q244 134 269 113T333 91Z" />
<glyph unicode="&apos;" glyph-name="quotesingle" horiz-adv-x="286" d="M129 446Q95 446 83 460T70 496Q70 528 83 564T109 638T122 716Q122 739 115 759Q138 770 162 775T207 780Q241 780 253 766T266 730Q266 697 253 661T227 587T214 510Q214 487 221 467Q199
457 174 452T129 446Z" />
<glyph unicode="(" glyph-name="parenleft" horiz-adv-x="415" d="M225 -156Q173 -156 139 -118T87 -10T70 151Q70 219 80 292T108 439T151 577T205 692T266 772T331 801Q359 801 382 792T425 758Q373 712 338 644T281 501T249 354T239 231Q239 134 262 49T357
-108Q320 -133 287 -144T225 -156Z" />
<glyph unicode=")" glyph-name="parenright" horiz-adv-x="415" d="M84 -156Q56 -156 33 -147T-10 -113Q42 -66 77 1T134 144T166 291T176 414Q176 511 153 597T58 753Q95 779 128 790T190 801Q243 801 277 762T328 654T345 494Q345 427 335 353T307 206T264 68T210
-47T149 -127T84 -156Z" />
<glyph unicode="*" glyph-name="asterisk" horiz-adv-x="592" d="M408 296Q392 296 377 311T350 349T329 395T313 433Q288 397 274 376T254 340T243 310Q210 313 180 325T130 355T110 388Q110 411 139 441T212 508Q180 519 147 527T74 537Q67 564 67 589Q67 639
82 664T120 689Q141 689 174 672T254 627Q254 674 252 699T247 740T239 768Q265 783 293 791T342 800Q377 800 388 786T400 741Q400 718 394 688T378 625Q423 640 448 649T486 665T509 681Q538 656 557 622T577 567Q577 544 555 532T496 515T415 506Q444 468 460
448T486 418T509 399Q499 372 481 349T443 311T408 296ZM314 461Q338 485 361 495T401 513Q384 544 377 568T370 609Q353 607 340 606T320 604Q308 604 296 605T269 609Q265 578 256 553T235 514Q266 503 286 488T314 461Z" />
<glyph unicode="+" glyph-name="plus" horiz-adv-x="733" d="M395 103Q362 103 332 110T279 134Q288 163 292 199T296 262V292Q256 288 217 286T139 283Q123 283 112 295T100 341Q100 374 107 404T131 457Q160 448 196 444T259 440H292Q291 469 291 498T290 557Q290
595 307 615T366 636Q385 636 405 632T445 618Q437 598 433 570T429 508Q429 492 429 476T431 443Q493 446 554 446Q592 446 612 429T633 370Q633 351 629 331T615 291Q595 299 567 303T505 307Q489 307 474 307T443 305Q447 264 450 224T453 142Q453 126 441 115T395
103Z" />
<glyph unicode="," glyph-name="comma" horiz-adv-x="333" d="M27 -196L12 -152Q45 -136 68 -110T105 -55T118 -2L48 88Q50 120 67 147T114 191T177 208Q228 208 256 173T284 93Q284 25 253 -35T164 -137T27 -196Z" />
<glyph unicode="-" glyph-name="hyphen" horiz-adv-x="528" d="M118 183Q90 183 73 198T55 256Q55 309 83 370Q97 366 109 365T135 363Q172 363 206 372T274 395T341 417T410 427Q438 427 455 412T473 354Q473 301 445 240Q432 245 420 246T393 247Q356 247 322
238T254 215T187 193T118 183Z" />
<glyph unicode="." glyph-name="period" horiz-adv-x="333" d="M157 -25Q111 -25 81 5T50 80Q50 114 67 142T112 189T176 207Q222 207 252 177T283 102Q283 69 266 40T221 -7T157 -25Z" />
<glyph unicode="/" glyph-name="slash" horiz-adv-x="397" d="M70 -85Q49 -85 27 -79T-20 -53Q5 -30 26 21T64 133Q100 259 128 378T180 598T222 772Q229 800 247 818T301 836Q335 836 364 824T417 789Q400 763 384 727T354 655T333 589Q311 512 293 444T258 311T223
175T181 23Q167 -28 141 -56T70 -85Z" />
<glyph unicode="0" glyph-name="zero" horiz-adv-x="758" d="M346 -25Q253 -25 188 16T89 129T55 295Q55 417 105 508T245 649T452 700Q472 700 496 696T533 685Q538 679 541 667T545 637Q629 617 666 547T703 380Q703 289 674 215T595 87T481 4T346 -25ZM353
117Q382 117 408 139T454 198T487 283T499 380Q499 419 489 452T453 504T379 524Q368 524 357 523T332 519Q291 466 271 402T251 280Q251 211 277 164T353 117Z" />
<glyph unicode="1" glyph-name="one" horiz-adv-x="569" d="M304 -25Q236 -25 208 23T180 145Q180 193 191 254T222 417Q181 417 144 432T80 482T47 573Q120 587 172 608T265 651T340 686T410 700Q452 700 466 676T481 620Q481 579 469 520T442 392T415 257T403
133Q403 61 432 12Q365 -25 304 -25Z" />
<glyph unicode="2" glyph-name="two" horiz-adv-x="715" d="M494 -25Q431 -25 373 -9T244 32Q208 4 174 -7T115 -19Q64 -19 38 15T12 95Q12 130 30 163T85 219T173 241Q187 241 199 240T218 236Q297 303 342 357T387 459Q387 493 366 514T308 535Q290 535 269
528T225 496T184 417Q138 422 116 449T93 513Q93 557 121 600T214 671T386 700Q452 700 498 683T573 637T615 576T628 510Q628 458 596 404T511 297T391 191Q432 184 465 181T526 177L643 222Q648 203 651 181T654 138Q654 81 632 45T574 -8T494 -25Z" />
<glyph unicode="3" glyph-name="three" horiz-adv-x="653" d="M197 -156Q99 -156 45 -127T-10 -42Q-10 5 25 30T105 56Q138 56 175 36T238 -29Q268 -21 296 0T342 52T360 114Q360 135 352 155T323 195Q302 183 267 172T198 160Q165 160 142 176T118 234Q118 273
153 303T268 333Q278 333 288 333T310 331Q337 352 352 385T368 450Q368 484 348 508T284 533Q270 533 248 523T203 487T168 416Q111 419 85 446T59 513Q59 557 88 600T180 671T347 700Q417 700 463 683T535 640T571 582T582 523Q582 461 549 401T454 283Q583 222
583 103Q583 35 536 -24T403 -120T197 -156Z" />
<glyph unicode="4" glyph-name="four" horiz-adv-x="707" d="M498 -170Q448 -170 419 -151T377 -101T364 -32Q364 -21 365 -9T368 16Q334 9 289 5T205 0Q157 0 115 10T46 45T19 115Q19 149 38 196T86 298T143 411T191 525T211 630Q211 655 203 677Q231 688 258
694T310 700Q370 700 407 671T445 566Q445 473 380 365T186 130H394Q408 177 425 223T460 304Q477 322 509 338T580 366T652 377Q667 377 672 371T677 351Q677 332 667 292T643 197T619 82T608 -41Q608 -67 614 -91T632 -134Q562 -170 498 -170Z" />
<glyph unicode="5" glyph-name="five" horiz-adv-x="635" d="M210 -156Q115 -156 61 -127T7 -42Q7 5 42 30T122 56Q151 56 184 36T239 -26Q292 -18 322 19T353 99Q353 129 339 156T292 200T209 218Q193 218 172 216T127 208Q114 209 106 215T98 231L135 527Q98
569 98 617Q98 650 121 675T188 700Q219 700 247 684T298 630Q332 630 382 638T489 660T594 693Q598 674 599 657T600 628Q600 547 556 502T409 456Q405 456 396 456T364 458T301 462L290 348Q344 345 396 331T492 289T562 218T588 114Q588 40 541 -21T409 -119T210
-156Z" />
<glyph unicode="6" glyph-name="six" horiz-adv-x="674" d="M288 -25Q215 -25 159 5T70 97T37 250Q37 342 65 427T141 585T248 712T370 797T489 827Q554 827 585 803T638 727Q543 695 471 646T343 511Q378 519 408 519Q489 519 544 491T627 415T656 306Q656 235
627 175T546 70T428 0T288 -25ZM327 108Q349 108 373 127T415 185T433 283Q433 311 426 337T402 381T354 398Q332 398 307 380T265 324T247 230Q247 200 254 172T279 126T327 108Z" />
<glyph unicode="7" glyph-name="seven" horiz-adv-x="612" d="M273 -121Q212 -121 175 -93T137 0Q137 57 165 131T245 291T363 462Q314 459 272 459Q171 459 116 507T61 637Q61 651 62 667T65 700Q106 687 158 676T264 656T365 644T446 639Q468 676 495 692T552
709Q594 709 615 684T637 626Q637 589 619 562T569 516Q547 473 520 415T467 293T419 166T384 46T371 -51Q371 -65 372 -76T380 -98Q351 -111 325 -116T273 -121Z" />
<glyph unicode="8" glyph-name="eight" d="M316 -26Q233 -26 181 -8T100 40T62 103T51 164Q51 226 93 282T203 378Q177 403 152 430T111 488T95 556Q95 621 131 670T232 746T386 773Q464 773 513 755T589 708T626 647T636 587Q636 529 599 481T509 400Q546 375
577 342T628 273T648 197Q648 130 604 80T485 2T316 -26ZM422 460Q442 479 453 508T465 568Q465 605 446 633T384 662Q352 662 329 642T306 594Q306 578 314 563T340 531L422 460ZM326 87Q361 87 388 109T415 165Q415 193 398 211T344 261L287 308Q259 286 246
256T233 196Q233 153 258 120T326 87Z" />
<glyph unicode="9" glyph-name="nine" horiz-adv-x="746" d="M229 -143Q165 -143 130 -117T81 -43Q176 -17 254 40T386 182Q360 176 336 174T290 171Q210 171 160 201T86 279T62 378Q62 450 91 509T172 610T290 676T429 700Q503 700 559 673T648 592T681 457Q681
366 654 278T580 114T475 -20T353 -110T229 -143ZM364 287Q386 287 411 305T453 361T471 455Q471 485 464 513T439 558T391 576Q369 576 345 557T303 500T285 402Q285 374 292 348T316 304T364 287Z" />
<glyph unicode=":" glyph-name="colon" horiz-adv-x="333" d="M157 -25Q111 -25 81 5T50 80Q50 114 67 142T112 189T176 207Q222 207 252 177T283 102Q283 69 266 40T221 -7T157 -25ZM204 328Q158 328 128 358T97 433Q97 467 114 495T159 542T223 560Q269 560
299 530T330 455Q330 422 313 393T268 346T204 328Z" />
<glyph unicode=";" glyph-name="semicolon" horiz-adv-x="333" d="M27 -196L12 -152Q45 -136 68 -110T105 -55T118 -2L48 88Q50 120 67 147T114 191T177 208Q228 208 256 173T284 93Q284 25 253 -35T164 -137T27 -196ZM204 328Q158 328 128 358T97 433Q97 467
114 495T159 542T223 560Q269 560 299 530T330 455Q330 422 313 393T268 346T204 328Z" />
<glyph unicode="&lt;" glyph-name="less" horiz-adv-x="733" d="M523 91Q504 111 474 130T420 162Q356 197 291 226T162 289Q125 309 115 347T103 429Q144 432 194 455T295 512T393 579T478 634T537 656Q558 656 574 633T600 574T610 502Q555 496 499 472T388
420T281 369Q318 349 363 332T455 299T539 269T601 241T625 214Q625 192 609 168T570 124T523 91Z" />
<glyph unicode="=" glyph-name="equal" horiz-adv-x="733" d="M139 432Q123 432 112 444T100 490Q100 523 107 553T131 606Q160 597 196 593T259 589Q338 589 410 592T554 595Q592 595 612 578T633 519Q633 500 629 480T615 440Q595 448 567 452T505 456Q411 456
321 444T139 432ZM139 145Q123 145 112 157T100 203Q100 236 107 266T131 319Q160 310 196 306T259 302Q338 302 410 305T554 308Q592 308 612 291T633 232Q633 213 629 193T615 153Q595 161 567 165T505 169Q411 169 321 157T139 145Z" />
<glyph unicode="&gt;" glyph-name="greater" horiz-adv-x="733" d="M191 87Q171 87 154 110T128 170T118 241Q174 247 230 271T341 324T447 374Q410 394 365 411T273 444T189 474T127 502T103 529Q103 551 119 575T159 620T205 652Q224 632 254 613T308 581Q373
547 438 518T566 454Q604 434 614 396T625 314Q584 311 534 288T433 231T335 164T250 109T191 87Z" />
<glyph unicode="?" glyph-name="question" horiz-adv-x="602" d="M328 263Q279 263 247 296T214 381Q274 396 309 436T345 519Q345 550 328 575T268 600Q233 600 200 575T144 482Q95 487 71 518T47 589Q47 632 73 675T154 746T291 775Q389 775 447 742T532 657T559
549Q559 486 540 434T487 343T412 284T328 263ZM232 -25Q186 -25 156 5T125 80Q125 114 142 142T187 189T251 207Q297 207 327 177T358 102Q358 69 341 40T296 -7T232 -25Z" />
<glyph unicode="@" glyph-name="at" horiz-adv-x="1090" d="M538 -235Q469 -235 401 -219T271 -167T163 -74T88 63T60 249Q60 330 82 409T148 559T258 683T412 769T610 800Q719 800 801 768T938 682T1022 559T1050 420Q1050 357 1031 296T973 186T878 107T743
77Q697 77 667 94T622 139T602 199L594 203Q566 152 523 126T436 100Q399 100 366 120T313 182T293 288Q293 341 309 396T360 497T446 571T569 600Q583 600 606 600T645 594Q647 589 649 579T651 560Q671 574 700 583T759 592Q783 592 796 581T810 544Q810 510
799 468T776 377T765 278Q765 242 776 220T816 198Q874 198 913 255T953 413Q953 467 934 520T873 616T762 684T593 710Q491 710 413 674T280 576T199 440T171 288Q171 188 201 119T284 7T407 -55T558 -74Q651 -74 745 -43T917 65Q937 17 937 -21Q937 -69 904 -108T815
-176T688 -220T538 -235ZM540 261Q551 261 568 266T603 287Q608 331 617 392T643 511Q553 503 509 456T464 348Q464 312 483 287T540 261Z" />
<glyph unicode="A" glyph-name="A" horiz-adv-x="729" d="M83 -26Q34 -26 14 3T-6 82Q-6 119 8 165T46 261T95 363T145 461T187 546Q182 571 175 599T162 652Q207 683 256 704T374 725Q400 725 418 718T446 700Q472 711 497 718T550 725Q588 725 606 704T629 649T635
578Q635 521 631 463T627 340Q627 271 634 206T662 91T724 17Q690 -4 659 -15T584 -26Q535 -26 504 1T456 74T430 176H226Q217 145 212 120T207 74Q207 42 215 21Q178 -2 146 -14T83 -26ZM268 281H423Q423 337 424 382T428 468T434 555H402Q368 488 332 416T268
281Z" />
<glyph unicode="B" glyph-name="B" horiz-adv-x="757" d="M182 -26Q115 -26 88 12T60 129Q60 179 76 279T123 546L70 653Q117 683 170 704T276 726Q311 726 328 709T350 666Q396 692 446 708T552 725Q591 725 630 712T697 667T724 574Q724 505 684 453T567 368Q610
361 646 341T705 284T727 189Q727 137 704 97T642 30T557 -11T464 -25Q408 -25 369 -13T303 17Q244 -26 182 -26ZM310 378Q359 382 404 397T479 441T509 518Q509 593 431 593Q409 593 388 589T347 578Q341 540 331 487T310 378ZM383 115Q428 115 462 139T496 213Q496
261 467 281T397 302Q372 302 345 297T292 283Q285 243 281 212T276 164V138Q299 128 327 122T383 115Z" />
<glyph unicode="C" glyph-name="C" horiz-adv-x="683" d="M333 -25Q247 -25 179 10T70 120T30 307Q30 362 49 420T104 532T195 630T322 699T482 725Q536 725 579 710T648 666T673 592Q673 549 654 520T603 477T534 462Q490 462 448 484T380 549Q345 532 315 492T266
397T248 285Q248 244 258 209T291 151T347 129Q375 129 401 150T444 208T461 289Q522 289 563 284T627 260T649 204Q649 166 627 126T564 52T464 -4T333 -25Z" />
<glyph unicode="D" glyph-name="D" horiz-adv-x="776" d="M283 -25Q219 -25 169 -4T89 58T60 163Q60 201 69 262T93 396T120 546L67 653Q123 685 174 705T283 725Q307 725 323 717T349 695Q392 710 430 717T502 724Q593 724 654 683T745 575T776 429Q776 366 757
302T698 179T599 74T461 2T283 -25ZM319 121Q395 121 446 159T524 259T550 393Q550 483 509 539T387 596Q378 596 368 595T347 592Q341 552 332 492T311 365T289 234T272 125Q284 123 296 122T319 121Z" />
<glyph unicode="E" glyph-name="E" horiz-adv-x="619" d="M182 -26Q115 -26 88 12T60 129Q60 179 76 279T123 546L70 653Q117 683 170 704T276 726Q310 726 326 710T349 670Q384 671 431 678T530 696T631 721Q636 702 637 686T639 656Q639 599 613 563T544 510T448
493Q392 493 336 517Q330 483 323 446T308 370Q324 367 339 365T371 363Q391 367 416 373T461 386Q465 373 465 360T466 338Q466 290 434 268T357 246Q338 246 321 248T287 255Q282 225 279 198T276 136H438Q514 147 591 175Q595 164 596 152T597 126Q597 91 583
56T540 -2T467 -25Q444 -25 420 -21T370 -12Q351 -8 330 -4T282 3Q234 -26 182 -26Z" />
<glyph unicode="F" glyph-name="F" horiz-adv-x="589" d="M182 -26Q115 -26 88 12T60 129Q60 179 76 279T123 546L70 653Q117 683 170 704T276 726Q310 726 326 710T349 670Q399 672 473 686T621 721Q629 676 629 645Q629 601 606 570T545 524T459 508Q428 508
400 516T340 539Q334 502 325 459T308 371Q324 367 340 365T372 363Q392 367 417 373T462 386Q466 373 466 360T467 338Q467 290 435 268T358 246Q338 246 321 248T287 255Q276 192 276 164Q276 113 283 78T306 19Q246 -26 182 -26Z" />
<glyph unicode="G" glyph-name="G" horiz-adv-x="722" d="M559 -166Q493 -166 469 -123T445 -9Q420 -16 392 -20T333 -25Q247 -25 179 10T70 120T30 307Q30 362 49 420T104 532T195 630T322 699T482 725Q536 725 579 710T648 666T673 592Q673 549 654 520T603
477T534 462Q490 462 448 484T380 549Q345 532 315 492T266 397T248 285Q248 201 282 162T362 122Q394 122 427 140T488 192Q476 218 463 244T437 297Q480 326 530 347T630 368Q673 368 687 345T702 287Q702 265 694 228T675 147T656 55T647 -34Q647 -62 654 -86T674
-125Q646 -145 616 -155T559 -166Z" />
<glyph unicode="H" glyph-name="H" horiz-adv-x="824" d="M182 -26Q115 -26 88 12T60 129Q60 179 76 279T123 546L70 653Q117 683 170 704T276 726Q323 726 338 698T353 632Q353 615 347 577T331 488T311 386H535Q541 421 548 461T564 546L511 653Q558 683 611
704T717 726Q764 726 779 698T794 632Q794 616 789 581T774 499T756 402T737 304T723 220T717 164Q717 113 724 78T747 19Q687 -26 623 -26Q556 -26 529 12T501 129Q501 152 504 186T515 267H289Q283 233 280 206T276 164Q276 113 283 78T306 19Q246 -26 182 -26Z"
/>
<glyph unicode="I" glyph-name="I" horiz-adv-x="388" d="M187 -26Q120 -26 93 12T65 129Q65 179 81 279T128 546L75 653Q122 683 175 704T281 726Q328 726 343 698T358 632Q358 616 353 581T338 499T320 402T301 304T287 220T281 164Q281 113 288 78T311 19Q251
-26 187 -26Z" />
<glyph unicode="J" glyph-name="J" horiz-adv-x="553" d="M193 -45Q137 -45 93 -27T25 23T0 95Q0 149 34 180T111 212Q152 212 191 183T251 88L276 108Q263 146 256 174T249 228Q249 230 252 253T263 313T279 397T302 489Q214 489 154 501T63 545T32 636Q32 653
35 674T42 721Q80 705 125 693T214 673T296 661T355 657Q375 692 402 708T460 724Q506 724 529 696T553 629Q553 603 544 583T520 547L485 260Q475 179 446 121T374 27T284 -27T193 -45Z" />
<glyph unicode="K" glyph-name="K" horiz-adv-x="720" d="M182 -26Q115 -26 88 12T60 129Q60 179 76 279T123 546L70 653Q117 683 170 704T276 726Q323 726 338 698T353 632Q353 615 347 577T331 488T311 386L358 425Q418 475 461 528T504 633Q504 659 496 680Q570
725 636 725Q689 725 711 698T734 625Q734 576 689 518T535 398Q552 344 573 288T621 180T676 90T736 30Q722 15 697 3T644 -17T593 -25Q550 -25 517 -11T459 38T410 139L352 302L290 269Q284 234 280 207T276 164Q276 113 283 78T306 19Q246 -26 182 -26Z" />
<glyph unicode="L" glyph-name="L" horiz-adv-x="549" d="M182 -26Q115 -26 88 12T60 129Q60 179 76 279T123 546L70 653Q117 683 170 704T276 726Q323 726 338 698T353 632Q353 616 348 581T333 498T315 398T296 296T282 204T276 136H384Q460 147 537 175Q541
164 542 152T543 126Q543 91 529 56T486 -2T413 -25Q370 -25 338 -18T271 -3Q249 -15 227 -20T182 -26Z" />
<glyph unicode="M" glyph-name="M" horiz-adv-x="1036" d="M182 -26Q115 -26 88 12T60 129Q60 179 76 279T123 546L70 653Q117 683 170 704T276 726Q324 726 360 712T424 657T469 539T500 335H512Q536 404 572 473T658 599T774 690T926 725Q973 725 988 698T1003
632Q1003 616 998 581T983 499T965 402T946 304T932 220T926 164Q926 113 933 78T956 19Q896 -26 832 -26Q765 -26 738 12T710 129Q710 172 722 252T757 458H741Q698 401 666 331T616 191T591 67Q566 44 537 33T478 21Q454 21 433 39T394 105T363 237T341 458H325Q312
401 301 342T283 234T276 164Q276 113 283 78T306 19Q246 -26 182 -26Z" />
<glyph unicode="N" glyph-name="N" horiz-adv-x="870" d="M177 -26Q110 -26 83 12T55 129Q55 179 71 279T118 546L65 653Q112 683 165 704T271 725Q343 725 384 703T445 641T476 547T496 430T523 297T578 157L602 173Q574 228 556 301T537 447Q537 520 561 583T635
685T757 725Q780 725 805 721T850 706Q841 652 829 588T805 457T782 332T765 230T758 168Q758 116 766 83T790 26Q761 7 736 -4T683 -20T616 -25Q538 -25 486 12T401 114T354 263T333 441H317Q305 385 295 329T278 229T271 164Q271 113 278 78T301 19Q241 -26 177
-26Z" />
<glyph unicode="O" glyph-name="O" horiz-adv-x="774" d="M371 -25Q263 -25 186 17T67 134T25 306Q25 432 72 526T208 672T421 725Q481 725 506 701T531 629Q531 622 531 616T529 602Q567 632 611 632Q648 632 682 610T737 540T759 421Q759 314 727 231T639 91T514
5T371 -25ZM379 121Q428 121 468 159T524 259Q489 302 475 345T460 432Q460 477 471 512T500 572Q482 575 464 575Q408 575 367 551T298 488T257 402T243 310Q243 259 258 216T304 147T379 121Z" />
<glyph unicode="P" glyph-name="P" horiz-adv-x="717" d="M182 -26Q115 -26 88 12T60 129Q60 179 76 279T123 546L70 653Q117 683 170 704T276 726Q303 726 333 716T377 695Q415 710 449 717T514 724Q580 724 625 693T693 610T717 500Q717 448 697 396T636 300T532
231T383 205Q358 205 333 208T282 219Q276 183 276 164Q276 113 283 78T306 19Q246 -26 182 -26ZM330 330Q371 330 408 350T470 406T494 486Q494 529 469 562T393 596Q373 596 347 588Q343 558 336 515T320 424T301 333Q315 330 330 330Z" />
<glyph unicode="Q" glyph-name="Q" horiz-adv-x="774" d="M575 -209Q521 -209 462 -192T351 -150T260 -104Q240 -131 217 -145T172 -164T137 -169Q96 -169 75 -143T54 -85Q54 -61 67 -39T107 -1T175 14V23Q103 65 64 138T25 306Q25 432 72 526T208 672T421 725Q481
725 506 701T531 629Q531 622 531 616T529 602Q567 632 611 632Q648 632 682 610T737 540T759 421Q759 296 716 205T601 57T446 -17V-26Q467 -29 488 -30T530 -32Q574 -32 618 -26T709 -2Q715 -18 717 -34T720 -68Q720 -105 705 -137T657 -189T575 -209ZM379 121Q428
121 468 159T524 259Q489 302 475 345T460 432Q460 477 471 512T500 572Q482 575 464 575Q408 575 367 551T298 488T257 402T243 310Q243 259 258 216T304 147T379 121Z" />
<glyph unicode="R" glyph-name="R" horiz-adv-x="733" d="M182 -26Q115 -26 88 12T60 129Q60 179 76 279T123 546L70 653Q117 683 170 704T276 725Q303 725 335 717T387 695Q462 725 522 725Q587 725 631 695T699 617T722 514Q722 452 690 391T592 290Q614 228
640 175T696 84T753 30Q739 15 714 3T661 -17T610 -25Q567 -25 534 -12T476 38T427 139L392 240Q340 240 287 256Q276 192 276 164Q276 113 283 78T306 19Q246 -26 182 -26ZM331 365Q388 365 425 385T481 437T500 500Q500 538 475 567T400 597Q374 597 348 590Q344
563 338 526T325 447T308 366Q313 365 318 365T331 365Z" />
<glyph unicode="S" glyph-name="S" horiz-adv-x="688" d="M330 -25Q240 -25 182 -13T92 22T48 72T35 133Q35 163 44 193T78 255Q92 226 124 199T196 155T276 138Q328 138 362 154T412 206Q242 229 157 300T72 469Q72 526 95 569T158 641T243 689T334 716T414 725Q541
725 609 696T678 592Q678 549 659 520T608 477T539 462Q495 462 453 487T394 559Q359 559 325 536T281 471Q414 439 495 400T614 312T651 200Q651 127 608 77T493 1T330 -25Z" />
<glyph unicode="T" glyph-name="T" horiz-adv-x="595" d="M275 -26Q208 -26 181 12T153 129Q153 177 168 272T211 521Q188 518 153 512T81 500T21 487Q15 506 14 524T13 552Q13 609 33 645T88 698T162 715Q213 715 263 706T363 686T467 674Q504 681 549 692T629
713Q635 694 636 676T637 648Q637 591 615 555T555 502T472 485Q459 485 447 485T424 487Q415 442 406 393T388 299T375 218T369 164Q369 113 376 78T399 19Q339 -26 275 -26Z" />
<glyph unicode="U" glyph-name="U" horiz-adv-x="827" d="M621 -26Q573 -26 537 2T501 94Q501 100 501 106T502 120L492 123Q393 -25 226 -25Q142 -25 104 20T65 145Q65 183 74 248T97 392T124 546L71 653Q126 685 174 705T277 725Q324 725 339 698T354 632Q354
619 349 588T337 513T321 424T305 334T292 257T287 209Q287 172 299 151T341 130Q365 130 396 151T460 214T515 321Q494 383 494 447Q494 520 518 583T592 685T714 725Q737 725 761 721T807 706Q798 652 786 587T762 456T739 329T722 226T715 164Q715 113 722 78T745
19Q685 -26 621 -26Z" />
<glyph unicode="V" glyph-name="V" horiz-adv-x="728" d="M304 -25Q203 -25 161 3T119 97Q119 159 119 201T120 281Q120 338 116 396T100 507T64 603T0 673Q68 725 156 725Q217 725 253 690T307 597T330 468T336 326Q336 280 335 237T333 158H359Q382 208 408
271T457 399T494 522T509 619Q509 636 506 649T498 673Q536 699 569 712T638 725Q693 725 715 694T738 612Q738 575 724 525T688 419T640 308T592 203T553 118L567 63Q539 40 497 20T405 -12T304 -25Z" />
<glyph unicode="W" glyph-name="W" horiz-adv-x="1018" d="M304 -25Q203 -25 161 3T119 97Q119 159 119 201T120 281Q120 338 116 396T100 507T64 603T0 673Q68 725 156 725Q217 725 253 690T307 597T330 468T336 326Q336 280 335 237T333 158H359Q387 218 412
297T455 452Q450 501 440 547T411 645Q446 672 478 685T554 699Q621 699 647 672T674 598Q674 559 660 509T626 399Q626 376 626 343T625 274T624 207T623 158H649Q672 208 698 271T747 399T784 522T799 619Q799 636 796 649T788 673Q826 699 859 712T928 725Q983
725 1005 694T1028 612Q1028 575 1014 525T978 419T930 308T882 203T843 118L857 63Q818 23 766 -1T636 -25Q571 -25 534 -14T479 22Q443 2 400 -11T304 -25Z" />
<glyph unicode="X" glyph-name="X" horiz-adv-x="749" d="M114 -25Q57 -25 34 4T10 69Q10 128 68 200T249 363L160 531Q141 567 113 602T38 654Q76 693 120 709T199 725Q245 725 276 710T335 657T400 550L441 472Q473 508 492 544T511 618Q511 635 509 648T501
673Q578 725 650 725Q706 725 730 696T754 631Q754 570 698 497T516 331L603 169Q622 133 650 98T725 46Q688 7 644 -9T564 -25Q519 -25 488 -10T428 43T363 150L321 228Q290 191 272 155T253 82Q253 50 262 27Q186 -25 114 -25Z" />
<glyph unicode="Y" glyph-name="Y" horiz-adv-x="672" d="M154 -177Q130 -177 102 -172T49 -154T8 -118T-8 -58Q-8 -32 4 1T41 69Q64 36 101 19T178 2Q224 2 264 25T322 97Q291 90 273 87T232 84Q183 84 155 105T122 180Q119 228 117 284T110 398T91 510T54 607T-10
678Q30 702 60 713T125 725Q180 725 216 700T275 631T309 534T326 422T332 309T336 209H350Q368 252 386 306T420 416T444 524T454 613Q454 635 450 650T439 678Q514 725 578 725Q633 725 657 693T682 609Q682 579 670 528T637 411T589 277T531 142Q481 36 429
-35T312 -141T154 -177Z" />
<glyph unicode="Z" glyph-name="Z" horiz-adv-x="674" d="M480 -25Q418 -25 353 -7T220 54Q186 14 151 -3T87 -20Q39 -20 10 7T-20 82Q-20 114 -4 145T44 196T125 217L317 473Q246 475 190 492T102 544T69 636Q69 653 71 674T79 721Q119 705 174 693T287 671T392
658T462 653Q484 691 513 707T574 724Q624 724 649 694T674 622Q674 585 651 559T590 515L334 195L510 176L631 231Q636 211 637 192T639 152Q639 90 618 51T560 -6T480 -25Z" />
<glyph unicode="[" glyph-name="bracketleft" horiz-adv-x="481" d="M337 -157Q276 -157 229 -154T150 -136T102 -85T85 15Q85 101 94 188T120 372T163 584Q180 658 203 701T258 766T332 793T429 800Q480 800 495 774T511 701Q511 694 511 678T506 649Q496 654
472 658T421 665T376 668Q313 544 292 369T271 -25Q289 -25 314 -22T363 -15T397 -6Q401 -19 403 -34T405 -58Q405 -104 390 -130T337 -157Z" />
<glyph unicode="\" glyph-name="backslash" horiz-adv-x="397" d="M327 -85Q283 -85 257 -57T216 23Q193 105 175 175T139 310T104 444T64 589Q56 618 43 654T14 727T-20 789Q4 811 33 823T96 836Q132 836 150 818T175 772Q194 700 217 599T269 378T333 133Q350
73 371 22T417 -53Q393 -72 371 -78T327 -85Z" />
<glyph unicode="]" glyph-name="bracketright" horiz-adv-x="481" d="M52 -157Q1 -157 -14 -131T-30 -58Q-30 -50 -30 -35T-25 -6Q-15 -10 9 -14T61 -22T105 -25Q168 100 189 275T210 668Q193 668 167 665T118 658T84 649Q80 662 80 678T79 701Q79 748 92 774T144
800Q205 800 252 797T331 779T379 728T396 628Q396 542 387 455T361 272T318 59Q302 -15 279 -58T223 -123T149 -150T52 -157Z" />
<glyph unicode="^" glyph-name="asciicircum" horiz-adv-x="733" d="M189 407Q163 407 136 427T87 475T58 528Q81 545 105 577T144 634Q179 693 216 761T294 892Q313 923 340 937T401 955T468 959Q467 956 467 953T467 946Q467 905 486 857T533 758T589 662T636
577T655 514Q655 489 628 468T562 435T487 422Q482 422 476 422T465 423Q465 472 449 526T411 633T371 728Q354 697 335 656T297 571T259 490T223 430T189 407Z" />
<glyph unicode="_" glyph-name="underscore" horiz-adv-x="723" d="M59 -182Q41 -182 28 -170T15 -124Q15 -92 24 -61T49 -6Q78 -17 114 -21T179 -25Q231 -25 285 -24T395 -22Q509 -19 624 -19Q664 -19 686 -36T708 -95Q708 -114 704 -135T688 -176Q667 -167 635
-163T565 -158Q492 -158 407 -162T246 -172Q188 -176 140 -179T59 -182Z" />
<glyph unicode="`" glyph-name="grave" horiz-adv-x="376" d="M300 653Q268 653 238 663T179 686T118 710T53 720Q48 720 42 720T30 718Q25 736 23 755T20 791Q20 845 37 865T76 886Q109 886 142 866T209 817T280 764T356 729Q353 687 337 670T300 653Z" />
<glyph unicode="a" glyph-name="a" horiz-adv-x="736" d="M227 -25Q171 -25 129 4T63 86T40 210Q40 293 69 364T151 488T275 570T429 600Q453 600 470 599T508 592Q514 564 515 543Q538 558 566 566T618 575Q691 575 691 496Q691 470 682 426T660 328T638 219T628
115Q628 50 659 24Q603 -25 540 -25Q482 -25 455 11T427 123L417 128Q390 56 340 16T227 -25ZM306 157Q345 157 382 185T444 262Q448 301 452 335T464 409T483 501Q432 501 387 482T305 428T249 351T228 259Q228 210 248 184T306 157Z" />
<glyph unicode="b" glyph-name="b" horiz-adv-x="739" d="M291 -25Q179 -25 123 26T66 190Q66 222 75 287T98 439T131 622L75 702Q127 733 172 754T264 775Q307 775 327 759T347 704Q347 678 341 637T327 547T308 453L318 448Q354 519 405 555T528 591Q582 591
619 560T675 476T694 360Q694 265 657 193T560 73T429 0T291 -25ZM264 91Q323 91 369 112T447 170T497 249T514 337Q514 364 504 390T476 433T433 450Q396 450 369 429T323 374T293 298T275 216T266 142T264 91Z" />
<glyph unicode="c" glyph-name="c" horiz-adv-x="638" d="M328 -25Q241 -25 178 8T80 101T45 238Q45 319 74 385T156 500T279 574T432 600Q521 600 569 567T618 483Q618 435 584 410T505 385Q475 385 442 405T389 467Q345 449 315 412T269 329T253 239Q253 180
278 138T352 95Q386 95 414 121T442 206Q510 206 549 191T588 137Q588 101 556 64T466 1T328 -25Z" />
<glyph unicode="d" glyph-name="d" horiz-adv-x="748" d="M236 -25Q185 -25 142 2T72 82T45 210Q45 272 68 336T140 455T261 542T434 575Q450 575 465 574T498 571Q499 578 502 596T507 622L451 702Q504 733 552 754T648 775Q690 775 706 759T723 704Q723 669
714 617T692 503T666 376T643 251T634 142Q634 95 641 67T665 24Q609 -25 546 -25Q503 -25 479 -9T443 30T432 73L422 78Q382 25 333 0T236 -25ZM336 125Q362 125 389 138T440 179Q447 253 458 332T485 487Q424 487 377 466T298 409T250 331T233 248Q233 189 263
157T336 125Z" />
<glyph unicode="e" glyph-name="e" horiz-adv-x="657" d="M331 -25Q238 -25 174 8T78 100T45 238Q45 319 74 385T157 500T280 574T433 600Q530 600 576 557T622 449Q622 393 586 344T468 264T252 232Q255 168 281 132T348 95Q368 95 390 104T427 138T442 206Q510
206 549 191T588 137Q588 101 557 64T469 1T331 -25ZM261 312Q334 318 378 339T442 387T462 437Q462 457 450 470T416 483Q380 483 349 458T296 394T261 312Z" />
<glyph unicode="f" glyph-name="f" horiz-adv-x="432" d="M175 -210Q134 -210 110 -190T74 -136T63 -62Q63 -37 71 20T93 157T125 334Q107 330 90 326T55 317Q51 329 50 342T48 362Q48 413 76 436T144 461Q140 478 139 495T137 529Q137 580 150 628T191 714T259
775T355 798Q395 798 422 782T463 739T477 685Q477 644 448 611T359 577Q315 577 276 601L262 590L297 471Q349 478 403 498Q410 476 410 451Q410 415 393 387T338 350Q329 310 319 255T298 139T281 23T274 -70Q274 -100 281 -123T305 -161Q232 -210 175 -210Z"
/>
<glyph unicode="g" glyph-name="g" horiz-adv-x="729" d="M230 -235Q184 -235 146 -222T86 -184T63 -124Q63 -102 72 -76T104 -21Q127 -54 160 -71T242 -89Q278 -89 315 -68T381 -3T422 113L412 118Q375 63 326 39T230 14Q174 14 134 44T72 127T50 252Q50 311
72 372T140 485T257 568T429 600Q449 600 467 599T508 592Q510 582 512 570T515 543Q539 560 563 567T610 575Q647 575 663 557T679 500Q679 438 670 360T641 199T588 39T505 -100T387 -198T230 -235ZM338 166Q363 166 390 179T440 220Q452 285 463 359T484 501Q407
501 352 470T268 389T239 280Q239 228 268 197T338 166Z" />
<glyph unicode="h" glyph-name="h" horiz-adv-x="773" d="M187 -25Q124 -25 97 7T70 99Q70 129 75 177T90 283T110 403T131 521T149 622L93 702Q146 733 194 754T290 775Q332 775 348 759T365 704Q365 663 361 620T349 536T336 466T325 422L335 417Q394 518 464
559T607 600Q668 600 698 571T728 479Q728 425 714 365T684 241T669 115Q669 53 690 24Q637 -25 580 -25Q517 -25 490 7T463 99Q463 132 472 172T493 255T514 334T523 398Q523 419 516 431T489 443Q462 443 426 419T356 352T299 248T276 115Q276 53 297 24Q244
-25 187 -25Z" />
<glyph unicode="i" glyph-name="i" horiz-adv-x="388" d="M243 665Q197 665 167 685T137 739Q137 772 159 793T212 826T272 837Q318 837 348 818T378 763Q378 734 359 712T310 677T243 665ZM183 -25Q119 -25 92 7T65 99Q65 121 71 160T87 248T108 347T129 441L73
525Q126 557 174 578T270 600Q312 600 328 582T345 526Q345 511 338 477T319 397T297 301T279 202T271 115Q271 85 278 62T302 24Q246 -25 183 -25Z" />
<glyph unicode="j" glyph-name="j" horiz-adv-x="392" d="M240 665Q194 665 164 685T134 739Q134 772 156 793T209 826T269 837Q315 837 345 818T375 763Q375 734 356 712T307 677T240 665ZM51 -210Q-11 -210 -39 -181T-68 -113Q-68 -67 -38 -41T43 -15Q72 -15
92 -26T129 -48L139 -34Q111 -5 96 16T76 57T70 105Q70 116 75 151T89 237T107 340T126 441L70 525Q123 557 171 578T267 600Q309 600 325 582T342 526Q342 508 337 469T324 378T304 266T282 148T260 37Q248 -25 222 -81T153 -174T51 -210Z" />
<glyph unicode="k" glyph-name="k" horiz-adv-x="724" d="M178 -25Q117 -25 91 13T65 129Q65 151 70 194T85 292T105 406T126 522T144 622L88 702Q141 733 189 754T285 775Q327 775 343 759T360 704Q360 671 352 623T332 518T307 400T285 282L348 338Q384 370
414 397T463 451T482 511Q482 525 480 536T474 557Q545 600 608 600Q650 600 675 574T700 504Q700 463 677 426T617 360T542 308Q564 238 593 175T653 70T704 16Q684 -5 648 -15T580 -25Q518 -25 476 17T400 155L375 226L272 175Q271 167 271 159T271 142Q271 103
278 73T302 24Q232 -25 178 -25Z" />
<glyph unicode="l" glyph-name="l" horiz-adv-x="385" d="M183 -25Q122 -25 96 13T70 129Q70 151 75 194T90 292T110 406T131 522T149 622L93 702Q146 733 194 754T290 775Q332 775 348 759T365 704Q365 669 356 617T334 503T308 376T285 251T276 142Q276 103
283 73T307 24Q237 -25 183 -25Z" />
<glyph unicode="m" glyph-name="m" horiz-adv-x="1131" d="M172 -25Q109 -25 82 7T55 99Q55 120 61 163T76 260T97 368T118 464L66 544Q107 567 154 583T251 600Q293 600 313 580T333 524Q333 498 326 470T310 422L320 417Q379 518 444 559T582 600Q635 600 669
574T703 488Q703 458 693 422L703 417Q762 518 827 559T965 600Q1026 600 1056 571T1086 479Q1086 425 1072 365T1042 241T1027 115Q1027 53 1048 24Q995 -25 938 -25Q875 -25 848 7T821 99Q821 132 830 172T851 255T872 334T881 398Q881 419 874 431T847 443Q820
443 786 419T719 352T665 248T644 115Q644 53 665 24Q612 -25 555 -25Q492 -25 465 7T438 99Q438 132 447 172T468 255T489 334T498 398Q498 419 491 431T464 443Q437 443 403 419T336 352T282 248T261 115Q261 53 282 24Q229 -25 172 -25Z" />
<glyph unicode="n" glyph-name="n" horiz-adv-x="758" d="M172 -25Q109 -25 82 7T55 99Q55 120 61 163T76 260T97 368T118 464L66 544Q107 567 154 583T251 600Q293 600 313 580T333 524Q333 498 326 470T310 422L320 417Q379 518 449 559T592 600Q653 600 683
571T713 479Q713 425 699 365T669 241T654 115Q654 53 675 24Q622 -25 565 -25Q502 -25 475 7T448 99Q448 132 457 172T478 255T499 334T508 398Q508 419 501 431T474 443Q447 443 411 419T341 352T284 248T261 115Q261 53 282 24Q229 -25 172 -25Z" />
<glyph unicode="o" glyph-name="o" horiz-adv-x="715" d="M328 -25Q240 -25 177 8T79 101T45 238Q45 346 92 427T223 554T412 600Q429 600 446 599T484 592Q489 578 492 559T496 517Q505 520 515 522T538 524Q573 524 604 506T655 448T675 349Q675 260 646 191T566
73T455 0T328 -25ZM359 98Q382 98 407 109T456 149T496 231Q453 258 434 297T415 385Q415 399 420 421T437 466T472 504Q403 490 359 462T291 398T257 323T247 249Q247 209 260 175T298 119T359 98Z" />
<glyph unicode="p" glyph-name="p" horiz-adv-x="766" d="M165 -199Q101 -199 78 -167T55 -75Q55 -53 60 -7T72 98T90 222T109 345T127 448L71 528Q124 559 171 580T267 601Q309 601 324 573T339 506Q339 495 338 482T335 453L345 448Q374 520 429 560T555 601Q609
601 646 569T702 483T721 366Q721 304 698 240T626 121T505 34T332 1Q313 1 295 2T256 6Q253 -28 253 -59Q253 -89 260 -112T284 -150Q228 -199 165 -199ZM274 99Q339 101 388 123T472 182T523 262T540 346Q540 392 522 421T468 450Q431 450 399 428T341 354T297
215L274 99Z" />
<glyph unicode="q" glyph-name="q" horiz-adv-x="737" d="M474 -199Q428 -199 408 -182T387 -128Q387 -108 392 -75T405 -3T418 72L408 77Q371 28 321 2T221 -25Q174 -25 133 0T66 77T40 210Q40 281 61 350T126 476T237 566T395 600Q462 600 525 566Q563 575 601
575Q637 575 656 561T683 525T691 477Q691 462 683 424T662 332T638 215T618 84T609 -46L659 -126Q618 -157 571 -178T474 -199ZM323 125Q342 125 374 138T434 191Q445 259 457 335T484 500Q457 506 435 506Q382 506 343 485T279 429T242 353T229 270Q229 231 240
198T272 145T323 125Z" />
<glyph unicode="r" glyph-name="r" horiz-adv-x="529" d="M168 -25Q107 -25 81 7T55 99Q55 120 61 163T76 260T97 368T118 464L66 544Q118 567 162 583T242 600Q268 600 280 582T292 536Q292 504 281 465T259 390L269 385Q304 488 348 544T448 600Q484 600 506
585T538 547T549 503Q549 470 533 440T480 390T385 370Q362 370 340 360T300 323T272 245T261 115Q261 53 282 24Q220 -25 168 -25Z" />
<glyph unicode="s" glyph-name="s" horiz-adv-x="643" d="M293 -25Q199 -25 144 -11T64 29T40 84Q40 107 52 137T89 194Q106 171 134 152T197 121T263 109Q298 109 326 125T363 182Q209 200 142 250T75 391Q75 448 102 488T174 552T278 588T400 600Q459 600 505
585T577 543T603 483Q603 435 569 410T490 385Q460 385 427 405T374 467Q337 456 315 436T276 377Q390 360 457 334T553 269T583 171Q583 125 563 91T509 35T437 0T360 -19T293 -25Z" />
<glyph unicode="t" glyph-name="t" horiz-adv-x="476" d="M227 -25Q163 -25 136 13T109 129Q109 151 114 191T127 282T144 381Q123 377 104 372T67 361Q63 376 62 391T60 413Q60 465 90 488T164 512Q164 535 158 563T137 625Q179 656 221 677T314 698Q358 698
375 682T392 627Q392 608 388 582T378 525Q400 528 420 532T459 542Q463 531 464 520T466 497Q466 457 442 428T366 398H351Q337 334 326 267T315 142Q315 103 322 73T346 24Q290 -25 227 -25Z" />
<glyph unicode="u" glyph-name="u" horiz-adv-x="764" d="M223 -25Q161 -25 127 -4T79 54T65 137Q65 190 76 248T98 362T109 460Q109 522 88 551Q129 573 173 586T245 600Q286 600 304 584T323 529Q323 508 317 472T302 392T284 306T268 227T262 172Q262 135 281
116T329 97Q361 97 396 121T454 191Q458 213 464 246T479 316T495 388T509 447L449 527Q492 558 541 579T641 600Q686 600 705 584T725 529Q725 508 718 471T700 389T678 294T660 199T652 115Q652 85 659 62T683 24Q627 -25 564 -25Q500 -25 475 4T450 73L440 78Q407
29 348 2T223 -25Z" />
<glyph unicode="v" glyph-name="v" horiz-adv-x="703" d="M282 -25Q182 -25 139 6T95 110Q95 176 97 251T99 385Q99 453 84 493T45 557Q97 600 159 600Q215 600 244 568T283 479T294 354Q294 317 294 271T292 179T289 97H323Q345 144 371 200T421 315T460 425T475
512Q475 526 473 537T466 557Q504 579 538 589T600 600Q643 600 660 574T678 506Q678 470 663 420T624 316T578 212T541 127L554 69Q527 45 483 24T386 -11T282 -25Z" />
<glyph unicode="w" glyph-name="w" horiz-adv-x="966" d="M233 -25Q200 -25 169 -15T117 20T96 89Q96 89 96 112T97 171T98 247T98 325T99 385Q99 453 84 493T45 557Q97 600 159 600Q215 600 244 568T283 479T294 354Q294 317 294 271T292 179T289 97H323Q358
158 385 213T423 321Q423 355 417 397T400 476T379 532Q394 552 425 564T489 576Q515 576 539 567T580 538T597 485Q597 454 584 420T555 337L551 97H585Q608 141 634 197T683 313T722 424T737 512Q737 526 735 537T728 557Q763 579 797 589T859 600Q903 600 922
574T941 506Q941 470 926 420T887 316T841 212T804 127L818 69Q803 57 774 41T709 10T633 -15T557 -25Q513 -25 479 -5T432 66Q388 23 341 -1T233 -25Z" />
<glyph unicode="x" glyph-name="x" horiz-adv-x="689" d="M97 -25Q55 -25 30 1T5 71Q5 107 22 138T68 197T130 246T194 283L223 297L163 407Q147 436 121 462T47 505Q109 600 209 600Q254 600 285 576T352 485L396 404Q423 430 439 455T456 511Q456 525 454 536T448
557Q519 600 582 600Q624 600 649 574T674 504Q674 468 657 437T611 378T549 329T485 292L463 281L526 167Q541 139 566 112T642 69Q579 -25 479 -25Q449 -25 426 -15T382 20T337 89L289 177Q260 150 242 123T223 64Q223 50 225 39T231 18Q160 -25 97 -25Z" />
<glyph unicode="y" glyph-name="y" horiz-adv-x="695" d="M205 -235Q136 -235 89 -205T42 -121Q42 -99 51 -74T79 -21Q102 -54 134 -71T199 -89Q238 -89 274 -63T332 20Q307 11 285 7T243 3Q191 3 159 30T122 110Q115 176 113 247T105 376Q98 444 76 489T25 557Q49
579 75 589T143 600Q193 600 224 570T273 486T296 359T303 201Q303 189 303 164T300 114H358Q374 158 392 208T425 309T451 408T461 493Q461 515 457 530T446 557Q481 579 515 589T576 600Q622 600 643 569T665 488Q665 451 654 403T627 303T594 205T566 127Q518
-11 459 -90T335 -202T205 -235Z" />
<glyph unicode="z" glyph-name="z" horiz-adv-x="624" d="M427 -25Q370 -25 322 -10T220 25Q190 2 164 -8T109 -18Q63 -18 39 11T15 78Q15 119 44 157T134 202L298 376Q212 379 165 395T99 441T80 514Q80 533 83 553T91 605Q136 587 191 570T299 543T384 530Q400
560 431 580T499 600Q552 600 578 574T604 506Q604 466 585 441T531 401L324 164Q351 156 377 150T427 143L563 196Q572 173 578 149T584 97Q584 61 563 34T506 -9T427 -25Z" />
<glyph unicode="{" glyph-name="braceleft" horiz-adv-x="486" d="M332 -157Q210 -157 150 -120T90 15Q90 48 99 95T127 195T175 301Q160 295 143 295Q115 295 94 313T73 357Q73 383 94 401T143 420Q173 420 194 401Q187 426 183 460T176 527T173 581Q173 659
194 703T252 768T333 794T424 800Q475 800 495 774T516 701Q516 694 516 678T511 649Q501 654 477 658T426 665T381 668Q365 588 349 535T314 447T275 391T227 351Q259 316 276 266T293 163Q293 159 293 153T291 129T286 75T276 -25Q294 -25 319 -22T368 -15T402
-6Q406 -19 407 -34T409 -58Q409 -104 390 -130T332 -157Z" />
<glyph unicode="|" glyph-name="bar" horiz-adv-x="479" d="M250 -219Q207 -219 169 -205T110 -168Q122 -139 129 -101T141 -22T147 49Q154 216 156 398T166 758Q168 814 191 844T268 874Q294 874 319 867T364 840Q349 813 341 762T327 646T321 512T319 379Q319
274 322 188T328 21T331 -150Q331 -178 314 -198T250 -219Z" />
<glyph unicode="}" glyph-name="braceright" horiz-adv-x="486" d="M62 -157Q11 -157 -9 -131T-30 -58Q-30 -50 -30 -35T-25 -6Q-15 -10 9 -14T61 -22T105 -25Q122 55 138 108T172 196T211 252T259 292Q228 327 211 377T193 480Q193 484 193 490T195 514T200 568T210
668Q193 668 167 665T118 658T84 649Q80 662 79 678T77 701Q77 748 96 774T154 800Q276 800 336 763T396 628Q396 595 387 548T359 448T310 341Q324 348 343 348Q372 348 392 330T413 286Q413 260 393 242T343 223Q312 223 291 242Q299 217 303 183T310 116T313
62Q313 -16 292 -60T234 -125T153 -151T62 -157Z" />
<glyph unicode="~" glyph-name="asciitilde" horiz-adv-x="733" d="M157 270Q130 270 114 285T97 340Q97 364 107 394T136 450Q163 440 191 436T247 431Q287 431 324 442T397 469T469 496T544 508Q583 508 609 490T636 429Q636 407 627 380T598 328Q570 342 541
348T485 354Q442 354 401 342T320 312T240 283T157 270Z" />
<glyph unicode="&#xa0;" glyph-name="uni00A0" horiz-adv-x="300" />
<glyph unicode="&#xa1;" glyph-name="exclamdown" horiz-adv-x="458" d="M272 368Q226 368 196 398T165 473Q165 507 182 535T227 582T291 600Q337 600 367 570T398 495Q398 462 381 433T336 386T272 368ZM153 -209Q94 -209 70 -180T45 -106Q45 -68 56 -19T85
80T120 175T149 249Q171 268 200 277T251 287Q292 287 306 264T321 202Q321 184 318 150T312 76T305 -3T302 -65Q302 -84 307 -106T327 -142Q294 -176 249 -192T153 -209Z" />
<glyph unicode="&#xa2;" glyph-name="cent" horiz-adv-x="663" d="M278 -135Q246 -135 246 -81Q246 -49 253 -13T273 62Q175 77 120 139T64 293Q64 379 101 446T204 557T354 615Q359 639 362 663T366 709Q366 718 366 726T364 740Q418 794 450 794Q479 794 479
749Q479 721 472 688T454 620Q522 616 558 590T594 515Q594 495 588 470T569 416Q541 434 502 444T409 455Q393 455 376 454T339 450Q312 427 297 383T281 296Q281 252 300 218T360 184Q392 184 419 212T448 299Q519 298 559 286T599 246Q599 208 572 168T493 98T371
60Q365 32 362 7T358 -43Q358 -53 359 -64T362 -83Q313 -135 278 -135Z" />
<glyph unicode="&#xa3;" glyph-name="sterling" horiz-adv-x="664" d="M465 -25Q404 -25 351 -10T235 27Q204 2 173 -8T117 -19Q68 -19 43 12T17 87Q17 125 40 160T110 211L112 272Q99 270 87 269T64 267Q25 267 25 291Q25 306 36 324T73 367Q79 366 87 366T118
365Q120 397 124 430T134 496Q146 565 183 611T276 681T397 705Q428 705 464 702T534 685T588 646T609 574Q609 548 603 517T582 462Q544 485 485 497T364 509Q364 476 345 390Q375 398 403 403T456 409Q503 409 503 382Q503 350 456 307Q443 311 421 311Q399 311
374 307T321 297Q314 274 307 251T291 208Q338 198 386 188T491 176L606 222Q611 203 614 179T618 132Q618 77 597 43T542 -8T465 -25Z" />
<glyph unicode="&#xa4;" glyph-name="currency" horiz-adv-x="636" d="M111 24Q95 24 85 40T70 79T65 117Q100 153 132 194Q77 243 77 323Q77 375 99 417T161 489Q129 527 95 558Q95 576 100 596T114 631T136 645Q157 645 183 621T235 559Q244 547 252 533Q308
550 373 550Q383 550 397 549T422 545Q426 552 431 559Q457 597 483 621T530 645Q543 645 552 631T566 597T571 558Q537 527 505 489Q533 469 546 439T559 370Q559 316 535 273T470 199Q504 155 541 117Q541 101 537 79T522 41T495 24Q479 24 463 38T429 75Q415
95 403 115T380 155Q338 143 293 143Q256 143 224 150Q213 131 202 113T177 75Q161 52 144 38T111 24ZM298 257Q320 257 338 272T369 311T381 361Q381 382 369 397T318 412Q312 412 306 412T292 410Q270 389 260 364T249 317Q249 292 261 275T298 257Z" />
<glyph unicode="&#xa5;" glyph-name="yen" horiz-adv-x="728" d="M321 -25Q254 -25 227 16T199 125Q199 133 199 140T200 155Q174 148 150 143T104 138Q65 138 65 159Q65 171 75 187T109 226Q116 225 123 225T135 224Q161 224 196 232L184 292Q172 290 161 289T140
288Q101 288 101 309Q101 321 111 337T145 376Q150 375 155 375T165 374Q137 486 109 554T45 656Q87 680 131 690T209 700Q265 700 295 676T336 613T348 528Q348 482 341 435T326 350H366Q378 370 393 401T423 471T447 549T457 625Q457 637 456 647T452 666Q490
685 529 692T604 700Q661 700 684 682T707 636Q707 618 693 586T655 513T603 429Q607 430 611 430T619 430Q665 430 665 406Q665 382 622 340Q609 344 589 344Q579 344 567 343T542 340L493 271Q511 275 528 277T563 280Q609 280 609 256Q609 232 566 190Q553 194
533 194Q513 194 488 190T437 179Q434 162 433 146T432 114Q432 53 455 12Q385 -25 321 -25Z" />
<glyph unicode="&#xa6;" glyph-name="brokenbar" horiz-adv-x="435" d="M234 400Q199 400 167 410T110 443Q121 479 126 518T132 611T134 747Q134 810 152 842T229 874Q256 874 277 867T320 840Q307 812 302 766T297 667Q297 621 298 592T302 542T305 503T307
460Q307 435 292 418T234 400ZM234 -219Q199 -219 167 -209T110 -176Q121 -140 126 -101T132 -8T134 128Q134 191 152 223T229 255Q256 255 277 248T320 221Q307 193 302 147T297 48Q297 2 298 -27T302 -77T305 -116T307 -159Q307 -184 292 -201T234 -219Z" />
<glyph unicode="&#xa7;" glyph-name="section" horiz-adv-x="743" d="M640 247Q610 277 566 293T469 318T364 332T262 349T174 381T113 438T90 534Q90 596 117 641T190 715T296 759T420 774Q532 774 595 754T686 701T713 624Q713 593 704 555T677 483Q636 533
569 566T427 599Q376 599 346 576T300 508Q400 483 465 455T567 394T621 326T640 247ZM311 -187Q199 -187 135 -167T44 -113T17 -37Q17 -6 26 32T54 104Q81 71 121 45T208 4T304 -12Q354 -12 385 11T430 78Q329 104 264 131T161 189T107 257T89 341Q118 310 161
294T257 270T362 255T465 238T554 206T617 149T640 53Q640 -8 613 -53T540 -128T434 -172T311 -187Z" />
<glyph unicode="&#xa8;" glyph-name="dieresis" horiz-adv-x="632" d="M481 666Q441 666 414 686T387 741Q387 778 407 802T456 837T512 849Q553 849 579 829T606 773Q606 741 589 717T543 679T481 666ZM180 666Q140 666 113 686T86 741Q86 778 106 802T155 837T211
849Q252 849 278 829T305 773Q305 741 288 717T242 679T180 666Z" />
<glyph unicode="&#xa9;" glyph-name="copyright" horiz-adv-x="896" d="M424 150Q359 150 299 171T190 235T113 342T85 493Q85 614 141 704T299 845T537 896Q584 896 607 888T639 862T650 818Q733 773 772 700T811 546Q811 448 778 374T688 250T564 175T424 150ZM423
213Q501 213 562 241T667 316T733 423T756 543Q756 590 739 638T688 726T602 790T480 815Q389 815 315 779T198 672T154 494Q154 398 191 336T290 243T423 213ZM435 321Q367 321 321 363T275 497Q275 533 290 571T336 643T411 697T514 718Q557 718 586 700T616
648Q616 614 594 597T542 579Q519 579 497 590T460 625Q432 611 411 571T390 485Q390 452 402 427T443 402Q465 402 484 426T503 487Q551 487 577 480T603 442Q603 415 583 387T525 340T435 321Z" />
<glyph unicode="&#xaa;" glyph-name="ordfeminine" horiz-adv-x="552" d="M179 289Q117 289 80 335T42 458Q42 536 78 597T175 695T315 731Q334 731 347 730T377 724Q381 712 381 694Q395 702 412 708T443 714Q471 714 486 699T502 651Q502 632 496 601T481 534T467
461T460 393Q460 356 486 333Q436 289 390 289Q353 289 335 310T315 372H307Q285 336 250 313T179 289ZM232 432Q256 432 278 449T316 495Q319 521 321 542T328 588T339 645Q298 643 264 621T210 565T189 491Q189 432 232 432Z" />
<glyph unicode="&#xab;" glyph-name="guillemotleft" horiz-adv-x="694" d="M536 18Q517 18 494 31T447 66T405 111T374 154Q372 165 371 180T370 212Q370 257 377 311T396 415T427 497T466 533Q506 538 532 540T584 548T648 567Q648 491 636 445T602 376T553
344T496 336Q478 336 470 338T445 343L438 299Q475 269 513 256T595 243Q595 230 594 204T588 146T578 85T561 37T536 18ZM224 18Q205 18 182 31T135 66T93 111T62 154Q60 165 59 180T58 212Q58 257 65 311T84 415T115 497T154 533Q194 538 220 540T272 548T336
567Q336 491 324 445T290 376T241 344T184 336Q166 336 158 338T133 343L126 299Q163 269 201 256T283 243Q283 230 282 204T276 146T266 85T249 37T224 18Z" />
<glyph unicode="&#xac;" glyph-name="logicalnot" horiz-adv-x="733" d="M496 81Q459 81 446 96T432 136Q432 158 440 188T459 249T478 307Q390 303 306 293T139 283Q121 283 108 295T95 341Q95 373 104 404T129 458Q158 448 195 444T259 440Q338 440 410 443T554
446Q594 446 616 429T638 370Q638 335 625 299T599 226T586 150Q586 140 588 128T594 105Q571 93 544 87T496 81Z" />
<glyph unicode="&#xae;" glyph-name="registered" horiz-adv-x="896" d="M424 150Q359 150 299 171T190 235T113 342T85 493Q85 614 141 704T299 845T537 896Q584 896 607 888T639 862T650 818Q733 773 772 700T811 546Q811 448 778 374T688 250T564 175T424 150ZM423
213Q501 213 562 241T667 316T733 423T756 543Q756 590 739 638T688 726T602 790T480 815Q389 815 315 779T198 672T154 494Q154 398 191 336T290 243T423 213ZM341 320Q306 320 292 340T277 402Q277 429 285 482T310 623L282 680Q307 696 335 707T391 718Q406
718 423 714T450 702Q490 718 522 718Q573 718 600 684T628 606Q628 573 611 541T559 488Q576 438 598 400T644 350Q633 338 610 330T568 321Q534 321 512 338T471 408L453 461Q425 461 397 470Q391 436 391 421Q391 370 407 344Q376 320 341 320ZM420 527Q466
527 488 550T510 599Q510 619 497 634T457 650Q443 650 429 647Q426 625 421 592T408 528Q412 527 420 527Z" />
<glyph unicode="&#xaf;" glyph-name="overscore" horiz-adv-x="555" d="M125 685Q111 685 101 696T90 738Q90 769 98 793T119 844Q134 837 158 835T193 832Q241 832 291 835T394 838Q428 838 446 822T465 767Q465 750 462 732T451 695Q439 703 415 706T375 709Q336
709 292 703T206 691T125 685Z" />
<glyph unicode="&#xb0;" glyph-name="degree" horiz-adv-x="520" d="M234 467Q148 467 99 511T50 625Q50 691 80 740T164 816T286 844Q372 844 421 801T470 686Q470 621 440 572T356 495T234 467ZM241 553Q264 553 284 572T316 623T329 690Q329 717 316 736T264
756Q256 756 249 756T234 754Q212 726 201 693T189 631Q189 599 202 576T241 553Z" />
<glyph unicode="&#xb1;" glyph-name="plusminus" horiz-adv-x="733" d="M139 -128Q123 -128 112 -116T100 -70Q100 -37 107 -7T131 46Q160 37 196 33T259 29Q338 29 410 32T554 35Q592 35 612 18T633 -41Q633 -60 629 -80T615 -120Q595 -112 567 -108T505 -104Q411
-104 321 -116T139 -128ZM395 103Q362 103 332 110T279 134Q288 163 292 199T296 262V292Q256 288 217 286T139 283Q123 283 112 295T100 341Q100 374 107 404T131 457Q160 448 196 444T259 440H292Q291 469 291 498T290 557Q290 595 307 615T366 636Q385 636 405
632T445 618Q437 598 433 570T429 508Q429 492 429 476T431 443Q493 446 554 446Q592 446 612 429T633 370Q633 351 629 331T615 291Q595 299 567 303T505 307Q489 307 474 307T443 305Q447 264 450 224T453 142Q453 126 441 115T395 103Z" />
<glyph unicode="&#xb2;" glyph-name="uni00B2" horiz-adv-x="500" d="M344 193Q298 193 260 203T179 228Q158 212 135 205T90 198Q47 198 25 225T2 286Q2 312 16 337T59 378T133 395Q137 395 141 395T150 394Q194 432 221 466T248 529Q248 563 218 563Q205 563
188 550T154 487Q104 487 81 509T57 564Q57 596 77 627T145 679T269 700Q334 700 373 679T429 626T447 562Q447 508 406 455T308 357Q321 355 333 354T359 352L454 389Q469 354 469 313Q469 249 432 221T344 193Z" />
<glyph unicode="&#xb3;" glyph-name="uni00B3" horiz-adv-x="471" d="M167 193Q29 193 29 282Q29 320 57 340T120 360Q143 360 171 347T214 301Q227 306 235 324T244 362Q244 372 243 380T235 396Q208 378 175 378Q152 378 138 393T124 427Q124 456 152 471T244
486Q251 499 251 519Q251 541 237 554T203 568Q186 568 170 556T148 512Q102 512 80 535T58 586Q58 613 77 639T137 682T242 699Q308 699 347 678T403 627T420 569Q420 532 403 505T358 458Q384 441 400 415T417 353Q417 310 386 274T299 215T167 193Z" />
<glyph unicode="&#xb4;" glyph-name="acute" horiz-adv-x="476" d="M126 653Q106 653 90 670T70 729Q109 738 145 763T216 817T284 865T350 886Q373 886 389 866T406 791Q406 774 404 755T396 718Q391 719 385 719T373 720Q339 720 308 710T248 687T188 663T126 653Z" />
<glyph unicode="&#xb5;" glyph-name="uni00B5" horiz-adv-x="771" d="M176 -235Q124 -235 94 -212T51 -154T37 -85Q37 -27 49 43T76 188T104 332T116 460Q116 522 95 551Q136 573 180 586T252 600Q293 600 311 584T330 529Q330 508 324 472T309 392T291 306T275
227T269 172Q269 135 288 116T336 97Q383 97 411 122T455 188T480 276T496 368T516 447L456 527Q499 558 548 579T648 600Q693 600 712 584T732 529Q732 508 725 471T707 389T685 294T667 199T659 115Q659 85 666 62T690 24Q634 -25 571 -25Q507 -25 482 4T457
73L447 78Q421 39 383 8T288 -24Q262 -24 245 -19T211 -4Q211 -108 292 -194Q259 -215 235 -225T176 -235Z" />
<glyph unicode="&#xb6;" glyph-name="paragraph" horiz-adv-x="732" d="M447 -199Q376 -199 346 -155T316 -44Q316 8 330 68T369 188T422 302T483 392L462 404Q419 334 364 299T245 264Q183 264 142 292T80 366T59 465Q59 519 79 573T140 673T242 747T384 775Q428
775 477 765T571 727T644 650T672 523Q672 474 656 408T618 264T581 104T564 -59Q564 -89 571 -112T595 -150Q558 -175 519 -187T447 -199Z" />
<glyph unicode="&#xb7;" glyph-name="middot" horiz-adv-x="333" d="M157 180Q111 180 81 210T50 285Q50 319 67 347T112 394T176 412Q222 412 252 382T283 307Q283 274 266 245T221 198T157 180Z" />
<glyph unicode="&#xb8;" glyph-name="cedilla" horiz-adv-x="663" d="M221 -287Q165 -287 132 -270T85 -229T71 -180Q71 -147 88 -120T135 -77T205 -60Q192 -71 185 -90T177 -130Q177 -160 192 -174T228 -188Q256 -188 282 -164T308 -97Q308 -65 287 -34T219 17V28H257Q317
28 355 9T412 -43T431 -111Q431 -153 407 -193T336 -260T221 -287Z" />
<glyph unicode="&#xb9;" glyph-name="uni00B9" horiz-adv-x="377" d="M192 193Q135 193 112 228T88 317Q88 347 95 388T115 492Q87 492 61 503T18 542T-2 613Q46 619 83 633T149 662T205 689T258 700Q300 700 315 679T330 632Q330 607 323 570T305 488T287 398T279
310Q279 253 300 227Q247 193 192 193Z" />
<glyph unicode="&#xba;" glyph-name="ordmasculine" horiz-adv-x="504" d="M226 289Q136 289 84 341T31 477Q31 553 63 610T153 699T282 731Q294 731 307 730T336 724Q344 702 346 678Q351 679 355 679T364 680Q402 680 432 649T463 551Q463 468 429 410T340 320T226
289ZM241 390Q277 390 301 413T338 472T351 542Q351 578 336 604T287 631Q251 631 226 608T188 549T174 479Q174 443 190 417T241 390Z" />
<glyph unicode="&#xbb;" glyph-name="guillemotright" horiz-adv-x="694" d="M358 11Q358 87 370 133T404 202T453 234T510 242Q528 242 536 240T561 235L568 279Q531 309 493 322T411 335Q411 348 412 374T418 432T428 493T445 541T470 560Q489 560 512 547T559
512T601 467T632 424Q634 413 635 398T636 366Q636 321 629 267T610 163T579 81T540 45Q500 41 474 38T423 30T358 11ZM46 11Q46 87 58 133T92 202T141 234T198 242Q216 242 224 240T249 235L256 279Q219 309 181 322T99 335Q99 348 100 374T106 432T116 493T133
541T158 560Q177 560 200 547T247 512T289 467T320 424Q322 413 323 398T324 366Q324 321 317 267T298 163T267 81T228 45Q189 41 163 38T111 30T46 11Z" />
<glyph unicode="&#xbc;" glyph-name="onequarter" horiz-adv-x="1150" d="M639 -25Q612 -25 591 -15T553 13Q573 35 592 64T628 123T657 177Q688 240 714 295T766 403T819 513T879 637Q900 679 926 702T988 725Q1005 725 1022 720T1055 699Q1033 677 1007 637T955
547Q905 445 862 348T782 169T716 27Q706 5 688 -10T639 -25ZM260 193Q203 193 180 228T156 317Q156 347 163 388T183 492Q155 492 129 503T86 542T66 613Q114 619 151 633T217 662T273 689T326 700Q368 700 383 679T398 632Q398 607 391 570T373 488T355 398T347
310Q347 253 368 227Q315 193 260 193ZM965 -19Q906 -19 880 8T851 72Q834 70 816 69T779 67Q745 67 714 73T664 95T644 139Q644 165 658 202T690 280T723 363T737 438Q737 457 728 469Q752 477 776 482T822 488Q871 488 901 472T931 412Q931 359 898 296T813 180H872Q881
205 892 229T915 273Q929 285 952 295T1004 313T1056 320Q1079 320 1086 314T1094 294Q1094 283 1089 259T1078 203T1067 140T1062 79Q1062 34 1084 15Q1026 -19 965 -19Z" />
<glyph unicode="&#xbd;" glyph-name="onehalf" horiz-adv-x="1150" d="M625 -25Q598 -25 577 -15T539 13Q559 35 578 64T614 123T643 177Q674 240 700 295T752 403T805 513T865 637Q886 679 912 702T974 725Q991 725 1008 720T1041 699Q1019 677 993 637T941 547Q891
445 848 348T768 169T702 27Q692 5 674 -10T625 -25ZM246 193Q189 193 166 228T142 317Q142 347 149 388T169 492Q141 492 115 503T72 542T52 613Q100 619 137 633T203 662T259 689T312 700Q354 700 369 679T384 632Q384 607 377 570T359 488T341 398T333 310Q333
253 354 227Q301 193 246 193ZM960 -19Q914 -19 876 -9T795 16Q774 0 751 -7T706 -14Q663 -14 641 13T618 74Q618 100 632 125T675 166T749 183Q753 183 757 183T766 182Q810 220 837 254T864 317Q864 351 834 351Q821 351 804 338T770 275Q720 275 697 297T673
352Q673 384 693 415T761 467T885 488Q950 488 989 467T1045 414T1063 350Q1063 296 1022 243T924 145Q937 143 949 142T975 140L1070 177Q1085 142 1085 101Q1085 37 1048 9T960 -19Z" />
<glyph unicode="&#xbe;" glyph-name="threequarters" horiz-adv-x="1150" d="M660 -25Q633 -25 612 -15T574 13Q594 35 613 64T649 123T678 177Q709 240 735 295T787 403T840 513T900 637Q921 679 947 702T1009 725Q1026 725 1043 720T1076 699Q1054 677 1028
637T976 547Q926 445 883 348T803 169T737 27Q727 5 709 -10T660 -25ZM174 193Q36 193 36 282Q36 320 64 340T127 360Q150 360 178 347T221 301Q234 306 242 324T251 362Q251 372 250 380T242 396Q215 378 182 378Q159 378 145 393T131 427Q131 456 159 471T251
486Q258 499 258 519Q258 541 244 554T210 568Q193 568 177 556T155 512Q109 512 87 535T65 586Q65 613 84 639T144 682T249 699Q315 699 354 678T410 627T427 569Q427 532 410 505T365 458Q391 441 407 415T424 353Q424 310 393 274T306 215T174 193ZM986 -19Q927
-19 901 8T872 72Q855 70 837 69T800 67Q766 67 735 73T685 95T665 139Q665 165 679 202T711 280T744 363T758 438Q758 457 749 469Q773 477 797 482T843 488Q892 488 922 472T952 412Q952 359 919 296T834 180H893Q902 205 913 229T936 273Q950 285 973 295T1025
313T1077 320Q1100 320 1107 314T1115 294Q1115 283 1110 259T1099 203T1088 140T1083 79Q1083 34 1105 15Q1047 -19 986 -19Z" />
<glyph unicode="&#xbf;" glyph-name="questiondown" horiz-adv-x="602" d="M351 368Q305 368 275 398T244 473Q244 507 261 535T306 582T370 600Q416 600 446 570T477 495Q477 462 460 433T415 386T351 368ZM311 -200Q214 -200 155 -167T70 -82T43 26Q43 89 62
141T115 232T190 291T274 312Q324 312 356 279T388 194Q328 179 293 140T257 56Q257 25 274 0T334 -25Q369 -25 402 0T458 93Q507 88 531 57T555 -14Q555 -57 529 -100T448 -171T311 -200Z" />
<glyph unicode="&#xc0;" glyph-name="Agrave" horiz-adv-x="729" d="M83 -26Q34 -26 14 3T-6 82Q-6 119 8 165T46 261T95 363T145 461T187 546Q182 571 175 599T162 652Q207 683 256 704T374 725Q400 725 418 718T446 700Q472 711 497 718T550 725Q588 725 606
704T629 649T635 578Q635 521 631 463T627 340Q627 271 634 206T662 91T724 17Q690 -4 659 -15T584 -26Q535 -26 504 1T456 74T430 176H226Q217 145 212 120T207 74Q207 42 215 21Q178 -2 146 -14T83 -26ZM268 281H423Q423 337 424 382T428 468T434 555H402Q368
488 332 416T268 281ZM557 753Q525 753 495 763T436 786T375 810T310 820Q305 820 299 820T287 818Q282 836 280 855T277 891Q277 945 294 965T333 986Q366 986 399 966T466 917T537 864T613 829Q610 787 594 770T557 753Z" />
<glyph unicode="&#xc1;" glyph-name="Aacute" horiz-adv-x="729" d="M83 -26Q34 -26 14 3T-6 82Q-6 119 8 165T46 261T95 363T145 461T187 546Q182 571 175 599T162 652Q207 683 256 704T374 725Q400 725 418 718T446 700Q472 711 497 718T550 725Q588 725 606
704T629 649T635 578Q635 521 631 463T627 340Q627 271 634 206T662 91T724 17Q690 -4 659 -15T584 -26Q535 -26 504 1T456 74T430 176H226Q217 145 212 120T207 74Q207 42 215 21Q178 -2 146 -14T83 -26ZM268 281H423Q423 337 424 382T428 468T434 555H402Q368
488 332 416T268 281ZM333 753Q313 753 297 770T277 829Q316 838 352 863T423 917T491 965T557 986Q580 986 596 966T613 891Q613 874 611 855T603 818Q598 819 592 819T580 820Q546 820 515 810T455 787T395 763T333 753Z" />
<glyph unicode="&#xc2;" glyph-name="Acircumflex" horiz-adv-x="729" d="M83 -26Q34 -26 14 3T-6 82Q-6 119 8 165T46 261T95 363T145 461T187 546Q182 571 175 599T162 652Q207 683 256 704T374 725Q400 725 418 718T446 700Q472 711 497 718T550 725Q588 725
606 704T629 649T635 578Q635 521 631 463T627 340Q627 271 634 206T662 91T724 17Q690 -4 659 -15T584 -26Q535 -26 504 1T456 74T430 176H226Q217 145 212 120T207 74Q207 42 215 21Q178 -2 146 -14T83 -26ZM268 281H423Q423 337 424 382T428 468T434 555H402Q368
488 332 416T268 281ZM294 744Q263 744 250 749T237 763Q237 778 251 802T285 853T327 904T361 943Q373 950 400 955T462 964T531 968Q578 968 613 960T648 931Q648 896 643 869T638 808Q638 791 642 777T652 752Q635 748 618 746T581 744Q522 744 504 767T485
826Q485 844 487 864T492 906H466Q440 874 423 833T406 756Q375 749 347 747T294 744Z" />
<glyph unicode="&#xc3;" glyph-name="Atilde" horiz-adv-x="729" d="M83 -26Q34 -26 14 3T-6 82Q-6 119 8 165T46 261T95 363T145 461T187 546Q182 571 175 599T162 652Q207 683 256 704T374 725Q400 725 418 718T446 700Q472 711 497 718T550 725Q588 725 606
704T629 649T635 578Q635 521 631 463T627 340Q627 271 634 206T662 91T724 17Q690 -4 659 -15T584 -26Q535 -26 504 1T456 74T430 176H226Q217 145 212 120T207 74Q207 42 215 21Q178 -2 146 -14T83 -26ZM268 281H423Q423 337 424 382T428 468T434 555H402Q368
488 332 416T268 281ZM305 766Q277 766 259 779T241 829Q241 875 268 934Q289 924 310 919T351 914Q394 914 432 929T508 958T585 973Q613 973 631 960T649 910Q649 864 622 805Q601 816 580 820T539 825Q497 825 458 811T382 781T305 766Z" />
<glyph unicode="&#xc4;" glyph-name="Adieresis" horiz-adv-x="729" d="M83 -26Q34 -26 14 3T-6 82Q-6 119 8 165T46 261T95 363T145 461T187 546Q182 571 175 599T162 652Q207 683 256 704T374 725Q400 725 418 718T446 700Q472 711 497 718T550 725Q588 725
606 704T629 649T635 578Q635 521 631 463T627 340Q627 271 634 206T662 91T724 17Q690 -4 659 -15T584 -26Q535 -26 504 1T456 74T430 176H226Q217 145 212 120T207 74Q207 42 215 21Q178 -2 146 -14T83 -26ZM268 281H423Q423 337 424 382T428 468T434 555H402Q368
488 332 416T268 281ZM580 766Q540 766 513 786T486 841Q486 878 506 902T555 937T611 949Q652 949 678 929T705 873Q705 841 688 817T642 779T580 766ZM279 766Q239 766 212 786T185 841Q185 878 205 902T254 937T310 949Q351 949 377 929T404 873Q404 841 387
817T341 779T279 766Z" />
<glyph unicode="&#xc5;" glyph-name="Aring" horiz-adv-x="729" d="M83 -26Q34 -26 14 3T-6 82Q-6 119 8 165T46 261T95 363T145 461T187 546Q182 571 175 599T162 652Q207 683 256 704T374 725Q400 725 418 718T446 700Q472 711 497 718T550 725Q588 725 606
704T629 649T635 578Q635 521 631 463T627 340Q627 271 634 206T662 91T724 17Q690 -4 659 -15T584 -26Q535 -26 504 1T456 74T430 176H226Q217 145 212 120T207 74Q207 42 215 21Q178 -2 146 -14T83 -26ZM268 281H423Q423 337 424 382T428 468T434 555H402Q368
488 332 416T268 281ZM426 732Q350 732 308 767T266 857Q266 906 291 942T360 998T463 1019Q540 1019 581 985T623 894Q623 845 598 809T529 752T426 732ZM428 797Q457 797 478 827T499 895Q499 918 488 935T439 952Q432 952 427 952T413 950Q395 930 387 906T378
861Q378 835 391 816T428 797Z" />
<glyph unicode="&#xc6;" glyph-name="AE" horiz-adv-x="967" d="M83 -26Q34 -26 14 3T-6 82Q-6 119 8 165T46 261T95 363T145 461T187 546L162 652Q223 672 293 688T437 715T584 726Q640 726 664 710T696 670Q731 671 778 678T877 696T979 721Q984 702 985 686T987
656Q987 599 961 563T892 510T796 493Q740 493 684 517Q678 482 671 442T655 363H719Q739 363 764 371T809 386Q813 373 813 360T814 338Q814 290 782 268T705 246H634Q630 219 627 194T624 136H786Q862 147 939 175Q943 164 944 152T945 126Q945 91 931 56T888
-2T815 -25Q792 -25 768 -21T718 -12Q699 -8 678 -4T630 3Q582 -26 530 -26Q463 -26 436 12T408 129Q408 149 411 178T419 246H246Q228 199 218 155T207 74Q207 42 215 21Q178 -2 146 -14T83 -26ZM297 363H438L473 555H402Q379 516 351 467T297 363Z" />
<glyph unicode="&#xc7;" glyph-name="Ccedilla" horiz-adv-x="683" d="M333 -25Q247 -25 179 10T70 120T30 307Q30 362 49 420T104 532T195 630T322 699T482 725Q536 725 579 710T648 666T673 592Q673 549 654 520T603 477T534 462Q490 462 448 484T380 549Q345
532 315 492T266 397T248 285Q248 244 258 209T291 151T347 129Q375 129 401 150T444 208T461 289Q522 289 563 284T627 260T649 204Q649 166 627 126T564 52T464 -4T333 -25ZM452 -287Q396 -287 363 -270T316 -229T302 -180Q302 -147 319 -120T366 -77T436 -60Q423
-71 416 -90T408 -130Q408 -160 423 -174T459 -188Q487 -188 513 -164T539 -97Q539 -65 518 -34T450 17V28H488Q548 28 586 9T643 -43T662 -111Q662 -153 638 -193T567 -260T452 -287Z" />
<glyph unicode="&#xc8;" glyph-name="Egrave" horiz-adv-x="619" d="M182 -26Q115 -26 88 12T60 129Q60 179 76 279T123 546L70 653Q117 683 170 704T276 726Q310 726 326 710T349 670Q384 671 431 678T530 696T631 721Q636 702 637 686T639 656Q639 599 613 563T544
510T448 493Q392 493 336 517Q330 483 323 446T308 370Q324 367 339 365T371 363Q391 367 416 373T461 386Q465 373 465 360T466 338Q466 290 434 268T357 246Q338 246 321 248T287 255Q282 225 279 198T276 136H438Q514 147 591 175Q595 164 596 152T597 126Q597
91 583 56T540 -2T467 -25Q444 -25 420 -21T370 -12Q351 -8 330 -4T282 3Q234 -26 182 -26ZM523 753Q491 753 461 763T402 786T341 810T276 820Q271 820 265 820T253 818Q248 836 246 855T243 891Q243 945 260 965T299 986Q332 986 365 966T432 917T503 864T579
829Q576 787 560 770T523 753Z" />
<glyph unicode="&#xc9;" glyph-name="Eacute" horiz-adv-x="619" d="M182 -26Q115 -26 88 12T60 129Q60 179 76 279T123 546L70 653Q117 683 170 704T276 726Q310 726 326 710T349 670Q384 671 431 678T530 696T631 721Q636 702 637 686T639 656Q639 599 613 563T544
510T448 493Q392 493 336 517Q330 483 323 446T308 370Q324 367 339 365T371 363Q391 367 416 373T461 386Q465 373 465 360T466 338Q466 290 434 268T357 246Q338 246 321 248T287 255Q282 225 279 198T276 136H438Q514 147 591 175Q595 164 596 152T597 126Q597
91 583 56T540 -2T467 -25Q444 -25 420 -21T370 -12Q351 -8 330 -4T282 3Q234 -26 182 -26ZM299 753Q279 753 263 770T243 829Q282 838 318 863T389 917T457 965T523 986Q546 986 562 966T579 891Q579 874 577 855T569 818Q564 819 558 819T546 820Q512 820 481
810T421 787T361 763T299 753Z" />
<glyph unicode="&#xca;" glyph-name="Ecircumflex" horiz-adv-x="619" d="M182 -26Q115 -26 88 12T60 129Q60 179 76 279T123 546L70 653Q117 683 170 704T276 726Q310 726 326 710T349 670Q384 671 431 678T530 696T631 721Q636 702 637 686T639 656Q639 599
613 563T544 510T448 493Q392 493 336 517Q330 483 323 446T308 370Q324 367 339 365T371 363Q391 367 416 373T461 386Q465 373 465 360T466 338Q466 290 434 268T357 246Q338 246 321 248T287 255Q282 225 279 198T276 136H438Q514 147 591 175Q595 164 596 152T597
126Q597 91 583 56T540 -2T467 -25Q444 -25 420 -21T370 -12Q351 -8 330 -4T282 3Q234 -26 182 -26ZM260 744Q229 744 216 749T203 763Q203 778 217 802T251 853T293 904T327 943Q339 950 366 955T428 964T497 968Q544 968 579 960T614 931Q614 896 609 869T604
808Q604 791 608 777T618 752Q601 748 584 746T547 744Q488 744 470 767T451 826Q451 844 453 864T458 906H432Q406 874 389 833T372 756Q341 749 313 747T260 744Z" />
<glyph unicode="&#xcb;" glyph-name="Edieresis" horiz-adv-x="619" d="M182 -26Q115 -26 88 12T60 129Q60 179 76 279T123 546L70 653Q117 683 170 704T276 726Q310 726 326 710T349 670Q384 671 431 678T530 696T631 721Q636 702 637 686T639 656Q639 599 613
563T544 510T448 493Q392 493 336 517Q330 483 323 446T308 370Q324 367 339 365T371 363Q391 367 416 373T461 386Q465 373 465 360T466 338Q466 290 434 268T357 246Q338 246 321 248T287 255Q282 225 279 198T276 136H438Q514 147 591 175Q595 164 596 152T597
126Q597 91 583 56T540 -2T467 -25Q444 -25 420 -21T370 -12Q351 -8 330 -4T282 3Q234 -26 182 -26ZM546 766Q506 766 479 786T452 841Q452 878 472 902T521 937T577 949Q618 949 644 929T671 873Q671 841 654 817T608 779T546 766ZM245 766Q205 766 178 786T151
841Q151 878 171 902T220 937T276 949Q317 949 343 929T370 873Q370 841 353 817T307 779T245 766Z" />
<glyph unicode="&#xcc;" glyph-name="Igrave" horiz-adv-x="388" d="M187 -26Q120 -26 93 12T65 129Q65 179 81 279T128 546L75 653Q122 683 175 704T281 726Q328 726 343 698T358 632Q358 616 353 581T338 499T320 402T301 304T287 220T281 164Q281 113 288 78T311
19Q251 -26 187 -26ZM356 753Q324 753 294 763T235 786T174 810T109 820Q104 820 98 820T86 818Q81 836 79 855T76 891Q76 945 93 965T132 986Q165 986 198 966T265 917T336 864T412 829Q409 787 393 770T356 753Z" />
<glyph unicode="&#xcd;" glyph-name="Iacute" horiz-adv-x="388" d="M187 -26Q120 -26 93 12T65 129Q65 179 81 279T128 546L75 653Q122 683 175 704T281 726Q328 726 343 698T358 632Q358 616 353 581T338 499T320 402T301 304T287 220T281 164Q281 113 288 78T311
19Q251 -26 187 -26ZM132 753Q112 753 96 770T76 829Q115 838 151 863T222 917T290 965T356 986Q379 986 395 966T412 891Q412 874 410 855T402 818Q397 819 391 819T379 820Q345 820 314 810T254 787T194 763T132 753Z" />
<glyph unicode="&#xce;" glyph-name="Icircumflex" horiz-adv-x="388" d="M187 -26Q120 -26 93 12T65 129Q65 179 81 279T128 546L75 653Q122 683 175 704T281 726Q328 726 343 698T358 632Q358 616 353 581T338 499T320 402T301 304T287 220T281 164Q281 113
288 78T311 19Q251 -26 187 -26ZM349 744Q318 744 305 749T292 763Q292 778 306 802T340 853T382 904T416 943Q428 950 455 955T517 964T586 968Q633 968 668 960T703 931Q703 896 698 869T693 808Q693 791 697 777T707 752Q690 748 673 746T636 744Q577 744 559
767T540 826Q540 844 542 864T547 906H521Q495 874 478 833T461 756Q430 749 402 747T349 744Z" />
<glyph unicode="&#xcf;" glyph-name="Idieresis" horiz-adv-x="388" d="M187 -26Q120 -26 93 12T65 129Q65 179 81 279T128 546L75 653Q122 683 175 704T281 726Q328 726 343 698T358 632Q358 616 353 581T338 499T320 402T301 304T287 220T281 164Q281 113 288
78T311 19Q251 -26 187 -26ZM635 766Q595 766 568 786T541 841Q541 878 561 902T610 937T666 949Q707 949 733 929T760 873Q760 841 743 817T697 779T635 766ZM334 766Q294 766 267 786T240 841Q240 878 260 902T309 937T365 949Q406 949 432 929T459 873Q459 841
442 817T396 779T334 766Z" />
<glyph unicode="&#xd0;" glyph-name="Eth" horiz-adv-x="798" d="M81 234Q48 234 24 247T0 298Q0 318 10 344T41 393Q56 387 72 385T105 383Q109 383 113 383Q120 422 127 463T142 546L89 653Q145 685 196 705T305 725Q329 725 345 717T371 695Q414 710 452 717T524
724Q615 724 676 683T767 575T798 429Q798 366 779 302T720 179T621 74T483 2T305 -25Q241 -25 191 -4T111 58T82 163Q82 177 83 195T88 234Q84 234 81 234ZM341 121Q417 121 468 159T546 259T572 393Q572 483 531 539T409 596Q400 596 390 595T369 592Q365 564
359 525T345 440Q364 446 381 449T415 453Q448 453 472 440T496 389Q496 369 486 343T455 294Q440 300 424 302T391 304Q373 304 356 303T321 298Q313 249 306 204T294 125Q306 123 318 122T341 121Z" />
<glyph unicode="&#xd1;" glyph-name="Ntilde" horiz-adv-x="870" d="M177 -26Q110 -26 83 12T55 129Q55 179 71 279T118 546L65 653Q112 683 165 704T271 725Q343 725 384 703T445 641T476 547T496 430T523 297T578 157L602 173Q574 228 556 301T537 447Q537 520
561 583T635 685T757 725Q780 725 805 721T850 706Q841 652 829 588T805 457T782 332T765 230T758 168Q758 116 766 83T790 26Q761 7 736 -4T683 -20T616 -25Q538 -25 486 12T401 114T354 263T333 441H317Q305 385 295 329T278 229T271 164Q271 113 278 78T301
19Q241 -26 177 -26ZM355 766Q327 766 309 779T291 829Q291 875 318 934Q339 924 360 919T401 914Q444 914 482 929T558 958T635 973Q663 973 681 960T699 910Q699 864 672 805Q651 816 630 820T589 825Q547 825 508 811T432 781T355 766Z" />
<glyph unicode="&#xd2;" glyph-name="Ograve" horiz-adv-x="774" d="M371 -25Q263 -25 186 17T67 134T25 306Q25 432 72 526T208 672T421 725Q481 725 506 701T531 629Q531 622 531 616T529 602Q567 632 611 632Q648 632 682 610T737 540T759 421Q759 314 727
231T639 91T514 5T371 -25ZM379 121Q428 121 468 159T524 259Q489 302 475 345T460 432Q460 477 471 512T500 572Q482 575 464 575Q408 575 367 551T298 488T257 402T243 310Q243 259 258 216T304 147T379 121ZM572 753Q540 753 510 763T451 786T390 810T325 820Q320
820 314 820T302 818Q297 836 295 855T292 891Q292 945 309 965T348 986Q381 986 414 966T481 917T552 864T628 829Q625 787 609 770T572 753Z" />
<glyph unicode="&#xd3;" glyph-name="Oacute" horiz-adv-x="774" d="M371 -25Q263 -25 186 17T67 134T25 306Q25 432 72 526T208 672T421 725Q481 725 506 701T531 629Q531 622 531 616T529 602Q567 632 611 632Q648 632 682 610T737 540T759 421Q759 314 727
231T639 91T514 5T371 -25ZM379 121Q428 121 468 159T524 259Q489 302 475 345T460 432Q460 477 471 512T500 572Q482 575 464 575Q408 575 367 551T298 488T257 402T243 310Q243 259 258 216T304 147T379 121ZM348 753Q328 753 312 770T292 829Q331 838 367 863T438
917T506 965T572 986Q595 986 611 966T628 891Q628 874 626 855T618 818Q613 819 607 819T595 820Q561 820 530 810T470 787T410 763T348 753Z" />
<glyph unicode="&#xd4;" glyph-name="Ocircumflex" horiz-adv-x="774" d="M371 -25Q263 -25 186 17T67 134T25 306Q25 432 72 526T208 672T421 725Q481 725 506 701T531 629Q531 622 531 616T529 602Q567 632 611 632Q648 632 682 610T737 540T759 421Q759 314
727 231T639 91T514 5T371 -25ZM379 121Q428 121 468 159T524 259Q489 302 475 345T460 432Q460 477 471 512T500 572Q482 575 464 575Q408 575 367 551T298 488T257 402T243 310Q243 259 258 216T304 147T379 121ZM309 744Q278 744 265 749T252 763Q252 778 266
802T300 853T342 904T376 943Q388 950 415 955T477 964T546 968Q593 968 628 960T663 931Q663 896 658 869T653 808Q653 791 657 777T667 752Q650 748 633 746T596 744Q537 744 519 767T500 826Q500 844 502 864T507 906H481Q455 874 438 833T421 756Q390 749 362
747T309 744Z" />
<glyph unicode="&#xd5;" glyph-name="Otilde" horiz-adv-x="774" d="M371 -25Q263 -25 186 17T67 134T25 306Q25 432 72 526T208 672T421 725Q481 725 506 701T531 629Q531 622 531 616T529 602Q567 632 611 632Q648 632 682 610T737 540T759 421Q759 314 727
231T639 91T514 5T371 -25ZM379 121Q428 121 468 159T524 259Q489 302 475 345T460 432Q460 477 471 512T500 572Q482 575 464 575Q408 575 367 551T298 488T257 402T243 310Q243 259 258 216T304 147T379 121ZM320 766Q292 766 274 779T256 829Q256 875 283 934Q304
924 325 919T366 914Q409 914 447 929T523 958T600 973Q628 973 646 960T664 910Q664 864 637 805Q616 816 595 820T554 825Q512 825 473 811T397 781T320 766Z" />
<glyph unicode="&#xd6;" glyph-name="Odieresis" horiz-adv-x="774" d="M371 -25Q263 -25 186 17T67 134T25 306Q25 432 72 526T208 672T421 725Q481 725 506 701T531 629Q531 622 531 616T529 602Q567 632 611 632Q648 632 682 610T737 540T759 421Q759 314 727
231T639 91T514 5T371 -25ZM379 121Q428 121 468 159T524 259Q489 302 475 345T460 432Q460 477 471 512T500 572Q482 575 464 575Q408 575 367 551T298 488T257 402T243 310Q243 259 258 216T304 147T379 121ZM595 766Q555 766 528 786T501 841Q501 878 521 902T570
937T626 949Q667 949 693 929T720 873Q720 841 703 817T657 779T595 766ZM294 766Q254 766 227 786T200 841Q200 878 220 902T269 937T325 949Q366 949 392 929T419 873Q419 841 402 817T356 779T294 766Z" />
<glyph unicode="&#xd7;" glyph-name="multiply" horiz-adv-x="733" d="M189 106Q168 106 149 127T118 178T102 235Q143 245 184 281T269 364Q225 411 192 454T159 535Q159 576 192 605T278 643Q283 598 308 557T368 478Q401 515 434 546T501 597T565 617Q597 617
620 591T649 521Q605 514 560 474T470 380Q502 351 530 321T576 262T594 206Q594 182 572 161T516 125T452 107Q447 143 425 179T372 253Q341 214 310 181T248 127T189 106Z" />
<glyph unicode="&#xd8;" glyph-name="Oslash" horiz-adv-x="774" d="M267 -111Q246 -111 224 -105T177 -79Q190 -67 202 -47T225 0Q130 35 78 116T25 306Q25 430 71 523T205 669T413 724Q424 768 443 789T498 810Q532 810 561 798T614 763Q595 734 577 693T545
613Q576 632 611 632Q648 632 682 610T737 540T759 421Q759 314 727 231T639 91T514 5T371 -25Q356 -65 331 -88T267 -111ZM275 157Q304 266 329 368T374 559Q329 537 298 493T251 395T235 289Q235 249 244 215T275 157ZM414 130Q464 148 498 192T551 294T569 408Q569
450 559 486T525 545Q503 469 485 402T451 268T414 130Z" />
<glyph unicode="&#xd9;" glyph-name="Ugrave" horiz-adv-x="827" d="M621 -26Q573 -26 537 2T501 94Q501 100 501 106T502 120L492 123Q393 -25 226 -25Q142 -25 104 20T65 145Q65 183 74 248T97 392T124 546L71 653Q126 685 174 705T277 725Q324 725 339 698T354
632Q354 619 349 588T337 513T321 424T305 334T292 257T287 209Q287 172 299 151T341 130Q365 130 396 151T460 214T515 321Q494 383 494 447Q494 520 518 583T592 685T714 725Q737 725 761 721T807 706Q798 652 786 587T762 456T739 329T722 226T715 164Q715 113
722 78T745 19Q685 -26 621 -26ZM610 753Q578 753 548 763T489 786T428 810T363 820Q358 820 352 820T340 818Q335 836 333 855T330 891Q330 945 347 965T386 986Q419 986 452 966T519 917T590 864T666 829Q663 787 647 770T610 753Z" />
<glyph unicode="&#xda;" glyph-name="Uacute" horiz-adv-x="827" d="M621 -26Q573 -26 537 2T501 94Q501 100 501 106T502 120L492 123Q393 -25 226 -25Q142 -25 104 20T65 145Q65 183 74 248T97 392T124 546L71 653Q126 685 174 705T277 725Q324 725 339 698T354
632Q354 619 349 588T337 513T321 424T305 334T292 257T287 209Q287 172 299 151T341 130Q365 130 396 151T460 214T515 321Q494 383 494 447Q494 520 518 583T592 685T714 725Q737 725 761 721T807 706Q798 652 786 587T762 456T739 329T722 226T715 164Q715 113
722 78T745 19Q685 -26 621 -26ZM386 753Q366 753 350 770T330 829Q369 838 405 863T476 917T544 965T610 986Q633 986 649 966T666 891Q666 874 664 855T656 818Q651 819 645 819T633 820Q599 820 568 810T508 787T448 763T386 753Z" />
<glyph unicode="&#xdb;" glyph-name="Ucircumflex" horiz-adv-x="827" d="M621 -26Q573 -26 537 2T501 94Q501 100 501 106T502 120L492 123Q393 -25 226 -25Q142 -25 104 20T65 145Q65 183 74 248T97 392T124 546L71 653Q126 685 174 705T277 725Q324 725 339
698T354 632Q354 619 349 588T337 513T321 424T305 334T292 257T287 209Q287 172 299 151T341 130Q365 130 396 151T460 214T515 321Q494 383 494 447Q494 520 518 583T592 685T714 725Q737 725 761 721T807 706Q798 652 786 587T762 456T739 329T722 226T715 164Q715
113 722 78T745 19Q685 -26 621 -26ZM347 744Q316 744 303 749T290 763Q290 778 304 802T338 853T380 904T414 943Q426 950 453 955T515 964T584 968Q631 968 666 960T701 931Q701 896 696 869T691 808Q691 791 695 777T705 752Q688 748 671 746T634 744Q575 744
557 767T538 826Q538 844 540 864T545 906H519Q493 874 476 833T459 756Q428 749 400 747T347 744Z" />
<glyph unicode="&#xdc;" glyph-name="Udieresis" horiz-adv-x="827" d="M621 -26Q573 -26 537 2T501 94Q501 100 501 106T502 120L492 123Q393 -25 226 -25Q142 -25 104 20T65 145Q65 183 74 248T97 392T124 546L71 653Q126 685 174 705T277 725Q324 725 339 698T354
632Q354 619 349 588T337 513T321 424T305 334T292 257T287 209Q287 172 299 151T341 130Q365 130 396 151T460 214T515 321Q494 383 494 447Q494 520 518 583T592 685T714 725Q737 725 761 721T807 706Q798 652 786 587T762 456T739 329T722 226T715 164Q715 113
722 78T745 19Q685 -26 621 -26ZM633 766Q593 766 566 786T539 841Q539 878 559 902T608 937T664 949Q705 949 731 929T758 873Q758 841 741 817T695 779T633 766ZM332 766Q292 766 265 786T238 841Q238 878 258 902T307 937T363 949Q404 949 430 929T457 873Q457
841 440 817T394 779T332 766Z" />
<glyph unicode="&#xdd;" glyph-name="Yacute" horiz-adv-x="672" d="M154 -177Q130 -177 102 -172T49 -154T8 -118T-8 -58Q-8 -32 4 1T41 69Q64 36 101 19T178 2Q224 2 264 25T322 97Q291 90 273 87T232 84Q183 84 155 105T122 180Q119 228 117 284T110 398T91
510T54 607T-10 678Q30 702 60 713T125 725Q180 725 216 700T275 631T309 534T326 422T332 309T336 209H350Q368 252 386 306T420 416T444 524T454 613Q454 635 450 650T439 678Q514 725 578 725Q633 725 657 693T682 609Q682 579 670 528T637 411T589 277T531
142Q481 36 429 -35T312 -141T154 -177ZM254 753Q234 753 218 770T198 829Q237 838 273 863T344 917T412 965T478 986Q501 986 517 966T534 891Q534 874 532 855T524 818Q519 819 513 819T501 820Q467 820 436 810T376 787T316 763T254 753Z" />
<glyph unicode="&#xde;" glyph-name="Thorn" horiz-adv-x="699" d="M182 -26Q115 -26 88 12T60 129Q60 179 76 279T123 546L70 653Q117 683 170 704T276 726Q323 726 338 698T353 632Q353 620 350 600Q388 615 427 622T496 629Q562 629 607 598T675 515T699 405Q699
353 679 301T618 205T514 136T365 110Q343 110 321 112T277 120Q283 53 306 19Q246 -26 182 -26ZM306 235Q363 235 400 259T456 319T475 391Q475 435 450 468T375 502Q364 502 352 500T329 495Q325 464 318 421T302 329T283 236Q288 235 293 235T306 235Z" />
<glyph unicode="&#xdf;" glyph-name="germandbls" horiz-adv-x="725" d="M165 -210Q122 -210 97 -190T61 -136T50 -62Q50 -41 58 16T81 152T112 321Q57 314 4 300Q2 311 1 321T0 338Q0 384 19 406T69 437T135 447L153 545Q161 589 180 630T233 703T321 755T451
775Q520 775 569 747T644 675T670 580Q670 537 648 495T579 421Q630 400 659 365T702 288T715 201Q715 158 697 116T646 40T569 -14T473 -35Q422 -35 390 -17T342 31T326 93Q326 123 338 152T375 201Q388 193 411 189T448 185Q496 185 518 209T541 270Q541 314
503 354Q485 338 462 338Q439 338 422 355T404 398Q404 424 421 441T462 459Q477 459 490 451Q506 473 514 498T522 547Q522 579 507 602T457 625Q422 625 399 601T361 535T337 442Q334 426 325 381T305 276T282 150T264 27T257 -70Q257 -100 264 -123T288 -161Q229
-210 165 -210Z" />
<glyph unicode="&#xe0;" glyph-name="agrave" horiz-adv-x="736" d="M227 -25Q171 -25 129 4T63 86T40 210Q40 293 69 364T151 488T275 570T429 600Q453 600 470 599T508 592Q514 564 515 543Q538 558 566 566T618 575Q691 575 691 496Q691 470 682 426T660 328T638
219T628 115Q628 50 659 24Q603 -25 540 -25Q482 -25 455 11T427 123L417 128Q390 56 340 16T227 -25ZM306 157Q345 157 382 185T444 262Q448 301 452 335T464 409T483 501Q432 501 387 482T305 428T249 351T228 259Q228 210 248 184T306 157ZM550 653Q518 653
488 663T429 686T368 710T303 720Q298 720 292 720T280 718Q275 736 273 755T270 791Q270 845 287 865T326 886Q359 886 392 866T459 817T530 764T606 729Q603 687 587 670T550 653Z" />
<glyph unicode="&#xe1;" glyph-name="aacute" horiz-adv-x="736" d="M227 -25Q171 -25 129 4T63 86T40 210Q40 293 69 364T151 488T275 570T429 600Q453 600 470 599T508 592Q514 564 515 543Q538 558 566 566T618 575Q691 575 691 496Q691 470 682 426T660 328T638
219T628 115Q628 50 659 24Q603 -25 540 -25Q482 -25 455 11T427 123L417 128Q390 56 340 16T227 -25ZM306 157Q345 157 382 185T444 262Q448 301 452 335T464 409T483 501Q432 501 387 482T305 428T249 351T228 259Q228 210 248 184T306 157ZM326 653Q306 653
290 670T270 729Q309 738 345 763T416 817T484 865T550 886Q573 886 589 866T606 791Q606 774 604 755T596 718Q591 719 585 719T573 720Q539 720 508 710T448 687T388 663T326 653Z" />
<glyph unicode="&#xe2;" glyph-name="acircumflex" horiz-adv-x="736" d="M227 -25Q171 -25 129 4T63 86T40 210Q40 293 69 364T151 488T275 570T429 600Q453 600 470 599T508 592Q514 564 515 543Q538 558 566 566T618 575Q691 575 691 496Q691 470 682 426T660
328T638 219T628 115Q628 50 659 24Q603 -25 540 -25Q482 -25 455 11T427 123L417 128Q390 56 340 16T227 -25ZM306 157Q345 157 382 185T444 262Q448 301 452 335T464 409T483 501Q432 501 387 482T305 428T249 351T228 259Q228 210 248 184T306 157ZM287 644Q256
644 243 649T230 663Q230 678 244 702T278 753T320 804T354 843Q366 850 393 855T455 864T524 868Q571 868 606 860T641 831Q641 796 636 769T631 708Q631 691 635 677T645 652Q628 648 611 646T574 644Q515 644 497 667T478 726Q478 744 480 764T485 806H459Q433
774 416 733T399 656Q368 649 340 647T287 644Z" />
<glyph unicode="&#xe3;" glyph-name="atilde" horiz-adv-x="736" d="M227 -25Q171 -25 129 4T63 86T40 210Q40 293 69 364T151 488T275 570T429 600Q453 600 470 599T508 592Q514 564 515 543Q538 558 566 566T618 575Q691 575 691 496Q691 470 682 426T660 328T638
219T628 115Q628 50 659 24Q603 -25 540 -25Q482 -25 455 11T427 123L417 128Q390 56 340 16T227 -25ZM306 157Q345 157 382 185T444 262Q448 301 452 335T464 409T483 501Q432 501 387 482T305 428T249 351T228 259Q228 210 248 184T306 157ZM298 666Q270 666
252 679T234 729Q234 775 261 834Q282 824 303 819T344 814Q387 814 425 829T501 858T578 873Q606 873 624 860T642 810Q642 764 615 705Q594 716 573 720T532 725Q490 725 451 711T375 681T298 666Z" />
<glyph unicode="&#xe4;" glyph-name="adieresis" horiz-adv-x="736" d="M227 -25Q171 -25 129 4T63 86T40 210Q40 293 69 364T151 488T275 570T429 600Q453 600 470 599T508 592Q514 564 515 543Q538 558 566 566T618 575Q691 575 691 496Q691 470 682 426T660
328T638 219T628 115Q628 50 659 24Q603 -25 540 -25Q482 -25 455 11T427 123L417 128Q390 56 340 16T227 -25ZM306 157Q345 157 382 185T444 262Q448 301 452 335T464 409T483 501Q432 501 387 482T305 428T249 351T228 259Q228 210 248 184T306 157ZM573 666Q533
666 506 686T479 741Q479 778 499 802T548 837T604 849Q645 849 671 829T698 773Q698 741 681 717T635 679T573 666ZM272 666Q232 666 205 686T178 741Q178 778 198 802T247 837T303 849Q344 849 370 829T397 773Q397 741 380 717T334 679T272 666Z" />
<glyph unicode="&#xe5;" glyph-name="aring" horiz-adv-x="736" d="M227 -25Q171 -25 129 4T63 86T40 210Q40 293 69 364T151 488T275 570T429 600Q453 600 470 599T508 592Q514 564 515 543Q538 558 566 566T618 575Q691 575 691 496Q691 470 682 426T660 328T638
219T628 115Q628 50 659 24Q603 -25 540 -25Q482 -25 455 11T427 123L417 128Q390 56 340 16T227 -25ZM306 157Q345 157 382 185T444 262Q448 301 452 335T464 409T483 501Q432 501 387 482T305 428T249 351T228 259Q228 210 248 184T306 157ZM419 632Q343 632
301 667T259 757Q259 806 284 842T353 898T456 919Q533 919 574 885T616 794Q616 745 591 709T522 652T419 632ZM421 697Q450 697 471 727T492 795Q492 818 481 835T432 852Q425 852 420 852T406 850Q388 830 380 806T371 761Q371 735 384 716T421 697Z" />
<glyph unicode="&#xe6;" glyph-name="ae" horiz-adv-x="989" d="M227 -25Q171 -25 129 4T63 86T40 210Q40 293 69 364T151 488T275 570T429 600Q453 600 470 599T508 592Q511 577 513 554T517 520Q575 564 636 582T765 600Q862 600 908 557T954 449Q954 393 918
344T800 264T584 232Q587 168 613 132T680 95Q700 95 722 104T759 138T774 206Q842 206 881 191T920 137Q920 101 889 64T801 1T663 -25Q572 -25 511 9T422 113H411Q383 48 335 12T227 -25ZM593 312Q666 318 710 339T774 387T794 437Q794 457 782 470T748 483Q712
483 681 458T628 394T593 312ZM294 157Q327 157 358 185T410 262Q415 304 423 352T449 480Q389 480 339 452T258 373T228 259Q228 210 245 184T294 157Z" />
<glyph unicode="&#xe7;" glyph-name="ccedilla" horiz-adv-x="638" d="M328 -25Q241 -25 178 8T80 101T45 238Q45 319 74 385T156 500T279 574T432 600Q521 600 569 567T618 483Q618 435 584 410T505 385Q475 385 442 405T389 467Q345 449 315 412T269 329T253
239Q253 180 278 138T352 95Q386 95 414 121T442 206Q510 206 549 191T588 137Q588 101 556 64T466 1T328 -25ZM445 -287Q389 -287 356 -270T309 -229T295 -180Q295 -147 312 -120T359 -77T429 -60Q416 -71 409 -90T401 -130Q401 -160 416 -174T452 -188Q480 -188
506 -164T532 -97Q532 -65 511 -34T443 17V28H481Q541 28 579 9T636 -43T655 -111Q655 -153 631 -193T560 -260T445 -287Z" />
<glyph unicode="&#xe8;" glyph-name="egrave" horiz-adv-x="657" d="M331 -25Q238 -25 174 8T78 100T45 238Q45 319 74 385T157 500T280 574T433 600Q530 600 576 557T622 449Q622 393 586 344T468 264T252 232Q255 168 281 132T348 95Q368 95 390 104T427 138T442
206Q510 206 549 191T588 137Q588 101 557 64T469 1T331 -25ZM261 312Q334 318 378 339T442 387T462 437Q462 457 450 470T416 483Q380 483 349 458T296 394T261 312ZM511 653Q479 653 449 663T390 686T329 710T264 720Q259 720 253 720T241 718Q236 736 234 755T231
791Q231 845 248 865T287 886Q320 886 353 866T420 817T491 764T567 729Q564 687 548 670T511 653Z" />
<glyph unicode="&#xe9;" glyph-name="eacute" horiz-adv-x="657" d="M331 -25Q238 -25 174 8T78 100T45 238Q45 319 74 385T157 500T280 574T433 600Q530 600 576 557T622 449Q622 393 586 344T468 264T252 232Q255 168 281 132T348 95Q368 95 390 104T427 138T442
206Q510 206 549 191T588 137Q588 101 557 64T469 1T331 -25ZM261 312Q334 318 378 339T442 387T462 437Q462 457 450 470T416 483Q380 483 349 458T296 394T261 312ZM287 653Q267 653 251 670T231 729Q270 738 306 763T377 817T445 865T511 886Q534 886 550 866T567
791Q567 774 565 755T557 718Q552 719 546 719T534 720Q500 720 469 710T409 687T349 663T287 653Z" />
<glyph unicode="&#xea;" glyph-name="ecircumflex" horiz-adv-x="657" d="M331 -25Q238 -25 174 8T78 100T45 238Q45 319 74 385T157 500T280 574T433 600Q530 600 576 557T622 449Q622 393 586 344T468 264T252 232Q255 168 281 132T348 95Q368 95 390 104T427
138T442 206Q510 206 549 191T588 137Q588 101 557 64T469 1T331 -25ZM261 312Q334 318 378 339T442 387T462 437Q462 457 450 470T416 483Q380 483 349 458T296 394T261 312ZM248 644Q217 644 204 649T191 663Q191 678 205 702T239 753T281 804T315 843Q327 850
354 855T416 864T485 868Q532 868 567 860T602 831Q602 796 597 769T592 708Q592 691 596 677T606 652Q589 648 572 646T535 644Q476 644 458 667T439 726Q439 744 441 764T446 806H420Q394 774 377 733T360 656Q329 649 301 647T248 644Z" />
<glyph unicode="&#xeb;" glyph-name="edieresis" horiz-adv-x="657" d="M331 -25Q238 -25 174 8T78 100T45 238Q45 319 74 385T157 500T280 574T433 600Q530 600 576 557T622 449Q622 393 586 344T468 264T252 232Q255 168 281 132T348 95Q368 95 390 104T427
138T442 206Q510 206 549 191T588 137Q588 101 557 64T469 1T331 -25ZM261 312Q334 318 378 339T442 387T462 437Q462 457 450 470T416 483Q380 483 349 458T296 394T261 312ZM534 666Q494 666 467 686T440 741Q440 778 460 802T509 837T565 849Q606 849 632 829T659
773Q659 741 642 717T596 679T534 666ZM233 666Q193 666 166 686T139 741Q139 778 159 802T208 837T264 849Q305 849 331 829T358 773Q358 741 341 717T295 679T233 666Z" />
<glyph unicode="&#xec;" glyph-name="igrave" horiz-adv-x="388" d="M183 -25Q119 -25 92 7T65 99Q65 121 71 160T87 248T108 347T129 441L73 525Q126 557 174 578T270 600Q312 600 328 582T345 526Q345 511 338 477T319 397T297 301T279 202T271 115Q271 85 278
62T302 24Q246 -25 183 -25ZM351 653Q319 653 289 663T230 686T169 710T104 720Q99 720 93 720T81 718Q76 736 74 755T71 791Q71 845 88 865T127 886Q160 886 193 866T260 817T331 764T407 729Q404 687 388 670T351 653Z" />
<glyph unicode="&#xed;" glyph-name="iacute" horiz-adv-x="388" d="M183 -25Q119 -25 92 7T65 99Q65 121 71 160T87 248T108 347T129 441L73 525Q126 557 174 578T270 600Q312 600 328 582T345 526Q345 511 338 477T319 397T297 301T279 202T271 115Q271 85 278
62T302 24Q246 -25 183 -25ZM127 653Q107 653 91 670T71 729Q110 738 146 763T217 817T285 865T351 886Q374 886 390 866T407 791Q407 774 405 755T397 718Q392 719 386 719T374 720Q340 720 309 710T249 687T189 663T127 653Z" />
<glyph unicode="&#xee;" glyph-name="icircumflex" horiz-adv-x="388" d="M183 -25Q119 -25 92 7T65 99Q65 121 71 160T87 248T108 347T129 441L73 525Q126 557 174 578T270 600Q312 600 328 582T345 526Q345 511 338 477T319 397T297 301T279 202T271 115Q271
85 278 62T302 24Q246 -25 183 -25ZM344 644Q313 644 300 649T287 663Q287 678 301 702T335 753T377 804T411 843Q423 850 450 855T512 864T581 868Q628 868 663 860T698 831Q698 796 693 769T688 708Q688 691 692 677T702 652Q685 648 668 646T631 644Q572 644
554 667T535 726Q535 744 537 764T542 806H516Q490 774 473 733T456 656Q425 649 397 647T344 644Z" />
<glyph unicode="&#xef;" glyph-name="idieresis" horiz-adv-x="388" d="M183 -25Q119 -25 92 7T65 99Q65 121 71 160T87 248T108 347T129 441L73 525Q126 557 174 578T270 600Q312 600 328 582T345 526Q345 511 338 477T319 397T297 301T279 202T271 115Q271 85
278 62T302 24Q246 -25 183 -25ZM630 666Q590 666 563 686T536 741Q536 778 556 802T605 837T661 849Q702 849 728 829T755 773Q755 741 738 717T692 679T630 666ZM329 666Q289 666 262 686T235 741Q235 778 255 802T304 837T360 849Q401 849 427 829T454 773Q454
741 437 717T391 679T329 666Z" />
<glyph unicode="&#xf0;" glyph-name="eth" horiz-adv-x="674" d="M281 -25Q196 -25 141 10T58 103T30 225Q30 282 50 337T111 439T210 512T346 540Q363 540 379 538T411 533Q388 586 345 624T233 703Q260 728 304 748T393 769Q434 769 465 747T520 686Q546 703
571 715T623 727Q647 727 665 713T684 662Q684 647 679 629T663 588Q653 590 647 590T636 590Q620 590 602 587T567 577Q587 510 595 439T604 311Q604 227 576 164T501 59T397 -4T281 -25ZM306 111Q338 111 369 133T422 198T444 304Q444 358 421 384T365 410Q334
410 302 388T247 323T225 220Q225 164 249 138T306 111Z" />
<glyph unicode="&#xf1;" glyph-name="ntilde" horiz-adv-x="758" d="M172 -25Q109 -25 82 7T55 99Q55 120 61 163T76 260T97 368T118 464L66 544Q107 567 154 583T251 600Q293 600 313 580T333 524Q333 498 326 470T310 422L320 417Q379 518 449 559T592 600Q653
600 683 571T713 479Q713 425 699 365T669 241T654 115Q654 53 675 24Q622 -25 565 -25Q502 -25 475 7T448 99Q448 132 457 172T478 255T499 334T508 398Q508 419 501 431T474 443Q447 443 411 419T341 352T284 248T261 115Q261 53 282 24Q229 -25 172 -25ZM309
666Q281 666 263 679T245 729Q245 775 272 834Q293 824 314 819T355 814Q398 814 436 829T512 858T589 873Q617 873 635 860T653 810Q653 764 626 705Q605 716 584 720T543 725Q501 725 462 711T386 681T309 666Z" />
<glyph unicode="&#xf2;" glyph-name="ograve" horiz-adv-x="715" d="M328 -25Q240 -25 177 8T79 101T45 238Q45 346 92 427T223 554T412 600Q429 600 446 599T484 592Q489 578 492 559T496 517Q505 520 515 522T538 524Q573 524 604 506T655 448T675 349Q675 260
646 191T566 73T455 0T328 -25ZM359 98Q382 98 407 109T456 149T496 231Q453 258 434 297T415 385Q415 399 420 421T437 466T472 504Q403 490 359 462T291 398T257 323T247 249Q247 209 260 175T298 119T359 98ZM540 653Q508 653 478 663T419 686T358 710T293 720Q288
720 282 720T270 718Q265 736 263 755T260 791Q260 845 277 865T316 886Q349 886 382 866T449 817T520 764T596 729Q593 687 577 670T540 653Z" />
<glyph unicode="&#xf3;" glyph-name="oacute" horiz-adv-x="715" d="M328 -25Q240 -25 177 8T79 101T45 238Q45 346 92 427T223 554T412 600Q429 600 446 599T484 592Q489 578 492 559T496 517Q505 520 515 522T538 524Q573 524 604 506T655 448T675 349Q675 260
646 191T566 73T455 0T328 -25ZM359 98Q382 98 407 109T456 149T496 231Q453 258 434 297T415 385Q415 399 420 421T437 466T472 504Q403 490 359 462T291 398T257 323T247 249Q247 209 260 175T298 119T359 98ZM316 653Q296 653 280 670T260 729Q299 738 335 763T406
817T474 865T540 886Q563 886 579 866T596 791Q596 774 594 755T586 718Q581 719 575 719T563 720Q529 720 498 710T438 687T378 663T316 653Z" />
<glyph unicode="&#xf4;" glyph-name="ocircumflex" horiz-adv-x="715" d="M328 -25Q240 -25 177 8T79 101T45 238Q45 346 92 427T223 554T412 600Q429 600 446 599T484 592Q489 578 492 559T496 517Q505 520 515 522T538 524Q573 524 604 506T655 448T675 349Q675
260 646 191T566 73T455 0T328 -25ZM359 98Q382 98 407 109T456 149T496 231Q453 258 434 297T415 385Q415 399 420 421T437 466T472 504Q403 490 359 462T291 398T257 323T247 249Q247 209 260 175T298 119T359 98ZM277 644Q246 644 233 649T220 663Q220 678 234
702T268 753T310 804T344 843Q356 850 383 855T445 864T514 868Q561 868 596 860T631 831Q631 796 626 769T621 708Q621 691 625 677T635 652Q618 648 601 646T564 644Q505 644 487 667T468 726Q468 744 470 764T475 806H449Q423 774 406 733T389 656Q358 649 330
647T277 644Z" />
<glyph unicode="&#xf5;" glyph-name="otilde" horiz-adv-x="715" d="M328 -25Q240 -25 177 8T79 101T45 238Q45 346 92 427T223 554T412 600Q429 600 446 599T484 592Q489 578 492 559T496 517Q505 520 515 522T538 524Q573 524 604 506T655 448T675 349Q675 260
646 191T566 73T455 0T328 -25ZM359 98Q382 98 407 109T456 149T496 231Q453 258 434 297T415 385Q415 399 420 421T437 466T472 504Q403 490 359 462T291 398T257 323T247 249Q247 209 260 175T298 119T359 98ZM288 666Q260 666 242 679T224 729Q224 775 251 834Q272
824 293 819T334 814Q377 814 415 829T491 858T568 873Q596 873 614 860T632 810Q632 764 605 705Q584 716 563 720T522 725Q480 725 441 711T365 681T288 666Z" />
<glyph unicode="&#xf6;" glyph-name="odieresis" horiz-adv-x="715" d="M328 -25Q240 -25 177 8T79 101T45 238Q45 346 92 427T223 554T412 600Q429 600 446 599T484 592Q489 578 492 559T496 517Q505 520 515 522T538 524Q573 524 604 506T655 448T675 349Q675
260 646 191T566 73T455 0T328 -25ZM359 98Q382 98 407 109T456 149T496 231Q453 258 434 297T415 385Q415 399 420 421T437 466T472 504Q403 490 359 462T291 398T257 323T247 249Q247 209 260 175T298 119T359 98ZM563 666Q523 666 496 686T469 741Q469 778 489
802T538 837T594 849Q635 849 661 829T688 773Q688 741 671 717T625 679T563 666ZM262 666Q222 666 195 686T168 741Q168 778 188 802T237 837T293 849Q334 849 360 829T387 773Q387 741 370 717T324 679T262 666Z" />
<glyph unicode="&#xf7;" glyph-name="divide" horiz-adv-x="733" d="M326 11Q289 11 265 35T240 95Q240 122 253 145T290 182T341 197Q377 197 401 173T426 113Q426 86 413 63T377 25T326 11ZM373 507Q336 507 312 531T287 591Q287 618 300 641T337 678T388 693Q424
693 448 669T473 609Q473 582 460 559T424 521T373 507ZM139 283Q123 283 112 295T100 341Q100 374 107 404T131 457Q160 448 196 444T259 440Q338 440 410 443T554 446Q592 446 612 429T633 370Q633 351 629 331T615 291Q595 299 567 303T505 307Q411 307 321
295T139 283Z" />
<glyph unicode="&#xf8;" glyph-name="oslash" horiz-adv-x="715" d="M258 -127Q239 -127 219 -121T177 -98Q191 -85 203 -63T226 -11Q140 14 93 79T45 238Q45 341 88 420T208 546T383 599L395 645Q401 670 417 686T466 702Q496 702 522 691T570 660Q552 633 536
594T507 520Q515 522 522 523T538 524Q573 524 604 506T655 448T675 349Q675 265 649 199T578 85T477 10T359 -23Q359 -24 359 -25T358 -29Q345 -75 322 -101T258 -127ZM269 130Q294 222 314 308T353 470Q315 451 289 414T250 331T236 241Q236 208 244 179T269
130ZM395 108Q436 125 464 162T506 248T521 343Q521 376 513 406T488 455Q461 360 440 279T395 108Z" />
<glyph unicode="&#xf9;" glyph-name="ugrave" horiz-adv-x="764" d="M223 -25Q161 -25 127 -4T79 54T65 137Q65 190 76 248T98 362T109 460Q109 522 88 551Q129 573 173 586T245 600Q286 600 304 584T323 529Q323 508 317 472T302 392T284 306T268 227T262 172Q262
135 281 116T329 97Q361 97 396 121T454 191Q458 213 464 246T479 316T495 388T509 447L449 527Q492 558 541 579T641 600Q686 600 705 584T725 529Q725 508 718 471T700 389T678 294T660 199T652 115Q652 85 659 62T683 24Q627 -25 564 -25Q500 -25 475 4T450
73L440 78Q407 29 348 2T223 -25ZM562 653Q530 653 500 663T441 686T380 710T315 720Q310 720 304 720T292 718Q287 736 285 755T282 791Q282 845 299 865T338 886Q371 886 404 866T471 817T542 764T618 729Q615 687 599 670T562 653Z" />
<glyph unicode="&#xfa;" glyph-name="uacute" horiz-adv-x="764" d="M223 -25Q161 -25 127 -4T79 54T65 137Q65 190 76 248T98 362T109 460Q109 522 88 551Q129 573 173 586T245 600Q286 600 304 584T323 529Q323 508 317 472T302 392T284 306T268 227T262 172Q262
135 281 116T329 97Q361 97 396 121T454 191Q458 213 464 246T479 316T495 388T509 447L449 527Q492 558 541 579T641 600Q686 600 705 584T725 529Q725 508 718 471T700 389T678 294T660 199T652 115Q652 85 659 62T683 24Q627 -25 564 -25Q500 -25 475 4T450
73L440 78Q407 29 348 2T223 -25ZM338 653Q318 653 302 670T282 729Q321 738 357 763T428 817T496 865T562 886Q585 886 601 866T618 791Q618 774 616 755T608 718Q603 719 597 719T585 720Q551 720 520 710T460 687T400 663T338 653Z" />
<glyph unicode="&#xfb;" glyph-name="ucircumflex" horiz-adv-x="764" d="M223 -25Q161 -25 127 -4T79 54T65 137Q65 190 76 248T98 362T109 460Q109 522 88 551Q129 573 173 586T245 600Q286 600 304 584T323 529Q323 508 317 472T302 392T284 306T268 227T262
172Q262 135 281 116T329 97Q361 97 396 121T454 191Q458 213 464 246T479 316T495 388T509 447L449 527Q492 558 541 579T641 600Q686 600 705 584T725 529Q725 508 718 471T700 389T678 294T660 199T652 115Q652 85 659 62T683 24Q627 -25 564 -25Q500 -25 475
4T450 73L440 78Q407 29 348 2T223 -25ZM299 644Q268 644 255 649T242 663Q242 678 256 702T290 753T332 804T366 843Q378 850 405 855T467 864T536 868Q583 868 618 860T653 831Q653 796 648 769T643 708Q643 691 647 677T657 652Q640 648 623 646T586 644Q527
644 509 667T490 726Q490 744 492 764T497 806H471Q445 774 428 733T411 656Q380 649 352 647T299 644Z" />
<glyph unicode="&#xfc;" glyph-name="udieresis" horiz-adv-x="764" d="M223 -25Q161 -25 127 -4T79 54T65 137Q65 190 76 248T98 362T109 460Q109 522 88 551Q129 573 173 586T245 600Q286 600 304 584T323 529Q323 508 317 472T302 392T284 306T268 227T262
172Q262 135 281 116T329 97Q361 97 396 121T454 191Q458 213 464 246T479 316T495 388T509 447L449 527Q492 558 541 579T641 600Q686 600 705 584T725 529Q725 508 718 471T700 389T678 294T660 199T652 115Q652 85 659 62T683 24Q627 -25 564 -25Q500 -25 475
4T450 73L440 78Q407 29 348 2T223 -25ZM585 666Q545 666 518 686T491 741Q491 778 511 802T560 837T616 849Q657 849 683 829T710 773Q710 741 693 717T647 679T585 666ZM284 666Q244 666 217 686T190 741Q190 778 210 802T259 837T315 849Q356 849 382 829T409
773Q409 741 392 717T346 679T284 666Z" />
<glyph unicode="&#xfd;" glyph-name="yacute" horiz-adv-x="695" d="M205 -235Q136 -235 89 -205T42 -121Q42 -99 51 -74T79 -21Q102 -54 134 -71T199 -89Q238 -89 274 -63T332 20Q307 11 285 7T243 3Q191 3 159 30T122 110Q115 176 113 247T105 376Q98 444 76
489T25 557Q49 579 75 589T143 600Q193 600 224 570T273 486T296 359T303 201Q303 189 303 164T300 114H358Q374 158 392 208T425 309T451 408T461 493Q461 515 457 530T446 557Q481 579 515 589T576 600Q622 600 643 569T665 488Q665 451 654 403T627 303T594
205T566 127Q518 -11 459 -90T335 -202T205 -235ZM260 653Q240 653 224 670T204 729Q243 738 279 763T350 817T418 865T484 886Q507 886 523 866T540 791Q540 774 538 755T530 718Q525 719 519 719T507 720Q473 720 442 710T382 687T322 663T260 653Z" />
<glyph unicode="&#xfe;" glyph-name="thorn" horiz-adv-x="756" d="M155 -199Q91 -199 68 -167T45 -75Q45 -43 50 10T65 129T86 266T110 404T132 528T149 622L93 702Q146 733 194 754T290 775Q332 775 348 759T365 704Q365 662 353 595T325 453L335 448Q364 520
419 560T545 601Q599 601 636 569T692 483T711 366Q711 304 688 240T616 121T495 34T322 1Q303 1 285 2T246 6Q243 -28 243 -59Q243 -89 250 -112T274 -150Q218 -199 155 -199ZM264 99Q329 101 378 123T462 182T513 262T530 346Q530 392 512 421T458 450Q421 450
389 428T331 354T287 215L264 99Z" />
<glyph unicode="&#xff;" glyph-name="ydieresis" horiz-adv-x="695" d="M205 -235Q136 -235 89 -205T42 -121Q42 -99 51 -74T79 -21Q102 -54 134 -71T199 -89Q238 -89 274 -63T332 20Q307 11 285 7T243 3Q191 3 159 30T122 110Q115 176 113 247T105 376Q98 444
76 489T25 557Q49 579 75 589T143 600Q193 600 224 570T273 486T296 359T303 201Q303 189 303 164T300 114H358Q374 158 392 208T425 309T451 408T461 493Q461 515 457 530T446 557Q481 579 515 589T576 600Q622 600 643 569T665 488Q665 451 654 403T627 303T594
205T566 127Q518 -11 459 -90T335 -202T205 -235ZM507 666Q467 666 440 686T413 741Q413 778 433 802T482 837T538 849Q579 849 605 829T632 773Q632 741 615 717T569 679T507 666ZM206 666Q166 666 139 686T112 741Q112 778 132 802T181 837T237 849Q278 849 304
829T331 773Q331 741 314 717T268 679T206 666Z" />
<glyph unicode="&#x2013;" glyph-name="endash" horiz-adv-x="937" d="M59 268Q41 268 28 280T15 326Q15 359 24 389T50 444Q89 433 140 429T229 425Q392 425 541 428T838 431Q878 431 900 414T922 355Q922 336 918 315T902 273Q875 282 831 287T736 292Q561 292
394 280T59 268Z" />
<glyph unicode="&#x2014;" glyph-name="emdash" horiz-adv-x="1112" d="M59 268Q41 268 28 280T15 326Q15 359 24 390T50 445Q82 438 122 434T202 427T270 425Q469 425 651 428T1013 431Q1053 431 1075 414T1097 355Q1097 336 1092 314T1076 272Q1045 282 993
287T878 292Q667 292 464 280T59 268Z" />
<glyph unicode="&#x2018;" glyph-name="quoteleft" horiz-adv-x="331" d="M163 412Q112 412 84 447T56 527Q56 596 87 655T176 757T313 816L328 772Q295 757 272 731T235 676T222 622L292 532Q291 500 273 473T226 429T163 412Z" />
<glyph unicode="&#x2019;" glyph-name="quoteright" horiz-adv-x="331" d="M68 396L53 440Q86 456 110 481T146 536T159 590L89 680Q91 712 108 739T155 783T218 800Q269 800 297 765T325 685Q325 617 294 557T205 455T68 396Z" />
<glyph unicode="&#x201a;" glyph-name="quotesinglbase" horiz-adv-x="333" d="M68 -157L53 -113Q86 -97 110 -72T146 -17T159 37L89 127Q91 159 108 186T155 230T218 247Q269 247 297 212T325 132Q325 64 294 4T205 -98T68 -157Z" />
<glyph unicode="&#x201c;" glyph-name="quotedblleft" horiz-adv-x="635" d="M467 412Q416 412 388 447T360 527Q360 596 391 655T480 757T617 816L632 772Q599 757 575 731T539 676T526 622L596 532Q595 500 577 473T530 429T467 412ZM163 412Q112 412 84 447T56
527Q56 596 87 655T176 757T313 816L328 772Q295 757 272 731T235 676T222 622L292 532Q291 500 273 473T226 429T163 412Z" />
<glyph unicode="&#x201d;" glyph-name="quotedblright" horiz-adv-x="635" d="M372 396L357 440Q390 456 413 481T450 536T463 590L393 680Q395 712 412 739T459 783T522 800Q573 800 601 765T629 685Q629 617 598 557T509 455T372 396ZM68 396L53 440Q86 456
110 481T146 536T159 590L89 680Q91 712 108 739T155 783T218 800Q269 800 297 765T325 685Q325 617 294 557T205 455T68 396Z" />
<glyph unicode="&#x201e;" glyph-name="quotedblbase" horiz-adv-x="635" d="M372 -157L357 -113Q390 -97 413 -72T450 -17T463 37L393 127Q395 159 412 186T459 230T522 247Q573 247 601 212T629 132Q629 64 598 4T509 -98T372 -157ZM68 -157L53 -113Q86 -97
110 -72T146 -17T159 37L89 127Q91 159 108 186T155 230T218 247Q269 247 297 212T325 132Q325 64 294 4T205 -98T68 -157Z" />
<glyph unicode="&#x2022;" glyph-name="bullet" horiz-adv-x="388" d="M182 175Q128 175 91 211T54 301Q54 341 74 376T129 432T205 453Q260 453 297 417T334 327Q334 287 314 253T259 197T182 175Z" />
<glyph unicode="&#x2039;" glyph-name="guilsinglleft" horiz-adv-x="382" d="M224 18Q205 18 182 31T135 66T93 111T62 154Q60 165 59 180T58 212Q58 257 65 311T84 415T115 497T154 533Q194 538 220 540T272 548T336 567Q336 491 324 445T290 376T241 344T184
336Q166 336 158 338T133 343L126 299Q163 269 201 256T283 243Q283 230 282 204T276 146T266 85T249 37T224 18Z" />
<glyph unicode="&#x203a;" glyph-name="guilsinglright" horiz-adv-x="382" d="M46 11Q46 87 58 133T92 202T141 234T198 242Q216 242 224 240T249 235L256 279Q219 309 181 322T99 335Q99 348 100 374T106 432T116 493T133 541T158 560Q177 560 200 547T247 512T289
467T320 424Q322 413 323 398T324 366Q324 321 317 267T298 163T267 81T228 45Q189 41 163 38T111 30T46 11Z" />
</font>
</defs>
</svg>
