<?xml version="1.0" standalone="no"?>
<!DOCTYPE svg PUBLIC "-//W3C//DTD SVG 1.1//EN" "http://www.w3.org/Graphics/SVG/1.1/DTD/svg11.dtd">
<svg xmlns="http://www.w3.org/2000/svg">
<defs >
<font id="MonteCarlo" horiz-adv-x="604" ><font-face
    font-family="MonteCarlo"
    units-per-em="1000"
    panose-1="0 0 0 0 0 0 0 0 0 0"
    ascent="1200"
    descent="-500"
    alphabetic="0" />
<glyph unicode=" " glyph-name="space" horiz-adv-x="169" />
<glyph unicode="!" glyph-name="exclam" horiz-adv-x="371" d="M188 133L412 560Q415 565 431 569T467 577T501 581Q499 578 483 553T439 488T381 400T319 306T262 220T221 158T205 134L188 133ZM142 -5Q131 -5 125 2T118 20Q118 35 129 45T155 55Q166 55 172
48T178 30Q178 15 167 5T142 -5Z" />
<glyph unicode="&quot;" glyph-name="quotedbl" horiz-adv-x="305" d="M274 346Q273 342 267 342Q263 342 260 345T257 354Q265 384 271 427T283 505Q286 519 302 519Q312 519 320 513T325 498Q320 483 311 455T292 397T274 346ZM171 346Q170 342 164 342Q160
342 157 345T154 354Q162 384 168 427T180 505Q183 519 199 519Q209 519 217 513T222 498Q217 483 208 455T189 397T171 346Z" />
<glyph unicode="#" glyph-name="numbersign" horiz-adv-x="606" d="M123 86L197 269H7L15 292H206L249 400H62L71 422H258L323 586H347L281 422H396L462 586H484L419 422H606L598 400H411L367 292H551L541 269H359L286 86H262L335 269H220L147 86H123ZM229 292H344L387
400H272L229 292Z" />
<glyph unicode="$" glyph-name="dollar" horiz-adv-x="423" d="M139 0L176 91Q142 96 112 114T82 167Q82 185 92 199T122 218Q128 220 132 220Q140 220 146 217T156 209Q152 207 150 204T145 199Q133 181 133 163Q133 144 146 129T182 107L284 352L259 378Q241
397 231 417T220 464Q220 492 232 519T269 565Q292 585 325 597T391 613L416 674H445L421 615Q454 614 477 601T501 562Q501 538 488 526T462 513Q453 513 450 520Q452 527 453 533T454 545Q454 567 442 579T414 597L331 399Q342 389 352 380T370 363Q393 340 403
314T414 262Q414 218 388 178T315 114T212 89H204L167 0H139ZM311 419L385 599Q357 597 330 582T286 543T269 493Q269 484 271 475T280 456Q292 438 311 419ZM210 103H213Q246 103 277 120T328 167T348 233Q348 256 339 278Q333 292 324 305T304 331L210 103Z"
/>
<glyph unicode="%" glyph-name="percent" horiz-adv-x="478" d="M4 69L375 513Q359 503 333 493Q315 488 300 488Q272 488 243 504Q245 489 242 474T234 444Q221 413 198 390T135 367Q105 367 93 385T81 427Q81 441 84 453Q94 500 122 526T185 552Q204 552 215
546T234 529Q241 522 248 520Q265 513 276 510T300 506Q334 506 358 521T400 555Q410 567 425 570T454 574T476 573L37 69H4ZM139 390Q164 390 179 412T201 453Q204 461 207 475T211 503Q211 515 207 523T188 532Q169 532 150 511T121 456Q118 447 117 439T116
424Q116 390 139 390ZM293 111Q264 111 252 129T240 171Q240 184 243 197Q253 244 280 270T343 296Q376 296 389 278T402 237Q402 224 399 212T391 188Q378 157 355 134T293 111ZM298 133Q323 133 337 155T359 197Q362 205 366 219T370 246Q370 258 365 267T346
276Q327 276 308 255T279 200Q274 180 274 168Q274 133 298 133Z" />
<glyph unicode="&amp;" glyph-name="ampersand" horiz-adv-x="985" d="M506 -52Q415 -52 348 -27T236 43T171 145T149 264Q149 341 181 418T275 559T428 661T637 700Q719 700 778 676T876 612T932 520T951 415Q951 360 933 307T879 212T794 144T680 118Q657 118
634 122T590 135Q527 106 463 106Q445 106 425 109Q364 118 337 154T310 236Q310 303 354 356Q377 383 409 404T476 442Q489 487 518 528T587 595T675 622Q698 622 714 613T731 582Q731 556 713 539T670 509T627 489Q604 479 580 469T532 446Q526 413 526 377Q526
367 526 358T528 339Q534 279 558 236T616 170Q672 201 706 251T741 363Q741 386 735 407T711 429Q702 429 702 433Q702 438 714 438Q745 438 760 414T776 363Q776 314 751 274T694 204Q662 175 634 159Q666 143 704 143Q775 143 823 178T895 269T919 388Q919 441
902 493T848 588T758 656T631 682Q530 682 451 645T316 545T231 408T202 259Q202 183 234 118T335 13T509 -27Q589 -27 657 -5T775 54T850 133Q851 137 855 137Q858 137 859 135T859 128Q838 86 793 45T677 -24T506 -52ZM537 468Q557 476 575 482T610 496Q621 501
641 511T681 535T706 566Q709 575 709 582Q709 598 697 604T670 611Q636 611 609 587T563 529T537 468ZM456 131Q464 130 472 130T491 129Q512 129 534 132T576 142Q539 168 506 217T468 336Q467 343 467 349T467 363Q467 388 470 410Q452 397 436 383T406 352Q387
330 377 301T367 242Q367 202 388 171T456 131Z" />
<glyph unicode="&apos;" glyph-name="quotesingle" horiz-adv-x="162" d="M171 346Q170 342 164 342Q160 342 157 345T154 354Q162 384 168 427T180 505Q183 519 199 519Q209 519 217 513T222 498Q217 483 208 455T189 397T171 346Z" />
<glyph unicode="(" glyph-name="parenleft" horiz-adv-x="307" d="M295 -143Q285 -144 276 -144T256 -145Q173 -145 118 -107T35 -3T7 144Q7 168 9 193T17 245Q39 355 88 446T208 602T363 703T541 739Q549 738 553 732T549 725Q453 725 376 688T241 586T142 440T81
269Q72 230 67 193T62 120Q62 50 84 -5T158 -93T293 -125Q298 -125 301 -128T305 -136Q305 -142 295 -143Z" />
<glyph unicode=")" glyph-name="parenright" horiz-adv-x="465" d="M-67 -168Q-74 -167 -78 -161T-75 -154Q21 -154 98 -117T233 -15T332 131T393 302Q402 341 407 378T412 451Q412 521 390 576T316 664T181 696Q177 696 173 699T169 707Q169 713 179 714Q189
715 198 715T218 716Q301 716 356 678T439 574T467 427Q467 403 465 378T457 326Q435 216 386 125T266 -31T111 -132T-67 -168Z" />
<glyph unicode="*" glyph-name="asterisk" horiz-adv-x="523" d="M341 218Q333 216 331 222L275 341L164 220Q161 217 157 217Q153 217 151 221T152 229L246 360L104 372Q97 372 97 379Q97 386 105 388L255 399L223 532Q220 539 227 541Q234 546 237 538L292 418L404
539Q407 542 411 542Q415 542 417 539T416 530L322 399L464 388Q471 386 471 380Q471 378 469 375T462 372L313 360L345 228Q345 227 345 227T346 226Q346 221 341 218Z" />
<glyph unicode="+" glyph-name="plus" horiz-adv-x="383" d="M209 50L235 176H112V195H240L267 321H290L263 195H383V176H258L232 50H209Z" />
<glyph unicode="," glyph-name="comma" horiz-adv-x="208" d="M81 -85Q69 -85 69 -76Q69 -70 79 -70Q111 -63 132 -38T164 3H159Q148 3 141 10T133 28Q133 42 143 53T168 65Q195 65 195 36Q195 22 181 -5T141 -55T81 -85Z" />
<glyph unicode="-" glyph-name="hyphen" horiz-adv-x="317" d="M129 176V195H309V176H129Z" />
<glyph unicode="." glyph-name="period" horiz-adv-x="191" d="M149 -5Q139 -5 133 2T126 20Q126 35 137 45T163 55Q174 55 180 48T186 30Q186 15 175 5T149 -5Z" />
<glyph unicode="/" glyph-name="slash" horiz-adv-x="529" d="M5 -81L501 566H529L32 -81H5Z" />
<glyph unicode="0" glyph-name="zero" horiz-adv-x="598" d="M252 -10Q195 -10 157 9T97 60T71 127Q70 135 70 143T69 160Q69 183 72 205T82 250Q99 310 137 368T227 474T342 549T469 577Q527 577 564 558T623 508T649 439Q652 421 652 402Q652 381 649 360T639
317Q622 257 584 199T494 94T379 18T252 -10ZM263 12Q328 12 381 44T474 127T540 230Q558 266 571 314T584 409Q584 420 583 431T580 453Q573 494 548 525T464 556Q401 556 347 523T252 440T182 337Q163 302 150 255T137 160Q137 149 138 138T141 116Q149 75 177
44T263 12Z" />
<glyph unicode="1" glyph-name="one" horiz-adv-x="327" d="M12 0Q7 0 7 7Q7 12 9 16T17 21H72Q100 21 117 37T149 84L342 510L195 399Q187 392 170 384T131 376L350 556H417L207 81Q193 51 193 38Q193 21 224 21H283Q288 21 288 15Q288 11 285 6T278 0H12Z" />
<glyph unicode="2" glyph-name="two" horiz-adv-x="541" d="M53 -11Q43 -5 43 9Q43 24 52 42T68 69Q83 89 112 111T169 150Q212 175 264 200T365 255T446 325Q466 349 478 380T491 449Q491 483 475 504T432 535T377 545Q335 545 293 523Q261 506 242 479T216 416Q215
413 215 410T215 402Q215 372 228 354Q228 353 228 353T229 352Q229 351 225 351Q217 351 211 354Q195 359 184 380T174 420Q179 464 210 494T281 541Q338 564 395 564Q439 564 479 553T544 515T569 445Q569 400 548 363T493 297Q452 262 396 234T283 181T178 127Q170
123 156 112T129 89T117 64Q117 57 123 52T144 42Q172 35 194 30T241 22T297 19Q315 19 340 23T391 37T437 63T465 103Q468 112 468 122Q468 131 465 140T452 156Q450 158 450 161Q450 165 456 165Q462 165 472 157Q506 130 500 85Q495 44 471 22T412 -10T338 -19Q306
-19 275 -15T221 -5Q198 0 170 7T116 14Q94 14 77 7Q71 5 64 0T53 -11Z" />
<glyph unicode="3" glyph-name="three" horiz-adv-x="541" d="M127 -10Q91 -2 70 16T49 63Q49 73 52 83Q55 94 66 107T99 120Q96 113 95 104T91 87Q90 84 90 81T90 76Q90 50 108 33T154 7T212 -1Q252 -1 291 13T362 53T414 115T434 197Q434 237 415 259T365 290T302
299Q286 299 263 298T227 297Q214 297 214 305Q214 310 221 315T242 321Q267 321 300 323T361 336Q387 345 412 364T453 410T469 467Q469 499 445 517T378 536Q306 536 257 490Q225 460 225 426Q225 421 226 417T229 407Q208 406 198 416T188 442Q188 458 197 474Q214
504 248 522T322 548T393 556Q436 556 476 541T529 488Q534 475 534 461Q534 449 529 432Q521 402 496 379T439 339T383 315Q453 308 480 275T507 202Q507 182 502 163T488 127Q463 78 420 46T323 -3T213 -20Q191 -20 170 -18T127 -10Z" />
<glyph unicode="4" glyph-name="four" horiz-adv-x="477" d="M116 0Q111 0 111 7Q111 12 113 16T121 21H177Q203 21 221 37T252 84L298 185H91Q81 185 72 185T55 184Q38 184 38 190Q38 195 49 207T88 241L426 531Q433 537 439 542T464 552T522 556L371 220H456Q447
204 430 195T398 185H358L311 81Q305 67 302 57T298 39Q298 21 328 21H387Q392 21 392 15Q392 11 389 6T382 0H116ZM104 220H314L445 510L104 220Z" />
<glyph unicode="5" glyph-name="five" horiz-adv-x="478" d="M174 -26Q138 -26 100 -15T38 26Q19 48 19 80Q19 99 26 117Q34 137 55 157T98 186Q103 188 112 190T116 187Q100 174 87 154T68 117Q61 96 61 77Q61 36 90 14T161 -7Q208 -5 245 14T310 64T351 129T366
197Q366 230 351 257T301 297Q288 302 272 304T236 307Q206 307 179 300T124 284L241 556H506Q497 533 484 515T449 500Q413 505 372 507T298 510Q267 510 256 507L187 326Q205 329 226 330T268 331Q305 331 343 323T408 292T439 224Q440 220 440 215T440 205Q440
152 417 109T354 36T268 -10T174 -26Z" />
<glyph unicode="6" glyph-name="six" horiz-adv-x="449" d="M194 -16Q159 -16 123 -5T66 35Q41 72 41 127Q41 189 69 260T142 393Q175 439 217 477T311 538T422 562Q442 562 461 558T496 546Q531 528 531 496Q531 481 524 468Q514 447 487 449Q490 458 490 467Q490
473 489 478T486 489Q476 515 453 525T402 535Q353 535 313 515T242 462T187 390T148 312T126 244Q147 271 182 292T257 326T337 339Q363 339 385 334T425 314Q448 298 457 275T467 225Q467 182 446 138T393 60Q356 23 302 4T194 -16ZM207 3Q250 3 287 24T352 81T392
157Q400 186 400 208Q400 254 372 281T300 308Q292 308 284 307T267 304Q200 291 159 249T110 135Q109 131 109 127T109 118Q109 74 133 39T207 3Z" />
<glyph unicode="7" glyph-name="seven" horiz-adv-x="375" d="M67 -8Q55 -11 55 -2Q55 7 69 27L416 492Q392 491 369 493T325 499Q309 501 280 506T215 511Q193 511 172 508Q106 499 77 440Q73 433 63 433Q52 433 55 439Q74 471 91 499T146 544Q165 552 183 555T219
558Q257 558 287 549T337 531Q359 522 384 516T428 510Q436 520 447 534T472 560T504 572Q525 572 525 554Q525 547 519 537T500 518Q493 512 475 504T451 494Q421 460 386 412T315 308T245 196T181 89T128 0Q109 -1 88 -4T67 -8Z" />
<glyph unicode="8" glyph-name="eight" horiz-adv-x="492" d="M229 -12Q156 -12 111 24T66 117Q66 135 72 156Q83 194 112 227T181 284T268 318Q215 345 215 402Q215 418 219 433Q230 470 260 500T331 548T416 566Q472 566 506 538T540 466Q540 450 536 435Q524
395 488 362T405 314Q446 298 470 268T495 197Q495 178 489 158Q476 111 436 73T341 11T229 -12ZM351 323Q384 323 414 343T463 395T482 464Q482 500 460 523T403 547Q371 547 341 527T292 475T273 406Q273 370 294 347T351 323ZM240 6Q281 6 319 26T386 79T424
154Q426 164 427 173T429 191Q429 238 399 269T319 300Q279 300 241 280T174 227T136 152Q134 142 133 133T131 115Q131 69 161 38T240 6Z" />
<glyph unicode="9" glyph-name="nine" horiz-adv-x="482" d="M150 -15Q130 -15 111 -12T75 1Q39 20 39 52Q39 58 41 64T46 78Q58 99 83 98Q80 86 80 78Q80 67 83 58Q93 31 116 21T167 10Q216 10 256 30T328 84T383 156T422 233T444 303Q423 276 388 255T312 220T232
207Q207 207 185 213T145 232Q123 249 113 272T103 321Q103 364 124 408T178 485Q215 522 268 542T376 563Q411 563 447 552T504 512Q529 475 529 420Q529 358 501 287T428 154Q395 108 353 70T261 8T150 -15ZM301 241Q368 254 409 297T457 411Q458 416 458 420T458
429Q458 473 434 508T361 543Q318 543 281 522T217 465T177 388Q169 359 169 338Q169 292 197 265T271 238Q286 238 301 241Z" />
<glyph unicode=":" glyph-name="colon" horiz-adv-x="140" d="M184 182Q174 182 167 189T159 207Q159 221 169 231T194 242Q205 242 212 236T219 218Q219 204 209 194T184 182ZM107 -5Q97 -5 90 2T83 20Q83 35 94 45T120 55Q131 55 137 48T144 30Q144 15 133 5T107 -5Z" />
<glyph unicode=";" glyph-name="semicolon" horiz-adv-x="145" d="M184 182Q174 182 167 189T159 207Q159 221 169 231T194 242Q205 242 212 236T219 218Q219 204 209 194T184 182ZM25 -85Q13 -85 13 -76Q13 -70 23 -70Q55 -63 76 -38T108 3H103Q91 3 84 10T76
29Q76 43 87 54T112 65Q139 65 139 36Q139 22 125 -5T85 -55T25 -85Z" />
<glyph unicode="&lt;" glyph-name="less" horiz-adv-x="423" d="M263 47L61 177Q50 185 50 198Q50 213 66 229L264 425Q266 427 268 427Q274 427 277 420T276 407L96 207L276 64Q279 61 279 58Q279 53 274 48T263 47Z" />
<glyph unicode="=" glyph-name="equal" horiz-adv-x="370" d="M152 241V261H370V241H152ZM114 151V172H331V151H114Z" />
<glyph unicode="&gt;" glyph-name="greater" horiz-adv-x="423" d="M161 47Q159 45 156 45Q152 45 149 52T150 64L330 264L149 408Q146 410 146 413Q146 418 152 423T162 425L365 294Q376 286 376 274Q376 259 360 243L161 47Z" />
<glyph unicode="?" glyph-name="question" horiz-adv-x="371" d="M177 136Q166 143 166 157Q166 180 192 206Q217 231 251 255T320 305T386 358T436 416T455 482Q455 523 430 546T362 569Q294 569 250 535T206 439Q206 430 207 422T211 407Q211 406 211 406T212
406Q212 404 208 404T200 404Q187 409 181 422T174 452Q174 487 192 511T239 551T301 573T364 580Q404 580 437 570T491 538T512 477Q512 437 490 408T434 356T363 314T296 274Q272 257 251 241T219 203T209 149Q201 137 191 136T177 136ZM142 -5Q131 -5 125 2T118
20Q118 35 129 45T155 55Q166 55 172 48T178 30Q178 15 167 5T142 -5Z" />
<glyph unicode="@" glyph-name="at" horiz-adv-x="894" d="M444 -91Q357 -91 290 -60T184 31T145 172Q145 227 162 281T211 383T285 466Q356 527 446 558T621 589Q713 589 771 562T858 488T886 387Q886 317 843 244T719 117Q685 95 650 81T587 66Q560 66 543 82T525
136Q525 157 531 185V194Q517 173 498 151T457 111Q423 86 397 86Q372 86 358 107T343 161Q343 181 349 205Q380 318 478 387Q499 402 531 411T597 421Q620 421 640 416T677 398L668 393Q643 406 615 406Q582 406 552 389T495 345Q459 308 435 266T401 191Q396
173 396 154Q396 138 401 127T418 116Q439 116 462 136T507 186T548 244T576 287Q599 320 617 343T676 376L698 381Q676 354 653 314T613 243Q603 221 594 187T582 123Q581 107 588 101T609 95Q629 95 654 105T695 126Q739 153 771 195T821 287T839 385Q839 435
817 478T746 547T619 573Q567 573 511 558T403 512T307 437Q277 405 253 362T214 271T199 174Q199 95 235 41T332 -41T464 -69Q557 -69 637 -33T778 67T877 215Q881 225 894 225Q903 225 909 221T913 211Q846 65 725 -13T444 -91Z" />
<glyph unicode="A" glyph-name="A" horiz-adv-x="807" d="M98 -71Q94 -72 89 -72T79 -72Q45 -72 14 -60T-27 -14Q-30 -5 -30 6Q-30 33 -13 55Q-9 59 -6 60T-2 56Q1 7 32 -14T107 -36Q148 -36 191 -19T269 27Q313 66 350 117T422 220Q434 240 447 260T473 299H224Q222
299 222 301Q222 306 229 313T242 321H487Q531 386 578 448T673 563Q732 625 796 662T913 703Q941 705 963 701T1000 684Q1013 674 1019 659T1025 628Q1025 624 1025 620T1023 611Q1020 595 1011 585Q1007 581 1003 581Q996 581 1002 590Q1011 602 1011 619Q1011
628 1008 635Q1001 654 982 663T936 673Q880 673 818 633Q773 604 727 556T634 447T541 321H688Q697 339 706 357T726 393Q763 460 802 521T873 633Q876 638 879 638Q883 638 884 634T882 627Q836 557 802 479T739 321H788Q790 321 790 319Q790 315 783 307T769
299H731Q722 273 710 230T688 139T678 53Q678 17 689 -3T726 -23Q729 -23 732 -23T738 -22Q755 -19 772 -3T807 35Q831 66 851 101T881 155Q886 163 889 163Q893 163 893 156Q893 152 890 146Q876 121 855 84T807 14Q788 -8 767 -24T723 -44Q717 -45 712 -45T700
-46Q671 -46 649 -30T619 26Q617 37 616 49T615 72Q615 130 635 189T678 299H524Q508 277 493 254T462 207Q433 165 393 119T304 31T204 -39T98 -71Z" />
<glyph unicode="B" glyph-name="B" horiz-adv-x="672" d="M-11 -91Q-22 -91 -43 -88T-81 -75T-99 -43Q-99 -31 -93 -24Q-89 -19 -85 -19T-82 -24Q-86 -39 -72 -52T-43 -70Q-27 -74 -9 -74Q30 -74 63 -54T123 -4Q86 22 58 61T29 149Q29 164 32 179Q43 233 87 263Q110
279 139 279Q158 279 173 273T195 257V256Q195 252 191 249T185 247Q178 260 158 260Q147 260 134 256T110 240Q97 229 89 213T76 178Q70 157 70 137Q70 97 89 65T136 10Q172 55 203 112T261 223T309 315Q387 452 459 527T594 603Q607 603 619 600Q623 599 621
595T615 592Q611 593 608 593T600 594Q570 594 535 565T463 484T389 365Q402 373 419 376T456 380Q485 380 514 374T564 360Q609 395 636 447T664 547Q664 595 639 624T576 668T496 688T419 693Q363 693 308 681T205 647T125 592Q98 566 74 523T50 436Q50 418 56
401Q66 373 92 358T152 342Q165 342 179 345T207 352H209Q212 352 212 349Q212 345 207 343Q180 334 151 334Q117 334 87 347T38 388T19 455Q19 486 27 512T51 561Q84 610 144 642T277 690T422 706Q456 706 500 701T589 683T666 644T713 580Q719 561 719 539Q719
499 699 459T649 388Q626 363 593 344Q640 321 663 282T686 197Q686 150 662 103T592 18T476 -40Q444 -49 408 -54T333 -59Q294 -59 255 -53T180 -34Q174 -32 167 -29T154 -22Q100 -70 37 -85Q13 -91 -11 -91ZM430 306Q462 306 491 316T547 346Q528 358 504 362T449
367Q420 367 403 355T386 330Q386 320 396 313T430 306ZM471 -21Q522 1 556 37T609 118T627 204Q627 242 613 275T568 330Q537 315 501 305T426 295Q398 295 384 302T365 318Q352 293 340 266T315 212Q289 158 253 98T167 -9Q173 -13 179 -15T191 -20Q224 -32 261
-38T335 -44Q374 -44 409 -38T471 -21Z" />
<glyph unicode="C" glyph-name="C" horiz-adv-x="692" d="M275 98Q274 95 270 95Q261 95 264 103Q287 146 334 192T448 272T597 314Q604 315 610 315T623 315Q688 315 717 287T742 215Q737 155 700 105T604 19T476 -36T339 -56Q267 -56 206 -32T107 45T69 183Q69
191 69 199T70 215Q76 279 106 347T189 477T313 588T472 666T659 695Q725 695 756 671T788 615Q788 590 769 564T714 517Q674 495 627 483T535 465T462 456H461Q458 456 458 459Q458 464 465 465Q531 472 594 491T702 538Q727 553 742 575T757 619Q757 644 733
662T651 681Q564 681 489 653T352 576T245 466T173 338T140 208Q139 198 139 189T138 171Q138 94 167 46T244 -23T349 -45Q408 -45 468 -25T580 30T665 114T703 217Q707 258 682 282T597 302Q518 295 453 262T343 184T275 98Z" />
<glyph unicode="D" glyph-name="D" horiz-adv-x="887" d="M84 -91Q74 -91 53 -88T13 -75T-5 -44Q-5 -31 1 -24Q5 -19 9 -19T11 -24Q8 -39 22 -52T50 -70Q70 -75 85 -75Q129 -75 164 -50T228 8Q190 31 162 63T133 136Q133 152 137 165Q147 199 180 219Q190 225
201 227T225 230Q264 230 280 212V211Q280 209 277 206T271 205Q264 215 246 215Q224 215 203 200Q183 185 177 163Q171 144 171 125Q171 91 190 66T238 21Q246 31 252 41T266 61Q296 107 325 166T385 287T450 409T526 514T616 586Q648 603 677 603Q693 603 706
599Q710 598 709 594T703 591Q699 593 695 593T685 593Q633 593 576 526Q532 474 500 416T441 296T386 174T318 59Q308 44 297 30T273 3Q287 -3 302 -7T331 -14Q376 -23 423 -23Q488 -23 549 -9T658 31Q722 65 772 125T851 258T881 403Q881 475 847 538T734 642Q685
667 626 678T506 690Q421 690 342 663T212 588Q186 563 166 521T145 438Q145 429 146 420T150 402Q159 374 184 360T243 345Q268 345 295 354Q296 354 296 354T298 355Q300 355 300 353Q300 348 294 346Q280 342 265 339T234 336Q202 336 172 347T124 384T105 448Q105
479 114 506T139 557Q172 606 232 638T366 687T512 704Q573 704 634 693T750 658Q850 615 894 543T939 388Q939 312 906 237T813 100T674 2Q625 -20 568 -31T451 -42Q417 -42 384 -39T319 -28Q306 -25 291 -21T261 -9Q243 -25 224 -40T182 -67Q159 -78 135 -84T84
-91Z" />
<glyph unicode="E" glyph-name="E" horiz-adv-x="594" d="M209 -57Q142 -50 100 -23T37 43T17 125Q17 131 17 137T19 149Q28 214 69 272T180 361Q194 367 208 372T229 379Q211 415 211 453Q211 485 222 516T253 573Q282 611 324 638T414 679T509 694Q533 694 557
691T603 677Q628 666 639 649T651 613Q651 569 603 537Q588 527 563 520T512 513Q477 513 457 528Q453 532 453 535Q453 538 456 539T460 540Q486 528 516 528Q561 528 592 549Q631 575 631 610Q631 625 623 638T594 660Q578 668 558 671T518 675Q469 675 418 654T331
596Q306 569 286 527T266 443Q266 419 275 396Q303 406 331 410T386 415Q456 415 456 379Q456 358 432 340T364 321Q358 321 352 321T340 323Q300 328 277 339T236 368Q224 362 211 356T184 338Q132 294 106 238T80 130Q80 71 107 35T177 -16T270 -32Q327 -32 380
-15Q442 5 499 47T587 156Q598 181 598 201Q598 227 581 243T534 259Q530 259 527 259T518 258Q477 252 452 231T413 186T393 144Q390 138 388 138Q384 138 384 148Q384 151 384 154T386 162Q390 174 404 197T445 243T513 273Q527 276 539 276Q579 276 604 254T629
196Q629 176 618 149Q596 99 556 60T464 -5T356 -45T247 -59Q237 -59 228 -59T209 -57ZM378 340Q397 340 412 346Q438 355 438 374Q438 385 425 393T385 402Q355 402 329 398T280 387Q295 362 325 351T378 340Z" />
<glyph unicode="F" glyph-name="F" horiz-adv-x="628" d="M63 -88Q51 -82 45 -71T38 -49Q38 -38 44 -31Q47 -27 51 -27T54 -31Q51 -46 68 -59T99 -76Q114 -79 129 -79Q160 -79 184 -70Q220 -58 255 -21T322 63Q348 103 373 152T423 253Q403 255 374 257T314 259Q274
259 237 253T184 226Q176 215 176 202Q176 199 176 196T178 190Q178 189 178 189T179 187Q179 185 176 185Q171 185 170 190Q169 193 168 198T167 208Q167 222 173 235Q189 267 223 279T297 291Q334 291 371 285T433 274Q466 338 501 400T579 511T672 586Q623 592
572 602T485 619Q463 623 435 624T376 626Q321 626 266 620T178 598Q120 572 78 527T36 413Q36 385 45 366T70 336Q87 326 105 326Q127 326 150 339T190 379Q198 392 205 417T213 468Q213 482 211 495T201 518Q199 522 199 522Q199 525 202 525Q206 525 209 520Q214
513 219 499T227 472Q228 466 228 460T229 448Q229 428 224 408T208 370Q192 343 165 330T109 316Q86 316 65 325Q34 340 20 368T5 429Q5 451 10 473T26 517Q43 554 73 582T133 626Q183 653 233 664T336 675Q379 675 423 669T512 652Q563 640 617 625Q637 619 665
612T721 602Q725 602 728 602T735 603Q745 603 757 600Q776 601 794 607T823 629Q827 635 827 640Q827 645 826 649T828 657Q830 659 833 659Q838 659 841 653Q842 650 842 643Q842 640 842 637T840 630Q833 610 813 599T773 584Q765 583 756 583T736 582Q728 582
719 582T701 583Q668 568 632 526Q583 468 549 401T484 264Q498 262 512 261T539 259Q566 259 587 266Q589 273 594 285T605 304Q621 326 637 326Q650 326 650 313Q650 305 641 291Q634 282 625 274T605 262Q598 248 595 232T592 202Q592 180 599 167Q600 166 600
163Q600 160 597 159T590 161Q577 177 577 208Q577 233 586 257Q564 248 524 248Q513 248 502 248T477 250Q455 201 431 152T374 59Q339 10 295 -29T195 -88Q164 -99 121 -99Q104 -99 89 -97T63 -88Z" />
<glyph unicode="G" glyph-name="G" horiz-adv-x="705" d="M166 -287Q151 -279 145 -267T138 -243Q138 -228 145 -220Q149 -215 153 -215T156 -219Q153 -237 170 -253T203 -275Q221 -280 236 -280Q251 -280 265 -277T293 -269Q332 -254 370 -210T440 -111Q482 -41
522 48T607 223Q548 144 482 83T347 -8Q318 -21 285 -28T217 -36Q183 -36 152 -27T95 1Q63 27 50 66T37 148Q37 171 40 193T48 236Q64 301 100 364T187 483T301 583Q374 633 455 662T625 691Q650 691 673 688T716 678Q748 667 762 648T776 606Q776 569 745 532Q711
492 663 477T575 461Q566 461 559 461T544 463Q534 464 534 470Q534 477 546 475Q553 474 561 474T577 473Q614 473 655 488T730 546Q747 568 747 594Q747 612 738 628T705 654Q671 670 623 668Q558 666 493 641T367 574T257 482T173 376Q157 350 141 310T113 223T101
132Q101 81 121 41T192 -13Q205 -17 225 -17Q250 -17 280 -10T344 14Q398 40 451 84T553 184T636 295Q656 326 667 326Q697 370 730 405T802 460Q834 476 865 476Q879 476 892 473Q897 472 895 468T889 464Q880 467 870 467Q846 467 818 450T762 399Q718 347 686
285T626 154T568 17T496 -116Q459 -173 412 -218T306 -286Q272 -299 228 -299Q210 -299 194 -296T166 -287Z" />
<glyph unicode="H" glyph-name="H" horiz-adv-x="832" d="M37 -88Q25 -82 19 -71T12 -49Q12 -38 18 -31Q22 -27 26 -27T29 -31Q26 -46 42 -59T72 -76Q80 -77 87 -78T102 -80Q131 -80 158 -70Q194 -58 229 -21T296 63Q325 107 356 169T422 299H218Q215 299 215
301Q215 306 222 313T236 321H433Q465 383 500 441T573 546T654 622Q616 626 577 633T507 646Q464 654 423 660T341 666Q307 666 276 660T215 640Q191 627 171 597T150 534Q150 521 154 509T169 486Q171 485 169 483T163 481Q144 498 135 519T126 563Q126 596 142
625T184 669Q209 683 236 689T294 695Q322 695 351 691T411 681Q456 672 505 662T600 644Q619 641 638 639T677 636Q709 651 739 651Q743 651 756 650T769 641Q769 630 754 626T720 621T694 620H684Q672 612 660 601T636 575Q592 523 556 457T487 321H731L739 335Q797
436 867 530T1004 720Q1007 725 1014 725T1019 719Q979 667 941 604T868 477T805 354Q799 344 790 321H858Q860 321 860 319Q860 315 853 307T839 299H780Q767 266 751 225T720 142T698 68Q692 43 692 23Q692 -6 705 -19Q716 -30 733 -30Q753 -30 774 -14Q799 5
825 36T872 99T902 148Q908 157 913 157Q916 157 916 153Q916 149 913 143Q902 121 882 89T836 26T781 -27Q767 -37 750 -43T713 -50Q686 -50 663 -34Q632 -11 632 44Q633 106 659 172T718 299H477Q446 234 415 172T348 59Q314 10 270 -29T169 -88Q138 -99 95 -99Q78
-99 63 -97T37 -88Z" />
<glyph unicode="I" glyph-name="I" horiz-adv-x="341" d="M-85 -88Q-97 -82 -103 -71T-110 -48Q-110 -37 -105 -31Q-100 -27 -97 -27T-94 -31Q-97 -46 -81 -59T-50 -76Q-35 -79 -20 -79Q11 -79 36 -70Q71 -58 107 -21T173 63Q205 112 237 176T303 311T377 443Q412
498 450 541T535 609Q566 625 597 625Q566 638 524 647T453 656Q410 656 367 644T285 609Q243 586 206 546T145 458T122 360Q122 339 128 322T151 294Q167 284 189 284Q208 284 224 290Q226 291 230 291Q235 291 235 288Q235 282 224 278Q204 268 177 268Q147 268
122 281Q95 295 85 322T74 378Q74 437 103 488T177 578T274 638Q318 657 364 665T454 673Q497 673 545 661T628 622Q632 619 632 616Q632 613 629 612T621 613Q611 616 600 616Q572 616 545 598T493 550T448 489T414 428Q387 377 362 317T309 195T245 77T161 -22T47
-88Q14 -99 -27 -99Q-44 -99 -59 -97T-85 -88Z" />
<glyph unicode="J" glyph-name="J" horiz-adv-x="479" d="M-39 -298Q-98 -298 -141 -267T-184 -172Q-184 -127 -162 -83T-103 -18Q-99 -16 -97 -16Q-95 -16 -95 -18Q-95 -21 -99 -25Q-126 -53 -138 -90T-151 -160Q-151 -218 -116 -248T-31 -278Q6 -278 39 -260T102
-212T156 -151T200 -89Q251 -13 292 67T373 227T456 382T552 522Q585 562 619 593T690 643L710 651L687 654Q652 659 616 663T544 667Q487 667 433 658Q342 644 264 594T134 468Q106 427 89 380T71 285Q71 272 72 260T76 236Q87 191 118 167T189 143Q203 143 217
146T246 156Q286 173 308 204Q310 207 311 207Q313 207 313 203T313 196Q292 157 250 136Q216 118 173 118Q131 118 93 139T37 201Q29 220 26 239T22 279Q22 335 47 393T112 500Q172 576 253 621T432 678Q454 680 476 681T521 683Q585 683 649 674Q672 671 699
668T748 662Q754 663 759 663T770 664Q780 664 789 663T807 659Q810 658 810 655Q810 652 808 650T802 648Q790 652 773 652Q742 652 707 634T633 572Q574 505 530 428T450 268T377 105Q353 54 324 -1T259 -110T178 -205T80 -273T-39 -298Z" />
<glyph unicode="K" glyph-name="K" horiz-adv-x="768" d="M624 -103Q575 -103 537 -82T468 -27T412 45Q387 85 361 133T312 222Q344 273 390 325T489 427T598 520T704 596Q749 625 805 650T917 675Q950 675 982 665T1034 632T1051 567Q1050 552 1044 550T1038
556Q1042 590 1024 607T979 630T930 636Q873 636 817 612T717 560Q647 517 577 461T446 347T345 241Q377 199 407 156T469 70Q491 41 521 8T587 -48T660 -71Q686 -71 705 -59T734 -29Q745 -10 745 19Q745 42 739 65T725 107Q715 134 704 148Q699 154 699 159Q699
162 703 162Q710 162 720 154Q766 110 766 41Q766 20 761 -1T742 -41Q724 -69 694 -86T624 -103ZM-134 -88Q-145 -82 -152 -71T-159 -48Q-159 -38 -153 -31Q-149 -27 -145 -27T-143 -31Q-146 -46 -129 -59T-99 -76Q-85 -79 -70 -79Q-55 -79 -41 -77T-14 -70Q23
-57 58 -20T125 63Q157 112 189 176T255 311T328 443Q363 498 402 541T486 609Q517 625 548 625Q517 638 475 647T403 656Q316 656 236 609Q196 586 160 548T101 464T73 369Q72 345 78 325T103 294Q117 284 140 284Q158 284 174 290Q177 291 181 291Q187 291 187
287Q187 282 176 278Q156 268 128 268Q114 268 100 271T72 281Q47 294 36 321T25 378Q25 437 54 488T128 578T225 638Q269 657 315 665T404 673Q448 673 496 661T579 622Q583 619 583 616Q583 613 580 612T573 613Q563 616 552 616Q524 616 497 598T445 550T400
489T365 428Q338 377 313 317T260 195T196 77T112 -22T-2 -88Q-33 -99 -76 -99Q-93 -99 -108 -97T-134 -88Z" />
<glyph unicode="L" glyph-name="L" horiz-adv-x="868" d="M669 -94Q661 -95 653 -95T636 -95Q582 -95 523 -85T407 -57T299 -20L215 14Q205 9 196 5T175 -3Q142 -14 98 -14Q82 -14 67 -12T42 -4Q31 2 25 13T18 36Q18 47 24 54Q28 58 32 58T34 54Q31 38 47 26T78
9Q91 5 110 5Q138 5 163 15L186 25Q163 35 139 43T95 59Q80 64 57 69T19 72H18Q15 72 14 75T17 81Q22 85 37 85Q53 85 72 81T100 74L212 43Q236 63 259 90T302 148Q338 203 372 274T444 420T527 556Q550 588 581 619T649 669Q671 680 694 687T742 694Q794 694 821
667T848 599Q848 589 847 578T841 556Q826 507 786 473T698 421Q692 419 691 419Q686 419 686 423Q686 429 694 432Q739 449 775 485T821 570Q822 576 822 581T823 591Q823 632 795 651T729 671Q691 671 659 653Q624 633 591 587T526 480T465 356T408 236T354 143Q332
111 305 83T247 33L310 15Q380 -5 462 -23T618 -42Q652 -42 683 -37T739 -20Q780 -1 805 32T830 102Q830 128 817 153T774 200Q758 212 741 221T710 236Q703 239 703 242Q703 244 706 245T711 246Q745 238 779 215Q831 178 849 129Q859 103 859 75Q859 35 839 -1T784
-59Q734 -89 669 -94Z" />
<glyph unicode="M" glyph-name="M" horiz-adv-x="970" d="M40 -128Q29 -128 9 -126T-27 -113T-43 -83Q-43 -72 -37 -63Q-32 -58 -29 -58T-26 -62Q-30 -77 -17 -90T11 -108Q27 -112 45 -112Q86 -112 120 -92T181 -40T231 24Q282 99 323 178T406 337T500 489Q517
513 542 543T597 602T659 646Q646 646 637 647T607 649Q568 652 517 652Q489 652 463 652T413 649Q331 644 250 618T110 539Q76 508 54 469T32 392Q32 349 55 331T111 312Q136 312 161 321Q210 338 241 381T269 479Q268 488 265 497T257 509Q253 512 253 515T259
518Q281 516 289 494T298 451Q298 420 282 392T241 342T186 309Q155 297 120 297Q74 297 40 323T5 408Q5 452 26 491T79 561Q146 627 234 651T415 675Q487 675 559 668T702 660H728Q733 659 737 657T740 649Q740 643 733 643Q719 643 711 639Q690 632 675 614T646
569Q627 535 624 490T619 406Q618 353 616 296T598 184Q587 141 566 103T510 34Q536 44 562 72T611 133T650 189Q693 255 740 334T840 490T948 628Q997 681 1044 705T1131 729Q1165 729 1190 713T1225 666Q1225 665 1225 665T1226 663Q1226 656 1219 655T1210 657Q1201
698 1158 698Q1130 698 1089 676T996 604Q942 552 889 481T786 335T685 194Q667 170 640 136T579 69T512 14T447 -6Q441 -6 441 -2T445 5Q479 29 500 69T534 156Q551 221 556 288T571 422Q576 453 583 487T607 550Q620 573 643 600T694 639Q677 643 656 627T613
586T576 536T552 501Q504 425 465 342T384 178T289 25Q260 -14 223 -49T144 -105Q119 -118 93 -123T40 -128ZM851 -51Q813 -51 791 -27T768 44Q769 91 784 141T824 240T875 335Q934 436 993 514T1090 645Q1093 650 1101 650T1105 644Q1065 592 1025 517T941 354Q934
339 920 306T889 229T857 144T834 68Q831 55 829 44T827 21Q827 -3 837 -17T870 -32Q893 -32 919 -11T970 42Q992 68 1010 97T1041 149Q1046 155 1048 155Q1051 155 1051 150Q1051 144 1047 136Q1035 113 1015 83T970 24Q942 -7 911 -29T851 -51Z" />
<glyph unicode="N" glyph-name="N" horiz-adv-x="839" d="M101 -128Q90 -128 71 -125T36 -113T20 -83Q20 -70 27 -63Q30 -58 34 -58T37 -62Q33 -77 47 -90T75 -108Q91 -112 109 -112Q150 -112 183 -92T244 -40T294 24Q345 99 386 178T469 337T563 489Q580 513
605 543T660 602T722 646Q696 648 653 649T564 651Q544 651 525 651T486 649Q404 644 323 618T183 539Q149 508 127 469T105 392Q105 349 128 331T184 312Q209 312 234 321Q283 338 315 381T343 479Q342 488 339 497T330 509Q326 512 327 515T332 518Q354 516 362
494T370 452Q370 420 355 392T314 342T259 309Q228 297 193 297Q147 297 113 323T78 408Q78 452 99 491T152 561Q219 627 307 651T488 675Q559 675 629 670T770 660Q781 662 790 660Q794 659 799 658T804 651Q804 644 793 641T767 637H765Q732 626 720 585T708
492Q708 459 711 425T720 360Q729 308 745 252T762 134Q762 92 751 58T716 -9Q736 3 752 32T780 94T801 150Q818 199 838 260T881 386T932 513T989 627Q1030 698 1078 730T1169 762Q1223 762 1252 717Q1254 715 1254 711Q1254 705 1249 704T1241 705Q1224 736 1192
736Q1164 736 1126 707T1043 613Q1012 567 983 510T926 391T874 270T829 161Q819 137 803 102T767 32T722 -27T671 -56H670Q666 -56 665 -53T666 -46Q692 -19 701 20T711 105Q711 146 702 189T681 277T664 365Q662 383 660 403T658 443Q658 481 666 518T694 588T751
640Q734 641 713 624T673 582T638 535T615 501Q567 425 528 342T447 178T352 25Q324 -14 287 -49T207 -105Q158 -128 101 -128Z" />
<glyph unicode="O" glyph-name="O" horiz-adv-x="706" d="M261 -72Q183 -72 132 -47T52 19T16 110Q13 133 13 156Q13 215 30 274Q50 343 88 408T178 529T292 627T424 691Q490 711 547 711Q565 711 581 709T613 703Q651 692 674 669T697 610Q697 600 694 588Q723
559 736 518T749 430Q749 399 744 367T728 303Q705 230 660 163T552 43T416 -41T261 -72ZM262 -58L265 -57Q341 -56 408 -21T529 71T623 196T682 332Q699 389 699 446Q699 475 694 503T676 554Q666 542 655 538Q648 535 645 535Q641 535 641 538T646 544Q658 554
664 573Q645 599 615 614T541 629Q498 629 449 609T352 551Q323 527 301 493T266 425T254 364Q254 334 270 325Q278 321 278 316Q278 313 274 312T265 313Q247 320 239 337T230 379Q230 420 253 471T315 556Q366 600 426 622T542 645Q583 645 614 635T669 609Q668
637 649 655T600 682Q571 690 538 690Q516 690 490 686T435 673Q396 661 355 633T275 565T202 480T144 389Q118 341 100 276T81 145Q81 130 82 115T86 85Q93 47 113 14T170 -38T262 -58Z" />
<glyph unicode="P" glyph-name="P" horiz-adv-x="767" d="M84 -91Q74 -91 53 -88T13 -75T-5 -44Q-5 -31 1 -24Q5 -19 9 -19T11 -24Q8 -39 22 -52T50 -70Q60 -72 69 -73T86 -75Q126 -75 159 -55T218 -3T266 61Q296 107 325 166T385 287T450 409T526 514T616 586Q648
603 677 603Q693 603 706 599Q710 598 709 594T703 591Q699 593 695 593T685 593Q633 593 576 526Q525 466 491 398T425 258H426Q436 253 448 249Q492 235 536 235Q584 235 632 251T719 297T783 369T807 465Q807 512 784 555T714 627Q665 659 598 673T457 688Q373
688 294 662T164 587Q138 562 118 521T97 438Q97 429 98 420T102 402Q111 374 136 359T193 344Q206 344 219 347T246 354H248Q251 354 251 351Q251 347 246 345Q218 336 186 336Q154 336 125 347T77 383T58 448Q58 479 66 506T90 556Q123 606 183 638T317 687T463
704Q537 704 606 694T726 661Q800 630 832 581T865 477Q865 415 836 367T759 285T655 235T544 218Q517 218 491 222T440 234Q435 236 431 238T421 242Q420 242 419 242T417 243Q395 195 372 149T318 59Q291 21 257 -12T182 -67Q159 -78 135 -84T84 -91Z" />
<glyph unicode="Q" glyph-name="Q" horiz-adv-x="708" d="M706 -345Q651 -345 604 -317T515 -244T436 -150T362 -60Q311 -72 259 -72Q181 -72 130 -47T51 20T15 110Q12 133 12 156Q12 215 29 274Q49 343 87 408T177 530T292 627T423 691Q455 702 486 706T545 711Q563
711 580 710T612 703Q651 692 674 669T697 610Q697 600 694 588Q723 559 735 519T748 432Q748 401 743 368T727 303Q703 229 657 160T547 38T407 -44Q445 -82 486 -127T572 -214T660 -282T746 -309Q781 -309 804 -288T827 -223Q827 -203 820 -178T799 -130T769
-93Q766 -90 766 -89Q766 -86 769 -86T777 -88Q811 -111 827 -149T843 -221Q843 -264 824 -291T773 -332T706 -345ZM261 -57H265Q286 -57 306 -54T348 -44L331 -28Q296 6 261 27T194 49Q181 49 167 43H165Q161 43 161 46T164 53Q187 67 213 67Q227 67 241 64T270
54Q299 43 333 19T390 -28Q461 3 519 61T619 190T682 332Q690 359 694 387T698 443Q698 474 693 502T675 553Q666 542 655 538Q648 535 645 535Q641 535 641 538T646 544Q658 554 664 573Q645 598 616 613T542 629Q498 629 449 609T352 551Q323 527 301 493T266
424T254 363Q254 334 269 325Q278 321 278 316Q278 313 274 312T265 313Q247 320 239 337T230 379Q230 420 253 471T315 556Q365 600 425 622T542 645Q582 645 613 635T669 609Q667 637 648 655T600 682Q573 690 542 690Q518 690 491 686T434 671Q395 659 354 631T274
563T201 479T143 389Q117 340 98 275T79 145Q79 130 80 115T84 86Q91 48 111 16T169 -37T261 -57Z" />
<glyph unicode="R" glyph-name="R" horiz-adv-x="931" d="M836 -125Q788 -125 750 -104T681 -49T625 23Q615 38 601 65T572 126T543 190T517 244Q505 270 498 277T495 289Q495 289 495 289T496 290Q500 294 506 292Q511 290 515 288T525 284Q561 272 602 272Q645
272 688 286T767 327T824 392T846 479Q846 522 825 561T763 626Q717 655 645 670T496 686Q437 686 378 675T267 641T181 584Q155 558 134 517T113 435Q113 416 119 398Q128 370 153 356T211 341Q236 341 263 350Q264 350 264 350T266 351Q269 351 269 349Q269 344
263 342Q236 332 202 332Q170 332 141 344T93 381T74 445Q74 477 83 503T107 552Q133 591 176 619T273 665T385 691T499 700Q578 700 651 689T773 656Q840 628 869 583T898 489Q898 433 872 390T804 318T711 273T611 257Q590 257 570 259T530 267Q544 248 565 218T608
154T650 91T682 47Q704 18 734 -15T799 -71T873 -94Q899 -94 918 -81T947 -51Q958 -32 958 -3Q958 20 952 43T938 85Q925 114 916 126Q911 134 911 136Q911 140 915 140Q921 140 932 131Q954 109 966 79T979 17Q979 -26 955 -64Q938 -91 907 -108T836 -125ZM84
-91Q74 -91 53 -89T13 -76T-5 -44Q-5 -31 1 -24Q5 -19 9 -19T11 -24Q8 -39 22 -52T50 -70Q60 -72 69 -73T86 -75Q126 -75 159 -55T218 -3T266 61Q296 107 325 166T385 287T450 409T526 514T616 586Q648 603 677 603Q693 603 706 599Q710 598 709 594T703 591Q699
593 695 593T685 593Q633 593 576 526Q532 474 500 416T441 296T386 174T318 59Q291 21 257 -12T182 -67Q159 -78 135 -84T84 -91Z" />
<glyph unicode="S" glyph-name="S" horiz-adv-x="655" d="M299 -102Q224 -102 174 -77T98 -9T72 86Q72 126 86 168T130 251Q160 292 204 326T300 380T403 401Q454 401 478 381T503 328Q503 309 494 286T466 240Q440 207 402 182T322 142T237 127Q230 127 224 127T211
129Q207 130 207 134T212 138Q253 135 299 151T388 195T454 256Q482 295 482 328Q482 352 465 368T411 385Q362 385 316 365T231 311T163 239Q136 202 122 161T108 82Q108 38 128 1T189 -59T294 -82Q365 -82 423 -58T523 9T587 106T610 222Q610 248 609 272T599
320Q588 355 571 393T541 471T527 552Q527 589 542 626Q562 671 600 698T691 726Q710 726 729 721T763 702T777 666Q777 650 767 643T746 636Q740 636 738 637L741 657Q741 682 727 694T689 707Q661 707 634 692T594 652Q574 615 574 576Q574 542 585 510T613 447T644
388Q684 312 684 229Q684 157 654 97T571 -8T449 -77T299 -102Z" />
<glyph unicode="T" glyph-name="T" horiz-adv-x="586" d="M63 -88Q51 -82 45 -71T38 -49Q38 -38 44 -31Q47 -27 51 -27T54 -31Q51 -46 68 -59T99 -76Q114 -79 129 -79Q160 -79 184 -70Q220 -58 255 -21T322 63Q352 109 381 167T441 288T507 409T582 514T672 586Q623
592 572 602T485 619Q463 623 435 624T376 626Q321 626 266 620T178 598Q120 572 78 527T36 413Q36 385 45 366T70 336Q87 326 105 326Q127 326 150 339T190 379Q198 392 205 417T213 468Q213 482 211 495T201 518Q199 522 199 522Q199 525 202 525Q206 525 209
520Q214 513 219 499T227 472Q228 466 228 460T229 448Q229 428 224 408T208 370Q192 343 165 330T109 316Q86 316 65 325Q34 340 20 368T5 429Q5 451 10 473T26 517Q43 554 73 582T133 626Q183 653 233 664T336 675Q379 675 423 669T512 652Q563 640 617 625Q644
618 681 610T753 601Q773 601 792 606T823 629Q827 635 827 644Q827 649 827 653T827 659Q829 661 831 661Q835 661 838 655Q841 651 841 640Q841 633 840 630Q834 609 814 598T773 584Q765 583 756 583T736 582Q728 582 719 582T701 583Q668 568 632 526Q588 474
556 416T497 296T442 174T374 59Q339 10 295 -29T195 -88Q164 -99 121 -99Q104 -99 89 -97T63 -88Z" />
<glyph unicode="U" glyph-name="U" horiz-adv-x="807" d="M707 -51Q665 -51 651 -24T637 37Q637 92 657 151T702 269Q670 215 633 162T554 66T468 -4Q433 -24 401 -33T340 -43Q303 -43 277 -28Q252 -12 242 13T231 67Q231 84 234 100Q243 156 266 206T320 303T381
397Q397 422 418 461T454 543T470 623Q470 673 444 692T381 712Q337 712 292 694T207 647T142 584Q116 550 100 514T84 445Q84 414 101 391T158 357Q167 355 177 354T196 353Q226 353 245 360Q246 361 248 361Q251 361 252 357T249 351Q229 341 186 341Q167 341
149 344Q97 352 73 382T49 452Q49 523 110 598Q138 632 182 660T278 707T375 725Q410 725 439 714T487 674Q505 647 505 608Q505 571 492 529T459 446T420 374Q397 335 372 291T325 204T291 120T280 47Q283 4 302 -12T347 -29Q373 -29 401 -18T455 9Q494 33 539
79T617 175Q667 250 714 326T812 479Q856 546 905 601T1011 684Q1026 692 1042 696T1074 701Q1096 701 1113 689T1138 647Q1139 644 1139 638Q1139 631 1136 629T1131 632Q1125 659 1104 670T1060 681Q1050 681 1042 679T1025 674Q988 658 948 612T867 501T792
361T733 213T699 79Q698 72 697 60T695 33Q695 14 701 -2T728 -18Q749 -18 772 1T815 49T853 105T879 151Q885 163 893 163Q900 163 894 152Q882 130 863 97T820 29T767 -28T707 -51Z" />
<glyph unicode="V" glyph-name="V" horiz-adv-x="607" d="M292 -40Q287 -40 286 -36T289 -29Q336 3 359 64T394 195Q402 243 405 291T416 388Q420 414 425 437T437 482Q444 503 459 528T493 574T533 607Q550 617 563 620Q535 634 492 645T408 656Q362 656 317
644T231 609Q189 586 152 548T91 463T63 369Q62 345 69 325T93 293Q101 288 112 286T136 283Q158 283 177 290Q180 291 184 291Q189 291 189 288Q189 282 178 278Q158 268 129 268Q99 268 75 280Q48 294 38 321T27 378Q27 437 56 488T130 578T227 638Q271 657 317
665T407 673Q450 673 498 661T581 622Q589 616 583 612Q582 609 577 609Q546 609 527 588T490 535Q473 504 467 461T461 369T459 274T452 190Q443 138 421 89T354 0Q379 9 408 41T467 120T526 215T579 308T618 377Q653 436 690 492T768 594Q816 648 862 672T947
696Q981 696 1005 679T1039 632Q1040 630 1040 626Q1040 618 1035 618Q1031 618 1028 628Q1017 667 978 667Q950 667 910 645T818 570Q772 524 728 463T642 337Q612 291 582 246T520 156Q481 101 441 56T364 -16T292 -40Z" />
<glyph unicode="W" glyph-name="W" horiz-adv-x="880" d="M293 -40Q288 -40 287 -36T290 -29Q304 -18 317 -6T339 20L350 39Q372 78 383 125T399 225T409 327T422 423Q427 449 434 472T453 516Q464 535 482 558T522 596Q536 606 547 611T566 618Q538 633 495 644T408
656Q362 656 317 644T231 609Q189 586 152 548T91 463T63 369Q62 345 69 325T93 293Q101 288 112 286T136 283Q158 283 177 290Q180 291 184 291Q189 291 189 288Q189 282 178 278Q158 268 129 268Q99 268 75 280Q48 294 38 321T27 378Q27 437 56 488T130 578T227
638Q271 657 317 665T407 673Q450 673 498 661T581 622Q585 619 585 616V615Q585 609 578 609Q545 609 524 586T490 529T472 460T465 400Q464 328 460 260T439 132T378 23Q377 22 377 20Q377 13 387 20Q417 46 448 88T507 175T558 257Q600 326 639 392T713 509T772
577Q814 607 837 615T883 622Q890 622 890 616Q890 609 883 609Q852 609 833 588T796 535Q780 506 775 466T769 378T767 280T756 179T725 84T660 0Q694 12 731 59T809 175T893 323T982 479T1074 620Q1118 679 1167 700T1254 722Q1302 722 1328 688Q1330 686 1330
683Q1330 680 1328 679T1322 681Q1316 686 1308 688T1290 690Q1277 690 1262 687Q1210 676 1162 639T1071 548T987 429T907 297T831 169T755 60T678 -15T598 -40Q593 -40 592 -37T595 -29Q636 -1 659 49T693 161T709 282T722 388Q727 425 740 470T779 552T845 605Q821
600 794 574T737 509T678 425T623 334T577 253T542 194Q510 142 477 95T410 16L394 3Q369 -18 344 -30T293 -40Z" />
<glyph unicode="X" glyph-name="X" horiz-adv-x="712" d="M631 -154Q627 -159 622 -159Q618 -159 617 -155T618 -148Q630 -129 635 -105T641 -52Q641 -20 635 16Q631 44 621 83T598 167T572 255Q535 201 489 143T386 33T264 -48T122 -77Q73 -75 43 -43T13 35Q13
76 39 117T106 176Q111 178 113 177T109 170Q77 145 61 110T45 46Q45 2 71 -29T140 -60Q209 -60 285 -11T438 128Q473 169 503 209T561 290L530 390Q520 422 512 458T504 532Q504 571 517 606T564 665Q537 664 512 663T467 660Q386 655 304 625T160 541Q124 508
100 468T76 388Q76 348 98 331T150 314Q176 314 201 323Q249 340 283 382T317 476Q317 486 315 497T306 512Q302 514 303 518T309 521Q329 519 336 499T344 460Q344 427 327 397T283 345T226 312Q209 306 192 303T157 299Q114 299 82 323T49 400Q49 446 73 488T131
563Q201 630 290 654T472 679Q503 679 533 679T595 677Q614 677 614 672Q614 670 607 668T589 665H583Q582 664 582 664T581 664Q561 654 553 632T544 579Q544 536 557 485T587 386L601 347Q651 421 701 490T818 626Q853 661 882 679T948 713Q968 722 987 726T1023
730Q1041 730 1059 725Q1061 724 1061 722Q1061 720 1059 718T1053 716Q1041 720 1025 720Q997 720 961 705T884 654Q799 581 736 493T612 314Q626 273 640 224T667 129T684 48Q686 40 686 31T686 11Q686 -11 683 -35T672 -82Q686 -64 707 -42T749 -9Q752 -7 754
-7T758 -7Q767 -7 767 -15Q767 -24 760 -26Q744 -27 726 -42T691 -78T658 -119T631 -154Z" />
<glyph unicode="Y" glyph-name="Y" horiz-adv-x="744" d="M282 -325Q264 -325 245 -319T212 -301T199 -272Q199 -260 204 -251Q206 -248 209 -245T215 -241Q219 -241 218 -249Q215 -275 240 -290T297 -306Q333 -306 373 -285T452 -213Q488 -166 521 -110T582 4T634
116T674 212L699 274Q664 216 624 160T538 58T443 -15T340 -43Q286 -43 259 -13T231 67Q231 82 234 100Q243 156 266 206T320 303T381 397Q397 423 418 458T454 533T470 609Q470 626 466 642T450 671Q435 690 409 698T349 706Q291 706 231 681T120 613T38 519Q22
492 12 463T2 405Q2 398 3 390T6 374Q13 346 33 332T78 318Q107 318 135 337Q164 357 181 389T198 458Q198 480 190 504Q188 512 183 519T173 528Q168 530 168 533T178 536Q197 536 208 515T223 476Q224 471 224 466T225 456Q225 420 207 386T160 332Q120 303 77
303Q45 303 19 320T-19 374Q-26 395 -26 420Q-26 449 -17 478T6 532Q39 592 95 634T219 700T352 723Q393 723 426 711T479 674Q494 655 500 635T506 592Q506 555 492 516T458 440T420 374Q390 324 358 267T303 155T280 56Q280 8 299 -10T348 -29Q395 -29 443 4T539
90T628 207T704 331T759 439Q779 484 805 528T862 606T930 647Q933 648 936 648T941 648Q955 648 962 641T970 626Q970 618 963 611T942 603Q909 602 883 582T837 530T803 466T779 405Q748 318 723 231T665 56T581 -119Q526 -210 454 -267T282 -325Z" />
<glyph unicode="Z" glyph-name="Z" horiz-adv-x="812" d="M710 -89Q688 -98 664 -102T614 -106Q561 -106 506 -91T398 -54T296 -9T207 33Q191 20 167 11T118 1Q93 1 82 10T70 29Q70 42 83 52Q91 60 104 62T132 65Q147 65 162 64T188 60Q232 91 284 133T392 224T497
323Q559 385 622 445T748 555Q769 572 785 580T819 592Q771 607 735 614T662 626T573 631Q511 633 449 622T332 581T236 501Q222 484 209 457T196 403Q196 371 220 355Q229 349 241 347T267 344Q295 344 325 353T374 372Q398 386 425 410T471 465T490 526Q490 539
486 550V554Q486 559 488 560T494 555Q503 537 503 518Q503 486 483 454T434 396T379 356Q357 345 329 338T272 330Q256 330 241 332T214 342Q189 355 178 378T167 428Q167 452 174 476T195 518Q233 573 286 604T399 649T522 663Q536 663 550 663T578 661Q623 657
657 652T722 638T786 620T861 598Q874 594 874 590Q874 585 859 585Q856 585 853 585T846 586Q830 579 804 565T755 531Q688 474 633 408T527 286Q469 222 393 163T224 48Q262 34 308 16T406 -19T507 -47T603 -58Q651 -58 688 -43Q731 -25 757 9T784 84Q784 108
773 132T737 178Q722 192 706 201T677 218Q671 223 671 224Q671 227 674 228T679 229Q711 218 742 192Q777 163 793 127T809 55Q809 9 784 -30T710 -89Z" />
<glyph unicode="[" glyph-name="bracketleft" horiz-adv-x="212" d="M79 -111V731H212V705H120V-86H212V-111H79Z" />
<glyph unicode="\" glyph-name="backslash" horiz-adv-x="425" d="M359 -35L73 674H111L397 -35H359Z" />
<glyph unicode="]" glyph-name="bracketright" horiz-adv-x="296" d="M157 -111V-86H251V705H157V731H291V-111H157Z" />
<glyph unicode="^" glyph-name="asciicircum" horiz-adv-x="314" d="M287 282L195 398L67 283Q65 281 63 281Q59 281 56 284T56 290L182 417Q193 428 202 428Q210 428 215 421L298 291Q299 290 299 288Q299 284 295 282T287 282Z" />
<glyph unicode="_" glyph-name="underscore" horiz-adv-x="428" d="M0 -54V-30H428V-54H0Z" />
<glyph unicode="`" glyph-name="grave" horiz-adv-x="224" d="M209 389L83 460Q77 463 77 470Q77 478 84 485T99 493Q103 493 107 490Q132 471 162 446T215 405Q219 402 219 398Q219 394 216 391T209 389Z" />
<glyph unicode="a" glyph-name="a" horiz-adv-x="357" d="M287 -7Q255 -7 243 13T231 59Q231 64 232 76T236 100Q222 81 203 58T163 19Q131 -7 105 -7Q80 -7 67 14T53 67Q53 108 71 150T118 229T184 294Q205 309 235 318T297 328Q332 328 358 318T395 288Q374
261 352 222T314 150Q303 128 290 96T277 40Q277 30 282 20T301 10Q317 10 332 22T357 46Q380 71 399 101T437 165Q440 169 443 169Q447 169 447 163Q447 158 445 155Q428 122 407 89T357 27Q343 13 324 3T287 -7ZM127 24Q146 24 168 44T212 94T251 151T279 194Q300
227 318 249T374 283Q376 283 377 283T381 284Q372 298 351 305T310 312Q279 312 250 295T197 252Q174 225 152 193T117 128T103 65Q103 49 108 37T127 24Z" />
<glyph unicode="b" glyph-name="b" horiz-adv-x="336" d="M106 -13Q74 -13 61 6T47 52Q47 72 53 91Q59 113 74 151T107 233T145 319Q153 337 163 359T184 404T202 440Q220 475 245 523T302 618T375 700T462 741Q466 742 472 742Q495 742 506 728T518 694Q518 676
511 661Q495 625 461 585T387 508T316 440Q290 415 270 397T233 360T196 320Q185 295 175 270T163 240Q191 278 224 306T286 335Q319 335 331 318T344 275Q344 251 336 224T318 173T297 131Q287 115 275 98T247 64Q251 51 260 45T281 39Q295 39 310 45T336 61Q359
80 378 106T413 160Q414 162 414 162T415 162Q417 162 417 153Q417 149 417 146T415 139Q398 109 380 86T336 44Q309 25 278 25Q264 25 252 31T235 51Q207 24 175 6T106 -13ZM212 355Q235 381 255 401T304 452Q332 480 368 518T437 595T485 664Q497 688 497 703Q497
732 463 727Q430 723 400 694T342 622T290 529T247 434T212 355ZM149 20Q171 35 191 61T226 113T250 154Q256 165 266 188T286 239T295 286Q295 300 290 308T270 317Q257 317 240 303T205 266Q184 240 159 204T114 128T83 57Q80 45 80 36Q80 20 88 13T109 6Q129
6 149 20Z" />
<glyph unicode="c" glyph-name="c" horiz-adv-x="265" d="M163 -11Q111 -11 89 20T67 95Q67 142 87 190Q102 226 126 257T183 309T257 329Q287 329 303 315T320 276Q320 268 319 259T312 239Q305 221 294 207T269 185Q262 181 253 181Q246 181 240 185T234 198Q234
214 251 232T297 252Q302 265 302 275Q302 291 292 302T261 314Q235 314 210 295T166 244T134 177Q128 161 123 137T118 88Q118 57 131 33T183 8Q210 8 234 23T277 62T312 109T338 153Q339 157 343 157Q348 157 348 149Q348 145 345 140Q324 103 300 69T243 12T163
-11Z" />
<glyph unicode="d" glyph-name="d" horiz-adv-x="385" d="M317 -7Q283 -7 268 16T253 75Q253 110 265 144L275 173L238 116Q224 94 202 67T154 19Q122 -7 96 -7Q71 -7 58 14T44 67Q44 89 50 111Q65 167 96 213T174 294Q194 309 225 318T287 328Q299 328 311 326T333
321Q341 339 351 361T372 404T390 440Q410 481 440 538T510 644Q541 683 581 712T660 742Q683 742 694 728T706 694Q706 676 699 661Q683 625 649 585T575 508T504 440Q478 415 458 397T421 360T384 320Q362 270 344 220T314 127T302 55Q302 14 327 11Q344 11 359
22T385 46Q408 71 427 101T465 165Q468 169 471 169Q475 169 475 163Q475 158 473 155Q455 122 435 89T385 27Q372 14 355 4T317 -7ZM400 355Q423 381 443 401T492 452Q520 480 556 518T625 595T673 664Q685 688 685 703Q685 728 660 728Q629 728 596 700T530 622Q503
580 479 531T435 435T400 355ZM117 24Q135 24 160 48T213 109T264 181Q271 191 282 214T307 263T329 310Q323 312 318 312T306 312Q275 312 245 296T190 252Q156 215 133 173T101 98Q96 80 96 61Q96 46 100 35T117 24Z" />
<glyph unicode="e" glyph-name="e" horiz-adv-x="262" d="M170 -8Q112 -8 88 22Q76 35 71 53T66 90Q66 114 72 138T87 184Q101 217 124 250T179 307T251 330Q277 330 292 317T307 277Q307 246 288 215T240 162T180 141Q152 141 131 161Q125 145 121 126T117 86Q117
55 129 32T175 9Q199 9 221 21T262 52Q282 73 300 97T335 153Q337 156 338 156Q342 156 342 147Q342 141 338 134Q323 107 303 80T262 32Q243 14 221 3T170 -8ZM136 176Q143 166 152 162T172 157Q196 157 222 175T264 219Q271 230 276 248T282 282Q282 296 277
306T255 317Q237 317 213 295T166 238Q159 226 151 210T136 176Z" />
<glyph unicode="f" glyph-name="f" horiz-adv-x="251" d="M33 -343Q-4 -343 -18 -315T-32 -247Q-32 -203 -23 -152T0 -54Q14 -7 31 45T71 148Q92 198 124 266T197 406T284 544T381 658T484 722Q490 723 496 724T509 725Q524 725 535 718Q549 709 549 686Q549 670
540 647Q524 607 488 561T402 467Q342 409 287 365T197 295Q168 236 144 185T105 97T85 48Q74 14 59 -28T30 -112Q26 -125 20 -149T10 -200T5 -254Q5 -282 14 -303T45 -324Q56 -324 67 -316T94 -289Q120 -257 138 -209T165 -116Q167 -105 169 -88T172 -51Q172 -37
170 -23T161 0Q153 9 141 9Q130 9 122 3Q110 -7 112 -20Q92 -6 92 13Q92 31 106 44T140 58Q162 58 176 45T195 14V13Q240 30 271 71T326 157Q329 164 332 164Q335 164 335 156Q335 148 332 142Q309 99 278 60T199 0Q201 -7 201 -15T201 -33Q201 -53 199 -76T190
-125Q178 -174 156 -222T105 -303Q89 -319 71 -331T33 -343ZM208 315Q267 359 313 403T409 498Q423 513 445 538T490 592T523 648Q533 671 533 687Q533 714 508 714Q495 714 479 706T449 684Q410 647 368 587T285 456T208 315Z" />
<glyph unicode="g" glyph-name="g" horiz-adv-x="348" d="M41 -273Q25 -277 9 -277Q-21 -277 -36 -263T-51 -227Q-51 -209 -39 -189T-3 -152Q28 -131 53 -119T109 -94T184 -60Q200 -28 215 13T244 94T272 163Q268 159 256 142T238 116Q223 96 201 68T154 19Q122
-7 96 -7Q71 -7 58 14T44 67Q44 89 50 111Q81 226 174 294Q193 308 221 316T277 325Q316 325 345 308L348 311Q371 345 394 368T449 398Q415 361 384 305T328 185T281 66T245 -29Q300 -1 344 46T420 150Q427 164 435 164Q437 164 437 161Q437 157 433 150Q415 118
395 88T348 31Q326 7 299 -13T238 -48Q214 -104 187 -151T125 -230T41 -273ZM117 24Q137 24 159 44T203 94T242 151T269 194Q284 217 301 243T340 300Q321 310 299 310Q270 310 242 294T190 252Q156 215 133 173T101 98Q96 80 96 61Q96 46 100 35T117 24ZM35 -252Q70
-241 96 -214T141 -151T175 -79Q144 -95 96 -113T4 -165Q-15 -180 -24 -196T-34 -226Q-34 -239 -25 -248T3 -257Q10 -257 18 -256T35 -252Z" />
<glyph unicode="h" glyph-name="h" horiz-adv-x="331" d="M263 -7Q229 -7 216 13T202 56Q202 66 204 75T209 94Q226 138 256 178T306 261Q313 274 313 285Q313 297 306 303T291 309Q272 309 250 293T206 251Q187 229 167 201T129 140Q112 111 94 80T65 26Q57 9
48 4T31 -1Q27 -1 23 -1T16 0Q25 34 49 93T108 235Q127 279 153 336T212 454T285 569T371 665T470 722Q476 723 482 724T494 725Q509 725 520 718Q534 709 534 686Q534 670 525 647Q509 607 473 561T387 467Q326 408 270 363T180 292Q160 249 147 218T130 172Q146
196 166 224T203 269Q226 292 249 308T294 326Q328 329 343 318T358 284Q358 262 346 235Q333 204 315 173T282 113Q278 105 268 83T254 40Q254 39 254 37T253 33Q253 22 259 17T273 11Q290 11 305 22T331 46Q354 71 373 101T411 165Q414 169 417 169Q421 169 421
163Q421 158 419 155Q401 122 381 89T331 27Q318 14 301 4T263 -7ZM189 312Q249 356 297 401T394 498Q408 513 430 538T475 592T508 648Q518 671 518 687Q518 714 493 714Q480 714 464 706T434 684Q386 639 341 575T257 441T189 312Z" />
<glyph unicode="i" glyph-name="i" horiz-adv-x="172" d="M102 -6Q74 -6 61 12T48 58Q48 66 49 74T53 92Q64 132 87 181T133 270Q146 292 157 301T181 315T212 326Q217 328 222 329T233 331Q213 311 193 283T148 206Q135 180 123 148T101 88T91 44Q90 25 96 17T112
9Q129 9 144 21T172 46Q194 71 213 101T252 165Q255 169 257 169Q261 169 261 163Q261 158 259 155Q241 122 221 89T172 27Q159 14 142 4T102 -6ZM224 387Q213 387 206 395T198 414Q198 428 209 439T235 452Q246 452 253 445T261 425Q261 412 250 400T224 387Z"
/>
<glyph unicode="j" glyph-name="j" horiz-adv-x="178" d="M229 385Q216 385 208 393T200 413Q200 430 213 442T241 454Q254 454 262 447T270 427Q270 411 257 398T229 385ZM-155 -282Q-171 -286 -187 -286Q-216 -286 -231 -272T-246 -237Q-246 -219 -234 -199T-198
-162Q-167 -141 -142 -128T-87 -103T-12 -69Q-5 -53 1 -38T14 -9Q31 36 51 94T92 199Q106 230 118 259T152 306T215 321Q197 304 175 261T130 163T86 52T47 -46Q73 -34 110 -12T178 46Q201 70 220 100T258 165Q259 169 262 169Q265 169 266 164T265 153Q247 120
227 88T178 27Q143 -7 106 -31T37 -66Q13 -122 -13 -167T-72 -241T-155 -282ZM-161 -262Q-126 -251 -100 -224T-54 -160T-20 -88Q-52 -105 -100 -123T-191 -174Q-210 -189 -220 -205T-230 -236Q-230 -249 -221 -258T-192 -267Q-185 -267 -178 -266T-161 -262Z"
/>
<glyph unicode="k" glyph-name="k" horiz-adv-x="341" d="M270 -9Q234 -9 215 12T189 63T181 122Q181 148 186 175T207 221Q216 232 228 238T239 237Q237 233 237 229Q238 221 246 217T266 212Q278 212 291 216T316 228Q329 237 339 251T349 282Q349 298 341 304T321
310Q316 310 310 309T299 306Q267 296 236 269T177 205T127 133Q113 109 97 78T76 27Q71 9 60 4T36 -1T17 0Q22 14 30 38T48 86T63 125Q89 189 119 262T185 407T263 544T355 654T463 722Q468 723 474 724T486 725Q502 725 513 718Q527 709 527 687Q527 670 518
647Q502 607 466 561T381 467Q323 412 270 369T182 299Q161 253 147 218T128 168Q150 200 177 231T232 284Q292 329 345 329Q375 329 386 311Q389 307 390 301T391 290Q391 271 381 253T357 224Q341 212 320 205T278 197Q257 197 242 206L234 211Q232 196 230 177T228
136Q228 126 228 117T230 97Q232 81 236 61T252 25T281 9Q298 9 314 21T341 46Q364 71 380 96T422 168Q424 171 425 171Q429 171 429 162Q429 156 426 150Q410 120 390 87T341 25Q328 12 310 2T270 -9ZM191 319Q248 362 294 405T388 498Q402 513 424 538T468 592T501
648Q511 672 511 687Q511 714 487 714Q474 714 458 706T428 684Q381 640 337 577T256 447T191 319Z" />
<glyph unicode="l" glyph-name="l" horiz-adv-x="195" d="M125 -6Q89 -6 75 15T61 68Q61 101 71 140T96 216T124 281T143 320Q161 358 187 406T247 504T318 599T396 677T477 722Q488 725 497 725Q514 725 525 716T537 683Q537 667 529 643Q516 608 485 566T412
478T324 388T233 306T155 241Q146 222 139 204T125 169Q122 160 116 142T105 102T100 60Q100 40 108 26T137 11Q154 11 168 22T195 46Q237 94 270 157Q274 164 276 164Q278 164 278 158Q278 149 274 139Q255 104 240 80T195 27Q182 14 165 4T125 -6ZM166 264Q197
291 238 328T322 409T403 495T470 576T509 642Q518 668 518 682Q518 708 495 708Q482 708 464 699T431 674Q406 650 373 606T302 504T230 385T166 264Z" />
<glyph unicode="m" glyph-name="m" horiz-adv-x="515" d="M447 -6Q417 -6 401 12T385 59Q385 90 401 121T437 183T474 240T490 288Q490 296 486 302T471 309Q439 309 405 280T338 204T281 108T241 16Q225 20 220 28T214 47Q214 63 218 78T233 115T259 171T297
261Q300 269 301 275T302 286Q302 309 283 309Q259 309 234 290T186 238T141 169T103 97T75 35Q65 12 51 6T24 -1Q20 -1 15 -1T4 0Q24 40 46 87T88 183T119 275T131 351Q131 355 131 357T130 361Q130 364 132 364Q142 364 148 352T156 324T159 299Q159 274 153
248T139 203Q177 254 217 290T298 326Q325 326 337 315T349 284Q349 270 345 256T330 218Q368 270 404 298T477 326Q506 326 520 313T535 278Q535 254 520 222T484 155T449 90T433 39Q433 28 438 19T456 10Q473 10 488 21T515 46Q538 71 557 101T596 166Q599 170
600 170Q604 170 604 161Q604 155 602 152Q584 119 564 88T515 27Q502 14 485 4T447 -6Z" />
<glyph unicode="n" glyph-name="n" horiz-adv-x="326" d="M258 -6Q229 -6 213 12T196 57Q196 70 201 87Q215 131 245 174T296 261Q303 275 303 286Q303 297 297 302T281 308Q268 308 249 298T204 258Q189 240 170 214T139 167Q119 133 103 99T75 35Q65 12 51 6T24
0T4 0Q32 55 59 116T105 238Q114 266 120 292T125 327V329Q125 337 133 333Q146 326 151 313T156 282Q156 263 151 242T139 203Q152 221 167 239T200 275Q221 296 245 311T297 327Q324 327 336 315T349 283Q349 262 337 235Q324 204 306 173T272 113Q269 107 263
95T251 67Q249 60 247 53T245 37Q245 27 249 19T267 10Q284 10 299 21T326 46Q349 71 368 101T407 166Q410 170 411 170Q415 170 415 161Q415 155 413 152Q395 119 375 88T326 27Q313 14 296 4T258 -6Z" />
<glyph unicode="o" glyph-name="o" horiz-adv-x="378" d="M155 -20Q117 -20 90 4T62 80Q62 112 73 146T99 208Q125 257 164 293T259 330Q312 330 333 301T354 230Q354 213 351 195Q343 146 318 100Q325 90 336 84T362 77Q386 77 403 90T432 122T454 159Q460 170
465 170Q468 170 468 166Q468 162 462 148Q445 114 422 89T362 64Q328 64 310 88Q282 42 242 11T155 -20ZM157 -8Q206 -8 254 40Q268 54 279 69T300 101Q287 116 282 133T276 167Q276 192 285 211T310 231Q318 231 325 223T335 198Q338 212 338 228Q338 266 324
288T277 311Q257 311 236 296T197 258T164 213T143 175Q126 138 119 109T111 58Q111 26 124 9T157 -8Z" />
<glyph unicode="p" glyph-name="p" horiz-adv-x="314" d="M-226 -335Q-257 -346 -289 -346Q-333 -346 -368 -325T-403 -261Q-403 -253 -402 -246T-398 -229Q-395 -222 -394 -223T-392 -229Q-392 -278 -359 -304T-281 -330Q-254 -330 -229 -321Q-188 -307 -156
-277T-101 -213Q-79 -181 -57 -139T-15 -51T23 38T54 116Q69 155 89 201T135 293T189 378T251 441Q274 459 299 459Q303 459 306 459T314 457Q316 456 316 455T312 453Q302 452 288 444T254 408Q246 396 219 357T167 263Q196 296 221 310T266 324Q298 324 310 308T322
268Q322 246 315 221T297 173T277 134Q270 121 256 103T224 66Q227 52 236 46T259 40Q273 40 288 46T314 61Q337 80 356 106T391 160Q392 162 392 162T393 162Q395 162 395 153Q395 149 395 146T393 139Q376 109 358 86T314 44Q301 36 286 31T255 25Q240 25 229
31T212 53Q195 37 172 21T123 2Q119 1 116 1T109 1Q74 1 66 28Q51 -15 24 -69T-40 -176T-123 -272T-226 -335ZM103 16Q121 16 139 30T175 67T208 113T234 156Q240 166 250 187T268 234T276 278Q276 292 271 300T252 308Q236 308 216 290T175 245T137 191Q133 184
123 167T103 128T85 84T77 45Q77 16 103 16Z" />
<glyph unicode="q" glyph-name="q" horiz-adv-x="360" d="M166 -349Q132 -349 117 -325T101 -264Q101 -222 116 -169T155 -62T201 39T241 116Q226 95 204 67T156 19Q124 -6 98 -6Q73 -6 60 16T46 69Q46 94 52 117T65 153Q92 212 137 260T245 323Q256 325 267 326T290
328Q312 328 332 323T368 304L360 300Q335 313 309 313Q285 313 260 302Q222 285 191 252T137 177T104 98Q98 76 98 54Q100 24 121 24Q138 24 157 40T195 80T231 130Q237 139 248 159T273 201T296 241T310 263Q324 278 351 282T394 290Q349 232 315 171T246 37Q230
1 211 -42T176 -130T149 -214T138 -282Q138 -331 176 -331Q187 -331 198 -326T220 -309Q239 -289 256 -257T285 -191T303 -138Q306 -127 311 -105T316 -61Q316 -41 310 -27T286 -13Q273 -13 264 -22T252 -42Q241 -37 241 -25Q241 -11 256 4T296 20Q311 20 320 14Q331
19 341 27T360 46Q383 71 402 101T440 165Q443 169 446 169Q450 169 450 163Q450 158 448 155Q430 122 410 89T360 27Q354 21 347 15T331 4Q345 -16 345 -51Q345 -94 325 -156Q314 -190 294 -234T230 -321Q202 -349 166 -349Z" />
<glyph unicode="r" glyph-name="r" horiz-adv-x="276" d="M268 18Q251 4 235 -2T204 -9Q179 -9 163 8T146 55Q146 72 154 96Q167 132 193 165T243 232Q258 252 258 271Q258 281 253 288T233 296Q225 298 215 298T195 298H167Q161 298 156 298T147 299Q143 274
131 243T102 181T71 125Q67 119 64 119Q61 119 61 125Q61 132 64 136Q85 177 104 216T131 299Q108 312 100 344Q99 349 99 353T98 362Q98 380 105 392T123 405Q137 405 146 378Q148 371 149 363T150 346Q150 337 150 330T148 317Q155 315 166 314T192 313Q213 313
236 314T275 316Q294 316 301 308T308 288Q308 273 301 256T286 226Q273 202 262 184T236 144Q215 112 206 86T196 41Q196 10 219 10Q238 10 268 37Q287 54 303 77T333 125T356 166Q358 169 360 169Q364 169 364 161Q364 155 361 150Q344 119 322 82T268 18Z" />
<glyph unicode="s" glyph-name="s" horiz-adv-x="268" d="M101 -8Q80 -8 63 0T34 30Q26 48 26 69Q26 91 34 110Q42 127 52 140T74 155Q83 175 101 208T143 274T188 327Q193 332 205 343T234 366T265 379Q268 380 273 380Q285 380 291 374T297 360Q297 352 291
344T272 331Q267 330 258 328T230 326Q223 316 223 298Q223 278 229 253T242 205T249 165Q251 128 238 91T195 27L181 17Q184 16 187 16T193 15Q210 15 231 25T268 52Q292 75 309 101T342 155Q343 159 347 159Q352 159 352 151Q352 147 349 142Q334 114 313 84T268
32Q250 16 230 9T195 1Q185 1 179 3T168 9Q154 2 137 -3T101 -8ZM139 18Q159 32 170 54T188 101Q196 131 197 163T199 221V256Q199 277 204 299T216 326Q201 320 183 300T147 252T115 198T92 155Q111 156 118 145T122 128Q114 130 111 130Q96 130 83 119Q70 109
61 90T52 52Q52 28 66 17T99 6Q121 6 139 18Z" />
<glyph unicode="t" glyph-name="t" horiz-adv-x="192" d="M114 -7Q89 -7 70 7T50 55Q50 90 67 132T99 207Q107 223 120 250T150 305H103Q100 305 100 310Q100 314 103 318T110 323Q138 323 152 328T176 342Q192 356 207 378T238 416Q249 430 265 437T287 442Q282
435 271 418T248 381T226 344T213 321H279Q282 321 282 319Q282 315 278 310T269 305H204Q186 274 162 225T118 129Q114 120 105 93T95 43Q95 28 101 18T124 8Q141 8 161 20T192 46Q215 71 234 101T272 165Q275 169 278 169Q282 169 282 163Q282 158 280 155Q262
122 242 89T192 27Q179 14 157 4T114 -7Z" />
<glyph unicode="u" glyph-name="u" horiz-adv-x="360" d="M105 -6Q74 -6 61 12T47 56Q47 89 60 128T92 202T121 258Q143 295 165 304T221 313Q211 310 195 290T162 239T129 175T104 108T94 52Q94 35 100 24T121 13Q133 13 149 22T178 46Q222 95 249 153T311 270Q333
307 355 316T411 325Q401 322 384 301T349 247T314 179T288 108T277 50Q277 34 283 24T303 13Q315 13 331 23T360 46Q383 71 402 101T440 165Q443 169 445 169Q449 169 449 163Q449 158 447 155Q429 122 409 89T360 27Q344 11 323 1T280 -6Q252 -1 240 16T228 59Q228
79 234 101Q222 82 209 63T178 27Q164 13 145 4T105 -6Z" />
<glyph unicode="v" glyph-name="v" horiz-adv-x="313" d="M111 -7Q76 -7 61 18T46 74Q46 96 52 117Q62 152 77 187T107 255Q109 260 114 272T120 297V300Q120 308 116 312T106 316Q98 316 93 312Q91 310 88 310Q85 310 85 313Q85 322 95 326Q109 333 124 333Q142
333 155 322T169 287Q169 258 156 230T130 173Q119 150 108 126T92 79Q89 66 89 53Q89 37 97 26T125 14Q151 14 174 31T216 74T250 127T271 175Q270 183 268 199T266 237Q266 253 268 270T274 306Q277 317 286 334T309 351Q320 353 326 344T332 318Q332 287 320
245T288 162Q287 133 296 117T322 101Q346 101 366 127T401 182Q408 195 413 195Q416 195 416 191Q416 184 411 175Q401 155 390 135T362 101T321 88Q300 88 289 102T275 135Q262 112 249 91T222 55Q200 28 173 11T111 -7Z" />
<glyph unicode="w" glyph-name="w" horiz-adv-x="523" d="M305 -7Q277 -7 257 14T236 75Q236 90 239 106Q229 87 212 66T178 27Q162 11 141 2T98 -6Q70 -3 59 14T47 56Q47 89 60 128T92 202T121 258Q143 295 165 304T221 313Q211 310 195 290T162 239T129 175T104
108T94 52Q94 35 100 24T121 13Q133 13 149 22T178 46Q222 95 249 153T311 270Q333 307 355 316T411 325Q402 322 386 302T351 250T316 184T289 117T278 63Q278 33 294 24T323 14Q349 14 372 31T415 74T449 127T472 175Q468 191 468 232Q468 257 471 283T481 328Q491
353 512 353Q520 353 526 345T533 318Q533 290 525 261T511 220Q507 210 501 196T487 164Q486 133 497 114T526 94Q545 94 559 105T584 133T602 164Q605 170 610 170Q614 170 614 165Q614 162 611 156Q599 129 577 105T523 81Q507 81 492 94T473 135Q456 105 433
72T378 16T305 -7Z" />
<glyph unicode="x" glyph-name="x" horiz-adv-x="356" d="M287 -7Q255 -7 238 8T212 47T203 94T201 135Q184 115 164 89T126 40T98 0H49Q63 10 88 35T144 92T201 152L207 229Q208 234 208 244T209 267Q209 274 209 281T207 294Q204 312 190 312Q180 312 173 302Q162
288 151 269T135 243L79 138Q75 129 71 129Q68 129 68 135Q68 142 73 152Q87 178 97 199T121 246Q134 269 145 289T173 322T215 335Q243 335 253 316T263 269Q263 250 263 230T260 195Q286 225 314 262T357 321H405Q393 312 368 287T314 232T258 173Q257 160 257
147T256 119Q256 91 259 65Q262 48 270 30T299 10Q313 10 329 22T356 46Q379 71 398 100T436 165Q439 171 443 171Q447 171 447 165Q447 160 443 152Q425 119 405 88T356 27Q324 -7 287 -7Z" />
<glyph unicode="y" glyph-name="y" horiz-adv-x="439" d="M105 -282Q89 -286 73 -286Q44 -286 29 -272T14 -237Q14 -219 26 -199T62 -162Q93 -141 118 -128T174 -103T249 -69Q254 -58 260 -43T280 7T321 111Q299 84 277 61T241 25Q221 10 203 2T166 -7Q142 -7
133 7T123 40Q123 56 127 73T138 105Q152 140 168 171T201 237Q205 245 212 263T220 296Q220 313 205 313Q191 313 177 300T151 269T134 242Q134 242 125 223T101 177T71 125Q68 120 63 120Q59 120 59 124Q59 126 64 136Q86 175 98 201T127 255Q143 284 164 310Q178
325 194 332T227 340Q255 340 265 328T276 297Q276 278 268 258T252 223Q227 179 211 147T183 84Q174 62 174 48Q174 22 196 22Q214 22 233 38Q286 81 319 139T382 260Q392 280 407 303T444 343T495 358Q481 345 462 310T421 228T378 130T339 33T307 -46Q334 -35
370 -13T439 46Q462 70 480 100T518 165Q521 169 524 169Q528 169 528 163Q528 158 526 155Q508 122 488 89T439 27Q403 -7 367 -31T298 -67Q274 -121 248 -166T187 -241T105 -282ZM99 -262Q135 -251 161 -224T206 -160T240 -88Q208 -105 160 -123T69 -174Q50 -189
40 -205T30 -235Q30 -249 40 -258T69 -267Q75 -267 82 -266T99 -262Z" />
<glyph unicode="z" glyph-name="z" horiz-adv-x="348" d="M70 -284Q63 -285 57 -285T45 -286Q11 -286 -6 -268T-24 -225Q-24 -204 -12 -182T26 -143Q75 -111 137 -85T260 -24Q263 -16 266 -7T272 13Q275 27 275 38Q275 62 263 73T229 84Q206 84 177 72Q169 69
159 65T138 56Q128 36 109 20T76 2Q73 1 67 1Q48 1 48 18Q48 35 66 45Q93 61 117 79T168 122T229 186Q250 210 272 232T318 276Q311 278 296 279T266 283T241 286Q235 287 230 287T219 287Q197 287 179 280T144 250Q131 232 115 203T73 129Q70 123 67 123Q63 123
63 130Q63 135 67 142Q87 176 99 202T129 259Q143 284 157 299T196 321Q204 323 212 324T230 325Q250 325 269 323T305 321Q313 321 330 321T365 323T388 328Q396 325 396 314Q396 301 383 286T344 273Q319 257 289 227T238 175Q230 166 213 150T178 115T144 78Q144
77 144 76T143 73Q162 85 187 93Q207 99 222 101T251 104Q285 104 298 87T312 44Q312 30 309 13Q342 43 371 79T419 150Q428 164 435 164Q437 164 437 161Q437 157 433 150Q415 118 394 88T348 31Q330 13 305 -7Q302 -18 298 -30T289 -54Q266 -111 234 -160T161
-241T70 -284ZM64 -267Q115 -252 149 -216T209 -133T255 -42Q231 -58 191 -76T108 -114T35 -155Q14 -169 4 -188T-6 -226Q-6 -245 5 -258T39 -271Q44 -271 50 -270T64 -267Z" />
<glyph unicode="{" glyph-name="braceleft" horiz-adv-x="314" d="M200 -116Q178 -116 153 -113T105 -102T70 -77T59 -33Q62 5 76 45T103 127T116 205Q116 243 96 255T38 269L42 279Q83 283 108 292T149 325T180 389Q192 423 200 458T221 524T259 579T330 615Q344
619 370 620T416 622L415 613Q358 613 328 595T284 545T260 475T234 397Q222 367 200 339T149 293T86 275H82Q119 271 143 248T164 184Q161 150 149 112T125 36T110 -37Q107 -64 118 -78T147 -97T182 -102T207 -103L200 -116Z" />
<glyph unicode="|" glyph-name="bar" horiz-adv-x="212" d="M94 -35V674H120V-35H94Z" />
<glyph unicode="}" glyph-name="braceright" horiz-adv-x="412" d="M38 -116L39 -106Q96 -106 126 -88T170 -39T194 31T220 110Q232 140 254 168T305 214T368 232H372Q335 235 311 258T290 321Q294 357 305 394T328 470T343 543Q346 570 335 584T306 603T272 608T247
609L253 622Q275 622 300 619T348 608T384 583T395 540Q391 501 377 460T350 378T337 299Q337 262 358 250T416 237L411 228Q371 224 346 214T304 181T273 117Q261 83 253 48T233 -18T195 -73T124 -109Q110 -113 84 -114T38 -116Z" />
<glyph unicode="~" glyph-name="asciitilde" horiz-adv-x="278" d="M204 351Q170 351 144 362T89 373Q67 373 54 366T37 353H28Q28 373 47 388T89 404Q118 404 144 393T204 382Q232 382 243 392T258 407H265Q265 387 249 369T204 351Z" />
<glyph unicode="&#xa0;" glyph-name="uni00A0" horiz-adv-x="169" />
<glyph unicode="&#xa1;" glyph-name="exclamdown" horiz-adv-x="371" d="M319 277Q308 277 302 284T295 302Q295 316 306 326T330 337Q355 337 355 313Q355 299 344 288T319 277ZM-27 -248Q-25 -245 -9 -220T34 -155T92 -68T155 26T212 112T253 174T269 198L286
199L61 -228Q59 -232 43 -236T6 -244T-27 -248Z" />
<glyph unicode="&#xa2;" glyph-name="cent" horiz-adv-x="443" d="M139 0L174 84L171 86Q118 104 94 145T69 239Q69 296 93 358T162 475T265 567T391 610L417 674H446L421 612Q451 611 475 600T499 556Q499 535 486 524T460 512Q450 512 447 519Q449 529 452 542T455
565Q452 579 441 586T414 595L212 105Q230 99 250 99Q275 99 298 107T340 131Q359 147 374 172T390 223Q394 224 400 224Q413 224 419 217T425 198Q425 167 402 144T344 106T271 85T201 80L168 0H139ZM187 116L383 592Q374 591 365 586Q323 569 283 535T213 460T166
382Q135 309 135 236Q135 224 136 213T139 190Q144 164 156 146T187 116Z" />
<glyph unicode="&#xa3;" glyph-name="sterling" horiz-adv-x="868" d="M666 -100Q650 -102 633 -103T597 -105Q522 -105 443 -89T297 -52Q284 -47 246 -34T163 -7Q146 -12 125 -13T85 -14Q76 -14 62 -13T36 -6Q21 1 21 12Q21 21 33 30Q41 35 56 35Q69 35 82 33T99
29L165 15Q200 28 235 65T302 148Q323 180 343 219T385 301H279V321H395Q425 382 457 443T527 556Q550 588 581 619T649 669Q671 680 694 687T742 694Q794 694 821 667T848 599Q848 589 847 578T841 556Q826 507 786 473T698 421Q692 419 691 419Q686 419 686 423Q686
429 694 432Q739 449 775 485T821 570Q822 576 822 581T823 591Q823 632 795 651T729 671Q691 671 659 653Q621 631 585 578T515 457T449 321H564V301H439Q417 254 396 213T354 143Q324 100 286 65T202 8L309 -15Q371 -28 442 -40T582 -53Q626 -53 665 -46T736
-23Q778 -1 803 34T829 107Q829 120 826 132Q823 143 824 146Q826 149 829 149Q841 149 848 133Q853 120 855 108T858 81Q858 41 838 4T781 -59Q756 -76 727 -85T666 -100Z" />
<glyph unicode="&#xa4;" glyph-name="currency" horiz-adv-x="637" d="M118 138Q116 136 115 136Q113 136 112 138T112 144L210 253Q191 275 181 302T170 361Q170 423 211 469L110 581Q108 583 108 584Q108 586 110 587T116 586L228 486Q250 505 277 515T335 526Q396
526 441 487L553 589Q556 591 559 589T558 583L459 470Q500 424 500 361Q500 330 490 304T462 255L561 145Q564 142 561 140T555 139L445 238Q423 219 395 208T335 196Q304 196 277 207T227 236L118 138ZM335 240Q369 240 396 256T439 300T456 361Q456 395 440
422T396 466T335 483Q302 483 275 467T230 423T213 361Q213 328 230 301T274 257T335 240Z" />
<glyph unicode="&#xa5;" glyph-name="yen" horiz-adv-x="614" d="M34 -51Q19 -51 19 -42Q19 -37 29 -37Q65 -37 102 -13T173 48T238 128T293 206H149L161 227H308L319 244Q319 262 318 281T314 321H205L218 343H311Q304 389 291 435T258 522T207 587Q179 612 147
612Q130 612 113 604T82 576Q68 557 59 532T52 489V486Q52 478 46 478Q39 478 37 489Q36 492 36 496T36 504Q36 521 42 542T69 589Q88 612 117 624T175 637Q213 637 243 613T295 550T333 467T355 383T364 314Q407 382 446 450T534 580T649 693Q668 707 692 716T742
726Q762 726 780 718T811 690Q824 671 821 644Q819 636 811 636Q804 636 805 644Q808 664 796 681Q786 696 773 702T746 709Q726 709 706 699T668 675Q627 641 587 587T510 469T436 343H541L528 321H423Q410 296 397 273T369 227H484L472 206H356Q311 133 262 75T157
-17T34 -51Z" />
<glyph unicode="&#xa6;" glyph-name="brokenbar" horiz-adv-x="412" d="M284 274L243 278L320 637H364L284 274ZM143 -196L224 187L264 184L187 -196H143Z" />
<glyph unicode="&#xa7;" glyph-name="section" horiz-adv-x="793" d="M249 -243Q174 -243 124 -218T48 -150T22 -55Q22 27 81 110Q110 151 153 185T248 240T351 261Q403 261 427 241T452 188Q452 146 416 99Q390 66 352 41T272 2T187 -13Q180 -13 174 -13T161
-11Q157 -11 157 -7T162 -3Q203 -6 250 10T338 54T405 115Q433 152 433 187Q433 211 416 227T361 244Q312 244 266 224T181 170T113 98Q86 61 72 20T58 -59Q58 -104 78 -141T139 -201T245 -224Q313 -224 371 -199T472 -131T540 -32T565 86Q565 132 550 178Q539
213 522 251T492 329T478 411Q478 448 493 485Q510 523 540 549T611 582Q613 593 616 604T624 626Q644 671 682 698T773 726Q792 726 811 721T844 702T858 666Q858 650 848 643T828 636Q822 636 819 637Q822 648 822 659Q822 683 808 695T771 707Q743 707 716 692T675
652Q655 615 655 576Q655 542 666 510T695 447T726 388Q766 310 766 229Q766 141 723 70T606 -43Q572 -101 519 -146T397 -217T249 -243ZM624 11Q665 41 681 94T698 204Q698 236 694 265T681 320Q670 357 652 396T621 477T609 562Q589 555 571 542T544 512Q533
493 529 474T524 435Q524 401 536 369T564 305T595 246Q615 209 624 168T634 87Q634 67 632 48T624 11Z" />
<glyph unicode="&#xa8;" glyph-name="dieresis" horiz-adv-x="236" d="M85 396Q75 396 68 403T61 421Q61 435 72 445T96 456Q107 456 114 449T122 431Q122 417 111 407T85 396ZM199 396Q189 396 183 403T176 421Q176 435 187 445T211 456Q236 456 236 432Q236
417 225 407T199 396Z" />
<glyph unicode="&#xa9;" glyph-name="copyright" horiz-adv-x="716" d="M275 -11Q197 -11 138 19T47 103T14 224Q14 256 23 292Q39 355 77 410T170 508T289 573T422 597Q500 597 559 566T651 482T684 361Q684 328 675 292Q660 229 621 174T527 78T408 13T275 -11ZM347
19Q406 30 458 60T549 135T611 233T633 343Q633 410 603 461T520 541T402 570Q389 570 376 569T348 565Q289 555 238 525T147 450T85 352T63 242Q63 175 93 124T176 43T295 14Q308 14 321 15T347 19ZM292 107Q226 107 195 142T164 226Q164 275 190 325Q208 361
238 396T309 456T402 484Q443 486 473 469Q487 461 493 449T500 422Q500 401 489 380T461 345T427 330Q419 330 410 335T401 350Q401 361 416 375Q432 390 441 408T451 442Q451 459 438 465Q430 469 418 469Q400 469 379 460T340 436Q327 426 314 413T289 385Q273
365 257 336T231 275T221 214Q221 201 223 189T232 167Q240 152 260 141T310 129Q343 129 372 141T425 173Q446 190 453 190Q459 190 455 181T439 162Q409 136 372 122T292 107Z" />
<glyph unicode="&#xaa;" glyph-name="ordfeminine" horiz-adv-x="357" d="M236 287Q210 287 201 303T191 338Q191 353 194 365Q194 367 194 369T195 372Q183 356 169 338T137 307Q113 287 91 287Q72 287 61 303T49 346Q49 361 54 381Q77 469 153 525Q170 537 194
544T243 552Q270 552 292 544T321 521Q304 499 286 468T256 411Q248 394 239 370T227 327V324Q227 311 232 306T245 301H246Q259 301 270 310T291 329Q308 349 323 372T354 423Q358 427 359 427Q361 427 361 424T360 415Q346 390 330 364T291 314Q281 304 270 297T243
287H236ZM108 311Q123 311 141 327T176 367T208 412T229 446Q246 472 259 489T304 517Q305 517 306 517T309 518Q302 529 286 534T253 540Q228 540 207 527T166 492Q139 462 121 429T95 370Q91 358 91 341Q91 329 94 320T108 311Z" />
<glyph unicode="&#xab;" glyph-name="guillemotleft" horiz-adv-x="316" d="M294 82L161 171Q156 174 156 181Q156 193 171 206L339 339Q340 340 342 340Q345 340 346 336T345 327L199 191L305 93Q306 92 306 90Q306 86 302 83T294 82ZM156 67L23 156Q17 159 17
167Q17 179 32 191L201 325Q202 326 204 326Q207 326 208 322T207 313L60 177L167 79Q168 78 168 76Q168 72 164 69T156 67Z" />
<glyph unicode="&#xac;" glyph-name="logicalnot" horiz-adv-x="687" d="M502 12Q496 12 491 18T486 31L521 195H77Q73 195 67 197T60 206Q60 213 69 224T86 235H569L525 31Q524 23 518 18T502 12Z" />
<glyph unicode="&#xad;" glyph-name="uni00AD" horiz-adv-x="317" d="M129 176V195H309V176H129Z" />
<glyph unicode="&#xae;" glyph-name="registered" horiz-adv-x="474" d="M209 418Q153 418 118 451T82 533Q82 551 86 567Q96 608 125 642T196 696T281 716Q338 716 373 683T409 600Q409 582 405 567Q395 526 365 492T294 438T209 418ZM128 470H131Q130 471 129
472T127 474Q137 476 152 498T182 551T211 610T232 650Q234 655 240 658T252 665Q214 666 185 646T144 590Q143 587 142 586T141 584Q140 584 140 589Q140 598 143 607Q160 651 189 663T252 675Q263 675 275 675T298 673Q322 672 333 661T344 636Q344 616 324 596T269
570L245 569Q253 551 264 532T291 499T322 486Q336 486 349 496Q340 486 328 475Q339 480 351 492T377 524Q380 529 378 529T373 524Q367 515 361 508T349 496Q384 541 384 592Q384 642 351 672T270 702Q226 702 189 679T128 620T105 542Q105 502 127 474Q123 473
122 472T128 470ZM218 430Q247 430 276 441T328 475Q319 471 308 471Q280 471 258 501T222 565Q222 565 226 570T232 575Q279 575 299 594T319 632Q319 645 312 653T293 662Q275 662 267 657T250 637Q231 608 215 575T182 507Q172 486 168 479T151 471Q145 470
140 470T131 470Q163 430 218 430Z" />
<glyph unicode="&#xaf;" glyph-name="overscore" horiz-adv-x="218" d="M39 439Q30 439 30 448Q30 452 32 455T37 459L178 461Q188 461 188 452Q188 439 179 439H39Z" />
<glyph unicode="&#xb0;" glyph-name="degree" horiz-adv-x="265" d="M143 313Q121 313 105 329T89 367Q89 390 105 406T143 422Q166 422 181 406T197 367Q197 345 182 329T143 313ZM142 327Q159 327 170 339T182 367Q182 383 171 394T142 406Q126 406 115 395T103
367Q103 351 114 339T142 327Z" />
<glyph unicode="&#xb1;" glyph-name="plusminus" horiz-adv-x="285" d="M144 116Q141 116 139 116T133 118L156 183H70Q69 183 69 183T69 184Q69 186 72 194T76 203H163L185 266Q187 268 190 268T195 268Q197 268 200 268T205 266L183 203H269Q270 202 270 201Q270
199 268 192T263 183H176L153 118Q151 116 144 116ZM31 73V75Q31 77 34 84T38 93H231Q231 89 229 82T224 73H31Z" />
<glyph unicode="&#xb2;" glyph-name="uni00B2" horiz-adv-x="366" d="M33 334Q27 337 27 345Q27 354 32 364T42 379Q51 391 67 403T99 426Q124 441 154 455T212 486T258 526Q270 540 277 557T284 597Q284 627 264 639T219 652Q194 652 171 640Q133 619 127 579Q126
576 126 569Q126 554 133 542Q135 541 131 541T123 542Q113 546 108 558T103 581Q106 607 123 623T164 650Q179 656 195 659T228 663Q266 663 297 648T329 595Q329 570 317 549T286 510Q262 490 230 474T165 443T105 412Q98 408 84 398T70 377Q70 369 85 365Q109
359 127 355T174 351Q188 351 208 355T245 370T269 399Q270 402 270 405T271 411Q271 423 262 429Q260 431 260 433T265 434Q269 434 273 430Q292 415 289 388Q285 353 257 341T197 329Q178 329 161 331T129 337Q116 340 101 344T70 348Q56 348 47 344Q37 342 33
334Z" />
<glyph unicode="&#xb3;" glyph-name="uni00B3" horiz-adv-x="354" d="M69 326Q47 331 35 341T22 368Q22 373 24 381Q26 387 32 395T52 403Q51 399 50 394T48 383Q44 356 68 343T121 330Q153 330 183 345T232 386T252 449Q252 484 227 496T173 509Q164 509 150
509T128 508Q120 508 120 513Q120 516 124 519T138 523Q152 523 171 524T208 531Q231 539 251 560T272 609Q272 628 258 639T218 651Q175 651 146 623Q128 605 128 585Q128 580 130 574Q105 573 105 595Q105 604 110 614Q120 632 140 642T182 657T224 662Q250 662
275 654T308 622Q310 618 310 615T310 606Q310 602 310 598T308 588Q304 570 289 556T255 533T221 519Q262 515 278 495T295 450Q295 427 284 407Q262 364 216 343T119 321Q106 321 94 322T69 326Z" />
<glyph unicode="&#xb4;" glyph-name="acute" horiz-adv-x="214" d="M82 389H80Q72 389 72 398Q72 402 76 405Q99 420 129 445T184 490Q189 493 192 493Q200 493 207 486T214 470Q214 463 208 460L82 389Z" />
<glyph unicode="&#xb5;" glyph-name="uni03BC" horiz-adv-x="343" d="M-49 -150Q-40 -107 -23 -68T18 17T66 126L70 136L43 84Q42 80 39 80Q37 80 37 87Q37 91 38 97T42 107Q54 129 68 159T99 220T131 274L135 280Q150 303 172 311T212 320T230 321Q212 297 194
272T161 220Q145 189 132 156T112 98Q107 80 107 61Q107 46 111 35T128 24Q150 24 180 54T237 127Q245 139 256 160T279 205T300 247T312 270Q325 293 336 302T360 316T391 326Q396 328 401 329T412 331Q398 313 382 287T350 233T325 184Q317 169 304 140T281 83T270
40Q270 23 276 16T292 9Q306 9 319 20T343 41Q360 61 376 90T405 145Q405 146 405 146T406 147Q409 147 409 136Q409 131 407 125L399 110Q387 88 375 65T343 21Q330 9 315 1T281 -7Q248 -7 236 13T224 58Q224 65 224 71T226 85Q199 47 165 19Q149 6 135 2T107
-3Q75 -2 63 20Q56 1 46 -26T27 -79T18 -124Q8 -128 -15 -136T-49 -150Z" />
<glyph unicode="&#xb6;" glyph-name="paragraph" horiz-adv-x="343" d="M156 0V309Q98 309 63 339T28 429Q28 467 46 497T99 544Q118 552 139 554T181 556H328V513H311V0H254V513H212V0H156Z" />
<glyph unicode="&#xb7;" glyph-name="middot" horiz-adv-x="221" d="M144 176Q134 176 127 183T119 201Q119 216 130 226T155 236Q166 236 172 230T179 212Q179 198 169 188T144 176Z" />
<glyph unicode="&#xb8;" glyph-name="cedilla" horiz-adv-x="190" d="M20 -238Q13 -238 13 -229Q13 -225 16 -224T20 -222Q36 -217 52 -217T81 -213T103 -199T111 -163Q111 -150 100 -136T78 -105T67 -72Q67 -46 82 -22T127 2Q136 2 137 -4Q118 -8 108 -24T98
-58Q98 -70 110 -84T134 -115T147 -154Q147 -183 126 -202T75 -229T20 -238Z" />
<glyph unicode="&#xb9;" glyph-name="uni00B9" horiz-adv-x="311" d="M45 335Q42 335 42 339Q42 348 48 348H81Q110 348 126 384L239 635L153 569Q148 565 139 561T116 556L244 662H284L160 382Q152 364 152 358Q152 348 170 348H205Q208 348 208 344Q208 342
206 339T201 335H45Z" />
<glyph unicode="&#xba;" glyph-name="ordmasculine" horiz-adv-x="348" d="M187 295Q158 278 129 278Q100 278 79 297T57 357Q57 365 58 374T61 393Q65 410 71 426T85 456Q106 494 137 523T211 552Q252 552 268 529T285 473Q285 466 285 460T283 445Q279 416 263
386L267 381Q276 371 289 371Q303 371 317 382Q330 393 340 409T355 437Q361 450 367 450Q368 450 368 448Q368 445 365 437Q358 422 348 403T322 372Q303 360 286 360Q270 362 261 371L257 375Q252 365 246 357T235 340Q225 327 213 316T187 295ZM130 287Q150
287 174 301T218 338Q228 349 235 361T249 387V388H250L256 402L258 395Q265 404 269 420T277 450Q280 464 280 472Q280 480 278 485T274 495L271 498Q267 516 256 526T224 537Q203 537 182 517T145 471T120 430Q107 401 101 378T95 338Q95 313 105 300T130 287ZM249
388Q242 390 237 403T232 435Q232 449 237 467Q242 482 253 493T271 498Q272 494 272 489T273 477Q273 449 262 418L256 402Q255 406 255 410T254 418Q254 425 251 425Q245 425 245 413V408Q245 403 246 398T249 388Z" />
<glyph unicode="&#xbb;" glyph-name="guillemotright" horiz-adv-x="416" d="M233 82Q231 80 230 80Q226 80 225 85T227 93L372 230L266 328Q265 329 265 331Q265 334 269 337T277 339L410 251Q416 248 416 241Q416 228 400 215L233 82ZM94 67Q93 66 91 66Q87
66 86 71T88 79L234 216L127 314Q126 315 126 317Q126 320 130 323T139 325L271 236Q277 233 277 225Q277 213 262 201L94 67Z" />
<glyph unicode="&#xbc;" glyph-name="onequarter" horiz-adv-x="653" d="M11 -31L595 732H622L38 -31H11ZM55 403Q52 403 52 407Q52 416 59 416H91Q120 416 136 452L249 703L163 637Q158 633 149 629T126 624L254 730H294L170 450Q162 432 162 426Q162 416 180
416H215Q218 416 218 412Q218 403 212 403H55ZM365 -3Q362 -3 362 2Q362 11 368 11H404Q421 11 432 21T451 50L480 114H349Q335 114 326 114T316 118Q316 124 348 150L561 332Q565 336 569 339T585 345T621 348L526 136H580Q574 126 563 120T543 114H518L489 48Q481
29 481 21Q481 11 499 11H536Q540 11 540 7Q540 4 538 1T534 -3H365ZM358 136H490L573 319L358 136Z" />
<glyph unicode="&#xbd;" glyph-name="onehalf" horiz-adv-x="643" d="M11 -31L595 732H622L38 -31H11ZM45 403Q42 403 42 407Q42 416 48 416H81Q110 416 126 452L239 703L153 637Q148 633 139 629T116 624L244 730H284L160 450Q152 432 152 426Q152 416 170 416H205Q208
416 208 412Q208 410 206 407T201 403H45ZM313 6Q306 9 306 18Q306 27 311 37T321 51Q330 63 346 75T379 98Q404 113 434 127T492 158T538 198Q549 212 556 229T564 269Q564 298 544 311T499 324Q487 324 475 321T450 312Q414 291 406 251Q406 249 406 247T405
242Q405 225 413 214Q413 214 413 214T414 213H412Q411 213 408 213T403 214Q393 217 387 229T382 252Q385 278 403 295T444 322Q458 328 474 331T507 335Q532 335 555 329T594 308T609 269Q609 242 597 221T565 182Q542 162 510 146T444 116T384 84Q377 80 364
70T350 50Q350 41 365 37Q389 31 407 27T453 23Q468 23 488 27T525 42T549 71Q551 77 551 82Q551 94 541 101Q537 108 545 106Q549 106 552 102Q572 88 569 60Q565 25 537 13T477 1Q458 1 441 3T409 9Q396 12 380 16T349 20Q335 20 326 16Q322 15 318 12T313 6Z"
/>
<glyph unicode="&#xbe;" glyph-name="threequarters" horiz-adv-x="643" d="M11 -31L595 732H622L38 -31H11ZM69 394Q47 399 35 409T22 436Q22 441 24 449Q26 455 32 463T52 471Q51 467 50 462T48 451Q44 424 68 411T121 398Q153 398 183 413T232 454T252 517Q252
552 227 564T173 577Q164 577 150 577T128 576Q120 576 120 581Q120 584 124 587T138 591Q152 591 171 592T208 599Q231 607 251 628T272 677Q272 696 258 707T218 719Q175 719 146 691Q128 673 128 653Q128 648 130 642Q105 641 105 663Q105 672 110 682Q120 700
140 710T182 725T224 730Q250 730 275 722T308 690Q310 686 310 683T310 674Q310 670 310 666T308 656Q304 638 289 624T255 601T221 587Q262 583 278 563T295 518Q295 495 284 475Q262 432 216 411T119 389Q106 389 94 390T69 394ZM365 -3Q362 -3 362 2Q362 11
368 11H404Q421 11 432 21T451 50L480 114H349Q335 114 326 114T316 118Q316 124 348 150L561 332Q565 336 569 339T585 345T621 348L526 136H580Q574 126 563 120T543 114H518L489 48Q481 29 481 21Q481 11 499 11H536Q540 11 540 7Q540 4 538 1T534 -3H365ZM358
136H490L573 319L358 136Z" />
<glyph unicode="&#xbf;" glyph-name="questiondown" horiz-adv-x="371" d="M318 275Q308 275 302 282T295 300Q295 315 306 325T331 335Q342 335 348 328T355 310Q355 295 344 285T318 275ZM109 -250Q69 -250 36 -240T-18 -207T-39 -147Q-39 -107 -17 -78T39 -26T110
16T177 56Q202 74 222 90T254 127T264 181Q272 193 282 194T296 194Q307 187 307 173Q307 150 281 124Q256 99 222 75T153 25T87 -28T37 -86T18 -152Q18 -192 43 -215T111 -239Q179 -239 223 -205T267 -109Q267 -100 266 -92T262 -77Q262 -76 262 -76T261 -76Q261
-74 265 -73T273 -74Q287 -79 293 -92T299 -122Q299 -157 281 -181T234 -221T172 -243T109 -250Z" />
<glyph unicode="&#xc0;" glyph-name="Agrave" horiz-adv-x="807" d="M98 -71Q94 -72 89 -72T79 -72Q45 -72 14 -60T-27 -14Q-30 -5 -30 6Q-30 33 -13 55Q-9 59 -6 60T-2 56Q1 7 32 -14T107 -36Q148 -36 191 -19T269 27Q313 66 350 117T422 220Q434 240 447 260T473
299H224Q222 299 222 301Q222 306 229 313T242 321H487Q531 386 578 448T673 563Q732 625 796 662T913 703Q941 705 963 701T1000 684Q1013 674 1019 659T1025 628Q1025 624 1025 620T1023 611Q1020 595 1011 585Q1007 581 1003 581Q996 581 1002 590Q1011 602
1011 619Q1011 628 1008 635Q1001 654 982 663T936 673Q880 673 818 633Q773 604 727 556T634 447T541 321H688Q697 339 706 357T726 393Q763 460 802 521T873 633Q876 638 879 638Q883 638 884 634T882 627Q836 557 802 479T739 321H788Q790 321 790 319Q790 315
783 307T769 299H731Q722 273 710 230T688 139T678 53Q678 17 689 -3T726 -23Q729 -23 732 -23T738 -22Q755 -19 772 -3T807 35Q831 66 851 101T881 155Q886 163 889 163Q893 163 893 156Q893 152 890 146Q876 121 855 84T807 14Q788 -8 767 -24T723 -44Q717 -45
712 -45T700 -46Q671 -46 649 -30T619 26Q617 37 616 49T615 72Q615 130 635 189T678 299H524Q508 277 493 254T462 207Q433 165 393 119T304 31T204 -39T98 -71ZM940 768L833 828Q827 831 827 836Q827 843 833 849T846 856Q850 856 853 853Q874 837 900 816T945
781Q948 779 948 775Q948 772 945 770T940 768Z" />
<glyph unicode="&#xc1;" glyph-name="Aacute" horiz-adv-x="807" d="M98 -71Q94 -72 89 -72T79 -72Q45 -72 14 -60T-27 -14Q-30 -5 -30 6Q-30 33 -13 55Q-9 59 -6 60T-2 56Q1 7 32 -14T107 -36Q148 -36 191 -19T269 27Q313 66 350 117T422 220Q434 240 447 260T473
299H224Q222 299 222 301Q222 306 229 313T242 321H487Q531 386 578 448T673 563Q732 625 796 662T913 703Q941 705 963 701T1000 684Q1013 674 1019 659T1025 628Q1025 624 1025 620T1023 611Q1020 595 1011 585Q1007 581 1003 581Q996 581 1002 590Q1011 602
1011 619Q1011 628 1008 635Q1001 654 982 663T936 673Q880 673 818 633Q773 604 727 556T634 447T541 321H688Q697 339 706 357T726 393Q763 460 802 521T873 633Q876 638 879 638Q883 638 884 634T882 627Q836 557 802 479T739 321H788Q790 321 790 319Q790 315
783 307T769 299H731Q722 273 710 230T688 139T678 53Q678 17 689 -3T726 -23Q729 -23 732 -23T738 -22Q755 -19 772 -3T807 35Q831 66 851 101T881 155Q886 163 889 163Q893 163 893 156Q893 152 890 146Q876 121 855 84T807 14Q788 -8 767 -24T723 -44Q717 -45
712 -45T700 -46Q671 -46 649 -30T619 26Q617 37 616 49T615 72Q615 130 635 189T678 299H524Q508 277 493 254T462 207Q433 165 393 119T304 31T204 -39T98 -71ZM908 772H906Q899 772 899 779Q899 783 903 785Q922 798 947 819T994 857Q999 860 1001 860Q1008
860 1014 854T1020 840Q1020 835 1015 832L908 772Z" />
<glyph unicode="&#xc2;" glyph-name="Acircumflex" horiz-adv-x="807" d="M98 -71Q94 -72 89 -72T79 -72Q45 -72 14 -60T-27 -14Q-30 -5 -30 6Q-30 33 -13 55Q-9 59 -6 60T-2 56Q1 7 32 -14T107 -36Q148 -36 191 -19T269 27Q313 66 350 117T422 220Q434 240 447
260T473 299H224Q222 299 222 301Q222 306 229 313T242 321H487Q531 386 578 448T673 563Q732 625 796 662T913 703Q941 705 963 701T1000 684Q1013 674 1019 659T1025 628Q1025 624 1025 620T1023 611Q1020 595 1011 585Q1007 581 1003 581Q996 581 1002 590Q1011
602 1011 619Q1011 628 1008 635Q1001 654 982 663T936 673Q880 673 818 633Q773 604 727 556T634 447T541 321H688Q697 339 706 357T726 393Q763 460 802 521T873 633Q876 638 879 638Q883 638 884 634T882 627Q836 557 802 479T739 321H788Q790 321 790 319Q790
315 783 307T769 299H731Q722 273 710 230T688 139T678 53Q678 17 689 -3T726 -23Q729 -23 732 -23T738 -22Q755 -19 772 -3T807 35Q831 66 851 101T881 155Q886 163 889 163Q893 163 893 156Q893 152 890 146Q876 121 855 84T807 14Q788 -8 767 -24T723 -44Q717
-45 712 -45T700 -46Q671 -46 649 -30T619 26Q617 37 616 49T615 72Q615 130 635 189T678 299H524Q508 277 493 254T462 207Q433 165 393 119T304 31T204 -39T98 -71ZM841 764Q840 763 837 763Q834 763 832 765T833 770L960 858Q974 868 982 868Q987 868 989 863L1024
773Q1025 772 1025 770Q1024 768 1020 766T1014 766L965 836L841 764Z" />
<glyph unicode="&#xc3;" glyph-name="Atilde" horiz-adv-x="807" d="M98 -71Q94 -72 89 -72T79 -72Q45 -72 14 -60T-27 -14Q-30 -5 -30 6Q-30 33 -13 55Q-9 59 -6 60T-2 56Q1 7 32 -14T107 -36Q148 -36 191 -19T269 27Q313 66 350 117T422 220Q434 240 447 260T473
299H224Q222 299 222 301Q222 306 229 313T242 321H487Q531 386 578 448T673 563Q732 625 796 662T913 703Q941 705 963 701T1000 684Q1013 674 1019 659T1025 628Q1025 624 1025 620T1023 611Q1020 595 1011 585Q1007 581 1003 581Q996 581 1002 590Q1011 602
1011 619Q1011 628 1008 635Q1001 654 982 663T936 673Q880 673 818 633Q773 604 727 556T634 447T541 321H688Q697 339 706 357T726 393Q763 460 802 521T873 633Q876 638 879 638Q883 638 884 634T882 627Q836 557 802 479T739 321H788Q790 321 790 319Q790 315
783 307T769 299H731Q722 273 710 230T688 139T678 53Q678 17 689 -3T726 -23Q729 -23 732 -23T738 -22Q755 -19 772 -3T807 35Q831 66 851 101T881 155Q886 163 889 163Q893 163 893 156Q893 152 890 146Q876 121 855 84T807 14Q788 -8 767 -24T723 -44Q717 -45
712 -45T700 -46Q671 -46 649 -30T619 26Q617 37 616 49T615 72Q615 130 635 189T678 299H524Q508 277 493 254T462 207Q433 165 393 119T304 31T204 -39T98 -71ZM970 765Q945 765 926 774T886 784Q869 784 860 778T848 766H842Q842 783 855 796T886 810Q907 810
926 801T970 792Q990 792 998 801T1008 813H1014Q1014 795 1002 780T970 765Z" />
<glyph unicode="&#xc4;" glyph-name="Adieresis" horiz-adv-x="807" d="M98 -71Q94 -72 89 -72T79 -72Q45 -72 14 -60T-27 -14Q-30 -5 -30 6Q-30 33 -13 55Q-9 59 -6 60T-2 56Q1 7 32 -14T107 -36Q148 -36 191 -19T269 27Q313 66 350 117T422 220Q434 240 447
260T473 299H224Q222 299 222 301Q222 306 229 313T242 321H487Q531 386 578 448T673 563Q732 625 796 662T913 703Q941 705 963 701T1000 684Q1013 674 1019 659T1025 628Q1025 624 1025 620T1023 611Q1020 595 1011 585Q1007 581 1003 581Q996 581 1002 590Q1011
602 1011 619Q1011 628 1008 635Q1001 654 982 663T936 673Q880 673 818 633Q773 604 727 556T634 447T541 321H688Q697 339 706 357T726 393Q763 460 802 521T873 633Q876 638 879 638Q883 638 884 634T882 627Q836 557 802 479T739 321H788Q790 321 790 319Q790
315 783 307T769 299H731Q722 273 710 230T688 139T678 53Q678 17 689 -3T726 -23Q729 -23 732 -23T738 -22Q755 -19 772 -3T807 35Q831 66 851 101T881 155Q886 163 889 163Q893 163 893 156Q893 152 890 146Q876 121 855 84T807 14Q788 -8 767 -24T723 -44Q717
-45 712 -45T700 -46Q671 -46 649 -30T619 26Q617 37 616 49T615 72Q615 130 635 189T678 299H524Q508 277 493 254T462 207Q433 165 393 119T304 31T204 -39T98 -71ZM871 772Q861 772 854 779T847 797Q847 811 858 821T882 832Q893 832 900 825T908 807Q908 793
897 783T871 772ZM985 772Q975 772 969 779T962 797Q962 811 973 821T997 832Q1022 832 1022 808Q1022 793 1011 783T985 772Z" />
<glyph unicode="&#xc5;" glyph-name="Aring" horiz-adv-x="807" d="M98 -71Q94 -72 89 -72T79 -72Q45 -72 14 -60T-27 -14Q-30 -5 -30 6Q-30 33 -13 55Q-9 59 -6 60T-2 56Q1 7 32 -14T107 -36Q148 -36 191 -19T269 27Q313 66 350 117T422 220Q434 240 447 260T473
299H224Q222 299 222 301Q222 306 229 313T242 321H487Q531 386 578 448T673 563Q732 625 796 662T913 703Q941 705 963 701T1000 684Q1013 674 1019 659T1025 628Q1025 624 1025 620T1023 611Q1020 595 1011 585Q1007 581 1003 581Q996 581 1002 590Q1011 602
1011 619Q1011 628 1008 635Q1001 654 982 663T936 673Q880 673 818 633Q773 604 727 556T634 447T541 321H688Q697 339 706 357T726 393Q763 460 802 521T873 633Q876 638 879 638Q883 638 884 634T882 627Q836 557 802 479T739 321H788Q790 321 790 319Q790 315
783 307T769 299H731Q722 273 710 230T688 139T678 53Q678 17 689 -3T726 -23Q729 -23 732 -23T738 -22Q755 -19 772 -3T807 35Q831 66 851 101T881 155Q886 163 889 163Q893 163 893 156Q893 152 890 146Q876 121 855 84T807 14Q788 -8 767 -24T723 -44Q717 -45
712 -45T700 -46Q671 -46 649 -30T619 26Q617 37 616 49T615 72Q615 130 635 189T678 299H524Q508 277 493 254T462 207Q433 165 393 119T304 31T204 -39T98 -71ZM887 758Q865 758 851 768T831 791Q827 800 827 813Q827 843 850 870T911 898Q934 898 947 888T968
865Q969 860 970 854T971 840Q971 810 948 784T887 758ZM893 769Q920 770 932 793T945 836Q945 852 939 864Q935 874 929 880T908 886Q886 886 874 871T857 839Q854 832 854 818Q854 803 860 791Q864 782 872 776T893 769Z" />
<glyph unicode="&#xc6;" glyph-name="AE" horiz-adv-x="1292" d="M98 -71Q94 -72 89 -72T79 -72Q45 -72 14 -60T-27 -14Q-30 -5 -30 6Q-30 33 -13 55Q-9 59 -6 60T-2 56Q1 7 32 -14T107 -36Q148 -36 191 -19T269 27Q313 66 350 117T422 220Q434 240 447 260T473
299H224Q222 299 222 301Q222 306 229 313T242 321H487Q531 387 578 449T673 563Q732 625 796 662T913 703Q941 705 963 701T1000 684Q1020 669 1023 643Q1064 668 1110 681T1201 694Q1225 694 1249 691T1295 677Q1321 666 1332 649T1343 613Q1343 593 1331 573T1295
537Q1280 527 1255 520T1204 513Q1169 513 1149 528Q1145 532 1145 535Q1145 538 1148 539T1153 540Q1177 528 1209 528Q1229 528 1249 533T1285 549Q1302 561 1312 577T1323 610Q1323 624 1315 637T1286 660Q1270 668 1250 671T1210 675Q1161 675 1110 654T1023
596Q998 569 979 527T959 442Q959 430 961 419T967 396Q995 406 1024 410T1078 415Q1115 415 1131 406T1148 379Q1148 358 1124 340T1056 321Q1050 321 1044 321T1032 323Q992 328 969 339T928 368Q916 362 903 356T875 338Q824 295 798 239T772 130Q772 71 799
35T869 -16T962 -32Q1019 -32 1072 -15Q1134 5 1191 47T1279 156Q1285 168 1287 179T1290 201Q1290 227 1274 243T1228 259Q1224 259 1220 259T1210 258Q1169 252 1144 232T1106 187T1085 144Q1082 138 1080 138Q1076 138 1076 148Q1076 151 1076 154T1078 162Q1082
174 1096 197T1137 243T1206 273Q1220 276 1232 276Q1271 276 1296 254T1321 196Q1321 176 1310 149Q1288 99 1248 60T1156 -5T1049 -45T940 -59Q930 -59 921 -59T902 -57Q834 -50 792 -23T730 44T710 126Q710 132 710 137T711 149Q714 174 726 213T761 299H525Q509
277 494 254T462 207Q433 165 393 119T304 31T204 -39T98 -71ZM541 321H771Q799 379 835 439T914 555T1000 649Q979 673 936 673Q880 673 818 633Q774 604 728 556T634 447T541 321ZM830 337Q840 344 851 350T872 361Q886 367 900 372T922 379Q911 400 907 422T904
467Q884 437 866 404T830 337ZM1070 340Q1090 340 1105 346Q1130 355 1130 373Q1130 384 1117 393T1077 402Q1048 402 1022 398T972 387Q989 362 1019 351T1070 340Z" />
<glyph unicode="&#xc7;" glyph-name="Ccedilla" horiz-adv-x="692" d="M275 98Q274 95 270 95Q261 95 264 103Q287 146 334 192T448 272T597 314Q604 315 610 315T623 315Q688 315 717 287T742 215Q737 155 700 105T604 19T476 -36T339 -56Q267 -56 206 -32T107
45T69 183Q69 191 69 199T70 215Q76 279 106 347T189 477T313 588T472 666T659 695Q725 695 756 671T788 615Q788 590 769 564T714 517Q674 495 627 483T535 465T462 456H461Q458 456 458 459Q458 464 465 465Q531 472 594 491T702 538Q727 553 742 575T757 619Q757
644 733 662T651 681Q564 681 489 653T352 576T245 466T173 338T140 208Q139 198 139 189T138 171Q138 94 167 46T244 -23T349 -45Q408 -45 468 -25T580 30T665 114T703 217Q707 258 682 282T597 302Q518 295 453 262T343 184T275 98ZM250 -288Q243 -288 243 -279Q243
-275 246 -274T250 -272Q266 -267 282 -267T311 -263T333 -249T341 -213Q341 -200 330 -186T308 -155T297 -122Q297 -96 312 -72T357 -48Q366 -48 367 -54Q348 -58 338 -74T328 -108Q328 -120 340 -134T364 -165T377 -204Q377 -233 356 -252T305 -279T250 -288Z"
/>
<glyph unicode="&#xc8;" glyph-name="Egrave" horiz-adv-x="594" d="M209 -57Q142 -50 100 -23T37 43T17 125Q17 131 17 137T19 149Q28 214 69 272T180 361Q194 367 208 372T229 379Q211 415 211 453Q211 485 222 516T253 573Q282 611 324 638T414 679T509 694Q533
694 557 691T603 677Q628 666 639 649T651 613Q651 569 603 537Q588 527 563 520T512 513Q477 513 457 528Q453 532 453 535Q453 538 456 539T460 540Q486 528 516 528Q561 528 592 549Q631 575 631 610Q631 625 623 638T594 660Q578 668 558 671T518 675Q469 675
418 654T331 596Q306 569 286 527T266 443Q266 419 275 396Q303 406 331 410T386 415Q456 415 456 379Q456 358 432 340T364 321Q358 321 352 321T340 323Q300 328 277 339T236 368Q224 362 211 356T184 338Q132 294 106 238T80 130Q80 71 107 35T177 -16T270 -32Q327
-32 380 -15Q442 5 499 47T587 156Q598 181 598 201Q598 227 581 243T534 259Q530 259 527 259T518 258Q477 252 452 231T413 186T393 144Q390 138 388 138Q384 138 384 148Q384 151 384 154T386 162Q390 174 404 197T445 243T513 273Q527 276 539 276Q579 276
604 254T629 196Q629 176 618 149Q596 99 556 60T464 -5T356 -45T247 -59Q237 -59 228 -59T209 -57ZM378 340Q397 340 412 346Q438 355 438 374Q438 385 425 393T385 402Q355 402 329 398T280 387Q295 362 325 351T378 340ZM521 755L414 815Q408 818 408 823Q408
830 414 836T427 843Q431 843 434 840Q455 824 481 803T526 768Q529 766 529 762Q529 759 526 757T521 755Z" />
<glyph unicode="&#xc9;" glyph-name="Eacute" horiz-adv-x="594" d="M209 -57Q142 -50 100 -23T37 43T17 125Q17 131 17 137T19 149Q28 214 69 272T180 361Q194 367 208 372T229 379Q211 415 211 453Q211 485 222 516T253 573Q282 611 324 638T414 679T509 694Q533
694 557 691T603 677Q628 666 639 649T651 613Q651 569 603 537Q588 527 563 520T512 513Q477 513 457 528Q453 532 453 535Q453 538 456 539T460 540Q486 528 516 528Q561 528 592 549Q631 575 631 610Q631 625 623 638T594 660Q578 668 558 671T518 675Q469 675
418 654T331 596Q306 569 286 527T266 443Q266 419 275 396Q303 406 331 410T386 415Q456 415 456 379Q456 358 432 340T364 321Q358 321 352 321T340 323Q300 328 277 339T236 368Q224 362 211 356T184 338Q132 294 106 238T80 130Q80 71 107 35T177 -16T270 -32Q327
-32 380 -15Q442 5 499 47T587 156Q598 181 598 201Q598 227 581 243T534 259Q530 259 527 259T518 258Q477 252 452 231T413 186T393 144Q390 138 388 138Q384 138 384 148Q384 151 384 154T386 162Q390 174 404 197T445 243T513 273Q527 276 539 276Q579 276
604 254T629 196Q629 176 618 149Q596 99 556 60T464 -5T356 -45T247 -59Q237 -59 228 -59T209 -57ZM378 340Q397 340 412 346Q438 355 438 374Q438 385 425 393T385 402Q355 402 329 398T280 387Q295 362 325 351T378 340ZM489 759H487Q480 759 480 766Q480 770
484 772Q503 785 528 806T575 844Q580 847 582 847Q589 847 595 841T601 827Q601 822 596 819L489 759Z" />
<glyph unicode="&#xca;" glyph-name="Ecircumflex" horiz-adv-x="594" d="M209 -57Q142 -50 100 -23T37 43T17 125Q17 131 17 137T19 149Q28 214 69 272T180 361Q194 367 208 372T229 379Q211 415 211 453Q211 485 222 516T253 573Q282 611 324 638T414 679T509
694Q533 694 557 691T603 677Q628 666 639 649T651 613Q651 569 603 537Q588 527 563 520T512 513Q477 513 457 528Q453 532 453 535Q453 538 456 539T460 540Q486 528 516 528Q561 528 592 549Q631 575 631 610Q631 625 623 638T594 660Q578 668 558 671T518 675Q469
675 418 654T331 596Q306 569 286 527T266 443Q266 419 275 396Q303 406 331 410T386 415Q456 415 456 379Q456 358 432 340T364 321Q358 321 352 321T340 323Q300 328 277 339T236 368Q224 362 211 356T184 338Q132 294 106 238T80 130Q80 71 107 35T177 -16T270
-32Q327 -32 380 -15Q442 5 499 47T587 156Q598 181 598 201Q598 227 581 243T534 259Q530 259 527 259T518 258Q477 252 452 231T413 186T393 144Q390 138 388 138Q384 138 384 148Q384 151 384 154T386 162Q390 174 404 197T445 243T513 273Q527 276 539 276Q579
276 604 254T629 196Q629 176 618 149Q596 99 556 60T464 -5T356 -45T247 -59Q237 -59 228 -59T209 -57ZM378 340Q397 340 412 346Q438 355 438 374Q438 385 425 393T385 402Q355 402 329 398T280 387Q295 362 325 351T378 340ZM422 751Q421 750 418 750Q415 750
413 752T414 757L541 845Q555 855 563 855Q568 855 570 850L605 760Q606 759 606 757Q605 755 601 753T595 753L546 823L422 751Z" />
<glyph unicode="&#xcb;" glyph-name="Edieresis" horiz-adv-x="594" d="M209 -57Q142 -50 100 -23T37 43T17 125Q17 131 17 137T19 149Q28 214 69 272T180 361Q194 367 208 372T229 379Q211 415 211 453Q211 485 222 516T253 573Q282 611 324 638T414 679T509
694Q533 694 557 691T603 677Q628 666 639 649T651 613Q651 569 603 537Q588 527 563 520T512 513Q477 513 457 528Q453 532 453 535Q453 538 456 539T460 540Q486 528 516 528Q561 528 592 549Q631 575 631 610Q631 625 623 638T594 660Q578 668 558 671T518 675Q469
675 418 654T331 596Q306 569 286 527T266 443Q266 419 275 396Q303 406 331 410T386 415Q456 415 456 379Q456 358 432 340T364 321Q358 321 352 321T340 323Q300 328 277 339T236 368Q224 362 211 356T184 338Q132 294 106 238T80 130Q80 71 107 35T177 -16T270
-32Q327 -32 380 -15Q442 5 499 47T587 156Q598 181 598 201Q598 227 581 243T534 259Q530 259 527 259T518 258Q477 252 452 231T413 186T393 144Q390 138 388 138Q384 138 384 148Q384 151 384 154T386 162Q390 174 404 197T445 243T513 273Q527 276 539 276Q579
276 604 254T629 196Q629 176 618 149Q596 99 556 60T464 -5T356 -45T247 -59Q237 -59 228 -59T209 -57ZM378 340Q397 340 412 346Q438 355 438 374Q438 385 425 393T385 402Q355 402 329 398T280 387Q295 362 325 351T378 340ZM452 759Q442 759 435 766T428 784Q428
798 439 808T463 819Q474 819 481 812T489 794Q489 780 478 770T452 759ZM566 759Q556 759 550 766T543 784Q543 798 554 808T578 819Q603 819 603 795Q603 780 592 770T566 759Z" />
<glyph unicode="&#xcc;" glyph-name="Igrave" horiz-adv-x="341" d="M-85 -88Q-97 -82 -103 -71T-110 -48Q-110 -37 -105 -31Q-100 -27 -97 -27T-94 -31Q-97 -46 -81 -59T-50 -76Q-35 -79 -20 -79Q11 -79 36 -70Q71 -58 107 -21T173 63Q205 112 237 176T303 311T377
443Q412 498 450 541T535 609Q566 625 597 625Q566 638 524 647T453 656Q410 656 367 644T285 609Q243 586 206 546T145 458T122 360Q122 339 128 322T151 294Q167 284 189 284Q208 284 224 290Q226 291 230 291Q235 291 235 288Q235 282 224 278Q204 268 177 268Q147
268 122 281Q95 295 85 322T74 378Q74 437 103 488T177 578T274 638Q318 657 364 665T454 673Q497 673 545 661T628 622Q632 619 632 616Q632 613 629 612T621 613Q611 616 600 616Q572 616 545 598T493 550T448 489T414 428Q387 377 362 317T309 195T245 77T161
-22T47 -88Q14 -99 -27 -99Q-44 -99 -59 -97T-85 -88ZM594 717L487 777Q481 780 481 785Q481 792 487 798T500 805Q504 805 507 802Q528 786 554 765T599 730Q602 728 602 724Q602 721 599 719T594 717Z" />
<glyph unicode="&#xcd;" glyph-name="Iacute" horiz-adv-x="341" d="M-85 -88Q-97 -82 -103 -71T-110 -48Q-110 -37 -105 -31Q-100 -27 -97 -27T-94 -31Q-97 -46 -81 -59T-50 -76Q-35 -79 -20 -79Q11 -79 36 -70Q71 -58 107 -21T173 63Q205 112 237 176T303 311T377
443Q412 498 450 541T535 609Q566 625 597 625Q566 638 524 647T453 656Q410 656 367 644T285 609Q243 586 206 546T145 458T122 360Q122 339 128 322T151 294Q167 284 189 284Q208 284 224 290Q226 291 230 291Q235 291 235 288Q235 282 224 278Q204 268 177 268Q147
268 122 281Q95 295 85 322T74 378Q74 437 103 488T177 578T274 638Q318 657 364 665T454 673Q497 673 545 661T628 622Q632 619 632 616Q632 613 629 612T621 613Q611 616 600 616Q572 616 545 598T493 550T448 489T414 428Q387 377 362 317T309 195T245 77T161
-22T47 -88Q14 -99 -27 -99Q-44 -99 -59 -97T-85 -88ZM562 721H560Q553 721 553 728Q553 732 557 734Q576 747 601 768T648 806Q653 809 655 809Q662 809 668 803T674 789Q674 784 669 781L562 721Z" />
<glyph unicode="&#xce;" glyph-name="Icircumflex" horiz-adv-x="341" d="M-85 -88Q-97 -82 -103 -71T-110 -48Q-110 -37 -105 -31Q-100 -27 -97 -27T-94 -31Q-97 -46 -81 -59T-50 -76Q-35 -79 -20 -79Q11 -79 36 -70Q71 -58 107 -21T173 63Q205 112 237 176T303
311T377 443Q412 498 450 541T535 609Q566 625 597 625Q566 638 524 647T453 656Q410 656 367 644T285 609Q243 586 206 546T145 458T122 360Q122 339 128 322T151 294Q167 284 189 284Q208 284 224 290Q226 291 230 291Q235 291 235 288Q235 282 224 278Q204 268
177 268Q147 268 122 281Q95 295 85 322T74 378Q74 437 103 488T177 578T274 638Q318 657 364 665T454 673Q497 673 545 661T628 622Q632 619 632 616Q632 613 629 612T621 613Q611 616 600 616Q572 616 545 598T493 550T448 489T414 428Q387 377 362 317T309 195T245
77T161 -22T47 -88Q14 -99 -27 -99Q-44 -99 -59 -97T-85 -88ZM495 713Q494 712 491 712Q488 712 486 714T487 719L614 807Q628 817 636 817Q641 817 643 812L678 722Q679 721 679 719Q678 717 674 715T668 715L619 785L495 713Z" />
<glyph unicode="&#xcf;" glyph-name="Idieresis" horiz-adv-x="341" d="M-85 -88Q-97 -82 -103 -71T-110 -48Q-110 -37 -105 -31Q-100 -27 -97 -27T-94 -31Q-97 -46 -81 -59T-50 -76Q-35 -79 -20 -79Q11 -79 36 -70Q71 -58 107 -21T173 63Q205 112 237 176T303
311T377 443Q412 498 450 541T535 609Q566 625 597 625Q566 638 524 647T453 656Q410 656 367 644T285 609Q243 586 206 546T145 458T122 360Q122 339 128 322T151 294Q167 284 189 284Q208 284 224 290Q226 291 230 291Q235 291 235 288Q235 282 224 278Q204 268
177 268Q147 268 122 281Q95 295 85 322T74 378Q74 437 103 488T177 578T274 638Q318 657 364 665T454 673Q497 673 545 661T628 622Q632 619 632 616Q632 613 629 612T621 613Q611 616 600 616Q572 616 545 598T493 550T448 489T414 428Q387 377 362 317T309 195T245
77T161 -22T47 -88Q14 -99 -27 -99Q-44 -99 -59 -97T-85 -88ZM525 721Q515 721 508 728T501 746Q501 760 512 770T536 781Q547 781 554 774T562 756Q562 742 551 732T525 721ZM639 721Q629 721 623 728T616 746Q616 760 627 770T651 781Q676 781 676 757Q676 742
665 732T639 721Z" />
<glyph unicode="&#xd0;" glyph-name="Eth" horiz-adv-x="865" d="M45 -87Q17 -80 3 -62T-12 -23Q-12 6 15 31T94 56Q141 56 184 38L235 18Q243 29 251 40T266 61Q288 94 309 135T353 222H270V242H363Q397 311 434 379T516 503T616 586Q648 603 677 603Q693 603
706 599Q710 598 709 594T703 591Q699 593 695 593T685 593Q633 593 576 526Q522 463 487 390T417 242H488V222H408Q389 179 367 138T318 59Q308 44 297 30T273 3Q287 -2 301 -6T331 -14Q376 -23 423 -23Q488 -23 549 -9T658 31Q722 65 772 125T851 258T881 403Q881
475 847 538T734 642Q685 667 626 678T506 690Q421 690 342 663T212 588Q186 563 166 521T145 438Q145 429 146 420T150 402Q159 374 184 360T243 345Q268 345 295 354Q296 354 296 354T298 355Q300 355 300 353Q300 348 294 346Q280 342 265 339T234 336Q202 336
172 347T124 384T105 448Q105 479 114 506T139 557Q172 606 232 638T366 687T512 704Q573 704 634 693T750 658Q850 615 894 543T939 388Q939 312 906 237T813 100T674 2Q625 -20 568 -31T451 -42Q417 -42 384 -39T319 -28Q309 -26 294 -21T262 -9Q244 -25 225
-40T182 -67Q163 -76 135 -83T77 -90Q60 -90 45 -87ZM54 -71Q66 -74 79 -74Q103 -74 128 -66T169 -48Q185 -37 198 -23T225 6Q204 15 180 23Q135 40 102 40Q57 40 35 19T12 -25Q12 -41 22 -53T54 -71Z" />
<glyph unicode="&#xd1;" glyph-name="Ntilde" horiz-adv-x="839" d="M101 -128Q90 -128 71 -125T36 -113T20 -83Q20 -70 27 -63Q30 -58 34 -58T37 -62Q33 -77 47 -90T75 -108Q91 -112 109 -112Q150 -112 183 -92T244 -40T294 24Q345 99 386 178T469 337T563 489Q580
513 605 543T660 602T722 646Q696 648 653 649T564 651Q544 651 525 651T486 649Q404 644 323 618T183 539Q149 508 127 469T105 392Q105 349 128 331T184 312Q209 312 234 321Q283 338 315 381T343 479Q342 488 339 497T330 509Q326 512 327 515T332 518Q354 516
362 494T370 452Q370 420 355 392T314 342T259 309Q228 297 193 297Q147 297 113 323T78 408Q78 452 99 491T152 561Q219 627 307 651T488 675Q559 675 629 670T770 660Q781 662 790 660Q794 659 799 658T804 651Q804 644 793 641T767 637H765Q732 626 720 585T708
492Q708 459 711 425T720 360Q729 308 745 252T762 134Q762 92 751 58T716 -9Q736 3 752 32T780 94T801 150Q818 199 838 260T881 386T932 513T989 627Q1030 698 1078 730T1169 762Q1223 762 1252 717Q1254 715 1254 711Q1254 705 1249 704T1241 705Q1224 736 1192
736Q1164 736 1126 707T1043 613Q1012 567 983 510T926 391T874 270T829 161Q819 137 803 102T767 32T722 -27T671 -56H670Q666 -56 665 -53T666 -46Q692 -19 701 20T711 105Q711 146 702 189T681 277T664 365Q662 383 660 403T658 443Q658 481 666 518T694 588T751
640Q734 641 713 624T673 582T638 535T615 501Q567 425 528 342T447 178T352 25Q324 -14 287 -49T207 -105Q158 -128 101 -128ZM914 808Q889 808 870 817T830 827Q813 827 804 821T792 809H786Q786 826 799 839T830 853Q851 853 870 844T914 835Q934 835 942 844T952
856H958Q958 838 946 823T914 808Z" />
<glyph unicode="&#xd2;" glyph-name="Ograve" horiz-adv-x="706" d="M261 -72Q183 -72 132 -47T52 19T16 110Q13 133 13 156Q13 215 30 274Q50 343 88 408T178 529T292 627T424 691Q490 711 547 711Q565 711 581 709T613 703Q651 692 674 669T697 610Q697 600
694 588Q723 559 736 518T749 430Q749 399 744 367T728 303Q705 230 660 163T552 43T416 -41T261 -72ZM262 -58L265 -57Q341 -56 408 -21T529 71T623 196T682 332Q699 389 699 446Q699 475 694 503T676 554Q666 542 655 538Q648 535 645 535Q641 535 641 538T646
544Q658 554 664 573Q645 599 615 614T541 629Q498 629 449 609T352 551Q323 527 301 493T266 425T254 364Q254 334 270 325Q278 321 278 316Q278 313 274 312T265 313Q247 320 239 337T230 379Q230 420 253 471T315 556Q366 600 426 622T542 645Q583 645 614 635T669
609Q668 637 649 655T600 682Q571 690 538 690Q516 690 490 686T435 673Q396 661 355 633T275 565T202 480T144 389Q118 341 100 276T81 145Q81 130 82 115T86 85Q93 47 113 14T170 -38T262 -58ZM559 772L452 832Q446 835 446 840Q446 847 452 853T465 860Q469
860 472 857Q493 841 519 820T564 785Q567 783 567 779Q567 776 564 774T559 772Z" />
<glyph unicode="&#xd3;" glyph-name="Oacute" horiz-adv-x="706" d="M261 -72Q183 -72 132 -47T52 19T16 110Q13 133 13 156Q13 215 30 274Q50 343 88 408T178 529T292 627T424 691Q490 711 547 711Q565 711 581 709T613 703Q651 692 674 669T697 610Q697 600
694 588Q723 559 736 518T749 430Q749 399 744 367T728 303Q705 230 660 163T552 43T416 -41T261 -72ZM262 -58L265 -57Q341 -56 408 -21T529 71T623 196T682 332Q699 389 699 446Q699 475 694 503T676 554Q666 542 655 538Q648 535 645 535Q641 535 641 538T646
544Q658 554 664 573Q645 599 615 614T541 629Q498 629 449 609T352 551Q323 527 301 493T266 425T254 364Q254 334 270 325Q278 321 278 316Q278 313 274 312T265 313Q247 320 239 337T230 379Q230 420 253 471T315 556Q366 600 426 622T542 645Q583 645 614 635T669
609Q668 637 649 655T600 682Q571 690 538 690Q516 690 490 686T435 673Q396 661 355 633T275 565T202 480T144 389Q118 341 100 276T81 145Q81 130 82 115T86 85Q93 47 113 14T170 -38T262 -58ZM527 776H525Q518 776 518 783Q518 787 522 789Q541 802 566 823T613
861Q618 864 620 864Q627 864 633 858T639 844Q639 839 634 836L527 776Z" />
<glyph unicode="&#xd4;" glyph-name="Ocircumflex" horiz-adv-x="706" d="M261 -72Q183 -72 132 -47T52 19T16 110Q13 133 13 156Q13 215 30 274Q50 343 88 408T178 529T292 627T424 691Q490 711 547 711Q565 711 581 709T613 703Q651 692 674 669T697 610Q697
600 694 588Q723 559 736 518T749 430Q749 399 744 367T728 303Q705 230 660 163T552 43T416 -41T261 -72ZM262 -58L265 -57Q341 -56 408 -21T529 71T623 196T682 332Q699 389 699 446Q699 475 694 503T676 554Q666 542 655 538Q648 535 645 535Q641 535 641 538T646
544Q658 554 664 573Q645 599 615 614T541 629Q498 629 449 609T352 551Q323 527 301 493T266 425T254 364Q254 334 270 325Q278 321 278 316Q278 313 274 312T265 313Q247 320 239 337T230 379Q230 420 253 471T315 556Q366 600 426 622T542 645Q583 645 614 635T669
609Q668 637 649 655T600 682Q571 690 538 690Q516 690 490 686T435 673Q396 661 355 633T275 565T202 480T144 389Q118 341 100 276T81 145Q81 130 82 115T86 85Q93 47 113 14T170 -38T262 -58ZM460 768Q459 767 456 767Q453 767 451 769T452 774L579 862Q593
872 601 872Q606 872 608 867L643 777Q644 776 644 774Q643 772 639 770T633 770L584 840L460 768Z" />
<glyph unicode="&#xd5;" glyph-name="Otilde" horiz-adv-x="706" d="M261 -72Q183 -72 132 -47T52 19T16 110Q13 133 13 156Q13 215 30 274Q50 343 88 408T178 529T292 627T424 691Q490 711 547 711Q565 711 581 709T613 703Q651 692 674 669T697 610Q697 600
694 588Q723 559 736 518T749 430Q749 399 744 367T728 303Q705 230 660 163T552 43T416 -41T261 -72ZM262 -58L265 -57Q341 -56 408 -21T529 71T623 196T682 332Q699 389 699 446Q699 475 694 503T676 554Q666 542 655 538Q648 535 645 535Q641 535 641 538T646
544Q658 554 664 573Q645 599 615 614T541 629Q498 629 449 609T352 551Q323 527 301 493T266 425T254 364Q254 334 270 325Q278 321 278 316Q278 313 274 312T265 313Q247 320 239 337T230 379Q230 420 253 471T315 556Q366 600 426 622T542 645Q583 645 614 635T669
609Q668 637 649 655T600 682Q571 690 538 690Q516 690 490 686T435 673Q396 661 355 633T275 565T202 480T144 389Q118 341 100 276T81 145Q81 130 82 115T86 85Q93 47 113 14T170 -38T262 -58ZM589 769Q564 769 545 778T505 788Q488 788 479 782T467 770H461Q461
787 474 800T505 814Q526 814 545 805T589 796Q609 796 617 805T627 817H633Q633 799 621 784T589 769Z" />
<glyph unicode="&#xd6;" glyph-name="Odieresis" horiz-adv-x="706" d="M261 -72Q183 -72 132 -47T52 19T16 110Q13 133 13 156Q13 215 30 274Q50 343 88 408T178 529T292 627T424 691Q490 711 547 711Q565 711 581 709T613 703Q651 692 674 669T697 610Q697 600
694 588Q723 559 736 518T749 430Q749 399 744 367T728 303Q705 230 660 163T552 43T416 -41T261 -72ZM262 -58L265 -57Q341 -56 408 -21T529 71T623 196T682 332Q699 389 699 446Q699 475 694 503T676 554Q666 542 655 538Q648 535 645 535Q641 535 641 538T646
544Q658 554 664 573Q645 599 615 614T541 629Q498 629 449 609T352 551Q323 527 301 493T266 425T254 364Q254 334 270 325Q278 321 278 316Q278 313 274 312T265 313Q247 320 239 337T230 379Q230 420 253 471T315 556Q366 600 426 622T542 645Q583 645 614 635T669
609Q668 637 649 655T600 682Q571 690 538 690Q516 690 490 686T435 673Q396 661 355 633T275 565T202 480T144 389Q118 341 100 276T81 145Q81 130 82 115T86 85Q93 47 113 14T170 -38T262 -58ZM490 776Q480 776 473 783T466 801Q466 815 477 825T501 836Q512
836 519 829T527 811Q527 797 516 787T490 776ZM604 776Q594 776 588 783T581 801Q581 815 592 825T616 836Q641 836 641 812Q641 797 630 787T604 776Z" />
<glyph unicode="&#xd7;" glyph-name="multiply" horiz-adv-x="391" d="M119 86L235 238L156 392H190L255 264L352 392H386L269 238L347 86H313L248 211L154 86H119Z" />
<glyph unicode="&#xd8;" glyph-name="Oslash" horiz-adv-x="706" d="M84 -86L119 -40Q73 -15 48 24T16 110Q13 133 13 156Q13 215 30 274Q50 343 88 408T178 529T292 627T424 691Q489 712 547 712Q583 712 613 703Q647 694 668 674L680 690H712L685 654Q697 636
697 610Q697 600 694 588Q723 559 736 518T749 430Q749 399 744 367T728 303Q705 231 660 164T554 44T420 -40T267 -72Q230 -73 200 -68T143 -52L116 -86H84ZM141 -11L619 611Q594 625 563 628Q558 629 553 629T543 629Q499 629 449 609T352 551Q323 527 301 493T266
425T254 364Q254 334 270 325Q278 321 278 316Q278 313 274 312T265 313Q247 320 239 337T230 379Q230 420 253 471T315 556Q366 600 426 622T542 645Q550 645 557 645T572 643Q589 642 604 638T632 628L651 653Q631 673 600 682Q576 689 542 689Q517 689 490 685T433
671Q396 659 356 631T278 563T207 479T150 389Q125 340 107 275T89 145Q89 129 90 115T94 86Q99 58 110 33T141 -11ZM669 609Q669 614 668 619T666 629L656 617L669 609ZM260 -57Q337 -57 405 -23T528 69T622 195T682 332Q699 389 699 446Q699 475 694 503T676
554Q666 542 655 538Q648 535 645 535Q641 535 641 538T646 544Q658 554 664 573Q655 585 641 597L161 -27Q180 -40 204 -48T260 -57Z" />
<glyph unicode="&#xd9;" glyph-name="Ugrave" horiz-adv-x="807" d="M707 -51Q665 -51 651 -24T637 37Q637 92 657 151T702 269Q670 215 633 162T554 66T468 -4Q433 -24 401 -33T340 -43Q303 -43 277 -28Q252 -12 242 13T231 67Q231 84 234 100Q243 156 266 206T320
303T381 397Q397 422 418 461T454 543T470 623Q470 673 444 692T381 712Q337 712 292 694T207 647T142 584Q116 550 100 514T84 445Q84 414 101 391T158 357Q167 355 177 354T196 353Q226 353 245 360Q246 361 248 361Q251 361 252 357T249 351Q229 341 186 341Q167
341 149 344Q97 352 73 382T49 452Q49 523 110 598Q138 632 182 660T278 707T375 725Q410 725 439 714T487 674Q505 647 505 608Q505 571 492 529T459 446T420 374Q397 335 372 291T325 204T291 120T280 47Q283 4 302 -12T347 -29Q373 -29 401 -18T455 9Q494 33
539 79T617 175Q667 250 714 326T812 479Q856 546 905 601T1011 684Q1026 692 1042 696T1074 701Q1096 701 1113 689T1138 647Q1139 644 1139 638Q1139 631 1136 629T1131 632Q1125 659 1104 670T1060 681Q1050 681 1042 679T1025 674Q988 658 948 612T867 501T792
361T733 213T699 79Q698 72 697 60T695 33Q695 14 701 -2T728 -18Q749 -18 772 1T815 49T853 105T879 151Q885 163 893 163Q900 163 894 152Q882 130 863 97T820 29T767 -28T707 -51ZM742 772L635 832Q629 835 629 840Q629 847 635 853T648 860Q652 860 655 857Q676
841 702 820T747 785Q750 783 750 779Q750 776 747 774T742 772Z" />
<glyph unicode="&#xda;" glyph-name="Uacute" horiz-adv-x="807" d="M707 -51Q665 -51 651 -24T637 37Q637 92 657 151T702 269Q670 215 633 162T554 66T468 -4Q433 -24 401 -33T340 -43Q303 -43 277 -28Q252 -12 242 13T231 67Q231 84 234 100Q243 156 266 206T320
303T381 397Q397 422 418 461T454 543T470 623Q470 673 444 692T381 712Q337 712 292 694T207 647T142 584Q116 550 100 514T84 445Q84 414 101 391T158 357Q167 355 177 354T196 353Q226 353 245 360Q246 361 248 361Q251 361 252 357T249 351Q229 341 186 341Q167
341 149 344Q97 352 73 382T49 452Q49 523 110 598Q138 632 182 660T278 707T375 725Q410 725 439 714T487 674Q505 647 505 608Q505 571 492 529T459 446T420 374Q397 335 372 291T325 204T291 120T280 47Q283 4 302 -12T347 -29Q373 -29 401 -18T455 9Q494 33
539 79T617 175Q667 250 714 326T812 479Q856 546 905 601T1011 684Q1026 692 1042 696T1074 701Q1096 701 1113 689T1138 647Q1139 644 1139 638Q1139 631 1136 629T1131 632Q1125 659 1104 670T1060 681Q1050 681 1042 679T1025 674Q988 658 948 612T867 501T792
361T733 213T699 79Q698 72 697 60T695 33Q695 14 701 -2T728 -18Q749 -18 772 1T815 49T853 105T879 151Q885 163 893 163Q900 163 894 152Q882 130 863 97T820 29T767 -28T707 -51ZM710 776H708Q701 776 701 783Q701 787 705 789Q724 802 749 823T796 861Q801
864 803 864Q810 864 816 858T822 844Q822 839 817 836L710 776Z" />
<glyph unicode="&#xdb;" glyph-name="Ucircumflex" horiz-adv-x="807" d="M707 -51Q665 -51 651 -24T637 37Q637 92 657 151T702 269Q670 215 633 162T554 66T468 -4Q433 -24 401 -33T340 -43Q303 -43 277 -28Q252 -12 242 13T231 67Q231 84 234 100Q243 156 266
206T320 303T381 397Q397 422 418 461T454 543T470 623Q470 673 444 692T381 712Q337 712 292 694T207 647T142 584Q116 550 100 514T84 445Q84 414 101 391T158 357Q167 355 177 354T196 353Q226 353 245 360Q246 361 248 361Q251 361 252 357T249 351Q229 341
186 341Q167 341 149 344Q97 352 73 382T49 452Q49 523 110 598Q138 632 182 660T278 707T375 725Q410 725 439 714T487 674Q505 647 505 608Q505 571 492 529T459 446T420 374Q397 335 372 291T325 204T291 120T280 47Q283 4 302 -12T347 -29Q373 -29 401 -18T455
9Q494 33 539 79T617 175Q667 250 714 326T812 479Q856 546 905 601T1011 684Q1026 692 1042 696T1074 701Q1096 701 1113 689T1138 647Q1139 644 1139 638Q1139 631 1136 629T1131 632Q1125 659 1104 670T1060 681Q1050 681 1042 679T1025 674Q988 658 948 612T867
501T792 361T733 213T699 79Q698 72 697 60T695 33Q695 14 701 -2T728 -18Q749 -18 772 1T815 49T853 105T879 151Q885 163 893 163Q900 163 894 152Q882 130 863 97T820 29T767 -28T707 -51ZM643 768Q642 767 639 767Q636 767 634 769T635 774L762 862Q776 872
784 872Q789 872 791 867L826 777Q827 776 827 774Q826 772 822 770T816 770L767 840L643 768Z" />
<glyph unicode="&#xdc;" glyph-name="Udieresis" horiz-adv-x="807" d="M707 -51Q665 -51 651 -24T637 37Q637 92 657 151T702 269Q670 215 633 162T554 66T468 -4Q433 -24 401 -33T340 -43Q303 -43 277 -28Q252 -12 242 13T231 67Q231 84 234 100Q243 156 266
206T320 303T381 397Q397 422 418 461T454 543T470 623Q470 673 444 692T381 712Q337 712 292 694T207 647T142 584Q116 550 100 514T84 445Q84 414 101 391T158 357Q167 355 177 354T196 353Q226 353 245 360Q246 361 248 361Q251 361 252 357T249 351Q229 341
186 341Q167 341 149 344Q97 352 73 382T49 452Q49 523 110 598Q138 632 182 660T278 707T375 725Q410 725 439 714T487 674Q505 647 505 608Q505 571 492 529T459 446T420 374Q397 335 372 291T325 204T291 120T280 47Q283 4 302 -12T347 -29Q373 -29 401 -18T455
9Q494 33 539 79T617 175Q667 250 714 326T812 479Q856 546 905 601T1011 684Q1026 692 1042 696T1074 701Q1096 701 1113 689T1138 647Q1139 644 1139 638Q1139 631 1136 629T1131 632Q1125 659 1104 670T1060 681Q1050 681 1042 679T1025 674Q988 658 948 612T867
501T792 361T733 213T699 79Q698 72 697 60T695 33Q695 14 701 -2T728 -18Q749 -18 772 1T815 49T853 105T879 151Q885 163 893 163Q900 163 894 152Q882 130 863 97T820 29T767 -28T707 -51ZM673 776Q663 776 656 783T649 801Q649 815 660 825T684 836Q695 836
702 829T710 811Q710 797 699 787T673 776ZM787 776Q777 776 771 783T764 801Q764 815 775 825T799 836Q824 836 824 812Q824 797 813 787T787 776Z" />
<glyph unicode="&#xdd;" glyph-name="Yacute" horiz-adv-x="744" d="M693 691H691Q683 691 683 700Q683 704 687 707Q710 723 740 747T795 792Q798 795 803 795Q811 795 817 788T824 772Q824 765 819 762L693 691ZM282 -325Q264 -325 245 -319T212 -301T199 -272Q199
-260 204 -251Q206 -248 209 -245T215 -241Q219 -241 218 -249Q215 -275 240 -290T297 -306Q333 -306 373 -285T452 -213Q488 -166 520 -110T581 5T632 117T674 212L699 274Q664 216 624 160T538 58T443 -15T340 -43Q286 -43 259 -13T231 67Q231 82 234 100Q243
156 266 206T320 303T381 397Q397 423 418 458T454 533T470 609Q470 626 466 642T450 671Q435 690 409 698T349 706Q291 706 231 681T120 613T38 519Q22 492 12 463T2 405Q2 398 3 390T6 374Q13 346 33 332T78 318Q107 318 135 337Q164 357 181 389T198 458Q198
480 190 504Q188 512 183 519T173 528Q168 530 168 533T178 536Q197 536 208 515T223 476Q224 471 224 466T225 456Q225 420 207 386T160 332Q120 303 77 303Q45 303 19 320T-19 374Q-26 395 -26 420Q-26 449 -17 478T6 532Q39 592 95 634T219 700T352 723Q393
723 426 711T479 674Q494 655 500 635T506 592Q506 555 492 516T458 440T420 374Q390 324 358 267T303 155T280 56Q280 8 299 -10T348 -29Q395 -29 443 4T539 90T628 207T704 331T759 439Q779 484 805 528T862 606T930 647Q933 648 936 648T941 648Q955 648 962
641T970 626Q970 618 963 611T942 603Q909 602 883 582T837 530T803 466T779 405Q748 318 723 231T665 56T581 -119Q526 -210 454 -267T282 -325Z" />
<glyph unicode="&#xde;" glyph-name="Thorn" horiz-adv-x="456" d="M0 -39Q57 83 112 208T229 455T360 692Q377 719 400 721T448 728Q443 722 427 700T389 645T346 578L312 522Q341 555 374 578T444 602Q491 602 509 578T527 519Q527 487 516 450T490 378T461
321Q448 299 424 268T369 206T303 152T233 124Q227 123 222 123T211 122Q180 122 165 137T148 175Q147 179 147 183T147 191Q131 151 116 111T89 39T73 -10L0 -39ZM195 149Q199 148 203 148T211 147Q243 147 279 175T351 247T415 343T461 444T478 528Q478 554 468
568T434 583Q416 583 393 567T345 524T297 467T253 405Q247 396 233 372T203 317T176 254T164 196Q164 179 171 167T195 149Z" />
<glyph unicode="&#xdf;" glyph-name="germandbls" horiz-adv-x="519" d="M-196 -249Q-225 -257 -252 -257Q-277 -257 -298 -248T-333 -217Q-343 -200 -343 -177Q-343 -159 -336 -145Q-333 -140 -330 -138T-325 -141Q-319 -186 -293 -205T-231 -225Q-186 -225 -137
-199T-56 -130Q-21 -82 9 -18T59 105Q88 187 119 269T191 429T287 575Q321 617 374 651T499 685Q545 685 574 669T618 628T632 575Q632 570 632 565T630 555Q622 509 592 479T519 430T434 400Q416 395 416 364Q416 357 417 349T421 330Q427 307 439 277T463 216T474
164Q474 132 464 100T431 42Q435 26 444 20T465 13Q479 13 494 21T520 43Q537 63 557 95T590 148Q597 159 601 159Q603 159 603 156Q603 151 597 137Q581 108 561 75T520 22Q497 -1 465 -1Q450 -1 438 6T418 28L411 21Q393 7 368 -2T317 -12Q292 -12 272 -2T240
30Q231 48 231 71Q231 92 239 110Q244 122 250 131T265 147Q275 155 284 157T300 160Q314 160 322 153T330 137Q330 133 327 128Q324 129 322 129T316 130Q302 130 288 119Q275 109 266 90T257 52Q257 27 274 14T314 1Q337 1 355 12Q377 25 389 49T407 102T413
156Q413 190 407 221T394 279T385 321Q382 341 382 356Q382 379 390 392T418 411Q436 416 463 426T518 456T565 507Q584 537 584 578Q584 612 566 640T505 671Q447 674 403 645T322 560T244 426Q207 353 172 269T102 99Q83 52 54 -2T-13 -107T-97 -196T-196 -249Z"
/>
<glyph unicode="&#xe0;" glyph-name="agrave" horiz-adv-x="357" d="M287 -7Q255 -7 243 13T231 59Q231 64 232 76T236 100Q222 81 203 58T163 19Q131 -7 105 -7Q80 -7 67 14T53 67Q53 108 71 150T118 229T184 294Q205 309 235 318T297 328Q332 328 358 318T395
288Q374 261 352 222T314 150Q303 128 290 96T277 40Q277 30 282 20T301 10Q317 10 332 22T357 46Q380 71 399 101T437 165Q440 169 443 169Q447 169 447 163Q447 158 445 155Q428 122 407 89T357 27Q343 13 324 3T287 -7ZM127 24Q146 24 168 44T212 94T251 151T279
194Q300 227 318 249T374 283Q376 283 377 283T381 284Q372 298 351 305T310 312Q279 312 250 295T197 252Q174 225 152 193T117 128T103 65Q103 49 108 37T127 24ZM324 389L217 449Q211 452 211 457Q211 464 217 470T230 477Q234 477 237 474Q258 458 284 437T329
402Q332 400 332 396Q332 393 329 391T324 389Z" />
<glyph unicode="&#xe1;" glyph-name="aacute" horiz-adv-x="357" d="M287 -7Q255 -7 243 13T231 59Q231 64 232 76T236 100Q222 81 203 58T163 19Q131 -7 105 -7Q80 -7 67 14T53 67Q53 108 71 150T118 229T184 294Q205 309 235 318T297 328Q332 328 358 318T395
288Q374 261 352 222T314 150Q303 128 290 96T277 40Q277 30 282 20T301 10Q317 10 332 22T357 46Q380 71 399 101T437 165Q440 169 443 169Q447 169 447 163Q447 158 445 155Q428 122 407 89T357 27Q343 13 324 3T287 -7ZM127 24Q146 24 168 44T212 94T251 151T279
194Q300 227 318 249T374 283Q376 283 377 283T381 284Q372 298 351 305T310 312Q279 312 250 295T197 252Q174 225 152 193T117 128T103 65Q103 49 108 37T127 24ZM292 393H290Q283 393 283 400Q283 404 287 406Q306 419 331 440T378 478Q383 481 385 481Q392
481 398 475T404 461Q404 456 399 453L292 393Z" />
<glyph unicode="&#xe2;" glyph-name="acircumflex" horiz-adv-x="357" d="M287 -7Q255 -7 243 13T231 59Q231 64 232 76T236 100Q222 81 203 58T163 19Q131 -7 105 -7Q80 -7 67 14T53 67Q53 108 71 150T118 229T184 294Q205 309 235 318T297 328Q332 328 358 318T395
288Q374 261 352 222T314 150Q303 128 290 96T277 40Q277 30 282 20T301 10Q317 10 332 22T357 46Q380 71 399 101T437 165Q440 169 443 169Q447 169 447 163Q447 158 445 155Q428 122 407 89T357 27Q343 13 324 3T287 -7ZM127 24Q146 24 168 44T212 94T251 151T279
194Q300 227 318 249T374 283Q376 283 377 283T381 284Q372 298 351 305T310 312Q279 312 250 295T197 252Q174 225 152 193T117 128T103 65Q103 49 108 37T127 24ZM225 385Q224 384 221 384Q218 384 216 386T217 391L344 479Q358 489 366 489Q371 489 373 484L408
394Q409 393 409 391Q408 389 404 387T398 387L349 457L225 385Z" />
<glyph unicode="&#xe3;" glyph-name="atilde" horiz-adv-x="357" d="M287 -7Q255 -7 243 13T231 59Q231 64 232 76T236 100Q222 81 203 58T163 19Q131 -7 105 -7Q80 -7 67 14T53 67Q53 108 71 150T118 229T184 294Q205 309 235 318T297 328Q332 328 358 318T395
288Q374 261 352 222T314 150Q303 128 290 96T277 40Q277 30 282 20T301 10Q317 10 332 22T357 46Q380 71 399 101T437 165Q440 169 443 169Q447 169 447 163Q447 158 445 155Q428 122 407 89T357 27Q343 13 324 3T287 -7ZM127 24Q146 24 168 44T212 94T251 151T279
194Q300 227 318 249T374 283Q376 283 377 283T381 284Q372 298 351 305T310 312Q279 312 250 295T197 252Q174 225 152 193T117 128T103 65Q103 49 108 37T127 24ZM355 406Q330 406 311 415T271 425Q254 425 245 419T233 407H227Q227 424 240 437T271 451Q292
451 311 442T355 433Q375 433 383 442T393 454H399Q399 436 387 421T355 406Z" />
<glyph unicode="&#xe4;" glyph-name="adieresis" horiz-adv-x="357" d="M287 -7Q255 -7 243 13T231 59Q231 64 232 76T236 100Q222 81 203 58T163 19Q131 -7 105 -7Q80 -7 67 14T53 67Q53 108 71 150T118 229T184 294Q205 309 235 318T297 328Q332 328 358 318T395
288Q374 261 352 222T314 150Q303 128 290 96T277 40Q277 30 282 20T301 10Q317 10 332 22T357 46Q380 71 399 101T437 165Q440 169 443 169Q447 169 447 163Q447 158 445 155Q428 122 407 89T357 27Q343 13 324 3T287 -7ZM127 24Q146 24 168 44T212 94T251 151T279
194Q300 227 318 249T374 283Q376 283 377 283T381 284Q372 298 351 305T310 312Q279 312 250 295T197 252Q174 225 152 193T117 128T103 65Q103 49 108 37T127 24ZM255 403Q245 403 238 410T231 428Q231 442 242 452T266 463Q277 463 284 456T292 438Q292 424
281 414T255 403ZM369 403Q359 403 353 410T346 428Q346 442 357 452T381 463Q406 463 406 439Q406 424 395 414T369 403Z" />
<glyph unicode="&#xe5;" glyph-name="aring" horiz-adv-x="357" d="M287 -7Q255 -7 243 13T231 59Q231 64 232 76T236 100Q222 81 203 58T163 19Q131 -7 105 -7Q80 -7 67 14T53 67Q53 108 71 150T118 229T184 294Q205 309 235 318T297 328Q332 328 358 318T395
288Q374 261 352 222T314 150Q303 128 290 96T277 40Q277 30 282 20T301 10Q317 10 332 22T357 46Q380 71 399 101T437 165Q440 169 443 169Q447 169 447 163Q447 158 445 155Q428 122 407 89T357 27Q343 13 324 3T287 -7ZM127 24Q146 24 168 44T212 94T251 151T279
194Q300 227 318 249T374 283Q376 283 377 283T381 284Q372 298 351 305T310 312Q279 312 250 295T197 252Q174 225 152 193T117 128T103 65Q103 49 108 37T127 24ZM305 379Q283 379 269 389T249 412Q245 421 245 434Q245 464 268 491T329 519Q352 519 365 509T386
486Q387 481 388 475T389 461Q389 431 366 405T305 379ZM311 390Q338 391 350 414T363 457Q363 473 357 485Q353 495 347 501T326 507Q304 507 292 492T275 460Q272 453 272 439Q272 424 278 412Q282 403 290 397T311 390Z" />
<glyph unicode="&#xe6;" glyph-name="ae" horiz-adv-x="455" d="M286 -3Q270 7 260 23T250 64Q250 96 271 144Q266 140 260 133T247 117Q233 96 207 68T156 19Q140 6 125 0T98 -6Q74 -6 61 14T47 66Q47 87 53 111Q82 223 177 294Q197 309 227 318T289 328Q313
328 335 323T377 304Q395 315 413 322T451 330Q463 330 474 327T493 316Q500 310 502 302T505 284Q505 260 493 234T470 193Q454 172 434 154T392 127Q383 123 372 121T349 118Q325 118 313 130Q295 79 295 48Q295 31 301 20Q308 9 320 5T346 0Q387 0 420 19T475
71Q486 87 495 103T512 136Q515 144 518 144Q520 144 520 138Q520 134 519 127T512 110Q499 84 478 52T422 0Q389 -18 348 -18Q332 -18 316 -14T286 -3ZM316 141Q326 134 339 134Q360 134 381 147T415 173Q428 185 440 201T465 239Q470 248 475 263T481 291Q481
301 476 309T456 317Q438 317 413 295T365 238Q354 220 341 195T316 141ZM120 24Q140 24 162 44T205 94T244 151T272 194Q288 219 312 247T365 297Q336 314 310 314Q294 314 270 306Q227 291 193 252Q159 215 136 173T104 98Q102 89 100 80T98 60Q98 46 103 35T120
24Z" />
<glyph unicode="&#xe7;" glyph-name="ccedilla" horiz-adv-x="265" d="M163 -11Q111 -11 89 20T67 95Q67 142 87 190Q102 226 126 257T183 309T257 329Q287 329 303 315T320 276Q320 268 319 259T312 239Q305 221 294 207T269 185Q262 181 253 181Q246 181 240
185T234 198Q234 214 251 232T297 252Q302 265 302 275Q302 291 292 302T261 314Q235 314 210 295T166 244T134 177Q128 161 123 137T118 88Q118 57 131 33T183 8Q210 8 234 23T277 62T312 109T338 153Q339 157 343 157Q348 157 348 149Q348 145 345 140Q324 103
300 69T243 12T163 -11ZM67 -238Q60 -238 60 -229Q60 -225 63 -224T67 -222Q83 -217 99 -217T128 -213T150 -199T158 -163Q158 -150 147 -136T125 -105T114 -72Q114 -46 129 -22T174 2Q183 2 184 -4Q165 -8 155 -24T145 -58Q145 -70 157 -84T181 -115T194 -154Q194
-183 173 -202T122 -229T67 -238Z" />
<glyph unicode="&#xe8;" glyph-name="egrave" horiz-adv-x="262" d="M170 -8Q112 -8 88 22Q76 35 71 53T66 90Q66 114 72 138T87 184Q101 217 124 250T179 307T251 330Q277 330 292 317T307 277Q307 246 288 215T240 162T180 141Q152 141 131 161Q125 145 121
126T117 86Q117 55 129 32T175 9Q199 9 221 21T262 52Q282 73 300 97T335 153Q337 156 338 156Q342 156 342 147Q342 141 338 134Q323 107 303 80T262 32Q243 14 221 3T170 -8ZM136 176Q143 166 152 162T172 157Q196 157 222 175T264 219Q271 230 276 248T282 282Q282
296 277 306T255 317Q237 317 213 295T166 238Q159 226 151 210T136 176ZM277 376L170 436Q164 439 164 444Q164 451 170 457T183 464Q187 464 190 461Q211 445 237 424T282 389Q285 387 285 383Q285 380 282 378T277 376Z" />
<glyph unicode="&#xe9;" glyph-name="eacute" horiz-adv-x="262" d="M170 -8Q112 -8 88 22Q76 35 71 53T66 90Q66 114 72 138T87 184Q101 217 124 250T179 307T251 330Q277 330 292 317T307 277Q307 246 288 215T240 162T180 141Q152 141 131 161Q125 145 121
126T117 86Q117 55 129 32T175 9Q199 9 221 21T262 52Q282 73 300 97T335 153Q337 156 338 156Q342 156 342 147Q342 141 338 134Q323 107 303 80T262 32Q243 14 221 3T170 -8ZM136 176Q143 166 152 162T172 157Q196 157 222 175T264 219Q271 230 276 248T282 282Q282
296 277 306T255 317Q237 317 213 295T166 238Q159 226 151 210T136 176ZM245 380H243Q236 380 236 387Q236 391 240 393Q259 406 284 427T331 465Q336 468 338 468Q345 468 351 462T357 448Q357 443 352 440L245 380Z" />
<glyph unicode="&#xea;" glyph-name="ecircumflex" horiz-adv-x="262" d="M170 -8Q112 -8 88 22Q76 35 71 53T66 90Q66 114 72 138T87 184Q101 217 124 250T179 307T251 330Q277 330 292 317T307 277Q307 246 288 215T240 162T180 141Q152 141 131 161Q125 145
121 126T117 86Q117 55 129 32T175 9Q199 9 221 21T262 52Q282 73 300 97T335 153Q337 156 338 156Q342 156 342 147Q342 141 338 134Q323 107 303 80T262 32Q243 14 221 3T170 -8ZM136 176Q143 166 152 162T172 157Q196 157 222 175T264 219Q271 230 276 248T282
282Q282 296 277 306T255 317Q237 317 213 295T166 238Q159 226 151 210T136 176ZM178 372Q177 371 174 371Q171 371 169 373T170 378L297 466Q311 476 319 476Q324 476 326 471L361 381Q362 380 362 378Q361 376 357 374T351 374L302 444L178 372Z" />
<glyph unicode="&#xeb;" glyph-name="edieresis" horiz-adv-x="262" d="M170 -8Q112 -8 88 22Q76 35 71 53T66 90Q66 114 72 138T87 184Q101 217 124 250T179 307T251 330Q277 330 292 317T307 277Q307 246 288 215T240 162T180 141Q152 141 131 161Q125 145 121
126T117 86Q117 55 129 32T175 9Q199 9 221 21T262 52Q282 73 300 97T335 153Q337 156 338 156Q342 156 342 147Q342 141 338 134Q323 107 303 80T262 32Q243 14 221 3T170 -8ZM136 176Q143 166 152 162T172 157Q196 157 222 175T264 219Q271 230 276 248T282 282Q282
296 277 306T255 317Q237 317 213 295T166 238Q159 226 151 210T136 176ZM208 646Q198 646 191 653T184 671Q184 685 195 695T219 706Q230 706 237 699T245 681Q245 667 234 657T208 646ZM322 646Q312 646 306 653T299 671Q299 685 310 695T334 706Q359 706 359
682Q359 667 348 657T322 646Z" />
<glyph unicode="&#xec;" glyph-name="igrave" horiz-adv-x="172" d="M102 -6Q74 -6 61 12T48 58Q48 66 49 74T53 92Q64 132 87 181T133 270Q146 292 157 301T181 315T212 326Q217 328 222 329T233 331Q213 311 193 283T148 206Q135 180 123 148T101 88T91 44Q90
25 96 17T112 9Q129 9 144 21T172 46Q194 71 213 101T252 165Q255 169 257 169Q261 169 261 163Q261 158 259 155Q241 122 221 89T172 27Q159 14 142 4T102 -6ZM231 376L124 436Q118 439 118 444Q118 451 124 457T137 464Q141 464 144 461Q165 445 191 424T236
389Q239 387 239 383Q239 380 236 378T231 376Z" />
<glyph unicode="&#xed;" glyph-name="iacute" horiz-adv-x="172" d="M102 -6Q74 -6 61 12T48 58Q48 66 49 74T53 92Q64 132 87 181T133 270Q146 292 157 301T181 315T212 326Q217 328 222 329T233 331Q213 311 193 283T148 206Q135 180 123 148T101 88T91 44Q90
25 96 17T112 9Q129 9 144 21T172 46Q194 71 213 101T252 165Q255 169 257 169Q261 169 261 163Q261 158 259 155Q241 122 221 89T172 27Q159 14 142 4T102 -6ZM199 380H197Q190 380 190 387Q190 391 194 393Q213 406 238 427T285 465Q290 468 292 468Q299 468
305 462T311 448Q311 443 306 440L199 380Z" />
<glyph unicode="&#xee;" glyph-name="icircumflex" horiz-adv-x="172" d="M102 -6Q74 -6 61 12T48 58Q48 66 49 74T53 92Q64 132 87 181T133 270Q146 292 157 301T181 315T212 326Q217 328 222 329T233 331Q213 311 193 283T148 206Q135 180 123 148T101 88T91
44Q90 25 96 17T112 9Q129 9 144 21T172 46Q194 71 213 101T252 165Q255 169 257 169Q261 169 261 163Q261 158 259 155Q241 122 221 89T172 27Q159 14 142 4T102 -6ZM132 372Q131 371 128 371Q125 371 123 373T124 378L251 466Q265 476 273 476Q278 476 280 471L315
381Q316 380 316 378Q315 376 311 374T305 374L256 444L132 372Z" />
<glyph unicode="&#xef;" glyph-name="idieresis" horiz-adv-x="172" d="M102 -6Q74 -6 61 12T48 58Q48 66 49 74T53 92Q64 132 87 181T133 270Q146 292 157 301T181 315T212 326Q217 328 222 329T233 331Q213 311 193 283T148 206Q135 180 123 148T101 88T91 44Q90
25 96 17T112 9Q129 9 144 21T172 46Q194 71 213 101T252 165Q255 169 257 169Q261 169 261 163Q261 158 259 155Q241 122 221 89T172 27Q159 14 142 4T102 -6ZM172 390Q162 390 155 397T148 415Q148 429 159 439T183 450Q194 450 201 443T209 425Q209 411 198
401T172 390ZM266 390Q256 390 250 397T243 415Q243 429 254 439T278 450Q303 450 303 426Q303 411 292 401T266 390Z" />
<glyph unicode="&#xf0;" glyph-name="eth" horiz-adv-x="313" d="M107 -9Q83 -9 69 4T48 37T42 76Q42 136 67 187T133 276Q159 301 190 313T249 326Q278 326 289 306T301 260Q304 279 306 299T308 340Q308 383 300 426T275 506L188 463L179 481L265 524Q260 535
253 545T238 564Q199 609 145 609Q137 609 128 608T110 605H109Q106 605 106 609Q106 617 122 622Q140 628 161 628Q192 628 221 616T273 584Q292 566 305 544L374 578L383 559L315 525Q331 492 337 454T344 377Q344 340 339 304T326 237Q316 200 298 157T252 77T189
15T107 -9ZM116 2Q137 2 160 21T206 72T247 139T275 207T286 262Q286 280 279 297T249 314Q226 314 203 295T158 246T121 180T96 110T86 49Q86 28 93 15T116 2Z" />
<glyph unicode="&#xf1;" glyph-name="ntilde" horiz-adv-x="326" d="M258 -6Q229 -6 213 12T196 57Q196 70 201 87Q215 131 245 174T296 261Q303 275 303 286Q303 297 297 302T281 308Q268 308 249 298T204 258Q189 240 170 214T139 167Q119 133 103 99T75 35Q65
12 51 6T24 0T4 0Q32 55 59 116T105 238Q114 266 120 292T125 327V329Q125 337 133 333Q146 326 151 313T156 282Q156 263 151 242T139 203Q152 221 167 239T200 275Q221 296 245 311T297 327Q324 327 336 315T349 283Q349 262 337 235Q324 204 306 173T272 113Q269
107 263 95T251 67Q249 60 247 53T245 37Q245 27 249 19T267 10Q284 10 299 21T326 46Q349 71 368 101T407 166Q410 170 411 170Q415 170 415 161Q415 155 413 152Q395 119 375 88T326 27Q313 14 296 4T258 -6ZM262 409Q237 409 218 418T178 428Q161 428 152 422T140
410H134Q134 427 147 440T178 454Q199 454 218 445T262 436Q282 436 290 445T300 457H306Q306 439 294 424T262 409Z" />
<glyph unicode="&#xf2;" glyph-name="ograve" horiz-adv-x="378" d="M155 -20Q117 -20 90 4T62 80Q62 112 73 146T99 208Q125 257 164 293T259 330Q312 330 333 301T354 230Q354 213 351 195Q343 146 318 100Q325 90 336 84T362 77Q386 77 403 90T432 122T454
159Q460 170 465 170Q468 170 468 166Q468 162 462 148Q445 114 422 89T362 64Q328 64 310 88Q282 42 242 11T155 -20ZM157 -8Q206 -8 254 40Q268 54 279 69T300 101Q287 116 282 133T276 167Q276 192 285 211T310 231Q318 231 325 223T335 198Q338 212 338 228Q338
266 324 288T277 311Q257 311 236 296T197 258T164 213T143 175Q126 138 119 109T111 58Q111 26 124 9T157 -8ZM298 376L191 436Q185 439 185 444Q185 451 191 457T204 464Q208 464 211 461Q232 445 258 424T303 389Q306 387 306 383Q306 380 303 378T298 376Z"
/>
<glyph unicode="&#xf3;" glyph-name="oacute" horiz-adv-x="378" d="M155 -20Q117 -20 90 4T62 80Q62 112 73 146T99 208Q125 257 164 293T259 330Q312 330 333 301T354 230Q354 213 351 195Q343 146 318 100Q325 90 336 84T362 77Q386 77 403 90T432 122T454
159Q460 170 465 170Q468 170 468 166Q468 162 462 148Q445 114 422 89T362 64Q328 64 310 88Q282 42 242 11T155 -20ZM157 -8Q206 -8 254 40Q268 54 279 69T300 101Q287 116 282 133T276 167Q276 192 285 211T310 231Q318 231 325 223T335 198Q338 212 338 228Q338
266 324 288T277 311Q257 311 236 296T197 258T164 213T143 175Q126 138 119 109T111 58Q111 26 124 9T157 -8ZM266 380H264Q257 380 257 387Q257 391 261 393Q280 406 305 427T352 465Q357 468 359 468Q366 468 372 462T378 448Q378 443 373 440L266 380Z" />
<glyph unicode="&#xf4;" glyph-name="ocircumflex" horiz-adv-x="378" d="M155 -20Q117 -20 90 4T62 80Q62 112 73 146T99 208Q125 257 164 293T259 330Q312 330 333 301T354 230Q354 213 351 195Q343 146 318 100Q325 90 336 84T362 77Q386 77 403 90T432 122T454
159Q460 170 465 170Q468 170 468 166Q468 162 462 148Q445 114 422 89T362 64Q328 64 310 88Q282 42 242 11T155 -20ZM157 -8Q206 -8 254 40Q268 54 279 69T300 101Q287 116 282 133T276 167Q276 192 285 211T310 231Q318 231 325 223T335 198Q338 212 338 228Q338
266 324 288T277 311Q257 311 236 296T197 258T164 213T143 175Q126 138 119 109T111 58Q111 26 124 9T157 -8ZM199 372Q198 371 195 371Q192 371 190 373T191 378L318 466Q332 476 340 476Q345 476 347 471L382 381Q383 380 383 378Q382 376 378 374T372 374L323
444L199 372Z" />
<glyph unicode="&#xf5;" glyph-name="otilde" horiz-adv-x="378" d="M155 -20Q117 -20 90 4T62 80Q62 112 73 146T99 208Q125 257 164 293T259 330Q312 330 333 301T354 230Q354 213 351 195Q343 146 318 100Q325 90 336 84T362 77Q386 77 403 90T432 122T454
159Q460 170 465 170Q468 170 468 166Q468 162 462 148Q445 114 422 89T362 64Q328 64 310 88Q282 42 242 11T155 -20ZM157 -8Q206 -8 254 40Q268 54 279 69T300 101Q287 116 282 133T276 167Q276 192 285 211T310 231Q318 231 325 223T335 198Q338 212 338 228Q338
266 324 288T277 311Q257 311 236 296T197 258T164 213T143 175Q126 138 119 109T111 58Q111 26 124 9T157 -8ZM329 393Q304 393 285 402T245 412Q228 412 219 406T207 394H201Q201 411 214 424T245 438Q266 438 285 429T329 420Q349 420 357 429T367 441H373Q373
423 361 408T329 393Z" />
<glyph unicode="&#xf6;" glyph-name="odieresis" horiz-adv-x="378" d="M155 -20Q117 -20 90 4T62 80Q62 112 73 146T99 208Q125 257 164 293T259 330Q312 330 333 301T354 230Q354 213 351 195Q343 146 318 100Q325 90 336 84T362 77Q386 77 403 90T432 122T454
159Q460 170 465 170Q468 170 468 166Q468 162 462 148Q445 114 422 89T362 64Q328 64 310 88Q282 42 242 11T155 -20ZM157 -8Q206 -8 254 40Q268 54 279 69T300 101Q287 116 282 133T276 167Q276 192 285 211T310 231Q318 231 325 223T335 198Q338 212 338 228Q338
266 324 288T277 311Q257 311 236 296T197 258T164 213T143 175Q126 138 119 109T111 58Q111 26 124 9T157 -8ZM229 390Q219 390 212 397T205 415Q205 429 216 439T240 450Q251 450 258 443T266 425Q266 411 255 401T229 390ZM343 390Q333 390 327 397T320 415Q320
429 331 439T355 450Q380 450 380 426Q380 411 369 401T343 390Z" />
<glyph unicode="&#xf7;" glyph-name="divide" horiz-adv-x="383" d="M256 249Q246 249 239 256T232 273Q232 287 242 298T267 309Q278 309 285 303T292 285Q292 270 282 260T256 249ZM125 176V195H362V176H125ZM219 61Q209 61 201 68T193 86Q193 100 203 111T228
122Q239 122 246 115T254 96Q254 83 244 73T219 61Z" />
<glyph unicode="&#xf8;" glyph-name="oslash" horiz-adv-x="348" d="M155 -20Q117 -20 90 4T62 80Q62 112 73 146T99 208Q125 257 164 293T259 330Q312 330 333 301T354 230Q354 213 351 195Q343 146 318 100Q325 90 336 84T362 77Q386 77 403 90T432 122T454
159Q460 170 465 170Q468 170 468 166Q468 162 462 148Q445 114 422 89T362 64Q328 64 310 88Q282 42 242 11T155 -20ZM157 -8Q206 -8 254 40Q268 54 279 69T300 101Q287 116 282 133T276 167Q276 192 285 211T310 231Q318 231 325 223T335 198Q338 212 338 228Q338
266 324 288T277 311Q257 311 236 296T197 258T164 213T143 175Q126 138 119 109T111 58Q111 26 124 9T157 -8ZM22 176L371 633H391L41 176H22Z" />
<glyph unicode="&#xf9;" glyph-name="ugrave" horiz-adv-x="360" d="M105 -6Q74 -6 61 12T47 56Q47 89 60 128T92 202T121 258Q143 295 165 304T221 313Q211 310 195 290T162 239T129 175T104 108T94 52Q94 35 100 24T121 13Q133 13 149 22T178 46Q222 95 249
153T311 270Q333 307 355 316T411 325Q401 322 384 301T349 247T314 179T288 108T277 50Q277 34 283 24T303 13Q315 13 331 23T360 46Q383 71 402 101T440 165Q443 169 445 169Q449 169 449 163Q449 158 447 155Q429 122 409 89T360 27Q344 11 323 1T280 -6Q252
-1 240 16T228 59Q228 79 234 101Q222 82 209 63T178 27Q164 13 145 4T105 -6ZM309 376L202 436Q196 439 196 444Q196 451 202 457T215 464Q219 464 222 461Q243 445 269 424T314 389Q317 387 317 383Q317 380 314 378T309 376Z" />
<glyph unicode="&#xfa;" glyph-name="uacute" horiz-adv-x="360" d="M105 -6Q74 -6 61 12T47 56Q47 89 60 128T92 202T121 258Q143 295 165 304T221 313Q211 310 195 290T162 239T129 175T104 108T94 52Q94 35 100 24T121 13Q133 13 149 22T178 46Q222 95 249
153T311 270Q333 307 355 316T411 325Q401 322 384 301T349 247T314 179T288 108T277 50Q277 34 283 24T303 13Q315 13 331 23T360 46Q383 71 402 101T440 165Q443 169 445 169Q449 169 449 163Q449 158 447 155Q429 122 409 89T360 27Q344 11 323 1T280 -6Q252
-1 240 16T228 59Q228 79 234 101Q222 82 209 63T178 27Q164 13 145 4T105 -6ZM277 380H275Q268 380 268 387Q268 391 272 393Q291 406 316 427T363 465Q368 468 370 468Q377 468 383 462T389 448Q389 443 384 440L277 380Z" />
<glyph unicode="&#xfb;" glyph-name="ucircumflex" horiz-adv-x="360" d="M105 -6Q74 -6 61 12T47 56Q47 89 60 128T92 202T121 258Q143 295 165 304T221 313Q211 310 195 290T162 239T129 175T104 108T94 52Q94 35 100 24T121 13Q133 13 149 22T178 46Q222 95
249 153T311 270Q333 307 355 316T411 325Q401 322 384 301T349 247T314 179T288 108T277 50Q277 34 283 24T303 13Q315 13 331 23T360 46Q383 71 402 101T440 165Q443 169 445 169Q449 169 449 163Q449 158 447 155Q429 122 409 89T360 27Q344 11 323 1T280 -6Q252
-1 240 16T228 59Q228 79 234 101Q222 82 209 63T178 27Q164 13 145 4T105 -6ZM210 372Q209 371 206 371Q203 371 201 373T202 378L329 466Q343 476 351 476Q356 476 358 471L393 381Q394 380 394 378Q393 376 389 374T383 374L334 444L210 372Z" />
<glyph unicode="&#xfc;" glyph-name="udieresis" horiz-adv-x="360" d="M105 -6Q74 -6 61 12T47 56Q47 89 60 128T92 202T121 258Q143 295 165 304T221 313Q211 310 195 290T162 239T129 175T104 108T94 52Q94 35 100 24T121 13Q133 13 149 22T178 46Q222 95 249
153T311 270Q333 307 355 316T411 325Q401 322 384 301T349 247T314 179T288 108T277 50Q277 34 283 24T303 13Q315 13 331 23T360 46Q383 71 402 101T440 165Q443 169 445 169Q449 169 449 163Q449 158 447 155Q429 122 409 89T360 27Q344 11 323 1T280 -6Q252
-1 240 16T228 59Q228 79 234 101Q222 82 209 63T178 27Q164 13 145 4T105 -6ZM240 390Q230 390 223 397T216 415Q216 429 227 439T251 450Q262 450 269 443T277 425Q277 411 266 401T240 390ZM354 390Q344 390 338 397T331 415Q331 429 342 439T366 450Q391 450
391 426Q391 411 380 401T354 390Z" />
<glyph unicode="&#xfd;" glyph-name="yacute" horiz-adv-x="439" d="M320 389H318Q310 389 310 398Q310 402 314 405Q337 420 367 445T422 490Q427 493 430 493Q438 493 445 486T452 470Q452 463 446 460L320 389ZM105 -282Q89 -286 73 -286Q44 -286 29 -272T14
-237Q14 -219 26 -199T62 -162Q93 -141 118 -128T174 -103T249 -69Q256 -53 262 -38T275 -9L321 111Q299 84 277 61T241 25Q221 10 203 2T166 -7Q142 -7 133 7T123 40Q123 56 127 73T138 105Q152 140 168 171T201 237Q205 245 212 263T220 296Q220 313 205 313Q191
313 177 300T151 269T134 242Q134 242 125 223T101 177T71 125Q68 120 63 120Q59 120 59 124Q59 126 64 136Q86 175 98 201T127 255Q143 284 164 310Q178 325 194 332T227 340Q255 340 265 328T276 297Q276 278 268 258T252 223Q227 179 211 147T183 84Q174 62
174 48Q174 22 196 22Q214 22 233 38Q286 81 319 139T382 260Q392 280 407 303T444 343T495 358Q481 345 462 310T421 228T378 130T339 33T307 -46Q334 -35 370 -13T439 46Q462 70 480 100T518 165Q521 169 524 169Q528 169 528 163Q528 158 526 155Q508 122 488
89T439 27Q403 -7 367 -31T298 -67Q274 -121 248 -166T187 -241T105 -282ZM99 -262Q135 -251 161 -224T206 -160T240 -88Q208 -105 160 -123T69 -174Q50 -189 40 -205T30 -235Q30 -249 40 -258T69 -267Q75 -267 82 -266T99 -262Z" />
<glyph unicode="&#xfe;" glyph-name="thorn" horiz-adv-x="296" d="M-115 -253L43 84Q41 82 39 82Q35 82 35 87Q35 94 42 107L91 206L101 226Q113 250 134 287T178 365T219 436T245 478Q262 504 286 506T333 513Q328 507 312 485T274 432T231 364Q209 325 178
269Q198 292 220 308T268 324Q299 324 311 308T323 268Q323 246 316 221T299 173T279 134Q269 118 250 94T206 47Q209 28 218 21T239 13Q253 13 269 22T296 44Q313 64 327 90T354 139L357 147Q358 148 358 148T358 148Q361 148 361 136Q361 130 359 124L354 114Q343
92 329 67T296 23Q272 -1 240 -1Q224 -1 210 7T191 35Q172 19 151 10T110 1Q90 1 80 10T67 36Q66 39 66 46Q66 51 66 55T68 65Q53 29 36 -14T3 -98T-25 -173T-42 -224Q-48 -227 -63 -233T-92 -244T-115 -253ZM105 16Q123 16 141 30T177 67T210 113T235 156Q241
166 251 188T269 235T277 279Q277 292 272 300T253 308Q238 308 219 290T179 244T139 191L132 181Q125 166 118 152T106 127Q102 117 97 106T87 83Q79 61 79 45Q79 32 85 24T105 16Z" />
<glyph unicode="&#xff;" glyph-name="ydieresis" horiz-adv-x="439" d="M298 396Q288 396 281 403T274 421Q274 435 285 445T309 456Q320 456 327 449T335 431Q335 417 324 407T298 396ZM412 396Q402 396 396 403T389 421Q389 435 400 445T424 456Q449 456 449
432Q449 417 438 407T412 396ZM105 -282Q89 -286 73 -286Q44 -286 29 -272T14 -237Q14 -219 26 -199T62 -162Q93 -141 118 -128T174 -103T249 -69Q256 -53 262 -38T275 -9L321 111Q299 84 277 61T241 25Q221 10 203 2T166 -7Q142 -7 133 7T123 40Q123 56 127 73T138
105Q152 140 168 171T201 237Q205 245 212 263T220 296Q220 313 205 313Q191 313 177 300T151 269T134 242Q134 242 125 223T101 177T71 125Q68 120 63 120Q59 120 59 124Q59 126 64 136Q86 175 98 201T127 255Q143 284 164 310Q178 325 194 332T227 340Q255 340
265 328T276 297Q276 278 268 258T252 223Q227 179 211 147T183 84Q174 62 174 48Q174 22 196 22Q214 22 233 38Q286 81 319 139T382 260Q392 280 407 303T444 343T495 358Q481 345 462 310T421 228T378 130T339 33T307 -46Q334 -35 370 -13T439 46Q462 70 480
100T518 165Q521 169 524 169Q528 169 528 163Q528 158 526 155Q508 122 488 89T439 27Q403 -7 367 -31T298 -67Q274 -121 248 -166T187 -241T105 -282ZM99 -262Q135 -251 161 -224T206 -160T240 -88Q208 -105 160 -123T69 -174Q50 -189 40 -205T30 -235Q30 -249
40 -258T69 -267Q75 -267 82 -266T99 -262Z" />
<glyph unicode="&#x2013;" glyph-name="endash" horiz-adv-x="411" d="M129 176V195H393V176H129Z" />
<glyph unicode="&#x2014;" glyph-name="emdash" horiz-adv-x="584" d="M129 176V195H576V176H129Z" />
<glyph unicode="&#x2018;" glyph-name="quoteleft" horiz-adv-x="141" d="M52 526Q40 526 33 535T25 558Q25 574 40 600T81 649T142 677Q154 677 154 668Q154 661 144 661Q111 654 91 633T59 593Q60 593 61 593T65 594Q77 594 85 587T93 566Q93 550 81 538T52 526Z" />
<glyph unicode="&#x2019;" glyph-name="quoteright" horiz-adv-x="263" d="M140 520Q128 520 128 529Q128 535 139 535Q171 542 192 563T224 603H218Q205 603 197 610T189 630Q189 646 200 657T228 670Q258 670 258 636Q257 619 242 594T200 547T140 520Z" />
<glyph unicode="&#x201a;" glyph-name="quotesinglbase" horiz-adv-x="145" d="M33 -74Q22 -74 22 -66Q22 -60 31 -60Q61 -55 80 -32T108 5H104Q80 5 80 27Q80 41 90 50T113 60Q136 60 136 35Q136 22 123 -2T87 -48T33 -74Z" />
<glyph unicode="&#x201c;" glyph-name="quotedblleft" horiz-adv-x="226" d="M150 526Q137 526 130 535T122 558Q122 574 137 600T179 649T240 677Q252 677 252 668Q252 661 241 661Q209 654 188 633T156 593Q158 593 159 593T161 594Q174 594 182 587T190 566Q190
550 179 538T150 526ZM52 526Q40 526 33 535T25 558Q25 574 40 600T81 649T142 677Q154 677 154 668Q154 661 144 661Q111 654 91 633T59 593Q60 593 61 593T65 594Q77 594 85 587T93 566Q93 550 81 538T52 526Z" />
<glyph unicode="&#x201d;" glyph-name="quotedblright" horiz-adv-x="411" d="M237 526Q225 526 225 535Q225 541 236 541Q268 548 289 570T321 609H316Q303 609 295 616T287 637Q287 652 298 664T325 677Q355 677 355 645Q355 629 340 603T299 554T237 526ZM335
526Q323 526 323 535Q323 541 333 541Q366 548 387 570T418 609H413Q401 609 393 617T384 637Q384 652 395 664T423 677Q436 677 444 669T452 645Q452 629 437 603T395 554T335 526Z" />
<glyph unicode="&#x201e;" glyph-name="quotedblbase" horiz-adv-x="239" d="M33 -74Q22 -74 22 -66Q22 -60 31 -60Q61 -55 80 -32T108 5H104Q80 5 80 27Q80 41 90 50T113 60Q136 60 136 35Q136 22 123 -2T87 -48T33 -74ZM127 -74Q117 -74 117 -66Q117 -60 126
-60Q155 -55 174 -32T202 5H198Q174 5 174 28Q174 41 183 50T206 60Q230 60 230 34Q230 22 217 -2T181 -48T127 -74Z" />
<glyph unicode="&#x2022;" glyph-name="bullet" horiz-adv-x="510" d="M250 161Q216 161 192 185T168 243Q168 277 192 301T250 325Q284 325 308 302T333 243Q333 209 309 185T250 161Z" />
<glyph unicode="&#x2039;" glyph-name="guilsinglleft" horiz-adv-x="214" d="M175 71Q171 71 153 81T112 106T69 133T45 150Q41 154 40 159T39 170Q39 175 40 180T45 190Q49 194 62 207T94 237T129 270T158 296T171 307Q173 307 173 303T174 297Q174 293 173
289T169 280Q162 270 153 260T136 241L82 180L169 94Q174 90 177 88T181 77Q181 71 175 71Z" />
<glyph unicode="&#x203a;" glyph-name="guilsinglright" horiz-adv-x="214" d="M50 71Q44 71 44 77Q44 85 48 87T56 94L144 180L89 241Q81 250 73 260T56 280Q53 284 52 288T51 297Q51 299 51 302T54 307L56 306L138 230Q149 220 159 211T180 190Q184 186 185
181T186 170Q186 165 186 160T180 150Q175 146 156 134T114 107T72 82T50 71Z" />
</font>
</defs>
</svg>
