<?xml version="1.0" standalone="no"?>
<!DOCTYPE svg PUBLIC "-//W3C//DTD SVG 1.1//EN" "http://www.w3.org/Graphics/SVG/1.1/DTD/svg11.dtd">
<svg xmlns="http://www.w3.org/2000/svg">
<defs >
<font id="InstrumentSerif" horiz-adv-x="422" ><font-face
    font-family="Instrument Serif"
    units-per-em="1000"
    panose-1="0 0 0 0 0 0 0 0 0 0"
    ascent="990"
    descent="-310"
    alphabetic="0" />
<glyph unicode=" " glyph-name="space" horiz-adv-x="170" />
<glyph unicode="!" glyph-name="exclam" horiz-adv-x="237" d="M117 179Q105 179 105 195Q104 248 101 308T92 430T83 545T75 638T71 694Q71 719 83 734T117 750Q139 750 151 735T163 694Q163 677 160 638T152 545T142 430T134 309T129 195Q129 179 117 179ZM117
-9Q95 -9 80 5T64 44Q64 67 79 81T117 96Q137 96 153 82T169 44Q169 20 153 6T117 -9Z" />
<glyph unicode="&quot;" glyph-name="quotedbl" horiz-adv-x="371" d="M116 489Q104 489 104 506Q103 552 95 584T80 639T72 681Q72 702 83 716T116 731Q139 731 150 717T161 681Q161 662 154 639T138 584T128 506Q128 489 116 489ZM255 489Q243 489 243 506Q242
552 234 584T219 639T211 681Q211 702 222 716T255 731Q278 731 289 717T300 681Q300 662 293 639T277 584T267 506Q267 489 255 489Z" />
<glyph unicode="#" glyph-name="numbersign" horiz-adv-x="635" d="M106 0L155 213Q158 230 142 230H20V260H148Q165 260 170 278L208 443Q211 460 195 460H73V490H201Q218 490 223 507L272 720H304L255 507Q252 490 268 490H426Q443 490 448 507L497 720H529L480
507Q477 490 493 490H615V460H487Q470 460 465 442L427 277Q424 260 440 260H562V230H434Q417 230 412 213L363 0H331L380 213Q383 230 367 230H209Q192 230 187 213L138 0H106ZM215 260H373Q390 260 395 278L433 443Q436 460 420 460H262Q245 460 240 442L202
277Q199 260 215 260Z" />
<glyph unicode="$" glyph-name="dollar" horiz-adv-x="417" d="M184 -9Q164 -9 140 -5T94 5T60 18Q53 22 50 26T46 42L41 199Q41 219 54 219Q65 219 69 201L78 163Q112 20 202 20V347Q194 353 186 359Q112 412 78 461T44 567Q44 635 88 678T202 729V822Q202 830
210 830H218Q226 830 226 822V730H227Q257 730 285 723T331 703Q337 699 340 694T344 681L347 530Q347 513 334 513Q325 513 321 527L314 552Q296 617 277 652T226 697V422Q229 419 233 416Q308 355 342 299T377 178Q377 105 335 56T226 -5V-101Q226 -109 218 -109H210Q202
-109 202 -101V-8Q193 -9 184 -9ZM107 593Q107 555 128 521T202 441V700H201Q158 700 133 672T107 593ZM314 148Q314 197 293 240T226 326V22Q267 28 290 61T314 148Z" />
<glyph unicode="%" glyph-name="percent" horiz-adv-x="590" d="M154 381Q117 381 89 404T46 467T30 556Q30 605 45 644T89 707T154 730Q191 730 218 707T262 645T278 556Q278 507 262 468T219 405T154 381ZM77 0Q61 0 69 14L488 712Q492 720 502 720H513Q529
720 521 706L102 8Q98 0 88 0H77ZM154 401Q185 401 204 435T223 556Q223 642 204 676T154 710Q123 710 104 676T85 556Q85 470 104 436T154 401ZM436 -10Q399 -10 371 13T328 76T312 165Q312 214 327 253T371 316T436 339Q473 339 500 316T544 254T560 165Q560
116 544 77T501 14T436 -10ZM436 10Q467 10 486 44T505 165Q505 251 486 285T436 319Q405 319 386 285T367 165Q367 79 386 45T436 10Z" />
<glyph unicode="&amp;" glyph-name="ampersand" horiz-adv-x="579" d="M206 -9Q151 -9 112 15T53 80T32 168Q32 243 72 304T179 407Q190 414 183 426Q154 474 139 510T124 586Q124 627 143 660T199 713T282 733Q324 733 353 714T397 667T412 609Q412 558 380 516T277
437Q265 429 272 418L399 214Q404 207 409 207T418 215Q429 238 439 262T456 302Q467 331 463 344T439 361L404 366Q391 367 391 378Q391 388 405 388H580Q594 388 594 377Q594 366 581 365L562 363Q540 361 521 347T485 295Q476 273 463 243T436 185Q428 168 437
152L495 59Q505 44 512 36T532 27L576 23Q588 22 588 11Q588 0 574 0H472Q453 0 443 16L397 88Q388 102 378 89Q337 36 294 14T206 -9ZM262 458Q308 486 330 526T353 605Q353 629 347 652T324 690T277 706Q236 706 212 675T187 607Q187 574 199 544T243 463Q249
450 262 458ZM219 38Q254 38 289 55T358 114Q369 131 359 148L212 380Q203 392 192 384Q144 350 121 300T98 188Q98 126 127 82T219 38Z" />
<glyph unicode="&apos;" glyph-name="quotesingle" horiz-adv-x="233" d="M116 489Q104 489 104 506Q103 552 95 584T80 639T72 681Q72 702 83 716T116 731Q139 731 150 717T161 681Q161 662 154 639T138 584T128 506Q128 489 116 489Z" />
<glyph unicode="(" glyph-name="parenleft" horiz-adv-x="340" d="M293 -108Q289 -108 284 -105Q249 -80 212 -40T142 55T90 177T70 322Q70 400 90 467T142 588T211 683T284 749Q289 752 293 752Q302 752 302 744Q302 739 296 733Q214 659 176 552T138 322Q138
200 176 93T296 -89Q302 -95 302 -100Q302 -108 293 -108Z" />
<glyph unicode=")" glyph-name="parenright" horiz-adv-x="340" d="M47 -108Q38 -108 38 -100Q38 -95 44 -89Q127 -15 164 92T202 322Q202 444 165 551T44 733Q38 739 38 744Q38 752 47 752Q52 752 56 749Q91 724 128 684T198 589T250 467T270 322Q270 244 250
177T198 56T129 -39T56 -105Q52 -108 47 -108Z" />
<glyph unicode="*" glyph-name="asterisk" horiz-adv-x="444" d="M222 416Q203 416 193 428T183 455Q183 471 189 484T203 515T214 558Q215 564 212 565T203 563Q173 538 162 517T130 485Q117 478 102 480T77 499Q68 516 73 531T91 553Q105 561 120 562T154 565T196
577Q202 579 202 583T196 589Q173 600 155 601T121 604T91 613Q78 621 73 636T77 667Q87 683 102 686T130 681Q144 673 153 661T173 633T204 602Q209 598 212 600T214 608Q211 634 204 651T190 682T183 711Q183 726 193 738T222 750Q241 750 251 738T261 711Q261
696 255 682T241 651T230 608Q229 602 232 600T240 602Q261 618 271 633T291 660T314 681Q327 689 342 686T367 667Q376 651 371 636T353 613Q339 605 324 604T290 602T248 589Q242 587 242 583T248 577Q271 567 289 565T323 562T353 553Q366 546 371 531T367 499Q357
483 342 481T314 485Q295 496 283 517T241 563Q237 567 233 566T230 558Q233 533 240 516T254 485T261 455Q261 440 251 428T222 416Z" />
<glyph unicode="+" glyph-name="plus" horiz-adv-x="531" d="M258 153Q248 153 248 163V354H70Q60 354 60 364V378Q60 388 70 388H248V580Q248 590 258 590H274Q284 590 284 580V388H461Q471 388 471 378V364Q471 354 461 354H284V163Q284 153 274 153H258Z" />
<glyph unicode="," glyph-name="comma" horiz-adv-x="217" d="M76 -156Q65 -167 57 -160Q48 -153 60 -141Q89 -112 101 -87T113 -35Q113 -19 105 -11T87 5T69 21T61 49Q61 69 74 82T109 96Q134 96 148 78T163 29Q163 -24 139 -73T76 -156Z" />
<glyph unicode="-" glyph-name="hyphen" horiz-adv-x="430" d="M92 259Q82 259 82 269V283Q82 293 92 293H338Q348 293 348 283V269Q348 259 338 259H92Z" />
<glyph unicode="." glyph-name="period" horiz-adv-x="213" d="M107 -9Q85 -9 70 5T54 44Q54 67 69 81T107 96Q127 96 143 82T159 44Q159 20 143 6T107 -9Z" />
<glyph unicode="/" glyph-name="slash" horiz-adv-x="258" d="M18 -130Q8 -130 10 -119L217 781Q219 790 228 790H240Q250 790 248 779L41 -121Q39 -130 30 -130H18Z" />
<glyph unicode="0" glyph-name="zero" horiz-adv-x="460" d="M230 -9Q172 -9 128 40T60 173T36 361Q36 465 60 548T128 681T230 730Q288 730 331 681T399 549T424 361Q424 257 400 173T332 40T230 -9ZM230 18Q293 18 322 103T352 361Q352 534 323 618T230 703Q167
703 138 619T108 361Q108 188 137 103T230 18Z" />
<glyph unicode="1" glyph-name="one" horiz-adv-x="249" d="M20 0Q5 0 5 11Q5 22 18 23L57 27Q78 29 85 37T93 66V660Q93 677 84 682T59 686L23 682Q5 681 5 695Q5 706 21 709Q74 718 99 726T136 735Q157 735 157 713V66Q157 45 164 37T193 27L226 23Q239 22 239
11Q239 0 224 0H20Z" />
<glyph unicode="2" glyph-name="two" horiz-adv-x="404" d="M38 0Q20 0 20 13Q20 20 27 31L147 214Q222 328 255 410T289 562Q289 624 264 657T190 690Q142 690 103 657T53 550Q50 534 38 534Q23 534 25 554Q32 620 59 658T126 713T205 730Q274 730 317 689T361
573Q361 521 337 467T270 348T172 200L94 82Q88 73 93 67T109 60H216Q254 60 279 68T319 100T342 168L351 215Q354 228 366 228Q380 228 378 211L366 23Q364 0 341 0H38Z" />
<glyph unicode="3" glyph-name="three" horiz-adv-x="371" d="M135 -9Q83 -9 52 10T20 60Q20 77 30 86T56 96Q75 96 81 84T90 57T103 30T141 18Q198 18 233 71T269 212Q269 405 159 405Q119 405 91 386Q75 374 67 383Q61 393 75 407L147 475Q191 516 211 550T231
618Q231 655 215 675T169 696Q131 696 105 668T71 591Q69 576 56 576Q42 576 44 594Q51 656 90 693T188 730Q238 730 268 703T299 629Q299 550 170 461L147 445Q143 442 144 439T151 436Q168 441 185 441Q231 441 266 415T321 343T341 236Q341 188 324 144T278
66T212 11T135 -9Z" />
<glyph unicode="4" glyph-name="four" horiz-adv-x="393" d="M170 0Q155 0 155 11Q155 22 168 23L211 29Q232 32 238 39T245 66V196Q245 210 231 210H29Q10 210 10 227Q10 232 12 237T19 252L259 710Q263 720 275 720H295Q313 720 304 703L64 280Q57 266 72 266H231Q245
266 245 280V476Q245 485 255 492L292 513Q299 517 304 515T309 504V280Q309 266 323 266H367Q379 266 379 254V222Q379 210 367 210H323Q309 210 309 196V66Q309 45 315 38T343 27L366 23Q379 20 379 11Q379 0 364 0H170Z" />
<glyph unicode="5" glyph-name="five" horiz-adv-x="382" d="M132 -9Q105 -9 77 -1T29 23T10 62Q10 77 19 86T43 96Q60 96 67 84T81 57T100 30T143 18Q175 18 205 36T256 97T277 208Q277 303 232 354T79 415Q64 417 67 431L120 707Q123 720 135 720H292Q309 720
316 726T329 739T342 745Q350 745 351 739T351 724L336 672Q333 660 321 660H156Q144 660 141 647L112 494Q109 480 124 479Q203 470 252 435T325 346T349 229Q349 154 317 101T235 19T132 -9Z" />
<glyph unicode="6" glyph-name="six" horiz-adv-x="404" d="M206 -9Q156 -9 118 25T58 120T36 261Q36 343 59 420T125 562T222 670T342 729Q352 731 356 727T361 717Q361 707 350 704Q262 675 208 611T128 442Q126 435 129 433T139 434Q170 456 212 456Q259 456
296 427T354 346T376 229Q376 164 353 110T292 23T206 -9ZM204 18Q255 18 279 68T304 224Q304 331 281 381T208 431Q102 431 102 218Q102 18 204 18Z" />
<glyph unicode="7" glyph-name="seven" horiz-adv-x="364" d="M99 0Q83 0 88 15L311 644Q316 660 300 660H78Q62 660 54 654T41 642T28 635Q20 635 19 641T19 656L34 708Q37 720 49 720H346Q360 720 360 708Q360 700 352 675L138 11Q135 0 124 0H99Z" />
<glyph unicode="8" glyph-name="eight" horiz-adv-x="433" d="M215 -9Q157 -9 115 17T51 85T28 172Q28 234 63 282T162 365Q168 368 168 372T163 381Q107 419 80 467T53 564Q53 614 77 651T142 709T229 730Q274 730 310 710T367 654T388 573Q388 521 356 477T271
403Q265 400 265 396T271 387Q344 341 374 293T405 186Q405 130 380 86T312 17T215 -9ZM226 415Q239 406 252 416Q290 443 309 485T329 576Q329 634 304 668T227 703Q175 703 144 672T112 590Q112 560 120 531T154 474T226 415ZM217 18Q277 18 311 54T346 151Q346
202 328 238T278 302T207 353Q194 362 181 353Q89 290 89 169Q89 131 101 96T141 40T217 18Z" />
<glyph unicode="9" glyph-name="nine" horiz-adv-x="402" d="M90 -8Q80 -10 76 -6T71 4Q71 13 82 18Q159 47 209 115T278 302Q280 310 276 312T266 309Q235 285 190 285Q143 285 106 314T48 392T26 502Q26 563 49 614T110 698T196 730Q247 730 285 696T344 602T366
460Q366 336 329 238T229 76T90 -8ZM98 507Q98 310 191 310Q242 310 268 363T294 513Q294 606 270 654T195 703Q98 703 98 507Z" />
<glyph unicode=":" glyph-name="colon" horiz-adv-x="213" d="M107 -9Q85 -9 70 5T54 44Q54 67 69 81T107 96Q127 96 143 82T159 44Q159 20 143 6T107 -9ZM107 371Q85 371 70 385T54 424Q54 447 69 461T107 476Q127 476 143 462T159 424Q159 400 143 386T107 371Z" />
<glyph unicode=";" glyph-name="semicolon" horiz-adv-x="217" d="M76 -156Q65 -167 57 -160Q48 -153 60 -141Q89 -112 101 -87T113 -35Q113 -19 105 -11T87 5T69 21T61 49Q61 69 74 82T109 96Q134 96 148 78T163 29Q163 -24 139 -73T76 -156ZM109 371Q87 371
72 385T56 424Q56 447 71 461T109 476Q129 476 145 462T161 424Q161 400 145 386T109 371Z" />
<glyph unicode="&lt;" glyph-name="less" horiz-adv-x="531" d="M457 533Q463 535 467 532T471 523V511Q471 501 461 498L107 366L461 234Q471 231 471 221V209Q471 203 467 200T457 199L70 345Q60 349 60 359V373Q60 383 70 387L457 533Z" />
<glyph unicode="=" glyph-name="equal" horiz-adv-x="531" d="M70 454Q60 454 60 464V478Q60 488 70 488H461Q471 488 471 478V464Q471 454 461 454H70ZM70 254Q60 254 60 264V278Q60 288 70 288H461Q471 288 471 278V264Q471 254 461 254H70Z" />
<glyph unicode="&gt;" glyph-name="greater" horiz-adv-x="531" d="M74 199Q68 197 64 200T60 209V221Q60 231 70 234L424 366L70 498Q60 501 60 511V523Q60 529 64 532T74 533L461 387Q471 383 471 373V359Q471 349 461 345L74 199Z" />
<glyph unicode="?" glyph-name="question" horiz-adv-x="317" d="M124 179Q112 179 112 195L108 372Q107 407 113 428T138 467L162 491Q194 523 211 551T228 630Q228 680 210 700T167 720Q124 720 100 686T52 577Q48 563 39 563Q28 563 28 580L31 701Q31 709 34
714T42 723Q58 736 87 743T138 750Q207 750 246 714T285 611Q285 554 264 516T199 436L160 400Q150 390 146 379T141 341L137 195Q137 179 124 179ZM123 -9Q101 -9 86 5T70 44Q70 67 85 81T123 96Q143 96 159 82T175 44Q175 20 159 6T123 -9Z" />
<glyph unicode="@" glyph-name="at" horiz-adv-x="660" d="M348 -81Q250 -81 181 -43T76 64T40 218Q40 290 67 355T143 471T253 551T384 580Q455 580 508 548T590 456T620 319Q620 269 606 223T566 141T509 84T442 63Q403 63 388 94T386 178Q387 181 387 184T389
190Q391 195 388 196T382 192Q311 63 250 63Q196 63 196 151Q196 201 213 252T260 345T324 412T393 438Q425 438 439 416Q443 409 448 409Q453 409 456 416Q462 433 474 433Q489 433 484 413L429 177Q409 94 452 94Q485 94 514 127T562 212T581 322Q581 429 527
491T380 553Q300 553 238 510T141 391T106 215Q106 85 167 17T346 -52Q444 -52 507 -6Q524 8 532 -4Q540 -16 527 -26Q457 -81 348 -81ZM268 100Q283 100 303 119T343 168T380 235T408 306T419 369Q419 411 389 411Q366 411 342 386T296 321T261 233T248 143Q248
120 253 110T268 100Z" />
<glyph unicode="A" glyph-name="A" horiz-adv-x="457" d="M-3 0Q-18 0 -18 10Q-18 20 -4 23L11 26Q31 30 41 45T58 89L213 714Q215 724 219 727T228 730Q233 730 237 727T244 714L402 80Q409 52 418 41T446 26L461 23Q475 20 475 10Q475 0 460 0H289Q275 0 275
11Q275 22 292 23L311 25Q328 27 332 36T332 67L294 222Q288 248 261 248H156Q130 248 123 222L89 88Q74 31 119 25L134 23Q151 20 151 11Q151 0 137 0H-3ZM153 278H263Q279 278 276 295L212 563H207L140 295Q137 278 153 278Z" />
<glyph unicode="B" glyph-name="B" horiz-adv-x="478" d="M34 0Q19 0 19 11Q19 20 32 23L55 27Q76 31 82 38T89 66V654Q89 675 83 682T55 693L32 697Q19 700 19 709Q19 720 34 720H237Q287 720 326 699T387 642T410 560Q410 515 384 477T307 412Q301 409 301 404T308
397Q376 374 413 324T450 204Q450 145 423 99T349 26T241 0H34ZM213 411Q266 411 301 452T337 556Q337 618 303 656T213 695Q160 695 160 655V466Q160 437 172 424T213 411ZM228 25Q293 25 334 74T375 207Q375 290 334 338T222 386Q160 386 160 337V94Q160 25 228
25Z" />
<glyph unicode="C" glyph-name="C" horiz-adv-x="480" d="M286 -9Q212 -9 157 37T71 166T40 364Q40 474 73 556T163 684T289 730Q330 730 361 723T416 703Q428 696 428 682L431 530Q431 513 419 513Q408 513 405 526L395 563Q374 641 347 671T281 701Q211 701
165 615T118 364Q118 252 141 175T202 59T282 20Q327 20 354 48T401 156L413 205Q416 220 429 218Q440 216 440 201L436 39Q436 25 423 18Q399 6 367 -1T286 -9Z" />
<glyph unicode="D" glyph-name="D" horiz-adv-x="530" d="M34 0Q19 0 19 11Q19 20 32 23L55 27Q89 33 89 66V654Q89 675 83 682T55 693L32 697Q19 700 19 709Q19 720 34 720H236Q314 720 371 675T459 547T490 357Q490 248 458 168T366 44T226 0H34ZM230 26Q319
26 365 111T412 357Q412 517 368 605T236 694Q160 694 160 621V99Q160 59 176 43T230 26Z" />
<glyph unicode="E" glyph-name="E" horiz-adv-x="453" d="M34 0Q19 0 19 11Q19 20 32 23L55 27Q76 31 82 38T89 66V654Q89 675 83 682T55 693L32 697Q19 700 19 709Q19 720 34 720H370Q393 720 395 697L403 531Q405 514 390 514Q378 514 376 527L370 564Q359 632
325 663T231 695Q191 695 176 684T160 643V402Q160 388 174 388H224Q268 388 278 435L288 485Q292 500 305 498Q316 496 316 481V256Q316 241 305 239Q292 237 288 252L278 301Q271 336 259 347T223 358H174Q160 358 160 344V93Q160 57 178 41T246 25Q296 25 331
50T381 146L393 205Q396 218 408 218Q422 218 420 201L410 23Q408 0 385 0H34Z" />
<glyph unicode="F" glyph-name="F" horiz-adv-x="408" d="M34 0Q19 0 19 11Q19 20 32 23L55 27Q76 31 82 38T89 66V654Q89 675 83 682T55 693L32 697Q19 700 19 709Q19 720 34 720H356Q379 720 381 697L389 531Q391 514 376 514Q364 514 362 527L357 560Q349 612
329 641T284 682T236 695Q192 695 176 681T160 638V402Q160 388 174 388H209Q253 388 263 435L274 485Q277 498 289 498Q301 498 301 481V256Q301 239 289 239Q277 239 274 252L263 301Q256 336 244 347T208 358H174Q160 358 160 344V71Q160 50 166 42T194 30L241
23Q252 21 252 12Q252 0 237 0H34Z" />
<glyph unicode="G" glyph-name="G" horiz-adv-x="521" d="M291 -9Q210 -9 154 37T69 166T40 364Q40 474 74 556T167 684T304 730Q343 730 375 723T431 703Q444 696 444 682L447 530Q447 513 435 513Q424 513 421 526L413 556Q391 639 363 670T286 701Q213 701
166 615T118 364Q118 195 166 107T291 18Q332 18 353 36T374 103V322Q374 343 368 351T340 361L301 365Q288 366 288 377Q288 388 303 388H486Q501 388 501 376Q501 367 490 365L475 363Q453 360 449 351T445 321V50Q445 39 439 33T418 18Q394 6 363 -1T291 -9Z"
/>
<glyph unicode="H" glyph-name="H" horiz-adv-x="546" d="M34 0Q19 0 19 11Q19 20 32 23L55 27Q76 31 82 38T89 66V654Q89 675 83 682T55 693L32 697Q19 700 19 709Q19 720 34 720H217Q232 720 232 708Q232 699 221 697L194 693Q173 690 167 682T160 653V402Q160
388 174 388H372Q386 388 386 402V653Q386 674 380 682T352 693L325 697Q314 699 314 708Q314 720 329 720H512Q527 720 527 709Q527 700 514 697L491 693Q470 689 464 682T457 654V66Q457 45 463 38T491 27L514 23Q527 20 527 11Q527 0 512 0H329Q314 0 314 12Q314
21 325 23L352 27Q373 30 379 38T386 67V344Q386 358 372 358H174Q160 358 160 344V67Q160 46 166 38T194 27L221 23Q232 21 232 12Q232 0 217 0H34Z" />
<glyph unicode="I" glyph-name="I" horiz-adv-x="249" d="M34 0Q19 0 19 11Q19 20 32 23L55 27Q76 31 82 38T89 66V654Q89 675 83 682T55 693L32 697Q19 700 19 709Q19 720 34 720H215Q230 720 230 709Q230 700 217 697L194 693Q173 689 167 682T160 654V66Q160
45 166 38T194 27L217 23Q230 20 230 11Q230 0 215 0H34Z" />
<glyph unicode="J" glyph-name="J" horiz-adv-x="249" d="M14 -215Q-17 -215 -36 -199T-56 -155Q-56 -135 -45 -122T-15 -109Q2 -109 9 -119T20 -142T31 -165T50 -175Q69 -175 79 -153T89 -91V654Q89 675 83 682T55 693L32 697Q19 700 19 709Q19 720 34 720H215Q230
720 230 709Q230 700 217 697L194 693Q173 689 167 682T160 654V44Q160 -76 121 -145T14 -215Z" />
<glyph unicode="K" glyph-name="K" horiz-adv-x="496" d="M34 0Q19 0 19 11Q19 20 32 23L55 27Q76 31 82 38T89 66V654Q89 675 83 682T55 693L32 697Q19 700 19 709Q19 720 34 720H217Q232 720 232 708Q232 699 221 697L194 693Q173 690 167 682T160 653V383Q160
373 166 371T177 378L341 635Q374 686 335 693L312 697Q299 700 299 710Q299 720 313 720H483Q497 720 497 709Q497 698 484 697L465 695Q434 692 414 677T369 623L256 446Q246 429 255 413L443 59Q451 43 459 36T480 27L504 23Q516 22 516 11Q516 0 502 0H324Q310
0 310 11Q310 21 323 23L340 25Q379 30 356 74L212 348Q208 356 203 356T193 349L172 316Q165 306 163 297T160 274V67Q160 46 166 38T194 27L221 23Q232 21 232 12Q232 0 217 0H34Z" />
<glyph unicode="L" glyph-name="L" horiz-adv-x="413" d="M34 0Q19 0 19 11Q19 20 32 23L55 27Q76 31 82 38T89 66V654Q89 675 83 682T55 693L32 697Q19 700 19 709Q19 720 34 720H217Q232 720 232 708Q232 699 221 697L194 693Q173 690 167 682T160 653V93Q160
57 180 41T232 25Q255 25 279 34T324 70T354 148L367 215Q370 228 382 228Q396 228 394 211L382 23Q380 0 357 0H34Z" />
<glyph unicode="M" glyph-name="M" horiz-adv-x="665" d="M315 10Q311 10 306 13T299 26L148 639Q147 646 142 646T137 638L117 86Q116 58 126 44T161 25L174 23Q187 22 187 11Q187 0 172 0H29Q14 0 14 11Q14 22 27 23L40 25Q66 29 75 43T86 86L106 654Q107 675
100 682T70 693L47 697Q34 700 34 709Q34 720 49 720H169Q200 720 207 690L328 191Q330 184 334 184T340 191L466 695Q472 720 498 720H616Q631 720 631 709Q631 700 618 697L595 693Q574 689 567 682T561 654L581 66Q582 45 588 38T615 27L638 23Q651 20 651 11Q651
0 636 0H455Q440 0 440 11Q440 20 453 23L476 27Q497 31 504 38T510 66L493 638Q493 645 489 645T482 640L330 26Q328 16 324 13T315 10Z" />
<glyph unicode="N" glyph-name="N" horiz-adv-x="540" d="M429 -9Q413 -9 402 15L131 603Q128 610 124 609T119 600V86Q119 58 128 44T163 25L176 23Q189 22 189 11Q189 0 174 0H31Q16 0 16 11Q16 22 29 23L42 25Q68 29 78 43T88 86V654Q88 675 82 682T52 693L29
697Q16 700 16 709Q16 720 31 720H138Q163 720 173 698L409 179Q412 173 416 174T421 181V634Q421 666 410 678T382 694L364 697Q351 700 351 709Q351 720 366 720H509Q524 720 524 709Q524 698 511 697L498 695Q472 691 462 679T452 634V23Q452 5 446 -2T429 -9Z"
/>
<glyph unicode="O" glyph-name="O" horiz-adv-x="540" d="M270 -9Q222 -9 180 19T107 98T58 215T40 361Q40 439 57 506T106 623T180 702T270 730Q318 730 359 702T433 624T482 506T500 361Q500 283 483 216T433 98T360 20T270 -9ZM270 18Q341 18 381 103T421 361Q421
534 381 618T270 703Q200 703 160 619T119 361Q119 188 159 103T270 18Z" />
<glyph unicode="P" glyph-name="P" horiz-adv-x="466" d="M34 0Q19 0 19 11Q19 20 32 23L55 27Q76 31 82 38T89 66V654Q89 675 83 682T55 693L32 697Q19 700 19 709Q19 720 34 720H243Q302 720 347 695T417 624T442 520Q442 463 417 419T348 351T246 326H174Q160
326 160 312V70Q160 49 168 42T204 29L241 23Q252 21 252 12Q252 0 237 0H34ZM160 406Q160 351 227 351Q292 351 329 397T367 523Q367 605 329 650T221 695Q160 695 160 655V406Z" />
<glyph unicode="Q" glyph-name="Q" horiz-adv-x="540" d="M434 -215Q404 -215 371 -203T311 -159T275 -71Q270 -39 259 -25T222 -1Q170 16 129 67T64 195T40 361Q40 439 57 506T106 623T180 702T270 730Q318 730 359 702T433 624T482 506T500 361Q500 269 476
192T409 63T312 -3Q306 -4 306 -8T311 -17Q324 -26 333 -39T348 -74Q366 -132 394 -158T457 -184Q487 -184 518 -165Q526 -160 533 -162T540 -172Q540 -179 532 -186Q516 -198 493 -206T434 -215ZM270 18Q341 18 381 103T421 361Q421 534 381 618T270 703Q200 703
160 619T119 361Q119 188 159 103T270 18Z" />
<glyph unicode="R" glyph-name="R" horiz-adv-x="513" d="M450 -9Q363 -9 339 105L316 216Q305 270 292 298T255 336T190 346Q176 346 168 339T160 320V70Q160 49 168 42T204 29L241 23Q252 21 252 12Q252 0 237 0H34Q19 0 19 11Q19 20 32 23L55 27Q76 31 82 38T89
66V654Q89 675 83 682T55 693L32 697Q19 700 19 709Q19 720 34 720H237Q296 720 342 697T414 634T440 540Q440 477 402 427T306 355Q299 353 299 349T305 341Q337 326 355 299T384 227L406 125Q417 73 432 51T470 29Q478 29 484 31T501 41Q509 46 516 44T523 33Q523
16 501 4T450 -9ZM227 371Q295 371 330 416T365 538Q365 612 325 653T213 695Q160 695 160 655V426Q160 371 227 371Z" />
<glyph unicode="S" glyph-name="S" horiz-adv-x="407" d="M184 -9Q164 -9 140 -5T94 5T60 18Q53 22 50 26T46 42L41 199Q41 219 54 219Q65 219 69 201L78 163Q112 20 205 20Q255 20 284 53T314 148Q314 207 284 258T186 359Q112 412 78 461T44 567Q44 641 95 685T227
730Q257 730 285 723T331 703Q337 699 340 694T344 681L347 530Q347 513 334 513Q325 513 321 527L314 552Q292 629 269 664T201 700Q158 700 133 672T107 593Q107 550 135 511T233 416Q308 355 342 299T377 178Q377 122 352 80T284 15T184 -9Z" />
<glyph unicode="T" glyph-name="T" horiz-adv-x="461" d="M118 0Q103 0 103 11Q103 22 116 23L161 30Q181 33 188 40T195 69V669Q195 683 189 689T164 695Q127 695 91 663T44 560L39 527Q37 514 25 514Q10 514 12 531L21 712Q23 735 39 735Q46 735 52 732T72 724T119
720H342Q374 720 388 724T409 731T422 735Q438 735 440 712L449 531Q451 514 436 514Q424 514 422 527L417 560Q407 631 371 663T297 695Q278 695 272 689T266 669V69Q266 48 273 41T300 30L345 23Q358 22 358 11Q358 0 343 0H118Z" />
<glyph unicode="U" glyph-name="U" horiz-adv-x="536" d="M275 -9Q221 -9 180 16T115 87T92 192V654Q92 675 86 682T58 693L35 697Q22 700 22 709Q22 720 37 720H220Q235 720 235 708Q235 699 224 697L197 693Q177 690 170 682T163 653V191Q163 115 197 73T292
31Q354 31 388 73T422 191V633Q422 687 388 693L361 697Q350 699 350 708Q350 720 365 720H509Q524 720 524 709Q524 700 511 697L488 693Q454 687 454 634V192Q454 101 405 46T275 -9Z" />
<glyph unicode="V" glyph-name="V" horiz-adv-x="457" d="M229 -10Q225 -10 220 -7T213 6L55 640Q48 668 40 679T11 694L-4 697Q-18 700 -18 710Q-18 720 -3 720H168Q182 720 182 709Q182 698 165 697L146 695Q129 694 125 685T125 653L241 172Q243 166 247 166T253
172L368 632Q382 689 338 695L323 697Q306 700 306 709Q306 720 320 720H460Q475 720 475 710Q475 700 461 697L446 694Q427 690 417 675T399 631L244 6Q242 -4 238 -7T229 -10Z" />
<glyph unicode="W" glyph-name="W" horiz-adv-x="651" d="M432 -10Q428 -10 424 -7T418 6L341 316Q340 324 335 324T328 316L242 6Q239 -4 236 -7T228 -10Q224 -10 220 -7T213 6L55 640Q48 668 40 679T11 694L-4 697Q-18 700 -18 710Q-18 720 -3 720H158Q172 720
172 709Q172 700 157 697L146 695Q129 692 125 684T125 653L243 165Q245 158 249 158T256 165L301 328Q312 366 312 398T302 469L260 640Q253 668 247 680T229 694L214 697Q200 700 200 710Q200 720 215 720H352Q366 720 366 709Q366 700 351 697L340 695Q327 693
325 684T327 653L361 510Q363 503 367 503T374 510L410 632Q421 670 419 682T407 695L396 697Q381 700 381 709Q381 720 395 720H490Q507 720 507 709Q507 699 490 697L479 696Q466 695 458 680T439 631L401 500Q390 463 390 431T398 359L443 171Q445 164 449 164T455
171L570 632Q584 690 552 695L541 697Q526 700 526 710Q526 720 540 720H652Q669 720 669 709Q669 699 652 697L641 696Q628 695 619 681T601 631L446 6Q444 -4 440 -7T432 -10Z" />
<glyph unicode="X" glyph-name="X" horiz-adv-x="546" d="M38 0Q28 0 24 4T20 12Q20 22 35 25L51 28Q83 34 101 47T133 91L233 329Q238 340 239 351T235 376L110 653Q100 676 89 684T64 694L45 697Q29 700 29 710Q29 720 46 720H222Q240 720 240 710Q240 700 223
697L204 694Q187 691 181 682T183 653L278 440Q282 431 287 431T297 440L383 643Q392 665 389 675T369 690L341 696Q324 700 324 710Q324 720 342 720H495Q506 720 509 717T513 708Q513 698 498 695L482 692Q457 688 440 674T410 629L315 407Q310 394 310 382T316
356L445 67Q456 43 467 36T491 27L510 24Q527 21 527 10Q527 0 509 0H332Q314 0 314 12Q314 21 330 24L350 27Q367 29 374 38T373 67L270 296Q266 305 261 305T251 296L161 77Q152 55 155 45T175 30L203 24Q220 20 220 10Q220 0 202 0H38Z" />
<glyph unicode="Y" glyph-name="Y" horiz-adv-x="477" d="M127 0Q112 0 112 11Q112 22 125 23L170 30Q190 33 197 40T204 69V305Q204 327 194 348L47 656Q40 673 31 682T5 695L-4 697Q-18 700 -18 710Q-18 720 -3 720H168Q182 720 182 709Q182 698 165 697L146
695Q129 694 122 684T125 653L248 391Q252 384 258 384T268 391L386 632Q399 658 393 674T363 694L341 697Q324 700 324 709Q324 720 338 720H480Q495 720 495 710Q495 700 481 697L471 695Q457 692 447 678T419 631L288 368Q281 354 278 342T275 313V69Q275 48
282 41T309 30L354 23Q367 22 367 11Q367 0 352 0H127Z" />
<glyph unicode="Z" glyph-name="Z" horiz-adv-x="427" d="M40 0Q26 0 21 8T21 29L310 674Q316 690 299 690H199Q162 690 132 667T81 577L66 527Q63 514 52 514Q37 514 39 531L57 717Q59 740 74 740Q81 740 87 735T107 725T154 720H375Q389 720 394 713T394 691L105
46Q99 30 116 30H227Q255 30 282 38T330 71T361 148L374 215Q377 228 389 228Q403 228 401 211L389 23Q387 0 364 0H40Z" />
<glyph unicode="[" glyph-name="bracketleft" horiz-adv-x="325" d="M110 -98Q86 -98 86 -74V716Q86 740 110 740H251Q265 740 265 728Q265 716 251 716H156Q144 716 144 704V-62Q144 -74 156 -74H251Q265 -74 265 -86Q265 -98 251 -98H110Z" />
<glyph unicode="\" glyph-name="backslash" horiz-adv-x="258" d="M228 -130Q219 -130 217 -121L10 779Q8 790 18 790H30Q39 790 41 781L248 -119Q250 -130 240 -130H228Z" />
<glyph unicode="]" glyph-name="bracketright" horiz-adv-x="325" d="M215 -98H74Q60 -98 60 -86Q60 -74 74 -74H169Q181 -74 181 -62V704Q181 716 169 716H74Q60 716 60 728Q60 740 74 740H215Q239 740 239 716V-74Q239 -98 215 -98Z" />
<glyph unicode="^" glyph-name="asciicircum" horiz-adv-x="433" d="M86 491Q79 481 68 484T66 507L182 729Q186 736 193 738T207 740H226Q234 740 240 738T251 729L367 507Q378 488 367 485T347 491L217 661L86 491Z" />
<glyph unicode="_" glyph-name="underscore" horiz-adv-x="376" d="M25 -109Q15 -109 15 -99V-85Q15 -75 25 -75H351Q361 -75 361 -85V-99Q361 -109 351 -109H25Z" />
<glyph unicode="`" glyph-name="grave" horiz-adv-x="354" d="M269 586L91 667Q73 675 67 684T60 707Q60 719 70 729T98 740Q111 740 120 736T139 724L283 612Q299 601 292 590Q286 579 269 586Z" />
<glyph unicode="a" glyph-name="a" horiz-adv-x="399" d="M120 -9Q78 -9 51 17T24 88Q24 131 51 169T125 239T232 289Q245 293 245 306V397Q245 445 230 465T189 486Q164 486 144 464T114 388Q109 356 93 342T59 327Q31 327 31 355Q31 384 47 412T91 464T150 502T214
516Q313 516 313 401V95Q313 53 334 53Q347 53 358 70T369 130Q369 146 382 146Q394 146 394 129Q394 56 369 24T311 -9Q287 -9 273 10T254 57Q253 67 246 67T231 58Q207 25 182 8T120 -9ZM147 37Q173 37 195 55T231 105T245 175V248Q245 267 224 259Q163 237 130
199T96 106Q96 37 147 37Z" />
<glyph unicode="b" glyph-name="b" horiz-adv-x="443" d="M206 -9Q165 -9 127 17Q105 32 87 9Q77 -2 72 -5T62 -9Q51 -9 54 5Q58 28 60 64T62 160V640Q62 658 57 664T37 673L16 676Q5 678 5 688Q5 698 16 700Q44 706 63 714T95 730Q111 740 119 740Q130 740 130
724V477Q130 469 136 467T151 472Q194 516 245 516Q291 516 326 486T382 401T403 274Q403 191 377 127T307 27T206 -9ZM204 16Q260 16 294 82T329 260Q329 363 299 417T214 471Q180 471 155 443T130 365V113Q130 68 150 42T204 16Z" />
<glyph unicode="c" glyph-name="c" horiz-adv-x="339" d="M180 -9Q136 -9 101 20T44 105T23 236Q23 321 48 384T118 481T216 516Q262 516 288 498Q298 491 298 476L300 354Q300 339 288 339Q277 339 274 352Q260 407 247 437T220 478T189 490Q169 490 148 467T112
393T97 257Q97 150 124 96T196 42Q231 42 254 71T295 176Q298 187 307 187Q319 187 316 167Q305 97 286 59T240 6T180 -9Z" />
<glyph unicode="d" glyph-name="d" horiz-adv-x="457" d="M181 -9Q137 -9 103 21T49 106T30 233Q30 317 56 380T128 480T232 516Q246 516 260 514T287 505Q303 497 303 512V640Q303 658 298 665T278 673L252 676Q241 678 241 688Q241 698 252 700Q284 706 303
714T336 730Q352 740 360 740Q371 740 371 724V95Q371 53 392 53Q405 53 416 70T427 130Q427 146 440 146Q452 146 452 129Q452 56 427 24T370 -9Q341 -9 326 10T306 57Q305 65 299 65T288 58Q260 19 237 5T181 -9ZM203 37Q229 37 251 54T288 102T303 169V394Q303
439 283 465T229 491Q173 491 139 426T104 247Q104 144 130 91T203 37Z" />
<glyph unicode="e" glyph-name="e" horiz-adv-x="355" d="M192 -9Q144 -9 106 23T46 113T23 249Q23 328 46 388T109 482T198 516Q257 516 293 468T330 310Q330 277 305 277H115Q95 277 95 254Q95 148 126 95T205 42Q243 42 267 69T306 160Q309 171 319 171Q331
171 328 151Q312 62 277 27T192 -9ZM112 302H213Q261 302 261 352Q261 417 245 454T197 491Q158 491 132 446T97 318Q95 302 112 302Z" />
<glyph unicode="f" glyph-name="f" horiz-adv-x="288" d="M85 67V458Q85 482 61 482H38Q26 482 26 492Q26 502 38 503Q85 508 85 544V550Q85 602 100 647T145 720T218 748Q258 748 285 725T312 670Q312 651 303 642T277 632Q257 632 249 645T235 674T223 704T196
717Q176 717 165 695T153 610V522Q153 510 165 510H251Q266 510 266 496Q266 482 251 482H165Q153 482 153 470V67Q153 46 159 38T187 28L240 23Q251 21 251 12Q251 0 236 0H28Q13 0 13 11Q13 22 26 23L51 25Q72 27 78 36T85 67Z" />
<glyph unicode="g" glyph-name="g" horiz-adv-x="402" d="M178 -215Q102 -215 58 -185T14 -111Q14 -93 19 -79T40 -45T91 4Q103 15 103 24T91 39Q55 54 48 77T65 121L137 183Q149 193 136 200Q95 220 71 262T47 352Q47 398 67 435T121 494T197 516Q221 516 243
508Q257 503 260 517Q269 555 293 576T342 598Q365 598 379 585T394 551Q394 534 384 524T359 514Q346 514 340 519T329 529T313 534Q289 534 283 508Q280 498 283 491T294 477Q318 454 331 421T345 348Q345 300 326 262T273 202T197 180Q179 180 166 173T140 151L123
132Q110 116 115 102T143 87H229Q301 87 343 52T385 -46Q385 -95 357 -133T283 -193T178 -215ZM196 205Q232 205 253 244T274 350Q274 415 253 454T196 494Q161 494 140 455T118 350Q118 283 139 244T196 205ZM190 -193Q226 -193 256 -177T303 -133T321 -68Q321
-23 295 1T220 26H197Q166 26 151 20T121 -1Q90 -34 82 -54T74 -95Q74 -139 104 -166T190 -193Z" />
<glyph unicode="h" glyph-name="h" horiz-adv-x="470" d="M27 0Q15 0 15 11Q15 21 26 23L40 25Q61 28 67 37T74 67V640Q74 658 69 664T49 673L28 676Q17 678 17 688Q17 698 28 700Q56 706 75 714T107 730Q123 740 131 740Q142 740 142 724V459Q142 450 148 449T163
455Q201 490 230 503T291 516Q338 516 365 485T392 392V67Q392 46 398 38T426 26L448 23Q459 21 459 11Q459 0 447 0H279Q265 0 265 11Q265 21 276 23L290 25Q311 28 317 37T324 67V381Q324 430 306 450T255 470Q223 470 198 452T157 403T142 335V67Q142 46 148
37T176 26L203 23Q214 21 214 11Q214 0 202 0H27Z" />
<glyph unicode="i" glyph-name="i" horiz-adv-x="223" d="M114 605Q93 605 79 620T64 658Q64 681 78 695T114 710Q135 710 149 696T163 658Q163 635 149 620T114 605ZM30 0Q15 0 15 11Q15 20 28 23L40 25Q65 29 72 37T79 67V403Q79 421 74 427T54 436L33 439Q20
440 20 450Q20 458 36 461Q67 466 86 477T123 504Q132 513 138 513Q147 513 147 501V67Q147 46 153 37T176 26L201 23Q212 21 212 12Q212 0 197 0H30Z" />
<glyph unicode="j" glyph-name="j" horiz-adv-x="215" d="M114 605Q92 605 78 620T64 658Q64 681 78 695T114 710Q136 710 149 696T163 658Q163 635 149 620T114 605ZM4 -215Q-25 -215 -44 -200T-63 -161Q-63 -144 -53 -132T-24 -119Q-8 -119 -1 -127T10 -147T20
-166T40 -175Q59 -175 69 -153T79 -91V403Q79 421 74 427T54 436L33 439Q20 440 20 450Q20 458 36 461Q67 466 86 477T123 504Q132 513 138 513Q147 513 147 501V44Q147 -76 108 -145T4 -215Z" />
<glyph unicode="k" glyph-name="k" horiz-adv-x="451" d="M27 0Q15 0 15 11Q15 21 26 23L40 25Q61 28 67 37T74 67V640Q74 658 69 664T49 673L28 676Q17 678 17 688Q17 698 28 700Q56 706 75 714T107 730Q123 740 131 740Q142 740 142 724V305Q142 295 150 293T167
299L284 425Q305 448 302 463T278 483L255 487Q242 490 242 500Q242 510 256 510H428Q442 510 442 499Q442 488 429 487L420 486Q397 484 374 469T319 420L257 354Q236 331 247 309L373 67Q384 47 397 38T429 25L439 23Q451 20 451 11Q451 0 437 0H263Q249 0 249
11Q249 21 262 23L279 25Q317 30 295 74L200 259Q195 269 186 270T168 263L157 252Q148 243 145 234T142 214V67Q142 46 148 37T176 26L203 23Q214 21 214 11Q214 0 202 0H27Z" />
<glyph unicode="l" glyph-name="l" horiz-adv-x="220" d="M20 0Q8 0 8 11Q8 21 19 23L33 25Q54 28 64 37T74 67V640Q74 658 69 665T49 673L26 676Q15 678 15 688Q15 698 26 700Q54 706 74 714T107 730Q123 740 131 740Q142 740 142 724V67Q142 46 148 38T176 26L199
23Q210 21 210 11Q210 0 198 0H20Z" />
<glyph unicode="m" glyph-name="m" horiz-adv-x="704" d="M30 0Q15 0 15 11Q15 20 28 23L40 25Q61 29 67 37T74 67V403Q74 421 69 427T49 436L28 439Q15 440 15 450Q15 458 31 461Q62 466 78 477T113 504Q122 513 128 513Q137 513 137 501V456Q137 449 143 446T156
449Q197 488 227 502T289 516Q318 516 340 501T374 454Q377 446 384 445T399 450Q440 488 470 502T531 516Q573 516 599 485T626 392V67Q626 46 632 38T660 26L682 23Q693 21 693 11Q693 0 681 0H510Q496 0 496 11Q496 21 507 23L521 25Q544 28 551 37T558 67V381Q558
430 541 450T493 470Q463 470 439 452T399 403T384 335V67Q384 46 391 38T420 26L442 23Q453 21 453 11Q453 0 441 0H271Q257 0 257 11Q257 21 268 23L282 25Q303 28 309 37T316 67V381Q316 430 299 450T251 470Q221 470 197 452T157 403T142 335V67Q142 46 148
37T176 26L203 23Q214 21 214 12Q214 0 199 0H30Z" />
<glyph unicode="n" glyph-name="n" horiz-adv-x="470" d="M30 0Q15 0 15 11Q15 20 28 23L40 25Q61 29 67 37T74 67V403Q74 421 69 427T49 436L28 439Q15 440 15 450Q15 458 31 461Q62 466 78 477T113 504Q122 513 128 513Q137 513 137 501V456Q137 447 143 445T158
450Q198 488 228 502T293 516Q338 516 365 485T392 392V67Q392 46 398 38T426 26L448 23Q459 21 459 11Q459 0 447 0H279Q265 0 265 11Q265 21 276 23L290 25Q311 28 317 37T324 67V381Q324 430 306 450T255 470Q223 470 198 452T157 403T142 335V67Q142 46 148
37T176 26L203 23Q214 21 214 12Q214 0 199 0H30Z" />
<glyph unicode="o" glyph-name="o" horiz-adv-x="408" d="M203 -9Q152 -9 112 25T47 120T23 254Q23 328 47 387T112 481T203 516Q254 516 294 481T359 387T383 254Q383 180 360 120T295 26T203 -9ZM203 16Q307 16 307 254Q307 491 203 491Q99 491 99 254Q99 16 203 16Z" />
<glyph unicode="p" glyph-name="p" horiz-adv-x="444" d="M27 -205Q12 -205 12 -194Q12 -183 25 -182L39 -180Q60 -177 66 -168T73 -138V403Q73 421 68 427T48 436L27 439Q14 440 14 450Q14 458 30 461Q61 466 77 477T112 504Q121 513 127 513Q136 513 136 501V470Q136
463 142 461T156 466L167 477Q187 497 208 506T256 516Q302 516 337 486T393 401T414 274Q414 191 388 127T317 27T212 -9Q182 -9 159 2Q141 10 141 -9V-138Q141 -159 147 -166T175 -177L212 -182Q223 -184 223 -193Q223 -205 208 -205H27ZM215 16Q271 16 305 82T340
260Q340 363 310 417T225 471Q191 471 166 443T141 365V113Q141 68 161 42T215 16Z" />
<glyph unicode="q" glyph-name="q" horiz-adv-x="442" d="M236 -205Q221 -205 221 -193Q221 -184 232 -182L269 -177Q290 -174 296 -167T303 -138V45Q303 53 296 55T282 50Q257 17 235 4T181 -9Q137 -9 103 21T49 106T30 233Q30 317 56 380T128 480T232 516Q252
516 269 510T306 490Q328 475 346 498Q356 509 361 512T371 516Q382 516 379 502Q375 480 373 444T371 347V-138Q371 -159 377 -168T405 -180L419 -182Q432 -183 432 -194Q432 -205 417 -205H236ZM203 37Q229 37 251 54T288 102T303 169V394Q303 439 283 465T229
491Q173 491 139 426T104 247Q104 144 130 91T203 37Z" />
<glyph unicode="r" glyph-name="r" horiz-adv-x="318" d="M154 446Q195 516 253 516Q286 516 302 497T318 453Q318 434 309 422T279 410Q263 410 256 417T244 435T233 452T213 460Q195 460 179 439T153 381T142 299V67Q142 46 148 37T176 26L203 23Q214 21 214
12Q214 0 199 0H30Q15 0 15 11Q15 20 28 23L40 25Q61 29 67 37T74 67V403Q74 421 69 427T49 436L28 439Q15 440 15 450Q15 458 31 461Q62 466 78 477T113 504Q122 513 128 513Q137 513 137 501V447Q137 440 143 439T154 446Z" />
<glyph unicode="s" glyph-name="s" horiz-adv-x="308" d="M131 -9Q108 -9 82 -4T40 10Q31 15 31 27L28 139Q28 156 41 156Q52 156 56 140Q73 69 97 43T157 17Q186 17 205 39T224 102Q224 142 202 173T128 241Q76 276 52 311T28 389Q28 446 68 481T174 516Q194
516 213 512T247 497Q256 491 256 481L258 371Q258 356 246 356Q239 356 236 360T231 372Q211 437 191 462T142 488Q116 488 99 470T82 425Q82 390 103 364T179 300Q229 264 254 223T280 132Q280 68 239 30T131 -9Z" />
<glyph unicode="t" glyph-name="t" horiz-adv-x="259" d="M147 -9Q112 -9 90 15T67 96V470Q67 482 55 482H26Q10 482 10 494Q10 502 19 508Q52 531 72 557T107 630Q114 651 124 651Q135 651 135 635V524Q135 510 149 510H214Q230 510 230 496Q230 482 214 482H149Q135
482 135 468V95Q135 73 142 61T168 48Q189 48 202 69T220 137Q222 151 233 151Q245 151 245 136Q242 59 214 25T147 -9Z" />
<glyph unicode="u" glyph-name="u" horiz-adv-x="454" d="M171 -9Q146 -9 123 2T85 37T70 101V449Q70 467 65 474T45 482L28 484Q11 486 11 497Q11 510 30 510H123Q138 510 138 495V122Q138 76 155 57T204 37Q235 37 259 54T297 101T312 166V449Q312 467 307 474T287
482L270 484Q253 486 253 497Q253 510 272 510H365Q380 510 380 495V107Q380 89 385 83T405 74L426 71Q439 70 439 61Q439 52 423 49Q392 45 374 33T341 4Q332 -5 326 -5Q317 -5 317 7V53Q317 61 312 62T300 58Q263 21 235 6T171 -9Z" />
<glyph unicode="v" glyph-name="v" horiz-adv-x="393" d="M194 -9Q185 -9 181 2L48 443Q41 467 35 474T14 484L-1 487Q-14 490 -14 500Q-14 510 0 510H165Q179 510 179 500Q179 489 166 487L150 485Q126 482 120 474T120 443L203 154Q206 143 213 143T223 154L304
425Q312 452 309 465T280 483L259 487Q246 490 246 500Q246 510 260 510H387Q401 510 401 499Q401 489 389 485L380 482Q365 477 355 464T334 419L207 2Q203 -9 194 -9Z" />
<glyph unicode="w" glyph-name="w" horiz-adv-x="597" d="M187 -9Q174 -9 169 11L48 443Q41 467 35 474T14 484L-1 487Q-14 490 -14 500Q-14 510 0 510H162Q176 510 176 500Q176 489 163 487L147 485Q123 482 117 474T117 443L196 152Q199 142 205 142T215 152L283
411Q285 419 285 427T283 444Q276 468 270 474T249 484L234 487Q221 490 221 500Q221 510 235 510H397Q411 510 411 500Q411 489 398 487L382 485Q358 482 353 474T352 443L416 154Q418 144 424 144T434 154L510 425Q518 452 515 465T486 483L465 487Q452 490 452
500Q452 510 466 510H591Q605 510 605 499Q605 489 593 485L584 482Q569 477 558 464T538 419L424 11Q419 -9 405 -9Q393 -9 388 11L310 331Q307 342 301 342T291 331L205 11Q200 -9 187 -9Z" />
<glyph unicode="x" glyph-name="x" horiz-adv-x="385" d="M227 0Q213 0 213 10Q213 20 226 23L241 26Q271 33 257 59L186 199Q182 206 177 206T167 199L102 77Q80 35 109 29L135 23Q148 20 148 10Q148 0 134 0H6Q-8 0 -8 11Q-8 22 4 25L16 28Q35 33 48 43T81 91L155
227Q163 242 157 256L62 443Q51 466 44 474T26 484L11 487Q-2 490 -2 500Q-2 510 12 510H160Q174 510 174 500Q174 490 161 487L146 484Q116 477 130 451L198 319Q202 312 207 312T216 319L276 433Q298 475 269 481L243 487Q230 490 230 500Q230 510 244 510H372Q386
510 386 499Q386 488 374 485L362 482Q343 478 330 468T297 419L228 291Q219 276 227 260L325 67Q337 43 344 36T361 26L376 23Q389 20 389 10Q389 0 375 0H227Z" />
<glyph unicode="y" glyph-name="y" horiz-adv-x="401" d="M83 -205Q56 -205 40 -187T24 -144Q24 -125 35 -112T65 -99Q81 -99 88 -106T98 -122T104 -138T116 -145Q127 -145 136 -130T161 -64Q171 -34 173 -12T173 35T157 96L48 443Q41 467 35 474T14 484L-1 487Q-14
490 -14 500Q-14 510 0 510H165Q179 510 179 500Q179 489 166 487L150 485Q126 482 120 474T120 443L208 150Q211 140 217 140T227 150L312 425Q320 452 317 465T288 483L267 487Q254 490 254 500Q254 510 268 510H395Q409 510 409 499Q409 489 397 485L388 482Q373
477 363 464T342 419L193 -46Q171 -116 154 -150T120 -194T83 -205Z" />
<glyph unicode="z" glyph-name="z" horiz-adv-x="353" d="M30 0Q15 0 15 13Q15 17 18 23T25 38L249 464Q254 472 251 478T237 484H195Q146 484 123 467T84 418L62 372Q56 359 47 359Q34 359 37 374L61 510Q65 534 79 534Q88 534 90 528T97 516T122 510H322Q337
510 337 497Q337 493 335 487T327 472L104 46Q100 38 102 32T116 26H161Q220 26 244 42T283 96L313 169Q319 182 328 182Q341 182 338 165L312 18Q309 0 291 0H30Z" />
<glyph unicode="{" glyph-name="braceleft" horiz-adv-x="318" d="M246 -96Q120 -96 120 40V182Q120 253 104 281T52 310Q40 310 40 322Q40 334 52 334Q87 334 103 363T120 462V604Q120 740 246 740Q258 740 258 728Q258 716 246 716Q178 716 178 608V466Q178
399 161 368T104 322Q143 307 160 276T178 178V36Q178 -72 246 -72Q258 -72 258 -84Q258 -96 246 -96Z" />
<glyph unicode="|" glyph-name="bar" horiz-adv-x="252" d="M118 -130Q110 -130 110 -122V782Q110 790 118 790H134Q142 790 142 782V-122Q142 -130 134 -130H118Z" />
<glyph unicode="}" glyph-name="braceright" horiz-adv-x="318" d="M72 -96Q60 -96 60 -84Q60 -72 72 -72Q140 -72 140 36V178Q140 245 157 276T214 322Q175 337 158 368T140 466V608Q140 716 72 716Q60 716 60 728Q60 740 72 740Q198 740 198 604V462Q198 392
214 363T266 334Q278 334 278 322Q278 310 266 310Q231 310 215 282T198 182V40Q198 -96 72 -96Z" />
<glyph unicode="~" glyph-name="asciitilde" horiz-adv-x="531" d="M358 301Q319 301 286 316T222 347T158 362Q133 362 114 350T86 311Q82 299 72 299Q59 299 62 314Q72 364 103 389T172 414Q210 414 244 399T309 369T372 353Q397 353 416 365T444 404Q449 416
458 416Q471 416 468 401Q458 352 427 327T358 301Z" />
<glyph unicode="&#xa0;" glyph-name="uni00A0" horiz-adv-x="170" />
<glyph unicode="&#xa1;" glyph-name="exclamdown" horiz-adv-x="237" d="M121 520Q141 520 157 506T173 467Q173 445 157 430T121 415Q99 415 84 430T68 467Q68 491 83 505T121 520ZM121 -215Q99 -215 87 -200T75 -159Q75 -138 80 -87T91 33T103 176T109 316Q109
332 121 332Q133 332 133 316Q134 250 139 176T150 34T162 -86T167 -159Q167 -184 155 -199T121 -215Z" />
<glyph unicode="&#xa2;" glyph-name="cent" horiz-adv-x="339" d="M187 -109Q179 -109 179 -101V-9Q135 -9 100 21T44 105T23 236Q23 349 67 422T179 512V608Q179 616 187 616H195Q203 616 203 608V515Q209 516 216 516Q262 516 288 498Q298 491 298 476L300 354Q300
339 288 339Q277 339 274 352Q256 423 240 452T203 488V42Q235 45 257 74T295 176Q298 187 307 187Q319 187 316 167Q301 74 272 37T203 -7V-101Q203 -109 195 -109H187ZM97 257Q97 160 119 107T179 44V489Q160 484 141 459T110 384T97 257Z" />
<glyph unicode="&#xa3;" glyph-name="sterling" horiz-adv-x="520" d="M139 -9Q90 -9 65 15T40 73Q40 114 72 144T158 175Q190 175 215 163T263 134Q274 166 274 198Q274 233 261 265T230 330H81Q71 330 73 340L76 354Q78 364 89 364H210Q183 409 160 456T137
559Q137 609 161 647T228 708T325 730Q401 730 439 703Q445 699 448 694T452 681L455 530Q455 513 442 513Q433 513 429 527L422 552Q400 629 375 664T299 700Q254 700 227 669T200 593Q200 549 216 511T254 437T294 364H425Q434 364 432 354L429 340Q427 330 417
330H309Q316 312 320 293T324 253Q324 218 315 182T289 111Q318 86 346 65T410 43Q439 43 454 56T469 91Q469 114 458 123T431 138T405 152T393 182Q393 199 405 209T433 219Q462 219 479 191T496 106Q496 51 463 21T387 -9Q343 -9 314 14T262 66Q237 33 206 12T139
-9ZM89 82Q89 53 106 37T152 21Q176 21 200 40T243 89Q224 113 204 130T155 148Q124 148 107 129T89 82Z" />
<glyph unicode="&#xa5;" glyph-name="yen" horiz-adv-x="513" d="M145 0Q130 0 130 11Q130 22 143 23L188 30Q208 33 215 40T222 69V284H62Q52 284 52 294V308Q52 318 62 318H221Q219 332 212 348L185 404H62Q52 404 52 414V428Q52 438 62 438H169L65 656Q58 673
49 682T23 695L14 697Q0 700 0 710Q0 720 15 720H186Q200 720 200 709Q200 698 183 697L164 695Q147 694 140 684T143 653L266 391Q270 384 276 384T286 391L404 632Q417 658 411 674T381 694L359 697Q342 700 342 709Q342 720 356 720H498Q513 720 513 710Q513
700 499 697L489 695Q475 692 465 678T437 631L341 438H453Q463 438 463 428V414Q463 404 453 404H324L306 368Q293 340 293 318H453Q463 318 463 308V294Q463 284 453 284H293V69Q293 48 300 41T327 30L372 23Q385 22 385 11Q385 0 370 0H145Z" />
<glyph unicode="&#xa7;" glyph-name="section" horiz-adv-x="376" d="M154 -129Q132 -129 112 -125T76 -110Q66 -103 66 -94L64 16Q64 31 77 31Q85 31 88 27T93 15Q115 -50 136 -75T188 -101Q217 -101 236 -83T255 -38Q255 -14 246 8T216 58T154 122Q98 175 70
220T41 315Q41 368 70 404T146 451Q161 454 151 466Q115 504 96 538T77 609Q77 664 118 697T233 730Q255 730 275 726T311 711Q321 704 321 695L323 585Q323 570 310 570Q303 570 300 574T294 586Q272 651 251 676T199 702Q171 702 152 684T132 639Q132 616 141
593T172 543T233 479Q289 426 317 381T346 286Q346 233 317 197T241 150Q226 147 236 135Q272 97 291 63T310 -8Q310 -63 269 -96T154 -129ZM219 172Q252 177 271 199T291 256Q291 294 270 330T199 417Q186 432 168 429Q134 424 115 402T96 345Q96 308 117 271T188
184Q201 169 219 172Z" />
<glyph unicode="&#xa8;" glyph-name="dieresis" horiz-adv-x="409" d="M110 605Q89 605 75 619T60 656Q60 678 74 692T110 706Q131 706 145 692T159 656Q159 634 145 620T110 605ZM300 605Q279 605 265 619T250 656Q250 678 264 692T300 706Q321 706 335 692T349
656Q349 634 335 620T300 605Z" />
<glyph unicode="&#xa9;" glyph-name="copyright" horiz-adv-x="830" d="M415 -15Q337 -15 269 14T150 94T69 214T40 360Q40 438 69 506T149 625T269 706T415 735Q493 735 561 706T680 626T761 506T790 360Q790 282 761 214T681 95T561 14T415 -15ZM415 23Q484
23 545 49T652 122T724 230T750 360Q750 429 724 490T652 597T545 670T415 697Q346 697 285 671T178 598T106 490T80 360Q80 291 106 230T178 123T285 50T415 23ZM421 142Q362 142 317 171T248 251T223 363Q223 422 250 471T322 549T424 579Q456 579 481 574T527
560Q537 556 537 547L540 443Q540 424 527 424Q516 424 511 444L504 468Q488 522 468 541T418 560Q383 560 354 535T307 466T290 363Q290 303 309 258T357 187T419 162Q451 162 472 180T510 253L517 277Q522 297 533 297Q546 297 546 278L543 174Q543 166 533 160Q513
152 487 147T421 142Z" />
<glyph unicode="&#xaa;" glyph-name="ordfeminine" horiz-adv-x="364" d="M111 363Q77 363 56 381T34 431Q34 479 81 517T201 576Q211 579 211 588V642Q211 676 199 690T166 704Q146 704 130 689T106 641Q96 596 64 596Q54 596 47 602T40 618Q40 645 62 671T118
713T186 730Q265 730 265 650V436Q265 406 282 406Q293 406 299 418T306 460Q306 475 318 475Q330 475 330 459Q330 408 310 386T264 363Q245 363 234 376T218 409Q217 416 211 416T200 410Q181 387 161 375T111 363ZM133 401Q163 401 187 429T211 498V543Q211
556 194 550Q145 534 119 508T92 446Q92 401 133 401Z" />
<glyph unicode="&#xab;" glyph-name="guillemotleft" horiz-adv-x="412" d="M161 93L60 234Q49 251 60 268L161 409Q167 418 171 421T180 424Q188 424 189 419T189 409L120 260Q116 251 120 242L189 93Q191 89 190 84T180 78Q176 78 172 81T161 93ZM311 93L210
234Q199 251 210 268L311 409Q317 418 321 421T330 424Q338 424 339 419T339 409L270 260Q266 251 270 242L339 93Q341 89 340 84T330 78Q326 78 322 81T311 93Z" />
<glyph unicode="&#xae;" glyph-name="registered" horiz-adv-x="830" d="M415 -15Q337 -15 269 14T150 94T69 214T40 360Q40 438 69 506T149 625T269 706T415 735Q493 735 561 706T680 626T761 506T790 360Q790 282 761 214T681 95T561 14T415 -15ZM415 23Q484
23 545 49T652 122T724 230T750 360Q750 429 724 490T652 597T545 670T415 697Q346 697 285 671T178 598T106 490T80 360Q80 291 106 230T178 123T285 50T415 23ZM554 144Q517 144 497 161T468 212L451 278Q439 325 426 340T385 355Q364 355 364 340V197Q364 184
368 180T384 173L405 170Q413 169 415 166T418 159Q418 149 407 149H266Q256 149 256 159Q256 168 265 169L280 171Q295 173 300 177T305 194V532Q305 545 300 549T280 556L268 558Q256 559 256 568Q256 578 269 578H414Q476 578 515 548T554 471Q554 433 527 403T455
360Q444 357 455 352Q477 344 489 328T508 284L524 224Q532 193 542 182T568 171Q577 171 590 179Q596 183 600 181T605 172Q605 159 590 152T554 144ZM410 374Q442 374 467 398T493 463Q493 507 468 531T408 556Q364 556 364 533V407Q364 374 410 374Z" />
<glyph unicode="&#xaf;" glyph-name="overscore" horiz-adv-x="411" d="M72 636Q60 636 60 648V663Q60 675 72 675H339Q351 675 351 663V648Q351 636 339 636H72Z" />
<glyph unicode="&#xb0;" glyph-name="degree" horiz-adv-x="426" d="M214 449Q174 449 141 468T89 521T70 593Q70 632 89 664T141 716T214 735Q255 735 287 716T337 665T356 593Q356 554 338 521T287 469T214 449ZM214 480Q261 480 292 513T324 593Q324 639 293
671T214 704Q166 704 134 672T102 593Q102 546 134 513T214 480Z" />
<glyph unicode="&#xb4;" glyph-name="acute" horiz-adv-x="354" d="M85 586Q68 579 62 590Q55 601 71 612L215 724Q225 732 234 736T256 740Q274 740 284 730T294 707Q294 694 288 685T263 667L85 586Z" />
<glyph unicode="&#xb6;" glyph-name="paragraph" horiz-adv-x="516" d="M260 -130Q246 -130 246 -116V312Q246 326 232 326H220Q163 326 119 350T49 419T24 520Q24 579 49 624T119 694T223 720H482Q497 720 497 709Q497 700 484 697L461 693Q440 689 434 682T427
654V-116Q427 -130 413 -130H386Q372 -130 372 -116V666Q372 690 348 690H325Q301 690 301 666V-116Q301 -130 287 -130H260Z" />
<glyph unicode="&#xb7;" glyph-name="middot" horiz-adv-x="105" d="M53 316Q31 316 16 330T0 369Q0 392 15 406T53 421Q73 421 89 407T105 369Q105 345 89 331T53 316Z" />
<glyph unicode="&#xb8;" glyph-name="cedilla" horiz-adv-x="301" d="M170 12L160 -43Q159 -49 164 -49Q204 -56 222 -80T241 -133Q241 -172 213 -193T147 -215Q108 -215 84 -197T60 -156Q60 -145 66 -138T83 -131Q98 -131 103 -140T111 -163T122 -185T149 -195Q173
-195 184 -179T195 -138Q195 -116 181 -102T140 -84Q131 -82 132 -71L147 12H170Z" />
<glyph unicode="&#xba;" glyph-name="ordmasculine" horiz-adv-x="368" d="M184 363Q144 363 111 387T59 453T40 547Q40 599 59 640T111 705T184 730Q225 730 257 706T309 640T328 547Q328 495 309 454T258 388T184 363ZM184 387Q268 387 268 547Q268 706 184
706Q101 706 101 547Q101 387 184 387Z" />
<glyph unicode="&#xbb;" glyph-name="guillemotright" horiz-adv-x="412" d="M251 93Q245 84 241 81T232 78Q225 78 223 83T223 93L292 242Q297 251 292 260L223 409Q221 414 223 419T232 424Q237 424 241 421T251 409L352 268Q363 251 352 234L251 93ZM101 93Q95
84 91 81T82 78Q75 78 73 83T73 93L142 242Q147 251 142 260L73 409Q71 414 73 419T82 424Q87 424 91 421T101 409L202 268Q213 251 202 234L101 93Z" />
<glyph unicode="&#xbf;" glyph-name="questiondown" horiz-adv-x="317" d="M194 520Q217 520 232 506T247 467Q247 445 232 430T194 415Q174 415 158 430T142 467Q142 491 158 505T194 520ZM179 -215Q110 -215 71 -179T32 -76Q32 -19 53 20T118 99L157 135Q168
146 171 157T176 194L180 316Q180 332 193 332Q205 332 205 316L209 163Q210 129 204 108T179 68L155 44Q124 13 107 -16T89 -95Q89 -144 107 -164T150 -185Q193 -185 218 -150T265 -42Q269 -28 278 -28Q289 -28 289 -45L286 -166Q286 -174 283 -178T275 -188Q259
-201 231 -208T179 -215Z" />
<glyph unicode="&#xc0;" glyph-name="Agrave" horiz-adv-x="457" d="M-3 0Q-18 0 -18 10Q-18 20 -4 23L11 26Q31 30 41 45T58 89L213 714Q215 724 219 727T228 730Q233 730 237 727T244 714L402 80Q409 52 418 41T446 26L461 23Q475 20 475 10Q475 0 460 0H289Q275
0 275 11Q275 22 292 23L311 25Q328 27 332 36T332 67L294 222Q288 248 261 248H156Q130 248 123 222L89 88Q74 31 119 25L134 23Q151 20 151 11Q151 0 137 0H-3ZM153 278H263Q279 278 276 295L212 563H207L140 295Q137 278 153 278ZM320 796L142 877Q124 885 118
894T111 917Q111 929 121 939T149 950Q162 950 171 946T190 934L334 822Q350 811 343 800Q337 789 320 796Z" />
<glyph unicode="&#xc1;" glyph-name="Aacute" horiz-adv-x="457" d="M-3 0Q-18 0 -18 10Q-18 20 -4 23L11 26Q31 30 41 45T58 89L213 714Q215 724 219 727T228 730Q233 730 237 727T244 714L402 80Q409 52 418 41T446 26L461 23Q475 20 475 10Q475 0 460 0H289Q275
0 275 11Q275 22 292 23L311 25Q328 27 332 36T332 67L294 222Q288 248 261 248H156Q130 248 123 222L89 88Q74 31 119 25L134 23Q151 20 151 11Q151 0 137 0H-3ZM153 278H263Q279 278 276 295L212 563H207L140 295Q137 278 153 278ZM137 796Q120 789 114 800Q107
811 123 822L267 934Q277 942 286 946T308 950Q326 950 336 940T346 917Q346 904 340 895T315 877L137 796Z" />
<glyph unicode="&#xc2;" glyph-name="Acircumflex" horiz-adv-x="457" d="M-3 0Q-18 0 -18 10Q-18 20 -4 23L11 26Q31 30 41 45T58 89L213 714Q215 724 219 727T228 730Q233 730 237 727T244 714L402 80Q409 52 418 41T446 26L461 23Q475 20 475 10Q475 0 460
0H289Q275 0 275 11Q275 22 292 23L311 25Q328 27 332 36T332 67L294 222Q288 248 261 248H156Q130 248 123 222L89 88Q74 31 119 25L134 23Q151 20 151 11Q151 0 137 0H-3ZM153 278H263Q279 278 276 295L212 563H207L140 295Q137 278 153 278ZM95 796Q83 788 75
798Q68 806 78 817L194 939Q205 950 219 950H238Q252 950 263 939L379 817Q389 806 382 798Q376 788 362 797L228 887L95 796Z" />
<glyph unicode="&#xc3;" glyph-name="Atilde" horiz-adv-x="457" d="M-3 0Q-18 0 -18 10Q-18 20 -4 23L11 26Q31 30 41 45T58 89L213 714Q215 724 219 727T228 730Q233 730 237 727T244 714L402 80Q409 52 418 41T446 26L461 23Q475 20 475 10Q475 0 460 0H289Q275
0 275 11Q275 22 292 23L311 25Q328 27 332 36T332 67L294 222Q288 248 261 248H156Q130 248 123 222L89 88Q74 31 119 25L134 23Q151 20 151 11Q151 0 137 0H-3ZM153 278H263Q279 278 276 295L212 563H207L140 295Q137 278 153 278ZM292 807Q266 807 249 817T217
839T188 862T152 872Q127 872 113 860T90 821Q86 809 76 809Q63 809 66 824Q76 875 102 901T166 928Q191 928 208 918T241 896T271 873T306 863Q331 863 345 875T368 914Q373 926 382 926Q395 926 392 911Q382 860 356 834T292 807Z" />
<glyph unicode="&#xc4;" glyph-name="Adieresis" horiz-adv-x="457" d="M-3 0Q-18 0 -18 10Q-18 20 -4 23L11 26Q31 30 41 45T58 89L213 714Q215 724 219 727T228 730Q233 730 237 727T244 714L402 80Q409 52 418 41T446 26L461 23Q475 20 475 10Q475 0 460 0H289Q275
0 275 11Q275 22 292 23L311 25Q328 27 332 36T332 67L294 222Q288 248 261 248H156Q130 248 123 222L89 88Q74 31 119 25L134 23Q151 20 151 11Q151 0 137 0H-3ZM153 278H263Q279 278 276 295L212 563H207L140 295Q137 278 153 278ZM134 815Q113 815 99 829T84
866Q84 888 98 902T134 916Q155 916 169 902T183 866Q183 844 169 830T134 815ZM324 815Q303 815 289 829T274 866Q274 888 288 902T324 916Q345 916 359 902T373 866Q373 844 359 830T324 815Z" />
<glyph unicode="&#xc5;" glyph-name="Aring" horiz-adv-x="457" d="M-3 0Q-18 0 -18 10Q-18 20 -4 23L11 26Q31 30 41 45T58 89L213 714Q215 724 219 727T228 730Q233 730 237 727T244 714L402 80Q409 52 418 41T446 26L461 23Q475 20 475 10Q475 0 460 0H289Q275
0 275 11Q275 22 292 23L311 25Q328 27 332 36T332 67L294 222Q288 248 261 248H156Q130 248 123 222L89 88Q74 31 119 25L134 23Q151 20 151 11Q151 0 137 0H-3ZM153 278H263Q279 278 276 295L212 563H207L140 295Q137 278 153 278ZM229 771Q183 771 152 802T121
879Q121 923 152 954T229 986Q275 986 305 955T336 879Q336 834 306 803T229 771ZM229 798Q263 798 284 821T306 879Q306 912 285 935T229 959Q195 959 173 936T151 879Q151 845 173 822T229 798Z" />
<glyph unicode="&#xc6;" glyph-name="AE" horiz-adv-x="778" d="M-3 0Q-18 0 -18 11Q-18 20 -4 23L11 26Q51 34 78 89L360 654Q371 675 364 681T336 692L313 697Q300 700 300 709Q300 720 315 720H695Q718 720 720 697L728 531Q730 514 715 514Q703 514 701 527L695
564Q684 632 650 663T556 695Q516 695 501 684T485 643V402Q485 388 499 388H549Q593 388 603 435L613 485Q617 500 630 498Q641 496 641 481V256Q641 241 630 239Q617 237 613 252L603 301Q596 336 584 347T548 358H499Q485 358 485 344V93Q485 57 503 41T571
25Q621 25 656 50T706 146L718 205Q721 218 733 218Q747 218 745 201L735 23Q733 0 710 0H359Q344 0 344 11Q344 20 357 23L380 27Q401 31 407 38T414 66V344Q414 358 400 358H257Q245 358 241 348L111 88Q98 62 102 45T130 25L146 23Q163 20 163 11Q163 0 147
0H-3ZM269 405Q266 398 269 393T279 388H400Q414 388 414 402V664Q414 673 409 674T400 667L269 405Z" />
<glyph unicode="&#xc7;" glyph-name="Ccedilla" horiz-adv-x="480" d="M286 -9Q212 -9 157 37T71 166T40 364Q40 474 73 556T163 684T289 730Q330 730 361 723T416 703Q428 696 428 682L431 530Q431 513 419 513Q408 513 405 526L395 563Q374 641 347 671T281
701Q211 701 165 615T118 364Q118 252 141 175T202 59T282 20Q327 20 354 48T401 156L413 205Q416 220 429 218Q440 216 440 201L436 39Q436 25 423 18Q399 6 367 -1T286 -9ZM292 12L282 -43Q281 -49 286 -49Q326 -56 344 -80T363 -133Q363 -172 335 -193T269 -215Q230
-215 206 -197T182 -156Q182 -145 188 -138T205 -131Q220 -131 225 -140T233 -163T244 -185T271 -195Q295 -195 306 -179T317 -138Q317 -116 303 -102T262 -84Q253 -82 254 -71L269 12H292Z" />
<glyph unicode="&#xc8;" glyph-name="Egrave" horiz-adv-x="453" d="M34 0Q19 0 19 11Q19 20 32 23L55 27Q76 31 82 38T89 66V654Q89 675 83 682T55 693L32 697Q19 700 19 709Q19 720 34 720H370Q393 720 395 697L403 531Q405 514 390 514Q378 514 376 527L370
564Q359 632 325 663T231 695Q191 695 176 684T160 643V402Q160 388 174 388H224Q268 388 278 435L288 485Q292 500 305 498Q316 496 316 481V256Q316 241 305 239Q292 237 288 252L278 301Q271 336 259 347T223 358H174Q160 358 160 344V93Q160 57 178 41T246
25Q296 25 331 50T381 146L393 205Q396 218 408 218Q422 218 420 201L410 23Q408 0 385 0H34ZM318 796L140 877Q122 885 116 894T109 917Q109 929 119 939T147 950Q160 950 169 946T188 934L332 822Q348 811 341 800Q335 789 318 796Z" />
<glyph unicode="&#xc9;" glyph-name="Eacute" horiz-adv-x="453" d="M34 0Q19 0 19 11Q19 20 32 23L55 27Q76 31 82 38T89 66V654Q89 675 83 682T55 693L32 697Q19 700 19 709Q19 720 34 720H370Q393 720 395 697L403 531Q405 514 390 514Q378 514 376 527L370
564Q359 632 325 663T231 695Q191 695 176 684T160 643V402Q160 388 174 388H224Q268 388 278 435L288 485Q292 500 305 498Q316 496 316 481V256Q316 241 305 239Q292 237 288 252L278 301Q271 336 259 347T223 358H174Q160 358 160 344V93Q160 57 178 41T246
25Q296 25 331 50T381 146L393 205Q396 218 408 218Q422 218 420 201L410 23Q408 0 385 0H34ZM135 796Q118 789 112 800Q105 811 121 822L265 934Q275 942 284 946T306 950Q324 950 334 940T344 917Q344 904 338 895T313 877L135 796Z" />
<glyph unicode="&#xca;" glyph-name="Ecircumflex" horiz-adv-x="453" d="M34 0Q19 0 19 11Q19 20 32 23L55 27Q76 31 82 38T89 66V654Q89 675 83 682T55 693L32 697Q19 700 19 709Q19 720 34 720H370Q393 720 395 697L403 531Q405 514 390 514Q378 514 376 527L370
564Q359 632 325 663T231 695Q191 695 176 684T160 643V402Q160 388 174 388H224Q268 388 278 435L288 485Q292 500 305 498Q316 496 316 481V256Q316 241 305 239Q292 237 288 252L278 301Q271 336 259 347T223 358H174Q160 358 160 344V93Q160 57 178 41T246
25Q296 25 331 50T381 146L393 205Q396 218 408 218Q422 218 420 201L410 23Q408 0 385 0H34ZM93 796Q81 788 73 798Q66 806 76 817L192 939Q203 950 217 950H236Q250 950 261 939L377 817Q387 806 380 798Q374 788 360 797L226 887L93 796Z" />
<glyph unicode="&#xcb;" glyph-name="Edieresis" horiz-adv-x="453" d="M34 0Q19 0 19 11Q19 20 32 23L55 27Q76 31 82 38T89 66V654Q89 675 83 682T55 693L32 697Q19 700 19 709Q19 720 34 720H370Q393 720 395 697L403 531Q405 514 390 514Q378 514 376 527L370
564Q359 632 325 663T231 695Q191 695 176 684T160 643V402Q160 388 174 388H224Q268 388 278 435L288 485Q292 500 305 498Q316 496 316 481V256Q316 241 305 239Q292 237 288 252L278 301Q271 336 259 347T223 358H174Q160 358 160 344V93Q160 57 178 41T246
25Q296 25 331 50T381 146L393 205Q396 218 408 218Q422 218 420 201L410 23Q408 0 385 0H34ZM132 815Q111 815 97 829T82 866Q82 888 96 902T132 916Q153 916 167 902T181 866Q181 844 167 830T132 815ZM322 815Q301 815 287 829T272 866Q272 888 286 902T322
916Q343 916 357 902T371 866Q371 844 357 830T322 815Z" />
<glyph unicode="&#xcc;" glyph-name="Igrave" horiz-adv-x="249" d="M34 0Q19 0 19 11Q19 20 32 23L55 27Q76 31 82 38T89 66V654Q89 675 83 682T55 693L32 697Q19 700 19 709Q19 720 34 720H215Q230 720 230 709Q230 700 217 697L194 693Q173 689 167 682T160
654V66Q160 45 166 38T194 27L217 23Q230 20 230 11Q230 0 215 0H34ZM216 796L38 877Q20 885 14 894T7 917Q7 929 17 939T45 950Q58 950 67 946T86 934L230 822Q246 811 239 800Q233 789 216 796Z" />
<glyph unicode="&#xcd;" glyph-name="Iacute" horiz-adv-x="249" d="M34 0Q19 0 19 11Q19 20 32 23L55 27Q76 31 82 38T89 66V654Q89 675 83 682T55 693L32 697Q19 700 19 709Q19 720 34 720H215Q230 720 230 709Q230 700 217 697L194 693Q173 689 167 682T160
654V66Q160 45 166 38T194 27L217 23Q230 20 230 11Q230 0 215 0H34ZM33 796Q16 789 10 800Q3 811 19 822L163 934Q173 942 182 946T204 950Q222 950 232 940T242 917Q242 904 236 895T211 877L33 796Z" />
<glyph unicode="&#xce;" glyph-name="Icircumflex" horiz-adv-x="249" d="M34 0Q19 0 19 11Q19 20 32 23L55 27Q76 31 82 38T89 66V654Q89 675 83 682T55 693L32 697Q19 700 19 709Q19 720 34 720H215Q230 720 230 709Q230 700 217 697L194 693Q173 689 167 682T160
654V66Q160 45 166 38T194 27L217 23Q230 20 230 11Q230 0 215 0H34ZM-9 796Q-21 788 -29 798Q-36 806 -26 817L90 939Q101 950 115 950H134Q148 950 159 939L275 817Q285 806 278 798Q272 788 258 797L124 887L-9 796Z" />
<glyph unicode="&#xcf;" glyph-name="Idieresis" horiz-adv-x="249" d="M34 0Q19 0 19 11Q19 20 32 23L55 27Q76 31 82 38T89 66V654Q89 675 83 682T55 693L32 697Q19 700 19 709Q19 720 34 720H215Q230 720 230 709Q230 700 217 697L194 693Q173 689 167 682T160
654V66Q160 45 166 38T194 27L217 23Q230 20 230 11Q230 0 215 0H34ZM30 815Q9 815 -5 829T-20 866Q-20 888 -6 902T30 916Q51 916 65 902T79 866Q79 844 65 830T30 815ZM220 815Q199 815 185 829T170 866Q170 888 184 902T220 916Q241 916 255 902T269 866Q269
844 255 830T220 815Z" />
<glyph unicode="&#xd0;" glyph-name="Eth" horiz-adv-x="530" d="M34 0Q19 0 19 11Q19 20 32 23L55 27Q89 33 89 66V358H29Q19 358 19 368V376Q19 386 29 386H89V654Q89 675 83 682T55 693L32 697Q19 700 19 709Q19 720 34 720H236Q314 720 371 675T459 547T490
357Q490 248 458 168T366 44T226 0H34ZM230 26Q319 26 365 111T412 357Q412 517 368 605T236 694Q160 694 160 621V386H284Q294 386 294 376V368Q294 358 284 358H160V99Q160 59 176 43T230 26Z" />
<glyph unicode="&#xd1;" glyph-name="Ntilde" horiz-adv-x="540" d="M429 -9Q413 -9 402 15L131 603Q128 610 124 609T119 600V86Q119 58 128 44T163 25L176 23Q189 22 189 11Q189 0 174 0H31Q16 0 16 11Q16 22 29 23L42 25Q68 29 78 43T88 86V654Q88 675 82 682T52
693L29 697Q16 700 16 709Q16 720 31 720H138Q163 720 173 698L409 179Q412 173 416 174T421 181V634Q421 666 410 678T382 694L364 697Q351 700 351 709Q351 720 366 720H509Q524 720 524 709Q524 698 511 697L498 695Q472 691 462 679T452 634V23Q452 5 446 -2T429
-9ZM333 807Q307 807 290 817T258 839T229 862T193 872Q168 872 154 860T131 821Q127 809 117 809Q104 809 107 824Q117 875 143 901T207 928Q232 928 249 918T282 896T312 873T347 863Q372 863 386 875T409 914Q414 926 423 926Q436 926 433 911Q423 860 397 834T333
807Z" />
<glyph unicode="&#xd2;" glyph-name="Ograve" horiz-adv-x="540" d="M270 -9Q222 -9 180 19T107 98T58 215T40 361Q40 439 57 506T106 623T180 702T270 730Q318 730 359 702T433 624T482 506T500 361Q500 283 483 216T433 98T360 20T270 -9ZM270 18Q341 18 381
103T421 361Q421 534 381 618T270 703Q200 703 160 619T119 361Q119 188 159 103T270 18ZM361 796L183 877Q165 885 159 894T152 917Q152 929 162 939T190 950Q203 950 212 946T231 934L375 822Q391 811 384 800Q378 789 361 796Z" />
<glyph unicode="&#xd3;" glyph-name="Oacute" horiz-adv-x="540" d="M270 -9Q222 -9 180 19T107 98T58 215T40 361Q40 439 57 506T106 623T180 702T270 730Q318 730 359 702T433 624T482 506T500 361Q500 283 483 216T433 98T360 20T270 -9ZM270 18Q341 18 381
103T421 361Q421 534 381 618T270 703Q200 703 160 619T119 361Q119 188 159 103T270 18ZM178 796Q161 789 155 800Q148 811 164 822L308 934Q318 942 327 946T349 950Q367 950 377 940T387 917Q387 904 381 895T356 877L178 796Z" />
<glyph unicode="&#xd4;" glyph-name="Ocircumflex" horiz-adv-x="540" d="M270 -9Q222 -9 180 19T107 98T58 215T40 361Q40 439 57 506T106 623T180 702T270 730Q318 730 359 702T433 624T482 506T500 361Q500 283 483 216T433 98T360 20T270 -9ZM270 18Q341 18
381 103T421 361Q421 534 381 618T270 703Q200 703 160 619T119 361Q119 188 159 103T270 18ZM136 796Q124 788 116 798Q109 806 119 817L235 939Q246 950 260 950H279Q293 950 304 939L420 817Q430 806 423 798Q417 788 403 797L269 887L136 796Z" />
<glyph unicode="&#xd5;" glyph-name="Otilde" horiz-adv-x="540" d="M270 -9Q222 -9 180 19T107 98T58 215T40 361Q40 439 57 506T106 623T180 702T270 730Q318 730 359 702T433 624T482 506T500 361Q500 283 483 216T433 98T360 20T270 -9ZM270 18Q341 18 381
103T421 361Q421 534 381 618T270 703Q200 703 160 619T119 361Q119 188 159 103T270 18ZM333 807Q307 807 290 817T258 839T229 862T193 872Q168 872 154 860T131 821Q127 809 117 809Q104 809 107 824Q117 875 143 901T207 928Q232 928 249 918T282 896T312 873T347
863Q372 863 386 875T409 914Q414 926 423 926Q436 926 433 911Q423 860 397 834T333 807Z" />
<glyph unicode="&#xd6;" glyph-name="Odieresis" horiz-adv-x="540" d="M270 -9Q222 -9 180 19T107 98T58 215T40 361Q40 439 57 506T106 623T180 702T270 730Q318 730 359 702T433 624T482 506T500 361Q500 283 483 216T433 98T360 20T270 -9ZM270 18Q341 18
381 103T421 361Q421 534 381 618T270 703Q200 703 160 619T119 361Q119 188 159 103T270 18ZM175 815Q154 815 140 829T125 866Q125 888 139 902T175 916Q196 916 210 902T224 866Q224 844 210 830T175 815ZM365 815Q344 815 330 829T315 866Q315 888 329 902T365
916Q386 916 400 902T414 866Q414 844 400 830T365 815Z" />
<glyph unicode="&#xd7;" glyph-name="multiply" horiz-adv-x="531" d="M99 194L89 204Q80 211 89 218L242 371L88 524Q81 531 88 538L98 548Q105 557 112 548L266 395L419 548Q426 557 433 548L443 538Q450 531 443 524L290 371L442 218Q451 211 442 204L432 194Q425
187 418 194L266 347L113 194Q106 187 99 194Z" />
<glyph unicode="&#xd8;" glyph-name="Oslash" horiz-adv-x="540" d="M86 -60Q73 -60 78 -48L128 68Q87 118 64 194T40 361Q40 439 57 506T106 623T180 702T270 730Q303 730 333 717T389 678L433 782Q436 790 444 790H455Q468 790 463 778L410 655Q451 605 475
529T500 361Q500 283 483 216T433 98T360 20T270 -9Q237 -9 206 5T149 44L108 -52Q105 -60 97 -60H86ZM119 361Q119 284 127 225T151 123L371 637Q333 703 270 703Q200 703 160 619T119 361ZM270 18Q341 18 381 103T421 361Q421 439 413 499T388 602L167 87Q205
18 270 18Z" />
<glyph unicode="&#xd9;" glyph-name="Ugrave" horiz-adv-x="536" d="M275 -9Q221 -9 180 16T115 87T92 192V654Q92 675 86 682T58 693L35 697Q22 700 22 709Q22 720 37 720H220Q235 720 235 708Q235 699 224 697L197 693Q177 690 170 682T163 653V191Q163 115
197 73T292 31Q354 31 388 73T422 191V633Q422 687 388 693L361 697Q350 699 350 708Q350 720 365 720H509Q524 720 524 709Q524 700 511 697L488 693Q454 687 454 634V192Q454 101 405 46T275 -9ZM379 796L201 877Q183 885 177 894T170 917Q170 929 180 939T208
950Q221 950 230 946T249 934L393 822Q409 811 402 800Q396 789 379 796Z" />
<glyph unicode="&#xda;" glyph-name="Uacute" horiz-adv-x="536" d="M275 -9Q221 -9 180 16T115 87T92 192V654Q92 675 86 682T58 693L35 697Q22 700 22 709Q22 720 37 720H220Q235 720 235 708Q235 699 224 697L197 693Q177 690 170 682T163 653V191Q163 115
197 73T292 31Q354 31 388 73T422 191V633Q422 687 388 693L361 697Q350 699 350 708Q350 720 365 720H509Q524 720 524 709Q524 700 511 697L488 693Q454 687 454 634V192Q454 101 405 46T275 -9ZM196 796Q179 789 173 800Q166 811 182 822L326 934Q336 942 345
946T367 950Q385 950 395 940T405 917Q405 904 399 895T374 877L196 796Z" />
<glyph unicode="&#xdb;" glyph-name="Ucircumflex" horiz-adv-x="536" d="M275 -9Q221 -9 180 16T115 87T92 192V654Q92 675 86 682T58 693L35 697Q22 700 22 709Q22 720 37 720H220Q235 720 235 708Q235 699 224 697L197 693Q177 690 170 682T163 653V191Q163
115 197 73T292 31Q354 31 388 73T422 191V633Q422 687 388 693L361 697Q350 699 350 708Q350 720 365 720H509Q524 720 524 709Q524 700 511 697L488 693Q454 687 454 634V192Q454 101 405 46T275 -9ZM154 796Q142 788 134 798Q127 806 137 817L253 939Q264 950
278 950H297Q311 950 322 939L438 817Q448 806 441 798Q435 788 421 797L287 887L154 796Z" />
<glyph unicode="&#xdc;" glyph-name="Udieresis" horiz-adv-x="536" d="M275 -9Q221 -9 180 16T115 87T92 192V654Q92 675 86 682T58 693L35 697Q22 700 22 709Q22 720 37 720H220Q235 720 235 708Q235 699 224 697L197 693Q177 690 170 682T163 653V191Q163 115
197 73T292 31Q354 31 388 73T422 191V633Q422 687 388 693L361 697Q350 699 350 708Q350 720 365 720H509Q524 720 524 709Q524 700 511 697L488 693Q454 687 454 634V192Q454 101 405 46T275 -9ZM193 815Q172 815 158 829T143 866Q143 888 157 902T193 916Q214
916 228 902T242 866Q242 844 228 830T193 815ZM383 815Q362 815 348 829T333 866Q333 888 347 902T383 916Q404 916 418 902T432 866Q432 844 418 830T383 815Z" />
<glyph unicode="&#xdd;" glyph-name="Yacute" horiz-adv-x="477" d="M127 0Q112 0 112 11Q112 22 125 23L170 30Q190 33 197 40T204 69V305Q204 327 194 348L47 656Q40 673 31 682T5 695L-4 697Q-18 700 -18 710Q-18 720 -3 720H168Q182 720 182 709Q182 698 165
697L146 695Q129 694 122 684T125 653L248 391Q252 384 258 384T268 391L386 632Q399 658 393 674T363 694L341 697Q324 700 324 709Q324 720 338 720H480Q495 720 495 710Q495 700 481 697L471 695Q457 692 447 678T419 631L288 368Q281 354 278 342T275 313V69Q275
48 282 41T309 30L354 23Q367 22 367 11Q367 0 352 0H127ZM167 796Q150 789 144 800Q137 811 153 822L297 934Q307 942 316 946T338 950Q356 950 366 940T376 917Q376 904 370 895T345 877L167 796Z" />
<glyph unicode="&#xde;" glyph-name="Thorn" horiz-adv-x="466" d="M34 0Q19 0 19 11Q19 20 32 23L55 27Q76 31 82 38T89 66V654Q89 675 83 682T55 693L32 697Q19 700 19 709Q19 720 34 720H237Q252 720 252 709Q252 700 239 697L194 689Q173 685 167 678T160
649V593Q160 579 174 579H243Q302 579 347 554T417 483T442 379Q442 322 417 279T348 210T246 185H174Q160 185 160 171V71Q160 50 166 43T194 31L239 23Q252 20 252 11Q252 0 237 0H34ZM227 210Q292 210 329 256T367 382Q367 464 329 509T221 554Q160 554 160
514V265Q160 210 227 210Z" />
<glyph unicode="&#xdf;" glyph-name="germandbls" horiz-adv-x="443" d="M297 -9Q269 -9 247 -4T209 10Q200 15 200 27L197 139Q197 156 210 156Q221 156 225 140Q242 69 260 43T311 17Q338 17 358 39T378 102Q378 142 358 174T294 235Q242 270 220 304T197 379Q197
412 210 436T243 482T282 525T315 575T329 643Q329 677 312 697T259 717Q216 717 185 682T153 570V20Q153 0 133 0H28Q13 0 13 11Q13 22 26 23L51 25Q72 27 78 36T85 67V458Q85 482 61 482H38Q26 482 26 492Q26 502 38 503Q85 508 85 544Q85 599 106 645T168 720T264
748Q308 748 336 731T379 688T393 638Q393 604 378 577T340 529T295 488T257 448T241 405Q241 387 249 371T277 338T335 294Q381 263 406 222T431 132Q431 68 395 30T297 -9Z" />
<glyph unicode="&#xe0;" glyph-name="agrave" horiz-adv-x="399" d="M120 -9Q78 -9 51 17T24 88Q24 131 51 169T125 239T232 289Q245 293 245 306V397Q245 445 230 465T189 486Q164 486 144 464T114 388Q109 356 93 342T59 327Q31 327 31 355Q31 384 47 412T91
464T150 502T214 516Q313 516 313 401V95Q313 53 334 53Q347 53 358 70T369 130Q369 146 382 146Q394 146 394 129Q394 56 369 24T311 -9Q287 -9 273 10T254 57Q253 67 246 67T231 58Q207 25 182 8T120 -9ZM147 37Q173 37 195 55T231 105T245 175V248Q245 267 224
259Q163 237 130 199T96 106Q96 37 147 37ZM291 586L113 667Q95 675 89 684T82 707Q82 719 92 729T120 740Q133 740 142 736T161 724L305 612Q321 601 314 590Q308 579 291 586Z" />
<glyph unicode="&#xe1;" glyph-name="aacute" horiz-adv-x="399" d="M120 -9Q78 -9 51 17T24 88Q24 131 51 169T125 239T232 289Q245 293 245 306V397Q245 445 230 465T189 486Q164 486 144 464T114 388Q109 356 93 342T59 327Q31 327 31 355Q31 384 47 412T91
464T150 502T214 516Q313 516 313 401V95Q313 53 334 53Q347 53 358 70T369 130Q369 146 382 146Q394 146 394 129Q394 56 369 24T311 -9Q287 -9 273 10T254 57Q253 67 246 67T231 58Q207 25 182 8T120 -9ZM147 37Q173 37 195 55T231 105T245 175V248Q245 267 224
259Q163 237 130 199T96 106Q96 37 147 37ZM108 586Q91 579 85 590Q78 601 94 612L238 724Q248 732 257 736T279 740Q297 740 307 730T317 707Q317 694 311 685T286 667L108 586Z" />
<glyph unicode="&#xe2;" glyph-name="acircumflex" horiz-adv-x="399" d="M120 -9Q78 -9 51 17T24 88Q24 131 51 169T125 239T232 289Q245 293 245 306V397Q245 445 230 465T189 486Q164 486 144 464T114 388Q109 356 93 342T59 327Q31 327 31 355Q31 384 47 412T91
464T150 502T214 516Q313 516 313 401V95Q313 53 334 53Q347 53 358 70T369 130Q369 146 382 146Q394 146 394 129Q394 56 369 24T311 -9Q287 -9 273 10T254 57Q253 67 246 67T231 58Q207 25 182 8T120 -9ZM147 37Q173 37 195 55T231 105T245 175V248Q245 267 224
259Q163 237 130 199T96 106Q96 37 147 37ZM322 586Q310 578 302 588Q295 596 305 607L421 729Q432 740 446 740H465Q479 740 490 729L606 607Q616 596 609 588Q603 578 589 587L455 677L322 586Z" />
<glyph unicode="&#xe3;" glyph-name="atilde" horiz-adv-x="399" d="M120 -9Q78 -9 51 17T24 88Q24 131 51 169T125 239T232 289Q245 293 245 306V397Q245 445 230 465T189 486Q164 486 144 464T114 388Q109 356 93 342T59 327Q31 327 31 355Q31 384 47 412T91
464T150 502T214 516Q313 516 313 401V95Q313 53 334 53Q347 53 358 70T369 130Q369 146 382 146Q394 146 394 129Q394 56 369 24T311 -9Q287 -9 273 10T254 57Q253 67 246 67T231 58Q207 25 182 8T120 -9ZM147 37Q173 37 195 55T231 105T245 175V248Q245 267 224
259Q163 237 130 199T96 106Q96 37 147 37ZM519 597Q493 597 476 607T444 629T415 652T379 662Q354 662 340 650T317 611Q313 599 303 599Q290 599 293 614Q303 665 329 691T393 718Q418 718 435 708T468 686T498 663T533 653Q558 653 572 665T595 704Q600 716
609 716Q622 716 619 701Q609 650 583 624T519 597Z" />
<glyph unicode="&#xe4;" glyph-name="adieresis" horiz-adv-x="399" d="M120 -9Q78 -9 51 17T24 88Q24 131 51 169T125 239T232 289Q245 293 245 306V397Q245 445 230 465T189 486Q164 486 144 464T114 388Q109 356 93 342T59 327Q31 327 31 355Q31 384 47 412T91
464T150 502T214 516Q313 516 313 401V95Q313 53 334 53Q347 53 358 70T369 130Q369 146 382 146Q394 146 394 129Q394 56 369 24T311 -9Q287 -9 273 10T254 57Q253 67 246 67T231 58Q207 25 182 8T120 -9ZM147 37Q173 37 195 55T231 105T245 175V248Q245 267 224
259Q163 237 130 199T96 106Q96 37 147 37ZM361 605Q340 605 326 619T311 656Q311 678 325 692T361 706Q382 706 396 692T410 656Q410 634 396 620T361 605ZM551 605Q530 605 516 619T501 656Q501 678 515 692T551 706Q572 706 586 692T600 656Q600 634 586 620T551
605Z" />
<glyph unicode="&#xe5;" glyph-name="aring" horiz-adv-x="399" d="M120 -9Q78 -9 51 17T24 88Q24 131 51 169T125 239T232 289Q245 293 245 306V397Q245 445 230 465T189 486Q164 486 144 464T114 388Q109 356 93 342T59 327Q31 327 31 355Q31 384 47 412T91
464T150 502T214 516Q313 516 313 401V95Q313 53 334 53Q347 53 358 70T369 130Q369 146 382 146Q394 146 394 129Q394 56 369 24T311 -9Q287 -9 273 10T254 57Q253 67 246 67T231 58Q207 25 182 8T120 -9ZM147 37Q173 37 195 55T231 105T245 175V248Q245 267 224
259Q163 237 130 199T96 106Q96 37 147 37ZM200 561Q154 561 123 592T92 669Q92 713 123 744T200 776Q246 776 276 745T307 669Q307 624 277 593T200 561ZM200 588Q234 588 255 611T277 669Q277 702 256 725T200 749Q166 749 144 726T122 669Q122 635 144 612T200
588Z" />
<glyph unicode="&#xe6;" glyph-name="ae" horiz-adv-x="573" d="M119 -9Q78 -9 51 17T24 88Q24 131 51 169T125 239T232 289Q245 293 245 306V397Q245 445 230 465T189 486Q164 486 144 464T114 388Q109 356 93 342T59 327Q31 327 31 355Q31 384 47 412T91 464T150
502T214 516Q286 516 306 455Q327 484 355 500T416 516Q475 516 511 468T548 310Q548 277 523 277H333Q313 277 313 254Q313 148 344 95T423 42Q461 42 485 69T524 160Q527 171 537 171Q549 171 546 151Q530 62 495 27T410 -9Q362 -9 326 23T271 113L231 55Q210
25 183 8T119 -9ZM330 302H431Q479 302 479 352Q479 417 463 454T415 491Q376 491 350 446T315 318Q313 302 330 302ZM147 37Q173 37 195 55T231 105T245 175V248Q245 267 224 259Q163 237 130 199T96 106Q96 37 147 37Z" />
<glyph unicode="&#xe7;" glyph-name="ccedilla" horiz-adv-x="339" d="M180 -9Q136 -9 101 20T44 105T23 236Q23 321 48 384T118 481T216 516Q262 516 288 498Q298 491 298 476L300 354Q300 339 288 339Q277 339 274 352Q260 407 247 437T220 478T189 490Q169
490 148 467T112 393T97 257Q97 150 124 96T196 42Q231 42 254 71T295 176Q298 187 307 187Q319 187 316 167Q305 97 286 59T240 6T180 -9ZM198 12L188 -43Q187 -49 192 -49Q232 -56 250 -80T269 -133Q269 -172 241 -193T175 -215Q136 -215 112 -197T88 -156Q88
-145 94 -138T111 -131Q126 -131 131 -140T139 -163T150 -185T177 -195Q201 -195 212 -179T223 -138Q223 -116 209 -102T168 -84Q159 -82 160 -71L175 12H198Z" />
<glyph unicode="&#xe8;" glyph-name="egrave" horiz-adv-x="355" d="M192 -9Q144 -9 106 23T46 113T23 249Q23 328 46 388T109 482T198 516Q257 516 293 468T330 310Q330 277 305 277H115Q95 277 95 254Q95 148 126 95T205 42Q243 42 267 69T306 160Q309 171 319
171Q331 171 328 151Q312 62 277 27T192 -9ZM112 302H213Q261 302 261 352Q261 417 245 454T197 491Q158 491 132 446T97 318Q95 302 112 302ZM284 586L106 667Q88 675 82 684T75 707Q75 719 85 729T113 740Q126 740 135 736T154 724L298 612Q314 601 307 590Q301
579 284 586Z" />
<glyph unicode="&#xe9;" glyph-name="eacute" horiz-adv-x="355" d="M192 -9Q144 -9 106 23T46 113T23 249Q23 328 46 388T109 482T198 516Q257 516 293 468T330 310Q330 277 305 277H115Q95 277 95 254Q95 148 126 95T205 42Q243 42 267 69T306 160Q309 171 319
171Q331 171 328 151Q312 62 277 27T192 -9ZM112 302H213Q261 302 261 352Q261 417 245 454T197 491Q158 491 132 446T97 318Q95 302 112 302ZM101 586Q84 579 78 590Q71 601 87 612L231 724Q241 732 250 736T272 740Q290 740 300 730T310 707Q310 694 304 685T279
667L101 586Z" />
<glyph unicode="&#xea;" glyph-name="ecircumflex" horiz-adv-x="355" d="M192 -9Q144 -9 106 23T46 113T23 249Q23 328 46 388T109 482T198 516Q257 516 293 468T330 310Q330 277 305 277H115Q95 277 95 254Q95 148 126 95T205 42Q243 42 267 69T306 160Q309
171 319 171Q331 171 328 151Q312 62 277 27T192 -9ZM112 302H213Q261 302 261 352Q261 417 245 454T197 491Q158 491 132 446T97 318Q95 302 112 302ZM315 586Q303 578 295 588Q288 596 298 607L414 729Q425 740 439 740H458Q472 740 483 729L599 607Q609 596
602 588Q596 578 582 587L448 677L315 586Z" />
<glyph unicode="&#xeb;" glyph-name="edieresis" horiz-adv-x="355" d="M192 -9Q144 -9 106 23T46 113T23 249Q23 328 46 388T109 482T198 516Q257 516 293 468T330 310Q330 277 305 277H115Q95 277 95 254Q95 148 126 95T205 42Q243 42 267 69T306 160Q309 171
319 171Q331 171 328 151Q312 62 277 27T192 -9ZM112 302H213Q261 302 261 352Q261 417 245 454T197 491Q158 491 132 446T97 318Q95 302 112 302ZM354 605Q333 605 319 619T304 656Q304 678 318 692T354 706Q375 706 389 692T403 656Q403 634 389 620T354 605ZM544
605Q523 605 509 619T494 656Q494 678 508 692T544 706Q565 706 579 692T593 656Q593 634 579 620T544 605Z" />
<glyph unicode="&#xec;" glyph-name="igrave" horiz-adv-x="223" d="M30 0Q15 0 15 11Q15 20 28 23L40 25Q65 29 72 37T79 67V403Q79 421 74 427T54 436L33 439Q20 440 20 450Q20 458 36 461Q67 466 86 477T123 504Q132 513 138 513Q147 513 147 501V67Q147 46
153 37T176 26L201 23Q212 21 212 12Q212 0 197 0H30ZM459 586L281 667Q263 675 257 684T250 707Q250 719 260 729T288 740Q301 740 310 736T329 724L473 612Q489 601 482 590Q476 579 459 586Z" />
<glyph unicode="&#xed;" glyph-name="iacute" horiz-adv-x="223" d="M30 0Q15 0 15 11Q15 20 28 23L40 25Q65 29 72 37T79 67V403Q79 421 74 427T54 436L33 439Q20 440 20 450Q20 458 36 461Q67 466 86 477T123 504Q132 513 138 513Q147 513 147 501V67Q147 46
153 37T176 26L201 23Q212 21 212 12Q212 0 197 0H30ZM276 586Q259 579 253 590Q246 601 262 612L406 724Q416 732 425 736T447 740Q465 740 475 730T485 707Q485 694 479 685T454 667L276 586Z" />
<glyph unicode="&#xee;" glyph-name="icircumflex" horiz-adv-x="223" d="M30 0Q15 0 15 11Q15 20 28 23L40 25Q65 29 72 37T79 67V403Q79 421 74 427T54 436L33 439Q20 440 20 450Q20 458 36 461Q67 466 86 477T123 504Q132 513 138 513Q147 513 147 501V67Q147
46 153 37T176 26L201 23Q212 21 212 12Q212 0 197 0H30ZM234 586Q222 578 214 588Q207 596 217 607L333 729Q344 740 358 740H377Q391 740 402 729L518 607Q528 596 521 588Q515 578 501 587L367 677L234 586Z" />
<glyph unicode="&#xef;" glyph-name="idieresis" horiz-adv-x="223" d="M30 0Q15 0 15 11Q15 20 28 23L40 25Q65 29 72 37T79 67V403Q79 421 74 427T54 436L33 439Q20 440 20 450Q20 458 36 461Q67 466 86 477T123 504Q132 513 138 513Q147 513 147 501V67Q147
46 153 37T176 26L201 23Q212 21 212 12Q212 0 197 0H30ZM273 605Q252 605 238 619T223 656Q223 678 237 692T273 706Q294 706 308 692T322 656Q322 634 308 620T273 605ZM463 605Q442 605 428 619T413 656Q413 678 427 692T463 706Q484 706 498 692T512 656Q512
634 498 620T463 605Z" />
<glyph unicode="&#xf0;" glyph-name="eth" horiz-adv-x="404" d="M198 -9Q151 -9 113 23T51 109T28 229Q28 295 49 346T108 426T192 456Q234 456 265 434Q271 430 274 432T276 442Q251 546 197 621T54 725Q43 728 43 738Q43 744 47 748T62 750Q126 735 181 688T279
573T344 424T368 261Q368 181 347 120T287 25T198 -9ZM200 18Q302 18 302 218Q302 431 196 431Q147 431 124 381T100 224Q100 119 124 69T200 18Z" />
<glyph unicode="&#xf1;" glyph-name="ntilde" horiz-adv-x="470" d="M30 0Q15 0 15 11Q15 20 28 23L40 25Q61 29 67 37T74 67V403Q74 421 69 427T49 436L28 439Q15 440 15 450Q15 458 31 461Q62 466 78 477T113 504Q122 513 128 513Q137 513 137 501V456Q137 447
143 445T158 450Q198 488 228 502T293 516Q338 516 365 485T392 392V67Q392 46 398 38T426 26L448 23Q459 21 459 11Q459 0 447 0H279Q265 0 265 11Q265 21 276 23L290 25Q311 28 317 37T324 67V381Q324 430 306 450T255 470Q223 470 198 452T157 403T142 335V67Q142
46 148 37T176 26L203 23Q214 21 214 12Q214 0 199 0H30ZM298 597Q272 597 255 607T223 629T194 652T158 662Q133 662 119 650T96 611Q92 599 82 599Q69 599 72 614Q82 665 108 691T172 718Q197 718 214 708T247 686T277 663T312 653Q337 653 351 665T374 704Q379
716 388 716Q401 716 398 701Q388 650 362 624T298 597Z" />
<glyph unicode="&#xf2;" glyph-name="ograve" horiz-adv-x="408" d="M203 -9Q152 -9 112 25T47 120T23 254Q23 328 47 387T112 481T203 516Q254 516 294 481T359 387T383 254Q383 180 360 120T295 26T203 -9ZM203 16Q307 16 307 254Q307 491 203 491Q99 491 99
254Q99 16 203 16ZM295 586L117 667Q99 675 93 684T86 707Q86 719 96 729T124 740Q137 740 146 736T165 724L309 612Q325 601 318 590Q312 579 295 586Z" />
<glyph unicode="&#xf3;" glyph-name="oacute" horiz-adv-x="408" d="M203 -9Q152 -9 112 25T47 120T23 254Q23 328 47 387T112 481T203 516Q254 516 294 481T359 387T383 254Q383 180 360 120T295 26T203 -9ZM203 16Q307 16 307 254Q307 491 203 491Q99 491 99
254Q99 16 203 16ZM112 586Q95 579 89 590Q82 601 98 612L242 724Q252 732 261 736T283 740Q301 740 311 730T321 707Q321 694 315 685T290 667L112 586Z" />
<glyph unicode="&#xf4;" glyph-name="ocircumflex" horiz-adv-x="408" d="M203 -9Q152 -9 112 25T47 120T23 254Q23 328 47 387T112 481T203 516Q254 516 294 481T359 387T383 254Q383 180 360 120T295 26T203 -9ZM203 16Q307 16 307 254Q307 491 203 491Q99 491
99 254Q99 16 203 16ZM326 586Q314 578 306 588Q299 596 309 607L425 729Q436 740 450 740H469Q483 740 494 729L610 607Q620 596 613 588Q607 578 593 587L459 677L326 586Z" />
<glyph unicode="&#xf5;" glyph-name="otilde" horiz-adv-x="408" d="M203 -9Q152 -9 112 25T47 120T23 254Q23 328 47 387T112 481T203 516Q254 516 294 481T359 387T383 254Q383 180 360 120T295 26T203 -9ZM203 16Q307 16 307 254Q307 491 203 491Q99 491 99
254Q99 16 203 16ZM523 597Q497 597 480 607T448 629T419 652T383 662Q358 662 344 650T321 611Q317 599 307 599Q294 599 297 614Q307 665 333 691T397 718Q422 718 439 708T472 686T502 663T537 653Q562 653 576 665T599 704Q604 716 613 716Q626 716 623 701Q613
650 587 624T523 597Z" />
<glyph unicode="&#xf6;" glyph-name="odieresis" horiz-adv-x="408" d="M203 -9Q152 -9 112 25T47 120T23 254Q23 328 47 387T112 481T203 516Q254 516 294 481T359 387T383 254Q383 180 360 120T295 26T203 -9ZM203 16Q307 16 307 254Q307 491 203 491Q99 491
99 254Q99 16 203 16ZM365 605Q344 605 330 619T315 656Q315 678 329 692T365 706Q386 706 400 692T414 656Q414 634 400 620T365 605ZM555 605Q534 605 520 619T505 656Q505 678 519 692T555 706Q576 706 590 692T604 656Q604 634 590 620T555 605Z" />
<glyph unicode="&#xf7;" glyph-name="divide" horiz-adv-x="531" d="M266 485Q244 485 229 499T213 538Q213 561 228 575T266 590Q286 590 302 576T318 538Q318 514 302 500T266 485ZM70 354Q60 354 60 364V378Q60 388 70 388H461Q471 388 471 378V364Q471 354
461 354H70ZM266 153Q244 153 229 167T213 206Q213 229 228 243T266 258Q286 258 302 244T318 206Q318 182 302 168T266 153Z" />
<glyph unicode="&#xf8;" glyph-name="oslash" horiz-adv-x="408" d="M72 -50Q59 -50 64 -38L97 39Q63 74 43 130T23 254Q23 328 47 387T112 481T203 516Q249 516 288 486L316 552Q319 560 327 560H334Q347 560 342 548L308 468Q342 433 362 377T383 254Q383 180
360 120T295 26T203 -9Q157 -9 117 21L90 -42Q87 -50 79 -50H72ZM99 254Q99 148 119 90L272 449Q247 491 203 491Q99 491 99 254ZM203 16Q307 16 307 254Q307 360 286 418L133 58Q158 16 203 16Z" />
<glyph unicode="&#xf9;" glyph-name="ugrave" horiz-adv-x="454" d="M171 -9Q146 -9 123 2T85 37T70 101V449Q70 467 65 474T45 482L28 484Q11 486 11 497Q11 510 30 510H123Q138 510 138 495V122Q138 76 155 57T204 37Q235 37 259 54T297 101T312 166V449Q312
467 307 474T287 482L270 484Q253 486 253 497Q253 510 272 510H365Q380 510 380 495V107Q380 89 385 83T405 74L426 71Q439 70 439 61Q439 52 423 49Q392 45 374 33T341 4Q332 -5 326 -5Q317 -5 317 7V53Q317 61 312 62T300 58Q263 21 235 6T171 -9ZM307 586L129
667Q111 675 105 684T98 707Q98 719 108 729T136 740Q149 740 158 736T177 724L321 612Q337 601 330 590Q324 579 307 586Z" />
<glyph unicode="&#xfa;" glyph-name="uacute" horiz-adv-x="454" d="M171 -9Q146 -9 123 2T85 37T70 101V449Q70 467 65 474T45 482L28 484Q11 486 11 497Q11 510 30 510H123Q138 510 138 495V122Q138 76 155 57T204 37Q235 37 259 54T297 101T312 166V449Q312
467 307 474T287 482L270 484Q253 486 253 497Q253 510 272 510H365Q380 510 380 495V107Q380 89 385 83T405 74L426 71Q439 70 439 61Q439 52 423 49Q392 45 374 33T341 4Q332 -5 326 -5Q317 -5 317 7V53Q317 61 312 62T300 58Q263 21 235 6T171 -9ZM124 586Q107
579 101 590Q94 601 110 612L254 724Q264 732 273 736T295 740Q313 740 323 730T333 707Q333 694 327 685T302 667L124 586Z" />
<glyph unicode="&#xfb;" glyph-name="ucircumflex" horiz-adv-x="454" d="M171 -9Q146 -9 123 2T85 37T70 101V449Q70 467 65 474T45 482L28 484Q11 486 11 497Q11 510 30 510H123Q138 510 138 495V122Q138 76 155 57T204 37Q235 37 259 54T297 101T312 166V449Q312
467 307 474T287 482L270 484Q253 486 253 497Q253 510 272 510H365Q380 510 380 495V107Q380 89 385 83T405 74L426 71Q439 70 439 61Q439 52 423 49Q392 45 374 33T341 4Q332 -5 326 -5Q317 -5 317 7V53Q317 61 312 62T300 58Q263 21 235 6T171 -9ZM338 586Q326
578 318 588Q311 596 321 607L437 729Q448 740 462 740H481Q495 740 506 729L622 607Q632 596 625 588Q619 578 605 587L471 677L338 586Z" />
<glyph unicode="&#xfc;" glyph-name="udieresis" horiz-adv-x="454" d="M171 -9Q146 -9 123 2T85 37T70 101V449Q70 467 65 474T45 482L28 484Q11 486 11 497Q11 510 30 510H123Q138 510 138 495V122Q138 76 155 57T204 37Q235 37 259 54T297 101T312 166V449Q312
467 307 474T287 482L270 484Q253 486 253 497Q253 510 272 510H365Q380 510 380 495V107Q380 89 385 83T405 74L426 71Q439 70 439 61Q439 52 423 49Q392 45 374 33T341 4Q332 -5 326 -5Q317 -5 317 7V53Q317 61 312 62T300 58Q263 21 235 6T171 -9ZM121 605Q100
605 86 619T71 656Q71 678 85 692T121 706Q142 706 156 692T170 656Q170 634 156 620T121 605ZM311 605Q290 605 276 619T261 656Q261 678 275 692T311 706Q332 706 346 692T360 656Q360 634 346 620T311 605Z" />
<glyph unicode="&#xfd;" glyph-name="yacute" horiz-adv-x="401" d="M83 -205Q56 -205 40 -187T24 -144Q24 -125 35 -112T65 -99Q81 -99 88 -106T98 -122T104 -138T116 -145Q127 -145 136 -130T161 -64Q171 -34 173 -12T173 35T157 96L48 443Q41 467 35 474T14
484L-1 487Q-14 490 -14 500Q-14 510 0 510H165Q179 510 179 500Q179 489 166 487L150 485Q126 482 120 474T120 443L208 150Q211 140 217 140T227 150L312 425Q320 452 317 465T288 483L267 487Q254 490 254 500Q254 510 268 510H395Q409 510 409 499Q409 489
397 485L388 482Q373 477 363 464T342 419L193 -46Q171 -116 154 -150T120 -194T83 -205ZM109 586Q92 579 86 590Q79 601 95 612L239 724Q249 732 258 736T280 740Q298 740 308 730T318 707Q318 694 312 685T287 667L109 586Z" />
<glyph unicode="&#xfe;" glyph-name="thorn" horiz-adv-x="444" d="M27 -205Q12 -205 12 -194Q12 -183 25 -182L39 -180Q60 -177 66 -168T73 -138V640Q73 658 65 664T43 673L22 676Q11 678 11 688Q11 698 22 700Q50 706 69 714T101 730Q117 740 125 740Q136 740
136 724V470Q136 463 142 461T156 466L167 477Q187 497 208 506T256 516Q302 516 337 486T393 401T414 274Q414 191 388 127T317 27T212 -9Q182 -9 159 2Q141 10 141 -9V-138Q141 -159 147 -166T175 -177L212 -182Q223 -184 223 -193Q223 -205 208 -205H27ZM215
16Q271 16 305 82T340 260Q340 363 310 417T225 471Q191 471 166 443T141 365V113Q141 68 161 42T215 16Z" />
<glyph unicode="&#xff;" glyph-name="ydieresis" horiz-adv-x="401" d="M83 -205Q56 -205 40 -187T24 -144Q24 -125 35 -112T65 -99Q81 -99 88 -106T98 -122T104 -138T116 -145Q127 -145 136 -130T161 -64Q171 -34 173 -12T173 35T157 96L48 443Q41 467 35 474T14
484L-1 487Q-14 490 -14 500Q-14 510 0 510H165Q179 510 179 500Q179 489 166 487L150 485Q126 482 120 474T120 443L208 150Q211 140 217 140T227 150L312 425Q320 452 317 465T288 483L267 487Q254 490 254 500Q254 510 268 510H395Q409 510 409 499Q409 489
397 485L388 482Q373 477 363 464T342 419L193 -46Q171 -116 154 -150T120 -194T83 -205ZM362 605Q341 605 327 619T312 656Q312 678 326 692T362 706Q383 706 397 692T411 656Q411 634 397 620T362 605ZM552 605Q531 605 517 619T502 656Q502 678 516 692T552
706Q573 706 587 692T601 656Q601 634 587 620T552 605Z" />
<glyph unicode="&#x2013;" glyph-name="endash" horiz-adv-x="510" d="M92 259Q82 259 82 269V283Q82 293 92 293H418Q428 293 428 283V269Q428 259 418 259H92Z" />
<glyph unicode="&#x2014;" glyph-name="emdash" horiz-adv-x="720" d="M92 259Q82 259 82 269V283Q82 293 92 293H628Q638 293 638 283V269Q638 259 628 259H92Z" />
<glyph unicode="&#x2018;" glyph-name="quoteleft" horiz-adv-x="166" d="M78 562Q53 562 39 580T24 629Q24 675 44 713T111 784Q123 793 130 788Q134 785 134 780T127 769Q93 740 84 725T74 692Q74 674 82 665T100 649T118 633T126 606Q126 588 114 575T78 562Z" />
<glyph unicode="&#x2019;" glyph-name="quoteright" horiz-adv-x="166" d="M55 508Q43 499 36 504Q32 507 32 512T39 523Q73 552 82 569T92 600Q92 618 84 627T66 643T48 659T40 686Q40 704 53 717T88 730Q113 730 127 712T142 663Q142 617 122 579T55 508Z" />
<glyph unicode="&#x201a;" glyph-name="quotesinglbase" horiz-adv-x="166" d="M55 -126Q43 -135 36 -130Q32 -127 32 -122T39 -111Q73 -82 82 -65T92 -34Q92 -16 84 -7T66 9T48 25T40 52Q40 70 53 83T88 96Q113 96 127 78T142 29Q142 -17 122 -55T55 -126Z" />
<glyph unicode="&#x201c;" glyph-name="quotedblleft" horiz-adv-x="316" d="M294 562Q269 562 255 580T240 629Q240 675 260 713T327 784Q339 793 346 788Q350 785 350 780T343 769Q309 740 300 725T290 692Q290 674 298 665T316 649T334 633T342 606Q342 588
330 575T294 562ZM188 562Q163 562 149 580T134 629Q134 675 154 713T221 784Q233 793 240 788Q244 785 244 780T237 769Q203 740 194 725T184 692Q184 674 192 665T210 649T228 633T236 606Q236 588 224 575T188 562Z" />
<glyph unicode="&#x201d;" glyph-name="quotedblright" horiz-adv-x="316" d="M55 508Q43 499 36 504Q32 507 32 512T39 523Q73 552 82 569T92 600Q92 618 84 627T66 643T48 659T40 686Q40 704 53 717T88 730Q113 730 127 712T142 663Q142 617 122 579T55 508ZM205
508Q193 499 186 504Q182 507 182 512T189 523Q223 552 232 569T242 600Q242 618 234 627T216 643T198 659T190 686Q190 704 203 717T238 730Q263 730 277 712T292 663Q292 617 272 579T205 508Z" />
<glyph unicode="&#x201e;" glyph-name="quotedblbase" horiz-adv-x="316" d="M55 -126Q43 -135 36 -130Q32 -127 32 -122T39 -111Q73 -82 82 -65T92 -34Q92 -16 84 -7T66 9T48 25T40 52Q40 70 53 83T88 96Q113 96 127 78T142 29Q142 -17 122 -55T55 -126ZM205
-126Q193 -135 186 -130Q182 -127 182 -122T189 -111Q223 -82 232 -65T242 -34Q242 -16 234 -7T216 9T198 25T190 52Q190 70 203 83T238 96Q263 96 277 78T292 29Q292 -17 272 -55T205 -126Z" />
<glyph unicode="&#x2022;" glyph-name="bullet" horiz-adv-x="301" d="M152 292Q118 292 95 313T72 371Q72 405 95 427T152 449Q182 449 206 427T230 371Q230 335 206 314T152 292Z" />
<glyph unicode="&#x2039;" glyph-name="guilsinglleft" horiz-adv-x="262" d="M161 93L60 234Q49 251 60 268L161 409Q167 418 171 421T180 424Q188 424 189 419T189 409L120 260Q116 251 120 242L189 93Q191 89 190 84T180 78Q176 78 172 81T161 93Z" />
<glyph unicode="&#x203a;" glyph-name="guilsinglright" horiz-adv-x="262" d="M101 93Q95 84 91 81T82 78Q75 78 73 83T73 93L142 242Q147 251 142 260L73 409Q71 414 73 419T82 424Q87 424 91 421T101 409L202 268Q213 251 202 234L101 93Z" />
</font>
</defs>
</svg>
