<?xml version="1.0" standalone="no"?>
<!DOCTYPE svg PUBLIC "-//W3C//DTD SVG 1.1//EN" "http://www.w3.org/Graphics/SVG/1.1/DTD/svg11.dtd">
<svg xmlns="http://www.w3.org/2000/svg">
<defs >
<font id="Neonderthaw" horiz-adv-x="629" ><font-face
    font-family="Neonderthaw"
    units-per-em="1000"
    panose-1="0 0 0 0 0 0 0 0 0 0"
    ascent="1050"
    descent="-300"
    alphabetic="0" />
<glyph unicode=" " glyph-name="space" horiz-adv-x="237" />
<glyph unicode="!" glyph-name="exclam" horiz-adv-x="241" d="M79 165Q74 165 71 169T70 180Q128 307 160 389T200 491Q210 515 230 526T271 538Q291 538 306 528T321 499Q321 487 314 473Q301 448 263 386T175 221Q172 215 166 215Q162 215 158 219T157 230Q218
354 259 419T301 498Q301 508 293 513T273 518Q258 518 242 510T218 483Q211 464 179 382T88 171Q85 165 79 165ZM-5 0Q-24 16 -24 38Q-24 58 -11 71T22 84Q42 84 55 71T69 38Q69 19 56 6Q53 3 49 3Q44 3 41 8T42 20Q49 29 49 38Q49 49 42 56T23 64Q12 64 4 57T-4
38Q-4 23 7 17Q11 14 11 9Q11 4 6 0T-5 0Z" />
<glyph unicode="&quot;" glyph-name="quotedbl" horiz-adv-x="274" d="M206 381Q198 381 200 391Q202 400 211 400Q222 402 235 410T255 434L258 439Q259 440 259 441L261 444Q265 450 277 475T321 565Q325 573 325 580Q325 594 306 594Q294 594 280 586T257 561Q253
553 245 553Q241 553 238 556T238 565Q250 590 271 602T312 614Q326 614 336 607T346 586Q346 583 346 580T344 573Q343 570 343 567T340 561Q337 556 330 540T313 504T293 465T276 435V433L274 430Q264 408 245 396T208 381H206ZM42 381Q34 381 36 391Q38 400
47 400Q58 402 71 410T91 434L94 439Q95 440 95 441L97 444Q101 450 113 475T157 565Q161 573 161 580Q161 594 142 594Q129 594 115 586T92 561Q88 553 80 553Q76 553 74 556T74 565Q86 590 107 602T148 614Q162 614 172 607T182 586Q182 583 182 580T180 573Q179
570 179 567T176 561Q173 556 166 540T149 504T129 465T112 435L111 433L110 430Q100 408 81 396T44 381H42Z" />
<glyph unicode="#" glyph-name="numbersign" horiz-adv-x="492" d="M283 287Q273 287 273 297V534Q273 548 264 555T244 562Q233 562 224 555T215 534V359Q215 349 205 349Q195 349 195 359V534Q195 558 210 570T244 582Q262 582 277 570T293 534V297Q293 287
283 287ZM456 287Q446 287 446 297V534Q446 548 438 555T418 562Q407 562 398 555T389 534V359Q389 349 379 349Q369 349 369 359V534Q369 558 384 570T418 582Q435 582 450 570T466 534V297Q466 287 456 287ZM64 296Q40 296 28 311T16 345Q16 363 28 378T64 394L177
393Q187 393 187 383Q187 373 177 373L64 374Q50 374 43 365T36 345Q36 334 43 325T64 316H173Q183 316 183 306Q183 296 173 296H64ZM481 296Q471 296 471 306Q471 316 481 316H598Q612 316 619 324T626 344Q626 355 619 364T597 373H499Q489 373 489 383Q489
393 499 393H598Q622 393 634 378T646 344Q646 327 634 312T597 296H481ZM244 -19Q226 -19 211 -7T195 29V261Q195 272 205 272Q215 272 215 261V29Q215 15 224 8T244 1Q255 1 264 8T273 29V212Q273 222 283 222Q293 222 293 212V29Q293 5 278 -7T244 -19ZM418
-19Q400 -19 385 -7T369 29V261Q369 272 379 272Q389 272 389 261V29Q389 15 398 8T418 1Q429 1 437 8T446 29V212Q446 222 456 222Q466 222 466 212V29Q466 5 451 -7T418 -19ZM64 122Q40 122 28 137T16 171Q16 188 28 203T64 219H177Q187 219 187 209Q187 199
177 199H64Q50 199 43 191T36 171Q36 160 43 151T64 142H173Q183 142 183 132Q183 122 173 122H64ZM481 122Q471 122 471 132Q471 142 481 142H598Q612 142 619 150T626 170Q626 181 619 190T597 199H499Q489 199 489 209Q489 219 499 219H598Q622 219 634 204T646
170Q646 152 634 137T597 122H481Z" />
<glyph unicode="$" glyph-name="dollar" horiz-adv-x="767" d="M348 -62Q343 -62 340 -59T337 -51Q337 -47 339 -44T347 -40Q405 -35 459 -20T557 20T627 77T653 148Q653 204 599 243T433 309Q362 326 332 350T302 399Q302 425 328 450T391 494Q417 506 451 513T537
522Q539 523 541 523Q551 523 551 512Q551 508 548 503Q518 454 518 448Q518 439 527 428Q535 421 537 421T543 424Q559 446 595 509Q596 510 597 511Q601 518 609 515Q644 502 666 479T692 441Q695 424 701 424Q718 424 720 439Q724 474 697 503T628 543Q621 546
621 553Q621 557 623 560V560Q629 570 634 579T643 597Q650 608 650 617Q650 626 642 634Q630 643 624 640Q621 637 612 621T593 590T582 572Q578 566 572 566Q566 566 563 571T563 584Q578 606 590 627T612 656Q623 663 630 663Q644 663 657 648Q671 637 671 617Q671
605 663 587Q659 581 656 575T648 560Q691 544 718 511T741 437Q740 423 728 414T701 404Q691 404 683 410T673 429Q671 449 651 466T610 493Q595 467 582 445T559 412Q550 398 538 398Q527 398 511 414Q497 430 497 448Q497 455 503 467Q506 472 511 482T522 502L518
501Q449 498 399 474Q366 458 345 440T323 401Q323 382 349 364T438 330Q674 273 674 148Q674 103 646 66T570 2T464 -41T348 -62ZM255 -158Q242 -158 228 -143Q214 -132 214 -112Q214 -100 222 -82Q237 -54 257 -19T296 48T326 93Q335 107 347 107Q358 107 374
91Q388 75 388 57Q388 50 382 38Q379 33 375 24T365 7Q420 17 471 35T555 80T588 140Q588 179 536 212T384 268Q305 288 271 319T237 384Q237 425 274 464T364 531Q395 547 438 556T515 564Q525 564 525 553Q525 549 523 546T515 542Q480 544 440 535T373 512Q322
487 290 454T258 388Q258 358 288 332T389 289Q609 236 609 140Q609 106 585 79T521 33T436 1T347 -18H345H344V-18Q334 -18 334 -7Q334 -7 334 -7Q334 -6 334 -6Q334 -5 334 -5Q334 -4 335 -3Q335 0 337 2Q367 52 367 57Q367 67 358 77Q351 85 349 85T342 81Q332
68 314 38T277 -28T242 -92Q235 -103 235 -112Q235 -121 243 -129Q256 -138 261 -135Q264 -131 273 -116T292 -85T303 -67Q308 -61 313 -61Q319 -61 322 -66T322 -79Q307 -101 295 -122T273 -151Q263 -158 255 -158ZM207 -51Q123 -37 89 -10T54 49Q54 79 76 108T134
163T206 203T274 218Q297 218 307 210T318 190Q318 178 306 167T272 153Q238 150 209 136T161 103T143 64Q143 47 160 33T218 14Q231 14 231 4Q231 0 227 -3T215 -6Q166 1 144 19T122 61Q122 85 142 109T195 152T271 175Q284 177 291 182T298 191Q298 201 277 201Q251
201 217 188T151 152T97 105T76 53Q76 28 106 6T209 -30Q219 -30 219 -40Q219 -44 216 -48T207 -51Z" />
<glyph unicode="%" glyph-name="percent" horiz-adv-x="562" d="M266 570Q261 570 258 575T258 586Q284 624 284 660Q284 685 269 701T222 717Q177 717 133 679T47 580Q44 575 39 575Q34 575 31 580T31 591Q72 651 120 694T222 737Q267 737 285 716T304 664Q304
642 296 619T274 575Q271 570 266 570ZM28 9Q23 9 19 13T19 24Q38 54 69 102T140 210T221 333T303 457T378 569T435 657T467 706Q477 722 490 728T518 735Q539 735 555 722T572 689Q572 674 562 660Q546 635 514 587T441 476T354 346T267 216T192 101T140 21Q138
16 132 16Q127 16 123 20T123 31Q141 60 174 111T250 225T337 356T423 486T497 597T545 671Q551 682 551 689Q551 701 542 708T519 715Q509 715 500 711T484 696Q476 683 453 647T395 560T321 447T238 323T157 200T87 93T36 14Q33 9 28 9ZM115 474Q98 474 89 486T79
516Q79 539 93 567T128 621T175 663T221 680Q232 680 232 670Q232 666 230 663T222 660Q206 661 185 647T145 609T112 561T99 516Q99 494 114 494Q125 494 139 503T165 523T182 542Q185 547 190 547Q195 547 199 543T199 532Q189 514 165 494T115 474ZM245 539Q219
539 200 554T181 597Q181 617 191 638Q194 644 200 644Q205 644 208 640T209 630Q205 621 203 613T201 598Q201 579 213 570T245 560Q261 560 279 567T311 591Q314 595 319 595Q324 595 327 589T326 578Q308 558 287 549T245 539ZM107 406Q69 406 43 432T20 492Q20
502 30 502Q34 502 37 499T40 491Q38 469 58 447T109 425Q129 425 151 437T195 478Q195 479 207 493T223 515Q226 521 232 521Q237 521 240 517T241 506Q235 495 227 486T211 466Q186 434 159 420T107 406ZM364 6Q327 6 300 29T277 86Q277 95 287 95Q291 95 294
92T297 84Q295 62 313 44T363 26Q387 26 419 48T481 106T531 180T551 250Q551 273 538 288T496 309Q492 310 488 310T480 310Q435 310 391 272T304 173Q301 169 297 169Q291 169 288 174T288 185Q329 244 377 287T480 330Q485 330 490 330T500 328Q538 321 554
301T571 252Q571 223 557 190T521 125T471 65T415 22T364 6ZM372 68Q355 68 346 79T336 110Q336 134 350 162T386 215T432 257T478 274Q490 274 490 264Q490 260 487 257T479 254Q463 255 442 241T402 203T369 154T356 109Q356 87 371 87Q382 87 396 96T422 117T439
136Q442 141 447 141Q452 141 456 137T456 126Q446 107 422 88T372 68Z" />
<glyph unicode="&amp;" glyph-name="ampersand" horiz-adv-x="542" d="M103 350Q98 350 95 354Q79 376 72 399T65 445Q65 495 95 541T174 617Q224 648 284 648Q338 648 385 619T453 529Q454 528 454 525Q454 515 443 515Q437 515 434 522Q415 576 374 602T284
628Q259 628 234 621T185 600Q139 572 113 531T86 445Q86 425 92 405T112 365Q114 361 114 360Q114 350 103 350ZM184 38Q147 38 118 57T73 107T56 170Q56 191 64 212Q75 240 97 259T148 288T202 295Q216 294 222 302T229 319Q229 329 224 334Q181 339 160 371T139
443Q139 457 142 470T149 496Q166 538 204 562T285 587Q318 587 348 570T394 514Q395 513 395 510Q395 500 384 500Q379 500 376 506Q363 537 338 551T283 566Q249 566 216 546T168 488Q159 466 159 442Q159 409 176 384T225 355Q236 354 242 343T249 318Q249 301
238 287T200 275Q166 279 132 260T83 205Q80 197 78 188T76 170Q76 144 88 119T123 78T173 58Q209 55 245 69T309 120T346 218Q347 226 356 226Q360 226 363 223T366 215Q357 152 329 113T262 56T184 38ZM183 -26Q131 -26 86 -5T12 57T-17 157Q-17 202 1 244T55
313T138 340Q143 340 148 340T157 339Q166 339 166 330Q166 320 156 320Q152 320 148 320T139 321Q97 321 67 298T20 237T3 159Q3 122 18 87T68 27T155 -4Q162 -5 168 -5T182 -5Q234 -5 281 16T364 82T413 196Q414 204 422 204Q427 204 430 201T433 192Q419 117
380 69T288 -3T183 -26ZM294 232Q268 232 257 242T246 268Q246 288 261 307T296 327H512Q535 327 545 317T556 292Q556 272 537 252T483 232H427Q417 232 417 242Q417 252 427 252H483Q506 252 521 265T536 291Q536 307 512 307H296Q289 307 278 294T266 269Q266
262 272 257T294 252H349Q359 252 359 242Q359 232 349 232H294Z" />
<glyph unicode="&apos;" glyph-name="quotesingle" horiz-adv-x="110" d="M42 381Q34 381 36 391Q38 400 47 400Q58 402 71 410T91 434L94 439Q95 440 95 441L97 444Q101 450 113 475T157 565Q161 573 161 580Q161 594 142 594Q129 594 115 586T92 561Q88 553
80 553Q76 553 74 556T74 565Q86 590 107 602T148 614Q162 614 172 607T182 586Q182 583 182 580T180 573Q179 570 179 567T176 561Q173 556 166 540T149 504T129 465T112 435L111 433L110 430Q100 408 81 396T44 381H42Z" />
<glyph unicode="(" glyph-name="parenleft" horiz-adv-x="347" d="M242 -71Q173 -71 120 -43T38 36T8 159Q8 243 28 325T85 479T176 608T298 696T447 728Q466 728 476 718T486 693Q486 680 475 669T440 658Q380 658 329 629T237 549T167 434Q164 428 159 428Q154
428 151 432T149 442Q179 507 221 560T319 646T440 678Q454 678 460 683T466 693Q466 708 447 708Q372 708 308 678T192 594T104 471T48 321T28 159Q28 62 86 6T242 -51Q257 -51 266 -43T276 -26Q276 -13 258 -13Q178 -13 133 34T87 161Q87 202 92 244T109 328Q111
336 118 336Q123 336 127 333T129 323Q119 283 113 242T107 161Q107 91 147 49T258 7Q278 7 287 -2T296 -25Q296 -41 282 -56T242 -71Z" />
<glyph unicode=")" glyph-name="parenright" horiz-adv-x="434" d="M-6 -73Q-25 -73 -35 -62T-45 -38Q-45 -25 -34 -14T1 -3Q61 -3 112 26T204 107T274 221Q277 227 282 227Q287 227 290 223T292 213Q263 148 220 95T122 9T1 -23Q-12 -23 -18 -28T-25 -38Q-25
-53 -6 -53Q69 -53 133 -23T249 61T337 184T393 334T413 496Q413 594 355 650T199 706Q184 706 175 697T165 680Q165 667 183 667Q263 667 308 620T354 493Q354 453 349 411T332 326Q330 318 323 318Q319 318 315 321T312 331Q323 372 328 413T334 493Q334 564
294 605T183 647Q164 647 155 656T145 679Q145 696 159 711T199 726Q269 726 321 698T403 619T433 496Q433 412 413 330T356 176T265 47T143 -41T-6 -73Z" />
<glyph unicode="*" glyph-name="asterisk" horiz-adv-x="700" d="M286 459Q276 459 276 469V707Q276 737 295 752T337 767Q359 767 377 752T396 707V554Q396 544 386 544Q376 544 376 554V707Q376 727 364 737T337 747Q321 747 309 737T296 707V469Q296 459 286
459ZM496 510Q490 510 487 516T489 527Q497 535 510 547T535 573T546 602Q546 616 534 628Q522 640 507 640Q493 640 480 630T455 608T435 586Q432 583 428 583Q423 583 420 589T421 600Q438 617 461 639T509 661Q518 661 528 657T548 642Q559 632 563 622T567
602Q567 585 556 569T530 539T503 513Q500 510 496 510ZM172 513Q155 530 133 552T111 600Q111 610 115 620T130 640Q141 651 150 655T170 659Q188 659 203 648T233 622T259 595Q262 592 262 588Q262 582 256 579T245 581Q237 589 226 602T200 627T171 638Q156
638 144 626Q131 613 131 599Q131 585 141 572T164 547T186 527Q189 524 189 520Q189 515 183 512T172 513ZM86 376Q57 376 42 395T26 436Q26 458 41 477T87 496H213Q223 496 223 486Q223 476 213 476H86Q67 476 57 464T46 436Q46 420 56 408T86 396H298Q308 396
308 386Q308 376 298 376H86ZM462 376Q452 376 452 386Q452 396 462 396H588Q608 396 618 408T628 436Q628 451 618 463T588 476H377Q367 476 367 486Q367 496 377 496H588Q618 496 633 477T648 436Q648 414 633 395T588 376H462ZM338 105Q316 105 297 120T278
165V318Q278 328 288 328Q298 328 298 318V165Q298 145 310 135T338 125Q354 125 366 135T378 165V403Q378 413 388 413Q398 413 398 403V165Q398 135 380 120T338 105ZM167 211Q157 211 148 215T127 230Q117 241 113 250T108 270Q108 288 119 304T145 334T172
359Q175 362 179 362Q184 362 187 356T186 345Q178 337 164 325T140 299T129 270Q129 256 141 244Q154 231 167 231Q182 231 195 241T219 264T239 285Q242 288 247 288Q258 288 258 278Q258 275 254 271Q237 254 215 233T167 211ZM505 213Q488 213 472 224T442
250T416 277Q413 280 413 285Q413 295 422 295Q426 295 430 291Q439 283 450 269T476 245T504 234Q519 234 531 246Q543 258 543 272Q543 286 533 299T511 324T489 344Q486 347 486 351Q486 357 492 360T503 359Q520 342 542 320T564 271Q564 251 545 232Q535 222
525 218T505 213Z" />
<glyph unicode="+" glyph-name="plus" horiz-adv-x="492" d="M283 287Q273 287 273 297V482Q273 496 264 503T244 511Q233 511 224 504T215 482V359Q215 349 205 349Q195 349 195 359V482Q195 506 210 518T244 531Q262 531 277 519T293 482V297Q293 287 283 287ZM64
230Q40 230 28 245T16 279Q16 296 28 311T64 327H177Q187 327 187 317Q187 307 177 307H64Q50 307 43 299T36 279Q36 268 43 259T64 250H173Q183 250 183 240Q183 230 173 230H64ZM307 230Q297 230 297 240Q297 250 307 250H423Q438 250 445 258T452 278Q452 289
445 298T423 307H325Q315 307 315 317Q315 327 325 327H423Q448 327 460 312T472 278Q472 260 460 245T423 230H307ZM244 23Q226 23 211 35T195 71V261Q195 272 205 272Q215 272 215 261V71Q215 57 224 50T244 43Q255 43 264 50T273 71V212Q273 222 283 222Q293
222 293 212V71Q293 47 278 35T244 23Z" />
<glyph unicode="," glyph-name="comma" horiz-adv-x="170" d="M-21 -98Q-30 -98 -30 -88Q-30 -79 -22 -78Q13 -71 36 -50T71 -3T83 44Q83 59 77 68T58 78Q41 78 33 67T24 44Q24 35 28 29T42 24H43Q53 24 53 14Q53 4 40 4Q24 4 14 16T3 45Q3 66 20 82T58 98Q81
98 91 83T102 44Q102 18 88 -12T48 -66T-19 -98H-21Z" />
<glyph unicode="-" glyph-name="hyphen" horiz-adv-x="552" d="M94 230Q70 230 58 245T46 279Q46 296 58 311T94 327H453Q482 327 497 312T512 279Q512 261 497 246T453 230Q443 230 443 240Q443 250 453 250Q471 250 480 259T489 279Q489 290 481 298T453 307H94Q80
307 73 299T66 279Q66 268 73 259T94 250H398Q408 250 408 240Q408 230 398 230H94Z" />
<glyph unicode="." glyph-name="period" horiz-adv-x="190" d="M35 0Q16 16 16 38Q16 58 29 71T62 84Q82 84 95 71T109 38Q109 19 96 6Q93 3 89 3Q84 3 81 8T82 20Q89 29 89 38Q89 49 82 56T63 64Q52 64 44 57T36 38Q36 23 47 17Q51 14 51 9Q51 4 46 0T35 0Z" />
<glyph unicode="/" glyph-name="slash" horiz-adv-x="562" d="M49 9Q44 9 41 15T42 26Q68 56 111 104T208 212T319 334T431 458T533 570T612 658T656 707Q669 722 684 728T712 735Q731 735 744 725T757 697Q757 679 740 659Q721 637 686 598T604 509T507 402T404
288T305 179T221 86T162 19Q159 15 155 15Q150 15 146 21T147 33Q169 58 206 99T290 192T389 301T492 414T589 521T670 611T725 672Q737 687 737 697Q737 715 713 715Q703 715 692 710T671 694Q660 681 628 645T548 558T446 445T334 321T224 199T127 92T57 13Q54
9 49 9Z" />
<glyph unicode="0" glyph-name="zero" horiz-adv-x="560" d="M151 -15Q74 -15 26 31T-23 157Q-23 219 3 277T75 386T178 473T297 532T419 553Q508 553 547 521T587 444Q587 407 561 371T489 310T378 286Q361 286 338 290T292 303T254 328T235 370V371Q235 381
245 381Q255 381 255 372Q258 349 278 334T326 313T378 306Q435 306 477 327T543 379T567 442Q567 479 533 506T419 533Q362 533 303 513T189 457T91 373T22 270T-3 157Q-3 87 39 46T151 5Q207 5 257 25T349 82T420 166T460 267Q461 275 470 275Q475 275 478 272T480
263Q468 207 438 157T363 68T265 7T151 -15ZM176 50Q119 50 91 88T63 180Q63 226 86 271T148 357T233 429T325 479T411 497Q468 497 492 479T517 437Q517 415 500 392T453 354T387 339Q375 339 353 345T312 363T290 394V396Q290 405 300 405Q309 405 310 397Q312
388 326 379T357 365T387 359Q416 359 441 371T481 400T497 435Q497 452 478 464T411 477Q375 477 331 460T244 413T164 345T105 264T83 180Q83 131 106 101T176 70Q217 70 254 92T322 148T371 212T392 259Q394 268 402 268Q406 268 409 265T412 257Q410 242 397
217T362 163T310 108T246 66T176 50Z" />
<glyph unicode="1" glyph-name="one" horiz-adv-x="440" d="M214 105Q210 105 207 108T204 117Q207 133 219 161T249 225T285 295T320 361T345 408Q353 424 366 436T393 459Q403 473 403 485Q403 500 390 508T360 517Q353 517 347 516T335 509Q320 496 292 472T233
421T176 371T138 336Q129 327 129 316Q129 308 134 302T147 295Q154 295 163 301Q167 303 169 303Q179 303 179 293Q179 288 175 285Q161 275 147 275Q131 275 120 287T109 315Q109 335 125 351Q136 362 162 385T219 435T278 487T321 524Q339 539 360 539Q384 539
403 523T423 483Q423 462 405 444L401 440Q391 430 381 421T363 398Q356 384 334 344T289 256Q265 209 246 168T224 113Q223 105 214 105ZM123 75Q119 75 116 78T113 86Q114 95 126 127T158 201T198 287T236 363T260 406Q263 410 268 410Q273 410 277 405T276 394Q269
384 253 352T216 278T177 195T146 123T133 85Q133 75 123 75ZM4 -18Q-18 -18 -29 -8T-40 17Q-40 37 -21 57T33 77H89Q99 77 99 67Q99 57 89 57Q75 57 61 57T33 58Q11 58 -4 45T-20 18Q-20 2 4 2H275Q282 2 293 15T305 40Q305 47 299 52T277 57H191Q181 57 181 67Q181
77 191 77H277Q303 77 314 67T325 41Q325 21 310 2T275 -18H4Z" />
<glyph unicode="2" glyph-name="two" horiz-adv-x="526" d="M0 43Q-9 43 -10 52Q-13 79 8 97T63 122Q56 128 63 136Q79 153 109 176T173 225T240 275T296 320T326 351Q340 375 340 396Q340 427 315 444T257 461Q227 461 200 444T165 387Q164 384 164 378Q164 359
175 342T186 306Q186 291 174 278Q162 265 146 265Q127 265 110 281T80 325T68 385Q68 429 97 472T202 541Q231 551 263 551Q311 551 354 530T424 474T451 396Q451 371 440 345T406 292Q375 257 333 232T249 183T179 127Q176 124 172 124Q167 124 164 129T165 141Q195
174 236 197T319 246T392 306Q412 328 420 350T429 394Q429 432 407 463T348 514T267 533Q237 533 208 523Q148 503 117 464T85 382Q85 337 120 300Q134 286 146 286Q156 286 161 293T166 311Q166 321 160 330Q144 350 144 378Q144 404 158 427T198 466T256 481Q282
481 305 471T344 442T360 395Q360 370 344 341Q336 328 312 308T256 263T189 213T125 164T79 124Q84 124 90 124Q97 124 103 124T117 122Q157 116 202 102T293 76T376 64Q387 64 387 54Q387 44 376 44Q335 44 290 56T201 82T114 102Q107 103 101 103T88 104Q48
104 28 88T10 55V53Q10 43 0 43ZM355 -17Q314 -17 269 -5T178 21T90 41Q87 41 85 41T80 42Q62 42 55 33T48 16Q48 6 52 3Q55 0 55 -4Q55 -15 45 -15Q41 -15 37 -11Q26 0 26 15Q26 34 43 50T92 61Q133 55 179 41T270 15T355 3Q391 3 411 23T431 69Q431 83 425 96T405
120Q401 123 401 128Q401 133 406 137T417 136Q435 122 443 105T451 70Q451 36 425 10T355 -17Z" />
<glyph unicode="3" glyph-name="three" horiz-adv-x="485" d="M158 -21Q92 -21 52 1T-5 59T-20 137Q-20 146 -10 146Q-6 146 -3 144T0 136Q-1 100 13 69T62 18T158 -1Q217 -1 262 17T339 66T386 130T403 197Q403 237 377 265T296 293Q286 293 286 303Q286 313
296 313Q323 313 345 306Q343 309 343 313Q343 319 348 321Q383 342 402 374T421 437Q421 477 387 506T278 531Q244 529 205 520T136 483Q133 480 129 480Q124 480 121 486T122 497Q156 529 199 539T276 551Q335 555 371 540T423 499T440 442Q440 403 418 365T358
303Q357 302 356 302Q390 288 406 260T422 198Q422 162 405 124T354 52T271 -1T158 -21ZM168 38Q117 38 86 66T54 133Q54 147 58 161T71 188Q74 193 79 193Q84 193 88 188T88 177Q75 157 75 134Q75 103 100 81T169 58Q207 58 242 79T300 130T323 189Q323 220 291
241T179 257Q148 256 135 265T121 287Q121 304 138 319T178 334Q234 334 268 349T321 386Q344 413 344 434Q344 454 324 464T278 474Q250 474 224 464T186 435Q184 430 177 430Q173 430 169 434T169 445Q183 470 213 482T274 494Q309 494 337 479T365 435Q365 422
359 407T337 374Q314 346 276 330T178 314Q166 314 154 305T142 288Q142 283 150 280T178 277Q184 277 190 277T201 278Q278 278 310 252T343 191Q343 157 318 122T254 62T168 38Z" />
<glyph unicode="4" glyph-name="four" horiz-adv-x="497" d="M193 -7Q174 -7 160 3T145 34Q145 46 151 61Q154 69 168 101T202 176Q205 182 210 182Q215 182 218 178T220 168L170 54Q165 42 165 35Q165 23 173 18T191 12Q203 12 214 18T230 35Q234 45 246 73T275
140T312 221T348 303T379 370T397 408Q405 422 417 433T440 455L444 459Q455 473 455 486Q455 501 442 509T413 518Q398 518 387 509Q380 502 363 489T323 459Q300 442 274 423T219 382Q182 355 148 329T87 282T51 252Q40 241 35 231T30 213Q30 190 58 190H188Q198
190 198 180Q198 170 188 170H58Q32 170 21 181T10 208Q10 223 17 238T37 266Q48 277 74 298T135 345T207 398Q235 419 262 438T311 475Q333 492 349 504T373 524Q381 532 391 535T411 538Q436 538 456 521T477 482Q477 461 457 444L453 440Q443 430 433 421T415
398Q410 389 397 361T366 295T330 214T294 133T265 66T248 27Q242 10 226 2T193 -7ZM132 245Q122 245 122 255Q122 265 132 265H212Q235 265 242 271T257 294L280 344Q289 364 298 382T312 406Q315 410 320 410Q325 410 329 405T328 394Q325 390 317 373T299 336T282
301T275 286Q265 264 253 255T212 245H132ZM329 170Q319 170 319 180Q319 190 329 190H411Q418 190 429 203T441 228Q441 235 435 240T413 245H374Q364 245 364 255Q364 265 374 265H413Q439 265 450 255T461 229Q461 209 446 190T411 170H329Z" />
<glyph unicode="5" glyph-name="five" horiz-adv-x="443" d="M117 39Q88 39 68 55T48 111Q48 119 49 129T52 149Q53 157 62 157Q67 157 70 154T72 145Q71 136 70 128T68 113Q68 82 82 70T118 57Q142 57 170 68T223 97T263 130Q280 149 289 170T298 211Q298 240
278 259T213 279Q195 279 174 276T133 266Q119 261 108 259T88 257Q66 257 58 269T49 300Q49 324 59 355T84 418T112 474T131 510Q146 539 179 545T251 551H377Q405 550 416 538T428 510Q428 489 412 470T371 451Q357 451 342 452T312 453Q293 453 275 453T237
452H230Q223 452 216 451T203 444Q194 437 184 420T159 368Q156 362 150 362Q146 362 143 366T141 376Q147 391 156 412T180 450T215 471Q220 472 225 472T237 472H303Q321 472 338 472T371 471Q385 471 397 483T409 509Q409 517 402 523T376 531H251Q209 531 184
526T149 500Q128 460 106 418T72 330Q70 321 69 314T67 300Q67 276 89 276Q103 276 127 285Q150 293 172 296T215 299Q271 299 294 274T317 214Q317 161 277 116Q258 95 231 78T174 50T117 39ZM107 -21Q37 -21 9 9T-20 84Q-20 98 -18 111T-12 139Q-9 147 -2 147Q3
147 6 144T7 134Q-1 105 -1 84Q-1 47 23 23T107 -1Q164 -1 210 20T291 75T343 148T362 225Q362 271 331 303T228 335Q208 335 184 332T133 322H131Q121 322 121 332Q121 340 129 342Q158 350 183 353T230 356Q310 356 346 318T382 226Q382 185 363 142T307 62T221
2T107 -21Z" />
<glyph unicode="6" glyph-name="six" horiz-adv-x="466" d="M168 -21Q101 -21 62 1T7 58T-10 136Q-10 200 16 262T85 378T177 473T271 538T349 562Q368 562 380 553T393 520Q393 504 383 492T349 477Q313 473 276 450T203 390T141 311T97 226T80 147Q80 108 103
83T179 58Q217 58 252 79T310 130T333 189Q333 220 301 238T189 257H188Q179 257 179 267Q179 277 188 277Q194 277 200 277T211 278Q288 278 320 252T353 191Q353 157 328 122T264 62T178 38Q114 38 87 69T60 147Q60 171 66 197T84 250Q102 292 131 334T197 412T272
470T347 497Q361 499 367 505T374 520Q374 529 368 536T353 543Q323 543 280 521T190 458T102 367T36 256T10 136Q10 100 24 69T72 18T168 -1Q240 -1 292 29T373 105T402 196Q402 231 384 260T326 306T225 321Q215 321 215 331Q215 341 225 341Q294 343 337 323T400
270T421 196Q421 158 404 120T353 50T274 -1T168 -21Z" />
<glyph unicode="7" glyph-name="seven" horiz-adv-x="447" d="M97 380Q73 393 62 412T50 453Q50 482 71 508T131 541Q146 544 173 544Q194 544 219 543T272 540Q317 537 363 535T445 531Q470 531 481 519T492 493Q492 477 480 463T444 447Q420 447 376 450T283
457Q255 459 228 460T177 461Q145 461 125 458H123Q113 458 113 468Q113 477 121 478Q142 481 174 481Q199 481 227 480T285 476Q332 473 375 470T443 467Q456 467 464 475T472 492Q472 500 466 505T444 511Q409 512 363 515T271 520Q243 522 218 523T172 524Q160
524 151 524T135 522Q104 516 87 497T70 454Q70 438 79 423T106 398Q112 395 112 389Q112 384 108 381T97 380ZM135 -23Q119 -23 105 -12T91 21Q91 30 96 45Q124 122 158 186T235 308T332 426Q335 429 339 429Q345 429 348 424T347 412Q294 354 252 297T175 178T114
39Q111 30 111 22Q111 9 119 3T135 -4Q150 -4 153 8Q180 89 216 155T291 273T364 364T423 426Q426 429 430 429Q435 429 438 424T437 412Q414 388 380 351T307 262T234 146T171 2Q167 -11 157 -17T135 -23Z" />
<glyph unicode="8" glyph-name="eight" horiz-adv-x="496" d="M389 319Q379 319 379 330Q379 336 384 338Q410 353 425 380T441 435Q441 472 409 501T299 531Q231 531 191 511T133 462T116 403Q116 387 121 373T133 349Q135 347 135 343Q135 333 124 333Q120 333
117 337Q96 364 96 402Q96 436 116 470T181 528T299 551Q359 551 394 535T445 494T461 439Q461 404 442 371T394 320Q392 319 389 319ZM180 -21Q116 -21 76 1T18 58T0 133Q0 179 21 223T80 297T166 326Q176 326 176 316Q176 306 166 306Q125 306 92 280T39 215T20
133Q20 98 36 68T87 18T180 -1Q256 -1 310 28T393 102T422 190Q422 234 391 267T293 304Q233 309 201 340T169 407Q169 439 196 464T280 494Q333 498 358 475T383 423Q383 398 366 374T314 338Q313 338 313 338T311 337Q307 337 304 340T301 348Q301 355 308 358Q336
367 350 384T364 420Q364 443 344 460T282 474Q234 470 212 450T189 406Q189 378 217 353T295 324Q371 319 406 280T441 190Q441 154 424 117T373 48T291 -2T180 -21ZM190 40Q136 40 109 73T82 147Q82 185 105 219T176 267Q177 267 177 267T179 268Q184 268 186
265T189 257Q189 250 182 247Q140 236 121 209T101 152Q101 117 125 89T190 60Q230 60 262 79T315 128T335 184Q335 210 314 230T242 253Q233 253 233 263Q233 267 236 270T244 273Q303 270 329 245T355 186Q355 153 334 120T275 63T190 40Z" />
<glyph unicode="9" glyph-name="nine" horiz-adv-x="482" d="M107 -30Q59 -30 53 17Q51 40 66 56T107 75Q141 78 178 100T248 158T309 234T352 317T368 392Q368 428 347 451T277 474Q242 474 209 456T154 410T133 356Q133 328 163 310T266 295Q279 295 279 286Q279
275 268 275Q261 275 255 275T244 274Q172 274 142 296T112 349Q112 373 126 398T165 445T218 480T278 494Q337 494 362 467T388 399Q388 358 371 312T326 223T261 143T186 83T109 55Q70 50 73 19Q75 3 83 -3T108 -10Q141 -10 186 12T278 75T366 168T432 281T457
406Q457 478 414 515T288 553Q232 553 187 535T111 486T63 419T46 347Q46 310 65 278T126 228T232 211Q245 211 245 202Q245 191 232 191Q160 189 114 210T47 267T25 345Q25 385 43 425T95 498T178 552T288 573Q379 573 428 530T477 406Q477 346 453 284T388 166T298
66T199 -4T107 -30Z" />
<glyph unicode=":" glyph-name="colon" horiz-adv-x="210" d="M86 163Q67 179 67 201Q67 221 80 234T113 248Q133 248 146 235T160 201Q160 182 147 169Q144 166 140 166Q135 166 132 171T133 183Q140 192 140 201Q140 212 133 220T114 228Q103 228 95 220T87
201Q87 186 98 180Q102 177 102 172Q102 167 97 163T86 163ZM35 0Q16 16 16 38Q16 58 29 71T62 84Q82 84 95 71T109 38Q109 19 96 6Q93 3 89 3Q84 3 81 8T82 20Q89 29 89 38Q89 49 82 56T63 64Q52 64 44 57T36 38Q36 23 47 17Q51 14 51 9Q51 4 46 0T35 0Z" />
<glyph unicode=";" glyph-name="semicolon" horiz-adv-x="210" d="M86 163Q67 179 67 201Q67 221 80 234T113 248Q133 248 146 235T160 201Q160 182 147 169Q144 166 140 166Q135 166 132 171T133 183Q140 192 140 201Q140 212 133 220T114 228Q103 228 95 220T87
201Q87 186 98 180Q102 177 102 172Q102 167 97 163T86 163ZM-21 -98Q-30 -98 -30 -88Q-30 -79 -22 -78Q13 -71 36 -50T71 -3T83 44Q83 59 77 68T58 78Q41 78 33 67T24 44Q24 35 28 29T42 24H43Q53 24 53 14Q53 4 40 4Q24 4 14 16T3 45Q3 66 20 82T58 98Q81 98
91 83T102 44Q102 18 88 -12T48 -66T-19 -98H-21Z" />
<glyph unicode="&lt;" glyph-name="less" horiz-adv-x="407" d="M219 21Q206 21 192 32T167 69Q150 113 131 155T92 241Q89 247 87 254T85 269Q85 273 105 295T157 349T227 410T299 460T359 480Q385 480 393 456Q395 452 395 449T395 442Q395 413 366 394Q326
369 289 340T214 285Q210 283 208 283Q199 283 199 293Q199 299 203 302Q241 328 278 356T355 411Q366 418 370 426T375 442Q375 460 356 460Q350 460 341 457Q326 451 298 433T236 390T173 340T124 296T105 269Q105 258 111 248T121 227Q138 189 155 151T186 77Q194
58 203 50T220 41Q228 41 234 48T240 68Q240 77 237 86Q234 96 224 119T201 169T179 219Q178 220 178 223Q178 233 189 233Q194 233 197 227Q207 204 219 177T242 127T256 93Q261 78 261 69Q261 48 249 35T219 21Z" />
<glyph unicode="=" glyph-name="equal" horiz-adv-x="492" d="M120 231Q95 231 83 246T71 280Q71 298 83 313T120 329H236Q257 328 282 328T352 328Q374 328 387 311T401 273Q401 257 390 244T352 231Q342 231 342 241Q342 251 352 251Q364 251 372 262T381 285Q381
294 375 301T352 308Q308 308 283 308T236 309H120Q105 309 98 300T91 280Q91 269 98 260T120 251H289Q299 251 299 241Q299 231 289 231H120ZM295 67L120 68Q95 68 83 83T71 116Q71 134 83 149T120 165H352Q374 165 387 147T401 109Q401 93 390 80T352 67Q342
67 342 77Q342 87 352 87Q364 87 372 98T381 122Q381 131 375 138T352 145H120Q105 145 98 136T91 116Q91 105 98 97T120 88L295 87Q305 87 305 77Q305 67 295 67Z" />
<glyph unicode="&gt;" glyph-name="greater" horiz-adv-x="303" d="M49 0Q29 0 19 19Q14 29 14 39Q14 65 35 84Q70 116 102 150T166 217Q169 220 173 220Q178 220 181 215T180 203Q148 171 116 137T49 69Q34 56 34 40Q34 21 52 21Q60 21 70 27Q84 36 109 59T162
112T216 171T256 223T271 252Q269 263 261 273T247 291Q224 326 201 361T157 428Q138 458 120 458Q101 458 101 434Q101 421 108 410Q114 401 127 380T158 335T189 289Q191 285 191 283Q191 274 181 274Q175 274 172 278Q158 299 141 323T111 369T91 400Q81 417
81 433Q81 452 92 464T120 477Q133 477 147 468T174 438Q199 398 225 360T278 282Q287 271 290 256Q291 252 279 232T247 183T201 123T148 63T95 18T49 0Z" />
<glyph unicode="?" glyph-name="question" horiz-adv-x="295" d="M108 130Q91 130 77 142T64 177Q68 215 90 247T142 307T200 355Q213 366 222 373T235 386Q258 413 258 434Q258 454 239 464T194 474Q168 474 141 464T99 434Q83 413 60 413Q42 413 28 424T14 454Q14
464 19 475T36 497Q71 529 113 539T190 551Q249 555 285 540T337 499T354 442Q354 403 332 365T272 303Q234 280 215 264T179 222Q176 217 171 217Q166 217 162 222T162 233Q179 262 201 279T262 321Q297 342 316 374T335 437Q335 477 301 506T192 531Q158 529
119 520T50 483Q34 467 34 454Q34 445 41 439T59 433Q65 433 72 436T83 446Q101 471 131 482T190 494Q225 494 252 479T279 435Q279 422 273 407T251 374Q236 356 207 334T158 295Q130 269 109 239T84 176Q83 164 91 157T107 149Q123 149 123 168Q123 178 133 178Q143
178 143 168Q143 149 133 140T108 130ZM45 0Q26 16 26 38Q26 58 39 71T72 84Q92 84 105 71T119 38Q119 19 106 6Q103 3 99 3Q94 3 91 8T92 20Q99 29 99 38Q99 49 92 56T73 64Q62 64 54 57T46 38Q46 23 57 17Q61 14 61 9Q61 4 56 0T45 0Z" />
<glyph unicode="@" glyph-name="at" horiz-adv-x="658" d="M279 -164Q203 -164 143 -130T49 -36T15 96Q15 117 18 139Q27 201 60 259T143 364T253 437T375 464Q429 464 476 445T558 394T614 322T634 238Q634 204 620 171T574 107Q571 104 567 104Q556 104 556
114Q556 118 560 122Q587 148 599 177T612 238Q612 290 582 337T498 414T375 444Q317 444 261 419T157 349T78 250T38 136Q35 117 35 96Q35 28 66 -26T153 -112T279 -144Q341 -144 399 -119T503 -50T575 50Q578 56 584 56Q589 56 592 52T593 42Q565 -18 517 -64T407
-137T279 -164ZM287 -106Q226 -106 178 -78T103 -3T75 105Q75 113 75 121T77 139Q84 189 111 236T179 322T268 383T367 406Q417 406 463 383T540 322T570 238Q570 216 562 194T536 149Q522 132 497 109T445 68T396 50Q383 50 374 59T365 88Q365 100 375 122T401
169T430 216T452 250Q457 256 457 265Q457 277 445 277Q437 277 426 270T402 245Q391 229 372 197T329 131T281 74T235 50Q215 50 209 66T202 92Q202 112 215 138T250 191T296 234T343 251Q354 251 354 240Q354 231 343 231Q326 231 306 216T266 179T235 133T222
92Q222 70 235 70Q248 70 265 85T300 125T335 176T365 224T386 256Q401 278 416 287T445 296Q459 296 468 287T477 264Q477 251 469 239Q463 229 449 208T421 163T396 118T385 88Q385 70 395 70Q414 70 439 87T487 126T521 162Q536 180 542 199T549 237Q549 276
524 310T457 365T367 386Q321 386 276 365T192 308T129 228T96 136Q95 128 95 121T94 105Q94 51 119 8T187 -60T287 -86Q355 -86 415 -49T510 47Q513 52 518 52Q523 52 527 47T527 36Q490 -26 426 -66T287 -106ZM177 145Q172 145 169 150T169 161Q186 186 211 215T269
266T337 288Q354 288 371 281Q377 278 377 272Q377 268 373 265T363 263L355 266Q345 268 337 268Q307 268 279 249T227 203T185 150Q182 145 177 145ZM371 1Q335 1 320 20T304 63Q304 82 314 100Q317 105 322 105Q327 105 331 101T331 90Q324 76 324 63Q324 47
335 34T371 21Q400 21 425 33T475 64Q477 66 481 66Q491 66 491 56Q491 51 487 48Q462 29 434 15T371 1ZM224 2Q198 2 178 19T159 73Q159 83 169 83Q173 83 176 80T179 72Q178 46 191 34T224 22Q239 22 254 29T278 49Q281 54 286 54Q291 54 295 49T295 38Q282 20
263 11T224 2Z" />
<glyph unicode="A" glyph-name="A" horiz-adv-x="1166" d="M398 514Q382 514 378 528T375 554Q384 598 422 629T519 681T648 711T791 721Q801 721 835 721T916 717T1014 708T1108 689T1179 659T1207 613Q1207 602 1203 593Q1200 587 1194 587Q1190 587 1187 591T1185
601Q1187 604 1187 607T1187 613Q1187 634 1161 648T1093 672T1003 688T910 696T833 700T791 701Q716 701 648 691T526 662T438 615T395 550Q395 549 395 547T394 543Q394 534 398 534Q405 534 413 542T426 555Q475 605 532 627T649 656T766 662Q849 662 902 657T987
644T1039 630Q1046 627 1046 621Q1046 616 1042 613T1033 610Q1014 616 983 623T900 636T766 642Q702 642 645 635T535 605T433 533Q426 526 418 520T398 514ZM186 -34Q149 -34 108 -26T30 1T-30 50T-53 126Q-53 179 -28 224T41 305T140 366T255 405T374 419Q393
419 425 416T492 405T560 384T612 349T632 299Q632 295 632 292T630 283Q629 276 622 265T600 254Q590 254 577 267T556 288Q519 322 476 337T380 353Q302 353 239 333T129 281T59 211T34 139Q34 98 74 69T201 39Q260 39 326 63T458 127T585 213T694 301Q709 314
739 338T809 394T891 459T973 523T1044 578T1090 614Q1092 616 1096 616Q1106 616 1106 605Q1106 601 1102 598Q1087 586 1057 562T987 508T905 444T823 379T753 324T707 286Q659 244 598 198T469 111T333 45T201 19Q159 19 116 29T45 67T16 142Q16 150 17 158T20
176Q30 224 68 261T161 323T273 360T380 373Q447 373 494 352T586 286Q589 284 593 280T601 274Q607 274 610 288Q611 291 611 294T611 300Q611 324 592 341T542 369T479 386T418 396T374 399Q304 399 233 380T101 324T5 237T-32 127Q-32 90 -13 63T39 19T109 -6T186
-14Q250 -14 314 5T441 57T557 126T654 201Q654 201 656 202T660 203H836Q846 203 846 193Q846 183 836 183H664Q621 146 566 108T448 38T319 -14T186 -34ZM964 70Q932 70 919 85T906 124Q906 151 917 182T943 240T965 280Q985 314 1016 360T1082 454T1149 542Q1152
546 1157 546Q1162 546 1166 541T1165 530Q1160 524 1141 499T1094 438T1038 358T984 271T942 190T926 127Q926 90 964 90Q992 90 1027 103T1098 142T1158 199Q1161 203 1166 203Q1171 203 1174 197T1173 186Q1148 153 1111 127T1036 85T964 70ZM776 232Q762 232
748 232T717 233Q707 233 707 243Q707 253 717 253Q730 253 744 253T772 252Q787 252 802 253T833 258Q853 263 869 274T902 309Q936 355 970 399T1032 477T1078 527Q1081 530 1085 530Q1090 530 1093 524T1091 513Q1075 497 1047 464T986 387T918 297Q887 254
852 243T776 232ZM765 277Q755 277 755 287Q755 292 759 295Q782 314 820 345T899 412T975 477Q977 479 981 479Q992 479 992 468Q992 465 988 461Q954 432 913 397T833 331T771 279Q769 277 765 277ZM922 -5Q901 -5 875 4T829 34T809 91Q809 102 811 113T817 137Q820
144 826 144Q831 144 834 141T836 131Q829 110 829 92Q829 63 844 46T881 22T922 15Q959 15 997 32T1070 72Q1074 74 1075 74Q1080 74 1082 71T1085 63Q1085 58 1081 55Q1045 32 1004 14T922 -5Z" />
<glyph unicode="B" glyph-name="B" horiz-adv-x="1220" d="M917 370Q906 370 906 380Q906 390 916 390Q967 392 1010 414T1080 471T1107 539Q1107 568 1085 592T1014 632T883 647Q843 647 792 642T687 623T587 588T507 533Q500 526 492 520T472 514Q460 514 454
522T448 543Q448 568 463 591T504 634T556 667Q620 698 705 711T875 725Q947 725 1009 717T1112 692Q1156 674 1186 642T1216 556Q1216 517 1201 482T1159 420T1101 382Q1100 381 1097 381Q1088 381 1088 391Q1088 397 1094 400Q1139 417 1168 461T1197 555Q1197
599 1173 627T1111 671T1028 694T943 703T873 705Q788 705 706 692T565 650Q526 631 497 601T468 544Q468 534 475 534Q480 534 488 542T500 555Q535 591 598 616T736 654T882 667Q971 667 1025 649T1103 603T1127 540Q1127 500 1099 462T1023 398T917 370ZM260
-34Q223 -34 181 -26T103 1T44 50T21 126Q21 185 52 238T135 331T249 395T374 419Q398 419 435 413T511 394T575 358T604 304Q605 294 591 281T564 268Q555 268 552 278Q549 291 521 308T450 339T362 353Q313 353 268 333T187 282T130 213T109 141Q109 98 147 69T275
39Q322 39 373 59T475 114T574 190T663 278T735 363Q753 386 777 418T828 485T878 551T916 604Q919 609 925 609Q930 609 933 605T932 594Q917 572 894 540T845 474T794 407T751 351Q720 311 678 266T587 177T485 98T379 41T275 19Q233 19 191 29T119 66T90 141Q90
189 115 231T182 305T270 355T362 373Q404 373 448 361T525 329T568 289Q579 295 584 304Q582 330 557 348T496 378T428 394T374 399Q316 399 257 377T150 317T72 230T42 127Q42 90 61 63T113 19T183 -6T260 -14Q342 -14 419 16T566 94T694 201T794 315Q796 315
800 319Q841 330 891 330Q920 330 948 326T1002 314Q1039 301 1064 278T1090 217Q1090 195 1078 168Q1059 126 1025 99T949 57T864 43Q822 43 784 56T720 95Q717 98 717 102Q717 107 723 110T734 109Q760 83 791 72T855 60Q895 60 933 74T1003 111T1052 161T1071
216Q1071 240 1054 261T996 295Q973 303 946 307T893 311Q846 311 808 300Q766 244 707 185T577 77T425 -3T260 -34ZM857 379Q852 379 848 383T848 394Q861 415 882 448T929 519T977 592Q980 597 985 597Q990 597 994 592T994 581Q972 547 947 509T900 438T865
384Q863 379 857 379ZM885 -10Q818 -10 756 10T657 68Q654 71 654 75Q654 80 660 83T671 82Q706 48 763 29T883 10Q941 10 996 27T1093 81T1151 174Q1158 196 1158 219Q1158 272 1119 302T1009 341Q1000 343 1000 351Q1000 363 1012 361Q1085 352 1131 317T1178
220Q1178 208 1176 195T1170 168Q1152 106 1108 67T1006 9T885 -10Z" />
<glyph unicode="C" glyph-name="C" horiz-adv-x="720" d="M242 -29Q173 -29 120 -1T38 78T8 201Q8 286 44 365T142 512T281 629T442 708T605 736Q682 736 731 716T803 662T826 590Q826 553 807 516T752 449T664 400T550 381Q526 381 494 386T431 403T380 437T359
491V492Q359 502 369 502Q379 502 379 493Q383 459 411 439T478 410T550 401Q627 401 684 430T773 502T805 590Q805 624 785 652T720 698T605 716Q529 716 448 689T292 612T158 498T63 358T28 201Q28 104 86 48T242 -9Q304 -9 364 10T474 68T551 164Q554 170 558
182T567 206T571 222Q571 227 571 228T570 230Q568 232 562 232Q547 232 539 221T526 194T512 166Q487 132 444 101T351 49T258 29Q178 29 133 76T87 203Q87 271 119 340T204 471T325 581T462 658T598 686Q695 686 736 657T778 587Q778 559 761 531T714 478T643
439T558 424Q542 424 515 430T461 447T414 475T395 514V516Q395 525 405 525Q414 525 415 517Q418 502 434 489T473 466T519 450T558 444Q611 444 656 466T730 521T758 586Q758 618 722 642T598 666Q536 666 468 639T336 565T220 459T138 333T107 203Q107 133 147
91T258 49Q288 49 325 61T400 95T466 144T507 199Q516 219 525 235T562 252Q591 252 591 222Q591 215 587 201T577 174T569 155Q540 94 488 53T371 -8T242 -29Z" />
<glyph unicode="D" glyph-name="D" horiz-adv-x="1159" d="M685 -8Q635 -8 588 7T501 57Q497 60 497 65Q497 70 503 74T514 73Q551 42 595 28T685 13Q755 13 826 40T958 116T1063 225T1121 355Q1130 397 1130 433Q1130 507 1098 561T1007 649T874 700T712 717Q576
717 467 690T274 617T135 516T51 405T23 299Q23 243 61 206T178 169Q240 169 310 203T439 303Q454 320 473 347T509 405T538 466T549 521Q549 539 541 552Q539 554 534 554Q525 554 522 551Q525 544 525 534Q525 509 511 470T472 389T419 314Q389 280 349 255T267
216T187 202Q128 202 97 229T65 300Q65 314 68 329Q80 387 127 448T254 562T447 647T704 680Q776 680 840 665T955 619T1033 540T1062 424Q1062 408 1060 390T1054 353Q1042 298 1007 246T919 150T806 82T682 56Q647 56 613 65T546 95Q541 98 541 103Q541 108 546
111T557 111Q586 93 617 85T681 76Q740 76 798 100T905 164T989 254T1035 357Q1039 375 1040 391T1042 423Q1042 505 997 557T875 635T704 660Q562 660 452 629T265 546T143 437T87 325Q86 319 86 313T85 302Q85 267 110 245T187 222Q222 222 261 235T337 271T404
328Q434 362 456 402T491 478T504 533Q504 540 503 543Q502 545 502 547T501 551Q501 562 511 568T533 574Q550 574 558 563Q569 546 569 522Q569 494 557 460T526 393T488 333T454 290Q393 222 319 186T178 149Q90 149 47 191T3 297Q3 349 32 409T118 527T260
632T459 708T712 737Q799 737 877 720T1017 666T1114 572T1150 433Q1150 395 1141 351Q1126 281 1081 217T972 102T834 22T685 -8ZM114 -34Q98 -34 92 -28T86 -12Q86 4 100 21T129 39Q188 39 251 68T377 145T494 250T589 363Q606 387 631 419T682 485T732 551T770
604Q773 609 779 609Q784 609 787 605T787 594Q772 572 749 540T699 474T647 407T605 351Q565 296 510 238T390 130T259 50T129 19Q126 19 116 9T105 -8Q105 -14 114 -14Q223 -14 324 36T519 177T703 395Q717 415 738 448T785 519T832 592Q835 597 840 597Q845
597 849 592T848 581Q826 547 801 509T755 437T719 383Q630 257 534 164T333 18T114 -34Z" />
<glyph unicode="E" glyph-name="E" horiz-adv-x="733" d="M13 390Q7 390 4 396Q-24 451 -24 507Q-24 558 -3 604T55 687T140 744T244 765Q295 765 338 751T423 719T509 686T605 672Q640 672 664 678T701 694Q710 700 719 702T735 705Q750 705 759 696T768 674Q768
663 761 652T738 631Q706 612 669 604T594 595Q531 595 473 615Q433 628 396 643T322 670T240 682Q234 682 228 682T215 681Q170 677 135 652T80 589T60 503Q60 459 79 415Q80 414 81 412T82 407Q82 397 71 397Q66 397 63 403Q41 453 41 503Q41 554 62 597T123
669T213 701Q221 702 227 702T241 702Q288 702 328 690T406 662T483 633T567 616Q573 616 579 616T591 615Q633 615 668 624T728 648Q748 659 748 674Q748 685 735 685Q724 685 712 677Q691 664 664 658T608 652Q576 652 544 658T485 673Q444 687 406 704T330 733T246
745Q194 745 149 726T69 673T16 597T-4 507Q-4 454 22 405Q23 403 23 400Q23 390 13 390ZM146 303Q109 303 92 317T75 348Q75 366 92 381T144 397Q169 397 192 395T239 388Q254 405 282 436T341 500T401 561T446 598Q457 604 468 604Q485 604 500 592T515 565Q515
551 501 540Q485 528 471 514T441 482Q425 465 406 445T360 399Q357 396 353 396Q347 396 344 402T346 413Q381 446 417 487T488 556Q494 561 494 566Q494 574 486 579T467 584Q461 584 456 581Q440 572 412 545T352 483T293 419T250 371Q247 368 241 368Q218 371
194 374T144 377Q121 377 108 368T95 348Q95 338 107 331T146 323Q156 323 156 313Q156 303 146 303ZM164 -9Q96 -9 69 13T42 69Q42 97 55 129T87 193T128 253T164 300Q167 304 171 304Q176 304 180 299T179 288Q161 266 141 237T102 178T72 119T60 69Q60 35 92
23T164 11Q201 11 249 14T349 24T452 41T544 67Q553 70 563 82T570 105Q570 105 569 105T565 106Q560 106 549 102Q532 95 492 86T402 69T304 55T223 49Q180 49 163 64T146 102Q146 128 160 159T196 220T235 274T263 308Q266 311 271 311H308Q341 311 387 312T485
316T581 325T657 340Q663 342 675 349T696 366T704 386H700Q698 386 695 386T685 383Q654 372 607 367T506 361T403 359H315Q305 359 305 369Q305 379 315 379H404Q452 379 504 380T602 387T678 402Q690 406 700 406Q724 406 724 384Q724 368 709 349T663 321Q632
311 585 305T487 296T388 292T308 291H276Q253 265 228 231T184 163T166 101Q166 87 174 80T199 70Q204 69 210 69T223 68Q254 68 301 73T397 87T486 105T542 120Q557 126 567 126Q580 126 585 119T591 102Q591 88 581 72T551 49Q508 34 457 23T352 5T251 -5T164
-9Z" />
<glyph unicode="F" glyph-name="F" horiz-adv-x="990" d="M812 395Q807 395 804 400T804 411Q813 423 830 445T868 495T908 546T939 586T952 602Q957 609 965 605T985 593T1009 583Q1011 583 1012 583T1015 582Q1033 582 1038 602Q1043 619 1027 634T987 662T939
682T906 693Q842 713 763 724T615 735Q583 735 538 733T442 725T342 705T255 669Q217 647 188 614T159 540Q159 519 164 510T174 500Q185 500 185 520Q185 558 210 590T262 639Q313 673 397 689T573 705Q637 705 699 698T813 675T900 637Q905 635 905 629Q905 624
901 621T890 621Q857 642 807 656T696 678T574 686Q485 686 404 671T274 623Q249 606 227 578T205 520Q205 501 196 491T174 480Q161 480 150 494T139 540Q139 572 154 600T194 650T245 687Q285 710 335 723T438 744T537 753T615 755Q654 755 709 750T822 734T934
706T1021 665Q1037 654 1048 640T1059 609Q1059 606 1059 603T1057 597Q1052 578 1041 570T1016 562Q1003 562 988 568T961 582Q952 570 933 546T891 492T849 438T820 399Q817 395 812 395ZM647 294Q632 295 608 296T558 300T509 308T474 322Q458 334 458 363Q458
378 465 390T491 404Q497 405 503 405T514 405Q560 405 604 393T693 376Q725 416 759 459T823 539T866 594Q869 598 874 598Q879 598 883 593T882 582Q867 563 837 526T772 444T706 360Q703 357 693 357Q680 357 660 361T623 369T603 374Q575 379 547 382T493 384Q486
383 482 375T478 358Q478 343 486 338Q495 331 517 327T564 321T613 317T649 314Q658 314 658 304Q658 300 655 297T647 294ZM205 -22Q179 -22 150 -16T94 3T51 38T34 92Q34 139 61 178T133 245T231 288T337 303Q354 303 386 299T450 285T503 256Q514 246 518 236T522
216Q522 199 511 187T482 174Q463 174 445 191Q432 203 405 218T334 233Q274 233 228 214T156 166T130 111Q130 88 154 72T231 55Q278 55 344 81T479 157T608 278Q611 282 616 282Q621 282 625 277T624 266Q564 193 492 142T351 63T231 35Q168 35 139 57T110 110Q110
142 137 175T215 230T334 253Q382 253 413 236T459 205Q473 193 483 193Q491 193 496 199T501 214Q501 234 482 247T435 268T380 279T337 283Q288 283 239 269T148 230T81 170T55 94Q55 60 77 39T134 8T205 -2Q283 -2 352 21T479 80T584 157T664 232Q696 267 711
289T733 311Q748 311 782 311T859 313T941 322T1006 340Q1012 343 1022 350T1039 368T1044 387H1042Q1041 387 1038 387T1030 384Q991 365 949 360T863 354Q844 354 826 354T789 355Q779 355 779 365Q779 375 789 375Q807 375 825 375T863 374Q904 374 944 379T1021
402Q1033 408 1042 408Q1064 408 1064 384Q1064 370 1052 352T1014 322Q988 310 949 304T867 295T790 292T738 291Q663 195 588 134T443 39T313 -8T205 -22Z" />
<glyph unicode="G" glyph-name="G" horiz-adv-x="733" d="M242 -29Q173 -29 120 -1T38 78T8 201Q8 286 44 365T142 512T281 629T442 708T605 736Q682 736 731 716T803 662T826 590Q826 553 807 516T752 449T664 400T550 381Q526 381 494 386T431 403T380 437T359
491V492Q359 502 369 502Q379 502 379 493Q383 459 411 439T478 410T550 401Q627 401 684 430T773 502T805 590Q805 624 785 652T720 698T605 716Q529 716 448 689T292 612T158 498T63 358T28 201Q28 104 86 48T242 -9Q310 -9 376 14T492 84Q495 87 499 87Q510
87 510 76Q510 73 506 69Q454 20 384 -4T242 -29ZM188 -288Q140 -288 106 -265T71 -184Q71 -150 81 -136T104 -122Q118 -122 132 -136T152 -171Q158 -192 170 -200T199 -209Q219 -209 241 -199T286 -175T327 -147T354 -125Q399 -86 443 -38T528 59T600 152T651
223Q654 228 659 228Q664 228 668 223T668 212Q643 175 607 126T527 25T436 -75T342 -161T251 -217Q238 -222 225 -225T197 -229Q176 -229 159 -218T133 -177Q123 -142 109 -142Q102 -142 97 -154T91 -186Q91 -230 118 -249T186 -268Q233 -268 286 -248T379 -197Q424
-162 471 -112T563 -5T648 111T720 223T771 319Q778 334 780 345T783 364Q783 374 780 379T774 386Q770 389 763 389Q747 389 734 373Q702 336 661 291T571 199T471 115T365 53T258 29Q178 29 133 76T87 203Q87 271 119 340T204 471T325 581T462 658T598 686Q695
686 736 657T778 587Q778 559 761 531T714 478T643 439T558 424Q542 424 515 430T461 447T414 475T395 514V516Q395 525 405 525Q414 525 415 517Q418 502 434 489T473 466T519 450T558 444Q611 444 656 466T730 521T758 586Q758 618 722 642T598 666Q536 666 468
639T336 565T220 459T138 333T107 203Q107 133 147 91T258 49Q307 49 358 71T459 131T556 214T644 304T718 387Q737 409 762 409Q779 409 790 398T802 363Q802 341 789 311Q770 268 738 214T665 101T578 -17T485 -126T391 -213Q350 -246 294 -267T188 -288Z" />
<glyph unicode="H" glyph-name="H" horiz-adv-x="1222" d="M1025 70Q993 70 980 85T967 124Q967 151 978 182T1004 240T1026 280Q1048 318 1084 372T1165 484T1262 595T1364 683T1465 726Q1491 730 1491 748Q1491 757 1483 764T1459 769Q1441 766 1407 757T1335
722Q1270 678 1192 594T1032 394Q1029 390 1025 390Q1019 390 1016 395T1016 406Q1098 522 1177 607T1323 738Q1332 744 1356 756T1409 779T1464 789Q1481 789 1493 782T1510 755Q1513 739 1502 725T1467 706Q1422 700 1373 666T1275 581T1182 473T1102 363T1043
270Q1037 260 1024 235T999 181T987 127Q987 111 995 101T1025 90Q1053 90 1087 102T1155 139T1214 199Q1217 203 1221 203Q1226 203 1229 198T1230 187Q1204 150 1169 124T1096 84T1025 70ZM282 -51Q201 -58 132 -38T21 28T-21 146Q-21 206 12 254T100 337T221
390T355 409Q390 409 432 404T515 388T582 355T615 300Q617 286 611 276T593 266Q585 266 578 270Q561 279 545 289T511 309Q486 322 451 332T369 343Q317 343 263 329T165 289T93 226T65 143Q65 95 95 67T174 29T277 22Q328 27 384 61T499 149T613 268T721 399T813
525T881 626Q847 646 798 659T690 678T572 685Q484 685 403 670T274 623Q249 606 227 578T205 520Q205 501 196 491T174 480Q161 480 150 494T139 540Q139 572 154 600T194 650T245 687Q285 710 335 723T438 744T537 753T615 755Q654 755 709 750T822 734T934 706T1021
665Q1037 654 1048 640T1059 609Q1059 606 1059 603T1057 597Q1052 578 1041 570T1016 562Q1003 562 989 568T962 582Q953 567 931 533T883 459T831 383H995Q1005 383 1005 373Q1005 363 995 363H812Q805 363 803 368T804 379Q826 410 851 448T899 521T936 578T951
601Q954 605 959 605Q967 605 980 595T1009 583Q1011 583 1012 583T1015 582Q1033 582 1038 602Q1043 619 1027 634T987 662T939 682T906 693Q842 713 763 724T615 735Q583 735 538 733T442 725T342 705T255 669Q217 647 188 614T159 540Q159 519 164 510T174 500Q185
500 185 520Q185 558 210 590T262 639Q313 673 397 689T573 705Q637 705 699 698T813 675T900 637Q904 636 904 632T903 623Q875 580 833 519T739 390T629 256T511 133T391 42T278 2Q216 -3 163 10T78 56T45 142Q45 193 74 234T151 303T256 347T369 363Q427 363
475 346T572 297Q577 294 582 291T592 286Q595 286 595 291T595 297Q591 325 565 342T501 370T424 384T353 388Q287 388 224 371T110 321T29 244T-2 145Q-2 80 38 39T142 -19T280 -31Q331 -27 385 -1T492 63T592 146T677 232T739 306Q742 310 747 310Q752 310 756
305T755 294Q731 263 693 220T606 132T503 47T392 -19T282 -51ZM983 -5Q922 -5 898 24T874 97Q874 130 884 166T908 234T935 289H804Q794 289 794 299Q794 309 804 309L953 308Q961 308 963 304T961 293Q948 274 932 241T905 171T893 101Q893 64 912 40T983 15Q1020
15 1058 32T1131 72Q1135 74 1136 74Q1141 74 1143 71T1146 63Q1146 58 1142 55Q1106 32 1065 14T983 -5Z" />
<glyph unicode="I" glyph-name="I" horiz-adv-x="913" d="M245 -53Q202 -53 155 -43T69 -11T4 51T-21 147Q-21 206 11 256T96 342T214 399T341 419Q376 419 420 413T507 394T580 357T615 300Q617 286 611 276T593 266Q585 266 578 270Q561 279 545 289T511 309Q486
322 451 332T369 343Q362 343 354 343T338 342Q248 334 188 303T96 228T65 143Q65 94 108 57T240 20Q248 20 257 20T277 22Q328 27 384 61T499 149T613 268T721 399T813 525T881 626Q850 643 804 656T714 669Q643 669 605 627T566 514Q566 495 557 485T534 475Q520
475 508 490T495 539Q495 587 512 626T549 689Q581 726 634 742T747 758Q803 758 858 747T958 715T1031 668T1059 612Q1059 608 1059 605T1057 597Q1052 578 1041 571T1016 563Q1000 563 983 570T953 588Q949 591 949 595Q949 601 954 605T965 604Q974 597 988
590T1015 582Q1023 582 1029 586T1038 602Q1039 604 1039 607T1039 612Q1039 636 1013 658T944 699T848 728T744 739Q689 739 642 725T565 677Q546 655 531 619T515 539Q515 516 521 505T534 494Q546 494 546 514Q546 592 590 640T714 689Q765 689 816 673T900
638Q909 633 903 623Q875 580 833 519T739 390T629 256T511 133T391 42T278 2Q268 1 259 1T240 0Q175 0 132 19T67 71T45 142Q45 189 77 236T175 318T336 362Q344 363 353 363T369 363Q427 363 475 346T572 297Q577 294 582 291T592 286Q595 286 595 291T595 297Q591
323 569 341T515 370T447 387T380 396T328 398Q268 398 209 377T103 321T27 240T-2 146Q-2 97 20 63T78 7T158 -23T244 -33Q253 -33 262 -33T280 -31Q343 -25 421 14T584 126T757 308T926 558Q929 563 935 563Q940 563 944 559T944 548Q862 405 774 296T598 111T430
-4T282 -51Q273 -52 264 -52T245 -53Z" />
<glyph unicode="J" glyph-name="J" horiz-adv-x="808" d="M108 -248Q33 -248 -22 -217T-108 -136T-138 -29Q-138 36 -104 85T-14 169T108 221T240 239Q275 239 319 231T401 203T458 152Q461 148 458 137T448 116T429 106Q418 106 404 118Q377 142 347 151T281
160Q227 160 173 148T74 112T1 53T-26 -30Q-26 -64 -8 -94T43 -142T122 -160Q183 -160 263 -120T435 20Q563 157 671 312T881 625Q850 642 804 655T714 669Q643 669 605 627T566 514Q566 495 557 485T534 475Q520 475 508 490T495 539Q495 587 512 626T549 689Q581
726 634 742T747 758Q803 758 858 747T958 715T1031 668T1059 612Q1059 608 1059 605T1057 597Q1052 578 1041 571T1016 563Q1000 563 983 570T953 588Q949 591 949 595Q949 601 954 605T965 604Q974 597 988 590T1015 582Q1023 582 1029 586T1038 602Q1039 604
1039 607T1039 612Q1039 636 1013 658T944 699T848 728T744 739Q689 739 642 725T565 677Q546 655 531 619T515 539Q515 516 521 505T534 494Q546 494 546 514Q546 592 590 640T714 689Q765 689 816 673T900 638Q909 633 903 623Q895 611 873 577T818 492T742 380Q701
320 653 255T553 126T449 6Q354 -97 270 -138T121 -180Q70 -180 33 -159T-25 -104T-46 -30Q-46 23 -17 62T60 127T167 166T282 179Q320 179 354 170T418 133Q424 127 426 126Q430 126 434 132T439 142L440 143Q427 165 403 179T349 202T293 214T245 218Q184 218
121 202T3 155T-84 77T-118 -30Q-118 -81 -91 -126T-12 -199T108 -227Q185 -227 281 -184T486 -38Q565 37 642 133T791 339T926 558Q929 563 935 563Q940 563 944 559T944 548Q881 438 809 329T658 122T500 -52Q388 -158 288 -203T108 -248Z" />
<glyph unicode="K" glyph-name="K" horiz-adv-x="1389" d="M266 -53Q223 -53 176 -43T90 -11T25 51T0 147Q0 206 32 256T117 342T235 399T362 419Q397 419 441 413T528 394T601 357T636 300Q638 286 632 276T614 266Q606 266 599 270Q582 279 566 289T532 309Q507
322 472 332T390 343Q338 343 284 329T186 289T114 226T86 143Q86 94 129 57T261 20Q320 20 382 52T505 137T625 255T736 389T830 519T902 626Q871 643 825 656T735 669Q664 669 626 627T587 514Q587 495 578 485T555 475Q541 475 529 490T516 539Q516 587 533
626T570 689Q600 724 646 741T749 758Q810 758 879 740T1021 688Q1041 678 1049 667T1058 643Q1058 628 1048 615T1022 593T992 584Q982 584 975 588Q970 591 970 596Q970 601 975 605T986 605Q991 602 1003 606T1027 621T1038 642Q1038 649 1033 656T1013 670Q942
704 875 721T750 738Q697 738 655 723T586 677Q567 655 552 619T536 539Q536 516 542 505T555 494Q567 494 567 514Q567 592 611 640T735 689Q786 689 837 673T921 638Q930 633 924 623Q892 575 848 511T751 377T638 240T515 119T387 33T261 0Q196 0 153 19T88
71T66 142Q66 193 95 234T172 303T277 347T390 363Q448 363 496 346T593 297Q598 294 603 291T613 286Q616 286 616 291T616 297Q612 322 592 339T541 369T476 387T412 397T360 400Q306 400 247 382T135 331T51 251T19 146Q19 97 41 63T99 7T179 -23T265 -33Q338
-33 413 0T562 90T705 223T835 384T947 558Q950 563 956 563Q961 563 965 559T965 548Q913 457 851 370T718 207T572 72T419 -20T266 -53ZM1087 -91Q1023 -91 973 -69T886 -9T825 71T788 155Q784 167 784 185Q784 227 811 278T885 384T990 493T1113 594T1239 679T1354
737T1443 758Q1507 758 1556 741T1617 691Q1620 684 1620 676Q1620 658 1604 648T1570 638Q1564 638 1558 639T1547 643Q1539 648 1523 654T1489 664T1459 669Q1422 669 1370 646T1261 585T1146 500T1039 404Q980 346 940 292T895 207Q900 172 918 135T963 66T1023
14T1089 -6Q1126 -6 1168 15T1251 68T1326 135T1381 199Q1384 204 1389 204Q1394 204 1398 198T1397 187Q1374 156 1339 119T1261 49T1175 -5T1089 -26Q1050 -26 1012 -4T943 52T894 128T875 206V208Q875 243 918 300T1026 422Q1077 472 1136 519T1254 605T1367
666T1459 689Q1484 689 1503 682T1539 667T1572 659Q1576 659 1579 659T1587 661Q1604 667 1599 683Q1590 706 1549 722T1443 738Q1407 738 1356 717T1244 660T1121 576T1002 477T900 372T829 271T803 185Q803 179 804 173T807 161Q819 122 842 81T899 6T980 -50T1087
-71Q1142 -71 1185 -54T1265 -7T1338 56Q1341 59 1345 59Q1351 59 1354 53T1352 42Q1314 6 1275 -24T1190 -73T1087 -91Z" />
<glyph unicode="L" glyph-name="L" horiz-adv-x="1002" d="M210 14Q168 14 135 26Q106 37 86 58T66 103Q66 130 91 146T165 163Q218 163 272 148T373 111Q379 108 379 102Q379 98 375 94T364 93Q317 115 266 129T166 143Q118 143 102 129T86 103Q86 89 100 72T141
44Q168 34 208 34Q256 34 301 47Q347 60 391 91T475 165T549 254T610 343T652 417Q668 449 694 499T754 605T828 708T913 787T1005 818Q1022 818 1040 814T1075 798Q1104 780 1117 754T1130 696Q1130 657 1113 615T1067 533T999 463T920 416Q918 415 916 415Q906
415 906 426Q906 431 912 434Q970 456 1014 500T1083 596T1109 694Q1109 721 1099 744T1065 780Q1037 797 1006 797Q962 797 920 767T840 689T768 588T710 486T670 408Q654 377 628 334T566 244T490 152T402 75T307 28Q285 22 260 18T210 14ZM214 -40Q160 -40 111
-23T31 29T0 111Q0 160 50 192T179 224Q244 224 302 203T421 152Q427 149 427 143Q427 139 423 135T412 134Q350 165 295 184T176 204Q101 204 61 175T20 109Q20 67 49 38T122 -6T214 -21Q296 -21 367 14T499 108T611 239T703 386Q717 412 739 452T789 539T846
628T907 703T965 745Q982 752 999 752Q1040 752 1056 716Q1063 702 1063 680Q1063 659 1055 634T1029 579Q1014 555 987 532T930 492T880 476H879Q869 476 869 486Q869 496 878 496Q895 497 921 511T972 546T1011 589Q1028 618 1035 641T1043 681Q1043 696 1038
708Q1028 732 999 732Q993 732 987 731T973 727Q948 717 919 686T861 613T804 525T755 440T720 376Q677 298 625 224T509 90T373 -5T214 -40ZM725 21Q675 21 625 38T524 79Q518 82 518 88Q518 93 522 96T532 97Q582 74 630 58T725 41Q787 41 831 58T913 110T994
199Q997 203 1001 203Q1006 203 1010 197T1009 186Q967 132 927 95T840 40T725 21ZM715 -39Q651 -39 592 -16T473 38Q468 41 468 47Q468 52 472 55T483 56Q542 26 598 4T715 -19Q787 -19 845 3T952 75L989 113Q992 116 996 116Q1002 116 1005 110T1003 99Q980 77
958 55T909 15Q875 -7 828 -23T715 -39Z" />
<glyph unicode="M" glyph-name="M" horiz-adv-x="1469" d="M1055 322Q1051 322 1048 325T1045 335Q1056 382 1081 428T1141 514T1217 578Q1225 583 1229 583Q1240 583 1262 577T1321 571Q1328 571 1332 575T1336 583Q1336 598 1308 612T1231 637T1122 659T997
677T872 690T764 698T688 701Q661 701 617 699T523 688T429 663T356 620T327 552Q327 548 329 541T336 534Q342 534 348 541T358 554Q397 604 449 627T561 656T677 662Q800 662 932 648T1184 600Q1192 597 1192 590Q1192 586 1189 583T1179 580Q1061 613 930 627T677
642Q619 642 563 637T458 608T368 534Q362 527 355 521T336 514Q320 514 314 526T307 552Q307 598 336 628T411 677T510 705T609 718T688 721Q710 721 757 719T865 711T994 698T1125 679T1242 654T1325 622T1356 583Q1356 569 1345 561T1323 552Q1300 552 1277
555T1230 563Q1191 540 1157 502T1099 420T1064 330Q1062 322 1055 322ZM1286 70Q1264 70 1242 82T1220 124Q1220 149 1243 187T1306 269T1394 360T1493 448T1589 522T1667 572Q1694 586 1723 595T1785 604Q1814 604 1842 597T1898 590Q1906 590 1922 594T1939
611Q1939 625 1917 633T1865 644T1809 649T1776 650Q1668 650 1561 622T1363 532Q1277 475 1207 409T1063 271Q1035 245 1008 220T959 178T925 155Q924 154 921 154Q917 154 915 157T912 165Q912 171 918 174Q930 179 956 201T1016 254T1083 318T1144 378T1187
419Q1226 454 1267 487T1352 549Q1445 611 1555 640T1776 670Q1786 670 1807 670T1854 667T1904 658T1943 640T1959 611Q1959 588 1938 579T1898 570Q1870 570 1842 577T1785 584Q1727 584 1676 555T1578 490Q1559 476 1527 450T1457 390T1381 319T1311 245T1260
177T1240 124Q1240 107 1253 99T1286 90Q1314 90 1348 107T1413 150T1461 199Q1464 203 1468 203Q1474 203 1478 198T1477 187Q1459 163 1427 136T1357 89T1286 70ZM803 30Q791 30 779 37T767 61Q767 84 782 97T815 119Q849 138 875 176T923 262T967 357T1013 440T1067
490Q1068 491 1071 491Q1081 491 1081 480Q1081 475 1075 472Q1048 459 1026 424T982 343T938 249T888 162T824 102Q813 96 800 87T787 61Q787 50 803 50Q832 50 870 72T952 133T1047 218Q1096 265 1150 316T1260 417T1375 507T1490 574Q1526 591 1560 603T1631
615Q1641 615 1641 605Q1641 595 1631 595Q1565 590 1497 557T1362 473T1229 363T1103 245T988 138T886 60T803 30ZM273 -35Q232 -35 184 -25T91 8T19 68T-9 160Q-9 209 16 249T84 321T175 375T273 408T360 419Q404 419 453 412T545 388T615 347T642 286Q642 270
635 262T617 254Q610 254 603 259T587 272Q539 311 490 332T376 353Q346 353 307 345T228 322T153 285T97 235T76 174Q76 122 104 93T176 52T268 39Q327 39 387 63T505 127T614 213T704 301Q721 319 753 352T827 425T911 499T991 557T1054 580H1056Q1066 580 1066
570Q1066 562 1057 560Q1035 557 1000 535T923 478T842 407T769 338T719 287Q680 245 628 199T517 111T394 45T268 19Q232 19 195 26T127 50T76 98T56 174Q56 214 79 245T140 301T221 341T306 365T376 373Q445 373 497 351T599 287Q604 284 609 279T618 274Q623
274 623 286Q623 316 597 337T529 372T442 392T360 399Q322 399 275 388T182 356T97 306T35 240T11 160Q11 113 35 80T100 26T185 -5T273 -15Q332 -15 397 11T527 79T647 168T744 256Q773 285 810 322T889 399T976 474T1064 535T1148 570H1151Q1160 570 1160 560Q1160
553 1152 551Q1114 542 1072 517T985 457T900 382T822 307T758 242Q718 201 661 154T538 63T404 -7T273 -35ZM1258 1Q1233 1 1205 9T1157 37T1137 91Q1137 140 1163 191T1232 292T1325 387T1423 470T1506 534Q1508 536 1512 536Q1522 536 1522 526Q1522 521 1518
518Q1481 491 1434 454T1338 372T1249 280T1182 184T1157 91Q1157 67 1172 52T1210 29T1258 21Q1295 21 1330 35T1395 71Q1397 73 1401 73Q1411 73 1411 63Q1411 58 1407 55Q1376 31 1338 16T1258 1Z" />
<glyph unicode="N" glyph-name="N" horiz-adv-x="1188" d="M849 -39Q833 -39 826 -29T818 -4Q818 13 827 26Q832 34 839 41T852 53Q869 69 883 108T909 199T930 303T945 402T954 472Q956 481 964 481Q976 481 974 470Q970 442 964 396T948 296T927 189T900 97T865
38Q857 31 848 21T838 -3Q838 -18 850 -18Q855 -18 858 -17Q885 -10 921 19T996 92T1072 187T1137 288Q1179 361 1218 434T1310 575Q1349 626 1396 669T1498 739T1618 767Q1629 767 1635 771T1641 781Q1641 793 1623 793Q1538 795 1472 766T1353 686T1259 572T1181
442T1110 315Q1081 265 1050 223T983 155Q981 153 977 153Q967 153 967 163Q967 168 971 171Q1004 195 1033 235T1092 325Q1129 388 1166 456T1246 589T1343 704T1466 785T1623 813Q1642 813 1651 804T1661 782Q1661 769 1650 759T1618 747Q1549 746 1491 714T1384
630T1296 520T1226 408Q1204 370 1187 337T1155 278Q1127 229 1089 177T1011 79T932 2T862 -37Q858 -38 855 -38T849 -39ZM985 209Q981 209 978 212T975 221Q988 289 996 365T1012 510Q1013 520 1014 533T1015 560Q1015 584 1009 607T983 640Q968 648 953 652Q908
667 844 682T704 707T554 718Q480 718 412 704T291 657T211 565Q208 558 208 553Q208 544 218 544Q226 544 235 549T248 565Q264 602 301 625T385 662T482 680T574 685Q653 685 745 668T957 616Q964 613 964 607Q964 603 961 600T951 597Q833 631 742 648T574 665Q531
665 483 660T391 643T314 610T267 557Q260 540 247 532T219 524Q206 524 197 531T187 551Q187 561 193 573Q222 636 278 672T407 723T558 738Q641 738 721 726T869 697T976 665Q1013 652 1024 624T1035 562Q1035 535 1032 508Q1025 438 1017 362T995 217Q994 209
985 209ZM264 -35Q211 -35 162 -25T74 9T13 69T-10 160Q-10 209 15 249T83 321T174 375T273 408T360 419Q382 419 417 415T491 402T564 378T620 341T642 286Q642 279 638 267T617 254Q610 254 601 260T587 271Q538 309 490 328T376 348Q346 348 307 341T228 319T153
283T97 235T76 174Q76 127 102 98T173 57T267 44Q332 44 398 61T504 106Q572 152 625 207T724 324T814 449T910 573Q913 577 918 577Q923 577 926 572T925 561Q873 499 829 435T739 310T639 193T516 90Q490 73 449 58T358 33T259 23Q206 23 160 37T85 84T56 174Q56
214 79 245T141 299T222 337T306 360T376 368Q444 368 496 347T599 286Q603 283 607 280T617 274Q618 274 620 276T622 286Q622 312 601 331T548 364T479 384T410 395T360 399Q322 399 275 388T182 356T96 306T34 240T10 160Q10 97 47 58T143 2T271 -16Q344 -16
415 2T536 53Q606 99 662 158T767 282T862 415T960 545Q963 549 968 549Q973 549 976 544T975 533Q923 469 876 401T781 268T676 143T547 37Q515 16 469 0T371 -26T264 -35Z" />
<glyph unicode="O" glyph-name="O" horiz-adv-x="733" d="M242 -29Q173 -29 120 -1T38 78T8 201Q8 285 44 364T141 510T279 628T441 707T605 736Q684 736 734 716T807 662T831 590Q831 553 812 516T755 449T666 400T550 381Q526 381 494 386T431 403T380 437T359
491V492Q359 502 369 502Q379 502 379 493Q383 459 411 439T478 410T550 401Q629 401 687 430T778 502T811 590Q811 624 790 652T723 698T605 716Q527 716 446 689T290 612T156 497T63 357T28 201Q28 104 86 48T242 -9Q318 -9 386 18T508 94T600 206T653 343Q654
351 663 351Q668 351 671 348T673 339Q657 263 618 197T522 80T393 0T242 -29ZM250 17Q196 17 160 42T106 109T87 203Q87 270 118 338T203 468T322 580T460 657T598 686Q694 686 735 657T776 587Q776 550 747 513T668 450T558 424Q542 424 515 430T461 447T414
475T395 514V516Q395 525 405 525Q414 525 415 517Q418 502 434 489T473 466T519 450T558 444Q611 444 656 466T728 521T756 586Q756 618 720 642T598 666Q534 666 466 639T334 564T219 456T137 331T107 203Q107 131 143 84T250 37Q299 37 346 61T436 124T511 204T564
283T586 340Q588 349 596 349Q600 349 603 346T606 338Q604 316 583 277T528 194T449 109T354 43T250 17Z" />
<glyph unicode="P" glyph-name="P" horiz-adv-x="1043" d="M190 137Q138 137 93 157T21 219T-6 324Q-6 404 33 468T138 580T290 659T470 707T656 723Q743 723 821 709T961 667T1057 596T1092 497Q1092 416 1041 363T897 282T676 255Q666 255 666 265Q666 275 676
275Q867 275 969 333T1072 497Q1072 548 1039 586T947 651T815 690T657 703Q568 703 477 688T303 643T155 568T52 462T14 324Q14 270 39 233T106 176T197 156Q259 156 323 188T434 289Q453 317 467 351T490 421T499 484Q499 522 483 537H482Q479 537 474 536T467
534Q473 521 473 497Q473 470 466 435T444 365T411 302Q388 268 352 243T274 203T192 189Q137 189 98 220T58 322Q58 393 92 448T186 545T321 613T480 653T643 666Q715 666 780 656T895 624T973 573T1002 501Q1002 454 974 419T900 359T800 323T694 311Q684 311
684 321Q684 331 694 331Q746 331 797 342T890 376T957 429T982 501Q982 536 956 563T882 608T774 636T645 646Q568 646 488 634T335 596T204 533T112 442T78 322Q78 264 115 236T203 208Q253 208 306 234T394 313Q413 342 426 376T446 442T453 498Q453 520 447
529Q445 532 445 537Q445 546 456 551T479 557Q491 557 497 551Q509 541 514 524T519 484Q519 452 510 414T485 340T451 278Q420 232 377 201T285 153T190 137ZM378 0Q359 0 347 15T335 46Q335 60 345 66Q401 101 449 169T555 350Q567 373 584 407T619 477T654
547T680 603Q683 609 689 609Q694 609 697 605T698 595Q688 573 672 540T638 469T602 398T573 340Q516 229 466 158T355 49Q354 44 360 33T378 21Q383 21 389 24Q437 50 480 99T561 211T632 342T693 474T744 590Q747 596 753 596Q758 596 761 592T763 582Q739 530
711 464T649 329T576 197T493 83T399 6Q389 0 378 0Z" />
<glyph unicode="Q" glyph-name="Q" horiz-adv-x="733" d="M242 -29Q173 -29 120 -1T38 78T8 201Q8 285 44 364T141 510T279 628T441 707T605 736Q684 736 734 716T807 662T831 591Q831 554 812 517T755 449T666 400T550 381Q526 381 495 386T434 403T383 437T359
491V492Q359 502 369 502Q379 502 379 493Q383 459 411 439T478 410T550 401Q629 401 687 430T778 502T811 590Q811 624 790 652T723 698T605 716Q527 716 446 689T290 612T156 497T63 357T28 201Q28 104 86 48T242 -9Q318 -9 386 18T508 94T600 206T653 343Q654
351 663 351Q668 351 671 348T673 339Q657 263 618 197T522 80T393 0T242 -29ZM250 17Q196 17 160 42T106 109T87 203Q87 270 118 338T203 468T322 580T460 657T598 686Q694 686 735 657T776 587Q776 550 747 513T668 450T558 424Q542 424 517 430T465 447T419
475T395 514V516Q395 525 405 525Q414 525 415 517Q418 502 434 489T473 466T519 450T558 444Q611 444 656 466T728 521T756 586Q756 618 720 642T598 666Q534 666 466 639T334 564T219 456T137 331T107 203Q107 131 143 84T250 37Q299 37 346 61T436 124T511 204T564
283T586 340Q588 349 596 349Q600 349 603 346T606 338Q604 316 583 277T528 194T449 109T354 43T250 17ZM578 -283Q530 -283 480 -263T380 -216T281 -169T184 -149Q174 -149 164 -150T143 -154H140Q130 -154 130 -143Q130 -135 137 -134Q161 -128 184 -128Q235
-128 285 -148T385 -195T483 -242T578 -263Q605 -263 631 -254T682 -222Q688 -216 698 -206T717 -185T726 -166Q725 -154 711 -154Q705 -154 699 -158T686 -170Q660 -196 633 -207T577 -218Q532 -218 485 -198T389 -151T292 -104T196 -84Q186 -84 176 -85T155 -89H152Q142
-89 142 -78Q142 -70 149 -69Q172 -63 195 -63Q245 -63 295 -83T393 -130T488 -177T577 -198Q602 -198 626 -188T672 -156Q694 -134 712 -134Q729 -134 737 -143T745 -166Q745 -183 729 -202T697 -235Q669 -261 639 -272T578 -283Z" />
<glyph unicode="R" glyph-name="R" horiz-adv-x="1367" d="M934 215Q924 215 924 225Q924 235 933 235Q995 240 1053 260T1159 314T1235 391T1263 488Q1263 537 1241 570T1180 623T1094 653T998 666T903 671Q814 673 728 661T568 624T443 567T372 494Q368 485
366 480T370 475Q381 475 395 483T416 499Q448 532 501 558T619 602T755 629T893 639Q951 639 1005 631T1103 605T1171 556T1197 482Q1197 429 1165 387T1080 316T960 272T825 257H824Q815 257 815 267Q815 277 825 277Q891 280 953 295T1066 336T1146 398T1176
480Q1176 529 1139 559T1039 604T894 619Q827 619 758 610T626 584T512 541T430 485Q418 473 400 465T367 456Q346 456 346 474Q346 486 354 502Q375 547 430 583T561 643T726 680T903 691Q945 690 995 687T1097 672T1190 640T1258 582T1284 490Q1284 430 1254
380T1174 293T1061 236T935 215H934ZM281 -34Q191 -34 134 -9T49 57T22 145Q22 193 46 241T117 329T228 394T374 419Q398 419 435 413T511 394T575 358T604 304Q605 285 594 272T571 259Q556 259 552 278Q549 291 520 308T449 339T362 353Q308 353 263 335T184
288T133 225T114 157Q114 109 156 74T296 39Q355 39 416 70T535 150T645 256T735 363Q753 386 777 418T828 485T878 551T916 604Q919 609 925 609Q930 609 933 605T932 594Q917 572 894 540T845 474T794 407T751 351Q720 311 681 266T595 177T499 98T398 41T296
19Q225 19 180 38T115 88T94 156Q94 193 113 231T169 302T254 353T362 373Q395 373 430 365T495 344T546 314T571 282Q571 281 571 280T572 279Q578 281 581 289T584 302Q583 329 558 347T497 377T428 394T374 399Q299 399 238 376T132 316T65 235T41 146Q41 103
66 67T144 8T281 -14Q382 -14 467 25T625 128T759 273T875 436T977 592Q980 597 985 597Q990 597 994 592T994 581Q944 505 890 421T772 256T635 110T474 5T281 -34ZM1084 -26Q1039 -26 1000 -6T931 48T884 121T867 198V200Q867 209 877 209Q886 209 887 200Q892
165 908 129T950 63T1011 13T1084 -6Q1115 -6 1154 15T1232 68T1305 136T1359 199Q1362 204 1367 204Q1373 204 1376 199T1375 187Q1353 157 1318 121T1242 51T1160 -4T1084 -26ZM1066 -91Q1002 -91 952 -69T865 -9T804 71T767 155Q767 156 767 156T766 158Q766
168 777 168Q783 168 786 161Q798 122 821 81T878 6T959 -50T1066 -71Q1121 -71 1164 -54T1244 -7T1317 56Q1320 59 1324 59Q1330 59 1333 53T1331 42Q1293 6 1254 -24T1169 -73T1066 -91Z" />
<glyph unicode="S" glyph-name="S" horiz-adv-x="903" d="M376 -74Q276 -74 201 -47T83 25T41 116Q41 161 83 202T213 268Q230 273 250 277T289 285T315 289Q324 289 324 279Q324 271 315 269Q181 250 121 207T61 116Q61 74 101 35T212 -29T376 -54Q458 -54 539
-36T688 17T796 98T837 201Q837 240 813 279T727 354T546 418Q453 441 415 471T376 534Q376 567 408 599T490 654Q521 669 574 680T683 691Q731 691 775 681T849 645T885 574Q886 562 898 562Q906 562 915 569T926 585Q930 625 912 652T859 695T782 719T692 726Q646
726 602 721T521 706T463 686Q396 652 354 607T311 518Q311 478 352 443T486 384Q592 359 654 328T744 262T772 190Q772 148 743 115T668 58T570 17T470 -8T392 -16Q302 -16 244 3T157 53T128 116Q128 146 151 173T220 216T332 233Q342 233 342 223Q342 213 332
213Q242 213 196 184T149 116Q149 89 175 63T255 21T392 4Q424 4 470 12T565 35T656 74T725 126T752 190Q752 219 729 249T647 309T481 364Q378 389 335 429T291 514Q291 549 312 584T371 650T455 704Q478 715 515 724T597 740T690 746Q740 746 787 738T872 711T930
661T946 583Q945 566 930 554T897 542Q886 542 877 549T865 572Q860 609 833 630T765 662T679 672Q629 672 580 662T498 636Q454 614 425 588T396 535Q396 509 431 484T550 438Q669 410 735 372T829 291T857 201Q857 150 829 107T751 31T639 -26T509 -62T376 -74Z"
/>
<glyph unicode="T" glyph-name="T" horiz-adv-x="810" d="M205 -22Q179 -22 150 -16T94 3T51 38T34 92Q34 139 61 178T133 245T231 288T337 303Q354 303 386 299T450 285T503 256Q514 246 518 236T522 215Q522 196 508 183Q563 230 614 285T712 396T797 504T866
594Q869 598 874 598Q879 598 883 593T882 582Q845 535 801 477T705 358T597 239T480 135T357 62T231 35Q168 35 139 57T110 110Q110 142 137 175T215 230T334 253Q382 253 413 236T459 205Q473 193 483 193Q491 193 496 199T501 214Q501 234 482 247T435 268T380
279T337 283Q288 283 239 269T148 230T81 170T55 94Q55 60 77 39T134 8T205 -2Q250 -2 309 11T436 57T578 151T725 307Q767 361 807 413T880 508T931 576T951 602Q954 606 958 606Q966 606 983 594T1015 582Q1033 582 1038 602Q1043 619 1027 634T987 662T939 682T906
693Q842 713 763 724T615 735Q583 735 538 733T442 725T342 705T255 669Q217 647 188 614T159 540Q159 519 164 510T174 500Q185 500 185 520Q185 558 210 590T262 639Q313 673 397 689T573 705Q637 705 699 698T813 675T900 637Q905 635 905 629Q905 624 901 621T890
621Q857 642 807 656T696 678T574 686Q485 686 404 671T274 623Q249 606 227 578T205 520Q205 501 196 491T174 480Q161 480 150 494T139 540Q139 572 154 600T194 650T245 687Q285 710 335 723T438 744T537 753T615 755Q654 755 709 750T823 734T934 706T1021
665Q1037 654 1048 640T1059 609Q1059 592 1048 577T1017 562Q1003 562 988 568T961 582Q952 570 931 542T879 474T813 388T741 295Q666 198 591 136T446 40T314 -8T205 -22ZM130 111Q130 88 154 72T231 55Q301 55 370 91T507 183Q496 174 483 174Q463 174 445
191Q432 203 405 218T334 233Q274 233 228 214T156 166T130 111Z" />
<glyph unicode="U" glyph-name="U" horiz-adv-x="981" d="M431 80Q400 80 386 104T371 166Q371 207 385 254T422 350T470 439T517 508Q522 514 535 531T563 571T590 616T601 655Q601 665 596 670Q593 673 593 677Q593 682 599 685T610 684Q621 674 621 656Q621
636 610 612T584 565T554 523T533 495Q511 468 487 428T440 341T405 249T391 166Q391 140 399 120T433 100Q448 100 471 110T527 145Q589 191 641 258T739 403T823 559T899 704Q912 728 925 738T950 748Q967 748 979 731T991 695Q991 686 988 677Q985 671 979 671Q975
671 971 675T969 685Q971 689 971 694Q971 705 966 716T949 727Q942 727 934 720T916 694Q880 625 840 547T755 390T656 244T539 129Q505 104 478 92T431 80ZM27 520Q14 520 5 527T-4 548Q-4 553 -3 558T1 569Q33 639 82 677T189 731T307 747Q381 747 448 731T559
701Q566 698 566 691Q566 687 563 684T553 681Q507 696 442 711T305 726Q248 726 194 712T95 661T19 561Q16 554 16 549Q16 540 26 540Q34 540 43 545T56 561Q77 608 113 635T196 673T293 684Q358 684 421 672T532 645Q539 642 539 635Q539 631 536 628T527 625Q478
639 416 651T293 663Q222 663 163 640T75 553Q68 536 55 528T27 520ZM806 53Q783 53 768 68Q747 89 747 136Q747 177 763 234T812 362Q817 373 832 406T869 482T913 569T953 643Q956 648 961 648Q966 648 970 644T970 633Q952 603 930 560T887 474T851 398T830
354Q796 281 782 227T767 137Q767 97 782 82Q791 73 806 73Q832 73 874 101T974 200Q977 204 982 204Q987 204 990 199T989 188Q935 123 888 88T806 53ZM404 -6Q347 -6 315 36T282 154Q282 186 288 225Q291 247 308 289T354 384T416 489T489 583Q492 586 496 586Q502
586 505 581T504 569Q467 529 433 478T372 375T328 283T307 221Q301 184 301 154Q301 81 330 48T404 14Q456 14 526 56T674 185Q677 188 681 188Q687 188 690 183T689 171Q611 84 537 39T404 -6ZM769 -12Q741 -12 721 3T687 43T669 92T665 138Q667 147 675 147Q685
147 685 138Q685 134 685 131T684 124Q684 99 694 72T724 27T769 8Q810 8 859 28T967 112Q970 116 975 116Q980 116 983 110T982 99Q920 31 868 10T769 -12Z" />
<glyph unicode="V" glyph-name="V" horiz-adv-x="622" d="M237 -39Q221 -39 213 -29T205 -4Q205 13 214 26Q219 34 225 40T238 52Q265 108 284 175T312 314T322 452Q322 519 312 575T281 668Q261 704 235 721T182 738Q145 738 118 707T90 619Q90 585 103 544T146
454Q173 411 205 383T283 334Q288 331 295 328T306 319Q309 313 309 308Q309 299 303 293T293 284Q274 273 256 273Q228 273 198 291T139 335T90 389T57 435Q26 484 13 530T-1 618Q-1 681 25 729T93 805T184 833Q230 833 276 806T362 717Q391 671 402 609T414 481Q414
409 404 340T382 217Q381 209 372 209Q368 209 365 212T362 221Q375 274 384 342T394 481Q394 545 383 604T345 706Q309 762 267 787T183 813Q140 813 103 788T43 719T20 618Q20 578 33 535T74 445Q83 430 103 405T150 354T203 311T256 293Q272 293 283 300Q288
304 288 306T289 309Q282 314 265 321T237 334Q207 352 178 383T124 455T85 538T70 622Q70 652 79 679T111 728Q141 758 183 758Q214 758 245 739T299 678Q321 639 331 580T342 452Q342 383 332 310T303 167T255 41L253 38Q244 31 235 21T225 -3Q225 -23 245 -17Q272
-10 308 19T383 92T459 187T524 288Q566 361 605 434T697 575Q736 626 783 669T885 739T1005 767Q1016 767 1022 771T1028 781Q1028 793 1010 793Q925 795 859 766T740 686T646 572T568 442T497 315Q468 265 437 223T370 155Q368 153 364 153Q354 153 354 163Q354
168 358 171Q391 195 420 235T479 325Q515 388 552 456T633 589T730 704T853 785T1010 813Q1030 813 1039 803T1048 782Q1048 769 1038 759T1005 747Q936 746 878 714T771 630T683 520T613 408Q591 370 574 337T542 278Q514 229 477 177T399 79T320 2T250 -37Q246
-38 243 -38T237 -39Z" />
<glyph unicode="W" glyph-name="W" horiz-adv-x="992" d="M231 -3Q172 -3 139 39T105 145Q105 187 120 235T167 332Q192 371 221 408T275 481T317 554T333 632Q333 678 308 704T247 730Q207 730 176 705T122 638T89 549T77 457Q77 429 82 402T101 345Q103 340
105 334T108 322Q108 311 101 306T83 300Q61 300 42 317T14 360Q5 386 1 416T-4 476Q-4 543 13 605T64 716T144 793T252 822Q298 822 337 801T401 737T426 632Q426 585 420 556T400 505T367 456T319 390T255 282Q236 245 226 213T216 155Q216 134 225 118T254 102Q269
102 291 112T345 145Q412 195 460 258T547 391T624 532Q638 558 653 569T682 580Q700 580 712 566T724 534Q724 527 721 519Q718 513 712 513Q708 513 704 517T703 527Q707 536 701 547T682 559Q674 559 664 551T642 522Q603 449 564 378T475 244T357 129Q293 82
252 82Q221 82 209 105T196 156Q196 191 210 229T245 303T283 363Q315 408 343 449T389 534T407 631Q407 687 386 725T329 782T252 802Q195 802 152 775T78 702T33 597T17 477Q17 448 20 419T33 366Q44 339 57 329T82 319Q89 319 89 324Q89 329 80 347T68 376Q63
393 61 413T58 455Q58 503 70 554T106 650T165 722T247 750Q292 750 323 718T354 632Q354 590 337 551T294 474T239 399T184 322Q153 274 139 229T125 146Q125 89 153 53T231 17Q278 17 344 55T492 185Q495 188 499 188Q505 188 508 183T507 171Q425 80 355 39T231
-3ZM599 -13Q566 -13 543 2T506 42T487 91T483 138Q485 147 493 147Q503 147 503 138Q503 134 503 131T502 124Q502 99 513 72T545 26T599 7Q662 7 722 39T835 125T926 246T988 386T1011 526Q1011 592 984 648T891 738Q882 743 870 735T858 718Q858 710 868 706Q918
687 938 645T959 550Q959 491 939 426T887 297T815 181Q790 147 758 118T692 71T627 53Q595 53 580 76T565 138Q565 175 576 219T607 311T647 401T688 480Q691 485 697 485Q702 485 706 481T706 470Q687 435 666 392T626 304T597 215T585 138Q585 104 595 89T622
73Q648 71 679 86T742 130T799 193Q838 246 869 306T920 429T939 548Q939 597 921 634T860 688Q837 697 837 717Q837 733 851 747T883 761Q891 761 901 756Q972 719 1001 658T1031 525Q1031 453 1008 378T943 232T846 107T728 20T599 -13Z" />
<glyph unicode="X" glyph-name="X" horiz-adv-x="746" d="M571 60Q535 60 498 86T425 178Q400 225 380 286T344 416T317 549T298 669Q297 678 293 694T283 723T268 736Q262 736 252 731T227 706T189 646Q176 624 154 588T105 510T49 426T-6 348Q-9 344 -14 344Q-25
344 -25 354Q-25 356 -23 360Q3 395 31 437T87 520T136 598T171 656Q229 758 266 758Q285 758 295 743T310 707T318 673Q323 640 332 584T354 460T387 326T433 204T494 114T571 80Q606 80 647 107T738 199Q741 203 745 203Q756 203 756 193Q756 189 754 187Q733
159 704 130T642 80T571 60ZM430 283Q425 283 422 288T423 300Q428 306 449 330T503 388T569 462Q604 502 638 540T698 610T736 657Q747 674 747 684Q747 702 727 702Q717 702 706 696T683 677Q670 663 646 635T593 573T533 503T476 436T432 385T412 361Q409 357
404 357Q399 357 396 362T396 373Q399 377 416 397T459 448T516 515T577 585T631 648T667 690Q681 707 697 714T726 721Q743 721 755 711T767 684Q767 667 752 646Q740 629 714 597T653 527T584 449Q550 410 518 375T465 316T437 286Q434 283 430 283ZM-9 270Q-15
270 -18 276T-16 287Q51 352 101 417T183 534T231 614Q234 619 240 619Q245 619 249 615T249 604Q234 577 201 524T117 405T-2 273Q-5 270 -9 270ZM554 -5Q499 -5 455 23T377 102T318 215Q294 280 280 336T260 429T254 474Q254 483 264 483Q273 483 274 474Q288
381 311 298T369 152T450 52T554 15Q592 15 627 31T691 69Q696 73 701 73Q710 73 710 64Q710 59 704 54Q673 32 635 14T554 -5ZM70 -86Q54 -86 43 -77T31 -52Q31 -36 45 -16Q55 -2 81 28T140 94Q173 130 208 168T270 238Q273 241 277 241Q283 241 287 236T286 224Q258
193 223 155T155 80Q122 44 97 15T61 -28Q51 -42 51 -52Q51 -66 69 -66Q80 -66 94 -59T120 -39Q139 -17 168 15T226 79T278 136T304 165Q307 169 312 169Q317 169 321 164T320 153Q316 148 294 124T243 67T184 2T135 -52Q120 -70 103 -78T70 -86Z" />
<glyph unicode="Y" glyph-name="Y" horiz-adv-x="907" d="M267 -291Q226 -291 200 -276T163 -238T151 -191Q151 -171 159 -154T181 -128Q188 -124 196 -124Q221 -124 235 -171Q241 -192 253 -200T281 -209Q308 -209 339 -193T397 -156T437 -125Q478 -89 525 -33T618
85Q621 89 626 89Q631 89 635 84T634 73Q607 36 574 -6T502 -90T421 -164T333 -217Q301 -230 279 -230Q256 -230 244 -220T224 -194T212 -166T200 -146Q194 -141 188 -147T178 -163T173 -178Q170 -227 197 -249T267 -271Q313 -271 369 -249T474 -189Q558 -122 621
-25T742 183Q808 308 867 438T969 685Q972 691 969 702T960 721T945 730Q938 730 932 723T917 696Q883 605 846 515T760 340Q736 299 700 255T623 171T542 104Q516 87 490 76T441 65Q410 65 391 88T371 166Q371 207 385 254T422 350T470 439T517 508Q522 514 535
531T563 571T590 616T601 655Q601 665 596 670Q593 673 593 677Q593 688 603 688Q606 688 610 684Q621 673 621 655Q621 635 610 611T584 564T554 522T533 495Q511 468 487 428T440 341T405 249T391 166Q391 125 405 105T443 85Q460 85 482 94T531 121Q570 147
609 185T684 266T742 350Q790 434 827 523T898 703Q908 729 920 739T944 750Q962 750 976 731T991 692Q991 685 988 677Q945 562 886 431T760 173Q702 64 638 -36T486 -205Q436 -245 377 -268T267 -291ZM27 520Q14 520 5 527T-4 548Q-4 553 -3 558T1 569Q33 639
82 677T189 731T307 747Q381 747 448 731T559 701Q566 698 566 691Q566 687 563 684T553 681Q507 696 442 711T305 726Q248 726 194 712T95 661T19 561Q16 554 16 549Q16 540 26 540Q34 540 43 545T56 561Q77 608 113 635T196 673T293 684Q358 684 421 672T532
645Q539 642 539 635Q539 631 536 628T527 625Q478 639 416 651T293 663Q222 663 163 640T75 553Q68 536 55 528T27 520ZM405 -3Q351 -3 317 34T282 153Q282 203 300 261T349 378T415 490T489 583Q492 586 496 586Q502 586 505 581T504 569Q469 530 433 479T368
371T320 259T302 159Q302 88 332 52T412 16Q461 16 522 51T647 158Q650 161 654 161Q659 161 662 156T661 144Q599 74 530 36T405 -3Z" />
<glyph unicode="Z" glyph-name="Z" horiz-adv-x="764" d="M188 190Q183 190 180 196T181 207Q249 281 321 341T457 448Q523 496 575 530T656 586Q663 591 677 603T706 632T733 664T744 692Q744 703 731 709T685 712Q675 711 665 711T643 710Q598 710 553 717T462
730T371 737Q349 737 328 735T286 728Q204 709 161 658T117 549Q117 489 162 441Q165 438 165 434Q165 428 159 425T148 427Q122 454 110 485T97 549Q97 592 118 632T181 703T282 748Q304 753 325 755T368 758Q414 758 459 751T550 737T642 730Q652 730 662 730T683
732Q688 733 693 733T702 733Q730 733 747 724T764 693Q764 669 739 637T668 570Q640 549 588 515T469 432Q405 386 334 326T196 194Q193 190 188 190ZM213 439Q209 439 206 443Q155 508 155 566Q155 608 185 640T277 687Q300 692 321 694T363 697Q409 697 452
690T538 676T626 668Q634 668 643 668T660 669H661Q671 669 671 659Q671 649 662 649Q653 648 645 648T627 647Q582 647 538 654T449 669T359 677Q321 677 282 668Q228 655 202 629T175 565Q175 516 222 455Q224 453 224 449Q224 439 213 439ZM60 184Q55 184 52
189T53 201Q122 271 206 342T379 480T551 602Q555 604 557 604Q566 604 566 594Q566 588 562 585Q562 585 539 570T476 526T385 458Q336 421 281 377T171 285T67 187Q64 184 60 184ZM532 -24Q485 -24 444 -11T363 21T285 59T204 91T113 104Q76 104 50 92T23 57Q23
43 34 28T69 4Q76 1 76 -5Q76 -9 72 -12T62 -14Q36 -4 20 15T4 57Q4 86 31 104T112 123Q164 123 208 110T291 79T368 41T446 9T532 -4Q596 -4 642 21T713 88T739 176Q739 216 719 256Q718 258 718 261Q718 271 728 271Q734 271 737 266Q748 244 753 222T759 177Q759
124 731 78T652 4T532 -24ZM551 36Q503 36 462 49T382 81T305 120T224 152T131 165Q75 165 37 148T-20 107T-40 60V48Q-40 39 -50 39Q-59 39 -60 47Q-61 50 -61 53T-61 59Q-61 95 -36 123T34 168T133 185Q184 185 227 172T309 140T386 102T464 69T551 56Q615 56
647 85T680 166Q680 204 660 256Q659 257 659 260Q659 270 670 270Q675 270 678 264Q699 212 699 166Q699 108 663 72T551 36Z" />
<glyph unicode="[" glyph-name="bracketleft" horiz-adv-x="306" d="M128 -71Q110 -71 87 -65T46 -43T29 2Q29 6 29 9T30 17Q32 32 38 70T52 161T70 274T89 394T107 509T121 601Q127 636 144 665T186 711T241 729H352Q368 729 375 719T383 694Q383 681 376 670T353
659H261Q253 659 234 644T210 591Q204 550 195 492T176 370T157 242T139 125T125 39Q124 31 115 31Q111 31 108 34T105 43L190 594Q197 635 220 657T261 679H353Q363 679 363 694Q363 699 361 704T352 709H241Q207 709 178 678T140 598Q134 560 126 506T108 392T90
271T72 158T58 67T50 14Q49 11 49 8T49 3Q49 -28 74 -39T128 -51H221Q247 -51 247 -37Q247 -30 240 -24T224 -18H135Q124 -18 124 -8Q124 2 134 2H224Q244 2 255 -11T267 -38Q267 -51 256 -61T221 -71H128Z" />
<glyph unicode="\" glyph-name="backslash" horiz-adv-x="562" d="M378 9Q373 9 370 15Q355 51 329 110T270 241T204 386T141 525T90 636T63 697Q56 715 43 715Q35 715 29 708T22 688Q22 679 26 670Q37 645 59 596T109 485T169 355T229 225T281 110T316 30Q317
29 317 26Q317 22 314 19T306 16Q300 16 297 22Q285 51 262 102T210 216T151 347T92 476T41 588T8 662Q2 676 2 688Q2 709 15 722T44 735Q55 735 65 728T82 705Q88 690 108 644T158 533T221 395T287 249T346 118T388 23Q389 22 389 19Q389 9 378 9Z" />
<glyph unicode="]" glyph-name="bracketright" horiz-adv-x="336" d="M-4 -72Q-19 -72 -26 -61T-34 -37Q-34 -24 -27 -13T-4 -2H88Q96 -2 114 14T139 67L224 618Q225 626 234 626Q238 626 241 623T244 615L159 64Q152 22 129 0T88 -22H-4Q-9 -22 -12 -27T-15 -37Q-15
-52 -4 -52H108Q141 -52 171 -20T208 59Q214 98 222 151T239 265T258 386T276 499T291 590T299 643Q300 646 300 649T300 654Q300 685 275 696T221 708Q181 708 155 708T128 709Q114 709 108 705T102 695Q102 688 109 682T125 675L214 676Q225 676 225 666Q225
656 214 656L125 655Q106 654 94 667T82 696Q82 709 93 719T128 729Q128 729 154 729T221 728Q239 728 262 722T302 701T320 655Q320 651 320 648T319 640Q317 625 311 587T297 497T279 384T260 263T243 149T228 56Q223 22 206 -7T163 -54T108 -72H-4Z" />
<glyph unicode="^" glyph-name="asciicircum" horiz-adv-x="407" d="M368 369Q361 369 352 372T333 383Q326 389 310 403T275 436T240 468Q236 471 236 476Q236 481 242 484T253 483Q269 469 287 452T322 420T346 399Q359 389 369 389Q380 389 380 399Q380 404
375 412T358 431Q327 458 297 485T238 541Q231 548 224 551Q219 553 201 545T158 522T109 490T65 457T38 431Q34 425 34 419Q34 412 38 406T50 400Q59 400 68 408Q97 431 125 450T182 490Q184 492 188 492Q197 492 197 482Q197 477 193 474Q166 454 138 435T81
392Q69 383 53 383Q37 383 24 391T11 415Q11 429 22 443Q29 452 49 468T96 504T150 539T199 565T231 570Q242 566 250 557T267 540Q293 517 319 493T371 447Q387 434 393 422T400 398Q400 385 391 377T368 369Z" />
<glyph unicode="_" glyph-name="underscore" horiz-adv-x="826" d="M759 -110Q749 -110 749 -100Q749 -90 759 -90Q770 -90 779 -79T788 -55Q788 -46 782 -39T759 -32H64Q50 -32 43 -41T36 -61Q36 -72 43 -80T64 -89H703Q714 -89 714 -99Q714 -109 703 -109H64Q40
-109 28 -94T16 -61Q16 -43 28 -28T64 -12H759Q781 -12 794 -29T808 -67Q808 -83 797 -96T759 -110Z" />
<glyph unicode="`" glyph-name="grave" horiz-adv-x="156" d="M136 427Q127 427 119 434Q115 437 100 449T66 477T31 506T8 526Q0 534 0 541Q0 554 27 575Q38 584 49 584Q61 584 70 573Q73 569 80 562T94 547Q96 545 96 541Q96 536 91 532T80 532Q74 539 54 561Q51
564 48 564Q46 564 39 559Q26 549 24 546T22 540Q28 535 44 522T78 493T112 466T131 450Q135 447 136 447T138 453Q138 461 137 465T129 477L104 502Q101 505 101 508Q101 514 107 517T118 516L145 489Q153 481 154 473T156 453Q156 427 136 427Z" />
<glyph unicode="a" glyph-name="a" horiz-adv-x="459" d="M76 59Q52 59 45 78T37 111Q37 136 54 170T98 237T156 292T215 314Q229 314 229 304Q229 300 226 297T218 294Q196 296 169 277T116 227T74 165T57 111Q57 97 62 88T76 79Q93 79 115 99T162 151T208 217T248
280T275 323Q294 351 313 362T348 374Q366 374 377 363T389 335Q389 320 378 303Q370 291 352 264T315 205T283 147Q269 117 269 99Q269 79 289 79Q307 79 329 91T375 122T418 161T451 199Q454 203 458 203Q464 203 467 198T467 187Q454 168 432 146T383 104T331
72T285 59Q266 59 258 70T249 98Q249 119 261 146Q274 174 293 207T332 270T362 315Q369 325 369 335Q369 354 349 354Q338 354 323 344T291 311Q269 278 243 235T189 154Q162 117 134 88T76 59ZM0 182Q-5 182 -8 187T-8 198Q9 222 31 250T82 304T142 346T209 363Q220
363 231 361T252 354Q258 351 258 345Q258 341 254 338T244 336Q244 336 241 337T233 339Q228 341 222 342T209 343Q168 343 131 318T63 257T8 187Q5 182 0 182ZM253 -5Q208 -5 189 19T169 73Q169 97 181 119Q184 124 190 124Q195 124 198 120T199 109Q189 91 189
73Q189 51 204 33T253 15Q291 15 325 31T391 71Q393 73 397 73Q407 73 407 63Q407 58 403 55Q371 31 334 13T253 -5ZM62 -4Q29 -4 4 18T-20 86Q-20 95 -10 95Q-6 95 -3 93T0 85Q-1 49 18 33T62 16Q82 16 102 25T135 53Q138 57 143 57Q148 57 152 52T151 41Q135
19 111 8T62 -4Z" />
<glyph unicode="b" glyph-name="b" horiz-adv-x="396" d="M0 182Q-5 182 -8 188T-8 199Q17 227 51 269T127 360T214 456T305 543T395 605T480 629Q492 629 509 624T541 608T555 576Q555 558 545 551T521 541T494 539Q464 539 432 524T370 484T314 433T270 381Q267
377 262 377Q257 377 254 382T254 393Q272 417 298 445T357 500T425 542T494 559Q503 559 519 560T535 576Q535 590 517 599T480 609Q443 609 401 586T313 523T224 437T139 343T65 254T8 186Q5 182 0 182ZM86 1Q62 1 37 9T-4 35T-21 83Q-21 95 -12 95Q-1 95 -1
82Q-1 59 13 46T47 27T86 21Q133 21 178 40T261 94T320 171T342 263Q342 299 322 323T266 347Q242 347 219 338T173 314Q169 312 167 312Q158 312 158 322Q158 327 162 330Q185 345 211 356T266 367Q313 367 337 336T362 263Q362 211 338 164T275 80T186 22T86
1ZM103 53Q57 53 37 85T18 157Q18 166 28 166Q32 166 35 164T38 156Q37 124 51 99T103 73Q130 73 159 92T214 142T255 204T271 262Q271 292 243 292Q220 292 193 275T142 232T104 176T93 123V122Q93 112 83 112Q73 112 73 121Q70 149 85 182T127 244T184 293T243
312Q266 312 278 298T291 262Q291 234 274 199T230 130T169 75T103 53Z" />
<glyph unicode="c" glyph-name="c" horiz-adv-x="315" d="M-7 176Q-13 176 -13 183Q-13 191 -6 201Q22 237 56 275T132 340T227 367Q256 367 276 349T297 300Q297 276 281 252T235 228Q221 228 206 237T190 262Q190 275 201 275Q210 275 210 263V262Q210 255 220
252T235 248Q253 248 265 264T277 300Q277 321 263 334T227 347Q181 347 142 322T69 261T8 187Q0 176 -7 176ZM95 60Q69 60 49 76T29 122Q29 145 48 177T95 241T155 292T210 313Q224 313 237 306T250 283Q250 270 245 270Q240 270 234 279T225 289Q218 293 210
293Q191 293 164 274T111 227T67 171T49 122Q49 103 62 92T95 80Q157 80 213 113T307 199Q310 203 314 203Q319 203 323 197T322 186Q284 134 224 97T95 60ZM97 1Q71 1 44 9T-1 35T-19 85Q-19 96 -9 96Q1 96 1 85Q0 66 8 55T34 35Q50 28 67 25T97 21Q135 21 170
35T235 71Q237 73 241 73Q251 73 251 63Q251 58 247 55Q216 31 177 16T97 1Z" />
<glyph unicode="d" glyph-name="d" horiz-adv-x="459" d="M76 59Q52 59 45 78T37 111Q37 136 54 171T98 239T157 295T216 318Q228 318 228 308Q228 304 226 301T218 298Q196 299 169 279T116 228T74 166T57 111Q57 97 62 88T76 79Q88 79 106 96T145 137T182 182T204
212Q228 244 251 276T299 336Q314 354 338 385T390 451T443 519T485 571Q496 584 511 590T540 596Q557 596 569 589T581 567Q581 553 567 536Q554 521 527 489T465 413T395 324T329 234T280 156T261 104Q261 80 280 80Q304 80 335 97T397 141T451 199Q454 203 459
203Q464 203 468 198T467 187Q445 157 412 128T344 80T280 60Q259 60 250 73T241 104Q241 124 260 160T310 242T378 336T449 428T512 504T551 550Q560 561 560 567Q560 577 544 577Q534 577 521 572T501 559Q485 540 460 508T406 439T354 372T315 324Q264 264 220
200T119 81Q112 74 101 67T76 59ZM-2 181Q-7 181 -10 185T-10 196Q10 220 33 249T83 306T142 350T209 367Q224 367 240 364T270 349Q274 346 274 341Q274 336 269 333T258 333Q248 341 236 344T209 347Q168 347 133 321T67 257T8 186Q3 181 -2 181ZM245 -11Q209
-11 188 7T167 64Q167 79 170 93T181 121Q184 126 189 126Q194 126 198 122T199 111Q187 90 187 64Q187 35 201 22T245 9Q283 9 321 28T391 71Q393 73 397 73Q407 73 407 62Q407 58 403 55Q372 30 331 10T245 -11ZM76 -11Q36 -11 8 17T-20 86Q-20 95 -10 95Q-6
95 -3 93T0 85Q-1 53 22 31T76 9Q102 9 126 22Q130 24 131 24Q141 24 141 13Q141 7 136 4Q108 -11 76 -11Z" />
<glyph unicode="e" glyph-name="e" horiz-adv-x="332" d="M125 154Q107 154 94 162Q88 165 88 170Q88 175 92 178T103 179Q115 174 125 174Q146 174 171 186T219 219T256 262T271 306Q271 347 229 347Q182 347 142 323T68 262T8 187Q5 182 0 182Q-5 182 -8 187T-8
198Q18 236 53 275T132 340T229 367Q256 367 273 351T291 306Q291 279 275 253T233 204T178 168T125 154ZM102 61Q75 61 53 75T30 123Q30 151 50 183T101 244T164 296T219 325Q220 325 220 325T222 326Q232 326 232 315Q232 309 225 306Q203 299 174 278T116 230T69
174T50 123Q50 101 64 91T102 81Q161 81 221 112T325 200Q328 204 332 204Q338 204 341 199T340 187Q295 129 231 95T102 61ZM97 1Q71 1 44 9T-1 35T-20 85Q-20 96 -10 96Q0 96 0 85Q0 66 7 55T34 35Q49 28 66 25T97 21Q134 21 169 35T235 71Q237 73 241 73Q251
73 251 63Q251 58 247 55Q215 31 177 16T97 1Z" />
<glyph unicode="f" glyph-name="f" horiz-adv-x="415" d="M83 140Q79 140 75 144T74 154Q86 179 112 218T175 302T252 393T337 476T420 536T494 559Q503 559 519 560T535 576Q535 590 517 599T480 609Q443 609 401 586T313 523T224 437T139 343T65 254T8 186Q5
182 0 182Q-5 182 -8 188T-8 199Q17 227 51 269T127 360T214 456T305 543T395 605T480 629Q492 629 509 624T541 608T555 576Q555 558 545 551T521 541T494 539Q465 539 427 518T349 460T268 380T192 292T131 210T92 146Q89 140 83 140ZM278 69Q251 69 238 82T217
112T197 143T165 156Q155 156 155 166Q155 176 165 176Q192 176 205 163T227 133T246 102T278 89Q301 89 326 109T373 155T407 199Q410 203 414 203Q419 203 423 198T423 187Q409 167 386 139T334 90T278 69ZM-105 -264Q-109 -264 -112 -261T-115 -253Q-111 -180
-85 -116T-21 -4T56 72T125 100Q147 100 157 88T167 53Q167 27 154 -7T118 -78T66 -145T6 -195T-57 -214Q-67 -214 -67 -204Q-67 -194 -57 -194Q-28 -194 4 -172T67 -114T119 -38T146 38Q147 42 147 45T147 52Q147 80 125 80Q101 80 66 55T-4 -16T-65 -123T-95
-255Q-95 -264 -105 -264ZM-102 -314Q-153 -314 -173 -289T-194 -225Q-194 -188 -180 -144T-145 -57T-101 21T-63 76Q-60 79 -56 79Q-51 79 -48 74T-49 62Q-63 45 -84 12T-125 -63T-160 -146T-174 -222Q-174 -254 -158 -274T-102 -294Q-63 -294 -21 -276T60 -227T130
-157T179 -76T198 6Q198 16 208 16Q240 16 281 29T347 61Q349 63 353 63Q363 63 363 52Q363 48 359 45Q332 25 292 12T217 -4Q215 -46 195 -90T142 -174T68 -245T-16 -295T-102 -314Z" />
<glyph unicode="g" glyph-name="g" horiz-adv-x="453" d="M96 59Q72 59 65 78T57 111Q57 136 74 171T120 240T180 296T240 319Q252 319 252 309Q252 305 249 302T241 299Q219 300 191 280T137 229T94 166T77 111Q77 97 82 88T96 79Q111 79 130 100T172 154T220
224Q246 263 272 298T324 356T373 379Q386 379 397 371T408 346Q408 344 402 325T388 277T370 222T355 174T346 149Q343 143 338 143Q333 143 330 147T328 157Q330 161 336 181T351 228T368 282T382 327T388 346Q388 359 373 359Q360 359 347 349Q322 333 293 294T235
210Q210 173 186 138T138 81T96 59ZM-3 181Q-8 181 -11 185T-10 196Q27 240 65 279T144 343T233 368Q247 368 258 366T278 358Q282 355 282 350Q282 345 277 342T266 342Q259 348 233 348Q192 348 154 326T80 266T7 186Q3 181 -3 181ZM-40 -231Q-53 -232 -67 -225T-82
-198Q-82 -176 -61 -152T-9 -104T55 -60T109 -26Q113 -24 114 -24Q119 -24 121 -27T124 -35Q124 -40 120 -43Q102 -55 73 -73T15 -111T-35 -153T-62 -192Q-62 -193 -62 -194T-63 -197Q-63 -211 -44 -211Q-9 -211 32 -182T115 -105T192 2T253 120T286 228Q287 236
296 236Q300 236 303 233T306 224Q298 175 273 115T211 -5T131 -115T44 -197T-40 -231ZM-48 -301Q-72 -301 -93 -288T-111 -242Q-111 -233 -102 -233Q-98 -233 -95 -236T-92 -244Q-94 -263 -82 -272T-48 -281Q0 -281 44 -258T129 -195T203 -107T263 -10T306 84Q310
95 311 98T324 107Q346 117 379 137T447 202Q450 206 455 206Q460 206 463 201T463 190Q433 150 399 128T327 85Q311 42 285 -10T224 -113T146 -206T54 -275T-48 -301ZM69 -6Q32 -6 7 17T-18 80Q-18 85 -18 91T-16 103Q-15 111 -7 111Q4 111 4 101Q4 96 3 91T2
81Q2 50 21 32T68 14Q99 14 136 36T205 109Q208 114 213 114Q218 114 221 110T221 99Q187 45 147 20T69 -6Z" />
<glyph unicode="h" glyph-name="h" horiz-adv-x="486" d="M0 182Q-5 182 -8 188T-8 199Q17 227 51 269T127 360T214 456T305 543T395 605T480 629Q492 629 509 624T541 608T555 576Q555 558 545 551T521 541T494 539Q464 539 432 524T370 484T314 433T270 381Q267
377 262 377Q257 377 254 382T254 393Q272 417 298 445T357 500T425 542T494 559Q503 559 519 560T535 576Q535 590 517 599T480 609Q443 609 401 586T313 523T224 437T139 343T65 254T8 186Q5 182 0 182ZM349 69Q332 69 320 80T307 110Q307 124 321 151T354 209T387
267T402 306Q402 329 383 341T338 353Q300 353 262 333T192 282T135 222Q132 218 127 218Q122 218 119 223T120 234Q144 263 178 295T254 350T338 373Q356 373 375 367T408 345T422 306Q422 291 408 263T375 204T342 147T327 110Q327 89 349 89Q372 89 397 109T444
155T478 199Q481 203 485 203Q490 203 494 198T494 187Q480 167 457 139T405 90T349 69ZM33 -3Q12 -3 3 11T-7 41Q-7 57 2 79T22 122T41 159Q44 165 50 165Q55 165 58 161T59 150Q53 138 42 117T22 75T13 41Q13 17 33 17Q53 17 70 43T110 109T162 192T235 270T340
321H343Q353 321 353 311Q353 304 345 302Q283 286 238 246T158 152T93 42Q86 28 71 13T33 -3ZM298 -4Q278 -4 257 1T221 22T206 67Q206 99 223 136T263 207T304 263Q307 267 312 267Q317 267 321 261T320 250Q301 228 279 195T242 128T226 67Q226 38 246 27T298
16Q330 16 361 29T417 61Q419 63 423 63Q433 63 433 53Q433 48 429 45Q401 24 368 10T298 -4Z" />
<glyph unicode="i" glyph-name="i" horiz-adv-x="309" d="M275 402Q251 402 234 419T217 460Q217 485 234 502T275 519Q300 519 317 502T334 460Q334 436 317 419T275 402ZM275 422Q292 422 303 433T314 460Q314 477 303 488T275 499Q259 499 248 488T237 460Q237
444 248 433T275 422ZM140 56Q121 56 114 70T106 101Q106 115 113 141T132 197T161 254T194 297Q203 306 213 313Q223 327 223 339Q223 354 210 362T180 371Q163 371 154 363Q140 350 125 333T92 292Q74 269 54 243T8 186Q5 182 0 182Q-5 182 -8 188T-8 199Q18
228 38 255T76 304Q94 327 109 345T141 378Q156 392 178 392Q204 392 225 375T246 334Q246 314 225 297L220 293Q210 284 200 274T182 252Q171 229 158 202T135 147T125 99Q125 76 144 76Q153 76 166 81Q197 94 230 122T301 199Q304 203 308 203Q314 203 318 198T317
187Q286 147 260 122T198 77Q179 66 165 61T140 56ZM135 -5Q86 -5 59 29T35 113Q36 128 44 155T64 211T90 258Q93 262 98 262Q103 262 107 257T106 246Q94 230 83 203T64 150T55 111Q52 74 73 44T136 14Q162 14 197 29T273 82Q275 84 279 84Q286 84 289 78T287
66Q244 28 206 12T135 -5Z" />
<glyph unicode="j" glyph-name="j" horiz-adv-x="212" d="M183 401Q159 401 142 418T124 460Q124 484 141 501T183 519Q208 519 225 502T242 460Q242 436 225 419T183 401ZM183 421Q200 421 211 432T222 460Q222 476 211 487T183 499Q167 499 156 488T144 460Q144
444 155 433T183 421ZM103 124Q98 124 95 128T93 138Q95 143 102 161T118 204T135 252T149 292T155 309Q155 322 140 322Q124 322 104 306T65 266T31 220T8 186Q5 182 0 182Q-5 182 -9 187T-9 198Q2 213 18 236T55 284T97 325T140 342Q153 342 164 334T175 309Q175
307 170 290T155 249T137 199T121 155T111 130Q108 124 103 124ZM-216 -231Q-230 -232 -246 -224T-262 -194Q-262 -173 -243 -150T-194 -103T-136 -60T-86 -26Q-82 -24 -80 -24Q-70 -24 -70 -35Q-70 -40 -74 -43Q-91 -55 -118 -72T-172 -111T-218 -152T-241 -191V-194Q-241
-211 -219 -211Q-190 -211 -161 -187T-105 -124T-53 -38T-8 56T27 142T49 206Q52 213 59 213Q64 213 67 210T69 200Q62 179 48 140T13 52T-33 -45T-88 -135T-150 -203T-216 -231ZM86 65Q76 65 76 75Q76 79 80 82Q116 108 149 139T204 199Q207 203 212 203Q217 203
221 198T220 187Q196 156 162 125T92 67Q90 65 86 65ZM-217 -301Q-241 -301 -263 -288T-285 -243Q-285 -233 -275 -233Q-265 -233 -265 -243Q-265 -262 -252 -271T-217 -281Q-190 -281 -160 -264T-102 -222T-57 -177Q-22 -135 4 -86T50 9Q53 15 59 15Q88 15 117
36T171 85Q175 89 179 89Q185 89 188 84T187 73Q164 48 133 23T66 -5Q47 -51 20 -99T-42 -189Q-59 -209 -88 -235T-151 -281T-217 -301Z" />
<glyph unicode="k" glyph-name="k" horiz-adv-x="486" d="M0 182Q-5 182 -8 188T-8 199Q17 227 51 269T127 360T214 456T305 543T395 605T480 629Q492 629 509 624T541 608T555 576Q555 558 545 551T521 541T494 539Q464 539 432 524T370 484T314 433T270 381Q267
377 262 377Q257 377 254 382T254 393Q272 417 298 445T357 500T425 542T494 559Q503 559 519 560T535 576Q535 590 517 599T480 609Q443 609 401 586T313 523T224 437T139 343T65 254T8 186Q5 182 0 182ZM298 -4Q278 -4 257 1T221 22T206 67Q206 72 207 89T211
126T214 164T216 185Q217 197 233 198T283 210Q298 215 323 224T373 250T408 294Q411 302 411 310Q411 327 394 340T338 353Q300 353 262 333T192 282T135 222Q132 218 127 218Q122 218 119 223T120 234Q144 263 178 295T254 350T338 373Q380 373 405 356T431 311Q431
282 401 251T308 199Q292 194 269 189T236 182Q235 168 233 143T228 96T226 67Q226 38 246 27T298 16Q330 16 361 29T417 61Q419 63 423 63Q433 63 433 53Q433 48 429 45Q401 24 368 10T298 -4ZM33 -3Q12 -3 3 11T-7 41Q-7 57 2 79T22 122T41 159Q44 165 50 165Q55
165 58 161T59 150Q53 138 42 117T22 75T13 41Q13 17 33 17Q53 17 70 43T110 109T162 192T235 270T340 321H343Q353 321 353 311Q353 304 345 302Q283 286 238 246T158 152T93 42Q86 28 71 13T33 -3ZM333 65Q306 65 299 82T291 125Q291 133 291 141T292 159Q292
169 302 169Q312 169 312 158Q311 148 311 139T311 122Q311 103 315 94T333 85Q350 85 370 97T412 127T450 165T478 199Q481 203 485 203Q490 203 494 198T494 187Q485 174 467 154T426 113T379 79T333 65Z" />
<glyph unicode="l" glyph-name="l" horiz-adv-x="313" d="M0 182Q-5 182 -8 188T-8 199Q12 222 29 247T62 297Q89 337 121 383T191 474T269 556T350 617Q385 636 411 636Q437 636 450 620T464 577Q464 565 462 553T453 526Q450 519 431 496T382 439T321 369T258
300T207 245T179 218Q176 215 173 215Q162 215 162 227Q162 230 166 234Q172 239 193 261T244 315T306 382T366 450T414 506T435 534Q445 557 445 578Q445 595 437 605T411 616Q390 616 360 599Q321 577 282 541T206 460T137 370T79 286Q62 261 45 235T8 186Q5
182 0 182ZM103 62Q72 62 60 75T47 107Q47 127 56 150T76 191Q91 217 117 253T174 328T238 405T300 470T348 513Q350 515 354 515Q364 515 364 505Q364 500 360 497Q341 484 313 456T253 392T190 316T133 242T93 181Q86 168 76 148T66 111Q66 98 74 90T103 82Q130
82 165 95T238 134T306 200Q309 204 313 204Q319 204 322 199T321 187Q289 146 250 118T173 76T103 62ZM94 0Q44 0 10 21T-25 85Q-25 96 -15 96Q-5 96 -5 85Q-5 57 24 39T100 20Q138 20 183 36T273 89Q275 91 279 91Q289 91 289 81Q289 76 285 73Q242 36 191 18T94
0Z" />
<glyph unicode="m" glyph-name="m" horiz-adv-x="687" d="M0 182Q-5 182 -8 188T-8 199Q39 252 82 306T175 412Q188 425 201 430T228 436Q248 436 263 426T279 401Q279 393 271 383Q268 380 264 380Q258 380 255 385T256 397Q258 399 258 401Q258 409 244 414Q241
415 238 415T229 416Q220 416 210 412T189 398Q141 348 98 294T8 186Q5 182 0 182ZM127 218Q122 218 119 223T120 234Q144 263 178 295T254 350T338 373Q352 373 366 369T394 357Q399 354 399 349Q399 344 394 341T382 341Q373 347 361 350T338 353Q300 353 262
333T192 282T135 222Q132 218 127 218ZM551 69Q534 69 521 80T508 110Q508 124 522 151T556 209T589 267T604 306Q604 329 584 341T539 353Q501 353 464 333T394 282T337 222Q334 218 329 218Q324 218 321 223T321 234Q345 263 379 295T455 350T539 373Q557 373
577 367T610 345T624 306Q624 291 610 263T576 204T543 147T528 110Q528 89 551 89Q574 89 599 109T645 155T679 199Q682 203 686 203Q691 203 695 198T695 187Q681 167 658 139T607 90T551 69ZM234 -3Q214 -3 204 11T194 41Q194 57 203 79T223 122T242 159Q245
165 251 165Q256 165 259 161T260 150Q254 138 243 117T223 75T214 41Q214 17 234 17Q254 17 271 43T311 109T363 192T436 270T541 321H544Q554 321 554 311Q554 304 546 302Q484 286 439 246T359 152T294 42Q287 28 272 13T234 -3ZM33 -3Q12 -3 3 11T-7 41Q-7
57 2 79T22 122T41 159Q44 165 50 165Q55 165 58 161T59 150Q53 138 42 117T22 75T13 41Q13 17 33 17Q53 17 70 43T110 109T162 192T235 270T340 321H343Q353 321 353 311Q353 304 345 302Q283 286 238 246T158 152T93 42Q86 28 71 13T33 -3ZM500 -4Q479 -4 458
1T423 22T408 67Q408 99 425 136T465 207T506 263Q509 267 513 267Q519 267 522 261T521 250Q503 228 481 195T444 128T428 67Q428 38 448 27T500 16Q532 16 562 29T619 61Q621 63 625 63Q635 63 635 53Q635 48 631 45Q603 24 570 10T500 -4Z" />
<glyph unicode="n" glyph-name="n" horiz-adv-x="486" d="M0 182Q-5 182 -8 188T-8 199Q23 234 45 261T88 317T133 379Q144 394 158 400T185 407Q206 407 221 395T237 368Q237 359 230 351Q227 348 223 348Q218 348 215 353T216 365Q217 366 217 369Q217 372 214
376T200 384Q193 387 185 387Q176 387 167 383T149 367Q124 333 104 305T61 249T8 186Q5 182 0 182ZM349 69Q333 69 320 76T306 99Q306 109 311 118Q318 131 333 157T364 213T391 268T402 306Q402 329 383 341T338 353Q299 353 265 332T203 280T152 222Q149 218
144 218Q139 218 136 223T136 234Q162 265 192 297T258 351T338 373Q356 373 375 367T408 345T422 306Q422 291 411 265T383 208T352 150T329 108Q326 104 326 100Q326 93 334 91T349 89Q372 89 397 109T444 155T478 199Q481 203 485 203Q490 203 494 198T494 187Q480
167 457 139T405 90T349 69ZM33 -3Q12 -3 3 11T-7 41Q-7 54 4 77T30 126T60 175T81 212Q84 218 90 218Q95 218 98 214T99 204Q93 192 80 169T51 120T24 73T13 41Q13 17 33 17Q53 17 69 35T101 84T137 149T184 218T249 280T340 321H343Q353 321 353 311Q353 304
345 302Q294 289 258 262T195 201T150 130T113 64T77 16T33 -3ZM298 -4Q267 -4 244 15T220 70Q220 74 220 77T221 85Q224 108 236 137T265 194T295 241Q298 246 303 246Q308 246 311 241T311 229Q311 229 301 215T279 177Q264 150 252 121T240 71Q240 44 256 30T298
16Q330 16 361 29T417 61Q419 63 423 63Q433 63 433 53Q433 48 429 45Q401 24 368 10T298 -4Z" />
<glyph unicode="o" glyph-name="o" horiz-adv-x="343" d="M259 177Q253 177 250 182T250 193Q280 237 280 278Q280 307 263 325T210 344Q158 344 109 299T7 185Q4 182 1 182Q-4 182 -7 188T-7 200Q27 245 61 282T131 341T208 363Q258 363 279 339T300 281Q300
256 291 230T266 181Q263 177 259 177ZM79 53Q58 53 47 67T35 105Q35 135 53 171T99 239T159 293T215 314Q229 314 229 304Q229 300 226 297T218 294Q197 296 170 277T116 228T73 165T55 104Q55 91 60 82T79 73Q95 73 113 83T146 109T168 137Q171 142 176 142Q181
142 185 138T185 127Q176 112 159 95T121 65T79 53ZM247 133Q214 133 190 153T166 207Q166 219 169 232T180 261Q183 267 189 267Q194 267 197 263T198 253Q192 241 190 230T187 209Q187 182 205 168T248 153Q270 153 293 164T335 199Q338 203 342 203Q347 203
351 198T351 187Q328 159 301 146T247 133ZM77 -10Q34 -10 5 18T-20 86Q-20 96 -10 96Q-6 96 -3 93T0 84Q-2 58 20 34T78 9Q101 9 127 23T179 70Q179 70 185 78T200 95T211 111Q214 117 219 117Q224 117 227 113T228 102Q222 90 212 79T194 57Q166 21 136 6T77
-10Z" />
<glyph unicode="p" glyph-name="p" horiz-adv-x="396" d="M-236 -258Q-261 -258 -280 -241T-299 -204Q-299 -190 -286 -180T-242 -168Q-213 -167 -180 -133T-109 -42T-30 86Q-7 125 22 175T83 278T151 375T220 450Q228 457 244 468T281 490T321 509T352 517Q380
517 397 510T424 491Q432 480 432 468Q432 452 419 440T388 426Q362 425 337 414T288 386Q284 384 282 384Q272 384 272 395Q272 400 276 403Q302 420 329 432T387 446Q399 447 406 453T413 466Q413 477 399 487T352 497Q340 497 316 485T267 459T232 434Q199 407
165 362T99 266T38 164T-13 76Q-52 9 -91 -51T-167 -149T-241 -188Q-262 -189 -271 -194T-280 -206Q-280 -217 -266 -227T-237 -238Q-201 -238 -165 -210T-95 -138T-31 -44T23 52T63 128Q77 153 95 184T136 245T186 293T243 312Q266 312 278 298T291 262Q291 234
274 199T230 130T169 75T103 53Q93 53 93 63Q93 73 103 73Q130 73 159 92T214 142T255 204T271 262Q271 292 243 292Q219 292 196 276T153 233T114 176T81 118Q64 86 39 39T-17 -60T-83 -157T-157 -230T-236 -258ZM86 1Q76 1 76 11Q76 21 86 21Q133 21 178 40T261
94T320 171T342 263Q342 299 322 323T266 347Q241 347 229 342T205 325Q202 322 198 322Q193 322 190 328T191 339Q205 353 221 360T266 367Q313 367 337 336T362 263Q362 211 338 164T275 80T186 22T86 1Z" />
<glyph unicode="q" glyph-name="q" horiz-adv-x="459" d="M1 182Q-5 182 -8 188T-7 200Q13 224 35 252T85 306T143 347T209 363Q224 363 240 360T270 345Q274 342 274 337Q274 332 269 329T258 329Q248 337 236 340T209 343Q168 343 133 318T66 256T8 186Q5 182
1 182ZM76 59Q52 59 45 78T37 111Q37 136 54 170T98 237T156 292T215 314Q229 314 229 304Q229 300 226 297T218 294Q196 296 169 277T116 227T74 165T57 111Q57 97 62 88T76 79Q86 79 97 87T120 110Q136 128 153 152T188 203Q205 228 223 252T259 296Q279 316
297 329T333 342Q343 342 353 337Q361 333 364 327T367 312Q367 301 363 289T356 267Q341 221 326 175T295 82Q332 92 376 125T451 199Q454 203 459 203Q464 203 468 198T467 187Q446 159 413 130T344 80T280 60Q266 60 271 73Q288 123 304 172T337 271Q339 277
342 287T346 307Q346 322 333 322Q319 322 304 311T272 281Q255 262 238 238T202 187Q183 160 165 135T129 91Q99 59 76 59ZM230 -305Q192 -305 166 -278T139 -190Q139 -150 150 -100T178 6T212 112T243 206Q246 213 253 213Q258 213 261 210T263 200Q251 165 234
114T200 6T171 -102T159 -189Q159 -241 180 -263T231 -285Q260 -285 291 -269T348 -226T387 -165Q390 -159 396 -159Q401 -159 404 -163T405 -173Q390 -212 361 -241T298 -288T230 -305ZM76 -11Q36 -11 8 17T-20 86Q-20 95 -10 95Q-6 95 -3 93T0 85Q-1 53 22 31T76
9Q90 9 111 15T147 41Q150 45 155 45Q160 45 164 40T163 29Q144 4 118 -3T76 -11ZM256 -226Q229 -223 219 -206T209 -166Q209 -137 218 -107T232 -60Q239 -37 245 -19T253 7Q255 15 263 15Q301 15 330 31T391 71Q393 73 397 73Q407 73 407 63Q407 58 403 55Q373
33 343 15T271 -5Q258 -44 246 -83T228 -163Q226 -181 236 -193T261 -206Q277 -206 299 -191T345 -132Q348 -127 354 -127Q359 -127 363 -131T363 -142Q337 -189 309 -208T256 -226Z" />
<glyph unicode="r" glyph-name="r" horiz-adv-x="382" d="M0 183Q-5 183 -8 188T-8 199Q15 229 37 265T76 333T99 379Q115 418 137 434T179 451Q201 451 216 436T232 398Q232 386 224 368Q221 362 215 362Q210 362 207 366T206 376Q211 388 211 397Q211 411 202
421T179 431Q164 431 148 417T117 371Q111 356 94 324T54 255T8 187Q5 183 0 183ZM229 64Q216 64 207 70Q190 81 190 102Q190 124 204 149T236 197T261 233Q269 246 277 259T285 287Q285 295 280 303T259 318T208 325Q201 325 192 324T172 323H171Q161 323 161
333Q161 343 170 343Q178 344 187 344T204 345Q243 345 274 334T306 290Q306 270 292 245Q274 211 251 182T212 117Q211 114 211 111T210 105Q210 92 218 87Q223 84 229 84Q244 84 265 98T309 133T350 172T375 200Q378 204 382 204Q387 204 391 199T390 187Q379
173 349 144T287 89Q255 64 229 64ZM-7 95Q-13 95 -16 101T-14 112Q19 144 49 183T100 256T127 302Q130 308 136 308Q141 308 144 304T145 294Q140 280 118 246T65 172T0 98Q-3 95 -7 95ZM180 -10Q146 -10 121 7T95 64Q95 96 113 134T155 209T198 272Q201 276 206
276Q211 276 215 271T214 260Q197 236 174 201T133 130T115 64Q115 37 131 24T176 10Q212 10 254 29T320 77Q323 81 328 81Q333 81 337 76T336 65Q309 33 265 12T180 -10Z" />
<glyph unicode="s" glyph-name="s" horiz-adv-x="356" d="M216 86Q206 86 206 94Q206 99 210 103Q235 130 242 161T249 223Q249 244 248 263T246 298Q246 326 254 339Q257 343 269 348T292 361T303 383Q303 389 300 395Q299 399 294 403T278 407Q268 407 252 401T213
377Q178 351 129 308T8 187Q5 184 1 184Q-4 184 -7 189T-6 201Q6 214 30 241T87 301T155 362T222 410T280 429Q306 429 318 403Q320 399 321 395T322 385Q322 367 309 350T269 325Q266 316 266 297Q266 280 267 261T269 232Q270 204 265 174T243 113Q272 126 299
147T349 200Q352 204 356 204Q361 204 364 198T364 187Q345 160 317 137T262 100T216 86ZM93 55Q69 56 53 73T36 116Q36 136 46 156Q58 183 82 215T138 278T201 329Q205 331 207 331Q216 331 216 321Q216 316 211 313Q182 295 153 266T100 205T65 148Q61 139 59
131T57 116Q57 97 69 86T97 75Q120 75 144 97T175 171Q180 205 181 221T183 260Q183 270 193 270Q203 270 203 260Q202 235 199 200T184 130T151 75T93 55ZM94 -6Q82 -6 63 -3T25 10T-7 36T-20 79Q-20 83 -20 86T-19 94Q-18 102 -9 102Q1 102 1 93Q1 89 1 86T0
80Q0 55 16 41T54 20T95 14Q140 14 177 25T242 53T285 83Q288 86 292 86Q298 86 301 80T299 69Q283 54 253 37T182 7T94 -6Z" />
<glyph unicode="t" glyph-name="t" horiz-adv-x="276" d="M240 384Q234 384 231 389T232 401L303 478Q308 483 308 491Q308 500 300 507T280 514Q270 514 259 505Q247 495 222 467T165 400Q165 399 162 398T158 396H79Q69 396 69 406Q69 416 79 416H153Q183 454
208 481T245 520Q260 534 280 534Q300 534 314 522T328 492Q328 477 318 466Q316 463 305 450T277 420T247 387Q244 384 240 384ZM-1 183Q-10 183 -10 192Q-10 195 -5 202Q21 234 55 278T123 370Q126 374 130 374Q136 374 139 369T139 358Q105 310 71 266T8 187Q4
183 -1 183ZM111 59Q74 59 56 88Q52 96 49 104T46 123Q46 140 54 162T82 211Q93 227 114 252T158 306T199 359Q199 360 202 361T207 363H293Q303 363 303 353Q303 343 293 343H212Q195 319 173 292T130 239T98 199Q81 174 74 156T67 123Q67 108 73 99Q85 79 111
79Q137 79 164 96T219 141T268 199Q271 203 276 203Q281 203 285 198T284 187Q247 135 200 97T111 59ZM79 -1Q40 -1 17 21T-5 86Q-5 95 5 95Q9 95 12 93T15 85Q14 57 31 38T83 18Q107 18 138 30T207 71Q209 73 213 73Q223 73 223 63Q223 58 219 55Q182 27 146 13T79
-1Z" />
<glyph unicode="u" glyph-name="u" horiz-adv-x="485" d="M119 53Q112 53 105 62T97 92Q97 113 106 138T128 189T154 234T174 263Q189 282 200 296T213 313Q223 327 223 339Q223 354 210 362T180 371Q163 371 154 363Q140 350 125 333T92 292Q74 269 54 243T8
187Q5 183 0 183Q-5 183 -8 188T-8 199Q18 228 38 255T76 304Q94 327 109 345T141 378Q155 391 179 391Q203 391 223 377T244 339Q244 330 238 318T210 276Q156 205 137 164T118 91Q118 76 124 71Q128 68 128 63Q128 53 119 53ZM159 75Q149 75 149 85Q149 91 155
94Q203 120 237 165T297 262T347 359Q353 371 364 376T389 382Q412 382 432 367T453 329Q453 312 440 295Q437 291 432 291Q427 291 424 296T424 307Q433 319 433 330Q433 345 419 353T391 361Q383 361 376 358T365 349Q340 302 313 249T251 149T164 76Q162 75
159 75ZM99 -4Q63 -3 42 21T20 86Q20 93 20 100T22 114Q25 129 39 161T75 229T123 293Q126 297 130 297Q136 297 139 291T137 280Q113 253 92 219T58 154T42 111Q41 104 41 98T40 85Q40 50 58 33T102 16Q134 16 176 43T258 130Q261 135 266 135Q271 135 275 130T274
118Q232 56 186 26T99 -4ZM340 53Q334 53 331 54Q317 59 312 69T306 92Q306 109 313 127T328 163T342 189Q353 210 364 231T386 265Q389 269 394 269Q399 269 403 264T402 253Q380 224 363 190T331 122Q325 109 325 95Q325 74 341 74Q349 74 364 83Q398 105 425
137T477 199Q480 203 484 203Q490 203 493 198T492 186Q485 177 468 156T427 111T381 70T340 53ZM310 -5Q291 -5 269 1T234 27Q232 31 232 33Q232 43 242 43Q247 43 250 39Q259 26 276 21T310 15Q336 15 368 26T434 62Q436 64 440 64Q450 64 450 54Q450 49 446
46Q411 19 376 7T310 -5Z" />
<glyph unicode="v" glyph-name="v" horiz-adv-x="455" d="M164 54Q138 54 128 71T117 117Q117 145 125 179T144 245T166 300T181 331Q190 346 190 359Q190 372 182 380T161 388Q148 388 132 377T101 340Q82 306 60 264T8 187Q4 183 -1 183Q-6 183 -9 188T-8 199Q21
234 42 275T83 350Q101 382 121 395T161 409Q182 409 196 395T210 359Q210 341 198 321Q195 315 185 293T164 238T144 174T136 116Q136 97 142 86T164 74Q171 74 190 87T220 117Q223 122 229 122Q234 122 237 118T238 107Q231 94 217 82T189 62T164 54ZM323 99Q276
99 259 128T241 194Q241 223 248 252T265 301Q276 324 292 336T325 349Q341 349 352 336T363 295Q363 287 362 277T358 256Q352 229 342 203T321 160Q319 155 312 155Q307 155 303 159T303 170Q312 185 322 210T339 260Q341 271 342 280T344 296Q344 313 338 321T324
329Q314 329 303 320T283 293Q275 276 268 249T260 194Q260 164 273 142T323 119Q341 119 364 131T409 162T447 199Q450 203 455 203Q460 203 463 197T462 186Q446 169 422 149T372 114T323 99ZM-7 95Q-13 95 -16 101T-14 112Q24 149 44 181T90 257Q93 262 99 262Q104
262 108 258T108 247Q83 202 61 169T0 98Q-3 95 -7 95ZM137 -4Q104 -4 84 12T54 53T46 103Q46 113 56 113Q66 113 66 103Q65 68 82 42T137 16Q175 16 204 36T258 88Q261 92 266 92Q271 92 275 87T274 76Q247 43 215 20T137 -4Z" />
<glyph unicode="w" glyph-name="w" horiz-adv-x="690" d="M397 65Q377 65 369 75T360 103Q360 126 371 155T397 215T428 270T451 306Q458 316 472 333T486 362V367Q486 385 467 385Q452 385 429 371T379 323Q365 306 344 275T298 209T245 142T190 90T140 70Q118
70 109 82T100 110Q100 133 110 159T127 198Q139 224 154 248T183 292Q195 309 204 321T220 343Q230 357 230 369Q230 387 214 387Q204 387 178 373T122 323Q104 301 80 270T7 186Q4 183 0 183Q-5 183 -8 188T-7 200Q41 251 65 282T106 335Q138 375 169 390T216
406Q233 406 242 397T251 372Q251 364 248 354T237 333Q230 322 220 308T197 276Q184 255 166 224T135 162T121 111Q121 90 140 90Q159 90 183 110T234 161T286 227T331 291T363 335Q393 373 420 389T467 405Q486 405 496 395T506 367Q506 349 494 334T465 292Q449
268 429 233T393 163T378 107Q378 85 397 85Q406 85 426 93T460 118Q463 122 467 122Q472 122 476 117T475 106Q460 86 435 76T397 65ZM561 99Q521 99 505 120T488 172Q488 207 502 244T532 303Q548 325 568 336T607 348Q623 348 633 339T644 309Q644 289 629 254Q616
227 600 201T570 159Q567 155 562 155Q557 155 554 160T555 171Q559 176 570 192T594 230T616 273T625 309Q625 328 606 328Q595 328 578 319T548 291Q540 280 531 260T515 217T508 173Q508 151 519 135T561 119Q588 119 621 144T683 201Q686 204 690 204Q695 204
698 199T697 187Q680 168 657 148T609 113T561 99ZM-22 95Q-32 95 -32 106Q-32 110 -28 113Q17 149 46 182T110 258Q113 262 118 262Q123 262 126 257T125 246Q101 216 81 192T38 145T-16 97Q-18 95 -22 95ZM351 -4Q317 -4 295 17T272 75Q272 95 279 120T302 173Q305
178 310 178Q315 178 318 174T319 163Q304 136 298 115T291 77Q291 46 309 31T351 16Q389 16 423 36T491 89Q494 92 498 92Q503 92 506 86T504 75Q470 43 433 20T351 -4ZM94 -4Q54 -4 38 18T21 70Q21 87 26 105Q28 113 35 113Q40 113 43 110T45 101Q40 83 40 69Q40
46 53 31T94 16Q132 16 166 36T234 89Q237 92 241 92Q246 92 249 86T247 75Q213 43 176 20T94 -4Z" />
<glyph unicode="x" glyph-name="x" horiz-adv-x="421" d="M290 73Q274 73 260 83T232 116Q217 143 207 176T191 241T181 295T178 325Q177 345 168 358T144 371Q134 371 120 361T92 324Q79 302 58 267T8 187Q5 183 1 183Q-5 183 -8 188T-8 199Q21 242 41 277T74
334Q91 365 109 378T144 391Q166 391 181 373T198 326Q198 320 201 298T210 246T226 184T250 126Q259 109 270 102T293 94Q316 94 339 114T382 159T413 199Q416 203 421 203Q426 203 430 198T429 187Q415 169 393 142T344 94T290 73ZM253 187Q248 187 245 192T246
204Q277 239 309 274T369 347Q372 352 372 354Q372 361 365 365T349 369Q337 369 331 362Q319 348 301 327T269 289T251 268Q248 264 243 264Q238 264 235 269T235 280L316 376Q322 384 330 387T347 390Q364 390 378 380T392 353Q392 344 386 335Q358 297 325 261T260
190Q257 187 253 187ZM-7 95Q-13 95 -16 101T-14 112Q36 160 66 207T108 274Q111 279 117 279Q122 279 126 275T126 264Q115 244 83 196T0 98Q-3 95 -7 95ZM286 -10Q250 -10 216 12T157 76T122 182V184Q122 193 132 193Q141 193 142 185Q151 125 174 86T227 29T286
10Q316 10 343 25T380 54Q383 58 387 58Q393 58 397 53T396 42Q384 26 353 8T286 -10ZM47 -27Q31 -27 17 -17T2 9Q2 20 9 28Q19 42 41 69T91 128Q94 131 98 131Q104 131 108 126T107 114Q79 83 57 57T25 16Q23 14 23 9Q23 2 30 -2T46 -6Q57 -6 63 1Q82 22 98 41T118
66Q121 70 126 70Q131 70 134 65T133 54Q129 49 113 30T78 -13Q72 -20 64 -23T47 -27Z" />
<glyph unicode="y" glyph-name="y" horiz-adv-x="452" d="M146 62Q130 62 124 74T115 99Q113 125 119 163T140 246T181 331Q183 335 179 343T156 356Q153 357 150 357T143 358Q130 358 117 351T92 324Q79 302 57 262T8 187Q5 183 0 183Q-5 183 -8 188T-8 199Q18
234 40 273T74 334Q88 358 106 368T143 378Q167 378 185 366T203 336Q203 329 198 321Q164 266 149 209T134 115Q134 96 137 89T147 82Q156 82 167 92T187 114T197 128Q214 152 231 189T263 265T289 332Q297 354 319 365T363 377Q382 377 395 368T409 339Q409 335
409 332T407 323Q405 314 396 288T376 232T356 178T345 149Q342 143 337 143Q332 143 329 147T327 157Q329 162 337 185T356 238T376 293T387 327Q388 331 388 337Q388 348 381 352T364 357Q348 357 331 348T307 324Q301 308 289 277T262 209T227 139T188 84T146
62ZM-7 95Q-13 95 -16 101T-14 112Q24 149 44 181T90 257Q93 262 99 262Q104 262 108 258T108 247Q83 202 61 169T0 98Q-3 95 -7 95ZM-49 -301Q-73 -301 -94 -288T-112 -242Q-112 -233 -103 -233Q-99 -233 -96 -236T-93 -244Q-95 -263 -83 -272T-49 -281Q0 -281
46 -257T132 -191T207 -100T267 1T309 95Q312 100 322 106Q356 124 388 146T444 199Q447 204 452 204Q457 204 461 198T460 187Q431 148 395 125T326 85Q310 42 284 -10T223 -113T145 -206T53 -275T-49 -301ZM137 -4Q104 -4 84 12T54 53T46 103Q46 113 56 113Q66
113 66 103Q65 68 82 42T137 16Q161 16 188 41T241 106T290 191Q293 197 299 197Q304 197 307 193T308 183Q287 140 259 97T200 25T137 -4ZM-44 -231Q-57 -231 -70 -224T-84 -199Q-84 -196 -84 -193T-82 -187Q-77 -169 -57 -147T-7 -102T50 -62T98 -38Q99 -37 102
-37Q112 -37 112 -48Q112 -53 106 -56Q88 -63 62 -79T8 -115T-39 -156T-63 -192Q-63 -193 -63 -194T-64 -197Q-64 -211 -45 -211Q-17 -211 17 -191T87 -138T151 -70T198 -5Q201 0 207 0Q212 0 216 -4T216 -15Q199 -45 169 -82T101 -153T26 -209T-44 -231Z" />
<glyph unicode="z" glyph-name="z" horiz-adv-x="412" d="M178 124Q173 124 170 129T171 141Q207 181 241 205T322 251Q340 259 361 276T382 315Q382 323 377 330T356 337Q349 337 343 337T330 336Q296 336 263 342T197 349Q150 349 116 326T81 264Q81 237 101
215Q104 212 104 208Q104 197 94 197Q90 197 86 201Q60 228 60 263Q60 296 79 320T130 357T197 370Q235 370 272 362T349 357Q376 360 389 348T402 318Q402 302 392 284T363 251Q347 239 329 232T292 214Q271 203 245 184T185 127Q182 124 178 124ZM138 227Q134
227 131 231Q120 245 120 263Q120 292 141 308T196 324Q227 324 264 317T327 306Q336 305 336 296Q336 284 325 286Q302 290 265 297T198 304Q140 304 140 263Q140 254 147 243Q149 241 149 237Q149 227 138 227ZM99 128Q94 128 91 133T92 145Q141 195 174 221T224
256T241 265Q242 266 245 266Q255 266 255 255Q255 250 249 247Q249 247 240 243T214 226Q197 214 170 191T106 131Q103 128 99 128ZM276 -19Q236 -19 204 -4T143 26T86 42Q68 42 61 33T54 16Q54 6 58 3Q61 0 61 -4Q61 -15 51 -15Q47 -15 43 -11Q32 0 32 15Q32
35 47 48T88 62Q116 62 147 46T212 15T276 -1Q312 -1 332 20T352 67Q352 81 346 94T326 118Q322 121 322 126Q322 131 327 135T338 134Q356 120 364 103T372 68Q372 34 346 8T276 -19ZM297 42Q268 42 244 51T197 73T149 94T94 104Q54 104 35 88T16 55V53Q16 43
6 43Q3 43 0 45T-4 52Q-4 84 24 104T96 124Q126 124 151 115T199 93T246 72T297 62Q308 62 308 52Q308 42 297 42Z" />
<glyph unicode="{" glyph-name="braceleft" horiz-adv-x="300" d="M237 -73Q154 -73 107 -39T59 74Q59 94 62 114T67 152Q69 163 60 182T39 226T18 272T11 309Q11 324 23 347T52 394T80 439T93 471Q92 507 94 544T115 614Q134 649 176 671T292 695Q315 695 324
686T334 665Q334 649 321 635T287 621Q245 621 223 613T193 583T184 515Q184 499 184 488T185 465Q185 448 182 434T168 404T134 360Q129 353 125 349T119 340Q116 335 111 335Q106 335 102 340T102 351Q112 367 126 383T152 418T164 456Q164 473 164 489T163 520Q163
556 170 583T204 626T287 641Q297 641 306 649T315 664Q315 675 292 675Q214 675 175 650T124 580T113 471Q113 457 101 435T73 388T45 342T31 309L30 307Q29 295 38 275T59 231T79 185T86 149Q83 130 81 112T79 76Q79 37 92 8T140 -37T237 -53Q251 -53 256 -49T262
-39Q262 -32 255 -26T239 -20Q180 -20 154 -3T127 63Q127 98 133 122T140 169Q140 183 137 196T123 226Q114 242 105 255T91 276Q90 278 90 281Q90 291 100 291Q106 291 109 285Q123 259 142 233T161 175Q161 169 158 149T151 105T147 60Q147 45 150 34Q155 18
174 9T239 0Q259 0 270 -13T282 -40Q282 -53 272 -63T237 -73Z" />
<glyph unicode="|" glyph-name="bar" horiz-adv-x="562" d="M153 -173Q143 -173 143 -163L142 752Q142 778 157 790T191 803Q212 803 229 789T247 745L246 -99Q246 -109 236 -109Q226 -109 226 -99L227 745Q227 764 216 773T191 783Q180 783 171 776T162 752L163
-163Q163 -173 153 -173Z" />
<glyph unicode="}" glyph-name="braceright" horiz-adv-x="296" d="M25 -73Q2 -73 -8 -64T-18 -43Q-18 -28 -5 -14T29 0Q72 0 94 8T125 40T134 112Q134 126 134 137T133 157Q133 174 136 188T150 219T183 262Q188 268 192 273T198 282Q201 287 206 287Q211 287
215 282T215 271Q205 255 190 239T164 205T152 166Q152 148 152 132T153 99Q153 64 145 37T111 -5T29 -20Q20 -20 11 -27T2 -42Q2 -53 25 -53Q104 -53 142 -29T193 42T204 150Q204 164 216 186T244 233T273 279T286 313V315Q286 327 277 347T256 391T236 437T230
473Q233 493 235 512T237 548Q237 587 224 615T176 659T80 675Q66 675 60 671T54 661Q54 654 61 648T77 641Q136 641 162 624T189 559Q189 524 183 500T176 452Q176 439 179 426T193 395Q202 379 212 367T226 346Q227 344 227 341Q227 337 224 334T216 331Q211
331 208 336Q194 363 175 389T156 447Q156 454 159 472T166 515T170 559Q170 577 166 588Q161 604 143 612T77 621Q58 621 46 634T34 661Q34 675 45 685T80 695Q164 694 211 660T258 546Q258 527 256 507T250 469Q249 459 257 439T278 395T299 349T306 312Q306
297 294 275T265 228T236 183T224 151Q225 115 222 78T201 8Q182 -27 141 -50T25 -73Z" />
<glyph unicode="~" glyph-name="asciitilde" horiz-adv-x="1000" d="M368 381Q341 381 321 390T285 413T254 435T220 445Q214 445 203 438T182 423T164 412Q156 408 146 408Q130 408 120 422T110 453Q110 464 114 474T128 493Q151 513 168 524T220 535Q251 535
274 526T313 503T343 481T368 471Q378 471 378 461Q378 451 368 451Q352 451 338 460T307 483T270 505T220 515Q189 515 175 505T141 478Q129 468 129 450Q129 442 133 436T145 429Q155 429 168 438Q179 445 193 455T220 465Q242 465 259 456T291 433T325 411T368
401Q393 401 418 411T461 438T485 473Q488 484 488 490Q488 502 476 502Q465 502 450 495T428 488Q424 488 424 492Q424 496 428 503Q435 516 444 521T462 526Q479 526 492 512T506 479Q506 476 506 473T504 467Q497 444 475 424T425 393T368 381Z" />
<glyph unicode="&#xa0;" glyph-name="uni00A0" horiz-adv-x="237" />
<glyph unicode="&#xa1;" glyph-name="exclamdown" horiz-adv-x="259" d="M149 267Q130 281 130 305Q130 324 143 337T176 351Q196 351 209 338T223 305Q223 286 210 273Q207 270 203 270Q197 270 194 275T195 286Q203 294 203 305Q203 316 195 323T176 331Q166
331 158 324T150 305Q150 291 161 283Q165 280 165 275Q165 270 160 267T149 267ZM-47 -192Q-67 -192 -82 -182T-97 -153Q-97 -141 -90 -128Q-76 -102 -39 -40T49 125Q52 130 58 130Q63 130 66 126T67 116Q6 -8 -35 -73T-77 -153Q-77 -163 -69 -168T-50 -173Q-35
-173 -19 -164T5 -138Q13 -119 45 -36T136 174Q139 180 144 180Q149 180 152 176T154 166Q96 39 64 -43T24 -145Q14 -170 -6 -181T-47 -192Z" />
<glyph unicode="&#xa2;" glyph-name="cent" horiz-adv-x="484" d="M121 291Q116 291 113 295Q96 319 96 356Q96 397 117 442T173 526T253 591T346 616Q357 622 369 643T395 689T425 732T462 750Q465 750 468 750T475 748Q486 744 490 737T495 722Q495 705 484
687T466 657Q458 645 449 632T431 605Q428 600 423 600Q418 600 414 605T414 616Q424 631 438 650T463 688T475 719Q475 731 464 731Q448 731 436 714Q429 705 418 686T394 647T369 611T347 596Q301 596 260 572T186 511T135 432T116 354Q116 325 129 306Q131 302
131 300Q131 291 121 291ZM215 309Q189 309 169 325T149 371Q149 394 168 426T215 490T275 541T330 562Q344 562 357 555T370 532V530Q370 519 365 519Q361 519 354 528T345 538Q338 542 330 542Q311 542 284 523T231 476T187 420T169 371Q169 352 182 341T215
329Q256 329 293 345T364 387Q366 389 370 389Q380 389 380 378Q380 374 376 371Q342 343 301 326T215 309ZM375 459Q360 459 345 467T330 492Q330 505 340 505Q344 505 347 502T350 494V493Q350 486 359 483T375 479Q392 479 404 495T417 531Q417 541 427 541Q437
541 437 531Q437 507 421 483T375 459ZM85 58Q69 58 58 67T47 92Q47 105 57 121Q78 154 97 192T141 274Q144 279 149 279Q154 279 157 275T158 265Q133 220 114 182T75 111Q68 101 68 92Q68 78 84 78Q94 78 105 85T124 107Q129 116 139 139T163 189T188 238T208
267Q211 270 217 270Q255 270 290 284T355 320Q357 322 362 322Q371 322 371 313Q371 308 367 305Q336 280 298 266T220 250Q213 242 202 222T178 177T156 131T141 98Q131 77 115 68T85 58Z" />
<glyph unicode="&#xa3;" glyph-name="sterling" horiz-adv-x="906" d="M171 -3Q140 -3 114 6Q90 14 75 30T60 64Q60 87 80 99T138 112Q156 112 177 109Q209 105 238 96T295 72Q300 70 300 65Q300 61 297 58T288 57Q261 69 234 78T175 92Q153 95 137 95Q101 95
89 85T77 66Q77 55 87 42T118 21Q129 17 142 16T168 14Q186 14 205 17T240 24Q305 42 354 91T445 206T523 339Q552 391 580 439T640 525Q675 567 719 589T807 611Q841 611 867 598Q905 580 921 553T937 494Q937 457 917 420T865 352T795 308Q794 308 794 308T792
307Q784 307 784 316Q784 321 790 324Q827 338 856 365T902 426T919 493Q919 520 906 544T861 583Q837 595 808 595Q770 595 729 575T653 513Q622 476 594 428T536 328Q499 260 458 194T365 77T245 7Q228 3 209 0T171 -3ZM173 -45Q139 -45 106 -36T48 -6T13 52Q10
63 10 72Q10 110 49 134T147 158Q167 158 189 155Q226 150 261 136T331 104Q337 101 337 96Q337 92 334 89T325 88Q289 105 256 119T188 138Q176 140 166 141T144 142Q87 142 57 120T27 69Q27 64 29 56Q43 10 84 -9T174 -28Q196 -28 217 -25T258 -16Q309 -1 352
33T434 116T505 218T570 326Q594 368 617 407T665 480Q698 526 735 546T804 567Q814 567 822 565T839 560Q865 549 876 531T887 492Q887 468 876 443T847 397T810 363T774 350Q765 350 765 359Q765 367 774 367Q791 367 813 386T853 434T870 490Q870 507 862 521T833
543Q821 549 804 549Q777 549 744 531T679 468Q654 435 630 395T580 311Q542 245 501 179T409 62Q412 64 416 62Q454 44 490 32T563 19Q610 19 642 32T702 72T767 139Q770 142 773 142Q778 142 781 137T780 127Q744 87 714 59T649 17T563 2Q525 2 487 15T410 46Q404
49 404 54Q404 56 405 58Q390 43 375 31L379 30Q423 8 466 -9T555 -27Q662 -27 735 45Q740 50 744 53T751 61Q755 65 758 68T763 74Q767 76 768 76Q774 76 777 71T776 61Q772 57 769 54T761 47Q747 34 734 21T704 -3Q677 -20 641 -32T555 -44Q507 -44 461 -26T371
15Q366 18 366 22V23Q342 4 317 -10T262 -32Q221 -45 173 -45ZM330 229Q314 229 306 239T298 261Q298 272 306 282T330 292H462Q471 292 471 283Q471 275 462 275H330Q316 275 316 261Q316 247 330 247H439Q448 247 448 238Q448 229 439 229H330ZM569 229Q560 229
560 238Q560 246 569 246H647Q661 246 661 260Q661 274 647 274H593Q584 274 584 283Q584 292 593 292H647Q662 292 669 282T678 260Q678 250 670 240T647 229H569Z" />
<glyph unicode="&#xa4;" glyph-name="currency" horiz-adv-x="683" d="M155 227Q139 227 129 238T118 266Q118 288 137 306Q153 320 184 348T247 408Q235 434 235 465Q235 480 238 496Q245 528 262 555T304 603Q309 606 313 606Q323 606 323 599Q323 594 314 586Q295
570 281 547T260 496Q257 483 257 470Q257 424 287 393T367 362Q404 362 437 380T495 429T526 496Q529 511 529 526Q529 570 500 600T423 630Q387 630 346 607Q346 607 345 607Q344 606 343 606T343 606Q341 605 340 605H339V605Q333 605 329 609Q313 627 297 644T269
671Q262 679 256 686T243 699Q240 701 238 703T234 707Q229 712 221 712Q212 712 204 707T196 693Q196 687 202 678Q204 677 205 675T209 669Q212 665 216 660T224 650Q232 642 238 634T246 624Q249 620 249 615Q249 605 237 605Q229 605 224 610Q222 613 213 623T194
645T181 662Q170 677 170 690Q170 711 190 722T230 733Q247 733 255 725Q267 712 292 686T346 632Q365 641 386 646T427 652Q464 652 493 635Q530 664 560 688T606 725Q616 733 633 733Q650 733 666 725T682 699Q682 682 662 662Q658 657 645 646T620 624T604 610Q597
604 590 604Q581 604 581 612Q581 617 587 624Q589 626 597 634T616 650Q621 655 627 660T637 669L646 678Q657 689 657 697Q657 705 651 708T637 712Q628 712 621 707Q619 706 617 704T611 699Q604 693 596 686T576 671Q563 661 548 649T516 623Q514 622 513 621Q553
586 553 529Q553 511 549 496Q540 455 514 420Q539 386 561 359T595 319Q605 308 605 291Q605 272 592 255T558 237Q540 237 524 252Q520 256 510 267T490 288T478 302Q473 309 473 314Q473 326 483 326Q489 326 493 322Q500 317 517 297Q520 293 529 284T541 271Q551
263 558 263Q568 263 574 271T580 287Q580 293 577 296Q575 300 568 309T554 327T543 339Q533 351 523 364T501 392Q498 396 497 400Q470 372 435 356T362 339Q329 339 302 352T259 389Q257 385 252 379Q236 366 222 352T195 327Q189 322 174 308T154 288Q144 279
144 269Q144 251 161 251Q170 251 177 258Q179 260 191 270T210 285Q220 293 228 300T240 309Q247 314 251 314Q258 314 258 305Q258 297 251 289Q248 287 236 277T210 255T191 240Q172 227 155 227ZM379 416Q351 416 334 434T316 479Q316 483 316 486T317 494Q320
507 332 507Q342 507 342 497Q342 493 342 490T341 483Q341 465 353 454T384 442Q407 442 428 460T449 504Q449 522 438 534T407 547Q395 547 395 556Q395 561 399 566T410 571Q438 571 456 553T474 509Q474 485 460 464T425 430T379 416Z" />
<glyph unicode="&#xa5;" glyph-name="yen" horiz-adv-x="600" d="M182 248Q166 248 158 258T150 280Q150 291 158 301T182 311H309Q305 329 299 355T285 411T271 464T258 503L257 504Q254 513 254 521Q254 539 265 549T292 559Q304 559 315 552T334 529Q344 504
352 473T368 412T378 359Q404 379 435 408T496 469T546 526Q562 546 579 546Q593 546 602 533T612 505Q612 501 611 496T607 487Q595 466 573 442T511 381T405 288Q400 283 396 283Q389 283 387 289T389 300Q394 305 412 320T455 358T507 405T556 454T591 497Q595
502 595 510Q595 517 592 522T582 527Q572 527 562 514Q540 486 506 451T438 383T377 333Q375 331 370 331Q362 331 361 340Q359 358 352 390T336 458T316 521Q312 531 305 535T292 539Q275 539 275 521Q275 519 275 516T276 511Q283 495 291 468T306 409T320 349T330
306Q330 301 327 298T314 294H182Q168 294 168 280Q168 266 182 266H256Q265 266 265 257Q265 248 256 248H182ZM259 -22Q244 -22 232 -12T220 16Q220 24 226 49T244 110T268 185T294 260Q297 269 305 269Q310 269 312 266T313 257Q299 214 284 167T257 80T241
22Q241 21 241 20T240 17Q240 8 245 3T258 -2Q271 -2 275 14Q282 40 295 81T326 169T362 257Q363 259 364 261Q365 262 366 263Q368 265 371 265H372V265H499Q513 265 513 279Q513 293 499 293H459Q450 293 450 302Q450 311 459 311H499Q514 311 521 301T530 279Q530
269 522 259T499 248H379Q361 207 345 161T315 74T295 8Q291 -7 281 -14T259 -22ZM162 131Q146 131 138 141T130 163Q130 174 138 184T162 194H246Q255 194 255 185Q255 177 246 177H162Q148 177 148 163Q148 149 162 149H223Q232 149 232 140Q232 131 223 131H162ZM353
131Q344 131 344 140Q344 148 353 148H431Q445 148 445 162Q445 176 431 176H377Q368 176 368 185Q368 194 377 194H431Q446 194 453 184T462 162Q462 152 454 142T431 131H353Z" />
<glyph unicode="&#xa6;" glyph-name="brokenbar" horiz-adv-x="562" d="M227 412V745Q227 764 216 773T191 783Q180 783 171 776T162 752V416H142V752Q142 778 157 790T191 803Q212 803 229 789T247 745V412H227ZM191 -74Q172 -74 157 -62T142 -23V325H162V-23Q162
-39 171 -46T191 -54Q205 -54 216 -45T227 -16V329H247V-16Q247 -45 230 -59T191 -74Z" />
<glyph unicode="&#xa7;" glyph-name="section" horiz-adv-x="748" d="M798 69Q788 69 788 79Q788 84 792 87Q809 100 819 121T833 163T837 201Q837 240 813 279T727 354T546 418Q453 441 415 471T376 534Q376 567 408 599T490 654Q521 669 574 680T683 691Q731
691 775 681T849 645T885 574Q886 562 898 562Q906 562 915 569T926 585Q930 625 912 652T859 695T782 719T692 726Q646 726 602 721T521 706T463 686Q396 652 354 608T311 518Q311 478 352 443T486 384Q620 352 693 307T766 202Q766 181 757 160Q754 154 749 154Q744
154 741 158T739 168Q742 176 744 184T746 200Q746 246 683 288T481 364Q378 389 335 429T291 514Q291 549 312 584T371 650T455 704Q478 715 515 724T597 740T690 746Q740 746 787 738T872 711T930 661T946 583Q945 566 930 554T897 542Q886 542 877 549T865 572Q860
609 833 630T765 662T679 672Q629 672 580 662T498 636Q454 614 425 588T396 535Q396 509 431 484T550 438Q669 410 735 372T829 291T857 201Q857 184 853 160T837 112T804 71Q802 69 798 69ZM279 -238Q183 -238 111 -210T-2 -138T-42 -46Q-42 -9 -16 25T67 85T215
124Q223 125 229 125T242 126Q271 126 283 117T295 94Q295 78 278 63T235 48Q145 48 98 19T51 -49Q51 -76 77 -102T158 -144T295 -161Q327 -161 373 -153T468 -129T559 -91T627 -39T654 25Q654 56 628 89T528 154Q483 174 436 185T345 221Q312 241 290 269T268
341Q268 358 272 378T285 420Q288 426 294 426Q299 426 302 422T303 412Q287 371 287 340Q287 297 312 270T377 227T459 199T536 172Q610 140 642 103T674 25Q674 -17 645 -50T570 -107T472 -148T373 -173T295 -181Q205 -181 147 -162T60 -112T31 -49Q31 -19 54
8T123 51T235 68Q251 68 263 76T275 93Q275 107 244 107Q239 107 233 107T218 105Q91 87 35 45T-22 -46Q-22 -88 16 -127T122 -192T279 -218Q361 -218 442 -200T591 -147T699 -67T740 36Q740 68 725 99T673 161T566 218Q549 225 522 233T463 251T404 275T359 308T341
351Q341 366 348 381Q351 387 357 387Q362 387 365 383T366 372Q361 360 361 352Q361 332 378 316T422 288T479 266T534 249T573 237Q680 196 720 144T760 36Q760 -15 731 -57T653 -133T542 -190T412 -226T279 -238Z" />
<glyph unicode="&#xa8;" glyph-name="dieresis" horiz-adv-x="209" d="M46 426Q27 426 14 439T0 472Q0 494 19 510Q23 512 25 512Q35 512 35 501Q35 496 31 493Q20 487 20 472Q20 461 28 454T47 446Q58 446 65 453T73 472Q73 481 66 490Q63 493 63 497Q63 503
69 506T80 504Q93 491 93 472Q93 453 80 440T46 426ZM135 428Q116 444 116 466Q116 486 129 499T162 512Q182 512 195 499T209 466Q209 447 196 434Q193 431 189 431Q184 431 181 436T182 448Q189 457 189 466Q189 477 182 484T163 492Q152 492 144 485T136 466Q136
451 147 445Q151 442 151 437Q151 432 146 428T135 428Z" />
<glyph unicode="&#xa9;" glyph-name="copyright" horiz-adv-x="648" d="M297 -34Q248 -34 198 -18T107 31T40 115T14 239Q14 301 38 360T106 469T211 551T349 596Q370 599 391 599Q465 599 525 565T621 472T657 336Q657 270 630 205T556 88T449 7Q447 6 444 6Q434
6 434 16Q434 22 440 25Q497 52 541 101T611 212T637 336Q637 407 605 461T516 547T391 579Q372 579 351 576Q279 566 221 535T121 456T57 354T34 239Q34 173 57 125T119 47T204 1T296 -14Q336 -14 374 -3Q375 -3 375 -3T377 -2Q387 -2 387 -13Q387 -19 380 -22Q343
-34 297 -34ZM303 25Q243 25 190 53T105 131T72 247Q72 298 92 346T150 434T238 502T349 538Q358 540 366 540T383 540Q443 540 491 513T569 438T598 328Q598 279 580 230T529 139T454 73Q450 71 449 71Q439 71 439 82Q439 88 444 90Q483 113 513 151T561 236T578
328Q578 384 552 427T483 495T384 520Q376 520 368 520T351 518Q275 508 217 467T125 367T92 247Q92 187 121 142T199 70T302 44Q342 44 382 59Q383 60 386 60Q391 60 393 57T396 49Q396 43 389 40Q368 32 346 29T303 25ZM276 108Q206 108 176 138T146 212Q146
251 166 295T222 377T304 439T402 463Q430 463 450 446T470 397Q470 375 455 352T410 328Q396 328 381 336T366 361Q366 373 376 373Q388 373 386 362V361Q386 354 395 351T410 348Q427 348 438 363T450 397Q450 418 437 430T402 443Q357 443 315 421T239 364T186
289T166 214Q166 177 191 153T276 128Q312 128 346 141T410 176Q412 178 416 178Q426 178 426 167Q426 163 422 160Q391 137 354 123T276 108ZM274 165Q249 165 230 181T210 225Q210 248 228 279T274 340T332 390T386 410Q399 410 412 403T425 381Q425 368 420
368Q415 368 409 377T400 387Q394 390 386 390Q367 390 341 372T290 327T247 272T230 225Q230 206 242 196T274 185Q334 185 387 219T479 300Q482 304 486 304Q491 304 495 298T494 287Q468 256 434 228T359 183T274 165Z" />
<glyph unicode="&#xaa;" glyph-name="ordfeminine" horiz-adv-x="275" d="M171 521Q145 521 145 549Q145 561 153 580Q161 597 172 617T195 654T213 681Q217 686 217 692Q217 699 210 699Q205 699 197 694T179 675Q175 671 172 666T165 655Q162 651 160 647T154
638L144 623Q137 612 131 601T117 581Q76 522 46 522Q28 522 23 535T18 557Q18 572 28 593T56 635T92 669T129 683Q142 683 142 672Q142 663 130 663Q117 663 101 652T71 623T47 588T38 557Q38 542 46 542Q59 542 76 562T112 611T145 661Q147 665 149 668T153 674Q160
683 161 686Q172 703 185 710T208 718Q221 718 229 710T237 690Q237 681 231 670Q226 663 216 647T194 612T174 577Q165 559 165 550Q165 542 173 542Q187 542 205 554T240 582T267 612Q270 616 275 616Q280 616 283 611T284 601Q272 586 252 567T211 535T171 521ZM0
596Q-5 596 -9 601T-9 611Q5 631 25 654T70 695T125 712Q136 712 153 707Q159 704 159 699Q159 694 155 691T144 688V689H142Q141 689 141 689T139 690Q131 692 125 692Q102 692 81 678T41 642T9 601Q7 596 0 596ZM152 483Q123 483 111 499T98 534Q98 542 100 549T105
564Q108 569 114 569Q119 569 122 565T123 554Q117 545 117 534Q117 522 125 513T152 503Q173 503 193 513T233 537Q237 539 238 539Q248 539 248 528Q248 523 244 519Q225 505 203 494T152 483ZM37 485Q15 485 -1 499T-16 542Q-16 552 -6 552Q4 552 4 543Q4 522
14 513T37 503Q62 503 77 524Q82 529 86 529Q91 529 94 524T95 513Q85 500 69 493T37 485Z" />
<glyph unicode="&#xab;" glyph-name="guillemotleft" horiz-adv-x="565" d="M380 -19Q367 -19 353 -8T327 29Q310 73 291 115T252 201Q248 209 246 216T244 230Q244 240 249 248T262 265Q271 274 285 286T316 311Q348 335 392 370T481 432Q501 444 518 444Q543
444 553 416Q555 412 555 409T555 401Q555 388 548 375T526 351Q486 326 449 297T374 242Q370 240 369 240Q359 240 359 253Q359 259 363 262Q401 288 438 315T515 371Q525 378 529 387T534 404Q534 422 518 422Q510 422 501 417Q484 407 453 385T386 336T322 286Q309
275 299 266T280 248Q272 241 272 228Q272 221 275 211T283 187Q300 149 317 111T348 37Q356 18 365 10T381 1Q400 1 400 28Q400 36 397 46Q394 56 384 79T361 129T339 179Q338 180 338 183Q338 193 350 193Q356 193 359 187Q369 164 381 137T404 87T418 53Q422
42 422 29Q422 8 410 -5T380 -19ZM136 -19Q123 -19 109 -8T83 29Q66 73 47 115T8 201Q4 209 2 216T0 230Q0 240 5 248T18 265Q27 274 41 286T72 311Q104 335 148 370T237 432Q257 444 274 444Q299 444 309 416Q311 412 311 409T311 401Q311 388 304 375T282 351Q242
326 205 297T130 242Q126 240 125 240Q115 240 115 253Q115 259 119 262Q157 288 194 315T271 371Q281 378 285 387T290 404Q290 422 274 422Q266 422 257 417Q240 407 209 385T142 336T78 286Q65 275 55 266T36 248Q28 241 28 228Q28 221 31 211T39 187Q56 149
73 111T104 37Q112 18 121 10T137 1Q156 1 156 28Q156 36 153 46Q150 56 140 79T117 129T95 179Q94 180 94 183Q94 193 106 193Q112 193 115 187Q125 164 137 137T160 87T174 53Q178 42 178 29Q178 8 166 -5T136 -19Z" />
<glyph unicode="&#xac;" glyph-name="logicalnot" horiz-adv-x="600" d="M442 52Q425 52 412 61T398 89Q398 100 402 109Q406 119 413 141T429 187T440 222Q443 231 443 237Q443 248 433 251T398 255H91Q75 255 75 266Q75 275 91 275H398Q430 275 447 270T465
243Q465 238 464 231T460 216Q457 205 449 183T433 137T420 101Q418 97 418 91Q418 81 425 77T443 72Q452 72 461 76T474 91Q482 110 493 143T518 211T540 275Q545 292 545 299Q545 328 493 328H103Q88 328 88 337Q88 341 92 344T103 348H493Q564 348 564 301Q564
287 558 269Q549 241 536 205T512 136T492 83Q486 67 472 60T442 52Z" />
<glyph unicode="&#xad;" glyph-name="uni00AD" horiz-adv-x="387" d="M64 230Q40 230 28 245T16 279Q16 296 28 311T64 327H318Q347 327 362 312T377 279Q377 261 362 246T318 230Q308 230 308 240Q308 250 318 250Q336 250 345 259T354 279Q354 290 346 298T318
307H64Q50 307 43 299T36 279Q36 268 43 259T64 250H263Q273 250 273 240Q273 230 263 230H64Z" />
<glyph unicode="&#xae;" glyph-name="registered" horiz-adv-x="648" d="M297 -34Q248 -34 198 -18T107 31T40 115T14 239Q14 301 38 360T106 469T211 551T349 596Q370 599 391 599Q465 599 525 565T621 472T657 336Q657 270 630 205T556 88T449 7Q447 6 444 6Q434
6 434 16Q434 22 440 25Q497 52 541 101T611 212T637 336Q637 407 605 461T516 547T391 579Q372 579 351 576Q279 566 221 535T121 456T57 354T34 239Q34 173 57 125T119 47T204 1T296 -14Q336 -14 374 -3Q375 -3 375 -3T377 -2Q387 -2 387 -13Q387 -19 380 -22Q343
-34 297 -34ZM303 25Q243 25 190 53T105 131T72 247Q72 298 92 346T150 434T238 502T349 538Q358 540 366 540T383 540Q443 540 491 513T569 438T598 328Q598 279 580 230T529 139T454 73Q450 71 449 71Q439 71 439 82Q439 88 444 90Q483 113 513 151T561 236T578
328Q578 384 552 427T483 495T384 520Q376 520 368 520T351 518Q275 508 217 467T125 367T92 247Q92 187 121 142T199 70T302 44Q342 44 382 59Q383 60 386 60Q391 60 393 57T396 49Q396 43 389 40Q368 32 346 29T303 25ZM402 235Q392 235 392 245Q392 251 399
254Q435 270 463 295T491 353Q491 383 473 403T427 436T367 453T310 458Q300 458 300 468Q300 478 310 478Q334 478 368 473T434 455T489 417T511 353Q511 325 495 303T455 264T407 236Q405 235 402 235ZM375 86Q351 86 340 110Q332 130 319 152T295 197T285 243V244Q274
214 264 185T247 133Q242 117 230 109T204 101Q190 101 179 109T167 133Q167 136 167 139T169 146Q183 191 201 241T237 340T269 430Q272 437 279 437Q284 437 287 434T288 424Q274 383 256 334T220 235T188 140Q187 138 187 134Q187 127 192 124T203 121Q211 121
218 125T228 139Q237 169 251 209T281 290T308 362T326 408Q328 415 336 415Q348 415 367 412T406 401T438 382T451 353Q451 336 437 325T400 306T356 289T320 271T305 243Q305 224 315 202T338 158T358 118Q364 106 376 106Q384 106 390 111T397 125Q397 128 395
134Q385 158 371 180T348 227Q348 228 348 228T347 230Q347 240 358 240Q364 240 367 233Q375 209 389 187T413 142Q417 134 417 125Q417 108 404 97T375 86ZM343 395Q336 378 324 346T297 277Q312 294 336 303T386 320T425 343Q431 348 431 353Q431 367 413 376T374
390T343 395Z" />
<glyph unicode="&#xaf;" glyph-name="overscore" horiz-adv-x="274" d="M48 433Q24 433 12 446T0 472Q0 485 12 495T48 506H222Q246 506 260 496T274 472Q274 458 260 446T222 433Q212 433 212 442Q212 451 222 451Q251 451 251 473Q251 480 243 484T222 488H48Q20
488 20 472Q20 465 27 458T48 451H167Q177 451 177 442Q177 433 167 433H48Z" />
<glyph unicode="&#xb0;" glyph-name="degree" horiz-adv-x="364" d="M121 523Q102 537 91 558T80 604Q80 646 109 675T180 705Q222 705 251 676T281 604Q281 564 254 535Q251 532 247 532Q241 532 238 537T239 549Q261 571 261 604Q261 638 238 661T180 685Q147
685 124 662T100 604Q100 562 133 539Q137 536 137 531Q137 526 132 523T121 523Z" />
<glyph unicode="&#xb1;" glyph-name="plusminus" horiz-adv-x="492" d="M283 287Q273 287 273 297V482Q273 496 264 503T244 511Q233 511 224 504T215 482V359Q215 349 205 349Q195 349 195 359V482Q195 506 210 518T244 531Q262 531 277 519T293 482V297Q293
287 283 287ZM64 230Q40 230 28 245T16 279Q16 296 28 311T64 327H177Q187 327 187 317Q187 307 177 307H64Q50 307 43 299T36 279Q36 268 43 259T64 250H173Q183 250 183 240Q183 230 173 230H64ZM307 230Q297 230 297 240Q297 250 307 250H423Q438 250 445 258T452
278Q452 289 445 298T423 307H325Q315 307 315 317Q315 327 325 327H423Q448 327 460 312T472 278Q472 260 460 245T423 230H307ZM244 23Q226 23 211 35T195 71V261Q195 272 205 272Q215 272 215 261V71Q215 57 224 50T244 43Q255 43 264 50T273 71V212Q273 222
283 222Q293 222 293 212V71Q293 47 278 35T244 23ZM64 -117Q40 -117 28 -102T16 -68Q16 -50 28 -35T64 -20H423Q453 -20 467 -34T482 -67Q482 -86 467 -101T423 -117Q413 -117 413 -107Q413 -97 423 -97Q440 -97 449 -87T458 -66Q458 -56 450 -48T423 -40H64Q50
-40 43 -48T36 -68Q36 -79 43 -88T64 -97H368Q378 -97 378 -107Q378 -117 368 -117H64Z" />
<glyph unicode="&#xb2;" glyph-name="uni00B2" horiz-adv-x="368" d="M13 367Q3 367 3 379Q3 396 17 408T53 426Q51 430 55 435Q68 449 92 467T143 506Q176 531 204 553T238 585Q248 601 248 616Q248 636 231 647T192 659Q172 659 154 647T130 609Q130 608 130
607T129 603Q129 596 131 590T137 578Q140 572 142 566T145 553Q145 542 135 532Q126 522 114 522Q94 522 76 548T58 608Q58 639 78 670T153 719Q173 726 195 726Q229 726 259 711T309 671T329 615Q329 598 322 580T297 542Q280 522 258 508T212 479Q191 466 172
454T138 426Q135 423 132 423Q128 423 125 428T127 438Q142 455 162 468T203 494Q226 507 247 521T286 554Q311 583 311 614Q311 640 296 661T256 696T201 710Q179 710 159 703Q119 690 97 663T74 605Q74 591 79 577T97 549Q108 540 114 540Q127 540 127 555Q127
561 122 568Q111 582 111 602Q111 630 134 653T192 677Q220 677 243 660T266 614Q266 606 264 597T255 576Q247 563 218 540T154 492Q131 474 109 458T72 428H75Q95 428 119 422T168 407Q197 399 224 392T275 385Q284 385 284 376Q284 367 275 367Q250 367 222
374T167 389Q148 395 129 400T92 408Q87 409 83 409T73 410Q46 410 33 399T21 377V375Q21 367 13 367ZM261 325Q236 325 209 332T153 346Q133 352 114 357T75 365H68Q56 365 52 360T47 350Q47 345 50 342Q53 339 53 336Q53 331 48 328T37 330Q29 338 29 349Q29
362 39 373T69 384Q89 384 111 378T155 364Q183 357 210 350T261 343Q285 343 298 357T312 387Q312 407 295 420Q291 423 291 428Q291 433 296 436T305 436Q330 415 330 388Q330 364 312 345T261 325Z" />
<glyph unicode="&#xb3;" glyph-name="uni00B3" horiz-adv-x="367" d="M140 309Q78 309 45 339T13 422Q13 430 22 430Q33 430 31 421Q30 375 58 351T140 327Q194 327 232 349T289 403T309 464Q309 491 292 510T237 529Q228 529 228 538Q228 547 237 547Q253 547
267 543V544Q267 549 272 552Q296 566 309 587T322 631Q322 657 302 676T235 695Q211 695 180 690T126 662Q123 659 120 659Q115 659 112 664T113 675Q132 693 155 701T201 711T236 713Q292 713 315 690T339 635Q339 607 324 580T284 538Q306 527 316 508T327 465Q327
431 306 395T242 334T140 309ZM148 350Q111 350 88 370T65 419Q65 429 67 438T77 458Q80 462 85 462Q90 462 93 458T93 448Q83 434 83 419Q83 398 100 383T148 368Q174 368 198 382T237 417T253 457Q253 478 231 492T155 503Q132 502 123 509T113 526Q113 538 125
549T154 561Q192 561 216 571T253 597Q268 615 268 629Q268 643 255 649T225 656Q206 656 188 649T161 629Q158 624 153 624Q149 624 146 628T146 638Q157 656 178 664T221 673Q247 673 267 662T287 630Q287 610 267 586Q231 543 154 543Q147 543 139 538T131 528Q131
520 154 521Q219 525 245 506T272 460Q272 436 255 411T209 368T148 350Z" />
<glyph unicode="&#xb4;" glyph-name="acute" horiz-adv-x="207" d="M115 420Q95 420 95 446Q95 458 96 466T106 482L133 509Q134 511 138 511Q143 511 148 506T147 495L122 470Q115 463 114 459T113 446Q113 440 114 440T120 443Q124 446 139 458T172 486T207
514T229 533Q229 533 229 533T230 535Q230 537 227 540T212 552Q203 560 197 554Q178 532 171 525Q169 523 166 523Q160 523 157 529T157 540Q165 548 171 555T181 566Q190 577 202 577Q214 577 224 568Q251 547 251 534Q251 527 243 519Q236 513 220 500T185 471T151
443T132 427Q124 420 115 420Z" />
<glyph unicode="&#xb5;" glyph-name="uni03BC" horiz-adv-x="485" d="M111 56Q97 67 97 92Q97 113 106 138T128 189T154 234T174 263Q189 282 200 296T213 313Q223 327 223 339Q223 354 210 362T180 371Q163 371 154 363Q140 350 125 333T92 292Q74 269 54 243T8
187Q5 183 0 183Q-5 183 -8 188T-8 199Q18 228 38 255T76 304Q94 327 109 345T141 378Q155 391 179 391Q203 391 223 377T244 339Q244 322 229 301Q208 274 184 240T141 170T118 98V91Q118 76 124 71Q128 68 128 63Q128 58 122 55T111 56ZM159 75Q149 75 149 85Q149
91 155 94Q203 120 237 165T297 262T347 359Q353 371 364 376T389 382Q412 382 432 367T453 329Q453 312 440 295Q437 291 432 291Q427 291 424 296T424 307Q433 319 433 330Q433 345 419 353T391 361Q383 361 376 358T365 349Q340 302 313 249T251 149T164 76Q162
75 159 75ZM340 53Q334 53 331 54Q317 59 312 69T306 92Q306 109 313 127T328 163T342 189Q353 210 364 231T386 265Q389 269 394 269Q399 269 403 264T402 253Q380 224 363 190T331 122Q325 109 325 95Q325 74 341 74Q349 74 364 83Q398 105 425 137T477 199Q480
203 484 203Q490 203 493 198T492 186Q485 177 468 156T427 111T381 70T340 53ZM-29 -263Q-65 -263 -81 -245T-97 -192Q-97 -153 -79 -99Q-67 -64 -49 -19T-9 71T31 153T62 206L78 196Q67 179 49 143T10 63T-29 -26T-59 -105Q-67 -130 -71 -150T-75 -187Q-75 -243
-29 -243Q-3 -243 11 -225T26 -188Q26 -176 19 -168T-3 -159Q-13 -159 -18 -157T-24 -146Q-24 -134 -17 -113T2 -69T25 -27Q29 -20 36 -20Q44 -20 44 -28Q44 -32 41 -37Q32 -52 22 -76T4 -119T-3 -139Q23 -139 34 -153T46 -187Q46 -213 26 -238T-29 -263ZM99 -4Q68
-4 48 14Q44 17 44 22Q44 27 49 31T60 30Q77 16 102 16Q134 16 176 43T258 130Q261 135 266 135Q271 135 275 130T274 118Q232 56 186 26T99 -4ZM310 -5Q291 -5 269 1T234 27Q232 31 232 33Q232 43 242 43Q247 43 250 39Q259 26 276 21T310 15Q336 15 368 26T434
62Q436 64 440 64Q450 64 450 54Q450 49 446 46Q411 19 376 7T310 -5Z" />
<glyph unicode="&#xb6;" glyph-name="paragraph" horiz-adv-x="562" d="M171 -286Q159 -286 151 -280T143 -259Q143 -248 151 -227Q157 -212 171 -171T207 -71T252 57T301 198T350 337T393 458T424 547T438 589Q443 604 443 612Q443 630 417 630Q391 630 357 624T291
603T234 562T202 494Q199 479 199 467Q199 438 211 423T242 402T274 397Q288 397 288 386Q288 377 274 377Q259 377 237 384T197 411T179 468Q179 482 182 498Q190 544 217 573T281 619T353 643T417 650Q462 650 462 613Q462 600 456 583Q454 576 442 542T411 453T369
331T320 192T270 51T225 -77T190 -178T169 -235Q168 -240 167 -244T165 -252Q165 -267 181 -267Q197 -267 220 -253T252 -220Q256 -213 268 -178T300 -89T343 33T392 173T442 317T488 451T526 560Q537 593 544 616T556 647Q562 667 562 679Q562 710 528 710H434Q345
710 276 684T163 611T110 499Q107 480 107 462Q107 393 148 351T260 309Q276 309 276 300Q276 296 272 293T260 289Q180 289 134 337T87 463Q87 482 90 503Q101 572 147 623T266 702T434 730H528Q536 730 549 727T572 713T582 681Q582 673 581 663T574 641Q571
632 564 610T544 554Q528 507 507 444T461 310T411 166T363 26T320 -96T287 -185T270 -228Q264 -241 247 -254T209 -277T171 -286ZM320 -278Q314 -278 314 -271Q314 -265 316 -261L666 715Q672 730 681 730Q689 730 689 720Q689 717 687 711L336 -265Q330 -278
320 -278Z" />
<glyph unicode="&#xb7;" glyph-name="middot" horiz-adv-x="200" d="M85 202Q66 218 66 240Q66 260 79 273T112 286Q132 286 145 273T159 240Q159 221 146 208Q143 205 139 205Q134 205 131 210T132 222Q139 231 139 240Q139 251 132 258T113 266Q102 266 94 259T86
240Q86 225 97 219Q101 216 101 211Q101 206 96 202T85 202Z" />
<glyph unicode="&#xb8;" glyph-name="cedilla" horiz-adv-x="171" d="M79 -184Q66 -184 51 -181T25 -171Q12 -163 6 -152T0 -128Q0 -116 6 -107T25 -98Q27 -98 29 -98T35 -100L38 -101Q49 -107 59 -112T79 -118Q86 -118 89 -116Q92 -114 92 -109Q92 -100 82 -87Q77
-81 68 -68T59 -40Q59 -29 63 -24T72 -19Q84 -19 79 -33Q75 -44 83 -55T98 -75Q112 -94 112 -110Q112 -127 99 -134Q89 -139 81 -139Q67 -139 54 -132T29 -119H28Q20 -119 20 -129Q20 -144 35 -153Q53 -164 79 -164Q145 -164 151 -121Q153 -110 142 -93T118 -58T103
-27Q101 -5 109 7T130 24Q132 25 135 25Q145 25 145 17Q145 9 136 6Q129 3 125 -4T123 -27Q125 -39 138 -55T162 -88T171 -123Q163 -184 79 -184Z" />
<glyph unicode="&#xb9;" glyph-name="uni00B9" horiz-adv-x="361" d="M120 398Q110 398 110 408Q111 415 120 439T144 495T173 557Q166 553 159 553Q146 553 136 563T126 585Q126 595 133 601Q148 616 172 638T219 682T257 716Q268 726 284 726Q303 726 318 714T333
684Q333 671 318 657L315 654Q314 652 312 650T308 646Q303 642 298 637T289 625Q284 615 269 587T238 526Q221 493 208 465T192 427Q191 419 182 419Q171 419 174 429Q177 443 189 470T218 530T250 590T273 634Q278 644 285 651T301 665Q305 669 307 670Q314 678
314 687Q314 698 305 703T286 709Q275 709 269 703Q255 691 231 670T184 626T145 589Q143 587 143 585Q143 581 147 577T157 572Q163 572 168 576Q170 577 173 577Q178 577 181 572Q192 594 200 610T213 633Q217 637 220 637Q225 637 228 632T229 622Q224 615 212
593T186 542T159 483T138 433T128 407Q128 398 120 398ZM36 333Q19 333 11 341T3 359Q3 374 17 388T56 403H96Q105 403 105 394Q105 385 96 385Q91 385 86 385T76 386H56Q41 386 32 378T22 361Q22 351 36 351H226Q230 351 237 359T245 375Q245 385 227 385H167Q158
385 158 394Q158 403 167 403H227Q247 403 254 396T262 377Q262 362 251 348T226 333H36Z" />
<glyph unicode="&#xba;" glyph-name="ordmasculine" horiz-adv-x="206" d="M155 592Q150 592 146 597T146 608Q164 634 164 657Q164 673 155 682T126 692Q96 692 68 666T8 599Q5 595 0 595Q-5 595 -8 600T-8 612Q22 653 55 682T126 712Q158 712 171 696T184 658Q184
625 164 597Q160 592 155 592ZM47 518Q18 518 18 553Q18 572 29 594T57 636T93 669T129 682Q142 682 142 672Q142 662 129 662Q117 662 102 651T72 623T48 587T38 553Q38 538 47 538Q49 538 51 538T57 540Q70 545 81 555T97 574Q100 579 106 579Q111 579 114 575T115
564Q109 553 95 540T64 521Q55 518 47 518ZM149 565Q127 565 112 578T96 615Q96 623 98 631T104 649Q108 654 114 654Q119 654 122 650T123 640Q116 626 116 614Q116 600 125 592T148 584Q175 584 197 611Q202 616 206 616Q211 616 214 611T215 600Q200 582 183
574T149 565ZM48 480Q20 480 1 499T-16 542Q-16 552 -6 552Q-2 552 1 549T4 540Q3 526 15 513T46 499Q59 499 74 507T103 534Q109 541 115 548T123 559Q126 564 131 564Q136 564 139 560T141 549Q135 540 126 531L120 522Q103 500 84 490T48 480Z" />
<glyph unicode="&#xbb;" glyph-name="guillemotright" horiz-adv-x="565" d="M291 -19Q266 -19 256 9Q255 13 255 16T254 24Q254 38 261 51T283 74Q324 100 361 128T435 183Q439 185 440 185Q450 185 450 172Q450 166 446 163Q409 137 372 110T294 54Q284 47 280
38T275 21Q275 3 291 3Q299 3 308 8Q325 19 356 41T423 89T487 139Q501 150 511 160T529 177Q537 184 537 197Q537 205 534 215T526 238Q510 276 493 314T461 388Q454 408 445 416T428 424Q409 424 409 397Q409 390 412 379Q416 369 426 346T448 296T470 246Q471
245 471 242Q471 232 459 232Q453 232 450 238Q440 261 428 288T406 338T391 372Q387 383 387 396Q387 417 399 430T429 444Q443 444 457 433T482 396Q499 353 518 310T557 224Q562 216 563 209T565 195Q565 185 560 177T547 160Q538 151 524 139T493 114Q462 90
417 55T328 -7Q309 -19 291 -19ZM47 -19Q22 -19 12 9Q11 13 11 16T10 24Q10 38 17 51T39 74Q80 100 117 128T191 183Q195 185 196 185Q206 185 206 172Q206 166 202 163Q165 137 128 110T50 54Q40 47 36 38T31 21Q31 3 47 3Q55 3 64 8Q81 19 112 41T179 89T243
139Q257 150 267 160T285 177Q293 184 293 197Q293 205 290 215T282 238Q266 276 249 314T217 388Q210 408 201 416T184 424Q165 424 165 397Q165 390 168 379Q172 369 182 346T204 296T226 246Q227 245 227 242Q227 232 215 232Q209 232 206 238Q196 261 184 288T162
338T147 372Q143 383 143 396Q143 417 155 430T185 444Q199 444 213 433T238 396Q255 353 274 310T313 224Q318 216 319 209T321 195Q321 185 316 177T303 160Q294 151 280 139T249 114Q218 90 173 55T84 -7Q65 -19 47 -19Z" />
<glyph unicode="&#xbc;" glyph-name="onequarter" horiz-adv-x="803" d="M79 9Q74 9 71 15T72 26Q98 56 141 104T238 212T349 334T461 458T563 570T642 658T686 707Q699 722 714 728T742 735Q761 735 774 725T787 697Q787 679 770 659Q751 637 716 598T634 509T537
402T434 288T335 179T251 86T192 19Q189 15 185 15Q180 15 176 21T177 33Q199 58 236 99T320 192T419 301T522 414T619 521T700 611T755 672Q767 687 767 697Q767 715 743 715Q733 715 722 710T701 694Q690 681 658 645T578 558T476 445T364 321T254 199T157 92T87
13Q84 9 79 9ZM149 405Q139 405 139 415Q140 422 149 446T173 502T202 564Q195 560 188 560Q175 560 165 570T155 592Q155 602 162 608Q177 623 201 645T248 689T286 723Q297 733 313 733Q332 733 347 721T362 691Q362 678 347 664L344 661Q343 659 341 657T337
653Q332 649 327 644T318 632Q313 622 298 594T267 533Q250 500 237 472T221 434Q220 426 211 426Q200 426 203 436Q206 450 218 477T247 537T279 597T302 641Q307 651 314 658T330 672Q334 676 336 677Q343 685 343 694Q343 705 334 710T315 716Q304 716 298 710Q284
698 260 677T213 633T174 596Q172 594 172 592Q172 588 176 584T186 579Q192 579 197 583Q199 584 202 584Q207 584 210 579Q221 601 229 617T242 640Q246 644 249 644Q254 644 257 639T258 629Q253 622 241 600T215 549T188 490T167 440T157 414Q157 405 149 405ZM65
340Q48 340 40 348T32 366Q32 381 46 395T85 410H125Q134 410 134 401Q134 392 125 392Q120 392 115 392T105 393H85Q70 393 61 385T51 368Q51 358 65 358H255Q259 358 266 366T274 382Q274 392 256 392H196Q187 392 187 401Q187 410 196 410H256Q276 410 283 403T291
384Q291 369 280 355T255 340H65ZM567 -1Q554 -1 543 6T532 30Q532 41 536 50Q537 55 546 75T568 124Q566 123 564 123H473Q454 123 446 131T438 152Q438 175 457 194Q468 206 502 232T576 287Q587 295 597 303T618 318Q626 324 634 329T649 341Q664 352 676 361T692
374Q705 385 720 385Q738 385 753 373T768 344Q768 330 753 316L750 313Q749 311 747 309T743 305Q738 301 733 296T724 284Q720 277 710 255T686 202T658 140Q660 141 662 141H720Q724 141 731 149T739 165Q739 176 721 176H694Q685 176 685 185Q685 194 694 194H721Q741
194 748 186T756 167Q756 152 745 138T720 123H662Q656 123 654 129Q637 93 625 63T608 24Q604 12 592 6T567 -1ZM550 31Q550 18 566 18Q574 18 581 21T591 32Q594 40 605 66T632 128T664 198T692 259T708 293Q713 301 718 307T730 318Q736 324 739 326L741 329Q748
339 748 347Q748 357 740 362T721 368Q710 368 704 362Q699 356 687 347T659 326L624 300Q615 293 606 287T586 272Q547 243 514 218T469 182Q455 168 455 156Q455 141 473 141H564Q569 141 571 138T573 133Q576 136 579 136Q584 136 587 132T588 123Q575 93 565
71T553 43Q550 36 550 31ZM524 176Q515 176 515 185Q515 194 524 194H580Q595 194 599 197T610 213Q613 220 617 229T626 248Q632 262 638 275T648 292Q652 296 655 296Q660 296 663 291T664 281Q660 277 649 254T626 206Q619 189 610 183T580 176H524Z" />
<glyph unicode="&#xbd;" glyph-name="onehalf" horiz-adv-x="875" d="M79 9Q74 9 71 15T72 26Q98 56 141 104T238 212T349 334T461 458T563 570T642 658T686 707Q699 722 714 728T742 735Q761 735 774 725T787 697Q787 679 770 659Q751 637 716 598T634 509T537
402T434 288T335 179T251 86T192 19Q189 15 185 15Q180 15 176 21T177 33Q199 58 236 99T320 192T419 301T522 414T619 521T700 611T755 672Q767 687 767 697Q767 715 743 715Q733 715 722 710T701 694Q690 681 658 645T578 558T476 445T364 321T254 199T157 92T87
13Q84 9 79 9ZM169 405Q159 405 159 415Q160 422 169 446T193 502T222 564Q215 560 208 560Q195 560 185 570T175 592Q175 602 182 608Q197 623 221 645T268 689T306 723Q317 733 333 733Q352 733 367 721T382 691Q382 678 367 664L364 661Q363 659 361 657T357
653Q352 649 347 644T338 632Q333 622 318 594T287 533Q270 500 257 472T241 434Q240 426 231 426Q220 426 223 436Q226 450 238 477T267 537T299 597T322 641Q327 651 334 658T350 672Q354 676 356 677Q363 685 363 694Q363 705 354 710T335 716Q324 716 318 710Q304
698 280 677T233 633T194 596Q192 594 192 592Q192 588 196 584T206 579Q212 579 217 583Q219 584 222 584Q227 584 230 579Q241 601 249 617T262 640Q266 644 269 644Q274 644 277 639T278 629Q273 622 261 600T235 549T208 490T187 440T177 414Q177 405 169 405ZM85
340Q68 340 60 348T52 366Q52 381 66 395T105 410H145Q154 410 154 401Q154 392 145 392Q140 392 135 392T125 393H105Q90 393 81 385T71 368Q71 358 85 358H275Q279 358 286 366T294 382Q294 392 276 392H216Q207 392 207 401Q207 410 216 410H276Q296 410 303
403T311 384Q311 369 300 355T275 340H85ZM477 29Q467 29 467 41Q467 58 481 70T517 88Q515 92 519 97Q532 111 556 129T607 168Q640 193 668 215T702 247Q712 263 712 278Q712 298 695 309T656 321Q636 321 618 309T594 271Q594 270 594 269T593 265Q593 258 595
252T601 240Q604 234 606 228T609 215Q609 204 599 194Q590 184 578 184Q558 184 540 210T522 270Q522 301 542 332T617 381Q637 388 659 388Q693 388 723 373T773 333T793 277Q793 260 786 242T761 204Q744 184 722 170T676 141Q655 128 636 116T602 88Q599 85
596 85Q592 85 589 90T591 100Q606 117 626 130T667 156Q690 169 711 183T750 216Q775 245 775 276Q775 302 760 323T720 358T665 372Q643 372 623 365Q583 352 561 325T538 267Q538 253 543 239T561 211Q572 202 578 202Q591 202 591 217Q591 223 586 230Q575
244 575 264Q575 292 598 315T656 339Q684 339 707 322T730 276Q730 268 728 259T719 238Q711 225 682 202T618 154Q595 136 573 120T536 90H539Q559 90 583 84T632 69Q661 61 688 54T739 47Q748 47 748 38Q748 29 739 29Q714 29 686 36T631 51Q612 57 593 62T556
70Q551 71 547 71T537 72Q510 72 497 61T485 39V37Q485 29 477 29ZM725 -13Q700 -13 673 -6T617 8Q597 14 578 19T539 27H532Q520 27 516 22T511 12Q511 7 514 4Q517 1 517 -2Q517 -7 512 -10T501 -8Q493 0 493 11Q493 24 503 35T533 46Q553 46 575 40T619 26Q647
19 674 12T725 5Q749 5 762 19T776 49Q776 69 759 82Q755 85 755 90Q755 95 760 98T769 98Q794 77 794 50Q794 26 776 7T725 -13Z" />
<glyph unicode="&#xbe;" glyph-name="threequarters" horiz-adv-x="803" d="M140 309Q78 309 45 339T13 422Q13 430 22 430Q33 430 31 421Q30 375 58 351T140 327Q194 327 232 349T289 403T309 464Q309 491 292 510T237 529Q228 529 228 538Q228 547 237 547Q253
547 267 543V544Q267 549 272 552Q296 566 309 587T322 631Q322 657 302 676T235 695Q211 695 180 690T126 662Q123 659 120 659Q115 659 112 664T113 675Q132 693 155 701T201 711T236 713Q292 713 315 690T339 635Q339 607 324 580T284 538Q306 527 316 508T327
465Q327 431 306 395T242 334T140 309ZM148 350Q111 350 88 370T65 419Q65 429 67 438T77 458Q80 462 85 462Q90 462 93 458T93 448Q83 434 83 419Q83 398 100 383T148 368Q174 368 198 382T237 417T253 457Q253 478 231 492T155 503Q132 502 123 509T113 526Q113
538 125 549T154 561Q192 561 216 571T253 597Q268 615 268 629Q268 643 255 649T225 656Q206 656 188 649T161 629Q158 624 153 624Q149 624 146 628T146 638Q157 656 178 664T221 673Q247 673 267 662T287 630Q287 610 267 586Q231 543 154 543Q147 543 139 538T131
528Q131 520 154 521Q219 525 245 506T272 460Q272 436 255 411T209 368T148 350ZM99 9Q94 9 91 15T92 26Q118 56 161 104T258 212T369 334T481 458T583 570T662 658T706 707Q719 722 734 728T762 735Q781 735 794 725T807 697Q807 679 790 659Q771 637 736 598T654
509T557 402T454 288T355 179T271 86T212 19Q209 15 205 15Q200 15 196 21T197 33Q219 58 256 99T340 192T439 301T542 414T639 521T720 611T775 672Q787 687 787 697Q787 715 763 715Q753 715 742 710T721 694Q710 681 678 645T598 558T496 445T384 321T274 199T177
92T107 13Q104 9 99 9ZM567 -1Q554 -1 543 6T532 30Q532 41 536 50Q537 55 546 75T568 124Q566 123 564 123H473Q454 123 446 131T438 152Q438 175 457 194Q468 206 502 232T576 287Q587 295 597 303T618 318Q626 324 634 329T649 341Q664 352 676 361T692 374Q705
385 720 385Q738 385 753 373T768 344Q768 330 753 316L750 313Q749 311 747 309T743 305Q738 301 733 296T724 284Q720 277 710 255T686 202T658 140Q660 141 662 141H720Q724 141 731 149T739 165Q739 176 721 176H694Q685 176 685 185Q685 194 694 194H721Q741
194 748 186T756 167Q756 152 745 138T720 123H662Q656 123 654 129Q637 93 625 63T608 24Q604 12 592 6T567 -1ZM550 31Q550 18 566 18Q574 18 581 21T591 32Q594 40 605 66T632 128T664 198T692 259T708 293Q713 301 718 307T730 318Q736 324 739 326L741 329Q748
339 748 347Q748 357 740 362T721 368Q710 368 704 362Q699 356 687 347T659 326L624 300Q615 293 606 287T586 272Q547 243 514 218T469 182Q455 168 455 156Q455 141 473 141H564Q569 141 571 138T573 133Q576 136 579 136Q584 136 587 132T588 123Q575 93 565
71T553 43Q550 36 550 31ZM524 176Q515 176 515 185Q515 194 524 194H580Q595 194 599 197T610 213Q613 220 617 229T626 248Q632 262 638 275T648 292Q652 296 655 296Q660 296 663 291T664 281Q660 277 649 254T626 206Q619 189 610 183T580 176H524Z" />
<glyph unicode="&#xbf;" glyph-name="questiondown" horiz-adv-x="291" d="M160 278Q141 291 141 315Q141 335 154 348T187 362Q207 362 220 349T234 315Q234 298 221 283Q218 280 214 280Q208 280 205 285T206 297Q214 305 214 315Q214 326 206 334T187 342Q176
342 169 334T161 315Q161 302 171 294Q175 291 175 286Q175 281 170 278T160 278ZM50 -192Q-28 -192 -61 -159T-94 -82Q-94 -43 -72 -4T-13 57Q26 80 45 96T80 138Q83 143 88 143Q93 143 97 138T97 127Q80 99 59 81T-2 40Q-36 19 -55 -13T-75 -77Q-75 -114 -45
-143T51 -172Q86 -172 130 -163T209 -122Q225 -106 225 -94Q225 -84 218 -79T200 -73Q185 -73 176 -85Q157 -110 128 -122T68 -134Q34 -134 8 -119T-19 -75Q-19 -62 -13 -47T9 -13Q19 -1 36 13T71 41T102 66Q130 92 151 121T176 185Q177 197 169 204T152 211Q137
211 137 193Q137 183 127 183Q117 183 117 193Q117 213 128 222T152 231Q169 231 183 219T196 183Q193 145 171 113T118 54T60 5Q47 -5 38 -13T24 -26Q12 -40 7 -52T2 -74Q2 -94 21 -104T65 -114Q91 -114 118 -104T160 -73Q176 -53 199 -53Q217 -53 231 -64T245
-94Q245 -104 240 -115T223 -137Q197 -161 166 -172T104 -188T50 -192Z" />
<glyph unicode="&#xc0;" glyph-name="Agrave" horiz-adv-x="1166" d="M398 514Q382 514 378 528T375 554Q384 598 422 629T519 681T648 711T791 721Q801 721 835 721T916 717T1014 708T1108 689T1179 659T1207 613Q1207 602 1203 593Q1200 587 1194 587Q1190 587
1187 591T1185 601Q1187 604 1187 607T1187 613Q1187 634 1161 648T1093 672T1003 688T910 696T833 700T791 701Q716 701 648 691T526 662T438 615T395 550Q395 549 395 547T394 543Q394 534 398 534Q405 534 413 542T426 555Q475 605 532 627T649 656T766 662Q849
662 902 657T987 644T1039 630Q1046 627 1046 621Q1046 616 1042 613T1033 610Q1014 616 983 623T900 636T766 642Q702 642 645 635T535 605T433 533Q426 526 418 520T398 514ZM186 -34Q149 -34 108 -26T30 1T-30 50T-53 126Q-53 179 -28 224T41 305T140 366T255
405T374 419Q393 419 425 416T492 405T560 384T612 349T632 299Q632 295 632 292T630 283Q629 276 622 265T600 254Q590 254 577 267T556 288Q519 322 476 337T380 353Q302 353 239 333T129 281T59 211T34 139Q34 98 74 69T201 39Q260 39 326 63T458 127T585 213T694
301Q709 314 739 338T809 394T891 459T973 523T1044 578T1090 614Q1092 616 1096 616Q1106 616 1106 605Q1106 601 1102 598Q1087 586 1057 562T987 508T905 444T823 379T753 324T707 286Q659 244 598 198T469 111T333 45T201 19Q159 19 116 29T45 67T16 142Q16
150 17 158T20 176Q30 224 68 261T161 323T273 360T380 373Q447 373 494 352T586 286Q589 284 593 280T601 274Q607 274 610 288Q611 291 611 294T611 300Q611 324 592 341T542 369T479 386T418 396T374 399Q304 399 233 380T101 324T5 237T-32 127Q-32 90 -13
63T39 19T109 -6T186 -14Q250 -14 314 5T441 57T557 126T654 201Q654 201 656 202T660 203H836Q846 203 846 193Q846 183 836 183H664Q621 146 566 108T448 38T319 -14T186 -34ZM964 70Q932 70 919 85T906 124Q906 151 917 182T943 240T965 280Q985 314 1016 360T1082
454T1149 542Q1152 546 1157 546Q1162 546 1166 541T1165 530Q1160 524 1141 499T1094 438T1038 358T984 271T942 190T926 127Q926 90 964 90Q992 90 1027 103T1098 142T1158 199Q1161 203 1166 203Q1171 203 1174 197T1173 186Q1148 153 1111 127T1036 85T964
70ZM776 232Q762 232 748 232T717 233Q707 233 707 243Q707 253 717 253Q730 253 744 253T772 252Q787 252 802 253T833 258Q853 263 869 274T902 309Q936 355 970 399T1032 477T1078 527Q1081 530 1085 530Q1090 530 1093 524T1091 513Q1075 497 1047 464T986
387T918 297Q887 254 852 243T776 232ZM765 277Q755 277 755 287Q755 292 759 295Q782 314 820 345T899 412T975 477Q977 479 981 479Q992 479 992 468Q992 465 988 461Q954 432 913 397T833 331T771 279Q769 277 765 277ZM922 -5Q901 -5 875 4T829 34T809 91Q809
102 811 113T817 137Q820 144 826 144Q831 144 834 141T836 131Q829 110 829 92Q829 63 844 46T881 22T922 15Q959 15 997 32T1070 72Q1074 74 1075 74Q1080 74 1082 71T1085 63Q1085 58 1081 55Q1045 32 1004 14T922 -5ZM1220 750Q1211 750 1203 757Q1199 760
1183 774T1146 805T1108 837T1083 858Q1075 866 1075 873Q1075 886 1102 907Q1113 916 1124 916Q1136 916 1145 905Q1148 901 1159 890T1178 870Q1180 868 1180 864Q1180 859 1175 855T1164 855Q1162 857 1151 869T1129 893Q1126 896 1123 896Q1121 896 1114 891Q1101
881 1099 878T1097 872Q1103 867 1120 853T1157 821T1194 790T1215 773Q1219 770 1220 770T1222 776Q1222 784 1221 788T1213 800L1188 825Q1185 828 1185 831Q1185 837 1191 840T1202 839L1229 812Q1237 804 1238 796T1240 776Q1240 750 1220 750Z" />
<glyph unicode="&#xc1;" glyph-name="Aacute" horiz-adv-x="1166" d="M398 514Q382 514 378 528T375 554Q384 598 422 629T519 681T648 711T791 721Q801 721 835 721T916 717T1014 708T1108 689T1179 659T1207 613Q1207 602 1203 593Q1200 587 1194 587Q1190 587
1187 591T1185 601Q1187 604 1187 607T1187 613Q1187 634 1161 648T1093 672T1003 688T910 696T833 700T791 701Q716 701 648 691T526 662T438 615T395 550Q395 549 395 547T394 543Q394 534 398 534Q405 534 413 542T426 555Q475 605 532 627T649 656T766 662Q849
662 902 657T987 644T1039 630Q1046 627 1046 621Q1046 616 1042 613T1033 610Q1014 616 983 623T900 636T766 642Q702 642 645 635T535 605T433 533Q426 526 418 520T398 514ZM186 -34Q149 -34 108 -26T30 1T-30 50T-53 126Q-53 179 -28 224T41 305T140 366T255
405T374 419Q393 419 425 416T492 405T560 384T612 349T632 299Q632 295 632 292T630 283Q629 276 622 265T600 254Q590 254 577 267T556 288Q519 322 476 337T380 353Q302 353 239 333T129 281T59 211T34 139Q34 98 74 69T201 39Q260 39 326 63T458 127T585 213T694
301Q709 314 739 338T809 394T891 459T973 523T1044 578T1090 614Q1092 616 1096 616Q1106 616 1106 605Q1106 601 1102 598Q1087 586 1057 562T987 508T905 444T823 379T753 324T707 286Q659 244 598 198T469 111T333 45T201 19Q159 19 116 29T45 67T16 142Q16
150 17 158T20 176Q30 224 68 261T161 323T273 360T380 373Q447 373 494 352T586 286Q589 284 593 280T601 274Q607 274 610 288Q611 291 611 294T611 300Q611 324 592 341T542 369T479 386T418 396T374 399Q304 399 233 380T101 324T5 237T-32 127Q-32 90 -13
63T39 19T109 -6T186 -14Q250 -14 314 5T441 57T557 126T654 201Q654 201 656 202T660 203H836Q846 203 846 193Q846 183 836 183H664Q621 146 566 108T448 38T319 -14T186 -34ZM964 70Q932 70 919 85T906 124Q906 151 917 182T943 240T965 280Q985 314 1016 360T1082
454T1149 542Q1152 546 1157 546Q1162 546 1166 541T1165 530Q1160 524 1141 499T1094 438T1038 358T984 271T942 190T926 127Q926 90 964 90Q992 90 1027 103T1098 142T1158 199Q1161 203 1166 203Q1171 203 1174 197T1173 186Q1148 153 1111 127T1036 85T964
70ZM776 232Q762 232 748 232T717 233Q707 233 707 243Q707 253 717 253Q730 253 744 253T772 252Q787 252 802 253T833 258Q853 263 869 274T902 309Q936 355 970 399T1032 477T1078 527Q1081 530 1085 530Q1090 530 1093 524T1091 513Q1075 497 1047 464T986
387T918 297Q887 254 852 243T776 232ZM765 277Q755 277 755 287Q755 292 759 295Q782 314 820 345T899 412T975 477Q977 479 981 479Q992 479 992 468Q992 465 988 461Q954 432 913 397T833 331T771 279Q769 277 765 277ZM922 -5Q901 -5 875 4T829 34T809 91Q809
102 811 113T817 137Q820 144 826 144Q831 144 834 141T836 131Q829 110 829 92Q829 63 844 46T881 22T922 15Q959 15 997 32T1070 72Q1074 74 1075 74Q1080 74 1082 71T1085 63Q1085 58 1081 55Q1045 32 1004 14T922 -5ZM1183 750Q1163 750 1163 776Q1163 788
1164 796T1174 812L1201 839Q1203 841 1207 841Q1211 841 1214 839T1218 831Q1218 828 1215 825L1190 800Q1183 793 1182 789T1181 776Q1181 770 1182 770T1188 773Q1192 776 1208 790T1245 821T1283 852T1306 872Q1306 872 1306 872T1307 874Q1307 876 1304 879T1289
891Q1282 896 1280 896Q1277 896 1274 893Q1264 882 1253 870T1239 855Q1237 853 1234 853Q1230 853 1227 856T1223 864Q1223 868 1225 870Q1233 878 1244 889T1258 905Q1267 916 1279 916Q1291 916 1301 907Q1328 886 1328 873Q1328 866 1320 858Q1313 852 1296
837T1258 805T1221 774T1200 757Q1192 750 1183 750Z" />
<glyph unicode="&#xc2;" glyph-name="Acircumflex" horiz-adv-x="1166" d="M398 514Q382 514 378 528T375 554Q384 598 422 629T519 681T648 711T791 721Q801 721 835 721T916 717T1014 708T1108 689T1179 659T1207 613Q1207 602 1203 593Q1200 587 1194 587Q1190
587 1187 591T1185 601Q1187 604 1187 607T1187 613Q1187 634 1161 648T1093 672T1003 688T910 696T833 700T791 701Q716 701 648 691T526 662T438 615T395 550Q395 549 395 547T394 543Q394 534 398 534Q405 534 413 542T426 555Q475 605 532 627T649 656T766
662Q849 662 902 657T987 644T1039 630Q1046 627 1046 621Q1046 616 1042 613T1033 610Q1014 616 983 623T900 636T766 642Q702 642 645 635T535 605T433 533Q426 526 418 520T398 514ZM186 -34Q149 -34 108 -26T30 1T-30 50T-53 126Q-53 179 -28 224T41 305T140
366T255 405T374 419Q393 419 425 416T492 405T560 384T612 349T632 299Q632 295 632 292T630 283Q629 276 622 265T600 254Q590 254 577 267T556 288Q519 322 476 337T380 353Q302 353 239 333T129 281T59 211T34 139Q34 98 74 69T201 39Q260 39 326 63T458 127T585
213T694 301Q709 314 739 338T809 394T891 459T973 523T1044 578T1090 614Q1092 616 1096 616Q1106 616 1106 605Q1106 601 1102 598Q1087 586 1057 562T987 508T905 444T823 379T753 324T707 286Q659 244 598 198T469 111T333 45T201 19Q159 19 116 29T45 67T16
142Q16 150 17 158T20 176Q30 224 68 261T161 323T273 360T380 373Q447 373 494 352T586 286Q589 284 593 280T601 274Q607 274 610 288Q611 291 611 294T611 300Q611 324 592 341T542 369T479 386T418 396T374 399Q304 399 233 380T101 324T5 237T-32 127Q-32
90 -13 63T39 19T109 -6T186 -14Q250 -14 314 5T441 57T557 126T654 201Q654 201 656 202T660 203H836Q846 203 846 193Q846 183 836 183H664Q621 146 566 108T448 38T319 -14T186 -34ZM964 70Q932 70 919 85T906 124Q906 151 917 182T943 240T965 280Q985 314
1016 360T1082 454T1149 542Q1152 546 1157 546Q1162 546 1166 541T1165 530Q1160 524 1141 499T1094 438T1038 358T984 271T942 190T926 127Q926 90 964 90Q992 90 1027 103T1098 142T1158 199Q1161 203 1166 203Q1171 203 1174 197T1173 186Q1148 153 1111 127T1036
85T964 70ZM776 232Q762 232 748 232T717 233Q707 233 707 243Q707 253 717 253Q730 253 744 253T772 252Q787 252 802 253T833 258Q853 263 869 274T902 309Q936 355 970 399T1032 477T1078 527Q1081 530 1085 530Q1090 530 1093 524T1091 513Q1075 497 1047 464T986
387T918 297Q887 254 852 243T776 232ZM765 277Q755 277 755 287Q755 292 759 295Q782 314 820 345T899 412T975 477Q977 479 981 479Q992 479 992 468Q992 465 988 461Q954 432 913 397T833 331T771 279Q769 277 765 277ZM922 -5Q901 -5 875 4T829 34T809 91Q809
102 811 113T817 137Q820 144 826 144Q831 144 834 141T836 131Q829 110 829 92Q829 63 844 46T881 22T922 15Q959 15 997 32T1070 72Q1074 74 1075 74Q1080 74 1082 71T1085 63Q1085 58 1081 55Q1045 32 1004 14T922 -5ZM1322 747Q1306 747 1298 748T1285 756Q1281
761 1275 770T1264 787Q1263 789 1263 794Q1265 804 1274 804Q1280 804 1282 799Q1287 792 1292 784T1301 770Q1303 769 1307 768T1326 767Q1337 767 1331 776Q1325 785 1315 798T1294 827Q1283 844 1274 855T1260 872Q1258 874 1257 874Q1254 874 1243 867Q1239
864 1220 852T1177 826T1136 800T1114 787Q1111 785 1105 781T1096 773T1102 770Q1113 770 1119 772T1131 777Q1136 780 1153 788T1187 806T1213 821Q1218 824 1222 824Q1232 824 1230 814Q1228 808 1222 805Q1214 800 1196 790T1160 772T1138 760Q1119 750 1098
750Q1062 750 1065 768Q1067 778 1083 788L1234 883Q1251 894 1262 894Q1271 894 1278 884L1309 841Q1319 828 1330 812T1347 788Q1353 780 1351 770Q1350 760 1343 754T1322 747Z" />
<glyph unicode="&#xc3;" glyph-name="Atilde" horiz-adv-x="1166" d="M398 514Q382 514 378 528T375 554Q384 598 422 629T519 681T648 711T791 721Q801 721 835 721T916 717T1014 708T1108 689T1179 659T1207 613Q1207 602 1203 593Q1200 587 1194 587Q1190 587
1187 591T1185 601Q1187 604 1187 607T1187 613Q1187 634 1161 648T1093 672T1003 688T910 696T833 700T791 701Q716 701 648 691T526 662T438 615T395 550Q395 549 395 547T394 543Q394 534 398 534Q405 534 413 542T426 555Q475 605 532 627T649 656T766 662Q849
662 902 657T987 644T1039 630Q1046 627 1046 621Q1046 616 1042 613T1033 610Q1014 616 983 623T900 636T766 642Q702 642 645 635T535 605T433 533Q426 526 418 520T398 514ZM186 -34Q149 -34 108 -26T30 1T-30 50T-53 126Q-53 179 -28 224T41 305T140 366T255
405T374 419Q393 419 425 416T492 405T560 384T612 349T632 299Q632 295 632 292T630 283Q629 276 622 265T600 254Q590 254 577 267T556 288Q519 322 476 337T380 353Q302 353 239 333T129 281T59 211T34 139Q34 98 74 69T201 39Q260 39 326 63T458 127T585 213T694
301Q709 314 739 338T809 394T891 459T973 523T1044 578T1090 614Q1092 616 1096 616Q1106 616 1106 605Q1106 601 1102 598Q1087 586 1057 562T987 508T905 444T823 379T753 324T707 286Q659 244 598 198T469 111T333 45T201 19Q159 19 116 29T45 67T16 142Q16
150 17 158T20 176Q30 224 68 261T161 323T273 360T380 373Q447 373 494 352T586 286Q589 284 593 280T601 274Q607 274 610 288Q611 291 611 294T611 300Q611 324 592 341T542 369T479 386T418 396T374 399Q304 399 233 380T101 324T5 237T-32 127Q-32 90 -13
63T39 19T109 -6T186 -14Q250 -14 314 5T441 57T557 126T654 201Q654 201 656 202T660 203H836Q846 203 846 193Q846 183 836 183H664Q621 146 566 108T448 38T319 -14T186 -34ZM964 70Q932 70 919 85T906 124Q906 151 917 182T943 240T965 280Q985 314 1016 360T1082
454T1149 542Q1152 546 1157 546Q1162 546 1166 541T1165 530Q1160 524 1141 499T1094 438T1038 358T984 271T942 190T926 127Q926 90 964 90Q992 90 1027 103T1098 142T1158 199Q1161 203 1166 203Q1171 203 1174 197T1173 186Q1148 153 1111 127T1036 85T964
70ZM776 232Q762 232 748 232T717 233Q707 233 707 243Q707 253 717 253Q730 253 744 253T772 252Q787 252 802 253T833 258Q853 263 869 274T902 309Q936 355 970 399T1032 477T1078 527Q1081 530 1085 530Q1090 530 1093 524T1091 513Q1075 497 1047 464T986
387T918 297Q887 254 852 243T776 232ZM765 277Q755 277 755 287Q755 292 759 295Q782 314 820 345T899 412T975 477Q977 479 981 479Q992 479 992 468Q992 465 988 461Q954 432 913 397T833 331T771 279Q769 277 765 277ZM922 -5Q901 -5 875 4T829 34T809 91Q809
102 811 113T817 137Q820 144 826 144Q831 144 834 141T836 131Q829 110 829 92Q829 63 844 46T881 22T922 15Q959 15 997 32T1070 72Q1074 74 1075 74Q1080 74 1082 71T1085 63Q1085 58 1081 55Q1045 32 1004 14T922 -5ZM1269 743Q1251 743 1234 749T1207 761Q1188
775 1163 775Q1149 775 1142 770T1124 757Q1113 747 1100 747Q1088 747 1080 755T1071 775Q1071 789 1084 802Q1088 806 1093 806Q1102 806 1102 797Q1102 792 1098 788Q1091 781 1091 775Q1091 767 1099 767Q1105 767 1112 773Q1120 779 1131 787T1163 795Q1178
795 1194 790T1219 778Q1228 772 1242 768T1269 763Q1289 763 1303 774T1326 798T1337 816Q1339 822 1339 824Q1339 830 1335 830Q1331 830 1327 826Q1302 801 1276 801Q1263 801 1247 806T1221 816Q1210 822 1195 826T1168 831Q1155 831 1147 828T1129 817Q1125
814 1121 814Q1112 814 1112 824Q1112 831 1117 833Q1139 851 1168 851Q1184 851 1202 846T1230 834Q1240 829 1253 825T1276 821Q1294 821 1313 840Q1323 850 1335 850Q1345 850 1351 843T1358 823Q1358 816 1355 808Q1353 803 1343 787T1314 757T1269 743Z" />
<glyph unicode="&#xc4;" glyph-name="Adieresis" horiz-adv-x="1166" d="M398 514Q382 514 378 528T375 554Q384 598 422 629T519 681T648 711T791 721Q801 721 835 721T916 717T1014 708T1108 689T1179 659T1207 613Q1207 602 1203 593Q1200 587 1194 587Q1190
587 1187 591T1185 601Q1187 604 1187 607T1187 613Q1187 634 1161 648T1093 672T1003 688T910 696T833 700T791 701Q716 701 648 691T526 662T438 615T395 550Q395 549 395 547T394 543Q394 534 398 534Q405 534 413 542T426 555Q475 605 532 627T649 656T766
662Q849 662 902 657T987 644T1039 630Q1046 627 1046 621Q1046 616 1042 613T1033 610Q1014 616 983 623T900 636T766 642Q702 642 645 635T535 605T433 533Q426 526 418 520T398 514ZM186 -34Q149 -34 108 -26T30 1T-30 50T-53 126Q-53 179 -28 224T41 305T140
366T255 405T374 419Q393 419 425 416T492 405T560 384T612 349T632 299Q632 295 632 292T630 283Q629 276 622 265T600 254Q590 254 577 267T556 288Q519 322 476 337T380 353Q302 353 239 333T129 281T59 211T34 139Q34 98 74 69T201 39Q260 39 326 63T458 127T585
213T694 301Q709 314 739 338T809 394T891 459T973 523T1044 578T1090 614Q1092 616 1096 616Q1106 616 1106 605Q1106 601 1102 598Q1087 586 1057 562T987 508T905 444T823 379T753 324T707 286Q659 244 598 198T469 111T333 45T201 19Q159 19 116 29T45 67T16
142Q16 150 17 158T20 176Q30 224 68 261T161 323T273 360T380 373Q447 373 494 352T586 286Q589 284 593 280T601 274Q607 274 610 288Q611 291 611 294T611 300Q611 324 592 341T542 369T479 386T418 396T374 399Q304 399 233 380T101 324T5 237T-32 127Q-32
90 -13 63T39 19T109 -6T186 -14Q250 -14 314 5T441 57T557 126T654 201Q654 201 656 202T660 203H836Q846 203 846 193Q846 183 836 183H664Q621 146 566 108T448 38T319 -14T186 -34ZM964 70Q932 70 919 85T906 124Q906 151 917 182T943 240T965 280Q985 314
1016 360T1082 454T1149 542Q1152 546 1157 546Q1162 546 1166 541T1165 530Q1160 524 1141 499T1094 438T1038 358T984 271T942 190T926 127Q926 90 964 90Q992 90 1027 103T1098 142T1158 199Q1161 203 1166 203Q1171 203 1174 197T1173 186Q1148 153 1111 127T1036
85T964 70ZM776 232Q762 232 748 232T717 233Q707 233 707 243Q707 253 717 253Q730 253 744 253T772 252Q787 252 802 253T833 258Q853 263 869 274T902 309Q936 355 970 399T1032 477T1078 527Q1081 530 1085 530Q1090 530 1093 524T1091 513Q1075 497 1047 464T986
387T918 297Q887 254 852 243T776 232ZM765 277Q755 277 755 287Q755 292 759 295Q782 314 820 345T899 412T975 477Q977 479 981 479Q992 479 992 468Q992 465 988 461Q954 432 913 397T833 331T771 279Q769 277 765 277ZM922 -5Q901 -5 875 4T829 34T809 91Q809
102 811 113T817 137Q820 144 826 144Q831 144 834 141T836 131Q829 110 829 92Q829 63 844 46T881 22T922 15Q959 15 997 32T1070 72Q1074 74 1075 74Q1080 74 1082 71T1085 63Q1085 58 1081 55Q1045 32 1004 14T922 -5ZM1154 749Q1135 749 1122 762T1108 795Q1108
817 1127 833Q1131 835 1133 835Q1143 835 1143 824Q1143 819 1139 816Q1128 810 1128 795Q1128 784 1136 777T1155 769Q1166 769 1173 776T1181 795Q1181 804 1174 813Q1171 816 1171 820Q1171 826 1177 829T1188 827Q1201 814 1201 795Q1201 776 1188 763T1154
749ZM1243 751Q1224 767 1224 789Q1224 809 1237 822T1270 835Q1290 835 1303 822T1317 789Q1317 770 1304 757Q1301 754 1297 754Q1292 754 1289 759T1290 771Q1297 780 1297 789Q1297 800 1290 807T1271 815Q1260 815 1252 808T1244 789Q1244 774 1255 768Q1259
765 1259 760Q1259 755 1254 751T1243 751Z" />
<glyph unicode="&#xc5;" glyph-name="Aring" horiz-adv-x="1166" d="M398 514Q382 514 378 528T375 554Q384 598 422 629T519 681T648 711T791 721Q801 721 835 721T916 717T1014 708T1108 689T1179 659T1207 613Q1207 602 1203 593Q1200 587 1194 587Q1190 587
1187 591T1185 601Q1187 604 1187 607T1187 613Q1187 634 1161 648T1093 672T1003 688T910 696T833 700T791 701Q716 701 648 691T526 662T438 615T395 550Q395 549 395 547T394 543Q394 534 398 534Q405 534 413 542T426 555Q475 605 532 627T649 656T766 662Q849
662 902 657T987 644T1039 630Q1046 627 1046 621Q1046 616 1042 613T1033 610Q1014 616 983 623T900 636T766 642Q702 642 645 635T535 605T433 533Q426 526 418 520T398 514ZM186 -34Q149 -34 108 -26T30 1T-30 50T-53 126Q-53 179 -28 224T41 305T140 366T255
405T374 419Q393 419 425 416T492 405T560 384T612 349T632 299Q632 295 632 292T630 283Q629 276 622 265T600 254Q590 254 577 267T556 288Q519 322 476 337T380 353Q302 353 239 333T129 281T59 211T34 139Q34 98 74 69T201 39Q260 39 326 63T458 127T585 213T694
301Q709 314 739 338T809 394T891 459T973 523T1044 578T1090 614Q1092 616 1096 616Q1106 616 1106 605Q1106 601 1102 598Q1087 586 1057 562T987 508T905 444T823 379T753 324T707 286Q659 244 598 198T469 111T333 45T201 19Q159 19 116 29T45 67T16 142Q16
150 17 158T20 176Q30 224 68 261T161 323T273 360T380 373Q447 373 494 352T586 286Q589 284 593 280T601 274Q607 274 610 288Q611 291 611 294T611 300Q611 324 592 341T542 369T479 386T418 396T374 399Q304 399 233 380T101 324T5 237T-32 127Q-32 90 -13
63T39 19T109 -6T186 -14Q250 -14 314 5T441 57T557 126T654 201Q654 201 656 202T660 203H836Q846 203 846 193Q846 183 836 183H664Q621 146 566 108T448 38T319 -14T186 -34ZM964 70Q932 70 919 85T906 124Q906 151 917 182T943 240T965 280Q985 314 1016 360T1082
454T1149 542Q1152 546 1157 546Q1162 546 1166 541T1165 530Q1160 524 1141 499T1094 438T1038 358T984 271T942 190T926 127Q926 90 964 90Q992 90 1027 103T1098 142T1158 199Q1161 203 1166 203Q1171 203 1174 197T1173 186Q1148 153 1111 127T1036 85T964
70ZM776 232Q762 232 748 232T717 233Q707 233 707 243Q707 253 717 253Q730 253 744 253T772 252Q787 252 802 253T833 258Q853 263 869 274T902 309Q936 355 970 399T1032 477T1078 527Q1081 530 1085 530Q1090 530 1093 524T1091 513Q1075 497 1047 464T986
387T918 297Q887 254 852 243T776 232ZM765 277Q755 277 755 287Q755 292 759 295Q782 314 820 345T899 412T975 477Q977 479 981 479Q992 479 992 468Q992 465 988 461Q954 432 913 397T833 331T771 279Q769 277 765 277ZM922 -5Q901 -5 875 4T829 34T809 91Q809
102 811 113T817 137Q820 144 826 144Q831 144 834 141T836 131Q829 110 829 92Q829 63 844 46T881 22T922 15Q959 15 997 32T1070 72Q1074 74 1075 74Q1080 74 1082 71T1085 63Q1085 58 1081 55Q1045 32 1004 14T922 -5ZM1199 740Q1168 740 1148 759T1127 809Q1127
836 1142 859T1180 896T1229 910Q1261 910 1281 890T1301 840Q1301 797 1272 769T1199 740ZM1198 759Q1236 758 1259 783T1282 842Q1282 863 1268 876T1230 890Q1209 890 1190 879T1159 849T1146 808Q1146 787 1160 773T1198 759ZM1207 781Q1191 781 1181 791T1170
817Q1170 837 1187 852T1223 868Q1239 868 1249 858T1259 832Q1259 812 1243 797T1207 781ZM1209 801Q1220 801 1229 810T1239 831Q1239 848 1221 848Q1210 848 1200 839T1190 818Q1190 801 1209 801Z" />
<glyph unicode="&#xc6;" glyph-name="AE" horiz-adv-x="1354" d="M585 551Q575 551 567 560Q561 569 561 580Q561 583 561 586T563 594Q576 656 615 691T710 740T831 755Q888 755 948 747T1065 727T1172 704T1259 684Q1280 680 1304 677T1352 673Q1377 673 1400
677T1442 694Q1451 700 1459 702T1475 705Q1490 705 1499 696T1508 674Q1508 664 1501 652T1478 631Q1445 612 1410 604T1337 596Q1292 596 1243 607Q1211 614 1164 625T1059 649T943 670T830 679Q759 679 705 658T631 584Q627 573 613 562T585 551ZM583 573Q587
568 599 577T612 590Q633 652 693 675T830 699Q885 699 944 691T1059 670T1164 645T1247 626Q1270 622 1292 619T1337 616Q1372 616 1405 623T1468 648Q1488 659 1488 674Q1488 685 1475 685Q1464 685 1452 677Q1431 664 1406 658T1353 652Q1303 652 1251 664T1158
686Q1120 695 1067 706T953 727T833 736Q774 736 721 723T632 679T583 590Q581 581 581 578T583 573ZM186 -34Q149 -34 108 -26T30 1T-30 50T-53 126Q-53 134 -52 143T-49 162Q-36 222 5 269T107 350T236 401T374 419Q393 419 425 416T492 405T560 384T612 349T632
299Q632 295 632 292T630 283Q629 276 622 265T600 254Q590 254 577 267T556 288Q519 322 476 337T380 353Q302 353 239 333T129 281T59 211T34 139Q34 98 74 69T201 39Q260 39 326 63T458 127T585 213T694 301Q709 314 739 338T809 394T891 459T973 523T1044 578T1090
614Q1092 616 1096 616Q1106 616 1106 605Q1106 601 1102 598Q1087 586 1057 562T987 508T905 444T823 379T753 324T707 286Q659 244 598 198T469 111T333 45T201 19Q104 19 59 54T14 138Q14 177 39 218T113 294T228 351T380 373Q447 373 494 352T586 286Q589 284
593 280T601 274Q607 274 610 288Q611 291 611 294T611 300Q611 324 592 341T542 369T479 386T418 396T374 399Q307 399 241 382T117 334T22 258T-29 158Q-32 142 -32 127Q-32 90 -13 63T39 19T109 -6T186 -14Q250 -14 314 5T441 57T557 126T654 201Q654 201 656
202T660 203H836Q846 203 846 193Q846 183 836 183H664Q621 146 566 108T448 38T319 -14T186 -34ZM717 233Q707 233 707 243Q707 253 717 253Q758 253 786 254T838 264T884 291T935 347Q947 362 972 390T1029 450T1092 514T1149 568T1186 598Q1197 604 1208 604Q1225
604 1240 592T1255 565Q1255 551 1241 540Q1225 528 1212 514T1182 482Q1166 465 1147 445T1101 399Q1098 396 1094 396Q1088 396 1085 402T1087 413Q1122 446 1158 487T1229 556Q1235 561 1235 566Q1235 574 1227 579T1208 584Q1202 584 1197 581Q1186 575 1162
553T1107 501T1045 438T988 378T951 335Q921 296 897 275T847 245T791 235T717 233ZM765 277Q755 277 755 287Q755 292 759 295Q782 314 820 345T899 412T975 477Q977 479 981 479Q992 479 992 468Q992 465 988 461Q954 432 913 397T833 331T771 279Q769 277 765
277ZM905 -9Q880 -9 851 -4T801 19T780 68Q780 74 781 81T784 96Q788 110 795 126T811 159Q814 165 820 165Q825 165 828 161T829 150Q817 127 810 106T802 68Q802 42 825 27T905 11Q942 11 990 14T1090 24T1192 41T1284 67Q1293 70 1304 82T1311 105Q1310 105
1309 105T1306 106Q1301 106 1290 102Q1273 95 1233 86T1142 69T1045 55T964 49Q921 49 904 64T886 103Q886 128 900 159T936 220T976 274T1004 308Q1007 311 1012 311H1049Q1082 311 1128 312T1225 316T1321 325T1397 340Q1404 342 1415 349T1436 366T1444 386H1441Q1439
386 1435 386T1425 383Q1394 372 1347 367T1246 361T1144 359H1056Q1046 359 1046 369Q1046 379 1056 379H1144Q1192 379 1244 380T1342 387T1419 402Q1430 406 1441 406Q1464 406 1464 384Q1464 369 1449 350T1403 321Q1372 311 1326 305T1227 296T1128 292T1048
291H1016Q981 250 951 207T908 118Q907 114 907 110T906 101Q906 87 914 80T939 70Q944 69 950 69T963 68Q994 68 1041 73T1137 87T1226 105T1282 120Q1297 126 1307 126Q1320 126 1325 119T1331 102Q1331 88 1321 72T1291 49Q1248 34 1197 23T1092 5T991 -5T905
-9Z" />
<glyph unicode="&#xc7;" glyph-name="Ccedilla" horiz-adv-x="720" d="M242 -29Q173 -29 120 -1T38 78T8 201Q8 286 44 365T142 512T281 629T442 708T605 736Q682 736 731 716T803 662T826 590Q826 553 807 516T752 449T664 400T550 381Q526 381 494 386T431 403T380
437T359 491V492Q359 502 369 502Q379 502 379 493Q383 459 411 439T478 410T550 401Q627 401 684 430T773 502T805 590Q805 624 785 652T720 698T605 716Q529 716 448 689T292 612T158 498T63 358T28 201Q28 104 86 48T242 -9Q304 -9 364 10T474 68T551 164Q554
170 558 182T567 206T571 222Q571 227 571 228T570 230Q568 232 562 232Q547 232 539 221T526 194T512 166Q487 132 444 101T351 49T258 29Q178 29 133 76T87 203Q87 271 119 340T204 471T325 581T462 658T598 686Q695 686 736 657T778 587Q778 559 761 531T714
478T643 439T558 424Q542 424 515 430T461 447T414 475T395 514V516Q395 525 405 525Q414 525 415 517Q418 502 434 489T473 466T519 450T558 444Q611 444 656 466T730 521T758 586Q758 618 722 642T598 666Q536 666 468 639T336 565T220 459T138 333T107 203Q107
133 147 91T258 49Q288 49 325 61T400 95T466 144T507 199Q516 219 525 235T562 252Q591 252 591 222Q591 215 587 201T577 174T569 155Q540 94 488 53T371 -8T242 -29ZM155 39Q142 39 127 42T101 52Q88 60 82 71T76 95Q76 107 82 116T101 125Q103 125 105 125T111
123L114 122Q125 116 135 111T155 105Q162 105 165 107Q168 109 168 114Q168 123 158 136Q153 142 144 155T135 183Q135 194 139 199T148 204Q160 204 155 190Q151 179 159 168T174 148Q188 129 188 113Q188 96 175 89Q165 84 157 84Q143 84 130 91T105 104H104Q96
104 96 94Q96 79 111 70Q129 59 155 59Q221 59 227 102Q229 113 218 130T194 165T179 196Q177 218 185 230T206 247Q208 248 211 248Q221 248 221 240Q221 232 212 229Q205 226 201 219T199 196Q201 184 214 168T238 135T247 100Q239 39 155 39Z" />
<glyph unicode="&#xc8;" glyph-name="Egrave" horiz-adv-x="733" d="M13 390Q7 390 4 396Q-24 451 -24 507Q-24 558 -3 604T55 687T140 744T244 765Q295 765 338 751T423 719T509 686T605 672Q640 672 664 678T701 694Q710 700 719 702T735 705Q750 705 759 696T768
674Q768 663 761 652T738 631Q706 612 669 604T594 595Q531 595 473 615Q433 628 396 643T322 670T240 682Q234 682 228 682T215 681Q170 677 135 652T80 589T60 503Q60 459 79 415Q80 414 81 412T82 407Q82 397 71 397Q66 397 63 403Q41 453 41 503Q41 554 62
597T123 669T213 701Q221 702 227 702T241 702Q288 702 328 690T406 662T483 633T567 616Q573 616 579 616T591 615Q633 615 668 624T728 648Q748 659 748 674Q748 685 735 685Q724 685 712 677Q691 664 664 658T608 652Q576 652 544 658T485 673Q444 687 406 704T330
733T246 745Q194 745 149 726T69 673T16 597T-4 507Q-4 454 22 405Q23 403 23 400Q23 390 13 390ZM146 303Q109 303 92 317T75 348Q75 366 92 381T144 397Q169 397 192 395T239 388Q254 405 282 436T341 500T401 561T446 598Q457 604 468 604Q485 604 500 592T515
565Q515 551 501 540Q485 528 471 514T441 482Q425 465 406 445T360 399Q357 396 353 396Q347 396 344 402T346 413Q381 446 417 487T488 556Q494 561 494 566Q494 574 486 579T467 584Q461 584 456 581Q440 572 412 545T352 483T293 419T250 371Q247 368 241 368Q218
371 194 374T144 377Q121 377 108 368T95 348Q95 338 107 331T146 323Q156 323 156 313Q156 303 146 303ZM164 -9Q96 -9 69 13T42 69Q42 97 55 129T87 193T128 253T164 300Q167 304 171 304Q176 304 180 299T179 288Q161 266 141 237T102 178T72 119T60 69Q60 35
92 23T164 11Q201 11 249 14T349 24T452 41T544 67Q553 70 563 82T570 105Q570 105 569 105T565 106Q560 106 549 102Q532 95 492 86T402 69T304 55T223 49Q180 49 163 64T146 102Q146 128 160 159T196 220T235 274T263 308Q266 311 271 311H308Q341 311 387 312T485
316T581 325T657 340Q663 342 675 349T696 366T704 386H700Q698 386 695 386T685 383Q654 372 607 367T506 361T403 359H315Q305 359 305 369Q305 379 315 379H404Q452 379 504 380T602 387T678 402Q690 406 700 406Q724 406 724 384Q724 368 709 349T663 321Q632
311 585 305T487 296T388 292T308 291H276Q253 265 228 231T184 163T166 101Q166 87 174 80T199 70Q204 69 210 69T223 68Q254 68 301 73T397 87T486 105T542 120Q557 126 567 126Q580 126 585 119T591 102Q591 88 581 72T551 49Q508 34 457 23T352 5T251 -5T164
-9ZM629 749Q620 749 612 756Q608 759 592 773T555 804T517 836T492 857Q484 865 484 872Q484 885 511 906Q522 915 533 915Q545 915 554 904Q557 900 568 889T587 869Q589 867 589 863Q589 858 584 854T573 854Q571 856 560 868T538 892Q535 895 532 895Q530 895
523 890Q510 880 508 877T506 871Q512 866 529 852T566 820T603 789T624 772Q628 769 629 769T631 775Q631 783 630 787T622 799L597 824Q594 827 594 830Q594 836 600 839T611 838L638 811Q646 803 647 795T649 775Q649 749 629 749Z" />
<glyph unicode="&#xc9;" glyph-name="Eacute" horiz-adv-x="733" d="M13 390Q7 390 4 396Q-24 451 -24 507Q-24 558 -3 604T55 687T140 744T244 765Q295 765 338 751T423 719T509 686T605 672Q640 672 664 678T701 694Q710 700 719 702T735 705Q750 705 759 696T768
674Q768 663 761 652T738 631Q706 612 669 604T594 595Q531 595 473 615Q433 628 396 643T322 670T240 682Q234 682 228 682T215 681Q170 677 135 652T80 589T60 503Q60 459 79 415Q80 414 81 412T82 407Q82 397 71 397Q66 397 63 403Q41 453 41 503Q41 554 62
597T123 669T213 701Q221 702 227 702T241 702Q288 702 328 690T406 662T483 633T567 616Q573 616 579 616T591 615Q633 615 668 624T728 648Q748 659 748 674Q748 685 735 685Q724 685 712 677Q691 664 664 658T608 652Q576 652 544 658T485 673Q444 687 406 704T330
733T246 745Q194 745 149 726T69 673T16 597T-4 507Q-4 454 22 405Q23 403 23 400Q23 390 13 390ZM146 303Q109 303 92 317T75 348Q75 366 92 381T144 397Q169 397 192 395T239 388Q254 405 282 436T341 500T401 561T446 598Q457 604 468 604Q485 604 500 592T515
565Q515 551 501 540Q485 528 471 514T441 482Q425 465 406 445T360 399Q357 396 353 396Q347 396 344 402T346 413Q381 446 417 487T488 556Q494 561 494 566Q494 574 486 579T467 584Q461 584 456 581Q440 572 412 545T352 483T293 419T250 371Q247 368 241 368Q218
371 194 374T144 377Q121 377 108 368T95 348Q95 338 107 331T146 323Q156 323 156 313Q156 303 146 303ZM164 -9Q96 -9 69 13T42 69Q42 97 55 129T87 193T128 253T164 300Q167 304 171 304Q176 304 180 299T179 288Q161 266 141 237T102 178T72 119T60 69Q60 35
92 23T164 11Q201 11 249 14T349 24T452 41T544 67Q553 70 563 82T570 105Q570 105 569 105T565 106Q560 106 549 102Q532 95 492 86T402 69T304 55T223 49Q180 49 163 64T146 102Q146 128 160 159T196 220T235 274T263 308Q266 311 271 311H308Q341 311 387 312T485
316T581 325T657 340Q663 342 675 349T696 366T704 386H700Q698 386 695 386T685 383Q654 372 607 367T506 361T403 359H315Q305 359 305 369Q305 379 315 379H404Q452 379 504 380T602 387T678 402Q690 406 700 406Q724 406 724 384Q724 368 709 349T663 321Q632
311 585 305T487 296T388 292T308 291H276Q253 265 228 231T184 163T166 101Q166 87 174 80T199 70Q204 69 210 69T223 68Q254 68 301 73T397 87T486 105T542 120Q557 126 567 126Q580 126 585 119T591 102Q591 88 581 72T551 49Q508 34 457 23T352 5T251 -5T164
-9ZM592 749Q572 749 572 775Q572 787 573 795T583 811L610 838Q612 840 616 840Q620 840 623 838T627 830Q627 827 624 824L599 799Q592 792 591 788T590 775Q590 769 591 769T597 772Q601 775 617 789T654 820T692 851T715 871Q715 871 715 871T716 873Q716 875
713 878T698 890Q691 895 689 895Q686 895 683 892Q673 881 662 869T648 854Q646 852 643 852Q639 852 636 855T632 863Q632 867 634 869Q642 877 653 888T667 904Q676 915 688 915Q700 915 710 906Q737 885 737 872Q737 865 729 857Q722 851 705 836T667 804T630
773T609 756Q601 749 592 749Z" />
<glyph unicode="&#xca;" glyph-name="Ecircumflex" horiz-adv-x="733" d="M13 390Q7 390 4 396Q-24 451 -24 507Q-24 558 -3 604T55 687T140 744T244 765Q295 765 338 751T423 719T509 686T605 672Q640 672 664 678T701 694Q710 700 719 702T735 705Q750 705 759
696T768 674Q768 663 761 652T738 631Q706 612 669 604T594 595Q531 595 473 615Q433 628 396 643T322 670T240 682Q234 682 228 682T215 681Q170 677 135 652T80 589T60 503Q60 459 79 415Q80 414 81 412T82 407Q82 397 71 397Q66 397 63 403Q41 453 41 503Q41
554 62 597T123 669T213 701Q221 702 227 702T241 702Q288 702 328 690T406 662T483 633T567 616Q573 616 579 616T591 615Q633 615 668 624T728 648Q748 659 748 674Q748 685 735 685Q724 685 712 677Q691 664 664 658T608 652Q576 652 544 658T485 673Q444 687
406 704T330 733T246 745Q194 745 149 726T69 673T16 597T-4 507Q-4 454 22 405Q23 403 23 400Q23 390 13 390ZM146 303Q109 303 92 317T75 348Q75 366 92 381T144 397Q169 397 192 395T239 388Q254 405 282 436T341 500T401 561T446 598Q457 604 468 604Q485 604
500 592T515 565Q515 551 501 540Q485 528 471 514T441 482Q425 465 406 445T360 399Q357 396 353 396Q347 396 344 402T346 413Q381 446 417 487T488 556Q494 561 494 566Q494 574 486 579T467 584Q461 584 456 581Q440 572 412 545T352 483T293 419T250 371Q247
368 241 368Q218 371 194 374T144 377Q121 377 108 368T95 348Q95 338 107 331T146 323Q156 323 156 313Q156 303 146 303ZM164 -9Q96 -9 69 13T42 69Q42 97 55 129T87 193T128 253T164 300Q167 304 171 304Q176 304 180 299T179 288Q161 266 141 237T102 178T72
119T60 69Q60 35 92 23T164 11Q201 11 249 14T349 24T452 41T544 67Q553 70 563 82T570 105Q570 105 569 105T565 106Q560 106 549 102Q532 95 492 86T402 69T304 55T223 49Q180 49 163 64T146 102Q146 128 160 159T196 220T235 274T263 308Q266 311 271 311H308Q341
311 387 312T485 316T581 325T657 340Q663 342 675 349T696 366T704 386H700Q698 386 695 386T685 383Q654 372 607 367T506 361T403 359H315Q305 359 305 369Q305 379 315 379H404Q452 379 504 380T602 387T678 402Q690 406 700 406Q724 406 724 384Q724 368 709
349T663 321Q632 311 585 305T487 296T388 292T308 291H276Q253 265 228 231T184 163T166 101Q166 87 174 80T199 70Q204 69 210 69T223 68Q254 68 301 73T397 87T486 105T542 120Q557 126 567 126Q580 126 585 119T591 102Q591 88 581 72T551 49Q508 34 457 23T352
5T251 -5T164 -9ZM731 746Q715 746 707 747T694 755Q690 760 684 769T673 786Q672 788 672 793Q674 803 683 803Q689 803 691 798Q696 791 701 783T710 769Q712 768 716 767T735 766Q746 766 740 775Q734 784 724 797T703 826Q692 843 683 854T669 871Q667 873
666 873Q663 873 652 866Q648 863 629 851T586 825T545 799T523 786Q520 784 514 780T505 772T511 769Q522 769 528 771T540 776Q545 779 562 787T596 805T622 820Q627 823 631 823Q641 823 639 813Q637 807 631 804Q623 799 605 789T569 771T547 759Q528 749 507
749Q471 749 474 767Q476 777 492 787L643 882Q660 893 671 893Q680 893 687 883L718 840Q728 827 739 811T756 787Q762 779 760 769Q759 759 752 753T731 746Z" />
<glyph unicode="&#xcb;" glyph-name="Edieresis" horiz-adv-x="733" d="M13 390Q7 390 4 396Q-24 451 -24 507Q-24 558 -3 604T55 687T140 744T244 765Q295 765 338 751T423 719T509 686T605 672Q640 672 664 678T701 694Q710 700 719 702T735 705Q750 705 759
696T768 674Q768 663 761 652T738 631Q706 612 669 604T594 595Q531 595 473 615Q433 628 396 643T322 670T240 682Q234 682 228 682T215 681Q170 677 135 652T80 589T60 503Q60 459 79 415Q80 414 81 412T82 407Q82 397 71 397Q66 397 63 403Q41 453 41 503Q41
554 62 597T123 669T213 701Q221 702 227 702T241 702Q288 702 328 690T406 662T483 633T567 616Q573 616 579 616T591 615Q633 615 668 624T728 648Q748 659 748 674Q748 685 735 685Q724 685 712 677Q691 664 664 658T608 652Q576 652 544 658T485 673Q444 687
406 704T330 733T246 745Q194 745 149 726T69 673T16 597T-4 507Q-4 454 22 405Q23 403 23 400Q23 390 13 390ZM146 303Q109 303 92 317T75 348Q75 366 92 381T144 397Q169 397 192 395T239 388Q254 405 282 436T341 500T401 561T446 598Q457 604 468 604Q485 604
500 592T515 565Q515 551 501 540Q485 528 471 514T441 482Q425 465 406 445T360 399Q357 396 353 396Q347 396 344 402T346 413Q381 446 417 487T488 556Q494 561 494 566Q494 574 486 579T467 584Q461 584 456 581Q440 572 412 545T352 483T293 419T250 371Q247
368 241 368Q218 371 194 374T144 377Q121 377 108 368T95 348Q95 338 107 331T146 323Q156 323 156 313Q156 303 146 303ZM164 -9Q96 -9 69 13T42 69Q42 97 55 129T87 193T128 253T164 300Q167 304 171 304Q176 304 180 299T179 288Q161 266 141 237T102 178T72
119T60 69Q60 35 92 23T164 11Q201 11 249 14T349 24T452 41T544 67Q553 70 563 82T570 105Q570 105 569 105T565 106Q560 106 549 102Q532 95 492 86T402 69T304 55T223 49Q180 49 163 64T146 102Q146 128 160 159T196 220T235 274T263 308Q266 311 271 311H308Q341
311 387 312T485 316T581 325T657 340Q663 342 675 349T696 366T704 386H700Q698 386 695 386T685 383Q654 372 607 367T506 361T403 359H315Q305 359 305 369Q305 379 315 379H404Q452 379 504 380T602 387T678 402Q690 406 700 406Q724 406 724 384Q724 368 709
349T663 321Q632 311 585 305T487 296T388 292T308 291H276Q253 265 228 231T184 163T166 101Q166 87 174 80T199 70Q204 69 210 69T223 68Q254 68 301 73T397 87T486 105T542 120Q557 126 567 126Q580 126 585 119T591 102Q591 88 581 72T551 49Q508 34 457 23T352
5T251 -5T164 -9ZM563 748Q544 748 531 761T517 794Q517 816 536 832Q540 834 542 834Q552 834 552 823Q552 818 548 815Q537 809 537 794Q537 783 545 776T564 768Q575 768 582 775T590 794Q590 803 583 812Q580 815 580 819Q580 825 586 828T597 826Q610 813
610 794Q610 775 597 762T563 748ZM652 750Q633 766 633 788Q633 808 646 821T679 834Q699 834 712 821T726 788Q726 769 713 756Q710 753 706 753Q701 753 698 758T699 770Q706 779 706 788Q706 799 699 806T680 814Q669 814 661 807T653 788Q653 773 664 767Q668
764 668 759Q668 754 663 750T652 750Z" />
<glyph unicode="&#xcc;" glyph-name="Igrave" horiz-adv-x="913" d="M245 -53Q202 -53 155 -43T69 -11T4 51T-21 147Q-21 206 11 256T96 342T214 399T341 419Q376 419 420 413T507 394T580 357T615 300Q617 286 611 276T593 266Q585 266 578 270Q561 279 545 289T511
309Q486 322 451 332T369 343Q362 343 354 343T338 342Q248 334 188 303T96 228T65 143Q65 94 108 57T240 20Q248 20 257 20T277 22Q328 27 384 61T499 149T613 268T721 399T813 525T881 626Q850 643 804 656T714 669Q643 669 605 627T566 514Q566 495 557 485T534
475Q520 475 508 490T495 539Q495 587 512 626T549 689Q581 726 634 742T747 758Q803 758 858 747T958 715T1031 668T1059 612Q1059 608 1059 605T1057 597Q1052 578 1041 571T1016 563Q1000 563 983 570T953 588Q949 591 949 595Q949 601 954 605T965 604Q974
597 988 590T1015 582Q1023 582 1029 586T1038 602Q1039 604 1039 607T1039 612Q1039 636 1013 658T944 699T848 728T744 739Q689 739 642 725T565 677Q546 655 531 619T515 539Q515 516 521 505T534 494Q546 494 546 514Q546 592 590 640T714 689Q765 689 816
673T900 638Q909 633 903 623Q875 580 833 519T739 390T629 256T511 133T391 42T278 2Q268 1 259 1T240 0Q175 0 132 19T67 71T45 142Q45 189 77 236T175 318T336 362Q344 363 353 363T369 363Q427 363 475 346T572 297Q577 294 582 291T592 286Q595 286 595 291T595
297Q591 323 569 341T515 370T447 387T380 396T328 398Q268 398 209 377T103 321T27 240T-2 146Q-2 97 20 63T78 7T158 -23T244 -33Q253 -33 262 -33T280 -31Q343 -25 421 14T584 126T757 308T926 558Q929 563 935 563Q940 563 944 559T944 548Q862 405 774 296T598
111T430 -4T282 -51Q273 -52 264 -52T245 -53ZM1015 798Q1006 798 998 805Q994 808 978 822T941 853T903 885T878 906Q870 914 870 921Q870 934 897 955Q908 964 919 964Q931 964 940 953Q943 949 954 938T973 918Q975 916 975 912Q975 907 970 903T959 903Q957
905 946 917T924 941Q921 944 918 944Q916 944 909 939Q896 929 894 926T892 920Q898 915 915 901T952 869T989 838T1010 821Q1014 818 1015 818T1017 824Q1017 832 1016 836T1008 848L983 873Q980 876 980 879Q980 885 986 888T997 887L1024 860Q1032 852 1033
844T1035 824Q1035 798 1015 798Z" />
<glyph unicode="&#xcd;" glyph-name="Iacute" horiz-adv-x="913" d="M245 -53Q202 -53 155 -43T69 -11T4 51T-21 147Q-21 206 11 256T96 342T214 399T341 419Q376 419 420 413T507 394T580 357T615 300Q617 286 611 276T593 266Q585 266 578 270Q561 279 545 289T511
309Q486 322 451 332T369 343Q362 343 354 343T338 342Q248 334 188 303T96 228T65 143Q65 94 108 57T240 20Q248 20 257 20T277 22Q328 27 384 61T499 149T613 268T721 399T813 525T881 626Q850 643 804 656T714 669Q643 669 605 627T566 514Q566 495 557 485T534
475Q520 475 508 490T495 539Q495 587 512 626T549 689Q581 726 634 742T747 758Q803 758 858 747T958 715T1031 668T1059 612Q1059 608 1059 605T1057 597Q1052 578 1041 571T1016 563Q1000 563 983 570T953 588Q949 591 949 595Q949 601 954 605T965 604Q974
597 988 590T1015 582Q1023 582 1029 586T1038 602Q1039 604 1039 607T1039 612Q1039 636 1013 658T944 699T848 728T744 739Q689 739 642 725T565 677Q546 655 531 619T515 539Q515 516 521 505T534 494Q546 494 546 514Q546 592 590 640T714 689Q765 689 816
673T900 638Q909 633 903 623Q875 580 833 519T739 390T629 256T511 133T391 42T278 2Q268 1 259 1T240 0Q175 0 132 19T67 71T45 142Q45 189 77 236T175 318T336 362Q344 363 353 363T369 363Q427 363 475 346T572 297Q577 294 582 291T592 286Q595 286 595 291T595
297Q591 323 569 341T515 370T447 387T380 396T328 398Q268 398 209 377T103 321T27 240T-2 146Q-2 97 20 63T78 7T158 -23T244 -33Q253 -33 262 -33T280 -31Q343 -25 421 14T584 126T757 308T926 558Q929 563 935 563Q940 563 944 559T944 548Q862 405 774 296T598
111T430 -4T282 -51Q273 -52 264 -52T245 -53ZM978 798Q958 798 958 824Q958 836 959 844T969 860L996 887Q998 889 1002 889Q1006 889 1009 887T1013 879Q1013 876 1010 873L985 848Q978 841 977 837T976 824Q976 818 977 818T983 821Q987 824 1003 838T1040 869T1078
900T1101 920Q1101 920 1101 920T1102 922Q1102 924 1099 927T1084 939Q1077 944 1075 944Q1072 944 1069 941Q1059 930 1048 918T1034 903Q1032 901 1029 901Q1025 901 1022 904T1018 912Q1018 916 1020 918Q1028 926 1039 937T1053 953Q1062 964 1074 964Q1086
964 1096 955Q1123 934 1123 921Q1123 914 1115 906Q1108 900 1091 885T1053 853T1016 822T995 805Q987 798 978 798Z" />
</font>
</defs>
</svg>
