<?xml version="1.0" standalone="no"?>
<!DOCTYPE svg PUBLIC "-//W3C//DTD SVG 1.1//EN" "http://www.w3.org/Graphics/SVG/1.1/DTD/svg11.dtd">
<svg xmlns="http://www.w3.org/2000/svg">
<defs >
<font id="Mako" horiz-adv-x="1052" ><font-face
    font-family="Mako"
    units-per-em="2048"
    panose-1="0 0 0 0 0 0 0 0 0 0"
    ascent="2141"
    descent="-538"
    alphabetic="0" />
<glyph unicode=" " glyph-name="space" horiz-adv-x="512" />
<glyph unicode="!" glyph-name="exclam" horiz-adv-x="523" d="M217 355Q215 390 212 436T204 540Q197 637 187 790T163 1162Q163 1182 162 1247T158 1404H362Q361 1313 359 1248T357 1162Q343 944 333 791T316 540Q312 483 309 437T303 355H217ZM173 -14V165H348V-14H173Z"
/>
<glyph unicode="&quot;" glyph-name="quotedbl" horiz-adv-x="606" d="M152 1007Q143 1062 137 1128Q125 1246 120 1436H273Q273 1362 266 1287T249 1148Q239 1075 225 1007H152ZM369 1007Q364 1027 360 1072T353 1175Q350 1234 349 1301T347 1436H497Q497 1362
488 1287T468 1148Q461 1111 454 1076T439 1007H369Z" />
<glyph unicode="#" glyph-name="numbersign" horiz-adv-x="1226" d="M703 102L739 430H429L395 103H245L278 430H88L98 559H290L334 992H139L153 1119H348L382 1462H533L498 1119H809L841 1460H993L960 1119H1139L1124 992H945L901 559H1092L1082 430H888L856
102H703ZM443 559H749L792 992H486L443 559Z" />
<glyph unicode="$" glyph-name="dollar" horiz-adv-x="1014" d="M478 -201L473 32Q462 32 454 33H436Q367 36 311 47T216 72Q173 86 135 104L110 254Q132 244 156 235T207 217Q252 203 311 191T438 175H454Q461 174 470 174L458 651Q445 655 433 659T409 667Q249
721 171 797T93 1022Q93 1172 191 1254T442 1353L437 1593H544L549 1356Q613 1354 668 1346T764 1328Q788 1323 810 1317T851 1305L871 1154Q826 1169 777 1181Q733 1192 676 1201T552 1213L563 787Q683 749 764 709T888 599T930 398Q930 248 849 152T580 35L586
-201H478ZM454 822L446 1206Q365 1194 311 1149T257 1016Q257 943 301 901T454 822ZM577 184Q658 198 706 243T754 381Q754 478 714 526T566 613L577 184Z" />
<glyph unicode="%" glyph-name="percent" horiz-adv-x="1394" d="M314 -77L205 -12L1083 1490L1196 1423L314 -77ZM351 761Q83 761 83 1099Q83 1270 152 1354T351 1438Q619 1438 619 1099Q619 761 351 761ZM351 864Q437 864 466 928T496 1099Q496 1207 467 1271T351
1335Q264 1335 235 1272T205 1099Q205 991 234 928T351 864ZM1042 -18Q774 -18 774 321Q774 660 1042 660Q1310 660 1310 321Q1310 -18 1042 -18ZM1042 85Q1128 85 1157 149T1187 321Q1187 429 1158 493T1042 557Q954 557 925 493T895 321Q895 213 924 149T1042
85Z" />
<glyph unicode="&amp;" glyph-name="ampersand" horiz-adv-x="1464" d="M600 -24Q457 -24 360 6T204 89Q145 141 120 210T94 353Q94 488 178 599Q219 654 283 703T422 790Q378 830 336 871T265 958Q237 1003 220 1053T203 1163Q203 1235 226 1287T298 1380Q396
1464 590 1464Q689 1464 759 1442T872 1379Q955 1303 955 1176Q955 1037 869 942T643 770L1080 371Q1100 419 1112 485T1131 618Q1138 684 1142 757T1149 912L1295 923Q1295 724 1273 565T1193 287L1418 85L1318 -20L1112 164Q1034 69 909 23T600 -24ZM551 853Q613
890 671 933T766 1029T803 1153Q803 1245 755 1291T580 1338Q466 1338 417 1288T367 1149Q367 1110 383 1070T426 993Q483 913 551 853ZM603 123Q754 123 850 158T1003 259L514 708Q390 640 330 560T269 374Q269 322 284 277T336 198Q374 164 438 144T603 123Z"
/>
<glyph unicode="&apos;" glyph-name="quotesingle" horiz-adv-x="389" d="M141 1007L135 1173Q134 1203 133 1249T130 1346T129 1436H284Q284 1371 274 1297T250 1157Q243 1119 235 1082T216 1007H141Z" />
<glyph unicode="(" glyph-name="parenleft" horiz-adv-x="598" d="M456 -186Q357 -116 281 -4Q248 44 217 106T162 245Q137 322 122 415T107 619Q107 729 122 822T162 992Q186 1069 217 1131T281 1241Q357 1353 456 1423L541 1326Q467 1260 413 1162Q389 1119
366 1065T326 942Q308 874 297 793T286 617Q286 522 297 442T326 293Q343 226 366 171T413 73Q467 -24 541 -90L456 -186Z" />
<glyph unicode=")" glyph-name="parenright" horiz-adv-x="596" d="M141 -186L55 -90Q129 -24 183 73Q232 159 271 295T311 617Q311 811 271 944T183 1162Q129 1260 55 1326L141 1423Q238 1354 315 1241Q348 1193 379 1131T435 992Q459 915 474 822T489 619Q489
509 474 416T435 245Q410 168 379 106T315 -4Q238 -117 141 -186Z" />
<glyph unicode="*" glyph-name="asterisk" horiz-adv-x="875" d="M551 719L438 964L309 722L212 777L357 1017L94 1008V1118L359 1110L225 1348L322 1403L438 1163L569 1409L666 1351L516 1109L782 1118V1008L519 1017L655 776L551 719Z" />
<glyph unicode="+" glyph-name="plus" horiz-adv-x="1000" d="M431 153V455H167V591H431V895H569V591H833V455H569V153H431Z" />
<glyph unicode="," glyph-name="comma" horiz-adv-x="507" d="M174 -213L147 -133Q203 -127 230 -90T258 0H138V200L364 216Q365 204 366 191T369 164Q371 140 373 109T375 43Q375 -50 332 -115T174 -213Z" />
<glyph unicode="-" glyph-name="hyphen" horiz-adv-x="805" d="M146 448V578H659V448H146Z" />
<glyph unicode="." glyph-name="period" horiz-adv-x="469" d="M139 -9V202H329V-9H139Z" />
<glyph unicode="/" glyph-name="slash" horiz-adv-x="698" d="M247 -202L79 -164L448 1490L621 1451L247 -202Z" />
<glyph unicode="0" glyph-name="zero" horiz-adv-x="1280" d="M133 673Q133 892 180 1047T337 1286T639 1369Q832 1369 942 1286T1100 1048T1147 673Q1147 509 1121 379T1035 160Q975 71 878 24T639 -24Q497 -24 401 23T245 160Q185 249 159 379T133 673ZM639
123Q738 123 801 162T898 274Q933 345 945 446T957 674Q957 796 944 898T895 1073Q859 1145 797 1186T639 1227Q543 1227 482 1187T385 1074Q349 1001 336 899T323 674Q323 548 336 447T386 274Q421 202 482 163T639 123Z" />
<glyph unicode="1" glyph-name="one" horiz-adv-x="659" d="M299 0V1158L97 1050L39 1191L338 1336L471 1309V0H299Z" />
<glyph unicode="2" glyph-name="two" horiz-adv-x="988" d="M120 0L90 146L553 700Q604 762 647 836T691 993Q691 1051 669 1102T595 1185T458 1217Q402 1217 343 1205T232 1179Q203 1169 174 1160T117 1140L137 1296Q192 1315 247 1329Q297 1342 359 1352T488
1363Q687 1363 779 1260T871 996Q871 875 818 779T682 585L304 144H856L836 0H120Z" />
<glyph unicode="3" glyph-name="three" horiz-adv-x="1061" d="M476 -24Q396 -24 319 -11T181 17T91 40L125 189Q145 185 199 171T328 145T479 132Q594 132 664 188T734 367Q734 452 698 510T573 598T330 628V789Q436 789 507 800T622 836Q664 862 682 904T700
1011Q700 1131 628 1176T452 1221Q389 1221 323 1211T201 1189T115 1167L140 1320Q158 1326 206 1338T319 1360T452 1370Q653 1370 771 1288T889 1030Q889 921 852 860T768 761Q716 724 648 712Q729 706 792 670Q819 652 845 628T891 569Q911 533 923 485T936 376Q936
217 873 131T706 10T476 -24Z" />
<glyph unicode="4" glyph-name="four" horiz-adv-x="1082" d="M662 -19V257H84L38 379L570 1335L837 1328V397H1004V257H837V-14L662 -19ZM233 393L424 397H662V839L672 1217L488 853L233 393Z" />
<glyph unicode="5" glyph-name="five" horiz-adv-x="1028" d="M457 -24Q398 -24 346 -16T254 3Q231 9 210 16T168 31L149 183Q170 176 192 170T240 157Q282 147 336 140T450 132Q565 132 630 159T721 251T748 424Q748 546 678 617T482 689Q396 689 320 682T197
667Q196 667 188 676L143 721L163 1339H839L824 1209H319L301 809Q317 812 333 815T367 820Q397 825 435 828T516 832Q631 832 722 789T867 657T920 425Q920 276 878 176T735 26T457 -24Z" />
<glyph unicode="6" glyph-name="six" horiz-adv-x="1196" d="M616 -24Q381 -24 255 140Q130 303 130 600Q130 770 156 901T241 1125Q300 1217 396 1270T632 1337Q695 1346 766 1346Q801 1346 839 1344T918 1338L941 1191Q771 1213 647 1195Q477 1176 398 1054Q359
993 341 906T321 705Q346 722 383 746T469 791Q518 812 577 827T706 842Q824 842 915 791T1058 647T1110 427Q1110 312 1059 209T898 41T616 -24ZM626 120Q774 120 851 194T929 424Q929 547 868 619T669 692Q595 692 533 674T423 636Q369 613 323 582Q323 575 323
567T322 529Q321 334 398 227T626 120Z" />
<glyph unicode="7" glyph-name="seven" horiz-adv-x="917" d="M365 -24L205 48L678 1174L59 1171L69 1317H826L867 1177L365 -24Z" />
<glyph unicode="8" glyph-name="eight" horiz-adv-x="1155" d="M577 -24Q496 -24 416 -5T269 56T163 170T123 345Q123 443 154 513T234 623Q285 666 327 683T412 711Q318 734 244 809T170 1013Q170 1087 194 1151T268 1264Q318 1312 395 1339T577 1367Q683 1367
761 1339T889 1263Q939 1214 963 1150T988 1013Q988 928 951 866T855 766T733 711Q777 702 828 679T926 615T1001 507T1031 345Q1031 241 992 170T886 57T740 -5T577 -24ZM579 785Q641 801 691 833Q733 859 768 906T803 1023Q803 1139 737 1180T579 1222Q521 1222
470 1205T386 1144T354 1023Q354 953 388 906T466 832Q514 802 579 785ZM577 126Q691 126 768 176T846 364Q846 450 804 507T712 594Q655 629 578 646Q505 628 446 592Q395 561 355 503T314 364Q314 229 388 178T577 126Z" />
<glyph unicode="9" glyph-name="nine" horiz-adv-x="1196" d="M430 -18Q395 -18 357 -16T278 -10L255 142Q342 131 414 130T549 137Q719 156 798 279Q837 339 855 426T875 629Q847 604 797 573T677 519T514 496Q396 496 299 544T144 685T86 911Q86 999 115 1080T205
1226Q265 1290 358 1327T580 1365Q812 1365 939 1204T1066 735Q1066 506 1018 347T860 98T563 -8Q503 -18 430 -18ZM548 642Q617 642 676 660T779 698Q831 722 873 753Q873 764 873 771T874 810Q874 1005 797 1112Q719 1220 570 1220Q421 1220 344 1145T267 913Q267
777 339 710T548 642Z" />
<glyph unicode=":" glyph-name="colon" horiz-adv-x="501" d="M148 591V805H353V591H148ZM147 94V306H353V94H147Z" />
<glyph unicode=";" glyph-name="semicolon" horiz-adv-x="514" d="M152 591V805H357V591H152ZM188 -213L160 -133Q206 -127 228 -90T250 0H152V189L355 195L361 150Q363 129 365 102T367 43Q367 -51 328 -116T188 -213Z" />
<glyph unicode="&lt;" glyph-name="less" horiz-adv-x="1000" d="M840 138L111 506V623L840 987L889 823L317 561L889 301L840 138Z" />
<glyph unicode="=" glyph-name="equal" horiz-adv-x="1000" d="M190 548V663H810V548H190ZM191 336V449H810V336H191Z" />
<glyph unicode="&gt;" glyph-name="greater" horiz-adv-x="1000" d="M161 138L112 301L682 561L112 823L161 987L889 623V506L161 138Z" />
<glyph unicode="?" glyph-name="question" horiz-adv-x="872" d="M192 302V590Q192 661 224 706T307 783T414 841Q471 869 522 899T604 975T636 1090Q636 1197 582 1242T393 1288Q340 1288 288 1281T192 1266Q167 1261 143 1256T97 1244Q96 1238 96 1244H97Q98
1255 99 1297T101 1388Q147 1402 195 1412Q237 1421 289 1429T394 1437Q551 1437 640 1390T766 1265T804 1093Q804 998 770 933T685 824Q634 780 574 751Q515 723 464 700T377 653Q343 631 343 600V302H192ZM274 -28Q233 -28 203 3T173 78Q173 125 203 158T274
191Q319 191 349 157T379 78Q379 35 349 4T274 -28Z" />
<glyph unicode="@" glyph-name="at" horiz-adv-x="1603" d="M1511 685Q1511 577 1491 498T1435 362Q1399 305 1357 271Q1288 215 1220 199T1109 183Q1054 183 1031 210T1005 279T1011 365L1025 449L1016 450Q998 376 957 315Q919 263 857 222T691 180Q547 180
466 276T384 533Q384 629 425 722T542 889Q616 962 716 999T929 1022Q1021 1011 1067 1003T1114 994L1160 895L1105 287Q1137 287 1184 298T1277 355Q1306 383 1329 427T1365 536Q1378 597 1378 688Q1378 948 1227 1073T827 1198Q647 1198 517 1111T313 882T232
572Q223 401 289 273T489 74T817 3Q930 3 1010 24T1141 73Q1200 102 1240 141Q1270 116 1285 94T1309 62Q1266 10 1199 -26Q1169 -42 1131 -58T1044 -87Q995 -100 936 -107T807 -115Q594 -115 430 -33T176 202T94 572Q100 731 157 867T313 1104T541 1261T821 1317Q1018
1317 1174 1245T1420 1033T1511 685ZM1035 896Q1033 896 1002 901T930 912T864 917Q771 913 694 861T569 727T517 557Q501 299 709 299Q841 299 918 399Q956 448 978 519T1012 681L1035 896Z" />
<glyph unicode="A" glyph-name="A" horiz-adv-x="1234" d="M41 0L517 1437H718L1193 0H997L899 327H335L236 0H41ZM368 439H865L618 1243L368 439Z" />
<glyph unicode="B" glyph-name="B" horiz-adv-x="1251" d="M181 0V1437H576Q853 1437 969 1350Q1083 1265 1083 1060Q1083 984 1055 930T984 840Q940 802 896 788T827 772Q921 764 989 725Q1019 708 1049 682T1101 620Q1124 583 1137 533T1151 415Q1151 200 1027
100T652 0H181ZM362 825H595Q681 825 740 841T835 888Q903 945 903 1068Q903 1138 884 1179T822 1246Q740 1292 551 1292H362V825ZM362 144H604Q695 144 764 155T880 195Q926 224 949 276T973 417Q973 501 951 554T883 640Q837 672 767 685T601 698H362V144Z" />
<glyph unicode="C" glyph-name="C" horiz-adv-x="1194" d="M693 -24Q572 -24 468 10T287 132Q210 219 166 365T120 727Q120 935 165 1076T289 1304Q369 1390 477 1427T713 1464Q794 1464 863 1455T984 1434Q1014 1427 1041 1420T1092 1405L1108 1250Q1060 1268
998 1283Q947 1294 879 1304T734 1314Q637 1314 560 1284T429 1186Q375 1118 347 1008T318 729Q320 408 418 265Q468 192 542 159T715 127Q798 126 869 136T994 163Q1056 180 1108 199L1091 43Q1045 25 980 9Q927 -4 854 -14T693 -24Z" />
<glyph unicode="D" glyph-name="D" horiz-adv-x="1377" d="M181 0V1437H593Q677 1437 758 1429T914 1394Q990 1366 1051 1321Q1113 1275 1159 1199T1231 1014Q1257 902 1257 748Q1257 577 1230 439T1134 203T946 53T638 0H181ZM575 144Q860 144 968 272Q1024 339
1046 453T1069 740Q1069 881 1050 983T982 1154Q933 1222 851 1257T645 1292H373V144H575Z" />
<glyph unicode="E" glyph-name="E" horiz-adv-x="1086" d="M181 0V1437H997L973 1292H370V809H862V670H370V145H995L972 0H181Z" />
<glyph unicode="F" glyph-name="F" horiz-adv-x="1083" d="M181 0V1437H1015L991 1292H366V820H921V672H366V0H181Z" />
<glyph unicode="G" glyph-name="G" horiz-adv-x="1360" d="M699 -24Q536 -24 405 51T197 289T120 721Q120 937 172 1081T313 1309T515 1428T751 1464Q877 1464 970 1444T1128 1399L1142 1240Q1078 1265 984 1289T756 1314Q543 1314 431 1177T318 749Q318 436 410
282T717 127Q848 127 929 170T1053 253V609H782L763 743H1212V4H1108L1070 125Q1045 93 999 59T879 0T699 -24Z" />
<glyph unicode="H" glyph-name="H" horiz-adv-x="1431" d="M181 0V1437H366V817H1065V1437H1250V0H1065V677H366V0H181Z" />
<glyph unicode="I" glyph-name="I" horiz-adv-x="561" d="M189 0V1437H372V0H189Z" />
<glyph unicode="J" glyph-name="J" horiz-adv-x="701" d="M83 -81L35 53Q104 53 153 59T235 80Q269 96 288 120Q324 165 330 275Q333 328 333 399V1437H520L516 308Q516 226 499 155T434 32Q386 -20 302 -50T83 -81Z" />
<glyph unicode="K" glyph-name="K" horiz-adv-x="1289" d="M181 0V1437H366V740L1032 1437H1217V1384L637 780L1269 47V0H1077L508 672L366 530V0H181Z" />
<glyph unicode="L" glyph-name="L" horiz-adv-x="982" d="M181 0V1437H366V142H954L937 0H181Z" />
<glyph unicode="M" glyph-name="M" horiz-adv-x="1794" d="M178 0L242 1437H516L837 380L905 149L967 380L1289 1437H1563L1616 0H1433L1402 988L1401 1286L1316 941L1021 32H784L489 941L405 1286L402 987L362 0H178Z" />
<glyph unicode="N" glyph-name="N" horiz-adv-x="1479" d="M181 0V1437H371L1122 289V1437H1298V1H1116L357 1148V0H181Z" />
<glyph unicode="O" glyph-name="O" horiz-adv-x="1399" d="M120 722Q120 1098 268 1281T698 1464Q982 1464 1130 1281T1279 722Q1279 342 1131 159T698 -24Q416 -24 268 159T120 722ZM311 722Q311 581 332 471T401 284Q448 208 521 168T698 127Q803 127 876 167T997
284Q1044 361 1065 471T1087 722Q1087 862 1066 972T997 1158Q950 1234 877 1274T698 1314Q595 1314 522 1274T402 1158Q356 1082 334 972T311 722Z" />
<glyph unicode="P" glyph-name="P" horiz-adv-x="1221" d="M1143 998Q1143 876 1107 796T996 665Q920 615 803 593T524 571H429Q414 571 399 571T366 572V0H181V1437H490Q684 1437 810 1416T1010 1343Q1084 1292 1113 1209T1143 998ZM540 717Q777 717 867 782Q914
816 932 868T950 1000Q950 1094 932 1151T866 1239Q818 1271 733 1282T513 1293H366V717H540Z" />
<glyph unicode="Q" glyph-name="Q" horiz-adv-x="1395" d="M1059 -400Q984 -359 916 -311T789 -212Q731 -162 683 -113T600 -20Q369 9 247 189Q185 281 153 413T120 722Q120 917 160 1058T275 1291Q350 1381 456 1422T696 1464Q831 1464 938 1423T1120 1291Q1195
1200 1235 1059T1275 722Q1275 486 1216 330T1051 90T801 -14Q866 -66 945 -127T1151 -265Q1151 -268 1105 -331Q1059 -395 1059 -400ZM698 127Q900 127 995 283Q1042 360 1063 471T1084 722Q1084 861 1063 972T994 1158Q948 1233 874 1273T698 1314Q595 1314 522
1274T402 1158Q356 1083 334 972T311 722Q311 582 332 471T401 283Q448 207 521 167T698 127Z" />
<glyph unicode="R" glyph-name="R" horiz-adv-x="1230" d="M181 0V1437H611Q769 1437 881 1405T1054 1285T1114 1028Q1114 878 1062 793T928 668T756 618L1160 57V0H979L569 600H369V0H181ZM369 740H593Q693 740 760 753T867 799Q908 831 924 882T941 1011Q941
1104 924 1160T862 1247Q819 1277 745 1288T561 1299H369V740Z" />
<glyph unicode="S" glyph-name="S" horiz-adv-x="1118" d="M533 -24Q385 -24 292 1T143 55L117 213Q182 181 281 154T515 127Q668 127 753 179T838 380Q838 466 808 517T703 605T490 686Q348 728 261 778T135 904T96 1097Q100 1235 165 1315T340 1430T586 1465Q675
1465 765 1450T936 1408L957 1244Q900 1267 796 1290T584 1313Q446 1313 361 1268T276 1091Q278 1028 304 985T397 907T586 835Q698 798 780 763T917 680T997 560T1024 376Q1024 192 909 84T533 -24Z" />
<glyph unicode="T" glyph-name="T" horiz-adv-x="1072" d="M441 0V1293H29V1437H1043L1019 1293H628V0H441Z" />
<glyph unicode="U" glyph-name="U" horiz-adv-x="1436" d="M721 -24Q561 -24 437 21T243 181T173 501V1437H364V513Q364 292 449 208Q493 165 560 146T720 127Q902 127 987 212T1073 513V1437H1263V500Q1263 294 1193 180T1000 21T721 -24Z" />
<glyph unicode="V" glyph-name="V" horiz-adv-x="1189" d="M459 0L45 1437H256L520 421L598 94L672 421L929 1437H1143L731 0H459Z" />
<glyph unicode="W" glyph-name="W" horiz-adv-x="1858" d="M366 0L79 1437H272L476 325L512 124L550 322L794 1376H1066L1311 321L1350 124L1386 325L1588 1437H1777L1494 0H1218L994 943L929 1262L866 942L642 0H366Z" />
<glyph unicode="X" glyph-name="X" horiz-adv-x="1120" d="M61 0L419 728L64 1437H272L560 809L848 1437H1057L697 728L1059 0H851L626 485L560 626L494 484L269 0H61Z" />
<glyph unicode="Y" glyph-name="Y" horiz-adv-x="1133" d="M465 0V449L27 1437H237L467 871L565 609H572L666 871L899 1437H1107L667 450V0H465Z" />
<glyph unicode="Z" glyph-name="Z" horiz-adv-x="1104" d="M107 0L92 156L619 972L840 1292L638 1287H88L112 1437H1004L1020 1273L392 291L281 141L484 147H1006L983 0H107Z" />
<glyph unicode="[" glyph-name="bracketleft" horiz-adv-x="646" d="M172 -218V1437H578V1319H341L347 966V337L341 -102H578V-218H172Z" />
<glyph unicode="\" glyph-name="backslash" horiz-adv-x="698" d="M461 -220L78 1492L238 1533L620 -179L461 -220Z" />
<glyph unicode="]" glyph-name="bracketright" horiz-adv-x="646" d="M69 -218V-102H306L300 337V966L306 1319H69V1437H475V-218H69Z" />
<glyph unicode="^" glyph-name="asciicircum" horiz-adv-x="889" d="M52 279Q56 287 81 345T141 485T210 647Q244 726 278 806T337 945T367 1013H522L836 279H662Q654 298 626 377T553 579Q454 851 444 880L336 579Q287 443 262 372T228 279H52Z" />
<glyph unicode="_" glyph-name="underscore" horiz-adv-x="1156" d="M121 -1V149H1035V-1H121Z" />
<glyph unicode="`" glyph-name="grave" horiz-adv-x="378" d="M238 1172L5 1665H230L310 1172H238Z" />
<glyph unicode="a" glyph-name="a" horiz-adv-x="1074" d="M900 221Q900 163 912 150T960 136Q971 136 983 136T1006 137L992 2Q992 2 971 1T923 -1T881 -3Q824 -3 791 19T744 70T730 117Q709 88 667 57T554 4T374 -18Q241 -18 159 61T76 275Q76 395 142 458T313
544T534 568Q569 568 602 566T661 561L716 553V666Q716 773 694 825T622 895T485 912Q385 912 301 892T157 848L177 996Q224 1016 301 1034T499 1053Q661 1053 748 1010T867 870T900 611V221ZM564 453Q520 453 465 449T360 427T278 372T245 268Q245 191 294 154T435
117Q537 117 606 145T716 204V447L667 450L564 453Z" />
<glyph unicode="b" glyph-name="b" horiz-adv-x="1134" d="M616 -18Q544 -18 489 0T396 41Q350 68 320 101L294 -9L158 0V1418L343 1437V956Q378 979 425 999Q464 1016 517 1029T637 1043Q743 1043 831 988T974 815T1028 507Q1028 361 993 261T898 98Q840 36 766
9T616 -18ZM588 122Q640 122 687 142T768 209Q803 254 823 326T843 503Q843 692 783 796T601 901Q546 901 500 889T418 861Q378 843 343 822V217Q372 191 411 169Q443 151 488 137T588 122Z" />
<glyph unicode="c" glyph-name="c" horiz-adv-x="925" d="M548 -18Q465 -18 386 8T245 95Q182 157 144 259T106 506Q106 608 123 688T172 829Q202 890 244 930Q308 992 384 1017T543 1043Q609 1043 663 1035T756 1015Q804 1003 838 987L853 852Q834 859 813 865T768
877Q729 886 678 894T570 902Q432 902 366 811Q332 763 314 688T295 509Q295 310 366 213Q401 165 452 144T570 122Q627 122 678 129T769 146Q814 156 854 170L838 37Q805 22 757 9Q719 -2 666 -10T548 -18Z" />
<glyph unicode="d" glyph-name="d" horiz-adv-x="1135" d="M512 -18Q438 -18 365 9T235 98Q177 160 142 260T106 507Q106 697 159 815T302 988T499 1043Q563 1043 617 1031T711 1004Q758 987 796 966V1418L979 1437V0L836 -8L804 102Q774 68 732 42Q696 19 642
1T512 -18ZM541 122Q597 122 643 137T724 170Q766 192 796 219V833Q760 851 717 867Q680 880 632 890T528 901Q408 901 349 797T290 503Q290 399 310 327T365 209Q400 163 445 143T541 122Z" />
<glyph unicode="e" glyph-name="e" horiz-adv-x="1017" d="M873 30Q838 17 793 6Q755 -3 704 -10T592 -18Q106 -18 106 501Q106 646 140 746T234 913Q294 979 376 1011T553 1043Q677 1043 761 993T888 862T934 687Q934 660 932 620T926 544T918 496H297V460Q297
331 336 257T444 153T605 122Q662 122 713 128T805 143Q852 152 892 164L873 30ZM557 906Q510 906 467 892T388 843Q353 809 330 754T300 608H773Q773 627 774 633Q775 638 775 649V664Q771 791 710 848T557 906Z" />
<glyph unicode="f" glyph-name="f" horiz-adv-x="721" d="M229 0V921H53V1025H230V1034Q235 1248 301 1342Q368 1437 516 1437Q561 1437 597 1431T660 1417Q675 1413 688 1408T713 1398L727 1278Q715 1282 703 1285T677 1291Q654 1296 626 1300T569 1304Q478 1304
445 1259T412 1075V1025H685V921H412V0H229Z" />
<glyph unicode="g" glyph-name="g" horiz-adv-x="1129" d="M546 -461Q486 -461 441 -454T364 -439Q327 -428 303 -417L283 -283Q319 -296 357 -304Q391 -312 435 -318T531 -325Q606 -325 654 -310T732 -254Q761 -215 772 -147T785 39V72Q754 53 711 36Q675 22
623 11T504 0Q427 0 356 29T229 119Q174 181 140 278T106 509Q106 649 133 750T212 916Q263 981 337 1012T505 1043Q627 1043 703 1003T818 932L851 1031H971V67Q971 -79 951 -179T881 -342Q832 -405 750 -433T546 -461ZM527 140H539Q597 141 642 150T720 171Q759
185 785 200V822Q751 844 712 861Q678 876 633 888T533 901Q465 901 420 873T345 795Q317 745 304 675T291 520Q291 434 305 364T348 243Q408 141 527 140Z" />
<glyph unicode="h" glyph-name="h" horiz-adv-x="1160" d="M158 0V1419L343 1437V925Q424 989 504 1016T688 1043Q861 1043 936 937T1011 576V0H826V562Q826 697 805 771T743 873T641 902Q579 902 521 879T416 830T343 795V0H158Z" />
<glyph unicode="i" glyph-name="i" horiz-adv-x="492" d="M153 1226V1408H345V1226H153ZM158 0V1031H334V0H158Z" />
<glyph unicode="j" glyph-name="j" horiz-adv-x="496" d="M153 1226V1408H345V1226H153ZM1 -326L-54 -203Q24 -159 70 -115T137 -8T158 152V1031H341V133Q341 52 324 -15T266 -139Q226 -196 161 -242T1 -326Z" />
<glyph unicode="k" glyph-name="k" horiz-adv-x="1047" d="M158 0V1419L343 1437V564L812 1025H1007V986L565 559L1031 35V0H841L433 468L343 385V0H158Z" />
<glyph unicode="l" glyph-name="l" horiz-adv-x="500" d="M158 0V1419L342 1437V0H158Z" />
<glyph unicode="m" glyph-name="m" horiz-adv-x="1691" d="M158 0V1025L287 1037L314 922Q394 981 481 1012T669 1043Q769 1043 826 1011T907 919Q972 973 1057 1008T1266 1043Q1408 1043 1475 944T1542 642V0H1356V562Q1356 654 1350 719T1326 824Q1295 901 1211
901Q1167 901 1109 886T1002 848T935 808L942 754Q945 725 947 681T950 573V0H764V597Q764 777 736 841Q721 876 696 888T632 901Q544 901 469 869T343 808V0H158Z" />
<glyph unicode="n" glyph-name="n" horiz-adv-x="1156" d="M158 0V1025L287 1037L314 922Q338 940 373 961T455 1001Q500 1019 555 1031T674 1043Q753 1043 814 1021T919 949Q962 900 984 820T1007 624V0H822V584Q822 666 813 726T783 825Q742 901 638 901Q582
901 530 886T435 854Q411 844 388 833T343 808V0H158Z" />
<glyph unicode="o" glyph-name="o" horiz-adv-x="1119" d="M560 -18Q406 -18 305 49T155 235T106 510Q106 753 217 898T560 1043Q790 1043 901 898T1013 510Q1013 354 964 235T815 49T560 -18ZM560 122Q635 122 686 150T769 230Q801 282 814 354T827 512Q827 697
768 799T560 901Q485 901 435 876T352 800Q321 751 307 679T293 512Q293 427 307 355T352 230Q384 178 434 150T560 122Z" />
<glyph unicode="p" glyph-name="p" horiz-adv-x="1136" d="M158 -415V1025L278 1036L311 927Q381 978 463 1010T666 1043Q841 1043 934 916Q1030 785 1030 514Q1030 325 980 208T845 37T655 -18Q586 -18 529 -5T430 26Q382 46 343 71V-399L158 -415ZM606 122Q722
122 783 212T844 524Q844 722 791 811T631 901Q571 901 519 888T428 858Q383 841 343 816V198Q378 177 419 160Q454 146 502 134T606 122Z" />
<glyph unicode="q" glyph-name="q" horiz-adv-x="1107" d="M767 -417V71Q728 46 680 26Q639 9 585 -4T466 -18Q301 -18 205 120Q158 188 132 286T106 509Q106 772 209 907T497 1043Q567 1043 646 1035T796 1011Q892 991 931 979L952 974V-390L767 -417ZM527 122Q572
122 614 133T691 159Q733 176 767 196V875Q747 879 727 882T687 889Q652 894 613 897T539 901Q483 901 437 883T359 821Q326 776 308 702T290 512Q290 122 527 122Z" />
<glyph unicode="r" glyph-name="r" horiz-adv-x="736" d="M158 0V1025L287 1035L322 917Q380 977 451 1010T598 1043Q618 1043 637 1040T671 1032Q686 1028 704 1021L682 878Q678 881 668 885Q660 887 645 889T606 892Q549 892 501 877T418 845Q398 835 379 824T343
799V0H158Z" />
<glyph unicode="s" glyph-name="s" horiz-adv-x="925" d="M444 -19Q366 -19 286 -4T132 38L113 189Q134 181 185 166T302 138T433 126Q496 126 548 138T633 185T665 285Q665 332 644 362T568 416T410 465Q261 503 182 567T102 777Q102 878 158 936T303 1018T489
1043Q561 1043 630 1032T753 1001L773 854Q738 865 656 882T490 899Q400 899 337 878T273 773Q273 729 291 702T363 655T519 607Q694 562 766 491T839 282Q839 175 784 109T640 12T444 -19Z" />
<glyph unicode="t" glyph-name="t" horiz-adv-x="679" d="M444 -18Q376 -18 329 -1T253 57Q197 136 197 337V921H55V1025H204L230 1345L379 1374V1025H635V921H382V298Q382 190 400 152T492 114Q519 114 544 116T589 123L631 132L615 3Q606 -1 595 -3T571 -8Q549
-12 518 -15T444 -18Z" />
<glyph unicode="u" glyph-name="u" horiz-adv-x="1156" d="M484 -18Q310 -18 230 92T149 438V1025H333V445Q333 358 343 297T375 197Q418 122 527 122Q590 122 642 136T733 169Q779 191 813 217V1025H998V0L864 -11L839 118Q799 79 746 50Q700 24 635 3T484 -18Z" />
<glyph unicode="v" glyph-name="v" horiz-adv-x="965" d="M373 0L45 1025H239L482 161L732 1025H921L594 0H373Z" />
<glyph unicode="w" glyph-name="w" horiz-adv-x="1485" d="M321 0L64 1025H264L451 93L618 1011H853L1051 93L1213 1025H1414L1175 0H931L735 877L567 0H321Z" />
<glyph unicode="x" glyph-name="x" horiz-adv-x="997" d="M53 0L395 513L53 1025H247L499 617L749 1025H945L601 513L945 0H738L499 402L258 0H53Z" />
<glyph unicode="y" glyph-name="y" horiz-adv-x="979" d="M311 -429Q249 -429 198 -417T110 -390Q67 -373 32 -351L45 -225Q87 -242 125 -252Q160 -262 200 -270T279 -278Q325 -278 342 -244T375 -154L399 -47L43 1025H242L491 136L738 1025H934L581 -60Q542 -180
509 -262T431 -387T311 -429Z" />
<glyph unicode="z" glyph-name="z" horiz-adv-x="878" d="M84 0V153L616 896L378 891H101V1031H779L811 888L273 134L461 138H799V0H84Z" />
<glyph unicode="{" glyph-name="braceleft" horiz-adv-x="608" d="M526 -206Q464 -205 416 -195T331 -157Q296 -132 269 -83Q219 12 206 213Q202 264 201 324T199 454L74 550V657L199 752Q199 891 206 993T229 1169Q244 1244 269 1289Q316 1380 416 1401Q440 1406
467 1408T526 1412V1322Q468 1322 439 1299T396 1212Q378 1127 378 936Q377 887 377 830T377 708L211 605L377 497Q377 366 378 270T383 105Q388 34 396 -6Q410 -69 439 -92T526 -116V-206Z" />
<glyph unicode="|" glyph-name="bar" horiz-adv-x="533" d="M173 -131V1473H361V-131H173Z" />
<glyph unicode="}" glyph-name="braceright" horiz-adv-x="608" d="M82 -206V-116Q140 -116 169 -93T212 -6Q229 80 230 270V497L397 605L230 708Q230 839 230 936T225 1101Q223 1135 220 1162T212 1212Q199 1275 170 1298T82 1322V1412Q144 1411 192 1401T278
1363Q313 1337 339 1289Q389 1194 402 994Q406 942 407 882T409 752L535 657V550L409 454Q409 178 380 37Q363 -40 339 -83Q314 -130 278 -156T193 -194Q144 -204 82 -206Z" />
<glyph unicode="~" glyph-name="asciitilde" horiz-adv-x="1000" d="M661 491Q639 489 620 493Q574 499 529 523T444 570T373 595Q342 595 331 566T320 498H188Q187 563 202 607T242 676Q266 702 298 712T363 721Q411 719 458 695T546 647T614 617Q639 611 655
622Q670 633 675 656T681 705H812Q814 593 766 543T661 491Z" />
<glyph unicode="&#xa0;" glyph-name="uni00A0" horiz-adv-x="512" />
<glyph unicode="&#xa1;" glyph-name="exclamdown" horiz-adv-x="525" d="M218 1049H304Q306 1014 309 968T317 864Q324 767 334 614T358 242Q358 223 360 157T363 0H159Q161 91 162 157T164 242Q178 460 188 613T205 864Q209 921 212 967T218 1049ZM174 1418H349V1239H174V1418Z"
/>
<glyph unicode="&#xa2;" glyph-name="cent" horiz-adv-x="981" d="M500 -129L502 -26Q434 -20 368 6T242 87Q151 170 116 325Q97 401 97 504Q97 654 137 756T244 920Q303 977 376 1004T525 1034L528 1161H588L585 1034Q717 1026 805 953T885 744L733 750Q734 821
695 854T583 892L567 109V109Q626 109 679 120T773 144Q808 155 834 167T860 179L834 42Q809 25 737 0T564 -28L562 -129H500ZM286 507Q286 316 342 224T505 114L522 891Q473 886 433 866T361 808Q325 763 306 689T286 507Z" />
<glyph unicode="&#xa3;" glyph-name="sterling" horiz-adv-x="994" d="M89 -3V140H185Q209 167 229 238Q245 298 259 407T274 697H108V814H274V1059Q274 1241 358 1348T623 1453Q676 1452 720 1444T798 1424Q838 1412 868 1396V1257Q852 1263 836 1269T803 1280Q774
1289 735 1296T654 1304Q547 1304 507 1248T464 1083T460 814H821V697H460Q460 602 455 528T442 396Q434 339 424 298T403 229Q377 161 347 141H885L874 -3H89Z" />
<glyph unicode="&#xa4;" glyph-name="currency" horiz-adv-x="1184" d="M211 490L145 560L262 679Q217 735 196 803T175 945Q175 1020 196 1089T265 1215L145 1337L215 1409L338 1283Q386 1316 448 1335T591 1354Q672 1354 734 1335T844 1281L970 1409L1040 1337L916
1213Q962 1157 983 1088T1005 945Q1005 872 985 805T919 682L1040 560L973 490L850 613Q802 577 738 557T591 536Q508 536 444 556T331 612L211 490ZM591 677Q684 677 740 715T823 814T849 945Q849 1014 824 1075T741 1173T591 1211Q497 1211 441 1174T358 1075T332
945Q332 875 358 814T440 715T591 677Z" />
<glyph unicode="&#xa5;" glyph-name="yen" horiz-adv-x="1061" d="M437 -3V254H170V339H433L427 460H170V550H406Q399 564 356 670T230 975Q149 1172 106 1278T55 1398H246L447 879Q449 867 459 838T488 745Q508 680 517 651T528 609L571 743Q591 805 601 840T613
879Q613 883 628 924T665 1023T708 1136Q755 1258 780 1323T809 1398H1001Q997 1391 982 1355T941 1254Q889 1131 825 975Q743 776 700 670T649 550H899V460H628Q627 453 625 423T623 339H902V254H618V-3H437Z" />
<glyph unicode="&#xa6;" glyph-name="brokenbar" horiz-adv-x="534" d="M177 815V1473H357V815H177ZM177 -138V576H357V-138H177Z" />
<glyph unicode="&#xa7;" glyph-name="section" horiz-adv-x="1003" d="M504 -47Q432 -47 374 -37T273 -14Q226 -1 184 19L162 159Q185 149 209 141T262 124Q308 111 369 101T499 90Q603 90 661 121T721 232Q723 296 673 332T550 394T406 449Q323 483 271 514T186
576Q155 608 143 642T130 717Q130 777 162 820T231 892Q197 916 159 964T123 1091Q125 1201 180 1259T318 1338T487 1360Q552 1360 604 1351T695 1331Q717 1324 737 1317T774 1302Q774 1298 785 1264T796 1163Q762 1179 687 1201T486 1223Q399 1221 343 1199T286
1094Q286 1036 322 1003T423 945T567 889Q660 853 730 820T839 740T878 617Q878 569 858 529T815 463T781 430Q819 402 857 352T893 227Q893 150 855 88T731 -10T504 -47ZM699 476Q714 490 725 508Q735 524 743 547T751 603Q751 656 697 688Q669 705 626 722T521
763Q475 780 418 802T312 846Q295 835 276 808T254 751Q250 696 288 663Q325 630 455 576Q500 558 573 530T699 476Z" />
<glyph unicode="&#xa8;" glyph-name="dieresis" horiz-adv-x="847" d="M524 1214V1381H698V1214H524ZM149 1214V1381H322V1214H149Z" />
<glyph unicode="&#xa9;" glyph-name="copyright" horiz-adv-x="1612" d="M806 -17Q661 -17 530 36T300 190Q204 287 148 418T92 708Q92 862 148 994T302 1226Q402 1327 533 1381T806 1435Q964 1435 1097 1375T1324 1212Q1417 1109 1468 980T1520 708Q1520 544
1461 409T1299 179Q1192 79 1064 31T806 -17ZM808 89Q967 89 1102 165T1320 381T1402 708Q1402 826 1361 937T1244 1135Q1166 1224 1055 1276T808 1329Q679 1329 570 1281T381 1148T256 950T212 708Q212 531 289 391T501 170T808 89ZM816 248Q671 248 585 314T460
486T421 708Q421 840 465 943T597 1107T816 1167Q865 1167 914 1156T1001 1131T1047 1110L1053 1013Q1037 1019 1021 1025T986 1036Q954 1045 913 1052T823 1060Q720 1060 659 1013T572 886T546 708Q546 606 571 526T657 401T823 355Q876 355 926 367T1011 395T1053
417L1047 313Q1025 302 962 275T816 248Z" />
<glyph unicode="&#xaa;" glyph-name="ordfeminine" horiz-adv-x="953" d="M722 690Q722 647 730 637T766 627Q774 627 783 627T800 628L789 528Q789 528 757 527T708 525Q645 525 621 559T596 613Q573 581 514 548T334 514Q236 514 176 572T115 729Q115 817 163
863T289 927T452 945Q478 945 502 943T546 940L586 934V1017Q586 1095 570 1134T517 1185T416 1198Q342 1198 280 1183T175 1151L189 1260Q224 1275 280 1288T426 1302Q546 1302 609 1270T697 1167T722 977V690ZM474 860Q431 860 376 853T280 818T239 724Q239 613
379 613Q454 613 505 634T586 677V856L550 858L474 860ZM198 297V375H798V297H198Z" />
<glyph unicode="&#xab;" glyph-name="guillemotleft" horiz-adv-x="1150" d="M529 76L58 552L529 1026L605 914L243 552L603 189L529 76ZM966 93L478 552L964 1011L1039 900L666 552L1040 205L966 93Z" />
<glyph unicode="&#xac;" glyph-name="logicalnot" horiz-adv-x="1000" d="M751 319V682H50V836H921V319H751Z" />
<glyph unicode="&#xae;" glyph-name="registered" horiz-adv-x="1218" d="M610 482Q471 482 358 549T177 729T110 981Q110 1121 177 1234T358 1414T610 1481Q748 1481 861 1415T1041 1235T1108 981Q1108 842 1042 729T862 549T610 482ZM610 565Q725 565 818 619T967
768T1023 980Q1023 1098 968 1192T819 1342T610 1397Q495 1397 402 1342T253 1193T197 980Q197 862 252 768T401 620T610 565ZM449 720V1257H569Q639 1257 684 1248T755 1219Q781 1200 791 1172T801 1106Q801 1037 770 1003T659 955Q671 939 683 919Q694 902 707
881T735 838L811 720H715L577 947H537V720H449ZM539 1019H589Q663 1019 688 1038T714 1106Q714 1153 688 1169T567 1185H539V1019Z" />
<glyph unicode="&#xaf;" glyph-name="overscore" horiz-adv-x="890" d="M150 1215V1349H741V1215H150Z" />
<glyph unicode="&#xb0;" glyph-name="degree" horiz-adv-x="675" d="M570 985Q570 888 506 822T337 755Q240 755 173 818T106 985Q106 1083 170 1148T337 1213Q438 1213 504 1148T570 985ZM456 985Q456 1036 425 1069T337 1103Q283 1103 251 1070T218 985Q218
934 249 902T337 869Q391 869 423 901T456 985Z" />
<glyph unicode="&#xb1;" glyph-name="plusminus" horiz-adv-x="1000" d="M429 232V532H108V654H429V954H574V654H892V532H574V232H429ZM108 -6V121H892V-6H108Z" />
<glyph unicode="&#xb2;" glyph-name="uni00B2" horiz-adv-x="843" d="M113 0L93 136L474 542Q508 580 537 627T566 722Q566 777 525 813T395 849Q349 849 300 839T208 818Q183 811 159 803T112 787L131 933Q169 947 219 960Q259 971 309 979T414 988Q572 988 657
916Q737 848 737 726Q737 640 694 571T584 434L292 136H722L710 0H113Z" />
<glyph unicode="&#xb3;" glyph-name="uni00B3" horiz-adv-x="886" d="M392 -25Q286 -25 205 -2T91 31L120 155Q141 148 163 142T208 130Q247 120 296 113T395 105Q604 105 604 250Q604 330 533 368T277 407V536Q449 536 511 571T573 682Q573 760 522 790T371 820Q321
820 266 812T168 795T113 783L134 910Q153 915 173 920T213 929Q248 936 291 942T376 948Q564 948 648 884T732 699Q732 636 706 595T646 530Q611 505 584 495T537 476Q553 475 590 467T670 436Q702 419 738 375T774 244Q774 147 722 88T584 2T392 -25Z" />
<glyph unicode="&#xb4;" glyph-name="acute" horiz-adv-x="393" d="M75 1172L155 1665H380L147 1172H75Z" />
<glyph unicode="&#xb5;" glyph-name="uni00B5" horiz-adv-x="1161" d="M171 -300V1019H354V435Q354 348 364 287T397 187Q441 113 551 113Q614 113 665 131T755 172Q798 197 835 231V1019H1020V3L887 -8L862 132Q827 87 779 52Q737 22 676 -3T534 -28Q446 -28
394 14T330 120L326 -300H171Z" />
<glyph unicode="&#xb6;" glyph-name="paragraph" horiz-adv-x="1182" d="M440 -3V878Q267 872 167 930T67 1148Q68 1248 104 1306T210 1393Q278 1422 377 1429T603 1437H1101L1126 1298H901V-3H733V1298H608V-3H440Z" />
<glyph unicode="&#xb7;" glyph-name="middot" horiz-adv-x="469" d="M148 477V672H321V477H148Z" />
<glyph unicode="&#xb8;" glyph-name="cedilla" horiz-adv-x="537" d="M283 -538Q243 -538 212 -531T157 -514Q129 -502 111 -490L101 -394Q115 -400 130 -405T161 -416Q187 -424 218 -430T278 -437Q326 -437 349 -420T379 -381T386 -345Q386 -310 368 -290T314
-258Q280 -247 231 -242T123 -232Q123 -222 130 -186T143 -105Q151 -53 161 2H263L246 -69Q238 -100 234 -122L226 -155Q262 -155 308 -161T399 -187Q443 -206 470 -244T498 -340Q498 -431 438 -484T283 -538Z" />
<glyph unicode="&#xb9;" glyph-name="uni00B9" horiz-adv-x="613" d="M289 0V798L203 751L98 697L43 829L326 966L448 939V0H289Z" />
<glyph unicode="&#xba;" glyph-name="ordmasculine" horiz-adv-x="930" d="M464 515Q294 515 213 623T131 903Q131 1082 212 1188T464 1295Q633 1295 715 1189T797 903Q797 730 716 623T464 515ZM464 618Q569 618 617 697Q641 735 650 788T660 904Q660 1040 617
1115T464 1190Q359 1190 311 1116Q288 1080 278 1027T268 904Q268 842 278 789T311 697Q334 659 371 639T464 618ZM190 297V375H739V297H190Z" />
<glyph unicode="&#xbb;" glyph-name="guillemotright" horiz-adv-x="1150" d="M620 76L546 189L907 552L545 914L620 1026L1092 552L620 76ZM185 93L110 205L483 552L111 900L186 1011L673 552L185 93Z" />
<glyph unicode="&#xbc;" glyph-name="onequarter" horiz-adv-x="2018" d="M289 350V1148L203 1101L98 1047L43 1179L326 1316L448 1289V350H289ZM672 13L533 67L1212 1432L1353 1381L672 13ZM1631 -6V215H1171L1128 320L1552 963L1788 956V335H1948V215H1788V0L1631
-6ZM1305 332L1491 335H1631V613L1635 853L1479 601L1305 332Z" />
<glyph unicode="&#xbd;" glyph-name="onehalf" horiz-adv-x="2096" d="M289 350V1148L203 1101L98 1047L43 1179L326 1316L448 1289V350H289ZM672 13L533 67L1212 1432L1353 1381L672 13ZM1366 0L1346 136L1727 542Q1761 580 1790 627T1819 722Q1819 777 1778
813T1648 849Q1602 849 1553 839T1461 818Q1436 811 1412 803T1365 787L1384 933Q1422 947 1472 960Q1512 971 1562 979T1667 988Q1825 988 1910 916Q1990 848 1990 726Q1990 640 1947 571T1837 434L1545 136H1975L1963 0H1366Z" />
<glyph unicode="&#xbe;" glyph-name="threequarters" horiz-adv-x="2301" d="M392 325Q286 325 205 348T91 381L120 505Q141 498 163 492T208 480Q247 470 296 463T395 455Q604 455 604 600Q604 680 533 718T277 757V886Q449 886 511 921T573 1032Q573 1110 522
1140T371 1170Q321 1170 266 1162T168 1145T113 1133L134 1260Q153 1265 173 1270T213 1279Q248 1286 291 1292T376 1298Q564 1298 648 1234T732 1049Q732 986 706 945T646 880Q611 855 584 845T537 826Q553 825 590 817T670 786Q702 769 738 725T774 594Q774 497
722 438T584 352T392 325ZM945 13L806 67L1485 1432L1626 1381L945 13ZM1914 -6V215H1454L1411 320L1835 963L2071 956V335H2231V215H2071V0L1914 -6ZM1588 332L1774 335H1914V613L1918 853L1762 601L1588 332Z" />
<glyph unicode="&#xbf;" glyph-name="questiondown" horiz-adv-x="872" d="M708 1117V829Q708 758 676 713T593 637T486 578Q429 551 379 520T296 444T264 329Q264 223 319 177T507 131Q560 131 612 138T708 153Q733 158 757 163T803 175Q804 181 804 175H803Q802
164 801 122T799 31Q753 17 705 7Q663 -2 611 -10T506 -18Q350 -18 261 29T134 154T96 326Q96 421 130 486T215 595Q266 639 326 668Q385 697 436 720T523 766Q557 788 557 819V1117H708ZM626 1447Q667 1447 697 1416T727 1341Q727 1295 697 1262T626 1228Q581
1228 551 1262T521 1341Q521 1385 552 1416T626 1447Z" />
<glyph unicode="&#xc0;" glyph-name="Agrave" horiz-adv-x="1234" d="M41 0L517 1437H718L1193 0H997L899 327H335L236 0H41ZM368 439H865L618 1243L368 439ZM589 1578L356 2071H581L661 1578H589Z" />
<glyph unicode="&#xc1;" glyph-name="Aacute" horiz-adv-x="1234" d="M41 0L517 1437H718L1193 0H997L899 327H335L236 0H41ZM368 439H865L618 1243L368 439ZM571 1578L651 2071H876L643 1578H571Z" />
<glyph unicode="&#xc2;" glyph-name="Acircumflex" horiz-adv-x="1234" d="M41 0L517 1437H718L1193 0H997L899 327H335L236 0H41ZM368 439H865L618 1243L368 439ZM322 1578L551 2071H680L912 1578H736L621 1955H609L497 1578H322Z" />
<glyph unicode="&#xc3;" glyph-name="Atilde" horiz-adv-x="1234" d="M41 0L517 1437H718L1193 0H997L899 327H335L236 0H41ZM368 439H865L618 1243L368 439ZM770 1583Q765 1584 760 1584T750 1585Q744 1585 732 1587Q685 1597 636 1622T545 1669T476 1691Q444
1691 434 1661T424 1590H292V1604Q292 1668 307 1709T346 1776Q370 1800 401 1810T466 1820Q524 1820 576 1793T674 1737T759 1709Q791 1709 800 1738T810 1807H941V1800Q941 1674 890 1629T770 1583Z" />
<glyph unicode="&#xc4;" glyph-name="Adieresis" horiz-adv-x="1234" d="M41 0L517 1437H718L1193 0H997L899 327H335L236 0H41ZM368 439H865L618 1243L368 439ZM717 1620V1787H891V1620H717ZM342 1620V1787H515V1620H342Z" />
<glyph unicode="&#xc5;" glyph-name="Aring" horiz-adv-x="1234" d="M41 0L517 1437H718L1193 0H997L899 327H335L236 0H41ZM368 439H865L618 1243L368 439ZM620 1508Q508 1508 438 1573T368 1753Q368 1864 438 1928T620 1993Q727 1993 796 1929T866 1753Q866
1634 795 1571T620 1508ZM620 1601Q702 1601 732 1651T762 1753Q762 1783 750 1817T707 1876T620 1901Q555 1901 524 1877T483 1818T473 1753Q473 1722 486 1687T532 1626T620 1601Z" />
<glyph unicode="&#xc6;" glyph-name="AE" horiz-adv-x="1576" d="M29 0L591 1409H1459V1263H894V810H1400V665H894V146H1471V0H706V288H351L240 0H29ZM387 421H706V1276L599 960L387 421Z" />
<glyph unicode="&#xc7;" glyph-name="Ccedilla" horiz-adv-x="1194" d="M693 -24Q572 -24 468 10T287 132Q210 219 166 365T120 727Q120 935 165 1076T289 1304Q369 1390 477 1427T713 1464Q794 1464 863 1455T984 1434Q1014 1427 1041 1420T1092 1405L1108 1250Q1060
1268 998 1283Q947 1294 879 1304T734 1314Q637 1314 560 1284T429 1186Q375 1118 347 1008T318 729Q320 408 418 265Q468 192 542 159T715 127Q798 126 869 136T994 163Q1056 180 1108 199L1091 43Q1045 25 980 9Q927 -4 854 -14T693 -24ZM690 -538Q650 -538 619
-531T564 -514Q536 -502 518 -490L508 -394Q522 -400 537 -405T568 -416Q594 -424 625 -430T685 -437Q733 -437 756 -420T786 -381T793 -345Q793 -310 775 -290T721 -258Q687 -247 638 -242T530 -232Q530 -222 537 -186T550 -105Q558 -53 568 2H670L653 -69Q645
-100 641 -122L633 -155Q669 -155 715 -161T806 -187Q850 -206 877 -244T905 -340Q905 -431 845 -484T690 -538Z" />
<glyph unicode="&#xc8;" glyph-name="Egrave" horiz-adv-x="1086" d="M181 0V1437H997L973 1292H370V809H862V670H370V145H995L972 0H181ZM558 1578L325 2071H550L630 1578H558Z" />
<glyph unicode="&#xc9;" glyph-name="Eacute" horiz-adv-x="1086" d="M181 0V1437H997L973 1292H370V809H862V670H370V145H995L972 0H181ZM540 1578L620 2071H845L612 1578H540Z" />
<glyph unicode="&#xca;" glyph-name="Ecircumflex" horiz-adv-x="1086" d="M181 0V1437H997L973 1292H370V809H862V670H370V145H995L972 0H181ZM291 1578L520 2071H649L881 1578H705L590 1955H578L466 1578H291Z" />
<glyph unicode="&#xcb;" glyph-name="Edieresis" horiz-adv-x="1086" d="M181 0V1437H997L973 1292H370V809H862V670H370V145H995L972 0H181ZM686 1620V1787H860V1620H686ZM311 1620V1787H484V1620H311Z" />
<glyph unicode="&#xcc;" glyph-name="Igrave" horiz-adv-x="561" d="M189 0V1437H372V0H189ZM253 1578L20 2071H245L325 1578H253Z" />
<glyph unicode="&#xcd;" glyph-name="Iacute" horiz-adv-x="561" d="M189 0V1437H372V0H189ZM235 1578L315 2071H540L307 1578H235Z" />
<glyph unicode="&#xce;" glyph-name="Icircumflex" horiz-adv-x="561" d="M189 0V1437H372V0H189ZM-14 1578L215 2071H344L576 1578H400L285 1955H273L161 1578H-14Z" />
<glyph unicode="&#xcf;" glyph-name="Idieresis" horiz-adv-x="561" d="M189 0V1437H372V0H189ZM381 1620V1787H555V1620H381ZM6 1620V1787H179V1620H6Z" />
<glyph unicode="&#xd0;" glyph-name="Eth" horiz-adv-x="1391" d="M194 0V677H45V806H194V1437H606Q690 1437 771 1429T927 1394Q1001 1368 1064 1322Q1127 1276 1173 1201T1245 1018Q1271 908 1271 749Q1271 622 1260 525T1222 346Q1194 264 1149 200Q1080 103
957 52T652 0H194ZM386 139H588Q731 139 828 166T982 262Q1055 349 1074 524Q1083 611 1083 741Q1083 886 1064 987T995 1156Q946 1224 864 1258T658 1293H386V806H612V677H386V139Z" />
<glyph unicode="&#xd1;" glyph-name="Ntilde" horiz-adv-x="1479" d="M181 0V1437H371L1122 289V1437H1298V1H1116L357 1148V0H181ZM893 1583Q888 1584 883 1584T873 1585Q867 1585 855 1587Q808 1597 759 1622T668 1669T599 1691Q567 1691 557 1661T547 1590H415V1604Q415
1668 430 1709T469 1776Q493 1800 524 1810T589 1820Q647 1820 699 1793T797 1737T882 1709Q914 1709 923 1738T933 1807H1064V1800Q1064 1674 1013 1629T893 1583Z" />
<glyph unicode="&#xd2;" glyph-name="Ograve" horiz-adv-x="1399" d="M120 722Q120 1098 268 1281T698 1464Q982 1464 1130 1281T1279 722Q1279 342 1131 159T698 -24Q416 -24 268 159T120 722ZM311 722Q311 581 332 471T401 284Q448 208 521 168T698 127Q803
127 876 167T997 284Q1044 361 1065 471T1087 722Q1087 862 1066 972T997 1158Q950 1234 877 1274T698 1314Q595 1314 522 1274T402 1158Q356 1082 334 972T311 722ZM672 1578L439 2071H664L744 1578H672Z" />
<glyph unicode="&#xd3;" glyph-name="Oacute" horiz-adv-x="1399" d="M120 722Q120 1098 268 1281T698 1464Q982 1464 1130 1281T1279 722Q1279 342 1131 159T698 -24Q416 -24 268 159T120 722ZM311 722Q311 581 332 471T401 284Q448 208 521 168T698 127Q803
127 876 167T997 284Q1044 361 1065 471T1087 722Q1087 862 1066 972T997 1158Q950 1234 877 1274T698 1314Q595 1314 522 1274T402 1158Q356 1082 334 972T311 722ZM654 1578L734 2071H959L726 1578H654Z" />
<glyph unicode="&#xd4;" glyph-name="Ocircumflex" horiz-adv-x="1399" d="M120 722Q120 1098 268 1281T698 1464Q982 1464 1130 1281T1279 722Q1279 342 1131 159T698 -24Q416 -24 268 159T120 722ZM311 722Q311 581 332 471T401 284Q448 208 521 168T698 127Q803
127 876 167T997 284Q1044 361 1065 471T1087 722Q1087 862 1066 972T997 1158Q950 1234 877 1274T698 1314Q595 1314 522 1274T402 1158Q356 1082 334 972T311 722ZM405 1578L634 2071H763L995 1578H819L704 1955H692L580 1578H405Z" />
<glyph unicode="&#xd5;" glyph-name="Otilde" horiz-adv-x="1399" d="M120 722Q120 1098 268 1281T698 1464Q982 1464 1130 1281T1279 722Q1279 342 1131 159T698 -24Q416 -24 268 159T120 722ZM311 722Q311 581 332 471T401 284Q448 208 521 168T698 127Q803
127 876 167T997 284Q1044 361 1065 471T1087 722Q1087 862 1066 972T997 1158Q950 1234 877 1274T698 1314Q595 1314 522 1274T402 1158Q356 1082 334 972T311 722ZM853 1583Q848 1584 843 1584T833 1585Q827 1585 815 1587Q768 1597 719 1622T628 1669T559 1691Q527
1691 517 1661T507 1590H375V1604Q375 1668 390 1709T429 1776Q453 1800 484 1810T549 1820Q607 1820 659 1793T757 1737T842 1709Q874 1709 883 1738T893 1807H1024V1800Q1024 1674 973 1629T853 1583Z" />
<glyph unicode="&#xd6;" glyph-name="Odieresis" horiz-adv-x="1399" d="M120 722Q120 1098 268 1281T698 1464Q982 1464 1130 1281T1279 722Q1279 342 1131 159T698 -24Q416 -24 268 159T120 722ZM311 722Q311 581 332 471T401 284Q448 208 521 168T698 127Q803
127 876 167T997 284Q1044 361 1065 471T1087 722Q1087 862 1066 972T997 1158Q950 1234 877 1274T698 1314Q595 1314 522 1274T402 1158Q356 1082 334 972T311 722ZM800 1620V1787H974V1620H800ZM425 1620V1787H598V1620H425Z" />
<glyph unicode="&#xd7;" glyph-name="multiply" horiz-adv-x="1000" d="M299 226L202 323L402 524L202 725L299 823L500 622L701 823L799 725L597 524L799 323L701 226L500 427L299 226Z" />
<glyph unicode="&#xd8;" glyph-name="Oslash" horiz-adv-x="1398" d="M346 -135L289 -106L365 62Q120 232 120 720Q120 1098 267 1282T697 1466Q858 1466 977 1402L1060 1586L1117 1554L1033 1370Q1158 1285 1218 1122T1278 720Q1278 338 1130 154T697 -30Q537
-30 421 28L346 -135ZM439 222L911 1257Q867 1290 814 1304T697 1319Q490 1319 401 1160T311 720Q311 548 341 424T439 222ZM697 117Q802 117 875 157T996 275Q1043 352 1064 465T1086 720Q1086 884 1058 1010T961 1214L488 176Q573 117 697 117Z" />
<glyph unicode="&#xd9;" glyph-name="Ugrave" horiz-adv-x="1436" d="M721 -24Q561 -24 437 21T243 181T173 501V1437H364V513Q364 292 449 208Q493 165 560 146T720 127Q902 127 987 212T1073 513V1437H1263V500Q1263 294 1193 180T1000 21T721 -24ZM690 1578L457
2071H682L762 1578H690Z" />
<glyph unicode="&#xda;" glyph-name="Uacute" horiz-adv-x="1436" d="M721 -24Q561 -24 437 21T243 181T173 501V1437H364V513Q364 292 449 208Q493 165 560 146T720 127Q902 127 987 212T1073 513V1437H1263V500Q1263 294 1193 180T1000 21T721 -24ZM672 1578L752
2071H977L744 1578H672Z" />
<glyph unicode="&#xdb;" glyph-name="Ucircumflex" horiz-adv-x="1436" d="M721 -24Q561 -24 437 21T243 181T173 501V1437H364V513Q364 292 449 208Q493 165 560 146T720 127Q902 127 987 212T1073 513V1437H1263V500Q1263 294 1193 180T1000 21T721 -24ZM423
1578L652 2071H781L1013 1578H837L722 1955H710L598 1578H423Z" />
<glyph unicode="&#xdc;" glyph-name="Udieresis" horiz-adv-x="1436" d="M721 -24Q561 -24 437 21T243 181T173 501V1437H364V513Q364 292 449 208Q493 165 560 146T720 127Q902 127 987 212T1073 513V1437H1263V500Q1263 294 1193 180T1000 21T721 -24ZM818 1620V1787H992V1620H818ZM443
1620V1787H616V1620H443Z" />
<glyph unicode="&#xdd;" glyph-name="Yacute" horiz-adv-x="1133" d="M465 0V449L27 1437H237L467 871L565 609H572L666 871L899 1437H1107L667 450V0H465ZM521 1578L601 2071H826L593 1578H521Z" />
<glyph unicode="&#xde;" glyph-name="Thorn" horiz-adv-x="1226" d="M1147 785Q1147 558 1000 461Q924 412 807 390T528 367H433Q418 367 403 367T370 368V0H185V1409H371V1216H494Q688 1216 814 1195T1014 1123Q1088 1072 1117 990T1147 785ZM544 512Q781 512
871 577Q918 610 936 662T954 787Q954 906 919 967T790 1049T517 1071H370V512H544Z" />
<glyph unicode="&#xdf;" glyph-name="germandbls" horiz-adv-x="1334" d="M823 -147Q775 -146 736 -140T669 -126Q634 -116 611 -107L591 34Q604 29 617 24T647 15Q673 8 709 3T791 -3Q891 -3 949 44T1033 172T1058 356Q1058 504 1004 590T850 713T611 752Q630
805 647 852T680 942Q750 1135 750 1153Q768 1218 764 1275T717 1367T571 1402Q488 1402 445 1366T387 1264T372 1112V-4H185V1110Q185 1549 571 1549Q663 1549 727 1534T835 1492Q877 1465 901 1429Q937 1372 939 1306T927 1168Q927 1149 909 1097T870 989Q857
956 844 920T814 844Q900 838 979 802T1118 700Q1178 636 1214 545T1250 339Q1250 177 1195 68T1043 -95T823 -147Z" />
<glyph unicode="&#xe0;" glyph-name="agrave" horiz-adv-x="1074" d="M900 221Q900 163 912 150T960 136Q971 136 983 136T1006 137L992 2Q992 2 971 1T923 -1T881 -3Q824 -3 791 19T744 70T730 117Q709 88 667 57T554 4T374 -18Q241 -18 159 61T76 275Q76 395
142 458T313 544T534 568Q569 568 602 566T661 561L716 553V666Q716 773 694 825T622 895T485 912Q385 912 301 892T157 848L177 996Q224 1016 301 1034T499 1053Q661 1053 748 1010T867 870T900 611V221ZM564 453Q520 453 465 449T360 427T278 372T245 268Q245
191 294 154T435 117Q537 117 606 145T716 204V447L667 450L564 453ZM509 1172L276 1665H501L581 1172H509Z" />
<glyph unicode="&#xe1;" glyph-name="aacute" horiz-adv-x="1074" d="M900 221Q900 163 912 150T960 136Q971 136 983 136T1006 137L992 2Q992 2 971 1T923 -1T881 -3Q824 -3 791 19T744 70T730 117Q709 88 667 57T554 4T374 -18Q241 -18 159 61T76 275Q76 395
142 458T313 544T534 568Q569 568 602 566T661 561L716 553V666Q716 773 694 825T622 895T485 912Q385 912 301 892T157 848L177 996Q224 1016 301 1034T499 1053Q661 1053 748 1010T867 870T900 611V221ZM564 453Q520 453 465 449T360 427T278 372T245 268Q245
191 294 154T435 117Q537 117 606 145T716 204V447L667 450L564 453ZM491 1172L571 1665H796L563 1172H491Z" />
<glyph unicode="&#xe2;" glyph-name="acircumflex" horiz-adv-x="1074" d="M900 221Q900 163 912 150T960 136Q971 136 983 136T1006 137L992 2Q992 2 971 1T923 -1T881 -3Q824 -3 791 19T744 70T730 117Q709 88 667 57T554 4T374 -18Q241 -18 159 61T76 275Q76
395 142 458T313 544T534 568Q569 568 602 566T661 561L716 553V666Q716 773 694 825T622 895T485 912Q385 912 301 892T157 848L177 996Q224 1016 301 1034T499 1053Q661 1053 748 1010T867 870T900 611V221ZM564 453Q520 453 465 449T360 427T278 372T245 268Q245
191 294 154T435 117Q537 117 606 145T716 204V447L667 450L564 453ZM242 1172L471 1665H600L832 1172H656L541 1549H529L417 1172H242Z" />
<glyph unicode="&#xe3;" glyph-name="atilde" horiz-adv-x="1074" d="M900 221Q900 163 912 150T960 136Q971 136 983 136T1006 137L992 2Q992 2 971 1T923 -1T881 -3Q824 -3 791 19T744 70T730 117Q709 88 667 57T554 4T374 -18Q241 -18 159 61T76 275Q76 395
142 458T313 544T534 568Q569 568 602 566T661 561L716 553V666Q716 773 694 825T622 895T485 912Q385 912 301 892T157 848L177 996Q224 1016 301 1034T499 1053Q661 1053 748 1010T867 870T900 611V221ZM564 453Q520 453 465 449T360 427T278 372T245 268Q245
191 294 154T435 117Q537 117 606 145T716 204V447L667 450L564 453ZM690 1177Q685 1178 680 1178T670 1179Q664 1179 652 1181Q605 1191 556 1216T465 1263T396 1285Q364 1285 354 1255T344 1184H212V1198Q212 1262 227 1303T266 1370Q290 1394 321 1404T386 1414Q444
1414 496 1387T594 1331T679 1303Q711 1303 720 1332T730 1401H861V1394Q861 1268 810 1223T690 1177Z" />
<glyph unicode="&#xe4;" glyph-name="adieresis" horiz-adv-x="1074" d="M900 221Q900 163 912 150T960 136Q971 136 983 136T1006 137L992 2Q992 2 971 1T923 -1T881 -3Q824 -3 791 19T744 70T730 117Q709 88 667 57T554 4T374 -18Q241 -18 159 61T76 275Q76
395 142 458T313 544T534 568Q569 568 602 566T661 561L716 553V666Q716 773 694 825T622 895T485 912Q385 912 301 892T157 848L177 996Q224 1016 301 1034T499 1053Q661 1053 748 1010T867 870T900 611V221ZM564 453Q520 453 465 449T360 427T278 372T245 268Q245
191 294 154T435 117Q537 117 606 145T716 204V447L667 450L564 453ZM637 1214V1381H811V1214H637ZM262 1214V1381H435V1214H262Z" />
<glyph unicode="&#xe5;" glyph-name="aring" horiz-adv-x="1074" d="M900 221Q900 163 912 150T960 136Q971 136 983 136T1006 137L992 2Q992 2 971 1T923 -1T881 -3Q824 -3 791 19T744 70T730 117Q709 88 667 57T554 4T374 -18Q241 -18 159 61T76 275Q76 395
142 458T313 544T534 568Q569 568 602 566T661 561L716 553V666Q716 773 694 825T622 895T485 912Q385 912 301 892T157 848L177 996Q224 1016 301 1034T499 1053Q661 1053 748 1010T867 870T900 611V221ZM564 453Q520 453 465 449T360 427T278 372T245 268Q245
191 294 154T435 117Q537 117 606 145T716 204V447L667 450L564 453ZM540 1102Q428 1102 358 1167T288 1347Q288 1458 358 1522T540 1587Q647 1587 716 1523T786 1347Q786 1228 715 1165T540 1102ZM540 1195Q622 1195 652 1245T682 1347Q682 1377 670 1411T627
1470T540 1495Q475 1495 444 1471T403 1412T393 1347Q393 1316 406 1281T452 1220T540 1195Z" />
<glyph unicode="&#xe6;" glyph-name="ae" horiz-adv-x="1648" d="M386 -28Q250 -28 166 49T82 268Q82 366 132 428T263 518Q348 547 437 552T604 555L646 552Q669 550 684 549L722 546V651Q722 781 685 834Q649 884 554 892Q455 901 356 885T163 836L183 969Q271
1014 372 1027T572 1032Q681 1023 751 978T840 839Q896 951 984 993T1171 1035Q1298 1035 1381 984T1507 852T1552 679Q1552 653 1550 616T1544 545T1537 496H914V460Q914 281 981 206T1150 117Q1254 106 1353 123T1510 154L1486 20Q1449 7 1402 -4Q1362 -13 1308
-20T1190 -28Q959 -28 842 116Q827 101 793 77T702 30Q646 6 568 -11T386 -28ZM917 608H1392Q1393 607 1393 624V656Q1389 785 1328 841T1176 898Q1126 898 1083 884T1004 835Q970 801 947 746T917 608ZM441 106Q506 106 563 120T663 154Q707 172 735 190T773 217Q754
261 741 325T726 439L674 442Q651 443 624 444T570 445Q499 445 425 435T301 387T251 261Q251 179 300 143T441 106Z" />
<glyph unicode="&#xe7;" glyph-name="ccedilla" horiz-adv-x="925" d="M548 -18Q465 -18 386 8T245 95Q182 157 144 259T106 506Q106 608 123 688T172 829Q202 890 244 930Q308 992 384 1017T543 1043Q609 1043 663 1035T756 1015Q804 1003 838 987L853 852Q834
859 813 865T768 877Q729 886 678 894T570 902Q432 902 366 811Q332 763 314 688T295 509Q295 310 366 213Q401 165 452 144T570 122Q627 122 678 129T769 146Q814 156 854 170L838 37Q805 22 757 9Q719 -2 666 -10T548 -18ZM596 -538Q556 -538 525 -531T470 -514Q442
-502 424 -490L414 -394Q428 -400 443 -405T474 -416Q500 -424 531 -430T591 -437Q639 -437 662 -420T692 -381T699 -345Q699 -310 681 -290T627 -258Q593 -247 544 -242T436 -232Q436 -222 443 -186T456 -105Q464 -53 474 2H576L559 -69Q551 -100 547 -122L539
-155Q575 -155 621 -161T712 -187Q756 -206 783 -244T811 -340Q811 -431 751 -484T596 -538Z" />
<glyph unicode="&#xe8;" glyph-name="egrave" horiz-adv-x="1017" d="M873 30Q838 17 793 6Q755 -3 704 -10T592 -18Q106 -18 106 501Q106 646 140 746T234 913Q294 979 376 1011T553 1043Q677 1043 761 993T888 862T934 687Q934 660 932 620T926 544T918 496H297V460Q297
331 336 257T444 153T605 122Q662 122 713 128T805 143Q852 152 892 164L873 30ZM557 906Q510 906 467 892T388 843Q353 809 330 754T300 608H773Q773 627 774 633Q775 638 775 649V664Q771 791 710 848T557 906ZM538 1172L305 1665H530L610 1172H538Z" />
<glyph unicode="&#xe9;" glyph-name="eacute" horiz-adv-x="1017" d="M873 30Q838 17 793 6Q755 -3 704 -10T592 -18Q106 -18 106 501Q106 646 140 746T234 913Q294 979 376 1011T553 1043Q677 1043 761 993T888 862T934 687Q934 660 932 620T926 544T918 496H297V460Q297
331 336 257T444 153T605 122Q662 122 713 128T805 143Q852 152 892 164L873 30ZM557 906Q510 906 467 892T388 843Q353 809 330 754T300 608H773Q773 627 774 633Q775 638 775 649V664Q771 791 710 848T557 906ZM520 1172L600 1665H825L592 1172H520Z" />
<glyph unicode="&#xea;" glyph-name="ecircumflex" horiz-adv-x="1017" d="M873 30Q838 17 793 6Q755 -3 704 -10T592 -18Q106 -18 106 501Q106 646 140 746T234 913Q294 979 376 1011T553 1043Q677 1043 761 993T888 862T934 687Q934 660 932 620T926 544T918
496H297V460Q297 331 336 257T444 153T605 122Q662 122 713 128T805 143Q852 152 892 164L873 30ZM557 906Q510 906 467 892T388 843Q353 809 330 754T300 608H773Q773 627 774 633Q775 638 775 649V664Q771 791 710 848T557 906ZM271 1172L500 1665H629L861 1172H685L570
1549H558L446 1172H271Z" />
<glyph unicode="&#xeb;" glyph-name="edieresis" horiz-adv-x="1017" d="M873 30Q838 17 793 6Q755 -3 704 -10T592 -18Q106 -18 106 501Q106 646 140 746T234 913Q294 979 376 1011T553 1043Q677 1043 761 993T888 862T934 687Q934 660 932 620T926 544T918 496H297V460Q297
331 336 257T444 153T605 122Q662 122 713 128T805 143Q852 152 892 164L873 30ZM557 906Q510 906 467 892T388 843Q353 809 330 754T300 608H773Q773 627 774 633Q775 638 775 649V664Q771 791 710 848T557 906ZM666 1214V1381H840V1214H666ZM291 1214V1381H464V1214H291Z"
/>
<glyph unicode="&#xec;" glyph-name="igrave" horiz-adv-x="492" d="M158 0V1031H334V0H158ZM474 1172L241 1665H466L546 1172H474Z" />
<glyph unicode="&#xed;" glyph-name="iacute" horiz-adv-x="492" d="M158 0V1031H334V0H158ZM200 1172L280 1665H505L272 1172H200Z" />
<glyph unicode="&#xee;" glyph-name="icircumflex" horiz-adv-x="492" d="M158 0V1031H334V0H158ZM-49 1172L180 1665H309L541 1172H365L250 1549H238L126 1172H-49Z" />
<glyph unicode="&#xef;" glyph-name="idieresis" horiz-adv-x="492" d="M158 0V1031H334V0H158ZM346 1214V1381H520V1214H346ZM-29 1214V1381H144V1214H-29Z" />
<glyph unicode="&#xf0;" glyph-name="eth" horiz-adv-x="1202" d="M599 -18Q470 -18 377 19T224 119Q164 181 135 262T106 429Q106 514 129 587T204 715Q255 769 336 800T532 831Q604 831 666 814T776 776Q824 754 855 733T895 703Q893 778 873 864T815 1017L607
947L571 1057L766 1122Q744 1168 707 1219T631 1313T562 1372H726Q785 1330 831 1279T912 1170L1113 1240L1149 1129L971 1067Q1031 946 1058 821T1086 567Q1086 395 1032 263T869 57T599 -18ZM591 125Q704 125 770 179T864 323T893 523V582Q868 597 842 610T787
637Q739 658 676 675T546 693Q409 693 348 621T286 426Q286 272 364 199T591 125Z" />
<glyph unicode="&#xf1;" glyph-name="ntilde" horiz-adv-x="1156" d="M158 0V1025L287 1037L314 922Q338 940 373 961T455 1001Q500 1019 555 1031T674 1043Q753 1043 814 1021T919 949Q962 900 984 820T1007 624V0H822V584Q822 666 813 726T783 825Q742 901 638
901Q582 901 530 886T435 854Q411 844 388 833T343 808V0H158ZM731 1177Q726 1178 721 1178T711 1179Q705 1179 693 1181Q646 1191 597 1216T506 1263T437 1285Q405 1285 395 1255T385 1184H253V1198Q253 1262 268 1303T307 1370Q331 1394 362 1404T427 1414Q485
1414 537 1387T635 1331T720 1303Q752 1303 761 1332T771 1401H902V1394Q902 1268 851 1223T731 1177Z" />
<glyph unicode="&#xf2;" glyph-name="ograve" horiz-adv-x="1119" d="M560 -18Q406 -18 305 49T155 235T106 510Q106 753 217 898T560 1043Q790 1043 901 898T1013 510Q1013 354 964 235T815 49T560 -18ZM560 122Q635 122 686 150T769 230Q801 282 814 354T827
512Q827 697 768 799T560 901Q485 901 435 876T352 800Q321 751 307 679T293 512Q293 427 307 355T352 230Q384 178 434 150T560 122ZM532 1172L299 1665H524L604 1172H532Z" />
<glyph unicode="&#xf3;" glyph-name="oacute" horiz-adv-x="1119" d="M560 -18Q406 -18 305 49T155 235T106 510Q106 753 217 898T560 1043Q790 1043 901 898T1013 510Q1013 354 964 235T815 49T560 -18ZM560 122Q635 122 686 150T769 230Q801 282 814 354T827
512Q827 697 768 799T560 901Q485 901 435 876T352 800Q321 751 307 679T293 512Q293 427 307 355T352 230Q384 178 434 150T560 122ZM514 1172L594 1665H819L586 1172H514Z" />
<glyph unicode="&#xf4;" glyph-name="ocircumflex" horiz-adv-x="1119" d="M560 -18Q406 -18 305 49T155 235T106 510Q106 753 217 898T560 1043Q790 1043 901 898T1013 510Q1013 354 964 235T815 49T560 -18ZM560 122Q635 122 686 150T769 230Q801 282 814 354T827
512Q827 697 768 799T560 901Q485 901 435 876T352 800Q321 751 307 679T293 512Q293 427 307 355T352 230Q384 178 434 150T560 122ZM265 1172L494 1665H623L855 1172H679L564 1549H552L440 1172H265Z" />
<glyph unicode="&#xf5;" glyph-name="otilde" horiz-adv-x="1119" d="M560 -18Q406 -18 305 49T155 235T106 510Q106 753 217 898T560 1043Q790 1043 901 898T1013 510Q1013 354 964 235T815 49T560 -18ZM560 122Q635 122 686 150T769 230Q801 282 814 354T827
512Q827 697 768 799T560 901Q485 901 435 876T352 800Q321 751 307 679T293 512Q293 427 307 355T352 230Q384 178 434 150T560 122ZM713 1177Q708 1178 703 1178T693 1179Q687 1179 675 1181Q628 1191 579 1216T488 1263T419 1285Q387 1285 377 1255T367 1184H235V1198Q235
1262 250 1303T289 1370Q313 1394 344 1404T409 1414Q467 1414 519 1387T617 1331T702 1303Q734 1303 743 1332T753 1401H884V1394Q884 1268 833 1223T713 1177Z" />
<glyph unicode="&#xf6;" glyph-name="odieresis" horiz-adv-x="1119" d="M560 -18Q406 -18 305 49T155 235T106 510Q106 753 217 898T560 1043Q790 1043 901 898T1013 510Q1013 354 964 235T815 49T560 -18ZM560 122Q635 122 686 150T769 230Q801 282 814 354T827
512Q827 697 768 799T560 901Q485 901 435 876T352 800Q321 751 307 679T293 512Q293 427 307 355T352 230Q384 178 434 150T560 122ZM660 1214V1381H834V1214H660ZM285 1214V1381H458V1214H285Z" />
<glyph unicode="&#xf7;" glyph-name="divide" horiz-adv-x="1000" d="M416 731V908H591V731H416ZM116 521V641H885V521H116ZM416 243V421H591V243H416Z" />
<glyph unicode="&#xf8;" glyph-name="oslash" horiz-adv-x="1119" d="M306 -197L221 -157L311 38Q208 106 157 228T106 504Q106 658 155 778T306 966T560 1035Q665 1035 741 1000L841 1226L923 1183Q918 1172 890 1114T820 960Q918 892 965 773T1013 504Q1013
353 964 233T815 42T560 -28Q512 -28 471 -21T392 0Q376 -37 362 -69T337 -127Q326 -153 318 -170T306 -197ZM383 192L682 868Q630 896 560 896Q485 896 435 868T352 787Q321 735 307 664T293 506Q293 408 314 327T383 192ZM560 109Q660 109 718 162T802 305T827
506Q827 600 808 676T745 803L449 131Q494 109 560 109Z" />
<glyph unicode="&#xf9;" glyph-name="ugrave" horiz-adv-x="1156" d="M484 -18Q310 -18 230 92T149 438V1025H333V445Q333 358 343 297T375 197Q418 122 527 122Q590 122 642 136T733 169Q779 191 813 217V1025H998V0L864 -11L839 118Q799 79 746 50Q700 24 635
3T484 -18ZM550 1172L317 1665H542L622 1172H550Z" />
<glyph unicode="&#xfa;" glyph-name="uacute" horiz-adv-x="1156" d="M484 -18Q310 -18 230 92T149 438V1025H333V445Q333 358 343 297T375 197Q418 122 527 122Q590 122 642 136T733 169Q779 191 813 217V1025H998V0L864 -11L839 118Q799 79 746 50Q700 24 635
3T484 -18ZM532 1172L612 1665H837L604 1172H532Z" />
<glyph unicode="&#xfb;" glyph-name="ucircumflex" horiz-adv-x="1156" d="M484 -18Q310 -18 230 92T149 438V1025H333V445Q333 358 343 297T375 197Q418 122 527 122Q590 122 642 136T733 169Q779 191 813 217V1025H998V0L864 -11L839 118Q799 79 746 50Q700
24 635 3T484 -18ZM283 1172L512 1665H641L873 1172H697L582 1549H570L458 1172H283Z" />
<glyph unicode="&#xfc;" glyph-name="udieresis" horiz-adv-x="1156" d="M484 -18Q310 -18 230 92T149 438V1025H333V445Q333 358 343 297T375 197Q418 122 527 122Q590 122 642 136T733 169Q779 191 813 217V1025H998V0L864 -11L839 118Q799 79 746 50Q700 24
635 3T484 -18ZM678 1214V1381H852V1214H678ZM303 1214V1381H476V1214H303Z" />
<glyph unicode="&#xfd;" glyph-name="yacute" horiz-adv-x="979" d="M311 -429Q249 -429 198 -417T110 -390Q67 -373 32 -351L45 -225Q87 -242 125 -252Q160 -262 200 -270T279 -278Q325 -278 342 -244T375 -154L399 -47L43 1025H242L491 136L738 1025H934L581
-60Q542 -180 509 -262T431 -387T311 -429ZM444 1172L524 1665H749L516 1172H444Z" />
<glyph unicode="&#xfe;" glyph-name="thorn" horiz-adv-x="1134" d="M341 -349L158 -340V1473L343 1499V958Q378 981 425 1001Q464 1018 517 1031T637 1045Q743 1045 831 990T974 816T1028 507Q1028 361 993 261T898 98Q840 36 766 9T616 -18Q548 -18 497 0T411
41Q372 66 341 101V-349ZM589 122Q658 122 716 159T808 281T843 503Q843 694 783 798T601 903Q546 903 500 891T418 863Q378 845 343 824V217Q372 191 411 169Q443 151 488 137T589 122Z" />
<glyph unicode="&#xff;" glyph-name="ydieresis" horiz-adv-x="979" d="M311 -429Q249 -429 198 -417T110 -390Q67 -373 32 -351L45 -225Q87 -242 125 -252Q160 -262 200 -270T279 -278Q325 -278 342 -244T375 -154L399 -47L43 1025H242L491 136L738 1025H934L581
-60Q542 -180 509 -262T431 -387T311 -429ZM590 1214V1381H764V1214H590ZM215 1214V1381H388V1214H215Z" />
<glyph unicode="&#x2013;" glyph-name="endash" horiz-adv-x="1046" d="M135 758V903H909V758H135Z" />
<glyph unicode="&#x2014;" glyph-name="emdash" horiz-adv-x="1235" d="M134 704V844H1100V704H134Z" />
<glyph unicode="&#x2018;" glyph-name="quoteleft" horiz-adv-x="471" d="M131 1118L125 1172Q123 1196 121 1227T119 1290Q119 1398 169 1464T336 1566L364 1486Q294 1476 260 1433T225 1339H359V1134L131 1118Z" />
<glyph unicode="&#x2019;" glyph-name="quoteright" horiz-adv-x="441" d="M140 1104L112 1185Q182 1195 216 1239T250 1333H117V1537L345 1553L351 1499Q353 1475 355 1444T357 1381Q357 1272 307 1206T140 1104Z" />
<glyph unicode="&#x201a;" glyph-name="quotesinglbase" horiz-adv-x="481" d="M151 -198Q151 -198 143 -181T134 -136Q209 -124 231 -91T254 -3H133V195L338 205L344 160Q346 139 348 111T350 47Q350 -71 302 -130T151 -198Z" />
<glyph unicode="&#x201c;" glyph-name="quotedblleft" horiz-adv-x="824" d="M133 1113L127 1167Q125 1191 123 1222T121 1286Q121 1394 171 1460T338 1562L366 1481Q296 1471 262 1427T227 1334H361V1129L133 1113ZM484 1113L478 1167Q473 1220 473 1286Q473
1394 524 1460T691 1562L717 1481Q650 1471 616 1427T581 1334H712V1129L484 1113Z" />
<glyph unicode="&#x201d;" glyph-name="quotedblright" horiz-adv-x="792" d="M492 1109L465 1190Q534 1200 568 1244T603 1337H470V1542L698 1557Q699 1544 700 1531T703 1503Q705 1479 707 1449T709 1386Q709 1277 659 1211T492 1109ZM138 1109L111 1190Q180
1200 213 1244T247 1337H116V1542L345 1557Q346 1544 347 1531T350 1503Q355 1450 355 1386Q355 1277 305 1211T138 1109Z" />
<glyph unicode="&#x201e;" glyph-name="quotedblbase" horiz-adv-x="772" d="M151 -198Q151 -196 142 -181T133 -136Q209 -124 231 -90T253 -3H133V195L338 205L344 160Q346 139 348 111T350 50Q350 -63 303 -126T151 -198ZM443 -198Q443 -196 434 -181T425 -136Q502
-124 523 -90T545 -3H426V195L631 205Q632 195 633 184T636 160Q641 113 641 50Q641 -63 595 -126T443 -198Z" />
<glyph unicode="&#x2022;" glyph-name="bullet" horiz-adv-x="926" d="M464 264Q357 264 279 311T159 437T116 605Q116 701 161 779T285 903T464 949Q565 949 643 902T766 777T811 607Q811 492 758 416T625 302T464 264Z" />
<glyph unicode="&#x2039;" glyph-name="guilsinglleft" horiz-adv-x="709" d="M529 76L57 552L529 1026L604 914L242 552L603 189L529 76Z" />
<glyph unicode="&#x203a;" glyph-name="guilsinglright" horiz-adv-x="710" d="M181 76L106 189L467 552L105 914L181 1026L652 552L181 76Z" />
</font>
</defs>
</svg>
