<?xml version="1.0" standalone="no"?>
<!DOCTYPE svg PUBLIC "-//W3C//DTD SVG 1.1//EN" "http://www.w3.org/Graphics/SVG/1.1/DTD/svg11.dtd">
<svg xmlns="http://www.w3.org/2000/svg">
<defs >
<font id="HedvigLettersSerif" horiz-adv-x="541" ><font-face
    font-family="Hedvig Letters Serif 24pt 24pt"
    units-per-em="1000"
    panose-1="0 0 0 0 0 0 0 0 0 0"
    ascent="1020"
    descent="-320"
    alphabetic="0" />
<glyph unicode=" " horiz-adv-x="220" />
<glyph unicode="!" horiz-adv-x="262" d="M114 194Q107 285 101 364T88 527Q87 545 85 568T81 613T79 646Q79 677 93 693T131 710Q155 710 169 694T183 646Q183 635 182 614T178 569T174 527Q167 444 161 365T148 194H114ZM131 -10Q106 -10 89 6T71 50Q71 76 88
92T131 109Q155 109 172 93T190 50Q190 23 173 7T131 -10Z" />
<glyph unicode="&quot;" horiz-adv-x="316" d="M75 465L53 601Q49 624 46 638T43 666Q43 686 55 698T88 710Q108 710 120 698T133 666Q133 652 131 638T123 601L101 465H75ZM215 465L193 601Q189 624 186 638T183 666Q183 686 195 698T228 710Q248 710 260 698T273
666Q273 652 271 638T263 601L241 465H215Z" />
<glyph unicode="#" horiz-adv-x="625" d="M297 0L497 700H549L349 0H297ZM17 200L29 244H538L526 200H17ZM68 0L268 700H320L120 0H68ZM89 468L100 508H609L598 468H89Z" />
<glyph unicode="$" horiz-adv-x="511" d="M156 -110L292 810H335L199 -110H156ZM226 -10Q180 -10 135 2T44 42V209H74Q82 123 127 77T245 31Q311 31 351 67T391 160Q391 199 368 228T289 289L178 350Q109 388 80 426T50 517Q50 573 81 616T165 685T288 710Q329
710 368 701T447 672V546H417Q407 606 369 637T268 669Q204 669 167 638T129 558Q129 521 152 491T220 437L336 374Q390 345 421 318T464 261T477 197Q477 136 445 90T357 17T226 -10Z" />
<glyph unicode="%" horiz-adv-x="841" d="M183 0L603 700H658L238 0H183ZM202 318Q125 318 74 369T23 512Q23 571 46 614T109 682T201 706Q278 706 329 655T380 512Q380 454 357 410T294 342T202 318ZM213 355Q253 355 281 387T309 495Q309 542 296 581T256 645T190
669Q150 669 122 637T94 529Q94 482 107 443T148 379T213 355ZM641 -6Q564 -6 513 45T462 188Q462 247 485 290T548 358T640 382Q717 382 768 331T819 188Q819 130 796 86T733 18T641 -6ZM652 31Q692 31 720 63T748 171Q748 218 735 257T695 321T629 345Q589 345
561 313T533 205Q533 158 546 119T587 55T652 31Z" />
<glyph unicode="&amp;" horiz-adv-x="735" d="M573 0L240 344Q209 377 182 406T139 467T122 538Q122 590 147 628T218 688T322 710Q362 710 402 695T469 650T496 572Q496 528 472 495T407 436T310 383L284 401Q337 431 373 470T409 570Q409 612 385 642T309 672Q259
672 231 643T202 565Q202 519 230 484T301 404L593 102Q617 77 635 62T674 40T728 30V0H573ZM270 -10Q195 -10 145 14T69 80T43 174Q43 251 94 304T225 382L252 368Q198 340 164 300T130 192Q130 147 151 110T209 51T295 29Q325 29 357 38T421 72T484 143T543 266Q562
316 559 342T514 369L503 370V400H711V370Q679 368 657 360T618 331T584 264Q552 179 516 126T441 43T359 2T270 -10Z" />
<glyph unicode="&apos;" horiz-adv-x="176" d="M75 465L53 601Q49 624 46 638T43 666Q43 686 55 698T88 710Q108 710 120 698T133 666Q133 652 131 638T123 601L101 465H75Z" />
<glyph unicode="(" horiz-adv-x="290" d="M37 305Q37 403 60 482T132 632T256 770L274 754Q225 693 193 625T144 478T127 305H37ZM256 -160Q181 -91 133 -22T61 128T37 305H127Q127 212 143 133T192 -14T274 -144L256 -160Z" />
<glyph unicode=")" horiz-adv-x="290" d="M253 305H163Q163 399 147 477T98 624T16 754L34 770Q109 702 157 632T229 483T253 305ZM34 -160L16 -144Q65 -82 97 -14T146 133T163 305H253Q253 208 230 128T158 -21T34 -160Z" />
<glyph unicode="*" horiz-adv-x="442" d="M136 368Q120 368 108 378T95 404Q95 420 104 432T143 469L203 518L125 524Q108 526 88 528T54 540T40 570Q40 588 52 598T80 609Q94 609 108 602T144 580L210 538L190 615Q185 635 183 648T181 670Q181 687 192 698T221
710Q238 710 249 699T261 670Q261 661 259 648T252 615L232 538L298 580Q319 594 333 601T362 609Q379 609 390 599T402 570Q402 549 388 540T354 529T317 524L239 518L299 469Q328 445 337 433T347 404Q347 388 335 378T306 368Q283 368 270 390T249 432L221 505L193
432Q186 413 173 391T136 368Z" />
<glyph unicode="+" horiz-adv-x="560" d="M255 97V565H305V97H255ZM41 309V353H519V309H41Z" />
<glyph unicode="," horiz-adv-x="229" d="M56 -170L38 -146Q78 -119 99 -95T129 -42T138 30L164 49Q164 24 148 7T106 -10Q81 -10 64 7T47 49Q47 75 65 91T111 107Q145 107 165 83T186 18Q186 -37 155 -81T56 -170Z" />
<glyph unicode="-" horiz-adv-x="366" d="M44 304V358H322V304H44Z" />
<glyph unicode="." horiz-adv-x="213" d="M107 -10Q82 -10 64 7T45 52Q45 78 63 95T107 112Q132 112 150 95T168 52Q168 24 150 7T107 -10Z" />
<glyph unicode="/" horiz-adv-x="425" d="M13 -150L360 760H412L65 -150H13Z" />
<glyph unicode="0" horiz-adv-x="600" d="M300 -10Q221 -10 165 32T78 151T47 337Q47 456 80 539T171 666T300 710Q419 710 486 617T553 357Q553 241 520 159T429 34T300 -10ZM309 30Q378 30 415 107T453 354Q453 449 433 520T376 630T291 670Q221 670 185 593T148
337Q148 243 168 174T224 68T309 30Z" />
<glyph unicode="1" horiz-adv-x="357" d="M36 0V30L91 36Q123 41 135 55T147 104V567Q147 597 138 609T102 625T20 628V656L223 707H237V94Q237 63 246 52T286 35L326 30V0H36Z" />
<glyph unicode="2" horiz-adv-x="502" d="M29 0V25Q77 73 131 131T235 253T315 383T346 514Q346 585 311 621T214 658Q168 658 125 628T65 529L26 537Q36 597 68 635T144 692T237 710Q272 710 307 702T373 673T421 617T440 527Q440 465 412 407T336 290T229 173T107
49L81 70H346Q393 70 408 87T428 127H458V0H29Z" />
<glyph unicode="3" horiz-adv-x="503" d="M221 -10Q160 -10 117 6T52 45T30 85Q30 101 44 111T78 121T110 109L164 59Q178 46 191 37T230 28Q292 28 327 72T363 180Q363 267 306 306T157 327V359Q251 380 299 424T347 532Q347 590 314 623T225 657Q173 657 137
626T80 538L40 550Q63 630 117 670T250 710Q306 710 349 690T416 633T441 547Q441 487 400 444T273 371L275 381Q358 375 407 328T456 200Q456 142 427 95T344 19T221 -10Z" />
<glyph unicode="4" horiz-adv-x="552" d="M231 0V30L276 36Q308 41 320 55T332 104V232H22V255L375 710H417V295H522V280L502 232H417V94Q417 63 426 52T466 35L496 30V0H231ZM332 259V615L341 603L88 264L67 295H365L332 259Z" />
<glyph unicode="5" horiz-adv-x="505" d="M220 -10Q157 -10 114 6T49 45T26 85Q26 101 40 111T74 121T106 109L160 59Q174 46 187 37T226 28Q297 28 335 73T374 191Q374 284 300 326T67 366L65 368L110 700H329Q374 700 390 707T411 737H441V630H118L147 670L114
413L85 443Q270 452 369 393T468 214Q468 151 437 100T351 20T220 -10Z" />
<glyph unicode="6" horiz-adv-x="540" d="M274 -10Q166 -10 105 65T44 273Q44 393 96 486T243 635T469 704L473 673Q375 656 304 611T193 496T145 335H151Q189 376 229 394T320 412Q373 412 416 386T484 317T509 218Q509 152 479 101T396 20T274 -10ZM286 28Q345
28 380 73T415 194Q415 266 379 306T278 347Q197 347 143 291V268Q143 28 286 28Z" />
<glyph unicode="7" horiz-adv-x="472" d="M98 0V25L428 693L434 630H126Q80 630 65 613T44 573H14V700H463V675L179 0H98Z" />
<glyph unicode="8" horiz-adv-x="538" d="M264 -10Q203 -10 155 12T78 73T50 164Q50 226 90 276T202 352L231 337Q185 309 161 267T137 172Q137 104 174 67T275 29Q334 29 371 63T408 152Q408 191 386 223T314 283L171 364Q55 429 55 529Q55 582 84 623T164 687T279
710Q335 710 381 691T455 636T483 550Q483 489 439 447T315 373L289 388Q339 418 367 455T396 548Q396 607 356 639T262 672Q204 672 170 640T135 555Q135 515 158 485T235 424L378 343Q434 311 461 270T488 181Q488 126 459 83T379 15T264 -10Z" />
<glyph unicode="9" horiz-adv-x="542" d="M73 -4L64 27Q178 40 249 87T355 206T397 368L399 374Q380 353 356 333T300 301T223 288Q192 288 159 300T97 336T51 398T33 488Q33 545 59 596T136 678T262 710Q332 710 385 677T468 581T498 427Q498 307 450 212T308
60T73 -4ZM382 365V376H406V365H382ZM396 343Q398 358 398 378T399 432Q399 508 383 561T333 643T250 672Q213 672 189 657T152 618T133 566T127 512Q127 430 165 392T264 353Q311 353 347 371T409 420L396 343Z" />
<glyph unicode=":" horiz-adv-x="243" d="M122 -10Q97 -10 79 7T60 52Q60 78 78 95T122 112Q147 112 165 95T183 52Q183 24 165 7T122 -10ZM122 335Q97 335 79 352T60 397Q60 423 78 440T122 457Q147 457 165 440T183 397Q183 369 165 352T122 335Z" />
<glyph unicode=";" horiz-adv-x="269" d="M77 -170L59 -146Q99 -119 120 -95T150 -42T159 30L185 49Q185 24 169 7T127 -10Q102 -10 85 7T68 49Q68 75 86 91T132 107Q166 107 186 83T207 18Q207 -37 176 -81T77 -170ZM128 335Q103 335 85 352T66 397Q66 423 84
440T128 457Q153 457 171 440T189 397Q189 369 171 352T128 335Z" />
<glyph unicode="&lt;" horiz-adv-x="560" d="M516 128L38 308V354L516 534V487L91 332V330L516 175V128Z" />
<glyph unicode="=" horiz-adv-x="560" d="M41 398V442H519V398H41ZM41 218V262H519V218H41Z" />
<glyph unicode="&gt;" horiz-adv-x="560" d="M44 128V175L469 330V332L44 487V534L522 354V308L44 128Z" />
<glyph unicode="?" horiz-adv-x="364" d="M140 194Q110 238 96 271T82 333Q82 365 97 390T146 437L207 477Q239 498 252 518T265 570Q265 614 245 639T195 665Q184 665 171 661T133 645L88 623Q63 610 43 623T22 657Q22 682 59 696T146 710Q203 710 245 687T311
625T335 536Q335 499 317 470T258 413L202 376Q174 357 163 339T151 294Q151 280 155 259T167 204L140 194ZM155 -10Q130 -10 113 7T95 50Q95 75 112 92T155 109Q180 109 197 92T214 50Q214 25 198 8T155 -10Z" />
<glyph unicode="@" horiz-adv-x="951" d="M509 -175Q367 -175 261 -123T95 26T35 258Q35 352 69 434T167 578T318 675T511 710Q634 710 723 665T862 539T911 346Q911 238 872 168T770 62T635 27Q600 27 583 38T560 63T552 87H545Q505 49 472 37T404 25Q364 25
341 37T309 70T298 110Q297 141 317 173T389 238T529 301L553 309L556 396Q558 430 536 452T476 474Q447 474 422 454T388 391Q387 384 371 375T327 365Q311 365 302 369T296 386Q309 422 343 451T420 498T506 515Q565 515 603 487T639 408L630 131Q629 103 640
89T683 75Q724 75 757 106T811 191T831 315Q831 431 787 510T666 630T490 671Q408 671 340 641T223 557T147 430T120 269Q120 147 172 57T315 -83T522 -132Q598 -132 662 -114T765 -66L786 -90Q739 -131 667 -153T509 -175ZM456 88Q488 88 509 98T547 120L552 274L543
271Q475 248 442 225T398 179T389 138Q391 111 407 100T456 88Z" />
<glyph unicode="A" horiz-adv-x="715" d="M-12 0V30V30Q26 36 46 44T80 72T110 135L343 705H376L610 121Q628 75 651 55T722 30V30V0H437V30L478 35Q510 39 518 58T512 115L316 611H347L158 127Q139 79 149 58T197 33L226 30V0H-12ZM199 271V311H501V271H199Z" />
<glyph unicode="B" horiz-adv-x="641" d="M30 0V30L71 34Q104 37 117 52T130 102V598Q130 633 117 648T71 666L30 670V700H327Q460 700 523 657T586 531Q586 400 414 361Q510 350 553 308T596 195Q596 142 570 98T487 27T332 0H30ZM315 40Q404 40 451 80T498 193Q498
262 456 298T331 335H224V78Q224 58 243 49T315 40ZM224 375H333Q399 375 443 415T488 528Q488 590 447 625T317 660Q273 660 249 653T224 629V375Z" />
<glyph unicode="C" horiz-adv-x="709" d="M411 -10Q298 -10 214 35T85 160T39 340Q39 416 66 483T145 601T269 681T429 710Q493 710 549 698T669 654V520H639Q620 597 558 632T413 668Q326 668 265 628T172 520T140 366Q140 305 158 246T213 138T302 61T425 32Q475
32 513 43T579 90T629 201H659V42Q588 14 526 2T411 -10Z" />
<glyph unicode="D" horiz-adv-x="787" d="M30 0V30L71 34Q104 37 117 52T130 102V598Q130 633 117 648T71 666L30 670V700H350Q476 700 564 662T699 548T746 360Q746 249 697 169T559 44T354 0H30ZM354 40Q490 40 567 115T645 332Q645 433 606 507T499 623T343
664Q317 664 291 663T224 658V99Q224 74 234 62T272 45T354 40Z" />
<glyph unicode="E" horiz-adv-x="602" d="M530 -6Q493 -3 455 -2T386 0H30V30L71 34Q104 37 117 52T130 102V598Q130 633 117 648T71 666L30 670V700H388Q436 700 468 701T529 706L544 544H514Q500 610 471 635T380 660H224V377H433Q468 377 482 390T499 441L501
467H531V249H501L500 283Q499 312 484 324T433 337H224V102Q224 76 233 62T270 43T350 37Q406 37 438 50T490 97T525 191H556L530 -6Z" />
<glyph unicode="F" horiz-adv-x="575" d="M30 0V30L71 34Q105 38 117 53T130 102V598Q130 633 118 647T71 666L30 670V700H380Q428 700 460 701T521 706L535 544H505Q491 610 462 635T371 660H224V364H424Q459 364 473 378T490 428L492 459H522V231H492L491 271Q490
299 475 311T424 324H224V111Q224 74 237 57T283 36L334 30V0H30Z" />
<glyph unicode="G" horiz-adv-x="734" d="M430 710Q493 710 549 698T669 654V520H639Q620 597 558 632T413 668Q331 668 270 631T174 525T140 366Q140 293 162 232T224 126T318 57T438 32Q478 32 502 37T537 56T548 89V232Q548 261 527 273T449 289L428 290V320H707V290L686
288Q659 286 648 271T637 222V39Q579 14 523 2T410 -10Q300 -10 217 34T86 157T39 340Q39 420 68 487T150 605T274 682T430 710Z" />
<glyph unicode="H" horiz-adv-x="834" d="M510 0V30L551 34Q576 37 588 45T605 67T610 102V598Q610 619 606 633T589 655T551 666L510 670V700H804V670L763 666Q739 664 726 656T709 633T704 598V102Q704 81 708 67T726 45T763 34L804 30V0H510ZM30 0V30L71 34Q96
37 108 45T125 67T130 102V598Q130 619 126 633T109 655T71 666L30 670V700H324V670L283 666Q259 664 246 656T229 633T224 598V102Q224 81 228 67T246 45T283 34L324 30V0H30ZM180 349V389H644V349H180Z" />
<glyph unicode="I" horiz-adv-x="354" d="M30 0V30L71 34Q96 37 108 45T125 67T130 102V598Q130 619 126 633T109 655T71 666L30 670V700H324V670L283 666Q259 664 246 656T229 633T224 598V102Q224 81 228 67T246 45T283 34L324 30V0H30Z" />
<glyph unicode="J" horiz-adv-x="433" d="M93 -10Q47 -10 20 5T-8 41Q-8 58 3 69T29 86T56 86L150 51Q157 49 163 48T174 46Q196 46 206 66T220 121T224 202V598Q224 633 211 648T165 666L114 670V700H418V670L377 666Q344 663 331 648T318 598V241Q318 171 295
114T221 24T93 -10Z" />
<glyph unicode="K" horiz-adv-x="727" d="M204 246L206 302L507 594Q539 625 533 646T485 669L464 670V700H720V670V670Q695 668 673 661T626 638T569 592L204 246ZM428 0V30L461 33Q492 36 496 59T478 115L304 358L372 412L596 102Q624 64 651 49T720 30V0H428ZM30
0V30L71 34Q104 37 117 52T130 102V598Q130 633 117 648T71 666L30 670V700H324V670L283 667Q251 665 238 650T224 598V102Q224 66 238 51T293 33L334 30V0H30Z" />
<glyph unicode="L" horiz-adv-x="582" d="M550 -6Q519 -3 481 -2T406 0H30V30L71 34Q104 37 117 52T130 102V598Q130 633 117 648T71 666L30 670V700H334V670L283 666Q250 664 237 649T224 598V102Q224 76 233 62T270 43T350 37Q412 37 449 50T508 97T545 191H576L550
-6Z" />
<glyph unicode="M" horiz-adv-x="922" d="M20 0V30L41 32Q68 35 83 43T105 69T115 118L153 582Q157 628 142 645T76 668L55 670V700H251L477 104H450L663 700H853V670L832 668Q801 665 786 657T766 632T765 582L806 131Q809 96 817 76T843 46T889 32L912 30V0H625V30L658
33Q697 37 708 56T714 131L669 640L683 637L455 0H422L194 595L163 118Q161 86 167 68T192 41T245 31L266 30V0H20Z" />
<glyph unicode="N" horiz-adv-x="817" d="M668 -8L170 591Q171 538 171 488T173 382T174 261T175 108Q175 79 181 63T205 40T254 31L275 30V0H37V30L58 32Q86 35 101 42T121 65T127 108L130 592Q130 633 115 648T53 668L32 670V700H199L655 153Q654 221 653 273T652
371T651 468T651 582Q651 616 645 634T621 660T572 669L551 670V700H789V670L768 668Q740 665 725 658T705 633T699 582L696 -8H668Z" />
<glyph unicode="O" horiz-adv-x="822" d="M406 -10Q296 -10 214 35T86 161T40 350Q40 457 87 538T220 664T418 710Q528 710 609 665T736 539T782 349Q782 243 735 162T603 36T406 -10ZM434 32Q509 32 564 65T650 162T681 314Q681 420 643 499T539 623T388 668Q313
668 258 635T172 538T141 386Q141 280 179 201T283 77T434 32Z" />
<glyph unicode="P" horiz-adv-x="579" d="M30 0V30L71 34Q93 36 106 43T124 64T130 102V598Q130 622 125 636T106 657T71 666L30 670V700H317Q436 700 498 655T560 524Q560 459 529 412T441 338T302 311L198 310V350H274Q332 350 373 369T436 425T458 514Q458
585 421 622T314 660Q258 660 241 653T224 622V102Q224 78 230 64T252 42T293 33L334 30V0H30Z" />
<glyph unicode="Q" horiz-adv-x="822" d="M406 -10Q296 -10 214 35T86 161T40 350Q40 457 87 538T220 664T418 710Q528 710 609 665T736 539T782 349Q782 243 735 162T603 36T406 -10ZM759 -80L452 -8L463 10H779V-80H759ZM434 32Q509 32 564 65T650 162T681 314Q681
420 643 499T539 623T388 668Q313 668 258 635T172 538T141 386Q141 280 179 201T283 77T434 32Z" />
<glyph unicode="R" horiz-adv-x="648" d="M30 0V30L71 34Q104 37 117 52T130 102V598Q130 633 117 648T71 666L30 670V700H331Q456 700 518 656T580 527Q580 490 564 454T507 389T396 348Q448 333 481 301T534 215T566 83Q570 58 581 46T616 31L629 30V0H560Q511
0 493 18T466 81Q453 158 431 215T374 304T287 336H224V102Q224 67 237 52T283 34L334 30V0H30ZM224 375H313Q387 375 432 417T478 524Q478 589 440 624T324 660Q269 660 247 652T224 624V375Z" />
<glyph unicode="S" horiz-adv-x="530" d="M237 -10Q191 -10 146 2T55 42V209H85Q93 123 138 77T256 31Q322 31 362 67T402 160Q402 199 379 228T300 289L189 350Q120 388 91 426T61 517Q61 573 92 616T176 685T299 710Q340 710 379 701T458 672V546H428Q418 606
380 637T279 669Q215 669 178 638T140 558Q140 521 163 491T231 437L347 374Q401 345 432 318T475 261T488 197Q488 136 456 90T368 17T237 -10Z" />
<glyph unicode="T" horiz-adv-x="666" d="M286 102V661L180 657Q132 655 106 644T66 605T43 522H12L21 706Q50 703 88 702T165 700H501Q533 700 572 701T645 706L654 522H623Q614 576 601 604T561 644T486 657L380 661V102Q380 79 386 65T408 43T454 33L485 30V0H181V30L212
33Q242 36 258 43T280 64T286 102Z" />
<glyph unicode="U" horiz-adv-x="773" d="M389 -10Q110 -10 110 289V592Q110 634 95 651T41 669L20 670V700H294V670L273 669Q234 668 219 651T204 592V305Q204 39 414 39Q518 39 567 110T617 331V592Q617 634 602 650T544 669L523 670V700H753V670L732 669Q693
668 678 651T663 592V318Q663 149 597 70T389 -10Z" />
<glyph unicode="V" horiz-adv-x="691" d="M329 -5L99 569Q83 611 70 631T39 659T-7 670V670V700H280V670L247 667Q209 663 197 638T201 569L371 131L538 569Q556 616 545 640T493 668L464 670V700H702V670V670Q673 666 654 657T620 627T590 569L362 -5H329Z" />
<glyph unicode="W" horiz-adv-x="1023" d="M309 -5L99 569Q85 609 72 629T41 658T-7 670V670V700H280V670L247 668Q211 666 198 641T201 569L351 131L495 560Q480 616 461 640T409 668L386 670V700H666V670L633 668Q598 666 586 642T587 569L718 131L867 569Q884
619 872 642T820 668L791 670V700H1032V670V670Q1001 665 981 655T947 625T920 569L717 -5H676L510 514L529 513L350 -5H309Z" />
<glyph unicode="X" horiz-adv-x="683" d="M386 0V30L407 31Q502 36 453 108L126 592Q104 625 89 640T56 662T7 670V670V700H297V670L276 669Q181 664 230 592L557 108Q586 65 611 49T676 30V30V0H386ZM7 0V30V30Q34 32 52 38T88 61T126 108L318 374L342 334L183
108Q158 73 170 53T229 31L250 30V0H7ZM365 326L341 366L500 592Q525 627 513 647T454 669L433 670V700H676V670V670Q650 669 631 662T596 639T557 592L365 326Z" />
<glyph unicode="Y" horiz-adv-x="646" d="M174 0V30L205 33Q235 36 251 43T273 64T279 102V316L105 592Q85 625 71 641T40 663T-2 670V670V700H258V670L237 669Q203 667 195 648T209 592L367 333H329L484 589Q506 625 497 646T451 669L430 670V700H641V670V670Q608
668 585 651T536 592L373 328V102Q373 79 379 65T401 43T447 33L478 30V0H174Z" />
<glyph unicode="Z" horiz-adv-x="589" d="M527 -6Q484 -3 446 -2T383 0H35V30L455 690L481 660H211Q151 660 116 629T67 534H36L52 706Q83 703 122 702T193 700H551V670L131 10L104 40H353Q421 40 460 77T521 200H553L527 -6Z" />
<glyph unicode="[" horiz-adv-x="300" d="M94 -150V760H278V730L237 726Q200 722 189 716T178 678V-68Q178 -99 189 -105T237 -116L278 -120V-150H94Z" />
<glyph unicode="\" horiz-adv-x="425" d="M360 -150L13 760H65L412 -150H360Z" />
<glyph unicode="]" horiz-adv-x="300" d="M206 760V-150H22V-120L63 -116Q100 -112 111 -106T122 -68V678Q122 710 111 716T63 726L22 730V760H206Z" />
<glyph unicode="^" horiz-adv-x="560" d="M98 338L257 700H303L462 338H416L281 647H279L144 338H98Z" />
<glyph unicode="_" horiz-adv-x="514" d="M18 -100V-56H496V-100H18Z" />
<glyph unicode="`" horiz-adv-x="590" d="M367 568L254 634Q241 642 230 648T208 664Q194 676 193 692T203 723Q214 737 231 738T261 728Q272 719 280 709T299 688L383 588L367 568Z" />
<glyph unicode="a" horiz-adv-x="503" d="M156 -10Q111 -10 86 4T50 41T39 87Q39 121 63 155T144 225T297 294L322 303L325 402Q326 439 302 463T235 488Q201 488 175 465T138 393Q136 383 118 375T69 366Q52 366 43 370T38 388Q54 427 91 459T175 510T268 530Q333
530 374 499T414 412L404 107Q403 68 423 57T502 42V19L467 10Q435 0 417 -3T388 -7Q361 -7 348 5T329 33T321 59H313Q270 17 233 4T156 -10ZM213 56Q249 56 272 67T315 92L321 269L313 266Q241 239 203 213T152 163T138 119Q138 56 213 56Z" />
<glyph unicode="b" horiz-adv-x="606" d="M74 -10V666Q74 698 60 711T-4 731V756L150 800H164V453H170Q197 480 223 497T277 522T337 530Q406 530 458 498T540 408T570 275Q570 192 534 128T434 27T291 -10Q248 -10 207 2T134 38L104 -10H74ZM306 28Q386 28 431
82T476 236Q476 305 455 356T393 436T297 465Q260 465 226 452T164 410V183Q164 135 180 101T227 47T306 28Z" />
<glyph unicode="c" horiz-adv-x="510" d="M286 -10Q213 -10 157 24T68 118T36 253Q36 333 71 395T169 494T309 530Q361 530 399 516T459 482T481 444Q481 428 465 418T430 405T401 411L337 468Q324 480 311 484T278 489Q232 489 198 462T146 390T127 288Q127 222
152 171T223 91T327 61Q362 61 396 73T467 113L487 94Q440 39 391 15T286 -10Z" />
<glyph unicode="d" horiz-adv-x="625" d="M269 -10Q201 -10 148 23T66 114T36 246Q36 328 71 392T168 493T305 530Q340 530 375 522T442 493V666Q442 698 428 711T364 731V756L518 800H532V126Q532 95 546 81T612 61V61V34L459 -2H445V67H436Q408 37 380 20T324
-3T269 -10ZM316 55Q347 55 379 66T442 110V342Q442 395 421 428T368 476T298 492Q216 492 173 440T130 290Q130 219 153 166T218 84T316 55Z" />
<glyph unicode="e" horiz-adv-x="517" d="M283 -10Q209 -10 153 24T67 118T36 251Q36 332 71 395T167 494T299 530Q378 530 426 485T474 354Q474 348 474 342T472 324L470 310H111V348H375Q378 368 378 385Q378 435 352 463T277 491Q210 491 169 438T127 296Q127
229 151 176T221 92T329 61Q364 61 397 73T467 113L487 94Q439 39 390 15T283 -10Z" />
<glyph unicode="f" horiz-adv-x="367" d="M28 0V30L58 35Q89 40 98 51T108 94V460H19V475L45 520H108V536Q108 590 130 638T191 724T277 783T375 804Q414 804 445 789T477 749Q477 732 460 719T422 716L345 752Q333 757 322 757Q297 757 268 734T219 669T198 573V520H368V505L342
460H198V104Q198 70 210 55T253 36L298 30V0H28Z" />
<glyph unicode="g" horiz-adv-x="510" d="M215 -257Q130 -257 79 -223T27 -135Q27 -114 38 -88T84 -27L139 28L177 22Q143 -17 125 -42T106 -96Q106 -141 149 -164T269 -188Q353 -188 400 -156T448 -72Q448 -39 426 -24T346 -5L153 9Q107 13 79 32T50 83Q50 109
68 126T114 169L145 199H188L158 165Q144 149 140 142T135 126Q135 113 145 105T180 95L371 79Q499 69 499 -36Q499 -98 461 -148T358 -227T215 -257ZM234 176Q178 176 134 198T65 261T40 352Q40 404 65 444T136 507T238 530L279 527Q347 515 389 469T432 356Q432
304 407 264T336 200T234 176ZM244 215Q292 215 318 247T344 341Q344 387 330 420T290 472T228 491Q180 491 154 459T128 365Q128 319 142 286T182 234T244 215ZM238 515V530L486 578H505V515H238Z" />
<glyph unicode="h" horiz-adv-x="616" d="M14 0V30L44 35Q74 40 84 51T94 94V666Q94 698 80 711T16 731V756L170 800H184V456H190Q221 483 248 499T304 522T372 530Q443 530 483 495T524 394V94Q524 63 534 52T574 35L604 30V0H354V30L384 35Q414 40 424 51T434
94V364Q434 401 421 424T383 458T317 470Q278 470 247 457T184 414V94Q184 63 194 52T234 35L264 30V0H14Z" />
<glyph unicode="i" horiz-adv-x="287" d="M22 0V30L52 35Q82 40 92 51T102 94V392Q102 424 88 437T24 457V482L178 526H192V94Q192 63 202 52T242 35L272 30V0H22ZM137 603Q112 603 95 619T78 662Q78 688 95 704T137 720Q161 720 178 704T195 662Q195 636 178
620T137 603Z" />
<glyph unicode="j" horiz-adv-x="256" d="M-12 -257Q-45 -257 -73 -245T-101 -213Q-101 -200 -92 -190T-70 -175T-45 -175L26 -206Q31 -208 36 -209T45 -211Q64 -211 74 -191T88 -135T92 -56V392Q92 424 78 437T14 457V482L168 526H182V-9Q182 -76 162 -132T98
-223T-12 -257ZM137 603Q112 603 95 619T78 662Q78 688 95 704T137 720Q161 720 178 704T195 662Q195 636 178 620T137 603Z" />
<glyph unicode="k" horiz-adv-x="586" d="M14 0V30L44 35Q74 40 84 51T94 94V666Q94 698 80 711T16 731V756L170 800H184V94Q184 63 194 52T234 35L264 30V0H14ZM325 0V30L347 31Q377 33 384 44T386 72T368 108L256 290L320 348L467 108Q491 69 512 52T557 32L577
30V0H325ZM152 165L124 191L366 419Q401 451 397 469T354 489L330 490V520H577V490V490Q537 488 509 478T452 441L152 165Z" />
<glyph unicode="l" horiz-adv-x="278" d="M14 0V30L44 35Q74 40 84 51T94 94V666Q94 698 80 711T16 731V756L170 800H184V94Q184 63 194 52T234 35L264 30V0H14Z" />
<glyph unicode="m" horiz-adv-x="905" d="M22 0V30L52 35Q82 40 92 51T102 94V392Q102 424 88 437T24 457V482L175 526H189V453H195Q243 495 283 512T369 530Q413 530 447 513T495 450H500Q552 494 592 512T679 530Q716 530 746 519T794 481T812 407V94Q812 63
822 52T862 35L892 30V0H642V30L672 35Q702 40 712 51T722 94V377Q722 417 711 437T679 463T633 470Q596 470 566 457T502 414V94Q502 63 512 52T552 35L582 30V0H332V30L362 35Q392 40 402 51T412 94V377Q412 417 401 437T369 463T323 470Q286 470 255 457T192
414V94Q192 63 202 52T242 35L272 30V0H22Z" />
<glyph unicode="n" horiz-adv-x="624" d="M22 0V30L52 35Q82 40 92 51T102 94V392Q102 424 88 437T24 457V482L175 526H189V453H195Q243 495 284 512T380 530Q451 530 491 495T532 394V94Q532 63 542 52T582 35L612 30V0H362V30L392 35Q422 40 432 51T442 94V364Q442
401 429 424T391 458T325 470Q286 470 255 457T192 414V94Q192 63 202 52T242 35L272 30V0H22Z" />
<glyph unicode="o" horiz-adv-x="613" d="M306 -10Q226 -10 165 24T70 119T36 260Q36 336 70 397T164 494T306 530Q387 530 448 496T543 402T577 261Q577 185 543 124T449 26T306 -10ZM322 29Q390 29 435 80T480 234Q480 302 459 360T395 455T291 491Q223 491
178 440T133 285Q133 218 154 160T218 65T322 29Z" />
<glyph unicode="p" horiz-adv-x="624" d="M12 -247V-217L42 -212Q73 -207 82 -196T92 -153V392Q92 424 78 437T14 457V482L165 526H179V453H185Q213 480 240 497T295 522T355 530Q424 530 476 498T558 408T588 275Q588 192 552 128T452 27T309 -10Q275 -10 243
-3T182 19V-143Q182 -177 194 -192T237 -211L282 -217V-247H12ZM324 28Q404 28 449 82T494 236Q494 305 473 356T411 436T315 465Q278 465 244 452T182 413V183Q182 135 198 101T245 47T324 28Z" />
<glyph unicode="q" horiz-adv-x="606" d="M341 -247V-217L386 -211Q418 -206 430 -192T442 -143V67H436Q412 42 385 25T329 -1T267 -10Q200 -10 148 23T66 114T36 246Q36 328 72 392T171 493T315 530Q355 530 393 520T472 490L502 530H532V-153Q532 -184 541 -195T581
-212L611 -217V-247H341ZM313 55Q353 55 382 67T442 110V336Q442 385 426 420T378 473T301 492Q219 492 175 442T130 293Q130 223 153 169T217 85T313 55Z" />
<glyph unicode="r" horiz-adv-x="417" d="M22 0V30L52 35Q83 40 92 51T102 94V392Q102 426 87 438T24 457V482L175 526H189V446H198Q223 482 259 505T343 528Q379 528 397 513T416 474Q416 458 404 445T374 428T341 432L293 460Q281 467 264 458T231 435T203 407T192
391V94Q192 63 202 52T242 36L292 30V0H22Z" />
<glyph unicode="s" horiz-adv-x="431" d="M199 -10Q161 -10 119 -1T49 23V158H78Q89 88 126 58T212 27Q258 27 284 51T310 114Q310 149 290 168T234 206L162 244Q98 278 77 312T56 380Q56 425 80 458T148 511T246 530Q283 530 315 522T374 502V386H345Q339 415
325 439T288 478T228 493Q183 493 159 470T135 413Q135 385 152 364T210 322L276 288Q332 260 360 230T389 150Q389 98 362 63T292 9T199 -10Z" />
<glyph unicode="t" horiz-adv-x="391" d="M221 -10Q159 -10 122 22T85 126V460H22V490Q100 533 146 604H176V522V493V153Q176 114 189 94T224 68T273 61Q307 61 332 71T379 94L397 73Q366 41 322 16T221 -10ZM132 460V520H385V505L359 460H132Z" />
<glyph unicode="u" horiz-adv-x="608" d="M239 -10Q169 -10 129 26T88 126V420Q88 453 73 466T15 483V508L161 528H178V156Q178 119 190 96T229 62T296 50Q334 50 364 64T423 111V420Q423 453 408 466T345 483V508L496 528H513V126Q513 92 528 80T593 61V61V34L440
-2H426V67H420Q372 25 332 8T239 -10Z" />
<glyph unicode="v" horiz-adv-x="566" d="M256 -8L89 412Q73 453 58 469T19 488L-1 490V520H244V490L222 488Q192 485 181 464T181 412L317 50H291L429 412Q443 449 433 466T387 488L366 490V520H576V490V490Q533 484 514 467T478 412L306 -8H256Z" />
<glyph unicode="w" horiz-adv-x="815" d="M231 -8L88 412Q75 452 60 469T20 488L0 490V520H243V490L221 488Q192 485 180 465T178 412L293 49H274L404 444L408 358Q396 406 386 434T362 475T327 489L311 490V520H546V490L523 488Q453 482 472 420L582 49H562L678
412Q690 450 681 467T635 488L614 490V520H824V490V490Q782 484 762 468T727 412L579 -8H520L403 374L426 375L289 -8H231Z" />
<glyph unicode="x" horiz-adv-x="567" d="M311 0V30L336 32Q371 35 377 56T360 108L125 412Q100 445 84 461T53 483T16 490V490V520H266V490L241 487Q214 484 207 463T219 417L457 108Q481 77 502 56T561 30V30V0H311ZM2 0V30V30Q29 35 47 42T81 65T119 108L252
275L276 241L169 108Q144 78 150 57T191 33L222 30V0H2ZM312 253L288 287L380 412Q403 443 398 463T364 487L336 490V520H556V490V490Q513 486 487 469T430 412L312 253Z" />
<glyph unicode="y" horiz-adv-x="550" d="M81 -247V-232L258 23L84 412Q68 447 51 465T12 487L-5 490V520H243V490L218 488Q147 482 177 412L315 87L286 86L407 391Q427 440 416 462T369 488L348 490V520H556V490L535 487Q518 485 506 477T483 450T456 395L184 -247H81Z" />
<glyph unicode="z" horiz-adv-x="498" d="M449 -6Q408 -3 372 -2T315 0H35V26L366 517L379 486L197 481Q142 480 111 451T69 359H39L56 526Q92 524 122 522T190 520H450V494L126 14L111 36L289 39Q334 40 362 53T408 95T435 177H465L449 -6Z" />
<glyph unicode="{" horiz-adv-x="284" d="M254 -154Q156 -161 109 -117T78 16L110 179Q121 231 106 259T46 289L26 290V320L46 321Q90 323 105 351T110 431L78 594Q61 683 108 727T254 764V734Q202 738 178 704T167 602L196 449Q208 386 185 351T98 305Q161 294
184 259T196 161L167 8Q154 -60 178 -94T254 -124V-154Z" />
<glyph unicode="|" horiz-adv-x="250" d="M100 -150V760H150V-150H100Z" />
<glyph unicode="}" horiz-adv-x="284" d="M30 -154V-124Q82 -128 106 -94T117 8L88 161Q76 224 99 259T186 305Q123 316 100 351T88 449L117 602Q130 670 106 704T30 734V764Q128 772 175 728T206 594L174 431Q164 379 179 351T238 321L258 320V290L238 289Q194
287 179 259T174 179L206 16Q223 -72 176 -116T30 -154Z" />
<glyph unicode="~" horiz-adv-x="560" d="M81 261L63 266Q84 333 120 356T193 380Q219 380 240 374T276 362L310 349Q332 341 349 337T385 333Q415 333 440 345T480 391L498 386Q477 319 441 296T368 272Q342 272 321 278T285 290L251 303Q229 311 212 315T176
319Q146 319 121 308T81 261Z" />
<glyph unicode="&#xa0;" horiz-adv-x="220" />
<glyph unicode="&#xa1;" horiz-adv-x="249" d="M141 326Q148 235 154 156T167 -7Q169 -25 171 -48T174 -93T176 -126Q176 -157 162 -173T124 -190Q100 -190 86 -174T72 -126Q72 -114 73 -93T77 -49T81 -7Q88 76 94 155T107 326H141ZM124 530Q149 530 166 514T184
470Q184 445 167 428T124 411Q100 411 83 428T65 470Q65 497 82 513T124 530Z" />
<glyph unicode="&#xa2;" d="M191 -149L316 669H359L234 -149H191ZM301 -10Q228 -10 172 24T83 118T51 253Q51 333 86 395T184 494T324 530Q376 530 414 516T474 482T496 444Q496 428 480 418T445 405T416 411L352 468Q339 480 326 484T293 489Q247 489 213 462T161
390T142 288Q142 222 167 171T238 91T342 61Q377 61 411 73T482 113L502 94Q455 39 406 15T301 -10Z" />
<glyph unicode="&#xa3;" horiz-adv-x="598" d="M392 -32Q367 -32 339 -24T287 -5T246 15Q216 32 188 44T137 42L128 33Q112 17 96 3T48 -12Q33 -12 26 -5T19 11Q19 28 32 41T65 61Q79 66 91 70T115 77Q143 107 157 149T176 240T181 336T182 421Q182 509 213 574T301
674T429 710Q462 710 490 698T518 666Q518 652 508 642T485 628T462 628L391 659Q386 661 382 662T372 664Q336 664 309 621T281 488Q281 411 273 338T240 200T164 85L165 84Q185 86 206 86T243 83Q298 77 335 62T402 33T460 19Q478 19 485 36T493 85V87Q493 103
506 115T535 133T562 131T571 101Q569 82 554 59T513 15T457 -19T392 -32ZM50 310L60 350H468L458 310H50Z" />
<glyph unicode="&#xa4;" horiz-adv-x="597" d="M299 125Q238 125 189 152T112 228T84 338Q84 400 112 448T189 523T299 551Q360 551 408 524T485 448T513 338Q513 277 485 229T409 153T299 125ZM92 101L59 132L158 230L190 199L92 101ZM157 446L59 544L91 575L191
476L157 446ZM299 167Q373 167 417 213T462 338Q462 416 418 462T299 509Q225 509 180 463T135 338Q135 260 180 214T299 167ZM505 101L407 199L439 230L538 132L505 101ZM440 446L406 476L506 575L538 544L440 446Z" />
<glyph unicode="&#xa5;" horiz-adv-x="676" d="M89 250V290H597V250H89ZM89 392V432H287V392H89ZM409 392L419 432H597V392H409ZM192 0V30L223 33Q253 36 269 43T291 64T297 102V316L123 592Q103 625 89 641T58 663T16 670V670V700H276V670L255 669Q221 667 213
648T227 592L385 333H347L502 589Q524 625 515 646T469 669L448 670V700H659V670V670Q626 668 603 651T554 592L391 328V102Q391 79 397 65T419 43T465 33L496 30V0H192Z" />
<glyph unicode="&#xa6;" horiz-adv-x="250" d="M100 380V760H150V380H100ZM100 -150V230H150V-150H100Z" />
<glyph unicode="&#xa7;" horiz-adv-x="457" d="M122 -147Q94 -147 67 -135T39 -103Q39 -90 48 -80T70 -65T94 -66L150 -96Q155 -99 160 -100T169 -101Q188 -101 208 -89T243 -54T257 4Q257 34 242 63T207 120T169 170L113 245Q71 301 54 347T36 442Q36 504 64
553T138 638T236 691T334 710Q363 710 390 698T417 666Q417 654 408 643T387 628T362 629L306 659Q297 664 287 664Q268 664 248 652T213 617T199 559Q199 530 214 500T250 443T287 393L343 318Q387 259 403 214T420 121Q420 59 392 10T318 -75T221 -128T122 -147ZM291
-32H300Q318 -14 339 21T360 104Q360 144 348 182T293 276L239 346Q219 372 199 400T166 459T152 525Q152 548 155 565T165 595H156Q138 577 117 542T96 459Q96 419 109 380T163 287L217 217Q237 192 257 164T290 104T304 38Q304 16 302 -1T291 -32Z" />
<glyph unicode="&#xa8;" horiz-adv-x="590" d="M381 594Q357 594 341 610T324 651Q324 676 340 691T381 707Q404 707 420 692T437 651Q437 626 421 610T381 594ZM182 594Q158 594 142 610T125 651Q125 676 141 691T182 707Q205 707 221 692T238 651Q238 626 222
610T182 594Z" />
<glyph unicode="&#xa9;" horiz-adv-x="828" d="M414 -10Q310 -10 229 36T101 164T55 351Q55 429 81 495T156 609T270 683T414 710Q492 710 558 684T672 609T746 495T773 351Q773 246 727 165T600 37T414 -10ZM417 161Q356 161 311 185T242 252T217 348Q217 402
243 447T316 518T427 545Q474 545 504 536T560 514V433H539Q523 470 496 492T418 514Q381 514 352 494T307 440T290 362Q290 317 306 279T353 216T425 192Q464 192 490 210T533 287H555V189Q517 173 483 167T417 161ZM414 33Q505 33 574 74T683 187T723 351Q723
444 684 515T575 627T414 667Q324 667 254 627T145 516T105 351Q105 259 144 187T254 74T414 33Z" />
<glyph unicode="&#xaa;" horiz-adv-x="399" d="M136 318Q99 318 74 337T49 389Q49 436 96 475T247 551L249 609Q251 645 236 659T192 673Q161 673 143 656T116 604Q114 594 101 589T68 583Q40 583 46 600Q56 629 81 653T140 691T210 706Q252 706 282 688T310 626L302
401Q301 375 313 366T369 354V337L343 329Q327 324 316 322T295 320Q253 320 247 368H243Q190 318 136 318ZM161 364Q201 364 242 401L246 522Q182 499 150 470T117 409Q117 387 129 376T161 364Z" />
<glyph unicode="&#xab;" horiz-adv-x="682" d="M628 0Q568 61 517 104T413 181T292 247V273Q359 305 412 338T516 415T628 520L650 503Q602 439 564 397T491 324T412 260Q458 225 494 193T567 120T650 16L628 0ZM378 0Q318 61 267 104T163 181T42 247V273Q109
305 162 338T266 415T378 520L400 503Q352 439 314 397T241 324T162 260Q208 225 244 193T317 120T400 16L378 0Z" />
<glyph unicode="&#xac;" horiz-adv-x="560" d="M36 413V457H514V413H36ZM464 197V455H514V197H464Z" />
<glyph unicode="&#xae;" horiz-adv-x="828" d="M414 -10Q310 -10 229 36T101 164T55 351Q55 429 81 495T156 609T270 683T414 710Q492 710 558 684T672 609T746 495T773 351Q773 246 727 165T600 37T414 -10ZM414 33Q505 33 574 74T683 187T723 351Q723 444 684
515T575 627T414 667Q324 667 254 627T145 516T105 351Q105 259 144 187T254 74T414 33ZM242 164V186L264 188Q296 191 296 224V482Q296 515 264 518L242 520V542H424Q558 542 558 449Q558 419 538 391T459 351Q502 340 522 308T551 219Q553 203 559 196T578 187L587
186V164H533Q507 164 498 173T483 208Q475 248 466 277T439 324T390 341H362V224Q362 206 369 198T393 188L421 186V164H242ZM362 370H405Q441 370 464 389T488 443Q488 476 469 494T415 513Q385 513 374 509T362 494V370Z" />
<glyph unicode="&#xaf;" horiz-adv-x="590" d="M175 648V702H453V648H175Z" />
<glyph unicode="&#xb0;" horiz-adv-x="422" d="M211 402Q167 402 132 421T75 474T54 556Q54 603 75 637T131 691T211 710Q255 710 290 691T347 638T368 556Q368 509 347 475T291 421T211 402ZM211 435Q254 435 282 466T310 556Q310 615 282 646T211 677Q168 677
140 646T112 556Q112 497 140 466T211 435Z" />
<glyph unicode="&#xb1;" horiz-adv-x="560" d="M41 309V353H519V309H41ZM41 0V44H519V0H41ZM255 127V535H305V127H255Z" />
<glyph unicode="&#xb2;" horiz-adv-x="287" d="M20 474V498Q62 541 100 585T163 672T188 752Q188 789 171 805T124 822Q101 822 81 808T49 760L17 766Q32 813 64 834T144 856Q166 856 191 848T235 818T253 760Q253 714 225 671T152 586T58 500V517H193Q218 517
226 526T237 547H256V474H20Z" />
<glyph unicode="&#xb3;" horiz-adv-x="278" d="M122 468Q73 468 47 486T20 519Q20 538 36 544T66 539L93 514Q100 507 107 502T127 497Q153 497 170 516T187 573Q187 617 157 636T88 645V672Q131 683 154 706T178 764Q178 795 162 808T124 822Q96 822 79 806T51
762L22 772Q35 815 65 835T138 856Q183 856 212 832T241 768Q241 736 219 712T150 671L151 679Q195 676 222 651T249 582Q249 534 214 501T122 468Z" />
<glyph unicode="&#xb4;" horiz-adv-x="590" d="M222 568L206 588L290 688Q300 699 309 709T328 728Q342 740 358 739T386 723Q398 709 397 693T381 664Q371 655 360 649T335 634L222 568Z" />
<glyph unicode="&#xb6;" horiz-adv-x="548" d="M134 -147Q106 -147 79 -135T51 -103Q51 -90 60 -80T82 -65T106 -66L162 -96Q167 -99 172 -100T181 -101Q210 -101 231 -72T253 25V700H306V48Q306 26 305 9T296 -22H305Q314 -13 328 4T355 51T378 128T388 244V700H441V251Q441
144 411 69T332 -54T232 -124T134 -147ZM225 321Q165 321 121 345T51 413T26 511Q26 566 51 608T120 675T225 700V321ZM225 320V700H257V320H225ZM422 602L419 668H293V700H531V670L510 669Q466 667 454 651T441 602H422Z" />
<glyph unicode="&#xb7;" horiz-adv-x="233" d="M117 296Q92 296 74 313T55 358Q55 384 73 401T117 418Q142 418 160 401T178 358Q178 330 160 313T117 296Z" />
<glyph unicode="&#xb8;" horiz-adv-x="590" d="M309 -257Q278 -257 257 -247T236 -219Q236 -203 250 -193T280 -191L301 -202Q315 -209 323 -214T338 -220Q352 -220 368 -211T385 -175Q385 -139 355 -122T272 -107L271 -105L363 9L392 1L338 -65Q391 -71 418 -91T446
-152Q446 -180 427 -204T377 -242T309 -257Z" />
<glyph unicode="&#xb9;" horiz-adv-x="215" d="M24 474V496L56 499Q73 501 79 509T86 536V773Q86 797 74 801T15 806V827L131 854H144V531Q144 514 149 508T170 499L195 496V474H24Z" />
<glyph unicode="&#xba;" horiz-adv-x="461" d="M231 318Q173 318 129 342T61 410T36 512Q36 570 60 613T128 681T230 706Q289 706 332 682T400 614T425 512Q425 454 401 411T333 343T231 318ZM243 348Q295 348 325 385T355 493Q355 577 318 626T218 676Q166 676
136 639T106 531Q106 447 144 398T243 348Z" />
<glyph unicode="&#xbb;" horiz-adv-x="682" d="M54 0L32 16Q78 78 114 119T188 193T270 260Q227 293 192 324T119 397T32 503L54 520Q115 459 166 416T270 339T390 273V247Q323 215 270 181T165 104T54 0ZM304 0L282 16Q328 78 364 119T438 193T520 260Q477 293
442 324T369 397T282 503L304 520Q365 459 416 416T520 339T640 273V247Q573 215 520 181T415 104T304 0Z" />
<glyph unicode="&#xbc;" horiz-adv-x="661" d="M37 324V346L69 349Q86 351 92 359T99 386V623Q99 647 87 651T28 656V677L144 704H157V381Q157 364 162 358T183 349L208 346V324H37ZM55 0L475 700H530L110 0H55ZM468 0V21L495 24Q512 26 518 34T525 61V119H348V137L541
382H578V157H640V144L629 119H578V56Q578 39 583 33T604 24L624 21V0H468ZM525 139V331L531 324L388 142L372 157H536L525 139Z" />
<glyph unicode="&#xbd;" horiz-adv-x="671" d="M37 324V346L69 349Q86 351 92 359T99 386V623Q99 647 87 651T28 656V677L144 704H157V381Q157 364 162 358T183 349L208 346V324H37ZM55 0L475 700H530L110 0H55ZM398 0V24Q440 67 478 111T541 198T566 278Q566
315 549 331T502 348Q479 348 459 334T427 286L395 292Q410 339 442 360T522 382Q544 382 569 374T613 344T631 286Q631 240 603 197T530 112T436 26V43H571Q596 43 604 52T615 73H634V0H398Z" />
<glyph unicode="&#xbe;" horiz-adv-x="751" d="M134 318Q85 318 59 336T32 369Q32 388 48 394T78 389L105 364Q112 357 119 352T139 347Q165 347 182 366T199 423Q199 467 169 486T100 495V522Q143 533 166 556T190 614Q190 645 174 658T136 672Q108 672 91 656T63
612L34 622Q47 665 77 685T150 706Q195 706 224 682T253 618Q253 586 231 562T162 521L163 529Q207 526 234 501T261 432Q261 384 226 351T134 318ZM142 0L562 700H617L197 0H142ZM555 0V21L582 24Q599 26 605 34T612 61V119H435V137L628 382H665V157H727V144L716
119H665V56Q665 39 670 33T691 24L711 21V0H555ZM612 139V331L618 324L475 142L459 157H623L612 139Z" />
<glyph unicode="&#xbf;" horiz-adv-x="356" d="M219 326Q249 283 263 250T277 187Q277 155 263 131T213 83L152 43Q120 22 107 2T94 -50Q94 -93 114 -119T164 -145Q175 -145 188 -141T226 -125L271 -103Q297 -90 317 -103T337 -137Q337 -162 300 -176T213 -190Q157
-190 114 -167T48 -105T24 -16Q24 22 42 51T101 107L157 144Q185 163 196 181T208 226Q208 240 204 261T192 316L219 326ZM204 530Q230 530 247 513T264 470Q264 445 247 428T204 411Q179 411 162 428T145 470Q145 496 162 513T204 530Z" />
<glyph unicode="&#xc0;" horiz-adv-x="715" d="M-12 0V30V30Q26 36 46 44T80 72T110 135L343 705H376L610 121Q628 75 651 55T722 30V30V0H437V30L478 35Q510 39 518 58T512 115L316 611H347L158 127Q139 79 149 58T197 33L226 30V0H-12ZM199 271V311H501V271H199ZM422
748L309 814Q296 822 285 828T263 844Q249 856 248 872T258 903Q269 917 286 918T316 908Q327 899 335 889T354 868L438 768L422 748Z" />
<glyph unicode="&#xc1;" horiz-adv-x="715" d="M-12 0V30V30Q26 36 46 44T80 72T110 135L343 705H376L610 121Q628 75 651 55T722 30V30V0H437V30L478 35Q510 39 518 58T512 115L316 611H347L158 127Q139 79 149 58T197 33L226 30V0H-12ZM199 271V311H501V271H199ZM275
748L259 768L343 868Q353 879 362 889T381 908Q395 920 411 919T439 903Q451 889 450 873T434 844Q424 835 413 829T388 814L275 748Z" />
<glyph unicode="&#xc2;" horiz-adv-x="715" d="M-12 0V30V30Q26 36 46 44T80 72T110 135L343 705H376L610 121Q628 75 651 55T722 30V30V0H437V30L478 35Q510 39 518 58T512 115L316 611H347L158 127Q139 79 149 58T197 33L226 30V0H-12ZM199 271V311H501V271H199ZM226
771L212 784L324 914H382L494 784L480 771L354 842H352L226 771Z" />
<glyph unicode="&#xc3;" horiz-adv-x="715" d="M-12 0V30V30Q26 36 46 44T80 72T110 135L343 705H376L610 121Q628 75 651 55T722 30V30V0H437V30L478 35Q510 39 518 58T512 115L316 611H347L158 127Q139 79 149 58T197 33L226 30V0H-12ZM199 271V311H501V271H199ZM198
798L174 803Q186 843 204 865T242 897T283 907Q304 907 322 901T353 889L375 879Q394 871 406 867T431 863Q463 863 480 877T508 911L532 906Q520 867 502 844T464 812T423 802Q402 802 384 808T353 820L331 830Q312 838 300 842T275 846Q244 846 227 832T198 798Z"
/>
<glyph unicode="&#xc4;" horiz-adv-x="715" d="M-12 0V30V30Q26 36 46 44T80 72T110 135L343 705H376L610 121Q628 75 651 55T722 30V30V0H437V30L478 35Q510 39 518 58T512 115L316 611H347L158 127Q139 79 149 58T197 33L226 30V0H-12ZM199 271V311H501V271H199ZM453
774Q429 774 413 790T396 831Q396 856 412 871T453 887Q476 887 492 872T509 831Q509 806 493 790T453 774ZM254 774Q230 774 214 790T197 831Q197 856 213 871T254 887Q277 887 293 872T310 831Q310 806 294 790T254 774Z" />
<glyph unicode="&#xc5;" horiz-adv-x="715" d="M-12 0V30V30Q26 36 46 44T80 72T110 135L343 705H376L610 121Q628 75 651 55T722 30V30V0H437V30L478 35Q510 39 518 58T512 115L316 611H347L158 127Q139 79 149 58T197 33L226 30V0H-12ZM199 271V311H501V271H199ZM353
755Q307 755 278 783T249 857Q249 901 278 929T353 957Q399 957 428 929T458 857Q458 812 429 784T353 755ZM357 783Q378 783 391 798T404 845Q404 884 390 906T350 929Q329 929 316 913T303 866Q303 827 317 805T357 783Z" />
<glyph unicode="&#xc6;" horiz-adv-x="955" d="M883 -6Q846 -3 808 -2T739 0H385V30L426 34Q459 37 472 52T485 102V337H293L169 127Q117 39 191 33L227 30V0H-15V30Q18 36 38 46T76 77T117 135L410 611Q429 642 418 652T376 666L335 670V700H741Q789 700 821
701T882 706L897 544H867Q853 610 824 635T733 660H577V377H786Q821 377 835 390T852 441L854 467H884V249H854L853 283Q852 312 837 324T786 337H577V102Q577 76 586 62T623 43T703 37Q759 37 791 50T843 97T878 191H909L883 -6ZM317 377H485V661H480Q470 641
459 620T433 574L317 377Z" />
<glyph unicode="&#xc7;" horiz-adv-x="709" d="M411 -10Q298 -10 214 35T85 160T39 340Q39 416 66 483T145 601T269 681T429 710Q493 710 549 698T669 654V520H639Q620 597 558 632T413 668Q326 668 265 628T172 520T140 366Q140 305 158 246T213 138T302 61T425
32Q475 32 513 43T579 90T629 201H659V42Q588 14 526 2T411 -10ZM379 -257Q348 -257 327 -247T306 -219Q306 -203 320 -193T350 -191L371 -202Q385 -209 393 -214T408 -220Q422 -220 438 -211T455 -175Q455 -139 425 -122T342 -107L341 -105L433 9L462 1L408 -65Q461
-71 488 -91T516 -152Q516 -180 497 -204T447 -242T379 -257Z" />
<glyph unicode="&#xc8;" horiz-adv-x="602" d="M530 -6Q493 -3 455 -2T386 0H30V30L71 34Q104 37 117 52T130 102V598Q130 633 117 648T71 666L30 670V700H388Q436 700 468 701T529 706L544 544H514Q500 610 471 635T380 660H224V377H433Q468 377 482 390T499
441L501 467H531V249H501L500 283Q499 312 484 324T433 337H224V102Q224 76 233 62T270 43T350 37Q406 37 438 50T490 97T525 191H556L530 -6ZM369 748L256 814Q243 822 232 828T210 844Q196 856 195 872T205 903Q216 917 233 918T263 908Q274 899 282 889T301
868L385 768L369 748Z" />
<glyph unicode="&#xc9;" horiz-adv-x="602" d="M530 -6Q493 -3 455 -2T386 0H30V30L71 34Q104 37 117 52T130 102V598Q130 633 117 648T71 666L30 670V700H388Q436 700 468 701T529 706L544 544H514Q500 610 471 635T380 660H224V377H433Q468 377 482 390T499
441L501 467H531V249H501L500 283Q499 312 484 324T433 337H224V102Q224 76 233 62T270 43T350 37Q406 37 438 50T490 97T525 191H556L530 -6ZM222 748L206 768L290 868Q300 879 309 889T328 908Q342 920 358 919T386 903Q398 889 397 873T381 844Q371 835 360
829T335 814L222 748Z" />
<glyph unicode="&#xca;" horiz-adv-x="602" d="M530 -6Q493 -3 455 -2T386 0H30V30L71 34Q104 37 117 52T130 102V598Q130 633 117 648T71 666L30 670V700H388Q436 700 468 701T529 706L544 544H514Q500 610 471 635T380 660H224V377H433Q468 377 482 390T499
441L501 467H531V249H501L500 283Q499 312 484 324T433 337H224V102Q224 76 233 62T270 43T350 37Q406 37 438 50T490 97T525 191H556L530 -6ZM173 771L159 784L271 914H329L441 784L427 771L301 842H299L173 771Z" />
<glyph unicode="&#xcb;" horiz-adv-x="602" d="M530 -6Q493 -3 455 -2T386 0H30V30L71 34Q104 37 117 52T130 102V598Q130 633 117 648T71 666L30 670V700H388Q436 700 468 701T529 706L544 544H514Q500 610 471 635T380 660H224V377H433Q468 377 482 390T499
441L501 467H531V249H501L500 283Q499 312 484 324T433 337H224V102Q224 76 233 62T270 43T350 37Q406 37 438 50T490 97T525 191H556L530 -6ZM400 774Q376 774 360 790T343 831Q343 856 359 871T400 887Q423 887 439 872T456 831Q456 806 440 790T400 774ZM201
774Q177 774 161 790T144 831Q144 856 160 871T201 887Q224 887 240 872T257 831Q257 806 241 790T201 774Z" />
<glyph unicode="&#xcc;" horiz-adv-x="354" d="M30 0V30L71 34Q96 37 108 45T125 67T130 102V598Q130 619 126 633T109 655T71 666L30 670V700H324V670L283 666Q259 664 246 656T229 633T224 598V102Q224 81 228 67T246 45T283 34L324 30V0H30ZM246 748L133 814Q120
822 109 828T87 844Q73 856 72 872T82 903Q93 917 110 918T140 908Q151 899 159 889T178 868L262 768L246 748Z" />
<glyph unicode="&#xcd;" horiz-adv-x="354" d="M30 0V30L71 34Q96 37 108 45T125 67T130 102V598Q130 619 126 633T109 655T71 666L30 670V700H324V670L283 666Q259 664 246 656T229 633T224 598V102Q224 81 228 67T246 45T283 34L324 30V0H30ZM99 748L83 768L167
868Q177 879 186 889T205 908Q219 920 235 919T263 903Q275 889 274 873T258 844Q248 835 237 829T212 814L99 748Z" />
<glyph unicode="&#xce;" horiz-adv-x="354" d="M30 0V30L71 34Q96 37 108 45T125 67T130 102V598Q130 619 126 633T109 655T71 666L30 670V700H324V670L283 666Q259 664 246 656T229 633T224 598V102Q224 81 228 67T246 45T283 34L324 30V0H30ZM50 771L36 784L148
914H206L318 784L304 771L178 842H176L50 771Z" />
<glyph unicode="&#xcf;" horiz-adv-x="354" d="M30 0V30L71 34Q96 37 108 45T125 67T130 102V598Q130 619 126 633T109 655T71 666L30 670V700H324V670L283 666Q259 664 246 656T229 633T224 598V102Q224 81 228 67T246 45T283 34L324 30V0H30ZM277 774Q253 774
237 790T220 831Q220 856 236 871T277 887Q300 887 316 872T333 831Q333 806 317 790T277 774ZM78 774Q54 774 38 790T21 831Q21 856 37 871T78 887Q101 887 117 872T134 831Q134 806 118 790T78 774Z" />
<glyph unicode="&#xd0;" horiz-adv-x="790" d="M36 336V376H356V336H36ZM33 0V30L74 34Q107 37 120 52T133 102V598Q133 633 120 648T74 666L33 670V700H353Q479 700 567 662T702 548T749 360Q749 249 700 169T562 44T357 0H33ZM357 40Q493 40 570 115T648 332Q648
433 609 507T502 623T346 664Q320 664 294 663T227 658V99Q227 74 237 62T275 45T357 40Z" />
<glyph unicode="&#xd1;" horiz-adv-x="817" d="M668 -8L170 591Q171 538 171 488T173 382T174 261T175 108Q175 79 181 63T205 40T254 31L275 30V0H37V30L58 32Q86 35 101 42T121 65T127 108L130 592Q130 633 115 648T53 668L32 670V700H199L655 153Q654 221 653
273T652 371T651 468T651 582Q651 616 645 634T621 660T572 669L551 670V700H789V670L768 668Q740 665 725 658T705 633T699 582L696 -8H668ZM256 798L232 803Q244 843 262 865T300 897T341 907Q362 907 380 901T411 889L433 879Q452 871 464 867T489 863Q521 863
538 877T566 911L590 906Q578 867 560 844T522 812T481 802Q460 802 442 808T411 820L389 830Q370 838 358 842T333 846Q302 846 285 832T256 798Z" />
<glyph unicode="&#xd2;" horiz-adv-x="822" d="M406 -10Q296 -10 214 35T86 161T40 350Q40 457 87 538T220 664T418 710Q528 710 609 665T736 539T782 349Q782 243 735 162T603 36T406 -10ZM434 32Q509 32 564 65T650 162T681 314Q681 420 643 499T539 623T388
668Q313 668 258 635T172 538T141 386Q141 280 179 201T283 77T434 32ZM478 748L365 814Q352 822 341 828T319 844Q305 856 304 872T314 903Q325 917 342 918T372 908Q383 899 391 889T410 868L494 768L478 748Z" />
<glyph unicode="&#xd3;" horiz-adv-x="822" d="M406 -10Q296 -10 214 35T86 161T40 350Q40 457 87 538T220 664T418 710Q528 710 609 665T736 539T782 349Q782 243 735 162T603 36T406 -10ZM434 32Q509 32 564 65T650 162T681 314Q681 420 643 499T539 623T388
668Q313 668 258 635T172 538T141 386Q141 280 179 201T283 77T434 32ZM331 748L315 768L399 868Q409 879 418 889T437 908Q451 920 467 919T495 903Q507 889 506 873T490 844Q480 835 469 829T444 814L331 748Z" />
<glyph unicode="&#xd4;" horiz-adv-x="822" d="M406 -10Q296 -10 214 35T86 161T40 350Q40 457 87 538T220 664T418 710Q528 710 609 665T736 539T782 349Q782 243 735 162T603 36T406 -10ZM434 32Q509 32 564 65T650 162T681 314Q681 420 643 499T539 623T388
668Q313 668 258 635T172 538T141 386Q141 280 179 201T283 77T434 32ZM282 771L268 784L380 914H438L550 784L536 771L410 842H408L282 771Z" />
<glyph unicode="&#xd5;" horiz-adv-x="822" d="M406 -10Q296 -10 214 35T86 161T40 350Q40 457 87 538T220 664T418 710Q528 710 609 665T736 539T782 349Q782 243 735 162T603 36T406 -10ZM434 32Q509 32 564 65T650 162T681 314Q681 420 643 499T539 623T388
668Q313 668 258 635T172 538T141 386Q141 280 179 201T283 77T434 32ZM254 798L230 803Q242 843 260 865T298 897T339 907Q360 907 378 901T409 889L431 879Q450 871 462 867T487 863Q519 863 536 877T564 911L588 906Q576 867 558 844T520 812T479 802Q458 802
440 808T409 820L387 830Q368 838 356 842T331 846Q300 846 283 832T254 798Z" />
<glyph unicode="&#xd6;" horiz-adv-x="822" d="M406 -10Q296 -10 214 35T86 161T40 350Q40 457 87 538T220 664T418 710Q528 710 609 665T736 539T782 349Q782 243 735 162T603 36T406 -10ZM434 32Q509 32 564 65T650 162T681 314Q681 420 643 499T539 623T388
668Q313 668 258 635T172 538T141 386Q141 280 179 201T283 77T434 32ZM509 774Q485 774 469 790T452 831Q452 856 468 871T509 887Q532 887 548 872T565 831Q565 806 549 790T509 774ZM310 774Q286 774 270 790T253 831Q253 856 269 871T310 887Q333 887 349 872T366
831Q366 806 350 790T310 774Z" />
<glyph unicode="&#xd7;" horiz-adv-x="560" d="M120 139L89 170L442 523L473 492L120 139ZM437 141L91 487L125 521L471 175L437 141Z" />
<glyph unicode="&#xd8;" horiz-adv-x="822" d="M148 -48L623 748H675L200 -48H148ZM406 -10Q296 -10 214 35T86 161T40 350Q40 457 87 538T220 664T418 710Q528 710 609 665T736 539T782 349Q782 243 735 162T603 36T406 -10ZM434 32Q509 32 564 65T650 162T681
314Q681 420 643 499T539 623T388 668Q313 668 258 635T172 538T141 386Q141 280 179 201T283 77T434 32Z" />
<glyph unicode="&#xd9;" horiz-adv-x="773" d="M389 -10Q110 -10 110 289V592Q110 634 95 651T41 669L20 670V700H294V670L273 669Q234 668 219 651T204 592V305Q204 39 414 39Q518 39 567 110T617 331V592Q617 634 602 650T544 669L523 670V700H753V670L732 669Q693
668 678 651T663 592V318Q663 149 597 70T389 -10ZM456 748L343 814Q330 822 319 828T297 844Q283 856 282 872T292 903Q303 917 320 918T350 908Q361 899 369 889T388 868L472 768L456 748Z" />
<glyph unicode="&#xda;" horiz-adv-x="773" d="M389 -10Q110 -10 110 289V592Q110 634 95 651T41 669L20 670V700H294V670L273 669Q234 668 219 651T204 592V305Q204 39 414 39Q518 39 567 110T617 331V592Q617 634 602 650T544 669L523 670V700H753V670L732 669Q693
668 678 651T663 592V318Q663 149 597 70T389 -10ZM309 748L293 768L377 868Q387 879 396 889T415 908Q429 920 445 919T473 903Q485 889 484 873T468 844Q458 835 447 829T422 814L309 748Z" />
<glyph unicode="&#xdb;" horiz-adv-x="773" d="M389 -10Q110 -10 110 289V592Q110 634 95 651T41 669L20 670V700H294V670L273 669Q234 668 219 651T204 592V305Q204 39 414 39Q518 39 567 110T617 331V592Q617 634 602 650T544 669L523 670V700H753V670L732 669Q693
668 678 651T663 592V318Q663 149 597 70T389 -10ZM260 771L246 784L358 914H416L528 784L514 771L388 842H386L260 771Z" />
<glyph unicode="&#xdc;" horiz-adv-x="773" d="M389 -10Q110 -10 110 289V592Q110 634 95 651T41 669L20 670V700H294V670L273 669Q234 668 219 651T204 592V305Q204 39 414 39Q518 39 567 110T617 331V592Q617 634 602 650T544 669L523 670V700H753V670L732 669Q693
668 678 651T663 592V318Q663 149 597 70T389 -10ZM487 774Q463 774 447 790T430 831Q430 856 446 871T487 887Q510 887 526 872T543 831Q543 806 527 790T487 774ZM288 774Q264 774 248 790T231 831Q231 856 247 871T288 887Q311 887 327 872T344 831Q344 806
328 790T288 774Z" />
<glyph unicode="&#xdd;" horiz-adv-x="646" d="M174 0V30L205 33Q235 36 251 43T273 64T279 102V316L105 592Q85 625 71 641T40 663T-2 670V670V700H258V670L237 669Q203 667 195 648T209 592L367 333H329L484 589Q506 625 497 646T451 669L430 670V700H641V670V670Q608
668 585 651T536 592L373 328V102Q373 79 379 65T401 43T447 33L478 30V0H174ZM242 748L226 768L310 868Q320 879 329 889T348 908Q362 920 378 919T406 903Q418 889 417 873T401 844Q391 835 380 829T355 814L242 748Z" />
<glyph unicode="&#xde;" horiz-adv-x="592" d="M30 0V30L71 34Q93 36 106 43T124 64T130 102V598Q130 622 125 636T106 657T71 666L30 670V700H334V670L293 667Q267 665 252 658T231 637T224 598V555H317Q436 555 498 510T560 379Q560 314 529 267T441 193T302
166L224 165V102Q224 78 230 64T252 42T293 33L334 30V0H30ZM224 205H274Q332 205 373 224T436 280T458 369Q458 440 421 477T314 515Q258 515 241 508T224 477V205Z" />
<glyph unicode="&#xdf;" horiz-adv-x="672" d="M471 -10Q437 -10 395 -3T326 20V145H356Q367 82 402 55T484 27Q526 27 551 51T577 114Q577 153 556 173T501 213L439 250Q382 284 358 313T333 385Q333 419 349 442T388 484T432 518Q461 540 477 567T493 633Q493
692 454 726T352 761Q277 761 238 716T198 593V104Q198 70 210 56T254 36L285 30V0H28V30L58 35Q89 40 98 51T108 94V460H19V475L45 520H108V546Q108 600 129 647T189 729T277 784T385 804Q435 804 480 789T553 741T582 655Q582 615 567 589T527 543T477 503Q452
484 432 461T412 410Q412 382 432 365T487 328L543 295Q597 264 626 234T656 150Q656 98 629 63T560 9T471 -10Z" />
<glyph unicode="&#xe0;" horiz-adv-x="503" d="M156 -10Q111 -10 86 4T50 41T39 87Q39 121 63 155T144 225T297 294L322 303L325 402Q326 439 302 463T235 488Q201 488 175 465T138 393Q136 383 118 375T69 366Q52 366 43 370T38 388Q54 427 91 459T175 510T268
530Q333 530 374 499T414 412L404 107Q403 68 423 57T502 42V19L467 10Q435 0 417 -3T388 -7Q361 -7 348 5T329 33T321 59H313Q270 17 233 4T156 -10ZM213 56Q249 56 272 67T315 92L321 269L313 266Q241 239 203 213T152 163T138 119Q138 56 213 56ZM558 568L445
634Q432 642 421 648T399 664Q385 676 384 692T394 723Q405 737 422 738T452 728Q463 719 471 709T490 688L574 588L558 568Z" />
<glyph unicode="&#xe1;" horiz-adv-x="503" d="M156 -10Q111 -10 86 4T50 41T39 87Q39 121 63 155T144 225T297 294L322 303L325 402Q326 439 302 463T235 488Q201 488 175 465T138 393Q136 383 118 375T69 366Q52 366 43 370T38 388Q54 427 91 459T175 510T268
530Q333 530 374 499T414 412L404 107Q403 68 423 57T502 42V19L467 10Q435 0 417 -3T388 -7Q361 -7 348 5T329 33T321 59H313Q270 17 233 4T156 -10ZM213 56Q249 56 272 67T315 92L321 269L313 266Q241 239 203 213T152 163T138 119Q138 56 213 56ZM411 568L395
588L479 688Q489 699 498 709T517 728Q531 740 547 739T575 723Q587 709 586 693T570 664Q560 655 549 649T524 634L411 568Z" />
<glyph unicode="&#xe2;" horiz-adv-x="503" d="M156 -10Q111 -10 86 4T50 41T39 87Q39 121 63 155T144 225T297 294L322 303L325 402Q326 439 302 463T235 488Q201 488 175 465T138 393Q136 383 118 375T69 366Q52 366 43 370T38 388Q54 427 91 459T175 510T268
530Q333 530 374 499T414 412L404 107Q403 68 423 57T502 42V19L467 10Q435 0 417 -3T388 -7Q361 -7 348 5T329 33T321 59H313Q270 17 233 4T156 -10ZM213 56Q249 56 272 67T315 92L321 269L313 266Q241 239 203 213T152 163T138 119Q138 56 213 56ZM362 591L348
604L460 734H518L630 604L616 591L490 662H488L362 591Z" />
<glyph unicode="&#xe3;" horiz-adv-x="503" d="M156 -10Q111 -10 86 4T50 41T39 87Q39 121 63 155T144 225T297 294L322 303L325 402Q326 439 302 463T235 488Q201 488 175 465T138 393Q136 383 118 375T69 366Q52 366 43 370T38 388Q54 427 91 459T175 510T268
530Q333 530 374 499T414 412L404 107Q403 68 423 57T502 42V19L467 10Q435 0 417 -3T388 -7Q361 -7 348 5T329 33T321 59H313Q270 17 233 4T156 -10ZM213 56Q249 56 272 67T315 92L321 269L313 266Q241 239 203 213T152 163T138 119Q138 56 213 56ZM78 618L54
623Q66 663 84 685T122 717T163 727Q184 727 202 721T233 709L255 699Q274 691 286 687T311 683Q343 683 360 697T388 731L412 726Q400 687 382 664T344 632T303 622Q282 622 264 628T233 640L211 650Q192 658 180 662T155 666Q124 666 107 652T78 618Z" />
<glyph unicode="&#xe4;" horiz-adv-x="503" d="M156 -10Q111 -10 86 4T50 41T39 87Q39 121 63 155T144 225T297 294L322 303L325 402Q326 439 302 463T235 488Q201 488 175 465T138 393Q136 383 118 375T69 366Q52 366 43 370T38 388Q54 427 91 459T175 510T268
530Q333 530 374 499T414 412L404 107Q403 68 423 57T502 42V19L467 10Q435 0 417 -3T388 -7Q361 -7 348 5T329 33T321 59H313Q270 17 233 4T156 -10ZM213 56Q249 56 272 67T315 92L321 269L313 266Q241 239 203 213T152 163T138 119Q138 56 213 56ZM589 594Q565
594 549 610T532 651Q532 676 548 691T589 707Q612 707 628 692T645 651Q645 626 629 610T589 594ZM390 594Q366 594 350 610T333 651Q333 676 349 691T390 707Q413 707 429 692T446 651Q446 626 430 610T390 594Z" />
<glyph unicode="&#xe5;" horiz-adv-x="503" d="M156 -10Q111 -10 86 4T50 41T39 87Q39 121 63 155T144 225T297 294L322 303L325 402Q326 439 302 463T235 488Q201 488 175 465T138 393Q136 383 118 375T69 366Q52 366 43 370T38 388Q54 427 91 459T175 510T268
530Q333 530 374 499T414 412L404 107Q403 68 423 57T502 42V19L467 10Q435 0 417 -3T388 -7Q361 -7 348 5T329 33T321 59H313Q270 17 233 4T156 -10ZM213 56Q249 56 272 67T315 92L321 269L313 266Q241 239 203 213T152 163T138 119Q138 56 213 56ZM489 575Q443
575 414 603T385 677Q385 721 414 749T489 777Q535 777 564 749T594 677Q594 632 565 604T489 575ZM493 603Q514 603 527 618T540 665Q540 704 526 726T486 749Q465 749 452 733T439 686Q439 647 453 625T493 603Z" />
<glyph unicode="&#xe6;" horiz-adv-x="800" d="M156 -10Q111 -10 86 4T50 41T39 87Q39 121 63 155T144 225T297 294L322 303L325 402Q326 439 302 463T235 488Q201 488 175 465T138 393Q136 383 118 375T69 366Q52 366 43 370T38 388Q54 427 91 459T175 510T268
530Q318 530 354 512T405 460Q440 493 485 511T582 530Q661 530 709 485T757 354Q757 348 757 342T755 324L753 310H410Q410 306 410 303T410 296Q410 229 434 176T504 92T612 61Q647 61 680 73T750 113L770 94Q722 39 673 15T566 -10Q499 -10 447 18T363 95H356Q317
53 283 31T218 -1T156 -10ZM213 56Q249 56 272 67T315 92L321 269L313 266Q241 239 203 213T152 163T138 119Q138 56 213 56ZM414 348H658Q661 368 661 385Q661 435 635 463T560 491Q504 491 465 453T414 348Z" />
<glyph unicode="&#xe7;" horiz-adv-x="510" d="M286 -10Q213 -10 157 24T68 118T36 253Q36 333 71 395T169 494T309 530Q361 530 399 516T459 482T481 444Q481 428 465 418T430 405T401 411L337 468Q324 480 311 484T278 489Q232 489 198 462T146 390T127 288Q127
222 152 171T223 91T327 61Q362 61 396 73T467 113L487 94Q440 39 391 15T286 -10ZM510 -257Q479 -257 458 -247T437 -219Q437 -203 451 -193T481 -191L502 -202Q516 -209 524 -214T539 -220Q553 -220 569 -211T586 -175Q586 -139 556 -122T473 -107L472 -105L564
9L593 1L539 -65Q592 -71 619 -91T647 -152Q647 -180 628 -204T578 -242T510 -257Z" />
<glyph unicode="&#xe8;" horiz-adv-x="517" d="M283 -10Q209 -10 153 24T67 118T36 251Q36 332 71 395T167 494T299 530Q378 530 426 485T474 354Q474 348 474 342T472 324L470 310H111V348H375Q378 368 378 385Q378 435 352 463T277 491Q210 491 169 438T127
296Q127 229 151 176T221 92T329 61Q364 61 397 73T467 113L487 94Q439 39 390 15T283 -10ZM599 568L486 634Q473 642 462 648T440 664Q426 676 425 692T435 723Q446 737 463 738T493 728Q504 719 512 709T531 688L615 588L599 568Z" />
<glyph unicode="&#xe9;" horiz-adv-x="517" d="M283 -10Q209 -10 153 24T67 118T36 251Q36 332 71 395T167 494T299 530Q378 530 426 485T474 354Q474 348 474 342T472 324L470 310H111V348H375Q378 368 378 385Q378 435 352 463T277 491Q210 491 169 438T127
296Q127 229 151 176T221 92T329 61Q364 61 397 73T467 113L487 94Q439 39 390 15T283 -10ZM452 568L436 588L520 688Q530 699 539 709T558 728Q572 740 588 739T616 723Q628 709 627 693T611 664Q601 655 590 649T565 634L452 568Z" />
<glyph unicode="&#xea;" horiz-adv-x="517" d="M283 -10Q209 -10 153 24T67 118T36 251Q36 332 71 395T167 494T299 530Q378 530 426 485T474 354Q474 348 474 342T472 324L470 310H111V348H375Q378 368 378 385Q378 435 352 463T277 491Q210 491 169 438T127
296Q127 229 151 176T221 92T329 61Q364 61 397 73T467 113L487 94Q439 39 390 15T283 -10ZM403 591L389 604L501 734H559L671 604L657 591L531 662H529L403 591Z" />
<glyph unicode="&#xeb;" horiz-adv-x="517" d="M283 -10Q209 -10 153 24T67 118T36 251Q36 332 71 395T167 494T299 530Q378 530 426 485T474 354Q474 348 474 342T472 324L470 310H111V348H375Q378 368 378 385Q378 435 352 463T277 491Q210 491 169 438T127
296Q127 229 151 176T221 92T329 61Q364 61 397 73T467 113L487 94Q439 39 390 15T283 -10ZM630 594Q606 594 590 610T573 651Q573 676 589 691T630 707Q653 707 669 692T686 651Q686 626 670 610T630 594ZM431 594Q407 594 391 610T374 651Q374 676 390 691T431
707Q454 707 470 692T487 651Q487 626 471 610T431 594Z" />
<glyph unicode="&#xec;" horiz-adv-x="287" d="M22 0V30L52 35Q82 40 92 51T102 94V392Q102 424 88 437T24 457V482L178 526H192V94Q192 63 202 52T242 35L272 30V0H22ZM206 568L93 634Q80 642 69 648T47 664Q33 676 32 692T42 723Q53 737 70 738T100 728Q111
719 119 709T138 688L222 588L206 568Z" />
<glyph unicode="&#xed;" horiz-adv-x="287" d="M22 0V30L52 35Q82 40 92 51T102 94V392Q102 424 88 437T24 457V482L178 526H192V94Q192 63 202 52T242 35L272 30V0H22ZM59 568L43 588L127 688Q137 699 146 709T165 728Q179 740 195 739T223 723Q235 709 234 693T218
664Q208 655 197 649T172 634L59 568Z" />
<glyph unicode="&#xee;" horiz-adv-x="287" d="M22 0V30L52 35Q82 40 92 51T102 94V392Q102 424 88 437T24 457V482L178 526H192V94Q192 63 202 52T242 35L272 30V0H22ZM10 591L-4 604L108 734H166L278 604L264 591L138 662H136L10 591Z" />
<glyph unicode="&#xef;" horiz-adv-x="287" d="M22 0V30L52 35Q82 40 92 51T102 94V392Q102 424 88 437T24 457V482L178 526H192V94Q192 63 202 52T242 35L272 30V0H22ZM237 594Q213 594 197 610T180 651Q180 676 196 691T237 707Q260 707 276 692T293 651Q293
626 277 610T237 594ZM38 594Q14 594 -2 610T-19 651Q-19 676 -3 691T38 707Q61 707 77 692T94 651Q94 626 78 610T38 594Z" />
<glyph unicode="&#xf0;" horiz-adv-x="569" d="M280 -10Q207 -10 153 21T68 107T37 234Q37 303 67 358T151 445T277 477Q338 477 382 452T443 388L479 392Q502 366 513 335T525 278Q525 189 495 125T409 25T280 -10ZM293 29Q355 29 395 74T436 211Q436 271 417
323T361 408T267 440Q205 440 165 395T125 257Q125 199 143 147T199 62T293 29ZM525 278L435 353Q432 410 407 472T338 592T238 700T115 780L135 800Q336 713 430 578T525 278ZM177 553L157 578L425 768L445 743L177 553Z" />
<glyph unicode="&#xf1;" horiz-adv-x="624" d="M22 0V30L52 35Q82 40 92 51T102 94V392Q102 424 88 437T24 457V482L175 526H189V453H195Q243 495 284 512T380 530Q451 530 491 495T532 394V94Q532 63 542 52T582 35L612 30V0H362V30L392 35Q422 40 432 51T442
94V364Q442 401 429 424T391 458T325 470Q286 470 255 457T192 414V94Q192 63 202 52T242 35L272 30V0H22ZM156 618L132 623Q144 663 162 685T200 717T241 727Q262 727 280 721T311 709L333 699Q352 691 364 687T389 683Q421 683 438 697T466 731L490 726Q478 687
460 664T422 632T381 622Q360 622 342 628T311 640L289 650Q270 658 258 662T233 666Q202 666 185 652T156 618Z" />
<glyph unicode="&#xf2;" horiz-adv-x="613" d="M306 -10Q226 -10 165 24T70 119T36 260Q36 336 70 397T164 494T306 530Q387 530 448 496T543 402T577 261Q577 185 543 124T449 26T306 -10ZM322 29Q390 29 435 80T480 234Q480 302 459 360T395 455T291 491Q223
491 178 440T133 285Q133 218 154 160T218 65T322 29ZM372 568L259 634Q246 642 235 648T213 664Q199 676 198 692T208 723Q219 737 236 738T266 728Q277 719 285 709T304 688L388 588L372 568Z" />
<glyph unicode="&#xf3;" horiz-adv-x="613" d="M306 -10Q226 -10 165 24T70 119T36 260Q36 336 70 397T164 494T306 530Q387 530 448 496T543 402T577 261Q577 185 543 124T449 26T306 -10ZM322 29Q390 29 435 80T480 234Q480 302 459 360T395 455T291 491Q223
491 178 440T133 285Q133 218 154 160T218 65T322 29ZM225 568L209 588L293 688Q303 699 312 709T331 728Q345 740 361 739T389 723Q401 709 400 693T384 664Q374 655 363 649T338 634L225 568Z" />
<glyph unicode="&#xf4;" horiz-adv-x="613" d="M306 -10Q226 -10 165 24T70 119T36 260Q36 336 70 397T164 494T306 530Q387 530 448 496T543 402T577 261Q577 185 543 124T449 26T306 -10ZM322 29Q390 29 435 80T480 234Q480 302 459 360T395 455T291 491Q223
491 178 440T133 285Q133 218 154 160T218 65T322 29ZM176 591L162 604L274 734H332L444 604L430 591L304 662H302L176 591Z" />
<glyph unicode="&#xf5;" horiz-adv-x="613" d="M306 -10Q226 -10 165 24T70 119T36 260Q36 336 70 397T164 494T306 530Q387 530 448 496T543 402T577 261Q577 185 543 124T449 26T306 -10ZM322 29Q390 29 435 80T480 234Q480 302 459 360T395 455T291 491Q223
491 178 440T133 285Q133 218 154 160T218 65T322 29ZM148 618L124 623Q136 663 154 685T192 717T233 727Q254 727 272 721T303 709L325 699Q344 691 356 687T381 683Q413 683 430 697T458 731L482 726Q470 687 452 664T414 632T373 622Q352 622 334 628T303 640L281
650Q262 658 250 662T225 666Q194 666 177 652T148 618Z" />
<glyph unicode="&#xf6;" horiz-adv-x="613" d="M306 -10Q226 -10 165 24T70 119T36 260Q36 336 70 397T164 494T306 530Q387 530 448 496T543 402T577 261Q577 185 543 124T449 26T306 -10ZM322 29Q390 29 435 80T480 234Q480 302 459 360T395 455T291 491Q223
491 178 440T133 285Q133 218 154 160T218 65T322 29ZM403 594Q379 594 363 610T346 651Q346 676 362 691T403 707Q426 707 442 692T459 651Q459 626 443 610T403 594ZM204 594Q180 594 164 610T147 651Q147 676 163 691T204 707Q227 707 243 692T260 651Q260 626
244 610T204 594Z" />
<glyph unicode="&#xf7;" horiz-adv-x="560" d="M41 309V353H519V309H41ZM286 131Q264 131 248 146T231 186Q231 210 247 225T286 240Q308 240 324 225T341 186Q341 162 325 147T286 131ZM286 431Q264 431 248 446T231 486Q231 510 247 525T286 540Q308 540 324
525T341 486Q341 462 325 447T286 431Z" />
<glyph unicode="&#xf8;" horiz-adv-x="613" d="M88 -48L478 570H526L136 -48H88ZM306 -9Q226 -9 165 25T70 120T36 261Q36 337 70 398T164 495T306 531Q387 531 448 497T543 403T577 262Q577 186 543 125T449 27T306 -9ZM322 30Q390 30 435 81T480 235Q480 303
459 361T395 456T291 492Q223 492 178 441T133 286Q133 219 154 161T218 66T322 30Z" />
<glyph unicode="&#xf9;" horiz-adv-x="608" d="M239 -10Q169 -10 129 26T88 126V420Q88 453 73 466T15 483V508L161 528H178V156Q178 119 190 96T229 62T296 50Q334 50 364 64T423 111V420Q423 453 408 466T345 483V508L496 528H513V126Q513 92 528 80T593 61V61V34L440
-2H426V67H420Q372 25 332 8T239 -10ZM367 568L254 634Q241 642 230 648T208 664Q194 676 193 692T203 723Q214 737 231 738T261 728Q272 719 280 709T299 688L383 588L367 568Z" />
<glyph unicode="&#xfa;" horiz-adv-x="608" d="M239 -10Q169 -10 129 26T88 126V420Q88 453 73 466T15 483V508L161 528H178V156Q178 119 190 96T229 62T296 50Q334 50 364 64T423 111V420Q423 453 408 466T345 483V508L496 528H513V126Q513 92 528 80T593 61V61V34L440
-2H426V67H420Q372 25 332 8T239 -10ZM476 568L460 588L544 688Q554 699 563 709T582 728Q596 740 612 739T640 723Q652 709 651 693T635 664Q625 655 614 649T589 634L476 568Z" />
<glyph unicode="&#xfb;" horiz-adv-x="608" d="M239 -10Q169 -10 129 26T88 126V420Q88 453 73 466T15 483V508L161 528H178V156Q178 119 190 96T229 62T296 50Q334 50 364 64T423 111V420Q423 453 408 466T345 483V508L496 528H513V126Q513 92 528 80T593 61V61V34L440
-2H426V67H420Q372 25 332 8T239 -10ZM171 591L157 604L269 734H327L439 604L425 591L299 662H297L171 591Z" />
<glyph unicode="&#xfc;" horiz-adv-x="608" d="M239 -10Q169 -10 129 26T88 126V420Q88 453 73 466T15 483V508L161 528H178V156Q178 119 190 96T229 62T296 50Q334 50 364 64T423 111V420Q423 453 408 466T345 483V508L496 528H513V126Q513 92 528 80T593 61V61V34L440
-2H426V67H420Q372 25 332 8T239 -10ZM398 594Q374 594 358 610T341 651Q341 676 357 691T398 707Q421 707 437 692T454 651Q454 626 438 610T398 594ZM199 594Q175 594 159 610T142 651Q142 676 158 691T199 707Q222 707 238 692T255 651Q255 626 239 610T199
594Z" />
<glyph unicode="&#xfd;" horiz-adv-x="550" d="M81 -247V-232L258 23L84 412Q68 447 51 465T12 487L-5 490V520H243V490L218 488Q147 482 177 412L315 87L286 86L407 391Q427 440 416 462T369 488L348 490V520H556V490L535 487Q518 485 506 477T483 450T456 395L184
-247H81ZM454 568L438 588L522 688Q532 699 541 709T560 728Q574 740 590 739T618 723Q630 709 629 693T613 664Q603 655 592 649T567 634L454 568Z" />
<glyph unicode="&#xfe;" horiz-adv-x="606" d="M-6 -247V-217L24 -212Q55 -207 64 -196T74 -153V666Q74 698 60 711T-4 731V756L150 800H164V453H170Q197 480 223 497T277 522T337 530Q406 530 458 498T540 408T570 275Q570 192 534 128T434 27T291 -10Q257 -10
225 -3T164 19V-143Q164 -177 176 -192T219 -211L264 -217V-247H-6ZM306 28Q386 28 431 82T476 236Q476 305 455 356T393 436T297 465Q260 465 226 452T164 413V183Q164 135 180 101T227 47T306 28Z" />
<glyph unicode="&#xff;" horiz-adv-x="550" d="M81 -247V-232L258 23L84 412Q68 447 51 465T12 487L-5 490V520H243V490L218 488Q147 482 177 412L315 87L286 86L407 391Q427 440 416 462T369 488L348 490V520H556V490L535 487Q518 485 506 477T483 450T456 395L184
-247H81ZM632 594Q608 594 592 610T575 651Q575 676 591 691T632 707Q655 707 671 692T688 651Q688 626 672 610T632 594ZM433 594Q409 594 393 610T376 651Q376 676 392 691T433 707Q456 707 472 692T489 651Q489 626 473 610T433 594Z" />
<glyph unicode="&#x2013;" horiz-adv-x="562" d="M42 309V353H520V309H42Z" />
<glyph unicode="&#x2014;" horiz-adv-x="1064" d="M42 309V353H1022V309H42Z" />
<glyph unicode="&#x2018;" horiz-adv-x="218" d="M110 454Q78 454 59 477T39 542Q39 589 68 633T160 710L177 686Q123 654 105 622T86 551L63 509Q63 533 78 548T117 564Q140 564 155 549T171 510Q171 486 154 470T110 454Z" />
<glyph unicode="&#x2019;" horiz-adv-x="218" d="M64 454L47 478Q101 510 119 542T138 613L161 655Q161 631 146 616T107 600Q85 600 69 615T53 654Q53 678 70 694T114 710Q146 710 165 687T185 622Q185 576 156 532T64 454Z" />
<glyph unicode="&#x201a;" horiz-adv-x="220" d="M57 -156L40 -132Q94 -100 112 -68T131 3L154 45Q154 21 139 6T100 -10Q78 -10 62 5T46 44Q46 68 63 84T107 100Q139 100 158 77T178 12Q178 -34 149 -78T57 -156Z" />
<glyph unicode="&#x201c;" horiz-adv-x="387" d="M279 454Q247 454 228 477T208 542Q208 589 237 633T329 710L346 686Q292 654 274 622T255 551L232 509Q232 533 247 548T286 564Q309 564 324 549T340 510Q340 486 323 470T279 454ZM110 454Q78 454 59 477T39
542Q39 589 68 633T160 710L177 686Q123 654 105 622T86 551L63 509Q63 533 78 548T117 564Q140 564 155 549T171 510Q171 486 154 470T110 454Z" />
<glyph unicode="&#x201d;" horiz-adv-x="387" d="M233 454L216 478Q270 510 288 542T307 613L330 655Q330 631 315 616T276 600Q254 600 238 615T222 654Q222 678 239 694T283 710Q315 710 334 687T354 622Q354 576 325 532T233 454ZM64 454L47 478Q101 510 119
542T138 613L161 655Q161 631 146 616T107 600Q85 600 69 615T53 654Q53 678 70 694T114 710Q146 710 165 687T185 622Q185 576 156 532T64 454Z" />
<glyph unicode="&#x201e;" horiz-adv-x="389" d="M226 -156L209 -132Q263 -100 281 -68T300 3L323 45Q323 21 308 6T269 -10Q247 -10 231 5T215 44Q215 68 232 84T276 100Q308 100 327 77T347 12Q347 -34 318 -78T226 -156ZM57 -156L40 -132Q94 -100 112 -68T131
3L154 45Q154 21 139 6T100 -10Q78 -10 62 5T46 44Q46 68 63 84T107 100Q139 100 158 77T178 12Q178 -34 149 -78T57 -156Z" />
<glyph unicode="&#x2022;" horiz-adv-x="387" d="M194 238Q145 238 111 270T77 355Q77 406 111 438T194 471Q242 471 275 439T309 355Q309 303 276 271T194 238Z" />
<glyph unicode="&#x2039;" horiz-adv-x="432" d="M378 0Q318 61 267 104T163 181T42 247V273Q109 305 162 338T266 415T378 520L400 503Q352 439 314 397T241 324T162 260Q208 225 244 193T317 120T400 16L378 0Z" />
<glyph unicode="&#x203a;" horiz-adv-x="432" d="M54 0L32 16Q78 78 114 119T188 193T270 260Q227 293 192 324T119 397T32 503L54 520Q115 459 166 416T270 339T390 273V247Q323 215 270 181T165 104T54 0Z" />
</font>
</defs>
</svg>
