<?xml version="1.0" standalone="no"?>
<!DOCTYPE svg PUBLIC "-//W3C//DTD SVG 1.1//EN" "http://www.w3.org/Graphics/SVG/1.1/DTD/svg11.dtd">
<svg xmlns="http://www.w3.org/2000/svg">
<defs >
<font id="Mingzat" horiz-adv-x="715" ><font-face
    font-family="Mingzat"
    units-per-em="1000"
    panose-1="2 0 0 0 0 0 0 0 0 0"
    ascent="1427"
    descent="-670"
    alphabetic="0" />
<glyph unicode=" " glyph-name="space" horiz-adv-x="500" />
<glyph unicode="!" glyph-name="exclam" horiz-adv-x="405" d="M172 169L149 722H255L232 169H172ZM149 0V95H249V0H149Z" />
<glyph unicode="&quot;" glyph-name="quotedbl" horiz-adv-x="472" d="M309 434L286 722H392L369 434H309ZM103 434L80 722H186L163 434H103Z" />
<glyph unicode="#" glyph-name="numbersign" horiz-adv-x="760" d="M127 0L199 239H57L78 308H220L262 444H121L142 513H283L347 722H422L357 513H488L552 722H626L562 513H703L682 444H540L498 308H639L618 239H477L406 0H332L403 239H273L201 0H127ZM293 308H425L467
444H336L293 308Z" />
<glyph unicode="$" glyph-name="dollar" horiz-adv-x="569" d="M261 -104V-14Q152 -14 94 47Q40 106 40 209H141Q141 73 261 73V322Q149 350 112 377Q49 422 49 522Q49 607 104 660T261 714V795H312V715Q408 715 457 657Q500 607 500 524H399Q399 583 381 605T312
627V408Q413 385 446 366Q529 315 529 195Q529 -1 312 -13V-104H261ZM312 74Q373 75 400 99T427 187Q427 259 394 286Q376 301 312 317V74ZM261 420V627Q187 627 164 592Q151 573 151 519Q151 464 179 446Q187 441 261 420Z" />
<glyph unicode="%" glyph-name="percent" horiz-adv-x="942" d="M228 -14L654 736H723L297 -14H228ZM235 342Q157 342 109 390Q57 441 57 534Q57 627 109 678Q157 726 235 726Q313 726 362 678Q414 627 414 534Q414 441 364 392T235 342ZM235 408Q328 408 328
534Q328 661 235 661Q142 661 142 534Q142 408 235 408ZM706 -4Q628 -4 580 44Q528 95 528 188Q528 281 580 332Q628 380 706 380Q784 380 833 332Q885 281 885 188Q885 95 835 46T706 -4ZM706 62Q799 62 799 188Q799 315 706 315Q613 315 613 188Q613 62 706 62Z"
/>
<glyph unicode="&amp;" glyph-name="ampersand" horiz-adv-x="777" d="M314 -13Q213 -13 142 47Q69 110 69 207Q69 295 120 350Q152 386 227 421Q208 444 195 461T175 489Q148 536 148 578Q148 649 203 694Q254 736 328 736Q408 736 459 698T510 598Q510 532 456
479Q426 451 354 411Q376 383 423 333T543 209Q562 270 562 314Q562 319 560 346T554 422H660Q660 343 654 299Q644 218 606 146Q630 118 668 82T760 0H626Q617 7 598 25T548 71Q445 -13 314 -13ZM317 72Q429 72 496 132Q443 178 388 236T274 364Q246 358 222 334T183
277T168 210Q168 166 210 122Q257 72 317 72ZM305 464Q355 487 377 503Q391 514 402 528T421 559Q428 573 428 589Q428 619 402 640T340 661Q247 661 247 585Q247 534 305 464Z" />
<glyph unicode="&apos;" glyph-name="quotesingle" horiz-adv-x="405" d="M172 434L149 722H255L232 434H172Z" />
<glyph unicode="(" glyph-name="parenleft" horiz-adv-x="384" d="M216 -132Q103 74 103 302Q103 530 216 736H280Q198 506 198 302Q198 99 280 -132H216Z" />
<glyph unicode=")" glyph-name="parenright" horiz-adv-x="384" d="M104 -132Q186 99 186 302Q186 506 104 736H168Q281 530 281 302Q281 74 168 -132H104Z" />
<glyph unicode="*" glyph-name="asterisk" horiz-adv-x="689" d="M281 335L208 375L309 509L144 488V570L309 549L208 683L281 722L345 576L409 722L481 683L380 549L545 570V488L380 509L481 375L409 335L345 482L281 335Z" />
<glyph unicode="+" glyph-name="plus" horiz-adv-x="1054" d="M496 0V269H227V331H496V600H558V331H827V269H558V0H496Z" />
<glyph unicode="," glyph-name="comma" horiz-adv-x="288" d="M54 -127L114 123H234L124 -127H54Z" />
<glyph unicode="-" glyph-name="hyphen" horiz-adv-x="332" d="M46 203V285H286V203H46Z" />
<glyph unicode="." glyph-name="period" horiz-adv-x="299" d="M111 0V123H219V0H111Z" />
<glyph unicode="/" glyph-name="slash" horiz-adv-x="407" d="M51 -52L287 736H356L120 -52H51Z" />
<glyph unicode="0" glyph-name="zero" horiz-adv-x="573" d="M287 -14Q149 -14 95 117Q57 208 57 375Q57 536 95 620Q148 736 287 736Q426 736 479 620Q516 539 516 375Q516 206 479 117Q425 -14 287 -14ZM287 70Q366 70 397 164Q419 231 419 375Q419 513 397
572Q367 652 287 652Q206 652 176 572Q154 513 154 375Q154 231 176 164Q207 70 287 70Z" />
<glyph unicode="1" glyph-name="one" horiz-adv-x="602" d="M304 0V602Q280 583 256 566Q196 528 148 519V602Q238 632 297 722H397V0H304Z" />
<glyph unicode="2" glyph-name="two" horiz-adv-x="577" d="M71 0V93Q290 259 364 379Q406 447 406 526Q406 591 381 622T296 653Q196 653 183 526H81Q98 736 296 736Q396 736 454 672Q506 617 506 540Q506 439 461 362Q391 245 181 78H506V0H71Z" />
<glyph unicode="3" glyph-name="three" horiz-adv-x="569" d="M281 -14Q168 -14 105 51Q51 107 51 190H157Q169 63 284 63Q318 63 348 80T398 125T418 185Q418 269 384 302T271 336V416Q346 416 376 446T406 553Q406 609 362 638Q328 659 281 659Q190 659 167
534H66Q91 736 279 736Q347 736 398 711T477 644T506 546Q506 429 431 379Q453 365 467 352T489 327Q518 280 518 193Q518 134 488 87T404 13T281 -14Z" />
<glyph unicode="4" glyph-name="four" horiz-adv-x="567" d="M351 0V176H34V281L334 722H444V259H533V176H444V0H351ZM114 259H351V612L114 259Z" />
<glyph unicode="5" glyph-name="five" horiz-adv-x="573" d="M297 -13Q186 -13 123 37T60 176H165Q165 122 198 95T286 67Q331 69 358 95T399 159T412 235Q412 406 294 406Q204 406 161 302H71L84 722H467V639H182L170 412Q199 450 236 465T316 480Q385 477 428
442T491 352T513 237Q511 192 494 148T449 67T381 9T297 -13Z" />
<glyph unicode="6" glyph-name="six" horiz-adv-x="569" d="M293 -14Q140 -14 90 78Q52 148 52 343Q52 736 296 736Q391 736 440 689Q485 646 497 550H401Q394 659 294 659Q194 659 162 507Q149 443 150 354Q189 405 206 418Q243 446 304 446Q427 446 481 362Q517
305 517 216Q517 129 474 68Q416 -14 293 -14ZM289 63Q415 63 415 216Q415 369 289 369Q162 369 162 216Q162 63 289 63Z" />
<glyph unicode="7" glyph-name="seven" horiz-adv-x="573" d="M164 0L419 642H64V722H509V622L274 0H164Z" />
<glyph unicode="8" glyph-name="eight" horiz-adv-x="571" d="M287 -13Q194 -13 129 31Q49 84 49 185Q49 321 186 383Q71 438 71 559Q71 644 141 693Q202 736 287 736Q373 736 432 693Q502 644 502 559Q502 438 384 383Q523 322 523 185Q523 83 444 31Q379 -13
287 -13ZM287 64Q426 64 426 205Q426 267 389 305T287 343Q221 343 183 305T144 205Q144 64 287 64ZM287 420Q339 420 375 453T411 539Q411 595 379 627T287 659Q228 659 196 627T163 539Q163 486 199 453T287 420Z" />
<glyph unicode="9" glyph-name="nine" horiz-adv-x="569" d="M273 -14Q178 -14 129 33Q84 76 72 172H168Q175 63 275 63Q376 63 407 216Q421 279 419 368Q380 317 363 304Q326 276 265 276Q142 276 88 360Q52 417 52 506Q52 593 95 654Q153 736 276 736Q430 736
479 645Q517 574 517 379Q517 -14 273 -14ZM280 353Q407 353 407 506Q407 659 280 659Q154 659 154 506Q154 353 280 353Z" />
<glyph unicode=":" glyph-name="colon" horiz-adv-x="299" d="M111 377V500H219V377H111ZM111 0V123H219V0H111Z" />
<glyph unicode=";" glyph-name="semicolon" horiz-adv-x="288" d="M54 -127L114 123H234L124 -127H54ZM104 377V500H212V377H104Z" />
<glyph unicode="&lt;" glyph-name="less" horiz-adv-x="1054" d="M827 39L227 269V331L827 561V499L291 300L827 101V39Z" />
<glyph unicode="=" glyph-name="equal" horiz-adv-x="1054" d="M227 360V422H827V360H227ZM227 178V240H827V178H227Z" />
<glyph unicode="&gt;" glyph-name="greater" horiz-adv-x="1054" d="M227 39V101L763 300L227 499V561L827 331V269L227 39Z" />
<glyph unicode="?" glyph-name="question" horiz-adv-x="527" d="M182 165V293Q182 322 229 363Q267 395 288 415T317 442Q364 497 364 558Q364 597 328 620T239 642Q185 641 161 631Q122 614 94 563L28 605Q96 736 237 736Q327 736 392 689Q463 638 463 555Q463
494 411 436Q406 430 382 409T314 352Q262 307 262 277V165H182ZM172 0V95H272V0H172Z" />
<glyph unicode="@" glyph-name="at" horiz-adv-x="1018" d="M528 -178Q333 -178 215 -81Q69 39 69 290Q69 485 203 605Q326 716 500 716Q708 716 826 610Q949 501 949 298Q949 186 892 105Q834 21 748 21Q659 21 615 116Q566 26 465 26Q415 26 375 57T311 140T287
259Q287 331 310 383T373 463T465 492Q529 492 560 471Q571 460 583 449T606 426V485H696V149Q708 104 754 108Q782 101 812 138Q852 188 852 298Q852 626 508 626Q372 626 280 555Q165 467 165 291Q165 111 253 14Q345 -88 519 -88Q620 -88 690 -69V-152Q612 -178
528 -178ZM492 95Q544 95 575 149Q602 197 602 266Q602 333 576 376Q546 422 492 422Q437 422 408 375Q382 332 382 266Q382 95 492 95Z" />
<glyph unicode="A" glyph-name="A" horiz-adv-x="754" d="M17 0L320 722H430L737 0H631L553 193H199L120 0H17ZM238 278H511L373 611L238 278Z" />
<glyph unicode="B" glyph-name="B" horiz-adv-x="694" d="M92 0V722H382Q476 722 534 679Q599 631 599 544Q599 430 476 385Q625 338 625 201Q625 145 595 99T516 27T408 0H92ZM193 87H350Q429 87 478 122T528 212Q528 337 345 337H193V87ZM193 420H350Q506 420
506 530Q506 635 352 635H193V420Z" />
<glyph unicode="C" glyph-name="C" horiz-adv-x="698" d="M366 -14Q209 -14 134 98Q69 193 69 356Q69 522 133 619Q210 736 368 736Q498 736 565 675Q625 620 625 529H524Q524 657 369 657Q171 657 171 356Q171 201 222 130Q269 67 365 67Q528 67 528 193H629Q629
105 560 46Q488 -14 366 -14Z" />
<glyph unicode="D" glyph-name="D" horiz-adv-x="741" d="M92 0V722H317Q506 722 597 611Q672 518 672 362Q672 211 597 116Q505 0 317 0H92ZM193 87H319Q437 87 505 159T573 362Q573 493 506 564T319 635H193V87Z" />
<glyph unicode="E" glyph-name="E" horiz-adv-x="629" d="M92 0V722H539V635H193V413H529V326H193V87H549V0H92Z" />
<glyph unicode="F" glyph-name="F" horiz-adv-x="592" d="M92 0V722H512V635H193V413H492V326H193V0H92Z" />
<glyph unicode="G" glyph-name="G" horiz-adv-x="780" d="M426 -14Q69 -14 69 390Q69 538 162 635Q260 736 418 736Q547 736 627 668Q694 611 694 542H593Q593 578 548 611Q496 649 427 649Q298 649 232 574Q172 507 172 388Q172 252 225 170Q287 74 415 74Q508
74 589 98V298H425V385H690V36Q554 -14 426 -14Z" />
<glyph unicode="H" glyph-name="H" horiz-adv-x="733" d="M92 0V722H193V413H540V722H641V0H540V326H193V0H92Z" />
<glyph unicode="I" glyph-name="I" horiz-adv-x="285" d="M92 0V722H193V0H92Z" />
<glyph unicode="J" glyph-name="J" horiz-adv-x="590" d="M277 -14Q215 -14 168 12T95 86T69 194H167Q170 74 282 74Q330 74 362 109Q397 147 397 215V722H498V215Q498 147 470 96T393 15T277 -14Z" />
<glyph unicode="K" glyph-name="K" horiz-adv-x="680" d="M92 0V722H193V415L491 722H615L308 411L652 0H517L193 381V0H92Z" />
<glyph unicode="L" glyph-name="L" horiz-adv-x="546" d="M92 0V722H193V87H512V0H92Z" />
<glyph unicode="M" glyph-name="M" horiz-adv-x="922" d="M92 0V722H251L460 140L671 722H830V0H729V627L500 0H420L193 622V0H92Z" />
<glyph unicode="N" glyph-name="N" horiz-adv-x="747" d="M92 0V722H235L554 130V722H655V0H511L193 592V0H92Z" />
<glyph unicode="O" glyph-name="O" horiz-adv-x="792" d="M397 -14Q237 -14 149 104Q69 211 69 375Q69 536 149 633Q236 736 397 736Q558 736 643 633Q723 536 723 375Q723 211 643 104Q555 -14 397 -14ZM397 74Q519 74 574 168Q620 244 620 375Q620 649 397 649Q172
649 172 375Q172 245 219 168Q276 74 397 74Z" />
<glyph unicode="P" glyph-name="P" horiz-adv-x="644" d="M92 0V722H296Q424 722 488 686Q575 637 575 514Q575 392 488 342Q424 306 296 306H193V0H92ZM193 394H299Q392 394 435 421T478 514Q478 580 435 607T299 635H193V394Z" />
<glyph unicode="Q" glyph-name="Q" horiz-adv-x="798" d="M397 -14Q237 -14 149 104Q69 211 69 375Q69 536 149 633Q236 736 397 736Q558 736 643 633Q723 536 723 375Q723 168 615 69H764V0H493Q465 -7 441 -10T397 -14ZM397 74Q519 74 574 168Q620 244 620 375Q620
649 397 649Q172 649 172 375Q172 245 219 168Q276 74 397 74Z" />
<glyph unicode="R" glyph-name="R" horiz-adv-x="647" d="M92 0V722H321Q453 722 514 679Q581 633 581 525Q581 434 446 369Q457 365 466 361T484 352Q526 326 539 292Q544 281 549 251T561 171Q568 119 577 77T599 0H497Q488 54 464 174Q442 282 411 307Q384
328 281 328H193V0H92ZM193 415H318Q480 415 480 525Q480 635 318 635H193V415Z" />
<glyph unicode="S" glyph-name="S" horiz-adv-x="680" d="M308 -14Q238 -14 184 14T100 94T69 215H171Q171 176 188 144T236 93T305 74Q510 74 510 193Q510 286 398 316Q346 327 295 339T191 363Q79 408 79 538Q79 627 160 685Q232 736 325 736Q435 736 502 693Q582
643 582 540H481Q482 606 429 632Q392 649 319 649Q180 649 180 535Q180 459 292 431Q344 418 395 405T499 377Q611 326 611 201Q611 86 512 30Q432 -14 308 -14Z" />
<glyph unicode="T" glyph-name="T" horiz-adv-x="619" d="M259 0V635H23V722H596V635H360V0H259Z" />
<glyph unicode="U" glyph-name="U" horiz-adv-x="761" d="M380 -14Q279 -14 215 20T122 128T92 322V722H193V322Q193 175 249 117Q291 74 380 74Q469 74 511 116Q568 173 568 322V722H669V322Q669 202 639 128T546 20T380 -14Z" />
<glyph unicode="V" glyph-name="V" horiz-adv-x="658" d="M274 0L17 722H130L329 130L528 722H641L384 0H274Z" />
<glyph unicode="W" glyph-name="W" horiz-adv-x="976" d="M231 0L17 722H123L276 150L428 722H548L700 150L853 722H959L745 0H655L488 602L321 0H231Z" />
<glyph unicode="X" glyph-name="X" horiz-adv-x="710" d="M28 0L293 385L62 722H190L362 456L529 722H647L416 385L682 0H554L348 314L146 0H28Z" />
<glyph unicode="Y" glyph-name="Y" horiz-adv-x="670" d="M284 0V287L17 722H140L341 375L539 722H653L385 287V0H284Z" />
<glyph unicode="Z" glyph-name="Z" horiz-adv-x="628" d="M51 0V110L457 635H71V722H567V612L161 87H577V0H51Z" />
<glyph unicode="[" glyph-name="bracketleft" horiz-adv-x="425" d="M120 -198V722H306V671H206V-147H306V-198H120Z" />
<glyph unicode="\" glyph-name="backslash" horiz-adv-x="407" d="M287 -52L51 736H120L356 -52H287Z" />
<glyph unicode="]" glyph-name="bracketright" horiz-adv-x="425" d="M120 -198V-147H219V671H120V722H306V-198H120Z" />
<glyph unicode="^" glyph-name="asciicircum" horiz-adv-x="490" d="M57 415L223 775H267L433 415H388L245 737L102 415H57Z" />
<glyph unicode="_" glyph-name="underscore" horiz-adv-x="557" d="M0 -365V-288H557V-365H0Z" />
<glyph unicode="`" glyph-name="grave" horiz-adv-x="235" d="M112 600L-28 771H73L173 600H112Z" />
<glyph unicode="a" glyph-name="a" horiz-adv-x="565" d="M246 -13Q175 -13 119 23Q55 63 55 132Q55 235 146 281Q216 316 326 316Q338 316 361 315T395 314Q399 330 399 348Q399 446 287 446Q241 446 212 429Q175 408 175 365H82Q82 513 283 513Q443 513 476
428Q487 398 487 270V183Q487 35 500 0H410Q408 11 405 29T399 73Q380 51 365 35T337 11Q300 -13 246 -13ZM247 54Q333 54 367 111Q394 155 394 246Q354 249 342 249Q275 249 221 229Q148 202 148 144Q148 104 178 78Q205 54 247 54Z" />
<glyph unicode="b" glyph-name="b" horiz-adv-x="607" d="M339 -13Q242 -13 170 59V0H80V722H167V431Q221 513 336 513Q447 513 505 426Q550 359 550 271Q550 140 482 60Q422 -13 339 -13ZM311 54Q352 54 384 79T435 152T454 262Q454 346 423 396Q385 455 314
455Q245 455 204 395Q168 341 168 262Q168 54 311 54Z" />
<glyph unicode="c" glyph-name="c" horiz-adv-x="535" d="M278 -13Q57 -13 57 250Q57 383 107 448T269 513Q370 513 424 471Q474 432 474 364Q474 359 474 354T473 343H384Q385 348 385 353T386 362Q386 445 262 445Q147 445 147 250Q147 55 279 55Q336 55 366
95Q389 127 389 169H478Q478 91 434 44Q382 -13 278 -13Z" />
<glyph unicode="d" glyph-name="d" horiz-adv-x="608" d="M289 -13Q199 -13 130 59Q57 133 57 240Q57 349 103 422Q158 513 264 513Q389 513 438 435V722H528V0H438V57Q371 -13 289 -13ZM293 59Q362 59 402 120Q435 173 435 246Q435 302 415 349T360 424T281 453Q214
453 179 387Q149 332 149 252Q149 199 167 155T218 85T293 59Z" />
<glyph unicode="e" glyph-name="e" horiz-adv-x="571" d="M286 -13Q170 -13 109 75Q57 148 57 250Q57 358 108 428Q169 513 292 513Q421 513 476 428Q514 369 514 283Q514 257 511 236H154Q154 152 185 106Q220 52 287 52Q349 52 383 89Q410 119 414 159H511Q504
128 491 101T458 52Q396 -13 286 -13ZM154 301H414Q415 307 415 313T416 325Q416 379 387 411Q354 449 288 449Q173 449 154 301Z" />
<glyph unicode="f" glyph-name="f" horiz-adv-x="331" d="M111 0V435H11V500H111V575Q111 628 125 664Q136 687 152 702Q157 706 162 709T172 715Q180 719 189 722T209 728Q222 730 236 731T266 732Q304 732 331 722V648Q308 659 282 660Q245 662 231 654Q224
650 221 647T210 631Q201 612 201 573V500H321V435H201V0H111Z" />
<glyph unicode="g" glyph-name="g" horiz-adv-x="607" d="M283 -198Q175 -198 121 -137Q82 -93 82 -40H176Q176 -88 216 -113Q251 -136 300 -136Q372 -136 403 -87Q437 -35 437 93Q370 14 278 14Q57 14 57 267Q57 338 84 393T159 481T269 513Q351 513 392 490Q412
480 437 445V500H527V30Q527 -71 465 -133Q398 -198 283 -198ZM290 78Q366 78 403 135Q435 185 435 265Q435 449 285 449Q150 449 150 267Q150 180 186 129T290 78Z" />
<glyph unicode="h" glyph-name="h" horiz-adv-x="593" d="M80 0V722H170V437Q216 513 327 513Q426 513 469 465T513 311V0H423V315Q423 380 389 417Q361 448 318 448Q251 448 208 411Q170 379 170 341V0H80Z" />
<glyph unicode="i" glyph-name="i" horiz-adv-x="246" d="M78 0V500H168V0H78ZM75 630V722H171V630H75Z" />
<glyph unicode="j" glyph-name="j" horiz-adv-x="291" d="M97 -211Q67 -211 30 -197Q-10 -182 -34 -158L23 -101Q48 -132 83 -132Q123 -132 123 -50V500H213V-80Q213 -211 97 -211ZM120 630V722H216V630H120Z" />
<glyph unicode="k" glyph-name="k" horiz-adv-x="512" d="M80 0V722H170V292L360 500H473L273 282L489 0H370L170 267V0H80Z" />
<glyph unicode="l" glyph-name="l" horiz-adv-x="250" d="M80 0V722H170V0H80Z" />
<glyph unicode="m" glyph-name="m" horiz-adv-x="916" d="M80 0V500H170V431Q230 513 319 513Q387 513 427 491Q460 472 489 424Q552 513 651 513Q836 513 836 323V0H746V323Q746 449 633 449Q581 449 542 406Q505 368 505 323V0H415V323Q415 374 385 411T304
449Q268 449 238 430T189 381T170 323V0H80Z" />
<glyph unicode="n" glyph-name="n" horiz-adv-x="594" d="M80 0V500H170V436Q181 447 192 458T213 481Q253 513 322 513Q514 513 514 329V0H425V331Q425 365 408 392T364 436T302 453Q266 453 236 437T188 391T170 323V0H80Z" />
<glyph unicode="o" glyph-name="o" horiz-adv-x="606" d="M303 -13Q196 -13 129 52Q57 123 57 250Q57 379 129 449Q194 513 303 513Q410 513 477 449Q549 379 549 250Q549 123 477 52Q409 -13 303 -13ZM303 52Q377 52 419 116Q455 172 455 250Q455 330 419 385Q377
449 303 449Q229 449 187 385Q151 330 151 250Q151 172 187 116Q227 52 303 52Z" />
<glyph unicode="p" glyph-name="p" horiz-adv-x="616" d="M80 -198V500H170V437Q252 513 328 513Q449 513 507 437Q559 370 559 250Q559 130 507 63Q448 -14 328 -14Q254 -14 170 52V-198H80ZM316 51Q390 51 429 112Q463 164 463 250Q463 336 429 388Q390 449
316 449Q242 449 203 388Q169 336 169 250Q169 164 203 112Q242 51 316 51Z" />
<glyph unicode="q" glyph-name="q" horiz-adv-x="616" d="M446 -198V52Q362 -14 288 -14Q168 -14 109 63Q57 130 57 250Q57 370 109 437Q167 513 288 513Q364 513 446 437V500H536V-198H446ZM300 51Q374 51 413 112Q447 164 447 250Q447 336 413 388Q374 449 300
449Q226 449 187 388Q153 336 153 250Q153 164 187 112Q226 51 300 51Z" />
<glyph unicode="r" glyph-name="r" horiz-adv-x="376" d="M80 0V500H170V432Q191 468 223 482Q264 500 353 500V420Q170 420 170 280V0H80Z" />
<glyph unicode="s" glyph-name="s" horiz-adv-x="517" d="M242 -13Q57 -13 57 145H149Q151 52 253 52Q300 52 331 74Q368 98 368 140Q368 190 290 209Q153 244 147 246Q69 284 69 375Q69 432 109 469Q159 513 257 513Q347 513 391 485Q446 451 446 366H354Q354
449 255 449Q216 449 189 429T161 375Q161 324 239 303Q274 293 310 284T382 266Q460 232 460 147Q460 63 391 21Q335 -13 242 -13Z" />
<glyph unicode="t" glyph-name="t" horiz-adv-x="358" d="M235 -14Q179 -14 152 16T124 131V436H34V500H124V599L214 636V500H324V436H214V131Q214 56 265 56Q282 56 297 58T324 64V0Q306 -6 284 -10T235 -14Z" />
<glyph unicode="u" glyph-name="u" horiz-adv-x="593" d="M271 -13Q80 -13 80 171V500H170V169Q170 135 186 108T231 64T291 48Q328 48 357 64T405 110T423 178V500H513V0H423V64Q373 -13 271 -13Z" />
<glyph unicode="v" glyph-name="v" horiz-adv-x="539" d="M224 0L17 500H122L275 110L427 500H522L316 0H224Z" />
<glyph unicode="w" glyph-name="w" horiz-adv-x="818" d="M186 0L17 500H113L231 110L349 500H469L587 110L705 500H801L632 0H542L409 415L276 0H186Z" />
<glyph unicode="x" glyph-name="x" horiz-adv-x="553" d="M23 0L222 259L38 500H152L284 321L412 500H517L331 259L530 0H416L270 197L128 0H23Z" />
<glyph unicode="y" glyph-name="y" horiz-adv-x="539" d="M161 -204Q70 -204 28 -113L99 -76Q107 -95 123 -109Q144 -126 160 -125Q185 -123 210 -56L231 0L17 500H122L279 123L425 500H522L283 -111Q265 -157 242 -177Q212 -204 161 -204Z" />
<glyph unicode="z" glyph-name="z" horiz-adv-x="482" d="M57 0V83L323 430H77V500H425V417L157 70H425V0H57Z" />
<glyph unicode="{" glyph-name="braceleft" horiz-adv-x="512" d="M420 -240Q348 -240 312 -228Q259 -211 237 -160T213 -7Q213 102 200 138Q176 207 92 223V296Q168 314 194 370Q212 408 212 490Q212 497 212 511T212 532Q212 629 236 680T314 748Q350 760 420
760V686Q346 686 321 646Q301 615 301 552Q302 500 302 473T302 444Q298 399 290 369T265 315T217 259Q247 230 264 205T289 150T302 75Q302 74 302 47T302 -32Q301 -96 321 -126Q346 -166 420 -166V-240Z" />
<glyph unicode="|" glyph-name="bar" horiz-adv-x="383" d="M166 -258V796H217V-258H166Z" />
<glyph unicode="}" glyph-name="braceright" horiz-adv-x="512" d="M92 -240V-166Q166 -166 191 -126Q211 -95 211 -32Q210 21 210 48T210 76Q215 122 223 151T248 206T295 261Q265 291 248 316T223 371T210 445Q210 447 210 473T210 552Q211 616 191 646Q166
686 92 686V760Q164 760 200 748Q253 731 275 680T299 527Q299 418 312 382Q336 313 420 297V224Q344 206 318 150Q300 113 300 30Q300 23 300 9T300 -12Q300 -109 276 -160T198 -228Q162 -240 92 -240Z" />
<glyph unicode="~" glyph-name="asciitilde" horiz-adv-x="534" d="M0 195Q7 235 57 274Q107 313 154 313Q212 313 283 293Q352 273 368 273Q409 273 443 315H534Q526 274 478 237Q429 198 378 198Q321 198 252 218Q183 238 166 238Q124 238 91 195H0Z" />
<glyph unicode="&#xa0;" glyph-name="uni00A0" horiz-adv-x="500" />
<glyph unicode="&#xa1;" glyph-name="exclamdown" horiz-adv-x="405" d="M149 -198L172 331H232L255 -198H149ZM155 405V500H255V405H155Z" />
<glyph unicode="&#xa2;" glyph-name="cent" horiz-adv-x="579" d="M189 -140L141 -127L186 10Q81 55 81 244Q81 360 114 421Q164 514 292 513Q309 515 349 510L387 625L436 612L398 496Q488 468 495 344H410Q409 355 408 364T405 381Q394 421 376 429L257 65Q275
56 301 56Q350 56 380 87T410 169H499Q499 95 446 42Q391 -13 300 -13Q260 -13 234 -3L189 -140ZM212 89L326 441Q307 444 284 444Q168 444 168 252Q168 130 212 89Z" />
<glyph unicode="&#xa3;" glyph-name="sterling" horiz-adv-x="567" d="M50 0V64H119V392H50V456H119V579Q119 623 148 658T225 715T334 736Q394 736 442 715T520 659T549 579H460Q460 621 419 648Q382 672 334 672Q287 672 249 648Q208 621 208 579V456H373V392H208V64H529V0H50Z"
/>
<glyph unicode="&#xa4;" glyph-name="currency" horiz-adv-x="620" d="M82 160L46 196L149 299Q105 355 105 427Q105 510 151 559L46 664L82 700L187 595Q243 639 318 639Q392 639 444 594L550 700L586 664L482 560Q527 505 527 428Q527 352 483 299L586 196L550
160L447 263Q391 216 318 216Q240 216 185 263L82 160ZM318 273Q360 273 394 294T449 350T470 428Q470 470 450 505T395 561T318 582Q275 582 240 562T183 506T162 427Q162 385 183 350T239 294T318 273Z" />
<glyph unicode="&#xa5;" glyph-name="yen" horiz-adv-x="559" d="M229 0V287H14V338H198L140 457H14V508H115L4 722H109L281 365L451 722H556L447 508H546V457H422L364 338H546V287H331V0H229Z" />
<glyph unicode="&#xa6;" glyph-name="brokenbar" horiz-adv-x="383" d="M166 336V736H217V336H166ZM166 -198V202H217V-198H166Z" />
<glyph unicode="&#xa7;" glyph-name="section" horiz-adv-x="482" d="M221 -174Q208 -174 191 -172T152 -166Q93 -155 72 -140V-64Q136 -102 191 -104Q225 -104 256 -91T308 -56T329 -6Q329 41 258 82Q226 99 193 116T128 151Q57 198 57 260Q57 391 182 429Q142
445 110 482Q71 527 71 580Q71 634 120 682Q176 736 252 736Q314 736 343 726Q361 721 392 699V631Q328 670 261 670Q238 670 216 658T181 627T167 587Q167 541 233 497Q264 478 294 460T356 423Q422 374 422 311Q422 219 302 160Q425 96 425 14Q425 -69 356 -125Q295
-174 221 -174ZM226 203Q270 214 301 239Q337 266 337 296Q337 339 297 364Q266 384 244 384Q214 384 176 349Q139 315 139 282Q139 227 226 203Z" />
<glyph unicode="&#xa8;" glyph-name="dieresis" horiz-adv-x="290" d="M200 630V722H290V630H200ZM0 630V722H90V630H0Z" />
<glyph unicode="&#xa9;" glyph-name="copyright" horiz-adv-x="886" d="M443 -14Q289 -14 179 96Q69 206 69 361Q69 516 179 626Q289 736 443 736Q598 736 708 626Q817 517 817 361Q817 205 708 96Q598 -14 443 -14ZM446 125Q234 125 234 359Q234 597 438 597Q634
597 634 445H554Q554 543 432 543Q384 543 352 499Q316 450 316 359Q316 187 447 187Q501 187 531 223Q554 252 558 289H638Q623 125 446 125ZM443 36Q577 36 672 131Q767 226 767 361Q767 494 672 591Q577 686 443 686Q309 686 214 591Q119 494 119 361Q119 226
214 131Q309 36 443 36Z" />
<glyph unicode="&#xaa;" glyph-name="ordfeminine" horiz-adv-x="393" d="M175 342Q124 342 86 367Q41 396 41 443Q41 514 105 547Q152 572 231 572Q235 572 241 572T255 572Q263 571 269 571T279 571Q280 577 280 583T281 594Q281 663 203 663Q125 663 125 606H60Q60
710 201 710Q313 710 336 651Q343 634 343 540V479Q343 377 352 351H289Q287 365 285 378T282 402Q255 369 238 359Q212 342 175 342ZM175 389Q235 389 259 428Q278 459 278 523Q265 524 256 524T242 525Q192 525 157 512Q106 493 106 452Q106 423 126 406T175
389Z" />
<glyph unicode="&#xab;" glyph-name="guillemotleft" horiz-adv-x="576" d="M415 57L278 252L415 447H493L373 252L493 57H415ZM220 57L83 252L220 447H298L178 252L298 57H220Z" />
<glyph unicode="&#xac;" glyph-name="logicalnot" horiz-adv-x="632" d="M526 189V360H46V420H586V189H526Z" />
<glyph unicode="&#xad;" glyph-name="uni00AD" horiz-adv-x="312" d="M11 227V283H301V227H11Z" />
<glyph unicode="&#xae;" glyph-name="registered" horiz-adv-x="886" d="M443 -14Q289 -14 179 96Q69 206 69 361Q69 516 179 626Q289 736 443 736Q598 736 708 626Q817 517 817 361Q817 205 708 96Q598 -14 443 -14ZM443 36Q577 36 672 131Q767 226 767 361Q767
494 672 591Q577 686 443 686Q309 686 214 591Q119 494 119 361Q119 226 214 131Q309 36 443 36ZM287 136V605H461Q548 605 588 577Q631 546 631 477Q631 417 547 376Q556 372 565 369T583 361Q591 355 603 326Q609 311 618 247Q623 213 629 186T643 136H571Q568
153 563 181T550 249Q535 319 524 330Q507 347 436 347H357V136H287ZM357 408H460Q561 408 561 477Q561 516 534 532Q512 544 460 544H357V408Z" />
<glyph unicode="&#xaf;" glyph-name="overscore" horiz-adv-x="300" d="M0 477V515H300V477H0Z" />
<glyph unicode="&#xb0;" glyph-name="degree" horiz-adv-x="334" d="M167 500Q121 500 89 532T57 610Q57 656 89 688T167 720Q213 720 245 688T277 610Q277 564 245 532T167 500ZM167 540Q196 540 216 560T237 610Q237 639 217 659T167 680Q138 680 118 660T97
610Q97 581 117 561T167 540Z" />
<glyph unicode="&#xb1;" glyph-name="plusminus" horiz-adv-x="1054" d="M227 0V62H496V300H227V362H496V600H558V362H827V300H558V62H827V0H227Z" />
<glyph unicode="&#xb2;" glyph-name="twosuperior" horiz-adv-x="343" d="M41 350V406Q174 508 217 578Q242 618 242 666Q242 742 176 742Q117 742 108 666H47Q58 792 176 792Q235 792 271 754Q302 720 302 674Q302 614 275 567Q234 497 107 397H302V350H41Z" />
<glyph unicode="&#xb3;" glyph-name="threesuperior" horiz-adv-x="342" d="M169 342Q101 342 63 381Q31 415 31 464H94Q101 388 170 388Q201 388 226 410T251 461Q251 511 231 531T163 552V600Q208 600 226 618T244 682Q244 716 217 732Q198 745 169 745Q114
745 100 670H40Q54 792 167 792Q228 792 266 760T304 678Q304 609 259 577Q283 561 294 546Q311 518 311 466Q311 413 271 378T169 342Z" />
<glyph unicode="&#xb4;" glyph-name="acute" horiz-adv-x="235" d="M62 600L162 771H263L123 600H62Z" />
<glyph unicode="&#xb5;" glyph-name="mu" horiz-adv-x="651" d="M80 -198V500H170V169Q170 135 186 108T231 64T291 48Q328 48 357 64T405 110T423 178V500H513V131Q513 53 568 56Q585 57 598 59T623 64V0Q590 -11 548 -13Q491 -14 465 5T428 71Q376 -13 271 -13Q207
-13 170 13V-198H80Z" />
<glyph unicode="&#xb6;" glyph-name="paragraph" horiz-adv-x="576" d="M257 -160V352Q184 352 128 388Q57 435 57 523Q57 613 128 672Q190 722 257 722H507V683H447V-160H397V683H307V-160H257Z" />
<glyph unicode="&#xb7;" glyph-name="middot" horiz-adv-x="198" d="M99 281Q74 281 57 298T40 340Q40 365 57 382T99 399Q124 399 141 382T158 340Q158 315 141 298T99 281Z" />
<glyph unicode="&#xb8;" glyph-name="cedilla" horiz-adv-x="249" d="M147 -243Q110 -243 51 -234V-184Q113 -196 157 -196Q230 -196 230 -159Q230 -95 110 -100V0H150V-50Q300 -50 300 -158Q300 -183 279 -202T222 -232T147 -243Z" />
<glyph unicode="&#xb9;" glyph-name="onesuperior" horiz-adv-x="360" d="M182 350V711Q175 705 168 700T153 689Q120 667 88 661V711Q142 729 177 783H237V350H182Z" />
<glyph unicode="&#xba;" glyph-name="ordmasculine" horiz-adv-x="422" d="M211 341Q136 341 89 386Q39 436 39 525Q39 614 89 664Q136 709 211 709Q287 709 333 664Q383 614 383 525Q383 436 333 386Q287 341 211 341ZM37 241V278H385V241H37ZM211 386Q264 386
292 431Q318 471 318 525Q318 579 292 619Q264 664 211 664Q159 664 130 619Q105 582 105 525Q105 468 130 431Q159 386 211 386Z" />
<glyph unicode="&#xbb;" glyph-name="guillemotright" horiz-adv-x="576" d="M278 57L397 252L278 447H356L493 252L356 57H278ZM83 57L202 252L83 447H161L298 252L161 57H83Z" />
<glyph unicode="&#xbc;" glyph-name="onequarter" horiz-adv-x="814" d="M125 -14L551 736H620L194 -14H125ZM160 351V666Q152 660 144 655T128 645Q90 622 63 618V673Q113 690 162 731H224V351H160ZM485 148H606V313L485 148ZM606 0V95H426V147L600 390H670V148H751V95H670V0H606Z"
/>
<glyph unicode="&#xbd;" glyph-name="onehalf" horiz-adv-x="816" d="M125 -14L551 736H620L194 -14H125ZM159 351V666Q151 660 143 655T127 645Q89 622 62 618V673Q113 690 162 731H223V351H159ZM461 0V63Q603 172 636 202Q676 239 676 266Q676 332 604 332Q552
332 544 272H471Q474 322 511 356T606 391Q685 391 721 351Q749 320 749 273Q749 231 714 193Q683 160 552 58H754V0H461Z" />
<glyph unicode="&#xbe;" glyph-name="threequarters" horiz-adv-x="808" d="M170 -14L596 736H665L239 -14H170ZM186 340Q122 340 81 372T36 461H102Q105 435 128 417T188 399Q204 399 223 405T257 423T271 445Q271 516 159 516V569Q257 569 257 635Q257 659 229
672Q206 681 186 680Q122 676 114 626H50Q50 682 94 711Q131 736 190 736Q260 736 297 708Q331 683 331 639Q331 576 254 547Q339 525 339 449Q339 419 317 394T261 355T186 340ZM506 148H627V313L506 148ZM627 0V95H447V147L621 390H691V148H772V95H691V0H627Z"
/>
<glyph unicode="&#xbf;" glyph-name="questiondown" horiz-adv-x="527" d="M290 -198Q200 -198 135 -151Q64 -100 64 -17Q64 44 116 99Q126 110 213 179Q265 221 265 251V335H345V235Q345 196 298 152Q276 133 254 114T210 75Q163 28 163 -20Q163 -59 201 -83Q236
-105 288 -104Q342 -103 366 -93Q405 -76 433 -25L499 -67Q431 -198 290 -198ZM255 405V500H355V405H255Z" />
<glyph unicode="&#xc0;" glyph-name="Agrave" horiz-adv-x="754" d="M17 0L320 722H430L737 0H631L553 193H199L120 0H17ZM238 278H511L373 611L238 278ZM357 822L217 993H318L418 822H357Z" />
<glyph unicode="&#xc1;" glyph-name="Aacute" horiz-adv-x="754" d="M17 0L320 722H430L737 0H631L553 193H199L120 0H17ZM238 278H511L373 611L238 278ZM336 821L436 992H537L397 821H336Z" />
<glyph unicode="&#xc2;" glyph-name="Acircumflex" horiz-adv-x="754" d="M17 0L320 722H430L737 0H631L553 193H199L120 0H17ZM238 278H511L373 611L238 278ZM232 821L322 991H432L522 821H462L377 931L292 821H232Z" />
<glyph unicode="&#xc3;" glyph-name="Atilde" horiz-adv-x="754" d="M17 0L320 722H430L737 0H631L553 193H199L120 0H17ZM238 278H511L373 611L238 278ZM232 840Q236 886 261 912T316 938Q338 938 363 929T409 911T436 901Q456 901 467 942H522Q518 897 492 868Q468
844 437 844Q416 844 391 853T345 872T319 881Q298 881 287 840H232Z" />
<glyph unicode="&#xc4;" glyph-name="Adieresis" horiz-adv-x="754" d="M17 0L320 722H430L737 0H631L553 193H199L120 0H17ZM238 278H511L373 611L238 278ZM244 850V942H334V850H244ZM444 850V942H534V850H444Z" />
<glyph unicode="&#xc5;" glyph-name="Aring" horiz-adv-x="754" d="M17 0L320 722H430L737 0H631L553 193H199L120 0H17ZM238 278H511L373 611L238 278ZM368 820Q322 820 290 852T258 930Q258 976 290 1008T368 1040Q414 1040 446 1008T478 930Q478 884 446 852T368
820ZM368 860Q397 860 417 880T438 930Q438 959 418 979T368 1000Q339 1000 319 980T298 930Q298 901 318 881T368 860Z" />
<glyph unicode="&#xc6;" glyph-name="AE" horiz-adv-x="988" d="M17 0L400 722H909V635H563V413H899V326H563V87H919V0H462V193H231L123 0H17ZM280 278H462V641L280 278Z" />
<glyph unicode="&#xc7;" glyph-name="Ccedilla" horiz-adv-x="698" d="M391 -243Q334 -243 275 -234V-184Q337 -196 381 -196Q454 -196 454 -159Q454 -95 334 -100V-13Q195 -3 127 108Q69 200 69 356Q69 522 133 619Q210 736 368 736Q498 736 565 675Q625 620
625 529H524Q524 657 369 657Q171 657 171 356Q171 201 222 130Q269 67 365 67Q528 67 528 193H629Q629 105 562 48Q491 -13 374 -14V-50Q524 -50 524 -158Q524 -197 487 -220T391 -243Z" />
<glyph unicode="&#xc8;" glyph-name="Egrave" horiz-adv-x="629" d="M92 0V722H539V635H193V413H529V326H193V87H549V0H92ZM315 821L175 992H276L376 821H315Z" />
<glyph unicode="&#xc9;" glyph-name="Eacute" horiz-adv-x="629" d="M92 0V722H539V635H193V413H529V326H193V87H549V0H92ZM266 820L366 991H467L327 820H266Z" />
<glyph unicode="&#xca;" glyph-name="Ecircumflex" horiz-adv-x="629" d="M92 0V722H539V635H193V413H529V326H193V87H549V0H92ZM170 821L260 991H370L460 821H400L315 931L230 821H170Z" />
<glyph unicode="&#xcb;" glyph-name="Edieresis" horiz-adv-x="629" d="M92 0V722H539V635H193V413H529V326H193V87H549V0H92ZM170 851V943H260V851H170ZM370 851V943H460V851H370Z" />
<glyph unicode="&#xcc;" glyph-name="Igrave" horiz-adv-x="270" d="M79 0V722H180V0H79ZM128 821L-12 992H89L189 821H128Z" />
<glyph unicode="&#xcd;" glyph-name="Iacute" horiz-adv-x="270" d="M90 0V722H191V0H90ZM81 822L181 993H282L142 822H81Z" />
<glyph unicode="&#xce;" glyph-name="Icircumflex" horiz-adv-x="257" d="M78 0V722H179V0H78ZM-16 821L74 991H184L274 821H214L129 931L44 821H-16Z" />
<glyph unicode="&#xcf;" glyph-name="Idieresis" horiz-adv-x="257" d="M78 0V722H179V0H78ZM-16 850V942H74V850H-16ZM184 850V942H274V850H184Z" />
<glyph unicode="&#xd0;" glyph-name="Eth" horiz-adv-x="729" d="M80 0V319H0V402H80V722H305Q494 722 585 611Q660 518 660 362Q660 211 585 116Q493 0 305 0H80ZM181 87H307Q425 87 493 159T561 362Q561 493 494 564T307 635H181V402H350V319H181V87Z" />
<glyph unicode="&#xd1;" glyph-name="Ntilde" horiz-adv-x="747" d="M92 0V722H235L554 130V722H655V0H511L193 592V0H92ZM222 840Q226 886 251 912T306 938Q328 938 353 929T399 911T426 901Q446 901 457 942H512Q508 897 482 868Q458 844 427 844Q406 844 381
853T335 872T309 881Q288 881 277 840H222Z" />
<glyph unicode="&#xd2;" glyph-name="Ograve" horiz-adv-x="792" d="M397 -14Q237 -14 149 104Q69 211 69 375Q69 536 149 633Q236 736 397 736Q558 736 643 633Q723 536 723 375Q723 211 643 104Q555 -14 397 -14ZM397 74Q519 74 574 168Q620 244 620 375Q620
649 397 649Q172 649 172 375Q172 245 219 168Q276 74 397 74ZM396 821L256 992H357L457 821H396Z" />
<glyph unicode="&#xd3;" glyph-name="Oacute" horiz-adv-x="792" d="M397 -14Q237 -14 149 104Q69 211 69 375Q69 536 149 633Q236 736 397 736Q558 736 643 633Q723 536 723 375Q723 211 643 104Q555 -14 397 -14ZM397 74Q519 74 574 168Q620 244 620 375Q620
649 397 649Q172 649 172 375Q172 245 219 168Q276 74 397 74ZM336 821L436 992H537L397 821H336Z" />
<glyph unicode="&#xd4;" glyph-name="Ocircumflex" horiz-adv-x="792" d="M397 -14Q237 -14 149 104Q69 211 69 375Q69 536 149 633Q236 736 397 736Q558 736 643 633Q723 536 723 375Q723 211 643 104Q555 -14 397 -14ZM397 74Q519 74 574 168Q620 244 620 375Q620
649 397 649Q172 649 172 375Q172 245 219 168Q276 74 397 74ZM252 821L342 991H452L542 821H482L397 931L312 821H252Z" />
<glyph unicode="&#xd5;" glyph-name="Otilde" horiz-adv-x="792" d="M397 -14Q237 -14 149 104Q69 211 69 375Q69 536 149 633Q236 736 397 736Q558 736 643 633Q723 536 723 375Q723 211 643 104Q555 -14 397 -14ZM397 74Q519 74 574 168Q620 244 620 375Q620
649 397 649Q172 649 172 375Q172 245 219 168Q276 74 397 74ZM252 840Q256 886 281 912T336 938Q358 938 383 929T429 911T456 901Q476 901 487 942H542Q538 897 512 868Q488 844 457 844Q436 844 411 853T365 872T339 881Q318 881 307 840H252Z" />
<glyph unicode="&#xd6;" glyph-name="Odieresis" horiz-adv-x="792" d="M397 -14Q237 -14 149 104Q69 211 69 375Q69 536 149 633Q236 736 397 736Q558 736 643 633Q723 536 723 375Q723 211 643 104Q555 -14 397 -14ZM397 74Q519 74 574 168Q620 244 620 375Q620
649 397 649Q172 649 172 375Q172 245 219 168Q276 74 397 74ZM269 850V942H359V850H269ZM469 850V942H559V850H469Z" />
<glyph unicode="&#xd7;" glyph-name="multiply" horiz-adv-x="1064" d="M301 30L262 69L492 300L262 531L301 570L532 338L763 570L802 531L572 300L802 69L763 30L532 262L301 30Z" />
<glyph unicode="&#xd8;" glyph-name="Oslash" horiz-adv-x="793" d="M144 -101L69 -52L162 88Q69 196 69 375Q69 536 149 633Q236 736 397 736Q498 736 568 696L649 817L724 768L638 639Q723 544 723 375Q723 211 643 104Q555 -14 397 -14Q301 -14 231 29L144
-101ZM217 170L518 621Q469 649 397 649Q172 649 172 375Q172 247 217 170ZM397 74Q519 74 574 168Q620 244 620 375Q620 489 582 556L281 104Q329 74 397 74Z" />
<glyph unicode="&#xd9;" glyph-name="Ugrave" horiz-adv-x="761" d="M380 -14Q279 -14 215 20T122 128T92 322V722H193V322Q193 175 249 117Q291 74 380 74Q469 74 511 116Q568 173 568 322V722H669V322Q669 202 639 128T546 20T380 -14ZM380 821L240 992H341L441
821H380Z" />
<glyph unicode="&#xda;" glyph-name="Uacute" horiz-adv-x="761" d="M380 -14Q279 -14 215 20T122 128T92 322V722H193V322Q193 175 249 117Q291 74 380 74Q469 74 511 116Q568 173 568 322V722H669V322Q669 202 639 128T546 20T380 -14ZM319 821L419 992H520L380
821H319Z" />
<glyph unicode="&#xdb;" glyph-name="Ucircumflex" horiz-adv-x="761" d="M380 -14Q279 -14 215 20T122 128T92 322V722H193V322Q193 175 249 117Q291 74 380 74Q469 74 511 116Q568 173 568 322V722H669V322Q669 202 639 128T546 20T380 -14ZM235 821L325 991H435L525
821H465L380 931L295 821H235Z" />
<glyph unicode="&#xdc;" glyph-name="Udieresis" horiz-adv-x="761" d="M380 -14Q279 -14 215 20T122 128T92 322V722H193V322Q193 175 249 117Q291 74 380 74Q469 74 511 116Q568 173 568 322V722H669V322Q669 202 639 128T546 20T380 -14ZM252 837V929H342V837H252ZM452
837V929H542V837H452Z" />
<glyph unicode="&#xdd;" glyph-name="Yacute" horiz-adv-x="670" d="M284 0V287L17 722H140L341 375L539 722H653L385 287V0H284ZM292 822L392 993H493L353 822H292Z" />
<glyph unicode="&#xde;" glyph-name="Thorn" horiz-adv-x="644" d="M92 0V722H193V587H296Q424 587 488 551Q575 502 575 379Q575 257 488 207Q424 171 296 171H193V0H92ZM193 259H299Q392 259 435 286T478 379Q478 445 435 472T299 500H193V259Z" />
<glyph unicode="&#xdf;" glyph-name="germandbls" horiz-adv-x="567" d="M400 -13Q356 -12 313 7T243 60T215 141H308Q323 58 424 58Q447 58 459 64T475 90T479 150Q479 196 423 232L320 292Q265 332 265 393Q265 432 298 465L360 514Q392 538 392 562Q392 607
369 634T303 662Q267 662 233 649T175 613T152 560V0H62V582Q62 606 78 632T124 682T193 720T280 735Q382 732 434 695T486 580Q486 561 484 548T472 521T444 488T392 439Q359 408 359 388Q359 365 413 336Q477 302 510 276T555 221T567 152Q567 69 527 28T400
-13Z" />
<glyph unicode="&#xe0;" glyph-name="agrave" horiz-adv-x="565" d="M246 -13Q175 -13 119 23Q55 63 55 132Q55 235 146 281Q216 316 326 316Q338 316 361 315T395 314Q399 330 399 348Q399 446 287 446Q241 446 212 429Q175 408 175 365H82Q82 513 283 513Q443
513 476 428Q487 398 487 270V183Q487 35 500 0H410Q408 11 405 29T399 73Q380 51 365 35T337 11Q300 -13 246 -13ZM247 54Q333 54 367 111Q394 155 394 246Q354 249 342 249Q275 249 221 229Q148 202 148 144Q148 104 178 78Q205 54 247 54ZM300 590L160 761H261L361
590H300Z" />
<glyph unicode="&#xe1;" glyph-name="aacute" horiz-adv-x="565" d="M246 -13Q175 -13 119 23Q55 63 55 132Q55 235 146 281Q216 316 326 316Q338 316 361 315T395 314Q399 330 399 348Q399 446 287 446Q241 446 212 429Q175 408 175 365H82Q82 513 283 513Q443
513 476 428Q487 398 487 270V183Q487 35 500 0H410Q408 11 405 29T399 73Q380 51 365 35T337 11Q300 -13 246 -13ZM247 54Q333 54 367 111Q394 155 394 246Q354 249 342 249Q275 249 221 229Q148 202 148 144Q148 104 178 78Q205 54 247 54ZM208 600L308 771H409L269
600H208Z" />
<glyph unicode="&#xe2;" glyph-name="acircumflex" horiz-adv-x="565" d="M246 -13Q175 -13 119 23Q55 63 55 132Q55 235 146 281Q216 316 326 316Q338 316 361 315T395 314Q399 330 399 348Q399 446 287 446Q241 446 212 429Q175 408 175 365H82Q82 513 283 513Q443
513 476 428Q487 398 487 270V183Q487 35 500 0H410Q408 11 405 29T399 73Q380 51 365 35T337 11Q300 -13 246 -13ZM247 54Q333 54 367 111Q394 155 394 246Q354 249 342 249Q275 249 221 229Q148 202 148 144Q148 104 178 78Q205 54 247 54ZM135 600L225 770H335L425
600H365L280 710L195 600H135Z" />
<glyph unicode="&#xe3;" glyph-name="atilde" horiz-adv-x="565" d="M246 -13Q175 -13 119 23Q55 63 55 132Q55 235 146 281Q216 316 326 316Q338 316 361 315T395 314Q399 330 399 348Q399 446 287 446Q241 446 212 429Q175 408 175 365H82Q82 513 283 513Q443
513 476 428Q487 398 487 270V183Q487 35 500 0H410Q408 11 405 29T399 73Q380 51 365 35T337 11Q300 -13 246 -13ZM247 54Q333 54 367 111Q394 155 394 246Q354 249 342 249Q275 249 221 229Q148 202 148 144Q148 104 178 78Q205 54 247 54ZM137 620Q141 666 166
692T221 718Q243 718 268 709T314 691T341 681Q361 681 372 722H427Q423 677 397 648Q373 624 342 624Q321 624 296 633T250 652T224 661Q203 661 192 620H137Z" />
<glyph unicode="&#xe4;" glyph-name="adieresis" horiz-adv-x="565" d="M246 -13Q175 -13 119 23Q55 63 55 132Q55 235 146 281Q216 316 326 316Q338 316 361 315T395 314Q399 330 399 348Q399 446 287 446Q241 446 212 429Q175 408 175 365H82Q82 513 283 513Q443
513 476 428Q487 398 487 270V183Q487 35 500 0H410Q408 11 405 29T399 73Q380 51 365 35T337 11Q300 -13 246 -13ZM247 54Q333 54 367 111Q394 155 394 246Q354 249 342 249Q275 249 221 229Q148 202 148 144Q148 104 178 78Q205 54 247 54ZM137 630V722H227V630H137ZM337
630V722H427V630H337Z" />
<glyph unicode="&#xe5;" glyph-name="aring" horiz-adv-x="565" d="M246 -13Q175 -13 119 23Q55 63 55 132Q55 235 146 281Q216 316 326 316Q338 316 361 315T395 314Q399 330 399 348Q399 446 287 446Q241 446 212 429Q175 408 175 365H82Q82 513 283 513Q443
513 476 428Q487 398 487 270V183Q487 35 500 0H410Q408 11 405 29T399 73Q380 51 365 35T337 11Q300 -13 246 -13ZM247 54Q333 54 367 111Q394 155 394 246Q354 249 342 249Q275 249 221 229Q148 202 148 144Q148 104 178 78Q205 54 247 54ZM282 600Q236 600 204
632T172 710Q172 756 204 788T282 820Q328 820 360 788T392 710Q392 664 360 632T282 600ZM282 640Q311 640 331 660T352 710Q352 739 332 759T282 780Q253 780 233 760T212 710Q212 681 232 661T282 640Z" />
<glyph unicode="&#xe6;" glyph-name="ae" horiz-adv-x="924" d="M247 -13Q159 -13 108 28T57 135Q57 308 299 311Q320 311 345 310T390 307T416 305Q413 444 288 446Q176 447 176 374H83Q83 513 292 513Q425 513 471 390Q498 466 551 493Q589 513 661 513Q768
513 823 432Q869 368 869 280Q869 272 869 262T868 238H509Q509 165 538 116Q574 56 644 56Q746 56 770 157H860Q850 78 798 33T664 -13Q585 -13 532 23T465 126Q422 -13 247 -13ZM264 58Q344 59 373 91Q426 152 422 243Q383 248 344 246Q150 241 147 149Q146 103
184 78Q216 57 264 58ZM514 305H776Q762 448 647 448Q529 448 514 305Z" />
<glyph unicode="&#xe7;" glyph-name="ccedilla" horiz-adv-x="535" d="M279 -243Q242 -243 183 -234V-184Q245 -196 289 -196Q362 -196 362 -159Q362 -95 242 -100V-11Q57 9 57 250Q57 383 107 448T269 513Q370 513 424 471Q474 432 474 364Q474 359 474 354T473
343H384Q385 348 385 353T386 362Q386 445 262 445Q147 445 147 250Q147 55 279 55Q336 55 366 95Q389 127 389 169H478Q478 91 435 44Q384 -11 282 -13V-50Q432 -50 432 -158Q432 -183 411 -202T354 -232T279 -243Z" />
<glyph unicode="&#xe8;" glyph-name="egrave" horiz-adv-x="571" d="M286 -13Q170 -13 109 75Q57 148 57 250Q57 358 108 428Q169 513 292 513Q421 513 476 428Q514 369 514 283Q514 257 511 236H154Q154 152 185 106Q220 52 287 52Q349 52 383 89Q410 119 414
159H511Q504 128 491 101T458 52Q396 -13 286 -13ZM154 301H414Q415 307 415 313T416 325Q416 379 387 411Q354 449 288 449Q173 449 154 301ZM283 600L143 771H244L344 600H283Z" />
<glyph unicode="&#xe9;" glyph-name="eacute" horiz-adv-x="571" d="M286 -13Q170 -13 109 75Q57 148 57 250Q57 358 108 428Q169 513 292 513Q421 513 476 428Q514 369 514 283Q514 257 511 236H154Q154 152 185 106Q220 52 287 52Q349 52 383 89Q410 119 414
159H511Q504 128 491 101T458 52Q396 -13 286 -13ZM154 301H414Q415 307 415 313T416 325Q416 379 387 411Q354 449 288 449Q173 449 154 301ZM224 600L324 771H425L285 600H224Z" />
<glyph unicode="&#xea;" glyph-name="ecircumflex" horiz-adv-x="571" d="M286 -13Q170 -13 109 75Q57 148 57 250Q57 358 108 428Q169 513 292 513Q421 513 476 428Q514 369 514 283Q514 257 511 236H154Q154 152 185 106Q220 52 287 52Q349 52 383 89Q410 119
414 159H511Q504 128 491 101T458 52Q396 -13 286 -13ZM154 301H414Q415 307 415 313T416 325Q416 379 387 411Q354 449 288 449Q173 449 154 301ZM139 600L229 770H339L429 600H369L284 710L199 600H139Z" />
<glyph unicode="&#xeb;" glyph-name="edieresis" horiz-adv-x="571" d="M286 -13Q170 -13 109 75Q57 148 57 250Q57 358 108 428Q169 513 292 513Q421 513 476 428Q514 369 514 283Q514 257 511 236H154Q154 152 185 106Q220 52 287 52Q349 52 383 89Q410 119
414 159H511Q504 128 491 101T458 52Q396 -13 286 -13ZM154 301H414Q415 307 415 313T416 325Q416 379 387 411Q354 449 288 449Q173 449 154 301ZM139 630V722H229V630H139ZM339 630V722H429V630H339Z" />
<glyph unicode="&#xec;" glyph-name="igrave" horiz-adv-x="235" d="M67 0V500H157V0H67ZM112 600L-28 771H73L173 600H112Z" />
<glyph unicode="&#xed;" glyph-name="iacute" horiz-adv-x="235" d="M78 0V500H168V0H78ZM62 600L162 771H263L123 600H62Z" />
<glyph unicode="&#xee;" glyph-name="icircumflex" horiz-adv-x="222" d="M-34 600L56 770H166L256 600H196L111 710L26 600H-34ZM66 0V500H156V0H66Z" />
<glyph unicode="&#xef;" glyph-name="idieresis" horiz-adv-x="222" d="M66 0V500H156V0H66ZM-34 630V722H56V630H-34ZM166 630V722H256V630H166Z" />
<glyph unicode="&#xf0;" glyph-name="eth" horiz-adv-x="602" d="M301 -13Q182 -13 118 60Q57 128 57 250Q57 368 111 435Q172 511 301 513Q306 513 313 513T329 513Q337 512 342 512T348 512Q339 548 265 598L94 523L75 566L214 628L97 705L147 734L281 659L443
732L464 690L328 627Q360 608 387 586T437 538Q545 415 545 250Q545 137 488 66Q424 -13 301 -13ZM301 55Q378 55 418 118Q453 171 453 250Q453 341 413 393T301 445Q256 445 222 420T168 350T149 250Q149 165 185 112Q226 55 301 55Z" />
<glyph unicode="&#xf1;" glyph-name="ntilde" horiz-adv-x="594" d="M80 0V500H170V436Q181 447 192 458T213 481Q253 513 322 513Q514 513 514 329V0H425V331Q425 365 408 392T364 436T302 453Q266 453 236 437T188 391T170 323V0H80ZM152 620Q156 666 181 692T236
718Q258 718 283 709T329 691T356 681Q376 681 387 722H442Q438 677 412 648Q388 624 357 624Q336 624 311 633T265 652T239 661Q218 661 207 620H152Z" />
<glyph unicode="&#xf2;" glyph-name="ograve" horiz-adv-x="606" d="M303 -13Q196 -13 129 52Q57 123 57 250Q57 379 129 449Q194 513 303 513Q410 513 477 449Q549 379 549 250Q549 123 477 52Q409 -13 303 -13ZM303 52Q377 52 419 116Q455 172 455 250Q455 330
419 385Q377 449 303 449Q229 449 187 385Q151 330 151 250Q151 172 187 116Q227 52 303 52ZM300 600L160 771H261L361 600H300Z" />
<glyph unicode="&#xf3;" glyph-name="oacute" horiz-adv-x="606" d="M303 -13Q196 -13 129 52Q57 123 57 250Q57 379 129 449Q194 513 303 513Q410 513 477 449Q549 379 549 250Q549 123 477 52Q409 -13 303 -13ZM303 52Q377 52 419 116Q455 172 455 250Q455 330
419 385Q377 449 303 449Q229 449 187 385Q151 330 151 250Q151 172 187 116Q227 52 303 52ZM241 600L341 771H442L302 600H241Z" />
<glyph unicode="&#xf4;" glyph-name="ocircumflex" horiz-adv-x="606" d="M303 -13Q196 -13 129 52Q57 123 57 250Q57 379 129 449Q194 513 303 513Q410 513 477 449Q549 379 549 250Q549 123 477 52Q409 -13 303 -13ZM303 52Q377 52 419 116Q455 172 455 250Q455
330 419 385Q377 449 303 449Q229 449 187 385Q151 330 151 250Q151 172 187 116Q227 52 303 52ZM158 600L248 770H358L448 600H388L303 710L218 600H158Z" />
<glyph unicode="&#xf5;" glyph-name="otilde" horiz-adv-x="606" d="M303 -13Q196 -13 129 52Q57 123 57 250Q57 379 129 449Q194 513 303 513Q410 513 477 449Q549 379 549 250Q549 123 477 52Q409 -13 303 -13ZM303 52Q377 52 419 116Q455 172 455 250Q455 330
419 385Q377 449 303 449Q229 449 187 385Q151 330 151 250Q151 172 187 116Q227 52 303 52ZM158 620Q162 666 187 692T242 718Q264 718 289 709T335 691T362 681Q382 681 393 722H448Q444 677 418 648Q394 624 363 624Q342 624 317 633T271 652T245 661Q224 661
213 620H158Z" />
<glyph unicode="&#xf6;" glyph-name="odieresis" horiz-adv-x="606" d="M303 -13Q196 -13 129 52Q57 123 57 250Q57 379 129 449Q194 513 303 513Q410 513 477 449Q549 379 549 250Q549 123 477 52Q409 -13 303 -13ZM303 52Q377 52 419 116Q455 172 455 250Q455
330 419 385Q377 449 303 449Q229 449 187 385Q151 330 151 250Q151 172 187 116Q227 52 303 52ZM158 630V722H248V630H158ZM358 630V722H448V630H358Z" />
<glyph unicode="&#xf7;" glyph-name="divide" horiz-adv-x="1054" d="M227 269V331H827V269H227ZM527 80Q502 80 485 97T467 139Q467 164 484 181T527 199Q552 199 569 182T587 139Q587 114 570 97T527 80ZM527 401Q502 401 485 418T467 461Q467 486 484 503T527
521Q552 521 569 504T587 461Q587 436 570 419T527 401Z" />
<glyph unicode="&#xf8;" glyph-name="oslash" horiz-adv-x="602" d="M86 -81L35 -44L117 62Q54 124 54 250Q54 379 126 449Q191 513 300 513Q369 513 424 484L503 591L554 554L474 446Q546 385 546 250Q546 123 474 52Q406 -13 300 -13Q223 -13 164 22L86 -81ZM300
52Q374 52 416 116Q452 172 452 250Q452 314 423 374L211 83Q248 52 300 52ZM172 137L380 423Q345 449 300 449Q226 449 184 385Q148 330 148 250Q148 185 172 137Z" />
<glyph unicode="&#xf9;" glyph-name="ugrave" horiz-adv-x="593" d="M271 -13Q80 -13 80 171V500H170V169Q170 135 186 108T231 64T291 48Q328 48 357 64T405 110T423 178V500H513V0H423V64Q373 -13 271 -13ZM294 600L154 771H255L355 600H294Z" />
<glyph unicode="&#xfa;" glyph-name="uacute" horiz-adv-x="593" d="M271 -13Q80 -13 80 171V500H170V169Q170 135 186 108T231 64T291 48Q328 48 357 64T405 110T423 178V500H513V0H423V64Q373 -13 271 -13ZM236 600L336 771H437L297 600H236Z" />
<glyph unicode="&#xfb;" glyph-name="ucircumflex" horiz-adv-x="593" d="M271 -13Q80 -13 80 171V500H170V169Q170 135 186 108T231 64T291 48Q328 48 357 64T405 110T423 178V500H513V0H423V64Q373 -13 271 -13ZM152 600L242 770H352L442 600H382L297 710L212 600H152Z" />
<glyph unicode="&#xfc;" glyph-name="udieresis" horiz-adv-x="593" d="M271 -13Q80 -13 80 171V500H170V169Q170 135 186 108T231 64T291 48Q328 48 357 64T405 110T423 178V500H513V0H423V64Q373 -13 271 -13ZM152 630V722H242V630H152ZM352 630V722H442V630H352Z" />
<glyph unicode="&#xfd;" glyph-name="yacute" horiz-adv-x="539" d="M161 -204Q70 -204 28 -113L99 -76Q106 -94 124 -109T160 -125Q185 -125 210 -56L231 0L17 500H122L279 123L425 500H522L283 -111Q265 -157 242 -177Q212 -204 161 -204ZM222 600L322 771H423L283
600H222Z" />
<glyph unicode="&#xfe;" glyph-name="thorn" horiz-adv-x="616" d="M80 -198V722H170V437Q252 513 328 513Q449 513 507 437Q559 370 559 250Q559 130 507 63Q448 -14 328 -14Q254 -14 170 52V-198H80ZM316 51Q390 51 429 112Q463 164 463 250Q463 336 429 388Q390
449 316 449Q242 449 203 388Q169 336 169 250Q169 164 203 112Q242 51 316 51Z" />
<glyph unicode="&#xff;" glyph-name="ydieresis" horiz-adv-x="539" d="M161 -204Q70 -204 28 -113L99 -76Q107 -95 123 -109Q144 -126 160 -125Q185 -123 210 -56L231 0L17 500H122L279 123L425 500H522L283 -111Q265 -157 242 -177Q212 -204 161 -204ZM125 630V722H215V630H125ZM325
630V722H415V630H325Z" />
<glyph unicode="&#x2013;" glyph-name="endash" horiz-adv-x="500" d="M0 211V275H500V211H0Z" />
<glyph unicode="&#x2014;" glyph-name="emdash" horiz-adv-x="1000" d="M0 211V275H1000V211H0Z" />
<glyph unicode="&#x2018;" glyph-name="quoteleft" horiz-adv-x="262" d="M41 472L151 722H221L161 472H41Z" />
<glyph unicode="&#x2019;" glyph-name="quoteright" horiz-adv-x="262" d="M41 472L101 722H221L111 472H41Z" />
<glyph unicode="&#x201a;" glyph-name="quotesinglbase" horiz-adv-x="288" d="M54 -127L114 123H234L124 -127H54Z" />
<glyph unicode="&#x201c;" glyph-name="quotedblleft" horiz-adv-x="445" d="M224 472L334 722H404L344 472H224ZM41 472L151 722H221L161 472H41Z" />
<glyph unicode="&#x201d;" glyph-name="quotedblright" horiz-adv-x="445" d="M224 472L284 722H404L294 472H224ZM41 472L101 722H221L111 472H41Z" />
<glyph unicode="&#x201e;" glyph-name="quotedblbase" horiz-adv-x="445" d="M224 -127L284 123H404L294 -127H224ZM41 -127L101 123H221L111 -127H41Z" />
<glyph unicode="&#x2022;" glyph-name="bullet" horiz-adv-x="310" d="M155 225Q107 225 74 258T40 340Q40 388 73 421T155 455Q203 455 236 422T270 340Q270 292 237 259T155 225Z" />
<glyph unicode="&#x2039;" glyph-name="guilsinglleft" horiz-adv-x="380" d="M220 57L83 252L220 447H298L178 252L298 57H220Z" />
<glyph unicode="&#x203a;" glyph-name="guilsinglright" horiz-adv-x="380" d="M83 57L202 252L83 447H161L298 252L161 57H83Z" />
</font>
</defs>
</svg>
