<?xml version="1.0" standalone="no"?>
<!DOCTYPE svg PUBLIC "-//W3C//DTD SVG 1.1//EN" "http://www.w3.org/Graphics/SVG/1.1/DTD/svg11.dtd">
<svg xmlns="http://www.w3.org/2000/svg">
<defs >
<font id="AlumniSansCollegiateOne" horiz-adv-x="375" ><font-face
    font-family="Alumni Sans Collegiate One"
    units-per-em="1000"
    panose-1="0 0 0 0 0 0 0 0 0 0"
    ascent="900"
    descent="-300"
    alphabetic="0" />
<glyph unicode=" " glyph-name="space" horiz-adv-x="150" />
<glyph unicode="!" glyph-name="exclam" horiz-adv-x="200" d="M100 -7Q60 -7 33 21T6 90Q6 115 19 136T55 172H40L17 367L10 631H182L176 370L153 172H144Q167 158 180 137T194 90Q194 50 168 22T100 -7ZM52 190H140L161 374L167 612H26L31 371L52 190ZM59 199L39
372L33 603H159L153 375L133 199H59ZM100 11Q134 11 156 34T179 90Q179 122 157 145T100 168Q66 168 44 145T21 90Q21 57 43 34T100 11ZM100 20Q69 20 49 40T28 90Q28 118 48 138T100 159Q131 159 151 139T171 90Q171 61 151 41T100 20Z" />
<glyph unicode="&quot;" glyph-name="quotedbl" horiz-adv-x="330" d="M42 325L21 539H309L289 325H173L165 403L158 325H42ZM57 341H142L160 523H39L57 341ZM189 341H274L291 523H170L189 341ZM65 348L48 515H151L135 348H65ZM196 348L179 515H282L266 348H196Z" />
<glyph unicode="#" glyph-name="numbersign" horiz-adv-x="729" d="M101 0L147 147H9L55 287H193L204 320L62 321L108 462H248L285 574H436L398 462H437L475 574H626L588 462H720L675 320H543L533 287H666L621 146H488L441 0H291L337 146L298 147L251 0H101ZM126
18H238L284 165L362 164L316 18H428L474 164H609L642 269H509L531 339H662L695 444H563L600 556H488L451 444H373L410 556H298L262 444H121L88 340L228 339L205 269H68L34 165H172L126 18ZM138 27L185 174H47L75 260H213L241 348L101 349L128 435H269L305 547H397L360
435H459L495 547H587L551 435H682L655 348H523L495 260H629L601 173H468L421 27H329L376 173L277 174L230 27H138ZM305 260H403L431 348H333L305 260ZM319 269L340 339H418L396 269H319ZM343 287H383L393 320H353L343 287Z" />
<glyph unicode="$" glyph-name="dollar" horiz-adv-x="374" d="M264 -62H131V44Q58 54 33 96T8 214V273H79Q54 289 37 316T20 390V416Q20 480 44 519T131 570V656H264V568Q323 553 344 513T366 407V350H306Q332 334 349 309T366 238V205Q366 141 344 103T264 49V-62ZM148
61V-43H247V64Q302 76 325 111T349 205V238Q349 287 324 313T261 352L244 357Q229 361 215 368H349V407Q349 469 328 505T247 553V638H148V554Q87 544 62 510T37 416V390Q37 339 64 311T130 269L137 266Q139 265 143 263L142 264L162 255H26V214Q26 146 53 108T148
61ZM239 -34H157V69Q86 75 60 110T34 214V245H169V182Q169 172 169 166T171 154Q172 144 183 144Q198 144 198 169V211Q198 233 189 244T163 263T127 280Q93 294 69 317T45 390V416Q45 474 69 506T157 545V628H239V544Q298 536 319 502T341 407V377H211V436Q211
445 211 452T209 463Q206 472 197 472Q188 472 185 465T182 448V404Q182 384 193 373T223 356T258 343Q293 329 317 307T341 238V205Q341 148 319 115T239 72V-34ZM203 436V377Q191 386 191 404V448Q191 462 197 462Q203 462 203 436ZM183 153Q177 153 177 182V245Q189
233 189 211V169Q189 163 188 158T183 153Z" />
<glyph unicode="%" glyph-name="percent" horiz-adv-x="545" d="M416 -4Q376 -4 351 5T313 40T300 116V203L190 0H30L177 273Q160 269 130 269Q90 269 65 278T27 313T14 389V497Q14 551 44 571T130 591Q185 591 215 571T245 497V397L350 591H511L359 312Q380 319
416 319Q471 319 501 299T531 224V117Q531 67 519 41T481 5T416 -4ZM130 287Q180 287 203 306T227 390V497Q227 541 202 557T130 573Q83 573 58 557T32 497V389Q32 325 56 306T130 287ZM60 18H180L481 573H360L60 18ZM130 296Q84 296 63 313T41 389V497Q41 535
64 549T130 564Q172 564 195 550T218 497V390Q218 332 197 314T130 296ZM75 27L365 564H466L174 27H75ZM130 338Q139 338 139 353V507Q139 522 130 522Q121 522 121 507V353Q121 338 130 338ZM416 15Q466 15 489 34T513 117V224Q513 269 488 285T416 301Q369 301
344 285T318 224V116Q318 53 341 34T416 15ZM416 24Q370 24 349 41T327 116V224Q327 262 350 277T416 292Q458 292 481 277T504 224V117Q504 60 483 42T416 24ZM416 65Q424 65 424 81V234Q424 250 416 250Q407 250 407 234V81Q407 65 416 65Z" />
<glyph unicode="&amp;" glyph-name="ampersand" horiz-adv-x="409" d="M175 -2Q94 -2 51 44T7 173Q7 210 20 243T64 293Q58 313 55 334T52 375Q57 437 91 473T193 509Q218 509 252 504T317 492T360 479V344H402V205H357Q357 201 357 198T356 192Q365 187 377 182T402
173V4Q366 4 337 12T284 35Q262 17 236 8T175 -2ZM175 16Q210 16 236 26T282 57Q307 42 333 32T384 22V159Q373 164 361 169T337 183Q338 188 338 193T340 203L341 223H384V326H239V301Q238 294 238 287T238 273Q231 281 226 289T215 307Q210 315 208 323T206 340Q206
351 212 359T231 367Q245 367 268 364T314 356T343 347V467Q331 472 305 477T248 487T193 491Q133 491 103 461T69 374Q67 349 72 327T85 284Q50 273 37 242T24 173Q24 100 63 58T175 16ZM175 25Q107 25 70 64T33 173Q33 207 49 239T97 277Q87 298 82 321T78 373Q84
482 193 482Q215 482 244 479T299 471T334 461V362Q331 362 311 365T268 372T231 376Q203 376 198 352T208 302Q216 288 225 275T246 249L247 317H376V232H332Q332 219 331 206T327 178Q353 162 376 154V31Q354 31 330 41T280 68Q261 48 236 37T175 25ZM223 344H271Q260
346 250 347T231 349Q225 349 223 344ZM181 120Q197 120 210 127Q191 145 173 165T140 208L138 199Q137 196 137 188Q134 158 147 139T181 120ZM181 129Q164 129 154 144T145 185Q156 171 168 158T194 130Q191 129 181 129Z" />
<glyph unicode="&apos;" glyph-name="quotesingle" horiz-adv-x="170" d="M38 325L21 539H149L133 325H38ZM51 341H120L135 523H36L51 341ZM57 348L44 515H127L114 348H57Z" />
<glyph unicode="(" glyph-name="parenleft" horiz-adv-x="283" d="M274 -111Q194 -111 133 -62T38 72T4 261Q4 329 21 401T72 534T159 632T282 670V541Q250 543 226 509T188 413T174 270Q174 157 198 89T274 18V-111ZM259 -90V6Q229 6 206 40T169 134T156 270Q156
349 169 411T208 511T267 558V653Q223 653 185 629T117 565T66 473T33 367T22 261Q22 200 38 138T84 25T159 -58T259 -90ZM251 -82Q201 -82 161 -51T91 30T46 141T30 261Q30 311 41 364T72 468T121 558T185 621T259 645V564Q229 555 208 526T173 454T154 365T148
270Q148 203 159 142T193 41T251 -2V-82Z" />
<glyph unicode=")" glyph-name="parenright" horiz-adv-x="283" d="M9 671Q90 671 150 622T245 488T279 299Q279 231 262 159T211 26T124 -72T1 -110V19Q33 17 57 51T95 147T109 290Q109 403 85 472T9 542V671ZM24 650V554Q55 554 78 520T114 426T127 290Q127
211 114 149T75 49T16 2V-93Q60 -93 98 -69T166 -5T217 87T250 193T261 299Q261 360 245 422T199 535T124 618T24 650ZM32 642Q82 642 122 611T192 530T237 419T253 299Q253 249 242 196T211 92T162 2T98 -61T24 -85V-4Q54 5 75 34T110 106T129 196T135 290Q135
357 124 418T90 519T32 562V642Z" />
<glyph unicode="*" glyph-name="asterisk" horiz-adv-x="531" d="M183 63L65 148L170 266L13 295L60 437L204 370L185 526H334L316 369L461 436L506 296L351 266L458 149L337 64L261 199L183 63ZM177 88L261 237L343 90L431 152L317 276L483 309L450 412L295 341L314
508H206L225 340L71 412L36 309L204 276L90 151L177 88ZM174 101L104 153L221 282L49 316L76 400L236 326L216 500H304L284 327L444 400L471 316L299 282L418 154L346 103L261 254L174 101Z" />
<glyph unicode="+" glyph-name="plus" horiz-adv-x="412" d="M136 63V181H18V322H136V439H276V322H394V181H276V63H136ZM153 80H259V198H377V304H259V422H153V304H35V198H153V80ZM161 89V207H44V296H161V413H250V296H368V207H250V89H161Z" />
<glyph unicode="," glyph-name="comma" horiz-adv-x="192" d="M18 -139Q36 -87 43 -65T52 -35T54 -21Q54 -10 51 -5T42 8Q35 16 28 29T20 64Q20 96 42 118T96 140Q129 140 151 117T174 60Q174 17 155 -33T109 -139H18ZM37 -125H100Q126 -72 143 -26T160 60Q160
88 142 107T96 126Q70 126 52 108T34 64Q34 46 40 36T53 17Q59 9 63 1T68 -21Q68 -29 67 -37T59 -64T37 -125ZM47 -118Q60 -80 66 -63T73 -37T75 -21Q75 -5 70 4T58 21Q52 29 47 38T41 64Q41 88 57 103T96 119Q121 119 137 102T153 60Q153 22 137 -22T96 -118H47Z"
/>
<glyph unicode="-" glyph-name="hyphen" horiz-adv-x="234" d="M11 239V342H223V239H11ZM26 252H207V329H26V252ZM34 258V323H199V258H34Z" />
<glyph unicode="." glyph-name="period" horiz-adv-x="190" d="M94 -8Q63 -8 41 14T18 65Q18 97 40 118T94 139Q126 139 149 118T172 65Q172 36 149 14T94 -8ZM94 6Q121 6 139 23T158 65Q158 91 140 108T94 125Q68 125 50 108T32 65Q32 41 50 24T94 6ZM94 13Q71
13 56 28T40 65Q40 87 55 102T94 118Q117 118 133 103T150 65Q150 44 134 29T94 13Z" />
<glyph unicode="/" glyph-name="slash" horiz-adv-x="504" d="M11 -40L338 634H493L165 -40H11ZM39 -22H153L464 615H350L39 -22ZM54 -13L355 606H449L148 -13H54Z" />
<glyph unicode="0" glyph-name="zero" horiz-adv-x="364" d="M182 -11Q94 -11 50 41T6 208V426Q6 507 54 553T182 599Q262 599 310 553T358 426V208Q358 93 314 41T182 -11ZM182 7Q261 7 301 54T341 208V426Q341 498 298 539T182 581Q110 581 67 540T23 426V208Q23
102 63 55T182 7ZM182 16Q107 16 69 62T31 208V426Q31 494 72 533T182 572Q250 572 291 533T332 426V208Q332 108 294 62T182 16ZM182 100Q188 100 192 106Q196 111 196 127V458Q196 475 192 480Q187 485 182 485Q176 485 171 480Q167 475 167 458V127Q167 100
182 100ZM182 109Q176 109 176 127V458Q176 467 178 473Q180 476 182 476Q185 476 186 473Q188 467 188 458V127Q188 109 182 109Z" />
<glyph unicode="1" glyph-name="one" horiz-adv-x="277" d="M90 0V368H3V504Q32 504 64 524T113 591H268V0H90ZM106 18H252V573H125Q111 531 81 509T20 486V386H106V18ZM114 27V395H28V477Q54 477 84 497T130 564H244V27H114Z" />
<glyph unicode="2" glyph-name="two" horiz-adv-x="381" d="M4 0V141Q4 197 13 229T46 284T111 331H10V435Q10 593 193 593Q262 593 302 576T359 519T376 410Q376 336 354 294T282 220L257 206Q240 196 228 189T208 171H376V0H4ZM21 18H359V153H182Q187 176 204
191T250 222L274 235Q322 265 340 304T359 410Q359 471 344 507T293 559T193 575Q27 575 27 435V349H178Q169 340 161 336L142 326H143L133 321Q91 299 67 278T32 226T21 141V18ZM30 27V141Q30 191 40 221T73 272T137 313Q156 324 172 333T198 358T208 400V415Q208
435 205 449T191 464Q177 464 175 446Q174 436 174 423T173 390V358H36V435Q36 566 193 566Q253 566 287 551T335 502T350 410Q350 347 333 310T269 243Q241 227 220 215T186 186T172 143H350V27H30ZM182 352V390Q182 406 182 418T183 439Q184 455 191 455Q196
455 198 444Q199 438 199 431T200 415V400Q200 383 195 372T182 352Z" />
<glyph unicode="3" glyph-name="three" horiz-adv-x="362" d="M179 -5Q-4 -5 -4 153V248H73V349H-4V435Q-4 594 179 594Q277 594 319 560T361 448V396Q361 361 353 336T324 294Q361 264 361 195V153Q361 63 318 29T179 -5ZM179 13Q265 13 304 43T344 153V195Q344
269 290 294Q319 306 331 332T344 396V448Q344 515 306 545T179 575Q14 575 14 435V367H167V390Q167 406 167 418T168 439Q169 455 177 455Q182 455 184 444Q185 438 185 431T185 415V374Q185 363 176 354Q167 345 133 345H90V251H132Q159 251 172 247T185 226V173Q185
165 185 158T184 145Q183 133 177 133Q170 133 168 150Q167 158 167 170T167 198V230H14V153Q14 13 179 13ZM179 22Q22 22 22 153V221H159V198Q159 179 159 166T161 143Q162 124 177 124Q188 124 191 138T194 173V226Q194 248 179 254T132 260H99V336H133Q173 336
183 348Q194 359 194 374V415Q194 435 191 449T177 464Q163 464 161 446Q160 436 160 423T159 390V376H22V435Q22 566 179 566Q263 566 299 538T336 448V396Q336 351 314 324T247 294Q288 294 312 268T336 195V153Q336 79 299 51T179 22Z" />
<glyph unicode="4" glyph-name="four" horiz-adv-x="407" d="M158 0V103H4V215L168 591H349V252H403V103H349V0H158ZM176 18H331V121H385V234H331V573H179L21 212V121H176V18ZM185 27V130H30V211L185 564H323V225H377V130H323V27H185ZM137 225H185V349L137 225ZM149
234L176 302V234H149Z" />
<glyph unicode="5" glyph-name="five" horiz-adv-x="367" d="M184 -5Q1 -5 1 153V592H358V436H188V419Q195 423 204 425T230 428H252Q307 428 336 401T366 306V153Q366 63 323 29T184 -5ZM184 13Q270 13 309 43T349 153V306Q349 363 324 386T252 410H230Q209 410
195 405T171 391V454H341V573H19V266H172V292Q172 312 182 312Q188 312 189 304T190 285V173Q190 149 189 141T182 133Q176 133 174 140T172 173V230H19V153Q19 13 184 13ZM184 22Q27 22 27 153V221H164V173Q164 142 168 133T182 124Q191 124 195 132T199 173V285Q199
304 196 312T181 321Q164 321 164 292V275H27V564H332V463H162V366Q167 377 182 389T230 401H252Q295 401 318 380T341 306V153Q341 79 304 51T184 22Z" />
<glyph unicode="6" glyph-name="six" horiz-adv-x="368" d="M183 -11Q102 -11 54 32T6 169V442Q6 524 54 561T183 599Q264 599 307 562T351 442V383H322Q342 370 353 348T365 294V151Q365 72 314 31T183 -11ZM183 7Q255 7 301 43T348 151V294Q348 342 319 363T244
385Q227 385 209 381T177 366V458Q177 469 178 472T183 476Q189 476 189 458V402H333V442Q333 514 294 547T183 581Q111 581 67 548T23 442V169Q23 84 67 46T183 7ZM183 16Q114 16 73 52T32 169V442Q32 510 73 541T183 572Q251 572 288 541T325 442V411H197V458Q197
474 194 479T182 485Q168 485 168 458V345Q180 362 202 369T244 376Q286 376 312 357T339 294V151Q339 85 295 51T183 16ZM186 100Q193 100 198 106T203 127V269Q203 288 184 288Q179 288 175 286T168 281V127Q168 112 173 106T186 100ZM186 109Q181 109 179 115T177
127V277Q180 279 186 279Q195 279 195 269V127Q195 109 186 109Z" />
<glyph unicode="7" glyph-name="seven" horiz-adv-x="340" d="M6 0L141 436H2V591H336V458L312 379L194 0H6ZM30 18H182L296 385L319 461V573H19V454H165L30 18ZM41 27L176 463H28V564H311V461L288 388L176 27H41Z" />
<glyph unicode="8" glyph-name="eight" horiz-adv-x="361" d="M183 -5Q95 -5 48 33T1 153V209Q1 238 11 265T43 306Q24 324 16 349T7 403V453Q7 531 47 562T183 594Q281 594 319 562T358 453V403Q358 372 350 348T319 304Q344 288 352 262T360 210V153Q360 63
319 29T183 -5ZM183 13Q268 13 305 43T343 153V210Q343 240 334 266T291 304Q321 317 331 345T341 403V453Q341 521 305 548T183 575Q96 575 60 549T24 453V403Q24 325 71 304Q41 294 30 266T18 209V153Q18 81 61 47T183 13ZM183 22Q108 22 68 54T27 153V209Q27
221 30 239T45 274Q55 289 72 295T109 304Q66 310 50 333T33 403V453Q33 517 67 541T183 566Q264 566 298 542T333 453V403Q333 355 314 333T254 304Q296 302 315 277T334 210V153Q334 79 299 51T183 22ZM181 345Q198 345 198 375V459Q198 478 194 484T181 491Q172
491 168 485T163 459V375Q163 358 168 352T181 345ZM181 354Q177 354 175 358T172 375V459Q172 482 181 482Q190 482 190 459V375Q190 354 181 354ZM181 100Q198 100 198 127V231Q198 245 195 250T181 256Q163 256 163 231V127Q163 111 168 106T181 100ZM181 109Q172
109 172 127V231Q172 247 181 247Q186 247 188 244T190 231V127Q190 120 189 115T181 109Z" />
<glyph unicode="9" glyph-name="nine" horiz-adv-x="366" d="M183 -11Q102 -11 59 26T15 147V205H47Q25 221 13 251T1 335V437Q1 516 52 557T183 599Q264 599 312 556T360 419V147Q360 64 312 27T183 -11ZM183 7Q255 7 299 40T343 147V419Q343 504 299 542T183
581Q111 581 65 545T18 437V335Q18 264 44 234T122 203Q139 203 157 207T189 222V130Q189 112 183 112Q177 112 177 130V187H33V147Q33 74 72 41T183 7ZM183 16Q115 16 78 47T41 147V178H169V130Q169 103 183 103Q192 103 195 110T198 130V243Q186 226 164 219T122
212Q75 212 51 240T27 335V437Q27 503 71 537T183 572Q252 572 293 536T334 419V147Q334 79 293 48T183 16ZM182 300Q187 300 191 303T198 307V462Q198 477 194 482T181 488Q174 488 169 483T163 462V319Q163 309 169 305T182 300ZM182 310Q180 310 176 311T171
319V462Q171 479 180 479Q185 479 187 474T189 462V313Q188 310 182 310Z" />
<glyph unicode=":" glyph-name="colon" horiz-adv-x="190" d="M94 -8Q63 -8 41 14T18 65Q18 97 40 118T94 139Q126 139 149 118T172 65Q172 36 149 14T94 -8ZM94 6Q121 6 139 23T158 65Q158 91 140 108T94 125Q68 125 50 108T32 65Q32 41 50 24T94 6ZM94 13Q71
13 56 28T40 65Q40 87 55 102T94 118Q117 118 133 103T150 65Q150 44 134 29T94 13ZM94 239Q63 239 41 261T18 312Q18 344 40 365T94 386Q126 386 149 365T172 312Q172 283 149 261T94 239ZM94 253Q121 253 139 270T158 312Q158 338 140 355T94 372Q68 372 50 355T32
312Q32 288 50 271T94 253ZM94 260Q71 260 56 275T40 312Q40 334 55 349T94 365Q117 365 133 350T150 312Q150 291 134 276T94 260Z" />
<glyph unicode=";" glyph-name="semicolon" horiz-adv-x="192" d="M18 -139Q36 -87 43 -65T52 -35T54 -21Q54 -10 51 -5T42 8Q35 16 28 29T20 64Q20 96 42 118T96 140Q129 140 151 117T174 60Q174 17 155 -33T109 -139H18ZM37 -125H100Q126 -72 143 -26T160 60Q160
88 142 107T96 126Q70 126 52 108T34 64Q34 46 40 36T53 17Q59 9 63 1T68 -21Q68 -29 67 -37T59 -64T37 -125ZM47 -118Q60 -80 66 -63T73 -37T75 -21Q75 -5 70 4T58 21Q52 29 47 38T41 64Q41 88 57 103T96 119Q121 119 137 102T153 60Q153 22 137 -22T96 -118H47ZM95
239Q64 239 42 261T19 312Q19 344 41 365T95 386Q127 386 150 365T173 312Q173 283 150 261T95 239ZM95 253Q122 253 140 270T159 312Q159 338 141 355T95 372Q69 372 51 355T33 312Q33 288 51 271T95 253ZM95 260Q72 260 57 275T41 312Q41 334 56 349T95 365Q118
365 134 350T151 312Q151 291 135 276T95 260Z" />
<glyph unicode="&lt;" glyph-name="less" horiz-adv-x="269" d="M258 81L11 264V364L258 548V362L184 312L222 287Q242 274 258 263V81ZM242 115V254L153 312L242 372V514L27 354V274L242 115ZM234 131L35 278V350L234 498V377L137 312L234 248V131Z" />
<glyph unicode="=" glyph-name="equal" horiz-adv-x="359" d="M18 263V399H341V263H18ZM35 280H324V382H35V280ZM43 288V374H315V288H43ZM18 99V235H341V99H18ZM35 116H324V218H35V116ZM43 124V210H315V124H43Z" />
<glyph unicode="&gt;" glyph-name="greater" horiz-adv-x="269" d="M11 81V263L85 312L11 362V548L258 364V264L11 81ZM27 115L242 274V354L27 514V372L116 312L27 254V115ZM35 131V248L132 312L35 377V498L234 350V278L35 131Z" />
<glyph unicode="?" glyph-name="question" horiz-adv-x="383" d="M191 594Q260 594 300 577T357 520T375 411Q375 356 356 306T288 236Q279 232 271 230T254 226V152H232Q260 124 260 84Q260 49 236 20T168 -9Q139 -9 119 5T88 40T77 84Q77 104 84 121T105 152H85V318Q113
319 127 321T155 331H8V436Q8 594 191 594ZM191 577Q26 577 26 436V349H180V428Q180 457 189 457Q198 457 198 428V376Q198 343 172 322T102 301V170H237V241Q246 242 258 244T278 250Q323 270 340 316T357 411Q357 472 342 508T291 561T191 577ZM191 568Q251 568
285 553T333 504T348 411Q348 364 334 320T275 258Q266 254 250 252T229 250V179H111V292Q148 292 177 314T207 376V425Q207 465 189 465Q171 465 171 425V357H35V436Q35 568 191 568ZM168 160Q136 160 115 138T94 84Q94 53 115 31T168 8Q200 8 221 30T243 84Q243
116 222 138T168 160ZM168 151Q196 151 215 132T235 84Q235 56 216 37T168 17Q141 17 122 36T102 84Q102 112 121 131T168 151Z" />
<glyph unicode="@" glyph-name="at" horiz-adv-x="625" d="M319 -58Q228 -58 168 -37T71 26Q35 67 21 125T6 257Q6 338 24 401T79 508Q117 552 174 574T311 597Q377 597 433 580T532 527Q573 491 596 435T619 299Q619 242 604 186T552 94V-15Q513 -27 454 -42T319
-58ZM319 -39Q394 -39 447 -26T534 -2V89Q517 75 488 64T425 45T362 33T315 28Q248 31 203 51T135 121T113 257Q115 390 161 449T315 509Q418 509 469 452T521 297Q521 263 516 226T498 164T464 138Q441 138 437 158T433 205V361Q433 412 405 434T316 457Q256 457
228 427T198 341H270Q272 360 284 379T321 398Q342 398 348 387T355 361V327Q307 327 268 321T205 290T181 211Q181 159 207 137T285 114Q311 114 332 118T369 136Q377 113 396 96T461 78Q513 78 543 111T587 194T601 299Q601 374 579 427T519 514Q480 547 427
563T311 579Q236 579 182 557T93 494Q59 453 42 393T25 257Q25 187 38 132T86 39Q119 1 176 -19T319 -39ZM319 -30Q236 -30 181 -11T94 46Q61 82 48 135T34 257Q34 331 50 389T100 488Q167 570 311 570Q372 570 424 555T513 507Q551 474 571 423T592 299Q592 249
580 200T539 119T461 87Q415 87 399 105T374 158Q363 138 339 131T285 123Q238 123 214 143T190 211Q190 262 214 284T278 312T364 318V361Q364 378 356 392T321 407Q292 407 278 389T261 350H207Q209 397 234 422T316 448Q372 448 398 427T424 361V205Q424 174
429 152T464 129Q489 129 503 155T524 220T530 297Q530 399 477 459T315 519Q261 519 222 506T157 462Q105 402 104 257Q103 165 127 114T198 43T315 19Q330 18 358 21T420 32T481 48T525 70V5Q493 -5 442 -17T319 -30ZM316 47Q329 46 356 50T415 64Q392 69 379
81T359 109Q343 101 324 98T285 95Q225 95 194 122T163 211Q163 256 178 282T219 322H179Q181 396 213 435T316 475Q386 475 418 448T451 361V205Q451 195 451 187T453 171Q455 157 464 157Q480 157 488 179T499 235T503 297Q503 384 457 437T315 491Q216 491 174
436T131 257Q130 177 150 132T213 68T316 47ZM290 343Q294 344 311 344T337 345V361Q337 366 335 372T321 379Q297 379 290 343ZM302 159Q337 159 350 179T364 221V286Q324 286 299 282T263 262T252 214Q252 194 261 177T302 159ZM302 169Q276 169 269 183T261
214Q261 252 281 264T355 277V221Q355 203 344 186T302 169ZM302 187Q322 187 329 198T337 221V258Q305 256 293 247T280 214Q280 204 283 196T302 187Z" />
<glyph unicode="A" glyph-name="A" horiz-adv-x="414" d="M1 0L83 591H333L413 0H1ZM21 18H190L196 96H211L219 18H393L318 573H98L21 18ZM31 27L105 564H310L382 27H226L219 105H187L182 27H31ZM188 175H219L204 450L188 175ZM197 184L204 291L211 184H197Z" />
<glyph unicode="B" glyph-name="B" horiz-adv-x="383" d="M9 0V591H234Q305 591 336 558T368 472V414Q368 355 337 320Q381 288 381 211V141Q381 61 340 31T226 0H9ZM26 18H226Q292 18 327 45T363 141V211Q363 299 303 317Q328 331 339 356T350 414V472Q350 517
323 545T234 573H26V18ZM34 27V564H234Q291 564 316 539T342 472V414Q342 376 325 349T266 316V314Q303 314 329 289T355 211V141Q355 76 321 52T226 27H34ZM177 343H188Q198 343 202 364Q204 375 205 387T206 415Q206 431 206 444T204 467Q203 488 190 488H177V343ZM186
352V478H190Q195 478 196 460Q197 450 197 439T197 415Q197 402 197 391T195 371Q194 352 188 352H186ZM177 101H190Q199 101 203 123Q206 146 206 177Q206 193 206 206T204 231Q203 253 190 253H177V101ZM186 110V244H190Q195 244 196 225Q197 215 197 203T197
177Q197 163 197 152T196 130Q194 110 190 110H186Z" />
<glyph unicode="C" glyph-name="C" horiz-adv-x="370" d="M189 -10Q128 -10 88 6T27 65T7 186V453Q7 534 57 568T189 603Q271 603 317 569T364 453V301H201V283H364V187Q364 108 346 66T289 7T189 -10ZM189 8Q244 8 278 23T330 77T347 187V265H194V116Q194 108
188 108Q183 108 183 116V460Q183 478 189 478Q194 478 194 460V319H347V453Q347 525 305 555T189 585Q115 585 70 555T24 453V186Q24 116 42 77T97 23T189 8ZM189 17Q136 17 102 31T50 82T33 186V453Q33 520 75 548T189 576Q259 576 298 549T338 453V328H202V460Q202
471 200 479T189 487Q180 487 178 479T175 460V117Q175 112 178 107T188 101Q196 101 199 106T202 117V256H338V187Q338 120 323 83T275 32T189 17Z" />
<glyph unicode="D" glyph-name="D" horiz-adv-x="373" d="M9 0V591H234Q304 591 335 558T366 472V141Q366 61 326 31T213 0H9ZM27 18H213Q278 18 313 45T349 141V472Q349 517 322 545T234 573H27V18ZM35 27V564H234Q291 564 316 539T341 472V141Q341 76 307 52T213
27H35ZM177 100H190Q198 100 201 106T205 122V461Q205 484 188 484H177V100ZM186 109V475H190Q196 475 196 462V122Q196 109 189 109H186Z" />
<glyph unicode="E" glyph-name="E" horiz-adv-x="301" d="M9 0V591H295V436H195V386H286V218H195V153H295V0H9ZM26 16H278V134H179V236H269V368H179V454H278V575H26V16ZM34 24V567H270V463H171V359H261V245H171V125H270V24H34Z" />
<glyph unicode="F" glyph-name="F" horiz-adv-x="301" d="M9 0V591H295V436H195V386H286V218H195V0H9ZM25 18H179V236H270V368H179V454H278V573H25V18ZM33 27V564H270V463H171V359H262V245H171V27H33Z" />
<glyph unicode="G" glyph-name="G" horiz-adv-x="370" d="M143 -9Q103 -9 72 7T24 61T7 165V453Q7 535 55 569T183 603Q265 603 314 569T364 453V0H215L212 16Q199 5 183 -2T143 -9ZM143 9Q175 9 193 23T220 55L229 18H347V324H177V462Q177 480 188 480Q198 480
198 462V362H347V453Q347 524 302 554T183 585Q111 585 68 555T24 453V165Q24 77 57 43T143 9ZM143 18Q92 18 63 50T33 165V453Q33 520 74 548T183 576Q252 576 295 548T338 453V371H207V462Q207 478 202 483T188 489Q180 489 175 484T169 462V127Q169 111 174
106T188 100Q196 100 201 105T207 127V234H185V315H338V27H236L224 84Q216 62 198 40T143 18ZM188 109Q177 109 177 127V225H198V127Q198 109 188 109Z" />
<glyph unicode="H" glyph-name="H" horiz-adv-x="372" d="M9 0V591H363V0H9ZM26 18H180V241H193V18H346V573H193V365H180V573H26V18ZM35 27V564H171V356H202V564H338V27H202V250H171V27H35Z" />
<glyph unicode="I" glyph-name="I" horiz-adv-x="177" d="M9 0V591H168V0H9ZM24 16H152V575H24V16ZM32 24V567H145V24H32Z" />
<glyph unicode="J" glyph-name="J" horiz-adv-x="248" d="M69 -1Q62 -1 44 -1T2 3V153H49Q57 153 59 155T62 169V591H236V172Q236 107 220 69T167 15T69 -1ZM46 17H69Q124 17 157 31T205 79T220 172V573H78V169Q78 148 73 141T49 134H18V19Q24 18 31 18T46 17ZM47
26Q40 26 35 26T26 27V125H49Q72 125 79 133T86 169V564H212V172Q212 88 180 57T69 26H47Z" />
<glyph unicode="K" glyph-name="K" horiz-adv-x="414" d="M9 0V591H411L315 306L412 0H202L199 17V0H9ZM26 18H181V182L216 18H388Q377 53 365 89T342 162L297 306L387 573H209L181 436V573H26V18ZM35 27V564H173V345L216 564H375L288 306L377 27H223L173 269V27H35Z" />
<glyph unicode="L" glyph-name="L" horiz-adv-x="279" d="M9 0V591H186V153H275V0H9ZM26 18H259V134H170V573H26V18ZM34 27V564H162V125H251V27H34Z" />
<glyph unicode="M" glyph-name="M" horiz-adv-x="508" d="M9 0V591H239L254 483L269 591H499V0H9ZM27 18H169V255L199 18H310L340 255V18H481V573H285L254 357L224 573H27V18ZM36 27V564H216L254 290L293 564H473V27H349V401L301 27H207L160 401V27H36Z" />
<glyph unicode="N" glyph-name="N" horiz-adv-x="367" d="M9 0V591H172L189 527V591H358V0H196L179 63V0H9ZM26 18H162V184L209 18H341V573H206V384L160 573H26V18ZM35 27V564H153L214 314V564H333V27H216L154 250V27H35Z" />
<glyph unicode="O" glyph-name="O" horiz-adv-x="371" d="M189 -11Q128 -11 88 5T27 64T7 185V452Q7 533 57 567T189 602Q271 602 317 568T364 452V186Q364 107 346 65T289 6T189 -11ZM189 6Q244 6 278 21T330 75T347 186V452Q347 525 305 555T189 585Q115 585
70 555T24 452V185Q24 114 42 75T97 21T189 6ZM189 15Q136 15 102 29T50 80T33 185V452Q33 520 75 548T189 576Q259 576 298 549T338 452V186Q338 118 323 81T275 30T189 15ZM189 100Q196 100 199 104T202 125V461Q202 475 200 480T189 486Q182 486 179 481T175
461V125Q175 100 189 100ZM189 108Q183 108 183 122V465Q183 477 189 477Q194 477 194 465V122Q194 108 189 108Z" />
<glyph unicode="P" glyph-name="P" horiz-adv-x="372" d="M9 0V591H234Q304 591 335 558T366 472V383Q366 335 355 294T317 228T241 203H203V0H9ZM27 18H186V222H241Q283 222 306 244T339 302T349 383V472Q349 517 322 545T234 573H27V18ZM35 27V564H234Q291 564
316 539T341 472V383Q341 342 332 308T302 252T241 231H177V27H35ZM177 309H186Q197 309 201 323T205 378V435Q205 470 201 479T186 488H177V309ZM185 318V478H189Q194 478 195 469T197 424V378Q197 340 194 329T189 318H185Z" />
<glyph unicode="Q" glyph-name="Q" horiz-adv-x="385" d="M244 -129L180 -11Q122 -9 84 8T26 67T7 188V457Q7 540 56 575T189 610Q272 610 318 575T365 457V188Q365 137 356 102T330 43L378 -45L244 -129ZM250 -104L354 -39L310 45Q328 65 338 99T348 188V457Q348
530 306 560T189 591Q115 591 70 561T24 457V188Q24 116 42 77T97 23T189 7L250 -104ZM253 -91L195 17H189Q137 17 102 31T50 83T33 188V457Q33 526 75 554T189 582Q259 582 299 554T339 457V188Q339 132 329 99T299 46L342 -35L253 -91ZM189 102Q203 102 203 129V465Q203
482 200 487T189 492Q183 492 179 487T175 465V129Q175 102 189 102ZM189 111Q184 111 184 124V470Q184 483 189 483Q191 483 192 481T194 470V124Q194 111 189 111Z" />
<glyph unicode="R" glyph-name="R" horiz-adv-x="412" d="M9 0V591H236Q307 591 339 558T371 472V390Q371 358 363 329T330 280Q338 271 342 260T354 229L410 0H9ZM26 18H187V172L217 18H388L339 218Q329 247 320 260T300 281Q329 298 341 328T353 390V472Q353
516 326 544T236 573H26V18ZM35 27V564H236Q293 564 319 539T345 472V390Q345 350 330 321T273 280Q293 278 306 266T329 222L377 27H225L179 254V27H35ZM178 318H187Q198 318 202 333T206 385V435Q206 470 202 479T187 488H178V318ZM186 327V478H190Q195 478 196
469T198 424V385Q198 349 195 338T190 327H186Z" />
<glyph unicode="S" glyph-name="S" horiz-adv-x="387" d="M188 -7Q124 -7 84 10T25 67T5 181V223H121Q78 239 54 261T19 319T9 411Q9 480 26 520T83 577T193 594Q376 594 376 436V348H300Q331 332 348 312T374 262T382 183Q382 80 332 37T188 -7ZM188 11Q273 11
319 50T365 183Q365 237 356 266T322 312T249 348Q233 354 225 358T211 366H359V436Q359 576 193 576Q130 576 94 560T43 508T27 411Q27 347 45 307T115 243Q138 232 153 224T180 207H22V181Q22 84 61 48T188 11ZM188 20Q106 20 69 54T31 181V198H175V145Q175 119
179 110T193 101Q203 101 206 112T210 151Q210 181 201 197T171 224T118 251Q69 274 52 311T35 411Q35 469 49 503T98 551T193 566Q350 566 350 436V375H213V390Q213 409 213 422T211 446Q210 465 195 465Q188 465 183 457T178 421Q178 392 186 378T211 357T248
341Q289 325 312 308T346 263T356 183Q356 94 312 57T188 20ZM204 371Q196 378 191 389T186 421Q186 442 188 449T195 456Q201 456 203 439Q204 431 204 419T204 390V371ZM193 110Q187 110 186 118T184 148V205Q193 195 197 182T202 148Q202 125 200 118T193 110Z"
/>
<glyph unicode="T" glyph-name="T" horiz-adv-x="335" d="M75 0V436H3V591H332V436H261V0H75ZM92 18H244V454H316V573H20V454H92V18ZM101 27V463H29V564H307V463H235V27H101Z" />
<glyph unicode="U" glyph-name="U" horiz-adv-x="376" d="M188 -11Q127 -11 89 3T31 57T12 176V591H364V176Q364 98 345 58T287 3T188 -11ZM188 6Q243 6 278 19T330 68T347 176V574H194V127Q194 114 188 114Q182 114 182 127V574H29V176Q29 106 46 70T98 20T188
6ZM188 15Q138 15 105 27T55 74T38 176V566H174V129Q174 105 188 105Q203 105 203 129V566H339V176Q339 109 323 74T273 27T188 15Z" />
<glyph unicode="V" glyph-name="V" horiz-adv-x="418" d="M86 0L3 591H202L211 473L223 591H415L331 0H86ZM101 18H316L395 573H238L211 275L185 573H23L101 18ZM109 27L34 564H177L209 192L210 170L211 192L246 564H385L308 27H109Z" />
<glyph unicode="W" glyph-name="W" horiz-adv-x="636" d="M89 0L3 591H210L221 436L231 591H403L414 436L426 591H633L546 0H329L317 76L306 0H89ZM105 18H292L318 198L345 18H531L612 573H442L413 304L386 573H249L221 304L193 573H24L105 18ZM113 27L34 564H185L222
209L257 564H378L413 209L450 564H601L522 27H353L317 261L283 27H113Z" />
<glyph unicode="X" glyph-name="X" horiz-adv-x="414" d="M2 0L79 306L3 591H198L205 538L211 591H412L338 305L409 0H217L211 63L205 0H2ZM25 18H191L209 120L231 18H388L321 306L389 573H224L205 471L183 573H26L97 306L25 18ZM36 27L106 306L38 564H176L206
423L231 564H378L311 306L376 27H238L208 167L183 27H36Z" />
<glyph unicode="Y" glyph-name="Y" horiz-adv-x="407" d="M108 0V244L1 591H193L209 527L225 591H406L297 236V0H108ZM125 18H280V239L382 573H238L209 456L180 573H25L125 247V18ZM134 27V250L38 564H173L201 451L209 404L217 451L245 564H370L271 241V27H134Z" />
<glyph unicode="Z" glyph-name="Z" horiz-adv-x="296" d="M4 0V120L85 436H13V591H292V492L205 155H292V0H4ZM21 18H276V137H183L276 493V573H29V454H107L21 119V18ZM29 27V116L118 463H37V564H267V496L172 128H267V27H29Z" />
<glyph unicode="[" glyph-name="bracketleft" horiz-adv-x="269" d="M10 -52V635H263V506H177V76H263V-52H10ZM26 -34H247V58H161V524H247V616H26V-34ZM34 -25V607H239V533H153V49H239V-25H34Z" />
<glyph unicode="\" glyph-name="backslash" horiz-adv-x="556" d="M340 -40L11 634H183L513 -40H340ZM352 -22H485L172 615H40L352 -22ZM357 -13L55 606H166L470 -13H357Z" />
<glyph unicode="]" glyph-name="bracketright" horiz-adv-x="269" d="M6 -52V76H92V506H6V635H259V-52H6ZM22 -34H243V616H22V524H108V58H22V-34ZM30 -25V49H116V533H30V607H235V-25H30Z" />
<glyph unicode="^" glyph-name="asciicircum" horiz-adv-x="449" d="M11 319L179 543H271L438 319H269L227 383L183 319H11ZM43 335H173Q185 353 199 374T227 413L278 335H405L261 528H189L43 335ZM60 343L193 520H257L389 343H284L227 429L168 343H60Z" />
<glyph unicode="_" glyph-name="underscore" horiz-adv-x="665" d="M11 -85V-5H654V-85H11ZM29 -74H636V-17H29V-74ZM38 -68V-22H627V-68H38Z" />
<glyph unicode="`" glyph-name="grave" horiz-adv-x="225" d="M159 660L225 538H122L0 660H159ZM202 550L150 646H33L128 550H202ZM190 557H131L50 639H146L190 557Z" />
<glyph unicode="a" glyph-name="a" horiz-adv-x="356" d="M114 -6Q90 -6 65 1T22 32T5 107V179Q5 255 71 287H14V372Q14 439 48 472T175 506Q239 506 277 496T332 456T349 372V0H165V4Q144 -6 114 -6ZM114 12Q140 12 156 19T182 38V18H332V372Q332 421 317 445T268
479T175 488Q93 488 62 460T31 372V305H155Q149 301 139 298T115 289Q96 282 74 271T37 238T22 179V107Q22 65 36 45T72 18T114 12ZM114 21Q95 21 76 26T44 50T31 107V179Q31 217 47 238T91 271T147 293Q173 302 180 315T188 354V382Q188 393 186 399T174 406Q165
406 162 397Q159 388 159 371V314H39V372Q39 425 68 452T175 479Q230 479 262 471T309 439T324 372V27H191V71Q186 54 169 38T114 21ZM168 313V371Q168 397 174 397Q180 397 180 382V354Q180 325 168 313ZM174 98Q186 98 187 110Q188 116 188 123T188 141V247Q175
239 167 227T159 193V135Q159 120 161 109T174 98ZM174 107Q169 107 169 116L168 135V193Q168 216 180 229V117Q180 107 174 107Z" />
<glyph unicode="b" glyph-name="b" horiz-adv-x="362" d="M213 -6Q188 -6 172 -1T143 12L137 0H9V631H193V497Q212 505 235 505Q268 505 295 494T339 454T355 376V168Q355 96 340 59T293 8T213 -6ZM213 12Q255 12 283 24T324 69T338 168V376Q338 420 324 444T287
477T235 487Q213 487 199 481T176 465V612H26V18H126Q128 22 130 27T135 38Q146 30 165 21T213 12ZM213 21Q177 21 157 35Q147 42 141 46T132 55Q132 54 128 44T121 27H34V603H167V439Q175 452 189 465T235 478Q274 478 301 457T329 376V168Q329 107 317 75T279
32T213 21ZM182 101Q188 101 192 107Q196 111 196 128V364Q196 381 192 386Q187 391 182 391Q176 391 171 386Q167 381 167 364V128Q167 111 171 107Q176 101 182 101ZM182 110Q179 110 178 114Q176 118 176 128V364Q176 373 178 379Q180 382 182 382Q185 382 186
379Q188 373 188 364V128Q188 118 186 114Q185 110 182 110Z" />
<glyph unicode="c" glyph-name="c" horiz-adv-x="355" d="M180 -11Q120 -11 82 3T26 58T7 176V361Q7 442 52 473T180 504Q263 504 308 473T353 361V263H191V245H353V176Q353 98 334 58T277 4T180 -11ZM180 7Q234 7 268 20T319 69T336 176V227H186V111Q186 97 180
97Q174 97 174 111V379Q174 397 180 397Q186 397 186 379V281H336V361Q336 433 296 459T180 486Q105 486 65 460T24 361V176Q24 106 40 70T92 20T180 7ZM180 16Q129 16 96 28T48 75T32 176V361Q32 428 70 452T180 477Q251 477 289 453T327 361V290H194V379Q194
406 180 406Q165 406 165 379V115Q165 88 180 88Q194 88 194 115V218H327V176Q327 110 312 76T264 29T180 16Z" />
<glyph unicode="d" glyph-name="d" horiz-adv-x="362" d="M149 -6Q101 -6 70 7T23 58T7 168V385Q7 433 24 459T68 496T122 507Q151 507 169 499V631H353V0H220L215 16Q204 7 188 1T149 -6ZM149 12Q178 12 195 24T222 49L232 18H336V612H186V467Q176 477 161 483T122
489Q99 489 76 480T39 449T24 385V168Q24 103 37 70T78 24T149 12ZM149 21Q110 21 84 32T46 75T33 168V385Q33 422 46 442T80 470T122 479Q156 479 171 468T195 443V603H327V27H238L224 70Q218 56 200 39T149 21ZM180 101Q195 101 195 128V398Q192 399 189 399T180
400Q166 400 166 373V128Q166 101 180 101ZM180 110Q174 110 174 128V373Q174 391 180 391H186V128Q186 110 180 110Z" />
<glyph unicode="e" glyph-name="e" horiz-adv-x="355" d="M180 -11Q120 -11 82 3T26 58T7 176V361Q7 442 52 473T180 504Q263 504 308 473T353 361V176Q353 98 334 58T277 4T180 -11ZM180 7Q234 7 268 20T319 69T336 176V204H186V115Q186 104 185 101T180 97Q174
97 174 115V227H336V361Q336 433 296 459T180 486Q105 486 65 460T24 361V176Q24 106 40 70T92 20T180 7ZM180 16Q129 16 96 28T48 75T32 176V361Q32 428 70 452T180 477Q251 477 289 453T327 361V236H165V115Q165 99 169 94T180 88Q194 88 194 115V195H327V176Q327
110 312 76T264 29T180 16ZM165 296H194V381Q194 406 180 406Q173 406 169 401T165 381V296ZM174 305V382Q174 397 180 397Q186 397 186 382V305H174Z" />
<glyph unicode="f" glyph-name="f" horiz-adv-x="276" d="M29 0V356H3V487H29V494Q29 564 59 596T156 628Q199 628 223 625T273 617L272 503Q262 505 247 507T218 509Q208 509 208 499V487H273V356H208V0H29ZM47 18H190V374H256V469H190V505Q190 527 214 527Q223
527 233 526T256 522V603Q234 607 207 608T156 610Q98 610 73 583T47 494V469H21V374H47V18ZM55 26V382H29V461H55V494Q55 556 79 579T156 602Q182 602 210 600T248 596V532Q242 533 232 534T208 535Q182 535 182 505V461H248V382H182V26H55Z" />
<glyph unicode="g" glyph-name="g" horiz-adv-x="365" d="M187 -104Q169 -104 145 -101T98 -92T60 -84V38Q29 55 18 96T7 206V384Q7 433 24 460T67 499T122 510Q164 510 187 494L192 506H353V124Q353 80 348 39T327 -34T277 -85T187 -104ZM187 -86Q238 -86 268
-68T312 -20T331 47T336 124V487H203L193 464Q183 475 166 483T122 492Q99 492 77 483T39 450T24 384V206Q24 143 33 109T64 60T119 46Q147 46 162 53T186 72V49Q186 25 172 18T138 11Q115 11 77 22V-70Q94 -75 125 -80T187 -86ZM187 -77Q158 -77 130 -73T85 -63V10Q112
2 138 2Q161 2 177 11T194 49V108Q187 88 174 72T119 56Q87 56 68 68T41 114T32 206V384Q32 423 45 444T79 474T122 483Q156 483 171 472T194 446L208 478H327V124Q327 87 323 51T306 -14T264 -60T187 -77ZM180 138Q194 138 194 166V396Q188 399 180 399Q165 399
165 375V166Q165 138 180 138ZM180 148Q174 148 174 162V372Q174 383 176 386T182 390H186V162Q186 148 180 148Z" />
<glyph unicode="h" glyph-name="h" horiz-adv-x="363" d="M9 1V629H185V488Q195 495 209 499T240 504Q296 504 326 471T356 366V1H9ZM27 19H176V382Q178 383 183 383Q189 383 189 365V19H338V366Q338 428 315 457T243 486Q216 486 197 477T167 452V611H27V19ZM35
27V603H159V412Q164 444 187 461T243 478Q287 478 308 452T330 366V27H197V365Q197 391 183 391Q174 391 168 388V27H35Z" />
<glyph unicode="i" glyph-name="i" horiz-adv-x="174" d="M9 0V495H165V0H9ZM23 18H151V477H23V18ZM31 27V468H143V27H31ZM87 528Q58 528 37 549T15 599Q15 630 35 651T87 673Q116 673 137 654T159 599Q159 571 138 550T87 528ZM87 544Q110 544 126 560T143 599Q143
625 127 640T87 655Q63 655 47 639T31 599Q31 577 47 561T87 544ZM87 552Q66 552 53 567T39 599Q39 618 52 632T87 647Q106 647 120 633T135 599Q135 582 121 567T87 552Z" />
<glyph unicode="j" glyph-name="j" horiz-adv-x="221" d="M54 -108Q26 -108 -23 -97V26H30Q34 26 37 29T41 36V495H213V89Q213 -14 170 -61T54 -108ZM54 -89Q120 -89 158 -47T197 89V476H57V36Q57 25 49 16T30 7H-7V-82Q8 -86 23 -87T54 -89ZM1 -74V-2H30Q43 -2
54 10T65 36V467H189V89Q189 15 164 -24T97 -74T1 -74ZM128 528Q99 528 78 549T56 599Q56 630 76 651T128 673Q157 673 178 654T200 599Q200 571 179 550T128 528ZM128 544Q151 544 167 560T184 599Q184 625 168 640T128 655Q104 655 88 639T72 599Q72 577 88 561T128
544ZM128 552Q107 552 94 567T80 599Q80 618 93 632T128 647Q147 647 161 633T176 599Q176 582 162 567T128 552Z" />
<glyph unicode="k" glyph-name="k" horiz-adv-x="412" d="M9 0V630H196V441L220 507H411L324 284L405 0H204L196 30V0H9ZM26 18H178V197L216 18H381L306 286L385 488H232L178 340V612H26V18ZM35 27V603H170V291L238 479H372L296 286L369 27H223L170 285V27H35Z" />
<glyph unicode="l" glyph-name="l" horiz-adv-x="174" d="M9 0V630H165V0H9ZM23 18H151V612H23V18ZM31 27V603H143V27H31Z" />
<glyph unicode="m" glyph-name="m" horiz-adv-x="550" d="M9 1V495H176L179 477Q193 488 211 494T254 501Q280 501 302 493T340 468Q356 484 377 492T428 501Q486 501 514 467T543 358V1H9ZM27 19H183V370H190Q194 370 196 367T198 353V19H354V370H361Q365 370
367 367T369 353V19H525V358Q525 426 501 454T418 483Q394 483 373 471T340 438Q315 483 247 483Q197 483 168 438L161 477H27V19ZM35 27V469H154L165 411Q173 439 195 457T247 475Q288 475 309 461T339 419Q348 443 369 459T418 475Q477 475 497 446T517 358V27H377V353Q377
378 361 378Q358 378 354 378T346 375V27H206V353Q206 378 190 378Q187 378 183 378T175 375V27H35Z" />
<glyph unicode="n" glyph-name="n" horiz-adv-x="362" d="M9 0V496H168L171 478Q200 502 243 502Q308 502 331 467T355 358V0H9ZM26 18H175V368Q177 369 182 369Q188 369 188 359V18H338V358Q338 420 318 452T242 484Q214 484 194 473T161 441L155 478H26V18ZM34
27V469H148L158 411Q166 439 188 457T243 475Q293 475 311 446T329 358V27H196V356Q196 370 192 374T180 378Q173 378 167 375V27H34Z" />
<glyph unicode="o" glyph-name="o" horiz-adv-x="360" d="M180 -11Q120 -11 82 3T26 58T7 176V361Q7 442 52 473T180 504Q263 504 308 473T353 361V176Q353 98 334 58T277 4T180 -11ZM180 7Q234 7 268 20T319 69T336 176V361Q336 433 296 459T180 486Q105 486
65 460T24 361V176Q24 106 40 70T92 20T180 7ZM180 16Q129 16 96 28T48 75T32 176V361Q32 428 70 452T180 477Q251 477 289 453T327 361V176Q327 110 312 76T264 29T180 16ZM180 88Q191 88 193 96T195 112V382Q195 396 192 401T180 406Q173 406 169 402T165 382V112Q165
102 167 95T180 88ZM180 97Q174 97 174 112V382Q174 397 180 397Q186 397 186 382V112Q186 97 180 97Z" />
<glyph unicode="p" glyph-name="p" horiz-adv-x="362" d="M9 -106V499H192V495Q204 501 217 503T244 505Q273 505 298 494T339 455T355 377V168Q355 74 324 35T235 -5Q208 -5 193 2V-106H9ZM26 -88H176V34Q186 25 200 19T235 13Q285 13 311 48T338 168V377Q338
442 309 465T240 488Q217 488 202 482T176 466V481H26V-88ZM34 -78V472H167V440Q176 453 191 466T240 479Q277 479 303 458T329 377V168Q329 88 306 55T235 22Q206 22 191 33T167 60V-78H34ZM182 100Q197 100 197 128V368Q197 392 179 392Q171 392 167 390V128Q167
100 182 100ZM182 109Q176 109 176 124V383H180Q188 383 188 370V124Q188 109 182 109Z" />
<glyph unicode="q" glyph-name="q" horiz-adv-x="362" d="M169 -106V2Q151 -6 124 -6Q88 -6 62 8T21 61T7 168V379Q7 429 24 456T67 494T122 505Q136 505 147 503T169 495V501H353V-106H169ZM186 -87H336V483H186V466Q176 476 161 481T122 487Q99 487 77 478T39
445T24 379V168Q24 107 36 73T71 26T124 12Q147 12 161 18T186 36V-87ZM194 -78V65Q187 48 172 35T124 21Q95 21 74 33T43 78T32 168V379Q32 418 45 439T79 469T122 478Q156 478 171 467T194 442V473H327V-78H194ZM180 100Q194 100 194 123V391Q187 394 180 394Q165
394 165 373V123Q165 100 180 100ZM180 108Q174 108 174 120V371Q174 385 180 385Q184 385 186 384V120Q186 108 180 108Z" />
<glyph unicode="r" glyph-name="r" horiz-adv-x="285" d="M9 0V495H167V471Q190 488 220 493T283 491V331Q269 334 258 336T230 339Q202 339 194 326T186 276V0H9ZM25 18H170V276Q170 324 183 340T230 357Q238 357 248 356T267 353V477Q234 485 204 474T157 437L150
478H25V18ZM34 27V469H143L153 412Q165 447 195 462T258 470V363Q251 364 244 364T230 365Q192 365 177 347T162 276V27H34Z" />
<glyph unicode="s" glyph-name="s" horiz-adv-x="368" d="M182 -13Q82 -13 44 27T5 156V213H75Q51 229 34 255T16 327V352Q16 434 56 470T193 506Q291 506 327 468T363 343V288H303Q329 273 346 248T363 179V147Q363 62 323 25T182 -13ZM182 5Q271 5 308 38T346
147V179Q346 226 321 252T258 290L241 295Q233 297 226 299T212 306H346V343Q346 420 313 454T193 489Q105 489 69 457T33 352V327Q33 277 61 250T127 209Q132 207 143 202T158 195H22V156Q22 77 56 41T182 5ZM182 14Q96 14 64 48T31 156V186H165V118Q165 101 169
95T180 88Q188 88 191 95T194 112V153Q194 185 174 196T123 220Q91 234 67 257T42 327V352Q42 420 76 450T193 480Q275 480 306 448T337 343V315H208V382Q208 406 194 406Q187 406 183 402T179 383V341Q179 319 195 307T255 280Q290 269 313 247T337 179V147Q337
77 302 46T182 14ZM200 314Q188 323 188 341V383Q188 397 194 397Q200 397 200 383V314ZM180 97Q177 97 176 100T174 114V186Q186 174 186 153V112Q186 97 180 97Z" />
<glyph unicode="t" glyph-name="t" horiz-adv-x="294" d="M191 -5Q151 -5 117 5T63 44T42 132V368H1V475L58 497L76 585H221V504H290V368H221V156Q221 141 239 141Q249 141 263 143T290 147V15Q282 12 273 10T255 5Q240 1 223 -2T191 -5ZM191 14Q206 14 220 16T247
21Q254 23 260 24T274 28V129Q260 128 249 127T233 125Q219 125 212 131T204 156V386H274V486H204V567H89L71 483L18 462V386H58V132Q58 82 76 57T125 23T191 14ZM191 23Q158 23 130 30T85 61T67 132V395H26V456L78 477L96 558H196V477H265V395H196V156Q196 131
206 123T233 115Q241 115 250 116T265 119V35L242 29Q220 23 191 23Z" />
<glyph unicode="u" glyph-name="u" horiz-adv-x="367" d="M125 -6Q58 -6 35 29T12 138V495H358V0H198L195 18Q181 7 165 1T125 -6ZM127 12Q154 12 173 23T205 54L212 18H341V478H191V129Q189 127 186 127Q179 127 179 139V478H29V138Q29 75 49 44T127 12ZM126
21Q74 21 56 50T37 138V469H170V137Q170 118 187 118Q195 118 199 122V469H332V27H219L209 85Q201 57 180 39T126 21Z" />
<glyph unicode="v" glyph-name="v" horiz-adv-x="399" d="M98 0L2 495H195L206 417L214 495H397L302 0H98ZM112 18H288L376 477H230L207 276L181 477H23L112 18ZM119 27L34 468H173L207 211L208 191L209 211L238 468H366L281 27H119Z" />
<glyph unicode="w" glyph-name="w" horiz-adv-x="628" d="M100 0L0 495H192L207 390L221 495H406L423 392L435 495H628L527 0H314L313 28L310 0H100ZM114 18H294L313 144L333 18H513L606 477H452L427 259L391 477H237L206 258L176 477H22L114 18ZM122 27L32 468H167L206
191L245 468H382L429 191L460 468H595L505 27H341L313 203L286 27H122Z" />
<glyph unicode="x" glyph-name="x" horiz-adv-x="397" d="M-2 0L86 253L17 495H200L207 457Q214 482 215 488T218 495H398L317 253L390 0H206L199 40L187 0H-2ZM24 18H174L201 103L220 18H367L299 254L373 477H231L205 392L186 477H39L104 252L24 18ZM36 27L112
253L51 468H179L203 356L238 468H362L289 253L355 27H227L202 139L168 27H36Z" />
<glyph unicode="y" glyph-name="y" horiz-adv-x="385" d="M139 -106Q107 -106 70 -100T9 -86V43Q23 39 40 35T72 30Q85 30 82 46L-5 495H189L198 412L207 495H390L309 78Q291 -22 250 -64T139 -106ZM139 -87Q200 -87 238 -47T293 82L369 477H223L198 260L174 477H16L100
40Q105 11 72 11Q65 11 56 13T27 20V-72Q45 -77 76 -82T139 -87ZM139 -78Q109 -78 81 -74T35 -64V8Q59 2 73 2Q94 2 104 11T109 42L27 468H166L197 188L198 168L199 188L231 468H359L284 84Q268 3 234 -37T139 -78Z" />
<glyph unicode="z" glyph-name="z" horiz-adv-x="300" d="M3 0V84L91 353H16V495H297V406L214 147H297V0H3ZM20 18H281V129H190L281 409V477H32V371H115L20 80V18ZM28 27V80L126 380H41V468H272V409L179 120H272V27H28Z" />
<glyph unicode="{" glyph-name="braceleft" horiz-adv-x="257" d="M229 -127Q164 -127 113 -107T33 -47T4 47Q4 81 14 106T37 150T61 181T71 203Q71 226 18 226V322Q42 322 56 327T71 342Q71 353 61 365T38 394T14 438T4 501Q4 556 31 594T106 653T213 674H266V548Q238
548 218 534T197 487Q197 462 206 441T225 395T234 336Q234 295 209 274Q234 256 234 210Q234 177 225 156T207 113T197 60Q197 29 213 14T266 -1V-127H229ZM229 -109H250V-17Q225 -17 203 1T180 60Q180 92 189 114T208 158T218 210Q218 233 210 249T185 274Q202
280 210 297T218 336Q218 367 209 390T190 436T180 487Q180 526 201 544T250 565V656H214Q159 656 115 638T46 585T20 501Q20 464 30 440T53 400T77 369T87 337Q87 324 74 314T34 303V243Q64 243 75 232T86 207Q86 192 76 178T53 147T30 106T20 47Q20 -29 78 -69T229
-109ZM228 -100Q174 -100 129 -84T56 -36T28 45Q28 77 38 100T61 140T85 174T95 210Q95 230 80 242T42 252V294Q70 294 82 307T95 337Q95 357 85 371T62 402T38 442T28 503Q28 571 80 609T214 647H242V573Q211 569 192 550T172 487Q172 456 181 433T200 387T210
335Q210 286 164 274Q210 261 210 210Q210 183 201 162T182 117T172 60Q172 17 194 -3T242 -25V-100H228Z" />
<glyph unicode="|" glyph-name="bar" horiz-adv-x="205" d="M35 -222V645H170V-222H35ZM49 -203H156V627H49V-203ZM56 -194V617H150V-194H56Z" />
<glyph unicode="}" glyph-name="braceright" horiz-adv-x="282" d="M47 -127H10V-1Q47 -1 63 14T79 60Q79 92 70 113T52 155T42 210Q42 256 67 274Q42 295 42 336Q42 371 51 395T70 440T79 487Q79 519 59 533T10 548V674H63Q123 674 170 654T245 595T272 501Q272
464 262 438T239 395T215 365T205 342Q205 333 219 328T258 322V226Q205 226 205 203Q205 194 215 181T238 150T262 107T272 47Q272 -8 243 -47T164 -106T47 -127ZM47 -109Q140 -109 198 -69T256 47Q256 82 246 106T223 147T200 178T190 207Q190 221 201 232T242
243V303Q216 303 203 313T189 337Q189 355 199 369T222 399T246 440T256 501Q256 550 231 584T161 637T62 656H26V565Q55 562 75 544T96 487Q96 459 87 436T68 390T58 336Q58 314 66 297T91 274Q74 266 66 250T58 210Q58 180 67 158T86 114T96 60Q96 19 74 1T26
-17V-109H47ZM48 -100H34V-25Q60 -23 82 -3T104 60Q104 93 95 116T76 161T66 210Q66 261 112 274Q66 286 66 335Q66 364 75 386T94 432T104 487Q104 530 85 549T34 573V647H62Q143 647 195 609T248 503Q248 466 238 442T215 402T191 372T181 337Q181 321 193 308T234
294V252Q211 254 196 242T181 210Q181 191 191 175T214 141T238 100T248 45Q248 -4 221 -36T148 -84T48 -100Z" />
<glyph unicode="~" glyph-name="asciitilde" horiz-adv-x="514" d="M51 170Q46 223 61 265T107 332T180 357Q203 357 228 348T274 330Q300 319 312 315T333 311Q341 311 344 319T349 360H463Q469 272 438 223T341 174Q312 174 287 184T241 204Q222 213 207 219T177
225Q169 225 163 209T162 170H51ZM68 188H142Q141 212 151 227T177 243Q195 243 212 236T248 220Q269 210 292 201T341 192Q394 192 421 230T446 342H366Q364 316 356 305T333 293Q320 293 304 299T267 314Q246 323 223 331T180 339Q129 339 98 296T68 188ZM76
196Q76 251 103 291T180 331Q200 331 221 323T264 306Q284 298 301 292T333 285Q352 285 361 297T373 334H438Q438 281 424 252T388 212T341 200Q316 200 294 208T252 227Q233 236 215 243T177 251Q158 251 147 235T134 196H76Z" />
<glyph unicode="&#xa0;" glyph-name="uni00A0" horiz-adv-x="150" />
<glyph unicode="&#xa1;" glyph-name="exclamdown" horiz-adv-x="200" d="M112 515Q153 515 179 487T206 418Q206 393 193 372T157 336H172L195 141L202 -123H30L36 138L59 336H68Q46 350 32 371T18 418Q18 458 45 486T112 515ZM160 318H72L51 134L45 -104H186L181
137L160 318ZM153 309L173 136L179 -95H53L59 133L79 309H153ZM112 497Q78 497 56 474T33 418Q33 386 55 363T112 340Q146 340 168 363T191 418Q191 451 169 474T112 497ZM112 488Q143 488 163 468T184 418Q184 390 164 370T112 349Q81 349 61 369T41 418Q41 447
61 467T112 488Z" />
<glyph unicode="&#xa2;" glyph-name="cent" horiz-adv-x="344" d="M109 -62V48Q59 59 35 98T11 214V438Q11 495 37 524T109 565V656H240V560Q282 547 307 518T333 438V306H177V300H333V215Q333 140 307 104T240 54V-62H109ZM126 -44H224V68Q264 78 290 110T316
215V282H185V166Q185 158 180 155T172 151Q169 151 165 154T160 166V446Q160 454 164 457T172 460Q175 460 180 457T185 446V324H316V438Q316 485 290 510T224 545V637H126V549Q81 543 55 517T28 438V214Q28 140 52 106T126 64V-44ZM134 -35V72Q83 79 60 110T36
214V438Q36 488 62 512T134 541V628H215V537Q255 529 281 506T308 438V333H193V446Q193 460 186 464T172 469Q167 469 160 465T152 446V166Q152 152 159 147T172 142Q178 142 185 147T193 166V273H308V215Q308 149 284 117T215 76V-35H134Z" />
<glyph unicode="&#xa3;" glyph-name="sterling" horiz-adv-x="390" d="M7 -27V91Q29 123 43 156T64 226H7V365H49V366Q41 391 35 416T29 469Q29 517 54 545T119 586T202 598Q283 598 331 564T379 448V376H225L227 365H286V226H221L220 223H379V147Q379 73 359
43T303 5Q288 2 268 2Q246 2 225 4T181 12Q160 16 140 19T103 23Q89 23 71 14T35 -6T7 -27ZM24 9Q35 18 56 29T103 41Q121 41 141 38T184 30Q206 26 227 23T268 20Q287 20 300 23Q329 29 345 55T362 147V204H229V157Q229 137 221 132T184 127H161Q172 145 185 174T207
244H269V347H211Q207 377 200 402T186 444Q184 452 183 458T181 472Q181 499 199 499Q209 499 218 487Q227 475 227 449V394H362V448Q362 520 318 550T202 580Q163 580 127 570T69 535T46 469Q46 443 51 419T65 372L73 347H24V244H83Q72 153 24 85V9ZM33 27V82Q59
119 74 161T92 254H33V338H85Q81 354 76 370T66 402Q55 435 55 469Q55 507 76 529T132 561T202 571Q270 571 311 543T353 448V404H235V449Q235 482 223 496T195 508T174 488T179 441Q185 423 192 397T204 338H260V254H200Q191 203 173 167T144 118H184Q218 118
228 124T238 157V195H353V147Q353 86 339 62T298 32Q274 26 239 31T167 43T103 50Q74 50 58 42T33 27ZM212 415Q212 459 209 470T202 482Q201 482 199 481T197 472Q197 458 204 439T212 415ZM191 145Q204 145 208 147T212 157V197L202 170Q200 163 197 157T191
145Z" />
<glyph unicode="&#xa4;" glyph-name="currency" horiz-adv-x="550" d="M112 35L12 134L116 239Q105 266 105 297Q105 327 115 354L11 458L110 558L217 451Q241 461 274 461Q305 461 330 452L437 560L536 461L432 356Q438 342 440 327T443 297Q443 283 441 268T433
239L539 136L439 36L332 143Q305 133 274 133Q260 133 246 135T218 142L112 35ZM112 60L214 163Q243 151 274 151Q308 151 335 164L439 61L513 135L412 235Q425 260 425 297Q425 331 410 359L511 461L437 535L334 432Q320 438 305 440T274 443Q240 443 213 431L110
533L36 458L137 357Q123 331 123 297Q123 263 138 234L37 134L112 60ZM112 72L50 134L148 233Q132 262 132 297Q132 314 136 329T147 359L48 458L110 520L211 420Q242 434 274 434Q310 434 336 421L437 523L499 461L399 361Q416 332 416 297Q416 261 400 233L501
135L439 73L337 174Q306 160 274 160Q238 160 212 173L112 72ZM274 249Q293 249 306 262T320 296Q320 316 307 329T274 343Q255 343 242 330T229 296Q229 276 242 263T274 249ZM274 258Q259 258 249 269T238 296Q238 312 248 323T274 334Q290 334 300 323T311 296Q311
280 301 269T274 258ZM274 276Q282 276 287 282T293 296Q293 304 288 310T274 316Q266 316 261 310T256 296Q256 288 261 282T274 276Z" />
<glyph unicode="&#xa5;" glyph-name="yen" horiz-adv-x="411" d="M109 0V108H33V331H83L43 464Q33 499 23 531T4 591H195L211 531L227 591H407L327 331H377V108H299V0H109ZM127 18H281V126H360V211H281V229H360V313H304L383 573H240L211 467L182 573H27L67 443Q78
409 87 377T107 313H51V229H127V211H51V126H127V18ZM135 27V135H59V202H135V238H59V304H119L39 564H175L211 432L247 564H371L292 304H352V238H273V202H352V135H273V27H135Z" />
<glyph unicode="&#xa6;" glyph-name="brokenbar" horiz-adv-x="171" d="M18 247V597H153V247H18ZM32 266H139V579H32V266ZM39 275V569H133V275H39ZM18 -153V223H153V-153H18ZM32 -134H139V205H32V-134ZM39 -125V195H133V-125H39Z" />
<glyph unicode="&#xa7;" glyph-name="section" horiz-adv-x="414" d="M191 -123Q122 -123 83 -105T28 -49T11 51V110H87Q52 127 26 166T-1 264Q-1 304 9 334T43 385Q40 405 40 442Q40 526 80 563T220 601Q287 601 325 584T378 529T394 433V376H304L326 366Q382
341 398 306T415 220Q415 172 404 142T374 91Q375 83 375 72T376 42Q376 -44 334 -83T191 -123ZM191 -104Q283 -104 320 -71T358 42V80Q358 86 358 90T357 99Q375 117 386 144T398 220Q398 264 382 295T319 349L294 361Q275 370 260 377T233 394H377V433Q377 512
344 547T220 583Q130 583 94 551T58 442Q58 418 59 402T62 377Q37 360 27 332T17 264Q17 218 34 188T79 138T135 105L167 91H28V51Q28 -31 62 -67T191 -104ZM191 -95Q103 -95 70 -61T37 51V82H174V8Q174 -7 177 -13T189 -19Q204 -19 204 6V48Q204 71 195 82T169
100T131 116Q106 126 82 144T41 192T25 264Q25 303 36 330T73 373Q71 378 70 384T68 398Q67 406 67 417T67 442Q67 512 102 542T220 573Q305 573 336 540T368 433V404H236V475Q236 498 221 498Q206 498 206 474V430Q206 407 223 392T265 365T316 341Q361 321 375
291T389 220Q389 173 377 147T346 103Q348 96 349 85Q350 80 350 69T350 42Q350 -31 315 -63T191 -95ZM227 400Q215 412 215 430V474Q215 489 221 489Q227 489 227 475V400ZM266 180Q271 188 271 199T268 220Q257 246 233 261T182 291Q169 298 163 300T151 306Q147
299 146 293T145 281Q145 259 161 243T201 214T244 191L266 180ZM261 192L247 199Q227 209 206 221T169 248T154 281Q154 283 154 286T156 294L163 290Q164 289 171 286Q202 271 226 255T261 216Q266 206 261 192ZM231 227Q214 245 179 261Q188 251 202 243T231
227ZM189 -10Q183 -10 183 8V81Q195 71 195 48V6Q195 -10 189 -10Z" />
<glyph unicode="&#xa8;" glyph-name="dieresis" horiz-adv-x="243" d="M56 537Q33 537 17 553T0 594Q0 617 16 633T56 649Q79 649 96 633T114 594Q114 570 97 554T56 537ZM187 536Q162 536 145 552T128 592Q128 616 145 632T187 648Q210 648 226 632T243 592Q243
569 227 553T187 536ZM56 551Q75 551 87 563T100 594Q100 611 87 623T56 635Q39 635 27 623T14 594Q14 576 26 564T56 551ZM187 550Q204 550 216 562T229 592Q229 609 217 621T187 634Q168 634 155 622T142 592Q142 574 155 562T187 550ZM56 558Q41 558 31 568T21
594Q21 607 30 617T56 628Q72 628 82 618T93 594Q93 579 83 569T56 558ZM187 557Q171 557 160 567T149 592Q149 606 159 616T187 627Q202 627 212 617T222 592Q222 578 212 568T187 557Z" />
<glyph unicode="&#xa9;" glyph-name="copyright" horiz-adv-x="575" d="M290 27Q231 27 180 48T91 109T31 199T9 308Q9 366 30 417T90 506T180 566T290 588Q348 588 399 567T488 507T548 417T570 308Q570 250 549 199T489 109T399 49T290 27ZM290 45Q363 45 422
80T516 175T552 308Q552 381 517 440T422 534T290 570Q217 570 157 535T62 441T27 308Q27 235 62 175T157 80T290 45ZM290 54Q219 54 161 87T70 178T36 308Q36 378 70 435T161 527T290 561Q360 561 417 527T508 435T542 308Q542 237 509 180T418 88T290 54ZM290
105Q346 105 391 132T463 206T490 308Q490 364 463 409T391 482T290 510Q235 510 189 483T116 410T88 308Q88 253 115 207T189 133T290 105ZM290 114Q237 114 193 140T123 211T97 308Q97 361 123 404T193 474T290 500Q343 500 386 474T455 405T481 308Q481 255
455 211T386 141T290 114ZM290 132Q338 132 377 156T439 220T463 308Q463 356 440 395T377 458T290 482Q242 482 203 459T139 396T115 308Q115 260 139 220T202 156T290 132ZM287 151Q231 151 205 171T173 229T166 313Q166 360 172 396T205 453T287 474Q338 474
364 453T399 397T409 317L313 318Q313 345 309 362T288 379Q268 379 265 360T262 313Q262 285 265 265T287 244Q304 244 308 263T313 305H409Q409 266 400 231T364 173T287 151ZM287 169Q329 169 351 186T382 230T391 287H331Q331 264 323 245T287 226Q265 226
256 238T245 270T243 313Q243 349 248 373T288 397Q316 397 323 380T331 336L391 335Q391 369 383 396T352 440T287 456Q239 456 217 437T190 386T184 313Q184 273 189 240T217 188T287 169ZM287 178Q243 178 223 196T198 245T193 313Q193 351 198 381T223 429T287
447Q346 447 364 418T382 344L340 345Q340 372 331 389T288 406Q249 406 242 380T234 313Q234 287 236 265T250 230T287 217Q320 217 330 236T340 278H382Q382 238 363 208T287 178Z" />
<glyph unicode="&#xaa;" glyph-name="ordfeminine" horiz-adv-x="356" d="M114 -6Q90 -6 65 1T22 32T5 107V179Q5 255 71 287H14V372Q14 439 48 472T175 506Q239 506 277 496T332 456T349 372V0H165V4Q144 -6 114 -6ZM114 12Q140 12 156 19T182 38V18H332V372Q332
421 317 445T268 479T175 488Q93 488 62 460T31 372V305H155Q149 301 139 298T115 289Q96 282 74 271T37 238T22 179V107Q22 65 36 45T72 18T114 12ZM114 21Q95 21 76 26T44 50T31 107V179Q31 217 47 238T91 271T147 293Q173 302 180 315T188 354V382Q188 393 186
399T174 406Q165 406 162 397Q159 388 159 371V314H39V372Q39 425 68 452T175 479Q230 479 262 471T309 439T324 372V27H191V71Q186 54 169 38T114 21ZM168 313V371Q168 397 174 397Q180 397 180 382V354Q180 325 168 313ZM174 98Q186 98 187 110Q188 116 188 123T188
141V247Q175 239 167 227T159 193V135Q159 120 161 109T174 98ZM174 107Q169 107 169 116L168 135V193Q168 216 180 229V117Q180 107 174 107Z" />
<glyph unicode="&#xab;" glyph-name="guillemotleft" horiz-adv-x="522" d="M338 56L208 252L337 448H510L380 252L510 56H338ZM347 73H478L360 252L478 431H346L228 252L347 73ZM351 82L238 252L350 422H462L351 252L462 82H351ZM142 56L12 252L141 448H314L184
252L314 56H142ZM151 73H282L164 252L282 431H150L32 252L151 73ZM155 82L42 252L154 422H266L155 252L266 82H155Z" />
<glyph unicode="&#xac;" glyph-name="logicalnot" horiz-adv-x="500" d="M324 95V194H50V314H450V95H324ZM342 112H432V297H68V210H342V112ZM351 120V219H77V289H423V120H351Z" />
<glyph unicode="&#xad;" glyph-name="uni00AD" horiz-adv-x="234" d="M11 239V342H223V239H11ZM26 252H207V329H26V252ZM34 258V323H199V258H34Z" />
<glyph unicode="&#xae;" glyph-name="registered" horiz-adv-x="583" d="M292 27Q233 27 182 48T93 109T33 199T11 308Q11 366 32 417T92 506T182 566T292 588Q350 588 401 567T490 507T550 417T572 308Q572 250 551 199T491 109T401 49T292 27ZM292 45Q365 45
424 80T518 175T554 308Q554 381 519 440T424 534T292 570Q219 570 159 535T64 441T29 308Q29 235 64 175T159 80T292 45ZM292 54Q221 54 163 87T72 178T38 308Q38 378 72 435T163 527T292 561Q362 561 419 527T510 435T544 308Q544 237 511 180T420 88T292 54ZM292
105Q348 105 393 132T465 206T492 308Q492 364 465 409T393 482T292 510Q237 510 191 483T118 410T90 308Q90 253 117 207T191 133T292 105ZM292 114Q238 114 195 140T125 211T99 308Q99 361 125 404T194 474T292 500Q345 500 388 474T457 405T483 308Q483 255
457 211T388 141T292 114ZM421 191Q441 214 453 244T465 308Q465 356 442 395T379 458T292 482Q256 482 222 468H301Q360 468 382 447T404 375Q404 346 397 323T370 285L421 191ZM197 173H267V285H273L327 173H410L346 295Q369 303 377 325T386 375Q386 414 369
432T301 450H197V173ZM179 174V441Q150 416 134 382T117 308Q117 268 133 234T179 174ZM206 182V441H301Q346 441 361 426T377 375Q377 346 368 325T330 300Q331 299 331 299T333 298L335 295L395 182H332L279 295H258V182H206ZM258 325H292Q311 325 320 338T329
371Q329 385 323 396T293 408H258V325ZM267 334V399H293Q310 399 315 391T320 371Q320 355 313 345T292 334H267ZM285 352H292Q301 352 301 371Q301 376 300 378T293 381H285V352ZM292 132Q339 132 377 155H315L285 218V155H205Q243 132 292 132Z" />
<glyph unicode="&#xaf;" glyph-name="overscore" horiz-adv-x="214" d="M0 542V635H214V542H0ZM14 556H200V621H14V556ZM21 563V614H193V563H21Z" />
<glyph unicode="&#xb0;" glyph-name="degree" horiz-adv-x="295" d="M147 255Q80 255 46 291T11 387Q11 447 43 484T148 521Q219 521 251 484T284 388Q284 330 251 293T147 255ZM147 271Q209 271 238 304T267 388Q267 439 239 471T148 504Q84 504 56 472T27 387Q27
338 56 305T147 271ZM147 279Q89 279 62 310T35 387Q34 432 60 464T148 496Q207 496 233 466T259 388Q259 340 232 310T147 279ZM148 335Q169 335 182 350T195 388Q195 408 183 424T147 441Q125 441 112 425T99 387Q99 364 113 350T148 335ZM148 343Q131 343 119
355T107 387Q107 406 118 419T147 433Q167 433 177 419T187 388Q187 368 176 356T148 343ZM148 359Q158 359 164 367T171 388Q171 399 165 408T147 417Q136 417 130 408T124 387Q124 375 130 367T148 359Z" />
<glyph unicode="&#xb1;" glyph-name="plusminus" horiz-adv-x="398" d="M129 144V267H11V414H129V536H269V414H387V267H269V144H129ZM146 162H252V285H370V396H252V518H146V396H28V285H146V162ZM154 171V294H37V387H154V509H243V387H361V294H243V171H154ZM11 0V140H387V0H11ZM28
18H370V122H28V18ZM37 27V113H361V27H37Z" />
<glyph unicode="&#xb2;" glyph-name="uni00B2" horiz-adv-x="381" d="M4 0V141Q4 197 13 229T46 284T111 331H10V435Q10 593 193 593Q262 593 302 576T359 519T376 410Q376 336 354 294T282 220L257 206Q240 196 228 189T208 171H376V0H4ZM21 18H359V153H182Q187
176 204 191T250 222L274 235Q322 265 340 304T359 410Q359 471 344 507T293 559T193 575Q27 575 27 435V349H178Q169 340 161 336L142 326H143L133 321Q91 299 67 278T32 226T21 141V18ZM30 27V141Q30 191 40 221T73 272T137 313Q156 324 172 333T198 358T208
400V415Q208 435 205 449T191 464Q177 464 175 446Q174 436 174 423T173 390V358H36V435Q36 566 193 566Q253 566 287 551T335 502T350 410Q350 347 333 310T269 243Q241 227 220 215T186 186T172 143H350V27H30ZM182 352V390Q182 406 182 418T183 439Q184 455
191 455Q196 455 198 444Q199 438 199 431T200 415V400Q200 383 195 372T182 352Z" />
<glyph unicode="&#xb3;" glyph-name="uni00B3" horiz-adv-x="362" d="M179 -5Q-4 -5 -4 153V248H73V349H-4V435Q-4 594 179 594Q277 594 319 560T361 448V396Q361 361 353 336T324 294Q361 264 361 195V153Q361 63 318 29T179 -5ZM179 13Q265 13 304 43T344 153V195Q344
269 290 294Q319 306 331 332T344 396V448Q344 515 306 545T179 575Q14 575 14 435V367H167V390Q167 406 167 418T168 439Q169 455 177 455Q182 455 184 444Q185 438 185 431T185 415V374Q185 363 176 354Q167 345 133 345H90V251H132Q159 251 172 247T185 226V173Q185
165 185 158T184 145Q183 133 177 133Q170 133 168 150Q167 158 167 170T167 198V230H14V153Q14 13 179 13ZM179 22Q22 22 22 153V221H159V198Q159 179 159 166T161 143Q162 124 177 124Q188 124 191 138T194 173V226Q194 248 179 254T132 260H99V336H133Q173 336
183 348Q194 359 194 374V415Q194 435 191 449T177 464Q163 464 161 446Q160 436 160 423T159 390V376H22V435Q22 566 179 566Q263 566 299 538T336 448V396Q336 351 314 324T247 294Q288 294 312 268T336 195V153Q336 79 299 51T179 22Z" />
<glyph unicode="&#xb4;" glyph-name="acute" horiz-adv-x="225" d="M66 660H225L103 538H0L66 660ZM23 550H97L192 646H75L23 550ZM35 557L79 639H175L94 557H35Z" />
<glyph unicode="&#xb5;" glyph-name="uni00B5" horiz-adv-x="368" d="M11 -118V506H357V140Q357 68 333 31T238 -6Q207 -6 182 12L174 -118H11ZM28 -99H158L163 -26Q164 -7 165 12T167 50Q193 12 238 12Q299 12 319 44T340 140V488H190V146Q190 130 184 130H178V488H28V-99ZM37
-90V479H170V123Q172 121 176 121T184 120Q199 120 199 146V479H332V140Q332 81 313 51T238 21Q210 21 189 39T160 87L150 -90H37Z" />
<glyph unicode="&#xb6;" glyph-name="paragraph" horiz-adv-x="510" d="M135 -54V190Q74 201 44 253T14 381Q14 440 33 484T95 555Q127 575 175 582T302 590H442V-54H135ZM153 -36H281V458H298V-36H425V572H302Q224 572 180 565T104 540Q32 492 32 381Q32 334
45 295T85 232T153 206V-36ZM161 -27V215Q100 215 70 263T40 381Q40 486 109 532Q138 550 182 556T302 563H416V-27H307V467H272V-27H161Z" />
<glyph unicode="&#xb7;" glyph-name="middot" horiz-adv-x="160" d="M80 237Q49 237 29 257T8 307Q8 336 29 356T80 377Q110 377 131 357T152 307Q152 278 131 258T80 237ZM80 253Q103 253 119 269T136 307Q136 330 120 345T80 361Q57 361 41 346T24 307Q24 284
40 269T80 253ZM80 261Q59 261 46 274T32 307Q32 326 45 339T80 353Q100 353 114 340T128 307Q128 288 114 275T80 261Z" />
<glyph unicode="&#xb8;" glyph-name="cedilla" horiz-adv-x="133" d="M318 -140Q294 -140 278 -132T256 -120L269 -90Q275 -95 286 -100T309 -106Q320 -106 327 -99T335 -81Q335 -58 313 -58Q301 -58 296 -66L272 -49L305 27H332L314 -36Q317 -34 321 -33T332
-32Q357 -32 373 -46T389 -82Q389 -105 370 -122T318 -140Z" />
<glyph unicode="&#xb9;" glyph-name="uni00B9" horiz-adv-x="277" d="M90 0V368H3V504Q32 504 64 524T113 591H268V0H90ZM106 18H252V573H125Q111 531 81 509T20 486V386H106V18ZM114 27V395H28V477Q54 477 84 497T130 564H244V27H114Z" />
<glyph unicode="&#xba;" glyph-name="ordmasculine" horiz-adv-x="360" d="M180 -11Q120 -11 82 3T26 58T7 176V361Q7 442 52 473T180 504Q263 504 308 473T353 361V176Q353 98 334 58T277 4T180 -11ZM180 7Q234 7 268 20T319 69T336 176V361Q336 433 296 459T180
486Q105 486 65 460T24 361V176Q24 106 40 70T92 20T180 7ZM180 16Q129 16 96 28T48 75T32 176V361Q32 428 70 452T180 477Q251 477 289 453T327 361V176Q327 110 312 76T264 29T180 16ZM180 88Q191 88 193 96T195 112V382Q195 396 192 401T180 406Q173 406 169
402T165 382V112Q165 102 167 95T180 88ZM180 97Q174 97 174 112V382Q174 397 180 397Q186 397 186 382V112Q186 97 180 97Z" />
<glyph unicode="&#xbb;" glyph-name="guillemotright" horiz-adv-x="521" d="M209 56L336 252L208 448H381L509 252L380 56H209ZM240 73H371L489 252L372 431H240L357 252L240 73ZM255 82L367 252L255 422H368L479 252L367 82H255ZM13 56L140 252L12 448H185L313
252L184 56H13ZM44 73H175L293 252L176 431H44L161 252L44 73ZM59 82L171 252L59 422H172L283 252L171 82H59Z" />
<glyph unicode="&#xbc;" glyph-name="onequarter" horiz-adv-x="579" d="M53 233V443H6V541Q22 541 41 553T68 591H167V233H53ZM67 250H152V574H79Q71 548 53 536T20 524V460H67V250ZM74 259V468H28V516Q42 516 58 527T83 565H145V259H74ZM26 0L414 591H547L161
0H26ZM54 16H152L519 575H423L54 16ZM69 25L427 566H503L147 25H69ZM414 0V59H329V135L423 358H540V164H570V59H540V0H414ZM430 17H524V76H554V147H524V341H433L345 133V76H430V17ZM438 26V85H353V131L438 332H516V139H546V85H516V26H438ZM412 139H438V209L412
139ZM424 147L430 164V147H424Z" />
<glyph unicode="&#xbd;" glyph-name="onehalf" horiz-adv-x="607" d="M53 233V443H6V541Q22 541 41 553T68 591H167V233H53ZM67 250H152V574H79Q71 548 53 536T20 524V460H67V250ZM74 259V468H28V516Q42 516 58 527T83 565H145V259H74ZM26 0L414 591H547L161 0H26ZM54
16H152L519 575H423L54 16ZM69 25L427 566H503L147 25H69ZM374 0V90Q374 130 382 151T409 188H377V258Q377 358 488 358Q551 358 574 333T598 244Q598 197 586 171T540 126L526 117H598V0H374ZM390 17H582V100H485Q488 111 497 117T519 132H518L533 141Q562 158
572 180T582 244Q582 297 562 319T488 341Q393 341 393 258V206H470L459 200L453 197Q429 183 416 170T396 139T390 90V17ZM398 26V90Q398 133 410 151T457 189Q471 197 484 205T497 237V247Q497 258 495 266T487 275Q480 275 478 264Q477 259 477 251T477 232V214H401V258Q401
332 488 332Q538 332 556 313T575 244Q575 206 566 186T530 149Q507 134 492 124T476 92H575V26H398ZM485 220V232Q485 266 487 266Q489 266 489 261V237Q489 227 485 220Z" />
<glyph unicode="&#xbe;" glyph-name="threequarters" horiz-adv-x="616" d="M116 230Q6 230 6 331V396H48V433H6V492Q6 593 116 593Q176 593 201 571T227 499V470Q227 450 224 437T210 411Q227 388 227 355V331Q227 273 201 252T116 230ZM116 247Q167 247 189
265T211 331V355Q211 395 186 411Q211 430 211 470V499Q211 540 189 558T116 576Q22 576 22 492V451H113V466Q113 500 115 500Q117 500 117 481V457Q117 452 113 449Q109 445 91 445H64V384H91Q104 384 110 382T117 372V342Q117 323 115 323Q113 323 113 357V378H22V331Q22
247 116 247ZM116 256Q29 256 29 331V370H105V357Q105 347 105 339T106 325Q108 314 115 314Q121 314 123 322T125 342V372Q125 386 117 389T91 392H72V436H91Q112 436 118 442T125 457V481Q125 492 123 500T115 509Q108 509 106 498Q105 493 105 485T105 466V459H29V492Q29
567 116 567Q163 567 183 551T203 499V470Q203 445 192 429T156 411Q178 409 190 395T203 355V331Q203 288 183 272T116 256ZM63 0L451 591H584L198 0H63ZM91 16H189L556 575H460L91 16ZM106 25L464 566H540L184 25H106ZM451 0V59H366V135L460 358H577V164H607V59H577V0H451ZM467
17H561V76H591V147H561V341H470L382 133V76H467V17ZM475 26V85H390V131L475 332H553V139H583V85H553V26H475ZM449 139H475V209L449 139ZM461 147L467 164V147H461Z" />
<glyph unicode="&#xbf;" glyph-name="questiondown" horiz-adv-x="383" d="M192 -79Q123 -79 83 -62T26 -5T8 104Q8 160 27 209T95 279Q104 283 112 285T129 289V363H151Q123 391 123 431Q123 466 147 495T215 524Q245 524 265 510T295 475T306 431Q306 411 299
394T278 363H298V197Q270 196 256 194T228 184H375V79Q375 -79 192 -79ZM192 -62Q357 -62 357 79V166H203V87Q203 58 194 58Q185 58 185 87V139Q185 172 211 193T281 214V345H146V274Q137 273 125 271T105 265Q60 245 43 199T26 104Q26 43 41 7T93 -46T192 -62ZM192
-53Q133 -53 99 -38T50 11T35 104Q35 151 50 195T108 257Q117 261 133 263T154 265V336H272V223Q235 223 206 201T176 139V90Q176 50 194 50Q212 50 212 90V158H348V79Q348 -53 192 -53ZM215 355Q247 355 268 377T289 431Q289 462 268 484T215 507Q183 507 162
485T140 431Q140 399 161 377T215 355ZM215 364Q187 364 168 383T148 431Q148 459 167 478T215 498Q242 498 261 479T281 431Q281 403 262 384T215 364Z" />
<glyph unicode="&#xc0;" glyph-name="Agrave" horiz-adv-x="414" d="M282 647L296 625H188L88 714L59 738H217L282 647ZM271 639L210 724H98L193 639H271ZM257 646H196L116 717H206L257 646ZM1 0L83 591H333L413 0H1ZM21 18H190L196 96H211L219 18H393L318 573H98L21
18ZM31 27L105 564H310L382 27H226L219 105H187L182 27H31ZM188 175H219L204 450L188 175ZM197 184L204 291L211 184H197Z" />
<glyph unicode="&#xc1;" glyph-name="Aacute" horiz-adv-x="414" d="M1 0L83 591H333L413 0H1ZM21 18H190L196 96H211L219 18H393L318 573H98L21 18ZM31 27L105 564H310L382 27H226L219 105H187L182 27H31ZM188 175H219L204 450L188 175ZM197 184L204 291L211
184H197ZM135 647L200 738H358L329 714L229 625H121L135 647ZM146 639H224L319 724H207L146 639ZM160 646L211 717H301L221 646H160Z" />
<glyph unicode="&#xc2;" glyph-name="Acircumflex" horiz-adv-x="414" d="M1 0L83 591H333L413 0H1ZM21 18H190L196 96H211L219 18H393L318 573H98L21 18ZM31 27L105 564H310L382 27H226L219 105H187L182 27H31ZM188 175H219L204 450L188 175ZM197 184L204 291L211
184H197ZM163 745H247L362 620H243L205 649L168 620H48L163 745ZM79 634H163L205 666L248 634H331L241 731H169L79 634ZM95 641L172 724H238L315 641H250L205 675L161 641H95Z" />
<glyph unicode="&#xc3;" glyph-name="Atilde" horiz-adv-x="414" d="M1 0L83 591H333L413 0H1ZM21 18H190L196 96H211L219 18H393L318 573H98L21 18ZM31 27L105 564H310L382 27H226L219 105H187L182 27H31ZM188 175H219L204 450L188 175ZM197 184L204 291L211
184H197ZM247 627Q230 627 216 633T191 644Q181 649 176 652T165 655Q164 655 163 651T165 629H92Q86 679 106 711T163 743Q189 743 226 725Q236 720 243 717Q244 719 245 724T245 740H318Q326 694 305 661T247 627ZM247 641Q274 641 291 665T306 726H260Q257 702
247 702Q240 702 220 712Q187 729 163 729Q135 729 120 705T105 643H149Q147 669 165 669Q172 669 180 666T198 657Q208 652 220 647T247 641ZM247 648Q234 648 223 653T201 663Q191 668 182 672T165 676Q155 676 149 669T142 650H112Q112 682 126 702T163 722Q177
722 191 717T217 706Q226 702 234 699T247 695Q256 695 260 702T266 719H299Q299 684 283 666T247 648Z" />
<glyph unicode="&#xc4;" glyph-name="Adieresis" horiz-adv-x="414" d="M1 0L83 591H333L413 0H1ZM21 18H190L196 96H211L219 18H393L318 573H98L21 18ZM31 27L105 564H310L382 27H226L219 105H187L182 27H31ZM188 175H219L204 450L188 175ZM197 184L204 291L211
184H197ZM137 622Q113 622 96 639T79 681Q79 704 96 721T137 738Q161 738 179 721T197 681Q197 656 180 639T137 622ZM272 621Q247 621 229 638T211 679Q211 704 229 720T272 737Q296 737 313 720T330 679Q330 655 313 638T272 621ZM137 636Q157 636 170 649T183
681Q183 698 170 711T137 724Q119 724 106 712T93 681Q93 662 105 649T137 636ZM272 635Q290 635 303 648T316 679Q316 697 303 710T272 723Q252 723 239 711T225 679Q225 660 239 648T272 635ZM137 643Q121 643 111 654T100 681Q100 695 110 706T137 717Q154 717
165 706T176 681Q176 665 165 654T137 643ZM272 642Q255 642 244 653T232 679Q232 694 243 705T272 716Q288 716 298 705T309 679Q309 664 298 653T272 642Z" />
<glyph unicode="&#xc5;" glyph-name="Aring" horiz-adv-x="414" d="M1 0L83 591H333L413 0H1ZM21 18H190L196 96H211L219 18H393L318 573H98L21 18ZM31 27L105 564H310L382 27H226L219 105H187L182 27H31ZM188 175H219L204 450L188 175ZM197 184L204 291L211 184H197ZM205
611Q171 611 148 633T125 689Q125 723 148 746T205 769Q238 769 261 746T285 689Q285 657 262 634T205 611ZM205 625Q232 625 251 644T271 689Q271 716 252 735T205 755Q177 755 158 736T139 689Q139 662 158 644T205 625ZM205 632Q180 632 164 649T147 689Q147
714 163 731T205 748Q229 748 246 731T264 689Q264 666 247 649T205 632ZM205 668Q214 668 220 674T226 689Q226 710 205 710Q184 710 184 689Q184 680 190 674T205 668ZM205 675Q191 675 191 689Q191 703 205 703Q219 703 219 689Q219 675 205 675Z" />
<glyph unicode="&#xc6;" glyph-name="AE" horiz-adv-x="521" d="M-2 0L84 591H515V436H361L365 413Q366 408 367 401T369 386H506V218H392L400 153H515V0H-2ZM20 18H194L200 96H215L223 18H497V134H385Q384 148 382 161T378 186Q376 198 375 210T371 236H488V368H353Q352
379 351 390T347 411Q345 421 344 432T340 454H497V573H99L20 18ZM31 27L107 564H488V463H331L345 359H479V245H361L377 125H488V27H231L224 105H191L186 27H31ZM192 175H224L209 428L208 450L206 428L192 175ZM201 184L208 302L215 184H201Z" />
<glyph unicode="&#xc7;" glyph-name="Ccedilla" horiz-adv-x="370" d="M195 -166Q135 -166 95 -129L123 -66L112 -58L135 -6Q68 5 38 50T7 186V450Q7 523 54 561T189 599Q364 599 364 450V299H201V279H364V187Q364 92 333 46T231 -8Q260 -13 278 -33T297 -82Q297
-118 268 -142T195 -166ZM195 -149Q230 -149 254 -130T279 -82Q279 -57 261 -41T214 -24H208L217 9Q288 14 317 54T346 187V261H194V116Q194 108 189 108Q183 108 183 116V465Q183 476 189 476Q194 476 194 465V317H346V450Q346 581 189 581Q25 581 25 450V186Q25
95 56 55T161 10L134 -52L175 -78Q176 -72 180 -69T189 -66Q204 -66 204 -80Q204 -98 186 -98Q173 -98 163 -92T138 -77L117 -123Q131 -135 150 -142T195 -149ZM195 -140Q169 -140 152 -132T128 -120L141 -90Q148 -95 160 -100T186 -106Q197 -106 204 -99T212 -81Q212
-58 190 -58Q178 -58 173 -66L144 -49L173 17Q125 19 94 34T48 85T33 186V450Q33 517 75 545T189 573Q259 573 298 546T338 450V325H202V465Q202 470 200 477T189 484Q180 484 178 477T175 465V117Q175 112 178 107T188 101Q196 101 199 106T202 117V253H338V187Q338
123 325 87T284 35T211 17L196 -36Q199 -34 203 -33T214 -32Q239 -32 255 -46T271 -82Q271 -105 251 -122T195 -140Z" />
<glyph unicode="&#xc8;" glyph-name="Egrave" horiz-adv-x="301" d="M232 647L246 625H138L38 714L9 738H167L232 647ZM221 639L160 724H48L143 639H221ZM207 646H146L66 717H156L207 646ZM9 0V591H295V436H195V386H286V218H195V153H295V0H9ZM26 16H278V134H179V236H269V368H179V454H278V575H26V16ZM34
24V567H270V463H171V359H261V245H171V125H270V24H34Z" />
<glyph unicode="&#xc9;" glyph-name="Eacute" horiz-adv-x="301" d="M9 0V591H295V436H195V386H286V218H195V153H295V0H9ZM26 16H278V134H179V236H269V368H179V454H278V575H26V16ZM34 24V567H270V463H171V359H261V245H171V125H270V24H34ZM85 647L150 738H308L279
714L179 625H71L85 647ZM96 639H174L269 724H157L96 639ZM110 646L161 717H251L171 646H110Z" />
<glyph unicode="&#xca;" glyph-name="Ecircumflex" horiz-adv-x="301" d="M9 0V591H295V436H195V386H286V218H195V153H295V0H9ZM26 16H278V134H179V236H269V368H179V454H278V575H26V16ZM34 24V567H270V463H171V359H261V245H171V125H270V24H34ZM369 745H453L568
620H449L411 649L374 620H254L369 745ZM285 634H369L411 666L454 634H537L447 731H375L285 634ZM301 641L378 724H444L521 641H456L411 675L367 641H301Z" />
<glyph unicode="&#xcb;" glyph-name="Edieresis" horiz-adv-x="301" d="M9 0V591H295V436H195V386H286V218H195V153H295V0H9ZM26 16H278V134H179V236H269V368H179V454H278V575H26V16ZM34 24V567H270V463H171V359H261V245H171V125H270V24H34ZM87 622Q63 622 46
639T29 681Q29 704 46 721T87 738Q111 738 129 721T147 681Q147 656 130 639T87 622ZM222 621Q197 621 179 638T161 679Q161 704 179 720T222 737Q246 737 263 720T280 679Q280 655 263 638T222 621ZM87 636Q107 636 120 649T133 681Q133 698 120 711T87 724Q69
724 56 712T43 681Q43 662 55 649T87 636ZM222 635Q240 635 253 648T266 679Q266 697 253 710T222 723Q202 723 189 711T175 679Q175 660 189 648T222 635ZM87 643Q71 643 61 654T50 681Q50 695 60 706T87 717Q104 717 115 706T126 681Q126 665 115 654T87 643ZM222
642Q205 642 194 653T182 679Q182 694 193 705T222 716Q238 716 248 705T259 679Q259 664 248 653T222 642Z" />
<glyph unicode="&#xcc;" glyph-name="Igrave" horiz-adv-x="177" d="M164 647L178 625H70L-30 714L-59 738H99L164 647ZM153 639L92 724H-20L75 639H153ZM139 646H78L-2 717H88L139 646ZM9 0V591H168V0H9ZM24 16H152V575H24V16ZM32 24V567H145V24H32Z" />
<glyph unicode="&#xcd;" glyph-name="Iacute" horiz-adv-x="177" d="M9 0V591H168V0H9ZM24 16H152V575H24V16ZM32 24V567H145V24H32ZM17 647L82 738H240L211 714L111 625H3L17 647ZM28 639H106L201 724H89L28 639ZM42 646L93 717H183L103 646H42Z" />
<glyph unicode="&#xce;" glyph-name="Icircumflex" horiz-adv-x="177" d="M9 0V591H168V0H9ZM24 16H152V575H24V16ZM32 24V567H145V24H32ZM301 745H385L500 620H381L343 649L306 620H186L301 745ZM217 634H301L343 666L386 634H469L379 731H307L217 634ZM233 641L310
724H376L453 641H388L343 675L299 641H233Z" />
<glyph unicode="&#xcf;" glyph-name="Idieresis" horiz-adv-x="177" d="M9 0V591H168V0H9ZM24 16H152V575H24V16ZM32 24V567H145V24H32ZM275 622Q251 622 234 639T217 681Q217 704 234 721T275 738Q299 738 317 721T335 681Q335 656 318 639T275 622ZM410 621Q385
621 367 638T349 679Q349 704 367 720T410 737Q434 737 451 720T468 679Q468 655 451 638T410 621ZM275 636Q295 636 308 649T321 681Q321 698 308 711T275 724Q257 724 244 712T231 681Q231 662 243 649T275 636ZM410 635Q428 635 441 648T454 679Q454 697 441
710T410 723Q390 723 377 711T363 679Q363 660 377 648T410 635ZM275 643Q259 643 249 654T238 681Q238 695 248 706T275 717Q292 717 303 706T314 681Q314 665 303 654T275 643ZM410 642Q393 642 382 653T370 679Q370 694 381 705T410 716Q426 716 436 705T447
679Q447 664 436 653T410 642Z" />
<glyph unicode="&#xd0;" glyph-name="Eth" horiz-adv-x="378" d="M13 1V213H-16V341H13V590H238Q301 590 336 559T371 472V141Q371 1 217 1H13ZM31 19H217Q287 19 320 48T353 141V472Q353 521 324 546T238 572H31V323H2V231H31V19ZM39 27V239H10V315H39V564H238Q295
564 320 539T345 472V141Q345 76 311 52T217 27H39ZM181 100H194Q205 100 207 108T209 124V457Q209 468 207 476T194 484H181V315H199V239H181V100ZM189 323V476H194Q200 476 200 470T201 457V323H189ZM189 108V231H201V120Q201 108 194 108H189Z" />
<glyph unicode="&#xd1;" glyph-name="Ntilde" horiz-adv-x="367" d="M9 0V591H172L189 527V591H358V0H196L179 63V0H9ZM26 18H162V184L209 18H341V573H206V384L160 573H26V18ZM35 27V564H153L214 314V564H333V27H216L154 250V27H35ZM223 627Q206 627 192 633T167
644Q157 649 152 652T141 655Q140 655 139 651T141 629H68Q62 679 82 711T139 743Q165 743 202 725Q212 720 219 717Q220 719 221 724T221 740H294Q302 694 281 661T223 627ZM223 641Q250 641 267 665T282 726H236Q233 702 223 702Q216 702 196 712Q163 729 139
729Q111 729 96 705T81 643H125Q123 669 141 669Q148 669 156 666T174 657Q184 652 196 647T223 641ZM223 648Q210 648 199 653T177 663Q167 668 158 672T141 676Q131 676 125 669T118 650H88Q88 682 102 702T139 722Q153 722 167 717T193 706Q202 702 210 699T223
695Q232 695 236 702T242 719H275Q275 684 259 666T223 648Z" />
<glyph unicode="&#xd2;" glyph-name="Ograve" horiz-adv-x="371" d="M266 647L280 625H172L72 714L43 738H201L266 647ZM255 639L194 724H82L177 639H255ZM241 646H180L100 717H190L241 646ZM189 -11Q128 -11 88 5T27 64T7 185V452Q7 533 57 567T189 602Q271 602
317 568T364 452V186Q364 107 346 65T289 6T189 -11ZM189 6Q244 6 278 21T330 75T347 186V452Q347 525 305 555T189 585Q115 585 70 555T24 452V185Q24 114 42 75T97 21T189 6ZM189 15Q136 15 102 29T50 80T33 185V452Q33 520 75 548T189 576Q259 576 298 549T338
452V186Q338 118 323 81T275 30T189 15ZM189 100Q196 100 199 104T202 125V461Q202 475 200 480T189 486Q182 486 179 481T175 461V125Q175 100 189 100ZM189 108Q183 108 183 122V465Q183 477 189 477Q194 477 194 465V122Q194 108 189 108Z" />
<glyph unicode="&#xd3;" glyph-name="Oacute" horiz-adv-x="371" d="M189 -11Q128 -11 88 5T27 64T7 185V452Q7 533 57 567T189 602Q271 602 317 568T364 452V186Q364 107 346 65T289 6T189 -11ZM189 6Q244 6 278 21T330 75T347 186V452Q347 525 305 555T189 585Q115
585 70 555T24 452V185Q24 114 42 75T97 21T189 6ZM189 15Q136 15 102 29T50 80T33 185V452Q33 520 75 548T189 576Q259 576 298 549T338 452V186Q338 118 323 81T275 30T189 15ZM189 100Q196 100 199 104T202 125V461Q202 475 200 480T189 486Q182 486 179 481T175
461V125Q175 100 189 100ZM189 108Q183 108 183 122V465Q183 477 189 477Q194 477 194 465V122Q194 108 189 108ZM119 647L184 738H342L313 714L213 625H105L119 647ZM130 639H208L303 724H191L130 639ZM144 646L195 717H285L205 646H144Z" />
<glyph unicode="&#xd4;" glyph-name="Ocircumflex" horiz-adv-x="371" d="M189 -11Q128 -11 88 5T27 64T7 185V452Q7 533 57 567T189 602Q271 602 317 568T364 452V186Q364 107 346 65T289 6T189 -11ZM189 6Q244 6 278 21T330 75T347 186V452Q347 525 305 555T189
585Q115 585 70 555T24 452V185Q24 114 42 75T97 21T189 6ZM189 15Q136 15 102 29T50 80T33 185V452Q33 520 75 548T189 576Q259 576 298 549T338 452V186Q338 118 323 81T275 30T189 15ZM189 100Q196 100 199 104T202 125V461Q202 475 200 480T189 486Q182 486
179 481T175 461V125Q175 100 189 100ZM189 108Q183 108 183 122V465Q183 477 189 477Q194 477 194 465V122Q194 108 189 108ZM147 745H231L346 620H227L189 649L152 620H32L147 745ZM63 634H147L189 666L232 634H315L225 731H153L63 634ZM79 641L156 724H222L299
641H234L189 675L145 641H79Z" />
<glyph unicode="&#xd5;" glyph-name="Otilde" horiz-adv-x="371" d="M189 -11Q128 -11 88 5T27 64T7 185V452Q7 533 57 567T189 602Q271 602 317 568T364 452V186Q364 107 346 65T289 6T189 -11ZM189 6Q244 6 278 21T330 75T347 186V452Q347 525 305 555T189 585Q115
585 70 555T24 452V185Q24 114 42 75T97 21T189 6ZM189 15Q136 15 102 29T50 80T33 185V452Q33 520 75 548T189 576Q259 576 298 549T338 452V186Q338 118 323 81T275 30T189 15ZM189 100Q196 100 199 104T202 125V461Q202 475 200 480T189 486Q182 486 179 481T175
461V125Q175 100 189 100ZM189 108Q183 108 183 122V465Q183 477 189 477Q194 477 194 465V122Q194 108 189 108ZM231 627Q214 627 200 633T175 644Q165 649 160 652T149 655Q148 655 147 651T149 629H76Q70 679 90 711T147 743Q173 743 210 725Q220 720 227 717Q228
719 229 724T229 740H302Q310 694 289 661T231 627ZM231 641Q258 641 275 665T290 726H244Q241 702 231 702Q224 702 204 712Q171 729 147 729Q119 729 104 705T89 643H133Q131 669 149 669Q156 669 164 666T182 657Q192 652 204 647T231 641ZM231 648Q218 648
207 653T185 663Q175 668 166 672T149 676Q139 676 133 669T126 650H96Q96 682 110 702T147 722Q161 722 175 717T201 706Q210 702 218 699T231 695Q240 695 244 702T250 719H283Q283 684 267 666T231 648Z" />
<glyph unicode="&#xd6;" glyph-name="Odieresis" horiz-adv-x="371" d="M189 -11Q128 -11 88 5T27 64T7 185V452Q7 533 57 567T189 602Q271 602 317 568T364 452V186Q364 107 346 65T289 6T189 -11ZM189 6Q244 6 278 21T330 75T347 186V452Q347 525 305 555T189
585Q115 585 70 555T24 452V185Q24 114 42 75T97 21T189 6ZM189 15Q136 15 102 29T50 80T33 185V452Q33 520 75 548T189 576Q259 576 298 549T338 452V186Q338 118 323 81T275 30T189 15ZM189 100Q196 100 199 104T202 125V461Q202 475 200 480T189 486Q182 486
179 481T175 461V125Q175 100 189 100ZM189 108Q183 108 183 122V465Q183 477 189 477Q194 477 194 465V122Q194 108 189 108ZM121 622Q97 622 80 639T63 681Q63 704 80 721T121 738Q145 738 163 721T181 681Q181 656 164 639T121 622ZM256 621Q231 621 213 638T195
679Q195 704 213 720T256 737Q280 737 297 720T314 679Q314 655 297 638T256 621ZM121 636Q141 636 154 649T167 681Q167 698 154 711T121 724Q103 724 90 712T77 681Q77 662 89 649T121 636ZM256 635Q274 635 287 648T300 679Q300 697 287 710T256 723Q236 723
223 711T209 679Q209 660 223 648T256 635ZM121 643Q105 643 95 654T84 681Q84 695 94 706T121 717Q138 717 149 706T160 681Q160 665 149 654T121 643ZM256 642Q239 642 228 653T216 679Q216 694 227 705T256 716Q272 716 282 705T293 679Q293 664 282 653T256
642Z" />
<glyph unicode="&#xd7;" glyph-name="multiply" horiz-adv-x="394" d="M286 62L197 150L109 63L11 161L99 249L11 337L109 435L197 347L286 436L383 338L295 249L383 160L286 62ZM286 86L359 160L271 249L359 338L286 412L197 323L109 411L35 337L123 249L35 161L109
87L197 174L286 86ZM286 98L197 186L109 99L46 161L135 249L46 337L109 399L197 311L286 400L347 338L259 249L347 160L286 98Z" />
<glyph unicode="&#xd8;" glyph-name="Oslash" horiz-adv-x="447" d="M4 -40L62 77Q53 99 49 125T44 186V455Q44 538 95 572T229 606Q277 606 310 596L328 634H448L394 524Q408 491 408 455V187Q408 108 390 65T332 6T229 -11Q204 -11 183 -9T142 1L122 -40H4ZM33
-22H111L133 23Q153 13 176 10T229 7Q286 7 321 22T374 76T391 187V455Q391 474 386 492T374 524L419 615H339L318 573Q282 588 229 588Q153 588 108 558T62 455V186Q62 114 81 76L33 -22ZM47 -13L91 77Q81 97 76 123T71 186V455Q71 522 114 550T229 579Q286 579
323 561L344 606H404L364 525Q382 498 382 455V187Q382 120 366 83T316 32T229 17Q199 17 174 21T129 36L105 -13H47ZM215 319L243 376V462Q243 479 239 484Q234 489 229 489Q224 489 219 484Q215 479 215 462V319ZM224 356V462Q224 471 226 477Q228 480 229 480Q232
480 233 477Q235 471 235 462V378L224 356ZM229 101Q235 101 239 107Q243 111 243 129V291L215 233V129Q215 111 219 107Q224 101 229 101ZM229 110Q224 110 224 129V231L235 253V129Q235 110 229 110Z" />
<glyph unicode="&#xd9;" glyph-name="Ugrave" horiz-adv-x="376" d="M265 647L279 625H171L71 714L42 738H200L265 647ZM254 639L193 724H81L176 639H254ZM240 646H179L99 717H189L240 646ZM188 -11Q127 -11 89 3T31 57T12 176V591H364V176Q364 98 345 58T287
3T188 -11ZM188 6Q243 6 278 19T330 68T347 176V574H194V127Q194 114 188 114Q182 114 182 127V574H29V176Q29 106 46 70T98 20T188 6ZM188 15Q138 15 105 27T55 74T38 176V566H174V129Q174 105 188 105Q203 105 203 129V566H339V176Q339 109 323 74T273 27T188
15Z" />
<glyph unicode="&#xda;" glyph-name="Uacute" horiz-adv-x="376" d="M188 -11Q127 -11 89 3T31 57T12 176V591H364V176Q364 98 345 58T287 3T188 -11ZM188 6Q243 6 278 19T330 68T347 176V574H194V127Q194 114 188 114Q182 114 182 127V574H29V176Q29 106 46 70T98
20T188 6ZM188 15Q138 15 105 27T55 74T38 176V566H174V129Q174 105 188 105Q203 105 203 129V566H339V176Q339 109 323 74T273 27T188 15ZM118 647L183 738H341L312 714L212 625H104L118 647ZM129 639H207L302 724H190L129 639ZM143 646L194 717H284L204 646H143Z"
/>
<glyph unicode="&#xdb;" glyph-name="Ucircumflex" horiz-adv-x="376" d="M188 -11Q127 -11 89 3T31 57T12 176V591H364V176Q364 98 345 58T287 3T188 -11ZM188 6Q243 6 278 19T330 68T347 176V574H194V127Q194 114 188 114Q182 114 182 127V574H29V176Q29 106
46 70T98 20T188 6ZM188 15Q138 15 105 27T55 74T38 176V566H174V129Q174 105 188 105Q203 105 203 129V566H339V176Q339 109 323 74T273 27T188 15ZM146 745H230L345 620H226L188 649L151 620H31L146 745ZM62 634H146L188 666L231 634H314L224 731H152L62 634ZM78
641L155 724H221L298 641H233L188 675L144 641H78Z" />
<glyph unicode="&#xdc;" glyph-name="Udieresis" horiz-adv-x="376" d="M188 -11Q127 -11 89 3T31 57T12 176V591H364V176Q364 98 345 58T287 3T188 -11ZM188 6Q243 6 278 19T330 68T347 176V574H194V127Q194 114 188 114Q182 114 182 127V574H29V176Q29 106 46
70T98 20T188 6ZM188 15Q138 15 105 27T55 74T38 176V566H174V129Q174 105 188 105Q203 105 203 129V566H339V176Q339 109 323 74T273 27T188 15ZM120 622Q96 622 79 639T62 681Q62 704 79 721T120 738Q144 738 162 721T180 681Q180 656 163 639T120 622ZM255 621Q230
621 212 638T194 679Q194 704 212 720T255 737Q279 737 296 720T313 679Q313 655 296 638T255 621ZM120 636Q140 636 153 649T166 681Q166 698 153 711T120 724Q102 724 89 712T76 681Q76 662 88 649T120 636ZM255 635Q273 635 286 648T299 679Q299 697 286 710T255
723Q235 723 222 711T208 679Q208 660 222 648T255 635ZM120 643Q104 643 94 654T83 681Q83 695 93 706T120 717Q137 717 148 706T159 681Q159 665 148 654T120 643ZM255 642Q238 642 227 653T215 679Q215 694 226 705T255 716Q271 716 281 705T292 679Q292 664
281 653T255 642Z" />
<glyph unicode="&#xdd;" glyph-name="Yacute" horiz-adv-x="407" d="M108 0V244L1 591H193L209 527L225 591H406L297 236V0H108ZM125 18H280V239L382 573H238L209 456L180 573H25L125 247V18ZM134 27V250L38 564H173L201 451L209 404L217 451L245 564H370L271
241V27H134ZM139 647L204 738H362L333 714L233 625H125L139 647ZM150 639H228L323 724H211L150 639ZM164 646L215 717H305L225 646H164Z" />
<glyph unicode="&#xde;" glyph-name="Thorn" d="M9 0V591H204V503H234Q304 503 335 470T366 384V295Q366 247 355 206T317 140T241 115H203V0H9ZM27 18H186V133H241Q283 133 306 155T339 215T349 295V384Q349 429 322 457T234 485H187V573H27V18ZM35 27V564H178V476H234Q291
476 316 451T341 384V295Q341 254 332 220T302 164T241 143H177V27H35ZM177 221H187Q196 221 200 240Q202 250 203 267T205 310Q205 335 205 352T203 380Q200 399 190 399H177V221ZM186 230V390H190Q194 390 196 373Q196 364 196 349T197 310Q197 265 194 248Q191
230 187 230H186Z" />
<glyph unicode="&#xdf;" glyph-name="germandbls" horiz-adv-x="489" d="M71 -133Q54 -133 32 -130T-17 -122V1H43Q56 1 56 11V361H17V497H56Q58 559 85 590T161 631T277 642Q362 642 414 607T466 513V450Q466 418 458 392T430 347Q480 314 480 228V151Q480 67
436 34T312 0H242Q227 -72 181 -102T71 -133ZM71 -114Q143 -114 187 -73T231 64V490Q231 513 236 524T261 536Q284 536 287 521T291 476V432Q291 421 291 412T289 396Q286 383 275 383H248V291L281 289Q283 289 285 287Q289 283 289 274L290 175V171Q290 161 290
147T287 122T278 111H237V19H312Q384 19 423 48T463 151V228Q463 276 445 304T396 343Q422 359 435 387T448 450V513Q448 564 402 594T277 624Q216 624 170 615T99 578T74 493V479H35V380H74V11Q74 0 64 -9T43 -18H1V-107Q19 -110 36 -112T71 -114ZM11 -98V-27H43Q58
-27 70 -15T83 11V389H44V470H83V493Q83 545 106 570T174 605T277 614Q350 614 394 587T439 513V450Q439 408 420 378T355 343V341Q397 341 425 314T454 228V151Q454 81 416 55T312 28H246V102H278Q290 102 294 115T298 146T299 175L298 274Q297 283 295 288T289
295Q285 298 281 298L257 300V374H275Q292 374 296 389T300 432V476Q300 509 295 527T261 546Q237 546 230 532T222 490V64Q222 -10 194 -49T118 -99T11 -98ZM248 402H274Q273 402 273 432V476Q273 486 273 494T272 507Q270 518 261 518Q248 518 248 490V402ZM248
130H277Q274 132 274 146T273 171V175L272 270L248 271V130Z" />
<glyph unicode="&#xe0;" glyph-name="agrave" horiz-adv-x="356" d="M114 -6Q90 -6 65 1T22 32T5 107V179Q5 255 71 287H14V372Q14 439 48 472T175 506Q239 506 277 496T332 456T349 372V0H165V4Q144 -6 114 -6ZM114 12Q140 12 156 19T182 38V18H332V372Q332 421
317 445T268 479T175 488Q93 488 62 460T31 372V305H155Q149 301 139 298T115 289Q96 282 74 271T37 238T22 179V107Q22 65 36 45T72 18T114 12ZM114 21Q95 21 76 26T44 50T31 107V179Q31 217 47 238T91 271T147 293Q173 302 180 315T188 354V382Q188 393 186 399T174
406Q165 406 162 397Q159 388 159 371V314H39V372Q39 425 68 452T175 479Q230 479 262 471T309 439T324 372V27H191V71Q186 54 169 38T114 21ZM168 313V371Q168 397 174 397Q180 397 180 382V354Q180 325 168 313ZM174 98Q186 98 187 110Q188 116 188 123T188 141V247Q175
239 167 227T159 193V135Q159 120 161 109T174 98ZM174 107Q169 107 169 116L168 135V193Q168 216 180 229V117Q180 107 174 107ZM184 660L250 538H147L25 660H184ZM227 550L175 646H58L153 550H227ZM215 557H156L75 639H171L215 557Z" />
<glyph unicode="&#xe1;" glyph-name="aacute" horiz-adv-x="356" d="M114 -6Q90 -6 65 1T22 32T5 107V179Q5 255 71 287H14V372Q14 439 48 472T175 506Q239 506 277 496T332 456T349 372V0H165V4Q144 -6 114 -6ZM114 12Q140 12 156 19T182 38V18H332V372Q332 421
317 445T268 479T175 488Q93 488 62 460T31 372V305H155Q149 301 139 298T115 289Q96 282 74 271T37 238T22 179V107Q22 65 36 45T72 18T114 12ZM114 21Q95 21 76 26T44 50T31 107V179Q31 217 47 238T91 271T147 293Q173 302 180 315T188 354V382Q188 393 186 399T174
406Q165 406 162 397Q159 388 159 371V314H39V372Q39 425 68 452T175 479Q230 479 262 471T309 439T324 372V27H191V71Q186 54 169 38T114 21ZM168 313V371Q168 397 174 397Q180 397 180 382V354Q180 325 168 313ZM174 98Q186 98 187 110Q188 116 188 123T188 141V247Q175
239 167 227T159 193V135Q159 120 161 109T174 98ZM174 107Q169 107 169 116L168 135V193Q168 216 180 229V117Q180 107 174 107ZM176 660H335L213 538H110L176 660ZM133 550H207L302 646H185L133 550ZM145 557L189 639H285L204 557H145Z" />
<glyph unicode="&#xe2;" glyph-name="acircumflex" horiz-adv-x="356" d="M114 -6Q90 -6 65 1T22 32T5 107V179Q5 255 71 287H14V372Q14 439 48 472T175 506Q239 506 277 496T332 456T349 372V0H165V4Q144 -6 114 -6ZM114 12Q140 12 156 19T182 38V18H332V372Q332
421 317 445T268 479T175 488Q93 488 62 460T31 372V305H155Q149 301 139 298T115 289Q96 282 74 271T37 238T22 179V107Q22 65 36 45T72 18T114 12ZM114 21Q95 21 76 26T44 50T31 107V179Q31 217 47 238T91 271T147 293Q173 302 180 315T188 354V382Q188 393 186
399T174 406Q165 406 162 397Q159 388 159 371V314H39V372Q39 425 68 452T175 479Q230 479 262 471T309 439T324 372V27H191V71Q186 54 169 38T114 21ZM168 313V371Q168 397 174 397Q180 397 180 382V354Q180 325 168 313ZM174 98Q186 98 187 110Q188 116 188 123T188
141V247Q175 239 167 227T159 193V135Q159 120 161 109T174 98ZM174 107Q169 107 169 116L168 135V193Q168 216 180 229V117Q180 107 174 107ZM141 663H221L334 542H217L181 569L146 542H29L141 663ZM60 556H141L181 586L222 556H302L215 649H147L60 556ZM76 563L150
642H212L286 563H224L181 595L139 563H76Z" />
<glyph unicode="&#xe3;" glyph-name="atilde" horiz-adv-x="356" d="M114 -6Q90 -6 65 1T22 32T5 107V179Q5 255 71 287H14V372Q14 439 48 472T175 506Q239 506 277 496T332 456T349 372V0H165V4Q144 -6 114 -6ZM114 12Q140 12 156 19T182 38V18H332V372Q332 421
317 445T268 479T175 488Q93 488 62 460T31 372V305H155Q149 301 139 298T115 289Q96 282 74 271T37 238T22 179V107Q22 65 36 45T72 18T114 12ZM114 21Q95 21 76 26T44 50T31 107V179Q31 217 47 238T91 271T147 293Q173 302 180 315T188 354V382Q188 393 186 399T174
406Q165 406 162 397Q159 388 159 371V314H39V372Q39 425 68 452T175 479Q230 479 262 471T309 439T324 372V27H191V71Q186 54 169 38T114 21ZM168 313V371Q168 397 174 397Q180 397 180 382V354Q180 325 168 313ZM174 98Q186 98 187 110Q188 116 188 123T188 141V247Q175
239 167 227T159 193V135Q159 120 161 109T174 98ZM174 107Q169 107 169 116L168 135V193Q168 216 180 229V117Q180 107 174 107ZM223 540Q206 540 192 546T167 557Q157 562 152 565T141 568Q140 568 139 564T141 542H68Q62 592 82 624T139 656Q165 656 202 638Q212
633 219 630Q220 632 221 637T221 653H294Q302 607 281 574T223 540ZM223 554Q250 554 267 578T282 639H236Q233 615 223 615Q216 615 196 625Q163 642 139 642Q111 642 96 618T81 556H125Q123 582 141 582Q148 582 156 579T174 570Q184 565 196 560T223 554ZM223
561Q210 561 199 566T177 576Q167 581 158 585T141 589Q131 589 125 582T118 563H88Q88 595 102 615T139 635Q153 635 167 630T193 619Q202 615 210 612T223 608Q232 608 236 615T242 632H275Q275 597 259 579T223 561Z" />
<glyph unicode="&#xe4;" glyph-name="adieresis" horiz-adv-x="356" d="M114 -6Q90 -6 65 1T22 32T5 107V179Q5 255 71 287H14V372Q14 439 48 472T175 506Q239 506 277 496T332 456T349 372V0H165V4Q144 -6 114 -6ZM114 12Q140 12 156 19T182 38V18H332V372Q332
421 317 445T268 479T175 488Q93 488 62 460T31 372V305H155Q149 301 139 298T115 289Q96 282 74 271T37 238T22 179V107Q22 65 36 45T72 18T114 12ZM114 21Q95 21 76 26T44 50T31 107V179Q31 217 47 238T91 271T147 293Q173 302 180 315T188 354V382Q188 393 186
399T174 406Q165 406 162 397Q159 388 159 371V314H39V372Q39 425 68 452T175 479Q230 479 262 471T309 439T324 372V27H191V71Q186 54 169 38T114 21ZM168 313V371Q168 397 174 397Q180 397 180 382V354Q180 325 168 313ZM174 98Q186 98 187 110Q188 116 188 123T188
141V247Q175 239 167 227T159 193V135Q159 120 161 109T174 98ZM174 107Q169 107 169 116L168 135V193Q168 216 180 229V117Q180 107 174 107ZM115 537Q92 537 76 553T59 594Q59 617 75 633T115 649Q138 649 155 633T173 594Q173 570 156 554T115 537ZM246 536Q221
536 204 552T187 592Q187 616 204 632T246 648Q269 648 285 632T302 592Q302 569 286 553T246 536ZM115 551Q134 551 146 563T159 594Q159 611 146 623T115 635Q98 635 86 623T73 594Q73 576 85 564T115 551ZM246 550Q263 550 275 562T288 592Q288 609 276 621T246
634Q227 634 214 622T201 592Q201 574 214 562T246 550ZM115 558Q100 558 90 568T80 594Q80 607 89 617T115 628Q131 628 141 618T152 594Q152 579 142 569T115 558ZM246 557Q230 557 219 567T208 592Q208 606 218 616T246 627Q261 627 271 617T281 592Q281 578
271 568T246 557Z" />
<glyph unicode="&#xe5;" glyph-name="aring" horiz-adv-x="356" d="M114 -6Q90 -6 65 1T22 32T5 107V179Q5 255 71 287H14V372Q14 439 48 472T175 506Q239 506 277 496T332 456T349 372V0H165V4Q144 -6 114 -6ZM114 12Q140 12 156 19T182 38V18H332V372Q332 421
317 445T268 479T175 488Q93 488 62 460T31 372V305H155Q149 301 139 298T115 289Q96 282 74 271T37 238T22 179V107Q22 65 36 45T72 18T114 12ZM114 21Q95 21 76 26T44 50T31 107V179Q31 217 47 238T91 271T147 293Q173 302 180 315T188 354V382Q188 393 186 399T174
406Q165 406 162 397Q159 388 159 371V314H39V372Q39 425 68 452T175 479Q230 479 262 471T309 439T324 372V27H191V71Q186 54 169 38T114 21ZM168 313V371Q168 397 174 397Q180 397 180 382V354Q180 325 168 313ZM174 98Q186 98 187 110Q188 116 188 123T188 141V247Q175
239 167 227T159 193V135Q159 120 161 109T174 98ZM174 107Q169 107 169 116L168 135V193Q168 216 180 229V117Q180 107 174 107ZM181 524Q147 524 124 546T101 602Q101 636 124 659T181 682Q214 682 237 659T261 602Q261 570 238 547T181 524ZM181 538Q208 538
227 557T247 602Q247 629 228 648T181 668Q153 668 134 649T115 602Q115 575 134 557T181 538ZM181 545Q156 545 140 562T123 602Q123 627 139 644T181 661Q205 661 222 644T240 602Q240 579 223 562T181 545ZM181 581Q190 581 196 587T202 602Q202 623 181 623Q160
623 160 602Q160 593 166 587T181 581ZM181 588Q167 588 167 602Q167 616 181 616Q195 616 195 602Q195 588 181 588Z" />
<glyph unicode="&#xe6;" glyph-name="ae" horiz-adv-x="539" d="M355 -11Q328 -11 305 -10T262 0H174V4Q153 -6 120 -6Q94 -6 68 1T23 32T5 107V179Q5 223 23 248T67 288H5V373Q5 438 46 472T184 506Q216 506 239 505T282 498Q297 502 316 503T355 504Q442 504
489 474T537 361V177Q537 98 518 58T458 3T355 -11ZM355 7Q411 7 447 20T501 69T519 177V204H361V115Q361 105 359 101Q358 97 355 97Q352 97 350 99V227H519V361Q519 433 477 460T355 487Q316 487 282 479Q264 485 240 486T184 488Q98 488 61 460T23 373V306H163Q160
304 157 303T151 301L152 302L136 297Q108 288 82 275T40 239T23 179V107Q23 65 38 45T75 18T120 12Q147 12 164 19T192 39V18H266Q285 11 307 9T355 7ZM355 16Q329 16 308 18T268 27H201V71Q196 54 177 38T120 21Q100 21 80 26T46 50T32 107V179Q32 217 49 238T95
271T154 293Q182 303 190 315T198 354V383Q198 393 195 399T183 406Q173 406 171 397T168 371V315H32V373Q32 426 67 452T184 479Q215 479 239 477T281 470Q297 474 315 476T355 478Q430 478 470 453T510 361V236H341V99Q346 88 355 88Q362 88 366 94Q370 98 370
115V195H510V177Q510 110 494 76T443 29T355 16ZM341 296H370V379Q370 396 366 401Q361 406 355 406Q345 406 340 392Q341 389 341 383V296ZM177 314V371Q177 397 183 397Q189 397 189 383V354Q189 326 177 314ZM350 305V382Q350 388 349 391Q351 397 355 397Q361
397 361 379V305H350ZM183 99Q195 99 196 111Q197 116 197 123T198 141V247Q184 239 176 227T168 194V135Q168 120 170 110T183 99ZM183 108Q178 108 178 116L177 135V194Q177 216 189 229V118Q188 108 183 108Z" />
<glyph unicode="&#xe7;" glyph-name="ccedilla" horiz-adv-x="355" d="M181 -166Q152 -166 130 -157T81 -129L88 -115L109 -66L98 -58L120 -7Q59 4 33 47T6 176V361Q6 435 48 469T180 503Q269 503 311 469T353 361V264H191V244H353V176Q353 85 323 42T222 -9Q249
-15 266 -35T283 -82Q283 -118 254 -142T181 -166ZM181 -149Q216 -149 240 -130T265 -82Q265 -57 247 -41T200 -24H194L203 8Q276 11 305 48T335 176V226H186V112Q186 96 180 96Q173 96 173 112V380Q173 391 174 394T179 398Q182 398 184 395T186 380V282H335V361Q335
426 298 455T180 485Q98 485 61 456T24 361V176Q24 89 51 52T146 9L120 -52L161 -78Q165 -66 176 -66Q181 -66 185 -69T190 -81Q190 -88 185 -93T172 -98Q159 -98 146 -90T125 -75L104 -121Q119 -134 139 -141T181 -149ZM181 -141Q155 -141 138 -132T114 -119L128
-89Q136 -95 147 -100T172 -106Q183 -106 190 -99T198 -81Q198 -58 176 -58Q164 -58 159 -67L130 -49L158 16Q115 18 87 31T46 79T32 176V361Q32 428 70 452T180 477Q251 477 289 453T327 361V290H194V380Q194 395 190 400T180 406Q173 406 169 401T165 380V114Q165
88 180 88Q194 88 194 114V218H327V176Q327 112 314 78T271 31T197 16L182 -36Q185 -34 189 -33T200 -32Q225 -32 241 -46T257 -82Q257 -106 237 -123T181 -141Z" />
<glyph unicode="&#xe8;" glyph-name="egrave" horiz-adv-x="355" d="M180 -11Q120 -11 82 3T26 58T7 176V361Q7 442 52 473T180 504Q263 504 308 473T353 361V176Q353 98 334 58T277 4T180 -11ZM180 7Q234 7 268 20T319 69T336 176V204H186V115Q186 104 185 101T180
97Q174 97 174 115V227H336V361Q336 433 296 459T180 486Q105 486 65 460T24 361V176Q24 106 40 70T92 20T180 7ZM180 16Q129 16 96 28T48 75T32 176V361Q32 428 70 452T180 477Q251 477 289 453T327 361V236H165V115Q165 99 169 94T180 88Q194 88 194 115V195H327V176Q327
110 312 76T264 29T180 16ZM165 296H194V381Q194 406 180 406Q173 406 169 401T165 381V296ZM174 305V382Q174 397 180 397Q186 397 186 382V305H174ZM181 660L247 538H144L22 660H181ZM224 550L172 646H55L150 550H224ZM212 557H153L72 639H168L212 557Z" />
<glyph unicode="&#xe9;" glyph-name="eacute" horiz-adv-x="355" d="M180 -11Q120 -11 82 3T26 58T7 176V361Q7 442 52 473T180 504Q263 504 308 473T353 361V176Q353 98 334 58T277 4T180 -11ZM180 7Q234 7 268 20T319 69T336 176V204H186V115Q186 104 185 101T180
97Q174 97 174 115V227H336V361Q336 433 296 459T180 486Q105 486 65 460T24 361V176Q24 106 40 70T92 20T180 7ZM180 16Q129 16 96 28T48 75T32 176V361Q32 428 70 452T180 477Q251 477 289 453T327 361V236H165V115Q165 99 169 94T180 88Q194 88 194 115V195H327V176Q327
110 312 76T264 29T180 16ZM165 296H194V381Q194 406 180 406Q173 406 169 401T165 381V296ZM174 305V382Q174 397 180 397Q186 397 186 382V305H174ZM173 660H332L210 538H107L173 660ZM130 550H204L299 646H182L130 550ZM142 557L186 639H282L201 557H142Z" />
<glyph unicode="&#xea;" glyph-name="ecircumflex" horiz-adv-x="355" d="M180 -11Q120 -11 82 3T26 58T7 176V361Q7 442 52 473T180 504Q263 504 308 473T353 361V176Q353 98 334 58T277 4T180 -11ZM180 7Q234 7 268 20T319 69T336 176V204H186V115Q186 104 185
101T180 97Q174 97 174 115V227H336V361Q336 433 296 459T180 486Q105 486 65 460T24 361V176Q24 106 40 70T92 20T180 7ZM180 16Q129 16 96 28T48 75T32 176V361Q32 428 70 452T180 477Q251 477 289 453T327 361V236H165V115Q165 99 169 94T180 88Q194 88 194
115V195H327V176Q327 110 312 76T264 29T180 16ZM165 296H194V381Q194 406 180 406Q173 406 169 401T165 381V296ZM174 305V382Q174 397 180 397Q186 397 186 382V305H174ZM138 663H218L331 542H214L178 569L143 542H26L138 663ZM57 556H138L178 586L219 556H299L212
649H144L57 556ZM73 563L147 642H209L283 563H221L178 595L136 563H73Z" />
<glyph unicode="&#xeb;" glyph-name="edieresis" horiz-adv-x="355" d="M180 -11Q120 -11 82 3T26 58T7 176V361Q7 442 52 473T180 504Q263 504 308 473T353 361V176Q353 98 334 58T277 4T180 -11ZM180 7Q234 7 268 20T319 69T336 176V204H186V115Q186 104 185
101T180 97Q174 97 174 115V227H336V361Q336 433 296 459T180 486Q105 486 65 460T24 361V176Q24 106 40 70T92 20T180 7ZM180 16Q129 16 96 28T48 75T32 176V361Q32 428 70 452T180 477Q251 477 289 453T327 361V236H165V115Q165 99 169 94T180 88Q194 88 194
115V195H327V176Q327 110 312 76T264 29T180 16ZM165 296H194V381Q194 406 180 406Q173 406 169 401T165 381V296ZM174 305V382Q174 397 180 397Q186 397 186 382V305H174ZM112 537Q89 537 73 553T56 594Q56 617 72 633T112 649Q135 649 152 633T170 594Q170 570
153 554T112 537ZM243 536Q218 536 201 552T184 592Q184 616 201 632T243 648Q266 648 282 632T299 592Q299 569 283 553T243 536ZM112 551Q131 551 143 563T156 594Q156 611 143 623T112 635Q95 635 83 623T70 594Q70 576 82 564T112 551ZM243 550Q260 550 272
562T285 592Q285 609 273 621T243 634Q224 634 211 622T198 592Q198 574 211 562T243 550ZM112 558Q97 558 87 568T77 594Q77 607 86 617T112 628Q128 628 138 618T149 594Q149 579 139 569T112 558ZM243 557Q227 557 216 567T205 592Q205 606 215 616T243 627Q258
627 268 617T278 592Q278 578 268 568T243 557Z" />
<glyph unicode="&#xec;" glyph-name="igrave" horiz-adv-x="174" d="M9 0V495H165V0H9ZM23 18H151V477H23V18ZM31 27V468H143V27H31ZM346 660L412 538H309L187 660H346ZM389 550L337 646H220L315 550H389ZM377 557H318L237 639H333L377 557Z" />
<glyph unicode="&#xed;" glyph-name="iacute" horiz-adv-x="174" d="M9 0V495H165V0H9ZM23 18H151V477H23V18ZM31 27V468H143V27H31ZM82 660H241L119 538H16L82 660ZM39 550H113L208 646H91L39 550ZM51 557L95 639H191L110 557H51Z" />
<glyph unicode="&#xee;" glyph-name="icircumflex" horiz-adv-x="174" d="M9 0V495H165V0H9ZM23 18H151V477H23V18ZM31 27V468H143V27H31ZM303 663H383L496 542H379L343 569L308 542H191L303 663ZM222 556H303L343 586L384 556H464L377 649H309L222 556ZM238 563L312
642H374L448 563H386L343 595L301 563H238Z" />
<glyph unicode="&#xef;" glyph-name="idieresis" horiz-adv-x="174" d="M9 0V495H165V0H9ZM23 18H151V477H23V18ZM31 27V468H143V27H31ZM277 537Q254 537 238 553T221 594Q221 617 237 633T277 649Q300 649 317 633T335 594Q335 570 318 554T277 537ZM408 536Q383
536 366 552T349 592Q349 616 366 632T408 648Q431 648 447 632T464 592Q464 569 448 553T408 536ZM277 551Q296 551 308 563T321 594Q321 611 308 623T277 635Q260 635 248 623T235 594Q235 576 247 564T277 551ZM408 550Q425 550 437 562T450 592Q450 609 438
621T408 634Q389 634 376 622T363 592Q363 574 376 562T408 550ZM277 558Q262 558 252 568T242 594Q242 607 251 617T277 628Q293 628 303 618T314 594Q314 579 304 569T277 558ZM408 557Q392 557 381 567T370 592Q370 606 380 616T408 627Q423 627 433 617T443
592Q443 578 433 568T408 557Z" />
<glyph unicode="&#xf0;" glyph-name="eth" horiz-adv-x="360" d="M180 -11Q119 -11 81 4T25 60T7 181V350Q7 427 46 461L69 510L37 503V648Q51 655 73 660T147 666L168 708H285L254 653Q279 643 297 624T327 569Q339 535 346 483T353 358V182Q353 103 335 61T278
4T180 -11ZM180 7Q234 7 268 21T319 73T336 182V358Q336 433 329 484T309 568Q296 600 276 617T229 641L254 689H177L156 648Q118 648 92 646T55 635V526Q64 528 75 530T99 534L72 480H147L158 500Q161 505 164 510T169 521Q180 504 183 479H180Q105 479 65 452T24
350V181Q24 110 40 72T91 21T180 7ZM180 17Q129 17 96 29T48 77T32 181V350Q32 418 70 444T180 470H193Q191 488 185 506T166 536L142 489H86L114 545Q96 544 85 542T63 538V629Q62 630 83 635Q94 637 112 638T157 639H161L182 680H239L216 634Q245 629 266 615T300
569Q313 538 320 487T327 358V182Q327 114 312 78T264 30T180 17ZM180 90Q186 90 190 96Q194 101 194 118V368Q194 385 190 390Q186 396 180 396Q174 396 169 390Q165 385 165 368V118Q165 101 169 96Q174 90 180 90ZM180 100Q177 100 176 104Q174 108 174 118V368Q174
387 180 387Q186 387 186 368V118Q186 108 184 104Q183 100 180 100Z" />
<glyph unicode="&#xf1;" glyph-name="ntilde" horiz-adv-x="362" d="M9 0V496H168L171 478Q200 502 243 502Q308 502 331 467T355 358V0H9ZM26 18H175V368Q177 369 182 369Q188 369 188 359V18H338V358Q338 420 318 452T242 484Q214 484 194 473T161 441L155 478H26V18ZM34
27V469H148L158 411Q166 439 188 457T243 475Q293 475 311 446T329 358V27H196V356Q196 370 192 374T180 378Q173 378 167 375V27H34ZM222 540Q205 540 191 546T166 557Q156 562 151 565T140 568Q139 568 138 564T140 542H67Q61 592 81 624T138 656Q164 656 201
638Q211 633 218 630Q219 632 220 637T220 653H293Q301 607 280 574T222 540ZM222 554Q249 554 266 578T281 639H235Q232 615 222 615Q215 615 195 625Q162 642 138 642Q110 642 95 618T80 556H124Q122 582 140 582Q147 582 155 579T173 570Q183 565 195 560T222
554ZM222 561Q209 561 198 566T176 576Q166 581 157 585T140 589Q130 589 124 582T117 563H87Q87 595 101 615T138 635Q152 635 166 630T192 619Q201 615 209 612T222 608Q231 608 235 615T241 632H274Q274 597 258 579T222 561Z" />
<glyph unicode="&#xf2;" glyph-name="ograve" horiz-adv-x="360" d="M180 -11Q120 -11 82 3T26 58T7 176V361Q7 442 52 473T180 504Q263 504 308 473T353 361V176Q353 98 334 58T277 4T180 -11ZM180 7Q234 7 268 20T319 69T336 176V361Q336 433 296 459T180 486Q105
486 65 460T24 361V176Q24 106 40 70T92 20T180 7ZM180 16Q129 16 96 28T48 75T32 176V361Q32 428 70 452T180 477Q251 477 289 453T327 361V176Q327 110 312 76T264 29T180 16ZM180 88Q191 88 193 96T195 112V382Q195 396 192 401T180 406Q173 406 169 402T165
382V112Q165 102 167 95T180 88ZM180 97Q174 97 174 112V382Q174 397 180 397Q186 397 186 382V112Q186 97 180 97ZM183 660L249 538H146L24 660H183ZM226 550L174 646H57L152 550H226ZM214 557H155L74 639H170L214 557Z" />
<glyph unicode="&#xf3;" glyph-name="oacute" horiz-adv-x="360" d="M180 -11Q120 -11 82 3T26 58T7 176V361Q7 442 52 473T180 504Q263 504 308 473T353 361V176Q353 98 334 58T277 4T180 -11ZM180 7Q234 7 268 20T319 69T336 176V361Q336 433 296 459T180 486Q105
486 65 460T24 361V176Q24 106 40 70T92 20T180 7ZM180 16Q129 16 96 28T48 75T32 176V361Q32 428 70 452T180 477Q251 477 289 453T327 361V176Q327 110 312 76T264 29T180 16ZM180 88Q191 88 193 96T195 112V382Q195 396 192 401T180 406Q173 406 169 402T165
382V112Q165 102 167 95T180 88ZM180 97Q174 97 174 112V382Q174 397 180 397Q186 397 186 382V112Q186 97 180 97ZM175 660H334L212 538H109L175 660ZM132 550H206L301 646H184L132 550ZM144 557L188 639H284L203 557H144Z" />
<glyph unicode="&#xf4;" glyph-name="ocircumflex" horiz-adv-x="360" d="M180 -11Q120 -11 82 3T26 58T7 176V361Q7 442 52 473T180 504Q263 504 308 473T353 361V176Q353 98 334 58T277 4T180 -11ZM180 7Q234 7 268 20T319 69T336 176V361Q336 433 296 459T180
486Q105 486 65 460T24 361V176Q24 106 40 70T92 20T180 7ZM180 16Q129 16 96 28T48 75T32 176V361Q32 428 70 452T180 477Q251 477 289 453T327 361V176Q327 110 312 76T264 29T180 16ZM180 88Q191 88 193 96T195 112V382Q195 396 192 401T180 406Q173 406 169
402T165 382V112Q165 102 167 95T180 88ZM180 97Q174 97 174 112V382Q174 397 180 397Q186 397 186 382V112Q186 97 180 97ZM140 663H220L333 542H216L180 569L145 542H28L140 663ZM59 556H140L180 586L221 556H301L214 649H146L59 556ZM75 563L149 642H211L285
563H223L180 595L138 563H75Z" />
<glyph unicode="&#xf5;" glyph-name="otilde" horiz-adv-x="360" d="M180 -11Q120 -11 82 3T26 58T7 176V361Q7 442 52 473T180 504Q263 504 308 473T353 361V176Q353 98 334 58T277 4T180 -11ZM180 7Q234 7 268 20T319 69T336 176V361Q336 433 296 459T180 486Q105
486 65 460T24 361V176Q24 106 40 70T92 20T180 7ZM180 16Q129 16 96 28T48 75T32 176V361Q32 428 70 452T180 477Q251 477 289 453T327 361V176Q327 110 312 76T264 29T180 16ZM180 88Q191 88 193 96T195 112V382Q195 396 192 401T180 406Q173 406 169 402T165
382V112Q165 102 167 95T180 88ZM180 97Q174 97 174 112V382Q174 397 180 397Q186 397 186 382V112Q186 97 180 97ZM222 540Q205 540 191 546T166 557Q156 562 151 565T140 568Q139 568 138 564T140 542H67Q61 592 81 624T138 656Q164 656 201 638Q211 633 218
630Q219 632 220 637T220 653H293Q301 607 280 574T222 540ZM222 554Q249 554 266 578T281 639H235Q232 615 222 615Q215 615 195 625Q162 642 138 642Q110 642 95 618T80 556H124Q122 582 140 582Q147 582 155 579T173 570Q183 565 195 560T222 554ZM222 561Q209
561 198 566T176 576Q166 581 157 585T140 589Q130 589 124 582T117 563H87Q87 595 101 615T138 635Q152 635 166 630T192 619Q201 615 209 612T222 608Q231 608 235 615T241 632H274Q274 597 258 579T222 561Z" />
<glyph unicode="&#xf6;" glyph-name="odieresis" horiz-adv-x="360" d="M180 -11Q120 -11 82 3T26 58T7 176V361Q7 442 52 473T180 504Q263 504 308 473T353 361V176Q353 98 334 58T277 4T180 -11ZM180 7Q234 7 268 20T319 69T336 176V361Q336 433 296 459T180
486Q105 486 65 460T24 361V176Q24 106 40 70T92 20T180 7ZM180 16Q129 16 96 28T48 75T32 176V361Q32 428 70 452T180 477Q251 477 289 453T327 361V176Q327 110 312 76T264 29T180 16ZM180 88Q191 88 193 96T195 112V382Q195 396 192 401T180 406Q173 406 169
402T165 382V112Q165 102 167 95T180 88ZM180 97Q174 97 174 112V382Q174 397 180 397Q186 397 186 382V112Q186 97 180 97ZM114 537Q91 537 75 553T58 594Q58 617 74 633T114 649Q137 649 154 633T172 594Q172 570 155 554T114 537ZM245 536Q220 536 203 552T186
592Q186 616 203 632T245 648Q268 648 284 632T301 592Q301 569 285 553T245 536ZM114 551Q133 551 145 563T158 594Q158 611 145 623T114 635Q97 635 85 623T72 594Q72 576 84 564T114 551ZM245 550Q262 550 274 562T287 592Q287 609 275 621T245 634Q226 634
213 622T200 592Q200 574 213 562T245 550ZM114 558Q99 558 89 568T79 594Q79 607 88 617T114 628Q130 628 140 618T151 594Q151 579 141 569T114 558ZM245 557Q229 557 218 567T207 592Q207 606 217 616T245 627Q260 627 270 617T280 592Q280 578 270 568T245
557Z" />
<glyph unicode="&#xf7;" glyph-name="divide" horiz-adv-x="351" d="M175 50Q139 50 115 74T90 134Q90 181 127 207H14V351H128Q111 362 101 381T90 424Q90 461 114 486T174 511Q210 511 234 486T259 424Q259 401 248 382T219 351H337V207H223Q260 181 260 134Q260
99 236 75T175 50ZM174 356Q203 356 222 375T242 424Q242 453 223 473T174 493Q145 493 126 473T106 424Q106 395 125 376T174 356ZM174 365Q149 365 132 382T115 424Q115 449 132 466T174 484Q200 484 217 467T234 424Q234 399 217 382T174 365ZM31 225H320V334H31V225ZM39
234V325H311V234H39ZM175 67Q204 67 223 86T243 134Q243 163 224 183T175 204Q146 204 127 184T107 134Q107 105 126 86T175 67ZM175 76Q149 76 133 93T116 134Q116 160 132 178T175 196Q201 196 218 178T235 134Q235 110 218 93T175 76Z" />
<glyph unicode="&#xf8;" glyph-name="oslash" horiz-adv-x="423" d="M7 -40L54 57Q44 79 38 109T32 178V358Q32 441 77 472T207 503Q225 503 240 502T270 499L296 555H412L358 445Q372 428 377 408T382 358V179Q382 101 364 60T306 4T207 -11Q189 -11 171 -10T138
-5L122 -40H7ZM35 -22H111L128 16Q145 11 165 9T207 7Q261 7 296 20T347 70T364 179V358Q364 387 359 406T339 442L384 537H308L294 508Q287 492 279 478Q252 485 207 485Q131 485 90 458T49 358V178Q49 97 73 58L35 -22ZM49 -13L84 59Q58 94 58 178V358Q58 425
96 450T207 476Q252 476 283 467L313 528H370L328 440Q356 412 356 358V179Q356 112 340 77T291 29T207 16Q183 16 163 18T125 27L106 -13H49ZM192 262L221 323V376Q221 393 217 398Q212 403 207 403Q201 403 196 398Q192 393 192 376V262ZM201 299V376Q201 394
207 394Q213 394 213 376V325L201 299ZM207 89Q213 89 217 95Q221 100 221 116V237L192 176V116Q192 89 207 89ZM207 98Q201 98 201 116V174L213 199V116Q213 98 207 98Z" />
<glyph unicode="&#xf9;" glyph-name="ugrave" horiz-adv-x="367" d="M125 -6Q58 -6 35 29T12 138V495H358V0H198L195 18Q181 7 165 1T125 -6ZM127 12Q154 12 173 23T205 54L212 18H341V478H191V129Q189 127 186 127Q179 127 179 139V478H29V138Q29 75 49 44T127
12ZM126 21Q74 21 56 50T37 138V469H170V137Q170 118 187 118Q195 118 199 122V469H332V27H219L209 85Q201 57 180 39T126 21ZM185 660L251 538H148L26 660H185ZM228 550L176 646H59L154 550H228ZM216 557H157L76 639H172L216 557Z" />
<glyph unicode="&#xfa;" glyph-name="uacute" horiz-adv-x="367" d="M125 -6Q58 -6 35 29T12 138V495H358V0H198L195 18Q181 7 165 1T125 -6ZM127 12Q154 12 173 23T205 54L212 18H341V478H191V129Q189 127 186 127Q179 127 179 139V478H29V138Q29 75 49 44T127
12ZM126 21Q74 21 56 50T37 138V469H170V137Q170 118 187 118Q195 118 199 122V469H332V27H219L209 85Q201 57 180 39T126 21ZM177 660H336L214 538H111L177 660ZM134 550H208L303 646H186L134 550ZM146 557L190 639H286L205 557H146Z" />
<glyph unicode="&#xfb;" glyph-name="ucircumflex" horiz-adv-x="367" d="M125 -6Q58 -6 35 29T12 138V495H358V0H198L195 18Q181 7 165 1T125 -6ZM127 12Q154 12 173 23T205 54L212 18H341V478H191V129Q189 127 186 127Q179 127 179 139V478H29V138Q29 75 49
44T127 12ZM126 21Q74 21 56 50T37 138V469H170V137Q170 118 187 118Q195 118 199 122V469H332V27H219L209 85Q201 57 180 39T126 21ZM142 663H222L335 542H218L182 569L147 542H30L142 663ZM61 556H142L182 586L223 556H303L216 649H148L61 556ZM77 563L151 642H213L287
563H225L182 595L140 563H77Z" />
<glyph unicode="&#xfc;" glyph-name="udieresis" horiz-adv-x="367" d="M125 -6Q58 -6 35 29T12 138V495H358V0H198L195 18Q181 7 165 1T125 -6ZM127 12Q154 12 173 23T205 54L212 18H341V478H191V129Q189 127 186 127Q179 127 179 139V478H29V138Q29 75 49 44T127
12ZM126 21Q74 21 56 50T37 138V469H170V137Q170 118 187 118Q195 118 199 122V469H332V27H219L209 85Q201 57 180 39T126 21ZM116 537Q93 537 77 553T60 594Q60 617 76 633T116 649Q139 649 156 633T174 594Q174 570 157 554T116 537ZM247 536Q222 536 205 552T188
592Q188 616 205 632T247 648Q270 648 286 632T303 592Q303 569 287 553T247 536ZM116 551Q135 551 147 563T160 594Q160 611 147 623T116 635Q99 635 87 623T74 594Q74 576 86 564T116 551ZM247 550Q264 550 276 562T289 592Q289 609 277 621T247 634Q228 634
215 622T202 592Q202 574 215 562T247 550ZM116 558Q101 558 91 568T81 594Q81 607 90 617T116 628Q132 628 142 618T153 594Q153 579 143 569T116 558ZM247 557Q231 557 220 567T209 592Q209 606 219 616T247 627Q262 627 272 617T282 592Q282 578 272 568T247
557Z" />
<glyph unicode="&#xfd;" glyph-name="yacute" horiz-adv-x="385" d="M139 -106Q107 -106 70 -100T9 -86V43Q23 39 40 35T72 30Q85 30 82 46L-5 495H189L198 412L207 495H390L309 78Q291 -22 250 -64T139 -106ZM139 -87Q200 -87 238 -47T293 82L369 477H223L198
260L174 477H16L100 40Q105 11 72 11Q65 11 56 13T27 20V-72Q45 -77 76 -82T139 -87ZM139 -78Q109 -78 81 -74T35 -64V8Q59 2 73 2Q94 2 104 11T109 42L27 468H166L197 188L198 168L199 188L231 468H359L284 84Q268 3 234 -37T139 -78ZM193 660H352L230 538H127L193
660ZM150 550H224L319 646H202L150 550ZM162 557L206 639H302L221 557H162Z" />
<glyph unicode="&#xfe;" glyph-name="thorn" horiz-adv-x="362" d="M9 -107V639H193V514Q210 521 235 521Q268 521 295 510T338 470T355 390V170Q355 74 325 34T236 -6Q212 -6 193 2V-107H9ZM26 -89H176V34Q186 25 201 19T236 13Q286 13 312 48T338 170V390Q338
435 324 459T287 493T235 503Q213 503 199 496T176 480V620H26V-89ZM35 -80V611H168V454Q176 467 189 480T235 493Q273 493 301 472T330 390V170Q330 91 307 57T236 22Q207 22 192 34T168 61V-80H35ZM182 102Q189 102 193 108Q197 114 197 130V378Q197 386 196
391T193 400Q188 405 182 405H176Q174 404 172 404L168 403V130Q168 112 172 108Q175 102 182 102ZM182 111Q176 111 176 130V396H182Q185 396 186 393Q188 387 188 378V130Q188 111 182 111Z" />
<glyph unicode="&#xff;" glyph-name="ydieresis" horiz-adv-x="385" d="M139 -106Q107 -106 70 -100T9 -86V43Q23 39 40 35T72 30Q85 30 82 46L-5 495H189L198 412L207 495H390L309 78Q291 -22 250 -64T139 -106ZM139 -87Q200 -87 238 -47T293 82L369 477H223L198
260L174 477H16L100 40Q105 11 72 11Q65 11 56 13T27 20V-72Q45 -77 76 -82T139 -87ZM139 -78Q109 -78 81 -74T35 -64V8Q59 2 73 2Q94 2 104 11T109 42L27 468H166L197 188L198 168L199 188L231 468H359L284 84Q268 3 234 -37T139 -78ZM132 537Q109 537 93 553T76
594Q76 617 92 633T132 649Q155 649 172 633T190 594Q190 570 173 554T132 537ZM263 536Q238 536 221 552T204 592Q204 616 221 632T263 648Q286 648 302 632T319 592Q319 569 303 553T263 536ZM132 551Q151 551 163 563T176 594Q176 611 163 623T132 635Q115 635
103 623T90 594Q90 576 102 564T132 551ZM263 550Q280 550 292 562T305 592Q305 609 293 621T263 634Q244 634 231 622T218 592Q218 574 231 562T263 550ZM132 558Q117 558 107 568T97 594Q97 607 106 617T132 628Q148 628 158 618T169 594Q169 579 159 569T132
558ZM263 557Q247 557 236 567T225 592Q225 606 235 616T263 627Q278 627 288 617T298 592Q298 578 288 568T263 557Z" />
<glyph unicode="&#x2013;" glyph-name="endash" horiz-adv-x="440" d="M11 239V342H429V239H11ZM29 252H412V329H29V252ZM37 258V323H403V258H37Z" />
<glyph unicode="&#x2014;" glyph-name="emdash" horiz-adv-x="587" d="M11 239V342H576V239H11ZM29 252H558V329H29V252ZM38 258V323H549V258H38Z" />
<glyph unicode="&#x2018;" glyph-name="quoteleft" horiz-adv-x="209" d="M103 316Q66 316 49 337T30 390Q28 413 35 440T58 493T93 535T136 552Q143 552 158 547Q165 544 175 538T200 521Q178 505 161 484T143 448Q143 443 146 440T152 434Q160 424 167 415T174
386Q174 357 156 337T103 316ZM103 332Q131 332 145 347T160 386Q160 399 154 407T142 423Q137 428 133 434T129 449Q130 468 143 488T173 521Q160 530 152 533T136 536Q115 536 98 522T69 484T50 436T44 391Q46 369 58 351T103 332ZM103 340Q74 340 64 356T51
391Q50 416 60 448T91 504T136 528Q142 528 148 527T161 521Q146 510 134 490T122 449Q122 437 130 428T145 409T153 386Q153 366 140 353T103 340Z" />
<glyph unicode="&#x2019;" glyph-name="quoteright" horiz-adv-x="210" d="M74 319Q59 319 43 327T16 348L31 359Q46 368 56 385T67 419Q67 421 66 423T59 432Q52 438 44 450T36 482Q36 511 56 530T107 549Q138 549 159 528T180 476Q180 437 165 401T126 342T74
319ZM74 331Q95 331 111 346T140 384T159 431T166 476Q166 500 149 517T107 535Q82 535 66 520T50 482Q50 467 56 458T69 441Q74 435 77 431T81 419Q81 379 37 346Q42 339 53 335T74 331ZM74 338Q68 338 62 339T49 346Q64 357 76 377T88 419Q88 428 84 434T74 446Q68
452 63 460T57 482Q57 501 70 514T107 528Q133 528 146 511T159 476Q159 450 148 418T118 362T74 338Z" />
<glyph unicode="&#x201a;" glyph-name="quotesinglbase" horiz-adv-x="200" d="M18 -139Q36 -87 43 -65T52 -35T54 -21Q54 -10 51 -5T42 8Q35 16 28 29T20 64Q20 96 42 118T96 140Q129 140 151 117T174 60Q174 17 155 -33T109 -139H18ZM37 -125H100Q126 -72 143
-26T160 60Q160 88 142 107T96 126Q70 126 52 108T34 64Q34 46 40 36T53 17Q59 9 63 1T68 -21Q68 -29 67 -37T59 -64T37 -125ZM47 -118Q60 -80 66 -63T73 -37T75 -21Q75 -5 70 4T58 21Q52 29 47 38T41 64Q41 88 57 103T96 119Q121 119 137 102T153 60Q153 22 137
-22T96 -118H47Z" />
<glyph unicode="&#x201c;" glyph-name="quotedblleft" horiz-adv-x="370" d="M264 316Q227 316 210 337T191 390Q189 413 196 440T219 493T254 535T297 552Q304 552 319 547Q326 544 336 538T361 521Q339 505 322 484T304 448Q304 443 307 440T313 434Q321 424
328 415T335 386Q335 357 317 337T264 316ZM264 332Q292 332 306 347T321 386Q321 399 315 407T303 423Q298 428 294 434T290 449Q291 468 304 488T334 521Q321 530 313 533T297 536Q276 536 259 522T230 484T211 436T205 391Q207 369 219 351T264 332ZM264 340Q235
340 225 356T212 391Q211 416 221 448T252 504T297 528Q303 528 309 527T322 521Q307 510 295 490T283 449Q283 437 291 428T306 409T314 386Q314 366 301 353T264 340ZM103 316Q66 316 49 337T30 390Q28 413 35 440T58 493T93 535T136 552Q143 552 158 547Q165
544 175 538T200 521Q178 505 161 484T143 448Q143 443 146 440T152 434Q160 424 167 415T174 386Q174 357 156 337T103 316ZM103 332Q131 332 145 347T160 386Q160 399 154 407T142 423Q137 428 133 434T129 449Q130 468 143 488T173 521Q160 530 152 533T136
536Q115 536 98 522T69 484T50 436T44 391Q46 369 58 351T103 332ZM103 340Q74 340 64 356T51 391Q50 416 60 448T91 504T136 528Q142 528 148 527T161 521Q146 510 134 490T122 449Q122 437 130 428T145 409T153 386Q153 366 140 353T103 340Z" />
<glyph unicode="&#x201d;" glyph-name="quotedblright" horiz-adv-x="377" d="M113 552Q151 552 167 531T186 478Q188 456 181 428T158 375T123 333T80 316Q73 316 58 321Q51 324 41 330T16 347Q38 363 55 384T73 420Q73 425 70 428T64 434Q56 444 49 453T42 482Q42
511 60 531T113 552ZM113 536Q85 536 71 521T56 482Q56 469 62 461T74 445Q79 440 83 434T87 419Q86 400 73 380T43 347Q56 338 64 335T80 332Q101 332 118 346T147 384T166 432T172 477Q170 499 158 517T113 536ZM113 528Q142 528 152 512T165 477Q167 452 156
420T126 364T80 340Q74 340 68 341T55 347Q70 358 82 378T94 419Q94 432 87 441T71 460T63 482Q63 502 76 515T113 528ZM274 552Q312 552 328 531T347 478Q349 456 342 428T319 375T284 333T241 316Q234 316 219 321Q212 324 202 330T177 347Q199 363 216 384T234
420Q234 425 231 428T225 434Q217 444 210 453T203 482Q203 511 221 531T274 552ZM274 536Q246 536 232 521T217 482Q217 469 223 461T235 445Q240 440 244 434T248 419Q247 400 234 380T204 347Q217 338 225 335T241 332Q262 332 279 346T308 384T327 432T333
477Q331 499 319 517T274 536ZM274 528Q303 528 313 512T326 477Q328 452 317 420T287 364T241 340Q235 340 229 341T216 347Q231 358 243 378T255 419Q255 432 248 441T232 460T224 482Q224 502 237 515T274 528Z" />
<glyph unicode="&#x201e;" glyph-name="quotedblbase" horiz-adv-x="378" d="M196 -139Q214 -87 221 -65T230 -35T232 -21Q232 -10 229 -5T220 8Q213 16 206 29T198 64Q198 96 220 118T274 140Q307 140 329 117T352 60Q352 17 333 -33T287 -139H196ZM215 -125H278Q304
-72 321 -26T338 60Q338 88 320 107T274 126Q248 126 230 108T212 64Q212 46 218 36T231 17Q237 9 241 1T246 -21Q246 -29 245 -37T237 -64T215 -125ZM225 -118Q238 -80 244 -63T251 -37T253 -21Q253 -5 248 4T236 21Q230 29 225 38T219 64Q219 88 235 103T274
119Q299 119 315 102T331 60Q331 22 315 -22T274 -118H225ZM272 -139Q290 -87 297 -65T306 -35T308 -21Q308 -10 305 -5T296 8Q289 16 282 29T274 64Q274 96 296 118T350 140Q383 140 405 117T428 60Q428 17 409 -33T363 -139H272ZM291 -125H354Q380 -72 397 -26T414
60Q414 88 396 107T350 126Q324 126 306 108T288 64Q288 46 294 36T307 17Q313 9 317 1T322 -21Q322 -29 321 -37T313 -64T291 -125ZM301 -118Q314 -80 320 -63T327 -37T329 -21Q329 -5 324 4T312 21Q306 29 301 38T295 64Q295 88 311 103T350 119Q375 119 391
102T407 60Q407 22 391 -22T350 -118H301Z" />
<glyph unicode="&#x2022;" glyph-name="bullet" horiz-adv-x="247" d="M123 138Q77 138 46 169T14 247Q14 293 46 325T124 357Q169 357 201 325T233 247Q233 201 202 170T123 138ZM123 154Q163 154 190 181T217 247Q217 288 190 314T124 341Q85 341 57 315T30
247Q30 207 57 181T123 154ZM123 162Q88 162 63 186T38 247Q37 284 62 309T124 334Q160 334 184 309T209 247Q209 211 184 187T123 162Z" />
<glyph unicode="&#x2039;" glyph-name="guilsinglleft" horiz-adv-x="326" d="M142 56L12 252L141 448H314L184 252L314 56H142ZM151 73H282L164 252L282 431H150L32 252L151 73ZM155 82L42 252L154 422H266L155 252L266 82H155Z" />
<glyph unicode="&#x203a;" glyph-name="guilsinglright" horiz-adv-x="325" d="M13 56L140 252L12 448H185L313 252L184 56H13ZM44 73H175L293 252L176 431H44L161 252L44 73ZM59 82L171 252L59 422H172L283 252L171 82H59Z" />
</font>
</defs>
</svg>
