<?xml version="1.0" standalone="no"?>
<!DOCTYPE svg PUBLIC "-//W3C//DTD SVG 1.1//EN" "http://www.w3.org/Graphics/SVG/1.1/DTD/svg11.dtd">
<svg xmlns="http://www.w3.org/2000/svg">
<defs >
<font id="LeagueGothic" horiz-adv-x="688" ><font-face
    font-family="League Gothic"
    units-per-em="2000"
    panose-1="0 0 0 0 0 0 0 0 0 0"
    ascent="1935"
    descent="-465"
    alphabetic="0" />
<glyph unicode=" " horiz-adv-x="308" />
<glyph unicode="!" horiz-adv-x="354" d="M114 396L60 1470H294L240 396H114ZM72 0V222H282V0H72Z" />
<glyph unicode="&quot;" horiz-adv-x="520" d="M354 932L324 1470H534L504 932H354ZM106 932L76 1470H286L256 932H106Z" />
<glyph unicode="#" horiz-adv-x="1228" d="M196 0L254 428H60L86 618H280L316 870H124L150 1060H342L398 1470H590L534 1060H788L844 1470H1036L980 1060H1168L1142 870H954L918 618H1104L1078 428H892L834 0H642L700 428H446L388 0H196ZM472 618H726L762 870H508L472
618Z" />
<glyph unicode="$" horiz-adv-x="612" d="M247 1525H367V1218H247V1525ZM247 281H367V-120H247V281ZM318 168Q247 168 194 192T106 260T54 366T36 502H224Q224 435 245 386T318 336Q362 336 375 373T388 458Q388 514 345 572T254 677Q173 757 120 835T66 1018Q66
1142 131 1218T316 1294Q388 1294 437 1275T517 1218T560 1125T574 998H386Q386 1050 375 1088T320 1126Q284 1126 269 1096T254 1018Q254 963 280 921T369 817Q447 741 511 655T576 468Q576 402 559 347T508 252T427 190T318 168Z" />
<glyph unicode="%" horiz-adv-x="1000" d="M163 0L703 1470H831L297 0H163ZM219 708Q145 708 103 757T60 884V1309Q60 1386 102 1436T219 1486Q292 1486 335 1436T378 1309V884Q378 807 335 758T219 708ZM219 815Q242 815 251 834T260 884V1309Q260 1340 251 1359T219
1378Q195 1378 186 1360T176 1309V884Q176 853 185 834T219 815ZM781 -16Q707 -16 665 33T622 160V585Q622 662 664 712T781 762Q854 762 897 712T940 585V160Q940 83 897 34T781 -16ZM781 91Q804 91 813 110T822 160V585Q822 616 813 635T781 654Q757 654 748
636T738 585V160Q738 129 747 110T781 91Z" />
<glyph unicode="&amp;" horiz-adv-x="846" d="M346 -16Q217 -16 134 67T50 308Q50 406 76 483T141 623T216 734Q164 842 138 946T112 1166Q112 1303 179 1394T376 1486Q503 1486 568 1396T633 1175Q633 1066 575 959T434 742Q482 633 516 570T578 464Q598 520
609 582T624 670L796 638Q789 553 761 457T696 288Q716 266 745 245T796 214V-16Q768 -16 727 8T649 64T592 120Q546 59 491 22T346 -16ZM356 172Q397 172 425 196T478 256Q438 321 397 390T308 544Q286 507 272 448T258 341Q258 277 282 225T356 172ZM354 926Q390
982 421 1048T452 1172Q452 1231 436 1272T376 1314Q333 1314 316 1271T299 1169Q299 1107 314 1046T354 926Z" />
<glyph unicode="&apos;" horiz-adv-x="302" d="M86 932L56 1470H266L236 932H86Z" />
<glyph unicode="(" horiz-adv-x="548" d="M350 -290Q271 -165 212 -29T108 276Q86 359 75 447T64 630Q64 818 108 985T206 1278Q238 1352 274 1420T350 1552L508 1470Q436 1367 386 1246T296 972Q256 815 256 630Q256 443 295 290T382 24Q409 -40 440 -98T508
-208L350 -290Z" />
<glyph unicode=")" horiz-adv-x="548" d="M198 -290L40 -208Q111 -106 161 15T252 290Q272 367 282 451T292 630Q292 818 253 971T166 1236Q138 1301 107 1359T40 1470L198 1552Q276 1426 335 1290T440 986Q463 902 473 814T484 630Q484 443 439 276T340 -18Q309
-91 273 -159T198 -290Z" />
<glyph unicode="*" horiz-adv-x="662" d="M256 976L128 1054L240 1188L72 1222L114 1366L274 1298L256 1470H406L388 1298L548 1366L590 1222L422 1188L534 1054L406 976L330 1124L256 976Z" />
<glyph unicode="+" horiz-adv-x="1036" d="M434 296V634H72V802H434V1140H602V802H964V634H602V296H434Z" />
<glyph unicode="," horiz-adv-x="302" d="M44 -260L114 0H44V222H254V0L144 -260H44Z" />
<glyph unicode="-" horiz-adv-x="434" d="M72 444V634H362V444H72Z" />
<glyph unicode="." horiz-adv-x="314" d="M52 0V222H262V0H52Z" />
<glyph unicode="/" horiz-adv-x="704" d="M8 -144L538 1470H696L172 -144H8Z" />
<glyph unicode="0" horiz-adv-x="708" d="M354 -16Q262 -16 198 26T100 140T66 302V1168Q66 1258 100 1330T200 1444T354 1486Q444 1486 508 1444T607 1329T642 1168V302Q642 213 607 141T508 26T354 -16ZM354 194Q392 194 409 226T426 302V1168Q426 1212 409
1244T354 1276Q316 1276 299 1243T282 1168V302Q282 259 299 227T354 194Z" />
<glyph unicode="1" horiz-adv-x="480" d="M184 0V1152H40V1290Q116 1305 176 1351T270 1470H400V0H184Z" />
<glyph unicode="2" horiz-adv-x="726" d="M70 0V214Q139 320 204 437T321 672T405 902T436 1106Q436 1172 423 1229T364 1286Q318 1286 305 1230T292 1106V1004H76V1106Q76 1194 91 1264T141 1384T230 1460T364 1486Q443 1486 498 1460T587 1386T636 1271T652
1120Q652 1021 623 907T545 672T436 435T314 214H656V0H70Z" />
<glyph unicode="3" horiz-adv-x="704" d="M354 -16Q286 -16 237 5T155 66T103 160T76 282T68 424H280Q280 360 284 303T304 210T354 174Q388 174 404 201T426 271T432 360Q432 480 416 543T358 633T240 664V844Q316 848 353 872T402 951T414 1106Q414 1155 411
1198T393 1269T346 1296Q315 1296 299 1261T278 1168T272 1046H60Q60 1142 73 1222T118 1362T205 1453T346 1486Q414 1486 466 1461T554 1390T608 1286T626 1160Q626 1060 612 980T571 844T500 760Q571 706 607 605T644 376Q644 275 612 186T515 40T354 -16Z" />
<glyph unicode="4" horiz-adv-x="702" d="M369 0V320H35V490L341 1470H567V510H667V320H567V0H369ZM219 510H369V970V1014H357L345 970L219 510Z" />
<glyph unicode="5" horiz-adv-x="684" d="M342 -16Q256 -16 201 15T115 104T72 245T60 428H276V370Q276 288 286 230T342 172Q372 172 386 200T404 274T408 368V696Q408 743 397 773T350 804Q316 804 296 772T271 696H74V1470H596V1256H260V940Q279 963 309 981T393
1000Q468 1000 519 964T597 859T624 696V368Q624 290 612 221T568 98T482 15T342 -16Z" />
<glyph unicode="6" horiz-adv-x="684" d="M342 -16Q249 -16 186 25T92 138T60 302V1128Q60 1208 75 1273T124 1386T212 1460T342 1486Q419 1486 472 1462T559 1391T608 1281T624 1138V1066H408Q408 1137 404 1189T386 1269T342 1298Q312 1298 298 1274T280 1211T276
1128V902Q290 921 320 936T394 952Q447 952 489 933T562 878T608 787T624 662V302Q624 209 592 138T497 25T342 -16ZM342 172Q377 172 392 206T408 278V676Q408 712 393 743T343 774Q309 774 293 744T276 674V278Q276 241 290 207T342 172Z" />
<glyph unicode="7" horiz-adv-x="614" d="M139 0L359 1256H35V1470H579V1254L363 0H139Z" />
<glyph unicode="8" horiz-adv-x="680" d="M340 -16Q246 -16 182 22T85 131T52 294V556Q52 639 80 689T164 776Q115 811 90 855T64 976V1210Q64 1300 96 1361T189 1454T340 1486Q432 1486 493 1455T585 1362T616 1210V976Q616 900 591 856T516 776Q572 739 600
689T628 556V294Q628 200 595 130T498 22T340 -16ZM340 182Q369 182 386 197T408 240Q413 269 415 319T418 420Q418 467 416 516T408 596Q402 628 386 644T340 660Q312 660 296 644T274 596Q269 568 266 518T263 419Q263 370 265 320T272 240Q276 212 297 197T340
182ZM340 872Q361 872 374 885T394 926Q399 952 401 994T404 1094Q404 1145 402 1183T394 1246Q388 1272 375 1284T340 1296Q322 1296 310 1286T292 1252Q285 1228 281 1179T277 1076Q277 1031 280 991T288 926Q293 899 306 886T340 872Z" />
<glyph unicode="9" horiz-adv-x="684" d="M342 1486Q436 1486 498 1445T592 1333T624 1168V342Q624 262 609 197T560 84T472 10T342 -16Q266 -16 212 8T125 79T76 189T60 332V404H276Q276 334 280 282T298 201T342 172Q372 172 386 196T404 259T408 342V568Q394
549 364 534T290 518Q237 518 195 537T122 592T76 683T60 808V1168Q60 1261 92 1333T187 1445T342 1486ZM342 1298Q308 1298 292 1264T276 1192V794Q276 758 291 727T341 696Q376 696 392 726T408 796V1192Q408 1230 394 1264T342 1298Z" />
<glyph unicode=":" horiz-adv-x="354" d="M72 872V1094H282V872H72ZM72 0V222H282V0H72Z" />
<glyph unicode=";" horiz-adv-x="354" d="M72 -260L142 0H72V222H282V0L172 -260H72ZM72 872V1094H282V872H72Z" />
<glyph unicode="&lt;" horiz-adv-x="1034" d="M962 170L72 634V790L962 1254V1060L280 712L962 364V170Z" />
<glyph unicode="=" horiz-adv-x="1034" d="M72 844V1012H962V844H72ZM72 466V634H962V466H72Z" />
<glyph unicode="&gt;" horiz-adv-x="1034" d="M72 170V364L754 712L72 1060V1254L962 790V634L72 170Z" />
<glyph unicode="?" horiz-adv-x="686" d="M242 396V646Q242 737 270 816T335 966T401 1097T429 1213Q429 1244 412 1267T362 1290Q313 1290 282 1248T234 1148L60 1230Q80 1299 126 1355T233 1444T361 1478Q447 1478 506 1442T595 1343T626 1198Q626 1126 596
1062T527 935T458 801T428 646V396H242ZM230 0V222H440V0H230Z" />
<glyph unicode="@" horiz-adv-x="852" d="M426 -16Q326 -16 243 24T110 134T60 296V1164Q60 1260 109 1332T242 1445T426 1486Q529 1486 612 1445T743 1332T792 1164V390H632L612 444Q577 378 502 378Q423 378 392 427T360 546V1020Q360 1088 391 1137T502 1186Q545
1186 572 1166T612 1120V1164Q612 1234 558 1276T426 1318Q350 1318 295 1274T240 1164V296Q240 229 296 188T426 146Q491 146 528 162T590 208L738 124Q698 70 625 27T426 -16ZM564 508Q612 508 612 560V1004Q612 1056 564 1056Q518 1056 518 1004V560Q518 508
564 508Z" />
<glyph unicode="A" horiz-adv-x="778" d="M35 0L257 1470H521L743 0H533L493 300H285L245 0H35ZM315 528H463L401 1022L395 1100H383L377 1022L315 528Z" />
<glyph unicode="B" horiz-adv-x="728" d="M80 0V1470H300Q412 1470 493 1431T619 1307T664 1090Q664 984 637 905T530 776Q610 732 645 637T680 416Q680 293 641 199T525 53T336 0H80ZM296 214Q394 214 425 272T456 440Q456 551 425 608T296 666V214ZM296 864Q387
864 421 914T456 1062Q456 1161 421 1208T296 1256V864Z" />
<glyph unicode="C" horiz-adv-x="716" d="M358 -16Q266 -16 202 25T104 139T70 302V1168Q70 1258 104 1330T204 1444T358 1486Q425 1486 478 1461T568 1393T626 1292T646 1168V966H444V1168Q444 1214 425 1245T362 1276Q322 1276 304 1244T286 1168V302Q286 258
305 226T362 194Q407 194 425 225T444 302V504H646V302Q646 212 611 140T512 26T358 -16Z" />
<glyph unicode="D" horiz-adv-x="744" d="M80 0V1470H300Q404 1470 476 1436T592 1320T655 1095T675 734Q675 515 656 373T592 149T476 34T300 0H80ZM296 216Q376 216 409 279T449 459T456 737Q456 900 449 1015T409 1192T296 1254V216Z" />
<glyph unicode="E" horiz-adv-x="654" d="M80 0V1470H574V1248H296V852H496V636H296V222H574V0H80Z" />
<glyph unicode="F" horiz-adv-x="602" d="M80 0V1470H594V1248H296V862H496V640H296V0H80Z" />
<glyph unicode="G" horiz-adv-x="726" d="M324 -16Q235 -16 179 26T97 140T70 302V1168Q70 1257 105 1329T205 1443T358 1486Q425 1486 478 1462T569 1393T626 1292T646 1168V942H430V1168Q430 1212 414 1244T358 1276Q319 1276 303 1243T286 1168V284Q286 241
303 209T358 176Q398 176 414 208T430 284V530H344V732H646V0H518L492 80Q464 35 421 10T324 -16Z" />
<glyph unicode="H" horiz-adv-x="760" d="M80 0V1470H296V862H464V1470H680V0H464V640H296V0H80Z" />
<glyph unicode="I" horiz-adv-x="376" d="M80 0V1470H296V0H80Z" />
<glyph unicode="J" horiz-adv-x="424" d="M12 -14V198Q26 196 33 196Q78 196 103 224T128 306V1470H344V272Q344 177 310 113T209 17T49 -15Q40 -15 31 -15T12 -14Z" />
<glyph unicode="K" horiz-adv-x="750" d="M80 0V1470H296V980V956H304L314 980L482 1470H704L506 986L730 0H508L364 670H358L296 520V0H80Z" />
<glyph unicode="L" horiz-adv-x="590" d="M80 0V1470H296V200H582V0H80Z" />
<glyph unicode="M" horiz-adv-x="968" d="M80 0V1470H354L472 708L482 630H486L496 708L614 1470H888V0H688V986H676L668 924L540 0H428L300 924L292 986H280V0H80Z" />
<glyph unicode="N" horiz-adv-x="790" d="M80 0V1470H282L482 704L500 636H512V1470H710V0H528L308 766L290 834H278V0H80Z" />
<glyph unicode="O" horiz-adv-x="716" d="M358 -16Q268 -16 204 26T105 140T70 302V1168Q70 1259 104 1330T203 1444T358 1486Q448 1486 512 1444T611 1330T646 1168V302Q646 212 612 140T513 26T358 -16ZM358 194Q398 194 414 227T430 302V1168Q430 1209 413
1242T358 1276Q321 1276 304 1243T286 1168V302Q286 261 303 228T358 194Z" />
<glyph unicode="P" horiz-adv-x="704" d="M80 0V1470H296Q419 1470 501 1416T625 1263T666 1030Q666 896 623 799T498 648T296 588V0H80ZM296 808Q353 808 386 830T433 902T448 1028Q448 1106 434 1155T386 1227T296 1250V808Z" />
<glyph unicode="Q" horiz-adv-x="716" d="M688 -112Q597 -112 540 -73T454 12Q439 1 410 -7T348 -16Q256 -16 194 26T101 140T70 302V1168Q70 1258 104 1330T204 1444T358 1486Q448 1486 512 1444T611 1330T646 1168V302Q646 243 631 194T595 120Q608 99 632 87T688
72V-112ZM358 194Q398 194 414 226T430 302V1168Q430 1209 414 1242T358 1276Q319 1276 303 1243T286 1168V302Q286 259 303 227T358 194Z" />
<glyph unicode="R" horiz-adv-x="714" d="M80 0V1470H296Q490 1470 582 1363T674 1046Q674 922 631 832T525 699L672 0H456L334 620H296V0H80ZM296 820Q356 820 391 846T441 922T456 1038Q456 1143 422 1199T296 1256V820Z" />
<glyph unicode="S" horiz-adv-x="676" d="M340 -16Q251 -16 192 13T99 99T51 234T36 412L248 432Q248 384 251 340T264 260T292 203T340 182Q388 182 408 226T428 334Q428 397 395 465T316 594Q238 698 180 787T89 962T56 1142Q56 1216 75 1278T130 1387T219 1460T338
1486Q421 1486 478 1458T571 1378T623 1255T640 1096L428 1076Q428 1113 425 1150T412 1219T386 1269T342 1288Q300 1288 284 1253T268 1152Q268 1068 313 990T434 808Q525 685 582 582T640 354Q640 275 623 208T570 90T477 12T340 -16Z" />
<glyph unicode="T" horiz-adv-x="664" d="M224 0V1248H20V1470H644V1248H440V0H224Z" />
<glyph unicode="U" horiz-adv-x="736" d="M368 -16Q277 -16 213 26T114 140T80 302V1470H296V302Q296 259 313 227T368 194Q408 194 424 226T440 302V1470H656V302Q656 212 622 140T523 26T368 -16Z" />
<glyph unicode="V" horiz-adv-x="724" d="M254 0L30 1470H240L348 602L356 460H368L376 602L484 1470H694L470 0H254Z" />
<glyph unicode="W" horiz-adv-x="1024" d="M228 0L30 1470H230L316 706L320 658H336L342 706L434 1470H590L682 706L688 658H704L708 706L794 1470H994L796 0H628L528 696L516 782H508L496 696L396 0H228Z" />
<glyph unicode="X" horiz-adv-x="748" d="M30 0L268 772L34 1470H246L364 1098L370 1070H378L384 1098L502 1470H714L480 772L718 0H506L382 438L378 466H370L366 438L242 0H30Z" />
<glyph unicode="Y" horiz-adv-x="716" d="M250 0V626L30 1470H242L348 1000L355 936H361L368 1000L474 1470H686L466 626V0H250Z" />
<glyph unicode="Z" horiz-adv-x="632" d="M30 0V232L368 1256H78V1470H602V1256L258 214H602V0H30Z" />
<glyph unicode="[" horiz-adv-x="526" d="M80 -376V1470H470V1278H272V-184H470V-376H80Z" />
<glyph unicode="\" horiz-adv-x="774" d="M602 -176L8 1652H166L766 -176H602Z" />
<glyph unicode="]" horiz-adv-x="526" d="M56 -376V-184H254V1278H56V1470H446V-376H56Z" />
<glyph unicode="^" horiz-adv-x="1076" d="M52 790L424 1470H652L1024 790H830L538 1320L246 790H52Z" />
<glyph unicode="_" horiz-adv-x="1182" d="M72 -318V-150H1110V-318H72Z" />
<glyph unicode="`" horiz-adv-x="1000" d="M634 1224H478L290 1404H500L634 1224Z" />
<glyph unicode="a" horiz-adv-x="639" d="M207 -16Q137 -16 86 55T35 272Q35 413 95 499T277 648Q315 668 341 684T373 714V834Q373 875 364 904T317 934Q283 934 271 903T259 824V772H57V818Q57 908 92 973T189 1074T329 1110Q404 1110 459 1076T544 981T575
842V190Q575 117 579 77T589 0H391Q378 16 376 47T373 88H359Q334 42 296 13T207 -16ZM289 182Q324 182 348 206T373 258V518Q300 487 267 425T233 284Q233 250 246 216T289 182Z" />
<glyph unicode="b" horiz-adv-x="608" d="M412 -16Q370 -16 331 10T252 72V0H50V1470H252V1022Q290 1058 332 1084T412 1110Q464 1110 498 1079T550 998T568 896V198Q568 145 550 96T497 15T412 -16ZM316 174Q339 174 352 193T366 240V854Q366 883 353 901T316
920Q294 920 273 899T252 854V240Q252 212 273 193T316 174Z" />
<glyph unicode="c" horiz-adv-x="598" d="M298 -15Q165 -15 103 68T40 299V796Q40 945 102 1027T298 1110Q431 1110 494 1027T558 796V710H356V822Q356 868 344 899T298 930Q264 930 253 899T242 822V273Q242 228 253 197T298 165Q332 165 344 196T356 273V385H558V299Q558
151 495 68T298 -15Z" />
<glyph unicode="d" horiz-adv-x="640" d="M196 -16Q146 -16 111 15T58 95T40 198V896Q40 949 57 998T110 1078T196 1110Q234 1110 276 1084T356 1022V1470H558V0H356V72Q316 37 277 11T196 -16ZM292 174Q315 174 335 193T356 240V854Q356 878 336 899T292 920Q270
920 256 902T242 854V240Q242 212 256 193T292 174Z" />
<glyph unicode="e" horiz-adv-x="602" d="M300 -16Q179 -16 110 67T40 272V822Q40 950 109 1030T302 1110Q383 1110 441 1073T531 973T562 828V510H228V272Q228 231 246 197T302 162Q341 162 357 194T374 272V392H562V266Q562 139 494 62T300 -16ZM228 668H374V822Q374
867 359 900T302 934Q264 934 246 900T228 822V668Z" />
<glyph unicode="f" horiz-adv-x="468" d="M112 0V912H10V1094H112V1154Q112 1309 184 1393T374 1478Q400 1478 422 1473T458 1460V1284Q438 1299 398 1299Q369 1299 342 1269T314 1180V1094H436V912H314V0H112Z" />
<glyph unicode="g" horiz-adv-x="690" d="M339 -392Q254 -392 180 -373T61 -312T15 -200Q15 -147 44 -108T112 -45T173 -14Q124 0 88 34T51 132Q51 194 91 233T177 296Q122 332 92 390T61 534V832Q61 955 129 1032T317 1110Q394 1110 442 1081T519 1010Q548 1059
597 1084T685 1110V930Q645 930 615 924T567 906Q570 899 573 877T577 838V528Q577 412 506 335T317 258Q289 258 279 260Q266 248 259 236T251 210Q251 178 287 165T385 142Q514 123 594 67T675 -112Q675 -208 627 -270T501 -362T339 -392ZM343 -222Q393 -222
430 -204T467 -148Q467 -110 445 -97T369 -70L285 -50Q254 -68 233 -91T211 -146Q211 -177 242 -199T343 -222ZM319 426Q351 426 365 448T379 514V834Q379 874 366 899T319 924Q285 924 272 898T259 834V514Q259 470 273 448T319 426Z" />
<glyph unicode="h" horiz-adv-x="628" d="M50 0V1470H252V1019Q278 1046 329 1078T426 1110Q476 1110 510 1081T561 1004T578 896V0H376V854Q376 884 363 902T331 921Q310 921 281 898T252 845V0H50Z" />
<glyph unicode="i" horiz-adv-x="322" d="M60 0V1094H262V0H60ZM60 1268V1470H262V1268H60Z" />
<glyph unicode="j" horiz-adv-x="336" d="M44 -376Q16 -376 -7 -373T-44 -362V-176Q-38 -180 -21 -183T12 -186Q43 -186 56 -163T71 -103T74 -26V1094H276V-28Q276 -131 258 -209T189 -332T44 -376ZM74 1268V1470H276V1268H74Z" />
<glyph unicode="k" horiz-adv-x="607" d="M50 0V1470H252V808V772H262L274 808L372 1094H564L408 738L592 0H388L288 442L286 458H284L252 378V0H50Z" />
<glyph unicode="l" horiz-adv-x="322" d="M60 0V1470H262V0H60Z" />
<glyph unicode="m" horiz-adv-x="942" d="M50 0V1094H252V1002Q301 1047 341 1078T420 1110Q474 1110 507 1073T556 988Q599 1032 645 1071T740 1110Q790 1110 824 1078T875 997T892 896V0H702V856Q702 888 687 901T648 914Q625 914 604 897T572 862V0H382V856Q382
888 367 901T328 914Q305 914 284 897T252 862V0H50Z" />
<glyph unicode="n" horiz-adv-x="618" d="M50 0V1094H252V1002Q288 1037 333 1073T416 1110Q466 1110 500 1078T551 997T568 896V0H366V856Q366 888 355 901T318 914Q296 914 281 899T252 862V0H50Z" />
<glyph unicode="o" horiz-adv-x="598" d="M299 -14Q178 -14 109 67T40 274V822Q40 947 109 1028T299 1110Q419 1110 488 1029T558 822V274Q558 149 489 68T299 -14ZM299 162Q338 162 353 193T368 274V822Q368 872 353 903T299 934Q260 934 245 903T230 822V274Q230
224 245 193T299 162Z" />
<glyph unicode="p" horiz-adv-x="608" d="M50 -376V1094H252V1022Q290 1058 332 1084T412 1110Q464 1110 498 1079T550 998T568 896V198Q568 145 550 96T497 15T412 -16Q370 -16 330 10T252 72V-376H50ZM322 174Q345 174 355 188T366 230V844Q366 882 356 901T322
920Q300 920 276 902T252 854V240Q252 216 276 195T322 174Z" />
<glyph unicode="q" horiz-adv-x="608" d="M356 -376V72Q318 37 278 11T196 -16Q146 -16 111 15T58 95T40 198V896Q40 949 57 998T110 1078T196 1110Q234 1110 276 1084T356 1022V1094H558V-376H356ZM286 174Q309 174 332 195T356 240V854Q356 883 333 901T286
920Q264 920 253 901T242 844V230Q242 202 253 188T286 174Z" />
<glyph unicode="r" horiz-adv-x="474" d="M50 0V1094H252V972Q258 1012 289 1043T364 1092T454 1110V886Q441 891 427 892T398 894Q332 894 292 858T252 760V0H50Z" />
<glyph unicode="s" horiz-adv-x="600" d="M312 -16Q241 -16 188 8T100 76T48 182T30 318H218Q218 251 239 202T312 152Q356 152 369 189T382 274Q382 330 339 388T248 493Q167 573 114 651T60 834Q60 958 125 1034T310 1110Q382 1110 431 1091T511 1034T554 941T568
814H380Q380 866 369 904T314 942Q278 942 263 912T248 834Q248 779 274 737T363 633Q441 557 505 471T570 284Q570 218 553 163T502 68T421 6T312 -16Z" />
<glyph unicode="t" horiz-adv-x="463" d="M344 -16Q249 -16 199 26T131 146T112 332V912H10V1094H112V1364H314V1094H453V912H314V303Q314 239 333 209T395 178Q414 178 428 181T452 188V3Q432 -5 409 -10T344 -16Z" />
<glyph unicode="u" horiz-adv-x="618" d="M202 -16Q152 -16 118 16T67 97T50 198V1094H252V238Q252 207 263 194T300 180Q322 180 337 195T366 232V1094H568V0H366V92Q330 58 285 21T202 -16Z" />
<glyph unicode="v" horiz-adv-x="586" d="M193 0L15 1094H211L279 460L285 350H301L307 460L375 1094H571L393 0H193Z" />
<glyph unicode="w" horiz-adv-x="874" d="M177 0L15 1094H209L263 522L271 410H283L293 522L377 1094H497L581 522L591 410H603L611 522L665 1094H859L697 0H529L451 522L441 624H433L423 522L345 0H177Z" />
<glyph unicode="x" horiz-adv-x="602" d="M15 0L203 564L31 1094H221L293 828L299 788H303L309 828L381 1094H571L399 564L587 0H391L309 286L303 326H299L293 286L211 0H15Z" />
<glyph unicode="y" horiz-adv-x="602" d="M89 -392Q76 -392 58 -391T23 -387V-208Q26 -209 39 -210T56 -212Q112 -212 146 -182T195 -102Q200 -87 200 -67T201 -32L15 1094H213L293 412L297 336H305L309 412L389 1094H587L393 -82Q382 -170 344 -240T241 -351T89 -392Z" />
<glyph unicode="z" horiz-adv-x="592" d="M50 0V164L328 910H94V1094H542V930L264 184H542V0H50Z" />
<glyph unicode="{" horiz-adv-x="672" d="M616 -442Q461 -442 367 -415T231 -309T188 -82V306Q188 375 152 408T60 442V602Q118 602 153 644T188 738V1126Q188 1278 230 1355T366 1459T616 1486V1318Q532 1318 480 1304T404 1249T380 1126V738Q380 659 348 609T256
522Q315 485 347 435T380 306V-82Q380 -164 404 -205T481 -260T616 -274V-442Z" />
<glyph unicode="|" horiz-adv-x="348" d="M80 -500V1652H268V-500H80Z" />
<glyph unicode="}" horiz-adv-x="672" d="M60 -442V-274Q143 -274 195 -260T271 -205T296 -82V306Q296 384 329 434T420 522Q362 558 329 608T296 738V1126Q296 1207 272 1248T197 1304T60 1318V1486Q216 1486 310 1459T446 1355T488 1126V738Q488 686 523 644T616
602V442Q561 442 525 409T488 306V-82Q488 -231 446 -309T309 -414T60 -442Z" />
<glyph unicode="~" horiz-adv-x="1206" d="M192 1264L60 1320Q88 1401 135 1469T246 1579T388 1620Q478 1620 539 1590T658 1520Q699 1492 740 1471T828 1450Q872 1450 906 1473T966 1536T1014 1628L1146 1572Q1117 1492 1071 1423T965 1312T828 1270Q744 1270
682 1299T562 1368Q520 1397 478 1418T388 1440Q342 1440 304 1416T237 1351T192 1264Z" />
<glyph unicode="&#xa0;" horiz-adv-x="308" />
<glyph unicode="&#xa1;" horiz-adv-x="354" d="M60 -376L114 698H240L294 -376H60ZM72 872V1094H282V872H72Z" />
<glyph unicode="&#xa2;" horiz-adv-x="650" d="M274 -120V174Q214 183 168 217T96 320T70 496V974Q70 1135 127 1208T274 1294V1530H394V1292Q468 1280 508 1240T564 1135T580 984V898H396V1030Q396 1080 378 1099T324 1118Q284 1118 269 1089T254 1030V440Q254
410 269 381T324 352Q359 352 377 371T396 440V592H580V486Q580 382 559 317T497 219T394 176V-120H274Z" />
<glyph unicode="&#xa3;" horiz-adv-x="846" d="M182 -16L40 62Q73 135 125 196T246 270Q263 317 272 369T282 464Q282 502 274 545T252 634H68V768H212Q184 841 157 931T130 1122Q130 1225 164 1307T264 1437T428 1486Q599 1486 670 1382T742 1094H534Q534 1177
508 1231T432 1286Q386 1286 360 1242T334 1122Q334 1020 362 928T418 768H614V634H454Q466 585 471 550T476 473Q476 441 468 398T445 315T412 250Q434 250 455 236T497 207T542 192Q571 192 587 221T612 293T622 378L806 356Q794 172 725 78T560 -16Q516 -16
468 9T376 59T294 84Q257 84 226 52T182 -16Z" />
<glyph unicode="&#xa4;" horiz-adv-x="823" d="M142 323L75 392L166 484Q109 562 109 661Q109 759 166 838L76 928L143 997L234 906Q313 963 412 963Q509 963 588 906L680 998L748 929L657 838Q714 759 714 661Q714 562 657 483L748 392L681 323L589 415Q510 358
412 358Q313 358 234 415L142 323ZM412 507Q476 507 520 552T565 661Q565 725 520 769T412 814Q348 814 303 770T258 661Q258 597 303 552T412 507Z" />
<glyph unicode="&#xa5;" horiz-adv-x="716" d="M76 465H632V332H76V465ZM76 731H632V598H76V731ZM250 0V626L30 1470H242L348 1000L355 936H361L368 1000L474 1470H686L466 626V0H250Z" />
<glyph unicode="&#xa6;" horiz-adv-x="348" d="M80 -500V393H268V-500H80ZM80 759V1652H268V759H80Z" />
<glyph unicode="&#xa7;" horiz-adv-x="700" d="M624 654Q624 483 519 403Q566 343 584 295T602 184Q602 47 532 -34T344 -116Q214 -116 138 -26T62 218H250Q250 140 275 96T344 52Q414 52 414 170Q414 205 404 233T367 295T288 378Q180 482 138 555T96 714Q96
798 123 863T199 966Q153 1024 136 1070T118 1184Q118 1326 181 1402T364 1480Q491 1482 556 1407T622 1184H434Q434 1246 417 1279T368 1312Q338 1312 322 1282T306 1195Q306 1163 315 1138T353 1079T438 988Q510 916 550 863T607 761T624 654ZM284 725Q284 695
293 670T327 614T401 533Q418 545 427 574T436 640Q436 691 414 730T323 836Q312 829 303 813T289 774T284 725Z" />
<glyph unicode="&#xa8;" horiz-adv-x="1000" d="M548 1216V1412H734V1216H548ZM266 1216V1412H452V1216H266Z" />
<glyph unicode="&#xa9;" horiz-adv-x="1606" d="M802 -16Q647 -16 511 42T272 204T111 443T52 734Q52 891 110 1027T272 1267T512 1428T802 1486Q958 1486 1094 1428T1334 1266T1495 1027T1554 734Q1554 579 1496 443T1334 204T1095 43T802 -16ZM800 284Q712 284
662 339T612 476V994Q612 1079 662 1132T800 1186Q884 1186 934 1130T984 994V872H850V994Q850 1020 839 1038T802 1056Q777 1056 766 1036T754 994V476Q754 414 802 414Q829 414 839 432T850 476V598H984V476Q984 394 934 339T800 284ZM802 100Q932 100 1047 149T1250
286T1388 488T1438 734Q1438 866 1389 981T1252 1184T1050 1320T802 1370Q670 1370 555 1320T353 1182T217 978T168 734Q168 605 218 490T355 288T558 150T802 100Z" />
<glyph unicode="&#xaa;" horiz-adv-x="369" d="M129 539Q48 539 48 674Q48 809 169 871Q196 884 217 904V964Q217 1014 189 1014Q172 1014 166 998T160 933H59V956Q59 1017 99 1059T195 1102Q247 1102 282 1067T318 978V642Q318 617 319 597T325 547H226Q222 552
220 564T217 591H210Q180 539 129 539ZM175 638Q192 638 204 648T217 671V810Q186 796 167 764T147 689Q147 638 175 638Z" />
<glyph unicode="&#xab;" horiz-adv-x="776" d="M716 204L390 469V621L716 886V696L478 520V570L716 394V204ZM386 204L60 469V621L386 886V696L148 520V570L386 394V204Z" />
<glyph unicode="&#xac;" horiz-adv-x="1036" d="M796 296V634H72V802H964V296H796Z" />
<glyph unicode="&#xad;" horiz-adv-x="434" d="M72 444V634H362V444H72Z" />
<glyph unicode="&#xae;" horiz-adv-x="1606" d="M802 -16Q647 -16 511 42T272 204T111 443T52 734Q52 891 110 1027T272 1267T512 1428T802 1486Q958 1486 1094 1428T1334 1266T1495 1027T1554 734Q1554 579 1496 443T1334 204T1095 43T802 -16ZM802 100Q932 100
1047 149T1250 286T1388 488T1438 734Q1438 866 1389 981T1252 1184T1050 1320T802 1370Q670 1370 555 1320T353 1182T217 978T168 734Q168 605 218 490T355 288T558 150T802 100ZM610 306V1164H802Q922 1164 975 1098T1028 912Q1028 848 1015 797T942 696L1046
306H898L806 662H752V306H610ZM752 786H796Q858 786 878 826Q887 844 889 866T892 910Q892 933 890 955T878 996Q869 1014 849 1026T796 1038H752V786Z" />
<glyph unicode="&#xaf;" horiz-adv-x="1000" d="M306 1235V1383H694V1235H306Z" />
<glyph unicode="&#xb0;" horiz-adv-x="458" d="M230 1168Q169 1168 125 1207T80 1308Q80 1370 124 1409T230 1448Q292 1448 335 1409T378 1308Q378 1247 335 1208T230 1168ZM230 1238Q259 1238 281 1259T304 1308Q304 1337 282 1357T230 1378Q202 1378 179 1358T156
1308Q156 1280 179 1259T230 1238Z" />
<glyph unicode="&#xb1;" horiz-adv-x="1036" d="M434 296V634H72V802H434V1140H602V802H964V634H602V296H434ZM73 0V168H963V0H73Z" />
<glyph unicode="&#xb2;" horiz-adv-x="641" d="M100 600V717Q198 832 257 919T345 1075T375 1205Q376 1241 361 1262T320 1283Q290 1283 278 1266T266 1206V1151H104V1206Q104 1307 160 1361T320 1415Q428 1415 482 1363T536 1207Q536 1153 516 1096T444 955T293
732H539V600H100Z" />
<glyph unicode="&#xb3;" horiz-adv-x="631" d="M311 591Q106 591 106 833H265Q265 775 279 749T319 723Q353 723 362 749T372 833Q372 890 363 917T325 954T235 964V1064Q288 1072 314 1084T349 1120T358 1189Q358 1245 348 1264T310 1283Q281 1283 270 1260T259
1173H100Q100 1415 307 1415Q408 1415 462 1361T517 1204Q517 1149 500 1111T438 1033Q489 989 510 944T531 831Q531 713 475 652T311 591Z" />
<glyph unicode="&#xb4;" horiz-adv-x="1000" d="M391 1224L525 1404H735L547 1224H391Z" />
<glyph unicode="&#xb5;" horiz-adv-x="674" d="M76 -376V1094H278V228Q278 180 326 180Q352 180 372 202T392 252V1094H594V0H392V92Q360 58 332 35T278 -2V-376H76Z" />
<glyph unicode="&#xb6;" horiz-adv-x="1064" d="M446 -300V588Q265 588 166 704T66 1030Q66 1240 165 1355T446 1470H662V-300H446ZM768 -300V1470H984V-300H768Z" />
<glyph unicode="&#xb7;" horiz-adv-x="210" d="M0 634V856H210V634H0Z" />
<glyph unicode="&#xb8;" horiz-adv-x="1000" d="M662 -61Q706 -61 742 -90T778 -190Q778 -255 742 -296T648 -357T527 -376Q473 -376 418 -360T336 -324L388 -214Q406 -227 450 -245T538 -263Q582 -263 613 -248T644 -196Q644 -165 628 -154T592 -143Q547 -143
527 -177L418 -141L477 0H596L549 -108H540Q548 -86 585 -74T662 -61Z" />
<glyph unicode="&#xb9;" horiz-adv-x="470" d="M208 600V1229H100V1308Q151 1316 179 1327T236 1363Q265 1388 273 1403H370V600H208Z" />
<glyph unicode="&#xba;" horiz-adv-x="446" d="M223 930Q143 930 97 984T50 1122V1288Q50 1371 96 1425T223 1480Q303 1480 349 1426T396 1288V1122Q396 1039 350 985T223 930ZM223 1048Q249 1048 259 1068T269 1122V1288Q269 1321 259 1341T223 1362Q197 1362
187 1342T177 1288V1122Q177 1089 187 1069T223 1048Z" />
<glyph unicode="&#xbb;" horiz-adv-x="776" d="M60 204V394L298 570V520L60 696V886L386 621V469L60 204ZM390 204V394L628 570V520L390 696V886L716 621V469L390 204Z" />
<glyph unicode="&#xbc;" horiz-adv-x="1642" d="M208 600V1229H100V1308Q151 1316 179 1327T236 1363Q265 1388 273 1403H370V600H208ZM170 0L1212 1470H1363L324 0H170ZM1339 0V175H1088V278L1325 803H1487V293H1562V175H1487V0H1339ZM1233 293H1339V541H1330L1318
495L1233 293Z" />
<glyph unicode="&#xbd;" horiz-adv-x="1704" d="M208 600V1229H100V1308Q151 1316 179 1327T236 1363Q265 1388 273 1403H370V600H208ZM170 0L1212 1470H1363L324 0H170ZM1163 0V117Q1261 232 1320 319T1408 475T1438 605Q1439 641 1424 662T1383 683Q1353 683
1341 666T1329 606V551H1167V606Q1167 707 1223 761T1383 815Q1491 815 1545 763T1599 607Q1599 553 1579 496T1507 355T1356 132H1602V0H1163Z" />
<glyph unicode="&#xbe;" horiz-adv-x="1803" d="M311 591Q106 591 106 833H265Q265 775 279 749T319 723Q353 723 362 749T372 833Q372 890 363 917T325 954T235 964V1064Q288 1072 314 1084T349 1120T358 1189Q358 1245 348 1264T310 1283Q281 1283 270 1260T259
1173H100Q100 1415 307 1415Q408 1415 462 1361T517 1204Q517 1149 500 1111T438 1033Q489 989 510 944T531 831Q531 713 475 652T311 591ZM331 0L1373 1470H1524L485 0H331ZM1500 0V175H1249V278L1486 803H1648V293H1723V175H1648V0H1500ZM1394 293H1500V541H1491L1479
495L1394 293Z" />
<glyph unicode="&#xbf;" horiz-adv-x="686" d="M444 698V448Q444 357 416 278T351 128T285 -3T257 -119Q257 -150 274 -173T324 -196Q373 -196 404 -154T452 -54L626 -136Q606 -205 560 -261T453 -350T325 -384Q240 -384 181 -348T91 -249T60 -104Q60 -32 90 32T159
159T228 293T258 448V698H444ZM456 1094V872H246V1094H456Z" />
<glyph unicode="&#xc0;" horiz-adv-x="778" d="M35 0L257 1470H521L743 0H533L493 300H285L245 0H35ZM315 528H463L401 1022L395 1100H383L377 1022L315 528ZM479 1600H323L135 1780H345L479 1600Z" />
<glyph unicode="&#xc1;" horiz-adv-x="778" d="M35 0L257 1470H521L743 0H533L493 300H285L245 0H35ZM315 528H463L401 1022L395 1100H383L377 1022L315 528ZM291 1600L425 1780H635L447 1600H291Z" />
<glyph unicode="&#xc2;" horiz-adv-x="778" d="M35 0L257 1470H521L743 0H533L493 300H285L245 0H35ZM315 528H463L401 1022L395 1100H383L377 1022L315 528ZM144 1604L282 1784H496L634 1604H450L388 1694L328 1604H144Z" />
<glyph unicode="&#xc3;" horiz-adv-x="778" d="M35 0L257 1470H521L743 0H533L493 300H285L245 0H35ZM315 528H463L401 1022L395 1100H383L377 1022L315 528ZM477 1581Q430 1581 391 1599Q348 1619 301 1619Q274 1619 245 1610T195 1587V1735Q209 1746 226 1753T261
1767Q279 1773 301 1773Q348 1773 389 1757Q411 1749 433 1742T477 1735Q504 1735 533 1744T583 1767V1619Q564 1602 532 1592T477 1581Z" />
<glyph unicode="&#xc4;" horiz-adv-x="778" d="M35 0L257 1470H521L743 0H533L493 300H285L245 0H35ZM315 528H463L401 1022L395 1100H383L377 1022L315 528ZM437 1592V1788H623V1592H437ZM155 1592V1788H341V1592H155Z" />
<glyph unicode="&#xc5;" horiz-adv-x="778" d="M35 0L257 1470H521L743 0H533L493 300H285L245 0H35ZM315 528H463L401 1022L395 1100H383L377 1022L315 528ZM390 1570Q329 1570 285 1609T240 1710Q240 1772 284 1811T390 1850Q452 1850 495 1811T538 1710Q538
1649 495 1610T390 1570ZM390 1640Q419 1640 441 1661T464 1710Q464 1739 442 1759T390 1780Q362 1780 339 1760T316 1710Q316 1682 339 1661T390 1640Z" />
<glyph unicode="&#xc6;" horiz-adv-x="1133" d="M35 0L445 1470H1053V1248H775V862H975V626H775V222H1053V0H559V300H337L249 0H35ZM403 528H559V1030H549L403 528Z" />
<glyph unicode="&#xc7;" horiz-adv-x="716" d="M358 -16Q266 -16 202 25T104 139T70 302V1168Q70 1258 104 1330T204 1444T358 1486Q425 1486 478 1461T568 1393T626 1292T646 1168V966H444V1168Q444 1214 425 1245T362 1276Q322 1276 304 1244T286 1168V302Q286
258 305 226T362 194Q407 194 425 225T444 302V504H646V302Q646 212 611 140T512 26T358 -16ZM475 -61Q519 -61 555 -90T591 -190Q591 -255 555 -296T461 -357T340 -376Q286 -376 231 -360T149 -324L201 -214Q219 -227 263 -245T351 -263Q395 -263 426 -248T457
-196Q457 -165 441 -154T405 -143Q360 -143 340 -177L231 -141L290 0H409L362 -108H353Q361 -86 398 -74T475 -61Z" />
<glyph unicode="&#xc8;" horiz-adv-x="654" d="M80 0V1470H574V1248H296V852H496V636H296V222H574V0H80ZM398 1600H242L54 1780H264L398 1600Z" />
<glyph unicode="&#xc9;" horiz-adv-x="614" d="M80 0V1470H574V1248H296V862H496V626H296V222H574V0H80ZM230 1600L334 1780H544L386 1600H230Z" />
<glyph unicode="&#xca;" horiz-adv-x="654" d="M80 0V1470H574V1248H296V852H496V636H296V222H574V0H80ZM63 1604L201 1784H415L553 1604H369L307 1694L247 1604H63Z" />
<glyph unicode="&#xcb;" horiz-adv-x="654" d="M80 0V1470H574V1248H296V852H496V636H296V222H574V0H80ZM356 1592V1788H542V1592H356ZM74 1592V1788H260V1592H74Z" />
<glyph unicode="&#xcc;" horiz-adv-x="376" d="M80 0V1470H296V0H80ZM278 1600H122L-66 1780H144L278 1600Z" />
<glyph unicode="&#xcd;" horiz-adv-x="376" d="M80 0V1470H296V0H80ZM90 1600L224 1780H434L246 1600H90Z" />
<glyph unicode="&#xce;" horiz-adv-x="376" d="M80 0V1470H296V0H80ZM-57 1604L81 1784H295L433 1604H249L187 1694L127 1604H-57Z" />
<glyph unicode="&#xcf;" horiz-adv-x="376" d="M80 0V1470H296V0H80ZM236 1592V1788H422V1592H236ZM-46 1592V1788H140V1592H-46Z" />
<glyph unicode="&#xd0;" horiz-adv-x="744" d="M32 634V824H390V634H32ZM80 0V1470H300Q404 1470 476 1436T592 1320T655 1095T675 734Q675 515 656 373T592 149T476 34T300 0H80ZM296 216Q376 216 409 279T449 459T456 737Q456 900 449 1015T409 1192T296 1254V216Z" />
<glyph unicode="&#xd1;" horiz-adv-x="790" d="M80 0V1470H282L482 704L500 636H512V1470H710V0H528L308 766L290 834H278V0H80ZM484 1581Q437 1581 398 1599Q355 1619 308 1619Q281 1619 252 1610T202 1587V1735Q216 1746 233 1753T268 1767Q286 1773 308 1773Q355
1773 396 1757Q418 1749 440 1742T484 1735Q511 1735 540 1744T590 1767V1619Q571 1602 539 1592T484 1581Z" />
<glyph unicode="&#xd2;" horiz-adv-x="716" d="M358 -16Q268 -16 204 26T105 140T70 302V1168Q70 1259 104 1330T203 1444T358 1486Q448 1486 512 1444T611 1330T646 1168V302Q646 212 612 140T513 26T358 -16ZM358 194Q398 194 414 227T430 302V1168Q430 1209
413 1242T358 1276Q321 1276 304 1243T286 1168V302Q286 261 303 228T358 194ZM448 1600H292L104 1780H314L448 1600Z" />
<glyph unicode="&#xd3;" horiz-adv-x="716" d="M358 -16Q268 -16 204 26T105 140T70 302V1168Q70 1259 104 1330T203 1444T358 1486Q448 1486 512 1444T611 1330T646 1168V302Q646 212 612 140T513 26T358 -16ZM358 194Q398 194 414 227T430 302V1168Q430 1209
413 1242T358 1276Q321 1276 304 1243T286 1168V302Q286 261 303 228T358 194ZM260 1600L394 1780H604L416 1600H260Z" />
<glyph unicode="&#xd4;" horiz-adv-x="716" d="M358 -16Q268 -16 204 26T105 140T70 302V1168Q70 1259 104 1330T203 1444T358 1486Q448 1486 512 1444T611 1330T646 1168V302Q646 212 612 140T513 26T358 -16ZM358 194Q398 194 414 227T430 302V1168Q430 1209
413 1242T358 1276Q321 1276 304 1243T286 1168V302Q286 261 303 228T358 194ZM113 1604L251 1784H465L603 1604H419L357 1694L297 1604H113Z" />
<glyph unicode="&#xd5;" horiz-adv-x="716" d="M358 -16Q268 -16 204 26T105 140T70 302V1168Q70 1259 104 1330T203 1444T358 1486Q448 1486 512 1444T611 1330T646 1168V302Q646 212 612 140T513 26T358 -16ZM358 194Q398 194 414 227T430 302V1168Q430 1209
413 1242T358 1276Q321 1276 304 1243T286 1168V302Q286 261 303 228T358 194ZM446 1581Q399 1581 360 1599Q317 1619 270 1619Q243 1619 214 1610T164 1587V1735Q178 1746 195 1753T230 1767Q248 1773 270 1773Q317 1773 358 1757Q380 1749 402 1742T446 1735Q473
1735 502 1744T552 1767V1619Q533 1602 501 1592T446 1581Z" />
<glyph unicode="&#xd6;" horiz-adv-x="716" d="M358 -16Q268 -16 204 26T105 140T70 302V1168Q70 1259 104 1330T203 1444T358 1486Q448 1486 512 1444T611 1330T646 1168V302Q646 212 612 140T513 26T358 -16ZM358 194Q398 194 414 227T430 302V1168Q430 1209
413 1242T358 1276Q321 1276 304 1243T286 1168V302Q286 261 303 228T358 194ZM406 1592V1788H592V1592H406ZM124 1592V1788H310V1592H124Z" />
<glyph unicode="&#xd7;" horiz-adv-x="860" d="M191 360L72 479L311 718L72 957L191 1076L430 837L669 1076L788 957L549 718L788 479L669 360L430 599L191 360Z" />
<glyph unicode="&#xd8;" horiz-adv-x="716" d="M59 24L542 1496L666 1436L188 -36L59 24ZM358 -16Q268 -16 204 26T105 140T70 302V1168Q70 1259 104 1330T203 1444T358 1486Q448 1486 512 1444T611 1330T646 1168V302Q646 212 612 140T513 26T358 -16ZM358 194Q398
194 414 227T430 302V1168Q430 1209 413 1242T358 1276Q321 1276 304 1243T286 1168V302Q286 261 303 228T358 194Z" />
<glyph unicode="&#xd9;" horiz-adv-x="736" d="M368 -16Q277 -16 213 26T114 140T80 302V1470H296V302Q296 259 313 227T368 194Q408 194 424 226T440 302V1470H656V302Q656 212 622 140T523 26T368 -16ZM458 1600H302L114 1780H324L458 1600Z" />
<glyph unicode="&#xda;" horiz-adv-x="736" d="M368 -16Q277 -16 213 26T114 140T80 302V1470H296V302Q296 259 313 227T368 194Q408 194 424 226T440 302V1470H656V302Q656 212 622 140T523 26T368 -16ZM270 1600L404 1780H614L426 1600H270Z" />
<glyph unicode="&#xdb;" horiz-adv-x="736" d="M368 -16Q277 -16 213 26T114 140T80 302V1470H296V302Q296 259 313 227T368 194Q408 194 424 226T440 302V1470H656V302Q656 212 622 140T523 26T368 -16ZM123 1604L261 1784H475L613 1604H429L367 1694L307 1604H123Z" />
<glyph unicode="&#xdc;" horiz-adv-x="736" d="M368 -16Q277 -16 213 26T114 140T80 302V1470H296V302Q296 259 313 227T368 194Q408 194 424 226T440 302V1470H656V302Q656 212 622 140T523 26T368 -16ZM416 1592V1788H602V1592H416ZM134 1592V1788H320V1592H134Z" />
<glyph unicode="&#xdd;" horiz-adv-x="716" d="M250 0V626L30 1470H242L348 1000L355 936H361L368 1000L474 1470H686L466 626V0H250ZM260 1600L394 1780H604L416 1600H260Z" />
<glyph unicode="&#xde;" horiz-adv-x="714" d="M80 0V1470H294V1234Q417 1234 502 1183T632 1034T676 794Q676 660 633 561T505 407T296 352V0H80ZM296 572Q357 572 392 593T442 661T458 786Q458 864 443 914T392 989T296 1014V572Z" />
<glyph unicode="&#xdf;" horiz-adv-x="700" d="M60 0V1206Q60 1294 94 1356T190 1452T334 1486Q419 1486 478 1451T567 1353T598 1208Q598 1154 576 1111T512 1038Q547 1019 574 984T620 892Q640 835 650 754T660 562Q660 381 639 270T576 98Q534 38 473 19T334
0V188Q364 188 388 201T428 254Q443 295 450 368T458 562Q458 690 451 767T428 886Q413 928 389 942T334 956V1094Q369 1094 393 1125T418 1208Q418 1249 400 1277T338 1306Q301 1306 282 1277T262 1206V0H60Z" />
<glyph unicode="&#xe0;" horiz-adv-x="639" d="M207 -16Q137 -16 86 55T35 272Q35 413 95 499T277 648Q315 668 341 684T373 714V834Q373 875 364 904T317 934Q283 934 271 903T259 824V772H57V818Q57 908 92 973T189 1074T329 1110Q404 1110 459 1076T544 981T575
842V190Q575 117 579 77T589 0H391Q378 16 376 47T373 88H359Q334 42 296 13T207 -16ZM289 182Q324 182 348 206T373 258V518Q300 487 267 425T233 284Q233 250 246 216T289 182ZM411 1224H255L67 1404H277L411 1224Z" />
<glyph unicode="&#xe1;" horiz-adv-x="639" d="M207 -16Q137 -16 86 55T35 272Q35 413 95 499T277 648Q315 668 341 684T373 714V834Q373 875 364 904T317 934Q283 934 271 903T259 824V772H57V818Q57 908 92 973T189 1074T329 1110Q404 1110 459 1076T544 981T575
842V190Q575 117 579 77T589 0H391Q378 16 376 47T373 88H359Q334 42 296 13T207 -16ZM289 182Q324 182 348 206T373 258V518Q300 487 267 425T233 284Q233 250 246 216T289 182ZM223 1224L357 1404H567L379 1224H223Z" />
<glyph unicode="&#xe2;" horiz-adv-x="639" d="M207 -16Q137 -16 86 55T35 272Q35 413 95 499T277 648Q315 668 341 684T373 714V834Q373 875 364 904T317 934Q283 934 271 903T259 824V772H57V818Q57 908 92 973T189 1074T329 1110Q404 1110 459 1076T544 981T575
842V190Q575 117 579 77T589 0H391Q378 16 376 47T373 88H359Q334 42 296 13T207 -16ZM289 182Q324 182 348 206T373 258V518Q300 487 267 425T233 284Q233 250 246 216T289 182ZM76 1228L214 1408H428L566 1228H382L320 1318L260 1228H76Z" />
<glyph unicode="&#xe3;" horiz-adv-x="639" d="M207 -16Q137 -16 86 55T35 272Q35 413 95 499T277 648Q315 668 341 684T373 714V834Q373 875 364 904T317 934Q283 934 271 903T259 824V772H57V818Q57 908 92 973T189 1074T329 1110Q404 1110 459 1076T544 981T575
842V190Q575 117 579 77T589 0H391Q378 16 376 47T373 88H359Q334 42 296 13T207 -16ZM289 182Q324 182 348 206T373 258V518Q300 487 267 425T233 284Q233 250 246 216T289 182ZM409 1205Q362 1205 323 1223Q280 1243 233 1243Q206 1243 177 1234T127 1211V1359Q141
1370 158 1377T193 1391Q211 1397 233 1397Q280 1397 321 1381Q343 1373 365 1366T409 1359Q436 1359 465 1368T515 1391V1243Q496 1226 464 1216T409 1205Z" />
<glyph unicode="&#xe4;" horiz-adv-x="639" d="M207 -16Q137 -16 86 55T35 272Q35 413 95 499T277 648Q315 668 341 684T373 714V834Q373 875 364 904T317 934Q283 934 271 903T259 824V772H57V818Q57 908 92 973T189 1074T329 1110Q404 1110 459 1076T544 981T575
842V190Q575 117 579 77T589 0H391Q378 16 376 47T373 88H359Q334 42 296 13T207 -16ZM289 182Q324 182 348 206T373 258V518Q300 487 267 425T233 284Q233 250 246 216T289 182ZM369 1216V1412H555V1216H369ZM87 1216V1412H273V1216H87Z" />
<glyph unicode="&#xe5;" horiz-adv-x="639" d="M207 -16Q137 -16 86 55T35 272Q35 413 95 499T277 648Q315 668 341 684T373 714V834Q373 875 364 904T317 934Q283 934 271 903T259 824V772H57V818Q57 908 92 973T189 1074T329 1110Q404 1110 459 1076T544 981T575
842V190Q575 117 579 77T589 0H391Q378 16 376 47T373 88H359Q334 42 296 13T207 -16ZM289 182Q324 182 348 206T373 258V518Q300 487 267 425T233 284Q233 250 246 216T289 182ZM322 1194Q261 1194 217 1233T172 1334Q172 1396 216 1435T322 1474Q384 1474 427
1435T470 1334Q470 1273 427 1234T322 1194ZM322 1264Q351 1264 373 1285T396 1334Q396 1363 374 1383T322 1404Q294 1404 271 1384T248 1334Q248 1306 271 1285T322 1264Z" />
<glyph unicode="&#xe6;" horiz-adv-x="945" d="M307 -16Q232 -16 171 15T72 111T35 272Q35 413 95 489T277 628Q315 648 341 664T373 694V834Q373 875 364 904T317 934Q283 934 271 903T259 824V772H57V818Q57 908 92 973T189 1074T329 1110Q404 1110 456 1076T537
981T565 842V230Q565 119 494 52T307 -16ZM289 182Q324 182 348 206T373 258V498Q300 467 267 415T233 284Q233 250 246 216T289 182ZM643 -16Q522 -16 453 67T383 272V822Q383 950 452 1030T645 1110Q726 1110 784 1073T874 973T905 828V510H571V272Q571 231 589
197T645 162Q684 162 700 194T717 272V392H905V266Q905 139 837 62T643 -16ZM571 668H717V822Q717 867 702 900T645 934Q607 934 589 900T571 822V668Z" />
<glyph unicode="&#xe7;" horiz-adv-x="598" d="M298 -15Q165 -15 103 68T40 299V796Q40 945 102 1027T298 1110Q431 1110 494 1027T558 796V710H356V822Q356 868 344 899T298 930Q264 930 253 899T242 822V273Q242 228 253 197T298 165Q332 165 344 196T356 273V385H558V299Q558
151 495 68T298 -15ZM422 -61Q466 -61 502 -90T538 -190Q538 -255 502 -296T408 -357T287 -376Q233 -376 178 -360T96 -324L148 -214Q166 -227 210 -245T298 -263Q342 -263 373 -248T404 -196Q404 -165 388 -154T352 -143Q307 -143 287 -177L178 -141L237 0H356L309
-108H300Q308 -86 345 -74T422 -61Z" />
<glyph unicode="&#xe8;" horiz-adv-x="602" d="M300 -16Q179 -16 110 67T40 272V822Q40 950 109 1030T302 1110Q383 1110 441 1073T531 973T562 828V510H228V272Q228 231 246 197T302 162Q341 162 357 194T374 272V392H562V266Q562 139 494 62T300 -16ZM228 668H374V822Q374
867 359 900T302 934Q264 934 246 900T228 822V668ZM388 1224H232L44 1404H254L388 1224Z" />
<glyph unicode="&#xe9;" horiz-adv-x="602" d="M300 -16Q179 -16 110 67T40 272V822Q40 950 109 1030T302 1110Q383 1110 441 1073T531 973T562 828V510H228V272Q228 231 246 197T302 162Q341 162 357 194T374 272V392H562V266Q562 139 494 62T300 -16ZM228 668H374V822Q374
867 359 900T302 934Q264 934 246 900T228 822V668ZM200 1224L334 1404H544L356 1224H200Z" />
<glyph unicode="&#xea;" horiz-adv-x="602" d="M300 -16Q179 -16 110 67T40 272V822Q40 950 109 1030T302 1110Q383 1110 441 1073T531 973T562 828V510H228V272Q228 231 246 197T302 162Q341 162 357 194T374 272V392H562V266Q562 139 494 62T300 -16ZM228 668H374V822Q374
867 359 900T302 934Q264 934 246 900T228 822V668ZM53 1228L191 1408H405L543 1228H359L297 1318L237 1228H53Z" />
<glyph unicode="&#xeb;" horiz-adv-x="602" d="M300 -16Q179 -16 110 67T40 272V822Q40 950 109 1030T302 1110Q383 1110 441 1073T531 973T562 828V510H228V272Q228 231 246 197T302 162Q341 162 357 194T374 272V392H562V266Q562 139 494 62T300 -16ZM228 668H374V822Q374
867 359 900T302 934Q264 934 246 900T228 822V668ZM346 1216V1412H532V1216H346ZM64 1216V1412H250V1216H64Z" />
<glyph unicode="&#xec;" horiz-adv-x="362" d="M80 0V1094H282V0H80ZM271 1224H115L-73 1404H137L271 1224Z" />
<glyph unicode="&#xed;" horiz-adv-x="362" d="M80 0V1094H282V0H80ZM83 1224L217 1404H427L239 1224H83Z" />
<glyph unicode="&#xee;" horiz-adv-x="362" d="M80 0V1094H282V0H80ZM-64 1228L74 1408H288L426 1228H242L180 1318L120 1228H-64Z" />
<glyph unicode="&#xef;" horiz-adv-x="362" d="M80 0V1094H282V0H80ZM229 1216V1412H415V1216H229ZM-53 1216V1412H133V1216H-53Z" />
<glyph unicode="&#xf0;" horiz-adv-x="598" d="M298 -16Q218 -16 160 22T71 126T40 272V838Q40 892 48 941T75 1028T126 1088T208 1110Q243 1110 281 1090T360 1034Q353 1096 340 1145T310 1232L230 1162L176 1224L274 1310Q269 1318 255 1338T230 1374L336 1472Q344
1464 361 1444T388 1412L480 1492L534 1428L436 1342Q483 1270 520 1163T558 906V266Q558 184 527 121T438 21T298 -16ZM298 162Q340 162 354 195T368 272V822Q368 872 353 903T298 934Q259 934 245 898T230 822V272Q230 229 244 196T298 162Z" />
<glyph unicode="&#xf1;" horiz-adv-x="618" d="M50 0V1094H252V1002Q288 1037 333 1073T416 1110Q466 1110 500 1078T551 997T568 896V0H366V856Q366 888 355 901T318 914Q296 914 281 899T252 862V0H50ZM396 1205Q349 1205 310 1223Q267 1243 220 1243Q193 1243
164 1234T114 1211V1359Q128 1370 145 1377T180 1391Q198 1397 220 1397Q267 1397 308 1381Q330 1373 352 1366T396 1359Q423 1359 452 1368T502 1391V1243Q483 1226 451 1216T396 1205Z" />
<glyph unicode="&#xf2;" horiz-adv-x="598" d="M299 -14Q178 -14 109 67T40 274V822Q40 947 109 1028T299 1110Q419 1110 488 1029T558 822V274Q558 149 489 68T299 -14ZM299 162Q338 162 353 193T368 274V822Q368 872 353 903T299 934Q260 934 245 903T230 822V274Q230
224 245 193T299 162ZM390 1224H234L46 1404H256L390 1224Z" />
<glyph unicode="&#xf3;" horiz-adv-x="598" d="M299 -14Q178 -14 109 67T40 274V822Q40 947 109 1028T299 1110Q419 1110 488 1029T558 822V274Q558 149 489 68T299 -14ZM299 162Q338 162 353 193T368 274V822Q368 872 353 903T299 934Q260 934 245 903T230 822V274Q230
224 245 193T299 162ZM202 1224L336 1404H546L358 1224H202Z" />
<glyph unicode="&#xf4;" horiz-adv-x="598" d="M299 -14Q178 -14 109 67T40 274V822Q40 947 109 1028T299 1110Q419 1110 488 1029T558 822V274Q558 149 489 68T299 -14ZM299 162Q338 162 353 193T368 274V822Q368 872 353 903T299 934Q260 934 245 903T230 822V274Q230
224 245 193T299 162ZM55 1228L193 1408H407L545 1228H361L299 1318L239 1228H55Z" />
<glyph unicode="&#xf5;" horiz-adv-x="598" d="M299 -14Q178 -14 109 67T40 274V822Q40 947 109 1028T299 1110Q419 1110 488 1029T558 822V274Q558 149 489 68T299 -14ZM299 162Q338 162 353 193T368 274V822Q368 872 353 903T299 934Q260 934 245 903T230 822V274Q230
224 245 193T299 162ZM388 1205Q341 1205 302 1223Q259 1243 212 1243Q185 1243 156 1234T106 1211V1359Q120 1370 137 1377T172 1391Q190 1397 212 1397Q259 1397 300 1381Q322 1373 344 1366T388 1359Q415 1359 444 1368T494 1391V1243Q475 1226 443 1216T388
1205Z" />
<glyph unicode="&#xf6;" horiz-adv-x="598" d="M299 -14Q178 -14 109 67T40 274V822Q40 947 109 1028T299 1110Q419 1110 488 1029T558 822V274Q558 149 489 68T299 -14ZM299 162Q338 162 353 193T368 274V822Q368 872 353 903T299 934Q260 934 245 903T230 822V274Q230
224 245 193T299 162ZM348 1216V1412H534V1216H348ZM66 1216V1412H252V1216H66Z" />
<glyph unicode="&#xf7;" horiz-adv-x="758" d="M72 634V802H686V634H72ZM380 882Q336 882 305 913T274 988Q274 1031 305 1061T380 1092Q423 1092 453 1062T484 988Q484 944 454 913T380 882ZM380 344Q336 344 305 375T274 450Q274 493 305 523T380 554Q423 554
453 524T484 450Q484 406 454 375T380 344Z" />
<glyph unicode="&#xf8;" horiz-adv-x="598" d="M69 14L426 1143L540 1093L188 -36L69 14ZM299 -14Q178 -14 109 67T40 274V822Q40 947 109 1028T299 1110Q419 1110 488 1029T558 822V274Q558 149 489 68T299 -14ZM299 162Q338 162 353 193T368 274V822Q368 872
353 903T299 934Q260 934 245 903T230 822V274Q230 224 245 193T299 162Z" />
<glyph unicode="&#xf9;" horiz-adv-x="618" d="M202 -16Q152 -16 118 16T67 97T50 198V1094H252V238Q252 207 263 194T300 180Q322 180 337 195T366 232V1094H568V0H366V92Q330 58 285 21T202 -16ZM402 1224H246L58 1404H268L402 1224Z" />
<glyph unicode="&#xfa;" horiz-adv-x="618" d="M202 -16Q152 -16 118 16T67 97T50 198V1094H252V238Q252 207 263 194T300 180Q322 180 337 195T366 232V1094H568V0H366V92Q330 58 285 21T202 -16ZM214 1224L348 1404H558L370 1224H214Z" />
<glyph unicode="&#xfb;" horiz-adv-x="618" d="M202 -16Q152 -16 118 16T67 97T50 198V1094H252V238Q252 207 263 194T300 180Q322 180 337 195T366 232V1094H568V0H366V92Q330 58 285 21T202 -16ZM67 1228L205 1408H419L557 1228H373L311 1318L251 1228H67Z" />
<glyph unicode="&#xfc;" horiz-adv-x="618" d="M202 -16Q152 -16 118 16T67 97T50 198V1094H252V238Q252 207 263 194T300 180Q322 180 337 195T366 232V1094H568V0H366V92Q330 58 285 21T202 -16ZM360 1216V1412H546V1216H360ZM78 1216V1412H264V1216H78Z" />
<glyph unicode="&#xfd;" horiz-adv-x="602" d="M89 -392Q76 -392 58 -391T23 -387V-208Q26 -209 39 -210T56 -212Q112 -212 146 -182T195 -102Q200 -87 200 -67T201 -32L15 1094H213L293 412L297 336H305L309 412L389 1094H587L393 -82Q382 -170 344 -240T241
-351T89 -392ZM203 1224L337 1404H547L359 1224H203Z" />
<glyph unicode="&#xfe;" horiz-adv-x="608" d="M50 1470H252V1069H50V1470ZM50 -376V1094H252V1022Q290 1058 332 1084T412 1110Q464 1110 498 1079T550 998T568 896V198Q568 145 550 96T497 15T412 -16Q370 -16 330 10T252 72V-376H50ZM322 174Q345 174 355 188T366
230V844Q366 882 356 901T322 920Q300 920 276 902T252 854V240Q252 216 276 195T322 174Z" />
<glyph unicode="&#xff;" horiz-adv-x="602" d="M89 -392Q76 -392 58 -391T23 -387V-208Q26 -209 39 -210T56 -212Q112 -212 146 -182T195 -102Q200 -87 200 -67T201 -32L15 1094H213L293 412L297 336H305L309 412L389 1094H587L393 -82Q382 -170 344 -240T241
-351T89 -392ZM349 1216V1412H535V1216H349ZM67 1216V1412H253V1216H67Z" />
<glyph unicode="&#x2013;" horiz-adv-x="788" d="M72 634V824H716V634H72Z" />
<glyph unicode="&#x2014;" horiz-adv-x="950" d="M72 634V824H878V634H72Z" />
<glyph unicode="&#x2018;" horiz-adv-x="302" d="M48 988V1210L158 1470H258L188 1210H258V988H48Z" />
<glyph unicode="&#x2019;" horiz-adv-x="302" d="M44 988L114 1248H44V1470H254V1248L144 988H44Z" />
<glyph unicode="&#x201a;" horiz-adv-x="302" d="M44 -260L114 0H44V222H254V0L144 -260H44Z" />
<glyph unicode="&#x201c;" horiz-adv-x="610" d="M348 988V1210L458 1470H558L488 1210H558V988H348ZM52 988V1210L162 1470H262L192 1210H262V988H52Z" />
<glyph unicode="&#x201d;" horiz-adv-x="610" d="M348 988L418 1248H348V1470H558V1248L448 988H348ZM52 988L122 1248H52V1470H262V1248L152 988H52Z" />
<glyph unicode="&#x201e;" horiz-adv-x="610" d="M348 -260L418 0H348V222H558V0L448 -260H348ZM52 -260L122 0H52V222H262V0L152 -260H52Z" />
<glyph unicode="&#x2022;" horiz-adv-x="648" d="M326 552Q258 552 202 585T113 674T80 798Q80 865 113 920T201 1007T326 1040Q428 1040 498 970T568 798Q568 728 535 673T447 585T326 552Z" />
<glyph unicode="&#x2039;" horiz-adv-x="446" d="M386 204L60 469V621L386 886V696L148 520V570L386 394V204Z" />
<glyph unicode="&#x203a;" horiz-adv-x="446" d="M60 204V394L298 570V520L60 696V886L386 621V469L60 204Z" />
</font>
</defs>
</svg>
