<?xml version="1.0" standalone="no"?>
<!DOCTYPE svg PUBLIC "-//W3C//DTD SVG 1.1//EN" "http://www.w3.org/Graphics/SVG/1.1/DTD/svg11.dtd">
<svg xmlns="http://www.w3.org/2000/svg">
<defs >
<font id="LibreCaslonDisplay" horiz-adv-x="494" ><font-face
    font-family="Libre Caslon Display"
    units-per-em="1000"
    panose-1="0 0 5 0 0 0 0 0 0 0"
    ascent="970"
    descent="-266"
    alphabetic="0" />
<glyph unicode=" " glyph-name="space" horiz-adv-x="240" />
<glyph unicode="!" glyph-name="exclam" horiz-adv-x="240" d="M110 270Q104 400 98 461Q81 631 81 663Q81 686 91 699T120 712Q139 712 149 700T159 666Q159 651 152 576Q144 494 142 465Q134 370 125 170H115L110 270ZM72 59T85 72T120 86Q141 86 154 73T168
38Q168 17 155 4T120 -10Q99 -10 86 3T72 38Q72 59 85 72Z" />
<glyph unicode="&quot;" glyph-name="quotedbl" horiz-adv-x="258" d="M79 581T63 645Q57 675 57 684Q57 714 84 714Q111 714 111 684Q111 670 104 644Q97 611 93 583T89 510H79Q79 581 63 645ZM169 581T153 645Q147 675 147 684Q147 714 174 714Q201 714 201
684Q201 670 194 644Q187 611 183 583T179 510H169Q169 581 153 645Z" />
<glyph unicode="#" glyph-name="numbersign" horiz-adv-x="601" d="M423 422L396 252H517L511 230H393L371 92H348L370 230H201L179 92H156L178 230H49L54 252H181L208 422H85L90 444H211L233 583H256L234 444H403L425 583H448L426 444H552L547 422H423ZM400 422H231L204
252H373L400 422Z" />
<glyph unicode="$" glyph-name="dollar" horiz-adv-x="516" d="M473 134T446 90T372 18T269 -15V-101H247V-16H244Q194 -16 150 1T80 45T53 102Q53 120 63 131T89 142Q106 142 114 132T130 103Q132 99 137 84Q149 52 159 35T190 7T247 -4V306L227 315Q170 341
135 363T74 422T49 513Q49 567 74 609T144 677T247 706V800H269V706Q317 705 359 691T428 653T454 605Q454 589 444 579T418 568Q400 568 392 579T377 607Q362 648 340 670T269 694V395L295 383Q356 354 391 332T450 275T473 189Q473 134 446 90ZM114 506T145 474T247
406V694Q185 690 150 655T114 560Q114 506 145 474ZM332 2T371 40T411 139Q411 194 377 228T269 296V-3Q332 2 371 40Z" />
<glyph unicode="%" glyph-name="percent" horiz-adv-x="579" d="M98 -2H123L480 690H455L98 -2ZM386 314T359 293T315 234T299 152Q299 108 315 71T358 12T419 -10Q452 -10 479 11T523 70T539 152Q539 196 523 233T480 292T419 314Q386 314 359 293ZM362 304T419
304Q476 304 476 152Q476 0 419 0Q362 0 362 152Q362 304 419 304ZM127 700T100 679T56 620T40 538Q40 494 56 457T99 398T160 376Q193 376 220 397T264 456T280 538Q280 582 264 619T221 678T160 700Q127 700 100 679ZM103 690T160 690Q217 690 217 538Q217 386
160 386Q103 386 103 538Q103 690 160 690Z" />
<glyph unicode="&amp;" glyph-name="ampersand" horiz-adv-x="828" d="M787 102L783 91Q764 39 724 10T631 -20Q592 -20 560 -1T488 63L470 84Q366 -20 241 -20Q148 -20 97 23T46 147Q46 221 93 277T229 364L220 374Q174 427 156 463T137 538Q137 586 160 624T226
684T321 706Q390 706 433 671T476 578Q476 520 431 468T310 386L513 155Q574 231 611 331Q615 342 615 348Q615 359 609 364T585 371L504 376V384H757V376L681 371Q656 370 647 363T627 331Q579 218 522 145L544 120Q585 74 611 57T670 40Q699 40 722 52T773 93L783
104L787 102ZM207 540T230 495T303 394L304 393Q409 451 409 565Q409 624 382 659T308 694Q264 694 236 663T207 581Q207 540 230 495ZM322 16T368 37T458 97L235 356Q188 327 162 279T136 172Q136 101 174 59T277 16Q322 16 368 37Z" />
<glyph unicode="&apos;" glyph-name="quotesingle" horiz-adv-x="168" d="M79 581T63 645Q57 675 57 684Q57 714 84 714Q111 714 111 684Q111 670 104 644Q97 611 93 583T89 510H79Q79 581 63 645Z" />
<glyph unicode="(" glyph-name="parenleft" horiz-adv-x="267" d="M119 429T153 555T241 739L237 742Q192 704 147 633T73 469T43 282Q43 187 72 95T147 -68T237 -178L241 -175Q187 -117 153 8T119 281Q119 429 153 555Z" />
<glyph unicode=")" glyph-name="parenright" horiz-adv-x="267" d="M148 133T114 8T26 -175L30 -178Q75 -140 120 -69T194 95T224 282Q224 377 195 469T120 632T30 742L26 739Q80 681 114 555T148 281Q148 133 114 8Z" />
<glyph unicode="*" glyph-name="asterisk" horiz-adv-x="408" d="M231 675T224 654Q217 633 214 614T209 565Q241 586 259 604T280 626Q293 640 300 646T317 652Q327 652 335 646T343 627Q343 615 335 610T304 597Q257 581 214 557Q253 535 304 518Q327 510 335
505T343 488Q343 476 336 470T317 463Q308 463 301 468T280 488Q246 524 209 549Q210 504 224 460Q231 441 231 430Q231 417 224 409T204 401Q192 401 185 408T177 430Q177 440 184 459Q198 503 199 549Q160 522 129 489Q116 475 108 469T90 463Q80 463 73 469T65
487Q65 499 73 504T105 518Q156 535 194 557Q155 580 104 597Q82 605 74 610T65 627Q65 639 72 645T91 652Q101 652 108 646T128 626Q131 623 149 605T199 565Q198 595 195 614T184 655Q177 676 177 685Q177 714 204 714Q231 714 231 685Q231 675 224 654Z" />
<glyph unicode="+" glyph-name="plus" horiz-adv-x="454" d="M397 333H238V174H216V333H57V355H216V514H238V355H397V333Z" />
<glyph unicode="," glyph-name="comma" horiz-adv-x="234" d="M95 -135T109 -106T123 -52Q123 -32 116 -21T92 2Q77 15 71 23T64 48Q64 70 77 84T111 99Q138 99 154 79T171 20Q171 -33 147 -79T77 -161L73 -156Q95 -135 109 -106Z" />
<glyph unicode="-" glyph-name="hyphen" horiz-adv-x="356" d="M285 216L292 238H72L65 216H285Z" />
<glyph unicode="." glyph-name="period" horiz-adv-x="231" d="M64 70T78 84T116 99Q139 99 153 85T167 48Q167 26 153 11T116 -4Q93 -4 79 11T64 48Q64 70 78 84Z" />
<glyph unicode="/" glyph-name="slash" horiz-adv-x="325" d="M46 0H69L279 690H256L46 0Z" />
<glyph unicode="0" glyph-name="zero" horiz-adv-x="622" d="M241 706T183 658T90 527T56 345Q56 246 90 163T182 32T311 -16Q381 -16 439 32T532 163T566 345Q566 444 532 527T440 658T311 706Q241 706 183 658ZM152 522T191 608T311 694Q391 694 430 608T470
345Q470 168 431 82T311 -4Q231 -4 192 82T152 345Q152 522 191 608Z" />
<glyph unicode="1" glyph-name="one" horiz-adv-x="344" d="M41 9V0H312V9L220 17V712L215 714Q186 666 145 641T40 607V600H143V17L41 9Z" />
<glyph unicode="2" glyph-name="two" horiz-adv-x="510" d="M35 9L142 111Q345 304 345 490Q345 568 312 609T216 651Q167 651 128 627T65 557L56 562Q82 627 137 666T259 706Q311 706 352 681T416 612T439 512Q439 444 396 374T250 198L130 77H361Q390 77 404
86T425 123L444 196L452 194L429 0H38L35 9Z" />
<glyph unicode="3" glyph-name="three" horiz-adv-x="516" d="M236 382T277 433T319 544Q319 594 292 622T219 651Q173 651 137 624T77 546L68 550Q93 623 145 665T265 707Q327 707 367 672T407 581Q407 531 374 485T279 405V401Q332 400 374 374T441 305T465
209Q465 148 433 96T346 14T225 -16Q178 -16 137 0T71 43T46 101Q46 123 58 136T89 149Q110 149 124 132T155 69Q167 36 175 22T195 3T228 -2Q296 -2 335 43T375 166Q375 220 356 262T303 327T225 351Q192 351 165 342L162 352Q236 382 277 433Z" />
<glyph unicode="4" glyph-name="four" horiz-adv-x="509" d="M23 195L20 201L372 714L377 712V247H462V195H377V17L463 9V0H198V9L300 17V195H23ZM296 578L68 250L69 247H300V578H296Z" />
<glyph unicode="5" glyph-name="five" horiz-adv-x="499" d="M161 446T182 449T224 453Q291 453 341 426T420 350T448 235Q448 166 417 109T332 18T212 -16Q166 -16 126 0T60 44T35 101Q35 123 47 136T81 149Q106 149 117 133T138 83Q151 42 169 20T227 -2Q287
-2 324 51T361 190Q361 280 319 332T204 384Q150 384 105 349L101 350L149 690H410Q419 702 429 723L436 721L404 615H153L129 438Q161 446 182 449Z" />
<glyph unicode="6" glyph-name="six" horiz-adv-x="512" d="M198 -16T152 16T80 106T54 243Q54 348 95 440T211 603T387 714L391 706Q282 640 226 559T159 370Q182 395 216 409T290 423Q372 423 422 367T472 217Q472 149 445 96T370 14T261 -16Q198 -16 152 16ZM319
-4T349 50T379 199Q379 295 347 347T255 399Q226 399 200 387T157 352Q146 284 146 219Q146 118 179 57T267 -4Q319 -4 349 50Z" />
<glyph unicode="7" glyph-name="seven" horiz-adv-x="432" d="M423 685Q335 480 295 373T180 23Q174 4 161 -6T132 -16Q114 -16 105 -6T96 22Q96 38 103 51L378 615H74Q53 585 38 547L31 550L85 722L90 720Q90 710 92 690H417L423 685Z" />
<glyph unicode="8" glyph-name="eight" horiz-adv-x="525" d="M394 353T433 303T472 190Q472 133 444 86T366 12T257 -16Q202 -16 156 8T83 74T56 166Q56 225 96 274T211 355Q144 391 112 434T79 533Q79 582 103 621T171 683T267 706Q315 706 353 688T414 637T436
563Q436 512 403 469T310 400Q394 353 433 303ZM334 431T352 471T370 560Q370 622 341 658T261 694Q213 694 184 662T155 576Q155 521 190 480T301 405Q334 431 352 471ZM178 325T155 280T132 170Q132 88 167 42T264 -4Q324 -4 361 36T398 140Q398 204 356 253T222
348Q178 325 155 280Z" />
<glyph unicode="9" glyph-name="nine" horiz-adv-x="511" d="M347 714T402 644T457 453Q457 351 417 259T301 96T124 -16L120 -8Q224 57 281 142T352 338Q330 313 296 299T222 285Q140 285 90 340T39 488Q39 553 66 604T141 685T252 714Q347 714 402 644ZM195
702T164 650T132 506Q132 412 164 361T256 309Q285 309 310 321T354 356Q365 417 365 486Q365 590 336 646T250 702Q195 702 164 650Z" />
<glyph unicode=":" glyph-name="colon" horiz-adv-x="233" d="M65 380T79 394T117 409Q140 409 154 395T168 358Q168 336 154 321T117 306Q94 306 80 321T65 358Q65 380 79 394ZM65 70T79 84T117 99Q140 99 154 85T168 48Q168 26 154 11T117 -4Q94 -4 80 11T65
48Q65 70 79 84Z" />
<glyph unicode=";" glyph-name="semicolon" horiz-adv-x="246" d="M67 380T81 394T119 409Q142 409 156 395T170 358Q170 336 156 321T119 306Q96 306 82 321T67 358Q67 380 81 394ZM102 -135T116 -106T130 -52Q130 -32 123 -21T99 2Q84 15 78 23T71 48Q71 70
84 84T118 99Q145 99 161 79T178 20Q178 -33 154 -79T84 -161L80 -156Q102 -135 116 -106Z" />
<glyph unicode="&lt;" glyph-name="less" horiz-adv-x="423" d="M325 186L334 206L66 346L333 488L324 504L52 362V329L325 186Z" />
<glyph unicode="=" glyph-name="equal" horiz-adv-x="481" d="M403 413L410 435H80L73 413H403ZM403 228L410 250H80L73 228H403Z" />
<glyph unicode="&gt;" glyph-name="greater" horiz-adv-x="423" d="M99 504L90 488L357 346L89 206L98 186L371 329V362L99 504Z" />
<glyph unicode="?" glyph-name="question" horiz-adv-x="363" d="M125 322L151 323Q228 326 272 366T316 476Q316 532 287 587T211 677T117 712Q94 712 84 704T73 677Q73 654 97 638T171 602Q213 585 239 572T283 537T302 485Q302 442 260 422T126 402H99L107
170H117L125 322ZM60 59T73 72T108 86Q129 86 142 73T156 38Q156 17 143 4T108 -10Q87 -10 74 3T60 38Q60 59 73 72Z" />
<glyph unicode="@" glyph-name="at" horiz-adv-x="752" d="M506 -137T471 -147T390 -157Q304 -157 240 -122T142 -23T107 129Q107 225 148 304T260 428T419 473Q496 473 557 442T652 357T687 232Q687 177 665 127T607 47T531 16Q512 16 504 25T496 57Q496 73 502
90L580 354H504L492 314H488Q479 335 464 344T425 354Q376 354 325 316T241 220T207 107Q207 60 233 33T304 5Q375 5 430 84L433 83Q429 78 429 65Q429 31 450 13T510 -6Q561 -6 605 27T675 115T702 233Q702 307 666 365T566 455T420 488Q316 488 230 440T93 307T43
122Q43 34 83 -33T198 -136T370 -173Q473 -173 551 -127L546 -114Q506 -137 471 -147ZM303 19T292 38T280 94Q280 150 304 208T364 304T436 342Q457 342 466 326T476 275Q476 216 454 156T396 58T325 19Q303 19 292 38Z" />
<glyph unicode="A" glyph-name="A" horiz-adv-x="658" d="M673 8V0H428V8L510 18L416 274H174L91 53Q87 42 87 35Q87 24 93 20T117 13L178 8V0H-35V8L21 13Q46 15 56 23T75 53L320 706H338L590 18L673 8ZM410 290L298 595H294L180 290H410Z" />
<glyph unicode="B" glyph-name="B" horiz-adv-x="615" d="M469 352T515 307T561 189Q561 109 506 55T335 0H40V8L122 16V674L40 682V690H289Q407 690 469 648T531 526Q531 462 492 420T382 368V364Q469 352 515 307ZM199 678V371H315Q382 371 411 410T441 526Q441
678 286 678H199ZM466 12T466 186Q466 277 427 318T311 359H199V12H311Q466 12 466 186Z" />
<glyph unicode="C" glyph-name="C" horiz-adv-x="676" d="M497 36T455 17T367 -2Q262 -2 205 88T148 345Q148 512 205 603T368 694Q426 694 474 668T552 592Q582 542 596 465L610 469L600 694H587L563 646Q505 677 458 691T365 706Q279 706 207 658T94 527T52
345Q52 245 93 163T207 32T367 -16Q416 -16 468 3T566 55L600 0H613V230L600 232Q575 123 526 68Q497 36 455 17Z" />
<glyph unicode="D" glyph-name="D" horiz-adv-x="704" d="M580 594T614 519T648 349Q648 254 614 176T519 54Q480 26 430 13T306 0H40V8L122 16V674L40 682V690H306Q442 690 519 637Q580 594 614 519ZM515 112T533 187T552 354Q552 443 535 511T483 619Q455 652
414 665T297 678H199V12H297Q377 12 417 25T483 71Q515 112 533 187Z" />
<glyph unicode="E" glyph-name="E" horiz-adv-x="614" d="M555 210L530 0H40V8L122 16V674L40 682V690H531L545 502L535 501L479 641Q470 664 460 671T425 678H199V371H347Q371 371 381 379T395 410L412 491H424V235H412L395 316Q391 339 381 347T347 355H199V12H423Q447
12 458 19T478 49L544 211L555 210Z" />
<glyph unicode="F" glyph-name="F" horiz-adv-x="554" d="M524 491L516 490L456 641Q447 664 437 671T402 678H199V371H344Q368 371 378 379T392 410L409 491H421V235H409L392 316Q388 339 378 347T344 355H199V16L297 8V0H40V8L122 16V674L40 682V690H508L524 491Z" />
<glyph unicode="G" glyph-name="G" horiz-adv-x="703" d="M528 77Q503 41 460 19T367 -4Q262 -4 205 87T148 345Q148 512 205 603T368 694Q425 694 471 668T548 592Q578 542 592 465L606 469L596 694H583L559 646Q502 677 456 691T365 706Q279 706 207 658T94
527T52 345Q52 245 93 163T207 32T367 -16Q419 -16 488 4T605 68V329L687 337V345H456V337L528 329V77Z" />
<glyph unicode="H" glyph-name="H" horiz-adv-x="731" d="M609 674V16L691 8V0H445V8L532 16V355H199V16L286 8V0H40V8L122 16V674L40 682V690H286V682L199 674V371H532V674L445 682V690H691V682L609 674Z" />
<glyph unicode="I" glyph-name="I" horiz-adv-x="321" d="M40 690H281V682L199 674V16L281 8V0H40V8L122 16V674L40 682V690Z" />
<glyph unicode="J" glyph-name="J" horiz-adv-x="330" d="M134 -83T115 -121T63 -159Q29 -159 29 -124L30 -95Q30 -74 19 -62T-12 -50Q-31 -50 -42 -62T-54 -94Q-54 -127 -23 -149T55 -171Q92 -171 125 -155T178 -109Q196 -83 203 -46T211 57V674L293 682V690H52V682L134
674V-20Q134 -83 115 -121Z" />
<glyph unicode="K" glyph-name="K" horiz-adv-x="656" d="M675 8V0H526L255 358L199 294V16L286 8V0H40V8L122 16V674L40 682V690H286V682L199 674V312L471 626Q487 645 487 657Q487 667 472 672T409 682V690H613V682Q555 672 535 663T491 628L308 418L597 40Q614
21 628 15T671 8H675Z" />
<glyph unicode="L" glyph-name="L" horiz-adv-x="583" d="M122 16L40 8V0H530L555 218L543 220L475 49Q466 27 455 20T420 12H199V674L286 682V690H40V682L122 674V16Z" />
<glyph unicode="M" glyph-name="M" horiz-adv-x="871" d="M749 674V16L836 8V0H590V8L672 16V625H668L427 -16H417L148 626H144V61Q144 37 150 28T174 16L245 8V0H26V8L98 16Q116 18 122 27T128 61V661Q121 673 111 677T80 682H34V690H205L451 103H455L675 690H836V682L749
674Z" />
<glyph unicode="N" glyph-name="N" horiz-adv-x="734" d="M718 690V682L646 674Q622 671 614 662T606 629V-16H596L147 621H143V61Q143 37 149 28T173 16L244 8V0H25V8L97 16Q115 18 121 27T127 61V643L123 649Q109 669 97 675T60 682H43V690H192L586 138H590V629Q590
653 584 663T560 674L479 682V690H718Z" />
<glyph unicode="O" glyph-name="O" horiz-adv-x="734" d="M454 706T526 658T640 528T682 345Q682 245 641 163T527 32T367 -16Q280 -16 208 32T94 162T52 345Q52 445 93 527T207 658T367 706Q454 706 526 658ZM148 178T205 88T367 -3Q472 -3 529 87T586 345Q586
512 529 603T367 694Q262 694 205 603T148 345Q148 178 205 88Z" />
<glyph unicode="P" glyph-name="P" horiz-adv-x="568" d="M199 300V16L297 8V0H40V8L122 16V674L40 682V690H293Q410 690 472 640T535 499Q535 402 473 351T293 300H199ZM199 678V312H290Q371 312 408 358T445 504Q445 587 412 632T290 678H199Z" />
<glyph unicode="Q" glyph-name="Q" horiz-adv-x="734" d="M702 -36Q681 -84 639 -116T547 -149Q511 -149 481 -131T429 -85Q376 -16 327 -16Q305 -16 285 -27T265 -55Q265 -62 271 -78Q278 -99 278 -108Q278 -125 266 -137T236 -150Q219 -150 208 -138T197 -106Q197
-75 225 -50T299 -8Q228 9 172 59T84 184T52 345Q52 445 93 527T207 658T367 706Q454 706 526 658T640 528T682 345Q682 254 648 177T552 50T414 -12Q441 -23 479 -43Q529 -67 557 -77T613 -88Q645 -88 662 -73T692 -30L702 -36ZM148 178T205 87T367 -4Q472 -4
529 87T586 345Q586 512 529 603T367 694Q262 694 205 603T148 345Q148 178 205 87Z" />
<glyph unicode="R" glyph-name="R" horiz-adv-x="614" d="M647 8V0H544Q520 0 508 7T483 34L330 281Q316 304 307 309T273 315H199V16L286 8V0H40V8L122 16V674L40 682V690H293Q411 690 473 643T535 505Q535 435 497 390T387 328H388L571 42Q584 22 596 15T633
8H647ZM199 678V330H290Q370 330 408 372T447 503Q447 592 408 635T290 678H199Z" />
<glyph unicode="S" glyph-name="S" horiz-adv-x="551" d="M338 -16T387 10T465 81T493 185Q493 237 471 272T412 332T315 383Q248 414 212 436T155 488T134 562Q134 623 171 658T270 694Q373 694 423 591Q448 540 464 473L474 476L464 694H451L427 646Q386 678
351 692T274 706Q215 706 169 682T96 614T69 515Q69 461 93 424T155 363T247 315Q314 286 351 264T409 211T431 135Q431 71 391 34T278 -4Q194 -4 143 53Q118 81 103 119T72 225L63 223L76 -16H89L110 39Q141 13 185 -1T276 -16Q338 -16 387 10Z" />
<glyph unicode="T" glyph-name="T" horiz-adv-x="665" d="M289 16L181 8V0H474V8L366 16V679H512Q536 679 546 672T566 641L628 487L636 489L614 706H608Q586 696 571 693T531 690H146Q122 690 107 693T69 706H63L24 489L32 487L101 641Q111 664 122 671T157 679H289V16Z" />
<glyph unicode="U" glyph-name="U" horiz-adv-x="665" d="M536 653T530 662T506 674L435 682V690H654V682L582 674Q564 671 558 662T552 629V245Q552 182 543 140T513 68Q486 29 439 7T335 -16Q289 -16 244 -1T169 40Q138 67 125 109T112 225V674L30 682V690H276V682L189
674V192Q189 119 202 80T248 22Q265 12 290 6T342 0Q392 0 434 20T501 77Q520 105 528 142T536 240V629Q536 653 530 662Z" />
<glyph unicode="V" glyph-name="V" horiz-adv-x="658" d="M557 676T564 671T571 656Q571 647 567 637L364 95H360L148 674L235 682V690H-15V682L67 674L320 -16H338L583 637Q591 660 601 667T637 677L693 682V690H480V682L541 677Q557 676 564 671Z" />
<glyph unicode="W" glyph-name="W" horiz-adv-x="945" d="M971 690V682L915 677Q888 675 878 668T861 637L662 -16H646L471 482L319 -16H303L60 674L-22 682V690H228V682L141 674L338 112H342L462 506L403 674L321 682V690H571V682L484 674L681 112H685L845 637Q848
648 848 656Q848 667 842 671T819 677L758 682V690H971Z" />
<glyph unicode="X" glyph-name="X" horiz-adv-x="715" d="M714 8V0H459V8L546 16L335 322L132 48Q120 32 120 25Q120 20 126 18T148 13L205 8V0H1V8L52 12Q76 14 89 21T116 48L327 334L93 674L11 682V690H266V682L179 674L380 382L573 642Q585 659 585 665Q585
670 579 672T557 677L500 682V690H704V682L653 678Q629 676 616 669T589 642L388 370L632 16L714 8Z" />
<glyph unicode="Y" glyph-name="Y" horiz-adv-x="612" d="M634 690V682L578 677Q554 675 545 668T524 637L350 274V16L437 8V0H186V8L273 16V269L56 674L-26 682V690H223V682L136 674L339 295H344L508 637Q512 646 512 656Q512 666 505 671T482 677L421 682V690H634Z" />
<glyph unicode="Z" glyph-name="Z" horiz-adv-x="587" d="M35 8V0H504L541 215L527 217L455 49Q445 27 434 20T399 12H125V16L534 682V690H96L55 493L69 491L145 642Q155 664 167 671T203 678H444V674L35 8Z" />
<glyph unicode="[" glyph-name="bracketleft" horiz-adv-x="306" d="M281 -151H158V718H281V734H92V-167H281V-151Z" />
<glyph unicode="\" glyph-name="backslash" horiz-adv-x="325" d="M256 0H279L69 690H46L256 0Z" />
<glyph unicode="]" glyph-name="bracketright" horiz-adv-x="306" d="M214 734H25V718H148V-151H25V-167H214V734Z" />
<glyph unicode="^" glyph-name="asciicircum" horiz-adv-x="364" d="M295 188L182 334L69 188L66 189L151 375Q160 396 182 396Q203 396 213 375L298 189L295 188Z" />
<glyph unicode="_" glyph-name="underscore" horiz-adv-x="396" d="M332 -37L339 -15H59L52 -37H332Z" />
<glyph unicode="`" glyph-name="grave" horiz-adv-x="194" d="M146 523L81 605L67 623Q54 638 50 645T45 660Q45 673 52 682T73 691Q97 691 104 670L149 524L146 523Z" />
<glyph unicode="a" glyph-name="a" horiz-adv-x="391" d="M92 -7T68 19T43 88Q43 138 88 168T243 220V311Q243 369 230 391T185 414Q154 414 135 398T116 353L117 326Q117 301 108 287T81 272Q66 272 57 282T47 308Q47 332 70 360T131 408Q176 433 224 433Q252
433 271 422T300 391Q305 378 306 359T308 286V95Q308 59 315 46T340 32Q367 32 380 51L384 49Q372 24 352 11T309 -3Q283 -3 266 12T247 54L244 55Q221 26 191 10T130 -7Q92 -7 68 19ZM194 31T212 40T243 68V209Q191 196 163 183T122 152T110 107Q110 72 127 52T173
31Q194 31 212 40Z" />
<glyph unicode="b" glyph-name="b" horiz-adv-x="467" d="M283 -10T329 21T401 106T427 228Q427 289 406 335T347 408T260 434Q190 434 137 377V721H129L13 682V675L72 653V0H80L110 27H114Q163 -10 226 -10Q283 -10 329 21ZM185 0T161 27T137 101V362Q152 382
175 393T226 404Q285 404 318 351T352 207Q352 113 318 57T225 0Q185 0 161 27Z" />
<glyph unicode="c" glyph-name="c" horiz-adv-x="406" d="M181 434T136 405T66 324T40 207Q40 144 63 95T128 18T223 -10Q278 -10 318 19T379 101L383 112L379 114L370 102Q345 70 316 55T249 39Q181 39 144 87T107 222Q107 280 123 326T169 398T234 424Q264 424
275 408T293 361Q299 334 306 322T334 309Q351 309 361 319T371 347Q371 384 333 409T238 434Q181 434 136 405Z" />
<glyph unicode="d" glyph-name="d" horiz-adv-x="472" d="M244 -10T276 9T332 64L335 63V-5H341L450 45V50L395 62V721H387L271 682V675L330 653V422Q291 434 252 434Q190 434 142 405T67 324T40 204Q40 143 61 95T121 18T206 -10Q244 -10 276 9ZM180 30T146 80T111
218Q111 311 149 367T251 424Q289 424 309 401T330 333V77Q317 55 294 43T241 30Q180 30 146 80Z" />
<glyph unicode="e" glyph-name="e" horiz-adv-x="423" d="M379 114L383 112L379 101Q359 48 320 19T225 -10Q171 -10 129 18T64 96T40 211Q40 276 65 327T136 406T241 434Q311 434 348 393T387 272L381 267H111Q109 241 109 226Q109 135 146 88T249 40Q283 40
314 55T370 102L379 114ZM183 423T152 384T112 278L306 285Q309 297 309 325Q309 379 289 401T230 423Q183 423 152 384Z" />
<glyph unicode="f" glyph-name="f" horiz-adv-x="263" d="M286 733T315 716T344 674Q344 659 333 649T307 638Q291 638 282 648T268 679Q262 704 255 712T230 720Q185 720 164 668Q156 647 153 620T150 537V424H243L238 408H150V18L237 8V0H24V8L85 16V408H18L23
424H85V482Q85 555 87 584T97 632Q114 676 156 704T247 733Q286 733 315 716Z" />
<glyph unicode="g" glyph-name="g" horiz-adv-x="403" d="M318 441T309 400Q335 380 349 352T363 288Q363 234 331 196T244 146Q232 143 220 143Q168 134 140 118T111 82Q111 68 120 59T154 41T229 23Q314 7 350 -22T386 -104Q386 -144 360 -176T288 -227T185
-246Q102 -246 57 -217T11 -134Q11 -97 40 -66T120 -18Q85 -4 70 13T54 55Q54 83 87 106T184 143Q122 149 84 189T45 289Q45 353 89 393T204 434Q260 434 301 407Q326 493 378 493Q397 493 408 483T419 455Q419 441 409 431T385 421Q373 421 360 432Q358 433 352
437T338 441Q318 441 309 400ZM242 152T265 190T289 288Q289 348 266 386T204 424Q166 424 143 386T119 288Q119 228 142 190T204 152Q242 152 265 190ZM328 -96T301 -76T199 -40Q157 -33 130 -22Q59 -47 59 -125Q59 -178 93 -207T191 -236Q254 -236 291 -209T328
-134Q328 -96 301 -76Z" />
<glyph unicode="h" glyph-name="h" horiz-adv-x="453" d="M438 8V0H251V8L312 16V271Q312 312 310 330T302 361Q294 378 276 387T234 397Q182 397 144 354V16L205 8V0H18V8L79 16V653L20 675V682L136 721H144V369Q175 401 208 417T275 434Q305 434 329 421T366
385Q373 372 375 350T377 271V16L438 8Z" />
<glyph unicode="i" glyph-name="i" horiz-adv-x="229" d="M65 599T78 612T113 626Q134 626 147 613T161 578Q161 557 148 544T113 530Q92 530 79 543T65 578Q65 599 78 612ZM151 434H143L27 395V388L86 366V16L25 8V0H212V8L151 16V434Z" />
<glyph unicode="j" glyph-name="j" horiz-adv-x="218" d="M60 599T73 612T108 626Q129 626 142 613T156 578Q156 557 143 544T108 530Q87 530 74 543T60 578Q60 599 73 612ZM81 -167T67 -197T24 -228Q8 -228 0 -220T-13 -188Q-18 -168 -27 -159T-52 -149Q-69 -149
-79 -160T-90 -189Q-90 -215 -69 -231T-13 -247Q29 -247 64 -224T123 -158Q137 -132 141 -95T146 40V434H138L22 395V388L81 366V-102Q81 -167 67 -197Z" />
<glyph unicode="k" glyph-name="k" horiz-adv-x="457" d="M469 8V0H341L172 205L144 171V16L204 8V0H18V8L79 16V653L20 675V682L136 721H144V189L286 360Q304 383 304 392Q304 401 291 406T242 416V424H411V416Q371 409 349 398T306 362L216 256L414 16L469 8Z" />
<glyph unicode="l" glyph-name="l" horiz-adv-x="223" d="M144 721H136L20 682V675L79 653V16L18 8V0H205V8L144 16V721Z" />
<glyph unicode="m" glyph-name="m" horiz-adv-x="652" d="M639 8V0H451V8L512 16V271Q512 310 510 329T503 361Q488 397 443 397Q395 397 362 353Q364 319 364 271V16L426 8V0H237V8L299 16V271Q299 310 297 329T290 361Q275 397 230 397Q183 397 151 356V16L212
8V0H26V8L86 16V366L27 388V395L140 434H148V367Q207 434 271 434Q329 434 353 385Q357 377 360 365Q421 434 484 434Q542 434 566 385Q573 372 575 349T577 271V16L639 8Z" />
<glyph unicode="n" glyph-name="n" horiz-adv-x="462" d="M446 8V0H260V8L321 16V271Q321 310 319 329T311 361Q303 378 285 387T242 397Q191 397 151 354V16L212 8V0H25V8L86 16V361L27 383V390L140 429H148V366Q212 434 282 434Q313 434 338 421T375 385Q382
372 384 350T386 271V16L446 8Z" />
<glyph unicode="o" glyph-name="o" horiz-adv-x="476" d="M296 434T341 406T411 328T436 212Q436 147 411 97T341 18T238 -10Q180 -10 135 18T65 96T40 212Q40 277 65 327T135 406T238 434Q296 434 341 406ZM114 112T147 56T238 0Q296 0 329 56T362 212Q362 312
329 368T238 424Q180 424 147 368T114 212Q114 112 147 56Z" />
<glyph unicode="p" glyph-name="p" horiz-adv-x="472" d="M185 -10T226 -10Q285 -10 332 20T405 103T431 224Q431 284 411 332T355 407T275 434Q236 434 202 415T145 363H141V434H133L20 395V388L79 366V-218L18 -226V-234H234V-227L144 -216V8Q185 -10 226 -10ZM197
0T171 21T144 71V344Q156 372 181 388T237 404Q292 404 325 351T358 210Q358 150 342 102T298 27T233 0Q197 0 171 21Z" />
<glyph unicode="q" glyph-name="q" horiz-adv-x="467" d="M240 -234H456V-226L395 -218V424H384L357 397H353Q303 434 243 434Q186 434 140 403T67 319T40 198Q40 138 61 91T121 17T207 -10Q280 -10 330 49V-216L240 -227V-234ZM286 424T308 398T330 323V62Q314
42 290 31T240 20Q182 20 148 72T114 216Q114 311 150 367T246 424Q286 424 308 398Z" />
<glyph unicode="r" glyph-name="r" horiz-adv-x="315" d="M273 434T287 421T301 388Q301 372 290 361T263 350Q253 350 247 354T233 368Q226 376 221 380T207 384Q191 384 175 365T151 321V16L231 8V0H25V8L86 16V366L27 388V395L140 434H148V346Q204 434 253
434Q273 434 287 421Z" />
<glyph unicode="s" glyph-name="s" horiz-adv-x="344" d="M125 434T87 403T48 316Q48 281 62 258T96 222T151 191Q197 169 220 148T243 86Q243 48 221 25T162 1Q121 1 96 34T60 138H48L53 8Q74 0 104 -5T158 -10Q224 -10 263 25T302 122Q302 159 288 183T253 220T197
250Q152 271 130 290T108 348Q108 382 128 402T181 423Q217 423 238 396T274 309H285V420Q269 426 244 430T195 434Q125 434 87 403Z" />
<glyph unicode="t" glyph-name="t" horiz-adv-x="268" d="M24 414L26 409H73V89Q73 58 80 39T104 8Q129 -10 161 -10Q192 -10 219 8T262 57L258 60Q240 42 225 34T194 26Q161 26 149 50Q138 67 138 102V408H246L252 424H138V519L134 520L24 414Z" />
<glyph unicode="u" glyph-name="u" horiz-adv-x="443" d="M421 50V45L312 -5H306V63L303 64Q244 -10 176 -10Q145 -10 121 3T86 39Q79 52 77 74T75 153V408L15 416V424H140V153Q140 113 142 95T150 63Q157 47 173 38T211 28Q236 28 259 40T301 77V408L241 416V424H366V62L421
50Z" />
<glyph unicode="v" glyph-name="v" horiz-adv-x="446" d="M364 363Q372 388 392 399T458 416V424H279V416Q319 410 334 403T349 379Q349 368 343 348L253 78H249L145 373Q138 393 138 399Q138 407 148 410T195 416V424H2V416Q36 414 49 406T72 374L219 -3H239L364 363Z" />
<glyph unicode="w" glyph-name="w" horiz-adv-x="619" d="M631 424V416Q587 409 569 396T540 347L426 -3H415L311 302L211 -3H200L65 382Q61 395 56 401T41 410T5 416V424H184V416Q154 414 145 410T135 396Q135 389 141 372L228 106H232L303 324L285 377Q278 396
268 404T230 416V424H399V416Q369 414 360 410T350 396Q350 389 356 372L444 106H448L525 348Q531 368 531 379Q531 395 518 402T470 416V424H631Z" />
<glyph unicode="x" glyph-name="x" horiz-adv-x="460" d="M400 25T413 19T458 8V0H273V8Q302 11 311 14T320 24Q320 32 308 51L216 191L122 65Q108 46 108 36Q108 26 120 20T166 8V0H1V8Q41 15 62 26T102 62L208 202L89 382Q78 399 64 405T19 416V424H204V416Q175
413 166 410T157 400Q157 392 169 373L245 258L322 359Q336 378 336 388Q336 398 324 404T278 416V424H443V416Q403 409 382 398T342 362L253 246L389 42Q400 25 413 19Z" />
<glyph unicode="y" glyph-name="y" horiz-adv-x="452" d="M141 373Q134 393 134 399Q134 407 144 410T191 416V424H-2V416Q32 414 44 408T65 382L219 -18L180 -137Q167 -176 156 -192T132 -209Q123 -209 119 -203T110 -182Q105 -164 97 -154T70 -144Q50 -144 39
-156T27 -188Q27 -213 46 -229T93 -246Q127 -246 153 -217Q174 -197 191 -144L358 347Q369 381 389 395T457 416V424H278V416Q318 410 333 403T348 379Q348 368 342 348L251 73H247L141 373Z" />
<glyph unicode="z" glyph-name="z" horiz-adv-x="388" d="M48 278L63 277Q73 328 97 394L103 410H279L31 22V0H338L344 154L330 155Q313 90 292 33L285 15H99L349 402V424H57L48 278Z" />
<glyph unicode="{" glyph-name="braceleft" horiz-adv-x="305" d="M144 314T167 341T190 415Q190 452 173 514Q164 549 160 575T155 629Q155 679 173 704T226 730Q246 730 275 722L278 733Q240 744 208 744Q150 744 117 713T84 625Q84 604 89 577T100 523Q110
483 115 454T120 395Q120 344 99 325T24 305V295Q78 295 99 274T120 196Q120 163 115 130T100 52Q94 23 89 -5T84 -54Q84 -111 116 -142T208 -174Q240 -174 278 -163L275 -152Q246 -160 226 -160Q155 -160 155 -58Q155 -29 159 -1T173 65Q190 137 190 175Q190 226
167 255T93 298V302Q144 314 167 341Z" />
<glyph unicode="|" glyph-name="bar" horiz-adv-x="208" d="M93 -135H115V690H93V-135Z" />
<glyph unicode="}" glyph-name="braceright" horiz-adv-x="305" d="M162 285T139 256T115 175Q115 137 132 65Q141 27 145 -1T150 -58Q150 -160 79 -160Q64 -160 30 -152L27 -163Q65 -174 97 -174Q156 -174 188 -143T221 -54Q221 -34 216 -6T205 52Q195 96 190
129T185 196Q185 252 206 273T281 295V305Q227 305 206 324T185 395Q185 425 190 454T205 523Q211 550 216 577T221 625Q221 681 188 712T97 744Q65 744 27 733L30 722Q64 730 79 730Q114 730 132 705T150 629Q150 602 146 576T132 514Q115 452 115 415Q115 368
138 341T212 302V298Q162 285 139 256Z" />
<glyph unicode="~" glyph-name="asciitilde" horiz-adv-x="444" d="M82 244T93 253T122 262Q141 262 161 258T212 244Q274 226 302 226Q334 226 353 250T372 316H367Q359 280 325 280Q294 280 235 297Q211 303 187 308T146 313Q114 313 95 290T76 227H80Q82 244 93 253Z" />
<glyph unicode="&#xa0;" glyph-name="uni00A0" horiz-adv-x="240" />
<glyph unicode="&#xa1;" glyph-name="exclamdown" horiz-adv-x="212" d="M154 407T141 394T106 380Q85 380 72 393T58 428Q58 449 71 462T106 476Q127 476 140 463T154 428Q154 407 141 394ZM116 196Q122 66 128 5Q145 -165 145 -197Q145 -220 135 -233T106 -246Q87
-246 77 -234T67 -200Q67 -185 74 -110Q82 -28 84 1Q92 96 101 296H111L116 196Z" />
<glyph unicode="&#xa2;" glyph-name="cent" horiz-adv-x="437" d="M395 112L391 101Q373 52 337 24T251 -9V-135H229V-10Q178 -9 138 19T75 96T52 207Q52 268 74 317T137 397T229 433V570H251V434Q307 434 345 409T383 347Q383 330 373 320T346 309Q326 309 318
322T305 361Q298 391 288 406T251 424V39H261Q298 39 327 54T382 102L391 114L395 112ZM119 147T147 100T229 42V422Q181 413 150 358T119 222Q119 147 147 100Z" />
<glyph unicode="&#xa3;" glyph-name="sterling" horiz-adv-x="627" d="M413 693T400 673T372 593T329 392L321 354H507L502 332H317Q297 233 286 198T242 95Q331 53 408 53Q466 53 502 77T548 148H553Q553 77 516 35T415 -8Q369 -8 321 15T233 80Q199 31 172 11T109
-9Q74 -9 53 8T32 55Q32 89 59 111T130 134Q156 134 188 126Q198 166 207 210T231 332H141L146 354H235L239 375Q252 440 252 440Q277 572 325 639T441 706Q473 706 502 693T550 659T568 615Q568 598 558 588T532 577Q513 577 505 590T488 632Q479 662 469 677T435
693Q413 693 400 673ZM133 3T151 27T186 113Q157 122 132 122Q94 122 70 103T46 55Q46 31 61 17T103 3Q133 3 151 27Z" />
<glyph unicode="&#xa4;" glyph-name="currency" horiz-adv-x="588" d="M492 309T479 276T441 215L512 144L497 129L426 200Q399 176 366 163T294 149Q256 149 223 162T162 200L91 129L76 144L147 215Q123 242 110 275T96 347Q96 385 109 418T147 479L75 551L90
566L162 494Q189 518 222 531T294 545Q332 545 365 532T426 494L498 566L513 551L441 479Q465 452 478 419T492 347Q492 309 479 276ZM115 298T139 257T204 192T294 168Q343 168 384 192T449 257T473 347Q473 395 449 436T384 501T294 525Q245 525 204 501T139
436T115 347Q115 298 139 257Z" />
<glyph unicode="&#xa5;" glyph-name="yen" horiz-adv-x="721" d="M690 690V682L634 677Q610 675 601 668T580 637L416 295H549L544 273H406V178H549L544 156H406V16L493 8V0H242V8L329 16V156H183L188 178H329V269L327 273H183L188 295H315L112 674L30 682V690H279V682L192
674L395 295H400L564 637Q568 646 568 656Q568 666 561 671T538 677L477 682V690H690Z" />
<glyph unicode="&#xa6;" glyph-name="brokenbar" horiz-adv-x="210" d="M94 329H116V690H94V329ZM94 -135H116V226H94V-135Z" />
<glyph unicode="&#xa7;" glyph-name="section" horiz-adv-x="491" d="M416 100T416 24Q416 -25 392 -65T324 -129T230 -153Q187 -153 147 -140T83 -104T58 -58Q58 -43 68 -33T93 -23Q109 -23 118 -33T141 -68Q158 -103 178 -122T240 -141Q290 -141 321 -108T353
-23Q353 17 334 44T285 89T208 128Q157 152 127 170T77 217T56 290Q56 342 87 381T171 437Q128 462 104 494T80 576Q80 621 102 657T164 713T252 734Q294 734 333 721T396 685T420 639Q420 624 410 614T385 604Q370 604 360 615T337 650Q318 685 299 703T241 722Q198
722 172 694T146 621Q146 585 164 560T210 517T285 475Q336 449 366 430T418 379T440 302Q440 254 415 213T345 148Q416 100 416 24ZM121 301T139 277T184 236T257 197Q314 169 334 156Q377 193 377 254Q377 293 358 320T310 366T233 406L187 429Q157 418 139 393T121
334Q121 301 139 277Z" />
<glyph unicode="&#xa8;" glyph-name="dieresis" horiz-adv-x="343" d="M45 591T57 603T88 616Q107 616 119 604T131 573Q131 555 119 543T88 530Q69 530 57 542T45 573Q45 591 57 603ZM212 591T224 603T255 616Q274 616 286 604T298 573Q298 555 286 543T255 530Q236
530 224 542T212 573Q212 591 224 603Z" />
<glyph unicode="&#xa9;" glyph-name="copyright" horiz-adv-x="808" d="M53 439T100 521T228 651T404 700Q499 700 579 652T707 521T755 344Q755 249 708 168T580 38T404 -10Q309 -10 229 38T101 167T53 344Q53 439 100 521ZM69 252T113 175T235 52T404 6Q495
6 572 51T694 174T739 344Q739 435 694 513T571 637T404 684Q312 684 236 638T114 514T69 344Q69 252 113 175ZM487 137T458 125T399 113Q330 113 292 174T254 345Q254 456 291 517T399 578Q439 578 471 561T524 513Q545 479 554 426L566 429L559 582H548L532 549Q493
571 461 580T397 590Q338 590 289 558T210 469T181 345Q181 277 210 221T289 133T399 100Q432 100 467 113T534 148L557 111H568V267L557 268Q539 193 507 157Q487 137 458 125Z" />
<glyph unicode="&#xaa;" glyph-name="ordfeminine" horiz-adv-x="334" d="M88 530T68 548T48 597Q48 631 80 651T191 689V749Q191 787 183 801T155 816Q135 816 122 806T108 779Q108 774 109 770T110 759Q110 743 103 733T84 723Q74 723 68 730T61 747Q61 764
77 783T118 816Q131 823 150 828T186 834Q207 834 223 825T246 804Q250 795 250 779T251 732V601Q251 581 255 571T272 561Q282 561 289 572L294 567Q286 551 272 542T241 533Q222 533 209 544T195 572L192 573Q177 554 157 542T116 530Q88 530 68 548ZM161 560T173
567T191 589V679Q144 665 127 651T110 610Q110 588 120 574T148 560Q161 560 173 567Z" />
<glyph unicode="&#xab;" glyph-name="guillemotleft" horiz-adv-x="373" d="M112 210L199 388L196 390L49 212V207L198 27L202 30L112 210ZM230 210L317 388L314 390L167 212V207L316 27L320 30L230 210Z" />
<glyph unicode="&#xac;" glyph-name="logicalnot" horiz-adv-x="459" d="M387 370V217H365V348H77V370H387Z" />
<glyph unicode="&#xad;" glyph-name="uni00AD" horiz-adv-x="356" d="M285 216L292 238H72L65 216H285Z" />
<glyph unicode="&#xae;" glyph-name="registered" horiz-adv-x="808" d="M499 700T579 652T707 521T755 344Q755 249 708 168T580 38T404 -10Q309 -10 229 38T101 167T53 344Q53 439 100 521T228 651T404 700Q499 700 579 652ZM495 6T572 51T694 174T739 344Q739
435 694 513T571 637T404 684Q312 684 236 638T114 514T69 344Q69 252 113 175T235 52T404 6Q495 6 572 51ZM578 124T586 120T612 115H622V107H542Q525 107 517 112T500 131L394 301Q384 317 378 321T354 325H332V120L392 115V107H222V115L272 120V571L222 576V584H397Q479
584 522 551T565 456Q565 404 535 372T446 331L569 138Q578 124 586 120ZM332 574V337H395Q451 337 477 365T504 455Q504 516 477 545T395 574H332Z" />
<glyph unicode="&#xaf;" glyph-name="overscore" horiz-adv-x="290" d="M245 553V575H45V553H245Z" />
<glyph unicode="&#xb0;" glyph-name="degree" horiz-adv-x="341" d="M45 653T79 617T170 581Q226 581 260 617T295 709Q295 765 261 801T171 837Q116 837 81 801T45 708Q45 653 79 617ZM63 756T93 787T170 818Q216 818 246 787T276 709Q276 662 246 631T170 599Q124
599 94 630T63 709Q63 756 93 787Z" />
<glyph unicode="&#xb1;" glyph-name="plusminus" horiz-adv-x="502" d="M421 403H262V244H240V403H81V425H240V584H262V425H421V403ZM401 109V131H101V109H401Z" />
<glyph unicode="&#xb2;" glyph-name="uni00B2" horiz-adv-x="267" d="M24 540L71 586Q163 677 163 757Q163 791 148 810T105 829Q85 829 68 818T41 785L33 789Q45 818 70 836T124 854Q168 854 196 830T225 767Q225 749 218 733T190 693T125 625L86 586H190Q204
586 210 590T219 606L226 634L233 633L221 536H25L24 540Z" />
<glyph unicode="&#xb3;" glyph-name="uni00B3" horiz-adv-x="256" d="M148 726T148 783Q148 805 137 817T107 830Q69 830 48 781L40 785Q67 855 142 855Q168 855 185 839T203 797Q203 773 186 751T140 719V715Q176 714 200 690T224 630Q224 589 191 560T111 530Q77
530 53 546T28 586Q28 596 33 602T48 608Q57 608 62 602T77 572Q84 552 89 546T108 540Q137 540 152 559T168 613Q168 650 152 672T110 695Q98 695 84 691L80 699Q148 726 148 783Z" />
<glyph unicode="&#xb4;" glyph-name="acute" horiz-adv-x="194" d="M48 523L113 605L127 623Q140 638 144 645T149 660Q149 673 142 682T121 691Q97 691 90 670L45 524L48 523Z" />
<glyph unicode="&#xb5;" glyph-name="uni00B5" horiz-adv-x="491" d="M448 50V45L339 -5H333V63L330 64Q271 -10 204 -10Q141 -10 118 51L113 49Q113 -17 119 -57T137 -140Q145 -167 145 -180Q145 -197 137 -206T115 -216Q100 -216 94 -204T87 -162Q87 -138 92
-68Q93 -53 97 19T102 153V408L42 416V424H167V153Q167 112 169 94T177 63Q194 28 238 28Q263 28 286 40T328 77V408L268 416V424H393V62L448 50Z" />
<glyph unicode="&#xb6;" glyph-name="paragraph" horiz-adv-x="473" d="M273 299H222Q166 299 124 325T58 395T34 493Q34 583 90 636T245 690H433V681L357 674V-108H335V676H295V-108H273V299Z" />
<glyph unicode="&#xb7;" glyph-name="middot" horiz-adv-x="233" d="M65 260T79 274T117 289Q140 289 154 275T168 238Q168 216 154 201T117 186Q94 186 80 201T65 238Q65 260 79 274Z" />
<glyph unicode="&#xb8;" glyph-name="cedilla" horiz-adv-x="271" d="M56 -215T75 -220T118 -226Q164 -226 195 -203T226 -144Q226 -112 200 -92T131 -72Q113 -72 104 -74L136 1H124L69 -127L72 -130Q87 -124 110 -124Q136 -124 151 -135T167 -166Q167 -187 148
-199T97 -212Q69 -212 47 -202L45 -205Q56 -215 75 -220Z" />
<glyph unicode="&#xb9;" glyph-name="uni00B9" horiz-adv-x="191" d="M29 544V536H168V544L127 548V857L122 858Q104 836 84 826T29 811V806H75V548L29 544Z" />
<glyph unicode="&#xba;" glyph-name="ordmasculine" horiz-adv-x="362" d="M241 834T279 792T317 682Q317 614 279 572T181 529Q121 529 83 571T45 682Q45 749 83 791T181 834Q241 834 279 792ZM106 614T125 577T181 539Q216 539 236 577T256 682Q256 749 236
786T181 824Q145 824 126 787T106 682Q106 614 125 577Z" />
<glyph unicode="&#xbb;" glyph-name="guillemotright" horiz-adv-x="373" d="M206 207V212L59 390L56 388L143 210L53 30L57 27L206 207ZM324 207V212L177 390L174 388L261 210L171 30L175 27L324 207Z" />
<glyph unicode="&#xbc;" glyph-name="onequarter" horiz-adv-x="519" d="M63 -2H88L445 690H420L63 -2ZM51 390V382H190V390L149 394V703L144 704Q126 682 106 672T51 657V652H97V394L51 390ZM245 73L244 76L423 322L432 321V111H471V73H432V12L471 8V0H334V8L380
12V73H245ZM376 244L281 113L282 110H380V244H376Z" />
<glyph unicode="&#xbd;" glyph-name="onehalf" horiz-adv-x="538" d="M63 -2H88L445 690H420L63 -2ZM51 390V382H190V390L149 394V703L144 704Q126 682 106 672T51 657V652H97V394L51 390ZM282 4L329 50Q421 141 421 221Q421 255 406 274T363 293Q343 293 326
282T299 249L291 253Q304 284 328 301T386 318Q427 318 455 293T483 231Q483 213 476 197T448 157T383 89L344 50H448Q462 50 468 54T477 70L484 98L491 97L479 0H283L282 4Z" />
<glyph unicode="&#xbe;" glyph-name="threequarters" horiz-adv-x="542" d="M106 -2H131L488 690H463L106 -2ZM258 73L257 76L436 322L445 321V111H484V73H445V12L484 8V0H347V8L393 12V73H258ZM389 244L294 113L295 110H393V244H389ZM164 571T164 628Q164 650
153 662T123 675Q85 675 64 626L56 630Q83 700 158 700Q185 700 202 685T219 645Q219 619 202 597T156 564V560Q192 559 216 535T240 475Q240 434 207 405T127 375Q93 375 69 391T44 431Q44 441 49 447T64 453Q73 453 78 447T93 417Q100 397 105 391T124 385Q151
385 165 404T179 458Q179 495 164 517T126 540Q114 540 100 536L96 544Q164 571 164 628Z" />
<glyph unicode="&#xbf;" glyph-name="questiondown" horiz-adv-x="352" d="M298 407T285 394T250 380Q229 380 216 393T202 428Q202 449 215 462T250 476Q271 476 284 463T298 428Q298 407 285 394ZM233 144L207 143Q130 140 86 100T42 -9Q42 -66 71 -121T147
-211T241 -246Q285 -246 285 -214Q285 -189 260 -172T185 -135Q143 -118 118 -105T74 -70T56 -19Q56 24 98 44T232 64H259L251 296H241L233 144Z" />
<glyph unicode="&#xc0;" glyph-name="Agrave" horiz-adv-x="658" d="M673 8V0H428V8L510 18L416 274H174L91 53Q87 42 87 35Q87 24 93 20T117 13L178 8V0H-35V8L21 13Q46 15 56 23T75 53L320 706H338L590 18L673 8ZM410 290L298 595H294L180 290H410ZM330 793L265
875L251 893Q238 908 234 915T229 930Q229 943 236 952T257 961Q281 961 288 940L333 794L330 793Z" />
<glyph unicode="&#xc1;" glyph-name="Aacute" horiz-adv-x="658" d="M673 8V0H428V8L510 18L416 274H174L91 53Q87 42 87 35Q87 24 93 20T117 13L178 8V0H-35V8L21 13Q46 15 56 23T75 53L320 706H338L590 18L673 8ZM410 290L298 595H294L180 290H410ZM320 793L385
875L399 893Q412 908 416 915T421 930Q421 943 414 952T393 961Q369 961 362 940L317 794L320 793Z" />
<glyph unicode="&#xc2;" glyph-name="Acircumflex" horiz-adv-x="658" d="M673 8V0H428V8L510 18L416 274H174L91 53Q87 42 87 35Q87 24 93 20T117 13L178 8V0H-35V8L21 13Q46 15 56 23T75 53L320 706H338L590 18L673 8ZM410 290L298 595H294L180 290H410ZM425
793L332 899L239 793L236 794L301 940Q310 961 332 961Q353 961 363 940L428 794L425 793Z" />
<glyph unicode="&#xc3;" glyph-name="Atilde" horiz-adv-x="658" d="M673 8V0H428V8L510 18L416 274H174L91 53Q87 42 87 35Q87 24 93 20T117 13L178 8V0H-35V8L21 13Q46 15 56 23T75 53L320 706H338L590 18L673 8ZM410 290L298 595H294L180 290H410ZM213 818T224
827T253 836Q274 836 318 818Q335 811 352 806T383 800Q415 800 434 824T453 890H448Q440 854 406 854Q384 854 341 871Q295 887 277 887Q245 887 226 864T207 801H211Q213 818 224 827Z" />
<glyph unicode="&#xc4;" glyph-name="Adieresis" horiz-adv-x="658" d="M673 8V0H428V8L510 18L416 274H174L91 53Q87 42 87 35Q87 24 93 20T117 13L178 8V0H-35V8L21 13Q46 15 56 23T75 53L320 706H338L590 18L673 8ZM410 290L298 595H294L180 290H410ZM205 861T217
873T248 886Q267 886 279 874T291 843Q291 825 279 813T248 800Q229 800 217 812T205 843Q205 861 217 873ZM372 861T384 873T415 886Q434 886 446 874T458 843Q458 825 446 813T415 800Q396 800 384 812T372 843Q372 861 384 873Z" />
<glyph unicode="&#xc5;" glyph-name="Aring" horiz-adv-x="658" d="M673 8V0H428V8L510 18L416 274H174L91 53Q87 42 87 35Q87 24 93 20T117 13L178 8V0H-35V8L21 13Q46 15 56 23T75 53L320 706H338L590 18L673 8ZM410 290L298 595H294L180 290H410ZM266 836T283
818T329 800Q357 800 374 818T392 863Q392 890 375 908T329 926Q301 926 284 908T266 863Q266 836 283 818ZM278 885T292 899T329 913Q351 913 365 899T379 863Q379 841 365 827T329 812Q306 812 292 826T278 863Q278 885 292 899Z" />
<glyph unicode="&#xc6;" glyph-name="AE" horiz-adv-x="851" d="M792 210L767 0H337V8L419 16V274H227L98 53Q89 39 89 29Q89 21 94 18T114 13L174 8L172 0H-40L-38 8L19 13Q44 15 56 22T82 53L419 627V674L337 682V690H768L782 502L772 501L716 641Q707 664 697
671T662 678H496V371H585Q609 371 619 379T633 410L650 491H662V235H650L633 316Q629 339 619 347T585 355H496V12H660Q684 12 695 19T715 49L781 211L792 210ZM419 290V595H415L237 290H419Z" />
<glyph unicode="&#xc7;" glyph-name="Ccedilla" horiz-adv-x="676" d="M497 36T455 17T367 -2Q262 -2 205 88T148 345Q148 512 205 603T368 694Q426 694 474 668T552 592Q582 542 596 465L610 469L600 694H587L563 646Q505 677 458 691T365 706Q279 706 207 658T94
527T52 345Q52 245 93 163T207 32T367 -16Q416 -16 468 3T566 55L600 0H613V230L600 232Q575 123 526 68Q497 36 455 17ZM289 -219T308 -224T351 -230Q397 -230 428 -207T459 -148Q459 -116 433 -96T364 -76Q346 -76 337 -78L369 -3H357L302 -131L305 -134Q320
-128 343 -128Q369 -128 384 -139T400 -170Q400 -191 381 -203T330 -216Q302 -216 280 -206L278 -209Q289 -219 308 -224Z" />
<glyph unicode="&#xc8;" glyph-name="Egrave" horiz-adv-x="614" d="M555 210L530 0H40V8L122 16V674L40 682V690H531L545 502L535 501L479 641Q470 664 460 671T425 678H199V371H347Q371 371 381 379T395 410L412 491H424V235H412L395 316Q391 339 381 347T347
355H199V12H423Q447 12 458 19T478 49L544 211L555 210ZM354 793L289 875L275 893Q262 908 258 915T253 930Q253 943 260 952T281 961Q305 961 312 940L357 794L354 793Z" />
<glyph unicode="&#xc9;" glyph-name="Eacute" horiz-adv-x="614" d="M555 210L530 0H40V8L122 16V674L40 682V690H531L545 502L535 501L479 641Q470 664 460 671T425 678H199V371H347Q371 371 381 379T395 410L412 491H424V235H412L395 316Q391 339 381 347T347
355H199V12H423Q447 12 458 19T478 49L544 211L555 210ZM284 793L349 875L363 893Q376 908 380 915T385 930Q385 943 378 952T357 961Q333 961 326 940L281 794L284 793Z" />
<glyph unicode="&#xca;" glyph-name="Ecircumflex" horiz-adv-x="614" d="M555 210L530 0H40V8L122 16V674L40 682V690H531L545 502L535 501L479 641Q470 664 460 671T425 678H199V371H347Q371 371 381 379T395 410L412 491H424V235H412L395 316Q391 339 381 347T347
355H199V12H423Q447 12 458 19T478 49L544 211L555 210ZM407 793L314 899L221 793L218 794L283 940Q292 961 314 961Q335 961 345 940L410 794L407 793Z" />
<glyph unicode="&#xcb;" glyph-name="Edieresis" horiz-adv-x="614" d="M555 210L530 0H40V8L122 16V674L40 682V690H531L545 502L535 501L479 641Q470 664 460 671T425 678H199V371H347Q371 371 381 379T395 410L412 491H424V235H412L395 316Q391 339 381 347T347
355H199V12H423Q447 12 458 19T478 49L544 211L555 210ZM188 861T200 873T231 886Q250 886 262 874T274 843Q274 825 262 813T231 800Q212 800 200 812T188 843Q188 861 200 873ZM355 861T367 873T398 886Q417 886 429 874T441 843Q441 825 429 813T398 800Q379
800 367 812T355 843Q355 861 367 873Z" />
<glyph unicode="&#xcc;" glyph-name="Igrave" horiz-adv-x="321" d="M40 690H281V682L199 674V16L281 8V0H40V8L122 16V674L40 682V690ZM180 793L115 875L101 893Q88 908 84 915T79 930Q79 943 86 952T107 961Q131 961 138 940L183 794L180 793Z" />
<glyph unicode="&#xcd;" glyph-name="Iacute" horiz-adv-x="321" d="M40 690H281V682L199 674V16L281 8V0H40V8L122 16V674L40 682V690ZM142 793L207 875L221 893Q234 908 238 915T243 930Q243 943 236 952T215 961Q191 961 184 940L139 794L142 793Z" />
<glyph unicode="&#xce;" glyph-name="Icircumflex" horiz-adv-x="321" d="M40 690H281V682L199 674V16L281 8V0H40V8L122 16V674L40 682V690ZM254 793L161 899L68 793L65 794L130 940Q139 961 161 961Q182 961 192 940L257 794L254 793Z" />
<glyph unicode="&#xcf;" glyph-name="Idieresis" horiz-adv-x="321" d="M40 690H281V682L199 674V16L281 8V0H40V8L122 16V674L40 682V690ZM35 861T47 873T78 886Q97 886 109 874T121 843Q121 825 109 813T78 800Q59 800 47 812T35 843Q35 861 47 873ZM202 861T214
873T245 886Q264 886 276 874T288 843Q288 825 276 813T245 800Q226 800 214 812T202 843Q202 861 214 873Z" />
<glyph unicode="&#xd0;" glyph-name="Eth" horiz-adv-x="715" d="M591 594T625 519T659 349Q659 254 625 176T530 54Q491 26 441 13T317 0H51V8L133 16V341H51V363H133V674L51 682V690H317Q453 690 530 637Q591 594 625 519ZM526 112T544 187T563 354Q563 443
546 511T494 619Q466 652 425 665T308 678H210V363H335V341H210V12H308Q388 12 428 25T494 71Q526 112 544 187Z" />
<glyph unicode="&#xd1;" glyph-name="Ntilde" horiz-adv-x="734" d="M718 690V682L646 674Q622 671 614 662T606 629V-16H596L147 621H143V61Q143 37 149 28T173 16L244 8V0H25V8L97 16Q115 18 121 27T127 61V643L123 649Q109 669 97 675T60 682H43V690H192L586
138H590V629Q590 653 584 663T560 674L479 682V690H718ZM265 818T276 827T305 836Q326 836 370 818Q387 811 404 806T435 800Q467 800 486 824T505 890H500Q492 854 458 854Q436 854 393 871Q347 887 329 887Q297 887 278 864T259 801H263Q265 818 276 827Z" />
<glyph unicode="&#xd2;" glyph-name="Ograve" horiz-adv-x="734" d="M454 706T526 658T640 528T682 345Q682 245 641 163T527 32T367 -16Q280 -16 208 32T94 162T52 345Q52 445 93 527T207 658T367 706Q454 706 526 658ZM148 178T205 88T367 -3Q472 -3 529 87T586
345Q586 512 529 603T367 694Q262 694 205 603T148 345Q148 178 205 88ZM378 793L313 875L299 893Q286 908 282 915T277 930Q277 943 284 952T305 961Q329 961 336 940L381 794L378 793Z" />
<glyph unicode="&#xd3;" glyph-name="Oacute" horiz-adv-x="734" d="M454 706T526 658T640 528T682 345Q682 245 641 163T527 32T367 -16Q280 -16 208 32T94 162T52 345Q52 445 93 527T207 658T367 706Q454 706 526 658ZM148 178T205 88T367 -3Q472 -3 529 87T586
345Q586 512 529 603T367 694Q262 694 205 603T148 345Q148 178 205 88ZM360 793L425 875L439 893Q452 908 456 915T461 930Q461 943 454 952T433 961Q409 961 402 940L357 794L360 793Z" />
<glyph unicode="&#xd4;" glyph-name="Ocircumflex" horiz-adv-x="734" d="M454 706T526 658T640 528T682 345Q682 245 641 163T527 32T367 -16Q280 -16 208 32T94 162T52 345Q52 445 93 527T207 658T367 706Q454 706 526 658ZM148 178T205 88T367 -3Q472 -3 529
87T586 345Q586 512 529 603T367 694Q262 694 205 603T148 345Q148 178 205 88ZM462 793L369 899L276 793L273 794L338 940Q347 961 369 961Q390 961 400 940L465 794L462 793Z" />
<glyph unicode="&#xd5;" glyph-name="Otilde" horiz-adv-x="734" d="M454 706T526 658T640 528T682 345Q682 245 641 163T527 32T367 -16Q280 -16 208 32T94 162T52 345Q52 445 93 527T207 658T367 706Q454 706 526 658ZM148 178T205 88T367 -3Q472 -3 529 87T586
345Q586 512 529 603T367 694Q262 694 205 603T148 345Q148 178 205 88ZM252 818T263 827T292 836Q313 836 357 818Q374 811 391 806T422 800Q454 800 473 824T492 890H487Q479 854 445 854Q423 854 380 871Q334 887 316 887Q284 887 265 864T246 801H250Q252 818
263 827Z" />
<glyph unicode="&#xd6;" glyph-name="Odieresis" horiz-adv-x="734" d="M454 706T526 658T640 528T682 345Q682 245 641 163T527 32T367 -16Q280 -16 208 32T94 162T52 345Q52 445 93 527T207 658T367 706Q454 706 526 658ZM148 178T205 88T367 -3Q472 -3 529
87T586 345Q586 512 529 603T367 694Q262 694 205 603T148 345Q148 178 205 88ZM243 861T255 873T286 886Q305 886 317 874T329 843Q329 825 317 813T286 800Q267 800 255 812T243 843Q243 861 255 873ZM410 861T422 873T453 886Q472 886 484 874T496 843Q496 825
484 813T453 800Q434 800 422 812T410 843Q410 861 422 873Z" />
<glyph unicode="&#xd7;" glyph-name="multiply" horiz-adv-x="466" d="M366 198L233 331L100 198L85 212L219 346L86 478L101 492L233 360L365 492L380 478L248 346L381 212L366 198Z" />
<glyph unicode="&#xd8;" glyph-name="Oslash" horiz-adv-x="734" d="M603 605T642 524T682 345Q682 245 641 163T527 32T367 -16Q284 -16 216 27L164 -75H141L199 38Q131 86 92 167T52 345Q52 445 93 527T207 658T367 706Q449 706 517 664L561 750H584L534 653Q603
605 642 524ZM148 163T216 72L503 637Q449 694 367 694Q262 694 205 603T148 345Q148 163 216 72ZM472 -3T529 87T586 345Q586 527 518 620L230 55Q283 -3 367 -3Q472 -3 529 87Z" />
<glyph unicode="&#xd9;" glyph-name="Ugrave" horiz-adv-x="665" d="M536 653T530 662T506 674L435 682V690H654V682L582 674Q564 671 558 662T552 629V245Q552 182 543 140T513 68Q486 29 439 7T335 -16Q289 -16 244 -1T169 40Q138 67 125 109T112 225V674L30
682V690H276V682L189 674V192Q189 119 202 80T248 22Q265 12 290 6T342 0Q392 0 434 20T501 77Q520 105 528 142T536 240V629Q536 653 530 662ZM356 793L291 875L277 893Q264 908 260 915T255 930Q255 943 262 952T283 961Q307 961 314 940L359 794L356 793Z" />
<glyph unicode="&#xda;" glyph-name="Uacute" horiz-adv-x="665" d="M536 653T530 662T506 674L435 682V690H654V682L582 674Q564 671 558 662T552 629V245Q552 182 543 140T513 68Q486 29 439 7T335 -16Q289 -16 244 -1T169 40Q138 67 125 109T112 225V674L30
682V690H276V682L189 674V192Q189 119 202 80T248 22Q265 12 290 6T342 0Q392 0 434 20T501 77Q520 105 528 142T536 240V629Q536 653 530 662ZM363 793L428 875L442 893Q455 908 459 915T464 930Q464 943 457 952T436 961Q412 961 405 940L360 794L363 793Z" />
<glyph unicode="&#xdb;" glyph-name="Ucircumflex" horiz-adv-x="665" d="M536 653T530 662T506 674L435 682V690H654V682L582 674Q564 671 558 662T552 629V245Q552 182 543 140T513 68Q486 29 439 7T335 -16Q289 -16 244 -1T169 40Q138 67 125 109T112 225V674L30
682V690H276V682L189 674V192Q189 119 202 80T248 22Q265 12 290 6T342 0Q392 0 434 20T501 77Q520 105 528 142T536 240V629Q536 653 530 662ZM445 793L352 899L259 793L256 794L321 940Q330 961 352 961Q373 961 383 940L448 794L445 793Z" />
<glyph unicode="&#xdc;" glyph-name="Udieresis" horiz-adv-x="665" d="M536 653T530 662T506 674L435 682V690H654V682L582 674Q564 671 558 662T552 629V245Q552 182 543 140T513 68Q486 29 439 7T335 -16Q289 -16 244 -1T169 40Q138 67 125 109T112 225V674L30
682V690H276V682L189 674V192Q189 119 202 80T248 22Q265 12 290 6T342 0Q392 0 434 20T501 77Q520 105 528 142T536 240V629Q536 653 530 662ZM228 861T240 873T271 886Q290 886 302 874T314 843Q314 825 302 813T271 800Q252 800 240 812T228 843Q228 861 240
873ZM395 861T407 873T438 886Q457 886 469 874T481 843Q481 825 469 813T438 800Q419 800 407 812T395 843Q395 861 407 873Z" />
<glyph unicode="&#xdd;" glyph-name="Yacute" horiz-adv-x="612" d="M634 690V682L578 677Q554 675 545 668T524 637L350 274V16L437 8V0H186V8L273 16V269L56 674L-26 682V690H223V682L136 674L339 295H344L508 637Q512 646 512 656Q512 666 505 671T482 677L421
682V690H634ZM324 793L389 875L403 893Q416 908 420 915T425 930Q425 943 418 952T397 961Q373 961 366 940L321 794L324 793Z" />
<glyph unicode="&#xde;" glyph-name="Thorn" horiz-adv-x="571" d="M199 159V16L297 8V0H40V8L122 16V674L40 682V690H297V682L199 674V549H293Q410 549 472 499T535 358Q535 261 473 210T293 159H199ZM199 537V171H290Q371 171 408 217T445 363Q445 446 412 491T290
537H199Z" />
<glyph unicode="&#xdf;" glyph-name="germandbls" horiz-adv-x="504" d="M307 733T344 704T381 625Q381 588 362 565T307 514Q272 487 256 467T239 416Q239 379 263 357T339 308Q383 285 410 266T456 214T475 134Q475 68 435 29T327 -10Q301 -10 267 -5T206 9L201
138H213Q233 1 327 1Q369 1 393 26T417 96Q417 131 404 156T372 199T321 240Q288 264 268 282T235 328T221 392Q221 428 233 451T268 502Q292 530 304 555T317 620Q317 668 295 694T234 721Q142 721 142 560V0H16V8L77 16V455Q77 556 81 593T101 656Q123 693 160
713T246 733Q307 733 344 704Z" />
<glyph unicode="&#xe0;" glyph-name="agrave" horiz-adv-x="391" d="M92 -7T68 19T43 88Q43 138 88 168T243 220V311Q243 369 230 391T185 414Q154 414 135 398T116 353L117 326Q117 301 108 287T81 272Q66 272 57 282T47 308Q47 332 70 360T131 408Q176 433 224
433Q252 433 271 422T300 391Q305 378 306 359T308 286V95Q308 59 315 46T340 32Q367 32 380 51L384 49Q372 24 352 11T309 -3Q283 -3 266 12T247 54L244 55Q221 26 191 10T130 -7Q92 -7 68 19ZM194 31T212 40T243 68V209Q191 196 163 183T122 152T110 107Q110
72 127 52T173 31Q194 31 212 40ZM218 523L153 605L139 623Q126 638 122 645T117 660Q117 673 124 682T145 691Q169 691 176 670L221 524L218 523Z" />
<glyph unicode="&#xe1;" glyph-name="aacute" horiz-adv-x="391" d="M92 -7T68 19T43 88Q43 138 88 168T243 220V311Q243 369 230 391T185 414Q154 414 135 398T116 353L117 326Q117 301 108 287T81 272Q66 272 57 282T47 308Q47 332 70 360T131 408Q176 433 224
433Q252 433 271 422T300 391Q305 378 306 359T308 286V95Q308 59 315 46T340 32Q367 32 380 51L384 49Q372 24 352 11T309 -3Q283 -3 266 12T247 54L244 55Q221 26 191 10T130 -7Q92 -7 68 19ZM194 31T212 40T243 68V209Q191 196 163 183T122 152T110 107Q110
72 127 52T173 31Q194 31 212 40ZM181 523L246 605L260 623Q273 638 277 645T282 660Q282 673 275 682T254 691Q230 691 223 670L178 524L181 523Z" />
<glyph unicode="&#xe2;" glyph-name="acircumflex" horiz-adv-x="391" d="M92 -7T68 19T43 88Q43 138 88 168T243 220V311Q243 369 230 391T185 414Q154 414 135 398T116 353L117 326Q117 301 108 287T81 272Q66 272 57 282T47 308Q47 332 70 360T131 408Q176
433 224 433Q252 433 271 422T300 391Q305 378 306 359T308 286V95Q308 59 315 46T340 32Q367 32 380 51L384 49Q372 24 352 11T309 -3Q283 -3 266 12T247 54L244 55Q221 26 191 10T130 -7Q92 -7 68 19ZM194 31T212 40T243 68V209Q191 196 163 183T122 152T110
107Q110 72 127 52T173 31Q194 31 212 40ZM293 523L200 629L107 523L104 524L169 670Q178 691 200 691Q221 691 231 670L296 524L293 523Z" />
<glyph unicode="&#xe3;" glyph-name="atilde" horiz-adv-x="391" d="M92 -7T68 19T43 88Q43 138 88 168T243 220V311Q243 369 230 391T185 414Q154 414 135 398T116 353L117 326Q117 301 108 287T81 272Q66 272 57 282T47 308Q47 332 70 360T131 408Q176 433 224
433Q252 433 271 422T300 391Q305 378 306 359T308 286V95Q308 59 315 46T340 32Q367 32 380 51L384 49Q372 24 352 11T309 -3Q283 -3 266 12T247 54L244 55Q221 26 191 10T130 -7Q92 -7 68 19ZM194 31T212 40T243 68V209Q191 196 163 183T122 152T110 107Q110
72 127 52T173 31Q194 31 212 40ZM73 548T84 557T113 566Q134 566 178 548Q195 541 212 536T243 530Q275 530 294 554T313 620H308Q300 584 266 584Q244 584 201 601Q155 617 137 617Q105 617 86 594T67 531H71Q73 548 84 557Z" />
<glyph unicode="&#xe4;" glyph-name="adieresis" horiz-adv-x="391" d="M92 -7T68 19T43 88Q43 138 88 168T243 220V311Q243 369 230 391T185 414Q154 414 135 398T116 353L117 326Q117 301 108 287T81 272Q66 272 57 282T47 308Q47 332 70 360T131 408Q176 433
224 433Q252 433 271 422T300 391Q305 378 306 359T308 286V95Q308 59 315 46T340 32Q367 32 380 51L384 49Q372 24 352 11T309 -3Q283 -3 266 12T247 54L244 55Q221 26 191 10T130 -7Q92 -7 68 19ZM194 31T212 40T243 68V209Q191 196 163 183T122 152T110 107Q110
72 127 52T173 31Q194 31 212 40ZM74 591T86 603T117 616Q136 616 148 604T160 573Q160 555 148 543T117 530Q98 530 86 542T74 573Q74 591 86 603ZM241 591T253 603T284 616Q303 616 315 604T327 573Q327 555 315 543T284 530Q265 530 253 542T241 573Q241 591
253 603Z" />
<glyph unicode="&#xe5;" glyph-name="aring" horiz-adv-x="391" d="M92 -7T68 19T43 88Q43 138 88 168T243 220V311Q243 369 230 391T185 414Q154 414 135 398T116 353L117 326Q117 301 108 287T81 272Q66 272 57 282T47 308Q47 332 70 360T131 408Q176 433 224
433Q252 433 271 422T300 391Q305 378 306 359T308 286V95Q308 59 315 46T340 32Q367 32 380 51L384 49Q372 24 352 11T309 -3Q283 -3 266 12T247 54L244 55Q221 26 191 10T130 -7Q92 -7 68 19ZM194 31T212 40T243 68V209Q191 196 163 183T122 152T110 107Q110
72 127 52T173 31Q194 31 212 40ZM127 566T144 548T190 530Q218 530 235 548T253 593Q253 620 236 638T190 656Q162 656 145 638T127 593Q127 566 144 548ZM139 615T153 629T190 643Q212 643 226 629T240 593Q240 571 226 557T190 542Q167 542 153 556T139 593Q139
615 153 629Z" />
<glyph unicode="&#xe6;" glyph-name="ae" horiz-adv-x="613" d="M92 -7T68 19T43 88Q43 138 88 168T243 220V311Q243 369 230 391T185 414Q154 414 135 398T116 353L117 326Q117 301 108 287T81 272Q66 272 57 282T47 308Q47 332 70 360T131 408Q178 433 224 433Q253
433 272 421T303 384Q322 407 356 420T430 434Q501 434 538 393T577 272L571 267H310Q309 254 309 228Q309 137 342 89T437 40Q473 40 505 56T560 102L569 114L573 112L569 101Q549 48 509 19T417 -10Q366 -10 325 14T264 79Q237 38 202 16T130 -7Q92 -7 68 19ZM379
423T350 385T312 278L496 285Q499 296 499 324Q499 423 425 423Q379 423 350 385ZM226 31T258 91Q253 105 250 127T244 209Q191 196 163 183T122 152T110 107Q110 72 127 52T173 31Q226 31 258 91Z" />
<glyph unicode="&#xe7;" glyph-name="ccedilla" horiz-adv-x="406" d="M181 434T136 405T66 324T40 207Q40 144 63 95T128 18T223 -10Q278 -10 318 19T379 101L383 112L379 114L370 102Q345 70 316 55T249 39Q181 39 144 87T107 222Q107 280 123 326T169 398T234
424Q264 424 275 408T293 361Q299 334 306 322T334 309Q351 309 361 319T371 347Q371 384 333 409T238 434Q181 434 136 405ZM154 -215T173 -220T216 -226Q262 -226 293 -203T324 -144Q324 -112 298 -92T229 -72Q211 -72 202 -74L234 1H222L167 -127L170 -130Q185
-124 208 -124Q234 -124 249 -135T265 -166Q265 -187 246 -199T195 -212Q167 -212 145 -202L143 -205Q154 -215 173 -220Z" />
<glyph unicode="&#xe8;" glyph-name="egrave" horiz-adv-x="423" d="M379 114L383 112L379 101Q359 48 320 19T225 -10Q171 -10 129 18T64 96T40 211Q40 276 65 327T136 406T241 434Q311 434 348 393T387 272L381 267H111Q109 241 109 226Q109 135 146 88T249
40Q283 40 314 55T370 102L379 114ZM183 423T152 384T112 278L306 285Q309 297 309 325Q309 379 289 401T230 423Q183 423 152 384ZM242 523L177 605L163 623Q150 638 146 645T141 660Q141 673 148 682T169 691Q193 691 200 670L245 524L242 523Z" />
<glyph unicode="&#xe9;" glyph-name="eacute" horiz-adv-x="423" d="M379 114L383 112L379 101Q359 48 320 19T225 -10Q171 -10 129 18T64 96T40 211Q40 276 65 327T136 406T241 434Q311 434 348 393T387 272L381 267H111Q109 241 109 226Q109 135 146 88T249
40Q283 40 314 55T370 102L379 114ZM183 423T152 384T112 278L306 285Q309 297 309 325Q309 379 289 401T230 423Q183 423 152 384ZM218 523L283 605L297 623Q310 638 314 645T319 660Q319 673 312 682T291 691Q267 691 260 670L215 524L218 523Z" />
<glyph unicode="&#xea;" glyph-name="ecircumflex" horiz-adv-x="423" d="M379 114L383 112L379 101Q359 48 320 19T225 -10Q171 -10 129 18T64 96T40 211Q40 276 65 327T136 406T241 434Q311 434 348 393T387 272L381 267H111Q109 241 109 226Q109 135 146 88T249
40Q283 40 314 55T370 102L379 114ZM183 423T152 384T112 278L306 285Q309 297 309 325Q309 379 289 401T230 423Q183 423 152 384ZM320 523L227 629L134 523L131 524L196 670Q205 691 227 691Q248 691 258 670L323 524L320 523Z" />
<glyph unicode="&#xeb;" glyph-name="edieresis" horiz-adv-x="423" d="M379 114L383 112L379 101Q359 48 320 19T225 -10Q171 -10 129 18T64 96T40 211Q40 276 65 327T136 406T241 434Q311 434 348 393T387 272L381 267H111Q109 241 109 226Q109 135 146 88T249
40Q283 40 314 55T370 102L379 114ZM183 423T152 384T112 278L306 285Q309 297 309 325Q309 379 289 401T230 423Q183 423 152 384ZM101 591T113 603T144 616Q163 616 175 604T187 573Q187 555 175 543T144 530Q125 530 113 542T101 573Q101 591 113 603ZM268 591T280
603T311 616Q330 616 342 604T354 573Q354 555 342 543T311 530Q292 530 280 542T268 573Q268 591 280 603Z" />
<glyph unicode="&#xec;" glyph-name="igrave" horiz-adv-x="229" d="M151 434H143L27 395V388L86 366V16L25 8V0H212V8L151 16V434ZM384 523L319 605L305 623Q292 638 288 645T283 660Q283 673 290 682T311 691Q335 691 342 670L387 524L384 523Z" />
<glyph unicode="&#xed;" glyph-name="iacute" horiz-adv-x="229" d="M151 434H143L27 395V388L86 366V16L25 8V0H212V8L151 16V434ZM111 523L176 605L190 623Q203 638 207 645T212 660Q212 673 205 682T184 691Q160 691 153 670L108 524L111 523Z" />
<glyph unicode="&#xee;" glyph-name="icircumflex" horiz-adv-x="229" d="M151 434H143L27 395V388L86 366V16L25 8V0H212V8L151 16V434ZM466 523L373 629L280 523L277 524L342 670Q351 691 373 691Q394 691 404 670L469 524L466 523Z" />
<glyph unicode="&#xef;" glyph-name="idieresis" horiz-adv-x="230" d="M152 434H144L28 395V388L87 366V16L26 8V0H213V8L152 16V434ZM248 591T260 603T291 616Q310 616 322 604T334 573Q334 555 322 543T291 530Q272 530 260 542T248 573Q248 591 260 603ZM415
591T427 603T458 616Q477 616 489 604T501 573Q501 555 489 543T458 530Q439 530 427 542T415 573Q415 591 427 603Z" />
<glyph unicode="&#xf0;" glyph-name="eth" horiz-adv-x="511" d="M376 529T417 437T459 245Q459 123 403 54T248 -16Q186 -16 139 11T67 87T41 202Q41 298 94 355T238 413Q274 413 301 403T354 370Q346 438 327 489T273 583L141 507V525L262 595Q214 650 122 706L126
714Q214 678 289 611L417 685V666L302 600Q376 529 417 437ZM308 -4T337 52T367 213Q367 288 356 352Q339 369 314 379T261 389Q200 389 167 339T134 194Q134 101 165 49T252 -4Q308 -4 337 52Z" />
<glyph unicode="&#xf1;" glyph-name="ntilde" horiz-adv-x="462" d="M446 8V0H260V8L321 16V271Q321 310 319 329T311 361Q303 378 285 387T242 397Q191 397 151 354V16L212 8V0H25V8L86 16V361L27 383V390L140 429H148V366Q212 434 282 434Q313 434 338 421T375
385Q382 372 384 350T386 271V16L446 8ZM117 548T128 557T157 566Q178 566 222 548Q239 541 256 536T287 530Q319 530 338 554T357 620H352Q344 584 310 584Q288 584 245 601Q199 617 181 617Q149 617 130 594T111 531H115Q117 548 128 557Z" />
<glyph unicode="&#xf2;" glyph-name="ograve" horiz-adv-x="476" d="M296 434T341 406T411 328T436 212Q436 147 411 97T341 18T238 -10Q180 -10 135 18T65 96T40 212Q40 277 65 327T135 406T238 434Q296 434 341 406ZM114 112T147 56T238 0Q296 0 329 56T362
212Q362 312 329 368T238 424Q180 424 147 368T114 212Q114 112 147 56ZM257 523L192 605L178 623Q165 638 161 645T156 660Q156 673 163 682T184 691Q208 691 215 670L260 524L257 523Z" />
<glyph unicode="&#xf3;" glyph-name="oacute" horiz-adv-x="476" d="M296 434T341 406T411 328T436 212Q436 147 411 97T341 18T238 -10Q180 -10 135 18T65 96T40 212Q40 277 65 327T135 406T238 434Q296 434 341 406ZM114 112T147 56T238 0Q296 0 329 56T362
212Q362 312 329 368T238 424Q180 424 147 368T114 212Q114 112 147 56ZM234 523L299 605L313 623Q326 638 330 645T335 660Q335 673 328 682T307 691Q283 691 276 670L231 524L234 523Z" />
<glyph unicode="&#xf4;" glyph-name="ocircumflex" horiz-adv-x="476" d="M296 434T341 406T411 328T436 212Q436 147 411 97T341 18T238 -10Q180 -10 135 18T65 96T40 212Q40 277 65 327T135 406T238 434Q296 434 341 406ZM114 112T147 56T238 0Q296 0 329 56T362
212Q362 312 329 368T238 424Q180 424 147 368T114 212Q114 112 147 56ZM334 523L241 629L148 523L145 524L210 670Q219 691 241 691Q262 691 272 670L337 524L334 523Z" />
<glyph unicode="&#xf5;" glyph-name="otilde" horiz-adv-x="476" d="M296 434T341 406T411 328T436 212Q436 147 411 97T341 18T238 -10Q180 -10 135 18T65 96T40 212Q40 277 65 327T135 406T238 434Q296 434 341 406ZM114 112T147 56T238 0Q296 0 329 56T362
212Q362 312 329 368T238 424Q180 424 147 368T114 212Q114 112 147 56ZM121 548T132 557T161 566Q182 566 226 548Q243 541 260 536T291 530Q323 530 342 554T361 620H356Q348 584 314 584Q292 584 249 601Q203 617 185 617Q153 617 134 594T115 531H119Q121 548
132 557Z" />
<glyph unicode="&#xf6;" glyph-name="odieresis" horiz-adv-x="476" d="M296 434T341 406T411 328T436 212Q436 147 411 97T341 18T238 -10Q180 -10 135 18T65 96T40 212Q40 277 65 327T135 406T238 434Q296 434 341 406ZM114 112T147 56T238 0Q296 0 329 56T362
212Q362 312 329 368T238 424Q180 424 147 368T114 212Q114 112 147 56ZM112 591T124 603T155 616Q174 616 186 604T198 573Q198 555 186 543T155 530Q136 530 124 542T112 573Q112 591 124 603ZM279 591T291 603T322 616Q341 616 353 604T365 573Q365 555 353
543T322 530Q303 530 291 542T279 573Q279 591 291 603Z" />
<glyph unicode="&#xf7;" glyph-name="divide" horiz-adv-x="498" d="M199 523T212 536T247 550Q268 550 281 537T295 502Q295 481 282 468T247 454Q226 454 213 467T199 502Q199 523 212 536ZM419 333V355H79V333H419ZM199 207T212 220T247 234Q268 234 281 221T295
186Q295 165 282 152T247 138Q226 138 213 151T199 186Q199 207 212 220Z" />
<glyph unicode="&#xf8;" glyph-name="oslash" horiz-adv-x="476" d="M396 363T416 317T436 212Q436 147 411 97T341 18T238 -10Q189 -10 147 11L104 -65H81L129 22Q87 50 64 99T40 212Q40 277 65 327T135 406T238 434Q299 434 343 405L391 490H414L360 393Q396
363 416 317ZM114 111T148 54L326 373Q292 424 238 424Q180 424 147 368T114 212Q114 111 148 54ZM296 0T329 56T362 212Q362 297 337 352L161 36Q192 0 238 0Q296 0 329 56Z" />
<glyph unicode="&#xf9;" glyph-name="ugrave" horiz-adv-x="443" d="M421 50V45L312 -5H306V63L303 64Q244 -10 176 -10Q145 -10 121 3T86 39Q79 52 77 74T75 153V408L15 416V424H140V153Q140 113 142 95T150 63Q157 47 173 38T211 28Q236 28 259 40T301 77V408L241
416V424H366V62L421 50ZM214 523L149 605L135 623Q122 638 118 645T113 660Q113 673 120 682T141 691Q165 691 172 670L217 524L214 523Z" />
<glyph unicode="&#xfa;" glyph-name="uacute" horiz-adv-x="443" d="M421 50V45L312 -5H306V63L303 64Q244 -10 176 -10Q145 -10 121 3T86 39Q79 52 77 74T75 153V408L15 416V424H140V153Q140 113 142 95T150 63Q157 47 173 38T211 28Q236 28 259 40T301 77V408L241
416V424H366V62L421 50ZM221 523L286 605L300 623Q313 638 317 645T322 660Q322 673 315 682T294 691Q270 691 263 670L218 524L221 523Z" />
<glyph unicode="&#xfb;" glyph-name="ucircumflex" horiz-adv-x="443" d="M421 50V45L312 -5H306V63L303 64Q244 -10 176 -10Q145 -10 121 3T86 39Q79 52 77 74T75 153V408L15 416V424H140V153Q140 113 142 95T150 63Q157 47 173 38T211 28Q236 28 259 40T301
77V408L241 416V424H366V62L421 50ZM316 523L223 629L130 523L127 524L192 670Q201 691 223 691Q244 691 254 670L319 524L316 523Z" />
<glyph unicode="&#xfc;" glyph-name="udieresis" horiz-adv-x="443" d="M421 50V45L312 -5H306V63L303 64Q244 -10 176 -10Q145 -10 121 3T86 39Q79 52 77 74T75 153V408L15 416V424H140V153Q140 113 142 95T150 63Q157 47 173 38T211 28Q236 28 259 40T301 77V408L241
416V424H366V62L421 50ZM94 591T106 603T137 616Q156 616 168 604T180 573Q180 555 168 543T137 530Q118 530 106 542T94 573Q94 591 106 603ZM261 591T273 603T304 616Q323 616 335 604T347 573Q347 555 335 543T304 530Q285 530 273 542T261 573Q261 591 273
603Z" />
<glyph unicode="&#xfd;" glyph-name="yacute" horiz-adv-x="452" d="M141 373Q134 393 134 399Q134 407 144 410T191 416V424H-2V416Q32 414 44 408T65 382L219 -18L180 -137Q167 -176 156 -192T132 -209Q123 -209 119 -203T110 -182Q105 -164 97 -154T70 -144Q50
-144 39 -156T27 -188Q27 -213 46 -229T93 -246Q127 -246 153 -217Q174 -197 191 -144L358 347Q369 381 389 395T457 416V424H278V416Q318 410 333 403T348 379Q348 368 342 348L251 73H247L141 373ZM256 523L321 605L335 623Q348 638 352 645T357 660Q357 673
350 682T329 691Q305 691 298 670L253 524L256 523Z" />
<glyph unicode="&#xfe;" glyph-name="thorn" horiz-adv-x="466" d="M425 317T380 375T261 434Q191 434 138 377V721H130L14 682V675L73 653V-218L12 -226V-234H228V-227L138 -216V8Q179 -10 220 -10Q279 -10 326 20T399 103T425 224Q425 317 380 375ZM191 0T165
21T138 71V362Q153 382 176 393T227 404Q286 404 319 351T353 207Q353 147 337 100T292 27T227 0Q191 0 165 21Z" />
<glyph unicode="&#xff;" glyph-name="ydieresis" horiz-adv-x="452" d="M141 373Q134 393 134 399Q134 407 144 410T191 416V424H-2V416Q32 414 44 408T65 382L219 -18L180 -137Q167 -176 156 -192T132 -209Q123 -209 119 -203T110 -182Q105 -164 97 -154T70 -144Q50
-144 39 -156T27 -188Q27 -213 46 -229T93 -246Q127 -246 153 -217Q174 -197 191 -144L358 347Q369 381 389 395T457 416V424H278V416Q318 410 333 403T348 379Q348 368 342 348L251 73H247L141 373ZM112 591T124 603T155 616Q174 616 186 604T198 573Q198 555
186 543T155 530Q136 530 124 542T112 573Q112 591 124 603ZM279 591T291 603T322 616Q341 616 353 604T365 573Q365 555 353 543T322 530Q303 530 291 542T279 573Q279 591 291 603Z" />
<glyph unicode="&#x2013;" glyph-name="endash" horiz-adv-x="496" d="M425 216L432 238H72L65 216H425Z" />
<glyph unicode="&#x2014;" glyph-name="emdash" horiz-adv-x="680" d="M609 216L616 238H72L65 216H609Z" />
<glyph unicode="&#x2018;" glyph-name="quoteleft" horiz-adv-x="187" d="M110 695T101 672T92 626Q92 607 97 596T114 571Q122 562 126 555T130 538Q130 523 121 514T98 504Q78 504 67 521T56 569Q56 607 73 646T121 714L125 709Q110 695 101 672Z" />
<glyph unicode="&#x2019;" glyph-name="quoteright" horiz-adv-x="186" d="M81 523T90 546T99 592Q99 611 94 622T77 647Q69 656 65 663T61 680Q61 695 70 704T93 714Q113 714 124 697T135 649Q135 611 118 572T70 504L66 509Q81 523 90 546Z" />
<glyph unicode="&#x201a;" glyph-name="quotesinglbase" horiz-adv-x="207" d="M87 -92T96 -69T105 -23Q105 -4 100 7T83 32Q75 41 71 48T67 65Q67 80 76 89T99 99Q119 99 130 82T141 34Q141 -4 124 -43T76 -111L72 -106Q87 -92 96 -69Z" />
<glyph unicode="&#x201c;" glyph-name="quotedblleft" horiz-adv-x="297" d="M110 695T101 672T92 626Q92 607 97 596T114 571Q122 562 126 555T130 538Q130 523 121 514T98 504Q78 504 67 521T56 569Q56 607 73 646T121 714L125 709Q110 695 101 672ZM220 695T211
672T202 626Q202 607 207 596T224 571Q232 562 236 555T240 538Q240 523 231 514T208 504Q188 504 177 521T166 569Q166 607 183 646T231 714L235 709Q220 695 211 672Z" />
<glyph unicode="&#x201d;" glyph-name="quotedblright" horiz-adv-x="296" d="M81 523T90 546T99 592Q99 611 94 622T77 647Q69 656 65 663T61 680Q61 695 70 704T93 714Q113 714 124 697T135 649Q135 611 118 572T70 504L66 509Q81 523 90 546ZM191 523T200 546T209
592Q209 611 204 622T187 647Q179 656 175 663T171 680Q171 695 180 704T203 714Q223 714 234 697T245 649Q245 611 228 572T180 504L176 509Q191 523 200 546Z" />
<glyph unicode="&#x201e;" glyph-name="quotedblbase" horiz-adv-x="317" d="M87 -92T96 -69T105 -23Q105 -4 100 7T83 32Q75 41 71 48T67 65Q67 80 76 89T99 99Q119 99 130 82T141 34Q141 -4 124 -43T76 -111L72 -106Q87 -92 96 -69ZM197 -92T206 -69T215 -23Q215
-4 210 7T193 32Q185 41 181 48T177 65Q177 80 186 89T209 99Q229 99 240 82T251 34Q251 -4 234 -43T186 -111L182 -106Q197 -92 206 -69Z" />
<glyph unicode="&#x2022;" glyph-name="bullet" horiz-adv-x="317" d="M92 392T110 410T159 429Q189 429 207 411T225 363Q225 335 207 316T159 296Q130 296 111 315T92 363Q92 392 110 410Z" />
<glyph unicode="&#x2039;" glyph-name="guilsinglleft" horiz-adv-x="255" d="M112 210L199 388L196 390L49 212V207L198 27L202 30L112 210Z" />
<glyph unicode="&#x203a;" glyph-name="guilsinglright" horiz-adv-x="255" d="M206 207V212L59 390L56 388L143 210L53 30L57 27L206 207Z" />
</font>
</defs>
</svg>
