<?xml version="1.0" standalone="no"?>
<!DOCTYPE svg PUBLIC "-//W3C//DTD SVG 1.1//EN" "http://www.w3.org/Graphics/SVG/1.1/DTD/svg11.dtd">
<svg xmlns="http://www.w3.org/2000/svg">
<defs >
<font id="Sigmar" horiz-adv-x="678" ><font-face
    font-family="Sigmar"
    units-per-em="1000"
    panose-1="0 0 5 0 0 0 0 0 0 0"
    ascent="1172"
    descent="-466"
    alphabetic="0" />
<glyph unicode=" " glyph-name="space" horiz-adv-x="258" />
<glyph unicode="!" glyph-name="exclam" horiz-adv-x="411" d="M163 233Q141 233 121 235T94 240Q90 244 88 271Q85 280 85 290L84 303Q83 305 83 308T83 323Q82 328 80 344T73 390Q73 400 72 403L70 411Q69 419 69 423T68 431Q68 480 68 499T67 519Q66 522 66
534Q65 544 65 550T64 561L63 576Q63 585 62 598T58 629Q54 651 52 664T50 686Q50 709 43 727Q43 733 49 734Q63 741 94 741Q106 741 145 744Q150 744 159 747H328Q333 743 340 741Q357 737 364 726Q369 721 369 711Q369 675 358 637L333 418V411Q330 407 330 398L328
385V378Q328 359 319 318Q316 306 312 290T303 245Q303 243 299 241L289 238Q266 233 213 233H163ZM283 -23Q243 -23 228 -19L216 -18H158Q127 -18 99 -13Q89 -13 89 -9L86 78Q85 82 85 104Q85 125 88 129V148Q88 154 94 159T106 164Q122 164 125 165H234Q318 165
318 144Q318 120 318 109T319 85T321 45V8Q320 -17 304 -21Q297 -21 295 -22Q293 -23 283 -23Z" />
<glyph unicode="&quot;" glyph-name="quotedbl" horiz-adv-x="451" d="M54 481Q45 481 39 501Q39 505 39 508T37 515L34 526Q29 550 25 588Q25 599 23 614T18 651Q13 702 10 738T5 800L10 805H15Q27 806 34 809Q42 809 44 810H99Q101 809 113 809L124 810Q127
810 131 810T143 809Q151 809 160 806H176Q194 802 198 799T203 785L202 757Q202 754 202 752T202 747Q201 745 201 736Q200 730 200 713L198 692Q198 689 198 685T196 676Q195 670 194 666T193 656Q193 644 192 642L190 625Q188 608 187 596T183 575Q182 571 182
568T180 561Q179 559 179 552L174 529Q171 515 169 503T165 483H137Q136 482 135 482T127 482Q117 482 115 483H70Q68 483 66 483T62 482L54 481ZM297 481Q286 481 283 501Q279 506 279 515L277 526Q275 540 273 555T269 588Q268 595 266 613T262 651Q258 689 255
725T248 800L252 805Q286 805 297 805T315 807Q323 808 331 808T350 809H361Q366 807 369 809Q374 805 394 805Q404 805 410 805T419 806Q436 803 441 800T446 785Q446 778 446 771T445 757L444 736Q444 724 442 714L440 692V683Q439 681 439 676Q437 670 436 654Q435
646 434 639T433 625Q433 621 433 617T432 611Q429 586 426 575Q424 568 422 558T418 529Q417 516 414 505T408 483H398L381 482H365L360 484L357 483H313Q311 483 309 483T305 482L297 481Z" />
<glyph unicode="#" glyph-name="numbersign" horiz-adv-x="834" d="M484 1Q477 1 464 1T444 3H429Q424 3 422 7T420 22Q420 29 421 38T425 63Q426 68 426 74T428 85Q430 90 430 93T430 100Q430 104 432 108T435 114H331Q326 92 322 73T315 42Q309 18 302 9Q284
9 269 6H258Q257 5 253 5H251L241 6Q236 11 231 8Q230 7 228 7Q226 5 226 5H172L162 4H142Q140 3 137 3T121 3H108Q99 3 99 22Q99 25 100 35T104 63Q106 78 107 87T109 100Q111 102 111 107V114Q53 114 36 119T20 144Q23 161 26 178T33 206T35 212L38 230Q39 235
39 240T40 250Q40 258 50 267T70 277Q81 277 97 277T127 277T146 278L162 363L165 377H119Q91 377 81 387Q75 395 77 400Q80 422 84 432Q84 441 85 442T87 447L94 497Q95 506 96 513T109 527Q116 534 127 534H172Q176 535 182 535T195 535L214 639Q214 640 216
642L229 649H232Q238 649 244 652Q252 655 256 655Q258 655 261 655T269 653Q284 650 285 650T289 653T306 655H320Q323 654 335 654L344 651Q345 651 346 652H352L339 654H364Q366 653 369 653T382 653L414 652Q418 652 419 651Q436 634 436 613V609Q436 605 435
603Q434 600 434 597T432 589L419 537L514 535L537 639Q556 655 579 655H629Q632 655 635 655T642 657H666Q707 657 720 654Q749 651 749 613V609L744 588Q746 584 743 567T735 534H736Q756 534 772 532T793 529Q813 522 813 508T810 480Q808 473 808 456T806 436Q805
434 804 431T802 422Q800 413 795 400Q792 396 788 392Q777 380 742 380L702 377L680 277H687Q716 277 728 276T748 272Q768 267 765 250Q764 230 760 204T751 157T743 132Q731 118 697 118Q696 117 690 117T664 117Q658 114 654 114H646Q639 80 637 66T632 43Q626
19 619 9Q615 8 612 8T605 7Q602 6 592 6L554 4Q553 3 551 3T537 3Q521 2 508 2T484 1ZM466 278L480 331L485 377H385L367 279Q414 279 432 279T466 278Z" />
<glyph unicode="$" glyph-name="dollar" horiz-adv-x="561" d="M177 -100Q175 -100 172 -98T169 -94Q166 -82 164 -44T162 32Q146 38 124 45T82 62T52 83Q24 158 21 235Q21 243 24 249T33 255Q72 253 131 235Q136 233 154 228T187 219Q198 216 211 216Q239 216
251 220T267 235Q269 268 209 290Q160 313 129 332T78 373T45 421Q38 441 35 450T32 478Q32 538 60 576T159 649L161 773Q161 780 172 786T186 795Q182 796 183 796Q183 796 183 796T186 795Q194 793 193 793Q196 793 197 792L198 791Q203 791 203 793Q215 786
224 786Q225 786 226 787Q226 788 228 788V789Q232 789 233 783Q240 747 237 714T233 668L312 670L315 773V779Q315 783 324 789T338 796Q343 796 348 796T357 795Q375 788 389 788H393L394 789Q396 789 398 781Q399 776 398 757T397 721Q398 713 398 694T399 665Q414
662 435 659T464 654Q481 646 499 645Q502 645 505 642Q506 641 506 640T508 637Q511 630 516 630H517L520 606Q521 597 521 591T522 580Q524 567 525 555T526 528V511Q526 490 518 476Q514 470 507 470Q497 470 482 472T437 481L405 488Q392 490 379 491T355 492Q324
492 302 485Q280 474 280 461Q280 460 280 452T292 433Q300 431 309 427T326 418Q349 408 374 398T426 372Q448 360 459 351T477 332T497 310Q518 289 530 263T543 211Q543 177 537 161T516 118Q503 96 474 79T422 49L418 -93L338 -100V27Q292 24 241 24L247 -93L218
-98Q215 -98 215 -95Q214 -92 211 -95Q210 -96 210 -98H213Q212 -99 207 -99H195Q193 -100 183 -100H177Z" />
<glyph unicode="%" glyph-name="percent" horiz-adv-x="1245" d="M476 -11Q470 -11 468 -8T462 9Q462 23 463 32T465 49Q465 54 465 58T467 68Q469 73 469 81Q476 117 488 176T517 317Q518 319 519 324T522 339L597 665Q597 672 604 674V676Q608 676 608 675H611Q623
675 633 678Q644 681 656 681Q658 681 660 681T665 679Q666 678 667 678T669 677Q671 676 671 676T673 676Q680 681 696 681H708Q711 680 720 680Q721 679 722 678T726 676V677Q727 677 728 678H733Q733 679 735 679Q736 679 736 680H738Q753 680 758 676H769Q769
674 771 674H772L775 673L780 676Q799 676 800 633Q800 585 791 538L772 468Q769 453 765 443L760 419Q759 415 758 411T755 403V398L754 396L750 381Q748 373 743 350T731 298L721 253Q720 249 719 244T716 234Q715 229 714 225T712 215L708 199L695 131Q689 100
684 74T671 24Q665 2 659 -5Q646 -5 631 -8H619L614 -9H612Q609 -9 608 -8H606Q603 -3 598 -6L595 -9H514L508 -10H496Q495 -11 493 -11T483 -11H476ZM243 234Q241 234 237 234T228 236Q224 237 221 237T213 238Q158 238 113 265Q91 277 73 304T44 366T33 438Q33
477 46 516T81 585Q135 656 211 656H224Q232 656 235 655Q236 656 237 656H240Q292 656 325 653Q341 651 355 646T384 633Q438 596 463 554Q486 505 486 443Q486 373 456 323L453 318L449 311Q448 310 448 309T446 306L444 304L440 303Q415 264 372 249T243 234ZM254
358Q266 358 272 375T285 440Q288 458 288 479V488Q288 512 279 533Q278 543 268 543Q257 543 249 529Q239 508 235 478L231 441V428Q231 427 232 426Q232 422 233 421Q233 409 239 386L242 373Q243 371 243 369T245 363Q247 358 254 358ZM965 -13L951 -10Q950
-9 948 -9T936 -9Q818 -9 774 98Q756 140 756 191Q756 232 769 271T804 339Q828 373 861 391T934 410H946Q956 410 958 409Q959 410 961 410H963Q1019 410 1051 405T1106 388Q1162 350 1185 308Q1209 263 1209 198Q1209 130 1178 78Q1178 73 1175 71Q1173 65 1173
65Q1171 64 1170 63T1168 60V58L1163 56Q1138 19 1092 3T965 -13ZM978 108Q991 108 999 136Q1004 159 1008 193L1010 233V240Q1007 272 1003 279Q999 288 990 288Q981 288 973 275Q963 266 958 231L954 176V161Q954 159 955 158Q956 149 960 133T968 113Q968 108
978 108Z" />
<glyph unicode="&amp;" glyph-name="ampersand" horiz-adv-x="727" d="M363 -28Q308 -28 268 -23T191 -7T109 26Q68 46 45 85T20 170T43 255Q58 279 70 290T97 308T135 324L137 326V328H138Q137 330 122 337T98 348L82 356L69 365Q34 390 25 442T38 552Q51 587
88 616T177 664T289 687H335Q355 687 381 685T465 676Q470 675 476 674T490 672L520 666Q547 660 570 660Q573 660 574 657Q575 656 576 655T578 652Q582 645 586 645H588L590 624Q590 609 593 592Q596 567 596 538Q596 511 591 496T575 473L482 494H468Q452 494
439 494T407 495H403L402 494Q360 495 328 485T279 459T267 422Q273 401 309 394T402 386T524 389T658 392Q667 391 674 391T684 390H697Q708 388 711 384T718 367L722 258V255Q722 236 711 235Q696 230 654 230H636Q635 222 635 212T635 179Q635 162 636 158Q636
145 636 130T638 98V73Q638 41 626 22T588 -8Q569 -15 536 -19T467 -24Q436 -24 413 -26T363 -28ZM425 106Q430 107 432 108T434 114V203Q434 220 425 220Q417 220 412 220T396 220T358 218Q343 217 338 215T318 213Q302 209 303 191Q303 139 330 121T425 107V106Z"
/>
<glyph unicode="&apos;" glyph-name="quotesingle" horiz-adv-x="257" d="M78 485L67 486Q63 488 61 492T54 506L51 517Q50 522 50 525T49 529Q45 545 43 564T39 588Q38 596 38 605T35 624Q34 633 33 639T31 649Q21 689 18 725T10 792L15 797H21L54 801Q56 802
68 802Q77 802 79 802T84 801H111Q117 804 127 804Q130 803 144 803L149 801Q153 803 156 803Q158 803 159 803T162 803H164Q165 803 166 803T168 802L174 801L207 799L212 797H216Q216 798 218 798Q220 797 223 797T228 796Q230 795 232 795T235 794Q247 791 247
783Q247 773 247 765T244 741T236 694Q235 688 234 682T232 672L229 653Q228 651 228 640L225 624Q224 611 223 599T218 575Q217 571 217 568T215 562Q214 559 214 557T213 553L209 531Q204 504 198 487H168Q166 486 160 486H159L154 488L152 487H114Q107 487 101
487T91 486L78 485Z" />
<glyph unicode="(" glyph-name="parenleft" horiz-adv-x="452" d="M342 -120L333 -113Q303 -109 264 -84T177 -27Q156 -13 148 -5Q64 78 32 181Q15 235 15 308Q15 343 17 377T22 426Q44 575 180 711Q195 726 211 735T235 752Q247 764 257 766T270 770Q278 776
300 781Q309 783 315 783T323 785L347 789L353 770L389 644L401 623L403 603Q379 574 366 546T342 493Q328 459 322 420T315 324Q315 276 321 248T338 202T364 161L387 123Q396 116 401 108Q405 104 407 102T410 98Q421 87 427 82T437 73L433 50L352 -103L342 -120Z"
/>
<glyph unicode=")" glyph-name="parenright" horiz-adv-x="452" d="M105 -120L99 -101L63 25L51 46L49 66Q73 95 86 123T110 176Q124 211 130 250T137 345Q137 393 131 421T114 468T88 508L65 546Q60 552 57 555T51 561Q47 568 42 571Q32 582 26 587T15 596L19
619L100 772L110 789L119 782Q149 778 189 753T275 696Q296 682 304 674Q388 591 420 488Q437 434 437 361Q437 326 435 292T430 243Q408 94 272 -42Q257 -57 241 -66T217 -83Q205 -95 195 -97T182 -101Q175 -107 152 -112Q143 -113 137 -114T129 -116L105 -120Z"
/>
<glyph unicode="*" glyph-name="asterisk" horiz-adv-x="574" d="M314 173Q309 173 305 173T298 174H283Q282 175 279 175T265 175Q243 175 234 176T220 181Q216 185 217 198T220 225T222 248Q222 250 223 251V255L225 268Q225 273 226 275Q227 276 227 280V288L233
328L133 238Q129 236 122 236Q104 236 93 257Q91 259 90 262T86 267L74 286Q73 288 72 290T69 295L63 305Q58 312 53 320T45 332Q42 343 43 344Q46 349 60 356T90 371T113 384Q121 388 124 391Q126 393 129 395T134 398L193 433L134 471Q131 472 119 477T90 490T61
507T43 523Q41 528 46 537T56 553L63 563L74 581L90 605L96 615Q97 617 98 619T101 623Q108 630 122 630Q129 630 133 628Q159 606 171 595T189 578L232 533V583L228 609Q224 634 224 659T228 688Q231 693 243 693H293Q305 693 308 693T315 694H343Q348 694 351
692L358 688Q364 678 364 673L362 525Q369 530 375 541T384 553L398 566Q403 571 405 572Q410 576 414 582T423 593Q426 595 429 598Q438 604 445 613T458 623Q460 623 462 623T466 621Q479 617 491 596Q494 589 497 588Q499 586 499 585T500 583Q502 579 505 576T510
570Q512 566 519 558T529 545Q538 533 533 525T516 509T491 496T469 484Q466 482 463 480T456 474Q447 468 442 464T429 453T402 433Q416 424 425 420T456 403Q463 399 479 391T511 376T529 364Q536 356 536 349Q536 344 533 339L510 296L500 284L496 278Q495 276
494 275T491 271Q475 249 466 245Q461 244 450 252T428 270T409 285L394 298Q387 305 384 307L378 311L350 334Q349 321 353 301T357 254Q357 240 359 221T360 188T348 173H314Z" />
<glyph unicode="+" glyph-name="plus" horiz-adv-x="553" d="M351 -3Q343 -3 334 -3T311 -1Q304 0 298 0T285 0H260Q257 1 252 1T231 1Q200 1 188 12T176 53Q176 55 177 56Q178 57 178 60Q178 68 178 70T179 75L183 98Q183 100 182 106T179 123L178 138Q178 143
177 145Q176 146 176 148H83Q49 145 35 158Q28 162 28 176V288Q27 296 27 307T26 328Q26 336 35 344T53 353H176V441Q176 477 188 489Q192 496 206 496Q216 496 226 496T246 498H356Q365 498 374 489T383 471V351Q424 348 464 348Q498 348 511 342T525 321L524
256Q523 253 523 249T523 230V203Q523 185 522 177T515 163Q505 148 473 148H380Q380 141 380 130T378 103V59Q378 -3 351 -3Z" />
<glyph unicode="," glyph-name="comma" horiz-adv-x="419" d="M139 -263H129Q128 -263 126 -263T120 -261Q117 -243 115 -236Q113 -223 109 -213V-211L113 -204L108 -200L98 -166Q96 -165 91 -154L88 -148Q88 -143 85 -143Q137 -132 170 -88Q182 -73 188 -58L190
-49Q190 -43 177 -43H171Q166 -43 161 -43T146 -41Q117 -41 91 -38Q63 -33 63 -24Q60 0 60 48Q59 51 59 56T59 75Q58 143 53 175L59 183L111 189H170Q181 189 184 189T188 190Q191 191 195 192T205 193H229L236 189Q238 190 246 190Q255 190 256 191Q262 189 263
189L269 188L313 185L320 183Q323 183 323 184H328Q329 184 339 180Q349 176 352 171T356 155V138Q356 123 357 107T360 74L363 62Q365 58 365 56T366 51Q363 39 363 14Q363 -67 349 -115T301 -198Q276 -223 243 -235Q191 -263 139 -263Z" />
<glyph unicode="-" glyph-name="hyphen" horiz-adv-x="470" d="M113 195Q81 194 65 205Q58 211 58 224V298Q58 316 58 321T57 330L56 371Q56 380 65 389T83 398Q98 398 109 398T128 399Q141 400 152 400T173 401H265Q275 401 286 401T311 399Q318 398 328 398T354
398Q383 398 399 391T416 370Q416 355 416 339T414 306Q414 293 414 288T413 281V253Q413 224 405 213Q396 198 361 198L354 196Q352 195 345 195H113Z" />
<glyph unicode="." glyph-name="period" horiz-adv-x="383" d="M119 -23L103 -24Q101 -25 91 -25Q63 -25 63 -10Q62 9 61 35T59 89Q59 116 57 147T53 189L59 196L91 203H150Q154 203 158 203T168 205Q171 206 185 206H209L216 203Q221 205 225 205Q228 204 232
205H236Q240 204 243 204T249 203L273 199L280 198H288Q304 192 311 188Q316 176 316 169Q319 165 321 152T325 123Q326 116 326 106T326 65Q329 44 329 35Q329 23 328 21V10Q327 9 327 2Q327 -8 328 -10V-11Q328 -24 308 -24Q301 -25 296 -24H286Q284 -23 280
-23T263 -23H240Q239 -24 237 -24T226 -24H218L145 -22Q136 -22 130 -22T119 -23Z" />
<glyph unicode="/" glyph-name="slash" horiz-adv-x="412" d="M60 -13H53Q47 -13 45 -10T39 7Q39 21 40 30T42 47Q42 52 42 56T44 66Q46 71 46 79Q53 115 65 174T94 315Q95 317 96 322T99 337L174 663Q174 670 181 672V674Q185 674 185 673H188Q200 673 210 676Q221
679 233 679Q235 679 237 679T242 677Q243 676 244 676T246 675Q248 674 248 674T250 674Q257 679 273 679H285Q288 678 297 678Q298 677 299 676T303 674V675Q304 675 305 676H310Q310 677 312 677Q313 677 313 678H315Q330 678 335 674H346Q346 672 348 672H349L352
671L357 674Q376 674 377 631Q377 583 368 536L349 466Q346 451 342 441L337 417Q336 413 335 409T332 401V396L331 394L327 379Q325 371 320 348T308 296L298 251Q297 247 296 242T293 232Q292 227 291 223T289 213L285 197L272 129Q266 98 261 72T248 22Q242
0 236 -7Q223 -7 208 -10H196L191 -11H189Q186 -11 185 -10H183Q180 -5 175 -8L172 -11H91L85 -12H73Q72 -13 70 -13T60 -13Z" />
<glyph unicode="0" glyph-name="zero" d="M282 -24Q280 -24 277 -24T268 -22L245 -19L191 -8Q183 -4 180 -3Q170 0 164 3Q160 4 160 8Q155 10 150 12T138 18Q127 22 116 28L102 38Q98 41 94 43T88 48Q63 70 47 108T23 208Q20 238 20 286Q20 323 22 349T30 401T47
464Q51 467 70 503Q74 507 76 514Q77 516 78 518T81 523L85 529Q86 533 90 533Q98 533 113 548Q117 551 120 554T127 560Q134 567 140 570Q169 587 210 594Q217 595 228 596T247 598Q260 598 269 599T285 601Q327 600 357 597T417 590T483 578Q486 578 493 575Q522
566 543 555Q555 549 555 543V534Q579 534 600 499Q610 486 616 470T623 443Q632 443 633 442T635 433Q637 420 640 411T645 393Q647 389 648 385T650 376Q651 371 652 366T655 353L656 345L658 308V283Q658 195 644 146T593 65Q578 52 560 41L525 18Q510 13 499
9T481 1L438 -14Q420 -14 402 -15T361 -19Q342 -21 322 -22T282 -24ZM340 121Q372 121 385 148Q388 155 390 168T392 193L393 221Q396 251 396 279Q397 283 397 303Q397 335 381 392L373 418Q369 456 342 456Q313 456 302 424Q296 409 295 396Q295 390 292 369L285
320Q278 302 278 271Q278 232 285 208Q286 194 294 177Q297 169 299 163T302 153Q303 143 320 133Q334 121 340 121Z" />
<glyph unicode="1" glyph-name="one" horiz-adv-x="467" d="M399 0Q364 0 347 0T324 0T316 1H279Q257 2 240 2T207 3H165Q133 3 122 13T111 54L112 63Q112 68 113 70Q114 72 114 78L116 100L114 128Q114 134 113 136Q112 138 112 143L111 150Q110 154 110 160T110
188V278Q109 289 109 302T109 350Q109 361 106 361Q102 361 94 353Q79 335 56 315Q46 308 34 308Q24 308 17 314T9 328V519Q9 522 11 524L15 527Q17 529 20 530L36 539Q42 543 48 546T59 553Q73 563 88 568T111 576Q124 581 134 581Q185 581 217 581T272 580L405
579Q416 579 424 572T432 553V220Q432 176 429 138Q426 98 426 61Q426 27 420 14T399 0Z" />
<glyph unicode="2" glyph-name="two" horiz-adv-x="541" d="M169 0Q135 0 106 1T55 5Q27 10 20 14Q7 20 7 30Q7 44 7 62T7 95T7 112Q7 129 10 137T25 153Q39 164 70 177T133 221Q135 224 145 234T164 251Q178 263 182 271T202 301Q210 314 207 325T204 348Q204
376 188 387T130 398Q121 398 110 397T77 393Q68 391 59 387T30 373Q24 369 20 372T16 384Q14 399 13 413T10 445L7 497L6 518L5 536Q5 539 5 542T14 547L49 563Q160 598 274 598Q324 598 369 587T446 556Q525 507 525 408Q525 355 491 305T382 203H465Q497 203
511 197T526 176Q526 160 526 144T524 111V59Q524 28 513 16T472 4Q469 1 459 1Q453 0 441 0T384 0H169Z" />
<glyph unicode="3" glyph-name="three" horiz-adv-x="529" d="M221 -29Q212 -29 195 -27T161 -22T133 -16L111 -10Q103 -8 103 -5L93 -2Q89 0 86 0T80 1Q73 3 63 8T45 18Q40 21 34 23T32 41L40 150Q41 165 63 158Q94 151 112 149T158 146Q233 146 233 199Q233
237 170 241Q151 241 140 241T106 239Q92 239 90 248T88 265V327Q85 346 101 346Q103 345 107 345T124 345Q206 345 206 395Q206 418 189 428T133 438Q110 438 90 434T35 415Q26 411 20 413T14 424L6 529Q2 552 21 556Q129 598 255 598L325 593Q360 587 385 581L393
579Q404 575 412 571T425 565Q433 562 433 558V550Q451 550 466 521Q471 515 473 509Q474 503 478 498L485 479Q493 458 493 453Q495 438 499 423Q499 392 485 364T444 315Q524 268 524 188Q524 105 499 56Q490 37 479 24T458 8Q405 -19 343 -24Q318 -26 287 -27T221
-29Z" />
<glyph unicode="4" glyph-name="four" horiz-adv-x="640" d="M365 -53Q349 -53 345 -23Q345 -13 344 -10Q343 -7 343 3Q343 13 343 15T342 19L340 56H275Q229 56 194 56T135 55Q124 55 100 55T50 53Q24 54 13 63Q5 66 5 73V126Q5 145 6 161T10 191Q11 199 13 217T26
260L52 318L58 333Q60 338 62 349T71 380L87 428L131 525Q142 546 149 558T160 575Q161 576 162 577T168 581Q169 582 170 583T173 585L177 588H240Q262 588 298 585Q306 590 332 590Q355 590 361 590T372 589Q379 588 413 588H415L417 589H455Q456 588 461 588H468Q476
590 482 588H530Q535 587 537 587T541 586Q548 586 550 580T553 556L552 522Q552 516 552 486T551 418T550 348Q549 326 549 302T548 255V238H610Q645 238 645 136Q645 128 643 123Q643 112 643 100T641 80Q641 71 640 69T633 65Q627 64 621 64T608 63Q604 62 601
62T596 61H576Q560 61 555 61T546 60L545 44Q544 35 544 27T543 9Q543 -27 536 -38Q531 -43 520 -43Q521 -43 517 -41Q515 -41 513 -43H510Q506 -43 505 -44L485 -43H480Q478 -41 473 -41Q470 -41 467 -44H412L405 -45Q397 -47 390 -49T375 -53H365ZM291 238H330V476Q330
483 327 485T322 481V465Q322 455 315 446T305 430L297 409Q296 401 294 389T290 359Q283 343 276 323T256 271Q252 258 249 251T245 239Q270 239 277 239T291 238Z" />
<glyph unicode="5" glyph-name="five" horiz-adv-x="541" d="M191 -19Q175 -19 148 -15T102 -6Q92 -3 88 -2T82 0Q73 1 72 5L51 11Q44 13 39 15T29 19L2 25L8 59L7 95L9 123L12 163Q29 159 61 155T128 149T189 146Q263 146 263 197Q263 236 201 241Q181 241 149
241T86 240T34 238L31 288L32 304V368Q31 370 31 372T31 381Q27 392 27 428V573Q29 578 36 583H38Q42 581 42 581Q52 581 55 582Q57 583 66 583Q77 586 89 586Q97 586 106 586T127 584Q134 583 144 583T167 583L171 585H266Q268 583 273 583H281Q286 585 291 585L303
583H461Q463 579 468 579Q472 579 473 580Q481 580 484 581T491 583H496Q502 583 506 571Q511 559 514 523T517 438Q517 429 507 427Q503 426 501 426T495 425Q491 424 486 425H461Q456 425 451 425T436 423Q387 423 367 423T345 422Q342 421 326 421H307Q298 421
296 423L288 418L284 399Q280 384 278 351Q295 350 309 350T349 350T423 348L429 346Q447 343 463 333Q471 328 471 324V318Q488 318 504 288L516 264Q517 254 522 248Q528 234 532 217T536 188Q536 154 531 130T511 69Q487 23 468 18Q442 5 415 -3T363 -14Q350
-15 331 -16T280 -17T191 -19Z" />
<glyph unicode="6" glyph-name="six" horiz-adv-x="641" d="M340 -31Q255 -31 186 3T70 105Q20 179 20 278Q20 333 24 362T38 416Q65 479 125 536Q178 572 234 587T367 603Q412 603 443 600T503 589L536 577Q546 573 553 571T566 563Q567 562 568 562T570 561Q572
560 576 558Q588 554 588 535L582 449Q584 428 557 420H552Q545 420 533 423Q497 428 463 430T398 433Q358 433 315 410Q289 396 284 378T277 344Q343 364 397 364Q443 364 487 356T551 334Q636 285 636 183Q636 134 613 93T545 23Q505 -3 452 -17T340 -31ZM355
130Q406 130 406 179Q406 216 360 216Q335 216 308 208Q303 207 297 205T285 200Q301 130 355 130Z" />
<glyph unicode="7" glyph-name="seven" horiz-adv-x="537" d="M269 -77Q256 -77 241 -66T187 -34Q142 -9 113 4T68 25T53 45Q53 45 55 49Q56 51 56 53T58 59Q62 66 64 72T69 83Q72 90 83 105T107 137T131 169T145 189L177 224Q179 229 188 242T209 273T233 307T253
331Q256 337 269 348T283 365Q278 365 261 364T228 363T204 362L113 348H43Q24 348 15 382T5 490Q5 493 5 496T7 505V529Q7 541 7 544T8 551Q8 560 9 562T17 568Q23 569 31 570T44 571H57L115 574Q129 576 144 577T173 578Q254 578 328 578T477 580Q503 579 517
571Q527 564 527 558V398Q527 388 523 376T504 333L445 210Q444 206 442 202T438 191Q431 169 419 149T394 106L375 72Q368 58 356 36T330 -8T305 -47T289 -69Q284 -77 269 -77Z" />
<glyph unicode="8" glyph-name="eight" horiz-adv-x="685" d="M352 -11Q192 -11 100 43L86 48Q76 51 75 55Q39 78 30 110Q20 134 20 188Q20 238 34 267T80 315Q56 333 41 363T25 423Q25 481 56 521Q59 526 70 535Q72 537 74 538T78 541Q82 545 85 546Q110 568
126 573Q171 595 245 603H375Q466 603 528 573Q557 562 582 544T618 509Q641 465 641 425Q641 400 630 365Q614 335 590 315Q670 268 670 188Q670 116 636 75Q616 50 594 37T526 8L497 1Q491 0 486 0T477 -1Q467 -1 457 -2T437 -5Q414 -10 395 -10T352 -11ZM336
345Q359 345 366 358Q377 375 377 415Q377 459 363 479Q355 488 347 490Q338 492 335 493Q335 493 324 491Q305 488 297 458Q293 443 293 415Q293 373 305 356Q316 345 336 345ZM350 98Q369 98 377 113Q388 133 388 194Q388 228 378 248T350 268H335Q323 268 315
250Q306 228 306 194Q306 133 320 113Q325 98 350 98Z" />
<glyph unicode="9" glyph-name="nine" horiz-adv-x="646" d="M278 -31Q215 -31 141 -10L110 3Q97 7 90 12Q78 19 78 19Q76 21 70 24Q54 31 57 56Q57 68 68 99Q80 122 82 133Q89 148 95 154T110 163Q116 163 121 162T132 160Q179 153 203 150T247 146Q301 146 330
163Q354 176 359 191T368 229Q308 208 247 208Q200 208 156 220T80 253T32 300Q10 337 10 390Q10 493 100 550Q184 603 305 603Q346 603 376 596T447 569Q535 530 580 461T626 295Q626 251 622 218T607 156Q585 94 521 36Q466 0 410 -15T278 -31ZM285 356Q295 356
307 358T337 364Q349 367 361 373Q343 443 291 443Q240 443 240 394Q240 356 285 356Z" />
<glyph unicode=":" glyph-name="colon" horiz-adv-x="383" d="M119 311L103 310Q100 309 90 309Q63 309 63 324Q60 348 60 396Q59 401 59 407T59 423Q58 491 53 523L59 530L90 538H149Q156 538 161 538T168 539Q171 540 185 540H208L215 538L225 539Q228 538 231
539H235Q237 538 243 538Q247 538 249 536L273 533L279 531Q283 531 283 533H288Q290 532 293 531T300 528Q308 524 311 521T315 503Q322 497 324 466T326 399Q327 392 327 385T328 369V354Q328 350 326 344Q326 339 326 334T328 324V323Q328 310 308 310Q303 308
297 310H286Q282 311 277 311T263 311H240Q237 310 226 310H218Q207 311 194 311T163 311Q155 312 150 312T140 313Q136 313 131 313T119 311ZM103 -3H94Q77 -3 69 1Q63 4 63 13Q60 36 60 84Q59 89 59 95T59 111Q58 179 53 211L59 218L90 225H149Q161 225 168 228H208L215
225Q215 225 219 227Q221 228 225 228Q228 227 231 228H235Q239 226 243 226Q244 225 246 225Q248 225 249 224L273 221L279 219Q283 219 283 220H288Q306 213 310 209T315 191Q322 185 324 154T326 88Q327 81 327 74T328 58V43Q328 35 326 33Q326 27 326 22T328
13V12Q328 -3 308 -3H286Q282 -2 277 -2T263 -1H240Q234 -3 226 -3H218Q207 -2 194 -2T163 -1L140 0L119 -1Q114 -1 112 -2Q109 -3 103 -3Z" />
<glyph unicode=";" glyph-name="semicolon" horiz-adv-x="389" d="M123 311L108 310Q105 309 95 309Q68 309 68 324Q67 332 66 351T63 401V423Q63 455 62 479T58 523L63 530L95 538H154Q161 538 166 538T173 539Q175 540 179 540T189 540H213L220 538L229 539Q232
538 236 539H240Q242 538 248 538Q251 538 253 536L278 533L284 531Q286 531 288 533H291Q310 525 315 521T320 503Q327 496 328 465T330 399Q333 386 333 369V354Q333 351 332 350Q331 348 331 344Q329 339 331 334V321Q331 310 318 310T300 310H290Q286 311 281
311T268 311H244Q241 310 230 310H223Q212 311 198 311T168 311Q160 312 154 312T144 313Q140 313 135 313T123 311ZM129 -263H119Q114 -263 110 -261Q107 -241 104 -228T99 -213L88 -166Q86 -165 81 -154L78 -148Q78 -143 75 -143Q121 -134 153 -96Q165 -82 172
-68T179 -48Q179 -44 169 -43L143 -42Q135 -41 129 -41T118 -40Q98 -39 84 -37T63 -33Q61 -31 58 -29Q53 -27 53 -24Q50 0 50 48Q49 53 49 59T49 75Q48 143 43 175L49 183L101 189Q122 189 137 189T163 190L184 191Q196 192 205 192T219 193L226 189Q228 190 236
190Q245 190 246 191Q252 189 253 189L259 188L303 185L310 183Q313 183 313 184H318Q319 184 329 180Q337 177 341 173T346 155Q346 151 346 147T348 138Q350 104 354 75Q354 68 354 62T356 51Q359 29 359 3Q359 -60 339 -120T273 -218Q215 -263 129 -263Z" />
<glyph unicode="&lt;" glyph-name="less" horiz-adv-x="478" d="M318 -1Q313 -1 302 5Q284 19 273 31L262 43L234 71Q206 91 183 110T146 145L132 158Q129 160 127 162T123 166L113 178Q82 213 61 248Q45 274 45 288Q45 293 49 302T65 327Q69 332 71 334T75 339Q78
342 81 347T88 357L103 375L121 397Q122 398 123 399T127 402L133 407Q149 421 163 434T188 459Q203 470 234 505L254 531Q265 542 281 555Q289 562 293 563Q307 574 318 574Q338 574 376 549Q390 540 392 539T395 538T403 530Q433 496 433 485Q432 484 431 482T427
477Q415 464 405 455T388 438Q386 435 376 422T355 397T339 380L286 327L267 307Q263 302 260 300T255 295V294Q255 288 262 281Q267 274 275 264T302 232L355 173L370 158Q381 148 387 142T397 130Q399 128 406 123T420 112T427 105Q427 85 409 60T365 17T318
-1Z" />
<glyph unicode="=" glyph-name="equal" horiz-adv-x="560" d="M41 348Q29 348 28 358Q25 361 25 374V470Q25 473 25 477T27 486Q29 493 31 493Q43 493 59 493T95 495Q100 495 107 495T124 497Q132 498 139 498T160 498H360Q369 498 382 498T412 496L433 495Q456
494 474 494T506 493Q535 493 535 469V430Q532 415 532 399Q532 391 532 382T530 363Q527 351 515 351Q485 348 467 348H41ZM41 134Q25 134 25 160V258Q25 262 25 265T27 273Q28 280 31 280Q65 280 95 283H433Q468 280 506 280Q511 280 516 280T525 278Q535 271
535 256V218Q532 203 532 186Q532 179 532 171T530 150Q525 138 515 138Q485 135 467 135L453 134H41Z" />
<glyph unicode="&gt;" glyph-name="greater" horiz-adv-x="482" d="M151 -6Q139 -6 130 6T111 35T83 68Q70 81 62 93T53 114L60 123Q62 126 67 131T88 152L103 168L159 230Q173 244 185 259T203 281Q209 289 209 295Q208 297 205 300T196 309Q194 311 192 313T187
319Q185 321 182 323T177 329Q150 355 121 385Q108 396 95 409T69 436Q65 439 63 442T58 447L45 462Q45 472 45 489T54 526T90 563Q130 589 151 589Q162 589 168 584Q176 579 185 572T205 556Q215 547 217 544L239 517Q261 494 282 473T322 435Q330 428 335 424T346
414Q349 411 351 410T354 407Q356 406 356 405T358 402Q363 395 372 385T393 360Q420 326 432 305Q437 298 437 288Q437 274 420 246Q407 227 394 209T367 173Q364 171 362 169T356 161Q342 146 333 135T314 114T288 90T244 56Q223 34 201 21T168 -1Q156 -6 151
-6Z" />
<glyph unicode="?" glyph-name="question" horiz-adv-x="565" d="M145 200Q123 200 115 226Q111 234 109 241T107 273Q107 290 107 295T108 303V319Q108 358 133 374Q143 384 160 390Q185 401 192 404T198 408T195 408T203 411Q208 413 220 419T243 433T257 443Q267
436 267 451Q267 470 250 475Q238 479 224 483T182 487Q162 487 132 485T72 478T26 469L24 468Q15 468 15 485Q15 502 16 505Q17 507 17 510T18 515Q19 517 19 525Q19 554 20 576T22 608Q24 624 25 632T27 643Q32 659 49 659Q73 660 108 661T184 662T261 663Q309
663 356 654T442 628T501 590Q550 547 550 468Q550 436 535 404T498 361Q488 356 476 348T445 331Q405 314 384 308T353 300T335 289V274Q336 264 336 257T337 218Q337 200 326 200H311L283 201Q276 202 270 202T257 203Q247 203 245 200H145ZM314 -3Q274 -3 259
1L247 2H189Q158 2 130 7Q120 7 120 11L117 98Q116 103 116 100T116 104Q116 125 119 129V148Q119 154 125 159T137 164Q153 164 156 165H265Q349 165 349 144Q349 120 349 109T350 90T352 65V28Q351 3 335 -1Q328 -1 326 -2Q324 -3 314 -3Z" />
<glyph unicode="@" glyph-name="at" horiz-adv-x="1046" d="M503 -140Q384 -140 283 -89Q170 -35 108 71T46 318Q46 450 113 554T310 729Q423 789 546 789Q637 789 716 757T857 670T959 547T1011 403T1005 256T930 124Q878 82 823 75T718 92T632 176Q601 143 580
126T538 104T481 97Q410 95 378 122T341 216Q340 245 346 262T373 304Q386 319 400 327T437 340T497 346Q514 347 528 347T549 347Q565 346 582 347Q580 368 571 378T535 391T452 394H451Q444 396 444 395T436 393H430L387 388Q377 391 377 416Q377 421 377 425T377
443T376 486Q377 493 376 500L377 510Q380 510 382 511L385 516Q386 517 387 517Q390 517 396 518T409 521L424 524Q430 526 433 526Q454 529 461 530T478 532Q508 534 548 532T624 525T678 512Q716 498 738 449T760 332Q760 280 777 253T818 226T858 252T876 332Q876
412 851 470T771 578Q729 616 669 636T534 656Q454 656 373 618Q287 571 240 494T193 321Q193 196 255 113Q277 77 317 49T408 4T513 -13Q585 -13 658 16L703 -104Q606 -140 503 -140ZM541 197Q573 197 583 232L584 246Q586 265 577 280T555 294Q539 293 530 280T522
247L525 219Q530 206 533 202T541 197Z" />
<glyph unicode="A" glyph-name="A" horiz-adv-x="781" d="M743 -2Q736 -2 731 -2T721 0H555Q554 0 552 0T547 2H517L474 3Q470 3 469 2Q467 0 461 0H458L457 1Q453 1 453 2Q450 3 447 3T442 3Q440 11 437 32T423 94L415 122H359Q343 122 331 123T306 127Q306 123
305 118T303 104Q296 67 289 39T277 3Q269 3 258 3T232 2Q217 2 213 0H204Q203 0 203 2Q202 3 200 3Q192 3 189 2V0H56Q52 -1 47 -1T33 -2H23Q15 -2 12 3Q5 13 5 25Q5 32 6 35Q6 40 6 44T7 55Q9 66 12 71Q15 82 15 86Q17 98 33 170T79 366T147 651Q147 652 149
656T156 662H160L162 660Q167 660 169 662T175 665Q183 667 187 667Q194 667 200 667T214 665Q216 665 219 665T224 664Q226 663 230 663T239 662Q239 664 244 664T251 665Q260 666 272 666T304 667H399Q399 666 408 666Q413 666 416 666T424 665H474Q476 664 478
663T483 662Q488 662 493 662T504 664Q509 665 514 665T522 665Q533 666 542 666T561 667Q567 667 573 668T586 665Q594 661 600 661T612 660Q616 660 616 662H620Q623 661 626 657T629 651Q639 613 652 560T679 445T709 321T738 201T762 97Q764 87 764 83T766
74Q767 67 771 51T776 27Q776 19 772 18Q768 -2 755 -2H743ZM318 241Q324 241 324 243H330Q332 244 337 246T349 248H350L357 243H404L397 288L393 307Q391 318 389 325T387 340Q387 345 384 366T377 416L373 444Q370 453 369 461T366 476L364 488V493Q362 495
362 498Q362 502 361 502V498Q361 494 357 488V476Q355 468 354 460T351 444L342 397Q334 357 330 318T318 241Z" />
<glyph unicode="B" glyph-name="B" horiz-adv-x="797" d="M246 -13Q182 -13 147 -10T85 3Q59 14 47 33T35 84V109Q36 119 36 128T37 158Q38 161 38 164T38 179Q38 198 38 226T36 293L35 353Q33 409 32 450T30 525V570Q30 605 33 621Q36 629 36 636Q38 654 51 663Q59
666 73 666Q78 666 83 666T93 667Q96 668 99 668T115 668Q123 668 135 668T165 670Q172 671 188 672T220 674T240 675Q281 675 329 673T432 670Q486 670 543 661T649 636T723 603Q750 580 761 558T772 506Q772 426 703 379L694 375Q692 374 690 373T686 371Q679
369 671 366T655 358Q650 356 645 348H646V346L648 344Q681 331 709 314T760 275Q792 238 792 200Q792 169 774 137T725 80Q692 54 645 39T545 15T444 1T360 -8Q326 -10 299 -11T246 -13ZM374 399Q378 399 385 402Q396 407 408 411T431 422Q445 427 458 437Q464
441 468 444T474 449L484 454L491 458Q495 458 495 464Q495 490 474 501T406 513Q366 513 366 436V403Q366 399 374 399ZM387 153H390Q484 153 484 234Q485 244 482 247T469 252Q454 252 449 252T429 254Q407 255 396 255T370 256Q363 256 362 243Q361 235 359
221T356 191T362 164T387 153Z" />
<glyph unicode="C" glyph-name="C" horiz-adv-x="707" d="M654 229Q667 225 667 212V209Q692 140 692 54Q652 12 587 -7T416 -26Q244 -26 135 65Q20 161 20 332Q20 428 47 493T135 605Q170 632 221 652T334 683T457 694Q473 694 484 693T510 689T555 683Q561 683
567 682T580 679L613 674Q621 673 632 670T650 667Q651 667 652 667T655 665Q656 664 657 662T659 659Q666 655 667 655H670L672 635Q673 627 673 619T674 603Q675 593 675 576T676 539Q676 512 672 499T656 477L572 489H558Q548 489 546 489T540 490T525 490L524
489Q448 489 404 446T359 330Q359 260 401 221T511 190L554 195Q573 197 594 202T654 229Z" />
<glyph unicode="D" glyph-name="D" horiz-adv-x="805" d="M347 -1L62 1Q45 1 40 23Q35 41 35 63Q35 97 35 134T33 218Q32 267 31 318T30 425V645Q30 654 38 662T56 671L172 670Q183 669 198 669T255 669Q293 669 322 669T372 670L409 671Q440 672 464 672T507
673Q581 673 641 644T736 560Q785 484 785 373Q785 268 761 198T687 83Q636 39 554 19T347 -1ZM356 286L349 115Q354 114 365 114Q371 114 378 114T396 116Q399 117 401 117T407 119Q408 120 410 120T414 121Q430 135 443 171T470 276Q474 301 475 326T477 376V395Q477
424 472 455T459 511T442 546Q426 560 414 560Q401 560 391 558T377 555Q376 554 365 550L364 430Q364 422 363 410T360 382L359 358Q358 309 356 286Z" />
<glyph unicode="E" glyph-name="E" horiz-adv-x="645" d="M270 -4H112Q101 -4 97 -3Q92 -2 86 -2T73 0L52 5Q47 5 44 8Q44 10 44 10Q44 36 41 78Q41 94 40 105T37 125L35 167Q34 176 34 187T34 212L32 242Q31 261 31 276T31 301Q31 306 31 313T30 338T30 390Q30
485 31 543T37 646Q37 656 62 664Q72 665 85 665T111 666Q152 666 181 666T230 669Q289 670 333 670T408 671H452Q494 671 525 669T578 665Q593 665 601 628Q603 624 604 616T608 591Q610 569 612 557T616 534Q617 532 617 523Q616 522 616 515Q615 506 605 506Q603
507 594 507Q572 507 547 505T489 500L437 496L385 491Q382 491 377 480Q374 473 371 471T367 459L365 425Q364 412 368 408T383 404H472Q510 404 561 398H571Q590 398 594 376L596 277V274Q596 256 562 254Q553 251 535 250T480 249Q443 249 432 249T415 250Q394
250 388 250T380 249Q370 247 367 245T363 232T362 193Q361 189 361 183T360 154Q420 154 454 155T507 157Q536 158 559 158T602 159Q605 159 610 152Q614 145 621 116T638 37Q640 32 640 22Q640 1 621 1Q589 1 550 -2Q543 -3 531 -3T479 -3Q444 -3 402 -3T324
-3T270 -4Z" />
<glyph unicode="F" glyph-name="F" horiz-adv-x="582" d="M91 -9L74 -10Q61 -10 55 0T47 24T45 46V67Q44 84 43 103T42 138Q40 182 39 212T35 261Q35 278 33 297T30 323V653Q30 663 37 664H43L46 663Q63 663 84 664T133 666Q168 667 198 667T254 668H264Q268 667
281 667H308Q323 667 335 667T354 666H452Q461 665 475 665T510 664Q519 664 522 663Q526 662 530 662T540 661Q544 661 547 664Q568 664 570 623Q571 619 571 614T572 605Q572 602 571 592T570 572Q570 564 570 552T569 523Q569 513 558 512T536 511H479L451 510Q442
507 421 507Q399 507 398 508Q394 506 394 506Q393 505 391 505Q391 502 390 501Q389 500 389 496Q389 492 388 472T385 427T383 381L382 379Q382 374 386 370H500Q521 370 526 356Q530 345 530 299V218Q526 203 515 203Q511 203 508 203T500 201L459 199H440Q426
199 420 197L401 194H388Q372 194 368 190Q367 189 364 187T359 180Q359 137 358 108T357 61Q356 39 354 23T348 -4Q339 -4 327 -4T297 -6Q289 -6 284 -6T277 -8H267Q262 -8 261 -7Q260 -6 257 -6L254 -5Q254 -4 251 -4Q247 -4 243 -8L164 2Q163 1 160 1L151 -2L91
-9Z" />
<glyph unicode="G" glyph-name="G" horiz-adv-x="759" d="M733 334Q733 328 734 326V154Q733 150 732 146T731 136V132Q731 71 729 41T722 0Q710 0 700 0T682 -2H661Q651 -2 651 -2Q649 0 649 0H645Q644 -1 644 -2H518Q517 -3 510 -3Q505 -3 503 3Q497 21 494
42Q493 47 493 56T491 75Q481 29 437 3T320 -24Q281 -24 247 -15T181 10Q113 40 67 123T20 346Q20 426 50 488T134 596Q184 638 266 661T440 684Q463 684 493 682T567 673Q575 673 591 670L621 665Q638 662 650 660T670 657L673 655Q674 653 677 650Q682 644 685
644H687L689 626Q689 619 689 611T691 595Q693 572 694 557T696 530Q696 485 674 468L564 488H550Q534 488 520 490T485 490Q484 490 484 490T483 489Q422 489 387 459T352 342Q352 274 359 242T377 195Q388 179 408 169T449 159Q461 159 465 164T485 183Q485 191
485 197T483 219L482 238Q481 249 481 275T481 322V346Q481 356 484 359T494 362Q497 361 512 361H616Q639 361 654 361T676 362Q690 362 698 362T711 361Q724 359 728 353T733 334Z" />
<glyph unicode="H" glyph-name="H" horiz-adv-x="879" d="M238 -5Q175 -5 136 -3T60 9Q56 9 53 19T49 35L30 387V408Q30 412 30 418T31 432Q32 442 32 453T32 481L34 533V563Q34 578 34 592T36 620Q36 631 38 634V637Q39 638 41 640T46 644Q52 648 55 651Q64 660
84 660H158Q163 659 172 659T195 659Q209 659 221 659T241 658H340Q366 658 376 650T387 615V605Q387 601 386 597Q385 593 385 589L383 574V561Q383 556 384 553Q385 550 385 542Q385 529 385 520T384 504L383 463H410Q422 460 439 459T465 458Q470 457 476 457T492
456L493 524Q494 529 494 535T494 550L495 591V600Q495 614 496 626T499 645Q508 654 514 654Q517 655 523 655T543 656H569Q583 656 595 656T617 658H674Q714 658 740 658T780 660H807Q831 660 838 655Q849 648 849 620Q849 601 849 575T847 515Q844 452 844 413Q844
407 845 403T847 397V393L822 23Q822 19 814 10T799 1H524Q523 1 522 3T518 6Q515 12 514 18T511 33L508 54L497 239H490Q476 239 466 239T446 240Q428 241 417 241T400 242H391Q383 242 383 225V68Q383 62 382 48T377 19T362 1L346 0Q307 -2 281 -3T238 -5Z" />
<glyph unicode="I" glyph-name="I" horiz-adv-x="408" d="M103 -19L77 -23Q63 -23 57 -9T49 23T47 50Q47 69 46 72Q45 89 44 115T40 178L36 222Q32 274 31 310T30 372V651Q30 661 46 664T83 668Q89 668 97 668T113 667Q121 666 127 666T137 665Q145 664 159 664T191
663L195 666H245Q250 663 254 663H258Q260 665 271 665Q272 666 273 666H275Q279 666 283 665L290 663H351Q365 663 370 657T375 645L378 464Q378 461 377 458L374 441Q370 420 370 404T370 375V151L367 108Q366 93 365 81T365 60Q365 15 354 0Q348 -9 334 -9L333
-7L328 -6Q326 -6 326 -7H321Q318 -8 316 -9T313 -11Q310 -11 303 -10T286 -7L270 -6Q265 -6 264 -11H161L131 -16L103 -19Z" />
<glyph unicode="J" glyph-name="J" horiz-adv-x="562" d="M271 -12Q250 -14 232 -14T194 -13Q161 -13 139 -10T98 0T50 21L6 42Q5 43 5 47L7 68Q8 73 9 78T11 88Q11 94 11 111T11 149T13 188T15 213Q15 219 15 223T16 229Q16 231 17 233Q17 234 19 236T29 233Q65
221 82 215T110 206T135 203Q144 203 153 210T166 233Q168 236 173 254Q175 263 176 268T177 274Q178 278 178 287T178 309Q178 332 179 374T181 481V524L180 633Q180 649 187 655T203 663T215 665L295 666H483Q511 666 521 656Q523 652 525 647T527 632Q527 619
528 610T530 595V387Q528 387 528 378V370Q527 365 528 359Q528 352 527 349Q526 345 526 339T526 323V306L525 298Q525 259 524 233T517 180Q502 91 437 41T271 -12Z" />
<glyph unicode="K" glyph-name="K" horiz-adv-x="808" d="M550 15L537 26Q529 32 529 33L447 127Q446 129 445 131T438 138Q434 142 431 146T424 153L401 172Q392 163 381 150T362 128T354 116L351 36V5Q351 -5 344 -6Q340 -10 329 -8Q302 -9 283 -9T251 -9H119Q104
-9 99 -8H93L48 -4L43 4Q40 4 42 15Q44 23 43 30T41 45V83Q40 92 40 103T39 129L38 208Q38 230 32 281L31 307Q30 324 30 336T30 356V366Q32 373 32 385T32 415L31 435Q31 438 31 441T30 447V465Q31 474 31 486T32 515V550Q31 558 31 571T31 600Q30 606 30 620V629Q27
653 54 656Q62 660 78 660H349Q363 660 364 642Q366 640 366 629V616Q366 603 365 584T364 539L361 442Q366 442 374 449T390 464T396 470L472 545Q498 571 532 604T594 664Q605 671 613 672T625 675Q623 675 628 671T639 664T639 667Q658 659 664 647T686 625Q700
615 713 607T739 585Q746 578 758 567T781 546T796 528L797 526Q800 520 786 505T754 473L719 439Q707 428 701 418Q700 418 700 417T698 416Q696 416 694 412L668 390L658 378Q656 378 651 371L638 358L610 336Q614 333 615 331T619 325Q636 312 646 300T678 266Q694
250 715 228T757 182T796 139Q801 132 804 128T808 118Q808 112 807 109T799 99Q790 90 786 82T772 70Q755 68 750 56T729 35Q720 30 719 26T708 15L680 -12Q670 -19 667 -25T643 -39Q621 -57 598 -34Q597 -32 587 -21T565 3T550 15Z" />
<glyph unicode="L" glyph-name="L" horiz-adv-x="615" d="M517 -10H366Q313 -10 274 -10T211 -9Q188 -9 171 -9T143 -8L58 -7Q48 -7 40 1T31 20V347L30 403Q29 447 32 486T36 580V604Q36 635 46 651Q51 660 64 660Q90 660 117 660T174 658Q178 657 185 657T199
657Q216 657 228 657T249 656H331Q350 656 365 649T380 603L379 595Q379 593 379 589T378 578Q374 565 374 556Q374 550 375 543T378 527Q378 521 378 517T379 511L380 505V243Q380 234 386 233T402 231H478Q493 231 514 231T564 232Q575 232 582 226T590 212V11Q590
4 581 -1T560 -7Q547 -10 517 -10Z" />
<glyph unicode="M" glyph-name="M" horiz-adv-x="951" d="M145 -10Q140 -10 136 -10T129 -8H84L40 3L36 10Q35 10 35 21Q35 28 35 34T34 44L33 90Q32 98 32 108T32 134L30 210Q30 223 30 240T32 279L33 312Q34 328 34 354T35 416V436Q33 440 33 447L32 454Q32
479 35 506Q36 523 36 538T37 567L36 595Q35 600 35 606T35 620Q35 622 34 623Q32 625 32 627Q32 637 40 644T60 654Q68 656 77 657T100 659H305Q306 659 308 657L312 654Q321 645 332 627Q335 621 340 614T358 591Q362 583 364 570T377 542L400 511Q404 504 408
494T418 469Q420 465 421 461T425 453L431 437Q432 431 436 427Q437 425 437 424T438 422Q442 414 454 401T471 387Q476 387 479 400T486 422Q487 423 488 427Q489 429 490 431T493 438L508 471L548 555L565 591Q567 595 568 598T570 605Q572 610 573 611Q575 616
579 623T591 642Q596 650 600 654Q602 655 604 657Q606 659 607 659H911Q913 659 916 644L919 547Q920 526 920 494T921 416V359Q921 337 920 310T917 260T914 230L912 210V176Q913 169 913 159T913 134Q913 105 913 83T916 50V10L913 3L869 -8H824Q820 -9 816
-9T807 -10Q798 -10 786 -10T758 -8L733 -7Q726 -6 717 -5T695 -4L657 -1Q655 -1 654 -2H646Q642 -2 640 9Q634 27 634 76Q634 92 634 104T633 125L632 179Q631 188 631 201T631 230Q631 238 624 238Q620 238 616 228L605 202L596 177Q594 171 592 165T587 154L582
142Q574 122 560 97T523 55Q512 48 502 48H487Q482 48 477 48T468 50H426Q406 82 378 116T332 189L307 225Q303 231 302 234T299 238Q292 238 292 230V184Q292 115 290 73T283 10Q282 -2 278 -2H271L266 -1Q249 -2 236 -3T212 -5Q200 -6 186 -8T145 -10Z" />
<glyph unicode="N" glyph-name="N" horiz-adv-x="807" d="M152 -5Q147 -5 143 -5T135 -4H90L46 7L44 14Q42 14 42 24Q41 41 41 58T40 94Q40 108 40 119T38 137Q38 152 38 163T37 181V215Q32 260 31 315T30 420L32 521Q33 529 33 543T33 573Q33 591 33 604T32 624Q29
647 42 655T79 663Q92 663 98 663T114 664T144 665L167 666Q195 668 213 669T239 671Q254 671 264 671T280 666Q284 663 292 652T303 638Q310 630 311 630T318 622Q327 609 333 598T346 580L481 451L514 421Q514 434 514 445T515 464V555L518 625Q519 630 519 632T520
636Q520 638 523 641Q524 642 526 642Q538 654 550 657Q559 660 566 660H634Q638 659 645 659T663 659Q671 659 667 659T657 659T657 657H731Q757 657 767 650T777 616L776 606L775 589Q773 586 773 574V554L776 543V513Q775 505 775 490T775 455V382Q774 369 774
351T773 310V63L769 23Q766 4 752 -3L736 -4L719 -3H580Q561 -4 547 1T522 14L352 176Q352 177 345 184T330 200T316 214Q315 216 314 218T311 221Q310 221 310 221T308 222Q298 222 298 215V193Q297 188 297 180T297 160V83Q296 77 295 70T294 55V20L296 14Q296
12 294 9T288 6Q284 3 274 5Q255 4 242 2T220 -1Q211 -2 196 -3T168 -4T152 -5Z" />
<glyph unicode="O" glyph-name="O" horiz-adv-x="809" d="M412 -26Q298 -26 210 -1T76 91Q48 133 34 189T20 318Q20 506 110 599Q157 647 238 669T422 692Q476 692 534 678T644 636T729 563Q760 523 774 470T789 361Q789 284 779 223T745 119Q702 40 618 7T412
-26ZM416 104Q426 104 433 115T455 139Q468 152 475 179T485 242T488 309V365Q488 386 486 417T477 480T456 532T416 553Q398 553 387 544T368 517Q356 492 353 467T349 421Q347 403 347 383T346 326Q346 301 346 282T349 245Q349 227 354 200T368 147Q382 104
416 104Z" />
<glyph unicode="P" glyph-name="P" horiz-adv-x="788" d="M140 -6H62Q44 -6 40 16Q35 28 35 56Q35 100 35 138T33 211Q32 260 31 311T30 418V638Q30 647 38 655T56 664L171 663Q187 663 208 663T255 662Q293 662 322 662T371 663L408 664Q438 665 463 665T507
666Q570 666 631 647T736 579Q783 526 783 436Q783 284 706 216Q639 152 503 152H366Q367 141 367 129T367 103V82Q367 75 367 67T366 48Q366 15 354 6T311 -3Q289 -3 274 -3T250 -4Q216 -4 188 -5T140 -6ZM392 262H421Q444 262 454 295T467 382Q468 396 468 412T469
447V458Q469 474 464 498T454 533Q449 544 443 550T427 556Q421 556 408 558T391 554Q379 536 380 501T379 413Q377 369 376 344T374 302T375 265Q375 265 379 263L392 262Z" />
<glyph unicode="Q" glyph-name="Q" horiz-adv-x="801" d="M457 -214Q456 -214 450 -211Q444 -209 426 -191L423 -186Q420 -186 418 -184L414 -181L336 -55Q334 -50 330 -43T321 -29Q233 -24 166 5T62 99Q41 134 31 186T20 322Q20 373 30 426T60 527T113 604Q160
648 235 668T418 689Q460 689 500 684T577 665Q639 644 684 601T755 497T781 363Q781 248 760 173T699 54T598 -9Q631 -51 647 -75T663 -114Q663 -123 656 -130T631 -150L602 -164Q599 -166 596 -168T590 -172L580 -179L561 -184Q557 -186 552 -187T542 -191H538Q534
-191 529 -194Q517 -198 505 -202T481 -208Q477 -209 474 -209T467 -210Q467 -214 463 -214H457ZM413 91Q429 91 444 103Q468 135 476 180T485 296V353Q482 400 479 432T469 488T444 535Q429 551 413 551Q383 551 363 514Q356 493 353 470T347 422Q344 386 344
313Q344 265 347 230Q349 207 351 184T363 136Q382 91 413 91Z" />
<glyph unicode="R" glyph-name="R" horiz-adv-x="808" d="M567 -44Q561 -44 559 -43Q545 -34 536 -23Q534 -21 534 -20T532 -18Q530 -16 529 -16H528L523 -12L425 119Q423 126 419 132T409 146Q405 149 402 152T397 160Q393 166 389 166Q385 166 383 155Q381 142
381 115T380 65Q380 25 375 -3Q374 -15 367 -15H360L357 -13H356Q333 -15 294 -17T217 -22T155 -24Q150 -24 146 -24T139 -22H92L58 -10L55 -3V1Q54 3 54 9Q54 11 53 16T51 30Q48 59 48 80T48 95Q47 108 45 130T41 183L39 218Q39 253 36 272L33 293Q30 313 30 331T31
366Q31 368 32 369V378Q33 382 33 396L35 413L36 424Q36 444 33 484Q30 508 30 545Q30 571 31 591T37 623Q44 658 66 658Q120 658 175 657T286 655Q299 655 317 655T361 653L398 652L534 650Q657 646 722 588Q751 564 765 530T779 458Q779 415 765 381T724 321Q699
298 669 284Q673 283 678 276T685 260Q687 256 690 255T698 248L711 232L718 225Q721 222 722 220T726 214L757 168Q771 148 781 135T796 111Q803 98 803 92Q803 75 773 55Q766 51 760 47T746 39Q730 32 723 25L689 1Q679 -6 669 -9T648 -16Q646 -16 646 -17Q646
-18 645 -18T641 -19Q638 -22 610 -30Q605 -33 593 -35Q586 -40 580 -40H576Q574 -44 573 -44H567ZM378 305H392Q422 305 434 333T448 396Q449 407 449 419T450 445V455Q450 478 447 505T421 546Q408 555 392 555Q387 555 385 543Q377 522 375 475Q374 466 373
455T371 431L370 402Q369 374 369 351T369 309Q369 306 371 306L378 305Z" />
<glyph unicode="S" glyph-name="S" horiz-adv-x="613" d="M278 -34Q211 -34 152 -18T49 27Q44 51 40 74T31 127T20 201V204Q22 213 34 221Q69 198 98 187T146 176H176L193 175Q216 175 236 182Q262 192 265 208T253 238T204 256Q158 262 116 291T48 364T21 458Q21
547 70 596T195 668Q262 687 343 687Q366 687 394 685T464 676Q473 671 491 670L517 664Q534 660 545 660T564 659Q565 659 565 659T567 658Q569 657 571 655Q573 650 575 649T578 647H580L582 625Q582 616 583 609T585 594Q587 581 588 568T589 540Q589 491 569
476L482 487H468Q461 487 442 488T402 489T365 484T349 469Q349 457 356 446T380 426Q387 422 393 418T406 412Q414 410 419 408T425 405Q460 393 489 376T546 331Q575 303 585 265T593 189Q584 114 540 60Q515 35 486 18T423 -12Q363 -34 278 -34Z" />
<glyph unicode="T" glyph-name="T" horiz-adv-x="672" d="M213 -10Q202 -10 192 9Q177 42 177 127Q177 168 177 225T180 336Q181 353 181 380T181 447H41Q15 447 9 501Q8 515 7 536T5 585V599Q5 604 5 607T6 614V638Q6 644 12 648T25 654Q36 657 55 657H158Q171
657 180 657T196 656L231 655H581Q601 655 613 655T631 654Q633 654 637 654T645 653Q654 652 660 649T667 642V465Q667 452 660 450T644 447H507V394Q507 387 507 381T506 371Q506 357 505 326T502 246L501 216Q500 197 499 172T496 137V43Q496 9 482 1Q475 -1
471 -2T464 -4L441 -5Q422 -6 408 -6T386 -7L283 -9Q274 -9 257 -9T213 -10Z" />
<glyph unicode="U" glyph-name="U" horiz-adv-x="813" d="M779 641Q783 641 783 635Q783 535 783 453T781 301T778 166T771 33Q771 16 765 6T755 -8L751 -12L748 -14Q747 -13 740 -12T728 -10L724 -12Q722 -14 720 -14Q696 -18 661 -20T575 -22H524Q510 -22 498
-21T474 -17Q470 -15 466 -6T457 26Q455 35 452 40Q451 42 455 44T457 46L452 49H451Q424 19 387 2T310 -22T233 -30Q171 -30 131 -8T69 50T40 130Q36 156 33 195T30 296Q30 333 31 372T35 454Q35 459 37 469T40 492Q40 512 40 545T41 605Q41 613 41 619T40 626Q40
632 39 638T38 648Q38 656 46 658T71 661H129Q159 661 188 661T248 659Q326 654 344 631Q346 626 347 612T348 581Q348 538 348 507T347 447V425Q347 415 347 399T346 359Q345 316 346 278T344 210Q338 164 359 145T416 144Q424 147 429 152T438 163V545Q436 557
435 567T433 584Q432 586 432 590T432 600V629Q432 643 436 647T450 652Q457 652 457 646V644Q468 649 502 652T575 655H644L765 652Q770 652 770 649Q771 649 771 648V641Q770 641 770 637L776 639Q778 641 779 641Z" />
<glyph unicode="V" glyph-name="V" horiz-adv-x="786" d="M270 -16Q263 -16 257 -15T242 -12Q235 -11 228 -10T215 -9Q213 -9 213 -10H207Q197 -4 197 0L126 211Q115 244 100 293T65 398T18 510Q17 512 17 519L14 532Q12 541 11 545T10 558Q10 566 7 577T6 600T28
619L51 629L132 647Q133 647 136 647T140 647Q142 646 142 649T144 653Q144 653 145 653T147 653Q148 654 149 654Q152 655 153 655T158 656L164 659L184 660L247 672Q269 679 281 671T300 648T310 624L327 579Q330 572 337 549T353 500T365 460L366 456Q366 450
367 446Q372 442 375 434T380 420L386 399L399 370L419 309L425 294L435 277Q435 279 440 288T450 307T455 319L467 366L477 402Q479 407 479 412T481 422L484 438L487 453Q489 463 494 471T504 499Q527 590 538 635T572 674L615 672L691 664Q696 664 702 660T713
657L744 654Q758 653 772 638T778 605Q778 600 777 592T773 565Q772 561 770 557T768 551Q767 548 767 546T766 543Q756 511 742 462T713 359T686 259T666 186L614 0Q614 -3 604 -10H601L597 -9Q593 -9 590 -9T583 -12Q579 -16 571 -16Q556 -16 544 -12Q536 -11
530 -11T518 -10Q486 -12 439 -13T346 -15T270 -16Z" />
<glyph unicode="W" glyph-name="W" horiz-adv-x="1119" d="M468 8Q462 -9 434 -9H200Q196 -9 192 -9T185 -7Q180 -4 175 -4T167 -3H156Q147 -2 147 8L75 315Q67 348 63 361T57 381T53 399T45 438Q40 441 35 458T27 497Q24 542 18 569T8 611T5 633T20 644Q43 646
66 648T106 653T123 655L152 660H161L186 666H192Q193 668 194 668H195V666Q196 666 197 666T199 667Q200 668 201 668Q206 669 212 670T219 672H223L231 674Q238 676 251 677T280 683Q297 691 303 670T318 611Q318 607 318 606T321 596T329 559T344 469V466Q345
464 345 458L349 439Q349 435 350 429T352 415Q353 412 353 410T354 403Q356 395 358 391T362 382Q364 378 364 372L366 363V360Q366 356 368 354V348L370 354V363Q370 364 371 367T373 372Q373 375 374 379T376 390Q376 397 379 403L381 415L391 439Q395 444 395
449T396 458L397 469Q402 493 411 522T429 576T443 614Q444 619 446 624T456 632Q457 632 458 633T461 635Q469 637 470 637Q481 638 489 639T501 640H519L641 636Q647 635 652 635T661 635Q672 635 672 632Q673 632 675 634Q676 635 679 635Q681 637 688 637H708Q723
637 727 632L766 457L768 445Q770 435 773 429T776 420L781 388Q782 379 783 371T785 359Q785 353 785 347T787 333Q789 332 789 330T791 327V323Q791 322 791 320T792 315L793 310Q795 313 798 315V333L802 359L807 388Q808 396 808 404T813 420L815 445L817 453V457Q821
472 823 481T826 498L830 518Q841 570 846 596T854 634T859 655Q862 674 869 683Q872 683 875 683T882 683Q887 684 890 684T896 684Q901 684 910 683T923 683H925Q927 683 939 680T952 677Q956 676 957 677T959 676Q961 675 963 675T966 675L972 672Q984 666 992
666L1027 661Q1048 658 1063 654T1083 650L1107 643Q1116 639 1115 620T1106 575T1093 527T1087 492Q1079 454 1074 429T1065 384T1055 343T1041 292L965 8Q958 7 956 2V-3H933L920 -6L772 -3H654Q644 -1 644 8L555 333L468 8Z" />
<glyph unicode="X" glyph-name="X" horiz-adv-x="784" d="M78 59L37 94Q33 97 31 100T28 105L29 123L32 128Q39 132 49 144T91 189L115 214Q126 225 143 243T175 278T192 296Q175 322 149 348T101 396T72 431Q69 433 60 443T44 463T37 470L13 504Q3 518 6 524T10
545Q13 545 18 551T25 558Q28 560 31 561Q33 564 45 575T69 597T84 611Q116 637 130 650T155 672T185 695L217 697Q219 697 227 693T239 685L302 616L364 553Q366 549 366 550Q366 546 370 542T376 537L381 535H382Q384 535 389 526T400 509T410 505L420 517L447
541Q455 548 474 567T517 609T558 650T581 672Q586 681 591 681Q605 686 612 682T626 672T639 665Q651 659 670 643T708 606T740 568T756 539Q755 527 750 521T733 501Q736 503 728 492T706 466T682 439T667 424Q659 414 641 395T607 360T588 341Q638 292 681 249T749
184Q771 163 776 149T778 127T773 115L764 99L759 97Q743 82 723 63T685 27T656 -1T644 -12Q624 -28 604 -38T569 -50L520 -7L523 1H517Q516 0 515 2T510 5Q485 36 466 54T432 84T407 111Q398 120 396 122T397 122Q389 131 387 133T382 136L351 104L240 -4L221
-22L207 -40L193 -46L178 -37V-32H176Q173 -32 172 -33Q173 -34 171 -34Q171 -33 172 -33Q171 -28 160 -16T132 10T101 38T78 59Z" />
<glyph unicode="Y" glyph-name="Y" horiz-adv-x="734" d="M391 -65V-59H388Q386 -59 386 -60L383 -61Q380 -61 380 -59L365 -56Q357 -54 338 -46T301 -28T281 -18Q276 -18 273 -13T267 -7L212 18Q199 24 190 33T176 44L152 60Q146 66 146 70Q146 81 151 91T161
111Q163 114 165 123T170 138Q172 144 183 162T217 220Q213 223 215 226T222 234T225 246T211 266Q203 274 198 280T194 296Q189 294 189 293H187L185 294Q182 297 182 297Q173 310 165 315T149 326T130 352Q103 372 89 390T60 421Q45 441 27 461T4 488Q-1 495
8 512T37 553T78 600T123 646T162 680Q168 690 179 684T202 665T222 643Q227 640 229 639T234 635L240 624L242 627Q244 625 245 623T253 615Q271 600 288 584T327 544T385 486Q386 485 397 504T426 552T460 611T489 661Q496 674 503 676T527 671Q549 661 582 642T650
601T712 563Q719 559 727 551T728 529Q718 512 704 484T679 436L612 303L506 117Q505 117 497 103T477 66T451 21T427 -21T412 -46Q407 -59 402 -62T391 -65Z" />
<glyph unicode="Z" glyph-name="Z" horiz-adv-x="649" d="M552 -14H371Q319 -14 281 -14T217 -12Q195 -12 177 -12T148 -11L64 -10Q54 -10 46 -2T37 14V205L86 255L151 320L226 402Q228 407 231 410T238 419Q246 427 253 438T260 455Q260 463 255 463L60 464Q46
464 39 476T25 513Q22 526 21 545T20 590V605Q21 613 21 625T22 653Q23 655 24 658T25 663L29 669Q37 677 49 677Q54 677 56 676T61 674L74 673Q93 673 112 674T151 677Q174 678 193 679T225 680Q301 680 371 683H521Q583 683 610 677L627 669L629 661V494Q629
485 624 463Q618 449 612 436T595 408Q564 365 519 312T414 197H600Q610 197 618 191T626 177V9Q626 -1 620 -4T597 -10Q590 -11 579 -12T552 -14Z" />
<glyph unicode="[" glyph-name="bracketleft" horiz-adv-x="488" d="M187 -68Q181 -68 168 -67T135 -63Q122 -61 108 -60T81 -59Q75 -59 64 -59T37 -61L32 -56V-46Q31 -37 31 -24T30 0V15Q30 54 30 67T31 88L33 126V563L32 584Q31 602 31 615T30 638V689Q30 702
34 714T39 735V745L44 750Q52 749 64 752T91 756Q104 756 118 756T145 758L187 759Q222 760 232 760T252 760Q268 760 272 760T280 761H310Q324 762 346 762T390 763Q391 763 400 766T427 764Q436 761 441 760T450 758Q452 757 453 756T455 754Q458 753 458 750V600Q458
593 452 586T438 578Q421 583 402 582T362 580Q346 580 337 575Q331 552 329 526T326 453V429Q325 425 325 416T325 368V364L322 358L320 348Q320 346 320 342T322 333Q323 332 323 331T324 328Q325 327 325 324V320Q325 283 325 273T326 258V234Q326 186 328 158T337
108Q346 103 362 103Q379 103 382 102Q387 101 391 101T400 101Q406 100 438 100Q443 100 450 96T458 88V-53Q458 -55 450 -58L403 -64H394Q393 -65 390 -65Q362 -65 340 -65T300 -66Q258 -66 249 -67L187 -68Z" />
<glyph unicode="\" glyph-name="backslash" horiz-adv-x="423" d="M362 -11Q351 -11 348 -10H336L330 -9H247Q247 -8 247 -8T246 -8Q247 -8 243 -6Q237 -5 236 -8L229 -9H226L221 -8H209Q194 -5 179 -5Q168 14 157 73Q147 110 144 131L129 199L126 215Q124 223
122 232T117 253Q112 279 106 298Q103 312 101 323T95 345Q92 366 86 381L83 396L82 403Q77 420 75 429T71 443Q70 445 69 448T68 455Q67 459 66 462T63 468Q62 473 61 477T59 485Q58 489 57 492T55 499Q51 522 45 538Q41 563 38 586T35 627Q35 676 56 676L61 673L67
675V676H80Q85 680 99 680H101Q102 679 103 679Q104 679 105 678H110Q110 676 113 676Q117 676 117 680Q127 680 129 681H143Q160 681 165 676Q166 676 167 676T170 678Q171 679 174 679L183 681Q196 681 208 678Q219 675 230 675H233Q234 676 237 676Q237 674
238 674Q240 673 243 668Q244 668 244 665L322 339Q337 269 351 205T376 81L378 68Q381 52 382 44T383 28Q384 26 384 18Q384 -11 370 -11H362Z" />
<glyph unicode="]" glyph-name="bracketright" horiz-adv-x="488" d="M61 -66Q52 -63 47 -62T38 -60Q37 -58 36 -58T33 -56Q30 -54 30 -52V98Q30 105 36 112T50 120Q67 115 86 116T126 118Q142 118 151 123Q157 146 159 172T162 245V269Q163 273 163 283T163 330V334L166
340L168 350Q168 352 168 356T166 365Q165 367 165 368T164 370Q163 371 163 374V378Q163 416 163 426T162 440V464Q162 512 160 540T151 590Q142 595 126 595Q121 595 116 595T106 596Q103 597 88 597Q84 598 78 598T50 598Q45 598 38 602T30 610V751Q30 753 38
756L85 762H94Q96 763 98 763Q137 763 156 763T188 764Q216 764 224 764T239 765L301 766Q307 766 320 765T353 761Q367 759 380 758T407 757Q413 757 424 757T451 759L456 754V744Q457 735 457 723T458 698V683Q458 644 458 631T457 610L455 572V135L456 114Q457
96 457 83T458 60V9Q458 -4 454 -16T449 -37V-47L444 -52Q436 -51 424 -54T397 -58Q385 -58 371 -58T343 -60L301 -61Q266 -62 256 -62T236 -62Q226 -62 220 -62T208 -63H178Q164 -64 142 -64T98 -65Q97 -65 88 -67T61 -66Z" />
<glyph unicode="^" glyph-name="asciicircum" horiz-adv-x="606" d="M60 148Q53 148 51 153T48 173Q50 179 50 184T52 194L54 206Q64 252 73 302T93 388L153 593Q153 598 158 600H248L280 599H425Q432 599 434 600H448Q453 598 453 593L514 388Q522 357 532 307T553
206L555 193Q558 181 558 169Q558 156 556 152T546 148H430V150Q429 151 424 151L423 150Q423 148 421 148L415 149L386 151H373Q358 173 351 255Q348 269 346 280T343 298Q343 301 342 302Q341 306 340 311T338 321L335 336Q334 339 334 343T333 353Q332 368 329
373Q328 381 326 396T321 425T318 436Q318 443 317 444Q316 446 316 448V450L314 458Q313 454 312 448T309 434V429Q308 426 309 423V420Q308 418 308 413Q306 403 304 392T298 360L289 308L288 298Q283 276 279 246T273 199Q265 167 259 151L219 150L198 148H195Q191
148 189 150Q188 153 183 150Q180 150 180 148H60Z" />
<glyph unicode="_" glyph-name="underscore" horiz-adv-x="589" d="M533 -83Q533 -99 516 -103T468 -108H150Q139 -107 123 -107T83 -106Q75 -106 67 -99T58 -81V64Q58 87 86 93Q90 94 96 94T113 94H424L456 93Q461 92 468 91T479 90Q515 90 522 79T530 36Q530
16 530 5T532 -15L533 -44V-83Z" />
<glyph unicode="`" glyph-name="grave" horiz-adv-x="600" d="M291 656H254Q250 656 247 659T237 671Q231 681 226 688T213 708T186 745L173 769Q171 773 167 779T158 794Q145 816 138 829T128 846Q124 853 122 858T118 865Q115 871 115 875Q115 881 121 884Q127
888 148 892H153Q153 891 155 891L163 894L205 896L211 897Q214 897 215 898Q216 899 218 899H228Q234 899 238 897L244 900L303 897L346 890L354 884Q364 849 374 814T396 738Q397 730 400 717T404 686Q404 656 385 656H302L299 659L291 656Z" />
<glyph unicode="a" glyph-name="a" horiz-adv-x="625" d="M194 -28Q100 -32 53 11T2 149Q1 189 9 213T46 269Q76 305 114 320T216 337Q241 338 259 338T288 338Q317 337 333 338Q330 369 313 382Q303 390 285 393T233 397H153Q143 397 143 397T133 396H125L66
389Q52 394 52 428Q52 434 52 440T52 463T50 516Q52 523 51 534L52 549Q56 549 58 551L63 557Q64 559 66 559Q70 559 77 560T95 564L117 568Q125 570 129 570Q157 576 166 578T191 581Q248 584 303 583T401 576T465 562Q527 537 556 490T587 359L591 213Q592 185
593 164T594 134L595 112Q591 92 590 78T589 46Q591 16 587 5T569 -8L407 -13Q399 -11 369 -12Q358 -13 350 -11T334 -5Q320 1 320 25V37Q320 39 321 40V43Q319 45 318 45Q298 14 264 -6T194 -28ZM270 132Q315 132 328 180L329 199Q330 219 317 236T289 253Q270
252 257 236T245 200L249 162Q257 132 270 132ZM322 41Q322 41 322 41V41Z" />
<glyph unicode="b" glyph-name="b" horiz-adv-x="736" d="M31 490Q31 528 31 553T31 600T30 653T30 731Q30 736 30 743T37 756T64 760L122 764L127 760Q146 760 170 761T203 763Q208 763 214 763T228 765Q236 766 244 766T260 766Q282 766 298 763T315 748V696L314
639H315V532Q318 532 335 543T383 565T456 577Q504 577 541 571T609 545T668 487Q680 471 689 444T704 385T713 321T716 267Q716 162 689 100T613 9T499 -19Q457 -19 412 1T341 55Q339 55 338 53Q338 52 338 52Q339 50 339 48Q341 41 338 31T331 12T325 2Q311 -7
282 -7Q265 -7 253 -7T234 -9H133L66 -10Q48 -10 43 6T38 51Q38 71 37 89T34 125V155Q33 166 33 189T32 247V465L31 487V490ZM383 159Q407 159 420 174T443 213Q448 228 450 242T453 274Q453 283 452 308T447 351Q440 392 433 415T413 438Q382 438 367 412T349
356Q349 352 348 348T346 338L345 328Q344 311 345 297T349 269Q349 224 358 191Q367 159 383 159ZM338 52Q338 49 338 52Q338 52 338 53Q338 53 338 53Q339 55 338 60Q338 56 338 53V52Z" />
<glyph unicode="c" glyph-name="c" horiz-adv-x="544" d="M497 185Q508 178 508 170V168Q528 119 529 38Q501 7 451 -10T342 -28Q205 -28 115 47Q76 79 54 135T20 280Q20 355 44 416T115 514Q165 555 214 573T327 591Q340 591 349 590T371 587T408 581Q412 581
417 581T429 580L453 574Q471 569 484 569Q487 569 488 566Q490 565 490 564T492 561Q495 557 498 557H500L502 540Q502 537 502 531T504 514Q505 496 505 484T506 460Q506 435 503 424T488 407L421 416H410Q401 416 399 416T395 417T381 417L380 416Q349 416 329
381T308 289Q308 217 324 186T382 148L415 152Q431 154 448 164T497 185Z" />
<glyph unicode="d" glyph-name="d" horiz-adv-x="755" d="M248 -29Q193 -29 141 2T62 89Q19 148 20 300Q21 387 53 450T134 547T238 581Q263 581 298 580T368 570T429 539L430 573V633H431L430 700V752Q430 763 448 766T495 770Q503 770 511 770T527 769Q535 768
541 768T552 767Q561 766 585 765T628 764L633 768L691 764Q712 766 718 761T725 748T725 735Q725 687 725 656T725 600T724 549T724 484V481L723 459V241Q723 207 723 184T721 149V119Q719 101 718 84T717 46Q717 18 712 2T689 -15L622 -14H521Q515 -12 503 -12T473
-12Q444 -12 430 -3Q419 2 417 16T416 41Q417 45 417 48T417 53Q416 54 416 59L407 30Q388 2 366 -10T316 -25T248 -29ZM385 156Q391 158 396 169T406 194Q410 208 412 226T415 264Q418 275 419 287T420 316L419 322Q418 328 418 332T417 340Q416 358 410 377T392
411T363 425Q352 425 344 407T326 345Q324 336 324 320T326 290T326 269Q327 259 327 242T329 208T333 183Q333 156 348 154T385 156Z" />
<glyph unicode="e" glyph-name="e" horiz-adv-x="608" d="M327 594Q331 594 336 594T348 592Q350 592 355 592T366 591Q387 591 443 574H449Q456 574 460 571Q461 570 462 569T464 567Q469 567 470 564L489 548Q538 506 563 433Q586 366 586 293L578 274L310 269L281
268L282 242L286 218L295 194L321 171Q332 162 352 156T395 150H400Q417 150 442 157T495 172L551 186L563 171L581 44L570 26Q524 4 487 -8T418 -24Q390 -27 370 -29T331 -32Q301 -32 277 -26T227 -17Q190 -13 157 8Q87 62 55 127T20 284Q18 387 60 464L65 481Q69
483 69 484T71 486L73 490L79 494Q114 560 192 584Q239 594 327 594ZM327 473Q324 473 320 473T314 467Q312 461 305 459T295 434Q292 409 290 395T297 381L363 382L360 412L357 431L353 452Q353 456 352 458T349 464L339 471Q333 473 327 473Z" />
<glyph unicode="f" glyph-name="f" horiz-adv-x="481" d="M126 -6Q109 -6 103 4T96 41Q96 64 94 76T87 99V367H73Q44 367 32 369T15 376Q7 379 7 389V511Q6 515 6 519T5 542Q5 550 15 555Q23 563 34 563H87V582Q87 632 112 673T183 738Q225 760 258 771T326 786T400
784Q414 782 425 782T442 781Q443 781 445 779L450 777Q452 776 453 776T457 775L460 765Q460 756 460 754T462 748Q462 708 463 694T464 671Q464 646 461 637T446 626L401 622Q377 614 365 606Q358 601 355 591T353 559H411Q440 559 456 554T473 538Q473 526 473
523T474 518Q476 512 476 509T475 503V484Q475 449 475 442T476 429V409Q476 391 472 379Q470 362 450 362H411Q407 363 402 363T382 363L365 365Q362 263 359 182T351 53T344 4Q329 -3 298 -3Q279 -3 275 -3T263 -5H198L126 -6Z" />
<glyph unicode="g" glyph-name="g" horiz-adv-x="657" d="M321 -252Q289 -252 273 -251T245 -247T216 -243Q175 -234 156 -225T119 -200H108L107 -193H99L92 -184Q77 -168 67 -157T51 -128T45 -75Q45 -55 62 -28T105 16Q34 41 37 108Q39 137 64 161T132 209L158
223H162Q139 228 113 241T79 264H70V272Q69 272 68 272T65 273L56 285Q38 308 29 344T20 417Q23 473 57 512T167 581Q186 592 205 595T244 600Q269 600 298 599T355 598H360Q364 598 364 597Q373 598 397 597Q411 596 420 595T439 590L458 584Q469 581 471 587T473
604T475 621Q483 638 493 659T517 708L524 709L554 700Q561 700 563 698Q566 694 568 693T571 690L591 682Q595 684 602 680L615 675L618 672Q622 672 623 671Q626 668 626 668Q628 670 628 667Q630 667 631 666L634 664L656 654L659 650Q663 650 663 649Q666 646
668 646L673 643Q679 637 675 633Q668 625 662 618T631 587Q629 584 626 582T620 577L605 566Q600 562 600 560L591 551Q588 548 583 543T574 533Q628 486 623 399Q621 368 613 335T594 286Q581 264 558 246T511 219L491 212Q488 211 485 209H479Q477 208 469 206T439
198Q433 197 426 197T417 198Q404 198 397 198T387 198Q382 197 375 198T362 199Q332 202 318 196T304 179T313 161T340 151Q385 146 405 143T435 137T454 132T483 126Q665 99 664 -49Q662 -191 503 -236Q501 -236 500 -234T494 -236Q493 -237 489 -237Q483 -240
471 -240H464Q436 -240 412 -247T368 -252Q363 -251 354 -251T342 -252H321ZM330 318L350 319L368 335L373 338L379 352V361Q381 366 382 370T388 382V386L389 393L363 457Q359 474 348 477Q333 480 330 482T318 484Q316 484 311 483T299 479Q271 461 271 428V420Q271
403 273 388T280 367Q285 360 284 356T283 350Q283 340 292 334T312 322Q314 320 318 319T330 318ZM383 -106Q417 -99 436 -86T454 -60T427 -43Q417 -41 417 -40T413 -39H387Q386 -38 378 -37T361 -35Q350 -33 353 -33T348 -33Q335 -32 330 -31T320 -29T304 -27Q291
-26 275 -25T253 -24Q245 -24 245 -25T243 -29L239 -37Q233 -49 239 -67T258 -96Q275 -109 303 -111T383 -106Z" />
<glyph unicode="h" glyph-name="h" horiz-adv-x="695" d="M661 164Q661 159 659 150T657 130Q657 112 657 88T656 39Q656 33 656 28T657 21Q657 16 657 11T658 2Q658 -10 631 -10H582Q557 -10 533 -10T483 -8Q419 -7 402 17Q401 22 400 33T399 61Q399 99 399 122T400
170V189Q400 198 400 212T401 249Q403 287 401 320T402 381Q407 422 389 439T342 439Q321 428 319 409T318 375V10Q317 8 317 5Q316 2 313 2Q312 2 312 2T309 0Q309 0 304 -2Q286 -2 269 -3T236 -6H177Q136 -6 108 -4T56 7Q50 7 50 13Q45 21 45 33Q43 92 40 132T34
204Q31 242 31 289T30 393V422L31 466L33 518L34 655Q35 660 35 665T35 680V724Q35 735 35 742T36 753Q36 757 39 757Q48 757 56 761Q58 761 60 761T66 762Q68 762 71 762T76 761H233Q243 761 249 761T260 760L291 759Q311 759 315 750Q317 746 317 736T318 712V688Q318
675 319 670V652Q319 651 319 637T320 603T320 562T320 529T320 517V522Q354 556 401 565T495 575Q574 575 612 538T657 442Q660 419 662 389T665 304Q665 271 664 237T661 164Z" />
<glyph unicode="i" glyph-name="i" horiz-adv-x="343" d="M141 665L135 668Q135 670 133 670Q130 670 129 669Q128 668 125 668L116 666L109 668Q106 668 105 669Q104 670 101 670L78 673L71 676H66Q66 674 64 674Q57 674 55 675Q54 676 50 676Q42 681 39 692Q38
694 38 696T37 700Q36 701 36 702T35 705V800Q36 804 36 812V838Q36 851 34 856V858Q34 859 43 860T60 861Q68 861 70 861T74 860H88L108 858L127 852Q134 851 153 849T176 847Q181 847 195 844T214 842Q219 843 224 839T233 834Q251 837 270 829Q281 825 289 823T298
812L299 781Q300 752 303 734T303 683L296 676L211 668Q203 668 190 668T173 666Q169 665 165 665T156 665H141ZM249 -16L225 -13L179 -8L165 -9H130Q129 -5 124 -5L110 -6Q103 -7 97 -8T87 -9Q85 -7 80 -6H75Q75 -5 73 -5L70 -6L69 -7Q55 -7 50 1Q46 8 44 20T42
58Q43 65 43 74T40 103L37 144V427Q37 444 37 460T34 499Q33 508 31 515Q30 516 30 522Q32 562 47 575T107 589Q107 589 113 591Q116 592 120 592H121Q122 592 123 591Q132 591 134 589H138Q142 589 145 592L220 591Q224 591 229 591T241 593Q247 594 267 594Q313
594 313 578V424Q313 390 312 348T310 269T307 211L304 170Q302 136 301 111T299 70Q298 69 298 66T298 48Q298 21 291 5T272 -12L249 -16Z" />
<glyph unicode="j" glyph-name="j" horiz-adv-x="346" d="M162 665L155 667Q152 667 151 668Q150 669 147 669L124 672L117 675H112Q112 673 110 673Q94 673 73 673T50 675Q49 676 45 676Q37 681 34 692Q33 694 33 696T32 700Q31 701 31 702T30 705V800Q31 804
31 812V838L55 861Q63 861 65 861T69 860H83L103 858L122 852Q120 852 129 851T152 848T171 847Q176 847 190 844T209 842Q214 843 219 839T228 834Q246 837 265 829Q276 825 284 823T293 812L294 781Q295 752 298 734T298 683L291 676L206 668Q198 668 185 668T168
666Q163 665 162 665ZM102 -261Q78 -264 55 -264Q-1 -264 -58 -244L-93 -228V-223Q-93 -212 -93 -209T-92 -202Q-92 -196 -91 -194Q-90 -192 -90 -185Q-89 -177 -89 -173T-88 -167Q-88 -151 -88 -141T-86 -123Q-85 -120 -85 -107Q-85 -93 -74 -86T-50 -82Q-41 -86
-32 -86T-10 -86Q6 -86 16 -60Q18 -54 20 -48T22 -40Q23 -34 24 -30T26 -24Q26 -5 26 1T27 14Q28 19 28 70T28 245Q28 258 28 271T30 298V348L28 565Q32 573 32 573L34 574H39Q39 573 42 573Q52 573 62 576Q67 577 72 577T83 578Q92 578 100 578T118 576Q129 575
137 575T152 574Q157 579 172 579H183Q185 578 194 578Q196 578 198 576Q202 574 201 574Q203 574 203 575Q205 575 206 575T209 577Q211 578 215 578H216Q225 578 229 574H267L273 573L280 574Q297 574 306 544T316 455V59Q316 54 316 50T315 42Q315 31 314 29V14Q314
-56 307 -91Q293 -150 261 -184T157 -248Q135 -254 123 -256T102 -261Z" />
<glyph unicode="k" glyph-name="k" horiz-adv-x="667" d="M679 109Q687 99 687 91Q687 81 681 75Q673 68 669 63T659 55Q646 54 640 46T622 33Q618 32 605 24T581 10T570 6L552 -9Q544 -14 541 -18T523 -28Q506 -41 488 -23Q487 -21 480 -11T465 9T454 21L443
31Q438 38 438 38L360 137Q357 143 353 147Q350 152 347 154T342 159L321 193Q317 196 315 196L287 168L284 92V63Q284 53 284 53T283 50Q282 47 282 44T281 30V5Q281 -5 276 -6Q273 -9 265 -8Q255 -9 242 -9T206 -9H98Q85 -9 84 -8H79L43 -4L40 4V67Q39 74 39
85T38 105L36 183Q35 199 35 215T32 247V269Q32 283 31 293T30 311V319Q32 323 32 330T32 359V377Q32 383 32 384T31 387Q30 388 30 392Q30 400 31 403Q32 405 32 422T32 478T32 586V728Q31 733 31 737T30 745V754Q27 772 48 777Q60 779 67 779H279Q290 779 293
765Q294 764 294 763T294 754V741Q294 736 297 730T305 707T309 650Q310 624 308 586T301 492L299 470Q298 465 298 453T298 411Q303 417 310 426T327 446V446Q329 446 348 461T392 499Q435 537 462 561T514 607Q521 611 529 609T545 600Q555 593 563 585T575 571Q585
561 586 557T589 549T598 541Q609 531 614 529T628 512Q636 503 643 497T654 481V480Q654 475 647 465T619 437L535 361Q535 360 535 360T534 356L520 346Q518 344 512 341T506 330Q512 323 518 315T532 301Q539 298 546 286T562 262T581 245Q591 231 609 205T647
153T679 109ZM329 449Q331 451 329 449T327 446Q326 446 329 449Z" />
<glyph unicode="l" glyph-name="l" horiz-adv-x="353" d="M312 -15L298 -14L285 -12H269Q262 -11 249 -10T217 -8Q205 -8 202 -7Q198 -6 195 -6T189 -6H167L157 -5Q129 -6 115 -6T92 -7T73 -8H53L35 -9L32 -5V142Q32 150 32 159T30 177V201L34 244Q36 269 37 298T37
359Q33 467 32 537T33 649T42 714Q50 744 65 751L182 750Q187 749 195 749T225 749H273Q275 748 280 748T292 747Q315 746 321 729Q323 720 323 715T323 704L322 696V684Q319 677 316 670T314 654V639Q315 638 315 636T315 625L316 617V594L317 382Q318 379 318
374T318 354Q320 340 323 335Q323 323 322 320Q321 317 321 304Q320 298 321 289T320 268Q315 247 315 234T321 201Q321 135 317 87T312 -15Z" />
<glyph unicode="m" glyph-name="m" horiz-adv-x="986" d="M952 164Q952 159 950 150T948 130Q948 112 948 88T947 39Q947 29 947 26T948 21Q948 16 948 11T949 2Q949 -5 944 -7T922 -10H873Q854 -10 833 -10T774 -8Q709 -6 693 17Q690 26 690 61Q690 99 690 122T691
170V189Q691 212 691 224T692 249Q694 287 692 320T693 381Q698 425 689 439T648 449Q627 446 627 425T624 372L622 234L624 224L620 168Q620 162 618 153T616 134V19Q616 -3 591 -3Q558 -3 541 -3T513 -2T492 0Q470 3 461 1T442 -1T410 7Q405 17 405 58Q405 96
405 123T406 174Q408 178 408 194Q408 217 408 229T409 251Q411 294 409 329T410 392Q411 428 402 440T360 453Q346 454 340 445T331 424T327 407V393H326V12Q326 8 324 7Q323 6 323 0Q322 -3 318 -3Q315 -3 315 -3Q313 -5 312 -5T309 -5Q287 -5 270 -6T241 -9H180Q135
-9 108 -7T57 3Q50 3 50 9Q48 16 47 19T46 30Q43 88 40 131T35 207Q33 241 32 296T30 419V449L31 493L33 532L35 550Q35 563 36 565Q36 569 41 569Q48 569 57 573Q59 573 61 573T66 575Q74 575 77 573H239Q253 573 257 573T265 572L296 571Q323 570 326 530Q349
551 393 564T484 578Q524 578 558 559T611 506Q637 540 678 554T786 569Q855 569 898 536T948 442Q953 409 954 378T956 304Q956 271 955 237T952 164Z" />
<glyph unicode="n" glyph-name="n" horiz-adv-x="693" d="M580 -14Q555 -14 531 -14T481 -12Q417 -11 400 13Q399 18 398 29T397 57Q397 95 397 115T398 160V179Q398 188 398 202T399 239Q401 277 399 310T400 371Q405 412 387 429T340 429Q330 425 325 418T318
403V394Q318 396 318 397T319 399V383H318V6Q317 4 317 0Q316 -3 311 -3Q309 -3 308 -4Q307 -5 306 -5T303 -6Q286 -6 270 -7T238 -10H171Q131 -10 105 -8T55 3Q51 3 48 8Q45 15 45 28Q43 87 40 129T35 203Q32 241 31 297T30 411V439L31 483L33 523L35 550Q35 553
35 559T36 568Q36 571 39 571Q47 571 55 576Q56 576 58 576T64 577Q71 577 74 576H236Q244 576 250 576T261 575L289 574Q305 573 311 560T318 529L319 526V513Q353 551 400 565T493 580Q572 580 610 540T655 442Q658 419 660 384T663 294Q663 261 662 227T659
154Q659 149 657 140T655 120Q655 102 655 81T654 35Q654 29 654 24T655 17Q655 12 655 7T656 -2Q656 -14 629 -14H580Z" />
<glyph unicode="o" glyph-name="o" horiz-adv-x="675" d="M352 -32Q315 -32 276 -28T203 -16Q175 -9 155 1T119 29T83 76H72L71 92Q70 92 70 92T67 93L59 111Q16 193 20 287Q25 384 60 448T174 565Q196 578 216 582T255 590Q281 590 312 589T374 588H378Q380 588
380 587Q385 588 395 588T415 587Q492 581 546 534Q581 503 606 459T644 363T655 258Q654 219 644 185T622 116Q612 83 589 54T537 6L515 -8Q514 -9 514 -8T509 -11Q507 -13 504 -13Q500 -16 486 -16H480Q457 -23 433 -31T392 -32Q386 -29 381 -30T373 -32H352ZM350
87Q356 87 362 88T370 89L387 126Q388 129 389 132T390 140L397 152V174Q402 183 404 192T410 226V243L411 261L393 397Q387 445 365 449Q354 451 351 453T341 456Q338 457 331 459T317 455Q306 437 299 408T291 353V323Q291 314 291 288T293 234T300 186Q305 170
306 165T307 156Q307 118 333 98Q333 87 350 87Z" />
<glyph unicode="p" glyph-name="p" horiz-adv-x="702" d="M31 66V69L32 91V303Q32 342 32 359T32 383T34 394V433Q36 466 37 485T39 524Q39 556 44 568T64 581L126 580H219Q224 579 235 579T263 578Q289 578 304 569Q315 564 315 516Q359 572 466 572Q532 572
580 537T655 436T682 282Q682 251 674 211T653 136T626 82Q586 29 543 4T447 -21Q386 -21 350 -9T294 31V-113H293L294 -170V-221Q294 -239 243 -239Q233 -239 226 -239T214 -238Q206 -237 201 -236T190 -235Q182 -234 160 -234T120 -233L116 -237L62 -233Q43 -234
37 -229T30 -216T30 -203Q30 -109 30 -43T31 66ZM362 159Q377 162 383 186Q388 206 389 223T391 258Q393 266 394 280T395 321L394 327Q394 332 393 336T391 343Q388 377 373 397T336 418Q325 418 320 397T307 339Q306 326 304 301T302 262Q303 251 303 234T306
201T310 175Q311 159 322 156T362 159Z" />
<glyph unicode="q" glyph-name="q" horiz-adv-x="710" d="M676 28Q676 0 675 -30T674 -103T673 -209Q673 -214 673 -222T666 -235T640 -240L586 -243L582 -239Q564 -238 542 -238T512 -239Q507 -239 502 -240T488 -242Q481 -243 474 -243T459 -242Q436 -242 423
-237T409 -223L410 -171L412 -73H411L407 20Q390 -3 371 -16T324 -34T248 -39Q190 -39 138 -6T62 79Q19 137 20 290Q21 369 50 432T128 533T238 571Q336 571 395 513Q395 533 400 550T412 570Q432 579 453 578Q491 577 497 579L590 577H652Q667 577 672 564T676
515Q676 504 676 480T677 432T679 392V363Q681 339 679 270L675 54L676 31V28ZM385 146Q397 149 406 184Q415 216 415 254Q420 269 420 306L419 312Q419 318 418 322T417 330Q414 367 399 391T363 415Q352 415 344 397T326 335Q324 326 324 310T326 280T326 259Q327
249 327 232T329 198T333 173Q333 151 345 145T385 146Z" />
<glyph unicode="r" glyph-name="r" horiz-adv-x="532" d="M185 -15Q135 -15 107 -12T58 -2Q52 -2 50 3Q46 12 46 23L35 192Q33 220 32 244T31 296T30 364V393L31 435L33 485L35 522Q35 539 35 543T36 551Q36 554 40 554Q49 554 58 558Q60 558 62 558T68 559Q70
559 73 559T79 558H220Q235 558 240 558T249 557L280 556Q292 555 297 554T306 547L314 519V453Q338 493 401 537Q427 556 452 560T494 568Q506 571 514 565T522 545Q522 420 516 371T494 322Q476 323 456 327T408 332Q367 332 340 311T312 257V7Q312 2 310 1Q309
0 309 -4Q308 -8 304 -8Q305 -8 301 -10L296 -12Q257 -12 222 -15H185Z" />
<glyph unicode="s" glyph-name="s" horiz-adv-x="538" d="M153 -17L139 -15L120 -9Q106 -7 93 -3T69 2Q64 4 59 6T50 8Q48 10 45 12T40 16L20 136V144Q20 156 26 156Q57 146 78 140T127 133Q143 133 148 133T155 132Q172 132 185 136T205 143Q213 146 213 156Q213
172 206 181T178 201L150 213Q144 213 146 217T138 226Q138 227 137 228L136 229Q133 230 130 232T120 237L114 239Q117 239 117 240Q117 243 114 243Q113 243 111 246T103 250Q98 253 95 256T89 261Q82 267 82 272V279Q57 279 41 330Q35 354 31 371T26 402Q26
478 89 525T267 583Q308 586 353 588T438 590Q445 588 450 586T459 584Q476 583 478 575T484 553Q486 545 487 522T490 461Q493 460 493 457Q493 451 472 443Q465 442 457 441T442 439L422 436Q400 433 380 433T343 416Q332 404 332 393T344 376Q350 372 362 367T393
352Q476 314 510 230Q514 220 516 208T518 182Q518 155 511 134Q495 82 422 31Q359 -13 290 -15L153 -17Z" />
<glyph unicode="t" glyph-name="t" horiz-adv-x="414" d="M341 -21Q304 -23 278 -24T228 -23T177 -8Q114 19 86 66T55 195H56Q57 230 57 267T59 336T60 381H26Q11 381 7 398T2 444T3 503V516Q5 524 5 529T5 538V558L6 566L10 570L18 569H45Q60 569 59 569T52 569T42
570H59L62 690Q64 695 62 702T63 714T84 720H200Q207 719 216 719T237 719H262Q267 721 269 721T275 721Q279 722 282 722T288 723Q318 724 318 679Q318 650 316 623T312 572H347Q352 572 358 572T368 571L392 570L395 568Q397 567 397 565V402Q397 395 389 389T368
380Q352 384 349 385T341 387H307V355Q307 296 307 273T308 248V220H309Q313 177 327 167T386 163Q400 158 400 124Q400 119 400 112T400 87T402 28Q400 22 401 10L400 -5Q396 -5 394 -7L389 -13Q387 -15 386 -15Q382 -15 375 -16T357 -20L341 -21Z" />
<glyph unicode="u" glyph-name="u" horiz-adv-x="683" d="M650 562Q653 562 653 557Q653 451 653 372T651 234T648 126T643 30Q643 17 637 10T629 -1Q628 -2 628 -2T626 -5L623 -7Q622 -6 616 -5T606 -3L604 -5Q602 -7 600 -7Q583 -11 560 -12T488 -13H446Q422
-13 404 -10Q398 -5 389 14Q388 18 388 26T385 36Q384 41 381 41Q381 41 375 43V38H374Q315 -32 200 -32Q131 -32 89 5T38 109Q34 143 32 180T30 257Q30 290 31 324T34 397Q34 402 36 411T38 431Q38 449 38 478T39 532Q39 543 39 546T38 550Q38 555 38 560T37 569Q37
576 42 578T64 581H113Q138 581 162 581T212 579Q277 577 293 554Q296 545 296 510Q296 472 296 444T295 391V372Q295 350 295 337T294 312Q293 275 294 241T293 180Q289 140 306 123T353 122Q369 131 373 142V482Q370 502 370 514Q369 516 369 528V553Q369 571
383 571Q389 571 389 566V565Q400 569 430 571T488 574H512L637 571Q642 571 642 568Q643 568 643 567V562Q642 562 642 559L647 560Q649 562 650 562Z" />
<glyph unicode="v" glyph-name="v" horiz-adv-x="671" d="M231 -14Q225 -14 220 -12T207 -10Q202 -10 196 -11T185 -8Q184 -7 184 -7T183 -8H178Q170 -4 170 0L110 191Q101 220 89 263T61 355T22 451Q21 452 21 458L18 470Q15 478 15 492Q15 499 12 508T11 528T30
544L49 552L117 568Q118 568 120 568T124 568Q126 567 126 570T127 573Q130 573 130 573L131 574Q134 575 136 575T139 576L144 578L161 579L213 589Q232 595 242 588T257 568T266 548L280 509Q287 491 294 468T306 426T310 404Q310 401 311 400Q311 394 312 392Q317
389 319 382T323 370Q325 368 326 363T328 352L339 328L355 275L360 263L369 248Q369 249 373 257T381 273T385 284L395 324L404 354Q406 359 406 363T407 372L410 385L412 398Q414 408 418 414T426 437Q447 512 457 550T486 583L522 581L586 575Q590 575 595 572T604
569L630 566Q645 565 655 551T659 524Q659 515 655 490Q654 486 652 483T650 478Q649 476 649 471Q642 449 631 411T606 328T582 242T562 171L518 0Q518 -3 510 -8H504Q500 -8 498 -8T493 -10Q489 -14 482 -14Q477 -14 471 -15T460 -14Q453 -13 448 -13T438 -12Q412
-14 373 -14T295 -15T231 -14Z" />
<glyph unicode="w" glyph-name="w" horiz-adv-x="952" d="M922 289Q925 192 917 134T889 43Q878 26 858 16Q823 -2 775 -10T674 -17T572 -4T485 27L478 23Q460 5 420 -6T330 -21T229 -19T138 2Q81 19 55 88T28 291V313Q28 327 28 332T29 338L32 483Q32 495 32
508T33 537Q33 547 33 549T32 553Q31 561 33 564T35 572Q35 585 64 585H79Q88 585 94 587L219 585L220 584Q222 582 222 582L228 585Q270 585 281 575Q297 562 297 522Q297 515 298 503T300 480Q301 477 301 470T301 440V431Q301 425 300 397T298 334T295 267T294
220Q295 195 295 180T297 160Q301 146 317 142T348 144T365 165L367 183Q372 211 370 248T368 312L372 361V367Q373 381 373 400T374 439L381 548Q381 557 384 559T397 562H409Q413 562 417 562T433 564L506 562L507 561Q509 559 508 559L515 562Q539 562 550 560T566
553Q580 539 580 499Q580 491 580 482T581 459Q581 454 581 445T582 429V421Q582 414 582 393T584 344T585 292T586 251V224Q585 219 586 210T589 189Q590 186 589 173T597 151Q603 142 613 142T632 147T643 151Q646 151 650 159Q652 171 653 175T654 186V215Q654
230 654 250T652 274V306L651 334Q650 366 650 389T648 426V435H649L648 542Q644 557 649 567T668 575H693Q697 575 700 575T706 577L833 575L834 574L835 572L842 575Q886 575 899 565Q917 553 917 509Q917 497 917 473T918 421T919 368T920 328L921 327Q922 326
922 324T922 313V289Z" />
<glyph unicode="x" glyph-name="x" horiz-adv-x="667" d="M66 32L15 76Q11 79 11 82T9 86L10 93Q8 94 8 95T11 98Q14 99 39 127L72 161L93 185Q102 195 117 213T146 247T162 264Q147 288 128 308T93 346T69 375Q66 376 57 386T39 404T31 411L8 440Q-1 452 1 458T5
478Q9 478 12 482T18 488Q22 491 25 491Q28 495 37 505T57 525T72 538Q92 551 101 557T119 571T145 590L175 591Q177 591 184 587T194 581Q203 569 222 551T263 511T303 467Q305 460 306 461Q308 459 308 459Q308 455 312 453T318 448L321 446L323 445Q324 446
327 440T334 429T340 429L388 483Q396 492 412 508T446 543T479 574T498 591Q502 598 509 598Q521 603 530 597T546 582T560 572Q576 564 597 547T635 512T654 484Q653 471 647 466T631 448Q628 446 625 441T616 431Q609 425 602 419T595 413Q587 403 583 399T574
389Q559 373 542 354T510 319T492 300L550 234Q558 227 573 210T606 175T638 143Q658 124 662 112T665 93T661 82L652 68L647 66Q637 63 619 52T584 29T556 8T551 -1Q535 -14 516 -23T484 -34L441 3Q443 8 443 9T441 10H437Q437 10 431 14Q397 56 377 74T342 111Q341
113 339 115T334 122Q332 128 329 128L300 98L202 -7L185 -23L172 -40L158 -45L146 -36V-32H144Q142 -32 141 -32Q141 -33 140 -33Q141 -32 141 -32Q143 -30 129 -18T95 8T66 32Z" />
<glyph unicode="y" glyph-name="y" horiz-adv-x="684" d="M651 558Q654 558 654 554Q654 472 654 408T652 289T649 184T644 77Q644 73 644 69T643 61Q643 57 643 54T642 48V34Q642 17 641 -6T636 -50Q623 -111 595 -149T511 -213Q495 -219 484 -221T464 -226Q446
-229 425 -229Q412 -229 382 -231T309 -234T213 -225T105 -196L77 -180V-174Q77 -168 77 -163T78 -153Q78 -151 78 -149T78 -146Q79 -144 79 -138Q79 -130 79 -125T80 -119Q80 -80 80 -71T82 -57Q83 -54 83 -50T83 -40V-28Q84 -28 84 -27T85 -25Q117 -36 157 -43T238
-53T310 -52T353 -33Q361 -33 367 -24T377 -3T382 15Q382 27 382 41T383 62L385 72Q383 80 381 83L380 95Q356 71 324 58T259 39T198 34Q146 34 112 54T59 109T36 186Q33 212 31 252T32 368Q32 373 34 383T36 405Q36 424 36 456T37 513Q37 521 37 526T36 533Q36
539 36 544T35 554Q35 562 41 564T62 567H111Q136 567 160 567T210 565Q274 564 291 537Q293 533 293 520T294 490Q294 448 294 418T293 361L291 263Q287 219 304 201T351 200Q365 206 369 218V481Q368 490 368 497T367 511Q366 513 366 526V549Q366 560 369 564T379
568Q385 568 385 563V562Q393 565 421 567T478 570H500L638 568Q643 568 643 565Q644 565 644 564V558Q643 558 643 555L648 556Q650 558 651 558Z" />
<glyph unicode="z" glyph-name="z" horiz-adv-x="562" d="M479 0H321Q272 0 247 0T209 0T187 1Q155 1 144 1T126 2L53 3Q46 3 39 10T31 24V183L73 225Q90 242 105 257T128 278L194 349Q196 352 199 355T205 362Q224 381 224 393Q224 398 220 398L50 399Q26 399
19 440Q15 457 15 505V518Q16 527 16 538T17 558Q19 564 19 566L22 571Q29 578 40 578Q48 578 51 576L62 575Q95 575 128 578Q149 579 165 579T193 580Q258 580 321 583H451Q499 583 529 578L545 571Q546 568 546 567T547 564V425Q547 412 540 398Q535 386 529
375T514 353Q453 270 357 176H520Q528 176 535 171T542 159V19Q542 12 537 9T516 3Q504 0 479 0Z" />
<glyph unicode="{" glyph-name="braceleft" horiz-adv-x="485" d="M330 -94Q239 -94 188 -24Q137 44 137 156Q137 185 124 209T88 248T40 263Q36 263 33 268Q30 280 30 309V353L31 366L35 474Q137 500 137 580Q137 690 188 756Q240 825 330 825Q385 825 440 789L455
640Q445 639 438 639T426 638Q386 638 366 618Q355 597 355 588Q355 476 295 405Q287 398 277 393T256 383Q244 377 235 374Q231 373 225 371T210 365Q213 364 216 363T222 361Q228 357 235 356Q249 352 275 336Q282 332 295 321Q355 255 355 144Q355 127 366 115T397
98Q405 94 426 94Q431 94 438 94T455 91L440 -58Q385 -94 330 -94Z" />
<glyph unicode="|" glyph-name="bar" horiz-adv-x="396" d="M88 -103Q75 -103 69 -89T59 -43Q58 -40 58 -23V39L60 291Q62 335 63 339V739Q63 749 75 749Q97 749 112 749T138 750H195Q202 750 205 751Q213 754 237 754T278 750Q281 747 284 747Q288 747 289 748Q290
749 291 749T293 750Q310 750 317 748T331 739Q338 729 338 718Q339 710 339 698T340 675V381Q339 370 339 347T338 298L337 274Q336 271 336 268T336 253Q335 248 335 242T335 215L334 199Q334 193 334 184T333 153T333 89Q333 61 333 30T331 -28L328 -73L323
-96Q316 -96 310 -96T299 -97L270 -98L249 -99L239 -100H236Q230 -100 228 -98Q224 -96 220 -96Q217 -96 213 -100H115Q114 -101 105 -101H94Q92 -102 91 -102T88 -103Z" />
<glyph unicode="}" glyph-name="braceright" horiz-adv-x="487" d="M157 -94Q101 -94 45 -58L30 91L60 94Q100 94 120 114Q132 129 132 144Q132 205 145 241Q159 288 187 321Q204 338 227 348Q230 350 234 351T247 356Q249 357 252 358T260 361Q264 363 267 363T272
365Q262 369 257 371T247 374Q221 382 207 391Q195 397 187 405Q159 437 146 481T132 588Q132 605 120 617T88 634Q75 638 60 638L30 640L45 789Q101 825 157 825Q246 825 298 756Q349 692 349 580Q349 542 376 514T452 474L454 366Q455 355 457 353V309Q457 286
452 268Q452 263 447 263Q407 263 377 231Q349 199 349 156Q349 42 298 -24Q247 -94 157 -94Z" />
<glyph unicode="~" glyph-name="asciitilde" horiz-adv-x="656" d="M428 230Q374 230 333 260Q317 271 299 288Q294 293 277 309T244 335Q227 343 213 343Q197 343 193 321Q188 309 188 301Q188 283 183 265Q183 258 178 258Q175 258 175 259Q148 268 126 273T84
279Q77 281 71 282T63 283Q46 283 45 290T44 311Q44 379 56 418T99 481Q146 520 230 520Q262 520 293 505T344 466Q347 464 355 451Q363 441 369 433T383 419Q395 414 401 414Q428 414 428 434Q428 438 428 442T426 453L423 474Q419 482 418 491V503Q418 510 433
510H575Q582 510 588 500Q593 489 597 470T605 429T608 390V383Q606 379 606 375Q605 353 591 328T553 281Q495 230 428 230Z" />
<glyph unicode="&#xa0;" glyph-name="uni00A0" horiz-adv-x="258" />
<glyph unicode="&#xa1;" glyph-name="exclamdown" horiz-adv-x="411" d="M125 496Q120 497 116 497T106 498Q99 498 94 503T88 514V533Q85 536 85 558Q85 571 85 575T86 583L89 670Q89 674 99 674Q109 677 134 678T216 679L228 680Q248 683 283 683H304Q320 679
321 654V616Q320 590 319 578T318 554T318 518Q318 507 290 500Q276 498 262 497T234 496H125ZM159 -23Q155 -20 145 -20Q135 -19 122 -19T94 -18Q66 -15 49 -10Q43 -8 43 -3Q50 15 50 39Q50 48 52 60T58 95L60 116Q62 122 62 135T63 159L64 173Q64 177 64 183T66
200Q66 213 67 216Q68 219 68 230Q68 235 68 239T70 250Q70 252 70 254T72 259Q73 262 73 271Q77 297 79 314T83 338Q83 351 83 354T84 359L85 371L88 390Q89 416 94 421Q99 423 111 424T139 427T163 429H213Q261 429 289 424L299 421Q303 417 303 416Q307 396
311 378T319 344Q328 307 328 283V276Q329 275 329 270Q329 265 330 263Q330 256 333 250V243L358 88Q369 49 369 13Q369 5 364 -3Q357 -10 340 -18Q333 -18 328 -23H159Z" />
<glyph unicode="&#xa2;" glyph-name="cent" horiz-adv-x="593" d="M352 -88Q350 -88 347 -88T338 -86L333 -81L339 -2L355 0H348Q213 0 123 72Q75 111 53 162T30 284Q30 358 55 419T123 514Q166 546 236 566T381 586H396L408 711Q408 717 412 719T430 720V721Q465
721 475 710Q480 703 481 689L482 674L480 646L474 575L481 574L505 570Q513 569 522 567T537 565Q537 565 541 563Q544 559 544 559Q547 554 550 554H552L554 538Q554 529 554 524T556 513Q558 507 558 500T558 472Q558 450 555 439T542 422L475 431H460Q459 422
459 418T458 409L457 392Q456 390 456 381L453 361Q452 356 452 351T451 342Q451 332 449 316T446 292L436 204L435 187Q434 183 433 176T431 159L459 162Q480 164 497 170T540 190Q550 185 550 177V174Q561 143 565 119T570 64Q518 9 411 2Q408 -11 407 -23T403
-46Q399 -63 395 -74Q370 -90 352 -88ZM355 163Q357 205 359 248T365 336L376 418Q341 402 322 368T302 289Q302 185 355 163Z" />
<glyph unicode="&#xa3;" glyph-name="sterling" horiz-adv-x="701" d="M445 -41Q395 -37 364 -28T316 -8T289 9T273 16Q259 16 248 9T220 -8T173 -22T92 -21Q82 -17 71 -14T46 -8L27 13L26 15V16Q25 17 25 18Q25 26 26 35T29 54L32 80Q33 97 33 105T34 118L37
138L39 146Q54 140 64 138T91 136Q111 136 130 151T165 188L164 223L162 249Q146 249 124 250T94 253Q72 260 72 271V343Q71 348 71 355T71 373Q71 380 84 386Q94 393 105 393H162Q151 422 155 457T174 527T211 592T261 638Q288 655 324 663T397 671Q459 671 520
663T641 620Q652 615 650 609T647 595L633 480Q633 473 630 471T622 469Q588 480 556 489T492 498Q458 498 446 483T429 448V391H519Q543 391 565 390T602 385T617 371Q617 359 617 337T615 303Q615 298 615 299T614 300T614 290Q614 279 613 272T605 260Q603 259
598 257T584 253Q573 249 546 249H417Q417 206 417 186T415 152Q425 139 436 138T460 137L473 136Q481 136 499 137T560 143Q556 143 568 145T600 152Q620 157 630 159T649 163Q656 165 658 160T660 152L673 15Q675 8 675 1T667 -12Q627 -31 592 -38T522 -45T445
-41Z" />
<glyph unicode="&#xa4;" glyph-name="currency" horiz-adv-x="598" d="M498 116Q490 116 483 126Q482 128 478 134T453 163L429 193Q401 182 368 178T273 174Q218 174 171 206L110 148Q108 146 107 145T104 141L96 133Q94 132 92 131T87 130Q85 130 77 135Q69
143 66 144L62 148Q59 150 57 152Q51 155 48 158Q35 166 32 175Q30 181 33 184Q49 200 53 204T60 209Q64 214 80 230T108 256Q48 316 48 398Q48 450 65 498T114 581Q105 592 99 600T88 614Q72 630 62 647T53 669Q62 681 69 686Q76 691 79 698L92 709Q95 711 99
708T117 692Q119 690 122 690T128 688L145 669Q150 662 155 656Q159 652 161 650T164 645L178 628Q210 643 245 643Q252 643 259 643T271 641Q273 643 274 643H278Q382 643 426 618Q428 620 432 625T443 639L463 663Q467 668 476 674T496 686T508 693Q513 696 518
696Q523 696 526 693L539 680Q543 673 549 670Q553 666 556 664Q565 655 565 647Q565 642 557 631Q553 627 551 624T546 616L489 569Q521 536 535 498T550 405Q550 313 498 249L493 243Q494 241 504 230Q506 227 508 224T513 219L554 167Q556 165 556 163Q556 154
549 150Q547 149 544 147T539 143Q537 141 534 140T529 136L508 120Q502 116 498 116ZM288 319Q323 319 348 336T383 384Q389 401 389 416V423Q389 437 378 463Q351 509 288 509Q252 509 231 482T209 408V395L210 394V389Q212 382 215 373T223 356Q232 340 250
330T288 319Z" />
<glyph unicode="&#xa5;" glyph-name="yen" horiz-adv-x="783" d="M365 -55Q331 -55 296 -51T250 -43Q243 -40 241 -37T239 -23Q238 -20 238 -1Q238 12 238 16T239 23V80H116Q81 78 70 84Q63 87 63 94V144Q63 148 71 152T88 156H230Q217 181 204 209T186 251H184Q183
251 183 250H181Q178 250 178 251H116Q81 249 70 255Q63 258 63 265V324Q63 328 71 332T88 336H128Q109 369 95 400T69 460Q62 474 53 496T29 558Q23 575 21 584T18 598Q18 607 39 619Q63 631 79 635Q102 640 120 648Q135 652 166 658L191 663Q232 671 248 675H250L253
676H254Q271 676 279 669T301 638L309 608Q311 605 312 603T314 595Q315 592 316 590T318 585Q320 578 322 570T329 550L336 528L349 495L360 460L381 403L389 380L436 493L471 581L493 640Q495 649 500 657T509 669Q513 670 516 670T521 671Q556 671 607 659T701
629Q748 611 768 591Q768 567 755 541L696 438Q686 419 672 394T638 336H658Q692 336 704 334T716 323Q716 315 716 315T714 306Q714 293 713 291V276Q713 266 712 263T706 258Q701 253 691 253Q685 250 664 250H598L551 184Q550 179 543 168Q536 159 534 156H658Q692
156 704 154T716 143Q716 134 716 126T714 106Q714 103 714 107T714 117T713 121V106Q713 92 706 88Q701 83 691 83Q685 80 664 80H524V-46Q516 -49 515 -50L514 -53Q513 -53 513 -50V-48Q512 -48 506 -50L505 -53Q498 -53 497 -52T495 -45Q474 -48 463 -49T442
-50H408L399 -53H391L386 -54Q385 -55 382 -55T365 -55Z" />
<glyph unicode="&#xa6;" glyph-name="brokenbar" horiz-adv-x="360" d="M83 351Q67 351 60 386Q59 395 59 402T58 413V470Q58 515 58 567T60 664Q60 685 60 691T61 701V741Q61 750 76 750H128Q136 751 149 751T179 751Q182 751 188 753Q196 753 199 754H220Q232
754 251 751Q256 749 259 749T266 751Q281 751 287 750T298 743Q303 738 305 723Q308 713 308 685Q308 680 308 671T306 650L305 628Q304 618 304 611T303 599V578Q303 563 303 544T301 500L300 473Q300 457 300 438T298 398Q298 397 297 388T294 371Q293 358 291
356Q283 356 272 356T245 354Q238 354 233 354T226 353H215Q209 353 208 354Q202 356 201 356Q198 353 194 353H90Q84 351 83 351ZM83 -174Q66 -174 60 -139Q59 -129 59 -123T58 -113V-55Q58 -10 58 42T60 140Q60 162 60 168T61 178V216Q61 226 76 226H266Q274
226 279 226T288 225Q294 224 298 218Q303 213 305 198Q308 188 308 160Q308 147 307 136T305 116Q304 108 304 103T303 94V78Q303 62 303 41T301 -7L300 -38Q300 -55 300 -76T298 -123Q297 -127 296 -134T294 -153Q293 -166 291 -168Q283 -168 272 -168T245 -170L225
-171Q222 -172 220 -172T215 -173H176L83 -174Z" />
<glyph unicode="&#xa7;" glyph-name="section" horiz-adv-x="591" d="M176 -71Q175 -71 172 -70T166 -68Q160 -68 155 -67T145 -65Q135 -63 125 -61T96 -55Q84 -52 78 -48Q70 -46 68 -41L48 70V75Q48 88 56 88Q120 65 170 65H198Q234 63 248 73Q255 77 255 88Q255
104 240 114T207 129T183 136Q179 137 176 138T168 140Q163 142 160 143T153 145L149 148L143 151L129 160Q135 160 129 163Q112 171 104 178Q98 183 98 188V193Q84 193 70 216Q58 239 53 265Q46 286 46 308Q46 373 98 416Q90 425 83 440T70 469Q59 504 59 519Q59
605 133 649Q180 681 257 694T463 708Q466 706 474 704Q480 703 483 701Q508 697 509 671Q511 655 512 635T514 588Q515 586 515 585T516 583Q516 577 509 576Q493 569 439 566Q385 561 363 546Q349 538 349 523Q349 510 359 504L430 470Q505 434 534 388Q550 363
550 323Q550 296 543 279Q527 231 481 198Q528 160 528 109Q528 79 520 58T489 13Q441 -38 373 -58Q356 -63 340 -65T308 -69L176 -71ZM339 249Q358 259 358 283Q358 325 289 350Q279 354 269 357T248 364Q239 354 239 341Q239 320 249 309L339 249Z" />
<glyph unicode="&#xa8;" glyph-name="dieresis" horiz-adv-x="600" d="M44 673L38 679L31 711V740L30 760L29 766Q29 775 33 779L36 810V813L35 818Q37 824 39 830T46 841Q51 846 64 846H168Q184 848 191 848T203 849Q211 849 213 849T216 848Q221 848 222 847Q224
846 229 846H236Q239 846 240 847Q241 848 243 848H246Q258 848 258 823V803Q257 797 257 793T256 783Q256 782 256 781T258 776V723Q259 721 259 718T259 700Q259 675 243 673H44ZM408 673L349 679L343 711V740Q343 756 340 766V771Q339 772 339 779V793Q338 796
338 800T338 820Q338 821 339 822Q339 823 338 824V828Q339 829 340 831T344 836Q347 842 351 843Q362 846 376 846H480Q497 848 504 848T514 849Q523 849 525 849T528 848Q532 848 533 847Q535 846 541 846H548Q551 846 552 847Q553 848 555 848H558Q569 848 569
823V810L568 783V780Q568 777 569 776V744L568 733V723Q568 714 569 713Q570 709 570 706T571 700Q571 674 555 673H408Z" />
<glyph unicode="&#xa9;" glyph-name="copyright" horiz-adv-x="1040" d="M498 -140Q379 -140 278 -89Q165 -35 103 71T41 318Q41 454 110 562T305 733Q422 789 541 789Q626 789 701 766T835 699T933 594Q999 488 999 340Q999 246 968 163T878 16T738 -86Q629 -140
498 -140ZM507 -43Q607 -43 690 0Q788 51 840 137T893 336Q893 513 782 609Q684 695 530 695Q441 695 352 653Q258 601 206 516T154 326Q154 157 264 50Q360 -43 507 -43ZM536 96Q436 96 370 152Q315 197 300 323Q300 378 318 422T370 495Q400 521 452 536T562
552Q577 552 586 551T622 544H637L655 540Q663 539 669 538T678 536Q680 536 681 534Q684 534 684 530Q686 527 688 527H689L691 515L692 495Q693 488 693 478T694 456Q694 424 681 416L632 423H623Q613 423 613 424T603 424L602 423Q580 423 560 410T526 375T512
330Q512 286 536 256T596 226L620 232Q631 235 644 240T681 253Q687 248 688 243V241Q696 220 699 198T704 144Q680 119 641 108T536 96Z" />
<glyph unicode="&#xaa;" glyph-name="ordfeminine" horiz-adv-x="526" d="M168 243Q25 243 25 377Q25 407 32 424T62 463Q85 486 112 493T195 501Q214 501 228 501T250 500Q262 499 270 499T286 499Q285 521 274 532T234 547T149 551H148Q141 553 141 552T133
551H127L80 547Q70 551 70 576Q70 581 70 586T71 603T71 645Q73 648 73 659L74 671Q77 671 78 673L82 675Q84 676 85 676Q89 676 108 679L125 682Q127 682 130 682T134 683Q156 685 163 686T182 688Q224 688 266 685T342 675T393 662Q441 640 461 605T482 510V334Q476
318 476 286Q476 264 473 256T460 248H333Q329 249 325 249T304 249Q292 249 278 256Q267 261 267 279V288Q267 295 269 297V306L267 307Q231 243 168 243ZM232 352Q248 352 260 361T277 385L278 398Q280 417 271 431T249 446Q233 446 224 434T215 401L216 372Q221
352 232 352Z" />
<glyph unicode="&#xab;" glyph-name="guillemotleft" horiz-adv-x="824" d="M735 10Q734 11 730 11L643 56Q627 64 618 69T603 78Q586 86 566 96T523 120L488 141L440 169L430 281L431 320V349Q430 352 430 356T430 374L429 388V395Q429 412 433 420T451 438Q474
453 510 474T590 518L627 536L642 544Q647 546 652 549T663 554L733 589H749Q759 589 762 584T766 565V545Q765 543 765 540T765 525Q766 524 766 520Q765 519 766 518V494L765 430V391Q765 386 755 381Q742 373 729 366T703 353L679 340Q643 324 607 310L585 301Q614
288 635 278T675 258Q701 248 738 225Q755 213 758 209Q765 202 765 198V178L766 156L763 153L764 146L765 83V26Q765 10 745 10H735ZM344 10Q343 11 338 11L229 64L138 114Q116 126 95 139T59 164L51 170L39 220V281L40 320V328Q40 339 40 342T39 349L38 374Q38
401 49 423L60 438Q138 481 191 509T280 557T341 589H358Q369 589 372 585T375 565Q375 548 374 545V525Q374 524 375 523Q375 521 374 520L375 516V494Q374 486 374 475T374 430V391Q374 388 364 381L313 353Q302 348 296 345T288 340Q278 335 263 329T217 310L194
301Q286 261 346 225L366 209Q374 203 374 198V178Q374 159 375 156L371 153L373 146L374 83V55L373 40L374 26Q374 10 354 10H344Z" />
<glyph unicode="&#xac;" glyph-name="logicalnot" horiz-adv-x="528" d="M441 196Q434 196 426 196T408 198H359Q357 199 353 199T334 199Q306 199 299 207T291 245V253Q290 255 290 265V295L291 321V330H73Q43 329 30 339Q23 346 23 355V491Q23 500 31 508Q32
509 34 510T38 512Q43 515 46 515H183L348 512Q356 511 366 511T389 511L415 510Q443 510 451 506Q470 502 470 485Q470 464 470 457T469 445V403Q468 398 468 391T468 363Q468 348 468 331T466 290Q465 286 465 280T465 251Q465 196 441 196Z" />
<glyph unicode="&#xad;" glyph-name="uni00AD" horiz-adv-x="470" d="M113 195Q81 194 65 205Q58 211 58 224V298Q58 316 58 321T57 330L56 371Q56 380 65 389T83 398Q98 398 109 398T128 399Q141 400 152 400T173 401H265Q275 401 286 401T311 399Q318 398 328
398T354 398Q383 398 399 391T416 370Q416 355 416 339T414 306Q414 293 414 288T413 281V253Q413 224 405 213Q396 198 361 198L354 196Q352 195 345 195H113Z" />
<glyph unicode="&#xae;" glyph-name="registered" horiz-adv-x="1040" d="M498 -140Q379 -140 278 -89Q165 -35 103 71T41 318Q41 454 110 562T305 733Q424 789 541 789Q626 789 701 766T835 699T933 594Q999 488 999 340Q999 246 968 163T878 16T738 -86Q629
-140 498 -140ZM507 -45Q595 -45 690 -2Q788 48 840 134T892 333Q892 512 783 606Q738 648 673 670T530 692Q447 692 352 650Q257 598 206 513T154 322Q154 154 264 47Q310 3 373 -21T507 -45ZM630 113Q627 113 626 114Q620 119 617 121T612 126Q609 129 609 129L606
130L603 133L545 208Q544 213 542 217T537 225L531 233Q528 237 526 237Q522 237 522 230Q522 223 521 213T520 190Q520 164 517 150Q517 142 512 142Q506 144 507 144T506 144Q490 143 466 141T421 138T389 137Q386 137 384 137T379 138H351L332 146L330 150V152Q329
153 329 156Q329 164 329 165T328 168Q327 188 327 194T327 196Q326 203 325 215T322 247L321 267Q321 277 321 284T319 300L318 310Q317 324 317 333T316 353V360Q318 364 318 371V382L319 389Q319 394 319 402T318 422Q315 437 315 458Q315 481 316 490T320 504Q325
525 336 525Q368 525 400 524T466 523Q479 523 489 523T510 522L532 521Q546 520 567 520T611 520Q677 517 721 485Q754 454 754 407Q754 360 722 328Q705 311 690 305Q690 304 693 301T698 294Q700 290 701 290T707 284L714 275L724 265L740 239Q748 227 754 219T764
205Q768 198 768 194Q768 188 763 184T749 172Q746 169 744 168T734 161Q726 158 722 154L702 140Q696 136 690 134T678 130L677 129Q676 129 676 129T674 128Q672 128 668 126T655 122Q655 122 645 118Q643 117 641 117T637 116H635Q635 115 635 115T634 113H630ZM519
318H528Q554 318 560 372Q561 375 561 379T561 400V406Q561 419 560 435T543 459Q539 464 528 464Q525 464 522 457Q520 453 519 445T517 418Q516 409 516 404T515 393V374Q515 358 514 345T513 321Q513 319 515 319L519 318Z" />
<glyph unicode="&#xaf;" glyph-name="overscore" horiz-adv-x="600" d="M486 668H452Q447 669 441 669T426 669L404 670H379L369 671H337Q329 669 324 671Q319 672 313 672T299 673H139Q107 673 97 683Q90 687 90 698V793Q89 798 89 806T89 828Q89 838 97 844Q98
845 103 849T114 853H246Q253 853 266 853T299 851L339 850Q374 849 396 849T429 848H452Q472 848 489 843T507 823Q507 816 507 810T508 799Q509 794 509 790T509 783V773Q509 766 509 759T510 746V723Q510 700 506 688Q503 668 486 668Z" />
<glyph unicode="&#xb0;" glyph-name="degree" horiz-adv-x="533" d="M250 268Q173 268 123 298Q83 320 63 375Q44 413 44 468Q44 505 56 543T91 613Q146 683 219 683H248Q290 683 314 682T355 676T389 661Q441 627 466 583Q490 541 490 473Q490 392 449 338L444
334Q414 290 356 278Q322 268 250 268ZM258 396Q291 396 316 414T351 463Q354 478 355 485T356 496V500Q356 511 345 530Q338 546 314 555T258 565Q232 565 213 546Q188 520 188 463V451L191 443Q196 421 214 409T258 396Z" />
<glyph unicode="&#xb1;" glyph-name="plusminus" horiz-adv-x="528" d="M331 234Q315 234 299 234T273 236H249Q237 238 224 238Q197 238 188 244Q174 253 174 283Q174 285 175 286V290Q175 294 178 303L179 324V333Q178 335 178 346Q178 351 177 353Q175 359
175 359L174 368H90Q59 368 48 378Q41 381 41 394V493Q40 497 40 503T40 529Q40 537 48 545T63 553H174V631Q174 664 184 674Q191 681 201 681H269Q276 681 283 681T300 683H336Q344 683 353 674Q354 672 356 667T359 658V551Q397 548 433 548Q462 548 475 543T488
523V491Q487 484 487 478T486 465Q486 446 485 443V418Q485 387 477 378T439 368H358Q356 352 355 334T354 289Q354 260 349 247T331 234ZM90 -13Q61 -13 48 -3Q41 3 41 14V114Q40 118 40 124T40 150Q40 158 48 165T63 173H291Q309 173 327 173T365 171Q388 170
405 170T433 169Q458 169 469 165Q488 161 488 144V111Q487 106 487 99T486 86Q486 66 485 63V38Q485 8 476 -2T439 -13H90Z" />
<glyph unicode="&#xb2;" glyph-name="uni00B2" horiz-adv-x="478" d="M425 280Q425 252 417 247T379 238H168Q108 238 85 241Q76 243 70 245T60 248Q51 251 51 259Q51 278 70 298Q72 298 73 299Q73 299 75 303Q81 307 92 320T108 339Q121 353 131 366T149 393Q151
396 154 400T161 410Q168 419 173 430Q175 434 181 446T190 470Q193 478 193 489Q193 509 182 518T141 528Q134 528 125 527T103 523Q91 519 80 515T59 505V508Q58 509 58 514Q57 520 57 526T55 540Q54 547 54 552T53 563Q53 572 53 579T51 590L50 613L49 626Q49
630 50 631L83 646Q97 651 117 656T163 666Q186 668 207 669T245 671Q324 671 376 637T428 534Q428 496 403 461T323 384H354Q359 385 366 385T384 385Q404 385 416 381T428 365V318Q426 313 426 304T425 280Z" />
<glyph unicode="&#xb3;" glyph-name="uni00B3" horiz-adv-x="471" d="M203 219Q188 219 158 225L143 228Q136 230 128 231T116 236L107 239Q105 240 104 240T100 241Q85 246 64 259L71 360Q116 347 158 347Q211 347 211 386Q211 414 181 415T105 415V494H133Q165
494 179 502T193 530Q193 562 138 562Q107 562 53 539L45 644Q81 660 131 669T229 679Q281 679 324 667L329 666Q336 664 342 662T354 655Q359 653 359 649V644Q374 644 384 622Q386 619 387 617T389 613Q390 611 391 609T393 605Q395 600 396 597T398 592Q402
583 404 572L408 551Q408 526 398 507Q387 486 368 472Q426 438 426 379Q426 319 408 281Q396 256 378 245Q357 235 335 229T282 221T203 219Z" />
<glyph unicode="&#xb4;" glyph-name="acute" horiz-adv-x="600" d="M308 656L300 659L297 656H214Q202 656 199 664T195 686Q195 703 198 716T203 738Q214 774 224 809T245 884L253 890L296 897L355 900L361 897Q365 899 371 899H381Q383 899 384 898Q385 897
388 897L394 896L436 894L444 891Q446 891 446 892H451Q472 888 478 884Q484 881 484 875Q484 871 481 865Q479 860 471 846Q469 842 462 829T441 794Q436 785 432 779T426 769L413 745Q396 721 387 709T374 689T362 671Q352 656 345 656H308Z" />
<glyph unicode="&#xb5;" glyph-name="uni03BC" horiz-adv-x="778" d="M208 -191Q201 -191 187 -191T153 -189Q140 -189 123 -188T98 -185Q83 -182 81 -181V-183Q81 -188 74 -188Q68 -188 66 -187T60 -178V-173Q58 -170 60 -168V-143Q60 -128 63 -113V-95L64 234V268Q65
272 65 276T65 294V328Q65 338 65 341T66 346V356L69 363L70 373Q73 409 73 431L74 468L76 526Q76 530 76 534T74 544Q73 546 73 549T73 563Q73 578 103 578H118Q123 578 126 578T134 580L256 578L257 577Q261 575 260 575L266 578Q319 578 335 568Q354 555 354
509Q354 485 354 478T355 465Q355 461 355 457T357 446Q358 440 358 421V411Q354 382 354 316Q354 312 354 313T353 312T353 295T351 244L350 229V214Q350 193 355 175Q357 171 360 170T364 167Q370 151 392 150T433 164Q443 169 443 172V480L439 513V558Q439 573
453 573Q460 573 460 568V566Q471 570 502 573T563 576H621L728 573Q733 573 733 570L734 568Q734 564 733 563V560Q734 560 735 561H738Q738 563 741 563Q744 563 744 558Q744 383 742 255T734 34Q734 30 726 19L719 11Q717 9 716 8T713 6Q712 7 706 8T696 10Q695
10 693 8Q692 7 691 7L689 6Q654 -1 563 -1H518Q489 -1 474 3Q465 11 460 28Q459 31 458 34T456 40Q453 45 451 45Q446 45 440 42T426 34Q399 21 372 22Q359 23 347 29T311 55Q311 51 319 41T335 19T343 -3Q342 -58 342 -101T341 -173Q341 -178 339 -178Q337 -178
336 -177Q335 -176 334 -176L330 -175V-178Q331 -179 331 -183L330 -185Q327 -188 324 -188L243 -191H208Z" />
<glyph unicode="&#xb6;" glyph-name="paragraph" horiz-adv-x="809" d="M468 1Q460 2 454 2T440 3H411Q408 4 403 4T384 4Q355 4 344 13Q329 22 329 55V193H311Q169 193 100 255T31 443Q31 523 72 578T188 655Q244 673 308 673Q324 673 344 673T391 671L423 670Q431
670 440 670T467 669T520 669Q565 669 580 669T606 670L725 671Q735 671 743 663T751 645V425Q751 387 751 335T749 218Q749 199 749 177T747 129L746 63Q746 30 740 16T719 1Q693 1 667 1T620 3Q599 3 592 4T579 10Q564 21 564 53V158L565 423H518V63Q518 1 490
1H468Z" />
<glyph unicode="&#xb7;" glyph-name="middot" horiz-adv-x="383" d="M94 241Q77 241 70 245Q63 249 63 256Q62 277 61 303T59 355Q59 381 57 412T53 455L59 461L91 469H150Q161 469 164 469T168 470Q171 471 175 472T185 473L216 469Q218 468 231 468Q236 467
245 467T270 464H288Q302 460 308 453L313 445Q313 441 316 435Q319 428 321 410T324 370T326 331Q329 309 329 300Q329 288 328 286V275Q327 274 327 268Q327 258 328 256V255Q328 245 308 241Q304 241 298 241T286 243H226Q225 242 222 242Q219 242 218 243H176Q171
243 165 243T151 244Q144 244 136 244T119 243Q115 243 112 243T103 241H94Z" />
<glyph unicode="&#xb8;" glyph-name="cedilla" horiz-adv-x="600" d="M272 -328H255Q224 -328 191 -315Q174 -309 165 -298L175 -253Q177 -248 179 -243T182 -234Q185 -226 186 -225Q219 -239 255 -239Q272 -239 285 -237T307 -224Q314 -214 317 -209T320 -193Q320
-178 303 -169T257 -159Q235 -159 215 -168L217 -128L231 8L236 18H343L330 -48Q415 -61 455 -95T495 -174Q495 -217 475 -252T406 -307T272 -328Z" />
<glyph unicode="&#xb9;" glyph-name="uni00B9" horiz-adv-x="389" d="M310 268H219Q207 269 188 269T143 269Q122 269 114 275T105 304L106 309Q106 313 107 314Q108 315 108 319L109 334L108 353Q108 356 107 358Q106 360 106 363L105 368V423L104 483V503L103
510Q100 510 94 504L69 479Q61 474 53 474Q47 474 43 478T38 488V616Q38 620 45 624Q47 625 49 626T56 630L71 639Q87 650 99 655Q105 658 114 658H214Q229 658 240 658T260 657L313 656Q321 656 327 651T333 639V415Q333 410 330 359Q329 351 329 338T328 308Q328
289 325 279T310 268Z" />
<glyph unicode="&#xba;" glyph-name="ordmasculine" horiz-adv-x="535" d="M250 223Q247 223 244 223T235 225Q234 226 231 226T218 226Q186 226 151 239H146Q140 239 136 243Q135 243 127 248Q126 250 121 253T112 258Q75 278 53 330T30 446Q30 506 53 560T116
651Q162 688 216 688H247Q290 688 316 686T361 679T397 663Q449 629 480 575Q505 529 505 453Q505 384 473 320Q472 318 471 316T466 308Q464 303 463 303Q462 302 462 301L461 300L456 298Q424 249 363 233Q327 223 250 223ZM265 353Q273 353 276 358Q288 371
292 402Q295 418 298 418Q298 424 299 429T300 437Q301 451 302 460T304 476V502Q304 512 300 524T289 544Q287 549 280 549Q272 549 267 542T253 525Q249 519 248 513T245 499L236 448V433Q236 430 237 430T239 418Q239 407 240 397T242 382Q242 379 243 378Q245
376 245 375L254 356Q254 353 265 353Z" />
<glyph unicode="&#xbb;" glyph-name="guillemotright" horiz-adv-x="825" d="M471 10Q451 10 451 26Q452 34 452 41T453 55Q452 63 452 69T451 83L453 146L454 153L450 156Q451 159 451 178V198Q451 203 459 209Q469 219 492 232T541 258L563 269L631 301L611
309Q579 321 564 328T538 340L513 353L461 381Q451 388 451 391L450 494V516L451 520Q450 522 451 523V545Q450 548 450 565Q450 580 453 584T468 589H484Q537 562 603 527T740 452L765 438L776 423Q788 404 788 374Q788 369 788 364T786 349L785 328V320L786 281V220L774
170L766 164Q748 151 729 139T688 114L595 64Q582 57 562 48T506 21Q503 19 498 17T486 11Q482 11 481 10H471ZM80 10Q60 10 60 26V83L61 146L63 153L59 156L60 178V198Q60 203 68 209Q76 217 99 231T149 258L171 269L239 301L219 309Q187 321 172 328T146 340L123
353Q103 363 90 370T70 381Q60 387 60 391V420Q59 427 59 439T59 494V516Q59 517 60 518Q60 519 59 520Q59 524 60 525Q60 536 60 539T59 545V565Q59 579 62 584T76 589H93L163 554Q213 528 247 510T308 478Q319 473 337 462T374 438Q393 425 396 405V388L395 374V349Q394
346 394 343T394 328V320L395 281L384 169L338 141L263 98Q249 90 223 78Q216 74 211 71T201 66Q196 64 192 61T183 56L95 11Q90 11 89 10H80Z" />
<glyph unicode="&#xbc;" glyph-name="onequarter" horiz-adv-x="1157" d="M376 -11H367Q353 -11 353 19Q353 35 356 55T361 81Q367 113 373 145T388 210Q390 216 393 232T403 275Q405 281 407 297T416 339L490 665Q490 668 491 669Q493 671 493 671L496 674Q498
674 498 676Q500 676 500 675H503Q514 675 526 678Q537 681 549 681Q557 681 563 681T574 683Q613 683 626 680Q637 679 640 676L653 675H658Q659 676 665 676Q669 676 670 666Q675 647 676 609L677 575Q677 562 677 553T675 538L657 468Q655 463 654 457T650 443Q648
437 647 430T643 419Q642 415 641 410T639 403Q639 399 638 398L637 396L634 381L625 345L615 298Q614 292 611 281T604 253L596 215Q592 204 592 199L585 169Q583 161 582 152T578 131Q571 94 565 68T554 24Q547 4 542 -5Q528 -5 513 -8H502L496 -9H495L487 -8Q484
-3 480 -6Q480 -7 478 -7Q477 -8 477 -9H406L400 -10H387Q385 -11 376 -11ZM329 268H238Q226 269 208 269T163 269Q142 269 134 274T125 304V309Q127 318 128 319V353Q127 354 127 358Q126 360 126 361T125 363V368Q124 372 124 378T124 393V483Q124 500 123 503V510Q120
510 114 504L89 479Q77 474 73 474Q66 474 61 478T56 488V616Q56 620 65 624Q67 625 70 627T76 631Q79 633 82 635T90 639Q99 645 106 649T119 655Q125 658 134 658H234Q249 658 260 658T279 657L333 656Q339 656 345 651T351 639V491Q351 468 351 442T349 388Q348
374 348 354T348 308Q348 289 345 279T329 268ZM893 -13Q888 -13 885 -7T881 9Q879 15 879 23T878 38L876 63H873Q809 63 760 63T676 61Q674 62 671 62T663 63Q652 65 651 68Q644 71 644 75V113Q644 119 647 158Q649 165 651 176T659 204L671 244Q671 248 674 254L691
296L701 320L710 341Q722 369 730 385T741 408Q749 423 755 434T764 448Q767 449 771 453H789Q793 452 799 452T813 451Q821 451 827 451T837 450H854Q862 453 878 453H906Q909 453 912 453T919 452Q923 451 926 451T934 451L936 453H951Q957 451 967 451H969Q971
451 972 452Q973 453 976 453H981Q983 451 986 451H1007Q1010 450 1014 450T1022 450Q1027 450 1029 445Q1031 439 1031 430V404Q1028 389 1028 374L1029 358Q1031 352 1031 343Q1031 333 1031 323T1029 301Q1028 290 1028 265T1027 201V188H1076Q1092 188 1096
167T1101 119Q1101 118 1101 116T1100 110Q1099 103 1099 96T1098 79V73Q1096 68 1088 67Q1084 66 1079 66T1067 65H1046Q1042 66 1037 66T1026 66L1024 55L1023 30Q1023 4 1019 -1Q1015 -5 1008 -5Q1007 -5 1007 -4H1006Q1002 -4 1001 -5L997 -6L983 -5Q982 -4
976 -4Q971 -4 971 -6H925Q924 -7 923 -7T921 -8Q913 -8 911 -9Q899 -13 893 -13ZM803 189H869V371Q867 362 862 347T853 324Q851 320 849 313T843 297L834 273Q822 241 815 220T803 189Z" />
<glyph unicode="&#xbd;" glyph-name="onehalf" horiz-adv-x="1110" d="M376 -11H367Q353 -11 353 19Q353 35 356 55T361 81Q367 113 373 145T388 210Q390 216 393 232T403 275Q405 281 407 297T416 339L490 665Q490 668 491 669Q493 671 493 671L496 674Q498 674
498 676Q500 676 500 675H503Q514 675 526 678Q537 681 549 681Q557 681 563 681T574 683Q613 683 626 680Q637 679 640 676L653 675H658Q659 676 665 676Q669 676 670 666Q675 647 676 609L677 575Q677 562 677 553T675 538L657 468Q655 463 654 457T650 443Q648
437 647 430T643 419Q642 415 641 410T639 403Q639 399 638 398L637 396L634 381L625 345L615 298Q614 292 611 281T604 253L596 215Q592 204 592 199L585 169Q583 161 582 152T578 131Q571 94 565 68T554 24Q547 4 542 -5Q528 -5 513 -8H502L496 -9H495L487 -8Q484
-3 480 -6Q480 -7 478 -7Q477 -8 477 -9H406L400 -10H387Q385 -11 376 -11ZM329 268H238Q226 269 208 269T163 269Q142 269 134 274T125 304V309Q127 318 128 319V353Q127 354 127 358Q126 360 126 361T125 363V368Q124 372 124 378T124 393V483Q124 500 123 503V510Q120
510 114 504L89 479Q77 474 73 474Q66 474 61 478T56 488V616Q56 620 65 624Q67 625 70 627T76 631Q79 633 82 635T90 639Q99 645 106 649T119 655Q125 658 134 658H234Q249 658 260 658T279 657L333 656Q339 656 345 651T351 639V491Q351 468 351 442T349 388Q348
374 348 354T348 308Q348 289 345 279T329 268ZM795 -1Q767 -1 747 0T713 3Q697 5 686 9Q678 14 678 21Q678 41 696 59Q697 59 703 65Q705 68 717 80Q722 85 727 91T736 103Q756 127 773 150T799 193Q806 203 810 212T816 231Q819 242 819 251Q819 272 808 280T768
289Q745 289 728 284L685 270Q684 271 684 275Q680 314 679 328T678 353Q678 361 678 366T676 375V393L708 408Q721 413 741 418T789 428Q813 430 833 431T871 433Q923 433 964 419T1030 374T1054 295Q1054 222 950 146H1010Q1031 146 1042 143T1054 128V100Q1053
96 1053 92T1053 80V43Q1053 26 1051 19T1041 8Q1033 2 1013 0Q1006 -1 992 -1T955 -1H901Q893 -1 887 -1T876 0H826Q821 -1 813 -1T795 -1Z" />
<glyph unicode="&#xbe;" glyph-name="threequarters" horiz-adv-x="1225" d="M444 -11H435Q421 -11 421 19Q421 35 424 55T429 81Q435 113 441 145T456 210Q458 216 461 232T471 275Q473 281 475 297T484 339L558 665Q558 668 559 669Q561 671 561 671L564 674Q566
674 566 676Q568 676 568 675H571Q582 675 594 678Q605 681 617 681Q625 681 631 681T642 683Q681 683 694 680Q705 679 708 676L721 675H726Q727 676 733 676Q737 676 738 666Q743 647 744 609L745 575Q745 562 745 553T743 538L725 468Q723 463 722 457T718 443Q716
437 715 430T711 419Q710 415 709 410T707 403Q707 399 706 398L705 396L702 381L693 345L683 298Q682 292 679 281T672 253L664 215Q660 204 660 199L653 169Q651 161 650 152T646 131Q639 94 633 68T622 24Q615 4 610 -5Q596 -5 581 -8H570L564 -9H563L555 -8Q552
-3 548 -6Q548 -7 546 -7Q545 -8 545 -9H474L468 -10H455Q453 -11 444 -11ZM213 213Q205 213 194 215T167 219Q158 221 152 222Q149 223 146 223T141 224Q126 227 126 230Q108 235 98 239T74 253L81 354Q129 341 167 341Q221 341 221 380Q221 399 207 405T168 411T116
409V488H142Q170 488 186 495T202 524Q202 556 148 556Q114 556 62 533L56 638Q95 656 146 664T238 673Q264 673 288 670T334 661L342 659Q351 655 356 653T364 648Q369 643 369 638Q381 638 394 616Q395 615 396 613T398 608Q400 605 402 599Q403 597 404 596T406
592Q408 586 408 586Q412 577 414 566Q414 560 415 555T417 545Q417 521 407 499T377 466Q436 431 436 373Q436 345 432 320T418 275Q404 246 387 239Q351 221 312 217T213 213ZM961 -13Q956 -13 953 -7T949 9Q947 15 947 23T946 38L944 63H941Q877 63 828 63T744
61Q742 62 739 62T731 63Q720 65 719 68Q712 71 712 75V113Q712 119 715 158Q717 165 719 176T727 204L739 244Q739 248 742 254L759 296L769 320L778 341Q790 369 798 385T809 408Q817 423 823 434T832 448Q835 449 839 453H857Q861 452 867 452T881 451Q889 451
895 451T905 450H922Q930 453 946 453H974Q977 453 980 453T987 452Q991 451 994 451T1002 451L1004 453H1019Q1025 451 1035 451H1037Q1039 451 1040 452Q1041 453 1044 453H1049Q1051 451 1054 451H1075Q1078 450 1082 450T1090 450Q1095 450 1097 445Q1099 439
1099 430V404Q1096 389 1096 374L1097 358Q1099 352 1099 343Q1099 333 1099 323T1097 301Q1096 290 1096 265T1095 201V188H1144Q1160 188 1164 167T1169 119Q1169 118 1169 116T1168 110Q1167 103 1167 96T1166 79V73Q1164 68 1156 67Q1152 66 1147 66T1135 65H1114Q1110
66 1105 66T1094 66L1092 55L1091 30Q1091 4 1087 -1Q1083 -5 1076 -5Q1075 -5 1075 -4H1074Q1070 -4 1069 -5L1065 -6L1051 -5Q1050 -4 1044 -4Q1039 -4 1039 -6H993Q992 -7 991 -7T989 -8Q981 -8 979 -9Q967 -13 961 -13ZM871 189H937V371Q935 362 930 347T921
324Q919 320 917 313T911 297L902 273Q890 241 883 220T871 189Z" />
<glyph unicode="&#xbf;" glyph-name="questiondown" horiz-adv-x="565" d="M251 663Q291 663 306 659L318 658H376Q407 658 435 653Q445 653 445 649L448 562Q449 557 449 560T449 556Q449 536 446 531V512Q446 506 440 501T428 496Q412 496 409 495H300Q216 495
216 516Q216 540 216 551T216 570T213 595V632Q214 657 230 661Q237 661 239 662Q241 663 251 663ZM420 460Q442 460 450 434Q454 426 456 419T458 387Q458 371 458 366T457 357V341Q457 302 432 286Q422 276 405 270Q380 259 373 256T367 252T370 252T362 249Q358
248 346 241T322 227T308 217Q298 224 298 209Q298 190 315 185Q327 181 341 177T383 173Q404 173 434 175T493 182T539 191L541 192Q550 192 550 175Q550 165 550 162T549 155Q548 153 548 150T547 145Q546 143 546 135Q546 107 546 84T543 52Q541 36 540 28T538
17Q533 1 516 1Q492 0 457 -1T382 -2T304 -3Q256 -3 209 6T123 32T64 70Q15 113 15 192Q15 224 30 256T67 299Q77 304 89 313T120 329Q161 347 181 352T212 361T230 371V386Q229 396 229 403T228 442Q228 460 239 460H254L282 459Q290 458 295 458T308 457Q319
457 320 460H420Z" />
<glyph unicode="&#xc0;" glyph-name="Agrave" horiz-adv-x="781" d="M743 -2Q736 -2 731 -2T721 0H555Q554 0 552 0T547 2H517L474 3Q470 3 469 2Q467 0 461 0H458L457 1Q453 1 453 2Q450 3 447 3T442 3Q440 11 437 32T423 94L415 122H359Q343 122 331 123T306
127Q306 123 305 118T303 104Q296 67 289 39T277 3Q269 3 258 3T232 2Q217 2 213 0H204Q203 0 203 2Q202 3 200 3Q192 3 189 2V0H56Q52 -1 47 -1T33 -2H23Q15 -2 12 3Q5 13 5 25Q5 32 6 35Q6 40 6 44T7 55Q9 66 12 71Q15 82 15 86Q17 98 33 170T79 366T147 651Q147
652 149 656T156 662H160L162 660Q167 660 169 662T175 665Q183 667 187 667Q194 667 200 667T214 665Q216 665 219 665T224 664Q226 663 230 663T239 662Q239 664 244 664T251 665Q260 666 272 666T304 667H399Q399 666 408 666Q413 666 416 666T424 665H474Q476
664 478 663T483 662Q488 662 493 662T504 664Q509 665 514 665T522 665Q533 666 542 666T561 667Q567 667 573 668T586 665Q594 661 600 661T612 660Q616 660 616 662H620Q623 661 626 657T629 651Q639 613 652 560T679 445T709 321T738 201T762 97Q764 87 764
83T766 74Q767 67 771 51T776 27Q776 19 772 18Q768 -2 755 -2H743ZM318 241Q324 241 324 243H330Q332 244 337 246T349 248H350L357 243H404L397 288L393 307Q391 318 389 325T387 340Q387 345 384 366T377 416L373 444Q370 453 369 461T366 476L364 488V493Q362
495 362 498Q362 502 361 502V498Q361 494 357 488V476Q355 468 354 460T351 444L342 397Q334 357 330 318T318 241ZM382 733H345Q341 733 338 736T328 748Q322 758 317 765T304 785T277 822L264 846Q262 850 258 856T249 871Q236 893 229 906T219 923Q215 930
213 935T209 942Q206 948 206 952Q206 958 212 961Q218 965 239 969H244Q244 968 246 968L254 971L296 973L302 974Q305 974 306 975Q307 976 309 976H319Q325 976 329 974L335 977L394 974L437 967L445 961Q455 926 465 891T487 815Q488 807 491 794T495 763Q495
733 476 733H393L390 736L382 733Z" />
<glyph unicode="&#xc1;" glyph-name="Aacute" horiz-adv-x="781" d="M743 -2Q736 -2 731 -2T721 0H555Q554 0 552 0T547 2H517L474 3Q470 3 469 2Q467 0 461 0H458L457 1Q453 1 453 2Q450 3 447 3T442 3Q440 11 437 32T423 94L415 122H359Q343 122 331 123T306
127Q306 123 305 118T303 104Q296 67 289 39T277 3Q269 3 258 3T232 2Q217 2 213 0H204Q203 0 203 2Q202 3 200 3Q192 3 189 2V0H56Q52 -1 47 -1T33 -2H23Q15 -2 12 3Q5 13 5 25Q5 32 6 35Q6 40 6 44T7 55Q9 66 12 71Q15 82 15 86Q17 98 33 170T79 366T147 651Q147
652 149 656T156 662H160L162 660Q167 660 169 662T175 665Q183 667 187 667Q194 667 200 667T214 665Q216 665 219 665T224 664Q226 663 230 663T239 662Q239 664 244 664T251 665Q260 666 272 666T304 667H399Q399 666 408 666Q413 666 416 666T424 665H474Q476
664 478 663T483 662Q488 662 493 662T504 664Q509 665 514 665T522 665Q533 666 542 666T561 667Q567 667 573 668T586 665Q594 661 600 661T612 660Q616 660 616 662H620Q623 661 626 657T629 651Q639 613 652 560T679 445T709 321T738 201T762 97Q764 87 764
83T766 74Q767 67 771 51T776 27Q776 19 772 18Q768 -2 755 -2H743ZM318 241Q324 241 324 243H330Q332 244 337 246T349 248H350L357 243H404L397 288L393 307Q391 318 389 325T387 340Q387 345 384 366T377 416L373 444Q370 453 369 461T366 476L364 488V493Q362
495 362 498Q362 502 361 502V498Q361 494 357 488V476Q355 468 354 460T351 444L342 397Q334 357 330 318T318 241ZM399 733L391 736L388 733H305Q293 733 290 741T286 763Q286 780 289 793T294 815Q305 851 315 886T336 961L344 967L387 974L446 977L452 974Q456
976 462 976H472Q474 976 475 975Q476 974 479 974L485 973L527 971L535 968Q537 968 537 969H542Q563 965 569 961Q575 958 575 952Q575 948 572 942Q570 937 562 923Q560 919 553 906T532 871Q527 862 523 856T517 846L504 822Q487 798 478 786T465 766T453 748Q443
733 436 733H399Z" />
<glyph unicode="&#xc2;" glyph-name="Acircumflex" horiz-adv-x="781" d="M743 -2Q736 -2 731 -2T721 0H555Q554 0 552 0T547 2H517L474 3Q470 3 469 2Q467 0 461 0H458L457 1Q453 1 453 2Q450 3 447 3T442 3Q440 11 437 32T423 94L415 122H359Q343 122 331 123T306
127Q306 123 305 118T303 104Q296 67 289 39T277 3Q269 3 258 3T232 2Q217 2 213 0H204Q203 0 203 2Q202 3 200 3Q192 3 189 2V0H56Q52 -1 47 -1T33 -2H23Q15 -2 12 3Q5 13 5 25Q5 32 6 35Q6 40 6 44T7 55Q9 66 12 71Q15 82 15 86Q17 98 33 170T79 366T147 651Q147
652 149 656T156 662H160L162 660Q167 660 169 662T175 665Q183 667 187 667Q194 667 200 667T214 665Q216 665 219 665T224 664Q226 663 230 663T239 662Q239 664 244 664T251 665Q260 666 272 666T304 667H399Q399 666 408 666Q413 666 416 666T424 665H474Q476
664 478 663T483 662Q488 662 493 662T504 664Q509 665 514 665T522 665Q533 666 542 666T561 667Q567 667 573 668T586 665Q594 661 600 661T612 660Q616 660 616 662H620Q623 661 626 657T629 651Q639 613 652 560T679 445T709 321T738 201T762 97Q764 87 764
83T766 74Q767 67 771 51T776 27Q776 19 772 18Q768 -2 755 -2H743ZM318 241Q324 241 324 243H330Q332 244 337 246T349 248H350L357 243H404L397 288L393 307Q391 318 389 325T387 340Q387 345 384 366T377 416L373 444Q370 453 369 461T366 476L364 488V493Q362
495 362 498Q362 502 361 502V498Q361 494 357 488V476Q355 468 354 460T351 444L342 397Q334 357 330 318T318 241ZM226 729H204Q195 729 195 742V749Q199 772 222 816Q225 821 228 829T238 847L254 881L275 920Q279 925 284 935T298 958L303 963L336 970H446L467
968L483 958L514 909Q544 859 567 805Q582 771 586 749L587 746V742Q587 729 576 729H482Q477 729 472 736Q459 751 454 758T445 773Q441 778 438 781T432 789Q422 801 412 815T390 845Q377 822 369 807T354 785L344 775Q327 758 317 744T300 729H272L269 730L266
729H244Q240 729 237 730Q228 730 226 729Z" />
<glyph unicode="&#xc3;" glyph-name="Atilde" horiz-adv-x="781" d="M743 -2Q736 -2 731 -2T721 0H555Q554 0 552 0T547 2H517L474 3Q470 3 469 2Q467 0 461 0H458L457 1Q453 1 453 2Q450 3 447 3T442 3Q440 11 437 32T423 94L415 122H359Q343 122 331 123T306
127Q306 123 305 118T303 104Q296 67 289 39T277 3Q269 3 258 3T232 2Q217 2 213 0H204Q203 0 203 2Q202 3 200 3Q192 3 189 2V0H56Q52 -1 47 -1T33 -2H23Q15 -2 12 3Q5 13 5 25Q5 32 6 35Q6 40 6 44T7 55Q9 66 12 71Q15 82 15 86Q17 98 33 170T79 366T147 651Q147
652 149 656T156 662H160L162 660Q167 660 169 662T175 665Q183 667 187 667Q194 667 200 667T214 665Q216 665 219 665T224 664Q226 663 230 663T239 662Q239 664 244 664T251 665Q260 666 272 666T304 667H399Q399 666 408 666Q413 666 416 666T424 665H474Q476
664 478 663T483 662Q488 662 493 662T504 664Q509 665 514 665T522 665Q533 666 542 666T561 667Q567 667 573 668T586 665Q594 661 600 661T612 660Q616 660 616 662H620Q623 661 626 657T629 651Q639 613 652 560T679 445T709 321T738 201T762 97Q764 87 764
83T766 74Q767 67 771 51T776 27Q776 19 772 18Q768 -2 755 -2H743ZM318 241Q324 241 324 243H330Q332 244 337 246T349 248H350L357 243H404L397 288L393 307Q391 318 389 325T387 340Q387 345 384 366T377 416L373 444Q370 453 369 461T366 476L364 488V493Q362
495 362 498Q362 502 361 502V498Q361 494 357 488V476Q355 468 354 460T351 444L342 397Q334 357 330 318T318 241ZM466 703Q421 703 396 723Q381 734 375 740T356 759Q330 785 308 785Q301 785 296 775T290 751Q288 739 287 733T286 725Q284 721 281 723Q277
724 273 724T255 724Q243 725 232 725T214 727Q204 729 198 731T192 738Q192 742 191 743Q190 745 190 746T189 749Q189 748 188 754T185 765Q185 798 192 828Q209 917 321 917Q329 917 341 913T363 903Q392 891 404 874Q410 869 411 864Q424 847 432 840Q440 835
445 835Q466 835 466 854Q466 863 462 872T447 900Q447 906 458 906H461L573 907Q579 902 582 896Q592 876 594 841Q595 833 595 828T596 818Q596 796 588 778Q576 753 552 735T499 708Q485 703 466 703Z" />
<glyph unicode="&#xc4;" glyph-name="Adieresis" horiz-adv-x="781" d="M743 -2Q736 -2 731 -2T721 0H555Q554 0 552 0T547 2H517L474 3Q470 3 469 2Q467 0 461 0H458L457 1Q453 1 453 2Q450 3 447 3T442 3Q440 11 437 32T423 94L415 122H359Q343 122 331 123T306
127Q306 123 305 118T303 104Q296 67 289 39T277 3Q269 3 258 3T232 2Q217 2 213 0H204Q203 0 203 2Q202 3 200 3Q192 3 189 2V0H56Q52 -1 47 -1T33 -2H23Q15 -2 12 3Q5 13 5 25Q5 32 6 35Q6 40 6 44T7 55Q9 66 12 71Q15 82 15 86Q17 98 33 170T79 366T147 651Q147
652 149 656T156 662H160L162 660Q167 660 169 662T175 665Q183 667 187 667Q194 667 200 667T214 665Q216 665 219 665T224 664Q226 663 230 663T239 662Q239 664 244 664T251 665Q260 666 272 666T304 667H399Q399 666 408 666Q413 666 416 666T424 665H474Q476
664 478 663T483 662Q488 662 493 662T504 664Q509 665 514 665T522 665Q533 666 542 666T561 667Q567 667 573 668T586 665Q594 661 600 661T612 660Q616 660 616 662H620Q623 661 626 657T629 651Q639 613 652 560T679 445T709 321T738 201T762 97Q764 87 764
83T766 74Q767 67 771 51T776 27Q776 19 772 18Q768 -2 755 -2H743ZM318 241Q324 241 324 243H330Q332 244 337 246T349 248H350L357 243H404L397 288L393 307Q391 318 389 325T387 340Q387 345 384 366T377 416L373 444Q370 453 369 461T366 476L364 488V493Q362
495 362 498Q362 502 361 502V498Q361 494 357 488V476Q355 468 354 460T351 444L342 397Q334 357 330 318T318 241ZM135 750L129 756L122 788V817L121 837L120 843Q120 852 124 856L127 887V890L126 895Q128 901 130 907T137 918Q142 923 155 923H259Q275 925
282 925T294 926Q302 926 304 926T307 925Q312 925 313 924Q315 923 320 923H327Q330 923 331 924Q332 925 334 925H337Q349 925 349 900V880Q348 874 348 870T347 860Q347 859 347 858T349 853V800Q350 798 350 795T350 777Q350 752 334 750H135ZM499 750L440
756L434 788V817Q434 833 431 843V848Q430 849 430 856V870Q429 873 429 877T429 897Q429 898 430 899Q430 900 429 901V905Q430 906 431 908T435 913Q438 919 442 920Q453 923 467 923H571Q588 925 595 925T605 926Q614 926 616 926T619 925Q623 925 624 924Q626
923 632 923H639Q642 923 643 924Q644 925 646 925H649Q660 925 660 900V887L659 860V857Q659 854 660 853V821L659 810V800Q659 791 660 790Q661 786 661 783T662 777Q662 751 646 750H499Z" />
<glyph unicode="&#xc5;" glyph-name="Aring" horiz-adv-x="781" d="M743 -2Q736 -2 731 -2T721 0H555Q554 0 552 0T547 2H517L474 3Q470 3 469 2Q467 0 461 0H458L457 1Q453 1 453 2Q450 3 447 3T442 3Q440 11 437 32T423 94L415 122H359Q343 122 331 123T306
127Q306 123 305 118T303 104Q296 67 289 39T277 3Q269 3 258 3T232 2Q217 2 213 0H204Q203 0 203 2Q202 3 200 3Q192 3 189 2V0H56Q52 -1 47 -1T33 -2H23Q15 -2 12 3Q5 13 5 25Q5 32 6 35Q6 40 6 44T7 55Q9 66 12 71Q15 82 15 86Q17 98 33 170T79 366T147 651Q147
652 149 656T156 662H160L162 660Q167 660 169 662T175 665Q183 667 187 667Q194 667 200 667T214 665Q216 665 219 665T224 664Q226 663 230 663T239 662Q239 664 244 664T251 665Q260 666 272 666T304 667H399Q399 666 408 666Q413 666 416 666T424 665H474Q476
664 478 663T483 662Q488 662 493 662T504 664Q509 665 514 665T522 665Q533 666 542 666T561 667Q567 667 573 668T586 665Q594 661 600 661T612 660Q616 660 616 662H620Q623 661 626 657T629 651Q639 613 652 560T679 445T709 321T738 201T762 97Q764 87 764
83T766 74Q767 67 771 51T776 27Q776 19 772 18Q768 -2 755 -2H743ZM318 241Q324 241 324 243H330Q332 244 337 246T349 248H350L357 243H404L397 288L393 307Q391 318 389 325T387 340Q387 345 384 366T377 416L373 444Q370 453 369 461T366 476L364 488V493Q362
495 362 498Q362 502 361 502V498Q361 494 357 488V476Q355 468 354 460T351 444L342 397Q334 357 330 318T318 241ZM376 728Q312 727 259 755Q240 766 228 783T204 824Q197 844 193 865T188 908Q188 981 231 1040Q253 1070 282 1086T347 1103Q355 1103 360 1103T368
1102Q368 1103 371 1103H373Q401 1103 419 1103T448 1101Q476 1095 501 1083Q552 1049 572 1009T593 913Q593 881 584 849T555 790L550 788Q525 749 471 736Q450 730 428 729T401 728H376ZM382 848Q417 848 438 869Q458 886 462 902T467 933V937Q467 948 458 963Q443
983 422 988T382 993Q360 993 345 976Q323 954 323 905V894Q326 894 326 888Q329 871 351 856Q369 848 382 848Z" />
<glyph unicode="&#xc6;" glyph-name="AE" horiz-adv-x="1047" d="M1040 45Q1042 40 1042 30Q1042 9 1023 9Q991 9 952 6Q949 6 946 6T939 5H934Q923 5 908 5T873 3Q856 2 841 2T812 1H747Q734 1 718 1T698 0L692 -1H677Q658 -1 655 0H585Q575 0 572 1H564V3H553Q552
3 552 2Q551 1 550 1H539Q535 2 530 2T519 3Q504 4 492 4T472 5Q468 13 468 48Q468 87 468 100T469 123Q450 119 418 119H363Q351 92 343 73T329 42Q322 29 317 20T308 5L299 3Q293 1 292 1H289Q284 1 282 3L277 5L232 3H200Q196 2 194 2T189 1H124Q120 0 113 0T79
0H53Q49 -1 44 -1T32 -1H17Q3 -1 5 19Q6 26 17 59L24 78Q29 84 30 91Q56 149 84 210T144 339L295 655Q295 658 300 662T308 666H312Q312 665 317 665Q328 665 343 668Q357 671 372 671Q393 671 412 668L489 670Q494 670 494 671H541Q542 671 542 671T544 672Q554
673 567 673T593 674Q626 674 654 674T702 677Q727 678 743 678T774 678T810 679H854Q896 679 927 677T980 673Q995 673 1003 636Q1005 632 1006 624T1010 599Q1012 577 1014 565T1018 542Q1019 540 1019 531Q1018 530 1018 523Q1017 514 1007 514Q1005 515 996
515Q974 515 949 513T891 508L839 504Q823 503 810 502T787 499Q784 499 779 488Q776 481 773 479T769 467L767 433Q766 420 770 416T785 412H874Q912 412 963 406H973Q992 406 996 384L998 285V282Q998 264 964 262Q955 260 943 259T911 257Q897 255 879 254T835
253Q811 253 795 253T770 254Q765 251 765 242T764 201Q763 197 763 191T762 162Q822 162 856 163T909 165Q938 166 961 166T1004 167Q1007 167 1012 160Q1016 153 1023 124T1040 45ZM499 511Q498 510 498 506L493 496Q493 494 492 492L489 483Q487 476 486 473T483
466L477 449Q470 430 466 419T460 403Q457 393 452 380T440 348L431 323Q426 311 422 294Q421 290 416 276T404 248H445Q476 248 485 244L492 346Q493 356 493 369T494 400L495 420Q496 430 496 437T497 448L498 483L499 496V511Z" />
<glyph unicode="&#xc7;" glyph-name="Ccedilla" horiz-adv-x="707" d="M654 229Q667 225 667 212V209Q692 140 692 54Q652 12 587 -7T416 -26Q244 -26 135 65Q20 161 20 332Q20 428 47 493T135 605Q170 632 221 652T334 683T457 694Q473 694 484 693T510 689T555
683Q561 683 567 682T580 679L613 674Q621 673 632 670T650 667Q651 667 652 667T655 665Q656 664 657 662T659 659Q666 655 667 655H670L672 635Q673 627 673 619T674 603Q675 593 675 576T676 539Q676 512 672 499T656 477L572 489H558Q548 489 546 489T540 490T525
490L524 489Q448 489 404 446T359 330Q359 260 401 221T511 190L554 195Q573 197 594 202T654 229ZM366 -328H349Q318 -328 285 -315Q268 -309 259 -298L269 -253Q271 -248 273 -243T276 -234Q279 -226 280 -225Q313 -239 349 -239Q366 -239 379 -237T401 -224Q408
-214 411 -209T414 -193Q414 -178 397 -169T351 -159Q329 -159 309 -168L311 -128L325 8L330 18H437L424 -48Q509 -61 549 -95T589 -174Q589 -217 569 -252T500 -307T366 -328Z" />
<glyph unicode="&#xc8;" glyph-name="Egrave" horiz-adv-x="645" d="M270 -4H112Q101 -4 97 -3Q92 -2 86 -2T73 0L52 5Q47 5 44 8Q44 10 44 10Q44 36 41 78Q41 94 40 105T37 125L35 167Q34 176 34 187T34 212L32 242Q31 261 31 276T31 301Q31 306 31 313T30 338T30
390Q30 485 31 543T37 646Q37 656 62 664Q72 665 85 665T111 666Q152 666 181 666T230 669Q289 670 333 670T408 671H452Q494 671 525 669T578 665Q593 665 601 628Q603 624 604 616T608 591Q610 569 612 557T616 534Q617 532 617 523Q616 522 616 515Q615 506
605 506Q603 507 594 507Q572 507 547 505T489 500L437 496L385 491Q382 491 377 480Q374 473 371 471T367 459L365 425Q364 412 368 408T383 404H472Q510 404 561 398H571Q590 398 594 376L596 277V274Q596 256 562 254Q553 251 535 250T480 249Q443 249 432 249T415
250Q394 250 388 250T380 249Q370 247 367 245T363 232T362 193Q361 189 361 183T360 154Q420 154 454 155T507 157Q536 158 559 158T602 159Q605 159 610 152Q614 145 621 116T638 37Q640 32 640 22Q640 1 621 1Q589 1 550 -2Q543 -3 531 -3T479 -3Q444 -3 402
-3T324 -3T270 -4ZM311 733H274Q270 733 267 736T257 748Q251 758 246 765T233 785T206 822L193 846Q191 850 187 856T178 871Q165 893 158 906T148 923Q144 930 142 935T138 942Q135 948 135 952Q135 958 141 961Q147 965 168 969H173Q173 968 175 968L183 971L225
973L231 974Q234 974 235 975Q236 976 238 976H248Q254 976 258 974L264 977L323 974L366 967L374 961Q384 926 394 891T416 815Q417 807 420 794T424 763Q424 733 405 733H322L319 736L311 733Z" />
<glyph unicode="&#xc9;" glyph-name="Eacute" horiz-adv-x="645" d="M270 -4H112Q101 -4 97 -3Q92 -2 86 -2T73 0L52 5Q47 5 44 8Q44 10 44 10Q44 36 41 78Q41 94 40 105T37 125L35 167Q34 176 34 187T34 212L32 242Q31 261 31 276T31 301Q31 306 31 313T30 338T30
390Q30 485 31 543T37 646Q37 656 62 664Q72 665 85 665T111 666Q152 666 181 666T230 669Q289 670 333 670T408 671H452Q494 671 525 669T578 665Q593 665 601 628Q603 624 604 616T608 591Q610 569 612 557T616 534Q617 532 617 523Q616 522 616 515Q615 506
605 506Q603 507 594 507Q572 507 547 505T489 500L437 496L385 491Q382 491 377 480Q374 473 371 471T367 459L365 425Q364 412 368 408T383 404H472Q510 404 561 398H571Q590 398 594 376L596 277V274Q596 256 562 254Q553 251 535 250T480 249Q443 249 432 249T415
250Q394 250 388 250T380 249Q370 247 367 245T363 232T362 193Q361 189 361 183T360 154Q420 154 454 155T507 157Q536 158 559 158T602 159Q605 159 610 152Q614 145 621 116T638 37Q640 32 640 22Q640 1 621 1Q589 1 550 -2Q543 -3 531 -3T479 -3Q444 -3 402
-3T324 -3T270 -4ZM328 733L320 736L317 733H234Q222 733 219 741T215 763Q215 780 218 793T223 815Q234 851 244 886T265 961L273 967L316 974L375 977L381 974Q385 976 391 976H401Q403 976 404 975Q405 974 408 974L414 973L456 971L464 968Q466 968 466 969H471Q492
965 498 961Q504 958 504 952Q504 948 501 942Q499 937 491 923Q489 919 482 906T461 871Q456 862 452 856T446 846L433 822Q416 798 407 786T394 766T382 748Q372 733 365 733H328Z" />
<glyph unicode="&#xca;" glyph-name="Ecircumflex" horiz-adv-x="645" d="M270 -4H112Q101 -4 97 -3Q92 -2 86 -2T73 0L52 5Q47 5 44 8Q44 10 44 10Q44 36 41 78Q41 94 40 105T37 125L35 167Q34 176 34 187T34 212L32 242Q31 261 31 276T31 301Q31 306 31 313T30
338T30 390Q30 485 31 543T37 646Q37 656 62 664Q72 665 85 665T111 666Q152 666 181 666T230 669Q289 670 333 670T408 671H452Q494 671 525 669T578 665Q593 665 601 628Q603 624 604 616T608 591Q610 569 612 557T616 534Q617 532 617 523Q616 522 616 515Q615
506 605 506Q603 507 594 507Q572 507 547 505T489 500L437 496L385 491Q382 491 377 480Q374 473 371 471T367 459L365 425Q364 412 368 408T383 404H472Q510 404 561 398H571Q590 398 594 376L596 277V274Q596 256 562 254Q553 251 535 250T480 249Q443 249 432
249T415 250Q394 250 388 250T380 249Q370 247 367 245T363 232T362 193Q361 189 361 183T360 154Q420 154 454 155T507 157Q536 158 559 158T602 159Q605 159 610 152Q614 145 621 116T638 37Q640 32 640 22Q640 1 621 1Q589 1 550 -2Q543 -3 531 -3T479 -3Q444
-3 402 -3T324 -3T270 -4ZM155 729H133Q124 729 124 742V749Q128 772 151 816Q154 821 157 829T167 847L183 881L204 920Q208 925 213 935T227 958L232 963L265 970H375L396 968L412 958L443 909Q473 859 496 805Q511 771 515 749L516 746V742Q516 729 505 729H411Q406
729 401 736Q388 751 383 758T374 773Q370 778 367 781T361 789Q351 801 341 815T319 845Q306 822 298 807T283 785L273 775Q256 758 246 744T229 729H201L198 730L195 729H173Q169 729 166 730Q157 730 155 729Z" />
<glyph unicode="&#xcb;" glyph-name="Edieresis" horiz-adv-x="645" d="M270 -4H112Q101 -4 97 -3Q92 -2 86 -2T73 0L52 5Q47 5 44 8Q44 10 44 10Q44 36 41 78Q41 94 40 105T37 125L35 167Q34 176 34 187T34 212L32 242Q31 261 31 276T31 301Q31 306 31 313T30
338T30 390Q30 485 31 543T37 646Q37 656 62 664Q72 665 85 665T111 666Q152 666 181 666T230 669Q289 670 333 670T408 671H452Q494 671 525 669T578 665Q593 665 601 628Q603 624 604 616T608 591Q610 569 612 557T616 534Q617 532 617 523Q616 522 616 515Q615
506 605 506Q603 507 594 507Q572 507 547 505T489 500L437 496L385 491Q382 491 377 480Q374 473 371 471T367 459L365 425Q364 412 368 408T383 404H472Q510 404 561 398H571Q590 398 594 376L596 277V274Q596 256 562 254Q553 251 535 250T480 249Q443 249 432
249T415 250Q394 250 388 250T380 249Q370 247 367 245T363 232T362 193Q361 189 361 183T360 154Q420 154 454 155T507 157Q536 158 559 158T602 159Q605 159 610 152Q614 145 621 116T638 37Q640 32 640 22Q640 1 621 1Q589 1 550 -2Q543 -3 531 -3T479 -3Q444
-3 402 -3T324 -3T270 -4ZM64 750L58 756L51 788V817L50 837L49 843Q49 852 53 856L56 887V890L55 895Q57 901 59 907T66 918Q71 923 84 923H188Q204 925 211 925T223 926Q231 926 233 926T236 925Q241 925 242 924Q244 923 249 923H256Q259 923 260 924Q261 925
263 925H266Q278 925 278 900V880Q277 874 277 870T276 860Q276 859 276 858T278 853V800Q279 798 279 795T279 777Q279 752 263 750H64ZM428 750L369 756L363 788V817Q363 833 360 843V848Q359 849 359 856V870Q358 873 358 877T358 897Q358 898 359 899Q359 900
358 901V905Q359 906 360 908T364 913Q367 919 371 920Q382 923 396 923H500Q517 925 524 925T534 926Q543 926 545 926T548 925Q552 925 553 924Q555 923 561 923H568Q571 923 572 924Q573 925 575 925H578Q589 925 589 900V887L588 860V857Q588 854 589 853V821L588
810V800Q588 791 589 790Q590 786 590 783T591 777Q591 751 575 750H428Z" />
<glyph unicode="&#xcc;" glyph-name="Igrave" horiz-adv-x="408" d="M103 -19L77 -23Q63 -23 57 -9T49 23T47 50Q47 69 46 72Q45 89 44 115T40 178L36 222Q32 274 31 310T30 372V651Q30 661 46 664T83 668Q89 668 97 668T113 667Q121 666 127 666T137 665Q145
664 159 664T191 663L195 666H245Q250 663 254 663H258Q260 665 271 665Q272 666 273 666H275Q279 666 283 665L290 663H351Q365 663 370 657T375 645L378 464Q378 461 377 458L374 441Q370 420 370 404T370 375V151L367 108Q366 93 365 81T365 60Q365 15 354 0Q348
-9 334 -9L333 -7L328 -6Q326 -6 326 -7H321Q318 -8 316 -9T313 -11Q310 -11 303 -10T286 -7L270 -6Q265 -6 264 -11H161L131 -16L103 -19ZM451 733H414Q410 733 407 736T397 748Q391 758 386 765T373 785T346 822L333 846Q331 850 327 856T318 871Q305 893 298
906T288 923Q284 930 282 935T278 942Q275 948 275 952Q275 958 281 961Q287 965 308 969H313Q313 968 315 968L323 971L365 973L371 974Q374 974 375 975Q376 976 378 976H388Q394 976 398 974L404 977L463 974L506 967L514 961Q524 926 534 891T556 815Q557 807
560 794T564 763Q564 733 545 733H462L459 736L451 733Z" />
<glyph unicode="&#xcd;" glyph-name="Iacute" horiz-adv-x="408" d="M103 -19L77 -23Q63 -23 57 -9T49 23T47 50Q47 69 46 72Q45 89 44 115T40 178L36 222Q32 274 31 310T30 372V651Q30 661 46 664T83 668Q89 668 97 668T113 667Q121 666 127 666T137 665Q145
664 159 664T191 663L195 666H245Q250 663 254 663H258Q260 665 271 665Q272 666 273 666H275Q279 666 283 665L290 663H351Q365 663 370 657T375 645L378 464Q378 461 377 458L374 441Q370 420 370 404T370 375V151L367 108Q366 93 365 81T365 60Q365 15 354 0Q348
-9 334 -9L333 -7L328 -6Q326 -6 326 -7H321Q318 -8 316 -9T313 -11Q310 -11 303 -10T286 -7L270 -6Q265 -6 264 -11H161L131 -16L103 -19ZM468 733L460 736L457 733H374Q362 733 359 741T355 763Q355 780 358 793T363 815Q374 851 384 886T405 961L413 967L456
974L515 977L521 974Q525 976 531 976H541Q543 976 544 975Q545 974 548 974L554 973L596 971L604 968Q606 968 606 969H611Q632 965 638 961Q644 958 644 952Q644 948 641 942Q639 937 631 923Q629 919 622 906T601 871Q596 862 592 856T586 846L573 822Q556 798
547 786T534 766T522 748Q512 733 505 733H468Z" />
<glyph unicode="&#xce;" glyph-name="Icircumflex" horiz-adv-x="408" d="M103 -19L77 -23Q63 -23 57 -9T49 23T47 50Q47 69 46 72Q45 89 44 115T40 178L36 222Q32 274 31 310T30 372V651Q30 661 46 664T83 668Q89 668 97 668T113 667Q121 666 127 666T137 665Q145
664 159 664T191 663L195 666H245Q250 663 254 663H258Q260 665 271 665Q272 666 273 666H275Q279 666 283 665L290 663H351Q365 663 370 657T375 645L378 464Q378 461 377 458L374 441Q370 420 370 404T370 375V151L367 108Q366 93 365 81T365 60Q365 15 354 0Q348
-9 334 -9L333 -7L328 -6Q326 -6 326 -7H321Q318 -8 316 -9T313 -11Q310 -11 303 -10T286 -7L270 -6Q265 -6 264 -11H161L131 -16L103 -19ZM295 729H273Q264 729 264 742V749Q268 772 291 816Q294 821 297 829T307 847L323 881L344 920Q348 925 353 935T367 958L372
963L405 970H515L536 968L552 958L583 909Q613 859 636 805Q651 771 655 749L656 746V742Q656 729 645 729H551Q546 729 541 736Q528 751 523 758T514 773Q510 778 507 781T501 789Q491 801 481 815T459 845Q446 822 438 807T423 785L413 775Q396 758 386 744T369
729H341L338 730L335 729H313Q309 729 306 730Q297 730 295 729Z" />
<glyph unicode="&#xcf;" glyph-name="Idieresis" horiz-adv-x="408" d="M103 -19L77 -23Q63 -23 57 -9T49 23T47 50Q47 69 46 72Q45 89 44 115T40 178L36 222Q32 274 31 310T30 372V651Q30 661 46 664T83 668Q89 668 97 668T113 667Q121 666 127 666T137 665Q145
664 159 664T191 663L195 666H245Q250 663 254 663H258Q260 665 271 665Q272 666 273 666H275Q279 666 283 665L290 663H351Q365 663 370 657T375 645L378 464Q378 461 377 458L374 441Q370 420 370 404T370 375V151L367 108Q366 93 365 81T365 60Q365 15 354 0Q348
-9 334 -9L333 -7L328 -6Q326 -6 326 -7H321Q318 -8 316 -9T313 -11Q310 -11 303 -10T286 -7L270 -6Q265 -6 264 -11H161L131 -16L103 -19ZM204 750L198 756L191 788V817L190 837L189 843Q189 852 193 856L196 887V890L195 895Q197 901 199 907T206 918Q211 923
224 923H328Q344 925 351 925T363 926Q371 926 373 926T376 925Q381 925 382 924Q384 923 389 923H396Q399 923 400 924Q401 925 403 925H406Q418 925 418 900V880Q417 874 417 870T416 860Q416 859 416 858T418 853V800Q419 798 419 795T419 777Q419 752 403 750H204ZM568
750L509 756L503 788V817Q503 833 500 843V848Q499 849 499 856V870Q498 873 498 877T498 897Q498 898 499 899Q499 900 498 901V905Q499 906 500 908T504 913Q507 919 511 920Q522 923 536 923H640Q657 925 664 925T674 926Q683 926 685 926T688 925Q692 925 693
924Q695 923 701 923H708Q711 923 712 924Q713 925 715 925H718Q729 925 729 900V887L728 860V857Q728 854 729 853V821L728 810V800Q728 791 729 790Q730 786 730 783T731 777Q731 751 715 750H568Z" />
<glyph unicode="&#xd0;" glyph-name="Eth" horiz-adv-x="869" d="M30 394Q30 397 38 402T57 408H94V645Q94 654 102 662T120 671L236 670Q253 669 273 669T319 669Q357 669 386 669T436 670L473 671Q504 672 528 672T571 673Q633 673 696 648T800 560Q849 484
849 373Q849 268 826 198T751 83Q700 39 618 19T411 -1L126 1Q108 1 104 23Q99 38 99 63Q99 107 99 145T97 218Q97 231 97 243T96 269Q82 269 71 270T54 271Q31 276 31 284V340Q30 351 30 363T30 394ZM468 406Q477 406 483 401T489 394L486 342Q486 337 486 332T485
323V300Q485 287 478 281T459 274H420L413 115Q418 114 429 114Q435 114 442 114T460 116Q464 117 466 117T471 119Q472 120 474 120T478 121Q494 135 507 171T534 276Q538 305 539 330T541 376V395Q541 413 538 443T527 502T506 546Q490 560 478 560Q465 560 455
558T441 555Q440 554 429 550L428 430Q428 426 428 420T426 406H468Z" />
<glyph unicode="&#xd1;" glyph-name="Ntilde" horiz-adv-x="807" d="M152 -5Q147 -5 143 -5T135 -4H90L46 7L44 14Q42 14 42 24Q41 41 41 58T40 94Q40 108 40 119T38 137Q38 152 38 163T37 181V215Q32 260 31 315T30 420L32 521Q33 529 33 543T33 573Q33 591 33
604T32 624Q29 647 42 655T79 663Q92 663 98 663T114 664T144 665L167 666Q195 668 213 669T239 671Q254 671 264 671T280 666Q284 663 292 652T303 638Q310 630 311 630T318 622Q327 609 333 598T346 580L481 451L514 421Q514 434 514 445T515 464V555L518 625Q519
630 519 632T520 636Q520 638 523 641Q524 642 526 642Q538 654 550 657Q559 660 566 660H634Q638 659 645 659T663 659Q671 659 667 659T657 659T657 657H731Q757 657 767 650T777 616L776 606L775 589Q773 586 773 574V554L776 543V513Q775 505 775 490T775 455V382Q774
369 774 351T773 310V63L769 23Q766 4 752 -3L736 -4L719 -3H580Q561 -4 547 1T522 14L352 176Q352 177 345 184T330 200T316 214Q315 216 314 218T311 221Q310 221 310 221T308 222Q298 222 298 215V193Q297 188 297 180T297 160V83Q296 77 295 70T294 55V20L296
14Q296 12 294 9T288 6Q284 3 274 5Q255 4 242 2T220 -1Q211 -2 196 -3T168 -4T152 -5ZM493 713Q440 713 410 737Q392 750 385 757T362 780Q331 811 305 811Q296 811 290 799T283 770Q281 756 280 749T278 739Q276 734 272 737Q268 738 263 738T241 738Q228 739
215 740T192 742Q181 744 174 746T166 755Q166 759 165 761Q164 763 164 764T163 768Q163 767 161 774T158 787Q158 827 166 862Q187 968 320 968Q330 968 344 964T371 952Q405 938 419 917Q426 911 428 905Q443 884 453 877Q462 871 469 871Q493 871 493 893Q493
904 489 915T471 948Q471 955 484 955H488L621 957Q629 950 632 943Q644 919 647 878Q648 868 648 862T649 850Q649 823 639 802Q626 773 597 751T533 719Q517 713 493 713Z" />
<glyph unicode="&#xd2;" glyph-name="Ograve" horiz-adv-x="809" d="M412 -26Q298 -26 210 -1T76 91Q48 133 34 189T20 318Q20 506 110 599Q157 647 238 669T422 692Q476 692 534 678T644 636T729 563Q760 523 774 470T789 361Q789 284 779 223T745 119Q702 40
618 7T412 -26ZM416 104Q426 104 433 115T455 139Q468 152 475 179T485 242T488 309V365Q488 386 486 417T477 480T456 532T416 553Q398 553 387 544T368 517Q356 492 353 467T349 421Q347 403 347 383T346 326Q346 301 346 282T349 245Q349 227 354 200T368 147Q382
104 416 104ZM416 733H379Q375 733 372 736T362 748Q356 758 351 765T338 785T311 822L298 846Q296 850 292 856T283 871Q270 893 263 906T253 923Q249 930 247 935T243 942Q240 948 240 952Q240 958 246 961Q252 965 273 969H278Q278 968 280 968L288 971L330
973L336 974Q339 974 340 975Q341 976 343 976H353Q359 976 363 974L369 977L428 974L471 967L479 961Q489 926 499 891T521 815Q522 807 525 794T529 763Q529 733 510 733H427L424 736L416 733Z" />
<glyph unicode="&#xd3;" glyph-name="Oacute" horiz-adv-x="809" d="M412 -26Q298 -26 210 -1T76 91Q48 133 34 189T20 318Q20 506 110 599Q157 647 238 669T422 692Q476 692 534 678T644 636T729 563Q760 523 774 470T789 361Q789 284 779 223T745 119Q702 40
618 7T412 -26ZM416 104Q426 104 433 115T455 139Q468 152 475 179T485 242T488 309V365Q488 386 486 417T477 480T456 532T416 553Q398 553 387 544T368 517Q356 492 353 467T349 421Q347 403 347 383T346 326Q346 301 346 282T349 245Q349 227 354 200T368 147Q382
104 416 104ZM433 733L425 736L422 733H339Q327 733 324 741T320 763Q320 780 323 793T328 815Q339 851 349 886T370 961L378 967L421 974L480 977L486 974Q490 976 496 976H506Q508 976 509 975Q510 974 513 974L519 973L561 971L569 968Q571 968 571 969H576Q597
965 603 961Q609 958 609 952Q609 948 606 942Q604 937 596 923Q594 919 587 906T566 871Q561 862 557 856T551 846L538 822Q521 798 512 786T499 766T487 748Q477 733 470 733H433Z" />
<glyph unicode="&#xd4;" glyph-name="Ocircumflex" horiz-adv-x="809" d="M412 -26Q298 -26 210 -1T76 91Q48 133 34 189T20 318Q20 506 110 599Q157 647 238 669T422 692Q476 692 534 678T644 636T729 563Q760 523 774 470T789 361Q789 284 779 223T745 119Q702
40 618 7T412 -26ZM416 104Q426 104 433 115T455 139Q468 152 475 179T485 242T488 309V365Q488 386 486 417T477 480T456 532T416 553Q398 553 387 544T368 517Q356 492 353 467T349 421Q347 403 347 383T346 326Q346 301 346 282T349 245Q349 227 354 200T368
147Q382 104 416 104ZM260 729H238Q229 729 229 742V749Q233 772 256 816Q259 821 262 829T272 847L288 881L309 920Q313 925 318 935T332 958L337 963L370 970H480L501 968L517 958L548 909Q578 859 601 805Q616 771 620 749L621 746V742Q621 729 610 729H516Q511
729 506 736Q493 751 488 758T479 773Q475 778 472 781T466 789Q456 801 446 815T424 845Q411 822 403 807T388 785L378 775Q361 758 351 744T334 729H306L303 730L300 729H278Q274 729 271 730Q262 730 260 729Z" />
<glyph unicode="&#xd5;" glyph-name="Otilde" horiz-adv-x="809" d="M412 -26Q298 -26 210 -1T76 91Q48 133 34 189T20 318Q20 506 110 599Q157 647 238 669T422 692Q476 692 534 678T644 636T729 563Q760 523 774 470T789 361Q789 284 779 223T745 119Q702 40
618 7T412 -26ZM416 104Q426 104 433 115T455 139Q468 152 475 179T485 242T488 309V365Q488 386 486 417T477 480T456 532T416 553Q398 553 387 544T368 517Q356 492 353 467T349 421Q347 403 347 383T346 326Q346 301 346 282T349 245Q349 227 354 200T368 147Q382
104 416 104ZM514 713Q461 713 431 737Q413 750 406 757T383 780Q352 811 326 811Q317 811 311 799T304 770Q302 756 301 749T299 739Q297 734 293 737Q289 738 284 738T262 738Q249 739 236 740T213 742Q202 744 195 746T187 755Q187 759 186 761Q185 763 185
764T184 768Q184 767 182 774T179 787Q179 827 187 862Q208 968 341 968Q351 968 365 964T392 952Q426 938 440 917Q447 911 449 905Q464 884 474 877Q483 871 490 871Q514 871 514 893Q514 904 510 915T492 948Q492 955 505 955H509L642 957Q650 950 653 943Q665
919 668 878Q669 868 669 862T670 850Q670 823 660 802Q647 773 618 751T554 719Q538 713 514 713Z" />
<glyph unicode="&#xd6;" glyph-name="Odieresis" horiz-adv-x="809" d="M412 -26Q298 -26 210 -1T76 91Q48 133 34 189T20 318Q20 506 110 599Q157 647 238 669T422 692Q476 692 534 678T644 636T729 563Q760 523 774 470T789 361Q789 284 779 223T745 119Q702
40 618 7T412 -26ZM416 104Q426 104 433 115T455 139Q468 152 475 179T485 242T488 309V365Q488 386 486 417T477 480T456 532T416 553Q398 553 387 544T368 517Q356 492 353 467T349 421Q347 403 347 383T346 326Q346 301 346 282T349 245Q349 227 354 200T368
147Q382 104 416 104ZM169 750L163 756L156 788V817L155 837L154 843Q154 852 158 856L161 887V890L160 895Q162 901 164 907T171 918Q176 923 189 923H293Q309 925 316 925T328 926Q336 926 338 926T341 925Q346 925 347 924Q349 923 354 923H361Q364 923 365
924Q366 925 368 925H371Q383 925 383 900V880Q382 874 382 870T381 860Q381 859 381 858T383 853V800Q384 798 384 795T384 777Q384 752 368 750H169ZM533 750L474 756L468 788V817Q468 833 465 843V848Q464 849 464 856V870Q463 873 463 877T463 897Q463 898
464 899Q464 900 463 901V905Q464 906 465 908T469 913Q472 919 476 920Q487 923 501 923H605Q622 925 629 925T639 926Q648 926 650 926T653 925Q657 925 658 924Q660 923 666 923H673Q676 923 677 924Q678 925 680 925H683Q694 925 694 900V887L693 860V857Q693
854 694 853V821L693 810V800Q693 791 694 790Q695 786 695 783T696 777Q696 751 680 750H533Z" />
<glyph unicode="&#xd7;" glyph-name="multiply" horiz-adv-x="611" d="M150 31Q135 31 121 42T95 67T72 89L60 103L47 115Q39 125 39 131Q41 133 43 136T47 142Q64 159 75 172T94 193L135 233Q141 241 146 244L153 251L165 265L155 276Q153 278 147 286Q145 288
142 290T137 295L117 316Q114 320 111 324T103 333Q95 341 82 357T56 386Q43 399 40 403Q33 411 33 416Q33 418 35 421T42 430Q54 443 72 463T113 501T157 529Q169 538 186 538Q193 538 202 535Q211 528 219 521T236 505L249 492L320 403L401 486L430 512Q432 514
435 516T441 521Q448 524 451 527Q455 528 458 528T466 529Q477 529 486 517T512 491Q524 479 527 474T532 465T546 451L557 439L568 426Q577 417 577 412Q576 409 568 401Q561 389 542 370L520 349L490 323L471 304L441 273L449 281Q452 277 459 269T479 247L493
232Q501 225 513 211T546 172Q548 168 550 166T556 160Q561 156 566 149T571 139Q571 133 562 124Q546 108 532 96T501 72Q476 55 467 50T443 36Q436 32 428 32T415 37Q414 38 412 39T406 42Q396 49 387 56T368 72Q367 74 365 77T357 85L287 154L212 77Q206 71
193 60T163 35Q158 31 150 31Z" />
<glyph unicode="&#xd8;" glyph-name="Oslash" horiz-adv-x="809" d="M120 -37Q110 -45 102 -51T88 -59Q82 -59 74 -54Q71 -54 68 -52T63 -49Q59 -45 56 -43T48 -40L42 -33Q20 -23 26 -10Q27 -8 28 -5T32 3Q38 11 39 13Q42 15 46 17T53 23Q56 28 58 30T64 37L95
67Q86 76 76 91Q48 133 34 189T20 318Q20 506 110 599Q157 647 238 669T422 692Q484 692 550 675T670 619L671 620L738 681Q742 683 747 683Q754 683 758 680L773 672Q779 667 789 665Q794 661 801 656Q814 650 814 641Q814 637 805 625Q796 611 790 604T778 593Q774
590 772 588T769 583Q767 580 764 578T755 570L737 552Q763 512 776 463T789 361Q789 284 779 223T745 119Q702 40 618 7T412 -26Q342 -26 282 -18T173 13Q124 -34 120 -37ZM346 308L484 440Q481 468 473 494T452 536T416 553Q398 553 387 544T368 517Q356 492
353 467T349 421Q347 403 347 383T346 326V308ZM357 188Q359 178 362 168T368 147Q382 104 416 104Q426 104 433 115T455 139Q468 152 475 179T485 242T488 309V313L357 188Z" />
<glyph unicode="&#xd9;" glyph-name="Ugrave" horiz-adv-x="813" d="M779 641Q783 641 783 635Q783 535 783 453T781 301T778 166T771 33Q771 16 765 6T755 -8L751 -12L748 -14Q747 -13 740 -12T728 -10L724 -12Q722 -14 720 -14Q696 -18 661 -20T575 -22H524Q510
-22 498 -21T474 -17Q470 -15 466 -6T457 26Q455 35 452 40Q451 42 455 44T457 46L452 49H451Q424 19 387 2T310 -22T233 -30Q171 -30 131 -8T69 50T40 130Q36 156 33 195T30 296Q30 333 31 372T35 454Q35 459 37 469T40 492Q40 512 40 545T41 605Q41 613 41 619T40
626Q40 632 39 638T38 648Q38 656 46 658T71 661H129Q159 661 188 661T248 659Q326 654 344 631Q346 626 347 612T348 581Q348 538 348 507T347 447V425Q347 415 347 399T346 359Q345 316 346 278T344 210Q338 164 359 145T416 144Q424 147 429 152T438 163V545Q436
557 435 567T433 584Q432 586 432 590T432 600V629Q432 643 436 647T450 652Q457 652 457 646V644Q468 649 502 652T575 655H644L765 652Q770 652 770 649Q771 649 771 648V641Q770 641 770 637L776 639Q778 641 779 641ZM383 733H346Q342 733 339 736T329 748Q323
758 318 765T305 785T278 822L265 846Q263 850 259 856T250 871Q237 893 230 906T220 923Q216 930 214 935T210 942Q207 948 207 952Q207 958 213 961Q219 965 240 969H245Q245 968 247 968L255 971L297 973L303 974Q306 974 307 975Q308 976 310 976H320Q326 976
330 974L336 977L395 974L438 967L446 961Q456 926 466 891T488 815Q489 807 492 794T496 763Q496 733 477 733H394L391 736L383 733Z" />
<glyph unicode="&#xda;" glyph-name="Uacute" horiz-adv-x="813" d="M779 641Q783 641 783 635Q783 535 783 453T781 301T778 166T771 33Q771 16 765 6T755 -8L751 -12L748 -14Q747 -13 740 -12T728 -10L724 -12Q722 -14 720 -14Q696 -18 661 -20T575 -22H524Q510
-22 498 -21T474 -17Q470 -15 466 -6T457 26Q455 35 452 40Q451 42 455 44T457 46L452 49H451Q424 19 387 2T310 -22T233 -30Q171 -30 131 -8T69 50T40 130Q36 156 33 195T30 296Q30 333 31 372T35 454Q35 459 37 469T40 492Q40 512 40 545T41 605Q41 613 41 619T40
626Q40 632 39 638T38 648Q38 656 46 658T71 661H129Q159 661 188 661T248 659Q326 654 344 631Q346 626 347 612T348 581Q348 538 348 507T347 447V425Q347 415 347 399T346 359Q345 316 346 278T344 210Q338 164 359 145T416 144Q424 147 429 152T438 163V545Q436
557 435 567T433 584Q432 586 432 590T432 600V629Q432 643 436 647T450 652Q457 652 457 646V644Q468 649 502 652T575 655H644L765 652Q770 652 770 649Q771 649 771 648V641Q770 641 770 637L776 639Q778 641 779 641ZM400 733L392 736L389 733H306Q294 733
291 741T287 763Q287 780 290 793T295 815Q306 851 316 886T337 961L345 967L388 974L447 977L453 974Q457 976 463 976H473Q475 976 476 975Q477 974 480 974L486 973L528 971L536 968Q538 968 538 969H543Q564 965 570 961Q576 958 576 952Q576 948 573 942Q571
937 563 923Q561 919 554 906T533 871Q528 862 524 856T518 846L505 822Q488 798 479 786T466 766T454 748Q444 733 437 733H400Z" />
<glyph unicode="&#xdb;" glyph-name="Ucircumflex" horiz-adv-x="813" d="M779 641Q783 641 783 635Q783 535 783 453T781 301T778 166T771 33Q771 16 765 6T755 -8L751 -12L748 -14Q747 -13 740 -12T728 -10L724 -12Q722 -14 720 -14Q696 -18 661 -20T575 -22H524Q510
-22 498 -21T474 -17Q470 -15 466 -6T457 26Q455 35 452 40Q451 42 455 44T457 46L452 49H451Q424 19 387 2T310 -22T233 -30Q171 -30 131 -8T69 50T40 130Q36 156 33 195T30 296Q30 333 31 372T35 454Q35 459 37 469T40 492Q40 512 40 545T41 605Q41 613 41 619T40
626Q40 632 39 638T38 648Q38 656 46 658T71 661H129Q159 661 188 661T248 659Q326 654 344 631Q346 626 347 612T348 581Q348 538 348 507T347 447V425Q347 415 347 399T346 359Q345 316 346 278T344 210Q338 164 359 145T416 144Q424 147 429 152T438 163V545Q436
557 435 567T433 584Q432 586 432 590T432 600V629Q432 643 436 647T450 652Q457 652 457 646V644Q468 649 502 652T575 655H644L765 652Q770 652 770 649Q771 649 771 648V641Q770 641 770 637L776 639Q778 641 779 641ZM227 729H205Q196 729 196 742V749Q200
772 223 816Q226 821 229 829T239 847L255 881L276 920Q280 925 285 935T299 958L304 963L337 970H447L468 968L484 958L515 909Q545 859 568 805Q583 771 587 749L588 746V742Q588 729 577 729H483Q478 729 473 736Q460 751 455 758T446 773Q442 778 439 781T433
789Q423 801 413 815T391 845Q378 822 370 807T355 785L345 775Q328 758 318 744T301 729H273L270 730L267 729H245Q241 729 238 730Q229 730 227 729Z" />
<glyph unicode="&#xdc;" glyph-name="Udieresis" horiz-adv-x="813" d="M779 641Q783 641 783 635Q783 535 783 453T781 301T778 166T771 33Q771 16 765 6T755 -8L751 -12L748 -14Q747 -13 740 -12T728 -10L724 -12Q722 -14 720 -14Q696 -18 661 -20T575 -22H524Q510
-22 498 -21T474 -17Q470 -15 466 -6T457 26Q455 35 452 40Q451 42 455 44T457 46L452 49H451Q424 19 387 2T310 -22T233 -30Q171 -30 131 -8T69 50T40 130Q36 156 33 195T30 296Q30 333 31 372T35 454Q35 459 37 469T40 492Q40 512 40 545T41 605Q41 613 41 619T40
626Q40 632 39 638T38 648Q38 656 46 658T71 661H129Q159 661 188 661T248 659Q326 654 344 631Q346 626 347 612T348 581Q348 538 348 507T347 447V425Q347 415 347 399T346 359Q345 316 346 278T344 210Q338 164 359 145T416 144Q424 147 429 152T438 163V545Q436
557 435 567T433 584Q432 586 432 590T432 600V629Q432 643 436 647T450 652Q457 652 457 646V644Q468 649 502 652T575 655H644L765 652Q770 652 770 649Q771 649 771 648V641Q770 641 770 637L776 639Q778 641 779 641ZM136 750L130 756L123 788V817L122 837L121
843Q121 852 125 856L128 887V890L127 895Q129 901 131 907T138 918Q143 923 156 923H260Q276 925 283 925T295 926Q303 926 305 926T308 925Q313 925 314 924Q316 923 321 923H328Q331 923 332 924Q333 925 335 925H338Q350 925 350 900V880Q349 874 349 870T348
860Q348 859 348 858T350 853V800Q351 798 351 795T351 777Q351 752 335 750H136ZM500 750L441 756L435 788V817Q435 833 432 843V848Q431 849 431 856V870Q430 873 430 877T430 897Q430 898 431 899Q431 900 430 901V905Q431 906 432 908T436 913Q439 919 443
920Q454 923 468 923H572Q589 925 596 925T606 926Q615 926 617 926T620 925Q624 925 625 924Q627 923 633 923H640Q643 923 644 924Q645 925 647 925H650Q661 925 661 900V887L660 860V857Q660 854 661 853V821L660 810V800Q660 791 661 790Q662 786 662 783T663
777Q663 751 647 750H500Z" />
<glyph unicode="&#xdd;" glyph-name="Yacute" horiz-adv-x="734" d="M391 -65V-59H388Q386 -59 386 -60L383 -61Q380 -61 380 -59L365 -56Q357 -54 338 -46T301 -28T281 -18Q276 -18 273 -13T267 -7L212 18Q199 24 190 33T176 44L152 60Q146 66 146 70Q146 81
151 91T161 111Q163 114 165 123T170 138Q172 144 183 162T217 220Q213 223 215 226T222 234T225 246T211 266Q203 274 198 280T194 296Q189 294 189 293H187L185 294Q182 297 182 297Q173 310 165 315T149 326T130 352Q103 372 89 390T60 421Q45 441 27 461T4
488Q-1 495 8 512T37 553T78 600T123 646T162 680Q168 690 179 684T202 665T222 643Q227 640 229 639T234 635L240 624L242 627Q244 625 245 623T253 615Q271 600 288 584T327 544T385 486Q386 485 397 504T426 552T460 611T489 661Q496 674 503 676T527 671Q549
661 582 642T650 601T712 563Q719 559 727 551T728 529Q718 512 704 484T679 436L612 303L506 117Q505 117 497 103T477 66T451 21T427 -21T412 -46Q407 -59 402 -62T391 -65ZM385 733L377 736L374 733H291Q279 733 276 741T272 763Q272 780 275 793T280 815Q291
851 301 886T322 961L330 967L373 974L432 977L438 974Q442 976 448 976H458Q460 976 461 975Q462 974 465 974L471 973L513 971L521 968Q523 968 523 969H528Q549 965 555 961Q561 958 561 952Q561 948 558 942Q556 937 548 923Q546 919 539 906T518 871Q513 862
509 856T503 846L490 822Q473 798 464 786T451 766T439 748Q429 733 422 733H385Z" />
<glyph unicode="&#xde;" glyph-name="Thorn" horiz-adv-x="828" d="M89 -19Q73 -19 68 3Q63 15 63 43V98Q63 123 62 163T59 261L58 353V404Q58 423 58 450T60 512L61 554L62 589Q63 594 63 601T63 618V643Q63 668 68 683Q73 703 89 703Q139 703 173 703T225 701Q242
701 255 701T278 700H338Q368 700 381 692T394 648V616Q394 607 395 604V593H534Q602 593 662 576T763 521Q811 476 811 398Q811 262 739 201T530 139H394V36Q394 2 382 -7T338 -16H278Q243 -16 195 -17T89 -19ZM446 234Q457 234 465 245T479 274Q487 302 490 342T493
419V428Q493 439 484 460T453 493Q441 499 423 499Q420 499 418 494Q417 490 415 488Q411 474 409 450T405 402T404 368L403 325Q403 317 402 296T401 257T403 237Q404 236 408 236Q409 235 420 235Q423 234 429 234T446 234Z" />
<glyph unicode="&#xdf;" glyph-name="germandbls" horiz-adv-x="715" d="M345 -9V248Q361 252 373 254T392 258Q400 259 411 260T438 265Q450 267 455 277T461 300Q461 311 448 316Q423 335 401 342T353 352L355 484Q356 488 363 493Q365 494 368 495T373 500Q375
501 377 502T384 505Q384 508 388 508Q389 509 390 509T393 511Q395 512 396 512T398 513Q413 520 417 532T422 560Q422 570 423 577T406 597Q393 606 371 609T335 604Q313 591 305 572T296 513V488Q296 482 296 477T297 467V421L296 355L297 314Q300 304 300 288V217Q300
144 300 106T299 52T297 27Q296 3 296 -17T296 -52Q295 -58 294 -64T290 -74Q289 -75 288 -76T284 -83Q281 -89 276 -89Q268 -92 259 -93T241 -97H113Q89 -97 74 -97T50 -95Q40 -94 31 -92T17 -89Q16 -87 15 -87T12 -84Q11 -82 9 -80T7 -74Q7 -62 10 -52V28Q10
43 10 54T11 72V236Q11 265 10 289T7 333Q3 362 5 406T7 498Q7 563 33 608T103 683Q154 718 220 732T353 747Q406 747 454 740T537 719T590 688Q635 643 646 613T657 553Q657 471 605 447Q604 446 602 445T597 443Q594 442 590 441T587 439L554 429L557 424Q598
414 617 396T652 352Q671 326 680 289T693 195V171Q693 124 664 84T560 20Q465 -9 348 -9H345Z" />
<glyph unicode="&#xe0;" glyph-name="agrave" horiz-adv-x="625" d="M194 -28Q100 -32 53 11T2 149Q1 189 9 213T46 269Q76 305 114 320T216 337Q241 338 259 338T288 338Q317 337 333 338Q330 369 313 382Q303 390 285 393T233 397H153Q143 397 143 397T133 396H125L66
389Q52 394 52 428Q52 434 52 440T52 463T50 516Q52 523 51 534L52 549Q56 549 58 551L63 557Q64 559 66 559Q70 559 77 560T95 564L117 568Q125 570 129 570Q157 576 166 578T191 581Q248 584 303 583T401 576T465 562Q527 537 556 490T587 359L591 213Q592 185
593 164T594 134L595 112Q591 92 590 78T589 46Q591 16 587 5T569 -8L407 -13Q399 -11 369 -12Q358 -13 350 -11T334 -5Q320 1 320 25V37Q320 39 321 40V43Q319 45 318 45Q298 14 264 -6T194 -28ZM270 132Q315 132 328 180L329 199Q330 219 317 236T289 253Q270
252 257 236T245 200L249 162Q257 132 270 132ZM322 41Q322 41 322 41V41ZM304 656H267Q263 656 260 659T250 671Q244 681 239 688T226 708T199 745L186 769Q184 773 180 779T171 794Q158 816 151 829T141 846Q137 853 135 858T131 865Q128 871 128 875Q128 881
134 884Q140 888 161 892H166Q166 891 168 891L176 894L218 896L224 897Q227 897 228 898Q229 899 231 899H241Q247 899 251 897L257 900L316 897L359 890L367 884Q377 849 387 814T409 738Q410 730 413 717T417 686Q417 656 398 656H315L312 659L304 656Z" />
<glyph unicode="&#xe1;" glyph-name="aacute" horiz-adv-x="625" d="M194 -28Q100 -32 53 11T2 149Q1 189 9 213T46 269Q76 305 114 320T216 337Q241 338 259 338T288 338Q317 337 333 338Q330 369 313 382Q303 390 285 393T233 397H153Q143 397 143 397T133 396H125L66
389Q52 394 52 428Q52 434 52 440T52 463T50 516Q52 523 51 534L52 549Q56 549 58 551L63 557Q64 559 66 559Q70 559 77 560T95 564L117 568Q125 570 129 570Q157 576 166 578T191 581Q248 584 303 583T401 576T465 562Q527 537 556 490T587 359L591 213Q592 185
593 164T594 134L595 112Q591 92 590 78T589 46Q591 16 587 5T569 -8L407 -13Q399 -11 369 -12Q358 -13 350 -11T334 -5Q320 1 320 25V37Q320 39 321 40V43Q319 45 318 45Q298 14 264 -6T194 -28ZM270 132Q315 132 328 180L329 199Q330 219 317 236T289 253Q270
252 257 236T245 200L249 162Q257 132 270 132ZM322 41Q322 41 322 41V41ZM321 656L313 659L310 656H227Q215 656 212 664T208 686Q208 703 211 716T216 738Q227 774 237 809T258 884L266 890L309 897L368 900L374 897Q378 899 384 899H394Q396 899 397 898Q398
897 401 897L407 896L449 894L457 891Q459 891 459 892H464Q485 888 491 884Q497 881 497 875Q497 871 494 865Q492 860 484 846Q482 842 475 829T454 794Q449 785 445 779T439 769L426 745Q409 721 400 709T387 689T375 671Q365 656 358 656H321Z" />
<glyph unicode="&#xe2;" glyph-name="acircumflex" horiz-adv-x="625" d="M194 -28Q100 -32 53 11T2 149Q1 189 9 213T46 269Q76 305 114 320T216 337Q241 338 259 338T288 338Q317 337 333 338Q330 369 313 382Q303 390 285 393T233 397H153Q143 397 143 397T133
396H125L66 389Q52 394 52 428Q52 434 52 440T52 463T50 516Q52 523 51 534L52 549Q56 549 58 551L63 557Q64 559 66 559Q70 559 77 560T95 564L117 568Q125 570 129 570Q157 576 166 578T191 581Q248 584 303 583T401 576T465 562Q527 537 556 490T587 359L591
213Q592 185 593 164T594 134L595 112Q591 92 590 78T589 46Q591 16 587 5T569 -8L407 -13Q399 -11 369 -12Q358 -13 350 -11T334 -5Q320 1 320 25V37Q320 39 321 40V43Q319 45 318 45Q298 14 264 -6T194 -28ZM270 132Q315 132 328 180L329 199Q330 219 317 236T289
253Q270 252 257 236T245 200L249 162Q257 132 270 132ZM322 41Q322 41 322 41V41ZM148 652H126Q117 652 117 665V672Q121 695 144 739Q147 744 150 752T160 770L176 804L197 843Q201 848 206 858T220 881L225 886L258 893H368L389 891L405 881L436 832Q466 782
489 728Q504 694 508 672L509 669V665Q509 652 498 652H404Q399 652 394 659Q381 674 376 681T367 696Q363 701 360 704T354 712Q344 724 334 738T312 768Q299 745 291 730T276 708L266 698Q249 681 239 667T222 652H194L191 653L188 652H166Q162 652 159 653Q150
653 148 652Z" />
<glyph unicode="&#xe3;" glyph-name="atilde" horiz-adv-x="625" d="M194 -28Q100 -32 53 11T2 149Q1 189 9 213T46 269Q76 305 114 320T216 337Q241 338 259 338T288 338Q317 337 333 338Q330 369 313 382Q303 390 285 393T233 397H153Q143 397 143 397T133 396H125L66
389Q52 394 52 428Q52 434 52 440T52 463T50 516Q52 523 51 534L52 549Q56 549 58 551L63 557Q64 559 66 559Q70 559 77 560T95 564L117 568Q125 570 129 570Q157 576 166 578T191 581Q248 584 303 583T401 576T465 562Q527 537 556 490T587 359L591 213Q592 185
593 164T594 134L595 112Q591 92 590 78T589 46Q591 16 587 5T569 -8L407 -13Q399 -11 369 -12Q358 -13 350 -11T334 -5Q320 1 320 25V37Q320 39 321 40V43Q319 45 318 45Q298 14 264 -6T194 -28ZM270 132Q315 132 328 180L329 199Q330 219 317 236T289 253Q270
252 257 236T245 200L249 162Q257 132 270 132ZM322 41Q322 41 322 41V41ZM402 636Q349 636 319 660Q301 673 294 680T271 703Q240 734 214 734Q205 734 199 722T192 693Q190 679 189 672T187 662Q185 657 181 660Q177 661 172 661T150 661Q137 662 124 663T101
665Q90 667 83 669T75 678Q75 682 74 684Q73 686 73 687T72 691Q72 690 70 697T67 710Q67 750 75 785Q96 891 229 891Q239 891 253 887T280 875Q314 861 328 840Q335 834 337 828Q352 807 362 800Q371 794 378 794Q402 794 402 816Q402 827 398 838T380 871Q380
878 393 878H397L530 880Q538 873 541 866Q553 842 556 801Q557 791 557 785T558 773Q558 746 548 725Q535 696 506 674T442 642Q426 636 402 636Z" />
<glyph unicode="&#xe4;" glyph-name="adieresis" horiz-adv-x="625" d="M194 -28Q100 -32 53 11T2 149Q1 189 9 213T46 269Q76 305 114 320T216 337Q241 338 259 338T288 338Q317 337 333 338Q330 369 313 382Q303 390 285 393T233 397H153Q143 397 143 397T133
396H125L66 389Q52 394 52 428Q52 434 52 440T52 463T50 516Q52 523 51 534L52 549Q56 549 58 551L63 557Q64 559 66 559Q70 559 77 560T95 564L117 568Q125 570 129 570Q157 576 166 578T191 581Q248 584 303 583T401 576T465 562Q527 537 556 490T587 359L591
213Q592 185 593 164T594 134L595 112Q591 92 590 78T589 46Q591 16 587 5T569 -8L407 -13Q399 -11 369 -12Q358 -13 350 -11T334 -5Q320 1 320 25V37Q320 39 321 40V43Q319 45 318 45Q298 14 264 -6T194 -28ZM270 132Q315 132 328 180L329 199Q330 219 317 236T289
253Q270 252 257 236T245 200L249 162Q257 132 270 132ZM322 41Q322 41 322 41V41ZM57 673L51 679L44 711V740L43 760L42 766Q42 775 46 779L49 810V813L48 818Q50 824 52 830T59 841Q64 846 77 846H181Q197 848 204 848T216 849Q224 849 226 849T229 848Q234 848
235 847Q237 846 242 846H249Q252 846 253 847Q254 848 256 848H259Q271 848 271 823V803Q270 797 270 793T269 783Q269 782 269 781T271 776V723Q272 721 272 718T272 700Q272 675 256 673H57ZM421 673L362 679L356 711V740Q356 756 353 766V771Q352 772 352 779V793Q351
796 351 800T351 820Q351 821 352 822Q352 823 351 824V828Q352 829 353 831T357 836Q360 842 364 843Q375 846 389 846H493Q510 848 517 848T527 849Q536 849 538 849T541 848Q545 848 546 847Q548 846 554 846H561Q564 846 565 847Q566 848 568 848H571Q582 848
582 823V810L581 783V780Q581 777 582 776V744L581 733V723Q581 714 582 713Q583 709 583 706T584 700Q584 674 568 673H421Z" />
<glyph unicode="&#xe5;" glyph-name="aring" horiz-adv-x="625" d="M194 -28Q100 -32 53 11T2 149Q1 189 9 213T46 269Q76 305 114 320T216 337Q241 338 259 338T288 338Q317 337 333 338Q330 369 313 382Q303 390 285 393T233 397H153Q143 397 143 397T133 396H125L66
389Q52 394 52 428Q52 434 52 440T52 463T50 516Q52 523 51 534L52 549Q56 549 58 551L63 557Q64 559 66 559Q70 559 77 560T95 564L117 568Q125 570 129 570Q157 576 166 578T191 581Q248 584 303 583T401 576T465 562Q527 537 556 490T587 359L591 213Q592 185
593 164T594 134L595 112Q591 92 590 78T589 46Q591 16 587 5T569 -8L407 -13Q399 -11 369 -12Q358 -13 350 -11T334 -5Q320 1 320 25V37Q320 39 321 40V43Q319 45 318 45Q298 14 264 -6T194 -28ZM270 132Q315 132 328 180L329 199Q330 219 317 236T289 253Q270
252 257 236T245 200L249 162Q257 132 270 132ZM322 41Q322 41 322 41V41ZM298 651Q234 650 181 678Q162 689 150 706T126 747Q119 767 115 788T110 831Q110 904 153 963Q175 993 204 1009T269 1026Q277 1026 282 1026T290 1025Q290 1026 293 1026H295Q323 1026
341 1026T370 1024Q398 1018 423 1006Q474 972 494 932T515 836Q515 804 506 772T477 713L472 711Q447 672 393 659Q372 653 350 652T323 651H298ZM304 771Q339 771 360 792Q380 809 384 825T389 856V860Q389 871 380 886Q365 906 344 911T304 916Q282 916 267
899Q245 877 245 828V817Q248 817 248 811Q251 794 273 779Q291 771 304 771Z" />
<glyph unicode="&#xe6;" glyph-name="ae" horiz-adv-x="943" d="M672 -32Q643 -32 619 -26T569 -16Q531 -11 500 8Q484 21 470 34T442 61L429 72Q427 74 426 74Q410 53 393 37T356 9Q321 -12 280 -18Q258 -20 239 -19T202 -19Q108 -22 61 21T10 158Q9 198 17 222T54
278Q72 300 93 312T145 329T224 336Q249 337 267 337T296 337Q325 336 341 337Q338 372 317 386Q306 394 287 397T229 402H161Q151 404 151 403T141 401H133L74 394Q60 399 60 433Q60 439 60 445T60 470T58 529Q60 536 59 547L60 562Q64 562 66 564L71 570Q72 572
74 572Q78 572 85 573T103 577L125 581Q133 583 137 583Q165 588 174 589T199 592Q261 595 303 591T378 575Q429 557 461 519Q491 558 538 577Q586 598 667 598Q672 598 677 598T690 596Q692 596 696 596T707 595Q729 595 784 579H789Q796 579 800 576Q801 575
802 573T804 571Q809 571 810 568L830 553Q874 520 902 438Q926 368 926 300L916 281L637 276L607 275L608 239L613 215L622 192L647 169Q657 160 677 155T722 149H726Q740 149 773 155T836 170L890 185L902 169L919 44L909 25Q818 -17 758 -24Q731 -27 711 -29T672
-32ZM615 388H685L684 398Q683 414 683 414T682 417L678 437L674 458Q674 461 673 463T671 469L658 476Q655 479 645 479Q637 479 633 472Q630 467 623 465T612 439Q609 415 607 402T615 388ZM281 132Q304 132 321 145T344 180L345 199Q347 219 333 237T302 254Q281
253 267 237T254 200L258 162Q268 132 281 132Z" />
<glyph unicode="&#xe7;" glyph-name="ccedilla" horiz-adv-x="544" d="M497 185Q508 178 508 170V168Q528 119 529 38Q501 7 451 -10T342 -28Q205 -28 115 47Q76 79 54 135T20 280Q20 355 44 416T115 514Q165 555 214 573T327 591Q340 591 349 590T371 587T408
581Q412 581 417 581T429 580L453 574Q471 569 484 569Q487 569 488 566Q490 565 490 564T492 561Q495 557 498 557H500L502 540Q502 537 502 531T504 514Q505 496 505 484T506 460Q506 435 503 424T488 407L421 416H410Q401 416 399 416T395 417T381 417L380 416Q349
416 329 381T308 289Q308 217 324 186T382 148L415 152Q431 154 448 164T497 185ZM520 -328H503Q472 -328 439 -315Q422 -309 413 -298L423 -253Q425 -248 427 -243T430 -234Q433 -226 434 -225Q467 -239 503 -239Q520 -239 533 -237T555 -224Q562 -214 565 -209T568
-193Q568 -178 551 -169T505 -159Q483 -159 463 -168L465 -128L479 8L484 18H591L578 -48Q663 -61 703 -95T743 -174Q743 -217 723 -252T654 -307T520 -328Z" />
<glyph unicode="&#xe8;" glyph-name="egrave" horiz-adv-x="608" d="M327 594Q331 594 336 594T348 592Q350 592 355 592T366 591Q387 591 443 574H449Q456 574 460 571Q461 570 462 569T464 567Q469 567 470 564L489 548Q538 506 563 433Q586 366 586 293L578
274L310 269L281 268L282 242L286 218L295 194L321 171Q332 162 352 156T395 150H400Q417 150 442 157T495 172L551 186L563 171L581 44L570 26Q524 4 487 -8T418 -24Q390 -27 370 -29T331 -32Q301 -32 277 -26T227 -17Q190 -13 157 8Q87 62 55 127T20 284Q18 387
60 464L65 481Q69 483 69 484T71 486L73 490L79 494Q114 560 192 584Q239 594 327 594ZM327 473Q324 473 320 473T314 467Q312 461 305 459T295 434Q292 409 290 395T297 381L363 382L360 412L357 431L353 452Q353 456 352 458T349 464L339 471Q333 473 327 473ZM293
656H256Q252 656 249 659T239 671Q233 681 228 688T215 708T188 745L175 769Q173 773 169 779T160 794Q147 816 140 829T130 846Q126 853 124 858T120 865Q117 871 117 875Q117 881 123 884Q129 888 150 892H155Q155 891 157 891L165 894L207 896L213 897Q216 897
217 898Q218 899 220 899H230Q236 899 240 897L246 900L305 897L348 890L356 884Q366 849 376 814T398 738Q399 730 402 717T406 686Q406 656 387 656H304L301 659L293 656Z" />
<glyph unicode="&#xe9;" glyph-name="eacute" horiz-adv-x="608" d="M327 594Q331 594 336 594T348 592Q350 592 355 592T366 591Q387 591 443 574H449Q456 574 460 571Q461 570 462 569T464 567Q469 567 470 564L489 548Q538 506 563 433Q586 366 586 293L578
274L310 269L281 268L282 242L286 218L295 194L321 171Q332 162 352 156T395 150H400Q417 150 442 157T495 172L551 186L563 171L581 44L570 26Q524 4 487 -8T418 -24Q390 -27 370 -29T331 -32Q301 -32 277 -26T227 -17Q190 -13 157 8Q87 62 55 127T20 284Q18 387
60 464L65 481Q69 483 69 484T71 486L73 490L79 494Q114 560 192 584Q239 594 327 594ZM327 473Q324 473 320 473T314 467Q312 461 305 459T295 434Q292 409 290 395T297 381L363 382L360 412L357 431L353 452Q353 456 352 458T349 464L339 471Q333 473 327 473ZM310
656L302 659L299 656H216Q204 656 201 664T197 686Q197 703 200 716T205 738Q216 774 226 809T247 884L255 890L298 897L357 900L363 897Q367 899 373 899H383Q385 899 386 898Q387 897 390 897L396 896L438 894L446 891Q448 891 448 892H453Q474 888 480 884Q486
881 486 875Q486 871 483 865Q481 860 473 846Q471 842 464 829T443 794Q438 785 434 779T428 769L415 745Q398 721 389 709T376 689T364 671Q354 656 347 656H310Z" />
<glyph unicode="&#xea;" glyph-name="ecircumflex" horiz-adv-x="608" d="M327 594Q331 594 336 594T348 592Q350 592 355 592T366 591Q387 591 443 574H449Q456 574 460 571Q461 570 462 569T464 567Q469 567 470 564L489 548Q538 506 563 433Q586 366 586 293L578
274L310 269L281 268L282 242L286 218L295 194L321 171Q332 162 352 156T395 150H400Q417 150 442 157T495 172L551 186L563 171L581 44L570 26Q524 4 487 -8T418 -24Q390 -27 370 -29T331 -32Q301 -32 277 -26T227 -17Q190 -13 157 8Q87 62 55 127T20 284Q18 387
60 464L65 481Q69 483 69 484T71 486L73 490L79 494Q114 560 192 584Q239 594 327 594ZM327 473Q324 473 320 473T314 467Q312 461 305 459T295 434Q292 409 290 395T297 381L363 382L360 412L357 431L353 452Q353 456 352 458T349 464L339 471Q333 473 327 473ZM137
652H115Q106 652 106 665V672Q110 695 133 739Q136 744 139 752T149 770L165 804L186 843Q190 848 195 858T209 881L214 886L247 893H357L378 891L394 881L425 832Q455 782 478 728Q493 694 497 672L498 669V665Q498 652 487 652H393Q388 652 383 659Q370 674 365
681T356 696Q352 701 349 704T343 712Q333 724 323 738T301 768Q288 745 280 730T265 708L255 698Q238 681 228 667T211 652H183L180 653L177 652H155Q151 652 148 653Q139 653 137 652Z" />
<glyph unicode="&#xeb;" glyph-name="edieresis" horiz-adv-x="608" d="M327 594Q331 594 336 594T348 592Q350 592 355 592T366 591Q387 591 443 574H449Q456 574 460 571Q461 570 462 569T464 567Q469 567 470 564L489 548Q538 506 563 433Q586 366 586 293L578
274L310 269L281 268L282 242L286 218L295 194L321 171Q332 162 352 156T395 150H400Q417 150 442 157T495 172L551 186L563 171L581 44L570 26Q524 4 487 -8T418 -24Q390 -27 370 -29T331 -32Q301 -32 277 -26T227 -17Q190 -13 157 8Q87 62 55 127T20 284Q18 387
60 464L65 481Q69 483 69 484T71 486L73 490L79 494Q114 560 192 584Q239 594 327 594ZM327 473Q324 473 320 473T314 467Q312 461 305 459T295 434Q292 409 290 395T297 381L363 382L360 412L357 431L353 452Q353 456 352 458T349 464L339 471Q333 473 327 473ZM46
673L40 679L33 711V740L32 760L31 766Q31 775 35 779L38 810V813L37 818Q39 824 41 830T48 841Q53 846 66 846H170Q186 848 193 848T205 849Q213 849 215 849T218 848Q223 848 224 847Q226 846 231 846H238Q241 846 242 847Q243 848 245 848H248Q260 848 260 823V803Q259
797 259 793T258 783Q258 782 258 781T260 776V723Q261 721 261 718T261 700Q261 675 245 673H46ZM410 673L351 679L345 711V740Q345 756 342 766V771Q341 772 341 779V793Q340 796 340 800T340 820Q340 821 341 822Q341 823 340 824V828Q341 829 342 831T346 836Q349
842 353 843Q364 846 378 846H482Q499 848 506 848T516 849Q525 849 527 849T530 848Q534 848 535 847Q537 846 543 846H550Q553 846 554 847Q555 848 557 848H560Q571 848 571 823V810L570 783V780Q570 777 571 776V744L570 733V723Q570 714 571 713Q572 709 572
706T573 700Q573 674 557 673H410Z" />
<glyph unicode="&#xec;" glyph-name="igrave" horiz-adv-x="343" d="M249 -16L225 -13L179 -8L165 -9H130Q129 -5 124 -5L110 -6Q103 -7 97 -8T87 -9Q85 -7 80 -6H75Q75 -5 73 -5L70 -6L69 -7Q55 -7 50 1Q46 8 44 20T42 58Q43 65 43 74T40 103L37 144V427Q37 444
37 460T34 499Q33 508 31 515Q30 516 30 522Q32 562 47 575T107 589Q107 589 113 591Q116 592 120 592H121Q122 592 123 591Q132 591 134 589H138Q142 589 145 592L220 591Q224 591 229 591T241 593Q247 594 267 594Q313 594 313 578V424Q313 390 312 348T310 269T307
211L304 170Q302 136 301 111T299 70Q298 69 298 66T298 48Q298 21 291 5T272 -12L249 -16ZM419 656H382Q378 656 375 659T365 671Q359 681 354 688T341 708T314 745L301 769Q299 773 295 779T286 794Q273 816 266 829T256 846Q252 853 250 858T246 865Q243 871
243 875Q243 881 249 884Q255 888 276 892H281Q281 891 283 891L291 894L333 896L339 897Q342 897 343 898Q344 899 346 899H356Q362 899 366 897L372 900L431 897L474 890L482 884Q492 849 502 814T524 738Q525 730 528 717T532 686Q532 656 513 656H430L427 659L419
656Z" />
<glyph unicode="&#xed;" glyph-name="iacute" horiz-adv-x="343" d="M249 -16L225 -13L179 -8L165 -9H130Q129 -5 124 -5L110 -6Q103 -7 97 -8T87 -9Q85 -7 80 -6H75Q75 -5 73 -5L70 -6L69 -7Q55 -7 50 1Q46 8 44 20T42 58Q43 65 43 74T40 103L37 144V427Q37 444
37 460T34 499Q33 508 31 515Q30 516 30 522Q32 562 47 575T107 589Q107 589 113 591Q116 592 120 592H121Q122 592 123 591Q132 591 134 589H138Q142 589 145 592L220 591Q224 591 229 591T241 593Q247 594 267 594Q313 594 313 578V424Q313 390 312 348T310 269T307
211L304 170Q302 136 301 111T299 70Q298 69 298 66T298 48Q298 21 291 5T272 -12L249 -16ZM436 656L428 659L425 656H342Q330 656 327 664T323 686Q323 703 326 716T331 738Q342 774 352 809T373 884L381 890L424 897L483 900L489 897Q493 899 499 899H509Q511
899 512 898Q513 897 516 897L522 896L564 894L572 891Q574 891 574 892H579Q600 888 606 884Q612 881 612 875Q612 871 609 865Q607 860 599 846Q597 842 590 829T569 794Q564 785 560 779T554 769L541 745Q524 721 515 709T502 689T490 671Q480 656 473 656H436Z"
/>
<glyph unicode="&#xee;" glyph-name="icircumflex" horiz-adv-x="343" d="M249 -16L225 -13L179 -8L165 -9H130Q129 -5 124 -5L110 -6Q103 -7 97 -8T87 -9Q85 -7 80 -6H75Q75 -5 73 -5L70 -6L69 -7Q55 -7 50 1Q46 8 44 20T42 58Q43 65 43 74T40 103L37 144V427Q37
444 37 460T34 499Q33 508 31 515Q30 516 30 522Q32 562 47 575T107 589Q107 589 113 591Q116 592 120 592H121Q122 592 123 591Q132 591 134 589H138Q142 589 145 592L220 591Q224 591 229 591T241 593Q247 594 267 594Q313 594 313 578V424Q313 390 312 348T310
269T307 211L304 170Q302 136 301 111T299 70Q298 69 298 66T298 48Q298 21 291 5T272 -12L249 -16ZM263 652H241Q232 652 232 665V672Q236 695 259 739Q262 744 265 752T275 770L291 804L312 843Q316 848 321 858T335 881L340 886L373 893H483L504 891L520 881L551
832Q581 782 604 728Q619 694 623 672L624 669V665Q624 652 613 652H519Q514 652 509 659Q496 674 491 681T482 696Q478 701 475 704T469 712Q459 724 449 738T427 768Q414 745 406 730T391 708L381 698Q364 681 354 667T337 652H309L306 653L303 652H281Q277 652
274 653Q265 653 263 652Z" />
<glyph unicode="&#xef;" glyph-name="idieresis" horiz-adv-x="343" d="M249 -16L225 -13L179 -8L165 -9H130Q129 -5 124 -5L110 -6Q103 -7 97 -8T87 -9Q85 -7 80 -6H75Q75 -5 73 -5L70 -6L69 -7Q55 -7 50 1Q46 8 44 20T42 58Q43 65 43 74T40 103L37 144V427Q37
444 37 460T34 499Q33 508 31 515Q30 516 30 522Q32 562 47 575T107 589Q107 589 113 591Q116 592 120 592H121Q122 592 123 591Q132 591 134 589H138Q142 589 145 592L220 591Q224 591 229 591T241 593Q247 594 267 594Q313 594 313 578V424Q313 390 312 348T310
269T307 211L304 170Q302 136 301 111T299 70Q298 69 298 66T298 48Q298 21 291 5T272 -12L249 -16ZM172 673L166 679L159 711V740L158 760L157 766Q157 775 161 779L164 810V813L163 818Q165 824 167 830T174 841Q179 846 192 846H296Q312 848 319 848T331 849Q339
849 341 849T344 848Q349 848 350 847Q352 846 357 846H364Q367 846 368 847Q369 848 371 848H374Q386 848 386 823V803Q385 797 385 793T384 783Q384 782 384 781T386 776V723Q387 721 387 718T387 700Q387 675 371 673H172ZM536 673L477 679L471 711V740Q471
756 468 766V771Q467 772 467 779V793Q466 796 466 800T466 820Q466 821 467 822Q467 823 466 824V828Q467 829 468 831T472 836Q475 842 479 843Q490 846 504 846H608Q625 848 632 848T642 849Q651 849 653 849T656 848Q660 848 661 847Q663 846 669 846H676Q679
846 680 847Q681 848 683 848H686Q697 848 697 823V810L696 783V780Q696 777 697 776V744L696 733V723Q696 714 697 713Q698 709 698 706T699 700Q699 674 683 673H536Z" />
<glyph unicode="&#xf0;" glyph-name="eth" horiz-adv-x="778" d="M37 203V218Q37 265 56 305T108 366Q110 368 112 370T115 373Q147 387 165 393T199 403Q213 405 228 405T260 405L285 404Q289 404 292 403T300 401Q352 397 389 390T445 373Q445 378 448 383T444
393Q444 421 438 443Q436 461 421 482T385 522L321 467Q311 458 289 447T253 431Q244 428 241 435Q239 437 237 440T230 447L222 459L201 483Q198 486 198 489Q198 496 200 497L222 515L291 571L280 574Q252 581 221 582T144 578Q140 578 136 578T127 581Q115 587
107 600Q104 615 104 629L105 649Q104 655 104 661T104 675Q103 689 103 699T105 716L107 721Q113 737 127 737L137 739Q146 741 156 742T176 745Q188 745 196 745T214 747Q256 747 287 745T359 734Q390 729 413 722T459 704L474 715L486 724Q494 730 497 732T501
736Q507 741 512 745T522 753L539 764Q549 776 557 776Q571 791 586 793Q593 797 596 792Q599 788 601 784T605 776Q606 775 607 775T609 772Q610 769 611 768T614 765Q624 750 627 746T631 740Q633 738 633 736T634 732Q635 731 635 730T633 728L614 711L597 697Q588
689 588 689L546 657Q563 648 582 636Q630 589 667 534L686 504Q698 476 706 436T715 355Q716 350 718 339T720 313L711 268Q698 186 651 124T529 26Q495 9 459 4T382 -6Q377 -7 371 -10T360 -13Q334 -13 307 -10Q291 -8 252 3T175 27L148 49Q102 75 79 106T48
185L37 203ZM346 144L351 145H356L360 146L365 148L370 149L374 152L378 154L393 157Q399 159 405 164T417 173L419 177L428 192L430 196L434 206L435 220L437 235L429 268L425 269L420 271L405 272L380 277L375 280L370 281H365Q355 280 350 275T334 255L326 249L322
245L317 238L315 223L314 218L313 203V193L314 188L316 183L317 178L319 174L321 169L323 165Q328 153 332 152T341 146L346 144Z" />
<glyph unicode="&#xf1;" glyph-name="ntilde" horiz-adv-x="693" d="M580 -14Q555 -14 531 -14T481 -12Q417 -11 400 13Q399 18 398 29T397 57Q397 95 397 115T398 160V179Q398 188 398 202T399 239Q401 277 399 310T400 371Q405 412 387 429T340 429Q330 425
325 418T318 403V394Q318 396 318 397T319 399V383H318V6Q317 4 317 0Q316 -3 311 -3Q309 -3 308 -4Q307 -5 306 -5T303 -6Q286 -6 270 -7T238 -10H171Q131 -10 105 -8T55 3Q51 3 48 8Q45 15 45 28Q43 87 40 129T35 203Q32 241 31 297T30 411V439L31 483L33 523L35
550Q35 553 35 559T36 568Q36 571 39 571Q47 571 55 576Q56 576 58 576T64 577Q71 577 74 576H236Q244 576 250 576T261 575L289 574Q305 573 311 560T318 529L319 526V513Q353 551 400 565T493 580Q572 580 610 540T655 442Q658 419 660 384T663 294Q663 261 662
227T659 154Q659 149 657 140T655 120Q655 102 655 81T654 35Q654 29 654 24T655 17Q655 12 655 7T656 -2Q656 -14 629 -14H580ZM436 636Q383 636 353 660Q335 673 328 680T305 703Q274 734 248 734Q239 734 233 722T226 693Q224 679 223 672T221 662Q219 657 215
660Q211 661 206 661T184 661Q171 662 158 663T135 665Q124 667 117 669T109 678Q109 682 108 684Q107 686 107 687T106 691Q106 690 104 697T101 710Q101 750 109 785Q130 891 263 891Q273 891 287 887T314 875Q348 861 362 840Q369 834 371 828Q386 807 396 800Q405
794 412 794Q436 794 436 816Q436 827 432 838T414 871Q414 878 427 878H431L564 880Q572 873 575 866Q587 842 590 801Q591 791 591 785T592 773Q592 746 582 725Q569 696 540 674T476 642Q460 636 436 636Z" />
<glyph unicode="&#xf2;" glyph-name="ograve" horiz-adv-x="675" d="M352 -32Q315 -32 276 -28T203 -16Q175 -9 155 1T119 29T83 76H72L71 92Q70 92 70 92T67 93L59 111Q16 193 20 287Q25 384 60 448T174 565Q196 578 216 582T255 590Q281 590 312 589T374 588H378Q380
588 380 587Q385 588 395 588T415 587Q492 581 546 534Q581 503 606 459T644 363T655 258Q654 219 644 185T622 116Q612 83 589 54T537 6L515 -8Q514 -9 514 -8T509 -11Q507 -13 504 -13Q500 -16 486 -16H480Q457 -23 433 -31T392 -32Q386 -29 381 -30T373 -32H352ZM350
87Q356 87 362 88T370 89L387 126Q388 129 389 132T390 140L397 152V174Q402 183 404 192T410 226V243L411 261L393 397Q387 445 365 449Q354 451 351 453T341 456Q338 457 331 459T317 455Q306 437 299 408T291 353V323Q291 314 291 288T293 234T300 186Q305 170
306 165T307 156Q307 118 333 98Q333 87 350 87ZM329 656H292Q288 656 285 659T275 671Q269 681 264 688T251 708T224 745L211 769Q209 773 205 779T196 794Q183 816 176 829T166 846Q162 853 160 858T156 865Q153 871 153 875Q153 881 159 884Q165 888 186 892H191Q191
891 193 891L201 894L243 896L249 897Q252 897 253 898Q254 899 256 899H266Q272 899 276 897L282 900L341 897L384 890L392 884Q402 849 412 814T434 738Q435 730 438 717T442 686Q442 656 423 656H340L337 659L329 656Z" />
<glyph unicode="&#xf3;" glyph-name="oacute" horiz-adv-x="675" d="M352 -32Q315 -32 276 -28T203 -16Q175 -9 155 1T119 29T83 76H72L71 92Q70 92 70 92T67 93L59 111Q16 193 20 287Q25 384 60 448T174 565Q196 578 216 582T255 590Q281 590 312 589T374 588H378Q380
588 380 587Q385 588 395 588T415 587Q492 581 546 534Q581 503 606 459T644 363T655 258Q654 219 644 185T622 116Q612 83 589 54T537 6L515 -8Q514 -9 514 -8T509 -11Q507 -13 504 -13Q500 -16 486 -16H480Q457 -23 433 -31T392 -32Q386 -29 381 -30T373 -32H352ZM350
87Q356 87 362 88T370 89L387 126Q388 129 389 132T390 140L397 152V174Q402 183 404 192T410 226V243L411 261L393 397Q387 445 365 449Q354 451 351 453T341 456Q338 457 331 459T317 455Q306 437 299 408T291 353V323Q291 314 291 288T293 234T300 186Q305 170
306 165T307 156Q307 118 333 98Q333 87 350 87ZM346 656L338 659L335 656H252Q240 656 237 664T233 686Q233 703 236 716T241 738Q252 774 262 809T283 884L291 890L334 897L393 900L399 897Q403 899 409 899H419Q421 899 422 898Q423 897 426 897L432 896L474
894L482 891Q484 891 484 892H489Q510 888 516 884Q522 881 522 875Q522 871 519 865Q517 860 509 846Q507 842 500 829T479 794Q474 785 470 779T464 769L451 745Q434 721 425 709T412 689T400 671Q390 656 383 656H346Z" />
<glyph unicode="&#xf4;" glyph-name="ocircumflex" horiz-adv-x="675" d="M352 -32Q315 -32 276 -28T203 -16Q175 -9 155 1T119 29T83 76H72L71 92Q70 92 70 92T67 93L59 111Q16 193 20 287Q25 384 60 448T174 565Q196 578 216 582T255 590Q281 590 312 589T374
588H378Q380 588 380 587Q385 588 395 588T415 587Q492 581 546 534Q581 503 606 459T644 363T655 258Q654 219 644 185T622 116Q612 83 589 54T537 6L515 -8Q514 -9 514 -8T509 -11Q507 -13 504 -13Q500 -16 486 -16H480Q457 -23 433 -31T392 -32Q386 -29 381
-30T373 -32H352ZM350 87Q356 87 362 88T370 89L387 126Q388 129 389 132T390 140L397 152V174Q402 183 404 192T410 226V243L411 261L393 397Q387 445 365 449Q354 451 351 453T341 456Q338 457 331 459T317 455Q306 437 299 408T291 353V323Q291 314 291 288T293
234T300 186Q305 170 306 165T307 156Q307 118 333 98Q333 87 350 87ZM173 652H151Q142 652 142 665V672Q146 695 169 739Q172 744 175 752T185 770L201 804L222 843Q226 848 231 858T245 881L250 886L283 893H393L414 891L430 881L461 832Q491 782 514 728Q529
694 533 672L534 669V665Q534 652 523 652H429Q424 652 419 659Q406 674 401 681T392 696Q388 701 385 704T379 712Q369 724 359 738T337 768Q324 745 316 730T301 708L291 698Q274 681 264 667T247 652H219L216 653L213 652H191Q187 652 184 653Q175 653 173 652Z"
/>
<glyph unicode="&#xf5;" glyph-name="otilde" horiz-adv-x="675" d="M352 -32Q315 -32 276 -28T203 -16Q175 -9 155 1T119 29T83 76H72L71 92Q70 92 70 92T67 93L59 111Q16 193 20 287Q25 384 60 448T174 565Q196 578 216 582T255 590Q281 590 312 589T374 588H378Q380
588 380 587Q385 588 395 588T415 587Q492 581 546 534Q581 503 606 459T644 363T655 258Q654 219 644 185T622 116Q612 83 589 54T537 6L515 -8Q514 -9 514 -8T509 -11Q507 -13 504 -13Q500 -16 486 -16H480Q457 -23 433 -31T392 -32Q386 -29 381 -30T373 -32H352ZM350
87Q356 87 362 88T370 89L387 126Q388 129 389 132T390 140L397 152V174Q402 183 404 192T410 226V243L411 261L393 397Q387 445 365 449Q354 451 351 453T341 456Q338 457 331 459T317 455Q306 437 299 408T291 353V323Q291 314 291 288T293 234T300 186Q305 170
306 165T307 156Q307 118 333 98Q333 87 350 87ZM427 636Q374 636 344 660Q326 673 319 680T296 703Q265 734 239 734Q230 734 224 722T217 693Q215 679 214 672T212 662Q210 657 206 660Q202 661 197 661T175 661Q162 662 149 663T126 665Q115 667 108 669T100
678Q100 682 99 684Q98 686 98 687T97 691Q97 690 95 697T92 710Q92 750 100 785Q121 891 254 891Q264 891 278 887T305 875Q339 861 353 840Q360 834 362 828Q377 807 387 800Q396 794 403 794Q427 794 427 816Q427 827 423 838T405 871Q405 878 418 878H422L555
880Q563 873 566 866Q578 842 581 801Q582 791 582 785T583 773Q583 746 573 725Q560 696 531 674T467 642Q451 636 427 636Z" />
<glyph unicode="&#xf6;" glyph-name="odieresis" horiz-adv-x="675" d="M352 -32Q315 -32 276 -28T203 -16Q175 -9 155 1T119 29T83 76H72L71 92Q70 92 70 92T67 93L59 111Q16 193 20 287Q25 384 60 448T174 565Q196 578 216 582T255 590Q281 590 312 589T374
588H378Q380 588 380 587Q385 588 395 588T415 587Q492 581 546 534Q581 503 606 459T644 363T655 258Q654 219 644 185T622 116Q612 83 589 54T537 6L515 -8Q514 -9 514 -8T509 -11Q507 -13 504 -13Q500 -16 486 -16H480Q457 -23 433 -31T392 -32Q386 -29 381
-30T373 -32H352ZM350 87Q356 87 362 88T370 89L387 126Q388 129 389 132T390 140L397 152V174Q402 183 404 192T410 226V243L411 261L393 397Q387 445 365 449Q354 451 351 453T341 456Q338 457 331 459T317 455Q306 437 299 408T291 353V323Q291 314 291 288T293
234T300 186Q305 170 306 165T307 156Q307 118 333 98Q333 87 350 87ZM82 673L76 679L69 711V740L68 760L67 766Q67 775 71 779L74 810V813L73 818Q75 824 77 830T84 841Q89 846 102 846H206Q222 848 229 848T241 849Q249 849 251 849T254 848Q259 848 260 847Q262
846 267 846H274Q277 846 278 847Q279 848 281 848H284Q296 848 296 823V803Q295 797 295 793T294 783Q294 782 294 781T296 776V723Q297 721 297 718T297 700Q297 675 281 673H82ZM446 673L387 679L381 711V740Q381 756 378 766V771Q377 772 377 779V793Q376 796
376 800T376 820Q376 821 377 822Q377 823 376 824V828Q377 829 378 831T382 836Q385 842 389 843Q400 846 414 846H518Q535 848 542 848T552 849Q561 849 563 849T566 848Q570 848 571 847Q573 846 579 846H586Q589 846 590 847Q591 848 593 848H596Q607 848 607
823V810L606 783V780Q606 777 607 776V744L606 733V723Q606 714 607 713Q608 709 608 706T609 700Q609 674 593 673H446Z" />
<glyph unicode="&#xf7;" glyph-name="divide" horiz-adv-x="568" d="M208 446Q185 446 185 459Q184 470 183 486T181 534Q181 595 177 611L181 617L208 623H253Q261 623 263 623T266 624Q269 625 280 625H298L303 623L310 624H318L328 622L348 619L352 617L357
618H358Q371 616 376 610Q381 608 381 596Q385 592 387 571T389 515Q390 510 390 504T390 492V482L389 473V456Q389 444 364 447H357Q354 448 352 448T340 448H333Q331 447 322 447H312Q306 445 304 447Q291 448 276 448T228 448Q227 447 217 447L208 446ZM518
240L458 241Q454 241 442 241T417 242T398 243T400 243H308Q281 243 275 244H76Q48 243 33 253Q25 256 25 266V350Q24 353 24 358T24 380Q24 387 32 393T48 400H218Q244 399 271 399T323 398H401Q418 397 431 397T458 396H485Q514 396 527 391T540 375Q540 348
540 342T543 330V286Q543 261 538 251T518 240ZM208 22Q199 22 190 26Q187 28 185 33Q184 60 183 78T182 110Q182 133 181 152T178 187L182 194L207 198H253Q261 198 263 198T266 199Q269 200 280 200H298L304 198L311 199H320L324 198H329L348 195L352 194H359Q373
190 376 186T380 172Q388 167 388 143T389 91L390 68V58Q390 54 390 50T390 41V31Q390 22 374 22Q361 22 358 23H323Q321 22 312 22H306Q287 22 274 23T256 24L229 23Q219 23 217 22H208Z" />
<glyph unicode="&#xf8;" glyph-name="oslash" horiz-adv-x="740" d="M346 -25Q342 -25 337 -25T324 -23Q319 -22 314 -22T304 -21Q261 -21 209 -4H202Q191 -4 186 0Q185 1 184 2T181 4Q179 5 178 6T174 8L154 20Q119 42 109 58Q54 22 34 19Q27 24 22 27T10 33L-1
48L-4 51Q-6 53 -6 53Q-25 66 -18 79Q-17 82 -10 89Q-8 91 -6 92T0 98L61 140Q36 183 36 274Q36 326 52 379T96 477T160 548Q224 598 300 598Q307 598 315 598T335 596Q336 597 336 597T338 598H344Q396 598 421 597T469 593Q517 585 555 564Q582 544 600 528T629
501L707 548Q708 549 714 549Q723 549 729 543Q734 537 740 533Q746 528 749 526T754 521Q768 511 772 506Q777 501 775 496Q773 489 764 479L732 454L701 436L680 424Q705 375 705 283Q705 188 660 105Q659 98 651 89Q650 88 650 88T649 86Q648 83 646 83Q645
82 645 79L644 78L637 74Q594 10 505 -13Q450 -25 346 -25ZM339 329L379 356L410 374Q409 415 404 444Q395 483 384 483Q373 483 364 468Q353 454 349 413L339 329ZM364 50Q372 50 384 70Q396 104 405 189Q407 199 408 214T409 258L329 206L334 141Q334 135 334
128T336 111Q337 108 337 106T338 101Q339 100 339 95L349 58Q350 55 355 53T364 50Z" />
<glyph unicode="&#xf9;" glyph-name="ugrave" horiz-adv-x="683" d="M650 562Q653 562 653 557Q653 451 653 372T651 234T648 126T643 30Q643 17 637 10T629 -1Q628 -2 628 -2T626 -5L623 -7Q622 -6 616 -5T606 -3L604 -5Q602 -7 600 -7Q583 -11 560 -12T488 -13H446Q422
-13 404 -10Q398 -5 389 14Q388 18 388 26T385 36Q384 41 381 41Q381 41 375 43V38H374Q315 -32 200 -32Q131 -32 89 5T38 109Q34 143 32 180T30 257Q30 290 31 324T34 397Q34 402 36 411T38 431Q38 449 38 478T39 532Q39 543 39 546T38 550Q38 555 38 560T37 569Q37
576 42 578T64 581H113Q138 581 162 581T212 579Q277 577 293 554Q296 545 296 510Q296 472 296 444T295 391V372Q295 350 295 337T294 312Q293 275 294 241T293 180Q289 140 306 123T353 122Q369 131 373 142V482Q370 502 370 514Q369 516 369 528V553Q369 571
383 571Q389 571 389 566V565Q400 569 430 571T488 574H512L637 571Q642 571 642 568Q643 568 643 567V562Q642 562 642 559L647 560Q649 562 650 562ZM333 656H296Q292 656 289 659T279 671Q273 681 268 688T255 708T228 745L215 769Q213 773 209 779T200 794Q187
816 180 829T170 846Q166 853 164 858T160 865Q157 871 157 875Q157 881 163 884Q169 888 190 892H195Q195 891 197 891L205 894L247 896L253 897Q256 897 257 898Q258 899 260 899H270Q276 899 280 897L286 900L345 897L388 890L396 884Q406 849 416 814T438 738Q439
730 442 717T446 686Q446 656 427 656H344L341 659L333 656Z" />
<glyph unicode="&#xfa;" glyph-name="uacute" horiz-adv-x="683" d="M650 562Q653 562 653 557Q653 451 653 372T651 234T648 126T643 30Q643 17 637 10T629 -1Q628 -2 628 -2T626 -5L623 -7Q622 -6 616 -5T606 -3L604 -5Q602 -7 600 -7Q583 -11 560 -12T488 -13H446Q422
-13 404 -10Q398 -5 389 14Q388 18 388 26T385 36Q384 41 381 41Q381 41 375 43V38H374Q315 -32 200 -32Q131 -32 89 5T38 109Q34 143 32 180T30 257Q30 290 31 324T34 397Q34 402 36 411T38 431Q38 449 38 478T39 532Q39 543 39 546T38 550Q38 555 38 560T37 569Q37
576 42 578T64 581H113Q138 581 162 581T212 579Q277 577 293 554Q296 545 296 510Q296 472 296 444T295 391V372Q295 350 295 337T294 312Q293 275 294 241T293 180Q289 140 306 123T353 122Q369 131 373 142V482Q370 502 370 514Q369 516 369 528V553Q369 571
383 571Q389 571 389 566V565Q400 569 430 571T488 574H512L637 571Q642 571 642 568Q643 568 643 567V562Q642 562 642 559L647 560Q649 562 650 562ZM350 656L342 659L339 656H256Q244 656 241 664T237 686Q237 703 240 716T245 738Q256 774 266 809T287 884L295
890L338 897L397 900L403 897Q407 899 413 899H423Q425 899 426 898Q427 897 430 897L436 896L478 894L486 891Q488 891 488 892H493Q514 888 520 884Q526 881 526 875Q526 871 523 865Q521 860 513 846Q511 842 504 829T483 794Q478 785 474 779T468 769L455 745Q438
721 429 709T416 689T404 671Q394 656 387 656H350Z" />
<glyph unicode="&#xfb;" glyph-name="ucircumflex" horiz-adv-x="683" d="M650 562Q653 562 653 557Q653 451 653 372T651 234T648 126T643 30Q643 17 637 10T629 -1Q628 -2 628 -2T626 -5L623 -7Q622 -6 616 -5T606 -3L604 -5Q602 -7 600 -7Q583 -11 560 -12T488
-13H446Q422 -13 404 -10Q398 -5 389 14Q388 18 388 26T385 36Q384 41 381 41Q381 41 375 43V38H374Q315 -32 200 -32Q131 -32 89 5T38 109Q34 143 32 180T30 257Q30 290 31 324T34 397Q34 402 36 411T38 431Q38 449 38 478T39 532Q39 543 39 546T38 550Q38 555
38 560T37 569Q37 576 42 578T64 581H113Q138 581 162 581T212 579Q277 577 293 554Q296 545 296 510Q296 472 296 444T295 391V372Q295 350 295 337T294 312Q293 275 294 241T293 180Q289 140 306 123T353 122Q369 131 373 142V482Q370 502 370 514Q369 516 369
528V553Q369 571 383 571Q389 571 389 566V565Q400 569 430 571T488 574H512L637 571Q642 571 642 568Q643 568 643 567V562Q642 562 642 559L647 560Q649 562 650 562ZM177 652H155Q146 652 146 665V672Q150 695 173 739Q176 744 179 752T189 770L205 804L226
843Q230 848 235 858T249 881L254 886L287 893H397L418 891L434 881L465 832Q495 782 518 728Q533 694 537 672L538 669V665Q538 652 527 652H433Q428 652 423 659Q410 674 405 681T396 696Q392 701 389 704T383 712Q373 724 363 738T341 768Q328 745 320 730T305
708L295 698Q278 681 268 667T251 652H223L220 653L217 652H195Q191 652 188 653Q179 653 177 652Z" />
<glyph unicode="&#xfc;" glyph-name="udieresis" horiz-adv-x="683" d="M650 562Q653 562 653 557Q653 451 653 372T651 234T648 126T643 30Q643 17 637 10T629 -1Q628 -2 628 -2T626 -5L623 -7Q622 -6 616 -5T606 -3L604 -5Q602 -7 600 -7Q583 -11 560 -12T488
-13H446Q422 -13 404 -10Q398 -5 389 14Q388 18 388 26T385 36Q384 41 381 41Q381 41 375 43V38H374Q315 -32 200 -32Q131 -32 89 5T38 109Q34 143 32 180T30 257Q30 290 31 324T34 397Q34 402 36 411T38 431Q38 449 38 478T39 532Q39 543 39 546T38 550Q38 555
38 560T37 569Q37 576 42 578T64 581H113Q138 581 162 581T212 579Q277 577 293 554Q296 545 296 510Q296 472 296 444T295 391V372Q295 350 295 337T294 312Q293 275 294 241T293 180Q289 140 306 123T353 122Q369 131 373 142V482Q370 502 370 514Q369 516 369
528V553Q369 571 383 571Q389 571 389 566V565Q400 569 430 571T488 574H512L637 571Q642 571 642 568Q643 568 643 567V562Q642 562 642 559L647 560Q649 562 650 562ZM86 673L80 679L73 711V740L72 760L71 766Q71 775 75 779L78 810V813L77 818Q79 824 81 830T88
841Q93 846 106 846H210Q226 848 233 848T245 849Q253 849 255 849T258 848Q263 848 264 847Q266 846 271 846H278Q281 846 282 847Q283 848 285 848H288Q300 848 300 823V803Q299 797 299 793T298 783Q298 782 298 781T300 776V723Q301 721 301 718T301 700Q301
675 285 673H86ZM450 673L391 679L385 711V740Q385 756 382 766V771Q381 772 381 779V793Q380 796 380 800T380 820Q380 821 381 822Q381 823 380 824V828Q381 829 382 831T386 836Q389 842 393 843Q404 846 418 846H522Q539 848 546 848T556 849Q565 849 567 849T570
848Q574 848 575 847Q577 846 583 846H590Q593 846 594 847Q595 848 597 848H600Q611 848 611 823V810L610 783V780Q610 777 611 776V744L610 733V723Q610 714 611 713Q612 709 612 706T613 700Q613 674 597 673H450Z" />
<glyph unicode="&#xfd;" glyph-name="yacute" horiz-adv-x="684" d="M651 558Q654 558 654 554Q654 472 654 408T652 289T649 184T644 77Q644 73 644 69T643 61Q643 57 643 54T642 48V34Q642 17 641 -6T636 -50Q623 -111 595 -149T511 -213Q495 -219 484 -221T464
-226Q446 -229 425 -229Q412 -229 382 -231T309 -234T213 -225T105 -196L77 -180V-174Q77 -168 77 -163T78 -153Q78 -151 78 -149T78 -146Q79 -144 79 -138Q79 -130 79 -125T80 -119Q80 -80 80 -71T82 -57Q83 -54 83 -50T83 -40V-28Q84 -28 84 -27T85 -25Q117 -36
157 -43T238 -53T310 -52T353 -33Q361 -33 367 -24T377 -3T382 15Q382 27 382 41T383 62L385 72Q383 80 381 83L380 95Q356 71 324 58T259 39T198 34Q146 34 112 54T59 109T36 186Q33 212 31 252T32 368Q32 373 34 383T36 405Q36 424 36 456T37 513Q37 521 37 526T36
533Q36 539 36 544T35 554Q35 562 41 564T62 567H111Q136 567 160 567T210 565Q274 564 291 537Q293 533 293 520T294 490Q294 448 294 418T293 361L291 263Q287 219 304 201T351 200Q365 206 369 218V481Q368 490 368 497T367 511Q366 513 366 526V549Q366 560
369 564T379 568Q385 568 385 563V562Q393 565 421 567T478 570H500L638 568Q643 568 643 565Q644 565 644 564V558Q643 558 643 555L648 556Q650 558 651 558ZM345 656L337 659L334 656H251Q239 656 236 664T232 686Q232 703 235 716T240 738Q251 774 261 809T282
884L290 890L333 897L392 900L398 897Q402 899 408 899H418Q420 899 421 898Q422 897 425 897L431 896L473 894L481 891Q483 891 483 892H488Q509 888 515 884Q521 881 521 875Q521 871 518 865Q516 860 508 846Q506 842 499 829T478 794Q473 785 469 779T463 769L450
745Q433 721 424 709T411 689T399 671Q389 656 382 656H345Z" />
<glyph unicode="&#xfe;" glyph-name="thorn" horiz-adv-x="703" d="M467 572Q533 572 581 537T656 436T683 282Q683 251 675 211T654 136T627 82Q587 29 544 4T448 -21Q387 -21 351 -9T295 31V-37H294L295 -166V-217Q295 -235 244 -235Q221 -235 215 -234Q207
-233 202 -232T191 -231Q183 -230 161 -230T121 -229L117 -233L63 -229Q44 -230 38 -225T31 -212T31 -199Q31 -105 31 -41T32 66V69L33 91V303Q33 304 32 332T31 402T31 484Q31 524 31 569T31 658T31 731Q31 736 31 743T38 756T65 760L123 764L128 760Q139 760
161 761T204 763Q209 763 215 763T229 765Q236 766 261 766Q316 766 316 748V696L315 639H316V516Q360 572 467 572ZM363 159Q378 162 384 186Q388 205 390 222T392 258Q396 273 396 321L395 327Q395 332 394 336T392 343Q389 377 374 397T337 418Q326 418 321
397T308 339Q307 329 305 304T303 262Q304 251 304 234T307 201T311 175Q312 159 323 156T363 159Z" />
<glyph unicode="&#xff;" glyph-name="ydieresis" horiz-adv-x="684" d="M651 558Q654 558 654 554Q654 472 654 408T652 289T649 184T644 77Q644 73 644 69T643 61Q643 57 643 54T642 48V34Q642 17 641 -6T636 -50Q623 -111 595 -149T511 -213Q495 -219 484 -221T464
-226Q446 -229 425 -229Q412 -229 382 -231T309 -234T213 -225T105 -196L77 -180V-174Q77 -168 77 -163T78 -153Q78 -151 78 -149T78 -146Q79 -144 79 -138Q79 -130 79 -125T80 -119Q80 -80 80 -71T82 -57Q83 -54 83 -50T83 -40V-28Q84 -28 84 -27T85 -25Q117 -36
157 -43T238 -53T310 -52T353 -33Q361 -33 367 -24T377 -3T382 15Q382 27 382 41T383 62L385 72Q383 80 381 83L380 95Q356 71 324 58T259 39T198 34Q146 34 112 54T59 109T36 186Q33 212 31 252T32 368Q32 373 34 383T36 405Q36 424 36 456T37 513Q37 521 37 526T36
533Q36 539 36 544T35 554Q35 562 41 564T62 567H111Q136 567 160 567T210 565Q274 564 291 537Q293 533 293 520T294 490Q294 448 294 418T293 361L291 263Q287 219 304 201T351 200Q365 206 369 218V481Q368 490 368 497T367 511Q366 513 366 526V549Q366 560
369 564T379 568Q385 568 385 563V562Q393 565 421 567T478 570H500L638 568Q643 568 643 565Q644 565 644 564V558Q643 558 643 555L648 556Q650 558 651 558ZM81 673L75 679L68 711V740L67 760L66 766Q66 775 70 779L73 810V813L72 818Q74 824 76 830T83 841Q88
846 101 846H205Q221 848 228 848T240 849Q248 849 250 849T253 848Q258 848 259 847Q261 846 266 846H273Q276 846 277 847Q278 848 280 848H283Q295 848 295 823V803Q294 797 294 793T293 783Q293 782 293 781T295 776V723Q296 721 296 718T296 700Q296 675 280
673H81ZM445 673L386 679L380 711V740Q380 756 377 766V771Q376 772 376 779V793Q375 796 375 800T375 820Q375 821 376 822Q376 823 375 824V828Q376 829 377 831T381 836Q384 842 388 843Q399 846 413 846H517Q534 848 541 848T551 849Q560 849 562 849T565 848Q569
848 570 847Q572 846 578 846H585Q588 846 589 847Q590 848 592 848H595Q606 848 606 823V810L605 783V780Q605 777 606 776V744L605 733V723Q605 714 606 713Q607 709 607 706T608 700Q608 674 592 673H445Z" />
<glyph unicode="&#x2013;" glyph-name="endash" horiz-adv-x="570" d="M113 195Q81 194 65 205Q58 211 58 224V298Q58 316 58 321T57 330L56 371Q56 380 65 389T83 398Q98 398 109 398T128 399Q141 400 152 400T173 401H365Q375 401 386 401T411 399Q416 398 423
398T454 398Q483 398 499 391T516 370Q516 355 516 339T514 306Q514 293 514 288T513 281V253Q513 224 505 213Q496 198 461 198L454 196Q452 195 445 195H113Z" />
<glyph unicode="&#x2014;" glyph-name="emdash" horiz-adv-x="746" d="M631 194Q621 194 614 194T602 195H421Q319 195 261 195T177 195T148 196H81Q73 196 65 205T56 223V368Q56 384 69 390T95 397T111 398Q120 397 127 397T142 396H622Q629 396 631 395L638
393Q670 393 679 383T689 338Q689 331 689 324T691 311Q691 283 691 274T692 258V221Q692 194 631 194Z" />
<glyph unicode="&#x2018;" glyph-name="quoteleft" horiz-adv-x="413" d="M193 341L186 344Q185 343 176 343H166L160 344L153 345L109 348L103 350H99Q98 349 95 349Q88 351 81 354T71 359Q66 371 66 378L63 426L59 457L56 483Q52 502 52 541Q52 559 52 564T53
573Q57 636 80 689Q111 753 169 778Q234 795 283 795H293L303 794Q303 787 308 770Q311 763 312 757T313 745V744L325 699V694Q326 693 326 686Q326 685 328 679V675Q295 675 270 655T236 603Q233 596 233 585Q233 578 234 578Q243 575 276 575Q290 574 304 574T331
571Q358 566 360 556T364 525Q365 514 365 507T366 496Q369 462 369 419V358L363 351L311 344H273Q257 344 252 344T243 343Q233 343 230 342Q227 341 218 341H193Z" />
<glyph unicode="&#x2019;" glyph-name="quoteright" horiz-adv-x="409" d="M119 321Q116 321 115 322Q114 323 110 323Q107 342 106 349T99 371V373L103 379L98 383L88 418Q87 418 81 429L78 436Q78 438 75 441Q130 454 160 495Q172 512 178 525L180 534Q180 541
169 541H161Q156 541 151 541T136 543Q98 543 81 546Q68 548 61 552Q53 555 53 559Q52 573 52 582T51 599Q50 602 50 620Q49 625 49 631T49 658L48 683Q48 693 48 705T46 731L43 758L49 765L101 773H178Q184 774 188 774T195 775H219L226 773H236Q245 773 246 774Q247
773 253 773Q256 773 257 772Q258 771 259 771L303 768L310 766Q313 766 313 768H318Q322 767 325 766T331 763Q336 761 341 758Q346 751 346 738Q346 701 349 672T356 634Q353 621 353 598Q353 516 339 468T291 385Q268 362 233 348Q179 321 129 321H119Z" />
<glyph unicode="&#x201a;" glyph-name="quotesinglbase" horiz-adv-x="419" d="M129 -263Q128 -263 126 -263T120 -261Q117 -243 115 -236Q113 -223 109 -213V-211L113 -204L108 -200L98 -166Q96 -165 91 -154L88 -148Q88 -143 85 -143Q137 -132 170 -88Q182 -73
188 -58L190 -49Q190 -43 177 -43H171Q166 -43 161 -43T146 -41Q117 -41 91 -38Q63 -33 63 -24Q60 0 60 48Q59 51 59 56T59 75Q58 143 53 175L59 183L111 189H170Q181 189 184 189T188 190Q191 191 195 192T205 193H229L236 189Q238 190 246 190Q255 190 256 191Q262
189 263 189L269 188L313 185L320 183Q323 183 323 184H328Q329 184 339 180Q349 176 352 171T356 155V138Q356 123 357 107T360 74L363 62Q365 58 365 56T366 51Q363 39 363 14Q363 -67 349 -115T301 -198Q276 -223 243 -235Q191 -263 139 -263H129Z" />
</font>
</defs>
</svg>
