<?xml version="1.0" standalone="no"?>
<!DOCTYPE svg PUBLIC "-//W3C//DTD SVG 1.1//EN" "http://www.w3.org/Graphics/SVG/1.1/DTD/svg11.dtd">
<svg xmlns="http://www.w3.org/2000/svg">
<defs >
<font id="NanumMyeongjo" horiz-adv-x="512" ><font-face
    font-family="NanumMyeongjo"
    units-per-em="1024"
    panose-1="2 2 6 3 2 1 1 2 1 1"
    ascent="942"
    descent="-236"
    alphabetic="0" />
<glyph unicode=" " glyph-name="space" horiz-adv-x="307" />
<glyph unicode="!" glyph-name="exclam" horiz-adv-x="379" d="M158 484Q152 535 144 587T136 689Q136 706 139 722T148 752T164 774T188 783Q203 783 213 775T230 753T240 722T243 687Q243 639 236 588T223 486Q218 435 216 381T213 281T211 206T210 172H173Q173
175 173 205T172 281T167 379T158 484ZM190 -41Q164 -41 147 -24T129 19Q129 43 146 61T190 80Q217 80 235 62T253 19Q253 -6 235 -23T190 -41Z" />
<glyph unicode="&quot;" glyph-name="quotedbl" horiz-adv-x="328" d="M250 609H218L199 812Q197 825 207 838T231 852Q251 852 262 839T271 812L250 609ZM111 609H78L56 812Q54 825 65 838T92 852Q109 852 120 839T129 812L111 609Z" />
<glyph unicode="#" glyph-name="numbersign" horiz-adv-x="632" d="M464 777H522L475 544H601L594 505H468L426 294H562L552 256H418L369 8H309L359 256H219L168 8H106L159 256H29L38 294H166L210 505H70L78 544H218L267 777H327L279 544H417L464 777ZM270 505L227
294H367L410 505H270Z" />
<glyph unicode="$" glyph-name="dollar" horiz-adv-x="632" d="M98 199Q107 161 120 131T155 78T208 42T284 26V384Q231 406 194 428T134 477T100 532T89 597Q89 633 106 663T150 716T213 751T284 765V837H336V765Q358 763 382 758T430 746T475 728T512 705V584H492Q486
615 475 642T445 691T399 725T336 742V429Q394 402 435 379T503 329T540 272T551 198Q550 161 535 126T493 64T426 20T336 0V-102H284V1Q248 2 223 5T176 14T132 32T78 60V199H98ZM336 23Q365 26 394 38T445 70T482 117T497 176Q497 212 488 239T458 289T407 330T336
368V23ZM284 741Q255 739 230 727T185 695T154 653T142 605Q142 577 152 554T182 511T227 475T284 446V741Z" />
<glyph unicode="%" glyph-name="uni0025" horiz-adv-x="901" d="M601 658Q581 647 557 641T507 633T456 636T409 652Q417 626 417 601T409 550T389 500T362 454Q342 424 318 399T264 359T200 338T127 343Q93 353 72 380T46 446T57 533T110 632Q138 670 175 693T248
726T318 732T374 710Q382 703 386 698T395 688Q423 673 457 668T528 668T599 691T665 739H705L256 18H205L601 658ZM301 706Q280 704 260 695T220 672T185 641T157 606Q131 566 117 527T101 456T114 400T159 369Q179 364 203 369T251 388T297 423T337 473Q368 524
378 575T372 664Q332 674 301 706ZM589 20Q542 33 519 61T493 127T502 208T540 292Q556 318 581 343T638 385T706 409T782 406Q821 395 841 371T867 315T864 245T836 169Q815 125 787 93T726 42T658 16T589 20ZM788 375Q762 386 737 383T687 367T640 330T599 276Q577
241 564 205T550 138T561 83T603 51Q633 42 661 49T714 75T761 119T799 175Q814 204 822 235T831 294T821 343T788 375Z" />
<glyph unicode="&amp;" glyph-name="ampersand" horiz-adv-x="879" d="M489 96Q443 54 385 28T269 -5T161 3T83 58Q46 112 45 166T69 268T146 358T265 430Q248 470 237 510T227 589Q228 623 239 655T273 713T326 753T396 768Q429 768 456 759T504 734T536 692T548
636Q548 599 533 569T489 513T421 465T331 422Q349 384 370 348T413 281Q433 252 456 222T504 162Q527 188 549 220T590 285T621 352T636 414Q637 432 632 441T617 453T593 457T563 458V484H798V458Q774 456 758 455T729 450T708 435T692 403Q669 340 629 271T529
135Q571 92 611 64T684 35Q725 35 761 56T818 123L842 118Q828 62 788 28T691 -8Q637 -9 587 21T489 96ZM280 399Q230 376 191 343T131 269T109 184T141 92Q162 60 199 47T280 37T372 62T464 123Q433 158 407 193T359 261Q341 290 320 325T280 399ZM316 453Q399
489 450 535T501 639Q501 664 493 683T470 716T438 735T401 742Q376 742 355 732T317 702T292 654T283 592Q283 562 292 527T316 453Z" />
<glyph unicode="&apos;" glyph-name="quotesingle" horiz-adv-x="180" d="M102 609H76L53 812Q51 825 62 838T89 852Q107 852 118 839T127 812L102 609Z" />
<glyph unicode="(" glyph-name="parenleft" horiz-adv-x="374" d="M347 -94Q217 10 160 129T102 377Q102 514 163 636T342 846L359 826Q311 786 275 734T214 622T178 500T165 377Q165 254 212 139T364 -72L347 -94Z" />
<glyph unicode=")" glyph-name="parenright" horiz-adv-x="374" d="M23 -72Q126 23 173 138T221 377Q221 437 209 500T172 622T112 733T27 826L44 846Q162 759 223 637T284 377Q284 248 227 129T39 -94L23 -72Z" />
<glyph unicode="*" glyph-name="asterisk" horiz-adv-x="654" d="M315 658Q313 678 309 696T300 728Q295 747 290 762T284 795Q284 818 295 831T327 845Q347 845 359 832T371 795Q371 778 365 763T354 728Q349 716 345 698T338 660Q353 672 366 685T389 710Q404
722 415 733T440 754Q463 768 480 765T507 744Q518 727 512 711T484 683Q470 675 453 672T417 663Q400 661 382 655T344 641Q364 633 382 629T417 622Q435 617 452 613T483 601Q529 576 506 540Q485 505 440 528Q426 537 414 549T388 574Q380 585 367 598T338 624Q341
604 345 586T354 555Q359 536 365 521T371 488Q371 465 359 452T327 438Q307 438 296 451T284 488Q284 505 289 520T300 555Q305 569 309 587T315 625Q301 614 287 602T264 579Q250 566 239 554T213 532Q168 509 145 544Q136 560 142 576T170 605Q184 613 201 616T238
624Q252 626 268 630T303 641Q285 649 268 654T236 662Q216 667 199 669T168 680Q145 692 139 708T143 741Q154 758 171 762T211 754Q226 745 237 733T262 707Q270 695 285 683T315 658Z" />
<glyph unicode="+" glyph-name="plus" horiz-adv-x="654" d="M356 365V139H298V365H80V412H298V629H356V412H575V365H356Z" />
<glyph unicode="," glyph-name="comma" horiz-adv-x="280" d="M125 -23Q113 -26 102 -23T81 -12T67 6T61 30Q61 54 79 70T123 87Q158 87 176 63T195 0Q195 -54 168 -93T87 -153L73 -136Q153 -99 153 -32Q153 -20 148 -18T137 -18L125 -23V-23Z" />
<glyph unicode="-" glyph-name="hyphen" horiz-adv-x="654" d="M83 364V412H571V364H83Z" />
<glyph unicode="." glyph-name="period" horiz-adv-x="280" d="M132 -34Q105 -34 88 -17T71 26Q71 51 88 68T132 86Q159 86 177 69T195 26Q195 0 177 -17T132 -34Z" />
<glyph unicode="/" glyph-name="slash" horiz-adv-x="444" d="M83 -36H30L360 804H415L83 -36Z" />
<glyph unicode="0" glyph-name="zero" horiz-adv-x="550" d="M47 377Q47 453 60 523T102 648T173 734T276 767Q335 767 378 735T450 649T491 525T505 378Q505 301 491 231T449 108T377 22T276 -10Q217 -10 174 22T102 107T61 230T47 377ZM276 25Q316 25 345 50T394
122T424 234T434 377Q434 455 424 520T395 633T346 708T276 735Q237 735 208 709T158 635T128 522T118 378Q118 300 128 235T159 124T208 51T276 25Z" />
<glyph unicode="1" glyph-name="one" horiz-adv-x="550" d="M324 774V118Q324 89 331 73T352 48T387 38T435 35V7H148V36Q172 37 192 38T227 48T250 72T259 120V611Q259 638 255 653T237 671T201 668T140 645V676L324 774Z" />
<glyph unicode="2" glyph-name="two" horiz-adv-x="550" d="M59 32Q92 67 129 110T202 197T268 279T316 341Q333 363 350 390T382 446T406 504T416 562Q416 587 408 615T382 666T335 704T262 719Q230 719 204 706T156 669T118 616T91 553L61 557Q69 597 86 635T130
702T195 749T281 767Q323 767 359 752T422 710T463 647T478 567Q478 535 469 502T445 438T412 379T377 329Q324 258 272 195T159 59H373Q400 59 417 61T446 70T468 91T492 130H516L470 7H59V32Z" />
<glyph unicode="3" glyph-name="three" horiz-adv-x="550" d="M452 616Q452 589 442 563T415 513T376 468T327 430Q360 424 389 408T440 367T475 310T488 240Q488 186 472 146T428 76T360 28T272 -2Q236 -10 201 -8T139 2T94 24T77 53Q77 67 86 78T113 89Q133
89 151 81T188 61Q213 44 230 40T268 36Q296 37 324 49T374 83T410 134T425 200Q427 304 369 350T193 383L194 411Q236 420 270 439T329 483T368 539T382 602Q382 659 351 690T266 721Q237 721 212 711T167 683T133 644T109 596L79 597Q88 634 107 665T153 720T214
756T288 769Q321 769 350 758T402 727T438 679T452 616Z" />
<glyph unicode="4" glyph-name="four" horiz-adv-x="550" d="M410 773V254H528V206H410V7H347V206H41V251L372 773H410ZM90 254H346V654L90 254Z" />
<glyph unicode="5" glyph-name="five" horiz-adv-x="550" d="M211 -5Q187 -5 159 -1T108 10T70 29T54 57Q54 74 66 82T96 90Q115 90 131 84T166 68Q180 60 204 49T254 39Q286 40 314 55T362 98T395 163T407 245Q407 360 335 420T118 474Q106 473 99 478T95 489L204
757H473L461 701H226L162 535Q235 538 293 521T392 470T453 387T475 278Q475 220 455 169T400 79T316 18T211 -5Z" />
<glyph unicode="6" glyph-name="six" horiz-adv-x="550" d="M142 420Q173 452 206 467T274 485Q320 489 362 473T435 423T484 342T503 237Q503 184 489 139T447 60T380 9T292 -10Q241 -10 198 13T124 79T76 181T59 310Q59 404 90 487T177 633T312 731T487 769L488
743Q423 739 366 714T264 647T187 548T142 420ZM132 283Q130 233 139 186T169 103T221 45T293 23Q333 23 360 41T403 90T426 159T431 238Q429 280 416 319T381 387T328 432T260 443Q206 436 170 394T132 283Z" />
<glyph unicode="7" glyph-name="seven" horiz-adv-x="550" d="M506 746L275 8H218L431 694H209Q182 694 165 689T134 674T108 647T80 607L52 613L114 757H502L506 746Z" />
<glyph unicode="8" glyph-name="eight" horiz-adv-x="550" d="M476 592Q476 557 466 528T438 474T398 431T349 399Q421 370 461 325T501 208Q501 158 484 118T435 50T362 6T271 -9Q228 -9 189 5T119 44T71 104T53 182Q53 221 65 255T99 316T149 363T209 393Q150
422 114 467T77 583Q77 625 92 659T135 717T200 755T283 769Q318 769 352 758T414 724T459 669T476 592ZM138 592Q138 536 186 490T316 418Q366 446 394 486T422 580Q422 618 411 647T381 697T336 729T281 740Q254 740 228 730T182 701T150 655T138 592ZM110 184Q110
146 123 117T159 67T211 36T270 25Q304 25 334 36T387 69T423 118T437 182Q437 226 424 255T387 306T327 344T246 378Q174 346 142 298T110 184Z" />
<glyph unicode="9" glyph-name="nine" horiz-adv-x="550" d="M418 337Q387 304 354 289T285 270Q238 266 197 283T124 333T75 414T56 519Q56 572 70 617T112 695T179 747T267 766Q318 766 361 743T435 677T483 576T500 445Q500 351 469 268T382 123T247 24T72
-13L71 13Q138 19 195 44T298 111T373 210T418 337ZM427 473Q429 523 420 570T390 654T338 713T266 736Q226 736 199 717T155 667T132 597T128 518Q130 476 143 437T178 369T230 323T299 312Q353 321 389 362T427 473Z" />
<glyph unicode=":" glyph-name="colon" horiz-adv-x="420" d="M213 98Q186 98 169 115T152 158Q152 182 169 200T213 219Q240 219 257 201T275 158Q275 133 258 116T213 98ZM213 542Q186 542 169 559T152 602Q152 626 169 644T213 663Q240 663 257 645T275 602Q275
576 258 559T213 542Z" />
<glyph unicode=";" glyph-name="semicolon" horiz-adv-x="420" d="M213 542Q186 542 169 559T152 601Q152 626 169 644T213 663Q240 663 257 645T275 601Q275 576 258 559T213 542ZM213 124Q190 119 170 134T150 176Q150 201 167 217T211 233Q246 233 264 210T283
146Q283 92 256 53T175 -6L161 10Q241 49 241 115Q241 126 236 128T225 128L213 124Z" />
<glyph unicode="&lt;" glyph-name="less" horiz-adv-x="561" d="M510 -92L152 358V386L510 836L548 812L200 373L548 -69L510 -92Z" />
<glyph unicode="=" glyph-name="equal" horiz-adv-x="654" d="M83 467V512H571V467H83ZM83 264V309H571V264H83Z" />
<glyph unicode="&gt;" glyph-name="greater" horiz-adv-x="561" d="M378 373L30 813L67 836L427 387V359L67 -92L30 -70L378 373Z" />
<glyph unicode="?" glyph-name="question" horiz-adv-x="537" d="M156 574Q156 558 146 544T123 528Q111 526 100 530T81 544T68 565T62 592Q61 634 77 668T123 726T190 763T270 776Q313 776 350 765T416 730T460 671T476 589Q476 567 467 542T442 490T408 437T370
385Q324 328 307 271T288 163H257Q251 278 327 393Q339 411 353 433T379 481T398 534T406 589Q404 670 364 710T267 751Q235 751 209 742T162 718T131 684T120 646Q120 634 125 627T138 612T150 596T156 574ZM268 -41Q241 -41 224 -24T207 19Q207 43 224 61T268
80Q295 80 313 62T331 19Q331 -6 313 -23T268 -41Z" />
<glyph unicode="@" glyph-name="at" horiz-adv-x="874" d="M450 4Q359 2 283 27T152 101T70 218T48 374Q54 454 86 523T171 644T296 727T456 761Q525 763 590 741T707 677T789 577T820 449Q820 383 797 330T736 240T652 183T560 163Q534 163 513 174T480 211Q449
183 418 169T347 155Q301 155 270 174T223 227T207 304T221 400Q234 440 255 476T305 539T369 581T443 597Q493 597 524 581T566 538L583 580H646L527 254Q518 228 530 207T573 191Q609 197 644 217T706 271T751 347T769 440Q769 504 743 557T673 648T572 707T454
727Q379 725 317 697T209 622T135 513T101 381Q94 297 119 233T193 126T310 60T458 37Q501 37 545 46T629 73T704 114T765 166L791 142Q729 84 646 45T450 4ZM536 449Q543 468 542 488T532 524T508 550T471 563Q437 566 409 554T359 519T320 467T292 407Q279 372
273 334T270 264T291 209T343 184Q371 182 393 192T433 219T463 259T484 305L536 449Z" />
<glyph unicode="A" glyph-name="A" horiz-adv-x="744" d="M173 139Q153 84 164 59T242 33V8Q192 9 132 9T24 8V35Q51 35 68 40T97 58Q109 70 118 90T138 142L364 785H384L603 140Q613 109 624 89T648 58Q662 46 679 41T721 33V8Q696 8 665 8T600 9Q566 9 535 9T479
8V33Q511 33 529 37T553 53Q559 65 555 86T540 141L489 289H225L173 139ZM478 323L360 676L238 323H478Z" />
<glyph unicode="B" glyph-name="B" horiz-adv-x="627" d="M207 126Q207 96 211 79T228 52Q241 43 263 41T324 39Q411 39 462 78T514 197Q514 294 452 338T291 383H207V126ZM207 416H267Q346 416 398 452T451 580Q451 664 401 693T271 723Q261 723 240 722T207
721V416ZM43 32Q73 32 92 35T121 49Q132 60 136 78T140 127V641Q140 692 122 710T43 729V754Q67 753 99 753T164 752Q197 752 229 752T286 754Q327 754 368 746T442 716Q475 696 496 663T517 580Q517 541 503 513T466 464Q443 443 413 430T352 408Q398 407 440
393T515 353Q548 328 567 291T586 208Q586 120 516 64T315 8Q286 8 251 8T179 9Q142 9 107 9T43 8V32Z" />
<glyph unicode="C" glyph-name="C" horiz-adv-x="745" d="M699 563H681Q666 653 614 696T462 740Q392 740 333 715T230 643Q187 597 163 534T139 395Q139 311 165 243T238 125Q284 76 346 50T479 23Q569 23 616 75T678 206H701L675 41Q661 32 635 23T577 7Q545
0 514 -4T458 -9Q371 -9 300 19T176 100Q124 152 96 226T67 392Q67 475 99 544T187 665Q241 715 311 743T455 771Q515 771 574 756T689 719L699 563Z" />
<glyph unicode="D" glyph-name="D" horiz-adv-x="806" d="M134 636Q134 664 130 682T116 710Q105 721 86 725T35 729V754Q98 753 176 753T327 754Q424 754 500 723T629 640Q682 588 709 521T737 382Q737 311 711 244T633 124Q580 71 501 40T315 8Q285 8 249 8T175
9Q137 9 101 9T35 8V35Q66 35 85 38T116 53Q126 64 130 83T134 134V636ZM201 133Q201 102 206 84T225 55Q239 45 265 42T332 39Q419 39 482 67T585 142Q626 189 645 252T664 384Q664 463 639 525T568 632Q521 675 455 698T304 722Q286 722 271 722T242 720Q228
719 218 719T201 718V133Z" />
<glyph unicode="E" glyph-name="E" horiz-adv-x="627" d="M207 416H358Q402 416 419 435T437 508H461V271H437Q437 303 434 323T421 354Q412 366 397 370T357 374H207V138Q207 106 211 87T231 57Q245 46 270 43T337 39H406Q448 39 476 45T523 66Q542 81 555 106T581
171H607Q600 151 594 131T581 90Q575 69 570 49T561 8Q430 10 296 10T39 8V33Q102 33 121 54T140 138V633Q140 664 136 683T119 712Q108 721 89 724T39 728V754Q159 751 286 751T526 754V594H505Q501 635 494 660T469 700Q453 713 425 718T352 723H207V416Z" />
<glyph unicode="F" glyph-name="F" horiz-adv-x="568" d="M207 140Q207 104 210 83T224 51Q235 40 254 37T305 33V8Q284 8 248 8T172 9Q132 9 96 9T39 8V33Q72 33 92 36T123 52Q133 63 136 84T140 140V633Q140 664 136 682T120 710Q109 720 90 723T39 728V755Q159
752 282 752T525 755L531 604L505 605Q500 639 494 662T471 698Q456 712 428 717T353 723H207V416H353Q401 416 419 432T441 505H469Q467 485 467 456T466 393Q466 360 466 329T469 276H444Q441 331 424 352T355 374H207V140Z" />
<glyph unicode="G" glyph-name="G" horiz-adv-x="806" d="M722 565H696Q676 654 620 697T465 740Q387 740 327 709T225 628Q184 578 163 515T142 385Q142 315 163 250T228 134Q270 83 331 53T473 23Q546 23 585 42T637 70V227Q637 278 613 291T540 305V331Q566
330 598 330T662 329Q695 329 725 329T780 331V306Q746 306 725 292T703 227V91L720 74V49Q657 22 591 7T460 -9Q373 -9 301 21T177 104Q125 157 97 227T68 378Q68 462 97 534T179 658Q230 711 299 741T447 771Q515 771 575 757T703 718L722 565Z" />
<glyph unicode="H" glyph-name="H" horiz-adv-x="866" d="M670 420V634Q670 666 665 684T649 713Q638 723 619 725T571 729V755Q592 754 629 754T705 753Q745 753 780 753T834 755V729Q805 728 786 725T756 712Q744 702 740 684T736 634V141Q736 107 740 86T755
53Q766 41 785 37T834 33V8Q815 9 780 9T705 10Q666 10 629 10T571 8V33Q602 33 621 38T651 55Q662 67 666 87T670 141V378H197V141Q197 108 200 87T214 54Q224 42 243 38T294 33V8Q274 8 239 8T164 9Q124 9 88 9T32 8V33Q92 33 111 54T130 141V631Q130 663 126
682T110 711Q99 722 80 725T32 729V755Q51 753 86 753T162 752Q201 752 237 752T294 755V729Q265 728 246 725T216 711Q205 700 201 681T197 631V420H670Z" />
<glyph unicode="I" glyph-name="I" horiz-adv-x="327" d="M130 632Q130 664 126 683T110 712Q99 722 80 725T32 729V755Q51 753 86 753T162 753Q201 753 237 753T294 755V729Q265 728 246 725T216 712Q205 702 201 683T197 632V141Q197 75 216 54T294 33V8Q274
8 239 8T164 9Q124 9 88 9T32 8V33Q90 33 110 54T130 141V632Z" />
<glyph unicode="J" glyph-name="J" horiz-adv-x="387" d="M258 99Q258 -62 209 -141T63 -221Q24 -221 -8 -204T-42 -150Q-42 -132 -33 -122T-9 -108Q6 -106 19 -117T32 -144Q32 -163 43 -176T87 -189Q148 -189 169 -136T191 32V631Q191 663 187 682T171 711Q160
722 141 725T93 729V755Q112 753 147 753T223 753Q262 753 298 753T355 755V729Q326 728 308 725T278 712Q266 702 262 683T258 631V99Z" />
<glyph unicode="K" glyph-name="K" horiz-adv-x="745" d="M603 71Q614 56 630 48T662 37Q679 33 693 33T717 33V9Q703 9 683 9T642 10Q621 10 601 10T568 9L281 407L197 326V140Q197 72 215 53T284 33V8Q264 8 230 8T159 9Q121 9 87 9T32 8V33Q61 33 80 37T110
53Q121 64 125 85T130 140V630Q130 662 126 681T110 711Q99 721 80 724T32 729V755Q51 754 85 754T157 753Q194 753 227 753T279 755V729Q255 728 239 725T214 711Q204 700 201 681T197 630V363L486 643Q490 647 498 655T513 672Q521 680 526 689T532 704Q532 720
514 724T472 729V755Q490 754 517 753T575 752Q604 752 631 752T675 754V729Q657 729 641 725T604 707Q584 695 558 673T495 615L322 447L603 71Z" />
<glyph unicode="L" glyph-name="L" horiz-adv-x="627" d="M563 8Q513 9 445 10T304 11Q231 11 162 10T43 8V32Q73 32 92 36T121 53Q132 65 136 86T140 143V631Q140 663 136 682T120 712Q109 722 90 725T43 729V755Q61 753 97 753T172 752Q211 752 247 752T305
755V729Q275 728 256 725T226 711Q215 701 211 682T207 631V143Q207 109 214 89T241 57Q261 46 298 43T396 39Q440 39 470 44T521 64Q541 79 555 104T581 171H603L563 8Z" />
<glyph unicode="M" glyph-name="M" horiz-adv-x="1044" d="M524 101L824 754Q836 752 857 752T902 751Q926 751 947 752T980 755V729Q926 729 906 707T885 638L896 143Q897 110 902 89T920 55Q932 43 955 38T1016 33V8Q992 8 951 8T866 8Q822 8 782 8T720 8V33Q753
33 774 37T808 54Q820 66 825 87T830 143L823 667L517 1H502L201 648L191 140Q191 82 207 59T274 33V8Q250 8 218 8T152 9Q118 9 86 9T29 8V33Q62 34 85 38T124 53Q139 65 146 86T156 143L169 637Q169 687 145 708T74 729V755Q90 753 110 753T151 752Q171 752 189
752T218 755L524 101Z" />
<glyph unicode="N" glyph-name="N" horiz-adv-x="865" d="M744 -3H721L185 652V141Q185 104 189 83T206 50Q218 39 237 36T285 33V8Q259 8 227 8T161 9Q127 9 95 9T38 8V33Q69 33 91 36T126 51Q140 62 146 83T152 140V627Q152 686 120 707T20 729V754Q32 752 53
752T97 752Q120 752 140 752T172 754L711 110V628Q711 659 707 678T691 709Q680 720 660 724T609 729V755Q628 754 661 754T728 753Q763 753 795 753T845 755V729Q812 729 793 726T762 711Q751 700 748 681T744 628V-3Z" />
<glyph unicode="O" glyph-name="O" horiz-adv-x="865" d="M799 385Q799 311 772 240T696 114Q648 58 580 25T431 -9Q356 -9 290 22T174 106Q124 159 96 229T67 377Q67 451 93 521T168 648Q217 703 284 737T434 771Q508 771 574 740T691 655Q740 602 769 532T799
385ZM719 355Q719 416 701 484T646 609Q610 666 554 703T421 740Q359 740 309 715T221 646Q185 602 165 541T145 408Q145 346 163 278T217 153Q254 96 310 60T443 23Q509 23 560 47T647 116Q682 160 700 221T719 355Z" />
<glyph unicode="P" glyph-name="P" horiz-adv-x="567" d="M197 142Q197 106 201 85T216 52Q227 41 246 37T295 33V8Q267 8 233 8T163 9Q128 9 94 9T32 8V33Q61 33 80 37T110 52Q121 64 125 85T130 142V633Q130 664 126 682T112 712Q102 722 84 725T35 729V754Q57
753 90 753T158 753Q193 753 226 753T281 755Q392 755 461 698T530 543Q530 494 513 455T466 389Q437 361 399 345T319 328Q305 327 290 327T258 326Q241 326 226 326T197 327V142ZM197 366Q223 363 252 362T305 362Q374 364 416 410T458 536Q458 583 442 618T398
676Q371 700 336 711T263 723Q251 723 228 721T197 717V366Z" />
<glyph unicode="Q" glyph-name="Q" horiz-adv-x="865" d="M498 -2Q543 -70 624 -97T822 -115V-138Q762 -150 702 -149T589 -134Q535 -118 491 -87T416 -7Q343 -4 280 28T169 112Q121 165 94 233T67 377Q67 451 93 521T168 648Q217 703 284 737T434 771Q508 771
574 740T691 655Q740 602 769 532T799 385Q799 319 778 255T716 138Q677 85 622 48T498 -2ZM719 355Q719 416 701 484T646 609Q610 666 554 703T421 740Q359 740 309 715T221 646Q185 602 165 541T145 408Q145 346 163 278T217 153Q254 96 310 60T443 23Q509 23
560 47T647 116Q682 160 700 221T719 355Z" />
<glyph unicode="R" glyph-name="R" horiz-adv-x="745" d="M207 362V141Q207 108 210 88T224 55Q235 43 254 38T305 33V8Q285 9 249 9T174 10Q135 10 99 10T43 8V32Q72 32 90 35T120 50Q131 62 135 83T140 141V631Q140 662 136 681T120 711Q109 721 90 724T43 729V755Q68
754 106 754T185 753Q226 753 265 753T331 755Q399 755 443 736T514 688Q539 659 549 627T560 567Q560 531 548 501T514 446Q493 421 466 404T410 379Q429 346 454 308T507 232Q534 194 559 161T604 105Q628 75 657 54T724 33V8Q688 10 653 10T585 8Q556 45 524
91T460 184Q427 232 397 278T341 362H207ZM207 399Q219 396 244 396T284 395Q340 395 378 409T441 448Q465 471 475 500T486 560Q486 594 476 624T442 676Q419 698 382 710T291 723Q268 723 245 722T207 718V399Z" />
<glyph unicode="S" glyph-name="S" horiz-adv-x="520" d="M52 183H80Q87 153 96 124T121 73Q138 50 164 37T232 23Q309 23 358 64T407 167Q407 203 394 230T360 279Q338 300 310 317T250 351Q218 367 187 387T130 432Q105 458 90 490T74 564Q74 617 91 656T138
720Q168 746 208 758T294 771Q309 771 323 770T351 767Q365 765 379 763T411 758L428 620H402Q392 680 367 710T279 740Q201 740 163 699T124 600Q124 564 140 536T181 484Q207 461 239 443T304 409Q336 392 365 374T418 332Q441 308 455 278T469 208Q469 154 448
114T392 45Q357 18 314 5T226 -9Q185 -9 147 -1T76 22L52 183Z" />
<glyph unicode="T" glyph-name="T" horiz-adv-x="685" d="M654 617H627Q626 646 623 665T608 695Q596 707 575 711T518 716H376V142Q376 108 380 87T395 54Q406 42 425 38T474 33V8Q448 8 414 8T343 9Q306 9 272 9T212 8V33Q269 33 289 54T309 142V716H187Q150
716 127 712T88 696Q73 685 65 666T49 617H22L33 755Q98 752 180 751T347 750Q433 750 515 751T663 755L654 617Z" />
<glyph unicode="U" glyph-name="U" horiz-adv-x="745" d="M729 729Q703 729 687 726T661 712Q651 702 648 683T645 632V246Q645 190 628 143T578 63Q545 29 496 10T383 -9Q260 -9 189 55T115 258V629Q115 661 111 680T94 710Q83 721 64 724T17 729V755Q36 754
71 754T147 753Q186 753 222 753T280 755V729Q250 728 231 725T201 710Q190 700 186 681T181 629V286Q181 155 236 94T411 33Q455 33 492 48T556 91Q583 119 598 158T613 246V629Q613 662 610 681T597 711Q587 721 570 724T523 728V755Q539 754 568 754T629 753Q659
753 687 753T729 755V729Z" />
<glyph unicode="V" glyph-name="V" horiz-adv-x="746" d="M133 621Q120 654 109 675T85 708Q72 720 55 724T10 729V755Q29 753 63 753T134 753Q171 753 205 753T260 755V728Q229 727 213 723T190 708Q185 696 189 676T207 623L404 95L605 633Q616 664 618 682T615
711Q608 721 592 724T548 728V755Q567 754 593 753T647 752Q674 752 698 752T736 754V729Q716 729 703 725T679 711Q668 700 659 680T637 628L396 -9H380L133 621Z" />
<glyph unicode="W" glyph-name="W" horiz-adv-x="1044" d="M402 -9H385L118 643Q108 665 100 681T81 708Q69 719 52 724T6 729V755Q23 753 56 753T125 753Q160 753 192 753T240 755V729Q193 729 181 713T190 643L411 88L542 370L426 641Q405 689 385 709T314 729V755Q333
753 365 753T431 752Q464 752 493 752T536 755V729Q493 729 484 713T499 640L578 449L665 635Q689 690 680 709T613 729V755Q628 753 653 753T707 753Q734 753 758 753T794 755V729Q773 729 759 721T734 699Q723 686 715 670T700 638L595 409L724 96L923 629Q946
693 934 710T870 729V755Q885 753 909 753T958 753Q984 753 1005 753T1038 755V729Q1018 729 1007 724T988 706Q979 695 973 676T956 630L720 -9H703L559 330L402 -9Z" />
<glyph unicode="X" glyph-name="X" horiz-adv-x="806" d="M222 131Q174 68 179 51T252 33V8Q204 9 141 9T29 8V33Q49 33 67 37T103 53Q121 64 141 84T187 138L369 374L164 642Q130 687 104 708T34 729V755Q59 753 92 753T160 752Q194 752 226 753T282 755V729Q228
728 214 713T233 655L411 428L572 639Q593 667 599 684T599 712Q593 721 576 725T535 729V755Q556 753 585 753T645 753Q675 753 704 753T755 755V729Q726 729 706 723T669 704Q652 692 637 674T604 633L429 404L648 123Q684 75 711 56T777 33V8Q723 10 658 10T548
8V33Q596 30 605 43T583 96L388 350L222 131Z" />
<glyph unicode="Y" glyph-name="Y" horiz-adv-x="745" d="M421 130Q421 72 440 53T519 33V8Q490 9 456 9T386 10Q351 10 317 10T257 8V33Q314 33 334 51T354 130V367L143 664Q127 685 115 698T89 717Q76 724 62 726T30 728V754Q52 752 83 752T147 752Q180 752
212 753T271 755V729Q228 729 215 715T228 664L409 413L596 667Q621 700 611 715T543 729V755Q585 753 631 753T716 755V729Q699 728 688 724T667 712Q658 704 648 691T625 660L421 383V130Z" />
<glyph unicode="Z" glyph-name="Z" horiz-adv-x="745" d="M669 8Q610 9 522 10T342 11Q249 11 164 10T26 8L575 713H242Q201 713 176 707T135 687Q119 673 110 652T91 600H62L91 755Q155 752 234 751T394 750Q475 750 552 751T690 755L143 50H441Q504 50 545 56T613
80Q640 96 657 123T692 191H718L669 8Z" />
<glyph unicode="[" glyph-name="bracketleft" horiz-adv-x="374" d="M359 831V794H229Q215 794 207 793T194 787T189 774T188 754V8Q188 -19 194 -28T233 -37H359V-76H126V831H359Z" />
<glyph unicode="\" glyph-name="backslash" horiz-adv-x="1024" d="M266 753V730Q238 729 218 726T188 712T176 683T184 633L248 442H469L503 537L457 657Q450 678 442 691T421 712T391 724T349 729V753H609V730Q580 730 560 727T528 713T517 684T527 632L593
442H808L861 619Q870 645 873 665T872 700T850 721T800 730V753H1019V730Q1000 728 984 725T955 714T931 695T915 662L847 442H1012V397H833L707 -9H695L554 397H492L348 -9H336L202 397H12V442H187L124 634Q116 661 106 679T83 707T51 723T7 729V753H266ZM263
397L355 117L454 397H263ZM609 397L708 111L794 397H609ZM539 442L523 486L508 442H539Z" />
<glyph unicode="]" glyph-name="bracketright" horiz-adv-x="374" d="M263 -76H30V-37H156Q188 -37 194 -28T201 8V754Q201 779 195 786T160 794H30V831H263V-76Z" />
<glyph unicode="^" glyph-name="asciicircum" horiz-adv-x="514" d="M466 669L257 844L49 671L17 699L238 900H278L497 698L466 669Z" />
<glyph unicode="_" glyph-name="underscore" horiz-adv-x="514" d="M0 -144V-101H514V-144H0Z" />
<glyph unicode="`" glyph-name="grave" horiz-adv-x="222" d="M184 631L164 620L42 783Q34 796 36 811T50 834Q66 844 82 838T104 818L184 631Z" />
<glyph unicode="a" glyph-name="a" horiz-adv-x="515" d="M327 252Q217 219 163 191T108 118Q108 72 131 56T197 39Q234 39 268 59T327 106V252ZM478 46Q456 25 432 8T382 -9Q358 -9 344 13T327 77Q290 38 245 15T151 -9Q106 -9 75 20T46 95Q47 132 68 158T128
205Q165 225 216 242T327 278V347Q327 391 307 419T227 448Q185 448 153 424T119 364Q119 340 110 329T86 318Q74 318 68 328T61 354Q61 381 86 406T169 461Q202 479 223 487T269 495Q317 495 352 466T388 382V109Q388 53 412 45T475 63L478 46Z" />
<glyph unicode="b" glyph-name="b" horiz-adv-x="575" d="M174 818Q171 791 170 761T169 706V403Q185 418 206 434T251 464Q274 478 297 487T341 496Q383 496 418 477T477 427Q502 396 515 356T529 272Q529 215 511 164T460 74Q427 36 383 14T285 -9Q237 -9 196
5T133 33L109 5L91 13Q98 60 103 108T108 206V668Q108 694 106 709T95 734Q88 742 75 744T40 746V766Q72 772 102 784T156 818H174ZM169 127Q169 80 198 51T290 21Q337 21 371 39T426 87Q448 117 458 153T468 227Q468 321 427 383T314 445Q277 445 237 420T169
367V127Z" />
<glyph unicode="c" glyph-name="c" horiz-adv-x="475" d="M444 102Q404 54 353 23T244 -9Q204 -9 168 10T103 61Q75 92 59 133T42 217Q42 275 61 326T115 415Q149 452 195 474T297 496Q316 496 339 492T382 479Q402 471 415 457T429 423Q429 405 422 393T404 381Q395
381 385 388T360 420Q350 438 326 451T257 464Q218 464 189 445T140 395Q121 366 112 331T102 266Q102 224 112 185T146 117Q169 87 204 70T287 52Q333 52 370 71T431 113L444 102Z" />
<glyph unicode="d" glyph-name="d" horiz-adv-x="575" d="M413 364Q413 393 400 412T369 443Q350 454 328 459T287 464Q255 464 224 451T168 410Q143 383 128 343T113 248Q113 160 158 103T286 46Q299 46 321 51T363 67Q383 77 398 90T413 118V364ZM413 668Q413
694 411 709T400 734Q393 742 380 744T345 746V766Q377 772 407 784T461 818H479Q476 791 475 761T474 706V99Q474 65 491 59T545 54V34Q526 28 491 14T425 -13Q419 -16 416 -14T413 -5V70Q372 31 329 12T243 -8Q199 -8 163 11T100 64Q74 96 60 138T46 226Q46 280
66 329T121 415Q155 452 201 474T299 496Q323 496 349 491T413 468V668Z" />
<glyph unicode="e" glyph-name="e" horiz-adv-x="455" d="M102 304Q99 289 99 272T101 228Q106 152 148 101T263 49Q313 49 349 68T410 117L424 108Q396 58 349 25T242 -9Q199 -9 163 9T99 59Q72 91 57 134T41 228Q41 291 57 341T100 425Q128 460 165 478T246
496Q276 496 306 486T360 456Q384 435 399 404T415 329Q415 317 412 312T397 304H102ZM316 336Q334 336 342 341T350 362Q350 378 343 396T322 429Q308 444 288 454T242 464Q185 464 151 429T105 336H316Z" />
<glyph unicode="f" glyph-name="f" horiz-adv-x="336" d="M319 468V424H183V101Q183 57 206 45T282 33V8Q256 9 224 9T157 10Q124 10 92 10T36 8V33Q81 33 101 49T122 103V424H46V444Q72 447 97 460T122 509Q122 536 127 570T143 638Q153 671 168 701T205 752Q244
792 278 808T325 824Q348 824 361 814T374 782Q374 764 360 755T334 746Q326 746 321 747T309 751Q303 753 293 755T267 757Q244 757 229 744T202 712Q192 693 188 672T183 635V468H319Z" />
<glyph unicode="g" glyph-name="g" horiz-adv-x="515" d="M487 421L382 425Q392 413 400 386T409 340Q409 261 358 219T222 176Q210 176 196 176T166 181Q154 172 146 166T132 153Q126 147 124 140T122 124Q122 118 123 109T132 90Q140 81 157 75T206 68Q225 68
243 68T279 67Q297 67 313 67T346 67Q409 67 449 39T489 -50Q489 -87 468 -120T410 -180Q374 -206 324 -221T217 -237Q169 -237 133 -225T73 -195Q49 -177 38 -155T26 -110Q26 -58 62 -26T143 19Q89 31 72 66T65 139Q86 151 108 166T139 191Q102 210 76 243T49
332Q49 402 97 449T239 496Q260 496 285 492T330 482Q351 474 376 469T437 463Q444 463 449 463T459 463Q464 463 470 463T487 466V421ZM80 -95Q80 -149 126 -176T233 -204Q274 -204 310 -195T375 -170Q402 -154 418 -132T434 -82Q434 -57 421 -40T385 -12Q362
-1 333 3T270 8Q177 8 129 -20T80 -95ZM118 343Q118 286 146 244T230 202Q294 202 320 240T347 329Q347 353 340 378T319 424Q305 444 282 457T227 470Q198 470 177 458T143 428Q130 409 124 387T118 343Z" />
<glyph unicode="h" glyph-name="h" horiz-adv-x="575" d="M101 668Q101 694 99 709T89 734Q82 742 69 744T34 746V766Q66 772 96 784T150 818H168Q165 791 164 761T163 706V386Q178 403 197 422T239 458Q262 474 287 485T340 496Q402 496 437 450T472 335V111Q472
88 473 73T482 49Q489 40 504 37T545 33V8Q531 8 519 8T494 9Q482 9 469 9T441 10Q426 10 414 10T389 9Q377 9 365 9T338 8V33Q360 33 374 35T397 45Q405 53 408 68T411 111V273Q411 322 406 353T387 404Q375 423 355 430T304 438Q267 438 227 411T163 350V111Q163
64 175 49T236 33V8Q221 8 209 8T185 9Q173 9 161 9T134 10Q119 10 107 10T82 9Q69 9 57 9T30 8V33Q75 33 88 48T101 111V668Z" />
<glyph unicode="i" glyph-name="i" horiz-adv-x="276" d="M169 100Q169 57 183 45T241 33V8Q227 8 215 8T191 9Q179 9 167 9T140 10Q125 10 113 10T88 9Q75 9 63 9T36 8V33Q80 33 94 45T108 100V345Q108 372 106 388T98 413Q92 422 80 425T47 428V449Q79 454 105
464T155 495H173Q170 468 170 438T169 383V100ZM87 714Q87 734 101 749T136 764Q156 764 171 749T186 714Q186 694 171 680T136 665Q116 665 102 679T87 714Z" />
<glyph unicode="j" glyph-name="j" horiz-adv-x="276" d="M108 345Q108 372 106 388T98 413Q92 422 80 425T47 428V449Q79 454 105 464T155 495H173Q170 468 170 438T169 383V-24Q169 -74 157 -109T125 -168Q105 -193 79 -207T23 -231L16 -213Q70 -186 89 -146T108
-35V345ZM89 714Q89 734 103 749T138 764Q158 764 173 749T188 714Q188 694 173 680T138 665Q118 665 104 679T89 714Z" />
<glyph unicode="k" glyph-name="k" horiz-adv-x="575" d="M329 381Q375 420 374 437T327 454V481Q341 479 367 479T423 478Q452 478 477 478T516 481V454Q495 454 479 449T447 436Q431 428 417 418T387 395L244 277L424 80Q455 46 484 39T545 31V8Q533 8 515 8T477
9Q458 9 440 9T411 8Q406 13 402 18T392 29Q388 34 383 39T374 51L203 243L163 210V110Q163 59 177 46T236 33V8Q220 9 192 9T133 10Q102 10 74 10T30 8V33Q74 33 87 46T101 110V668Q101 694 99 709T89 734Q82 742 69 744T34 746V766Q66 772 96 784T150 818H168Q165
791 164 761T163 706V242L329 381Z" />
<glyph unicode="l" glyph-name="l" horiz-adv-x="276" d="M108 668Q108 694 106 709T95 734Q88 742 75 744T40 746V766Q72 772 102 784T156 818H174Q171 791 170 761T169 706V110Q169 68 183 51T241 33V8Q219 8 192 8T137 9Q109 9 83 9T36 8V33Q81 33 94 48T108 110V668Z" />
<glyph unicode="m" glyph-name="m" horiz-adv-x="864" d="M167 495Q164 468 164 441T163 402Q184 417 207 434T255 464Q280 478 305 487T355 496Q391 496 419 476T462 404Q504 437 553 466T652 496Q682 496 703 484T739 450Q753 429 760 402T767 345V107Q767 65
780 49T836 33V8Q795 9 738 9T636 8V33Q679 33 692 49T706 107V308Q706 335 703 359T690 402Q680 420 661 431T607 442Q588 442 568 435T527 416Q508 406 492 394T465 374V107Q465 65 479 49T538 33V8Q516 8 490 8T436 9Q408 9 382 9T334 8V33Q376 33 389 49T403
107V308Q403 335 401 359T388 402Q378 420 359 431T306 442Q291 442 273 436T234 419Q214 408 196 396T163 370V107Q163 65 176 49T233 33V8Q190 9 132 9T28 8V33Q73 33 87 49T101 107V345Q101 372 100 388T92 413Q86 422 74 425T41 428V449Q73 454 99 464T148
495H167V495Z" />
<glyph unicode="n" glyph-name="n" horiz-adv-x="575" d="M167 495Q164 468 164 442T163 403Q208 436 260 466T360 496Q420 496 446 453T472 347V110Q472 68 486 51T545 33V8Q531 8 519 8T494 9Q482 9 470 9T443 10Q428 10 416 10T391 9Q379 9 367 9T340 8V33Q383
33 397 50T411 110V348Q411 398 388 420T312 442Q297 441 277 435T237 419Q216 409 197 397T163 373V110Q163 68 177 51T236 33V8Q221 8 209 8T185 9Q173 9 161 9T134 10Q119 10 107 10T82 9Q69 9 57 9T30 8V33Q74 33 87 50T101 110V345Q101 372 100 388T92 413Q86
422 74 425T41 428V449Q73 454 99 464T148 495H167V495Z" />
<glyph unicode="o" glyph-name="o" horiz-adv-x="575" d="M529 246Q529 193 510 147T459 66Q427 31 385 11T294 -9Q244 -9 199 8T120 58Q86 90 66 136T46 241Q46 293 63 339T112 421Q144 455 187 475T281 496Q333 496 378 479T457 428Q490 396 509 350T529 246ZM455
235Q455 272 446 313T417 389Q396 424 364 446T284 469Q239 469 208 449T157 398Q138 366 130 328T121 252Q121 217 130 177T159 101Q179 66 211 43T292 19Q337 19 368 39T418 91Q438 122 446 160T455 235Z" />
<glyph unicode="p" glyph-name="p" horiz-adv-x="575" d="M173 495Q170 468 170 444T169 411Q184 424 205 439T251 467Q274 479 298 487T344 496Q384 496 418 477T477 425Q501 393 515 352T529 269Q529 213 510 163T458 74Q424 35 378 13T276 -9Q256 -9 227 -3T169
24V-134Q169 -156 172 -171T186 -195Q196 -204 215 -208T268 -212V-237Q250 -235 216 -235T143 -234Q106 -234 72 -234T22 -237V-212Q75 -212 91 -197T108 -136V345Q108 372 106 388T98 413Q92 422 80 425T47 428V449Q79 454 105 464T155 495H173ZM169 102Q174
92 183 79T208 52Q223 40 244 32T296 23Q339 23 371 42T425 92Q447 123 457 160T468 233Q468 276 459 314T430 383Q411 412 381 429T311 446Q295 446 275 439T234 421Q214 410 197 399T169 378V102Z" />
<glyph unicode="q" glyph-name="q" horiz-adv-x="575" d="M417 60Q378 26 334 9T251 -9Q204 -9 167 9T102 58Q75 89 61 130T46 216Q46 276 68 327T126 416Q162 453 206 474T296 496Q326 496 358 486T427 455L464 502H481Q479 472 479 444T478 396V-137Q478 -179
490 -195T549 -212V-236Q526 -234 497 -234T438 -234Q408 -234 381 -234T335 -237V-212Q385 -212 401 -197T417 -136V60ZM417 367Q417 379 408 395T382 427Q365 442 341 453T285 464Q262 464 232 454T176 419Q149 395 131 354T112 250Q112 207 122 170T155 104Q178
77 212 61T296 45Q324 45 357 55T417 81V367Z" />
<glyph unicode="r" glyph-name="r" horiz-adv-x="395" d="M169 386Q184 406 203 425T241 461Q261 476 280 485T316 495Q340 495 358 483T376 448Q376 424 362 412T334 399Q322 399 315 402T301 411Q294 416 286 420T263 424Q254 424 238 415T207 392Q191 378 180
360T169 322V110Q169 86 172 71T188 47Q200 39 222 36T281 33V8Q258 9 224 9T154 10Q118 10 84 10T27 8V33Q78 33 93 46T108 110V345Q108 372 106 388T98 413Q92 422 80 425T47 428V449Q79 454 105 464T155 495H173Q170 468 170 439T169 386Z" />
<glyph unicode="s" glyph-name="s" horiz-adv-x="395" d="M70 151Q73 130 79 107T99 65Q112 46 133 34T189 22Q246 22 267 46T289 101Q289 124 280 140T255 170Q240 183 220 193T179 215Q128 242 91 276T54 362Q54 388 65 412T96 455Q116 473 144 484T209 496Q233
496 262 490T319 468L327 358H306Q299 409 274 436T198 464Q159 464 130 445T101 392Q101 368 112 351T141 319Q159 306 182 295T229 274Q252 263 274 251T313 222Q329 206 339 185T350 135Q350 108 340 82T309 36Q288 15 256 3T181 -9Q151 -9 117 0T59 24L47 151H70Z"
/>
<glyph unicode="t" glyph-name="t" horiz-adv-x="336" d="M154 139Q154 81 171 60T217 39Q226 39 239 42T266 50Q280 55 291 60T308 70L317 56Q288 26 256 9T186 -9Q142 -9 117 16T92 89V424H22V443Q72 457 97 492T133 590H154V468H314V424H154V139Z" />
<glyph unicode="u" glyph-name="u" horiz-adv-x="575" d="M410 88Q362 49 310 20T208 -9Q189 -9 170 -3T135 20Q120 35 111 59T101 118V394Q101 428 88 439T37 453V472Q51 472 65 473T95 475Q111 476 128 477T166 481Q164 461 164 435T163 394V172Q163 94 183
69T249 44Q287 44 331 64T411 117V394Q411 428 392 439T336 453V472Q350 472 366 473T399 475Q416 476 435 477T475 481Q473 461 473 435T472 394V83Q472 51 487 45T542 41V22Q532 20 518 17T487 8Q470 4 454 0T422 -9Q416 -11 413 -9T410 -1V88Z" />
<glyph unicode="v" glyph-name="v" horiz-adv-x="515" d="M103 370Q91 400 83 417T65 442Q57 450 47 452T22 454V481Q35 479 61 479T117 478Q147 478 174 478T216 481V454Q167 454 157 439T167 370L270 92L383 371Q404 423 399 438T343 453V481Q379 478 424 478T494
481V454Q464 454 449 438T414 371L260 -9H249L103 370Z" />
<glyph unicode="w" glyph-name="w" horiz-adv-x="814" d="M97 370Q81 420 63 437T15 454V481Q29 479 54 479T108 479Q135 479 161 479T205 481V454Q167 454 155 440T153 393L272 84L385 374Q392 403 377 427T314 453V481Q358 478 414 478T513 481V453Q470 451
460 436T461 379L572 84L689 381Q707 422 696 437T638 454V481Q678 478 719 478T799 481V454Q763 454 747 433T716 376L563 -7H549L408 356L263 -7H249L97 370Z" />
<glyph unicode="x" glyph-name="x" horiz-adv-x="575" d="M166 75Q146 50 152 42T201 33V8Q160 10 112 10T22 8V33Q60 33 85 41T143 89L265 232L128 406Q110 427 89 439T41 453V481Q86 479 139 479T242 481V454Q205 454 194 443T202 405L303 277L411 403Q429 429
420 441T378 454V481Q421 478 464 478T554 481V454Q516 454 490 441T440 398L319 256L459 80Q479 53 498 43T554 33V8Q538 8 525 8T498 9Q485 9 472 9T444 10Q429 10 417 10T393 9Q381 9 369 9T342 8V33Q383 33 394 43T388 76L282 211L166 75Z" />
<glyph unicode="y" glyph-name="y" horiz-adv-x="515" d="M236 40Q224 69 203 121T160 228Q137 283 118 332T90 405Q81 430 65 442T19 455V481Q34 479 62 479T121 479Q151 479 177 479T216 481V453Q177 451 164 439T160 398L268 119L382 392Q394 423 383 438T339
454V481Q351 479 373 479T419 478Q443 478 464 478T496 481V454Q461 454 445 438T414 384L171 -184Q158 -214 136 -224T89 -234Q72 -234 57 -224T41 -192Q41 -170 57 -162T88 -156Q92 -156 97 -158T107 -164Q112 -166 117 -168T126 -172Q135 -172 142 -169T154
-155L236 40V40Z" />
<glyph unicode="z" glyph-name="z" horiz-adv-x="455" d="M272 39Q299 39 318 42T353 57Q367 68 379 88T403 143H426L394 8Q309 10 209 10T25 8V18L319 448H197Q177 448 158 447T123 438Q106 430 93 414T71 368H49L63 482Q98 480 142 479T233 478Q279 478 325
478T411 481L111 39H272Z" />
<glyph unicode="{" glyph-name="braceleft" horiz-adv-x="374" d="M267 504Q267 449 247 422T189 380Q210 370 224 359T248 333T262 298T267 249V31Q267 4 271 -15T287 -47T318 -66T366 -75V-93Q322 -93 293 -86T245 -61T218 -15T210 56V259Q210 352 123 374V385Q165
394 187 422T209 496V718Q209 789 250 819T369 849L368 829Q312 828 290 805T267 728V504Z" />
<glyph unicode="|" glyph-name="bar" horiz-adv-x="514" d="M229 -51V823H288V-51H229Z" />
<glyph unicode="}" glyph-name="braceright" horiz-adv-x="374" d="M121 249Q121 277 125 297T139 333T163 359T199 380Q163 394 142 421T121 504V728Q121 782 99 805T20 829L19 849Q97 849 138 819T179 718V496Q179 451 201 423T265 385V374Q178 352 178 259V56Q178
14 170 -15T144 -61T96 -85T23 -93V-75Q80 -71 100 -47T121 31V249Z" />
<glyph unicode="~" glyph-name="asciitilde" horiz-adv-x="737" d="M666 445Q657 411 644 383T610 333T563 300T501 288Q460 288 425 308T359 352T301 397T248 417Q203 417 165 385T92 293L72 302Q84 333 101 362T140 413T190 448T252 463Q290 463 324 443T391
400T453 356T510 336Q555 338 591 368T645 456L666 445Z" />
<glyph unicode="&#xa1;" glyph-name="exclamdown" horiz-adv-x="973" d="M542 39Q542 22 539 6T530 -24T513 -46T489 -55Q475 -55 465 -47T448 -25T438 6T435 41Q435 89 442 140T455 242Q459 293 461 347T465 447T467 522T468 556H505Q505 553 505 523T506 447T511
349T520 244Q526 193 534 141T542 39ZM549 722Q549 698 531 680T487 662Q461 662 443 679T425 722Q425 748 443 765T487 782Q514 782 531 765T549 722Z" />
<glyph unicode="&#xa4;" glyph-name="currency" horiz-adv-x="973" d="M873 756L907 721L765 603Q801 561 821 507T841 390Q841 326 820 270T761 170L905 40L873 8L732 137Q685 91 623 65T487 38Q415 38 353 63T246 133L101 5L69 40L213 169Q175 213 154 269T133
390Q133 452 152 505T206 601L72 720L104 756L236 639Q283 687 347 715T487 743Q562 743 626 715T738 638L873 756ZM802 390Q802 455 777 512T710 612T610 680T487 705Q421 705 364 680T265 613T198 513T173 390Q173 325 197 268T264 169T364 102T487 77Q552 77
609 101T709 168T777 268T802 390Z" />
<glyph unicode="&#xa7;" glyph-name="section" horiz-adv-x="973" d="M528 514Q552 489 575 464T616 412T642 357T649 299Q645 260 617 241T552 217Q556 213 573 191T604 133T621 54T600 -39Q581 -75 550 -92T485 -110T416 -96T356 -51Q339 -30 336 -11T337 23Q345
37 358 42T388 39Q408 28 409 10T409 -28V-37Q412 -45 418 -45Q420 -50 433 -58T464 -69T502 -66T541 -36Q557 -15 560 14T555 73T527 134T482 187Q449 215 416 247T358 313T325 385T334 460Q341 477 355 487T384 504T413 513T437 517Q429 526 416 543T388 583T363
630T350 682Q347 722 355 752T381 803T424 833T480 845Q521 847 552 831T601 791Q618 770 621 747T605 711Q588 700 575 704T553 719T541 747T540 776Q542 786 537 793T522 806T499 813T472 814Q444 810 421 788T397 718Q397 695 405 674T425 634T452 597T481 564Q492
552 504 540T528 514ZM551 245Q580 250 590 266T600 303T588 346T565 385Q537 425 504 451T445 481Q411 487 394 474T374 437T381 386T411 336Q455 282 491 261T551 245Z" />
<glyph unicode="&#xa8;" glyph-name="dieresis" horiz-adv-x="973" d="M643 889Q669 889 689 869T710 822Q710 809 704 797T689 776T667 762T642 756Q615 756 596 777T577 824Q577 837 582 849T597 870T618 884T643 889ZM337 889Q363 889 383 869T403 822Q403
809 398 797T383 776T361 762T336 756Q308 756 289 777T269 824Q269 850 290 869T337 889Z" />
<glyph unicode="&#xa9;" glyph-name="uni0083" horiz-adv-x="973" d="M487 6Q561 6 625 33T738 108T814 222T842 368Q842 447 814 511T738 622T626 693T487 719Q413 719 348 694T235 622T160 512T132 368Q132 289 159 223T235 108T348 33T487 6ZM487 758Q568 758
640 730T765 649T850 526T881 368Q881 281 850 208T766 81T640 -3T487 -33Q406 -33 334 -3T208 80T123 207T92 368Q92 454 123 525T208 649T334 729T487 758ZM677 481H657Q648 539 615 566T520 594Q430 594 376 534Q349 505 334 466T318 378Q318 324 335 282T381
207Q440 145 531 145Q588 145 617 178T655 262H680L662 147Q651 140 634 135T595 124Q575 119 555 117T517 114Q461 114 415 132T333 186V185Q298 220 280 268T262 376Q262 430 283 476T341 555Q377 587 422 605T516 624Q556 624 595 614T671 589L677 481Z" />
<glyph unicode="&#xaa;" glyph-name="ordfeminine" horiz-adv-x="973" d="M141 40H832V11H141V40ZM577 506Q529 495 491 483T430 460Q405 450 383 436T346 402T324 361T322 314Q330 271 361 252T438 239Q461 242 489 253T543 282Q561 293 569 314T577 354V506ZM578
278Q541 232 490 214T379 196Q354 196 333 204T295 225T268 255T255 291Q251 319 257 343T275 386T305 421T342 447Q383 471 442 492T577 531V585Q577 635 551 665T459 696Q442 696 416 690T369 670Q361 664 356 653T353 632Q356 620 355 607T348 583T331 566T304
562Q289 564 283 576T278 604T292 640T327 678Q350 698 389 709T472 720Q526 720 563 702T620 652Q631 635 636 604T641 543V302Q641 254 658 243T716 267L729 249Q715 232 694 216T643 200Q613 200 595 219T578 278Z" />
<glyph unicode="&#xab;" glyph-name="uniE217" horiz-adv-x="973" d="M758 -62L735 -92L123 370L735 832L758 802L192 370L758 -62ZM849 12L826 -21L314 370L826 760L850 729L384 370L849 12Z" />
<glyph unicode="&#xad;" glyph-name="uni00AD" horiz-adv-x="973" d="M327 253V300H645V253H327Z" />
<glyph unicode="&#xae;" glyph-name="registered" horiz-adv-x="973" d="M487 6Q561 6 625 33T738 108T814 222T842 368Q842 447 814 511T738 622T626 693T487 719Q413 719 348 694T235 622T160 512T132 368Q132 289 159 223T235 108T348 33T487 6ZM487 758Q568
758 640 730T765 649T850 526T881 368Q881 281 850 208T766 81T640 -3T487 -33Q406 -33 334 -3T208 80T123 207T92 368Q92 454 123 525T208 649T334 729T487 758ZM407 400Q407 391 409 389T425 387H469Q527 387 556 413Q588 437 588 487Q588 536 566 564Q540 592
480 592H428Q414 592 411 588T407 570V400ZM705 129H626Q621 129 616 130T604 143Q596 164 584 191T558 247Q545 276 533 302T510 346Q505 354 498 360T473 366H423Q412 366 410 362T407 349V209Q407 192 408 181T415 164Q426 153 460 153V129H310V153Q341 153
355 164Q360 169 361 180T362 209V536Q362 554 361 565T355 582Q348 587 339 588T310 590V614H511Q540 614 562 605T600 581Q635 546 635 493Q635 451 609 419Q581 385 535 376Q543 369 552 359T573 328L640 203Q655 172 668 164Q682 154 705 154V129Z" />
<glyph unicode="&#xb0;" glyph-name="degree" horiz-adv-x="973" d="M231 836Q255 836 276 827T314 801T339 764T349 718Q349 694 340 673T314 635T277 610T231 600Q207 600 186 609T148 635T123 672T113 718Q113 742 122 763T148 801T185 826T231 836ZM231 646Q261
646 282 667T303 718Q303 748 282 769T231 790Q201 790 180 769T159 718Q159 688 180 667T231 646Z" />
<glyph unicode="&#xb1;" glyph-name="plusminus" horiz-adv-x="973" d="M513 134H460V398H180V449H460V702H513V449H784V398H513V134ZM180 53H784V4H180V53Z" />
<glyph unicode="&#xb2;" glyph-name="twosuperior" horiz-adv-x="973" d="M19 568Q34 583 51 601T85 637T114 670T134 694Q149 713 163 737T177 783Q177 804 165 823T119 842Q95 842 78 823T49 772L19 777Q23 795 31 812T53 842T85 864T128 872Q169 872 196 847T223
785Q223 759 207 732T177 687Q153 658 129 630T82 580H165Q175 580 181 581T192 585T201 594T213 612H243L217 551H19V568Z" />
<glyph unicode="&#xb3;" glyph-name="threesuperior" horiz-adv-x="973" d="M158 731Q190 723 208 702T227 653Q227 608 199 583T127 549Q109 546 92 547T60 552T36 562T27 577Q27 584 33 591T50 598Q64 598 74 594T91 585Q102 579 107 577T121 577Q141 578 160
594T180 638Q182 678 159 694T78 703L79 726Q118 734 139 755T161 802Q161 822 150 833T120 844Q98 844 83 830T57 794L26 795Q37 831 64 853T128 876Q162 876 186 857T211 807Q211 769 158 731Z" />
<glyph unicode="&#xb4;" glyph-name="acute" horiz-adv-x="973" d="M602 940Q613 927 611 913T599 891Q588 882 564 869T510 842T451 814T397 790Q382 782 381 788T390 804Q406 819 429 841T474 884T515 921T541 942Q555 951 572 953T602 940Z" />
<glyph unicode="&#xb6;" glyph-name="paragraph" horiz-adv-x="973" d="M727 -103V819H785V-103H727ZM527 -103L525 392L443 391Q385 390 339 405T259 447T209 515T191 604Q191 699 252 754T427 817Q453 819 468 819T499 820T533 819T585 818V-103H527ZM525 767H472Q371
767 313 725T254 606Q254 569 269 539T311 488T374 457T455 449L525 451V767Z" />
<glyph unicode="&#xb7;" glyph-name="middot" horiz-adv-x="296" d="M144 455Q171 455 191 436T211 388Q211 360 191 341T144 322Q117 322 98 341T78 388Q78 416 97 435T144 455Z" />
<glyph unicode="&#xb8;" glyph-name="cedilla" horiz-adv-x="973" d="M526 -47Q550 -64 560 -81T570 -120Q570 -140 560 -159T533 -192T494 -214T447 -223Q437 -223 423 -221T381 -207L386 -188Q403 -192 412 -192T432 -193Q458 -193 475 -178T493 -140Q493 -114
475 -100T424 -85L479 33H565L526 -47V-47Z" />
<glyph unicode="&#xb9;" glyph-name="onesuperior" horiz-adv-x="973" d="M156 883V609Q156 586 165 581T206 574V552H61V575Q75 576 85 576T101 580T109 589T112 607V799Q112 811 112 816T106 823T89 820T57 807V834L156 883Z" />
<glyph unicode="&#xba;" glyph-name="ordmasculine" horiz-adv-x="973" d="M483 728Q535 728 578 708T653 652T702 568T720 465Q720 410 703 362T654 277T579 221T483 200Q430 200 387 220T312 276T263 360T246 463Q246 518 263 566T311 650T386 707T483 728ZM141
40H832V11H141V40ZM483 230Q528 230 560 249T614 301T645 375T655 465Q655 511 645 553T613 628T560 680T483 699Q438 699 406 680T352 629T321 554T311 465Q311 418 321 376T353 301T406 250T483 230Z" />
<glyph unicode="&#xbb;" glyph-name="uniE218" horiz-adv-x="973" d="M215 802L238 832L850 370L238 -92L215 -62L781 370L215 802ZM123 729L146 760L659 370L146 -21L124 12L589 370L123 729Z" />
<glyph unicode="&#xbc;" glyph-name="onequarter" horiz-adv-x="973" d="M765 316V23H839V-14H765V-129H709V-14H522V16L726 316H765ZM573 23H709V218L573 23ZM281 865V488Q281 471 284 462T294 448T315 442T349 440V414H158V441Q176 441 189 442T210 447T222
461T226 487V758Q226 774 225 782T216 792T194 788T153 771V801L281 865ZM76 -57L867 815L892 798L101 -72L76 -57Z" />
<glyph unicode="&#xbd;" glyph-name="onehalf" horiz-adv-x="973" d="M76 -57L867 815L892 798L101 -72L76 -57ZM281 865V488Q281 471 284 462T294 448T315 442T349 440V414H158V441Q176 441 189 442T210 447T222 461T226 487V758Q226 774 225 782T216 792T194
788T153 771V801L281 865ZM556 -101Q577 -81 601 -56T647 -7T687 39T716 73Q726 85 736 100T755 132T769 165T775 197Q775 212 771 227T757 254T731 274T691 282Q656 282 631 255T591 185L556 191Q561 215 572 238T602 279T645 307T702 318Q729 318 753 309T794
284T821 247T831 200Q831 182 825 163T809 127T788 94T766 66Q734 25 699 -14T632 -88H756Q771 -88 780 -87T796 -81T809 -67T824 -42H857L824 -123H556V-101Z" />
<glyph unicode="&#xbe;" glyph-name="threequarters" horiz-adv-x="973" d="M285 663Q328 652 354 624T381 556Q381 494 342 460T244 414Q220 409 196 410T153 417T123 431T111 450Q111 459 118 467T140 476Q157 476 170 471T194 458Q209 449 217 447T238 445Q253
445 268 451T295 470T316 498T325 534Q327 591 293 614T182 630L183 655Q237 666 267 696T298 762Q298 792 282 807T237 823Q205 823 182 804T146 753L111 754Q124 801 160 831T248 861Q270 861 290 855T325 836T348 807T357 769Q357 741 339 714T285 663ZM765
316V23H839V-14H765V-129H709V-14H522V16L726 316H765ZM573 23H709V218L573 23ZM92 -57L884 815L908 798L119 -73L92 -57Z" />
<glyph unicode="&#xbf;" glyph-name="questiondown" horiz-adv-x="973" d="M646 202Q670 206 688 186T707 138Q708 96 692 62T646 3T579 -34T499 -48Q456 -48 419 -37T353 -2T309 57T293 141Q293 163 302 188T326 241T360 295T399 347Q445 405 462 462T481 571H512Q518
455 442 339Q430 321 416 298T390 250T371 197T364 141Q364 100 375 70T405 19T449 -12T502 -23Q533 -23 560 -14T607 10T638 44T649 83Q649 95 644 103T631 118T619 133T613 156Q613 172 623 186T646 202ZM562 733Q562 709 545 691T501 673Q474 673 456 690T438
733Q438 759 456 776T501 794Q528 794 545 777T562 733Z" />
<glyph unicode="&#xc6;" glyph-name="AE" horiz-adv-x="973" d="M478 38Q500 38 514 40T537 49T549 67T553 97L554 250H285L174 95Q148 57 160 48T220 38L212 9H24L32 38Q48 38 62 40T89 51T116 75T147 115L536 674Q543 688 545 697T541 713T518 721T471 724L484
756L905 755L922 550L896 551Q886 611 876 645T843 697T782 719T675 724Q654 724 644 723T625 717Q614 712 613 702T612 686V394Q675 394 711 396T767 408T791 439T796 499L823 500V252L793 251Q793 290 789 311T768 343T714 355T612 358V80Q612 67 616 57T632
44Q718 44 767 48T845 68T889 118T924 208H949L905 9H478V38ZM309 285H553V639L309 285Z" />
<glyph unicode="&#xd0;" glyph-name="Eth" horiz-adv-x="973" d="M244 628Q244 657 239 676T220 708T184 726T128 734V756H407Q480 756 551 743T671 706Q766 658 810 574T854 383Q854 330 840 278T798 181T729 100T633 46Q587 32 533 21T417 10H128V33Q162 35
184 39T220 53T239 83T244 137V341H119V376H244V628ZM567 376V341H310V85Q310 66 316 56T332 42T356 37T385 36Q454 36 520 45T634 81Q669 100 696 131T742 201T771 285T781 381Q781 471 750 547T659 667Q607 706 534 719T381 732Q366 732 353 732T331 727T316
712T310 683V376H567Z" />
<glyph unicode="&#xd7;" glyph-name="multiply" horiz-adv-x="973" d="M481 332L237 88L201 123L447 367L199 613L234 649L483 402L729 648L763 613L517 368L763 123L728 87L481 332Z" />
<glyph unicode="&#xd8;" glyph-name="Oslash" horiz-adv-x="973" d="M722 666Q773 612 801 537T830 380Q830 300 804 230T732 106T623 22T486 -9Q429 -9 375 11T278 69L209 -22L181 2L249 95Q199 149 171 223T143 380Q143 460 168 531T240 655T349 740T486 771Q545
771 598 751T696 694L763 784L791 760Q786 754 776 740T754 710T733 682T722 666ZM665 655Q630 694 586 713T486 733Q422 733 372 706T287 631T234 519T215 380Q215 240 281 137L665 655ZM307 108Q342 68 387 47T486 25Q550 25 601 52T687 127T741 240T760 380Q760
452 743 512T692 625L307 108Z" />
<glyph unicode="&#xde;" glyph-name="Thorn" horiz-adv-x="973" d="M361 545V208H492Q532 208 568 219T630 251T672 305T688 382Q688 427 674 458T634 508T571 536T489 545H361ZM447 8H218V36Q244 36 260 40T287 53T300 77T304 116V659Q304 681 300 694T286 714T259
723T217 726L218 756H447V726Q400 726 381 713T361 660V573H525Q633 573 694 523T755 384Q755 339 740 301T696 236T627 193T537 177H361V111Q361 89 364 75T377 51T404 38T448 34L447 8Z" />
<glyph unicode="&#xdf;" glyph-name="germandbls" horiz-adv-x="973" d="M579 408Q648 391 691 340T735 207Q735 160 719 121T676 52T610 7T527 -9Q506 -9 483 -4T438 10T395 34T361 66V37Q361 23 355 16T332 9H238V41Q262 41 275 42T294 51T302 72T303 113V560Q303
605 317 643T356 710T416 754T493 770Q534 770 571 758T638 723T684 664T702 581Q702 511 669 471T579 408ZM425 424Q427 424 432 424T444 424T455 424T463 423Q495 421 522 427T578 457Q607 478 619 509T632 581Q632 612 623 639T595 687T551 718T491 730Q462
730 438 717T397 681T371 629T361 567V98Q389 69 431 48T532 29Q560 30 584 44T627 82T655 138T666 211Q666 255 651 287T610 342T551 374T482 385Q469 385 451 384T425 382V424Z" />
<glyph unicode="&#xe6;" glyph-name="ae" horiz-adv-x="973" d="M757 275Q780 275 785 282T791 312Q791 342 783 369T759 416T717 449T658 462Q620 462 594 446T550 404T524 344T513 275H757ZM415 94Q442 128 447 165T452 254Q417 252 371 246T283 226T212 185T183
116Q183 74 211 52T284 29Q322 29 359 48T415 94ZM850 116Q827 58 782 23T658 -13Q594 -13 548 22T476 119Q469 105 465 98T455 83Q439 62 417 45T369 14T314 -6T257 -13Q230 -13 205 -7T161 14T129 52T117 109Q117 145 135 172T182 218T247 251T320 272T392 283T452
288V377Q452 400 442 417T415 444T373 460T321 465Q309 465 295 463T268 457T243 445T224 429Q218 421 219 415T223 403T232 392T242 382Q244 379 246 373T248 360Q246 336 232 322T198 308Q172 308 160 327T147 372Q147 388 153 403T170 431T192 454T217 471Q247
487 280 493T343 499Q413 497 451 474T505 407Q532 449 571 474T661 499Q710 499 745 479T805 425T841 351T855 267V256Q855 251 852 246T841 241H512Q512 192 522 152T554 83T607 39T684 24Q710 25 731 35T770 60T800 94T822 132L850 116Z" />
<glyph unicode="&#xf0;" glyph-name="eth" horiz-adv-x="973" d="M337 225Q337 176 348 136T379 68T427 24T491 8Q525 8 552 24T599 68T629 137T640 225Q640 271 629 310T599 379T551 426T490 443Q456 443 428 427T380 381T348 311T337 225ZM366 777Q405 761 444
732T515 673L645 740L674 706L545 639Q586 597 617 547T671 443T704 336T716 236Q716 176 700 129T654 49T582 -1T487 -18Q436 -18 394 -1T321 48T273 125T256 226Q256 277 273 321T320 399T391 452T479 471Q495 471 511 471T543 467T578 457T617 435Q603 484 574
530T508 622L333 534L310 569L479 655Q447 688 413 714T343 758L366 777Z" />
<glyph unicode="&#xf7;" glyph-name="divide" horiz-adv-x="973" d="M489 705Q516 705 536 685T556 638Q556 625 550 613T535 592T513 578T489 572Q462 572 442 593T422 640Q422 666 443 685T489 705ZM181 406H794V355H181V406ZM489 187Q516 187 536 168T556 122Q556
109 550 97T535 76T513 61T489 55Q475 55 463 61T442 76T428 98T422 124Q422 150 443 168T489 187Z" />
<glyph unicode="&#xf8;" glyph-name="oslash" horiz-adv-x="973" d="M661 549L695 527L640 441Q681 409 704 360T728 247Q728 194 709 148T658 67T583 12T492 -8Q424 -8 369 24L313 -62L279 -39L335 46Q293 78 269 128T245 242Q245 294 262 340T311 422T386 477T479
497Q514 497 546 489T606 464L661 549ZM584 429Q545 470 482 470Q437 470 406 450T356 399T328 329T319 253Q319 216 330 172T364 91L584 429ZM392 59Q411 41 435 30T490 19Q535 19 566 39T617 91T644 161T653 236Q653 275 643 318T610 396L392 59Z" />
<glyph unicode="&#xfe;" glyph-name="thorn" horiz-adv-x="973" d="M385 -7Q385 -34 386 -49T395 -71T416 -80T458 -82V-116H260V-82Q285 -82 299 -81T319 -72T327 -51T328 -10V512Q328 527 327 536T318 551T296 557T256 559V588L372 598Q380 599 382 594T385
581V427Q412 459 454 481T545 503Q583 503 614 488T668 445T703 383T716 309V194Q716 155 704 120T669 59T615 17T545 1Q523 1 501 2T459 10T419 28T385 61V-7ZM385 128Q400 83 440 64T531 45Q555 45 576 55T613 83T639 128T649 189V313Q649 347 640 374T614 419T576
447T531 457Q511 457 490 451T449 435T412 410T385 377V128Z" />
<glyph unicode="&#xff;" glyph-name="ydieresis" horiz-adv-x="973" d="M799 385Q827 385 841 368T855 331T841 293T799 276Q772 276 759 293T745 330T758 368T799 385ZM488 385Q516 385 529 368T543 331T530 293T488 276Q461 276 448 293T434 330T447 368T488
385ZM177 385Q205 385 218 368T231 331T218 293T177 276Q149 276 136 293T123 330T136 368T177 385Z" />
<glyph unicode="&#x2013;" glyph-name="endash" horiz-adv-x="973" d="M213 329V379H750V329H213Z" />
<glyph unicode="&#x2014;" glyph-name="emdash" horiz-adv-x="973" d="M53 329V379H920V329H53Z" />
<glyph unicode="&#x2018;" glyph-name="quoteleft" horiz-adv-x="296" d="M178 728Q190 731 201 728T220 716T234 697T240 673Q240 648 222 632T178 615Q143 615 126 640T109 706Q109 760 134 800T214 861L228 842Q189 824 170 797T151 737Q151 726 155 724T166
724L178 728V728Z" />
<glyph unicode="&#x2019;" glyph-name="quoteright" horiz-adv-x="296" d="M114 736Q102 733 91 737T72 749T58 768T52 792Q52 816 70 832T114 849Q149 849 166 824T183 759Q183 705 158 664T78 603L63 623Q103 640 122 667T141 727Q141 738 137 740T126 740L114
736V736Z" />
<glyph unicode="&#x201c;" glyph-name="quotedblleft" horiz-adv-x="451" d="M178 728Q190 731 201 728T220 716T234 697T240 673Q240 648 222 632T178 615Q143 615 126 640T109 706Q109 760 134 800T214 861L228 842Q189 824 170 797T151 737Q151 726 155 724T166
724L178 728ZM338 728Q361 733 380 716T399 673Q399 648 382 632T338 615Q303 615 286 640T268 706Q268 760 294 800T374 861L388 842Q349 824 330 797T310 737Q310 726 314 724T326 724L338 728Z" />
<glyph unicode="&#x201d;" glyph-name="quotedblright" horiz-adv-x="451" d="M280 738Q268 735 257 739T238 751T224 770T218 794Q218 818 236 834T280 851Q315 851 332 826T349 761Q349 707 324 666T244 605L229 625Q269 642 288 669T307 729Q307 740 303 742T292
742L280 738ZM120 738Q108 735 97 739T78 751T64 770T58 794Q58 818 76 834T120 851Q155 851 172 826T189 761Q189 707 164 666T84 605L70 625Q109 642 128 669T147 729Q147 740 143 742T132 742L120 738Z" />
<glyph unicode="&#x2022;" glyph-name="bullet" horiz-adv-x="973" d="M486 491Q531 491 563 456T596 369Q596 318 564 283T486 247Q440 247 408 282T376 369Q376 420 408 455T486 491Z" />
<glyph unicode="&#x2039;" glyph-name="guilsinglleft" horiz-adv-x="973" d="M840 810L202 370L840 -69V-111L133 370L840 850V810Z" />
<glyph unicode="&#x203a;" glyph-name="guilsinglright" horiz-adv-x="973" d="M840 370L133 -111V-69L771 370L133 810V850L840 370Z" />
</font>
</defs>
</svg>
