<?xml version="1.0" standalone="no"?>
<!DOCTYPE svg PUBLIC "-//W3C//DTD SVG 1.1//EN" "http://www.w3.org/Graphics/SVG/1.1/DTD/svg11.dtd">
<svg xmlns="http://www.w3.org/2000/svg">
<defs >
<font id="BigShouldersInlineText" horiz-adv-x="1443" ><font-face
    font-family="Big Shoulders Inline Text Thin"
    units-per-em="4000"
    panose-1="0 0 0 0 0 0 0 0 0 0"
    ascent="3936"
    descent="-852"
    alphabetic="0" />
<glyph unicode=" " horiz-adv-x="829" />
<glyph unicode="!" horiz-adv-x="783" d="M461 633L486 1845V3200H549V1845L508 633H461ZM274 633L232 1845V3200H296V1845L320 633H274ZM367 633L359 1845V3200H422V1845L414 633H367ZM187 0V58H599V0H187ZM187 231V288H599V231H187ZM187 115V173H599V115H187Z" />
<glyph unicode="&quot;" horiz-adv-x="1259" d="M406 2545L439 2883V3200H503V2883L446 2545H406ZM242 2545L186 2883V3200H249V2883L282 2545H242ZM324 2545L312 2883V3200H376V2883L364 2545H324ZM977 2545L1010 2883V3200H1074V2883L1017 2545H977ZM813 2545L757
2883V3200H820V2883L853 2545H813ZM895 2545L883 2883V3200H947V2883L935 2545H895Z" />
<glyph unicode="#" horiz-adv-x="2395" d="M332 0L605 973H149L164 1030H619L915 2070H432L447 2128H929L1234 3200H1298L993 2128H1689L1994 3200H2058L1754 2128H2247L2232 2070H1740L1444 1030H1964L1949 973H1429L1157 0H1092L1364 973H668L396 0H332ZM682
1030H1378L1674 2070H979L682 1030ZM760 1088L1027 2012H1594L1327 1088H760ZM838 1146H1277L1515 1955H1076L838 1146ZM461 2185L475 2243H832L1107 3200H1171L881 2185H461ZM179 1088L193 1146H521L759 1955H403L418 2012H837L570 1088H179ZM206 0L449 857H120L134
915H527L269 0H206ZM1071 2185L1361 3200H1424L1148 2243H1588L1863 3200H1928L1638 2185H1071ZM459 0L716 915H1284L1027 0H961L1203 857H766L523 0H459ZM1835 2185L2124 3200H2189L1914 2243H2275L2261 2185H1835ZM1523 1088L1791 2012H2218L2203 1955H1841L1603
1146H1993L1979 1088H1523ZM1222 0L1480 915H1934L1920 857H1531L1288 0H1222Z" />
<glyph unicode="$" horiz-adv-x="1605" d="M771 -368V76Q535 82 429 187T314 529Q311 648 311 750T312 951T319 1156H382Q377 1046 375 948T374 748T377 531Q385 315 484 221T807 126Q1024 126 1122 220T1229 533Q1233 613 1234 702T1235 881T1231 1054Q1226 1201
1189 1297T1076 1450T872 1539L655 1595Q533 1626 458 1689T348 1859T308 2131Q305 2259 306 2396T311 2675Q317 2909 423 3013T768 3124V3598H831V3124Q1064 3119 1168 3014T1280 2673Q1283 2553 1283 2403T1278 2090H1214Q1219 2254 1219 2402T1217 2671Q1210
2887 1114 2980T804 3074Q580 3074 480 2981T374 2673Q371 2531 370 2395T372 2132Q376 1984 405 1888T499 1736T669 1654L885 1598Q1029 1562 1117 1497T1247 1326T1294 1056Q1298 976 1298 888T1298 708T1292 529Q1283 293 1177 187T834 76V-368H771ZM644 -368V-17Q410
12 303 140T187 525Q184 637 184 741T185 946T193 1156H256Q251 1051 249 952T247 750T251 527Q260 280 366 163T708 28V-368H644ZM898 -368V28Q1132 45 1239 162T1356 527Q1360 608 1361 699T1362 882T1357 1059Q1351 1237 1304 1354T1158 1543T899 1657L684 1715Q595
1738 541 1785T463 1917T435 2134Q432 2260 433 2395T438 2671Q443 2860 528 2941T804 3023Q986 3023 1067 2941T1154 2668Q1157 2551 1156 2404T1151 2090H1089Q1092 2257 1092 2403T1090 2666Q1086 2830 1020 2901T804 2972Q646 2972 576 2902T501 2669Q498 2529
497 2395T498 2136Q501 2019 520 1947T583 1835T699 1775L913 1716Q1090 1670 1199 1590T1361 1382T1421 1061Q1424 977 1424 884T1424 699T1419 525Q1409 267 1302 139T961 -17V-368H898ZM807 177Q617 177 532 259T441 533Q438 648 437 747T438 945T445 1156H507Q503
1044 502 946T500 749T504 535Q510 371 580 300T807 228Q959 228 1027 299T1103 538Q1106 624 1107 713T1109 887T1104 1049Q1100 1166 1075 1239T994 1355T845 1420L625 1476Q471 1516 375 1594T233 1802T182 2127Q179 2257 180 2396T184 2679Q191 2934 298 3061T641
3217V3598H705V3172Q468 3154 362 3038T248 2677Q245 2534 244 2396T245 2129Q249 1949 289 1831T416 1642T640 1536L859 1479Q969 1452 1035 1402T1132 1268T1167 1051Q1171 974 1172 888T1172 712T1166 535Q1158 344 1075 261T807 177ZM1341 2090Q1345 2250 1346
2401T1344 2674Q1336 2922 1231 3039T895 3172V3598H958V3217Q1189 3188 1294 3061T1407 2677Q1410 2551 1410 2400T1404 2090H1341Z" />
<glyph unicode="%" horiz-adv-x="2102" d="M575 0L1826 3200H1883L631 0H575ZM349 0L1600 3200H1657L405 0H349ZM462 0L1713 3200H1770L518 0H462ZM1614 -16Q1438 -16 1339 66T1235 304Q1233 418 1232 567T1232 868T1235 1137Q1238 1293 1338 1374T1614 1456Q1788
1456 1887 1375T1992 1137Q1995 1022 1996 871T1997 570T1992 304Q1987 154 1891 69T1614 -16ZM1614 19Q1764 19 1852 91T1946 306Q1950 420 1951 559T1951 846T1946 1135Q1942 1272 1857 1346T1614 1421Q1448 1421 1366 1343T1281 1135Q1278 1020 1277 873T1277
578T1281 305Q1284 167 1370 93T1614 19ZM1614 55Q1482 55 1406 119T1326 307Q1323 431 1322 569T1322 850T1326 1135Q1329 1254 1403 1319T1614 1385Q1748 1385 1822 1321T1900 1134Q1905 985 1906 843T1906 567T1901 307Q1896 186 1822 121T1614 55ZM1614 90Q1726
90 1788 146T1855 308Q1859 441 1860 570T1861 838T1854 1133Q1852 1238 1790 1294T1614 1350Q1501 1350 1438 1295T1372 1134Q1369 996 1368 861T1368 588T1372 306Q1375 203 1438 147T1614 90ZM1614 126Q1421 126 1417 309Q1415 425 1414 568T1414 859T1418 1131Q1421
1314 1614 1314Q1703 1314 1755 1268T1809 1130Q1813 1020 1814 874T1815 578T1810 311Q1807 222 1756 174T1614 126ZM1614 161Q1759 161 1764 312Q1768 429 1768 573T1768 864T1764 1130Q1760 1279 1614 1279Q1467 1279 1463 1132Q1461 1016 1460 873T1459 583T1463
310Q1467 161 1614 161ZM554 1740Q378 1740 279 1822T175 2060Q173 2174 172 2323T172 2624T175 2893Q178 3049 278 3130T554 3212Q728 3212 827 3131T932 2893Q935 2778 936 2627T937 2326T932 2060Q927 1910 831 1825T554 1740ZM554 1775Q704 1775 792 1847T886
2062Q890 2176 891 2315T891 2602T886 2891Q882 3028 797 3102T554 3177Q388 3177 306 3099T221 2891Q218 2776 217 2629T217 2334T221 2061Q224 1923 310 1849T554 1775ZM554 1811Q422 1811 346 1875T266 2063Q264 2187 263 2325T263 2606T267 2891Q269 3010 343
3075T554 3141Q688 3141 762 3077T840 2890Q845 2741 846 2599T846 2323T841 2063Q836 1942 762 1877T554 1811ZM554 1846Q666 1846 728 1902T795 2064Q799 2197 800 2326T801 2594T794 2889Q792 2994 730 3050T554 3106Q441 3106 378 3051T312 2890Q309 2752 308
2617T308 2344T312 2062Q315 1959 378 1903T554 1846ZM554 1882Q362 1882 357 2065Q355 2181 354 2324T354 2615T358 2887Q361 3070 554 3070Q643 3070 695 3024T750 2886Q753 2776 754 2630T755 2334T750 2067Q747 1978 696 1930T554 1882ZM554 1917Q699 1917
704 2068Q708 2185 708 2329T708 2620T704 2886Q700 3035 554 3035Q407 3035 403 2888Q401 2772 400 2629T399 2339T403 2066Q407 1917 554 1917Z" />
<glyph unicode="&amp;" horiz-adv-x="2049" d="M838 -30Q505 -30 363 106T214 536Q212 691 212 799T220 1000T242 1195Q260 1342 333 1472T503 1706Q441 1844 387 2009T300 2340T265 2644Q253 2944 388 3087T801 3230Q1101 3230 1234 3085T1349 2659Q1343 2528
1316 2420T1234 2202T1089 1963T868 1657Q935 1517 1029 1346T1208 1027L1213 1029Q1210 1134 1201 1244T1180 1451T1159 1615H1215Q1228 1523 1239 1399T1258 1134T1268 851L1261 848Q1177 978 1093 1122T932 1408T796 1666Q935 1844 1028 1973T1176 2210T1258
2424T1291 2664Q1308 2924 1188 3049T801 3175Q547 3175 430 3046T324 2647Q324 2553 344 2431T400 2178T482 1922T578 1699Q492 1602 436 1525T349 1370T304 1189Q291 1088 284 999T276 801T278 537Q284 262 413 144T838 25Q1015 25 1123 70T1289 202T1367 413L1375
416Q1423 353 1476 279T1578 139T1661 35L1616 -3Q1577 44 1518 127T1397 294L1391 292Q1341 131 1208 51T838 -30ZM838 80Q574 80 460 185T340 539Q337 694 338 801T347 996T367 1184Q383 1328 450 1439T652 1685Q577 1838 516 2012T419 2353T383 2651Q375 2893
476 3006T801 3120Q1038 3120 1143 3011T1233 2670Q1227 2539 1202 2434T1121 2224T970 1989T729 1675Q803 1527 898 1354T1099 1010T1309 693Q1316 839 1311 1013T1294 1348T1269 1615H1328Q1339 1524 1348 1403T1362 1146T1367 877T1358 627Q1412 554 1484 456T1628
264T1749 112L1705 74Q1660 126 1597 208T1467 379T1345 542Q1327 376 1275 274T1118 126T838 80ZM838 135Q1013 135 1107 183T1241 334T1297 604Q1191 748 1081 921T869 1277T682 1629Q557 1503 501 1403T430 1178Q417 1082 410 995T402 802T404 541Q409 318 507
227T838 135ZM838 190Q636 190 554 268T467 542Q464 696 465 800T474 991T493 1173Q506 1277 548 1360T669 1532Q717 1441 787 1314T937 1049T1094 790T1236 585Q1222 438 1186 352T1068 228T838 190ZM838 244Q965 244 1033 273T1131 374T1171 571Q1087 689 997
834T819 1134T656 1430Q613 1364 590 1300T557 1167Q543 1073 537 988T529 800T530 543Q534 375 600 310T838 244ZM699 1730Q838 1903 928 2026T1070 2250T1146 2449T1176 2675Q1187 2879 1098 2972T801 3065Q606 3065 521 2968T442 2655Q443 2471 509 2238T699
1730ZM714 1829Q608 2082 555 2290T501 2659Q496 2848 566 2929T801 3010Q981 3010 1054 2933T1118 2681Q1113 2567 1092 2476T1027 2293T906 2092T714 1829ZM734 1931Q828 2062 889 2159T987 2338T1040 2501T1060 2686Q1067 2834 1010 2895T801 2956Q665 2956
611 2891T559 2662Q559 2519 603 2337T734 1931ZM1793 151Q1746 205 1679 294T1541 477T1417 644Q1427 798 1424 980T1408 1331T1381 1615H1438Q1451 1510 1462 1348T1479 1005T1476 666Q1528 596 1595 505T1727 327T1838 189L1793 151Z" />
<glyph unicode="&apos;" horiz-adv-x="688" d="M406 2545L439 2883V3200H503V2883L446 2545H406ZM242 2545L186 2883V3200H249V2883L282 2545H242ZM324 2545L312 2883V3200H376V2883L364 2545H324Z" />
<glyph unicode="(" horiz-adv-x="1047" d="M682 -800Q563 -626 461 -396T282 101T163 649T120 1211Q120 1470 160 1743T274 2282T451 2782T682 3200H731Q609 3023 508 2790T335 2292T223 1751T183 1211Q183 929 224 645T340 95T515 -400T731 -800H682ZM780 -800Q666
-632 569 -405T400 88T287 640T247 1211Q247 1480 285 1758T394 2302T563 2797T780 3200H829Q714 3032 619 2804T455 2311T348 1766T310 1211Q310 923 349 635T458 82T623 -410T829 -800H780ZM878 -800Q769 -639 678 -416T518 74T411 629T373 1211Q373 1490 410
1773T515 2321T675 2811T878 3200H927Q820 3041 730 2818T575 2331T473 1781T437 1211Q437 915 473 624T576 67T732 -421T927 -800H878Z" />
<glyph unicode=")" horiz-adv-x="1139" d="M337 -800H288Q404 -629 504 -400T678 94T793 644T835 1211Q835 1475 796 1751T685 2292T512 2790T288 3200H337Q464 3018 567 2783T744 2282T859 1744T899 1211Q899 932 856 650T737 101T558 -395T337 -800ZM238 -800H190Q301
-636 395 -410T560 81T670 635T709 1211Q709 1485 671 1765T564 2311T400 2804T190 3200H238Q358 3028 455 2798T624 2302T733 1759T772 1211Q772 926 732 640T620 88T450 -405T238 -800ZM141 -800H91Q197 -643 286 -421T442 67T545 624T582 1211Q582 1495 546
1780T444 2330T289 2818T91 3200H141Q251 3037 343 2812T503 2321T608 1773T645 1211Q645 919 608 630T502 74T341 -415T141 -800Z" />
<glyph unicode="*" horiz-adv-x="1129" d="M540 2272L546 2534L552 2711L545 2715L394 2621L171 2485L146 2528L376 2654L532 2738V2745L375 2830L146 2955L171 2997L394 2861L545 2768L552 2772L546 2950L540 3210H590L583 2949L578 2772L584 2768L736 2861L958
2997L983 2955L754 2829L597 2744V2737L754 2653L983 2528L958 2485L735 2621L584 2715L578 2711L583 2533L590 2272H540ZM442 2272L463 2438L489 2603L483 2606L353 2502L220 2401L194 2446L326 2535L487 2650L529 2688L536 2683L524 2629L506 2431L494 2272H442ZM123
2568L97 2613L251 2678L406 2738V2744L251 2804L97 2870L123 2915L269 2844L447 2762L501 2746V2737L447 2720L266 2637L123 2568ZM636 2272L623 2433L605 2629L593 2683L601 2688L642 2650L804 2535L935 2446L909 2401L777 2502L646 2606L641 2602L667 2438L688
2272H636ZM529 2794L487 2833L324 2948L194 3037L220 3082L353 2981L483 2877L489 2881L463 3044L442 3210H494L506 3050L524 2854L536 2799L529 2794ZM1006 2568L858 2640L682 2720L628 2736V2746L682 2763L862 2845L1006 2915L1032 2870L878 2804L723 2744V2738L878
2678L1032 2613L1006 2568ZM601 2794L593 2799L605 2854L623 3051L636 3210H688L667 3045L641 2881L647 2877L776 2981L909 3082L935 3037L802 2945L642 2833L601 2794Z" />
<glyph unicode="+" horiz-adv-x="1861" d="M900 828V1506H226V1564H900V2237H963V1564H1635V1506H963V828H900ZM773 828V1391H226V1449H837V828H773ZM226 1622V1679H773V2237H837V1622H226ZM1027 828V1449H1635V1391H1090V828H1027ZM1027 1622V2237H1090V1679H1635V1622H1027Z"
/>
<glyph unicode="," horiz-adv-x="687" d="M404 -366L492 0V231H137V288H549V0L448 -366H404ZM229 -366L261 0H137V58H319V0L273 -366H229ZM316 -366L376 0V115H137V173H434V0L360 -366H316Z" />
<glyph unicode="-" horiz-adv-x="1429" d="M120 1604V1659H1309V1604H120ZM120 1384V1439H1309V1384H120ZM120 1494V1549H1309V1494H120Z" />
<glyph unicode="." horiz-adv-x="687" d="M137 0V58H549V0H137ZM137 231V288H549V231H137ZM137 115V173H549V115H137Z" />
<glyph unicode="/" horiz-adv-x="1434" d="M373 -800L1251 3200H1314L437 -800H373ZM120 -800L997 3200H1061L183 -800H120ZM247 -800L1124 3200H1187L310 -800H247Z" />
<glyph unicode="0" horiz-adv-x="1637" d="M818 -30Q523 -30 365 117T202 532Q196 863 195 1233T195 1971T202 2667Q206 2932 363 3081T818 3230Q1125 3230 1276 3076T1433 2667Q1439 2329 1441 1953T1441 1210T1433 533Q1427 279 1276 125T818 -30ZM818 21Q1092
21 1228 161T1369 534Q1375 815 1377 1168T1379 1905T1369 2665Q1365 2902 1227 3040T818 3179Q554 3179 412 3045T265 2665Q260 2328 259 1966T258 1241T265 534Q270 284 414 153T818 21ZM818 71Q584 71 458 192T328 535Q323 876 322 1236T321 1958T328 2664Q332
2883 456 3006T818 3129Q1049 3129 1175 3008T1306 2663Q1312 2321 1314 1947T1315 1209T1306 536Q1301 319 1178 195T818 71ZM818 123Q1027 123 1133 234T1243 537Q1249 863 1251 1224T1251 1952T1243 2662Q1239 2860 1130 2968T818 3077Q616 3077 506 2970T392
2663Q387 2319 385 1958T385 1238T392 536Q395 335 506 229T818 123ZM818 173Q646 173 552 267T455 537Q451 795 450 1066T448 1610T449 2149T455 2662Q458 2834 550 2930T818 3027Q987 3027 1081 2934T1179 2660Q1186 2293 1187 1922T1187 1199T1179 540Q1176
362 1082 268T818 173ZM818 224Q963 224 1038 308T1116 541Q1120 754 1122 1005T1125 1530T1124 2090T1116 2659Q1114 2812 1037 2894T818 2976Q676 2976 599 2895T519 2660Q515 2422 513 2162T511 1628T512 1081T519 539Q521 386 599 305T818 224Z" />
<glyph unicode="1" horiz-adv-x="930" d="M624 0V3145H440L165 2932L157 2995L418 3200H687V0H624ZM370 0V2287L404 2842H387L194 2705L186 2766L438 2937H455L434 2327V0H370ZM497 0V2367L507 3037H484L179 2818L172 2879L462 3090H560V2407V0H497Z" />
<glyph unicode="2" horiz-adv-x="1597" d="M438 219Q435 307 435 397T439 598Q445 806 487 945T606 1177T794 1336L972 1442Q1105 1520 1192 1612T1326 1829T1381 2126Q1385 2189 1386 2287T1386 2487T1381 2656Q1368 2927 1240 3053T804 3179Q522 3179 389 3061T244
2659Q241 2574 241 2485T244 2297T249 2078H186Q183 2198 181 2297T178 2484T180 2661Q192 2971 340 3100T804 3230Q1139 3230 1285 3095T1445 2659Q1448 2584 1449 2480T1449 2278T1445 2124Q1435 1921 1377 1784T1222 1553T1003 1386L825 1280Q719 1218 649 1132T541
916T502 597Q501 509 501 438T501 323T501 273H1438V219H438ZM189 0Q187 117 186 224T185 427T185 603Q190 872 251 1053T419 1354T668 1557L846 1662Q940 1718 999 1777T1090 1923T1129 2143Q1130 2179 1131 2242T1132 2379T1132 2525T1128 2647Q1120 2819 1047
2897T804 2976Q647 2976 575 2901T497 2650Q494 2561 494 2478T497 2301T502 2078H439Q435 2261 432 2388T434 2652Q442 2853 527 2940T804 3027Q1013 3027 1097 2934T1191 2649Q1194 2596 1195 2525T1196 2380T1195 2241T1191 2132Q1184 2000 1152 1907T1055 1744T878
1607L700 1501Q560 1419 461 1302T307 1014T249 602Q248 525 248 437T249 253T252 54H1438V0H189ZM314 109Q311 213 311 342T312 601Q316 826 364 985T505 1256T731 1446L910 1551Q1017 1615 1091 1688T1205 1867T1254 2131Q1257 2178 1258 2245T1259 2387T1258
2530T1254 2651Q1244 2867 1147 2972T804 3077Q582 3077 481 2980T370 2654Q368 2567 368 2480T371 2296T376 2078H312Q310 2198 308 2296T305 2482T307 2657Q317 2914 435 3021T804 3129Q1075 3129 1191 3015T1318 2653Q1321 2598 1322 2527T1323 2382T1322 2242T1318
2129Q1309 1957 1264 1842T1138 1646T941 1496L763 1391Q641 1319 556 1218T426 967T376 599Q373 474 373 362T376 164H1438V109H314Z" />
<glyph unicode="3" horiz-adv-x="1589" d="M817 -30Q589 -30 447 28T235 211T157 540Q152 662 152 803T157 1099H220Q218 991 217 894T216 708T220 542Q228 357 290 242T482 75T817 22Q1002 22 1119 75T1295 243T1364 546Q1367 607 1368 697T1370 889T1369 1085T1364
1252Q1355 1453 1289 1568T1103 1731T812 1779H737V1797L1377 2963V3146H160V3200H1439V2947L830 1833Q1130 1824 1272 1689T1427 1254Q1431 1178 1432 1082T1433 885T1432 695T1427 543Q1417 337 1351 212T1154 28T817 -30ZM817 177Q602 177 511 266T410 550Q408
632 407 715T406 891T410 1099H474Q470 972 469 876T469 703T474 553Q481 385 557 307T817 229Q963 229 1033 306T1110 564Q1113 636 1114 759T1115 1015T1109 1244Q1103 1367 1064 1437T949 1536T756 1565H476L465 1822L1070 2927H160V2981H1178L528 1801L535
1618H756Q886 1618 976 1586T1117 1473T1174 1244Q1179 1142 1180 1013T1180 761T1175 555Q1168 354 1083 266T817 177ZM817 74Q534 74 414 186T284 545Q281 627 280 715T279 898T284 1099H347Q343 973 343 877T343 701T347 547Q356 323 464 224T817 125Q1020 125
1123 220T1237 553Q1240 618 1241 708T1243 897T1242 1087T1237 1247Q1231 1367 1202 1449T1115 1580T968 1652T756 1674H585L580 1776L1250 2989V3036H160V3091H1313V2973L642 1755L644 1732H755Q927 1732 1045 1692T1228 1547T1300 1249Q1304 1175 1305 1081T1307
889T1305 702T1300 549Q1292 381 1241 276T1086 123T817 74Z" />
<glyph unicode="4" horiz-adv-x="1598" d="M867 0V969H91V1191L713 3200H1184V1242H1499V1187H1120V3146H760L154 1182V1023H930V0H867ZM1120 0V1023H1499V969H1184V0H1120ZM994 0V1078H218V1172L513 2121L797 3092L1080 3091L1067 1812L1057 1132H1499V1078H1057V0H994ZM281
1132H994L1004 1762L1029 3036H831L565 2084L281 1162V1132ZM348 1187L611 2047L864 2983H980L946 1710L930 1187H348ZM441 1242H867L883 1673L927 2930H894L658 2006L441 1242Z" />
<glyph unicode="5" horiz-adv-x="1615" d="M820 -30Q508 -30 353 96T184 536Q177 696 177 825T182 1099H245Q239 943 240 820T247 538Q260 244 405 133T820 21Q1111 21 1245 145T1393 561Q1401 723 1403 863T1405 1134T1398 1398Q1387 1684 1275 1798T934 1917Q751
1922 637 1870T461 1724H438L471 2257V2981H1421V2927H534L535 2216L483 1822H498Q570 1907 697 1939T955 1968Q1220 1961 1334 1829T1462 1395Q1467 1264 1468 1130T1467 856T1456 564Q1442 258 1302 114T820 -30ZM820 71Q565 71 444 179T310 548Q305 671 304
814T308 1099H372Q367 968 367 823T373 550Q383 313 492 218T820 123Q1067 122 1163 230T1266 562Q1273 724 1276 850T1279 1104T1272 1397Q1265 1603 1183 1705T890 1815Q705 1822 602 1746T450 1546H337L344 2374V3091H1421V3036H406L407 2320L390 1602H442Q497
1737 608 1804T909 1866Q1132 1859 1228 1749T1335 1398Q1341 1273 1342 1141T1341 865T1330 561Q1315 298 1197 185T820 71ZM820 173Q641 173 545 254T437 547Q431 697 431 824T436 1099H500Q495 967 495 822T500 556Q509 378 584 301T820 224Q992 224 1061 307T1140
563Q1147 711 1150 843T1152 1108T1146 1394Q1142 1563 1080 1637T880 1715Q779 1718 705 1688T586 1595T524 1433H217V3200H1421V3146H281V1489H486Q507 1577 556 1640T688 1736T891 1766Q1043 1762 1124 1684T1209 1395Q1213 1274 1214 1173T1215 977T1211 782T1203
562Q1195 363 1111 268T820 173Z" />
<glyph unicode="6" horiz-adv-x="1643" d="M827 -32Q513 -32 364 95T209 537Q205 824 201 1109T195 1666T194 2189T203 2658Q210 2866 276 2990T476 3171T816 3227Q1032 3227 1167 3171T1368 2993T1442 2673Q1444 2617 1445 2556T1446 2430T1445 2301T1442 2175H1379Q1381
2231 1382 2293T1383 2421T1383 2549T1379 2671Q1371 2853 1311 2964T1131 3126T816 3177Q632 3177 513 3126T333 2961T266 2657Q260 2442 258 2197T258 1684T264 1128T273 538Q277 254 409 136T827 18Q1117 18 1255 137T1405 541Q1413 715 1414 850T1414 1118T1407
1417Q1401 1661 1303 1772T969 1883Q900 1883 825 1871T675 1830T538 1753T431 1632H410L448 2214Q449 2236 449 2297T451 2449T456 2649Q463 2852 547 2938T816 3024Q1004 3024 1092 2943T1189 2672Q1192 2618 1192 2557T1193 2432T1192 2303T1189 2175H1125Q1127
2228 1127 2290T1128 2418T1129 2548T1125 2669Q1118 2837 1044 2905T816 2974Q670 2974 597 2902T518 2647Q516 2554 515 2454T513 2278T512 2177L459 1739H472Q535 1813 625 1856T812 1916T989 1934Q1246 1934 1355 1811T1470 1418Q1474 1268 1477 1140T1479
870T1469 537Q1454 226 1302 97T827 -32ZM827 69Q568 69 454 178T336 539Q334 644 332 818T327 1200T323 1619T321 2010T322 2304Q323 2326 323 2366T324 2475T329 2654Q336 2827 389 2930T547 3080T816 3126Q1076 3126 1190 3019T1316 2667Q1319 2593 1319 2511T1319
2343T1316 2175H1252Q1254 2230 1255 2295T1256 2427T1255 2557T1252 2669Q1241 2887 1139 2981T816 3075Q594 3075 497 2976T393 2651Q388 2487 387 2383T385 2244L376 1511H390Q436 1617 521 1688T718 1796T954 1833Q1164 1833 1251 1733T1344 1416Q1347 1265
1350 1136T1352 867T1342 543Q1331 289 1211 179T827 69ZM827 120Q1057 120 1163 218T1279 546Q1286 725 1287 857T1287 1118T1280 1415Q1276 1611 1197 1696T939 1781Q776 1781 652 1726T459 1575T390 1352Q390 1227 391 1095T395 823T399 540Q403 307 507 214T827
120ZM827 171Q636 171 551 257T463 541Q459 752 456 957T453 1381Q455 1522 573 1626T914 1731Q1079 1731 1146 1655T1217 1414Q1221 1244 1223 1115T1225 856T1216 549Q1207 344 1115 258T827 171ZM827 221Q993 221 1069 298T1152 550Q1160 730 1161 859T1161
1115T1153 1412Q1150 1556 1089 1618T890 1680Q704 1680 611 1599T517 1387Q515 1178 518 964T526 542Q529 362 603 292T827 221Z" />
<glyph unicode="7" horiz-adv-x="1352" d="M462 0L1230 2976V3146H39V3200H1293V2965L525 0H462ZM209 0L949 2927H39V2981H1032L272 0H209ZM335 0L1103 3001V3036H39V3091H1166V2986L399 0H335Z" />
<glyph unicode="8" horiz-adv-x="1609" d="M805 -9Q487 -9 345 118T191 540Q187 643 185 820T193 1205Q202 1372 279 1489T488 1659V1670Q367 1719 291 1831T204 2098Q193 2266 193 2400T202 2659Q223 2968 365 3099T805 3230Q1106 3230 1246 3098T1407 2659Q1415
2539 1415 2403T1404 2098Q1394 1944 1318 1832T1121 1670V1659Q1254 1616 1330 1496T1415 1205Q1426 995 1425 824T1418 540Q1406 246 1264 119T805 -9ZM805 143Q1023 143 1121 237T1228 547Q1232 643 1235 814T1225 1192Q1211 1421 1105 1530T805 1640Q610 1640
504 1531T383 1192Q373 1007 374 834T381 547Q389 331 488 237T805 143ZM805 194Q618 194 535 277T444 549Q439 687 439 842T447 1190Q457 1394 545 1497T805 1600Q976 1600 1064 1498T1162 1191Q1172 990 1171 826T1165 549Q1158 360 1075 277T805 194ZM805 244Q957
244 1026 315T1102 553Q1105 642 1108 815T1099 1183Q1086 1374 1015 1462T805 1550Q666 1550 595 1462T510 1183Q499 996 501 822T507 553Q514 386 583 315T805 244ZM805 41Q1092 41 1218 158T1355 542Q1360 659 1361 825T1352 1201Q1343 1373 1259 1496T1036
1658V1674Q1184 1715 1257 1826T1341 2101Q1352 2259 1352 2395T1344 2654Q1326 2936 1200 3057T805 3179Q535 3179 410 3058T265 2654Q258 2539 257 2402T268 2100Q279 1936 352 1826T572 1674V1658Q434 1620 350 1497T257 1201Q246 990 248 819T254 542Q265 276
391 159T805 41ZM805 92Q556 92 442 196T317 544Q314 654 312 822T320 1196Q330 1381 414 1497T634 1658V1674Q500 1718 421 1821T331 2104Q321 2269 321 2390T328 2651Q342 2907 453 3018T805 3129Q1052 3129 1159 3015T1280 2651Q1288 2499 1288 2380T1278 2104Q1267
1924 1188 1821T975 1674V1658Q1110 1613 1194 1497T1289 1196Q1299 992 1298 826T1291 544Q1282 300 1168 196T805 92ZM805 1698Q1001 1698 1101 1795T1215 2106Q1224 2257 1225 2370T1217 2646Q1206 2864 1116 2970T805 3077Q583 3077 493 2971T392 2646Q384
2495 384 2373T393 2112Q407 1894 508 1796T805 1698ZM805 1736Q637 1736 553 1827T457 2113Q448 2270 448 2389T455 2642Q466 2836 541 2931T805 3027Q995 3027 1069 2930T1154 2642Q1161 2509 1161 2390T1152 2115Q1141 1919 1057 1828T805 1736ZM805 1785Q946
1785 1012 1862T1089 2116Q1095 2219 1097 2304T1098 2470T1090 2639Q1081 2809 1019 2892T805 2976Q650 2976 589 2891T518 2632Q509 2486 511 2364T520 2115Q531 1939 597 1862T805 1785Z" />
<glyph unicode="9" horiz-adv-x="1641" d="M825 -32Q509 -32 367 96T211 522Q209 578 208 639T207 765T208 894T211 1020H274Q273 965 272 902T270 773T270 645T274 524Q286 251 415 135T825 18Q1112 18 1239 139T1375 538Q1380 671 1381 871T1383 1337T1379 1933T1369
2656Q1365 2940 1233 3058T815 3177Q517 3177 383 3056T236 2654Q230 2506 229 2370T230 2091T239 1783Q249 1547 378 1421T747 1294Q927 1294 1034 1359T1214 1550H1236L1193 968Q1193 947 1193 889T1191 743T1186 546Q1179 343 1095 257T825 171Q646 171 560
250T464 523Q461 577 461 637T460 762T461 892T464 1020H527Q526 967 525 905T524 777T524 647T527 526Q535 359 606 290T825 221Q972 221 1045 293T1123 548Q1126 642 1127 739T1129 909T1130 1005L1189 1448H1175Q1094 1339 991 1291T734 1243Q477 1243 333 1378T175
1782Q169 1950 166 2094T165 2376T173 2657Q185 2967 337 3097T815 3227Q1134 3227 1281 3098T1432 2657Q1438 2297 1441 1976T1445 1384T1445 898T1439 536Q1428 230 1285 99T825 -32ZM825 69Q575 69 462 175T337 528Q334 603 334 685T334 852T337 1020H401Q400
965 399 900T397 768T398 638T401 526Q412 308 511 214T825 120Q1047 120 1144 220T1249 544Q1253 708 1254 813T1256 951L1268 1671H1254Q1202 1532 1078 1438T752 1344Q528 1344 420 1466T302 1783Q296 1945 293 2087T292 2368T299 2653Q310 2909 431 3017T815
3126Q1073 3126 1187 3017T1306 2655Q1307 2551 1309 2377T1314 1994T1319 1575T1321 1185T1320 891Q1320 870 1319 830T1317 721T1312 541Q1303 280 1186 175T825 69ZM767 1396Q927 1396 1034 1458T1196 1617T1251 1817Q1251 2030 1249 2263T1242 2655Q1238 2889
1134 2982T815 3075Q580 3075 476 2975T363 2650Q357 2499 356 2365T357 2091T366 1784Q374 1599 478 1498T767 1396ZM775 1446Q610 1446 523 1541T429 1784Q422 1963 420 2105T418 2378T426 2648Q434 2847 524 2935T815 3024Q997 3024 1086 2943T1179 2654Q1183
2429 1185 2224T1188 1821Q1188 1661 1086 1554T775 1446ZM787 1497Q959 1497 1042 1587T1125 1817Q1125 2035 1122 2254T1115 2653Q1112 2825 1042 2899T815 2974Q649 2974 573 2898T489 2646Q484 2495 482 2367T483 2101T492 1785Q498 1658 574 1578T787 1497Z"
/>
<glyph unicode=":" horiz-adv-x="687" d="M137 1200V1258H549V1200H137ZM137 1431V1488H549V1431H137ZM137 1315V1373H549V1315H137ZM137 0V58H549V0H137ZM137 231V288H549V231H137ZM137 115V173H549V115H137Z" />
<glyph unicode=";" horiz-adv-x="687" d="M404 -366L492 0V231H137V288H549V0L448 -366H404ZM229 -366L261 0H137V58H319V0L273 -366H229ZM316 -366L376 0V115H137V173H434V0L360 -366H316ZM137 1208V1265H549V1208H137ZM137 1438V1496H549V1438H137ZM137 1323V1381H549V1323H137Z"
/>
<glyph unicode="&lt;" horiz-adv-x="2208" d="M1756 1946L240 1696V1753L1756 2003V1946ZM1756 1229L240 1477V1642L1756 1889V1832L295 1594V1525L1756 1287V1229ZM1756 1344L912 1472L423 1546V1574L912 1645L1756 1775V1717L824 1577L635 1566V1551L824 1539L1756
1401V1344ZM1756 1116L240 1366V1423L1756 1173V1116Z" />
<glyph unicode="=" horiz-adv-x="1832" d="M211 1869V1924H1621V1869H211ZM211 1760V1815H1621V1760H211ZM211 1650V1705H1621V1650H211ZM211 1346V1401H1621V1346H211ZM211 1236V1291H1621V1236H211ZM211 1127V1182H1621V1127H211Z" />
<glyph unicode="&gt;" horiz-adv-x="1939" d="M211 1946V2003L1728 1753V1696L211 1946ZM211 1229V1287L1673 1525V1594L211 1832V1889L1728 1642V1477L211 1229ZM211 1344V1401L1144 1539L1333 1551V1566L1144 1577L211 1717V1775L1056 1645L1545 1574V1546L1056
1472L211 1344ZM211 1116V1173L1728 1423V1366L211 1116Z" />
<glyph unicode="?" horiz-adv-x="1489" d="M697 637L707 1196Q710 1278 746 1338T847 1428L977 1489Q1096 1544 1163 1617T1261 1805T1298 2095Q1300 2140 1300 2195T1299 2354T1296 2644Q1290 2930 1162 3054T729 3178Q449 3178 327 3053T192 2641Q189 2520 189
2381T194 2074H130Q126 2241 126 2381T129 2644Q142 2956 281 3093T729 3230Q952 3230 1089 3171T1291 2983T1359 2644Q1360 2457 1361 2354T1363 2196T1362 2094Q1355 1905 1321 1782T1212 1578T1005 1436L876 1375Q827 1353 797 1306T765 1196L745 637H697ZM497
637L478 1196Q474 1297 501 1385T588 1541T739 1651L869 1710Q935 1740 971 1781T1023 1897T1046 2098Q1048 2142 1048 2195T1046 2352T1042 2644Q1037 2820 973 2895T729 2971Q571 2971 512 2893T445 2629Q442 2516 442 2380T447 2074H383Q379 2244 379 2381T382
2632Q391 2842 466 2932T729 3023Q941 3023 1020 2935T1106 2644Q1107 2455 1108 2353T1110 2196T1109 2098Q1102 1959 1083 1875T1019 1742T896 1655L766 1594Q688 1558 636 1499T559 1363T536 1196L546 637H497ZM596 637L592 1196Q591 1314 643 1403T794 1539L922
1599Q1015 1642 1067 1700T1142 1852T1172 2097Q1174 2142 1174 2196T1172 2353T1169 2644Q1163 2875 1067 2975T729 3075Q511 3075 420 2974T319 2635Q316 2519 316 2382T320 2074H257Q253 2242 252 2381T255 2638Q267 2900 374 3013T729 3126Q1003 3126 1115
3014T1232 2644Q1233 2456 1234 2354T1237 2197T1235 2096Q1228 1932 1201 1828T1115 1658T950 1544L820 1483Q740 1446 696 1371T650 1196L646 637H596ZM418 0V58H830V0H418ZM418 231V288H830V231H418ZM418 115V173H830V115H418Z" />
<glyph unicode="@" horiz-adv-x="2199" d="M1100 -500Q790 -500 598 -437T316 -237T222 122Q216 410 213 663T210 1162T212 1672T222 2245Q227 2476 317 2618T600 2825T1100 2891Q1410 2891 1602 2825T1885 2617T1980 2244Q1983 1993 1983 1787T1984 1401T1982
1049T1978 695Q1975 531 1883 450T1606 373Q1510 375 1437 429T1344 585H1332Q1293 496 1212 435T1017 374Q862 374 772 462T671 734Q666 860 663 1028T662 1370T671 1681Q683 1877 767 1961T999 2045Q1085 2045 1156 2011T1290 1906H1304L1270 2004V2025H1309L1346
1791H1332Q1289 1895 1211 1950T1018 2006Q874 2006 806 1930T726 1678Q718 1530 717 1356T718 1019T726 738Q735 572 817 493T1034 413Q1149 413 1230 489T1341 670H1355Q1358 541 1428 478T1606 412Q1763 409 1841 480T1923 696Q1925 878 1926 1049T1928 1399T1929
1785T1925 2243Q1922 2457 1839 2590T1575 2784T1100 2846Q807 2846 628 2785T366 2592T277 2244Q270 1936 267 1672T264 1163T268 664T277 123Q280 -82 363 -210T626 -396T1100 -455Q1392 -455 1569 -398T1828 -217T1913 111Q1914 144 1913 182T1910 260H1965Q1967
221 1967 183T1968 110Q1965 -111 1876 -245T1596 -439T1100 -500ZM1100 -410Q822 -410 654 -356T411 -183T332 124Q326 412 323 664T320 1162T322 1671T332 2243Q336 2441 412 2564T656 2744T1100 2801Q1378 2801 1546 2744T1790 2564T1871 2241Q1873 1991 1873
1786T1874 1401T1872 1051T1868 698Q1866 572 1801 511T1606 451Q1482 453 1425 527T1370 730L1371 806H1358Q1344 704 1304 625T1198 499T1039 452Q929 452 860 523T781 742Q775 857 773 1020T771 1356T781 1675Q789 1832 851 1899T1027 1967Q1145 1967 1235 1892T1353
1697H1367L1347 2025H1397V740Q1397 495 1606 491Q1709 488 1760 540T1813 699Q1816 880 1817 1050T1818 1400T1819 1784T1816 2240Q1813 2422 1744 2535T1518 2702T1100 2755Q839 2755 684 2703T460 2537T387 2242Q380 1934 377 1671T374 1163T378 666T387 125Q390
-47 458 -155T682 -314T1100 -365Q1361 -365 1513 -316T1733 -162T1803 113Q1804 144 1803 182T1801 260H1855Q1857 220 1858 182T1858 112Q1856 -74 1782 -189T1542 -357T1100 -410ZM1100 -320Q853 -320 710 -274T505 -128T441 126Q436 413 433 665T430 1163T432
1671T441 2241Q445 2406 507 2509T711 2662T1100 2711Q1347 2711 1490 2662T1696 2509T1761 2239Q1764 1989 1764 1784T1764 1401T1763 1052T1758 700Q1757 613 1720 571T1606 530Q1526 532 1489 582T1451 740V2025H1506V740Q1506 648 1528 610T1606 569Q1657 568
1679 599T1704 702Q1706 883 1707 1052T1709 1400T1710 1783T1706 2238Q1704 2387 1649 2481T1463 2621T1100 2666Q869 2666 739 2621T554 2482T496 2240Q489 1933 487 1670T484 1163T488 666T496 127Q498 24 527 -52T625 -177T809 -250T1100 -275Q1274 -275 1388
-252T1568 -181T1663 -60T1694 115Q1694 145 1694 182T1691 260H1746Q1748 220 1748 183T1748 114Q1747 -38 1687 -133T1487 -274T1100 -320ZM1056 492Q1146 492 1209 545T1306 694T1340 915V1586Q1340 1736 1258 1831T1046 1927Q943 1927 894 1868T836 1672Q828
1526 826 1354T827 1021T836 745Q842 616 904 554T1056 492ZM1068 534Q998 534 947 586T890 748Q885 861 882 1022T880 1353T890 1669Q896 1756 918 1803T977 1869T1058 1888Q1134 1888 1186 1851T1266 1740T1294 1561V914Q1294 786 1269 702T1193 576T1068 534ZM1078
574Q1132 574 1168 608T1223 718T1242 914L1243 1551Q1243 1699 1196 1774T1066 1849Q1007 1849 979 1807T945 1665Q937 1522 935 1353T936 1024T945 752Q950 656 989 615T1078 574Z" />
<glyph unicode="A" horiz-adv-x="1553" d="M106 0L450 3200H1103L1447 0H1382L1048 3148H505L171 0H106ZM361 0L461 969H1092L1192 0H1127L1039 916H514L426 0H361ZM233 0L551 3094H1002L1320 0H1255L1151 1019H402L298 0H233ZM405 1071H1144L1055 1983L947 3042H606L495
1983L405 1071ZM477 1125L557 1983L653 2991H900L997 1983L1076 1125H477ZM544 1177H1009L936 1983L848 2939H705L617 1983L544 1177Z" />
<glyph unicode="B" horiz-adv-x="1658" d="M243 0V3200H816Q1018 3200 1156 3149T1367 2973T1444 2627Q1447 2495 1448 2397T1449 2212T1440 2021Q1430 1869 1369 1771T1183 1624V1611Q1311 1570 1386 1450T1467 1170Q1469 1089 1471 1019T1473 878T1471 727T1463
546Q1451 335 1376 216T1164 49T833 0H243ZM306 55H833Q1098 55 1240 160T1399 546Q1406 673 1408 776T1409 974T1403 1167Q1397 1350 1311 1459T1088 1608V1623Q1227 1668 1296 1763T1377 2027Q1384 2120 1385 2210T1385 2402T1380 2626Q1377 2828 1312 2941T1122
3099T816 3145H306V55ZM370 111V3090H816Q976 3090 1086 3049T1255 2908T1317 2626Q1320 2506 1321 2406T1322 2215T1314 2026Q1304 1872 1230 1767T1007 1619V1610Q1161 1572 1246 1460T1337 1166Q1341 1078 1342 988T1342 791T1335 546Q1322 292 1193 202T833
111H370ZM433 1638H857Q1046 1638 1142 1744T1251 2028Q1257 2118 1258 2208T1259 2400T1254 2626Q1248 2871 1133 2953T816 3035H433V1638ZM496 1693V2980H816Q995 2980 1090 2907T1190 2625Q1195 2484 1195 2384T1195 2201T1188 2028Q1179 1883 1099 1788T857
1693H496ZM560 1748H857Q989 1748 1053 1828T1124 2029Q1133 2174 1133 2308T1127 2625Q1123 2805 1041 2865T816 2925H560V1748ZM433 166H833Q1039 166 1150 246T1271 547Q1278 690 1279 791T1279 978T1274 1163Q1267 1369 1161 1476T873 1583H433V166ZM496 220V1527H879Q1035
1527 1120 1429T1211 1159Q1214 1067 1215 981T1216 793T1208 546Q1200 356 1103 288T832 220H496ZM560 275H832Q989 275 1064 336T1145 540Q1151 704 1152 804T1152 982T1147 1156Q1143 1309 1073 1391T881 1473H560V275Z" />
<glyph unicode="C" horiz-adv-x="1670" d="M842 -30Q514 -30 370 98T220 522Q215 923 213 1267T212 1951T220 2676Q225 2972 370 3098T839 3225Q1161 3225 1309 3099T1469 2674Q1473 2596 1474 2524T1476 2381T1474 2238T1468 2088H1404Q1409 2192 1411 2286T1412
2475T1406 2673Q1394 2944 1261 3059T839 3174Q549 3174 419 3059T284 2674Q280 2339 278 1989T276 1273T284 523Q288 243 425 132T842 21Q1141 21 1275 138T1422 523Q1429 667 1428 814T1419 1154H1483Q1492 918 1491 779T1485 522Q1473 228 1325 99T842 -30ZM842
71Q582 71 467 176T347 523Q341 929 339 1272T339 1951T347 2674Q350 2916 465 3020T839 3124Q1112 3124 1222 3013T1343 2669Q1346 2596 1347 2528T1349 2391T1347 2248T1341 2088H1278Q1284 2229 1285 2332T1285 2515T1279 2668Q1270 2874 1175 2973T839 3072Q613
3072 514 2979T411 2673Q407 2338 404 1993T402 1284T411 525Q415 310 515 217T842 123Q1072 123 1178 216T1295 529Q1300 620 1301 716T1300 920T1293 1154H1356Q1362 1002 1363 890T1364 691T1359 527Q1348 292 1233 182T842 71ZM842 173Q650 173 564 254T475
525Q469 896 467 1236T466 1926T474 2673Q477 2860 562 2941T839 3022Q1032 3022 1119 2939T1216 2663Q1220 2564 1221 2471T1221 2284T1214 2088H1151Q1156 2192 1157 2286T1158 2472T1152 2663Q1145 2830 1072 2900T839 2971Q691 2971 616 2906T537 2669Q532
2330 529 1993T528 1297T537 529Q541 359 615 292T842 224Q1011 224 1086 296T1168 533Q1176 673 1175 819T1166 1154H1229Q1237 965 1238 818T1232 533Q1223 341 1133 257T842 173Z" />
<glyph unicode="D" horiz-adv-x="1671" d="M243 0V3200H845Q1025 3200 1159 3158T1370 3001T1450 2668Q1456 2328 1458 1985T1459 1282T1450 533Q1447 315 1374 200T1171 43T868 0H243ZM306 55H868Q984 55 1078 76T1241 149T1347 295T1387 534Q1392 848 1394 1199T1396
1923T1387 2667Q1383 2855 1319 2959T1135 3104T845 3145H306V55ZM370 110V3090H845Q1000 3090 1105 3052T1265 2923T1324 2667Q1328 2409 1330 2151T1333 1629T1331 1093T1324 534Q1321 360 1263 269T1104 144T868 110H370ZM433 165H868Q1066 165 1161 248T1260
536Q1266 882 1268 1233T1269 1942T1260 2666Q1256 2888 1145 2961T845 3035H433V165ZM496 220V2980H845Q947 2980 1025 2956T1149 2864T1196 2664Q1203 2301 1205 1967T1206 1286T1196 537Q1192 340 1102 280T868 220H496ZM560 275H868Q936 275 995 293T1093 368T1133
544Q1139 868 1141 1230T1141 1958T1133 2656Q1130 2823 1051 2874T845 2925H560V275Z" />
<glyph unicode="E" horiz-adv-x="1415" d="M243 0V3200H1303V3145H306V55H1303V0H243ZM496 220V1528H1263V1473H560V275H1303V220H496ZM370 110V3090H1303V3035H433V1638H1263V1583H433V165H1303V110H370ZM496 1693V2980H1303V2925H560V1748H1263V1693H496Z" />
<glyph unicode="F" horiz-adv-x="1402" d="M243 0V3200H1328V3145H306V0H243ZM496 0V1528H1288V1473H560V0H496ZM370 0V3090H1328V3035H433V1638H1288V1583H433V0H370ZM496 1693V2980H1328V2925H560V1748H1288V1693H496Z" />
<glyph unicode="G" horiz-adv-x="1665" d="M852 -27Q536 -27 383 96T223 525Q216 902 213 1251T213 1947T224 2664Q231 2952 369 3089T850 3227Q1171 3227 1315 3099T1472 2676Q1479 2513 1479 2383T1472 2090H1408Q1414 2222 1415 2360T1408 2674Q1397 2953 1261
3065T850 3177Q558 3177 426 3059T286 2661Q279 2299 277 1939T277 1225T286 526Q292 248 429 136T852 23Q1149 23 1281 140T1422 526Q1425 646 1426 762T1428 1007T1424 1293H857V1348H1486Q1492 1094 1492 912T1485 525Q1476 229 1329 101T852 -27ZM852 74Q595
74 476 178T350 530Q342 873 340 1218T339 1921T351 2661Q357 2898 467 3012T850 3126Q1103 3126 1218 3021T1345 2671Q1352 2508 1352 2379T1345 2090H1282Q1289 2247 1289 2376T1282 2666Q1271 2889 1170 2982T850 3075Q614 3075 517 2975T414 2660Q406 2287
403 1936T403 1237T413 529Q419 302 527 214T852 125Q1078 125 1183 217T1295 530Q1298 666 1300 809T1299 1182H857V1238H1363Q1364 1059 1364 875T1358 529Q1351 283 1232 179T852 74ZM852 176Q663 176 572 255T476 530Q470 884 467 1230T466 1929T476 2657Q481
2857 570 2940T850 3024Q1038 3024 1123 2940T1219 2662Q1226 2505 1226 2376T1218 2090H1155Q1161 2216 1162 2304T1161 2473T1155 2660Q1148 2819 1082 2896T850 2974Q689 2974 617 2900T540 2648Q532 2295 530 1939T530 1229T540 534Q543 365 618 296T852 226Q1020
226 1093 299T1171 537Q1174 653 1174 786T1171 1072H857V1127H1236Q1238 938 1238 787T1234 533Q1229 335 1136 256T852 176Z" />
<glyph unicode="H" horiz-adv-x="1709" d="M370 0V3200H433V1638H1276V3200H1340V0H1276V1583H433V0H370ZM497 0V1528H1213V0H1150V1473H560V0H497ZM243 0V3200H306V0H243ZM1403 0V3200H1467V0H1403ZM496 1693V3200H560V1748H1150V3200H1213V1693H496Z" />
<glyph unicode="I" horiz-adv-x="803" d="M496 0V3200H560V0H496ZM243 0V3200H306V0H243ZM370 0V3200H433V0H370Z" />
<glyph unicode="J" horiz-adv-x="1520" d="M690 -27Q389 -27 256 101T114 525Q110 676 109 820T114 1156H177Q174 1044 173 944T173 742T177 526Q186 257 304 140T690 23Q980 23 1106 139T1232 525V3200H1295V525Q1295 229 1155 101T690 -27ZM690 74Q457 74 353
179T241 527Q237 651 236 755T236 956T241 1156H304Q300 1021 299 871T304 531Q312 305 406 215T690 125Q912 125 1008 217T1105 525V3200H1168V525Q1168 283 1057 179T690 74ZM690 176Q513 176 443 263T367 533Q364 644 364 739T364 934T367 1156H431Q427 1020
426 913T427 714T431 533Q435 379 490 303T690 226Q844 226 911 295T978 525V3200H1042V525Q1042 337 960 257T690 176Z" />
<glyph unicode="K" horiz-adv-x="1570" d="M370 0V3200H433V2151L419 910H444L904 2143L1291 3200H1362L839 1796L1414 0H1348L802 1708L433 744V0H370ZM496 0V725L794 1529L1280 0H1214L787 1350L560 711V0H496ZM243 0V3200H306V0H243ZM1482 0L906 1794L1429
3200H1499L975 1792L1548 0H1482ZM461 1127L496 2187V3200H560V2232L515 1425H534L808 2239L1151 3200H1221L856 2196L483 1127H461Z" />
<glyph unicode="L" horiz-adv-x="1326" d="M243 0V3200H306V55H1301V0H243ZM370 110V3200H433V165H1301V110H370ZM496 220V3200H560V275H1301V220H496Z" />
<glyph unicode="M" horiz-adv-x="2595" d="M243 0V3200H946L1127 1591L1257 274H1338L1467 1591L1648 3200H2352V0H2288V3148H1703L1522 1545L1389 222H1206L1072 1545L891 3148H306V0H243ZM501 0V1356L471 2991H732L907 1376L1039 65H1555L1687 1376L1863 2991H2124L2094
1356V0H2031V1320L2062 2939H1914L1742 1321L1615 13H980L853 1321L682 2939H533L564 1320V0H501ZM370 0V1436L355 3096H838L1019 1496L1149 170H1445L1576 1496L1757 3096H2239L2225 1436V0H2162V1390L2179 3043H1813L1632 1426L1500 117H1095L963 1426L781 3043H416L433
1390V0H370Z" />
<glyph unicode="N" horiz-adv-x="2008" d="M243 0V3200H902L1114 1866L1355 261H1490L1448 1872L1441 3200H1506V1872L1544 209H1311L849 3148H306V0H243ZM370 0L372 1367L361 3096H797L1264 157H1595L1571 1872L1574 3200H1638L1635 1872L1647 104H1213L744 3043H412L436
1367L433 0H370ZM501 0V1367L465 2991H697L1159 52H1696L1702 3200H1765L1759 0H1102L886 1379L654 2939H521L555 1367L564 0H501Z" />
<glyph unicode="O" horiz-adv-x="1680" d="M839 -27Q513 -27 370 105T220 543Q216 845 214 1104T211 1608T213 2108T220 2656Q226 2962 369 3094T839 3227Q1157 3227 1303 3097T1457 2657Q1462 2396 1465 2145T1469 1639T1466 1113T1457 542Q1450 228 1301 101T839
-27ZM839 25Q1118 25 1253 140T1393 544Q1399 819 1401 1073T1404 1579T1403 2095T1393 2655Q1388 2939 1255 3057T839 3175Q546 3175 418 3054T284 2655Q280 2414 278 2182T275 1703T276 1172T284 544Q288 256 424 141T839 25ZM839 77Q581 77 467 185T347 544Q343
845 341 1104T338 1608T340 2108T347 2655Q352 2906 466 3014T839 3123Q1089 3123 1206 3017T1330 2653Q1335 2406 1338 2156T1342 1648T1339 1115T1330 545Q1325 284 1204 181T839 77ZM839 130Q1047 130 1154 220T1267 547Q1272 817 1274 1074T1277 1586T1276
2104T1267 2652Q1262 2885 1158 2977T839 3070Q614 3070 515 2974T411 2653Q406 2394 404 2145T401 1641T402 1117T411 545Q415 323 514 227T839 130ZM839 182Q648 182 563 267T474 550Q468 896 466 1241T466 1937T474 2652Q477 2858 568 2938T839 3018Q1024 3018
1111 2936T1203 2651Q1209 2395 1212 2146T1215 1643T1213 1119T1203 549Q1199 344 1110 263T839 182ZM839 234Q990 234 1063 305T1140 554Q1144 816 1146 1066T1149 1569T1147 2087T1140 2645Q1137 2829 1061 2897T839 2966Q687 2966 614 2896T537 2649Q532 2317
530 1985T528 1300T537 549Q541 381 611 308T839 234Z" />
<glyph unicode="P" horiz-adv-x="1550" d="M243 0V3200H835Q1030 3200 1156 3150T1345 2986T1414 2683Q1423 2408 1423 2198T1414 1768Q1406 1569 1338 1456T1144 1297T832 1250H560V0H496V1305H832Q990 1305 1103 1344T1280 1483T1351 1769Q1358 1935 1360 2075T1360
2359T1351 2681Q1344 2865 1282 2965T1107 3105T835 3145H306V0H243ZM370 0V3090H835Q975 3090 1074 3054T1227 2929T1287 2679Q1295 2443 1296 2214T1287 1773Q1280 1609 1224 1520T1069 1395T832 1360H433V0H370ZM433 1416H832Q1012 1416 1113 1487T1224 1775Q1231
1922 1232 2061T1232 2349T1224 2676Q1217 2885 1117 2960T835 3035H433V1416ZM496 1471V2980H835Q986 2980 1071 2917T1161 2674Q1166 2491 1167 2340T1168 2052T1161 1776Q1154 1598 1072 1535T832 1471H496ZM560 1526H832Q952 1526 1022 1576T1097 1780Q1107
1997 1106 2202T1097 2673Q1093 2824 1025 2874T835 2925H560V1526Z" />
<glyph unicode="Q" horiz-adv-x="1680" d="M1210 -465Q976 -484 851 -375T709 -19Q460 4 343 131T220 543Q216 828 214 1085T211 1591T213 2102T220 2656Q226 2962 370 3094T839 3227Q1159 3227 1304 3096T1457 2657Q1462 2389 1465 2139T1469 1636T1466 1116T1457
542Q1451 279 1351 150T1027 -15Q1028 -125 1081 -167T1210 -204V-258Q1083 -267 1021 -197T957 30Q1186 50 1287 169T1393 544Q1399 818 1401 1071T1404 1574T1403 2089T1393 2655Q1388 2939 1256 3058T839 3177Q546 3177 418 3055T284 2655Q280 2414 278 2177T275
1687T276 1154T284 544Q288 280 401 160T770 29Q774 -212 883 -320T1210 -411V-465ZM1210 -362Q1006 -379 915 -269T833 79Q578 80 465 187T347 544Q343 843 341 1112T338 1635T340 2140T347 2655Q352 2907 466 3016T839 3126Q1090 3126 1207 3019T1330 2653Q1335
2400 1338 2149T1342 1642T1339 1114T1330 545Q1325 307 1224 198T897 79Q887 -131 964 -226T1210 -308V-362ZM839 131Q1049 131 1155 221T1267 547Q1272 821 1275 1085T1278 1608T1275 2127T1267 2652Q1262 2884 1160 2979T839 3075Q622 3075 519 2981T411 2653Q404
2284 402 1954T402 1284T411 545Q415 323 514 227T839 131ZM839 183Q631 183 555 275T475 545Q469 922 467 1257T466 1928T474 2648Q477 2851 562 2937T839 3024Q1030 3024 1114 2937T1203 2651Q1209 2384 1212 2135T1215 1635T1213 1117T1203 548Q1199 352 1115
268T839 183ZM839 235Q997 235 1067 309T1140 554Q1145 825 1147 1084T1149 1597T1147 2110T1140 2645Q1137 2823 1067 2898T839 2974Q682 2974 612 2899T537 2649Q533 2407 531 2160T528 1655T529 1121T537 549Q541 381 610 308T839 235Z" />
<glyph unicode="R" horiz-adv-x="1616" d="M243 0V3200H861Q1056 3200 1181 3150T1370 2986T1440 2683Q1448 2431 1448 2191T1440 1716Q1433 1529 1370 1426T1170 1269L1485 0H1419L1092 1304Q1239 1341 1304 1437T1377 1718Q1387 1959 1387 2194T1377 2681Q1370
2862 1309 2963T1135 3104T861 3145H306V0H243ZM496 0V1282H808Q832 1282 855 1282T901 1283L1221 0H1156L853 1228Q843 1227 832 1227T810 1227H560V0H496ZM370 0V3090H861Q1006 3090 1104 3053T1255 2927T1313 2680Q1321 2447 1322 2205T1313 1722Q1306 1547
1236 1460T1012 1347L1353 0H1287L948 1340Q927 1339 904 1338T858 1337H433V0H370ZM433 1393H858Q1046 1393 1144 1463T1250 1723Q1260 1969 1260 2200T1250 2676Q1242 2884 1144 2959T861 3035H433V1393ZM496 1448V2980H861Q1027 2980 1104 2911T1187 2674Q1193
2424 1194 2188T1187 1724Q1180 1565 1098 1507T858 1448H496ZM560 1503H858Q987 1503 1053 1551T1123 1728Q1131 1956 1131 2194T1123 2673Q1119 2821 1051 2873T861 2925H560V1503Z" />
<glyph unicode="S" horiz-adv-x="1605" d="M807 -27Q493 -27 345 98T187 525Q184 636 184 740T185 946T193 1156H256Q252 1071 249 976T246 771T251 527Q260 253 391 138T807 23Q1091 23 1218 140T1356 527Q1360 610 1361 698T1362 877T1357 1059Q1348 1323 1229
1458T899 1650L684 1708Q600 1731 546 1774T466 1902T435 2132Q432 2266 433 2397T438 2673Q442 2861 528 2942T804 3024Q975 3024 1061 2946T1154 2669Q1157 2564 1156 2410T1151 2090H1088Q1092 2257 1092 2407T1090 2667Q1086 2833 1019 2903T804 2974Q651 2974
578 2905T501 2669Q498 2534 497 2400T498 2133Q501 2001 524 1928T591 1821T699 1769L913 1710Q1153 1644 1281 1493T1421 1061Q1424 977 1424 884T1424 699T1419 525Q1407 229 1265 101T807 -27ZM807 74Q555 74 439 178T314 529Q311 642 311 744T312 948T318
1156H382Q377 1059 375 961T373 757T377 531Q385 312 485 219T807 125Q1025 125 1123 220T1229 531Q1233 616 1234 702T1235 877T1231 1054Q1226 1197 1184 1291T1063 1443T872 1530L654 1588Q548 1616 472 1671T354 1835T308 2128Q306 2214 306 2306T307 2491T311
2676Q317 2918 432 3022T804 3126Q1042 3126 1157 3025T1280 2672Q1283 2570 1283 2411T1278 2090H1214Q1219 2256 1219 2411T1217 2671Q1210 2898 1109 2986T804 3075Q581 3075 481 2983T374 2674Q371 2547 370 2402T372 2130Q376 1966 409 1870T508 1724T669
1647L885 1590Q1072 1540 1178 1420T1294 1056Q1298 959 1298 872T1298 701T1292 529Q1283 288 1171 181T807 74ZM807 176Q619 176 533 258T441 533Q438 636 437 735T437 937T445 1156H507Q503 1038 501 941T500 747T504 534Q509 368 580 297T807 226Q958 226 1026
298T1102 534Q1106 631 1107 715T1109 881T1104 1049Q1100 1161 1070 1233T983 1347T844 1411L625 1469Q483 1507 386 1579T238 1782T182 2125Q179 2243 179 2383T184 2679Q192 2978 339 3102T804 3227Q1099 3227 1248 3107T1407 2677Q1410 2578 1410 2422T1404
2090H1341Q1346 2252 1346 2409T1344 2674Q1336 2953 1205 3065T804 3177Q516 3177 386 3062T248 2677Q244 2560 243 2401T245 2126Q249 1938 292 1819T421 1632T640 1528L858 1470Q950 1447 1017 1400T1124 1269T1167 1052Q1170 967 1171 881T1171 708T1166 533Q1158
342 1075 259T807 176Z" />
<glyph unicode="T" horiz-adv-x="1345" d="M642 0V3035H29V3090H1317V3035H705V0H642ZM515 0V2925H29V2980H578V0H515ZM768 0V2980H1317V2925H832V0H768ZM29 3145V3200H1317V3145H29Z" />
<glyph unicode="U" horiz-adv-x="1656" d="M829 -27Q504 -27 362 99T215 517Q211 845 209 1178T207 1848T210 2522T215 3200H278Q275 2880 273 2549T270 1879T272 1200T278 518Q282 250 411 137T829 23Q1115 23 1244 136T1378 518Q1382 849 1384 1183T1386 1852T1384
2525T1378 3200H1441Q1446 2750 1448 2305T1449 1414T1441 517Q1437 226 1295 100T829 -27ZM829 74Q571 74 458 177T342 519Q338 853 336 1187T334 1856T336 2526T342 3200H405Q402 2877 400 2545T397 1875T399 1198T405 519Q408 306 507 216T829 125Q1050 125
1149 215T1251 519Q1256 850 1257 1184T1259 1853T1257 2525T1251 3200H1314Q1317 2862 1319 2528T1322 1860T1321 1192T1314 519Q1311 281 1198 178T829 74ZM829 176Q640 176 556 255T468 520Q462 967 461 1412T461 2303T468 3200H532Q529 2879 527 2547T524 1876T526
1198T532 521Q534 367 601 297T829 226Q988 226 1055 296T1124 521Q1130 967 1131 1411T1131 2303T1124 3200H1187Q1191 2862 1193 2528T1196 1860T1194 1192T1187 520Q1185 333 1101 255T829 176Z" />
<glyph unicode="V" horiz-adv-x="1581" d="M474 0L111 3200H175L530 52H1051L1406 3200H1470L1107 0H474ZM577 104L446 1412L239 3200H304L505 1449L634 157H947L1076 1449L1277 3200H1342L1135 1412L1003 104H577ZM680 209L562 1472L372 3200H435L618 1500L731
261H850L962 1500L1146 3200H1209L1019 1472L901 209H680Z" />
<glyph unicode="W" horiz-adv-x="2554" d="M357 0L140 3200H203L414 52H935L1156 2976H1394L1613 52H2133L2351 3200H2414L2191 0H1558L1339 2924H1211L990 0H357ZM459 104L377 1468L267 3200H332L438 1515L518 157H832L924 1500L1048 3081H1502L1626 1479L1715
157H2029L2111 1488L2222 3200H2286L2171 1442L2088 104H1660L1571 1432L1449 3028H1102L978 1449L887 104H459ZM565 209L492 1550L391 3200H454L550 1585L618 261H731L815 1582L932 3185H1618L1735 1560L1817 261H1929L1999 1564L2099 3200H2162L2056 1526L1983
209H1765L1682 1520L1564 3133H986L869 1541L783 209H565Z" />
<glyph unicode="X" horiz-adv-x="1477" d="M210 0L443 1087L552 1631L422 2278L228 3200H294L478 2317L605 1656H875L1000 2317L1183 3200H1249L1055 2278L927 1631L1034 1087L1269 0H1203L980 1048L876 1603H604L497 1048L276 0H210ZM343 0L546 1000L650 1549H829L932
1000L1134 0H1067L876 961L783 1497H695L602 961L411 0H343ZM81 0L425 1631L98 3200H164L490 1631L148 0H81ZM1330 0L987 1631L1313 3200H1379L1052 1631L1396 0H1330ZM649 1709L536 2347L360 3200H425L588 2379L693 1764H785L889 2379L1052 3200H1117L942 2347L830
1709H649Z" />
<glyph unicode="Y" horiz-adv-x="1515" d="M726 0V1215H580L352 2483L209 3200H272L416 2483L624 1270H891L1100 2483L1243 3200H1306L1163 2483L935 1215H789V0H726ZM599 0V1104H496L81 3200H145L544 1159H662V0H599ZM852 0V1159H970L1370 3200H1434L1019 1104H916V0H852ZM660
1325L476 2483L335 3200H399L538 2483L707 1380H806L978 2483L1116 3200H1179L1040 2483L854 1325H660Z" />
<glyph unicode="Z" horiz-adv-x="1304" d="M342 220L1168 2973V3145H106V3200H1232V2963L436 275H1166V220H342ZM72 0V226L872 2925H106V2980H964L135 219V55H1166V0H72ZM199 110V210L1041 2999V3035H106V3090H1105V2984L262 200V165H1166V110H199Z" />
<glyph unicode="[" horiz-adv-x="1149" d="M211 -800V3200H1029V3146H275V-746H1029V-800H211ZM338 -691V3091H1029V3036H402V-636H1029V-691H338ZM465 -581V2981H1029V2927H528V-527H1029V-581H465Z" />
<glyph unicode="\" horiz-adv-x="1422" d="M929 -800H866L-11 3200H52L929 -800ZM1182 -800H1119L242 3200H305L1182 -800ZM1056 -800H992L115 3200H179L1056 -800Z" />
<glyph unicode="]" horiz-adv-x="1360" d="M937 -800H120V-746H874V3146H120V3200H937V-800ZM810 -691H120V-636H747V3036H120V3091H810V-691ZM684 -581H120V-527H620V2927H120V2981H684V-581Z" />
<glyph unicode="^" horiz-adv-x="1677" d="M357 2288L800 3200H877L1320 2288H1249L941 2937L853 3134H825L735 2937L428 2288H357ZM211 2288L662 3200H733L284 2288H211ZM498 2288L776 2893L820 3015H857L901 2893L1179 2288H1108L858 2859L844 2921H832L818
2860L570 2288H498ZM1394 2288L945 3200H1015L1466 2288H1394Z" />
<glyph unicode="_" horiz-adv-x="2704" d="M120 -229V-160H2584V-229H120Z" />
<glyph unicode="`" horiz-adv-x="1110" d="M583 2580L199 3071H272L642 2580H583ZM699 2580L342 3071H415L757 2580H699ZM814 2580L485 3071H558L873 2580H814Z" />
<glyph unicode="a" horiz-adv-x="1557" d="M1283 0V1843Q1283 2105 1179 2242T787 2379Q540 2379 405 2281T259 1918Q255 1826 255 1741T262 1566H199Q193 1666 192 1748T195 1920Q207 2192 346 2311T787 2430Q1007 2430 1128 2361T1298 2161T1346 1843V0H1283ZM667
122Q819 122 928 194T1096 377T1155 607V1320Q1031 1282 905 1236T691 1147Q519 1061 434 944T336 630Q333 579 334 540T339 454Q354 299 438 211T667 122ZM678 176Q555 176 484 254T401 462Q398 499 398 540T399 623Q408 810 486 915T714 1097Q811 1146 900 1182T1091
1250V603Q1091 493 1041 396T899 237T678 176ZM684 225Q785 225 862 276T984 413T1028 598V1180Q954 1152 885 1121T740 1049Q594 972 531 876T462 620Q461 581 461 542T465 467Q473 360 530 293T684 225ZM624 -28Q420 -28 294 94T149 442Q145 494 145 542T146
645Q159 874 267 1026T619 1295Q678 1324 738 1350T870 1403T1029 1459V1843Q1029 1996 978 2086T787 2176Q648 2176 583 2109T511 1901Q509 1848 509 1756T513 1566H450Q446 1656 446 1749T448 1904Q455 2079 539 2153T787 2227Q969 2227 1031 2122T1093 1843V1416Q968
1375 849 1331T643 1246Q433 1147 326 1003T210 641Q208 592 208 545T212 447Q228 248 339 135T638 22Q815 22 929 98T1116 304H1130L1097 85V0H1035L1034 41L1076 183H1063Q983 72 876 22T624 -28ZM1156 0V179L1172 450H1157Q1097 278 969 175T651 72Q491 72 391
172T275 450Q272 499 272 542T273 637Q283 846 375 974T668 1197Q727 1225 808 1256T979 1318T1157 1374V1843Q1157 2043 1082 2160T787 2277Q588 2277 490 2192T384 1906Q382 1846 382 1753T388 1566H325Q320 1654 319 1748T321 1907Q330 2130 439 2229T787 2329Q1036
2329 1127 2204T1219 1843V0H1156Z" />
<glyph unicode="b" horiz-adv-x="1649" d="M222 0V3200H286V0H222ZM349 0V3200H412V2638L401 1912H416Q456 2101 584 2215T905 2328Q1117 2326 1216 2217T1327 1858Q1339 1632 1343 1416T1344 984T1327 545Q1313 297 1219 184T915 71Q724 71 582 183T409 492H394L412
0H349ZM890 121Q1069 121 1161 213T1265 548Q1278 864 1279 1176T1264 1859Q1254 2082 1167 2179T890 2276Q746 2276 646 2214T490 2048T425 1816Q413 1629 411 1412T413 980T426 585Q432 446 493 341T658 179T890 121ZM873 173Q679 173 586 295T486 586Q479 773
476 993T475 1427T486 1811Q495 1984 594 2106T883 2228Q1047 2228 1120 2141T1202 1856Q1210 1626 1213 1412T1214 985T1202 547Q1193 340 1114 257T873 173ZM872 224Q1003 224 1067 296T1138 548Q1151 845 1152 1163T1138 1855Q1131 2028 1071 2102T882 2176Q728
2176 643 2069T550 1810Q542 1628 540 1405T540 965T550 589Q557 440 634 332T872 224ZM939 -30Q803 -30 688 23T504 170H490L524 24L525 0H463L435 292H450Q518 166 645 94T926 21Q1153 21 1264 140T1391 545Q1403 757 1406 973T1406 1412T1391 1859Q1375 2147
1263 2262T926 2378Q760 2378 639 2303T457 2098H442L473 2644V3200H539V2662L488 2218H504Q581 2326 696 2378T948 2430Q1194 2430 1315 2301T1453 1863Q1465 1632 1469 1414T1470 981T1453 539Q1435 232 1313 101T939 -30Z" />
<glyph unicode="c" horiz-adv-x="1545" d="M790 -30Q478 -30 341 93T192 495Q184 674 181 855T178 1214T181 1565T192 1903Q205 2197 351 2313T787 2430Q1086 2430 1228 2314T1377 1914Q1378 1840 1378 1747T1373 1566H1312Q1317 1640 1317 1727T1313 1912Q1308
2163 1186 2271T787 2379Q514 2379 391 2268T255 1899Q248 1748 245 1583T241 1242T244 879T255 495Q266 239 393 130T790 21Q1060 21 1181 132T1313 494Q1318 593 1317 678T1309 839H1373Q1379 766 1380 680T1377 492Q1365 213 1229 92T790 -30ZM790 71Q556 71
442 169T318 498Q311 693 308 876T304 1231T308 1569T318 1895Q328 2134 441 2231T787 2329Q1027 2329 1136 2234T1250 1910Q1252 1817 1252 1734T1248 1566H1185Q1190 1642 1190 1730T1187 1909Q1183 2112 1086 2194T787 2277Q578 2277 485 2187T382 1892Q375
1724 372 1558T368 1222T370 873T382 502Q390 303 485 213T790 123Q991 123 1084 212T1187 497Q1191 584 1191 668T1183 839H1246Q1252 757 1253 678T1250 495Q1240 274 1133 173T790 71ZM790 173Q612 173 532 254T445 505Q438 701 434 876T430 1217T434 1548T445
1892Q453 2071 532 2149T787 2227Q963 2227 1041 2154T1123 1905Q1125 1837 1126 1746T1121 1566H1057Q1063 1656 1062 1738T1060 1905Q1058 2050 995 2113T787 2176Q645 2176 580 2109T507 1882Q501 1715 498 1552T494 1222T497 879T508 507Q514 365 580 295T790
224Q930 224 993 296T1060 502Q1064 593 1063 673T1057 839H1121Q1125 761 1126 676T1123 500Q1117 334 1039 254T790 173Z" />
<glyph unicode="d" horiz-adv-x="1649" d="M1427 0H1363V3200H1427V0ZM1300 0H1241L1254 492H1241Q1209 295 1068 183T734 71Q536 71 437 177T321 546Q311 743 307 953T306 1390T322 1859Q335 2119 447 2223T779 2327Q962 2327 1080 2217T1235 1912H1250L1237
2506V3200H1300V0ZM760 121Q888 121 990 178T1154 339T1223 585Q1232 767 1236 983T1239 1415T1225 1811Q1215 1951 1163 2055T1018 2217T795 2276Q587 2276 491 2180T385 1857Q375 1612 372 1398T371 976T385 543Q395 317 482 219T760 121ZM776 173Q610 173 533
260T447 548Q439 770 436 979T436 1405T448 1862Q456 2055 538 2141T801 2228Q975 2228 1064 2119T1163 1811Q1170 1656 1173 1450T1174 1020T1163 585Q1156 416 1063 295T776 173ZM778 224Q937 224 1015 331T1100 587Q1107 751 1109 963T1110 1397T1100 1810Q1092
1986 1019 2081T802 2176Q656 2176 588 2103T512 1862Q498 1515 497 1201T511 548Q519 366 584 295T778 224ZM710 -30Q447 -30 330 107T196 544Q184 762 180 971T180 1399T196 1860Q213 2161 343 2295T747 2430Q887 2430 992 2375T1151 2228H1166L1110 2689V3200H1176V2620L1215
2108H1195Q1126 2253 1014 2315T765 2378Q523 2378 399 2263T259 1862Q247 1612 243 1393T243 966T259 540Q276 256 387 139T724 21Q871 21 997 91T1195 292H1211L1190 0H1129V24L1159 170H1146Q1081 81 967 26T710 -30Z" />
<glyph unicode="e" horiz-adv-x="1537" d="M793 -30Q496 -30 349 86T190 487Q184 665 181 849T178 1218T181 1577T190 1908Q204 2196 349 2313T790 2430Q1088 2430 1225 2312T1375 1914Q1377 1884 1378 1795T1379 1583T1378 1331T1370 1094H496Q497 988 498 891T501
700T506 507Q512 356 578 290T793 224Q919 224 984 285T1058 504Q1062 575 1061 670T1055 839H1119Q1124 753 1124 658T1121 502Q1112 326 1036 250T793 173Q612 173 531 251T443 505Q439 614 437 724T433 941T431 1146H1309Q1313 1254 1314 1374T1316 1605T1314
1798T1311 1911Q1300 2163 1179 2271T790 2379Q526 2379 395 2272T253 1899Q247 1761 244 1589T241 1228T244 853T253 499Q263 245 387 133T793 21Q1055 21 1177 130T1311 495Q1313 537 1313 598T1313 723T1308 839H1371Q1377 762 1377 659T1375 492Q1361 213 1226
92T793 -30ZM793 71Q559 71 443 166T316 498Q311 645 308 822T305 1187T307 1557T316 1895Q326 2135 441 2232T790 2329Q1024 2329 1131 2232T1248 1910Q1250 1873 1251 1760T1253 1497T1247 1198H368Q368 1022 371 839T380 502Q388 294 487 209T793 123Q989 123
1081 209T1185 499Q1188 561 1188 660T1182 839H1245Q1250 758 1250 660T1248 497Q1237 269 1131 170T793 71ZM368 1250H1185Q1189 1383 1189 1518T1188 1758T1185 1906Q1176 2104 1085 2190T790 2277Q580 2277 485 2189T380 1892Q374 1746 372 1578T368 1250ZM432
1303Q432 1377 433 1477T437 1684T443 1889Q450 2071 531 2149T790 2227Q960 2227 1037 2152T1121 1904Q1123 1862 1124 1766T1126 1547T1122 1303H432ZM496 1355H1059Q1062 1475 1062 1587T1061 1783T1058 1900Q1052 2041 993 2108T790 2176Q641 2176 577 2107T506
1887Q504 1793 502 1705T498 1530T496 1355Z" />
<glyph unicode="f" horiz-adv-x="1089" d="M407 0L404 2235H67V2290H403V2707Q403 2913 500 3020T861 3128Q939 3128 1007 3123T1138 3108V3059Q1083 3068 1016 3072T861 3076Q628 3076 548 2980T467 2707V2290H1065V2235H468L470 0H407ZM280 0V2125H67V2180H344V0H280ZM532
0V2180H1065V2125H597V0H532ZM67 2345V2400H279L277 2707Q275 2979 407 3104T861 3229Q942 3229 1010 3223T1138 3203V3155Q1073 3167 1004 3172T861 3178Q562 3178 451 3060T341 2707L343 2345H67ZM532 2345L530 2707Q529 2874 603 2950T861 3026Q928 3026 993
3023T1138 3010V2960Q1057 2969 988 2972T861 2975Q708 2975 651 2909T593 2707L596 2400H1065V2345H532Z" />
<glyph unicode="g" horiz-adv-x="1632" d="M781 -674Q470 -674 315 -576T141 -273Q139 -245 140 -216T145 -157Q156 -40 215 29T387 130V144Q302 169 260 216T210 349Q209 369 209 394T210 440Q216 535 259 596T409 688V702Q316 734 252 832T179 1088Q174 1183
172 1280T170 1478T172 1683T178 1899Q190 2183 333 2306T777 2430Q979 2430 1081 2373T1222 2203H1235Q1273 2272 1340 2316T1484 2380T1624 2400V2348Q1464 2349 1365 2285T1230 2121H1215Q1182 2252 1082 2315T777 2379Q511 2379 381 2269T242 1901Q236 1749
234 1616T233 1356T242 1094Q251 919 319 824T500 700V686Q373 656 322 599T264 440Q262 417 262 395T264 348Q271 264 315 220T474 144V130Q336 101 275 35T199 -157Q194 -189 192 -212T193 -272Q211 -455 346 -541T781 -628Q1088 -628 1228 -540T1386 -256Q1390
-220 1390 -194T1384 -132Q1365 39 1227 118T791 206Q662 211 585 226T470 271T424 348Q420 365 419 395T419 441Q434 543 513 579T778 615Q1058 613 1176 735T1307 1095Q1314 1241 1315 1357T1314 1598T1307 1897Q1303 2033 1384 2118T1624 2200V2149Q1486 2151
1424 2076T1364 1886Q1368 1745 1371 1621T1374 1370T1366 1093Q1352 811 1213 688T777 565Q673 565 609 554T514 515T476 432Q475 427 475 402T478 365Q486 325 517 303T615 270T792 256Q1116 247 1270 155T1441 -134Q1444 -167 1444 -196T1442 -256Q1425 -472
1268 -573T781 -674ZM781 -535Q960 -535 1067 -503T1223 -409T1278 -262Q1281 -221 1281 -195T1276 -132Q1268 -55 1218 -2T1064 81T789 119Q547 130 434 65T298 -159Q294 -187 292 -213T294 -276Q309 -415 425 -475T781 -535ZM781 -490Q559 -490 458 -439T344
-273Q341 -245 342 -218T349 -156Q369 -11 475 37T796 78Q937 73 1029 50T1168 -19T1224 -133Q1229 -176 1229 -201T1225 -257Q1213 -381 1110 -435T781 -490ZM781 -442Q910 -442 991 -424T1115 -365T1166 -256Q1170 -225 1170 -195T1164 -133Q1158 -81 1119 -48T999
4T790 29Q595 39 507 -7T403 -156Q396 -184 396 -216T399 -273Q410 -359 498 -400T781 -442ZM781 -583Q506 -583 382 -511T241 -272Q239 -239 240 -214T245 -156Q258 -26 334 41T574 131V145Q445 162 384 209T312 348Q309 372 309 395T310 441Q316 550 385 608T590
688V700Q460 728 387 822T304 1098Q298 1216 297 1343T297 1608T304 1897Q313 2131 429 2230T777 2329Q984 2329 1083 2252T1205 1999H1219Q1243 2098 1293 2164T1425 2266T1624 2302V2250Q1442 2253 1342 2154T1248 1902Q1252 1758 1253 1621T1254 1353T1247 1100Q1235
870 1123 767T776 664Q662 665 573 645T432 578T370 450Q367 425 367 396T370 350Q384 245 486 210T790 167Q964 162 1081 130T1261 33T1335 -131Q1338 -160 1339 -191T1337 -256Q1322 -437 1184 -510T781 -583ZM777 720Q975 720 1075 809T1185 1099Q1191 1231
1192 1357T1191 1617T1183 1901Q1176 2107 1075 2192T777 2277Q560 2277 467 2183T367 1895Q361 1666 361 1486T367 1092Q375 898 476 809T777 720ZM777 770Q601 770 519 851T430 1101Q423 1292 423 1482T430 1892Q436 2071 520 2149T777 2227Q946 2227 1030 2151T1120
1901Q1126 1748 1128 1614T1129 1355T1121 1103Q1113 928 1029 849T777 770ZM777 821Q909 821 980 888T1058 1107Q1064 1225 1065 1349T1065 1609T1057 1899Q1051 2051 979 2113T777 2176Q641 2176 569 2112T492 1890Q487 1686 486 1494T492 1103Q499 955 569 888T777
821Z" />
<glyph unicode="h" horiz-adv-x="1675" d="M1401 0V1859Q1401 2026 1362 2141T1225 2317T953 2377Q778 2377 652 2304T454 2098H440L471 2583V3200H535V2661L489 2219H502Q584 2331 704 2381T969 2431Q1162 2431 1269 2366T1420 2175T1464 1868V0H1401ZM222 0V3200H286V0H222ZM476
0V1800Q476 1910 529 2003T679 2154T904 2211Q1085 2211 1148 2115T1212 1842V0H1149V1839Q1149 1988 1098 2073T896 2158Q796 2158 716 2112T589 1985T542 1804L539 0H476ZM349 0V3200H412V2503L398 1953H414Q473 2126 608 2224T935 2322Q1172 2321 1255 2201T1338
1856V0H1275V1850Q1275 2052 1201 2160T918 2269Q763 2269 650 2201T476 2025T414 1797V0H349Z" />
<glyph unicode="i" horiz-adv-x="761" d="M222 3114V3172H539V3114H222ZM222 2883V2941H539V2883H222ZM222 2999V3056H539V2999H222ZM476 0V2400H539V0H476ZM222 0V2400H286V0H222ZM349 0V2400H412V0H349Z" />
<glyph unicode="j" horiz-adv-x="769" d="M230 3114V3172H547V3114H230ZM230 2883V2941H547V2883H230ZM230 2999V3056H547V2999H230ZM-47 -824Q-121 -824 -202 -819T-330 -802V-749Q-277 -759 -196 -764T-47 -770Q235 -770 358 -661T482 -302V2400H546V-302Q546
-581 407 -702T-47 -824ZM-47 -716Q-114 -716 -194 -711T-330 -695V-643Q-270 -650 -190 -656T-47 -663Q167 -663 261 -577T356 -301V2400H420V-301Q420 -521 311 -618T-47 -716ZM-47 -609Q-105 -609 -184 -603T-330 -589V-535Q-262 -545 -182 -549T-47 -554Q100
-554 165 -492T230 -301V2400H293V-301Q293 -460 214 -534T-47 -609Z" />
<glyph unicode="k" horiz-adv-x="1457" d="M349 0V3200H412V2135L398 988H426L991 2118L1125 2400H1198L727 1456L1315 0H1246L688 1385L412 857V0H349ZM476 0V840L680 1238L1178 0H1110L671 1091L539 823V0H476ZM222 0V3200H286V0H222ZM1383 0L798 1451L1271
2400H1344L868 1447L1452 0H1383ZM439 1154L476 2174V3200H539V2215L495 1371H514L889 2197L979 2400H1053L942 2161L461 1154H439Z" />
<glyph unicode="l" horiz-adv-x="761" d="M476 0V3200H539V0H476ZM222 0V3200H286V0H222ZM349 0V3200H412V0H349Z" />
<glyph unicode="m" horiz-adv-x="2488" d="M2215 0V1859Q2215 2024 2178 2140T2049 2316T1790 2377Q1621 2377 1501 2305T1312 2098H1299Q1263 2247 1173 2312T922 2377Q748 2377 638 2302T454 2098H439L471 2400H535V2367L495 2219H509Q591 2330 692 2380T939
2431Q1090 2431 1181 2379T1326 2209H1344Q1423 2321 1541 2376T1806 2431Q1991 2431 2093 2365T2236 2173T2277 1868V0H2215ZM222 0V2400H286V0H222ZM476 0V1800Q476 1910 521 2003T656 2154T874 2211Q1040 2211 1099 2116T1159 1842V0H1096V1839Q1096 1988 1050
2073T866 2158Q765 2158 692 2112T580 1985T541 1804V0H476ZM349 0V2400H412L399 1953H414Q473 2121 593 2221T905 2322Q1088 2322 1169 2233T1265 1953H1278Q1329 2132 1457 2227T1773 2322Q1923 2322 2005 2267T2119 2108T2151 1856V0H2088V1850Q2088 2052 2019
2160T1755 2269Q1607 2269 1503 2209T1343 2048T1287 1830V0H1221V1850Q1221 2052 1152 2160T887 2269Q722 2269 618 2194T464 2010T414 1797V0H349ZM1350 0V1834Q1350 1949 1396 2033T1531 2164T1741 2211Q1852 2211 1914 2169T2001 2044T2026 1842V0H1962V1839Q1962
1993 1914 2075T1733 2158Q1634 2158 1561 2119T1449 2008T1409 1839V0H1350Z" />
<glyph unicode="n" horiz-adv-x="1675" d="M1401 0V1859Q1401 1948 1386 2039T1326 2206T1191 2330T953 2377Q779 2377 653 2302T454 2098H439L471 2400H535V2367L495 2219H509Q593 2330 708 2380T969 2431Q1100 2431 1188 2397T1331 2305T1415 2173T1454 2021T1464
1868V0H1401ZM222 0V2400H286V0H222ZM476 0V1800Q476 1910 529 2003T679 2154T904 2211Q1004 2211 1065 2179T1158 2094T1201 1976T1212 1842V0H1149V1839Q1149 1923 1131 1995T1059 2113T896 2158Q796 2158 716 2112T589 1985T542 1804L539 0H476ZM349 0V2400H412L399
1953H414Q473 2126 608 2224T935 2322Q1163 2321 1250 2198T1338 1856V0H1275V1850Q1275 2053 1196 2161T918 2269Q763 2269 650 2201T476 2025T414 1797V0H349Z" />
<glyph unicode="o" horiz-adv-x="1598" d="M800 -30Q487 -30 348 101T193 532Q184 745 181 961T180 1402T193 1867Q208 2179 355 2304T800 2430Q1105 2430 1248 2301T1405 1865Q1420 1526 1420 1188T1405 532Q1390 220 1243 95T800 -30ZM800 21Q1071 21 1199 138T1342
536Q1356 832 1357 1164T1342 1863Q1329 2145 1200 2262T800 2379Q526 2379 398 2261T257 1863Q246 1616 243 1393T243 958T257 536Q269 258 397 140T800 21ZM800 71Q553 71 443 180T320 539Q310 757 306 968T305 1399T320 1859Q332 2116 446 2222T800 2329Q1038
2329 1152 2224T1278 1861Q1288 1635 1291 1417T1292 982T1278 539Q1267 284 1153 178T800 71ZM800 123Q1012 123 1108 220T1215 544Q1230 861 1230 1174T1215 1856Q1205 2090 1104 2183T800 2277Q586 2277 490 2179T383 1855Q374 1628 370 1416T369 989T383 541Q394
313 492 218T800 123ZM800 173Q621 173 539 259T447 541Q437 771 433 982T432 1407T447 1854Q456 2058 540 2142T800 2227Q979 2227 1061 2141T1152 1853Q1168 1477 1167 1164T1152 546Q1143 344 1060 259T800 173ZM800 224Q946 224 1013 299T1088 548Q1103 871
1103 1173T1088 1851Q1081 2022 1015 2099T800 2176Q652 2176 586 2100T510 1853Q500 1619 497 1409T496 988T510 543Q519 375 586 300T800 224Z" />
<glyph unicode="p" horiz-adv-x="1650" d="M473 -800V-185L452 292H466Q526 170 645 96T920 22Q1140 22 1257 136T1391 541Q1401 748 1405 967T1407 1410T1392 1855Q1376 2141 1265 2260T927 2379Q778 2379 652 2308T454 2108H439L463 2400H525L524 2376L490 2230H504Q570
2322 685 2376T940 2430Q1193 2430 1314 2299T1455 1861Q1467 1638 1470 1423T1469 990T1453 537Q1437 225 1312 98T943 -30Q816 -30 704 19T519 172H503L539 -262V-800H473ZM222 -800V2400H286V-800H222ZM349 -800V2400H412L394 1908H409Q440 2105 583 2217T916
2329Q1127 2329 1220 2217T1329 1855Q1340 1646 1344 1437T1344 1007T1327 542Q1315 299 1215 187T900 73Q708 71 581 189T416 488H402L412 -106V-800H349ZM884 124Q1074 124 1164 221T1264 541Q1279 892 1280 1204T1266 1852Q1256 2095 1163 2187T892 2279Q762
2279 659 2222T494 2060T426 1815Q418 1649 413 1431T410 991T424 589Q433 470 487 364T641 191T884 124ZM877 172Q694 172 595 291T486 589Q478 766 476 979T476 1411T486 1814Q493 1983 587 2105T875 2227Q1036 2227 1115 2144T1203 1853Q1212 1652 1215 1446T1215
1017T1202 544Q1194 348 1118 260T877 172ZM876 224Q1006 224 1068 299T1138 545Q1153 897 1153 1213T1140 1852Q1132 2031 1069 2103T874 2176Q713 2176 635 2069T550 1811Q543 1664 540 1452T539 1011T550 590Q557 432 642 328T876 224Z" />
<glyph unicode="q" horiz-adv-x="1649" d="M1110 -800V-262L1149 172H1134Q1062 69 963 20T736 -30Q467 -30 340 105T196 540Q185 764 181 980T179 1413T195 1856Q212 2153 334 2291T729 2430Q868 2430 973 2377T1146 2230H1160L1133 2378V2400H1194L1210 2108H1195Q1125
2237 1008 2308T742 2379Q515 2379 395 2264T258 1860Q246 1638 243 1428T243 1002T259 538Q274 257 397 140T758 22Q914 22 1020 96T1186 292H1201L1176 -185V-800H1110ZM1237 -800V-106L1248 488H1233Q1196 308 1083 190T779 73Q557 75 446 184T322 541Q310 784
306 1008T306 1444T320 1854Q336 2117 442 2223T753 2329Q945 2329 1077 2217T1241 1908H1256L1242 2400H1300V-800H1237ZM796 124Q938 124 1030 190T1169 363T1225 589Q1238 771 1240 988T1237 1422T1224 1815Q1217 1957 1159 2061T1004 2222T778 2279Q582 2279
488 2181T384 1857Q376 1668 372 1468T371 1042T385 543Q395 318 494 221T796 124ZM801 172Q628 172 542 258T448 538Q440 779 436 995T435 1421T446 1852Q455 2053 538 2140T795 2227Q924 2227 1003 2171T1120 2022T1163 1815Q1171 1627 1173 1410T1174 979T1163
589Q1155 411 1071 292T801 172ZM802 224Q951 224 1021 328T1100 590Q1109 783 1111 1001T1111 1432T1100 1813Q1095 1912 1064 1994T968 2126T797 2176Q657 2176 587 2102T510 1852Q496 1520 496 1208T512 538Q519 372 591 298T802 224ZM1364 -800V2400H1427V-800H1364Z"
/>
<glyph unicode="r" horiz-adv-x="1198" d="M349 0V2400H412V2224L396 1953H414Q471 2122 606 2210T931 2299Q981 2299 1036 2297T1121 2292V2238Q1083 2240 1023 2241T915 2243Q759 2243 647 2179T476 2012T417 1796V0H349ZM222 0V2400H286V0H222ZM476 0V1800Q476
1966 595 2075T894 2184Q953 2184 1013 2184T1121 2181V2127Q1074 2129 1014 2129T894 2130Q748 2130 645 2044T542 1804V0H476ZM440 2098L476 2318V2400H539V2362L497 2219H509Q580 2321 704 2364T960 2408Q993 2408 1037 2407T1121 2401V2347Q1089 2350 1046
2351T958 2353Q786 2353 656 2290T454 2098H440Z" />
<glyph unicode="s" horiz-adv-x="1451" d="M716 -30Q431 -30 301 90T160 492Q157 579 157 664T162 832H222Q217 754 217 667T221 494Q230 237 347 129T716 21Q995 21 1114 130T1242 484Q1244 544 1244 579T1245 650T1244 745Q1244 987 1145 1095T852 1261L669
1316Q581 1342 523 1375T435 1478T399 1685Q397 1756 395 1797T395 1901Q401 2064 475 2145T729 2227Q885 2227 962 2151T1048 1896Q1050 1858 1050 1764T1043 1579H983Q988 1669 988 1763T987 1894Q979 2040 917 2108T729 2176Q593 2176 527 2112T456 1900Q454
1834 455 1792T460 1686Q466 1567 489 1508T560 1420T686 1368L867 1314Q1006 1272 1103 1209T1253 1036T1305 745Q1305 685 1305 649T1306 578T1302 483Q1294 219 1164 95T716 -30ZM716 71Q496 71 393 168T281 497Q278 580 278 666T282 832H342Q338 753 338 669T342
499Q349 292 439 208T716 123Q923 123 1018 206T1120 488Q1123 560 1123 615T1122 745Q1122 948 1045 1031T822 1158L636 1212Q522 1246 445 1290T327 1424T277 1683Q274 1747 274 1800T273 1902Q274 2132 384 2230T729 2329Q958 2329 1057 2225T1168 1904Q1172
1850 1171 1754T1162 1579H1103Q1108 1656 1109 1759T1108 1897Q1098 2102 1007 2189T729 2277Q521 2277 431 2188T335 1905Q333 1833 334 1791T339 1684Q345 1532 379 1452T481 1334T652 1264L837 1209Q1010 1158 1097 1062T1184 745Q1184 684 1184 626T1181 486Q1173
267 1068 169T716 71ZM716 173Q560 173 484 246T402 501Q400 592 399 669T402 832H462Q458 746 459 672T463 503Q468 353 527 289T716 224Q860 224 926 284T998 489Q1003 578 1002 621T1001 745Q1001 897 951 959T791 1054L601 1110Q452 1155 356 1214T212 1382T156
1682Q152 1763 152 1808T152 1909Q152 2195 294 2312T729 2430Q1013 2430 1142 2309T1289 1909Q1292 1862 1291 1762T1282 1579H1223Q1230 1666 1230 1763T1228 1907Q1214 2156 1099 2267T729 2379Q455 2379 334 2266T213 1903Q212 1855 212 1806T217 1683Q227
1501 272 1402T403 1252T619 1162L807 1106Q939 1067 1000 993T1062 745Q1062 686 1062 651T1062 581T1059 486Q1053 325 977 249T716 173Z" />
<glyph unicode="t" horiz-adv-x="1114" d="M839 78Q595 78 489 175T383 497V2236H66V2291H383V3080H446V2291H1001V2236H446V497Q446 302 537 218T839 133Q889 133 941 137T1048 148V95Q1002 87 950 83T839 78ZM839 -30Q527 -30 392 92T256 497V2127H66V2181H320V497Q320
243 440 134T839 24Q896 24 948 29T1048 43V-11Q966 -30 839 -30ZM839 187Q663 187 587 259T510 497V2181H1001V2127H573V497Q573 360 635 301T839 242Q887 242 940 244T1048 256V203Q999 196 947 192T839 187ZM66 2346V2400H256V3080H320V2346H66ZM510 2346V3080H573V2400H1001V2346H510Z"
/>
<glyph unicode="u" horiz-adv-x="1669" d="M700 -31Q569 -31 480 3T337 95T255 227T216 379T206 532V2400H269V541Q269 453 284 362T345 194T479 70T717 23Q896 23 1020 98T1215 302H1230L1199 82V0H1136V38L1173 181H1160Q1078 68 962 19T700 -31ZM1384 0V2400H1447V0H1384ZM765
189Q660 189 599 224T507 315T467 435T458 558V2400H521V561Q521 480 539 407T611 288T773 242Q874 242 954 288T1081 415T1128 596V2400H1194V600Q1194 491 1141 397T991 246T765 189ZM733 78Q518 79 425 195T332 544V2400H395V550Q395 349 474 240T751 131Q906
131 1019 199T1192 376T1253 603V2400H1320V0H1258V176L1270 447H1254Q1195 273 1060 175T733 78Z" />
<glyph unicode="v" horiz-adv-x="1416" d="M429 0L77 2400H141L483 51H926L1275 2400H1339L980 0H429ZM530 104L417 927L205 2400H269L478 945L584 155H825L933 941L1147 2400H1210L994 921L880 104H530ZM631 207L538 963L334 2400H397L600 982L686 259H724L812
980L1018 2400H1082L873 963L778 207H631Z" />
<glyph unicode="w" horiz-adv-x="2255" d="M340 0L79 2400H143L395 51H875L962 1091L1034 2176H1219L1300 1093L1384 51H1865L2112 2400H2176L1921 0H1330L1239 1094L1165 2128H1089L1023 1100L930 0H340ZM445 104L338 1096L205 2400H268L397 1127L495 155H765L846
1147L932 2274H1322L1415 1156L1495 155H1766L1864 1133L1987 2400H2050L1924 1107L1816 104H1442L1357 1128L1267 2226H987L904 1119L818 104H445ZM540 207L453 1162L330 2400H394L510 1206L595 259H664L731 1206L829 2372H1425L1528 1228L1596 259H1666L1754
1228L1861 2400H1925L1809 1174L1721 207H1544L1472 1190L1369 2324H885L788 1177L716 207H540Z" />
<glyph unicode="x" horiz-adv-x="1316" d="M189 0L381 714L519 1237L357 1826L195 2400H261L410 1857L571 1263H738L897 1835L1056 2400H1121L950 1805L790 1237L932 712L1128 0H1061L883 668L740 1208H569L430 669L256 0H189ZM323 0L483 630L603 1153H706L830
630L994 0H928L780 586L667 1105H642L533 587L388 0H323ZM56 0L405 1236L64 2400H129L466 1237L123 0H56ZM1194 0L843 1237L1187 2400H1253L904 1236L1261 0H1194ZM605 1318L470 1883L326 2400H392L522 1912L643 1372H667L788 1897L925 2400H990L839 1865L704 1318H605Z"
/>
<glyph unicode="y" horiz-adv-x="1447" d="M349 -818Q281 -818 217 -813T105 -797V-744Q160 -754 224 -759T349 -765Q538 -765 651 -710T822 -548T904 -290L1302 2400H1367L967 -299Q943 -464 879 -580T689 -757T349 -818ZM349 -605Q303 -605 242 -600T105 -585V-533Q186
-543 245 -547T349 -551Q491 -551 561 -479T654 -249L688 0H489L101 2400H164L542 54H761L716 -259Q692 -431 611 -518T349 -605ZM349 -712Q296 -712 232 -707T105 -692V-638Q176 -648 238 -653T349 -658Q565 -658 658 -559T779 -269L835 109H584L471 816L229 2400H293L526
861L627 164H845L1175 2400H1238L842 -279Q809 -497 700 -604T349 -712ZM668 219L580 906L358 2400H422L639 949L715 273H754L838 952L1046 2400H1110L892 881L804 219H668Z" />
<glyph unicode="z" horiz-adv-x="1282" d="M387 219L1153 2181V2346H106V2400H1216V2169L484 273H1190V219H387ZM87 0V195L847 2127H106V2181H945L151 181V54H1190V0H87ZM214 109V167L1026 2200V2236H106V2291H1090V2193L291 164H1190V109H214Z" />
<glyph unicode="{" horiz-adv-x="1290" d="M1170 -730Q824 -730 674 -598T524 -161Q524 -112 528 -16T537 197T547 427T556 625T560 742Q560 930 469 1050T208 1170H120V1224H208Q377 1224 468 1345T560 1653Q560 1684 556 1769T547 1967T537 2198T528 2411T524
2556Q524 2861 674 2993T1170 3125V3086Q857 3086 723 2963T588 2556Q588 2508 591 2413T600 2202T610 1974T619 1777T623 1659Q623 1505 576 1411T457 1271T313 1208V1187Q385 1171 456 1124T575 985T623 736Q623 704 620 618T611 420T600 193T592 -17T588 -161Q588
-445 722 -568T1170 -692V-730ZM1170 -806Q756 -806 577 -656T398 -160Q398 -110 401 -12T410 204T420 438T429 639T433 755Q433 898 372 982T208 1066H120V1119H208Q348 1119 422 1015T496 749Q496 719 493 633T484 433T474 202T465 -13T461 -160Q461 -485 625
-626T1170 -767V-806ZM1170 -654Q892 -654 772 -540T651 -161Q651 -113 654 -19T663 189T674 415T682 612T686 730Q686 937 603 1043T370 1187V1209Q519 1246 602 1352T686 1664Q686 1696 683 1781T674 1978T664 2204T655 2413T651 2556Q651 2820 771 2934T1170
3048V3010Q926 3010 820 2905T714 2556Q714 2508 718 2420T727 2227T737 2018T746 1836T750 1722Q750 1518 675 1387T455 1206V1189Q599 1144 674 1003T750 672Q750 639 746 560T737 378T727 169T718 -25T714 -161Q714 -404 820 -510T1170 -616V-654ZM120 1275V1328H208Q310
1328 371 1411T433 1639Q433 1668 430 1754T421 1954T410 2187T402 2404T398 2554Q398 2900 577 3050T1170 3200V3162Q790 3162 626 3021T461 2554Q461 2504 464 2407T473 2191T484 1960T492 1761T496 1645Q496 1485 423 1380T208 1275H120Z" />
<glyph unicode="|" horiz-adv-x="740" d="M465 -480V3640H528V-480H465ZM211 -480V3640H275V-480H211ZM338 -480V3640H402V-480H338Z" />
<glyph unicode="}" horiz-adv-x="1410" d="M120 -730V-692Q432 -692 567 -569T702 -161Q702 -112 699 -18T690 192T679 420T671 618T667 736Q667 892 714 984T833 1124T977 1187V1208Q905 1224 834 1270T715 1411T667 1659Q667 1692 670 1777T679 1974T689 2201T698
2412T702 2556Q702 2840 567 2963T120 3086V3125Q466 3125 616 2993T766 2556Q766 2507 762 2411T753 2198T743 1968T734 1769T730 1653Q730 1466 821 1345T1082 1224H1170V1170H1082Q913 1170 822 1050T730 742Q730 711 734 626T743 427T753 198T762 -15T766 -161Q766
-466 616 -598T120 -730ZM120 -806V-767Q500 -767 664 -626T829 -160Q829 -110 825 -13T816 201T806 433T797 633T793 749Q793 910 867 1014T1082 1119H1170V1066H1082Q981 1066 919 982T857 755Q857 725 860 639T869 438T880 205T888 -12T892 -160Q892 -505 713
-655T120 -806ZM120 -654V-616Q364 -616 469 -510T575 -161Q575 -113 572 -25T563 169T553 377T544 559T540 672Q540 861 615 1002T835 1189V1206Q690 1256 615 1387T540 1722Q540 1756 543 1835T552 2018T563 2226T571 2420T575 2556Q575 2799 470 2904T120 3010V3048Q398
3048 518 2934T639 2556Q639 2508 635 2414T626 2205T616 1979T607 1782T603 1664Q603 1459 686 1353T920 1209V1187Q770 1150 687 1044T603 730Q603 698 607 613T616 416T626 190T635 -19T639 -161Q639 -425 519 -539T120 -654ZM1170 1275H1082Q942 1275 868 1380T793
1645Q793 1675 797 1760T806 1959T816 2191T825 2406T829 2554Q829 2880 665 3021T120 3162V3200Q534 3200 713 3050T892 2554Q892 2503 889 2405T880 2188T870 1955T861 1754T857 1639Q857 1494 919 1411T1082 1328H1170V1275Z" />
<glyph unicode="~" horiz-adv-x="1587" d="M211 1332Q220 1440 275 1523T419 1651T614 1686Q691 1680 747 1651T850 1584T941 1518T1042 1483Q1112 1475 1155 1506T1199 1616H1234Q1234 1516 1177 1471T1028 1434Q960 1439 910 1468T815 1535T721 1601T603 1637Q463
1650 361 1561T247 1332H211ZM282 1332Q291 1448 376 1524T584 1588Q651 1582 701 1553T798 1486T895 1419T1013 1385Q1129 1376 1200 1433T1270 1616H1305Q1307 1468 1221 1397T1005 1336Q931 1341 876 1370T775 1437T681 1504T576 1540Q468 1550 397 1488T318
1332H282ZM353 1332Q358 1400 416 1450T565 1491Q618 1486 665 1456T759 1388T863 1322T993 1286Q1137 1276 1239 1360T1340 1616H1376Q1377 1486 1323 1399T1179 1271T983 1237Q900 1242 836 1272T721 1340T630 1407T551 1442Q487 1450 439 1414T389 1332H353Z"
/>
<glyph unicode="&#xa0;" horiz-adv-x="829" />
<glyph unicode="&#xa1;" horiz-adv-x="783" d="M461 1767H508L549 555V-800H486V555L461 1767ZM274 1767H320L296 555V-800H232V555L274 1767ZM367 1767H414L422 555V-800H359V555L367 1767ZM187 2400H599V2342H187V2400ZM187 2169H599V2112H187V2169ZM187 2285H599V2227H187V2285Z"
/>
<glyph unicode="&#xa2;" horiz-adv-x="1546" d="M756 0V472Q532 478 430 580T318 898Q312 1095 309 1271T305 1615T308 1949T318 2295Q329 2519 431 2620T756 2728V3200H820V2728Q1045 2722 1146 2624T1251 2310Q1252 2222 1252 2137T1249 1966H1186Q1191 2047
1190 2132T1188 2308Q1183 2506 1091 2591T788 2677Q580 2677 486 2588T382 2292Q375 2115 372 1948T368 1615T371 1273T382 901Q391 705 485 614T791 522Q995 522 1087 613T1188 900Q1191 992 1191 1074T1184 1239H1247Q1253 1158 1254 1075T1251 897Q1241 681
1141 580T820 472V0H756ZM629 0V381Q408 409 306 530T192 892Q185 1090 182 1268T178 1615T181 1954T192 2303Q203 2545 305 2667T629 2818V3200H693V2774Q471 2757 369 2645T256 2299Q249 2120 245 1952T241 1615T245 1269T256 894Q265 667 367 555T693 425V0H629ZM791
573Q613 573 533 654T445 905Q438 1099 435 1274T432 1615T435 1946T445 2289Q453 2470 532 2548T788 2627Q965 2627 1043 2553T1124 2306Q1126 2219 1126 2135T1122 1966H1058Q1063 2051 1063 2134T1061 2304Q1059 2450 996 2513T788 2576Q645 2576 580 2509T508
2285Q502 2110 499 1945T495 1615T498 1276T508 908Q514 767 579 696T791 624Q929 624 992 695T1061 906Q1064 993 1064 1073T1058 1239H1121Q1125 1155 1126 1074T1124 902Q1118 735 1040 654T791 573ZM1313 1966Q1318 2048 1317 2134T1314 2311Q1309 2539 1209
2648T883 2774V3200H946V2819Q1171 2792 1271 2672T1378 2314Q1378 2235 1378 2148T1374 1966H1313ZM883 0V425Q1102 442 1203 554T1314 894Q1318 992 1317 1076T1310 1239H1373Q1380 1163 1381 1077T1378 892Q1367 652 1266 530T946 380V0H883Z" />
<glyph unicode="&#xa3;" horiz-adv-x="1714" d="M253 110V166Q369 230 449 361T572 684T614 1117Q614 1255 603 1370T572 1586H211V1638H563Q529 1803 487 1950T416 2267T386 2663Q387 2884 509 3003T859 3123Q1109 3123 1221 3015T1340 2658Q1344 2559 1344 2467T1343
2280T1339 2075H1275Q1278 2185 1279 2280T1281 2466T1277 2656Q1271 2878 1174 2974T859 3070Q662 3070 557 2965T450 2662Q449 2433 480 2267T553 1954T628 1638H1144V1586H638Q656 1486 667 1371T678 1117Q678 772 596 544T338 172V156L675 165H1503V110H253ZM211
1690V1743H397Q366 1873 335 2006T281 2297T259 2663Q261 2935 416 3081T859 3227Q1176 3227 1317 3096T1467 2661Q1470 2562 1470 2470T1470 2282T1465 2075H1402Q1405 2186 1406 2281T1407 2469T1403 2659Q1396 2936 1269 3055T859 3175Q601 3175 463 3043T323
2663Q323 2445 348 2280T411 1976T481 1690H211ZM678 1690Q644 1847 606 1990T540 2294T513 2661Q514 2833 603 2925T859 3018Q1044 3018 1126 2934T1213 2654Q1217 2556 1217 2465T1216 2280T1212 2075H1149Q1152 2186 1153 2280T1154 2464T1150 2652Q1146 2820
1078 2893T859 2966Q577 2966 576 2661Q576 2468 600 2317T660 2028T728 1743H1144V1690H678ZM253 221V277Q323 320 375 421T457 694T487 1117Q487 1222 479 1311T458 1482H211V1534H516Q531 1442 541 1340T551 1117Q551 757 480 538T253 221ZM445 202V225Q583
343 662 561T741 1117Q741 1237 732 1339T708 1534H1144V1482H776Q788 1402 794 1312T801 1118Q801 812 732 598T532 260V248L873 275H1503V220L785 219L445 202ZM253 0V55H1503V0H253Z" />
<glyph unicode="&#xa4;" horiz-adv-x="2003" d="M354 160L307 186L563 694Q526 786 520 924Q510 1158 507 1369T506 1794T520 2245Q526 2392 567 2487L307 3003L354 3029L596 2547Q652 2635 751 2674T1000 2714Q1148 2714 1246 2675T1400 2549L1639 3029L1686
3003L1431 2491Q1471 2395 1478 2246Q1488 2001 1491 1786T1492 1361T1478 925Q1471 784 1435 693L1686 186L1639 160L1406 631Q1351 540 1252 499T1000 457Q846 457 746 499T591 633L354 160ZM1000 508Q1211 508 1307 606T1415 928Q1424 1154 1427 1362T1428 1784T1415
2243Q1404 2468 1308 2565T1000 2663Q788 2663 691 2565T583 2242Q573 2005 570 1793T569 1371T583 928Q594 703 690 606T1000 508ZM1000 559Q819 559 737 645T646 931Q636 1162 633 1371T633 1792T646 2239Q656 2439 738 2526T1000 2613Q1179 2613 1261 2527T1351
2240Q1361 1996 1364 1783T1365 1363T1351 932Q1341 732 1260 646T1000 559ZM1000 609Q1146 609 1213 684T1288 935Q1298 1158 1301 1364T1302 1783T1288 2236Q1280 2411 1214 2486T1000 2562Q852 2562 785 2487T710 2235Q700 2001 697 1791T696 1373T710 934Q718
760 785 685T1000 609ZM259 213L211 240L431 687Q399 782 393 918Q382 1154 379 1367T378 1796T393 2252Q400 2398 435 2496L211 2950L259 2976L500 2492Q463 2392 456 2249Q446 2009 443 1795T442 1369T456 922Q463 784 496 690L259 213ZM1734 213L1501 689Q1535
783 1541 922Q1551 1150 1554 1360T1555 1786T1541 2249Q1535 2396 1498 2496L1734 2976L1781 2950L1564 2499Q1598 2398 1605 2252Q1615 2005 1618 1787T1618 1358T1605 918Q1598 783 1567 685L1781 240L1734 213ZM448 107L401 134L595 527Q661 465 760 436T1000
407Q1138 407 1237 435T1401 526L1591 134L1544 107L1385 439Q1315 396 1220 376T1000 356Q874 356 777 376T609 441L448 107ZM602 2651L401 3056L448 3082L618 2735Q688 2777 783 2796T1000 2815Q1120 2815 1214 2797T1377 2736L1544 3082L1591 3056L1393 2652Q1328
2711 1231 2738T1000 2765Q864 2765 766 2738T602 2651Z" />
<glyph unicode="&#xa5;" horiz-adv-x="1515" d="M726 0V473H311V522H726V863H311V912H726V1256H574L358 2474L209 3200H272L418 2474L618 1308H897L1097 2474L1243 3200H1306L1158 2474L940 1256H789V912H1204V863H789V522H1204V473H789V0H726ZM599 0V380H311V429H662V0H599ZM852
0V429H1204V380H916V0H852ZM311 566V615H599V770H311V819H662V566H311ZM852 566V819H1204V770H916V615H1204V566H852ZM311 956V1005H599V1160H493L81 3200H145L539 1209H662V956H311ZM652 1358L477 2474L335 3200H399L536 2474L697 1407H815L979 2474L1116 3200H1179L1039
2474L861 1358H652ZM852 956V1209H978L1370 3200H1434L1022 1160H916V1005H1204V956H852Z" />
<glyph unicode="&#xa6;" horiz-adv-x="740" d="M465 2032V3640H528V2032H465ZM211 2032V3640H275V2032H211ZM338 2032V3640H402V2032H338ZM465 -480V1072H528V-480H465ZM211 -480V1072H275V-480H211ZM338 -480V1072H402V-480H338Z" />
<glyph unicode="&#xa7;" horiz-adv-x="1588" d="M801 -828Q520 -828 382 -706T229 -300Q226 -247 227 -146T236 38H296Q289 -45 288 -146T290 -300Q302 -557 425 -667T801 -777Q1067 -777 1186 -667T1313 -301Q1315 -237 1314 -155T1306 8Q1299 150 1270 242T1177
390T1003 477V491Q1153 527 1227 617T1310 860Q1313 910 1314 984T1316 1138T1316 1291T1313 1412Q1306 1654 1220 1771T916 1942L735 1986Q633 2010 577 2050T496 2163T466 2359Q459 2445 457 2532T459 2691Q468 2865 546 2941T792 3017Q955 3017 1030 2941T1114
2691Q1116 2638 1114 2530T1106 2335H1047Q1052 2421 1053 2529T1054 2691Q1046 2837 984 2902T792 2967Q657 2967 593 2903T519 2690Q515 2619 515 2531T526 2358Q533 2249 552 2186T618 2091T753 2037L931 1993Q1172 1933 1269 1805T1373 1412Q1375 1364 1375
1291T1376 1138T1375 983T1371 860Q1362 714 1295 623T1114 491V480Q1247 428 1302 311T1367 8Q1372 -73 1374 -155T1374 -302Q1367 -584 1234 -706T801 -828ZM801 -726Q1034 -726 1139 -628T1252 -301Q1254 -238 1253 -157T1246 8Q1236 184 1194 276T1063 411T825
478L826 488Q1036 500 1137 590T1250 861Q1252 910 1253 983T1255 1137T1255 1291T1252 1412Q1245 1631 1167 1742T895 1896L718 1934Q600 1960 534 2006T440 2136T405 2357Q400 2446 398 2533T398 2692Q407 2894 498 2981T792 3068Q986 3068 1075 2981T1174 2692Q1176
2639 1174 2530T1166 2335H1226Q1233 2420 1235 2529T1234 2692Q1223 2922 1119 3020T792 3119Q557 3119 451 3020T337 2693Q335 2622 337 2534T344 2356Q352 2206 384 2112T492 1966T702 1888L770 1875V1864Q566 1853 460 1761T341 1486Q337 1438 336 1366T334
1212T335 1057T338 936Q345 712 425 611T702 466L871 427Q990 401 1055 355T1149 227T1185 7Q1191 -75 1192 -156T1192 -300Q1184 -501 1093 -588T801 -676Q608 -676 514 -588T411 -299Q408 -246 409 -146T416 38H356Q349 -46 348 -146T350 -299Q361 -528 470 -627T801
-726ZM801 -625Q639 -625 559 -549T471 -299Q468 -246 469 -146T475 38H536Q530 -47 530 -146T531 -299Q539 -445 605 -510T801 -575Q935 -575 998 -511T1070 -298Q1074 -234 1074 -154T1063 6Q1057 115 1037 177T970 272T837 325L664 368Q427 427 326 552T216
936Q215 984 214 1057T213 1212T214 1366T218 1488Q228 1644 295 1734T477 1869V1880Q341 1937 286 2052T222 2355Q218 2444 216 2533T216 2694Q221 2882 280 2997T465 3166T792 3220Q1075 3220 1207 3099T1355 2692Q1358 2639 1356 2529T1346 2335H1286Q1294 2419
1295 2529T1294 2692Q1282 2949 1164 3059T792 3169Q523 3169 404 3059T276 2693Q274 2621 276 2533T283 2356Q290 2213 324 2120T427 1969T609 1877V1864Q465 1833 378 1748T280 1487Q276 1439 275 1366T273 1212T274 1057T277 936Q284 699 376 585T680 419L854
377Q954 355 1010 315T1091 201T1124 6Q1131 -73 1132 -154T1131 -299Q1123 -473 1045 -549T801 -625ZM752 525Q569 530 488 626T398 936Q397 983 396 1056T394 1209T395 1363T401 1485Q414 1673 525 1753T845 1829Q1018 1825 1101 1727T1191 1412Q1193 1365 1194
1292T1195 1139T1194 986T1189 863Q1177 683 1075 601T752 525ZM792 573Q947 571 1031 638T1128 864Q1131 912 1133 986T1135 1140T1133 1293T1130 1412Q1123 1608 1052 1698T792 1789Q647 1789 561 1720T462 1484Q458 1435 457 1362T455 1208T456 1055T459 936Q466
751 536 663T792 573ZM792 625Q638 627 583 700T520 936Q517 981 516 1052T515 1203T516 1358T522 1483Q534 1623 606 1679T792 1735Q949 1735 1005 1659T1070 1412Q1072 1367 1073 1295T1075 1143T1073 989T1067 865Q1057 734 989 679T792 625Z" />
<glyph unicode="&#xa8;" horiz-adv-x="981" d="M700 2799V2854H988V2799H700ZM263 2580V2635H551V2580H263ZM263 2690V2744H551V2690H263ZM263 2799V2854H551V2799H263ZM700 2580V2635H988V2580H700ZM700 2690V2744H988V2690H700Z" />
<glyph unicode="&#xa9;" horiz-adv-x="2562" d="M1282 -20Q915 -20 678 110T326 510T211 1200Q211 1620 326 1890T678 2290T1282 2420Q1649 2420 1885 2290T2236 1890T2351 1200Q2351 780 2237 510T1886 110T1282 -20ZM1282 23Q1632 23 1858 148T2193 534T2302
1200Q2302 1605 2193 1866T1858 2252T1282 2377Q932 2377 706 2252T370 1866T261 1200Q261 795 370 535T705 149T1282 23ZM1282 67Q782 67 546 340T310 1200Q310 1786 546 2059T1282 2333Q1783 2333 2018 2060T2253 1200Q2253 614 2018 341T1282 67ZM1282 110Q1757
110 1980 373T2204 1200Q2204 1764 1981 2027T1282 2290Q806 2290 583 2027T359 1200Q359 636 582 373T1282 110ZM1282 154Q831 154 620 406T408 1200Q408 1742 619 1994T1282 2246Q1733 2246 1943 1994T2154 1200Q2154 658 1944 406T1282 154ZM1282 197Q1708 197
1906 438T2105 1200Q2105 1721 1907 1962T1282 2203Q856 2203 657 1962T457 1200Q457 679 656 438T1282 197ZM1288 396Q1072 396 973 481T865 762Q855 1006 855 1215T865 1647Q876 1845 973 1930T1286 2016Q1507 2016 1603 1933T1701 1656Q1702 1609 1702 1553T1700
1436H1653Q1654 1485 1654 1540T1653 1653Q1650 1827 1565 1902T1286 1977Q1096 1977 1009 1900T914 1644Q904 1422 904 1215T914 765Q922 590 1009 513T1288 435Q1477 435 1561 512T1653 765Q1656 827 1656 881T1651 980H1699Q1703 936 1703 882T1702 762Q1693
566 1597 481T1288 396ZM1288 474Q1121 474 1046 543T962 768Q952 1009 952 1214T962 1641Q970 1801 1045 1869T1286 1938Q1456 1938 1529 1872T1605 1652Q1605 1596 1605 1542T1605 1436H1556Q1557 1484 1557 1538T1556 1650Q1554 1784 1491 1841T1286 1899Q1145
1899 1081 1839T1010 1638Q1000 1418 1000 1215T1010 770Q1016 636 1081 575T1288 513Q1426 513 1488 574T1557 769Q1559 827 1559 879T1554 980H1603Q1606 933 1606 880T1604 767Q1598 613 1525 544T1288 474ZM1288 552Q1171 552 1118 605T1059 774Q1049 1013
1049 1214T1059 1635Q1064 1756 1117 1809T1286 1862Q1404 1862 1455 1813T1507 1649Q1509 1592 1509 1539T1507 1436H1459Q1460 1487 1460 1539T1459 1646Q1458 1741 1418 1782T1286 1823Q1195 1823 1154 1779T1107 1632Q1097 1414 1097 1214T1107 776Q1112 683
1153 637T1288 590Q1376 590 1416 635T1460 773Q1462 827 1462 878T1458 980H1506Q1509 929 1509 878T1508 771Q1504 659 1453 606T1288 552Z" />
<glyph unicode="&#xaa;" horiz-adv-x="1318" d="M1052 1522L1053 2773Q1053 2970 977 3075T687 3180Q488 3180 400 3098T304 2831Q302 2772 302 2721T306 2602H253Q249 2661 249 2719T251 2832Q259 3041 360 3131T687 3222Q934 3222 1020 3106T1106 2773V1522H1052ZM597
1637Q760 1637 853 1744T947 1985V2426Q871 2409 777 2378T617 2316Q494 2257 438 2177T371 1966Q369 1942 369 1911T371 1860Q382 1759 438 1698T597 1637ZM607 1687Q527 1687 479 1734T424 1861Q422 1887 422 1912T423 1963Q431 2082 481 2152T636 2274Q689 2299
752 2324T894 2370V1980Q894 1859 816 1773T607 1687ZM615 1734Q711 1734 776 1801T841 1977V2312Q791 2295 740 2272T654 2232Q563 2186 522 2124T475 1960Q474 1937 474 1913T477 1868Q481 1808 517 1771T615 1734ZM554 1499Q408 1499 318 1589T214 1847Q212
1879 212 1915T213 1983Q223 2140 300 2248T561 2442Q625 2472 696 2499T843 2546V2773Q843 2878 811 2942T687 3007Q600 3007 559 2961T514 2822Q513 2790 513 2731T515 2602H462Q459 2669 459 2724T461 2824Q466 2940 519 2995T687 3050Q813 3050 854 2973T896
2773L895 2509Q820 2489 734 2460T579 2400Q420 2331 347 2235T265 1980Q264 1944 264 1912T267 1849Q278 1705 357 1625T567 1544Q687 1544 770 1595T910 1743H922L900 1580V1522H847V1545L875 1650H866Q806 1569 731 1534T554 1499ZM948 1522V1662L959 1860H944Q899
1734 808 1663T581 1591Q469 1591 399 1660T319 1855Q317 1887 317 1917T318 1979Q327 2120 392 2207T598 2358Q664 2387 767 2420T949 2472V2773Q949 2918 897 3005T687 3093Q546 3093 480 3031T409 2827Q407 2775 407 2724T410 2602H358Q355 2660 355 2718T356
2828Q362 2990 439 3063T687 3137Q869 3137 935 3043T1001 2773V1522H948Z" />
<glyph unicode="&#xab;" horiz-adv-x="1585" d="M759 602L151 1210V1279L759 1887V1818L186 1245L759 671V602ZM759 465L151 1073V1142L759 534V465ZM759 739L322 1181L243 1236V1253L322 1311L759 1750V1681L371 1292L304 1250V1239L371 1200L759 808V739ZM151
1347V1416L759 2024V1955L151 1347ZM1314 602L706 1210V1279L1314 1887V1818L741 1245L1314 671V602ZM1314 465L706 1073V1142L1314 534V465ZM1314 739L877 1181L798 1236V1253L877 1311L1314 1750V1681L926 1292L859 1250V1239L926 1200L1314 808V739ZM706 1347V1416L1314
2024V1955L706 1347Z" />
<glyph unicode="&#xac;" horiz-adv-x="1832" d="M1368 1045H1304V1644H211V1699H1368V1045ZM1494 1045H1431V1754H211V1809H1494V1045ZM1621 1045H1558V1864H211V1919H1621V1045Z" />
<glyph unicode="&#xad;" horiz-adv-x="1280" d="M120 1604V1659H1309V1604H120ZM120 1384V1439H1309V1384H120ZM120 1494V1549H1309V1494H120Z" />
<glyph unicode="&#xae;" horiz-adv-x="1709" d="M859 2055Q531 2055 371 2227T211 2752Q211 3106 371 3276T859 3447Q1180 3447 1339 3277T1498 2752Q1498 2400 1339 2228T859 2055ZM859 2074Q1170 2074 1323 2241T1476 2752Q1476 3096 1324 3262T859 3428Q541
3428 387 3263T233 2752Q233 2408 388 2241T859 2074ZM859 2094Q552 2094 404 2255T255 2752Q255 3090 403 3249T859 3408Q1161 3408 1307 3248T1454 2752Q1454 2418 1308 2256T859 2094ZM859 2113Q1150 2113 1291 2269T1433 2752Q1433 3078 1293 3233T859 3389Q561
3389 419 3235T277 2752Q277 2425 419 2269T859 2113ZM859 2133Q573 2133 436 2283T298 2752Q298 3071 434 3220T859 3369Q1141 3369 1276 3220T1411 2752Q1411 2435 1276 2284T859 2133ZM859 2152Q1130 2152 1259 2297T1389 2752Q1389 3061 1260 3205T859 3350Q582
3350 451 3206T320 2752Q320 2443 451 2298T859 2152ZM675 2294V3200H857Q1047 3200 1054 3030Q1056 2976 1056 2920T1054 2818Q1052 2773 1034 2742T982 2700V2696Q1046 2675 1051 2556Q1054 2474 1055 2426T1056 2294H1035Q1035 2376 1034 2425T1030 2556Q1025
2678 947 2695V2701Q991 2712 1010 2740T1033 2818Q1035 2863 1035 2921T1032 3030Q1028 3113 990 3147T857 3182H696V2294H675ZM759 2294V2670H877Q925 2670 944 2639T966 2555Q970 2474 970 2425T971 2294H950Q950 2376 950 2425T945 2555Q943 2595 930 2623T878
2651H781V2294H759ZM717 2294V3163H857Q939 3163 973 3133T1011 3030Q1014 2978 1014 2921T1012 2818Q1009 2768 986 2738T917 2700V2696Q966 2688 986 2653T1008 2556Q1012 2474 1013 2425T1013 2294H992Q992 2376 992 2425T987 2556Q985 2618 960 2653T876 2688H738V2294H717ZM738
2707H876Q933 2707 961 2737T991 2818Q993 2864 993 2920T990 3030Q988 3092 959 3118T857 3145H738V2707ZM759 2725V3126H857Q966 3126 970 3030Q972 2976 972 2920T970 2819Q968 2779 945 2752T876 2725H759ZM781 2743H876Q913 2743 930 2766T949 2819Q951 2864
951 2919T949 3029Q945 3108 857 3108H781V2743Z" />
<glyph unicode="&#xaf;" horiz-adv-x="1641" d="M68 2789V2841H1229V2789H68ZM68 2580V2632H1229V2580H68ZM68 2684V2737H1229V2684H68Z" />
<glyph unicode="&#xb0;" horiz-adv-x="1340" d="M671 2323Q546 2323 441 2385T274 2551T211 2780Q211 2907 273 3011T441 3178T671 3240Q797 3240 900 3178T1066 3012T1129 2780Q1129 2655 1067 2551T901 2385T671 2323ZM671 2377Q782 2377 873 2432T1019 2578T1074
2779Q1074 2891 1019 2983T873 3130T671 3185Q560 3185 468 3131T321 2984T266 2780Q266 2670 321 2579T468 2432T671 2377ZM671 2432Q528 2432 425 2535T321 2780Q321 2923 424 3026T671 3130Q814 3130 916 3027T1019 2780Q1019 2638 916 2535T671 2432ZM671 2487Q791
2487 877 2574T964 2780Q964 2901 878 2988T671 3076Q550 3076 463 2989T376 2780Q376 2660 463 2574T671 2487ZM671 2542Q574 2542 503 2613T431 2780Q431 2879 502 2950T671 3021Q768 3021 839 2950T910 2780Q910 2683 839 2613T671 2542ZM671 2595Q746 2595
801 2650T856 2780Q856 2856 801 2911T671 2967Q595 2967 540 2912T484 2780Q484 2706 540 2651T671 2595Z" />
<glyph unicode="&#xb1;" horiz-adv-x="1832" d="M886 1085V1506H211V1564H886V2237H949V1564H1621V1506H949V1085H886ZM759 1085V1391H211V1449H822V1085H759ZM211 1622V1679H759V2237H822V1622H211ZM1013 1085V1449H1621V1391H1076V1085H1013ZM1013 1622V2237H1076V1679H1621V1622H1013ZM211
888V946H1621V888H211ZM211 773V831H1621V773H211ZM211 658V715H1621V658H211Z" />
<glyph unicode="&#xb2;" horiz-adv-x="1026" d="M332 1898Q329 1925 329 1963T332 2041Q336 2107 355 2158T412 2250T505 2324L608 2384Q708 2440 770 2498T854 2659Q863 2699 866 2773T867 2906Q863 3052 785 3116T529 3180Q361 3180 285 3118T202 2911Q201 2857
201 2807T204 2685H160Q158 2773 157 2814T158 2912Q164 3073 249 3144T529 3215Q733 3215 819 3142T912 2906Q914 2861 913 2811T907 2718T896 2646Q872 2543 809 2480T628 2350L524 2290Q477 2262 446 2228T398 2150T377 2050Q376 2013 376 1992T376 1931L581
1951H898V1913H545L332 1898ZM156 1759Q153 1847 154 1914T157 2048Q161 2135 189 2209T277 2346T427 2463L530 2523Q607 2568 642 2604T687 2699Q693 2729 693 2794T692 2902Q688 2974 650 3006T529 3038Q454 3038 420 3008T381 2909Q378 2860 379 2810T382 2685H338Q337
2750 335 2800T336 2909Q341 2997 385 3035T529 3073Q635 3073 682 3034T734 2903Q735 2858 734 2791T726 2693Q712 2617 668 2576T550 2491L447 2430Q373 2385 319 2329T234 2203T201 2045Q198 1979 198 1921T200 1797H898V1759H156ZM243 1831Q241 1886 241 1936T244
2045Q247 2119 270 2182T341 2298T465 2395L569 2456Q647 2502 699 2549T769 2681Q777 2715 779 2785T778 2904Q772 3015 714 3062T529 3109Q405 3109 351 3062T292 2910Q290 2859 290 2808T293 2685H249Q247 2753 246 2807T247 2911Q252 3035 317 3089T529 3144Q685
3144 751 3088T823 2904Q824 2867 823 2822T819 2735T810 2668Q790 2586 740 2534T587 2421L483 2359Q416 2319 374 2272T312 2168T288 2043Q287 1988 287 1947T288 1868L503 1874H898V1835H460L243 1831Z" />
<glyph unicode="&#xb3;" horiz-adv-x="1048" d="M522 1744Q338 1744 238 1811T129 2026Q127 2067 127 2125T129 2243H174Q171 2178 171 2123T174 2028Q183 1895 273 1837T522 1779Q683 1779 764 1841T855 2032Q857 2065 858 2151T855 2308Q848 2455 775 2507T550
2560H517V2582L866 3026V3162H142V3200H909V3011L580 2595Q698 2594 766 2560T864 2463T899 2311Q903 2214 903 2140T900 2032Q891 1885 798 1815T522 1744ZM522 1886Q418 1886 366 1921T308 2033Q306 2070 306 2126T307 2243H352Q350 2191 350 2134T352 2035Q356
1976 397 1949T522 1922Q595 1922 631 1949T676 2036Q679 2063 680 2111T680 2213T676 2306Q670 2373 629 2395T495 2418H326L319 2605L640 3016L142 3008V3046H721L363 2589L367 2455H494Q603 2455 659 2427T721 2311Q726 2255 726 2164T721 2036Q714 1958 665
1922T522 1886ZM522 1815Q371 1815 298 1868T218 2030Q216 2068 216 2125T218 2243H263Q260 2176 260 2122T263 2031Q270 1938 333 1894T522 1850Q636 1850 696 1895T766 2034Q769 2065 769 2154T766 2312Q760 2421 695 2458T494 2493L412 2492L409 2576L777 3046V3085H142V3124H821V3031L450
2560L451 2533H494Q652 2536 728 2490T811 2312Q813 2254 813 2163T811 2034Q802 1922 731 1869T522 1815Z" />
<glyph unicode="&#xb4;" horiz-adv-x="914" d="M222 2580L537 3071H610L281 2580H222ZM453 2580L823 3071H895L512 2580H453ZM338 2580L680 3071H753L396 2580H338Z" />
<glyph unicode="&#xb5;" horiz-adv-x="1705" d="M338 -800L336 2400H399L402 550Q402 329 487 230T757 131Q913 131 1020 199T1184 376T1240 603V2400H1303V403Q1303 279 1316 176T1357 0H1290Q1264 77 1260 181T1258 402Q1259 413 1259 424T1261 447H1246Q1195
277 1068 177T746 78Q618 78 520 142T387 339H371L401 -15V-800H338ZM465 -800L463 -121L408 189H428Q469 103 553 65T747 26Q915 26 1025 90T1200 269H1219Q1212 184 1215 122T1236 0H1181Q1171 35 1172 79T1177 174H1166Q1097 70 989 21T752 -28Q663 -28 588
2T470 83H456L527 -165L528 -800H465ZM211 -800V2400H275V-800H211ZM771 189Q675 189 616 218T523 298T478 416T465 558L461 2400H525L527 560Q528 469 548 398T622 284T779 242Q880 242 955 288T1071 415T1113 596V2400H1176V600Q1176 490 1129 397T991 246T771
189ZM1424 0Q1366 134 1366 403V2400H1430V403Q1430 267 1446 162T1494 0H1424Z" />
<glyph unicode="&#xb6;" horiz-adv-x="1987" d="M214 2194Q210 2333 210 2437T214 2638Q232 2940 369 3070T809 3200H1775V2925H1569V-400H1514V2925H1459V-400H1405V2925H1350V-400H1295V1632H1240V-400H1185V1632H809Q507 1632 369 1762T214 2194Z" />
<glyph unicode="&#xb7;" horiz-adv-x="687" d="M137 1510V1568H549V1510H137ZM137 1741V1798H549V1741H137ZM137 1625V1683H549V1625H137Z" />
<glyph unicode="&#xb8;" horiz-adv-x="796" d="M540 -120H590L611 -259Q641 -462 554 -560T252 -658H167V-604H252Q437 -604 512 -520T561 -259L540 -120ZM351 -120H399L420 -245Q437 -341 395 -390T252 -439H167V-386H252Q325 -386 353 -351T371 -245L351 -120ZM444
-120H495L516 -252Q539 -401 475 -475T252 -549H167V-494H252Q382 -494 433 -435T465 -252L444 -120Z" />
<glyph unicode="&#xb9;" horiz-adv-x="680" d="M459 1763V3167H326L61 3052L59 3078L310 3203H503V1763H459ZM280 1763V2675L321 3009L311 3010L70 2956L68 2981L328 3050H358L325 2693V1763H280ZM370 1763V2711L384 3094H353L66 3003L63 3028L339 3131H421L414
2729V1763H370Z" />
<glyph unicode="&#xba;" horiz-adv-x="1343" d="M673 1498Q444 1498 339 1598T222 1930Q212 2143 212 2351T222 2790Q234 3033 345 3127T673 3222Q899 3222 1005 3124T1122 2790Q1133 2557 1133 2347T1122 1930Q1111 1695 1005 1597T673 1498ZM673 1539Q873 1539
966 1629T1070 1934Q1078 2112 1079 2325T1070 2787Q1060 2997 969 3089T673 3181Q491 3181 389 3099T275 2792Q265 2567 265 2363T274 1932Q285 1705 386 1622T673 1539ZM673 1579Q498 1579 417 1661T327 1933Q319 2118 317 2324T327 2784Q336 2977 417 3059T673
3141Q843 3141 925 3061T1017 2788Q1028 2542 1028 2347T1017 1933Q1008 1744 927 1662T673 1579ZM673 1621Q816 1621 886 1692T965 1939Q971 2072 973 2207T973 2485T965 2781Q957 2953 889 3026T673 3099Q531 3099 460 3029T380 2781Q370 2567 370 2354T380 1938Q388
1760 460 1691T673 1621ZM673 1661Q558 1661 499 1723T432 1944Q422 2168 422 2373T433 2782Q440 2927 495 2993T673 3059Q784 3059 844 3000T912 2777Q922 2562 922 2347T912 1943Q905 1797 851 1729T673 1661ZM673 1703Q767 1703 810 1759T859 1944Q869 2152
869 2347T859 2776Q854 2905 811 2961T673 3017Q577 3017 534 2960T485 2775Q478 2628 476 2493T475 2223T485 1944Q491 1815 534 1759T673 1703Z" />
<glyph unicode="&#xbb;" horiz-adv-x="1514" d="M663 602V671L1236 1245L663 1818V1887L1271 1279V1210L663 602ZM663 465V534L1271 1142V1073L663 465ZM663 739V808L1050 1200L1118 1239V1250L1050 1292L663 1681V1750L1100 1311L1179 1253V1236L1100 1181L663
739ZM1271 1347L663 1955V2024L1271 1416V1347ZM109 602V671L682 1245L109 1818V1887L717 1279V1210L109 602ZM109 465V534L717 1142V1073L109 465ZM109 739V808L496 1200L564 1239V1250L496 1292L109 1681V1750L546 1311L625 1253V1236L546 1181L109 739ZM717
1347L109 1955V2024L717 1416V1347Z" />
<glyph unicode="&#xbc;" horiz-adv-x="2023" d="M459 1761V3165H326L61 3050L59 3076L310 3201H503V1761H459ZM280 1761V2673L321 3007L311 3008L70 2954L68 2979L328 3048H358L325 2691V1761H280ZM370 1761V2709L384 3092H353L66 3001L63 3026L339 3129H421L414
2727V1761H370ZM18 0L1621 3200H1679L76 0H18ZM-99 0L1504 3200H1562L-40 0H-99ZM135 0L1737 3200H1796L193 0H135ZM1555 0V390H1090V549L1454 1440H1786L1779 581H1954V543H1735L1748 1402H1487L1135 541V428H1600V0H1555ZM1735 0V428H1954V390H1779V0H1735ZM1646
0V467H1180V534L1354 961L1509 1365L1714 1364L1690 703V505H1954V467H1690V0H1646ZM1224 505H1646L1645 679L1676 1325H1535L1390 935L1224 527V505ZM1275 543L1418 917L1553 1287H1643L1609 715L1603 543H1275ZM1339 581H1560L1568 722L1605 1251H1577L1441 871L1339
581Z" />
<glyph unicode="&#xbd;" horiz-adv-x="2686" d="M353 1761V3165H220L-45 3050L-47 3076L204 3201H397V1761H353ZM174 1761V2673L215 3007L205 3008L-36 2954L-38 2979L222 3048H252L219 2691V1761H174ZM264 1761V2709L278 3092H247L-40 3001L-43 3026L233 3129H315L308
2727V1761H264ZM23 0L1626 3200H1684L81 0H23ZM-94 0L1509 3200H1567L-35 0H-94ZM140 0L1742 3200H1801L198 0H140ZM1120 139Q1117 166 1117 204T1120 282Q1124 348 1143 399T1200 491T1293 565L1396 625Q1496 681 1558 739T1642 900Q1651 940 1654 1014T1655 1147Q1651
1293 1573 1357T1317 1421Q1149 1421 1073 1359T990 1152Q989 1098 989 1048T992 926H948Q946 1014 945 1055T946 1153Q952 1314 1037 1385T1317 1456Q1521 1456 1607 1383T1700 1147Q1702 1102 1701 1052T1695 959T1684 887Q1660 784 1597 721T1416 591L1312 531Q1265
503 1234 469T1186 391T1165 291Q1164 254 1164 233T1164 172L1369 192H1686V154H1333L1120 139ZM944 0Q941 88 942 155T945 289Q949 376 977 450T1065 587T1215 704L1318 764Q1395 809 1430 845T1475 940Q1481 970 1481 1035T1480 1143Q1476 1215 1438 1247T1317
1279Q1242 1279 1208 1249T1169 1150Q1166 1101 1167 1051T1170 926H1126Q1125 991 1123 1041T1124 1150Q1129 1238 1173 1276T1317 1314Q1423 1314 1470 1275T1522 1144Q1523 1099 1522 1032T1514 934Q1500 858 1456 817T1338 732L1235 671Q1161 626 1107 570T1022
444T989 286Q986 220 986 162T988 38H1686V0H944ZM1031 72Q1029 127 1029 177T1032 286Q1035 360 1058 423T1129 539T1253 636L1357 697Q1435 743 1487 790T1557 922Q1565 956 1567 1026T1566 1145Q1560 1256 1502 1303T1317 1350Q1193 1350 1139 1303T1080 1151Q1078
1100 1078 1049T1081 926H1037Q1035 994 1034 1048T1035 1152Q1040 1276 1105 1330T1317 1385Q1473 1385 1539 1329T1611 1145Q1612 1108 1611 1063T1607 976T1598 909Q1578 827 1528 775T1375 662L1271 600Q1204 560 1162 513T1100 409T1076 284Q1075 229 1075
188T1076 109L1291 115H1686V76H1248L1031 72Z" />
<glyph unicode="&#xbe;" horiz-adv-x="2419" d="M522 1744Q338 1744 238 1811T129 2026Q127 2067 127 2125T129 2243H174Q171 2178 171 2123T174 2028Q183 1895 273 1837T522 1779Q683 1779 764 1841T855 2032Q857 2065 858 2151T855 2308Q848 2455 775 2507T550
2560H517V2582L866 3026V3162H142V3200H909V3011L580 2595Q698 2594 766 2560T864 2463T899 2311Q903 2214 903 2140T900 2032Q891 1885 798 1815T522 1744ZM522 1886Q418 1886 366 1921T308 2033Q306 2070 306 2126T307 2243H352Q350 2191 350 2134T352 2035Q356
1976 397 1949T522 1922Q595 1922 631 1949T676 2036Q679 2063 680 2111T680 2213T676 2306Q670 2373 629 2395T495 2418H326L319 2605L640 3016L142 3008V3046H721L363 2589L367 2455H494Q603 2455 659 2427T721 2311Q726 2255 726 2164T721 2036Q714 1958 665
1922T522 1886ZM522 1815Q371 1815 298 1868T218 2030Q216 2068 216 2125T218 2243H263Q260 2176 260 2122T263 2031Q270 1938 333 1894T522 1850Q636 1850 696 1895T766 2034Q769 2065 769 2154T766 2312Q760 2421 695 2458T494 2493L412 2492L409 2576L777 3046V3085H142V3124H821V3031L450
2560L451 2533H494Q652 2536 728 2490T811 2312Q813 2254 813 2163T811 2034Q802 1922 731 1869T522 1815ZM414 0L2017 3200H2075L472 0H414ZM297 0L1900 3200H1958L356 0H297ZM531 0L2133 3200H2192L589 0H531ZM1951 0V390H1486V549L1850 1440H2182L2175 581H2350V543H2131L2144
1402H1883L1531 541V428H1996V0H1951ZM2131 0V428H2350V390H2175V0H2131ZM2042 0V467H1576V534L1750 961L1905 1365L2110 1364L2086 703V505H2350V467H2086V0H2042ZM1620 505H2042L2041 679L2072 1325H1931L1786 935L1620 527V505ZM1671 543L1814 917L1949 1287H2039L2005
715L1999 543H1671ZM1735 581H1956L1964 722L2001 1251H1973L1837 871L1735 581Z" />
<glyph unicode="&#xbf;" horiz-adv-x="1616" d="M793 1763L783 1204Q782 1123 745 1063T643 972L513 911Q394 857 327 783T229 596T192 305Q190 260 190 205T192 46T195 -244Q200 -529 328 -653T761 -778Q1041 -778 1163 -653T1298 -241Q1301 -120 1301 19T1297
326H1360Q1364 159 1364 19T1361 -244Q1348 -556 1210 -693T761 -830Q539 -830 402 -771T200 -583T131 -244Q131 -56 129 46T127 204T129 306Q136 495 169 618T278 822T485 964L614 1025Q664 1047 693 1094T725 1204L745 1763H793ZM993 1763L1012 1204Q1016 1103
989 1015T903 859T751 749L621 690Q556 661 520 619T467 503T445 302Q442 259 443 205T445 49T448 -244Q453 -420 517 -495T761 -571Q919 -571 978 -493T1045 -229Q1048 -116 1048 20T1043 326H1107Q1111 156 1111 20T1108 -232Q1100 -442 1025 -532T761 -623Q550
-623 470 -535T385 -244Q384 -55 383 47T380 204T381 302Q388 441 408 525T472 659T595 745L724 806Q803 843 854 901T931 1037T954 1204L944 1763H993ZM894 1763L898 1204Q899 1086 847 997T697 861L568 801Q476 758 424 700T348 548T318 303Q317 259 317 204T319
47T321 -244Q327 -475 423 -575T761 -675Q979 -675 1071 -573T1171 -235Q1175 -119 1175 19T1170 326H1233Q1238 158 1238 20T1235 -238Q1223 -499 1117 -612T761 -726Q487 -726 375 -614T258 -244Q258 -56 256 46T254 204T255 304Q262 468 289 572T376 742T540
856L670 917Q751 954 795 1029T840 1204L844 1763H894ZM1072 2400V2342H660V2400H1072ZM1072 2169V2112H660V2169H1072ZM1072 2285V2227H660V2285H1072Z" />
<glyph unicode="&#xc0;" horiz-adv-x="1553" d="M106 0L450 3200H1103L1447 0H1382L1048 3148H505L171 0H106ZM361 0L461 969H1092L1192 0H1127L1039 916H514L426 0H361ZM233 0L551 3094H1002L1320 0H1255L1151 1019H402L298 0H233ZM405 1071H1144L1055 1983L947
3042H606L495 1983L405 1071ZM477 1125L557 1983L653 2991H900L997 1983L1076 1125H477ZM544 1177H1009L936 1983L848 2939H705L617 1983L544 1177ZM617 3380L233 3871H306L676 3380H617ZM733 3380L376 3871H449L791 3380H733ZM848 3380L519 3871H592L907 3380H848Z"
/>
<glyph unicode="&#xc1;" horiz-adv-x="1553" d="M106 0L450 3200H1103L1447 0H1382L1048 3148H505L171 0H106ZM361 0L461 969H1092L1192 0H1127L1039 916H514L426 0H361ZM233 0L551 3094H1002L1320 0H1255L1151 1019H402L298 0H233ZM405 1071H1144L1055 1983L947
3042H606L495 1983L405 1071ZM477 1125L557 1983L653 2991H900L997 1983L1076 1125H477ZM544 1177H1009L936 1983L848 2939H705L617 1983L544 1177ZM654 3380L969 3871H1042L713 3380H654ZM885 3380L1255 3871H1327L944 3380H885ZM770 3380L1112 3871H1185L828
3380H770Z" />
<glyph unicode="&#xc2;" horiz-adv-x="1553" d="M106 0L450 3200H1103L1447 0H1382L1048 3148H505L171 0H106ZM361 0L461 969H1092L1192 0H1127L1039 916H514L426 0H361ZM233 0L551 3094H1002L1320 0H1255L1151 1019H402L298 0H233ZM405 1071H1144L1055 1983L947
3042H606L495 1983L405 1071ZM477 1125L557 1983L653 2991H900L997 1983L1076 1125H477ZM544 1177H1009L936 1983L848 2939H705L617 1983L544 1177ZM269 3380L580 3848H648L339 3380H269ZM407 3380L710 3848H843L1146 3380H1075L863 3708L803 3799H750L689 3707L478
3380H407ZM542 3380L715 3660L752 3731H801L838 3660L1012 3380H940L795 3625L782 3674H771L758 3625L613 3380H542ZM1213 3380L904 3848H973L1283 3380H1213Z" />
<glyph unicode="&#xc3;" horiz-adv-x="1553" d="M106 0L450 3200H1103L1447 0H1382L1048 3148H505L171 0H106ZM361 0L461 969H1092L1192 0H1127L1039 916H514L426 0H361ZM233 0L551 3094H1002L1320 0H1255L1151 1019H402L298 0H233ZM405 1071H1144L1055 1983L947
3042H606L495 1983L405 1071ZM477 1125L557 1983L653 2991H900L997 1983L1076 1125H477ZM544 1177H1009L936 1983L848 2939H705L617 1983L544 1177ZM346 3472Q357 3616 446 3702T654 3776Q714 3770 751 3745T817 3688T873 3632T939 3605Q985 3600 1010 3630T1034
3715H1064Q1065 3640 1031 3596T931 3554Q884 3557 853 3581T794 3636T732 3693T645 3728Q545 3743 466 3669T377 3472H346ZM408 3472Q417 3582 481 3646T630 3698Q679 3692 712 3666T774 3608T835 3551T919 3522Q997 3516 1046 3569T1096 3715H1126Q1128 3600
1069 3531T912 3469Q856 3473 820 3498T755 3555T695 3613T621 3645Q552 3654 499 3605T439 3472H408ZM470 3472Q476 3542 517 3582T613 3614Q651 3608 680 3583T738 3525T805 3468T902 3438Q1011 3426 1085 3504T1157 3715H1189Q1190 3563 1107 3472T892 3390Q828
3395 785 3419T710 3473T653 3529T602 3562Q569 3572 536 3548T501 3472H470Z" />
<glyph unicode="&#xc4;" horiz-adv-x="1553" d="M106 0L450 3200H1103L1447 0H1382L1048 3148H505L171 0H106ZM361 0L461 969H1092L1192 0H1127L1039 916H514L426 0H361ZM233 0L551 3094H1002L1320 0H1255L1151 1019H402L298 0H233ZM405 1071H1144L1055 1983L947
3042H606L495 1983L405 1071ZM477 1125L557 1983L653 2991H900L997 1983L1076 1125H477ZM544 1177H1009L936 1983L848 2939H705L617 1983L544 1177ZM854 3599V3654H1142V3599H854ZM417 3380V3435H705V3380H417ZM417 3490V3544H705V3490H417ZM417 3599V3654H705V3599H417ZM854
3380V3435H1142V3380H854ZM854 3490V3544H1142V3490H854Z" />
<glyph unicode="&#xc5;" horiz-adv-x="1553" d="M106 0L450 3200H1103L1447 0H1382L1048 3148H505L171 0H106ZM361 0L461 969H1092L1192 0H1127L1039 916H514L426 0H361ZM233 0L551 3094H1002L1320 0H1255L1151 1019H402L298 0H233ZM405 1071H1144L1055 1983L947
3042H606L495 1983L405 1071ZM477 1125L557 1983L653 2991H900L997 1983L1076 1125H477ZM544 1177H1009L936 1983L848 2939H705L617 1983L544 1177ZM777 3394Q693 3394 623 3435T512 3546T471 3699Q471 3784 512 3853T623 3964T777 4005Q861 4005 930 3964T1041
3854T1082 3699Q1082 3616 1041 3546T931 3435T777 3394ZM777 3449Q881 3449 954 3522T1027 3699Q1027 3804 954 3877T777 3950Q672 3950 599 3877T526 3699Q526 3595 599 3522T777 3449ZM777 3504Q695 3504 638 3561T581 3699Q581 3781 638 3838T777 3895Q858
3895 915 3838T972 3699Q972 3618 915 3561T777 3504ZM777 3558Q835 3558 876 3600T918 3699Q918 3758 877 3799T777 3841Q719 3841 677 3800T635 3699Q635 3642 677 3600T777 3558ZM777 3613Q741 3613 716 3638T690 3700Q690 3736 715 3761T777 3786Q813 3786
838 3761T863 3699Q863 3664 838 3639T777 3613ZM777 3667Q809 3667 809 3699Q809 3732 777 3732Q744 3732 744 3699Q744 3667 777 3667Z" />
<glyph unicode="&#xc6;" horiz-adv-x="2230" d="M66 0L648 3200H2118V3145H700L130 0H66ZM197 0L754 3090H2118V3035H1249V1638H2078V1583H1249V165H2118V110H1185V1025H443L262 0H197ZM325 0L495 971H1122V55H2118V0H1059V916H547L387 0H325ZM457 1080H1185V3035H803L457
1080ZM533 1137L857 2980H1122V1137H533ZM609 1192H1059V2925H909L609 1192ZM1312 1693V2980H2118V2925H1376V1748H2078V1693H1312ZM1312 220V1528H2078V1473H1376V275H2118V220H1312Z" />
<glyph unicode="&#xc7;" horiz-adv-x="1670" d="M842 -30Q514 -30 370 98T220 522Q215 923 213 1267T212 1951T220 2676Q225 2972 370 3098T839 3225Q1161 3225 1309 3099T1469 2674Q1473 2596 1474 2524T1476 2381T1474 2238T1468 2088H1404Q1409 2192 1411 2286T1412
2475T1406 2673Q1394 2944 1261 3059T839 3174Q549 3174 419 3059T284 2674Q280 2339 278 1989T276 1273T284 523Q288 243 425 132T842 21Q1141 21 1275 138T1422 523Q1429 667 1428 814T1419 1154H1483Q1492 918 1491 779T1485 522Q1473 228 1325 99T842 -30ZM842
71Q582 71 467 176T347 523Q341 929 339 1272T339 1951T347 2674Q350 2916 465 3020T839 3124Q1112 3124 1222 3013T1343 2669Q1346 2596 1347 2528T1349 2391T1347 2248T1341 2088H1278Q1284 2229 1285 2332T1285 2515T1279 2668Q1270 2874 1175 2973T839 3072Q613
3072 514 2979T411 2673Q407 2338 404 1993T402 1284T411 525Q415 310 515 217T842 123Q1072 123 1178 216T1295 529Q1300 620 1301 716T1300 920T1293 1154H1356Q1362 1002 1363 890T1364 691T1359 527Q1348 292 1233 182T842 71ZM842 173Q650 173 564 254T475
525Q469 896 467 1236T466 1926T474 2673Q477 2860 562 2941T839 3022Q1032 3022 1119 2939T1216 2663Q1220 2564 1221 2471T1221 2284T1214 2088H1151Q1156 2192 1157 2286T1158 2472T1152 2663Q1145 2830 1072 2900T839 2971Q691 2971 616 2906T537 2669Q532
2330 529 1993T528 1297T537 529Q541 359 615 292T842 224Q1011 224 1086 296T1168 533Q1176 673 1175 819T1166 1154H1229Q1237 965 1238 818T1232 533Q1223 341 1133 257T842 173ZM913 -105H963L984 -244Q1014 -447 927 -545T625 -643H540V-589H625Q810 -589
885 -505T934 -244L913 -105ZM724 -105H772L793 -230Q810 -326 768 -375T625 -424H540V-371H625Q698 -371 726 -336T744 -230L724 -105ZM817 -105H868L889 -237Q912 -386 848 -460T625 -534H540V-479H625Q755 -479 806 -420T838 -237L817 -105Z" />
<glyph unicode="&#xc8;" horiz-adv-x="1415" d="M243 0V3200H1303V3145H306V55H1303V0H243ZM496 220V1528H1263V1473H560V275H1303V220H496ZM370 110V3090H1303V3035H433V1638H1263V1583H433V165H1303V110H370ZM496 1693V2980H1303V2925H560V1748H1263V1693H496ZM606
3375L222 3866H295L665 3375H606ZM722 3375L365 3866H438L780 3375H722ZM837 3375L508 3866H581L896 3375H837Z" />
<glyph unicode="&#xc9;" horiz-adv-x="1415" d="M243 0V3200H1303V3145H306V55H1303V0H243ZM496 220V1528H1263V1473H560V275H1303V220H496ZM370 110V3090H1303V3035H433V1638H1263V1583H433V165H1303V110H370ZM496 1693V2980H1303V2925H560V1748H1263V1693H496ZM643
3375L958 3866H1031L702 3375H643ZM874 3375L1244 3866H1316L933 3375H874ZM759 3375L1101 3866H1174L817 3375H759Z" />
<glyph unicode="&#xca;" horiz-adv-x="1415" d="M243 0V3200H1303V3145H306V55H1303V0H243ZM496 220V1528H1263V1473H560V275H1303V220H496ZM370 110V3090H1303V3035H433V1638H1263V1583H433V165H1303V110H370ZM496 1693V2980H1303V2925H560V1748H1263V1693H496ZM258
3375L569 3843H637L328 3375H258ZM396 3375L699 3843H832L1135 3375H1064L852 3703L792 3794H739L678 3702L467 3375H396ZM531 3375L704 3655L741 3726H790L827 3655L1001 3375H929L784 3620L771 3669H760L747 3620L602 3375H531ZM1202 3375L893 3843H962L1272
3375H1202Z" />
<glyph unicode="&#xcb;" horiz-adv-x="1415" d="M243 0V3200H1303V3145H306V55H1303V0H243ZM496 220V1528H1263V1473H560V275H1303V220H496ZM370 110V3090H1303V3035H433V1638H1263V1583H433V165H1303V110H370ZM496 1693V2980H1303V2925H560V1748H1263V1693H496ZM843
3594V3649H1131V3594H843ZM406 3375V3430H694V3375H406ZM406 3485V3539H694V3485H406ZM406 3594V3649H694V3594H406ZM843 3375V3430H1131V3375H843ZM843 3485V3539H1131V3485H843Z" />
<glyph unicode="&#xcc;" horiz-adv-x="803" d="M496 0V3200H560V0H496ZM243 0V3200H306V0H243ZM370 0V3200H433V0H370ZM242 3380L-142 3871H-69L301 3380H242ZM358 3380L1 3871H74L416 3380H358ZM473 3380L144 3871H217L532 3380H473Z" />
<glyph unicode="&#xcd;" horiz-adv-x="803" d="M496 0V3200H560V0H496ZM243 0V3200H306V0H243ZM370 0V3200H433V0H370ZM279 3380L594 3871H667L338 3380H279ZM510 3380L880 3871H952L569 3380H510ZM395 3380L737 3871H810L453 3380H395Z" />
<glyph unicode="&#xce;" horiz-adv-x="803" d="M496 0V3200H560V0H496ZM243 0V3200H306V0H243ZM370 0V3200H433V0H370ZM-106 3380L205 3848H273L-36 3380H-106ZM32 3380L335 3848H468L771 3380H700L488 3708L428 3799H375L314 3707L103 3380H32ZM167 3380L340
3660L377 3731H426L463 3660L637 3380H565L420 3625L407 3674H396L383 3625L238 3380H167ZM838 3380L529 3848H598L908 3380H838Z" />
<glyph unicode="&#xcf;" horiz-adv-x="803" d="M496 0V3200H560V0H496ZM243 0V3200H306V0H243ZM370 0V3200H433V0H370ZM479 3599V3654H767V3599H479ZM42 3380V3435H330V3380H42ZM42 3490V3544H330V3490H42ZM42 3599V3654H330V3599H42ZM479 3380V3435H767V3380H479ZM479
3490V3544H767V3490H479Z" />
<glyph unicode="&#xd0;" horiz-adv-x="1751" d="M323 0V1631H129V1683H386V55H948Q1116 55 1230 98T1404 247T1467 534Q1472 848 1474 1199T1476 1923T1467 2667Q1464 2842 1406 2946T1229 3098T925 3145H386V1840H129V1892H323V3200H925Q1118 3200 1252 3153T1456
2991T1530 2668Q1536 2328 1538 1983T1539 1277T1530 533Q1527 328 1460 212T1265 48T948 0H323ZM449 110V1735H129V1788H449V3090H925Q1090 3090 1194 3049T1350 2915T1403 2667Q1408 2407 1410 2148T1413 1625T1410 1090T1403 534Q1401 369 1347 277T1193 148T948
110H449ZM513 165H948Q1148 165 1242 249T1340 536Q1346 882 1348 1233T1349 1943T1340 2666Q1336 2879 1230 2957T925 3035H513V1788H877V1735H513V165ZM576 220V1683H877V1631H640V275H948Q1072 275 1141 329T1213 544Q1219 872 1221 1228T1221 1947T1213 2656Q1210
2813 1137 2869T925 2925H640V1892H877V1840H576V2980H925Q1090 2980 1181 2916T1276 2664Q1283 2301 1285 1968T1286 1289T1276 537Q1272 353 1189 287T948 220H576Z" />
<glyph unicode="&#xd1;" horiz-adv-x="2008" d="M243 0V3200H902L1114 1866L1355 261H1490L1448 1872L1441 3200H1506V1872L1544 209H1311L849 3148H306V0H243ZM370 0L372 1367L361 3096H797L1264 157H1595L1571 1872L1574 3200H1638L1635 1872L1647 104H1213L744
3043H412L436 1367L433 0H370ZM501 0V1367L465 2991H697L1159 52H1696L1702 3200H1765L1759 0H1102L886 1379L654 2939H521L555 1367L564 0H501ZM611 3472Q622 3616 711 3702T919 3776Q979 3770 1016 3745T1082 3688T1138 3632T1204 3605Q1250 3600 1275 3630T1299
3715H1329Q1330 3640 1296 3596T1196 3554Q1149 3557 1118 3581T1059 3636T997 3693T910 3728Q810 3743 731 3669T642 3472H611ZM673 3472Q682 3582 746 3646T895 3698Q944 3692 977 3666T1039 3608T1100 3551T1184 3522Q1262 3516 1311 3569T1361 3715H1391Q1393
3600 1334 3531T1177 3469Q1121 3473 1085 3498T1020 3555T960 3613T886 3645Q817 3654 764 3605T704 3472H673ZM735 3472Q741 3542 782 3582T878 3614Q916 3608 945 3583T1003 3525T1070 3468T1167 3438Q1276 3426 1350 3504T1422 3715H1454Q1455 3563 1372 3472T1157
3390Q1093 3395 1050 3419T975 3473T918 3529T867 3562Q834 3572 801 3548T766 3472H735Z" />
<glyph unicode="&#xd2;" horiz-adv-x="1680" d="M839 -27Q513 -27 370 105T220 543Q216 845 214 1104T211 1608T213 2108T220 2656Q226 2962 369 3094T839 3227Q1157 3227 1303 3097T1457 2657Q1462 2396 1465 2145T1469 1639T1466 1113T1457 542Q1450 228 1301
101T839 -27ZM839 25Q1118 25 1253 140T1393 544Q1399 819 1401 1073T1404 1579T1403 2095T1393 2655Q1388 2939 1255 3057T839 3175Q546 3175 418 3054T284 2655Q280 2414 278 2182T275 1703T276 1172T284 544Q288 256 424 141T839 25ZM839 77Q581 77 467 185T347
544Q343 845 341 1104T338 1608T340 2108T347 2655Q352 2906 466 3014T839 3123Q1089 3123 1206 3017T1330 2653Q1335 2406 1338 2156T1342 1648T1339 1115T1330 545Q1325 284 1204 181T839 77ZM839 130Q1047 130 1154 220T1267 547Q1272 817 1274 1074T1277 1586T1276
2104T1267 2652Q1262 2885 1158 2977T839 3070Q614 3070 515 2974T411 2653Q406 2394 404 2145T401 1641T402 1117T411 545Q415 323 514 227T839 130ZM839 182Q648 182 563 267T474 550Q468 896 466 1241T466 1937T474 2652Q477 2858 568 2938T839 3018Q1024 3018
1111 2936T1203 2651Q1209 2395 1212 2146T1215 1643T1213 1119T1203 549Q1199 344 1110 263T839 182ZM839 234Q990 234 1063 305T1140 554Q1144 816 1146 1066T1149 1569T1147 2087T1140 2645Q1137 2829 1061 2897T839 2966Q687 2966 614 2896T537 2649Q532 2317
530 1985T528 1300T537 549Q541 381 611 308T839 234ZM681 3380L297 3871H370L740 3380H681ZM797 3380L440 3871H513L855 3380H797ZM912 3380L583 3871H656L971 3380H912Z" />
<glyph unicode="&#xd3;" horiz-adv-x="1680" d="M839 -27Q513 -27 370 105T220 543Q216 845 214 1104T211 1608T213 2108T220 2656Q226 2962 369 3094T839 3227Q1157 3227 1303 3097T1457 2657Q1462 2396 1465 2145T1469 1639T1466 1113T1457 542Q1450 228 1301
101T839 -27ZM839 25Q1118 25 1253 140T1393 544Q1399 819 1401 1073T1404 1579T1403 2095T1393 2655Q1388 2939 1255 3057T839 3175Q546 3175 418 3054T284 2655Q280 2414 278 2182T275 1703T276 1172T284 544Q288 256 424 141T839 25ZM839 77Q581 77 467 185T347
544Q343 845 341 1104T338 1608T340 2108T347 2655Q352 2906 466 3014T839 3123Q1089 3123 1206 3017T1330 2653Q1335 2406 1338 2156T1342 1648T1339 1115T1330 545Q1325 284 1204 181T839 77ZM839 130Q1047 130 1154 220T1267 547Q1272 817 1274 1074T1277 1586T1276
2104T1267 2652Q1262 2885 1158 2977T839 3070Q614 3070 515 2974T411 2653Q406 2394 404 2145T401 1641T402 1117T411 545Q415 323 514 227T839 130ZM839 182Q648 182 563 267T474 550Q468 896 466 1241T466 1937T474 2652Q477 2858 568 2938T839 3018Q1024 3018
1111 2936T1203 2651Q1209 2395 1212 2146T1215 1643T1213 1119T1203 549Q1199 344 1110 263T839 182ZM839 234Q990 234 1063 305T1140 554Q1144 816 1146 1066T1149 1569T1147 2087T1140 2645Q1137 2829 1061 2897T839 2966Q687 2966 614 2896T537 2649Q532 2317
530 1985T528 1300T537 549Q541 381 611 308T839 234ZM718 3380L1033 3871H1106L777 3380H718ZM949 3380L1319 3871H1391L1008 3380H949ZM834 3380L1176 3871H1249L892 3380H834Z" />
<glyph unicode="&#xd4;" horiz-adv-x="1680" d="M839 -27Q513 -27 370 105T220 543Q216 845 214 1104T211 1608T213 2108T220 2656Q226 2962 369 3094T839 3227Q1157 3227 1303 3097T1457 2657Q1462 2396 1465 2145T1469 1639T1466 1113T1457 542Q1450 228 1301
101T839 -27ZM839 25Q1118 25 1253 140T1393 544Q1399 819 1401 1073T1404 1579T1403 2095T1393 2655Q1388 2939 1255 3057T839 3175Q546 3175 418 3054T284 2655Q280 2414 278 2182T275 1703T276 1172T284 544Q288 256 424 141T839 25ZM839 77Q581 77 467 185T347
544Q343 845 341 1104T338 1608T340 2108T347 2655Q352 2906 466 3014T839 3123Q1089 3123 1206 3017T1330 2653Q1335 2406 1338 2156T1342 1648T1339 1115T1330 545Q1325 284 1204 181T839 77ZM839 130Q1047 130 1154 220T1267 547Q1272 817 1274 1074T1277 1586T1276
2104T1267 2652Q1262 2885 1158 2977T839 3070Q614 3070 515 2974T411 2653Q406 2394 404 2145T401 1641T402 1117T411 545Q415 323 514 227T839 130ZM839 182Q648 182 563 267T474 550Q468 896 466 1241T466 1937T474 2652Q477 2858 568 2938T839 3018Q1024 3018
1111 2936T1203 2651Q1209 2395 1212 2146T1215 1643T1213 1119T1203 549Q1199 344 1110 263T839 182ZM839 234Q990 234 1063 305T1140 554Q1144 816 1146 1066T1149 1569T1147 2087T1140 2645Q1137 2829 1061 2897T839 2966Q687 2966 614 2896T537 2649Q532 2317
530 1985T528 1300T537 549Q541 381 611 308T839 234ZM333 3380L644 3848H712L403 3380H333ZM471 3380L774 3848H907L1210 3380H1139L927 3708L867 3799H814L753 3707L542 3380H471ZM606 3380L779 3660L816 3731H865L902 3660L1076 3380H1004L859 3625L846 3674H835L822
3625L677 3380H606ZM1277 3380L968 3848H1037L1347 3380H1277Z" />
<glyph unicode="&#xd5;" horiz-adv-x="1680" d="M839 -27Q513 -27 370 105T220 543Q216 845 214 1104T211 1608T213 2108T220 2656Q226 2962 369 3094T839 3227Q1157 3227 1303 3097T1457 2657Q1462 2396 1465 2145T1469 1639T1466 1113T1457 542Q1450 228 1301
101T839 -27ZM839 25Q1118 25 1253 140T1393 544Q1399 819 1401 1073T1404 1579T1403 2095T1393 2655Q1388 2939 1255 3057T839 3175Q546 3175 418 3054T284 2655Q280 2414 278 2182T275 1703T276 1172T284 544Q288 256 424 141T839 25ZM839 77Q581 77 467 185T347
544Q343 845 341 1104T338 1608T340 2108T347 2655Q352 2906 466 3014T839 3123Q1089 3123 1206 3017T1330 2653Q1335 2406 1338 2156T1342 1648T1339 1115T1330 545Q1325 284 1204 181T839 77ZM839 130Q1047 130 1154 220T1267 547Q1272 817 1274 1074T1277 1586T1276
2104T1267 2652Q1262 2885 1158 2977T839 3070Q614 3070 515 2974T411 2653Q406 2394 404 2145T401 1641T402 1117T411 545Q415 323 514 227T839 130ZM839 182Q648 182 563 267T474 550Q468 896 466 1241T466 1937T474 2652Q477 2858 568 2938T839 3018Q1024 3018
1111 2936T1203 2651Q1209 2395 1212 2146T1215 1643T1213 1119T1203 549Q1199 344 1110 263T839 182ZM839 234Q990 234 1063 305T1140 554Q1144 816 1146 1066T1149 1569T1147 2087T1140 2645Q1137 2829 1061 2897T839 2966Q687 2966 614 2896T537 2649Q532 2317
530 1985T528 1300T537 549Q541 381 611 308T839 234ZM411 3472Q422 3616 511 3702T719 3776Q779 3770 816 3745T882 3688T938 3632T1004 3605Q1050 3600 1075 3630T1099 3715H1129Q1130 3640 1096 3596T996 3554Q949 3557 918 3581T859 3636T797 3693T710 3728Q610
3743 531 3669T442 3472H411ZM473 3472Q482 3582 546 3646T695 3698Q744 3692 777 3666T839 3608T900 3551T984 3522Q1062 3516 1111 3569T1161 3715H1191Q1193 3600 1134 3531T977 3469Q921 3473 885 3498T820 3555T760 3613T686 3645Q617 3654 564 3605T504 3472H473ZM535
3472Q541 3542 582 3582T678 3614Q716 3608 745 3583T803 3525T870 3468T967 3438Q1076 3426 1150 3504T1222 3715H1254Q1255 3563 1172 3472T957 3390Q893 3395 850 3419T775 3473T718 3529T667 3562Q634 3572 601 3548T566 3472H535Z" />
<glyph unicode="&#xd6;" horiz-adv-x="1680" d="M839 -27Q513 -27 370 105T220 543Q216 845 214 1104T211 1608T213 2108T220 2656Q226 2962 369 3094T839 3227Q1157 3227 1303 3097T1457 2657Q1462 2396 1465 2145T1469 1639T1466 1113T1457 542Q1450 228 1301
101T839 -27ZM839 25Q1118 25 1253 140T1393 544Q1399 819 1401 1073T1404 1579T1403 2095T1393 2655Q1388 2939 1255 3057T839 3175Q546 3175 418 3054T284 2655Q280 2414 278 2182T275 1703T276 1172T284 544Q288 256 424 141T839 25ZM839 77Q581 77 467 185T347
544Q343 845 341 1104T338 1608T340 2108T347 2655Q352 2906 466 3014T839 3123Q1089 3123 1206 3017T1330 2653Q1335 2406 1338 2156T1342 1648T1339 1115T1330 545Q1325 284 1204 181T839 77ZM839 130Q1047 130 1154 220T1267 547Q1272 817 1274 1074T1277 1586T1276
2104T1267 2652Q1262 2885 1158 2977T839 3070Q614 3070 515 2974T411 2653Q406 2394 404 2145T401 1641T402 1117T411 545Q415 323 514 227T839 130ZM839 182Q648 182 563 267T474 550Q468 896 466 1241T466 1937T474 2652Q477 2858 568 2938T839 3018Q1024 3018
1111 2936T1203 2651Q1209 2395 1212 2146T1215 1643T1213 1119T1203 549Q1199 344 1110 263T839 182ZM839 234Q990 234 1063 305T1140 554Q1144 816 1146 1066T1149 1569T1147 2087T1140 2645Q1137 2829 1061 2897T839 2966Q687 2966 614 2896T537 2649Q532 2317
530 1985T528 1300T537 549Q541 381 611 308T839 234ZM918 3599V3654H1206V3599H918ZM481 3380V3435H769V3380H481ZM481 3490V3544H769V3490H481ZM481 3599V3654H769V3599H481ZM918 3380V3435H1206V3380H918ZM918 3490V3544H1206V3490H918Z" />
<glyph unicode="&#xd7;" horiz-adv-x="1661" d="M301 1036L786 1521L302 2005L347 2049L831 1566L1314 2049L1360 2005L875 1521L1360 1037L1314 992L831 1476L346 991L301 1036ZM211 1125L606 1521L213 1916L257 1960L697 1521L256 1080L211 1125ZM391 2094L437
2139L831 1745L1225 2139L1270 2094L831 1655L391 2094ZM391 947L831 1386L1270 947L1225 902L831 1297L436 902L391 947ZM965 1521L1405 1960L1449 1916L1055 1521L1449 1126L1405 1082L965 1521Z" />
<glyph unicode="&#xd8;" horiz-adv-x="1680" d="M839 -27Q622 -27 487 31T288 214T220 543Q216 845 214 1104T211 1608T213 2108T220 2656Q224 2861 288 2986T487 3169T839 3227Q1051 3227 1185 3171T1386 2989T1457 2657Q1462 2396 1465 2145T1469 1639T1466
1113T1457 542Q1453 332 1385 207T1182 28T839 -27ZM839 234Q990 234 1063 305T1140 554Q1144 765 1147 989T1152 1441T1153 1887L534 765Q534 743 534 719T535 669T535 614T537 549Q541 381 611 308T839 234ZM839 182Q652 182 565 264T474 545Q474 576 474 617T473
701T471 782L1213 2109Q1215 1889 1215 1642T1212 1122T1203 548Q1199 342 1109 262T839 182ZM839 130Q1049 130 1155 221T1267 547Q1273 856 1275 1146T1278 1722T1272 2308L406 797Q406 766 406 735T408 671T409 608T411 545Q415 323 514 227T839 130ZM839 25Q1025
25 1146 75T1329 238T1393 544Q1399 819 1401 1073T1404 1579T1403 2095T1393 2655Q1390 2845 1330 2959T1149 3124T839 3175Q644 3175 523 3122T345 2955T284 2655Q280 2414 278 2182T275 1703T276 1172T284 544Q288 256 424 141T839 25ZM839 77Q581 77 467 185T347
544Q343 845 341 1104T338 1608T340 2108T347 2655Q352 2906 466 3014T839 3123Q1089 3123 1206 3017T1330 2653Q1335 2406 1338 2156T1342 1648T1339 1115T1330 545Q1325 284 1204 181T839 77ZM405 906L1271 2413Q1271 2452 1270 2492T1269 2573T1267 2652Q1262
2884 1158 2977T839 3070Q614 3070 515 2974T411 2653Q405 2321 403 2036T400 1477T405 906ZM467 1105Q466 1350 466 1613T467 2141T474 2653Q477 2856 567 2937T839 3018Q1023 3018 1111 2936T1203 2651Q1205 2594 1205 2540T1207 2431L467 1105ZM527 1320L1143
2445Q1142 2494 1142 2559T1140 2645Q1137 2823 1064 2894T839 2966Q687 2966 614 2896T537 2649Q531 2303 529 1972T527 1320Z" />
<glyph unicode="&#xd9;" horiz-adv-x="1656" d="M829 -27Q504 -27 362 99T215 517Q211 845 209 1178T207 1848T210 2522T215 3200H278Q275 2880 273 2549T270 1879T272 1200T278 518Q282 250 411 137T829 23Q1115 23 1244 136T1378 518Q1382 849 1384 1183T1386
1852T1384 2525T1378 3200H1441Q1446 2750 1448 2305T1449 1414T1441 517Q1437 226 1295 100T829 -27ZM829 74Q571 74 458 177T342 519Q338 853 336 1187T334 1856T336 2526T342 3200H405Q402 2877 400 2545T397 1875T399 1198T405 519Q408 306 507 216T829 125Q1050
125 1149 215T1251 519Q1256 850 1257 1184T1259 1853T1257 2525T1251 3200H1314Q1317 2862 1319 2528T1322 1860T1321 1192T1314 519Q1311 281 1198 178T829 74ZM829 176Q640 176 556 255T468 520Q462 967 461 1412T461 2303T468 3200H532Q529 2879 527 2547T524
1876T526 1198T532 521Q534 367 601 297T829 226Q988 226 1055 296T1124 521Q1130 967 1131 1411T1131 2303T1124 3200H1187Q1191 2862 1193 2528T1196 1860T1194 1192T1187 520Q1185 333 1101 255T829 176ZM669 3380L285 3871H358L728 3380H669ZM785 3380L428
3871H501L843 3380H785ZM900 3380L571 3871H644L959 3380H900Z" />
<glyph unicode="&#xda;" horiz-adv-x="1656" d="M829 -27Q504 -27 362 99T215 517Q211 845 209 1178T207 1848T210 2522T215 3200H278Q275 2880 273 2549T270 1879T272 1200T278 518Q282 250 411 137T829 23Q1115 23 1244 136T1378 518Q1382 849 1384 1183T1386
1852T1384 2525T1378 3200H1441Q1446 2750 1448 2305T1449 1414T1441 517Q1437 226 1295 100T829 -27ZM829 74Q571 74 458 177T342 519Q338 853 336 1187T334 1856T336 2526T342 3200H405Q402 2877 400 2545T397 1875T399 1198T405 519Q408 306 507 216T829 125Q1050
125 1149 215T1251 519Q1256 850 1257 1184T1259 1853T1257 2525T1251 3200H1314Q1317 2862 1319 2528T1322 1860T1321 1192T1314 519Q1311 281 1198 178T829 74ZM829 176Q640 176 556 255T468 520Q462 967 461 1412T461 2303T468 3200H532Q529 2879 527 2547T524
1876T526 1198T532 521Q534 367 601 297T829 226Q988 226 1055 296T1124 521Q1130 967 1131 1411T1131 2303T1124 3200H1187Q1191 2862 1193 2528T1196 1860T1194 1192T1187 520Q1185 333 1101 255T829 176ZM706 3380L1021 3871H1094L765 3380H706ZM937 3380L1307
3871H1379L996 3380H937ZM822 3380L1164 3871H1237L880 3380H822Z" />
<glyph unicode="&#xdb;" horiz-adv-x="1656" d="M829 -27Q504 -27 362 99T215 517Q211 845 209 1178T207 1848T210 2522T215 3200H278Q275 2880 273 2549T270 1879T272 1200T278 518Q282 250 411 137T829 23Q1115 23 1244 136T1378 518Q1382 849 1384 1183T1386
1852T1384 2525T1378 3200H1441Q1446 2750 1448 2305T1449 1414T1441 517Q1437 226 1295 100T829 -27ZM829 74Q571 74 458 177T342 519Q338 853 336 1187T334 1856T336 2526T342 3200H405Q402 2877 400 2545T397 1875T399 1198T405 519Q408 306 507 216T829 125Q1050
125 1149 215T1251 519Q1256 850 1257 1184T1259 1853T1257 2525T1251 3200H1314Q1317 2862 1319 2528T1322 1860T1321 1192T1314 519Q1311 281 1198 178T829 74ZM829 176Q640 176 556 255T468 520Q462 967 461 1412T461 2303T468 3200H532Q529 2879 527 2547T524
1876T526 1198T532 521Q534 367 601 297T829 226Q988 226 1055 296T1124 521Q1130 967 1131 1411T1131 2303T1124 3200H1187Q1191 2862 1193 2528T1196 1860T1194 1192T1187 520Q1185 333 1101 255T829 176ZM321 3380L632 3848H700L391 3380H321ZM459 3380L762
3848H895L1198 3380H1127L915 3708L855 3799H802L741 3707L530 3380H459ZM594 3380L767 3660L804 3731H853L890 3660L1064 3380H992L847 3625L834 3674H823L810 3625L665 3380H594ZM1265 3380L956 3848H1025L1335 3380H1265Z" />
<glyph unicode="&#xdc;" horiz-adv-x="1656" d="M829 -27Q504 -27 362 99T215 517Q211 845 209 1178T207 1848T210 2522T215 3200H278Q275 2880 273 2549T270 1879T272 1200T278 518Q282 250 411 137T829 23Q1115 23 1244 136T1378 518Q1382 849 1384 1183T1386
1852T1384 2525T1378 3200H1441Q1446 2750 1448 2305T1449 1414T1441 517Q1437 226 1295 100T829 -27ZM829 74Q571 74 458 177T342 519Q338 853 336 1187T334 1856T336 2526T342 3200H405Q402 2877 400 2545T397 1875T399 1198T405 519Q408 306 507 216T829 125Q1050
125 1149 215T1251 519Q1256 850 1257 1184T1259 1853T1257 2525T1251 3200H1314Q1317 2862 1319 2528T1322 1860T1321 1192T1314 519Q1311 281 1198 178T829 74ZM829 176Q640 176 556 255T468 520Q462 967 461 1412T461 2303T468 3200H532Q529 2879 527 2547T524
1876T526 1198T532 521Q534 367 601 297T829 226Q988 226 1055 296T1124 521Q1130 967 1131 1411T1131 2303T1124 3200H1187Q1191 2862 1193 2528T1196 1860T1194 1192T1187 520Q1185 333 1101 255T829 176ZM906 3599V3654H1194V3599H906ZM469 3380V3435H757V3380H469ZM469
3490V3544H757V3490H469ZM469 3599V3654H757V3599H469ZM906 3380V3435H1194V3380H906ZM906 3490V3544H1194V3490H906Z" />
<glyph unicode="&#xdd;" horiz-adv-x="1515" d="M726 0V1215H580L352 2483L209 3200H272L416 2483L624 1270H891L1100 2483L1243 3200H1306L1163 2483L935 1215H789V0H726ZM599 0V1104H496L81 3200H145L544 1159H662V0H599ZM852 0V1159H970L1370 3200H1434L1019
1104H916V0H852ZM660 1325L476 2483L335 3200H399L538 2483L707 1380H806L978 2483L1116 3200H1179L1040 2483L854 1325H660ZM635 3380L950 3871H1023L694 3380H635ZM866 3380L1236 3871H1308L925 3380H866ZM751 3380L1093 3871H1166L809 3380H751Z" />
<glyph unicode="&#xde;" horiz-adv-x="1473" d="M211 0V3200H275V0H211ZM338 0V3200H402V2507H778Q929 2507 1027 2468T1175 2338T1230 2097Q1237 1925 1239 1778T1240 1488T1230 1190Q1223 1026 1167 937T1012 812T775 777H402V0H338ZM465 0V722H775Q1039 722
1161 828T1294 1186Q1304 1421 1304 1634T1294 2098Q1287 2282 1225 2382T1050 2522T778 2562H465V3200H528V2617H778Q973 2617 1099 2567T1288 2403T1357 2100Q1365 1825 1365 1615T1357 1185Q1349 985 1281 873T1087 714T775 667H528V0H465ZM402 833H775Q954
833 1055 905T1167 1192Q1179 1409 1178 1612T1167 2093Q1160 2291 1067 2371T778 2452H402V833ZM465 888V2397H778Q929 2397 1014 2334T1104 2091Q1109 1908 1110 1757T1111 1469T1104 1193Q1096 1015 1014 952T775 888H465ZM528 943H775Q895 943 965 993T1040
1197Q1050 1414 1049 1619T1040 2090Q1036 2241 968 2291T778 2342H528V943Z" />
<glyph unicode="&#xdf;" horiz-adv-x="1658" d="M243 0V2656Q243 2962 389 3094T857 3227Q1146 3227 1291 3100T1444 2655Q1448 2524 1448 2415T1447 2210T1440 2021Q1429 1869 1368 1771T1183 1624V1611Q1310 1570 1385 1451T1466 1170Q1470 1061 1471 970T1471
780T1462 546Q1451 336 1376 217T1165 49T832 0H752V55H832Q1092 55 1237 158T1399 546Q1406 673 1408 776T1408 974T1403 1167Q1396 1356 1309 1463T1088 1608V1623Q1227 1668 1296 1763T1377 2027Q1384 2117 1385 2211T1385 2414T1380 2654Q1373 2924 1254 3049T857
3175Q646 3175 526 3114T356 2937T306 2655V0H243ZM369 0H433V2653Q433 2855 524 2962T857 3070Q1041 3070 1144 2981T1254 2650Q1258 2522 1258 2410T1257 2202T1251 2028Q1239 1851 1142 1745T856 1638H760V1583H873Q1058 1583 1163 1474T1274 1163Q1276 1079
1278 994T1279 803T1271 547Q1260 322 1147 244T832 166H752V111H832Q1064 111 1193 201T1334 546Q1341 681 1342 786T1342 982T1337 1166Q1331 1346 1246 1459T1007 1610V1619Q1154 1661 1229 1765T1314 2026Q1319 2105 1321 2201T1322 2410T1317 2652Q1311 2901
1203 3012T857 3123Q579 3123 474 3002T369 2655V0ZM496 0V2652Q496 2832 575 2925T857 3018Q1029 3018 1107 2931T1190 2652Q1193 2532 1194 2428T1195 2226T1187 2028Q1179 1883 1099 1788T856 1693H760V1748H856Q988 1748 1052 1828T1124 2029Q1130 2138 1131
2240T1131 2443T1127 2649Q1122 2806 1063 2886T857 2966Q692 2966 626 2886T559 2652V0H496ZM752 220H831Q1008 220 1103 289T1207 546Q1213 685 1214 785T1215 973T1210 1159Q1205 1331 1120 1429T878 1527H760V1473H881Q1007 1473 1075 1388T1147 1156Q1151
1061 1152 981T1152 800T1144 540Q1139 398 1065 337T831 275H752V220Z" />
<glyph unicode="&#xe0;" horiz-adv-x="1557" d="M1283 0V1843Q1283 2105 1179 2242T787 2379Q540 2379 405 2281T259 1918Q255 1826 255 1741T262 1566H199Q193 1666 192 1748T195 1920Q207 2192 346 2311T787 2430Q1007 2430 1128 2361T1298 2161T1346 1843V0H1283ZM667
122Q819 122 928 194T1096 377T1155 607V1320Q1031 1282 905 1236T691 1147Q519 1061 434 944T336 630Q333 579 334 540T339 454Q354 299 438 211T667 122ZM678 176Q555 176 484 254T401 462Q398 499 398 540T399 623Q408 810 486 915T714 1097Q811 1146 900 1182T1091
1250V603Q1091 493 1041 396T899 237T678 176ZM684 225Q785 225 862 276T984 413T1028 598V1180Q954 1152 885 1121T740 1049Q594 972 531 876T462 620Q461 581 461 542T465 467Q473 360 530 293T684 225ZM624 -28Q420 -28 294 94T149 442Q145 494 145 542T146
645Q159 874 267 1026T619 1295Q678 1324 738 1350T870 1403T1029 1459V1843Q1029 1996 978 2086T787 2176Q648 2176 583 2109T511 1901Q509 1848 509 1756T513 1566H450Q446 1656 446 1749T448 1904Q455 2079 539 2153T787 2227Q969 2227 1031 2122T1093 1843V1416Q968
1375 849 1331T643 1246Q433 1147 326 1003T210 641Q208 592 208 545T212 447Q228 248 339 135T638 22Q815 22 929 98T1116 304H1130L1097 85V0H1035L1034 41L1076 183H1063Q983 72 876 22T624 -28ZM1156 0V179L1172 450H1157Q1097 278 969 175T651 72Q491 72 391
172T275 450Q272 499 272 542T273 637Q283 846 375 974T668 1197Q727 1225 808 1256T979 1318T1157 1374V1843Q1157 2043 1082 2160T787 2277Q588 2277 490 2192T384 1906Q382 1846 382 1753T388 1566H325Q320 1654 319 1748T321 1907Q330 2130 439 2229T787 2329Q1036
2329 1127 2204T1219 1843V0H1156ZM625 2580L241 3071H314L684 2580H625ZM741 2580L384 3071H457L799 2580H741ZM856 2580L527 3071H600L915 2580H856Z" />
<glyph unicode="&#xe1;" horiz-adv-x="1557" d="M1283 0V1843Q1283 2105 1179 2242T787 2379Q540 2379 405 2281T259 1918Q255 1826 255 1741T262 1566H199Q193 1666 192 1748T195 1920Q207 2192 346 2311T787 2430Q1007 2430 1128 2361T1298 2161T1346 1843V0H1283ZM667
122Q819 122 928 194T1096 377T1155 607V1320Q1031 1282 905 1236T691 1147Q519 1061 434 944T336 630Q333 579 334 540T339 454Q354 299 438 211T667 122ZM678 176Q555 176 484 254T401 462Q398 499 398 540T399 623Q408 810 486 915T714 1097Q811 1146 900 1182T1091
1250V603Q1091 493 1041 396T899 237T678 176ZM684 225Q785 225 862 276T984 413T1028 598V1180Q954 1152 885 1121T740 1049Q594 972 531 876T462 620Q461 581 461 542T465 467Q473 360 530 293T684 225ZM624 -28Q420 -28 294 94T149 442Q145 494 145 542T146
645Q159 874 267 1026T619 1295Q678 1324 738 1350T870 1403T1029 1459V1843Q1029 1996 978 2086T787 2176Q648 2176 583 2109T511 1901Q509 1848 509 1756T513 1566H450Q446 1656 446 1749T448 1904Q455 2079 539 2153T787 2227Q969 2227 1031 2122T1093 1843V1416Q968
1375 849 1331T643 1246Q433 1147 326 1003T210 641Q208 592 208 545T212 447Q228 248 339 135T638 22Q815 22 929 98T1116 304H1130L1097 85V0H1035L1034 41L1076 183H1063Q983 72 876 22T624 -28ZM1156 0V179L1172 450H1157Q1097 278 969 175T651 72Q491 72 391
172T275 450Q272 499 272 542T273 637Q283 846 375 974T668 1197Q727 1225 808 1256T979 1318T1157 1374V1843Q1157 2043 1082 2160T787 2277Q588 2277 490 2192T384 1906Q382 1846 382 1753T388 1566H325Q320 1654 319 1748T321 1907Q330 2130 439 2229T787 2329Q1036
2329 1127 2204T1219 1843V0H1156ZM662 2580L977 3071H1050L721 2580H662ZM893 2580L1263 3071H1335L952 2580H893ZM778 2580L1120 3071H1193L836 2580H778Z" />
<glyph unicode="&#xe2;" horiz-adv-x="1557" d="M1283 0V1843Q1283 2105 1179 2242T787 2379Q540 2379 405 2281T259 1918Q255 1826 255 1741T262 1566H199Q193 1666 192 1748T195 1920Q207 2192 346 2311T787 2430Q1007 2430 1128 2361T1298 2161T1346 1843V0H1283ZM667
122Q819 122 928 194T1096 377T1155 607V1320Q1031 1282 905 1236T691 1147Q519 1061 434 944T336 630Q333 579 334 540T339 454Q354 299 438 211T667 122ZM678 176Q555 176 484 254T401 462Q398 499 398 540T399 623Q408 810 486 915T714 1097Q811 1146 900 1182T1091
1250V603Q1091 493 1041 396T899 237T678 176ZM684 225Q785 225 862 276T984 413T1028 598V1180Q954 1152 885 1121T740 1049Q594 972 531 876T462 620Q461 581 461 542T465 467Q473 360 530 293T684 225ZM624 -28Q420 -28 294 94T149 442Q145 494 145 542T146
645Q159 874 267 1026T619 1295Q678 1324 738 1350T870 1403T1029 1459V1843Q1029 1996 978 2086T787 2176Q648 2176 583 2109T511 1901Q509 1848 509 1756T513 1566H450Q446 1656 446 1749T448 1904Q455 2079 539 2153T787 2227Q969 2227 1031 2122T1093 1843V1416Q968
1375 849 1331T643 1246Q433 1147 326 1003T210 641Q208 592 208 545T212 447Q228 248 339 135T638 22Q815 22 929 98T1116 304H1130L1097 85V0H1035L1034 41L1076 183H1063Q983 72 876 22T624 -28ZM1156 0V179L1172 450H1157Q1097 278 969 175T651 72Q491 72 391
172T275 450Q272 499 272 542T273 637Q283 846 375 974T668 1197Q727 1225 808 1256T979 1318T1157 1374V1843Q1157 2043 1082 2160T787 2277Q588 2277 490 2192T384 1906Q382 1846 382 1753T388 1566H325Q320 1654 319 1748T321 1907Q330 2130 439 2229T787 2329Q1036
2329 1127 2204T1219 1843V0H1156ZM277 2580L588 3048H656L347 2580H277ZM415 2580L718 3048H851L1154 2580H1083L871 2908L811 2999H758L697 2907L486 2580H415ZM550 2580L723 2860L760 2931H809L846 2860L1020 2580H948L803 2825L790 2874H779L766 2825L621 2580H550ZM1221
2580L912 3048H981L1291 2580H1221Z" />
<glyph unicode="&#xe3;" horiz-adv-x="1557" d="M1283 0V1843Q1283 2105 1179 2242T787 2379Q540 2379 405 2281T259 1918Q255 1826 255 1741T262 1566H199Q193 1666 192 1748T195 1920Q207 2192 346 2311T787 2430Q1007 2430 1128 2361T1298 2161T1346 1843V0H1283ZM667
122Q819 122 928 194T1096 377T1155 607V1320Q1031 1282 905 1236T691 1147Q519 1061 434 944T336 630Q333 579 334 540T339 454Q354 299 438 211T667 122ZM678 176Q555 176 484 254T401 462Q398 499 398 540T399 623Q408 810 486 915T714 1097Q811 1146 900 1182T1091
1250V603Q1091 493 1041 396T899 237T678 176ZM684 225Q785 225 862 276T984 413T1028 598V1180Q954 1152 885 1121T740 1049Q594 972 531 876T462 620Q461 581 461 542T465 467Q473 360 530 293T684 225ZM624 -28Q420 -28 294 94T149 442Q145 494 145 542T146
645Q159 874 267 1026T619 1295Q678 1324 738 1350T870 1403T1029 1459V1843Q1029 1996 978 2086T787 2176Q648 2176 583 2109T511 1901Q509 1848 509 1756T513 1566H450Q446 1656 446 1749T448 1904Q455 2079 539 2153T787 2227Q969 2227 1031 2122T1093 1843V1416Q968
1375 849 1331T643 1246Q433 1147 326 1003T210 641Q208 592 208 545T212 447Q228 248 339 135T638 22Q815 22 929 98T1116 304H1130L1097 85V0H1035L1034 41L1076 183H1063Q983 72 876 22T624 -28ZM1156 0V179L1172 450H1157Q1097 278 969 175T651 72Q491 72 391
172T275 450Q272 499 272 542T273 637Q283 846 375 974T668 1197Q727 1225 808 1256T979 1318T1157 1374V1843Q1157 2043 1082 2160T787 2277Q588 2277 490 2192T384 1906Q382 1846 382 1753T388 1566H325Q320 1654 319 1748T321 1907Q330 2130 439 2229T787 2329Q1036
2329 1127 2204T1219 1843V0H1156ZM611 2672Q622 2816 711 2902T919 2976Q979 2970 1016 2945T1082 2888T1138 2832T1204 2805Q1250 2800 1275 2830T1299 2915H1329Q1330 2840 1296 2796T1196 2754Q1149 2757 1118 2781T1059 2836T997 2893T910 2928Q810 2943 731
2869T642 2672H611ZM673 2672Q682 2782 746 2846T895 2898Q944 2892 977 2866T1039 2808T1100 2751T1184 2722Q1262 2716 1311 2769T1361 2915H1391Q1393 2800 1334 2731T1177 2669Q1121 2673 1085 2698T1020 2755T960 2813T886 2845Q817 2854 764 2805T704 2672H673ZM735
2672Q741 2742 782 2782T878 2814Q916 2808 945 2783T1003 2725T1070 2668T1167 2638Q1276 2626 1350 2704T1422 2915H1454Q1455 2763 1372 2672T1157 2590Q1093 2595 1050 2619T975 2673T918 2729T867 2762Q834 2772 801 2748T766 2672H735Z" />
<glyph unicode="&#xe4;" horiz-adv-x="1557" d="M1283 0V1843Q1283 2105 1179 2242T787 2379Q540 2379 405 2281T259 1918Q255 1826 255 1741T262 1566H199Q193 1666 192 1748T195 1920Q207 2192 346 2311T787 2430Q1007 2430 1128 2361T1298 2161T1346 1843V0H1283ZM667
122Q819 122 928 194T1096 377T1155 607V1320Q1031 1282 905 1236T691 1147Q519 1061 434 944T336 630Q333 579 334 540T339 454Q354 299 438 211T667 122ZM678 176Q555 176 484 254T401 462Q398 499 398 540T399 623Q408 810 486 915T714 1097Q811 1146 900 1182T1091
1250V603Q1091 493 1041 396T899 237T678 176ZM684 225Q785 225 862 276T984 413T1028 598V1180Q954 1152 885 1121T740 1049Q594 972 531 876T462 620Q461 581 461 542T465 467Q473 360 530 293T684 225ZM624 -28Q420 -28 294 94T149 442Q145 494 145 542T146
645Q159 874 267 1026T619 1295Q678 1324 738 1350T870 1403T1029 1459V1843Q1029 1996 978 2086T787 2176Q648 2176 583 2109T511 1901Q509 1848 509 1756T513 1566H450Q446 1656 446 1749T448 1904Q455 2079 539 2153T787 2227Q969 2227 1031 2122T1093 1843V1416Q968
1375 849 1331T643 1246Q433 1147 326 1003T210 641Q208 592 208 545T212 447Q228 248 339 135T638 22Q815 22 929 98T1116 304H1130L1097 85V0H1035L1034 41L1076 183H1063Q983 72 876 22T624 -28ZM1156 0V179L1172 450H1157Q1097 278 969 175T651 72Q491 72 391
172T275 450Q272 499 272 542T273 637Q283 846 375 974T668 1197Q727 1225 808 1256T979 1318T1157 1374V1843Q1157 2043 1082 2160T787 2277Q588 2277 490 2192T384 1906Q382 1846 382 1753T388 1566H325Q320 1654 319 1748T321 1907Q330 2130 439 2229T787 2329Q1036
2329 1127 2204T1219 1843V0H1156ZM863 2799V2854H1151V2799H863ZM426 2580V2635H714V2580H426ZM426 2690V2744H714V2690H426ZM426 2799V2854H714V2799H426ZM863 2580V2635H1151V2580H863ZM863 2690V2744H1151V2690H863Z" />
<glyph unicode="&#xe5;" horiz-adv-x="1557" d="M1283 0V1843Q1283 2105 1179 2242T787 2379Q540 2379 405 2281T259 1918Q255 1826 255 1741T262 1566H199Q193 1666 192 1748T195 1920Q207 2192 346 2311T787 2430Q1007 2430 1128 2361T1298 2161T1346 1843V0H1283ZM667
122Q819 122 928 194T1096 377T1155 607V1320Q1031 1282 905 1236T691 1147Q519 1061 434 944T336 630Q333 579 334 540T339 454Q354 299 438 211T667 122ZM678 176Q555 176 484 254T401 462Q398 499 398 540T399 623Q408 810 486 915T714 1097Q811 1146 900 1182T1091
1250V603Q1091 493 1041 396T899 237T678 176ZM684 225Q785 225 862 276T984 413T1028 598V1180Q954 1152 885 1121T740 1049Q594 972 531 876T462 620Q461 581 461 542T465 467Q473 360 530 293T684 225ZM624 -28Q420 -28 294 94T149 442Q145 494 145 542T146
645Q159 874 267 1026T619 1295Q678 1324 738 1350T870 1403T1029 1459V1843Q1029 1996 978 2086T787 2176Q648 2176 583 2109T511 1901Q509 1848 509 1756T513 1566H450Q446 1656 446 1749T448 1904Q455 2079 539 2153T787 2227Q969 2227 1031 2122T1093 1843V1416Q968
1375 849 1331T643 1246Q433 1147 326 1003T210 641Q208 592 208 545T212 447Q228 248 339 135T638 22Q815 22 929 98T1116 304H1130L1097 85V0H1035L1034 41L1076 183H1063Q983 72 876 22T624 -28ZM1156 0V179L1172 450H1157Q1097 278 969 175T651 72Q491 72 391
172T275 450Q272 499 272 542T273 637Q283 846 375 974T668 1197Q727 1225 808 1256T979 1318T1157 1374V1843Q1157 2043 1082 2160T787 2277Q588 2277 490 2192T384 1906Q382 1846 382 1753T388 1566H325Q320 1654 319 1748T321 1907Q330 2130 439 2229T787 2329Q1036
2329 1127 2204T1219 1843V0H1156ZM785 2594Q701 2594 631 2635T520 2746T479 2899Q479 2984 520 3053T631 3164T785 3205Q869 3205 938 3164T1049 3054T1090 2899Q1090 2816 1049 2746T939 2635T785 2594ZM785 2649Q889 2649 962 2722T1035 2899Q1035 3004 962
3077T785 3150Q680 3150 607 3077T534 2899Q534 2795 607 2722T785 2649ZM785 2704Q703 2704 646 2761T589 2899Q589 2981 646 3038T785 3095Q866 3095 923 3038T980 2899Q980 2818 923 2761T785 2704ZM785 2758Q843 2758 884 2800T926 2899Q926 2958 885 2999T785
3041Q727 3041 685 3000T643 2899Q643 2842 685 2800T785 2758ZM785 2813Q749 2813 724 2838T698 2900Q698 2936 723 2961T785 2986Q821 2986 846 2961T871 2899Q871 2864 846 2839T785 2813ZM785 2867Q817 2867 817 2899Q817 2932 785 2932Q752 2932 752 2899Q752
2867 785 2867Z" />
<glyph unicode="&#xe6;" horiz-adv-x="2388" d="M643 -26Q504 -26 397 32T225 194T149 442Q145 494 145 542T146 645Q158 862 262 1016T619 1295Q701 1336 803 1378T1024 1459V1843Q1024 2003 976 2089T772 2176Q640 2176 578 2112T511 1901Q509 1847 509 1755T513
1566H450Q446 1656 446 1748T448 1904Q455 2072 527 2149T772 2227Q971 2227 1030 2122T1090 1844V1416Q966 1375 848 1331T643 1246Q419 1143 319 1003T210 641Q208 583 208 538T212 446Q222 324 277 229T426 80T651 25Q822 25 956 99T1155 304H1171Q1209 169
1327 95T1643 21Q1911 21 2030 132T2162 494Q2165 541 2165 602T2165 725T2159 839H2221Q2227 765 2228 664T2225 492Q2211 212 2076 91T1643 -30Q1457 -30 1342 26T1159 195H1151Q1065 84 939 29T643 -26ZM1643 71Q1418 71 1313 160T1185 450H1177Q1123 276 983
176T655 75Q480 75 384 182T275 450Q272 499 272 541T273 637Q283 846 376 973T668 1197Q724 1224 805 1255T978 1318T1154 1374V1843Q1154 2054 1073 2165T772 2277Q569 2277 481 2191T384 1907Q382 1846 382 1753T388 1566H325Q320 1654 319 1747T321 1909Q330
2140 436 2234T772 2329Q971 2329 1065 2247T1190 1959H1198Q1224 2155 1329 2242T1640 2329Q1879 2329 1984 2230T2098 1908Q2100 1861 2101 1745T2103 1482T2098 1198H1218Q1218 1024 1221 839T1230 501Q1238 294 1340 209T1643 123Q1844 123 1935 211T2035 501Q2038
549 2038 607T2038 725T2032 839H2096Q2101 762 2101 666T2098 498Q2087 269 1982 170T1643 71ZM671 125Q812 125 921 190T1093 364T1156 607V1320Q1031 1282 905 1236T692 1147Q524 1063 436 947T336 630Q333 579 334 540T339 454Q354 299 441 212T671 125ZM680
180Q556 180 484 256T401 462Q398 499 398 540T399 623Q408 808 486 913T716 1098Q803 1143 896 1181T1092 1250V603Q1092 493 1043 397T902 240T680 180ZM686 231Q787 231 864 281T985 415T1029 598V1180Q962 1157 889 1122T740 1049Q595 973 532 877T462 620Q461
581 461 542T465 467Q473 360 530 296T686 231ZM1643 173Q1467 173 1384 249T1293 505Q1290 595 1288 703T1284 925T1282 1146H2159Q2165 1289 2166 1451T2166 1743T2162 1914Q2151 2163 2029 2271T1640 2379Q1465 2379 1356 2313T1203 2120H1191Q1148 2258 1048
2318T772 2379Q499 2379 384 2270T259 1912Q256 1834 256 1745T262 1566H199Q192 1671 192 1751T195 1914Q207 2191 337 2310T772 2430Q941 2430 1040 2382T1198 2224H1206Q1273 2325 1377 2377T1640 2430Q1945 2430 2079 2309T2225 1914Q2227 1878 2228 1784T2230
1566T2228 1318T2220 1094H1346Q1347 939 1349 799T1356 509Q1362 357 1428 291T1643 224Q1779 224 1840 289T1908 507Q1912 589 1912 675T1906 839H1969Q1974 757 1975 667T1972 503Q1963 327 1887 250T1643 173ZM1219 1250H2035Q2039 1382 2039 1518T2039 1761T2035
1910Q2026 2121 1926 2199T1640 2277Q1442 2277 1340 2186T1230 1893Q1225 1760 1222 1585T1219 1250ZM1972 1303H1283Q1283 1395 1284 1501T1288 1709T1293 1889Q1300 2076 1384 2151T1640 2227Q1811 2227 1888 2152T1972 1903Q1974 1863 1975 1771T1976 1556T1972
1303ZM1346 1355H1910Q1912 1477 1912 1590T1911 1789T1908 1907Q1902 2047 1841 2111T1640 2176Q1498 2176 1430 2110T1356 1886Q1353 1763 1350 1625T1346 1355Z" />
<glyph unicode="&#xe7;" horiz-adv-x="1545" d="M790 -30Q478 -30 341 93T192 495Q184 674 181 855T178 1214T181 1565T192 1903Q205 2197 351 2313T787 2430Q1086 2430 1228 2314T1377 1914Q1378 1840 1378 1747T1373 1566H1312Q1317 1640 1317 1727T1313 1912Q1308
2163 1186 2271T787 2379Q514 2379 391 2268T255 1899Q248 1748 245 1583T241 1242T244 879T255 495Q266 239 393 130T790 21Q1060 21 1181 132T1313 494Q1318 593 1317 678T1309 839H1373Q1379 766 1380 680T1377 492Q1365 213 1229 92T790 -30ZM790 71Q556 71
442 169T318 498Q311 693 308 876T304 1231T308 1569T318 1895Q328 2134 441 2231T787 2329Q1027 2329 1136 2234T1250 1910Q1252 1817 1252 1734T1248 1566H1185Q1190 1642 1190 1730T1187 1909Q1183 2112 1086 2194T787 2277Q578 2277 485 2187T382 1892Q375
1724 372 1558T368 1222T370 873T382 502Q390 303 485 213T790 123Q991 123 1084 212T1187 497Q1191 584 1191 668T1183 839H1246Q1252 757 1253 678T1250 495Q1240 274 1133 173T790 71ZM790 173Q612 173 532 254T445 505Q438 701 434 876T430 1217T434 1548T445
1892Q453 2071 532 2149T787 2227Q963 2227 1041 2154T1123 1905Q1125 1837 1126 1746T1121 1566H1057Q1063 1656 1062 1738T1060 1905Q1058 2050 995 2113T787 2176Q645 2176 580 2109T507 1882Q501 1715 498 1552T494 1222T497 879T508 507Q514 365 580 295T790
224Q930 224 993 296T1060 502Q1064 593 1063 673T1057 839H1121Q1125 761 1126 676T1123 500Q1117 334 1039 254T790 173ZM850 -106H900L921 -245Q951 -448 864 -546T562 -644H477V-590H562Q747 -590 822 -506T871 -245L850 -106ZM661 -106H709L730 -231Q747 -327
705 -376T562 -425H477V-372H562Q635 -372 663 -337T681 -231L661 -106ZM754 -106H805L826 -238Q849 -387 785 -461T562 -535H477V-480H562Q692 -480 743 -421T775 -238L754 -106Z" />
<glyph unicode="&#xe8;" horiz-adv-x="1537" d="M793 -30Q496 -30 349 86T190 487Q184 665 181 849T178 1218T181 1577T190 1908Q204 2196 349 2313T790 2430Q1088 2430 1225 2312T1375 1914Q1377 1884 1378 1795T1379 1583T1378 1331T1370 1094H496Q497 988 498
891T501 700T506 507Q512 356 578 290T793 224Q919 224 984 285T1058 504Q1062 575 1061 670T1055 839H1119Q1124 753 1124 658T1121 502Q1112 326 1036 250T793 173Q612 173 531 251T443 505Q439 614 437 724T433 941T431 1146H1309Q1313 1254 1314 1374T1316
1605T1314 1798T1311 1911Q1300 2163 1179 2271T790 2379Q526 2379 395 2272T253 1899Q247 1761 244 1589T241 1228T244 853T253 499Q263 245 387 133T793 21Q1055 21 1177 130T1311 495Q1313 537 1313 598T1313 723T1308 839H1371Q1377 762 1377 659T1375 492Q1361
213 1226 92T793 -30ZM793 71Q559 71 443 166T316 498Q311 645 308 822T305 1187T307 1557T316 1895Q326 2135 441 2232T790 2329Q1024 2329 1131 2232T1248 1910Q1250 1873 1251 1760T1253 1497T1247 1198H368Q368 1022 371 839T380 502Q388 294 487 209T793 123Q989
123 1081 209T1185 499Q1188 561 1188 660T1182 839H1245Q1250 758 1250 660T1248 497Q1237 269 1131 170T793 71ZM368 1250H1185Q1189 1383 1189 1518T1188 1758T1185 1906Q1176 2104 1085 2190T790 2277Q580 2277 485 2189T380 1892Q374 1746 372 1578T368 1250ZM432
1303Q432 1377 433 1477T437 1684T443 1889Q450 2071 531 2149T790 2227Q960 2227 1037 2152T1121 1904Q1123 1862 1124 1766T1126 1547T1122 1303H432ZM496 1355H1059Q1062 1475 1062 1587T1061 1783T1058 1900Q1052 2041 993 2108T790 2176Q641 2176 577 2107T506
1887Q504 1793 502 1705T498 1530T496 1355ZM623 2580L239 3071H312L682 2580H623ZM739 2580L382 3071H455L797 2580H739ZM854 2580L525 3071H598L913 2580H854Z" />
<glyph unicode="&#xe9;" horiz-adv-x="1537" d="M793 -30Q496 -30 349 86T190 487Q184 665 181 849T178 1218T181 1577T190 1908Q204 2196 349 2313T790 2430Q1088 2430 1225 2312T1375 1914Q1377 1884 1378 1795T1379 1583T1378 1331T1370 1094H496Q497 988 498
891T501 700T506 507Q512 356 578 290T793 224Q919 224 984 285T1058 504Q1062 575 1061 670T1055 839H1119Q1124 753 1124 658T1121 502Q1112 326 1036 250T793 173Q612 173 531 251T443 505Q439 614 437 724T433 941T431 1146H1309Q1313 1254 1314 1374T1316
1605T1314 1798T1311 1911Q1300 2163 1179 2271T790 2379Q526 2379 395 2272T253 1899Q247 1761 244 1589T241 1228T244 853T253 499Q263 245 387 133T793 21Q1055 21 1177 130T1311 495Q1313 537 1313 598T1313 723T1308 839H1371Q1377 762 1377 659T1375 492Q1361
213 1226 92T793 -30ZM793 71Q559 71 443 166T316 498Q311 645 308 822T305 1187T307 1557T316 1895Q326 2135 441 2232T790 2329Q1024 2329 1131 2232T1248 1910Q1250 1873 1251 1760T1253 1497T1247 1198H368Q368 1022 371 839T380 502Q388 294 487 209T793 123Q989
123 1081 209T1185 499Q1188 561 1188 660T1182 839H1245Q1250 758 1250 660T1248 497Q1237 269 1131 170T793 71ZM368 1250H1185Q1189 1383 1189 1518T1188 1758T1185 1906Q1176 2104 1085 2190T790 2277Q580 2277 485 2189T380 1892Q374 1746 372 1578T368 1250ZM432
1303Q432 1377 433 1477T437 1684T443 1889Q450 2071 531 2149T790 2227Q960 2227 1037 2152T1121 1904Q1123 1862 1124 1766T1126 1547T1122 1303H432ZM496 1355H1059Q1062 1475 1062 1587T1061 1783T1058 1900Q1052 2041 993 2108T790 2176Q641 2176 577 2107T506
1887Q504 1793 502 1705T498 1530T496 1355ZM660 2580L975 3071H1048L719 2580H660ZM891 2580L1261 3071H1333L950 2580H891ZM776 2580L1118 3071H1191L834 2580H776Z" />
<glyph unicode="&#xea;" horiz-adv-x="1537" d="M793 -30Q496 -30 349 86T190 487Q184 665 181 849T178 1218T181 1577T190 1908Q204 2196 349 2313T790 2430Q1088 2430 1225 2312T1375 1914Q1377 1884 1378 1795T1379 1583T1378 1331T1370 1094H496Q497 988 498
891T501 700T506 507Q512 356 578 290T793 224Q919 224 984 285T1058 504Q1062 575 1061 670T1055 839H1119Q1124 753 1124 658T1121 502Q1112 326 1036 250T793 173Q612 173 531 251T443 505Q439 614 437 724T433 941T431 1146H1309Q1313 1254 1314 1374T1316
1605T1314 1798T1311 1911Q1300 2163 1179 2271T790 2379Q526 2379 395 2272T253 1899Q247 1761 244 1589T241 1228T244 853T253 499Q263 245 387 133T793 21Q1055 21 1177 130T1311 495Q1313 537 1313 598T1313 723T1308 839H1371Q1377 762 1377 659T1375 492Q1361
213 1226 92T793 -30ZM793 71Q559 71 443 166T316 498Q311 645 308 822T305 1187T307 1557T316 1895Q326 2135 441 2232T790 2329Q1024 2329 1131 2232T1248 1910Q1250 1873 1251 1760T1253 1497T1247 1198H368Q368 1022 371 839T380 502Q388 294 487 209T793 123Q989
123 1081 209T1185 499Q1188 561 1188 660T1182 839H1245Q1250 758 1250 660T1248 497Q1237 269 1131 170T793 71ZM368 1250H1185Q1189 1383 1189 1518T1188 1758T1185 1906Q1176 2104 1085 2190T790 2277Q580 2277 485 2189T380 1892Q374 1746 372 1578T368 1250ZM432
1303Q432 1377 433 1477T437 1684T443 1889Q450 2071 531 2149T790 2227Q960 2227 1037 2152T1121 1904Q1123 1862 1124 1766T1126 1547T1122 1303H432ZM496 1355H1059Q1062 1475 1062 1587T1061 1783T1058 1900Q1052 2041 993 2108T790 2176Q641 2176 577 2107T506
1887Q504 1793 502 1705T498 1530T496 1355ZM274 2580L585 3048H653L344 2580H274ZM412 2580L715 3048H848L1151 2580H1080L868 2908L808 2999H755L694 2907L483 2580H412ZM547 2580L720 2860L757 2931H806L843 2860L1017 2580H945L800 2825L787 2874H776L763 2825L618
2580H547ZM1218 2580L909 3048H978L1288 2580H1218Z" />
<glyph unicode="&#xeb;" horiz-adv-x="1537" d="M793 -30Q496 -30 349 86T190 487Q184 665 181 849T178 1218T181 1577T190 1908Q204 2196 349 2313T790 2430Q1088 2430 1225 2312T1375 1914Q1377 1884 1378 1795T1379 1583T1378 1331T1370 1094H496Q497 988 498
891T501 700T506 507Q512 356 578 290T793 224Q919 224 984 285T1058 504Q1062 575 1061 670T1055 839H1119Q1124 753 1124 658T1121 502Q1112 326 1036 250T793 173Q612 173 531 251T443 505Q439 614 437 724T433 941T431 1146H1309Q1313 1254 1314 1374T1316
1605T1314 1798T1311 1911Q1300 2163 1179 2271T790 2379Q526 2379 395 2272T253 1899Q247 1761 244 1589T241 1228T244 853T253 499Q263 245 387 133T793 21Q1055 21 1177 130T1311 495Q1313 537 1313 598T1313 723T1308 839H1371Q1377 762 1377 659T1375 492Q1361
213 1226 92T793 -30ZM793 71Q559 71 443 166T316 498Q311 645 308 822T305 1187T307 1557T316 1895Q326 2135 441 2232T790 2329Q1024 2329 1131 2232T1248 1910Q1250 1873 1251 1760T1253 1497T1247 1198H368Q368 1022 371 839T380 502Q388 294 487 209T793 123Q989
123 1081 209T1185 499Q1188 561 1188 660T1182 839H1245Q1250 758 1250 660T1248 497Q1237 269 1131 170T793 71ZM368 1250H1185Q1189 1383 1189 1518T1188 1758T1185 1906Q1176 2104 1085 2190T790 2277Q580 2277 485 2189T380 1892Q374 1746 372 1578T368 1250ZM432
1303Q432 1377 433 1477T437 1684T443 1889Q450 2071 531 2149T790 2227Q960 2227 1037 2152T1121 1904Q1123 1862 1124 1766T1126 1547T1122 1303H432ZM496 1355H1059Q1062 1475 1062 1587T1061 1783T1058 1900Q1052 2041 993 2108T790 2176Q641 2176 577 2107T506
1887Q504 1793 502 1705T498 1530T496 1355ZM860 2799V2854H1148V2799H860ZM423 2580V2635H711V2580H423ZM423 2690V2744H711V2690H423ZM423 2799V2854H711V2799H423ZM860 2580V2635H1148V2580H860ZM860 2690V2744H1148V2690H860Z" />
<glyph unicode="&#xec;" horiz-adv-x="761" d="M476 0V2400H539V0H476ZM222 0V2400H286V0H222ZM349 0V2400H412V0H349ZM221 2580L-163 3071H-90L280 2580H221ZM337 2580L-20 3071H53L395 2580H337ZM452 2580L123 3071H196L511 2580H452Z" />
<glyph unicode="&#xed;" horiz-adv-x="761" d="M476 0V2400H539V0H476ZM222 0V2400H286V0H222ZM349 0V2400H412V0H349ZM258 2580L573 3071H646L317 2580H258ZM489 2580L859 3071H931L548 2580H489ZM374 2580L716 3071H789L432 2580H374Z" />
<glyph unicode="&#xee;" horiz-adv-x="761" d="M476 0V2400H539V0H476ZM222 0V2400H286V0H222ZM349 0V2400H412V0H349ZM-127 2580L184 3048H252L-57 2580H-127ZM11 2580L314 3048H447L750 2580H679L467 2908L407 2999H354L293 2907L82 2580H11ZM146 2580L319 2860L356
2931H405L442 2860L616 2580H544L399 2825L386 2874H375L362 2825L217 2580H146ZM817 2580L508 3048H577L887 2580H817Z" />
<glyph unicode="&#xef;" horiz-adv-x="761" d="M476 0V2400H539V0H476ZM222 0V2400H286V0H222ZM349 0V2400H412V0H349ZM458 2799V2854H746V2799H458ZM21 2580V2635H309V2580H21ZM21 2690V2744H309V2690H21ZM21 2799V2854H309V2799H21ZM458 2580V2635H746V2580H458ZM458
2690V2744H746V2690H458Z" />
<glyph unicode="&#xf0;" horiz-adv-x="1621" d="M819 -32Q612 -32 478 24T275 206T195 539Q188 670 187 854T187 1247T196 1664Q201 1809 269 1925T454 2109T715 2178Q857 2178 951 2128T1110 2011H1127Q1104 2075 1076 2139T1016 2258Q999 2305 978 2353T929
2449L616 2311L595 2358L953 2517Q990 2454 1022 2386T1077 2242Q1108 2172 1141 2078T1192 1896H1173Q1103 1996 992 2059T732 2123Q599 2123 494 2062T326 1897T260 1663Q254 1469 251 1265T249 872T258 540Q273 252 410 136T819 20Q1116 20 1236 146T1362 535Q1364
697 1364 849T1365 1168T1362 1540Q1357 1879 1299 2135T1125 2593L1473 2748L1495 2699L1208 2572Q1316 2368 1368 2118T1425 1541Q1428 1322 1428 1154T1428 838T1425 534Q1421 337 1361 212T1168 27T819 -32ZM819 72Q575 72 455 179T321 543Q311 743 312 1029T323
1662Q329 1836 449 1952T744 2068Q922 2068 1044 1977T1221 1766H1239Q1229 1887 1205 1999T1151 2206Q1115 2322 1074 2413T980 2586L574 2406L552 2454L949 2629Q863 2757 746 2866T474 3079L507 3129Q660 3027 786 2914T1008 2655L1432 2843L1453 2795L1039
2612Q1164 2416 1228 2157T1298 1537Q1301 1329 1301 1166T1302 853T1298 537Q1295 304 1190 188T819 72ZM819 124Q1046 124 1139 227T1236 543Q1238 670 1238 835T1238 1176T1236 1516Q1234 1732 1108 1872T754 2013Q601 2013 496 1913T386 1660Q380 1432 378
1229T377 853T385 546Q397 320 500 222T819 124ZM819 177Q636 177 547 263T448 549Q438 754 439 1034T450 1660Q453 1791 542 1878T759 1965Q914 1965 1003 1897T1132 1728T1173 1532Q1175 1388 1175 1211T1176 858T1173 542Q1170 338 1080 258T819 177ZM819 229Q973
229 1040 305T1109 544Q1111 639 1111 759T1112 1012T1112 1278T1109 1531Q1109 1587 1095 1654T1045 1780T944 1877T775 1916Q667 1916 592 1844T513 1659Q507 1420 505 1222T503 858T511 551Q520 386 591 308T819 229ZM531 2502L510 2550L757 2659Q691 2748 606
2825T409 2982L441 3030Q574 2940 676 2846T854 2645L531 2502ZM1032 2722Q938 2857 815 2967T539 3178L573 3227Q719 3129 839 3024T1053 2789L1389 2938L1411 2891L1032 2722Z" />
<glyph unicode="&#xf1;" horiz-adv-x="1675" d="M1401 0V1859Q1401 1948 1386 2039T1326 2206T1191 2330T953 2377Q779 2377 653 2302T454 2098H439L471 2400H535V2367L495 2219H509Q593 2330 708 2380T969 2431Q1100 2431 1188 2397T1331 2305T1415 2173T1454
2021T1464 1868V0H1401ZM222 0V2400H286V0H222ZM476 0V1800Q476 1910 529 2003T679 2154T904 2211Q1004 2211 1065 2179T1158 2094T1201 1976T1212 1842V0H1149V1839Q1149 1923 1131 1995T1059 2113T896 2158Q796 2158 716 2112T589 1985T542 1804L539 0H476ZM349
0V2400H412L399 1953H414Q473 2126 608 2224T935 2322Q1163 2321 1250 2198T1338 1856V0H1275V1850Q1275 2053 1196 2161T918 2269Q763 2269 650 2201T476 2025T414 1797V0H349ZM413 2672Q424 2816 513 2902T721 2976Q781 2970 818 2945T884 2888T940 2832T1006
2805Q1052 2800 1077 2830T1101 2915H1131Q1132 2840 1098 2796T998 2754Q951 2757 920 2781T861 2836T799 2893T712 2928Q612 2943 533 2869T444 2672H413ZM475 2672Q484 2782 548 2846T697 2898Q746 2892 779 2866T841 2808T902 2751T986 2722Q1064 2716 1113
2769T1163 2915H1193Q1195 2800 1136 2731T979 2669Q923 2673 887 2698T822 2755T762 2813T688 2845Q619 2854 566 2805T506 2672H475ZM537 2672Q543 2742 584 2782T680 2814Q718 2808 747 2783T805 2725T872 2668T969 2638Q1078 2626 1152 2704T1224 2915H1256Q1257
2763 1174 2672T959 2590Q895 2595 852 2619T777 2673T720 2729T669 2762Q636 2772 603 2748T568 2672H537Z" />
<glyph unicode="&#xf2;" horiz-adv-x="1598" d="M800 -30Q487 -30 348 101T193 532Q184 745 181 961T180 1402T193 1867Q208 2179 355 2304T800 2430Q1105 2430 1248 2301T1405 1865Q1420 1526 1420 1188T1405 532Q1390 220 1243 95T800 -30ZM800 21Q1071 21 1199
138T1342 536Q1356 832 1357 1164T1342 1863Q1329 2145 1200 2262T800 2379Q526 2379 398 2261T257 1863Q246 1616 243 1393T243 958T257 536Q269 258 397 140T800 21ZM800 71Q553 71 443 180T320 539Q310 757 306 968T305 1399T320 1859Q332 2116 446 2222T800
2329Q1038 2329 1152 2224T1278 1861Q1288 1635 1291 1417T1292 982T1278 539Q1267 284 1153 178T800 71ZM800 123Q1012 123 1108 220T1215 544Q1230 861 1230 1174T1215 1856Q1205 2090 1104 2183T800 2277Q586 2277 490 2179T383 1855Q374 1628 370 1416T369
989T383 541Q394 313 492 218T800 123ZM800 173Q621 173 539 259T447 541Q437 771 433 982T432 1407T447 1854Q456 2058 540 2142T800 2227Q979 2227 1061 2141T1152 1853Q1168 1477 1167 1164T1152 546Q1143 344 1060 259T800 173ZM800 224Q946 224 1013 299T1088
548Q1103 871 1103 1173T1088 1851Q1081 2022 1015 2099T800 2176Q652 2176 586 2100T510 1853Q500 1619 497 1409T496 988T510 543Q519 375 586 300T800 224ZM640 2580L256 3071H329L699 2580H640ZM756 2580L399 3071H472L814 2580H756ZM871 2580L542 3071H615L930
2580H871Z" />
<glyph unicode="&#xf3;" horiz-adv-x="1598" d="M800 -30Q487 -30 348 101T193 532Q184 745 181 961T180 1402T193 1867Q208 2179 355 2304T800 2430Q1105 2430 1248 2301T1405 1865Q1420 1526 1420 1188T1405 532Q1390 220 1243 95T800 -30ZM800 21Q1071 21 1199
138T1342 536Q1356 832 1357 1164T1342 1863Q1329 2145 1200 2262T800 2379Q526 2379 398 2261T257 1863Q246 1616 243 1393T243 958T257 536Q269 258 397 140T800 21ZM800 71Q553 71 443 180T320 539Q310 757 306 968T305 1399T320 1859Q332 2116 446 2222T800
2329Q1038 2329 1152 2224T1278 1861Q1288 1635 1291 1417T1292 982T1278 539Q1267 284 1153 178T800 71ZM800 123Q1012 123 1108 220T1215 544Q1230 861 1230 1174T1215 1856Q1205 2090 1104 2183T800 2277Q586 2277 490 2179T383 1855Q374 1628 370 1416T369
989T383 541Q394 313 492 218T800 123ZM800 173Q621 173 539 259T447 541Q437 771 433 982T432 1407T447 1854Q456 2058 540 2142T800 2227Q979 2227 1061 2141T1152 1853Q1168 1477 1167 1164T1152 546Q1143 344 1060 259T800 173ZM800 224Q946 224 1013 299T1088
548Q1103 871 1103 1173T1088 1851Q1081 2022 1015 2099T800 2176Q652 2176 586 2100T510 1853Q500 1619 497 1409T496 988T510 543Q519 375 586 300T800 224ZM677 2580L992 3071H1065L736 2580H677ZM908 2580L1278 3071H1350L967 2580H908ZM793 2580L1135 3071H1208L851
2580H793Z" />
<glyph unicode="&#xf4;" horiz-adv-x="1598" d="M800 -30Q487 -30 348 101T193 532Q184 745 181 961T180 1402T193 1867Q208 2179 355 2304T800 2430Q1105 2430 1248 2301T1405 1865Q1420 1526 1420 1188T1405 532Q1390 220 1243 95T800 -30ZM800 21Q1071 21 1199
138T1342 536Q1356 832 1357 1164T1342 1863Q1329 2145 1200 2262T800 2379Q526 2379 398 2261T257 1863Q246 1616 243 1393T243 958T257 536Q269 258 397 140T800 21ZM800 71Q553 71 443 180T320 539Q310 757 306 968T305 1399T320 1859Q332 2116 446 2222T800
2329Q1038 2329 1152 2224T1278 1861Q1288 1635 1291 1417T1292 982T1278 539Q1267 284 1153 178T800 71ZM800 123Q1012 123 1108 220T1215 544Q1230 861 1230 1174T1215 1856Q1205 2090 1104 2183T800 2277Q586 2277 490 2179T383 1855Q374 1628 370 1416T369
989T383 541Q394 313 492 218T800 123ZM800 173Q621 173 539 259T447 541Q437 771 433 982T432 1407T447 1854Q456 2058 540 2142T800 2227Q979 2227 1061 2141T1152 1853Q1168 1477 1167 1164T1152 546Q1143 344 1060 259T800 173ZM800 224Q946 224 1013 299T1088
548Q1103 871 1103 1173T1088 1851Q1081 2022 1015 2099T800 2176Q652 2176 586 2100T510 1853Q500 1619 497 1409T496 988T510 543Q519 375 586 300T800 224ZM292 2580L603 3048H671L362 2580H292ZM430 2580L733 3048H866L1169 2580H1098L886 2908L826 2999H773L712
2907L501 2580H430ZM565 2580L738 2860L775 2931H824L861 2860L1035 2580H963L818 2825L805 2874H794L781 2825L636 2580H565ZM1236 2580L927 3048H996L1306 2580H1236Z" />
<glyph unicode="&#xf5;" horiz-adv-x="1598" d="M800 -30Q487 -30 348 101T193 532Q184 745 181 961T180 1402T193 1867Q208 2179 355 2304T800 2430Q1105 2430 1248 2301T1405 1865Q1420 1526 1420 1188T1405 532Q1390 220 1243 95T800 -30ZM800 21Q1071 21 1199
138T1342 536Q1356 832 1357 1164T1342 1863Q1329 2145 1200 2262T800 2379Q526 2379 398 2261T257 1863Q246 1616 243 1393T243 958T257 536Q269 258 397 140T800 21ZM800 71Q553 71 443 180T320 539Q310 757 306 968T305 1399T320 1859Q332 2116 446 2222T800
2329Q1038 2329 1152 2224T1278 1861Q1288 1635 1291 1417T1292 982T1278 539Q1267 284 1153 178T800 71ZM800 123Q1012 123 1108 220T1215 544Q1230 861 1230 1174T1215 1856Q1205 2090 1104 2183T800 2277Q586 2277 490 2179T383 1855Q374 1628 370 1416T369
989T383 541Q394 313 492 218T800 123ZM800 173Q621 173 539 259T447 541Q437 771 433 982T432 1407T447 1854Q456 2058 540 2142T800 2227Q979 2227 1061 2141T1152 1853Q1168 1477 1167 1164T1152 546Q1143 344 1060 259T800 173ZM800 224Q946 224 1013 299T1088
548Q1103 871 1103 1173T1088 1851Q1081 2022 1015 2099T800 2176Q652 2176 586 2100T510 1853Q500 1619 497 1409T496 988T510 543Q519 375 586 300T800 224ZM370 2672Q381 2816 470 2902T678 2976Q738 2970 775 2945T841 2888T897 2832T963 2805Q1009 2800 1034
2830T1058 2915H1088Q1089 2840 1055 2796T955 2754Q908 2757 877 2781T818 2836T756 2893T669 2928Q569 2943 490 2869T401 2672H370ZM432 2672Q441 2782 505 2846T654 2898Q703 2892 736 2866T798 2808T859 2751T943 2722Q1021 2716 1070 2769T1120 2915H1150Q1152
2800 1093 2731T936 2669Q880 2673 844 2698T779 2755T719 2813T645 2845Q576 2854 523 2805T463 2672H432ZM494 2672Q500 2742 541 2782T637 2814Q675 2808 704 2783T762 2725T829 2668T926 2638Q1035 2626 1109 2704T1181 2915H1213Q1214 2763 1131 2672T916
2590Q852 2595 809 2619T734 2673T677 2729T626 2762Q593 2772 560 2748T525 2672H494Z" />
<glyph unicode="&#xf6;" horiz-adv-x="1598" d="M800 -30Q487 -30 348 101T193 532Q184 745 181 961T180 1402T193 1867Q208 2179 355 2304T800 2430Q1105 2430 1248 2301T1405 1865Q1420 1526 1420 1188T1405 532Q1390 220 1243 95T800 -30ZM800 21Q1071 21 1199
138T1342 536Q1356 832 1357 1164T1342 1863Q1329 2145 1200 2262T800 2379Q526 2379 398 2261T257 1863Q246 1616 243 1393T243 958T257 536Q269 258 397 140T800 21ZM800 71Q553 71 443 180T320 539Q310 757 306 968T305 1399T320 1859Q332 2116 446 2222T800
2329Q1038 2329 1152 2224T1278 1861Q1288 1635 1291 1417T1292 982T1278 539Q1267 284 1153 178T800 71ZM800 123Q1012 123 1108 220T1215 544Q1230 861 1230 1174T1215 1856Q1205 2090 1104 2183T800 2277Q586 2277 490 2179T383 1855Q374 1628 370 1416T369
989T383 541Q394 313 492 218T800 123ZM800 173Q621 173 539 259T447 541Q437 771 433 982T432 1407T447 1854Q456 2058 540 2142T800 2227Q979 2227 1061 2141T1152 1853Q1168 1477 1167 1164T1152 546Q1143 344 1060 259T800 173ZM800 224Q946 224 1013 299T1088
548Q1103 871 1103 1173T1088 1851Q1081 2022 1015 2099T800 2176Q652 2176 586 2100T510 1853Q500 1619 497 1409T496 988T510 543Q519 375 586 300T800 224ZM878 2799V2854H1166V2799H878ZM441 2580V2635H729V2580H441ZM441 2690V2744H729V2690H441ZM441 2799V2854H729V2799H441ZM878
2580V2635H1166V2580H878ZM878 2690V2744H1166V2690H878Z" />
<glyph unicode="&#xf7;" horiz-adv-x="1832" d="M211 1616V1674H1621V1616H211ZM211 1501V1559H1621V1501H211ZM211 1386V1443H1621V1386H211ZM773 2093V2148H1061V2093H773ZM773 1874V1929H1061V1874H773ZM773 1984V2038H1061V1984H773ZM773 1142V1197H1061V1142H773ZM773
923V977H1061V923H773ZM773 1032V1087H1061V1032H773Z" />
<glyph unicode="&#xf8;" horiz-adv-x="1598" d="M800 -30Q592 -30 462 28T267 209T193 532Q184 745 181 961T180 1402T193 1867Q204 2074 272 2198T471 2376T800 2430Q1003 2430 1134 2374T1330 2194T1405 1865Q1420 1526 1420 1188T1405 533Q1396 325 1328 202T1129
25T800 -30ZM800 21Q1071 21 1199 138T1342 536Q1356 832 1357 1164T1342 1863Q1334 2051 1275 2164T1098 2328T800 2379Q618 2379 501 2328T325 2164T257 1863Q246 1616 243 1393T243 958T257 536Q266 350 324 237T499 73T800 21ZM800 71Q553 71 443 180T320 539Q310
757 306 968T305 1399T320 1859Q332 2116 446 2222T800 2329Q1038 2329 1152 2224T1278 1861Q1288 1635 1291 1417T1292 982T1278 539Q1267 284 1153 178T800 71ZM800 123Q1012 123 1108 220T1215 544Q1229 846 1230 1119T1222 1678L379 658Q380 638 380 632T381
609T383 539Q394 314 492 219T800 123ZM800 173Q621 173 539 259T447 541Q446 559 446 575T445 605T443 634L1162 1536Q1168 1280 1166 1042T1152 546Q1143 343 1060 258T800 173ZM800 224Q946 224 1013 299T1088 550Q1098 771 1102 970T1104 1377L508 620Q509
607 509 589T510 553T512 522Q523 350 597 287T800 224ZM375 742L1219 1761Q1218 1788 1217 1821T1215 1859Q1204 2087 1106 2182T800 2277Q586 2277 490 2179T383 1855Q370 1558 368 1291T375 742ZM435 890Q432 1041 432 1202T436 1527T447 1853Q456 2051 537
2139T800 2227Q964 2227 1052 2150T1151 1867Q1152 1855 1152 1840T1153 1809T1154 1780L435 890ZM494 1051L1088 1794Q1087 1813 1087 1846T1085 1888Q1074 2043 1006 2109T800 2176Q652 2176 586 2100T510 1850Q501 1624 496 1434T494 1051Z" />
<glyph unicode="&#xf9;" horiz-adv-x="1669" d="M700 -31Q569 -31 480 3T337 95T255 227T216 379T206 532V2400H269V541Q269 453 284 362T345 194T479 70T717 23Q896 23 1020 98T1215 302H1230L1199 82V0H1136V38L1173 181H1160Q1078 68 962 19T700 -31ZM1384
0V2400H1447V0H1384ZM765 189Q660 189 599 224T507 315T467 435T458 558V2400H521V561Q521 480 539 407T611 288T773 242Q874 242 954 288T1081 415T1128 596V2400H1194V600Q1194 491 1141 397T991 246T765 189ZM733 78Q518 79 425 195T332 544V2400H395V550Q395
349 474 240T751 131Q906 131 1019 199T1192 376T1253 603V2400H1320V0H1258V176L1270 447H1254Q1195 273 1060 175T733 78ZM663 2580L279 3071H352L722 2580H663ZM779 2580L422 3071H495L837 2580H779ZM894 2580L565 3071H638L953 2580H894Z" />
<glyph unicode="&#xfa;" horiz-adv-x="1669" d="M700 -31Q569 -31 480 3T337 95T255 227T216 379T206 532V2400H269V541Q269 453 284 362T345 194T479 70T717 23Q896 23 1020 98T1215 302H1230L1199 82V0H1136V38L1173 181H1160Q1078 68 962 19T700 -31ZM1384
0V2400H1447V0H1384ZM765 189Q660 189 599 224T507 315T467 435T458 558V2400H521V561Q521 480 539 407T611 288T773 242Q874 242 954 288T1081 415T1128 596V2400H1194V600Q1194 491 1141 397T991 246T765 189ZM733 78Q518 79 425 195T332 544V2400H395V550Q395
349 474 240T751 131Q906 131 1019 199T1192 376T1253 603V2400H1320V0H1258V176L1270 447H1254Q1195 273 1060 175T733 78ZM700 2580L1015 3071H1088L759 2580H700ZM931 2580L1301 3071H1373L990 2580H931ZM816 2580L1158 3071H1231L874 2580H816Z" />
<glyph unicode="&#xfb;" horiz-adv-x="1669" d="M700 -31Q569 -31 480 3T337 95T255 227T216 379T206 532V2400H269V541Q269 453 284 362T345 194T479 70T717 23Q896 23 1020 98T1215 302H1230L1199 82V0H1136V38L1173 181H1160Q1078 68 962 19T700 -31ZM1384
0V2400H1447V0H1384ZM765 189Q660 189 599 224T507 315T467 435T458 558V2400H521V561Q521 480 539 407T611 288T773 242Q874 242 954 288T1081 415T1128 596V2400H1194V600Q1194 491 1141 397T991 246T765 189ZM733 78Q518 79 425 195T332 544V2400H395V550Q395
349 474 240T751 131Q906 131 1019 199T1192 376T1253 603V2400H1320V0H1258V176L1270 447H1254Q1195 273 1060 175T733 78ZM315 2580L626 3048H694L385 2580H315ZM453 2580L756 3048H889L1192 2580H1121L909 2908L849 2999H796L735 2907L524 2580H453ZM588 2580L761
2860L798 2931H847L884 2860L1058 2580H986L841 2825L828 2874H817L804 2825L659 2580H588ZM1259 2580L950 3048H1019L1329 2580H1259Z" />
<glyph unicode="&#xfc;" horiz-adv-x="1669" d="M700 -31Q569 -31 480 3T337 95T255 227T216 379T206 532V2400H269V541Q269 453 284 362T345 194T479 70T717 23Q896 23 1020 98T1215 302H1230L1199 82V0H1136V38L1173 181H1160Q1078 68 962 19T700 -31ZM1384
0V2400H1447V0H1384ZM765 189Q660 189 599 224T507 315T467 435T458 558V2400H521V561Q521 480 539 407T611 288T773 242Q874 242 954 288T1081 415T1128 596V2400H1194V600Q1194 491 1141 397T991 246T765 189ZM733 78Q518 79 425 195T332 544V2400H395V550Q395
349 474 240T751 131Q906 131 1019 199T1192 376T1253 603V2400H1320V0H1258V176L1270 447H1254Q1195 273 1060 175T733 78ZM901 2799V2854H1189V2799H901ZM464 2580V2635H752V2580H464ZM464 2690V2744H752V2690H464ZM464 2799V2854H752V2799H464ZM901 2580V2635H1189V2580H901ZM901
2690V2744H1189V2690H901Z" />
<glyph unicode="&#xfd;" horiz-adv-x="1447" d="M349 -818Q281 -818 217 -813T105 -797V-744Q160 -754 224 -759T349 -765Q538 -765 651 -710T822 -548T904 -290L1302 2400H1367L967 -299Q943 -464 879 -580T689 -757T349 -818ZM349 -605Q303 -605 242 -600T105
-585V-533Q186 -543 245 -547T349 -551Q491 -551 561 -479T654 -249L688 0H489L101 2400H164L542 54H761L716 -259Q692 -431 611 -518T349 -605ZM349 -712Q296 -712 232 -707T105 -692V-638Q176 -648 238 -653T349 -658Q565 -658 658 -559T779 -269L835 109H584L471
816L229 2400H293L526 861L627 164H845L1175 2400H1238L842 -279Q809 -497 700 -604T349 -712ZM668 219L580 906L358 2400H422L639 949L715 273H754L838 952L1046 2400H1110L892 881L804 219H668ZM630 2580L945 3071H1018L689 2580H630ZM861 2580L1231 3071H1303L920
2580H861ZM746 2580L1088 3071H1161L804 2580H746Z" />
<glyph unicode="&#xfe;" horiz-adv-x="1650" d="M473 -800V-185L451 292H466Q526 170 645 96T920 22Q1140 22 1257 136T1391 541Q1401 748 1405 967T1407 1410T1392 1855Q1376 2141 1265 2260T927 2379Q778 2379 652 2308T454 2108H439L463 2379V3200H525L524
2376L490 2230H504Q570 2322 685 2376T940 2430Q1193 2430 1314 2299T1455 1861Q1467 1638 1470 1423T1469 990T1453 537Q1437 225 1312 98T943 -30Q816 -30 704 19T519 172H503L539 -262V-800H473ZM222 -800V3200H286V-800H222ZM349 -800V3200H412L395 1908H409Q441
2105 583 2217T916 2329Q1127 2329 1220 2217T1329 1855Q1340 1646 1344 1437T1344 1007T1327 542Q1315 299 1215 187T900 73Q708 71 581 189T416 488H401L412 -106V-800H349ZM884 124Q1074 124 1164 221T1264 541Q1279 892 1280 1204T1266 1852Q1256 2095 1163
2187T892 2279Q762 2279 659 2222T494 2060T426 1815Q418 1649 413 1431T410 991T424 589Q433 470 487 364T641 191T884 124ZM877 172Q694 172 595 291T486 589Q478 766 476 979T476 1411T486 1814Q493 1983 587 2105T875 2227Q1036 2227 1115 2144T1203 1853Q1212
1652 1215 1446T1215 1017T1202 544Q1194 348 1118 260T877 172ZM876 224Q1006 224 1068 299T1138 545Q1153 897 1153 1213T1140 1852Q1132 2031 1069 2103T874 2176Q713 2176 635 2069T550 1811Q543 1664 540 1452T539 1011T550 590Q557 432 642 328T876 224Z"
/>
<glyph unicode="&#xff;" horiz-adv-x="1447" d="M349 -818Q281 -818 217 -813T105 -797V-744Q160 -754 224 -759T349 -765Q538 -765 651 -710T822 -548T904 -290L1302 2400H1367L967 -299Q943 -464 879 -580T689 -757T349 -818ZM349 -605Q303 -605 242 -600T105
-585V-533Q186 -543 245 -547T349 -551Q491 -551 561 -479T654 -249L688 0H489L101 2400H164L542 54H761L716 -259Q692 -431 611 -518T349 -605ZM349 -712Q296 -712 232 -707T105 -692V-638Q176 -648 238 -653T349 -658Q565 -658 658 -559T779 -269L835 109H584L471
816L229 2400H293L526 861L627 164H845L1175 2400H1238L842 -279Q809 -497 700 -604T349 -712ZM668 219L580 906L358 2400H422L639 949L715 273H754L838 952L1046 2400H1110L892 881L804 219H668ZM831 2799V2854H1119V2799H831ZM394 2580V2635H682V2580H394ZM394
2690V2744H682V2690H394ZM394 2799V2854H682V2799H394ZM831 2580V2635H1119V2580H831ZM831 2690V2744H1119V2690H831Z" />
<glyph unicode="&#x2013;" horiz-adv-x="1785" d="M120 1602V1659H1665V1602H120ZM120 1371V1429H1665V1371H120ZM120 1486V1544H1665V1486H120Z" />
<glyph unicode="&#x2014;" horiz-adv-x="2959" d="M120 1602V1659H2839V1602H120ZM120 1371V1429H2839V1371H120ZM120 1486V1544H2839V1486H120Z" />
<glyph unicode="&#x2018;" horiz-adv-x="784" d="M186 2545V2834L287 3200H331L243 2834V2603H598V2545H186ZM301 2661V2834L375 3200H419L359 2834V2718H598V2661H301ZM416 2776V2834L463 3200H507L474 2834H598V2776H416Z" />
<glyph unicode="&#x2019;" horiz-adv-x="784" d="M277 2545L310 2912H186V2969H367V2912L321 2545H277ZM365 2545L425 2912V3027H186V3085H483V2912L409 2545H365ZM453 2545L540 2912V3142H186V3200H598V2912L497 2545H453Z" />
<glyph unicode="&#x201a;" horiz-adv-x="641" d="M404 -366L492 0V231H137V288H549V0L448 -366H404ZM229 -366L261 0H137V58H319V0L273 -366H229ZM316 -366L376 0V115H137V173H434V0L360 -366H316Z" />
<glyph unicode="&#x201c;" horiz-adv-x="1258" d="M140 2545V2834L241 3200H285L198 2834V2603H552V2545H140ZM255 2661V2834L329 3200H373L313 2834V2718H552V2661H255ZM371 2776V2834L417 3200H461L428 2834H552V2776H371ZM705 2545V2834L807 3200H851L763 2834V2603H1118V2545H705ZM821
2661V2834L895 3200H939L878 2834V2718H1118V2661H821ZM936 2776V2834L983 3200H1027L994 2834H1118V2776H936Z" />
<glyph unicode="&#x201d;" horiz-adv-x="1258" d="M231 2545L264 2912H140V2969H322V2912L275 2545H231ZM319 2545L379 2912V3027H140V3085H437V2912L363 2545H319ZM407 2545L495 2912V3142H140V3200H552V2912L451 2545H407ZM797 2545L829 2912H705V2969H887V2912L841
2545H797ZM885 2545L945 2912V3027H705V3085H1002V2912L929 2545H885ZM973 2545L1060 2912V3142H705V3200H1118V2912L1016 2545H973Z" />
<glyph unicode="&#x201e;" horiz-adv-x="1321" d="M407 -366L495 0V231H140V288H552V0L451 -366H407ZM232 -366L264 0H140V58H322V0L276 -366H232ZM319 -366L379 0V115H140V173H437V0L363 -366H319ZM1035 -366L1123 0V231H768V288H1180V0L1079 -366H1035ZM860
-366L892 0H768V58H950V0L904 -366H860ZM947 -366L1007 0V115H768V173H1065V0L991 -366H947Z" />
<glyph unicode="&#x2022;" horiz-adv-x="784" d="M598 1692V1634H186V1692H598ZM598 1923V1865H186V1923H598ZM598 1807V1750H186V1807H598Z" />
<glyph unicode="&#x2039;" horiz-adv-x="914" d="M728 602L120 1210V1279L728 1887V1818L155 1245L728 671V602ZM728 465L120 1073V1142L728 534V465ZM728 739L291 1181L212 1236V1253L291 1311L728 1750V1681L340 1292L273 1250V1239L340 1200L728 808V739ZM120
1347V1416L728 2024V1955L120 1347Z" />
<glyph unicode="&#x203a;" horiz-adv-x="1034" d="M186 602V671L759 1245L186 1818V1887L794 1279V1210L186 602ZM186 465V534L794 1142V1073L186 465ZM186 739V808L573 1200L641 1239V1250L573 1292L186 1681V1750L623 1311L702 1253V1236L623 1181L186 739ZM794
1347L186 1955V2024L794 1416V1347Z" />
</font>
</defs>
</svg>
