<?xml version="1.0" standalone="no"?>
<!DOCTYPE svg PUBLIC "-//W3C//DTD SVG 1.1//EN" "http://www.w3.org/Graphics/SVG/1.1/DTD/svg11.dtd">
<svg xmlns="http://www.w3.org/2000/svg">
<defs >
<font id="Gotu" horiz-adv-x="787" ><font-face
    font-family="Gotu"
    units-per-em="1000"
    panose-1="0 0 0 0 0 0 0 0 0 0"
    ascent="1115"
    descent="-545"
    alphabetic="0" />
<glyph unicode=" " glyph-name="space" horiz-adv-x="265" />
<glyph unicode="!" glyph-name="exclam" horiz-adv-x="297" d="M106 699Q123 710 143 715T192 721L174 187Q164 179 150 175T123 170L106 699ZM216 41Q205 21 186 4T149 -22Q131 -14 112 3T82 41Q93 60 112 78T149 105Q169 97 188 79T216 41Z" />
<glyph unicode="&quot;" glyph-name="quotedbl" horiz-adv-x="376" d="M62 751Q80 761 101 765T144 770L122 505Q117 500 107 497T85 493L62 751ZM235 753Q253 763 274 767T317 772L295 507Q290 502 280 499T258 495L235 753Z" />
<glyph unicode="#" glyph-name="numbersign" horiz-adv-x="708" d="M487 669Q514 688 550 688L518 486H683Q681 467 671 451T647 434H510L482 253H651Q649 234 639 218T615 201H474L444 9Q433 1 415 -3T381 -7L413 201H245L215 9Q204 1 186 -3T152 -7L184 201H26Q29
221 39 237T62 253H192L221 434H57Q60 454 70 470T93 486H229L258 669Q285 688 321 688L289 486H458L487 669ZM253 253H421L450 434H281L253 253Z" />
<glyph unicode="$" glyph-name="dollar" horiz-adv-x="633" d="M61 146Q71 160 90 172T132 188Q135 162 145 137T176 89T227 52T300 31V330L264 340Q227 350 194 364T136 399T97 449T82 518Q82 552 98 585T143 645T212 692T300 718V802Q308 810 321 814T350 819V721Q402
720 439 706T500 672T535 629T548 590Q540 576 521 564T480 548Q472 590 441 625T350 672V399L387 390Q439 376 475 358T533 316T565 265T575 207Q575 168 559 132T514 65T444 13T350 -15V-93Q341 -102 327 -106T300 -110V-19H298Q236 -19 192 -3T119 38T76 92T61
146ZM350 316V29Q383 31 410 42T457 72T488 115T499 169Q499 223 467 258T359 314L350 316ZM159 550Q159 492 197 461T300 412V675Q271 674 246 665T201 639T171 600T159 550Z" />
<glyph unicode="%" glyph-name="percent" horiz-adv-x="872" d="M663 721Q677 719 688 712T704 695L206 -7Q192 -6 181 1T165 19L663 721ZM550 169Q550 136 558 110T581 65T615 37T657 27Q701 27 724 56T748 147Q748 177 741 202T721 247T689 277T645 288Q608
288 579 259T550 169ZM478 145Q478 183 493 215T533 272T592 310T663 324Q702 324 731 312T780 278T810 230T820 172Q820 133 807 100T769 42T712 5T639 -9Q601 -9 572 3T521 35T489 84T478 145ZM126 576Q126 543 134 517T157 472T191 443T233 433Q276 433 300
462T324 554Q324 584 317 609T297 653T265 683T221 694Q203 694 186 687T155 666T134 629T126 576ZM54 551Q54 589 69 622T109 679T168 716T239 730Q278 730 307 718T356 684T386 636T396 578Q396 539 383 506T345 448T288 411T214 397Q177 397 148 409T97 441T65
490T54 551Z" />
<glyph unicode="&amp;" glyph-name="ampersand" horiz-adv-x="795" d="M556 375Q567 391 587 403T626 417Q644 398 656 368T669 296Q669 247 653 208T616 140Q658 109 700 81T784 29V21Q772 11 748 3T697 -7Q665 10 633 31T568 78Q527 39 470 13T326 -14Q262 -14
212 1T127 45T74 112T56 198Q56 237 68 268T104 324T159 369T231 406Q205 440 187 476T168 552Q168 591 185 624T232 682T300 720T381 734Q417 734 444 724T489 697T515 656T524 607Q524 568 506 538T460 483T398 441T329 407Q345 387 371 359T430 299T503 232T586
163Q594 179 601 201T608 253Q608 300 591 329T556 375ZM363 42Q426 42 468 60T537 101Q491 137 448 176T369 251T303 320T255 377Q204 353 173 320T141 226Q141 181 159 147T207 90T277 54T363 42ZM244 581Q244 541 262 505T307 435Q338 451 363 466T406 500T433
540T443 591Q443 611 438 629T422 662T394 684T351 693Q331 693 312 687T277 667T253 632T244 581Z" />
<glyph unicode="&apos;" glyph-name="quotesingle" horiz-adv-x="203" d="M62 753Q80 763 101 767T144 772L122 507Q117 502 107 499T85 495L62 753Z" />
<glyph unicode="(" glyph-name="parenleft" horiz-adv-x="353" d="M306 829Q316 829 325 823T338 809Q250 707 209 592T167 335Q167 261 180 195T216 72T267 -33T326 -119Q317 -136 299 -149T261 -166Q235 -136 206 -91T152 12T111 142T95 295Q95 381 111 457T155
600T222 724T306 829Z" />
<glyph unicode=")" glyph-name="parenright" horiz-adv-x="353" d="M47 -159Q37 -159 28 -153T15 -139Q98 -34 142 80T186 335Q186 409 173 475T137 598T85 704T26 791Q36 808 54 820T92 836Q119 806 148 760T202 656T242 526T258 375Q258 226 204 94T47 -159Z" />
<glyph unicode="*" glyph-name="asterisk" horiz-adv-x="492" d="M208 764Q219 772 234 777T266 783Q280 783 286 781Q284 733 276 683T260 595Q273 604 290 614T326 635T363 655T398 671Q412 662 421 648T436 616Q421 608 400 601T356 588T310 577T270 569Q282
560 299 545T335 512T369 476T396 444Q389 427 376 413T345 391Q335 402 321 423T291 467T263 513T243 551Q236 533 225 512T202 468T178 426T157 391Q137 392 118 402T90 425Q100 440 116 459T149 497T185 535T217 568Q199 570 178 573T136 581T96 590T62 600Q60
608 60 618Q60 653 77 676Q92 670 112 660T154 638T194 615T227 595Q224 611 221 632T215 675T211 721T208 764Z" />
<glyph unicode="+" glyph-name="plus" horiz-adv-x="587" d="M325 306V98Q301 80 258 80V306H52Q55 332 66 347T92 363H258V557Q270 566 287 571T325 577V363H535Q533 334 522 320T495 306H325Z" />
<glyph unicode="," glyph-name="comma" horiz-adv-x="232" d="M180 13Q180 -23 168 -51T137 -102Q119 -125 93 -146T47 -175Q39 -175 30 -170T19 -158Q34 -149 49 -136T77 -107T97 -71T105 -28Q105 1 92 20T58 53Q69 74 87 89T129 106Q150 95 165 71T180 13Z" />
<glyph unicode="-" glyph-name="hyphen" horiz-adv-x="385" d="M48 272Q50 293 60 313T84 334H337Q335 308 325 290T301 272H48Z" />
<glyph unicode="." glyph-name="period" horiz-adv-x="224" d="M179 41Q168 21 149 4T112 -22Q94 -14 75 3T45 41Q56 60 75 78T112 105Q132 97 151 79T179 41Z" />
<glyph unicode="/" glyph-name="slash" horiz-adv-x="408" d="M75 -75Q68 -79 58 -80T36 -82Q19 -82 10 -79L341 819Q359 827 380 827Q395 827 406 824L75 -75Z" />
<glyph unicode="0" glyph-name="zero" horiz-adv-x="664" d="M66 326Q66 415 88 487T148 610T239 688T353 716Q419 716 465 689T541 615T584 508T598 380Q598 309 584 238T536 111T449 19T316 -17Q264 -17 219 4T139 69T86 176T66 326ZM151 369Q151 286 165 223T206
116T267 51T345 29Q427 29 470 105T513 337Q513 404 502 465T468 571T410 644T325 671Q296 671 265 657T209 607T167 514T151 369Z" />
<glyph unicode="1" glyph-name="one" horiz-adv-x="465" d="M303 710Q313 710 323 705T338 695V8Q324 -1 302 -4T259 -7V616Q242 595 220 575T174 538T126 508T83 487Q68 514 68 552Q124 573 185 611T303 710Z" />
<glyph unicode="2" glyph-name="two" horiz-adv-x="606" d="M71 -7Q66 -4 60 5T52 23L224 183Q277 232 317 272T385 348T426 422T440 504Q440 540 431 570T403 623T356 659T289 672Q263 672 239 665T196 642T165 605T153 551Q153 529 161 515T179 491Q170 477
148 467T104 456Q93 462 83 479T73 527Q73 563 91 597T142 658T220 700T318 716Q372 716 412 701T477 661T515 602T528 532Q528 484 514 443T468 359T385 264T258 147L153 54H548Q546 28 532 11T501 -7H71V-7Z" />
<glyph unicode="3" glyph-name="three" horiz-adv-x="645" d="M196 510Q186 496 165 487T120 477Q112 484 102 499T92 540Q92 572 110 603T161 660T238 700T335 716Q390 716 429 702T492 664T528 612T539 554Q539 519 527 490T495 439T449 399T392 372Q480 363
525 319T571 206Q571 159 551 118T494 47T406 0T291 -17Q236 -17 194 -4T124 31T81 84T66 147Q66 166 72 178Q83 189 105 197T146 207Q145 204 145 197T144 185Q144 116 190 72T323 28Q395 28 440 64T485 176Q485 251 441 290T315 330Q296 330 279 329T247 326Q247
337 248 350T255 371Q299 376 336 389T399 421T440 468T455 528Q455 592 416 632T304 672Q278 672 254 665T212 645T183 613T172 570Q172 549 179 534T196 510Z" />
<glyph unicode="4" glyph-name="four" horiz-adv-x="633" d="M52 155Q46 158 40 166T33 186Q137 305 202 432T288 684Q325 708 378 708Q367 644 340 577T276 444T196 320T110 213H413V427Q425 441 445 453T487 468V213H611Q607 187 595 171T558 155H487V4Q475
-6 456 -9T413 -12V155H52V155Z" />
<glyph unicode="5" glyph-name="five" horiz-adv-x="621" d="M313 29Q348 29 378 41T429 76T463 133T475 212Q475 251 465 285T433 344T376 383T292 398Q263 398 238 393T191 378T152 358T122 337Q115 340 109 347T100 360L140 671Q157 686 185 696T258 706H535Q533
680 520 662T483 644H194L167 422Q199 439 239 450T328 462Q388 462 431 444T502 396T543 327T556 244Q556 194 539 147T487 64T400 5T280 -17Q230 -17 191 -5T123 30T80 83T65 149Q65 165 69 174Q80 185 101 193T142 202Q141 197 141 193T141 185Q141 152 152
124T185 74T239 41T313 29Z" />
<glyph unicode="6" glyph-name="six" horiz-adv-x="632" d="M341 377Q319 377 300 372T266 360T238 344T219 329Q217 332 217 337T216 347Q216 352 216 357T219 364Q225 372 239 383T273 403T319 420T377 427Q426 427 463 412T524 371T561 310T574 235Q574 186
557 141T506 61T423 5T310 -16Q257 -16 212 3T135 58T84 147T66 268Q66 336 83 393T130 498T203 583T295 649Q335 672 380 688T467 712Q477 709 485 699T495 677Q458 670 413 654T326 613Q289 591 258 562T203 494T166 407T153 299Q153 234 167 184T206 100T266
49T344 31Q413 31 453 74T493 205Q493 283 455 330T341 377Z" />
<glyph unicode="7" glyph-name="seven" horiz-adv-x="553" d="M144 -7Q187 191 265 354T435 644H47Q51 672 65 689T94 706H512Q519 702 523 695T529 681Q480 624 436 552T354 396T289 216T246 15Q226 2 197 -2T144 -7Z" />
<glyph unicode="8" glyph-name="eight" horiz-adv-x="630" d="M300 -19Q249 -19 205 -7T129 28T79 85T61 161Q61 198 73 227T106 280T157 321T221 353Q95 406 95 513Q95 555 114 591T168 656T246 700T341 716Q393 716 430 703T492 668T528 618T540 558Q540 521
527 492T493 441T447 403T398 376Q447 358 480 338T534 294T563 246T572 195Q572 151 552 113T495 45T409 -2T300 -19ZM267 337Q242 327 220 314T180 282T153 240T143 184Q143 145 157 116T197 66T257 36T331 26Q404 26 448 61T493 158Q493 183 486 205T460 247T408
284T324 319L267 337ZM170 548Q170 492 206 460T306 407L355 390Q375 400 394 413T429 443T453 481T462 529Q462 558 452 584T423 629T376 660T311 672Q284 672 259 664T214 641T182 602T170 548Z" />
<glyph unicode="9" glyph-name="nine" horiz-adv-x="613" d="M392 351Q394 347 394 337Q394 327 391 320Q388 314 378 305T351 289T312 276T262 270Q220 270 184 283T120 322T78 383T62 465Q62 517 81 562T136 642T219 696T323 716Q378 716 420 697T492 642T536
558T551 451Q551 380 534 320T484 210T408 120T310 50Q290 39 268 29T224 10T181 -5T142 -15Q134 -12 127 -2T117 21Q214 47 297 106Q333 132 363 164T416 236T451 320T464 419Q464 476 453 522T419 602T365 653T291 671Q262 671 235 660T187 627T154 573T141 498Q141
452 153 419T185 365T234 333T294 322Q329 322 353 331T392 351Z" />
<glyph unicode=":" glyph-name="colon" horiz-adv-x="224" d="M179 41Q168 21 149 4T112 -22Q94 -14 75 3T45 41Q56 60 75 78T112 105Q132 97 151 79T179 41ZM179 449Q168 429 149 412T112 386Q94 394 75 411T45 449Q56 468 75 486T112 513Q132 505 151 487T179 449Z" />
<glyph unicode=";" glyph-name="semicolon" horiz-adv-x="240" d="M186 13Q186 -23 174 -51T143 -102Q125 -125 99 -146T53 -175Q45 -175 36 -170T25 -158Q40 -149 55 -136T83 -107T103 -71T111 -28Q111 1 98 20T64 53Q75 74 93 89T135 106Q156 95 171 71T186
13ZM188 449Q177 429 158 412T121 386Q103 394 84 411T54 449Q65 468 84 486T121 513Q141 505 160 487T188 449Z" />
<glyph unicode="&lt;" glyph-name="less" horiz-adv-x="504" d="M440 494Q362 461 276 425T113 352Q149 327 191 301T279 248T370 198T459 154Q456 135 443 118T417 93Q374 114 325 140T226 196T131 255T48 313Q50 327 53 340T64 364Q84 377 114 394T180 432T254
473T329 512T398 546T455 572Q457 564 457 557Q457 540 453 521T440 494Z" />
<glyph unicode="=" glyph-name="equal" horiz-adv-x="519" d="M48 208Q50 229 60 247T84 265H460Q458 243 448 226T424 208H48ZM59 406Q61 426 70 444T95 462H471Q469 440 459 423T435 406H59Z" />
<glyph unicode="&gt;" glyph-name="greater" horiz-adv-x="504" d="M65 172Q143 205 228 240T391 314Q354 339 312 364T225 415T134 464T45 508Q49 527 61 545T88 572Q131 552 180 526T279 470T374 410T456 352Q454 339 451 326T441 302Q421 289 391 272T325 234T251
193T175 153T106 118T50 93Q48 101 48 109Q48 126 53 144T65 172Z" />
<glyph unicode="?" glyph-name="question" horiz-adv-x="528" d="M160 508Q149 492 128 483T87 473Q78 479 63 500T48 556Q48 591 66 623T117 679T193 718T286 733Q335 733 372 720T433 684T470 634T482 575Q482 540 470 512T439 459T393 413T339 369Q297 336
281 311T265 255Q265 237 273 225T291 205Q282 191 259 182T217 172Q208 178 198 192T187 229Q187 246 192 262T210 296T246 336T303 390Q348 430 371 464T395 547Q395 614 359 651T253 689Q229 689 206 682T166 661T138 627T127 581Q127 555 138 537T160 508ZM319
41Q308 21 289 4T252 -22Q234 -14 215 3T185 41Q196 60 215 78T252 105Q272 97 291 79T319 41Z" />
<glyph unicode="@" glyph-name="at" horiz-adv-x="946" d="M710 -94Q712 -100 712 -108Q712 -121 708 -126Q699 -135 677 -149T619 -175T538 -197T435 -207Q369 -207 302 -185T180 -117T91 2T56 173Q56 269 93 354T196 502T348 603T536 640Q624 640 690 615T802
547T869 445T892 321Q892 247 870 189T811 90T726 28T627 6Q579 6 556 17T533 58Q533 85 539 130Q509 77 466 43T376 9Q352 9 331 16T294 40T269 83T260 147Q260 206 280 262T336 363T420 435T523 462Q554 462 577 454T618 434T645 408T661 383Q651 345 641 303T623
222T609 147T604 87Q604 62 620 56T665 49Q690 49 718 62T771 103T810 176T826 285Q826 348 808 404T751 501T649 567T497 592Q426 592 359 565T239 487T154 365T122 205Q122 107 153 39T235 -73T350 -135T481 -155Q557 -155 613 -138T710 -94ZM413 68Q436 68 458
83T501 124T537 186T564 261L585 360Q581 368 574 377T555 393T528 406T491 411Q457 411 428 394T376 347T342 276T329 187Q329 124 349 96T413 68Z" />
<glyph unicode="A" glyph-name="A" horiz-adv-x="679" d="M22 -7Q55 77 92 172T166 362T239 545T303 705Q320 713 340 717T380 721L645 4Q636 -1 620 -4T582 -8Q577 -8 573 -8T563 -7L485 205H165Q130 98 103 1Q94 -4 80 -6T50 -9Q41 -9 34 -9T22 -7ZM324 647Q289
556 253 456T181 253H468L324 647Z" />
<glyph unicode="B" glyph-name="B" horiz-adv-x="685" d="M110 688Q152 703 211 717T340 731Q408 731 454 716T528 677T568 622T580 560Q580 525 569 496T538 444T494 405T441 380Q530 363 573 317T616 205Q616 154 592 113T525 42T423 -2T293 -18Q242 -18 196
-13T110 0V688ZM309 344Q272 344 244 343T192 337V49Q221 40 258 35T331 29Q374 29 409 39T471 68T511 117T526 187Q526 231 508 261T460 309T390 336T309 344ZM346 390Q377 391 404 401T450 430T481 475T493 536Q493 607 448 646T306 685Q273 685 244 682T192
673V383Q218 386 252 388T331 390H346Z" />
<glyph unicode="C" glyph-name="C" horiz-adv-x="705" d="M647 582Q639 567 620 554T574 537Q569 561 558 586T525 633T471 668T391 682Q349 682 307 666T231 613T176 520T154 380Q154 299 176 236T236 131T324 66T433 44Q500 44 546 66T625 126Q631 124 639 118T649
106Q641 92 623 71T575 31T499 -3T390 -18Q328 -18 270 4T167 72T95 186T68 346Q68 426 97 496T175 619T290 701T430 731Q490 731 531 714T598 673T635 624T647 582Z" />
<glyph unicode="D" glyph-name="D" horiz-adv-x="771" d="M110 695Q158 711 215 721T348 731Q438 731 505 704T616 630T683 522T705 391Q705 293 674 217T587 89T453 9T279 -18Q238 -18 193 -14T110 -2V695ZM313 686Q274 686 245 684T192 677V50Q217 42 255 38T333
33Q394 33 445 52T535 110T594 211T616 357Q616 425 598 485T543 589T449 660T313 686Z" />
<glyph unicode="E" glyph-name="E" horiz-adv-x="628" d="M110 -7V695Q144 714 192 716Q221 717 269 717T372 719T479 720T568 721Q566 700 557 683T535 661Q501 661 458 662T369 665T277 669T192 673V379L509 385Q507 367 499 352T481 335Q408 336 336 336T192
339V37Q280 39 375 43T576 55Q573 32 564 16T544 -7H110Z" />
<glyph unicode="F" glyph-name="F" horiz-adv-x="612" d="M192 9Q176 0 155 -3T110 -7V695Q124 703 146 709T192 716Q216 717 263 717T366 719T476 720T570 721Q568 701 560 684T539 662Q504 662 460 663T369 665T276 668T192 672V379L504 385Q502 367 494 352T476
335Q404 336 334 336T192 338V9Z" />
<glyph unicode="G" glyph-name="G" horiz-adv-x="771" d="M684 91Q674 79 653 61T597 25T515 -5T408 -18Q342 -18 281 4T173 72T97 186T68 347Q68 426 96 496T175 618T294 701T442 731Q509 731 553 714T623 674T662 626T677 585Q670 571 651 559T605 542Q599 567
585 592T547 636T486 668T401 680Q354 680 310 663T232 609T177 517T156 384Q156 292 180 226T245 118T338 55T445 35Q509 35 545 48T602 74V322Q554 320 503 319T410 317Q412 334 419 348T436 367L684 365V91Z" />
<glyph unicode="H" glyph-name="H" horiz-adv-x="783" d="M673 9Q657 0 636 -3T591 -7V344H192V9Q176 0 155 -3T110 -7V703Q144 721 192 721V391H591V703Q625 721 673 721V9Z" />
<glyph unicode="I" glyph-name="I" horiz-adv-x="304" d="M193 9Q177 0 156 -3T111 -7V703Q145 721 193 721V9Z" />
<glyph unicode="J" glyph-name="J" horiz-adv-x="312" d="M202 5Q202 -49 186 -93T142 -169T75 -218T-9 -236Q-50 -236 -77 -223T-115 -195Q-113 -178 -100 -159T-68 -131Q-54 -149 -32 -162T20 -176Q39 -176 57 -171T89 -152T111 -111T120 -43V703Q154 721 202 721V5Z" />
<glyph unicode="K" glyph-name="K" horiz-adv-x="695" d="M192 365Q286 437 376 524T539 706Q552 713 569 716T604 720Q612 720 620 720T633 717Q597 670 556 626T472 540T385 462T300 392Q312 390 322 386T344 373T367 351T396 317L548 131Q569 105 585 87T613
56T637 32T659 13V6Q651 3 639 1T613 -3T586 -6T564 -7Q550 -1 532 19T478 86L322 290Q299 319 283 329T246 339Q228 339 216 335T192 322V9Q176 0 155 -3T110 -7V703Q144 721 192 721V365Z" />
<glyph unicode="L" glyph-name="L" horiz-adv-x="584" d="M192 37Q273 40 360 45T556 57Q554 34 545 17T525 -7H110V703Q144 721 192 721V37Z" />
<glyph unicode="M" glyph-name="M" horiz-adv-x="921" d="M496 122Q491 117 482 114T463 107T441 103T421 101L204 625Q197 547 191 467T179 308T169 154T161 9Q146 0 124 -3T79 -7Q100 167 124 346T173 702Q187 710 210 715T253 721L471 182Q522 310 575 442T680
705Q696 713 717 717T759 721L843 8Q829 0 806 -3T761 -7L690 611Q640 486 591 362T496 122Z" />
<glyph unicode="N" glyph-name="N" horiz-adv-x="773" d="M660 3Q654 -2 642 -4T621 -7L157 630Q158 552 159 476T162 324T166 171T173 11Q162 3 140 -2T98 -7Q100 80 102 162T106 330T110 507T115 703Q132 711 153 716T196 721L615 141Q613 289 611 432T603 702Q620
712 640 716T678 721Q673 561 669 379T660 3Z" />
<glyph unicode="O" glyph-name="O" horiz-adv-x="820" d="M157 379Q157 294 178 229T236 120T320 52T423 29Q538 29 601 108T665 345Q665 422 646 484T593 591T510 660T401 684Q353 684 309 666T231 611T177 516T157 379ZM68 347Q68 432 97 502T176 624T291 703T430
731Q509 731 569 704T671 629T733 517T754 377Q754 294 730 222T660 97T548 13T397 -18Q330 -18 271 7T166 79T95 194T68 347Z" />
<glyph unicode="P" glyph-name="P" horiz-adv-x="646" d="M110 691Q155 707 213 719T340 731Q412 731 461 714T539 667T582 601T595 525Q595 464 571 416T504 335T404 285T281 267Q255 267 232 269T192 274V9Q176 0 155 -3T110 -7V691ZM312 685Q276 685 246 681T192
672V341Q214 329 243 321T317 313Q404 313 455 359T506 492Q506 532 495 567T460 628T400 670T312 685Z" />
<glyph unicode="Q" glyph-name="Q" horiz-adv-x="821" d="M68 348Q68 434 97 504T177 625T292 703T431 731Q510 731 570 704T671 629T733 517T754 377Q754 265 711 176T587 34Q542 4 495 -25T398 -83Q418 -83 437 -86T480 -96T537 -113T617 -138Q655 -150 685
-159T743 -174T795 -183T846 -186Q883 -186 903 -173Q906 -174 909 -177T914 -183Q899 -214 874 -236T811 -258Q790 -258 767 -254T716 -241T651 -219T568 -189L538 -178Q504 -166 479 -156T432 -139T394 -128T360 -124Q342 -124 325 -128T292 -139Q280 -145 268
-151T243 -164L213 -179Q207 -181 205 -183Q189 -181 174 -170T154 -146Q236 -117 309 -86T455 -14Q441 -16 427 -17T397 -18Q330 -18 271 6T166 76T95 191T68 348ZM157 380Q157 295 178 230T236 120T320 52T423 29Q538 29 601 108T665 345Q665 422 647 484T594
591T511 660T402 684Q354 684 310 666T231 611T177 516T157 380Z" />
<glyph unicode="R" glyph-name="R" horiz-adv-x="678" d="M110 692Q154 708 213 719T334 731Q402 731 449 716T527 674T570 612T584 538Q584 490 566 454T520 391T454 347T380 320Q397 309 412 293T444 254L543 126Q574 86 600 57T644 13V7Q630 0 603 -3T552 -7Q542
-3 526 14T480 74L362 241Q349 259 338 272T313 293T282 305T239 309H192V9Q176 0 155 -3T110 -7V692ZM298 685Q274 685 246 682T192 673V363Q209 358 231 355T283 352Q381 352 438 392T495 515Q495 551 483 582T447 636T385 672T298 685Z" />
<glyph unicode="S" glyph-name="S" horiz-adv-x="639" d="M61 152Q71 167 94 180T139 194Q142 166 155 138T192 87T253 50T339 35Q412 35 455 72T498 171Q498 229 468 267T359 325L265 349Q229 358 197 370T141 401T104 449T90 519Q90 560 110 598T165 665T248
713T351 731Q406 731 445 717T508 683T543 640T557 598Q550 584 531 573T487 558Q483 580 472 601T441 640T390 669T319 680Q251 680 210 645T169 551Q169 518 179 497T207 461T249 437T303 421L391 399Q446 385 482 365T540 321T569 269T578 210Q578 165 559 124T504
52T418 2T304 -17Q243 -17 198 -1T123 39T78 94T61 152Z" />
<glyph unicode="T" glyph-name="T" horiz-adv-x="630" d="M610 719Q608 699 600 681T581 655Q536 659 475 665T358 677V9Q342 0 321 -3T276 -7V677Q246 674 211 671T142 664T78 659T26 655Q28 677 35 693T54 719H610Z" />
<glyph unicode="U" glyph-name="U" horiz-adv-x="763" d="M189 274Q189 210 204 166T248 93T316 53T403 40Q466 40 505 61T566 123T597 220T605 349Q605 426 603 516T596 706Q613 714 632 717T671 721Q669 658 669 602T668 490T665 381T659 268Q653 187 628 133T565
45T477 -3T369 -17Q316 -17 269 -2T185 44T128 125T107 244V703Q141 721 189 721V274Z" />
<glyph unicode="V" glyph-name="V" horiz-adv-x="715" d="M672 719Q654 647 624 557T556 371T478 182T397 12Q385 4 364 -1T321 -7Q283 71 246 159T174 339T109 523T56 700Q88 721 136 721Q177 563 238 390T375 52Q408 123 439 204T498 370T551 543T594 711Q616
721 648 721Q664 721 672 719Z" />
<glyph unicode="W" glyph-name="W" horiz-adv-x="1005" d="M335 13Q325 4 303 -1T260 -7Q228 76 199 166T146 348T100 530T63 703Q80 712 101 716T142 721Q155 649 173 569T212 406T259 239T312 75Q336 136 360 208T407 354T448 498T479 624Q510 641 553 641Q586
495 632 350T733 62Q759 137 781 219T821 386T854 553T878 711Q900 721 928 721Q945 721 953 719Q941 647 921 559T875 376T819 189T756 12Q745 4 726 -1T683 -7Q657 53 632 121T583 260T539 398T505 525Q490 466 471 400T429 266T383 134T335 13Z" />
<glyph unicode="X" glyph-name="X" horiz-adv-x="679" d="M60 697Q78 709 100 715T145 721L353 404Q406 473 451 551T534 709Q548 716 564 718T595 721Q611 721 619 719Q580 638 517 551T384 376L643 11Q625 0 601 -3T552 -7L329 332Q300 288 275 248T228 168T184
88T139 6Q112 -9 62 -9Q47 -9 37 -7Q97 85 159 173T298 358L60 697V697Z" />
<glyph unicode="Y" glyph-name="Y" horiz-adv-x="669" d="M132 721Q174 628 233 524T358 322Q418 412 469 509T558 710Q572 717 586 719T617 722Q630 722 638 720Q621 677 592 623T529 510T457 396T385 295V9Q369 0 348 -3T303 -7V273Q229 377 166 482T51 698Q65
708 86 714T132 721Z" />
<glyph unicode="Z" glyph-name="Z" horiz-adv-x="639" d="M146 37Q252 41 359 45T595 57Q593 33 583 16T560 -7H59Q53 -5 47 2T39 15L489 672Q381 667 278 663T87 657Q90 678 99 695T118 719H584Q588 717 592 712T599 700L146 37Z" />
<glyph unicode="[" glyph-name="bracketleft" horiz-adv-x="340" d="M131 -161Q117 -154 111 -141V788Q119 799 139 809T192 820H320Q320 801 312 787T290 772H183V-114H320Q320 -136 312 -148T290 -161H131Z" />
<glyph unicode="\" glyph-name="backslash" horiz-adv-x="387" d="M2 809Q15 817 30 820T58 823L385 -79Q376 -85 359 -88T328 -91L2 809Z" />
<glyph unicode="]" glyph-name="bracketright" horiz-adv-x="340" d="M209 820Q224 811 229 799V-129Q221 -140 201 -150T148 -161H20Q20 -141 28 -128T50 -114H157V772H20Q20 795 28 807T50 820H209Z" />
<glyph unicode="^" glyph-name="asciicircum" horiz-adv-x="546" d="M421 393Q404 431 386 473T348 557T308 639T266 715Q244 679 225 638T187 556T154 474T126 398Q117 393 105 391T80 389Q62 389 52 392Q69 428 92 475T141 573T195 671T249 758Q260 765 276
769T306 773Q330 741 356 695T407 600T454 501T494 415Q483 405 462 399T421 393Z" />
<glyph unicode="_" glyph-name="underscore" horiz-adv-x="472" d="M462 -49Q460 -69 451 -84T427 -100H10Q12 -78 22 -64T45 -49H462Z" />
<glyph unicode="`" glyph-name="grave" horiz-adv-x="346" d="M248 602Q228 611 202 630T151 672T102 721T64 768Q86 782 125 782Q136 782 142 780Q168 738 205 694T280 612Q276 607 267 605T248 602Z" />
<glyph unicode="a" glyph-name="a" horiz-adv-x="568" d="M533 37Q530 32 524 25T509 12T492 0T474 -7Q442 -5 420 17T396 77Q388 62 372 46T334 16T282 -6T219 -15Q148 -15 107 21T65 117Q65 179 112 221T273 283L392 304V343Q392 415 359 453T259 491Q218 491
190 471T161 410Q161 392 173 378Q164 366 144 356T103 344Q98 349 91 359T84 386Q84 417 102 444T149 490T216 521T295 532Q391 532 431 489T471 367V116Q471 75 489 60T531 41L533 37ZM251 38Q303 38 339 62T392 124V268L258 244Q204 234 176 210T147 141Q147
91 177 65T251 38Z" />
<glyph unicode="b" glyph-name="b" horiz-adv-x="642" d="M94 755Q111 764 131 768T173 772V430Q187 448 206 466T251 498T306 522T372 532Q422 532 461 514T529 464T571 389T586 295Q586 230 564 174T503 75T408 9T285 -16Q217 -16 170 -1T94 34V755ZM335 476Q282
476 239 445T173 367V73Q197 54 234 42T319 30Q357 30 390 44T449 87T488 157T503 254Q503 360 458 418T335 476Z" />
<glyph unicode="c" glyph-name="c" horiz-adv-x="549" d="M498 414Q492 403 475 391T431 376Q428 393 420 412T395 448T355 475T297 486Q269 486 241 475T189 439T152 375T137 280Q137 220 153 176T196 102T258 58T333 43Q384 43 419 58T480 103Q486 102 492 96T500
85Q492 71 476 54T434 21T376 -4T301 -15Q251 -15 207 2T129 53T76 136T56 250Q56 307 77 357T134 446T221 507T329 530Q377 530 409 517T460 485T489 446T498 414Z" />
<glyph unicode="d" glyph-name="d" horiz-adv-x="634" d="M462 69Q451 54 435 39T397 12T345 -8T280 -16Q236 -16 196 0T125 47T75 125T56 233Q56 293 78 347T140 443T231 508T344 532Q384 532 412 523T462 499V755Q479 764 499 768T541 772V8Q527 0 505 -3T462
-7V69ZM317 41Q373 41 409 67T462 129V400Q454 416 442 431T411 459T370 479T317 487Q284 487 252 474T195 435T154 367T138 271Q138 208 154 165T196 94T254 54T317 41Z" />
<glyph unicode="e" glyph-name="e" horiz-adv-x="556" d="M136 258Q139 204 155 164T198 96T258 56T332 42Q381 42 416 55T481 96Q495 93 500 77Q493 66 478 50T437 19T376 -6T293 -17Q243 -17 200 1T125 53T75 137T56 250Q56 308 76 359T130 449T211 509T311
532Q368 532 405 513T463 464T493 398T502 328Q494 316 481 307T451 293L136 258ZM285 487Q254 487 227 476T180 442T148 383T134 296L416 325Q417 330 417 335T417 344Q417 375 409 401T385 446T344 476T285 487Z" />
<glyph unicode="f" glyph-name="f" horiz-adv-x="395" d="M24 481Q33 492 50 501T88 511H114V539Q114 585 130 628T175 704T245 756T336 776Q370 776 393 767T432 745T454 717T463 690Q458 679 440 667T402 653Q400 663 395 676T379 702T350 724T304 733Q282 733
262 726T227 703T202 663T193 604V511H375Q374 494 364 483T341 471H193V8Q179 0 157 -3T114 -7V471H24V481Z" />
<glyph unicode="g" glyph-name="g" horiz-adv-x="571" d="M259 169Q244 169 231 170T203 174Q177 164 161 149T145 114Q145 85 175 74T263 60L368 55Q415 53 447 40T500 8T529 -36T538 -84Q538 -125 517 -159T459 -217T369 -254T255 -268Q208 -268 169 -260T102
-236T57 -196T41 -140Q41 -115 50 -96T75 -63T110 -40T148 -25Q153 -27 156 -33T160 -44Q142 -54 129 -71T116 -119Q116 -145 129 -164T167 -197T224 -216T298 -222Q383 -222 425 -192T468 -117Q468 -72 436 -44T325 -11L221 -5Q146 0 111 20T76 83Q76 101 83 117T103
146T131 169T162 187Q118 206 93 243T68 335Q68 376 85 412T134 474T206 516T296 532Q313 532 328 530T357 525Q362 524 367 524T381 524Q425 524 441 538T458 575Q458 588 453 597T440 614Q471 643 514 643Q523 635 529 622T535 591Q535 549 502 527T414 502Q452
477 468 439T485 363Q485 319 467 284T419 223T347 183T259 169ZM271 492Q246 492 225 484T187 459T161 418T151 362Q151 326 161 298T188 250T230 220T281 209Q306 209 328 216T366 238T392 277T402 335Q402 366 394 394T369 444T328 479T271 492Z" />
<glyph unicode="h" glyph-name="h" horiz-adv-x="637" d="M467 312Q467 397 432 436T333 476Q310 476 287 468T244 445T205 412T173 372V8Q159 0 137 -3T94 -7V755Q111 764 131 768T173 772V430Q187 447 207 465T252 498T306 522T370 532Q451 532 498 483T546
343V8Q532 0 510 -3T467 -7V312Z" />
<glyph unicode="i" glyph-name="i" horiz-adv-x="268" d="M199 679Q190 663 171 646T137 621Q122 628 103 645T74 679Q84 696 103 714T137 740Q152 732 171 714T199 679ZM95 505Q112 514 132 518T174 522V8Q160 0 138 -3T95 -7V505Z" />
<glyph unicode="j" glyph-name="j" horiz-adv-x="271" d="M-36 -258Q-88 -258 -114 -238T-149 -196Q-144 -181 -128 -167T-93 -147Q-84 -168 -63 -185T-5 -203Q16 -203 35 -196T68 -173T90 -131T98 -67V505Q115 514 135 518T177 522V-9Q177 -68 158 -114T107 -192T38
-241T-36 -258ZM199 679Q190 663 171 646T137 621Q122 628 103 645T74 679Q84 696 103 714T137 740Q152 732 171 714T199 679Z" />
<glyph unicode="k" glyph-name="k" horiz-adv-x="569" d="M94 755Q111 764 131 768T173 772V278Q203 296 234 321T297 376T360 440T419 511Q429 517 446 520T480 523Q497 523 508 520Q488 493 459 463T399 405T335 350T276 305Q302 300 320 280T363 228L446 117Q463
94 476 78T500 49T520 27T539 11V6Q526 -1 501 -4T460 -7Q447 -2 431 15T386 71L301 188Q287 207 277 221T257 243T238 255T216 259Q204 259 193 255T173 244V8Q159 0 137 -3T94 -7V755Z" />
<glyph unicode="l" glyph-name="l" horiz-adv-x="269" d="M95 755Q112 764 132 768T174 772V8Q160 0 138 -3T95 -7V755Z" />
<glyph unicode="m" glyph-name="m" horiz-adv-x="957" d="M442 314Q442 396 410 435T316 475Q268 475 230 446T171 377V8Q157 0 135 -3T92 -7V505Q125 522 166 522V429Q177 446 194 464T235 498T288 522T351 532Q413 532 452 500T506 421Q518 437 536 456T579
493T632 521T696 532Q772 532 819 485T867 345V8Q853 0 831 -3T788 -7V314Q788 475 663 475Q622 475 584 448T521 379V8Q507 0 485 -3T442 -7V314Z" />
<glyph unicode="n" glyph-name="n" horiz-adv-x="633" d="M464 312Q464 397 429 436T330 476Q307 476 285 468T242 445T203 413T171 374V8Q157 0 135 -3T92 -7V505Q125 522 166 522V423Q179 440 199 459T245 495T301 521T367 532Q448 532 495 483T543 343V8Q529
0 507 -3T464 -7V312Z" />
<glyph unicode="o" glyph-name="o" horiz-adv-x="628" d="M140 279Q140 216 155 169T196 91T255 43T326 27Q406 27 448 80T490 242Q490 294 478 339T443 417T385 469T307 488Q275 488 245 476T192 439T155 374T140 279ZM56 248Q56 309 78 361T137 451T225 510T333
532Q395 532 440 511T515 455T559 373T574 274Q574 213 555 160T501 68T414 5T298 -18Q250 -18 206 0T129 52T76 135T56 248Z" />
<glyph unicode="p" glyph-name="p" horiz-adv-x="639" d="M92 505Q109 514 129 518T171 522V433Q185 450 205 467T250 499T305 523T369 532Q421 532 461 515T528 466T569 391T583 297Q583 231 560 174T497 74T401 7T280 -18Q245 -18 218 -11T171 8V-243Q157 -251
135 -254T92 -258V505ZM331 475Q284 475 241 447T171 376V103Q197 66 236 49T321 31Q359 31 391 45T448 87T486 159T500 260Q500 367 456 421T331 475Z" />
<glyph unicode="q" glyph-name="q" horiz-adv-x="621" d="M454 61Q443 49 427 36T389 13T340 -5T279 -12Q237 -12 197 2T126 47T75 125T56 236Q56 297 79 351T143 444T236 507T348 530Q391 530 422 522T476 502T512 477T533 455V-243Q519 -251 497 -254T454 -258V61ZM316
43Q367 43 402 65T454 113V416Q437 441 403 463T319 485Q285 485 253 473T196 434T155 367T139 271Q139 212 154 170T194 99T251 57T316 43Z" />
<glyph unicode="r" glyph-name="r" horiz-adv-x="477" d="M92 505Q125 522 167 522V378Q177 408 194 435T234 484T287 517T351 530Q378 530 398 522T431 501T450 472T458 441Q450 427 431 417T392 405Q387 432 370 453T313 474Q284 474 260 457T216 410T186 337T171
245V8Q157 0 135 -3T92 -7V505Z" />
<glyph unicode="s" glyph-name="s" horiz-adv-x="519" d="M50 106Q58 120 76 132T116 146Q123 95 165 62T274 28Q337 28 367 55T398 124Q398 165 370 188T272 228L213 243Q181 251 156 261T112 285T83 320T73 369Q73 400 89 429T133 482T199 518T281 532Q326 532
357 522T408 496T438 462T449 430Q442 416 425 406T388 393Q381 431 349 459T253 487Q232 487 212 482T175 465T149 439T139 402Q139 368 163 348T247 313L308 298Q395 276 432 243T470 157Q470 124 455 93T411 37T340 -2T244 -17Q197 -17 162 -6T103 24T65 63T50
106Z" />
<glyph unicode="t" glyph-name="t" horiz-adv-x="427" d="M22 481Q30 492 47 501T86 511H118V655Q134 668 155 674T197 681V511H393Q392 494 384 483T362 471H197V143Q197 111 204 92T225 61T255 46T290 42Q323 42 345 55T381 82Q395 78 399 65Q394 57 383 44T354
19T311 -3T255 -12Q227 -12 202 -5T159 18T129 61T118 128V471H22V481Z" />
<glyph unicode="u" glyph-name="u" horiz-adv-x="624" d="M308 40Q356 40 395 67T454 142V505Q471 514 491 518T533 522V8Q519 0 499 -3T458 -7V88Q448 71 431 53T389 19T335 -7T267 -17Q230 -17 198 -6T141 28T103 87T89 172V505Q106 514 126 518T168 522V202Q168
157 179 126T209 76T253 49T308 40Z" />
<glyph unicode="v" glyph-name="v" horiz-adv-x="560" d="M320 11Q308 3 287 -2T248 -7Q221 39 191 104T133 240T83 379T47 500Q64 511 83 516T124 522Q135 474 153 413T195 288T243 160T295 45Q349 153 389 274T453 508Q464 514 479 518T509 522Q514 522 519
522T529 521Q513 461 490 395T440 263T382 132T320 11Z" />
<glyph unicode="w" glyph-name="w" horiz-adv-x="863" d="M292 10Q280 2 259 -2T219 -7Q196 46 173 110T128 242T88 376T57 502Q90 522 135 522Q143 474 157 418T189 300T228 178T270 58Q291 109 311 165T349 279T382 392T408 500Q425 510 445 514T482 518Q491
470 506 412T541 293T581 170T625 51Q646 104 664 163T698 282T725 400T745 511Q769 522 798 522Q815 522 821 520Q807 461 789 397T748 267T700 136T647 10Q635 2 613 -2T574 -7Q555 37 536 89T498 196T462 306T432 415Q421 371 405 319T370 213T331 107T292 10Z"
/>
<glyph unicode="x" glyph-name="x" horiz-adv-x="550" d="M492 523Q462 460 415 395T318 270L518 11Q501 0 476 -3T433 -7L267 228Q225 171 190 116T119 0Q107 -5 91 -7T59 -10Q41 -10 32 -7Q76 56 128 122T236 255L55 497Q70 508 90 515T134 522L289 296Q322
344 354 398T413 510Q425 518 441 521T473 524Q478 524 482 524T492 523Z" />
<glyph unicode="y" glyph-name="y" horiz-adv-x="570" d="M124 522Q138 471 157 413T200 294T249 175T301 65Q363 188 400 299T460 511Q473 517 488 519T518 522Q523 522 528 522T539 521Q511 431 462 313T350 67Q323 12 301 -32T258 -113T219 -182T181 -246Q171
-251 153 -254T114 -258Q95 -258 82 -255V-251Q124 -202 169 -144T259 -11Q229 42 197 108T137 242T84 376T44 498Q60 509 82 515T124 522Z" />
<glyph unicode="z" glyph-name="z" horiz-adv-x="503" d="M456 522Q465 516 469 503L128 32Q167 33 206 34T286 38T372 42T469 50Q467 30 458 15T437 -7H44Q40 -5 36 0T30 11L369 481Q291 476 213 473T71 466Q73 504 95 522H456V522Z" />
<glyph unicode="{" glyph-name="braceleft" horiz-adv-x="338" d="M292 833Q299 830 302 822T306 805Q289 799 275 791T251 770T234 737T228 684V491Q228 455 221 432T202 392T173 364T137 342Q183 322 204 285T225 188V-7Q225 -35 230 -53T246 -84T269 -103T298
-114Q293 -131 281 -146T254 -167Q234 -163 216 -154T183 -128T161 -88T153 -31V165Q153 203 146 229T124 271T91 297T48 312Q45 319 45 332Q45 341 48 349Q67 353 86 359T120 378T146 411T156 464V652Q156 727 186 771T292 833Z" />
<glyph unicode="|" glyph-name="bar" horiz-adv-x="289" d="M112 823Q123 832 140 838T177 844V-165Q166 -174 149 -179T112 -185V823V823Z" />
<glyph unicode="}" glyph-name="braceright" horiz-adv-x="338" d="M46 -167Q40 -164 36 -156T32 -140Q49 -133 63 -126T88 -105T104 -72T110 -18V175Q110 210 117 233T136 273T164 301T201 324Q155 343 135 380T114 478V673Q114 701 108 719T93 749T70 767T41
779Q46 796 57 811T84 833Q104 829 122 820T155 794T177 753T185 696V500Q185 462 192 437T214 394T247 368T290 353Q293 344 293 332Q293 323 290 316Q271 312 252 306T218 288T192 255T182 201V13Q182 -62 152 -106T46 -167Z" />
<glyph unicode="~" glyph-name="asciitilde" horiz-adv-x="598" d="M528 378Q537 377 544 373T555 362Q549 348 537 331T507 298T463 273T405 262Q382 262 359 267T302 287L239 316Q214 327 195 334T156 341Q127 341 106 326T68 292Q60 293 53 298T43 310Q68 350
106 377T189 404Q213 404 234 398T278 380L335 353Q374 334 395 330T437 325Q472 325 492 339T528 378Z" />
<glyph unicode="&#xa0;" glyph-name="uni00A0" horiz-adv-x="265" />
<glyph unicode="&#xa1;" glyph-name="exclamdown" horiz-adv-x="276" d="M182 -197Q154 -219 96 -219L114 315Q124 323 138 327T165 332L182 -197ZM206 465Q195 445 176 428T139 402Q121 410 102 427T72 465Q83 484 102 502T139 529Q159 521 178 503T206 465Z" />
<glyph unicode="&#xa2;" glyph-name="cent" horiz-adv-x="549" d="M499 416Q494 404 476 393T432 380Q429 395 422 412T402 445T368 471T321 486V38H336Q387 38 422 54T484 99Q489 98 493 93T500 83Q492 70 478 54T441 23T390 -3T321 -16V-132Q314 -140 302 -144T277
-148V-16Q232 -12 192 8T121 62T74 143T56 250Q56 300 72 346T118 428T188 491T277 526V633Q285 639 297 643T321 648V532H330Q377 532 409 519T461 487T490 448T499 416ZM132 280Q132 233 143 195T174 127T220 77T277 47V486Q251 483 225 470T179 431T145 369T132
280Z" />
<glyph unicode="&#xa3;" glyph-name="sterling" horiz-adv-x="596" d="M84 -7Q73 -4 63 6T51 28Q73 38 98 54T146 94T182 150T197 223Q197 252 188 284T167 351H40Q42 373 52 384T76 396H152Q144 421 139 445T133 492Q133 544 151 587T202 663T279 713T374 731Q414
731 441 722T485 698T511 668T521 640Q515 628 495 615T450 599Q447 612 441 627T421 655T388 677T336 686Q313 686 290 678T249 653T220 609T208 544Q208 512 219 473T244 396H495Q493 375 484 363T459 351H258Q264 330 268 310T272 270Q272 208 247 165T187 89Q202
99 218 106T257 113Q280 113 303 104T351 83T400 63T450 53Q488 53 509 68T547 105Q553 104 558 100T566 91Q557 74 544 57T513 25T470 2T416 -7Q388 -7 361 2T309 23T259 43T211 53Q192 53 176 48T145 35T116 16T84 -7Z" />
<glyph unicode="&#xa4;" glyph-name="currency" horiz-adv-x="616" d="M75 322Q75 375 94 419T149 495L53 606Q57 614 66 621T87 631L182 521Q212 541 248 551T324 562Q363 562 395 552T453 524L544 633Q555 631 562 624T574 608L482 499Q508 470 522 433T536
353Q536 299 518 254T465 176L571 55Q566 45 558 39T539 29L433 150Q404 130 369 120T291 109Q222 109 169 142L76 30Q65 32 56 38T43 53L138 167Q109 195 92 234T75 322ZM152 352Q152 307 164 270T197 206T249 165T317 150Q380 150 419 195T459 321Q459 368 447
405T414 468T363 507T297 521Q268 521 242 510T195 478T164 425T152 352Z" />
<glyph unicode="&#xa5;" glyph-name="yen" horiz-adv-x="670" d="M137 721Q156 677 183 622T241 512T303 406T361 319Q418 407 465 509T546 708Q560 716 576 719T608 722Q613 722 617 722T627 721Q616 692 600 657T564 584T522 505T476 425H628Q626 405 617 393T592
380H448Q432 354 416 329T383 280H618Q616 260 606 248T582 235H383V9Q367 0 346 -3T301 -7V235H58Q61 257 71 268T94 280H301Q265 330 233 381H68Q72 404 81 415T104 426H205Q163 495 126 564T59 698Q74 709 95 715T137 721Z" />
<glyph unicode="&#xa6;" glyph-name="brokenbar" horiz-adv-x="289" d="M177 411Q166 403 148 397T112 390V823Q123 831 141 837T177 844V411ZM177 -165Q166 -173 148 -178T112 -185V248Q123 256 141 262T177 268V-165Z" />
<glyph unicode="&#xa7;" glyph-name="section" horiz-adv-x="564" d="M505 293Q505 248 484 215T431 160Q454 140 464 117T474 65Q474 27 459 -6T415 -64T343 -103T244 -118Q198 -118 164 -107T106 -77T71 -36T57 10Q68 26 87 35T123 45Q125 22 134 1T161 -38T206
-65T273 -76Q336 -76 372 -47T408 32Q408 71 384 99T292 149L204 178Q130 202 96 231T62 310Q62 352 86 385T157 442Q126 462 111 487T95 547Q95 580 112 611T159 667T230 706T319 721Q364 721 395 709T446 681T475 646T486 614Q478 601 461 591T423 578Q416 618
385 647T289 677Q262 677 239 670T198 651T171 620T161 580Q161 542 185 518T264 477L350 449Q434 423 469 384T505 293ZM229 410Q219 413 210 416T193 423Q161 411 144 391T126 344Q126 306 152 284T242 242L318 218Q370 202 404 180Q421 194 430 213T440 258Q440
300 412 329T321 379L229 410Z" />
<glyph unicode="&#xa8;" glyph-name="dieresis" horiz-adv-x="388" d="M352 675Q348 668 341 660T327 645T311 631T296 621Q281 628 264 644T235 675Q247 691 263 707T296 732Q310 724 326 708T352 675ZM153 675Q149 668 142 660T128 645T112 631T97 621Q82 628
65 644T36 675Q48 691 64 707T97 732Q111 724 127 708T153 675Z" />
<glyph unicode="&#xa9;" glyph-name="copyright" horiz-adv-x="857" d="M587 485Q582 474 567 466T532 456Q530 470 523 484T504 511T472 531T426 539Q403 539 381 531T340 503T311 452T300 376Q300 329 313 294T347 235T397 199T457 187Q498 187 525 200T572
237Q577 236 582 231T589 221Q582 210 570 196T538 168T491 147T429 138Q390 138 355 152T292 194T249 261T233 351Q233 397 250 438T296 510T365 559T452 577Q489 577 515 567T557 541T580 511T587 485ZM64 353Q64 430 94 497T175 614T293 693T437 722Q518 722
584 695T696 620T768 506T793 362Q793 286 764 219T684 102T566 22T422 -8Q342 -8 276 18T163 92T90 206T64 353ZM114 356Q114 287 137 228T201 125T300 56T427 31Q495 31 553 56T653 126T719 230T743 356Q743 426 720 486T656 590T558 658T432 683Q363 683 305
658T204 589T138 485T114 356Z" />
<glyph unicode="&#xaa;" glyph-name="ordfeminine" horiz-adv-x="399" d="M345 496Q340 488 326 481T298 473Q283 475 273 488T262 522Q257 513 247 504T224 486T193 473T155 467Q111 467 84 488T57 549Q57 587 89 613T191 653L259 666V685Q259 729 243 750T188
771Q164 771 144 760T123 724Q123 712 130 705Q126 697 109 690T77 682Q65 691 65 710Q65 728 77 744T109 773T154 793T208 801Q265 801 289 773T314 700V547Q314 521 322 511T344 499L345 496ZM179 502Q205 502 227 518T259 558V638L181 624Q149 618 133 602T117
562Q117 532 134 517T179 502Z" />
<glyph unicode="&#xab;" glyph-name="guillemotleft" horiz-adv-x="584" d="M518 402Q500 389 479 374T435 342T390 308T349 275Q364 255 389 229T441 177T495 127T539 91Q534 77 521 63T492 42Q474 54 444 80T384 137T327 195T290 242Q290 252 293 260Q305 278
335 308T401 370T473 431T532 477Q533 473 533 463Q533 447 529 430T518 402ZM268 402Q250 389 229 374T185 342T140 308T99 275Q114 255 139 229T191 177T245 127T289 91Q284 77 271 63T242 42Q224 54 194 80T134 137T77 195T40 242Q40 252 43 260Q55 278 85 308T151
370T223 431T282 477Q283 473 283 463Q283 447 279 430T268 402Z" />
<glyph unicode="&#xac;" glyph-name="logicalnot" horiz-adv-x="570" d="M516 170Q508 162 493 157T460 150V306H43Q46 332 57 347T83 363H516V170Z" />
<glyph unicode="&#xad;" glyph-name="uni00AD" horiz-adv-x="385" d="M48 272Q50 293 60 313T84 334H337Q335 308 325 290T301 272H48Z" />
<glyph unicode="&#xae;" glyph-name="registered" horiz-adv-x="639" d="M58 509Q58 564 79 612T138 695T224 751T327 772Q385 772 431 754T511 701T562 620T580 515Q580 461 559 413T502 329T417 272T314 251Q258 251 211 270T130 323T77 404T58 509ZM101 511Q101
461 116 420T159 348T228 301T318 284Q366 284 406 301T476 349T522 421T538 511Q538 562 524 603T482 675T414 721T322 738Q272 738 232 721T162 674T117 602T101 511ZM323 465Q316 476 308 480T284 485H275V384Q266 378 251 376T224 373V642Q240 648 265 653T319
659Q375 659 400 635T425 580Q425 548 404 527T348 494Q356 492 366 480L414 413Q428 393 442 382Q434 377 419 375T391 373Q379 379 365 401L323 465ZM305 632Q287 632 275 629V515Q281 514 287 514T302 513Q334 513 352 527T370 570Q370 599 351 615T305 632Z"
/>
<glyph unicode="&#xaf;" glyph-name="overscore" horiz-adv-x="334" d="M15 646Q17 667 27 683T49 700H312Q310 678 301 662T277 646H15Z" />
<glyph unicode="&#xb0;" glyph-name="degree" horiz-adv-x="369" d="M103 625Q103 569 128 541T192 512Q225 512 245 535T266 608Q266 659 243 688T181 717Q150 717 127 694T103 625ZM43 606Q43 636 54 662T86 707T135 737T197 748Q230 748 254 738T294 712T318
673T326 626Q326 594 315 568T285 522T238 492T177 481Q149 481 125 489T82 512T54 551T43 606Z" />
<glyph unicode="&#xb1;" glyph-name="plusminus" horiz-adv-x="587" d="M325 359V151Q301 133 258 133V359H52Q55 385 66 400T92 416H258V610Q270 619 287 624T325 630V416H535Q533 387 522 373T495 359H325ZM59 -7Q62 19 73 34T99 50H532Q530 21 519 7T492 -7H59Z" />
<glyph unicode="&#xb2;" glyph-name="two.superior" horiz-adv-x="398" d="M59 415Q56 417 53 423T49 434L148 518Q182 547 206 571T246 617T269 659T277 703Q277 742 258 766T198 790Q169 790 147 775T125 729Q125 709 138 696Q132 688 116 681T83 673Q77 676
70 687T63 715Q63 739 75 759T108 794T155 817T211 825Q245 825 270 817T311 793T334 759T342 718Q342 669 308 622T202 515L136 460H354Q352 442 342 429T317 415H59V415Z" />
<glyph unicode="&#xb3;" glyph-name="three.superior" horiz-adv-x="404" d="M139 710Q131 702 115 697T82 691Q77 694 72 703T66 727Q66 746 77 764T109 795T157 817T214 825Q246 825 269 817T308 797T331 768T339 734Q339 696 315 671T255 632Q305 626 330 601T356
539Q356 512 344 489T310 447T256 419T184 408Q123 408 89 435T54 506Q54 517 57 523Q67 531 82 535T111 540Q110 537 110 534T110 527Q110 492 135 467T202 442Q248 442 269 464T291 521Q291 546 283 562T261 589T229 604T188 609Q183 609 179 609T169 608Q169
616 172 623T180 636Q225 642 251 660T277 719Q277 752 257 771T199 791Q168 791 148 778T127 741Q127 729 131 722T139 710Z" />
<glyph unicode="&#xb4;" glyph-name="acute" horiz-adv-x="341" d="M287 779Q273 755 250 729T200 677T147 632T99 601Q90 601 82 603T69 611Q104 644 138 686T199 769Q222 782 259 782Q275 782 287 779Z" />
<glyph unicode="&#xb5;" glyph-name="uni00B5" horiz-adv-x="620" d="M585 33Q579 21 559 9T521 -5Q497 -3 481 21T462 81Q453 65 437 48T399 16T349 -7T287 -17Q249 -17 220 -7T171 21V-243Q157 -251 135 -254T92 -258V505Q109 514 129 518T171 522V130Q189 89
227 65T319 40Q365 40 403 65T458 130V505Q475 514 495 518T537 522V115Q537 72 549 57T584 37L585 33Z" />
<glyph unicode="&#xb6;" glyph-name="paragraph" horiz-adv-x="644" d="M585 721Q591 718 594 710T598 693Q581 690 564 683T532 662T510 624T501 561V114Q501 16 472 -50T395 -159T286 -223T161 -254Q151 -256 142 -257T122 -258Q86 -258 60 -251T15 -233T-14
-207T-29 -178Q-23 -161 -4 -144T39 -122Q42 -137 50 -152T72 -178T105 -197T149 -205Q170 -205 189 -198T224 -174T248 -130T257 -63V351H253Q223 351 193 361T138 393T97 449T81 530Q81 572 97 607T139 667T199 707T267 721H585ZM429 529Q429 589 449 625T495
679H386Q362 664 346 636T329 557V1Q329 -65 312 -112T266 -192Q303 -177 333 -155T384 -102T417 -29T429 67V529Z" />
<glyph unicode="&#xb7;" glyph-name="middot" horiz-adv-x="224" d="M179 277Q168 257 149 240T112 214Q94 222 75 239T45 277Q56 296 75 314T112 341Q132 333 151 315T179 277Z" />
<glyph unicode="&#xb8;" glyph-name="cedilla" horiz-adv-x="204" d="M40 -112Q34 -108 34 -99L112 6H156L94 -71Q151 -73 175 -94T199 -149Q199 -196 160 -223T51 -251Q36 -251 24 -249T9 -245Q5 -239 4 -230T2 -213Q11 -215 23 -216T46 -217Q90 -217 113 -204T137
-163Q137 -109 67 -109Q59 -109 52 -109T40 -112Z" />
<glyph unicode="&#xb9;" glyph-name="one.superior" horiz-adv-x="317" d="M200 821Q216 821 225 810V429Q214 421 199 418T168 415V754Q147 732 115 711T55 678Q44 697 44 723Q81 736 124 760T200 821Z" />
<glyph unicode="&#xba;" glyph-name="ordmasculine" horiz-adv-x="416" d="M117 648Q117 610 125 582T146 536T178 508T216 499Q256 499 278 529T301 625Q301 688 277 728T206 769Q191 769 175 763T147 743T126 706T117 648ZM54 628Q54 667 67 699T103 753T156
788T220 800Q258 800 285 789T329 757T355 708T364 647Q364 609 354 577T322 520T270 482T199 468Q171 468 145 478T99 508T66 558T54 628Z" />
<glyph unicode="&#xbb;" glyph-name="guillemotright" horiz-adv-x="584" d="M66 116Q84 128 105 143T148 175T193 209T235 243Q220 263 195 289T142 341T88 390T45 427Q50 441 63 455T92 476Q110 464 140 438T200 381T257 323T294 276Q294 265 291 258Q279 240
249 210T183 148T111 87T52 41Q51 46 51 56Q51 72 55 88T66 116ZM316 116Q334 128 355 143T398 175T443 209T485 243Q470 263 445 289T392 341T338 390T295 427Q300 441 313 455T342 476Q360 464 390 438T450 381T507 323T544 276Q544 265 541 258Q529 240 499
210T433 148T361 87T302 41Q301 46 301 56Q301 72 305 88T316 116Z" />
<glyph unicode="&#xbc;" glyph-name="onequarter" horiz-adv-x="834" d="M196 -3Q182 -10 158 -10Q143 -10 134 -7L582 716Q597 724 619 724Q634 724 643 721L196 -3ZM469 91Q466 93 462 98T458 109Q518 177 554 250T601 393Q611 400 628 405T666 410Q659 375
644 338T610 264T567 194T518 133H679V243Q688 252 705 259T736 268V133H811Q809 117 800 104T776 91H736V-1Q728 -7 712 -10T679 -14V91H469ZM200 721Q216 721 225 710V329Q214 321 199 318T168 315V654Q147 632 115 611T55 578Q44 597 44 623Q81 636 124 660T200
721Z" />
<glyph unicode="&#xbd;" glyph-name="onehalf" horiz-adv-x="842" d="M503 -7Q500 -5 497 1T493 12L592 96Q626 125 650 149T690 195T713 237T721 281Q721 320 702 344T642 368Q613 368 591 353T569 307Q569 287 582 274Q576 266 560 259T527 251Q521 254 514
265T507 293Q507 317 519 337T552 372T599 395T655 403Q689 403 714 395T755 371T778 337T786 296Q786 247 752 200T646 93L580 38H798Q796 20 786 7T761 -7H503ZM196 -3Q182 -10 158 -10Q143 -10 134 -7L582 716Q597 724 619 724Q634 724 643 721L196 -3ZM200
721Q216 721 225 710V329Q214 321 199 318T168 315V654Q147 632 115 611T55 578Q44 597 44 623Q81 636 124 660T200 721Z" />
<glyph unicode="&#xbe;" glyph-name="threequarters" horiz-adv-x="900" d="M139 610Q131 602 115 597T82 591Q77 594 72 603T66 627Q66 646 77 664T109 695T157 717T214 725Q246 725 269 717T308 697T331 668T339 634Q339 596 315 571T255 532Q305 526 330 501T356
439Q356 412 344 389T310 347T256 319T184 308Q123 308 89 335T54 406Q54 417 57 423Q67 431 82 435T111 440Q110 437 110 434T110 427Q110 392 135 367T202 342Q248 342 269 364T291 421Q291 446 283 462T261 489T229 504T188 509Q183 509 179 509T169 508Q169
516 172 523T180 536Q225 542 251 560T277 619Q277 652 257 671T199 691Q168 691 148 678T127 641Q127 629 131 622T139 610ZM262 -3Q248 -10 224 -10Q209 -10 200 -7L648 716Q663 724 685 724Q700 724 709 721L262 -3ZM535 91Q532 93 528 98T524 109Q584 177 620
250T667 393Q677 400 694 405T732 410Q725 375 710 338T676 264T633 194T584 133H745V243Q754 252 771 259T802 268V133H877Q875 117 866 104T842 91H802V-1Q794 -7 778 -10T745 -14V91H535Z" />
<glyph unicode="&#xbf;" glyph-name="questiondown" horiz-adv-x="488" d="M352 -7Q363 9 384 18T425 28Q434 22 449 1T464 -55Q464 -90 446 -122T395 -178T319 -217T227 -232Q177 -232 140 -219T79 -183T42 -133T30 -74Q30 -39 42 -11T73 42T119 87T173 132Q215
166 231 191T247 246Q247 264 239 276T222 296Q232 310 253 320T295 330Q304 323 314 309T325 272Q325 254 320 238T302 204T267 164T209 111Q164 72 141 37T117 -46Q117 -113 154 -150T260 -188Q284 -188 306 -181T346 -160T374 -126T385 -80Q385 -54 374 -36T352
-7ZM332 465Q321 445 302 428T265 402Q247 410 228 427T198 465Q209 484 228 502T265 529Q285 521 304 503T332 465Z" />
<glyph unicode="&#xc0;" glyph-name="Agrave" horiz-adv-x="679" d="M22 -7Q55 77 92 172T166 362T239 545T303 705Q320 713 340 717T380 721L645 4Q636 -1 620 -4T582 -8Q577 -8 573 -8T563 -7L485 205H165Q130 98 103 1Q94 -4 80 -6T50 -9Q41 -9 34 -9T22 -7ZM324
647Q289 556 253 456T181 253H468L324 647ZM250 956Q263 940 280 922T316 884T354 847T393 812Q390 808 382 805T365 802Q341 811 314 826T259 859T208 899T166 940Q179 948 196 952T232 957Q237 957 241 957T250 956Z" />
<glyph unicode="&#xc1;" glyph-name="Aacute" horiz-adv-x="679" d="M22 -7Q55 77 92 172T166 362T239 545T303 705Q320 713 340 717T380 721L645 4Q636 -1 620 -4T582 -8Q577 -8 573 -8T563 -7L485 205H165Q130 98 103 1Q94 -4 80 -6T50 -9Q41 -9 34 -9T22 -7ZM324
647Q289 556 253 456T181 253H468L324 647ZM533 955Q516 932 490 908T435 863T378 826T327 801Q320 801 312 804T302 811Q319 826 337 843T374 878T408 914T438 948Q448 954 464 956T498 959Q509 959 518 958T533 955Z" />
<glyph unicode="&#xc2;" glyph-name="Acircumflex" horiz-adv-x="679" d="M22 -7Q55 77 92 172T166 362T239 545T303 705Q320 713 340 717T380 721L645 4Q636 -1 620 -4T582 -8Q577 -8 573 -8T563 -7L485 205H165Q130 98 103 1Q94 -4 80 -6T50 -9Q41 -9 34 -9T22
-7ZM324 647Q289 556 253 456T181 253H468L324 647ZM367 966Q395 931 432 890T505 814Q500 809 491 806T474 803Q458 810 441 821T407 845T374 871T345 896Q332 884 316 871T282 844T247 820T215 802Q207 802 198 804T184 813Q221 847 256 884T322 957Q330 962
344 964T367 966Z" />
<glyph unicode="&#xc3;" glyph-name="Atilde" horiz-adv-x="679" d="M22 -7Q55 77 92 172T166 362T239 545T303 705Q320 713 340 717T380 721L645 4Q636 -1 620 -4T582 -8Q577 -8 573 -8T563 -7L485 205H165Q130 98 103 1Q94 -4 80 -6T50 -9Q41 -9 34 -9T22 -7ZM324
647Q289 556 253 456T181 253H468L324 647ZM210 807Q202 808 195 811T184 820Q200 868 222 893T278 918Q291 918 303 915T328 906L379 888Q396 882 406 879T425 876Q442 876 455 888T476 929Q483 929 490 926T502 916Q489 862 468 840T415 818Q401 818 386 822T355
832L300 851Q289 855 280 858T262 861Q244 861 232 847T210 807Z" />
<glyph unicode="&#xc4;" glyph-name="Adieresis" horiz-adv-x="679" d="M22 -7Q55 77 92 172T166 362T239 545T303 705Q320 713 340 717T380 721L645 4Q636 -1 620 -4T582 -8Q577 -8 573 -8T563 -7L485 205H165Q130 98 103 1Q94 -4 80 -6T50 -9Q41 -9 34 -9T22
-7ZM324 647Q289 556 253 456T181 253H468L324 647ZM302 861Q298 854 291 846T277 831T261 817T246 807Q231 814 214 830T185 861Q197 877 213 893T246 918Q260 910 276 894T302 861ZM501 861Q497 854 490 846T476 831T460 817T445 807Q430 814 413 830T384 861Q396
877 412 893T445 918Q459 910 475 894T501 861Z" />
<glyph unicode="&#xc5;" glyph-name="Aring" horiz-adv-x="679" d="M22 -7Q55 77 92 172T166 362T239 545T303 705Q320 713 340 717T380 721L645 4Q636 -1 620 -4T582 -8Q577 -8 573 -8T563 -7L485 205H165Q130 98 103 1Q94 -4 80 -6T50 -9Q41 -9 34 -9T22 -7ZM324
647Q289 556 253 456T181 253H468L324 647ZM235 880Q235 900 244 917T270 946T307 966T353 973Q404 973 427 950T450 895Q450 874 441 857T417 827T380 809T336 802Q295 802 265 820T235 880ZM291 894Q291 859 308 843T346 827Q366 827 379 840T393 883Q393 912
380 930T340 949Q323 949 307 936T291 894Z" />
<glyph unicode="&#xc6;" glyph-name="AE" horiz-adv-x="1042" d="M524 639Q458 549 393 451T268 253H524V639ZM606 37Q694 39 789 43T990 55Q987 31 978 16T958 -7H524V205H239Q207 152 178 101T122 1Q111 -4 93 -6T58 -9Q49 -9 42 -9T28 -7Q59 43 98 102T180
224T268 351T358 477T445 595T524 697Q540 706 561 710T606 716Q635 717 683 717T786 719T893 720T982 721Q980 702 971 686T949 661Q914 662 871 663T782 665T691 669T606 673V379L923 385Q921 367 913 352T895 335Q822 336 750 336T606 339V37Z" />
<glyph unicode="&#xc7;" glyph-name="Ccedilla" horiz-adv-x="705" d="M647 582Q639 567 620 554T574 537Q569 561 558 586T525 633T471 668T391 682Q349 682 307 666T231 613T176 520T154 380Q154 299 176 236T236 131T324 66T433 44Q500 44 546 66T625 126Q631
124 639 118T649 106Q641 93 625 74T582 36T516 2T422 -17L376 -74Q433 -76 457 -97T481 -152Q481 -199 442 -226T333 -254Q318 -254 306 -252T291 -248Q287 -242 286 -233T284 -216Q293 -218 305 -219T328 -220Q372 -220 395 -207T419 -166Q419 -112 349 -112Q341
-112 334 -112T322 -115Q316 -111 316 -102L378 -18Q318 -16 262 8T163 77T94 189T68 346Q68 426 97 496T175 619T290 701T430 731Q490 731 531 714T598 673T635 624T647 582Z" />
<glyph unicode="&#xc8;" glyph-name="Egrave" horiz-adv-x="628" d="M110 -7V695Q144 714 192 716Q221 717 269 717T372 719T479 720T568 721Q566 700 557 683T535 661Q501 661 458 662T369 665T277 669T192 673V379L509 385Q507 367 499 352T481 335Q408 336
336 336T192 339V37Q280 39 375 43T576 55Q573 32 564 16T544 -7H110ZM315 956Q328 940 345 922T381 884T419 847T458 812Q455 808 447 805T430 802Q406 811 379 826T324 859T273 899T231 940Q244 948 261 952T297 957Q302 957 306 957T315 956Z" />
<glyph unicode="&#xc9;" glyph-name="Eacute" horiz-adv-x="628" d="M110 -7V695Q144 714 192 716Q221 717 269 717T372 719T479 720T568 721Q566 700 557 683T535 661Q501 661 458 662T369 665T277 669T192 673V379L509 385Q507 367 499 352T481 335Q408 336
336 336T192 339V37Q280 39 375 43T576 55Q573 32 564 16T544 -7H110ZM485 955Q468 932 442 908T387 863T330 826T279 801Q272 801 264 804T254 811Q271 826 289 843T326 878T360 914T390 948Q400 954 416 956T450 959Q461 959 470 958T485 955Z" />
<glyph unicode="&#xca;" glyph-name="Ecircumflex" horiz-adv-x="628" d="M110 -7V695Q144 714 192 716Q221 717 269 717T372 719T479 720T568 721Q566 700 557 683T535 661Q501 661 458 662T369 665T277 669T192 673V379L509 385Q507 367 499 352T481 335Q408
336 336 336T192 339V37Q280 39 375 43T576 55Q573 32 564 16T544 -7H110ZM380 967Q408 932 445 891T518 815Q513 810 504 807T487 804Q471 811 454 822T420 846T387 872T358 897Q345 885 329 872T295 845T260 821T228 803Q220 803 211 805T197 814Q234 848 269
885T335 958Q343 963 357 965T380 967Z" />
<glyph unicode="&#xcb;" glyph-name="Edieresis" horiz-adv-x="628" d="M110 -7V695Q144 714 192 716Q221 717 269 717T372 719T479 720T568 721Q566 700 557 683T535 661Q501 661 458 662T369 665T277 669T192 673V379L509 385Q507 367 499 352T481 335Q408 336
336 336T192 339V37Q280 39 375 43T576 55Q573 32 564 16T544 -7H110ZM305 861Q301 854 294 846T280 831T264 817T249 807Q234 814 217 830T188 861Q200 877 216 893T249 918Q263 910 279 894T305 861ZM504 861Q500 854 493 846T479 831T463 817T448 807Q433 814
416 830T387 861Q399 877 415 893T448 918Q462 910 478 894T504 861Z" />
<glyph unicode="&#xcc;" glyph-name="Igrave" horiz-adv-x="304" d="M55 956Q68 940 85 922T121 884T159 847T198 812Q195 808 187 805T170 802Q146 811 119 826T64 859T13 899T-29 940Q-16 948 1 952T37 957Q42 957 46 957T55 956ZM193 9Q177 0 156 -3T111 -7V703Q145
721 193 721V9Z" />
<glyph unicode="&#xcd;" glyph-name="Iacute" horiz-adv-x="304" d="M339 955Q322 932 296 908T241 863T184 826T133 801Q126 801 118 804T108 811Q125 826 143 843T180 878T214 914T244 948Q254 954 270 956T304 959Q315 959 324 958T339 955ZM193 9Q177 0 156
-3T111 -7V703Q145 721 193 721V9Z" />
<glyph unicode="&#xce;" glyph-name="Icircumflex" horiz-adv-x="304" d="M193 9Q177 0 156 -3T111 -7V703Q145 721 193 721V9ZM178 967Q206 932 243 891T316 815Q311 810 302 807T285 804Q269 811 252 822T218 846T185 872T156 897Q143 885 127 872T93 845T58
821T26 803Q18 803 9 805T-5 814Q32 848 67 885T133 958Q141 963 155 965T178 967Z" />
<glyph unicode="&#xcf;" glyph-name="Idieresis" horiz-adv-x="304" d="M310 861Q306 854 299 846T285 831T269 817T254 807Q239 814 222 830T193 861Q205 877 221 893T254 918Q268 910 284 894T310 861ZM111 861Q107 854 100 846T86 831T70 817T55 807Q40 814
23 830T-6 861Q6 877 22 893T55 918Q69 910 85 894T111 861ZM193 9Q177 0 156 -3T111 -7V703Q145 721 193 721V9Z" />
<glyph unicode="&#xd0;" glyph-name="Eth" horiz-adv-x="785" d="M124 338H18Q21 358 31 370T52 383H124V695Q172 711 229 721T362 731Q452 731 519 704T630 630T697 522T719 391Q719 293 688 217T601 89T467 9T293 -18Q252 -18 207 -14T124 -2V338ZM327 686Q288
686 259 684T206 677V383H434Q432 365 422 352T400 338H206V50Q231 42 269 38T347 33Q408 33 459 52T549 110T608 211T630 357Q630 425 612 485T557 589T463 660T327 686Z" />
<glyph unicode="&#xd1;" glyph-name="Ntilde" horiz-adv-x="773" d="M660 3Q654 -2 642 -4T621 -7L157 630Q158 552 159 476T162 324T166 171T173 11Q162 3 140 -2T98 -7Q100 80 102 162T106 330T110 507T115 703Q132 711 153 716T196 721L615 141Q613 289 611
432T603 702Q620 712 640 716T678 721Q673 561 669 379T660 3ZM282 803Q274 804 267 807T256 816Q272 864 294 889T350 914Q363 914 375 911T400 902L451 884Q468 878 478 875T497 872Q514 872 527 884T548 925Q555 925 562 922T574 912Q561 858 540 836T487 814Q473
814 458 818T427 828L372 847Q361 851 352 854T334 857Q316 857 304 843T282 803Z" />
<glyph unicode="&#xd2;" glyph-name="Ograve" horiz-adv-x="820" d="M353 956Q366 940 383 922T419 884T457 847T496 812Q493 808 485 805T468 802Q444 811 417 826T362 859T311 899T269 940Q282 948 299 952T335 957Q340 957 344 957T353 956ZM157 379Q157 294
178 229T236 120T320 52T423 29Q538 29 601 108T665 345Q665 422 646 484T593 591T510 660T401 684Q353 684 309 666T231 611T177 516T157 379ZM68 347Q68 432 97 502T176 624T291 703T430 731Q509 731 569 704T671 629T733 517T754 377Q754 294 730 222T660 97T548
13T397 -18Q330 -18 271 7T166 79T95 194T68 347Z" />
<glyph unicode="&#xd3;" glyph-name="Oacute" horiz-adv-x="820" d="M558 955Q541 932 515 908T460 863T403 826T352 801Q345 801 337 804T327 811Q344 826 362 843T399 878T433 914T463 948Q473 954 489 956T523 959Q534 959 543 958T558 955ZM157 379Q157 294
178 229T236 120T320 52T423 29Q538 29 601 108T665 345Q665 422 646 484T593 591T510 660T401 684Q353 684 309 666T231 611T177 516T157 379ZM68 347Q68 432 97 502T176 624T291 703T430 731Q509 731 569 704T671 629T733 517T754 377Q754 294 730 222T660 97T548
13T397 -18Q330 -18 271 7T166 79T95 194T68 347Z" />
<glyph unicode="&#xd4;" glyph-name="Ocircumflex" horiz-adv-x="820" d="M68 347Q68 432 97 502T176 624T291 703T430 731Q509 731 569 704T671 629T733 517T754 377Q754 294 730 222T660 97T548 13T397 -18Q330 -18 271 7T166 79T95 194T68 347ZM157 379Q157
294 178 229T236 120T320 52T423 29Q538 29 601 108T665 345Q665 422 646 484T593 591T510 660T401 684Q353 684 309 666T231 611T177 516T157 379ZM436 966Q464 931 501 890T574 814Q569 809 560 806T543 803Q527 810 510 821T476 845T443 871T414 896Q401 884
385 871T351 844T316 820T284 802Q276 802 267 804T253 813Q290 847 325 884T391 957Q399 962 413 964T436 966Z" />
<glyph unicode="&#xd5;" glyph-name="Otilde" horiz-adv-x="820" d="M285 807Q277 808 270 811T259 820Q275 868 297 893T353 918Q366 918 378 915T403 906L454 888Q471 882 481 879T500 876Q517 876 530 888T551 929Q558 929 565 926T577 916Q564 862 543 840T490
818Q476 818 461 822T430 832L375 851Q364 855 355 858T337 861Q319 861 307 847T285 807ZM157 379Q157 294 178 229T236 120T320 52T423 29Q538 29 601 108T665 345Q665 422 646 484T593 591T510 660T401 684Q353 684 309 666T231 611T177 516T157 379ZM68 347Q68
432 97 502T176 624T291 703T430 731Q509 731 569 704T671 629T733 517T754 377Q754 294 730 222T660 97T548 13T397 -18Q330 -18 271 7T166 79T95 194T68 347Z" />
<glyph unicode="&#xd6;" glyph-name="Odieresis" horiz-adv-x="820" d="M157 379Q157 294 178 229T236 120T320 52T423 29Q538 29 601 108T665 345Q665 422 646 484T593 591T510 660T401 684Q353 684 309 666T231 611T177 516T157 379ZM68 347Q68 432 97 502T176
624T291 703T430 731Q509 731 569 704T671 629T733 517T754 377Q754 294 730 222T660 97T548 13T397 -18Q330 -18 271 7T166 79T95 194T68 347ZM577 861Q573 854 566 846T552 831T536 817T521 807Q506 814 489 830T460 861Q472 877 488 893T521 918Q535 910 551
894T577 861ZM378 861Q374 854 367 846T353 831T337 817T322 807Q307 814 290 830T261 861Q273 877 289 893T322 918Q336 910 352 894T378 861Z" />
<glyph unicode="&#xd7;" glyph-name="multiply" horiz-adv-x="563" d="M77 531Q104 552 144 552L288 373L427 553Q445 553 463 550T492 538L325 337L496 131Q484 121 465 117T428 113L280 299L133 113Q125 111 111 111Q97 111 84 115T64 126L241 335L77 531V531Z" />
<glyph unicode="&#xd8;" glyph-name="Oslash" horiz-adv-x="820" d="M68 347Q68 432 97 502T176 624T291 703T430 731Q485 731 530 718T613 679L658 746Q669 744 677 739T690 726L643 657Q698 609 726 537T754 377Q754 294 730 222T660 97T548 13T397 -18Q302
-18 225 31L169 -53Q161 -52 151 -46T136 -32L193 53Q136 101 102 175T68 347ZM157 379Q157 293 178 228T237 118L571 616Q538 648 495 666T401 684Q353 684 309 666T231 611T177 516T157 379ZM665 345Q665 420 647 480T596 586L264 89Q297 59 337 44T423 29Q538
29 601 108T665 345Z" />
<glyph unicode="&#xd9;" glyph-name="Ugrave" horiz-adv-x="763" d="M189 274Q189 210 204 166T248 93T316 53T403 40Q466 40 505 61T566 123T597 220T605 349Q605 426 603 516T596 706Q613 714 632 717T671 721Q669 658 669 602T668 490T665 381T659 268Q653
187 628 133T565 45T477 -3T369 -17Q316 -17 269 -2T185 44T128 125T107 244V703Q141 721 189 721V274ZM352 956Q365 940 382 922T418 884T456 847T495 812Q492 808 484 805T467 802Q443 811 416 826T361 859T310 899T268 940Q281 948 298 952T334 957Q339 957
343 957T352 956Z" />
<glyph unicode="&#xda;" glyph-name="Uacute" horiz-adv-x="763" d="M189 274Q189 210 204 166T248 93T316 53T403 40Q466 40 505 61T566 123T597 220T605 349Q605 426 603 516T596 706Q613 714 632 717T671 721Q669 658 669 602T668 490T665 381T659 268Q653
187 628 133T565 45T477 -3T369 -17Q316 -17 269 -2T185 44T128 125T107 244V703Q141 721 189 721V274ZM551 955Q534 932 508 908T453 863T396 826T345 801Q338 801 330 804T320 811Q337 826 355 843T392 878T426 914T456 948Q466 954 482 956T516 959Q527 959
536 958T551 955Z" />
<glyph unicode="&#xdb;" glyph-name="Ucircumflex" horiz-adv-x="763" d="M189 274Q189 210 204 166T248 93T316 53T403 40Q466 40 505 61T566 123T597 220T605 349Q605 426 603 516T596 706Q613 714 632 717T671 721Q669 658 669 602T668 490T665 381T659 268Q653
187 628 133T565 45T477 -3T369 -17Q316 -17 269 -2T185 44T128 125T107 244V703Q141 721 189 721V274ZM430 966Q458 931 495 890T568 814Q563 809 554 806T537 803Q521 810 504 821T470 845T437 871T408 896Q395 884 379 871T345 844T310 820T278 802Q270 802
261 804T247 813Q284 847 319 884T385 957Q393 962 407 964T430 966Z" />
<glyph unicode="&#xdc;" glyph-name="Udieresis" horiz-adv-x="763" d="M189 274Q189 210 204 166T248 93T316 53T403 40Q466 40 505 61T566 123T597 220T605 349Q605 426 603 516T596 706Q613 714 632 717T671 721Q669 658 669 602T668 490T665 381T659 268Q653
187 628 133T565 45T477 -3T369 -17Q316 -17 269 -2T185 44T128 125T107 244V703Q141 721 189 721V274ZM563 861Q559 854 552 846T538 831T522 817T507 807Q492 814 475 830T446 861Q458 877 474 893T507 918Q521 910 537 894T563 861ZM364 861Q360 854 353 846T339
831T323 817T308 807Q293 814 276 830T247 861Q259 877 275 893T308 918Q322 910 338 894T364 861Z" />
<glyph unicode="&#xdd;" glyph-name="Yacute" horiz-adv-x="669" d="M132 721Q174 628 233 524T358 322Q418 412 469 509T558 710Q572 717 586 719T617 722Q630 722 638 720Q621 677 592 623T529 510T457 396T385 295V9Q369 0 348 -3T303 -7V273Q229 377 166 482T51
698Q65 708 86 714T132 721ZM492 945Q475 922 449 898T394 853T337 816T286 791Q279 791 271 794T261 801Q278 816 296 833T333 868T367 904T397 938Q407 944 423 946T457 949Q468 949 477 948T492 945Z" />
<glyph unicode="&#xde;" glyph-name="Thorn" horiz-adv-x="647" d="M174 564Q209 577 250 587T343 597Q415 597 464 579T543 531T586 465T599 392Q599 330 575 283T509 203T410 155T284 138Q253 138 225 142T174 151V9Q158 0 137 -3T92 -7V703Q126 721 174 721V564ZM315
550Q276 550 237 540T174 519V219Q200 204 235 194T320 184Q407 184 458 230T509 360Q509 400 498 435T464 495T403 535T315 550Z" />
<glyph unicode="&#xdf;" glyph-name="germandbls" horiz-adv-x="700" d="M94 478Q94 548 120 603T188 696T285 755T397 776Q448 776 483 765T539 734T569 691T579 643Q579 616 570 595T545 554T505 517T453 479L433 465Q405 445 391 429T376 389Q376 363 395 350T452
323L512 303Q585 279 615 244T646 156Q646 123 631 92T588 36T522 -2T438 -17Q393 -17 362 -5T311 24T282 61T272 96Q280 109 297 121T334 135Q337 114 346 95T372 62T413 39T468 30Q522 30 549 56T577 123Q577 161 556 189T476 237L418 257Q362 276 334 298T305
362Q305 380 311 395T330 425T363 458T412 499L437 519Q462 539 481 565T501 624Q501 642 496 660T475 695T434 721T368 731Q333 731 299 719T236 681T191 617T173 527V8Q159 0 137 -3T94 -7V478Z" />
<glyph unicode="&#xe0;" glyph-name="agrave" horiz-adv-x="568" d="M533 37Q530 32 524 25T509 12T492 0T474 -7Q442 -5 420 17T396 77Q388 62 372 46T334 16T282 -6T219 -15Q148 -15 107 21T65 117Q65 179 112 221T273 283L392 304V343Q392 415 359 453T259
491Q218 491 190 471T161 410Q161 392 173 378Q164 366 144 356T103 344Q98 349 91 359T84 386Q84 417 102 444T149 490T216 521T295 532Q391 532 431 489T471 367V116Q471 75 489 60T531 41L533 37ZM251 38Q303 38 339 62T392 124V268L258 244Q204 234 176 210T147
141Q147 91 177 65T251 38ZM348 602Q328 611 302 630T251 672T202 721T164 768Q186 782 225 782Q236 782 242 780Q268 738 305 694T380 612Q376 607 367 605T348 602Z" />
<glyph unicode="&#xe1;" glyph-name="aacute" horiz-adv-x="568" d="M533 37Q530 32 524 25T509 12T492 0T474 -7Q442 -5 420 17T396 77Q388 62 372 46T334 16T282 -6T219 -15Q148 -15 107 21T65 117Q65 179 112 221T273 283L392 304V343Q392 415 359 453T259
491Q218 491 190 471T161 410Q161 392 173 378Q164 366 144 356T103 344Q98 349 91 359T84 386Q84 417 102 444T149 490T216 521T295 532Q391 532 431 489T471 367V116Q471 75 489 60T531 41L533 37ZM251 38Q303 38 339 62T392 124V268L258 244Q204 234 176 210T147
141Q147 91 177 65T251 38ZM427 779Q413 755 390 729T340 677T287 632T239 601Q230 601 222 603T209 611Q244 644 278 686T339 769Q362 782 399 782Q415 782 427 779Z" />
<glyph unicode="&#xe2;" glyph-name="acircumflex" horiz-adv-x="568" d="M533 37Q530 32 524 25T509 12T492 0T474 -7Q442 -5 420 17T396 77Q388 62 372 46T334 16T282 -6T219 -15Q148 -15 107 21T65 117Q65 179 112 221T273 283L392 304V343Q392 415 359 453T259
491Q218 491 190 471T161 410Q161 392 173 378Q164 366 144 356T103 344Q98 349 91 359T84 386Q84 417 102 444T149 490T216 521T295 532Q391 532 431 489T471 367V116Q471 75 489 60T531 41L533 37ZM251 38Q303 38 339 62T392 124V268L258 244Q204 234 176 210T147
141Q147 91 177 65T251 38ZM322 784Q350 742 384 696T449 613Q444 608 435 606T418 603Q405 612 390 625T358 652T327 681T298 708Q285 694 270 679T239 650T208 624T179 603Q171 603 162 605T148 613Q183 651 215 691T277 773Q286 778 298 781T322 784Z" />
<glyph unicode="&#xe3;" glyph-name="atilde" horiz-adv-x="568" d="M533 37Q530 32 524 25T509 12T492 0T474 -7Q442 -5 420 17T396 77Q388 62 372 46T334 16T282 -6T219 -15Q148 -15 107 21T65 117Q65 179 112 221T273 283L392 304V343Q392 415 359 453T259
491Q218 491 190 471T161 410Q161 392 173 378Q164 366 144 356T103 344Q98 349 91 359T84 386Q84 417 102 444T149 490T216 521T295 532Q391 532 431 489T471 367V116Q471 75 489 60T531 41L533 37ZM251 38Q303 38 339 62T392 124V268L258 244Q204 234 176 210T147
141Q147 91 177 65T251 38ZM157 614Q149 615 142 618T131 627Q147 675 169 700T225 725Q238 725 250 722T275 713L326 695Q343 689 353 686T372 683Q389 683 402 695T423 736Q430 736 437 733T449 723Q436 669 415 647T362 625Q348 625 333 629T302 639L247 658Q236
662 227 665T209 668Q191 668 179 654T157 614Z" />
<glyph unicode="&#xe4;" glyph-name="adieresis" horiz-adv-x="568" d="M533 37Q530 32 524 25T509 12T492 0T474 -7Q442 -5 420 17T396 77Q388 62 372 46T334 16T282 -6T219 -15Q148 -15 107 21T65 117Q65 179 112 221T273 283L392 304V343Q392 415 359 453T259
491Q218 491 190 471T161 410Q161 392 173 378Q164 366 144 356T103 344Q98 349 91 359T84 386Q84 417 102 444T149 490T216 521T295 532Q391 532 431 489T471 367V116Q471 75 489 60T531 41L533 37ZM251 38Q303 38 339 62T392 124V268L258 244Q204 234 176 210T147
141Q147 91 177 65T251 38ZM248 680Q244 673 237 665T223 650T207 636T192 626Q177 633 160 649T131 680Q143 696 159 712T192 737Q206 729 222 713T248 680ZM447 680Q443 673 436 665T422 650T406 636T391 626Q376 633 359 649T330 680Q342 696 358 712T391 737Q405
729 421 713T447 680Z" />
<glyph unicode="&#xe5;" glyph-name="aring" horiz-adv-x="568" d="M533 37Q530 32 524 25T509 12T492 0T474 -7Q442 -5 420 17T396 77Q388 62 372 46T334 16T282 -6T219 -15Q148 -15 107 21T65 117Q65 179 112 221T273 283L392 304V343Q392 415 359 453T259 491Q218
491 190 471T161 410Q161 392 173 378Q164 366 144 356T103 344Q98 349 91 359T84 386Q84 417 102 444T149 490T216 521T295 532Q391 532 431 489T471 367V116Q471 75 489 60T531 41L533 37ZM251 38Q303 38 339 62T392 124V268L258 244Q204 234 176 210T147 141Q147
91 177 65T251 38ZM182 685Q182 705 191 722T217 751T254 771T300 778Q351 778 374 755T397 700Q397 679 388 662T363 632T326 614T282 607Q239 607 211 625T182 685ZM237 699Q237 664 255 648T293 632Q313 632 327 645T341 688Q341 717 327 735T287 754Q270 754
254 741T237 699Z" />
<glyph unicode="&#xe6;" glyph-name="ae" horiz-adv-x="906" d="M173 378Q164 366 145 356T103 344Q97 349 91 359T84 386Q84 417 102 444T149 490T218 521T299 532Q368 532 411 506T471 433Q506 478 554 505T662 532Q718 532 755 513T813 465T843 399T852 328Q847
320 832 309T801 293L489 258Q491 202 506 162T548 95T608 55T682 42Q730 42 765 55T831 96Q845 93 850 77Q843 66 828 50T787 19T726 -6T643 -17Q579 -17 528 10T446 91Q433 71 415 52T370 18T310 -6T234 -15Q156 -15 111 21T65 118Q65 179 112 222T269 281L409
300V345Q409 411 373 451T264 491Q244 491 225 486T192 470T170 444T161 409Q161 398 164 391T173 378ZM253 243Q198 235 173 210T147 142Q147 88 182 61T271 33Q332 33 370 72T409 185V265L253 243ZM635 487Q574 487 533 441T487 295L766 325Q767 329 767 332T768
341Q768 371 760 397T736 444T695 475T635 487Z" />
<glyph unicode="&#xe7;" glyph-name="ccedilla" horiz-adv-x="549" d="M498 414Q492 403 475 391T431 376Q428 393 420 412T395 448T355 475T297 486Q269 486 241 475T189 439T152 375T137 280Q137 220 153 176T196 102T258 58T333 43Q384 43 419 58T480 103Q486
102 492 96T500 85Q492 72 477 56T440 26T389 0T323 -14L276 -73Q333 -75 357 -96T381 -151Q381 -198 342 -225T233 -253Q218 -253 206 -251T191 -247Q187 -241 186 -232T184 -215Q193 -217 205 -218T228 -219Q272 -219 295 -206T319 -165Q319 -111 249 -111Q241
-111 234 -111T222 -114Q216 -110 216 -101L280 -14Q233 -11 193 8T122 60T74 141T56 250Q56 307 77 357T134 446T221 507T329 530Q377 530 409 517T460 485T489 446T498 414Z" />
<glyph unicode="&#xe8;" glyph-name="egrave" horiz-adv-x="556" d="M136 258Q139 204 155 164T198 96T258 56T332 42Q381 42 416 55T481 96Q495 93 500 77Q493 66 478 50T437 19T376 -6T293 -17Q243 -17 200 1T125 53T75 137T56 250Q56 308 76 359T130 449T211
509T311 532Q368 532 405 513T463 464T493 398T502 328Q494 316 481 307T451 293L136 258ZM285 487Q254 487 227 476T180 442T148 383T134 296L416 325Q417 330 417 335T417 344Q417 375 409 401T385 446T344 476T285 487ZM368 602Q348 611 322 630T271 672T222
721T184 768Q206 782 245 782Q256 782 262 780Q288 738 325 694T400 612Q396 607 387 605T368 602Z" />
<glyph unicode="&#xe9;" glyph-name="eacute" horiz-adv-x="556" d="M136 258Q139 204 155 164T198 96T258 56T332 42Q381 42 416 55T481 96Q495 93 500 77Q493 66 478 50T437 19T376 -6T293 -17Q243 -17 200 1T125 53T75 137T56 250Q56 308 76 359T130 449T211
509T311 532Q368 532 405 513T463 464T493 398T502 328Q494 316 481 307T451 293L136 258ZM285 487Q254 487 227 476T180 442T148 383T134 296L416 325Q417 330 417 335T417 344Q417 375 409 401T385 446T344 476T285 487ZM427 779Q413 755 390 729T340 677T287
632T239 601Q230 601 222 603T209 611Q244 644 278 686T339 769Q362 782 399 782Q415 782 427 779Z" />
<glyph unicode="&#xea;" glyph-name="ecircumflex" horiz-adv-x="556" d="M136 258Q139 204 155 164T198 96T258 56T332 42Q381 42 416 55T481 96Q495 93 500 77Q493 66 478 50T437 19T376 -6T293 -17Q243 -17 200 1T125 53T75 137T56 250Q56 308 76 359T130 449T211
509T311 532Q368 532 405 513T463 464T493 398T502 328Q494 316 481 307T451 293L136 258ZM285 487Q254 487 227 476T180 442T148 383T134 296L416 325Q417 330 417 335T417 344Q417 375 409 401T385 446T344 476T285 487ZM322 784Q350 742 384 696T449 613Q444
608 435 606T418 603Q405 612 390 625T358 652T327 681T298 708Q285 694 270 679T239 650T208 624T179 603Q171 603 162 605T148 613Q183 651 215 691T277 773Q286 778 298 781T322 784Z" />
<glyph unicode="&#xeb;" glyph-name="edieresis" horiz-adv-x="556" d="M136 258Q139 204 155 164T198 96T258 56T332 42Q381 42 416 55T481 96Q495 93 500 77Q493 66 478 50T437 19T376 -6T293 -17Q243 -17 200 1T125 53T75 137T56 250Q56 308 76 359T130 449T211
509T311 532Q368 532 405 513T463 464T493 398T502 328Q494 316 481 307T451 293L136 258ZM285 487Q254 487 227 476T180 442T148 383T134 296L416 325Q417 330 417 335T417 344Q417 375 409 401T385 446T344 476T285 487ZM452 675Q448 668 441 660T427 645T411
631T396 621Q381 628 364 644T335 675Q347 691 363 707T396 732Q410 724 426 708T452 675ZM253 675Q249 668 242 660T228 645T212 631T197 621Q182 628 165 644T136 675Q148 691 164 707T197 732Q211 724 227 708T253 675Z" />
<glyph unicode="&#xec;" glyph-name="igrave" horiz-adv-x="267" d="M94 505Q111 514 131 518T173 522V8Q159 0 137 -3T94 -7V505ZM145 602Q125 611 99 630T48 672T-1 721T-39 768Q-17 782 22 782Q33 782 39 780Q65 738 102 694T177 612Q173 607 164 605T145 602Z" />
<glyph unicode="&#xed;" glyph-name="iacute" horiz-adv-x="268" d="M95 505Q112 514 132 518T174 522V8Q160 0 138 -3T95 -7V505ZM312 779Q298 755 275 729T225 677T172 632T124 601Q115 601 107 603T94 611Q129 644 163 686T224 769Q247 782 284 782Q300 782 312 779Z" />
<glyph unicode="&#xee;" glyph-name="icircumflex" horiz-adv-x="268" d="M95 505Q112 514 132 518T174 522V8Q160 0 138 -3T95 -7V505ZM161 784Q189 742 223 696T288 613Q283 608 274 606T257 603Q244 612 229 625T197 652T166 681T137 708Q124 694 109 679T78
650T47 624T18 603Q10 603 1 605T-13 613Q22 651 54 691T116 773Q125 778 137 781T161 784Z" />
<glyph unicode="&#xef;" glyph-name="idieresis" horiz-adv-x="268" d="M95 505Q112 514 132 518T174 522V8Q160 0 138 -3T95 -7V505ZM296 675Q292 668 285 660T271 645T255 631T240 621Q225 628 208 644T179 675Q191 691 207 707T240 732Q254 724 270 708T296
675ZM97 675Q93 668 86 660T72 645T56 631T41 621Q26 628 9 644T-20 675Q-8 691 8 707T41 732Q55 724 71 708T97 675Z" />
<glyph unicode="&#xf0;" glyph-name="eth" horiz-adv-x="604" d="M376 691Q452 629 494 533T537 322Q537 245 523 182T477 74T396 4T278 -21Q231 -21 191 -5T120 41T73 116T56 219Q56 282 78 331T137 414T222 466T321 484Q363 484 392 474T443 447Q426 516 395
568T321 657L215 592Q208 597 202 605T195 622L289 681Q254 704 215 718T132 737Q135 759 150 772Q205 771 253 756T343 715L435 772Q443 768 449 759T458 742L376 691ZM460 244Q460 262 460 278T458 312Q451 339 438 362T404 402T358 430T298 440Q270 440 242
430T191 396T154 336T139 247Q139 137 184 84T304 30Q344 30 373 45T421 89T450 157T460 244Z" />
<glyph unicode="&#xf1;" glyph-name="ntilde" horiz-adv-x="633" d="M464 312Q464 397 429 436T330 476Q307 476 285 468T242 445T203 413T171 374V8Q157 0 135 -3T92 -7V505Q125 522 166 522V423Q179 440 199 459T245 495T301 521T367 532Q448 532 495 483T543
343V8Q529 0 507 -3T464 -7V312ZM197 614Q189 615 182 618T171 627Q187 675 209 700T265 725Q278 725 290 722T315 713L366 695Q383 689 393 686T412 683Q429 683 442 695T463 736Q470 736 477 733T489 723Q476 669 455 647T402 625Q388 625 373 629T342 639L287
658Q276 662 267 665T249 668Q231 668 219 654T197 614Z" />
<glyph unicode="&#xf2;" glyph-name="ograve" horiz-adv-x="628" d="M140 279Q140 216 155 169T196 91T255 43T326 27Q406 27 448 80T490 242Q490 294 478 339T443 417T385 469T307 488Q275 488 245 476T192 439T155 374T140 279ZM56 248Q56 309 78 361T137 451T225
510T333 532Q395 532 440 511T515 455T559 373T574 274Q574 213 555 160T501 68T414 5T298 -18Q250 -18 206 0T129 52T76 135T56 248ZM358 602Q338 611 312 630T261 672T212 721T174 768Q196 782 235 782Q246 782 252 780Q278 738 315 694T390 612Q386 607 377
605T358 602Z" />
<glyph unicode="&#xf3;" glyph-name="oacute" horiz-adv-x="628" d="M140 279Q140 216 155 169T196 91T255 43T326 27Q406 27 448 80T490 242Q490 294 478 339T443 417T385 469T307 488Q275 488 245 476T192 439T155 374T140 279ZM56 248Q56 309 78 361T137 451T225
510T333 532Q395 532 440 511T515 455T559 373T574 274Q574 213 555 160T501 68T414 5T298 -18Q250 -18 206 0T129 52T76 135T56 248ZM457 779Q443 755 420 729T370 677T317 632T269 601Q260 601 252 603T239 611Q274 644 308 686T369 769Q392 782 429 782Q445
782 457 779Z" />
<glyph unicode="&#xf4;" glyph-name="ocircumflex" horiz-adv-x="628" d="M56 248Q56 309 78 361T137 451T225 510T333 532Q395 532 440 511T515 455T559 373T574 274Q574 213 555 160T501 68T414 5T298 -18Q250 -18 206 0T129 52T76 135T56 248ZM140 279Q140
216 155 169T196 91T255 43T326 27Q406 27 448 80T490 242Q490 294 478 339T443 417T385 469T307 488Q275 488 245 476T192 439T155 374T140 279ZM348 784Q376 742 410 696T475 613Q470 608 461 606T444 603Q431 612 416 625T384 652T353 681T324 708Q311 694 296
679T265 650T234 624T205 603Q197 603 188 605T174 613Q209 651 241 691T303 773Q312 778 324 781T348 784Z" />
<glyph unicode="&#xf5;" glyph-name="otilde" horiz-adv-x="628" d="M140 279Q140 216 155 169T196 91T255 43T326 27Q406 27 448 80T490 242Q490 294 478 339T443 417T385 469T307 488Q275 488 245 476T192 439T155 374T140 279ZM56 248Q56 309 78 361T137 451T225
510T333 532Q395 532 440 511T515 455T559 373T574 274Q574 213 555 160T501 68T414 5T298 -18Q250 -18 206 0T129 52T76 135T56 248ZM187 614Q179 615 172 618T161 627Q177 675 199 700T255 725Q268 725 280 722T305 713L356 695Q373 689 383 686T402 683Q419
683 432 695T453 736Q460 736 467 733T479 723Q466 669 445 647T392 625Q378 625 363 629T332 639L277 658Q266 662 257 665T239 668Q221 668 209 654T187 614Z" />
<glyph unicode="&#xf6;" glyph-name="odieresis" horiz-adv-x="628" d="M140 279Q140 216 155 169T196 91T255 43T326 27Q406 27 448 80T490 242Q490 294 478 339T443 417T385 469T307 488Q275 488 245 476T192 439T155 374T140 279ZM56 248Q56 309 78 361T137
451T225 510T333 532Q395 532 440 511T515 455T559 373T574 274Q574 213 555 160T501 68T414 5T298 -18Q250 -18 206 0T129 52T76 135T56 248ZM479 675Q475 668 468 660T454 645T438 631T423 621Q408 628 391 644T362 675Q374 691 390 707T423 732Q437 724 453
708T479 675ZM280 675Q276 668 269 660T255 645T239 631T224 621Q209 628 192 644T163 675Q175 691 191 707T224 732Q238 724 254 708T280 675Z" />
<glyph unicode="&#xf7;" glyph-name="divide" horiz-adv-x="577" d="M52 307Q53 316 55 326T62 344T72 358T85 364H525Q523 345 515 326T492 307H52ZM352 507Q343 490 324 472T289 446Q272 453 252 471T221 507Q232 524 252 543T289 570Q304 562 324 543T352 507ZM352
152Q347 143 340 134T324 117T306 101T289 90Q272 98 252 116T221 152Q232 169 252 188T289 215Q296 211 305 204T324 188T340 170T352 152Z" />
<glyph unicode="&#xf8;" glyph-name="oslash" horiz-adv-x="628" d="M56 248Q56 309 78 361T137 451T225 510T333 532Q403 532 454 504L488 555Q499 553 507 548T520 535L486 484Q531 448 552 393T574 274Q574 213 555 160T501 68T414 5T298 -18Q230 -18 174 16L135
-43Q126 -41 116 -35T102 -22L142 39Q103 73 80 125T56 248ZM490 242Q490 295 478 340T442 418L212 73Q236 50 265 39T326 27Q406 27 448 80T490 242ZM140 279Q140 222 152 179T186 104L416 447Q394 467 367 477T307 488Q275 488 245 476T192 439T155 374T140 279Z"
/>
<glyph unicode="&#xf9;" glyph-name="ugrave" horiz-adv-x="624" d="M308 40Q356 40 395 67T454 142V505Q471 514 491 518T533 522V8Q519 0 499 -3T458 -7V88Q448 71 431 53T389 19T335 -7T267 -17Q230 -17 198 -6T141 28T103 87T89 172V505Q106 514 126 518T168
522V202Q168 157 179 126T209 76T253 49T308 40ZM378 602Q358 611 332 630T281 672T232 721T194 768Q216 782 255 782Q266 782 272 780Q298 738 335 694T410 612Q406 607 397 605T378 602Z" />
<glyph unicode="&#xfa;" glyph-name="uacute" horiz-adv-x="624" d="M308 40Q356 40 395 67T454 142V505Q471 514 491 518T533 522V8Q519 0 499 -3T458 -7V88Q448 71 431 53T389 19T335 -7T267 -17Q230 -17 198 -6T141 28T103 87T89 172V505Q106 514 126 518T168
522V202Q168 157 179 126T209 76T253 49T308 40ZM457 779Q443 755 420 729T370 677T317 632T269 601Q260 601 252 603T239 611Q274 644 308 686T369 769Q392 782 429 782Q445 782 457 779Z" />
<glyph unicode="&#xfb;" glyph-name="ucircumflex" horiz-adv-x="624" d="M308 40Q356 40 395 67T454 142V505Q471 514 491 518T533 522V8Q519 0 499 -3T458 -7V88Q448 71 431 53T389 19T335 -7T267 -17Q230 -17 198 -6T141 28T103 87T89 172V505Q106 514 126
518T168 522V202Q168 157 179 126T209 76T253 49T308 40ZM347 784Q375 742 409 696T474 613Q469 608 460 606T443 603Q430 612 415 625T383 652T352 681T323 708Q310 694 295 679T264 650T233 624T204 603Q196 603 187 605T173 613Q208 651 240 691T302 773Q311
778 323 781T347 784Z" />
<glyph unicode="&#xfc;" glyph-name="udieresis" horiz-adv-x="624" d="M308 40Q356 40 395 67T454 142V505Q471 514 491 518T533 522V8Q519 0 499 -3T458 -7V88Q448 71 431 53T389 19T335 -7T267 -17Q230 -17 198 -6T141 28T103 87T89 172V505Q106 514 126 518T168
522V202Q168 157 179 126T209 76T253 49T308 40ZM281 675Q277 668 270 660T256 645T240 631T225 621Q210 628 193 644T164 675Q176 691 192 707T225 732Q239 724 255 708T281 675ZM480 675Q476 668 469 660T455 645T439 631T424 621Q409 628 392 644T363 675Q375
691 391 707T424 732Q438 724 454 708T480 675Z" />
<glyph unicode="&#xfd;" glyph-name="yacute" horiz-adv-x="570" d="M124 522Q138 471 157 413T200 294T249 175T301 65Q301 65 302 67Q364 190 400 300T460 511Q473 517 488 519T518 522Q523 522 528 522T539 521Q511 431 462 313T350 67Q323 12 301 -32T258
-113T219 -182T181 -246Q171 -251 153 -254T114 -258Q95 -258 82 -255V-251Q124 -202 169 -144T259 -11Q229 42 197 108T137 242T84 376T44 498Q60 509 82 515T124 522ZM441 779Q427 755 404 729T354 677T301 632T253 601Q244 601 236 603T223 611Q258 644 292
686T353 769Q376 782 413 782Q429 782 441 779Z" />
<glyph unicode="&#xfe;" glyph-name="thorn" horiz-adv-x="644" d="M94 755Q111 764 131 768T173 772V435Q187 452 207 469T252 501T307 525T371 534Q422 534 462 516T529 467T571 392T585 297Q585 231 562 173T499 72T403 5T282 -20Q247 -20 220 -12T173 10V-244Q159
-252 137 -255T94 -259V755ZM333 477Q287 477 244 449T173 377V101Q199 64 237 47T323 29Q360 29 392 43T449 87T488 159T502 260Q502 314 490 355T455 423T401 463T333 477Z" />
<glyph unicode="&#xff;" glyph-name="ydieresis" horiz-adv-x="570" d="M124 522Q138 471 157 413T200 294T249 175T301 65Q363 188 400 299T460 511Q473 517 488 519T518 522Q523 522 528 522T539 521Q511 431 462 313T350 67Q323 12 301 -32T258 -113T219 -182T181
-246Q171 -251 153 -254T114 -258Q95 -258 82 -255V-251Q124 -202 169 -144T259 -11Q229 42 197 108T137 242T84 376T44 498Q60 509 82 515T124 522ZM264 675Q260 668 253 660T239 645T223 631T208 621Q193 628 176 644T147 675Q159 691 175 707T208 732Q222 724
238 708T264 675ZM463 675Q459 668 452 660T438 645T422 631T407 621Q392 628 375 644T346 675Q358 691 374 707T407 732Q421 724 437 708T463 675Z" />
<glyph unicode="&#x2013;" glyph-name="endash" horiz-adv-x="483" d="M435 319Q433 299 424 281T399 262H48Q50 284 60 301T84 319H435Z" />
<glyph unicode="&#x2014;" glyph-name="emdash" horiz-adv-x="871" d="M823 321Q821 301 812 283T787 264H48Q50 286 60 303T84 321H823Z" />
<glyph unicode="&#x2018;" glyph-name="quoteleft" horiz-adv-x="202" d="M47 617Q47 647 57 672T84 716T120 750T156 772Q164 771 171 766T180 755Q154 738 133 713T112 649Q112 616 128 597T172 565Q165 547 150 533T116 514Q91 522 69 547T47 617Z" />
<glyph unicode="&#x2019;" glyph-name="quoteright" horiz-adv-x="201" d="M157 672Q157 644 147 619T120 574T85 539T49 516Q42 516 35 521T25 533Q50 550 71 574T92 640Q92 671 76 690T33 723Q40 742 56 757T91 776Q117 766 137 740T157 672Z" />
<glyph unicode="&#x201a;" glyph-name="quotesinglbase" horiz-adv-x="201" d="M157 -10Q157 -38 147 -63T120 -108T85 -143T49 -166Q42 -166 35 -161T25 -149Q50 -132 71 -108T92 -42Q92 -11 76 8T33 41Q40 60 56 75T91 94Q117 84 137 58T157 -10Z" />
<glyph unicode="&#x201c;" glyph-name="quotedblleft" horiz-adv-x="383" d="M228 617Q228 647 238 672T265 716T301 750T337 772Q345 771 352 766T361 755Q335 738 314 713T293 649Q293 616 309 597T353 565Q346 547 331 533T297 514Q272 522 250 547T228 617ZM47
617Q47 647 57 672T84 716T120 750T156 772Q164 771 171 766T180 755Q154 738 133 713T112 649Q112 616 128 597T172 565Q165 547 150 533T116 514Q91 522 69 547T47 617Z" />
<glyph unicode="&#x201d;" glyph-name="quotedblright" horiz-adv-x="382" d="M157 672Q157 644 147 619T120 574T85 539T49 516Q42 516 35 521T25 533Q50 550 71 574T92 640Q92 671 76 690T33 723Q40 742 56 757T91 776Q117 766 137 740T157 672ZM338 672Q338
644 328 619T301 574T266 539T230 516Q223 516 216 521T206 533Q231 550 252 574T273 640Q273 671 257 690T214 723Q221 742 237 757T272 776Q298 766 318 740T338 672Z" />
<glyph unicode="&#x201e;" glyph-name="quotedblbase" horiz-adv-x="371" d="M157 -10Q157 -38 147 -63T120 -108T85 -143T49 -166Q42 -166 35 -161T25 -149Q50 -132 71 -108T92 -42Q92 -11 76 8T33 41Q40 60 56 75T91 94Q117 84 137 58T157 -10ZM327 -10Q327
-38 317 -63T290 -108T255 -143T219 -166Q212 -166 205 -161T195 -149Q220 -132 241 -108T262 -42Q262 -11 246 8T203 41Q210 60 226 75T261 94Q287 84 307 58T327 -10Z" />
<glyph unicode="&#x2022;" glyph-name="bullet" horiz-adv-x="453" d="M333 362Q325 347 312 332T285 302T255 277T227 260Q214 266 199 277T168 303T140 332T119 362Q127 376 140 391T168 421T198 448T227 466Q242 460 258 448T288 422T314 391T333 362Z" />
<glyph unicode="&#x2039;" glyph-name="guilsinglleft" horiz-adv-x="334" d="M268 402Q250 389 229 374T185 342T140 308T99 275Q114 255 139 229T191 177T245 127T289 91Q284 77 271 63T242 42Q224 54 194 80T134 137T77 195T40 242Q40 252 43 260Q55 278 85
308T151 370T223 431T282 477Q283 473 283 463Q283 447 279 430T268 402Z" />
<glyph unicode="&#x203a;" glyph-name="guilsinglright" horiz-adv-x="334" d="M66 116Q84 128 105 143T148 175T193 209T235 243Q220 263 195 289T142 341T88 390T45 427Q50 441 63 455T92 476Q110 464 140 438T200 381T257 323T294 276Q294 265 291 258Q279
240 249 210T183 148T111 87T52 41Q51 46 51 56Q51 72 55 88T66 116Z" />
</font>
</defs>
</svg>
