<?xml version="1.0" standalone="no"?>
<!DOCTYPE svg PUBLIC "-//W3C//DTD SVG 1.1//EN" "http://www.w3.org/Graphics/SVG/1.1/DTD/svg11.dtd">
<svg xmlns="http://www.w3.org/2000/svg">
<defs >
<font id="Linefont" horiz-adv-x="100" ><font-face
    font-family="Linefont"
    units-per-em="1000"
    panose-1="2 0 0 9 0 0 0 0 0 0"
    ascent="1200"
    descent="-200"
    alphabetic="0" />
<glyph unicode=" " glyph-name="space" />
<glyph unicode="!" glyph-name="space" />
<glyph unicode="&quot;" glyph-name="space" />
<glyph unicode="#" glyph-name="space" />
<glyph unicode="$" glyph-name="space" />
<glyph unicode="%" glyph-name="space" />
<glyph unicode="&amp;" glyph-name="space" />
<glyph unicode="&apos;" glyph-name="space" />
<glyph unicode="(" glyph-name="space" />
<glyph unicode=")" glyph-name="space" />
<glyph unicode="*" glyph-name="space" />
<glyph unicode="+" glyph-name="space" />
<glyph unicode="," glyph-name="space" />
<glyph unicode="-" glyph-name="space" />
<glyph unicode="." glyph-name="space" />
<glyph unicode="/" glyph-name="space" />
<glyph unicode="0" glyph-name="_1" d="M0 10Q0 -3 7 -14T25 -33T50 -40Q63 -40 74 -33T93 -15T100 10Q100 23 93 34T75 53T50 60Q37 60 26 53T7 35T0 10Z" />
<glyph unicode="1" glyph-name="_10" d="M0 100Q0 87 7 76T25 57T50 50Q63 50 74 57T93 75T100 100Q100 113 93 124T75 143T50 150Q37 150 26 143T7 125T0 100Z" />
<glyph unicode="2" glyph-name="_20" d="M0 200Q0 187 7 176T25 157T50 150Q63 150 74 157T93 175T100 200Q100 213 93 224T75 243T50 250Q37 250 26 243T7 225T0 200Z" />
<glyph unicode="3" glyph-name="_30" d="M0 300Q0 287 7 276T25 257T50 250Q63 250 74 257T93 275T100 300Q100 313 93 324T75 343T50 350Q37 350 26 343T7 325T0 300Z" />
<glyph unicode="4" glyph-name="_40" d="M0 400Q0 387 7 376T25 357T50 350Q63 350 74 357T93 375T100 400Q100 413 93 424T75 443T50 450Q37 450 26 443T7 425T0 400Z" />
<glyph unicode="5" glyph-name="_50" d="M0 500Q0 487 7 476T25 457T50 450Q63 450 74 457T93 475T100 500Q100 513 93 524T75 543T50 550Q37 550 26 543T7 525T0 500Z" />
<glyph unicode="6" glyph-name="_60" d="M0 600Q0 587 7 576T25 557T50 550Q63 550 74 557T93 575T100 600Q100 613 93 624T75 643T50 650Q37 650 26 643T7 625T0 600Z" />
<glyph unicode="7" glyph-name="_70" d="M0 700Q0 687 7 676T25 657T50 650Q63 650 74 657T93 675T100 700Q100 713 93 724T75 743T50 750Q37 750 26 743T7 725T0 700Z" />
<glyph unicode="8" glyph-name="_80" d="M0 800Q0 787 7 776T25 757T50 750Q63 750 74 757T93 775T100 800Q100 813 93 824T75 843T50 850Q37 850 26 843T7 825T0 800Z" />
<glyph unicode="9" glyph-name="_90" d="M0 900Q0 887 7 876T25 857T50 850Q63 850 74 857T93 875T100 900Q100 913 93 924T75 943T50 950Q37 950 26 943T7 925T0 900Z" />
<glyph unicode=":" glyph-name="space" />
<glyph unicode=";" glyph-name="space" />
<glyph unicode="&lt;" glyph-name="space" />
<glyph unicode="=" glyph-name="space" />
<glyph unicode="&gt;" glyph-name="space" />
<glyph unicode="?" glyph-name="space" />
<glyph unicode="@" glyph-name="space" />
<glyph unicode="A" glyph-name="_52" d="M0 520Q0 507 7 496T25 477T50 470Q63 470 74 477T93 495T100 520Q100 533 93 544T75 563T50 570Q37 570 26 563T7 545T0 520Z" />
<glyph unicode="B" glyph-name="_54" d="M0 540Q0 527 7 516T25 497T50 490Q63 490 74 497T93 515T100 540Q100 553 93 564T75 583T50 590Q37 590 26 583T7 565T0 540Z" />
<glyph unicode="C" glyph-name="_56" d="M0 560Q0 547 7 536T25 517T50 510Q63 510 74 517T93 535T100 560Q100 573 93 584T75 603T50 610Q37 610 26 603T7 585T0 560Z" />
<glyph unicode="D" glyph-name="_58" d="M0 580Q0 567 7 556T25 537T50 530Q63 530 74 537T93 555T100 580Q100 593 93 604T75 623T50 630Q37 630 26 623T7 605T0 580Z" />
<glyph unicode="E" glyph-name="_60" d="M0 600Q0 587 7 576T25 557T50 550Q63 550 74 557T93 575T100 600Q100 613 93 624T75 643T50 650Q37 650 26 643T7 625T0 600Z" />
<glyph unicode="F" glyph-name="_62" d="M0 620Q0 607 7 596T25 577T50 570Q63 570 74 577T93 595T100 620Q100 633 93 644T75 663T50 670Q37 670 26 663T7 645T0 620Z" />
<glyph unicode="G" glyph-name="_64" d="M0 640Q0 627 7 616T25 597T50 590Q63 590 74 597T93 615T100 640Q100 653 93 664T75 683T50 690Q37 690 26 683T7 665T0 640Z" />
<glyph unicode="H" glyph-name="_66" d="M0 660Q0 647 7 636T25 617T50 610Q63 610 74 617T93 635T100 660Q100 673 93 684T75 703T50 710Q37 710 26 703T7 685T0 660Z" />
<glyph unicode="I" glyph-name="_68" d="M0 680Q0 667 7 656T25 637T50 630Q63 630 74 637T93 655T100 680Q100 693 93 704T75 723T50 730Q37 730 26 723T7 705T0 680Z" />
<glyph unicode="J" glyph-name="_70" d="M0 700Q0 687 7 676T25 657T50 650Q63 650 74 657T93 675T100 700Q100 713 93 724T75 743T50 750Q37 750 26 743T7 725T0 700Z" />
<glyph unicode="K" glyph-name="_72" d="M0 720Q0 707 7 696T25 677T50 670Q63 670 74 677T93 695T100 720Q100 733 93 744T75 763T50 770Q37 770 26 763T7 745T0 720Z" />
<glyph unicode="L" glyph-name="_74" d="M0 740Q0 727 7 716T25 697T50 690Q63 690 74 697T93 715T100 740Q100 753 93 764T75 783T50 790Q37 790 26 783T7 765T0 740Z" />
<glyph unicode="M" glyph-name="_76" d="M0 760Q0 747 7 736T25 717T50 710Q63 710 74 717T93 735T100 760Q100 773 93 784T75 803T50 810Q37 810 26 803T7 785T0 760Z" />
<glyph unicode="N" glyph-name="_78" d="M0 780Q0 767 7 756T25 737T50 730Q63 730 74 737T93 755T100 780Q100 793 93 804T75 823T50 830Q37 830 26 823T7 805T0 780Z" />
<glyph unicode="O" glyph-name="_80" d="M0 800Q0 787 7 776T25 757T50 750Q63 750 74 757T93 775T100 800Q100 813 93 824T75 843T50 850Q37 850 26 843T7 825T0 800Z" />
<glyph unicode="P" glyph-name="_82" d="M0 820Q0 807 7 796T25 777T50 770Q63 770 74 777T93 795T100 820Q100 833 93 844T75 863T50 870Q37 870 26 863T7 845T0 820Z" />
<glyph unicode="Q" glyph-name="_84" d="M0 840Q0 827 7 816T25 797T50 790Q63 790 74 797T93 815T100 840Q100 853 93 864T75 883T50 890Q37 890 26 883T7 865T0 840Z" />
<glyph unicode="R" glyph-name="_86" d="M0 860Q0 847 7 836T25 817T50 810Q63 810 74 817T93 835T100 860Q100 873 93 884T75 903T50 910Q37 910 26 903T7 885T0 860Z" />
<glyph unicode="S" glyph-name="_88" d="M0 880Q0 867 7 856T25 837T50 830Q63 830 74 837T93 855T100 880Q100 893 93 904T75 923T50 930Q37 930 26 923T7 905T0 880Z" />
<glyph unicode="T" glyph-name="_90" d="M0 900Q0 887 7 876T25 857T50 850Q63 850 74 857T93 875T100 900Q100 913 93 924T75 943T50 950Q37 950 26 943T7 925T0 900Z" />
<glyph unicode="U" glyph-name="_92" d="M0 920Q0 907 7 896T25 877T50 870Q63 870 74 877T93 895T100 920Q100 933 93 944T75 963T50 970Q37 970 26 963T7 945T0 920Z" />
<glyph unicode="V" glyph-name="_94" d="M0 940Q0 927 7 916T25 897T50 890Q63 890 74 897T93 915T100 940Q100 953 93 964T75 983T50 990Q37 990 26 983T7 965T0 940Z" />
<glyph unicode="W" glyph-name="_96" d="M0 960Q0 947 7 936T25 917T50 910Q63 910 74 917T93 935T100 960Q100 973 93 984T75 1003T50 1010Q37 1010 26 1003T7 985T0 960Z" />
<glyph unicode="X" glyph-name="_98" d="M0 980Q0 967 7 956T25 937T50 930Q63 930 74 937T93 955T100 980Q100 993 93 1004T75 1023T50 1030Q37 1030 26 1023T7 1005T0 980Z" />
<glyph unicode="Y" glyph-name="_99" d="M0 990Q0 977 7 966T25 947T50 940Q63 940 74 947T93 965T100 990Q100 1003 93 1014T75 1033T50 1040Q37 1040 26 1033T7 1015T0 990Z" />
<glyph unicode="Z" glyph-name="_100" d="M0 1000Q0 987 7 976T25 957T50 950Q63 950 74 957T93 975T100 1000Q100 1013 93 1024T75 1043T50 1050Q37 1050 26 1043T7 1025T0 1000Z" />
<glyph unicode="[" glyph-name="space" />
<glyph unicode="\" glyph-name="space" />
<glyph unicode="]" glyph-name="space" />
<glyph unicode="^" glyph-name="space" />
<glyph unicode="_" glyph-name="space" />
<glyph unicode="`" glyph-name="space" />
<glyph unicode="a" glyph-name="_1" d="M0 10Q0 -3 7 -14T25 -33T50 -40Q63 -40 74 -33T93 -15T100 10Q100 23 93 34T75 53T50 60Q37 60 26 53T7 35T0 10Z" />
<glyph unicode="b" glyph-name="_2" d="M0 20Q0 7 7 -4T25 -23T50 -30Q63 -30 74 -23T93 -5T100 20Q100 33 93 44T75 63T50 70Q37 70 26 63T7 45T0 20Z" />
<glyph unicode="c" glyph-name="_4" d="M0 40Q0 27 7 16T25 -3T50 -10Q63 -10 74 -3T93 15T100 40Q100 53 93 64T75 83T50 90Q37 90 26 83T7 65T0 40Z" />
<glyph unicode="d" glyph-name="_6" d="M0 60Q0 47 7 36T25 17T50 10Q63 10 74 17T93 35T100 60Q100 73 93 84T75 103T50 110Q37 110 26 103T7 85T0 60Z" />
<glyph unicode="e" glyph-name="_8" d="M0 80Q0 67 7 56T25 37T50 30Q63 30 74 37T93 55T100 80Q100 93 93 104T75 123T50 130Q37 130 26 123T7 105T0 80Z" />
<glyph unicode="f" glyph-name="_10" d="M0 100Q0 87 7 76T25 57T50 50Q63 50 74 57T93 75T100 100Q100 113 93 124T75 143T50 150Q37 150 26 143T7 125T0 100Z" />
<glyph unicode="g" glyph-name="_12" d="M0 120Q0 107 7 96T25 77T50 70Q63 70 74 77T93 95T100 120Q100 133 93 144T75 163T50 170Q37 170 26 163T7 145T0 120Z" />
<glyph unicode="h" glyph-name="_14" d="M0 140Q0 127 7 116T25 97T50 90Q63 90 74 97T93 115T100 140Q100 153 93 164T75 183T50 190Q37 190 26 183T7 165T0 140Z" />
<glyph unicode="i" glyph-name="_16" d="M0 160Q0 147 7 136T25 117T50 110Q63 110 74 117T93 135T100 160Q100 173 93 184T75 203T50 210Q37 210 26 203T7 185T0 160Z" />
<glyph unicode="j" glyph-name="_18" d="M0 180Q0 167 7 156T25 137T50 130Q63 130 74 137T93 155T100 180Q100 193 93 204T75 223T50 230Q37 230 26 223T7 205T0 180Z" />
<glyph unicode="k" glyph-name="_20" d="M0 200Q0 187 7 176T25 157T50 150Q63 150 74 157T93 175T100 200Q100 213 93 224T75 243T50 250Q37 250 26 243T7 225T0 200Z" />
<glyph unicode="l" glyph-name="_22" d="M0 220Q0 207 7 196T25 177T50 170Q63 170 74 177T93 195T100 220Q100 233 93 244T75 263T50 270Q37 270 26 263T7 245T0 220Z" />
<glyph unicode="m" glyph-name="_24" d="M0 240Q0 227 7 216T25 197T50 190Q63 190 74 197T93 215T100 240Q100 253 93 264T75 283T50 290Q37 290 26 283T7 265T0 240Z" />
<glyph unicode="n" glyph-name="_26" d="M0 260Q0 247 7 236T25 217T50 210Q63 210 74 217T93 235T100 260Q100 273 93 284T75 303T50 310Q37 310 26 303T7 285T0 260Z" />
<glyph unicode="o" glyph-name="_28" d="M0 280Q0 267 7 256T25 237T50 230Q63 230 74 237T93 255T100 280Q100 293 93 304T75 323T50 330Q37 330 26 323T7 305T0 280Z" />
<glyph unicode="p" glyph-name="_30" d="M0 300Q0 287 7 276T25 257T50 250Q63 250 74 257T93 275T100 300Q100 313 93 324T75 343T50 350Q37 350 26 343T7 325T0 300Z" />
<glyph unicode="q" glyph-name="_32" d="M0 320Q0 307 7 296T25 277T50 270Q63 270 74 277T93 295T100 320Q100 333 93 344T75 363T50 370Q37 370 26 363T7 345T0 320Z" />
<glyph unicode="r" glyph-name="_34" d="M0 340Q0 327 7 316T25 297T50 290Q63 290 74 297T93 315T100 340Q100 353 93 364T75 383T50 390Q37 390 26 383T7 365T0 340Z" />
<glyph unicode="s" glyph-name="_36" d="M0 360Q0 347 7 336T25 317T50 310Q63 310 74 317T93 335T100 360Q100 373 93 384T75 403T50 410Q37 410 26 403T7 385T0 360Z" />
<glyph unicode="t" glyph-name="_38" d="M0 380Q0 367 7 356T25 337T50 330Q63 330 74 337T93 355T100 380Q100 393 93 404T75 423T50 430Q37 430 26 423T7 405T0 380Z" />
<glyph unicode="u" glyph-name="_40" d="M0 400Q0 387 7 376T25 357T50 350Q63 350 74 357T93 375T100 400Q100 413 93 424T75 443T50 450Q37 450 26 443T7 425T0 400Z" />
<glyph unicode="v" glyph-name="_42" d="M0 420Q0 407 7 396T25 377T50 370Q63 370 74 377T93 395T100 420Q100 433 93 444T75 463T50 470Q37 470 26 463T7 445T0 420Z" />
<glyph unicode="w" glyph-name="_44" d="M0 440Q0 427 7 416T25 397T50 390Q63 390 74 397T93 415T100 440Q100 453 93 464T75 483T50 490Q37 490 26 483T7 465T0 440Z" />
<glyph unicode="x" glyph-name="_46" d="M0 460Q0 447 7 436T25 417T50 410Q63 410 74 417T93 435T100 460Q100 473 93 484T75 503T50 510Q37 510 26 503T7 485T0 460Z" />
<glyph unicode="y" glyph-name="_48" d="M0 480Q0 467 7 456T25 437T50 430Q63 430 74 437T93 455T100 480Q100 493 93 504T75 523T50 530Q37 530 26 523T7 505T0 480Z" />
<glyph unicode="z" glyph-name="_50" d="M0 500Q0 487 7 476T25 457T50 450Q63 450 74 457T93 475T100 500Q100 513 93 524T75 543T50 550Q37 550 26 543T7 525T0 500Z" />
<glyph unicode="{" glyph-name="space" />
<glyph unicode="|" glyph-name="space" />
<glyph unicode="}" glyph-name="space" />
<glyph unicode="~" glyph-name="space" />
<glyph unicode="&#xa0;" glyph-name="space" />
<glyph unicode="&#xa1;" glyph-name="space" />
<glyph unicode="&#xa2;" glyph-name="space" />
<glyph unicode="&#xa3;" glyph-name="space" />
<glyph unicode="&#xa5;" glyph-name="space" />
<glyph unicode="&#xa7;" glyph-name="space" />
<glyph unicode="&#xa8;" glyph-name="space" />
<glyph unicode="&#xa9;" glyph-name="space" />
<glyph unicode="&#xaa;" glyph-name="space" />
<glyph unicode="&#xab;" glyph-name="space" />
<glyph unicode="&#xae;" glyph-name="space" />
<glyph unicode="&#xaf;" glyph-name="space" />
<glyph unicode="&#xb0;" glyph-name="space" />
<glyph unicode="&#xb4;" glyph-name="space" />
<glyph unicode="&#xb6;" glyph-name="space" />
<glyph unicode="&#xb7;" glyph-name="space" />
<glyph unicode="&#xb8;" glyph-name="space" />
<glyph unicode="&#xba;" glyph-name="space" />
<glyph unicode="&#xbb;" glyph-name="space" />
<glyph unicode="&#xbf;" glyph-name="space" />
<glyph unicode="&#xc0;" glyph-name="space" />
<glyph unicode="&#xc1;" glyph-name="space" />
<glyph unicode="&#xc2;" glyph-name="space" />
<glyph unicode="&#xc3;" glyph-name="space" />
<glyph unicode="&#xc4;" glyph-name="space" />
<glyph unicode="&#xc5;" glyph-name="space" />
<glyph unicode="&#xc6;" glyph-name="space" />
<glyph unicode="&#xc7;" glyph-name="space" />
<glyph unicode="&#xc8;" glyph-name="space" />
<glyph unicode="&#xc9;" glyph-name="space" />
<glyph unicode="&#xca;" glyph-name="space" />
<glyph unicode="&#xcb;" glyph-name="space" />
<glyph unicode="&#xcc;" glyph-name="space" />
<glyph unicode="&#xcd;" glyph-name="space" />
<glyph unicode="&#xce;" glyph-name="space" />
<glyph unicode="&#xcf;" glyph-name="space" />
<glyph unicode="&#xd0;" glyph-name="space" />
<glyph unicode="&#xd1;" glyph-name="space" />
<glyph unicode="&#xd2;" glyph-name="space" />
<glyph unicode="&#xd3;" glyph-name="space" />
<glyph unicode="&#xd4;" glyph-name="space" />
<glyph unicode="&#xd5;" glyph-name="space" />
<glyph unicode="&#xd6;" glyph-name="space" />
<glyph unicode="&#xd7;" glyph-name="space" />
<glyph unicode="&#xd8;" glyph-name="space" />
<glyph unicode="&#xd9;" glyph-name="space" />
<glyph unicode="&#xda;" glyph-name="space" />
<glyph unicode="&#xdb;" glyph-name="space" />
<glyph unicode="&#xdc;" glyph-name="space" />
<glyph unicode="&#xdd;" glyph-name="space" />
<glyph unicode="&#xde;" glyph-name="space" />
<glyph unicode="&#xdf;" glyph-name="space" />
<glyph unicode="&#xe0;" glyph-name="space" />
<glyph unicode="&#xe1;" glyph-name="space" />
<glyph unicode="&#xe2;" glyph-name="space" />
<glyph unicode="&#xe3;" glyph-name="space" />
<glyph unicode="&#xe4;" glyph-name="space" />
<glyph unicode="&#xe5;" glyph-name="space" />
<glyph unicode="&#xe6;" glyph-name="space" />
<glyph unicode="&#xe7;" glyph-name="space" />
<glyph unicode="&#xe8;" glyph-name="space" />
<glyph unicode="&#xe9;" glyph-name="space" />
<glyph unicode="&#xea;" glyph-name="space" />
<glyph unicode="&#xeb;" glyph-name="space" />
<glyph unicode="&#xec;" glyph-name="space" />
<glyph unicode="&#xed;" glyph-name="space" />
<glyph unicode="&#xee;" glyph-name="space" />
<glyph unicode="&#xef;" glyph-name="space" />
<glyph unicode="&#xf0;" glyph-name="space" />
<glyph unicode="&#xf1;" glyph-name="space" />
<glyph unicode="&#xf2;" glyph-name="space" />
<glyph unicode="&#xf3;" glyph-name="space" />
<glyph unicode="&#xf4;" glyph-name="space" />
<glyph unicode="&#xf5;" glyph-name="space" />
<glyph unicode="&#xf6;" glyph-name="space" />
<glyph unicode="&#xf7;" glyph-name="space" />
<glyph unicode="&#xf8;" glyph-name="space" />
<glyph unicode="&#xf9;" glyph-name="space" />
<glyph unicode="&#xfa;" glyph-name="space" />
<glyph unicode="&#xfb;" glyph-name="space" />
<glyph unicode="&#xfc;" glyph-name="space" />
<glyph unicode="&#xfd;" glyph-name="space" />
<glyph unicode="&#xfe;" glyph-name="space" />
<glyph unicode="&#xff;" glyph-name="space" />
<glyph unicode="&#x2013;" glyph-name="space" />
<glyph unicode="&#x2014;" glyph-name="space" />
<glyph unicode="&#x2018;" glyph-name="space" />
<glyph unicode="&#x2019;" glyph-name="space" />
<glyph unicode="&#x201a;" glyph-name="space" />
<glyph unicode="&#x201c;" glyph-name="space" />
<glyph unicode="&#x201d;" glyph-name="space" />
<glyph unicode="&#x201e;" glyph-name="space" />
<glyph unicode="&#x2022;" glyph-name="space" />
<glyph unicode="&#x2039;" glyph-name="space" />
<glyph unicode="&#x203a;" glyph-name="space" />
</font>
</defs>
</svg>
