<?xml version="1.0" standalone="no"?>
<!DOCTYPE svg PUBLIC "-//W3C//DTD SVG 1.1//EN" "http://www.w3.org/Graphics/SVG/1.1/DTD/svg11.dtd">
<svg xmlns="http://www.w3.org/2000/svg">
<defs >
<font id="Updock" horiz-adv-x="453" ><font-face
    font-family="Updock"
    units-per-em="1000"
    panose-1="0 0 0 0 0 0 0 0 0 0"
    ascent="900"
    descent="-350"
    alphabetic="0" />
<glyph unicode=" " glyph-name="space" horiz-adv-x="188" />
<glyph unicode="!" glyph-name="exclam" horiz-adv-x="216" d="M99 169L94 575Q94 588 101 598T125 609Q147 609 152 597T156 575L112 169H99ZM102 1Q88 1 78 11T68 35Q68 49 78 58T102 68Q116 68 125 59T135 35Q135 21 126 11T102 1Z" />
<glyph unicode="&quot;" glyph-name="quotedbl" horiz-adv-x="203" d="M149 371Q139 371 142 386Q145 397 151 421T163 470T172 509Q173 516 176 520Q177 521 181 521Q186 521 192 517T202 506Q205 501 203 498Q195 479 186 455T169 409T157 377Q154 371 149 371ZM67
371Q58 371 60 386Q63 397 69 421T81 470T90 509Q91 516 94 520Q95 521 99 521Q104 521 111 517T121 506Q121 505 121 503T121 498Q113 479 104 455T87 409T75 377Q74 371 67 371Z" />
<glyph unicode="#" glyph-name="numbersign" horiz-adv-x="355" d="M90 0L113 103H48L53 124H118L133 192H69L74 214H138L163 316H197L173 214H238L262 316H297L273 214H338L333 192H268L252 124H317L313 103H247L223 0H189L213 103H148L123 0H90ZM217 124L234
192H168L152 124H217Z" />
<glyph unicode="$" glyph-name="dollar" horiz-adv-x="260" d="M95 -50L100 2Q68 6 49 21T30 60V63Q30 74 35 81T48 89Q63 89 72 74Q72 28 101 17L117 178Q98 189 82 199T56 227T45 276Q45 323 70 346T135 371L140 418H157L153 371Q186 369 201 355T216 324Q216
291 193 291Q176 291 178 311Q178 316 179 321T181 330Q181 339 175 347T151 358L139 225Q160 213 181 199T216 164T230 107Q230 58 201 30T121 1H118L113 -50H95ZM77 299Q77 275 90 261T122 234L134 359Q105 357 91 341T77 299ZM172 130Q164 142 154 151T133 167L119
14H121Q149 15 168 38T187 89Q187 100 184 110T172 130Z" />
<glyph unicode="%" glyph-name="percent" horiz-adv-x="489" d="M32 5L343 480Q327 468 308 468Q293 468 283 475Q244 403 188 403Q152 403 133 434Q116 460 116 498Q116 562 156 617Q200 676 262 676Q294 676 311 655T328 600Q328 530 287 483L288 481Q300 476
307 476Q319 476 334 484T356 503L456 671H488L64 5H32ZM193 412Q217 412 242 434Q263 454 275 477L277 481Q263 504 263 527Q263 551 273 570Q285 593 307 593H313Q316 592 319 592Q319 662 274 662Q237 662 202 615Q176 579 162 534Q155 512 155 482Q155 412
193 412ZM274 -1Q237 -1 217 29Q199 55 199 94Q199 158 239 213Q283 272 345 272Q417 272 417 196Q417 136 376 71Q331 -1 274 -1ZM274 9Q322 9 364 85Q401 152 401 205Q401 259 357 259Q320 259 285 212Q257 176 245 131Q241 116 239 103T237 79Q237 9 274 9Z"
/>
<glyph unicode="&amp;" glyph-name="ampersand" horiz-adv-x="447" d="M125 -8Q89 -8 63 12T37 67Q37 132 133 183Q93 238 93 293Q93 335 117 364T182 394Q217 394 239 372T262 315Q262 257 184 204Q201 179 221 154T267 103Q277 117 284 130T298 155Q318 194
329 206Q351 231 379 231Q395 231 408 221T421 195Q421 182 412 172T391 161Q365 161 365 196Q365 205 360 205Q344 205 317 159Q300 126 280 91Q347 24 374 24Q398 24 421 53L432 44Q395 -7 344 -7Q297 -7 243 49Q189 -8 125 -8ZM174 216Q225 251 225 310Q225
336 214 356Q200 379 177 379Q155 379 141 362T127 321Q127 275 174 216ZM154 17Q194 17 231 59Q206 85 184 112T140 170Q89 130 89 90Q89 61 107 39T154 17Z" />
<glyph unicode="&apos;" glyph-name="quotesingle" horiz-adv-x="121" d="M67 371Q58 371 60 386Q63 397 69 421T81 470T90 509Q91 516 94 520Q95 521 99 521Q104 521 111 517T121 506Q121 505 121 503T121 498Q113 479 104 455T87 409T75 377Q74 371 67 371Z" />
<glyph unicode="(" glyph-name="parenleft" horiz-adv-x="412" d="M328 -170Q245 -170 184 -140T84 -56T25 64T6 204Q6 274 23 344T72 478T152 590T261 667T397 695Q407 695 414 694T421 684Q421 674 406 674H397Q315 674 252 634T145 526T80 378T58 213Q58 143
74 78T124 -39T208 -120T328 -150Q345 -150 345 -160Q344 -170 328 -170Z" />
<glyph unicode=")" glyph-name="parenright" horiz-adv-x="412" d="M10 -170Q0 -170 -7 -169T-14 -159Q-14 -149 1 -149H10Q93 -149 156 -109T262 -1T327 147T349 312Q349 383 333 448T283 564T199 645T79 675Q62 675 62 685Q63 695 79 695Q162 695 223 665T323
581T382 461T401 321Q401 251 384 181T335 47T255 -65T146 -142T10 -170Z" />
<glyph unicode="*" glyph-name="asterisk" horiz-adv-x="470" d="M257 240Q223 239 223 280Q223 296 236 323Q249 350 249 367V395Q249 407 247 411L244 410Q238 410 236 408L209 393Q196 386 172 351Q150 321 129 316Q89 316 89 350Q89 388 148 393Q175 395 223
420Q233 423 233 429Q233 435 201 452Q184 456 167 460T133 468Q89 479 89 505Q89 543 124 543Q148 543 182 495Q215 446 246 446Q246 446 248 448Q249 449 249 462V491Q249 507 237 535Q224 562 224 578Q226 617 258 617Q273 617 283 605T293 578Q293 565 280
542Q267 506 267 461Q267 450 270 448Q272 446 271 446Q279 446 280 452L306 465Q320 473 345 508Q369 540 387 543Q424 543 427 510Q427 471 367 466Q282 445 282 430Q282 424 297 416Q302 414 306 412T316 408Q318 406 384 390Q427 380 427 352Q427 338 417 327T391
316Q370 316 343 354Q321 384 280 409Q278 411 272 411H268Q268 410 268 408T266 401Q266 365 279 329Q292 293 292 280Q292 242 257 240Z" />
<glyph unicode="+" glyph-name="plus" horiz-adv-x="388" d="M178 41V161H60V189H178V309H206V189H328V161H206V41H178Z" />
<glyph unicode="," glyph-name="comma" horiz-adv-x="192" d="M49 -65Q42 -65 42 -55Q42 -49 50 -47Q78 -41 94 -16Q105 2 107 27Q100 15 85 15Q59 15 57 44Q57 58 66 69T88 81Q118 81 122 48Q123 44 123 40T123 31Q123 -38 57 -64V-63Q51 -65 49 -65Z" />
<glyph unicode="-" glyph-name="hyphen" horiz-adv-x="348" d="M61 233L64 253H297L294 233H61Z" />
<glyph unicode="." glyph-name="period" horiz-adv-x="192" d="M90 1Q76 1 66 11T56 35Q56 49 66 58T90 68Q104 68 113 59T123 35Q123 21 114 11T90 1Z" />
<glyph unicode="/" glyph-name="slash" horiz-adv-x="480" d="M38 -92L445 614H478L69 -92H38Z" />
<glyph unicode="0" glyph-name="zero" horiz-adv-x="289" d="M138 -4Q100 -4 75 24T38 94T25 176Q25 221 39 266T82 343T150 374Q189 374 214 347T251 279T264 192Q264 146 250 101T207 26T138 -4ZM138 7Q211 7 211 192Q211 282 197 322T151 363Q79 363 78 185Q78
136 81 96T97 32T138 7Z" />
<glyph unicode="1" glyph-name="one" horiz-adv-x="289" d="M69 16L104 20Q127 23 130 47Q131 52 132 80T133 172V282Q133 313 127 326T97 340H58V351Q96 355 128 362T183 381Q181 332 180 283T179 184Q179 120 179 88T180 52Q180 39 185 31T205 21L237 16V4Q209
5 188 5T153 6Q139 6 118 6T69 4V16Z" />
<glyph unicode="2" glyph-name="two" horiz-adv-x="289" d="M223 -25Q224 -20 224 -17T224 -10Q224 -2 221 1T204 5H117Q101 5 77 5T21 3Q29 25 49 53T97 110Q141 153 171 190T201 275Q201 311 183 336T129 361Q102 361 82 345T62 300Q62 278 75 260T111 242Q124
242 141 259Q134 217 89 217Q61 217 43 235T25 282Q25 324 57 349T133 374Q185 374 221 349T257 281Q257 252 248 230T221 188Q204 170 174 145T115 96T70 52H250L235 -25H223Z" />
<glyph unicode="3" glyph-name="three" horiz-adv-x="289" d="M112 -4Q81 -4 52 7T23 47Q23 71 45 71Q64 71 78 39Q85 23 95 16T121 9Q159 9 181 33T204 109Q204 194 145 194Q125 194 110 176Q103 166 96 163T84 159Q68 159 68 170Q68 177 72 184T90 196Q138 211
160 238T182 303Q182 359 127 359Q106 359 89 345T71 308Q71 268 105 268Q121 268 138 281Q123 245 88 245Q66 245 52 257T37 291Q37 316 52 334T91 364T141 375Q180 375 207 358T235 304Q235 268 208 247T144 207H159Q200 207 229 187Q246 175 254 159T262 126Q262
96 242 66T187 16T112 -4Z" />
<glyph unicode="4" glyph-name="four" horiz-adv-x="289" d="M112 4L113 17Q145 17 157 24T169 65V122H23V141L204 377H217V141H281V122H217L216 71Q216 45 220 34T236 20T272 18V4Q247 5 228 5T195 6Q181 6 160 6T112 4ZM169 141V307L44 141H169Z" />
<glyph unicode="5" glyph-name="five" horiz-adv-x="289" d="M112 -4Q92 -4 71 1T35 18T20 48V50Q20 73 39 73Q61 73 73 41Q85 10 116 10Q202 10 202 130Q202 217 138 217Q110 217 87 201T62 155Q60 144 51 141Q39 141 39 152Q39 155 40 163T42 181Q47 216 51
251T58 321L59 379Q97 347 142 347Q185 347 222 381H226Q216 340 189 322T120 304Q108 304 96 305T70 309L58 196Q77 216 103 225T158 235Q209 235 233 206T258 137Q258 104 241 72T192 18T112 -4Z" />
<glyph unicode="6" glyph-name="six" horiz-adv-x="289" d="M150 -3Q109 -3 84 19T47 78T35 158Q35 212 51 262T102 343T186 375Q211 375 230 366Q254 354 254 333Q254 308 231 308Q216 308 201 334Q188 359 166 359Q94 359 88 191Q98 209 120 223T169 238Q223
238 248 205T274 131Q274 99 260 68T218 17T150 -3ZM151 7Q222 7 222 125Q222 222 166 222Q138 222 121 206T95 169T85 130Q84 70 99 39T151 7Z" />
<glyph unicode="7" glyph-name="seven" horiz-adv-x="289" d="M125 -5Q98 -5 98 21Q98 37 106 82T149 195Q166 228 191 262T239 319H110Q88 319 76 316T58 301T43 258H30L61 409H75Q73 398 72 391T71 381Q71 365 92 365H271V346Q237 296 215 259T181 194Q164 154
160 116T156 35Q156 11 146 3T125 -5Z" />
<glyph unicode="8" glyph-name="eight" horiz-adv-x="291" d="M145 -2Q116 -2 89 8T43 39T25 87Q25 149 104 189Q37 223 37 278Q37 319 69 344T145 370Q186 370 219 349T253 289Q253 240 193 204Q266 164 266 108Q267 59 232 29T145 -2ZM180 211Q214 244 214 281Q214
313 195 336T143 359Q114 359 94 342T73 296Q73 263 105 246T180 211ZM145 10Q179 10 204 30T230 83Q230 108 216 123T176 152T116 183Q66 151 66 95Q68 10 145 10Z" />
<glyph unicode="9" glyph-name="nine" horiz-adv-x="289" d="M119 -4Q94 -4 71 6T48 39Q50 63 72 63Q87 63 101 37Q115 10 136 10Q209 10 212 180Q196 156 174 144T132 132Q85 132 55 163T25 242Q25 278 40 308T83 356T146 374Q189 374 214 351T252 291T264 209Q264
155 248 106T200 27T119 -4ZM134 149Q178 149 196 181T214 262Q214 309 197 336T147 363Q78 363 78 250Q78 149 134 149Z" />
<glyph unicode=":" glyph-name="colon" horiz-adv-x="192" d="M88 185V186Q62 186 60 215Q60 229 69 240T89 252Q122 252 122 215Q122 202 112 194T88 185ZM88 1V2Q62 2 60 31Q60 45 69 56T89 68Q122 68 122 31Q122 18 112 10T88 1Z" />
<glyph unicode=";" glyph-name="semicolon" horiz-adv-x="192" d="M89 185V186Q63 186 61 215Q61 229 70 240T90 252Q123 252 123 215Q123 202 113 194T89 185ZM51 -63Q45 -63 45 -55Q45 -50 53 -48Q101 -37 109 25Q102 15 88 15Q62 15 60 44Q60 58 69 69T91 81Q123
81 123 35Q123 -34 59 -61Q53 -63 51 -63Z" />
<glyph unicode="&lt;" glyph-name="less" horiz-adv-x="266" d="M60 177L174 325H206L92 177L206 28H174L60 177Z" />
<glyph unicode="=" glyph-name="equal" horiz-adv-x="388" d="M60 252H328V224H60V252ZM60 129H328V101H60V129Z" />
<glyph unicode="&gt;" glyph-name="greater" horiz-adv-x="266" d="M206 177L92 28H60L174 177L60 325H92L206 177Z" />
<glyph unicode="?" glyph-name="question" horiz-adv-x="347" d="M172 114Q160 114 154 129T148 160Q148 183 161 208T205 262Q236 290 249 324T263 403Q263 444 245 476T187 508Q158 508 137 488T104 438T93 379Q93 350 105 329T144 307Q158 307 173 316T189
345Q189 350 193 350T197 346Q197 318 180 307T144 296Q101 296 81 323T60 386Q60 417 75 448T119 500T191 521Q253 521 280 492T307 406Q307 371 293 344T261 297T226 264Q203 245 187 224T170 180Q170 161 178 153T187 131Q187 124 184 119T172 114ZM139 1Q125
1 115 11T105 35Q105 49 115 58T139 68Q153 68 162 59T172 35Q172 21 163 11T139 1Z" />
<glyph unicode="@" glyph-name="at" horiz-adv-x="550" d="M261 -116Q159 -116 94 -53Q19 18 19 150Q19 259 87 336Q163 421 291 421Q386 421 447 372Q513 318 513 222Q513 108 459 34Q420 -20 379 -20Q306 -20 309 102Q284 0 231 0Q167 0 167 119Q167 126 167
132T168 146Q173 200 194 241Q223 295 266 295Q313 295 319 224L326 293Q347 289 360 311Q364 318 367 309L350 160Q348 138 347 120T345 84Q345 -9 380 -9Q413 -9 447 61Q483 135 483 217Q483 308 427 359Q378 404 296 404Q186 404 120 323Q61 249 61 145Q61 20
125 -45Q181 -102 261 -102Q356 -102 431 -42Q512 23 512 117Q512 151 525 151Q540 151 540 113Q540 11 452 -55Q372 -116 261 -116ZM239 11Q287 11 308 150Q311 167 311 187Q311 229 301 256Q290 288 271 285Q257 285 244 266T221 215T207 147Q206 140 206 132T205
116Q205 73 214 43Q223 8 239 11Z" />
<glyph unicode="A" glyph-name="A" horiz-adv-x="852" d="M243 -86Q175 -86 122 -59T37 17T6 127Q6 184 32 230T104 304T209 332Q274 332 318 288Q358 247 358 185Q358 128 324 94T231 59Q203 59 190 69T176 89Q176 95 181 95Q183 95 186 91T193 84Q201 77 211
75T232 72Q282 72 310 103T339 185Q339 241 303 278T205 316Q153 316 116 291T58 224T37 132Q37 77 64 32T137 -41T244 -68Q354 -68 436 6T571 222Q594 285 618 346T667 455T718 527Q686 546 641 563T550 593T471 605Q421 605 379 588T311 538T286 454Q286 389
327 347T437 305Q495 305 533 332T572 412Q572 454 544 473Q540 475 537 477T533 483Q533 490 541 490Q543 490 555 485Q592 464 592 409Q592 351 547 319T436 287Q386 287 345 308T279 365T255 447Q255 510 283 556T363 627T480 653Q521 653 559 639T641 599T736
543Q790 578 835 578Q867 578 892 563T918 519Q918 498 903 488T867 477Q857 477 842 479T817 485Q806 449 795 402T776 281Q769 186 732 116T629 16Q640 19 650 19T667 20Q685 20 705 15T743 5T771 0Q789 0 789 16Q789 21 785 28T776 39Q776 47 783 47Q788 47
795 37T803 13Q803 -20 760 -20Q741 -20 711 -12Q665 -1 644 1T605 5Q634 40 652 68T683 124T705 184T723 259H607L595 225Q485 -86 243 -86ZM860 493Q877 493 887 499T898 519Q898 541 876 551T832 561Q788 561 751 533L802 508Q807 519 810 523T821 528Q825 528
827 525T829 519Q829 510 823 499Q831 496 841 495T860 493ZM729 280Q751 389 795 492Q790 494 775 501T734 521Q681 471 613 280H729Z" />
<glyph unicode="B" glyph-name="B" horiz-adv-x="675" d="M136 -35Q99 -35 82 -19T65 17Q65 33 78 50T121 68Q160 68 242 34Q259 60 274 98T300 188Q306 211 330 354Q365 556 437 639Q386 657 320 657Q241 657 178 624T78 532T41 399Q41 361 54 326T93 268T154
245Q191 245 218 265T260 319T276 393Q276 433 259 465T204 498Q168 498 151 475T134 429Q134 414 141 405T159 395Q167 395 171 399H172Q174 399 174 396Q174 394 170 390T158 386Q139 386 130 401T122 439Q124 464 146 487T206 510Q238 510 258 492T289 445T299
385Q299 314 256 272T147 229Q99 229 66 253T17 315T0 397Q0 461 25 511T95 597T196 652T317 671Q394 671 450 652Q491 692 537 692Q566 692 566 683Q566 677 559 677Q551 678 545 678T534 679Q518 679 500 672T468 645Q593 601 593 503Q593 463 569 430T508 376T432
354Q487 349 532 328T604 269T631 180Q631 121 599 77T515 8T402 -17Q344 -17 258 13Q224 -15 196 -25T136 -35ZM381 358Q407 358 436 368T490 398T532 442T548 498Q548 591 457 631Q405 552 382 375Q381 371 381 367T381 358ZM380 3Q438 3 481 27T549 96T573 199Q573
247 546 279T474 327T380 347Q372 279 366 236T354 175Q330 78 272 25Q334 3 380 3ZM146 -21Q198 -21 232 24Q169 47 140 47Q87 47 87 10Q87 -21 146 -21Z" />
<glyph unicode="C" glyph-name="C" horiz-adv-x="703" d="M383 -39Q292 -39 222 0T111 110T71 270Q71 320 86 368Q33 403 11 443T-12 528Q-12 578 10 620T79 689T195 715Q245 715 290 695T359 630Q405 640 453 640Q506 640 549 627T619 586T645 512Q645 460 617
421T542 356T441 316T333 302Q273 302 224 311T139 336Q137 317 136 300T134 266Q134 134 200 57T386 -21Q445 -21 493 -1T569 55T597 139Q597 171 582 194T536 218Q520 218 505 208T489 181Q489 177 489 173T490 165Q490 155 484 155Q474 155 474 181Q474 207
492 223T536 239Q579 239 606 210T634 138Q634 96 612 63T552 8T471 -27T383 -39ZM20 533Q20 499 38 464T93 397Q125 485 190 543T339 625Q301 697 193 697Q143 697 104 674T43 613T20 533ZM329 322Q378 322 426 333T513 365T575 418T599 492Q599 531 578 560T521
605T444 621Q403 621 366 612Q375 586 375 554Q375 528 365 502T335 460T288 443Q278 443 278 451Q278 456 284 456Q309 456 324 472T348 510T356 552Q356 582 347 607Q267 583 214 519T142 362Q177 344 228 333T329 322Z" />
<glyph unicode="D" glyph-name="D" horiz-adv-x="738" d="M130 -36Q112 -36 93 -31T60 -15T47 13Q47 33 67 47T113 61Q140 61 172 51T225 30Q266 89 288 210Q304 299 316 370T349 499T410 600Q380 607 352 610T297 613Q222 613 163 582T70 496T36 372Q36 333 49
300T88 246T149 226Q182 226 205 246T241 299T254 368Q254 406 238 435T188 464Q162 464 142 444T122 397Q122 366 146 366Q150 366 154 366T158 363Q158 357 147 357Q112 357 112 397Q112 429 135 452T190 475Q219 475 238 457T267 412T277 356Q277 290 237 251T138
212Q93 212 62 234T14 292T-3 370Q-3 430 21 478T88 559T184 611T298 629Q362 629 423 617Q461 650 500 650Q531 650 531 641Q531 637 526 637Q524 637 521 637T513 638Q509 639 505 639T499 639Q466 639 441 611Q566 580 638 503T710 302Q710 207 669 135T556
22T387 -19Q324 -19 239 10Q212 -13 192 -24T130 -36ZM363 1Q426 1 480 24T574 87T636 182T659 300Q659 532 430 596Q414 572 400 524T375 414T353 281Q348 244 339 197T310 103T253 22Q312 1 363 1ZM137 -23Q180 -23 216 20Q162 42 130 42Q104 42 91 32T78 8Q78
-4 88 -10T113 -20T137 -23Z" />
<glyph unicode="E" glyph-name="E" horiz-adv-x="584" d="M317 -37Q239 -37 176 -11T76 65T38 189Q38 270 87 328T216 411Q176 451 176 510Q176 555 199 585T261 631T344 647Q377 647 406 636T454 603T473 550Q473 523 453 502T403 481Q381 481 369 495T356 524Q356
532 361 532Q365 532 369 522Q373 512 382 503T404 494Q423 494 436 510T449 548Q449 587 419 610T349 634Q291 634 258 598T224 502Q224 453 250 421Q264 425 283 427T320 430Q387 430 387 397Q387 382 371 373T331 364Q300 364 276 374T228 401Q184 385 153 351T107
271T91 175Q91 118 120 74T197 4T305 -22Q370 -22 422 2T506 70T537 179Q537 227 511 260T437 294Q408 294 391 280T373 242Q373 232 377 229T386 225Q387 225 387 224Q387 218 379 218Q372 218 366 225T360 248Q360 276 383 293T435 311Q497 311 533 273T570 173Q570
106 535 59T442 -12T317 -37ZM331 377Q347 377 358 382T369 396Q369 407 356 412T320 417Q305 417 290 415T259 409Q275 394 292 386T331 377Z" />
<glyph unicode="F" glyph-name="F" horiz-adv-x="590" d="M187 -53Q126 -53 80 -30T7 35T-20 131Q-20 167 -2 200T47 254T118 275Q160 275 190 251T220 182Q220 145 197 119T137 92Q127 92 127 99Q127 104 139 104Q167 104 184 127T201 179Q201 220 179 240T118
260Q88 260 64 242T25 194T11 130Q11 56 55 10T174 -36Q256 -36 310 8T398 126T453 294H368Q358 294 358 300Q358 309 372 309H457Q471 368 481 411T504 489T535 557Q364 622 286 622Q234 622 197 600T139 541T118 456Q118 403 148 371T232 339Q283 339 315 371T347
453Q347 464 353 464Q361 464 361 442Q361 409 344 383T297 341T231 325Q165 325 124 367T83 476Q83 529 107 568T175 630T271 653Q336 653 403 630T549 574Q582 609 614 609Q622 609 622 605Q622 602 618 602Q605 602 590 592T563 568Q624 544 676 533T777 522Q787
522 808 525T849 536T868 555Q868 569 881 569Q888 569 888 559Q888 534 854 521T768 508Q731 508 676 517T551 550Q518 489 494 309H564Q573 309 573 303Q573 294 560 294L493 293Q480 188 443 110T343 -10T187 -53Z" />
<glyph unicode="G" glyph-name="G" horiz-adv-x="716" d="M188 -298Q120 -298 67 -278T-18 -219T-49 -122Q-49 -71 -22 -38T53 12T156 29Q231 29 319 10T520 -41Q530 -21 539 5T554 75Q481 26 392 26Q316 26 260 58T175 149T146 284Q55 342 55 444Q55 501 81 546T152
617T254 643Q287 643 317 627T363 588Q432 616 500 616Q545 616 583 601T645 558T669 486Q669 434 634 391T541 315T418 266T290 249Q267 249 246 251T206 257Q212 165 259 107Q311 43 401 43Q488 43 560 109Q563 148 566 186T578 255T601 304T641 323Q663 323
673 309T683 275Q683 235 660 190T589 101Q582 56 575 15T559 -54Q627 -68 674 -75T747 -83Q820 -83 869 -40Q892 -20 892 -35Q892 -39 887 -47Q853 -105 747 -105Q675 -105 552 -74Q526 -145 471 -195T342 -271T188 -298ZM146 315Q154 403 204 472T336 577Q302
609 246 609Q199 609 160 589T98 532T75 448Q75 361 145 315H146ZM276 277Q333 277 395 293T510 339T597 408T631 494Q631 527 613 549T565 582T504 593Q447 593 378 561Q390 536 390 509Q390 480 377 454T344 412T300 395Q282 395 282 403Q282 412 293 412Q314
412 330 426T357 462T367 506Q367 517 365 528T356 550Q285 508 246 438T205 284Q222 280 239 279T276 277ZM589 141Q607 159 622 184T648 234T658 279Q658 308 640 308Q624 308 614 292T599 251T592 196T589 141ZM178 -279Q223 -279 275 -261T377 -213T463 -143T513
-61Q401 -26 313 -9T169 8Q119 8 79 -4T15 -43T-9 -116Q-9 -185 40 -232T178 -279Z" />
<glyph unicode="H" glyph-name="H" horiz-adv-x="809" d="M179 -46Q115 -46 64 -17T-17 62T-47 176Q-47 290 38 345Q16 388 16 441Q16 497 39 540T105 608T203 633Q272 633 342 606T500 539Q543 585 585 585Q604 585 620 575T636 545Q636 526 621 515T580 503Q553
503 508 520Q470 458 469 339Q469 333 469 325T467 307H693Q717 414 744 491T814 600Q842 620 863 620Q892 620 909 599T926 548Q926 534 920 510Q916 501 912 501Q905 501 909 513Q914 531 914 547Q914 606 863 606H860Q838 606 819 580T784 508T756 409T736 299T723
193T718 108Q718 5 749 5Q764 5 779 21T806 60T824 104Q829 118 832 118Q837 118 837 104V99Q825 60 802 27Q772 -14 738 -14Q703 -14 687 19T670 113Q670 186 691 292H466Q459 189 428 113T336 -4T179 -46ZM174 -27Q240 -27 284 -1T355 72T398 180T422 313Q430
375 444 431T488 526Q401 563 339 582T219 601Q167 601 127 579T65 517T42 424Q42 384 55 354Q80 367 113 367Q199 367 237 299Q280 329 280 387Q280 400 288 400Q293 400 293 387Q293 323 242 288Q256 258 256 230Q256 177 227 138T145 98Q137 98 137 106Q137
114 149 114Q188 114 212 147T237 225Q237 241 234 254T226 278Q193 264 161 264Q86 264 48 323Q-11 272 -11 167Q-11 112 13 69T78 -1T174 -27ZM581 515Q600 515 611 523T622 544Q622 555 612 562T583 569Q564 569 548 559T518 533Q553 515 581 515ZM159 279Q194
279 220 292Q188 348 107 348Q83 348 64 335Q96 279 159 279Z" />
<glyph unicode="I" glyph-name="I" horiz-adv-x="484" d="M186 -52Q133 -52 90 -28T21 38T-4 134Q-4 183 18 226T78 297T166 324Q200 324 226 307T267 260T283 197Q283 154 255 126T183 98Q144 98 126 123T107 182Q107 212 120 212Q123 212 123 207Q120 200 120
191T119 178Q119 150 135 129T179 107Q217 107 241 133T266 198Q266 228 253 254T218 296T167 312Q125 312 96 289T52 230T36 152Q36 67 74 14T191 -39Q244 -39 279 -13T335 60T368 166T386 293Q378 291 350 291Q317 291 289 308T242 355T224 426Q224 494 261 540T358
611T486 636Q538 636 572 621Q574 619 574 617Q574 613 561 612Q541 610 522 592T487 547T463 497Q501 468 501 420Q501 338 433 306Q431 207 404 126T323 -4T186 -52ZM362 302Q368 302 376 302T387 304L390 357Q392 388 401 423T427 499Q421 501 410 501Q389 501
374 487T359 452Q359 432 368 423Q374 420 374 418Q374 414 369 414Q359 414 354 426T348 451Q348 477 368 494T415 512Q426 512 432 510Q479 615 540 616Q513 623 479 623Q424 623 376 603T296 544T256 453Q255 446 255 437T254 417Q254 360 283 331T362 302ZM433
321Q464 338 476 363T488 419Q488 442 479 459T459 487Q447 450 441 409T433 321Z" />
<glyph unicode="J" glyph-name="J" horiz-adv-x="486" d="M106 -272Q46 -272 -2 -243T-79 -163T-108 -52Q-108 6 -84 54T-15 131T85 160Q127 160 159 140T209 86T227 9Q227 -50 193 -85T106 -121Q81 -121 68 -113T55 -97Q55 -88 61 -88Q68 -101 80 -105T105 -109Q154
-109 182 -76T210 9Q210 47 195 78T151 128T85 147Q35 147 -2 121T-60 52T-81 -45Q-81 -101 -57 -149T9 -226T107 -256Q173 -256 222 -223T306 -134T361 -4T391 151T401 314Q401 434 424 509T490 604Q486 605 474 607T444 609Q390 609 343 587T266 524T236 429Q236
401 247 379T288 356Q315 356 334 378T354 429Q354 438 352 448T348 461Q346 465 346 466Q346 472 352 472Q357 472 362 462T367 428Q367 394 344 369T286 344Q249 344 232 367T214 423Q214 480 247 523T333 592T446 617Q461 617 481 613T504 609H507Q508 608 508
606Q508 605 501 600T487 583Q460 543 452 503T444 411Q444 377 445 336T447 242Q447 142 427 50T366 -115T260 -230T106 -272Z" />
<glyph unicode="K" glyph-name="K" horiz-adv-x="884" d="M230 -114Q170 -114 120 -87T39 -13T9 96Q9 152 35 195T107 264T208 290Q270 290 311 251T352 149Q352 93 318 60T230 26Q204 26 191 35T178 55Q178 59 181 59Q183 59 184 56T192 48Q197 44 206 40T230
36Q280 36 309 67T338 149Q338 205 302 242T208 279Q157 279 118 255T57 190T35 96Q35 42 61 -3T130 -74T228 -101Q311 -101 369 -65T464 35T518 180T535 353Q535 437 542 491T568 578T619 628H614Q571 628 527 617T446 584T385 532T362 463Q362 438 379 422T421
405Q447 405 465 422T484 468Q484 474 482 483T479 494Q479 499 485 499Q491 499 494 486T497 466Q497 433 472 412T413 390Q380 390 360 411T340 465Q340 505 367 537T437 592T530 627T622 639Q629 639 638 639T647 637L633 622Q604 591 590 543T576 429Q576 424
577 405T579 361T581 317T582 291Q635 291 680 319T760 392T819 489Q839 529 856 560T895 609T945 627Q960 627 979 618T999 594Q999 588 994 588L982 601Q969 614 953 614Q920 614 895 550Q885 524 874 500T849 455Q823 412 786 375T705 314T614 285Q662 283 689
260T733 202T767 132Q780 105 798 75T836 17T878 -26T918 -43Q940 -43 950 -34T961 -7Q962 -4 962 -1T963 5Q964 15 969 15Q978 15 978 -11Q978 -56 905 -56Q853 -56 818 -33T760 30T718 122Q693 190 661 231T582 282Q579 160 539 71T421 -66T230 -114Z" />
<glyph unicode="L" glyph-name="L" horiz-adv-x="465" d="M474 -119Q411 -119 346 -86T200 3Q154 -30 93 -30Q51 -30 16 -16T-40 27T-62 97Q-62 139 -13 139Q57 139 196 42Q242 106 278 314Q207 314 152 343T67 423T36 537Q36 580 54 608Q77 640 116 640Q150 640
178 618T217 563Q217 553 211 553Q207 553 205 555T202 560Q172 624 118 624Q53 624 53 528Q53 470 84 425T167 355T280 330Q286 385 299 439T334 537T386 609T458 636Q499 636 518 614T537 557Q537 524 522 485T479 411Q451 375 411 349T327 316Q317 218 296 147T223
21Q249 3 284 -14T358 -47T433 -71T498 -80Q539 -80 558 -61T578 -10Q578 3 575 16Q575 22 580 22Q586 22 588 11T591 -14Q591 -60 559 -89T474 -119ZM328 333Q370 340 407 364T470 422Q493 451 505 486T518 553Q518 579 508 596T473 613Q436 613 411 588T369 520T343
429T328 333ZM87 -14Q139 -14 175 19Q39 111 -14 111Q-42 111 -42 88Q-42 64 -22 41T29 2T87 -14Z" />
<glyph unicode="M" glyph-name="M" horiz-adv-x="985" d="M149 -52Q102 -52 67 -31T13 28T-7 113Q-7 151 8 187T49 251T107 296T172 313Q226 313 253 273T281 180Q281 146 270 116T238 68T185 49Q159 49 141 65T122 108Q122 144 137 144Q140 144 140 141Q140 138
137 127Q134 117 134 109Q134 87 148 72T184 56Q212 56 230 76T258 125T268 181Q268 230 243 267T170 305Q127 305 94 276T43 202T24 106Q24 68 37 34T76 -21T139 -42Q191 -42 227 -15T286 59T322 164T344 282Q349 322 354 362T369 441Q383 497 402 543T449 619Q412
624 370 639T274 654Q220 654 177 632T109 571T84 478Q84 429 111 392T187 355Q222 355 251 370T297 411T315 472Q315 498 302 516T264 535Q230 535 224 507Q224 504 220 504Q218 504 216 506Q215 522 231 534T265 546Q296 546 313 525T331 471Q331 432 311 404T258
359T186 343Q128 343 92 382T55 480Q55 539 86 581T168 646T277 669Q324 669 459 629Q506 671 550 671Q584 671 584 650Q584 635 570 627T534 615T491 612Q486 590 486 562Q486 525 492 481T509 385Q519 342 529 299T550 211Q553 200 556 175T561 122T564 70Q571
79 582 108T605 178T632 264T658 353T682 431T700 481Q775 658 870 658H878Q898 676 919 686T964 697Q1005 697 1005 667Q1005 632 952 632Q937 632 922 636T892 644Q871 614 856 569T831 472T816 369T811 275Q811 70 877 8Q896 -9 914 -9Q938 -9 954 12T971 57Q971
76 962 85L953 94Q953 97 957 97Q984 97 984 58Q984 36 972 17T939 -15T897 -28Q865 -28 839 -6Q753 63 753 278Q753 325 760 377T781 481T816 575T865 646Q806 648 744 520Q732 495 715 448T680 344T643 232T610 133T585 72Q571 45 565 34T553 23Q544 23 541 33T535
53Q531 74 526 96T510 153Q451 357 451 520Q451 567 468 618Q416 569 385 435Q374 388 369 334T359 226T344 124T313 41Q287 -2 243 -27T149 -52ZM954 644Q991 644 991 666Q991 688 962 688Q926 688 902 656Q915 652 930 648T954 644ZM509 620Q527 620 546 627T566
648Q566 663 546 663Q529 663 514 650T493 621Q495 620 499 620T509 620Z" />
<glyph unicode="N" glyph-name="N" horiz-adv-x="976" d="M248 -63Q186 -63 134 -35T52 43T21 154Q21 222 58 275Q12 333 12 417Q12 504 56 565T175 657T343 689Q387 689 429 680T520 654T632 615Q648 631 672 636T715 642Q734 642 746 636T758 615Q758 603 747
595T716 587Q704 587 689 590T657 598Q652 585 652 567Q652 523 664 486T696 410T744 320Q774 267 798 217T838 126T853 57Q853 16 839 -12Q862 2 875 36T895 141T901 334Q901 397 905 456T923 563T965 639T1041 668Q1079 668 1102 642T1126 572Q1126 551 1122
531T1107 493Q1083 455 1033 455Q1020 455 1020 461Q1020 466 1033 466Q1053 466 1069 474T1096 500Q1112 528 1112 571Q1112 605 1094 631T1040 657Q1004 657 981 629T944 553T925 449T920 335Q920 238 916 166T896 47T842 -24Q841 -25 835 -25Q831 -25 827 -24T822
-22Q825 -20 827 -12T829 4Q829 19 823 35Q802 86 767 149T696 277Q663 340 639 398T614 498Q614 552 637 604Q604 582 586 514Q571 457 567 397T558 275T535 154T475 42Q436 -6 377 -34T248 -63ZM251 -48Q314 -48 368 -14T466 95Q492 138 507 191T532 303T551
418T575 524Q592 585 623 609Q544 630 481 645T361 661Q269 661 197 633T83 548T41 408Q41 345 74 295Q123 350 199 350Q254 350 295 321T352 239Q441 301 441 401Q441 442 424 474T376 526T305 546Q258 546 223 518T188 443Q188 401 222 382Q231 382 231 377Q231
375 226 373Q222 373 212 378Q175 400 175 448Q175 500 211 532T299 564Q370 564 413 522T457 409Q457 287 356 221Q357 212 357 206T358 194Q358 144 330 109Q300 70 253 70Q240 70 231 72T221 78Q221 84 227 84Q229 84 234 84T246 83Q288 83 315 114T342 188Q342
196 342 202T340 212Q318 200 293 194T235 188Q140 188 75 256Q48 211 48 157Q48 96 73 50T144 -22T251 -48ZM714 597Q727 597 736 601T745 614Q745 624 736 628T714 633Q679 633 663 608Q683 603 695 600T714 597ZM235 204Q287 204 336 231Q324 278 289 307T206
336Q136 336 88 276Q151 204 235 204Z" />
<glyph unicode="O" glyph-name="O" horiz-adv-x="659" d="M310 -38Q220 -38 157 3T61 116T28 276Q28 402 86 498Q22 551 22 610Q22 656 53 680T131 705Q183 705 212 676Q217 671 217 668Q217 666 214 666T210 666Q192 680 173 687T132 695Q92 695 68 674T43 612Q43
558 95 513Q189 652 370 652Q433 652 476 629Q525 598 525 540Q618 462 618 321Q618 216 581 135T474 8T310 -38ZM317 435Q358 435 397 444T464 474T501 525Q462 567 413 567Q389 567 372 559T340 538Q335 538 335 545Q335 559 349 567T382 580T414 584Q436 584
458 579T502 556Q486 640 369 640Q298 640 231 594Q171 551 136 484Q177 462 223 449T317 435ZM315 -22Q374 -22 421 6T501 83T551 194T568 323Q568 441 513 509Q489 461 437 439T323 417Q274 417 221 430T128 468Q107 427 97 382T87 286Q87 227 102 172T146 73T217
4T315 -22Z" />
<glyph unicode="P" glyph-name="P" horiz-adv-x="567" d="M145 -36Q60 -36 60 26Q60 60 80 60Q86 60 86 50Q86 48 86 45T85 37Q84 32 84 28T84 22Q84 -20 139 -20Q229 -20 275 125Q282 147 293 201T318 343Q335 441 360 510T420 620Q398 628 370 633T308 638Q230
638 169 605T72 516T36 386Q36 348 49 314T87 259T147 238Q182 238 208 258T249 310T264 382Q264 421 248 451T195 482Q167 482 149 463T130 415Q130 386 151 384Q157 384 161 387Q166 387 166 383Q166 374 149 374Q136 374 125 386T113 414Q113 446 139 470T197
495Q228 495 248 477T278 431T288 374Q288 306 245 264T133 221Q90 221 60 244T14 305T-2 385Q-2 469 40 528T152 618T305 650Q378 650 432 631Q473 672 517 672Q533 672 533 666Q533 661 522 661Q482 661 453 626Q605 571 605 452Q605 410 583 377T525 319T445
281T359 267Q344 152 312 90Q270 7 178 -30Q163 -36 145 -36ZM359 279Q417 282 463 302T536 359T563 453Q563 562 442 612Q381 521 359 279Z" />
<glyph unicode="Q" glyph-name="Q" horiz-adv-x="654" d="M592 -91Q542 -91 496 -68T418 -20Q369 -38 310 -38Q220 -38 157 3T61 116T28 276Q28 402 86 498Q22 551 22 610Q22 656 53 680T131 705Q183 705 212 676Q217 671 217 668Q217 666 214 666T210 666Q192
680 173 687T132 695Q92 695 68 674T43 612Q43 558 95 513Q189 652 370 652Q433 652 476 629Q525 598 525 540Q618 462 618 321Q618 200 569 112T431 -15Q454 -34 493 -56T590 -78Q616 -78 642 -68T688 -34Q691 -34 692 -37T694 -43Q676 -67 649 -79T592 -91ZM317
435Q358 435 397 444T464 474T501 525Q462 567 413 567Q389 567 372 559T340 538Q335 538 335 545Q335 559 349 567T382 580T414 584Q436 584 458 579T502 556Q486 640 369 640Q298 640 231 594Q171 551 136 484Q177 462 223 449T317 435ZM412 1Q462 27 496 76T549
190T568 323Q568 439 513 509Q489 461 437 439T323 417Q274 417 221 430T128 468Q108 428 98 385T87 294Q86 248 94 204T120 122Q140 141 181 141Q216 141 246 128T315 84T412 1ZM315 -22Q361 -22 400 -4Q327 58 280 90T191 123Q173 123 158 114T135 91Q164 41
209 10T315 -22Z" />
<glyph unicode="R" glyph-name="R" horiz-adv-x="593" d="M627 -73Q573 -73 532 -34T466 87L434 191Q408 254 360 260L336 263Q328 131 306 79Q268 -13 167 -28Q165 -28 162 -29H157Q131 -29 111 -15T91 24Q91 37 98 37Q103 37 103 22Q103 4 123 -7Q140 -16 159
-16Q217 -16 248 47Q259 70 268 103T282 180Q284 210 287 240T293 300Q314 487 383 566Q361 571 340 572T299 574Q220 574 155 546T52 466T14 343Q14 288 45 252T131 215Q164 215 189 233T229 280T244 341Q244 379 222 405T163 432Q139 432 121 416T103 375Q103
362 110 353T130 344Q136 344 136 340Q136 335 131 335Q114 335 104 344T93 373Q93 403 113 421T163 440Q207 440 234 412T262 339Q262 302 245 271T198 222T128 203Q55 203 21 245T-14 352Q-14 427 28 479T141 559T292 587Q317 587 341 585T391 577Q426 612 470
612Q487 612 495 607T504 599Q504 595 502 595Q497 597 491 599T477 601Q438 601 414 572Q428 569 449 562T494 543T533 513Q568 473 568 422Q568 346 499 305Q442 272 360 272Q459 267 521 103Q543 45 572 6Q616 -51 659 -51Q699 -51 699 -5Q699 4 703 4Q710 4
710 -14Q710 -32 697 -45T665 -65T627 -73ZM337 278Q355 279 371 281T402 286Q458 298 492 335Q531 376 531 429Q531 529 407 559Q368 502 353 424Q351 414 347 377T337 278Z" />
<glyph unicode="S" glyph-name="S" horiz-adv-x="507" d="M222 -53Q161 -53 109 -31T25 32T-7 130Q-7 178 19 217T88 281T181 305Q222 305 257 287T313 238T335 170Q335 138 318 110T273 65T212 48Q170 48 152 68T133 110Q133 130 146 146T177 162Q183 162 183
157L168 147Q160 142 157 133T153 114Q153 100 159 88Q173 61 212 61Q244 61 266 78T300 123T312 180Q312 213 293 239T244 279T176 294Q130 294 95 272T39 212T19 130Q19 79 47 41T121 -17T223 -38Q277 -38 323 -18T398 41T426 130Q426 186 398 224T316 297T190
374Q117 416 117 489Q117 530 141 563T205 616T289 636Q349 636 390 604Q433 570 433 513Q433 476 409 450T344 424Q311 424 295 441T278 477Q278 498 289 511T320 524Q336 524 343 515T351 495Q351 490 346 490Q341 490 341 494Q341 512 323 512Q293 512 293 478Q293
461 306 448T345 434Q377 434 395 458T414 510Q414 560 377 591T286 623Q235 623 196 596Q153 568 153 520Q153 462 215 426Q294 381 351 344T439 263T470 157Q470 91 436 44T345 -28T222 -53Z" />
<glyph unicode="T" glyph-name="T" horiz-adv-x="610" d="M223 -34Q166 -34 119 -12T44 52T15 148Q15 194 37 225T90 273T153 290Q197 290 227 268T258 196Q258 159 234 135T172 111Q163 111 163 118Q163 126 171 126Q176 126 182 128T193 131Q233 146 233 194Q233
235 211 254T153 273Q130 273 106 258T66 215T50 148Q50 76 95 33T226 -11Q285 -11 330 15T409 88T464 191Q481 237 490 286T507 385T529 479T565 560Q480 591 420 606T322 622Q251 622 206 580T160 468Q160 421 188 389T265 356Q294 356 320 369T363 404T380 453V459Q379
460 379 461T378 464Q377 466 377 469Q377 473 384 478Q398 478 398 448Q398 414 379 389T328 349T259 335Q195 335 162 376T129 480Q129 533 153 573T219 635T315 658Q355 658 393 649T477 622T581 582Q598 604 619 615T652 627Q666 627 666 615Q663 615 656 615T639
610Q630 606 622 600T600 575Q651 553 698 541T791 529Q811 529 837 533T884 546T904 564Q904 576 913 576Q915 576 918 574T922 564Q922 542 887 527T791 512Q689 512 587 552Q571 522 563 475T549 374T536 267T515 173Q483 82 412 24T223 -34Z" />
<glyph unicode="U" glyph-name="U" horiz-adv-x="658" d="M631 -103Q588 -103 567 -69T540 23T533 147Q533 174 536 206T545 269T554 325Q534 253 514 191T467 81T405 8T322 -19Q273 -19 253 9T232 84Q232 127 245 179T279 287Q296 334 305 379T315 465Q315 532
285 575T184 619Q128 619 80 590T2 514T-28 409Q-28 370 -14 336T28 282T93 261Q139 261 168 290T197 365V376Q197 384 203 384Q209 384 209 365Q209 311 173 279T87 246Q41 246 9 268T-41 327T-59 404Q-59 450 -39 491T14 563T91 612T181 630Q276 630 321 584T366
461Q366 392 331 304Q307 242 287 178T267 67Q267 34 280 14T326 -6Q372 -6 405 26T463 114T512 243T561 401Q570 426 586 450T624 491T673 507Q706 507 706 492Q706 483 691 483Q693 483 687 483T673 484Q618 484 597 397Q586 352 581 297T575 166Q575 82 585
23T616 -68Q627 -85 640 -85Q647 -85 654 -77T666 -55Q673 -55 673 -61Q673 -80 659 -91T631 -103Z" />
<glyph unicode="V" glyph-name="V" horiz-adv-x="777" d="M434 -43Q414 -43 414 -31Q436 -22 450 7T472 77T479 163Q479 227 469 296T441 425T397 518Q342 593 264 593Q204 593 156 565T79 488T51 378Q51 308 83 264T180 220Q226 220 255 250T284 326Q284 337
281 351T275 374V376Q275 382 281 382Q287 382 291 371T297 345T299 320Q299 268 262 237T173 205Q127 205 92 229T36 292T15 377Q15 482 88 546Q159 608 263 608Q324 608 376 578Q426 549 456 498T501 386T515 263Q515 212 510 155T490 50T447 -28Q490 -23 530
16T605 113T668 234Q700 308 726 367T773 458Q817 529 858 558T940 587Q976 587 998 568T1021 513Q1021 488 1013 476T996 464Q986 464 986 473Q994 476 998 482T1003 502Q1003 564 943 564Q890 564 851 523T772 403T676 209Q552 -43 434 -43Z" />
<glyph unicode="W" glyph-name="W" horiz-adv-x="973" d="M315 -55Q295 -55 284 -46T273 -24Q273 -13 281 -3T308 14Q336 24 372 28T433 39Q498 130 498 279Q498 349 486 413T448 526T379 604T275 633Q213 633 163 600T82 514T52 398Q52 335 73 284T134 203T235
172Q288 172 324 198T380 265T399 347Q399 381 386 410T345 458T275 477Q241 477 218 462T182 424T169 377Q169 349 188 327T248 304Q256 304 264 306T275 309Q280 309 280 303Q276 299 267 296T248 293Q199 293 176 318T152 378Q152 405 167 432T212 476T285 494Q335
494 367 474T415 422T431 352Q431 307 409 263T343 189T235 159Q171 159 122 190T44 273T15 389Q15 463 50 522T144 616T277 651Q364 651 425 607T517 487T549 316Q549 239 531 174T471 52Q515 73 543 109T589 192T621 288T650 385T689 472Q730 537 771 537Q780
537 793 534T813 520Q813 510 802 508Q785 494 785 459Q785 455 786 433T790 382T794 328T796 291Q796 200 770 127T685 -19Q741 -2 789 69T871 258Q892 332 916 408T969 553T1032 677T1105 763T1189 795Q1219 795 1238 780T1257 741Q1257 734 1252 734Q1247 734
1245 742Q1242 756 1230 769T1188 782Q1147 782 1117 751T1063 671T1014 566Q980 492 951 414T895 253Q855 126 805 57T683 -35Q680 -36 677 -37T669 -38Q659 -38 659 -29Q659 -21 673 4Q749 134 749 310Q749 335 749 356T748 396Q748 437 754 466T783 522Q775
524 772 524Q744 524 711 468T646 301Q626 233 605 180T550 89T458 28Q422 -15 387 -35T315 -55ZM329 -37Q348 -37 373 -21T424 21Q400 16 371 12T322 1Q303 -5 303 -20Q303 -27 309 -32T329 -37Z" />
<glyph unicode="X" glyph-name="X" horiz-adv-x="717" d="M149 -63Q121 -63 96 -48T71 -8Q71 13 80 13Q84 13 84 0Q84 -23 106 -35T150 -48Q176 -48 207 -33T257 -4Q298 25 335 71T407 175T474 291Q457 353 439 408T396 505T340 572T262 597Q213 597 174 575T108
518T67 440T52 358Q52 302 81 261T175 220Q221 220 254 248T288 326Q288 340 287 350T286 364Q288 370 292 370Q299 370 301 352T303 320Q303 287 284 261T233 220T167 205Q115 205 83 226T34 281T18 356Q18 399 34 443T83 526T162 587T266 610Q424 610 507 350Q659
622 767 622Q842 622 842 554Q842 487 811 487Q805 487 805 491Q805 497 812 500Q822 506 822 536Q822 587 768 587Q716 587 672 544Q639 511 614 479T567 409T516 324Q530 268 545 208T580 95T625 11T685 -21Q707 -21 722 -5T740 35Q740 42 745 42Q752 42 752
31Q752 13 739 -3T705 -28T666 -38Q613 -38 582 1T528 110T482 266Q437 196 398 136T320 32T240 -38T149 -63Z" />
<glyph unicode="Y" glyph-name="Y" horiz-adv-x="800" d="M861 -356Q800 -356 754 -346T667 -318T579 -278Q541 -312 482 -331T366 -350Q290 -350 241 -325T168 -259T144 -172Q144 -132 171 -110T244 -88Q273 -88 330 -105T475 -172Q491 -181 516 -195T565 -223T595
-241Q628 -191 647 -150T674 -65T684 37L686 190Q687 211 690 237T697 288T704 329Q689 264 672 204T630 97T572 22T491 -6Q439 -6 417 21T394 101Q394 136 404 176T427 259T451 349T461 442Q461 529 419 580T298 631Q254 631 212 611T136 558T82 484T62 400Q62
360 73 327T105 267Q128 238 160 221T232 203Q274 203 307 226T360 285T380 361Q380 409 348 440T266 472Q221 472 199 446T176 390Q176 365 193 345T246 324Q251 324 258 325T270 329Q270 319 262 315T239 311Q196 311 176 333T155 384Q155 409 169 433T210 473T277
489Q337 489 373 452T410 355Q410 310 385 273T318 214T229 192Q172 192 127 219T56 291T30 392Q30 461 64 518T159 610T298 644Q343 644 382 626T451 578T498 509T515 431Q515 370 502 322T472 235T442 163T429 98Q429 56 442 33T482 9Q529 9 562 37T618 110T656
205T682 301Q696 362 708 394T733 442T757 466Q782 482 815 482Q845 482 845 465Q845 461 835 457T831 454Q833 453 833 453H832L831 454Q828 454 811 454Q783 454 761 434T728 382Q722 366 720 347T718 306Q718 265 723 218T734 121T740 26Q740 -41 723 -89T683
-170T638 -221T607 -249Q681 -286 748 -311T859 -337Q915 -337 955 -312T995 -239Q995 -235 994 -217T989 -190Q988 -188 988 -185Q988 -179 994 -179Q1001 -179 1003 -185Q1008 -196 1009 -207T1011 -232Q1011 -274 987 -301T927 -342T861 -356ZM368 -328Q421
-328 473 -314T564 -268Q555 -263 530 -251T478 -224T430 -200Q371 -168 320 -147T229 -126Q196 -126 178 -137T159 -172Q159 -208 185 -244T258 -304T368 -328Z" />
<glyph unicode="Z" glyph-name="Z" horiz-adv-x="580" d="M190 -340Q144 -340 109 -321T73 -259Q73 -225 98 -201T168 -158T267 -128T382 -106T499 -89Q515 -44 515 3Q515 104 457 147Q425 111 384 88T310 65Q275 65 259 77T242 107Q242 128 261 150T314 187T393
203Q417 203 438 197Q468 238 482 283T497 371Q497 426 475 472T410 547T306 575Q243 575 191 549T107 476T75 367Q75 306 105 268T193 230Q241 230 267 255T300 327Q302 329 306 329Q313 329 312 318Q308 277 277 247T190 216Q123 216 82 259T41 370Q41 420 63
461T123 532T207 578T303 594Q381 594 435 565T519 486T548 373Q548 327 532 277T481 175Q517 147 539 105T561 7Q561 -37 549 -78Q571 -74 600 -65T641 -43Q642 -42 644 -39T647 -30H649Q652 -30 655 -31T659 -39Q659 -49 646 -57T614 -73T576 -85T544 -93Q526
-144 489 -188T403 -267T299 -321T190 -340ZM290 90Q334 90 365 115T421 171Q419 173 401 175T361 177Q335 177 313 165T279 137T266 108Q266 90 290 90ZM191 -326Q255 -326 315 -296T422 -215T493 -104Q451 -110 398 -119T292 -141T193 -172T121 -213T93 -265Q93
-285 108 -298T145 -319T191 -326Z" />
<glyph unicode="[" glyph-name="bracketleft" horiz-adv-x="372" d="M121 -147L191 705H322L321 692H241L174 -134H253L251 -147H121Z" />
<glyph unicode="\" glyph-name="backslash" horiz-adv-x="480" d="M447 -14L46 614H79L478 -14H447Z" />
<glyph unicode="]" glyph-name="bracketright" horiz-adv-x="372" d="M75 -147L76 -134H156L223 692H144L146 705H276L206 -147H75Z" />
<glyph unicode="^" glyph-name="asciicircum" horiz-adv-x="384" d="M312 544Q282 544 256 585Q230 626 216 626Q209 626 158 590Q106 553 102 553Q91 553 91 560Q93 563 94 563Q102 568 112 574T136 589Q167 608 190 623T230 651Q241 657 246 657Q257 657 268
637Q285 606 293 598Q313 578 342 578Q355 578 374 584L395 589Q396 589 397 588Q397 586 392 581L354 557Q332 544 312 544Z" />
<glyph unicode="_" glyph-name="underscore" horiz-adv-x="587" d="M56 -100L60 -77H518L514 -100H56Z" />
<glyph unicode="`" glyph-name="grave" horiz-adv-x="500" d="M250 421L132 486Q132 493 142 498T158 503Q163 503 179 492T216 465T250 437T265 424Q265 421 250 421Z" />
<glyph unicode="a" glyph-name="a" horiz-adv-x="327" d="M95 -1Q67 -1 50 20T26 74T18 141Q18 191 31 239T71 320T137 352Q193 352 200 267L209 349Q212 348 218 348Q237 348 249 370Q250 374 253 374Q257 374 258 368L237 190Q231 139 231 91Q231 53 236 34T257
15Q274 15 288 30T313 70T332 122T345 172Q347 183 352 183Q358 183 357 172Q349 131 337 92T304 27T249 1Q225 1 212 19T193 65T188 120Q159 10 109 0Q105 -1 102 -1T95 -1ZM104 12Q126 15 142 42T170 106T187 178Q190 199 190 224Q190 252 186 278T171 322T143
340Q126 340 112 319T87 266T70 199T64 137Q64 110 68 80T81 30T104 12Z" />
<glyph unicode="b" glyph-name="b" horiz-adv-x="290" d="M105 -3Q67 -3 50 22T28 86T23 166Q23 172 18 172Q20 242 32 308T64 432Q80 484 100 526T146 600Q191 658 229 658Q273 658 273 599Q273 555 255 508T207 417T143 338T78 285Q63 191 63 128Q63 10 112
10Q137 10 156 44T189 155Q176 176 171 201T165 258Q165 295 182 303Q209 308 209 241Q209 221 206 191L204 164Q212 141 226 130T256 118Q274 118 289 132T308 172Q310 178 315 178Q322 178 320 172Q316 140 297 123T254 105Q238 105 223 114T199 145Q190 68 169
33T105 -3ZM84 304Q113 327 143 362T199 438T241 522T257 602Q257 622 253 633T235 644Q179 644 132 503Q102 413 84 304Z" />
<glyph unicode="c" glyph-name="c" horiz-adv-x="231" d="M120 -3Q78 -3 56 22T26 86T18 163Q18 212 33 255T75 326T139 354Q200 354 200 281Q200 265 196 246T184 214T162 200Q146 200 146 218Q146 236 156 247T176 268T186 291Q186 336 153 336Q133 336 117
318T90 271T72 207T65 141Q65 106 70 76T88 29T125 11Q157 11 182 35T224 96T249 172Q251 181 256 181Q263 181 261 172Q253 128 235 88T188 22T120 -3Z" />
<glyph unicode="d" glyph-name="d" horiz-adv-x="326" d="M98 -4Q61 -4 39 38T17 147Q17 220 48 281Q83 349 137 349Q171 349 187 322Q202 298 202 261L251 558Q255 557 258 557T266 556Q288 556 300 579Q302 581 303 581Q309 581 307 575Q303 562 290 505T257
347Q253 327 250 308T244 270Q237 224 231 174T224 84Q224 51 230 31T251 10Q266 10 283 25T316 80Q326 103 333 129T344 172Q345 179 351 179Q357 179 356 172Q349 142 342 118T326 73Q309 33 290 15T251 -3Q218 -3 204 29T187 121Q159 -4 98 -4ZM106 9Q122 11
137 34T166 95T185 174Q187 188 189 201T191 229Q191 274 178 305T142 337Q123 337 109 314T84 257T68 188T62 128Q62 100 67 71T81 24T106 9Z" />
<glyph unicode="e" glyph-name="e" horiz-adv-x="217" d="M108 0Q77 4 57 24T26 76T16 141Q16 231 57 295Q93 350 135 350Q160 350 171 335T182 293Q182 258 166 223T123 166T60 143Q60 23 110 14Q114 13 121 13Q158 13 188 54T235 172Q237 182 242 182Q248 182
247 172Q205 -11 108 0ZM61 155Q88 155 112 175T152 228T168 294Q168 334 142 334Q127 334 113 317T87 271T68 213T61 155Z" />
<glyph unicode="f" glyph-name="f" horiz-adv-x="241" d="M113 -321Q65 -321 41 -240T17 -18Q17 26 19 73T26 166Q24 166 21 167T18 172Q36 293 60 397T118 571Q166 668 223 668Q279 668 279 593Q279 555 263 505T219 396T155 279T79 164Q78 157 77 134T74 79T71
14T69 -45T68 -84Q68 -306 120 -306Q140 -306 152 -279T171 -214T177 -142Q177 -83 161 -42T125 21Q112 21 95 28T78 53Q78 64 91 64Q112 64 136 31Q189 31 217 69T259 172Q261 179 266 179Q273 179 271 172Q257 89 222 55T142 21Q192 -37 192 -142Q192 -183 185
-224T160 -293T113 -321ZM79 193Q110 237 142 290T203 398T248 505T265 595Q265 618 259 634T229 651Q177 651 128 452Q115 397 103 332T79 193Z" />
<glyph unicode="g" glyph-name="g" horiz-adv-x="278" d="M73 -262Q42 -262 28 -247T14 -206Q14 -172 34 -140T80 -80Q98 -61 120 -42T163 -8T190 11V121Q163 1 106 1Q73 1 54 22T26 79T18 152Q18 200 30 245T69 320T137 350Q163 350 178 333T199 273Q210 350
229 372Q239 385 249 385Q262 385 262 372Q262 365 249 350Q239 339 233 330T222 306Q215 288 211 257T206 183Q206 145 208 99T211 24Q240 44 262 80T296 172Q298 180 304 180Q310 180 308 172Q293 104 269 69T212 14L215 -44Q215 -101 199 -151T151 -231T73 -262ZM110
15Q129 15 144 38T169 97T185 168T191 230Q191 280 180 309T142 339Q124 339 110 322T86 275T71 213T66 148Q66 15 110 15ZM66 -238Q102 -238 129 -205T172 -125Q180 -102 185 -73T191 -2Q185 -7 167 -21T127 -54T90 -89Q67 -114 48 -144T29 -202Q29 -238 66 -238Z"
/>
<glyph unicode="h" glyph-name="h" horiz-adv-x="286" d="M16 -19Q12 -19 12 -12Q12 51 16 127T30 281T55 432T93 561T143 651T206 685Q260 685 260 601Q260 549 236 498T171 406T78 347Q76 335 72 315Q65 274 62 244T59 194Q100 362 164 362Q198 362 210 340T222
285Q222 259 218 230T208 171Q199 125 195 94T191 43Q191 18 196 9T211 0Q242 0 276 80Q286 103 293 129T304 172Q305 179 311 179Q317 179 316 172Q309 142 302 118T286 73Q269 33 249 9T203 -15Q178 -15 163 3T147 66Q147 101 156 142T174 220T183 280Q183 339
156 339Q139 339 125 320T101 273T82 220Q73 188 67 149T57 72T51 6H50Q46 6 40 3T28 -6Q21 -13 20 -16T16 -19ZM80 365Q126 381 163 419T223 506T246 599Q246 631 235 652T207 673Q190 673 174 652T144 597T117 521T95 439T80 365Z" />
<glyph unicode="i" glyph-name="i" horiz-adv-x="176" d="M91 0Q48 0 32 35T15 120Q15 155 21 191Q33 263 48 347Q57 344 63 344Q83 344 95 368Q97 373 101 373Q105 373 104 366Q100 350 91 308T67 197Q62 172 59 145T55 93Q55 59 64 35T95 11Q125 11 144 37T175
100T194 172Q195 179 201 179Q206 179 206 172Q187 81 161 41T91 0ZM86 430Q73 430 65 438T56 460Q56 474 66 484T91 494Q103 494 111 486T120 464Q120 450 110 440T86 430Z" />
<glyph unicode="j" glyph-name="j" horiz-adv-x="164" d="M-120 -285Q-174 -285 -174 -240Q-174 -206 -150 -171T-84 -99T6 -20L25 167Q25 170 21 170T18 172Q26 213 32 258T42 343Q53 340 58 340Q74 340 86 363Q88 368 91 368Q95 368 94 360L56 16Q101 44 135
79T182 172Q183 178 189 178Q194 178 194 172Q185 129 165 99T118 47T56 2Q56 -50 46 -101T15 -193T-40 -260T-120 -285ZM-122 -272Q-84 -272 -53 -236T-8 -133Q-3 -107 0 -84T3 -42Q-40 -75 -77 -109T-137 -177T-160 -241Q-160 -258 -151 -265T-122 -272ZM70 430Q57
430 49 438T40 460Q40 474 50 484T75 494Q87 494 95 486T104 464Q104 450 94 440T70 430Z" />
<glyph unicode="k" glyph-name="k" horiz-adv-x="279" d="M7 -7Q2 -7 2 1Q6 72 20 188Q28 256 39 325T67 457T104 569T154 646T218 675Q274 675 274 612Q274 577 258 535T215 453T156 383T89 344Q65 238 53 139Q57 152 62 170T74 213Q89 259 111 296T158 355T208
378Q255 378 255 326Q255 294 235 270T185 231T125 210Q139 210 149 197Q164 177 170 132Q172 111 174 90T178 49Q180 31 187 23T205 15Q223 15 238 32T265 74T285 126T297 172Q299 180 303 180Q308 180 308 177T309 172Q300 126 285 87T248 24T192 -1Q171 -1 154
11T129 46Q124 64 123 89T121 137T120 170Q119 190 113 199T88 209L86 202Q40 43 40 5L27 6Q16 8 11 -5Q10 -7 7 -7ZM93 359Q120 368 149 396T203 461T243 538T259 608Q259 656 228 656Q200 656 176 618T127 493Q121 471 113 438T93 359ZM94 220Q115 219 138 230T181
260T213 298T226 335Q226 352 220 358T202 364Q184 364 163 340T123 283T94 220Z" />
<glyph unicode="l" glyph-name="l" horiz-adv-x="194" d="M108 -3Q69 -3 50 24T25 94T19 189Q19 244 26 303T47 420T78 525T117 604Q151 656 185 656Q204 656 211 637T219 585Q219 545 209 494T185 401Q143 274 57 153Q57 119 61 87T78 33T111 11Q129 11 145 28T176
71T199 124T212 172Q214 179 219 179Q225 179 224 172Q217 131 202 91T163 24T108 -3ZM57 177Q91 223 118 280T167 405Q176 433 184 469T198 542T204 604Q204 621 201 631T191 641Q181 641 170 623T140 561Q121 517 107 475T85 394Q72 335 66 281T57 177Z" />
<glyph unicode="m" glyph-name="m" horiz-adv-x="448" d="M156 -25Q156 -25 156 -25T155 -24Q156 -18 158 9T162 73T167 147T171 212T173 245Q173 341 145 341Q128 341 114 320T87 264T67 193T56 125Q54 101 52 70T45 1Q19 4 12 -18Q11 -22 7 -24Q4 -26 2 -24Q1
-22 2 -18L34 346Q38 345 44 345Q69 345 83 364Q85 367 87 367Q92 367 90 361Q86 346 66 239Q101 362 158 362Q184 362 197 344T216 297T222 240Q229 267 243 295T276 343T316 362Q347 362 362 338T377 277Q377 250 372 219T361 158Q356 125 352 95T347 42Q347
23 352 11T370 -1Q388 -1 408 26T444 93T466 172Q467 175 468 179T473 183Q478 183 478 180T478 172Q474 143 464 111T439 50T404 4T363 -14Q329 -14 315 7T300 67Q300 86 303 109T312 158Q319 187 325 224T332 290Q332 313 326 327T306 341Q290 341 275 319T246
261T224 189T212 120Q207 60 200 1Q175 4 167 -17Q161 -27 156 -25Z" />
<glyph unicode="n" glyph-name="n" horiz-adv-x="297" d="M2 -24Q1 -22 2 -18L34 346Q38 345 44 345Q69 345 83 364Q85 367 87 367Q92 367 90 361Q88 353 82 321T66 227Q80 286 107 322T171 358Q203 358 214 336T226 281Q226 253 221 221T210 158Q205 125 201
95T196 42Q196 23 201 11T219 -1Q237 -1 257 26T293 93T315 172Q316 175 317 179T322 183Q327 183 327 180T327 172Q323 143 313 111T288 50T253 4T212 -14Q178 -14 165 7T152 67Q152 106 161 158Q169 198 176 234T183 297Q183 318 177 330T153 342Q137 342 123
323T96 276T76 220T64 173Q57 137 53 88T45 1Q19 4 12 -18Q11 -22 7 -24Q4 -26 2 -24Z" />
<glyph unicode="o" glyph-name="o" horiz-adv-x="287" d="M124 -9Q70 -9 44 32T17 151Q17 189 24 220T45 276Q49 329 76 364T145 400Q180 400 204 376T240 312T252 228Q252 190 247 158T231 96Q250 98 272 116T305 172Q306 179 312 179Q318 179 317 172Q307 128
282 107T226 81Q187 -9 124 -9ZM210 94Q221 123 225 156T229 227Q229 268 221 304T194 363T145 386Q116 386 97 367T71 312Q97 339 143 341Q176 341 176 328Q176 321 168 324Q155 329 146 329Q107 329 83 259Q75 235 75 212Q75 195 80 182Q98 136 131 113T210 94ZM129
6Q174 6 205 81Q200 80 195 80T185 80Q139 80 107 109T64 177Q63 165 63 153T63 129Q63 97 68 69T87 23T129 6Z" />
<glyph unicode="p" glyph-name="p" horiz-adv-x="263" d="M-71 -277Q-91 -277 -108 -261T-130 -219Q-128 -207 -122 -207Q-117 -207 -117 -216Q-103 -261 -84 -261Q-62 -261 -40 -213Q-29 -189 -20 -158T-6 -89Q3 -26 12 103Q19 213 36 299Q43 334 56 364T86 413T120
432Q141 432 141 415Q141 405 129 400Q87 382 61 287Q57 271 55 258T51 232Q68 292 91 317T142 343Q166 343 183 324T211 272T221 201Q221 155 210 112T174 40T110 6Q115 5 120 5T130 5Q189 5 226 45T281 172Q282 178 288 178Q293 178 293 172Q280 91 240 43T129
-6Q98 -6 74 4T44 39Q44 -9 42 -48T36 -117Q14 -277 -71 -277ZM96 15Q114 15 129 32T156 77T174 137T180 200Q180 227 176 256T161 305T132 325Q112 325 97 303T71 249T55 182T49 121Q49 67 60 41T96 15Z" />
<glyph unicode="q" glyph-name="q" horiz-adv-x="281" d="M212 -279Q149 -279 149 -123Q149 -71 154 -31T162 41Q151 19 137 10T103 0Q72 0 53 21T26 76T17 146Q17 219 45 281Q79 352 131 352Q195 352 197 249L216 350L215 351Q250 348 261 371Q263 379 268 377Q273
377 270 368L227 140L208 11Q247 28 267 63T299 172Q300 179 306 179Q309 179 310 177T311 172Q298 99 280 61T225 7Q289 -16 281 -157Q278 -212 258 -245T212 -279ZM109 10Q132 10 151 47T178 152Q180 173 181 192T183 230Q183 329 147 339Q146 340 142 340Q124
340 101 298Q81 257 74 217T63 133Q62 82 74 46T109 10ZM215 -262Q231 -262 242 -240T259 -186T265 -132Q265 -100 260 -71T242 -23T207 -4Q205 -19 202 -47T197 -106T193 -161T191 -195Q190 -229 197 -245T215 -262Z" />
<glyph unicode="r" glyph-name="r" horiz-adv-x="231" d="M146 0Q96 8 96 72Q96 99 105 139T124 221Q128 238 130 250T132 269Q132 295 108 308T49 327Q49 296 44 256T30 172Q29 166 23 166Q18 166 18 172Q26 216 30 258T35 328Q20 333 11 345T1 371Q1 387 8 394T24
402Q34 402 41 390T48 354V340Q52 339 65 336T93 331T113 326Q150 316 164 304T178 254Q178 237 174 215T159 167Q125 78 125 46Q125 11 154 11Q172 11 188 27T221 80Q231 103 238 129T249 172Q250 179 256 179Q262 179 261 172Q254 142 247 118T231 73Q197 -7
146 0Z" />
<glyph unicode="s" glyph-name="s" horiz-adv-x="242" d="M129 1Q109 1 88 8Q68 3 53 3Q18 3 -1 19T-21 55Q-21 78 -2 78Q9 78 34 58Q50 45 61 37T81 24Q103 37 117 65Q136 103 136 150Q136 167 133 185T125 223Q119 243 108 265T87 307T73 342Q58 307 49 263T30
172Q28 164 22 164Q17 164 18 172Q21 187 26 213T37 268T50 318Q63 359 81 386T119 414H122Q144 414 144 395Q144 380 127 377Q99 373 99 348Q99 331 115 304T147 252Q164 227 172 203T181 152Q181 47 105 16Q117 13 128 13Q169 13 194 34T235 92T260 172Q262 179
267 179Q272 179 272 172Q259 92 224 47T129 1ZM50 15Q61 15 68 19Q58 24 48 31T24 49Q7 62 -2 62Q-6 62 -6 56Q-6 52 -3 46T9 31Q25 15 50 15Z" />
<glyph unicode="t" glyph-name="t" horiz-adv-x="211" d="M114 -1Q65 -1 42 43T19 170Q19 179 19 188T20 207Q21 229 25 264T34 338H-8Q-14 338 -14 343Q-14 347 -11 350T-3 354H36Q44 403 51 447T65 512Q76 545 91 545Q111 545 111 518Q111 515 109 509Q102 479
96 439T83 354H172Q177 354 177 349Q177 345 175 342T167 338H81Q74 285 70 236T65 156Q65 86 76 49T118 12Q153 12 175 36T211 97T229 172Q231 183 236 183Q243 183 241 172Q226 80 194 40T114 -1Z" />
<glyph unicode="u" glyph-name="u" horiz-adv-x="288" d="M88 -2Q17 -2 17 135Q17 148 19 177T23 241T29 303T34 341Q68 339 77 361Q80 368 84 368Q86 368 86 365Q86 361 85 357Q81 338 77 308T69 245T63 183T60 133Q60 74 66 43T90 12Q104 12 114 22T137 58Q162
112 169 183Q179 266 181 303T184 354Q219 352 228 374Q230 379 233 379Q237 379 236 371Q226 296 220 247T210 167T205 116T203 77Q203 54 207 33T229 12Q252 12 270 50Q282 75 291 108T306 172Q308 179 313 179Q318 179 318 172Q303 84 280 42T222 -1Q201 -1
188 12T169 45T163 84Q134 -2 88 -2Z" />
<glyph unicode="v" glyph-name="v" horiz-adv-x="260" d="M93 -1Q56 -1 37 34T18 157Q18 202 49 345Q51 345 53 345T59 344Q68 344 78 348T94 364Q96 370 100 370Q105 370 103 361Q94 339 87 306T74 237T65 166T62 107Q62 10 96 10Q128 10 157 79Q161 89 166 104T175
135T180 156Q171 172 163 198T148 253T142 298Q142 320 147 338T167 356Q178 356 187 337T197 273Q197 242 196 221T191 168Q198 146 211 134T237 121Q268 121 278 172Q281 178 286 178Q290 178 290 176T290 172Q284 138 269 124T237 110Q222 110 209 119T189 144Q177
80 151 40T93 -1Z" />
<glyph unicode="w" glyph-name="w" horiz-adv-x="413" d="M81 -5Q73 -5 64 -2Q13 16 13 112Q13 134 16 159T25 213L46 325Q49 325 52 325T57 324Q88 324 97 347Q100 352 103 352Q106 352 106 349L89 279Q75 221 66 174T56 78Q56 11 85 9Q131 16 160 176L187 327Q190
327 193 327T198 326Q229 326 238 349Q240 355 244 355Q249 355 246 346Q236 320 228 280T215 199T210 126Q210 66 218 38T248 10Q281 10 310 79Q314 89 319 104T328 135T333 156Q324 172 316 198T301 253T295 298Q295 320 300 338T320 356Q331 356 340 337T350
273Q350 242 349 221T344 168Q351 146 363 134T389 122Q403 122 414 134T431 172Q432 178 438 178Q443 178 443 172Q437 138 422 124T390 110Q375 110 362 119T342 144Q330 80 304 40T246 -1Q171 -1 170 153Q170 151 168 139T160 105Q134 -5 81 -5Z" />
<glyph unicode="x" glyph-name="x" horiz-adv-x="343" d="M43 -16Q34 -16 34 -1Q34 3 35 10T41 28Q65 79 162 176Q153 207 142 241T118 300T90 325Q72 325 57 286Q50 261 43 231T30 172Q28 166 24 166Q18 166 18 172Q22 192 26 211T33 244Q47 305 66 331T116 357Q142
357 157 339T184 289T206 218Q222 237 239 260T267 308T275 359Q274 373 280 381T293 390Q306 390 306 375Q306 328 278 291T208 206Q214 182 221 153T239 96T262 52T292 34Q314 34 331 65T361 172Q363 178 368 178Q373 178 373 172Q363 122 351 84T321 24T270
2Q244 2 226 21T197 67T178 121T165 163Q131 123 106 89T69 34Q65 26 61 16T55 -3Q53 -16 43 -16Z" />
<glyph unicode="y" glyph-name="y" horiz-adv-x="289" d="M68 -247Q41 -247 29 -232T16 -194Q16 -154 39 -117T98 -45T174 19V58Q174 77 174 91T173 115Q173 146 182 213Q169 152 155 103T121 24T73 -5Q48 -5 29 19T9 102Q9 145 19 180T39 249T50 324Q50 351 36
351Q27 351 20 341T9 319Q8 319 5 321T2 330Q2 345 18 357T53 369Q93 369 93 323Q93 287 83 248T61 167T50 80Q50 45 57 29T77 13Q97 13 118 54T158 174Q173 240 193 285T233 356Q249 378 264 378Q279 378 279 362Q279 349 260 343Q242 338 228 311T206 249T198
182Q198 157 201 126T208 71T211 45Q227 56 246 70T282 109T307 172Q309 178 314 178Q319 178 319 172Q309 131 294 106T259 64T212 30Q214 14 215 -1T216 -31Q216 -90 201 -139T153 -217T68 -247ZM64 -234Q104 -234 128 -198T163 -116Q176 -64 176 2Q116 -49 74
-96T31 -192Q31 -234 64 -234Z" />
<glyph unicode="z" glyph-name="z" horiz-adv-x="274" d="M83 -246Q55 -246 37 -227T19 -176Q19 -133 46 -95T114 -26T191 27Q187 58 173 77T130 97Q111 97 101 91T81 79T58 72Q41 72 41 86Q41 97 50 102T72 109Q82 110 91 111T111 113Q135 118 149 144T171 205T178
268Q178 300 168 326T132 353Q110 353 94 336T66 292T46 233T30 172Q29 167 22 167Q17 167 18 172Q23 190 28 210T43 271Q53 309 76 337T136 365Q176 365 196 336T216 263Q216 211 194 170T122 104Q162 104 181 92T218 41Q247 55 265 87T292 172Q293 174 294 176T299
178Q304 178 304 172Q295 116 274 81T221 30Q229 9 229 -32Q229 -83 210 -132T158 -214T83 -246ZM76 -223Q112 -223 134 -196T169 -127T189 -44Q191 -31 191 -17T191 15Q151 -14 115 -42T56 -101T33 -171Q33 -223 76 -223Z" />
<glyph unicode="{" glyph-name="braceleft" horiz-adv-x="412" d="M338 -112Q271 -112 237 -98Q185 -77 176 -20Q175 -12 175 -3T174 17Q174 52 180 101Q186 151 186 184Q186 195 186 204T184 220Q172 296 61 296Q54 296 53 304V308Q53 320 66 323Q74 324 92 326Q153
335 176 358Q193 373 202 403Q209 421 213 449T219 517Q221 556 225 584T235 631Q255 691 306 714Q348 731 424 731Q434 731 434 727V726Q434 721 423 715Q359 715 323 680Q314 672 308 661T298 636Q286 586 277 535T256 433Q223 333 106 312Q216 291 231 196Q232
188 232 178T233 157Q233 130 230 94Q229 75 228 59T226 28Q226 8 229 -9Q243 -91 341 -97Q352 -99 353 -101Q353 -106 343 -112H338Z" />
<glyph unicode="|" glyph-name="bar" horiz-adv-x="257" d="M100 -131L130 701H157L127 -131H100Z" />
<glyph unicode="}" glyph-name="braceright" horiz-adv-x="412" d="M0 -112Q-10 -112 -10 -108V-107Q-10 -102 1 -96Q65 -96 101 -61Q110 -53 116 -42T126 -17Q138 33 148 84T168 186Q201 286 318 307Q208 328 193 423Q192 431 192 441T191 462Q191 489 194 525Q196
544 197 560T198 591Q198 612 195 628Q181 710 83 716Q72 718 71 720Q71 725 81 731H86Q153 731 187 717Q239 696 248 639Q250 632 250 623T250 602Q250 568 244 518Q238 469 238 435Q238 425 238 416T240 399Q252 323 363 323Q370 323 371 315V311Q371 299 358
296Q350 295 332 293Q271 284 248 261Q231 246 222 216Q215 198 211 170T205 102Q203 63 199 35T189 -12Q169 -72 118 -95Q76 -112 0 -112Z" />
<glyph unicode="~" glyph-name="asciitilde" horiz-adv-x="389" d="M266 416Q244 416 200 435Q154 453 128 453Q120 453 118 452Q97 451 87 436Q77 421 74 421Q70 421 70 425Q70 437 83 450T113 473T144 483Q168 483 214 465Q258 446 284 446Q312 446 329 463L346
480Q347 480 349 478V477Q349 468 337 456T310 433T284 419Q275 416 266 416Z" />
<glyph unicode="&#xa0;" glyph-name="uni00A0" horiz-adv-x="188" />
<glyph unicode="&#xa1;" glyph-name="exclamdown" horiz-adv-x="216" d="M121 363Q135 363 145 353T155 329Q155 316 145 306T121 296Q108 296 98 306T88 329Q88 343 98 353T121 363ZM95 -235Q75 -235 70 -223T66 -201L110 205H123L128 -201Q128 -214 121 -224T95 -235Z" />
<glyph unicode="&#xa2;" glyph-name="cent" horiz-adv-x="305" d="M148 60L153 112Q105 112 78 139T50 212Q50 250 68 285T117 346T181 378L187 436H202L196 380H201Q233 380 252 366T272 325Q272 308 264 297T243 286Q234 286 233 290Q237 294 241 306T245 328Q245
346 235 357T201 368Q198 368 195 368L171 127Q193 129 218 143T265 187Q270 193 274 193Q280 193 280 184Q241 119 169 113L164 60H148ZM96 217Q96 132 155 127L180 364Q157 356 138 334T108 281T96 217Z" />
<glyph unicode="&#xa3;" glyph-name="sterling" horiz-adv-x="354" d="M115 148L119 162H174Q176 177 177 192T181 224Q184 268 196 303T229 360T284 382Q310 382 322 368T334 331Q334 312 328 292T314 263Q313 262 311 262Q308 262 307 264T308 270Q313 275 317
291T322 325Q322 344 316 356T294 368Q268 368 254 350T233 303T223 237T214 162H274L270 148H212Q206 108 196 73T162 15Q184 0 215 -14T277 -37T331 -46Q354 -46 364 -35T375 -8Q375 -3 375 1T374 12Q374 15 376 15Q379 15 381 8T384 -8Q384 -35 366 -52T317
-69Q280 -69 240 -49T150 4Q122 -16 87 -16Q49 -16 20 4T-10 62Q-10 85 18 85Q61 85 146 27Q156 42 162 74T173 148H115ZM83 -6Q114 -6 134 13Q51 68 18 68Q2 68 2 55Q3 40 16 26T47 3T83 -6Z" />
<glyph unicode="&#xa4;" glyph-name="currency" horiz-adv-x="400" d="M344 284L269 364Q238 341 206 341Q183 341 163 354L95 285L80 300L149 367Q136 384 136 408Q136 426 143 443T160 474L83 546L98 562L173 487Q205 516 246 516Q258 516 268 514T288 504L341
561L356 546L301 492Q317 472 317 448Q317 410 283 376L360 300L344 284ZM215 371Q241 371 262 391T284 437Q284 458 271 472T236 487Q214 487 194 470T168 428Q168 426 168 424T167 419Q167 400 180 386T215 371Z" />
<glyph unicode="&#xa5;" glyph-name="yen" horiz-adv-x="374" d="M84 2L91 13Q93 13 95 13T101 12Q146 12 154 38Q161 63 163 91H91L96 109H164Q164 112 164 116Q164 146 159 171H95L100 189H154Q152 196 150 202Q142 224 127 255T96 312T70 346Q61 354 31 354H18L21
365L68 363Q79 362 91 362T116 362Q120 362 130 342T152 293T176 235T194 189H201Q209 206 223 231T254 283T283 330T303 358Q306 361 317 361L392 364L385 352Q343 355 324 333Q305 313 282 280T230 199Q227 194 224 189H292L287 171H216Q211 156 208 141T203
109H288L283 91H202Q202 85 202 78Q202 68 202 59T203 38Q205 23 228 17Q247 13 266 14L259 2Q238 8 176 7Q165 7 142 6T84 2Z" />
<glyph unicode="&#xa6;" glyph-name="brokenbar" horiz-adv-x="257" d="M144 341H117L130 701H157L144 341ZM113 229H140L127 -131H100L113 229Z" />
<glyph unicode="&#xa7;" glyph-name="section" horiz-adv-x="706" d="M291 -98Q290 -97 288 -97T283 -96L275 -93Q220 -73 198 -35Q116 -23 66 24Q14 75 14 157Q14 210 35 259T94 347T180 406Q231 426 283 426Q362 426 408 386Q434 413 455 441T496 497V510Q496
585 513 621Q504 662 504 678Q504 696 513 711T540 727Q573 727 573 681Q573 647 544 575Q549 565 566 539T614 468Q634 437 648 408T669 349Q673 335 674 319T676 284Q676 190 626 116Q569 34 479 34Q469 34 459 35T441 38Q344 -38 236 -38Q232 -38 226 -38T211
-36Q230 -70 273 -84Q275 -85 276 -85T279 -86Q283 -86 285 -87Q290 -87 297 -84Q305 -81 308 -81Q314 -81 314 -87Q314 -91 305 -94T291 -98ZM539 584Q563 643 563 684Q563 713 544 713Q514 713 514 675Q514 637 539 584ZM516 533Q525 550 531 566Q526 579 523
588T518 605Q512 590 512 573Q512 566 513 556T516 533ZM453 48Q514 49 563 124Q606 191 610 256Q611 264 611 272T611 289Q611 367 590 428Q589 433 576 464T536 555Q531 542 527 533T519 517Q527 486 534 455T548 393Q556 356 560 325T565 267Q565 142 453 48ZM408
65Q502 162 502 322L496 479Q479 454 459 429T414 380Q448 346 448 292Q448 243 421 203T348 144Q359 93 408 65ZM191 -20Q183 2 183 29Q183 81 212 156Q188 179 188 212Q188 224 195 242T211 261Q214 260 214 259Q214 258 205 243Q196 227 196 210Q196 184 216
164Q261 266 390 371Q346 412 279 412Q231 412 187 390T109 330T54 246T33 151Q33 107 54 69T111 7T191 -20ZM280 138Q307 138 337 153Q336 159 336 163T335 171Q335 205 357 230Q358 230 359 231H360Q364 231 364 227L354 211Q345 198 345 171Q345 161 346 158Q379
179 403 215T427 289Q427 328 398 363Q271 256 225 156Q249 138 280 138ZM203 -20Q320 -20 402 59Q350 91 339 140Q314 131 285 131Q247 131 222 148Q193 84 193 33Q193 1 203 -20Z" />
<glyph unicode="&#xa8;" glyph-name="dieresis" horiz-adv-x="500" d="M301 431Q287 431 280 438T273 456Q273 471 284 482T309 494Q322 494 329 487T337 468Q337 454 326 443T301 431ZM192 431Q178 431 171 438T164 456Q164 471 175 482T200 494Q213 494 220
487T228 468Q228 454 217 443T192 431Z" />
<glyph unicode="&#xa9;" glyph-name="copyright" horiz-adv-x="631" d="M286 -5Q214 -5 156 28T64 119T30 248Q30 311 55 367T125 468T226 537T346 562Q418 562 476 529T567 439T601 309Q601 246 576 190T507 89T406 20T286 -5ZM288 24Q345 24 396 46T486 108T548
199T571 307Q571 372 541 423T460 504T343 534Q286 534 235 512T145 450T83 359T60 252Q60 187 90 136T172 54T288 24ZM309 109Q266 109 247 134T224 198T224 275Q229 324 249 367T299 438T365 466Q426 466 419 393Q417 377 411 358T396 326T372 312Q356 312 358
330Q360 348 371 359T393 380T406 403Q410 448 377 448Q357 448 339 430T307 383T282 319T269 253Q265 218 266 188T279 141T315 123Q347 123 374 147T423 208T456 284Q459 293 464 293Q471 293 468 284Q455 240 433 200T379 134T309 109Z" />
<glyph unicode="&#xaa;" glyph-name="ordfeminine" horiz-adv-x="250" d="M117 426Q98 426 87 446T75 500Q75 526 82 551T103 592T138 609Q160 609 168 583L171 608Q173 607 178 607Q188 607 194 617Q196 620 198 620Q201 620 201 617L190 524Q189 511 189 499T188
475Q188 456 190 448T198 440Q209 440 220 461T239 516Q239 524 245 524Q252 524 250 515Q246 495 240 475T223 441T194 427Q166 427 161 472Q154 452 145 441T124 427Q121 426 117 426ZM121 438Q136 439 146 466T160 519Q161 524 161 529T161 540Q161 563 156
580T141 597Q133 597 124 582T110 543T104 498Q104 471 109 454T121 438Z" />
<glyph unicode="&#xab;" glyph-name="guillemotleft" horiz-adv-x="369" d="M305 39L192 132Q180 141 180 151Q180 161 196 179L330 316Q334 320 336 320Q339 320 339 317T336 309L223 156L308 53Q313 48 313 42Q313 33 305 39ZM205 39L92 132Q80 141 80 151Q80
161 96 179L230 316Q234 320 236 320Q239 320 239 316T236 309L123 156L208 53Q213 48 213 42Q213 33 205 39Z" />
<glyph unicode="&#xac;" glyph-name="logicalnot" horiz-adv-x="690" d="M605 19Q597 19 590 24T583 41L604 243H72Q62 243 56 248T50 257Q50 265 57 269T72 273H653L629 45Q626 19 605 19Z" />
<glyph unicode="&#xad;" glyph-name="uni00AD" horiz-adv-x="348" d="M61 233L64 253H297L294 233H61Z" />
<glyph unicode="&#xae;" glyph-name="registered" horiz-adv-x="382" d="M204 347Q163 347 131 366T79 417T60 490Q60 538 84 578T150 642T238 667Q279 667 311 649T363 598T382 524Q382 477 358 437T293 372T204 347ZM206 371Q258 371 309 411Q308 411 307 411T304
410Q297 410 288 413Q281 415 271 423T255 457L249 489Q245 501 238 506T223 511Q215 469 207 454Q190 420 158 420Q148 420 139 424T130 438Q130 440 133 440T136 438Q136 430 141 428T151 426Q169 426 179 445T194 486Q196 496 198 505T201 523Q208 551 218 571T244
605Q229 608 216 608Q193 608 171 597Q152 587 139 570T126 537Q125 518 132 510T150 501Q161 501 170 509T180 530V533Q180 549 171 549Q170 549 170 551T171 553Q177 553 182 547T187 532Q187 515 175 505T148 495Q135 495 125 504T115 532Q115 557 131 576T166
603Q189 613 216 613Q231 613 249 610Q262 621 275 621Q287 621 287 615Q287 613 286 613T283 613Q280 616 276 616Q266 616 258 608Q275 606 292 595T306 561Q302 535 283 526T240 514Q263 506 275 462Q280 446 289 431T313 416Q336 439 347 467T358 522Q358 574
323 609T236 644Q195 644 161 623T105 568T84 493Q84 441 119 406T206 371ZM224 518Q229 518 234 518T243 520Q259 523 271 536T284 566Q284 593 253 602Q247 593 242 584T233 561L224 518Z" />
<glyph unicode="&#xaf;" glyph-name="overscore" horiz-adv-x="500" d="M159 448L161 469H342L340 448H159Z" />
<glyph unicode="&#xb0;" glyph-name="degree" horiz-adv-x="267" d="M143 373Q117 373 99 392T80 437Q80 463 98 482T143 501Q170 501 188 482T207 437Q207 411 189 392T143 373ZM142 390Q162 390 175 404T189 437Q189 456 175 469T142 483Q123 483 110 470T96
437Q96 418 109 404T142 390Z" />
<glyph unicode="&#xb1;" glyph-name="plusminus" horiz-adv-x="388" d="M178 81V181H60V209H178V309H206V209H328V181H206V81H178ZM60 26V54H328V26H60Z" />
<glyph unicode="&#xb2;" glyph-name="uni00B2" horiz-adv-x="227" d="M161 346V355Q161 361 160 362T152 364H100Q93 364 83 364T61 363H43L40 364Q45 377 57 394T86 429Q112 454 130 476T148 527Q148 550 137 564T107 578Q91 578 81 568T70 542Q70 528 78 518T97
508Q102 508 112 518L118 517Q113 491 83 491Q65 491 54 503T42 531Q42 556 61 571T110 587Q144 587 165 571T187 531Q187 513 182 500T165 474Q158 467 147 457T122 436Q102 420 92 411T76 394H183L174 346H161Z" />
<glyph unicode="&#xb3;" glyph-name="uni00B3" horiz-adv-x="229" d="M96 354Q77 354 59 361T40 385Q40 401 56 401Q70 401 79 381Q86 363 102 363Q148 363 148 422Q148 472 116 472Q106 472 97 462Q89 451 79 451Q67 451 67 459Q67 470 82 476Q135 493 135 539Q135
571 104 571Q92 571 84 563T75 542Q75 519 92 519Q99 519 110 526L115 525Q105 503 82 503Q67 503 58 511T48 532Q48 553 68 568T114 583Q140 583 156 571T173 539Q173 519 158 506T121 482H124Q152 482 168 470Q189 455 189 432Q189 414 177 396T143 366T96 354Z"
/>
<glyph unicode="&#xb4;" glyph-name="acute" horiz-adv-x="500" d="M250 421Q235 421 235 424Q235 425 249 437T284 464T321 491T342 503Q348 503 358 498T368 486L250 421Z" />
<glyph unicode="&#xb5;" glyph-name="uni00B5" horiz-adv-x="286" d="M96 -236Q9 -244 9 -83Q9 -50 10 -13T14 55T16 93L22 211Q26 261 29 294T35 341Q42 341 57 345T79 362Q81 368 85 368Q88 368 87 358Q81 333 75 293T64 195Q61 167 61 133Q61 15 91 12Q112
5 138 58Q163 112 170 183Q190 350 185 354Q220 352 229 374Q231 382 235 380Q240 380 237 371L215 206Q209 163 207 131T204 77Q204 12 226 13Q246 8 264 37Q292 78 305 177Q308 186 313 186Q318 186 317 176Q292 -1 223 -1Q192 -1 177 29Q164 52 164 84Q135 -2
89 -2Q80 -2 69 5T49 35Q48 20 48 6T47 -21Q47 -67 51 -100T62 -151Q72 -178 86 -199T111 -219Q131 -217 149 -170Q151 -161 155 -161H156Q162 -161 162 -172Q155 -199 136 -216T96 -236Z" />
<glyph unicode="&#xb6;" glyph-name="paragraph" horiz-adv-x="403" d="M129 -109L187 368Q123 368 87 399T51 489Q51 602 149 645Q183 659 247 659H382L380 637H360L274 -109H245L331 637H292L206 -109H129Z" />
<glyph unicode="&#xb7;" glyph-name="middot" horiz-adv-x="152" d="M90 181Q76 181 66 191T56 215Q56 229 66 238T90 248Q104 248 113 239T123 215Q123 201 114 191T90 181Z" />
<glyph unicode="&#xb8;" glyph-name="cedilla" horiz-adv-x="500" d="M199 -172Q180 -172 166 -164T147 -138H160Q166 -148 176 -151T197 -155Q223 -155 236 -139T250 -105Q250 -92 243 -84T221 -75Q208 -75 201 -77T188 -81L181 -65Q184 -62 198 -47T228 -16T250
7L262 5Q260 3 249 -10T227 -37T218 -54Q222 -53 225 -53T232 -53Q251 -53 268 -64T286 -97Q286 -121 273 -137T239 -163T199 -172Z" />
<glyph unicode="&#xb9;" glyph-name="uni00B9" horiz-adv-x="193" d="M46 372L70 375Q82 377 83 390Q84 393 84 410T85 465V531Q85 551 81 558T66 565H40V573Q89 578 116 591H121Q118 531 118 472Q118 441 118 423T119 397V393Q119 377 132 376Q133 375 144 374Q148
372 153 372V363Q148 364 144 364T134 364Q124 364 115 364T100 365Q93 365 85 365T66 364Q62 364 57 364T46 363V372Z" />
<glyph unicode="&#xba;" glyph-name="ordmasculine" horiz-adv-x="234" d="M130 421Q75 421 75 502Q75 540 89 565Q91 593 105 610T141 628Q166 628 181 604T196 541Q196 506 186 476Q209 481 219 513Q219 517 224 517Q229 517 229 513Q220 472 183 466Q164 421
130 421ZM171 475Q181 499 181 540Q181 571 172 595T141 619Q115 619 107 588Q120 598 140 598Q158 598 158 591Q158 586 151 588Q145 590 141 590Q118 590 106 533Q120 470 171 475ZM133 431Q153 431 169 466H161Q140 466 125 477T102 504V491Q102 431 133 431Z"
/>
<glyph unicode="&#xbb;" glyph-name="guillemotright" horiz-adv-x="369" d="M89 318L202 225Q214 216 214 206Q214 196 198 178L64 41Q60 37 58 37Q55 37 55 40T58 48L171 201L86 304Q81 309 81 315Q81 324 89 318ZM189 318L302 225Q314 216 314 206Q314 196
298 178L164 41Q160 37 158 37Q155 37 155 41T158 48L271 201L186 304Q181 309 181 315Q181 324 189 318Z" />
<glyph unicode="&#xbc;" glyph-name="onequarter" horiz-adv-x="496" d="M296 333L659 720H691L328 333H296ZM49 619L73 622Q85 624 86 637Q87 640 87 657T88 712V778Q88 798 84 805T69 812H43V820Q92 825 119 838H124Q121 778 121 719Q121 688 121 670T122 644V640Q122
624 135 623Q136 622 147 621Q151 619 156 619V610Q151 611 147 611T137 611Q127 611 118 611T103 612Q96 612 88 612T69 611Q65 611 60 611T49 610V619ZM348 4L349 14Q370 14 376 17T382 42V75H295V88L404 230H417V89H456V75H417V46Q416 22 422 19T450 15V4Q446
4 442 4T432 5Q422 5 414 5T401 6Q394 6 386 6T366 5Q362 5 358 5T348 4ZM382 89V179L314 89H382Z" />
<glyph unicode="&#xbd;" glyph-name="onehalf" horiz-adv-x="475" d="M296 333L659 720H691L328 333H296ZM49 619L73 622Q85 624 86 637Q87 640 87 657T88 712V778Q88 798 84 805T69 812H43V820Q92 825 119 838H124Q121 778 121 719Q121 688 121 670T122 644V640Q122
624 135 623Q136 622 147 621Q151 619 156 619V610Q151 611 147 611T137 611Q127 611 118 611T103 612Q96 612 88 612T69 611Q65 611 60 611T49 610V619ZM402 -12V-3Q402 3 401 4T393 6H341Q334 6 324 6T302 5H284L281 6Q286 19 298 36T327 71Q353 96 371 118T389
169Q389 192 378 206T348 220Q332 220 322 210T311 184Q311 170 319 160T338 150Q343 150 353 160L359 159Q354 133 324 133Q306 133 295 145T283 173Q283 198 302 213T351 229Q385 229 406 213T428 173Q428 155 423 142T406 116Q399 109 388 99T363 78Q343 62
333 53T317 36H424L415 -12H402Z" />
<glyph unicode="&#xbe;" glyph-name="threequarters" horiz-adv-x="496" d="M96 354Q77 354 59 361T40 385Q40 401 56 401Q70 401 79 381Q86 363 102 363Q148 363 148 422Q148 472 116 472Q106 472 97 462Q89 451 79 451Q67 451 67 459Q67 470 82 476Q135 493
135 539Q135 571 104 571Q92 571 84 563T75 542Q75 519 92 519Q99 519 110 526L115 525Q105 503 82 503Q67 503 58 511T48 532Q48 553 68 568T114 583Q140 583 156 571T173 539Q173 519 158 506T121 482H124Q152 482 168 470Q189 455 189 432Q189 414 177 396T143
366T96 354ZM296 333L659 720H691L328 333H296ZM348 4L349 14Q370 14 376 17T382 42V75H295V88L404 230H417V89H456V75H417V46Q416 22 422 19T450 15V4Q446 4 442 4T432 5Q422 5 414 5T401 6Q394 6 386 6T366 5Q362 5 358 5T348 4ZM382 89V179L314 89H382Z" />
<glyph unicode="&#xbf;" glyph-name="questiondown" horiz-adv-x="347" d="M189 357Q203 357 213 347T223 323Q223 310 213 300T189 290Q176 290 166 300T156 323Q156 337 166 347T189 357ZM166 -153Q104 -153 77 -124T50 -38Q50 -3 64 24T97 71T131 104Q154 124
170 145T187 188Q187 207 179 215T170 237Q170 244 173 249T185 254Q197 254 203 240T209 208Q209 185 197 160T152 106Q121 78 108 44T94 -35Q94 -75 112 -107T170 -140Q200 -140 221 -120T253 -70T264 -11Q264 18 252 39T213 61Q199 61 184 52T168 23Q168 18
164 18T160 22Q160 50 177 61T213 72Q257 72 277 45T297 -18Q297 -49 282 -80T238 -132T166 -153Z" />
<glyph unicode="&#xc0;" glyph-name="Agrave" horiz-adv-x="852" d="M243 -86Q175 -86 122 -59T37 17T6 127Q6 184 32 230T104 304T209 332Q274 332 318 288Q358 247 358 185Q358 128 324 94T231 59Q203 59 190 69T176 89Q176 95 181 95Q183 95 186 91T193 84Q201
77 211 75T232 72Q282 72 310 103T339 185Q339 241 303 278T205 316Q153 316 116 291T58 224T37 132Q37 77 64 32T137 -41T244 -68Q354 -68 436 6T571 222Q594 285 618 346T667 455T718 527Q686 546 641 563T550 593T471 605Q421 605 379 588T311 538T286 454Q286
389 327 347T437 305Q495 305 533 332T572 412Q572 454 544 473Q540 475 537 477T533 483Q533 490 541 490Q543 490 555 485Q592 464 592 409Q592 351 547 319T436 287Q386 287 345 308T279 365T255 447Q255 510 283 556T363 627T480 653Q521 653 559 639T641 599T736
543Q790 578 835 578Q867 578 892 563T918 519Q918 498 903 488T867 477Q857 477 842 479T817 485Q806 449 795 402T776 281Q769 186 732 116T629 16Q640 19 650 19T667 20Q685 20 705 15T743 5T771 0Q789 0 789 16Q789 21 785 28T776 39Q776 47 783 47Q788 47
795 37T803 13Q803 -20 760 -20Q741 -20 711 -12Q665 -1 644 1T605 5Q634 40 652 68T683 124T705 184T723 259H607L595 225Q485 -86 243 -86ZM860 493Q877 493 887 499T898 519Q898 541 876 551T832 561Q788 561 751 533L802 508Q807 519 810 523T821 528Q825 528
827 525T829 519Q829 510 823 499Q831 496 841 495T860 493ZM729 280Q751 389 795 492Q790 494 775 501T734 521Q681 471 613 280H729ZM847 639L729 704Q729 711 739 716T755 721Q760 721 776 710T813 683T847 655T862 642Q862 639 847 639Z" />
<glyph unicode="&#xc1;" glyph-name="Aacute" horiz-adv-x="852" d="M243 -86Q175 -86 122 -59T37 17T6 127Q6 184 32 230T104 304T209 332Q274 332 318 288Q358 247 358 185Q358 128 324 94T231 59Q203 59 190 69T176 89Q176 95 181 95Q183 95 186 91T193 84Q201
77 211 75T232 72Q282 72 310 103T339 185Q339 241 303 278T205 316Q153 316 116 291T58 224T37 132Q37 77 64 32T137 -41T244 -68Q354 -68 436 6T571 222Q594 285 618 346T667 455T718 527Q686 546 641 563T550 593T471 605Q421 605 379 588T311 538T286 454Q286
389 327 347T437 305Q495 305 533 332T572 412Q572 454 544 473Q540 475 537 477T533 483Q533 490 541 490Q543 490 555 485Q592 464 592 409Q592 351 547 319T436 287Q386 287 345 308T279 365T255 447Q255 510 283 556T363 627T480 653Q521 653 559 639T641 599T736
543Q790 578 835 578Q867 578 892 563T918 519Q918 498 903 488T867 477Q857 477 842 479T817 485Q806 449 795 402T776 281Q769 186 732 116T629 16Q640 19 650 19T667 20Q685 20 705 15T743 5T771 0Q789 0 789 16Q789 21 785 28T776 39Q776 47 783 47Q788 47
795 37T803 13Q803 -20 760 -20Q741 -20 711 -12Q665 -1 644 1T605 5Q634 40 652 68T683 124T705 184T723 259H607L595 225Q485 -86 243 -86ZM860 493Q877 493 887 499T898 519Q898 541 876 551T832 561Q788 561 751 533L802 508Q807 519 810 523T821 528Q825 528
827 525T829 519Q829 510 823 499Q831 496 841 495T860 493ZM729 280Q751 389 795 492Q790 494 775 501T734 521Q681 471 613 280H729ZM847 639Q832 639 832 642Q832 643 846 655T881 682T918 709T939 721Q945 721 955 716T965 704L847 639Z" />
<glyph unicode="&#xc2;" glyph-name="Acircumflex" horiz-adv-x="852" d="M243 -86Q175 -86 122 -59T37 17T6 127Q6 184 32 230T104 304T209 332Q274 332 318 288Q358 247 358 185Q358 128 324 94T231 59Q203 59 190 69T176 89Q176 95 181 95Q183 95 186 91T193
84Q201 77 211 75T232 72Q282 72 310 103T339 185Q339 241 303 278T205 316Q153 316 116 291T58 224T37 132Q37 77 64 32T137 -41T244 -68Q354 -68 436 6T571 222Q594 285 618 346T667 455T718 527Q686 546 641 563T550 593T471 605Q421 605 379 588T311 538T286
454Q286 389 327 347T437 305Q495 305 533 332T572 412Q572 454 544 473Q540 475 537 477T533 483Q533 490 541 490Q543 490 555 485Q592 464 592 409Q592 351 547 319T436 287Q386 287 345 308T279 365T255 447Q255 510 283 556T363 627T480 653Q521 653 559 639T641
599T736 543Q790 578 835 578Q867 578 892 563T918 519Q918 498 903 488T867 477Q857 477 842 479T817 485Q806 449 795 402T776 281Q769 186 732 116T629 16Q640 19 650 19T667 20Q685 20 705 15T743 5T771 0Q789 0 789 16Q789 21 785 28T776 39Q776 47 783 47Q788
47 795 37T803 13Q803 -20 760 -20Q741 -20 711 -12Q665 -1 644 1T605 5Q634 40 652 68T683 124T705 184T723 259H607L595 225Q485 -86 243 -86ZM860 493Q877 493 887 499T898 519Q898 541 876 551T832 561Q788 561 751 533L802 508Q807 519 810 523T821 528Q825
528 827 525T829 519Q829 510 823 499Q831 496 841 495T860 493ZM729 280Q751 389 795 492Q790 494 775 501T734 521Q681 471 613 280H729ZM742 639L858 721Q863 724 866 724Q869 724 872 721Q877 716 888 704T912 678T933 654T942 642Q941 639 934 639L852 686L763
639H742Z" />
<glyph unicode="&#xc3;" glyph-name="Atilde" horiz-adv-x="852" d="M243 -86Q175 -86 122 -59T37 17T6 127Q6 184 32 230T104 304T209 332Q274 332 318 288Q358 247 358 185Q358 128 324 94T231 59Q203 59 190 69T176 89Q176 95 181 95Q183 95 186 91T193 84Q201
77 211 75T232 72Q282 72 310 103T339 185Q339 241 303 278T205 316Q153 316 116 291T58 224T37 132Q37 77 64 32T137 -41T244 -68Q354 -68 436 6T571 222Q594 285 618 346T667 455T718 527Q686 546 641 563T550 593T471 605Q421 605 379 588T311 538T286 454Q286
389 327 347T437 305Q495 305 533 332T572 412Q572 454 544 473Q540 475 537 477T533 483Q533 490 541 490Q543 490 555 485Q592 464 592 409Q592 351 547 319T436 287Q386 287 345 308T279 365T255 447Q255 510 283 556T363 627T480 653Q521 653 559 639T641 599T736
543Q790 578 835 578Q867 578 892 563T918 519Q918 498 903 488T867 477Q857 477 842 479T817 485Q806 449 795 402T776 281Q769 186 732 116T629 16Q640 19 650 19T667 20Q685 20 705 15T743 5T771 0Q789 0 789 16Q789 21 785 28T776 39Q776 47 783 47Q788 47
795 37T803 13Q803 -20 760 -20Q741 -20 711 -12Q665 -1 644 1T605 5Q634 40 652 68T683 124T705 184T723 259H607L595 225Q485 -86 243 -86ZM860 493Q877 493 887 499T898 519Q898 541 876 551T832 561Q788 561 751 533L802 508Q807 519 810 523T821 528Q825 528
827 525T829 519Q829 510 823 499Q831 496 841 495T860 493ZM729 280Q751 389 795 492Q790 494 775 501T734 521Q681 471 613 280H729ZM886 647Q871 647 855 655T825 671T797 679Q778 679 771 669T758 652H748Q753 672 771 691T812 711Q825 711 838 704T865 689T896
681Q919 681 927 691T938 707H946Q941 685 927 666T886 647Z" />
<glyph unicode="&#xc4;" glyph-name="Adieresis" horiz-adv-x="852" d="M243 -86Q175 -86 122 -59T37 17T6 127Q6 184 32 230T104 304T209 332Q274 332 318 288Q358 247 358 185Q358 128 324 94T231 59Q203 59 190 69T176 89Q176 95 181 95Q183 95 186 91T193
84Q201 77 211 75T232 72Q282 72 310 103T339 185Q339 241 303 278T205 316Q153 316 116 291T58 224T37 132Q37 77 64 32T137 -41T244 -68Q354 -68 436 6T571 222Q594 285 618 346T667 455T718 527Q686 546 641 563T550 593T471 605Q421 605 379 588T311 538T286
454Q286 389 327 347T437 305Q495 305 533 332T572 412Q572 454 544 473Q540 475 537 477T533 483Q533 490 541 490Q543 490 555 485Q592 464 592 409Q592 351 547 319T436 287Q386 287 345 308T279 365T255 447Q255 510 283 556T363 627T480 653Q521 653 559 639T641
599T736 543Q790 578 835 578Q867 578 892 563T918 519Q918 498 903 488T867 477Q857 477 842 479T817 485Q806 449 795 402T776 281Q769 186 732 116T629 16Q640 19 650 19T667 20Q685 20 705 15T743 5T771 0Q789 0 789 16Q789 21 785 28T776 39Q776 47 783 47Q788
47 795 37T803 13Q803 -20 760 -20Q741 -20 711 -12Q665 -1 644 1T605 5Q634 40 652 68T683 124T705 184T723 259H607L595 225Q485 -86 243 -86ZM860 493Q877 493 887 499T898 519Q898 541 876 551T832 561Q788 561 751 533L802 508Q807 519 810 523T821 528Q825
528 827 525T829 519Q829 510 823 499Q831 496 841 495T860 493ZM729 280Q751 389 795 492Q790 494 775 501T734 521Q681 471 613 280H729ZM898 649Q884 649 877 656T870 674Q870 689 881 700T906 712Q919 712 926 705T934 686Q934 672 923 661T898 649ZM789 649Q775
649 768 656T761 674Q761 689 772 700T797 712Q810 712 817 705T825 686Q825 672 814 661T789 649Z" />
<glyph unicode="&#xc5;" glyph-name="Aring" horiz-adv-x="852" d="M243 -86Q175 -86 122 -59T37 17T6 127Q6 184 32 230T104 304T209 332Q274 332 318 288Q358 247 358 185Q358 128 324 94T231 59Q203 59 190 69T176 89Q176 95 181 95Q183 95 186 91T193 84Q201
77 211 75T232 72Q282 72 310 103T339 185Q339 241 303 278T205 316Q153 316 116 291T58 224T37 132Q37 77 64 32T137 -41T244 -68Q354 -68 436 6T571 222Q594 285 618 346T667 455T718 527Q686 546 641 563T550 593T471 605Q421 605 379 588T311 538T286 454Q286
389 327 347T437 305Q495 305 533 332T572 412Q572 454 544 473Q540 475 537 477T533 483Q533 490 541 490Q543 490 555 485Q592 464 592 409Q592 351 547 319T436 287Q386 287 345 308T279 365T255 447Q255 510 283 556T363 627T480 653Q521 653 559 639T641 599T736
543Q790 578 835 578Q867 578 892 563T918 519Q918 498 903 488T867 477Q857 477 842 479T817 485Q806 449 795 402T776 281Q769 186 732 116T629 16Q640 19 650 19T667 20Q685 20 705 15T743 5T771 0Q789 0 789 16Q789 21 785 28T776 39Q776 47 783 47Q788 47
795 37T803 13Q803 -20 760 -20Q741 -20 711 -12Q665 -1 644 1T605 5Q634 40 652 68T683 124T705 184T723 259H607L595 225Q485 -86 243 -86ZM860 493Q877 493 887 499T898 519Q898 541 876 551T832 561Q788 561 751 533L802 508Q807 519 810 523T821 528Q825 528
827 525T829 519Q829 510 823 499Q831 496 841 495T860 493ZM729 280Q751 389 795 492Q790 494 775 501T734 521Q681 471 613 280H729ZM847 638Q826 638 812 652T798 687Q798 710 815 727T857 745Q877 745 891 731T905 697Q905 673 888 656T847 638ZM849 657Q863
657 874 668T886 696Q886 709 878 717T855 726Q840 726 829 715T817 688Q817 675 826 666T849 657Z" />
<glyph unicode="&#xc6;" glyph-name="AE" horiz-adv-x="1275" d="M243 -86Q175 -86 122 -59T37 17T6 127Q6 184 32 230T104 304T209 332Q274 332 318 288Q358 247 358 185Q358 128 324 94T231 59Q203 59 190 69T176 89Q176 95 181 95Q183 95 186 91T193 84Q201
77 211 75T232 72Q282 72 310 103T339 185Q339 241 303 278T205 316Q153 316 116 291T58 224T37 132Q37 77 64 32T137 -41T244 -68Q354 -68 436 6T571 222Q594 285 618 346T667 455T718 527Q686 546 641 563T550 593T471 605Q421 605 379 588T311 538T286 454Q286
389 327 347T437 305Q495 305 533 332T572 412Q572 454 544 473Q540 475 537 477T533 483Q533 490 541 490Q543 490 555 485Q592 464 592 409Q592 351 547 319T436 287Q386 287 345 308T279 365T255 447Q255 510 283 556T363 627T480 653Q521 653 559 639T641 599T736
543Q790 578 835 578Q862 578 879 568Q898 609 941 629T1035 650Q1068 650 1097 639T1145 606T1164 553Q1164 526 1144 505T1094 484Q1072 484 1060 498T1047 527Q1047 535 1052 535Q1056 535 1060 525Q1064 515 1073 506T1095 497Q1114 497 1127 513T1140 551Q1140
590 1110 613T1040 637Q982 637 949 601T915 505Q915 456 941 424Q955 428 974 430T1011 433Q1078 433 1078 400Q1078 385 1062 376T1022 367Q991 367 967 377T919 404Q875 388 844 354T798 274T782 178Q782 121 811 77T888 7T996 -19Q1061 -19 1113 5T1197 73T1228
182Q1228 230 1202 263T1128 297Q1099 297 1082 283T1064 245Q1064 235 1068 232T1077 228Q1078 228 1078 227Q1078 221 1070 221Q1063 221 1057 228T1051 251Q1051 279 1074 296T1126 314Q1188 314 1224 276T1261 176Q1261 109 1226 62T1133 -9T1008 -34Q915 -34
843 3T743 113Q707 59 635 16Q646 19 653 19T667 20Q685 20 705 15T743 5T771 0Q789 0 789 16Q789 22 796 22Q803 22 803 13Q803 -20 760 -20Q741 -20 711 -12Q665 -1 644 1T605 5Q634 40 652 68T683 124T705 184T723 259H607L595 225Q485 -86 243 -86ZM860 493H868Q867
498 867 503T867 513Q867 534 873 552Q854 561 832 561Q788 561 751 533L802 508Q812 529 824 529Q832 529 832 518Q832 509 826 498Q834 495 843 494T860 493ZM729 280Q751 389 795 492Q790 494 775 501T734 521Q681 471 613 280H729ZM797 351Q819 372 847 388T907
414Q880 441 871 477H867Q857 477 846 478T822 482Q814 456 808 425T797 351ZM1022 380Q1038 380 1049 385T1060 399Q1060 410 1047 415T1011 420Q996 420 981 418T950 412Q966 397 983 389T1022 380Z" />
<glyph unicode="&#xc7;" glyph-name="Ccedilla" horiz-adv-x="703" d="M383 -39Q292 -39 222 0T111 110T71 270Q71 320 86 368Q33 403 11 443T-12 528Q-12 578 10 620T79 689T195 715Q245 715 290 695T359 630Q405 640 453 640Q506 640 549 627T619 586T645 512Q645
460 617 421T542 356T441 316T333 302Q273 302 224 311T139 336Q137 317 136 300T134 266Q134 134 200 57T386 -21Q445 -21 493 -1T569 55T597 139Q597 171 582 194T536 218Q520 218 505 208T489 181Q489 177 489 173T490 165Q490 155 484 155Q474 155 474 181Q474
207 492 223T536 239Q579 239 606 210T634 138Q634 96 612 63T552 8T471 -27T383 -39ZM20 533Q20 499 38 464T93 397Q125 485 190 543T339 625Q301 697 193 697Q143 697 104 674T43 613T20 533ZM329 322Q378 322 426 333T513 365T575 418T599 492Q599 531 578 560T521
605T444 621Q403 621 366 612Q375 586 375 554Q375 528 365 502T335 460T288 443Q278 443 278 451Q278 456 284 456Q309 456 324 472T348 510T356 552Q356 582 347 607Q267 583 214 519T142 362Q177 344 228 333T329 322ZM294 55Q275 55 261 63T242 89H255Q261
79 271 76T292 72Q318 72 331 88T345 122Q345 135 338 143T316 152Q303 152 296 150T283 146L276 162Q279 165 293 180T323 211T345 234L357 232Q355 230 344 217T322 190T313 173Q317 174 320 174T327 174Q346 174 363 163T381 130Q381 106 368 90T334 64T294
55Z" />
<glyph unicode="&#xc8;" glyph-name="Egrave" horiz-adv-x="584" d="M317 -37Q239 -37 176 -11T76 65T38 189Q38 270 87 328T216 411Q176 451 176 510Q176 555 199 585T261 631T344 647Q377 647 406 636T454 603T473 550Q473 523 453 502T403 481Q381 481 369
495T356 524Q356 532 361 532Q365 532 369 522Q373 512 382 503T404 494Q423 494 436 510T449 548Q449 587 419 610T349 634Q291 634 258 598T224 502Q224 453 250 421Q264 425 283 427T320 430Q387 430 387 397Q387 382 371 373T331 364Q300 364 276 374T228 401Q184
385 153 351T107 271T91 175Q91 118 120 74T197 4T305 -22Q370 -22 422 2T506 70T537 179Q537 227 511 260T437 294Q408 294 391 280T373 242Q373 232 377 229T386 225Q387 225 387 224Q387 218 379 218Q372 218 366 225T360 248Q360 276 383 293T435 311Q497 311
533 273T570 173Q570 106 535 59T442 -12T317 -37ZM331 377Q347 377 358 382T369 396Q369 407 356 412T320 417Q305 417 290 415T259 409Q275 394 292 386T331 377ZM348 701L230 766Q230 773 240 778T256 783Q261 783 277 772T314 745T348 717T363 704Q363 701
348 701Z" />
<glyph unicode="&#xc9;" glyph-name="Eacute" horiz-adv-x="584" d="M317 -37Q239 -37 176 -11T76 65T38 189Q38 270 87 328T216 411Q176 451 176 510Q176 555 199 585T261 631T344 647Q377 647 406 636T454 603T473 550Q473 523 453 502T403 481Q381 481 369
495T356 524Q356 532 361 532Q365 532 369 522Q373 512 382 503T404 494Q423 494 436 510T449 548Q449 587 419 610T349 634Q291 634 258 598T224 502Q224 453 250 421Q264 425 283 427T320 430Q387 430 387 397Q387 382 371 373T331 364Q300 364 276 374T228 401Q184
385 153 351T107 271T91 175Q91 118 120 74T197 4T305 -22Q370 -22 422 2T506 70T537 179Q537 227 511 260T437 294Q408 294 391 280T373 242Q373 232 377 229T386 225Q387 225 387 224Q387 218 379 218Q372 218 366 225T360 248Q360 276 383 293T435 311Q497 311
533 273T570 173Q570 106 535 59T442 -12T317 -37ZM331 377Q347 377 358 382T369 396Q369 407 356 412T320 417Q305 417 290 415T259 409Q275 394 292 386T331 377ZM348 701Q333 701 333 704Q333 705 347 717T382 744T419 771T440 783Q446 783 456 778T466 766L348
701Z" />
<glyph unicode="&#xca;" glyph-name="Ecircumflex" horiz-adv-x="584" d="M317 -37Q239 -37 176 -11T76 65T38 189Q38 270 87 328T216 411Q176 451 176 510Q176 555 199 585T261 631T344 647Q377 647 406 636T454 603T473 550Q473 523 453 502T403 481Q381 481
369 495T356 524Q356 532 361 532Q365 532 369 522Q373 512 382 503T404 494Q423 494 436 510T449 548Q449 587 419 610T349 634Q291 634 258 598T224 502Q224 453 250 421Q264 425 283 427T320 430Q387 430 387 397Q387 382 371 373T331 364Q300 364 276 374T228
401Q184 385 153 351T107 271T91 175Q91 118 120 74T197 4T305 -22Q370 -22 422 2T506 70T537 179Q537 227 511 260T437 294Q408 294 391 280T373 242Q373 232 377 229T386 225Q387 225 387 224Q387 218 379 218Q372 218 366 225T360 248Q360 276 383 293T435 311Q497
311 533 273T570 173Q570 106 535 59T442 -12T317 -37ZM331 377Q347 377 358 382T369 396Q369 407 356 412T320 417Q305 417 290 415T259 409Q275 394 292 386T331 377ZM243 701L359 783Q364 786 367 786Q370 786 373 783Q378 778 389 766T413 740T434 716T443
704Q442 701 435 701L353 748L264 701H243Z" />
<glyph unicode="&#xcb;" glyph-name="Edieresis" horiz-adv-x="584" d="M317 -37Q239 -37 176 -11T76 65T38 189Q38 270 87 328T216 411Q176 451 176 510Q176 555 199 585T261 631T344 647Q377 647 406 636T454 603T473 550Q473 523 453 502T403 481Q381 481 369
495T356 524Q356 532 361 532Q365 532 369 522Q373 512 382 503T404 494Q423 494 436 510T449 548Q449 587 419 610T349 634Q291 634 258 598T224 502Q224 453 250 421Q264 425 283 427T320 430Q387 430 387 397Q387 382 371 373T331 364Q300 364 276 374T228 401Q184
385 153 351T107 271T91 175Q91 118 120 74T197 4T305 -22Q370 -22 422 2T506 70T537 179Q537 227 511 260T437 294Q408 294 391 280T373 242Q373 232 377 229T386 225Q387 225 387 224Q387 218 379 218Q372 218 366 225T360 248Q360 276 383 293T435 311Q497 311
533 273T570 173Q570 106 535 59T442 -12T317 -37ZM331 377Q347 377 358 382T369 396Q369 407 356 412T320 417Q305 417 290 415T259 409Q275 394 292 386T331 377ZM399 711Q385 711 378 718T371 736Q371 751 382 762T407 774Q420 774 427 767T435 748Q435 734
424 723T399 711ZM290 711Q276 711 269 718T262 736Q262 751 273 762T298 774Q311 774 318 767T326 748Q326 734 315 723T290 711Z" />
<glyph unicode="&#xcc;" glyph-name="Igrave" horiz-adv-x="484" d="M186 -52Q133 -52 90 -28T21 38T-4 134Q-4 183 18 226T78 297T166 324Q200 324 226 307T267 260T283 197Q283 154 255 126T183 98Q144 98 126 123T107 182Q107 212 120 212Q123 212 123 207Q120
200 120 191T119 178Q119 150 135 129T179 107Q217 107 241 133T266 198Q266 228 253 254T218 296T167 312Q125 312 96 289T52 230T36 152Q36 67 74 14T191 -39Q244 -39 279 -13T335 60T368 166T386 293Q378 291 350 291Q317 291 289 308T242 355T224 426Q224 494
261 540T358 611T486 636Q538 636 572 621Q574 619 574 617Q574 613 561 612Q541 610 522 592T487 547T463 497Q501 468 501 420Q501 338 433 306Q431 207 404 126T323 -4T186 -52ZM362 302Q368 302 376 302T387 304L390 357Q392 388 401 423T427 499Q421 501 410
501Q389 501 374 487T359 452Q359 432 368 423Q374 420 374 418Q374 414 369 414Q359 414 354 426T348 451Q348 477 368 494T415 512Q426 512 432 510Q479 615 540 616Q513 623 479 623Q424 623 376 603T296 544T256 453Q255 446 255 437T254 417Q254 360 283 331T362
302ZM433 321Q464 338 476 363T488 419Q488 442 479 459T459 487Q447 450 441 409T433 321ZM462 701L344 766Q344 773 354 778T370 783Q375 783 391 772T428 745T462 717T477 704Q477 701 462 701Z" />
<glyph unicode="&#xcd;" glyph-name="Iacute" horiz-adv-x="484" d="M186 -52Q133 -52 90 -28T21 38T-4 134Q-4 183 18 226T78 297T166 324Q200 324 226 307T267 260T283 197Q283 154 255 126T183 98Q144 98 126 123T107 182Q107 212 120 212Q123 212 123 207Q120
200 120 191T119 178Q119 150 135 129T179 107Q217 107 241 133T266 198Q266 228 253 254T218 296T167 312Q125 312 96 289T52 230T36 152Q36 67 74 14T191 -39Q244 -39 279 -13T335 60T368 166T386 293Q378 291 350 291Q317 291 289 308T242 355T224 426Q224 494
261 540T358 611T486 636Q538 636 572 621Q574 619 574 617Q574 613 561 612Q541 610 522 592T487 547T463 497Q501 468 501 420Q501 338 433 306Q431 207 404 126T323 -4T186 -52ZM362 302Q368 302 376 302T387 304L390 357Q392 388 401 423T427 499Q421 501 410
501Q389 501 374 487T359 452Q359 432 368 423Q374 420 374 418Q374 414 369 414Q359 414 354 426T348 451Q348 477 368 494T415 512Q426 512 432 510Q479 615 540 616Q513 623 479 623Q424 623 376 603T296 544T256 453Q255 446 255 437T254 417Q254 360 283 331T362
302ZM433 321Q464 338 476 363T488 419Q488 442 479 459T459 487Q447 450 441 409T433 321ZM462 701Q447 701 447 704Q447 705 461 717T496 744T533 771T554 783Q560 783 570 778T580 766L462 701Z" />
<glyph unicode="&#xce;" glyph-name="Icircumflex" horiz-adv-x="484" d="M186 -52Q133 -52 90 -28T21 38T-4 134Q-4 183 18 226T78 297T166 324Q200 324 226 307T267 260T283 197Q283 154 255 126T183 98Q144 98 126 123T107 182Q107 212 120 212Q123 212 123
207Q120 200 120 191T119 178Q119 150 135 129T179 107Q217 107 241 133T266 198Q266 228 253 254T218 296T167 312Q125 312 96 289T52 230T36 152Q36 67 74 14T191 -39Q244 -39 279 -13T335 60T368 166T386 293Q378 291 350 291Q317 291 289 308T242 355T224 426Q224
494 261 540T358 611T486 636Q538 636 572 621Q574 619 574 617Q574 613 561 612Q541 610 522 592T487 547T463 497Q501 468 501 420Q501 338 433 306Q431 207 404 126T323 -4T186 -52ZM362 302Q368 302 376 302T387 304L390 357Q392 388 401 423T427 499Q421 501
410 501Q389 501 374 487T359 452Q359 432 368 423Q374 420 374 418Q374 414 369 414Q359 414 354 426T348 451Q348 477 368 494T415 512Q426 512 432 510Q479 615 540 616Q513 623 479 623Q424 623 376 603T296 544T256 453Q255 446 255 437T254 417Q254 360 283
331T362 302ZM433 321Q464 338 476 363T488 419Q488 442 479 459T459 487Q447 450 441 409T433 321ZM357 701L473 783Q478 786 481 786Q484 786 487 783Q492 778 503 766T527 740T548 716T557 704Q556 701 549 701L467 748L378 701H357Z" />
<glyph unicode="&#xcf;" glyph-name="Idieresis" horiz-adv-x="484" d="M186 -52Q133 -52 90 -28T21 38T-4 134Q-4 183 18 226T78 297T166 324Q200 324 226 307T267 260T283 197Q283 154 255 126T183 98Q144 98 126 123T107 182Q107 212 120 212Q123 212 123 207Q120
200 120 191T119 178Q119 150 135 129T179 107Q217 107 241 133T266 198Q266 228 253 254T218 296T167 312Q125 312 96 289T52 230T36 152Q36 67 74 14T191 -39Q244 -39 279 -13T335 60T368 166T386 293Q378 291 350 291Q317 291 289 308T242 355T224 426Q224 494
261 540T358 611T486 636Q538 636 572 621Q574 619 574 617Q574 613 561 612Q541 610 522 592T487 547T463 497Q501 468 501 420Q501 338 433 306Q431 207 404 126T323 -4T186 -52ZM362 302Q368 302 376 302T387 304L390 357Q392 388 401 423T427 499Q421 501 410
501Q389 501 374 487T359 452Q359 432 368 423Q374 420 374 418Q374 414 369 414Q359 414 354 426T348 451Q348 477 368 494T415 512Q426 512 432 510Q479 615 540 616Q513 623 479 623Q424 623 376 603T296 544T256 453Q255 446 255 437T254 417Q254 360 283 331T362
302ZM433 321Q464 338 476 363T488 419Q488 442 479 459T459 487Q447 450 441 409T433 321ZM513 711Q499 711 492 718T485 736Q485 751 496 762T521 774Q534 774 541 767T549 748Q549 734 538 723T513 711ZM404 711Q390 711 383 718T376 736Q376 751 387 762T412
774Q425 774 432 767T440 748Q440 734 429 723T404 711Z" />
<glyph unicode="&#xd0;" glyph-name="Eth" horiz-adv-x="738" d="M130 -36Q112 -36 93 -31T60 -15T47 13Q47 33 67 47T113 61Q140 61 172 51T225 30Q266 89 288 210Q304 299 316 370T349 499T410 600Q380 607 352 610T297 613Q222 613 163 582T70 496T36 372Q36
333 49 300T88 246T149 226Q182 226 205 246T241 299T254 368Q254 406 238 435T188 464Q162 464 142 444T122 397Q122 366 146 366Q150 366 154 366T158 363Q158 357 147 357Q112 357 112 397Q112 429 135 452T190 475Q219 475 238 457T267 412T277 356Q277 290
237 251T138 212Q93 212 62 234T14 292T-3 370Q-3 430 21 478T88 559T184 611T298 629Q362 629 423 617Q461 650 500 650Q531 650 531 641Q531 637 526 637Q524 637 521 637T513 638Q509 639 505 639T499 639Q466 639 441 611Q566 580 638 503T710 302Q710 207
669 135T556 22T387 -19Q324 -19 239 10Q212 -13 192 -24T130 -36ZM363 1Q426 1 480 24T574 87T636 182T659 300Q659 532 430 596Q414 572 400 524T375 414T353 281Q348 244 339 197T310 103T253 22Q312 1 363 1ZM137 -23Q180 -23 216 20Q162 42 130 42Q104 42
91 32T78 8Q78 -4 88 -10T113 -20T137 -23ZM207 394L208 417H393L391 394H207Z" />
<glyph unicode="&#xd1;" glyph-name="Ntilde" horiz-adv-x="976" d="M248 -63Q186 -63 134 -35T52 43T21 154Q21 222 58 275Q12 333 12 417Q12 504 56 565T175 657T343 689Q387 689 429 680T520 654T632 615Q648 631 672 636T715 642Q734 642 746 636T758 615Q758
603 747 595T716 587Q704 587 689 590T657 598Q652 585 652 567Q652 523 664 486T696 410T744 320Q774 267 798 217T838 126T853 57Q853 16 839 -12Q862 2 875 36T895 141T901 334Q901 397 905 456T923 563T965 639T1041 668Q1079 668 1102 642T1126 572Q1126 551
1122 531T1107 493Q1083 455 1033 455Q1020 455 1020 461Q1020 466 1033 466Q1053 466 1069 474T1096 500Q1112 528 1112 571Q1112 605 1094 631T1040 657Q1004 657 981 629T944 553T925 449T920 335Q920 238 916 166T896 47T842 -24Q841 -25 835 -25Q831 -25 827
-24T822 -22Q825 -20 827 -12T829 4Q829 19 823 35Q802 86 767 149T696 277Q663 340 639 398T614 498Q614 552 637 604Q604 582 586 514Q571 457 567 397T558 275T535 154T475 42Q436 -6 377 -34T248 -63ZM251 -48Q314 -48 368 -14T466 95Q492 138 507 191T532
303T551 418T575 524Q592 585 623 609Q544 630 481 645T361 661Q269 661 197 633T83 548T41 408Q41 345 74 295Q123 350 199 350Q254 350 295 321T352 239Q441 301 441 401Q441 442 424 474T376 526T305 546Q258 546 223 518T188 443Q188 401 222 382Q231 382 231
377Q231 375 226 373Q222 373 212 378Q175 400 175 448Q175 500 211 532T299 564Q370 564 413 522T457 409Q457 287 356 221Q357 212 357 206T358 194Q358 144 330 109Q300 70 253 70Q240 70 231 72T221 78Q221 84 227 84Q229 84 234 84T246 83Q288 83 315 114T342
188Q342 196 342 202T340 212Q318 200 293 194T235 188Q140 188 75 256Q48 211 48 157Q48 96 73 50T144 -22T251 -48ZM714 597Q727 597 736 601T745 614Q745 624 736 628T714 633Q679 633 663 608Q683 603 695 600T714 597ZM235 204Q287 204 336 231Q324 278 289
307T206 336Q136 336 88 276Q151 204 235 204ZM876 709Q861 709 845 717T815 733T787 741Q768 741 761 731T748 714H738Q743 734 761 753T802 773Q815 773 828 766T855 751T886 743Q909 743 917 753T928 769H936Q931 747 917 728T876 709Z" />
<glyph unicode="&#xd2;" glyph-name="Ograve" horiz-adv-x="659" d="M310 -38Q220 -38 157 3T61 116T28 276Q28 402 86 498Q22 551 22 610Q22 656 53 680T131 705Q183 705 212 676Q217 671 217 668Q217 666 214 666T210 666Q192 680 173 687T132 695Q92 695 68
674T43 612Q43 558 95 513Q189 652 370 652Q433 652 476 629Q525 598 525 540Q618 462 618 321Q618 216 581 135T474 8T310 -38ZM317 435Q358 435 397 444T464 474T501 525Q462 567 413 567Q389 567 372 559T340 538Q335 538 335 545Q335 559 349 567T382 580T414
584Q436 584 458 579T502 556Q486 640 369 640Q298 640 231 594Q171 551 136 484Q177 462 223 449T317 435ZM315 -22Q374 -22 421 6T501 83T551 194T568 323Q568 441 513 509Q489 461 437 439T323 417Q274 417 221 430T128 468Q107 427 97 382T87 286Q87 227 102
172T146 73T217 4T315 -22ZM380 713L262 778Q262 785 272 790T288 795Q293 795 309 784T346 757T380 729T395 716Q395 713 380 713Z" />
<glyph unicode="&#xd3;" glyph-name="Oacute" horiz-adv-x="659" d="M310 -38Q220 -38 157 3T61 116T28 276Q28 402 86 498Q22 551 22 610Q22 656 53 680T131 705Q183 705 212 676Q217 671 217 668Q217 666 214 666T210 666Q192 680 173 687T132 695Q92 695 68
674T43 612Q43 558 95 513Q189 652 370 652Q433 652 476 629Q525 598 525 540Q618 462 618 321Q618 216 581 135T474 8T310 -38ZM317 435Q358 435 397 444T464 474T501 525Q462 567 413 567Q389 567 372 559T340 538Q335 538 335 545Q335 559 349 567T382 580T414
584Q436 584 458 579T502 556Q486 640 369 640Q298 640 231 594Q171 551 136 484Q177 462 223 449T317 435ZM315 -22Q374 -22 421 6T501 83T551 194T568 323Q568 441 513 509Q489 461 437 439T323 417Q274 417 221 430T128 468Q107 427 97 382T87 286Q87 227 102
172T146 73T217 4T315 -22ZM380 713Q365 713 365 716Q365 717 379 729T414 756T451 783T472 795Q478 795 488 790T498 778L380 713Z" />
<glyph unicode="&#xd4;" glyph-name="Ocircumflex" horiz-adv-x="659" d="M310 -38Q220 -38 157 3T61 116T28 276Q28 402 86 498Q22 551 22 610Q22 656 53 680T131 705Q183 705 212 676Q217 671 217 668Q217 666 214 666T210 666Q192 680 173 687T132 695Q92 695
68 674T43 612Q43 558 95 513Q189 652 370 652Q433 652 476 629Q525 598 525 540Q618 462 618 321Q618 216 581 135T474 8T310 -38ZM317 435Q358 435 397 444T464 474T501 525Q462 567 413 567Q389 567 372 559T340 538Q335 538 335 545Q335 559 349 567T382 580T414
584Q436 584 458 579T502 556Q486 640 369 640Q298 640 231 594Q171 551 136 484Q177 462 223 449T317 435ZM315 -22Q374 -22 421 6T501 83T551 194T568 323Q568 441 513 509Q489 461 437 439T323 417Q274 417 221 430T128 468Q107 427 97 382T87 286Q87 227 102
172T146 73T217 4T315 -22ZM275 713L391 795Q396 798 399 798Q402 798 405 795Q410 790 421 778T445 752T466 728T475 716Q474 713 467 713L385 760L296 713H275Z" />
<glyph unicode="&#xd5;" glyph-name="Otilde" horiz-adv-x="659" d="M310 -38Q220 -38 157 3T61 116T28 276Q28 402 86 498Q22 551 22 610Q22 656 53 680T131 705Q183 705 212 676Q217 671 217 668Q217 666 214 666T210 666Q192 680 173 687T132 695Q92 695 68
674T43 612Q43 558 95 513Q189 652 370 652Q433 652 476 629Q525 598 525 540Q618 462 618 321Q618 216 581 135T474 8T310 -38ZM317 435Q358 435 397 444T464 474T501 525Q462 567 413 567Q389 567 372 559T340 538Q335 538 335 545Q335 559 349 567T382 580T414
584Q436 584 458 579T502 556Q486 640 369 640Q298 640 231 594Q171 551 136 484Q177 462 223 449T317 435ZM315 -22Q374 -22 421 6T501 83T551 194T568 323Q568 441 513 509Q489 461 437 439T323 417Q274 417 221 430T128 468Q107 427 97 382T87 286Q87 227 102
172T146 73T217 4T315 -22ZM419 721Q404 721 388 729T358 745T330 753Q311 753 304 743T291 726H281Q286 746 304 765T345 785Q358 785 371 778T398 763T429 755Q452 755 460 765T471 781H479Q474 759 460 740T419 721Z" />
<glyph unicode="&#xd6;" glyph-name="Odieresis" horiz-adv-x="659" d="M310 -38Q220 -38 157 3T61 116T28 276Q28 402 86 498Q22 551 22 610Q22 656 53 680T131 705Q183 705 212 676Q217 671 217 668Q217 666 214 666T210 666Q192 680 173 687T132 695Q92 695
68 674T43 612Q43 558 95 513Q189 652 370 652Q433 652 476 629Q525 598 525 540Q618 462 618 321Q618 216 581 135T474 8T310 -38ZM317 435Q358 435 397 444T464 474T501 525Q462 567 413 567Q389 567 372 559T340 538Q335 538 335 545Q335 559 349 567T382 580T414
584Q436 584 458 579T502 556Q486 640 369 640Q298 640 231 594Q171 551 136 484Q177 462 223 449T317 435ZM315 -22Q374 -22 421 6T501 83T551 194T568 323Q568 441 513 509Q489 461 437 439T323 417Q274 417 221 430T128 468Q107 427 97 382T87 286Q87 227 102
172T146 73T217 4T315 -22ZM431 723Q417 723 410 730T403 748Q403 763 414 774T439 786Q452 786 459 779T467 760Q467 746 456 735T431 723ZM322 723Q308 723 301 730T294 748Q294 763 305 774T330 786Q343 786 350 779T358 760Q358 746 347 735T322 723Z" />
<glyph unicode="&#xd7;" glyph-name="multiply" horiz-adv-x="331" d="M251 70L165 156L80 72L60 92L145 176L61 260L81 280L165 196L250 281L270 261L185 176L271 90L251 70Z" />
<glyph unicode="&#xd8;" glyph-name="Oslash" horiz-adv-x="578" d="M48 -92L120 33Q75 75 52 138T28 276Q28 402 86 498Q22 551 22 610Q22 656 53 680T131 705Q183 705 212 676Q217 671 217 668Q217 666 214 666T210 666Q192 680 173 687T132 695Q92 695 68 674T43
612Q43 558 95 513Q189 652 370 652Q426 652 466 634L519 726H552L490 619Q525 589 525 540Q618 462 618 321Q618 216 581 135T474 8T310 -38Q259 -38 217 -24T141 15L79 -92H48ZM317 435Q335 435 352 437L427 566Q420 567 413 567Q389 567 372 559T340 538Q335
538 335 545Q335 559 349 567T382 580T414 584Q426 584 437 583L458 620Q425 640 369 640Q298 640 231 594Q171 551 136 484Q177 462 223 449T317 435ZM502 556Q497 584 480 602L465 576Q484 569 502 556ZM501 525Q480 548 455 558L388 442Q429 451 460 471T501
525ZM315 -22Q374 -22 421 6T501 83T551 194T568 323Q568 441 513 509Q494 471 458 450T376 421L162 52Q191 18 229 -2T315 -22ZM87 286Q87 228 101 173T145 76L341 417Q332 417 323 417Q274 417 221 430T128 468Q107 427 97 382T87 286Z" />
<glyph unicode="&#xd9;" glyph-name="Ugrave" horiz-adv-x="658" d="M631 -103Q588 -103 567 -69T540 23T533 147Q533 174 536 206T545 269T554 325Q534 253 514 191T467 81T405 8T322 -19Q273 -19 253 9T232 84Q232 127 245 179T279 287Q296 334 305 379T315
465Q315 532 285 575T184 619Q128 619 80 590T2 514T-28 409Q-28 370 -14 336T28 282T93 261Q139 261 168 290T197 365V376Q197 384 203 384Q209 384 209 365Q209 311 173 279T87 246Q41 246 9 268T-41 327T-59 404Q-59 450 -39 491T14 563T91 612T181 630Q276
630 321 584T366 461Q366 392 331 304Q307 242 287 178T267 67Q267 34 280 14T326 -6Q372 -6 405 26T463 114T512 243T561 401Q570 426 586 450T624 491T673 507Q706 507 706 492Q706 483 691 483Q693 483 687 483T673 484Q618 484 597 397Q586 352 581 297T575
166Q575 82 585 23T616 -68Q627 -85 640 -85Q647 -85 654 -77T666 -55Q673 -55 673 -61Q673 -80 659 -91T631 -103ZM519 651L401 716Q401 723 411 728T427 733Q432 733 448 722T485 695T519 667T534 654Q534 651 519 651Z" />
<glyph unicode="&#xda;" glyph-name="Uacute" horiz-adv-x="658" d="M631 -103Q588 -103 567 -69T540 23T533 147Q533 174 536 206T545 269T554 325Q534 253 514 191T467 81T405 8T322 -19Q273 -19 253 9T232 84Q232 127 245 179T279 287Q296 334 305 379T315
465Q315 532 285 575T184 619Q128 619 80 590T2 514T-28 409Q-28 370 -14 336T28 282T93 261Q139 261 168 290T197 365V376Q197 384 203 384Q209 384 209 365Q209 311 173 279T87 246Q41 246 9 268T-41 327T-59 404Q-59 450 -39 491T14 563T91 612T181 630Q276
630 321 584T366 461Q366 392 331 304Q307 242 287 178T267 67Q267 34 280 14T326 -6Q372 -6 405 26T463 114T512 243T561 401Q570 426 586 450T624 491T673 507Q706 507 706 492Q706 483 691 483Q693 483 687 483T673 484Q618 484 597 397Q586 352 581 297T575
166Q575 82 585 23T616 -68Q627 -85 640 -85Q647 -85 654 -77T666 -55Q673 -55 673 -61Q673 -80 659 -91T631 -103ZM519 651Q504 651 504 654Q504 655 518 667T553 694T590 721T611 733Q617 733 627 728T637 716L519 651Z" />
<glyph unicode="&#xdb;" glyph-name="Ucircumflex" horiz-adv-x="658" d="M631 -103Q588 -103 567 -69T540 23T533 147Q533 174 536 206T545 269T554 325Q534 253 514 191T467 81T405 8T322 -19Q273 -19 253 9T232 84Q232 127 245 179T279 287Q296 334 305 379T315
465Q315 532 285 575T184 619Q128 619 80 590T2 514T-28 409Q-28 370 -14 336T28 282T93 261Q139 261 168 290T197 365V376Q197 384 203 384Q209 384 209 365Q209 311 173 279T87 246Q41 246 9 268T-41 327T-59 404Q-59 450 -39 491T14 563T91 612T181 630Q276
630 321 584T366 461Q366 392 331 304Q307 242 287 178T267 67Q267 34 280 14T326 -6Q372 -6 405 26T463 114T512 243T561 401Q570 426 586 450T624 491T673 507Q706 507 706 492Q706 483 691 483Q693 483 687 483T673 484Q618 484 597 397Q586 352 581 297T575
166Q575 82 585 23T616 -68Q627 -85 640 -85Q647 -85 654 -77T666 -55Q673 -55 673 -61Q673 -80 659 -91T631 -103ZM414 651L530 733Q535 736 538 736Q541 736 544 733Q549 728 560 716T584 690T605 666T614 654Q613 651 606 651L524 698L435 651H414Z" />
<glyph unicode="&#xdc;" glyph-name="Udieresis" horiz-adv-x="658" d="M631 -103Q588 -103 567 -69T540 23T533 147Q533 174 536 206T545 269T554 325Q534 253 514 191T467 81T405 8T322 -19Q273 -19 253 9T232 84Q232 127 245 179T279 287Q296 334 305 379T315
465Q315 532 285 575T184 619Q128 619 80 590T2 514T-28 409Q-28 370 -14 336T28 282T93 261Q139 261 168 290T197 365V376Q197 384 203 384Q209 384 209 365Q209 311 173 279T87 246Q41 246 9 268T-41 327T-59 404Q-59 450 -39 491T14 563T91 612T181 630Q276
630 321 584T366 461Q366 392 331 304Q307 242 287 178T267 67Q267 34 280 14T326 -6Q372 -6 405 26T463 114T512 243T561 401Q570 426 586 450T624 491T673 507Q706 507 706 492Q706 483 691 483Q693 483 687 483T673 484Q618 484 597 397Q586 352 581 297T575
166Q575 82 585 23T616 -68Q627 -85 640 -85Q647 -85 654 -77T666 -55Q673 -55 673 -61Q673 -80 659 -91T631 -103ZM570 661Q556 661 549 668T542 686Q542 701 553 712T578 724Q591 724 598 717T606 698Q606 684 595 673T570 661ZM461 661Q447 661 440 668T433
686Q433 701 444 712T469 724Q482 724 489 717T497 698Q497 684 486 673T461 661Z" />
<glyph unicode="&#xdd;" glyph-name="Yacute" horiz-adv-x="800" d="M861 -356Q800 -356 754 -346T667 -318T579 -278Q541 -312 482 -331T366 -350Q290 -350 241 -325T168 -259T144 -172Q144 -132 171 -110T244 -88Q273 -88 330 -105T475 -172Q491 -181 516 -195T565
-223T595 -241Q628 -191 647 -150T674 -65T684 37L686 190Q687 211 690 237T697 288T704 329Q689 264 672 204T630 97T572 22T491 -6Q439 -6 417 21T394 101Q394 136 404 176T427 259T451 349T461 442Q461 529 419 580T298 631Q254 631 212 611T136 558T82 484T62
400Q62 360 73 327T105 267Q128 238 160 221T232 203Q274 203 307 226T360 285T380 361Q380 409 348 440T266 472Q221 472 199 446T176 390Q176 365 193 345T246 324Q251 324 258 325T270 329Q270 319 262 315T239 311Q196 311 176 333T155 384Q155 409 169 433T210
473T277 489Q337 489 373 452T410 355Q410 310 385 273T318 214T229 192Q172 192 127 219T56 291T30 392Q30 461 64 518T159 610T298 644Q343 644 382 626T451 578T498 509T515 431Q515 370 502 322T472 235T442 163T429 98Q429 56 442 33T482 9Q529 9 562 37T618
110T656 205T682 301Q696 362 708 394T733 442T757 466Q782 482 815 482Q845 482 845 465Q845 461 835 457T831 454Q833 453 833 453H832L831 454Q828 454 811 454Q783 454 761 434T728 382Q722 366 720 347T718 306Q718 265 723 218T734 121T740 26Q740 -41 723
-89T683 -170T638 -221T607 -249Q681 -286 748 -311T859 -337Q915 -337 955 -312T995 -239Q995 -235 994 -217T989 -190Q988 -188 988 -185Q988 -179 994 -179Q1001 -179 1003 -185Q1008 -196 1009 -207T1011 -232Q1011 -274 987 -301T927 -342T861 -356ZM368 -328Q421
-328 473 -314T564 -268Q555 -263 530 -251T478 -224T430 -200Q371 -168 320 -147T229 -126Q196 -126 178 -137T159 -172Q159 -208 185 -244T258 -304T368 -328ZM659 651Q644 651 644 654Q644 655 658 667T693 694T730 721T751 733Q757 733 767 728T777 716L659
651Z" />
<glyph unicode="&#xde;" glyph-name="Thorn" horiz-adv-x="607" d="M145 -36Q60 -36 60 26Q60 60 80 60Q86 60 86 50Q86 48 86 45T85 37Q84 32 84 28T84 22Q84 -20 139 -20Q229 -20 275 125Q282 147 295 207T322 355Q330 412 342 467T371 569Q341 573 308 573Q230
573 169 540T72 451T36 321Q36 283 49 249T87 194T147 173Q182 173 210 193T256 245T273 317Q273 328 279 328Q288 328 288 309Q288 241 245 199T133 156Q90 156 60 179T14 240T-2 320Q-2 404 40 463T152 553T305 585Q342 585 376 581Q401 650 437 693T521 737Q537
737 537 730Q537 725 526 725Q485 725 456 684T407 577Q507 559 557 510T608 398Q608 347 580 306T494 239T350 210Q344 177 335 147T312 90Q270 7 178 -30Q163 -36 145 -36ZM391 510Q377 439 371 365T353 222Q432 224 479 251T547 317T568 395Q568 448 530 496T404
563Q397 538 391 510Z" />
<glyph unicode="&#xdf;" glyph-name="germandbls" horiz-adv-x="362" d="M-164 -213Q-205 -217 -227 -198T-249 -157Q-249 -140 -236 -127T-195 -112H-194Q-185 -112 -185 -119Q-185 -126 -193 -126Q-213 -127 -223 -137T-233 -159Q-233 -173 -218 -186T-172 -199Q-113
-199 -80 -160T-26 -46T11 136T53 378Q62 428 76 479T113 574T169 643T250 670Q301 670 325 641T349 568Q349 532 333 493T287 420T213 366L209 363Q216 338 234 307T267 252Q284 227 292 203T301 152Q301 47 225 16Q237 13 248 13Q289 13 314 34T355 92T380 172Q382
179 387 179Q392 179 392 172Q379 92 344 47T249 1Q229 1 208 8Q188 3 173 3Q138 3 119 19T99 55Q99 78 118 78Q129 78 154 58Q170 45 181 37T201 24Q223 37 237 65Q256 103 256 150Q256 167 253 185T245 223Q236 252 218 283T193 342Q192 344 192 347T191 352Q191
353 191 353T190 355Q189 363 193 369T208 383Q239 408 262 442T297 512T310 580Q310 613 294 634T243 656Q206 656 181 631T141 565T117 474T101 374Q81 232 62 124T17 -57T-53 -169T-164 -213ZM170 15Q181 15 188 19Q178 24 168 31T144 49Q127 62 118 62Q114
62 114 56Q114 52 117 46T129 31Q145 15 170 15Z" />
<glyph unicode="&#xe0;" glyph-name="agrave" horiz-adv-x="327" d="M95 -1Q67 -1 50 20T26 74T18 141Q18 191 31 239T71 320T137 352Q193 352 200 267L209 349Q212 348 218 348Q237 348 249 370Q250 374 253 374Q257 374 258 368L237 190Q231 139 231 91Q231
53 236 34T257 15Q274 15 288 30T313 70T332 122T345 172Q347 183 352 183Q358 183 357 172Q349 131 337 92T304 27T249 1Q225 1 212 19T193 65T188 120Q159 10 109 0Q105 -1 102 -1T95 -1ZM104 12Q126 15 142 42T170 106T187 178Q190 199 190 224Q190 252 186
278T171 322T143 340Q126 340 112 319T87 266T70 199T64 137Q64 110 68 80T81 30T104 12ZM417 421L299 486Q299 493 309 498T325 503Q330 503 346 492T383 465T417 437T432 424Q432 421 417 421Z" />
<glyph unicode="&#xe1;" glyph-name="aacute" horiz-adv-x="327" d="M95 -1Q67 -1 50 20T26 74T18 141Q18 191 31 239T71 320T137 352Q193 352 200 267L209 349Q212 348 218 348Q237 348 249 370Q250 374 253 374Q257 374 258 368L237 190Q231 139 231 91Q231
53 236 34T257 15Q274 15 288 30T313 70T332 122T345 172Q347 183 352 183Q358 183 357 172Q349 131 337 92T304 27T249 1Q225 1 212 19T193 65T188 120Q159 10 109 0Q105 -1 102 -1T95 -1ZM104 12Q126 15 142 42T170 106T187 178Q190 199 190 224Q190 252 186
278T171 322T143 340Q126 340 112 319T87 266T70 199T64 137Q64 110 68 80T81 30T104 12ZM417 421Q402 421 402 424Q402 425 416 437T451 464T488 491T509 503Q515 503 525 498T535 486L417 421Z" />
<glyph unicode="&#xe2;" glyph-name="acircumflex" horiz-adv-x="327" d="M95 -1Q67 -1 50 20T26 74T18 141Q18 191 31 239T71 320T137 352Q193 352 200 267L209 349Q212 348 218 348Q237 348 249 370Q250 374 253 374Q257 374 258 368L237 190Q231 139 231 91Q231
53 236 34T257 15Q274 15 288 30T313 70T332 122T345 172Q347 183 352 183Q358 183 357 172Q349 131 337 92T304 27T249 1Q225 1 212 19T193 65T188 120Q159 10 109 0Q105 -1 102 -1T95 -1ZM104 12Q126 15 142 42T170 106T187 178Q190 199 190 224Q190 252 186
278T171 322T143 340Q126 340 112 319T87 266T70 199T64 137Q64 110 68 80T81 30T104 12ZM312 421L428 503Q433 506 436 506Q439 506 442 503Q447 498 458 486T482 460T503 436T512 424Q511 421 504 421L422 468L333 421H312Z" />
<glyph unicode="&#xe3;" glyph-name="atilde" horiz-adv-x="327" d="M95 -1Q67 -1 50 20T26 74T18 141Q18 191 31 239T71 320T137 352Q193 352 200 267L209 349Q212 348 218 348Q237 348 249 370Q250 374 253 374Q257 374 258 368L237 190Q231 139 231 91Q231
53 236 34T257 15Q274 15 288 30T313 70T332 122T345 172Q347 183 352 183Q358 183 357 172Q349 131 337 92T304 27T249 1Q225 1 212 19T193 65T188 120Q159 10 109 0Q105 -1 102 -1T95 -1ZM104 12Q126 15 142 42T170 106T187 178Q190 199 190 224Q190 252 186
278T171 322T143 340Q126 340 112 319T87 266T70 199T64 137Q64 110 68 80T81 30T104 12ZM456 429Q441 429 425 437T395 453T367 461Q348 461 341 451T328 434H318Q323 454 341 473T382 493Q395 493 408 486T435 471T466 463Q489 463 497 473T508 489H516Q511 467
497 448T456 429Z" />
<glyph unicode="&#xe4;" glyph-name="adieresis" horiz-adv-x="327" d="M95 -1Q67 -1 50 20T26 74T18 141Q18 191 31 239T71 320T137 352Q193 352 200 267L209 349Q212 348 218 348Q237 348 249 370Q250 374 253 374Q257 374 258 368L237 190Q231 139 231 91Q231
53 236 34T257 15Q274 15 288 30T313 70T332 122T345 172Q347 183 352 183Q358 183 357 172Q349 131 337 92T304 27T249 1Q225 1 212 19T193 65T188 120Q159 10 109 0Q105 -1 102 -1T95 -1ZM104 12Q126 15 142 42T170 106T187 178Q190 199 190 224Q190 252 186
278T171 322T143 340Q126 340 112 319T87 266T70 199T64 137Q64 110 68 80T81 30T104 12ZM468 431Q454 431 447 438T440 456Q440 471 451 482T476 494Q489 494 496 487T504 468Q504 454 493 443T468 431ZM359 431Q345 431 338 438T331 456Q331 471 342 482T367
494Q380 494 387 487T395 468Q395 454 384 443T359 431Z" />
<glyph unicode="&#xe5;" glyph-name="aring" horiz-adv-x="327" d="M95 -1Q67 -1 50 20T26 74T18 141Q18 191 31 239T71 320T137 352Q193 352 200 267L209 349Q212 348 218 348Q237 348 249 370Q250 374 253 374Q257 374 258 368L237 190Q231 139 231 91Q231 53
236 34T257 15Q274 15 288 30T313 70T332 122T345 172Q347 183 352 183Q358 183 357 172Q349 131 337 92T304 27T249 1Q225 1 212 19T193 65T188 120Q159 10 109 0Q105 -1 102 -1T95 -1ZM104 12Q126 15 142 42T170 106T187 178Q190 199 190 224Q190 252 186 278T171
322T143 340Q126 340 112 319T87 266T70 199T64 137Q64 110 68 80T81 30T104 12ZM417 420Q396 420 382 434T368 469Q368 492 385 509T427 527Q447 527 461 513T475 479Q475 455 458 438T417 420ZM419 439Q433 439 444 450T456 478Q456 491 448 499T425 508Q410
508 399 497T387 470Q387 457 396 448T419 439Z" />
<glyph unicode="&#xe6;" glyph-name="ae" horiz-adv-x="387" d="M95 -1Q67 -1 50 20T26 74T18 141Q18 191 31 239T71 320T137 352Q193 352 200 267L209 349Q212 348 218 348Q239 348 249 370Q250 374 253 374Q257 374 258 368L253 327Q278 350 305 350Q323 350
336 340Q352 327 352 293Q352 252 333 218Q293 143 230 143Q230 13 291 13Q327 13 358 54T405 172Q407 182 412 182Q418 182 417 172Q378 -1 288 -1Q242 -1 217 34T187 116Q169 58 151 32T109 0Q105 -1 102 -1T95 -1ZM104 12Q127 12 143 39T171 104T187 178Q190
199 190 224Q190 252 186 278T171 322T143 340Q126 340 112 319T87 266T70 199T64 137Q64 110 68 80T81 30T104 12ZM231 155Q276 155 316 219L315 218Q338 255 338 300Q338 328 331 332Q323 337 316 337Q301 337 286 319T259 273T239 213T231 155Z" />
<glyph unicode="&#xe7;" glyph-name="ccedilla" horiz-adv-x="231" d="M120 -3Q78 -3 56 22T26 86T18 163Q18 212 33 255T75 326T139 354Q200 354 200 281Q200 265 196 246T184 214T162 200Q146 200 146 218Q146 236 156 247T176 268T186 291Q186 336 153 336Q133
336 117 318T90 271T72 207T65 141Q65 106 70 76T88 29T125 11Q157 11 182 35T224 96T249 172Q251 181 256 181Q263 181 261 172Q253 128 235 88T188 22T120 -3ZM65 -172Q46 -172 32 -164T13 -138H26Q32 -148 42 -151T63 -155Q89 -155 102 -139T116 -105Q116 -92
109 -84T87 -75Q74 -75 67 -77T54 -81L47 -65Q50 -62 64 -47T94 -16T116 7L128 5Q126 3 115 -10T93 -37T84 -54Q88 -53 91 -53T98 -53Q117 -53 134 -64T152 -97Q152 -121 139 -137T105 -163T65 -172Z" />
<glyph unicode="&#xe8;" glyph-name="egrave" horiz-adv-x="217" d="M108 0Q77 4 57 24T26 76T16 141Q16 231 57 295Q93 350 135 350Q160 350 171 335T182 293Q182 258 166 223T123 166T60 143Q60 23 110 14Q114 13 121 13Q158 13 188 54T235 172Q237 182 242
182Q248 182 247 172Q205 -11 108 0ZM61 155Q88 155 112 175T152 228T168 294Q168 334 142 334Q127 334 113 317T87 271T68 213T61 155ZM397 421L279 486Q279 493 289 498T305 503Q310 503 326 492T363 465T397 437T412 424Q412 421 397 421Z" />
<glyph unicode="&#xe9;" glyph-name="eacute" horiz-adv-x="217" d="M108 0Q77 4 57 24T26 76T16 141Q16 231 57 295Q93 350 135 350Q160 350 171 335T182 293Q182 258 166 223T123 166T60 143Q60 23 110 14Q114 13 121 13Q158 13 188 54T235 172Q237 182 242
182Q248 182 247 172Q205 -11 108 0ZM61 155Q88 155 112 175T152 228T168 294Q168 334 142 334Q127 334 113 317T87 271T68 213T61 155ZM397 421Q382 421 382 424Q382 425 396 437T431 464T468 491T489 503Q495 503 505 498T515 486L397 421Z" />
<glyph unicode="&#xea;" glyph-name="ecircumflex" horiz-adv-x="217" d="M108 0Q77 4 57 24T26 76T16 141Q16 231 57 295Q93 350 135 350Q160 350 171 335T182 293Q182 258 166 223T123 166T60 143Q60 23 110 14Q114 13 121 13Q158 13 188 54T235 172Q237 182
242 182Q248 182 247 172Q205 -11 108 0ZM61 155Q88 155 112 175T152 228T168 294Q168 334 142 334Q127 334 113 317T87 271T68 213T61 155ZM292 421L408 503Q413 506 416 506Q419 506 422 503Q427 498 438 486T462 460T483 436T492 424Q491 421 484 421L402 468L313
421H292Z" />
<glyph unicode="&#xeb;" glyph-name="edieresis" horiz-adv-x="217" d="M108 0Q77 4 57 24T26 76T16 141Q16 231 57 295Q93 350 135 350Q160 350 171 335T182 293Q182 258 166 223T123 166T60 143Q60 23 110 14Q114 13 121 13Q158 13 188 54T235 172Q237 182 242
182Q248 182 247 172Q205 -11 108 0ZM61 155Q88 155 112 175T152 228T168 294Q168 334 142 334Q127 334 113 317T87 271T68 213T61 155ZM448 431Q434 431 427 438T420 456Q420 471 431 482T456 494Q469 494 476 487T484 468Q484 454 473 443T448 431ZM339 431Q325
431 318 438T311 456Q311 471 322 482T347 494Q360 494 367 487T375 468Q375 454 364 443T339 431Z" />
<glyph unicode="&#xec;" glyph-name="igrave" horiz-adv-x="176" d="M91 0Q48 0 32 35T15 120Q15 155 21 191Q33 263 48 347Q57 344 63 344Q83 344 95 368Q97 373 101 373Q105 373 104 366Q100 350 91 308T67 197Q62 172 59 145T55 93Q55 59 64 35T95 11Q125 11
144 37T175 100T194 172Q195 179 201 179Q206 179 206 172Q187 81 161 41T91 0ZM88 421L-30 486Q-30 493 -20 498T-4 503Q1 503 17 492T54 465T88 437T103 424Q103 421 88 421Z" />
<glyph unicode="&#xed;" glyph-name="iacute" horiz-adv-x="176" d="M91 0Q48 0 32 35T15 120Q15 155 21 191Q33 263 48 347Q57 344 63 344Q83 344 95 368Q97 373 101 373Q105 373 104 366Q100 350 91 308T67 197Q62 172 59 145T55 93Q55 59 64 35T95 11Q125 11
144 37T175 100T194 172Q195 179 201 179Q206 179 206 172Q187 81 161 41T91 0ZM88 421Q73 421 73 424Q73 425 87 437T122 464T159 491T180 503Q186 503 196 498T206 486L88 421Z" />
<glyph unicode="&#xee;" glyph-name="icircumflex" horiz-adv-x="176" d="M91 0Q48 0 32 35T15 120Q15 155 21 191Q33 263 48 347Q57 344 63 344Q83 344 95 368Q97 373 101 373Q105 373 104 366Q100 350 91 308T67 197Q62 172 59 145T55 93Q55 59 64 35T95 11Q125
11 144 37T175 100T194 172Q195 179 201 179Q206 179 206 172Q187 81 161 41T91 0ZM-17 421L99 503Q104 506 107 506Q110 506 113 503Q118 498 129 486T153 460T174 436T183 424Q182 421 175 421L93 468L4 421H-17Z" />
<glyph unicode="&#xef;" glyph-name="idieresis" horiz-adv-x="176" d="M91 0Q48 0 32 35T15 120Q15 155 21 191Q33 263 48 347Q57 344 63 344Q83 344 95 368Q97 373 101 373Q105 373 104 366Q100 350 91 308T67 197Q62 172 59 145T55 93Q55 59 64 35T95 11Q125
11 144 37T175 100T194 172Q195 179 201 179Q206 179 206 172Q187 81 161 41T91 0ZM139 431Q125 431 118 438T111 456Q111 471 122 482T147 494Q160 494 167 487T175 468Q175 454 164 443T139 431ZM30 431Q16 431 9 438T2 456Q2 471 13 482T38 494Q51 494 58 487T66
468Q66 454 55 443T30 431Z" />
<glyph unicode="&#xf0;" glyph-name="eth" horiz-adv-x="298" d="M94 -1Q66 -1 49 19T24 71T16 136Q16 174 23 212T46 282T83 333T136 352Q156 352 171 338T196 288T203 185Q208 238 209 261T210 303Q210 386 191 458T129 569L51 529L41 550L108 584Q91 594 73
598T37 603Q-1 603 -26 588Q-30 585 -34 585Q-39 585 -39 595Q-39 606 -3 620Q25 631 58 631Q79 631 100 626T140 610Q145 607 149 604L206 634L215 612L168 588Q190 568 206 539T232 474Q241 443 244 408T248 337Q248 306 246 276T241 217Q238 188 228 151T201
79T157 22T94 -1ZM103 12Q126 12 142 39T170 104T186 178Q189 199 189 224Q189 252 185 278T170 322T142 340Q125 340 111 319T86 266T69 199T63 137Q63 110 67 80T80 30T103 12Z" />
<glyph unicode="&#xf1;" glyph-name="ntilde" horiz-adv-x="297" d="M2 -24Q1 -22 2 -18L34 346Q38 345 44 345Q69 345 83 364Q85 367 87 367Q92 367 90 361Q88 353 82 321T66 227Q80 286 107 322T171 358Q203 358 214 336T226 281Q226 253 221 221T210 158Q205
125 201 95T196 42Q196 23 201 11T219 -1Q237 -1 257 26T293 93T315 172Q316 175 317 179T322 183Q327 183 327 180T327 172Q323 143 313 111T288 50T253 4T212 -14Q178 -14 165 7T152 67Q152 106 161 158Q169 198 176 234T183 297Q183 318 177 330T153 342Q137
342 123 323T96 276T76 220T64 173Q57 137 53 88T45 1Q19 4 12 -18Q11 -22 7 -24Q4 -26 2 -24ZM454 429Q439 429 423 437T393 453T365 461Q346 461 339 451T326 434H316Q321 454 339 473T380 493Q393 493 406 486T433 471T464 463Q487 463 495 473T506 489H514Q509
467 495 448T454 429Z" />
<glyph unicode="&#xf2;" glyph-name="ograve" horiz-adv-x="287" d="M124 -9Q70 -9 44 32T17 151Q17 189 24 220T45 276Q49 329 76 364T145 400Q180 400 204 376T240 312T252 228Q252 190 247 158T231 96Q250 98 272 116T305 172Q306 179 312 179Q318 179 317
172Q307 128 282 107T226 81Q187 -9 124 -9ZM210 94Q221 123 225 156T229 227Q229 268 221 304T194 363T145 386Q116 386 97 367T71 312Q97 339 143 341Q176 341 176 328Q176 321 168 324Q155 329 146 329Q107 329 83 259Q75 235 75 212Q75 195 80 182Q98 136 131
113T210 94ZM129 6Q174 6 205 81Q200 80 195 80T185 80Q139 80 107 109T64 177Q63 165 63 153T63 129Q63 97 68 69T87 23T129 6ZM416 461L298 526Q298 533 308 538T324 543Q329 543 345 532T382 505T416 477T431 464Q431 461 416 461Z" />
<glyph unicode="&#xf3;" glyph-name="oacute" horiz-adv-x="287" d="M124 -9Q70 -9 44 32T17 151Q17 189 24 220T45 276Q49 329 76 364T145 400Q180 400 204 376T240 312T252 228Q252 190 247 158T231 96Q250 98 272 116T305 172Q306 179 312 179Q318 179 317
172Q307 128 282 107T226 81Q187 -9 124 -9ZM210 94Q221 123 225 156T229 227Q229 268 221 304T194 363T145 386Q116 386 97 367T71 312Q97 339 143 341Q176 341 176 328Q176 321 168 324Q155 329 146 329Q107 329 83 259Q75 235 75 212Q75 195 80 182Q98 136 131
113T210 94ZM129 6Q174 6 205 81Q200 80 195 80T185 80Q139 80 107 109T64 177Q63 165 63 153T63 129Q63 97 68 69T87 23T129 6ZM416 461Q401 461 401 464Q401 465 415 477T450 504T487 531T508 543Q514 543 524 538T534 526L416 461Z" />
<glyph unicode="&#xf4;" glyph-name="ocircumflex" horiz-adv-x="287" d="M124 -9Q70 -9 44 32T17 151Q17 189 24 220T45 276Q49 329 76 364T145 400Q180 400 204 376T240 312T252 228Q252 190 247 158T231 96Q250 98 272 116T305 172Q306 179 312 179Q318 179
317 172Q307 128 282 107T226 81Q187 -9 124 -9ZM210 94Q221 123 225 156T229 227Q229 268 221 304T194 363T145 386Q116 386 97 367T71 312Q97 339 143 341Q176 341 176 328Q176 321 168 324Q155 329 146 329Q107 329 83 259Q75 235 75 212Q75 195 80 182Q98 136
131 113T210 94ZM129 6Q174 6 205 81Q200 80 195 80T185 80Q139 80 107 109T64 177Q63 165 63 153T63 129Q63 97 68 69T87 23T129 6ZM311 461L427 543Q432 546 435 546Q438 546 441 543Q446 538 457 526T481 500T502 476T511 464Q510 461 503 461L421 508L332 461H311Z"
/>
<glyph unicode="&#xf5;" glyph-name="otilde" horiz-adv-x="287" d="M124 -9Q70 -9 44 32T17 151Q17 189 24 220T45 276Q49 329 76 364T145 400Q180 400 204 376T240 312T252 228Q252 190 247 158T231 96Q250 98 272 116T305 172Q306 179 312 179Q318 179 317
172Q307 128 282 107T226 81Q187 -9 124 -9ZM210 94Q221 123 225 156T229 227Q229 268 221 304T194 363T145 386Q116 386 97 367T71 312Q97 339 143 341Q176 341 176 328Q176 321 168 324Q155 329 146 329Q107 329 83 259Q75 235 75 212Q75 195 80 182Q98 136 131
113T210 94ZM129 6Q174 6 205 81Q200 80 195 80T185 80Q139 80 107 109T64 177Q63 165 63 153T63 129Q63 97 68 69T87 23T129 6ZM455 469Q440 469 424 477T394 493T366 501Q347 501 340 491T327 474H317Q322 494 340 513T381 533Q394 533 407 526T434 511T465 503Q488
503 496 513T507 529H515Q510 507 496 488T455 469Z" />
<glyph unicode="&#xf6;" glyph-name="odieresis" horiz-adv-x="287" d="M124 -9Q70 -9 44 32T17 151Q17 189 24 220T45 276Q49 329 76 364T145 400Q180 400 204 376T240 312T252 228Q252 190 247 158T231 96Q250 98 272 116T305 172Q306 179 312 179Q318 179 317
172Q307 128 282 107T226 81Q187 -9 124 -9ZM210 94Q221 123 225 156T229 227Q229 268 221 304T194 363T145 386Q116 386 97 367T71 312Q97 339 143 341Q176 341 176 328Q176 321 168 324Q155 329 146 329Q107 329 83 259Q75 235 75 212Q75 195 80 182Q98 136 131
113T210 94ZM129 6Q174 6 205 81Q200 80 195 80T185 80Q139 80 107 109T64 177Q63 165 63 153T63 129Q63 97 68 69T87 23T129 6ZM467 471Q453 471 446 478T439 496Q439 511 450 522T475 534Q488 534 495 527T503 508Q503 494 492 483T467 471ZM358 471Q344 471
337 478T330 496Q330 511 341 522T366 534Q379 534 386 527T394 508Q394 494 383 483T358 471Z" />
<glyph unicode="&#xf7;" glyph-name="divide" horiz-adv-x="388" d="M194 244Q162 244 162 277Q162 309 195 309Q227 309 227 276Q227 244 194 244ZM60 189H328V161H60V189ZM194 41Q162 41 162 74Q162 106 195 106Q227 106 227 73Q227 41 194 41Z" />
<glyph unicode="&#xf8;" glyph-name="oslash" horiz-adv-x="287" d="M41 -92L71 5Q17 38 17 151Q17 189 24 220T45 276Q49 329 76 364T145 400Q169 400 189 387L202 429H225L207 372Q229 348 240 309T252 228Q252 190 247 158T231 96Q250 98 272 116T305 172Q306
179 312 179Q318 179 317 172Q307 128 282 107T226 81Q187 -9 124 -9Q105 -9 90 -4L62 -92H41ZM145 386Q116 386 97 367T71 312Q97 339 143 341Q165 341 173 334L184 372Q167 386 145 386ZM210 94Q221 123 225 156T229 227Q229 264 223 297T201 353L127 116Q162
89 210 94ZM80 182Q92 152 110 132L169 324H168Q155 329 146 329Q107 329 83 259Q75 235 75 212Q75 195 80 182ZM63 129Q63 101 66 76T80 34L104 112Q74 138 64 177Q63 165 63 153T63 129ZM129 6Q174 6 205 81Q200 80 195 80T185 80Q151 80 122 98L96 16Q109 6
129 6Z" />
<glyph unicode="&#xf9;" glyph-name="ugrave" horiz-adv-x="288" d="M88 -2Q17 -2 17 135Q17 148 19 177T23 241T29 303T34 341Q68 339 77 361Q80 368 84 368Q86 368 86 365Q86 361 85 357Q81 338 77 308T69 245T63 183T60 133Q60 74 66 43T90 12Q104 12 114 22T137
58Q162 112 169 183Q179 266 181 303T184 354Q219 352 228 374Q230 379 233 379Q237 379 236 371Q226 296 220 247T210 167T205 116T203 77Q203 54 207 33T229 12Q252 12 270 50Q282 75 291 108T306 172Q308 179 313 179Q318 179 318 172Q303 84 280 42T222 -1Q201
-1 188 12T169 45T163 84Q134 -2 88 -2ZM400 421L282 486Q282 493 292 498T308 503Q313 503 329 492T366 465T400 437T415 424Q415 421 400 421Z" />
<glyph unicode="&#xfa;" glyph-name="uacute" horiz-adv-x="288" d="M88 -2Q17 -2 17 135Q17 148 19 177T23 241T29 303T34 341Q68 339 77 361Q80 368 84 368Q86 368 86 365Q86 361 85 357Q81 338 77 308T69 245T63 183T60 133Q60 74 66 43T90 12Q104 12 114 22T137
58Q162 112 169 183Q179 266 181 303T184 354Q219 352 228 374Q230 379 233 379Q237 379 236 371Q226 296 220 247T210 167T205 116T203 77Q203 54 207 33T229 12Q252 12 270 50Q282 75 291 108T306 172Q308 179 313 179Q318 179 318 172Q303 84 280 42T222 -1Q201
-1 188 12T169 45T163 84Q134 -2 88 -2ZM400 421Q385 421 385 424Q385 425 399 437T434 464T471 491T492 503Q498 503 508 498T518 486L400 421Z" />
<glyph unicode="&#xfb;" glyph-name="ucircumflex" horiz-adv-x="288" d="M88 -2Q17 -2 17 135Q17 148 19 177T23 241T29 303T34 341Q68 339 77 361Q80 368 84 368Q86 368 86 365Q86 361 85 357Q81 338 77 308T69 245T63 183T60 133Q60 74 66 43T90 12Q104 12
114 22T137 58Q162 112 169 183Q179 266 181 303T184 354Q219 352 228 374Q230 379 233 379Q237 379 236 371Q226 296 220 247T210 167T205 116T203 77Q203 54 207 33T229 12Q252 12 270 50Q282 75 291 108T306 172Q308 179 313 179Q318 179 318 172Q303 84 280
42T222 -1Q201 -1 188 12T169 45T163 84Q134 -2 88 -2ZM295 421L411 503Q416 506 419 506Q422 506 425 503Q430 498 441 486T465 460T486 436T495 424Q494 421 487 421L405 468L316 421H295Z" />
<glyph unicode="&#xfc;" glyph-name="udieresis" horiz-adv-x="288" d="M88 -2Q17 -2 17 135Q17 148 19 177T23 241T29 303T34 341Q68 339 77 361Q80 368 84 368Q86 368 86 365Q86 361 85 357Q81 338 77 308T69 245T63 183T60 133Q60 74 66 43T90 12Q104 12 114
22T137 58Q162 112 169 183Q179 266 181 303T184 354Q219 352 228 374Q230 379 233 379Q237 379 236 371Q226 296 220 247T210 167T205 116T203 77Q203 54 207 33T229 12Q252 12 270 50Q282 75 291 108T306 172Q308 179 313 179Q318 179 318 172Q303 84 280 42T222
-1Q201 -1 188 12T169 45T163 84Q134 -2 88 -2ZM451 431Q437 431 430 438T423 456Q423 471 434 482T459 494Q472 494 479 487T487 468Q487 454 476 443T451 431ZM342 431Q328 431 321 438T314 456Q314 471 325 482T350 494Q363 494 370 487T378 468Q378 454 367
443T342 431Z" />
<glyph unicode="&#xfd;" glyph-name="yacute" horiz-adv-x="289" d="M68 -247Q41 -247 29 -232T16 -194Q16 -154 39 -117T98 -45T174 19V58Q174 77 174 91T173 115Q173 146 182 213Q169 152 155 103T121 24T73 -5Q48 -5 29 19T9 102Q9 145 19 180T39 249T50 324Q50
351 36 351Q27 351 20 341T9 319Q8 319 5 321T2 330Q2 345 18 357T53 369Q93 369 93 323Q93 287 83 248T61 167T50 80Q50 45 57 29T77 13Q97 13 118 54T158 174Q173 240 193 285T233 356Q249 378 264 378Q279 378 279 362Q279 349 260 343Q242 338 228 311T206
249T198 182Q198 157 201 126T208 71T211 45Q227 56 246 70T282 109T307 172Q309 178 314 178Q319 178 319 172Q309 131 294 106T259 64T212 30Q214 14 215 -1T216 -31Q216 -90 201 -139T153 -217T68 -247ZM64 -234Q104 -234 128 -198T163 -116Q176 -64 176 2Q116
-49 74 -96T31 -192Q31 -234 64 -234ZM427 421Q412 421 412 424Q412 425 426 437T461 464T498 491T519 503Q525 503 535 498T545 486L427 421Z" />
<glyph unicode="&#xfe;" glyph-name="thorn" horiz-adv-x="263" d="M-71 -277Q-91 -277 -108 -261T-130 -219Q-128 -207 -122 -207Q-117 -207 -117 -216Q-103 -261 -84 -261Q-62 -261 -40 -213Q-29 -189 -20 -158T-6 -89Q-1 -57 7 -7T20 126Q23 164 31 251T60
450Q74 525 101 560T155 596Q176 596 176 579Q176 569 164 564Q143 555 124 523T88 417Q80 384 70 333T51 232Q68 292 91 317T142 343Q166 343 183 324T211 272T221 201Q221 155 210 112T174 40T110 6Q115 5 120 5T130 5Q189 5 226 45T281 172Q282 178 288 178Q293
178 293 172Q280 91 240 43T129 -6Q98 -6 74 4T44 39Q44 -9 42 -48T36 -117Q14 -277 -71 -277ZM96 15Q114 15 129 32T156 77T174 137T180 200Q180 227 176 256T161 305T132 325Q112 325 97 303T71 249T55 182T49 121Q49 67 60 41T96 15Z" />
<glyph unicode="&#xff;" glyph-name="ydieresis" horiz-adv-x="289" d="M68 -247Q41 -247 29 -232T16 -194Q16 -154 39 -117T98 -45T174 19V58Q174 77 174 91T173 115Q173 146 182 213Q169 152 155 103T121 24T73 -5Q48 -5 29 19T9 102Q9 145 19 180T39 249T50
324Q50 351 36 351Q27 351 20 341T9 319Q8 319 5 321T2 330Q2 345 18 357T53 369Q93 369 93 323Q93 287 83 248T61 167T50 80Q50 45 57 29T77 13Q97 13 118 54T158 174Q173 240 193 285T233 356Q249 378 264 378Q279 378 279 362Q279 349 260 343Q242 338 228 311T206
249T198 182Q198 157 201 126T208 71T211 45Q227 56 246 70T282 109T307 172Q309 178 314 178Q319 178 319 172Q309 131 294 106T259 64T212 30Q214 14 215 -1T216 -31Q216 -90 201 -139T153 -217T68 -247ZM64 -234Q104 -234 128 -198T163 -116Q176 -64 176 2Q116
-49 74 -96T31 -192Q31 -234 64 -234ZM478 431Q464 431 457 438T450 456Q450 471 461 482T486 494Q499 494 506 487T514 468Q514 454 503 443T478 431ZM369 431Q355 431 348 438T341 456Q341 471 352 482T377 494Q390 494 397 487T405 468Q405 454 394 443T369
431Z" />
<glyph unicode="&#x2013;" glyph-name="endash" horiz-adv-x="416" d="M61 233L66 253H365L360 233H61Z" />
<glyph unicode="&#x2014;" glyph-name="emdash" horiz-adv-x="529" d="M61 233L64 253H478L475 233H61Z" />
<glyph unicode="&#x2018;" glyph-name="quoteleft" horiz-adv-x="184" d="M113 381Q81 378 81 427Q81 492 143 518Q154 523 154 514Q154 512 148 510V509Q121 503 105 478T89 424Q96 443 114 443Q140 443 140 413Q140 402 132 392T113 381Z" />
<glyph unicode="&#x2019;" glyph-name="quoteright" horiz-adv-x="184" d="M83 370Q72 365 72 374Q72 377 78 378V379Q105 385 121 410T137 464Q130 445 113 445Q87 445 87 475Q87 487 97 497T117 507Q141 507 144 478Q144 474 144 471T145 464Q145 396 83 370Z" />
<glyph unicode="&#x201a;" glyph-name="quotesinglbase" horiz-adv-x="192" d="M49 -65Q42 -65 42 -55Q42 -49 50 -47Q78 -41 94 -16Q105 2 107 27Q100 15 85 15Q59 15 57 44Q57 58 66 69T88 81Q118 81 122 48Q123 44 123 40T123 31Q123 -38 57 -64V-63Q51 -65 49 -65Z" />
<glyph unicode="&#x201c;" glyph-name="quotedblleft" horiz-adv-x="287" d="M215 382Q184 379 184 425Q184 493 246 519Q257 524 257 515Q257 513 251 511V510Q224 504 208 479T192 425Q199 444 217 444Q243 444 243 414Q243 403 235 393T215 382ZM113 381Q81
378 81 427Q81 492 143 518Q154 523 154 514Q154 512 148 510V509Q121 503 105 478T89 424Q96 443 114 443Q140 443 140 413Q140 402 132 392T113 381Z" />
<glyph unicode="&#x201d;" glyph-name="quotedblright" horiz-adv-x="287" d="M186 371Q175 366 175 375Q175 378 181 379V380Q208 386 224 411T240 465Q233 446 215 446Q189 446 189 476Q189 488 199 498T220 508Q244 508 247 479Q247 475 247 472T248 465Q248
397 186 371ZM83 370Q72 365 72 374Q72 377 78 378V379Q105 385 121 410T137 464Q130 445 113 445Q87 445 87 475Q87 487 97 497T117 507Q141 507 144 478Q144 474 144 471T145 464Q145 396 83 370Z" />
<glyph unicode="&#x201e;" glyph-name="quotedblbase" horiz-adv-x="292" d="M48 -63Q42 -63 42 -55Q42 -50 50 -48Q98 -37 106 25Q99 15 85 15Q59 15 57 44Q57 58 66 69T87 81Q120 81 120 32Q120 -34 56 -61Q50 -63 48 -63ZM154 -62Q145 -62 145 -55Q145 -49
152 -48Q201 -37 208 25Q201 15 188 15Q159 15 159 46Q159 60 169 70T190 81Q223 81 223 32Q223 -34 159 -61Q157 -62 154 -62Z" />
<glyph unicode="&#x2022;" glyph-name="bullet" horiz-adv-x="548" d="M294 161Q240 161 196 187T126 257T100 354Q100 408 126 452T196 522T294 548Q348 548 392 522T462 452T488 354Q488 301 462 257T392 187T294 161Z" />
<glyph unicode="&#x2039;" glyph-name="guilsinglleft" horiz-adv-x="269" d="M205 39L92 132Q80 141 80 151Q80 161 96 179L230 316Q234 320 236 320Q239 320 239 316T236 309L123 156L208 53Q213 48 213 42Q213 33 205 39Z" />
<glyph unicode="&#x203a;" glyph-name="guilsinglright" horiz-adv-x="269" d="M89 318L202 225Q214 216 214 206Q214 196 198 178L64 41Q60 37 58 37Q55 37 55 41T58 48L171 201L86 304Q81 309 81 315Q81 324 89 318Z" />
</font>
</defs>
</svg>
