<?xml version="1.0" standalone="no"?>
<!DOCTYPE svg PUBLIC "-//W3C//DTD SVG 1.1//EN" "http://www.w3.org/Graphics/SVG/1.1/DTD/svg11.dtd">
<svg xmlns="http://www.w3.org/2000/svg">
<defs >
<font id="Mohave" horiz-adv-x="857" ><font-face
    font-family="Mohave Light"
    units-per-em="2000"
    panose-1="0 0 0 0 0 0 0 0 0 0"
    ascent="1980"
    descent="-806"
    alphabetic="0" />
<glyph unicode=" " horiz-adv-x="428" />
<glyph unicode="!" horiz-adv-x="544" d="M197 420V1500H347V420H197ZM197 0V300H347V0H197Z" />
<glyph unicode="&quot;" horiz-adv-x="834" d="M157 1060L237 1500H382L302 1060H157ZM452 1060L532 1500H677L597 1060H452Z" />
<glyph unicode="#" horiz-adv-x="1136" d="M1035 994H868V540H1035V391H868V0H718V391H418V0H268V391H100V541H268V995H100V1144H268V1500H418V1144H718V1500H868V1144H1035V994ZM718 540V994L418 995V541L718 540Z" />
<glyph unicode="$" horiz-adv-x="997" d="M551 -200H441V1700H551V-200ZM499 -32Q339 -32 242 70T144 338V388H294V338Q294 239 350 179T499 118Q592 118 648 178T704 338V450Q704 505 700 537T679 590T619 627T499 670Q366 714 293 743T189 805T151 892T144 1040V1162Q144
1329 241 1430T499 1532Q660 1532 757 1431T854 1162V1112H704V1162Q704 1261 648 1321T499 1382Q406 1382 350 1322T294 1162V1040Q294 985 298 953T320 901T380 863T499 820Q632 777 705 748T809 685T847 598T854 450V338Q854 172 757 70T499 -32Z" />
<glyph unicode="%" horiz-adv-x="1427" d="M320 0L978 1500H1108L450 0H320ZM352 815Q243 815 177 883T110 1063V1278Q110 1389 176 1457T352 1526Q461 1526 527 1458T594 1278V1063Q594 952 528 884T352 815ZM352 933Q407 933 440 969T474 1063V1278Q474 1336
440 1372T352 1408Q297 1408 263 1372T228 1278V1063Q228 1005 262 969T352 933ZM1075 -26Q967 -26 901 42T834 222V437Q834 548 900 616T1075 685Q1184 685 1250 617T1317 437V222Q1317 111 1251 43T1075 -26ZM1075 92Q1130 92 1164 128T1198 222V437Q1198 495
1164 531T1076 567Q1020 567 986 531T952 437V222Q952 164 986 128T1075 92Z" />
<glyph unicode="&amp;" horiz-adv-x="1075" d="M515 -26Q357 -26 260 76T162 344V492Q162 599 202 679T314 806L162 1069V1156Q162 1322 259 1424T517 1526Q678 1526 775 1425T872 1156V1106H722V1156Q722 1255 666 1315T517 1376Q424 1376 368 1316T312 1156V1069L730
361L817 811H940L826 195L927 23V0H787L745 71Q704 25 648 0T515 -26ZM519 124Q619 124 675 194L392 671Q312 610 312 492V344Q312 245 368 185T519 124Z" />
<glyph unicode="&apos;" horiz-adv-x="539" d="M157 1060L237 1500H382L302 1060H157Z" />
<glyph unicode="(" horiz-adv-x="658" d="M501 -360Q341 -360 244 -258T146 10V1190Q146 1357 243 1458T501 1560H611V1410H501Q408 1410 352 1350T296 1190V10Q296 -89 352 -149T501 -210H611V-360H501Z" />
<glyph unicode=")" horiz-adv-x="658" d="M47 -360V-210H157Q250 -210 306 -150T362 10V1190Q362 1289 306 1349T157 1410H47V1560H157Q318 1560 415 1459T512 1190V10Q512 -156 415 -258T157 -360H47Z" />
<glyph unicode="*" horiz-adv-x="908" d="M398 1500H511V895H398V1500ZM137 1318L191 1415L772 1080L716 983L137 1318ZM772 1317L193 982L137 1080L718 1415L772 1317Z" />
<glyph unicode="+" horiz-adv-x="1076" d="M113 469V619H963V469H113ZM464 930H614V160H464V930Z" />
<glyph unicode="," horiz-adv-x="539" d="M157 -110L237 248H382L302 -110H157Z" />
<glyph unicode="-" horiz-adv-x="854" d="M142 469V619H712V469H142Z" />
<glyph unicode="." horiz-adv-x="544" d="M197 0V248H347V0H197Z" />
<glyph unicode="/" horiz-adv-x="701" d="M4 -100L540 1560H697L161 -100H4Z" />
<glyph unicode="0" horiz-adv-x="1003" d="M501 -32Q342 -32 245 70T147 338V1162Q147 1329 244 1430T501 1532Q663 1532 760 1431T857 1162V338Q857 172 760 70T501 -32ZM502 118Q595 118 651 178T707 338V1162Q707 1261 651 1321T502 1382Q409 1382 353 1322T297
1162V338Q297 239 353 179T502 118ZM626 1382H724L378 118H280L626 1382Z" />
<glyph unicode="1" horiz-adv-x="563" d="M244 0V1178H40V1328H76Q156 1328 200 1368T244 1478V1500H394V0H244Z" />
<glyph unicode="2" horiz-adv-x="893" d="M88 0V126Q88 238 128 327T233 491T368 630T503 757T607 884T648 1024V1162Q648 1261 592 1321T443 1382Q350 1382 294 1322T238 1162V1112H88V1162Q88 1329 185 1430T443 1532Q604 1532 701 1430T798 1162V1024Q798 936
758 860T655 715T522 583T388 453T285 318T245 168V82L177 150H798V0H88Z" />
<glyph unicode="3" horiz-adv-x="929" d="M441 -32Q281 -32 184 70T86 338V388H236V338Q236 239 292 179T441 118Q534 118 590 178T646 338V472Q646 571 590 631T441 692H324V842H441Q534 842 590 902T646 1062V1162Q646 1261 590 1321T441 1382Q348 1382 292
1322T236 1162V1112H86V1162Q86 1329 183 1430T441 1532Q602 1532 699 1431T796 1162V1062Q796 953 753 871T631 743L632 794Q709 748 752 665T796 472V338Q796 172 699 70T441 -32Z" />
<glyph unicode="4" horiz-adv-x="954" d="M608 0V327H48V466L609 1500H758V475H898V327H758V0H608ZM172 415L136 475H608V1232L172 415Z" />
<glyph unicode="5" horiz-adv-x="970" d="M504 -32Q345 -32 248 70T150 338V388H300V338Q300 239 356 179T505 118Q598 118 654 178T710 338V632Q710 731 653 791T500 852Q406 852 353 792T300 633V612H150V1500H845V1350H232L300 1418V839L273 873Q310 935 370
968T514 1002Q615 1002 693 956T815 827T860 632V338Q860 172 763 70T504 -32Z" />
<glyph unicode="6" horiz-adv-x="985" d="M501 -32Q342 -32 245 70T147 338V1162Q147 1329 244 1430T501 1532Q663 1532 760 1431T857 1162V1112H707V1162Q707 1261 651 1321T502 1382Q409 1382 353 1322T297 1162V839L270 873Q307 935 367 968T511 1002Q612 1002
690 956T812 827T857 632V338Q857 172 760 70T501 -32ZM502 118Q595 118 651 178T707 338V632Q707 731 650 791T497 852Q403 852 350 792T297 633V338Q297 239 353 179T502 118Z" />
<glyph unicode="7" horiz-adv-x="779" d="M188 0L587 1415L635 1350H34V1500H727V1368L348 0H188Z" />
<glyph unicode="8" horiz-adv-x="975" d="M488 -32Q328 -32 231 70T133 338V471Q133 581 176 663T297 792L298 742Q220 786 177 868T133 1061V1162Q133 1329 230 1430T488 1532Q649 1532 746 1431T843 1162V1061Q843 951 800 869T677 742L679 792Q756 746 799
664T843 471V338Q843 172 746 70T488 -32ZM488 118Q581 118 637 178T693 338V471Q693 570 637 630T488 691Q395 691 339 631T283 471V338Q283 239 339 179T488 118ZM488 841Q581 841 637 901T693 1061V1162Q693 1261 637 1321T488 1382Q395 1382 339 1322T283 1162V1061Q283
962 339 902T488 841Z" />
<glyph unicode="9" horiz-adv-x="986" d="M484 -32Q324 -32 227 70T129 338V388H279V338Q279 239 335 179T484 118Q577 118 633 178T689 338V661L716 627Q679 566 620 533T475 499Q374 499 296 545T174 675T129 869V1162Q129 1329 226 1430T484 1532Q645 1532
742 1431T839 1162V338Q839 172 742 70T484 -32ZM489 649Q583 649 636 708T689 867V1162Q689 1261 633 1321T484 1382Q391 1382 335 1322T279 1162V869Q279 770 336 710T489 649Z" />
<glyph unicode=":" horiz-adv-x="544" d="M197 638V885H347V638H197ZM197 0V248H347V0H197Z" />
<glyph unicode=";" horiz-adv-x="541" d="M133 -110L213 248H358L278 -110H133ZM208 638V885H358V638H208Z" />
<glyph unicode="&lt;" horiz-adv-x="863" d="M741 0L89 469V584L741 1050V895L238 526L741 156V0Z" />
<glyph unicode="=" horiz-adv-x="1094" d="M212 269V419H882V269H212ZM212 669V819H882V669H212Z" />
<glyph unicode="&gt;" horiz-adv-x="863" d="M119 0V156L622 526L119 895V1050L772 584V469L119 0Z" />
<glyph unicode="?" horiz-adv-x="879" d="M343 345V418Q343 509 372 578T444 703T531 809T603 910T633 1024V1162Q633 1261 577 1321T428 1382Q335 1382 279 1322T223 1162V1112H73V1162Q73 1329 170 1430T428 1532Q589 1532 686 1430T783 1162V1024Q783 951 754
891T681 776T595 668T522 552T492 418V345H343ZM343 0V250H493V0H343Z" />
<glyph unicode="@" horiz-adv-x="1360" d="M678 1526Q830 1526 944 1463T1122 1284T1186 1016V0H1041V83Q1006 32 944 3T811 -26Q681 -26 599 66T517 311V633Q517 784 600 875T816 967Q887 967 948 940T1041 865V1016Q1041 1126 995 1208T868 1335T677 1381Q514
1381 417 1281T319 1016V147Q319 3 404 -85T631 -174H1056V-319H631Q494 -319 391 -261T231 -98T174 147V1016Q174 1169 236 1284T412 1462T678 1526ZM847 114Q932 114 986 168T1041 311V633Q1041 721 987 774T847 827Q761 827 712 774T662 633V311Q662 222 711
168T847 114Z" />
<glyph unicode="A" horiz-adv-x="919" d="M54 0L380 1500H540L865 0H710L646 300H273L209 0H54ZM301 450H618L448 1285H472L301 450Z" />
<glyph unicode="B" horiz-adv-x="1021" d="M176 0V1500H546Q694 1500 782 1407T871 1160V1038Q871 944 836 871T739 754L736 806Q807 765 849 688T891 508V340Q891 188 803 94T566 0H176ZM326 150H566Q646 150 693 202T741 340V508Q741 593 694 645T566 698H326V150ZM326
848H546Q626 848 673 900T721 1038V1160Q721 1246 674 1298T546 1350H326V848Z" />
<glyph unicode="C" horiz-adv-x="956" d="M864 388V338Q864 172 767 70T509 -32Q349 -32 252 70T154 338V1162Q154 1329 251 1430T509 1532Q670 1532 767 1431T864 1162V1112H714V1162Q714 1261 658 1321T509 1382Q416 1382 360 1322T304 1162V338Q304 239 360
179T509 118Q602 118 658 178T714 338V388H864Z" />
<glyph unicode="D" horiz-adv-x="1017" d="M176 0V1500H516Q677 1500 774 1399T871 1130V370Q871 204 774 102T516 0H176ZM326 150H516Q609 150 665 210T721 370V1130Q721 1229 665 1289T516 1350H326V150Z" />
<glyph unicode="E" horiz-adv-x="865" d="M781 1500V1350H326V825H727V675H326V150H781V0H176V1500H781Z" />
<glyph unicode="F" horiz-adv-x="838" d="M176 0V1500H781V1350H326V735H727V585H326V0H176Z" />
<glyph unicode="G" horiz-adv-x="992" d="M509 -32Q349 -32 252 70T154 338V1162Q154 1329 251 1430T509 1532Q670 1532 767 1431T864 1162V1112H714V1162Q714 1261 658 1321T509 1382Q416 1382 360 1322T304 1162V338Q304 239 360 179T509 118Q602 118 658 178T714
338V570H513V720H864V338Q864 172 767 70T509 -32Z" />
<glyph unicode="H" horiz-adv-x="1037" d="M176 0V1500H326V735H711V1500H861V0H711V585H326V0H176Z" />
<glyph unicode="I" horiz-adv-x="502" d="M326 0H176V1500H326V0Z" />
<glyph unicode="J" horiz-adv-x="657" d="M38 -12V138H138Q231 138 287 198T343 358V1500H493V358Q493 192 396 90T138 -12H38Z" />
<glyph unicode="K" horiz-adv-x="981" d="M774 0L409 786L306 636V885L735 1500H898L509 933L936 0H774ZM176 0V1500H326V0H176Z" />
<glyph unicode="L" horiz-adv-x="782" d="M326 1500V150H741V0H176V1500H326Z" />
<glyph unicode="M" horiz-adv-x="1300" d="M176 0V1500H332L667 214H633L968 1500H1124V0H979V1098L996 1095L709 0H591L304 1095L321 1098V0H176Z" />
<glyph unicode="N" horiz-adv-x="1057" d="M176 0V1500H309L778 278L736 273V1500H881V0H749L279 1223L321 1228V0H176Z" />
<glyph unicode="O" horiz-adv-x="1018" d="M509 -32Q349 -32 252 70T154 338V1162Q154 1329 251 1430T509 1532Q670 1532 767 1431T864 1162V338Q864 172 767 70T509 -32ZM509 118Q602 118 658 178T714 338V1162Q714 1261 658 1321T509 1382Q416 1382 360 1322T304
1162V338Q304 239 360 179T509 118Z" />
<glyph unicode="P" horiz-adv-x="951" d="M176 0V1500H546Q694 1500 782 1407T871 1160V998Q871 845 783 752T546 658H326V0H176ZM326 808H546Q626 808 673 860T721 998V1160Q721 1246 674 1298T546 1350H326V808Z" />
<glyph unicode="Q" horiz-adv-x="1018" d="M644 -181L448 438H601L797 -181H644ZM509 -32Q349 -32 252 70T154 338V1162Q154 1329 251 1430T509 1532Q670 1532 767 1431T864 1162V338Q864 172 767 70T509 -32ZM509 118Q602 118 658 178T714 338V1162Q714 1261
658 1321T509 1382Q416 1382 360 1322T304 1162V338Q304 239 360 179T509 118Z" />
<glyph unicode="R" horiz-adv-x="1023" d="M176 0V1500H546Q694 1500 782 1407T871 1160V958Q871 854 829 775T708 655L701 699Q781 668 826 601T871 443V0H721V443Q721 521 674 569T546 618H326V0H176ZM326 768H546Q626 768 673 820T721 958V1160Q721 1246 674
1298T546 1350H326V768Z" />
<glyph unicode="S" horiz-adv-x="944" d="M473 -32Q313 -32 216 70T118 338V388H268V338Q268 239 324 179T473 118Q566 118 622 178T678 338V450Q678 505 674 537T652 590T592 627T473 670Q340 714 267 743T163 805T125 892T118 1040V1162Q118 1329 215 1430T473
1532Q634 1532 731 1431T828 1162V1112H678V1162Q678 1261 622 1321T473 1382Q380 1382 324 1322T268 1162V1040Q268 985 271 953T293 901T353 863T473 820Q606 777 679 748T783 685T821 598T828 450V338Q828 172 731 70T473 -32Z" />
<glyph unicode="T" horiz-adv-x="741" d="M296 0V1350H38V1500H703V1350H446V0H296Z" />
<glyph unicode="U" horiz-adv-x="1042" d="M876 1500V338Q876 172 779 70T521 -32Q361 -32 264 70T166 338V1500H316V338Q316 239 372 179T521 118Q614 118 670 178T726 338V1500H876Z" />
<glyph unicode="V" horiz-adv-x="919" d="M380 0L54 1500H209L474 250H447L710 1500H865L540 0H380Z" />
<glyph unicode="W" horiz-adv-x="1299" d="M288 0L77 1500H232L392 284L373 285L583 1500H717L926 285L908 284L1068 1500H1222L1011 0H851L639 1150H664L448 0H288Z" />
<glyph unicode="X" horiz-adv-x="916" d="M54 0L380 752L54 1500H210L484 875H433L706 1500H862L536 752L862 0H707L433 627H484L209 0H54Z" />
<glyph unicode="Y" horiz-adv-x="944" d="M398 0V770L32 1500H186L500 866H445L758 1500H912L548 770V0H398Z" />
<glyph unicode="Z" horiz-adv-x="840" d="M73 0L71 117L634 1413L674 1350H73V1500H769V1384L206 88L166 150H769V0H73Z" />
<glyph unicode="[" horiz-adv-x="680" d="M169 -360V1560H634V1410H319V-210H634V-360H169Z" />
<glyph unicode="\" horiz-adv-x="701" d="M672 -100H514L-22 1560H136L672 -100Z" />
<glyph unicode="]" horiz-adv-x="680" d="M47 -360V-210H362V1410H47V1560H512V-360H47Z" />
<glyph unicode="^" horiz-adv-x="872" d="M96 1003L380 1500H495L776 1003H632L437 1362L241 1003H96Z" />
<glyph unicode="_" horiz-adv-x="1124" d="M197 -190V-40H927V-190H197Z" />
<glyph unicode="`" horiz-adv-x="418" d="M232 1216L56 1560H209L344 1216H232Z" />
<glyph unicode="a" horiz-adv-x="909" d="M390 -24Q240 -24 158 59T76 269Q76 348 105 400T179 486T276 539Q337 564 400 578T518 609T605 655T638 737V763Q638 854 584 909T439 965Q348 965 296 910T243 763V733H98V758Q98 916 192 1013T439 1110Q540 1110 617
1066T739 942T783 758V0H638V150L662 118Q624 50 555 13T390 -24ZM420 114Q522 114 580 171T638 336V528Q577 490 502 477T359 440Q299 420 260 384T221 280Q221 207 273 161T420 114Z" />
<glyph unicode="b" horiz-adv-x="939" d="M508 -24Q422 -24 361 11T263 109L287 141V0H142V1500H287V944L263 977Q299 1039 360 1074T508 1110Q597 1110 668 1070T782 953T824 763V324Q824 211 782 133T669 16T508 -24ZM481 121Q574 121 626 177T679 324V763Q679
854 627 909T482 965Q389 965 338 910T287 763V323Q287 232 338 177T481 121Z" />
<glyph unicode="c" horiz-adv-x="870" d="M454 -24Q352 -24 275 20T154 143T110 329V758Q110 862 154 941T275 1065T454 1110Q607 1110 701 1013T795 758V738H650V763Q650 854 598 909T454 965Q363 965 309 910T255 763V324Q255 233 309 177T454 121Q545 121 597
177T650 324V349H795V329Q795 171 701 74T454 -24Z" />
<glyph unicode="d" horiz-adv-x="939" d="M431 -24Q342 -24 271 15T157 133T115 324V763Q115 875 157 952T270 1070T431 1110Q517 1110 578 1075T676 977L652 944V1500H797V0H652V141L676 109Q640 46 579 11T431 -24ZM458 121Q550 121 601 176T652 323V763Q652
854 601 909T457 965Q365 965 313 910T260 763V324Q260 233 312 177T458 121Z" />
<glyph unicode="e" horiz-adv-x="898" d="M454 -24Q352 -24 275 20T154 143T110 329V758Q110 862 154 941T275 1065T454 1110Q607 1110 701 1013T795 758V521H226V661H650V763Q650 854 598 909T454 965Q363 965 309 910T255 763V324Q255 233 309 177T454 121Q545
121 597 177T650 324V349H795V329Q795 171 701 74T454 -24Z" />
<glyph unicode="f" horiz-adv-x="642" d="M212 0V948H11V1085H212V1157Q212 1264 254 1346T374 1474T556 1520H632V1375H556Q465 1375 411 1315T357 1157V1085H632V948H357V0H212Z" />
<glyph unicode="g" horiz-adv-x="919" d="M433 -366Q281 -366 187 -269T92 -12V14H237V-17Q237 -108 289 -164T433 -221Q524 -221 578 -165T632 -17V281L657 249Q620 186 559 151T412 116Q323 116 251 155T137 273T95 464V763Q95 875 137 952T251 1070T412 1110Q497
1110 558 1075T657 977L632 944V1085H777V-13Q777 -119 733 -198T612 -322T433 -366ZM438 261Q530 261 581 316T632 463V763Q632 854 581 909T438 965Q345 965 293 910T240 763V464Q240 373 292 317T438 261Z" />
<glyph unicode="h" horiz-adv-x="942" d="M142 0V1500H287V943L263 974Q300 1039 362 1075T510 1111Q596 1111 664 1073T772 960T812 779V0H667V764Q667 856 616 911T479 966Q392 966 340 911T287 764V0H142Z" />
<glyph unicode="i" horiz-adv-x="429" d="M142 0V1085H287V0H142ZM142 1206V1440H287V1206H142Z" />
<glyph unicode="j" horiz-adv-x="429" d="M-118 -366V-221H-55Q35 -221 88 -161T142 -2V1085H287V4Q287 -162 194 -264T-55 -366H-118ZM142 1206V1440H287V1206H142Z" />
<glyph unicode="k" horiz-adv-x="853" d="M690 0L391 582L268 424V645L627 1087H782L486 707L845 0H690ZM142 0V1500H287V0H142Z" />
<glyph unicode="l" horiz-adv-x="429" d="M142 0V1500H287V0H142Z" />
<glyph unicode="m" horiz-adv-x="1467" d="M142 0V1085H287V941L263 972Q300 1038 362 1074T509 1110Q611 1110 687 1058T794 905L759 909Q790 1002 860 1056T1034 1110Q1122 1110 1190 1071T1297 958T1337 778V0H1192V763Q1192 854 1141 909T1004 965Q917 965
865 910T812 763V0H667V763Q667 854 616 909T479 965Q392 965 340 910T287 763V0H142Z" />
<glyph unicode="n" horiz-adv-x="941" d="M142 0V1085H287V940L262 969Q300 1037 363 1073T510 1110Q646 1110 729 1016T812 763V0H667V763Q667 854 616 909T479 965Q392 965 340 910T287 763V0H142Z" />
<glyph unicode="o" horiz-adv-x="907" d="M454 -24Q352 -24 275 20T154 143T110 329V758Q110 862 154 941T275 1065T454 1110Q607 1110 701 1013T795 758V329Q795 171 701 74T454 -24ZM454 121Q545 121 597 177T650 324V763Q650 854 598 909T454 965Q363 965 309
910T255 763V324Q255 233 309 177T454 121Z" />
<glyph unicode="p" horiz-adv-x="937" d="M142 -360V1085H287V944L263 977Q299 1039 360 1074T508 1110Q597 1110 668 1070T782 953T824 763V324Q824 211 782 133T669 16T508 -24Q422 -24 361 11T263 109L287 141V-360H142ZM481 121Q574 121 626 177T679 324V763Q679
854 627 909T482 965Q389 965 338 910T287 763V323Q287 232 338 177T481 121Z" />
<glyph unicode="q" horiz-adv-x="937" d="M650 -355V141L675 109Q638 46 577 11T430 -24Q341 -24 269 15T155 133T113 324V763Q113 875 155 952T269 1070T430 1110Q515 1110 576 1075T675 977L650 944V1085H795V-355H650ZM456 121Q549 121 599 176T650 323V763Q650
854 599 909T456 965Q363 965 311 910T258 763V324Q258 233 310 177T456 121Z" />
<glyph unicode="r" horiz-adv-x="565" d="M142 0V1085H287V929L262 959Q300 1026 363 1062T509 1098H556V953H479Q392 953 340 899T287 754V0H142Z" />
<glyph unicode="s" horiz-adv-x="849" d="M432 -24Q277 -24 184 65T90 302V337H235V296Q235 217 288 169T430 121Q515 121 565 169T615 308Q615 367 593 398T528 446T426 474Q327 495 251 520T133 602T90 769Q90 935 181 1022T422 1110Q577 1110 668 1021T760
785V751H615V790Q615 870 564 917T424 965Q338 965 287 917T235 777Q235 718 257 687T323 640T426 612Q524 592 599 566T717 483T760 314Q760 151 671 64T432 -24Z" />
<glyph unicode="t" horiz-adv-x="665" d="M549 -12Q394 -12 301 86T207 351V950H12V1087H207V1360H352V1087H622V950H352V351Q352 252 406 193T549 133H622V-12H549Z" />
<glyph unicode="u" horiz-adv-x="941" d="M431 -24Q345 -24 277 15T169 131T129 323V1085H274V323Q274 232 326 177T463 121Q550 121 602 176T654 323V1085H799V0H654V144L679 113Q642 48 579 12T431 -24Z" />
<glyph unicode="v" horiz-adv-x="835" d="M331 0L21 1085H176L436 155H401L659 1085H814L507 0H331Z" />
<glyph unicode="w" horiz-adv-x="1103" d="M228 0L55 1085H206L327 159L305 161L483 1085H620L798 161L777 159L896 1085H1048L875 0H711L539 836H567L393 0H228Z" />
<glyph unicode="x" horiz-adv-x="787" d="M23 0L320 544L23 1085H180L426 639H362L607 1085H764L467 544L764 0H607L362 449H426L180 0H23Z" />
<glyph unicode="y" horiz-adv-x="835" d="M240 -360L338 -22L22 1085H180L437 169H402L655 1085H815L396 -360H240Z" />
<glyph unicode="z" horiz-adv-x="756" d="M48 0V114L563 998L597 940H60V1085H709V972L200 86L165 145H697V0H48Z" />
<glyph unicode="{" horiz-adv-x="764" d="M607 -360Q447 -360 350 -258T252 10V391Q252 452 220 489T132 526H32V676H132Q187 676 219 713T252 811V1190Q252 1357 349 1458T607 1560H717V1410H607Q514 1410 458 1350T402 1190V811Q402 746 379 692T313 602Q355
566 378 511T402 391V10Q402 -89 458 -149T607 -210H717V-360H607Z" />
<glyph unicode="|" horiz-adv-x="574" d="M362 -300H212V1560H362V-300Z" />
<glyph unicode="}" horiz-adv-x="764" d="M47 -360V-210H157Q250 -210 306 -150T362 10V391Q362 456 385 511T451 602Q409 637 386 691T362 811V1190Q362 1289 306 1349T157 1410H47V1560H157Q318 1560 415 1459T512 1190V811Q512 750 544 713T632 676H732V526H632Q577
526 545 489T512 391V10Q512 -156 415 -258T157 -360H47Z" />
<glyph unicode="~" horiz-adv-x="1124" d="M181 403V441Q181 545 238 603T397 661Q457 661 501 643T580 600T647 557T717 538Q759 538 778 563T798 625V664H940V616Q940 516 888 460T749 403Q694 403 651 422T571 467T498 513T420 533Q376 533 349 507T322 436V403H181Z" />
<glyph unicode="&#xa0;" horiz-adv-x="428" />
<glyph unicode="&#xa1;" horiz-adv-x="544" d="M197 -415V665H347V-415H197ZM197 785V1085H347V785H197Z" />
<glyph unicode="&#xa2;" horiz-adv-x="978" d="M553 -200H443V1285H553V-200ZM503 -24Q401 -24 324 20T203 143T159 329V758Q159 862 203 941T324 1065T503 1110Q656 1110 750 1013T844 758V738H699V763Q699 854 647 909T503 965Q412 965 358 910T304 763V324Q304
233 358 177T503 121Q594 121 646 177T699 324V349H844V329Q844 171 750 74T503 -24Z" />
<glyph unicode="&#xa3;" horiz-adv-x="1085" d="M268 0V1156Q268 1323 365 1424T622 1526Q784 1526 881 1425T978 1156V1106H828V1156Q828 1255 772 1315T623 1376Q530 1376 474 1316T418 1156V0H268ZM123 680V820H708V680H123ZM123 0V140H870V0H123Z" />
<glyph unicode="&#xa4;" horiz-adv-x="1125" d="M235 143L155 224L285 354Q259 392 244 442T228 552Q228 609 242 658T285 747L155 876L235 956L366 826Q449 887 563 887Q676 887 759 828L887 956L968 876L840 749Q868 709 882 658T897 552Q897 435 838 354L968
224L887 143L757 274Q716 244 666 230T563 216Q510 216 460 230T366 275L235 143ZM562 344Q649 344 709 401T769 552Q769 645 709 701T563 758Q476 758 416 702T355 551Q355 460 414 402T562 344Z" />
<glyph unicode="&#xa5;" horiz-adv-x="1048" d="M232 638V778H817V638H232ZM232 260V400H817V260H232ZM450 0V770L84 1500H238L525 941L810 1500H964L600 770V0H450Z" />
<glyph unicode="&#xa6;" horiz-adv-x="574" d="M362 -300H212V431H362V-300ZM362 830H212V1560H362V830Z" />
<glyph unicode="&#xa7;" horiz-adv-x="995" d="M508 -102Q353 -102 259 0T165 268V288H310V262Q310 164 364 104T510 43Q590 43 640 91T691 230Q691 293 667 324T600 370T501 396Q402 418 326 443T208 526T165 696Q165 788 195 851T278 958Q224 999 192 1066T159
1212Q159 1303 200 1374T315 1485T487 1526Q643 1526 736 1424T830 1156V1136H685V1164Q685 1262 632 1321T484 1381Q405 1381 355 1334T304 1189Q304 1141 320 1111T379 1063T495 1027Q595 1006 670 980T788 898T830 729Q830 640 801 576T717 465Q773 425 804
359T836 213Q836 122 795 51T680 -61T508 -102ZM501 535Q584 536 634 584T685 712Q685 791 633 840T495 889Q412 889 361 841T310 713Q310 631 363 583T501 535Z" />
<glyph unicode="&#xa8;" horiz-adv-x="688" d="M142 1332V1560H272V1332H142ZM418 1332V1560H546V1332H418Z" />
<glyph unicode="&#xa9;" horiz-adv-x="1691" d="M843 -26Q631 -26 469 70T217 341T126 751Q126 985 215 1159T467 1429T847 1526Q1062 1526 1223 1431T1475 1164T1566 758Q1566 526 1476 350T1223 74T843 -26ZM843 84Q1027 84 1164 169T1379 407T1456 758Q1456
958 1380 1106T1166 1335T847 1416Q663 1416 526 1334T312 1102T236 751Q236 549 312 399T526 167T843 84ZM845 283Q747 283 688 344T629 505V995Q629 1095 688 1156T845 1217Q943 1217 1001 1156T1060 995V960H950V995Q950 1045 922 1076T844 1107Q797 1107 768
1077T739 995V505Q739 454 768 424T844 393Q893 393 921 424T950 505V540H1060V505Q1060 407 1002 345T845 283Z" />
<glyph unicode="&#xaa;" horiz-adv-x="744" d="M326 837Q239 837 192 887T145 1015Q145 1086 180 1122T260 1177Q308 1198 355 1209T434 1239T466 1297V1312Q466 1358 439 1386T364 1415Q317 1415 290 1387T262 1312V1289H157V1306Q157 1402 214 1461T364 1520Q457
1520 514 1461T571 1306V852H466V945L485 922Q462 879 421 858T326 837ZM353 935Q406 935 436 964T466 1051V1159Q435 1139 397 1131T322 1110Q290 1098 270 1079T250 1024Q250 987 276 961T353 935Z" />
<glyph unicode="&#xab;" horiz-adv-x="1051" d="M955 0L523 442V527L955 968V792L663 484L955 177V0ZM483 0L50 442V527L483 968V792L191 484L483 177V0Z" />
<glyph unicode="&#xac;" horiz-adv-x="1127" d="M765 231V469H145V619H915V231H765Z" />
<glyph unicode="&#xad;" horiz-adv-x="854" d="M149 469V619H719V469H149Z" />
<glyph unicode="&#xae;" horiz-adv-x="1691" d="M843 -26Q631 -26 469 70T217 341T126 751Q126 985 215 1159T467 1429T847 1526Q1062 1526 1223 1431T1475 1164T1566 758Q1566 526 1476 350T1223 74T843 -26ZM843 84Q1027 84 1164 169T1379 407T1456 758Q1456
958 1380 1106T1166 1335T847 1416Q663 1416 526 1334T312 1102T236 751Q236 549 312 399T526 167T843 84ZM633 300V1200H855Q946 1200 1001 1143T1057 991V863Q1057 754 985 698Q1016 679 1036 645T1057 562V300H947V562Q947 603 922 628T855 654H743V300H633ZM743
764H855Q897 764 922 791T947 863V991Q947 1035 922 1062T855 1090H743V764Z" />
<glyph unicode="&#xaf;" horiz-adv-x="720" d="M142 1500H578V1385H142V1500Z" />
<glyph unicode="&#xb0;" horiz-adv-x="821" d="M411 1035Q344 1035 289 1065T199 1151T165 1280Q165 1353 198 1408T288 1495T410 1526Q476 1526 531 1495T620 1409T654 1280Q654 1207 621 1152T533 1066T411 1035ZM409 1143Q461 1143 504 1180T547 1279Q547 1343
504 1380T409 1418Q357 1418 315 1381T272 1279Q272 1217 314 1180T409 1143Z" />
<glyph unicode="&#xb1;" horiz-adv-x="1040" d="M135 570V720H905V570H135ZM446 991H596V301H446V991ZM135 0V150H905V0H135Z" />
<glyph unicode="&#xb2;" horiz-adv-x="559" d="M61 660V757Q61 838 93 898T173 1005T269 1091T349 1172T382 1264V1358Q382 1408 353 1439T275 1470Q229 1470 200 1439T171 1358V1323H61V1358Q61 1457 120 1518T275 1580Q373 1580 432 1519T492 1358V1264Q492
1199 460 1149T381 1054T287 969T208 883T176 782V770H492V660H61Z" />
<glyph unicode="&#xb3;" horiz-adv-x="584" d="M275 640Q177 640 118 701T58 862V897H168V862Q168 813 197 782T275 750Q321 750 350 781T379 862V955Q379 1005 350 1036T275 1067H196V1177H275Q321 1177 350 1207T379 1289V1358Q379 1408 350 1439T275 1470Q227
1470 198 1439T168 1358V1323H58V1358Q58 1457 117 1518T275 1580Q371 1580 430 1519T489 1358V1289Q489 1238 472 1194T419 1121Q450 1096 469 1054T489 955V862Q489 763 430 702T275 640Z" />
<glyph unicode="&#xb4;" horiz-adv-x="418" d="M74 1216L209 1560H362L186 1216H74Z" />
<glyph unicode="&#xb5;" horiz-adv-x="1073" d="M517 -24Q430 -24 361 16T252 137T212 339V1087H357V339Q357 240 408 181T548 121Q639 121 690 181T742 339V445H818V346Q818 180 741 78T517 -24ZM742 0V1087H887V0H742ZM212 -300V1087H357V-300H212Z" />
<glyph unicode="&#xb6;" horiz-adv-x="911" d="M699 -300H549V768H419Q273 768 184 861T94 1108V1160Q94 1314 183 1407T419 1500H699V-300Z" />
<glyph unicode="&#xb7;" horiz-adv-x="534" d="M197 423V663H337V423H197Z" />
<glyph unicode="&#xb8;" horiz-adv-x="519" d="M123 -434V-320H251Q284 -320 304 -302T324 -255Q324 -225 304 -206T251 -187H179L126 -152V37H242V-124L171 -109Q253 -80 313 -96T407 -157T440 -262Q440 -336 388 -385T251 -434H123Z" />
<glyph unicode="&#xb9;" horiz-adv-x="381" d="M151 660V1361H24V1471H51Q98 1471 124 1495T151 1561V1575H261V660H151Z" />
<glyph unicode="&#xba;" horiz-adv-x="706" d="M354 837Q261 837 204 897T147 1052V1306Q147 1402 204 1461T354 1520Q447 1520 503 1461T560 1306V1052Q560 955 504 896T354 837ZM354 941Q401 941 428 970T456 1046V1312Q456 1358 429 1386T354 1415Q307 1415
280 1387T252 1312V1046Q252 1000 279 971T354 941Z" />
<glyph unicode="&#xbb;" horiz-adv-x="1051" d="M568 0V177L860 484L568 792V968L1000 527V442L568 0ZM95 0V177L387 484L95 792V968L528 527V442L95 0Z" />
<glyph unicode="&#xbc;" horiz-adv-x="1367" d="M151 600V1301H24V1411H51Q98 1411 124 1435T151 1501V1515H261V600H151ZM186 0L844 1500H975L317 0H186ZM1123 0V184H797V284L1128 900H1233V295H1312V184H1233V0H1123ZM912 295H1123V695L912 295Z" />
<glyph unicode="&#xbd;" horiz-adv-x="1338" d="M151 600V1301H24V1411H51Q98 1411 124 1435T151 1501V1515H261V600H151ZM186 0L844 1500H975L317 0H186ZM841 0V97Q841 178 873 238T953 345T1049 431T1129 512T1162 604V698Q1162 748 1133 779T1055 810Q1009
810 980 779T951 698V663H841V698Q841 797 900 858T1055 920Q1153 920 1212 859T1272 698V604Q1272 539 1240 489T1161 394T1067 309T988 223T956 122V110H1272V0H841Z" />
<glyph unicode="&#xbe;" horiz-adv-x="1570" d="M275 580Q177 580 118 641T58 802V837H168V802Q168 753 197 722T275 690Q321 690 350 721T379 802V895Q379 945 350 976T275 1007H196V1117H275Q321 1117 350 1147T379 1229V1298Q379 1348 350 1379T275 1410Q227
1410 198 1379T168 1298V1263H58V1298Q58 1397 117 1458T275 1520Q371 1520 430 1459T489 1298V1229Q489 1178 472 1134T419 1061Q450 1036 469 994T489 895V802Q489 703 430 642T275 580ZM389 0L1047 1500H1178L520 0H389ZM1326 0V184H1000V284L1331 900H1436V295H1515V184H1436V0H1326ZM1115
295H1326V695L1115 295Z" />
<glyph unicode="&#xbf;" horiz-adv-x="879" d="M536 741V667Q536 576 507 507T434 382T348 276T275 175T246 62V-77Q246 -176 302 -236T451 -297Q544 -297 600 -237T656 -77V-27H806V-77Q806 -243 709 -345T451 -447Q291 -447 194 -345T96 -77V62Q96 134 125 194T197
309T284 417T356 533T386 667V741H536ZM536 1085V835H386V1085H536Z" />
<glyph unicode="&#xc0;" horiz-adv-x="919" d="M54 0L380 1500H540L865 0H710L646 300H273L209 0H54ZM301 450H618L448 1285H472L301 450ZM407 1631L231 1975H384L519 1631H407Z" />
<glyph unicode="&#xc1;" horiz-adv-x="919" d="M54 0L380 1500H540L865 0H710L646 300H273L209 0H54ZM301 450H618L448 1285H472L301 450ZM402 1631L537 1975H690L514 1631H402Z" />
<glyph unicode="&#xc2;" horiz-adv-x="919" d="M54 0L380 1500H540L865 0H710L646 300H273L209 0H54ZM301 450H618L448 1285H472L301 450ZM177 1685L399 1975H519L742 1685H596L460 1874L323 1685H177Z" />
<glyph unicode="&#xc3;" horiz-adv-x="919" d="M54 0L380 1500H540L865 0H710L646 300H273L209 0H54ZM301 450H618L448 1285H472L301 450ZM578 1675Q538 1675 509 1690T456 1721Q428 1742 406 1758T363 1775Q343 1775 333 1759T322 1719V1685H205V1726Q205 1802
242 1838T335 1875Q376 1875 409 1859T464 1825Q489 1806 509 1790T551 1774Q574 1774 583 1793T593 1833V1873H709V1823Q709 1747 672 1711T578 1675Z" />
<glyph unicode="&#xc4;" horiz-adv-x="919" d="M54 0L380 1500H540L865 0H710L646 300H273L209 0H54ZM301 450H618L448 1285H472L301 450ZM261 1747V1975H391V1747H261ZM537 1747V1975H665V1747H537Z" />
<glyph unicode="&#xc5;" horiz-adv-x="919" d="M54 0L380 1500H540L865 0H710L646 300H273L209 0H54ZM301 450H618L448 1285H472L301 450ZM462 1562Q387 1562 333 1612T279 1743Q279 1826 333 1876T460 1926Q534 1926 588 1876T643 1744Q643 1662 589 1612T462
1562ZM462 1660Q493 1660 519 1683T545 1744Q545 1782 519 1805T461 1829Q429 1829 403 1805T376 1744Q376 1706 402 1683T462 1660Z" />
<glyph unicode="&#xc6;" horiz-adv-x="1293" d="M54 0L380 1500H1209V1350H751V825H1155V675H751V150H1209V0H601V300H274L209 0H54ZM304 450H601V1350H491L304 450Z" />
<glyph unicode="&#xc7;" horiz-adv-x="956" d="M864 388V338Q864 172 767 70T509 -32Q349 -32 252 70T154 338V1162Q154 1329 251 1430T509 1532Q670 1532 767 1431T864 1162V1112H714V1162Q714 1261 658 1321T509 1382Q416 1382 360 1322T304 1162V338Q304 239
360 179T509 118Q602 118 658 178T714 338V388H864ZM454 -434V-320H582Q615 -320 635 -302T655 -255Q655 -225 635 -206T582 -187H510L457 -152V37H573V-124L502 -109Q584 -80 644 -96T738 -157T771 -262Q771 -336 719 -385T582 -434H454Z" />
<glyph unicode="&#xc8;" horiz-adv-x="865" d="M781 1500V1350H326V825H727V675H326V150H781V0H176V1500H781ZM372 1631L196 1975H349L484 1631H372Z" />
<glyph unicode="&#xc9;" horiz-adv-x="865" d="M781 1500V1350H326V825H727V675H326V150H781V0H176V1500H781ZM367 1631L502 1975H655L479 1631H367Z" />
<glyph unicode="&#xca;" horiz-adv-x="865" d="M781 1500V1350H326V825H727V675H326V150H781V0H176V1500H781ZM142 1685L364 1975H484L707 1685H561L425 1874L288 1685H142Z" />
<glyph unicode="&#xcb;" horiz-adv-x="865" d="M781 1500V1350H326V825H727V675H326V150H781V0H176V1500H781ZM226 1747V1975H356V1747H226ZM502 1747V1975H630V1747H502Z" />
<glyph unicode="&#xcc;" horiz-adv-x="502" d="M326 0H176V1500H326V0ZM200 1631L24 1975H177L312 1631H200Z" />
<glyph unicode="&#xcd;" horiz-adv-x="502" d="M326 0H176V1500H326V0ZM194 1631L329 1975H482L306 1631H194Z" />
<glyph unicode="&#xce;" horiz-adv-x="502" d="M326 0H176V1500H326V0ZM-31 1685L191 1975H311L534 1685H388L252 1874L115 1685H-31Z" />
<glyph unicode="&#xcf;" horiz-adv-x="502" d="M326 0H176V1500H326V0ZM54 1747V1975H184V1747H54ZM330 1747V1975H458V1747H330Z" />
<glyph unicode="&#xd0;" horiz-adv-x="1017" d="M15 689V814H485V689H15ZM176 0V1500H516Q677 1500 774 1399T871 1130V370Q871 204 774 102T516 0H176ZM326 150H516Q609 150 665 210T721 370V1130Q721 1229 665 1289T516 1350H326V150Z" />
<glyph unicode="&#xd1;" horiz-adv-x="1057" d="M176 0V1500H309L778 278L736 273V1500H881V0H749L279 1223L321 1228V0H176ZM647 1675Q607 1675 578 1690T525 1721Q497 1742 475 1758T432 1775Q412 1775 402 1759T391 1719V1685H274V1726Q274 1802 311 1838T404
1875Q445 1875 478 1859T533 1825Q558 1806 578 1790T620 1774Q643 1774 652 1793T662 1833V1873H778V1823Q778 1747 741 1711T647 1675Z" />
<glyph unicode="&#xd2;" horiz-adv-x="1018" d="M509 -32Q349 -32 252 70T154 338V1162Q154 1329 251 1430T509 1532Q670 1532 767 1431T864 1162V338Q864 172 767 70T509 -32ZM509 118Q602 118 658 178T714 338V1162Q714 1261 658 1321T509 1382Q416 1382 360
1322T304 1162V338Q304 239 360 179T509 118ZM457 1631L281 1975H434L569 1631H457Z" />
<glyph unicode="&#xd3;" horiz-adv-x="1018" d="M509 -32Q349 -32 252 70T154 338V1162Q154 1329 251 1430T509 1532Q670 1532 767 1431T864 1162V338Q864 172 767 70T509 -32ZM509 118Q602 118 658 178T714 338V1162Q714 1261 658 1321T509 1382Q416 1382 360
1322T304 1162V338Q304 239 360 179T509 118ZM451 1631L586 1975H739L563 1631H451Z" />
<glyph unicode="&#xd4;" horiz-adv-x="1018" d="M509 -32Q349 -32 252 70T154 338V1162Q154 1329 251 1430T509 1532Q670 1532 767 1431T864 1162V338Q864 172 767 70T509 -32ZM509 118Q602 118 658 178T714 338V1162Q714 1261 658 1321T509 1382Q416 1382 360
1322T304 1162V338Q304 239 360 179T509 118ZM226 1685L448 1975H568L791 1685H645L509 1874L372 1685H226Z" />
<glyph unicode="&#xd5;" horiz-adv-x="1018" d="M509 -32Q349 -32 252 70T154 338V1162Q154 1329 251 1430T509 1532Q670 1532 767 1431T864 1162V338Q864 172 767 70T509 -32ZM509 118Q602 118 658 178T714 338V1162Q714 1261 658 1321T509 1382Q416 1382 360
1322T304 1162V338Q304 239 360 179T509 118ZM627 1675Q587 1675 558 1690T505 1721Q477 1742 455 1758T412 1775Q392 1775 382 1759T371 1719V1685H254V1726Q254 1802 291 1838T384 1875Q425 1875 458 1859T513 1825Q538 1806 558 1790T600 1774Q623 1774 632
1793T642 1833V1873H758V1823Q758 1747 721 1711T627 1675Z" />
<glyph unicode="&#xd6;" horiz-adv-x="1018" d="M509 -32Q349 -32 252 70T154 338V1162Q154 1329 251 1430T509 1532Q670 1532 767 1431T864 1162V338Q864 172 767 70T509 -32ZM509 118Q602 118 658 178T714 338V1162Q714 1261 658 1321T509 1382Q416 1382 360
1322T304 1162V338Q304 239 360 179T509 118ZM311 1747V1975H441V1747H311ZM587 1747V1975H715V1747H587Z" />
<glyph unicode="&#xd7;" horiz-adv-x="898" d="M669 221L125 764L230 871L775 326L669 221ZM230 219L125 326L668 869L775 764L230 219Z" />
<glyph unicode="&#xd8;" horiz-adv-x="1018" d="M167 -68H60L853 1566H961L167 -68ZM509 -32Q349 -32 252 70T154 338V1162Q154 1329 251 1430T509 1532Q670 1532 767 1431T864 1162V338Q864 172 767 70T509 -32ZM509 118Q602 118 658 178T714 338V1162Q714 1261
658 1321T509 1382Q416 1382 360 1322T304 1162V338Q304 239 360 179T509 118Z" />
<glyph unicode="&#xd9;" horiz-adv-x="1042" d="M876 1500V338Q876 172 779 70T521 -32Q361 -32 264 70T166 338V1500H316V338Q316 239 372 179T521 118Q614 118 670 178T726 338V1500H876ZM470 1631L294 1975H447L582 1631H470Z" />
<glyph unicode="&#xda;" horiz-adv-x="1042" d="M876 1500V338Q876 172 779 70T521 -32Q361 -32 264 70T166 338V1500H316V338Q316 239 372 179T521 118Q614 118 670 178T726 338V1500H876ZM465 1631L600 1975H753L577 1631H465Z" />
<glyph unicode="&#xdb;" horiz-adv-x="1042" d="M876 1500V338Q876 172 779 70T521 -32Q361 -32 264 70T166 338V1500H316V338Q316 239 372 179T521 118Q614 118 670 178T726 338V1500H876ZM240 1685L462 1975H582L805 1685H659L523 1874L386 1685H240Z" />
<glyph unicode="&#xdc;" horiz-adv-x="1042" d="M876 1500V338Q876 172 779 70T521 -32Q361 -32 264 70T166 338V1500H316V338Q316 239 372 179T521 118Q614 118 670 178T726 338V1500H876ZM324 1747V1975H454V1747H324ZM600 1747V1975H728V1747H600Z" />
<glyph unicode="&#xdd;" horiz-adv-x="944" d="M398 0V770L32 1500H186L500 866H445L758 1500H912L548 770V0H398ZM414 1631L549 1975H702L526 1631H414Z" />
<glyph unicode="&#xde;" horiz-adv-x="951" d="M176 0V1500H326V1270H546Q694 1270 782 1177T871 930V768Q871 615 783 522T546 428H326V0H176ZM326 578H546Q626 578 673 630T721 768V930Q721 1016 674 1068T546 1120H326V578Z" />
<glyph unicode="&#xdf;" horiz-adv-x="986" d="M142 -240V1157Q142 1270 187 1354T313 1485T502 1532Q610 1532 691 1486T817 1355T862 1157V1038Q862 944 827 871T730 754L727 806Q798 765 840 688T882 508V333Q882 180 794 87T557 -7H448V143H557Q637 143 684
195T732 333V508Q732 593 685 645T557 698H449V848H537Q617 848 664 900T712 1038V1157Q712 1258 655 1320T502 1382Q408 1382 350 1320T292 1157V-240H142Z" />
<glyph unicode="&#xe0;" horiz-adv-x="909" d="M390 -24Q240 -24 158 59T76 269Q76 348 105 400T179 486T276 539Q337 564 400 578T518 609T605 655T638 737V763Q638 854 584 909T439 965Q348 965 296 910T243 763V733H98V758Q98 916 192 1013T439 1110Q540 1110
617 1066T739 942T783 758V0H638V150L662 118Q624 50 555 13T390 -24ZM420 114Q522 114 580 171T638 336V528Q577 490 502 477T359 440Q299 420 260 384T221 280Q221 207 273 161T420 114ZM386 1216L210 1560H363L498 1216H386Z" />
<glyph unicode="&#xe1;" horiz-adv-x="909" d="M390 -24Q240 -24 158 59T76 269Q76 348 105 400T179 486T276 539Q337 564 400 578T518 609T605 655T638 737V763Q638 854 584 909T439 965Q348 965 296 910T243 763V733H98V758Q98 916 192 1013T439 1110Q540 1110
617 1066T739 942T783 758V0H638V150L662 118Q624 50 555 13T390 -24ZM420 114Q522 114 580 171T638 336V528Q577 490 502 477T359 440Q299 420 260 384T221 280Q221 207 273 161T420 114ZM381 1216L516 1560H669L493 1216H381Z" />
<glyph unicode="&#xe2;" horiz-adv-x="909" d="M390 -24Q240 -24 158 59T76 269Q76 348 105 400T179 486T276 539Q337 564 400 578T518 609T605 655T638 737V763Q638 854 584 909T439 965Q348 965 296 910T243 763V733H98V758Q98 916 192 1013T439 1110Q540 1110
617 1066T739 942T783 758V0H638V150L662 118Q624 50 555 13T390 -24ZM420 114Q522 114 580 171T638 336V528Q577 490 502 477T359 440Q299 420 260 384T221 280Q221 207 273 161T420 114ZM156 1270L378 1560H498L721 1270H575L439 1459L302 1270H156Z" />
<glyph unicode="&#xe3;" horiz-adv-x="909" d="M390 -24Q240 -24 158 59T76 269Q76 348 105 400T179 486T276 539Q337 564 400 578T518 609T605 655T638 737V763Q638 854 584 909T439 965Q348 965 296 910T243 763V733H98V758Q98 916 192 1013T439 1110Q540 1110
617 1066T739 942T783 758V0H638V150L662 118Q624 50 555 13T390 -24ZM420 114Q522 114 580 171T638 336V528Q577 490 502 477T359 440Q299 420 260 384T221 280Q221 207 273 161T420 114ZM557 1516Q517 1516 488 1531T435 1562Q407 1583 385 1599T342 1616Q322
1616 312 1600T301 1560V1526H184V1567Q184 1643 221 1679T314 1716Q355 1716 388 1700T443 1666Q468 1647 488 1631T530 1615Q553 1615 562 1634T572 1674V1714H688V1664Q688 1588 651 1552T557 1516Z" />
<glyph unicode="&#xe4;" horiz-adv-x="909" d="M390 -24Q240 -24 158 59T76 269Q76 348 105 400T179 486T276 539Q337 564 400 578T518 609T605 655T638 737V763Q638 854 584 909T439 965Q348 965 296 910T243 763V733H98V758Q98 916 192 1013T439 1110Q540 1110
617 1066T739 942T783 758V0H638V150L662 118Q624 50 555 13T390 -24ZM420 114Q522 114 580 171T638 336V528Q577 490 502 477T359 440Q299 420 260 384T221 280Q221 207 273 161T420 114ZM240 1332V1560H370V1332H240ZM516 1332V1560H644V1332H516Z" />
<glyph unicode="&#xe5;" horiz-adv-x="909" d="M390 -24Q240 -24 158 59T76 269Q76 348 105 400T179 486T276 539Q337 564 400 578T518 609T605 655T638 737V763Q638 854 584 909T439 965Q348 965 296 910T243 763V733H98V758Q98 916 192 1013T439 1110Q540 1110
617 1066T739 942T783 758V0H638V150L662 118Q624 50 555 13T390 -24ZM420 114Q522 114 580 171T638 336V528Q577 490 502 477T359 440Q299 420 260 384T221 280Q221 207 273 161T420 114ZM441 1147Q366 1147 312 1197T258 1328Q258 1411 312 1461T439 1511Q513
1511 567 1461T622 1329Q622 1247 568 1197T441 1147ZM441 1245Q472 1245 498 1268T524 1329Q524 1367 498 1390T440 1414Q408 1414 382 1390T355 1329Q355 1291 381 1268T441 1245Z" />
<glyph unicode="&#xe6;" horiz-adv-x="1426" d="M384 -24Q240 -24 158 58T76 270Q76 349 105 401T179 486T276 539Q337 564 400 578T518 609T605 655T638 737V763Q638 854 584 909T439 965Q348 965 296 910T243 763V733H98V758Q98 916 192 1013T439 1110Q539 1110
616 1067T737 947H686Q728 1023 805 1066T982 1110Q1134 1110 1228 1013T1323 758V521H783V324Q783 233 837 177T982 121Q1072 121 1125 177T1178 324V349H1323V329Q1323 171 1229 74T982 -24Q871 -24 787 30T666 177L707 184Q664 77 577 27T384 -24ZM420 114Q522
114 580 171T638 336V528Q577 490 502 477T359 440Q299 420 260 384T221 280Q221 207 273 161T420 114ZM783 661H1178V763Q1178 854 1125 909T982 965Q891 965 837 910T783 763V661Z" />
<glyph unicode="&#xe7;" horiz-adv-x="870" d="M454 -24Q352 -24 275 20T154 143T110 329V758Q110 862 154 941T275 1065T454 1110Q607 1110 701 1013T795 758V738H650V763Q650 854 598 909T454 965Q363 965 309 910T255 763V324Q255 233 309 177T454 121Q545
121 597 177T650 324V349H795V329Q795 171 701 74T454 -24ZM399 -434V-320H527Q560 -320 580 -302T600 -255Q600 -225 580 -206T527 -187H455L402 -152V37H518V-124L447 -109Q529 -80 589 -96T683 -157T716 -262Q716 -336 664 -385T527 -434H399Z" />
<glyph unicode="&#xe8;" horiz-adv-x="898" d="M454 -24Q352 -24 275 20T154 143T110 329V758Q110 862 154 941T275 1065T454 1110Q607 1110 701 1013T795 758V521H226V661H650V763Q650 854 598 909T454 965Q363 965 309 910T255 763V324Q255 233 309 177T454
121Q545 121 597 177T650 324V349H795V329Q795 171 701 74T454 -24ZM402 1216L226 1560H379L514 1216H402Z" />
<glyph unicode="&#xe9;" horiz-adv-x="898" d="M454 -24Q352 -24 275 20T154 143T110 329V758Q110 862 154 941T275 1065T454 1110Q607 1110 701 1013T795 758V521H226V661H650V763Q650 854 598 909T454 965Q363 965 309 910T255 763V324Q255 233 309 177T454
121Q545 121 597 177T650 324V349H795V329Q795 171 701 74T454 -24ZM396 1216L531 1560H684L508 1216H396Z" />
<glyph unicode="&#xea;" horiz-adv-x="898" d="M454 -24Q352 -24 275 20T154 143T110 329V758Q110 862 154 941T275 1065T454 1110Q607 1110 701 1013T795 758V521H226V661H650V763Q650 854 598 909T454 965Q363 965 309 910T255 763V324Q255 233 309 177T454
121Q545 121 597 177T650 324V349H795V329Q795 171 701 74T454 -24ZM171 1270L393 1560H513L736 1270H590L454 1459L317 1270H171Z" />
<glyph unicode="&#xeb;" horiz-adv-x="898" d="M454 -24Q352 -24 275 20T154 143T110 329V758Q110 862 154 941T275 1065T454 1110Q607 1110 701 1013T795 758V521H226V661H650V763Q650 854 598 909T454 965Q363 965 309 910T255 763V324Q255 233 309 177T454
121Q545 121 597 177T650 324V349H795V329Q795 171 701 74T454 -24ZM256 1332V1560H386V1332H256ZM532 1332V1560H660V1332H532Z" />
<glyph unicode="&#xec;" horiz-adv-x="429" d="M142 0V1085H287V0H142ZM419 1216L243 1560H396L531 1216H419Z" />
<glyph unicode="&#xed;" horiz-adv-x="429" d="M142 0V1085H287V0H142ZM158 1216L293 1560H446L270 1216H158Z" />
<glyph unicode="&#xee;" horiz-adv-x="429" d="M142 0V1085H287V0H142ZM189 1270L411 1560H531L754 1270H608L472 1459L335 1270H189Z" />
<glyph unicode="&#xef;" horiz-adv-x="429" d="M142 0V1085H287V0H142ZM273 1332V1560H403V1332H273ZM549 1332V1560H677V1332H549Z" />
<glyph unicode="&#xf0;" horiz-adv-x="939" d="M481 1500Q621 1500 709 1410T797 1172V0H652V141L676 109Q640 46 579 11T431 -24Q342 -24 271 15T157 133T115 324V763Q115 875 157 952T270 1070T431 1110Q517 1110 578 1075T676 977L652 944V1172Q652 1263 599
1319T456 1375H412V1500H481ZM458 121Q550 121 601 176T652 323V763Q652 854 601 909T457 965Q365 965 313 910T260 763V324Q260 233 312 177T458 121ZM469 1147V1260L912 1380V1267L469 1147Z" />
<glyph unicode="&#xf1;" horiz-adv-x="941" d="M142 0V1085H287V940L262 969Q300 1037 363 1073T510 1110Q646 1110 729 1016T812 763V0H667V763Q667 854 616 909T479 965Q392 965 340 910T287 763V0H142ZM595 1516Q555 1516 526 1531T473 1562Q445 1583 423 1599T380
1616Q360 1616 350 1600T339 1560V1526H222V1567Q222 1643 259 1679T352 1716Q393 1716 426 1700T481 1666Q506 1647 526 1631T568 1615Q591 1615 600 1634T610 1674V1714H726V1664Q726 1588 689 1552T595 1516Z" />
<glyph unicode="&#xf2;" horiz-adv-x="907" d="M454 -24Q352 -24 275 20T154 143T110 329V758Q110 862 154 941T275 1065T454 1110Q607 1110 701 1013T795 758V329Q795 171 701 74T454 -24ZM454 121Q545 121 597 177T650 324V763Q650 854 598 909T454 965Q363
965 309 910T255 763V324Q255 233 309 177T454 121ZM402 1216L226 1560H379L514 1216H402Z" />
<glyph unicode="&#xf3;" horiz-adv-x="907" d="M454 -24Q352 -24 275 20T154 143T110 329V758Q110 862 154 941T275 1065T454 1110Q607 1110 701 1013T795 758V329Q795 171 701 74T454 -24ZM454 121Q545 121 597 177T650 324V763Q650 854 598 909T454 965Q363
965 309 910T255 763V324Q255 233 309 177T454 121ZM396 1216L531 1560H684L508 1216H396Z" />
<glyph unicode="&#xf4;" horiz-adv-x="907" d="M454 -24Q352 -24 275 20T154 143T110 329V758Q110 862 154 941T275 1065T454 1110Q607 1110 701 1013T795 758V329Q795 171 701 74T454 -24ZM454 121Q545 121 597 177T650 324V763Q650 854 598 909T454 965Q363
965 309 910T255 763V324Q255 233 309 177T454 121ZM171 1270L393 1560H513L736 1270H590L454 1459L317 1270H171Z" />
<glyph unicode="&#xf5;" horiz-adv-x="907" d="M454 -24Q352 -24 275 20T154 143T110 329V758Q110 862 154 941T275 1065T454 1110Q607 1110 701 1013T795 758V329Q795 171 701 74T454 -24ZM454 121Q545 121 597 177T650 324V763Q650 854 598 909T454 965Q363
965 309 910T255 763V324Q255 233 309 177T454 121ZM572 1516Q532 1516 503 1531T450 1562Q422 1583 400 1599T357 1616Q337 1616 327 1600T316 1560V1526H199V1567Q199 1643 236 1679T329 1716Q370 1716 403 1700T458 1666Q483 1647 503 1631T545 1615Q568 1615
577 1634T587 1674V1714H703V1664Q703 1588 666 1552T572 1516Z" />
<glyph unicode="&#xf6;" horiz-adv-x="907" d="M454 -24Q352 -24 275 20T154 143T110 329V758Q110 862 154 941T275 1065T454 1110Q607 1110 701 1013T795 758V329Q795 171 701 74T454 -24ZM454 121Q545 121 597 177T650 324V763Q650 854 598 909T454 965Q363
965 309 910T255 763V324Q255 233 309 177T454 121ZM256 1332V1560H386V1332H256ZM532 1332V1560H660V1332H532Z" />
<glyph unicode="&#xf7;" horiz-adv-x="1069" d="M110 469V619H960V469H110ZM461 140V387H611V140H461ZM461 702V950H611V702H461Z" />
<glyph unicode="&#xf8;" horiz-adv-x="907" d="M187 -41H79L719 1125H826L187 -41ZM454 -24Q352 -24 275 20T154 143T110 329V758Q110 863 154 942T275 1065T454 1110Q607 1110 701 1013T795 758V329Q795 171 701 74T454 -24ZM454 121Q545 121 597 177T650 324V763Q650
854 598 909T454 965Q363 965 309 910T255 763V324Q255 233 309 177T454 121Z" />
<glyph unicode="&#xf9;" horiz-adv-x="941" d="M431 -24Q345 -24 277 15T169 131T129 323V1085H274V323Q274 232 326 177T463 121Q550 121 602 176T654 323V1085H799V0H654V144L679 113Q642 48 579 12T431 -24ZM410 1216L234 1560H387L522 1216H410Z" />
<glyph unicode="&#xfa;" horiz-adv-x="941" d="M431 -24Q345 -24 277 15T169 131T129 323V1085H274V323Q274 232 326 177T463 121Q550 121 602 176T654 323V1085H799V0H654V144L679 113Q642 48 579 12T431 -24ZM405 1216L540 1560H693L517 1216H405Z" />
<glyph unicode="&#xfb;" horiz-adv-x="941" d="M431 -24Q345 -24 277 15T169 131T129 323V1085H274V323Q274 232 326 177T463 121Q550 121 602 176T654 323V1085H799V0H654V144L679 113Q642 48 579 12T431 -24ZM180 1270L402 1560H522L745 1270H599L463 1459L326
1270H180Z" />
<glyph unicode="&#xfc;" horiz-adv-x="941" d="M431 -24Q345 -24 277 15T169 131T129 323V1085H274V323Q274 232 326 177T463 121Q550 121 602 176T654 323V1085H799V0H654V144L679 113Q642 48 579 12T431 -24ZM264 1332V1560H394V1332H264ZM540 1332V1560H668V1332H540Z" />
<glyph unicode="&#xfd;" horiz-adv-x="835" d="M240 -360L338 -22L22 1085H180L437 169H402L655 1085H815L396 -360H240ZM361 1216L496 1560H649L473 1216H361Z" />
<glyph unicode="&#xfe;" horiz-adv-x="937" d="M142 -360V1500H287V944L263 977Q299 1039 360 1074T508 1110Q597 1110 668 1070T782 953T824 763V324Q824 211 782 133T669 16T508 -24Q422 -24 361 11T263 109L287 141V-360H142ZM481 121Q574 121 626 177T679
324V763Q679 854 627 909T482 965Q389 965 338 910T287 763V323Q287 232 338 177T481 121Z" />
<glyph unicode="&#xff;" horiz-adv-x="835" d="M240 -360L338 -22L22 1085H180L437 169H402L655 1085H815L396 -360H240ZM220 1332V1560H350V1332H220ZM496 1332V1560H624V1332H496Z" />
<glyph unicode="&#x2013;" horiz-adv-x="1054" d="M142 469V619H912V469H142Z" />
<glyph unicode="&#x2014;" horiz-adv-x="1254" d="M142 469V619H1112V469H142Z" />
<glyph unicode="&#x2018;" horiz-adv-x="467" d="M160 1060V1333L209 1500H296L247 1333H310V1060H160Z" />
<glyph unicode="&#x2019;" horiz-adv-x="467" d="M171 1060L220 1227H157V1500H307V1227L258 1060H171Z" />
<glyph unicode="&#x201a;" horiz-adv-x="467" d="M171 -167L220 0H157V273H307V0L258 -167H171Z" />
<glyph unicode="&#x201c;" horiz-adv-x="737" d="M430 1060V1333L479 1500H566L517 1333H580V1060H430ZM160 1060V1333L209 1500H296L247 1333H310V1060H160Z" />
<glyph unicode="&#x201d;" horiz-adv-x="737" d="M171 1060L220 1227H157V1500H307V1227L258 1060H171ZM441 1060L490 1227H427V1500H577V1227L528 1060H441Z" />
<glyph unicode="&#x201e;" horiz-adv-x="737" d="M171 -167L220 0H157V273H307V0L258 -167H171ZM441 -167L490 0H427V273H577V0L528 -167H441Z" />
<glyph unicode="&#x2022;" horiz-adv-x="718" d="M360 342Q304 342 259 369T186 442T159 543Q159 598 186 643T259 716T360 743Q415 743 460 716T531 642T558 543Q558 488 532 443T460 370T360 342Z" />
<glyph unicode="&#x2039;" horiz-adv-x="578" d="M483 0L50 442V527L483 968V792L191 484L483 177V0Z" />
<glyph unicode="&#x203a;" horiz-adv-x="578" d="M95 0V177L387 484L95 792V968L528 527V442L95 0Z" />
</font>
</defs>
</svg>
