<?xml version="1.0" standalone="no"?>
<!DOCTYPE svg PUBLIC "-//W3C//DTD SVG 1.1//EN" "http://www.w3.org/Graphics/SVG/1.1/DTD/svg11.dtd">
<svg xmlns="http://www.w3.org/2000/svg">
<defs >
<font id="Moul" horiz-adv-x="1629" ><font-face
    font-family="Moul"
    units-per-em="2048"
    panose-1="0 0 0 0 0 0 0 0 0 0"
    ascent="2500"
    descent="-1200"
    alphabetic="0" />
<glyph unicode=" " glyph-name="space" horiz-adv-x="532" />
<glyph unicode="!" glyph-name="exclam" horiz-adv-x="679" d="M631 1331L547 557L127 555L43 1331V1630H631V1331ZM336 -33Q213 -33 135 33Q57 101 57 213Q57 328 135 395Q215 463 334 463H336Q456 463 541 395Q623 328 623 213Q623 101 543 33Q461 -33 336 -33Z" />
<glyph unicode="&quot;" glyph-name="quotedbl" horiz-adv-x="1148" d="M519 1624L421 944H120L40 1624H519ZM1107 1624L1007 944H708L628 1624H1107Z" />
<glyph unicode="#" glyph-name="numbersign" horiz-adv-x="1353" d="M483 287L417 0H104L167 287H32L93 586H235L315 946H177L241 1245H382L466 1622H790L702 1245H859L943 1622H1269L1181 1245H1322L1259 946H1113L1029 586H1175L1111 287H962L896 0H583L646
287H483ZM794 946H634L552 586H714L794 946Z" />
<glyph unicode="$" glyph-name="dollar" horiz-adv-x="1294" d="M780 -168H549V47Q410 75 297 129L254 66H57V545L299 547Q303 492 342 434Q381 376 437 338T543 299V588Q374 634 266 689Q160 743 105 830T49 1053Q49 1193 112 1293T289 1449T553 1511V1704H778V1493Q852
1479 923 1434L967 1477H1149V1038H919Q905 1104 864 1164T780 1235V989Q1012 928 1134 817T1257 508Q1257 381 1193 275Q1129 169 1019 104T780 35V-168ZM547 1059V1270H541Q500 1270 467 1246Q432 1219 432 1182V1180Q432 1135 465 1102T547 1059ZM770 307Q809
307 840 338T872 414Q872 457 846 489T770 528V307Z" />
<glyph unicode="%" glyph-name="percent" horiz-adv-x="2693" d="M524 539Q373 539 263 609Q151 678 92 807T32 1110Q32 1277 93 1399Q153 1522 264 1587T526 1653Q676 1653 791 1588Q904 1522 964 1399T1025 1110Q1025 935 964 807Q903 678 790 609T524 539ZM1758
1622L1416 0H913L1255 1622H1758ZM526 889Q577 889 601 941Q624 995 624 1110Q624 1216 601 1265Q577 1313 526 1313Q476 1311 453 1263T429 1110Q429 995 453 942Q476 889 526 889ZM2148 -31Q1997 -31 1887 39Q1775 109 1716 238T1656 541Q1656 706 1717 828Q1777
950 1888 1015T2150 1081Q2300 1081 2415 1016Q2529 950 2589 828T2649 541Q2649 366 2588 238Q2527 109 2414 39T2148 -31ZM2150 319Q2201 319 2225 372Q2248 426 2248 541Q2248 644 2225 693Q2201 741 2154 741Q2104 741 2078 694Q2053 648 2053 541Q2053 425
2077 372Q2100 319 2150 319Z" />
<glyph unicode="&amp;" glyph-name="ampersand" horiz-adv-x="1722" d="M1560 786Q1518 755 1457 694L1287 518Q1291 516 1328 479T1435 369H1664V0H1125V-2Q1094 29 1051 74T951 180Q767 -25 491 -31Q296 -26 169 78Q44 185 38 375Q43 530 120 633Q199 738 353
805Q240 929 235 1108Q235 1204 274 1280Q309 1358 378 1409Q450 1462 532 1487Q625 1513 716 1513Q792 1513 867 1491Q939 1469 1005 1425Q1066 1382 1103 1315Q1142 1243 1142 1167Q1142 1126 1134 1065Q1125 1022 1103 985Q1087 955 1054 920Q1043 907 1023
888T974 844L1152 670L1179 692Q1212 725 1232 750Q1259 779 1259 797Q1259 831 1232 831H1185V1126H1668V838Q1590 811 1560 786ZM863 1079Q886 1108 886 1149Q886 1195 857 1235Q833 1270 779 1270Q742 1270 714 1239Q687 1211 687 1171Q687 1141 706 1110Q729
1074 743 1063Q761 1043 794 1020Q846 1059 863 1079ZM650 330Q712 330 765 371L556 584L550 580L536 565L517 545Q513 538 510 531T503 516Q497 503 497 483V481Q497 416 540 373Q583 330 650 330Z" />
<glyph unicode="&apos;" glyph-name="quotesingle" horiz-adv-x="561" d="M519 1624L421 944H120L40 1624H519Z" />
<glyph unicode="(" glyph-name="parenleft" horiz-adv-x="915" d="M874 -20Q706 -20 559 25Q420 70 317 147Q221 225 149 334Q83 438 49 561Q18 681 18 815Q18 1023 67 1176Q112 1327 217 1438Q315 1542 483 1599Q653 1653 878 1653V1321L876 1319Q803 1319 739
1296Q675 1273 641 1237Q601 1192 579 1153Q553 1109 540 1049Q533 1014 529 986T524 936Q520 903 520 817Q520 734 528 672Q536 617 561 537Q585 465 624 420Q663 369 725 342Q788 311 874 311V-20Z" />
<glyph unicode=")" glyph-name="parenright" horiz-adv-x="915" d="M847 1176Q896 1023 896 815Q896 678 863 559Q834 440 765 332Q699 231 597 147Q494 70 355 25Q204 -20 40 -20V311Q125 311 188 342Q253 371 290 420Q332 475 351 537Q378 612 384 672Q394 745
394 817Q394 842 393 871T390 936Q385 976 381 1004T374 1049Q364 1103 335 1153Q308 1203 272 1237Q233 1279 173 1298Q110 1321 38 1321V1653Q266 1653 429 1597Q593 1546 698 1436Q797 1331 847 1176Z" />
<glyph unicode="*" glyph-name="asterisk" horiz-adv-x="1243" d="M618 242Q554 242 505 291Q458 336 458 422Q458 469 469 516Q477 566 487 606L516 711L544 801L487 731L415 645L354 584Q325 555 280 522Q221 487 172 487Q163 487 141 492Q77 504 43 559Q16
603 16 645Q16 684 36 719Q58 761 104 795Q149 824 221 852Q262 869 303 882T385 905L510 944Q503 946 494 949T470 958Q456 963 435 969T385 983Q341 997 301 1010T223 1036Q186 1052 157 1066T108 1094Q62 1126 39 1169Q20 1206 20 1243Q20 1290 45 1327L36 1321Q68
1375 133 1389Q150 1393 163 1393Q215 1393 274 1358Q310 1332 346 1296Q390 1257 409 1233L481 1149Q504 1121 518 1103T540 1077L514 1165L483 1272Q473 1306 465 1360Q454 1424 454 1454Q454 1540 503 1585Q551 1634 616 1634Q680 1634 729 1585Q776 1540 776
1454Q776 1444 775 1427T772 1384L757 1305L737 1231L714 1151L692 1079L753 1151Q775 1178 823 1233Q847 1262 888 1298Q924 1334 960 1360Q1021 1395 1069 1395Q1082 1395 1099 1391Q1166 1377 1198 1323Q1224 1279 1224 1237Q1224 1198 1204 1163Q1182 1121
1136 1087Q1092 1059 1020 1030Q971 1013 930 1000T856 977Q810 964 733 938Q744 934 775 925T858 899Q890 890 931 877T1022 846Q1098 814 1138 786Q1186 755 1206 713Q1226 673 1226 639Q1226 594 1200 553Q1166 499 1101 483Q1091 481 1073 481Q1021 481 962
516Q930 536 888 575Q860 602 825 641Q776 694 753 725L692 797L721 709L751 602Q755 586 760 565T770 516Q780 457 780 422Q780 337 731 291Q686 242 618 242Z" />
<glyph unicode="+" glyph-name="plus" horiz-adv-x="864" d="M562 516V238H306V516H36V762H306V1051H562V762H827V516H562Z" />
<glyph unicode="," glyph-name="comma" horiz-adv-x="595" d="M36 -449V-223Q81 -223 114 -217Q148 -211 167 -197Q188 -181 200 -166Q212 -146 218 -119Q224 -87 224 -66Q225 -58 225 -42T226 0H38V365H548Q571 199 571 88Q571 -190 442 -319Q311 -449 36 -449Z" />
<glyph unicode="-" glyph-name="hyphen" horiz-adv-x="759" d="M722 836V537H36V836H722Z" />
<glyph unicode="." glyph-name="period" horiz-adv-x="616" d="M302 -29Q186 -29 104 41Q26 106 26 223Q26 338 104 401Q183 469 302 469Q431 469 511 401Q591 333 591 223Q591 111 509 41Q426 -27 305 -27L302 -29Z" />
<glyph unicode="/" glyph-name="slash" horiz-adv-x="876" d="M860 1622L518 0H16L356 1622H860Z" />
<glyph unicode="0" glyph-name="zero" horiz-adv-x="1382" d="M692 -27Q399 -27 235 163T71 694Q71 1016 234 1195T689 1374Q982 1374 1145 1195T1308 694Q1308 468 1235 307Q1162 145 1023 59T692 -27ZM819 666Q819 790 808 864Q796 935 769 965T692 995Q640
995 611 965Q577 931 567 852T556 668Q556 542 569 477Q581 408 609 378T687 348Q739 348 767 378Q798 412 808 489T819 666Z" />
<glyph unicode="1" glyph-name="one" horiz-adv-x="903" d="M833 324V0H143V326L233 324V950H69V1208L731 1374L737 324H833Z" />
<glyph unicode="2" glyph-name="two" horiz-adv-x="1329" d="M1257 0H114V303Q302 375 436 485Q516 554 565 610T636 724T659 856Q659 928 618 978T520 1028Q456 1028 421 988T386 887Q386 852 404 816T448 756L223 582Q153 643 111 745Q73 838 73 927V951Q73
1073 142 1167Q212 1264 340 1319T632 1374Q789 1374 910 1317Q1032 1260 1100 1157T1169 922Q1169 799 1098 689Q1027 578 940 502T741 344L702 317H864Q962 319 1020 348T1079 465H1251L1257 0Z" />
<glyph unicode="3" glyph-name="three" horiz-adv-x="1296" d="M573 -18Q410 -18 297 0T98 78V424Q280 279 469 279Q557 279 623 314T690 426Q690 514 618 553T444 592Q410 592 369 583Q330 573 317 571H297V739L639 1030V1040H418Q370 1040 344 1025Q319 1010
307 982T281 897L86 899V1352H1155V1087L872 852Q970 845 1049 789Q1129 734 1176 650T1223 473Q1223 309 1141 200T912 37T573 -18Z" />
<glyph unicode="4" glyph-name="four" horiz-adv-x="1339" d="M1175 289V0H471V289H597V420H65V688L616 1341H1054V676L1282 678V420H1054V289H1175ZM597 911L409 678H597V911Z" />
<glyph unicode="5" glyph-name="five" horiz-adv-x="1157" d="M459 -20Q392 -20 319 -10T186 22T92 74L94 76V346Q210 281 315 281Q399 281 466 323T534 444Q534 524 469 570T311 616Q202 616 104 553L92 563V1358H1007V1061H397V922Q492 938 608 938Q737 938
846 884Q954 829 1018 732T1083 512Q1083 345 1006 223Q928 102 787 41T459 -20Z" />
<glyph unicode="6" glyph-name="six" horiz-adv-x="1384" d="M696 -18Q533 -18 389 47Q245 112 157 236T69 535Q69 670 138 799Q184 885 240 960T382 1126T597 1346H1140Q1025 1231 951 1151T843 1024Q1004 1017 1110 949Q1217 882 1266 775T1316 543Q1316 401
1241 272Q1165 143 1024 63T696 -18ZM694 330Q802 330 802 547Q802 776 694 776Q581 776 581 551Q581 330 694 330Z" />
<glyph unicode="7" glyph-name="seven" horiz-adv-x="1282" d="M687 0H155L661 1020H419Q343 1020 316 987T288 877L71 879V1337H1214V1067L687 0Z" />
<glyph unicode="8" glyph-name="eight" horiz-adv-x="1345" d="M675 -18Q497 -18 362 25T151 155T75 375L73 373Q73 629 333 727Q245 760 198 834T151 1008Q151 1186 295 1280T677 1374Q827 1374 944 1333T1128 1211T1195 1010Q1195 911 1148 837T1013 729Q1273
631 1273 375Q1273 240 1196 153T984 24T675 -18ZM679 823Q720 823 738 858T757 975Q757 1053 738 1086T677 1120Q634 1120 616 1087T597 975Q597 893 615 858T679 823ZM673 238Q715 238 734 277Q753 314 753 403Q753 496 735 536Q716 575 675 575Q630 575 612
536Q593 497 593 403Q593 313 612 276Q630 238 673 238Z" />
<glyph unicode="9" glyph-name="nine" horiz-adv-x="1374" d="M780 -2L241 0Q362 120 438 200T546 322Q409 322 299 381Q188 440 125 544T61 780Q61 953 145 1086Q229 1220 374 1293T702 1366Q860 1366 1001 1301Q1140 1235 1226 1109T1312 811Q1312 689 1249
564Q1207 482 1145 399T993 219T780 -2ZM686 571Q743 571 767 623Q790 675 790 791Q790 905 767 959Q743 1010 686 1010Q630 1010 607 959Q583 907 583 791Q583 674 607 623Q629 571 686 571Z" />
<glyph unicode=":" glyph-name="colon" horiz-adv-x="628" d="M309 596Q192 596 112 664Q32 732 32 846Q32 958 110 1024Q190 1092 311 1092Q437 1092 517 1024Q597 961 597 846Q597 731 515 664Q432 596 311 596H309ZM306 -20Q189 -20 110 47Q30 115 30 231Q30
344 108 410Q187 475 309 475Q438 475 515 410Q595 345 595 231Q595 114 513 47Q433 -18 309 -18L306 -20Z" />
<glyph unicode=";" glyph-name="semicolon" horiz-adv-x="626" d="M308 592Q191 592 112 659Q32 727 32 844Q32 956 110 1022Q189 1087 311 1087Q440 1087 517 1022Q597 957 597 844Q597 726 515 659Q435 594 311 594L308 592ZM44 -451L42 -449V-223Q88 -223 122
-217Q156 -211 175 -197Q196 -181 208 -166Q220 -147 227 -119Q233 -87 233 -68Q234 -60 234 -44T235 -2H44V362H554Q579 212 579 86Q579 -193 450 -322Q320 -451 44 -451Z" />
<glyph unicode="&lt;" glyph-name="less" horiz-adv-x="786" d="M417 762L751 444V-20L36 575V946L751 1542V1077L417 762Z" />
<glyph unicode="=" glyph-name="equal" horiz-adv-x="718" d="M681 922V698H36V922H681ZM681 553V330H36V553H681Z" />
<glyph unicode="&gt;" glyph-name="greater" horiz-adv-x="786" d="M751 946V575L36 -20V444L368 762L36 1077V1542L751 946Z" />
<glyph unicode="?" glyph-name="question" horiz-adv-x="1259" d="M673 539H327V893Q724 1071 724 1249Q724 1267 720 1284Q719 1303 708 1327Q701 1349 679 1366Q659 1380 628 1380Q509 1380 497 1219H26Q38 1442 208 1591Q378 1737 634 1737Q800 1737 941 1677Q1082
1615 1156 1511Q1236 1404 1236 1274Q1236 1205 1216 1145Q1196 1080 1167 1036Q1139 990 1089 946Q1070 930 1048 911T997 872Q933 834 890 813Q823 779 782 766Q752 753 725 743T673 725V539ZM505 -27Q387 -27 307 43Q227 109 227 225Q227 339 305 403Q382 469
505 469Q634 469 712 403Q792 340 792 225Q792 106 710 43Q627 -25 507 -25L505 -27Z" />
<glyph unicode="@" glyph-name="at" horiz-adv-x="1816" d="M984 -201Q765 -201 577 -141Q393 -79 276 25Q157 132 93 266Q30 401 30 563Q30 733 89 874Q149 1016 263 1130Q383 1244 550 1305Q720 1368 933 1368Q1126 1368 1294 1315Q1458 1260 1564 1165Q1671
1070 1730 944Q1789 814 1789 674Q1789 565 1756 485Q1725 400 1656 336Q1588 269 1476 238Q1369 203 1212 203H1062L1023 293Q992 244 929 215Q866 188 812 188Q696 188 610 299Q526 412 526 588Q526 666 550 729Q573 792 622 850Q668 902 755 934Q836 965 950
965Q967 965 980 965T1001 963Q1009 963 1066 954Q1093 949 1112 944T1144 934Q1186 913 1216 893Q1260 861 1279 829Q1305 799 1322 735Q1341 679 1341 602L1343 397L1347 395Q1367 395 1390 399Q1400 403 1411 408T1433 422Q1455 438 1470 467Q1486 495 1494
549Q1505 595 1505 676Q1505 877 1361 995Q1215 1114 935 1114Q652 1114 497 967Q343 817 343 565Q343 458 384 358Q429 255 505 190Q579 121 706 76Q824 35 984 35Q1073 35 1148 55L1199 -172Q1083 -201 984 -201ZM943 371Q998 371 1027 406V668Q1027 749 1011
780Q993 813 952 813Q927 813 909 795Q892 768 886 739Q878 701 874 666Q873 653 873 632T872 580L870 578Q870 494 890 426Q909 371 943 371Z" />
<glyph unicode="A" glyph-name="A" horiz-adv-x="1759" d="M734 352V0H32V352H190L464 1239H255V1591H1246L1601 352H1758V0H863V352H993L950 522H589L544 352H734ZM902 764L786 1251L640 764H902Z" />
<glyph unicode="B" glyph-name="B" horiz-adv-x="1683" d="M960 0H63V352H256V1239H90V1593H903Q1101 1593 1241 1561Q1378 1528 1459 1436T1540 1174Q1540 1055 1471 967T1296 840Q1435 780 1501 685T1568 424Q1568 221 1410 111T960 0ZM768 1239V950H823Q937
950 991 982T1046 1102Q1046 1163 1008 1201T909 1239H768ZM768 688V352H804Q925 352 990 386T1056 526Q1056 690 856 690Q834 690 812 690T768 688Z" />
<glyph unicode="C" glyph-name="C" horiz-adv-x="1546" d="M870 -29Q648 -29 466 65Q282 158 173 345T63 805Q63 1033 146 1220Q229 1405 389 1513T778 1622Q894 1622 986 1568T1120 1430L1161 1591H1472V938H1153V971Q1153 1098 1095 1179T921 1260Q844 1260
779 1201Q715 1141 678 1045T641 846Q641 645 741 532T1015 418Q1138 418 1243 459T1417 547L1439 528V102Q1312 29 1171 0T870 -29Z" />
<glyph unicode="D" glyph-name="D" horiz-adv-x="1804" d="M798 0H63V352H223V1239H63V1591H800Q1234 1591 1464 1391T1695 797Q1695 414 1466 207T798 0ZM735 1239V352H798Q910 352 981 409T1086 568T1120 797Q1120 993 1044 1116T798 1239H735Z" />
<glyph unicode="E" glyph-name="E" horiz-adv-x="1449" d="M1439 678V0H96V352H289V1239H96V1591H1439V958H1183L1087 1239H801V979H1057V717H801V352H1087L1183 678H1439Z" />
<glyph unicode="F" glyph-name="F" horiz-adv-x="1433" d="M991 352V0H96V352H289V1239H96V1591H1409V948H1120L1057 1239H801V938H1024V682H801V352H991Z" />
<glyph unicode="G" glyph-name="G" horiz-adv-x="1722" d="M952 -29Q707 -29 507 62Q305 152 184 342T63 821Q63 1051 158 1233Q253 1415 434 1518T862 1622Q966 1622 1064 1587T1220 1485L1253 1591H1599V1004H1290Q1259 1130 1171 1195T987 1260Q827 1260 734
1143T641 821Q641 614 733 497T993 379Q1033 379 1079 387Q1113 393 1143 403T1183 416V557H991V854H1632V139Q1478 57 1302 14T952 -29Z" />
<glyph unicode="H" glyph-name="H" horiz-adv-x="1873" d="M872 352V0H73V352H233V1239H73V1591L872 1593V1239H745V977H1128V1239H1001V1593L1799 1591V1239H1640V352H1799V0H1001V352H1128V635H745V352H872Z" />
<glyph unicode="I" glyph-name="I" horiz-adv-x="1028" d="M960 352V0H129V352H289V1239H129V1591H960V1239H801V352H960Z" />
<glyph unicode="J" glyph-name="J" horiz-adv-x="1368" d="M655 -31Q561 -31 488 5T368 98L331 -12H63V633H352Q352 487 378 420T487 352Q557 352 599 417T641 571V1239H448V1593H1312V1239H1153V475Q1153 321 1093 208T921 32T655 -31Z" />
<glyph unicode="K" glyph-name="K" horiz-adv-x="1814" d="M960 0H129V352H289V1239H129V1591H928V1239H801V877L1065 1239V1591H1688V1239H1550L1233 854V840Q1395 840 1487 785T1579 592V430Q1579 399 1596 376T1645 352H1759V0H1393Q1057 0 1057 307V481Q1057
532 1024 581T946 631H801V352H960V0Z" />
<glyph unicode="L" glyph-name="L" horiz-adv-x="1435" d="M1407 709V0H129V358H289V1239H129V1591H960V1239H801V358H1057L1153 709H1407Z" />
<glyph unicode="M" glyph-name="M" horiz-adv-x="2371" d="M735 352V0H63V352H256V1239H63V1591H921L1230 825L1536 1591H2336V1239H2144V352H2336V0H1503V352H1632V946L1280 0H991L575 969V352H735Z" />
<glyph unicode="N" glyph-name="N" horiz-adv-x="1851" d="M718 358V0H81V358H243V1241H85V1593H820L1318 647V1239H1158V1591H1795V1239H1637V0H1031L558 879V358H718Z" />
<glyph unicode="O" glyph-name="O" horiz-adv-x="1779" d="M864 -29Q615 -29 433 78Q252 185 158 372T63 799Q63 1048 157 1233Q251 1419 431 1520T864 1622Q1115 1622 1296 1521Q1476 1419 1570 1233T1665 799Q1665 559 1571 372Q1477 185 1296 78T864 -29ZM864
326Q972 326 1029 457T1087 807Q1087 1020 1032 1144T864 1268Q751 1268 696 1144T641 807Q641 588 698 457T864 326Z" />
<glyph unicode="P" glyph-name="P" horiz-adv-x="1681" d="M941 0H81V358H237V1239H85V1593H937Q1133 1593 1284 1551T1522 1408T1609 1133Q1609 827 1443 693T945 559Q860 559 796 569V358H941V0ZM798 1239V885H839Q1066 885 1066 1085Q1066 1159 1016 1199T882
1239H798Z" />
<glyph unicode="Q" glyph-name="Q" horiz-adv-x="1835" d="M888 -29Q651 -29 465 79Q278 186 173 374T67 799Q67 1043 168 1231Q269 1417 453 1519T888 1622Q1139 1622 1323 1520Q1508 1417 1607 1231T1707 799Q1707 553 1593 358L1597 360H1759V0H1122Q1004 -29
888 -29ZM888 317Q958 317 1007 383T1081 561T1107 807Q1107 934 1083 1036T1010 1199T888 1260Q815 1260 766 1200T692 1037T667 807Q667 673 693 562T768 384T888 317Z" />
<glyph unicode="R" glyph-name="R" horiz-adv-x="1779" d="M960 0H129V352H289V1239H129V1591H1151Q1399 1591 1515 1491T1632 1159Q1632 1004 1545 920T1298 807Q1442 784 1505 699T1569 487V358H1792V0H1470Q1367 0 1304 7T1205 43T1144 133Q1108 225 1108 440Q1108
563 1068 622T922 682H801V352H960V0ZM801 1239V909H938Q1047 909 1100 948T1153 1085Q1153 1157 1099 1198T958 1239H801Z" />
<glyph unicode="S" glyph-name="S" horiz-adv-x="1406" d="M825 -29Q743 -29 685 -17T578 22T472 92L437 0H114V487H435Q466 403 530 369T689 334Q747 334 788 357T829 420Q829 469 787 493T669 539Q572 565 494 594T353 654Q229 716 153 830T77 1133Q77 1278
140 1389Q202 1499 318 1560T593 1622Q786 1622 898 1499L949 1593H1236V1116H929Q886 1206 834 1241T691 1276Q622 1276 584 1252T546 1184Q546 1136 601 1111Q655 1085 755 1063Q930 1023 1057 962Q1181 901 1255 790T1330 502Q1330 353 1268 232Q1205 111 1090
41T825 -29Z" />
<glyph unicode="T" glyph-name="T" horiz-adv-x="1636" d="M1255 360V0H364V360H528V1239H387L344 965H63V1591H1560V965H1280L1237 1239H1091V360H1255Z" />
<glyph unicode="U" glyph-name="U" horiz-adv-x="1691" d="M871 -29Q515 -29 359 157T202 705V1239H40V1591H908V1239H761V569Q761 471 809 409T960 346Q1046 346 1096 397T1146 537V1239H982V1591H1635V1239H1482V551Q1482 360 1406 231T1192 36T871 -29Z" />
<glyph unicode="V" glyph-name="V" horiz-adv-x="1777" d="M1547 1239L1150 0H564L204 1239H38V1591H902V1239H788L988 516L1164 1239H1033V1591H1728V1239H1547Z" />
<glyph unicode="W" glyph-name="W" horiz-adv-x="2584" d="M1289 707L1087 0H550L202 1239H38V1593H929V1239H777L937 672L1197 1593H1607L1859 702L2014 1239H1875V1593H2535V1239H2367L2025 0H1482L1289 707Z" />
<glyph unicode="X" glyph-name="X" horiz-adv-x="2002" d="M898 358V0H77V358H235L669 842L298 1239H128V1593H1046V1239H964L1126 1044L1273 1239H1130V1593H1877V1239H1679L1347 809L1775 358H1926V0H999V358H1124L882 614L675 358H898Z" />
<glyph unicode="Y" glyph-name="Y" horiz-adv-x="1665" d="M1285 358V0H417V358H570V651L151 1239H38V1591H890V1239H800L982 973L1125 1239H980V1591H1617V1239H1437L1128 705V358H1285Z" />
<glyph unicode="Z" glyph-name="Z" horiz-adv-x="1587" d="M1503 694V0H94V350L772 1239H457L377 928H88V1591H1483V1264L807 358H1114L1223 694H1503Z" />
<glyph unicode="[" glyph-name="bracketleft" horiz-adv-x="786" d="M745 311V0H36V1622H749V1323H552V311H745Z" />
<glyph unicode="\" glyph-name="backslash" horiz-adv-x="946" d="M589 1622L931 0H358L16 1622H589Z" />
<glyph unicode="]" glyph-name="bracketright" horiz-adv-x="786" d="M749 1622V0H40V311H233V1323H36V1622H749Z" />
<glyph unicode="^" glyph-name="asciicircum" horiz-adv-x="1437" d="M716 1241L501 909H36L532 1624H900L1398 909H933L716 1241Z" />
<glyph unicode="_" glyph-name="underscore" horiz-adv-x="1327" d="M1261 0V-223H69V0H1261Z" />
<glyph unicode="`" glyph-name="grave" horiz-adv-x="755" d="M231 1788L706 1352L602 1210L47 1524L231 1788Z" />
<glyph unicode="a" glyph-name="a" horiz-adv-x="1396" d="M446 -18Q344 -18 261 22Q177 61 127 135T77 307Q77 413 136 487Q195 559 290 595T497 631Q628 631 749 592V637Q749 717 682 759T499 801Q450 801 389 789T270 756T169 709L140 721V1012Q261 1055 387
1073T622 1092Q1230 1092 1230 750V301H1324V0H812L767 164Q724 80 633 31T446 -18ZM634 238Q667 238 701 249T749 272V440Q734 442 701 452Q667 461 642 461Q589 461 558 428T526 340Q526 299 555 269T634 238Z" />
<glyph unicode="b" glyph-name="b" horiz-adv-x="1499" d="M960 -18Q868 -18 794 20T667 115L629 0H180V1223H51V1495L659 1561V965Q737 1028 821 1060T981 1092Q1123 1092 1226 1018Q1327 944 1377 818T1427 539Q1427 378 1375 253Q1323 127 1218 55T960 -18ZM815
274Q887 274 934 345T981 510Q981 627 940 713T815 799Q768 799 723 779T659 733V324Q682 305 727 290T815 274Z" />
<glyph unicode="c" glyph-name="c" horiz-adv-x="1249" d="M671 -18Q488 -18 352 52Q215 121 139 248T63 547Q63 702 127 826Q190 950 307 1021T581 1092Q640 1092 706 1078T824 1035T894 965L935 1071H1153V629H864Q856 709 817 754T720 799Q634 799 589 745T544
545Q544 445 580 388T675 306T800 281Q872 281 956 306T1105 387L1120 377V98Q1120 94 1059 64Q998 33 897 8T671 -18Z" />
<glyph unicode="d" glyph-name="d" horiz-adv-x="1513" d="M536 -18Q391 -18 285 59Q180 136 126 265T71 551Q71 692 127 818Q183 942 285 1017T528 1092Q630 1092 703 1059T839 961V1223H679V1495L1320 1561V301H1447V0H831V129Q782 63 706 24T536 -18ZM696 274Q743
274 781 296T839 350V729Q816 756 778 777T696 799Q618 799 569 736T520 551Q520 428 565 351T696 274Z" />
<glyph unicode="e" glyph-name="e" horiz-adv-x="1275" d="M671 -18Q485 -18 348 51Q210 119 137 246T63 543Q63 711 135 835Q206 958 336 1025T641 1092Q802 1092 925 1029Q1048 965 1115 848T1183 575Q1183 521 1167 473H544Q544 379 615 323T786 266Q862 266
953 292T1136 375L1153 369V100Q1050 41 942 12T671 -18ZM544 678V649H800V670Q800 741 768 792T671 844Q618 844 581 792T544 678Z" />
<glyph unicode="f" glyph-name="f" horiz-adv-x="1003" d="M912 0H81V301H241V778H81V1071H241V1167Q241 1571 597 1571Q675 1571 765 1557T912 1524V1229Q837 1241 808 1241Q720 1241 720 1108V1071H912V778H720V301H912V0Z" />
<glyph unicode="g" glyph-name="g" horiz-adv-x="1490" d="M655 -389Q441 -389 204 -328V-39Q337 -80 424 -101T595 -123Q837 -123 837 117Q782 68 702 34T521 0Q376 0 276 73Q176 145 126 268T75 541Q75 695 126 819Q177 944 277 1018T521 1092Q718 1092 837
922L909 1071H1418V762H1322V135Q1322 -38 1240 -155T1007 -330T655 -389ZM710 274Q757 274 796 303T843 360V725Q805 799 702 799Q620 799 571 728T521 535Q521 418 570 346T710 274Z" />
<glyph unicode="h" glyph-name="h" horiz-adv-x="1552" d="M801 0H96V301H223V1223H96V1495L704 1561V915Q743 987 840 1039T1057 1092Q1231 1092 1320 990T1409 702V301H1536V0H927V653Q927 713 893 752T813 791Q762 791 733 756T704 662V301H801V0Z" />
<glyph unicode="i" glyph-name="i" horiz-adv-x="888" d="M455 1176Q330 1176 249 1235T168 1405Q168 1516 249 1573T457 1630Q584 1630 663 1574T743 1405Q743 1294 662 1235T455 1176ZM823 301V0H86V301H215V762H86V1008L694 1071V301H823Z" />
<glyph unicode="j" glyph-name="j" horiz-adv-x="800" d="M421 1176Q296 1176 214 1235T132 1405Q132 1516 213 1573T421 1630Q550 1630 629 1574T708 1405Q708 1292 627 1234T421 1176ZM69 -397V-92H100Q229 -92 229 0V762H69V1008L708 1071V82Q708 -114 638
-218Q568 -322 430 -359T69 -397Z" />
<glyph unicode="k" glyph-name="k" horiz-adv-x="1509" d="M1282 762L1110 618L1317 301H1474V0H997L704 438V0H49V301H225V1223H49V1495L704 1561V588L913 762H803V1071H1442V762H1282Z" />
<glyph unicode="l" glyph-name="l" horiz-adv-x="978" d="M901 301V0H92V301H268V1223H92V1495L747 1561V301H901Z" />
<glyph unicode="m" glyph-name="m" horiz-adv-x="2263" d="M2099 680V289H2238V0H1620V682Q1620 725 1592 758T1525 791Q1452 791 1433 718Q1413 643 1413 508V0H933V682Q933 725 906 758T839 791Q766 791 747 718Q727 643 727 508V289H729V0H104V289H249V762H104V1032L727
1092V942Q796 1024 884 1058T1083 1092Q1310 1092 1380 899Q1454 1004 1550 1048T1769 1092Q2099 1092 2099 680Z" />
<glyph unicode="n" glyph-name="n" horiz-adv-x="1579" d="M1413 680V289H1552V0H933V682Q933 725 906 758T839 791Q766 791 747 718Q727 643 727 508V289H729V0H104V289H249V762H104V1032L727 1092V942Q796 1024 884 1058T1083 1092Q1413 1092 1413 680Z" />
<glyph unicode="o" glyph-name="o" horiz-adv-x="1366" d="M681 -18Q499 -18 364 49Q227 115 151 243T75 547Q75 722 151 844Q227 967 364 1029T681 1092Q866 1092 1002 1028T1214 843T1289 547Q1289 371 1214 243Q1138 115 1001 49T681 -18ZM681 274Q747 274
779 339Q810 402 810 547Q810 680 780 739T681 799Q616 799 585 740T554 547Q554 405 586 339Q618 274 681 274Z" />
<glyph unicode="p" glyph-name="p" horiz-adv-x="1511" d="M800 -397H63V-94H192V762H63V1030L671 1092V922Q722 993 803 1042T993 1092Q1136 1092 1237 1018Q1338 944 1388 819T1439 541Q1439 389 1389 260Q1339 133 1238 58T991 -18Q890 -18 808 21T671 119V-96H800V-397ZM815
274Q905 274 948 346T991 535Q991 655 944 727T821 799Q770 799 729 774T671 707V360Q716 274 815 274Z" />
<glyph unicode="q" glyph-name="q" horiz-adv-x="1515" d="M1445 -397H728V-96H841V119Q707 -18 528 -18Q381 -18 280 58Q177 133 126 260T75 541Q75 693 127 818Q179 944 280 1018T526 1092Q634 1092 712 1044T841 922L913 1071H1421V762H1326V-94H1445V-397ZM712
295Q763 295 802 322T841 389V684Q831 727 795 752T708 778Q546 778 546 535Q546 428 585 362T712 295Z" />
<glyph unicode="r" glyph-name="r" horiz-adv-x="1071" d="M831 0H63V301H192V762H63V1032L671 1092V918Q703 968 765 1007T897 1069T1024 1092V668Q907 707 831 707Q735 707 703 652T671 506V301H831V0Z" />
<glyph unicode="s" glyph-name="s" horiz-adv-x="1185" d="M645 -18Q440 -18 282 90L249 0H63V395H286Q299 319 357 259T491 199Q520 199 541 215T563 268Q563 305 521 335Q478 366 393 406Q290 457 225 499Q159 541 111 609T63 774Q63 873 128 946Q193 1018 299
1055T530 1092Q693 1092 833 1006L858 1071H1024V752H831Q806 817 759 854T649 891Q575 891 575 844Q576 812 614 789Q652 767 737 729Q790 707 834 685T913 643Q983 602 1035 528T1087 342Q1087 224 1026 144Q965 63 864 23T645 -18Z" />
<glyph unicode="t" glyph-name="t" horiz-adv-x="954" d="M577 -18Q192 -18 192 383V778H32V1071H192V1300L671 1407V1071H863V778H671V418Q671 373 705 343T790 313Q827 313 863 319V41Q731 -18 577 -18Z" />
<glyph unicode="u" glyph-name="u" horiz-adv-x="1538" d="M514 -18Q192 -18 192 385V762H63V1032L671 1092V385Q671 346 700 314T768 281Q813 281 838 311T864 387V762H768V1032L1343 1092V301H1472V0H864V156Q811 74 723 28T514 -18Z" />
<glyph unicode="v" glyph-name="v" horiz-adv-x="1482" d="M1305 762L991 0H481L147 762H0V1071H768V762H657L831 258L1024 762H897V1071H1440V762H1305Z" />
<glyph unicode="w" glyph-name="w" horiz-adv-x="2060" d="M1030 430L878 0H434L196 762H63V1071H772V762H677L770 391L981 1071H1247L1464 379L1564 762H1445V1071H1996V762H1861L1634 0H1159L1030 430Z" />
<glyph unicode="x" glyph-name="x" horiz-adv-x="1329" d="M587 276L380 0H83V301H233L413 512L230 762H101V1071H597L759 821L943 1071H1218V762H1087L925 580L1117 301H1248V0H775L587 276Z" />
<glyph unicode="y" glyph-name="y" horiz-adv-x="1546" d="M1091 -61V-377H399V-61H602L657 31L190 762H63V1071H813V762H714L880 455L1032 762H923V1071H1482V762H1374L937 -61H1091Z" />
<glyph unicode="z" glyph-name="z" horiz-adv-x="1247" d="M1166 451V0H81V283L575 778H370L304 637H108V1071H1130V795L661 295H947L982 451H1166Z" />
<glyph unicode="{" glyph-name="braceleft" horiz-adv-x="858" d="M821 -18Q590 -18 435 75T215 338Q176 445 176 559Q176 641 136 680T12 723V963Q96 967 136 1004T176 1124Q176 1367 331 1530Q409 1610 537 1656T821 1702V1370Q659 1370 659 1124Q659 933 409
842Q659 751 659 559Q659 313 821 313V-18Z" />
<glyph unicode="|" glyph-name="bar" horiz-adv-x="466" d="M429 1622V0H36V1622H429Z" />
<glyph unicode="}" glyph-name="braceright" horiz-adv-x="858" d="M36 -16V315Q198 315 198 561Q198 753 448 844Q198 935 198 1126Q198 1372 36 1372V1704Q267 1704 421 1612T640 1348Q681 1242 681 1128Q681 972 845 965V725Q761 721 721 682T681 561Q681 319
525 158Q448 76 321 30T36 -16Z" />
<glyph unicode="~" glyph-name="asciitilde" horiz-adv-x="1269" d="M894 629L892 631Q829 631 771 656T628 733Q540 784 484 809T366 834Q335 834 294 793Q253 752 184 668L155 635L24 721Q40 748 60 786T90 842Q112 887 131 923T167 987Q200 1042 253 1081T378
1120Q452 1120 514 1094T669 1014Q745 969 798 946T907 922Q937 922 986 970Q1010 994 1042 1030T1116 1116L1245 1030Q1208 975 1161 877Q1139 834 1121 801T1088 743Q1058 694 1011 662T894 629Z" />
<glyph unicode="&#xa0;" glyph-name="uni00A0" horiz-adv-x="532" />
<glyph unicode="&#xab;" glyph-name="guillemotleft" horiz-adv-x="1314" d="M350 535L665 219L475 -4L49 399V670L475 1073L665 850L350 535ZM960 535L1276 219L1085 -4L659 399V670L1085 1073L1276 850L960 535Z" />
<glyph unicode="&#xbb;" glyph-name="guillemotright" horiz-adv-x="1310" d="M654 670V399L228 -4L38 219L351 535L38 850L228 1073L654 670ZM1265 670V399L839 -4L646 219L962 535L646 850L839 1073L1265 670Z" />
</font>
</defs>
</svg>
