<?xml version="1.0" standalone="no"?>
<!DOCTYPE svg PUBLIC "-//W3C//DTD SVG 1.1//EN" "http://www.w3.org/Graphics/SVG/1.1/DTD/svg11.dtd">
<svg xmlns="http://www.w3.org/2000/svg">
<defs >
<font id="BacasimeAntique" horiz-adv-x="988" ><font-face
    font-family="Bacasime Antique"
    units-per-em="2048"
    panose-1="2 2 6 2 8 5 5 2 3 3"
    ascent="1536"
    descent="-512"
    alphabetic="0" />
<glyph unicode=" " glyph-name="space" horiz-adv-x="512" />
<glyph unicode="!" glyph-name="exclam" horiz-adv-x="525" d="M277 386H247Q248 509 236 632T208 864T180 1054T167 1172Q167 1292 263 1292Q360 1292 360 1173Q360 1136 347 1055T318 865T289 633T277 386ZM263 -23Q223 -23 193 10T162 86Q162 130 192 163T263
196Q303 196 333 163T364 86Q364 43 334 10T263 -23Z" />
<glyph unicode="&quot;" glyph-name="quotedbl" horiz-adv-x="499" d="M133 714H110Q95 833 78 900T48 1011T35 1102Q35 1157 58 1187T122 1218Q163 1218 186 1189T210 1106Q210 1057 197 1013T167 901T133 714ZM388 714H365Q350 833 333 900T303 1011T290 1102Q290
1157 313 1187T377 1218Q418 1218 441 1189T465 1106Q465 1057 452 1013T422 901T388 714Z" />
<glyph unicode="#" glyph-name="numbersign" horiz-adv-x="1007" d="M354 -41L210 -81L254 145L72 94L78 125L260 176L359 688L178 638L184 670L365 721L415 979L558 1018L508 761L613 790L663 1047L806 1086L757 830L935 880L930 848L750 798L651 285L832 335L826
304L645 254L602 29L458 -13L502 214L397 185L354 -41ZM502 729L403 216L508 245L607 758L502 729Z" />
<glyph unicode="$" glyph-name="dollar" horiz-adv-x="1007" d="M521 -301H491V-23Q392 -19 336 7T249 33Q233 33 223 18T212 -19H180Q183 18 185 65T187 190T188 392H219Q221 220 293 116T480 11Q486 11 491 11V521Q477 529 462 537Q337 602 271 695T204 906Q204
1039 278 1115T479 1192Q485 1192 491 1192V1470H521V1190Q604 1181 647 1153T711 1125Q727 1125 737 1144T747 1188H780Q775 1138 774 1065T773 845H741Q740 977 678 1065T521 1159V685Q543 671 568 657Q712 575 769 492T827 291Q827 148 745 64T521 -23V-301ZM326
959Q326 820 491 705V1159Q410 1154 368 1098T326 959ZM689 244Q689 394 521 503V15Q591 31 640 93T689 244Z" />
<glyph unicode="%" glyph-name="percent" horiz-adv-x="1515" d="M513 459Q404 459 338 514T272 661Q272 756 342 815T523 874Q618 874 683 831Q725 811 778 799T875 786Q990 786 1054 874L1072 861L465 -23L448 -11L1021 826Q962 765 872 765Q792 765 713 806Q766
752 766 671Q766 577 696 518T513 459ZM522 480Q649 480 649 667Q649 756 615 804T515 852Q388 852 388 670Q388 480 522 480ZM993 -23Q885 -23 819 32T752 178Q752 274 822 332T1003 391Q1113 391 1178 336T1244 187Q1244 94 1175 36T993 -23ZM1003 -2Q1130 -2
1130 185Q1130 370 996 370Q869 370 869 188Q869 -2 1003 -2Z" />
<glyph unicode="&amp;" glyph-name="ampersand" horiz-adv-x="1379" d="M394 -23Q267 -23 173 30T26 179T-26 405Q-26 532 22 638T152 808T330 872Q401 872 442 837T483 742Q483 686 441 626T303 484Q424 558 521 639T676 795T734 927Q734 955 712 979T668 1032T646
1097Q646 1132 669 1154T727 1176Q769 1176 794 1142T820 1051Q820 953 743 837T530 608T218 402L206 431Q251 456 291 504T356 613T381 736Q381 843 321 843Q272 843 225 783T146 632T115 443Q115 329 159 242T280 106T458 57Q776 57 954 549Q918 557 876 562T781
567Q652 567 652 509Q652 493 672 467T712 409T732 344Q732 310 710 288T651 265Q615 265 594 296T573 381Q573 457 611 523T709 630T838 671Q890 671 938 650T1029 602T1109 554T1175 533Q1211 533 1226 565T1252 641T1279 716T1335 749Q1368 749 1386 725T1404
661Q1404 591 1345 547T1190 503Q1134 503 1087 516T982 542Q807 -23 394 -23Z" />
<glyph unicode="&apos;" glyph-name="quotesingle" horiz-adv-x="284" d="M153 714H130Q115 833 98 900T68 1011T55 1102Q55 1157 78 1187T142 1218Q183 1218 206 1189T230 1106Q230 1057 217 1013T187 901T153 714Z" />
<glyph unicode="(" glyph-name="parenleft" horiz-adv-x="601" d="M596 -296L581 -315Q172 -16 172 499Q172 757 277 957T581 1293L596 1275Q467 1103 387 919T306 502Q306 258 386 70T596 -296Z" />
<glyph unicode=")" glyph-name="parenright" horiz-adv-x="601" d="M37 -315L22 -296Q152 -119 232 69T312 502Q312 735 232 919T22 1275L37 1293Q236 1157 341 957T446 499Q446 -16 37 -315Z" />
<glyph unicode="*" glyph-name="asterisk" horiz-adv-x="1007" d="M201 679Q186 705 190 728T220 766Q260 789 328 801T489 856Q403 899 334 909T227 940Q199 956 194 979T202 1028Q233 1088 287 1056Q326 1033 370 980T498 869Q490 965 465 1031T440 1142Q440
1204 505 1204Q569 1204 569 1142Q569 1098 545 1033T512 867Q592 923 635 975T720 1053Q773 1084 805 1029Q820 1004 816 980T786 942Q746 919 679 908T520 854Q607 812 675 801T785 768Q811 755 817 730T809 680Q771 626 721 655Q682 678 638 731T511 844Q518
746 542 682T568 570Q570 540 552 524T504 507Q439 509 439 569Q439 615 463 678T497 843Q415 788 371 735T288 656Q236 623 201 679Z" />
<glyph unicode="+" glyph-name="plus" horiz-adv-x="1007" d="M522 173H485V569H91V603H485V1001H522V603H917V569H522V173Z" />
<glyph unicode="," glyph-name="comma" horiz-adv-x="488" d="M185 -231L174 -208Q234 -190 275 -139T316 -35Q316 11 285 11Q273 11 257 4T220 -4Q187 -4 162 23T136 93Q136 138 165 167T238 196Q290 196 321 151T352 26Q352 -79 303 -144T185 -231Z" />
<glyph unicode="-" glyph-name="hyphen" horiz-adv-x="514" d="M592 434H93V488H592V434Z" />
<glyph unicode="." glyph-name="period" horiz-adv-x="500" d="M250 -23Q210 -23 180 10T149 86Q149 130 179 163T250 196Q290 196 320 163T351 86Q351 43 321 10T250 -23Z" />
<glyph unicode="/" glyph-name="slash" horiz-adv-x="601" d="M89 -23H52L513 1192H550L89 -23Z" />
<glyph unicode="0" glyph-name="zero" horiz-adv-x="1007" d="M497 -23Q395 -23 316 32T193 186T148 412Q148 547 194 651T323 814T511 874Q615 874 693 819T816 666T860 440Q860 305 813 201T684 37T497 -23ZM504 7Q595 7 647 123T700 436Q700 624 647 733T503
843Q412 843 360 729T307 416Q307 226 359 117T504 7Z" />
<glyph unicode="1" glyph-name="one" horiz-adv-x="1007" d="M291 0V31Q366 31 403 57T441 159V593Q441 675 425 712T373 760T279 770V801Q390 803 462 822T590 885V159Q590 80 625 56T729 31V0Q699 2 639 4T518 7Q452 7 388 5T291 0Z" />
<glyph unicode="2" glyph-name="two" horiz-adv-x="1007" d="M793 -8Q782 -3 747 -2T683 0H216V29Q305 125 385 216T516 411T567 643Q567 741 534 784T444 827Q389 827 353 805T316 753Q316 734 332 716T365 675T382 623Q382 586 356 569T298 552Q261 552 238
575T215 645Q215 707 253 759T358 842T506 874Q607 874 666 821T726 666Q726 570 670 488T526 321T344 133V127H645Q751 127 758 229H786Q787 127 788 81T793 -8Z" />
<glyph unicode="3" glyph-name="three" horiz-adv-x="1007" d="M470 -248Q355 -248 278 -200T200 -81Q200 -41 223 -17T284 7Q355 7 355 -59Q355 -91 341 -117T326 -166Q326 -208 419 -208Q529 -208 588 -142T648 46Q648 224 515 306Q491 301 471 295T435 289Q402
289 402 316Q402 343 443 343Q455 343 473 340T514 334Q631 432 631 590Q631 699 582 761T449 823Q397 823 361 804T324 756Q324 737 340 718T373 678T390 629Q390 597 367 577T305 556Q267 556 244 579T221 645Q221 707 263 759T376 842T528 874Q647 874 719 807T791
629Q791 533 727 452T543 317Q660 300 734 223T808 41Q808 -87 714 -167T470 -248Z" />
<glyph unicode="4" glyph-name="four" horiz-adv-x="1007" d="M680 -233H543V56H172V89L651 868H680V186H836V56H680V-233ZM268 186H543V637L268 186Z" />
<glyph unicode="5" glyph-name="five" horiz-adv-x="1007" d="M288 309Q268 309 268 333Q268 365 310 389L362 849H593Q655 849 682 880T715 989H747Q747 883 748 820T752 713Q742 718 712 720T651 722H377L340 402Q392 431 433 440T520 450Q648 450 718 360T789
114Q789 10 747 -72T633 -201T472 -248Q366 -248 292 -186T218 -34Q218 12 240 38T303 65Q373 65 373 -2Q373 -37 355 -58T337 -120Q337 -210 437 -210Q526 -210 578 -123T630 112Q630 252 578 329T433 406Q406 406 382 398T336 379Q334 348 321 329T288 309Z"
/>
<glyph unicode="6" glyph-name="six" horiz-adv-x="1007" d="M511 -23Q360 -23 280 117T200 525Q200 727 244 877T369 1109T558 1192Q621 1192 675 1167T764 1100T798 1007Q798 969 777 946T717 922Q685 922 665 941T645 991Q645 1022 657 1046T670 1095Q670 1123
644 1141T579 1160Q472 1160 417 1010T359 567Q385 659 438 699T564 740Q675 740 741 640T808 373Q808 192 728 85T511 -23ZM507 695Q458 695 419 654T359 517Q361 274 402 141T515 7Q577 7 613 98T649 350Q649 511 611 603T507 695Z" />
<glyph unicode="7" glyph-name="seven" horiz-adv-x="1007" d="M474 -244Q436 -244 419 -216T401 -152Q401 -11 436 118T523 361T628 564T716 716V722H383Q322 722 294 691T261 581H229Q229 694 228 755T224 857Q235 853 271 851T341 849H783V818Q740 705 684
582T585 309T542 -30Q542 -70 545 -102T548 -160Q548 -197 529 -220T474 -244Z" />
<glyph unicode="8" glyph-name="eight" horiz-adv-x="1007" d="M493 -23Q364 -23 282 56T200 258Q200 362 261 453T434 610Q364 675 310 747T255 926Q255 1045 328 1118T516 1192Q624 1192 692 1127T761 961Q761 806 574 666Q630 616 683 565T772 448T807 294Q807
155 720 66T493 -23ZM385 996Q385 890 435 818T552 686Q591 737 611 802T632 930Q632 1031 592 1096T491 1161Q445 1161 415 1116T385 996ZM343 286Q343 165 393 86T517 7Q582 7 624 67T666 222Q666 308 635 373T556 490T454 591Q401 536 372 455T343 286Z" />
<glyph unicode="9" glyph-name="nine" horiz-adv-x="1007" d="M459 -248Q392 -248 336 -222T245 -152T210 -56Q210 -15 232 8T291 31Q323 31 342 13T362 -38Q362 -69 350 -93T338 -143Q338 -174 367 -195T440 -216Q649 -216 649 311Q649 324 649 336Q625 274 575
240T454 206Q339 206 270 294T200 526Q200 683 279 778T488 874Q642 874 725 737T808 347Q808 73 714 -87T459 -248ZM359 534Q359 254 505 254Q556 254 593 285T648 372Q643 595 600 719T486 843Q430 843 395 759T359 534Z" />
<glyph unicode=":" glyph-name="colon" horiz-adv-x="500" d="M250 655Q210 655 180 688T149 764Q149 808 179 841T250 874Q290 874 320 841T351 764Q351 721 321 688T250 655ZM250 -23Q210 -23 180 10T149 86Q149 130 179 163T250 196Q290 196 320 163T351 86Q351
43 321 10T250 -23Z" />
<glyph unicode=";" glyph-name="semicolon" horiz-adv-x="488" d="M247 655Q207 655 177 688T146 764Q146 808 176 841T247 874Q287 874 317 841T348 764Q348 721 318 688T247 655ZM185 -231L174 -208Q234 -190 275 -139T316 -35Q316 11 285 11Q273 11 257 4T220
-4Q187 -4 162 23T136 93Q136 138 165 167T238 196Q290 196 321 151T352 26Q352 -79 303 -144T185 -231Z" />
<glyph unicode="&lt;" glyph-name="less" horiz-adv-x="1007" d="M914 246L897 211L93 586L897 961L914 927L185 586L914 246Z" />
<glyph unicode="=" glyph-name="equal" horiz-adv-x="1007" d="M917 703H91V737H917V703ZM917 436H91V470H917V436Z" />
<glyph unicode="&gt;" glyph-name="greater" horiz-adv-x="1007" d="M110 211L93 246L822 586L93 927L110 961L914 586L110 211Z" />
<glyph unicode="?" glyph-name="question" horiz-adv-x="945" d="M431 386H400V650Q516 702 562 793T609 991Q609 1057 592 1118T534 1219T428 1259Q389 1259 350 1240T310 1187Q310 1167 322 1141T335 1080Q335 1011 266 1011Q230 1011 210 1034T190 1098Q190
1180 264 1236T443 1292Q588 1292 672 1211T756 1000Q756 867 670 776T431 635V386ZM415 -23Q375 -23 345 10T314 86Q314 130 344 163T415 196Q455 196 485 163T516 86Q516 43 486 10T415 -23Z" />
<glyph unicode="@" glyph-name="at" horiz-adv-x="1527" d="M607 43Q522 43 477 105T435 283Q438 375 471 465T557 628T673 745T798 789Q889 789 959 692Q1038 732 1095 796L1112 774Q1065 728 1041 642L901 135Q893 105 905 94T934 83Q994 83 1063 133T1193 271T1292
468T1331 699Q1331 872 1235 975T977 1078Q859 1078 746 1029T533 894T359 693T242 446T199 174Q199 -29 296 -134T580 -240Q785 -240 935 -129L946 -149Q801 -266 582 -266Q378 -266 273 -154T168 174Q168 317 212 453T334 707T515 914T736 1053T979 1103Q1154
1103 1257 994T1360 698Q1360 577 1320 461T1212 250T1058 99T880 43Q819 43 794 69T765 129Q739 89 699 66T607 43ZM584 282Q581 193 606 154T689 114Q736 114 764 152Q765 166 769 178L888 603Q885 674 862 717T786 760Q740 760 695 691T619 512T584 282Z" />
<glyph unicode="A" glyph-name="A" horiz-adv-x="1420" d="M8 0V31Q85 39 135 67T217 166L677 1188H727L1211 147Q1237 92 1283 64T1409 31V0Q1355 2 1292 3T1164 5Q1067 5 991 4T870 0V31Q1010 33 1042 64T1036 177L915 438H374L346 378Q265 205 300 117T470
31V0Q424 1 353 3T206 5Q164 5 126 4T8 0ZM389 469H902L651 1054L389 469Z" />
<glyph unicode="B" glyph-name="B" horiz-adv-x="1378" d="M96 0V31Q189 34 234 45T295 87T310 173V997Q310 1055 295 1084T235 1124T96 1139V1169Q139 1168 210 1168T378 1167Q442 1167 509 1167T631 1168T711 1169Q923 1169 1041 1100T1160 903Q1160 782 1072
718T784 615V613Q1280 598 1280 322Q1280 170 1140 85T751 0Q700 0 595 2T376 5Q277 5 206 4T96 0ZM655 1137L465 1136V622H653Q823 622 911 690T999 886Q999 1018 917 1077T655 1137ZM653 36Q1114 36 1114 329Q1114 592 724 592H465V166Q465 111 478 83T532 46T653
36Z" />
<glyph unicode="C" glyph-name="C" horiz-adv-x="1371" d="M704 -23Q524 -23 390 50T181 257T107 566Q107 753 184 893T399 1113T716 1192Q818 1192 898 1168T1036 1120T1129 1095Q1161 1095 1178 1117T1205 1188H1236Q1234 1146 1232 1094T1230 964T1229 765H1197Q1156
963 1031 1063T723 1164Q510 1164 391 1012T272 589Q272 315 392 160T723 5Q905 5 1031 102T1199 404H1231Q1231 291 1231 215T1233 84T1237 -19H1206Q1196 31 1179 51T1131 72Q1093 72 1035 48T895 1T704 -23Z" />
<glyph unicode="D" glyph-name="D" horiz-adv-x="1581" d="M95 0V31Q190 33 235 45T293 87T306 173V997Q306 1051 293 1081T235 1124T95 1139V1169Q147 1169 219 1168T389 1167Q478 1167 560 1168T693 1169Q1084 1169 1275 1026T1466 607Q1466 306 1260 153T684
0Q632 0 560 2T393 5Q292 5 207 3T95 0ZM650 30Q994 30 1147 166T1301 589Q1301 878 1146 1008T652 1139H461V169Q461 108 474 79T528 40T650 30Z" />
<glyph unicode="E" glyph-name="E" horiz-adv-x="1276" d="M86 0V31Q168 34 208 45T261 87T274 173V997Q274 1055 261 1084T208 1124T86 1139V1169Q179 1167 326 1166T670 1164Q746 1164 853 1164T1050 1169Q1045 1059 1077 867H1045Q1008 968 970 1026T880 1109T744
1134H428V604H591Q707 604 758 658T826 835H853Q847 736 847 685T848 588Q848 568 849 543T852 471T859 341H831Q821 432 797 482T724 552T591 573H428V173Q428 113 440 84T488 46T598 36H670Q807 36 890 66T1027 172T1125 388H1156Q1139 261 1133 167T1128 0Q1036
2 925 3T670 5Q474 5 327 4T86 0Z" />
<glyph unicode="F" glyph-name="F" horiz-adv-x="1115" d="M84 0V31Q163 39 202 50T253 89T266 173V997Q266 1055 254 1084T202 1124T84 1139V1169Q173 1167 316 1166T652 1164Q729 1164 831 1164T1018 1169Q1017 1110 1024 1025T1046 831H1014Q979 942 943 1008T854
1104T722 1134H420V587H577Q688 587 736 641T802 819H829Q822 721 823 669T824 571Q824 537 825 503T828 419T835 291H807Q797 394 774 452T704 533T577 557H420V173Q420 122 435 94T500 53T650 31V0Q607 3 529 4T344 5Q253 5 188 4T84 0Z" />
<glyph unicode="G" glyph-name="G" horiz-adv-x="1539" d="M740 -23Q550 -23 409 49T189 254T111 566Q111 753 192 893T417 1113T750 1192Q855 1192 941 1168T1089 1120T1185 1095Q1219 1095 1236 1116T1265 1188H1296Q1294 1146 1292 1095T1290 966T1289 765H1257Q1211
965 1079 1064T753 1164Q528 1164 402 1012T276 588Q276 314 404 160T759 5Q938 5 1037 82T1137 279V337Q1137 400 1122 433T1063 478T937 492V523Q964 522 1030 520T1191 518Q1266 518 1324 519T1423 523V492Q1364 489 1336 479T1300 440T1292 350V-17H1261Q1237
65 1180 65Q1141 65 1084 43T943 -1T740 -23Z" />
<glyph unicode="H" glyph-name="H" horiz-adv-x="1666" d="M93 0V31Q191 35 234 50T289 96T300 173V997Q300 1045 289 1075T235 1120T93 1139V1169Q138 1167 213 1166T375 1164Q452 1164 529 1165T655 1169V1139Q560 1135 518 1120T465 1075T454 997V604H1212V997Q1212
1045 1202 1075T1149 1120T1012 1139V1169Q1060 1167 1135 1166T1286 1164Q1375 1164 1450 1165T1574 1169V1139Q1476 1135 1433 1120T1378 1075T1367 997V173Q1367 126 1378 96T1433 51T1574 31V0Q1526 2 1452 3T1286 5Q1210 5 1136 4T1012 0V31Q1095 35 1138
44T1196 83T1212 173V573H454V173Q454 124 464 94T517 50T655 31V0Q606 2 529 3T375 5Q288 5 213 4T93 0Z" />
<glyph unicode="I" glyph-name="I" horiz-adv-x="737" d="M91 0V31Q178 35 220 46T277 86T291 173V997Q291 1055 277 1084T221 1124T91 1139V1169Q134 1167 205 1166T367 1164Q454 1164 528 1165T647 1169V1139Q560 1135 517 1124T460 1084T446 997V173Q446 115
460 86T517 46T647 31V0Q603 2 529 3T367 5Q276 5 205 4T91 0Z" />
<glyph unicode="J" glyph-name="J" horiz-adv-x="689" d="M-43 -395V-365Q137 -372 211 -237T285 159V997Q285 1057 271 1085T215 1124T87 1139V1169Q125 1167 192 1166T357 1164Q446 1164 512 1165T619 1169V1139Q542 1135 503 1124T451 1084T438 997V213Q438
-14 391 -147T239 -338T-43 -395Z" />
<glyph unicode="K" glyph-name="K" horiz-adv-x="1450" d="M91 0V31Q177 35 220 46T277 86T291 173V997Q291 1054 277 1083T220 1123T91 1139V1169Q132 1168 203 1166T366 1164Q460 1164 529 1166T639 1169V1139Q556 1135 515 1124T459 1083T445 997V610H513Q608
610 662 628T758 683T854 776L973 900Q1060 990 1075 1037T1039 1105T875 1139V1169Q926 1169 993 1167T1128 1164Q1200 1164 1257 1165T1362 1169V1139Q1267 1128 1205 1082T1076 965L770 639Q819 623 856 602T930 542T1012 435L1174 181Q1228 99 1272 69T1394
31V0Q1336 1 1275 3T1140 5Q1054 5 998 3T903 0V31Q1085 49 1023 136L876 352Q813 446 765 494T660 561T513 579H445V173Q445 117 459 88T514 47T639 31V0Q598 2 529 3T366 5Q274 5 203 4T91 0Z" />
<glyph unicode="L" glyph-name="L" horiz-adv-x="1249" d="M88 0V31Q182 36 223 54T273 102T283 173V997Q283 1055 270 1082T215 1121T88 1139V1169Q120 1168 188 1166T359 1164Q475 1164 553 1165T673 1169V1139Q572 1132 522 1119T454 1077T437 997V173Q437
128 446 98T493 52T614 36H680Q780 36 854 45T982 88T1080 193T1162 388H1193Q1177 273 1170 178T1165 0Q1074 2 960 3T690 5Q491 5 340 4T88 0Z" />
<glyph unicode="M" glyph-name="M" horiz-adv-x="1826" d="M901 -19H863L333 1083H319V187Q319 125 337 93T405 49T549 31V0Q519 2 456 3T308 5Q235 5 178 4T89 0V31Q171 35 213 47T271 91T287 187V997Q287 1053 274 1082T218 1123T89 1139V1169Q124 1165 182
1165T317 1164Q415 1164 458 1169L935 140L1370 1169Q1402 1165 1440 1165T1516 1164Q1594 1164 1659 1165T1757 1169V1139Q1671 1135 1629 1123T1573 1082T1559 997V173Q1559 118 1573 89T1629 47T1757 31V0Q1714 2 1644 3T1485 5Q1394 5 1327 4T1220 0V31Q1300
33 1340 42T1393 81T1406 173V1134H1391L901 -19Z" />
<glyph unicode="N" glyph-name="N" horiz-adv-x="1547" d="M1256 -19H1215L338 1072H324V187Q324 147 335 113T395 57T558 31V0Q522 2 455 3T314 5Q169 5 91 0V31Q188 34 230 55T282 111T292 187V997Q292 1043 282 1073T229 1119T91 1139V1169Q129 1165 189 1165T319
1164Q363 1164 400 1165T466 1169L1209 195H1224V984Q1224 1024 1209 1057T1144 1113T989 1139V1169Q1026 1167 1094 1166T1234 1164Q1380 1164 1457 1169V1139Q1369 1137 1326 1115T1270 1059T1256 984V-19Z" />
<glyph unicode="O" glyph-name="O" horiz-adv-x="1661" d="M829 -23Q612 -23 453 50T206 258T119 582Q119 767 207 904T456 1116T831 1192Q1049 1192 1209 1120T1456 912T1543 588Q1543 403 1455 266T1207 53T829 -23ZM823 7Q993 7 1117 78T1308 280T1376 586Q1376
765 1307 894T1116 1093T838 1163Q670 1163 546 1092T353 890T284 584Q284 405 353 276T544 77T823 7Z" />
<glyph unicode="P" glyph-name="P" horiz-adv-x="1184" d="M88 0V31Q171 35 212 45T267 85T281 173V997Q281 1055 267 1085T212 1127T88 1139V1169Q121 1168 185 1168T340 1167Q444 1167 528 1168T650 1169Q874 1169 997 1084T1120 833Q1120 670 982 573T607 476Q569
476 521 481T435 496V173Q435 115 451 86T517 46T662 31V0Q622 2 547 3T361 5Q260 5 192 4T88 0ZM435 1138V526Q474 516 520 511T592 505Q774 505 864 587T955 823Q955 991 869 1067T600 1141L435 1138Z" />
<glyph unicode="Q" glyph-name="Q" horiz-adv-x="1659" d="M367 -395Q318 -395 290 -367T261 -293Q261 -239 306 -195T423 -123T571 -97Q578 -97 585 -97Q652 -84 702 -63T809 -23Q597 -19 443 55T204 263T120 582Q120 767 208 904T457 1116T833 1192Q1051 1192
1211 1120T1458 912T1546 588Q1546 418 1471 288T1258 78T932 -18Q853 -36 799 -60T666 -104Q782 -120 907 -156T1164 -223T1435 -254Q1560 -254 1639 -221T1773 -115L1797 -128Q1746 -257 1642 -326T1392 -395Q1287 -395 1206 -368T1053 -299T911 -218T758 -150T571
-122Q502 -122 457 -142T412 -192Q412 -220 437 -258T462 -329Q462 -358 437 -376T367 -395ZM824 7Q995 7 1119 78T1311 280T1379 586Q1379 765 1310 894T1118 1093T839 1163Q671 1163 547 1092T354 890T285 584Q285 405 354 276T544 77T824 7Z" />
<glyph unicode="R" glyph-name="R" horiz-adv-x="1326" d="M88 0V31Q171 35 212 46T266 87T280 173V997Q280 1054 267 1083T212 1123T88 1139V1169Q126 1168 190 1168T344 1167Q439 1167 526 1168T648 1169Q867 1169 991 1095T1115 885Q1115 762 1018 681T754
575Q847 566 904 541T996 465T1051 331L1109 106Q1120 65 1148 53T1220 38Q1252 37 1279 54T1331 98L1350 71Q1304 20 1259 -1T1150 -23Q1071 -23 1015 22T936 155L887 338Q856 455 799 507T627 559H435V173Q435 115 448 86T503 46T627 31V0Q589 2 520 3T356 5Q262
5 194 4T88 0ZM600 1138H435V589H605Q950 589 950 869Q950 1012 865 1075T600 1138Z" />
<glyph unicode="S" glyph-name="S" horiz-adv-x="1059" d="M561 -23Q458 -23 390 4T276 59T199 87Q172 87 156 65T130 -19H99Q104 29 105 132T107 415H139Q156 219 262 113T537 6Q667 6 740 68T813 251Q813 323 784 368T688 449T506 530Q369 585 285 634T163 741T125
880Q125 1023 223 1107T487 1192Q575 1192 633 1173T733 1135T810 1116Q837 1116 853 1129T880 1188H912Q909 1151 907 1105T903 989T902 808H871Q853 979 756 1070T508 1162Q390 1162 322 1106T254 940Q254 879 285 835T391 753T593 669Q795 600 880 520T965 312Q965
157 857 67T561 -23Z" />
<glyph unicode="T" glyph-name="T" horiz-adv-x="1406" d="M366 0V31Q490 35 544 51T613 101T627 189V1134H466Q390 1134 328 1110T211 1012T96 784H65Q87 921 94 1007T93 1169Q218 1167 376 1166T703 1164Q790 1164 896 1164T1110 1165T1312 1169Q1306 1104 1313
1010T1343 784H1311Q1247 942 1189 1016T1071 1112T939 1134H779V189Q779 135 793 102T862 52T1040 31V0Q979 2 892 3T709 5Q597 5 509 4T366 0Z" />
<glyph unicode="U" glyph-name="U" horiz-adv-x="1542" d="M774 -23Q527 -23 399 128T270 567V997Q270 1055 255 1084T196 1124T62 1139V1169Q103 1167 174 1166T345 1164Q451 1164 524 1165T635 1169V1139Q545 1135 500 1125T439 1086T424 997V526Q424 299 521
164T806 28Q1018 28 1129 166T1241 562V978Q1241 1042 1222 1075T1156 1121T1021 1139V1169Q1051 1168 1109 1166T1252 1164Q1341 1164 1397 1166T1482 1169V1139Q1397 1135 1352 1122T1290 1077T1273 984V577Q1273 287 1148 132T774 -23Z" />
<glyph unicode="V" glyph-name="V" horiz-adv-x="1388" d="M728 -19H676L205 1022Q180 1077 136 1104T11 1139V1169Q63 1168 126 1166T255 1164Q350 1164 423 1166T540 1169V1139Q405 1136 374 1106T380 993L756 124L1053 789Q1132 965 1092 1053T923 1139V1169Q972
1169 1040 1167T1181 1164Q1225 1164 1265 1165T1382 1169V1139Q1308 1131 1262 1102T1184 1002L728 -19Z" />
<glyph unicode="W" glyph-name="W" horiz-adv-x="2152" d="M695 -19H666L212 1022Q187 1079 134 1105T-3 1139V1169Q62 1168 128 1166T255 1164Q359 1164 441 1166T569 1169V1139Q468 1137 422 1124T371 1079T390 993L743 178L1051 923L1007 1022Q960 1125 797
1139V1169Q860 1168 925 1166T1045 1164Q1155 1164 1241 1166T1377 1169V1139Q1271 1137 1222 1124T1167 1080T1186 993L1549 163L1548 183L1805 787Q1956 1142 1652 1139V1169Q1693 1169 1770 1167T1932 1164Q1976 1164 2027 1165T2156 1169V1139Q2072 1131 2016
1104T1929 1002L1501 -19H1468L1070 880L695 -19Z" />
<glyph unicode="X" glyph-name="X" horiz-adv-x="1483" d="M39 0V31Q90 37 128 46T205 80T295 159L675 564L260 1031Q214 1084 162 1108T38 1139V1169Q112 1168 179 1166T310 1164Q423 1164 506 1166T637 1169V1139Q500 1139 459 1101T476 997L787 647L942 813Q995
870 1011 927T1017 1033T976 1111T904 1139V1169Q992 1169 1067 1167T1204 1164Q1235 1164 1261 1164T1324 1166T1421 1169V1139Q1364 1134 1327 1124T1254 1089T1167 1009L809 623L1239 139Q1288 85 1340 61T1462 31V0Q1389 2 1322 4T1189 6Q1077 6 995 4T863
0V31Q1003 30 1043 68T1024 172L698 538L527 361Q450 282 441 205T471 79T575 31V0Q523 1 439 3T264 5Q232 5 204 5T139 3T39 0Z" />
<glyph unicode="Y" glyph-name="Y" horiz-adv-x="1345" d="M371 0V31Q484 35 535 50T601 98T615 189V397L166 1035Q129 1088 80 1111T-39 1138V1169Q25 1168 87 1166T204 1164Q314 1164 399 1166T540 1169V1138Q398 1137 359 1105T369 1003L749 454L957 790Q1018
889 1023 968T990 1093T879 1139V1169Q920 1169 1000 1167T1169 1164Q1212 1164 1249 1165T1371 1169V1139Q1309 1135 1266 1124T1189 1086T1122 1004L769 419V189Q769 132 783 99T848 50T1011 31V0Q953 2 868 3T694 5Q594 5 510 4T371 0Z" />
<glyph unicode="Z" glyph-name="Z" horiz-adv-x="1255" d="M84 0V31L960 1134H470Q396 1134 341 1104T238 997T138 784H108Q125 906 133 999T136 1169Q215 1167 307 1166T491 1164T659 1164Q770 1164 904 1164T1148 1169V1139L271 36H548Q670 36 760 42T916 80T1033
183T1127 388H1158Q1141 269 1135 178T1132 0Q1053 3 959 4T770 5T597 5Q473 5 338 5T84 0Z" />
<glyph unicode="[" glyph-name="bracketleft" horiz-adv-x="601" d="M541 -299H180V1275H541V1245H326V-269H541V-299Z" />
<glyph unicode="\" glyph-name="backslash" horiz-adv-x="601" d="M550 -23H513L52 1192H89L550 -23Z" />
<glyph unicode="]" glyph-name="bracketright" horiz-adv-x="601" d="M422 -299H61V-269H275V1245H61V1275H422V-299Z" />
<glyph unicode="^" glyph-name="asciicircum" horiz-adv-x="1024" d="M487 717L237 521L222 542L502 880H529L803 548L788 523L487 717Z" />
<glyph unicode="_" glyph-name="underscore" horiz-adv-x="1024" d="M915 -224H110V-186H915V-224Z" />
<glyph unicode="`" glyph-name="grave" horiz-adv-x="1024" d="M328 1009L310 992Q241 1023 200 1067T134 1152T84 1210Q60 1239 66 1272T97 1328Q121 1354 153 1356T207 1335Q223 1319 227 1283T236 1201T261 1104T328 1009Z" />
<glyph unicode="a" glyph-name="a" horiz-adv-x="874" d="M320 -23Q220 -23 161 35T101 205Q101 285 131 332T211 404T316 444T424 472T511 509T555 577Q548 698 513 765T411 832Q347 832 300 813T252 760Q252 729 274 692T296 622Q296 591 276 573T221 555Q182
555 158 582T134 655Q134 714 176 764T290 844T450 874Q590 874 647 777T705 502V103Q705 25 753 25Q780 25 805 32T847 77L864 50Q827 5 792 -9T700 -23Q558 -23 558 128Q515 58 456 18T320 -23ZM388 48Q436 48 480 73T557 163V513Q557 529 557 545Q546 493 513
472T436 440T352 411T283 349T256 215Q256 133 291 91T388 48Z" />
<glyph unicode="b" glyph-name="b" horiz-adv-x="1049" d="M146 -29L125 -4Q149 33 157 66T166 150V1101Q166 1163 131 1200T-1 1246V1277Q27 1274 59 1273T121 1272Q177 1272 225 1277T314 1295V707Q353 787 429 830T598 874Q703 874 781 816T903 660T947 438Q947
307 899 203T763 38T559 -23Q471 -23 403 27T304 147Q259 108 217 60T146 -29ZM538 822Q473 822 410 776T314 631V194Q341 122 396 72T518 22Q646 22 716 124T786 414Q786 596 721 709T538 822Z" />
<glyph unicode="c" glyph-name="c" horiz-adv-x="852" d="M462 -23Q297 -23 197 95T96 413Q96 550 144 653T278 815T480 874Q602 874 685 812T768 654Q768 590 742 547T671 504Q635 504 613 525T590 584Q590 623 615 670T640 763Q640 798 600 816T501 835Q383
835 319 726T255 426Q255 237 321 134T509 31Q592 31 654 69T751 202L780 169Q746 72 662 25T462 -23Z" />
<glyph unicode="d" glyph-name="d" horiz-adv-x="1073" d="M456 -23Q348 -23 269 38T145 200T101 419Q101 546 149 649T284 813T489 874Q573 874 634 846T723 762V1101Q723 1172 688 1205T560 1246V1277Q589 1274 620 1273T683 1272Q785 1272 871 1295V176Q871
111 906 73T1035 31V0Q1007 2 975 3T912 4Q860 4 813 -2T723 -18V169Q687 82 619 30T456 -23ZM262 449Q262 258 329 144T515 29Q582 29 637 88T723 251V704Q700 763 648 796T524 829Q400 829 331 730T262 449Z" />
<glyph unicode="e" glyph-name="e" horiz-adv-x="923" d="M482 -23Q367 -23 281 32T147 185T99 410Q99 619 204 746T495 874Q597 874 672 820T789 680T828 499H260Q259 488 259 468Q259 245 330 138T533 31Q617 31 688 71T800 202L827 169Q788 73 697 25T482 -23ZM485
842Q431 842 384 797T304 680T262 532H670Q673 704 628 773T485 842Z" />
<glyph unicode="f" glyph-name="f" horiz-adv-x="573" d="M46 0V31Q125 33 154 60T184 162V818H40V849H184V903Q184 1073 265 1182T506 1292Q597 1292 654 1252T711 1140Q711 1094 686 1065T621 1035Q590 1035 570 1055T550 1104Q550 1139 572 1170T594 1226Q594
1262 522 1262Q424 1262 379 1171T333 892V849H522V818H333V162Q333 94 374 64T518 31V0Q478 2 406 4T264 7Q195 7 136 5T46 0Z" />
<glyph unicode="g" glyph-name="g" horiz-adv-x="843" d="M360 331Q354 331 348 331Q312 294 294 268T275 217Q275 156 377 156H503Q622 156 685 106T749 -44Q749 -147 697 -226T556 -350T351 -395Q211 -395 129 -332T46 -165Q46 -96 92 -48T232 54Q169 96 169
174Q169 244 311 334Q205 349 149 423T93 602Q93 720 162 797T362 874Q433 874 485 849T572 781Q601 821 641 847T721 874Q762 874 787 844T812 761Q812 711 797 680T755 649Q728 649 716 674T697 732T683 790T661 815Q652 815 631 802T590 756Q629 690 629 602Q629
486 560 409T360 331ZM360 359Q423 359 449 424T476 602Q476 714 450 779T360 844Q299 844 273 780T246 602Q246 490 272 425T360 359ZM182 -139Q182 -236 225 -295T354 -355Q467 -355 544 -289T622 -111Q622 -48 582 -13T458 22H357Q295 22 250 44Q218 22 200
-29T182 -139Z" />
<glyph unicode="h" glyph-name="h" horiz-adv-x="1073" d="M38 0V31Q130 30 163 56T197 150V1099Q197 1177 163 1208T38 1244V1276Q70 1273 100 1272T161 1271Q262 1271 346 1294V683Q388 783 461 828T623 874Q750 874 818 778T887 499V150Q887 83 921 57T1047
31V0Q1013 2 946 4T814 7Q756 7 701 5T618 0V31Q688 30 713 56T739 150V580Q739 705 695 763T564 821Q499 821 443 769T346 610V150Q346 83 372 57T468 31V0Q435 2 381 4T270 7Q211 7 147 6T38 0Z" />
<glyph unicode="i" glyph-name="i" horiz-adv-x="496" d="M45 0V31Q119 33 148 57T178 150V675Q178 737 148 773T45 820V851Q77 848 104 847T157 846Q259 846 327 869V150Q327 81 357 57T462 31V0Q432 2 373 4T254 7Q195 7 135 5T45 0ZM261 1053Q221 1053 193
1084T165 1158Q165 1201 193 1231T261 1261Q299 1261 327 1231T355 1158Q355 1116 327 1085T261 1053Z" />
<glyph unicode="j" glyph-name="j" horiz-adv-x="433" d="M-73 -395V-366Q52 -361 109 -282T166 -31V675Q166 749 136 780T33 820V851Q65 848 93 847T145 846Q190 846 232 851T315 869V74Q315 -176 225 -285T-73 -395ZM226 1053Q186 1053 158 1084T130 1158Q130
1201 158 1231T226 1261Q264 1261 292 1231T320 1158Q320 1116 292 1085T226 1053Z" />
<glyph unicode="k" glyph-name="k" horiz-adv-x="1023" d="M37 0V31Q126 36 158 61T190 150V1101Q190 1177 156 1207T37 1246V1277Q68 1274 98 1273T157 1272Q256 1272 339 1295V474H425Q480 474 523 495T598 570L638 639Q692 732 672 772T522 818V849Q562 846
620 845T746 844Q805 844 853 845T938 849V818Q881 814 841 804T768 766T699 678L594 504Q642 494 680 469T742 379L817 181Q840 120 865 90T926 49T1014 31V0Q918 2 880 3T809 5Q770 5 732 4T616 0V31Q674 36 686 59T679 132L600 332Q572 404 529 423T417 443H339V150Q339
86 362 61T454 31V0Q426 2 372 4T263 7Q200 7 135 5T37 0Z" />
<glyph unicode="l" glyph-name="l" horiz-adv-x="496" d="M34 0V31Q112 33 143 57T174 150V1101Q174 1163 143 1200T34 1246V1277Q66 1274 94 1273T150 1272Q199 1272 242 1277T323 1295V150Q323 81 354 57T463 31V0Q432 2 371 4T249 7Q188 7 127 5T34 0Z" />
<glyph unicode="m" glyph-name="m" horiz-adv-x="1638" d="M52 0V31Q145 30 180 58T215 150V675Q215 749 179 781T52 820V851Q80 847 111 847T175 846Q227 846 274 851T364 869V687Q407 784 480 829T640 874Q823 874 881 681Q925 790 1004 832T1181 874Q1309 874
1377 779T1446 499V150Q1446 83 1481 57T1610 31V0Q1576 2 1507 4T1373 7Q1314 7 1258 5T1173 0V31Q1245 30 1271 56T1297 150V580Q1297 705 1254 763T1126 821Q1056 821 995 780T892 636Q904 574 904 499V150Q904 83 930 57T1029 31V0Q1001 2 944 4T831 7Q773
7 717 5T632 0V31Q703 30 729 56T756 150V580Q756 705 713 763T585 821Q449 821 364 617V150Q364 86 390 58T489 31V0Q446 2 395 4T288 7Q230 7 169 6T52 0Z" />
<glyph unicode="n" glyph-name="n" horiz-adv-x="1066" d="M50 0V31Q138 30 171 58T205 150V675Q205 749 170 781T50 820V851Q79 847 109 847T171 846Q219 846 265 851T354 869V689Q395 785 467 829T626 874Q750 874 817 778T884 499V150Q884 83 917 57T1039 31V0Q1006
2 940 4T811 7Q753 7 699 5T617 0V31Q686 30 710 56T735 150V580Q735 705 693 763T565 821Q434 821 354 617V150Q354 86 379 58T472 31V0Q434 2 384 4T278 7Q217 7 157 6T50 0Z" />
<glyph unicode="o" glyph-name="o" horiz-adv-x="1060" d="M530 -23Q409 -23 313 34T162 193T106 424Q106 552 161 654T312 815T530 874Q652 874 748 815T899 654T955 424Q955 297 900 196T748 36T530 -23ZM530 7Q607 7 666 63T760 213T794 424Q794 541 760 636T667
787T530 843Q454 843 395 787T301 636T267 424Q267 307 301 213T394 63T530 7Z" />
<glyph unicode="p" glyph-name="p" horiz-adv-x="1073" d="M39 -382V-351Q132 -349 167 -325T203 -232V675Q203 755 166 783T39 820V851Q67 848 98 847T162 846Q217 846 264 851T352 869V739Q394 804 464 839T618 874Q723 874 801 816T923 660T967 438Q967 307
919 203T783 38T579 -23Q507 -23 448 11T352 98V-219Q352 -289 400 -319T565 -351V-382Q521 -380 440 -378T281 -375Q205 -375 140 -377T39 -382ZM558 822Q500 822 444 787T352 675V155Q383 97 432 60T538 22Q666 22 736 124T806 414Q806 596 741 709T558 822Z"
/>
<glyph unicode="q" glyph-name="q" horiz-adv-x="1036" d="M446 -23Q340 -23 262 37T142 198T99 417Q99 544 146 647T278 812T480 874Q568 874 630 834T715 706Q762 740 803 787T871 881L893 856Q871 815 863 782T854 704V-232Q854 -300 888 -324T1013 -351V-382Q979
-380 915 -378T776 -375Q699 -375 620 -377T497 -382V-351Q610 -349 657 -319T705 -219V126Q671 61 605 19T446 -23ZM259 448Q259 256 324 143T505 29Q572 29 624 73T705 201V639Q682 743 633 786T516 829Q395 829 327 729T259 448Z" />
<glyph unicode="r" glyph-name="r" horiz-adv-x="712" d="M44 0V31Q121 33 148 57T176 150V675Q176 749 146 781T44 820V851Q79 847 106 847T160 846Q198 846 241 851T325 869V758Q356 817 417 845T538 874Q600 874 637 831T674 718Q674 657 653 618T597 578Q564
578 544 597T523 651Q523 698 537 727T551 791Q551 822 502 822Q452 822 397 792T325 680V162Q325 91 363 62T496 31V0Q459 2 391 4T254 7Q190 7 132 5T44 0Z" />
<glyph unicode="s" glyph-name="s" horiz-adv-x="724" d="M374 -23Q311 -23 272 -9T208 20T165 34Q148 34 132 22T108 -19H78Q83 -16 85 8T88 106T83 328H112Q132 181 187 95T347 8Q432 8 479 54T527 192Q527 275 492 318T361 390Q234 428 170 472T106 620Q106
738 173 806T346 874Q403 874 435 860T487 831T530 816Q562 816 580 869H608Q601 818 601 753T604 578H575Q566 701 509 771T365 841Q297 841 257 803T216 685Q216 609 263 574T417 506Q532 472 584 417T637 257Q637 124 567 51T374 -23Z" />
<glyph unicode="t" glyph-name="t" horiz-adv-x="531" d="M336 -23Q234 -23 190 37T146 233V818H9V849H146V1101Q185 1100 223 1107T295 1125V849H494V818H295V124Q295 75 313 52T377 28Q421 28 455 80T502 210L525 203Q487 -23 336 -23Z" />
<glyph unicode="u" glyph-name="u" horiz-adv-x="1048" d="M441 -21Q316 -21 249 71T181 354V675Q181 749 147 780T24 820V851Q45 848 76 847T139 846Q189 846 235 851T331 869V236Q331 124 372 76T499 28Q559 28 612 74T703 222V675Q703 752 672 782T559 820V851Q582
848 612 847T671 846Q719 846 763 850T852 869V175Q852 100 887 67T1011 29V-1Q954 4 895 4Q845 4 798 0T703 -19V155Q665 61 596 20T441 -21Z" />
<glyph unicode="v" glyph-name="v" horiz-adv-x="848" d="M448 -21H419L137 721Q103 812 8 818V850Q43 849 81 848T180 847Q261 847 304 847T394 850V818Q329 818 307 788T317 671L489 214L617 628Q636 688 646 729T634 792T535 818V850Q597 847 624 847T691 846Q734
846 769 846T830 850V818Q757 801 708 725T615 508L448 -21Z" />
<glyph unicode="w" glyph-name="w" horiz-adv-x="1257" d="M404 -21H376L126 675Q106 732 68 773T7 818V850Q36 846 84 845T188 844Q314 844 398 850V818Q313 817 290 775T303 631L446 225L632 857H692L917 229L1018 587Q1047 688 1045 735T1012 797T928 818L927
850Q985 847 1014 847T1080 846Q1127 846 1168 846T1239 850V818Q1111 787 1067 638L874 -21H847L606 651L404 -21Z" />
<glyph unicode="x" glyph-name="x" horiz-adv-x="913" d="M10 0V31Q49 49 81 64T148 103T227 175T337 307L400 388L177 696Q146 740 114 774T37 818V850Q63 844 114 844T210 843Q257 843 310 843T394 850V818Q324 813 321 784T346 715L509 492L573 582Q620 647
623 698T605 782T554 818V850Q597 847 631 846T708 845Q749 845 786 846T857 850V818Q824 807 792 786T720 721T620 594L528 466L733 185Q768 138 806 94T887 31V0Q865 2 815 4T719 7Q673 7 620 6T535 0V31Q606 36 609 65T583 135L418 363L329 244Q242 127 251
85T373 31V0Q336 2 282 3T177 5Q131 5 93 4T10 0Z" />
<glyph unicode="y" glyph-name="y" horiz-adv-x="856" d="M212 -405Q149 -405 112 -364T74 -252Q74 -197 98 -164T163 -131Q192 -131 208 -149T224 -196Q224 -238 215 -269T206 -335Q206 -369 236 -369Q272 -369 299 -330T354 -209L421 -21H391L124 700Q102 759
77 788T8 818V850Q59 847 96 847T186 847Q260 847 304 847T395 850V818Q306 820 284 790T292 673L478 144L646 626Q668 688 681 729T668 793T543 818V850Q593 847 621 847T698 846Q730 846 771 846T838 850V818Q770 799 730 725T639 508L457 -4L380 -237Q352 -320
313 -362T212 -405Z" />
<glyph unicode="z" glyph-name="z" horiz-adv-x="822" d="M53 0V30L565 814H402Q254 814 197 754T126 554H95Q95 641 94 719T88 849Q164 847 244 845T405 842Q491 842 578 844T746 849V819L235 35H423Q558 35 621 90T697 302H729Q729 211 730 133T736 0Q660 2
580 4T419 7Q329 7 234 5T53 0Z" />
<glyph unicode="{" glyph-name="braceleft" horiz-adv-x="601" d="M552 -286V-315Q458 -315 398 -303T304 -251T252 -133T227 78Q217 234 208 317T183 433T139 472T63 478H52V507H63Q101 507 126 503T166 508T191 556T209 679T227 910Q238 1068 265 1150T358 1262T552
1292V1262Q482 1258 448 1245T401 1197T385 1093T375 908Q368 797 357 729T323 618T259 549T150 492Q238 454 284 402T349 273T375 78Q381 -54 387 -127T408 -234T457 -275T552 -286Z" />
<glyph unicode="|" glyph-name="bar" horiz-adv-x="1024" d="M531 -382H493V1417H531V-382Z" />
<glyph unicode="}" glyph-name="braceright" horiz-adv-x="601" d="M50 -315V-286Q111 -284 144 -276T193 -234T215 -128T227 78Q233 195 252 272T318 402T452 492Q385 521 344 548T279 618T245 728T227 908Q220 1024 217 1092T202 1196T155 1245T50 1262V1292Q177
1292 243 1262T337 1150T375 910Q385 763 393 679T410 557T435 509T476 503T539 507H550V478H539Q491 478 463 473T420 434T395 317T375 78Q367 -54 350 -132T299 -250T205 -302T50 -315Z" />
<glyph unicode="~" glyph-name="asciitilde" horiz-adv-x="1365" d="M845 385Q788 385 744 403T661 446T579 488T484 507Q423 507 390 475T343 392L314 405Q328 500 377 553T517 606Q575 606 619 588T704 545T786 503T881 484Q940 484 977 516T1021 599L1051 586Q1045
492 992 439T845 385Z" />
<glyph unicode="&#xa0;" glyph-name="nbspace" horiz-adv-x="512" />
<glyph unicode="&#xa1;" glyph-name="exclamdown" horiz-adv-x="525" d="M263 655Q223 655 193 688T162 764Q162 808 192 841T263 874Q303 874 333 841T364 764Q364 721 334 688T263 655ZM260 -395Q226 -395 206 -372T186 -307Q186 -274 201 -174T232 88T246 464H276Q275
249 291 88T323 -173T339 -306Q339 -347 318 -371T260 -395Z" />
<glyph unicode="&#xa2;" glyph-name="cent" horiz-adv-x="1007" d="M553 -301H523V-23Q431 -23 362 33T253 188T214 420Q214 619 298 742T523 874V1169H553V874Q653 870 722 814T791 680Q791 638 770 613T712 588Q680 588 659 608T638 659Q638 707 655 729T673
777Q673 805 634 825T545 845Q462 845 418 742T373 442Q373 245 422 138T565 31Q641 31 692 83T762 225L794 218Q777 116 711 52T553 -22V-301Z" />
<glyph unicode="&#xa3;" glyph-name="sterling" horiz-adv-x="1007" d="M134 -18Q114 -18 114 0Q114 33 208 79Q225 117 233 155T245 256T249 426V477H101V507H249V653H101V682H249V749Q249 962 331 1077T568 1192Q674 1192 743 1138T813 1002Q813 955 789 928T723
900Q650 900 650 972Q650 1016 672 1044T695 1100Q695 1123 675 1140T614 1157Q493 1157 448 1075T402 796V682H686V653H402V525Q402 516 402 507H686V477H401Q394 380 358 293T240 92Q287 139 333 160T427 182Q479 182 527 164T631 128T761 110Q797 110 823 124T850
158Q850 176 821 197T762 243T732 296Q732 322 754 341T810 361Q854 361 880 324T907 225Q907 158 876 102T791 11T675 -23Q628 -23 587 -4T507 40T425 84T334 103Q262 103 211 52Q189 24 171 3T134 -18Z" />
<glyph unicode="&#xa4;" glyph-name="currency" horiz-adv-x="1007" d="M293 257L219 184L192 210L266 284Q223 327 203 383T183 495Q183 617 265 707L191 783L217 809L291 734Q382 817 504 817Q630 817 715 732L791 811L818 784L742 705Q825 619 825 495Q825
434 803 381T742 285L818 210L791 183L715 259Q678 222 622 199T504 175Q441 175 387 197T293 257ZM504 206Q583 206 648 245T753 350T793 495Q793 574 754 640T649 746T504 787Q424 787 358 747T254 641T215 495Q215 416 254 351T359 246T504 206Z" />
<glyph unicode="&#xa5;" glyph-name="yen" horiz-adv-x="1007" d="M285 0V31Q354 35 390 46T439 89T452 189V267H192V298H452V435L448 444H192V473H435L188 1021Q165 1072 145 1096T96 1130T17 1140V1169Q52 1168 108 1166T232 1164Q304 1164 354 1166T438 1169V1140Q356
1133 341 1107T363 998L581 508L765 935Q808 1034 778 1080T644 1139V1169Q677 1166 721 1165T830 1164Q878 1164 923 1165T990 1169V1139Q926 1127 880 1080T792 934L606 489V473H867V444H606V298H867V267H606V189Q606 122 619 90T669 46T775 31V0Q700 5 529 5Q358
5 285 0Z" />
<glyph unicode="&#xa6;" glyph-name="brokenbar" horiz-adv-x="106" d="M72 634H34V1417H72V634ZM72 -382H34V538H72V-382Z" />
<glyph unicode="&#xa7;" glyph-name="section" horiz-adv-x="1007" d="M486 -395Q383 -395 312 -337T240 -198Q240 -154 261 -129T320 -104Q351 -104 372 -123T393 -179Q393 -219 379 -245T365 -297Q365 -327 393 -345T466 -364Q529 -364 573 -319T618 -198Q618
-138 598 -94T530 -3T401 109Q340 159 292 203T216 302T188 442Q188 522 225 588T352 706Q306 759 284 814T261 936Q261 1046 333 1119T521 1192Q623 1192 693 1135T764 997Q764 903 686 903Q654 903 634 922T613 976Q613 1016 627 1043T641 1095Q641 1124 612
1143T540 1162Q476 1162 431 1117T386 995Q386 937 407 893T477 803T606 690Q668 640 716 596T791 496T819 357Q819 277 781 210T654 92Q700 39 723 -16T746 -138Q746 -249 674 -322T486 -395ZM499 232Q540 200 574 171T636 112Q661 137 688 182T716 278Q716 327
698 368T635 456T507 567Q466 599 432 628T370 686Q346 662 318 617T290 519Q290 471 307 430T370 343T499 232Z" />
<glyph unicode="&#xa8;" glyph-name="dieresis" horiz-adv-x="1024" d="M489 1063Q448 1063 421 1090T393 1158Q393 1198 420 1225T489 1253Q529 1253 556 1226T584 1158Q584 1118 557 1091T489 1063ZM188 1063Q148 1063 120 1090T92 1158Q92 1198 120 1225T188
1253Q227 1253 255 1226T283 1158Q283 1118 255 1091T188 1063Z" />
<glyph unicode="&#xa9;" glyph-name="copyright" horiz-adv-x="1638" d="M819 -23Q683 -23 564 28T355 169T213 379T162 634Q162 771 213 890T354 1099T564 1241T819 1292Q956 1292 1075 1241T1284 1100T1426 890T1477 634Q1477 498 1426 379T1285 170T1075 28T819
-23ZM819 12Q948 12 1060 60T1257 194T1390 393T1438 634Q1438 763 1390 875T1257 1073T1060 1207T819 1256Q690 1256 578 1208T382 1074T249 876T201 634Q201 506 249 393T381 195T578 61T819 12ZM830 191Q731 191 656 245T537 395T494 618Q494 754 539 858T664
1020T847 1079Q916 1079 972 1054T1063 985T1097 890Q1097 847 1075 822T1014 796Q983 796 963 814T942 863Q942 912 960 935T978 985Q978 1012 941 1032T851 1052Q758 1052 706 945T654 640Q654 448 712 346T866 243Q937 243 992 289T1068 429L1099 422Q1079 316
1005 254T830 191Z" />
<glyph unicode="&#xaa;" glyph-name="ordfeminine" horiz-adv-x="752" d="M271 595Q202 595 158 633T114 737Q114 793 144 826T220 880T310 915T385 946T416 989V1075Q416 1163 348 1163Q305 1163 270 1148T234 1114Q234 1102 243 1083T253 1043Q253 1019 238
1004T201 988Q175 988 156 1006T137 1055Q137 1111 200 1151T359 1191Q454 1191 502 1150Q529 1128 538 1096T548 998V688Q548 640 578 640Q594 640 607 649T627 663L639 636Q607 615 587 605T536 595Q425 595 419 690Q379 595 271 595ZM321 651Q343 651 369 668T416
720V957Q412 932 386 914T328 875T271 824T247 744Q247 651 321 651Z" />
<glyph unicode="&#xab;" glyph-name="guillemotleft" horiz-adv-x="812" d="M386 437L775 874L797 857L539 445L797 -8L773 -23L386 415V437ZM16 437L405 874L427 857L169 445L427 -8L403 -23L16 415V437Z" />
<glyph unicode="&#xac;" glyph-name="logicalnot" horiz-adv-x="1024" d="M925 252H888V576H99V611H925V252Z" />
<glyph unicode="&#xad;" glyph-name="hyphen" horiz-adv-x="514" d="M592 434H93V488H592V434Z" />
<glyph unicode="&#xae;" glyph-name="registered" horiz-adv-x="1638" d="M820 364Q691 364 585 427T416 596T353 831Q353 960 416 1066T585 1235T820 1298Q949 1298 1054 1235T1223 1066T1286 831Q1286 702 1223 596T1055 427T820 364ZM820 386Q943 386 1043
446T1202 607T1262 831Q1262 954 1203 1055T1043 1216T820 1276Q698 1276 597 1216T437 1055T377 831Q377 709 436 608T597 446T820 386ZM591 558V574Q630 576 642 587T655 637V1053Q655 1094 643 1106T591 1120V1134H824Q905 1134 952 1097T1000 995Q1000 936
962 895T854 841Q918 835 944 803T987 694L1003 617Q1006 603 1015 592T1038 580Q1056 580 1075 613L1084 602Q1057 543 986 543Q918 543 905 603L874 748Q864 795 854 815T782 836H749V637Q749 599 758 588T805 574V559Q806 558 805 558V559Q802 559 781 559T697
560Q630 560 611 560T591 558ZM789 1120H749V853H789Q847 853 873 885T900 990Q900 1120 789 1120Z" />
<glyph unicode="&#xb0;" glyph-name="degree" horiz-adv-x="560" d="M279 875Q204 875 148 934T91 1090Q91 1188 147 1246T280 1305Q356 1305 413 1247T470 1090Q470 993 413 934T279 875ZM280 904Q343 904 390 954T437 1089Q437 1175 390 1225T280 1275Q217 1275
171 1225T124 1089Q124 1004 170 954T280 904Z" />
<glyph unicode="&#xb1;" glyph-name="plusminus" horiz-adv-x="1007" d="M522 173H485V569H91V603H485V1001H522V603H917V569H522V173ZM917 7H91V41H917V7Z" />
<glyph unicode="&#xb2;" glyph-name="twosuperior" horiz-adv-x="653" d="M569 714Q565 718 556 719T509 720H83V746Q220 869 296 996T373 1240Q373 1382 273 1382Q236 1382 206 1364T176 1323Q176 1298 202 1275T228 1215Q228 1189 209 1173T157 1156Q84 1156
84 1237Q84 1314 155 1367T327 1421Q412 1421 464 1378T516 1263Q516 1178 436 1069T204 837V831H443Q488 831 510 849T536 911H563Q563 852 564 807T569 714Z" />
<glyph unicode="&#xb3;" glyph-name="threesuperior" horiz-adv-x="653" d="M301 522Q204 522 139 562T74 664Q74 698 94 719T148 741Q214 741 214 684Q214 654 200 633T185 591Q185 556 258 556Q345 556 392 608T440 757Q440 820 417 873T335 964Q306 957 293
954T269 951Q240 951 240 972Q240 983 251 989T277 996Q285 996 298 994T334 988Q427 1062 427 1190Q427 1278 388 1329T284 1380Q244 1380 214 1364T184 1325Q184 1301 210 1278T237 1221Q237 1193 217 1176T166 1159Q90 1159 90 1236Q90 1286 125 1328T218 1395T345
1421Q446 1421 505 1366T565 1223Q565 1146 513 1082T364 974Q464 960 521 897T578 754Q578 653 502 588T301 522Z" />
<glyph unicode="&#xb4;" glyph-name="acute" horiz-adv-x="1024" d="M91 1004L74 1023Q118 1066 136 1113T159 1205T168 1285T188 1337Q211 1363 242 1360T298 1331Q322 1307 329 1275T310 1213Q287 1194 263 1156T200 1077T91 1004Z" />
<glyph unicode="&#xb5;" glyph-name="mu" horiz-adv-x="913" d="M28 -247Q28 -208 56 -173T120 -79Q154 -23 191 90T246 397L245 399Q248 526 249 603T251 722T256 787Q264 835 290 854T348 874Q374 874 394 859T412 798Q411 767 397 737T360 663T315 548T275
364L273 340Q268 267 287 228T337 173T390 158Q464 158 520 206T610 363L613 384Q607 597 608 684T610 787Q616 837 645 855T700 874Q727 874 746 859T763 803Q762 761 741 719T693 606T646 407Q643 381 642 359H643Q642 353 641 348Q633 236 646 197T703 158Q743
158 789 205T854 368L886 365Q879 311 863 245T822 117T761 17T675 -23Q608 -23 591 32T580 161Q547 89 495 33T369 -23Q302 -23 280 30T254 150Q237 -19 215 -122T185 -254Q177 -277 152 -294T94 -311Q62 -311 45 -293T28 -247Z" />
<glyph unicode="&#xb6;" glyph-name="paragraph" horiz-adv-x="1007" d="M475 -382V-351Q548 -348 583 -334T630 -288T642 -197V242Q468 248 358 293T186 407T101 555T77 708Q77 847 141 951T321 1113T593 1171Q652 1171 716 1170T837 1168T925 1169V1139Q837
1133 816 1106T794 1019V-209Q794 -270 804 -299T843 -338T930 -351V-382Q890 -379 832 -378T709 -377Q645 -377 581 -378T475 -382ZM641 305V1112Q634 1112 625 1033T614 762Q522 867 472 922T401 999T372 1021Q374 1016 391 989T454 901T588 731Q439 731 356
728T239 721T201 712Q206 708 240 704T356 697T588 693Q500 583 454 521T390 432T372 395Q378 399 399 420T471 498T614 663Q616 472 625 389T641 305Z" />
<glyph unicode="&#xb8;" glyph-name="cedilla" horiz-adv-x="1024" d="M120 -405Q91 -405 59 -399T15 -382L20 -362Q40 -374 73 -374Q131 -374 166 -342T202 -249Q202 -213 183 -193T132 -172Q118 -172 99 -174T74 -179L136 -9H161L106 -160Q129 -143 154 -133T210
-123Q258 -123 288 -156T319 -243Q319 -317 263 -361T120 -405Z" />
<glyph unicode="&#xb9;" glyph-name="onesuperior" horiz-adv-x="650" d="M145 720V747Q207 749 238 768T269 850V1192Q269 1258 256 1288T213 1326T136 1334V1361Q232 1363 291 1378T401 1429V849Q401 783 430 766T513 747V720Q488 722 433 723T337 725Q302 725
262 725T145 720Z" />
<glyph unicode="&#xba;" glyph-name="ordmasculine" horiz-adv-x="752" d="M377 595Q316 595 258 628T162 727T124 894Q124 994 162 1060T258 1159T377 1192Q438 1192 495 1159T590 1060T628 894Q628 794 591 728T496 628T377 595ZM377 624Q421 624 456 686T491
894Q491 1039 456 1101T377 1163Q332 1163 297 1101T261 894Q261 749 296 687T377 624Z" />
<glyph unicode="&#xbb;" glyph-name="guillemotright" horiz-adv-x="812" d="M427 414L38 -23L16 -6L274 406L16 859L40 874L427 436V414ZM797 414L408 -23L386 -6L644 406L386 859L410 874L797 436V414Z" />
<glyph unicode="&#xbc;" glyph-name="onequarter" horiz-adv-x="1443" d="M964 1393L361 -147L338 -137L942 1402L964 1393ZM291 770V789Q341 790 360 807T379 865V1126Q379 1194 362 1213T288 1233V1252Q371 1254 421 1265T511 1303V862Q511 822 527 806T586
789V770Q540 771 508 772T448 773Q417 773 379 772T291 770ZM1052 -93H943V77H697V102L1022 564L1028 574H1052V170H1155V77H1052V-93ZM769 170H943V418L769 170Z" />
<glyph unicode="&#xbd;" glyph-name="onehalf" horiz-adv-x="1443" d="M977 1393L374 -147L351 -137L955 1402L977 1393ZM304 770V789Q354 790 373 807T392 865V1126Q392 1194 375 1213T301 1233V1252Q384 1254 434 1265T524 1303V862Q524 822 540 806T599 789V770Q553
771 521 772T461 773Q430 773 392 772T304 770ZM1141 43Q1126 48 1100 48H732V66Q960 270 960 429Q960 485 939 516T881 548Q857 548 837 535T816 504Q816 484 839 464T862 412Q862 392 845 379T802 366Q735 366 735 434Q735 496 792 535T937 575Q1014 575 1057
542T1100 449Q1100 422 1086 385T1018 295T848 162V157H1042Q1080 157 1097 168T1117 209H1136Q1136 150 1136 107T1141 43Z" />
<glyph unicode="&#xbe;" glyph-name="threequarters" horiz-adv-x="1443" d="M1036 1393L433 -147L410 -137L1014 1402L1036 1393ZM412 621Q327 621 272 656T216 748Q216 782 236 803T288 824Q317 824 332 809T348 772Q348 741 330 721T312 677Q312 645 365 645Q432
645 466 685T501 796Q501 844 483 883T422 954Q391 943 368 943Q344 943 344 960Q344 977 376 977Q402 977 422 972Q497 1023 497 1122Q497 1187 467 1227T383 1268Q355 1268 334 1257T312 1229Q312 1204 334 1186T356 1139Q356 1117 340 1103T297 1089Q230 1089
230 1157Q230 1216 291 1256T442 1297Q526 1297 578 1256T631 1146Q631 1088 582 1041T431 968V962Q530 949 586 907T642 800Q642 721 578 671T412 621ZM1123 -93H1014V77H768V102L1093 564L1099 574H1123V170H1226V77H1123V-93ZM840 170H1014V418L840 170Z" />
<glyph unicode="&#xbf;" glyph-name="questiondown" horiz-adv-x="945" d="M529 655Q489 655 459 688T428 764Q428 808 458 841T529 874Q569 874 599 841T630 764Q630 721 600 688T529 655ZM502 -395Q357 -395 274 -314T190 -103Q190 30 276 121T514 262V464H543V246Q430
195 384 104T337 -94Q337 -160 354 -221T411 -322T516 -362Q557 -362 596 -343T635 -290Q635 -270 623 -244T611 -183Q611 -114 679 -114Q714 -114 734 -137T755 -201Q755 -283 681 -339T502 -395Z" />
<glyph unicode="&#xc0;" glyph-name="Agrave" horiz-adv-x="1420" d="M8 0V31Q85 39 135 67T217 166L677 1188H727L1211 147Q1237 92 1283 64T1409 31V0Q1355 2 1292 3T1164 5Q1067 5 991 4T870 0V31Q1010 33 1042 64T1036 177L915 438H374L346 378Q265 205 300
117T470 31V0Q424 1 353 3T206 5Q164 5 126 4T8 0ZM389 469H902L651 1054L389 469ZM796 1300L785 1279Q697 1306 647 1327T567 1368T506 1408Q471 1425 463 1452T472 1508Q489 1535 521 1546T590 1546Q620 1537 633 1514T660 1456T703 1382T796 1300Z" />
<glyph unicode="&#xc1;" glyph-name="Aacute" horiz-adv-x="1420" d="M8 0V31Q85 39 135 67T217 166L677 1188H727L1211 147Q1237 92 1283 64T1409 31V0Q1355 2 1292 3T1164 5Q1067 5 991 4T870 0V31Q1010 33 1042 64T1036 177L915 438H374L346 378Q265 205 300
117T470 31V0Q424 1 353 3T206 5Q164 5 126 4T8 0ZM389 469H902L651 1054L389 469ZM638 1279L627 1300Q690 1342 719 1382T762 1456T789 1513T833 1546Q870 1557 902 1546T951 1508Q969 1480 961 1453T917 1408Q887 1388 857 1369T776 1328T638 1279Z" />
<glyph unicode="&#xc2;" glyph-name="Acircumflex" horiz-adv-x="1420" d="M8 0V31Q85 39 135 67T217 166L677 1188H727L1211 147Q1237 92 1283 64T1409 31V0Q1355 2 1292 3T1164 5Q1067 5 991 4T870 0V31Q1010 33 1042 64T1036 177L915 438H374L346 378Q265 205
300 117T470 31V0Q424 1 353 3T206 5Q164 5 126 4T8 0ZM389 469H902L651 1054L389 469ZM985 1304L968 1281L666 1442L453 1281L437 1304L691 1543H733L985 1304Z" />
<glyph unicode="&#xc3;" glyph-name="Atilde" horiz-adv-x="1420" d="M8 0V31Q85 39 135 67T217 166L677 1188H727L1211 147Q1237 92 1283 64T1409 31V0Q1355 2 1292 3T1164 5Q1067 5 991 4T870 0V31Q1010 33 1042 64T1036 177L915 438H374L346 378Q265 205 300
117T470 31V0Q424 1 353 3T206 5Q164 5 126 4T8 0ZM389 469H902L651 1054L389 469ZM847 1288Q789 1288 743 1311T650 1357T549 1380Q503 1380 481 1355T447 1276L421 1284Q424 1383 470 1431T574 1480Q632 1480 679 1457T772 1410T872 1386Q917 1386 939 1412T974
1491L1000 1478Q998 1383 952 1336T847 1288Z" />
<glyph unicode="&#xc4;" glyph-name="Adieresis" horiz-adv-x="1420" d="M8 0V31Q85 39 135 67T217 166L677 1188H727L1211 147Q1237 92 1283 64T1409 31V0Q1355 2 1292 3T1164 5Q1067 5 991 4T870 0V31Q1010 33 1042 64T1036 177L915 438H374L346 378Q265 205
300 117T470 31V0Q424 1 353 3T206 5Q164 5 126 4T8 0ZM389 469H902L651 1054L389 469ZM856 1276Q815 1276 788 1303T761 1371Q761 1411 788 1438T856 1466Q896 1466 923 1439T951 1371Q951 1331 924 1304T856 1276ZM566 1276Q526 1276 498 1303T470 1371Q470 1411
498 1438T566 1466Q605 1466 633 1439T661 1371Q661 1331 633 1304T566 1276Z" />
<glyph unicode="&#xc5;" glyph-name="Aring" horiz-adv-x="1420" d="M8 0V31Q85 39 135 67T217 166L677 1188H727L1211 147Q1237 92 1283 64T1409 31V0Q1355 2 1292 3T1164 5Q1067 5 991 4T870 0V31Q1010 33 1042 64T1036 177L915 438H374L346 378Q265 205 300
117T470 31V0Q424 1 353 3T206 5Q164 5 126 4T8 0ZM389 469H902L651 1054L389 469ZM711 1225Q639 1225 587 1270T535 1386Q535 1455 587 1500T711 1546Q782 1546 835 1501T888 1386Q888 1316 835 1271T711 1225ZM711 1244Q774 1244 820 1283T866 1385Q866 1449
821 1488T711 1527Q648 1527 602 1488T556 1385Q556 1323 601 1284T711 1244Z" />
<glyph unicode="&#xc6;" glyph-name="AE" horiz-adv-x="2052" d="M-17 0V31Q83 87 175 156T322 288L1012 1074Q998 1110 952 1122T804 1141V1171Q925 1170 992 1169T1094 1168L1188 1275H1225L1131 1167Q1149 1167 1154 1167T1173 1166T1232 1166T1373 1166Q1486
1166 1553 1166T1659 1166T1728 1167T1793 1171Q1787 1116 1793 1040T1819 869H1788Q1738 968 1689 1026T1578 1110T1428 1136H1176V604H1371Q1460 604 1507 635T1572 709T1594 784T1601 823H1631Q1625 761 1624 722T1622 653T1622 588Q1622 577 1623 559T1628
494T1637 353H1611Q1606 376 1600 412T1572 486T1504 548T1371 573H1176V174Q1176 115 1189 86T1245 47T1371 37Q1524 37 1619 67T1775 174T1885 390H1915Q1895 242 1889 153T1890 2Q1845 4 1815 5T1743 6T1624 7T1408 7Q1355 7 1284 6T1139 4T1003 3T903 2T869
2V32Q937 37 969 47T1012 87T1022 174V573H616L409 334Q334 247 316 189T315 96T372 46T450 31V0Q449 2 383 3T225 5Q192 5 162 5T92 3T-17 0ZM1022 999Q1022 1023 1020 1039L643 604H1022V999Z" />
<glyph unicode="&#xc7;" glyph-name="Ccedilla" horiz-adv-x="1371" d="M704 -23Q524 -23 390 50T181 257T107 566Q107 753 184 893T399 1113T716 1192Q818 1192 898 1168T1036 1120T1129 1095Q1161 1095 1178 1117T1205 1188H1236Q1234 1146 1232 1094T1230 964T1229
765H1197Q1156 963 1031 1063T723 1164Q510 1164 391 1012T272 589Q272 315 392 160T723 5Q905 5 1031 102T1199 404H1231Q1231 291 1231 215T1233 84T1237 -19H1206Q1196 31 1179 51T1131 72Q1093 72 1035 48T895 1T704 -23ZM679 -405Q650 -405 618 -399T573 -382L578
-362Q600 -374 632 -374Q690 -374 725 -342T761 -249Q761 -213 742 -193T691 -172Q677 -172 658 -174T633 -179L695 -9H720L665 -160Q688 -143 713 -133T769 -123Q817 -123 847 -156T877 -243Q877 -317 821 -361T679 -405Z" />
<glyph unicode="&#xc8;" glyph-name="Egrave" horiz-adv-x="1276" d="M86 0V31Q168 34 208 45T261 87T274 173V997Q274 1055 261 1084T208 1124T86 1139V1169Q179 1167 326 1166T670 1164Q746 1164 853 1164T1050 1169Q1045 1059 1077 867H1045Q1008 968 970 1026T880
1109T744 1134H428V604H591Q707 604 758 658T826 835H853Q847 736 847 685T848 588Q848 568 849 543T852 471T859 341H831Q821 432 797 482T724 552T591 573H428V173Q428 113 440 84T488 46T598 36H670Q807 36 890 66T1027 172T1125 388H1156Q1139 261 1133 167T1128
0Q1036 2 925 3T670 5Q474 5 327 4T86 0ZM700 1300L689 1279Q601 1306 551 1327T471 1368T410 1408Q375 1425 367 1452T376 1508Q393 1535 425 1546T494 1546Q524 1537 537 1514T564 1456T607 1382T700 1300Z" />
<glyph unicode="&#xc9;" glyph-name="Eacute" horiz-adv-x="1276" d="M86 0V31Q168 34 208 45T261 87T274 173V997Q274 1055 261 1084T208 1124T86 1139V1169Q179 1167 326 1166T670 1164Q746 1164 853 1164T1050 1169Q1045 1059 1077 867H1045Q1008 968 970 1026T880
1109T744 1134H428V604H591Q707 604 758 658T826 835H853Q847 736 847 685T848 588Q848 568 849 543T852 471T859 341H831Q821 432 797 482T724 552T591 573H428V173Q428 113 440 84T488 46T598 36H670Q807 36 890 66T1027 172T1125 388H1156Q1139 261 1133 167T1128
0Q1036 2 925 3T670 5Q474 5 327 4T86 0ZM542 1279L531 1300Q594 1342 623 1382T666 1456T693 1513T737 1546Q774 1557 806 1546T855 1508Q873 1480 865 1453T821 1408Q791 1388 761 1369T680 1328T542 1279Z" />
<glyph unicode="&#xca;" glyph-name="Ecircumflex" horiz-adv-x="1276" d="M86 0V31Q168 34 208 45T261 87T274 173V997Q274 1055 261 1084T208 1124T86 1139V1169Q179 1167 326 1166T670 1164Q746 1164 853 1164T1050 1169Q1045 1059 1077 867H1045Q1008 968
970 1026T880 1109T744 1134H428V604H591Q707 604 758 658T826 835H853Q847 736 847 685T848 588Q848 568 849 543T852 471T859 341H831Q821 432 797 482T724 552T591 573H428V173Q428 113 440 84T488 46T598 36H670Q807 36 890 66T1027 172T1125 388H1156Q1139
261 1133 167T1128 0Q1036 2 925 3T670 5Q474 5 327 4T86 0ZM889 1304L872 1281L570 1442L357 1281L341 1304L595 1543H637L889 1304Z" />
<glyph unicode="&#xcb;" glyph-name="Edieresis" horiz-adv-x="1276" d="M86 0V31Q168 34 208 45T261 87T274 173V997Q274 1055 261 1084T208 1124T86 1139V1169Q179 1167 326 1166T670 1164Q746 1164 853 1164T1050 1169Q1045 1059 1077 867H1045Q1008 968 970
1026T880 1109T744 1134H428V604H591Q707 604 758 658T826 835H853Q847 736 847 685T848 588Q848 568 849 543T852 471T859 341H831Q821 432 797 482T724 552T591 573H428V173Q428 113 440 84T488 46T598 36H670Q807 36 890 66T1027 172T1125 388H1156Q1139 261
1133 167T1128 0Q1036 2 925 3T670 5Q474 5 327 4T86 0ZM760 1276Q719 1276 692 1303T665 1371Q665 1411 692 1438T760 1466Q800 1466 827 1439T855 1371Q855 1331 828 1304T760 1276ZM470 1276Q430 1276 402 1303T374 1371Q374 1411 402 1438T470 1466Q509 1466
537 1439T565 1371Q565 1331 537 1304T470 1276Z" />
<glyph unicode="&#xcc;" glyph-name="Igrave" horiz-adv-x="737" d="M91 0V31Q178 35 220 46T277 86T291 173V997Q291 1055 277 1084T221 1124T91 1139V1169Q134 1167 205 1166T367 1164Q454 1164 528 1165T647 1169V1139Q560 1135 517 1124T460 1084T446 997V173Q446
115 460 86T517 46T647 31V0Q603 2 529 3T367 5Q276 5 205 4T91 0ZM452 1300L441 1279Q353 1306 303 1327T223 1368T162 1408Q127 1425 119 1452T128 1508Q145 1535 177 1546T246 1546Q276 1537 289 1514T316 1456T359 1382T452 1300Z" />
<glyph unicode="&#xcd;" glyph-name="Iacute" horiz-adv-x="737" d="M91 0V31Q178 35 220 46T277 86T291 173V997Q291 1055 277 1084T221 1124T91 1139V1169Q134 1167 205 1166T367 1164Q454 1164 528 1165T647 1169V1139Q560 1135 517 1124T460 1084T446 997V173Q446
115 460 86T517 46T647 31V0Q603 2 529 3T367 5Q276 5 205 4T91 0ZM294 1279L283 1300Q346 1342 375 1382T418 1456T445 1513T489 1546Q526 1557 558 1546T607 1508Q625 1480 617 1453T573 1408Q543 1388 513 1369T432 1328T294 1279Z" />
<glyph unicode="&#xce;" glyph-name="Icircumflex" horiz-adv-x="737" d="M91 0V31Q178 35 220 46T277 86T291 173V997Q291 1055 277 1084T221 1124T91 1139V1169Q134 1167 205 1166T367 1164Q454 1164 528 1165T647 1169V1139Q560 1135 517 1124T460 1084T446
997V173Q446 115 460 86T517 46T647 31V0Q603 2 529 3T367 5Q276 5 205 4T91 0ZM641 1304L624 1281L322 1442L109 1281L93 1304L347 1543H389L641 1304Z" />
<glyph unicode="&#xcf;" glyph-name="Idieresis" horiz-adv-x="737" d="M91 0V31Q178 35 220 46T277 86T291 173V997Q291 1055 277 1084T221 1124T91 1139V1169Q134 1167 205 1166T367 1164Q454 1164 528 1165T647 1169V1139Q560 1135 517 1124T460 1084T446 997V173Q446
115 460 86T517 46T647 31V0Q603 2 529 3T367 5Q276 5 205 4T91 0ZM512 1276Q471 1276 444 1303T417 1371Q417 1411 444 1438T512 1466Q552 1466 579 1439T607 1371Q607 1331 580 1304T512 1276ZM222 1276Q182 1276 154 1303T126 1371Q126 1411 154 1438T222 1466Q261
1466 289 1439T317 1371Q317 1331 289 1304T222 1276Z" />
<glyph unicode="&#xd0;" glyph-name="Eth" horiz-adv-x="1580" d="M95 0V31Q190 33 235 45T293 87T306 173V573H135V604H306V997Q306 1051 293 1081T235 1124T95 1139V1169Q147 1169 219 1168T389 1167Q478 1167 560 1168T693 1169Q1084 1169 1275 1026T1466 607Q1466
306 1260 153T684 0Q632 0 560 2T393 5Q292 5 207 3T95 0ZM650 30Q994 30 1147 166T1301 589Q1301 878 1146 1008T652 1139H461V604H717V573H461V169Q461 108 474 79T528 40T650 30Z" />
<glyph unicode="&#xd1;" glyph-name="Ntilde" horiz-adv-x="1547" d="M1256 -19H1215L338 1072H324V187Q324 147 335 113T395 57T558 31V0Q522 2 455 3T314 5Q169 5 91 0V31Q188 34 230 55T282 111T292 187V997Q292 1043 282 1073T229 1119T91 1139V1169Q129 1165
189 1165T319 1164Q363 1164 400 1165T466 1169L1209 195H1224V984Q1224 1024 1209 1057T1144 1113T989 1139V1169Q1026 1167 1094 1166T1234 1164Q1380 1164 1457 1169V1139Q1369 1137 1326 1115T1270 1059T1256 984V-19ZM951 1288Q893 1288 847 1311T754 1357T653
1380Q607 1380 585 1355T551 1276L525 1284Q528 1383 574 1431T678 1480Q736 1480 783 1457T876 1410T976 1386Q1021 1386 1043 1412T1078 1491L1104 1478Q1102 1383 1056 1336T951 1288Z" />
<glyph unicode="&#xd2;" glyph-name="Ograve" horiz-adv-x="1661" d="M829 -23Q612 -23 453 50T206 258T119 582Q119 767 207 904T456 1116T831 1192Q1049 1192 1209 1120T1456 912T1543 588Q1543 403 1455 266T1207 53T829 -23ZM823 7Q993 7 1117 78T1308 280T1376
586Q1376 765 1307 894T1116 1093T838 1163Q670 1163 546 1092T353 890T284 584Q284 405 353 276T544 77T823 7ZM912 1300L901 1279Q813 1306 763 1327T683 1368T622 1408Q587 1425 579 1452T588 1508Q605 1535 637 1546T706 1546Q736 1537 749 1514T776 1456T819
1382T912 1300Z" />
<glyph unicode="&#xd3;" glyph-name="Oacute" horiz-adv-x="1661" d="M829 -23Q612 -23 453 50T206 258T119 582Q119 767 207 904T456 1116T831 1192Q1049 1192 1209 1120T1456 912T1543 588Q1543 403 1455 266T1207 53T829 -23ZM823 7Q993 7 1117 78T1308 280T1376
586Q1376 765 1307 894T1116 1093T838 1163Q670 1163 546 1092T353 890T284 584Q284 405 353 276T544 77T823 7ZM754 1279L743 1300Q806 1342 835 1382T878 1456T905 1513T949 1546Q986 1557 1018 1546T1067 1508Q1085 1480 1077 1453T1033 1408Q1003 1388 973
1369T892 1328T754 1279Z" />
<glyph unicode="&#xd4;" glyph-name="Ocircumflex" horiz-adv-x="1661" d="M829 -23Q612 -23 453 50T206 258T119 582Q119 767 207 904T456 1116T831 1192Q1049 1192 1209 1120T1456 912T1543 588Q1543 403 1455 266T1207 53T829 -23ZM823 7Q993 7 1117 78T1308
280T1376 586Q1376 765 1307 894T1116 1093T838 1163Q670 1163 546 1092T353 890T284 584Q284 405 353 276T544 77T823 7ZM1101 1304L1084 1281L782 1442L569 1281L553 1304L807 1543H849L1101 1304Z" />
<glyph unicode="&#xd5;" glyph-name="Otilde" horiz-adv-x="1661" d="M829 -23Q612 -23 453 50T206 258T119 582Q119 767 207 904T456 1116T831 1192Q1049 1192 1209 1120T1456 912T1543 588Q1543 403 1455 266T1207 53T829 -23ZM823 7Q993 7 1117 78T1308 280T1376
586Q1376 765 1307 894T1116 1093T838 1163Q670 1163 546 1092T353 890T284 584Q284 405 353 276T544 77T823 7ZM963 1288Q905 1288 859 1311T766 1357T665 1380Q619 1380 597 1355T563 1276L537 1284Q540 1383 586 1431T690 1480Q748 1480 795 1457T888 1410T988
1386Q1033 1386 1055 1412T1090 1491L1116 1478Q1114 1383 1068 1336T963 1288Z" />
<glyph unicode="&#xd6;" glyph-name="Odieresis" horiz-adv-x="1661" d="M829 -23Q612 -23 453 50T206 258T119 582Q119 767 207 904T456 1116T831 1192Q1049 1192 1209 1120T1456 912T1543 588Q1543 403 1455 266T1207 53T829 -23ZM823 7Q993 7 1117 78T1308
280T1376 586Q1376 765 1307 894T1116 1093T838 1163Q670 1163 546 1092T353 890T284 584Q284 405 353 276T544 77T823 7ZM972 1276Q931 1276 904 1303T877 1371Q877 1411 904 1438T972 1466Q1012 1466 1039 1439T1067 1371Q1067 1331 1040 1304T972 1276ZM682
1276Q642 1276 614 1303T586 1371Q586 1411 614 1438T682 1466Q721 1466 749 1439T777 1371Q777 1331 749 1304T682 1276Z" />
<glyph unicode="&#xd7;" glyph-name="multiply" horiz-adv-x="1007" d="M505 562L212 269L186 294L480 587L186 882L210 907L505 613L796 902L821 877L530 588L821 297L796 272L505 562Z" />
<glyph unicode="&#xd8;" glyph-name="Oslash" horiz-adv-x="1661" d="M829 -23Q612 -23 453 50T206 258T119 582Q119 767 207 904T456 1116T831 1192Q1049 1192 1209 1120T1456 912T1543 588Q1543 403 1455 266T1207 53T829 -23ZM823 7Q993 7 1117 78T1308 280T1376
586Q1376 765 1307 894T1116 1093T838 1163Q670 1163 546 1092T353 890T284 584Q284 405 353 276T544 77T823 7ZM1240 1254L1105 1007L1082 1029L1212 1280L1240 1254ZM1090 1005L616 129L591 148L1068 1027L1090 1005ZM603 114L454 -117L428 -89L578 135L603 114Z"
/>
<glyph unicode="&#xd9;" glyph-name="Ugrave" horiz-adv-x="1542" d="M774 -23Q527 -23 399 128T270 567V997Q270 1055 255 1084T196 1124T62 1139V1169Q103 1167 174 1166T345 1164Q451 1164 524 1165T635 1169V1139Q545 1135 500 1125T439 1086T424 997V526Q424
299 521 164T806 28Q1018 28 1129 166T1241 562V978Q1241 1042 1222 1075T1156 1121T1021 1139V1169Q1051 1168 1109 1166T1252 1164Q1341 1164 1397 1166T1482 1169V1139Q1397 1135 1352 1122T1290 1077T1273 984V577Q1273 287 1148 132T774 -23ZM880 1300L869
1279Q781 1306 731 1327T651 1368T590 1408Q555 1425 547 1452T556 1508Q573 1535 605 1546T674 1546Q704 1537 717 1514T744 1456T787 1382T880 1300Z" />
<glyph unicode="&#xda;" glyph-name="Uacute" horiz-adv-x="1542" d="M774 -23Q527 -23 399 128T270 567V997Q270 1055 255 1084T196 1124T62 1139V1169Q103 1167 174 1166T345 1164Q451 1164 524 1165T635 1169V1139Q545 1135 500 1125T439 1086T424 997V526Q424
299 521 164T806 28Q1018 28 1129 166T1241 562V978Q1241 1042 1222 1075T1156 1121T1021 1139V1169Q1051 1168 1109 1166T1252 1164Q1341 1164 1397 1166T1482 1169V1139Q1397 1135 1352 1122T1290 1077T1273 984V577Q1273 287 1148 132T774 -23ZM722 1279L711
1300Q774 1342 803 1382T846 1456T873 1513T917 1546Q954 1557 986 1546T1035 1508Q1053 1480 1045 1453T1001 1408Q971 1388 941 1369T860 1328T722 1279Z" />
<glyph unicode="&#xdb;" glyph-name="Ucircumflex" horiz-adv-x="1542" d="M774 -23Q527 -23 399 128T270 567V997Q270 1055 255 1084T196 1124T62 1139V1169Q103 1167 174 1166T345 1164Q451 1164 524 1165T635 1169V1139Q545 1135 500 1125T439 1086T424 997V526Q424
299 521 164T806 28Q1018 28 1129 166T1241 562V978Q1241 1042 1222 1075T1156 1121T1021 1139V1169Q1051 1168 1109 1166T1252 1164Q1341 1164 1397 1166T1482 1169V1139Q1397 1135 1352 1122T1290 1077T1273 984V577Q1273 287 1148 132T774 -23ZM1069 1304L1052
1281L750 1442L537 1281L521 1304L775 1543H817L1069 1304Z" />
<glyph unicode="&#xdc;" glyph-name="Udieresis" horiz-adv-x="1542" d="M774 -23Q527 -23 399 128T270 567V997Q270 1055 255 1084T196 1124T62 1139V1169Q103 1167 174 1166T345 1164Q451 1164 524 1165T635 1169V1139Q545 1135 500 1125T439 1086T424 997V526Q424
299 521 164T806 28Q1018 28 1129 166T1241 562V978Q1241 1042 1222 1075T1156 1121T1021 1139V1169Q1051 1168 1109 1166T1252 1164Q1341 1164 1397 1166T1482 1169V1139Q1397 1135 1352 1122T1290 1077T1273 984V577Q1273 287 1148 132T774 -23ZM940 1276Q899
1276 872 1303T845 1371Q845 1411 872 1438T940 1466Q980 1466 1007 1439T1035 1371Q1035 1331 1008 1304T940 1276ZM650 1276Q610 1276 582 1303T554 1371Q554 1411 582 1438T650 1466Q689 1466 717 1439T745 1371Q745 1331 717 1304T650 1276Z" />
<glyph unicode="&#xdd;" glyph-name="Yacute" horiz-adv-x="1345" d="M371 0V31Q484 35 535 50T601 98T615 189V397L166 1035Q129 1088 80 1111T-39 1138V1169Q25 1168 87 1166T204 1164Q314 1164 399 1166T540 1169V1138Q398 1137 359 1105T369 1003L749 454L957
790Q1018 889 1023 968T990 1093T879 1139V1169Q920 1169 1000 1167T1169 1164Q1212 1164 1249 1165T1371 1169V1139Q1309 1135 1266 1124T1189 1086T1122 1004L769 419V189Q769 132 783 99T848 50T1011 31V0Q953 2 868 3T694 5Q594 5 510 4T371 0ZM615 1279L604
1300Q667 1342 696 1382T739 1456T766 1513T810 1546Q847 1557 879 1546T928 1508Q946 1480 938 1453T894 1408Q864 1388 834 1369T753 1328T615 1279Z" />
<glyph unicode="&#xde;" glyph-name="Thorn" horiz-adv-x="1182" d="M88 0V31Q171 35 212 46T267 87T281 173V997Q281 1054 267 1083T212 1123T88 1139V1169Q153 1165 219 1165T365 1164Q472 1164 546 1166T660 1169V1139Q564 1135 516 1124T451 1083T435 997V911Q477
921 536 927T649 934Q877 934 997 855T1117 609Q1117 437 986 339T620 241Q574 241 528 247T435 264V173Q435 117 451 88T515 47T660 31V0Q621 2 547 3T365 5Q286 5 220 4T88 0ZM610 902Q570 902 522 895T435 879V294Q475 285 518 279T610 272Q952 272 952 579Q952
734 867 818T610 902Z" />
<glyph unicode="&#xdf;" glyph-name="germandbls" horiz-adv-x="964" d="M602 -23Q524 -23 473 23T422 150Q422 213 445 255T508 297Q581 297 581 231Q581 169 567 132T553 61Q553 11 586 11Q641 11 679 57T737 181T757 354Q757 488 706 579T560 696Q512 677 492
677Q458 677 458 704Q458 733 496 733Q508 733 523 731T561 727Q651 836 651 990Q651 1118 612 1190T491 1262Q323 1262 323 941V-18Q237 7 132 7Q76 7 34 0V31Q111 37 142 71T174 180V892Q174 1086 254 1189T496 1292Q635 1292 716 1219T797 1011Q797 824 590
718Q745 705 829 612T913 370Q913 258 873 169T762 29T602 -23Z" />
<glyph unicode="&#xe0;" glyph-name="agrave" horiz-adv-x="874" d="M320 -23Q220 -23 161 35T101 205Q101 285 131 332T211 404T316 444T424 472T511 509T555 577Q548 698 513 765T411 832Q347 832 300 813T252 760Q252 729 274 692T296 622Q296 591 276 573T221
555Q182 555 158 582T134 655Q134 714 176 764T290 844T450 874Q590 874 647 777T705 502V103Q705 25 753 25Q780 25 805 32T847 77L864 50Q827 5 792 -9T700 -23Q558 -23 558 128Q515 58 456 18T320 -23ZM388 48Q436 48 480 73T557 163V513Q557 529 557 545Q546
493 513 472T436 440T352 411T283 349T256 215Q256 133 291 91T388 48ZM479 1009L461 992Q392 1023 352 1067T286 1152T237 1210Q213 1239 219 1272T250 1328Q274 1354 306 1356T360 1335Q376 1319 379 1283T388 1201T413 1104T479 1009Z" />
<glyph unicode="&#xe1;" glyph-name="aacute" horiz-adv-x="874" d="M320 -23Q220 -23 161 35T101 205Q101 285 131 332T211 404T316 444T424 472T511 509T555 577Q548 698 513 765T411 832Q347 832 300 813T252 760Q252 729 274 692T296 622Q296 591 276 573T221
555Q182 555 158 582T134 655Q134 714 176 764T290 844T450 874Q590 874 647 777T705 502V103Q705 25 753 25Q780 25 805 32T847 77L864 50Q827 5 792 -9T700 -23Q558 -23 558 128Q515 58 456 18T320 -23ZM388 48Q436 48 480 73T557 163V513Q557 529 557 545Q546
493 513 472T436 440T352 411T283 349T256 215Q256 133 291 91T388 48ZM380 1004L363 1023Q407 1066 425 1113T448 1205T457 1285T477 1337Q500 1363 531 1360T587 1331Q611 1307 618 1275T599 1213Q576 1194 552 1156T489 1077T380 1004Z" />
<glyph unicode="&#xe2;" glyph-name="acircumflex" horiz-adv-x="874" d="M320 -23Q220 -23 161 35T101 205Q101 285 131 332T211 404T316 444T424 472T511 509T555 577Q548 698 513 765T411 832Q347 832 300 813T252 760Q252 729 274 692T296 622Q296 591 276
573T221 555Q182 555 158 582T134 655Q134 714 176 764T290 844T450 874Q590 874 647 777T705 502V103Q705 25 753 25Q780 25 805 32T847 77L864 50Q827 5 792 -9T700 -23Q558 -23 558 128Q515 58 456 18T320 -23ZM388 48Q436 48 480 73T557 163V513Q557 529 557
545Q546 493 513 472T436 440T352 411T283 349T256 215Q256 133 291 91T388 48ZM661 1024L643 1002L412 1219L236 1002L217 1029L425 1350H455L661 1024Z" />
<glyph unicode="&#xe3;" glyph-name="atilde" horiz-adv-x="874" d="M320 -23Q220 -23 161 35T101 205Q101 285 131 332T211 404T316 444T424 472T511 509T555 577Q548 698 513 765T411 832Q347 832 300 813T252 760Q252 729 274 692T296 622Q296 591 276 573T221
555Q182 555 158 582T134 655Q134 714 176 764T290 844T450 874Q590 874 647 777T705 502V103Q705 25 753 25Q780 25 805 32T847 77L864 50Q827 5 792 -9T700 -23Q558 -23 558 128Q515 58 456 18T320 -23ZM388 48Q436 48 480 73T557 163V513Q557 529 557 545Q546
493 513 472T436 440T352 411T283 349T256 215Q256 133 291 91T388 48ZM541 1044Q491 1044 454 1072T383 1127T304 1155Q226 1155 190 1046L167 1049Q190 1146 235 1203T343 1260Q395 1260 431 1233T502 1177T582 1149Q662 1149 696 1258L719 1255Q697 1148 650
1096T541 1044Z" />
<glyph unicode="&#xe4;" glyph-name="adieresis" horiz-adv-x="874" d="M320 -23Q220 -23 161 35T101 205Q101 285 131 332T211 404T316 444T424 472T511 509T555 577Q548 698 513 765T411 832Q347 832 300 813T252 760Q252 729 274 692T296 622Q296 591 276 573T221
555Q182 555 158 582T134 655Q134 714 176 764T290 844T450 874Q590 874 647 777T705 502V103Q705 25 753 25Q780 25 805 32T847 77L864 50Q827 5 792 -9T700 -23Q558 -23 558 128Q515 58 456 18T320 -23ZM388 48Q436 48 480 73T557 163V513Q557 529 557 545Q546
493 513 472T436 440T352 411T283 349T256 215Q256 133 291 91T388 48ZM593 1063Q552 1063 525 1090T497 1158Q497 1198 524 1225T593 1253Q633 1253 660 1226T688 1158Q688 1118 661 1091T593 1063ZM292 1063Q252 1063 224 1090T196 1158Q196 1198 224 1225T292
1253Q331 1253 359 1226T387 1158Q387 1118 359 1091T292 1063Z" />
<glyph unicode="&#xe5;" glyph-name="aring" horiz-adv-x="874" d="M320 -23Q220 -23 161 35T101 205Q101 285 131 332T211 404T316 444T424 472T511 509T555 577Q548 698 513 765T411 832Q347 832 300 813T252 760Q252 729 274 692T296 622Q296 591 276 573T221
555Q182 555 158 582T134 655Q134 714 176 764T290 844T450 874Q590 874 647 777T705 502V103Q705 25 753 25Q780 25 805 32T847 77L864 50Q827 5 792 -9T700 -23Q558 -23 558 128Q515 58 456 18T320 -23ZM388 48Q436 48 480 73T557 163V513Q557 529 557 545Q546
493 513 472T436 440T352 411T283 349T256 215Q256 133 291 91T388 48ZM442 991Q379 991 329 1035T279 1156Q279 1230 329 1274T442 1319Q507 1319 558 1275T610 1156Q610 1080 559 1036T442 991ZM442 1018Q497 1018 538 1055T579 1155Q579 1219 538 1256T442 1293Q390
1293 349 1256T308 1155Q308 1093 349 1056T442 1018Z" />
<glyph unicode="&#xe6;" glyph-name="ae" horiz-adv-x="1400" d="M352 -23Q242 -23 178 35T113 206Q113 286 147 333T237 405T354 445T475 472T573 509T624 576Q614 697 567 764T436 832Q369 832 323 813T276 760Q276 729 299 692T323 622Q323 591 301 573T242
555Q201 555 176 582T150 655Q150 714 195 764T315 844T484 874Q645 874 718 743Q816 874 989 874Q1085 874 1156 820T1266 680T1303 498H773Q773 491 773 484T773 472Q773 243 839 137T1027 31Q1101 31 1165 71T1268 202L1296 169Q1257 73 1172 25T976 -23Q869
-23 788 35T664 196Q605 88 524 33T352 -23ZM977 842Q926 842 884 797T812 680T775 530H1144Q1148 700 1106 771T977 842ZM425 48Q493 48 550 96T654 224Q625 309 625 410V411V411V550Q610 497 570 475T479 442T381 413T302 351T270 219Q270 48 425 48Z" />
<glyph unicode="&#xe7;" glyph-name="ccedilla" horiz-adv-x="852" d="M462 -23Q297 -23 197 95T96 413Q96 550 144 653T278 815T480 874Q602 874 685 812T768 654Q768 590 742 547T671 504Q635 504 613 525T590 584Q590 623 615 670T640 763Q640 798 600 816T501
835Q383 835 319 726T255 426Q255 237 321 134T509 31Q592 31 654 69T751 202L780 169Q746 72 662 25T462 -23ZM414 -405Q385 -405 353 -399T308 -382L313 -362Q335 -374 367 -374Q425 -374 460 -342T496 -249Q496 -213 477 -193T426 -172Q412 -172 393 -174T368
-179L430 -9H455L400 -160Q423 -143 448 -133T504 -123Q552 -123 582 -156T612 -243Q612 -317 556 -361T414 -405Z" />
<glyph unicode="&#xe8;" glyph-name="egrave" horiz-adv-x="923" d="M482 -23Q367 -23 281 32T147 185T99 410Q99 619 204 746T495 874Q597 874 672 820T789 680T828 499H260Q259 488 259 468Q259 245 330 138T533 31Q617 31 688 71T800 202L827 169Q788 73 697
25T482 -23ZM485 842Q431 842 384 797T304 680T262 532H670Q673 704 628 773T485 842ZM530 1009L512 992Q443 1023 403 1067T337 1152T288 1210Q264 1239 270 1272T301 1328Q325 1354 357 1356T411 1335Q427 1319 430 1283T439 1201T464 1104T530 1009Z" />
<glyph unicode="&#xe9;" glyph-name="eacute" horiz-adv-x="923" d="M482 -23Q367 -23 281 32T147 185T99 410Q99 619 204 746T495 874Q597 874 672 820T789 680T828 499H260Q259 488 259 468Q259 245 330 138T533 31Q617 31 688 71T800 202L827 169Q788 73 697
25T482 -23ZM485 842Q431 842 384 797T304 680T262 532H670Q673 704 628 773T485 842ZM431 1004L414 1023Q458 1066 476 1113T499 1205T508 1285T528 1337Q551 1363 582 1360T638 1331Q662 1307 669 1275T650 1213Q627 1194 603 1156T540 1077T431 1004Z" />
<glyph unicode="&#xea;" glyph-name="ecircumflex" horiz-adv-x="923" d="M482 -23Q367 -23 281 32T147 185T99 410Q99 619 204 746T495 874Q597 874 672 820T789 680T828 499H260Q259 488 259 468Q259 245 330 138T533 31Q617 31 688 71T800 202L827 169Q788
73 697 25T482 -23ZM485 842Q431 842 384 797T304 680T262 532H670Q673 704 628 773T485 842ZM712 1024L694 1002L463 1219L287 1002L268 1029L476 1350H506L712 1024Z" />
<glyph unicode="&#xeb;" glyph-name="edieresis" horiz-adv-x="923" d="M482 -23Q367 -23 281 32T147 185T99 410Q99 619 204 746T495 874Q597 874 672 820T789 680T828 499H260Q259 488 259 468Q259 245 330 138T533 31Q617 31 688 71T800 202L827 169Q788 73
697 25T482 -23ZM485 842Q431 842 384 797T304 680T262 532H670Q673 704 628 773T485 842ZM644 1063Q603 1063 576 1090T548 1158Q548 1198 575 1225T644 1253Q684 1253 711 1226T739 1158Q739 1118 712 1091T644 1063ZM343 1063Q303 1063 275 1090T247 1158Q247
1198 275 1225T343 1253Q382 1253 410 1226T438 1158Q438 1118 410 1091T343 1063Z" />
<glyph unicode="&#xec;" glyph-name="igrave" horiz-adv-x="496" d="M45 0V31Q119 33 148 57T178 150V675Q178 737 148 773T45 820V851Q77 848 104 847T157 846Q259 846 327 869V150Q327 81 357 57T462 31V0Q432 2 373 4T254 7Q195 7 135 5T45 0ZM298 1009L280
992Q211 1023 171 1067T105 1152T56 1210Q32 1239 38 1272T69 1328Q93 1354 125 1356T179 1335Q195 1319 198 1283T207 1201T232 1104T298 1009Z" />
<glyph unicode="&#xed;" glyph-name="iacute" horiz-adv-x="496" d="M45 0V31Q119 33 148 57T178 150V675Q178 737 148 773T45 820V851Q77 848 104 847T157 846Q259 846 327 869V150Q327 81 357 57T462 31V0Q432 2 373 4T254 7Q195 7 135 5T45 0ZM199 1004L182
1023Q226 1066 244 1113T267 1205T276 1285T296 1337Q319 1363 350 1360T406 1331Q430 1307 437 1275T418 1213Q395 1194 371 1156T308 1077T199 1004Z" />
<glyph unicode="&#xee;" glyph-name="icircumflex" horiz-adv-x="496" d="M45 0V31Q119 33 148 57T178 150V675Q178 737 148 773T45 820V851Q77 848 104 847T157 846Q259 846 327 869V150Q327 81 357 57T462 31V0Q432 2 373 4T254 7Q195 7 135 5T45 0ZM736 1024L718
1002L487 1219L311 1002L292 1029L500 1350H530L736 1024Z" />
<glyph unicode="&#xef;" glyph-name="idieresis" horiz-adv-x="496" d="M45 0V31Q119 33 148 57T178 150V675Q178 737 148 773T45 820V851Q77 848 104 847T157 846Q259 846 327 869V150Q327 81 357 57T462 31V0Q432 2 373 4T254 7Q195 7 135 5T45 0ZM668 1063Q627
1063 600 1090T572 1158Q572 1198 599 1225T668 1253Q708 1253 735 1226T763 1158Q763 1118 736 1091T668 1063ZM367 1063Q327 1063 299 1090T271 1158Q271 1198 299 1225T367 1253Q406 1253 434 1226T462 1158Q462 1118 434 1091T367 1063Z" />
<glyph unicode="&#xf0;" glyph-name="eth" horiz-adv-x="1060" d="M530 -23Q402 -23 307 33T160 188T108 415Q108 541 159 641T303 800T517 859Q600 859 664 826T767 737Q735 844 677 937T534 1105L224 972L213 1002L510 1125Q407 1211 272 1264L283 1292Q444
1242 576 1153L885 1281L895 1251L602 1134Q776 1008 870 830T965 457Q965 314 912 206T762 38T530 -23ZM268 427Q268 229 338 118T535 7Q665 7 735 131T805 462Q805 542 793 617Q765 708 704 761T556 814Q419 814 344 710T268 427Z" />
<glyph unicode="&#xf1;" glyph-name="ntilde" horiz-adv-x="1066" d="M50 0V31Q138 30 171 58T205 150V675Q205 749 170 781T50 820V851Q79 847 109 847T171 846Q219 846 265 851T354 869V689Q395 785 467 829T626 874Q750 874 817 778T884 499V150Q884 83 917
57T1039 31V0Q1006 2 940 4T811 7Q753 7 699 5T617 0V31Q686 30 710 56T735 150V580Q735 705 693 763T565 821Q434 821 354 617V150Q354 86 379 58T472 31V0Q434 2 384 4T278 7Q217 7 157 6T50 0ZM644 1044Q594 1044 557 1072T486 1127T407 1155Q329 1155 293 1046L270
1049Q293 1146 338 1203T446 1260Q498 1260 534 1233T605 1177T685 1149Q765 1149 799 1258L822 1255Q800 1148 753 1096T644 1044Z" />
<glyph unicode="&#xf2;" glyph-name="ograve" horiz-adv-x="1060" d="M530 -23Q409 -23 313 34T162 193T106 424Q106 552 161 654T312 815T530 874Q652 874 748 815T899 654T955 424Q955 297 900 196T748 36T530 -23ZM530 7Q607 7 666 63T760 213T794 424Q794
541 760 636T667 787T530 843Q454 843 395 787T301 636T267 424Q267 307 301 213T394 63T530 7ZM574 1009L556 992Q487 1023 447 1067T381 1152T332 1210Q308 1239 314 1272T345 1328Q369 1354 401 1356T455 1335Q471 1319 474 1283T483 1201T508 1104T574 1009Z"
/>
<glyph unicode="&#xf3;" glyph-name="oacute" horiz-adv-x="1060" d="M530 -23Q409 -23 313 34T162 193T106 424Q106 552 161 654T312 815T530 874Q652 874 748 815T899 654T955 424Q955 297 900 196T748 36T530 -23ZM530 7Q607 7 666 63T760 213T794 424Q794
541 760 636T667 787T530 843Q454 843 395 787T301 636T267 424Q267 307 301 213T394 63T530 7ZM475 1004L458 1023Q502 1066 520 1113T543 1205T552 1285T572 1337Q595 1363 626 1360T682 1331Q706 1307 713 1275T694 1213Q671 1194 647 1156T584 1077T475 1004Z"
/>
<glyph unicode="&#xf4;" glyph-name="ocircumflex" horiz-adv-x="1060" d="M530 -23Q409 -23 313 34T162 193T106 424Q106 552 161 654T312 815T530 874Q652 874 748 815T899 654T955 424Q955 297 900 196T748 36T530 -23ZM530 7Q607 7 666 63T760 213T794 424Q794
541 760 636T667 787T530 843Q454 843 395 787T301 636T267 424Q267 307 301 213T394 63T530 7ZM756 1024L738 1002L507 1219L331 1002L312 1029L520 1350H550L756 1024Z" />
<glyph unicode="&#xf5;" glyph-name="otilde" horiz-adv-x="1060" d="M530 -23Q409 -23 313 34T162 193T106 424Q106 552 161 654T312 815T530 874Q652 874 748 815T899 654T955 424Q955 297 900 196T748 36T530 -23ZM530 7Q607 7 666 63T760 213T794 424Q794
541 760 636T667 787T530 843Q454 843 395 787T301 636T267 424Q267 307 301 213T394 63T530 7ZM636 1044Q586 1044 549 1072T478 1127T399 1155Q321 1155 285 1046L262 1049Q285 1146 330 1203T438 1260Q490 1260 526 1233T597 1177T677 1149Q757 1149 791 1258L814
1255Q792 1148 745 1096T636 1044Z" />
<glyph unicode="&#xf6;" glyph-name="odieresis" horiz-adv-x="1060" d="M530 -23Q409 -23 313 34T162 193T106 424Q106 552 161 654T312 815T530 874Q652 874 748 815T899 654T955 424Q955 297 900 196T748 36T530 -23ZM530 7Q607 7 666 63T760 213T794 424Q794
541 760 636T667 787T530 843Q454 843 395 787T301 636T267 424Q267 307 301 213T394 63T530 7ZM688 1063Q647 1063 620 1090T592 1158Q592 1198 619 1225T688 1253Q728 1253 755 1226T783 1158Q783 1118 756 1091T688 1063ZM387 1063Q347 1063 319 1090T291 1158Q291
1198 319 1225T387 1253Q426 1253 454 1226T482 1158Q482 1118 454 1091T387 1063Z" />
<glyph unicode="&#xf7;" glyph-name="divide" horiz-adv-x="1007" d="M502 766Q464 766 436 793T408 861Q408 901 436 929T502 957Q543 957 571 929T600 861Q600 821 572 794T502 766ZM917 569H91V603H917V569ZM502 214Q464 214 436 242T408 311Q408 350 436 378T502
407Q543 407 571 379T600 311Q600 271 572 243T502 214Z" />
<glyph unicode="&#xf8;" glyph-name="oslash" horiz-adv-x="1060" d="M530 -23Q409 -23 313 34T162 193T106 424Q106 552 161 654T312 815T530 874Q652 874 748 815T899 654T955 424Q955 297 900 196T748 36T530 -23ZM530 7Q607 7 666 63T760 213T794 424Q794
541 760 636T667 787T530 843Q454 843 395 787T301 636T267 424Q267 307 301 213T394 63T530 7ZM863 970L736 724L718 746L841 995L863 970ZM715 720L361 109L346 129L699 742L715 720ZM349 100L218 -106L197 -87L329 120L349 100Z" />
<glyph unicode="&#xf9;" glyph-name="ugrave" horiz-adv-x="1048" d="M441 -21Q316 -21 249 71T181 354V675Q181 749 147 780T24 820V851Q45 848 76 847T139 846Q189 846 235 851T331 869V236Q331 124 372 76T499 28Q559 28 612 74T703 222V675Q703 752 672 782T559
820V851Q582 848 612 847T671 846Q719 846 763 850T852 869V175Q852 100 887 67T1011 29V-1Q954 4 895 4Q845 4 798 0T703 -19V155Q665 61 596 20T441 -21ZM542 1009L524 992Q455 1023 415 1067T349 1152T300 1210Q276 1239 282 1272T313 1328Q337 1354 369 1356T423
1335Q439 1319 442 1283T451 1201T476 1104T542 1009Z" />
<glyph unicode="&#xfa;" glyph-name="uacute" horiz-adv-x="1048" d="M441 -21Q316 -21 249 71T181 354V675Q181 749 147 780T24 820V851Q45 848 76 847T139 846Q189 846 235 851T331 869V236Q331 124 372 76T499 28Q559 28 612 74T703 222V675Q703 752 672 782T559
820V851Q582 848 612 847T671 846Q719 846 763 850T852 869V175Q852 100 887 67T1011 29V-1Q954 4 895 4Q845 4 798 0T703 -19V155Q665 61 596 20T441 -21ZM443 1004L426 1023Q470 1066 488 1113T511 1205T520 1285T540 1337Q563 1363 594 1360T650 1331Q674 1307
681 1275T662 1213Q639 1194 615 1156T552 1077T443 1004Z" />
<glyph unicode="&#xfb;" glyph-name="ucircumflex" horiz-adv-x="1048" d="M441 -21Q316 -21 249 71T181 354V675Q181 749 147 780T24 820V851Q45 848 76 847T139 846Q189 846 235 851T331 869V236Q331 124 372 76T499 28Q559 28 612 74T703 222V675Q703 752 672
782T559 820V851Q582 848 612 847T671 846Q719 846 763 850T852 869V175Q852 100 887 67T1011 29V-1Q954 4 895 4Q845 4 798 0T703 -19V155Q665 61 596 20T441 -21ZM724 1024L706 1002L475 1219L299 1002L280 1029L488 1350H518L724 1024Z" />
<glyph unicode="&#xfc;" glyph-name="udieresis" horiz-adv-x="1048" d="M441 -21Q316 -21 249 71T181 354V675Q181 749 147 780T24 820V851Q45 848 76 847T139 846Q189 846 235 851T331 869V236Q331 124 372 76T499 28Q559 28 612 74T703 222V675Q703 752 672
782T559 820V851Q582 848 612 847T671 846Q719 846 763 850T852 869V175Q852 100 887 67T1011 29V-1Q954 4 895 4Q845 4 798 0T703 -19V155Q665 61 596 20T441 -21ZM656 1063Q615 1063 588 1090T560 1158Q560 1198 587 1225T656 1253Q696 1253 723 1226T751 1158Q751
1118 724 1091T656 1063ZM355 1063Q315 1063 287 1090T259 1158Q259 1198 287 1225T355 1253Q394 1253 422 1226T450 1158Q450 1118 422 1091T355 1063Z" />
<glyph unicode="&#xfd;" glyph-name="yacute" horiz-adv-x="856" d="M212 -405Q149 -405 112 -364T74 -252Q74 -197 98 -164T163 -131Q192 -131 208 -149T224 -196Q224 -238 215 -269T206 -335Q206 -369 236 -369Q272 -369 299 -330T354 -209L421 -21H391L124
700Q102 759 77 788T8 818V850Q59 847 96 847T186 847Q260 847 304 847T395 850V818Q306 820 284 790T292 673L478 144L646 626Q668 688 681 729T668 793T543 818V850Q593 847 621 847T698 846Q730 846 771 846T838 850V818Q770 799 730 725T639 508L457 -4L380
-237Q352 -320 313 -362T212 -405ZM378 1004L361 1023Q405 1066 423 1113T446 1205T455 1285T475 1337Q498 1363 529 1360T585 1331Q609 1307 616 1275T597 1213Q574 1194 550 1156T487 1077T378 1004Z" />
<glyph unicode="&#xfe;" glyph-name="thorn" horiz-adv-x="1068" d="M-1 -382V-351Q95 -349 132 -325T169 -232V1101Q169 1181 131 1209T-1 1246V1277Q25 1274 57 1273T123 1272Q180 1272 228 1277T317 1295V710Q359 789 439 831T618 874Q723 874 801 816T923
660T967 438Q967 307 919 203T783 38T579 -23Q492 -23 423 20T317 124V-219Q317 -289 368 -319T540 -351V-382Q495 -380 411 -378T247 -375Q168 -375 101 -377T-1 -382ZM558 822Q488 822 421 777T317 635V190Q348 119 407 71T538 22Q666 22 736 124T806 414Q806
596 741 709T558 822Z" />
<glyph unicode="&#xff;" glyph-name="ydieresis" horiz-adv-x="856" d="M212 -405Q149 -405 112 -364T74 -252Q74 -197 98 -164T163 -131Q192 -131 208 -149T224 -196Q224 -238 215 -269T206 -335Q206 -369 236 -369Q272 -369 299 -330T354 -209L421 -21H391L124
700Q102 759 77 788T8 818V850Q59 847 96 847T186 847Q260 847 304 847T395 850V818Q306 820 284 790T292 673L478 144L646 626Q668 688 681 729T668 793T543 818V850Q593 847 621 847T698 846Q730 846 771 846T838 850V818Q770 799 730 725T639 508L457 -4L380
-237Q352 -320 313 -362T212 -405ZM591 1063Q550 1063 523 1090T495 1158Q495 1198 522 1225T591 1253Q631 1253 658 1226T686 1158Q686 1118 659 1091T591 1063ZM290 1063Q250 1063 222 1090T194 1158Q194 1198 222 1225T290 1253Q329 1253 357 1226T385 1158Q385
1118 357 1091T290 1063Z" />
<glyph unicode="&#x2013;" glyph-name="endash" horiz-adv-x="1007" d="M912 444H96V481H912V444Z" />
<glyph unicode="&#x2014;" glyph-name="emdash" horiz-adv-x="1302" d="M1219 444H84V481H1219V444Z" />
<glyph unicode="&#x2018;" glyph-name="quoteleft" horiz-adv-x="488" d="M303 1203L314 1180Q254 1162 213 1111T172 1007Q172 961 203 961Q215 961 231 968T268 976Q301 976 326 949T352 879Q352 834 323 805T250 776Q198 776 167 821T136 946Q136 1051 186
1116T303 1203Z" />
<glyph unicode="&#x2019;" glyph-name="quoteright" horiz-adv-x="488" d="M185 773L174 796Q234 814 275 865T316 969Q316 1015 285 1015Q273 1015 257 1008T220 1000Q187 1000 162 1027T136 1097Q136 1142 165 1171T238 1200Q290 1200 321 1155T352 1030Q352
925 303 860T185 773Z" />
<glyph unicode="&#x201a;" glyph-name="quotesinglbase" horiz-adv-x="488" d="M185 -231L174 -208Q234 -190 275 -139T316 -35Q316 11 285 11Q273 11 257 4T220 -4Q187 -4 162 23T136 93Q136 138 165 167T238 196Q290 196 321 151T352 26Q352 -79 303 -144T185 -231Z" />
<glyph unicode="&#x201c;" glyph-name="quotedblleft" horiz-adv-x="829" d="M619 1191L630 1168Q570 1150 529 1099T488 995Q488 949 519 949Q531 949 547 956T584 964Q617 964 642 937T668 867Q668 822 639 793T566 764Q514 764 483 809T452 934Q452 1039 502
1104T619 1191ZM329 1191L340 1168Q280 1150 239 1099T198 995Q198 949 229 949Q241 949 257 956T294 964Q327 964 352 937T378 867Q378 822 349 793T276 764Q224 764 193 809T162 934Q162 1039 212 1104T329 1191Z" />
<glyph unicode="&#x201d;" glyph-name="quotedblright" horiz-adv-x="829" d="M211 773L200 796Q260 814 301 865T342 969Q342 1015 311 1015Q299 1015 283 1008T246 1000Q213 1000 188 1027T162 1097Q162 1142 191 1171T264 1200Q316 1200 347 1155T378 1030Q378
925 329 860T211 773ZM501 773L490 796Q550 814 591 865T632 969Q632 1015 601 1015Q589 1015 573 1008T536 1000Q503 1000 478 1027T452 1097Q452 1142 481 1171T554 1200Q606 1200 637 1155T668 1030Q668 925 619 860T501 773Z" />
<glyph unicode="&#x201e;" glyph-name="quotedblbase" horiz-adv-x="829" d="M211 -231L200 -208Q260 -190 301 -139T342 -35Q342 11 311 11Q299 11 283 4T246 -4Q213 -4 188 23T162 93Q162 138 191 167T264 196Q316 196 347 151T378 26Q378 -79 329 -144T211
-231ZM501 -231L490 -208Q550 -190 591 -139T632 -35Q632 11 601 11Q589 11 573 4T536 -4Q503 -4 478 23T452 93Q452 138 481 167T554 196Q606 196 637 151T668 26Q668 -79 619 -144T501 -231Z" />
<glyph unicode="&#x2022;" glyph-name="bullet" horiz-adv-x="1365" d="M681 210Q584 210 516 278T447 444Q447 510 478 563T563 648T681 680Q747 680 801 649T887 564T919 444Q919 379 887 326T801 242T681 210Z" />
<glyph unicode="&#x2039;" glyph-name="guilsinglleft" horiz-adv-x="485" d="M37 436L426 873L448 856L190 444L448 -9L424 -24L37 414V436Z" />
<glyph unicode="&#x203a;" glyph-name="guilsinglright" horiz-adv-x="485" d="M448 414L59 -23L37 -6L295 406L37 859L61 874L448 436V414Z" />
</font>
</defs>
</svg>
