<?xml version="1.0" standalone="no"?>
<!DOCTYPE svg PUBLIC "-//W3C//DTD SVG 1.1//EN" "http://www.w3.org/Graphics/SVG/1.1/DTD/svg11.dtd">
<svg xmlns="http://www.w3.org/2000/svg">
<defs >
<font id="Hurricane" horiz-adv-x="505" ><font-face
    font-family="Hurricane"
    units-per-em="1000"
    panose-1="0 0 0 0 0 0 0 0 0 0"
    ascent="950"
    descent="-430"
    alphabetic="0" />
<glyph unicode=" " glyph-name="space" horiz-adv-x="192" />
<glyph unicode="!" glyph-name="exclam" horiz-adv-x="330" d="M172 139Q161 139 161 157Q161 160 161 163T163 169Q173 199 195 241T244 331T298 421T346 498T377 545Q393 561 408 573T448 591Q450 591 451 591T454 592Q466 592 466 584Q461 570 441 538T393
464T333 377T272 288T221 211T191 160Q181 139 172 139ZM125 11Q115 11 102 15T89 33Q89 41 102 55T120 77Q125 84 134 84Q143 84 149 77T158 61Q157 57 151 45T138 22T125 11Z" />
<glyph unicode="&quot;" glyph-name="quotedbl" horiz-adv-x="407" d="M319 434Q316 432 312 433T306 435Q302 439 312 460T337 509T367 559T384 589Q388 595 391 600T401 608Q403 609 405 609T409 610Q419 610 423 602Q427 597 427 583Q427 570 423 563Q421 558
406 538T373 495T339 454T319 434ZM209 434Q206 432 202 433T196 435Q192 439 202 460T227 509T257 559T274 589Q278 595 281 600T291 608Q293 609 295 609T299 610Q309 610 313 602Q317 597 317 583Q317 570 313 563Q311 558 296 538T263 495T229 454T209 434Z"
/>
<glyph unicode="#" glyph-name="numbersign" horiz-adv-x="881" d="M241 1Q231 1 223 4T215 15Q215 20 219 25L350 227H213Q195 227 195 234Q195 240 208 248T240 262T278 268H376L467 407H287Q269 407 269 414Q269 420 282 428T314 442T352 448H493L622 646Q625
651 634 654T652 657Q660 657 664 654T663 644Q629 592 599 543T540 448H695L824 646Q827 651 836 654T854 657Q862 657 866 654T865 644Q831 592 801 543T742 448H855Q868 448 891 447T933 443T952 434Q952 425 929 419T872 410T806 407H717Q695 372 675 337T635
268H781Q794 268 817 267T859 263T878 254Q878 245 855 239T798 230T732 227H610Q550 124 478 15Q474 8 464 5T443 1Q433 1 425 4T417 15Q417 20 421 25L552 227H408Q348 124 276 15Q272 8 262 5T241 1ZM433 268H578L669 407H515Q493 372 473 337T433 268Z" />
<glyph unicode="$" glyph-name="dollar" horiz-adv-x="537" d="M12 -168Q3 -168 9 -159L109 0Q94 7 83 17T71 38Q71 51 79 46Q92 45 103 39T128 30Q148 64 168 96T208 160Q184 192 163 230T141 313Q141 320 141 326T143 339Q151 386 181 420T252 474T339 504T424
511Q453 555 481 601Q486 610 498 619T524 634T545 640Q552 640 552 635Q552 632 547 624L471 504Q493 499 514 488T549 459T558 417Q553 385 526 358T464 310T403 279Q400 278 398 278T392 277Q388 279 390 282Q395 291 413 307T452 343T491 387T512 434Q515 449
506 457T483 470T459 475H453L251 153Q275 124 293 96T312 43Q312 19 291 6T240 -12T187 -18Q180 -18 175 -18T164 -17Q157 -17 146 -14L67 -139Q64 -144 53 -151T31 -163T12 -168ZM224 187L400 473Q365 467 328 452T259 414T204 361T175 297Q174 295 174 292T174
287Q174 264 189 239T224 187ZM172 28Q201 30 230 39T264 74Q266 83 258 96T235 127L172 28Z" />
<glyph unicode="%" glyph-name="percent" horiz-adv-x="701" d="M121 -84Q108 -84 103 -73T98 -46Q98 -32 101 -18T106 1Q138 75 190 143T305 275T427 402T535 528Q510 517 473 505T398 484T331 475Q331 474 331 473T332 471Q332 461 325 444T313 418Q300 398
275 370T213 321T134 300Q112 300 100 318T88 354Q88 371 102 398T139 455T189 511T242 554T288 571Q333 571 333 529Q333 522 332 515T329 500Q330 499 333 499T337 499Q359 499 390 504T454 519T518 539T569 559Q570 559 571 560T574 561Q581 561 588 557T595
546Q595 542 593 538T587 531L514 453Q438 370 364 284T222 108Q200 80 175 44T135 -24Q130 -37 130 -49Q130 -61 139 -69Q141 -70 141 -71Q141 -75 133 -79T121 -84ZM150 323Q167 323 192 340T243 382T286 432T303 472Q293 478 284 489T268 508Q251 508 228 490T182
444T144 390T129 348Q129 338 133 331T150 323ZM309 -58Q287 -58 275 -40T263 -4Q263 13 277 40T314 98T364 154T417 197T463 214Q508 214 508 171Q508 164 507 157T504 143Q506 139 513 140T520 134Q520 128 512 124T499 117Q499 116 499 116T500 113Q500 103
493 90T481 69Q471 54 454 33T414 -9T368 -44T323 -58H309ZM325 -34Q343 -34 368 -15T418 33T459 88T476 130H472Q462 130 462 141Q462 148 464 156T466 171Q466 177 464 179Q451 179 431 164T389 124T348 74T316 26T304 -10Q304 -19 308 -26T325 -34Z" />
<glyph unicode="&amp;" glyph-name="ampersand" horiz-adv-x="793" d="M194 -185Q190 -185 182 -181T170 -170Q139 -120 139 -70Q139 -40 146 -16Q119 -10 94 2T51 35T34 85Q34 104 40 120T55 150Q99 220 166 262T307 324Q297 338 292 353T287 384Q287 420 309
454T367 517T448 561T538 578Q575 578 596 571T637 559L686 604Q687 605 699 610T715 615Q717 615 717 614Q717 612 711 606Q695 590 682 572T658 541Q659 538 659 535T659 529Q659 504 643 481T601 444T542 429Q523 429 523 438Q523 446 534 458T555 480L611 534Q599
545 579 547T547 550Q514 550 477 537T406 498T352 435Q345 421 339 404T333 368Q333 348 340 335Q363 340 389 342T439 345Q446 345 457 344T477 337T487 321Q487 311 482 303Q472 286 452 282T418 277Q394 277 369 283T322 305Q261 286 204 249T111 150Q104 137
99 122T94 90Q94 59 114 42T159 17Q185 72 234 115T341 189T448 233Q474 241 511 246T588 257T663 273T719 300T741 343Q741 356 746 361T758 366Q768 366 773 359Q783 343 783 328Q783 307 764 292T714 265T646 245T571 228Q584 217 584 197Q584 181 577 167T561
139Q549 123 532 106T498 77Q436 31 363 5T210 -23Q203 -23 194 -23T174 -21Q166 -47 166 -73Q166 -85 169 -104T178 -142T193 -173Q198 -178 198 -182Q198 -185 194 -185ZM422 296Q430 296 439 299T454 311V315Q454 320 448 321T436 322Q398 322 360 313Q389 296
422 296ZM229 8Q311 8 389 41T526 141Q534 152 542 166T551 193Q551 203 547 210T537 221Q499 214 470 204Q421 188 366 161T262 96T188 11Q211 8 229 8Z" />
<glyph unicode="&apos;" glyph-name="quotesingle" horiz-adv-x="297" d="M209 434Q206 432 202 433T196 435Q192 439 202 460T227 509T257 559T274 589Q278 595 281 600T291 608Q293 609 295 609T299 610Q309 610 313 602Q317 597 317 583Q317 570 313 563Q311
558 296 538T263 495T229 454T209 434Z" />
<glyph unicode="(" glyph-name="parenleft" horiz-adv-x="435" d="M351 -24Q290 -16 246 18T179 105T155 216Q155 260 166 303T196 386Q226 450 278 508T397 616T535 700T674 753Q697 759 724 764T775 770Q779 770 787 767T795 758Q795 751 784 750T770 747Q739
743 710 738T650 721Q571 695 499 643T369 524T272 383Q247 336 230 282T212 173Q212 119 235 75T313 11Q325 7 336 5T361 1Q365 0 374 -1T384 -10Q384 -18 373 -21T356 -24H351Z" />
<glyph unicode=")" glyph-name="parenright" horiz-adv-x="625" d="M36 -25Q32 -25 24 -22T15 -13Q15 -6 26 -5T40 -2Q71 3 100 8T160 24Q239 51 311 102T442 221T539 361Q564 408 581 462T599 571Q599 625 576 670T498 734Q485 739 474 741T449 744Q445 745 436
746T427 755Q427 763 438 766T454 769H459Q521 762 564 728T631 642T655 530Q655 486 644 443T614 359Q584 295 532 237T413 129T275 45T137 -8Q114 -14 87 -19T36 -25Z" />
<glyph unicode="*" glyph-name="asterisk" horiz-adv-x="493" d="M295 228Q289 228 288 236T286 249Q286 262 292 288T300 329Q296 326 279 313T243 288T214 275Q206 275 206 281Q206 285 210 291T218 300L284 348Q280 348 271 348T248 347Q226 347 203 349T180
361Q180 366 189 369T203 373L292 377Q289 382 280 394T261 420T244 447T237 464Q237 471 244 471Q248 471 255 467T264 459L315 395L333 469Q334 474 337 488T347 503Q353 503 354 491T355 475Q355 454 351 433T343 391Q344 392 356 400T384 420T413 439T431 448Q436
448 436 443Q436 433 421 419T389 393T363 374H442Q446 374 456 373T466 366Q466 359 452 356T417 350T379 348T357 347Q357 347 367 335T389 305T412 273T422 256Q422 251 417 251Q410 251 398 260T373 283T349 309T333 327Q332 321 328 306T318 272T306 241T295
228Z" />
<glyph unicode="+" glyph-name="plus" horiz-adv-x="406" d="M158 77Q149 77 144 86T139 103Q139 107 143 123T153 160T164 198T171 222Q164 222 140 222T88 225T40 232T19 245Q19 254 27 261T44 269Q79 269 114 269T185 270Q198 314 211 358T234 447Q240 448
242 441T245 424T246 412Q246 377 241 341T231 270H340Q354 270 368 270T396 272Q396 271 396 271T397 269Q397 262 382 256T343 245T295 236T250 230T223 226Q221 219 214 195T196 144T176 97T158 77Z" />
<glyph unicode="," glyph-name="comma" horiz-adv-x="146" d="M49 -114Q46 -116 42 -115T36 -113Q33 -110 40 -95T59 -60T85 -18T109 20T122 43Q126 49 129 54T139 62Q141 63 145 63Q153 63 162 59T172 51Q174 48 175 44T177 34Q177 22 165 10Q161 6 144 -12T107
-54T70 -94T49 -114Z" />
<glyph unicode="-" glyph-name="hyphen" horiz-adv-x="445" d="M162 226Q150 226 150 232Q150 240 168 251T204 263H359Q368 263 382 263T409 260T421 251Q421 243 406 238T370 229T327 226H162Z" />
<glyph unicode="." glyph-name="period" horiz-adv-x="258" d="M134 4Q125 4 112 8T99 26Q99 35 107 47T128 69T150 79Q158 79 165 72T172 55Q172 50 165 38T149 15T134 4Z" />
<glyph unicode="/" glyph-name="slash" horiz-adv-x="603" d="M88 -99Q75 -99 75 -94Q75 -90 79 -86Q202 42 308 168T517 415T729 649Q736 657 750 661T777 665Q789 665 797 662T806 652Q806 646 799 639L123 -88Q119 -93 108 -96T88 -99Z" />
<glyph unicode="0" glyph-name="zero" horiz-adv-x="551" d="M161 8Q111 8 86 31T61 106Q61 153 81 203T125 294Q152 338 193 379T281 455T375 511Q373 513 373 518Q373 524 383 526T406 528T422 527Q435 532 451 533T481 535Q488 535 504 534T534 527T548 510Q548
500 539 500Q532 500 519 505T492 512Q532 496 552 459T573 379Q573 324 548 270T479 169T382 86T271 29T161 8ZM156 32Q199 32 243 50T328 95T400 150Q451 196 488 256T525 387Q525 404 520 429T500 467Q484 480 466 490T427 504Q385 491 340 460T253 386T177
292T123 191T103 94Q103 64 113 48T156 32Z" />
<glyph unicode="1" glyph-name="one" horiz-adv-x="402" d="M30 3Q23 4 19 14T15 30Q15 35 16 40T23 45H144Q178 101 213 165T283 294T351 419Q345 416 329 408T295 391T261 376T239 370Q229 370 229 382Q229 390 238 394Q250 400 262 405T285 417Q314 432 339
451T391 490Q403 513 433 513Q440 513 449 511T459 500Q459 499 455 492T437 460T392 387T311 254T181 42Q200 43 225 42T277 38T322 34Q331 33 331 28Q331 23 323 17T307 10Q283 11 249 10T175 8T98 5T30 3Z" />
<glyph unicode="2" glyph-name="two" horiz-adv-x="575" d="M20 6Q12 6 5 9T-3 23Q-3 40 13 53T45 71Q65 77 90 78T138 78Q198 114 263 154T384 237Q428 271 465 310T512 407Q513 410 513 413T513 420Q513 444 498 452T462 461Q422 461 376 445T286 404T212 355Q208
351 204 351Q193 351 193 363Q193 368 199 374Q224 397 262 419T344 461T431 492T508 504Q538 504 562 492T586 446Q586 410 563 372T502 297T417 224T323 159T236 105T168 68Q236 59 294 52T423 44Q438 44 460 49T499 65T516 96Q516 115 502 124T474 140T460 153Q460
162 472 162Q475 162 477 161Q500 154 522 139T545 95Q545 66 524 47T472 18T418 9Q345 9 273 21T132 45Q118 39 97 30T56 13T20 6Z" />
<glyph unicode="3" glyph-name="three" horiz-adv-x="609" d="M211 2Q189 2 158 6T97 20T47 49T27 100Q27 115 32 128T44 155Q58 179 88 198T153 228T215 239Q225 239 225 230Q225 224 221 222T212 219Q194 219 168 207T121 177T94 141Q90 129 90 114Q90 79 113
60T169 34T230 26Q290 26 350 47T459 110T530 208Q537 222 537 235Q537 260 518 272T473 289T428 293Q407 293 387 291T346 281Q342 280 338 279T330 277Q313 277 313 293Q313 304 320 312T339 320Q366 320 400 325T467 342T524 375T554 427Q555 429 555 432T555
437Q555 457 541 463T511 470Q482 470 448 460T382 435T324 404Q321 401 316 401Q312 401 310 406T308 415Q308 436 325 444Q342 451 350 456T365 468T384 486Q387 491 393 491Q401 491 401 482Q401 477 397 473Q428 485 464 495T532 505Q575 505 593 490T612 452Q612
427 593 399T543 348T475 319Q502 319 528 310T570 281T587 232Q587 220 584 209Q570 154 529 115T433 51T320 14T211 2Z" />
<glyph unicode="4" glyph-name="four" horiz-adv-x="574" d="M302 -6Q293 -6 288 11T283 35Q283 52 291 79T310 133T328 176Q309 177 293 177T261 178Q181 178 139 171T75 163Q65 163 60 171T55 188Q55 205 67 211T94 218T120 224Q138 232 164 246T210 270Q234
282 269 305T344 356T422 413T492 466T539 505Q546 511 553 518T571 525Q578 525 589 521T601 509Q601 509 599 505Q567 461 528 409T451 305T382 206Q401 206 428 202T479 197Q501 197 521 211T541 249Q541 254 540 259T538 268Q538 277 547 277Q556 277 562 267T573
244T577 223Q577 200 559 190T517 176T476 173Q459 173 436 174T393 175T364 176Q336 137 327 94T317 7Q317 -6 302 -6ZM133 203Q154 206 186 207T249 209Q308 209 338 204Q355 236 378 276T428 354T477 419Q422 377 359 334T236 255T133 203Z" />
<glyph unicode="5" glyph-name="five" horiz-adv-x="594" d="M312 452Q306 452 306 463Q306 470 307 472Q318 505 342 513T400 521Q459 521 511 510T622 499Q640 499 660 509T683 539Q684 544 686 549T696 554Q704 554 705 548T707 534Q707 515 691 502T654 482T617
475H398Q377 475 356 471T317 454Q313 452 312 452ZM177 4Q159 4 135 7T89 20T51 45T36 86Q36 112 54 137T90 178Q97 187 107 187Q115 187 115 179Q115 172 106 163T88 141T78 109Q78 81 99 64T149 40T200 32Q245 32 295 50T392 99T471 172T514 259Q515 264 515
267T516 275Q516 303 495 318T447 339T397 345Q367 345 338 339T282 320Q275 316 257 307T223 289T201 280Q191 280 191 292Q191 305 202 311L298 430Q303 436 315 438T335 440Q337 440 346 439T355 433Q355 431 343 418T314 386T283 354T266 335Q298 347 334 359T405
372Q427 372 456 369T514 358T561 332T580 284Q580 268 576 255Q558 197 516 151T416 72T297 22T177 4Z" />
<glyph unicode="6" glyph-name="six" horiz-adv-x="535" d="M188 -5Q155 -5 125 3T74 34T54 95V100Q57 145 80 187T139 267T215 335T292 385Q359 423 431 456T584 502Q596 504 609 496T622 473Q622 462 611 459Q593 455 574 451T535 440Q480 423 426 401T318 353Q285
337 249 312T179 254T122 186T90 111Q89 106 89 101T88 91Q88 63 102 48T140 27T186 21Q221 21 258 28T328 46Q360 56 392 76T439 128Q446 139 446 154Q446 170 436 175T412 180Q367 180 329 162T261 113T204 49Q200 43 195 38T182 32Q177 32 177 36T177 44Q177
47 179 49Q228 124 286 168T418 212Q437 212 455 207T487 190T500 156Q500 146 497 135Q486 98 450 72T366 28T270 3T188 -5Z" />
<glyph unicode="7" glyph-name="seven" horiz-adv-x="400" d="M112 -2Q99 -2 97 7T95 27Q95 70 121 119T190 220T280 318T372 403T447 466H300Q255 466 218 457T158 425Q154 421 147 408T133 383T123 365Q120 357 116 357Q112 357 108 368T103 395Q103 409 109
429T123 467T136 493Q141 493 142 484T144 472Q173 498 211 502T284 506Q334 506 378 497T475 483Q479 486 488 494T508 508T520 515Q531 515 541 505T552 483Q552 479 548 476Q523 457 498 439T447 401Q388 355 338 313T235 219Q214 198 188 164T143 92T124 23Q124
19 124 16T125 8Q125 -2 112 -2Z" />
<glyph unicode="8" glyph-name="eight" horiz-adv-x="481" d="M142 1Q118 1 93 7T51 29T37 74Q39 100 73 138T151 214Q164 225 191 245T256 292T333 345Q302 358 277 374T246 421Q243 441 255 456T287 484T329 503T365 514Q383 517 403 517Q439 517 469 504T501
458Q520 470 533 478T551 489Q554 491 557 491T562 493Q565 492 565 491Q565 490 548 476T499 439Q498 433 495 427T488 412Q480 399 477 399Q475 399 475 403T475 408Q475 412 475 415T476 422Q454 406 429 389T378 352Q408 337 434 313T460 241Q460 194 439 156T383
88T306 40T221 11T142 1ZM356 362L474 441Q469 465 453 472T422 479Q392 479 363 470T315 446T296 412Q296 393 314 383T356 362ZM134 33Q165 34 203 47T281 81T354 129T408 186T433 246Q435 284 411 303T355 336Q314 306 275 278T207 226T162 188Q125 152 97 119T69
65Q69 50 80 43T107 35T134 33Z" />
<glyph unicode="9" glyph-name="nine" horiz-adv-x="413" d="M130 -2Q117 -2 115 7T113 27Q113 71 141 122T213 226T306 326Q262 301 213 281T126 260Q106 260 91 269T76 302Q76 346 108 381T190 442T298 484T408 509T495 518Q499 518 509 517T530 512T540 503Q540
495 529 488T489 481Q485 481 476 481T460 482Q434 482 408 477T356 467Q329 461 290 449T212 417T147 371T119 311V310Q119 286 143 286Q149 286 152 287Q181 292 218 309T293 349T366 397T425 438Q437 447 444 453T463 466Q466 468 469 468T477 469Q483 469 495
466T509 455Q512 452 512 447Q512 440 501 431Q446 384 403 350T325 285T253 219Q232 198 206 164T161 92T142 23Q142 19 142 16T143 8Q143 -2 130 -2Z" />
<glyph unicode=":" glyph-name="colon" horiz-adv-x="310" d="M233 186Q224 186 211 190T198 208Q198 217 206 229T227 251T249 261Q257 261 264 254T271 237Q271 232 264 220T248 197T233 186ZM134 4Q125 4 112 8T99 26Q99 35 107 47T128 69T150 79Q158 79 165
72T172 55Q172 50 165 38T149 15T134 4Z" />
<glyph unicode=";" glyph-name="semicolon" horiz-adv-x="291" d="M233 186Q225 186 213 189T201 206Q201 214 209 225T227 244T247 253Q255 253 261 247T267 232Q267 228 261 217T246 196T233 186ZM49 -114Q46 -116 42 -115T36 -113Q33 -110 40 -95T59 -60T85
-18T109 20T122 43Q126 49 129 54T139 62Q141 63 145 63Q153 63 162 59T172 51Q174 48 175 44T177 34Q177 22 165 10Q161 6 144 -12T107 -54T70 -94T49 -114Z" />
<glyph unicode="&lt;" glyph-name="less" horiz-adv-x="318" d="M248 117Q244 117 238 120Q222 159 198 185T147 243Q145 247 146 249Q148 254 165 268T207 302T260 341T308 375T337 395Q342 398 347 400T358 403Q367 403 365 395Q364 392 349 380T311 350T267
316T227 285T203 266Q207 258 215 240T234 199T251 158T258 130Q258 126 256 122T248 117Z" />
<glyph unicode="=" glyph-name="equal" horiz-adv-x="478" d="M197 269Q185 269 185 275Q185 283 203 294T239 306H443Q452 306 466 306T493 303T505 294Q505 286 490 281T454 272T411 269H197ZM139 154Q127 154 127 160Q127 168 145 179T181 191H385Q394 191
408 191T435 188T447 179Q447 171 432 166T396 157T353 154H139Z" />
<glyph unicode="&gt;" glyph-name="greater" horiz-adv-x="357" d="M115 115Q106 115 108 123Q110 126 125 138T162 168T206 202T246 233T270 252Q266 260 258 278T239 319T222 360T215 388Q215 393 217 397T225 401Q229 401 235 398Q252 359 276 333T326 275Q328
271 327 269Q326 264 309 250T266 216T213 177T165 143T136 123Q131 120 126 118T115 115Z" />
<glyph unicode="?" glyph-name="question" horiz-adv-x="510" d="M189 162Q184 162 184 170Q184 177 190 195Q202 226 236 249T316 294T407 337T489 387T539 452Q541 455 541 458T541 465Q541 494 519 511T468 537T416 545Q403 545 382 543T338 535T302 516T287
483Q287 475 289 467T291 450Q291 441 285 440Q273 440 266 453T258 479Q258 515 282 536T347 567T435 577Q467 577 501 567T559 535T583 473Q583 436 561 407T506 356T437 318T373 292Q325 275 281 250T211 179Q208 174 201 168T189 162ZM134 4Q125 4 112 8T99
26Q99 35 107 47T128 69T150 79Q158 79 165 72T172 55Q172 50 165 38T149 15T134 4Z" />
<glyph unicode="@" glyph-name="at" horiz-adv-x="816" d="M322 -82Q314 -82 306 -82T289 -81Q227 -78 186 -40T144 67Q144 96 152 129T178 201Q197 243 239 290T339 378T465 448T607 483Q615 484 622 484T637 484Q723 484 764 452T806 372Q806 344 793 318Q792
317 788 310T785 300Q791 279 791 257Q791 211 765 160T685 61Q588 -24 497 -53T322 -82ZM297 -64Q389 -69 474 -33T628 64Q683 113 709 156T740 234Q741 236 740 237T737 236Q719 218 694 188T637 126T575 74T513 52Q508 52 503 53T492 56Q470 64 463 79T455 111Q455
116 455 121T457 131Q458 135 454 133Q445 125 431 111T399 81T366 56T337 46Q318 46 298 59T275 92Q272 118 286 149T327 211T386 268T451 310T511 326Q545 326 554 292Q557 292 560 293T566 295Q577 295 583 288T591 275Q591 270 575 246Q567 233 552 213T521
169Q508 149 499 129T490 95Q490 82 496 76T510 70Q522 70 538 79T569 100T596 122T611 136Q639 162 666 190T712 240T739 271Q739 273 739 273Q732 321 696 351T617 393Q607 396 592 397T559 399Q543 399 529 398T506 393Q505 393 504 393T501 392Q494 392 494
397Q494 404 500 407Q538 419 582 419Q637 419 689 398T771 330Q773 334 776 344T780 369Q780 380 777 392T763 418Q747 441 710 448T634 456Q622 456 611 456T590 454Q522 447 461 418T350 345T263 250T206 147T186 51Q186 3 212 -28T297 -64ZM329 64Q349 64 372
80T420 122T466 176T505 230T534 270Q538 274 541 278T545 284Q545 284 545 285T545 286Q539 296 525 296Q506 296 478 282T420 243T363 190T321 134T310 84Q310 80 314 72T329 64Z" />
<glyph unicode="A" glyph-name="A" horiz-adv-x="469" d="M382 -68Q371 -63 366 -52T361 -25Q361 7 376 53T408 143Q421 176 436 221T468 317T500 415T525 498T540 552Q462 521 400 479T285 384T177 269H318Q322 269 336 269T366 267T393 263T405 255Q405 247
386 242T336 233T272 228T211 225T169 224Q150 224 127 203T82 148T40 76T6 2T-15 -57Q-15 -59 -16 -62T-20 -65Q-26 -65 -32 -55T-39 -39Q-39 -12 -26 24T6 97T47 168T86 222Q61 222 35 222T-17 221Q-23 221 -29 225T-38 236Q-34 247 -14 251T32 257T83 260T118
264Q136 286 167 318T238 386T322 457T409 521T490 567T555 585Q563 585 577 583T603 574T615 557Q615 544 602 506T566 416T519 306T471 196T432 108Q409 52 399 18T388 -36Q388 -51 394 -62Q395 -63 390 -66T382 -68Z" />
<glyph unicode="B" glyph-name="B" horiz-adv-x="594" d="M204 -16Q194 -16 184 -16T165 -14H163Q156 -13 138 -12T98 -7T62 2T46 17Q45 22 53 22T63 23Q89 23 114 20L141 17Q140 23 139 28T137 37Q137 41 137 44T136 52Q136 95 155 150T204 266T270 383T339 487T398
562Q385 563 373 563T346 563Q320 563 284 562T223 552Q213 549 203 546T182 543Q181 543 176 543T171 547Q169 566 189 578T237 598T292 609T331 612Q360 612 407 608T507 594T608 567T687 522T723 456Q726 426 707 404T657 364T590 334T522 311T469 291Q501 283
531 263T581 214T605 151Q608 121 583 95T514 49T416 14T307 -8T204 -16ZM278 293H302Q320 293 355 299T435 318T526 346T610 380T672 419T696 461Q696 482 675 498T620 525T549 544T481 555T432 559Q436 554 440 548T445 535V533Q445 525 440 520Q397 465 352
411T278 293ZM169 16Q215 16 268 24T373 46T467 80T535 123T561 174Q561 198 545 216T503 245T452 262T407 268Q386 268 364 262T322 248T291 241Q281 241 274 252T267 272Q244 236 221 195T183 108T169 16Z" />
<glyph unicode="C" glyph-name="C" horiz-adv-x="554" d="M232 -22Q184 -22 143 -7T76 42T45 127Q41 172 59 224T113 330T195 431T292 517T395 577T491 599Q527 599 555 576T583 514Q583 483 563 463T512 442Q511 442 502 443T492 450Q497 462 510 471T535 495T543
542Q542 560 529 567T498 575Q456 575 409 552T317 488T231 397T160 293T113 188T101 95Q106 50 141 28T218 6Q265 6 316 21T416 61T509 111T583 159T629 192Q630 193 631 193Q633 193 633 188Q633 184 632 179T625 169Q593 136 547 103T446 41T337 -4T232 -22Z"
/>
<glyph unicode="D" glyph-name="D" horiz-adv-x="587" d="M217 9Q210 9 194 12T163 21T147 33Q147 39 158 41T182 43T197 44Q234 44 282 58T381 97T479 155T563 227T621 309T636 393Q630 445 606 477T544 528T463 555T375 565T293 567Q256 567 217 565T144 552Q134
549 124 546T103 543Q102 543 97 543T92 547Q90 561 105 571T143 588T192 599T239 604T269 606Q316 606 368 602T471 584T565 545T636 479T671 377Q672 371 672 365T672 354Q672 294 643 242T564 147T454 73T332 26T217 9ZM92 -12Q79 -12 70 -1T57 26T53 49Q53
73 68 118T109 220T166 334T229 440T289 518T335 548Q345 548 363 538T382 517Q383 513 361 487T303 419T230 327T157 225T103 126T87 42Q88 36 90 32T99 28Q110 28 118 34T129 41Q131 41 131 39T132 36Q134 19 122 4T92 -12Z" />
<glyph unicode="E" glyph-name="E" horiz-adv-x="589" d="M228 -16Q173 -16 134 9T87 95Q86 99 86 103T86 111Q86 145 98 180T128 250T159 312Q150 313 136 314T110 321T98 342Q98 347 102 349T112 351Q118 351 124 350T133 349Q161 349 184 367T228 413T265 467T297
514Q294 521 289 521T280 524T274 539Q272 555 291 565T341 581T407 590T474 593T525 594Q563 594 602 593T680 585Q696 581 702 572T709 555Q709 548 705 543T694 537Q684 537 677 551Q661 558 638 558T598 559Q583 559 554 558T493 554T434 546T396 533Q386 527
367 506T325 457T284 406T256 370Q314 369 371 374T486 379H523Q541 379 559 379T596 376Q608 375 608 371Q608 368 600 364T584 357T571 353Q514 344 452 343T330 338T215 310Q211 301 199 278T172 225T148 163T137 102Q137 68 157 46T231 23Q276 23 333 37T449
72T560 118T650 163Q656 166 658 166Q661 166 661 162Q661 157 657 152Q641 129 603 105T513 60T409 21T307 -6T228 -16Z" />
<glyph unicode="F" glyph-name="F" horiz-adv-x="484" d="M105 -7Q93 -7 80 3T66 37Q66 61 76 93T103 159T137 223T167 276Q163 280 159 285T154 297Q154 307 164 313T187 323T208 328Q237 372 264 418T325 505Q306 520 306 533Q306 549 329 559T386 574T449 581Q477
582 515 583T593 584T672 585T738 586Q758 586 771 580T785 566Q785 561 774 557T736 552Q685 552 634 549T532 541Q471 537 432 521T366 478T316 413T261 327Q273 323 299 321T353 319T394 318Q441 318 487 321T580 324Q613 324 613 317Q613 313 602 307T576 297T554
291Q476 281 388 272T219 263Q212 263 198 244T167 195T135 134T110 77T100 40Q100 36 100 30T105 20Q118 10 118 2Q118 -7 105 -7Z" />
<glyph unicode="G" glyph-name="G" horiz-adv-x="750" d="M552 -47Q536 -47 530 -34T523 -8Q523 10 533 32T557 76T578 115Q543 91 494 67T389 24T280 -8T184 -20Q117 -20 77 12T37 115Q37 173 64 232T137 348T242 453T366 539T494 597T613 618Q640 618 661 604T695
566T708 517Q708 495 694 471T659 431T614 414Q610 414 607 416T603 422Q603 427 613 438T636 464T659 497T669 537Q669 561 652 570T613 579Q572 579 516 557T399 495T280 407T175 305T99 200T71 104Q71 71 92 54T142 31T198 25Q232 25 284 35T396 63T509 107T602
165T652 234Q643 237 624 237Q602 237 571 234T507 226T448 217T407 210Q358 198 324 185T272 172Q253 172 253 194Q253 212 278 224T346 245T438 259T537 267T627 271T691 272Q708 272 735 272T791 269T838 261T857 247Q857 241 849 239T828 237Q815 237 802 238T784
240Q758 240 729 220T671 167T619 97T581 26T567 -31Q567 -39 568 -43Q564 -44 560 -45T552 -47Z" />
<glyph unicode="H" glyph-name="H" horiz-adv-x="593" d="M47 -36Q28 -36 19 -25T10 6Q10 35 24 74T59 151T93 214L80 213Q73 212 60 215T47 228Q47 241 62 250T97 265T125 272Q133 285 151 314T194 382T246 459T298 533T345 588T377 609Q388 609 398 598T410
576Q350 503 289 427T181 269Q237 271 294 273T407 275Q465 275 520 272Q524 283 540 311T581 377T633 456T688 530T737 586T771 608Q784 608 794 595T805 570Q805 563 798 556Q732 495 675 419T568 267Q575 266 589 262T604 247Q604 243 590 237T558 223T533 200Q526
187 513 160T487 102T464 43T455 1Q455 -3 456 -7T463 -12Q481 -12 481 -19Q481 -27 469 -27Q446 -27 437 -16T428 18Q428 54 442 93T474 171T506 242Q502 244 498 244T488 244Q428 244 367 240T245 230Q212 226 192 224T158 215T133 194T104 150Q97 138 86 118T64
73T45 28T37 -7Q37 -11 38 -15T45 -19Q55 -19 66 -10T80 0Q82 0 82 -2Q82 -14 71 -25T47 -36Z" />
<glyph unicode="I" glyph-name="I" horiz-adv-x="407" d="M21 -5Q5 -5 5 11Q5 28 25 37T75 52T132 59T172 62Q182 99 203 152T254 264T316 380T382 482T443 552Q419 553 394 545T347 528T307 519Q298 519 292 528T285 544Q285 557 302 564T344 576T397 582T445
587T475 594Q482 597 490 609T505 622Q516 622 529 612T549 594Q584 594 621 593T694 589Q697 589 702 588T709 581Q704 571 679 568T618 560T546 545T482 508Q453 481 421 440T356 350T294 250T241 151T206 66Q250 65 293 66T379 68Q381 68 393 67T406 60Q407
54 399 51T382 46T368 43Q284 36 199 26T31 -4Q29 -4 27 -4T21 -5Z" />
<glyph unicode="J" glyph-name="J" horiz-adv-x="484" d="M130 -43Q83 -43 60 -6T36 83Q36 130 55 177T113 256Q115 258 119 258Q129 258 129 248Q129 243 125 240Q100 221 88 180T75 96Q75 51 90 16T136 -19Q170 -19 210 14T292 101T375 219T449 348T507 465T540
549Q530 548 503 546T443 539T378 527T326 510T305 487Q305 477 321 472T359 463T397 455T414 445Q414 439 403 436T379 431T363 430Q332 430 306 447T279 499Q279 524 301 539T357 564T428 577T498 584T548 588Q553 596 563 607T585 619Q593 619 605 609T623 593Q632
591 656 590T709 585T757 576T778 559Q778 555 770 554T750 553Q735 553 721 554T705 555Q685 555 665 555T624 553Q602 517 570 460T497 335T412 201T320 79T224 -9T130 -43Z" />
<glyph unicode="K" glyph-name="K" horiz-adv-x="586" d="M494 -17Q477 -17 462 -10T434 10Q416 28 392 60T344 129T298 201T263 260Q235 250 203 227T144 171T99 103T84 35Q85 30 87 24T96 18Q102 18 102 8Q102 4 100 0T91 -5Q69 -5 60 10T51 47Q51 80 66 127T105
228T156 334T207 431T247 502Q260 523 272 547T300 591Q305 598 317 600T336 602Q344 602 354 599T365 584Q365 577 362 570T354 556Q309 483 263 411T181 260Q322 327 451 412T710 583Q716 587 722 590T736 593Q741 593 745 591T750 583Q751 575 724 554T653 503T558
442T458 381T373 329T322 296Q326 280 339 247T373 173T416 96T461 34T502 10Q519 10 528 22T542 54T548 91T548 122Q548 124 548 126T547 130Q547 137 553 137Q562 137 568 126T579 102T584 82Q586 57 574 35T541 -2T494 -17Z" />
<glyph unicode="L" glyph-name="L" horiz-adv-x="515" d="M34 -17Q25 -17 22 -14T17 -2Q16 2 16 5T16 12Q16 26 22 34T47 41Q48 75 68 129T121 249T197 378T283 497T370 583T446 616Q459 616 478 606T512 580T529 551Q529 550 529 550T530 547Q530 540 525 540Q512
547 507 553T483 559Q450 559 409 531T323 455T236 350T158 236T101 129T75 48Q148 59 223 62T372 66Q425 66 454 62T494 50T506 37Q506 26 469 26Q452 26 428 27T377 29Q334 29 304 28T242 22T160 10Q152 9 133 5T92 -5T54 -13T34 -17Z" />
<glyph unicode="M" glyph-name="M" horiz-adv-x="820" d="M51 -31Q32 -31 32 8Q32 27 49 68T94 165T159 281T233 400T306 505T369 581T412 609Q419 609 431 602T453 586T463 570Q463 552 459 532T451 493Q449 483 443 449T432 370T426 285Q426 247 434 220T463
193Q490 193 529 218T612 282T701 366T783 450T846 515T877 540Q880 540 880 536Q880 528 873 516Q861 493 836 459T776 384T704 305T626 234T551 183T486 163Q440 163 416 188T383 254T374 339Q374 390 379 427T391 513Q346 466 295 403T196 267T113 123T66 -15Q65
-21 62 -26T51 -31ZM763 1Q741 1 735 22T728 60Q728 79 737 117T763 206T799 310T843 417T890 510T934 577T971 602Q979 602 996 594T1013 575Q1013 572 995 545T949 473T888 376T828 265T781 156T763 62V54Q763 47 765 41T774 34Q786 34 786 22Q786 15 780 8T763
1Z" />
<glyph unicode="N" glyph-name="N" horiz-adv-x="578" d="M61 -27Q39 -27 29 -17T18 16Q18 47 36 95T85 201T149 314T214 416T265 490Q262 491 256 493T250 500Q250 505 264 520T299 554T336 586T360 600Q376 600 389 587T403 557Q403 553 401 549Q398 534 389
495T369 404T351 294T343 187Q343 129 357 89T410 49Q444 49 478 81T545 164T604 274Q613 294 626 328T651 403T672 482T681 548Q681 587 660 587Q652 587 644 584T625 580Q622 580 618 581T613 587Q613 597 625 605T652 618T676 623Q706 623 719 603T733 547Q733
506 717 450T673 333T609 214T534 108T455 32T380 4Q346 4 327 24T299 79T291 157Q291 206 299 259T318 362T340 449T357 504Q332 476 293 429T212 324T131 208T70 97T46 6Q46 1 47 -5T56 -11Q74 -11 74 -19Q74 -27 61 -27Z" />
<glyph unicode="O" glyph-name="O" horiz-adv-x="698" d="M260 -15Q100 -15 100 146Q100 202 122 254T181 355T259 445T340 521Q291 504 246 476T161 412Q152 404 145 404Q139 404 139 411Q139 417 145 426Q187 482 251 521T390 580T532 601Q582 601 630 589T717
552T779 485T802 387Q802 333 776 283T704 187T603 105T485 41T366 0T260 -15ZM252 18Q308 18 375 41T509 104T632 198T721 310T755 431Q755 472 736 499T687 541T620 563T551 570Q515 570 480 565T409 548Q418 547 431 542T454 529T464 509Q464 500 453 496Q416
484 373 457T288 393T212 311T156 222T135 136Q135 18 252 18Z" />
<glyph unicode="P" glyph-name="P" horiz-adv-x="461" d="M260 235Q254 235 243 235T221 239Q205 244 205 249Q205 253 211 255T224 258Q257 263 304 273T401 299T494 338T564 391T591 460Q591 491 573 512T527 546T465 567T402 576T351 579Q299 579 237 567T115
536T9 494Q8 493 5 492T0 491Q-5 491 -5 499Q-5 519 17 534T74 562T150 582T231 596T301 603T344 606Q371 606 407 603T481 590T551 565T605 523T630 459Q634 410 609 373T541 310T447 267T347 243T260 235ZM75 -14Q67 -14 61 -4T52 18T48 36Q45 70 58 116T96 214T151
320T214 421T276 509Q283 518 291 532T309 557T332 568Q339 568 344 564Q353 559 360 551T368 534Q368 529 347 503T291 434T219 340T148 229T96 113T81 0V-3Q81 -7 80 -10T75 -14Z" />
<glyph unicode="Q" glyph-name="Q" horiz-adv-x="694" d="M644 -100Q618 -100 586 -88T521 -59T460 -24T415 5T395 17L340 2Q306 -8 270 -14T197 -20Q123 -20 74 18T24 135Q24 190 47 245T105 351T176 441Q171 448 171 456Q171 481 196 503T259 544T340 575T419
595T475 602Q527 602 576 587T666 543T731 470T755 369Q755 327 735 285T680 205T605 133T522 76T444 39Q467 18 500 -6T570 -47T639 -65Q658 -65 668 -58T679 -30Q679 -4 688 -4Q695 -4 702 -16T709 -41Q709 -69 690 -84T644 -100ZM193 17Q237 17 276 26T357 46Q329
67 300 92T236 127Q229 123 224 120T213 117Q206 117 203 124T200 149Q200 166 208 179T236 192Q251 192 275 177T327 139T377 97T414 65Q444 76 483 102T564 163T640 238T696 317T718 391Q718 438 695 471T634 526T554 557T472 568Q459 568 445 566T418 562Q425
560 434 555T443 542Q443 535 436 532T423 526Q370 506 318 481T221 420Q180 388 142 339T80 233T56 122Q56 82 76 59T127 27T193 17Z" />
<glyph unicode="R" glyph-name="R" horiz-adv-x="554" d="M487 -17Q469 -17 455 -10T427 10Q409 27 387 55T342 115T298 179T263 235Q256 235 247 236T230 239Q215 244 215 249Q215 253 221 255T234 258Q267 263 314 272T410 298T503 337T574 390T601 460Q601
491 583 512T537 546T475 567T412 576T360 579Q308 579 246 567T124 536T18 494Q17 493 15 492T10 491Q4 491 4 499Q4 519 26 534T83 562T160 582T240 596T310 603T354 606Q382 606 419 603T494 590T566 562T619 517T640 448Q640 398 610 361T533 299T431 260T328
239Q339 211 358 172T402 96T450 35T494 10Q511 10 520 22T534 54T539 91T540 122V128Q540 137 545 137Q554 137 561 126T572 102T576 82Q578 57 566 35T533 -2T487 -17ZM99 -49Q77 -49 68 -34T59 4Q59 37 74 84T112 185T163 291T214 387T255 458Q267 479 280 503T308
547Q313 554 325 556T344 558Q352 558 362 555T372 540V538Q372 525 361 512Q316 439 272 372T188 228Q179 212 163 183T130 118T101 50T92 -9Q92 -14 94 -20T104 -26Q109 -26 109 -35Q109 -40 107 -44T99 -49Z" />
<glyph unicode="S" glyph-name="S" horiz-adv-x="448" d="M255 -34Q248 -34 241 -34T228 -33Q219 -32 198 -26T155 -11T117 11T101 37Q101 43 108 43Q125 43 142 34T179 23Q187 22 196 22T218 21Q243 21 270 25T316 42T336 76Q336 90 318 111T273 161T218 224T173
299T154 382Q154 436 180 476T248 541T340 579T438 592Q462 592 483 589Q510 586 541 576T596 544T619 487Q619 450 596 416T539 357T473 318Q467 315 461 315Q456 317 456 320Q461 331 480 350T523 394T564 445T582 500Q582 518 569 527T539 542T508 549Q502 550
496 550T483 550Q438 550 387 535T289 491T214 425T185 339Q185 311 205 280T255 215T315 150T365 87T385 30Q385 5 364 -9T312 -28T255 -34Z" />
<glyph unicode="T" glyph-name="T" horiz-adv-x="360" d="M52 505Q15 505 15 541Q15 555 36 564T91 580T165 590T242 594T307 596T344 597H399Q476 597 555 594T707 577Q711 576 721 574T741 567T751 555Q751 550 743 549T728 547Q715 547 701 549T673 553Q632
560 589 561T502 562Q426 562 349 560T196 548Q194 540 175 532T131 518T83 509T52 505ZM133 -65Q111 -65 102 -50T93 -13Q93 21 108 68T147 169T198 275T249 371T289 442Q301 463 314 487T342 531Q347 538 359 540T378 542Q386 542 396 539T407 525Q407 517 404
510T396 496Q351 423 306 356T222 212Q214 196 198 168T166 105T138 38T126 -20Q126 -24 127 -33T138 -42Q143 -42 143 -51Q143 -56 141 -60T133 -65Z" />
<glyph unicode="U" glyph-name="U" horiz-adv-x="492" d="M469 -55Q448 -55 436 -35T416 15T407 71T404 112Q404 141 406 170T413 227Q390 201 354 164T274 91T187 31T108 7Q65 7 44 36T22 105Q22 132 33 173T64 262T105 358T147 446T183 510Q197 530 208 549T234
580T275 593Q292 593 299 589T306 579Q306 569 294 555T273 528Q253 500 226 460T170 372T117 276T77 180T61 94Q61 75 68 57T101 38Q153 38 203 69T300 152T387 262T460 377T512 473Q526 500 539 531T568 587Q576 598 586 602T609 606Q614 606 624 605T642 599T651
586Q651 581 622 537T558 425Q506 323 479 233T452 72Q452 2 478 -47V-49Q478 -55 469 -55Z" />
<glyph unicode="V" glyph-name="V" horiz-adv-x="336" d="M100 0Q93 0 92 4T90 13Q90 35 96 63T106 114Q112 155 116 202T121 297Q121 371 106 443T51 570Q48 575 57 584T78 600T97 606Q114 605 126 577T147 508T161 422T168 344T170 295Q170 257 169 217T159
139Q169 154 194 187T255 266T331 361T413 458T490 544T552 606T590 629Q597 629 597 618Q597 609 585 593T553 557T513 518T478 486T458 467Q412 417 366 358T278 240T207 130T165 43Q162 35 150 25T124 7T100 0Z" />
<glyph unicode="W" glyph-name="W" horiz-adv-x="867" d="M89 1Q62 1 48 18T28 59T22 104Q22 144 39 198T87 310T155 424T234 523T315 587Q323 592 342 597T372 603Q381 603 381 599Q381 596 372 588Q340 561 284 502T160 342Q119 281 90 216T60 89Q60 73 67 57T94
40Q117 40 150 60T217 109T281 168T328 215Q377 266 421 322T500 435Q507 446 515 465T534 499T559 514Q569 514 581 511T601 498Q606 491 606 482Q606 469 601 455T592 431Q570 360 549 291T528 142Q528 121 532 97T551 55T593 38Q632 38 673 67T754 143T825 246T880
356Q885 368 893 394T909 452T916 514Q916 540 908 559T878 583Q873 584 865 585T857 595Q857 604 866 605T882 607Q933 607 952 574T971 496Q971 453 959 408T935 337Q909 280 870 223T784 117T689 40T597 10Q559 10 536 26T501 68T485 125T480 186Q480 224 484
261T490 335Q465 311 429 272T352 190Q308 144 261 101T170 29T89 1Z" />
<glyph unicode="X" glyph-name="X" horiz-adv-x="531" d="M32 -8Q16 -8 10 3T4 29Q4 52 21 83T67 147T126 212T184 270T228 311Q225 322 219 348T206 407T191 472T180 529T175 561Q175 579 185 585T212 591Q230 591 234 572Q246 522 256 465T276 355Q288 366 318
393T387 455T468 523T543 579Q564 593 584 599T613 606Q624 606 624 601Q624 596 615 589Q593 572 569 556T522 523Q460 477 400 427T283 324Q287 305 295 272T316 201T345 128T383 72T429 50Q440 50 452 58T474 74Q494 89 510 110T539 148T559 165Q565 165 565
158Q565 140 547 115T501 64T445 21T397 4Q367 4 343 25T301 79T270 150T249 222T235 278Q215 259 184 228T120 161T67 90T45 27Q45 16 50 6Q49 4 43 -2T32 -8Z" />
<glyph unicode="Y" glyph-name="Y" horiz-adv-x="336" d="M178 -47Q137 -43 137 -1Q137 20 147 48T171 108T200 166T225 210T235 230Q235 236 233 240T231 251Q231 256 237 268T244 291Q244 337 221 383T172 465Q169 436 164 436Q159 436 149 456T121 505T70 556Q61
563 61 570Q61 585 75 593T102 601Q127 601 152 576T199 512T239 428T268 346T280 287Q334 351 387 416T502 539Q504 552 519 568T553 597T583 610Q597 610 609 598T621 571Q621 561 611 554Q580 533 536 495T442 407T345 303T258 194T195 90T171 3Q171 -16 173
-19T188 -23Q202 -23 202 -30Q202 -36 195 -42T178 -47Z" />
<glyph unicode="Z" glyph-name="Z" horiz-adv-x="649" d="M534 6Q437 6 339 16T142 27Q126 27 106 26T74 19Q66 15 58 11T40 7Q31 7 24 12T11 25Q8 30 8 34Q8 46 23 62T59 95T102 127T137 152Q253 238 364 331T586 517Q579 524 557 529T505 538T445 544T391 548T356
549Q303 549 249 542T148 509Q141 505 132 502T117 498Q111 498 111 503Q111 507 117 519Q132 544 164 560T234 586T310 600T373 604Q392 604 427 603T502 599T576 592T627 581Q644 574 655 560T666 525Q666 521 665 516T660 509Q614 478 569 448T480 383Q390 313
298 233T116 82L129 83Q137 84 144 84T159 84Q218 84 278 72T399 47T518 34Q537 34 560 38T601 55T618 92Q618 116 604 136T571 171T538 197T524 213Q524 218 528 219T536 220Q567 220 595 204T641 162T660 104Q660 69 641 48T593 16T534 6Z" />
<glyph unicode="[" glyph-name="bracketleft" horiz-adv-x="455" d="M136 -75Q125 -75 119 -65T113 -44Q113 -36 116 -30Q145 27 187 107T279 280T379 469T475 655Q481 668 491 677T529 686H643Q650 686 662 686T683 683T693 674Q693 666 681 661T652 652T618
649H534L163 -38H312Q321 -38 335 -38T362 -41T374 -50Q374 -58 359 -63T323 -72T280 -75H136Z" />
<glyph unicode="\" glyph-name="backslash" horiz-adv-x="603" d="M565 -104Q556 -104 546 -100T530 -91L87 638Q82 648 82 652Q82 660 89 663T106 667Q118 667 130 662T149 648Q185 590 227 517T314 362T405 200T493 44T574 -89Q577 -93 577 -97Q577 -104 565 -104Z" />
<glyph unicode="]" glyph-name="bracketright" horiz-adv-x="496" d="M88 -75Q81 -75 69 -75T48 -71T38 -63Q38 -55 50 -50T79 -41T113 -38H197L568 649H419Q411 649 396 649T369 653T357 661Q357 669 372 674T409 683T451 686H595Q606 686 612 676T618 655Q618
647 615 641Q586 584 544 504T452 331T352 142T256 -44Q250 -57 241 -66T202 -75H88Z" />
<glyph unicode="^" glyph-name="asciicircum" horiz-adv-x="370" d="M332 334Q320 335 300 345T256 370T214 399T186 422Q181 418 164 405T128 376T92 349T72 338Q69 338 67 341T64 348Q64 352 76 364T106 392T144 423T178 449T200 461L206 459Q234 428 266 402T331
351L336 341L332 334Z" />
<glyph unicode="_" glyph-name="underscore" horiz-adv-x="850" d="M57 -63Q48 -63 44 -52T40 -34Q40 -26 44 -21T57 -15H797Q808 -15 816 -23T825 -43L818 -50Q676 -50 535 -51T251 -57Q202 -58 154 -60T57 -63Z" />
<glyph unicode="`" glyph-name="grave" horiz-adv-x="150" d="M143 348Q140 348 122 354T81 370T38 387T11 399Q7 401 4 405T0 416Q0 421 4 429T15 438Q20 438 25 436T43 426Q64 413 93 395T145 360Q147 359 148 357T150 353Q150 348 143 348Z" />
<glyph unicode="a" glyph-name="a" horiz-adv-x="314" d="M230 -9Q221 -9 210 -1T190 17T182 37Q182 52 193 77T218 128T241 165Q227 153 206 127T160 71T113 20T74 -1Q52 -1 39 14T25 52Q25 82 42 116T86 183T146 243T210 286T267 302Q294 302 311 290T328 252Q328
248 327 237T319 226Q316 226 310 235T292 253T264 262Q236 262 206 242T147 190T98 125T66 68Q63 61 61 53T58 37Q58 28 63 28Q68 28 84 39T108 55Q143 80 174 112T231 178Q239 189 246 200T260 221Q265 228 270 228Q281 228 291 213T302 187Q302 182 301 181T294
175Q279 160 265 133T240 79T224 32Q223 29 223 25T227 21Q237 24 259 43T308 88T356 136T385 167Q387 169 389 171T395 174Q402 174 402 167Q402 163 386 144T346 99T297 49T254 8T230 -9Z" />
<glyph unicode="b" glyph-name="b" horiz-adv-x="323" d="M92 -24Q65 -24 49 -16T32 5Q32 28 46 53T68 92Q92 137 127 193T205 308T295 419T392 509Q405 520 417 528T434 536Q443 535 450 525T458 505Q458 497 444 486Q438 482 426 473T403 454Q356 414 307 364T213
255T132 135Q148 150 171 172T222 218T274 262T318 296T344 309Q361 309 375 290Q383 278 384 269T386 251Q386 218 361 175T303 92Q280 64 245 38T169 -6T92 -24ZM119 6Q150 6 180 27T237 78T279 130Q291 146 302 167T321 209T329 242Q329 255 319 255Q304 255
279 237T227 194T177 146T144 113Q78 49 78 28Q78 6 119 6Z" />
<glyph unicode="c" glyph-name="c" horiz-adv-x="249" d="M99 -14Q66 -14 47 8T27 64Q27 96 47 134T100 208T168 271T231 308Q244 313 255 313Q268 313 272 307T278 294T287 283Q298 277 298 262Q298 251 293 236T277 209T253 197Q240 197 240 208Q240 215 247
223T261 240T268 259Q268 268 259 268Q242 268 217 251T166 205T117 146T80 86T66 40Q66 27 72 19T92 10Q113 10 139 22T188 51T227 81Q255 106 281 131T334 183Q337 186 341 186Q350 186 350 178Q350 174 334 157T296 117T255 77T230 54Q214 40 192 24T145 -3T99
-14Z" />
<glyph unicode="d" glyph-name="d" horiz-adv-x="306" d="M222 -9Q213 -9 202 -2T181 16T172 36Q172 48 180 67T200 107T223 147T241 175Q233 165 216 145T179 100T137 53T97 16T68 1Q61 1 45 14T28 56Q28 79 42 112T81 180T133 247T190 297T242 316Q260 316 277
305T297 263Q319 292 341 319T405 392Q410 398 424 413T456 447T491 481T521 501Q526 503 541 496T556 477Q556 471 551 466Q545 459 531 445T498 415T465 386T443 364Q359 275 299 194T219 51Q214 36 214 30Q214 21 219 21Q223 21 229 25T243 36Q259 49 279 68T320
107T355 143T377 167Q379 169 381 171T387 174Q394 174 394 167Q394 163 378 144T338 99T289 49T246 8T222 -9ZM78 36Q82 36 87 41Q138 85 184 137T272 243Q267 253 259 259T239 266Q219 266 196 249T152 211T120 175Q102 153 86 119T69 55Q69 36 78 36Z" />
<glyph unicode="e" glyph-name="e" horiz-adv-x="218" d="M98 9Q38 9 38 68Q38 91 50 121T84 183T131 240T184 283T236 300Q244 300 247 297T253 285Q255 281 256 276T259 266Q263 259 266 252T269 237Q269 227 264 220T252 206Q242 197 222 184T179 157T134 133T99
121Q90 107 81 87T71 49Q71 40 75 33T90 26Q106 26 132 41T188 79T241 123T278 157L310 191Q316 197 323 197Q329 197 329 192Q329 186 312 168T272 127T228 86T202 62Q181 44 154 27T98 9ZM116 147Q126 153 146 166T189 195T226 227T242 255Q242 258 241 260Q240
261 237 261Q224 261 206 247T170 214T138 176T116 147Z" />
<glyph unicode="f" glyph-name="f" horiz-adv-x="354" d="M-6 -374Q-100 -374 -100 -273Q-100 -230 -82 -167Q-69 -125 -44 -73T15 35T86 147T161 256Q144 250 123 243T91 236Q86 238 85 243T83 254Q83 267 89 280T109 294Q125 296 149 298T194 303L209 323Q228
350 258 391T327 479T408 574T495 659T583 721T664 744Q691 744 702 721T714 673Q714 642 699 619T660 575T611 535T567 491T542 434Q541 430 541 425T535 428Q528 438 528 453Q528 481 551 517T608 590T672 657Q677 662 683 670T689 686Q689 698 667 698Q649 698
621 681T559 637T493 581T435 528T397 491Q360 455 314 405T229 306Q248 307 272 309T319 314T358 316Q361 316 368 315T375 310Q375 306 365 305T353 302Q333 299 313 295T273 287Q264 285 243 280T202 269Q197 261 192 254T183 238Q259 240 293 198T327 88Q327
41 312 -13Q295 -77 263 -141T188 -258T96 -342T-6 -374ZM9 -349Q47 -349 81 -326T146 -266T201 -184T244 -95T271 -14Q277 10 280 33T284 77Q284 133 259 172T177 214Q168 202 150 175T110 111T65 38T25 -31T-3 -85Q-10 -101 -23 -133T-47 -203T-58 -274Q-58 -306
-43 -327T9 -349Z" />
<glyph unicode="g" glyph-name="g" horiz-adv-x="307" d="M-151 -383Q-197 -383 -197 -337Q-197 -332 -197 -327T-195 -317Q-187 -281 -161 -248T-100 -187T-29 -134T37 -91Q54 -80 80 -64T137 -30T194 5Q205 33 213 67T221 135Q209 122 189 100T146 55T99 18T57
2Q38 2 28 20T18 55Q18 83 34 116T77 181T136 240T200 283T259 299Q280 299 297 285T314 248Q314 241 311 234T299 226Q292 226 288 231T278 242T257 248Q235 248 210 234T162 199T125 164Q106 144 89 116T61 62Q58 55 56 46T53 29Q53 19 60 19Q62 19 64 19T68
21Q97 33 129 64T189 131T234 194L238 200Q244 219 264 219Q270 219 276 216T282 205Q282 161 278 128T259 53Q279 69 296 84T331 117Q347 133 361 150T392 182Q394 184 396 185T402 187Q408 187 408 181Q408 176 394 160T358 121T313 77T271 37T245 13Q199 -108
126 -197T-61 -352Q-80 -363 -104 -373T-151 -383ZM-128 -358Q-101 -358 -70 -339T-7 -290T49 -233T90 -185Q107 -162 123 -140T153 -93Q174 -58 188 -25Q189 -22 187 -22T184 -21Q153 -43 122 -64T58 -107Q42 -117 15 -136T-43 -180T-102 -231T-148 -283T-166
-329Q-166 -345 -154 -351T-128 -358Z" />
<glyph unicode="h" glyph-name="h" horiz-adv-x="339" d="M217 -11Q202 -11 182 -1T162 26Q162 41 173 64T200 113T233 163T262 205T278 229Q292 248 295 253T299 261Q291 255 274 243T240 217T215 197Q159 148 122 104T52 9Q51 8 47 8T41 7Q35 7 24 10T14 23Q20
38 30 55T58 101T105 185Q114 202 135 241T188 330T259 429T345 518T441 574Q454 579 464 579Q483 579 490 567T511 546Q519 541 519 530Q519 514 493 487T425 427T339 362T255 303T194 261Q190 253 179 236T154 198T130 161T116 137Q144 163 175 192T237 248T291
294Q296 298 303 299T316 300Q330 300 349 288T368 259Q368 248 356 237Q326 210 295 175T239 100Q232 88 220 65T207 28Q207 18 213 18Q225 18 246 31T293 64T344 107T390 148T419 177Q425 183 429 183Q435 183 435 177Q435 174 431 168Q418 151 393 126T338 74T281
26T235 -7Q228 -11 217 -11ZM215 300Q223 306 242 319T286 350T335 385T375 417Q407 445 428 463T466 505Q470 510 471 514T472 521Q472 527 467 530T453 533Q438 533 414 517T362 475T306 417T254 356T215 300Z" />
<glyph unicode="i" glyph-name="i" horiz-adv-x="209" d="M270 377Q247 377 247 394Q247 406 260 420T298 440Q313 444 322 444T341 448Q337 429 325 407T292 380Q282 377 270 377ZM110 -21Q94 -21 81 -8T64 20Q67 39 77 66T102 124T130 180T154 223Q135 206 114
185T73 146Q72 145 69 142T62 139Q55 139 55 145Q55 150 59 154Q86 184 115 214T173 276Q182 287 188 293T209 300Q215 300 227 298T248 289T251 274Q244 263 227 238T189 181T147 117T113 58T100 19Q100 13 104 13Q110 13 124 24T153 47T173 64Q202 89 230 115T283
171Q285 173 288 177T296 181Q301 181 301 175Q301 168 296 161Q283 145 267 130T237 99Q211 73 187 48T138 -5Q133 -11 126 -16T110 -21Z" />
<glyph unicode="j" glyph-name="j" horiz-adv-x="219" d="M205 377Q182 377 182 394Q182 406 195 420T233 440Q248 444 257 444T276 448Q272 429 260 407T227 380Q217 377 205 377ZM-239 -383Q-285 -383 -285 -337Q-285 -332 -285 -327T-283 -317Q-275 -281 -249
-248T-188 -187T-117 -134T-51 -91Q-34 -80 -8 -64T49 -30T106 5Q116 27 125 60T142 126T150 184Q146 191 141 199T136 215Q136 225 141 240T155 266T176 278Q178 278 180 278T184 277Q198 274 202 270T207 249Q207 203 196 150T171 53Q191 69 208 84T243 117Q259
133 273 150T304 182Q306 184 308 185T314 187Q320 187 320 181Q320 176 306 160T270 121T225 77T183 37T157 13Q111 -108 38 -197T-149 -352Q-168 -363 -192 -373T-239 -383ZM-216 -358Q-189 -358 -158 -339T-95 -290T-39 -233T2 -185Q19 -162 35 -140T65 -93Q86
-58 100 -25Q101 -22 99 -22T96 -21Q65 -43 34 -64T-30 -107Q-46 -117 -73 -136T-131 -180T-190 -231T-236 -283T-254 -329Q-254 -345 -242 -351T-216 -358Z" />
<glyph unicode="k" glyph-name="k" horiz-adv-x="361" d="M254 -16Q208 -16 190 14T172 87Q172 111 176 136T186 187Q174 180 157 165T118 127Q101 93 88 62T59 4Q56 0 51 -1T41 -2Q20 -2 20 17Q20 39 42 59L114 187Q105 180 97 172T79 155Q75 151 70 151Q66 151
66 155Q66 159 71 166Q94 195 127 230T201 327Q214 347 238 377T290 441T348 505T399 557Q410 566 418 572T430 579Q439 579 447 569T456 548Q456 537 448 533Q436 523 426 515T404 497Q377 473 344 438T278 363T214 283T160 206Q162 204 164 204Q167 204 171 207T183
217Q218 247 259 278T338 336Q349 343 360 348T385 354Q393 354 400 352T412 343Q422 340 431 333T441 314Q441 299 426 286T400 264Q366 242 321 227T232 203Q225 172 220 140T214 80Q214 52 221 34T247 16Q258 16 274 26T308 51T340 80T363 101Q372 109 389 125T422
157T445 180Q446 181 448 181Q453 181 453 174Q453 166 441 153L424 134Q383 88 344 47T274 -11Q264 -16 254 -16ZM239 229Q250 231 273 238T320 256T363 279T385 305Q382 312 374 312Q367 312 348 302T307 277T266 249T239 229Z" />
<glyph unicode="l" glyph-name="l" horiz-adv-x="233" d="M119 -10Q102 -10 78 3T45 31Q39 41 39 55Q39 87 62 140T122 256Q138 284 163 321T221 397T288 473T359 536T427 574Q440 579 450 579Q469 579 476 567T497 546Q505 541 505 530Q505 507 480 475T415 407T329
336T241 270T168 220T130 195Q115 167 102 131T89 63Q89 51 92 37T112 22Q127 22 147 33T186 57T216 80Q242 101 262 123T309 173Q311 175 313 176T318 178Q324 178 324 171Q324 165 319 160Q279 116 236 69T139 -5Q129 -10 119 -10ZM162 247Q177 252 204 271T264
318T332 375T396 434T445 483T468 512Q470 518 470 520Q470 528 463 531T446 534Q441 534 436 533T427 531Q410 525 382 502T322 445T259 374T202 304T162 247Z" />
<glyph unicode="m" glyph-name="m" horiz-adv-x="528" d="M439 -12Q428 -12 413 -4T387 17T375 43Q375 60 389 86T423 140T463 192T495 232Q509 250 508 252T507 258Q479 244 444 217T377 159T325 105Q311 89 299 72T274 36Q267 26 257 15T233 4Q226 4 221 9T215
21Q215 35 233 63T272 126Q285 148 300 171T327 214T339 240H338Q335 240 325 235T313 229Q264 196 220 147T138 54Q131 45 123 36T107 17Q103 13 96 11T83 8Q77 8 67 12T56 26Q56 38 67 61T94 113T129 170T163 222T186 257Q155 230 131 208T75 147Q73 145 67 139T55
132Q53 132 51 135T49 140Q50 145 63 160T95 196T133 236T166 271T184 290Q206 313 223 327T257 341Q266 341 278 333T290 314Q290 310 288 309Q243 272 208 225T142 130Q141 129 136 119T123 97T111 76T107 68Q160 118 218 174T332 277Q340 284 350 289T371 294Q383
294 390 287T398 267Q398 254 390 241T375 217Q365 199 354 181T337 152Q383 193 425 231T510 298Q520 305 534 305Q543 305 557 302T583 293T595 276Q595 270 591 265T582 255L535 215Q522 203 504 182T468 135T439 82T427 32Q427 18 434 18Q438 18 443 20T454
26Q475 38 499 61T546 110T588 156T615 181Q617 183 620 182T624 178Q624 174 620 169T614 161Q597 141 583 123T550 84Q529 60 504 34T450 -9Q446 -12 439 -12Z" />
<glyph unicode="n" glyph-name="n" horiz-adv-x="357" d="M250 -11Q235 -11 217 -3T198 24Q198 45 214 74T252 134T294 195T324 244Q318 241 305 233T278 216T259 202Q216 170 185 136T121 58Q113 46 105 33T87 8Q83 3 74 -2T56 -7Q43 -7 43 7Q43 19 55 44T87
101T127 164T165 221T189 258Q187 255 178 248T161 233T148 222Q129 204 111 185T75 147Q73 145 68 141T58 137Q53 137 53 142Q53 147 67 163T102 201T145 246T185 287T208 312Q218 325 229 333T257 341Q266 341 279 333T292 313Q292 309 290 308Q260 283 232 249T178
179T132 112Q156 139 186 165T244 215L315 273Q322 279 329 286T344 298Q352 303 361 303T381 302Q392 302 402 296T413 277Q413 264 407 258T392 243Q375 227 351 201T302 145T262 85T246 28Q246 25 246 22T247 16Q268 24 293 42T345 84T393 130T431 171Q433 173
435 176T442 179Q447 179 447 172Q447 168 444 163Q425 138 393 104T327 40T266 -7Q259 -11 250 -11Z" />
<glyph unicode="o" glyph-name="o" horiz-adv-x="293" d="M95 -11Q66 -11 52 12T38 61Q38 95 56 134T99 210T145 269Q150 275 158 275Q167 275 176 268Q197 283 224 295T278 307Q323 307 323 261Q323 217 302 180T254 108Q247 99 241 91T226 75Q270 87 303 115T368
173Q372 177 375 179T385 182Q390 182 390 175Q390 174 387 170T383 164Q350 124 302 90T200 47Q181 28 152 9T95 -11ZM173 68Q177 68 180 68T188 69Q208 93 229 126T266 194T281 259Q281 277 264 277Q247 277 225 267T188 246V243Q188 233 173 215T140 177T114
145Q111 112 127 90T173 68ZM96 6Q115 6 133 20T165 46Q141 48 122 62T86 95Q83 89 78 72T73 38Q73 25 78 16T96 6Z" />
<glyph unicode="p" glyph-name="p" horiz-adv-x="284" d="M-4 -324Q-43 -324 -57 -301T-72 -245Q-72 -219 -66 -192T-53 -142Q-18 -26 42 76T186 267Q181 274 172 282T162 298Q162 308 168 311T182 315Q184 315 198 314T225 303L278 358Q284 364 289 370T300 382Q305
387 310 390T323 393Q334 393 339 386T344 369Q344 359 339 352T326 336Q310 320 290 303T260 273Q276 258 286 245T303 211Q306 201 308 191T310 170Q310 132 290 99T235 42T161 3T83 -11Q73 -11 63 -8T44 3Q31 -19 18 -53T-6 -125T-23 -196T-30 -250Q-30 -271
-23 -283T1 -296Q4 -296 17 -296T42 -289Q44 -303 30 -313T-4 -324ZM114 12Q119 12 123 12T132 14Q166 20 196 38T244 85T263 153Q263 176 253 202T219 243Q182 205 137 150T55 29Q60 34 64 34Q69 34 73 30T79 24Q91 12 114 12Z" />
<glyph unicode="q" glyph-name="q" horiz-adv-x="293" d="M125 -263Q121 -263 115 -261Q94 -252 77 -244T59 -208Q59 -194 67 -173T96 -104Q102 -91 115 -62T148 5T191 85T239 163Q227 149 206 123T158 69T107 22T64 2Q45 2 36 20T27 54Q27 80 44 114T88 183T149
247T214 295T271 313Q295 313 311 297T328 256Q328 252 327 244T318 236Q314 236 308 243T291 257T262 264Q237 264 212 249T165 212T128 173Q118 161 102 140T73 95T60 55Q60 41 72 41Q74 41 78 42T85 44Q106 55 131 77T182 127T230 181T267 229Q274 229 286 228T309
222T320 209Q320 205 317 200Q309 186 299 173T279 145Q259 116 230 72T173 -24T125 -126T106 -217Q106 -241 115 -241T145 -242Q147 -242 149 -242T153 -243Q157 -244 157 -249Q157 -258 145 -260T125 -263Z" />
<glyph unicode="r" glyph-name="r" horiz-adv-x="256" d="M161 -12Q145 -12 128 4T110 37Q110 57 124 82T157 132T190 173T204 197V199Q195 207 187 214T165 222Q155 222 140 210T108 182T79 152T60 133Q56 129 53 128T47 127Q43 127 43 131Q43 135 47 139Q63
160 84 182T122 222T142 249Q150 272 158 290T186 324Q194 332 205 337T227 342Q237 342 243 337T250 320Q250 308 240 296T215 274T191 255T181 242Q187 238 204 232T229 226Q237 226 244 229T258 232Q268 232 278 226T288 208Q288 198 281 190T265 175Q253 166
233 148T193 108T158 65T143 27Q143 23 145 19Q146 18 149 18Q169 18 194 36T244 80T292 131T331 171Q333 173 336 175T342 177Q347 177 347 170Q347 166 334 150T299 112T256 67T214 27T187 2Q176 -7 171 -9T161 -12Z" />
<glyph unicode="s" glyph-name="s" horiz-adv-x="318" d="M185 -42Q173 -42 161 -37T136 -22Q123 -11 111 9T91 51L14 -33Q11 -36 10 -36Q6 -36 6 -30Q6 -21 12 -15L86 69Q83 81 83 92Q76 97 65 104T53 130Q53 151 66 171T88 191Q95 191 95 179Q95 175 95 158T97
124T99 100Q105 96 109 95Q148 140 191 188T268 270Q285 296 305 314T353 332Q372 332 380 325T388 309Q388 300 381 293T359 285Q337 286 321 284T298 269Q291 256 282 226T265 158T250 84Q271 88 290 94T333 117T386 164Q391 170 396 170Q399 170 399 166Q399
164 397 159T389 146Q377 130 360 115T329 91Q302 75 278 72T247 67Q243 46 240 33T236 13Q231 -16 217 -29T185 -42ZM208 84Q213 107 221 145T245 221Q219 192 188 158T126 90Q145 86 167 85T208 84ZM170 6Q178 6 186 17T203 61Q203 64 204 65Q180 66 158 68T115
78L107 69Q115 53 126 37T151 13Q156 10 161 8T170 6Z" />
<glyph unicode="t" glyph-name="t" horiz-adv-x="201" d="M122 -26Q104 -26 92 -14T73 15T66 49Q66 65 70 80T81 111Q94 140 112 175T152 248T196 317Q179 310 157 302T127 293Q123 294 122 299T120 309Q120 330 140 337Q171 347 223 355Q261 405 305 455T396
534Q405 540 416 529T428 505Q428 494 420 490Q380 465 346 434T276 362Q296 365 311 366T330 367Q333 367 340 367T355 368Q367 368 377 366T388 359Q388 355 380 353T361 350T346 348Q316 344 293 340T249 330Q226 302 214 283T193 249T172 214Q146 164 128 112T109
28Q109 23 110 20T116 17Q122 17 127 20T137 28Q151 39 163 53T188 81Q210 105 233 128T278 174Q280 176 282 177T286 179Q293 179 293 171Q293 168 289 162Q277 146 263 131T236 99Q210 68 185 38T134 -24Q131 -25 128 -25T122 -26Z" />
<glyph unicode="u" glyph-name="u" horiz-adv-x="353" d="M275 -7Q255 -7 233 10T211 49Q211 69 221 96T244 145Q213 112 182 79T120 12Q110 0 96 0Q77 0 61 20T44 58Q44 63 45 66Q52 85 61 103T81 139Q92 158 104 175T130 211Q135 217 139 223T148 237Q151 242
151 249T150 261Q160 274 177 286T210 299Q214 299 223 297T241 291T250 283Q250 279 246 275Q241 270 235 265T224 254Q201 231 180 206T140 154Q134 145 122 128T99 92T89 63Q89 53 98 53Q108 53 127 66T170 101T215 146T255 188T280 216Q301 241 321 272Q329
284 340 293T366 303Q374 303 386 302T399 289Q399 285 397 281T391 274Q358 240 329 203T279 121Q272 106 265 82T258 40Q258 23 271 23Q280 23 289 29Q300 35 319 53T359 95T400 140T429 174Q431 176 433 177T437 179Q444 179 444 171Q444 167 442 165T438 160Q407
124 377 87T315 14Q308 5 298 -1T275 -7Z" />
<glyph unicode="v" glyph-name="v" horiz-adv-x="228" d="M69 4Q53 7 47 7T29 23Q28 25 28 28T27 33Q27 48 36 77T59 139T86 200T106 245Q108 249 108 251Q108 256 103 256T97 264Q102 272 110 284T129 305T150 314Q158 314 171 303T184 283Q184 282 184 282T183
280Q168 264 152 236T122 176T99 112T86 59Q133 103 183 151T270 251Q273 269 275 284T287 321Q292 332 300 339T320 347Q331 347 340 340T350 322Q350 309 340 298T320 270T310 222V218Q310 214 309 208T303 202Q296 202 288 210T279 225Q228 168 177 112T69 4Z"
/>
<glyph unicode="w" glyph-name="w" horiz-adv-x="436" d="M77 0Q58 0 42 20T25 58Q25 63 26 66Q44 114 72 154T129 237Q130 238 130 240Q130 243 129 245T128 251Q128 261 140 272T168 291T193 299Q204 299 214 292T225 272Q215 264 196 244T156 199T115 147T83
98T70 63Q70 53 79 53Q89 53 108 67T151 104T196 150T235 193T260 222Q271 238 282 251T310 289Q318 299 327 306T346 314Q351 314 361 309T377 298Q383 293 383 286Q383 277 376 272Q364 257 347 231T313 174T285 116T274 74Q274 60 282 59Q294 60 317 80T367
130T421 193T466 251Q469 269 471 284T483 321Q488 332 496 339T516 347Q527 347 536 340T546 322Q546 309 536 298T516 270T506 222V218Q506 214 505 208T499 202Q492 202 484 210T475 225Q450 197 422 160T366 89T315 30T275 1Q271 0 265 0Q254 0 244 5T225 23Q224
25 224 28T223 33Q222 37 221 41T219 51Q219 74 232 105T263 168T291 224Q234 158 189 109T101 12Q96 7 91 4T77 0Z" />
<glyph unicode="x" glyph-name="x" horiz-adv-x="288" d="M-19 -39Q-22 -39 -27 -38T-32 -32Q-32 -26 -26 -18Q34 59 77 99T139 158Q139 186 138 208T133 256Q120 250 111 250Q102 250 102 258Q102 269 115 283Q120 288 135 299T157 310Q165 310 169 306T178 297Q182
292 184 271T187 229T189 200Q212 220 226 234T263 268Q274 278 293 297T323 327Q329 344 336 355Q342 366 350 373T369 380Q377 379 382 372T388 356Q388 340 377 330T352 305T331 255Q330 251 328 243T321 235Q307 237 307 256Q307 260 307 265T309 276L189 173V126Q189
101 190 76T196 43Q199 39 201 37T208 34Q222 34 243 50T288 91T333 140T370 182T389 199H391Q396 199 396 193V191Q396 186 392 180Q381 164 367 149T340 118Q324 99 308 81T273 45Q263 35 250 21T222 -3T192 -14Q183 -14 171 -7T153 8Q148 17 145 42T141 93T140
131Q130 122 113 103T77 62T40 18T11 -17Q4 -26 -1 -32T-19 -39Z" />
<glyph unicode="y" glyph-name="y" horiz-adv-x="353" d="M-100 -383Q-146 -383 -146 -337Q-146 -332 -146 -327T-144 -317Q-136 -281 -110 -248T-49 -187T22 -134T88 -91Q105 -80 131 -64T188 -30T245 5Q256 33 260 67T265 132V140Q253 122 230 98T178 52T121
14T70 -1Q54 -1 49 9T43 32Q43 67 58 104T92 172T126 225T141 250Q141 251 139 251Q135 251 131 251T129 257Q143 274 164 287T204 300Q211 300 220 295T230 281Q230 276 224 270Q217 263 208 254T182 226Q173 216 157 194T124 143T96 87T84 39Q84 36 84 33T89
26Q103 25 124 38T168 73T213 119T251 165T275 200Q286 220 308 220Q324 220 326 213T329 194Q329 155 325 126T308 59Q372 114 430 175Q431 177 434 180T440 183Q446 183 446 177Q446 169 440 161Q431 150 421 139T400 117Q376 91 351 66T298 17Q252 -104 178
-195T-10 -352Q-29 -363 -53 -373T-100 -383ZM-77 -358Q-50 -358 -19 -339T44 -290T100 -233T141 -185Q158 -162 174 -140T204 -93Q225 -58 239 -25Q240 -22 238 -22T235 -21Q204 -43 173 -64T109 -107Q93 -117 66 -136T8 -180T-51 -231T-97 -283T-115 -329Q-115
-345 -103 -351T-77 -358Z" />
<glyph unicode="z" glyph-name="z" horiz-adv-x="313" d="M250 -17Q243 -17 243 -6Q251 4 257 17T264 40Q264 51 254 55T229 60Q208 60 182 54T135 42T106 32Q100 30 95 24T83 14Q67 5 50 5Q40 5 32 10T24 28Q24 38 32 46Q44 59 73 81T137 130T208 184T268 234T299
272V274Q299 279 287 279T270 279Q255 279 235 275T196 264T169 244Q166 241 164 240T156 238Q148 239 138 246T128 263Q128 277 146 285T190 297T239 302T275 304Q319 306 347 299T375 275Q375 264 358 250Q318 218 266 183T162 112T66 44Q78 50 106 58T169 72T233
83T276 88Q292 88 305 83T316 67Q312 45 299 26T273 -5T250 -17Z" />
<glyph unicode="{" glyph-name="braceleft" horiz-adv-x="456" d="M312 -112Q285 -112 260 -108T219 -89T202 -44Q202 -39 202 -34T204 -24Q210 13 225 48T255 118T276 189Q277 194 277 198T278 207Q278 242 252 255T182 269V275Q182 279 184 282T196 285Q240
290 270 300T322 334T361 403Q372 430 379 458T397 513Q412 550 435 581T498 632T603 650Q606 650 612 645T619 634Q619 627 600 627Q544 627 517 609T477 559T448 482Q441 462 434 441T416 399Q403 371 378 345T322 301T261 275Q279 268 298 255T329 223T337 181Q332
151 319 123T290 66T264 9T253 -51Q253 -73 262 -81T290 -89T331 -92Q339 -96 339 -100Q339 -105 327 -108T312 -112Z" />
<glyph unicode="|" glyph-name="bar" horiz-adv-x="508" d="M164 -156Q157 -156 151 -151T147 -134Q173 15 196 154T246 434T308 728Q310 740 318 747T335 755Q350 755 350 738Q350 735 350 732T348 726L181 -144Q180 -150 175 -153T164 -156Z" />
<glyph unicode="}" glyph-name="braceright" horiz-adv-x="464" d="M36 -111Q33 -111 27 -106T20 -95Q20 -88 39 -88Q95 -88 122 -70T162 -20T191 57Q199 77 206 98T223 140Q236 168 261 194T317 239T378 264Q360 271 341 284T310 317T302 358Q307 388 320 416T349
473T375 530T386 590Q386 612 377 620T350 629T308 631Q300 635 300 639Q300 644 312 647T327 651Q354 651 379 647T421 628T437 583Q437 579 437 574T435 563Q429 527 414 492T385 422T363 350Q362 346 362 342T361 332Q361 298 387 285T457 270V264Q457 260 455
257T443 254Q399 250 369 240T317 205T278 136Q268 109 261 81T242 26Q228 -11 205 -42T142 -92T36 -111Z" />
<glyph unicode="~" glyph-name="asciitilde" horiz-adv-x="352" d="M148 427Q144 427 144 432T144 445Q146 455 155 470T181 498T224 510Q241 510 257 503T290 488T323 480Q337 480 347 485T365 501Q369 506 375 506Q384 506 381 498Q374 479 357 460T314 440Q298
440 284 447T254 461T218 468Q202 468 186 459T158 435Q153 427 148 427Z" />
<glyph unicode="&#xa0;" glyph-name="uni00A0" horiz-adv-x="192" />
<glyph unicode="&#xa1;" glyph-name="exclamdown" horiz-adv-x="330" d="M281 270Q272 270 266 277T257 293Q258 298 264 310T277 332T290 343Q300 343 313 339T326 321Q326 314 313 299T295 277Q290 270 281 270ZM-39 -238Q-51 -238 -51 -230Q-46 -216 -26 -184T22
-110T82 -23T143 66T194 143T224 194Q234 215 243 215Q254 215 254 197Q254 194 254 191T252 185Q242 155 220 113T171 23T117 -67T69 -144T38 -191Q22 -207 8 -219T-33 -237Q-34 -237 -35 -237T-39 -238Z" />
<glyph unicode="&#xa2;" glyph-name="cent" horiz-adv-x="513" d="M104 22L166 121Q124 128 105 150T86 204Q86 243 111 290T181 383T283 463T405 509L442 566Q447 576 463 585T487 595Q492 595 492 591Q492 589 489 583L446 512Q447 512 449 512T453 513Q484
513 503 502T522 465Q520 443 506 425T475 394T444 374Q442 372 439 372Q436 372 437 374Q440 381 451 394T473 424T483 460Q483 477 476 483T446 490Q442 490 439 490T430 489L214 145Q247 146 284 156T358 184T420 228Q428 236 434 236Q436 236 436 234Q436 228
422 210Q406 189 373 168T295 133T198 118H197L145 36Q142 31 130 24T108 15T104 22ZM183 148Q239 237 287 317T386 477Q343 461 300 428T220 353T161 272T139 200Q139 181 149 167T183 148Z" />
<glyph unicode="&#xa3;" glyph-name="sterling" horiz-adv-x="673" d="M200 183Q193 183 196 189T206 200T221 206H287Q310 252 332 301T378 396T427 475Q450 505 483 521T539 537Q630 537 630 472Q630 457 626 442Q622 422 605 395T568 344T532 307Q524 301 517
297T504 292Q492 292 519 322Q537 341 552 367T578 416T593 449Q599 466 599 478Q599 495 590 502T566 510Q554 510 545 506Q514 494 489 464T441 392T393 302T340 206H410Q416 206 426 205T436 198Q435 191 421 187T395 183H326Q302 145 273 110T208 47Q230 32
265 20T336 1T400 -6Q416 -6 438 -4T483 6T521 27T536 63Q536 80 525 88T515 103Q515 108 519 108Q521 108 524 108T529 105Q542 95 552 83T560 53Q557 20 535 0T483 -30T429 -40Q393 -40 347 -29T257 0T182 33Q159 20 135 11T84 1Q58 1 32 13T-11 46T-28 95Q-28
115 -19 122T6 130Q32 130 65 116T129 85T184 55Q209 74 231 107T275 183H200ZM77 22Q94 22 119 28T160 44Q148 55 123 66T72 86T30 95Q29 95 26 95T22 91Q19 61 32 42T77 22Z" />
<glyph unicode="&#xa4;" glyph-name="currency" horiz-adv-x="506" d="M5 164L156 294Q152 306 152 321Q152 354 170 388T216 445L170 576L259 476Q280 487 302 493T345 500Q364 500 381 494T410 475L581 576L427 444Q432 427 432 413Q432 381 414 351T368 294L416
164L325 264Q280 240 240 240Q201 240 174 264L5 164ZM269 279Q294 279 318 295T359 337T376 393Q376 422 359 441T314 460Q281 460 251 434T211 370Q208 358 208 346Q208 317 224 298T269 279Z" />
<glyph unicode="&#xa5;" glyph-name="yen" horiz-adv-x="336" d="M120 -47Q101 -45 85 -39T74 -16Q85 25 104 59T142 131H43Q32 131 32 136Q32 144 48 154T81 164H156Q162 179 167 196T177 232H95Q85 232 85 237Q85 245 101 255T133 265H180Q178 331 155 390T87
487Q85 489 84 491T83 498Q87 512 103 519T130 527Q150 527 164 508T186 457T199 391T206 322T210 265H228Q272 317 317 369T413 468Q415 479 429 493T460 519T487 530Q499 530 510 519T521 496Q521 486 512 481Q485 462 446 429T362 354T275 265H318Q326 265 339
265T363 262T374 254Q374 247 361 242T328 235T289 232H246Q232 215 218 198T191 164H266Q274 164 287 164T311 161T322 153Q322 146 309 141T276 134T237 131H169Q144 93 129 59T114 -3Q114 -19 116 -22T129 -26Q142 -26 142 -32Q142 -37 135 -42T120 -47Z" />
<glyph unicode="&#xa6;" glyph-name="brokenbar" horiz-adv-x="500" d="M230 345Q247 437 266 532T308 728Q310 740 318 747T335 755Q350 755 350 738Q350 735 350 732T348 726L274 345H230ZM164 -156Q157 -156 151 -151T147 -134Q167 -24 184 80T220 289H264L181
-144Q180 -150 175 -153T164 -156Z" />
<glyph unicode="&#xa7;" glyph-name="section" horiz-adv-x="514" d="M131 -65Q103 -65 77 -57T34 -33Q31 -30 31 -28Q31 -25 35 -23T45 -20Q53 -20 57 -24Q69 -34 87 -38T128 -43Q161 -43 194 -33T250 -2T273 49Q273 74 256 93T214 128T164 160T122 194T105 238Q105
269 128 299T187 355T263 399Q250 415 250 435Q250 464 269 492T320 545T389 589T463 620T527 631Q559 631 585 617T611 574Q611 561 603 542Q598 530 588 519T567 499Q566 498 562 498Q554 498 554 506Q554 512 560 517Q587 545 587 565Q587 582 569 589T525 597Q497
597 466 590T412 571Q355 540 331 513T307 460Q307 431 331 404T391 349T463 294Q477 284 482 273T488 250Q488 227 468 206T414 167T341 141T265 134L318 95Q332 85 337 74T343 51Q343 29 324 9T273 -28T205 -55T131 -65ZM273 156Q306 156 339 166T395 197T418
248Q418 271 404 288T368 320T323 349T282 379Q278 378 274 376T267 372Q210 341 186 314T162 261Q162 235 182 210T232 161Q252 156 273 156Z" />
<glyph unicode="&#xa8;" glyph-name="dieresis" horiz-adv-x="193" d="M155 350Q146 350 133 354T120 372Q120 381 128 393T149 415T171 425Q179 425 186 418T193 401Q193 396 186 384T170 361T155 350ZM35 350Q26 350 13 354T0 372Q0 381 8 393T29 415T51 425Q59
425 66 418T73 401Q73 396 66 384T50 361T35 350Z" />
<glyph unicode="&#xa9;" glyph-name="copyright" horiz-adv-x="756" d="M279 22Q212 22 167 57T121 174Q121 223 143 271T202 363T289 441T393 494T504 514Q550 514 591 497T659 445T686 354Q686 301 660 252T591 161T495 88T385 39T279 22ZM287 43Q328 43 376
60T470 108T554 178T614 261T637 348Q637 411 598 452T494 494Q449 494 404 476T316 426T242 353T190 267T171 176Q171 105 204 74T287 43ZM319 130Q278 130 260 145T242 186Q242 216 265 254T325 327T408 385T500 408Q543 408 543 375Q543 355 531 336T506 310Q502
308 497 308Q492 308 491 312T491 322Q494 331 506 347T518 376Q518 390 492 390Q460 390 425 371T360 321T311 255T292 189Q292 172 302 162T330 151Q368 151 412 171T487 219Q492 224 497 224Q500 224 500 220Q500 218 498 213T490 200Q471 176 425 153T319 130Z"
/>
<glyph unicode="&#xaa;" glyph-name="ordfeminine" horiz-adv-x="314" d="M206 378Q196 378 184 390T171 412Q171 423 179 442T197 479T214 507Q204 498 188 479T154 437T120 400T91 384Q75 384 65 395T55 423Q55 451 74 483T121 543T180 590T234 608Q254 608
266 599T279 571Q279 568 278 560T272 552Q268 552 260 565T231 578Q210 578 188 563T146 525T109 477T85 435Q83 430 81 424T79 412Q79 411 79 408T82 405Q85 405 87 407Q122 426 153 455T207 516Q213 524 218 532T228 548Q233 553 236 553Q244 553 251 542T259
523V518Q247 509 235 489T215 446T202 408Q201 406 201 403T204 400Q212 402 228 416T264 450T299 485T321 508Q323 510 324 511T328 513Q334 513 334 508Q334 505 322 491T293 458T257 421T224 390T206 378Z" />
<glyph unicode="&#xab;" glyph-name="guillemotleft" horiz-adv-x="386" d="M338 39Q333 39 326 48Q315 66 296 91T263 137Q260 142 258 146T256 154Q256 161 267 172Q290 195 312 217T347 251Q350 256 354 256Q359 256 361 251T359 241Q340 219 325 199T290 154Q304
126 318 100T339 57Q342 48 342 44Q342 39 338 39ZM242 39Q237 39 230 48Q219 66 200 91T167 137Q164 142 162 146T160 154Q160 161 171 172Q194 195 216 217T251 251Q254 256 258 256Q263 256 265 251T263 241Q244 219 229 199T194 154Q208 126 222 100T243 57Q246
48 246 44Q246 39 242 39Z" />
<glyph unicode="&#xac;" glyph-name="logicalnot" horiz-adv-x="674" d="M467 21Q465 21 465 25Q465 30 467 39T471 54Q476 77 491 103T525 152T557 191T573 209Q451 213 344 212T144 220Q129 222 124 224T118 231Q118 234 122 237T131 240Q239 245 320 247T471
250T612 254Q645 256 645 238Q645 226 629 210Q612 191 584 161T527 99T481 38Q470 21 467 21Z" />
<glyph unicode="&#xad;" glyph-name="uni00AD" horiz-adv-x="445" d="M162 226Q150 226 150 232Q150 240 168 251T204 263H359Q368 263 382 263T409 260T421 251Q421 243 406 238T370 229T327 226H162Z" />
<glyph unicode="&#xae;" glyph-name="registered" horiz-adv-x="753" d="M279 22Q212 22 167 57T121 174Q121 223 143 271T202 363T289 441T393 494T504 514Q550 514 591 497T659 445T686 354Q686 301 660 252T591 161T495 88T385 39T279 22ZM287 43Q330 43 380
62T476 113Q446 113 424 129T386 167T361 208T348 235Q345 241 345 245Q345 257 356 259Q377 262 406 269T462 289T507 320T525 364Q525 383 510 394T472 410T426 416T386 417Q363 417 363 423Q363 429 375 436T401 443Q419 443 445 439T496 425T539 398T557 355Q557
320 531 298T466 263T395 246Q401 231 411 211T433 172T458 140T481 127Q485 127 488 127T494 126Q490 122 486 119T476 113H477Q488 113 497 118T494 126Q534 156 566 192T618 269T637 348Q637 411 598 452T494 494Q449 494 404 476T316 426T242 353T190 267T171
176Q171 105 204 74T287 43ZM276 96Q266 96 261 102T256 119Q254 140 263 173T288 244T320 313T346 364Q357 384 367 397T403 411Q408 411 412 410T418 402Q418 396 412 388Q389 350 366 315T322 240Q317 229 305 206T282 159T273 117Q273 115 274 112T279 108Q282
108 282 103Q282 96 276 96Z" />
<glyph unicode="&#xaf;" glyph-name="overscore" horiz-adv-x="185" d="M11 360Q0 360 0 368Q0 376 8 385T24 395H178Q185 395 185 387Q185 380 178 370T159 360H11Z" />
<glyph unicode="&#xb0;" glyph-name="degree" horiz-adv-x="351" d="M207 369Q182 369 166 384T150 422Q150 447 164 468T202 505T249 524H252Q279 527 297 512T316 470Q316 446 300 423T258 384T207 369ZM215 401Q235 401 254 417T274 454Q274 468 264 476T238
483H237Q218 481 202 464T186 428Q186 417 194 409T215 401Z" />
<glyph unicode="&#xb1;" glyph-name="plusminus" horiz-adv-x="406" d="M158 77Q149 77 144 86T139 103Q139 107 143 123T153 160T164 198T171 222Q164 222 140 222T88 225T40 232T19 245Q19 254 27 261T44 269Q79 269 114 269T185 270Q198 314 211 358T234 447Q240
448 242 441T245 424T246 412Q246 377 241 341T231 270H340Q354 270 368 270T396 272Q396 271 396 271T397 269Q397 262 382 256T343 245T295 236T250 230T223 226Q221 219 214 195T196 144T176 97T158 77ZM22 -6Q10 -6 10 0Q10 8 28 19T64 31H219Q228 31 242 31T269
28T281 19Q281 11 266 6T230 -3T187 -6H22Z" />
<glyph unicode="&#xb2;" glyph-name="uni00B2" horiz-adv-x="394" d="M61 298Q57 298 53 300T49 308Q49 316 57 323T73 331Q83 334 95 334T118 335Q147 352 178 371T235 411Q256 428 274 447T297 492Q297 512 283 515T250 519Q232 519 200 512T136 488Q134 487
131 487Q128 487 127 489T128 494Q128 496 131 499Q132 499 132 499T132 500Q167 520 197 529T276 539Q306 539 320 533T335 510Q335 484 311 457T253 404T187 359T136 330Q167 325 194 322T256 319Q266 319 282 324T299 343Q299 361 304 361Q308 361 312 354T315
342Q312 320 291 310T253 299Q226 299 200 303T147 312Q139 313 131 314T115 317Q114 316 112 316T107 313Q97 309 84 304T61 298Z" />
<glyph unicode="&#xb3;" glyph-name="uni00B3" horiz-adv-x="441" d="M153 277Q136 277 112 281T68 296T49 330Q49 338 52 345T58 358Q66 372 83 382T120 398T155 404Q161 404 161 398Q161 391 153 391Q143 391 126 385T95 370T77 351Q76 348 76 345T75 337Q75
319 90 309T127 296T163 292Q187 292 216 298T272 318T316 352T333 401Q333 414 323 420T298 428T273 430Q247 430 227 424Q223 422 218 422Q208 422 208 431Q208 446 224 446Q244 446 270 451T317 468T342 501V507Q342 522 319 522Q295 522 266 511T216 488Q214
486 211 486Q209 486 207 489T205 495Q205 499 211 503T225 512Q247 524 273 533T331 543Q358 543 370 535T382 513Q382 494 361 474T306 446Q327 443 347 432T367 399Q367 370 346 348T291 309T221 285T153 277Z" />
<glyph unicode="&#xb4;" glyph-name="acute" horiz-adv-x="150" d="M7 346Q0 346 0 351Q0 353 2 355T5 358Q27 375 56 393T107 424Q119 432 125 434T135 436Q141 436 145 428T150 414Q150 407 147 403T139 397Q132 393 112 385T69 368T28 353T7 346Z" />
<glyph unicode="&#xb5;" glyph-name="uni00B5" horiz-adv-x="353" d="M-60 -247Q-72 -247 -77 -239T-82 -220Q-82 -190 -65 -147T-22 -56T34 42T90 136T133 214T150 263Q150 269 142 269Q137 269 132 266Q113 253 101 245T79 229Q73 224 68 224Q64 224 64 229Q64
232 65 234T66 237Q66 242 78 251T108 271T141 289T161 297Q180 297 196 292T212 267Q205 240 188 208T151 146T120 91Q114 79 114 69Q114 50 130 50Q141 50 164 71T214 123T262 181Q288 229 299 247T319 278Q336 303 366 303Q374 303 386 299T398 284Q398 280
396 276T390 269Q357 235 329 197T281 115Q274 100 266 79T258 40Q258 36 259 30T266 22Q272 24 278 25T289 29Q300 35 319 53T359 95T400 140T429 174Q431 176 433 177T437 179Q444 179 444 171Q444 167 442 165T438 160Q407 124 377 87T315 14Q308 5 298 -1T275
-7Q255 -7 233 10T211 49Q211 62 216 79T228 114Q208 92 185 70T142 34T109 19Q95 19 88 29T78 52Q50 5 29 -31T-9 -105T-38 -197L-39 -201Q-39 -206 -36 -210T-27 -215Q-15 -215 -3 -206T20 -195L22 -196Q22 -204 5 -216T-32 -238T-60 -247Z" />
<glyph unicode="&#xb6;" glyph-name="paragraph" horiz-adv-x="568" d="M111 -19Q104 -19 102 -9Q105 5 121 44T164 138T222 255Q154 254 121 279T88 345Q88 386 113 424T182 493T284 547T407 578Q431 581 458 581Q484 581 503 578T521 566Q521 565 519 563Q467
479 412 385T308 195T228 8Q226 7 216 -5T202 -17Q198 -18 197 -10T194 3Q197 16 213 54T256 148T313 263L286 258Q276 257 268 257T249 255Q211 186 178 118T122 -14Q120 -15 118 -17T113 -19H111ZM234 275Q265 337 295 394T350 494T386 553Q317 538 265 507T181
439T142 364Q139 351 139 338Q139 312 158 293T234 275ZM263 277Q280 281 296 284T329 294Q359 352 387 404T438 495T473 553Q461 553 449 553T426 551Q427 550 427 545Q427 543 425 542Q387 481 346 416T263 277Z" />
<glyph unicode="&#xb7;" glyph-name="middot" horiz-adv-x="302" d="M192 251Q183 251 170 255T157 273Q157 282 165 294T186 316T208 326Q216 326 223 319T230 302Q230 297 223 285T207 262T192 251Z" />
<glyph unicode="&#xb8;" glyph-name="cedilla" horiz-adv-x="139" d="M62 -188Q31 -188 6 -177Q0 -174 0 -168Q0 -165 3 -162T11 -161Q38 -167 61 -167Q80 -167 92 -161T104 -141Q104 -132 96 -120T78 -93Q59 -67 59 -43Q59 2 118 13H121Q125 13 129 11T129 3Q90
-16 90 -33Q90 -41 96 -51T114 -75Q123 -86 131 -100T139 -133Q139 -162 115 -175T62 -188Z" />
<glyph unicode="&#xb9;" glyph-name="uni00B9" horiz-adv-x="318" d="M68 309Q63 309 61 315T59 324Q59 333 64 333H128Q145 362 160 389T188 442Q196 455 202 467T216 492Q215 491 214 490T211 488Q133 443 128 443Q123 443 123 450Q123 456 128 456Q154 473
181 490T235 528Q240 538 255 538Q258 538 264 538T270 532Q270 531 266 524T250 496T213 436T149 331Q160 331 178 331T216 329T245 327Q250 327 250 323Q250 320 246 317T236 313Q224 313 204 313T160 311Q135 310 110 310T68 309Z" />
<glyph unicode="&#xba;" glyph-name="ordmasculine" horiz-adv-x="293" d="M63 372Q41 372 31 389T20 426Q20 452 33 481T66 537T100 581Q105 586 109 586Q115 586 123 580Q139 591 159 600T199 609Q232 609 232 575Q232 542 216 515T181 461Q176 454 171 448T160
436Q192 445 217 466T266 509Q269 512 272 514T279 516Q282 516 282 511Q282 510 280 507T277 503Q252 473 216 448T141 416Q127 402 105 387T63 372ZM121 431Q123 431 126 431T132 432Q147 450 163 474T190 525T201 574Q201 587 188 587Q175 587 159 580T132 564V562Q132
554 121 540T96 512T77 489Q75 464 87 448T121 431ZM63 385Q77 385 91 395T115 415Q97 417 83 427T56 451Q54 447 50 434T46 408Q46 398 49 392T63 385Z" />
<glyph unicode="&#xbb;" glyph-name="guillemotright" horiz-adv-x="436" d="M161 45Q157 45 155 50T156 60Q175 83 190 103T225 147Q212 176 198 201T176 244Q173 253 173 257Q173 262 177 262Q182 262 189 253Q200 235 219 210T252 164Q255 159 257 155T259
147Q259 140 248 129Q225 106 203 84T168 50Q165 45 161 45ZM257 45Q253 45 251 50T252 60Q271 83 286 103T321 147Q308 176 294 201T272 244Q269 253 269 257Q269 262 273 262Q278 262 285 253Q296 235 315 210T348 164Q351 159 353 155T355 147Q355 140 344 129Q321
106 299 84T264 50Q261 45 257 45Z" />
<glyph unicode="&#xbc;" glyph-name="onequarter" horiz-adv-x="658" d="M69 4Q58 4 65 12Q129 78 181 137T280 254T375 367T479 482Q484 487 492 489T508 492Q514 492 518 491T522 485Q522 481 517 475L93 12Q90 9 82 7T69 4ZM59 309Q54 309 52 315T50 324Q50
333 55 333H119Q136 362 151 389T179 442Q187 455 193 467T207 492Q206 491 205 490T202 488Q124 443 119 443Q114 443 114 450Q114 456 119 456Q145 473 172 490T226 528Q231 538 246 538Q249 538 255 538T261 532Q261 531 257 524T241 496T204 436T140 331Q151
331 169 331T207 329T236 327Q241 327 241 323Q241 320 237 317T227 313Q215 313 195 313T151 311Q126 310 101 310T59 309ZM438 12Q432 12 429 21T426 35Q426 49 435 74T450 112Q440 113 430 113T411 113Q382 113 363 111T329 107Q323 106 318 106T309 105Q302
105 298 111T298 121Q331 141 358 155T408 182Q449 204 486 226T571 289Q574 292 579 295T590 299Q594 299 601 297T608 289Q608 288 608 288T607 287Q600 278 592 268T576 247Q553 218 529 187T485 127Q493 128 501 128T516 127Q522 126 527 126T538 126Q550 126
561 132T572 150Q572 152 572 153T571 155Q570 157 570 160Q570 166 576 166Q584 166 589 154T595 136Q595 125 584 119T560 112T536 110Q527 110 517 110T495 111Q488 112 482 112T472 112Q457 92 455 68T452 19Q452 16 447 14T438 12ZM390 128Q409 128 427 128T457
126Q471 150 490 181T528 235Q485 203 435 172T350 127Q358 128 368 128T390 128Z" />
<glyph unicode="&#xbd;" glyph-name="onehalf" horiz-adv-x="658" d="M69 4Q58 4 65 12Q129 78 181 137T280 254T375 367T479 482Q484 487 492 489T508 492Q514 492 518 491T522 485Q522 481 517 475L93 12Q90 9 82 7T69 4ZM59 309Q54 309 52 315T50 324Q50 333
55 333H119Q136 362 151 389T179 442Q187 455 193 467T207 492Q206 491 205 490T202 488Q124 443 119 443Q114 443 114 450Q114 456 119 456Q145 473 172 490T226 528Q231 538 246 538Q249 538 255 538T261 532Q261 531 257 524T241 496T204 436T140 331Q151 331
169 331T207 329T236 327Q241 327 241 323Q241 320 237 317T227 313Q215 313 195 313T151 311Q126 310 101 310T59 309ZM334 3Q330 3 326 5T322 13Q322 21 330 28T346 36Q356 39 368 39T391 40Q420 57 451 76T508 116Q529 133 547 152T570 197Q570 217 556 220T523
224Q505 224 473 217T409 193Q407 192 404 192Q401 192 400 194T401 199Q401 201 404 204Q405 204 405 204T405 205Q440 225 470 234T549 244Q579 244 593 238T608 215Q608 189 584 162T526 109T460 64T409 35Q440 30 467 27T529 24Q539 24 555 29T572 48Q572 66
577 66Q581 66 585 59T588 47Q585 25 564 15T526 4Q499 4 473 8T420 17Q412 18 404 19T388 22Q387 21 385 21T380 18Q370 14 357 9T334 3Z" />
<glyph unicode="&#xbe;" glyph-name="threequarters" horiz-adv-x="814" d="M176 4Q165 4 172 12Q236 78 288 137T387 254T482 367T586 482Q591 487 599 489T615 492Q621 492 625 491T629 485Q629 481 624 475L200 12Q197 9 189 7T176 4ZM154 277Q137 277 113
281T69 296T50 330Q50 338 53 345T59 358Q67 372 84 382T121 398T156 404Q162 404 162 398Q162 391 154 391Q144 391 127 385T96 370T78 351Q77 348 77 345T76 337Q76 319 91 309T128 296T164 292Q188 292 217 298T273 318T317 352T334 401Q334 414 324 420T299
428T274 430Q248 430 228 424Q224 422 219 422Q209 422 209 431Q209 446 225 446Q245 446 271 451T318 468T343 501V507Q343 522 320 522Q296 522 267 511T217 488Q215 486 212 486Q210 486 208 489T206 495Q206 499 212 503T226 512Q248 524 274 533T332 543Q359
543 371 535T383 513Q383 494 362 474T307 446Q328 443 348 432T368 399Q368 370 347 348T292 309T222 285T154 277ZM594 12Q588 12 585 21T582 35Q582 49 591 74T606 112Q596 113 586 113T567 113Q538 113 519 111T485 107Q479 106 474 106T465 105Q458 105 454
111T454 121Q487 141 514 155T564 182Q605 204 642 226T727 289Q730 292 735 295T746 299Q750 299 757 297T764 289Q764 288 764 288T763 287Q756 278 748 268T732 247Q709 218 685 187T641 127Q649 128 657 128T672 127Q678 126 683 126T694 126Q706 126 717 132T728
150Q728 152 728 153T727 155Q726 157 726 160Q726 166 732 166Q740 166 745 154T751 136Q751 125 740 119T716 112T692 110Q683 110 673 110T651 111Q644 112 638 112T628 112Q613 92 611 68T608 19Q608 16 603 14T594 12ZM546 128Q565 128 583 128T613 126Q627
150 646 181T684 235Q641 203 591 172T506 127Q514 128 524 128T546 128Z" />
<glyph unicode="&#xbf;" glyph-name="questiondown" horiz-adv-x="436" d="M403 265Q395 265 388 272T381 289Q382 294 389 306T405 329T419 340Q428 340 441 336T454 318Q454 310 446 297T425 275T403 265ZM118 -233Q86 -233 52 -223T-6 -190T-30 -129Q-30 -92
-8 -63T47 -12T116 26T180 52Q228 69 272 94T342 165Q345 170 352 176T364 182Q369 182 369 174Q369 167 363 149Q351 118 317 95T238 50T146 7T64 -42T14 -108Q13 -111 13 -114T12 -121Q12 -149 34 -167T85 -193T137 -201Q151 -201 172 -199T215 -191T251 -172T266
-139Q266 -131 264 -123T262 -106Q262 -97 268 -96Q280 -96 287 -109T295 -135Q295 -171 271 -192T206 -223T118 -233Z" />
<glyph unicode="&#xc0;" glyph-name="Agrave" horiz-adv-x="469" d="M382 -68Q371 -63 366 -52T361 -25Q361 7 376 53T408 143Q421 176 436 221T468 317T500 415T525 498T540 552Q462 521 400 479T285 384T177 269H318Q322 269 336 269T366 267T393 263T405 255Q405
247 386 242T336 233T272 228T211 225T169 224Q150 224 127 203T82 148T40 76T6 2T-15 -57Q-15 -59 -16 -62T-20 -65Q-26 -65 -32 -55T-39 -39Q-39 -12 -26 24T6 97T47 168T86 222Q61 222 35 222T-17 221Q-23 221 -29 225T-38 236Q-34 247 -14 251T32 257T83 260T118
264Q136 286 167 318T238 386T322 457T409 521T490 567T555 585Q563 585 577 583T603 574T615 557Q615 544 602 506T566 416T519 306T471 196T432 108Q409 52 399 18T388 -36Q388 -51 394 -62Q395 -63 390 -66T382 -68ZM585 633Q582 633 562 640T515 657T467 677T437
690Q433 692 429 696T425 707Q425 712 429 720T439 730Q444 730 449 728T468 719Q482 711 505 698T551 672T588 647Q590 646 591 644T594 640Q594 633 585 633Z" />
<glyph unicode="&#xc1;" glyph-name="Aacute" horiz-adv-x="469" d="M382 -68Q371 -63 366 -52T361 -25Q361 7 376 53T408 143Q421 176 436 221T468 317T500 415T525 498T540 552Q462 521 400 479T285 384T177 269H318Q322 269 336 269T366 267T393 263T405 255Q405
247 386 242T336 233T272 228T211 225T169 224Q150 224 127 203T82 148T40 76T6 2T-15 -57Q-15 -59 -16 -62T-20 -65Q-26 -65 -32 -55T-39 -39Q-39 -12 -26 24T6 97T47 168T86 222Q61 222 35 222T-17 221Q-23 221 -29 225T-38 236Q-34 247 -14 251T32 257T83 260T118
264Q136 286 167 318T238 386T322 457T409 521T490 567T555 585Q563 585 577 583T603 574T615 557Q615 544 602 506T566 416T519 306T471 196T432 108Q409 52 399 18T388 -36Q388 -51 394 -62Q395 -63 390 -66T382 -68ZM506 633Q497 633 497 640Q498 642 500 644T503
647Q518 658 540 671T586 698T623 719Q636 726 642 728T652 730Q658 729 662 721T666 707Q666 700 663 696T654 690Q647 687 625 678T576 658T530 640T506 633Z" />
<glyph unicode="&#xc2;" glyph-name="Acircumflex" horiz-adv-x="469" d="M382 -68Q371 -63 366 -52T361 -25Q361 7 376 53T408 143Q421 176 436 221T468 317T500 415T525 498T540 552Q462 521 400 479T285 384T177 269H318Q322 269 336 269T366 267T393 263T405
255Q405 247 386 242T336 233T272 228T211 225T169 224Q150 224 127 203T82 148T40 76T6 2T-15 -57Q-15 -59 -16 -62T-20 -65Q-26 -65 -32 -55T-39 -39Q-39 -12 -26 24T6 97T47 168T86 222Q61 222 35 222T-17 221Q-23 221 -29 225T-38 236Q-34 247 -14 251T32 257T83
260T118 264Q136 286 167 318T238 386T322 457T409 521T490 567T555 585Q563 585 577 583T603 574T615 557Q615 544 602 506T566 416T519 306T471 196T432 108Q409 52 399 18T388 -36Q388 -51 394 -62Q395 -63 390 -66T382 -68ZM467 634Q460 632 460 636Q460 638
462 641T465 645Q490 667 513 682T560 715Q567 720 578 727T599 741T614 747Q620 747 624 740L640 717Q652 700 660 686T680 655Q685 647 685 638Q685 635 682 634T675 634Q672 636 658 646T626 671T597 698Q574 686 545 671T494 646T467 634Z" />
<glyph unicode="&#xc3;" glyph-name="Atilde" horiz-adv-x="469" d="M382 -68Q371 -63 366 -52T361 -25Q361 7 376 53T408 143Q421 176 436 221T468 317T500 415T525 498T540 552Q462 521 400 479T285 384T177 269H318Q322 269 336 269T366 267T393 263T405 255Q405
247 386 242T336 233T272 228T211 225T169 224Q150 224 127 203T82 148T40 76T6 2T-15 -57Q-15 -59 -16 -62T-20 -65Q-26 -65 -32 -55T-39 -39Q-39 -12 -26 24T6 97T47 168T86 222Q61 222 35 222T-17 221Q-23 221 -29 225T-38 236Q-34 247 -14 251T32 257T83 260T118
264Q136 286 167 318T238 386T322 457T409 521T490 567T555 585Q563 585 577 583T603 574T615 557Q615 544 602 506T566 416T519 306T471 196T432 108Q409 52 399 18T388 -36Q388 -51 394 -62Q395 -63 390 -66T382 -68ZM479 633Q475 633 472 638T469 650Q469 663
478 678T506 705T547 717Q562 717 577 709T608 693T638 685Q652 685 662 691T681 708Q684 712 686 716T690 720Q695 720 693 702Q692 683 676 664T635 644Q619 644 605 652T575 668T541 676Q527 676 510 665T486 639Q484 633 479 633Z" />
<glyph unicode="&#xc4;" glyph-name="Adieresis" horiz-adv-x="469" d="M382 -68Q371 -63 366 -52T361 -25Q361 7 376 53T408 143Q421 176 436 221T468 317T500 415T525 498T540 552Q462 521 400 479T285 384T177 269H318Q322 269 336 269T366 267T393 263T405
255Q405 247 386 242T336 233T272 228T211 225T169 224Q150 224 127 203T82 148T40 76T6 2T-15 -57Q-15 -59 -16 -62T-20 -65Q-26 -65 -32 -55T-39 -39Q-39 -12 -26 24T6 97T47 168T86 222Q61 222 35 222T-17 221Q-23 221 -29 225T-38 236Q-34 247 -14 251T32 257T83
260T118 264Q136 286 167 318T238 386T322 457T409 521T490 567T555 585Q563 585 577 583T603 574T615 557Q615 544 602 506T566 416T519 306T471 196T432 108Q409 52 399 18T388 -36Q388 -51 394 -62Q395 -63 390 -66T382 -68ZM647 635Q638 635 625 639T612 657Q612
666 620 678T641 700T663 710Q671 710 678 703T685 686Q685 681 678 669T662 646T647 635ZM527 635Q518 635 505 639T492 657Q492 666 500 678T521 700T543 710Q551 710 558 703T565 686Q565 681 558 669T542 646T527 635Z" />
<glyph unicode="&#xc5;" glyph-name="Aring" horiz-adv-x="469" d="M382 -68Q371 -63 366 -52T361 -25Q361 7 376 53T408 143Q421 176 436 221T468 317T500 415T525 498T540 552Q462 521 400 479T285 384T177 269H318Q322 269 336 269T366 267T393 263T405 255Q405
247 386 242T336 233T272 228T211 225T169 224Q150 224 127 203T82 148T40 76T6 2T-15 -57Q-15 -59 -16 -62T-20 -65Q-26 -65 -32 -55T-39 -39Q-39 -12 -26 24T6 97T47 168T86 222Q61 222 35 222T-17 221Q-23 221 -29 225T-38 236Q-34 247 -14 251T32 257T83 260T118
264Q136 286 167 318T238 386T322 457T409 521T490 567T555 585Q563 585 577 583T603 574T615 557Q615 544 602 506T566 416T519 306T471 196T432 108Q409 52 399 18T388 -36Q388 -51 394 -62Q395 -63 390 -66T382 -68ZM585 633Q559 633 543 647T526 681Q526 725
559 753T640 781Q666 781 682 768T699 732Q699 707 685 684T644 647T585 633ZM589 653Q611 653 625 666T647 697T655 732Q655 746 650 754T635 763Q616 763 602 749T579 716T570 679Q570 669 574 661T589 653Z" />
<glyph unicode="&#xc6;" glyph-name="AE" horiz-adv-x="887" d="M-20 -65Q-26 -65 -32 -55T-39 -39Q-39 -12 -26 24T6 97T47 168T86 222Q61 222 35 222T-17 221Q-23 221 -29 225T-38 236Q-34 247 -14 251T32 257T83 260T118 264Q136 286 167 318T238 386T322 457T409
521T490 567T555 585Q563 585 579 582T605 572Q634 583 677 587T760 593T824 594Q862 594 901 593T978 585Q994 581 1000 572T1007 555Q1007 548 1003 543T992 537Q982 537 975 551Q959 558 936 558T896 559Q881 559 852 558T791 554T732 546T694 533Q686 528 668
506T626 452T580 389T539 332T514 298Q572 297 629 302T744 307H781Q799 307 817 307T854 304Q866 303 866 299Q866 296 858 292T842 285T829 281Q786 274 737 271T640 265T552 262T487 257Q482 246 472 222T454 167T445 107Q445 77 460 56T516 34Q521 34 526 34T536
35Q581 41 636 53T749 84T859 122T948 163Q954 166 956 166Q959 166 959 162Q959 157 955 152Q939 129 901 105T811 60T707 21T605 -6T526 -16Q471 -16 432 9T385 95Q384 99 384 103T384 112Q384 144 396 179T424 247Q396 242 360 238T287 232T225 228T193 226Q166
223 139 201T86 146T41 74T6 2T-15 -57Q-15 -59 -16 -62T-20 -65ZM195 275Q217 275 254 275T328 276T388 277Q393 277 408 277T438 275L457 312Q485 366 509 401T555 462T595 514Q592 521 587 521T577 524T572 539V542Q572 548 576 554L540 552Q462 521 405 480T298
388T195 275Z" />
<glyph unicode="&#xc7;" glyph-name="Ccedilla" horiz-adv-x="554" d="M232 -22Q184 -22 143 -7T76 42T45 127Q41 172 59 224T113 330T195 431T292 517T395 577T491 599Q527 599 555 576T583 514Q583 483 563 463T512 442Q511 442 502 443T492 450Q497 462 510
471T535 495T543 542Q542 560 529 567T498 575Q456 575 409 552T317 488T231 397T160 293T113 188T101 95Q106 50 141 28T218 6Q265 6 316 21T416 61T509 111T583 159T629 192Q630 193 631 193Q633 193 633 188Q633 184 632 179T625 169Q593 136 547 103T446 41T337
-4T232 -22ZM176 51Q145 51 120 62Q114 65 114 71Q114 74 117 77T125 78Q152 72 175 72Q194 72 206 78T218 98Q218 107 210 119T192 146Q173 172 173 196Q173 241 232 252H235Q239 252 243 250T243 242Q204 223 204 206Q204 198 210 188T228 164Q237 153 245 139T253
106Q253 77 229 64T176 51Z" />
<glyph unicode="&#xc8;" glyph-name="Egrave" horiz-adv-x="589" d="M228 -16Q173 -16 134 9T87 95Q86 99 86 103T86 111Q86 145 98 180T128 250T159 312Q150 313 136 314T110 321T98 342Q98 347 102 349T112 351Q118 351 124 350T133 349Q161 349 184 367T228
413T265 467T297 514Q294 521 289 521T280 524T274 539Q272 555 291 565T341 581T407 590T474 593T525 594Q563 594 602 593T680 585Q696 581 702 572T709 555Q709 548 705 543T694 537Q684 537 677 551Q661 558 638 558T598 559Q583 559 554 558T493 554T434 546T396
533Q386 527 367 506T325 457T284 406T256 370Q314 369 371 374T486 379H523Q541 379 559 379T596 376Q608 375 608 371Q608 368 600 364T584 357T571 353Q514 344 452 343T330 338T215 310Q211 301 199 278T172 225T148 163T137 102Q137 68 157 46T231 23Q276
23 333 37T449 72T560 118T650 163Q656 166 658 166Q661 166 661 162Q661 157 657 152Q641 129 603 105T513 60T409 21T307 -6T228 -16ZM552 642Q549 642 529 649T482 666T434 686T404 699Q400 701 396 705T392 716Q392 721 396 729T406 739Q411 739 416 737T435
728Q449 720 472 707T518 681T555 656Q557 655 558 653T561 649Q561 642 552 642Z" />
<glyph unicode="&#xc9;" glyph-name="Eacute" horiz-adv-x="589" d="M228 -16Q173 -16 134 9T87 95Q86 99 86 103T86 111Q86 145 98 180T128 250T159 312Q150 313 136 314T110 321T98 342Q98 347 102 349T112 351Q118 351 124 350T133 349Q161 349 184 367T228
413T265 467T297 514Q294 521 289 521T280 524T274 539Q272 555 291 565T341 581T407 590T474 593T525 594Q563 594 602 593T680 585Q696 581 702 572T709 555Q709 548 705 543T694 537Q684 537 677 551Q661 558 638 558T598 559Q583 559 554 558T493 554T434 546T396
533Q386 527 367 506T325 457T284 406T256 370Q314 369 371 374T486 379H523Q541 379 559 379T596 376Q608 375 608 371Q608 368 600 364T584 357T571 353Q514 344 452 343T330 338T215 310Q211 301 199 278T172 225T148 163T137 102Q137 68 157 46T231 23Q276
23 333 37T449 72T560 118T650 163Q656 166 658 166Q661 166 661 162Q661 157 657 152Q641 129 603 105T513 60T409 21T307 -6T228 -16ZM473 642Q464 642 464 649Q465 651 467 653T470 656Q485 667 507 680T553 707T590 728Q603 735 609 737T619 739Q625 738 629
730T633 716Q633 709 630 705T621 699Q614 696 592 687T543 667T497 649T473 642Z" />
<glyph unicode="&#xca;" glyph-name="Ecircumflex" horiz-adv-x="589" d="M228 -16Q173 -16 134 9T87 95Q86 99 86 103T86 111Q86 145 98 180T128 250T159 312Q150 313 136 314T110 321T98 342Q98 347 102 349T112 351Q118 351 124 350T133 349Q161 349 184 367T228
413T265 467T297 514Q294 521 289 521T280 524T274 539Q272 555 291 565T341 581T407 590T474 593T525 594Q563 594 602 593T680 585Q696 581 702 572T709 555Q709 548 705 543T694 537Q684 537 677 551Q661 558 638 558T598 559Q583 559 554 558T493 554T434 546T396
533Q386 527 367 506T325 457T284 406T256 370Q314 369 371 374T486 379H523Q541 379 559 379T596 376Q608 375 608 371Q608 368 600 364T584 357T571 353Q514 344 452 343T330 338T215 310Q211 301 199 278T172 225T148 163T137 102Q137 68 157 46T231 23Q276
23 333 37T449 72T560 118T650 163Q656 166 658 166Q661 166 661 162Q661 157 657 152Q641 129 603 105T513 60T409 21T307 -6T228 -16ZM434 643Q427 641 427 645Q427 647 429 650T432 654Q457 676 480 691T527 724Q534 729 545 736T566 750T581 756Q587 756 591
749L607 726Q619 709 627 695T647 664Q652 656 652 647Q652 644 649 643T642 643Q639 645 625 655T593 680T564 707Q541 695 512 680T461 655T434 643Z" />
<glyph unicode="&#xcb;" glyph-name="Edieresis" horiz-adv-x="589" d="M228 -16Q173 -16 134 9T87 95Q86 99 86 103T86 111Q86 145 98 180T128 250T159 312Q150 313 136 314T110 321T98 342Q98 347 102 349T112 351Q118 351 124 350T133 349Q161 349 184 367T228
413T265 467T297 514Q294 521 289 521T280 524T274 539Q272 555 291 565T341 581T407 590T474 593T525 594Q563 594 602 593T680 585Q696 581 702 572T709 555Q709 548 705 543T694 537Q684 537 677 551Q661 558 638 558T598 559Q583 559 554 558T493 554T434 546T396
533Q386 527 367 506T325 457T284 406T256 370Q314 369 371 374T486 379H523Q541 379 559 379T596 376Q608 375 608 371Q608 368 600 364T584 357T571 353Q514 344 452 343T330 338T215 310Q211 301 199 278T172 225T148 163T137 102Q137 68 157 46T231 23Q276
23 333 37T449 72T560 118T650 163Q656 166 658 166Q661 166 661 162Q661 157 657 152Q641 129 603 105T513 60T409 21T307 -6T228 -16ZM614 644Q605 644 592 648T579 666Q579 675 587 687T608 709T630 719Q638 719 645 712T652 695Q652 690 645 678T629 655T614
644ZM494 644Q485 644 472 648T459 666Q459 675 467 687T488 709T510 719Q518 719 525 712T532 695Q532 690 525 678T509 655T494 644Z" />
<glyph unicode="&#xcc;" glyph-name="Igrave" horiz-adv-x="407" d="M21 -5Q5 -5 5 11Q5 28 25 37T75 52T132 59T172 62Q182 99 203 152T254 264T316 380T382 482T443 552Q419 553 394 545T347 528T307 519Q298 519 292 528T285 544Q285 557 302 564T344 576T397
582T445 587T475 594Q482 597 490 609T505 622Q516 622 529 612T549 594Q584 594 621 593T694 589Q697 589 702 588T709 581Q704 571 679 568T618 560T546 545T482 508Q453 481 421 440T356 350T294 250T241 151T206 66Q250 65 293 66T379 68Q381 68 393 67T406
60Q407 54 399 51T382 46T368 43Q284 36 199 26T31 -4Q29 -4 27 -4T21 -5ZM532 646Q529 646 509 653T462 670T414 690T384 703Q380 705 376 709T372 720Q372 725 376 733T386 743Q391 743 396 741T415 732Q429 724 452 711T498 685T535 660Q537 659 538 657T541
653Q541 646 532 646Z" />
<glyph unicode="&#xcd;" glyph-name="Iacute" horiz-adv-x="407" d="M21 -5Q5 -5 5 11Q5 28 25 37T75 52T132 59T172 62Q182 99 203 152T254 264T316 380T382 482T443 552Q419 553 394 545T347 528T307 519Q298 519 292 528T285 544Q285 557 302 564T344 576T397
582T445 587T475 594Q482 597 490 609T505 622Q516 622 529 612T549 594Q584 594 621 593T694 589Q697 589 702 588T709 581Q704 571 679 568T618 560T546 545T482 508Q453 481 421 440T356 350T294 250T241 151T206 66Q250 65 293 66T379 68Q381 68 393 67T406
60Q407 54 399 51T382 46T368 43Q284 36 199 26T31 -4Q29 -4 27 -4T21 -5ZM453 646Q444 646 444 653Q445 655 447 657T450 660Q465 671 487 684T533 711T570 732Q583 739 589 741T599 743Q605 742 609 734T613 720Q613 713 610 709T601 703Q594 700 572 691T523
671T477 653T453 646Z" />
<glyph unicode="&#xce;" glyph-name="Icircumflex" horiz-adv-x="407" d="M21 -5Q5 -5 5 11Q5 28 25 37T75 52T132 59T172 62Q182 99 203 152T254 264T316 380T382 482T443 552Q419 553 394 545T347 528T307 519Q298 519 292 528T285 544Q285 557 302 564T344
576T397 582T445 587T475 594Q482 597 490 609T505 622Q516 622 529 612T549 594Q584 594 621 593T694 589Q697 589 702 588T709 581Q704 571 679 568T618 560T546 545T482 508Q453 481 421 440T356 350T294 250T241 151T206 66Q250 65 293 66T379 68Q381 68 393
67T406 60Q407 54 399 51T382 46T368 43Q284 36 199 26T31 -4Q29 -4 27 -4T21 -5ZM414 647Q407 645 407 649Q407 651 409 654T412 658Q437 680 460 695T507 728Q514 733 525 740T546 754T561 760Q567 760 571 753L587 730Q599 713 607 699T627 668Q632 660 632
651Q632 648 629 647T622 647Q619 649 605 659T573 684T544 711Q521 699 492 684T441 659T414 647Z" />
<glyph unicode="&#xcf;" glyph-name="Idieresis" horiz-adv-x="407" d="M21 -5Q5 -5 5 11Q5 28 25 37T75 52T132 59T172 62Q182 99 203 152T254 264T316 380T382 482T443 552Q419 553 394 545T347 528T307 519Q298 519 292 528T285 544Q285 557 302 564T344 576T397
582T445 587T475 594Q482 597 490 609T505 622Q516 622 529 612T549 594Q584 594 621 593T694 589Q697 589 702 588T709 581Q704 571 679 568T618 560T546 545T482 508Q453 481 421 440T356 350T294 250T241 151T206 66Q250 65 293 66T379 68Q381 68 393 67T406
60Q407 54 399 51T382 46T368 43Q284 36 199 26T31 -4Q29 -4 27 -4T21 -5ZM594 648Q585 648 572 652T559 670Q559 679 567 691T588 713T610 723Q618 723 625 716T632 699Q632 694 625 682T609 659T594 648ZM474 648Q465 648 452 652T439 670Q439 679 447 691T468
713T490 723Q498 723 505 716T512 699Q512 694 505 682T489 659T474 648Z" />
<glyph unicode="&#xd0;" glyph-name="Eth" horiz-adv-x="587" d="M217 9Q210 9 194 12T163 21T147 33Q147 39 158 41T182 43T197 44Q234 44 282 58T381 97T479 155T563 227T621 309T636 393Q630 445 606 477T544 528T463 555T375 565T293 567Q256 567 217 565T144
552Q134 549 124 546T103 543Q102 543 97 543T92 547Q90 561 105 571T143 588T192 599T239 604T269 606Q316 606 368 602T471 584T565 545T636 479T671 377Q672 371 672 365T672 354Q672 294 643 242T564 147T454 73T332 26T217 9ZM92 -12Q79 -12 70 0T57 27T53
49Q53 69 64 105T94 186H28Q16 186 16 192Q16 200 34 211T70 223H111Q136 278 167 335T230 440T289 518T335 548Q345 548 363 538T382 517Q382 513 360 486T303 417T228 325T156 223H225Q234 223 248 223T275 220T287 211Q287 203 272 198T236 189T193 186H133Q110
145 97 108T87 42Q88 36 90 32T99 28Q110 28 118 34T129 41Q131 41 131 39T132 36Q134 19 122 4T92 -12Z" />
<glyph unicode="&#xd1;" glyph-name="Ntilde" horiz-adv-x="578" d="M61 -27Q39 -27 29 -17T18 16Q18 47 36 95T85 201T149 314T214 416T265 490Q262 491 256 493T250 500Q250 505 264 520T299 554T336 586T360 600Q376 600 389 587T403 557Q403 553 401 549Q398
534 389 495T369 404T351 294T343 187Q343 129 357 89T410 49Q444 49 478 81T545 164T604 274Q613 294 626 328T651 403T672 482T681 548Q681 587 660 587Q652 587 644 584T625 580Q622 580 618 581T613 587Q613 597 625 605T652 618T676 623Q706 623 719 603T733
547Q733 506 717 450T673 333T609 214T534 108T455 32T380 4Q346 4 327 24T299 79T291 157Q291 206 299 259T318 362T340 449T357 504Q332 476 293 429T212 324T131 208T70 97T46 6Q46 1 47 -5T56 -11Q74 -11 74 -19Q74 -27 61 -27ZM459 658Q455 658 452 663T449
675Q449 688 458 703T486 730T527 742Q542 742 557 734T588 718T618 710Q632 710 642 716T661 733Q664 737 666 741T670 745Q675 745 673 727Q672 708 656 689T615 669Q599 669 585 677T555 693T521 701Q507 701 490 690T466 664Q464 658 459 658Z" />
<glyph unicode="&#xd2;" glyph-name="Ograve" horiz-adv-x="698" d="M260 -15Q100 -15 100 146Q100 202 122 254T181 355T259 445T340 521Q291 504 246 476T161 412Q152 404 145 404Q139 404 139 411Q139 417 145 426Q187 482 251 521T390 580T532 601Q582 601
630 589T717 552T779 485T802 387Q802 333 776 283T704 187T603 105T485 41T366 0T260 -15ZM252 18Q308 18 375 41T509 104T632 198T721 310T755 431Q755 472 736 499T687 541T620 563T551 570Q515 570 480 565T409 548Q418 547 431 542T454 529T464 509Q464 500
453 496Q416 484 373 457T288 393T212 311T156 222T135 136Q135 18 252 18ZM622 645Q619 645 599 652T552 669T504 689T474 702Q470 704 466 708T462 719Q462 724 466 732T476 742Q481 742 486 740T505 731Q519 723 542 710T588 684T625 659Q627 658 628 656T631
652Q631 645 622 645Z" />
<glyph unicode="&#xd3;" glyph-name="Oacute" horiz-adv-x="698" d="M260 -15Q100 -15 100 146Q100 202 122 254T181 355T259 445T340 521Q291 504 246 476T161 412Q152 404 145 404Q139 404 139 411Q139 417 145 426Q187 482 251 521T390 580T532 601Q582 601
630 589T717 552T779 485T802 387Q802 333 776 283T704 187T603 105T485 41T366 0T260 -15ZM252 18Q308 18 375 41T509 104T632 198T721 310T755 431Q755 472 736 499T687 541T620 563T551 570Q515 570 480 565T409 548Q418 547 431 542T454 529T464 509Q464 500
453 496Q416 484 373 457T288 393T212 311T156 222T135 136Q135 18 252 18ZM543 645Q534 645 534 652Q535 654 537 656T540 659Q555 670 577 683T623 710T660 731Q673 738 679 740T689 742Q695 741 699 733T703 719Q703 712 700 708T691 702Q684 699 662 690T613
670T567 652T543 645Z" />
<glyph unicode="&#xd4;" glyph-name="Ocircumflex" horiz-adv-x="698" d="M260 -15Q100 -15 100 146Q100 202 122 254T181 355T259 445T340 521Q291 504 246 476T161 412Q152 404 145 404Q139 404 139 411Q139 417 145 426Q187 482 251 521T390 580T532 601Q582
601 630 589T717 552T779 485T802 387Q802 333 776 283T704 187T603 105T485 41T366 0T260 -15ZM252 18Q308 18 375 41T509 104T632 198T721 310T755 431Q755 472 736 499T687 541T620 563T551 570Q515 570 480 565T409 548Q418 547 431 542T454 529T464 509Q464
500 453 496Q416 484 373 457T288 393T212 311T156 222T135 136Q135 18 252 18ZM504 646Q497 644 497 648Q497 650 499 653T502 657Q527 679 550 694T597 727Q604 732 615 739T636 753T651 759Q657 759 661 752L677 729Q689 712 697 698T717 667Q722 659 722 650Q722
647 719 646T712 646Q709 648 695 658T663 683T634 710Q611 698 582 683T531 658T504 646Z" />
<glyph unicode="&#xd5;" glyph-name="Otilde" horiz-adv-x="698" d="M260 -15Q100 -15 100 146Q100 202 122 254T181 355T259 445T340 521Q291 504 246 476T161 412Q152 404 145 404Q139 404 139 411Q139 417 145 426Q187 482 251 521T390 580T532 601Q582 601
630 589T717 552T779 485T802 387Q802 333 776 283T704 187T603 105T485 41T366 0T260 -15ZM252 18Q308 18 375 41T509 104T632 198T721 310T755 431Q755 472 736 499T687 541T620 563T551 570Q515 570 480 565T409 548Q418 547 431 542T454 529T464 509Q464 500
453 496Q416 484 373 457T288 393T212 311T156 222T135 136Q135 18 252 18ZM516 645Q512 645 509 650T506 662Q506 675 515 690T543 717T584 729Q599 729 614 721T645 705T675 697Q689 697 699 703T718 720Q721 724 723 728T727 732Q732 732 730 714Q729 695 713
676T672 656Q656 656 642 664T612 680T578 688Q564 688 547 677T523 651Q521 645 516 645Z" />
<glyph unicode="&#xd6;" glyph-name="Odieresis" horiz-adv-x="698" d="M260 -15Q100 -15 100 146Q100 202 122 254T181 355T259 445T340 521Q291 504 246 476T161 412Q152 404 145 404Q139 404 139 411Q139 417 145 426Q187 482 251 521T390 580T532 601Q582
601 630 589T717 552T779 485T802 387Q802 333 776 283T704 187T603 105T485 41T366 0T260 -15ZM252 18Q308 18 375 41T509 104T632 198T721 310T755 431Q755 472 736 499T687 541T620 563T551 570Q515 570 480 565T409 548Q418 547 431 542T454 529T464 509Q464
500 453 496Q416 484 373 457T288 393T212 311T156 222T135 136Q135 18 252 18ZM684 647Q675 647 662 651T649 669Q649 678 657 690T678 712T700 722Q708 722 715 715T722 698Q722 693 715 681T699 658T684 647ZM564 647Q555 647 542 651T529 669Q529 678 537 690T558
712T580 722Q588 722 595 715T602 698Q602 693 595 681T579 658T564 647Z" />
<glyph unicode="&#xd7;" glyph-name="multiply" horiz-adv-x="435" d="M262 26Q255 26 249 42Q243 60 233 92T212 152Q172 125 133 93T58 37Q48 31 43 31Q36 31 39 39T59 58Q79 72 117 104T205 173Q194 203 184 222T169 254Q168 257 168 259T167 265Q167 279 176
289T194 300Q204 300 208 285Q213 265 217 244T229 191L350 282Q370 296 383 300T413 302Q428 300 428 297Q428 293 420 286T392 264Q373 251 331 226T236 165Q241 140 250 107T265 47Q266 43 266 40T267 35Q267 26 262 26Z" />
<glyph unicode="&#xd8;" glyph-name="Oslash" horiz-adv-x="657" d="M13 -99Q0 -99 0 -94Q0 -90 4 -86L104 21Q59 62 59 146Q59 202 81 254T140 355T218 445T299 521Q250 504 205 476T120 412Q111 404 104 404Q98 404 98 411Q98 417 104 426Q146 482 210 521T349
580T491 601Q518 601 544 598T596 587L654 649Q661 657 675 661T702 665Q714 665 722 662T731 652Q731 646 724 639L654 564Q701 539 731 496T761 387Q761 333 735 283T663 187T562 105T444 41T325 0T219 -15Q167 -15 132 3L48 -88Q44 -93 33 -96T13 -99ZM126 45Q247
180 355 310T575 564Q542 570 510 570Q474 570 439 565T368 548Q377 547 390 542T413 529T423 509Q423 500 412 496Q375 484 332 457T247 393T171 311T115 222T94 136Q94 74 126 45ZM211 18Q267 18 334 41T468 104T591 198T680 310T714 431Q714 475 692 502T637
546L155 27Q178 18 211 18Z" />
<glyph unicode="&#xd9;" glyph-name="Ugrave" horiz-adv-x="492" d="M469 -55Q448 -55 436 -35T416 15T407 71T404 112Q404 141 406 170T413 227Q390 201 354 164T274 91T187 31T108 7Q65 7 44 36T22 105Q22 132 33 173T64 262T105 358T147 446T183 510Q197 530
208 549T234 580T275 593Q292 593 299 589T306 579Q306 569 294 555T273 528Q253 500 226 460T170 372T117 276T77 180T61 94Q61 75 68 57T101 38Q153 38 203 69T300 152T387 262T460 377T512 473Q526 500 539 531T568 587Q576 598 586 602T609 606Q614 606 624
605T642 599T651 586Q651 581 622 537T558 425Q506 323 479 233T452 72Q452 2 478 -47V-49Q478 -55 469 -55ZM479 658Q476 658 456 665T409 682T361 702T331 715Q327 717 323 721T319 732Q319 737 323 745T333 755Q338 755 343 753T362 744Q376 736 399 723T445
697T482 672Q484 671 485 669T488 665Q488 658 479 658Z" />
<glyph unicode="&#xda;" glyph-name="Uacute" horiz-adv-x="492" d="M469 -55Q448 -55 436 -35T416 15T407 71T404 112Q404 141 406 170T413 227Q390 201 354 164T274 91T187 31T108 7Q65 7 44 36T22 105Q22 132 33 173T64 262T105 358T147 446T183 510Q197 530
208 549T234 580T275 593Q292 593 299 589T306 579Q306 569 294 555T273 528Q253 500 226 460T170 372T117 276T77 180T61 94Q61 75 68 57T101 38Q153 38 203 69T300 152T387 262T460 377T512 473Q526 500 539 531T568 587Q576 598 586 602T609 606Q614 606 624
605T642 599T651 586Q651 581 622 537T558 425Q506 323 479 233T452 72Q452 2 478 -47V-49Q478 -55 469 -55ZM400 658Q391 658 391 665Q392 667 394 669T397 672Q412 683 434 696T480 723T517 744Q530 751 536 753T546 755Q552 754 556 746T560 732Q560 725 557
721T548 715Q541 712 519 703T470 683T424 665T400 658Z" />
<glyph unicode="&#xdb;" glyph-name="Ucircumflex" horiz-adv-x="492" d="M469 -55Q448 -55 436 -35T416 15T407 71T404 112Q404 141 406 170T413 227Q390 201 354 164T274 91T187 31T108 7Q65 7 44 36T22 105Q22 132 33 173T64 262T105 358T147 446T183 510Q197
530 208 549T234 580T275 593Q292 593 299 589T306 579Q306 569 294 555T273 528Q253 500 226 460T170 372T117 276T77 180T61 94Q61 75 68 57T101 38Q153 38 203 69T300 152T387 262T460 377T512 473Q526 500 539 531T568 587Q576 598 586 602T609 606Q614 606
624 605T642 599T651 586Q651 581 622 537T558 425Q506 323 479 233T452 72Q452 2 478 -47V-49Q478 -55 469 -55ZM361 659Q354 657 354 661Q354 663 356 666T359 670Q384 692 407 707T454 740Q461 745 472 752T493 766T508 772Q514 772 518 765L534 742Q546 725
554 711T574 680Q579 672 579 663Q579 660 576 659T569 659Q566 661 552 671T520 696T491 723Q468 711 439 696T388 671T361 659Z" />
<glyph unicode="&#xdc;" glyph-name="Udieresis" horiz-adv-x="492" d="M469 -55Q448 -55 436 -35T416 15T407 71T404 112Q404 141 406 170T413 227Q390 201 354 164T274 91T187 31T108 7Q65 7 44 36T22 105Q22 132 33 173T64 262T105 358T147 446T183 510Q197
530 208 549T234 580T275 593Q292 593 299 589T306 579Q306 569 294 555T273 528Q253 500 226 460T170 372T117 276T77 180T61 94Q61 75 68 57T101 38Q153 38 203 69T300 152T387 262T460 377T512 473Q526 500 539 531T568 587Q576 598 586 602T609 606Q614 606
624 605T642 599T651 586Q651 581 622 537T558 425Q506 323 479 233T452 72Q452 2 478 -47V-49Q478 -55 469 -55ZM541 660Q532 660 519 664T506 682Q506 691 514 703T535 725T557 735Q565 735 572 728T579 711Q579 706 572 694T556 671T541 660ZM421 660Q412 660
399 664T386 682Q386 691 394 703T415 725T437 735Q445 735 452 728T459 711Q459 706 452 694T436 671T421 660Z" />
<glyph unicode="&#xdd;" glyph-name="Yacute" horiz-adv-x="336" d="M178 -47Q137 -43 137 -1Q137 20 147 48T171 108T200 166T225 210T235 230Q235 236 233 240T231 251Q231 256 237 268T244 291Q244 337 221 383T172 465Q169 436 164 436Q159 436 149 456T121
505T70 556Q61 563 61 570Q61 585 75 593T102 601Q127 601 152 576T199 512T239 428T268 346T280 287Q334 351 387 416T502 539Q504 552 519 568T553 597T583 610Q597 610 609 598T621 571Q621 561 611 554Q580 533 536 495T442 407T345 303T258 194T195 90T171
3Q171 -16 173 -19T188 -23Q202 -23 202 -30Q202 -36 195 -42T178 -47ZM312 658Q303 658 303 665Q304 667 306 669T309 672Q324 683 346 696T392 723T429 744Q442 751 448 753T458 755Q464 754 468 746T472 732Q472 725 469 721T460 715Q453 712 431 703T382 683T336
665T312 658Z" />
<glyph unicode="&#xde;" glyph-name="Thorn" horiz-adv-x="461" d="M75 -14Q67 -14 61 -4T52 18T48 36Q46 62 60 106T101 207T160 324T229 447T299 561Q271 560 232 550T159 522Q157 521 154 521T151 526Q151 542 167 553T209 573T259 585T304 589H317Q339 622
358 650T392 697Q399 706 407 720T425 745T448 756Q455 756 460 752Q469 747 476 739T484 722Q484 717 456 679T384 583Q420 578 456 568T522 541T571 496T590 430Q590 384 564 349T495 289T402 249T304 226T220 218Q214 218 203 218T181 222Q165 227 165 232Q165
236 171 238T184 241Q217 245 264 255T361 282T454 321T524 374T551 443Q551 473 534 494T488 528T428 549T366 559Q329 509 289 451T210 331T141 209T95 96T81 0V-3Q81 -7 80 -10T75 -14Z" />
<glyph unicode="&#xdf;" glyph-name="germandbls" horiz-adv-x="466" d="M-217 -231Q-239 -231 -259 -217T-285 -186Q-286 -181 -286 -178T-287 -170Q-287 -158 -283 -152T-275 -147Q-264 -152 -260 -161T-249 -179T-229 -194T-187 -200Q-155 -200 -120 -173T-51
-102T14 -8T72 87T115 164Q138 205 168 259T235 369T312 473T393 550T476 580Q493 580 512 572Q526 566 543 543T561 492Q561 468 547 441T513 400Q507 393 500 392T482 388Q463 384 434 375T383 349Q359 331 359 300Q359 276 372 249T404 196T443 148Q466 122
466 93Q466 62 439 36T366 -7T267 -23Q253 -23 238 -22T209 -18Q183 -13 164 4T145 51Q145 77 160 98T194 136T226 159Q233 163 238 165T246 168Q249 168 249 166Q249 160 238 148Q229 138 214 122T187 85T174 43Q174 21 193 11T241 1Q275 1 312 13T376 47T402
95Q402 126 389 150T360 195T330 236T317 280Q317 314 344 342T411 388T488 407Q492 418 505 439Q526 477 526 504Q526 526 515 538T484 551Q465 551 440 538T387 492Q327 425 276 347T175 182T62 -3Q57 -10 41 -35T-2 -94T-63 -158T-136 -210T-217 -231Z" />
<glyph unicode="&#xe0;" glyph-name="agrave" horiz-adv-x="314" d="M230 -9Q221 -9 210 -1T190 17T182 37Q182 52 193 77T218 128T241 165Q227 153 206 127T160 71T113 20T74 -1Q52 -1 39 14T25 52Q25 82 42 116T86 183T146 243T210 286T267 302Q294 302 311
290T328 252Q328 248 327 237T319 226Q316 226 310 235T292 253T264 262Q236 262 206 242T147 190T98 125T66 68Q63 61 61 53T58 37Q58 28 63 28Q68 28 84 39T108 55Q143 80 174 112T231 178Q239 189 246 200T260 221Q265 228 270 228Q281 228 291 213T302 187Q302
182 301 181T294 175Q279 160 265 133T240 79T224 32Q223 29 223 25T227 21Q237 24 259 43T308 88T356 136T385 167Q387 169 389 171T395 174Q402 174 402 167Q402 163 386 144T346 99T297 49T254 8T230 -9ZM294 350Q291 350 273 356T232 372T189 389T162 401Q158
403 155 407T151 418Q151 423 155 431T166 440Q171 440 176 438T194 428Q215 415 244 397T296 362Q298 361 299 359T301 355Q301 350 294 350Z" />
<glyph unicode="&#xe1;" glyph-name="aacute" horiz-adv-x="314" d="M230 -9Q221 -9 210 -1T190 17T182 37Q182 52 193 77T218 128T241 165Q227 153 206 127T160 71T113 20T74 -1Q52 -1 39 14T25 52Q25 82 42 116T86 183T146 243T210 286T267 302Q294 302 311
290T328 252Q328 248 327 237T319 226Q316 226 310 235T292 253T264 262Q236 262 206 242T147 190T98 125T66 68Q63 61 61 53T58 37Q58 28 63 28Q68 28 84 39T108 55Q143 80 174 112T231 178Q239 189 246 200T260 221Q265 228 270 228Q281 228 291 213T302 187Q302
182 301 181T294 175Q279 160 265 133T240 79T224 32Q223 29 223 25T227 21Q237 24 259 43T308 88T356 136T385 167Q387 169 389 171T395 174Q402 174 402 167Q402 163 386 144T346 99T297 49T254 8T230 -9ZM231 348Q224 348 224 353Q224 355 226 357T229 360Q251
377 280 395T331 426Q343 434 349 436T359 438Q365 438 369 430T374 416Q374 409 371 405T363 399Q356 395 336 387T293 370T252 355T231 348Z" />
<glyph unicode="&#xe2;" glyph-name="acircumflex" horiz-adv-x="314" d="M230 -9Q221 -9 210 -1T190 17T182 37Q182 52 193 77T218 128T241 165Q227 153 206 127T160 71T113 20T74 -1Q52 -1 39 14T25 52Q25 82 42 116T86 183T146 243T210 286T267 302Q294 302
311 290T328 252Q328 248 327 237T319 226Q316 226 310 235T292 253T264 262Q236 262 206 242T147 190T98 125T66 68Q63 61 61 53T58 37Q58 28 63 28Q68 28 84 39T108 55Q143 80 174 112T231 178Q239 189 246 200T260 221Q265 228 270 228Q281 228 291 213T302
187Q302 182 301 181T294 175Q279 160 265 133T240 79T224 32Q223 29 223 25T227 21Q237 24 259 43T308 88T356 136T385 167Q387 169 389 171T395 174Q402 174 402 167Q402 163 386 144T346 99T297 49T254 8T230 -9ZM373 335Q370 337 358 347T331 372T306 399Q286
387 261 373T217 349T193 337Q186 335 186 339Q186 341 188 344T191 348Q216 370 242 390T291 428Q301 436 309 442T323 448Q329 448 333 441L341 428Q352 410 361 391T378 356Q380 352 381 348T383 339Q383 336 380 335T373 335Z" />
<glyph unicode="&#xe3;" glyph-name="atilde" horiz-adv-x="314" d="M230 -9Q221 -9 210 -1T190 17T182 37Q182 52 193 77T218 128T241 165Q227 153 206 127T160 71T113 20T74 -1Q52 -1 39 14T25 52Q25 82 42 116T86 183T146 243T210 286T267 302Q294 302 311
290T328 252Q328 248 327 237T319 226Q316 226 310 235T292 253T264 262Q236 262 206 242T147 190T98 125T66 68Q63 61 61 53T58 37Q58 28 63 28Q68 28 84 39T108 55Q143 80 174 112T231 178Q239 189 246 200T260 221Q265 228 270 228Q281 228 291 213T302 187Q302
182 301 181T294 175Q279 160 265 133T240 79T224 32Q223 29 223 25T227 21Q237 24 259 43T308 88T356 136T385 167Q387 169 389 171T395 174Q402 174 402 167Q402 163 386 144T346 99T297 49T254 8T230 -9ZM197 340Q194 340 191 344T188 355Q188 373 207 394T259
416Q273 416 287 409T315 395T342 387Q354 387 364 393T381 408Q384 412 386 415T389 419Q394 419 392 403Q391 386 376 368T339 350Q324 350 311 357T285 372T254 379Q241 379 225 369T204 345Q202 340 197 340Z" />
<glyph unicode="&#xe4;" glyph-name="adieresis" horiz-adv-x="314" d="M230 -9Q221 -9 210 -1T190 17T182 37Q182 52 193 77T218 128T241 165Q227 153 206 127T160 71T113 20T74 -1Q52 -1 39 14T25 52Q25 82 42 116T86 183T146 243T210 286T267 302Q294 302 311
290T328 252Q328 248 327 237T319 226Q316 226 310 235T292 253T264 262Q236 262 206 242T147 190T98 125T66 68Q63 61 61 53T58 37Q58 28 63 28Q68 28 84 39T108 55Q143 80 174 112T231 178Q239 189 246 200T260 221Q265 228 270 228Q281 228 291 213T302 187Q302
182 301 181T294 175Q279 160 265 133T240 79T224 32Q223 29 223 25T227 21Q237 24 259 43T308 88T356 136T385 167Q387 169 389 171T395 174Q402 174 402 167Q402 163 386 144T346 99T297 49T254 8T230 -9ZM356 352Q347 352 334 356T321 374Q321 383 329 395T350
417T372 427Q380 427 387 420T394 403Q394 398 387 386T371 363T356 352ZM236 352Q227 352 214 356T201 374Q201 383 209 395T230 417T252 427Q260 427 267 420T274 403Q274 398 267 386T251 363T236 352Z" />
<glyph unicode="&#xe5;" glyph-name="aring" horiz-adv-x="314" d="M230 -9Q221 -9 210 -1T190 17T182 37Q182 52 193 77T218 128T241 165Q227 153 206 127T160 71T113 20T74 -1Q52 -1 39 14T25 52Q25 82 42 116T86 183T146 243T210 286T267 302Q294 302 311 290T328
252Q328 248 327 237T319 226Q316 226 310 235T292 253T264 262Q236 262 206 242T147 190T98 125T66 68Q63 61 61 53T58 37Q58 28 63 28Q68 28 84 39T108 55Q143 80 174 112T231 178Q239 189 246 200T260 221Q265 228 270 228Q281 228 291 213T302 187Q302 182
301 181T294 175Q279 160 265 133T240 79T224 32Q223 29 223 25T227 21Q237 24 259 43T308 88T356 136T385 167Q387 169 389 171T395 174Q402 174 402 167Q402 163 386 144T346 99T297 49T254 8T230 -9ZM284 350Q258 350 245 364T232 398Q232 414 241 432T271 464T322
478Q348 478 359 466T371 433Q371 401 346 376T284 350ZM288 370Q308 370 322 389T337 433Q337 460 317 460Q299 460 289 449T274 423T269 396Q269 386 273 378T288 370Z" />
<glyph unicode="&#xe6;" glyph-name="ae" horiz-adv-x="466" d="M230 -9Q221 -9 210 -1T190 17T182 37Q182 52 193 77T218 128T241 165Q227 153 206 127T160 71T113 20T74 -1Q52 -1 39 14T25 52Q25 82 42 116T86 183T146 243T210 286T267 302Q294 302 311 290T328
252Q328 248 327 237T319 226Q316 226 310 235T292 253T264 262Q236 262 206 242T147 190T98 125T66 68Q63 61 61 53T58 37Q58 35 58 32T62 28Q65 28 69 30Q116 56 158 95T231 178Q239 189 246 200T260 221Q265 228 270 228Q281 228 291 213T302 187Q302 183 301
181Q285 168 269 141T241 83T224 32Q223 29 223 25T225 21Q232 21 248 34T286 66V68Q286 91 298 121T332 183T379 240T432 283T484 300Q492 300 495 297T501 285Q503 281 504 276T507 266Q511 259 514 252T517 237Q517 227 512 220T500 206Q490 197 470 184T427
157T382 133T347 121Q338 107 329 87T319 49Q319 40 323 33T338 26Q354 26 380 41T436 79T489 123T526 157L558 191Q564 197 571 197Q577 197 577 192Q577 186 560 168T520 127T476 86T450 62Q429 44 402 27T346 9Q302 9 290 41Q268 20 252 6T230 -9ZM364 147Q374
153 394 166T437 195T474 227T490 255Q490 258 489 260Q488 261 485 261Q472 261 454 247T418 214T386 176T364 147Z" />
<glyph unicode="&#xe7;" glyph-name="ccedilla" horiz-adv-x="249" d="M99 -14Q66 -14 47 8T27 64Q27 96 47 134T100 208T168 271T231 308Q244 313 255 313Q268 313 272 307T278 294T287 283Q298 277 298 262Q298 251 293 236T277 209T253 197Q240 197 240 208Q240
215 247 223T261 240T268 259Q268 268 259 268Q242 268 217 251T166 205T117 146T80 86T66 40Q66 27 72 19T92 10Q113 10 139 22T188 51T227 81Q255 106 281 131T334 183Q337 186 341 186Q350 186 350 178Q350 174 334 157T296 117T255 77T230 54Q214 40 192 24T145
-3T99 -14ZM308 60Q277 60 252 71Q246 74 246 80Q246 83 249 86T257 87Q284 81 307 81Q326 81 338 87T350 107Q350 116 342 128T324 155Q305 181 305 205Q305 250 364 261H367Q371 261 375 259T375 251Q336 232 336 215Q336 207 342 197T360 173Q369 162 377 148T385
115Q385 86 361 73T308 60Z" />
<glyph unicode="&#xe8;" glyph-name="egrave" horiz-adv-x="218" d="M98 9Q38 9 38 68Q38 91 50 121T84 183T131 240T184 283T236 300Q244 300 247 297T253 285Q255 281 256 276T259 266Q263 259 266 252T269 237Q269 227 264 220T252 206Q242 197 222 184T179
157T134 133T99 121Q90 107 81 87T71 49Q71 40 75 33T90 26Q106 26 132 41T188 79T241 123T278 157L310 191Q316 197 323 197Q329 197 329 192Q329 186 312 168T272 127T228 86T202 62Q181 44 154 27T98 9ZM116 147Q126 153 146 166T189 195T226 227T242 255Q242
258 241 260Q240 261 237 261Q224 261 206 247T170 214T138 176T116 147ZM248 348Q245 348 227 354T186 370T143 387T116 399Q112 401 109 405T105 416Q105 421 109 429T120 438Q125 438 130 436T148 426Q169 413 198 395T250 360Q252 359 253 357T255 353Q255
348 248 348Z" />
<glyph unicode="&#xe9;" glyph-name="eacute" horiz-adv-x="218" d="M98 9Q38 9 38 68Q38 91 50 121T84 183T131 240T184 283T236 300Q244 300 247 297T253 285Q255 281 256 276T259 266Q263 259 266 252T269 237Q269 227 264 220T252 206Q242 197 222 184T179
157T134 133T99 121Q90 107 81 87T71 49Q71 40 75 33T90 26Q106 26 132 41T188 79T241 123T278 157L310 191Q316 197 323 197Q329 197 329 192Q329 186 312 168T272 127T228 86T202 62Q181 44 154 27T98 9ZM116 147Q126 153 146 166T189 195T226 227T242 255Q242
258 241 260Q240 261 237 261Q224 261 206 247T170 214T138 176T116 147ZM185 346Q178 346 178 351Q178 353 180 355T183 358Q205 375 234 393T285 424Q297 432 303 434T313 436Q319 436 323 428T328 414Q328 407 325 403T317 397Q310 393 290 385T247 368T206
353T185 346Z" />
<glyph unicode="&#xea;" glyph-name="ecircumflex" horiz-adv-x="218" d="M98 9Q38 9 38 68Q38 91 50 121T84 183T131 240T184 283T236 300Q244 300 247 297T253 285Q255 281 256 276T259 266Q263 259 266 252T269 237Q269 227 264 220T252 206Q242 197 222 184T179
157T134 133T99 121Q90 107 81 87T71 49Q71 40 75 33T90 26Q106 26 132 41T188 79T241 123T278 157L310 191Q316 197 323 197Q329 197 329 192Q329 186 312 168T272 127T228 86T202 62Q181 44 154 27T98 9ZM116 147Q126 153 146 166T189 195T226 227T242 255Q242
258 241 260Q240 261 237 261Q224 261 206 247T170 214T138 176T116 147ZM327 589Q324 591 312 601T285 626T260 653Q240 641 215 627T171 603T147 591Q140 589 140 593Q140 595 142 598T145 602Q170 624 196 644T245 682Q255 690 263 696T277 702Q283 702 287
695L295 682Q306 664 315 645T332 610Q334 606 335 602T337 593Q337 590 334 589T327 589Z" />
<glyph unicode="&#xeb;" glyph-name="edieresis" horiz-adv-x="218" d="M98 9Q38 9 38 68Q38 91 50 121T84 183T131 240T184 283T236 300Q244 300 247 297T253 285Q255 281 256 276T259 266Q263 259 266 252T269 237Q269 227 264 220T252 206Q242 197 222 184T179
157T134 133T99 121Q90 107 81 87T71 49Q71 40 75 33T90 26Q106 26 132 41T188 79T241 123T278 157L310 191Q316 197 323 197Q329 197 329 192Q329 186 312 168T272 127T228 86T202 62Q181 44 154 27T98 9ZM116 147Q126 153 146 166T189 195T226 227T242 255Q242
258 241 260Q240 261 237 261Q224 261 206 247T170 214T138 176T116 147ZM310 350Q301 350 288 354T275 372Q275 381 283 393T304 415T326 425Q334 425 341 418T348 401Q348 396 341 384T325 361T310 350ZM190 350Q181 350 168 354T155 372Q155 381 163 393T184
415T206 425Q214 425 221 418T228 401Q228 396 221 384T205 361T190 350Z" />
<glyph unicode="&#xec;" glyph-name="igrave" horiz-adv-x="209" d="M110 -21Q94 -21 81 -8T64 20Q67 39 77 66T102 124T130 180T154 223Q135 206 114 185T73 146Q72 145 69 142T62 139Q55 139 55 145Q55 150 59 154Q86 184 115 214T173 276Q182 287 188 293T209
300Q215 300 227 298T248 289T251 274Q244 263 227 238T189 181T147 117T113 58T100 19Q100 13 104 13Q110 13 124 24T153 47T173 64Q202 89 230 115T283 171Q285 173 288 177T296 181Q301 181 301 175Q301 168 296 161Q283 145 267 130T237 99Q211 73 187 48T138
-5Q133 -11 126 -16T110 -21ZM246 602Q243 602 225 608T184 624T141 641T114 653Q110 655 107 659T103 670Q103 675 107 683T118 692Q123 692 128 690T146 680Q167 667 196 649T248 614Q250 613 251 611T253 607Q253 602 246 602Z" />
<glyph unicode="&#xed;" glyph-name="iacute" horiz-adv-x="209" d="M110 -21Q94 -21 81 -8T64 20Q67 39 77 66T102 124T130 180T154 223Q135 206 114 185T73 146Q72 145 69 142T62 139Q55 139 55 145Q55 150 59 154Q86 184 115 214T173 276Q182 287 188 293T209
300Q215 300 227 298T248 289T251 274Q244 263 227 238T189 181T147 117T113 58T100 19Q100 13 104 13Q110 13 124 24T153 47T173 64Q202 89 230 115T283 171Q285 173 288 177T296 181Q301 181 301 175Q301 168 296 161Q283 145 267 130T237 99Q211 73 187 48T138
-5Q133 -11 126 -16T110 -21ZM183 344Q176 344 176 349Q176 351 178 353T181 356Q203 373 232 391T283 422Q295 430 301 432T311 434Q317 434 321 426T326 412Q326 405 323 401T315 395Q308 391 288 383T245 366T204 351T183 344Z" />
<glyph unicode="&#xee;" glyph-name="icircumflex" horiz-adv-x="209" d="M110 -21Q94 -21 81 -8T64 20Q67 39 77 66T102 124T130 180T154 223Q135 206 114 185T73 146Q72 145 69 142T62 139Q55 139 55 145Q55 150 59 154Q86 184 115 214T173 276Q182 287 188
293T209 300Q215 300 227 298T248 289T251 274Q244 263 227 238T189 181T147 117T113 58T100 19Q100 13 104 13Q110 13 124 24T153 47T173 64Q202 89 230 115T283 171Q285 173 288 177T296 181Q301 181 301 175Q301 168 296 161Q283 145 267 130T237 99Q211 73
187 48T138 -5Q133 -11 126 -16T110 -21ZM325 587Q322 589 310 599T283 624T258 651Q238 639 213 625T169 601T145 589Q138 587 138 591Q138 593 140 596T143 600Q168 622 194 642T243 680Q253 688 261 694T275 700Q281 700 285 693L293 680Q304 662 313 643T330
608Q332 604 333 600T335 591Q335 588 332 587T325 587Z" />
<glyph unicode="&#xef;" glyph-name="idieresis" horiz-adv-x="209" d="M110 -21Q94 -21 81 -8T64 20Q67 39 77 66T102 124T130 180T154 223Q135 206 114 185T73 146Q72 145 69 142T62 139Q55 139 55 145Q55 150 59 154Q86 184 115 214T173 276Q182 287 188 293T209
300Q215 300 227 298T248 289T251 274Q244 263 227 238T189 181T147 117T113 58T100 19Q100 13 104 13Q110 13 124 24T153 47T173 64Q202 89 230 115T283 171Q285 173 288 177T296 181Q301 181 301 175Q301 168 296 161Q283 145 267 130T237 99Q211 73 187 48T138
-5Q133 -11 126 -16T110 -21ZM308 348Q299 348 286 352T273 370Q273 379 281 391T302 413T324 423Q332 423 339 416T346 399Q346 394 339 382T323 359T308 348ZM188 348Q179 348 166 352T153 370Q153 379 161 391T182 413T204 423Q212 423 219 416T226 399Q226
394 219 382T203 359T188 348Z" />
<glyph unicode="&#xf0;" glyph-name="eth" horiz-adv-x="362" d="M103 1Q74 1 60 15T46 51Q46 70 52 88T67 123Q72 135 86 160T121 212T162 258T201 280H210Q221 280 230 278T245 268Q245 264 245 262T246 256Q246 250 240 250L230 251Q215 251 198 235T164 192T135
139T113 89T105 56Q105 47 109 40T127 32Q151 32 173 53T214 105T245 163T263 207Q277 253 282 304T288 403Q288 411 288 426T285 458L215 432Q205 428 205 434Q205 442 216 455T240 473L280 487Q273 515 259 536T216 557Q212 557 208 557T198 556Q191 556 187
558T183 569Q183 577 195 581T223 587T245 589Q283 589 302 564T330 506L353 515Q359 518 370 521T390 525T399 522Q401 512 380 499T336 477Q339 447 339 426Q339 352 320 280Q314 257 303 222T273 148T229 77T173 22T103 1Z" />
<glyph unicode="&#xf1;" glyph-name="ntilde" horiz-adv-x="357" d="M250 -11Q235 -11 217 -3T198 24Q198 45 214 74T252 134T294 195T324 244Q318 241 305 233T278 216T259 202Q216 170 185 136T121 58Q113 46 105 33T87 8Q83 3 74 -2T56 -7Q43 -7 43 7Q43 19
55 44T87 101T127 164T165 221T189 258Q187 255 178 248T161 233T148 222Q129 204 111 185T75 147Q73 145 68 141T58 137Q53 137 53 142Q53 147 67 163T102 201T145 246T185 287T208 312Q218 325 229 333T257 341Q266 341 279 333T292 313Q292 309 290 308Q260
283 232 249T178 179T132 112Q156 139 186 165T244 215L315 273Q322 279 329 286T344 298Q352 303 361 303T381 302Q392 302 402 296T413 277Q413 264 407 258T392 243Q375 227 351 201T302 145T262 85T246 28Q246 25 246 22T247 16Q268 24 293 42T345 84T393 130T431
171Q433 173 435 176T442 179Q447 179 447 172Q447 168 444 163Q425 138 393 104T327 40T266 -7Q259 -11 250 -11ZM321 364Q318 364 315 368T312 379Q312 397 331 418T383 440Q397 440 411 433T439 419T466 411Q478 411 488 417T505 432Q508 436 510 439T513 443Q518
443 516 427Q515 410 500 392T463 374Q448 374 435 381T409 396T378 403Q365 403 349 393T328 369Q326 364 321 364Z" />
<glyph unicode="&#xf2;" glyph-name="ograve" horiz-adv-x="293" d="M95 -11Q66 -11 52 12T38 61Q38 95 56 134T99 210T145 269Q150 275 158 275Q167 275 176 268Q197 283 224 295T278 307Q323 307 323 261Q323 217 302 180T254 108Q247 99 241 91T226 75Q270
87 303 115T368 173Q372 177 375 179T385 182Q390 182 390 175Q390 174 387 170T383 164Q350 124 302 90T200 47Q181 28 152 9T95 -11ZM173 68Q177 68 180 68T188 69Q208 93 229 126T266 194T281 259Q281 277 264 277Q247 277 225 267T188 246V243Q188 233 173
215T140 177T114 145Q111 112 127 90T173 68ZM96 6Q115 6 133 20T165 46Q141 48 122 62T86 95Q83 89 78 72T73 38Q73 25 78 16T96 6ZM293 355Q290 355 272 361T231 377T188 394T161 406Q157 408 154 412T150 423Q150 428 154 436T165 445Q170 445 175 443T193 433Q214
420 243 402T295 367Q297 366 298 364T300 360Q300 355 293 355Z" />
<glyph unicode="&#xf3;" glyph-name="oacute" horiz-adv-x="293" d="M95 -11Q66 -11 52 12T38 61Q38 95 56 134T99 210T145 269Q150 275 158 275Q167 275 176 268Q197 283 224 295T278 307Q323 307 323 261Q323 217 302 180T254 108Q247 99 241 91T226 75Q270
87 303 115T368 173Q372 177 375 179T385 182Q390 182 390 175Q390 174 387 170T383 164Q350 124 302 90T200 47Q181 28 152 9T95 -11ZM173 68Q177 68 180 68T188 69Q208 93 229 126T266 194T281 259Q281 277 264 277Q247 277 225 267T188 246V243Q188 233 173
215T140 177T114 145Q111 112 127 90T173 68ZM96 6Q115 6 133 20T165 46Q141 48 122 62T86 95Q83 89 78 72T73 38Q73 25 78 16T96 6ZM230 353Q223 353 223 358Q223 360 225 362T228 365Q250 382 279 400T330 431Q342 439 348 441T358 443Q364 443 368 435T373 421Q373
414 370 410T362 404Q355 400 335 392T292 375T251 360T230 353Z" />
<glyph unicode="&#xf4;" glyph-name="ocircumflex" horiz-adv-x="293" d="M95 -11Q66 -11 52 12T38 61Q38 95 56 134T99 210T145 269Q150 275 158 275Q167 275 176 268Q197 283 224 295T278 307Q323 307 323 261Q323 217 302 180T254 108Q247 99 241 91T226 75Q270
87 303 115T368 173Q372 177 375 179T385 182Q390 182 390 175Q390 174 387 170T383 164Q350 124 302 90T200 47Q181 28 152 9T95 -11ZM173 68Q177 68 180 68T188 69Q208 93 229 126T266 194T281 259Q281 277 264 277Q247 277 225 267T188 246V243Q188 233 173
215T140 177T114 145Q111 112 127 90T173 68ZM96 6Q115 6 133 20T165 46Q141 48 122 62T86 95Q83 89 78 72T73 38Q73 25 78 16T96 6ZM372 340Q369 342 357 352T330 377T305 404Q285 392 260 378T216 354T192 342Q185 340 185 344Q185 346 187 349T190 353Q215 375
241 395T290 433Q300 441 308 447T322 453Q328 453 332 446L340 433Q351 415 360 396T377 361Q379 357 380 353T382 344Q382 341 379 340T372 340Z" />
<glyph unicode="&#xf5;" glyph-name="otilde" horiz-adv-x="293" d="M95 -11Q66 -11 52 12T38 61Q38 95 56 134T99 210T145 269Q150 275 158 275Q167 275 176 268Q197 283 224 295T278 307Q323 307 323 261Q323 217 302 180T254 108Q247 99 241 91T226 75Q270
87 303 115T368 173Q372 177 375 179T385 182Q390 182 390 175Q390 174 387 170T383 164Q350 124 302 90T200 47Q181 28 152 9T95 -11ZM173 68Q177 68 180 68T188 69Q208 93 229 126T266 194T281 259Q281 277 264 277Q247 277 225 267T188 246V243Q188 233 173
215T140 177T114 145Q111 112 127 90T173 68ZM96 6Q115 6 133 20T165 46Q141 48 122 62T86 95Q83 89 78 72T73 38Q73 25 78 16T96 6ZM196 345Q193 345 190 349T187 360Q187 378 206 399T258 421Q272 421 286 414T314 400T341 392Q353 392 363 398T380 413Q383 417
385 420T388 424Q393 424 391 408Q390 391 375 373T338 355Q323 355 310 362T284 377T253 384Q240 384 224 374T203 350Q201 345 196 345Z" />
<glyph unicode="&#xf6;" glyph-name="odieresis" horiz-adv-x="293" d="M95 -11Q66 -11 52 12T38 61Q38 95 56 134T99 210T145 269Q150 275 158 275Q167 275 176 268Q197 283 224 295T278 307Q323 307 323 261Q323 217 302 180T254 108Q247 99 241 91T226 75Q270
87 303 115T368 173Q372 177 375 179T385 182Q390 182 390 175Q390 174 387 170T383 164Q350 124 302 90T200 47Q181 28 152 9T95 -11ZM173 68Q177 68 180 68T188 69Q208 93 229 126T266 194T281 259Q281 277 264 277Q247 277 225 267T188 246V243Q188 233 173
215T140 177T114 145Q111 112 127 90T173 68ZM96 6Q115 6 133 20T165 46Q141 48 122 62T86 95Q83 89 78 72T73 38Q73 25 78 16T96 6ZM355 357Q346 357 333 361T320 379Q320 388 328 400T349 422T371 432Q379 432 386 425T393 408Q393 403 386 391T370 368T355 357ZM235
357Q226 357 213 361T200 379Q200 388 208 400T229 422T251 432Q259 432 266 425T273 408Q273 403 266 391T250 368T235 357Z" />
<glyph unicode="&#xf7;" glyph-name="divide" horiz-adv-x="384" d="M259 239Q250 239 237 243T224 261Q224 270 232 282T253 304T275 314Q283 314 290 307T297 290Q297 285 290 273T274 250T259 239ZM108 157Q96 157 96 163Q96 171 114 182T150 194H305Q314 194
328 194T355 191T367 182Q367 174 352 169T316 160T273 157H108ZM169 35Q160 35 147 39T134 57Q134 66 142 78T163 100T185 110Q193 110 200 103T207 86Q207 81 200 69T184 46T169 35Z" />
<glyph unicode="&#xf8;" glyph-name="oslash" horiz-adv-x="293" d="M-14 -120Q-18 -124 -29 -125T-34 -119Q-11 -95 13 -64T62 1Q50 12 44 28T38 61Q38 95 56 134T99 210T145 269Q150 275 158 275Q167 275 176 268Q196 282 222 294T273 307Q300 341 325 368Q328
372 334 373T347 375Q355 375 359 373T357 364L307 298Q323 287 323 261Q323 217 302 180T254 108Q247 99 241 91T226 75Q270 87 303 115T368 173Q372 177 375 179T385 182Q390 182 390 175Q390 174 387 170T383 164Q350 124 302 90T200 47Q181 28 152 9T95 -11Q83
-11 73 -6L-14 -120ZM76 20Q121 85 166 154T253 280Q237 276 219 265T188 246Q179 235 163 218T126 172T86 95Q83 88 78 72T73 38Q73 28 76 20ZM96 6Q109 6 128 15T165 40T192 69Q212 93 234 126T271 196T287 264Q287 266 287 268T286 271L84 9Q89 6 96 6Z" />
<glyph unicode="&#xf9;" glyph-name="ugrave" horiz-adv-x="353" d="M275 -7Q255 -7 233 10T211 49Q211 69 221 96T244 145Q213 112 182 79T120 12Q110 0 96 0Q77 0 61 20T44 58Q44 63 45 66Q52 85 61 103T81 139Q92 158 104 175T130 211Q135 217 139 223T148
237Q151 242 151 249T150 261Q160 274 177 286T210 299Q214 299 223 297T241 291T250 283Q250 279 246 275Q241 270 235 265T224 254Q201 231 180 206T140 154Q134 145 122 128T99 92T89 63Q89 53 98 53Q108 53 127 66T170 101T215 146T255 188T280 216Q301 241
321 272Q329 284 340 293T366 303Q374 303 386 302T399 289Q399 285 397 281T391 274Q358 240 329 203T279 121Q272 106 265 82T258 40Q258 23 271 23Q280 23 289 29Q300 35 319 53T359 95T400 140T429 174Q431 176 433 177T437 179Q444 179 444 171Q444 167 442
165T438 160Q407 124 377 87T315 14Q308 5 298 -1T275 -7ZM325 345Q322 345 304 351T263 367T220 384T193 396Q189 398 186 402T182 413Q182 418 186 426T197 435Q202 435 207 433T225 423Q246 410 275 392T327 357Q329 356 330 354T332 350Q332 345 325 345Z"
/>
<glyph unicode="&#xfa;" glyph-name="uacute" horiz-adv-x="353" d="M275 -7Q255 -7 233 10T211 49Q211 69 221 96T244 145Q213 112 182 79T120 12Q110 0 96 0Q77 0 61 20T44 58Q44 63 45 66Q52 85 61 103T81 139Q92 158 104 175T130 211Q135 217 139 223T148
237Q151 242 151 249T150 261Q160 274 177 286T210 299Q214 299 223 297T241 291T250 283Q250 279 246 275Q241 270 235 265T224 254Q201 231 180 206T140 154Q134 145 122 128T99 92T89 63Q89 53 98 53Q108 53 127 66T170 101T215 146T255 188T280 216Q301 241
321 272Q329 284 340 293T366 303Q374 303 386 302T399 289Q399 285 397 281T391 274Q358 240 329 203T279 121Q272 106 265 82T258 40Q258 23 271 23Q280 23 289 29Q300 35 319 53T359 95T400 140T429 174Q431 176 433 177T437 179Q444 179 444 171Q444 167 442
165T438 160Q407 124 377 87T315 14Q308 5 298 -1T275 -7ZM262 343Q255 343 255 348Q255 350 257 352T260 355Q282 372 311 390T362 421Q374 429 380 431T390 433Q396 433 400 425T405 411Q405 404 402 400T394 394Q387 390 367 382T324 365T283 350T262 343Z"
/>
<glyph unicode="&#xfb;" glyph-name="ucircumflex" horiz-adv-x="353" d="M275 -7Q255 -7 233 10T211 49Q211 69 221 96T244 145Q213 112 182 79T120 12Q110 0 96 0Q77 0 61 20T44 58Q44 63 45 66Q52 85 61 103T81 139Q92 158 104 175T130 211Q135 217 139 223T148
237Q151 242 151 249T150 261Q160 274 177 286T210 299Q214 299 223 297T241 291T250 283Q250 279 246 275Q241 270 235 265T224 254Q201 231 180 206T140 154Q134 145 122 128T99 92T89 63Q89 53 98 53Q108 53 127 66T170 101T215 146T255 188T280 216Q301 241
321 272Q329 284 340 293T366 303Q374 303 386 302T399 289Q399 285 397 281T391 274Q358 240 329 203T279 121Q272 106 265 82T258 40Q258 23 271 23Q280 23 289 29Q300 35 319 53T359 95T400 140T429 174Q431 176 433 177T437 179Q444 179 444 171Q444 167 442
165T438 160Q407 124 377 87T315 14Q308 5 298 -1T275 -7ZM404 330Q401 332 389 342T362 367T337 394Q317 382 292 368T248 344T224 332Q217 330 217 334Q217 336 219 339T222 343Q247 365 273 385T322 423Q332 431 340 437T354 443Q360 443 364 436L372 423Q383
405 392 386T409 351Q411 347 412 343T414 334Q414 331 411 330T404 330Z" />
<glyph unicode="&#xfc;" glyph-name="udieresis" horiz-adv-x="353" d="M275 -7Q255 -7 233 10T211 49Q211 69 221 96T244 145Q213 112 182 79T120 12Q110 0 96 0Q77 0 61 20T44 58Q44 63 45 66Q52 85 61 103T81 139Q92 158 104 175T130 211Q135 217 139 223T148
237Q151 242 151 249T150 261Q160 274 177 286T210 299Q214 299 223 297T241 291T250 283Q250 279 246 275Q241 270 235 265T224 254Q201 231 180 206T140 154Q134 145 122 128T99 92T89 63Q89 53 98 53Q108 53 127 66T170 101T215 146T255 188T280 216Q301 241
321 272Q329 284 340 293T366 303Q374 303 386 302T399 289Q399 285 397 281T391 274Q358 240 329 203T279 121Q272 106 265 82T258 40Q258 23 271 23Q280 23 289 29Q300 35 319 53T359 95T400 140T429 174Q431 176 433 177T437 179Q444 179 444 171Q444 167 442
165T438 160Q407 124 377 87T315 14Q308 5 298 -1T275 -7ZM387 347Q378 347 365 351T352 369Q352 378 360 390T381 412T403 422Q411 422 418 415T425 398Q425 393 418 381T402 358T387 347ZM267 347Q258 347 245 351T232 369Q232 378 240 390T261 412T283 422Q291
422 298 415T305 398Q305 393 298 381T282 358T267 347Z" />
<glyph unicode="&#xfd;" glyph-name="yacute" horiz-adv-x="353" d="M-100 -383Q-146 -383 -146 -337Q-146 -332 -146 -327T-144 -317Q-136 -281 -110 -248T-49 -187T22 -134T88 -91Q105 -80 131 -64T188 -30T245 5Q256 33 260 67T265 132V140Q253 122 230 98T178
52T121 14T70 -1Q54 -1 49 9T43 32Q43 67 58 104T92 172T126 225T141 250Q141 251 139 251Q135 251 131 251T129 257Q143 274 164 287T204 300Q211 300 220 295T230 281Q230 276 224 270Q217 263 208 254T182 226Q173 216 157 194T124 143T96 87T84 39Q84 36 84
33T89 26Q103 25 124 38T168 73T213 119T251 165T275 200Q286 220 308 220Q324 220 326 213T329 194Q329 155 325 126T308 59Q372 114 430 175Q431 177 434 180T440 183Q446 183 446 177Q446 169 440 161Q431 150 421 139T400 117Q376 91 351 66T298 17Q252 -104
178 -195T-10 -352Q-29 -363 -53 -373T-100 -383ZM-77 -358Q-50 -358 -19 -339T44 -290T100 -233T141 -185Q158 -162 174 -140T204 -93Q225 -58 239 -25Q240 -22 238 -22T235 -21Q204 -43 173 -64T109 -107Q93 -117 66 -136T8 -180T-51 -231T-97 -283T-115 -329Q-115
-345 -103 -351T-77 -358ZM245 329Q238 329 238 334Q238 336 240 338T243 341Q265 358 294 376T345 407Q357 415 363 417T373 419Q379 419 383 411T388 397Q388 390 385 386T377 380Q370 376 350 368T307 351T266 336T245 329Z" />
<glyph unicode="&#xfe;" glyph-name="thorn" horiz-adv-x="294" d="M-40 -262Q-48 -262 -54 -252T-63 -230T-67 -212Q-68 -186 -54 -142T-15 -43L0 -12Q37 65 85 149T179 305Q173 313 166 322T159 339Q159 349 165 352T179 353Q180 353 186 351T203 343Q225 375
243 402T277 449Q284 458 292 472T310 497T333 508Q340 508 345 504Q354 499 361 491T369 474Q369 468 334 423T248 308L257 300Q274 283 284 268T301 232Q304 222 306 212T308 190Q308 150 287 114T232 50T158 7T81 -9Q71 -9 63 -8T46 1L30 -31Q10 -79 -11 -124Q-24
-158 -30 -190T-34 -248V-251Q-34 -255 -35 -258T-40 -262ZM114 12Q119 12 123 12T132 14Q166 20 195 43T242 102T261 177Q261 204 252 227T220 269Q181 215 141 155T65 34Q70 33 74 30T79 24Q91 12 114 12Z" />
<glyph unicode="&#xff;" glyph-name="ydieresis" horiz-adv-x="353" d="M-100 -383Q-146 -383 -146 -337Q-146 -332 -146 -327T-144 -317Q-136 -281 -110 -248T-49 -187T22 -134T88 -91Q105 -80 131 -64T188 -30T245 5Q256 33 260 67T265 132V140Q253 122 230
98T178 52T121 14T70 -1Q54 -1 49 9T43 32Q43 67 58 104T92 172T126 225T141 250Q141 251 139 251Q135 251 131 251T129 257Q143 274 164 287T204 300Q211 300 220 295T230 281Q230 276 224 270Q217 263 208 254T182 226Q173 216 157 194T124 143T96 87T84 39Q84
36 84 33T89 26Q103 25 124 38T168 73T213 119T251 165T275 200Q286 220 308 220Q324 220 326 213T329 194Q329 155 325 126T308 59Q372 114 430 175Q431 177 434 180T440 183Q446 183 446 177Q446 169 440 161Q431 150 421 139T400 117Q376 91 351 66T298 17Q252
-104 178 -195T-10 -352Q-29 -363 -53 -373T-100 -383ZM-77 -358Q-50 -358 -19 -339T44 -290T100 -233T141 -185Q158 -162 174 -140T204 -93Q225 -58 239 -25Q240 -22 238 -22T235 -21Q204 -43 173 -64T109 -107Q93 -117 66 -136T8 -180T-51 -231T-97 -283T-115
-329Q-115 -345 -103 -351T-77 -358ZM370 333Q361 333 348 337T335 355Q335 364 343 376T364 398T386 408Q394 408 401 401T408 384Q408 379 401 367T385 344T370 333ZM250 333Q241 333 228 337T215 355Q215 364 223 376T244 398T266 408Q274 408 281 401T288 384Q288
379 281 367T265 344T250 333Z" />
<glyph unicode="&#x2013;" glyph-name="endash" horiz-adv-x="506" d="M162 226Q150 226 150 232Q150 240 168 251T204 263H420Q429 263 443 263T470 260T482 251Q482 243 467 238T431 229T388 226H162Z" />
<glyph unicode="&#x2014;" glyph-name="emdash" horiz-adv-x="746" d="M162 226Q150 226 150 232Q150 240 168 251T204 263H660Q669 263 683 263T710 260T722 251Q722 243 707 238T671 229T628 226H162Z" />
<glyph unicode="&#x2018;" glyph-name="quoteleft" horiz-adv-x="230" d="M217 417Q205 417 205 437Q205 439 205 442T206 449Q215 484 239 514T290 565T334 592Q335 592 335 587Q335 582 324 570T297 543T271 513T258 485V483Q258 479 260 476T262 468Q262 458
254 446T236 426T217 417Z" />
<glyph unicode="&#x2019;" glyph-name="quoteright" horiz-adv-x="380" d="M216 417Q215 418 215 422Q215 427 226 439T253 466T279 496T292 524V526Q292 530 290 533T288 541Q288 551 296 563T315 583T333 592Q345 592 345 572Q345 570 345 567T344 560Q336 526
312 496T260 444T216 417Z" />
<glyph unicode="&#x201a;" glyph-name="quotesinglbase" horiz-adv-x="407" d="M37 -95Q36 -94 36 -90Q36 -85 47 -73T74 -46T100 -16T113 12V14Q113 18 111 21T109 29Q109 39 117 51T136 71T154 80Q166 80 166 60Q166 58 166 55T165 48Q157 14 133 -16T81 -68T37 -95Z" />
<glyph unicode="&#x201c;" glyph-name="quotedblleft" horiz-adv-x="336" d="M323 417Q311 417 311 437Q311 439 311 442T312 449Q321 484 345 514T396 565T440 592Q441 592 441 587Q441 582 430 570T403 543T377 513T364 485V483Q364 479 366 476T368 468Q368
458 360 446T342 426T323 417ZM217 417Q205 417 205 437Q205 439 205 442T206 449Q215 484 239 514T290 565T334 592Q335 592 335 587Q335 582 324 570T297 543T271 513T258 485V483Q258 479 260 476T262 468Q262 458 254 446T236 426T217 417Z" />
<glyph unicode="&#x201d;" glyph-name="quotedblright" horiz-adv-x="486" d="M322 417Q321 418 321 422Q321 427 332 439T359 466T385 496T398 524V526Q398 530 396 533T394 541Q394 551 402 563T421 583T439 592Q451 592 451 572Q451 570 451 567T450 560Q442
526 418 496T366 444T322 417ZM216 417Q215 418 215 422Q215 427 226 439T253 466T279 496T292 524V526Q292 530 290 533T288 541Q288 551 296 563T315 583T333 592Q345 592 345 572Q345 570 345 567T344 560Q336 526 312 496T260 444T216 417Z" />
<glyph unicode="&#x201e;" glyph-name="quotedblbase" horiz-adv-x="315" d="M142 -95Q141 -94 141 -90Q141 -85 152 -73T179 -46T205 -16T218 12V14Q218 18 216 21T214 29Q214 39 222 51T241 71T259 80Q271 80 271 60Q271 58 271 55T270 48Q262 14 238 -16T186
-68T142 -95ZM36 -95Q35 -94 35 -90Q35 -85 46 -73T73 -46T99 -16T112 12V14Q112 18 110 21T108 29Q108 39 116 51T135 71T153 80Q165 80 165 60Q165 58 165 55T164 48Q156 14 132 -16T80 -68T36 -95Z" />
<glyph unicode="&#x2022;" glyph-name="bullet" horiz-adv-x="618" d="M382 30Q322 30 273 59T194 137T165 246Q165 306 194 355T272 433T381 463Q441 463 490 434T569 356T598 247Q598 187 569 138T491 59T382 30Z" />
<glyph unicode="&#x2039;" glyph-name="guilsinglleft" horiz-adv-x="319" d="M220 -2Q218 -2 215 3T210 13Q202 31 190 58T166 105Q164 110 162 114T160 122Q160 130 175 140Q204 157 231 176T275 206Q283 214 291 214Q295 214 295 211Q295 208 285 196T258 167T225
137T195 113Q205 86 213 54T222 10V6Q222 -2 220 -2Z" />
<glyph unicode="&#x203a;" glyph-name="guilsinglright" horiz-adv-x="369" d="M157 -11Q153 -11 153 -8Q153 -5 163 7T190 36T223 66T253 90Q243 117 235 149T226 193V197Q226 205 228 205Q230 205 233 200T238 190Q246 172 259 145T282 98Q284 93 286 89T288
81Q288 73 273 63Q244 46 217 27T173 -3Q165 -11 157 -11Z" />
</font>
</defs>
</svg>
