<?xml version="1.0" standalone="no"?>
<!DOCTYPE svg PUBLIC "-//W3C//DTD SVG 1.1//EN" "http://www.w3.org/Graphics/SVG/1.1/DTD/svg11.dtd">
<svg xmlns="http://www.w3.org/2000/svg">
<defs >
<font id="GentiumPlus" horiz-adv-x="1036" ><font-face
    font-family="Gentium Plus"
    units-per-em="2048"
    panose-1="2 0 5 3 6 0 0 2 0 4"
    ascent="2250"
    descent="-750"
    alphabetic="0" />
<glyph unicode=" " glyph-name="space" horiz-adv-x="451" />
<glyph unicode="!" glyph-name="exclam" horiz-adv-x="557" d="M326 389Q307 376 292 367T252 350L223 371L176 1398Q214 1423 256 1444T332 1480L375 1455L326 389ZM390 123Q390 54 351 7T252 -40Q152 -40 152 72Q152 140 193 188T291 236Q390 236 390 123Z" />
<glyph unicode="&quot;" glyph-name="quotedbl" horiz-adv-x="870" d="M668 834Q652 826 623 820T571 813L518 1426Q533 1435 563 1446T623 1467T668 1480L711 1459L668 834ZM309 834Q294 826 265 820T213 813L160 1426Q175 1435 205 1446T265 1467T309 1480L352
1459L309 834Z" />
<glyph unicode="#" glyph-name="numbersign" horiz-adv-x="961" d="M982 936Q978 914 969 889T951 846H218L193 870Q198 892 207 916T224 961H957L982 936ZM580 170Q562 157 538 147T488 127L462 147L777 1251Q799 1267 821 1275T867 1292L894 1270L580 170ZM279
170Q261 157 238 147T189 127L163 147L478 1251Q500 1267 522 1275T566 1292L595 1270L279 170ZM873 563Q869 544 861 518T845 475H109L87 500Q98 547 117 590H851L873 563Z" />
<glyph unicode="$" glyph-name="dollar" horiz-adv-x="961" d="M522 -143Q504 -159 494 -163T459 -174L432 -152V1356Q460 1373 463 1375T496 1384L522 1362V-143ZM442 -10Q342 -10 268 14T102 96Q93 103 90 148T89 248T102 340L145 336Q201 218 291 165T489 111Q549
111 603 138T692 213T727 324Q727 407 682 457T565 540T413 600T261 664T144 759T98 911Q98 974 136 1044T264 1164T512 1214Q607 1214 689 1190T811 1124Q819 1115 805 1087T768 1029T727 983L688 991Q631 1057 570 1086T451 1116Q324 1116 275 1066T225 958Q225
893 271 852T389 780T543 720T697 649T816 543T862 377Q862 288 815 199T674 50T442 -10Z" />
<glyph unicode="%" glyph-name="percent" horiz-adv-x="1413" d="M1337 309Q1337 217 1297 140T1189 17T1044 -30Q967 -30 907 16T812 140T778 309Q778 402 819 478T928 600T1071 646Q1151 646 1211 601T1304 479T1337 309ZM358 17Q340 4 294 -11T223 -34L199
1L1055 1188Q1083 1205 1120 1217T1188 1237L1217 1204L358 17ZM637 897Q637 805 596 728T488 605T342 558Q264 558 204 604T110 728T76 897Q76 989 117 1065T225 1188T369 1234Q449 1234 509 1189T603 1067T637 897ZM1194 289Q1194 430 1149 497T1044 565Q1000
565 962 508T924 332Q924 187 965 119T1071 51Q1121 51 1157 111T1194 289ZM492 877Q492 1020 447 1086T342 1153Q298 1153 260 1096T221 920Q221 775 263 707T369 639Q418 639 455 699T492 877Z" />
<glyph unicode="&amp;" glyph-name="ampersand" horiz-adv-x="1366" d="M1346 748Q1321 717 1297 697T1247 659Q1210 676 1160 687T1075 700Q1097 665 1102 634T1108 543Q1108 456 1061 357T931 170T737 26T498 -30Q312 -30 196 67T80 352Q80 487 191 625T503
876Q643 954 686 1029T729 1171Q729 1241 694 1292T588 1343Q540 1343 508 1312T460 1232T444 1130Q444 1033 489 922T608 695T772 473T952 276T1116 127Q1154 95 1198 85T1300 88L1309 45Q1223 7 1163 -11T1081 -30Q1057 -30 992 19T841 154T663 350T494 585T366
834T317 1073Q317 1181 363 1266T483 1400T641 1450Q726 1450 775 1416T846 1325T868 1204Q868 1100 803 1008T618 842Q473 751 391 674T276 524T242 373Q242 280 283 216T389 118T528 84Q634 84 719 125T864 230T955 366T987 502Q987 558 964 604T903 677T827
705L805 733Q816 746 837 761T879 784H1323L1346 748Z" />
<glyph unicode="&apos;" glyph-name="quotesingle" horiz-adv-x="512" d="M309 834Q294 826 265 820T213 813L160 1426Q175 1435 205 1446T265 1467T309 1480L352 1459L309 834Z" />
<glyph unicode="(" glyph-name="parenleft" horiz-adv-x="649" d="M578 -315Q427 -246 326 -106T173 223T121 623Q121 842 178 1038T338 1381T578 1600L610 1555Q523 1483 451 1352T335 1043T291 651Q291 457 328 278T437 -44T610 -270L578 -315Z" />
<glyph unicode=")" glyph-name="parenright" horiz-adv-x="649" d="M530 664Q530 444 473 248T312 -96T72 -315L41 -270Q127 -197 199 -66T316 243T360 635Q360 829 323 1008T215 1330T41 1555L72 1600Q223 1532 324 1392T478 1064T530 664Z" />
<glyph unicode="*" glyph-name="asterisk" horiz-adv-x="915" d="M489 1188L750 1384Q771 1371 799 1353T844 1317L846 1276L520 1135L821 1006Q820 981 819 947T809 891L772 868L490 1079L528 756Q507 743 477 729T424 709L385 727L427 1079L166 883Q144 897
115 916T72 950L70 993L396 1133L94 1262Q96 1286 97 1321T106 1376L141 1399L426 1187L387 1513Q409 1524 440 1540T494 1561L530 1540L489 1188Z" />
<glyph unicode="+" glyph-name="plus" horiz-adv-x="840" d="M778 593Q774 573 765 549T748 507H86L61 531Q72 574 92 617H754L778 593ZM477 236Q435 215 387 205L362 227V891Q381 897 406 906T453 920L477 897V236Z" />
<glyph unicode="," glyph-name="comma" horiz-adv-x="469" d="M390 70Q390 18 363 -50T286 -185T166 -305L121 -270Q177 -205 201 -146T226 0Q226 44 198 70T104 92L88 139Q100 155 144 176T237 214T309 229Q357 207 373 167T390 70Z" />
<glyph unicode="-" glyph-name="hyphen" horiz-adv-x="690" d="M629 546Q623 524 615 498T598 455H86L61 479Q73 529 92 570H604L629 546Z" />
<glyph unicode="." glyph-name="period" horiz-adv-x="469" d="M369 123Q369 54 330 7T231 -40Q131 -40 131 72Q131 140 172 188T270 236Q369 236 369 123Z" />
<glyph unicode="/" glyph-name="slash" horiz-adv-x="961" d="M211 -284Q191 -297 151 -312T86 -335L49 -310L750 1551Q777 1568 810 1580T872 1600L909 1578L211 -284Z" />
<glyph unicode="0" glyph-name="zero" horiz-adv-x="961" d="M885 602Q885 430 832 287T684 57T461 -30Q334 -30 249 56T120 286T76 602Q76 774 129 918T278 1148T500 1235Q627 1235 712 1150T841 920T885 602ZM721 565Q721 748 684 871T588 1057T461 1120Q358
1120 299 1008T240 645Q240 371 314 228T500 85Q604 85 662 198T721 565Z" />
<glyph unicode="1" glyph-name="one" horiz-adv-x="961" d="M170 0V53Q327 72 383 97T440 143V940Q440 980 437 1002T422 1038Q410 1051 351 1051T160 1024L139 1075Q195 1091 275 1122T432 1187T553 1245L590 1210V143Q590 124 639 98T840 53V0H170Z" />
<glyph unicode="2" glyph-name="two" horiz-adv-x="961" d="M821 0H127L98 74Q276 281 388 419T561 648T645 803T668 924Q668 1016 622 1080T467 1145Q413 1145 371 1112T304 1030T280 934Q246 915 222 903T152 885L125 915Q125 967 159 1023T253 1127T385 1205T535
1235Q656 1235 739 1167T823 952Q823 885 794 814T699 651T527 430T266 121H684Q718 121 738 148T768 210T782 272T786 299L836 287L821 0Z" />
<glyph unicode="3" glyph-name="three" horiz-adv-x="961" d="M825 381Q825 269 778 176T637 26T406 -30Q327 -30 243 1T68 119L102 186Q193 119 255 95T393 70Q515 70 590 145T665 348Q665 449 626 509T528 596T410 623Q382 623 378 622T342 616L328 676Q451
710 510 756T589 850T608 940Q608 986 589 1033T530 1112T426 1144Q346 1144 302 1093T270 973Q236 956 205 947T131 934L104 965Q104 1021 156 1084T295 1191T483 1235Q583 1235 645 1194T738 1090T768 958Q768 883 711 813T555 698Q631 689 692 645T789 531T825
381Z" />
<glyph unicode="4" glyph-name="four" horiz-adv-x="961" d="M874 430Q853 398 836 383T795 350H725V104Q725 89 753 76T864 43V0H375V43Q506 65 545 81T585 115V350H88L55 383L551 1174Q592 1192 625 1211T688 1245L725 1210V460H848L874 430ZM585 1040L213 460H585V1040Z"
/>
<glyph unicode="5" glyph-name="five" horiz-adv-x="961" d="M836 410Q836 294 790 194T655 32T440 -30Q348 -30 256 4T78 119L113 186Q219 113 290 92T418 70Q505 70 562 112T647 223T676 367Q676 504 610 587T403 670Q360 670 299 650T184 590L137 623Q146 677
159 754T184 915T206 1075T219 1205H655Q712 1205 744 1214T776 1223L805 1194Q783 1162 750 1127T694 1075H307Q305 1036 297 972T280 846T264 754Q304 766 358 773T463 780Q584 780 667 729T793 593T836 410Z" />
<glyph unicode="6" glyph-name="six" horiz-adv-x="961" d="M881 412Q881 342 857 265T786 121T668 12T506 -30Q397 -30 307 33T164 209T110 473Q110 662 183 826T406 1103T788 1249L807 1190Q625 1148 506 1046T328 809T270 537Q270 300 345 188T545 75Q617 75
657 117T714 223T731 348Q731 473 694 540T603 634T500 660Q442 660 370 622T238 492L225 588Q278 659 337 698T450 754T541 770Q702 770 791 673T881 412Z" />
<glyph unicode="7" glyph-name="seven" horiz-adv-x="961" d="M885 1167Q816 1006 747 841T616 524T506 248T432 44Q397 19 359 1T270 -30L229 3Q345 207 430 387T588 736T733 1075H279Q260 1075 241 1071T201 1038T150 930L104 948Q109 979 116 1028T131 1127T147
1205H852L885 1167Z" />
<glyph unicode="8" glyph-name="eight" horiz-adv-x="961" d="M867 352Q867 249 811 162T660 23T451 -30Q337 -30 258 14T136 131T94 285Q94 397 169 490T369 651L440 614Q342 544 298 476T254 315Q254 211 320 141T500 70Q574 70 619 105T686 196T707 309Q707
399 667 455T562 548T426 614T290 679T186 770T145 915Q145 1008 192 1080T321 1193T502 1235Q652 1235 734 1160T817 969Q817 878 749 806T580 666L510 709Q596 765 631 823T667 938Q667 1042 608 1091T451 1141Q392 1141 353 1112T294 1039T275 950Q275 886 318
845T428 772T571 708T714 632T824 521T867 352Z" />
<glyph unicode="9" glyph-name="nine" horiz-adv-x="961" d="M870 731Q870 529 797 367T574 98T190 -43L172 16Q370 66 488 159T658 382T710 670Q710 847 672 947T577 1089T465 1130Q362 1130 306 1053T250 856Q250 733 287 668T378 579T481 555Q566 555 635 612T743
754L756 649Q708 560 617 503T438 445Q278 445 189 545T100 795Q100 871 130 948T214 1091T343 1195T506 1235Q599 1235 682 1183T818 1020T870 731Z" />
<glyph unicode=":" glyph-name="colon" horiz-adv-x="469" d="M369 123Q369 54 330 7T231 -40Q131 -40 131 72Q131 140 172 188T270 236Q369 236 369 123ZM369 848Q369 779 330 732T231 685Q131 685 131 797Q131 865 172 913T270 961Q369 961 369 848Z" />
<glyph unicode=";" glyph-name="semicolon" horiz-adv-x="469" d="M390 70Q390 18 363 -50T286 -185T166 -305L121 -270Q177 -205 201 -146T226 0Q226 44 198 70T104 92L88 139Q100 155 144 176T237 214T309 229Q357 207 373 167T390 70ZM369 848Q369 779 330
732T231 685Q131 685 131 797Q131 865 172 913T270 961Q369 961 369 848Z" />
<glyph unicode="&lt;" glyph-name="less" horiz-adv-x="899" d="M838 874Q833 853 824 823T809 774L86 506L61 530Q66 550 74 579T92 629L813 899L838 874ZM838 322Q816 302 801 289T754 256L86 506L61 530Q66 550 74 579T92 629L821 358L838 322Z" />
<glyph unicode="=" glyph-name="equal" horiz-adv-x="899" d="M838 740Q833 721 824 697T809 655H86L61 680Q73 724 92 765H813L838 740ZM838 440Q833 419 824 397T809 355H86L61 382Q66 402 74 423T92 465H813L838 440Z" />
<glyph unicode="&gt;" glyph-name="greater" horiz-adv-x="899" d="M838 625Q834 606 825 577T807 524L86 256L61 281Q68 301 76 331T92 379L643 585L78 795L61 834Q84 852 105 868T145 899L815 649L838 625Z" />
<glyph unicode="?" glyph-name="question" horiz-adv-x="887" d="M806 1165Q806 1075 774 1006T694 877T596 760T511 636T469 485L463 389Q444 376 430 366T387 348L362 369L354 485Q350 554 378 621T449 753T537 880T612 1003T642 1120Q642 1243 585 1313T424
1384Q376 1384 335 1356T269 1283T244 1186Q244 1172 248 1157T256 1128Q224 1112 189 1104T109 1090L82 1120Q81 1128 81 1137T80 1153Q80 1247 139 1321T294 1437T502 1480Q649 1480 727 1393T806 1165ZM539 123Q539 54 500 7T401 -40Q301 -40 301 72Q301 140
342 188T440 236Q539 236 539 123Z" />
<glyph unicode="@" glyph-name="at" horiz-adv-x="1653" d="M1583 549Q1583 419 1541 313T1434 130T1295 12T1157 -30Q1108 -30 1071 14T1020 162Q966 86 926 45T847 -13T754 -30Q686 -30 618 26T505 189T460 444Q460 530 490 620T577 788T712 912T889 960Q935
960 969 944T1055 868Q1109 901 1163 960L1194 930Q1194 930 1179 868T1164 723V285Q1164 196 1194 153T1272 109Q1306 109 1350 163T1429 308T1463 512Q1463 737 1389 893T1185 1131T885 1213Q732 1213 609 1157T400 1004T267 783T220 524Q220 343 275 199T425
-46T644 -201T903 -255Q1016 -255 1119 -226T1303 -157T1423 -82L1450 -137Q1402 -187 1317 -242T1115 -336T854 -375Q625 -375 448 -272T171 20T70 465Q70 635 136 791T321 1069T593 1262T924 1333Q1123 1333 1271 1244T1501 980T1583 549ZM1014 731Q986 787 952
818T858 850Q748 850 679 757T610 475Q610 362 644 278T728 147T825 100Q864 100 901 130T1014 250V731Z" />
<glyph unicode="A" glyph-name="A" horiz-adv-x="1219" d="M381 445L270 111Q260 80 297 66T416 43V0H0V43Q68 55 108 68T158 111L530 1237Q553 1262 587 1282T647 1317L1067 111Q1077 83 1105 67T1198 43V0H776V43Q853 48 883 63T903 111L789 445H381ZM758 535L582
1049L411 535H758Z" />
<glyph unicode="B" glyph-name="B" horiz-adv-x="1126" d="M1016 356Q1016 242 958 159T797 31T559 -14Q501 -14 423 -12T266 -6T123 0L345 98Q376 82 434 76T537 70Q681 70 766 140T852 322Q852 396 818 471T710 598T520 650Q454 650 402 643T301 627L291 725H389Q541
725 618 762T723 857T750 971Q750 1038 720 1091T616 1175T413 1206Q334 1206 235 1195T50 1168L41 1230Q93 1245 165 1258T317 1281T469 1290Q670 1290 787 1218T905 1020Q905 913 854 835T715 723Q800 707 868 655T976 526T1016 356ZM50 0V43Q118 57 156 74T195
104V1210L355 1231V104Q355 92 391 75T500 43V0H50Z" />
<glyph unicode="C" glyph-name="C" horiz-adv-x="1098" d="M1018 211Q891 75 783 23T571 -30Q478 -30 389 11T228 132T113 326T70 586Q70 746 118 875T250 1097T443 1240T676 1290Q783 1290 865 1261T999 1190Q1007 1184 990 1160T949 1110T909 1067L874 1073Q824
1120 754 1150T592 1180Q541 1180 478 1151T357 1057T262 886T225 623Q225 490 263 390T363 224T498 124T643 90Q697 90 784 127T981 256Q992 252 1003 236T1018 211Z" />
<glyph unicode="D" glyph-name="D" horiz-adv-x="1214" d="M50 0V43Q118 57 156 74T195 104V1189Q156 1184 120 1179T50 1168L41 1230Q100 1247 181 1260T350 1282T518 1290Q704 1290 839 1217T1049 1007T1123 676Q1123 489 1069 360T930 151T746 36T559 0H500Q423
0 365 0T242 0T82 0H50ZM537 84Q606 84 679 117T814 219T914 392T953 637Q953 903 824 1054T453 1206Q403 1206 355 1203V154Q355 123 382 109T452 89T537 84Z" />
<glyph unicode="E" glyph-name="E" horiz-adv-x="1016" d="M889 1235Q886 1184 873 1116T848 1010H803Q799 1102 779 1136T721 1170H303L332 1260H856L889 1235ZM786 707Q770 679 743 646T694 596Q663 625 622 638T496 651H289L311 735H760L786 707ZM954 244Q947
158 934 94T913 0H50V43Q118 57 156 74T195 104V1155Q195 1167 159 1185T50 1217V1260H500V1217Q433 1210 394 1201T355 1177V154Q355 135 369 121T427 98T559 90H688Q750 90 788 100T855 147T911 262L954 244Z" />
<glyph unicode="F" glyph-name="F" horiz-adv-x="979" d="M897 1235Q896 1184 883 1116T858 1010H811Q808 1102 788 1136T729 1170H303L332 1260H866L897 1235ZM758 707Q739 679 712 646T664 596Q635 625 593 638T467 651H258L283 735H729L758 707ZM50 0V43Q118
57 156 74T195 104V1155Q195 1167 159 1185T50 1217V1260H500V1217Q448 1210 402 1201T355 1177V104Q355 92 393 77T530 43V0H50Z" />
<glyph unicode="G" glyph-name="G" horiz-adv-x="1194" d="M1145 567Q1088 554 1064 531T1040 485V154Q1040 154 1018 143T965 119T913 99T890 98V485Q890 507 848 527T684 567V610H1145V567ZM1042 1188Q1052 1181 1035 1159T991 1112T946 1071L913 1077Q847 1140
772 1160T598 1180Q561 1180 499 1153T374 1065T268 898T225 637Q225 452 287 331T447 150T645 90Q746 90 825 118T956 195Q969 188 1001 175T1040 154Q941 73 869 34T738 -17T618 -30Q518 -30 421 7T244 121T117 313T70 582Q70 804 160 962T402 1205T737 1290Q803
1290 890 1264T1042 1188Z" />
<glyph unicode="H" glyph-name="H" horiz-adv-x="1339" d="M820 0V43Q888 57 926 74T965 104V1155Q965 1167 929 1185T820 1217V1260H1270V1217Q1203 1203 1164 1186T1125 1155V104Q1125 92 1161 75T1270 43V0H820ZM327 615V705H985V615H327ZM50 0V43Q118 57 156
74T195 104V1155Q195 1167 159 1185T50 1217V1260H500V1217Q433 1203 394 1186T355 1155V104Q355 92 391 75T500 43V0H50Z" />
<glyph unicode="I" glyph-name="I" horiz-adv-x="610" d="M70 0V43Q138 57 176 74T215 104V1155Q215 1167 179 1185T70 1217V1260H520V1217Q453 1203 414 1186T375 1155V104Q375 92 411 75T520 43V0H70Z" />
<glyph unicode="J" glyph-name="J" horiz-adv-x="625" d="M555 1217Q488 1203 449 1186T410 1155V205Q410 47 382 -45T309 -192T211 -288Q158 -331 86 -355T-25 -380Q-65 -380 -103 -365T-165 -331T-190 -300Q-190 -289 -169 -268T-120 -227T-74 -200Q-18 -237
14 -247T84 -257Q119 -257 157 -225T223 -108T250 133V1155Q250 1167 213 1183T55 1217V1260H555V1217Z" />
<glyph unicode="K" glyph-name="K" horiz-adv-x="1184" d="M1110 1217Q1046 1209 1009 1199T940 1155L476 643H352L764 1128Q810 1182 790 1196T690 1217V1260H1110V1217ZM1174 37Q1116 18 1056 2T948 -14Q919 -14 897 -5T854 29L352 643L458 721L985 127Q1020
87 1067 81T1167 80L1174 37ZM50 0V43Q118 57 156 74T195 104V1155Q195 1167 159 1185T50 1217V1260H500V1217Q433 1203 394 1186T355 1155V104Q355 92 391 75T500 43V0H50Z" />
<glyph unicode="L" glyph-name="L" horiz-adv-x="975" d="M944 244Q937 158 924 94T903 0H50V43Q118 57 156 74T195 104V1155Q195 1167 159 1185T50 1217V1260H500V1217Q433 1203 394 1186T355 1155V164Q355 129 393 110T541 90H684Q746 90 783 100T846 147T901
262L944 244Z" />
<glyph unicode="M" glyph-name="M" horiz-adv-x="1651" d="M1115 0V43Q1183 57 1226 74T1270 104L1260 1157L1415 1214L1425 104Q1425 92 1461 75T1570 43V0H1115ZM1550 1217Q1505 1217 1446 1194T1337 1137T1273 1068L823 0H819Q804 84 800 133T800 212T813 262L1200
1176Q1226 1236 1235 1248T1264 1260H1550V1217ZM823 264Q837 233 840 180T819 0H774L317 1061Q291 1122 247 1155T155 1203T70 1217V1260H356Q376 1260 386 1245T420 1176L823 264ZM60 0V43Q128 57 166 74T205 104L215 1196L331 1221L320 104Q320 92 356 75T465
43V0H60Z" />
<glyph unicode="N" glyph-name="N" horiz-adv-x="1329" d="M1280 1217Q1208 1207 1172 1188T1135 1155V32L1015 71V1155Q1015 1167 983 1186T870 1217V1260H1280V1217ZM1135 -30Q1086 -24 1057 -10T1016 21L238 1100Q197 1158 150 1183T50 1217V1260H262Q291 1260
306 1247T358 1182L1017 273Q1031 254 1059 217T1111 150T1135 120V-30ZM50 0V43Q124 52 159 71T195 104V1196L315 1221V104Q315 92 349 73T460 43V0H50Z" />
<glyph unicode="O" glyph-name="O" horiz-adv-x="1229" d="M577 -30Q457 -30 363 22T204 165T106 370T72 612Q72 748 115 870T236 1087T415 1236T635 1290Q759 1290 853 1236T1011 1091T1107 884T1140 647Q1140 511 1096 389T973 173T793 24T577 -30ZM606 90Q772
90 878 227T985 629Q985 733 958 830T881 1005T761 1129T606 1175Q428 1175 328 1031T227 641Q227 492 279 367T417 166T606 90Z" />
<glyph unicode="P" glyph-name="P" horiz-adv-x="1071" d="M982 936Q982 832 941 757T836 632T702 559T573 535Q480 535 412 565L389 640Q430 621 469 616T543 610Q605 610 670 642T781 737T827 895Q827 1005 777 1073T641 1174T453 1206Q348 1206 248 1196T50
1168L41 1230Q138 1256 263 1273T510 1290Q725 1290 853 1199T982 936ZM50 0V43Q118 57 156 74T195 104V1210H355V104Q355 92 390 76T530 43V0H50Z" />
<glyph unicode="Q" glyph-name="Q" horiz-adv-x="1229" d="M1138 647Q1138 511 1094 389T971 173T791 24T575 -30Q428 -30 314 57T135 290T70 612Q70 748 113 870T234 1087T413 1236T633 1290Q757 1290 851 1236T1009 1091T1105 884T1138 647ZM1282 -117Q1235
-204 1184 -254T1102 -305Q1024 -305 949 -261T800 -156T651 -45T500 20Q500 20 536 29T614 46T674 49Q731 34 789 0T902 -71T1010 -134T1108 -160Q1133 -160 1164 -143T1255 -82L1282 -117ZM983 629Q983 733 956 830T879 1005T759 1129T604 1175Q426 1175 326
1031T225 641Q225 492 277 367T415 166T604 90Q770 90 876 227T983 629Z" />
<glyph unicode="R" glyph-name="R" horiz-adv-x="1149" d="M927 987Q927 859 865 773T696 644T461 600Q433 600 404 603T343 614L337 694Q372 688 395 686T444 684Q602 684 687 754T772 956Q772 1066 692 1136T432 1206Q344 1206 249 1195T50 1168L41 1230Q135
1253 236 1271T469 1290Q701 1290 814 1203T927 987ZM1139 37Q1073 15 1014 1T915 -14Q887 -14 859 2T817 41L509 612L613 678L948 139Q978 96 1019 85T1128 80L1139 37ZM50 0V43Q118 57 156 74T195 104V1221H355V104Q355 92 391 75T500 43V0H50Z" />
<glyph unicode="S" glyph-name="S" horiz-adv-x="975" d="M745 1065L709 1071Q654 1137 589 1163T467 1189Q393 1189 347 1161T279 1093T257 1014Q257 951 302 906T419 824T571 749T722 662T839 545T885 377Q885 310 858 239T776 107T637 8T440 -30Q374 -30 288
-4T131 68Q124 72 121 101T117 172T120 255T131 324L172 319Q218 201 306 146T496 90Q556 90 614 122T711 207T750 324Q750 405 705 458T589 550T439 622T288 700T172 806T127 967Q127 1014 148 1069T217 1175T340 1258T526 1290Q617 1290 701 1264T823 1198Q833
1190 820 1164T784 1109T745 1065Z" />
<glyph unicode="T" glyph-name="T" horiz-adv-x="1128" d="M1083 1235Q1082 1184 1074 1124T1053 1000H1008Q989 1093 974 1131T915 1170H518L547 1260H1053L1083 1235ZM172 1170Q152 1170 136 1159T102 1111T53 995L10 1014Q15 1073 24 1140T43 1260H670L698
1170H172ZM307 0V43Q399 62 435 81T471 115V1177Q471 1189 435 1196T326 1217V1260H774V1217Q707 1203 669 1197T631 1177V115Q631 102 667 82T795 43V0H307Z" />
<glyph unicode="U" glyph-name="U" horiz-adv-x="1339" d="M1275 1217Q1208 1203 1169 1186T1130 1155V524Q1130 262 1006 116T666 -30Q529 -30 423 21T256 177T195 444V1155Q195 1167 159 1185T50 1217V1260H500V1217Q433 1203 394 1186T355 1155V494Q355 302
444 194T705 85Q800 85 866 143T966 292T1000 483V1155Q1000 1167 964 1185T855 1217V1260H1275V1217Z" />
<glyph unicode="V" glyph-name="V" horiz-adv-x="1331" d="M1290 1217Q1223 1204 1184 1192T1135 1151L752 59Q742 30 713 12T652 -16T602 -30L162 1151Q143 1201 20 1217V1260H455V1217Q376 1211 347 1197T327 1153L680 203L1016 1151Q1027 1180 992 1193T874
1217V1260H1290V1217Z" />
<glyph unicode="W" glyph-name="W" horiz-adv-x="1741" d="M1702 1217Q1614 1199 1584 1185T1550 1155L1321 59Q1315 31 1290 13T1234 -15T1182 -30L856 944L569 59Q555 16 507 -2T418 -30L158 1147Q153 1172 122 1188T20 1217V1260H449V1217Q352 1207 331 1188T313
1147L512 250L836 1260H891L1245 250L1432 1155Q1437 1178 1392 1192T1278 1217V1260H1702V1217Z" />
<glyph unicode="X" glyph-name="X" horiz-adv-x="1260" d="M1180 1217Q1107 1209 1065 1193T997 1133L627 535L578 682L858 1133Q886 1177 851 1193T727 1217V1260H1180V1217ZM778 0V43Q866 52 888 69T883 127L197 1133Q167 1177 137 1192T41 1217V1260H492V1217Q407
1209 381 1193T385 1133L1071 127Q1100 84 1135 68T1229 43V0H778ZM352 127Q324 83 356 66T481 43V0H31V43Q96 48 142 67T213 127L596 752L631 578L352 127Z" />
<glyph unicode="Y" glyph-name="Y" horiz-adv-x="1217" d="M1176 1217Q1108 1204 1071 1191T1020 1151L655 489H545Q510 572 461 666T359 852T256 1022T168 1151Q149 1173 118 1189T4 1206L0 1249Q59 1257 118 1263T219 1270Q266 1270 297 1231Q347 1167 405 1075T520
879T623 680L891 1151Q906 1177 882 1192T780 1217V1260H1176V1217ZM360 0V43Q451 62 487 81T524 115V637H684V115Q684 102 720 82T850 43V0H360Z" />
<glyph unicode="Z" glyph-name="Z" horiz-adv-x="1071" d="M991 293Q988 229 985 144T979 0H88L59 45L770 1160H311Q279 1160 240 1114T178 963L121 975L150 1276Q205 1264 243 1262T340 1260H956L981 1217L276 100H799Q842 100 870 142T936 307L991 293Z" />
<glyph unicode="[" glyph-name="bracketleft" horiz-adv-x="630" d="M590 -249Q586 -268 578 -293T561 -335H140V1600H555L588 1574Q584 1549 576 1523T561 1485H280V-220H555L590 -249Z" />
<glyph unicode="\" glyph-name="backslash" horiz-adv-x="961" d="M870 -335Q846 -327 810 -312T756 -284L55 1578L92 1600Q150 1585 205 1551L905 -310L870 -335Z" />
<glyph unicode="]" glyph-name="bracketright" horiz-adv-x="630" d="M75 -335L42 -306Q45 -283 52 -258T67 -220H350V1485H75L40 1511Q43 1533 51 1558T67 1600H490V-335H75Z" />
<glyph unicode="^" glyph-name="asciicircum" horiz-adv-x="1008" d="M907 635Q864 594 801 565L764 592L481 1315L231 635Q210 615 177 595T123 565L100 592L422 1462Q447 1485 487 1511T555 1550L907 635Z" />
<glyph unicode="_" glyph-name="underscore" horiz-adv-x="802" d="M831 -156Q821 -203 802 -246H0L-25 -219Q-20 -199 -12 -175T6 -131H808L831 -156Z" />
<glyph unicode="`" glyph-name="grave" horiz-adv-x="653" d="M438 1078Q429 1071 414 1062T382 1047L30 1424L52 1465Q65 1468 93 1473T152 1483T198 1489L438 1078Z" />
<glyph unicode="a" glyph-name="a" horiz-adv-x="940" d="M926 82Q841 24 786 -3T702 -30Q667 -30 645 22T623 164V702Q623 770 588 816T455 860Q391 859 339 822T292 724Q294 712 258 697T181 673T122 667L108 706Q139 773 210 830T370 924T544 960Q654 960 713
903T773 742V178Q773 100 813 100Q827 100 849 105T911 127L926 82ZM633 488Q518 470 454 452T357 415T302 372Q277 345 261 311T244 229Q244 176 263 148T309 110T352 100Q414 100 484 133T633 236L641 162Q547 61 454 16T293 -30Q245 -30 196 -9T114 61T80 186Q80
263 106 313T170 401Q203 434 250 462T386 515T633 563V488Z" />
<glyph unicode="b" glyph-name="b" horiz-adv-x="1040" d="M950 492Q950 405 917 314T820 144T669 18T469 -30Q431 -30 340 3T140 96V1296Q140 1355 130 1381T93 1415T10 1430V1470Q75 1485 135 1502T253 1550Q273 1534 290 1516V727Q390 847 485 903T637 960Q774
960 862 836T950 492ZM815 408Q815 541 780 634T689 776T567 825Q532 825 453 780T290 610V203Q370 143 451 122T567 100Q648 100 703 145T787 260T815 408Z" />
<glyph unicode="c" glyph-name="c" horiz-adv-x="895" d="M840 190Q753 88 693 42T580 -17T465 -30Q368 -30 280 26T136 189T80 444Q80 588 147 705T331 891T590 960Q656 960 723 938T825 881Q828 865 819 833T795 769T768 717L731 727Q715 762 659 806T500 850Q430
850 369 809T269 684T230 475Q230 362 273 278T387 147T537 100Q575 100 607 106T683 140T801 231L840 190Z" />
<glyph unicode="d" glyph-name="d" horiz-adv-x="1065" d="M1051 84Q959 23 908 -3T829 -30Q789 -30 767 37T745 272V1274Q745 1348 738 1382T701 1429T600 1446V1485Q682 1496 747 1514T864 1550L895 1520V254Q895 184 901 152T918 106Q926 95 952 99T1038 127L1051
84ZM819 260Q752 172 692 107T566 6T416 -30Q342 -30 264 26T133 189T80 444Q80 530 114 620T211 788T360 912T551 960Q611 960 672 939T811 840Q811 780 798 759T752 717Q721 780 659 815T520 850Q393 850 312 757T230 475Q230 362 271 278T372 147T487 100Q540
100 589 130T687 206T782 297Q795 291 805 280T819 260Z" />
<glyph unicode="e" glyph-name="e" horiz-adv-x="946" d="M866 557Q848 537 818 520T756 490H182L184 580H664Q687 580 694 587T702 616Q702 643 694 683T665 762T602 828T496 855Q416 855 356 808T263 681T230 497Q230 392 265 302T367 156T526 100Q568 100 607
108T698 146T823 236Q836 229 846 216T860 195Q771 98 708 50T590 -14T465 -30Q363 -30 275 27T134 189T80 434Q80 569 138 689T301 881Q345 912 408 936T524 960Q622 960 688 922T793 822T849 691T866 557Z" />
<glyph unicode="f" glyph-name="f" horiz-adv-x="637" d="M817 1454Q817 1443 794 1420T740 1375T690 1343Q643 1385 595 1405T520 1425Q486 1425 446 1392T378 1270T350 1016V930H608L637 901Q618 873 588 841T539 800Q516 812 473 823T350 835V102Q350 90 396
78T559 43V0H60V43Q128 55 164 72T200 102V835H66L45 863L123 930H200V961Q200 1119 227 1212T300 1360T399 1458Q453 1502 522 1526T629 1550Q670 1550 713 1531T787 1489T817 1454Z" />
<glyph unicode="g" glyph-name="g" horiz-adv-x="999" d="M970 -120Q970 -202 925 -271T807 -392T644 -471T467 -500Q397 -500 321 -485T179 -438T72 -354T30 -229Q30 -192 51 -151T138 -58T334 61Q334 61 352 59T391 51T414 30Q307 -26 257 -67T194 -137T180
-190Q180 -246 227 -292T353 -367T522 -395Q657 -395 738 -328T820 -157Q820 -120 795 -91T705 -39T518 -4Q387 11 314 35T212 90T182 153Q182 171 214 214T362 333L504 350Q414 290 380 247T346 196Q346 180 366 165T442 137T602 110Q748 94 827 58T938 -26T970
-120ZM989 930Q977 902 966 879T932 830Q878 821 823 816T682 814L635 891Q767 899 845 921T969 960L989 930ZM830 641Q830 539 772 461T623 339T434 295Q290 295 195 379T100 602Q100 700 156 781T300 911T485 960Q583 960 661 917T784 801T830 641ZM690 600Q690
707 621 783T416 860Q383 860 342 838T271 770T240 659Q240 553 306 477T514 400Q553 400 594 422T662 489T690 600Z" />
<glyph unicode="h" glyph-name="h" horiz-adv-x="1130" d="M670 0V43Q810 79 810 104V633Q810 755 779 792T682 830Q613 830 522 760T345 549V104Q345 89 383 73T485 43V0H55V43Q121 60 158 74T195 104V1298Q195 1354 187 1379T150 1413T55 1430V1470Q140 1486
195 1503T308 1550L345 1516V684Q403 769 475 831T617 926T739 960Q825 960 892 907T960 741V104Q960 91 990 77T1100 43V0H670Z" />
<glyph unicode="i" glyph-name="i" horiz-adv-x="555" d="M390 1261Q390 1205 357 1165T274 1124Q190 1124 190 1220Q190 1277 224 1316T305 1356Q390 1356 390 1261ZM70 0V43Q210 71 210 104V670Q210 739 204 773T169 820T70 840V880Q133 892 204 913T326 960H360V104Q360
92 393 75T500 43V0H70Z" />
<glyph unicode="j" glyph-name="j" horiz-adv-x="530" d="M385 1261Q385 1205 352 1165T270 1124Q185 1124 185 1220Q185 1277 218 1316T300 1356Q385 1356 385 1261ZM355 99Q355 -54 330 -148T262 -300T165 -400Q112 -443 48 -471T-54 -500Q-95 -500 -133 -488T-195
-459T-220 -431Q-220 -419 -197 -396T-143 -351T-93 -320Q-61 -348 -27 -356T45 -365Q84 -365 120 -331T181 -207T205 43V670Q205 739 199 772T164 819T65 840V880Q148 895 202 914T318 960H355V99Z" />
<glyph unicode="k" glyph-name="k" horiz-adv-x="999" d="M964 887Q920 883 883 871T804 825L392 496L315 526L628 799Q672 838 672 856T646 881T585 887V930H964V887ZM30 0V43Q96 60 133 73T170 104V1296Q170 1355 159 1381T118 1415T30 1430V1470Q99 1484 166
1502T283 1550L320 1516V104Q320 89 338 78T430 43V0H30ZM999 18Q941 5 889 -2T815 -10Q773 -10 748 2T700 43L317 526L421 602L839 111Q867 79 901 68T993 61L999 18Z" />
<glyph unicode="l" glyph-name="l" horiz-adv-x="555" d="M60 0V43Q146 58 178 73T210 104V1296Q210 1355 199 1380T157 1415T70 1430V1470Q142 1484 202 1501T324 1550L360 1516V104Q360 89 394 73T510 43V0H60Z" />
<glyph unicode="m" glyph-name="m" horiz-adv-x="1645" d="M1186 0V43Q1325 79 1325 104V633Q1325 756 1299 798T1212 840Q1146 840 1066 769T910 573V104Q910 91 941 77T1051 43V0H621V43Q760 79 760 104V633Q760 756 735 798T647 840Q580 840 505 770T345 573V104Q345
89 383 73T485 43V0H55V43Q121 60 158 74T195 104V711Q195 764 187 788T150 823T55 840V880Q131 892 186 913T295 960L330 925L341 696Q430 829 523 894T688 960Q783 960 846 910T910 725V704Q994 829 1087 894T1253 960Q1348 960 1411 907T1475 741V104Q1475 91
1506 77T1616 43V0H1186Z" />
<glyph unicode="n" glyph-name="n" horiz-adv-x="1130" d="M670 0V43Q810 79 810 104V633Q810 755 782 792T682 830Q621 830 532 767T345 549V104Q345 89 383 73T485 43V0H55V43Q121 60 158 74T195 104V711Q195 763 188 788T152 823T55 840V880Q123 891 181 911T295
960L330 925L341 676Q400 765 472 828T616 926T739 960Q825 960 892 907T960 741V104Q960 91 990 77T1100 43V0H670Z" />
<glyph unicode="o" glyph-name="o" horiz-adv-x="1030" d="M950 485Q950 385 914 293T814 128T669 13T496 -30Q370 -30 277 32T132 201T80 444Q80 543 115 635T213 801T358 917T535 960Q661 960 754 898T898 729T950 485ZM795 455Q795 561 752 650T642 795T506
850Q405 850 346 800T261 665T235 473Q235 368 281 279T395 135T524 80Q666 80 730 182T795 455Z" />
<glyph unicode="p" glyph-name="p" horiz-adv-x="1085" d="M623 -30Q565 -30 491 3T345 98V-375Q345 -391 382 -407T514 -437V-480H55V-437Q121 -421 158 -407T195 -375V711Q195 761 187 788T149 826T55 840V880Q124 895 180 913T295 960L330 925L339 727Q439
847 536 903T690 960Q827 960 916 836T1005 492Q1005 405 973 314T887 144T765 18T623 -30ZM623 835Q587 835 510 787T345 610V213Q434 146 500 123T621 100Q728 100 799 183T870 426Q870 543 835 635T744 781T623 835Z" />
<glyph unicode="q" glyph-name="q" horiz-adv-x="1055" d="M575 -480V-437Q669 -423 707 -408T745 -375V848Q777 859 823 897T895 960L926 930Q926 930 911 869T895 717V-375Q895 -391 926 -407T1034 -437V-480H575ZM819 260Q752 172 692 107T566 6T416 -30Q342
-30 264 26T133 189T80 444Q80 561 126 653T235 807T344 895Q401 926 457 943T551 960Q611 960 672 939T811 840Q811 780 798 759T752 717Q721 780 659 815T520 850Q446 850 380 809T272 684T230 475Q230 362 271 278T372 147T487 100Q540 100 589 130T687 206T782
297Q795 291 805 280T819 260Z" />
<glyph unicode="r" glyph-name="r" horiz-adv-x="811" d="M770 923Q783 916 778 870T759 768T727 676H684Q672 757 642 788T573 820Q529 820 461 743T345 496V104Q345 89 382 73T514 43V0H55V43Q121 58 158 73T195 104V686Q195 752 188 778T172 813Q159 827 135
832T55 840V880Q120 896 183 914T295 960L330 925L343 698Q397 809 469 884T627 960Q659 960 696 952T770 923Z" />
<glyph unicode="s" glyph-name="s" horiz-adv-x="791" d="M700 283Q700 177 659 114T558 20T442 -20T356 -30Q309 -30 241 -12T106 43Q100 47 98 75T96 144T101 222T113 283L156 272Q161 188 232 129T406 70Q478 70 524 113T570 227Q570 273 545 305T466 370T322
449Q267 478 217 512T136 591T104 700Q104 783 147 841T258 929T401 960Q443 960 494 951T591 924T664 883Q672 876 663 844T638 778T614 733L575 741Q528 812 476 841T375 870Q309 870 272 831T234 750Q234 695 288 657T455 559Q513 529 569 494T663 408T700 283Z"
/>
<glyph unicode="t" glyph-name="t" horiz-adv-x="705" d="M676 117Q578 44 488 7T344 -30Q275 -30 223 26T170 221V835H41L20 863L98 930H170V1176L289 1280L320 1255V930H647L676 901Q657 873 626 841T575 800Q551 812 502 823T372 835H320V307Q320 187 344 144T428
100Q463 100 516 114T647 168L676 117Z" />
<glyph unicode="u" glyph-name="u" horiz-adv-x="1085" d="M1069 82Q996 34 936 2T850 -30Q815 -30 793 16T765 166Q682 83 618 41T502 -15T408 -30Q346 -30 292 -5T204 87T170 279V711Q170 775 164 802T130 839T41 854V894Q113 903 169 918T292 960L320 921V334Q320
194 360 142T473 90Q538 90 607 129T765 262V711Q765 771 756 800T717 840T625 854V894Q697 903 763 922T885 960L915 921V254Q915 193 920 154T938 104Q949 96 978 100T1059 127L1069 82Z" />
<glyph unicode="v" glyph-name="v" horiz-adv-x="1010" d="M989 887Q929 873 910 861T879 819L596 59Q580 14 534 -5T461 -30L131 819Q112 866 20 887V930H406V887Q329 877 305 864T293 819L539 178L770 819Q781 849 761 862T666 887V930H989V887Z" />
<glyph unicode="w" glyph-name="w" horiz-adv-x="1446" d="M1425 887Q1364 873 1348 861T1325 825L1104 59Q1096 30 1070 12T1014 -16T967 -30L713 696L721 930Q721 930 746 930T784 930L1044 190L1217 825Q1223 848 1196 862T1100 887V930H1425V887ZM524 59Q509
13 463 -5T391 -30L129 825Q120 864 20 887V930H406V887Q341 881 314 871T282 850T281 825L469 190L715 930Q729 930 749 930T770 930L791 825L524 59Z" />
<glyph unicode="x" glyph-name="x" horiz-adv-x="1030" d="M995 887Q914 881 870 858T799 797L553 451L500 528L688 799Q722 848 699 864T614 887V930H995V887ZM614 0V43Q647 46 674 53T708 77T688 131L201 797Q175 833 144 857T31 887V930H451V887Q390 881 365
864T373 799L856 137Q878 107 914 80T1016 43V0H614ZM301 131Q276 95 289 78T335 53T399 43V0H20V43Q100 55 135 80T193 137L449 494L500 414L301 131Z" />
<glyph unicode="y" glyph-name="y" horiz-adv-x="1010" d="M989 887Q929 873 910 861T879 820L545 -82Q490 -230 418 -322T270 -457T127 -500Q51 -500 2 -483T-47 -447Q-47 -439 -27 -412T21 -355T70 -312Q117 -340 165 -341T250 -330Q287 -317 340 -248T430 -92L459
-23L131 819Q121 847 96 861T20 887V930H406V887Q329 877 305 865T293 819L539 182L770 819Q781 851 755 863T655 887V930H989V887Z" />
<glyph unicode="z" glyph-name="z" horiz-adv-x="869" d="M829 248Q829 185 826 110T817 0H102L76 45L631 840H285Q253 840 221 811T168 690L119 702L137 946Q181 934 215 932T313 930H805L827 887L270 90H692Q717 90 738 128T782 258L829 248Z" />
<glyph unicode="{" glyph-name="braceleft" horiz-adv-x="688" d="M649 1553Q571 1504 518 1430T465 1252Q465 1194 471 1157T485 1088T500 1019T506 923Q506 840 458 765T326 653Q426 635 466 565T506 385Q506 305 496 254T476 157T465 43Q465 -67 499 -131T639
-254L616 -315Q449 -247 374 -160T299 72Q299 131 305 170T319 244T334 319T340 422Q340 503 299 544T184 586Q156 586 152 586T119 580L102 633Q219 664 279 726T340 863Q340 924 334 961T320 1028T305 1096T299 1195Q299 1330 386 1431T623 1600L649 1553Z" />
<glyph unicode="|" glyph-name="bar" horiz-adv-x="500" d="M320 -448Q302 -464 271 -478T215 -500L180 -477V1621Q208 1638 231 1650T284 1670L320 1648V-448Z" />
<glyph unicode="}" glyph-name="braceright" horiz-adv-x="688" d="M588 651Q470 620 410 560T350 422Q350 361 356 324T369 258T383 191T389 92Q389 -43 302 -145T66 -315L39 -266Q117 -217 170 -143T223 35Q223 93 217 130T204 199T190 268T184 365Q184 448
231 521T365 631Q263 651 224 720T184 902Q184 981 194 1032T213 1130T223 1242Q223 1355 188 1418T49 1539L72 1600Q241 1534 315 1446T389 1215Q389 1156 383 1117T370 1043T356 968T350 865Q350 700 506 700Q532 700 536 700T571 707L588 651Z" />
<glyph unicode="~" glyph-name="asciitilde" horiz-adv-x="999" d="M950 774Q923 709 876 640T770 524T647 477Q605 477 558 501T463 557T367 613T276 637Q184 637 102 475L49 502Q78 568 124 636T230 752T352 799Q398 799 446 775T542 719T635 663T721 639Q816
639 897 799L950 774Z" />
<glyph unicode="&#xa0;" glyph-name="uni00A0" horiz-adv-x="451" />
<glyph unicode="&#xa1;" glyph-name="exclamdown" horiz-adv-x="557" d="M391 848Q391 781 351 733T254 684Q154 684 154 799Q154 867 193 914T293 961Q391 961 391 848ZM371 -483Q332 -508 291 -530T215 -565L172 -543L219 530Q239 546 254 554T295 569L322 551L371
-483Z" />
<glyph unicode="&#xa2;" glyph-name="cent" horiz-adv-x="961" d="M565 -8Q547 -24 536 -28T500 -41L475 -16V1214Q494 1226 499 1230T512 1237T539 1245L565 1223V-8ZM864 350Q777 248 717 201T604 142T489 129Q393 129 305 181T161 336T104 586Q104 728 172
839T355 1015T614 1079Q680 1079 748 1058T850 999Q853 984 844 952T820 888T793 838L758 848Q739 883 684 927T524 971Q455 971 394 934T294 819T256 616Q256 501 299 423T411 303T561 262Q599 262 631 268T708 301T825 391L864 350Z" />
<glyph unicode="&#xa3;" glyph-name="sterling" horiz-adv-x="961" d="M861 1165Q860 1131 854 1078T839 976T822 900H775Q761 1024 701 1080T540 1136Q500 1136 460 1120T392 1052T355 890T368 595Q386 440 351 311T258 101Q349 109 403 108T506 103T629 101Q691
103 730 113T798 158T855 272L898 254Q891 168 878 99T857 0Q803 -30 728 -30T566 -18T391 6T225 13T87 -30L64 19Q112 58 143 92T190 180T207 327T197 578Q174 884 275 1059T614 1235Q667 1235 717 1224T861 1165ZM615 536H86L64 561Q69 576 74 593T86 627H615L640
604L615 536Z" />
<glyph unicode="&#xa4;" glyph-name="currency" horiz-adv-x="961" d="M363 721Q313 671 313 601Q313 532 362 484Q412 434 482 434Q552 434 601 483Q650 534 650 602Q650 671 600 721Q551 770 482 770Q412 770 363 721ZM296 788Q335 827 383 846T482 866Q589
866 667 788Q705 750 725 701T745 600Q745 550 726 502T668 415Q631 377 582 358T482 339Q431 339 382 358T294 416Q256 454 237 502T218 600Q218 651 237 700T296 788ZM371 427L222 279L189 281Q182 295 174 311T158 343L306 491L340 493L371 427ZM300 718L159
860L161 893Q175 901 191 909T223 924L364 783L366 749L300 718ZM738 280L597 421L599 455Q628 471 661 486L803 344L804 310L738 280ZM802 858L654 710L620 712Q604 741 589 774L738 923L772 924L802 858Z" />
<glyph unicode="&#xa5;" glyph-name="yen" horiz-adv-x="961" d="M236 0V43Q327 62 363 81T400 115V436H128L106 461Q111 476 116 493T128 527H400V580Q331 727 250 868T101 1095Q83 1118 52 1134T-63 1150L-67 1193Q-8 1201 51 1207T152 1214Q199 1214 230 1175Q305
1078 367 969T499 716L713 1095Q728 1121 704 1136T602 1161V1204H998V1161Q930 1148 893 1135T842 1095L560 578V527H831L856 504L831 436H560V115Q560 102 596 82T726 43V0H236Z" />
<glyph unicode="&#xa6;" glyph-name="brokenbar" horiz-adv-x="500" d="M320 737Q300 721 271 708T217 686L180 708V1621Q209 1638 230 1650T283 1670L320 1648V737ZM320 -448Q300 -464 271 -478T217 -500L180 -477V425Q209 442 230 454T283 477L320 452V-448Z" />
<glyph unicode="&#xa7;" glyph-name="section" horiz-adv-x="961" d="M439 -30Q392 -30 324 -7T189 53Q182 56 180 84T178 153T184 232T196 293L239 282Q242 226 275 177T364 98T489 68Q561 68 607 102T653 207Q653 261 616 295T523 358T405 419Q272 492 196 570T119
775Q119 837 152 895T239 998T358 1058L407 987Q332 977 291 932T250 822Q250 761 280 717T374 629T538 529Q596 500 652 467T746 386T783 263Q783 157 742 97T641 10T525 -23T439 -30ZM632 369L549 448Q621 448 666 491T711 594Q711 686 636 750T405 899Q307 952
247 1025T187 1200Q187 1283 230 1336T341 1414T484 1440Q526 1440 577 1428T674 1397T747 1353Q755 1346 746 1314T721 1248T697 1203L658 1211Q611 1282 559 1316T458 1350Q392 1350 355 1322T317 1240Q317 1170 373 1121T538 1009Q627 958 695 912T803 807T842
656Q842 565 806 502T721 404T632 369Z" />
<glyph unicode="&#xa8;" glyph-name="dieresis" horiz-adv-x="801" d="M300 1261Q300 1205 267 1165T184 1124Q100 1124 100 1220Q100 1277 134 1316T215 1356Q300 1356 300 1261ZM700 1261Q700 1205 667 1165T584 1124Q500 1124 500 1220Q500 1277 534 1316T615
1356Q700 1356 700 1261Z" />
<glyph unicode="&#xa9;" glyph-name="copyright" horiz-adv-x="1460" d="M729 -30Q593 -30 478 21T278 164T147 374T100 631Q100 768 146 887T278 1097T478 1239T729 1290Q866 1290 981 1239T1181 1097T1313 887T1360 631Q1360 494 1313 375T1181 164T981 22T729
-30ZM707 217Q621 217 541 263T410 395T358 602Q358 736 416 835T570 989T780 1044Q856 1044 912 1026T1006 981Q1011 977 1000 957T971 914T942 883L918 887Q882 915 838 939T731 963Q688 963 631 933T532 830T489 627Q489 521 538 449T656 341T780 305Q824 305
869 323T991 397L1018 369Q929 283 854 250T707 217ZM729 56Q888 56 1011 133T1204 341T1274 631Q1274 789 1204 919T1011 1126T729 1204Q572 1204 449 1127T256 919T186 631Q186 472 256 342T449 134T729 56Z" />
<glyph unicode="&#xaa;" glyph-name="ordfeminine" horiz-adv-x="524" d="M514 768Q468 737 438 724T391 711Q373 711 356 743T338 846V1051Q338 1113 322 1145T252 1178Q223 1178 193 1152T178 1083Q180 1077 158 1070T109 1058T74 1055L66 1075Q72 1117 115
1153T211 1212T299 1235Q371 1235 400 1192T430 1038V842Q430 814 434 802T444 782Q449 779 464 780T508 793L514 768ZM295 981Q207 956 177 924T147 848Q147 807 166 794T199 780Q271 780 352 852L358 811Q306 757 255 734T166 711Q126 711 88 736T49 825Q49 887
97 934T246 1010L410 1053L414 1012L295 981ZM51 586V659H485V586H51Z" />
<glyph unicode="&#xab;" glyph-name="guillemotleft" horiz-adv-x="994" d="M450 430Q450 430 450 447T450 483T452 503L811 913L853 883Q853 883 830 841T772 737T703 612T645 508T623 467L854 47L811 17L450 430ZM80 430Q80 430 80 447T80 483T82 503L441 913L483
883Q483 883 460 841T402 737T333 612T275 508T253 467L484 47L441 17L80 430Z" />
<glyph unicode="&#xac;" glyph-name="logicalnot" horiz-adv-x="961" d="M891 233Q871 218 851 204T805 182L780 207V506H86L61 530Q73 578 92 618Q328 618 475 618T703 618T817 618T856 618T862 618L891 596V233Z" />
<glyph unicode="&#xad;" glyph-name="uni00AD" horiz-adv-x="690" d="M629 546Q623 524 615 498T598 455H86L61 479Q73 529 92 570H604L629 546Z" />
<glyph unicode="&#xae;" glyph-name="registered" horiz-adv-x="730" d="M696 1084Q696 989 653 910T535 785T364 738Q269 738 195 784T78 910T35 1084Q35 1180 77 1258T194 1383T364 1430Q460 1430 535 1384T653 1259T696 1084ZM637 1084Q637 1163 602 1228T506
1332T364 1371Q286 1371 225 1332T128 1228T93 1084Q93 1005 128 940T224 836T364 797Q444 797 505 835T602 939T637 1084ZM499 1196Q499 1136 454 1103T344 1070Q329 1070 307 1075L305 1111Q324 1107 340 1107Q438 1107 438 1187Q438 1216 416 1236T336 1256Q308
1256 277 1253T214 1244L212 1273Q241 1280 273 1285T347 1291Q422 1291 460 1264T499 1196ZM556 898Q536 892 515 887T482 881Q462 881 451 899L341 1079L384 1098L502 934Q513 916 554 919L556 898ZM214 887V905Q258 914 258 924V1269H313V924Q313 914 356 905V887H214Z"
/>
<glyph unicode="&#xaf;" glyph-name="overscore" horiz-adv-x="1010" d="M843 1281Q839 1259 826 1227T804 1175H189L167 1200Q172 1222 185 1254T208 1305H821L843 1281Z" />
<glyph unicode="&#xb0;" glyph-name="degree" horiz-adv-x="733" d="M593 1045Q593 963 553 899T452 797T329 759Q247 759 194 815T140 948Q140 1031 180 1096T281 1198T404 1235Q482 1235 537 1179T593 1045ZM484 995Q484 1054 456 1098T378 1142Q329 1142 290
1103T250 998Q250 942 278 897T355 851Q403 851 443 888T484 995Z" />
<glyph unicode="&#xb1;" glyph-name="plusminus" horiz-adv-x="840" d="M778 693Q774 673 765 649T748 607H86L61 631Q72 674 92 717H754L778 693ZM477 341Q435 320 387 310L362 332V986Q381 992 406 1001T453 1015L477 992V341ZM778 221Q774 201 765 177T748
135H86L61 159Q72 202 92 245H754L778 221Z" />
<glyph unicode="&#xb2;" glyph-name="twosuperior" horiz-adv-x="673" d="M585 620H79L59 664Q184 788 262 871T383 1009T442 1102T458 1174Q458 1230 429 1262T327 1295Q274 1295 241 1259T207 1180Q157 1157 96 1151L78 1169Q78 1211 120 1255T230 1330T375
1361Q467 1361 526 1320T585 1191Q585 1138 550 1080T433 935T206 703H479Q511 703 526 727T545 775T550 799L595 792L585 620Z" />
<glyph unicode="&#xb3;" glyph-name="threesuperior" horiz-adv-x="673" d="M587 849Q587 748 509 675T294 602Q232 602 167 625T38 701L61 742Q125 702 174 688T275 673Q357 673 406 713T456 829Q456 889 430 924T365 974T287 989Q268 989 265 989T239 985L230
1031Q313 1051 352 1077T404 1132T416 1184Q416 1225 389 1260T298 1295Q246 1295 219 1270T199 1204Q176 1194 144 1188T82 1180L63 1199Q63 1233 101 1270T202 1334T338 1361Q446 1361 496 1309T546 1195Q546 1150 507 1105T399 1039Q479 1031 533 977T587 849Z"
/>
<glyph unicode="&#xb4;" glyph-name="acute" horiz-adv-x="653" d="M274 1047Q256 1051 243 1058T217 1075L451 1489Q475 1488 524 1480T596 1466L619 1427L274 1047Z" />
<glyph unicode="&#xb5;" glyph-name="mu" horiz-adv-x="1105" d="M1085 82Q1025 45 961 7T863 -31Q818 -31 799 44T780 216Q780 225 780 278T780 406T780 556T780 684T780 748Q780 780 768 830T742 900Q831 925 918 960L946 921Q942 896 937 859T930 759Q930 752
930 704T930 588T930 451T930 331T930 268Q930 175 939 137T969 99Q991 99 1016 106T1075 127L1085 82ZM841 264Q744 119 652 44T490 -31Q419 -31 350 29T235 196T190 442Q190 450 190 493T190 589T190 685T190 731Q190 783 184 806T151 839T61 854V894Q139 908
194 920T302 960Q303 960 317 944T340 917Q340 915 340 876T340 775T340 644T340 513T340 411T340 366Q340 320 362 265T426 171T523 131Q564 131 609 145T708 206T826 353L841 264ZM271 459Q267 398 268 350T271 248T273 116Q272 -106 315 -236T411 -429Q392 -435
355 -449T281 -477T229 -500L190 -471Q190 -465 190 -407T190 -256T190 -54T190 167T190 374T190 535T190 615Q190 615 208 587T247 523T271 459Z" />
<glyph unicode="&#xb6;" glyph-name="paragraph" horiz-adv-x="1135" d="M983 1260Q983 1260 961 1242T909 1200T855 1160T827 1147Q730 1184 637 1195T489 1206Q410 1206 348 1170T251 1074T215 938Q215 866 249 790T357 662T547 610Q612 610 640 614T668 618L676
563Q676 563 641 545T504 526Q380 526 277 568T111 694T49 903Q49 1017 107 1104T269 1240T508 1290Q543 1290 601 1287T725 1280T849 1271T945 1263T983 1260ZM444 -250V-207Q512 -193 551 -176T590 -145L592 1221Q592 1229 576 1224T527 1213T446 1217V1260H1055V1217Q988
1203 949 1186T909 1155V-145Q909 -158 945 -175T1055 -207V-250H444ZM791 1204L711 1223V-145Q711 -156 725 -164T750 -176Q762 -173 776 -165T791 -145V1204Z" />
<glyph unicode="&#xb7;" glyph-name="middot" horiz-adv-x="300" d="M250 721Q250 665 217 625T134 584Q50 584 50 680Q50 737 84 776T165 816Q250 816 250 721Z" />
<glyph unicode="&#xb8;" glyph-name="cedilla" horiz-adv-x="469" d="M408 -229Q408 -303 336 -361T100 -444L78 -395Q182 -377 226 -343T270 -276Q270 -242 244 -229T156 -209Q156 -209 162 -190T188 -115T242 52L320 50L268 -104Q321 -115 364 -144T408 -229Z" />
<glyph unicode="&#xb9;" glyph-name="onesuperior" horiz-adv-x="673" d="M119 620V662Q229 673 263 688T298 716V1174Q298 1221 285 1233Q277 1241 241 1241T112 1224L97 1265Q136 1275 195 1293T310 1332T397 1367L423 1346V716Q423 704 452 689T588 662V620H119Z" />
<glyph unicode="&#xba;" glyph-name="ordmasculine" horiz-adv-x="578" d="M528 983Q528 915 490 853T394 751T272 711Q172 711 111 782T49 963Q49 1033 83 1095T176 1196T305 1235Q402 1235 465 1164T528 983ZM61 586V659H516V586H61ZM434 967Q434 1051 386 1113T272
1176Q213 1176 178 1119T143 977Q143 921 166 873T227 797T305 768Q359 768 396 825T434 967Z" />
<glyph unicode="&#xbb;" glyph-name="guillemotright" horiz-adv-x="994" d="M544 430L183 17L140 47L371 467L141 883L183 913L542 503L544 430ZM914 430L553 17L510 47L741 467L511 883L553 913L912 503L914 430Z" />
<glyph unicode="&#xbc;" glyph-name="onequarter" horiz-adv-x="1200" d="M326 3Q284 -17 233 -30L208 0L970 1203Q990 1211 1013 1221T1059 1235L1084 1207L326 3ZM1120 210Q1108 195 1098 184T1075 164H1044V58Q1044 51 1056 45T1114 29V0H840V29Q913 39 931
47T950 63V164H672L653 180L933 563Q956 572 981 581T1024 598L1044 581V226H1105L1120 210ZM950 491L749 226H950V491ZM97 637V671Q185 680 212 692T240 714V1080Q240 1119 230 1127Q223 1133 195 1133T92 1120L80 1153Q111 1161 158 1175T250 1206T320 1235L340
1218V714Q340 704 364 692T472 671V637H97Z" />
<glyph unicode="&#xbd;" glyph-name="onehalf" horiz-adv-x="1200" d="M317 3Q275 -17 224 -30L199 0L961 1203Q981 1211 1004 1221T1050 1235L1075 1207L317 3ZM97 637V671Q185 680 212 692T240 714V1080Q240 1119 230 1127Q223 1133 195 1133T92 1120L80 1153Q111
1161 158 1175T250 1206T320 1235L340 1218V714Q340 704 364 692T472 671V637H97ZM1112 0H707L691 35Q824 168 892 243T985 363T1010 443Q1010 487 987 513T906 540Q863 540 837 512T810 448Q773 430 721 425L706 439Q706 473 740 508T828 568T944 593Q1018 593
1065 560T1112 457Q1112 414 1084 368T990 252T809 66H1027Q1053 66 1065 85T1080 124T1084 143L1120 138L1112 0Z" />
<glyph unicode="&#xbe;" glyph-name="threequarters" horiz-adv-x="1200" d="M316 3Q274 -17 223 -30L198 0L960 1203Q980 1211 1003 1221T1049 1235L1074 1207L316 3ZM519 821Q519 740 457 682T285 623Q235 623 183 642T80 702L98 735Q149 703 188 692T270 680Q335
680 374 712T414 805Q414 877 370 905T279 933Q263 933 261 933T241 929L234 966Q333 990 357 1024T382 1089Q382 1122 361 1149T288 1177Q246 1177 224 1157T209 1105Q190 1096 165 1092T115 1085L100 1101Q100 1128 130 1158T211 1209T320 1230Q406 1230 446
1188T486 1097Q486 1061 455 1026T369 973Q433 966 476 923T519 821ZM1120 210Q1108 195 1098 184T1075 164H1044V58Q1044 51 1056 45T1114 29V0H840V29Q913 39 931 47T950 63V164H672L653 180L933 563Q956 572 981 581T1024 598L1044 581V226H1105L1120 210ZM950
491L749 226H950V491Z" />
<glyph unicode="&#xbf;" glyph-name="questiondown" horiz-adv-x="887" d="M586 848Q586 781 545 733T446 684Q348 684 348 799Q348 867 387 913T485 960Q586 960 586 848ZM424 530Q454 558 498 571L524 551L530 434Q535 365 508 298T437 167T350 39T276 -84T246
-201Q246 -324 302 -394T463 -465Q535 -465 589 -405T643 -266Q643 -251 639 -237T629 -209Q663 -190 698 -182T778 -170L805 -201Q807 -208 807 -216T807 -233Q807 -327 748 -401T593 -517T385 -559Q237 -559 159 -472T80 -246Q80 -156 112 -86T192 43T290 160T376
284T418 434L424 530Z" />
<glyph unicode="&#xc0;" glyph-name="Agrave" horiz-adv-x="1219" d="M381 445L270 111Q260 80 297 66T416 43V0H0V43Q68 55 108 68T158 111L530 1237Q553 1262 587 1282T647 1317L1067 111Q1077 83 1105 67T1198 43V0H776V43Q853 48 883 63T903 111L789 445H381ZM758
535L582 1049L411 535H758ZM776 1412Q762 1393 755 1384T731 1367L262 1610L270 1655Q285 1671 326 1694T389 1729L776 1412Z" />
<glyph unicode="&#xc1;" glyph-name="Aacute" horiz-adv-x="1219" d="M381 445L270 111Q260 80 297 66T416 43V0H0V43Q68 55 108 68T158 111L530 1237Q553 1262 587 1282T647 1317L1067 111Q1077 83 1105 67T1198 43V0H776V43Q853 48 883 63T903 111L789 445H381ZM758
535L582 1049L411 535H758ZM467 1367Q450 1375 443 1384T422 1412L809 1729Q830 1717 871 1694T927 1655L936 1610L467 1367Z" />
<glyph unicode="&#xc2;" glyph-name="Acircumflex" horiz-adv-x="1219" d="M381 445L270 111Q260 80 297 66T416 43V0H0V43Q68 55 108 68T158 111L530 1237Q553 1262 587 1282T647 1317L1067 111Q1077 83 1105 67T1198 43V0H776V43Q853 48 883 63T903 111L789
445H381ZM758 535L582 1049L411 535H758ZM915 1412Q903 1393 896 1384T872 1367L598 1575L327 1367Q311 1375 304 1384T282 1412L546 1721H653L915 1412Z" />
<glyph unicode="&#xc3;" glyph-name="Atilde" horiz-adv-x="1219" d="M381 445L270 111Q260 80 297 66T416 43V0H0V43Q68 55 108 68T158 111L530 1237Q553 1262 587 1282T647 1317L1067 111Q1077 83 1105 67T1198 43V0H776V43Q853 48 883 63T903 111L789 445H381ZM758
535L582 1049L411 535H758ZM940 1626Q917 1572 881 1520T798 1435T700 1401Q654 1401 613 1429T532 1486T454 1514Q414 1514 381 1482T311 1393L258 1413Q282 1468 318 1519T399 1605T497 1639Q548 1639 591 1611T671 1555T741 1526Q779 1526 815 1558T886 1649L940
1626Z" />
<glyph unicode="&#xc4;" glyph-name="Adieresis" horiz-adv-x="1219" d="M381 445L270 111Q260 80 297 66T416 43V0H0V43Q68 55 108 68T158 111L530 1237Q553 1262 587 1282T647 1317L1067 111Q1077 83 1105 67T1198 43V0H776V43Q853 48 883 63T903 111L789 445H381ZM758
535L582 1049L411 535H758ZM499 1541Q499 1485 466 1445T383 1404Q299 1404 299 1500Q299 1557 333 1596T414 1636Q499 1636 499 1541ZM899 1541Q899 1485 866 1445T783 1404Q699 1404 699 1500Q699 1557 733 1596T814 1636Q899 1636 899 1541Z" />
<glyph unicode="&#xc5;" glyph-name="Aring" horiz-adv-x="1219" d="M381 445L270 111Q260 80 297 66T416 43V0H0V43Q68 55 108 68T158 111L530 1237Q553 1262 587 1282T647 1317L1067 111Q1077 83 1105 67T1198 43V0H776V43Q853 48 883 63T903 111L789 445H381ZM758
535L582 1049L411 535H758ZM785 1604Q785 1537 752 1484T669 1401T568 1370Q501 1370 457 1415T413 1524Q413 1593 446 1646T529 1729T630 1760Q695 1760 740 1714T785 1604ZM695 1563Q695 1611 672 1647T609 1684Q568 1684 536 1652T503 1565Q503 1519 526 1483T589
1446Q629 1446 662 1476T695 1563Z" />
<glyph unicode="&#xc6;" glyph-name="AE" horiz-adv-x="1595" d="M1536 244Q1527 158 1514 94T1493 0H631V43Q699 57 736 74T774 104V651H505L285 111Q272 82 303 67T416 43V0H0V43Q68 55 106 68T158 111L571 1133Q585 1167 532 1182T381 1217V1260H911H1079H1438L1468
1235Q1465 1184 1453 1116T1427 1010H1382Q1378 1102 1359 1136T1300 1170H934V735H1339L1366 707Q1349 679 1323 646T1274 596Q1245 625 1203 638T1075 651H934V154Q934 135 949 121T1008 98T1141 90H1270Q1332 90 1370 100T1435 147T1491 262L1536 244ZM774 1148Q774
1170 742 1168T696 1131L539 735H774V1148Z" />
<glyph unicode="&#xc7;" glyph-name="Ccedilla" horiz-adv-x="1098" d="M1018 211Q891 75 783 23T571 -30Q478 -30 389 11T228 132T113 326T70 586Q70 746 118 875T250 1097T443 1240T676 1290Q783 1290 865 1261T999 1190Q1007 1184 990 1160T949 1110T909 1067L874
1073Q824 1120 754 1150T592 1180Q541 1180 478 1151T357 1057T262 886T225 623Q225 490 263 390T363 224T498 124T643 90Q697 90 784 127T981 256Q992 252 1003 236T1018 211ZM749 -229Q749 -303 677 -361T441 -444L419 -395Q523 -377 567 -343T611 -276Q611 -242
585 -229T497 -209Q497 -209 503 -190T528 -115T582 52L660 50L609 -104Q662 -115 705 -144T749 -229Z" />
<glyph unicode="&#xc8;" glyph-name="Egrave" horiz-adv-x="1016" d="M889 1235Q886 1184 873 1116T848 1010H803Q799 1102 779 1136T721 1170H303L332 1260H856L889 1235ZM786 707Q770 679 743 646T694 596Q663 625 622 638T496 651H289L311 735H760L786 707ZM954
244Q947 158 934 94T913 0H50V43Q118 57 156 74T195 104V1155Q195 1167 159 1185T50 1217V1260H500V1217Q433 1210 394 1201T355 1177V154Q355 135 369 121T427 98T559 90H688Q750 90 788 100T855 147T911 262L954 244ZM679 1412Q665 1393 658 1384T634 1367L165
1610L173 1655Q188 1671 229 1694T292 1729L679 1412Z" />
<glyph unicode="&#xc9;" glyph-name="Eacute" horiz-adv-x="1016" d="M889 1235Q886 1184 873 1116T848 1010H803Q799 1102 779 1136T721 1170H303L332 1260H856L889 1235ZM786 707Q770 679 743 646T694 596Q663 625 622 638T496 651H289L311 735H760L786 707ZM954
244Q947 158 934 94T913 0H50V43Q118 57 156 74T195 104V1155Q195 1167 159 1185T50 1217V1260H500V1217Q433 1210 394 1201T355 1177V154Q355 135 369 121T427 98T559 90H688Q750 90 788 100T855 147T911 262L954 244ZM370 1367Q353 1375 346 1384T325 1412L712
1729Q733 1717 774 1694T830 1655L839 1610L370 1367Z" />
<glyph unicode="&#xca;" glyph-name="Ecircumflex" horiz-adv-x="1016" d="M889 1235Q886 1184 873 1116T848 1010H803Q799 1102 779 1136T721 1170H303L332 1260H856L889 1235ZM786 707Q770 679 743 646T694 596Q663 625 622 638T496 651H289L311 735H760L786
707ZM954 244Q947 158 934 94T913 0H50V43Q118 57 156 74T195 104V1155Q195 1167 159 1185T50 1217V1260H500V1217Q433 1210 394 1201T355 1177V154Q355 135 369 121T427 98T559 90H688Q750 90 788 100T855 147T911 262L954 244ZM818 1412Q806 1393 799 1384T775
1367L501 1575L230 1367Q214 1375 207 1384T185 1412L449 1721H556L818 1412Z" />
<glyph unicode="&#xcb;" glyph-name="Edieresis" horiz-adv-x="1016" d="M889 1235Q886 1184 873 1116T848 1010H803Q799 1102 779 1136T721 1170H303L332 1260H856L889 1235ZM786 707Q770 679 743 646T694 596Q663 625 622 638T496 651H289L311 735H760L786 707ZM954
244Q947 158 934 94T913 0H50V43Q118 57 156 74T195 104V1155Q195 1167 159 1185T50 1217V1260H500V1217Q433 1210 394 1201T355 1177V154Q355 135 369 121T427 98T559 90H688Q750 90 788 100T855 147T911 262L954 244ZM402 1541Q402 1485 369 1445T286 1404Q202
1404 202 1500Q202 1557 236 1596T317 1636Q402 1636 402 1541ZM802 1541Q802 1485 769 1445T686 1404Q602 1404 602 1500Q602 1557 636 1596T717 1636Q802 1636 802 1541Z" />
<glyph unicode="&#xcc;" glyph-name="Igrave" horiz-adv-x="610" d="M70 0V43Q138 57 176 74T215 104V1155Q215 1167 179 1185T70 1217V1260H520V1217Q453 1203 414 1186T375 1155V104Q375 92 411 75T520 43V0H70ZM472 1412Q458 1393 451 1384T427 1367L-42 1610L-34
1655Q-19 1671 22 1694T85 1729L472 1412Z" />
<glyph unicode="&#xcd;" glyph-name="Iacute" horiz-adv-x="610" d="M70 0V43Q138 57 176 74T215 104V1155Q215 1167 179 1185T70 1217V1260H520V1217Q453 1203 414 1186T375 1155V104Q375 92 411 75T520 43V0H70ZM163 1367Q146 1375 139 1384T118 1412L505 1729Q526
1717 567 1694T623 1655L632 1610L163 1367Z" />
<glyph unicode="&#xce;" glyph-name="Icircumflex" horiz-adv-x="610" d="M70 0V43Q138 57 176 74T215 104V1155Q215 1167 179 1185T70 1217V1260H520V1217Q453 1203 414 1186T375 1155V104Q375 92 411 75T520 43V0H70ZM611 1412Q599 1393 592 1384T568 1367L294
1575L23 1367Q7 1375 0 1384T-22 1412L242 1721H349L611 1412Z" />
<glyph unicode="&#xcf;" glyph-name="Idieresis" horiz-adv-x="610" d="M70 0V43Q138 57 176 74T215 104V1155Q215 1167 179 1185T70 1217V1260H520V1217Q453 1203 414 1186T375 1155V104Q375 92 411 75T520 43V0H70ZM195 1541Q195 1485 162 1445T79 1404Q-5 1404
-5 1500Q-5 1557 29 1596T110 1636Q195 1636 195 1541ZM595 1541Q595 1485 562 1445T479 1404Q395 1404 395 1500Q395 1557 429 1596T510 1636Q595 1636 595 1541Z" />
<glyph unicode="&#xd0;" glyph-name="Eth" horiz-adv-x="1214" d="M614 615H49L27 640Q37 674 49 705H614L639 682L614 615ZM50 0V43Q118 57 156 74T195 104V1189Q156 1184 120 1179T50 1168L41 1230Q100 1247 181 1260T350 1282T518 1290Q704 1290 839 1217T1049
1007T1123 676Q1123 489 1069 360T930 151T746 36T559 0H500Q423 0 365 0T242 0T82 0H50ZM537 84Q606 84 679 117T814 219T914 392T953 637Q953 903 824 1054T453 1206Q403 1206 355 1203V154Q355 123 382 109T452 89T537 84Z" />
<glyph unicode="&#xd1;" glyph-name="Ntilde" horiz-adv-x="1329" d="M1280 1217Q1208 1207 1172 1188T1135 1155V32L1015 71V1155Q1015 1167 983 1186T870 1217V1260H1280V1217ZM1135 -30Q1086 -24 1057 -10T1016 21L238 1100Q197 1158 150 1183T50 1217V1260H262Q291
1260 306 1247T358 1182L1017 273Q1031 254 1059 217T1111 150T1135 120V-30ZM50 0V43Q124 52 159 71T195 104V1196L315 1221V104Q315 92 349 73T460 43V0H50ZM1006 1626Q983 1572 947 1520T864 1435T766 1401Q720 1401 679 1429T598 1486T520 1514Q480 1514 447
1482T377 1393L324 1413Q348 1468 384 1519T465 1605T563 1639Q614 1639 657 1611T737 1555T807 1526Q845 1526 881 1558T952 1649L1006 1626Z" />
<glyph unicode="&#xd2;" glyph-name="Ograve" horiz-adv-x="1229" d="M577 -30Q457 -30 363 22T204 165T106 370T72 612Q72 748 115 870T236 1087T415 1236T635 1290Q759 1290 853 1236T1011 1091T1107 884T1140 647Q1140 511 1096 389T973 173T793 24T577 -30ZM606
90Q772 90 878 227T985 629Q985 733 958 830T881 1005T761 1129T606 1175Q428 1175 328 1031T227 641Q227 492 279 367T417 166T606 90ZM794 1412Q780 1393 773 1384T749 1367L280 1610L288 1655Q303 1671 344 1694T407 1729L794 1412Z" />
<glyph unicode="&#xd3;" glyph-name="Oacute" horiz-adv-x="1229" d="M577 -30Q457 -30 363 22T204 165T106 370T72 612Q72 748 115 870T236 1087T415 1236T635 1290Q759 1290 853 1236T1011 1091T1107 884T1140 647Q1140 511 1096 389T973 173T793 24T577 -30ZM606
90Q772 90 878 227T985 629Q985 733 958 830T881 1005T761 1129T606 1175Q428 1175 328 1031T227 641Q227 492 279 367T417 166T606 90ZM485 1367Q468 1375 461 1384T440 1412L827 1729Q848 1717 889 1694T945 1655L954 1610L485 1367Z" />
<glyph unicode="&#xd4;" glyph-name="Ocircumflex" horiz-adv-x="1229" d="M577 -30Q457 -30 363 22T204 165T106 370T72 612Q72 748 115 870T236 1087T415 1236T635 1290Q759 1290 853 1236T1011 1091T1107 884T1140 647Q1140 511 1096 389T973 173T793 24T577
-30ZM606 90Q772 90 878 227T985 629Q985 733 958 830T881 1005T761 1129T606 1175Q428 1175 328 1031T227 641Q227 492 279 367T417 166T606 90ZM933 1412Q921 1393 914 1384T890 1367L616 1575L345 1367Q329 1375 322 1384T300 1412L564 1721H671L933 1412Z"
/>
<glyph unicode="&#xd5;" glyph-name="Otilde" horiz-adv-x="1229" d="M577 -30Q457 -30 363 22T204 165T106 370T72 612Q72 748 115 870T236 1087T415 1236T635 1290Q759 1290 853 1236T1011 1091T1107 884T1140 647Q1140 511 1096 389T973 173T793 24T577 -30ZM606
90Q772 90 878 227T985 629Q985 733 958 830T881 1005T761 1129T606 1175Q428 1175 328 1031T227 641Q227 492 279 367T417 166T606 90ZM958 1626Q935 1572 899 1520T816 1435T718 1401Q672 1401 631 1429T550 1486T472 1514Q432 1514 399 1482T329 1393L276 1413Q300
1468 336 1519T417 1605T515 1639Q566 1639 609 1611T689 1555T759 1526Q797 1526 833 1558T904 1649L958 1626Z" />
<glyph unicode="&#xd6;" glyph-name="Odieresis" horiz-adv-x="1229" d="M577 -30Q457 -30 363 22T204 165T106 370T72 612Q72 748 115 870T236 1087T415 1236T635 1290Q759 1290 853 1236T1011 1091T1107 884T1140 647Q1140 511 1096 389T973 173T793 24T577
-30ZM606 90Q772 90 878 227T985 629Q985 733 958 830T881 1005T761 1129T606 1175Q428 1175 328 1031T227 641Q227 492 279 367T417 166T606 90ZM517 1541Q517 1485 484 1445T401 1404Q317 1404 317 1500Q317 1557 351 1596T432 1636Q517 1636 517 1541ZM917 1541Q917
1485 884 1445T801 1404Q717 1404 717 1500Q717 1557 751 1596T832 1636Q917 1636 917 1541Z" />
<glyph unicode="&#xd7;" glyph-name="multiply" horiz-adv-x="840" d="M746 280Q726 272 699 263T654 249L95 808L94 842Q114 851 139 859T187 873L746 314V280ZM93 314L652 873Q674 868 700 860T745 842V808L186 249Q167 254 140 263T93 280V314Z" />
<glyph unicode="&#xd8;" glyph-name="Oslash" horiz-adv-x="1229" d="M1138 647Q1138 511 1094 389T971 173T791 24T575 -30Q455 -30 361 22T202 165T104 370T70 612Q70 748 113 870T234 1087T413 1236T633 1290Q757 1290 851 1236T1009 1091T1105 884T1138 647ZM983
629Q983 733 956 830T879 1005T759 1129T604 1175Q426 1175 326 1031T225 641Q225 492 277 367T415 166T604 90Q770 90 876 227T983 629ZM233 -2Q215 -18 172 -31T104 -53L76 -20L975 1264Q1003 1281 1037 1293T1102 1313L1130 1280L233 -2Z" />
<glyph unicode="&#xd9;" glyph-name="Ugrave" horiz-adv-x="1339" d="M1275 1217Q1208 1203 1169 1186T1130 1155V524Q1130 262 1006 116T666 -30Q529 -30 423 21T256 177T195 444V1155Q195 1167 159 1185T50 1217V1260H500V1217Q433 1203 394 1186T355 1155V494Q355
302 444 194T705 85Q800 85 866 143T966 292T1000 483V1155Q1000 1167 964 1185T855 1217V1260H1275V1217ZM854 1412Q840 1393 833 1384T809 1367L340 1610L348 1655Q363 1671 404 1694T467 1729L854 1412Z" />
<glyph unicode="&#xda;" glyph-name="Uacute" horiz-adv-x="1339" d="M1275 1217Q1208 1203 1169 1186T1130 1155V524Q1130 262 1006 116T666 -30Q529 -30 423 21T256 177T195 444V1155Q195 1167 159 1185T50 1217V1260H500V1217Q433 1203 394 1186T355 1155V494Q355
302 444 194T705 85Q800 85 866 143T966 292T1000 483V1155Q1000 1167 964 1185T855 1217V1260H1275V1217ZM545 1367Q528 1375 521 1384T500 1412L887 1729Q908 1717 949 1694T1005 1655L1014 1610L545 1367Z" />
<glyph unicode="&#xdb;" glyph-name="Ucircumflex" horiz-adv-x="1339" d="M1275 1217Q1208 1203 1169 1186T1130 1155V524Q1130 262 1006 116T666 -30Q529 -30 423 21T256 177T195 444V1155Q195 1167 159 1185T50 1217V1260H500V1217Q433 1203 394 1186T355 1155V494Q355
302 444 194T705 85Q800 85 866 143T966 292T1000 483V1155Q1000 1167 964 1185T855 1217V1260H1275V1217ZM993 1412Q981 1393 974 1384T950 1367L676 1575L405 1367Q389 1375 382 1384T360 1412L624 1721H731L993 1412Z" />
<glyph unicode="&#xdc;" glyph-name="Udieresis" horiz-adv-x="1339" d="M1275 1217Q1208 1203 1169 1186T1130 1155V524Q1130 262 1006 116T666 -30Q529 -30 423 21T256 177T195 444V1155Q195 1167 159 1185T50 1217V1260H500V1217Q433 1203 394 1186T355 1155V494Q355
302 444 194T705 85Q800 85 866 143T966 292T1000 483V1155Q1000 1167 964 1185T855 1217V1260H1275V1217ZM577 1541Q577 1485 544 1445T461 1404Q377 1404 377 1500Q377 1557 411 1596T492 1636Q577 1636 577 1541ZM977 1541Q977 1485 944 1445T861 1404Q777 1404
777 1500Q777 1557 811 1596T892 1636Q977 1636 977 1541Z" />
<glyph unicode="&#xdd;" glyph-name="Yacute" horiz-adv-x="1217" d="M1176 1217Q1108 1204 1071 1191T1020 1151L655 489H545Q510 572 461 666T359 852T256 1022T168 1151Q149 1173 118 1189T4 1206L0 1249Q59 1257 118 1263T219 1270Q266 1270 297 1231Q347
1167 405 1075T520 879T623 680L891 1151Q906 1177 882 1192T780 1217V1260H1176V1217ZM360 0V43Q451 62 487 81T524 115V637H684V115Q684 102 720 82T850 43V0H360ZM472 1367Q455 1375 448 1384T427 1412L814 1729Q835 1717 876 1694T932 1655L941 1610L472 1367Z"
/>
<glyph unicode="&#xde;" glyph-name="Thorn" horiz-adv-x="1071" d="M982 666Q982 562 941 487T836 362T702 289T573 265Q477 265 412 298L389 369Q430 350 469 345T543 340Q605 340 670 372T781 467T827 625Q827 736 777 804T641 904T453 936Q351 936 244 924L233
997Q286 1008 349 1014T510 1020Q725 1020 853 929T982 666ZM49 0V43Q117 57 156 74T195 104V1155Q195 1167 158 1185T49 1217V1260H530V1217Q427 1200 391 1185T355 1155V104Q355 92 390 76T530 43V0H49Z" />
<glyph unicode="&#xdf;" glyph-name="germandbls" horiz-adv-x="1157" d="M1067 283Q1067 205 1033 134T924 16T729 -30Q692 -30 635 -18T528 13T469 47Q465 54 464 87T464 162T471 238T483 283L522 270Q532 199 571 155T663 90T768 70Q839 70 888 110T937 217Q937
286 904 332T820 412T710 475T601 537T516 615T483 729Q483 810 516 856T599 929T698 978T781 1032T815 1122Q815 1190 790 1260T710 1377T565 1425Q501 1425 451 1392T373 1270T345 1016V0H55V43Q123 55 159 72T195 102V961Q195 1122 223 1214T296 1361T393 1458Q447
1502 514 1526T653 1550Q739 1550 799 1515T896 1425T950 1308T967 1190Q967 1092 933 1035T847 946T744 893T658 845T623 770Q623 727 655 696T737 640T845 586T952 518T1035 423T1067 283Z" />
<glyph unicode="&#xe0;" glyph-name="agrave" horiz-adv-x="940" d="M926 82Q841 24 786 -3T702 -30Q667 -30 645 22T623 164V702Q623 770 588 816T455 860Q391 859 339 822T292 724Q294 712 258 697T181 673T122 667L108 706Q139 773 210 830T370 924T544 960Q654
960 713 903T773 742V178Q773 100 813 100Q827 100 849 105T911 127L926 82ZM633 488Q518 470 454 452T357 415T302 372Q277 345 261 311T244 229Q244 176 263 148T309 110T352 100Q414 100 484 133T633 236L641 162Q547 61 454 16T293 -30Q245 -30 196 -9T114
61T80 186Q80 263 106 313T170 401Q203 434 250 462T386 515T633 563V488ZM594 1078Q572 1057 538 1047L186 1424L208 1465Q221 1469 249 1474T308 1483T354 1489L594 1078Z" />
<glyph unicode="&#xe1;" glyph-name="aacute" horiz-adv-x="940" d="M926 82Q841 24 786 -3T702 -30Q667 -30 645 22T623 164V702Q623 770 588 816T455 860Q391 859 339 822T292 724Q294 712 258 697T181 673T122 667L108 706Q139 773 210 830T370 924T544 960Q654
960 713 903T773 742V178Q773 100 813 100Q827 100 849 105T911 127L926 82ZM633 488Q518 470 454 452T357 415T302 372Q277 345 261 311T244 229Q244 176 263 148T309 110T352 100Q414 100 484 133T633 236L641 162Q547 61 454 16T293 -30Q245 -30 196 -9T114
61T80 186Q80 263 106 313T170 401Q203 434 250 462T386 515T633 563V488ZM437 1047Q419 1050 405 1058T380 1075L614 1489Q637 1488 687 1481T759 1466L782 1427L437 1047Z" />
<glyph unicode="&#xe2;" glyph-name="acircumflex" horiz-adv-x="940" d="M926 82Q841 24 786 -3T702 -30Q667 -30 645 22T623 164V702Q623 770 588 816T455 860Q391 859 339 822T292 724Q294 712 258 697T181 673T122 667L108 706Q139 773 210 830T370 924T544
960Q654 960 713 903T773 742V178Q773 100 813 100Q827 100 849 105T911 127L926 82ZM633 488Q518 470 454 452T357 415T302 372Q277 345 261 311T244 229Q244 176 263 148T309 110T352 100Q414 100 484 133T633 236L641 162Q547 61 454 16T293 -30Q245 -30 196
-9T114 61T80 186Q80 263 106 313T170 401Q203 434 250 462T386 515T633 563V488ZM796 1092Q784 1073 777 1064T753 1047L479 1315L208 1047Q192 1055 185 1064T163 1092L427 1471H534L796 1092Z" />
<glyph unicode="&#xe3;" glyph-name="atilde" horiz-adv-x="940" d="M926 82Q841 24 786 -3T702 -30Q667 -30 645 22T623 164V702Q623 770 588 816T455 860Q391 859 339 822T292 724Q294 712 258 697T181 673T122 667L108 706Q139 773 210 830T370 924T544 960Q654
960 713 903T773 742V178Q773 100 813 100Q827 100 849 105T911 127L926 82ZM633 488Q518 470 454 452T357 415T302 372Q277 345 261 311T244 229Q244 176 263 148T309 110T352 100Q414 100 484 133T633 236L641 162Q547 61 454 16T293 -30Q245 -30 196 -9T114
61T80 186Q80 263 106 313T170 401Q203 434 250 462T386 515T633 563V488ZM821 1346Q798 1292 762 1240T679 1155T581 1121Q535 1121 494 1149T413 1206T335 1234Q295 1234 262 1202T192 1113L139 1133Q163 1188 199 1239T280 1325T378 1359Q429 1359 472 1331T552
1275T622 1246Q660 1246 696 1278T767 1369L821 1346Z" />
<glyph unicode="&#xe4;" glyph-name="adieresis" horiz-adv-x="940" d="M926 82Q841 24 786 -3T702 -30Q667 -30 645 22T623 164V702Q623 770 588 816T455 860Q391 859 339 822T292 724Q294 712 258 697T181 673T122 667L108 706Q139 773 210 830T370 924T544
960Q654 960 713 903T773 742V178Q773 100 813 100Q827 100 849 105T911 127L926 82ZM633 488Q518 470 454 452T357 415T302 372Q277 345 261 311T244 229Q244 176 263 148T309 110T352 100Q414 100 484 133T633 236L641 162Q547 61 454 16T293 -30Q245 -30 196
-9T114 61T80 186Q80 263 106 313T170 401Q203 434 250 462T386 515T633 563V488ZM380 1261Q380 1205 347 1165T264 1124Q180 1124 180 1220Q180 1277 214 1316T295 1356Q380 1356 380 1261ZM780 1261Q780 1205 747 1165T664 1124Q580 1124 580 1220Q580 1277 614
1316T695 1356Q780 1356 780 1261Z" />
<glyph unicode="&#xe5;" glyph-name="aring" horiz-adv-x="940" d="M926 82Q841 24 786 -3T702 -30Q667 -30 645 22T623 164V702Q623 770 588 816T455 860Q391 859 339 822T292 724Q294 712 258 697T181 673T122 667L108 706Q139 773 210 830T370 924T544 960Q654
960 713 903T773 742V178Q773 100 813 100Q827 100 849 105T911 127L926 82ZM633 488Q518 470 454 452T357 415T302 372Q277 345 261 311T244 229Q244 176 263 148T309 110T352 100Q414 100 484 133T633 236L641 162Q547 61 454 16T293 -30Q245 -30 196 -9T114
61T80 186Q80 263 106 313T170 401Q203 434 250 462T386 515T633 563V488ZM666 1284Q666 1217 633 1164T550 1081T449 1050Q382 1050 338 1095T294 1204Q294 1273 327 1326T410 1409T511 1440Q576 1440 621 1394T666 1284ZM576 1243Q576 1291 553 1327T490 1364Q449
1364 417 1332T384 1245Q384 1199 407 1163T470 1126Q510 1126 543 1156T576 1243Z" />
<glyph unicode="&#xe6;" glyph-name="ae" horiz-adv-x="1417" d="M293 -30Q245 -30 196 -9T114 61T80 186Q80 305 174 401T463 553Q496 562 538 567T623 576V662Q623 714 612 759T567 832T467 860Q425 860 377 835T301 768T292 676Q295 667 274 656T222 636T163
623T122 621L108 657Q116 716 163 770T277 867T413 935T535 960Q623 960 674 925T749 816Q814 898 890 929T1024 960Q1116 960 1176 923T1272 826T1322 696T1337 557Q1318 537 1288 520T1225 489H776Q775 473 775 455T774 418Q774 341 801 269T881 149T1008 102Q1050
102 1088 110T1174 146T1292 236Q1305 229 1315 216T1329 195Q1249 100 1186 52T1065 -13T944 -30Q856 -30 778 25T658 179Q601 110 532 64T399 -6T293 -30ZM352 100Q407 100 485 135T637 244Q629 279 626 309T623 386V485Q594 483 565 479T508 468Q399 443 322
384T244 229Q244 176 263 148T309 110T352 100ZM785 580H1133Q1171 580 1171 616Q1171 711 1130 785T995 860Q966 860 923 839T842 758T785 580Z" />
<glyph unicode="&#xe7;" glyph-name="ccedilla" horiz-adv-x="895" d="M840 190Q753 88 693 42T580 -17T465 -30Q368 -30 280 26T136 189T80 444Q80 588 147 705T331 891T590 960Q656 960 723 938T825 881Q828 865 819 833T795 769T768 717L731 727Q715 762 659
806T500 850Q430 850 369 809T269 684T230 475Q230 362 273 278T387 147T537 100Q575 100 607 106T683 140T801 231L840 190ZM655 -229Q655 -303 583 -361T347 -444L325 -395Q429 -377 473 -343T517 -276Q517 -242 491 -229T403 -209Q403 -209 409 -190T434 -115T488
52L566 50L515 -104Q568 -115 611 -144T655 -229Z" />
<glyph unicode="&#xe8;" glyph-name="egrave" horiz-adv-x="946" d="M866 557Q848 537 818 520T756 490H182L184 580H664Q687 580 694 587T702 616Q702 643 694 683T665 762T602 828T496 855Q416 855 356 808T263 681T230 497Q230 392 265 302T367 156T526 100Q568
100 607 108T698 146T823 236Q836 229 846 216T860 195Q771 98 708 50T590 -14T465 -30Q363 -30 275 27T134 189T80 434Q80 569 138 689T301 881Q345 912 408 936T524 960Q622 960 688 922T793 822T849 691T866 557ZM624 1078Q602 1057 568 1047L216 1424L238 1465Q251
1469 279 1474T338 1483T384 1489L624 1078Z" />
<glyph unicode="&#xe9;" glyph-name="eacute" horiz-adv-x="946" d="M866 557Q848 537 818 520T756 490H182L184 580H664Q687 580 694 587T702 616Q702 643 694 683T665 762T602 828T496 855Q416 855 356 808T263 681T230 497Q230 392 265 302T367 156T526 100Q568
100 607 108T698 146T823 236Q836 229 846 216T860 195Q771 98 708 50T590 -14T465 -30Q363 -30 275 27T134 189T80 434Q80 569 138 689T301 881Q345 912 408 936T524 960Q622 960 688 922T793 822T849 691T866 557ZM467 1047Q449 1050 435 1058T410 1075L644 1489Q667
1488 717 1481T789 1466L812 1427L467 1047Z" />
<glyph unicode="&#xea;" glyph-name="ecircumflex" horiz-adv-x="946" d="M866 557Q848 537 818 520T756 490H182L184 580H664Q687 580 694 587T702 616Q702 643 694 683T665 762T602 828T496 855Q416 855 356 808T263 681T230 497Q230 392 265 302T367 156T526
100Q568 100 607 108T698 146T823 236Q836 229 846 216T860 195Q771 98 708 50T590 -14T465 -30Q363 -30 275 27T134 189T80 434Q80 569 138 689T301 881Q345 912 408 936T524 960Q622 960 688 922T793 822T849 691T866 557ZM826 1092Q814 1073 807 1064T783 1047L509
1315L238 1047Q222 1055 215 1064T193 1092L457 1471H564L826 1092Z" />
<glyph unicode="&#xeb;" glyph-name="edieresis" horiz-adv-x="946" d="M866 557Q848 537 818 520T756 490H182L184 580H664Q687 580 694 587T702 616Q702 643 694 683T665 762T602 828T496 855Q416 855 356 808T263 681T230 497Q230 392 265 302T367 156T526
100Q568 100 607 108T698 146T823 236Q836 229 846 216T860 195Q771 98 708 50T590 -14T465 -30Q363 -30 275 27T134 189T80 434Q80 569 138 689T301 881Q345 912 408 936T524 960Q622 960 688 922T793 822T849 691T866 557ZM410 1261Q410 1205 377 1165T294 1124Q210
1124 210 1220Q210 1277 244 1316T325 1356Q410 1356 410 1261ZM810 1261Q810 1205 777 1165T694 1124Q610 1124 610 1220Q610 1277 644 1316T725 1356Q810 1356 810 1261Z" />
<glyph unicode="&#xec;" glyph-name="igrave" horiz-adv-x="555" d="M70 0V43Q210 71 210 104V670Q210 739 205 773T170 820T70 840V880Q133 892 204 913T326 960H360V104Q360 92 393 75T500 43V0H70ZM399 1078Q377 1057 343 1047L-9 1424L13 1465Q26 1469 54
1474T113 1483T159 1489L399 1078Z" />
<glyph unicode="&#xed;" glyph-name="iacute" horiz-adv-x="555" d="M70 0V43Q210 71 210 104V670Q210 739 205 773T170 820T70 840V880Q133 892 204 913T326 960H360V104Q360 92 393 75T500 43V0H70ZM242 1047Q224 1050 210 1058T185 1075L419 1489Q442 1488
492 1481T564 1466L587 1427L242 1047Z" />
<glyph unicode="&#xee;" glyph-name="icircumflex" horiz-adv-x="555" d="M70 0V43Q210 71 210 104V670Q210 739 205 773T170 820T70 840V880Q133 892 204 913T326 960H360V104Q360 92 393 75T500 43V0H70ZM601 1092Q589 1073 582 1064T558 1047L284 1315L13 1047Q-3
1055 -10 1064T-32 1092L232 1471H339L601 1092Z" />
<glyph unicode="&#xef;" glyph-name="idieresis" horiz-adv-x="555" d="M70 0V43Q210 71 210 104V670Q210 739 205 773T170 820T70 840V880Q133 892 204 913T326 960H360V104Q360 92 393 75T500 43V0H70ZM185 1261Q185 1205 152 1165T69 1124Q-15 1124 -15 1220Q-15
1277 19 1316T100 1356Q185 1356 185 1261ZM585 1261Q585 1205 552 1165T469 1124Q385 1124 385 1220Q385 1277 419 1316T500 1356Q585 1356 585 1261Z" />
<glyph unicode="&#xf0;" glyph-name="eth" horiz-adv-x="1020" d="M935 592Q935 418 889 299T772 108T628 3T496 -30Q366 -30 273 32T130 201T80 444Q80 543 115 635T211 801T348 917T506 960Q565 960 632 922T750 829Q722 930 672 1011T550 1165L324 1067Q287
1072 278 1073T233 1085L223 1122L478 1233Q423 1280 359 1309T211 1327L205 1368L406 1440Q519 1365 603 1287L811 1378Q858 1371 868 1368T905 1356L911 1321L673 1218Q812 1069 873 909T935 592ZM785 586Q760 663 709 722T595 816T475 850Q396 850 343 800T262
665T235 473Q235 368 279 279T386 135T506 80Q580 80 643 129T746 283T785 551V586Z" />
<glyph unicode="&#xf1;" glyph-name="ntilde" horiz-adv-x="1130" d="M670 0V43Q810 79 810 104V633Q810 755 782 792T682 830Q621 830 532 767T345 549V104Q345 89 383 73T485 43V0H55V43Q121 60 158 74T195 104V711Q195 763 188 788T152 823T55 840V880Q123
891 181 911T295 960L330 925L341 676Q400 765 472 828T616 926T739 960Q825 960 892 907T960 741V104Q960 91 990 77T1100 43V0H670ZM918 1346Q895 1292 859 1240T776 1155T678 1121Q632 1121 591 1149T510 1206T432 1234Q392 1234 359 1202T289 1113L236 1133Q260
1188 296 1239T377 1325T475 1359Q526 1359 569 1331T649 1275T719 1246Q757 1246 793 1278T864 1369L918 1346Z" />
<glyph unicode="&#xf2;" glyph-name="ograve" horiz-adv-x="1030" d="M950 485Q950 385 914 293T814 128T669 13T496 -30Q370 -30 277 32T132 201T80 444Q80 543 115 635T213 801T358 917T535 960Q661 960 754 898T898 729T950 485ZM795 455Q795 561 752 650T642
795T506 850Q405 850 346 800T261 665T235 473Q235 368 281 279T395 135T524 80Q666 80 730 182T795 455ZM649 1078Q627 1057 593 1047L241 1424L263 1465Q276 1469 304 1474T363 1483T409 1489L649 1078Z" />
<glyph unicode="&#xf3;" glyph-name="oacute" horiz-adv-x="1030" d="M950 485Q950 385 914 293T814 128T669 13T496 -30Q370 -30 277 32T132 201T80 444Q80 543 115 635T213 801T358 917T535 960Q661 960 754 898T898 729T950 485ZM795 455Q795 561 752 650T642
795T506 850Q405 850 346 800T261 665T235 473Q235 368 281 279T395 135T524 80Q666 80 730 182T795 455ZM492 1047Q474 1050 460 1058T435 1075L669 1489Q692 1488 742 1481T814 1466L837 1427L492 1047Z" />
<glyph unicode="&#xf4;" glyph-name="ocircumflex" horiz-adv-x="1030" d="M950 485Q950 385 914 293T814 128T669 13T496 -30Q370 -30 277 32T132 201T80 444Q80 543 115 635T213 801T358 917T535 960Q661 960 754 898T898 729T950 485ZM795 455Q795 561 752
650T642 795T506 850Q405 850 346 800T261 665T235 473Q235 368 281 279T395 135T524 80Q666 80 730 182T795 455ZM851 1092Q839 1073 832 1064T808 1047L534 1315L263 1047Q247 1055 240 1064T218 1092L482 1471H589L851 1092Z" />
<glyph unicode="&#xf5;" glyph-name="otilde" horiz-adv-x="1030" d="M950 485Q950 385 914 293T814 128T669 13T496 -30Q370 -30 277 32T132 201T80 444Q80 543 115 635T213 801T358 917T535 960Q661 960 754 898T898 729T950 485ZM795 455Q795 561 752 650T642
795T506 850Q405 850 346 800T261 665T235 473Q235 368 281 279T395 135T524 80Q666 80 730 182T795 455ZM876 1346Q853 1292 817 1240T734 1155T636 1121Q590 1121 549 1149T468 1206T390 1234Q350 1234 317 1202T247 1113L194 1133Q218 1188 254 1239T335 1325T433
1359Q484 1359 527 1331T607 1275T677 1246Q715 1246 751 1278T822 1369L876 1346Z" />
<glyph unicode="&#xf6;" glyph-name="odieresis" horiz-adv-x="1030" d="M950 485Q950 385 914 293T814 128T669 13T496 -30Q370 -30 277 32T132 201T80 444Q80 543 115 635T213 801T358 917T535 960Q661 960 754 898T898 729T950 485ZM795 455Q795 561 752 650T642
795T506 850Q405 850 346 800T261 665T235 473Q235 368 281 279T395 135T524 80Q666 80 730 182T795 455ZM435 1261Q435 1205 402 1165T319 1124Q235 1124 235 1220Q235 1277 269 1316T350 1356Q435 1356 435 1261ZM835 1261Q835 1205 802 1165T719 1124Q635 1124
635 1220Q635 1277 669 1316T750 1356Q835 1356 835 1261Z" />
<glyph unicode="&#xf7;" glyph-name="divide" horiz-adv-x="840" d="M778 593Q774 573 765 549T748 507H86L61 531Q72 574 92 617H754L778 593ZM499 820Q499 776 473 744T407 711Q340 711 340 788Q340 833 367 864T432 896Q499 896 499 820ZM499 340Q499 296 473
264T407 231Q340 231 340 308Q340 353 367 384T432 416Q499 416 499 340Z" />
<glyph unicode="&#xf8;" glyph-name="oslash" horiz-adv-x="1030" d="M950 485Q950 385 914 293T814 128T669 13T496 -30Q360 -30 261 43L242 18Q223 3 183 -21T117 -53L88 -20L188 112Q80 243 80 444Q80 543 115 635T213 801T358 917T535 960Q670 960 772 885L793
913Q820 930 853 953T915 983L946 950L844 815Q950 686 950 485ZM294 253L678 761Q640 802 595 826T506 850Q405 850 345 800T259 665T233 473Q233 413 249 357T294 253ZM524 80Q666 80 731 182T797 455Q797 516 782 572T739 676L357 170Q396 128 440 104T524 80Z"
/>
<glyph unicode="&#xf9;" glyph-name="ugrave" horiz-adv-x="1085" d="M1069 82Q996 34 936 2T850 -30Q815 -30 793 16T765 166Q682 83 618 41T502 -15T408 -30Q346 -30 292 -5T204 87T170 279V711Q170 775 164 802T130 839T41 854V894Q113 903 169 918T292 960L320
921V334Q320 194 360 142T473 90Q538 90 607 129T765 262V711Q765 771 756 800T717 840T625 854V894Q697 903 763 922T885 960L915 921V254Q915 193 920 154T938 104Q949 96 978 100T1059 127L1069 82ZM659 1078Q637 1057 603 1047L251 1424L273 1465Q286 1469
314 1474T373 1483T419 1489L659 1078Z" />
<glyph unicode="&#xfa;" glyph-name="uacute" horiz-adv-x="1085" d="M1069 82Q996 34 936 2T850 -30Q815 -30 793 16T765 166Q682 83 618 41T502 -15T408 -30Q346 -30 292 -5T204 87T170 279V711Q170 775 164 802T130 839T41 854V894Q113 903 169 918T292 960L320
921V334Q320 194 360 142T473 90Q538 90 607 129T765 262V711Q765 771 756 800T717 840T625 854V894Q697 903 763 922T885 960L915 921V254Q915 193 920 154T938 104Q949 96 978 100T1059 127L1069 82ZM502 1047Q484 1050 470 1058T445 1075L679 1489Q702 1488
752 1481T824 1466L847 1427L502 1047Z" />
<glyph unicode="&#xfb;" glyph-name="ucircumflex" horiz-adv-x="1085" d="M1069 82Q996 34 936 2T850 -30Q815 -30 793 16T765 166Q682 83 618 41T502 -15T408 -30Q346 -30 292 -5T204 87T170 279V711Q170 775 164 802T130 839T41 854V894Q113 903 169 918T292
960L320 921V334Q320 194 360 142T473 90Q538 90 607 129T765 262V711Q765 771 756 800T717 840T625 854V894Q697 903 763 922T885 960L915 921V254Q915 193 920 154T938 104Q949 96 978 100T1059 127L1069 82ZM861 1092Q849 1073 842 1064T818 1047L544 1315L273
1047Q257 1055 250 1064T228 1092L492 1471H599L861 1092Z" />
<glyph unicode="&#xfc;" glyph-name="udieresis" horiz-adv-x="1085" d="M1069 82Q996 34 936 2T850 -30Q815 -30 793 16T765 166Q682 83 618 41T502 -15T408 -30Q346 -30 292 -5T204 87T170 279V711Q170 775 164 802T130 839T41 854V894Q113 903 169 918T292
960L320 921V334Q320 194 360 142T473 90Q538 90 607 129T765 262V711Q765 771 756 800T717 840T625 854V894Q697 903 763 922T885 960L915 921V254Q915 193 920 154T938 104Q949 96 978 100T1059 127L1069 82ZM445 1261Q445 1205 412 1165T329 1124Q245 1124 245
1220Q245 1277 279 1316T360 1356Q445 1356 445 1261ZM845 1261Q845 1205 812 1165T729 1124Q645 1124 645 1220Q645 1277 679 1316T760 1356Q845 1356 845 1261Z" />
<glyph unicode="&#xfd;" glyph-name="yacute" horiz-adv-x="1010" d="M989 887Q929 873 910 861T879 820L545 -82Q490 -230 418 -322T270 -457T127 -500Q51 -500 2 -483T-47 -447Q-47 -439 -27 -412T21 -355T70 -312Q117 -340 165 -341T250 -330Q287 -317 340
-248T430 -92L459 -23L131 819Q121 847 96 861T20 887V930H406V887Q329 877 305 865T293 819L539 182L770 819Q781 851 755 863T655 887V930H989V887ZM487 1047Q469 1050 455 1058T430 1075L664 1489Q687 1488 737 1481T809 1466L832 1427L487 1047Z" />
<glyph unicode="&#xfe;" glyph-name="thorn" horiz-adv-x="1085" d="M1005 492Q1005 405 972 314T879 144T742 18T573 -30Q541 -30 479 -7T345 74V-375Q345 -391 383 -407T515 -437V-480H55V-437Q121 -421 158 -407T195 -375V1296Q195 1357 184 1382T142 1416T55
1430V1470Q126 1484 187 1501T308 1550L345 1516V733Q448 855 540 907T690 960Q827 960 916 836T1005 492ZM870 408Q870 540 835 635T744 783T623 835Q587 835 510 787T345 610V213Q422 153 492 122T631 90Q707 90 760 136T841 255T870 408Z" />
<glyph unicode="&#xff;" glyph-name="ydieresis" horiz-adv-x="1010" d="M989 887Q929 873 910 861T879 820L545 -82Q490 -230 418 -322T270 -457T127 -500Q51 -500 2 -483T-47 -447Q-47 -439 -27 -412T21 -355T70 -312Q117 -340 165 -341T250 -330Q287 -317 340
-248T430 -92L459 -23L131 819Q121 847 96 861T20 887V930H406V887Q329 877 305 865T293 819L539 182L770 819Q781 851 755 863T655 887V930H989V887ZM430 1261Q430 1205 397 1165T314 1124Q230 1124 230 1220Q230 1277 264 1316T345 1356Q430 1356 430 1261ZM830
1261Q830 1205 797 1165T714 1124Q630 1124 630 1220Q630 1277 664 1316T745 1356Q830 1356 830 1261Z" />
<glyph unicode="&#x2013;" glyph-name="endash" horiz-adv-x="961" d="M900 546Q896 524 888 498T871 455H86L61 479Q73 529 92 570H877L900 546Z" />
<glyph unicode="&#x2014;" glyph-name="emdash" horiz-adv-x="1569" d="M1508 546Q1504 524 1495 498T1478 455H86L61 479Q73 529 92 570H1484L1508 546Z" />
<glyph unicode="&#x2018;" glyph-name="quoteleft" horiz-adv-x="469" d="M383 1051Q371 1035 327 1013T234 975T162 961Q128 990 110 1025T92 1118Q92 1170 116 1231T185 1351T295 1450L338 1415Q295 1371 275 1311T254 1208Q254 1164 281 1131T367 1096L383 1051Z" />
<glyph unicode="&#x2019;" glyph-name="quoteright" horiz-adv-x="469" d="M377 1296Q377 1244 353 1182T285 1062T176 963L131 997Q174 1042 194 1103T215 1204Q215 1249 188 1282T104 1319L88 1364Q100 1380 144 1401T237 1439T309 1454Q341 1423 359 1388T377 1296Z" />
<glyph unicode="&#x201a;" glyph-name="quotesinglbase" horiz-adv-x="469" d="M377 61Q377 -17 324 -113T176 -272L131 -238Q174 -193 194 -132T215 -31Q215 14 188 47T104 84L88 129Q100 145 144 166T237 204T309 219Q341 188 359 153T377 61Z" />
<glyph unicode="&#x201c;" glyph-name="quotedblleft" horiz-adv-x="893" d="M805 1051Q793 1035 749 1013T656 975T584 961Q552 990 533 1025T514 1118Q514 1170 538 1231T607 1351T717 1450L760 1415Q717 1371 697 1311T676 1208Q676 1164 703 1131T788 1096L805
1051ZM383 1051Q371 1035 327 1013T234 975T162 961Q128 990 110 1025T92 1118Q92 1170 116 1231T185 1351T295 1450L338 1415Q295 1371 275 1311T254 1208Q254 1164 281 1131T367 1096L383 1051Z" />
<glyph unicode="&#x201d;" glyph-name="quotedblright" horiz-adv-x="893" d="M799 1296Q799 1244 775 1182T707 1062T598 963L555 997Q596 1042 617 1103T639 1204Q639 1249 611 1282T526 1319L510 1364Q521 1380 565 1401T659 1439T731 1454Q763 1423 781 1388T799
1296ZM377 1296Q377 1244 353 1182T285 1062T176 963L131 997Q174 1042 194 1103T215 1204Q215 1249 188 1282T104 1319L88 1364Q100 1380 144 1401T237 1439T309 1454Q341 1423 359 1388T377 1296Z" />
<glyph unicode="&#x201e;" glyph-name="quotedblbase" horiz-adv-x="920" d="M799 61Q799 -17 746 -113T598 -272L555 -238Q596 -193 617 -132T639 -31Q639 14 611 47T526 84L510 129Q521 145 565 166T659 204T731 219Q763 188 781 153T799 61ZM377 61Q377 -17
324 -113T176 -272L131 -238Q174 -193 194 -132T215 -31Q215 14 188 47T104 84L88 129Q100 145 144 166T237 204T309 219Q341 188 359 153T377 61Z" />
<glyph unicode="&#x2022;" glyph-name="bullet" horiz-adv-x="569" d="M498 662Q498 541 432 465T260 389Q165 389 118 452T70 612Q70 732 139 808T309 885Q400 885 449 823T498 662Z" />
<glyph unicode="&#x2039;" glyph-name="guilsinglleft" horiz-adv-x="624" d="M441 17L80 430Q80 430 80 447T80 483T82 503L441 913L483 883Q483 883 460 841T402 737T333 612T275 508T253 467L484 47L441 17Z" />
<glyph unicode="&#x203a;" glyph-name="guilsinglright" horiz-adv-x="624" d="M544 430L183 17L140 47L371 467L141 883L183 913L542 503L544 430Z" />
</font>
</defs>
</svg>
