<?xml version="1.0" standalone="no"?>
<!DOCTYPE svg PUBLIC "-//W3C//DTD SVG 1.1//EN" "http://www.w3.org/Graphics/SVG/1.1/DTD/svg11.dtd">
<svg xmlns="http://www.w3.org/2000/svg">
<defs >
<font id="Kameron" horiz-adv-x="1097" ><font-face
    font-family="Kameron"
    units-per-em="2048"
    panose-1="0 0 0 0 0 0 0 0 0 0"
    ascent="1823"
    descent="-608"
    alphabetic="0" />
<glyph unicode=" " horiz-adv-x="397" />
<glyph unicode="!" horiz-adv-x="596" d="M257 371Q256 378 252 435T242 580T230 765T219 949T211 1095T207 1160Q207 1162 207 1193T207 1256T208 1290H379Q380 1288 380 1257T380 1194T380 1159Q380 1152 377 1095T368 950T356 765T344 581T334 436T328 371H257ZM288
-9Q230 -9 205 18T180 82Q180 117 205 144T288 172Q344 172 369 145T395 82Q395 46 371 19T288 -9Z" />
<glyph unicode="&quot;" horiz-adv-x="628" d="M430 880Q421 950 409 1022T387 1166T377 1303Q377 1351 404 1376T464 1401Q494 1401 518 1378T543 1307Q543 1244 536 1177T517 1037T491 880H430ZM173 880Q164 950 152 1022T130 1166T120 1303Q120 1351 147 1376T207
1401Q237 1401 261 1378T286 1307Q286 1244 279 1177T260 1037T234 880H173Z" />
<glyph unicode="#" horiz-adv-x="1471" d="M245 2L372 426H128L150 544H403L491 864H187L210 980H526L650 1407H780L654 980H983L1109 1407H1236L1112 980H1344L1323 864H1077L990 544H1284L1261 426H956L829 2H700L826 426H499L373 2H245ZM532 544H862L950 864H620L532
544Z" />
<glyph unicode="$" horiz-adv-x="1110" d="M514 -184V-11Q252 0 114 109Q114 120 114 155T114 230T114 301T114 331H231Q239 205 303 147T514 81V604Q330 648 234 737T138 954Q138 1093 238 1178T516 1276V1408H609V1278Q708 1269 796 1242T963 1166V957H848Q848
1066 794 1120T609 1184V720Q758 684 847 632T976 509T1016 348Q1016 248 968 171T829 46T608 -11V-184H514ZM608 82Q728 93 798 157T869 330Q869 419 807 483T608 578Q608 454 608 330T608 82ZM516 746V1186Q407 1176 346 1120T284 973Q284 890 340 836T516 746Z"
/>
<glyph unicode="%" horiz-adv-x="1715" d="M353 -14L1253 1304H1362L462 -14H353ZM377 610Q235 610 157 702T79 963Q79 1130 158 1222T382 1315Q525 1315 602 1223T679 964Q679 793 601 702T377 610ZM380 682Q463 682 507 752T552 961Q552 1104 509 1173T377 1243Q293
1243 252 1172T210 960Q210 823 253 753T380 682ZM1332 -20Q1190 -20 1113 71T1035 332Q1035 500 1114 592T1339 685Q1482 685 1558 593T1635 327Q1635 163 1556 72T1332 -20ZM1335 53Q1420 53 1464 122T1508 329Q1508 473 1465 543T1333 613Q1164 613 1164 329Q1164
193 1207 123T1335 53Z" />
<glyph unicode="&amp;" horiz-adv-x="1540" d="M1284 -23Q1206 -23 1160 4T1091 83Q984 31 871 6T649 -20Q475 -20 355 45T173 214T111 435Q111 554 177 670T379 868Q346 918 331 967T315 1062Q315 1190 403 1280T675 1370Q768 1370 834 1352T958 1305L971 1095L880
1085Q875 1168 821 1226T673 1284Q579 1284 531 1252T467 1165T450 1045Q450 1010 459 972T488 895H1078L1097 1053L1226 1126V895H1466V806H1228V305Q1228 204 1239 144T1320 84Q1349 84 1372 108T1396 192L1488 201Q1488 84 1428 31T1284 -23ZM670 91Q759 91
858 115T1064 191Q1062 215 1061 244T1060 302V806H479Q374 739 322 640T270 442Q270 351 315 271T449 141T670 91Z" />
<glyph unicode="&apos;" horiz-adv-x="405" d="M173 880Q164 950 152 1022T130 1166T120 1303Q120 1351 147 1376T207 1401Q237 1401 261 1378T286 1307Q286 1244 279 1177T260 1037T234 880H173Z" />
<glyph unicode="(" horiz-adv-x="700" d="M561 -338Q410 -242 321 -109T194 175T155 473Q155 633 194 788T323 1077T563 1302L640 1247Q480 1109 403 921T326 483Q326 233 401 47T638 -284L561 -338Z" />
<glyph unicode=")" horiz-adv-x="700" d="M135 -338L57 -284Q221 -142 297 47T374 490Q374 738 298 925T57 1257Q80 1268 102 1279T148 1302Q292 1202 379 1071T505 792T545 493Q545 337 507 183T379 -106T135 -338Z" />
<glyph unicode="*" horiz-adv-x="946" d="M407 415V551Q425 589 434 632T447 740Q403 707 371 674T315 597L206 514L126 628L244 699Q285 707 328 725T426 778Q371 813 328 830T244 855L126 927L206 1041L315 958Q339 915 371 882T447 818Q444 880 434 923T407
1005L400 1140H542L534 1006Q512 962 503 919T491 822Q543 860 574 892T626 958L736 1041L816 927L698 855Q645 849 600 830T505 778Q554 747 599 727T699 699L816 628L736 514L626 597Q605 632 575 664T491 735Q493 683 502 639T534 550L542 415H407Z" />
<glyph unicode="+" horiz-adv-x="1540" d="M710 58V560H200V680H710V1181H833V680H1341V560H833V58H710Z" />
<glyph unicode="," horiz-adv-x="560" d="M205 -242L147 -188Q171 -171 184 -144T206 -80T219 4L152 9L175 190H401L361 -1Q343 -87 305 -151T205 -242Z" />
<glyph unicode="-" horiz-adv-x="704" d="M64 419V560H640V419H64Z" />
<glyph unicode="." horiz-adv-x="543" d="M271 -9Q213 -9 190 23T167 92Q167 127 190 159T271 192Q328 192 352 160T376 92Q376 56 353 24T271 -9Z" />
<glyph unicode="/" horiz-adv-x="559" d="M-38 -105L459 1304H583L86 -105H-38Z" />
<glyph unicode="0" horiz-adv-x="1142" d="M571 -23Q339 -23 218 146T96 646Q96 974 217 1144T571 1315Q803 1315 924 1146T1045 646Q1045 424 991 276T830 52T571 -23ZM571 82Q731 82 804 227T878 647Q878 933 802 1073T571 1214Q417 1214 341 1074T264 649Q264
371 336 227T571 82Z" />
<glyph unicode="1" horiz-adv-x="1142" d="M301 0V98H402Q482 98 496 115T510 157V1151Q450 1121 390 1100T270 1066V1190Q347 1204 421 1230T570 1293L672 1258V154Q672 132 677 120T711 103T804 98H870V0Q806 0 744 0T592 2Q490 2 431 1T301 0Z" />
<glyph unicode="2" horiz-adv-x="1142" d="M130 0Q129 10 129 21T129 43Q129 178 168 275T276 447T435 586T628 718Q691 760 732 799T793 883T814 987Q814 1091 742 1152T554 1214Q392 1214 333 1144T273 947L159 950V1195Q233 1254 333 1284T582 1314Q770 1314
873 1224T977 970Q977 870 935 804T806 675T589 526Q469 446 403 375T310 239T284 115H804Q837 115 851 134T868 210T872 381H977V0H130Z" />
<glyph unicode="3" horiz-adv-x="1142" d="M531 -23Q438 -23 362 3T231 82T146 210T115 386H237Q237 235 315 162T544 88Q617 88 683 116T792 205T834 357Q834 461 784 520T651 604T471 629V737Q614 740 701 802T788 987Q788 1090 717 1153T528 1216Q390 1216
334 1149T276 956H160V1208Q235 1262 330 1288T534 1315Q728 1315 837 1227T947 984Q947 872 886 798T701 692Q831 667 915 587T999 355Q999 180 874 79T531 -23Z" />
<glyph unicode="4" horiz-adv-x="1142" d="M490 0V92H555Q639 92 659 102T680 142V383H116Q112 419 106 451T90 513L647 1297H828V488H1045V383H828V156Q828 121 841 107T932 92H985V0Q952 0 910 0T820 1T717 2Q638 2 591 1T490 0ZM203 486H681V1170L203 486Z" />
<glyph unicode="5" horiz-adv-x="1142" d="M526 -23Q438 -23 356 -1T202 62L181 319H284Q294 201 357 140T554 78Q685 78 767 163T850 409Q850 554 772 638T559 722Q468 722 400 687T281 580L203 606V1290H951V1055H848V1095Q848 1154 845 1163T824 1173H338L318
737Q437 832 597 832Q724 832 818 781T964 635T1016 414Q1016 265 950 168T773 24T526 -23Z" />
<glyph unicode="6" horiz-adv-x="1142" d="M590 -22Q440 -22 337 45T180 253T127 609Q127 811 174 970T331 1222T626 1315Q762 1315 852 1282T1003 1205V1009H904Q902 1115 838 1166T627 1218Q445 1218 368 1079T290 680Q356 758 443 797T630 837Q755 837 847
785T991 639T1042 422Q1042 288 987 188T830 33T590 -22ZM594 79Q723 79 800 165T878 407Q878 547 808 638T596 730Q522 730 453 696T330 599Q296 528 296 435Q296 269 377 174T594 79Z" />
<glyph unicode="7" horiz-adv-x="1142" d="M358 1Q383 180 445 382T613 787T869 1174H431Q351 1174 316 1170T274 1154T266 1120V956H156V1290H1011V1153Q870 964 772 767T614 376T532 1H358Z" />
<glyph unicode="8" horiz-adv-x="1142" d="M566 -23Q346 -23 222 76T97 344Q97 471 174 557T398 682Q275 714 208 794T141 984Q141 1139 256 1227T568 1315Q769 1315 885 1227T1002 987Q1002 758 737 685Q890 648 967 561T1044 346Q1044 234 988 151T826 23T566
-23ZM574 82Q666 82 738 113T852 203T894 346Q894 444 817 523T568 632Q254 581 254 349Q254 228 337 155T574 82ZM574 738Q708 764 778 828T848 991Q848 1072 808 1121T706 1192T574 1215Q448 1215 371 1157T293 995Q293 895 365 829T574 738Z" />
<glyph unicode="9" horiz-adv-x="1142" d="M531 -23Q410 -23 319 9T172 103V281H289Q295 172 345 124T521 75Q709 75 784 213T859 611Q797 535 709 496T518 456Q393 456 301 508T158 653T107 871Q107 1008 162 1108T318 1262T556 1316Q706 1316 809 1248T965 1040T1018
681Q1018 481 972 322T818 70T531 -23ZM548 563Q658 563 739 628T853 814Q853 885 843 939Q820 1068 747 1140T553 1213Q423 1213 346 1126T269 879Q269 746 339 655T548 563Z" />
<glyph unicode=":" horiz-adv-x="571" d="M284 692Q226 692 202 723T177 792Q177 828 202 860T284 892Q341 892 366 860T391 792Q391 756 367 724T284 692ZM284 -9Q226 -9 202 23T177 92Q177 127 202 159T284 192Q341 192 366 160T391 92Q391 56 367 24T284 -9Z" />
<glyph unicode=";" horiz-adv-x="571" d="M202 -242L144 -188Q169 -171 182 -144T203 -80T217 4L149 9L172 190H398L358 -1Q340 -87 302 -151T202 -242ZM286 692Q228 692 203 723T178 792Q178 828 203 860T286 892Q342 892 367 860T393 792Q393 756 369 724T286 692Z" />
<glyph unicode="&lt;" horiz-adv-x="1540" d="M1336 107L205 567V674L1336 1134V1002L381 619L1336 239V107Z" />
<glyph unicode="=" horiz-adv-x="1540" d="M200 769V890H1341V769H200ZM200 352V473H1341V352H200Z" />
<glyph unicode="&gt;" horiz-adv-x="1540" d="M205 0V132L1161 512L205 895V1027L1336 567V460L205 0Z" />
<glyph unicode="?" horiz-adv-x="980" d="M379 364Q378 367 377 391T374 440T373 467Q373 555 409 608T500 699T609 771T699 855T736 984Q736 1088 662 1151T467 1215Q331 1215 269 1149T205 948H89L94 1200Q170 1255 266 1285T471 1315Q606 1315 703 1277T852
1170T904 1005Q904 908 870 847T783 745T674 666T571 582T504 460L492 364H379ZM440 -9Q382 -9 358 18T333 82Q333 117 358 144T440 172Q497 172 522 145T548 82Q548 46 523 19T440 -9Z" />
<glyph unicode="@" horiz-adv-x="1809" d="M956 -305Q755 -305 592 -245T312 -76T131 183T68 511Q68 685 131 842T314 1122T602 1315T980 1386Q1165 1386 1305 1331T1539 1180T1681 960T1729 697Q1729 562 1686 446T1570 244T1410 109T1233 60Q1148 60 1106 104T1072
249Q1071 249 1071 249T1069 250Q1002 155 923 108T753 61Q662 61 592 108T483 238T443 430Q443 518 476 616T572 800T727 940T933 994Q1028 994 1092 951T1192 812L1234 978H1372L1219 351Q1212 315 1203 276T1193 211Q1193 131 1263 131Q1335 131 1423 196Q1527
273 1592 403T1657 709Q1657 827 1616 936T1491 1131T1283 1267T990 1317Q808 1317 658 1256T400 1083T233 823T174 496Q174 277 274 113T552 -144T962 -236Q1138 -236 1297 -179T1592 9L1666 -10Q1537 -146 1356 -225T956 -305ZM783 137Q860 137 926 192T1040
335T1116 518T1143 697Q1143 797 1087 863T942 929Q861 929 796 873T683 730T611 551T586 387Q586 270 639 204T783 137Z" />
<glyph unicode="A" horiz-adv-x="1383" d="M-11 0V99Q56 100 86 103T129 121T155 171Q157 175 178 230T233 374T307 568T387 777T461 970T516 1114T539 1174L579 1290H810Q810 1290 831 1233T888 1083T967 877T1053 651T1133 443T1192 288T1216 225Q1234 178 1246
152T1274 115T1320 101T1404 98V0Q1349 0 1294 1T1179 2Q1115 2 1055 2T906 0V96Q929 96 947 96T980 97Q1025 98 1040 103T1056 123Q1056 128 1054 136T1049 155L943 473H420Q419 471 408 439T381 361T349 269T321 191T310 158Q300 133 300 122Q300 103 320 99T389
95Q404 95 422 95T461 95V0Q406 0 350 1T237 2Q176 2 123 2T-11 0ZM458 574H906L682 1196L458 574Z" />
<glyph unicode="B" horiz-adv-x="1238" d="M58 0V99H121Q176 99 198 108T225 135T230 173V1124Q230 1147 224 1160T196 1181T124 1190Q110 1191 94 1191T58 1191V1290H578Q769 1290 880 1253T1038 1143T1086 965Q1086 858 1029 786T856 677Q998 646 1070 565T1143
355Q1143 258 1099 177T947 48T654 0H58ZM412 109H624Q795 109 876 175T957 356Q957 494 863 556T553 619H412V109ZM412 718H614Q757 718 832 782T907 954Q907 1050 839 1116T602 1182H412V718Z" />
<glyph unicode="C" horiz-adv-x="1413" d="M797 -24Q582 -24 430 59T197 292T116 643Q116 847 199 997T431 1231T777 1314Q890 1314 989 1274T1164 1145L1185 1289H1300V896H1184Q1171 1035 1067 1118T792 1201Q646 1201 538 1134T371 942T312 647Q312 475 371
350T538 158T792 91Q998 91 1104 163T1212 431L1328 411L1318 152Q1197 49 1067 13T797 -24Z" />
<glyph unicode="D" horiz-adv-x="1477" d="M50 0V99H115Q198 99 212 122T227 192Q227 193 227 243T227 374T227 553T227 748T226 927T226 1058T226 1108Q226 1159 203 1174T105 1191Q93 1192 80 1192T50 1192V1290H566Q966 1290 1168 1135T1370 659Q1370 438 1287
292T1028 73T577 0H50ZM409 111H614Q884 111 1029 238T1175 655Q1175 923 1031 1052T615 1181H409V111Z" />
<glyph unicode="E" horiz-adv-x="1219" d="M47 0V99H162Q209 99 217 125T226 181V1096Q226 1143 220 1167T162 1191H55V1288H1125V962H1012V1010Q1012 1093 1004 1127T980 1168T940 1175H409V713H754Q767 713 775 717T789 743T798 821H878V499H798Q792 581 781
595T748 610H409V112H949Q990 112 1002 146T1016 288Q1016 302 1016 317T1016 348H1128V0H47Z" />
<glyph unicode="F" horiz-adv-x="1106" d="M46 0V99H163Q208 99 217 119T226 179V1101Q226 1152 219 1171T163 1191H52V1290H1094V960H983V1001Q983 1089 976 1125T951 1168T903 1176H409V714H696Q721 714 738 714T765 732T776 798H847V527H776Q775 589 756 600T698
611H409V166Q409 116 438 108T539 99H593V0Q531 0 472 0T325 2Q234 2 174 1T46 0Z" />
<glyph unicode="G" horiz-adv-x="1509" d="M811 -24Q637 -24 505 23T284 158T149 369T104 645Q104 843 189 994T421 1230T758 1315Q877 1315 989 1274T1164 1141L1194 1290H1299V895H1181Q1164 1030 1063 1115T795 1200Q565 1200 433 1052T301 648Q301 389 434
241T806 93Q991 93 1086 148T1182 315V442Q1182 469 1175 479T1142 492T1054 494H928V604Q993 604 1064 603T1243 602Q1282 602 1344 603T1449 604Q1449 601 1448 576T1446 525T1444 496Q1385 495 1359 491T1326 475T1320 443Q1320 340 1320 281T1316 195T1304
160Q1195 48 1063 12T811 -24Z" />
<glyph unicode="H" horiz-adv-x="1489" d="M60 0V99H107Q168 99 193 109T223 137T228 177V1129Q228 1152 223 1165T192 1185T107 1191H60V1290Q125 1290 206 1289T359 1288Q365 1288 407 1288T500 1289T580 1290V1191H532Q471 1191 446 1184T415 1162T410 1118V725H1079V1126Q1079
1175 1054 1183T956 1191H908V1290Q981 1289 1052 1289T1187 1288Q1192 1288 1238 1288T1341 1289T1429 1290V1191H1382Q1322 1191 1297 1185T1267 1164T1261 1126V183Q1261 155 1262 137T1288 109T1382 99H1429V0Q1362 0 1299 1T1146 2Q1070 2 1016 1T908 0V99H956Q1017
99 1042 108T1073 136T1079 179V618H410V173Q410 115 434 107T532 99H580V0Q525 0 473 1T342 2Q252 2 189 1T60 0Z" />
<glyph unicode="I" horiz-adv-x="656" d="M68 0V99H116Q177 99 202 108T233 133T238 169V1114Q238 1144 233 1160T202 1184T116 1191H68V1290Q115 1289 150 1288T220 1287Q338 1287 408 1287T519 1289T591 1290V1191H542Q482 1191 457 1182T426 1158T420 1121V162Q420
137 425 124T455 105T542 99H591V0Q529 0 473 1T328 2Q248 2 188 1T68 0Z" />
<glyph unicode="J" horiz-adv-x="763" d="M178 -227Q122 -227 73 -220T-20 -200V42Q-18 42 6 39T54 34T80 31Q91 -48 116 -77T194 -106Q272 -98 307 -53T352 67T361 240Q361 250 361 273T361 347T361 493T361 738T361 1110Q361 1148 349 1169T263 1191H161V1290H198Q252
1290 313 1289T479 1287Q484 1287 529 1287T631 1289T724 1290V1191H640Q569 1191 557 1167T544 1111Q544 1111 544 1051T544 895T544 694T544 493T544 338T544 278Q544 100 518 -11T413 -175T178 -227Z" />
<glyph unicode="K" horiz-adv-x="1294" d="M13 0V99H62Q122 99 147 108T178 132T183 167V1116Q183 1157 167 1174T62 1191H13V1290Q80 1288 142 1288T268 1287Q274 1287 312 1287T400 1288T490 1289T538 1290V1191H486Q426 1191 401 1181T371 1155T365 1119Q365
1118 365 1074T365 966T365 838T365 731T365 687L864 1133Q900 1166 900 1177Q900 1188 880 1189T827 1191H776V1290Q802 1289 833 1289T899 1289T965 1289T1026 1290H1248V1191Q1224 1191 1206 1191T1172 1192Q1139 1192 1116 1185T1061 1155T972 1082L547 706L1072
155Q1107 118 1134 109T1219 99Q1231 99 1245 99T1275 99V0Q1249 0 1219 0T1154 1T1084 1T1010 2Q976 2 940 2T870 1T805 1T750 0V99H858Q908 99 908 108Q908 117 876 152L431 623L365 568V164Q365 140 370 126T400 105T486 99H536V0Q510 0 480 0T417 1T348 1T274
2Q240 2 205 2T135 1T69 1T13 0Z" />
<glyph unicode="L" horiz-adv-x="1133" d="M60 0V99H111Q174 99 200 111T231 145T236 192V1095Q236 1103 236 1111T237 1127Q237 1157 217 1174T111 1191H60V1290Q83 1289 107 1289T156 1288T208 1287Q304 1287 399 1287T600 1290V1191H529Q475 1191 452 1179T424
1148T419 1106V114H874Q921 114 929 200T938 440H1053V0H60Z" />
<glyph unicode="M" horiz-adv-x="1766" d="M52 0V99H114Q174 99 196 107T222 135T225 183V1119Q225 1169 201 1180T118 1191H59V1290Q99 1289 142 1289T226 1288T304 1288Q309 1288 335 1288T393 1289T452 1289T486 1290Q486 1290 507 1232T564 1077T642 866T726
636T803 425T860 271T882 212Q884 218 905 277T962 431T1038 638T1121 862T1198 1069T1255 1224T1279 1290Q1286 1290 1317 1290T1388 1289T1459 1288T1496 1287Q1530 1287 1568 1287T1644 1288T1712 1290V1191H1650Q1571 1191 1558 1174T1544 1122Q1544 1122 1544
1071T1544 937T1544 754T1544 555T1544 372T1544 239T1544 188Q1544 124 1565 112T1654 99H1715V0Q1645 0 1580 1T1420 2Q1347 2 1303 1T1208 0V99H1268Q1348 99 1363 124T1378 189V1200Q1378 1200 1365 1164T1333 1081T1301 998T1287 962L925 0H812Q784 74 754
152T694 311T633 475T572 639T512 800T454 953Q442 986 430 1018T406 1080T383 1140T361 1196V181Q361 123 379 111T467 99H527V0Q476 0 430 1T309 2Q229 2 171 1T52 0Z" />
<glyph unicode="N" horiz-adv-x="1441" d="M1040 -10L352 1124Q351 1124 351 1124T350 1124V175Q350 119 375 109T477 99H531V0Q477 0 428 1T303 2Q222 2 162 1T38 0V99H102Q159 99 182 107T209 133T214 181V1109Q214 1169 195 1180T105 1191H43Q43 1200 43 1213T43
1240T44 1268T44 1290Q44 1290 69 1290T128 1290T193 1290T234 1289Q254 1289 279 1289T331 1289T383 1290T430 1290Q430 1290 466 1230T562 1072T693 856T835 621T966 405T1062 247T1098 187V1119Q1097 1171 1072 1181T972 1191H920V1290Q999 1290 1053 1289T1151
1287Q1162 1287 1201 1287T1288 1288T1369 1289T1403 1290V1191H1340Q1261 1191 1248 1174T1234 1121Q1234 1122 1234 1061T1234 899T1234 678T1234 436T1234 214T1234 52T1234 -10H1040Z" />
<glyph unicode="O" horiz-adv-x="1528" d="M772 -24Q566 -24 416 59T186 293T105 646Q105 846 185 996T414 1231T765 1315Q967 1315 1115 1231T1344 997T1425 646Q1425 447 1345 297T1118 61T772 -24ZM764 92Q979 92 1103 241T1227 646Q1227 904 1103 1053T764
1202Q548 1202 425 1052T301 647Q301 391 425 242T764 92Z" />
<glyph unicode="P" horiz-adv-x="1166" d="M55 0V99H107Q169 99 194 108T225 136T231 180V1126Q231 1166 210 1178T110 1191Q98 1191 85 1191T55 1191V1290H644Q808 1290 912 1243T1067 1113T1117 919Q1117 810 1070 727T919 598T646 551H414V176Q414 120 441
110T540 99H591V0Q537 0 488 1T361 2Q269 2 197 1T55 0ZM414 654H605Q937 654 937 916Q937 1046 863 1115T610 1184H414V654Z" />
<glyph unicode="Q" horiz-adv-x="1528" d="M1244 -279Q1145 -271 1066 -240T923 -173T807 -111T710 -84Q649 -84 604 -107T541 -144L493 -83Q508 -70 539 -55T603 -28T658 -14Q482 13 359 100T170 326T105 645Q105 845 185 996T415 1231T767 1315Q968 1315 1115
1231T1344 996T1425 646Q1425 465 1357 323T1163 92T867 -15Q905 -26 949 -49T1048 -98T1170 -146T1320 -177L1286 -281Q1276 -280 1266 -280T1244 -279ZM764 92Q907 92 1010 160T1170 354T1227 648Q1227 905 1103 1053T764 1202Q620 1202 517 1134T357 941T301
649Q301 481 356 356T516 162T764 92Z" />
<glyph unicode="R" horiz-adv-x="1327" d="M1113 -24Q1016 -24 963 28T877 172T810 385Q792 450 762 501T704 593Q674 604 634 609T543 614H411V151Q411 112 437 106T537 99H589V0Q529 0 471 0T330 2Q242 2 177 1T46 0V99H96Q163 99 190 106T223 127T229 163V1127Q229
1155 223 1168T189 1186T98 1191Q86 1191 73 1191T46 1191V1290H597Q707 1290 800 1276T964 1227T1073 1126T1112 958Q1112 839 1038 759T829 649Q888 604 934 541T1009 349Q1040 217 1065 157T1146 96Q1176 96 1203 113T1230 192L1331 201Q1331 98 1274 37T1113
-24ZM411 711H629Q791 711 861 765T931 947Q931 1045 889 1095T765 1164T566 1182H411V711Z" />
<glyph unicode="S" horiz-adv-x="1135" d="M615 -24Q481 -24 383 14T232 117V0Q210 0 186 0T139 0T100 0V408H220Q220 401 220 394T221 379Q229 246 308 167T560 88Q693 88 776 154T859 329Q859 401 821 447T717 524T571 581T406 639Q258 695 183 771T107 975Q107
1070 156 1147T298 1269T517 1314Q616 1314 699 1292T862 1202Q862 1220 862 1252T862 1285Q878 1285 899 1285T942 1285T986 1284V941H869Q868 952 868 962T867 982Q863 1086 778 1147T552 1208Q425 1208 353 1149T281 999Q281 928 321 883T430 807T584 750T760
689Q843 658 906 613T1004 504T1040 349Q1040 244 987 160T839 26T615 -24Z" />
<glyph unicode="T" horiz-adv-x="1272" d="M367 0V99H422Q485 99 511 108T542 134T547 168V1176H330Q255 1176 223 1170T184 1152T176 1121Q176 1091 176 1053T177 975T177 904H72V1290Q72 1290 121 1290T240 1289T375 1288T472 1288H858Q904 1288 967 1288T1092
1289T1200 1290V904H1094V1110Q1094 1138 1087 1152T1045 1171T931 1176H729V157Q729 135 734 123T766 105T853 99H909V0Q851 0 794 0T652 2Q646 2 612 2T531 1T439 1T367 0Z" />
<glyph unicode="U" horiz-adv-x="1351" d="M685 -24Q495 -24 387 33T234 204T189 490V1134Q189 1166 174 1178T74 1191H24V1290Q70 1289 120 1289T223 1288T323 1288Q376 1288 428 1288T539 1290V1191H492Q432 1191 407 1183T376 1160T370 1128V495Q370 356 399
268T499 137T697 94Q833 94 902 140T994 274T1018 487V1123Q1018 1148 1013 1163T981 1184T889 1191H841V1290Q865 1289 891 1289T947 1288T1004 1288Q1044 1288 1079 1288T1171 1289T1327 1290V1191H1276Q1219 1191 1196 1182T1169 1158T1164 1128V493Q1164 231
1056 104T685 -24Z" />
<glyph unicode="V" horiz-adv-x="1342" d="M594 -13L161 1073Q139 1128 123 1152T78 1184T-14 1191V1290Q10 1289 37 1288T92 1287T144 1286Q174 1286 228 1286T340 1288T438 1289T478 1290V1191Q399 1191 360 1186T321 1145Q321 1123 335 1088Q336 1086 355 1035T407
901T478 720T555 523T625 342T677 208T698 155L1039 1085Q1048 1110 1053 1127T1059 1156Q1059 1180 1035 1185T956 1191Q943 1191 927 1191T894 1191V1290Q894 1290 922 1290T991 1289T1069 1288T1124 1287Q1179 1287 1238 1288T1356 1290V1191Q1305 1191 1275
1185T1224 1153T1179 1073T1120 919L772 -13H594Z" />
<glyph unicode="W" horiz-adv-x="1978" d="M506 -13L197 1055Q178 1121 165 1149T122 1184T25 1191Q25 1191 25 1203T25 1232T24 1265T24 1290Q24 1290 56 1290T133 1289T218 1288T277 1287Q320 1287 379 1288T509 1290V1191Q424 1191 388 1183T352 1135Q352 1121
356 1105T366 1065Q389 981 414 890T464 703T515 512T566 325T614 149L900 1275H1088L1394 147L1641 1071Q1647 1094 1651 1111T1656 1142Q1656 1171 1632 1180T1544 1191Q1534 1191 1522 1191T1495 1191V1290Q1568 1290 1628 1289T1730 1288Q1763 1288 1800 1288T1877
1288T1954 1290V1191Q1893 1191 1862 1185T1813 1152T1776 1060Q1775 1056 1759 999T1717 851T1659 649T1597 428T1538 221T1493 62T1471 -13H1291L991 1141L692 -13H506Z" />
<glyph unicode="X" horiz-adv-x="1406" d="M28 0V99Q82 99 117 104T185 134T265 218L594 648L295 1040Q252 1096 226 1127T175 1171T119 1188T33 1191Q33 1216 33 1241T33 1290Q91 1288 139 1287T239 1286T357 1286Q387 1286 421 1287T491 1289T566 1290V1191Q550
1191 537 1191T510 1191Q464 1191 440 1187T416 1165Q416 1152 429 1131T467 1078L703 767Q703 768 730 805T799 898T881 1010T949 1106Q966 1131 976 1146T987 1165Q987 1179 954 1185T832 1191V1290Q844 1290 904 1288T1019 1286Q1108 1286 1182 1287T1339 1290V1194Q1271
1194 1232 1188T1169 1165T1123 1114Q1123 1114 1099 1082T1037 999T957 892T876 785T814 702T790 670L1108 257Q1158 192 1189 158T1261 111T1376 98Q1376 74 1376 49T1376 0Q1312 0 1253 1T1107 2Q1019 2 957 1T827 0Q827 24 827 48T826 98Q906 98 942 106T978
139Q978 155 961 181T918 241L682 552L458 248Q424 202 407 175T389 131Q389 106 428 102T552 98V0Q538 0 486 0T372 1T265 2Q220 2 183 2T109 1T28 0Z" />
<glyph unicode="Y" horiz-adv-x="1259" d="M361 0V99H414Q478 99 504 107T536 129T541 161V550Q538 554 514 592T451 689T372 811T292 934T230 1030T202 1073Q166 1130 145 1155T92 1185T-6 1191Q-6 1216 -6 1241T-7 1290Q13 1289 36 1289T84 1288T128 1287Q213
1287 295 1288T508 1290V1191H470Q405 1191 376 1188T346 1164Q348 1151 360 1128T392 1073Q393 1070 419 1029T482 929T557 809T621 708T648 664L903 1067Q926 1104 939 1127T952 1164Q952 1183 922 1187T822 1191Q815 1191 809 1191T795 1191V1290Q795 1290 827
1290T905 1289T994 1289T1058 1288Q1105 1288 1155 1288T1265 1290V1191Q1205 1191 1177 1188T1133 1168T1090 1113Q1062 1073 1018 1006T923 861T828 715T752 600T719 548V163Q719 123 739 111T848 99H902V0Q840 0 777 0T628 2Q577 2 530 2T440 1T361 0Z" />
<glyph unicode="Z" horiz-adv-x="1147" d="M59 0V134L868 1179H360Q289 1179 255 1176T210 1159T199 1111V946H88V1288H1061V1152L252 110H907Q940 110 954 129T971 203T975 361H1088V0H59Z" />
<glyph unicode="[" horiz-adv-x="695" d="M198 -292V1290H645V1178H364V-179H644V-292H198Z" />
<glyph unicode="\" horiz-adv-x="559" d="M472 -105L-25 1304H99L596 -105H472Z" />
<glyph unicode="]" horiz-adv-x="695" d="M48 -292V-179H330V1178H48V1290H496V-292H48Z" />
<glyph unicode="^" horiz-adv-x="1700" d="M408 826L313 850L795 1403H929L1386 850L1288 826L849 1263L408 826Z" />
<glyph unicode="_" horiz-adv-x="1024" d="M-6 -361V-251H1030V-361H-6Z" />
<glyph unicode="`" horiz-adv-x="853" d="M499 1029Q472 1053 433 1083T353 1145T274 1210T213 1272T187 1324Q187 1335 197 1343T224 1357T261 1362Q288 1362 314 1353T352 1330L582 1029H499Z" />
<glyph unicode="a" horiz-adv-x="1093" d="M406 -21Q263 -21 177 56T91 252Q91 380 193 458T478 536Q540 536 604 527T735 500V648Q735 738 675 786T489 835Q284 835 245 669L153 680L166 856Q230 885 316 903T508 922Q720 922 811 845T903 603V224Q903 155 910
127T937 94T997 89H1042V0Q1026 1 1010 1T978 1T946 0Q892 -1 840 -2T741 -4V133Q681 57 599 18T406 -21ZM457 75Q522 75 586 102T692 184T735 319V417Q675 434 621 443T516 452Q396 452 327 401T257 257Q257 175 313 125T457 75Z" />
<glyph unicode="b" horiz-adv-x="1215" d="M691 -21Q579 -21 494 22T349 152V-4Q312 -3 259 -3T156 -1Q133 0 112 0T73 0T42 0V89Q53 89 63 89T82 90Q136 92 158 100T184 123T189 159V1148Q189 1188 153 1194T41 1202V1293Q67 1293 92 1293T142 1293Q200 1294
255 1295T360 1297V757Q476 922 689 922Q821 922 920 863T1073 698T1128 447Q1128 308 1074 203T922 38T691 -21ZM653 88Q792 88 873 186T955 453Q955 620 874 718T655 817Q513 817 432 719T350 448Q350 278 430 183T653 88Z" />
<glyph unicode="c" horiz-adv-x="1011" d="M542 -28Q403 -28 299 30T138 194T81 441Q81 575 137 681T292 850T521 912Q602 912 674 891T795 811L820 890Q825 890 845 890T886 889T912 888V576H814Q810 696 743 755T559 814Q417 814 338 716T258 448Q258 276 340
176T561 75Q661 75 728 128T823 280L940 260Q909 123 805 48T542 -28Z" />
<glyph unicode="d" horiz-adv-x="1198" d="M514 -21Q383 -21 285 37T133 200T79 445Q79 588 134 695T288 861T517 921Q735 921 847 755V1163Q847 1189 820 1195T729 1202Q719 1202 708 1202T685 1202V1293Q710 1293 734 1293T782 1293Q844 1294 903 1295T1015
1297V128Q1015 105 1037 98T1122 89Q1131 89 1141 89T1162 89V0Q1134 -1 1106 -1T1048 -1Q998 -1 950 -2T856 -4Q856 -2 856 30T856 99T854 152Q798 67 712 23T514 -21ZM552 88Q692 88 772 184T853 446Q853 613 770 715T549 817Q415 817 333 716T250 448Q250 283
332 186T552 88Z" />
<glyph unicode="e" horiz-adv-x="1103" d="M565 -28Q414 -28 306 31T139 196T81 445Q81 589 140 696T306 862T555 922Q699 922 803 864T963 695T1021 429L961 411H253Q255 251 346 160T588 69Q692 69 770 110T885 248H1006Q966 111 849 42T565 -28ZM254 498H859Q847
651 769 738T557 825Q430 825 351 737T254 498Z" />
<glyph unicode="f" horiz-adv-x="693" d="M68 0Q68 0 68 11T68 37T68 68T68 91Q137 91 166 97T202 117T209 159V806H59V895H209V1011Q209 1172 285 1243T504 1315Q564 1315 622 1307T729 1281V1096L649 1088Q639 1151 607 1184T517 1218Q452 1218 423 1189T386
1104T378 965Q378 949 378 932T378 895H595V806H378V157Q378 108 419 100T548 91V0Q548 0 506 0T403 1T285 2Q239 2 189 2T103 1T68 0Z" />
<glyph unicode="g" horiz-adv-x="1207" d="M541 -426Q436 -426 354 -398T189 -324L197 -90Q198 -90 221 -90T266 -90T289 -90Q306 -209 377 -270T566 -332Q693 -332 775 -260T859 -21Q859 -20 859 9T859 76T859 143T859 173Q804 88 716 45T520 1Q389 1 290 57T137
214T82 452Q82 589 138 693T293 857T523 916Q635 916 722 864T871 725V899Q916 897 960 896T1049 894Q1088 894 1117 894T1176 895V805Q1160 805 1146 805T1120 804Q1051 801 1038 785T1025 729V62Q1025 -125 967 -231T800 -382T541 -426ZM560 100Q697 100 780
199T864 459Q864 615 780 711T558 808Q422 808 339 710T256 451Q256 290 338 195T560 100Z" />
<glyph unicode="h" horiz-adv-x="1170" d="M39 0V91Q114 91 146 95T185 111T192 140V1163Q192 1188 165 1195T92 1203Q82 1203 70 1203T45 1203V1293Q63 1293 82 1293T128 1292Q183 1292 240 1293T358 1297Q358 1251 358 1199T359 1091T359 980T359 873T359 773Q431
847 519 883T712 919Q837 919 899 868T981 714T1002 458V151Q1002 105 1032 98T1144 91V0Q1091 0 1040 0T915 2Q843 2 790 1T682 0V91Q770 93 801 102T833 148V532Q833 678 798 744T649 810Q577 810 519 783T421 716T359 642V134Q359 102 390 97T511 91V0Q453 0
399 0T268 2Q198 2 146 1T39 0Z" />
<glyph unicode="i" horiz-adv-x="559" d="M57 0V91Q130 91 160 96T198 116T205 156V769Q205 797 173 801T62 806Q62 829 62 851T62 895Q103 895 142 895T218 896Q258 897 296 898T373 900V152Q373 107 407 99T523 91V0Q497 0 454 0T365 1T286 1T247 2Q191 2 147
1T57 0ZM281 1092Q237 1092 211 1118T184 1186Q184 1228 210 1253T280 1278Q324 1278 350 1253T376 1185Q376 1144 350 1118T281 1092Z" />
<glyph unicode="j" horiz-adv-x="545" d="M274 1128Q224 1128 196 1153T167 1223Q167 1266 196 1290T274 1315Q324 1315 353 1291T382 1223Q382 1179 353 1154T274 1128ZM68 -407Q25 -407 -16 -403T-99 -388V-210Q-81 -211 -61 -212T-22 -213Q-14 -270 4 -290T59
-311Q132 -311 164 -270T204 -141T212 86V749Q212 790 179 797T65 806Q65 829 65 851T65 895Q92 895 117 895T168 895Q224 895 276 896T381 900V84Q381 -23 374 -113T338 -269T245 -371T68 -407Z" />
<glyph unicode="k" horiz-adv-x="1155" d="M40 0V91Q125 93 159 101T194 159Q194 159 194 213T194 355T194 550T194 762T194 956T194 1099T194 1153Q194 1191 158 1196T45 1202V1292Q65 1292 83 1292T119 1292T151 1292T182 1292Q231 1293 273 1294T361 1296V496L631
699Q681 736 706 760T732 795Q732 802 719 805T682 808T632 809L635 895Q687 894 727 894T802 893Q858 893 917 893T1052 895V807Q1039 807 1028 807T1007 806Q975 805 953 799T901 771T812 707L531 499L921 142Q957 109 985 100T1047 90Q1058 90 1069 90T1094
91V0Q1062 0 1030 0T964 1T893 2Q820 2 763 1T643 0V91Q660 91 673 91T697 92Q741 93 741 107Q741 118 727 133T688 171L404 430L361 402V158Q361 116 389 104T517 91V0Q465 0 411 0T289 2Q284 2 255 2T184 1T104 1T40 0Z" />
<glyph unicode="l" horiz-adv-x="591" d="M41 0Q41 8 41 20T41 45T40 71T40 91Q116 91 147 100T184 127T191 172V1152Q191 1189 153 1195T45 1202V1292Q72 1292 97 1292T147 1293T198 1293Q236 1294 275 1294T358 1296V161Q358 112 396 102T512 91V0Q457 0 403
0T274 2Q201 2 148 1T41 0Z" />
<glyph unicode="m" horiz-adv-x="1781" d="M44 0V91Q117 91 148 97T185 115T192 147V760Q192 793 160 799T49 806V895Q69 895 88 895T136 894Q189 894 243 896T351 899V751Q418 830 507 872T703 915Q792 915 861 872T966 746Q1039 828 1129 871T1319 914Q1441
914 1502 863T1584 720T1605 502V135Q1605 102 1635 98T1747 91V0Q1692 0 1636 1T1508 2Q1439 2 1389 1T1287 0V91Q1373 93 1405 100T1437 147V533Q1437 667 1404 734T1258 801Q1165 801 1101 758T989 652Q987 616 986 579T985 503V140Q985 104 1013 99T1126 91V0Q1076
0 1028 0T909 2Q836 2 780 1T668 0V91Q753 93 784 101T816 146V533Q816 664 784 735T638 806Q543 806 482 764T365 654Q364 653 363 627T361 560Q361 525 361 483T360 397T359 311T359 235Q359 159 363 129T399 95T511 91V0Q459 0 409 0T285 2Q212 2 156 1T44 0Z"
/>
<glyph unicode="n" horiz-adv-x="1181" d="M44 0Q44 8 44 20T44 45T44 71T44 91Q119 91 151 95T190 110T198 143V773Q198 798 169 802T50 806Q50 817 50 834T50 868T49 895Q83 895 114 895T176 896Q225 896 270 897T360 900V759Q428 833 517 873T705 914Q851 914
929 836T1007 590V132Q1007 101 1038 97T1147 91V0Q1098 0 1051 0T933 2Q860 2 802 1T686 0V91Q762 91 793 95T831 109T838 137V532Q838 667 803 733T655 799Q546 799 476 749T368 651Q367 614 366 577T365 499V138Q365 103 400 97T517 91V0Q465 0 415 0T291 2Q216
2 158 1T44 0Z" />
<glyph unicode="o" horiz-adv-x="1115" d="M557 -28Q416 -28 309 31T142 196T81 447Q81 591 141 698T309 863T557 922Q698 922 805 864T974 699T1035 447Q1035 304 975 197T807 31T557 -28ZM557 76Q695 76 778 177T861 448Q861 619 779 719T557 819Q418 819 336
720T254 448Q254 278 336 177T557 76Z" />
<glyph unicode="p" horiz-adv-x="1194" d="M22 -404V-314Q93 -312 123 -307Q159 -301 166 -288T173 -252V764Q173 796 139 800T32 806V895Q63 895 93 895T153 895Q198 895 243 896T334 900V735Q384 819 473 867T676 915Q805 915 902 857T1055 695T1110 454Q1110
309 1056 201T903 33T674 -27Q565 -27 482 14T343 139V-256Q343 -299 369 -306T472 -314H507V-404Q493 -404 456 -404T376 -403T300 -403T261 -403Q255 -403 223 -403T148 -403T71 -403T22 -404ZM637 81Q777 81 858 178T940 447Q940 614 857 710T631 806Q493 806
413 710T332 449Q332 280 415 181T637 81Z" />
<glyph unicode="q" horiz-adv-x="1194" d="M690 -404V-314H728Q791 -314 817 -310T848 -293T853 -253V139Q799 57 717 15T523 -27Q392 -27 294 32T142 200T88 453Q88 591 142 695T294 857T522 915Q634 915 721 869T863 737V900Q907 897 952 896T1044 895Q1076
895 1107 895T1171 895V806Q1098 806 1067 798T1030 773T1023 733V-250Q1023 -279 1031 -292T1071 -309T1175 -314V-404Q1159 -404 1121 -404T1038 -403T961 -403T921 -403Q915 -403 884 -403T812 -403T737 -403T690 -404ZM560 79Q699 79 781 179T864 447Q864 612
784 709T565 806Q423 806 340 709T257 444Q257 275 339 177T560 79Z" />
<glyph unicode="r" horiz-adv-x="822" d="M49 0V91Q126 91 158 96T197 115T204 156V760Q204 795 177 800T54 806V895Q69 895 102 895T165 895T194 894Q235 894 278 896T366 899V717Q414 810 500 863T702 916Q747 916 793 910V692Q778 692 763 692T733 692Q713
740 684 768T601 797Q503 797 440 705T374 467Q374 467 374 436T374 358T374 264T374 183T374 147Q374 104 411 98T545 91V0Q482 0 422 1T276 2Q202 2 153 1T49 0Z" />
<glyph unicode="s" horiz-adv-x="927" d="M477 -21Q374 -21 305 4T191 83L181 8Q159 8 138 8T93 9V297H190Q192 184 261 125T454 65Q556 65 620 106T684 219Q684 272 644 303T539 357T395 401Q301 430 237 463T141 544T109 664Q109 769 196 841T431 914Q513 914
586 893T704 824Q705 826 710 842T720 875T725 892Q725 892 742 892T777 891T800 890V618H706Q702 718 639 772T459 827Q359 827 310 783T261 682Q261 620 324 587T487 527Q595 499 674 467T797 382T840 243Q840 158 795 99T669 10T477 -21Z" />
<glyph unicode="t" horiz-adv-x="655" d="M402 -23Q309 -23 261 16T195 128T178 296V806H14V885Q47 886 89 889T163 896T195 899Q196 909 199 943T207 1018T214 1089T217 1122L344 1148V895H584V806H345V305Q345 204 356 144T438 84Q467 84 490 108T514 192L605
201Q605 84 545 31T402 -23Z" />
<glyph unicode="u" horiz-adv-x="1170" d="M472 -20Q346 -20 284 31T203 181T183 422V738Q183 772 174 786T134 802T40 805V893Q70 893 96 893T148 893T197 894Q233 895 270 896T351 899V371Q351 287 362 224T411 127T526 92Q634 92 708 135T820 242Q822 279 822
315T822 390V733Q822 769 813 784T772 802T675 805V893Q713 893 752 893T831 894Q871 895 910 896T990 900V140Q990 103 1015 96T1133 89V0Q1104 2 1077 1T1023 -1Q970 -1 922 -2T829 -4Q829 19 829 49T829 103T829 130Q760 54 669 17T472 -20Z" />
<glyph unicode="v" horiz-adv-x="1175" d="M510 -12L202 707Q186 744 176 763T150 791Q136 799 113 800T51 801V895Q103 895 154 894T252 893Q299 893 359 894T495 895V804Q418 804 386 798T352 766Q353 752 360 733T378 684Q401 628 430 553T490 400T547 256T590
148T606 107Q608 111 624 152T664 257T717 392T769 527T810 632T828 677Q850 729 853 762Q852 789 822 796T715 804V895Q765 895 810 894T902 892Q955 892 1011 893T1124 895V804Q1077 804 1052 799T1010 776Q994 757 981 722T941 624L676 -12H510Z" />
<glyph unicode="w" horiz-adv-x="1597" d="M385 -12L148 697Q131 748 120 770T86 798T14 804V895Q48 895 81 895T146 894T204 893Q240 893 293 894T407 895Q407 887 407 875T407 850T406 824T406 804Q382 804 363 805T332 806Q309 806 302 799T294 770Q294 730
311 671T346 558Q363 504 385 432T429 289T465 170T481 118L706 822H916L1134 111Q1134 111 1147 156T1182 274T1228 428T1275 584T1312 707T1329 760Q1331 767 1332 771T1334 781Q1333 798 1307 801T1215 804V895Q1257 895 1300 894T1386 893Q1436 893 1485 894T1583
895V804Q1538 804 1515 800T1478 780T1452 725T1417 619L1210 -12H1036L799 750L561 -12H385Z" />
<glyph unicode="x" horiz-adv-x="1145" d="M57 0V91H104Q142 91 164 106T224 168L463 455L226 726Q192 766 174 782T134 801T69 804V895Q74 895 112 895T195 894T268 893Q318 893 360 893T464 895V821Q409 820 387 816T364 798Q364 785 378 769T412 730L579 539L710
695Q740 731 759 755T778 795Q778 810 758 815T690 821V895Q723 895 752 895T809 894T861 893Q908 893 953 893T1060 895V804H1033Q988 804 967 798T921 765T841 672L666 465L929 169Q964 130 982 114T1021 94T1088 91V0Q1067 0 1047 0T1004 1T955 1T899 2Q893
2 857 2T778 1T713 0V74Q771 74 790 93Q786 101 781 110T767 128L563 376L385 167Q364 142 354 129T343 104Q343 88 366 82T442 74V0Q437 1 402 1T322 1T246 2Q186 2 145 1T57 0Z" />
<glyph unicode="y" horiz-adv-x="1094" d="M304 -404Q261 -404 220 -392T171 -378L178 -272Q193 -274 235 -280T304 -287Q345 -287 380 -249T460 -112L498 -12Q498 -12 475 38T414 170T333 343T251 519T184 662T152 731Q130 778 112 789T36 801H1Q1 809 1 821T1
848T0 874T0 895Q56 895 112 894T217 893Q264 893 323 894T458 895V804H370Q345 804 328 796T311 763Q311 723 338 667T387 563L578 155L794 690Q813 735 814 758Q813 787 788 795T671 804V895Q723 895 771 894T868 893Q921 893 977 894T1090 895Q1090 887 1090
875T1090 850T1090 824T1091 804Q1034 804 1008 798T968 770T934 705L589 -107Q541 -220 499 -285T411 -377T304 -404Z" />
<glyph unicode="z" horiz-adv-x="1000" d="M90 0V120L712 796H273Q240 796 226 780T208 722T203 600H117V893H889V774L267 98H719Q756 98 776 102T805 128T814 203Q814 204 814 230T814 282T813 310Q817 310 837 310T877 310T900 310V0H90Z" />
<glyph unicode="{" horiz-adv-x="860" d="M704 -332Q585 -332 511 -301T403 -193T368 22V214Q368 350 317 418T132 493V596Q268 603 318 671T368 881V1067Q368 1201 402 1278T510 1388T703 1421Q707 1421 715 1421T727 1419V1325Q641 1324 595 1304T532 1226T514
1053Q513 929 507 842T478 696T407 602T275 545Q368 521 420 475T493 352T514 153Q514 27 519 -50T544 -167T607 -222T727 -238V-331Q723 -332 716 -332T704 -332Z" />
<glyph unicode="|" horiz-adv-x="1038" d="M453 -448V1442H586V-448H453Z" />
<glyph unicode="}" horiz-adv-x="860" d="M154 -332Q150 -332 144 -332T133 -331V-238Q221 -236 266 -216T328 -135T345 43Q346 161 352 246T381 389T452 484T584 544Q485 571 434 619T365 751T345 963Q344 1079 338 1150T312 1259T250 1310T133 1325V1420Q137
1421 144 1421T155 1421Q273 1421 347 1389T457 1281T492 1073V885Q492 790 512 728T584 633T728 596V493Q593 486 543 417T492 211V74Q492 -82 463 -170T360 -295T154 -332Z" />
<glyph unicode="~" horiz-adv-x="1540" d="M1043 508Q998 508 954 518T859 546Q748 585 659 619T499 653Q424 653 349 621T160 509V646Q351 777 501 777Q561 777 623 760T775 708Q858 676 924 655T1043 633Q1115 633 1191 664T1380 774V640Q1282 571 1202 540T1043 508Z" />
<glyph unicode="&#xa0;" horiz-adv-x="397" />
<glyph unicode="&#xa1;" horiz-adv-x="596" d="M257 543H328Q329 536 333 479T344 334T356 149T367 -35T376 -180T380 -245Q380 -247 380 -279T380 -342T379 -376H208Q208 -374 208 -343T207 -280T207 -246Q207 -239 210 -181T219 -36T230 149T242 333T252 479T257
543ZM288 923Q346 923 370 896T395 832Q395 797 370 770T288 742Q230 742 205 769T180 832Q180 870 205 896T288 923Z" />
<glyph unicode="&#xa2;" horiz-adv-x="1122" d="M514 -201V-27Q383 -18 286 42T135 206T82 445Q82 578 137 683T290 850T514 917V1093H606V914Q670 907 721 885T810 817L835 895H932V576H826Q823 692 756 752T570 812Q429 812 349 716T268 451Q268 282 350 182T571
82Q670 82 738 135T836 286L962 261Q930 134 837 60T606 -25V-201H514Z" />
<glyph unicode="&#xa3;" horiz-adv-x="1135" d="M281 -17Q196 -17 141 35T86 170Q86 222 112 263T185 329T292 353Q368 353 447 302Q455 383 433 469T378 628H107V727H339Q286 837 264 913T242 1057Q242 1155 288 1227T419 1338T616 1378Q790 1378 886 1293T986
1049L855 1043Q851 1153 789 1213T621 1273Q522 1273 459 1217T396 1070Q396 1019 420 935T497 727H773V628H531Q555 566 565 512T575 406Q575 360 569 321T553 241Q634 173 691 135T809 96Q882 96 917 148T958 315L1064 306Q1062 153 995 68T813 -17Q743 -17 669
22T512 143Q472 67 412 25T281 -17ZM277 76Q327 76 364 108T427 210Q367 272 293 272Q247 272 216 243T185 169Q185 128 211 102T277 76Z" />
<glyph unicode="&#xa4;" horiz-adv-x="1303" d="M222 273L142 352L308 514Q219 634 219 772Q219 842 240 904T308 1028L142 1191L222 1270L389 1104Q456 1151 518 1172T652 1194Q790 1194 916 1104L1085 1270L1163 1191L995 1027Q1039 972 1061 907T1084 771Q1084
715 1064 645T995 515L1163 352L1085 273L917 437Q796 350 650 350Q577 350 513 371T389 436L222 273ZM652 461Q739 461 811 503T926 617T970 773Q970 858 927 928T812 1040T652 1082Q564 1082 492 1040T377 928T334 773Q334 687 377 616T492 503T652 461Z" />
<glyph unicode="&#xa5;" horiz-adv-x="1169" d="M362 0V99H413Q476 99 503 105T536 124T542 157V535L510 590H67V683H456L380 800H67V891H321L203 1074Q167 1131 145 1155T92 1185T-6 1191Q-6 1200 -6 1213T-6 1240T-6 1268T-6 1290Q15 1289 36 1289T84 1288T142
1287Q202 1287 254 1288T367 1289T507 1290V1191H472Q406 1191 377 1188T347 1164Q347 1150 358 1129T392 1073L648 661L902 1063Q925 1101 938 1125T952 1163Q952 1182 924 1186T830 1191H796V1290Q858 1289 903 1289T984 1288T1057 1288Q1113 1288 1162 1288T1265
1290V1191Q1204 1191 1176 1187T1132 1167T1090 1113Q1075 1091 1051 1055T999 975T943 891H1204V800H882L805 683H1204V590H751Q736 567 727 550T718 533V159Q718 119 739 109T849 99H901V0Q839 0 776 0T627 2Q545 2 484 1T362 0Z" />
<glyph unicode="&#xa6;" horiz-adv-x="1038" d="M453 724V1457H586V724H453ZM453 -203V529H586V-203H453Z" />
<glyph unicode="&#xa7;" horiz-adv-x="997" d="M500 -327Q396 -327 305 -303T144 -229V-31H246Q248 -130 307 -182T500 -234Q604 -234 665 -184T726 -54Q726 25 650 79T451 184Q342 229 257 274T124 382T76 539Q76 615 116 678T245 804Q126 885 126 1031Q126 1161
226 1238T495 1316Q590 1316 669 1284T797 1182T847 996H741Q736 1111 675 1167T495 1224Q398 1224 336 1177T274 1050Q274 996 298 960T379 893T535 821Q654 773 741 725T875 613T922 455Q922 298 752 196Q811 155 841 98T872 -31Q872 -169 774 -248T500 -327ZM670
244Q782 328 782 434Q782 490 752 529T664 603T520 673T324 757Q265 700 241 655T217 568Q217 509 255 465T358 384T504 315T670 244Z" />
<glyph unicode="&#xa8;" horiz-adv-x="853" d="M239 1096Q198 1096 173 1121T148 1186Q148 1226 173 1250T240 1274Q282 1274 306 1250T331 1185Q331 1145 307 1121T239 1096ZM612 1096Q571 1096 546 1121T521 1186Q521 1226 546 1250T613 1274Q655 1274 680 1250T705
1185Q705 1145 680 1121T612 1096Z" />
<glyph unicode="&#xa9;" horiz-adv-x="1666" d="M833 -30Q681 -30 548 26T314 180T156 408T99 685Q99 832 156 962T314 1191T549 1346T834 1402Q989 1402 1122 1345T1355 1189T1511 960T1567 685Q1567 538 1510 409T1352 181T1118 26T833 -30ZM827 260Q713 260
624 317T484 469T432 679Q432 790 483 884T625 1036T840 1093Q923 1093 981 1057T1065 982L1075 1092L1163 1084V829L1085 816Q1051 922 989 974T837 1027Q718 1027 648 940T577 693Q577 527 647 434T839 340Q919 340 987 382T1102 522L1172 494Q1121 366 1026
313T827 260ZM832 60Q965 60 1080 109T1283 245T1420 445T1470 685Q1470 816 1420 930T1281 1130T1078 1264T833 1313Q700 1313 584 1263T381 1126T244 926T194 685Q194 555 244 442T383 243T586 109T832 60Z" />
<glyph unicode="&#xaa;" horiz-adv-x="722" d="M257 688Q163 688 107 738T50 866Q50 951 117 1002T303 1053Q344 1053 386 1047T471 1029V1126Q471 1185 431 1216T310 1248Q175 1248 150 1139L90 1147L99 1262Q141 1282 196 1293T322 1305Q462 1305 521 1255T581
1096V849Q581 781 592 771T642 761H672V703Q662 704 652 704T631 703T609 703Q574 702 540 701T475 699V789Q435 740 382 714T257 688ZM310 751Q342 751 379 769T444 822T471 911V975Q431 986 397 992T328 998Q258 998 214 964T170 870Q170 816 207 784T310 751Z"
/>
<glyph unicode="&#xab;" horiz-adv-x="1003" d="M349 59L82 449L349 841H516L246 449L516 59H349ZM773 59L516 449L773 841H940L669 449L940 59H773Z" />
<glyph unicode="&#xac;" horiz-adv-x="1540" d="M1220 349V771H200V892H1341V349H1220Z" />
<glyph unicode="&#xae;" horiz-adv-x="1666" d="M830 -30Q679 -30 547 26T314 181T156 409T99 685Q99 833 156 962T314 1191T548 1346T834 1402Q991 1402 1124 1345T1357 1187T1512 957T1567 684Q1567 538 1510 409T1351 181T1117 26T830 -30ZM832 60Q965 60 1081
109T1284 245T1421 445T1470 685Q1470 819 1419 933T1278 1133T1075 1265T833 1313Q701 1313 585 1264T382 1127T244 927T194 685Q194 555 244 442T382 243T586 109T832 60ZM488 298V360Q526 365 539 374T553 399V1005Q553 1023 541 1034T488 1051V1081H783Q893
1081 976 1064T1107 1002T1155 876Q1155 797 1091 743T901 671Q967 650 1008 617T1072 521Q1080 501 1089 467T1114 404T1159 376H1193V314H1097Q1048 314 1020 341T977 407T953 486T932 550Q904 611 854 634T724 657H676V392Q676 379 689 372T740 360V298Q707
298 676 298T614 298T552 298T488 298ZM777 720Q899 720 958 756T1018 871Q1018 945 967 979T805 1014H676V721Q691 721 708 721T744 721T777 720Z" />
<glyph unicode="&#xaf;" horiz-adv-x="682" d="M70 1087V1184H675V1087H70Z" />
<glyph unicode="&#xb0;" horiz-adv-x="743" d="M371 826Q290 826 224 864T119 968T79 1112Q79 1192 118 1256T224 1359T372 1398Q453 1398 519 1360T625 1256T665 1112Q665 1034 625 969T519 865T371 826ZM372 915Q452 915 512 972T572 1112Q572 1157 548 1202T479
1277T372 1308Q287 1308 229 1250T170 1112Q170 1034 227 975T372 915Z" />
<glyph unicode="&#xb1;" horiz-adv-x="1540" d="M710 328V726H200V846H710V1244H833V846H1341V726H833V328H710ZM200 5V124H1341V5H200Z" />
<glyph unicode="&#xb2;" horiz-adv-x="787" d="M101 405Q100 412 100 419T100 435Q100 560 147 640T272 779T446 902Q511 946 542 987T574 1089Q574 1161 524 1203T394 1246Q282 1246 241 1198T200 1061H121V1233Q172 1274 241 1294T414 1315Q501 1315 562 1287T655
1205T687 1077Q687 1008 658 962T569 873T419 769Q294 686 251 616T207 485H567Q590 485 600 498T612 551T615 669H687V405H101Z" />
<glyph unicode="&#xb3;" horiz-adv-x="817" d="M390 394Q304 394 239 427T138 524T100 680H185Q185 471 399 471Q476 471 539 516T602 659Q602 732 567 773T474 831T348 849V924Q449 926 509 970T570 1099Q570 1170 520 1214T388 1259Q292 1259 253 1211T212 1076H131V1253Q236
1328 392 1328Q528 1328 604 1267T681 1097Q681 1018 638 967T509 893Q600 875 658 820T717 658Q717 535 630 465T390 394Z" />
<glyph unicode="&#xb4;" horiz-adv-x="853" d="M267 1029L497 1330Q508 1344 534 1353T588 1362Q608 1362 625 1357T652 1344T662 1324Q660 1301 636 1272T575 1211T497 1146T416 1083T350 1029H267Z" />
<glyph unicode="&#xb5;" horiz-adv-x="1145" d="M233 -413Q205 -413 181 -390T157 -321Q157 -244 164 -130T177 113T184 363V738Q184 772 174 786T134 802T40 805V893Q58 893 74 893T105 893T136 893Q189 894 239 895T351 899V371Q351 287 362 224T411 127T526
92Q634 92 708 135T820 242Q821 244 821 280T822 363T822 447T822 486V733Q822 769 813 784T772 802T675 805V893Q697 893 718 893T762 893Q818 894 875 895T990 900V140Q990 103 1015 96T1133 89V0Q1098 -1 1065 -1T1001 -1Q955 -2 913 -2T829 -4Q829 -1 829 31T829
95T829 130Q760 54 669 17T472 -20Q374 -20 314 14Q316 -44 317 -110T318 -232Q318 -332 300 -372T233 -413Z" />
<glyph unicode="&#xb6;" horiz-adv-x="1214" d="M516 -213V647Q377 650 282 700T139 836T90 1028Q90 1147 147 1230T309 1358T551 1402H1142V1284H985V-213H860V1284H642V-213H516Z" />
<glyph unicode="&#xb7;" horiz-adv-x="560" d="M271 713Q213 713 189 740T164 804Q164 839 189 866T271 894Q328 894 353 867T379 804Q379 768 354 741T271 713Z" />
<glyph unicode="&#xb8;" horiz-adv-x="853" d="M396 -424Q356 -424 312 -417T211 -391L230 -320Q271 -336 308 -343T378 -350Q514 -350 514 -256Q514 -215 482 -195T388 -174Q375 -174 369 -175L383 -6H451L445 -96Q446 -96 453 -96T466 -95Q548 -95 596 -139T644
-255Q644 -340 577 -382T396 -424Z" />
<glyph unicode="&#xb9;" horiz-adv-x="616" d="M121 423V491H192Q248 491 257 503T266 532V1221Q225 1200 183 1186T100 1162V1248Q153 1258 204 1276T308 1319L379 1295V530Q379 507 390 499T470 491H516V423Q486 423 458 423T397 423T323 424Q276 424 243 424T182
424T121 423Z" />
<glyph unicode="&#xba;" horiz-adv-x="771" d="M386 688Q236 688 145 772T53 997Q53 1137 144 1221T384 1305Q534 1305 626 1221T718 997Q718 857 627 773T386 688ZM386 757Q481 757 537 822T594 998Q594 1108 538 1172T386 1237Q289 1237 233 1173T176 997Q176
886 232 822T386 757Z" />
<glyph unicode="&#xbb;" horiz-adv-x="1003" d="M506 59L776 449L506 841H673L940 449L673 59H506ZM82 59L353 449L82 841H249L506 449L249 59H82Z" />
<glyph unicode="&#xbc;" horiz-adv-x="1687" d="M121 417V485H192Q248 485 257 497T266 526V1215Q225 1194 183 1180T100 1156V1242Q153 1252 204 1270T308 1313L379 1289V524Q379 501 390 493T470 485H516V417Q486 417 458 417T397 417T323 418Q276 418 243 418T182
418T121 417ZM446 -105L943 1304H1047L550 -105H446ZM1203 0V64H1248Q1306 64 1320 71T1334 98V264H945Q942 290 938 312T927 354L1312 896H1437V337H1587V264H1437V108Q1437 83 1446 74T1508 64H1545V0Q1528 0 1508 0T1464 0T1414 1T1360 1Q1305 1 1273 1T1203
0ZM1005 336H1334V808L1005 336Z" />
<glyph unicode="&#xbd;" horiz-adv-x="1664" d="M121 417V485H192Q248 485 257 497T266 526V1215Q225 1194 183 1180T100 1156V1242Q153 1252 204 1270T308 1313L379 1289V524Q379 501 390 493T470 485H516V417Q486 417 458 417T397 417T323 418Q276 418 243 418T182
418T121 417ZM446 -105L943 1304H1047L550 -105H446ZM978 0Q977 7 977 14T977 30Q977 155 1024 235T1149 374T1323 497Q1388 541 1419 582T1451 684Q1451 756 1401 798T1271 841Q1159 841 1118 793T1077 656H998V828Q1049 869 1118 889T1291 910Q1378 910 1439
882T1532 800T1564 672Q1564 603 1535 557T1446 468T1296 364Q1171 281 1128 211T1084 80H1444Q1467 80 1477 93T1489 146T1492 264H1564V0H978Z" />
<glyph unicode="&#xbe;" horiz-adv-x="1888" d="M390 382Q304 382 239 415T138 512T100 668H185Q185 459 399 459Q476 459 539 504T602 647Q602 720 567 761T474 819T348 837V912Q449 914 509 958T570 1087Q570 1158 520 1202T388 1247Q292 1247 253 1199T212
1064H131V1241Q236 1316 392 1316Q528 1316 604 1255T681 1085Q681 1006 638 955T509 881Q600 863 658 808T717 646Q717 523 630 453T390 382ZM647 -105L1144 1304H1248L751 -105H647ZM1404 0V64H1449Q1507 64 1521 71T1535 98V264H1146Q1143 290 1139 312T1128
354L1513 896H1638V337H1788V264H1638V108Q1638 83 1647 74T1709 64H1746V0Q1729 0 1709 0T1665 0T1615 1T1561 1Q1506 1 1474 1T1404 0ZM1206 336H1535V808L1206 336Z" />
<glyph unicode="&#xbf;" horiz-adv-x="980" d="M512 -401Q378 -401 281 -363T131 -255T79 -91Q79 6 113 67T200 169T309 248T412 332T479 454L491 550H604Q605 547 606 523T609 474T610 447Q610 359 574 306T483 215T375 143T284 59T247 -70Q247 -174 321 -237T516
-301Q652 -301 714 -235T778 -34H894L889 -286Q813 -341 718 -371T512 -401ZM543 742Q486 742 461 769T435 832Q435 868 460 895T543 923Q601 923 625 897T650 832Q650 797 625 770T543 742Z" />
<glyph unicode="&#xc0;" horiz-adv-x="1383" d="M-11 0V99Q56 100 86 103T129 121T155 171Q157 175 178 230T233 374T307 568T387 777T461 970T516 1114T539 1174L579 1290H810Q810 1290 831 1233T888 1083T967 877T1053 651T1133 443T1192 288T1216 225Q1234
178 1246 152T1274 115T1320 101T1404 98V0Q1349 0 1294 1T1179 2Q1115 2 1055 2T906 0V96Q929 96 947 96T980 97Q1025 98 1040 103T1056 123Q1056 128 1054 136T1049 155L943 473H420Q419 471 408 439T381 361T349 269T321 191T310 158Q300 133 300 122Q300 103
320 99T389 95Q404 95 422 95T461 95V0Q406 0 350 1T237 2Q176 2 123 2T-11 0ZM458 574H906L682 1196L458 574ZM806 1424Q779 1448 740 1478T660 1540T581 1605T520 1667T494 1719Q494 1730 504 1738T531 1752T568 1757Q595 1757 621 1748T659 1725L889 1424H806Z"
/>
<glyph unicode="&#xc1;" horiz-adv-x="1383" d="M-11 0V99Q56 100 86 103T129 121T155 171Q157 175 178 230T233 374T307 568T387 777T461 970T516 1114T539 1174L579 1290H810Q810 1290 831 1233T888 1083T967 877T1053 651T1133 443T1192 288T1216 225Q1234
178 1246 152T1274 115T1320 101T1404 98V0Q1349 0 1294 1T1179 2Q1115 2 1055 2T906 0V96Q929 96 947 96T980 97Q1025 98 1040 103T1056 123Q1056 128 1054 136T1049 155L943 473H420Q419 471 408 439T381 361T349 269T321 191T310 158Q300 133 300 122Q300 103
320 99T389 95Q404 95 422 95T461 95V0Q406 0 350 1T237 2Q176 2 123 2T-11 0ZM458 574H906L682 1196L458 574ZM498 1424L728 1725Q739 1739 765 1748T819 1757Q839 1757 856 1752T883 1739T893 1719Q891 1696 867 1667T806 1606T728 1541T647 1478T581 1424H498Z"
/>
<glyph unicode="&#xc2;" horiz-adv-x="1383" d="M-11 0V99Q56 100 86 103T129 121T155 171Q157 175 178 230T233 374T307 568T387 777T461 970T516 1114T539 1174L579 1290H810Q810 1290 831 1233T888 1083T967 877T1053 651T1133 443T1192 288T1216 225Q1234
178 1246 152T1274 115T1320 101T1404 98V0Q1349 0 1294 1T1179 2Q1115 2 1055 2T906 0V96Q929 96 947 96T980 97Q1025 98 1040 103T1056 123Q1056 128 1054 136T1049 155L943 473H420Q419 471 408 439T381 361T349 269T321 191T310 158Q300 133 300 122Q300 103
320 99T389 95Q404 95 422 95T461 95V0Q406 0 350 1T237 2Q176 2 123 2T-11 0ZM458 574H906L682 1196L458 574ZM389 1424L619 1757H755L994 1424H908L688 1635L472 1424H389Z" />
<glyph unicode="&#xc3;" horiz-adv-x="1383" d="M-11 0V99Q56 100 86 103T129 121T155 171Q157 175 178 230T233 374T307 568T387 777T461 970T516 1114T539 1174L579 1290H810Q810 1290 831 1233T888 1083T967 877T1053 651T1133 443T1192 288T1216 225Q1234
178 1246 152T1274 115T1320 101T1404 98V0Q1349 0 1294 1T1179 2Q1115 2 1055 2T906 0V96Q929 96 947 96T980 97Q1025 98 1040 103T1056 123Q1056 128 1054 136T1049 155L943 473H420Q419 471 408 439T381 361T349 269T321 191T310 158Q300 133 300 122Q300 103
320 99T389 95Q404 95 422 95T461 95V0Q406 0 350 1T237 2Q176 2 123 2T-11 0ZM458 574H906L682 1196L458 574ZM375 1455Q422 1696 567 1696Q612 1696 658 1670T751 1618T839 1591Q877 1591 902 1625T944 1713H1009Q990 1601 939 1537T812 1472Q769 1472 722 1498T629
1551T546 1577Q507 1577 482 1544T441 1455H375Z" />
<glyph unicode="&#xc4;" horiz-adv-x="1383" d="M-11 0V99Q56 100 86 103T129 121T155 171Q157 175 178 230T233 374T307 568T387 777T461 970T516 1114T539 1174L579 1290H810Q810 1290 831 1233T888 1083T967 877T1053 651T1133 443T1192 288T1216 225Q1234
178 1246 152T1274 115T1320 101T1404 98V0Q1349 0 1294 1T1179 2Q1115 2 1055 2T906 0V96Q929 96 947 96T980 97Q1025 98 1040 103T1056 123Q1056 128 1054 136T1049 155L943 473H420Q419 471 408 439T381 361T349 269T321 191T310 158Q300 133 300 122Q300 103
320 99T389 95Q404 95 422 95T461 95V0Q406 0 350 1T237 2Q176 2 123 2T-11 0ZM458 574H906L682 1196L458 574ZM504 1491Q463 1491 438 1516T413 1581Q413 1621 438 1645T505 1669Q547 1669 571 1645T596 1580Q596 1540 572 1516T504 1491ZM877 1491Q836 1491 811
1516T786 1581Q786 1621 811 1645T878 1669Q920 1669 945 1645T970 1580Q970 1540 945 1516T877 1491Z" />
<glyph unicode="&#xc5;" horiz-adv-x="1383" d="M-11 0V99Q56 100 86 103T129 121T155 171Q157 175 178 230T233 374T307 568T387 777T461 970T516 1114T539 1174L579 1290H810Q810 1290 831 1233T888 1083T967 877T1053 651T1133 443T1192 288T1216 225Q1234
178 1246 152T1274 115T1320 101T1404 98V0Q1349 0 1294 1T1179 2Q1115 2 1055 2T906 0V96Q929 96 947 96T980 97Q1025 98 1040 103T1056 123Q1056 128 1054 136T1049 155L943 473H420Q419 471 408 439T381 361T349 269T321 191T310 158Q300 133 300 122Q300 103
320 99T389 95Q404 95 422 95T461 95V0Q406 0 350 1T237 2Q176 2 123 2T-11 0ZM458 574H906L682 1196L458 574ZM691 1396Q600 1396 537 1458T473 1611Q473 1700 536 1761T691 1823Q752 1823 801 1795T880 1718T910 1611Q910 1551 881 1502T802 1425T691 1396ZM691
1479Q747 1479 786 1517T825 1611Q825 1664 786 1702T691 1740Q635 1740 597 1702T558 1611Q558 1556 596 1518T691 1479Z" />
<glyph unicode="&#xc6;" horiz-adv-x="1897" d="M-78 0V99Q-20 99 8 107T59 145T123 244L623 1070L761 1290H1804V962H1690V1011Q1690 1096 1683 1131T1661 1173T1619 1180H1085V713H1433Q1451 713 1464 723T1478 797H1558V526H1478Q1478 590 1464 600T1428 611H1085V114H1641Q1666
114 1677 127T1692 189T1695 348H1807V0H699V99H763Q833 99 862 106T897 126T903 154V537H451L269 221Q252 191 241 170T229 134Q229 115 249 107T321 99H378V0Q309 2 264 2T171 2Q113 2 58 2T-78 0ZM511 642H902V1183H835L511 642Z" />
<glyph unicode="&#xc7;" horiz-adv-x="1413" d="M797 -24Q582 -24 430 59T197 292T116 643Q116 847 199 997T431 1231T777 1314Q890 1314 989 1274T1164 1145L1185 1289H1300V896H1184Q1171 1035 1067 1118T792 1201Q646 1201 538 1134T371 942T312 647Q312 475
371 350T538 158T792 91Q998 91 1104 163T1212 431L1328 411L1318 152Q1197 49 1067 13T797 -24ZM675 -424Q635 -424 591 -417T490 -391L509 -320Q550 -336 587 -343T657 -350Q793 -350 793 -256Q793 -215 761 -195T667 -174Q654 -174 648 -175L662 -6H730L724
-96Q725 -96 732 -96T745 -95Q827 -95 875 -139T923 -255Q923 -340 856 -382T675 -424Z" />
<glyph unicode="&#xc8;" horiz-adv-x="1219" d="M47 0V99H162Q209 99 217 125T226 181V1096Q226 1143 220 1167T162 1191H55V1288H1125V962H1012V1010Q1012 1093 1004 1127T980 1168T940 1175H409V713H754Q767 713 775 717T789 743T798 821H878V499H798Q792 581
781 595T748 610H409V112H949Q990 112 1002 146T1016 288Q1016 302 1016 317T1016 348H1128V0H47ZM724 1424Q697 1448 658 1478T578 1540T499 1605T438 1667T412 1719Q412 1730 422 1738T449 1752T486 1757Q513 1757 539 1748T577 1725L807 1424H724Z" />
<glyph unicode="&#xc9;" horiz-adv-x="1219" d="M47 0V99H162Q209 99 217 125T226 181V1096Q226 1143 220 1167T162 1191H55V1288H1125V962H1012V1010Q1012 1093 1004 1127T980 1168T940 1175H409V713H754Q767 713 775 717T789 743T798 821H878V499H798Q792 581
781 595T748 610H409V112H949Q990 112 1002 146T1016 288Q1016 302 1016 317T1016 348H1128V0H47ZM416 1424L646 1725Q657 1739 683 1748T737 1757Q757 1757 774 1752T801 1739T811 1719Q809 1696 785 1667T724 1606T646 1541T565 1478T499 1424H416Z" />
<glyph unicode="&#xca;" horiz-adv-x="1219" d="M47 0V99H162Q209 99 217 125T226 181V1096Q226 1143 220 1167T162 1191H55V1288H1125V962H1012V1010Q1012 1093 1004 1127T980 1168T940 1175H409V713H754Q767 713 775 717T789 743T798 821H878V499H798Q792 581
781 595T748 610H409V112H949Q990 112 1002 146T1016 288Q1016 302 1016 317T1016 348H1128V0H47ZM307 1424L537 1757H673L912 1424H826L606 1635L390 1424H307Z" />
<glyph unicode="&#xcb;" horiz-adv-x="1219" d="M47 0V99H162Q209 99 217 125T226 181V1096Q226 1143 220 1167T162 1191H55V1288H1125V962H1012V1010Q1012 1093 1004 1127T980 1168T940 1175H409V713H754Q767 713 775 717T789 743T798 821H878V499H798Q792 581
781 595T748 610H409V112H949Q990 112 1002 146T1016 288Q1016 302 1016 317T1016 348H1128V0H47ZM422 1491Q381 1491 356 1516T331 1581Q331 1621 356 1645T423 1669Q465 1669 489 1645T514 1580Q514 1540 490 1516T422 1491ZM795 1491Q754 1491 729 1516T704
1581Q704 1621 729 1645T796 1669Q838 1669 863 1645T888 1580Q888 1540 863 1516T795 1491Z" />
<glyph unicode="&#xcc;" horiz-adv-x="656" d="M68 0V99H116Q177 99 202 108T233 133T238 169V1114Q238 1144 233 1160T202 1184T116 1191H68V1290Q115 1289 150 1288T220 1287Q338 1287 408 1287T519 1289T591 1290V1191H542Q482 1191 457 1182T426 1158T420
1121V162Q420 137 425 124T455 105T542 99H591V0Q529 0 473 1T328 2Q248 2 188 1T68 0ZM442 1424Q415 1448 376 1478T296 1540T217 1605T156 1667T130 1719Q130 1730 140 1738T167 1752T204 1757Q231 1757 257 1748T295 1725L525 1424H442Z" />
<glyph unicode="&#xcd;" horiz-adv-x="656" d="M68 0V99H116Q177 99 202 108T233 133T238 169V1114Q238 1144 233 1160T202 1184T116 1191H68V1290Q115 1289 150 1288T220 1287Q338 1287 408 1287T519 1289T591 1290V1191H542Q482 1191 457 1182T426 1158T420
1121V162Q420 137 425 124T455 105T542 99H591V0Q529 0 473 1T328 2Q248 2 188 1T68 0ZM134 1424L364 1725Q375 1739 401 1748T455 1757Q475 1757 492 1752T519 1739T529 1719Q527 1696 503 1667T442 1606T364 1541T283 1478T217 1424H134Z" />
<glyph unicode="&#xce;" horiz-adv-x="656" d="M68 0V99H116Q177 99 202 108T233 133T238 169V1114Q238 1144 233 1160T202 1184T116 1191H68V1290Q115 1289 150 1288T220 1287Q338 1287 408 1287T519 1289T591 1290V1191H542Q482 1191 457 1182T426 1158T420
1121V162Q420 137 425 124T455 105T542 99H591V0Q529 0 473 1T328 2Q248 2 188 1T68 0ZM25 1424L255 1757H391L630 1424H544L324 1635L108 1424H25Z" />
<glyph unicode="&#xcf;" horiz-adv-x="656" d="M68 0V99H116Q177 99 202 108T233 133T238 169V1114Q238 1144 233 1160T202 1184T116 1191H68V1290Q115 1289 150 1288T220 1287Q338 1287 408 1287T519 1289T591 1290V1191H542Q482 1191 457 1182T426 1158T420
1121V162Q420 137 425 124T455 105T542 99H591V0Q529 0 473 1T328 2Q248 2 188 1T68 0ZM140 1491Q99 1491 74 1516T49 1581Q49 1621 74 1645T141 1669Q183 1669 207 1645T232 1580Q232 1540 208 1516T140 1491ZM513 1491Q472 1491 447 1516T422 1581Q422 1621 447
1645T514 1669Q556 1669 581 1645T606 1580Q606 1540 581 1516T513 1491Z" />
<glyph unicode="&#xd0;" horiz-adv-x="1477" d="M50 605V711H736V605H50ZM50 0V99H115Q198 99 212 122T227 192Q227 193 227 243T227 374T227 553T227 748T226 927T226 1058T226 1108Q226 1159 203 1174T105 1191Q93 1192 80 1192T50 1192V1290H566Q966 1290 1168
1135T1370 659Q1370 438 1287 292T1028 73T577 0H50ZM409 111H614Q884 111 1029 238T1175 655Q1175 923 1031 1052T615 1181H409V111Z" />
<glyph unicode="&#xd1;" horiz-adv-x="1441" d="M1040 -10L352 1124Q351 1124 351 1124T350 1124V175Q350 119 375 109T477 99H531V0Q477 0 428 1T303 2Q222 2 162 1T38 0V99H102Q159 99 182 107T209 133T214 181V1109Q214 1169 195 1180T105 1191H43Q43 1200
43 1213T43 1240T44 1268T44 1290Q44 1290 69 1290T128 1290T193 1290T234 1289Q254 1289 279 1289T331 1289T383 1290T430 1290Q430 1290 466 1230T562 1072T693 856T835 621T966 405T1062 247T1098 187V1119Q1097 1171 1072 1181T972 1191H920V1290Q999 1290
1053 1289T1151 1287Q1162 1287 1201 1287T1288 1288T1369 1289T1403 1290V1191H1340Q1261 1191 1248 1174T1234 1121Q1234 1122 1234 1061T1234 899T1234 678T1234 436T1234 214T1234 52T1234 -10H1040ZM404 1455Q451 1696 596 1696Q641 1696 687 1670T780 1618T868
1591Q906 1591 931 1625T973 1713H1038Q1019 1601 968 1537T841 1472Q798 1472 751 1498T658 1551T575 1577Q536 1577 511 1544T470 1455H404Z" />
<glyph unicode="&#xd2;" horiz-adv-x="1528" d="M772 -24Q566 -24 416 59T186 293T105 646Q105 846 185 996T414 1231T765 1315Q967 1315 1115 1231T1344 997T1425 646Q1425 447 1345 297T1118 61T772 -24ZM764 92Q979 92 1103 241T1227 646Q1227 904 1103 1053T764
1202Q548 1202 425 1052T301 647Q301 391 425 242T764 92ZM878 1424Q851 1448 812 1478T732 1540T653 1605T592 1667T566 1719Q566 1730 576 1738T603 1752T640 1757Q667 1757 693 1748T731 1725L961 1424H878Z" />
<glyph unicode="&#xd3;" horiz-adv-x="1528" d="M772 -24Q566 -24 416 59T186 293T105 646Q105 846 185 996T414 1231T765 1315Q967 1315 1115 1231T1344 997T1425 646Q1425 447 1345 297T1118 61T772 -24ZM764 92Q979 92 1103 241T1227 646Q1227 904 1103 1053T764
1202Q548 1202 425 1052T301 647Q301 391 425 242T764 92ZM570 1424L800 1725Q811 1739 837 1748T891 1757Q911 1757 928 1752T955 1739T965 1719Q963 1696 939 1667T878 1606T800 1541T719 1478T653 1424H570Z" />
<glyph unicode="&#xd4;" horiz-adv-x="1528" d="M772 -24Q566 -24 416 59T186 293T105 646Q105 846 185 996T414 1231T765 1315Q967 1315 1115 1231T1344 997T1425 646Q1425 447 1345 297T1118 61T772 -24ZM764 92Q979 92 1103 241T1227 646Q1227 904 1103 1053T764
1202Q548 1202 425 1052T301 647Q301 391 425 242T764 92ZM461 1424L691 1757H827L1066 1424H980L760 1635L544 1424H461Z" />
<glyph unicode="&#xd5;" horiz-adv-x="1528" d="M772 -24Q566 -24 416 59T186 293T105 646Q105 846 185 996T414 1231T765 1315Q967 1315 1115 1231T1344 997T1425 646Q1425 447 1345 297T1118 61T772 -24ZM764 92Q979 92 1103 241T1227 646Q1227 904 1103 1053T764
1202Q548 1202 425 1052T301 647Q301 391 425 242T764 92ZM447 1455Q494 1696 639 1696Q684 1696 730 1670T823 1618T911 1591Q949 1591 974 1625T1016 1713H1081Q1062 1601 1011 1537T884 1472Q841 1472 794 1498T701 1551T618 1577Q579 1577 554 1544T513 1455H447Z"
/>
<glyph unicode="&#xd6;" horiz-adv-x="1528" d="M772 -24Q566 -24 416 59T186 293T105 646Q105 846 185 996T414 1231T765 1315Q967 1315 1115 1231T1344 997T1425 646Q1425 447 1345 297T1118 61T772 -24ZM764 92Q979 92 1103 241T1227 646Q1227 904 1103 1053T764
1202Q548 1202 425 1052T301 647Q301 391 425 242T764 92ZM576 1491Q535 1491 510 1516T485 1581Q485 1621 510 1645T577 1669Q619 1669 643 1645T668 1580Q668 1540 644 1516T576 1491ZM949 1491Q908 1491 883 1516T858 1581Q858 1621 883 1645T950 1669Q992 1669
1017 1645T1042 1580Q1042 1540 1017 1516T949 1491Z" />
<glyph unicode="&#xd7;" horiz-adv-x="1540" d="M327 105L242 190L684 619L243 1052L327 1136L770 703L1212 1136L1299 1052L858 619L1299 190L1212 105L771 536L327 105Z" />
<glyph unicode="&#xd8;" horiz-adv-x="1528" d="M241 -72L146 -45L297 146Q105 334 105 643Q105 834 181 986T404 1226T765 1315Q884 1315 978 1288T1162 1197L1280 1345L1375 1318L1232 1141Q1328 1055 1376 931T1425 646Q1425 456 1350 305T1127 65T765 -24Q636
-24 544 3T370 89L241 -72ZM763 90Q927 90 1030 167T1183 372T1232 650Q1232 871 1128 1010L462 201Q579 90 763 90ZM407 282L1072 1091Q1004 1153 933 1178T767 1204Q547 1204 422 1055T297 643Q297 534 322 448T407 282Z" />
<glyph unicode="&#xd9;" horiz-adv-x="1351" d="M685 -24Q495 -24 387 33T234 204T189 490V1134Q189 1166 174 1178T74 1191H24V1290Q70 1289 120 1289T223 1288T323 1288Q376 1288 428 1288T539 1290V1191H492Q432 1191 407 1183T376 1160T370 1128V495Q370 356
399 268T499 137T697 94Q833 94 902 140T994 274T1018 487V1123Q1018 1148 1013 1163T981 1184T889 1191H841V1290Q865 1289 891 1289T947 1288T1004 1288Q1044 1288 1079 1288T1171 1289T1327 1290V1191H1276Q1219 1191 1196 1182T1169 1158T1164 1128V493Q1164
231 1056 104T685 -24ZM790 1424Q763 1448 724 1478T644 1540T565 1605T504 1667T478 1719Q478 1730 488 1738T515 1752T552 1757Q579 1757 605 1748T643 1725L873 1424H790Z" />
<glyph unicode="&#xda;" horiz-adv-x="1351" d="M685 -24Q495 -24 387 33T234 204T189 490V1134Q189 1166 174 1178T74 1191H24V1290Q70 1289 120 1289T223 1288T323 1288Q376 1288 428 1288T539 1290V1191H492Q432 1191 407 1183T376 1160T370 1128V495Q370 356
399 268T499 137T697 94Q833 94 902 140T994 274T1018 487V1123Q1018 1148 1013 1163T981 1184T889 1191H841V1290Q865 1289 891 1289T947 1288T1004 1288Q1044 1288 1079 1288T1171 1289T1327 1290V1191H1276Q1219 1191 1196 1182T1169 1158T1164 1128V493Q1164
231 1056 104T685 -24ZM482 1424L712 1725Q723 1739 749 1748T803 1757Q823 1757 840 1752T867 1739T877 1719Q875 1696 851 1667T790 1606T712 1541T631 1478T565 1424H482Z" />
<glyph unicode="&#xdb;" horiz-adv-x="1351" d="M685 -24Q495 -24 387 33T234 204T189 490V1134Q189 1166 174 1178T74 1191H24V1290Q70 1289 120 1289T223 1288T323 1288Q376 1288 428 1288T539 1290V1191H492Q432 1191 407 1183T376 1160T370 1128V495Q370 356
399 268T499 137T697 94Q833 94 902 140T994 274T1018 487V1123Q1018 1148 1013 1163T981 1184T889 1191H841V1290Q865 1289 891 1289T947 1288T1004 1288Q1044 1288 1079 1288T1171 1289T1327 1290V1191H1276Q1219 1191 1196 1182T1169 1158T1164 1128V493Q1164
231 1056 104T685 -24ZM373 1424L603 1757H739L978 1424H892L672 1635L456 1424H373Z" />
<glyph unicode="&#xdc;" horiz-adv-x="1351" d="M685 -24Q495 -24 387 33T234 204T189 490V1134Q189 1166 174 1178T74 1191H24V1290Q70 1289 120 1289T223 1288T323 1288Q376 1288 428 1288T539 1290V1191H492Q432 1191 407 1183T376 1160T370 1128V495Q370 356
399 268T499 137T697 94Q833 94 902 140T994 274T1018 487V1123Q1018 1148 1013 1163T981 1184T889 1191H841V1290Q865 1289 891 1289T947 1288T1004 1288Q1044 1288 1079 1288T1171 1289T1327 1290V1191H1276Q1219 1191 1196 1182T1169 1158T1164 1128V493Q1164
231 1056 104T685 -24ZM488 1491Q447 1491 422 1516T397 1581Q397 1621 422 1645T489 1669Q531 1669 555 1645T580 1580Q580 1540 556 1516T488 1491ZM861 1491Q820 1491 795 1516T770 1581Q770 1621 795 1645T862 1669Q904 1669 929 1645T954 1580Q954 1540 929
1516T861 1491Z" />
<glyph unicode="&#xdd;" horiz-adv-x="1259" d="M361 0V99H414Q478 99 504 107T536 129T541 161V550Q538 554 514 592T451 689T372 811T292 934T230 1030T202 1073Q166 1130 145 1155T92 1185T-6 1191Q-6 1216 -6 1241T-7 1290Q13 1289 36 1289T84 1288T128 1287Q213
1287 295 1288T508 1290V1191H470Q405 1191 376 1188T346 1164Q348 1151 360 1128T392 1073Q393 1070 419 1029T482 929T557 809T621 708T648 664L903 1067Q926 1104 939 1127T952 1164Q952 1183 922 1187T822 1191Q815 1191 809 1191T795 1191V1290Q795 1290 827
1290T905 1289T994 1289T1058 1288Q1105 1288 1155 1288T1265 1290V1191Q1205 1191 1177 1188T1133 1168T1090 1113Q1062 1073 1018 1006T923 861T828 715T752 600T719 548V163Q719 123 739 111T848 99H902V0Q840 0 777 0T628 2Q577 2 530 2T440 1T361 0ZM436 1424L666
1725Q677 1739 703 1748T757 1757Q777 1757 794 1752T821 1739T831 1719Q829 1696 805 1667T744 1606T666 1541T585 1478T519 1424H436Z" />
<glyph unicode="&#xde;" horiz-adv-x="1174" d="M57 0V86H106Q170 86 196 97T228 125T234 158V1166Q234 1188 204 1196T110 1205H57V1290Q89 1290 126 1290T202 1289T281 1289T357 1288Q415 1288 475 1288T593 1290V1205H544Q483 1205 450 1198T416 1156V1032H649Q811
1032 915 985T1069 854T1119 663Q1119 546 1070 463T910 336T619 292H416V148Q416 122 421 109T453 91T544 86H593V0Q538 0 486 0T354 2Q261 2 194 1T57 0ZM416 396H606Q785 396 862 465T939 659Q939 791 860 857T612 924H416V396Z" />
<glyph unicode="&#xdf;" horiz-adv-x="1217" d="M759 -21Q714 -21 658 -11V80Q671 77 688 76T721 75Q782 77 837 107T928 201T964 368Q964 516 889 601T618 689V779Q750 786 802 844T854 1005Q854 1103 789 1161T611 1219Q540 1219 483 1195T394 1112T361 945V158Q361
114 391 105T506 95V0Q455 0 409 1T293 2Q215 2 158 1T42 0V95Q118 95 149 100T186 119T193 159V857Q193 1005 229 1107T357 1262T613 1315Q805 1315 912 1233T1020 999Q1020 902 970 838T822 741Q824 741 825 741T827 741Q977 721 1057 627T1137 376Q1137 193
1038 86T759 -21Z" />
<glyph unicode="&#xe0;" horiz-adv-x="1093" d="M406 -21Q263 -21 177 56T91 252Q91 380 193 458T478 536Q540 536 604 527T735 500V648Q735 738 675 786T489 835Q284 835 245 669L153 680L166 856Q230 885 316 903T508 922Q720 922 811 845T903 603V224Q903 155
910 127T937 94T997 89H1042V0Q1026 1 1010 1T978 1T946 0Q892 -1 840 -2T741 -4V133Q681 57 599 18T406 -21ZM457 75Q522 75 586 102T692 184T735 319V417Q675 434 621 443T516 452Q396 452 327 401T257 257Q257 175 313 125T457 75ZM661 1029Q634 1053 595 1083T515
1145T436 1210T375 1272T349 1324Q349 1335 359 1343T386 1357T423 1362Q450 1362 476 1353T514 1330L744 1029H661Z" />
<glyph unicode="&#xe1;" horiz-adv-x="1093" d="M406 -21Q263 -21 177 56T91 252Q91 380 193 458T478 536Q540 536 604 527T735 500V648Q735 738 675 786T489 835Q284 835 245 669L153 680L166 856Q230 885 316 903T508 922Q720 922 811 845T903 603V224Q903 155
910 127T937 94T997 89H1042V0Q1026 1 1010 1T978 1T946 0Q892 -1 840 -2T741 -4V133Q681 57 599 18T406 -21ZM457 75Q522 75 586 102T692 184T735 319V417Q675 434 621 443T516 452Q396 452 327 401T257 257Q257 175 313 125T457 75ZM353 1029L583 1330Q594 1344
620 1353T674 1362Q694 1362 711 1357T738 1344T748 1324Q746 1301 722 1272T661 1211T583 1146T502 1083T436 1029H353Z" />
<glyph unicode="&#xe2;" horiz-adv-x="1093" d="M406 -21Q263 -21 177 56T91 252Q91 380 193 458T478 536Q540 536 604 527T735 500V648Q735 738 675 786T489 835Q284 835 245 669L153 680L166 856Q230 885 316 903T508 922Q720 922 811 845T903 603V224Q903 155
910 127T937 94T997 89H1042V0Q1026 1 1010 1T978 1T946 0Q892 -1 840 -2T741 -4V133Q681 57 599 18T406 -21ZM457 75Q522 75 586 102T692 184T735 319V417Q675 434 621 443T516 452Q396 452 327 401T257 257Q257 175 313 125T457 75ZM244 1029L474 1362H610L849
1029H763L543 1240L327 1029H244Z" />
<glyph unicode="&#xe3;" horiz-adv-x="1093" d="M406 -21Q263 -21 177 56T91 252Q91 380 193 458T478 536Q540 536 604 527T735 500V648Q735 738 675 786T489 835Q284 835 245 669L153 680L166 856Q230 885 316 903T508 922Q720 922 811 845T903 603V224Q903 155
910 127T937 94T997 89H1042V0Q1026 1 1010 1T978 1T946 0Q892 -1 840 -2T741 -4V133Q681 57 599 18T406 -21ZM457 75Q522 75 586 102T692 184T735 319V417Q675 434 621 443T516 452Q396 452 327 401T257 257Q257 175 313 125T457 75ZM230 1060Q277 1301 422 1301Q467
1301 513 1275T606 1223T694 1196Q732 1196 757 1230T799 1318H864Q845 1206 794 1142T667 1077Q624 1077 577 1103T484 1156T401 1182Q362 1182 337 1149T296 1060H230Z" />
<glyph unicode="&#xe4;" horiz-adv-x="1093" d="M406 -21Q263 -21 177 56T91 252Q91 380 193 458T478 536Q540 536 604 527T735 500V648Q735 738 675 786T489 835Q284 835 245 669L153 680L166 856Q230 885 316 903T508 922Q720 922 811 845T903 603V224Q903 155
910 127T937 94T997 89H1042V0Q1026 1 1010 1T978 1T946 0Q892 -1 840 -2T741 -4V133Q681 57 599 18T406 -21ZM457 75Q522 75 586 102T692 184T735 319V417Q675 434 621 443T516 452Q396 452 327 401T257 257Q257 175 313 125T457 75ZM359 1096Q318 1096 293 1121T268
1186Q268 1226 293 1250T360 1274Q402 1274 426 1250T451 1185Q451 1145 427 1121T359 1096ZM732 1096Q691 1096 666 1121T641 1186Q641 1226 666 1250T733 1274Q775 1274 800 1250T825 1185Q825 1145 800 1121T732 1096Z" />
<glyph unicode="&#xe5;" horiz-adv-x="1093" d="M406 -21Q263 -21 177 56T91 252Q91 380 193 458T478 536Q540 536 604 527T735 500V648Q735 738 675 786T489 835Q284 835 245 669L153 680L166 856Q230 885 316 903T508 922Q720 922 811 845T903 603V224Q903 155
910 127T937 94T997 89H1042V0Q1026 1 1010 1T978 1T946 0Q892 -1 840 -2T741 -4V133Q681 57 599 18T406 -21ZM457 75Q522 75 586 102T692 184T735 319V417Q675 434 621 443T516 452Q396 452 327 401T257 257Q257 175 313 125T457 75ZM546 1001Q455 1001 392 1063T328
1216Q328 1305 391 1366T546 1428Q607 1428 656 1400T735 1323T765 1216Q765 1156 736 1107T657 1030T546 1001ZM546 1084Q602 1084 641 1122T680 1216Q680 1269 641 1307T546 1345Q490 1345 452 1307T413 1216Q413 1161 451 1123T546 1084Z" />
<glyph unicode="&#xe6;" horiz-adv-x="1721" d="M1205 -28Q1074 -28 974 24T814 171Q730 64 629 21T402 -22Q261 -22 173 54T85 251Q85 379 187 456T472 534Q595 534 729 499Q729 500 729 522T729 572T729 622T729 645Q729 739 670 787T484 836Q275 836 240 669L141
680L156 856Q308 922 503 922Q640 922 725 884T850 768Q910 840 998 881T1195 922Q1408 922 1525 794T1644 435L1582 416H901Q903 257 991 163T1228 68Q1428 68 1511 253L1633 234Q1589 108 1478 40T1205 -28ZM451 71Q517 71 581 98T687 181T729 321V415Q670 431
615 440T508 449Q390 449 321 398T251 254Q251 173 307 122T451 71ZM901 506H1481Q1480 511 1480 516T1479 527Q1463 670 1392 748T1196 826Q1072 826 995 743T901 506Z" />
<glyph unicode="&#xe7;" horiz-adv-x="1011" d="M542 -28Q403 -28 299 30T138 194T81 441Q81 575 137 681T292 850T521 912Q602 912 674 891T795 811L820 890Q825 890 845 890T886 889T912 888V576H814Q810 696 743 755T559 814Q417 814 338 716T258 448Q258 276
340 176T561 75Q661 75 728 128T823 280L940 260Q909 123 805 48T542 -28ZM474 -424Q434 -424 390 -417T289 -391L308 -320Q349 -336 386 -343T456 -350Q592 -350 592 -256Q592 -215 560 -195T466 -174Q453 -174 447 -175L461 -6H529L523 -96Q524 -96 531 -96T544
-95Q626 -95 674 -139T722 -255Q722 -340 655 -382T474 -424Z" />
<glyph unicode="&#xe8;" horiz-adv-x="1103" d="M565 -28Q414 -28 306 31T139 196T81 445Q81 589 140 696T306 862T555 922Q699 922 803 864T963 695T1021 429L961 411H253Q255 251 346 160T588 69Q692 69 770 110T885 248H1006Q966 111 849 42T565 -28ZM254 498H859Q847
651 769 738T557 825Q430 825 351 737T254 498ZM666 1029Q639 1053 600 1083T520 1145T441 1210T380 1272T354 1324Q354 1335 364 1343T391 1357T428 1362Q455 1362 481 1353T519 1330L749 1029H666Z" />
<glyph unicode="&#xe9;" horiz-adv-x="1103" d="M565 -28Q414 -28 306 31T139 196T81 445Q81 589 140 696T306 862T555 922Q699 922 803 864T963 695T1021 429L961 411H253Q255 251 346 160T588 69Q692 69 770 110T885 248H1006Q966 111 849 42T565 -28ZM254 498H859Q847
651 769 738T557 825Q430 825 351 737T254 498ZM358 1029L588 1330Q599 1344 625 1353T679 1362Q699 1362 716 1357T743 1344T753 1324Q751 1301 727 1272T666 1211T588 1146T507 1083T441 1029H358Z" />
<glyph unicode="&#xea;" horiz-adv-x="1103" d="M565 -28Q414 -28 306 31T139 196T81 445Q81 589 140 696T306 862T555 922Q699 922 803 864T963 695T1021 429L961 411H253Q255 251 346 160T588 69Q692 69 770 110T885 248H1006Q966 111 849 42T565 -28ZM254 498H859Q847
651 769 738T557 825Q430 825 351 737T254 498ZM249 1029L479 1362H615L854 1029H768L548 1240L332 1029H249Z" />
<glyph unicode="&#xeb;" horiz-adv-x="1103" d="M565 -28Q414 -28 306 31T139 196T81 445Q81 589 140 696T306 862T555 922Q699 922 803 864T963 695T1021 429L961 411H253Q255 251 346 160T588 69Q692 69 770 110T885 248H1006Q966 111 849 42T565 -28ZM254 498H859Q847
651 769 738T557 825Q430 825 351 737T254 498ZM364 1096Q323 1096 298 1121T273 1186Q273 1226 298 1250T365 1274Q407 1274 431 1250T456 1185Q456 1145 432 1121T364 1096ZM737 1096Q696 1096 671 1121T646 1186Q646 1226 671 1250T738 1274Q780 1274 805 1250T830
1185Q830 1145 805 1121T737 1096Z" />
<glyph unicode="&#xec;" horiz-adv-x="559" d="M57 0V91Q130 91 160 96T198 116T205 156V769Q205 797 173 801T62 806Q62 829 62 851T62 895Q103 895 142 895T218 896Q258 897 296 898T373 900V152Q373 107 407 99T523 91V0Q497 0 454 0T365 1T286 1T247 2Q191
2 147 1T57 0ZM650 1029Q623 1053 584 1083T504 1145T425 1210T364 1272T338 1324Q338 1335 348 1343T375 1357T412 1362Q439 1362 465 1353T503 1330L733 1029H650Z" />
<glyph unicode="&#xed;" horiz-adv-x="559" d="M57 0V91Q130 91 160 96T198 116T205 156V769Q205 797 173 801T62 806Q62 829 62 851T62 895Q103 895 142 895T218 896Q258 897 296 898T373 900V152Q373 107 407 99T523 91V0Q497 0 454 0T365 1T286 1T247 2Q191
2 147 1T57 0ZM86 1029L316 1330Q327 1344 353 1353T407 1362Q427 1362 444 1357T471 1344T481 1324Q479 1301 455 1272T394 1211T316 1146T235 1083T169 1029H86Z" />
<glyph unicode="&#xee;" horiz-adv-x="559" d="M57 0V91Q130 91 160 96T198 116T205 156V769Q205 797 173 801T62 806Q62 829 62 851T62 895Q103 895 142 895T218 896Q258 897 296 898T373 900V152Q373 107 407 99T523 91V0Q497 0 454 0T365 1T286 1T247 2Q191
2 147 1T57 0ZM-23 1029L207 1362H343L582 1029H496L276 1240L60 1029H-23Z" />
<glyph unicode="&#xef;" horiz-adv-x="559" d="M57 0V91Q130 91 160 96T198 116T205 156V769Q205 797 173 801T62 806Q62 829 62 851T62 895Q103 895 142 895T218 896Q258 897 296 898T373 900V152Q373 107 407 99T523 91V0Q497 0 454 0T365 1T286 1T247 2Q191
2 147 1T57 0ZM92 1096Q51 1096 26 1121T1 1186Q1 1226 26 1250T93 1274Q135 1274 159 1250T184 1185Q184 1145 160 1121T92 1096ZM465 1096Q424 1096 399 1121T374 1186Q374 1226 399 1250T466 1274Q508 1274 533 1250T558 1185Q558 1145 533 1121T465 1096Z"
/>
<glyph unicode="&#xf0;" horiz-adv-x="1127" d="M569 -28Q422 -28 314 30T146 196T86 448Q86 587 144 693T305 860T540 921Q603 921 661 901T765 844Q765 846 767 846Q739 902 699 966T583 1095L318 977L261 1038L524 1154Q487 1189 446 1222T358 1289L506 1317Q544
1295 584 1268T660 1211L900 1316L957 1257L720 1153Q819 1046 890 940T1000 725T1038 505Q1038 247 912 110T569 -28ZM561 76Q700 76 782 178T865 461Q865 616 786 717T562 819Q423 819 341 720T259 447Q259 278 341 177T561 76Z" />
<glyph unicode="&#xf1;" horiz-adv-x="1181" d="M44 0Q44 8 44 20T44 45T44 71T44 91Q119 91 151 95T190 110T198 143V773Q198 798 169 802T50 806Q50 817 50 834T50 868T49 895Q83 895 114 895T176 896Q225 896 270 897T360 900V759Q428 833 517 873T705 914Q851
914 929 836T1007 590V132Q1007 101 1038 97T1147 91V0Q1098 0 1051 0T933 2Q860 2 802 1T686 0V91Q762 91 793 95T831 109T838 137V532Q838 667 803 733T655 799Q546 799 476 749T368 651Q367 614 366 577T365 499V138Q365 103 400 97T517 91V0Q465 0 415 0T291
2Q216 2 158 1T44 0ZM274 1060Q321 1301 466 1301Q511 1301 557 1275T650 1223T738 1196Q776 1196 801 1230T843 1318H908Q889 1206 838 1142T711 1077Q668 1077 621 1103T528 1156T445 1182Q406 1182 381 1149T340 1060H274Z" />
<glyph unicode="&#xf2;" horiz-adv-x="1115" d="M557 -28Q416 -28 309 31T142 196T81 447Q81 591 141 698T309 863T557 922Q698 922 805 864T974 699T1035 447Q1035 304 975 197T807 31T557 -28ZM557 76Q695 76 778 177T861 448Q861 619 779 719T557 819Q418 819
336 720T254 448Q254 278 336 177T557 76ZM672 1029Q645 1053 606 1083T526 1145T447 1210T386 1272T360 1324Q360 1335 370 1343T397 1357T434 1362Q461 1362 487 1353T525 1330L755 1029H672Z" />
<glyph unicode="&#xf3;" horiz-adv-x="1115" d="M557 -28Q416 -28 309 31T142 196T81 447Q81 591 141 698T309 863T557 922Q698 922 805 864T974 699T1035 447Q1035 304 975 197T807 31T557 -28ZM557 76Q695 76 778 177T861 448Q861 619 779 719T557 819Q418 819
336 720T254 448Q254 278 336 177T557 76ZM364 1029L594 1330Q605 1344 631 1353T685 1362Q705 1362 722 1357T749 1344T759 1324Q757 1301 733 1272T672 1211T594 1146T513 1083T447 1029H364Z" />
<glyph unicode="&#xf4;" horiz-adv-x="1115" d="M557 -28Q416 -28 309 31T142 196T81 447Q81 591 141 698T309 863T557 922Q698 922 805 864T974 699T1035 447Q1035 304 975 197T807 31T557 -28ZM557 76Q695 76 778 177T861 448Q861 619 779 719T557 819Q418 819
336 720T254 448Q254 278 336 177T557 76ZM255 1029L485 1362H621L860 1029H774L554 1240L338 1029H255Z" />
<glyph unicode="&#xf5;" horiz-adv-x="1115" d="M557 -28Q416 -28 309 31T142 196T81 447Q81 591 141 698T309 863T557 922Q698 922 805 864T974 699T1035 447Q1035 304 975 197T807 31T557 -28ZM557 76Q695 76 778 177T861 448Q861 619 779 719T557 819Q418 819
336 720T254 448Q254 278 336 177T557 76ZM241 1060Q288 1301 433 1301Q478 1301 524 1275T617 1223T705 1196Q743 1196 768 1230T810 1318H875Q856 1206 805 1142T678 1077Q635 1077 588 1103T495 1156T412 1182Q373 1182 348 1149T307 1060H241Z" />
<glyph unicode="&#xf6;" horiz-adv-x="1115" d="M557 -28Q416 -28 309 31T142 196T81 447Q81 591 141 698T309 863T557 922Q698 922 805 864T974 699T1035 447Q1035 304 975 197T807 31T557 -28ZM557 76Q695 76 778 177T861 448Q861 619 779 719T557 819Q418 819
336 720T254 448Q254 278 336 177T557 76ZM370 1096Q329 1096 304 1121T279 1186Q279 1226 304 1250T371 1274Q413 1274 437 1250T462 1185Q462 1145 438 1121T370 1096ZM743 1096Q702 1096 677 1121T652 1186Q652 1226 677 1250T744 1274Q786 1274 811 1250T836
1185Q836 1145 811 1121T743 1096Z" />
<glyph unicode="&#xf7;" horiz-adv-x="1540" d="M200 561V681H1341V561H200ZM771 145Q730 145 701 173T672 241Q672 282 701 310T771 339Q811 339 840 310T870 241Q870 202 841 174T771 145ZM771 903Q730 903 701 931T672 999Q672 1038 701 1067T771 1096Q812
1096 841 1067T870 999Q870 959 841 931T771 903Z" />
<glyph unicode="&#xf8;" horiz-adv-x="1115" d="M153 -110L68 -84L216 99Q82 230 82 449Q82 590 141 696T307 862T555 922Q712 922 834 844L960 996L1043 972L899 795Q967 731 1001 644T1036 446Q1036 305 977 199T811 32T562 -28Q402 -28 281 49L153 -110ZM559
73Q697 73 781 174T865 444Q865 515 849 576T804 682L363 143Q404 108 454 91T559 73ZM313 214L753 750Q675 823 559 823Q420 823 337 723T253 456Q253 318 313 214Z" />
<glyph unicode="&#xf9;" horiz-adv-x="1170" d="M472 -20Q346 -20 284 31T203 181T183 422V738Q183 772 174 786T134 802T40 805V893Q70 893 96 893T148 893T197 894Q233 895 270 896T351 899V371Q351 287 362 224T411 127T526 92Q634 92 708 135T820 242Q822
279 822 315T822 390V733Q822 769 813 784T772 802T675 805V893Q713 893 752 893T831 894Q871 895 910 896T990 900V140Q990 103 1015 96T1133 89V0Q1104 2 1077 1T1023 -1Q970 -1 922 -2T829 -4Q829 19 829 49T829 103T829 130Q760 54 669 17T472 -20ZM699 1029Q672
1053 633 1083T553 1145T474 1210T413 1272T387 1324Q387 1335 397 1343T424 1357T461 1362Q488 1362 514 1353T552 1330L782 1029H699Z" />
<glyph unicode="&#xfa;" horiz-adv-x="1170" d="M472 -20Q346 -20 284 31T203 181T183 422V738Q183 772 174 786T134 802T40 805V893Q70 893 96 893T148 893T197 894Q233 895 270 896T351 899V371Q351 287 362 224T411 127T526 92Q634 92 708 135T820 242Q822
279 822 315T822 390V733Q822 769 813 784T772 802T675 805V893Q713 893 752 893T831 894Q871 895 910 896T990 900V140Q990 103 1015 96T1133 89V0Q1104 2 1077 1T1023 -1Q970 -1 922 -2T829 -4Q829 19 829 49T829 103T829 130Q760 54 669 17T472 -20ZM391 1029L621
1330Q632 1344 658 1353T712 1362Q732 1362 749 1357T776 1344T786 1324Q784 1301 760 1272T699 1211T621 1146T540 1083T474 1029H391Z" />
<glyph unicode="&#xfb;" horiz-adv-x="1170" d="M472 -20Q346 -20 284 31T203 181T183 422V738Q183 772 174 786T134 802T40 805V893Q70 893 96 893T148 893T197 894Q233 895 270 896T351 899V371Q351 287 362 224T411 127T526 92Q634 92 708 135T820 242Q822
279 822 315T822 390V733Q822 769 813 784T772 802T675 805V893Q713 893 752 893T831 894Q871 895 910 896T990 900V140Q990 103 1015 96T1133 89V0Q1104 2 1077 1T1023 -1Q970 -1 922 -2T829 -4Q829 19 829 49T829 103T829 130Q760 54 669 17T472 -20ZM282 1029L512
1362H648L887 1029H801L581 1240L365 1029H282Z" />
<glyph unicode="&#xfc;" horiz-adv-x="1170" d="M472 -20Q346 -20 284 31T203 181T183 422V738Q183 772 174 786T134 802T40 805V893Q70 893 96 893T148 893T197 894Q233 895 270 896T351 899V371Q351 287 362 224T411 127T526 92Q634 92 708 135T820 242Q822
279 822 315T822 390V733Q822 769 813 784T772 802T675 805V893Q713 893 752 893T831 894Q871 895 910 896T990 900V140Q990 103 1015 96T1133 89V0Q1104 2 1077 1T1023 -1Q970 -1 922 -2T829 -4Q829 19 829 49T829 103T829 130Q760 54 669 17T472 -20ZM397 1096Q356
1096 331 1121T306 1186Q306 1226 331 1250T398 1274Q440 1274 464 1250T489 1185Q489 1145 465 1121T397 1096ZM770 1096Q729 1096 704 1121T679 1186Q679 1226 704 1250T771 1274Q813 1274 838 1250T863 1185Q863 1145 838 1121T770 1096Z" />
<glyph unicode="&#xfd;" horiz-adv-x="1094" d="M304 -404Q261 -404 220 -392T171 -378L178 -272Q193 -274 235 -280T304 -287Q345 -287 380 -249T460 -112L498 -12Q498 -12 475 38T414 170T333 343T251 519T184 662T152 731Q130 778 112 789T36 801H1Q1 809 1
821T1 848T0 874T0 895Q56 895 112 894T217 893Q264 893 323 894T458 895V804H370Q345 804 328 796T311 763Q311 723 338 667T387 563L578 155L794 690Q813 735 814 758Q813 787 788 795T671 804V895Q723 895 771 894T868 893Q921 893 977 894T1090 895Q1090 887
1090 875T1090 850T1090 824T1091 804Q1034 804 1008 798T968 770T934 705L589 -107Q541 -220 499 -285T411 -377T304 -404ZM353 1029L583 1330Q594 1344 620 1353T674 1362Q694 1362 711 1357T738 1344T748 1324Q746 1301 722 1272T661 1211T583 1146T502 1083T436
1029H353Z" />
<glyph unicode="&#xfe;" horiz-adv-x="1188" d="M16 -404V-314Q92 -314 123 -307T161 -283T167 -236V1129Q167 1152 162 1168T126 1193T24 1202V1292Q24 1292 34 1292T65 1292T119 1292Q173 1292 227 1293T335 1296V746Q385 825 473 870T669 915Q799 915 896 857T1049
695T1104 453Q1104 308 1050 200T897 33T668 -27Q446 -27 335 139V-229Q335 -261 339 -280T368 -306T448 -314H500V-404Q500 -404 465 -403T382 -402T296 -400T250 -399Q245 -399 209 -400T128 -401T50 -403T16 -404ZM631 81Q770 81 852 178T934 447Q934 614 851
710T624 806Q487 806 406 710T325 449Q325 280 408 181T631 81Z" />
<glyph unicode="&#xff;" horiz-adv-x="1094" d="M304 -404Q261 -404 220 -392T171 -378L178 -272Q193 -274 235 -280T304 -287Q345 -287 380 -249T460 -112L498 -12Q498 -12 475 38T414 170T333 343T251 519T184 662T152 731Q130 778 112 789T36 801H1Q1 809 1
821T1 848T0 874T0 895Q56 895 112 894T217 893Q264 893 323 894T458 895V804H370Q345 804 328 796T311 763Q311 723 338 667T387 563L578 155L794 690Q813 735 814 758Q813 787 788 795T671 804V895Q723 895 771 894T868 893Q921 893 977 894T1090 895Q1090 887
1090 875T1090 850T1090 824T1091 804Q1034 804 1008 798T968 770T934 705L589 -107Q541 -220 499 -285T411 -377T304 -404ZM359 1096Q318 1096 293 1121T268 1186Q268 1226 293 1250T360 1274Q402 1274 426 1250T451 1185Q451 1145 427 1121T359 1096ZM732 1096Q691
1096 666 1121T641 1186Q641 1226 666 1250T733 1274Q775 1274 800 1250T825 1185Q825 1145 800 1121T732 1096Z" />
<glyph unicode="&#x2013;" horiz-adv-x="1024" d="M-6 413V541H1030V413H-6Z" />
<glyph unicode="&#x2014;" horiz-adv-x="2048" d="M-6 413V541H2054V413H-6Z" />
<glyph unicode="&#x2018;" horiz-adv-x="560" d="M235 863Q222 938 207 1018T192 1172Q192 1230 209 1259T260 1299T338 1313Q349 1313 361 1313T386 1314V1237Q341 1236 333 1212T324 1154Q324 1137 324 1108T326 1055T327 1030L402 1033Q402 1029 405 1004T411
948T418 892T421 863H235Z" />
<glyph unicode="&#x2019;" horiz-adv-x="560" d="M378 1315Q391 1240 406 1160T421 1006Q421 949 404 920T354 879T275 865Q264 865 252 865T227 864V941Q272 943 280 967T289 1024Q289 1042 289 1071T288 1123T286 1148L211 1145Q211 1149 208 1174T202 1230T195
1286T192 1315H378Z" />
<glyph unicode="&#x201a;" horiz-adv-x="560" d="M227 -281V-204Q272 -202 280 -178T289 -121Q289 -103 289 -74T288 -22T286 3L211 0L192 170H378Q391 95 406 15T421 -139Q421 -206 398 -235T331 -272T227 -281Z" />
<glyph unicode="&#x201c;" horiz-adv-x="766" d="M514 864Q501 939 486 1019T471 1173Q471 1231 488 1260T539 1300T617 1314Q628 1314 640 1314T665 1315V1238Q620 1237 612 1213T603 1155Q603 1138 603 1109T605 1056T606 1031L681 1034Q681 1030 684 1005T690
949T697 893T700 864H514ZM476 864Q463 939 448 1019T433 1173Q433 1231 450 1260T501 1300T579 1314Q590 1314 602 1314T627 1315V1238Q582 1237 574 1213T565 1155Q565 1138 565 1109T567 1056T568 1031L643 1034Q643 1030 646 1005T652 949T659 893T662 864H476Z"
/>
<glyph unicode="&#x201d;" horiz-adv-x="766" d="M363 1315Q376 1240 391 1160T406 1006Q406 949 389 920T339 879T260 865Q249 865 237 865T212 864V941Q257 943 265 967T274 1024Q274 1042 274 1071T273 1123T271 1148L196 1145Q196 1149 193 1174T187 1230T180
1286T177 1315H363ZM657 1315Q670 1240 685 1160T700 1006Q700 949 683 920T633 879T554 865Q543 865 531 865T506 864V941Q551 943 559 967T568 1024Q568 1042 568 1071T567 1123T565 1148L490 1145Q490 1149 487 1174T481 1230T474 1286T471 1315H657Z" />
<glyph unicode="&#x201e;" horiz-adv-x="855" d="M227 -281V-204Q272 -202 280 -178T289 -121Q289 -103 289 -74T288 -22T286 3L211 0L192 170H378Q391 95 406 15T421 -139Q421 -206 398 -235T331 -272T227 -281ZM522 -281V-204Q567 -202 575 -178T584 -121Q584
-103 584 -74T583 -22T581 3L506 0L487 170H673Q686 95 701 15T716 -139Q716 -206 693 -235T626 -272T522 -281Z" />
<glyph unicode="&#x2022;" horiz-adv-x="1125" d="M561 441Q484 441 421 478T320 577T282 714Q282 789 320 850T422 948T562 985Q638 985 701 948T802 850T840 714Q840 640 802 578T701 479T561 441Z" />
<glyph unicode="&#x2039;" horiz-adv-x="556" d="M341 59L65 450L341 841H507L229 450L507 59H341Z" />
<glyph unicode="&#x203a;" horiz-adv-x="556" d="M55 59L326 449L55 841H222L489 449L222 59H55Z" />
</font>
</defs>
</svg>
