<?xml version="1.0" standalone="no"?>
<!DOCTYPE svg PUBLIC "-//W3C//DTD SVG 1.1//EN" "http://www.w3.org/Graphics/SVG/1.1/DTD/svg11.dtd">
<svg xmlns="http://www.w3.org/2000/svg">
<defs >
<font id="Ruda" horiz-adv-x="505" ><font-face
    font-family="Ruda"
    units-per-em="1000"
    panose-1="2 0 0 0 0 0 0 0 0 0"
    ascent="922"
    descent="-295"
    alphabetic="0" />
<glyph unicode=" " horiz-adv-x="240" />
<glyph unicode="!" horiz-adv-x="268" d="M102 190L88 695H181L166 190H102ZM80 0V89H188V0H80Z" />
<glyph unicode="&quot;" horiz-adv-x="339" d="M213 478L199 695V713H283V694L266 478H213ZM70 478L56 695V713H139V694L123 478H70Z" />
<glyph unicode="#" horiz-adv-x="546" d="M76 0L107 199H25V270H118L142 421H59V493H153L185 695H257L225 493H353L385 695H458L426 493H509V421H415L391 270H474V199H380L349 0H277L308 199H180L149 0H76ZM191 270H319L342 421H214L191 270Z" />
<glyph unicode="$" horiz-adv-x="512" d="M218 -117V-11Q169 -6 128 9T61 37T36 51Q36 51 40 61T51 85T61 109T66 119Q66 119 82 111T127 92T191 73T266 64Q291 64 305 68T326 77Q346 91 357 115T368 179Q368 216 352 241T310 283T252 313Q212 331 177 348T115
387T73 443T58 525Q58 593 98 643T220 705V802H294V707Q331 705 361 700T409 691T427 686L413 614Q413 614 399 616T361 623T307 629T246 632Q221 632 207 629T182 619Q169 612 158 591T146 533Q146 492 167 466T222 424T293 391Q323 379 352 364T404 326T441 271T455
190Q455 110 410 57T291 -9V-117H218Z" />
<glyph unicode="%" horiz-adv-x="799" d="M188 -9L374 382L530 733H604L427 351L263 -9H188ZM203 407Q166 407 132 422T75 470T53 558Q53 613 75 645T131 692T203 707Q240 707 274 693T331 646T353 558Q353 503 331 470T275 422T203 407ZM203 474Q238 474 260
492T283 558Q283 605 261 622T203 640Q168 640 146 623T123 558Q123 510 145 492T203 474ZM596 -7Q558 -7 524 8T467 56T445 144Q445 199 467 231T523 278T596 293Q633 293 667 279T724 232T746 144Q746 89 724 56T668 8T596 -7ZM596 60Q631 60 653 78T675 144Q675
191 653 208T596 226Q560 226 538 209T516 144Q516 96 538 78T596 60Z" />
<glyph unicode="&amp;" horiz-adv-x="646" d="M251 -13Q184 -13 137 17T64 93T39 187Q39 226 54 257T92 313T141 353T187 378Q166 391 144 413T105 467T89 540Q89 587 110 625T171 685T270 708Q332 708 371 684T428 623T446 544Q446 496 426 463T380 410T334 379Q386
342 419 311T484 241Q505 276 519 306T540 356T547 375L618 352Q618 352 608 327T578 262T530 178Q568 120 588 71T619 -10L539 -13Q535 0 520 34T480 110Q432 54 376 21T251 -13ZM254 59Q310 59 356 93T439 174Q398 230 352 271T259 340Q224 328 194 304T146 249T127
180Q127 130 162 95T254 59ZM264 414Q302 430 331 462T361 546Q361 584 340 611T266 639Q216 639 195 613T173 545Q173 497 197 466T264 414Z" />
<glyph unicode="&apos;" horiz-adv-x="195" d="M70 478L56 695V713H139V694L123 478H70Z" />
<glyph unicode="(" horiz-adv-x="316" d="M247 -124Q201 -96 160 -42T94 103T69 329Q69 466 94 556T160 701T247 783L285 730Q214 685 184 582T154 329Q154 182 184 78T285 -72L247 -124Z" />
<glyph unicode=")" horiz-adv-x="316" d="M68 -124L31 -72Q102 -26 132 78T162 329Q162 478 132 581T31 730L68 783Q115 755 156 701T222 557T247 329Q247 194 222 104T156 -41T68 -124Z" />
<glyph unicode="*" horiz-adv-x="414" d="M129 374L65 429L78 443L167 527L54 546L36 552L62 635L81 628L180 578L164 688V707H250V688L233 578L333 628L351 635L378 552L359 546L245 527L333 443L347 429L282 374L271 389L206 493L140 389L129 374Z" />
<glyph unicode="+" horiz-adv-x="621" d="M273 32V258H52V328H273V553H347V328H569V258H347V32H273Z" />
<glyph unicode="," horiz-adv-x="270" d="M102 -166L62 -137Q79 -117 86 -94T94 -36V84H176V14Q175 -56 153 -99T102 -166Z" />
<glyph unicode="-" horiz-adv-x="321" d="M46 293V363H275V293H46Z" />
<glyph unicode="." horiz-adv-x="254" d="M76 0V89H178V0H76Z" />
<glyph unicode="/" horiz-adv-x="430" d="M4 -98L174 319L319 695H408L242 288L92 -98H4Z" />
<glyph unicode="0" horiz-adv-x="572" d="M286 -13Q238 -13 197 3T126 58T78 168T60 349Q60 458 77 528T125 637T197 692T286 708Q334 708 375 693T447 638T495 528T512 349Q512 239 495 169T447 59T375 3T286 -13ZM287 63Q333 63 363 86T410 172T426 349Q426
438 417 494T389 580T345 621T286 633Q253 633 227 622T183 581T156 496T147 351Q147 236 162 174T209 87T287 63Z" />
<glyph unicode="1" horiz-adv-x="507" d="M77 0V72L244 70L251 619H246L99 464L43 518L239 702L329 695V70L476 72V0H77Z" />
<glyph unicode="2" horiz-adv-x="540" d="M56 0V65Q56 65 102 119T236 285Q299 365 339 427T379 548Q379 586 359 609T287 633Q255 633 220 624T150 599T86 565L51 628Q67 642 99 661T176 694T268 708Q324 708 367 687T436 628T461 539Q461 496 444 453T400 368T344
288Q333 273 313 248T270 192T226 136T192 92T178 75V70L476 75V0H56Z" />
<glyph unicode="3" horiz-adv-x="545" d="M252 -13Q208 -13 172 -6T107 12T61 32T36 46L68 110Q75 107 94 99T140 83T200 68T265 62Q327 62 349 92T372 187Q372 271 339 303T236 335H143V401Q204 406 245 411T310 427T344 460T354 522Q354 554 349 576T333 609Q320
624 291 630T220 636Q202 636 185 635T144 632T83 624L73 692Q91 697 117 700T173 706T227 708Q288 708 336 692T412 638T440 533Q440 484 426 454T393 407T355 384T328 375V371Q348 368 370 359T414 331T448 278T461 194Q461 138 441 91T375 16T252 -13Z" />
<glyph unicode="4" horiz-adv-x="537" d="M340 0L343 162H29V225L187 706L269 695L118 237V232L343 236L362 505H424V236L488 238V162H424L425 0H340Z" />
<glyph unicode="5" horiz-adv-x="509" d="M243 -13Q197 -13 158 -2T89 23T43 49T27 60L59 123Q59 123 76 114T122 93T186 71T256 62Q303 62 326 77Q345 90 354 126T364 197Q364 229 357 262T335 308Q319 325 270 331T154 338Q132 338 114 338T86 337T75 336L126
695H421V622L196 626L167 413Q228 410 280 401T370 370T430 309T452 205Q452 102 396 45T243 -13Z" />
<glyph unicode="6" horiz-adv-x="552" d="M281 -13Q212 -13 163 19T87 127T60 330Q60 444 80 517T136 633T219 691T318 708Q360 708 391 702T439 689T457 682L438 611Q438 611 426 614T395 621T351 629T301 632Q265 632 242 624T202 599Q181 577 168 533T150 409Q150
409 165 411T205 414T256 416Q328 416 381 397T463 332T492 210Q492 102 436 45T281 -13ZM287 58Q357 58 383 91T409 207Q409 258 399 288T359 331T276 344Q242 344 213 341T166 334T148 330V250Q148 194 155 160T173 110T189 86Q199 77 221 68T287 58Z" />
<glyph unicode="7" horiz-adv-x="471" d="M164 -7L75 1L363 619V625L24 619V695H448V640L164 -7Z" />
<glyph unicode="8" horiz-adv-x="540" d="M266 -13Q194 -13 145 16T72 93T47 190Q47 234 64 269T109 330T163 366Q126 393 97 433T68 534Q68 610 119 659T269 708Q337 708 382 685T449 622T471 533Q471 466 441 425T366 359Q392 344 421 322T471 267T492 182Q492
131 466 87T389 15T266 -13ZM269 59Q338 59 369 88T401 170Q401 210 386 237T335 285T241 326Q192 307 165 278T138 182Q138 148 150 120T191 76T269 59ZM287 393Q334 410 360 442T386 532Q386 580 361 609T270 639Q202 639 177 613T152 543Q152 491 183 457T287
393Z" />
<glyph unicode="9" horiz-adv-x="550" d="M269 -13Q230 -13 196 -4T135 17T94 39T79 48L110 111Q110 111 124 103T162 85T216 66T278 58Q304 58 320 64T347 83Q369 106 385 161T401 295Q401 295 380 291T329 284T267 280Q205 280 159 301T86 368T60 486Q60 591
115 649T269 708Q335 708 385 676T462 567T490 354Q490 237 467 155T396 30T269 -13ZM263 356Q301 356 332 362T382 374T401 380Q401 472 393 521T374 592T349 620Q334 628 313 632T266 636Q214 636 188 620T152 569T143 483Q143 446 150 417T182 372T263 356Z"
/>
<glyph unicode=":" horiz-adv-x="314" d="M103 459V548H211V459H103ZM103 0V89H211V0H103Z" />
<glyph unicode=";" horiz-adv-x="312" d="M121 -166L81 -137Q98 -117 105 -95T113 -36V84H195V14Q194 -56 172 -99T121 -166ZM101 459V548H209V459H101Z" />
<glyph unicode="&lt;" horiz-adv-x="632" d="M580 16L75 257V328L580 568V484L160 296V290L580 99V16Z" />
<glyph unicode="=" horiz-adv-x="618" d="M52 335V407H566V335H52ZM52 179V251H566V179H52Z" />
<glyph unicode="&gt;" horiz-adv-x="635" d="M56 16V99L475 290V296L56 484V568L560 328V257L56 16Z" />
<glyph unicode="?" horiz-adv-x="462" d="M150 191V201Q150 253 165 286T203 343T251 385Q275 403 296 422T331 467T345 533Q345 567 334 587T305 618Q301 621 287 626T249 631Q192 631 146 614T61 577L31 645Q48 655 76 669T143 696T233 708Q292 708 337 685T407
620T432 525Q432 474 415 440T372 381T318 335Q293 316 271 297T234 252T220 191H150ZM132 0V89H240V0H132Z" />
<glyph unicode="@" horiz-adv-x="835" d="M413 -38Q349 -38 288 -15T176 54T96 169T66 330Q66 425 98 495T182 611T300 679T431 702Q495 702 555 682T662 622T737 525T765 392Q765 334 748 285T703 200T642 144T574 124Q531 124 515 156T497 243H493Q483 223 465
195T423 145T366 124Q349 124 330 133T293 166T264 232T253 340Q253 420 271 466T325 531T411 551Q438 551 465 547T516 539T553 530T568 526Q568 526 568 505T567 449T567 377T566 307Q566 255 567 231T572 199T583 192Q602 192 627 215T672 283T692 389Q692 498
623 563T432 628Q349 628 283 596T179 499T141 337Q141 239 179 172T280 69T416 34Q437 34 457 36T490 40T503 43L511 -24Q511 -24 484 -31T413 -38ZM377 204Q395 204 414 230T450 296T477 382T488 466Q480 468 458 471T409 475Q370 475 359 465Q349 457 344 424T338
338Q338 267 348 236T377 204Z" />
<glyph unicode="A" horiz-adv-x="506" d="M5 0L194 695H312L501 0H415L362 208L404 184H104L144 208L91 0H5ZM146 219L118 258H388L360 219L247 658L294 621H212L259 658L146 219Z" />
<glyph unicode="B" horiz-adv-x="614" d="M323 -14Q286 -14 249 -12T180 -6T129 0T106 4L110 323L105 697Q109 697 129 699T180 703T246 707T316 709Q371 709 415 692T485 635T512 523Q512 468 496 436T457 389T416 368T394 363L400 402V323L389 361Q401 361 424
356T472 334T513 287T530 203Q530 138 513 96T465 29T399 -4T323 -14ZM334 51Q399 51 420 87T441 198Q441 273 407 301T312 329H151L189 350L191 24L189 61Q194 61 214 59T265 54T334 51ZM320 394Q382 394 403 423T425 520Q425 591 399 619T312 647Q277 647 249
645T203 641T180 638L189 677V371L151 395L320 394Z" />
<glyph unicode="C" horiz-adv-x="583" d="M312 -14Q241 -14 187 20T103 133T72 340Q72 454 91 526T145 639T227 694T329 709Q353 709 386 707T450 701T497 693L487 621Q478 622 458 624T414 628T368 631T334 633Q285 633 256 628T212 606Q199 590 187 559T168
475T161 337Q161 231 181 168T222 84Q236 70 256 65T301 59Q339 59 374 67T437 86T481 105T497 113L526 47Q526 47 511 38T467 17T400 -5T312 -14Z" />
<glyph unicode="D" horiz-adv-x="631" d="M302 -14Q282 -14 253 -13T193 -9T138 -4T105 -1V696Q109 696 131 698T185 702T251 707T313 709Q390 709 438 681T513 603T549 490T559 356Q559 218 526 137T434 21T302 -14ZM291 59Q345 59 371 66T410 87Q424 101 436
131T457 217T465 363Q465 454 453 523T412 616Q402 625 381 630T315 636Q275 636 238 633T174 627L189 667V31L171 72Q200 68 228 64T291 59Z" />
<glyph unicode="E" horiz-adv-x="514" d="M105 0V695H446V621L151 624L190 662L183 364L146 389H422V318H146L183 347L190 34L151 72L446 74V0H105Z" />
<glyph unicode="F" horiz-adv-x="500" d="M105 0V695H446V621L151 624L190 662L183 372L146 388L415 389V318H146L184 332L188 0H105Z" />
<glyph unicode="G" horiz-adv-x="612" d="M331 -13Q279 -13 232 1T149 55T93 165T72 350Q72 461 91 531T147 640T233 693T344 708Q376 708 409 706T470 699T515 691L505 619Q486 621 445 626T338 632Q288 632 258 627T212 605Q193 586 178 526T162 352Q162 265
171 211T193 130T214 92Q226 79 253 70T335 60Q370 60 396 64T439 75V333L477 293L333 300V362H519V26Q519 26 496 17T430 -3T331 -13Z" />
<glyph unicode="H" horiz-adv-x="665" d="M105 0V695H189L186 363L148 391H516L478 363L476 695H560V0H476L478 345L516 317H148L186 345L189 0H105Z" />
<glyph unicode="I" horiz-adv-x="295" d="M105 -1L108 318L105 695H190L186 388L190 0L105 -1Z" />
<glyph unicode="J" horiz-adv-x="316" d="M56 -13Q42 -13 30 -12T7 -8T-8 -5L2 67Q11 66 30 63T72 60Q93 60 107 69T128 114T136 223V695H220V236Q220 143 199 89T140 11T56 -13Z" />
<glyph unicode="K" horiz-adv-x="577" d="M485 0L192 357L460 695H566L291 364V358L597 0H485ZM105 0L108 353L105 695H189V0H105Z" />
<glyph unicode="L" horiz-adv-x="446" d="M105 0V695H189L184 34L146 72L435 74V0H105Z" />
<glyph unicode="M" horiz-adv-x="814" d="M100 0L124 695H246L403 242H410L568 695H690L714 0H630L622 611H615L458 163H355L199 611H192L184 0H100Z" />
<glyph unicode="N" horiz-adv-x="680" d="M105 0V695H218L501 101H504L491 695H575V0H462L179 594H176L189 0H105Z" />
<glyph unicode="O" horiz-adv-x="656" d="M328 -14Q276 -14 230 2T148 57T92 168T72 349Q72 459 92 529T147 638T229 693T328 709Q381 709 427 694T508 639T564 529T584 349Q584 239 564 168T509 58T427 2T328 -14ZM328 62Q371 62 402 71T454 110T485 195T495
346Q495 440 486 497T456 583T404 623T328 633Q283 633 252 623T200 584T171 497T161 346Q161 252 171 196T201 110T253 72T328 62Z" />
<glyph unicode="P" horiz-adv-x="581" d="M105 0L109 322L105 695Q105 695 125 697T180 702T254 707T335 709Q424 709 473 651T522 475Q522 402 505 354T457 280T390 242T314 231Q283 231 245 233T189 237V0H105ZM320 302Q352 302 372 305T404 321Q421 338 427
379T433 485Q433 539 428 568T415 611T399 629Q389 636 367 640T315 645Q276 645 242 642T189 634V314Q203 312 241 307T320 302Z" />
<glyph unicode="Q" horiz-adv-x="663" d="M586 -92L382 16L437 6Q413 -4 385 -8T328 -13Q276 -13 230 3T148 58T92 168T72 349Q72 458 92 528T147 637T229 692T328 708Q381 708 427 693T508 638T564 528T584 349Q584 256 570 193T529 90T468 27L482 75L481 20L479
33L619 -14L586 -92ZM328 63Q371 63 402 72T454 110T485 195T495 346Q495 439 486 496T456 582T404 622T328 632Q283 632 252 622T200 583T171 496T161 346Q161 252 171 196T201 111T253 73T328 63Z" />
<glyph unicode="R" horiz-adv-x="635" d="M105 0L110 329L107 695Q118 697 143 699T200 703T265 706T328 708Q396 708 446 687T523 619T550 492Q550 405 512 354T402 286V283L559 0H460L320 276L190 281V0H105ZM338 346Q412 346 436 381T461 493Q461 555 451 587T422
630Q411 637 389 640T340 644Q299 644 257 640T191 633L189 356Q224 352 263 349T338 346Z" />
<glyph unicode="S" horiz-adv-x="511" d="M246 -14Q205 -14 167 -5T100 18T53 40T36 50Q36 50 40 60T51 84T61 108T66 118Q66 118 82 110T127 91T191 72T266 63Q291 63 305 67T326 76Q346 90 357 114T368 178Q368 216 352 241T310 283T252 313Q212 330 177 347T115
386T73 441T58 525Q58 577 81 618T150 684T264 709Q297 709 326 706T378 698T414 691T427 687L413 615Q413 615 399 617T361 624T307 630T246 633Q221 633 207 630T181 620Q168 613 157 592T145 533Q145 492 166 466T221 424T293 391Q323 379 352 364T404 326T441
271T455 189Q455 128 429 83T355 12T246 -14Z" />
<glyph unicode="T" horiz-adv-x="474" d="M195 0L197 624L2 621V695H472V621L277 624L279 0H195Z" />
<glyph unicode="U" horiz-adv-x="661" d="M330 -14Q258 -14 208 13T131 110T105 302V695H189V329Q189 239 195 186T216 106T258 71T330 62Q374 62 402 71T445 106T466 186T472 329V695H556V311Q556 183 530 113T453 14T330 -14Z" />
<glyph unicode="V" horiz-adv-x="506" d="M193 0L5 695H91L250 74H256L415 695H501L313 0H193Z" />
<glyph unicode="W" horiz-adv-x="748" d="M139 0L13 695H99L196 74H203L314 532H434L545 74H552L649 695H735L610 0H488L377 458H371L259 0H139Z" />
<glyph unicode="X" horiz-adv-x="536" d="M16 0L230 389L239 338L30 695H124L293 382L222 413H304L240 383L411 695H505L293 338L299 378L520 0H421L244 333L291 300H227L280 333L115 0H16Z" />
<glyph unicode="Y" d="M210 0L213 259L16 695H107L250 347H256L398 695H489L292 259L295 0H210Z" />
<glyph unicode="Z" horiz-adv-x="529" d="M27 0V72L378 617V624L47 621V695H475V623L127 80V71L489 74V0H27Z" />
<glyph unicode="[" horiz-adv-x="310" d="M106 -124V783H269V715L180 718V-59L269 -56V-124H106Z" />
<glyph unicode="\" horiz-adv-x="432" d="M338 -98L188 288L22 695H111L256 319L426 -98H338Z" />
<glyph unicode="]" horiz-adv-x="311" d="M41 -124V-56L131 -59V718L41 715V783H205V-124H41Z" />
<glyph unicode="^" horiz-adv-x="506" d="M133 316L58 325L204 695H302L448 325L374 316L257 630H250L133 316Z" />
<glyph unicode="_" horiz-adv-x="536" d="M16 -161V-91H520V-161H16Z" />
<glyph unicode="`" horiz-adv-x="214" d="M194 654L0 721L30 788L214 704L194 654Z" />
<glyph unicode="a" horiz-adv-x="569" d="M211 -13Q165 -13 130 8T74 71T54 172Q54 243 82 283T163 341T284 358H390Q390 408 388 445T371 501Q361 515 344 519T307 523Q268 523 231 516T163 498T114 481T96 473L67 538Q67 538 86 546T137 566T208 586T290 595Q358
595 398 569T455 495T473 383V0H419L407 61H401Q391 54 373 42T330 17T275 -4T211 -13ZM225 60Q261 60 293 70T351 94T390 115V281Q377 283 351 285T283 288Q190 288 168 269Q155 259 148 234T141 172Q141 113 160 87T225 60Z" />
<glyph unicode="b" horiz-adv-x="576" d="M305 -13Q278 -13 239 -8T159 6T90 25V753H173V573Q190 577 214 582T266 591T324 595Q412 595 459 526T506 301Q506 205 489 144T443 48T379 1T305 -13ZM305 61Q332 61 347 64T373 77Q382 86 393 109T411 181T419 317Q419
403 411 448T387 505Q366 521 316 521Q265 521 229 511T173 494V77Q184 74 202 71T245 64T305 61Z" />
<glyph unicode="c" horiz-adv-x="518" d="M300 -13Q232 -13 180 18T99 116T70 293Q70 382 89 441T143 533T223 581T321 595Q359 595 398 590T463 579L453 509Q434 511 393 516T305 522Q268 522 243 516T203 496Q184 475 171 420T157 287Q157 216 168 173T194 107T221
75Q229 69 242 64T281 59Q310 59 340 66T395 82T435 98T451 105L477 40Q477 40 455 27T393 1T300 -13Z" />
<glyph unicode="d" horiz-adv-x="581" d="M254 -13Q200 -13 159 18T94 114T70 280Q70 377 87 438T135 534T201 581T277 595Q310 595 335 591T378 582T408 572V753H491V0H436L425 60H420Q407 50 384 33T329 1T254 -13ZM259 61Q279 61 300 66T341 80T379 97T408
113V495Q396 500 375 506T326 516T269 521Q213 521 193 497Q185 486 177 462T163 394T157 276Q157 194 165 152T185 94T202 73Q210 66 225 64T259 61Z" />
<glyph unicode="e" horiz-adv-x="571" d="M304 -14Q235 -14 183 15T101 112T72 292Q72 409 102 475T185 568T302 596Q367 596 412 570T482 484T506 321V258H122L161 273Q157 207 164 168T183 109T203 82Q217 70 237 64T286 58Q315 58 343 62T395 73T438 86T469
96L490 29Q481 25 455 15T391 -5T304 -14ZM161 288L122 324L459 331L421 294Q422 365 419 416T398 494Q391 505 374 514T308 524Q257 524 232 513T192 484Q155 435 161 288Z" />
<glyph unicode="f" horiz-adv-x="338" d="M115 0V484H50V535L115 548Q116 627 137 674T196 744T287 766Q297 766 310 766T333 765T343 764L337 694Q337 694 324 694T294 695T267 696Q240 696 225 686T204 644T197 548H325V481H198V0H115Z" />
<glyph unicode="g" horiz-adv-x="521" d="M253 -179Q213 -179 178 -175T117 -166T76 -156T61 -152L71 -77Q127 -87 186 -94T300 -102Q356 -102 375 -93T394 -65Q394 -54 389 -45T371 -27T333 -5T267 24Q210 48 185 58T153 72T146 79Q146 80 151 92T164 123T180
160T194 194Q128 207 88 258T47 382Q47 464 79 510T163 575T277 595Q297 595 324 594T380 591T433 587T473 584T488 583V530L422 520Q422 521 430 500T447 447T456 385Q456 328 431 284T359 214T246 188Q243 172 239 151T235 125Q235 123 241 120T267 109T325 84Q383
60 414 37T457 -8T469 -52Q469 -92 442 -120T366 -164T253 -179ZM251 260Q296 260 323 271T363 309T376 387Q376 444 369 478T356 516Q354 518 339 519T306 521T275 522T261 523Q214 523 185 512T142 472T128 387Q128 313 156 287T251 260Z" />
<glyph unicode="h" horiz-adv-x="584" d="M85 0V753H168V518L147 537Q174 549 209 562T279 585T344 595Q403 595 436 571T482 501T496 387V0H413V358Q413 414 409 446T393 495Q383 509 369 512T333 516Q309 516 282 511T230 497T185 482T157 469L169 488L168 0H85Z" />
<glyph unicode="i" horiz-adv-x="295" d="M106 0V582H189V0H106ZM97 681V766H199V681H97Z" />
<glyph unicode="j" horiz-adv-x="307" d="M43 -180Q30 -180 16 -179T-7 -176T-17 -175L-8 -101Q-8 -101 0 -102T23 -104T53 -105Q79 -105 93 -97T112 -55T118 50V582H201V53Q201 -35 180 -86T123 -158T43 -180ZM109 681V766H211V681H109Z" />
<glyph unicode="k" horiz-adv-x="522" d="M423 0L174 314L406 582H513L269 320V315L531 0H423ZM90 0L95 321L90 753H173V0H90Z" />
<glyph unicode="l" horiz-adv-x="295" d="M106 0V753H189V0H106Z" />
<glyph unicode="m" horiz-adv-x="917" d="M101 0V582H157L166 525H170Q179 530 200 541T249 565T308 586T369 595Q412 595 443 575T488 520Q530 546 581 570T691 595Q745 595 775 569T817 496T829 383V0H746V355Q746 402 744 439T731 493Q721 509 704 512T675
516Q648 516 620 509T566 491T525 471T503 459Q505 443 506 425T507 387V0H424V358Q424 415 422 446T408 494Q398 508 383 512T354 516Q320 516 286 506T225 483T184 464V0H101Z" />
<glyph unicode="n" horiz-adv-x="601" d="M101 0V582H157L166 525H171Q180 530 201 541T251 565T313 586T379 595Q434 595 463 568T502 493T513 387V0H430V358Q430 417 428 448T415 495Q407 508 392 512T360 516Q324 516 287 505T221 481T184 463V0H101Z" />
<glyph unicode="o" horiz-adv-x="576" d="M288 -13Q205 -13 158 24T90 129T70 291Q70 385 90 453T157 558T288 595Q371 595 418 558T486 453T506 291Q506 197 486 129T419 24T288 -13ZM288 59Q326 59 351 68T392 101T414 171T421 291Q421 365 415 411T393 481T352
514T288 523Q250 523 225 515T184 482T161 411T154 291Q154 217 161 171T183 101T224 68T288 59Z" />
<glyph unicode="p" horiz-adv-x="577" d="M85 -166V582H141L152 523H158Q177 537 202 553T259 582T331 595Q385 595 424 565T485 470T507 302Q507 205 489 144T441 48T373 0T296 -14Q272 -14 247 -12T202 -7T168 -1V-166H85ZM315 60Q326 60 342 62T372 76Q386
88 396 113T413 188T419 318Q419 384 416 421T406 477T390 504Q385 509 373 515T334 521Q302 521 269 511T208 488T168 467V81Q189 75 231 68T315 60Z" />
<glyph unicode="q" horiz-adv-x="577" d="M404 -166V21Q387 13 366 5T319 -8T260 -13Q224 -13 191 1T130 49T86 145T70 302Q70 413 94 477T165 568T281 595Q317 595 353 590T419 578T468 566T487 561V-166H404ZM252 61Q311 61 347 73T404 94V504Q394 507 378 511T335
518T267 521Q234 521 218 517T190 500Q175 483 166 439T157 302Q157 201 168 150T197 79Q207 69 218 65T252 61Z" />
<glyph unicode="r" horiz-adv-x="395" d="M101 0V582H154L165 523H171Q171 523 186 534T227 559T280 584T334 595Q349 595 362 593T375 590L368 510Q368 510 355 511T331 512Q303 512 275 504T222 484T184 461V0H101Z" />
<glyph unicode="s" horiz-adv-x="492" d="M245 -13Q208 -13 174 -6T113 11T71 28T55 35L76 106Q76 106 91 99T133 83T192 66T260 59Q280 59 297 62T324 75Q335 85 344 105T353 153Q353 195 333 217T281 251T213 273Q184 281 156 291T106 318T70 363T56 437Q56
508 99 551T246 595Q281 595 313 591T369 581T406 571L393 501Q393 501 380 504T343 512T291 519T230 523Q200 523 182 520T155 509Q146 502 140 487T134 450Q134 408 157 387T217 355T293 332Q320 324 345 313T390 284T422 238T434 169Q434 88 386 38T245 -13Z"
/>
<glyph unicode="t" horiz-adv-x="364" d="M253 -14Q210 -14 178 0T129 56T111 180V483H45V535L114 549L136 685H194V548H310V481H194V174Q194 119 197 94T212 63T255 56Q271 56 283 56T302 57T309 58V-9Q309 -9 294 -11T253 -14Z" />
<glyph unicode="u" horiz-adv-x="600" d="M234 -13Q194 -13 161 6T108 71T88 195V582H171V226Q171 171 174 136T185 87Q192 76 207 71T243 66Q288 66 332 83T416 119V582H499V0H443L433 56H427Q412 48 382 32T314 1T234 -13Z" />
<glyph unicode="v" horiz-adv-x="474" d="M183 0L14 582H103L234 71H240L370 582H459L291 0H183Z" />
<glyph unicode="w" horiz-adv-x="727" d="M139 0L24 582H109L197 65H202L303 505H425L526 65H531L619 582H704L589 0H467L367 440H361L261 0H139Z" />
<glyph unicode="x" horiz-adv-x="491" d="M17 0L191 303L19 582H113L240 349H245L369 582H463L291 301L466 0H369L242 251H237L113 0H17Z" />
<glyph unicode="y" horiz-adv-x="479" d="M119 -166L197 61L11 582H100L234 157H238L372 582H461L265 37L207 -166H119Z" />
<glyph unicode="z" horiz-adv-x="471" d="M34 0V67L333 512V517L47 513V582H429V515L131 72V65L435 69V0H34Z" />
<glyph unicode="{" horiz-adv-x="417" d="M333 -124Q260 -124 218 -77T176 77V186Q176 231 166 253T131 285T56 302V376Q103 383 129 393T165 426T176 493V592Q176 662 195 704T249 765T330 784Q347 784 365 783T383 781L379 716Q379 716 368 716T343 718T319
719Q298 719 285 711T266 675T259 590V492Q259 444 247 414T219 369T187 348T165 341V335Q171 334 186 329T218 308T247 263T259 182V77Q259 18 266 -11T287 -50T321 -59L379 -56L383 -122L333 -124Z" />
<glyph unicode="|" horiz-adv-x="280" d="M103 -81V753H177V-81H103Z" />
<glyph unicode="}" horiz-adv-x="417" d="M84 -123L34 -122L38 -56L96 -58Q117 -58 130 -49T151 -11T158 77V182Q158 232 170 262T199 308T231 328T252 335V341Q246 342 231 347T199 368T170 414T158 492V590Q158 647 152 674T133 710T98 719Q88 719 74 718T49
717T38 716L34 781Q34 781 52 782T87 784Q133 784 167 765T221 704T241 592V493Q241 449 251 426T288 393T361 376V302Q313 295 287 285T251 253T241 186V77Q241 -29 200 -76T84 -123Z" />
<glyph unicode="~" horiz-adv-x="524" d="M380 215Q362 215 332 226T265 252T196 278T139 289Q126 289 110 281T79 263T57 247L27 289Q37 300 56 317T98 349T145 363Q172 363 204 352T270 327T333 301T386 290Q403 290 426 300T464 319L490 278Q482 267 466 252T429
226T380 215Z" />
<glyph unicode="&#xa0;" horiz-adv-x="240" />
<glyph unicode="&#xa1;" horiz-adv-x="268" d="M89 -112L103 393H168L182 -112H89ZM80 493V582H188V493H80Z" />
<glyph unicode="&#xa2;" horiz-adv-x="518" d="M269 -118V-11Q179 -2 125 70T70 293Q70 397 96 459T167 553T269 592V694H342V595Q376 594 408 589T463 579L453 509Q434 511 393 516T305 522Q268 522 243 516T203 496Q184 475 171 420T157 287Q157 216 168 173T194
107T221 75Q229 69 242 64T281 59Q310 59 340 66T395 82T435 98T451 105L477 40Q477 40 461 30T414 7T342 -10V-118H269Z" />
<glyph unicode="&#xa3;" horiz-adv-x="557" d="M72 0V74H160V346H72V411H160Q161 499 178 556T226 647T297 694T383 708Q416 708 449 703T503 692L494 622Q470 626 439 630T372 635Q336 635 316 629T284 609Q268 589 257 538T244 411H424V346H244V75L488 77V0H72Z" />
<glyph unicode="&#xa4;" horiz-adv-x="649" d="M129 101L75 157L132 214Q115 240 104 274T92 351Q92 395 104 429T134 489L78 546L133 602L191 544Q256 586 329 586Q364 586 398 576T463 546L521 603L577 548L520 492Q540 466 552 432T565 351Q565 305 553 271T523
211L580 154L524 100L467 155Q402 113 329 113Q253 113 186 158L129 101ZM329 187Q411 187 448 224T485 350Q485 437 442 474T329 512Q260 512 216 475T172 350Q172 262 216 225T329 187Z" />
<glyph unicode="&#xa5;" horiz-adv-x="544" d="M47 270V336H196L25 695H119L268 337H274L422 695H516L344 336H494V270H47ZM228 0V146H47V212H494V146H311V0H228Z" />
<glyph unicode="&#xa6;" horiz-adv-x="280" d="M103 403V753H177V403H103ZM103 -81V269H177V-81H103Z" />
<glyph unicode="&#xa7;" horiz-adv-x="521" d="M259 -93Q217 -93 181 -86T117 -69T75 -52T60 -45L81 26Q81 26 97 19T139 3T197 -14T261 -21Q313 -21 332 -6Q344 2 352 21T361 70Q361 101 343 119T295 148T232 169Q189 182 150 200T85 249T59 328Q59 364 76 394T121
447Q102 465 91 490T79 551Q79 621 119 664T252 708Q303 708 347 699T407 685L394 615Q394 615 382 618T348 626T298 633T238 637Q217 637 201 633T177 622Q169 615 163 600T157 562Q157 529 177 510T231 478T301 452Q342 438 381 421T445 377T470 302Q470 259
449 226T402 170Q419 154 429 130T439 74Q439 36 426 5T389 -48T332 -81T259 -93ZM343 208Q360 225 377 248T394 294Q394 326 361 342T282 375Q257 384 230 393T178 414Q161 396 149 375T137 326Q137 305 153 290T194 263T245 243Q278 232 301 224T343 208Z" />
<glyph unicode="&#xa8;" horiz-adv-x="285" d="M0 684V766H99V684H0ZM187 684V766H285V684H187Z" />
<glyph unicode="&#xa9;" horiz-adv-x="836" d="M417 -27Q341 -27 278 -1T168 71T97 182T72 322Q72 398 98 462T172 572T282 645T417 671Q493 671 556 645T666 573T738 462T764 322Q764 246 739 182T667 72T557 -1T417 -27ZM406 104Q363 104 327 125T270 192T248
316Q248 385 261 428T298 495T353 528T418 537Q432 537 451 536T489 532T517 525L512 460Q505 461 487 463T449 466T420 468Q392 468 377 465T355 453Q344 440 336 410T327 315Q327 260 337 229T358 188Q371 175 401 175Q430 175 457 182T501 195T518 202L536 141Q536
141 520 132T474 113T406 104ZM417 43Q503 43 564 77T659 173T692 322Q692 408 659 470T565 567T417 601Q336 601 275 567T179 471T144 322Q144 193 216 118T417 43Z" />
<glyph unicode="&#xaa;" horiz-adv-x="424" d="M159 289Q110 289 80 321T50 422Q50 468 71 495T128 534T208 546Q225 546 241 546T267 546T278 546Q278 584 274 604T256 632T212 640Q181 640 150 632T98 614T77 605L59 663Q59 663 73 669T109 682T158 696T209
702Q287 702 316 665T346 557V298H300L290 336H286Q286 336 267 325T219 301T159 289ZM177 352Q198 352 221 360T261 377T278 386V483Q278 483 259 484T207 486Q182 486 165 483T141 473Q132 466 127 453T121 416Q121 381 135 367T177 352Z" />
<glyph unicode="&#xab;" horiz-adv-x="460" d="M181 88L40 330L181 572L243 534L121 334V327L243 127L181 88ZM360 88L219 330L360 572L421 534L300 334V327L421 127L360 88Z" />
<glyph unicode="&#xac;" horiz-adv-x="587" d="M470 117V257H28V330H543V117H470Z" />
<glyph unicode="&#xad;" horiz-adv-x="389" d="M80 258V329H309V258H80Z" />
<glyph unicode="&#xae;" horiz-adv-x="836" d="M417 -27Q341 -27 278 -1T168 71T97 182T72 322Q72 398 98 462T172 572T282 645T417 671Q493 671 556 645T666 573T738 462T764 322Q764 246 739 182T667 72T557 -1T417 -27ZM417 43Q503 43 564 77T659 173T692 322Q692
408 659 470T565 567T417 601Q336 601 275 567T179 471T144 322Q144 193 216 118T417 43ZM281 118L284 311L282 524Q292 525 316 527T371 530T426 532Q490 532 527 503T564 402Q564 344 539 314T485 276V273L565 118H484L413 267L353 268V118H281ZM431 331Q463
331 476 347T489 401Q489 439 477 454T427 469Q402 469 378 467T354 464L352 335Q370 333 392 332T431 331Z" />
<glyph unicode="&#xaf;" horiz-adv-x="320" d="M0 690V755H320V690H0Z" />
<glyph unicode="&#xb0;" horiz-adv-x="347" d="M174 407Q137 407 102 422T45 470T23 558Q23 613 45 645T102 692T174 707Q211 707 245 693T302 646T324 558Q324 503 302 470T246 422T174 407ZM174 474Q209 474 231 492T253 558Q253 605 231 622T174 640Q138 640
116 623T94 558Q94 510 116 492T174 474Z" />
<glyph unicode="&#xb1;" horiz-adv-x="559" d="M242 155V327H52V397H242V568H316V397H507V327H316V155H242ZM52 17V89H507V17H52Z" />
<glyph unicode="&#xb2;" horiz-adv-x="370" d="M55 298V348L150 460Q185 501 203 527T227 570T234 602Q234 620 225 631T192 643Q170 643 150 638T111 625T76 606L50 658Q59 666 79 676T127 695T185 703Q217 703 242 691T283 657T298 603Q298 572 286 543T235
467L145 357V353L305 357V298H55Z" />
<glyph unicode="&#xb3;" horiz-adv-x="355" d="M169 290Q134 290 105 298T59 315T42 324L61 376Q61 376 70 372T95 362T130 352T169 348Q202 348 215 363T228 413Q228 452 209 466T154 481H104V535Q148 539 172 542T207 557T217 593Q217 620 205 632Q198 638 184
641T145 645Q129 645 114 644T69 639L64 694Q75 696 91 698T124 701T156 703Q211 703 247 682T283 601Q283 565 270 547T241 522T218 515V511Q233 509 251 500T282 470T295 410Q295 377 283 350T244 306T169 290Z" />
<glyph unicode="&#xb4;" horiz-adv-x="214" d="M20 654L0 704L184 788L214 721L20 654Z" />
<glyph unicode="&#xb5;" horiz-adv-x="601" d="M88 -166V582H172V225Q172 168 174 136T185 89Q193 77 207 71T251 64Q281 64 316 75T379 100T416 117V582H500V0H444L434 56H428Q420 51 400 40T353 17T298 -4T244 -13Q222 -13 204 -9T168 5L164 2L172 -166H88Z" />
<glyph unicode="&#xb6;" horiz-adv-x="658" d="M265 -154V194Q199 194 151 217T76 294T49 445Q49 541 75 595T149 672T265 695H560V-154H476V621H349V-154H265Z" />
<glyph unicode="&#xb7;" horiz-adv-x="300" d="M154 274Q140 274 127 279T106 297T97 331Q97 353 105 365T127 382T154 387Q168 387 180 382T201 365T210 331Q210 310 202 298T181 280T154 274Z" />
<glyph unicode="&#xb8;" horiz-adv-x="182" d="M73 -179Q46 -179 23 -175T0 -170V-108Q0 -108 12 -109T39 -111T64 -113Q94 -113 106 -108T118 -82Q118 -56 113 -32T104 6L163 10Q167 1 171 -14T178 -46T182 -79Q182 -125 151 -152T73 -179Z" />
<glyph unicode="&#xb9;" horiz-adv-x="371" d="M64 298V356H165V636H161L75 563L39 609L161 702L233 697V356H321V298H64Z" />
<glyph unicode="&#xba;" horiz-adv-x="357" d="M178 289Q120 289 86 314T38 385T23 495Q23 559 37 605T86 677T178 702Q238 702 272 677T320 606T334 495Q334 432 320 386T272 314T178 289ZM178 350Q210 350 229 361T256 403T265 495Q265 557 257 588T229 630T178
641Q147 641 129 630T102 588T93 495Q93 435 101 404T128 361T178 350Z" />
<glyph unicode="&#xbb;" horiz-adv-x="460" d="M101 88L39 127L161 327V334L39 534L101 572L242 330L101 88ZM279 88L218 127L339 327V334L218 534L279 572L420 330L279 88Z" />
<glyph unicode="&#xbc;" horiz-adv-x="881" d="M248 -9L434 382L590 733H664L487 351L323 -9H248ZM64 298V356H165V636H161L75 563L39 609L161 702L233 697V356H321V298H64ZM722 0L724 82H546V134L641 406L702 399L608 140V138L724 141L735 293H787V141L824 142V82H787V0H722Z"
/>
<glyph unicode="&#xbd;" horiz-adv-x="909" d="M252 -9L438 382L594 733H668L491 351L327 -9H252ZM64 298V356H165V636H161L75 563L39 609L161 702L233 697V356H321V298H64ZM594 0V51Q594 51 604 62T630 90T663 128T694 165Q714 190 732 214T761 261T773 304Q773
322 764 333T731 345Q709 345 689 340T650 327T615 308L589 360Q598 368 618 378T664 397T717 405Q753 405 780 393T822 359T837 305Q837 272 818 236T773 167Q763 153 748 135T718 99T693 71T683 59V55L844 59V0H594Z" />
<glyph unicode="&#xbe;" horiz-adv-x="857" d="M228 -9L414 382L570 733H644L467 351L303 -9H228ZM169 290Q134 290 105 298T59 315T42 324L61 376Q61 376 70 372T95 362T130 352T169 348Q202 348 215 363T228 413Q228 452 209 466T154 481H104V535Q148 539 172
542T207 557T217 593Q217 620 205 632Q198 638 184 641T145 645Q129 645 114 644T69 639L64 694Q75 696 91 698T124 701T156 703Q211 703 247 682T283 601Q283 565 270 546T241 521T218 513V509Q233 507 251 499T282 470T295 410Q295 377 283 350T244 306T169 290ZM700
0L702 82H524V134L619 406L680 399L586 140V138L702 141L713 293H765V141L802 142V82H765V0H700Z" />
<glyph unicode="&#xbf;" horiz-adv-x="463" d="M313 391V381Q313 330 298 296T260 240T212 197Q189 179 167 160T132 115T118 49Q118 15 130 -4T158 -36Q162 -39 176 -44T214 -49Q271 -49 317 -32T402 5L432 -63Q416 -72 388 -87T320 -114T230 -126Q171 -126 126
-103T56 -38T31 57Q31 108 48 142T91 201T145 247Q170 266 192 285T229 330T243 391H313ZM331 582V493H223V582H331Z" />
<glyph unicode="&#xc0;" horiz-adv-x="506" d="M5 0L194 695H312L501 0H415L362 208L404 184H104L144 208L91 0H5ZM146 219L118 258H388L360 219L247 658L294 621H212L259 658L146 219ZM362 733L127 799L153 867L380 784L362 733Z" />
<glyph unicode="&#xc1;" horiz-adv-x="506" d="M5 0L194 695H312L501 0H415L362 208L404 184H104L144 208L91 0H5ZM146 219L118 258H388L360 219L247 658L294 621H212L259 658L146 219ZM154 733L136 784L361 866L389 793L154 733Z" />
<glyph unicode="&#xc2;" horiz-adv-x="506" d="M5 0L194 695H312L501 0H415L362 208L404 184H104L144 208L91 0H5ZM146 219L118 258H388L360 219L247 658L294 621H212L259 658L146 219ZM134 733L106 771L227 866H278L399 771L371 733L256 794H249L134 733Z" />
<glyph unicode="&#xc3;" horiz-adv-x="506" d="M5 0L194 695H312L501 0H415L362 208L404 184H104L144 208L91 0H5ZM146 219L118 258H388L360 219L247 658L294 621H212L259 658L146 219ZM354 746Q338 746 309 753T247 770T191 787T159 794Q153 794 147 783T136
761T132 750L80 756Q80 813 99 835T153 857Q170 857 199 850T259 834T315 818T347 811Q354 811 359 822T369 843T373 854L426 847Q426 791 408 769T354 746Z" />
<glyph unicode="&#xc4;" horiz-adv-x="506" d="M5 0L194 695H312L501 0H415L362 208L404 184H104L144 208L91 0H5ZM146 219L118 258H388L360 219L247 658L294 621H212L259 658L146 219ZM110 762V844H209V762H110ZM297 762V844H395V762H297Z" />
<glyph unicode="&#xc5;" horiz-adv-x="506" d="M5 0L194 695H312L501 0H415L362 208L404 184H104L144 208L91 0H5ZM146 219L118 258H388L360 219L247 658L294 621H212L259 658L146 219ZM253 722Q232 722 213 729T182 755T169 804Q169 836 181 854T213 879T253
887Q274 887 293 880T324 854T337 804Q337 773 325 755T293 730T253 722ZM253 768Q271 768 279 775T287 804Q287 827 279 834T253 841Q235 841 226 834T217 804Q217 782 226 775T253 768Z" />
<glyph unicode="&#xc6;" horiz-adv-x="765" d="M-3 0L296 695H697V619L439 622L434 389H673V318H434L439 73L697 75V0H356V183H164L86 0H-3ZM185 256H356V627H338L185 256Z" />
<glyph unicode="&#xc7;" horiz-adv-x="583" d="M284 -179Q257 -179 234 -175T211 -170V-108Q211 -108 223 -109T250 -111T275 -113Q305 -113 317 -108T329 -82Q329 -56 324 -32T315 6L374 10Q378 1 382 -14T389 -46T393 -79Q393 -125 362 -152T284 -179ZM312 -14Q241
-14 187 20T103 133T72 340Q72 454 91 526T145 639T227 694T329 709Q353 709 386 707T450 701T497 693L487 621Q478 622 458 624T414 628T368 631T334 633Q285 633 256 628T212 606Q199 590 187 559T168 475T161 337Q161 231 181 168T222 84Q236 70 256 65T301
59Q339 59 374 67T437 86T481 105T497 113L526 47Q526 47 511 38T467 17T400 -5T312 -14Z" />
<glyph unicode="&#xc8;" horiz-adv-x="514" d="M105 0V695H446V621L151 624L190 662L183 364L146 389H422V318H146L183 347L190 34L151 72L446 74V0H105ZM385 733L150 799L176 867L403 784L385 733Z" />
<glyph unicode="&#xc9;" horiz-adv-x="514" d="M105 0V695H446V621L151 624L190 662L183 364L146 389H422V318H146L183 347L190 34L151 72L446 74V0H105ZM177 733L159 784L384 866L412 793L177 733Z" />
<glyph unicode="&#xca;" horiz-adv-x="514" d="M105 0V695H446V621L151 624L190 662L183 364L146 389H422V318H146L183 347L190 34L151 72L446 74V0H105ZM157 733L129 771L250 866H301L422 771L394 733L279 794H272L157 733Z" />
<glyph unicode="&#xcb;" horiz-adv-x="514" d="M105 0V695H446V621L151 624L190 662L183 364L146 389H422V318H146L183 347L190 34L151 72L446 74V0H105ZM133 762V844H232V762H133ZM320 762V844H418V762H320Z" />
<glyph unicode="&#xcc;" horiz-adv-x="295" d="M227 736L7 795L33 868L247 789L227 736ZM105 -1L108 318L105 695H190L186 388L190 0L105 -1Z" />
<glyph unicode="&#xcd;" horiz-adv-x="295" d="M71 736L53 789L264 869L292 794L71 736ZM105 -1L108 318L105 695H190L186 388L190 0L105 -1Z" />
<glyph unicode="&#xce;" horiz-adv-x="295" d="M34 733L8 773L122 866H173L287 773L261 733L151 794H144L34 733ZM105 -1L108 318L105 695H190L186 388L190 0L105 -1Z" />
<glyph unicode="&#xcf;" horiz-adv-x="295" d="M17 762V844H116V762H17ZM180 762V844H278V762H180ZM105 -1L108 318L105 695H190L186 388L190 0L105 -1Z" />
<glyph unicode="&#xd0;" horiz-adv-x="643" d="M52 321V391H308V321H52ZM314 -14Q294 -14 265 -13T205 -9T150 -4T117 -1V696Q121 696 143 698T197 702T263 707T325 709Q402 709 450 681T525 603T561 490T571 356Q571 218 538 137T446 21T314 -14ZM303 59Q357
59 383 66T422 87Q436 101 448 131T469 217T477 363Q477 454 465 523T424 616Q414 625 393 630T327 636Q287 636 250 633T186 627L201 667V31L183 72Q212 68 240 64T303 59Z" />
<glyph unicode="&#xd1;" horiz-adv-x="680" d="M105 0V695H218L501 101H504L491 695H575V0H462L179 594H176L189 0H105ZM440 746Q424 746 395 753T333 770T277 787T245 794Q239 794 233 783T222 761T218 750L166 756Q166 813 185 835T239 857Q256 857 285 850T345
834T401 818T433 811Q440 811 445 822T455 843T459 854L512 847Q512 791 494 769T440 746Z" />
<glyph unicode="&#xd2;" horiz-adv-x="656" d="M328 -14Q276 -14 230 2T148 57T92 168T72 349Q72 459 92 529T147 638T229 693T328 709Q381 709 427 694T508 639T564 529T584 349Q584 239 564 168T509 58T427 2T328 -14ZM328 62Q371 62 402 71T454 110T485 195T495
346Q495 440 486 497T456 583T404 623T328 633Q283 633 252 623T200 584T171 497T161 346Q161 252 171 196T201 110T253 72T328 62ZM437 733L202 799L228 867L455 784L437 733Z" />
<glyph unicode="&#xd3;" horiz-adv-x="656" d="M328 -14Q276 -14 230 2T148 57T92 168T72 349Q72 459 92 529T147 638T229 693T328 709Q381 709 427 694T508 639T564 529T584 349Q584 239 564 168T509 58T427 2T328 -14ZM328 62Q371 62 402 71T454 110T485 195T495
346Q495 440 486 497T456 583T404 623T328 633Q283 633 252 623T200 584T171 497T161 346Q161 252 171 196T201 110T253 72T328 62ZM229 733L211 784L436 866L464 793L229 733Z" />
<glyph unicode="&#xd4;" horiz-adv-x="656" d="M328 -14Q276 -14 230 2T148 57T92 168T72 349Q72 459 92 529T147 638T229 693T328 709Q381 709 427 694T508 639T564 529T584 349Q584 239 564 168T509 58T427 2T328 -14ZM328 62Q371 62 402 71T454 110T485 195T495
346Q495 440 486 497T456 583T404 623T328 633Q283 633 252 623T200 584T171 497T161 346Q161 252 171 196T201 110T253 72T328 62ZM209 733L181 771L302 866H353L474 771L446 733L331 794H324L209 733Z" />
<glyph unicode="&#xd5;" horiz-adv-x="656" d="M328 -14Q276 -14 230 2T148 57T92 168T72 349Q72 459 92 529T147 638T229 693T328 709Q381 709 427 694T508 639T564 529T584 349Q584 239 564 168T509 58T427 2T328 -14ZM328 62Q371 62 402 71T454 110T485 195T495
346Q495 440 486 497T456 583T404 623T328 633Q283 633 252 623T200 584T171 497T161 346Q161 252 171 196T201 110T253 72T328 62ZM429 746Q413 746 384 753T322 770T266 787T234 794Q228 794 222 783T211 761T207 750L155 756Q155 813 174 835T228 857Q245 857
274 850T334 834T390 818T422 811Q429 811 434 822T444 843T448 854L501 847Q501 791 483 769T429 746Z" />
<glyph unicode="&#xd6;" horiz-adv-x="656" d="M328 -14Q276 -14 230 2T148 57T92 168T72 349Q72 459 92 529T147 638T229 693T328 709Q381 709 427 694T508 639T564 529T584 349Q584 239 564 168T509 58T427 2T328 -14ZM328 62Q371 62 402 71T454 110T485 195T495
346Q495 440 486 497T456 583T404 623T328 633Q283 633 252 623T200 584T171 497T161 346Q161 252 171 196T201 110T253 72T328 62ZM185 762V844H284V762H185ZM372 762V844H470V762H372Z" />
<glyph unicode="&#xd7;" horiz-adv-x="575" d="M106 63L54 116L236 298L56 478L106 529L286 348L469 531L521 478L339 296L519 116L469 65L288 245L106 63Z" />
<glyph unicode="&#xd8;" horiz-adv-x="656" d="M108 -39L312 392L470 738H549L375 364L188 -39H108ZM328 -14Q276 -14 230 2T148 57T92 168T72 349Q72 459 92 529T147 638T229 693T328 709Q381 709 427 694T508 639T564 529T584 349Q584 239 564 168T509 58T427
2T328 -14ZM328 62Q371 62 402 71T454 110T485 195T495 346Q495 440 486 497T456 583T404 623T328 633Q283 633 252 623T200 584T171 497T161 346Q161 252 171 196T201 110T253 72T328 62Z" />
<glyph unicode="&#xd9;" horiz-adv-x="661" d="M330 -14Q258 -14 208 13T131 110T105 302V695H189V329Q189 239 195 186T216 106T258 71T330 62Q374 62 402 71T445 106T466 186T472 329V695H556V311Q556 183 530 113T453 14T330 -14ZM420 733L185 799L211 867L438
784L420 733Z" />
<glyph unicode="&#xda;" horiz-adv-x="661" d="M330 -14Q258 -14 208 13T131 110T105 302V695H189V329Q189 239 195 186T216 106T258 71T330 62Q374 62 402 71T445 106T466 186T472 329V695H556V311Q556 183 530 113T453 14T330 -14ZM262 733L244 784L469 866L497
793L262 733Z" />
<glyph unicode="&#xdb;" horiz-adv-x="661" d="M330 -14Q258 -14 208 13T131 110T105 302V695H189V329Q189 239 195 186T216 106T258 71T330 62Q374 62 402 71T445 106T466 186T472 329V695H556V311Q556 183 530 113T453 14T330 -14ZM212 733L184 771L305 866H356L477
771L449 733L334 794H327L212 733Z" />
<glyph unicode="&#xdc;" horiz-adv-x="661" d="M330 -14Q258 -14 208 13T131 110T105 302V695H189V329Q189 239 195 186T216 106T258 71T330 62Q374 62 402 71T445 106T466 186T472 329V695H556V311Q556 183 530 113T453 14T330 -14ZM188 762V844H287V762H188ZM375
762V844H473V762H375Z" />
<glyph unicode="&#xdd;" d="M210 0L213 259L16 695H107L250 347H256L398 695H489L292 259L295 0H210ZM187 733L169 784L394 866L422 793L187 733Z" />
<glyph unicode="&#xde;" horiz-adv-x="595" d="M103 0L106 325L103 695H187L186 604Q221 606 260 608T337 611Q430 611 481 553T532 379Q532 306 514 259T464 186T393 148T313 137Q296 137 272 138T224 140T186 143L187 0H103ZM324 208Q357 208 378 212T412 227Q430
244 436 285T443 389Q443 442 437 471T423 513T407 531Q396 538 372 542T321 547Q283 547 245 544T185 536V221Q202 217 241 213T324 208Z" />
<glyph unicode="&#xdf;" horiz-adv-x="615" d="M340 -13Q312 -13 290 -9T257 -3L267 60Q284 56 302 55T335 53Q395 53 423 83T451 191Q451 237 440 270T398 321T311 339H285V398Q351 405 381 433T412 526Q412 577 396 602T355 637T302 646Q238 646 214 609T189
492V0H105V491Q105 548 120 589T163 656T226 696T302 709Q341 709 376 698T439 663T482 607T498 531Q498 480 479 447T436 397T401 379V376Q419 374 442 365T488 336T524 282T539 195Q539 149 526 111T488 45T426 2T340 -13Z" />
<glyph unicode="&#xe0;" horiz-adv-x="569" d="M211 -13Q165 -13 130 8T74 71T54 172Q54 243 82 283T163 341T284 358H390Q390 408 388 445T371 501Q361 515 344 519T307 523Q268 523 231 516T163 498T114 481T96 473L67 538Q67 538 86 546T137 566T208 586T290
595Q358 595 398 569T455 495T473 383V0H419L407 61H401Q391 54 373 42T330 17T275 -4T211 -13ZM225 60Q261 60 293 70T351 94T390 115V281Q377 283 351 285T283 288Q190 288 168 269Q155 259 148 234T141 172Q141 113 160 87T225 60ZM345 654L151 721L181 788L365
704L345 654Z" />
<glyph unicode="&#xe1;" horiz-adv-x="569" d="M211 -13Q165 -13 130 8T74 71T54 172Q54 243 82 283T163 341T284 358H390Q390 408 388 445T371 501Q361 515 344 519T307 523Q268 523 231 516T163 498T114 481T96 473L67 538Q67 538 86 546T137 566T208 586T290
595Q358 595 398 569T455 495T473 383V0H419L407 61H401Q391 54 373 42T330 17T275 -4T211 -13ZM225 60Q261 60 293 70T351 94T390 115V281Q377 283 351 285T283 288Q190 288 168 269Q155 259 148 234T141 172Q141 113 160 87T225 60ZM200 654L180 704L364 788L394
721L200 654Z" />
<glyph unicode="&#xe2;" horiz-adv-x="569" d="M211 -13Q165 -13 130 8T74 71T54 172Q54 243 82 283T163 341T284 358H390Q390 408 388 445T371 501Q361 515 344 519T307 523Q268 523 231 516T163 498T114 481T96 473L67 538Q67 538 86 546T137 566T208 586T290
595Q358 595 398 569T455 495T473 383V0H419L407 61H401Q391 54 373 42T330 17T275 -4T211 -13ZM225 60Q261 60 293 70T351 94T390 115V281Q377 283 351 285T283 288Q190 288 168 269Q155 259 148 234T141 172Q141 113 160 87T225 60ZM159 659L130 693L251 802H302L423
693L394 659L280 730H273L159 659Z" />
<glyph unicode="&#xe3;" horiz-adv-x="569" d="M211 -13Q165 -13 130 8T74 71T54 172Q54 243 82 283T163 341T284 358H390Q390 408 388 445T371 501Q361 515 344 519T307 523Q268 523 231 516T163 498T114 481T96 473L67 538Q67 538 86 546T137 566T208 586T290
595Q358 595 398 569T455 495T473 383V0H419L407 61H401Q391 54 373 42T330 17T275 -4T211 -13ZM225 60Q261 60 293 70T351 94T390 115V281Q377 283 351 285T283 288Q190 288 168 269Q155 259 148 234T141 172Q141 113 160 87T225 60ZM358 675Q342 675 319 682T271
700T229 717T203 725Q197 725 191 714T180 691T176 679L124 685Q124 742 143 764T197 786Q214 786 236 779T282 763T323 746T349 738Q356 738 362 749T372 771T377 783L430 776Q430 720 412 698T358 675Z" />
<glyph unicode="&#xe4;" horiz-adv-x="569" d="M211 -13Q165 -13 130 8T74 71T54 172Q54 243 82 283T163 341T284 358H390Q390 408 388 445T371 501Q361 515 344 519T307 523Q268 523 231 516T163 498T114 481T96 473L67 538Q67 538 86 546T137 566T208 586T290
595Q358 595 398 569T455 495T473 383V0H419L407 61H401Q391 54 373 42T330 17T275 -4T211 -13ZM225 60Q261 60 293 70T351 94T390 115V281Q377 283 351 285T283 288Q190 288 168 269Q155 259 148 234T141 172Q141 113 160 87T225 60ZM134 684V766H233V684H134ZM321
684V766H419V684H321Z" />
<glyph unicode="&#xe5;" horiz-adv-x="569" d="M211 -13Q165 -13 130 8T74 71T54 172Q54 243 82 283T163 341T284 358H390Q390 408 388 445T371 501Q361 515 344 519T307 523Q268 523 231 516T163 498T114 481T96 473L67 538Q67 538 86 546T137 566T208 586T290
595Q358 595 398 569T455 495T473 383V0H419L407 61H401Q391 54 373 42T330 17T275 -4T211 -13ZM225 60Q261 60 293 70T351 94T390 115V281Q377 283 351 285T283 288Q190 288 168 269Q155 259 148 234T141 172Q141 113 160 87T225 60ZM277 647Q256 647 237 654T206
680T193 730Q193 763 205 781T237 806T277 814Q298 814 317 807T348 781T361 730Q361 698 349 680T317 655T277 647ZM277 693Q295 693 303 700T311 730Q311 754 303 761T277 768Q259 768 250 761T241 730Q241 707 250 700T277 693Z" />
<glyph unicode="&#xe6;" horiz-adv-x="883" d="M215 -13Q142 -13 98 32T54 171Q54 236 83 273T165 326T284 342H390Q390 412 388 445T371 499Q361 515 344 519T306 523Q268 523 231 516T163 498T114 481T96 473L67 538Q67 538 86 546T138 566T207 586T279 595Q344
595 383 576T443 519H447Q478 561 521 578T617 595Q681 595 725 570T794 486T818 329V270H475V234Q477 184 484 154T501 108T517 84Q531 72 550 66T606 60Q634 60 664 65T721 79T764 92T781 98L802 30Q802 30 788 24T748 9T688 -6T615 -13Q558 -13 513 4T437 68H430Q413
55 381 36T306 2T215 -13ZM228 61Q260 61 291 70T349 91T390 111V264Q379 266 356 269T279 272Q238 272 209 267T168 253Q155 243 148 221T141 162Q141 107 161 84T228 61ZM474 336L733 341Q733 394 729 433T710 496Q703 507 683 515T620 523Q571 523 546 513T507
485Q490 464 482 427T474 336Z" />
<glyph unicode="&#xe7;" horiz-adv-x="518" d="M271 -179Q244 -179 221 -175T198 -170V-108Q198 -108 210 -109T237 -111T262 -113Q292 -113 304 -108T316 -82Q316 -56 311 -32T302 6L361 10Q365 1 369 -14T376 -46T380 -79Q380 -125 349 -152T271 -179ZM300 -13Q232
-13 180 18T99 116T70 293Q70 382 89 441T143 533T223 581T321 595Q359 595 398 590T463 579L453 509Q434 511 393 516T305 522Q268 522 243 516T203 496Q184 475 171 420T157 287Q157 216 168 173T194 107T221 75Q229 69 242 64T281 59Q310 59 340 66T395 82T435
98T451 105L477 40Q477 40 455 27T393 1T300 -13Z" />
<glyph unicode="&#xe8;" horiz-adv-x="571" d="M304 -14Q235 -14 183 15T101 112T72 292Q72 409 102 475T185 568T302 596Q367 596 412 570T482 484T506 321V258H122L161 273Q157 207 164 168T183 109T203 82Q217 70 237 64T286 58Q315 58 343 62T395 73T438 86T469
96L490 29Q481 25 455 15T391 -5T304 -14ZM161 288L122 324L459 331L421 294Q422 365 419 416T398 494Q391 505 374 514T308 524Q257 524 232 513T192 484Q155 435 161 288ZM370 654L176 721L206 788L390 704L370 654Z" />
<glyph unicode="&#xe9;" horiz-adv-x="571" d="M304 -14Q235 -14 183 15T101 112T72 292Q72 409 102 475T185 568T302 596Q367 596 412 570T482 484T506 321V258H122L161 273Q157 207 164 168T183 109T203 82Q217 70 237 64T286 58Q315 58 343 62T395 73T438 86T469
96L490 29Q481 25 455 15T391 -5T304 -14ZM161 288L122 324L459 331L421 294Q422 365 419 416T398 494Q391 505 374 514T308 524Q257 524 232 513T192 484Q155 435 161 288ZM225 654L205 704L389 788L419 721L225 654Z" />
<glyph unicode="&#xea;" horiz-adv-x="571" d="M304 -14Q235 -14 183 15T101 112T72 292Q72 409 102 475T185 568T302 596Q367 596 412 570T482 484T506 321V258H122L161 273Q157 207 164 168T183 109T203 82Q217 70 237 64T286 58Q315 58 343 62T395 73T438 86T469
96L490 29Q481 25 455 15T391 -5T304 -14ZM161 288L122 324L459 331L421 294Q422 365 419 416T398 494Q391 505 374 514T308 524Q257 524 232 513T192 484Q155 435 161 288ZM184 659L155 693L276 802H327L448 693L419 659L305 730H298L184 659Z" />
<glyph unicode="&#xeb;" horiz-adv-x="571" d="M304 -14Q235 -14 183 15T101 112T72 292Q72 409 102 475T185 568T302 596Q367 596 412 570T482 484T506 321V258H122L161 273Q157 207 164 168T183 109T203 82Q217 70 237 64T286 58Q315 58 343 62T395 73T438 86T469
96L490 29Q481 25 455 15T391 -5T304 -14ZM161 288L122 324L459 331L421 294Q422 365 419 416T398 494Q391 505 374 514T308 524Q257 524 232 513T192 484Q155 435 161 288ZM159 684V766H258V684H159ZM346 684V766H444V684H346Z" />
<glyph unicode="&#xec;" horiz-adv-x="295" d="M224 657L5 734L33 802L244 707L224 657ZM106 0V582H189V0H106Z" />
<glyph unicode="&#xed;" horiz-adv-x="295" d="M71 657L51 707L264 802L291 734L71 657ZM106 0V582H189V0H106Z" />
<glyph unicode="&#xee;" horiz-adv-x="295" d="M40 660L7 693L121 802H174L288 693L256 660L152 730H144L40 660ZM106 0V582H189V0H106Z" />
<glyph unicode="&#xef;" horiz-adv-x="295" d="M7 684V766H106V684H7ZM190 684V766H288V684H190ZM106 0V582H189V0H106Z" />
<glyph unicode="&#xf0;" horiz-adv-x="576" d="M288 -13Q205 -13 158 22T90 122T70 276Q70 348 90 403T158 489T286 520Q333 520 364 507T415 479L420 482Q408 520 386 552T329 617L234 556L226 626L280 658Q260 673 243 684T210 706L247 766Q273 753 298 737T345
704L453 775L460 704L391 662Q439 613 463 550T497 418T506 286Q506 194 486 127T419 23T288 -13ZM288 58Q339 58 368 73T409 136T421 275Q421 347 408 384T366 434T288 448Q240 448 211 435T168 384T154 275Q154 183 166 136T208 74T288 58Z" />
<glyph unicode="&#xf1;" horiz-adv-x="601" d="M101 0V582H157L166 525H171Q180 530 201 541T251 565T313 586T379 595Q434 595 463 568T502 493T513 387V0H430V358Q430 417 428 448T415 495Q407 508 392 512T360 516Q324 516 287 505T221 481T184 463V0H101ZM382
675Q366 675 343 682T295 700T253 717T227 725Q221 725 215 714T204 691T200 679L148 685Q148 742 167 764T221 786Q238 786 260 779T306 763T347 746T373 738Q380 738 386 749T396 771T401 783L454 776Q454 720 436 698T382 675Z" />
<glyph unicode="&#xf2;" horiz-adv-x="576" d="M288 -13Q205 -13 158 24T90 129T70 291Q70 385 90 453T157 558T288 595Q371 595 418 558T486 453T506 291Q506 197 486 129T419 24T288 -13ZM288 59Q326 59 351 68T392 101T414 171T421 291Q421 365 415 411T393
481T352 514T288 523Q250 523 225 515T184 482T161 411T154 291Q154 217 161 171T183 101T224 68T288 59ZM356 654L162 721L192 788L376 704L356 654Z" />
<glyph unicode="&#xf3;" horiz-adv-x="576" d="M288 -13Q205 -13 158 24T90 129T70 291Q70 385 90 453T157 558T288 595Q371 595 418 558T486 453T506 291Q506 197 486 129T419 24T288 -13ZM288 59Q326 59 351 68T392 101T414 171T421 291Q421 365 415 411T393
481T352 514T288 523Q250 523 225 515T184 482T161 411T154 291Q154 217 161 171T183 101T224 68T288 59ZM221 654L201 704L385 788L415 721L221 654Z" />
<glyph unicode="&#xf4;" horiz-adv-x="576" d="M288 -13Q205 -13 158 24T90 129T70 291Q70 385 90 453T157 558T288 595Q371 595 418 558T486 453T506 291Q506 197 486 129T419 24T288 -13ZM288 59Q326 59 351 68T392 101T414 171T421 291Q421 365 415 411T393
481T352 514T288 523Q250 523 225 515T184 482T161 411T154 291Q154 217 161 171T183 101T224 68T288 59ZM170 659L141 693L262 802H313L434 693L405 659L291 730H284L170 659Z" />
<glyph unicode="&#xf5;" horiz-adv-x="576" d="M288 -13Q205 -13 158 24T90 129T70 291Q70 385 90 453T157 558T288 595Q371 595 418 558T486 453T506 291Q506 197 486 129T419 24T288 -13ZM288 59Q326 59 351 68T392 101T414 171T421 291Q421 365 415 411T393
481T352 514T288 523Q250 523 225 515T184 482T161 411T154 291Q154 217 161 171T183 101T224 68T288 59ZM369 675Q353 675 330 682T282 700T240 717T214 725Q208 725 202 714T191 691T187 679L135 685Q135 742 154 764T208 786Q225 786 247 779T293 763T334 746T360
738Q367 738 373 749T383 771T388 783L441 776Q441 720 423 698T369 675Z" />
<glyph unicode="&#xf6;" horiz-adv-x="576" d="M288 -13Q205 -13 158 24T90 129T70 291Q70 385 90 453T157 558T288 595Q371 595 418 558T486 453T506 291Q506 197 486 129T419 24T288 -13ZM288 59Q326 59 351 68T392 101T414 171T421 291Q421 365 415 411T393
481T352 514T288 523Q250 523 225 515T184 482T161 411T154 291Q154 217 161 171T183 101T224 68T288 59ZM145 684V766H244V684H145ZM332 684V766H430V684H332Z" />
<glyph unicode="&#xf7;" horiz-adv-x="618" d="M52 258V328H567V258H52ZM256 51V135H364V51H256ZM256 450V535H364V450H256Z" />
<glyph unicode="&#xf8;" horiz-adv-x="579" d="M90 -45L134 46L384 578L403 620H479L440 539L189 6L166 -45H90ZM289 -13Q206 -13 159 24T91 129T71 291Q71 385 91 453T158 558T289 595Q372 595 419 558T487 453T507 291Q507 197 487 129T420 24T289 -13ZM289
59Q327 59 352 68T393 101T415 171T422 291Q422 365 416 411T394 481T353 514T289 523Q251 523 226 515T185 482T162 411T155 291Q155 217 162 171T184 101T225 68T289 59Z" />
<glyph unicode="&#xf9;" horiz-adv-x="600" d="M234 -13Q194 -13 161 6T108 71T88 195V582H171V226Q171 171 174 136T185 87Q192 76 207 71T243 66Q288 66 332 83T416 119V582H499V0H443L433 56H427Q412 48 382 32T314 1T234 -13ZM368 654L174 721L204 788L388
704L368 654Z" />
<glyph unicode="&#xfa;" horiz-adv-x="600" d="M234 -13Q194 -13 161 6T108 71T88 195V582H171V226Q171 171 174 136T185 87Q192 76 207 71T243 66Q288 66 332 83T416 119V582H499V0H443L433 56H427Q412 48 382 32T314 1T234 -13ZM233 654L213 704L397 788L427
721L233 654Z" />
<glyph unicode="&#xfb;" horiz-adv-x="600" d="M234 -13Q194 -13 161 6T108 71T88 195V582H171V226Q171 171 174 136T185 87Q192 76 207 71T243 66Q288 66 332 83T416 119V582H499V0H443L433 56H427Q412 48 382 32T314 1T234 -13ZM182 659L153 693L274 802H325L446
693L417 659L303 730H296L182 659Z" />
<glyph unicode="&#xfc;" horiz-adv-x="600" d="M234 -13Q194 -13 161 6T108 71T88 195V582H171V226Q171 171 174 136T185 87Q192 76 207 71T243 66Q288 66 332 83T416 119V582H499V0H443L433 56H427Q412 48 382 32T314 1T234 -13ZM157 684V766H256V684H157ZM344
684V766H442V684H344Z" />
<glyph unicode="&#xfd;" horiz-adv-x="479" d="M119 -166L197 61L11 582H100L234 157H238L372 582H461L265 37L207 -166H119ZM153 654L133 704L317 788L347 721L153 654Z" />
<glyph unicode="&#xfe;" horiz-adv-x="591" d="M105 -166V753H184V571Q194 576 219 581T278 591T341 595Q429 595 475 525T521 293Q521 200 504 140T457 47T391 0T316 -13Q293 -13 257 -9T184 3V-166H105ZM315 60Q347 60 362 63T388 76Q397 85 408 110T426 181T434
298Q434 369 430 411T419 475T402 505Q392 513 373 517T332 521Q300 521 274 517T226 507T184 494V78Q214 72 245 66T315 60Z" />
<glyph unicode="&#xff;" horiz-adv-x="479" d="M119 -166L197 61L11 582H100L234 157H238L372 582H461L265 37L207 -166H119ZM97 684V766H196V684H97ZM284 684V766H382V684H284Z" />
<glyph unicode="&#x2013;" horiz-adv-x="577" d="M50 293V363H527V293H50Z" />
<glyph unicode="&#x2014;" horiz-adv-x="801" d="M70 293V363H731V293H70Z" />
<glyph unicode="&#x2018;" horiz-adv-x="226" d="M63 481Q61 500 60 516T59 548Q60 619 81 662T128 728L167 696Q151 676 144 655T136 598Q136 571 137 544T140 499T142 481H63Z" />
<glyph unicode="&#x2019;" horiz-adv-x="226" d="M98 466L59 498Q76 518 83 540T91 596Q91 607 90 626T88 665T85 699T84 713H163Q165 694 166 678T167 646Q166 576 146 533T98 466Z" />
<glyph unicode="&#x201a;" horiz-adv-x="264" d="M101 -114L62 -82Q78 -62 85 -40T93 16Q93 43 92 70T89 115T87 133H166Q168 114 169 98T170 66Q169 -5 148 -48T101 -114Z" />
<glyph unicode="&#x201c;" horiz-adv-x="366" d="M63 481Q61 500 60 516T59 548Q60 619 81 662T128 728L167 696Q151 676 144 655T136 598Q136 571 137 544T140 499T142 481H63ZM203 481Q201 500 200 516T199 548Q200 596 210 630T235 689T268 728L307 696Q291
676 284 655T276 598Q276 571 277 544T280 499T282 481H203Z" />
<glyph unicode="&#x201d;" horiz-adv-x="366" d="M238 466L199 498Q215 518 222 540T230 596Q230 623 229 650T226 695T224 713H303Q305 694 306 678T307 646Q306 575 285 532T238 466ZM98 466L59 498Q75 518 82 540T90 596Q90 623 89 650T86 695T84 713H163Q165
694 166 678T167 646Q167 599 157 564T131 506T98 466Z" />
<glyph unicode="&#x201e;" horiz-adv-x="404" d="M241 -115L202 -83Q218 -63 225 -41T233 15Q233 42 232 69T229 114T227 132H306Q308 113 309 97T310 65Q309 -6 288 -49T241 -115ZM101 -115L62 -83Q78 -63 85 -41T93 15Q93 42 92 69T89 114T87 132H166Q168 113
169 97T170 65Q169 -6 148 -49T101 -115Z" />
<glyph unicode="&#x2022;" horiz-adv-x="372" d="M187 324Q158 324 131 335T87 373T70 442Q70 485 87 510T131 547T187 558Q216 558 242 547T285 510T302 442Q302 399 285 373T242 336T187 324Z" />
<glyph unicode="&#x2039;" horiz-adv-x="282" d="M181 88L40 330L181 572L243 534L121 334V327L243 127L181 88Z" />
<glyph unicode="&#x203a;" horiz-adv-x="282" d="M101 88L39 127L161 327V334L39 534L101 572L242 330L101 88Z" />
</font>
</defs>
</svg>
