<?xml version="1.0" standalone="no"?>
<!DOCTYPE svg PUBLIC "-//W3C//DTD SVG 1.1//EN" "http://www.w3.org/Graphics/SVG/1.1/DTD/svg11.dtd">
<svg xmlns="http://www.w3.org/2000/svg">
<defs >
<font id="Jomhuria" horiz-adv-x="1079" ><font-face
    font-family="Jomhuria"
    units-per-em="3000"
    panose-1="0 0 5 0 0 0 0 0 0 0"
    ascent="1840"
    descent="-1160"
    alphabetic="0" />
<glyph unicode=" " glyph-name="space" horiz-adv-x="400" />
<glyph unicode="!" glyph-name="exclam" horiz-adv-x="580" d="M270 -19H308L479 146V181L308 345H270L106 181V146L270 -19ZM214 436H367Q369 567 393 675T477 943Q490 984 490 1033Q490 1125 442 1177T291 1230Q193 1230 142 1182T90 1037Q90 987 104 943Q163
783 187 675T214 436Z" />
<glyph unicode="&quot;" glyph-name="quotedbl" horiz-adv-x="807" d="M100 654H274L323 1338H60L100 654ZM524 654H698L747 1338H484L524 654Z" />
<glyph unicode="#" glyph-name="numbersign" horiz-adv-x="1275" d="M373 0L460 344H681L594 0H794L881 344H1098L1149 546H932L982 740H1199L1250 942H1033L1120 1289H920L832 942H612L699 1289H498L411 942H205L154 740H360L311 546H105L54 344H260L173 0H373ZM561
740H781L732 546H511L561 740Z" />
<glyph unicode="$" glyph-name="dollar" horiz-adv-x="834" d="M533 -187V-9Q662 21 729 120T796 384Q796 506 728 591T513 738Q499 747 472 761T429 786T395 810T369 841T361 879Q361 959 489 959Q542 959 600 937T698 868L748 1061Q746 1065 741 1071T718 1093T677
1124T616 1154T533 1177V1340H282V1168Q202 1148 148 1106T64 993T34 828Q34 780 44 737T70 661T110 599T156 550T206 511T253 482T295 460Q394 412 434 378T475 296Q475 251 440 234T324 217T175 257T65 353L40 110Q72 75 132 42T282 -9V-187H533Z" />
<glyph unicode="%" glyph-name="percent" horiz-adv-x="1882" d="M1455 80Q1418 80 1401 118T1384 239V515Q1384 627 1455 627Q1494 627 1510 587T1526 463V195Q1526 80 1455 80ZM1449 -22Q1653 -22 1737 69T1822 359Q1822 454 1805 521T1746 636T1635 708T1460
732Q1353 732 1281 707T1167 631T1108 511T1090 347Q1090 151 1171 65T1449 -22ZM425 517Q388 517 371 555T354 676V952Q354 1064 425 1064Q464 1064 480 1024T496 900V632Q496 517 425 517ZM419 415Q623 415 707 506T792 796Q792 891 775 958T716 1073T605 1145T430
1169Q323 1169 251 1144T137 1068T78 948T60 784Q60 588 141 502T419 415ZM419 0H664L1471 1170H1227L419 0Z" />
<glyph unicode="&amp;" glyph-name="ampersand" horiz-adv-x="1133" d="M784 36Q863 -18 1010 -18Q1026 -18 1053 -15L1130 160Q1060 175 989 234Q1020 275 1037 302T1071 391T1088 531L821 539Q828 518 825 488T816 435T801 388Q768 415 729 463T674 539Q801
618 861 705T922 905Q922 959 903 1007T844 1099T730 1169T558 1195Q336 1195 242 1117T147 886Q147 845 160 804T189 737T223 681T248 638Q155 600 84 525T13 349Q13 185 128 76T443 -34Q698 -34 784 36ZM310 343Q310 395 319 419T352 457Q450 289 612 176Q602
171 586 163T562 152T543 144T522 138T500 136Q424 136 367 194T310 343ZM553 1055Q638 1055 638 909Q638 861 635 835T612 772T554 704Q480 789 480 891Q480 1055 553 1055Z" />
<glyph unicode="&apos;" glyph-name="quotesingle" horiz-adv-x="383" d="M100 654H274L323 1338H60L100 654Z" />
<glyph unicode="(" glyph-name="parenleft" horiz-adv-x="592" d="M383 -280H571Q474 -131 419 66T363 569T418 1071T571 1418H383Q345 1377 311 1332T235 1207T162 1041T111 830T90 569Q90 38 383 -280Z" />
<glyph unicode=")" glyph-name="parenright" horiz-adv-x="592" d="M21 -280H209Q247 -239 281 -194T357 -69T430 97T481 308T502 569Q502 1100 209 1418H21Q67 1347 101 1273T166 1097T213 862T229 569Q229 264 174 67T21 -280Z" />
<glyph unicode="*" glyph-name="asterisk" horiz-adv-x="989" d="M507 569Q507 568 507 590T505 638T504 667Q504 730 515 785Q556 722 586 638Q611 567 637 536T714 504Q762 504 803 544T844 632Q844 676 820 701T737 757Q639 808 592 851Q604 852 630 852Q696
852 769 838Q814 829 835 829Q884 829 917 863T950 944Q950 995 916 1036T833 1077Q807 1077 709 1022T572 954Q606 1024 670 1095Q700 1128 714 1153T728 1210Q728 1259 692 1292T601 1325Q549 1325 516 1291T483 1202Q483 1203 483 1180T485 1133T486 1105Q486
1048 474 987Q440 1037 403 1135Q373 1210 355 1232Q325 1267 276 1267T187 1227T146 1139Q146 1094 171 1068T254 1013Q345 966 397 920Q386 919 364 919Q332 919 251 930T155 942Q105 942 73 908T40 828Q40 777 73 736T157 694Q182 694 285 750T418 817Q387 752
322 678Q299 652 289 639T271 604T262 561Q262 512 300 479T389 446Q441 446 474 480T507 569Z" />
<glyph unicode="+" glyph-name="plus" horiz-adv-x="1148" d="M463 20H685V414H1038V615H685V1006H463V615H110V414H463V20Z" />
<glyph unicode="," glyph-name="comma" horiz-adv-x="415" d="M180 -248Q282 -160 335 -49T389 146V181L218 345H180L16 181V146L157 4Q144 -62 110 -115T42 -197L180 -248Z" />
<glyph unicode="-" glyph-name="hyphen" horiz-adv-x="758" d="M80 464H678V715H80V464Z" />
<glyph unicode="." glyph-name="period" horiz-adv-x="409" d="M180 -19H218L389 146V181L218 345H180L16 181V146L180 -19Z" />
<glyph unicode="/" glyph-name="slash" horiz-adv-x="709" d="M27 0H292L682 1289H418L27 0Z" />
<glyph unicode="0" glyph-name="zero" horiz-adv-x="1047" d="M396 453V704Q396 882 425 952T521 1022Q651 1022 651 739V498Q651 353 636 278T595 180T521 157Q456 157 426 223T396 453ZM500 -21Q622 -21 712 6T861 82T955 208T1005 375T1019 584Q1019 698 1008
783T966 949T884 1080T747 1161T545 1191Q423 1191 333 1163T184 1086T91 959T42 791T28 582Q28 468 39 382T80 217T163 88T299 9T500 -21Z" />
<glyph unicode="1" glyph-name="one" horiz-adv-x="655" d="M200 0H535V1171H314Q295 1117 265 1080T193 1022T113 991T19 973V760L200 780V0Z" />
<glyph unicode="2" glyph-name="two" horiz-adv-x="990" d="M936 0V276L336 231Q368 270 413 309T504 378T600 443T695 507T781 575T851 651T898 740T916 847Q916 924 893 983T831 1081T737 1144T621 1179T491 1189Q183 1189 74 1024L89 789L271 788L319 994Q364
1008 429 1008Q506 1008 545 929Q567 885 567 836Q567 751 498 663T267 442Q72 290 72 147Q72 26 77 12L83 0H936Z" />
<glyph unicode="3" glyph-name="three" horiz-adv-x="852" d="M354 -20Q569 -20 687 70T805 292Q805 442 730 522T527 613Q765 633 765 855Q765 929 743 988T673 1093T545 1164T354 1189Q192 1189 50 1098V934Q120 987 208 987Q299 987 354 946T409 814Q409 722
355 690T191 657H178V520H204Q409 520 409 347Q409 313 402 287T374 235T312 195T208 180Q120 180 50 233V69Q190 -20 354 -20Z" />
<glyph unicode="4" glyph-name="four" horiz-adv-x="1073" d="M551 418H257L551 860V418ZM551 0H895V222H1026V418H895V1172H594L12 419L32 222H551V0Z" />
<glyph unicode="5" glyph-name="five" horiz-adv-x="944" d="M368 -20Q619 -20 742 91T866 400Q866 495 836 565T752 676T636 736T497 756Q452 756 399 745T319 716L361 925H778L847 1172H144L78 504Q215 559 326 559Q435 559 485 513T536 388Q536 283 472 238T273
193Q228 193 160 212T61 257V75Q211 -20 368 -20Z" />
<glyph unicode="6" glyph-name="six" horiz-adv-x="1080" d="M538 181Q503 181 474 206T445 265V562Q451 613 539 613Q574 613 603 588T632 529V265Q632 232 603 207T538 181ZM1009 434Q1009 601 910 706T659 812Q512 812 456 770V812Q456 895 542 947Q609 988
688 988Q813 988 876 954L933 1099L932 1105Q895 1134 853 1151T749 1179T605 1189Q368 1189 218 1009T68 532Q68 378 125 253T290 54T535 -20Q738 -20 873 107T1009 434Z" />
<glyph unicode="7" glyph-name="seven" horiz-adv-x="859" d="M184 0H589Q586 54 586 107Q586 277 610 430T673 691T756 875T844 990L787 1171H40V906L583 929Q472 841 386 689T252 363T184 0Z" />
<glyph unicode="8" glyph-name="eight" horiz-adv-x="1005" d="M487 170Q407 178 370 218T334 344Q335 417 392 463Q422 443 462 420T523 385T565 356T595 323T604 285Q604 234 570 200T487 170ZM534 753Q524 759 502 771T468 790T439 809T412 833T397 861T390
897Q391 943 425 974T508 1005T601 967T647 878Q647 865 644 850T634 820T619 790T599 759T575 729Q552 742 534 753ZM487 -21Q623 -21 725 17T889 137T950 338Q950 393 932 440T877 525T802 593T708 654Q761 681 799 712T858 777T889 843T900 911Q901 963 875
1011T801 1099T677 1161T509 1185Q306 1185 194 1099T79 856Q78 797 91 749T130 664T184 601T252 548Q187 531 139 488T68 395T46 297Q46 200 106 127T265 16T487 -21Z" />
<glyph unicode="9" glyph-name="nine" horiz-adv-x="1100" d="M485 -20Q638 -20 756 68T938 313T1002 667Q1002 899 873 1044T535 1189Q401 1189 294 1138T124 986T61 755Q61 586 161 472T411 357Q463 357 519 373T614 419V377Q614 326 579 280T491 208T382 181Q379
181 367 181T348 180T326 182T298 187T269 196T233 212T194 235L137 90L138 84Q272 -20 485 -20ZM532 988Q567 988 596 963T625 904V627Q621 598 592 577T531 556Q496 556 467 581T438 640V904Q438 937 467 962T532 988Z" />
<glyph unicode=":" glyph-name="colon" horiz-adv-x="409" d="M180 -19H218L389 146V181L218 345H180L16 181V146L180 -19ZM180 487H218L389 652V687L218 851H180L16 687V652L180 487Z" />
<glyph unicode=";" glyph-name="semicolon" horiz-adv-x="415" d="M180 487H218L389 652V687L218 851H180L16 687V652L180 487ZM180 -248Q282 -160 335 -49T389 146V181L218 345H180L16 181V146L157 4Q144 -62 110 -115T42 -197L180 -248Z" />
<glyph unicode="&lt;" glyph-name="less" horiz-adv-x="914" d="M521 0H838L343 494L836 986H522L26 494L521 0Z" />
<glyph unicode="=" glyph-name="equal" horiz-adv-x="1148" d="M160 213H988V414H160V213ZM160 617H988V818H160V617Z" />
<glyph unicode="&gt;" glyph-name="greater" horiz-adv-x="914" d="M76 0H393L888 494L392 986H78L571 494L76 0Z" />
<glyph unicode="?" glyph-name="question" horiz-adv-x="848" d="M399 -19H437L608 146V181L437 345H399L235 181V146L399 -19ZM502 461L498 474Q495 482 495 491Q495 517 522 555T587 635T665 720T731 814T758 907Q758 1189 404 1189Q153 1189 62 995L198 913Q209
950 242 972T311 995Q359 995 387 969T416 888Q416 853 363 730T309 571Q309 502 331 462L502 461Z" />
<glyph unicode="@" glyph-name="at" horiz-adv-x="1571" d="M798 157Q721 157 721 261Q721 409 864 409L848 181V179L842 174Q835 168 823 163T798 157ZM804 -331Q971 -331 1059 -320L1074 -187Q957 -200 851 -200Q714 -200 614 -179T451 -120T351 -22T300 107T286
268Q286 467 315 609T410 854T588 1005T860 1055Q970 1055 1046 1041T1174 998T1253 919T1292 805T1304 648Q1304 642 1304 629Q1304 585 1304 562T1302 493T1297 420T1288 352T1272 286T1249 233T1216 188T1172 161T1115 150L1143 599Q1143 752 1084 812T860 872Q671
872 493 761L548 625Q642 674 745 674Q812 674 843 648T874 566Q874 557 872 535Q829 535 787 531T690 515T591 481T507 425T446 340T423 221Q423 162 445 116T502 44T577 4T655 -9Q718 -9 780 16T872 66L903 91Q904 90 914 74T928 55T942 40T964 24T992 13T1033
4T1084 2Q1305 2 1420 155T1535 575Q1535 1204 902 1204Q716 1204 561 1150T290 990T108 713T43 320Q43 5 234 -163T804 -331Z" />
<glyph unicode="A" glyph-name="A" horiz-adv-x="981" d="M642 0H1009L675 1172H262L286 1091L-19 0H275L313 187H597L642 0ZM442 828L548 391H354L442 828Z" />
<glyph unicode="B" glyph-name="B" horiz-adv-x="981" d="M475 196H397V521H475Q528 521 570 494T612 401V331Q612 276 579 236T475 196ZM598 872V847Q598 781 567 736T478 690H397V979H470Q532 979 565 956T598 872ZM543 -9Q652 -9 733 18T861 93T932 204T955
344Q955 600 719 621Q812 640 861 716T910 898Q910 967 891 1017T825 1105T699 1162T501 1181Q465 1181 384 1177T240 1172H67V0H163Q217 -1 341 -5T543 -9Z" />
<glyph unicode="C" glyph-name="C" horiz-adv-x="830" d="M807 83L762 241Q726 215 670 203T563 190Q540 190 520 196T475 227T432 290T402 404T389 577Q389 743 408 831T463 950T566 981Q578 981 596 976L648 857H800L815 1087Q812 1091 806 1098T774 1123T717
1155T631 1180T514 1191Q379 1191 285 1150T138 1028T61 839T38 583Q38 444 61 339T136 150T282 23T506 -21Q568 -21 622 -11T708 15T764 46T798 72L807 83Z" />
<glyph unicode="D" glyph-name="D" horiz-adv-x="999" d="M462 164H398V999H473Q543 999 581 913T619 669V568Q619 352 579 258T462 164ZM493 -7Q603 -7 689 31T827 130T913 275T959 444T972 621Q972 895 862 1038T496 1181Q451 1181 372 1177T226 1172H67V0H226Q306
0 381 -3T493 -7Z" />
<glyph unicode="E" glyph-name="E" horiz-adv-x="800" d="M776 0V250L398 240V506L668 486V720H398V946L741 936L761 1172H67V0H776Z" />
<glyph unicode="F" glyph-name="F" horiz-adv-x="741" d="M398 0V437L668 417V665H398V937L727 917V1172H67V0H398Z" />
<glyph unicode="G" glyph-name="G" horiz-adv-x="1005" d="M781 106L793 0H971L972 688H527V484L659 454V352Q659 298 649 264T618 212T573 188T514 181Q443 181 420 286T396 608Q396 712 405 784T428 899T468 964T520 994T586 1001Q635 1001 657 989L714 856H896L911
1086Q909 1088 906 1092T888 1107T858 1127T813 1149T752 1170T675 1185T579 1191Q468 1191 381 1172T233 1113T130 1022T64 897T30 746T19 568Q19 435 43 331T121 146T264 22T479 -21Q654 -21 781 106Z" />
<glyph unicode="H" glyph-name="H" horiz-adv-x="1053" d="M398 0V478H655V0H986V1172H655V708H398V1172H67V0H398Z" />
<glyph unicode="I" glyph-name="I" horiz-adv-x="480" d="M70 0H411V1172H70V0Z" />
<glyph unicode="J" glyph-name="J" horiz-adv-x="661" d="M274 -19Q355 -19 415 2T511 57T569 144T598 251T606 376V1172H233L281 1084V357Q281 281 250 249T164 217Q132 217 112 223T59 247L62 40Q83 20 142 1T274 -19Z" />
<glyph unicode="K" glyph-name="K" horiz-adv-x="986" d="M634 0H1002Q981 31 936 129T849 326T759 513T682 622L980 1172H647L398 611V1172H67V0H398V546Q438 479 490 350T582 118T634 0Z" />
<glyph unicode="L" glyph-name="L" horiz-adv-x="722" d="M67 0H696V268H398V1172H67V0Z" />
<glyph unicode="M" glyph-name="M" horiz-adv-x="1350" d="M321 0L352 689L358 943L542 117H803L956 943L968 689L1019 0H1330L1244 1172H826L748 778L710 580L670 779L582 1172H113L20 0H321Z" />
<glyph unicode="N" glyph-name="N" horiz-adv-x="1083" d="M385 0V369L326 753L473 463L711 0H1016V1172H697V858L746 413L570 792L386 1172H18L67 1078V0H385Z" />
<glyph unicode="O" glyph-name="O" horiz-adv-x="1047" d="M406 453V704Q406 885 431 953T521 1022T613 952T641 739V498Q641 351 629 278T592 181T521 157Q457 157 432 222T406 453ZM500 -21Q622 -21 711 6T858 82T949 208T996 375T1009 584Q1009 665 1004 729T986
858T952 971T895 1063T811 1133T696 1175T545 1191Q423 1191 334 1163T188 1086T97 959T51 791T38 582Q38 501 43 437T61 308T95 195T152 105T236 36T350 -6T500 -21Z" />
<glyph unicode="P" glyph-name="P" horiz-adv-x="938" d="M398 0V248Q399 248 410 247T425 246T440 246T458 245T476 244T496 243T515 242T536 242Q614 242 684 277T809 377T896 543T929 769Q929 975 829 1078T535 1181Q466 1181 359 1177T199 1172H67V0H398ZM601
813V665Q601 565 558 512T435 459H398V979H446Q521 979 561 933T601 813Z" />
<glyph unicode="Q" glyph-name="Q" horiz-adv-x="1047" d="M521 147Q457 147 432 212T406 443V704Q406 932 451 990Q476 1022 521 1022Q585 1022 613 952T641 739V488Q641 248 604 187Q579 147 521 147ZM624 -324Q787 -324 869 -253Q871 -251 872 -250V-114Q863
-120 853 -124T831 -130T804 -133Q755 -133 732 -107T708 -1V4Q779 25 831 62T917 150T972 268T1001 412T1009 584Q1009 665 1004 729T986 858T952 971T895 1063T811 1133T696 1175T545 1191Q423 1191 334 1163T188 1086T97 959T51 791T38 582Q38 510 41 452T55
336T81 231T124 143T185 72T269 20T379 -12Q384 -181 439 -252T624 -324Z" />
<glyph unicode="R" glyph-name="R" horiz-adv-x="967" d="M396 390Q404 390 421 389T455 387T492 386T533 385Q536 385 538 385Q557 324 567 234T584 79T601 0H970Q949 27 932 81T901 190T869 300T819 395T741 446Q824 499 874 589T925 795Q925 991 819 1086T496
1181Q434 1181 339 1177T196 1172H64V0H396V390ZM396 576V988H415Q500 988 545 954T591 832V753Q591 713 585 683T567 634T542 603T508 586T470 578T428 576H396Z" />
<glyph unicode="S" glyph-name="S" horiz-adv-x="834" d="M416 -21Q601 -21 698 82T796 384Q796 506 728 591T513 738Q499 747 472 761T429 786T395 810T369 841T361 879Q361 959 489 959Q542 959 600 937T698 868L748 1061Q745 1066 738 1074T705 1104T646 1142T558
1171T437 1185Q34 1185 34 828Q34 762 54 705T100 611T167 541T234 493T295 460Q394 412 434 378T475 296Q475 251 440 234T324 217T175 257T65 353L40 110Q59 90 87 70T161 28T272 -7T416 -21Z" />
<glyph unicode="T" glyph-name="T" horiz-adv-x="846" d="M253 0H591V907H825V1172H19V907H253V0Z" />
<glyph unicode="U" glyph-name="U" horiz-adv-x="1033" d="M520 -21Q625 -21 704 -1T833 52T913 136T955 241T967 362V1172H651V410Q651 346 642 302T614 234T575 201T526 191Q475 191 449 238T422 413V1172H66V368Q66 300 79 244T124 138T207 53T337 -1T520 -21Z" />
<glyph unicode="V" glyph-name="V" horiz-adv-x="853" d="M265 0H628L918 1172H655L565 768L480 344L390 768L303 1172H-66L265 0Z" />
<glyph unicode="W" glyph-name="W" horiz-adv-x="1330" d="M550 0L653 471L776 0H1117L1375 1172H1071L1012 768L957 376L869 768L797 1172H470L547 875L521 768L420 376L341 768L288 1172H-45L234 0H550Z" />
<glyph unicode="X" glyph-name="X" horiz-adv-x="908" d="M262 0L376 270L425 392L463 270L571 0H959L634 643L945 1172H618L523 949L475 824L431 951L343 1172H-51L261 582L-66 0H262Z" />
<glyph unicode="Y" glyph-name="Y" horiz-adv-x="883" d="M281 0H640V372L933 1172H635L557 870L500 623L431 870L328 1172H-51L281 366V0Z" />
<glyph unicode="Z" glyph-name="Z" horiz-adv-x="876" d="M42 0H853V252L395 230L464 308L841 1001V1172H75V917L471 939L391 845L42 207V0Z" />
<glyph unicode="[" glyph-name="bracketleft" horiz-adv-x="627" d="M100 -283H557V-99H383V1233H557V1417H100V-283Z" />
<glyph unicode="\" glyph-name="backslash" horiz-adv-x="709" d="M417 0H682L291 1289H27L417 0Z" />
<glyph unicode="]" glyph-name="bracketright" horiz-adv-x="627" d="M70 -283H527V1417H70V1233H244V-99H70V-283Z" />
<glyph unicode="^" glyph-name="asciicircum" horiz-adv-x="1024" d="M283 220L383 524L478 828L558 524L635 220H1004L693 1172H330L20 220H283Z" />
<glyph unicode="_" glyph-name="underscore" horiz-adv-x="958" d="M-10 -265H968V-130H-10V-265Z" />
<glyph unicode="`" glyph-name="grave" horiz-adv-x="503" d="M289 966H453L313 1296H50L289 966Z" />
<glyph unicode="a" glyph-name="a" horiz-adv-x="837" d="M510 89L542 0H816L788 78V485Q788 595 771 666T714 784T608 850T443 870Q330 870 221 837T44 759L108 623Q146 643 213 657T342 672Q414 672 446 647T479 561V543Q445 543 408 540T324 528T235 506T150
469T78 415T29 342T10 246Q10 -21 280 -21Q320 -21 358 -10T422 18T469 50T500 78L510 89ZM431 155Q346 155 346 280Q346 350 382 383T479 417V177Q479 177 473 172T456 161T431 155Z" />
<glyph unicode="b" glyph-name="b" horiz-adv-x="951" d="M590 0Q673 0 737 34T843 130T905 270T926 444Q926 644 849 757T606 870Q567 870 533 861T471 837T425 806T390 772V1310H325L4 1260V1167L64 1131V0H390V47Q478 0 590 0ZM443 139Q431 139 418 140T390
146V666Q428 693 465 693Q514 693 545 647T577 514V344Q577 139 443 139Z" />
<glyph unicode="c" glyph-name="c" horiz-adv-x="777" d="M747 83L697 219Q663 192 611 180T508 168Q486 168 471 170T433 185T395 221T370 292T359 407Q359 561 393 623T519 686Q533 686 541 684L598 531L740 532L755 767Q755 767 734 788Q638 871 464 871Q374
871 297 840T162 751T71 606T38 413Q38 217 145 98T456 -21Q516 -21 568 -11T652 15T706 46T738 72L747 83Z" />
<glyph unicode="d" glyph-name="d" horiz-adv-x="948" d="M637 0H892V1310H814L460 1260V1150L570 1113V810Q533 830 482 844T366 858Q257 858 180 798T67 640T31 415Q31 214 108 101T350 -12Q393 -12 432 0T497 28T546 65T579 101T598 129L637 0ZM496 184Q445
184 412 232T379 374V514Q380 718 513 719Q539 719 570 712V209Q552 197 533 191T496 184Z" />
<glyph unicode="e" glyph-name="e" horiz-adv-x="861" d="M527 517H375V601Q375 637 377 660T389 706T417 739T466 750Q501 750 514 697T527 517ZM447 -21Q507 -21 573 -7T710 47T819 148L760 249Q732 223 691 204T609 176T533 167Q497 167 472 173T423 197T387
253T374 350V369H831V480Q831 685 746 777T464 870Q259 870 145 755T31 416Q31 322 53 246T122 108T252 13T447 -21Z" />
<glyph unicode="f" glyph-name="f" horiz-adv-x="562" d="M426 0V674H555V850H426V993Q426 1112 503 1124Q514 1126 527 1126Q578 1126 626 1102L664 1254Q649 1269 589 1287T461 1305Q385 1305 324 1287T212 1227T133 1112T105 937V850L4 807V674H101V0H426Z" />
<glyph unicode="g" glyph-name="g" horiz-adv-x="939" d="M463 -353Q879 -353 879 37V705L939 747V841L751 850H598L581 803Q490 858 366 858Q284 858 219 824T114 729T52 589T31 415Q31 214 108 101T350 -12Q472 -12 557 76V-9Q556 -31 554 -49T541 -89T515 -127T470
-153T400 -164T304 -148T223 -113L160 -250Q189 -282 287 -317T463 -353ZM495 170Q426 170 396 249Q379 295 379 359V514Q380 718 513 719Q533 719 557 714V187Q525 170 495 170Z" />
<glyph unicode="h" glyph-name="h" horiz-adv-x="936" d="M388 0V583Q389 584 398 592T410 602T421 610T434 618T447 624T462 629T478 630Q561 630 558 536V0H888V507Q888 514 889 526Q889 538 889 544Q889 720 833 795T639 870Q600 870 560 855T490 818T438 774T402
736L390 721V1310H325L4 1260V1167L64 1131V0H388Z" />
<glyph unicode="i" glyph-name="i" horiz-adv-x="461" d="M78 0H400V850H233L18 791V684L78 647V0ZM223 942H261L432 1107V1142L261 1306H223L59 1142V1107L223 942Z" />
<glyph unicode="j" glyph-name="j" horiz-adv-x="488" d="M157 -344Q304 -344 375 -224T447 117V850H290L60 797V690L133 650V47Q133 -6 129 -44T120 -104T105 -138T89 -154T71 -158Q27 -158 -17 -130L-68 -238Q18 -344 157 -344ZM283 942H321L492 1107V1142L321
1306H283L119 1142V1107L283 942Z" />
<glyph unicode="k" glyph-name="k" horiz-adv-x="913" d="M565 0H955L687 457L949 850H574L410 409L565 0ZM64 0H390V1310H325L4 1260V1167L64 1131V0Z" />
<glyph unicode="l" glyph-name="l" horiz-adv-x="447" d="M67 0H393V1310H328L7 1260V1167L67 1131V0Z" />
<glyph unicode="m" glyph-name="m" horiz-adv-x="1436" d="M401 0V583Q403 585 408 589T416 596T424 602T433 609T441 614T450 619T459 623T469 627T479 629T491 630Q574 630 571 536V0H901V478Q901 534 898 582Q948 630 977 630Q1020 630 1041 605T1062 536V0H1387V507Q1387
649 1363 727T1287 837T1140 870Q1055 870 985 819T880 708Q858 794 805 832T652 870Q613 870 574 855T507 820T453 776T418 740T403 721V850H233L18 791V684L78 647V0H401Z" />
<glyph unicode="n" glyph-name="n" horiz-adv-x="949" d="M401 0V583Q403 585 408 589T416 596T424 602T433 609T441 614T450 619T459 623T469 627T479 629T491 630Q574 630 571 536V0H901V507Q901 514 902 526Q902 538 902 544Q902 720 846 795T652 870Q613 870
573 855T503 818T451 774T415 736L403 721V850H233L18 791V684L78 647V0H401Z" />
<glyph unicode="o" glyph-name="o" horiz-adv-x="961" d="M480 99Q388 99 388 288V613Q388 677 412 712T479 747Q571 747 571 552V236Q571 172 548 136T480 99ZM472 -21Q709 -21 819 89T930 429Q930 651 826 760T486 870Q245 870 138 756T31 415Q31 187 137 83T472 -21Z" />
<glyph unicode="p" glyph-name="p" horiz-adv-x="965" d="M590 0Q673 0 737 34T843 130T905 270T926 444Q926 644 849 757T606 870Q538 870 487 845T400 783V850H233L18 791V684L78 647V-302H400V42Q436 24 484 12T590 0ZM443 139Q433 139 423 140T400 144V672Q435
692 468 692Q516 692 546 648T577 514V344Q577 139 443 139Z" />
<glyph unicode="q" glyph-name="q" horiz-adv-x="910" d="M495 170Q426 170 396 249Q379 295 379 359V514Q380 718 513 719Q533 719 555 715V186Q540 178 525 174T495 170ZM877 -302V850H647L603 789Q595 795 581 803T537 826T461 849T366 858Q257 858 180 798T67
640T31 415Q31 214 108 101T350 -12Q470 -12 555 74V-302H877Z" />
<glyph unicode="r" glyph-name="r" horiz-adv-x="658" d="M401 0V457Q430 511 532 511Q603 511 624 492L658 848Q631 857 606 857Q384 857 343 612L314 850H233L18 797V684L78 647V0H401Z" />
<glyph unicode="s" glyph-name="s" horiz-adv-x="735" d="M341 -21Q728 -21 728 287Q728 393 675 464T505 574Q484 580 455 587T410 599T378 611T354 629T347 656Q347 712 442 712Q558 712 624 647L668 790Q668 790 650 807Q569 870 398 870Q298 870 217 841T84
748T32 593Q32 373 265 303Q355 276 395 256T435 209Q435 182 413 167T330 152Q247 152 168 176T54 233L28 72Q55 42 151 11T341 -21Z" />
<glyph unicode="t" glyph-name="t" horiz-adv-x="570" d="M312 -21Q380 -21 435 -6T515 23T554 53V189Q543 180 526 175T488 170Q440 170 417 196T394 302V674H561V850H397V1083H221L119 850L1 813V674H70V334Q70 141 123 60T312 -21Z" />
<glyph unicode="u" glyph-name="u" horiz-adv-x="936" d="M567 133L598 0H875V850H494V735L548 699V229Q545 227 540 223T532 216T524 211T516 205T508 201T500 197T491 195T481 193T470 192Q428 192 412 213T397 280V850H34V735L69 699V343Q69 147 129 63T331
-21Q376 -21 420 -2T494 45T542 96T567 133Z" />
<glyph unicode="v" glyph-name="v" horiz-adv-x="820" d="M271 0H586L841 850H571L497 543L446 278L400 543L336 850H-23L271 0Z" />
<glyph unicode="w" glyph-name="w" horiz-adv-x="1279" d="M538 0L643 350L741 0H1045L1301 850H1087L952 308L850 850H504L551 680L460 308L339 850H-22L233 0H538Z" />
<glyph unicode="x" glyph-name="x" horiz-adv-x="820" d="M265 0L363 237L463 0H842L604 444L828 850H555L451 624L363 850H-22L210 417L-7 0H265Z" />
<glyph unicode="y" glyph-name="y" horiz-adv-x="930" d="M488 -344Q685 -344 779 -224T873 117V850H492V735L547 699V229Q533 217 521 209T495 197T469 192Q425 192 411 213T396 281V850H32V735L68 699V344Q68 146 129 63T339 -21Q378 -21 415 -5T479 33T525
78T556 117L566 133V47Q565 -13 553 -54T518 -117T466 -149T397 -158Q271 -158 213 -125L161 -233Q203 -284 294 -314T488 -344Z" />
<glyph unicode="z" glyph-name="z" horiz-adv-x="800" d="M56 0H767V302H650Q632 235 622 219Q597 178 514 166Q459 158 363 158L486 249L783 689Q767 728 755 772T737 850H68V557H206Q208 563 215 582T225 609T240 635T262 660T294 681T340 700T401 710T483 715L371
632L15 176Q27 143 40 89T56 0Z" />
<glyph unicode="{" glyph-name="braceleft" horiz-adv-x="670" d="M535 -280H628V-136Q543 -136 504 -84T465 54V308Q465 361 446 406T398 481T334 532T269 564T216 578Q240 582 269 592T334 624T398 675T445 750T465 850V1084Q465 1239 577 1268Q601 1274 628
1274V1418H535Q439 1418 360 1370T237 1239T193 1057V797Q193 776 189 756T174 714T143 679T96 666H31V491H96Q123 491 142 478T172 445T188 403T193 360V81Q193 -18 237 -100T360 -231T535 -280Z" />
<glyph unicode="|" glyph-name="bar" horiz-adv-x="473" d="M110 -363H363V1577H110V-363Z" />
<glyph unicode="}" glyph-name="braceright" horiz-adv-x="670" d="M42 -280H135Q281 -280 379 -175T477 81V360Q477 433 517 470Q541 491 574 491H639V666H574Q523 666 500 707T477 797V1057Q477 1131 451 1197T380 1312T271 1389T135 1418H42V1274Q127 1274
166 1222T205 1084V850Q205 805 218 765T254 698T303 648T358 611T411 589T454 578Q430 575 401 565T337 532T273 481T225 407T205 308V54Q205 -32 166 -84T42 -136V-280Z" />
<glyph unicode="~" glyph-name="asciitilde" horiz-adv-x="1065" d="M243 298V328Q243 393 285 416Q301 424 320 424Q358 424 438 393T606 331T746 299Q885 299 955 374T1025 614V683H822V654Q822 557 737 557Q704 557 655 576T560 620T448 663T320 683Q266 683
218 666T129 614T64 516T40 368V298H243Z" />
<glyph unicode="&#xa0;" glyph-name="nbspace" horiz-adv-x="400" />
<glyph unicode="&#xa1;" glyph-name="exclamdown" horiz-adv-x="580" d="M280 -59Q378 -59 429 -11T481 134Q481 184 467 228Q408 388 384 496T357 735H204Q202 604 178 496T94 228Q81 187 81 138Q81 46 129 -6T280 -59ZM263 826H301L465 990V1025L301 1190H263L92
1025V990L263 826Z" />
<glyph unicode="&#xa2;" glyph-name="cent" horiz-adv-x="847" d="M747 83L697 219Q663 192 611 180T508 168Q486 168 471 170T433 185T395 221T370 292T359 407Q359 561 393 623T519 686Q521 686 522 686T526 686T529 686T533 686T536 686T540 685L598 531L740
532L755 767Q755 767 734 788Q670 843 566 862V1044H315V847Q253 825 203 786T115 693T58 568T38 413Q38 187 173 71Q229 24 302 1V-187H553V-13Q677 8 740 75Q747 82 747 83Z" />
<glyph unicode="&#xa3;" glyph-name="sterling" horiz-adv-x="1141" d="M142 -15Q172 11 225 37T336 63Q374 63 501 32T673 0Q720 0 771 8T881 37T985 89T1061 173T1092 291V430H792L793 401Q795 341 785 299T754 234T706 201T644 191Q638 191 597 195T518 203T427
199T336 173Q373 191 401 214T448 257T480 305T499 354T509 406T512 456T513 508Q513 517 513 521H711V722H517L518 879Q518 920 563 939T686 959Q739 959 797 937T895 868L945 1061Q942 1066 935 1074T902 1104T843 1142T755 1171T634 1185Q417 1185 294 1097T171
828V722H40V521H161Q162 505 163 497T165 488T167 487Q169 487 169 461Q169 256 58 173Q24 148 3 146L132 -24L142 -15Z" />
<glyph unicode="&#xa4;" glyph-name="currency" horiz-adv-x="1434" d="M739 73Q842 73 933 117L1051 -45H1324L1104 262Q1184 376 1184 517Q1184 592 1161 660T1093 787L1314 1094H1041L918 925Q833 962 739 962Q689 962 642 952T550 920L424 1094H151L378 777Q365
759 354 740T334 699T317 656T305 612T298 565T295 517Q295 373 378 258L161 -45H434L550 115Q639 73 739 73ZM835 271T739 271T583 343T523 517T583 691T739 764Q835 764 895 691T956 517T896 344Z" />
<glyph unicode="&#xa5;" glyph-name="yen" horiz-adv-x="1041" d="M990 334V585H792L1007 1172H709L631 870L574 623L505 870L402 1172H23L265 585H74V334H355V0H714V334H990Z" />
<glyph unicode="&#xa6;" glyph-name="brokenbar" horiz-adv-x="473" d="M110 -363H364L363 511H110V-363ZM110 703H363V1577H110V703Z" />
<glyph unicode="&#xa7;" glyph-name="section" horiz-adv-x="1051" d="M516 -41Q605 -41 679 -20T799 37T870 114T896 199Q896 241 881 278T838 348Q872 366 896 392T933 445T950 497T956 544Q956 581 942 616T908 676T857 727T802 767T748 798Q722 812 682 830T615
862T562 891T522 924T508 962Q508 1011 512 1020Q521 1039 580 1041Q589 1041 599 1041Q679 1041 748 1001T858 905L883 1148Q864 1168 836 1188T762 1230T651 1265T507 1279Q418 1279 344 1258T224 1201T153 1124T127 1039Q127 958 185 890Q85 837 69 725Q67 709
67 694Q67 550 275 440Q301 426 341 408T408 376T461 347T501 314T515 276Q515 227 511 218Q502 199 443 197Q434 197 424 197Q344 197 275 237T165 333L140 90Q159 70 187 50T261 8T372 -27T516 -41ZM493 553Q480 560 453 573T405 595T360 620T319 649T292 679T281
714Q281 730 287 743T303 765T328 781Q401 740 530 685Q542 679 578 662T637 632T687 602T728 564T742 524Q742 477 695 457Q622 498 493 553Z" />
<glyph unicode="&#xa8;" glyph-name="dieresis" horiz-adv-x="817" d="M196 977H229L381 1123V1154L229 1300H196L50 1154V1123L196 977ZM581 977H615L767 1123V1154L615 1300H581L435 1154V1123L581 977Z" />
<glyph unicode="&#xa9;" glyph-name="copyright" horiz-adv-x="1049" d="M724 536L698 628Q677 613 645 606T582 598Q481 598 481 823Q481 920 492 971T524 1040T584 1058Q586 1058 588 1058T593 1058T597 1057T602 1055L632 986H720L729 1120Q727 1122 723 1126T705
1141T672 1160T622 1174T554 1181Q401 1181 339 1092T277 827Q277 746 290 685T334 575T418 501T549 475Q606 475 650 490T709 521L724 536ZM506 343Q413 343 346 367T239 430T176 534T144 666T136 826Q136 947 153 1030T214 1181T339 1280T542 1313Q635 1313 702
1289T809 1225T873 1120T905 987T913 827Q913 731 903 660T865 526T793 426T676 365T506 343ZM506 247Q593 247 662 260T784 298T875 361T939 446T980 553T1002 680T1009 827Q1009 905 1004 966T986 1090T951 1198T894 1286T810 1353T694 1394T542 1409Q421 1409
332 1382T188 1308T99 1186T53 1026T40 826Q40 715 50 634T89 476T169 352T304 276T506 247Z" />
<glyph unicode="&#xaa;" glyph-name="ordfeminine" horiz-adv-x="753" d="M459 580L488 499H716L691 570V936Q691 1036 679 1099T633 1205T544 1265T399 1282Q298 1282 200 1252T40 1183L97 1060Q131 1078 191 1091T308 1104Q373 1104 402 1082T431 1004V988Q397
988 368 987T296 980T218 966T146 938T84 895T43 833T27 748Q27 624 88 553T252 481Q288 481 322 491T380 515T422 545T450 570L459 580ZM388 639Q311 639 311 751Q311 814 343 844T431 875V659Q430 659 425 654T410 644T388 639Z" />
<glyph unicode="&#xab;" glyph-name="guillemotleft" horiz-adv-x="1288" d="M411 122H695L471 492L695 854H411L80 492L411 122ZM904 122H1188L994 492L1188 854H904L603 492L904 122Z" />
<glyph unicode="&#xac;" glyph-name="logicalnot" horiz-adv-x="1148" d="M837 0H1038V615H110V414H837V0Z" />
<glyph unicode="&#xad;" glyph-name="uni00AD" horiz-adv-x="758" d="M80 464H678V715H80V464Z" />
<glyph unicode="&#xae;" glyph-name="registered" horiz-adv-x="1049" d="M484 710Q489 710 514 709T555 707H558Q566 678 571 638T578 568T583 511T590 478H784Q775 492 767 517T753 569T740 625T724 678T700 720T663 744Q692 764 713 793T747 864T760 952Q760
1069 705 1125T536 1182Q503 1182 453 1180T378 1177H310V478H484V710ZM484 821V1067H494Q522 1067 541 1060T573 1031T586 974V926Q586 891 580 869T560 837T533 824T500 821H484ZM506 343Q413 343 346 367T239 430T176 534T144 666T136 826Q136 947 153 1030T214
1181T339 1280T542 1313Q635 1313 702 1289T809 1225T873 1120T905 987T913 827Q913 731 903 660T865 526T793 426T676 365T506 343ZM506 247Q593 247 662 260T784 298T875 361T939 446T980 553T1002 680T1009 827Q1009 905 1004 966T986 1090T951 1198T894 1286T810
1353T694 1394T542 1409Q421 1409 332 1382T188 1308T99 1186T53 1026T40 826Q40 715 50 634T89 476T169 352T304 276T506 247Z" />
<glyph unicode="&#xb0;" glyph-name="degree" horiz-adv-x="779" d="M331 1320T389 1320T484 1276T522 1169T485 1063T389 1019T294 1063T257 1169T294 1275ZM390 867Q515 867 603 956T692 1170Q692 1296 604 1384T390 1473Q264 1473 176 1385T87 1170Q87 1045
175 956T390 867Z" />
<glyph unicode="&#xb1;" glyph-name="plusminus" horiz-adv-x="1148" d="M1038 0V201H685V534H1038V735H685V1126H463V735H110V534H463V201H110V0H1038Z" />
<glyph unicode="&#xb2;" glyph-name="uni00B2" horiz-adv-x="792" d="M749 980V1173L269 1142Q302 1177 354 1213T455 1275T556 1335T646 1400T708 1476T733 1573Q733 1639 706 1687T629 1762T522 1800T393 1812Q147 1812 59 1697L71 1532H217L255 1676Q291 1686
343 1686T424 1648T454 1565Q454 1506 399 1445T214 1289Q58 1183 58 1083Q58 996 62 988L66 980H749Z" />
<glyph unicode="&#xb3;" glyph-name="uni00B3" horiz-adv-x="682" d="M283 966Q455 966 549 1028T644 1184Q644 1289 585 1345T422 1409Q612 1423 612 1578Q612 1686 533 1749T283 1812Q154 1812 40 1749V1634Q97 1671 166 1671Q239 1671 283 1642T327 1550Q327
1485 284 1463T153 1440H142V1344H163Q327 1344 327 1223Q327 1172 294 1139T166 1106Q97 1106 40 1143V1028Q152 966 283 966Z" />
<glyph unicode="&#xb4;" glyph-name="acute" horiz-adv-x="503" d="M50 966H214L453 1296H190L50 966Z" />
<glyph unicode="&#xb5;" glyph-name="mu" horiz-adv-x="1223" d="M227 -297L315 157Q321 107 372 54T499 0Q600 0 671 34T824 167L841 0H1108L1140 182H1034L1174 986H804L700 359Q695 329 665 305T601 280Q549 280 530 316T520 412L620 986H251L20 -297H227Z" />
<glyph unicode="&#xb6;" glyph-name="paragraph" horiz-adv-x="1294" d="M728 0V975H889V0H1130V1170H489Q390 1169 309 1139T176 1057T96 939T68 797Q68 607 177 495T489 382L491 0H728Z" />
<glyph unicode="&#xb8;" glyph-name="cedilla" horiz-adv-x="587" d="M221 -564Q279 -564 332 -551T433 -511T508 -436T537 -325Q537 -301 535 -280T526 -241T514 -211T497 -184T479 -163T456 -144T435 -129T410 -114T387 -101L423 24H246L141 -170H174Q209 -173
239 -194T270 -252Q270 -299 239 -322T157 -345Q124 -345 91 -335L50 -517Q131 -564 221 -564Z" />
<glyph unicode="&#xb9;" glyph-name="uni00B9" horiz-adv-x="524" d="M160 980H428V1800H251Q239 1769 220 1746T180 1709T130 1685T75 1670T15 1661V1512L160 1526V980Z" />
<glyph unicode="&#xba;" glyph-name="ordmasculine" horiz-adv-x="847" d="M423 582Q384 582 367 623T349 752V1045Q349 1165 422 1165Q462 1165 479 1122T496 990V706Q496 582 423 582ZM416 474Q626 474 713 571T801 879Q801 980 783 1051T723 1174T608 1251T428
1276Q318 1276 243 1250T125 1169T64 1042T46 867Q46 658 129 566T416 474Z" />
<glyph unicode="&#xbb;" glyph-name="guillemotright" horiz-adv-x="1288" d="M593 122H877L1208 492L877 854H593L817 492L593 122ZM100 122H384L685 492L384 854H100L294 492L100 122Z" />
<glyph unicode="&#xbc;" glyph-name="onequarter" horiz-adv-x="1862" d="M462 0H687L1177 1289H953L462 0ZM195 680H463V1500H286Q274 1469 255 1446T215 1409T165 1385T110 1370T50 1361V1212L195 1226V680ZM1432 173H1197L1432 482V173ZM1432 -120H1707V35H1812V173H1707V700H1466L1001
173L1017 35H1432V-120Z" />
<glyph unicode="&#xbd;" glyph-name="onehalf" horiz-adv-x="1784" d="M1734 -120V73L1254 42Q1287 77 1339 113T1440 175T1541 235T1631 300T1693 376T1718 473Q1718 539 1691 587T1614 662T1507 700T1378 712Q1132 712 1044 597L1056 432H1202L1240 576Q1276
586 1328 586T1409 548T1439 465Q1439 406 1384 345T1199 189Q1043 83 1043 -17Q1043 -104 1047 -112L1051 -120H1734ZM462 0H687L1177 1289H953L462 0ZM195 680H463V1500H286Q274 1469 255 1446T215 1409T165 1385T110 1370T50 1361V1212L195 1226V680Z" />
<glyph unicode="&#xbe;" glyph-name="threequarters" horiz-adv-x="1955" d="M1525 173H1290L1525 482V173ZM1525 -120H1800V35H1905V173H1800V700H1559L1094 173L1110 35H1525V-120ZM555 0H780L1270 1289H1046L555 0ZM293 666Q465 666 559 728T654 884Q654 989
595 1045T432 1109Q622 1123 622 1278Q622 1386 543 1449T293 1512Q164 1512 50 1449V1334Q107 1371 176 1371Q249 1371 293 1342T337 1250Q337 1185 294 1163T163 1140H152V1044H173Q337 1044 337 923Q337 872 304 839T176 806Q107 806 50 843V728Q106 697 166
682T293 666Z" />
<glyph unicode="&#xbf;" glyph-name="questiondown" horiz-adv-x="848" d="M444 -199Q695 -199 786 -5L650 77Q639 40 606 18T537 -5Q489 -5 461 21T432 102Q432 137 485 260T539 419Q539 488 517 528L346 529L350 516Q353 506 353 499Q353 473 326 435T260 355T183
269T117 176T90 83Q90 -199 444 -199ZM411 645H449L613 809V844L449 1009H411L240 844V809L411 645Z" />
<glyph unicode="&#xc0;" glyph-name="Agrave" horiz-adv-x="981" d="M396 1288H560L420 1618H157L396 1288ZM642 0H1009L675 1172H262L286 1091L-19 0H275L313 187H597L642 0ZM442 828L548 391H354L442 828Z" />
<glyph unicode="&#xc1;" glyph-name="Aacute" horiz-adv-x="981" d="M382 1288H546L785 1618H522L382 1288ZM642 0H1009L675 1172H262L286 1091L-19 0H275L313 187H597L642 0ZM442 828L548 391H354L442 828Z" />
<glyph unicode="&#xc2;" glyph-name="Acircumflex" horiz-adv-x="981" d="M375 1288L463 1434L551 1288H734L540 1618H386L192 1288H375ZM642 0H1009L675 1172H262L286 1091L-19 0H275L313 187H597L642 0ZM442 828L548 391H354L442 828Z" />
<glyph unicode="&#xc3;" glyph-name="Atilde" horiz-adv-x="981" d="M238 1295V1322Q238 1357 253 1382T298 1407Q331 1407 444 1352T609 1296Q719 1296 772 1354T825 1557V1618H688V1592Q688 1551 672 1529T622 1506Q596 1506 561 1523T494 1562T414 1600T318
1618Q275 1618 239 1606T171 1567T120 1486T101 1357V1295H238ZM642 0H1009L675 1172H262L286 1091L-19 0H275L313 187H597L642 0ZM442 828L548 391H354L442 828Z" />
<glyph unicode="&#xc4;" glyph-name="Adieresis" horiz-adv-x="981" d="M251 1295H284L436 1441V1472L284 1618H251L105 1472V1441L251 1295ZM636 1295H670L822 1441V1472L670 1618H636L490 1472V1441L636 1295ZM642 0H1009L675 1172H262L286 1091L-19 0H275L313
187H597L642 0ZM442 828L548 391H354L442 828Z" />
<glyph unicode="&#xc5;" glyph-name="Aring" horiz-adv-x="981" d="M463 1413Q416 1413 383 1446T349 1527Q349 1573 382 1608T463 1643Q509 1643 543 1608T577 1527T544 1447T463 1413ZM374 1310T463 1310T616 1373T681 1527T617 1681T463 1745T309 1681T245
1527T309 1374ZM642 0H1009L675 1172H262L286 1091L-19 0H275L313 187H597L642 0ZM442 828L548 391H354L442 828Z" />
<glyph unicode="&#xc6;" glyph-name="AE" horiz-adv-x="1342" d="M608 0H1318V250L940 240V506L1210 486V720H940V946L1283 936L1303 1172H428L452 1091L-19 0H275L350 187H608V0ZM608 828V391H432L608 828Z" />
<glyph unicode="&#xc7;" glyph-name="Ccedilla" horiz-adv-x="830" d="M395 -534Q464 -534 524 -515T627 -447T671 -326Q671 -307 669 -290T664 -260T654 -234T643 -212T628 -193T613 -178T595 -164T577 -153T558 -142T540 -131L588 24H411L306 -170H339Q374 -173
404 -194T435 -252Q435 -299 404 -322T322 -345Q289 -345 256 -335L246 -493Q316 -534 395 -534ZM807 83L762 241Q726 215 670 203T563 190Q540 190 520 196T475 227T432 290T402 404T389 577Q389 743 408 831T463 950T566 981Q578 981 596 976L648 857H800L815
1087Q812 1091 806 1098T774 1123T717 1155T631 1180T514 1191Q379 1191 285 1150T138 1028T61 839T38 583Q38 444 61 339T136 150T282 23T506 -21Q568 -21 622 -11T708 15T764 46T798 72L807 83Z" />
<glyph unicode="&#xc8;" glyph-name="Egrave" horiz-adv-x="800" d="M354 1288H518L378 1618H115L354 1288ZM776 0V250L398 240V506L668 486V720H398V946L741 936L761 1172H67V0H776Z" />
<glyph unicode="&#xc9;" glyph-name="Eacute" horiz-adv-x="800" d="M340 1288H504L743 1618H480L340 1288ZM776 0V250L398 240V506L668 486V720H398V946L741 936L761 1172H67V0H776Z" />
<glyph unicode="&#xca;" glyph-name="Ecircumflex" horiz-adv-x="800" d="M333 1288L421 1434L509 1288H692L498 1618H344L150 1288H333ZM776 0V250L398 240V506L668 486V720H398V946L741 936L761 1172H67V0H776Z" />
<glyph unicode="&#xcb;" glyph-name="Edieresis" horiz-adv-x="800" d="M209 1295H242L394 1441V1472L242 1618H209L63 1472V1441L209 1295ZM594 1295H628L780 1441V1472L628 1618H594L448 1472V1441L594 1295ZM776 0V250L398 240V506L668 486V720H398V946L741
936L761 1172H67V0H776Z" />
<glyph unicode="&#xcc;" glyph-name="Igrave" horiz-adv-x="480" d="M173 1288H337L197 1618H-66L173 1288ZM70 0H411V1172H70V0Z" />
<glyph unicode="&#xcd;" glyph-name="Iacute" horiz-adv-x="480" d="M159 1288H323L562 1618H299L159 1288ZM70 0H411V1172H70V0Z" />
<glyph unicode="&#xce;" glyph-name="Icircumflex" horiz-adv-x="480" d="M152 1288L240 1434L328 1288H511L317 1618H163L-31 1288H152ZM70 0H411V1172H70V0Z" />
<glyph unicode="&#xcf;" glyph-name="Idieresis" horiz-adv-x="480" d="M28 1295H61L213 1441V1472L61 1618H28L-118 1472V1441L28 1295ZM413 1295H447L599 1441V1472L447 1618H413L267 1472V1441L413 1295ZM70 0H411V1172H70V0Z" />
<glyph unicode="&#xd0;" glyph-name="Eth" horiz-adv-x="999" d="M398 164V495H539V719H398V999H473Q543 999 581 913T619 669V568Q619 352 579 258T462 164H398ZM493 -7Q603 -7 689 31T827 130T913 275T959 444T972 621Q972 895 862 1038T496 1181Q451 1181 372
1177T226 1172H67V719H-31V495H67V0H226Q306 0 381 -3T493 -7Z" />
<glyph unicode="&#xd1;" glyph-name="Ntilde" horiz-adv-x="1083" d="M313 1295V1322Q313 1357 328 1382T373 1407Q406 1407 519 1352T684 1296Q794 1296 847 1354T900 1557V1618H763V1592Q763 1551 747 1529T697 1506Q671 1506 636 1523T569 1562T489 1600T393
1618Q350 1618 314 1606T246 1567T195 1486T176 1357V1295H313ZM385 0V369L326 753L473 463L711 0H1016V1172H697V858L746 413L570 792L386 1172H18L67 1078V0H385Z" />
<glyph unicode="&#xd2;" glyph-name="Ograve" horiz-adv-x="1047" d="M456 1288H620L480 1618H217L456 1288ZM406 453V704Q406 885 431 953T521 1022T613 952T641 739V498Q641 351 629 278T592 181T521 157Q457 157 432 222T406 453ZM500 -21Q622 -21 711 6T858
82T949 208T996 375T1009 584Q1009 665 1004 729T986 858T952 971T895 1063T811 1133T696 1175T545 1191Q423 1191 334 1163T188 1086T97 959T51 791T38 582Q38 501 43 437T61 308T95 195T152 105T236 36T350 -6T500 -21Z" />
<glyph unicode="&#xd3;" glyph-name="Oacute" horiz-adv-x="1047" d="M442 1288H606L845 1618H582L442 1288ZM406 453V704Q406 885 431 953T521 1022T613 952T641 739V498Q641 351 629 278T592 181T521 157Q457 157 432 222T406 453ZM500 -21Q622 -21 711 6T858
82T949 208T996 375T1009 584Q1009 665 1004 729T986 858T952 971T895 1063T811 1133T696 1175T545 1191Q423 1191 334 1163T188 1086T97 959T51 791T38 582Q38 501 43 437T61 308T95 195T152 105T236 36T350 -6T500 -21Z" />
<glyph unicode="&#xd4;" glyph-name="Ocircumflex" horiz-adv-x="1047" d="M435 1288L523 1434L611 1288H794L600 1618H446L252 1288H435ZM406 453V704Q406 885 431 953T521 1022T613 952T641 739V498Q641 351 629 278T592 181T521 157Q457 157 432 222T406 453ZM500
-21Q622 -21 711 6T858 82T949 208T996 375T1009 584Q1009 665 1004 729T986 858T952 971T895 1063T811 1133T696 1175T545 1191Q423 1191 334 1163T188 1086T97 959T51 791T38 582Q38 501 43 437T61 308T95 195T152 105T236 36T350 -6T500 -21Z" />
<glyph unicode="&#xd5;" glyph-name="Otilde" horiz-adv-x="1047" d="M298 1295V1322Q298 1357 313 1382T358 1407Q391 1407 504 1352T669 1296Q779 1296 832 1354T885 1557V1618H748V1592Q748 1551 732 1529T682 1506Q656 1506 621 1523T554 1562T474 1600T378
1618Q335 1618 299 1606T231 1567T180 1486T161 1357V1295H298ZM406 453V704Q406 885 431 953T521 1022T613 952T641 739V498Q641 351 629 278T592 181T521 157Q457 157 432 222T406 453ZM500 -21Q622 -21 711 6T858 82T949 208T996 375T1009 584Q1009 665 1004
729T986 858T952 971T895 1063T811 1133T696 1175T545 1191Q423 1191 334 1163T188 1086T97 959T51 791T38 582Q38 501 43 437T61 308T95 195T152 105T236 36T350 -6T500 -21Z" />
<glyph unicode="&#xd6;" glyph-name="Odieresis" horiz-adv-x="1047" d="M311 1295H344L496 1441V1472L344 1618H311L165 1472V1441L311 1295ZM696 1295H730L882 1441V1472L730 1618H696L550 1472V1441L696 1295ZM406 453V704Q406 885 431 953T521 1022T613 952T641
739V498Q641 351 629 278T592 181T521 157Q457 157 432 222T406 453ZM500 -21Q622 -21 711 6T858 82T949 208T996 375T1009 584Q1009 665 1004 729T986 858T952 971T895 1063T811 1133T696 1175T545 1191Q423 1191 334 1163T188 1086T97 959T51 791T38 582Q38 501
43 437T61 308T95 195T152 105T236 36T350 -6T500 -21Z" />
<glyph unicode="&#xd7;" glyph-name="multiply" horiz-adv-x="1125" d="M831 89L985 243L720 508L985 772L831 926L566 661L302 926L148 772L413 508L148 243L302 89L566 354L831 89Z" />
<glyph unicode="&#xd8;" glyph-name="Oslash" horiz-adv-x="1047" d="M521 157Q457 157 432 222T406 453V704Q406 932 451 990Q476 1022 521 1022Q585 1022 613 952T641 739V498Q641 258 604 197Q579 157 521 157ZM468 -123L528 -21Q643 -18 727 11T866 89T952
214T996 379T1009 584Q1009 651 1006 706T994 818T971 919T934 1006T880 1079T807 1135L885 1276H621L571 1191Q558 1191 545 1191Q247 1191 132 1022Q40 888 38 598Q38 590 38 582Q38 493 43 424T65 287T107 170T177 80T280 15L204 -123H468Z" />
<glyph unicode="&#xd9;" glyph-name="Ugrave" horiz-adv-x="1033" d="M449 1288H613L473 1618H210L449 1288ZM520 -21Q625 -21 704 -1T833 52T913 136T955 241T967 362V1172H651V410Q651 346 642 302T614 234T575 201T526 191Q475 191 449 238T422 413V1172H66V368Q66
300 79 244T124 138T207 53T337 -1T520 -21Z" />
<glyph unicode="&#xda;" glyph-name="Uacute" horiz-adv-x="1033" d="M435 1288H599L838 1618H575L435 1288ZM520 -21Q625 -21 704 -1T833 52T913 136T955 241T967 362V1172H651V410Q651 346 642 302T614 234T575 201T526 191Q475 191 449 238T422 413V1172H66V368Q66
300 79 244T124 138T207 53T337 -1T520 -21Z" />
<glyph unicode="&#xdb;" glyph-name="Ucircumflex" horiz-adv-x="1033" d="M428 1288L516 1434L604 1288H787L593 1618H439L245 1288H428ZM520 -21Q625 -21 704 -1T833 52T913 136T955 241T967 362V1172H651V410Q651 346 642 302T614 234T575 201T526 191Q475
191 449 238T422 413V1172H66V368Q66 300 79 244T124 138T207 53T337 -1T520 -21Z" />
<glyph unicode="&#xdc;" glyph-name="Udieresis" horiz-adv-x="1033" d="M304 1295H337L489 1441V1472L337 1618H304L158 1472V1441L304 1295ZM689 1295H723L875 1441V1472L723 1618H689L543 1472V1441L689 1295ZM520 -21Q625 -21 704 -1T833 52T913 136T955 241T967
362V1172H651V410Q651 346 642 302T614 234T575 201T526 191Q475 191 449 238T422 413V1172H66V368Q66 300 79 244T124 138T207 53T337 -1T520 -21Z" />
<glyph unicode="&#xdd;" glyph-name="Yacute" horiz-adv-x="883" d="M395 1288H559L798 1618H535L395 1288ZM281 0H640V372L933 1172H635L557 870L500 623L431 870L328 1172H-51L281 366V0Z" />
<glyph unicode="&#xde;" glyph-name="Thorn" horiz-adv-x="938" d="M398 0V118Q400 118 408 118T421 117T435 116T450 115T465 114T483 113T500 113T518 112T536 112Q614 112 684 147T809 247T896 413T929 639Q929 845 829 948T535 1051Q476 1051 384 1047V1171H67V0H398ZM601
683V535Q601 435 558 382T435 329H398V849H446Q521 849 561 803T601 683Z" />
<glyph unicode="&#xdf;" glyph-name="germandbls" horiz-adv-x="1066" d="M403 0V583Q403 975 465 1088Q498 1145 548 1146Q598 1146 622 1106T647 1016V954Q647 859 623 818T557 776H526V593H568Q612 593 643 558T674 475V386Q674 334 667 296T644 228T599 183T526
168V0Q645 0 733 23T873 84T955 176T996 284T1006 405Q1006 524 932 623T760 723Q802 745 834 768T898 826T947 908T965 1013Q965 1154 889 1229T624 1304Q525 1304 447 1289T300 1238T187 1144T116 998T89 792L88 168L18 0H403Z" />
<glyph unicode="&#xe0;" glyph-name="agrave" horiz-adv-x="837" d="M346 966H510L370 1296H107L346 966ZM510 89L542 0H816L788 78V485Q788 595 771 666T714 784T608 850T443 870Q330 870 221 837T44 759L108 623Q146 643 213 657T342 672Q414 672 446 647T479
561V543Q445 543 408 540T324 528T235 506T150 469T78 415T29 342T10 246Q10 -21 280 -21Q320 -21 358 -10T422 18T469 50T500 78L510 89ZM431 155Q346 155 346 280Q346 350 382 383T479 417V177Q479 177 473 172T456 161T431 155Z" />
<glyph unicode="&#xe1;" glyph-name="aacute" horiz-adv-x="837" d="M330 966H494L733 1296H470L330 966ZM510 89L542 0H816L788 78V485Q788 595 771 666T714 784T608 850T443 870Q330 870 221 837T44 759L108 623Q146 643 213 657T342 672Q414 672 446 647T479
561V543Q445 543 408 540T324 528T235 506T150 469T78 415T29 342T10 246Q10 -21 280 -21Q320 -21 358 -10T422 18T469 50T500 78L510 89ZM431 155Q346 155 346 280Q346 350 382 383T479 417V177Q479 177 473 172T456 161T431 155Z" />
<glyph unicode="&#xe2;" glyph-name="acircumflex" horiz-adv-x="837" d="M325 966L413 1112L501 966H684L490 1296H336L142 966H325ZM510 89L542 0H816L788 78V485Q788 595 771 666T714 784T608 850T443 870Q330 870 221 837T44 759L108 623Q146 643 213 657T342
672Q414 672 446 647T479 561V543Q445 543 408 540T324 528T235 506T150 469T78 415T29 342T10 246Q10 -21 280 -21Q320 -21 358 -10T422 18T469 50T500 78L510 89ZM431 155Q346 155 346 280Q346 350 382 383T479 417V177Q479 177 473 172T456 161T431 155Z" />
<glyph unicode="&#xe3;" glyph-name="atilde" horiz-adv-x="837" d="M188 977V1004Q188 1039 203 1064T248 1089Q281 1089 394 1034T559 978Q669 978 722 1036T775 1239V1300H638V1274Q638 1188 572 1188Q546 1188 511 1205T444 1244T364 1282T268 1300Q225 1300
189 1288T121 1249T70 1168T51 1039V977H188ZM510 89L542 0H816L788 78V485Q788 595 771 666T714 784T608 850T443 870Q330 870 221 837T44 759L108 623Q146 643 213 657T342 672Q414 672 446 647T479 561V543Q445 543 408 540T324 528T235 506T150 469T78 415T29
342T10 246Q10 -21 280 -21Q320 -21 358 -10T422 18T469 50T500 78L510 89ZM431 155Q346 155 346 280Q346 350 382 383T479 417V177Q479 177 473 172T456 161T431 155Z" />
<glyph unicode="&#xe4;" glyph-name="adieresis" horiz-adv-x="837" d="M201 977H234L386 1123V1154L234 1300H201L55 1154V1123L201 977ZM586 977H620L772 1123V1154L620 1300H586L440 1154V1123L586 977ZM510 89L542 0H816L788 78V485Q788 595 771 666T714 784T608
850T443 870Q330 870 221 837T44 759L108 623Q146 643 213 657T342 672Q414 672 446 647T479 561V543Q445 543 408 540T324 528T235 506T150 469T78 415T29 342T10 246Q10 -21 280 -21Q320 -21 358 -10T422 18T469 50T500 78L510 89ZM431 155Q346 155 346 280Q346
350 382 383T479 417V177Q479 177 473 172T456 161T431 155Z" />
<glyph unicode="&#xe5;" glyph-name="aring" horiz-adv-x="837" d="M413 1089Q366 1089 333 1122T299 1203Q299 1249 332 1284T413 1319Q459 1319 493 1284T527 1203T494 1123T413 1089ZM324 986T413 986T566 1049T631 1203T567 1357T413 1421T259 1357T195 1203T259
1050ZM510 89L542 0H816L788 78V485Q788 595 771 666T714 784T608 850T443 870Q330 870 221 837T44 759L108 623Q146 643 213 657T342 672Q414 672 446 647T479 561V543Q445 543 408 540T324 528T235 506T150 469T78 415T29 342T10 246Q10 -21 280 -21Q320 -21
358 -10T422 18T469 50T500 78L510 89ZM431 155Q346 155 346 280Q346 350 382 383T479 417V177Q479 177 473 172T456 161T431 155Z" />
<glyph unicode="&#xe6;" glyph-name="ae" horiz-adv-x="1315" d="M431 155Q346 155 346 280Q346 350 382 383T479 417V177Q478 177 473 172T456 161T431 155ZM981 517H828Q828 532 828 560T827 601Q827 676 845 713T920 750Q955 750 968 697T981 517ZM901 -21Q961
-21 1027 -7T1164 47T1273 148L1214 249Q1186 223 1145 204T1063 176T987 167Q952 167 927 173T877 197T840 253T828 350V369H1285V480Q1285 685 1200 777T918 870Q776 870 679 816Q602 870 443 870Q330 870 221 837T44 759L108 623Q146 643 213 657T342 672Q414
672 446 647T479 561V543Q445 543 408 540T324 528T235 506T150 469T78 415T29 342T10 246Q10 -21 280 -21Q370 -21 444 32T551 143Q654 -21 901 -21Z" />
<glyph unicode="&#xe7;" glyph-name="ccedilla" horiz-adv-x="777" d="M309 -534Q378 -534 438 -515T541 -447T585 -326Q585 -307 583 -290T578 -260T568 -234T557 -212T542 -193T527 -178T509 -164T491 -153T472 -142T454 -131L502 24H325L220 -170H253Q288 -173
318 -194T349 -252Q349 -299 318 -322T236 -345Q203 -345 170 -335L160 -493Q230 -534 309 -534ZM747 83L697 219Q663 192 611 180T508 168Q486 168 471 170T433 185T395 221T370 292T359 407Q359 561 393 623T519 686Q533 686 541 684L598 531L740 532L755 767Q755
767 734 788Q638 871 464 871Q374 871 297 840T162 751T71 606T38 413Q38 217 145 98T456 -21Q516 -21 568 -11T652 15T706 46T738 72L747 83Z" />
<glyph unicode="&#xe8;" glyph-name="egrave" horiz-adv-x="861" d="M364 966H528L388 1296H125L364 966ZM527 517H375V601Q375 637 377 660T389 706T417 739T466 750Q501 750 514 697T527 517ZM447 -21Q507 -21 573 -7T710 47T819 148L760 249Q732 223 691 204T609
176T533 167Q497 167 472 173T423 197T387 253T374 350V369H831V480Q831 685 746 777T464 870Q259 870 145 755T31 416Q31 322 53 246T122 108T252 13T447 -21Z" />
<glyph unicode="&#xe9;" glyph-name="eacute" horiz-adv-x="861" d="M348 966H512L751 1296H488L348 966ZM527 517H375V601Q375 637 377 660T389 706T417 739T466 750Q501 750 514 697T527 517ZM447 -21Q507 -21 573 -7T710 47T819 148L760 249Q732 223 691 204T609
176T533 167Q497 167 472 173T423 197T387 253T374 350V369H831V480Q831 685 746 777T464 870Q259 870 145 755T31 416Q31 322 53 246T122 108T252 13T447 -21Z" />
<glyph unicode="&#xea;" glyph-name="ecircumflex" horiz-adv-x="861" d="M343 966L431 1112L519 966H702L508 1296H354L160 966H343ZM527 517H375V601Q375 637 377 660T389 706T417 739T466 750Q501 750 514 697T527 517ZM447 -21Q507 -21 573 -7T710 47T819
148L760 249Q732 223 691 204T609 176T533 167Q497 167 472 173T423 197T387 253T374 350V369H831V480Q831 685 746 777T464 870Q259 870 145 755T31 416Q31 322 53 246T122 108T252 13T447 -21Z" />
<glyph unicode="&#xeb;" glyph-name="edieresis" horiz-adv-x="861" d="M219 977H252L404 1123V1154L252 1300H219L73 1154V1123L219 977ZM604 977H638L790 1123V1154L638 1300H604L458 1154V1123L604 977ZM527 517H375V601Q375 637 377 660T389 706T417 739T466
750Q501 750 514 697T527 517ZM447 -21Q507 -21 573 -7T710 47T819 148L760 249Q732 223 691 204T609 176T533 167Q497 167 472 173T423 197T387 253T374 350V369H831V480Q831 685 746 777T464 870Q259 870 145 755T31 416Q31 322 53 246T122 108T252 13T447 -21Z"
/>
<glyph unicode="&#xec;" glyph-name="igrave" horiz-adv-x="461" d="M196 966H360L220 1296H-43L196 966ZM78 0H400V850H233L18 791V684L78 647V0Z" />
<glyph unicode="&#xed;" glyph-name="iacute" horiz-adv-x="461" d="M180 966H344L583 1296H320L180 966ZM78 0H400V850H233L18 791V684L78 647V0Z" />
<glyph unicode="&#xee;" glyph-name="icircumflex" horiz-adv-x="461" d="M175 966L263 1112L351 966H534L340 1296H186L-8 966H175ZM78 0H400V850H233L18 791V684L78 647V0Z" />
<glyph unicode="&#xef;" glyph-name="idieresis" horiz-adv-x="461" d="M51 977H84L236 1123V1154L84 1300H51L-95 1154V1123L51 977ZM436 977H470L622 1123V1154L470 1300H436L290 1154V1123L436 977ZM78 0H400V850H233L18 791V684L78 647V0Z" />
<glyph unicode="&#xf0;" glyph-name="eth" horiz-adv-x="1106" d="M542 178Q500 178 465 238T429 374V514Q430 718 565 719Q594 719 628 710L631 718L632 612L630 424Q630 298 605 238T542 178ZM602 -20Q709 -20 790 25T921 151T994 337T1019 571Q1019 762 943
924T737 1193L897 1304L831 1394L644 1257Q495 1344 330 1344Q293 1344 262 1340L249 1207Q263 1203 298 1195T355 1182T409 1165T465 1139L308 1034L374 946L547 1070Q561 1053 572 1034T594 989T611 937T623 876T629 805Q538 858 416 858Q307 858 230 798T117
640T81 415Q81 220 219 100T602 -20Z" />
<glyph unicode="&#xf1;" glyph-name="ntilde" horiz-adv-x="949" d="M263 977V1004Q263 1039 278 1064T323 1089Q356 1089 469 1034T634 978Q744 978 797 1036T850 1239V1300H713V1274Q713 1188 647 1188Q621 1188 586 1205T519 1244T439 1282T343 1300Q300 1300
264 1288T196 1249T145 1168T126 1039V977H263ZM401 0V583Q403 585 408 589T416 596T424 602T433 609T441 614T450 619T459 623T469 627T479 629T491 630Q574 630 571 536V0H901V507Q901 514 902 526Q902 538 902 544Q902 720 846 795T652 870Q613 870 573 855T503
818T451 774T415 736L403 721V850H233L18 791V684L78 647V0H401Z" />
<glyph unicode="&#xf2;" glyph-name="ograve" horiz-adv-x="961" d="M413 966H577L437 1296H174L413 966ZM480 99Q388 99 388 288V613Q388 677 412 712T479 747Q571 747 571 552V236Q571 172 548 136T480 99ZM472 -21Q709 -21 819 89T930 429Q930 651 826 760T486
870Q245 870 138 756T31 415Q31 187 137 83T472 -21Z" />
<glyph unicode="&#xf3;" glyph-name="oacute" horiz-adv-x="961" d="M397 966H561L800 1296H537L397 966ZM480 99Q388 99 388 288V613Q388 677 412 712T479 747Q571 747 571 552V236Q571 172 548 136T480 99ZM472 -21Q709 -21 819 89T930 429Q930 651 826 760T486
870Q245 870 138 756T31 415Q31 187 137 83T472 -21Z" />
<glyph unicode="&#xf4;" glyph-name="ocircumflex" horiz-adv-x="961" d="M392 966L480 1112L568 966H751L557 1296H403L209 966H392ZM480 99Q388 99 388 288V613Q388 677 412 712T479 747Q571 747 571 552V236Q571 172 548 136T480 99ZM472 -21Q709 -21 819 89T930
429Q930 651 826 760T486 870Q245 870 138 756T31 415Q31 187 137 83T472 -21Z" />
<glyph unicode="&#xf5;" glyph-name="otilde" horiz-adv-x="961" d="M255 977V1004Q255 1039 270 1064T315 1089Q348 1089 461 1034T626 978Q736 978 789 1036T842 1239V1300H705V1274Q705 1188 639 1188Q613 1188 578 1205T511 1244T431 1282T335 1300Q292 1300
256 1288T188 1249T137 1168T118 1039V977H255ZM480 99Q388 99 388 288V613Q388 677 412 712T479 747Q571 747 571 552V236Q571 172 548 136T480 99ZM472 -21Q709 -21 819 89T930 429Q930 651 826 760T486 870Q245 870 138 756T31 415Q31 187 137 83T472 -21Z"
/>
<glyph unicode="&#xf6;" glyph-name="odieresis" horiz-adv-x="961" d="M268 977H301L453 1123V1154L301 1300H268L122 1154V1123L268 977ZM653 977H687L839 1123V1154L687 1300H653L507 1154V1123L653 977ZM480 99Q388 99 388 288V613Q388 677 412 712T479 747Q571
747 571 552V236Q571 172 548 136T480 99ZM472 -21Q709 -21 819 89T930 429Q930 651 826 760T486 870Q245 870 138 756T31 415Q31 187 137 83T472 -21Z" />
<glyph unicode="&#xf7;" glyph-name="divide" horiz-adv-x="1148" d="M551 -19H589L760 146V181L589 345H551L387 181V146L551 -19ZM110 414H1038V615H110V414ZM551 677H589L760 842V877L589 1041H551L387 877V842L551 677Z" />
<glyph unicode="&#xf8;" glyph-name="oslash" horiz-adv-x="961" d="M480 99Q388 99 388 288V613Q388 722 452 743Q465 747 479 747Q571 747 571 552V236Q571 172 548 136T480 99ZM428 -206L484 -21Q715 -18 822 92T930 429Q930 714 758 812Q735 825 711 834L775
1046H511L457 870Q231 863 131 749T31 415Q31 137 193 40Q212 29 232 20L163 -206H428Z" />
<glyph unicode="&#xf9;" glyph-name="ugrave" horiz-adv-x="936" d="M387 966H551L411 1296H148L387 966ZM567 133L598 0H875V850H494V735L548 699V229Q545 227 540 223T532 216T524 211T516 205T508 201T500 197T491 195T481 193T470 192Q428 192 412 213T397
280V850H34V735L69 699V343Q69 147 129 63T331 -21Q376 -21 420 -2T494 45T542 96T567 133Z" />
<glyph unicode="&#xfa;" glyph-name="uacute" horiz-adv-x="936" d="M371 966H535L774 1296H511L371 966ZM567 133L598 0H875V850H494V735L548 699V229Q545 227 540 223T532 216T524 211T516 205T508 201T500 197T491 195T481 193T470 192Q428 192 412 213T397
280V850H34V735L69 699V343Q69 147 129 63T331 -21Q376 -21 420 -2T494 45T542 96T567 133Z" />
<glyph unicode="&#xfb;" glyph-name="ucircumflex" horiz-adv-x="936" d="M366 966L454 1112L542 966H725L531 1296H377L183 966H366ZM567 133L598 0H875V850H494V735L548 699V229Q545 227 540 223T532 216T524 211T516 205T508 201T500 197T491 195T481 193T470
192Q428 192 412 213T397 280V850H34V735L69 699V343Q69 147 129 63T331 -21Q376 -21 420 -2T494 45T542 96T567 133Z" />
<glyph unicode="&#xfc;" glyph-name="udieresis" horiz-adv-x="936" d="M242 977H275L427 1123V1154L275 1300H242L96 1154V1123L242 977ZM627 977H661L813 1123V1154L661 1300H627L481 1154V1123L627 977ZM567 133L598 0H875V850H494V735L548 699V229Q545 227
540 223T532 216T524 211T516 205T508 201T500 197T491 195T481 193T470 192Q428 192 412 213T397 280V850H34V735L69 699V343Q69 147 129 63T331 -21Q376 -21 420 -2T494 45T542 96T567 133Z" />
<glyph unicode="&#xfd;" glyph-name="yacute" horiz-adv-x="930" d="M369 966H533L772 1296H509L369 966ZM488 -344Q685 -344 779 -224T873 117V850H492V735L547 699V229Q533 217 521 209T495 197T469 192Q425 192 411 213T396 281V850H32V735L68 699V344Q68 146
129 63T339 -21Q378 -21 415 -5T479 33T525 78T556 117L566 133V47Q565 -13 553 -54T518 -117T466 -149T397 -158Q271 -158 213 -125L161 -233Q203 -284 294 -314T488 -344Z" />
<glyph unicode="&#xfe;" glyph-name="thorn" horiz-adv-x="951" d="M590 0Q673 0 737 34T843 130T905 270T926 444Q926 644 849 757T606 870Q567 870 533 861T471 837T425 806T390 772V1310H325L4 1260V1167L64 1131V-304H390V47Q478 0 590 0ZM443 139Q431 139
418 140T390 146V666Q425 686 461 686Q512 686 544 643T577 514V344Q577 139 443 139Z" />
<glyph unicode="&#xff;" glyph-name="ydieresis" horiz-adv-x="930" d="M240 977H273L425 1123V1154L273 1300H240L94 1154V1123L240 977ZM625 977H659L811 1123V1154L659 1300H625L479 1154V1123L625 977ZM488 -344Q685 -344 779 -224T873 117V850H492V735L547
699V229Q533 217 521 209T495 197T469 192Q425 192 411 213T396 281V850H32V735L68 699V344Q68 146 129 63T339 -21Q378 -21 415 -5T479 33T525 78T556 117L566 133V47Q565 -13 553 -54T518 -117T466 -149T397 -158Q271 -158 213 -125L161 -233Q203 -284 294 -314T488
-344Z" />
<glyph unicode="&#x2013;" glyph-name="endash" horiz-adv-x="998" d="M80 464H918V715H80V464Z" />
<glyph unicode="&#x2014;" glyph-name="emdash" horiz-adv-x="1528" d="M80 464H1448V715H80V464Z" />
<glyph unicode="&#x2018;" glyph-name="quoteleft" horiz-adv-x="483" d="M70 654H333L393 1338H219L70 654Z" />
<glyph unicode="&#x2019;" glyph-name="quoteright" horiz-adv-x="483" d="M90 654H264L413 1338H150L90 654Z" />
<glyph unicode="&#x201a;" glyph-name="quotesinglbase" horiz-adv-x="483" d="M90 -463H264L413 221H150L90 -463Z" />
<glyph unicode="&#x201c;" glyph-name="quotedblleft" horiz-adv-x="861" d="M448 656H711L771 1340H597L448 656ZM70 656H333L393 1340H219L70 656Z" />
<glyph unicode="&#x201d;" glyph-name="quotedblright" horiz-adv-x="861" d="M791 1340H528L468 656H642L791 1340ZM413 1340H150L90 656H264L413 1340Z" />
<glyph unicode="&#x201e;" glyph-name="quotedblbase" horiz-adv-x="858" d="M413 224H150L90 -460H264L413 224ZM788 224H525L465 -460H639L788 224Z" />
<glyph unicode="&#x2022;" glyph-name="bullet" horiz-adv-x="458" d="M201 272H247L452 470V512L247 709H201L4 512V470L201 272Z" />
<glyph unicode="&#x2039;" glyph-name="guilsinglleft" horiz-adv-x="795" d="M411 122H695L471 492L695 854H411L80 492L411 122Z" />
<glyph unicode="&#x203a;" glyph-name="guilsinglright" horiz-adv-x="795" d="M100 122H384L715 492L384 854H100L324 492L100 122Z" />
</font>
</defs>
</svg>
