<?xml version="1.0" standalone="no"?>
<!DOCTYPE svg PUBLIC "-//W3C//DTD SVG 1.1//EN" "http://www.w3.org/Graphics/SVG/1.1/DTD/svg11.dtd">
<svg xmlns="http://www.w3.org/2000/svg">
<defs >
<font id="Alatsi" horiz-adv-x="1104" ><font-face
    font-family="Alatsi"
    units-per-em="2000"
    panose-1="0 0 0 0 0 0 0 0 0 0"
    ascent="2000"
    descent="-560"
    alphabetic="0" />
<glyph unicode=" " glyph-name="space" horiz-adv-x="380" />
<glyph unicode="!" glyph-name="exclam" horiz-adv-x="634" d="M206 506L180 1538H454L426 506H206ZM202 0V298H430V0H202Z" />
<glyph unicode="&quot;" glyph-name="quotedbl" horiz-adv-x="1000" d="M800 718H624L602 1394H822L800 718ZM376 718H200L178 1394H398L376 718Z" />
<glyph unicode="#" glyph-name="numbersign" horiz-adv-x="1238" d="M254 0L294 352H86V506H312L354 874H138V1026H372L414 1394H590L548 1026H778L820 1394H996L954 1026H1152V874H936L894 506H1100V352H876L836 0H660L700 352H470L430 0H254ZM488 506H718L760
874H530L488 506Z" />
<glyph unicode="$" glyph-name="dollar" horiz-adv-x="1062" d="M440 -30V124Q352 135 269 163T122 244L194 406Q219 383 269 355T385 305T524 284Q573 284 618 299T693 348T722 440Q722 488 686 519T595 570T482 608Q392 634 312 675T181 787T130 972Q130 1092
210 1180T440 1294V1488H678V1293Q769 1276 831 1242T916 1178L836 1024Q826 1038 788 1063T695 1109T580 1130Q501 1130 441 1095T380 986Q380 930 416 896T506 841T608 810Q711 786 796 740T933 624T984 460Q984 329 902 243T678 129V-30H440Z" />
<glyph unicode="%" glyph-name="percent" horiz-adv-x="1808" d="M424 646Q252 646 170 749T88 1024Q88 1225 179 1315T424 1406Q577 1406 665 1316T754 1022Q754 911 723 827T619 694T424 646ZM422 0L1186 1394H1382L618 0H422ZM422 796Q472 796 496 827T527
908T534 1018Q534 1137 511 1195T418 1254Q352 1254 327 1196T302 1024Q302 930 324 863T422 796ZM1390 -30Q1216 -30 1135 74T1054 350Q1054 550 1144 641T1388 732Q1541 732 1630 641T1720 346Q1720 236 1688 151T1584 18T1390 -30ZM1384 124Q1436 124 1460 154T1491
234T1498 344Q1498 463 1475 521T1384 580Q1315 580 1292 522T1268 348Q1268 255 1288 190T1384 124Z" />
<glyph unicode="&amp;" glyph-name="ampersand" horiz-adv-x="1230" d="M1200 542Q1182 458 1141 390T1040 238L1160 104L988 -42L870 90Q800 38 721 9T532 -20Q379 -20 283 32T141 164T96 324Q96 461 162 540T340 688Q273 762 218 850T162 1056Q162 1176 219
1259T365 1386T550 1430Q649 1430 732 1394T866 1285T916 1098Q916 986 848 871T654 672Q708 609 770 538T896 396Q934 450 962 521T1004 660L1200 542ZM542 1256Q469 1256 428 1200T386 1072Q386 999 435 925T536 794Q684 920 684 1088Q684 1159 651 1207T542
1256ZM524 176Q638 176 734 244L452 566Q389 517 364 470T338 360Q338 328 353 285T409 209T524 176Z" />
<glyph unicode="&apos;" glyph-name="quotesingle" horiz-adv-x="576" d="M376 718H200L178 1394H398L376 718Z" />
<glyph unicode="(" glyph-name="parenleft" horiz-adv-x="772" d="M644 -296Q580 -278 492 -209T321 -21T182 269T126 660Q126 881 181 1053T320 1348T492 1538T644 1618L732 1530Q698 1517 640 1464T521 1310T420 1048T378 660Q378 432 421 275T525 19T644 -133T732
-208L644 -296Z" />
<glyph unicode=")" glyph-name="parenright" horiz-adv-x="772" d="M182 -304L94 -216Q124 -195 182 -142T301 11T405 267T448 652Q448 880 407 1040T305 1301T187 1456T94 1522L182 1610Q247 1599 334 1531T505 1340T644 1046T700 652Q700 432 645 262T506 -28T335
-217T182 -304Z" />
<glyph unicode="*" glyph-name="asterisk" horiz-adv-x="990" d="M322 736L156 854L361 1098L72 1184L130 1368L411 1250L392 1552H594L578 1250L856 1364L920 1180L626 1095L832 852L668 736L494 1009L322 736Z" />
<glyph unicode="+" glyph-name="plus" horiz-adv-x="1144" d="M458 88V492H84V688H458V1088H674V688H1062V492H674V88H458Z" />
<glyph unicode="," glyph-name="comma" horiz-adv-x="446" d="M68 -326Q79 -299 87 -230T99 -74T104 94V298H330V142Q330 49 317 -46T284 -216T240 -326H68Z" />
<glyph unicode="-" glyph-name="hyphen" horiz-adv-x="910" d="M136 492V688H774V492H136Z" />
<glyph unicode="." glyph-name="period" horiz-adv-x="426" d="M96 0V298H330V0H96Z" />
<glyph unicode="/" glyph-name="slash" horiz-adv-x="720" d="M160 -360L-36 -358L560 1758H756L160 -360Z" />
<glyph unicode="0" glyph-name="zero" horiz-adv-x="1160" d="M580 -36Q398 -36 286 57T123 315T72 694Q72 1068 205 1248T580 1428Q822 1428 955 1248T1088 694Q1088 480 1037 316T874 58T580 -36ZM582 178Q668 178 717 246T787 432T808 696Q808 850 787 967T716
1151T582 1218Q497 1218 447 1152T374 968T352 696Q352 550 373 433T445 247T582 178Z" />
<glyph unicode="1" glyph-name="one" horiz-adv-x="626" d="M178 0V1304L448 1430V0H178Z" />
<glyph unicode="2" glyph-name="two" horiz-adv-x="1122" d="M374 228H1024V0H126Q120 32 116 64T112 140Q112 267 153 357T275 518T474 658Q539 696 604 742T712 851T756 1006Q756 1084 708 1145T552 1206Q441 1206 375 1134T290 948L78 1048Q94 1152 159 1238T329
1376T570 1428Q694 1428 795 1382T956 1246T1016 1030Q1016 900 969 805T831 632T606 474Q512 417 452 368T374 228Z" />
<glyph unicode="3" glyph-name="three" horiz-adv-x="1090" d="M494 -30Q380 -30 274 -2T84 86L168 314Q225 259 307 229T468 198Q603 198 666 262T730 422Q730 503 691 545T587 604T450 620H344V818H452Q575 818 634 878T694 1030Q694 1129 635 1164T468 1200Q429
1200 375 1186T266 1145T176 1078L76 1290Q138 1344 251 1386T522 1428Q729 1428 851 1335T974 1070Q974 994 947 921T868 794T742 720Q827 720 887 673T980 551T1012 392Q1012 260 942 166T755 21T494 -30Z" />
<glyph unicode="4" glyph-name="four" horiz-adv-x="1222" d="M66 274L580 1394H1002V446H1170V252H1002V0H740V252H80L66 274ZM422 446H752L761 1251L536 694L422 446Z" />
<glyph unicode="5" glyph-name="five" horiz-adv-x="1092" d="M460 -26Q369 -26 267 -6T90 64L164 288Q208 248 282 220T426 192Q474 192 528 199T631 232T709 310T740 452Q740 571 661 641T436 712Q380 712 323 702T219 676T152 648L178 1394H950V1182H406L386
884Q433 898 478 903T578 908Q790 908 900 792T1010 478Q1010 322 941 209T747 35T460 -26Z" />
<glyph unicode="6" glyph-name="six" horiz-adv-x="1246" d="M648 -30Q550 -30 455 6T284 123T162 340T116 672Q116 906 194 1075T410 1336T724 1428Q865 1428 941 1401T1066 1326L968 1134Q928 1178 861 1194T738 1210Q634 1210 558 1148T437 990T386 790Q385
769 385 751T384 716Q438 820 536 867T744 914Q879 914 972 855T1114 695T1162 474Q1162 320 1098 207T918 32T648 -30ZM662 176Q757 176 825 248T894 450Q894 567 843 638T684 710Q618 710 558 678T458 591T414 472Q414 393 443 326T528 217T662 176Z" />
<glyph unicode="7" glyph-name="seven" horiz-adv-x="1054" d="M268 0L669 1158H90V1394H1004L554 0H268Z" />
<glyph unicode="8" glyph-name="eight" horiz-adv-x="1238" d="M620 -36Q526 -36 433 -13T263 59T140 189T94 382Q94 514 168 600T361 728Q265 771 210 854T154 1066Q154 1198 222 1277T398 1392T622 1428Q737 1428 843 1393T1016 1278T1084 1066Q1084 940 1026
857T875 728Q995 687 1069 601T1144 382Q1144 269 1098 189T976 60T807 -13T620 -36ZM624 820Q717 820 767 880T818 1048Q818 1146 772 1195T624 1244Q422 1244 422 1048Q422 940 476 880T624 820ZM620 166Q854 166 854 386Q854 476 820 528T731 602T620 624Q562
624 508 602T418 528T382 386Q382 275 443 221T620 166Z" />
<glyph unicode="9" glyph-name="nine" horiz-adv-x="1246" d="M554 -30Q413 -30 337 -2T212 72L310 272Q351 229 418 213T540 196Q644 196 722 248T847 394T898 608Q900 629 900 647T900 682Q846 579 745 532T534 484Q399 484 306 545T165 709T116 932Q116 1086
183 1197T368 1368T640 1428Q729 1428 821 1392T990 1275T1115 1058T1162 726Q1162 492 1084 323T868 62T554 -30ZM600 688Q666 688 725 720T822 807T864 926Q864 1004 838 1071T761 1180T634 1222Q571 1222 514 1192T420 1102T384 956Q384 839 438 764T600 688Z"
/>
<glyph unicode=":" glyph-name="colon" horiz-adv-x="428" d="M96 0V298H330V0H96ZM96 746V1044H330V746H96Z" />
<glyph unicode=";" glyph-name="semicolon" horiz-adv-x="428" d="M96 746V1044H330V746H96ZM68 -326Q79 -299 87 -230T99 -74T104 94V298H330V142Q330 49 317 -46T284 -216T240 -326H68Z" />
<glyph unicode="&lt;" glyph-name="less" horiz-adv-x="1064" d="M904 44L160 500V682L904 1136V914L375 591L904 268V44Z" />
<glyph unicode="=" glyph-name="equal" horiz-adv-x="1144" d="M118 756V952H966V756H118ZM118 228V424H966V228H118Z" />
<glyph unicode="&gt;" glyph-name="greater" horiz-adv-x="1064" d="M160 44V268L689 591L160 914V1136L904 682V500L160 44Z" />
<glyph unicode="?" glyph-name="question" horiz-adv-x="848" d="M246 490Q232 563 232 620Q232 713 258 771T324 867T406 936Q462 977 505 1023T548 1158Q548 1244 497 1288T366 1332Q272 1332 210 1282T122 1182L-20 1376Q31 1439 132 1496T372 1554Q594 1554
701 1457T808 1184Q808 1107 785 1056T723 967T642 894Q596 857 553 814T482 709T454 550V490H246ZM244 0V298H470V0H244Z" />
<glyph unicode="@" glyph-name="at" horiz-adv-x="1484" d="M1134 866L1048 482Q1033 418 1023 361T1012 266Q1012 215 1029 199T1068 182Q1138 182 1184 243T1254 406T1278 632Q1278 857 1164 980T820 1104Q623 1104 486 1009T278 752T206 394Q206 121 348 -18T752
-158Q810 -158 881 -146T1015 -114T1110 -68L1162 -190Q1112 -221 1039 -242T888 -273T750 -284Q611 -284 487 -249T266 -136T115 70T60 384Q60 641 157 831T425 1127T822 1232Q1001 1232 1136 1167T1348 968T1424 630Q1424 433 1368 305T1219 115T1020 52Q941
52 906 85T854 160Q851 169 850 178T846 198Q814 164 771 131T682 75T594 52Q524 52 477 97T405 217T380 378Q380 470 406 560T481 724T600 842T758 886Q821 886 868 864T946 810L964 866H1134ZM854 428Q874 482 893 555T912 674Q900 701 864 723T778 746Q714 746
669 693T599 559T574 398Q574 319 596 264T672 208Q708 208 743 243T808 330T854 428Z" />
<glyph unicode="A" glyph-name="A" horiz-adv-x="1134" d="M-34 0L556 1418H576L1168 0H896L818 202H320L246 0H-34ZM532 776L392 396H744L598 776L564 888L532 776Z" />
<glyph unicode="B" glyph-name="B" horiz-adv-x="1136" d="M168 0V1394H540Q786 1394 898 1297T1010 1022Q1010 943 972 861T847 738Q966 709 1023 622T1080 402Q1080 218 954 109T546 0H168ZM540 1196H420V810H582Q650 810 689 842T745 922T762 1014Q762 1086
731 1125T648 1180T540 1196ZM562 624H420V202H574Q634 202 689 218T780 280T816 416Q816 507 779 551T683 610T562 624Z" />
<glyph unicode="C" glyph-name="C" horiz-adv-x="1054" d="M640 -24Q531 -24 430 20T249 155T121 386T74 716Q74 944 153 1100T366 1337T662 1418Q772 1418 841 1397T952 1347T1020 1294L908 1084Q865 1131 819 1159T672 1188Q570 1188 499 1129T390 967T352 730Q352
469 439 337T650 204Q745 204 812 231T912 292L1022 94Q994 71 948 44T827 -4T640 -24Z" />
<glyph unicode="D" glyph-name="D" horiz-adv-x="1214" d="M162 0V1394H522Q825 1394 989 1225T1154 714Q1154 496 1081 336T867 88T520 0H162ZM514 1194H420V220H514Q624 220 697 261T813 372T875 529T894 708Q894 834 859 945T741 1125T514 1194Z" />
<glyph unicode="E" glyph-name="E" horiz-adv-x="1012" d="M162 0V1394H890V1176H412V850H792V638H412V226H930V0H162Z" />
<glyph unicode="F" glyph-name="F" horiz-adv-x="928" d="M168 0V1394H896V1174H424V808H836V584H424V0H168Z" />
<glyph unicode="G" glyph-name="G" horiz-adv-x="1258" d="M658 -36Q481 -36 350 52T147 307T74 710Q74 917 153 1076T371 1327T692 1418Q824 1418 903 1398T1027 1348T1098 1294L988 1072Q973 1092 941 1118T850 1163T696 1182Q595 1182 515 1123T389 959T342
716Q342 466 430 327T662 188Q817 188 881 261T946 474Q946 498 944 528H658V748H1180Q1185 702 1188 649T1192 554Q1192 441 1170 335T1090 146T928 13T658 -36Z" />
<glyph unicode="H" glyph-name="H" horiz-adv-x="1314" d="M168 0V1394H426V812H886V1394H1146V0H886V592H426V0H168Z" />
<glyph unicode="I" glyph-name="I" horiz-adv-x="580" d="M162 0V1394H418V0H162Z" />
<glyph unicode="J" glyph-name="J" horiz-adv-x="800" d="M238 -30Q202 -30 152 -21T56 2T-14 34L82 272Q108 235 147 214T226 192Q265 192 304 203T368 256T394 394V1394H654V418Q654 294 616 193T487 31T238 -30Z" />
<glyph unicode="K" glyph-name="K" horiz-adv-x="1192" d="M168 0V1394H422V700L866 1394H1160L685 702L1192 0H872L422 669V0H168Z" />
<glyph unicode="L" glyph-name="L" horiz-adv-x="890" d="M168 0V1394H422V220H838V0H168Z" />
<glyph unicode="M" glyph-name="M" horiz-adv-x="1502" d="M168 0V1418H188L752 753L1312 1418H1334V0H1086V598L1095 834L1024 726L750 404L476 726L405 834L416 598V0H168Z" />
<glyph unicode="N" glyph-name="N" horiz-adv-x="1322" d="M1134 -28L466 734L404 814L414 620V0H168V1418H190L848 650L918 559L908 750V1394H1154V-28H1134Z" />
<glyph unicode="O" glyph-name="O" horiz-adv-x="1316" d="M660 -24Q471 -24 342 65T145 317T78 698Q78 915 144 1077T338 1328T654 1418Q849 1418 978 1327T1173 1074T1238 698Q1238 479 1171 317T975 66T660 -24ZM660 190Q791 190 881 316T972 704Q972 955 888
1082T654 1210Q509 1210 428 1082T346 702Q346 441 432 316T660 190Z" />
<glyph unicode="P" glyph-name="P" horiz-adv-x="1094" d="M168 0V1394H542Q684 1394 800 1351T985 1202T1054 906Q1054 769 1002 648T839 450T550 374H426V0H168ZM526 1192H426V584H532Q664 584 730 663T796 892Q796 1045 736 1118T526 1192Z" />
<glyph unicode="Q" glyph-name="Q" horiz-adv-x="1316" d="M660 -24Q471 -24 342 65T145 317T78 698Q78 915 144 1077T338 1328T654 1418Q849 1418 978 1327T1173 1074T1238 698Q1238 452 1154 278T910 28L1062 -222L832 -346L680 -24Q670 -24 660 -24ZM660 190Q791
190 881 316T972 704Q972 955 888 1082T654 1210Q509 1210 428 1082T346 702Q346 441 432 316T660 190Z" />
<glyph unicode="R" glyph-name="R" horiz-adv-x="1154" d="M1090 0H780L422 504V0H168V1394H556Q698 1394 810 1353T987 1214T1052 950Q1052 859 1022 763T921 590T730 484L1090 0ZM422 630H528Q616 630 675 671T765 780T796 926Q796 1061 734 1127T522 1194H422V630Z" />
<glyph unicode="S" glyph-name="S" horiz-adv-x="1008" d="M508 -22Q361 -22 251 27T90 130L192 340Q213 313 258 279T364 220T490 194Q565 194 620 236T676 360Q676 441 619 488T462 596Q381 645 303 700T174 836T122 1040Q122 1205 227 1311T534 1418Q636 1418
707 1394T823 1339T890 1288L778 1084Q764 1104 731 1133T650 1184T544 1206Q463 1206 423 1160T382 1050Q382 969 441 918T586 816Q680 760 760 704T889 569T938 368Q938 185 823 82T508 -22Z" />
<glyph unicode="T" glyph-name="T" horiz-adv-x="974" d="M358 0V1168H36V1394H938V1168H616V0H358Z" />
<glyph unicode="U" glyph-name="U" horiz-adv-x="1242" d="M628 -26Q491 -26 379 21T199 183T132 498V1394H392V470Q392 352 430 293T523 213T624 192Q673 192 725 212T814 291T850 470V1394H1110V498Q1110 298 1045 184T871 22T628 -26Z" />
<glyph unicode="V" glyph-name="V" horiz-adv-x="1098" d="M534 -7L-20 1394H258L478 780L555 547L632 780L844 1394H1118L566 -7H534Z" />
<glyph unicode="W" glyph-name="W" horiz-adv-x="1602" d="M1128 -3L801 797L480 -1H446L-20 1394H256L499 585L790 1394H824L1119 588L1348 1394H1622L1160 -3H1128Z" />
<glyph unicode="X" glyph-name="X" horiz-adv-x="1134" d="M20 0L387 718L26 1394H326L572 862L810 1394H1104L740 693L1114 0H806L557 539L318 0H20Z" />
<glyph unicode="Y" glyph-name="Y" horiz-adv-x="1076" d="M410 0V563L-30 1394H252L545 788L826 1394H1106L666 545V0H410Z" />
<glyph unicode="Z" glyph-name="Z" horiz-adv-x="1048" d="M60 0L615 1178H126V1394H992L444 216H966V0H60Z" />
<glyph unicode="[" glyph-name="bracketleft" horiz-adv-x="772" d="M210 -296V1610H684V1464H430V-150H684V-296H210Z" />
<glyph unicode="\" glyph-name="backslash" horiz-adv-x="720" d="M560 -360L-36 1758H160L756 -358L560 -360Z" />
<glyph unicode="]" glyph-name="bracketright" horiz-adv-x="772" d="M562 -296H88V-150H342V1464H88V1610H562V-296Z" />
<glyph unicode="^" glyph-name="asciicircum" horiz-adv-x="940" d="M24 288L390 1394H550L916 288H690L470 1026L248 288H24Z" />
<glyph unicode="_" glyph-name="underscore" horiz-adv-x="1200" d="M-24 -386V-230H1224V-386H-24Z" />
<glyph unicode="`" glyph-name="grave" horiz-adv-x="548" d="M290 1158L40 1562H312L508 1158H290Z" />
<glyph unicode="a" glyph-name="a" horiz-adv-x="994" d="M348 -28Q256 -28 196 13T106 122T76 272Q76 318 99 373T183 478T352 560T632 592V638Q632 712 597 761T454 810Q376 810 302 784T192 718L112 910Q172 951 272 985T496 1020Q644 1020 726 975T841 848T874
654V0H660L642 142Q538 -28 348 -28ZM454 164Q499 164 550 200T632 294V436Q622 438 611 438T584 438Q529 438 469 426T366 382T324 296Q324 224 356 194T454 164Z" />
<glyph unicode="b" glyph-name="b" horiz-adv-x="1128" d="M644 -28Q536 -28 468 40T376 198V0H156V1520H396V996L376 824Q392 892 439 936T548 1001T666 1022Q852 1022 947 891T1042 502Q1042 323 989 206T845 30T644 -28ZM586 170Q635 170 679 202T752 308T780
502Q780 670 724 744T590 818Q497 818 449 723T400 486Q400 345 449 258T586 170Z" />
<glyph unicode="c" glyph-name="c" horiz-adv-x="902" d="M540 -24Q381 -24 281 47T134 237T86 494Q86 632 139 752T296 946T554 1020Q640 1020 710 1002T846 930L764 718Q734 763 677 787T568 812Q350 812 350 496Q350 330 404 255T568 180Q640 180 695 207T778
266L854 88Q826 58 744 17T540 -24Z" />
<glyph unicode="d" glyph-name="d" horiz-adv-x="1124" d="M482 -28Q361 -28 272 37T135 220T86 496Q86 742 186 881T486 1020Q588 1020 658 970T750 824L732 970V1520H968V0H750V204Q723 101 655 37T482 -28ZM540 170Q612 170 669 245T726 492Q726 648 682 733T546
818Q499 818 453 789T375 690T344 496Q344 331 401 251T540 170Z" />
<glyph unicode="e" glyph-name="e" horiz-adv-x="1038" d="M552 -26Q384 -26 281 44T131 231T84 486Q84 631 137 752T294 947T548 1020Q772 1020 861 891T950 524Q950 503 949 471T946 416H346Q352 298 412 231T594 164Q656 164 727 191T832 258L912 68Q872 41
786 8T552 -26ZM344 572H696Q696 677 678 732T627 809T554 830Q452 830 401 755T344 572Z" />
<glyph unicode="f" glyph-name="f" horiz-adv-x="698" d="M162 0V786H28V996H162V1180Q162 1296 195 1369T281 1481T391 1536T500 1552Q598 1552 647 1535T706 1508V1290Q684 1319 639 1332T562 1346Q525 1346 489 1334T428 1288T404 1186V996H646V786H404V0H162Z" />
<glyph unicode="g" glyph-name="g" horiz-adv-x="1116" d="M286 -172Q322 -194 373 -212T494 -230Q622 -230 686 -164T750 48V204Q736 153 706 103T624 21T490 -12Q377 -12 286 39T140 203T86 496Q86 680 139 795T283 965T484 1020Q607 1020 672 958T750 824L778
996H974V48Q974 -181 859 -314T518 -448Q397 -448 308 -418T174 -360L286 -172ZM540 184Q627 184 676 266T726 500Q726 643 683 730T548 818Q497 818 451 788T374 687T344 498Q344 336 399 260T540 184Z" />
<glyph unicode="h" glyph-name="h" horiz-adv-x="1144" d="M156 0V1524H392V1020L387 870Q427 928 499 974T690 1020Q840 1020 914 924T988 658V0H732V632Q732 715 693 766T582 818Q512 818 457 767T402 632V0H156Z" />
<glyph unicode="i" glyph-name="i" horiz-adv-x="560" d="M140 1158V1424H420V1158H140ZM150 0V996H410V0H150Z" />
<glyph unicode="j" glyph-name="j" horiz-adv-x="552" d="M138 1158V1424H418V1158H138ZM96 -500L10 -348Q73 -346 112 -281T152 -116V996H400V-126Q396 -319 316 -405T96 -500Z" />
<glyph unicode="k" glyph-name="k" horiz-adv-x="1014" d="M156 0V1520H392V774L384 540L690 996H974L626 538L1008 0H706L384 482L392 238V0H156Z" />
<glyph unicode="l" glyph-name="l" horiz-adv-x="548" d="M152 0V1520H396V0H152Z" />
<glyph unicode="m" glyph-name="m" horiz-adv-x="1694" d="M148 0V996H378L384 864Q423 924 492 972T678 1020Q779 1020 846 975T947 848Q985 911 1056 965T1256 1020Q1406 1020 1480 924T1554 658V0H1300V632Q1300 715 1268 766T1164 818Q1094 818 1037 767T980
632V0H724V632Q724 715 688 768T580 822Q508 822 456 769T404 632V0H148Z" />
<glyph unicode="n" glyph-name="n" horiz-adv-x="1118" d="M148 0V996H380L385 865Q424 925 494 972T678 1020Q830 1020 904 924T978 658V0H722V636Q722 719 687 770T580 822Q510 822 457 771T404 636V0H148Z" />
<glyph unicode="o" glyph-name="o" horiz-adv-x="1088" d="M544 -20Q324 -20 204 118T84 500Q84 746 208 883T552 1020Q773 1020 888 879T1004 500Q1004 263 885 122T544 -20ZM548 180Q738 180 738 500Q738 822 548 822Q454 822 402 748T350 500Q350 328 402 254T548
180Z" />
<glyph unicode="p" glyph-name="p" horiz-adv-x="1124" d="M152 -436V996H390V964L370 824Q382 881 424 926T528 996T658 1022Q856 1022 947 884T1038 512Q1038 251 928 112T638 -28Q527 -28 461 41T370 198L394 10V-436H152ZM580 170Q628 170 673 202T747 308T776
502Q776 670 719 744T584 818Q491 818 443 723T394 486Q394 345 443 258T580 170Z" />
<glyph unicode="q" glyph-name="q" horiz-adv-x="1132" d="M730 -436V10L750 204Q722 87 646 30T476 -28Q365 -28 277 34T138 213T86 496Q86 681 138 796T282 966T490 1020Q601 1020 666 964T750 824V996H976L972 -436H730ZM540 170Q612 170 669 245T726 492Q726
648 682 733T546 818Q499 818 454 789T378 690T348 496Q348 331 403 251T540 170Z" />
<glyph unicode="r" glyph-name="r" horiz-adv-x="764" d="M138 0V996H364L376 820Q392 859 425 903T518 977T672 1008Q701 1008 723 1004T764 992L708 730Q676 762 610 762Q533 762 484 731T412 660T388 600V0H138Z" />
<glyph unicode="s" glyph-name="s" horiz-adv-x="874" d="M420 -18Q311 -18 242 2T134 49T80 94L154 284Q198 248 266 213T426 178Q497 178 525 207T554 270Q554 317 489 355T338 430Q287 452 230 486T133 576T92 720Q92 855 190 935T470 1016Q586 1016 666 982T774
920L706 740Q667 770 607 797T478 824Q402 824 372 804T342 740Q342 691 395 660T524 598Q649 549 725 478T802 296Q802 214 764 143T642 27T420 -18Z" />
<glyph unicode="t" glyph-name="t" horiz-adv-x="778" d="M476 -30Q307 -30 248 58T188 324V786H58V996H198L212 1206L430 1300V996H676V786H430V330Q430 243 454 210T522 176Q566 176 615 199T692 246L740 44Q709 22 660 6T560 -20T476 -30Z" />
<glyph unicode="u" glyph-name="u" horiz-adv-x="1086" d="M434 -24Q283 -24 212 72T140 338V996H390V360Q390 278 420 226T522 174Q593 174 640 226T688 360V996H938V0H712L707 129Q670 70 607 23T434 -24Z" />
<glyph unicode="v" glyph-name="v" horiz-adv-x="942" d="M392 0L-12 996H268L440 498L484 334L524 498L690 996H954L570 0H392Z" />
<glyph unicode="w" glyph-name="w" horiz-adv-x="1430" d="M330 0L12 996H266L386 522L438 312L482 522L612 996H820L958 522L1010 312L1056 522L1172 996H1418L1104 0H902L742 542L710 704L678 542L530 0H330Z" />
<glyph unicode="x" glyph-name="x" horiz-adv-x="950" d="M24 0L230 368L304 490L228 618L24 996H308L428 744L478 628L530 744L648 996H914L714 626L642 500L714 380L930 0H648L504 268L460 358L424 268L300 0H24Z" />
<glyph unicode="y" glyph-name="y" horiz-adv-x="946" d="M200 -378L362 68L-12 996H266L414 552L478 322L542 552L692 996H954L446 -378H200Z" />
<glyph unicode="z" glyph-name="z" horiz-adv-x="888" d="M26 0L477 806H110V996H862L412 182H822V0H26Z" />
<glyph unicode="{" glyph-name="braceleft" horiz-adv-x="784" d="M704 -288Q659 -294 618 -294Q500 -294 413 -248T278 -119T230 70V420Q230 501 196 535T119 577T48 584V734Q76 734 119 740T196 779T230 888V1250Q230 1412 335 1514T620 1616Q660 1616 702 1610L704
1482Q685 1487 667 1488T634 1490Q547 1490 510 1441T464 1309T456 1122V968Q456 860 428 795T358 698T278 656Q312 647 353 616T425 527T456 376V198Q456 96 464 13T510 -119T634 -168Q649 -168 667 -166T706 -160L704 -288Z" />
<glyph unicode="|" glyph-name="bar" horiz-adv-x="828" d="M312 -332V1660H516V-332H312Z" />
<glyph unicode="}" glyph-name="braceright" horiz-adv-x="772" d="M68 -290L66 -162Q87 -166 105 -168T138 -170Q224 -170 261 -121T307 11T316 196V374Q316 466 346 524T418 614T494 654Q456 664 415 696T345 793T316 966V1120Q316 1223 308 1306T263 1439T138
1488Q123 1488 106 1487T68 1480L70 1608Q112 1614 152 1614Q332 1614 437 1512T542 1248V886Q542 809 576 777T653 739T724 732V582Q696 582 653 575T576 534T542 418V68Q542 -39 494 -121T359 -249T154 -296Q113 -296 68 -290Z" />
<glyph unicode="~" glyph-name="asciitilde" horiz-adv-x="1152" d="M192 460L48 558Q59 625 109 687T231 790T380 830Q460 830 513 800T610 736Q651 705 694 679T792 652Q858 652 897 702T958 814L1102 718Q1092 651 1043 589T921 486T770 446Q692 446 637 475T538
542Q501 574 458 599T360 624Q294 624 255 574T192 460Z" />
<glyph unicode="&#xa0;" glyph-name="uni00A0" horiz-adv-x="380" />
<glyph unicode="&#xa1;" glyph-name="exclamdown" horiz-adv-x="634" d="M204 920V1218H432V920H204ZM180 -320L208 712H428L454 -320H180Z" />
<glyph unicode="&#xa2;" glyph-name="cent" horiz-adv-x="1054" d="M458 0V232Q289 270 206 392T122 684Q122 861 210 979T458 1135V1392H696V1145Q774 1136 833 1115T920 1064L840 876Q739 968 628 968Q522 968 467 887T412 686Q412 559 468 483T636 406Q701
406 752 430T846 492L924 314Q899 291 845 264T696 224V0H458Z" />
<glyph unicode="&#xa3;" glyph-name="sterling" horiz-adv-x="1184" d="M530 576Q527 456 496 364T428 202H1036V0H140Q160 40 193 118T252 298T278 514Q278 531 278 546T276 576H94V742H244Q222 814 205 882T188 1036Q188 1148 246 1233T409 1367T656 1416Q774
1416 856 1391T988 1332T1058 1270L934 1070Q901 1126 823 1166T662 1206Q578 1206 521 1163T464 992Q464 923 480 856T512 742H864V576H530Z" />
<glyph unicode="&#xa4;" glyph-name="currency" horiz-adv-x="1242" d="M228 114L78 272L257 432Q223 484 204 545T184 674Q184 742 204 803T259 917L82 1074L234 1234L407 1053Q506 1108 620 1108Q728 1108 823 1058L1004 1246L1154 1086L975 926Q1013 873 1034
809T1056 674Q1056 607 1037 546T982 432L1162 270L1012 112L834 295Q735 238 620 238Q505 238 406 295L228 114ZM620 406Q694 406 754 442T849 539T884 674Q884 747 849 807T754 904T620 940Q546 940 486 904T390 808T354 674Q354 600 389 539T485 442T620 406Z"
/>
<glyph unicode="&#xa5;" glyph-name="yen" horiz-adv-x="1320" d="M150 256V412H550V650L546 656H150V812H449L88 1394H374L564 1026L652 812H677L764 1028L948 1394H1232L878 812H1162V656H783L774 642V412H1162V256H774V0H550V256H150Z" />
<glyph unicode="&#xa6;" glyph-name="brokenbar" horiz-adv-x="828" d="M312 830V1660H516V830H312ZM312 -332V500H516V-332H312Z" />
<glyph unicode="&#xa7;" glyph-name="section" horiz-adv-x="1142" d="M796 326Q855 277 892 207T930 28Q930 -89 889 -168T778 -296T626 -365T458 -386Q397 -386 328 -376T212 -344L258 -124Q281 -146 333 -163T438 -180Q489 -180 547 -167T645 -110T686 22Q686
88 655 132T572 209T458 274Q382 313 309 362T188 484T140 670Q140 796 205 886T358 1016Q295 1072 253 1155T210 1374Q210 1469 253 1538T366 1652T519 1720T682 1742Q757 1742 818 1730T928 1694L882 1492Q860 1515 804 1533T682 1552Q631 1552 578 1536T490
1475T454 1350Q454 1278 487 1228T575 1140T692 1064Q765 1020 836 968T953 839T1000 642Q1000 528 938 446T796 326ZM392 694Q392 620 430 571T528 486T654 418Q690 450 719 502T748 632Q748 711 711 763T616 853T492 924Q455 891 424 835T392 694Z" />
<glyph unicode="&#xa8;" glyph-name="dieresis" horiz-adv-x="744" d="M440 1204V1470H704V1204H440ZM40 1204V1470H304V1204H40Z" />
<glyph unicode="&#xa9;" glyph-name="copyright" horiz-adv-x="1482" d="M742 -30Q591 -30 462 25T235 180T84 411T30 698Q30 853 84 985T235 1216T461 1371T742 1426Q893 1426 1022 1371T1249 1217T1400 985T1454 698Q1454 544 1400 412T1249 180T1023 26T742
-30ZM742 90Q914 90 1044 173T1248 394T1322 698Q1322 865 1249 1003T1045 1223T742 1306Q570 1306 440 1224T236 1003T162 698Q162 532 235 394T439 173T742 90ZM776 302Q652 302 574 357T458 503T420 696Q420 799 460 888T578 1033T774 1088Q839 1088 901 1071T1012
1004L952 862Q918 897 881 921T796 946Q706 946 665 871T624 696Q624 585 666 518T796 450Q841 452 881 469T952 522L1008 384Q987 363 927 333T776 302Z" />
<glyph unicode="&#xaa;" glyph-name="ordfeminine" horiz-adv-x="842" d="M306 548Q183 548 123 618T62 790Q62 828 81 873T152 959T298 1027T544 1054V1098Q544 1160 515 1200T396 1240Q330 1240 264 1219T166 1164L94 1324Q148 1357 238 1385T434 1414Q562 1414
633 1377T733 1272T762 1112V572H568L552 690Q504 620 448 584T306 548ZM396 708Q437 708 477 735T544 808V926Q535 928 525 928T504 928Q455 928 403 918T316 881T280 810Q280 750 310 729T396 708Z" />
<glyph unicode="&#xab;" glyph-name="guillemotleft" horiz-adv-x="1482" d="M1046 72L726 520L1050 970H1332L994 521L1326 72H1046ZM458 72L138 520L462 970H744L406 521L738 72H458Z" />
<glyph unicode="&#xac;" glyph-name="logicalnot" horiz-adv-x="1142" d="M160 688H982V142H784V492H160V688Z" />
<glyph unicode="&#xad;" glyph-name="uni00AD" horiz-adv-x="910" d="M136 492V688H774V492H136Z" />
<glyph unicode="&#xae;" glyph-name="registered" horiz-adv-x="1482" d="M742 -30Q591 -30 462 25T235 180T84 411T30 698Q30 853 84 985T235 1216T461 1371T742 1426Q893 1426 1022 1371T1249 1217T1400 985T1454 698Q1454 544 1400 412T1249 180T1023 26T742
-30ZM742 90Q914 90 1044 173T1248 394T1322 698Q1322 865 1249 1003T1045 1223T742 1306Q570 1306 440 1224T236 1003T162 698Q162 532 235 394T439 173T742 90ZM502 328V1094H748Q826 1094 892 1066T998 979T1038 828Q1038 747 995 674T854 573L1058 328H858L672
572V328H502ZM716 974H672V678H720Q866 678 866 822Q866 896 833 935T716 974Z" />
<glyph unicode="&#xaf;" glyph-name="overscore" horiz-adv-x="720" d="M40 1180V1362H680V1180H40Z" />
<glyph unicode="&#xb0;" glyph-name="degree" horiz-adv-x="838" d="M416 1020Q323 1020 245 1064T120 1189T72 1376Q72 1484 119 1564T245 1689T416 1734Q510 1734 589 1688T717 1562T766 1376Q766 1269 718 1189T590 1065T416 1020ZM416 1206Q482 1206 525 1253T568
1376Q568 1454 525 1502T416 1550Q355 1550 311 1506T266 1376Q266 1291 311 1249T416 1206Z" />
<glyph unicode="&#xb1;" glyph-name="plusminus" horiz-adv-x="1144" d="M674 928H1062V732H674V330H458V732H84V928H458V1330H674V928ZM84 0V186H1062V0H84Z" />
<glyph unicode="&#xb2;" glyph-name="uni00B2" horiz-adv-x="908" d="M558 932Q498 889 446 862T355 807T302 732H818V562H98Q92 577 88 597T84 648Q84 744 131 827T326 992Q384 1024 448 1058T558 1141T604 1266Q604 1320 563 1358T442 1396Q369 1396 317 1349T260
1250L84 1314Q94 1373 139 1432T262 1530T452 1570Q625 1570 721 1493T818 1282Q818 1192 781 1132T685 1026T558 932Z" />
<glyph unicode="&#xb3;" glyph-name="uni00B3" horiz-adv-x="848" d="M366 534Q183 534 48 616L120 782Q165 745 222 723T346 700Q456 700 505 742T554 850Q554 910 519 940T428 980T308 990H230V1128H318Q419 1128 467 1171T516 1278Q516 1349 462 1375T346 1402Q285
1402 227 1387T122 1330L58 1478Q106 1516 189 1544T376 1572Q544 1572 645 1506T746 1320Q746 1267 719 1212T644 1115T536 1060Q606 1060 660 1027T746 942T778 832Q778 738 724 672T577 570T366 534Z" />
<glyph unicode="&#xb4;" glyph-name="acute" horiz-adv-x="548" d="M40 1158L236 1562H508L258 1158H40Z" />
<glyph unicode="&#xb5;" glyph-name="uni00B5" horiz-adv-x="1116" d="M156 -436V996H396V418Q396 331 442 272T568 212Q620 212 657 244T714 326T734 432V996H974V292Q974 201 1000 117T1060 0H838Q807 21 788 72T768 178Q762 133 739 88T673 11T568 -20Q521
-20 477 -6T403 45T374 152V-436H156Z" />
<glyph unicode="&#xb6;" glyph-name="paragraph" horiz-adv-x="1250" d="M494 0V708Q373 708 280 764T133 917T80 1134Q80 1248 125 1343T270 1496T536 1554L1082 1556V0H880V1404H694V0H494Z" />
<glyph unicode="&#xb7;" glyph-name="middot" horiz-adv-x="466" d="M116 630V928H350V630H116Z" />
<glyph unicode="&#xb8;" glyph-name="cedilla" horiz-adv-x="588" d="M234 -542Q173 -542 118 -515T40 -466L82 -342Q123 -363 156 -373T222 -384Q278 -384 310 -356T342 -294Q342 -238 299 -219T208 -200Q192 -200 177 -202T148 -206L198 32H378L340 -114Q429
-114 488 -175T548 -314Q548 -412 503 -461T385 -526T234 -542Z" />
<glyph unicode="&#xb9;" glyph-name="uni00B9" horiz-adv-x="550" d="M164 562V1516L386 1570V562H164Z" />
<glyph unicode="&#xba;" glyph-name="ordmasculine" horiz-adv-x="944" d="M472 556Q274 556 167 669T60 984Q60 1188 171 1301T480 1414Q677 1414 780 1298T884 984Q884 789 777 673T472 556ZM476 720Q642 720 642 984Q642 1250 476 1250Q391 1250 347 1189T302
984Q302 842 346 781T476 720Z" />
<glyph unicode="&#xbb;" glyph-name="guillemotright" horiz-adv-x="1472" d="M1014 72H734L1066 521L728 970H1010L1334 520L1014 72ZM434 72H154L486 521L148 970H430L754 520L434 72Z" />
<glyph unicode="&#xbc;" glyph-name="onequarter" horiz-adv-x="1800" d="M164 482V1436L386 1490V482H164ZM294 -22L1056 1596H1258L494 -20L294 -22ZM942 116L1170 912H1402L1242 394L1188 266H1424L1438 548H1622V266H1762V116H1622V-64H1420V116H942Z" />
<glyph unicode="&#xbd;" glyph-name="onehalf" horiz-adv-x="1848" d="M164 482V1436L386 1490V482H164ZM294 -22L1056 1596H1258L494 -20L294 -22ZM1498 332Q1438 289 1386 262T1295 207T1242 132H1758V-38H1038Q1032 -23 1028 -3T1024 48Q1024 144 1071 227T1266
392Q1324 424 1388 458T1498 541T1544 666Q1544 720 1503 758T1382 796Q1309 796 1257 749T1200 650L1024 714Q1034 773 1079 832T1202 930T1392 970Q1565 970 1661 893T1758 682Q1758 592 1721 532T1625 426T1498 332Z" />
<glyph unicode="&#xbe;" glyph-name="threequarters" horiz-adv-x="2098" d="M366 454Q183 454 48 536L120 702Q165 665 222 643T346 620Q456 620 505 662T554 770Q554 830 519 860T428 900T308 910H230V1048H318Q419 1048 467 1091T516 1198Q516 1269 462 1295T346
1322Q285 1322 227 1307T122 1250L58 1398Q106 1436 189 1464T376 1492Q544 1492 645 1426T746 1240Q746 1187 719 1132T644 1035T536 980Q606 980 660 947T746 862T778 752Q778 658 724 592T577 490T366 454ZM592 -22L1354 1596H1556L792 -20L592 -22ZM1240 116L1468
912H1700L1540 394L1486 266H1722L1736 548H1920V266H2060V116H1920V-64H1718V116H1240Z" />
<glyph unicode="&#xbf;" glyph-name="questiondown" horiz-adv-x="848" d="M378 920V1218H604V920H378ZM602 728Q616 655 616 598Q616 504 590 446T522 349T438 280Q383 241 342 194T300 60Q300 -25 351 -69T482 -114Q577 -114 639 -64T726 36L868 -158Q817 -221
716 -278T476 -336Q254 -336 147 -239T40 34Q40 111 63 163T125 252T208 324Q255 361 297 404T367 509T394 668V728H602Z" />
<glyph unicode="&#xc0;" glyph-name="Agrave" horiz-adv-x="1134" d="M-34 0L556 1418H576L1168 0H896L818 202H320L246 0H-34ZM532 776L392 396H744L598 776L564 888L532 776ZM506 1524L256 1890H502L698 1524H506Z" />
<glyph unicode="&#xc1;" glyph-name="Aacute" horiz-adv-x="1134" d="M-34 0L556 1418H576L1168 0H896L818 202H320L246 0H-34ZM532 776L392 396H744L598 776L564 888L532 776ZM450 1524L646 1890H892L642 1524H450Z" />
<glyph unicode="&#xc2;" glyph-name="Acircumflex" horiz-adv-x="1134" d="M-34 0L556 1418H576L1168 0H896L818 202H320L246 0H-34ZM532 776L392 396H744L598 776L564 888L532 776ZM188 1524L502 1890H626L932 1524H730L565 1693L388 1524H188Z" />
<glyph unicode="&#xc3;" glyph-name="Atilde" horiz-adv-x="1134" d="M-34 0L556 1418H576L1168 0H896L818 202H320L246 0H-34ZM532 776L392 396H744L598 776L564 888L532 776ZM694 1530Q631 1530 596 1550T534 1594Q512 1615 490 1628T434 1642Q403 1642 371
1620T318 1546L214 1628Q246 1705 303 1758T436 1812Q502 1812 537 1792T596 1748Q616 1729 638 1717T696 1704Q731 1704 761 1730T802 1808L914 1722Q908 1675 878 1631T800 1559T694 1530Z" />
<glyph unicode="&#xc4;" glyph-name="Adieresis" horiz-adv-x="1134" d="M-34 0L556 1418H576L1168 0H896L818 202H320L246 0H-34ZM532 776L392 396H744L598 776L564 888L532 776ZM632 1524V1790H896V1524H632ZM232 1524V1790H496V1524H232Z" />
<glyph unicode="&#xc5;" glyph-name="Aring" horiz-adv-x="1172" d="M-34 0L527 1349Q439 1370 380 1438T320 1604Q320 1682 357 1741T457 1833T594 1866Q668 1866 730 1832T830 1739T868 1604Q868 1529 833 1472T738 1380T608 1342L1168 0H896L818 202H320L246
0H-34ZM594 1470Q645 1470 683 1503T722 1606Q722 1678 684 1709T594 1740Q543 1740 505 1710T466 1606Q466 1537 504 1504T594 1470ZM532 776L392 396H744L598 776L564 888L532 776Z" />
<glyph unicode="&#xc6;" glyph-name="AE" horiz-adv-x="1678" d="M10 0L788 1394H1556V1182H1072V850H1458V638H1072V220H1596V0H828V314H456L294 0H10ZM720 828L551 500H828V1067L720 828Z" />
<glyph unicode="&#xc7;" glyph-name="Ccedilla" horiz-adv-x="1054" d="M640 -24Q531 -24 430 20T249 155T121 386T74 716Q74 944 153 1100T366 1337T662 1418Q772 1418 841 1397T952 1347T1020 1294L908 1084Q865 1131 819 1159T672 1188Q570 1188 499 1129T390
967T352 730Q352 469 439 337T650 204Q745 204 812 231T912 292L1022 94Q994 71 948 44T827 -4T640 -24ZM552 -542Q491 -542 436 -515T358 -466L400 -342Q441 -363 474 -373T540 -384Q596 -384 628 -356T660 -294Q660 -238 617 -219T526 -200Q510 -200 495 -202T466
-206L516 32H696L658 -114Q747 -114 806 -175T866 -314Q866 -412 821 -461T703 -526T552 -542Z" />
<glyph unicode="&#xc8;" glyph-name="Egrave" horiz-adv-x="1012" d="M162 0V1394H890V1176H412V850H792V638H412V226H930V0H162ZM484 1524L234 1890H480L676 1524H484Z" />
<glyph unicode="&#xc9;" glyph-name="Eacute" horiz-adv-x="1012" d="M162 0V1394H890V1176H412V850H792V638H412V226H930V0H162ZM428 1524L624 1890H870L620 1524H428Z" />
<glyph unicode="&#xca;" glyph-name="Ecircumflex" horiz-adv-x="1012" d="M162 0V1394H890V1176H412V850H792V638H412V226H930V0H162ZM166 1524L480 1890H604L910 1524H708L543 1693L366 1524H166Z" />
<glyph unicode="&#xcb;" glyph-name="Edieresis" horiz-adv-x="1012" d="M162 0V1394H890V1176H412V850H792V638H412V226H930V0H162ZM610 1524V1790H874V1524H610ZM210 1524V1790H474V1524H210Z" />
<glyph unicode="&#xcc;" glyph-name="Igrave" horiz-adv-x="580" d="M162 0V1394H418V0H162ZM234 1524L-16 1890H230L426 1524H234Z" />
<glyph unicode="&#xcd;" glyph-name="Iacute" horiz-adv-x="580" d="M162 0V1394H418V0H162ZM178 1524L374 1890H620L370 1524H178Z" />
<glyph unicode="&#xce;" glyph-name="Icircumflex" horiz-adv-x="580" d="M162 0V1394H418V0H162ZM-84 1524L230 1890H354L660 1524H458L293 1693L116 1524H-84Z" />
<glyph unicode="&#xcf;" glyph-name="Idieresis" horiz-adv-x="580" d="M162 0V1394H418V0H162ZM360 1524V1790H624V1524H360ZM-40 1524V1790H224V1524H-40Z" />
<glyph unicode="&#xd0;" glyph-name="Eth" horiz-adv-x="1214" d="M162 0V632H42V802H162V1394H522Q825 1394 989 1225T1154 714Q1154 496 1081 336T867 88T520 0H162ZM676 632H420V220H514Q624 220 697 261T813 372T875 529T894 708Q894 834 859 945T741 1125T514
1194H420V802H676V632Z" />
<glyph unicode="&#xd1;" glyph-name="Ntilde" horiz-adv-x="1322" d="M1134 -28L466 734L404 814L414 620V0H168V1418H190L848 650L918 559L908 750V1394H1154V-28H1134ZM774 1530Q711 1530 676 1550T614 1594Q592 1615 570 1628T514 1642Q483 1642 451 1620T398
1546L294 1628Q326 1705 383 1758T516 1812Q582 1812 617 1792T676 1748Q696 1729 718 1717T776 1704Q811 1704 841 1730T882 1808L994 1722Q988 1675 958 1631T880 1559T774 1530Z" />
<glyph unicode="&#xd2;" glyph-name="Ograve" horiz-adv-x="1316" d="M660 -24Q471 -24 342 65T145 317T78 698Q78 915 144 1077T338 1328T654 1418Q849 1418 978 1327T1173 1074T1238 698Q1238 479 1171 317T975 66T660 -24ZM660 190Q791 190 881 316T972 704Q972
955 888 1082T654 1210Q509 1210 428 1082T346 702Q346 441 432 316T660 190ZM600 1524L350 1890H596L792 1524H600Z" />
<glyph unicode="&#xd3;" glyph-name="Oacute" horiz-adv-x="1316" d="M660 -24Q471 -24 342 65T145 317T78 698Q78 915 144 1077T338 1328T654 1418Q849 1418 978 1327T1173 1074T1238 698Q1238 479 1171 317T975 66T660 -24ZM660 190Q791 190 881 316T972 704Q972
955 888 1082T654 1210Q509 1210 428 1082T346 702Q346 441 432 316T660 190ZM544 1524L740 1890H986L736 1524H544Z" />
<glyph unicode="&#xd4;" glyph-name="Ocircumflex" horiz-adv-x="1316" d="M660 -24Q471 -24 342 65T145 317T78 698Q78 915 144 1077T338 1328T654 1418Q849 1418 978 1327T1173 1074T1238 698Q1238 479 1171 317T975 66T660 -24ZM660 190Q791 190 881 316T972
704Q972 955 888 1082T654 1210Q509 1210 428 1082T346 702Q346 441 432 316T660 190ZM282 1524L596 1890H720L1026 1524H824L659 1693L482 1524H282Z" />
<glyph unicode="&#xd5;" glyph-name="Otilde" horiz-adv-x="1316" d="M660 -24Q471 -24 342 65T145 317T78 698Q78 915 144 1077T338 1328T654 1418Q849 1418 978 1327T1173 1074T1238 698Q1238 479 1171 317T975 66T660 -24ZM660 190Q791 190 881 316T972 704Q972
955 888 1082T654 1210Q509 1210 428 1082T346 702Q346 441 432 316T660 190ZM788 1530Q725 1530 690 1550T628 1594Q606 1615 584 1628T528 1642Q497 1642 465 1620T412 1546L308 1628Q340 1705 397 1758T530 1812Q596 1812 631 1792T690 1748Q710 1729 732 1717T790
1704Q825 1704 855 1730T896 1808L1008 1722Q1002 1675 972 1631T894 1559T788 1530Z" />
<glyph unicode="&#xd6;" glyph-name="Odieresis" horiz-adv-x="1316" d="M660 -24Q471 -24 342 65T145 317T78 698Q78 915 144 1077T338 1328T654 1418Q849 1418 978 1327T1173 1074T1238 698Q1238 479 1171 317T975 66T660 -24ZM660 190Q791 190 881 316T972
704Q972 955 888 1082T654 1210Q509 1210 428 1082T346 702Q346 441 432 316T660 190ZM726 1524V1790H990V1524H726ZM326 1524V1790H590V1524H326Z" />
<glyph unicode="&#xd7;" glyph-name="multiply" horiz-adv-x="1170" d="M854 156L574 443L306 158L152 310L418 593L138 880L278 1018L555 735L822 1018L974 866L710 584L994 294L854 156Z" />
<glyph unicode="&#xd8;" glyph-name="Oslash" horiz-adv-x="1316" d="M264 -120L126 -44L243 152Q78 344 78 696Q78 913 144 1075T338 1328T654 1418Q800 1418 914 1363L1010 1530L1150 1458L1045 1271Q1142 1175 1190 1028T1238 696Q1238 477 1171 315T975 64T660
-26Q490 -26 364 49L264 -120ZM346 700Q346 592 361 508T406 361L823 1156Q752 1214 654 1214Q509 1214 428 1083T346 700ZM660 184Q791 184 881 312T972 702Q972 933 898 1065L470 264Q546 184 660 184Z" />
<glyph unicode="&#xd9;" glyph-name="Ugrave" horiz-adv-x="1242" d="M628 -26Q491 -26 379 21T199 183T132 498V1394H392V470Q392 352 430 293T523 213T624 192Q673 192 725 212T814 291T850 470V1394H1110V498Q1110 298 1045 184T871 22T628 -26ZM562 1524L312
1890H558L754 1524H562Z" />
<glyph unicode="&#xda;" glyph-name="Uacute" horiz-adv-x="1242" d="M628 -26Q491 -26 379 21T199 183T132 498V1394H392V470Q392 352 430 293T523 213T624 192Q673 192 725 212T814 291T850 470V1394H1110V498Q1110 298 1045 184T871 22T628 -26ZM506 1524L702
1890H948L698 1524H506Z" />
<glyph unicode="&#xdb;" glyph-name="Ucircumflex" horiz-adv-x="1242" d="M628 -26Q491 -26 379 21T199 183T132 498V1394H392V470Q392 352 430 293T523 213T624 192Q673 192 725 212T814 291T850 470V1394H1110V498Q1110 298 1045 184T871 22T628 -26ZM244 1524L558
1890H682L988 1524H786L621 1693L444 1524H244Z" />
<glyph unicode="&#xdc;" glyph-name="Udieresis" horiz-adv-x="1242" d="M628 -26Q491 -26 379 21T199 183T132 498V1394H392V470Q392 352 430 293T523 213T624 192Q673 192 725 212T814 291T850 470V1394H1110V498Q1110 298 1045 184T871 22T628 -26ZM688 1524V1790H952V1524H688ZM288
1524V1790H552V1524H288Z" />
<glyph unicode="&#xdd;" glyph-name="Yacute" horiz-adv-x="1076" d="M410 0V563L-30 1394H252L545 788L826 1394H1106L666 545V0H410ZM450 1524L646 1890H892L642 1524H450Z" />
<glyph unicode="&#xde;" glyph-name="Thorn" horiz-adv-x="1120" d="M168 0V1394H416V1176H540Q697 1176 819 1131T1010 981T1080 696Q1080 568 1025 458T846 280T518 212H416V0H168ZM534 974H416V416H524Q692 416 757 484T822 682Q822 771 797 836T709 938T534 974Z" />
<glyph unicode="&#xdf;" glyph-name="germandbls" horiz-adv-x="1188" d="M696 -10Q674 -10 637 -7T566 12L544 212Q592 194 664 194Q757 194 796 261T836 450Q836 575 767 643T552 712V898Q594 898 639 916T716 992T748 1168Q748 1247 725 1287T665 1342T588
1356Q517 1356 476 1314T416 1213T398 1108V0H146V788H44V996H146V1088Q146 1212 189 1300T302 1443T450 1525T600 1552Q748 1552 834 1503T958 1370T996 1184Q996 1065 948 972T815 848Q940 824 1024 724T1108 474Q1108 383 1087 297T1017 142T890 31T696 -10Z"
/>
<glyph unicode="&#xe0;" glyph-name="agrave" horiz-adv-x="994" d="M348 -28Q256 -28 196 13T106 122T76 272Q76 318 99 373T183 478T352 560T632 592V638Q632 712 597 761T454 810Q376 810 302 784T192 718L112 910Q172 951 272 985T496 1020Q644 1020 726 975T841
848T874 654V0H660L642 142Q538 -28 348 -28ZM454 164Q499 164 550 200T632 294V436Q622 438 611 438T584 438Q529 438 469 426T366 382T324 296Q324 224 356 194T454 164ZM380 1158L130 1562H402L598 1158H380Z" />
<glyph unicode="&#xe1;" glyph-name="aacute" horiz-adv-x="994" d="M348 -28Q256 -28 196 13T106 122T76 272Q76 318 99 373T183 478T352 560T632 592V638Q632 712 597 761T454 810Q376 810 302 784T192 718L112 910Q172 951 272 985T496 1020Q644 1020 726 975T841
848T874 654V0H660L642 142Q538 -28 348 -28ZM454 164Q499 164 550 200T632 294V436Q622 438 611 438T584 438Q529 438 469 426T366 382T324 296Q324 224 356 194T454 164ZM390 1158L586 1562H858L608 1158H390Z" />
<glyph unicode="&#xe2;" glyph-name="acircumflex" horiz-adv-x="994" d="M348 -28Q256 -28 196 13T106 122T76 272Q76 318 99 373T183 478T352 560T632 592V638Q632 712 597 761T454 810Q376 810 302 784T192 718L112 910Q172 951 272 985T496 1020Q644 1020
726 975T841 848T874 654V0H660L642 142Q538 -28 348 -28ZM454 164Q499 164 550 200T632 294V436Q622 438 611 438T584 438Q529 438 469 426T366 382T324 296Q324 224 356 194T454 164ZM146 1158L432 1562H556L842 1158H640L495 1350L346 1158H146Z" />
<glyph unicode="&#xe3;" glyph-name="atilde" horiz-adv-x="994" d="M348 -28Q256 -28 196 13T106 122T76 272Q76 318 99 373T183 478T352 560T632 592V638Q632 712 597 761T454 810Q376 810 302 784T192 718L112 910Q172 951 272 985T496 1020Q644 1020 726 975T841
848T874 654V0H660L642 142Q538 -28 348 -28ZM454 164Q499 164 550 200T632 294V436Q622 438 611 438T584 438Q529 438 469 426T366 382T324 296Q324 224 356 194T454 164ZM628 1138Q561 1138 524 1159T460 1204Q439 1224 416 1239T356 1254Q323 1254 292 1231T240
1154L128 1240Q163 1320 220 1376T360 1432Q431 1432 466 1412T526 1368Q547 1347 569 1334T632 1320Q668 1320 698 1346T738 1428L860 1338Q853 1289 820 1243T737 1168T628 1138Z" />
<glyph unicode="&#xe4;" glyph-name="adieresis" horiz-adv-x="994" d="M348 -28Q256 -28 196 13T106 122T76 272Q76 318 99 373T183 478T352 560T632 592V638Q632 712 597 761T454 810Q376 810 302 784T192 718L112 910Q172 951 272 985T496 1020Q644 1020 726
975T841 848T874 654V0H660L642 142Q538 -28 348 -28ZM454 164Q499 164 550 200T632 294V436Q622 438 611 438T584 438Q529 438 469 426T366 382T324 296Q324 224 356 194T454 164ZM562 1204V1470H826V1204H562ZM162 1204V1470H426V1204H162Z" />
<glyph unicode="&#xe5;" glyph-name="aring" horiz-adv-x="994" d="M348 -28Q256 -28 196 13T106 122T76 272Q76 318 99 373T183 478T352 560T632 592V638Q632 712 597 761T454 810Q376 810 302 784T192 718L112 910Q172 951 272 985T496 1020Q644 1020 726 975T841
848T874 654V0H660L642 142Q538 -28 348 -28ZM454 164Q499 164 550 200T632 294V436Q622 438 611 438T584 438Q529 438 469 426T366 382T324 296Q324 224 356 194T454 164ZM494 1168Q416 1168 350 1204T244 1302T204 1446Q204 1529 244 1591T350 1689T494 1724Q572
1724 638 1689T745 1591T786 1446Q786 1365 746 1303T639 1204T494 1168ZM494 1304Q548 1304 589 1339T630 1448Q630 1526 589 1558T494 1590Q440 1590 400 1558T360 1448Q360 1375 400 1340T494 1304Z" />
<glyph unicode="&#xe6;" glyph-name="ae" horiz-adv-x="1536" d="M1448 510Q1448 489 1448 464T1446 416H844Q850 298 910 230T1092 162Q1154 162 1225 189T1330 256L1410 66Q1370 39 1284 6T1050 -28Q915 -28 832 19T704 146Q657 78 594 40T466 -13T348 -28Q210
-28 143 56T76 264Q76 313 97 369T175 476T337 559T612 592L610 638Q610 712 579 761T448 810Q375 810 301 784T192 718L112 910Q172 951 272 985T490 1020Q597 1020 662 991T764 908Q814 961 883 990T1046 1020Q1195 1020 1283 959T1409 783T1448 510ZM842 572L1196
574Q1196 679 1177 734T1126 810T1052 830Q950 830 899 755T842 572ZM612 294L614 436Q604 438 592 438T568 438Q513 438 455 426T358 382T318 296Q318 224 352 194T448 164Q493 164 537 200T612 294Z" />
<glyph unicode="&#xe7;" glyph-name="ccedilla" horiz-adv-x="902" d="M540 -24Q381 -24 281 47T134 237T86 494Q86 632 139 752T296 946T554 1020Q640 1020 710 1002T846 930L764 718Q734 763 677 787T568 812Q350 812 350 496Q350 330 404 255T568 180Q640 180
695 207T778 266L854 88Q826 58 744 17T540 -24ZM464 -542Q403 -542 348 -515T270 -466L312 -342Q353 -363 386 -373T452 -384Q508 -384 540 -356T572 -294Q572 -238 529 -219T438 -200Q422 -200 407 -202T378 -206L428 32H608L570 -114Q659 -114 718 -175T778
-314Q778 -412 733 -461T615 -526T464 -542Z" />
<glyph unicode="&#xe8;" glyph-name="egrave" horiz-adv-x="1038" d="M552 -26Q384 -26 281 44T131 231T84 486Q84 631 137 752T294 947T548 1020Q772 1020 861 891T950 524Q950 503 949 471T946 416H346Q352 298 412 231T594 164Q656 164 727 191T832 258L912
68Q872 41 786 8T552 -26ZM344 572H696Q696 677 678 732T627 809T554 830Q452 830 401 755T344 572ZM440 1158L190 1562H462L658 1158H440Z" />
<glyph unicode="&#xe9;" glyph-name="eacute" horiz-adv-x="1038" d="M552 -26Q384 -26 281 44T131 231T84 486Q84 631 137 752T294 947T548 1020Q772 1020 861 891T950 524Q950 503 949 471T946 416H346Q352 298 412 231T594 164Q656 164 727 191T832 258L912
68Q872 41 786 8T552 -26ZM344 572H696Q696 677 678 732T627 809T554 830Q452 830 401 755T344 572ZM450 1158L646 1562H918L668 1158H450Z" />
<glyph unicode="&#xea;" glyph-name="ecircumflex" horiz-adv-x="1038" d="M552 -26Q384 -26 281 44T131 231T84 486Q84 631 137 752T294 947T548 1020Q772 1020 861 891T950 524Q950 503 949 471T946 416H346Q352 298 412 231T594 164Q656 164 727 191T832 258L912
68Q872 41 786 8T552 -26ZM344 572H696Q696 677 678 732T627 809T554 830Q452 830 401 755T344 572ZM206 1158L492 1562H616L902 1158H700L555 1350L406 1158H206Z" />
<glyph unicode="&#xeb;" glyph-name="edieresis" horiz-adv-x="1038" d="M552 -26Q384 -26 281 44T131 231T84 486Q84 631 137 752T294 947T548 1020Q772 1020 861 891T950 524Q950 503 949 471T946 416H346Q352 298 412 231T594 164Q656 164 727 191T832 258L912
68Q872 41 786 8T552 -26ZM344 572H696Q696 677 678 732T627 809T554 830Q452 830 401 755T344 572ZM622 1204V1470H886V1204H622ZM222 1204V1470H486V1204H222Z" />
<glyph unicode="&#xec;" glyph-name="igrave" horiz-adv-x="560" d="M150 0V996H410V0H150ZM166 1158L-84 1562H188L384 1158H166Z" />
<glyph unicode="&#xed;" glyph-name="iacute" horiz-adv-x="560" d="M150 0V996H410V0H150ZM176 1158L372 1562H644L394 1158H176Z" />
<glyph unicode="&#xee;" glyph-name="icircumflex" horiz-adv-x="560" d="M150 0V996H410V0H150ZM-68 1158L218 1562H342L628 1158H426L281 1350L132 1158H-68Z" />
<glyph unicode="&#xef;" glyph-name="idieresis" horiz-adv-x="560" d="M150 0V996H410V0H150ZM348 1204V1470H612V1204H348ZM-52 1204V1470H212V1204H-52Z" />
<glyph unicode="&#xf0;" glyph-name="eth" horiz-adv-x="1080" d="M524 -20Q401 -20 303 42T149 212T92 460Q92 604 142 714T284 887T502 950Q574 950 623 923T701 857T738 780Q727 901 662 1010T518 1190L426 1068L280 1162L373 1282Q327 1305 283 1320T212 1336L274
1506Q315 1503 374 1484T491 1439L602 1578L748 1480L649 1349Q767 1262 841 1137T951 865T986 562Q986 350 919 222T747 37T524 -20ZM540 164Q642 164 690 254T738 476Q738 569 730 616T698 694Q676 726 635 750T540 774Q477 774 433 733T364 624T340 472Q340
333 393 249T540 164Z" />
<glyph unicode="&#xf1;" glyph-name="ntilde" horiz-adv-x="1118" d="M148 0V996H380L385 865Q424 925 494 972T678 1020Q830 1020 904 924T978 658V0H722V636Q722 719 687 770T580 822Q510 822 457 771T404 636V0H148ZM722 1138Q655 1138 618 1159T554 1204Q533
1224 510 1239T450 1254Q417 1254 386 1231T334 1154L222 1240Q257 1320 314 1376T454 1432Q525 1432 560 1412T620 1368Q641 1347 663 1334T726 1320Q762 1320 792 1346T832 1428L954 1338Q947 1289 914 1243T831 1168T722 1138Z" />
<glyph unicode="&#xf2;" glyph-name="ograve" horiz-adv-x="1088" d="M544 -20Q324 -20 204 118T84 500Q84 746 208 883T552 1020Q773 1020 888 879T1004 500Q1004 263 885 122T544 -20ZM548 180Q738 180 738 500Q738 822 548 822Q454 822 402 748T350 500Q350
328 402 254T548 180ZM430 1158L180 1562H452L648 1158H430Z" />
<glyph unicode="&#xf3;" glyph-name="oacute" horiz-adv-x="1088" d="M544 -20Q324 -20 204 118T84 500Q84 746 208 883T552 1020Q773 1020 888 879T1004 500Q1004 263 885 122T544 -20ZM548 180Q738 180 738 500Q738 822 548 822Q454 822 402 748T350 500Q350
328 402 254T548 180ZM440 1158L636 1562H908L658 1158H440Z" />
<glyph unicode="&#xf4;" glyph-name="ocircumflex" horiz-adv-x="1088" d="M544 -20Q324 -20 204 118T84 500Q84 746 208 883T552 1020Q773 1020 888 879T1004 500Q1004 263 885 122T544 -20ZM548 180Q738 180 738 500Q738 822 548 822Q454 822 402 748T350 500Q350
328 402 254T548 180ZM196 1158L482 1562H606L892 1158H690L545 1350L396 1158H196Z" />
<glyph unicode="&#xf5;" glyph-name="otilde" horiz-adv-x="1088" d="M544 -20Q324 -20 204 118T84 500Q84 746 208 883T552 1020Q773 1020 888 879T1004 500Q1004 263 885 122T544 -20ZM548 180Q738 180 738 500Q738 822 548 822Q454 822 402 748T350 500Q350
328 402 254T548 180ZM678 1138Q611 1138 574 1159T510 1204Q489 1224 466 1239T406 1254Q373 1254 342 1231T290 1154L178 1240Q213 1320 270 1376T410 1432Q481 1432 516 1412T576 1368Q597 1347 619 1334T682 1320Q718 1320 748 1346T788 1428L910 1338Q903
1289 870 1243T787 1168T678 1138Z" />
<glyph unicode="&#xf6;" glyph-name="odieresis" horiz-adv-x="1088" d="M544 -20Q324 -20 204 118T84 500Q84 746 208 883T552 1020Q773 1020 888 879T1004 500Q1004 263 885 122T544 -20ZM548 180Q738 180 738 500Q738 822 548 822Q454 822 402 748T350 500Q350
328 402 254T548 180ZM612 1204V1470H876V1204H612ZM212 1204V1470H476V1204H212Z" />
<glyph unicode="&#xf7;" glyph-name="divide" horiz-adv-x="1084" d="M408 912V1170H674V912H408ZM58 492V688H1026V492H58ZM408 10V268H674V10H408Z" />
<glyph unicode="&#xf8;" glyph-name="oslash" horiz-adv-x="1106" d="M216 -122L98 -42L201 118Q82 255 82 500Q82 746 206 883T550 1020Q682 1020 779 966L882 1124L1000 1048L890 874Q1002 737 1002 500Q1002 263 883 122T542 -20Q411 -20 314 30L216 -122ZM348
500Q348 378 375 304L661 776Q616 822 546 822Q452 822 400 748T348 500ZM546 180Q736 180 736 500Q736 603 715 674L429 219Q474 180 546 180Z" />
<glyph unicode="&#xf9;" glyph-name="ugrave" horiz-adv-x="1086" d="M434 -24Q283 -24 212 72T140 338V996H390V360Q390 278 420 226T522 174Q593 174 640 226T688 360V996H938V0H712L707 129Q670 70 607 23T434 -24ZM434 1158L184 1562H456L652 1158H434Z" />
<glyph unicode="&#xfa;" glyph-name="uacute" horiz-adv-x="1086" d="M434 -24Q283 -24 212 72T140 338V996H390V360Q390 278 420 226T522 174Q593 174 640 226T688 360V996H938V0H712L707 129Q670 70 607 23T434 -24ZM444 1158L640 1562H912L662 1158H444Z" />
<glyph unicode="&#xfb;" glyph-name="ucircumflex" horiz-adv-x="1086" d="M434 -24Q283 -24 212 72T140 338V996H390V360Q390 278 420 226T522 174Q593 174 640 226T688 360V996H938V0H712L707 129Q670 70 607 23T434 -24ZM200 1158L486 1562H610L896 1158H694L549
1350L400 1158H200Z" />
<glyph unicode="&#xfc;" glyph-name="udieresis" horiz-adv-x="1086" d="M434 -24Q283 -24 212 72T140 338V996H390V360Q390 278 420 226T522 174Q593 174 640 226T688 360V996H938V0H712L707 129Q670 70 607 23T434 -24ZM616 1204V1470H880V1204H616ZM216 1204V1470H480V1204H216Z"
/>
<glyph unicode="&#xfd;" glyph-name="yacute" horiz-adv-x="946" d="M200 -378L362 68L-12 996H266L414 552L478 322L542 552L692 996H954L446 -378H200ZM358 1158L554 1562H826L576 1158H358Z" />
<glyph unicode="&#xfe;" glyph-name="thorn" horiz-adv-x="1128" d="M156 -436V1520H396V996L376 824Q392 892 439 936T548 1001T666 1022Q852 1022 947 891T1042 502Q1042 323 989 206T845 30T644 -28Q540 -28 472 36T379 186L398 10V-436H156ZM586 170Q635 170
679 202T752 308T780 502Q780 670 724 744T590 818Q497 818 449 723T400 486Q400 345 449 258T586 170ZM376 198V198V198V198Z" />
<glyph unicode="&#xff;" glyph-name="ydieresis" horiz-adv-x="946" d="M200 -378L362 68L-12 996H266L414 552L478 322L542 552L692 996H954L446 -378H200ZM530 1204V1470H794V1204H530ZM130 1204V1470H394V1204H130Z" />
<glyph unicode="&#x2013;" glyph-name="endash" horiz-adv-x="1298" d="M136 492V688H1162V492H136Z" />
<glyph unicode="&#x2014;" glyph-name="emdash" horiz-adv-x="1906" d="M136 492V688H1770V492H136Z" />
<glyph unicode="&#x2018;" glyph-name="quoteleft" horiz-adv-x="584" d="M106 778Q106 888 124 1001T168 1217T214 1394H414Q398 1318 384 1214T361 995T352 778H106Z" />
<glyph unicode="&#x2019;" glyph-name="quoteright" horiz-adv-x="584" d="M140 778Q156 854 170 959T193 1177T202 1394H448Q448 1284 430 1171T387 955T340 778H140Z" />
<glyph unicode="&#x201a;" glyph-name="quotesinglbase" horiz-adv-x="584" d="M158 -252Q158 -142 176 -29T220 187T266 364H466Q450 288 436 184T413 -35T404 -252H158Z" />
<glyph unicode="&#x201c;" glyph-name="quotedblleft" horiz-adv-x="1010" d="M532 778Q532 888 550 1001T594 1217T640 1394H840Q824 1318 810 1214T787 995T778 778H532ZM106 778Q106 888 124 1001T168 1217T214 1394H414Q398 1318 384 1214T361 995T352 778H106Z" />
<glyph unicode="&#x201d;" glyph-name="quotedblright" horiz-adv-x="970" d="M526 778Q542 854 556 959T579 1177T588 1394H834Q834 1284 816 1171T773 955T726 778H526ZM140 778Q156 854 170 959T193 1177T202 1394H448Q448 1284 430 1171T387 955T340 778H140Z" />
<glyph unicode="&#x201e;" glyph-name="quotedblbase" horiz-adv-x="1010" d="M158 -250Q158 -140 176 -27T220 189T266 366H466Q450 290 436 186T413 -33T404 -250H158ZM584 -250Q584 -140 602 -27T646 189T692 366H892Q876 290 862 186T839 -33T830 -250H584Z" />
<glyph unicode="&#x2022;" glyph-name="bullet" horiz-adv-x="674" d="M338 440Q268 440 212 487T156 634Q156 729 212 779T338 830Q410 830 467 780T524 634Q524 534 468 487T338 440Z" />
<glyph unicode="&#x2039;" glyph-name="guilsinglleft" horiz-adv-x="902" d="M458 48L138 496L462 946H744L406 497L738 48H458Z" />
<glyph unicode="&#x203a;" glyph-name="guilsinglright" horiz-adv-x="892" d="M434 72H154L486 521L148 970H430L754 520L434 72Z" />
</font>
</defs>
</svg>
