<?xml version="1.0" standalone="no"?>
<!DOCTYPE svg PUBLIC "-//W3C//DTD SVG 1.1//EN" "http://www.w3.org/Graphics/SVG/1.1/DTD/svg11.dtd">
<svg xmlns="http://www.w3.org/2000/svg">
<defs >
<font id="Grenze" horiz-adv-x="461" ><font-face
    font-family="Grenze"
    units-per-em="1000"
    panose-1="2 14 5 4 6 4 3 5 4 4"
    ascent="1100"
    descent="-380"
    alphabetic="0" />
<glyph unicode=" " glyph-name="space" horiz-adv-x="159" />
<glyph unicode="!" glyph-name="exclam" horiz-adv-x="261" d="M112 184T106 189T100 197L82 610Q155 624 158 624Q160 624 169 616T179 605L161 189Q124 184 114 184Q112 184 106 189ZM96 -1T89 8T82 21L87 112H171L178 5Q124 -1 99 -1Q96 -1 89 8Z" />
<glyph unicode="&quot;" glyph-name="quotedbl" horiz-adv-x="307" d="M35 677Q39 678 59 681T100 685Q104 685 113 677T122 665Q110 575 96 490L56 489L35 677ZM185 677Q189 678 209 681T250 685Q254 685 263 677T272 665Q259 570 246 490L206 489L185 677Z" />
<glyph unicode="#" glyph-name="numbersign" horiz-adv-x="557" d="M393 301L375 190H487L476 121H364L344 0H292L312 121H200L180 0H128L148 121H34L45 190H159L177 301H65L76 370H189L209 494H261L241 370H353L373 494H425L405 370H518L507 301H393ZM341 301H229L211
190H323L341 301Z" />
<glyph unicode="$" glyph-name="dollar" horiz-adv-x="491" d="M271 313Q347 278 391 245T436 163Q436 128 431 107Q418 82 390 55T329 9T274 -10V-103H216V-9Q121 -5 65 -1L70 152H125L137 70Q217 53 291 53Q304 53 314 69T331 105T337 138Q337 164 306 185T194
243Q124 275 95 307T66 381Q66 409 71 431Q81 453 108 483T166 534T221 556V659H279V555Q337 553 407 546L396 395H342L333 481Q230 499 195 499Q178 499 165 479T152 430Q152 403 161 386T190 357T245 326L271 313Z" />
<glyph unicode="%" glyph-name="percent" horiz-adv-x="928" d="M581 611H643L345 -9H283L581 611ZM157 280T122 317T86 432Q86 500 119 545T234 591Q314 591 349 553T385 436Q384 370 350 325T236 280Q157 280 122 317ZM255 325T297 350Q301 396 301 436Q301
480 297 503T282 536T249 546Q212 546 171 520Q167 476 167 436Q167 392 171 369T186 335T219 325Q255 325 297 350ZM615 11T580 48T544 163Q544 231 577 276T692 322Q772 322 807 284T843 167Q842 101 808 56T694 11Q615 11 580 48ZM713 57T755 82Q759 128 759
168Q759 212 755 235T740 268T707 278Q670 278 629 252Q625 208 625 168Q625 124 629 101T644 67T677 57Q713 57 755 82Z" />
<glyph unicode="&amp;" glyph-name="ampersand" horiz-adv-x="584" d="M569 45V0H473Q462 0 380 85L366 61Q349 43 296 17T219 -9Q147 -9 89 28T30 154Q30 209 64 258T145 343Q96 403 96 475Q96 486 98 502T105 527Q114 543 159 577T218 611Q283 611 320 589T358
523Q358 497 353 464T346 427H295L290 507Q289 539 262 547T194 555Q183 555 175 541T167 505Q167 475 177 448T213 392Q256 341 380 210Q406 254 426 296L361 315V353H544V307L506 298Q478 254 425 163L527 58L569 45ZM291 63T335 133L176 308Q151 279 139 241T126
165Q126 106 156 80T232 54Q257 54 276 59Q291 63 335 133Z" />
<glyph unicode="&apos;" glyph-name="quotesingle" horiz-adv-x="157" d="M35 677Q39 678 59 681T100 685Q104 685 113 677T122 665Q110 575 96 490L56 489L35 677Z" />
<glyph unicode="(" glyph-name="parenleft" horiz-adv-x="247" d="M125 -44T81 51T36 283Q36 422 80 516T186 680L217 654Q175 586 151 487T126 284Q126 180 151 80T217 -86L186 -112Q125 -44 81 51Z" />
<glyph unicode=")" glyph-name="parenright" horiz-adv-x="247" d="M30 -86Q71 -19 96 81T121 283Q121 387 96 487T30 654L61 680Q122 612 166 517T211 285Q211 146 167 52T61 -112L30 -86Z" />
<glyph unicode="*" glyph-name="asterisk" horiz-adv-x="322" d="M132 397L147 497L67 435L48 439L24 489L127 532L24 575L48 625L67 629L147 566L132 677L188 681L201 667L186 566L266 629L285 625L309 575L205 532L309 489L285 439L266 435L186 498L201 387L145
383L132 397Z" />
<glyph unicode="+" glyph-name="plus" horiz-adv-x="629" d="M529 224H351V33H277V224H100V284H277V474H351V284H529V224Z" />
<glyph unicode="," glyph-name="comma" horiz-adv-x="218" d="M50 -106Q58 -89 71 -55T90 -4Q88 -3 79 3T70 14L73 101Q123 107 144 107Q148 107 158 97T168 81V31Q168 12 142 -36T87 -124L50 -106Z" />
<glyph unicode="-" glyph-name="hyphen" horiz-adv-x="328" d="M40 279H288V209H40V279Z" />
<glyph unicode="." glyph-name="period" horiz-adv-x="195" d="M74 -10T61 2T48 21L46 104Q65 109 86 112T117 116Q122 116 135 103T149 85L143 2Q123 -3 106 -6T80 -10Q74 -10 61 2Z" />
<glyph unicode="/" glyph-name="slash" horiz-adv-x="355" d="M248 687H310L107 -118H45L248 687Z" />
<glyph unicode="0" glyph-name="zero" horiz-adv-x="482" d="M144 -9T95 53T46 233Q46 294 65 348T128 438T241 474Q340 474 388 412T436 233Q436 172 417 117T355 27T243 -9Q144 -9 95 53ZM252 47T274 55T324 80Q329 103 331 137T333 233Q333 334 316 376T257
418Q208 418 159 385Q152 361 151 328T149 233Q149 132 166 90T224 47Q252 47 274 55Z" />
<glyph unicode="1" glyph-name="one" horiz-adv-x="375" d="M57 38L159 59V392L52 382V425L207 474L249 459V59L337 38V0H57V38Z" />
<glyph unicode="2" glyph-name="two" horiz-adv-x="440" d="M39 50L208 256Q238 293 248 314T259 360Q259 380 252 398T235 416Q227 416 191 409T134 397L124 314H74L67 453Q100 460 161 467T242 474Q292 474 327 450T362 374Q362 343 345 307T302 241L168 80V74H324L331
145H382L386 0H47L39 50Z" />
<glyph unicode="3" glyph-name="three" horiz-adv-x="388" d="M57 -37Q134 -18 190 23T246 122Q246 154 235 175T209 197H106V239Q175 256 202 284T230 361Q230 380 223 398T206 416Q198 416 161 409T104 397L94 324H44L37 453Q71 460 119 467T183 474Q243 474
280 448T317 369Q317 343 302 318T266 274T232 251V246Q289 235 316 209T343 132Q343 85 301 37T192 -47T57 -92V-37Z" />
<glyph unicode="4" glyph-name="four" horiz-adv-x="471" d="M272 43H29L23 92Q58 164 108 280T190 475L269 442V421Q247 373 196 273T115 119L117 111H272V248L339 273L358 266V111H426V43H358V-90H272V43Z" />
<glyph unicode="5" glyph-name="five" horiz-adv-x="389" d="M57 -37Q117 -21 156 -4T221 46T247 130Q247 179 225 201T170 223Q164 223 112 205L65 189L49 211L72 465H252L257 510H305L311 391H133L122 258Q125 260 152 272T189 285Q267 285 305 245T343 148Q343
82 301 30T194 -54T57 -92V-37Z" />
<glyph unicode="6" glyph-name="six" horiz-adv-x="443" d="M152 -9T100 49T47 210Q47 314 89 387T199 501T348 552V497Q261 479 206 422T144 294L147 292Q231 335 240 335Q328 335 364 289T400 174Q400 156 397 129T389 89Q369 60 322 26T248 -9Q152 -9 100 49ZM284
49T294 78T304 177Q304 233 286 253T233 273Q228 273 199 265T143 247Q142 229 142 196Q142 143 152 112T188 65T264 49Q284 49 294 78Z" />
<glyph unicode="7" glyph-name="seven" horiz-adv-x="415" d="M144 -99T119 -88T72 -65L294 379L292 391H108L99 314H49L41 465H375L387 420L169 -90Q158 -99 150 -99Q144 -99 119 -88Z" />
<glyph unicode="8" glyph-name="eight" horiz-adv-x="437" d="M164 -10T124 15T66 76T48 145Q48 184 67 216T129 281V286Q97 308 79 336T61 402Q61 437 67 454Q75 467 103 491T164 534T217 553Q290 553 333 518T376 427Q376 342 307 279V274Q345 249 367 219T389
145Q389 116 380 89Q372 76 344 52T283 9T230 -10Q164 -10 124 15ZM288 356T288 402Q288 446 268 470T186 494Q170 494 162 480T153 434Q153 399 168 376T202 340T266 302Q288 356 288 402ZM268 49T276 59T291 88T297 128Q297 155 282 176T246 212T186 248Q174
254 168 258Q156 237 146 211T136 160Q136 112 162 81T262 49Q268 49 276 59Z" />
<glyph unicode="9" glyph-name="nine" horiz-adv-x="443" d="M92 -37Q152 -25 198 6T270 81T301 170L298 172Q272 157 247 143T215 129Q127 129 86 179T45 299Q45 318 49 340T58 375Q77 404 124 438T197 473Q294 473 346 416T398 254Q398 149 356 75T244 -41T92
-92V-37ZM229 191T302 217Q303 233 303 262Q303 317 293 349T257 398T181 415Q159 415 150 388T141 306Q141 191 222 191Q229 191 302 217Z" />
<glyph unicode=":" glyph-name="colon" horiz-adv-x="196" d="M74 -10T61 2T48 21L46 104Q65 109 86 112T117 116Q122 116 135 103T149 85L143 2Q123 -3 106 -6T80 -10Q74 -10 61 2ZM74 347T61 359T48 378L46 461Q65 466 86 469T117 473Q122 473 135 460T149 442L143
359Q123 354 106 351T80 347Q74 347 61 359Z" />
<glyph unicode=";" glyph-name="semicolon" horiz-adv-x="196" d="M74 347T61 359T48 378L46 461Q65 466 86 469T117 473Q122 473 135 460T149 442L143 359Q123 354 106 351T80 347Q74 347 61 359ZM295 -106Q303 -89 316 -55T335 -4Q333 -3 324 3T315 14L318 101Q368
107 389 107Q393 107 403 97T413 81V31Q413 12 387 -36T332 -124L295 -106Z" />
<glyph unicode="&lt;" glyph-name="less" horiz-adv-x="579" d="M85 193V283L494 458V386L130 238L494 90V18L85 193Z" />
<glyph unicode="=" glyph-name="equal" horiz-adv-x="599" d="M100 358H499V298H100V358ZM100 178H499V118H100V178Z" />
<glyph unicode="&gt;" glyph-name="greater" horiz-adv-x="579" d="M85 90L449 238L85 386V458L494 283V193L85 18V90Z" />
<glyph unicode="?" glyph-name="question" horiz-adv-x="402" d="M299 610T331 583T364 491Q364 451 349 419T310 364T250 309L229 291Q204 269 195 245T185 166Q147 161 138 161Q136 161 130 166T124 174L122 239Q121 265 132 285T157 318T203 360Q247 398 265
427T284 490Q284 514 277 532T251 551Q225 551 138 538L130 450H76L66 598Q182 610 228 610Q299 610 331 583ZM183 106L193 -4Q155 -9 127 -9Q124 -9 117 0T111 13L126 106H183Z" />
<glyph unicode="@" glyph-name="at" horiz-adv-x="795" d="M245 -166T181 -128T77 -10T36 189Q36 325 80 428T209 589T415 647Q759 647 759 354Q759 280 739 204T692 66T666 9Q618 2 572 -3T505 -9Q501 -9 486 5T471 24V63L441 40Q376 -9 371 -9Q331 -9 296 14T238
85T215 203Q215 248 222 291T240 358Q250 373 280 397T341 439T384 457Q404 457 559 434V62L628 52Q648 118 659 196T671 332Q671 462 608 524T417 586Q367 586 311 571T209 529Q190 510 170 455T138 332T125 210Q125 108 141 41T211 -67T370 -108Q397 -108 461
-104L467 -146Q435 -154 393 -160T314 -166Q245 -166 181 -128ZM387 65T468 105V380Q440 387 407 392T359 398Q311 398 311 216Q311 165 322 131T349 81T377 65Q387 65 468 105Z" />
<glyph unicode="A" glyph-name="A" horiz-adv-x="575" d="M6 38L68 58L228 596Q260 601 292 605T338 610Q342 610 354 602L517 58L579 38V0H350V43L418 63L379 202H193L156 63L227 43V0H6V38ZM364 255L292 523H280L208 255H364Z" />
<glyph unicode="B" glyph-name="B" horiz-adv-x="511" d="M42 38L104 58V545L42 565V603H289Q367 603 405 568T443 447Q443 391 417 364T353 319V313Q412 303 447 267T483 174Q483 80 434 40T301 0H42V38ZM266 330Q308 330 326 350T345 432Q345 500 336 529T302
556L197 544V330H266ZM359 44T372 76T385 186Q385 226 375 244T348 268T300 273H197V61L329 47Q359 44 372 76Z" />
<glyph unicode="C" glyph-name="C" horiz-adv-x="456" d="M176 -9T135 22T69 117T43 277Q43 345 51 402T73 494Q88 518 122 545T190 592T239 611Q268 610 320 608T424 601L412 428H358L346 530Q322 535 283 538T224 541Q204 541 192 535Q168 522 155 463T142 312Q142
172 176 119T270 65H342L359 192L410 191L411 14Q387 7 313 -1T223 -9Q176 -9 135 22Z" />
<glyph unicode="D" glyph-name="D" horiz-adv-x="574" d="M42 38L104 58V545L42 565V603H319Q374 603 422 576T500 484T530 318Q530 156 475 78T319 0H42V38ZM381 47T406 118T431 312Q431 378 420 433T387 522T338 556L197 542V63L338 47Q381 47 406 118Z" />
<glyph unicode="E" glyph-name="E" horiz-adv-x="475" d="M42 38L104 58V545L42 565V603H440L427 428H373L362 554L197 540V342L343 337V290L197 285V65L371 49L387 179H441L445 0H42V38Z" />
<glyph unicode="F" glyph-name="F" horiz-adv-x="443" d="M42 38L104 58V545L42 565V603H421L408 428H354L343 554L197 540V325L336 320V273L197 268V65L297 43V0H42V38Z" />
<glyph unicode="G" glyph-name="G" horiz-adv-x="534" d="M195 -9T147 23T71 119T43 277Q43 345 51 402T73 494Q88 518 122 545T190 592T239 611Q271 610 330 607T444 599L432 428H378L366 527Q340 532 291 536T224 541Q204 541 192 535Q168 522 155 463T142 312Q142
171 173 115T260 59L369 69V228L276 245V291H507V252L455 239V59Q434 44 354 18T256 -9Q195 -9 147 23Z" />
<glyph unicode="H" glyph-name="H" horiz-adv-x="621" d="M42 38L104 58V545L42 565V603H263V560L197 540V337H424V540L358 560V603H579V565L517 545V58L579 38V0H358V43L424 63V284H197V63L263 43V0H42V38Z" />
<glyph unicode="I" glyph-name="I" horiz-adv-x="306" d="M43 38L105 58V545L42 565V603H264V560L198 540V63L264 43V0H43V38Z" />
<glyph unicode="J" glyph-name="J" horiz-adv-x="301" d="M48 -123T-3 -108L-38 -99V-52Q57 -52 72 -49Q104 -43 104 70V545L39 565V603H262V565L197 545V38Q197 9 171 -28T111 -94T62 -123Q48 -123 -3 -108Z" />
<glyph unicode="K" glyph-name="K" horiz-adv-x="538" d="M42 38L104 58V545L42 565V603H263V560L197 540V63L263 43V0H42V38ZM424 4T350 112Q253 253 227 292V320L380 540L315 560V603H536V565L474 545L311 320Q352 263 417 177T512 58L562 42V0H427Q424 4 350 112Z" />
<glyph unicode="L" glyph-name="L" horiz-adv-x="460" d="M42 38L104 58V545L42 565V603H273V560L197 540V65L378 49L394 179H448L452 0H42V38Z" />
<glyph unicode="M" glyph-name="M" horiz-adv-x="789" d="M42 38L104 58L122 545L60 565V603H254L390 124H402L537 603H732V565L670 545L689 58L751 38V0H530V43L596 63L588 491H581Q547 363 528 301L451 48Q419 43 390 39T350 34Q346 34 334 42L258 295Q243 345
204 491H197L189 63L255 43V0H42V38Z" />
<glyph unicode="N" glyph-name="N" horiz-adv-x="597" d="M387 -7T375 1L257 295Q237 344 186 486H179L189 99V63L255 43V0H42V38L104 58V545L42 565V603H226L363 268Q376 235 425 87H433L423 505V540L357 560V603H570V565L508 545V7Q484 3 445 -1T391 -7Q387 -7 375 1Z" />
<glyph unicode="O" glyph-name="O" horiz-adv-x="548" d="M175 -9T109 61T43 283Q43 350 51 404T73 494Q88 518 121 545T189 592T239 611Q373 611 439 541T505 318Q505 202 480 108Q464 86 429 58T359 11T309 -9Q175 -9 109 61ZM312 51T347 69T387 94Q406 178
406 300Q406 425 375 487T265 549Q215 549 192 537Q167 524 155 464T142 303Q142 205 156 151T205 74T301 51Q312 51 347 69Z" />
<glyph unicode="P" glyph-name="P" horiz-adv-x="503" d="M42 38L104 58V545L42 565V603H304Q382 603 423 562T465 429Q465 318 412 267T275 215H197V63L282 43V0H42V38ZM287 272Q318 272 333 279T358 312T367 396Q367 471 353 511T310 552L197 542V272H287Z" />
<glyph unicode="Q" glyph-name="Q" horiz-adv-x="550" d="M507 -62L483 -118H437L246 -5Q144 10 94 80T43 283Q43 350 51 404T73 494Q88 518 121 545T189 592T239 611Q373 611 439 541T505 318Q505 202 480 108Q461 81 416 48T336 -1L507 -62ZM142 205T156 151T205
74T301 51Q312 51 347 69T387 94Q406 178 406 300Q406 425 375 487T265 549Q215 549 192 537Q167 524 155 464T142 303Q142 205 156 151Z" />
<glyph unicode="R" glyph-name="R" horiz-adv-x="527" d="M42 38L104 58V545L42 565V603H294Q377 603 416 567T455 439Q455 366 423 324T338 269V263Q417 131 465 57L519 42V0H387Q373 28 335 100Q273 214 252 260H197V63L264 46V0H42V38ZM278 317Q320 317 338
337T357 419Q357 488 343 520T300 552L197 542V317H278Z" />
<glyph unicode="S" glyph-name="S" horiz-adv-x="441" d="M164 -9T44 1L51 184H107L123 72Q162 66 203 62T272 57Q278 57 288 70T306 101T314 137Q314 176 286 202T198 261Q151 288 122 309T73 362T52 436Q52 464 57 488Q69 510 102 539T170 589T222 611Q230 611
340 600Q352 599 365 598T391 595L384 422H328L313 524Q281 530 238 535T172 541Q159 541 150 524T141 469Q141 429 169 402T252 344Q306 313 335 293T387 240T409 163Q409 138 403 114Q391 89 359 60T293 11T239 -9Q164 -9 44 1Z" />
<glyph unicode="T" glyph-name="T" horiz-adv-x="479" d="M131 38L193 58V545L84 539L74 415H21L8 603H471L458 415H404L394 539L286 545V63L352 43V0H131V38Z" />
<glyph unicode="U" glyph-name="U" horiz-adv-x="597" d="M98 -8T98 170V545L36 565V603H257V560L191 540V191Q191 120 207 97T251 73Q268 73 313 84T400 108V540L334 560V603H555V565L493 545V58L555 38V0H423L402 59Q394 56 384 51T362 41Q258 -8 247 -8Q98 -8 98 170Z" />
<glyph unicode="V" glyph-name="V" horiz-adv-x="552" d="M226 -7T214 1L72 545L10 565V603H239V560L170 540L247 231Q257 189 276 92H287L323 244Q383 494 393 540L321 560V603H542V565L480 545L413 287L340 7Q308 2 276 -2T230 -7Q226 -7 214 1Z" />
<glyph unicode="W" glyph-name="W" horiz-adv-x="815" d="M216 -7T204 1L72 545L10 565V603H227V560L170 540L240 231Q249 189 269 92H280Q284 110 298 160T321 243Q358 374 377 447L353 545L299 568V603H516V557L451 540L514 231Q523 189 543 92H554L590 244Q650
494 660 540L588 560V603H809V565L747 545L680 287L607 7Q575 2 543 -2T497 -7Q493 -7 481 1L416 292H407L330 7Q298 2 266 -2T220 -7Q216 -7 204 1Z" />
<glyph unicode="X" glyph-name="X" horiz-adv-x="528" d="M-10 38L52 58L207 306L61 545L8 565V603H237V560L165 540L273 371H277L369 540L300 560V603H521V565L459 545L324 319L484 58L546 38V0H307V43L374 63L260 254H256L142 63L211 43V0H-10V38Z" />
<glyph unicode="Y" glyph-name="Y" horiz-adv-x="519" d="M150 38L215 58V224L56 545L-6 565V603H223V560L157 540L263 315H272L373 540L304 560V603H525V565L463 545L308 227V58L373 38V0H150V38Z" />
<glyph unicode="Z" glyph-name="Z" horiz-adv-x="477" d="M46 38L305 540L136 554L127 428H72L59 603H422V565L165 65L368 49L380 184H434L445 0H46V38Z" />
<glyph unicode="[" glyph-name="bracketleft" horiz-adv-x="241" d="M60 -105V673L203 680L208 644L137 624V-56L208 -77L203 -112L60 -105Z" />
<glyph unicode="\" glyph-name="backslash" horiz-adv-x="303" d="M16 687H84L287 -118H219L16 687Z" />
<glyph unicode="]" glyph-name="bracketright" horiz-adv-x="241" d="M33 -77L104 -56V624L33 644L38 680L181 673V-105L38 -112L33 -77Z" />
<glyph unicode="^" glyph-name="asciicircum" horiz-adv-x="519" d="M50 276L212 603H306L469 276L418 251L259 561L101 251L50 276Z" />
<glyph unicode="_" glyph-name="underscore" horiz-adv-x="495" d="M25 -72H470V-117H25V-72Z" />
<glyph unicode="`" glyph-name="grave" horiz-adv-x="185" d="M0 605V630L49 680L185 549L162 519L0 605Z" />
<glyph unicode="a" glyph-name="a" horiz-adv-x="448" d="M153 -9T118 14T60 87T38 209Q38 256 44 296T62 358Q78 381 133 419T207 457Q227 457 382 434V58L416 44V7Q337 -9 328 -9Q324 -9 309 5T294 24V63Q288 58 244 25T194 -9Q153 -9 118 14ZM211 65T291 105V380Q266
388 226 394T172 399Q153 396 144 356T134 216Q134 165 145 131T172 81T200 65Q211 65 291 105Z" />
<glyph unicode="b" glyph-name="b" horiz-adv-x="447" d="M228 -9T160 -1T65 12V579L30 593V630Q52 635 79 640T121 646Q126 646 141 632T156 613L151 389L156 388Q167 396 177 404T197 418Q248 457 253 457Q293 457 329 434T387 363T409 245Q409 194 403 153T385
90Q369 67 314 29T240 -9Q228 -9 160 -1ZM294 52T303 92T313 232Q313 283 302 317T275 367T247 383Q242 383 212 370T156 343V68Q181 60 221 54T275 49Q294 52 303 92Z" />
<glyph unicode="c" glyph-name="c" horiz-adv-x="344" d="M145 -9T112 14T59 85T38 203Q38 252 44 295T62 358Q72 373 102 397T164 439T207 457Q255 457 317 438L314 310H253L239 379Q227 385 209 390T177 395Q168 395 163 391Q149 380 142 332T134 216Q134 164
145 130T173 80T204 64H317V22Q282 11 238 1T181 -9Q145 -9 112 14Z" />
<glyph unicode="d" glyph-name="d" horiz-adv-x="451" d="M154 -9T119 14T61 85T38 203Q38 254 44 295T62 358Q78 381 133 419T207 457Q223 457 296 446V579L261 593V630Q344 646 352 646Q357 646 372 632T387 613L382 427V58L416 44V7Q337 -9 328 -9Q324 -9 309
5T294 24V63L264 40Q199 -9 194 -9Q154 -9 119 14ZM209 65T291 105V380Q263 388 224 394T172 399Q153 396 144 356T134 216Q134 165 145 131T172 81T200 65Q209 65 291 105Z" />
<glyph unicode="e" glyph-name="e" horiz-adv-x="405" d="M161 -9T123 14T62 85T38 203Q38 253 44 295T62 358Q72 373 103 398T167 442T212 461Q266 461 299 444T351 379T370 241L134 221Q134 161 150 126T187 76T227 62L274 64L356 67V26Q319 14 269 3T204 -9Q161
-9 123 14ZM273 280Q273 340 257 370T204 401Q182 401 166 394Q153 388 145 348T136 262L273 280Z" />
<glyph unicode="f" glyph-name="f" horiz-adv-x="261" d="M98 -9T84 5T69 24V395H22V434L69 453V491Q69 511 93 548T148 616T194 646Q208 646 233 644T282 640Q289 635 296 625T304 610Q304 607 295 587T284 560Q261 566 226 574T180 582Q173 582 167 565T161
526L160 448H255V394H160V63L211 48V7Q112 -9 103 -9Q98 -9 84 5Z" />
<glyph unicode="g" glyph-name="g" horiz-adv-x="428" d="M195 -181T127 -172T25 -155L34 -82L158 30Q131 30 104 54T58 123T40 229Q40 261 45 298T61 358Q77 380 133 418T208 457Q218 457 278 448T373 434V-21Q373 -52 347 -89T286 -154T230 -181Q195 -181 127
-172ZM219 76T282 120V380Q261 387 231 393T185 399Q177 399 175 398Q135 384 135 228Q135 174 148 140T178 91T209 76Q219 76 282 120ZM271 -135T278 -87T285 15V65L280 67Q225 17 146 -58Q123 -81 105 -97V-103Q121 -110 180 -122T260 -135Q271 -135 278 -87Z"
/>
<glyph unicode="h" glyph-name="h" horiz-adv-x="474" d="M97 -9T83 5T69 24V579L34 593V630Q116 646 125 646Q130 646 145 632T160 613L155 387L160 386Q254 456 260 456Q332 456 368 419T404 288V59L439 44V7Q356 -9 347 -9Q342 -9 328 5T313 24V288Q313 350
296 366T255 382Q245 382 160 344V59L194 44V7Q111 -9 102 -9Q97 -9 83 5Z" />
<glyph unicode="i" glyph-name="i" horiz-adv-x="228" d="M104 -9T87 7T69 28V393L34 404V441Q110 456 119 456Q125 456 142 441T159 419V54L194 44V7Q118 -9 109 -9Q104 -9 87 7ZM319 641L396 646L411 624L406 537H326L319 641Z" />
<glyph unicode="j" glyph-name="j" horiz-adv-x="219" d="M68 641L145 646L160 624L155 537H75L68 641ZM26 -181T-11 -168T-57 -152V-113Q36 -108 44 -102Q69 -88 69 13V392L21 402V441Q110 456 119 456Q125 456 142 441T159 419V-22Q159 -51 136 -88T84 -153T38
-181Q26 -181 -11 -168Z" />
<glyph unicode="k" glyph-name="k" horiz-adv-x="438" d="M98 -9T84 5T70 24V579L34 593V630Q118 646 127 646Q132 646 146 632T160 613V59L194 44V7Q112 -9 103 -9Q98 -9 84 5ZM350 -9T335 3T315 23L179 221V262L295 394L251 400V448L381 455Q385 455 392 436T399
408L252 254L396 60L436 44V7Q362 -9 354 -9Q350 -9 335 3Z" />
<glyph unicode="l" glyph-name="l" horiz-adv-x="229" d="M98 -9T84 5T70 24V579L34 593V630Q118 646 127 646Q132 646 146 632T160 613V59L194 44V7Q112 -9 103 -9Q98 -9 84 5Z" />
<glyph unicode="m" glyph-name="m" horiz-adv-x="689" d="M98 -9T84 5T69 24V389L34 404V441Q116 456 125 456Q130 456 143 443T157 424V386Q183 408 213 432T246 456Q296 456 329 440T378 386Q402 408 430 432T461 456Q540 456 580 419T620 288V59L654 44V7Q572
-9 564 -9Q559 -9 544 5T529 24V288Q529 350 510 366T466 382Q457 382 390 344V59L424 44V7Q342 -9 334 -9Q329 -9 314 5T299 24V288Q299 350 281 366T241 382Q231 382 160 344V59L194 44V7Q112 -9 103 -9Q98 -9 84 5Z" />
<glyph unicode="n" glyph-name="n" horiz-adv-x="474" d="M98 -9T84 5T69 24V389L34 404V441Q116 456 125 456Q130 456 143 443T157 424V386Q187 408 221 432T260 456Q332 456 368 419T404 288V59L439 44V7Q356 -9 348 -9Q343 -9 328 5T313 24V288Q313 350 295
366T255 382Q244 382 206 365T160 344V59L194 44V7Q112 -9 103 -9Q98 -9 84 5Z" />
<glyph unicode="o" glyph-name="o" horiz-adv-x="453" d="M142 -9T90 44T38 209Q38 255 44 296T62 358Q72 373 103 398T167 442T211 461Q312 461 363 407T415 249Q415 201 409 159T393 90Q377 68 321 30T246 -9Q142 -9 90 44ZM258 50T302 73Q319 148 319 236Q319
314 291 358T206 402Q181 402 166 394Q152 386 143 341T134 223Q134 125 167 87T251 48Q258 50 302 73Z" />
<glyph unicode="p" glyph-name="p" horiz-adv-x="450" d="M93 -181T78 -167T63 -148L68 13V390L34 404V441Q56 446 86 451T122 457Q126 457 141 443T156 424V385L186 408Q251 457 256 457Q296 457 331 434T389 363T412 245Q412 194 406 153T388 90Q372 67 317
29T243 -9Q227 -9 154 2V-109L194 -125V-165Q171 -170 142 -175T98 -181Q93 -181 78 -167ZM297 52T306 92T316 232Q316 283 305 317T278 367T250 383Q242 383 159 343V68Q184 60 224 54T278 49Q297 52 306 92Z" />
<glyph unicode="q" glyph-name="q" horiz-adv-x="442" d="M321 -181T306 -167T291 -148L296 59L291 60Q280 52 270 44T250 30Q199 -9 194 -9Q154 -9 118 14T60 85T38 203Q38 254 44 295T62 358Q78 381 133 419T207 457Q219 457 287 449T382 436V-114L417 -128V-165Q334
-181 326 -181Q321 -181 306 -167ZM209 65T291 105V380Q266 388 226 394T172 399Q153 396 144 356T134 216Q134 165 145 131T172 81T200 65Q209 65 291 105Z" />
<glyph unicode="r" glyph-name="r" horiz-adv-x="310" d="M98 -9T84 5T69 24V392L34 404V441Q110 456 119 456Q124 456 141 440T159 420L157 385Q229 461 235 461Q251 461 302 445Q305 438 306 429T308 414Q308 408 297 386T281 362Q248 375 228 375Q215 375 160
343V63L211 48V7Q112 -9 103 -9Q98 -9 84 5Z" />
<glyph unicode="s" glyph-name="s" horiz-adv-x="363" d="M199 -9T136 -5T40 4L42 148L92 149L113 73Q136 65 167 59T214 52Q222 52 233 74T245 113Q245 131 237 143T210 167T149 202Q88 235 65 260T42 320Q42 354 47 369Q63 394 100 425T154 456Q187 456 239
454T320 448L317 326H261L254 379Q246 382 202 388T147 395Q125 395 125 353Q125 334 139 321T172 296T197 281L224 265Q278 235 309 209T341 148Q341 125 334 97Q318 68 280 30T220 -9Q199 -9 136 -5Z" />
<glyph unicode="t" glyph-name="t" horiz-adv-x="280" d="M132 -9T114 5T83 39T69 69V395H5V425L69 457L125 525Q134 525 160 511V448H257V390H160V113Q160 82 165 71T184 60L266 58V10Q237 4 195 -2T143 -9Q132 -9 114 5Z" />
<glyph unicode="u" glyph-name="u" horiz-adv-x="465" d="M138 -9T102 28T66 160V389L32 404V441Q114 456 122 456Q127 456 142 442T157 424V160Q157 98 175 82T215 65Q225 65 306 103V389L272 404V441Q354 456 363 456Q368 456 382 442T397 424V59L431 44V7Q350
-9 341 -9Q336 -9 323 5T309 24V62Q281 40 247 16T210 -9Q138 -9 102 28Z" />
<glyph unicode="v" glyph-name="v" horiz-adv-x="402" d="M157 -11T147 -3L35 391L-2 402V443Q74 455 83 455Q88 455 104 444T122 425L184 181L204 95H215L297 393L238 400V448L353 455Q358 455 370 441T382 420L251 7Q167 -11 160 -11Q157 -11 147 -3Z" />
<glyph unicode="w" glyph-name="w" horiz-adv-x="620" d="M153 -11T143 -3L35 391L-2 402V443Q74 455 83 455Q88 455 104 444T122 425L180 181L200 95H211L280 325L261 392L224 402V443Q300 455 309 455Q314 455 330 444T348 425L406 181L426 95H437L515 393L449
400V448L571 455Q576 455 588 441T600 420L473 7Q389 -11 382 -11Q379 -11 369 -3L311 217H305L247 7Q163 -11 156 -11Q153 -11 143 -3Z" />
<glyph unicode="x" glyph-name="x" horiz-adv-x="409" d="M25 -9T18 10T10 37L154 229L51 389L16 400V443Q87 454 95 454Q99 454 110 443T126 424L214 286L289 396L240 400V448L364 454Q369 454 376 435T384 408L248 229L358 63L397 48V5Q334 -9 325 -9Q321 -9
306 3T286 23L189 172L109 55L157 48V0L30 -9Q25 -9 18 10Z" />
<glyph unicode="y" glyph-name="y" horiz-adv-x="405" d="M155 -181T146 -164T137 -141L184 1Q164 -3 158 -3Q155 -3 143 5L37 391L-2 402V443Q74 455 83 455Q88 455 104 444T123 425L181 192L204 85H214L298 393L238 400V448L353 455Q358 455 370 441T382 420L249
0L220 -114L259 -132V-169Q167 -181 159 -181Q155 -181 146 -164Z" />
<glyph unicode="z" glyph-name="z" horiz-adv-x="393" d="M56 6T49 21T38 46Q85 122 147 234L227 374L225 386L115 392L106 326H54L46 448H321Q339 419 344 403Q260 252 159 80V66L293 60L305 144H356L359 0H61Q56 6 49 21Z" />
<glyph unicode="{" glyph-name="braceleft" horiz-adv-x="285" d="M103 -105V212L33 259V293L103 340V673L246 680L251 644L180 624V324L102 279L180 228V-56L251 -77L246 -112L103 -105Z" />
<glyph unicode="|" glyph-name="bar" horiz-adv-x="205" d="M70 673H135V-196H70V673Z" />
<glyph unicode="}" glyph-name="braceright" horiz-adv-x="285" d="M33 -77L104 -56V228L182 279L104 324V624L33 644L38 680L181 673V340L251 293V259L181 212V-105L38 -112L33 -77Z" />
<glyph unicode="~" glyph-name="asciitilde" horiz-adv-x="568" d="M357 276T325 282T244 299Q192 313 172 313Q159 313 139 297T117 279L85 306Q114 340 137 362T179 384Q218 384 310 360Q382 343 401 343Q419 343 450 380L483 352Q465 328 437 302T388 276Q357
276 325 282Z" />
<glyph unicode="&#xa0;" glyph-name="uni00A0" horiz-adv-x="159" />
<glyph unicode="&#xa1;" glyph-name="exclamdown" horiz-adv-x="261" d="M82 442Q136 448 161 448Q164 448 171 439T178 426L173 335H89L82 442ZM100 -177T91 -169T81 -158L99 258Q136 263 146 263Q148 263 154 258T160 250L178 -163Q105 -177 102 -177Q100 -177
91 -169Z" />
<glyph unicode="&#xa2;" glyph-name="cent" horiz-adv-x="364" d="M148 205T159 171T187 121T218 105H331V63Q299 53 246 41V-52H194V32Q158 33 126 56T73 127T52 244Q52 293 58 336T76 399Q88 416 123 443T190 486V577H241V497Q283 494 331 479L328 351H267L253
420Q241 426 223 431T191 436Q182 436 177 432Q163 421 156 373T148 257Q148 205 159 171Z" />
<glyph unicode="&#xa3;" glyph-name="sterling" horiz-adv-x="530" d="M480 0H205Q160 0 95 -12L74 -15L61 38Q93 46 107 58T126 95T131 170L130 260H58L63 309H130Q131 412 142 463T182 536T268 557Q301 557 369 551T462 541L451 395H397L388 486Q365 489 318
494T258 499Q243 499 236 484T226 429T223 309H356L351 260H222Q220 178 212 137T183 70L406 49L421 152H476L480 0Z" />
<glyph unicode="&#xa4;" glyph-name="currency" horiz-adv-x="667" d="M85 179L152 244Q118 297 118 365Q118 432 155 488L85 559L122 598L191 530Q253 586 339 586Q420 586 480 536L544 598L581 559L516 495Q552 442 552 373Q552 305 512 246L582 178L545 139L476
206Q447 181 410 167T331 152Q246 152 187 203L122 140L85 179ZM406 214T443 255T480 369Q480 438 443 481T336 524Q264 524 227 483T190 369Q190 301 227 258T335 214Q406 214 443 255Z" />
<glyph unicode="&#xa5;" glyph-name="yen" horiz-adv-x="589" d="M185 38L252 58V170H106L111 219H251L224 269H106L111 318H203L97 489L35 509V547H264V501L196 484L301 299H310L402 484L333 501V547H554V509L492 489L385 318H488L483 269H362L343 232V219H488L483
170H343V58L408 38V0H185V38Z" />
<glyph unicode="&#xa6;" glyph-name="brokenbar" horiz-adv-x="205" d="M70 673H135V308H70V673ZM70 184H135V-196H70V184Z" />
<glyph unicode="&#xa7;" glyph-name="section" horiz-adv-x="472" d="M188 -104T85 -95L94 62H143L152 -23L187 -28Q269 -40 298 -40Q302 -40 308 -22T314 9Q314 54 221 105Q155 139 123 174T90 254Q90 273 96 295Q102 307 119 323T157 354Q90 402 90 465Q90 484
96 506Q107 524 137 549T200 592T248 611Q266 611 356 601L391 598L380 450H332L323 526Q297 530 300 530Q215 547 199 547Q192 547 184 526T175 493Q175 463 200 440T283 384Q400 319 400 258Q400 243 398 226T393 200Q376 172 336 139Q400 91 400 38Q400 26 398
10T393 -14Q376 -42 333 -73T265 -104Q188 -104 85 -95ZM304 177T309 194T314 223Q314 253 287 275T214 320Q209 323 204 325T196 330Q188 319 182 303T175 274Q175 251 194 231T236 199T298 166Q304 177 309 194Z" />
<glyph unicode="&#xa8;" glyph-name="dieresis" horiz-adv-x="247" d="M0 641L77 646L92 624L87 537H7L0 641ZM155 641L232 646L247 624L242 537H162L155 641Z" />
<glyph unicode="&#xa9;" glyph-name="copyright" horiz-adv-x="838" d="M322 93T245 136T125 257T81 431Q81 528 124 605T245 725T419 769Q516 769 593 726T713 605T757 431Q757 334 714 257T593 137T419 93Q322 93 245 136ZM501 149T562 184T657 284T691 431Q691
514 658 578T563 677T419 713Q337 713 276 678T181 578T147 431Q147 348 180 284T275 185T419 149Q501 149 562 184ZM372 257T344 276T298 334T280 431Q280 489 295 541Q313 564 354 592T412 620Q427 620 455 618T512 614L503 499H467L459 564Q451 565 422 570T379
576Q367 576 358 539T349 454Q349 369 370 337T428 304L508 314L513 281Q488 274 449 266T402 257Q372 257 344 276Z" />
<glyph unicode="&#xaa;" glyph-name="ordfeminine" horiz-adv-x="390" d="M139 319T108 337T56 394T36 490Q36 522 40 551T51 597Q67 617 113 651T174 686Q186 686 250 677T322 666V380L354 367V333Q281 319 273 319Q269 319 256 331T243 348V384Q227 370 212
353Q178 319 174 319Q139 319 108 337ZM187 385T240 422V618L205 628Q161 642 154 642Q148 642 141 622T129 569T124 502Q124 467 134 440T157 399T180 385Q187 385 240 422Z" />
<glyph unicode="&#xab;" glyph-name="guillemotleft" horiz-adv-x="429" d="M35 218V255L175 406L207 383L126 239V233L203 79L171 54L35 218ZM202 218V255L342 406L374 383L293 239V233L371 79L339 54L202 218Z" />
<glyph unicode="&#xac;" glyph-name="logicalnot" horiz-adv-x="475" d="M445 159H385V256H20V314H445V159Z" />
<glyph unicode="&#xad;" glyph-name="uni00AD" horiz-adv-x="328" d="M40 279H288V209H40V279Z" />
<glyph unicode="&#xae;" glyph-name="registered" horiz-adv-x="674" d="M261 239T200 274T105 369T71 505Q71 580 105 640T200 736T337 771Q413 771 474 736T569 641T603 505Q603 430 569 370T474 274T337 239Q261 239 200 274ZM431 295T486 352T541 505Q541
565 516 613T445 688T337 716Q243 716 188 659T133 505Q133 445 157 398T228 323T337 295Q431 295 486 352ZM232 389L259 397V611L232 619V643H352Q396 643 416 621T436 566Q436 529 420 509T383 480V475L425 400L448 394V368H391L342 474H308V400L337 394V368H232V389ZM346
507Q368 507 375 515T382 554Q382 588 378 602T356 616L312 610V507H346Z" />
<glyph unicode="&#xaf;" glyph-name="overscore" horiz-adv-x="285" d="M0 613H285V547H0V613Z" />
<glyph unicode="&#xb0;" glyph-name="degree" horiz-adv-x="309" d="M103 384T72 414T40 493Q40 541 73 574T156 607Q204 607 236 576T269 497Q269 449 235 417T152 384Q103 384 72 414ZM176 439T192 454T208 495Q208 520 192 536T154 552Q131 552 116 536T101
495Q101 470 116 455T154 439Q176 439 192 454Z" />
<glyph unicode="&#xb1;" glyph-name="plusminus" horiz-adv-x="559" d="M474 324V264H316V113H242V264H85V324H242V474H316V324H474ZM85 51H474V-9H85V51Z" />
<glyph unicode="&#xb2;" glyph-name="uni00B2" horiz-adv-x="380" d="M330 363H59L54 389L181 535Q229 589 229 621Q229 637 224 651T210 666Q203 666 176 661T134 651L126 593H88L82 696Q111 702 152 707T206 713Q247 713 276 694T306 633Q306 607 292 583T255
531L162 423V419H282L288 479H327L330 363Z" />
<glyph unicode="&#xb3;" glyph-name="uni00B3" horiz-adv-x="374" d="M302 539T302 470Q302 443 286 417T241 373T178 355Q155 355 84 368L89 400Q137 398 162 398Q191 398 202 402Q211 406 219 425T228 472Q228 499 221 513T202 527H136V559Q170 565 187 575T208
597T213 631Q213 647 209 661T196 675Q181 675 127 666L118 617H82V708Q111 712 138 714T183 717Q231 717 256 697T282 638Q282 596 222 561V559Q302 539 302 470Z" />
<glyph unicode="&#xb4;" glyph-name="acute" horiz-adv-x="185" d="M0 549L136 680L185 630V605L23 519L0 549Z" />
<glyph unicode="&#xb5;" glyph-name="uni00B5" horiz-adv-x="512" d="M480 17Q457 6 435 -1T406 -9Q378 -9 353 10T315 55Q237 -9 233 -9Q179 -9 141 11V-35Q141 -83 152 -116T178 -161Q186 -167 277 -172L284 -211L263 -218Q199 -240 184 -240Q169 -240 140 -210T89
-140T67 -71V389L33 404V441Q115 456 123 456Q128 456 143 442T158 424V160Q158 64 220 64L236 65Q241 65 263 75T307 96V389L273 404V441Q355 456 364 456Q369 456 383 442T398 424V134Q398 95 403 79T422 56T474 46L480 17Z" />
<glyph unicode="&#xb6;" glyph-name="paragraph" horiz-adv-x="677" d="M239 46L324 63V215H246Q163 215 110 266T56 429Q56 521 97 562T217 603H395V0H239V46ZM457 603H593V564L528 544V58L590 38V0H457V603Z" />
<glyph unicode="&#xb7;" glyph-name="middot" horiz-adv-x="192" d="M74 254T61 266T48 285L46 368Q65 373 86 376T117 380Q122 380 135 367T149 349L143 266Q123 261 106 258T80 254Q74 254 61 266Z" />
<glyph unicode="&#xb8;" glyph-name="cedilla" horiz-adv-x="156" d="M0 -185Q44 -162 59 -151T75 -124Q75 -110 56 -102T12 -90L6 -66L33 11L75 8L68 -46Q103 -51 129 -69T156 -111Q156 -135 146 -156Q115 -181 21 -218L0 -185Z" />
<glyph unicode="&#xb9;" glyph-name="uni00B9" horiz-adv-x="359" d="M304 397V363H80V399L160 413V646L76 638V673L200 713L235 701V411L304 397Z" />
<glyph unicode="&#xba;" glyph-name="ordmasculine" horiz-adv-x="378" d="M120 317T78 362T36 490Q36 566 51 595Q65 614 115 650T180 686Q260 686 301 639T342 510Q342 485 338 455T328 408Q312 389 261 353T196 317Q120 317 78 362ZM246 390Q254 432 254 498Q254
544 242 582T200 633Q190 637 175 638T152 640Q149 640 142 620T130 568T124 502Q124 443 145 405T195 367L246 390Z" />
<glyph unicode="&#xbb;" glyph-name="guillemotright" horiz-adv-x="429" d="M58 79L136 233V239L55 383L87 406L227 255V218L90 54L58 79ZM226 79L303 233V239L222 383L254 406L394 255V218L258 54L226 79Z" />
<glyph unicode="&#xbc;" glyph-name="onequarter" horiz-adv-x="833" d="M304 553V519H80V555L160 569V802L76 794V829L200 869L235 857V567L304 553ZM764 80H706V0H635V80H497L483 130L589 344H706V137H764V80ZM635 137V285H628L558 143L560 137H635ZM549 611H611L313
-9H251L549 611Z" />
<glyph unicode="&#xbd;" glyph-name="onehalf" horiz-adv-x="813" d="M304 553V519H80V555L160 569V802L76 794V829L200 869L235 857V567L304 553ZM536 611H598L300 -9H238L536 611ZM763 0H492L487 26L614 172Q662 226 662 258Q662 274 657 288T643 303Q636 303
609 298T567 288L559 230H521L515 333Q544 339 585 344T639 350Q680 350 709 331T739 270Q739 244 725 220T688 168L595 60V56H715L721 116H760L763 0Z" />
<glyph unicode="&#xbe;" glyph-name="threequarters" horiz-adv-x="774" d="M302 695T302 626Q302 599 286 573T241 529T178 511Q155 511 84 524L89 556Q137 554 162 554Q191 554 202 558Q211 562 219 581T228 628Q228 655 221 669T202 683H136V715Q170 721 187
731T208 753T213 787Q213 803 209 817T196 831Q181 831 127 822L118 773H82V864Q111 868 138 870T183 873Q231 873 256 853T282 794Q282 752 222 717V715Q302 695 302 626ZM705 80H647V0H576V80H438L424 130L530 344H647V137H705V80ZM576 137V285H569L499 143L501
137H576ZM507 611H569L271 -9H209L507 611Z" />
<glyph unicode="&#xbf;" glyph-name="questiondown" horiz-adv-x="407" d="M239 331L229 441Q267 446 295 446Q298 446 305 437T311 424L296 331H239ZM356 -161Q240 -173 194 -173Q123 -173 91 -146T58 -54Q58 -14 73 18T112 73T172 128L193 146Q218 168 227 192T237
271Q269 276 284 276Q286 276 292 271T298 263L300 198Q301 172 290 152T265 119T219 77Q175 39 157 10T138 -53Q138 -77 145 -95T171 -114Q197 -114 284 -101L292 -13H346L356 -161Z" />
<glyph unicode="&#xc0;" glyph-name="Agrave" horiz-adv-x="575" d="M6 38L68 58L228 596Q260 601 292 605T338 610Q342 610 354 602L517 58L579 38V0H350V43L418 63L379 202H193L156 63L227 43V0H6V38ZM364 255L292 523H280L208 255H364ZM183 704L179 730L219
790L382 696L367 660L183 704Z" />
<glyph unicode="&#xc1;" glyph-name="Aacute" horiz-adv-x="575" d="M6 38L68 58L228 596Q260 601 292 605T338 610Q342 610 354 602L517 58L579 38V0H350V43L418 63L379 202H193L156 63L227 43V0H6V38ZM364 255L292 523H280L208 255H364ZM195 696L358 790L398
730L394 704L210 660L195 696Z" />
<glyph unicode="&#xc2;" glyph-name="Acircumflex" horiz-adv-x="575" d="M6 38L68 58L228 596Q260 601 292 605T338 610Q342 610 354 602L517 58L579 38V0H350V43L418 63L379 202H193L156 63L227 43V0H6V38ZM364 255L292 523H280L208 255H364ZM158 691L261 782H317L420
691L393 658L294 712H283L185 658L158 691Z" />
<glyph unicode="&#xc3;" glyph-name="Atilde" horiz-adv-x="575" d="M6 38L68 58L228 596Q260 601 292 605T338 610Q342 610 354 602L517 58L579 38V0H350V43L418 63L379 202H193L156 63L227 43V0H6V38ZM364 255L292 523H280L208 255H364ZM332 657T311 663T262
682Q235 694 226 694Q216 694 171 660L139 687Q160 714 186 739T228 765Q252 765 315 739Q352 724 361 724Q368 724 384 737T410 761L444 732Q430 711 400 684T353 657Q332 657 311 663Z" />
<glyph unicode="&#xc4;" glyph-name="Adieresis" horiz-adv-x="575" d="M6 38L68 58L228 596Q260 601 292 605T338 610Q342 610 354 602L517 58L579 38V0H350V43L418 63L379 202H193L156 63L227 43V0H6V38ZM364 255L292 523H280L208 255H364ZM156 764L233 769L248
747L243 660H163L156 764ZM331 764L408 769L423 747L418 660H338L331 764Z" />
<glyph unicode="&#xc5;" glyph-name="Aring" horiz-adv-x="575" d="M6 38L68 58L228 596Q260 601 292 605T338 610Q342 610 354 602L517 58L579 38V0H350V43L418 63L379 202H193L156 63L227 43V0H6V38ZM364 255L292 523H280L208 255H364ZM238 655T213 679T187
760Q187 808 214 835T291 862Q342 862 369 837T396 757Q396 709 368 682T289 655Q238 655 213 679ZM309 696T331 707Q335 729 335 756Q335 794 325 807T291 821Q280 821 272 819T252 810Q248 788 248 761Q248 722 257 709T289 696Q309 696 331 707Z" />
<glyph unicode="&#xc6;" glyph-name="AE" horiz-adv-x="751" d="M6 38L68 58L283 545L214 565V603H701L688 428H634L623 554L473 540V342L612 337V290L473 285V65L647 49L663 179H717L721 0H318V38L380 58V203H218L158 63L227 43V0H6V38ZM380 256V540H357L231 256H380Z" />
<glyph unicode="&#xc7;" glyph-name="Ccedilla" horiz-adv-x="456" d="M168 522T155 463T142 312Q142 172 176 119T270 65H342L359 192L410 191L411 14Q379 6 276 -5L271 -46Q306 -51 332 -69T359 -111Q359 -135 349 -156Q318 -181 224 -218L203 -185Q247 -162
262 -151T278 -124Q278 -110 259 -102T215 -90L209 -66L229 -9H223Q176 -9 135 22T69 117T43 277Q43 345 51 402T73 494Q88 518 122 545T190 592T239 611Q268 610 320 608T424 601L412 428H358L346 530Q322 535 283 538T224 541Q204 541 192 535Q168 522 155 463Z"
/>
<glyph unicode="&#xc8;" glyph-name="Egrave" horiz-adv-x="475" d="M42 38L104 58V545L42 565V603H440L427 428H373L362 554L197 540V342L343 337V290L197 285V65L371 49L387 179H441L445 0H42V38ZM147 704L143 730L183 790L346 696L331 660L147 704Z" />
<glyph unicode="&#xc9;" glyph-name="Eacute" horiz-adv-x="475" d="M42 38L104 58V545L42 565V603H440L427 428H373L362 554L197 540V342L343 337V290L197 285V65L371 49L387 179H441L445 0H42V38ZM159 696L322 790L362 730L358 704L174 660L159 696Z" />
<glyph unicode="&#xca;" glyph-name="Ecircumflex" horiz-adv-x="475" d="M42 38L104 58V545L42 565V603H440L427 428H373L362 554L197 540V342L343 337V290L197 285V65L371 49L387 179H441L445 0H42V38ZM122 691L225 782H281L384 691L357 658L258 712H247L149
658L122 691Z" />
<glyph unicode="&#xcb;" glyph-name="Edieresis" horiz-adv-x="475" d="M42 38L104 58V545L42 565V603H440L427 428H373L362 554L197 540V342L343 337V290L197 285V65L371 49L387 179H441L445 0H42V38ZM120 764L197 769L212 747L207 660H127L120 764ZM295 764L372
769L387 747L382 660H302L295 764Z" />
<glyph unicode="&#xcc;" glyph-name="Igrave" horiz-adv-x="306" d="M43 38L105 58V545L42 565V603H264V560L198 540V63L264 43V0H43V38ZM48 704L44 730L84 790L247 696L232 660L48 704Z" />
<glyph unicode="&#xcd;" glyph-name="Iacute" horiz-adv-x="306" d="M43 38L105 58V545L42 565V603H264V560L198 540V63L264 43V0H43V38ZM60 696L223 790L263 730L259 704L75 660L60 696Z" />
<glyph unicode="&#xce;" glyph-name="Icircumflex" horiz-adv-x="306" d="M43 38L105 58V545L42 565V603H264V560L198 540V63L264 43V0H43V38ZM23 691L126 782H182L285 691L258 658L159 712H148L50 658L23 691Z" />
<glyph unicode="&#xcf;" glyph-name="Idieresis" horiz-adv-x="306" d="M43 38L105 58V545L42 565V603H264V560L198 540V63L264 43V0H43V38ZM21 764L98 769L113 747L108 660H28L21 764ZM196 764L273 769L288 747L283 660H203L196 764Z" />
<glyph unicode="&#xd0;" glyph-name="Eth" horiz-adv-x="574" d="M374 603T422 576T500 484T530 318Q530 156 475 78T319 0H42V38L104 58V283H39V332H104V545L42 565V603H319Q374 603 422 576ZM381 47T406 118T431 312Q431 378 420 433T387 522T338 556L197 542V332H285L284
283H197V63L338 47Q381 47 406 118Z" />
<glyph unicode="&#xd1;" glyph-name="Ntilde" horiz-adv-x="597" d="M387 -7T375 1L257 295Q237 344 186 486H179L189 99V63L255 43V0H42V38L104 58V545L42 565V603H226L363 268Q376 235 425 87H433L423 505V540L357 560V603H570V565L508 545V7Q484 3 445 -1T391
-7Q387 -7 375 1ZM344 657T323 663T274 682Q247 694 238 694Q228 694 183 660L151 687Q172 714 198 739T240 765Q264 765 327 739Q364 724 373 724Q380 724 396 737T422 761L456 732Q442 711 412 684T365 657Q344 657 323 663Z" />
<glyph unicode="&#xd2;" glyph-name="Ograve" horiz-adv-x="548" d="M175 -9T109 61T43 283Q43 350 51 404T73 494Q88 518 121 545T189 592T239 611Q373 611 439 541T505 318Q505 202 480 108Q464 86 429 58T359 11T309 -9Q175 -9 109 61ZM312 51T347 69T387 94Q406
178 406 300Q406 425 375 487T265 549Q215 549 192 537Q167 524 155 464T142 303Q142 205 156 151T205 74T301 51Q312 51 347 69ZM164 704L160 730L200 790L363 696L348 660L164 704Z" />
<glyph unicode="&#xd3;" glyph-name="Oacute" horiz-adv-x="548" d="M175 -9T109 61T43 283Q43 350 51 404T73 494Q88 518 121 545T189 592T239 611Q373 611 439 541T505 318Q505 202 480 108Q464 86 429 58T359 11T309 -9Q175 -9 109 61ZM312 51T347 69T387 94Q406
178 406 300Q406 425 375 487T265 549Q215 549 192 537Q167 524 155 464T142 303Q142 205 156 151T205 74T301 51Q312 51 347 69ZM176 696L339 790L379 730L375 704L191 660L176 696Z" />
<glyph unicode="&#xd4;" glyph-name="Ocircumflex" horiz-adv-x="548" d="M175 -9T109 61T43 283Q43 350 51 404T73 494Q88 518 121 545T189 592T239 611Q373 611 439 541T505 318Q505 202 480 108Q464 86 429 58T359 11T309 -9Q175 -9 109 61ZM312 51T347 69T387
94Q406 178 406 300Q406 425 375 487T265 549Q215 549 192 537Q167 524 155 464T142 303Q142 205 156 151T205 74T301 51Q312 51 347 69ZM139 691L242 782H298L401 691L374 658L275 712H264L166 658L139 691Z" />
<glyph unicode="&#xd5;" glyph-name="Otilde" horiz-adv-x="548" d="M175 -9T109 61T43 283Q43 350 51 404T73 494Q88 518 121 545T189 592T239 611Q373 611 439 541T505 318Q505 202 480 108Q464 86 429 58T359 11T309 -9Q175 -9 109 61ZM312 51T347 69T387 94Q406
178 406 300Q406 425 375 487T265 549Q215 549 192 537Q167 524 155 464T142 303Q142 205 156 151T205 74T301 51Q312 51 347 69ZM313 657T292 663T243 682Q216 694 207 694Q197 694 152 660L120 687Q141 714 167 739T209 765Q233 765 296 739Q333 724 342 724Q349
724 365 737T391 761L425 732Q411 711 381 684T334 657Q313 657 292 663Z" />
<glyph unicode="&#xd6;" glyph-name="Odieresis" horiz-adv-x="548" d="M175 -9T109 61T43 283Q43 350 51 404T73 494Q88 518 121 545T189 592T239 611Q373 611 439 541T505 318Q505 202 480 108Q464 86 429 58T359 11T309 -9Q175 -9 109 61ZM312 51T347 69T387
94Q406 178 406 300Q406 425 375 487T265 549Q215 549 192 537Q167 524 155 464T142 303Q142 205 156 151T205 74T301 51Q312 51 347 69ZM137 764L214 769L229 747L224 660H144L137 764ZM312 764L389 769L404 747L399 660H319L312 764Z" />
<glyph unicode="&#xd7;" glyph-name="multiply" horiz-adv-x="505" d="M303 239L425 116L373 64L251 187L128 62L80 109L204 234L81 358L133 410L255 287L378 411L425 363L303 239Z" />
<glyph unicode="&#xd8;" glyph-name="Oslash" horiz-adv-x="548" d="M505 480T505 318Q505 202 480 108Q464 86 429 58T359 11T309 -9Q226 -9 172 16L123 -85L72 -86L63 -73L122 49Q43 119 43 283Q43 350 51 404T73 494Q88 518 121 545T189 592T239 611Q321 611
379 585L415 660H466L473 643L429 551Q505 480 505 318ZM142 190T162 134L348 521Q317 549 265 549Q215 549 192 537Q167 524 155 464T142 303Q142 190 162 134ZM406 178T406 300Q406 403 386 462L201 77Q236 51 301 51Q312 51 347 69T387 94Q406 178 406 300Z"
/>
<glyph unicode="&#xd9;" glyph-name="Ugrave" horiz-adv-x="597" d="M98 -8T98 170V545L36 565V603H257V560L191 540V191Q191 120 207 97T251 73Q268 73 313 84T400 108V540L334 560V603H555V565L493 545V58L555 38V0H423L402 59Q394 56 384 51T362 41Q258 -8
247 -8Q98 -8 98 170ZM189 704L185 730L225 790L388 696L373 660L189 704Z" />
<glyph unicode="&#xda;" glyph-name="Uacute" horiz-adv-x="597" d="M98 -8T98 170V545L36 565V603H257V560L191 540V191Q191 120 207 97T251 73Q268 73 313 84T400 108V540L334 560V603H555V565L493 545V58L555 38V0H423L402 59Q394 56 384 51T362 41Q258 -8
247 -8Q98 -8 98 170ZM201 696L364 790L404 730L400 704L216 660L201 696Z" />
<glyph unicode="&#xdb;" glyph-name="Ucircumflex" horiz-adv-x="597" d="M98 -8T98 170V545L36 565V603H257V560L191 540V191Q191 120 207 97T251 73Q268 73 313 84T400 108V540L334 560V603H555V565L493 545V58L555 38V0H423L402 59Q394 56 384 51T362 41Q258
-8 247 -8Q98 -8 98 170ZM164 691L267 782H323L426 691L399 658L300 712H289L191 658L164 691Z" />
<glyph unicode="&#xdc;" glyph-name="Udieresis" horiz-adv-x="597" d="M98 -8T98 170V545L36 565V603H257V560L191 540V191Q191 120 207 97T251 73Q268 73 313 84T400 108V540L334 560V603H555V565L493 545V58L555 38V0H423L402 59Q394 56 384 51T362 41Q258
-8 247 -8Q98 -8 98 170ZM162 764L239 769L254 747L249 660H169L162 764ZM337 764L414 769L429 747L424 660H344L337 764Z" />
<glyph unicode="&#xdd;" glyph-name="Yacute" horiz-adv-x="519" d="M150 38L215 58V224L56 545L-6 565V603H223V560L157 540L263 315H272L373 540L304 560V603H525V565L463 545L308 227V58L373 38V0H150V38ZM173 696L336 790L376 730L372 704L188 660L173 696Z" />
<glyph unicode="&#xde;" glyph-name="Thorn" horiz-adv-x="495" d="M371 491T412 455T453 334Q453 230 400 184T263 137H197V63L263 43V0H42V38L104 58V545L42 565V603H263V560L197 540V491H292Q371 491 412 455ZM308 194T323 198T346 226T355 301Q355 368 341
404T298 440L197 432V194H275Q308 194 323 198Z" />
<glyph unicode="&#xdf;" glyph-name="germandbls" horiz-adv-x="463" d="M307 334T321 318T368 276Q414 238 438 208T463 141Q463 120 456 92Q440 64 400 28T337 -9Q289 -9 161 3V-22Q161 -51 138 -88T86 -153T40 -181Q25 -181 -39 -159L-60 -152L-53 -113Q37
-108 46 -102Q71 -88 71 13V491Q71 511 95 548T150 616T196 646Q276 646 337 617T398 514Q398 483 384 461T344 411Q325 390 316 377T307 349Q307 334 321 318ZM345 52T355 70T366 106Q366 136 349 159T295 217Q261 248 244 271T226 324Q226 359 240 384T282 438Q302
460 312 475T322 510Q322 526 311 541T282 560Q251 568 219 575T182 582Q175 582 169 565T163 526L161 81Q209 71 266 62T337 52Q345 52 355 70Z" />
<glyph unicode="&#xe0;" glyph-name="agrave" horiz-adv-x="448" d="M153 -9T118 14T60 87T38 209Q38 256 44 296T62 358Q78 381 133 419T207 457Q227 457 382 434V58L416 44V7Q337 -9 328 -9Q324 -9 309 5T294 24V63Q288 58 244 25T194 -9Q153 -9 118 14ZM211
65T291 105V380Q266 388 226 394T172 399Q153 396 144 356T134 216Q134 165 145 131T172 81T200 65Q211 65 291 105ZM127 605V630L176 680L312 549L289 519L127 605Z" />
<glyph unicode="&#xe1;" glyph-name="aacute" horiz-adv-x="448" d="M153 -9T118 14T60 87T38 209Q38 256 44 296T62 358Q78 381 133 419T207 457Q227 457 382 434V58L416 44V7Q337 -9 328 -9Q324 -9 309 5T294 24V63Q288 58 244 25T194 -9Q153 -9 118 14ZM211
65T291 105V380Q266 388 226 394T172 399Q153 396 144 356T134 216Q134 165 145 131T172 81T200 65Q211 65 291 105ZM155 549L291 680L340 630V605L178 519L155 549Z" />
<glyph unicode="&#xe2;" glyph-name="acircumflex" horiz-adv-x="448" d="M153 -9T118 14T60 87T38 209Q38 256 44 296T62 358Q78 381 133 419T207 457Q227 457 382 434V58L416 44V7Q337 -9 328 -9Q324 -9 309 5T294 24V63Q288 58 244 25T194 -9Q153 -9 118 14ZM211
65T291 105V380Q266 388 226 394T172 399Q153 396 144 356T134 216Q134 165 145 131T172 81T200 65Q211 65 291 105ZM97 544L195 680H261L359 544L331 519L232 603H224L125 519L97 544Z" />
<glyph unicode="&#xe3;" glyph-name="atilde" horiz-adv-x="448" d="M153 -9T118 14T60 87T38 209Q38 256 44 296T62 358Q78 381 133 419T207 457Q227 457 382 434V58L416 44V7Q337 -9 328 -9Q324 -9 309 5T294 24V63Q288 58 244 25T194 -9Q153 -9 118 14ZM211
65T291 105V380Q266 388 226 394T172 399Q153 396 144 356T134 216Q134 165 145 131T172 81T200 65Q211 65 291 105ZM269 529T248 535T199 554Q172 566 163 566Q153 566 108 532L76 559Q97 586 123 611T165 637Q189 637 252 611Q289 596 298 596Q305 596 321 609T347
633L381 604Q367 583 337 556T290 529Q269 529 248 535Z" />
<glyph unicode="&#xe4;" glyph-name="adieresis" horiz-adv-x="448" d="M153 -9T118 14T60 87T38 209Q38 256 44 296T62 358Q78 381 133 419T207 457Q227 457 382 434V58L416 44V7Q337 -9 328 -9Q324 -9 309 5T294 24V63Q288 58 244 25T194 -9Q153 -9 118 14ZM211
65T291 105V380Q266 388 226 394T172 399Q153 396 144 356T134 216Q134 165 145 131T172 81T200 65Q211 65 291 105ZM105 641L182 646L197 624L192 537H112L105 641ZM260 641L337 646L352 624L347 537H267L260 641Z" />
<glyph unicode="&#xe5;" glyph-name="aring" horiz-adv-x="448" d="M153 -9T118 14T60 87T38 209Q38 256 44 296T62 358Q78 381 133 419T207 457Q227 457 382 434V58L416 44V7Q337 -9 328 -9Q324 -9 309 5T294 24V63Q288 58 244 25T194 -9Q153 -9 118 14ZM211
65T291 105V380Q266 388 226 394T172 399Q153 396 144 356T134 216Q134 165 145 131T172 81T200 65Q211 65 291 105ZM178 518T153 542T127 623Q127 671 154 698T231 725Q282 725 309 700T336 620Q336 572 308 545T229 518Q178 518 153 542ZM249 559T271 570Q275
592 275 619Q275 657 265 670T231 684Q220 684 212 682T192 673Q188 651 188 624Q188 585 197 572T229 559Q249 559 271 570Z" />
<glyph unicode="&#xe6;" glyph-name="ae" horiz-adv-x="644" d="M373 161T389 126T426 76T466 62L513 64L595 67V26Q558 14 508 3T443 -9Q402 -9 366 11T307 72L283 54Q200 -9 194 -9Q153 -9 118 14T60 87T38 209Q38 256 44 296T62 358Q78 381 133 419T207 457Q216
457 360 436Q370 435 377 434T389 432Q438 461 451 461Q505 461 538 444T590 379T609 241L373 221Q373 161 389 126ZM512 406T443 406Q421 406 405 399Q392 393 384 351T375 262L512 280Q512 406 443 406ZM205 65T235 79T292 106Q277 147 277 203Q277 253 283 295T301
358L313 373Q278 383 235 393T176 404Q156 404 145 363T134 216Q134 165 145 131T172 81T200 65Q205 65 235 79Z" />
<glyph unicode="&#xe7;" glyph-name="ccedilla" horiz-adv-x="344" d="M134 164T145 130T173 80T204 64H317V22Q273 8 212 -4L207 -46Q242 -51 268 -69T295 -111Q295 -135 285 -156Q254 -181 160 -218L139 -185Q183 -162 198 -151T214 -124Q214 -110 195 -102T151
-90L145 -66L165 -8Q112 -1 75 53T38 203Q38 252 44 295T62 358Q72 373 102 397T164 439T207 457Q255 457 317 438L314 310H253L239 379Q227 385 209 390T177 395Q168 395 163 391Q149 380 142 332T134 216Q134 164 145 130Z" />
<glyph unicode="&#xe8;" glyph-name="egrave" horiz-adv-x="405" d="M161 -9T123 14T62 85T38 203Q38 253 44 295T62 358Q72 373 103 398T167 442T212 461Q266 461 299 444T351 379T370 241L134 221Q134 161 150 126T187 76T227 62L274 64L356 67V26Q319 14 269
3T204 -9Q161 -9 123 14ZM273 280Q273 340 257 370T204 401Q182 401 166 394Q153 388 145 348T136 262L273 280ZM103 605V630L152 680L288 549L265 519L103 605Z" />
<glyph unicode="&#xe9;" glyph-name="eacute" horiz-adv-x="405" d="M161 -9T123 14T62 85T38 203Q38 253 44 295T62 358Q72 373 103 398T167 442T212 461Q266 461 299 444T351 379T370 241L134 221Q134 161 150 126T187 76T227 62L274 64L356 67V26Q319 14 269
3T204 -9Q161 -9 123 14ZM273 280Q273 340 257 370T204 401Q182 401 166 394Q153 388 145 348T136 262L273 280ZM131 549L267 680L316 630V605L154 519L131 549Z" />
<glyph unicode="&#xea;" glyph-name="ecircumflex" horiz-adv-x="405" d="M161 -9T123 14T62 85T38 203Q38 253 44 295T62 358Q72 373 103 398T167 442T212 461Q266 461 299 444T351 379T370 241L134 221Q134 161 150 126T187 76T227 62L274 64L356 67V26Q319
14 269 3T204 -9Q161 -9 123 14ZM273 280Q273 340 257 370T204 401Q182 401 166 394Q153 388 145 348T136 262L273 280ZM73 544L171 680H237L335 544L307 519L208 603H200L101 519L73 544Z" />
<glyph unicode="&#xeb;" glyph-name="edieresis" horiz-adv-x="405" d="M161 -9T123 14T62 85T38 203Q38 253 44 295T62 358Q72 373 103 398T167 442T212 461Q266 461 299 444T351 379T370 241L134 221Q134 161 150 126T187 76T227 62L274 64L356 67V26Q319 14
269 3T204 -9Q161 -9 123 14ZM273 280Q273 340 257 370T204 401Q182 401 166 394Q153 388 145 348T136 262L273 280ZM81 641L158 646L173 624L168 537H88L81 641ZM236 641L313 646L328 624L323 537H243L236 641Z" />
<glyph unicode="&#xec;" glyph-name="igrave" horiz-adv-x="228" d="M104 -9T87 7T69 28V393L34 404V441Q110 456 119 456Q125 456 142 441T159 419V54L194 44V7Q118 -9 109 -9Q104 -9 87 7ZM6 605V630L55 680L191 549L168 519L6 605Z" />
<glyph unicode="&#xed;" glyph-name="iacute" horiz-adv-x="228" d="M104 -9T87 7T69 28V393L34 404V441Q110 456 119 456Q125 456 142 441T159 419V54L194 44V7Q118 -9 109 -9Q104 -9 87 7ZM34 549L170 680L219 630V605L57 519L34 549Z" />
<glyph unicode="&#xee;" glyph-name="icircumflex" horiz-adv-x="228" d="M104 -9T87 7T69 28V393L34 404V441Q110 456 119 456Q125 456 142 441T159 419V54L194 44V7Q118 -9 109 -9Q104 -9 87 7ZM-24 544L74 680H140L238 544L210 519L111 603H103L4 519L-24 544Z" />
<glyph unicode="&#xef;" glyph-name="idieresis" horiz-adv-x="228" d="M104 -9T87 7T69 28V393L34 404V441Q110 456 119 456Q125 456 142 441T159 419V54L194 44V7Q118 -9 109 -9Q104 -9 87 7ZM-16 641L61 646L76 624L71 537H-9L-16 641ZM139 641L216 646L231
624L226 537H146L139 641Z" />
<glyph unicode="&#xf0;" glyph-name="eth" horiz-adv-x="431" d="M404 554L331 518Q386 441 386 303Q386 173 359 104T290 13T191 -9Q180 -9 151 8T92 49T50 89Q44 110 40 145T36 214Q36 253 52 291T105 354T197 380Q209 380 287 337Q281 435 260 484L176 443L129
476L134 490L223 533Q193 557 138 560L120 611Q224 611 286 564L362 601L409 568L404 554ZM205 40T231 51T274 99T290 204Q290 264 289 291Q227 322 206 322Q175 322 154 288T132 191Q132 130 139 85T163 40Q205 40 231 51Z" />
<glyph unicode="&#xf1;" glyph-name="ntilde" horiz-adv-x="474" d="M98 -9T84 5T69 24V389L34 404V441Q116 456 125 456Q130 456 143 443T157 424V386Q187 408 221 432T260 456Q332 456 368 419T404 288V59L439 44V7Q356 -9 348 -9Q343 -9 328 5T313 24V288Q313
350 295 366T255 382Q244 382 206 365T160 344V59L194 44V7Q112 -9 103 -9Q98 -9 84 5ZM273 529T252 535T203 554Q176 566 167 566Q157 566 112 532L80 559Q101 586 127 611T169 637Q193 637 256 611Q293 596 302 596Q309 596 325 609T351 633L385 604Q371 583
341 556T294 529Q273 529 252 535Z" />
<glyph unicode="&#xf2;" glyph-name="ograve" horiz-adv-x="453" d="M142 -9T90 44T38 209Q38 255 44 296T62 358Q72 373 103 398T167 442T211 461Q312 461 363 407T415 249Q415 201 409 159T393 90Q377 68 321 30T246 -9Q142 -9 90 44ZM258 50T302 73Q319 148
319 236Q319 314 291 358T206 402Q181 402 166 394Q152 386 143 341T134 223Q134 125 167 87T251 48Q258 50 302 73ZM124 605V630L173 680L309 549L286 519L124 605Z" />
<glyph unicode="&#xf3;" glyph-name="oacute" horiz-adv-x="453" d="M142 -9T90 44T38 209Q38 255 44 296T62 358Q72 373 103 398T167 442T211 461Q312 461 363 407T415 249Q415 201 409 159T393 90Q377 68 321 30T246 -9Q142 -9 90 44ZM258 50T302 73Q319 148
319 236Q319 314 291 358T206 402Q181 402 166 394Q152 386 143 341T134 223Q134 125 167 87T251 48Q258 50 302 73ZM152 549L288 680L337 630V605L175 519L152 549Z" />
<glyph unicode="&#xf4;" glyph-name="ocircumflex" horiz-adv-x="453" d="M142 -9T90 44T38 209Q38 255 44 296T62 358Q72 373 103 398T167 442T211 461Q312 461 363 407T415 249Q415 201 409 159T393 90Q377 68 321 30T246 -9Q142 -9 90 44ZM258 50T302 73Q319
148 319 236Q319 314 291 358T206 402Q181 402 166 394Q152 386 143 341T134 223Q134 125 167 87T251 48Q258 50 302 73ZM94 544L192 680H258L356 544L328 519L229 603H221L122 519L94 544Z" />
<glyph unicode="&#xf5;" glyph-name="otilde" horiz-adv-x="453" d="M142 -9T90 44T38 209Q38 255 44 296T62 358Q72 373 103 398T167 442T211 461Q312 461 363 407T415 249Q415 201 409 159T393 90Q377 68 321 30T246 -9Q142 -9 90 44ZM258 50T302 73Q319 148
319 236Q319 314 291 358T206 402Q181 402 166 394Q152 386 143 341T134 223Q134 125 167 87T251 48Q258 50 302 73ZM266 529T245 535T196 554Q169 566 160 566Q150 566 105 532L73 559Q94 586 120 611T162 637Q186 637 249 611Q286 596 295 596Q302 596 318 609T344
633L378 604Q364 583 334 556T287 529Q266 529 245 535Z" />
<glyph unicode="&#xf6;" glyph-name="odieresis" horiz-adv-x="453" d="M142 -9T90 44T38 209Q38 255 44 296T62 358Q72 373 103 398T167 442T211 461Q312 461 363 407T415 249Q415 201 409 159T393 90Q377 68 321 30T246 -9Q142 -9 90 44ZM258 50T302 73Q319
148 319 236Q319 314 291 358T206 402Q181 402 166 394Q152 386 143 341T134 223Q134 125 167 87T251 48Q258 50 302 73ZM102 641L179 646L194 624L189 537H109L102 641ZM257 641L334 646L349 624L344 537H264L257 641Z" />
<glyph unicode="&#xf7;" glyph-name="divide" horiz-adv-x="619" d="M285 372T272 384T259 403L257 486Q276 491 297 494T328 498Q333 498 346 485T360 467L354 384Q334 379 317 376T291 372Q285 372 272 384ZM100 535H519V475H100V535ZM285 -10T272 2T259 21L257
104Q276 109 297 112T328 116Q333 116 346 103T360 85L354 2Q334 -3 317 -6T291 -10Q285 -10 272 2Z" />
<glyph unicode="&#xf8;" glyph-name="oslash" horiz-adv-x="453" d="M415 373T415 249Q415 201 409 159T393 90Q377 68 321 30T246 -9Q190 -9 148 6L102 -94H72L59 -77L108 28Q38 80 38 209Q38 255 44 296T62 358Q72 373 103 398T167 442T211 461Q263 461 302
446L339 527H372L382 510L343 425Q415 373 415 249ZM134 159T150 119L271 380Q244 402 206 402Q181 402 166 394Q152 386 143 341T134 223Q134 159 150 119ZM319 148T319 236Q319 295 302 337L180 74Q207 48 251 48Q258 50 302 73Q319 148 319 236Z" />
<glyph unicode="&#xf9;" glyph-name="ugrave" horiz-adv-x="465" d="M138 -9T102 28T66 160V389L32 404V441Q114 456 122 456Q127 456 142 442T157 424V160Q157 98 175 82T215 65Q225 65 306 103V389L272 404V441Q354 456 363 456Q368 456 382 442T397 424V59L431
44V7Q350 -9 341 -9Q336 -9 323 5T309 24V62Q281 40 247 16T210 -9Q138 -9 102 28ZM121 605V630L170 680L306 549L283 519L121 605Z" />
<glyph unicode="&#xfa;" glyph-name="uacute" horiz-adv-x="465" d="M138 -9T102 28T66 160V389L32 404V441Q114 456 122 456Q127 456 142 442T157 424V160Q157 98 175 82T215 65Q225 65 306 103V389L272 404V441Q354 456 363 456Q368 456 382 442T397 424V59L431
44V7Q350 -9 341 -9Q336 -9 323 5T309 24V62Q281 40 247 16T210 -9Q138 -9 102 28ZM149 549L285 680L334 630V605L172 519L149 549Z" />
<glyph unicode="&#xfb;" glyph-name="ucircumflex" horiz-adv-x="465" d="M138 -9T102 28T66 160V389L32 404V441Q114 456 122 456Q127 456 142 442T157 424V160Q157 98 175 82T215 65Q225 65 306 103V389L272 404V441Q354 456 363 456Q368 456 382 442T397 424V59L431
44V7Q350 -9 341 -9Q336 -9 323 5T309 24V62Q281 40 247 16T210 -9Q138 -9 102 28ZM91 544L189 680H255L353 544L325 519L226 603H218L119 519L91 544Z" />
<glyph unicode="&#xfc;" glyph-name="udieresis" horiz-adv-x="465" d="M138 -9T102 28T66 160V389L32 404V441Q114 456 122 456Q127 456 142 442T157 424V160Q157 98 175 82T215 65Q225 65 306 103V389L272 404V441Q354 456 363 456Q368 456 382 442T397 424V59L431
44V7Q350 -9 341 -9Q336 -9 323 5T309 24V62Q281 40 247 16T210 -9Q138 -9 102 28ZM99 641L176 646L191 624L186 537H106L99 641ZM254 641L331 646L346 624L341 537H261L254 641Z" />
<glyph unicode="&#xfd;" glyph-name="yacute" horiz-adv-x="405" d="M155 -181T146 -164T137 -141L184 1Q164 -3 158 -3Q155 -3 143 5L37 391L-2 402V443Q74 455 83 455Q88 455 104 444T123 425L181 192L204 85H214L298 393L238 400V448L353 455Q358 455 370 441T382
420L249 0L220 -114L259 -132V-169Q167 -181 159 -181Q155 -181 146 -164ZM125 549L261 680L310 630V605L148 519L125 549Z" />
<glyph unicode="&#xfe;" glyph-name="thorn" horiz-adv-x="451" d="M94 -181T79 -167T64 -148L69 13L70 579L34 593V630Q118 646 127 646Q132 646 146 632T160 613L158 386Q167 392 187 408Q194 413 223 435T257 457Q297 457 332 434T390 363T413 245Q413 194
407 153T389 90Q373 67 318 29T244 -9Q228 -9 155 2V-109L195 -125V-165Q107 -181 99 -181Q94 -181 79 -167ZM296 44T306 86T317 232Q317 283 306 317T279 367T251 383Q243 383 160 343L156 63L185 58Q197 56 230 50T276 44Q296 44 306 86Z" />
<glyph unicode="&#xff;" glyph-name="ydieresis" horiz-adv-x="405" d="M155 -181T146 -164T137 -141L184 1Q164 -3 158 -3Q155 -3 143 5L37 391L-2 402V443Q74 455 83 455Q88 455 104 444T123 425L181 192L204 85H214L298 393L238 400V448L353 455Q358 455 370
441T382 420L249 0L220 -114L259 -132V-169Q167 -181 159 -181Q155 -181 146 -164ZM75 641L152 646L167 624L162 537H82L75 641ZM230 641L307 646L322 624L317 537H237L230 641Z" />
<glyph unicode="&#x2013;" glyph-name="endash" horiz-adv-x="475" d="M40 279H435V219H40V279Z" />
<glyph unicode="&#x2014;" glyph-name="emdash" horiz-adv-x="870" d="M40 279H830V219H40V279Z" />
<glyph unicode="&#x2018;" glyph-name="quoteleft" horiz-adv-x="218" d="M70 417T60 427T50 443V493Q50 512 76 560T131 648L168 630Q135 548 139 557Q134 542 128 528Q130 527 139 521T148 510L145 423Q95 417 74 417Q70 417 60 427Z" />
<glyph unicode="&#x2019;" glyph-name="quoteright" horiz-adv-x="218" d="M50 438Q83 520 79 511Q84 526 90 540Q88 541 79 547T70 558L73 645Q123 651 144 651Q148 651 158 641T168 625V575Q168 556 142 508T87 420L50 438Z" />
<glyph unicode="&#x201a;" glyph-name="quotesinglbase" horiz-adv-x="213" d="M50 -90Q59 -73 71 -48T92 -3Q82 2 76 7T69 15L72 101Q125 106 140 106Q144 106 153 95T163 79V31Q163 3 86 -108L50 -90Z" />
<glyph unicode="&#x201c;" glyph-name="quotedblleft" horiz-adv-x="359" d="M70 417T60 427T50 443V493Q50 512 76 560T131 648L168 630Q135 548 139 557Q134 542 128 528Q130 527 139 521T148 510L145 423Q95 417 74 417Q70 417 60 427ZM211 417T201 427T191
443V493Q191 512 217 560T272 648L309 630Q276 548 280 557Q275 542 269 528Q271 527 280 521T289 510L286 423Q236 417 215 417Q211 417 201 427Z" />
<glyph unicode="&#x201d;" glyph-name="quotedblright" horiz-adv-x="359" d="M50 438Q83 520 79 511Q84 526 90 540Q88 541 79 547T70 558L73 645Q123 651 144 651Q148 651 158 641T168 625V575Q168 556 142 508T87 420L50 438ZM191 438Q224 520 220 511Q225
526 231 540Q229 541 220 547T211 558L214 645Q264 651 285 651Q289 651 299 641T309 625V575Q309 556 283 508T228 420L191 438Z" />
<glyph unicode="&#x201e;" glyph-name="quotedblbase" horiz-adv-x="350" d="M50 -90Q59 -73 71 -48T92 -3Q82 2 76 7T69 15L72 101Q125 106 140 106Q144 106 153 95T163 79V31Q163 3 86 -108L50 -90ZM187 -90Q196 -73 208 -48T229 -3Q219 2 213 7T206 15L209
101Q262 106 277 106Q281 106 290 95T300 79V31Q300 3 223 -108L187 -90Z" />
<glyph unicode="&#x2022;" glyph-name="bullet" horiz-adv-x="382" d="M150 177T122 203T93 275Q93 320 121 346T191 373Q232 373 260 347T289 275Q289 230 261 204T191 177Q150 177 122 203Z" />
<glyph unicode="&#x2039;" glyph-name="guilsinglleft" horiz-adv-x="262" d="M35 218V255L175 406L207 383L126 239V233L203 79L171 54L35 218Z" />
<glyph unicode="&#x203a;" glyph-name="guilsinglright" horiz-adv-x="262" d="M58 79L136 233V239L55 383L87 406L227 255V218L90 54L58 79Z" />
</font>
</defs>
</svg>
