<?xml version="1.0" standalone="no"?>
<!DOCTYPE svg PUBLIC "-//W3C//DTD SVG 1.1//EN" "http://www.w3.org/Graphics/SVG/1.1/DTD/svg11.dtd">
<svg xmlns="http://www.w3.org/2000/svg">
<defs >
<font id="Gantari" horiz-adv-x="543" ><font-face
    font-family="Gantari"
    units-per-em="1000"
    panose-1="0 0 0 0 0 0 0 0 0 0"
    ascent="950"
    descent="-250"
    alphabetic="0" />
<glyph unicode=" " horiz-adv-x="244" />
<glyph unicode="!" horiz-adv-x="251" d="M97 196L82 486V668H168V486L154 196H97ZM125 -6Q102 -6 88 8T74 42Q74 63 88 77T125 91Q148 91 162 77T176 42Q176 22 162 8T125 -6Z" />
<glyph unicode="&quot;" horiz-adv-x="420" d="M266 395L254 668H335L323 395H266ZM97 395L84 668H166L154 395H97Z" />
<glyph unicode="#" horiz-adv-x="633" d="M102 0L134 179H30L40 238H144L179 430H74L85 489H189L220 668H291L259 489H428L460 668H531L499 489H603L593 430H488L454 238H558L548 179H444L413 0H342L373 179H205L173 0H102ZM215 238H383L418 430H249L215 238Z" />
<glyph unicode="$" horiz-adv-x="592" d="M169 -100L192 2Q155 12 121 31T52 81L89 149Q120 123 150 106T210 78L262 307L237 312Q150 328 111 372T72 478Q72 533 97 578T173 650T300 678Q312 678 324 678T347 675L369 768H423L399 665Q431 657 461 641T520 601L483
533Q457 552 432 566T381 589L333 380L375 372Q461 356 500 306T540 195Q540 104 476 47T291 -10Q278 -10 267 -9T244 -7L223 -100H169ZM261 67Q269 66 276 66T291 66Q368 66 410 97T452 187Q452 227 427 253T352 290L314 297L261 67ZM281 390L330 600Q323 601
316 601T302 602Q232 602 196 572T160 489Q160 449 185 427T260 394L281 390Z" />
<glyph unicode="%" horiz-adv-x="952" d="M265 0L619 668H687L333 0H265ZM211 268Q160 268 125 294T71 366T52 471Q52 530 70 576T124 648T211 674Q262 674 297 648T350 576T369 471Q369 412 351 366T297 294T211 268ZM211 323Q250 323 275 359T301 471Q301 547
276 583T211 619Q171 619 146 583T120 471Q120 395 145 359T211 323ZM741 -6Q691 -6 656 20T602 92T583 197Q583 256 601 302T655 374T741 400Q793 400 828 374T881 302T900 197Q900 138 882 92T828 20T741 -6ZM741 49Q781 49 806 85T832 197Q832 273 807 309T741
345Q702 345 677 309T651 197Q651 121 676 85T741 49Z" />
<glyph unicode="&amp;" horiz-adv-x="672" d="M258 -10Q192 -10 146 14T76 79T52 165Q52 227 84 271T180 341L214 354Q171 400 155 436T138 509Q138 555 159 593T220 655T319 678Q377 678 417 655T479 594T500 509Q500 457 470 419T369 352L334 338L465 204L546
324H632L514 153L664 0H556L469 90Q424 36 375 13T258 -10ZM258 67Q300 67 340 82T419 142L263 304L219 285Q179 268 157 241T135 172Q135 126 169 97T258 67ZM289 385L337 405Q381 423 399 445T417 506Q417 551 392 579T319 607Q271 607 246 579T221 506Q221 477
237 450T289 385Z" />
<glyph unicode="&apos;" horiz-adv-x="251" d="M97 395L84 668H166L154 395H97Z" />
<glyph unicode="(" horiz-adv-x="342" d="M247 -252Q209 -222 176 -170T117 -50T77 93T62 243Q62 318 76 393T116 535T175 655T247 738H311Q277 705 247 652T193 533T156 393T142 243Q142 168 155 94T192 -47T246 -166T311 -252H247Z" />
<glyph unicode=")" horiz-adv-x="342" d="M31 -252Q65 -219 95 -166T149 -47T186 93T200 243Q200 318 187 392T150 533T96 652T31 738H95Q133 708 166 656T225 536T265 393T280 243Q280 168 266 93T225 -49T166 -169T95 -252H31Z" />
<glyph unicode="*" horiz-adv-x="488" d="M159 301L105 339L206 464L52 504L72 567L220 510L211 668H277L268 510L416 567L436 504L282 464L383 339L329 301L244 435L159 301Z" />
<glyph unicode="+" horiz-adv-x="582" d="M254 122V300H79V368H254V546H328V368H503V300H328V122H254Z" />
<glyph unicode="," horiz-adv-x="251" d="M93 -152L50 -131Q69 -99 78 -66T88 6V84H163V6Q163 -50 147 -87T93 -152Z" />
<glyph unicode="-" horiz-adv-x="368" d="M52 253V319H316V253H52Z" />
<glyph unicode="." horiz-adv-x="251" d="M125 -6Q102 -6 88 8T74 42Q74 63 88 77T125 91Q148 91 162 77T176 42Q176 22 162 8T125 -6Z" />
<glyph unicode="/" horiz-adv-x="329" d="M18 0L236 668H311L93 0H18Z" />
<glyph unicode="0" horiz-adv-x="642" d="M321 -10Q234 -10 174 34T83 156T52 334Q52 434 83 511T174 633T321 678Q408 678 468 634T559 512T590 334Q590 234 559 157T468 35T321 -10ZM321 61Q374 61 414 91T478 182T502 334Q502 426 479 486T415 577T321 607Q269
607 228 577T164 487T140 334Q140 243 163 182T228 91T321 61Z" />
<glyph unicode="1" horiz-adv-x="389" d="M221 0V573L68 489L32 557L241 668H306V0H221Z" />
<glyph unicode="2" horiz-adv-x="554" d="M52 0V71L344 346Q376 376 390 406T404 465Q404 508 386 539T335 589T260 607Q218 607 178 587T87 524L52 587Q103 635 154 656T263 678Q329 678 381 652T462 578T492 465Q492 425 471 384T396 292L162 71H502V0H52Z" />
<glyph unicode="3" horiz-adv-x="574" d="M278 -10Q209 -10 155 11T52 81L87 144Q135 100 184 81T278 61Q348 61 391 95T434 186Q434 243 391 276T278 310H199V378H278Q341 378 382 407T424 492Q424 548 383 577T278 607Q233 607 189 588T97 524L62 587Q111 635
162 656T278 678Q348 678 400 655T482 591T512 498Q512 443 477 403T381 344Q447 326 484 283T522 180Q522 125 492 82T408 15T278 -10Z" />
<glyph unicode="4" horiz-adv-x="622" d="M399 0V162H52V249L389 668H482V233H570V162H482V0H399ZM127 233H399V576L127 233Z" />
<glyph unicode="5" horiz-adv-x="582" d="M286 -10Q233 -10 192 -1T118 29T52 81L88 142Q136 98 182 80T276 61Q354 61 398 101T442 212Q442 284 398 324T276 364Q224 364 188 344T139 283L65 297L132 678H480V607H198L159 392Q183 412 217 422T290 432Q366 432
419 404T501 327T530 214Q530 150 501 100T416 20T286 -10Z" />
<glyph unicode="6" horiz-adv-x="612" d="M316 -10Q235 -10 176 23T84 123T52 294Q52 409 82 495T176 630T337 678Q401 678 452 655T542 587L507 531Q469 569 429 588T344 607Q287 607 243 581T171 498T140 350Q166 388 211 410T320 432Q396 432 449 404T531 327T560
214Q560 150 531 100T446 20T316 -10ZM306 61Q384 61 428 101T472 212Q472 284 428 324T306 364Q228 364 184 325T140 213Q151 145 190 103T306 61Z" />
<glyph unicode="7" horiz-adv-x="514" d="M125 0L398 597H32V668H482V605L208 0H125Z" />
<glyph unicode="8" horiz-adv-x="612" d="M306 -10Q225 -10 168 14T82 82T52 180Q52 237 85 281T189 344Q124 364 93 404T62 498Q62 550 91 590T175 654T306 678Q383 678 437 655T521 591T550 498Q550 445 519 405T423 344Q494 325 527 281T560 180Q560 125 531
82T445 15T306 -10ZM306 61Q387 61 429 95T472 185Q472 241 430 275T306 309Q225 309 183 275T140 185Q140 130 182 96T306 61ZM306 379Q380 379 421 409T462 493Q462 547 421 577T306 607Q232 607 191 577T150 493Q150 439 191 409T306 379Z" />
<glyph unicode="9" horiz-adv-x="612" d="M275 -10Q211 -10 160 13T70 81L105 137Q143 99 184 80T268 61Q325 61 369 87T441 171T472 318Q446 280 401 258T292 236Q216 236 163 264T81 341T52 454Q52 518 82 568T166 648T296 678Q378 678 437 645T528 545T560
374Q560 259 529 173T435 38T275 -10ZM306 304Q384 304 428 343T472 455Q461 523 422 565T306 607Q228 607 184 567T140 456Q140 384 184 344T306 304Z" />
<glyph unicode=":" horiz-adv-x="251" d="M125 395Q102 395 88 409T74 444Q74 464 88 478T125 492Q148 492 162 478T176 444Q176 423 162 409T125 395ZM125 -6Q102 -6 88 8T74 42Q74 63 88 77T125 91Q148 91 162 77T176 42Q176 22 162 8T125 -6Z" />
<glyph unicode=";" horiz-adv-x="251" d="M93 -152L50 -131Q69 -99 78 -66T88 6V84H163V6Q163 -50 147 -87T93 -152ZM125 395Q102 395 88 409T74 444Q74 464 88 478T125 492Q148 492 162 478T176 444Q176 423 162 409T125 395Z" />
<glyph unicode="&lt;" horiz-adv-x="582" d="M503 131L79 298V370L503 537V462L166 334L503 206V131Z" />
<glyph unicode="=" horiz-adv-x="582" d="M79 410V478H503V410H79ZM79 190V258H503V190H79Z" />
<glyph unicode="&gt;" horiz-adv-x="582" d="M79 131V206L416 334L79 462V537L503 370V298L79 131Z" />
<glyph unicode="?" horiz-adv-x="473" d="M197 196V224Q197 258 212 286T250 338T295 386T332 431T348 478Q348 517 331 546T283 591T215 607Q181 607 144 588T60 526L26 587Q69 635 118 656T222 678Q283 678 331 655T407 588T436 485Q436 453 419 426T376 373T326
323T283 273T265 218V196H197ZM231 -6Q208 -6 194 8T180 42Q180 63 194 77T231 91Q254 91 268 77T282 42Q282 22 268 8T231 -6Z" />
<glyph unicode="@" horiz-adv-x="908" d="M454 -110Q364 -110 290 -81T163 1T81 127T52 284Q52 370 81 441T163 566T290 649T454 678Q544 678 618 651T745 576T827 463T856 324Q856 249 835 198T775 121T687 94Q643 94 614 118T572 189Q554 148 521 121T431 94Q354
94 310 144T265 284Q265 374 309 424T431 474Q478 474 508 454T556 399V466H622V240Q622 198 642 175T692 152Q741 152 767 194T794 324Q794 410 752 477T633 583T454 622Q352 622 276 580T157 461T114 284Q114 183 156 107T275 -11T454 -54Q509 -54 555 -42T640
-6L661 -53Q619 -82 567 -96T454 -110ZM445 152Q497 152 527 185T557 284Q557 350 527 383T445 416Q394 416 363 383T332 284Q332 218 363 185T445 152Z" />
<glyph unicode="A" horiz-adv-x="699" d="M28 0L302 668H396L670 0H577L519 146H178L121 0H28ZM207 218H491L349 577L207 218Z" />
<glyph unicode="B" horiz-adv-x="694" d="M82 0V668H387Q465 668 517 651T595 595T622 494Q622 434 598 398T516 345Q584 330 613 290T642 184Q642 84 579 42T387 0H82ZM168 74H374Q441 74 480 86T536 123T554 191Q554 233 537 259T480 296T374 308H168V74ZM168
380H374Q462 380 498 403T534 487Q534 547 498 570T374 594H168V380Z" />
<glyph unicode="C" horiz-adv-x="665" d="M390 -10Q286 -10 210 34T93 156T52 334Q52 434 93 511T210 633T390 678Q459 678 515 659T619 601L583 534Q541 567 494 584T390 602Q313 602 257 569T171 475T140 334Q140 254 170 194T257 100T390 66Q446 66 493 83T583
134L619 67Q571 29 515 10T390 -10Z" />
<glyph unicode="D" horiz-adv-x="710" d="M82 0V668H310Q480 668 569 584T658 334Q658 168 569 84T310 0H82ZM168 74H303Q444 74 507 138T570 334Q570 465 507 529T303 594H168V74Z" />
<glyph unicode="E" horiz-adv-x="593" d="M82 0V668H538V594H168V380H508V308H168V74H538V0H82Z" />
<glyph unicode="F" horiz-adv-x="583" d="M82 0V668H538V594H168V380H508V308H168V0H82Z" />
<glyph unicode="G" horiz-adv-x="730" d="M390 -10Q286 -10 210 34T93 156T52 334Q52 434 93 511T210 633T390 678Q461 678 524 658T635 600L600 534Q555 566 502 584T390 602Q313 602 257 569T171 475T140 334Q140 254 170 194T257 100T390 66Q453 66 501 88T582
152V287H380V363H668V124Q624 61 554 26T390 -10Z" />
<glyph unicode="H" horiz-adv-x="720" d="M82 0V668H168V382H552V668H638V0H552V306H168V0H82Z" />
<glyph unicode="I" horiz-adv-x="251" d="M82 0V668H168V0H82Z" />
<glyph unicode="J" horiz-adv-x="526" d="M223 -10Q166 -10 125 7T42 64L85 127Q120 96 154 81T223 66Q289 66 323 108T358 225V668H444V228Q444 110 386 50T223 -10Z" />
<glyph unicode="K" horiz-adv-x="632" d="M82 0V668H168V317L488 668H593L324 375L603 0H498L267 313L168 205V0H82Z" />
<glyph unicode="L" horiz-adv-x="533" d="M82 0V668H168V76H488V0H82Z" />
<glyph unicode="M" horiz-adv-x="903" d="M82 0V668H217L451 106L685 668H820V0H734V580L489 0H413L168 580V0H82Z" />
<glyph unicode="N" horiz-adv-x="720" d="M82 0V668H178L552 122V668H638V0H542L168 546V0H82Z" />
<glyph unicode="O" horiz-adv-x="780" d="M390 -10Q286 -10 210 34T93 156T52 334Q52 434 93 511T210 633T390 678Q495 678 570 634T687 512T728 334Q728 234 687 157T571 35T390 -10ZM390 66Q467 66 523 99T609 193T640 334Q640 414 610 474T523 568T390 602Q313
602 257 569T171 475T140 334Q140 254 170 194T257 100T390 66Z" />
<glyph unicode="P" horiz-adv-x="639" d="M82 0V668H342Q463 668 524 618T586 461Q586 355 525 305T342 254H168V0H82ZM168 328H325Q409 328 454 357T499 461Q499 535 456 564T325 594H168V328Z" />
<glyph unicode="Q" horiz-adv-x="780" d="M595 -192Q527 -192 482 -168T413 -102T390 -10Q286 -10 210 34T93 156T52 334Q52 434 93 511T210 633T390 678Q495 678 570 634T687 512T728 334Q728 247 697 176T606 59T464 -3Q467 -63 503 -92T601 -122Q635 -122 667
-111T737 -74L768 -133Q723 -165 682 -178T595 -192ZM390 66Q467 66 523 99T609 193T640 334Q640 414 610 474T523 568T390 602Q313 602 257 569T171 475T140 334Q140 254 170 194T257 100T390 66Z" />
<glyph unicode="R" horiz-adv-x="639" d="M82 0V668H342Q460 668 523 620T586 472Q586 386 541 341T410 282L620 0H519L319 276H168V0H82ZM168 349H325Q412 349 455 376T499 471Q499 539 458 566T325 594H168V349Z" />
<glyph unicode="S" horiz-adv-x="592" d="M291 -10Q222 -10 165 11T52 81L89 149Q143 105 191 86T291 66Q368 66 410 97T452 187Q452 227 427 253T352 290L237 312Q150 328 111 372T72 478Q72 533 97 578T173 650T300 678Q360 678 415 661T520 601L483 533Q440
565 397 583T302 602Q232 602 196 572T160 489Q160 449 185 427T260 394L375 372Q461 356 500 306T540 195Q540 104 476 47T291 -10Z" />
<glyph unicode="T" horiz-adv-x="596" d="M255 0V592H45V668H550V592H341V0H255Z" />
<glyph unicode="U" horiz-adv-x="720" d="M360 -10Q232 -10 157 58T82 271V668H168V271Q168 199 191 154T257 88T360 66Q420 66 463 87T529 154T552 271V668H638V271Q638 127 563 59T360 -10Z" />
<glyph unicode="V" horiz-adv-x="699" d="M302 0L28 668H123L349 98L575 668H670L396 0H302Z" />
<glyph unicode="W" horiz-adv-x="1003" d="M241 0L28 668H123L289 110L455 668H547L713 110L880 668H974L761 0H668L501 555L334 0H241Z" />
<glyph unicode="X" horiz-adv-x="679" d="M28 0L284 344L38 668H140L339 404L538 668H640L393 344L650 0H548L339 284L130 0H28Z" />
<glyph unicode="Y" horiz-adv-x="679" d="M296 0V260L28 668H129L339 339L549 668H650L382 260V0H296Z" />
<glyph unicode="Z" horiz-adv-x="568" d="M43 0V68L412 592H53V668H515V600L146 76H525V0H43Z" />
<glyph unicode="[" horiz-adv-x="377" d="M82 -252V738H319V671H158V-185H319V-252H82Z" />
<glyph unicode="\" horiz-adv-x="329" d="M236 0L18 668H93L311 0H236Z" />
<glyph unicode="]" horiz-adv-x="377" d="M58 -252V-185H219V671H58V738H295V-252H58Z" />
<glyph unicode="^" horiz-adv-x="582" d="M106 314L251 668H330L476 314H401L291 590L181 314H106Z" />
<glyph unicode="_" horiz-adv-x="467" d="M0 -103V-44H467V-103H0Z" />
<glyph unicode="`" horiz-adv-x="600" d="M312 547L212 696H294L368 547H312Z" />
<glyph unicode="a" horiz-adv-x="560" d="M229 -10Q175 -10 136 6T74 54T52 130Q52 174 74 204T136 251T229 275L399 296Q393 354 358 381T267 409Q233 409 196 395T119 351L86 413Q123 444 169 462T267 480Q373 480 427 431T481 286V0H403V73Q377 31 332 11T229
-10ZM244 61Q295 61 330 81T382 135T400 206V229L250 210Q194 203 165 187T135 132Q135 98 164 80T244 61Z" />
<glyph unicode="b" horiz-adv-x="607" d="M329 -10Q269 -10 224 14T157 79V0H79V668H160V396Q183 434 227 457T329 480Q394 480 445 450T525 366T554 235Q554 160 525 105T445 20T329 -10ZM314 61Q360 61 395 82T451 142T471 235Q471 289 451 328T396 388T314
409Q268 409 233 388T177 328T157 235Q157 181 177 142T232 82T314 61Z" />
<glyph unicode="c" horiz-adv-x="508" d="M295 -10Q224 -10 169 20T83 106T52 235Q52 309 83 364T169 449T295 480Q346 480 387 465T461 422L430 361Q398 386 363 397T295 409Q247 409 211 388T155 328T135 235Q135 181 155 142T211 82T295 61Q328 61 363 72T430
109L461 48Q429 20 388 5T295 -10Z" />
<glyph unicode="d" horiz-adv-x="607" d="M278 -10Q213 -10 162 20T82 105T53 235Q53 311 82 365T162 450T278 480Q336 480 380 457T447 396V668H528V0H450V79Q428 39 383 15T278 -10ZM293 61Q339 61 374 82T430 142T450 235Q450 289 430 328T375 388T293 409Q247
409 212 388T156 328T136 235Q136 181 156 142T211 82T293 61Z" />
<glyph unicode="e" horiz-adv-x="560" d="M298 -10Q228 -10 172 19T84 102T52 235Q52 310 83 365T167 450T285 480Q354 480 404 453T481 381T508 277Q508 261 504 242T492 210H135Q140 162 161 129T220 78T305 61Q352 61 387 75T456 117L488 56Q450 23 402 7T298
-10ZM135 278H424Q425 280 425 282T425 288Q425 324 410 351T365 394T288 409Q252 409 220 394T166 349T135 278Z" />
<glyph unicode="f" horiz-adv-x="360" d="M130 0V400H25V470H130V536Q130 607 164 640T269 674Q287 674 305 672T335 666V600Q326 602 311 603T284 604Q247 604 229 586T211 530V470H335V400H211V0H130Z" />
<glyph unicode="g" horiz-adv-x="607" d="M281 -192Q224 -192 173 -174T77 -115L108 -55Q153 -92 194 -106T277 -121Q357 -121 402 -77T447 53V99Q424 65 381 43T278 20Q217 20 166 47T84 125T53 250Q53 323 83 374T165 453T278 480Q340 480 384 456T450 396V470H528V65Q528
-17 499 -74T414 -162T281 -192ZM293 91Q336 91 371 109T427 162T449 250Q449 302 428 337T371 391T293 409Q251 409 216 391T158 338T136 250Q136 198 158 163T215 109T293 91Z" />
<glyph unicode="h" horiz-adv-x="570" d="M79 0V668H160V401Q182 438 221 459T318 480Q399 480 445 434T491 289V0H410V280Q410 348 383 378T298 409Q232 409 196 364T160 240V0H79Z" />
<glyph unicode="i" horiz-adv-x="239" d="M79 0V470H160V0H79ZM119 574Q97 574 83 587T69 622Q69 643 83 656T119 669Q142 669 156 656T170 622Q170 601 156 588T119 574Z" />
<glyph unicode="j" horiz-adv-x="239" d="M21 -188Q5 -188 -11 -186T-39 -181V-114Q-29 -116 -17 -117T6 -118Q43 -118 61 -100T79 -44V470H160V-50Q160 -121 126 -154T21 -188ZM119 574Q97 574 83 587T69 622Q69 643 83 656T119 669Q142 669 156 656T170 622Q170
601 156 588T119 574Z" />
<glyph unicode="k" horiz-adv-x="535" d="M79 0V668H160V238L397 470H497L297 277L507 0H407L240 222L160 145V0H79Z" />
<glyph unicode="l" horiz-adv-x="239" d="M79 0V668H160V0H79Z" />
<glyph unicode="m" horiz-adv-x="848" d="M79 0V470H157V404Q177 440 212 460T299 480Q351 480 387 458T440 395Q462 437 503 458T599 480Q677 480 723 434T769 289V0H688V280Q688 348 661 378T583 409Q525 409 495 364T464 240V0H383V280Q383 348 356 378T279
409Q220 409 190 364T160 240V0H79Z" />
<glyph unicode="n" horiz-adv-x="570" d="M79 0V470H157V396Q178 435 219 457T318 480Q399 480 445 434T491 289V0H410V280Q410 348 383 378T298 409Q232 409 196 364T160 240V0H79Z" />
<glyph unicode="o" horiz-adv-x="590" d="M295 -10Q224 -10 169 20T83 106T52 235Q52 309 83 364T169 449T295 480Q367 480 421 450T507 364T538 235Q538 161 507 106T422 21T295 -10ZM295 61Q343 61 379 82T435 142T455 235Q455 289 435 328T379 388T295 409Q247
409 211 388T155 328T135 235Q135 181 155 142T211 82T295 61Z" />
<glyph unicode="p" horiz-adv-x="607" d="M79 -182V470H157V391Q179 431 224 455T329 480Q394 480 445 450T525 366T554 235Q554 160 525 105T445 20T329 -10Q271 -10 227 13T160 74V-182H79ZM314 61Q360 61 395 82T451 142T471 235Q471 289 451 328T396 388T314
409Q268 409 233 388T177 328T157 235Q157 181 177 142T232 82T314 61Z" />
<glyph unicode="q" horiz-adv-x="607" d="M447 -182V74Q424 36 380 13T278 -10Q213 -10 162 20T82 105T53 235Q53 311 82 365T162 450T278 480Q338 480 383 456T450 391V470H528V-182H447ZM293 61Q339 61 374 82T430 142T450 235Q450 289 430 328T375 388T293
409Q247 409 212 388T156 328T136 235Q136 181 156 142T211 82T293 61Z" />
<glyph unicode="r" horiz-adv-x="368" d="M79 0V470H157V384Q175 429 210 452T291 476Q305 476 316 475T335 470V394Q322 397 309 398T283 400Q230 400 195 355T160 227V0H79Z" />
<glyph unicode="s" horiz-adv-x="490" d="M242 -10Q188 -10 142 6T52 55L89 121Q132 91 168 76T243 61Q299 61 327 78T355 130Q355 158 339 171T280 193L195 209Q131 221 99 252T67 332Q67 372 87 405T148 459T248 480Q299 480 343 465T423 423L387 359Q357 381
323 395T251 409Q204 409 177 393T150 341Q150 318 166 305T220 285L305 269Q369 257 403 227T438 138Q438 73 388 32T242 -10Z" />
<glyph unicode="t" horiz-adv-x="376" d="M269 -6Q199 -6 165 27T130 132V400H25V470H130V604H211V470H335V400H211V138Q211 101 229 83T284 64Q296 64 311 65T335 68V2Q324 -2 306 -4T269 -6Z" />
<glyph unicode="u" horiz-adv-x="570" d="M252 -10Q171 -10 125 36T79 181V470H160V190Q160 122 187 92T272 61Q338 61 374 106T410 230V470H491V0H413V74Q392 35 351 13T252 -10Z" />
<glyph unicode="v" horiz-adv-x="529" d="M220 0L28 470H115L264 85L413 470H500L308 0H220Z" />
<glyph unicode="w" horiz-adv-x="799" d="M195 0L28 470H115L235 102L360 470H438L562 102L683 470H770L603 0H524L399 368L274 0H195Z" />
<glyph unicode="x" horiz-adv-x="529" d="M28 0L212 243L38 470H133L264 294L395 470H490L316 243L500 0H405L264 187L123 0H28Z" />
<glyph unicode="y" horiz-adv-x="529" d="M110 -188Q81 -188 53 -181T2 -160L26 -96Q48 -107 68 -112T105 -118Q127 -118 147 -108T186 -74T224 -11L28 470H115L264 85L413 470H500L308 0Q278 -74 246 -115T180 -172T110 -188Z" />
<glyph unicode="z" horiz-adv-x="460" d="M43 0V62L313 400H53V470H407V408L137 70H417V0H43Z" />
<glyph unicode="{" horiz-adv-x="377" d="M245 -252Q209 -252 182 -237T138 -194T122 -130V140Q122 178 106 194T52 210V276Q90 276 106 292T122 346V616Q122 652 138 679T181 722T245 738H319V671H265Q231 671 215 654T198 602V323Q198 293 182 272T128 243Q166
235 182 214T198 163V-116Q198 -150 214 -167T265 -185H319V-252H245Z" />
<glyph unicode="|" horiz-adv-x="234" d="M82 -252V738H151V-252H82Z" />
<glyph unicode="}" horiz-adv-x="377" d="M58 -252V-185H112Q146 -185 162 -168T179 -116V163Q179 193 195 214T249 243Q211 251 195 272T179 323V602Q179 637 163 654T112 671H58V738H132Q168 738 196 723T239 680T255 616V346Q255 308 271 292T325 276V210Q287
210 271 194T255 140V-130Q255 -166 240 -193T196 -236T132 -252H58Z" />
<glyph unicode="~" horiz-adv-x="582" d="M79 253Q79 331 106 373T194 415Q226 415 252 401T302 368T347 335T388 321Q414 321 424 344T439 415H503Q503 337 476 295T388 253Q356 253 330 267T280 300T235 333T194 347Q168 347 158 324T143 253H79Z" />
<glyph unicode="&#xa0;" horiz-adv-x="244" />
<glyph unicode="&#xa1;" horiz-adv-x="251" d="M82 -182V0L97 290H154L168 0V-182H82ZM125 395Q102 395 88 409T74 444Q74 464 88 478T125 492Q148 492 162 478T176 444Q176 423 162 409T125 395Z" />
<glyph unicode="&#xa2;" horiz-adv-x="508" d="M191 -100L214 1Q140 23 96 84T52 235Q52 309 83 364T169 449T295 480Q303 480 309 480T324 478L345 570H395L372 469Q398 462 420 451T461 422L430 361Q413 375 395 384T356 399L278 61Q283 61 287 61T295 61Q328
61 363 72T430 109L461 48Q429 20 388 5T295 -10Q287 -10 279 -10T262 -8L241 -100H191ZM231 72L308 408Q306 409 303 409T295 409Q247 409 211 388T155 328T135 235Q135 173 160 132T231 72Z" />
<glyph unicode="&#xa3;" horiz-adv-x="554" d="M52 0V63Q80 77 95 98T117 145T124 194Q124 211 120 231T109 273H32V325H94Q80 360 71 395T62 465Q62 530 92 578T173 652T291 678Q348 678 399 657T502 587L472 531Q420 574 379 590T294 607Q252 607 220 589T169
540T150 465Q150 430 158 395T178 325H370V273H191Q197 252 201 233T205 194Q205 173 200 149T181 104T144 71H502V0H52Z" />
<glyph unicode="&#xa4;" horiz-adv-x="742" d="M79 -11L26 42L181 196Q146 255 146 334Q146 412 181 471L26 626L79 679L232 526Q259 546 294 557T371 568Q413 568 447 557T510 526L663 679L716 626L561 471Q578 442 587 408T596 334Q596 294 587 260T560 196L716
42L663 -11L510 142Q482 121 447 111T371 100Q329 100 294 111T231 142L79 -11ZM371 164Q443 164 481 210T519 334Q519 411 481 457T371 504Q299 504 261 458T223 334Q223 257 261 211T371 164Z" />
<glyph unicode="&#xa5;" horiz-adv-x="642" d="M278 0V89H112V141H278V245H112V297H257L49 668H147L321 347L495 668H593L385 297H530V245H364V141H530V89H364V0H278Z" />
<glyph unicode="&#xa6;" horiz-adv-x="234" d="M82 282V738H151V282H82ZM82 -252V204H151V-252H82Z" />
<glyph unicode="&#xa7;" horiz-adv-x="595" d="M287 -192Q233 -192 187 -176T97 -127L134 -61Q177 -91 213 -106T288 -121Q339 -121 369 -100T400 -41Q400 -10 382 8T325 47L180 127Q132 153 104 177T64 227T52 283Q52 336 90 369T191 409Q155 433 134 460T112
525Q112 568 132 602T193 657T293 678Q344 678 388 663T468 621L432 557Q402 579 368 593T296 607Q251 607 223 589T195 529Q195 502 214 483T265 447L410 368Q459 341 488 317T530 266T543 203Q543 149 507 117T411 77Q443 54 463 28T483 -39Q483 -108 431 -150T287
-192ZM353 113Q400 118 430 139T460 202Q460 224 454 240T432 270T385 301L250 374Q220 372 194 362T152 333T135 285Q135 258 150 237T205 194L353 113Z" />
<glyph unicode="&#xa8;" horiz-adv-x="600" d="M394 578Q373 578 361 590T348 622Q348 641 360 653T394 665Q415 665 427 653T440 622Q440 602 428 590T394 578ZM206 578Q185 578 173 590T160 622Q160 641 172 653T206 665Q227 665 239 653T252 622Q252 602 240
590T206 578Z" />
<glyph unicode="&#xa9;" horiz-adv-x="806" d="M403 -10Q299 -10 220 34T96 156T52 334Q52 434 96 511T219 633T403 678Q508 678 587 634T710 512T754 334Q754 234 710 157T587 35T403 -10ZM411 168Q335 168 294 214T252 334Q252 408 293 454T411 500Q443 500
470 491T520 461L496 417Q477 432 455 439T410 447Q365 447 339 416T313 334Q313 283 339 252T410 221Q433 221 455 228T496 250L520 207Q498 188 471 178T411 168ZM403 41Q493 41 559 78T661 181T698 334Q698 421 662 487T559 590T403 627Q315 627 249 590T146
487T109 334Q109 247 145 181T248 78T403 41Z" />
<glyph unicode="&#xaa;" horiz-adv-x="519" d="M211 232Q163 232 128 247T72 290T52 358Q52 398 72 424T128 466T211 488L364 507Q359 560 327 585T245 610Q213 610 181 597T112 558L83 614Q116 642 157 658T246 674Q341 674 390 630T440 499V241H368V307Q344
269 304 251T211 232ZM224 296Q270 296 301 315T349 364T365 427V448L230 431Q180 424 155 407T129 362Q129 329 154 313T224 296Z" />
<glyph unicode="&#xab;" horiz-adv-x="476" d="M348 113L248 286L348 461H424L324 286L424 113H348ZM152 113L52 286L152 461H228L128 286L228 113H152Z" />
<glyph unicode="&#xac;" horiz-adv-x="582" d="M428 211V388H79V457H503V211H428Z" />
<glyph unicode="&#xad;" horiz-adv-x="368" d="M52 253V319H316V253H52Z" />
<glyph unicode="&#xae;" horiz-adv-x="599" d="M299 190Q226 190 170 222T83 309T52 434Q52 504 83 559T170 646T299 678Q373 678 429 646T516 559T547 434Q547 364 516 309T429 222T299 190ZM299 228Q362 228 408 254T479 327T504 434Q504 495 479 541T408 613T299
640Q237 640 191 614T120 541T95 434Q95 374 120 328T191 255T299 228ZM213 314V556H306Q350 556 372 538T395 485Q395 454 379 438T331 416L408 314H354L281 414H256V314H213ZM256 450H302Q326 450 338 459T350 485Q350 502 338 510T302 519H256V450Z" />
<glyph unicode="&#xaf;" horiz-adv-x="600" d="M169 594V650H431V594H169Z" />
<glyph unicode="&#xb0;" horiz-adv-x="374" d="M187 426Q126 426 89 461T52 552Q52 608 89 643T187 678Q247 678 284 643T321 552Q321 496 284 461T187 426ZM187 474Q223 474 245 495T267 552Q267 587 245 609T187 631Q150 631 129 609T107 552Q107 517 128 496T187 474Z" />
<glyph unicode="&#xb1;" horiz-adv-x="582" d="M254 159V330H79V398H254V569H328V398H503V330H328V159H254ZM79 0V69H503V0H79Z" />
<glyph unicode="&#xb2;" horiz-adv-x="370" d="M52 408V463L209 609Q228 626 236 642T244 678Q244 710 223 731T170 753Q147 753 126 741T78 708L52 755Q81 781 112 794T177 808Q236 808 274 774T312 682Q312 659 301 635T256 578L135 463H318V408H52Z" />
<glyph unicode="&#xb3;" horiz-adv-x="383" d="M186 402Q145 402 113 415T52 455L78 502Q107 479 130 468T182 457Q224 457 243 475T263 522Q263 550 244 568T182 587H139V635H182Q220 635 238 651T257 694Q257 721 239 737T182 753Q154 753 134 742T84 708L58
755Q87 782 117 795T186 808Q248 808 286 778T325 701Q325 669 305 645T247 611Q287 602 309 576T331 514Q331 465 292 434T186 402Z" />
<glyph unicode="&#xb4;" horiz-adv-x="600" d="M232 547L306 696H388L288 547H232Z" />
<glyph unicode="&#xb5;" horiz-adv-x="570" d="M79 -182V470H160V190Q160 122 187 92T272 61Q338 61 374 106T410 230V470H491V0H413V74Q392 28 361 9T277 -10Q235 -10 207 2T160 41V-182H79Z" />
<glyph unicode="&#xb6;" horiz-adv-x="568" d="M235 -182V320Q183 320 142 341T76 402T52 494Q52 547 76 586T141 646T235 668H486V-182H422V607H299V-182H235Z" />
<glyph unicode="&#xb7;" horiz-adv-x="251" d="M125 238Q102 238 88 251T74 286Q74 307 88 320T125 334Q148 334 162 321T176 286Q176 265 162 252T125 238Z" />
<glyph unicode="&#xb8;" horiz-adv-x="600" d="M283 -188Q269 -188 250 -186T216 -179V-136Q229 -139 247 -140T279 -142Q304 -142 316 -133T328 -106Q328 -89 316 -80T279 -71H256V-47L282 11H327L301 -47Q340 -47 362 -64T384 -112Q384 -146 358 -167T283 -188Z" />
<glyph unicode="&#xb9;" horiz-adv-x="293" d="M144 408V726L60 681L32 735L160 802H210V408H144Z" />
<glyph unicode="&#xba;" d="M272 232Q208 232 158 259T80 336T52 453Q52 520 80 569T158 646T272 674Q337 674 386 647T463 570T491 453Q491 386 463 337T386 260T272 232ZM272 298Q336 298 375 339T414 453Q414 525 375 566T272 608Q208 608 169 567T129 453Q129
381 168 340T272 298Z" />
<glyph unicode="&#xbb;" horiz-adv-x="476" d="M248 113L348 286L248 461H324L424 286L324 113H248ZM52 113L152 286L52 461H128L228 286L128 113H52Z" />
<glyph unicode="&#xbc;" horiz-adv-x="814" d="M175 0L533 668H597L239 0H175ZM144 274V592L60 547L32 601L160 668H210V274H144ZM649 0V88H455V147L655 394H711V143H761V88H711V0H649ZM514 143H649V311L514 143Z" />
<glyph unicode="&#xbd;" horiz-adv-x="841" d="M175 0L533 668H597L239 0H175ZM144 274V592L60 547L32 601L160 668H210V274H144ZM523 0V55L680 201Q699 218 707 234T715 270Q715 302 694 323T641 345Q618 345 597 333T549 300L523 347Q552 373 583 386T648 400Q707
400 745 366T783 274Q783 251 772 227T727 170L606 55H789V0H523Z" />
<glyph unicode="&#xbe;" horiz-adv-x="890" d="M252 0L610 668H673L315 0H252ZM186 268Q145 268 113 281T52 321L78 368Q107 345 130 334T182 323Q224 323 243 341T263 388Q263 416 244 434T182 453H139V501H182Q220 501 238 517T257 560Q257 587 239 603T182
619Q154 619 134 608T84 574L58 621Q87 648 117 661T186 674Q248 674 286 644T325 567Q325 535 305 511T247 477Q287 468 309 442T331 380Q331 331 292 300T186 268ZM725 0V88H531V147L731 394H787V143H837V88H787V0H725ZM590 143H725V311L590 143Z" />
<glyph unicode="&#xbf;" horiz-adv-x="473" d="M251 -192Q191 -192 143 -169T66 -102T37 1Q37 33 54 60T97 113T148 163T190 213T208 268V290H276V262Q276 228 261 200T223 148T179 100T141 55T125 8Q125 -31 142 -60T190 -105T258 -121Q292 -121 329 -102T413
-40L447 -101Q404 -149 355 -170T251 -192ZM242 395Q219 395 205 409T191 444Q191 464 205 478T242 492Q265 492 279 478T293 444Q293 423 279 409T242 395Z" />
<glyph unicode="&#xc0;" horiz-adv-x="699" d="M28 0L302 668H396L670 0H577L519 146H178L121 0H28ZM207 218H491L349 577L207 218ZM328 745L228 894H310L384 745H328Z" />
<glyph unicode="&#xc1;" horiz-adv-x="699" d="M28 0L302 668H396L670 0H577L519 146H178L121 0H28ZM207 218H491L349 577L207 218ZM327 745L401 894H483L383 745H327Z" />
<glyph unicode="&#xc2;" horiz-adv-x="699" d="M28 0L302 668H396L670 0H577L519 146H178L121 0H28ZM207 218H491L349 577L207 218ZM209 745L311 894H389L491 745H426L350 849L274 745H209Z" />
<glyph unicode="&#xc3;" horiz-adv-x="699" d="M28 0L302 668H396L670 0H577L519 146H178L121 0H28ZM207 218H491L349 577L207 218ZM199 758Q199 800 208 827T237 867T284 881Q305 881 323 871T358 847T388 824T416 813Q431 813 439 827T450 881H501Q501 839 492
812T463 772T416 758Q395 758 377 768T342 792T312 815T284 826Q269 826 261 812T250 758H199Z" />
<glyph unicode="&#xc4;" horiz-adv-x="699" d="M28 0L302 668H396L670 0H577L519 146H178L121 0H28ZM207 218H491L349 577L207 218ZM444 776Q423 776 411 788T398 820Q398 839 410 851T444 863Q465 863 477 851T490 820Q490 800 478 788T444 776ZM256 776Q235
776 223 788T210 820Q210 839 222 851T256 863Q277 863 289 851T302 820Q302 800 290 788T256 776Z" />
<glyph unicode="&#xc5;" horiz-adv-x="699" d="M28 0L302 668H396L670 0H577L519 146H178L121 0H28ZM207 218H491L349 577L207 218ZM350 715Q299 715 268 744T237 820Q237 865 268 894T350 924Q401 924 432 895T463 820Q463 774 432 745T350 715ZM350 755Q380
755 398 773T416 820Q416 848 398 866T350 884Q320 884 302 866T284 820Q284 791 302 773T350 755Z" />
<glyph unicode="&#xc6;" horiz-adv-x="992" d="M28 0L455 668H937V594H567V380H907V308H567V74H937V0H481V146H218L127 0H28ZM263 218H481V566L263 218Z" />
<glyph unicode="&#xc7;" horiz-adv-x="665" d="M390 -10Q286 -10 210 34T93 156T52 334Q52 434 93 511T210 633T390 678Q459 678 515 659T619 601L583 534Q541 567 494 584T390 602Q313 602 257 569T171 475T140 334Q140 254 170 194T257 100T390 66Q446 66 493
83T583 134L619 67Q571 29 515 10T390 -10ZM350 -188Q336 -188 317 -186T283 -179V-136Q296 -139 314 -140T346 -142Q371 -142 383 -133T395 -106Q395 -89 383 -80T346 -71H323V-47L349 11H394L368 -47Q407 -47 429 -64T451 -112Q451 -146 425 -167T350 -188Z"
/>
<glyph unicode="&#xc8;" horiz-adv-x="593" d="M82 0V668H538V594H168V380H508V308H168V74H538V0H82ZM275 745L175 894H257L331 745H275Z" />
<glyph unicode="&#xc9;" horiz-adv-x="593" d="M82 0V668H538V594H168V380H508V308H168V74H538V0H82ZM274 745L348 894H430L330 745H274Z" />
<glyph unicode="&#xca;" horiz-adv-x="593" d="M82 0V668H538V594H168V380H508V308H168V74H538V0H82ZM156 745L258 894H336L438 745H373L297 849L221 745H156Z" />
<glyph unicode="&#xcb;" horiz-adv-x="593" d="M82 0V668H538V594H168V380H508V308H168V74H538V0H82ZM391 776Q370 776 358 788T345 820Q345 839 357 851T391 863Q412 863 424 851T437 820Q437 800 425 788T391 776ZM203 776Q182 776 170 788T157 820Q157 839
169 851T203 863Q224 863 236 851T249 820Q249 800 237 788T203 776Z" />
<glyph unicode="&#xcc;" horiz-adv-x="251" d="M82 0V668H168V0H82ZM104 745L4 894H86L160 745H104Z" />
<glyph unicode="&#xcd;" horiz-adv-x="251" d="M82 0V668H168V0H82ZM103 745L177 894H259L159 745H103Z" />
<glyph unicode="&#xce;" horiz-adv-x="251" d="M82 0V668H168V0H82ZM-15 745L87 894H165L267 745H202L126 849L50 745H-15Z" />
<glyph unicode="&#xcf;" horiz-adv-x="251" d="M82 0V668H168V0H82ZM220 776Q199 776 187 788T174 820Q174 839 186 851T220 863Q241 863 253 851T266 820Q266 800 254 788T220 776ZM32 776Q11 776 -1 788T-14 820Q-14 839 -2 851T32 863Q53 863 65 851T78 820Q78
800 66 788T32 776Z" />
<glyph unicode="&#xd0;" horiz-adv-x="710" d="M82 0V315H9V373H82V668H310Q480 668 569 584T658 334Q658 168 569 84T310 0H82ZM168 74H303Q444 74 507 138T570 334Q570 465 507 529T303 594H168V373H352V315H168V74Z" />
<glyph unicode="&#xd1;" horiz-adv-x="720" d="M82 0V668H178L552 122V668H638V0H542L168 546V0H82ZM209 758Q209 800 218 827T247 867T294 881Q315 881 333 871T368 847T398 824T426 813Q441 813 449 827T460 881H511Q511 839 502 812T473 772T426 758Q405 758
387 768T352 792T322 815T294 826Q279 826 271 812T260 758H209Z" />
<glyph unicode="&#xd2;" horiz-adv-x="780" d="M390 -10Q286 -10 210 34T93 156T52 334Q52 434 93 511T210 633T390 678Q495 678 570 634T687 512T728 334Q728 234 687 157T571 35T390 -10ZM390 66Q467 66 523 99T609 193T640 334Q640 414 610 474T523 568T390
602Q313 602 257 569T171 475T140 334Q140 254 170 194T257 100T390 66ZM368 745L268 894H350L424 745H368Z" />
<glyph unicode="&#xd3;" horiz-adv-x="780" d="M390 -10Q286 -10 210 34T93 156T52 334Q52 434 93 511T210 633T390 678Q495 678 570 634T687 512T728 334Q728 234 687 157T571 35T390 -10ZM390 66Q467 66 523 99T609 193T640 334Q640 414 610 474T523 568T390
602Q313 602 257 569T171 475T140 334Q140 254 170 194T257 100T390 66ZM367 745L441 894H523L423 745H367Z" />
<glyph unicode="&#xd4;" horiz-adv-x="780" d="M390 -10Q286 -10 210 34T93 156T52 334Q52 434 93 511T210 633T390 678Q495 678 570 634T687 512T728 334Q728 234 687 157T571 35T390 -10ZM390 66Q467 66 523 99T609 193T640 334Q640 414 610 474T523 568T390
602Q313 602 257 569T171 475T140 334Q140 254 170 194T257 100T390 66ZM249 745L351 894H429L531 745H466L390 849L314 745H249Z" />
<glyph unicode="&#xd5;" horiz-adv-x="780" d="M390 -10Q286 -10 210 34T93 156T52 334Q52 434 93 511T210 633T390 678Q495 678 570 634T687 512T728 334Q728 234 687 157T571 35T390 -10ZM390 66Q467 66 523 99T609 193T640 334Q640 414 610 474T523 568T390
602Q313 602 257 569T171 475T140 334Q140 254 170 194T257 100T390 66ZM239 758Q239 800 248 827T277 867T324 881Q345 881 363 871T398 847T428 824T456 813Q471 813 479 827T490 881H541Q541 839 532 812T503 772T456 758Q435 758 417 768T382 792T352 815T324
826Q309 826 301 812T290 758H239Z" />
<glyph unicode="&#xd6;" horiz-adv-x="780" d="M390 -10Q286 -10 210 34T93 156T52 334Q52 434 93 511T210 633T390 678Q495 678 570 634T687 512T728 334Q728 234 687 157T571 35T390 -10ZM390 66Q467 66 523 99T609 193T640 334Q640 414 610 474T523 568T390
602Q313 602 257 569T171 475T140 334Q140 254 170 194T257 100T390 66ZM484 776Q463 776 451 788T438 820Q438 839 450 851T484 863Q505 863 517 851T530 820Q530 800 518 788T484 776ZM296 776Q275 776 263 788T250 820Q250 839 262 851T296 863Q317 863 329
851T342 820Q342 800 330 788T296 776Z" />
<glyph unicode="&#xd7;" horiz-adv-x="582" d="M132 122L79 175L238 334L79 493L132 546L291 387L450 546L503 493L344 334L503 175L450 122L291 281L132 122Z" />
<glyph unicode="&#xd8;" horiz-adv-x="780" d="M88 -10L52 28L127 104Q91 149 72 207T52 334Q52 434 93 511T210 633T390 678Q459 678 516 658T616 601L692 678L728 640L653 563Q689 518 708 460T728 334Q728 234 687 157T571 35T390 -10Q320 -10 264 10T164 67L88
-10ZM390 66Q467 66 523 99T609 193T640 334Q640 384 628 426T593 502L222 125Q254 96 296 81T390 66ZM187 165L558 542Q526 571 484 586T390 602Q313 602 257 569T171 475T140 334Q140 233 187 165Z" />
<glyph unicode="&#xd9;" horiz-adv-x="720" d="M360 -10Q232 -10 157 58T82 271V668H168V271Q168 199 191 154T257 88T360 66Q420 66 463 87T529 154T552 271V668H638V271Q638 127 563 59T360 -10ZM338 745L238 894H320L394 745H338Z" />
<glyph unicode="&#xda;" horiz-adv-x="720" d="M360 -10Q232 -10 157 58T82 271V668H168V271Q168 199 191 154T257 88T360 66Q420 66 463 87T529 154T552 271V668H638V271Q638 127 563 59T360 -10ZM337 745L411 894H493L393 745H337Z" />
<glyph unicode="&#xdb;" horiz-adv-x="720" d="M360 -10Q232 -10 157 58T82 271V668H168V271Q168 199 191 154T257 88T360 66Q420 66 463 87T529 154T552 271V668H638V271Q638 127 563 59T360 -10ZM219 745L321 894H399L501 745H436L360 849L284 745H219Z" />
<glyph unicode="&#xdc;" horiz-adv-x="720" d="M360 -10Q232 -10 157 58T82 271V668H168V271Q168 199 191 154T257 88T360 66Q420 66 463 87T529 154T552 271V668H638V271Q638 127 563 59T360 -10ZM454 776Q433 776 421 788T408 820Q408 839 420 851T454 863Q475
863 487 851T500 820Q500 800 488 788T454 776ZM266 776Q245 776 233 788T220 820Q220 839 232 851T266 863Q287 863 299 851T312 820Q312 800 300 788T266 776Z" />
<glyph unicode="&#xdd;" horiz-adv-x="679" d="M296 0V260L28 668H129L339 339L549 668H650L382 260V0H296ZM317 745L391 894H473L373 745H317Z" />
<glyph unicode="&#xde;" horiz-adv-x="639" d="M82 0V668H168V561H322Q457 561 521 500T586 334Q586 229 522 168T322 107H168V0H82ZM168 181H306Q400 181 449 217T499 334Q499 415 452 451T306 487H168V181Z" />
<glyph unicode="&#xdf;" horiz-adv-x="607" d="M368 -10Q349 -10 330 -7T296 0V66Q306 64 321 62T350 59Q411 59 441 93T471 190Q471 259 425 288T296 318V380Q356 380 393 409T430 495Q430 552 394 580T296 609Q233 609 197 569T160 452V0H79V440Q79 515 104
568T177 649T296 678Q395 678 453 634T512 505Q512 448 485 410T407 354Q481 338 517 295T554 181Q554 126 534 83T472 15T368 -10Z" />
<glyph unicode="&#xe0;" horiz-adv-x="560" d="M229 -10Q175 -10 136 6T74 54T52 130Q52 174 74 204T136 251T229 275L399 296Q393 354 358 381T267 409Q233 409 196 395T119 351L86 413Q123 444 169 462T267 480Q373 480 427 431T481 286V0H403V73Q377 31 332
11T229 -10ZM244 61Q295 61 330 81T382 135T400 206V229L250 210Q194 203 165 187T135 132Q135 98 164 80T244 61ZM514 547L414 696H496L570 547H514Z" />
<glyph unicode="&#xe1;" horiz-adv-x="560" d="M229 -10Q175 -10 136 6T74 54T52 130Q52 174 74 204T136 251T229 275L399 296Q393 354 358 381T267 409Q233 409 196 395T119 351L86 413Q123 444 169 462T267 480Q373 480 427 431T481 286V0H403V73Q377 31 332
11T229 -10ZM244 61Q295 61 330 81T382 135T400 206V229L250 210Q194 203 165 187T135 132Q135 98 164 80T244 61ZM257 547L331 696H413L313 547H257Z" />
<glyph unicode="&#xe2;" horiz-adv-x="560" d="M229 -10Q175 -10 136 6T74 54T52 130Q52 174 74 204T136 251T229 275L399 296Q393 354 358 381T267 409Q233 409 196 395T119 351L86 413Q123 444 169 462T267 480Q373 480 427 431T481 286V0H403V73Q377 31 332
11T229 -10ZM244 61Q295 61 330 81T382 135T400 206V229L250 210Q194 203 165 187T135 132Q135 98 164 80T244 61ZM395 547L497 696H575L677 547H612L536 651L460 547H395Z" />
<glyph unicode="&#xe3;" horiz-adv-x="560" d="M229 -10Q175 -10 136 6T74 54T52 130Q52 174 74 204T136 251T229 275L399 296Q393 354 358 381T267 409Q233 409 196 395T119 351L86 413Q123 444 169 462T267 480Q373 480 427 431T481 286V0H403V73Q377 31 332
11T229 -10ZM244 61Q295 61 330 81T382 135T400 206V229L250 210Q194 203 165 187T135 132Q135 98 164 80T244 61ZM385 560Q385 602 394 629T423 669T470 683Q491 683 509 673T544 649T574 626T602 615Q617 615 625 629T636 683H687Q687 641 678 614T649 574T602
560Q581 560 563 570T528 594T498 617T470 628Q455 628 447 614T436 560H385Z" />
<glyph unicode="&#xe4;" horiz-adv-x="560" d="M229 -10Q175 -10 136 6T74 54T52 130Q52 174 74 204T136 251T229 275L399 296Q393 354 358 381T267 409Q233 409 196 395T119 351L86 413Q123 444 169 462T267 480Q373 480 427 431T481 286V0H403V73Q377 31 332
11T229 -10ZM244 61Q295 61 330 81T382 135T400 206V229L250 210Q194 203 165 187T135 132Q135 98 164 80T244 61ZM630 578Q609 578 597 590T584 622Q584 641 596 653T630 665Q651 665 663 653T676 622Q676 602 664 590T630 578ZM442 578Q421 578 409 590T396 622Q396
641 408 653T442 665Q463 665 475 653T488 622Q488 602 476 590T442 578Z" />
<glyph unicode="&#xe5;" horiz-adv-x="560" d="M229 -10Q175 -10 136 6T74 54T52 130Q52 174 74 204T136 251T229 275L399 296Q393 354 358 381T267 409Q233 409 196 395T119 351L86 413Q123 444 169 462T267 480Q373 480 427 431T481 286V0H403V73Q377 31 332
11T229 -10ZM244 61Q295 61 330 81T382 135T400 206V229L250 210Q194 203 165 187T135 132Q135 98 164 80T244 61ZM536 517Q485 517 454 546T423 622Q423 667 454 696T536 726Q587 726 618 697T649 622Q649 576 618 547T536 517ZM536 557Q566 557 584 575T602 622Q602
650 584 668T536 686Q506 686 488 668T470 622Q470 593 488 575T536 557Z" />
<glyph unicode="&#xe6;" horiz-adv-x="908" d="M229 -10Q175 -10 136 6T74 54T52 130Q52 174 74 203T136 250T229 275L399 296Q393 354 358 381T267 409Q233 409 196 395T119 351L86 413Q123 444 169 462T267 480Q336 480 382 458T452 390Q483 433 529 456T633
480Q702 480 752 453T829 381T856 277Q856 261 852 242T840 210H483Q488 162 509 129T568 78T653 61Q700 61 735 75T804 117L836 56Q798 23 750 7T646 -10Q577 -10 523 19T437 103Q406 48 352 19T229 -10ZM244 61Q295 61 330 81T382 135T400 206V229L250 210Q194
202 165 186T135 132Q135 98 164 80T244 61ZM483 278H772Q773 280 773 282T773 288Q773 324 758 351T713 394T636 409Q600 409 568 394T514 349T483 278Z" />
<glyph unicode="&#xe7;" horiz-adv-x="508" d="M295 -10Q224 -10 169 20T83 106T52 235Q52 309 83 364T169 449T295 480Q346 480 387 465T461 422L430 361Q398 386 363 397T295 409Q247 409 211 388T155 328T135 235Q135 181 155 142T211 82T295 61Q328 61 363
72T430 109L461 48Q429 20 388 5T295 -10ZM513 -188Q499 -188 480 -186T446 -179V-136Q459 -139 477 -140T509 -142Q534 -142 546 -133T558 -106Q558 -89 546 -80T509 -71H486V-47L512 11H557L531 -47Q570 -47 592 -64T614 -112Q614 -146 588 -167T513 -188Z" />
<glyph unicode="&#xe8;" horiz-adv-x="560" d="M298 -10Q228 -10 172 19T84 102T52 235Q52 310 83 365T167 450T285 480Q354 480 404 453T481 381T508 277Q508 261 504 242T492 210H135Q140 162 161 129T220 78T305 61Q352 61 387 75T456 117L488 56Q450 23 402
7T298 -10ZM135 278H424Q425 280 425 282T425 288Q425 324 410 351T365 394T288 409Q252 409 220 394T166 349T135 278ZM514 547L414 696H496L570 547H514Z" />
<glyph unicode="&#xe9;" horiz-adv-x="560" d="M298 -10Q228 -10 172 19T84 102T52 235Q52 310 83 365T167 450T285 480Q354 480 404 453T481 381T508 277Q508 261 504 242T492 210H135Q140 162 161 129T220 78T305 61Q352 61 387 75T456 117L488 56Q450 23 402
7T298 -10ZM135 278H424Q425 280 425 282T425 288Q425 324 410 351T365 394T288 409Q252 409 220 394T166 349T135 278ZM257 547L331 696H413L313 547H257Z" />
<glyph unicode="&#xea;" horiz-adv-x="560" d="M298 -10Q228 -10 172 19T84 102T52 235Q52 310 83 365T167 450T285 480Q354 480 404 453T481 381T508 277Q508 261 504 242T492 210H135Q140 162 161 129T220 78T305 61Q352 61 387 75T456 117L488 56Q450 23 402
7T298 -10ZM135 278H424Q425 280 425 282T425 288Q425 324 410 351T365 394T288 409Q252 409 220 394T166 349T135 278ZM395 547L497 696H575L677 547H612L536 651L460 547H395Z" />
<glyph unicode="&#xeb;" horiz-adv-x="560" d="M298 -10Q228 -10 172 19T84 102T52 235Q52 310 83 365T167 450T285 480Q354 480 404 453T481 381T508 277Q508 261 504 242T492 210H135Q140 162 161 129T220 78T305 61Q352 61 387 75T456 117L488 56Q450 23 402
7T298 -10ZM135 278H424Q425 280 425 282T425 288Q425 324 410 351T365 394T288 409Q252 409 220 394T166 349T135 278ZM630 578Q609 578 597 590T584 622Q584 641 596 653T630 665Q651 665 663 653T676 622Q676 602 664 590T630 578ZM442 578Q421 578 409 590T396
622Q396 641 408 653T442 665Q463 665 475 653T488 622Q488 602 476 590T442 578Z" />
<glyph unicode="&#xec;" horiz-adv-x="239" d="M79 0V470H160V0H79ZM98 547L-2 696H80L154 547H98Z" />
<glyph unicode="&#xed;" horiz-adv-x="239" d="M79 0V470H160V0H79ZM97 547L171 696H253L153 547H97Z" />
<glyph unicode="&#xee;" horiz-adv-x="239" d="M79 0V470H160V0H79ZM-21 547L81 696H159L261 547H196L120 651L44 547H-21Z" />
<glyph unicode="&#xef;" horiz-adv-x="239" d="M79 0V470H160V0H79ZM214 578Q193 578 181 590T168 622Q168 641 180 653T214 665Q235 665 247 653T260 622Q260 602 248 590T214 578ZM26 578Q5 578 -7 590T-20 622Q-20 641 -8 653T26 665Q47 665 59 653T72 622Q72
602 60 590T26 578Z" />
<glyph unicode="&#xf0;" horiz-adv-x="590" d="M295 -10Q224 -10 169 18T83 98T52 217Q52 284 80 333T161 410T282 438Q317 438 343 428T388 403L278 555L170 514V568L247 598L197 668H283L316 622L434 668V614L346 579L449 435Q481 390 500 357T529 291T538 217Q538
149 507 98T422 19T295 -10ZM295 61Q343 61 379 80T435 135T455 219Q455 267 435 302T379 357T295 377Q247 377 211 358T155 303T135 219Q135 171 155 136T211 81T295 61Z" />
<glyph unicode="&#xf1;" horiz-adv-x="570" d="M79 0V470H157V396Q178 435 219 457T318 480Q399 480 445 434T491 289V0H410V280Q410 348 383 378T298 409Q232 409 196 364T160 240V0H79ZM390 560Q390 602 399 629T428 669T475 683Q496 683 514 673T549 649T579
626T607 615Q622 615 630 629T641 683H692Q692 641 683 614T654 574T607 560Q586 560 568 570T533 594T503 617T475 628Q460 628 452 614T441 560H390Z" />
<glyph unicode="&#xf2;" horiz-adv-x="590" d="M295 -10Q224 -10 169 20T83 106T52 235Q52 309 83 364T169 449T295 480Q367 480 421 450T507 364T538 235Q538 161 507 106T422 21T295 -10ZM295 61Q343 61 379 82T435 142T455 235Q455 289 435 328T379 388T295
409Q247 409 211 388T155 328T135 235Q135 181 155 142T211 82T295 61ZM529 547L429 696H511L585 547H529Z" />
<glyph unicode="&#xf3;" horiz-adv-x="590" d="M295 -10Q224 -10 169 20T83 106T52 235Q52 309 83 364T169 449T295 480Q367 480 421 450T507 364T538 235Q538 161 507 106T422 21T295 -10ZM295 61Q343 61 379 82T435 142T455 235Q455 289 435 328T379 388T295
409Q247 409 211 388T155 328T135 235Q135 181 155 142T211 82T295 61ZM272 547L346 696H428L328 547H272Z" />
<glyph unicode="&#xf4;" horiz-adv-x="590" d="M295 -10Q224 -10 169 20T83 106T52 235Q52 309 83 364T169 449T295 480Q367 480 421 450T507 364T538 235Q538 161 507 106T422 21T295 -10ZM295 61Q343 61 379 82T435 142T455 235Q455 289 435 328T379 388T295
409Q247 409 211 388T155 328T135 235Q135 181 155 142T211 82T295 61ZM410 547L512 696H590L692 547H627L551 651L475 547H410Z" />
<glyph unicode="&#xf5;" horiz-adv-x="590" d="M295 -10Q224 -10 169 20T83 106T52 235Q52 309 83 364T169 449T295 480Q367 480 421 450T507 364T538 235Q538 161 507 106T422 21T295 -10ZM295 61Q343 61 379 82T435 142T455 235Q455 289 435 328T379 388T295
409Q247 409 211 388T155 328T135 235Q135 181 155 142T211 82T295 61ZM400 560Q400 602 409 629T438 669T485 683Q506 683 524 673T559 649T589 626T617 615Q632 615 640 629T651 683H702Q702 641 693 614T664 574T617 560Q596 560 578 570T543 594T513 617T485
628Q470 628 462 614T451 560H400Z" />
<glyph unicode="&#xf6;" horiz-adv-x="590" d="M295 -10Q224 -10 169 20T83 106T52 235Q52 309 83 364T169 449T295 480Q367 480 421 450T507 364T538 235Q538 161 507 106T422 21T295 -10ZM295 61Q343 61 379 82T435 142T455 235Q455 289 435 328T379 388T295
409Q247 409 211 388T155 328T135 235Q135 181 155 142T211 82T295 61ZM645 578Q624 578 612 590T599 622Q599 641 611 653T645 665Q666 665 678 653T691 622Q691 602 679 590T645 578ZM457 578Q436 578 424 590T411 622Q411 641 423 653T457 665Q478 665 490 653T503
622Q503 602 491 590T457 578Z" />
<glyph unicode="&#xf7;" horiz-adv-x="582" d="M79 300V368H503V300H79ZM291 111Q269 111 257 123T244 156Q244 175 256 188T291 201Q313 201 325 188T338 156Q338 136 326 124T291 111ZM291 467Q269 467 257 480T244 512Q244 532 256 544T291 557Q313 557 325
545T338 512Q338 493 326 480T291 467Z" />
<glyph unicode="&#xf8;" horiz-adv-x="590" d="M86 -10L52 23L504 480L538 447L86 -10ZM295 -10Q224 -10 169 20T83 106T52 235Q52 309 83 364T169 449T295 480Q367 480 421 450T507 364T538 235Q538 161 507 106T422 21T295 -10ZM295 61Q343 61 379 82T435 142T455
235Q455 289 435 328T379 388T295 409Q247 409 211 388T155 328T135 235Q135 181 155 142T211 82T295 61Z" />
<glyph unicode="&#xf9;" horiz-adv-x="570" d="M252 -10Q171 -10 125 36T79 181V470H160V190Q160 122 187 92T272 61Q338 61 374 106T410 230V470H491V0H413V74Q392 35 351 13T252 -10ZM519 547L419 696H501L575 547H519Z" />
<glyph unicode="&#xfa;" horiz-adv-x="570" d="M252 -10Q171 -10 125 36T79 181V470H160V190Q160 122 187 92T272 61Q338 61 374 106T410 230V470H491V0H413V74Q392 35 351 13T252 -10ZM262 547L336 696H418L318 547H262Z" />
<glyph unicode="&#xfb;" horiz-adv-x="570" d="M252 -10Q171 -10 125 36T79 181V470H160V190Q160 122 187 92T272 61Q338 61 374 106T410 230V470H491V0H413V74Q392 35 351 13T252 -10ZM400 547L502 696H580L682 547H617L541 651L465 547H400Z" />
<glyph unicode="&#xfc;" horiz-adv-x="570" d="M252 -10Q171 -10 125 36T79 181V470H160V190Q160 122 187 92T272 61Q338 61 374 106T410 230V470H491V0H413V74Q392 35 351 13T252 -10ZM635 578Q614 578 602 590T589 622Q589 641 601 653T635 665Q656 665 668
653T681 622Q681 602 669 590T635 578ZM447 578Q426 578 414 590T401 622Q401 641 413 653T447 665Q468 665 480 653T493 622Q493 602 481 590T447 578Z" />
<glyph unicode="&#xfd;" horiz-adv-x="529" d="M110 -188Q81 -188 53 -181T2 -160L26 -96Q48 -107 68 -112T105 -118Q127 -118 147 -108T186 -74T224 -11L28 470H115L264 85L413 470H500L308 0Q278 -74 246 -115T180 -172T110 -188ZM242 547L316 696H398L298 547H242Z" />
<glyph unicode="&#xfe;" horiz-adv-x="607" d="M79 -182V668H160V396Q183 434 227 457T329 480Q394 480 445 450T525 366T554 235Q554 160 525 105T445 20T329 -10Q271 -10 227 12T160 73V-182H79ZM314 61Q360 61 395 82T451 142T471 235Q471 289 451 328T396
388T314 409Q268 409 233 388T177 328T157 235Q157 181 177 142T232 82T314 61Z" />
<glyph unicode="&#xff;" horiz-adv-x="529" d="M110 -188Q81 -188 53 -181T2 -160L26 -96Q48 -107 68 -112T105 -118Q127 -118 147 -108T186 -74T224 -11L28 470H115L264 85L413 470H500L308 0Q278 -74 246 -115T180 -172T110 -188ZM615 578Q594 578 582 590T569
622Q569 641 581 653T615 665Q636 665 648 653T661 622Q661 602 649 590T615 578ZM427 578Q406 578 394 590T381 622Q381 641 393 653T427 665Q448 665 460 653T473 622Q473 602 461 590T427 578Z" />
<glyph unicode="&#x2013;" horiz-adv-x="568" d="M52 253V319H516V253H52Z" />
<glyph unicode="&#x2014;" horiz-adv-x="798" d="M52 253V319H746V253H52Z" />
<glyph unicode="&#x2018;" horiz-adv-x="251" d="M88 432V510Q88 566 104 603T158 668L201 647Q182 615 173 582T163 510V432H88Z" />
<glyph unicode="&#x2019;" horiz-adv-x="251" d="M93 432L50 453Q69 485 78 518T88 590V668H163V590Q163 534 147 497T93 432Z" />
<glyph unicode="&#x201a;" horiz-adv-x="251" d="M93 -152L50 -131Q69 -99 78 -66T88 6V84H163V6Q163 -50 147 -87T93 -152Z" />
<glyph unicode="&#x201c;" horiz-adv-x="420" d="M257 432V510Q257 566 273 603T326 668L370 647Q351 616 342 582T332 510V432H257ZM88 432V510Q88 566 104 603T157 668L201 647Q182 616 173 582T163 510V432H88Z" />
<glyph unicode="&#x201d;" horiz-adv-x="420" d="M263 432L219 453Q238 484 247 518T257 590V668H332V590Q332 534 316 497T263 432ZM93 432L50 453Q69 485 78 518T88 590V668H163V590Q163 534 147 497T93 432Z" />
<glyph unicode="&#x201e;" horiz-adv-x="420" d="M263 -152L219 -131Q238 -100 247 -66T257 6V84H332V6Q332 -50 316 -87T263 -152ZM93 -152L50 -131Q69 -99 78 -66T88 6V84H163V6Q163 -50 147 -87T93 -152Z" />
<glyph unicode="&#x2022;" horiz-adv-x="397" d="M199 177Q164 177 138 191T98 230T84 286Q84 318 98 342T138 381T199 395Q234 395 259 381T299 343T313 286Q313 255 299 230T260 191T199 177Z" />
<glyph unicode="&#x2039;" horiz-adv-x="280" d="M152 113L52 286L152 461H228L128 286L228 113H152Z" />
<glyph unicode="&#x203a;" horiz-adv-x="280" d="M52 113L152 286L52 461H128L228 286L128 113H52Z" />
</font>
</defs>
</svg>
