<?xml version="1.0" standalone="no"?>
<!DOCTYPE svg PUBLIC "-//W3C//DTD SVG 1.1//EN" "http://www.w3.org/Graphics/SVG/1.1/DTD/svg11.dtd">
<svg xmlns="http://www.w3.org/2000/svg">
<defs >
<font id="Bilbo" horiz-adv-x="489" ><font-face
    font-family="Bilbo"
    units-per-em="1000"
    panose-1="0 0 0 0 0 0 0 0 0 0"
    ascent="850"
    descent="-400"
    alphabetic="0" />
<glyph unicode=" " glyph-name="space" horiz-adv-x="200" />
<glyph unicode="!" glyph-name="exclam" horiz-adv-x="202" d="M164 179Q152 179 152 198Q152 217 162 250T189 324T223 403T256 476T279 529Q282 538 290 555T308 591T325 624T332 643Q332 645 324 645T314 655Q315 662 331 666T364 671Q376 671 385 668T395
657Q395 654 393 650Q388 644 372 615T333 542T286 450T242 355T208 274T195 222Q195 215 198 212T202 203Q202 193 189 186T164 179ZM98 -17Q82 -17 79 -3T76 24Q76 38 87 49T113 68T136 76Q141 76 143 74L144 72Q137 38 133 21T122 -5T98 -17Z" />
<glyph unicode="&quot;" glyph-name="quotedbl" horiz-adv-x="406" d="M224 404Q220 404 220 408V409L221 410Q233 422 250 441T283 482T310 524T321 557Q321 565 317 569V570Q308 579 308 592Q308 612 323 624L325 625Q325 625 332 630T349 641T367 647Q377 647
381 639Q388 617 388 606Q388 596 385 593T379 581V580Q365 538 343 506T296 450T253 416T224 404ZM94 396Q89 396 89 401H90Q102 413 119 432T152 474T180 516T191 549Q191 557 187 561L186 562Q177 571 177 584Q177 603 193 616L194 617V616Q194 616 201 622T218
633T237 639Q247 639 251 631Q258 609 258 598Q258 588 254 585T248 573L249 572Q235 530 213 498T166 442T123 408T94 396Z" />
<glyph unicode="#" glyph-name="numbersign" horiz-adv-x="672" d="M125 32Q118 32 116 37T114 49Q114 80 132 115T161 180H72Q40 180 17 184T-7 200Q-7 208 3 212T24 217T35 219H176Q190 257 203 293T230 367L146 366Q114 365 91 370T67 387Q67 395 77 398T98
403T109 405Q142 405 175 405T243 404Q250 422 258 447T275 496T291 535T304 551Q309 551 310 544T311 532Q311 513 307 486T298 445L282 403Q323 403 363 403T445 402Q452 420 461 444T481 493T500 533T514 550Q522 550 522 532Q522 514 517 487T507 445L491 403Q527
403 564 404T638 406Q657 406 660 402Q661 401 661 399Q661 393 641 386T597 373T558 368H477Q465 336 451 297T422 220H544Q587 220 587 211Q587 204 567 197T523 186T484 182L407 181Q383 117 368 75T334 32Q323 32 323 50Q323 82 339 117T365 181L198 180Q173
116 158 74T125 32ZM213 219H379Q392 257 405 294T431 368L268 367Q256 335 242 296T213 219Z" />
<glyph unicode="$" glyph-name="dollar" horiz-adv-x="572" d="M139 -187Q129 -187 125 -173T120 -140Q120 -114 127 -81T145 -7Q138 -8 131 -8T117 -8Q71 -7 56 8T41 39Q41 39 41 49T47 70T69 81Q72 81 72 70T77 49Q87 29 105 23T152 16Q168 69 189 128T233 249Q204
260 177 273T132 306T114 359Q114 401 145 435T226 493T333 522Q352 571 362 595T379 628T393 637Q395 637 396 637T398 636Q400 635 401 633T403 625Q403 617 396 600T380 562T364 524H373Q419 524 432 503T446 457Q446 455 444 443T436 420T418 409Q413 409 413
414Q413 419 415 427T417 444Q417 473 398 483T352 495Q333 445 311 388T268 273Q298 262 326 250T372 220T390 176Q390 139 361 101T282 34T174 -4Q161 -48 154 -80T146 -131Q146 -152 154 -157T163 -163Q163 -178 151 -182T139 -187ZM245 282Q246 285 247 288T250
295L323 494Q298 492 269 483T213 459T170 422T153 375Q153 338 180 317T245 282ZM180 17Q213 20 246 34T305 72T340 124Q343 132 344 140T345 155Q345 190 318 208T256 240Q234 180 215 123T180 17Z" />
<glyph unicode="%" glyph-name="percent" horiz-adv-x="596" d="M113 -98Q98 -98 98 -74Q98 -53 105 -27T117 10Q125 31 150 72T211 166T290 276T374 389T453 491T515 565Q489 553 451 540T375 517T310 507Q310 506 310 505T311 502Q311 490 300 468T270 420T228
371T182 333T139 318H126Q110 318 100 329T86 354T81 377Q81 397 95 426T131 488T180 548T231 594T275 612Q300 612 309 599T319 565Q319 558 318 551T315 536Q317 534 323 534Q352 534 389 544T463 567T525 591T553 601Q555 601 560 600T569 594Q573 590 573 585Q573
577 565 569Q529 527 483 470T386 347T289 218T205 97T145 -1T122 -61Q122 -72 127 -77T133 -85Q133 -90 125 -94T113 -98ZM141 343Q160 343 185 362T235 410T274 465T290 505Q283 509 275 518T262 536T256 544Q242 544 220 525T175 476T137 418T121 371Q121 361
124 352T141 343ZM296 -70Q280 -70 270 -59T256 -34T251 -11Q251 9 265 38T301 100T350 160T401 206T445 224Q470 224 479 211T489 178Q489 171 488 164T485 148Q486 146 493 145Q499 144 499 138Q499 134 495 129T480 120Q480 119 480 118T481 115Q481 103 470
81T440 33T398 -16T352 -55T309 -70H296ZM311 -44Q330 -44 355 -25T405 23T444 77T460 117Q453 122 445 131T432 148T426 156Q412 156 390 137T345 88T307 31T291 -17Q291 -27 294 -35T311 -44Z" />
<glyph unicode="&amp;" glyph-name="ampersand" horiz-adv-x="862" d="M237 -31Q138 -31 90 6T42 95Q42 149 93 206T243 297Q114 308 114 387Q114 437 142 476T216 545T319 594T434 623T543 633Q617 633 667 611T718 543Q718 506 695 477T636 429T564 399T503
388Q494 388 494 394Q494 403 507 403Q528 403 553 414T602 443T640 485T655 533Q655 574 620 593T526 613Q487 613 439 604T342 577T253 532T187 469T162 387Q162 365 179 352T224 333T279 327Q308 327 333 334T372 341Q390 341 390 329Q390 321 375 311T325 298Q253
279 204 247T131 177T106 103Q106 58 147 26T270 -6Q347 -6 405 13T503 62T561 127T581 194Q581 229 558 252T489 276Q452 276 423 263T394 220Q394 213 397 204T400 186Q400 179 393 179Q386 179 376 189T366 215Q366 250 389 271T447 301T514 310Q559 310 601
299T686 275T771 263Q786 263 795 267T810 271Q817 271 817 266Q817 252 797 245T750 237Q684 237 644 250T576 271Q596 262 611 240T627 189Q627 154 604 121T540 61T448 13T343 -19T237 -31Z" />
<glyph unicode="&apos;" glyph-name="quotesingle" horiz-adv-x="209" d="M141 329Q137 329 137 333V335Q149 347 166 366T199 408T227 450T238 483Q238 490 234 494L233 495Q224 504 224 517Q224 536 240 549L242 550Q242 550 249 555T266 566T284 572Q294 572
298 564Q303 555 304 547T306 532Q306 515 296 505Q282 463 260 431T213 375T170 341T141 329Z" />
<glyph unicode="(" glyph-name="parenleft" horiz-adv-x="268" d="M96 -65Q59 -65 34 -36T-5 42T-18 150Q-18 195 -11 245T12 345Q29 400 65 458T156 566T280 647T434 678H435Q448 675 448 666Q448 656 433 644T407 631Q338 630 280 602T175 530T98 436T51 339Q34
288 24 231T13 122Q13 61 30 16T88 -40Q101 -41 106 -45T112 -54Q112 -65 96 -65Z" />
<glyph unicode=")" glyph-name="parenright" horiz-adv-x="397" d="M-24 -56Q-31 -53 -31 -45Q-31 -36 -24 -25T-7 -6T13 3Q56 3 100 32T186 110T264 216T329 333H330Q349 372 362 419T376 511Q376 548 363 578T320 627T237 646H229Q225 646 216 652T207 666Q207
674 238 674Q302 674 338 650T389 587T405 500Q405 454 394 407T366 318Q333 240 289 172T192 53T85 -27T-23 -56H-24Z" />
<glyph unicode="*" glyph-name="asterisk" horiz-adv-x="203" d="M104 508Q92 508 88 516T83 536Q83 547 85 558T90 577Q80 567 66 556T38 545Q33 545 27 548T21 561Q21 571 31 578T56 591T81 598Q71 602 57 608T32 622T21 640Q21 648 26 651T37 654Q51 654 66
642T90 618Q88 626 86 637T84 659Q84 671 88 679T103 689Q114 688 117 680T121 660Q121 650 119 639T114 619Q125 630 140 643T167 656Q173 656 177 652Q182 647 182 642Q182 633 171 625T145 610T122 599Q132 596 146 591T170 578T181 559Q181 552 176 548T165
544Q153 544 139 555T115 577Q117 567 120 556T123 533Q123 523 119 516T104 508Z" />
<glyph unicode="+" glyph-name="plus" horiz-adv-x="379" d="M144 -13Q139 -13 139 2Q139 10 140 18T143 29Q153 59 161 87T174 134T178 154Q178 154 162 154T124 153T85 152Q60 152 59 154T58 160Q58 168 66 175T87 183L186 181Q191 198 198 221T213 266T232
303T254 318Q261 318 262 312Q262 305 257 283T243 233T224 180Q232 180 259 181T312 182Q328 182 340 182T356 179Q364 174 364 171Q364 165 349 163T310 159T261 157T215 152Q214 146 203 111T161 12Q149 -13 144 -13Z" />
<glyph unicode="," glyph-name="comma" horiz-adv-x="202" d="M5 -169Q1 -169 1 -166V-164Q13 -152 30 -132T63 -90T91 -49T102 -16Q102 -8 98 -4H97Q88 7 88 20Q88 38 104 51L106 52Q106 52 113 57T130 68T148 74Q158 74 162 66Q169 44 169 33Q169 23 165 20T159
8Q145 -34 123 -67T76 -123T33 -157T5 -169Z" />
<glyph unicode="-" glyph-name="hyphen" horiz-adv-x="289" d="M38 121Q23 121 23 134Q23 150 35 158T60 169T72 173Q79 173 79 168Q79 162 74 157Q94 156 113 155T158 153Q166 153 173 153T190 154Q190 154 199 154T221 155T241 156Q259 156 259 150Q259 145
240 140T190 130T126 124T67 121Q62 121 57 121T47 122Q45 122 43 122T38 121Z" />
<glyph unicode="." glyph-name="period" horiz-adv-x="247" d="M130 -13Q118 -13 116 1T113 26Q113 39 125 50T151 69T173 77Q175 77 177 75Q167 27 161 7T130 -13Z" />
<glyph unicode="/" glyph-name="slash" horiz-adv-x="604" d="M44 -124Q32 -124 26 -115T20 -92Q20 -60 42 -9T101 104T186 233T283 367T381 493T468 599T532 671T561 698Q564 698 570 697T580 690Q582 688 583 686T585 679Q585 671 576 660Q533 611 479 544T365
400T251 247T151 104T80 -11T53 -80Q53 -93 60 -99T67 -109Q67 -114 58 -119T44 -124Z" />
<glyph unicode="0" glyph-name="zero" horiz-adv-x="318" d="M100 -20Q71 -20 52 -1T33 65Q33 91 40 131T62 214T99 296T150 358T216 382Q254 382 270 355T286 280Q286 231 273 179T234 81T175 8T100 -20ZM112 12Q142 12 166 39T209 107T239 188Q242 197 248 225T254
281Q254 305 247 322T218 340Q193 340 168 313T124 243T92 156T80 75Q80 47 87 30T112 12Z" />
<glyph unicode="1" glyph-name="one" horiz-adv-x="275" d="M87 -15Q68 -15 68 3Q68 12 72 24Q101 109 118 155T142 224T150 257Q150 262 149 264T147 270Q147 274 150 283Q128 267 104 253T54 226Q52 225 49 225Q42 225 40 233V236Q40 243 46 245Q84 265 116
294T179 353Q181 358 184 361T190 369Q193 377 203 381T223 387Q227 388 231 388T239 388Q252 388 252 379Q252 373 250 370Q234 339 203 278T146 128Q142 112 136 101T127 77Q132 75 132 64Q132 53 129 38T124 15Q123 5 111 -5T87 -15Z" />
<glyph unicode="2" glyph-name="two" horiz-adv-x="410" d="M348 -35Q344 -35 344 -31T344 -27Q352 -17 354 -9T357 6Q357 22 342 29T304 36Q271 36 238 32T171 23Q135 17 94 10T24 -9H22Q19 -9 17 -4T15 8Q15 10 15 13T16 18Q18 28 31 36T60 50T87 61Q126 79
169 107T250 168T312 238T338 309Q339 325 326 336T285 347Q257 347 221 336T149 310T90 279Q88 277 84 277Q77 277 79 286Q79 294 84 303T96 317Q102 320 118 332T150 355T169 367Q175 367 173 360Q173 355 169 351T161 343Q178 350 204 358T262 374T320 381Q350
381 371 370T392 327Q392 294 372 261T319 196T247 136T171 83T104 40Q124 47 157 53T228 63T297 68Q317 68 336 66T369 57T382 33Q382 19 376 3T361 -24T348 -35Z" />
<glyph unicode="3" glyph-name="three" horiz-adv-x="490" d="M134 -180Q69 -180 33 -155T-3 -76Q-3 -36 21 -8T82 36T158 51Q169 51 169 42Q169 36 158 36Q132 36 105 23T59 -14T40 -71Q40 -115 68 -136T145 -158Q195 -158 241 -142T325 -96T383 -28T405 58Q405
99 380 129T286 159Q257 159 229 151T184 143Q168 143 168 158Q168 166 175 174T193 183Q223 183 262 189T337 209T398 248T422 307Q422 323 409 334T367 345Q339 345 303 334T233 308T176 277Q174 275 170 275Q164 275 164 284Q164 292 168 301T180 315Q186 318
202 330T232 353T250 365Q255 365 255 358Q255 353 251 349T244 341Q260 348 286 356T343 372T401 379Q433 379 454 367T476 319Q476 296 461 274T423 232T373 201T324 183Q401 182 430 151T460 72Q460 22 434 -23T362 -104T258 -159T134 -180Z" />
<glyph unicode="4" glyph-name="four" horiz-adv-x="442" d="M248 -176Q229 -176 229 -158Q229 -149 233 -137L292 33Q236 29 173 22T64 7Q55 6 37 0T13 -9Q9 -10 6 -5T3 8Q3 24 11 29Q24 36 53 59T123 115T206 186T288 257T355 317T394 353Q396 358 399 361T405
369Q408 377 418 381T438 387Q442 388 446 388T454 388Q467 388 467 379Q467 373 465 370Q449 339 419 271T356 116Q354 112 349 99T338 68H354Q374 68 393 66T426 57T439 33Q439 19 433 3T418 -24T405 -35Q401 -35 401 -31T401 -27Q409 -17 411 -9T414 6Q414 22
399 29T361 36Q354 36 345 36T327 35Q319 10 310 -16T295 -60T288 -84Q293 -86 293 -97Q293 -108 290 -123T285 -146Q284 -156 272 -166T248 -176ZM68 45Q74 45 77 46Q99 49 138 53T222 60T304 66L373 262Q377 273 377 280Q377 286 373 286Q371 286 365 283Q358
278 334 259T277 213T205 154T132 95T68 45Z" />
<glyph unicode="5" glyph-name="five" horiz-adv-x="490" d="M172 -159Q102 -159 71 -131T39 -65Q39 -36 56 -9T106 36T184 54Q194 54 194 45Q194 40 184 40Q152 40 128 26T91 -12T78 -59Q78 -90 102 -114T182 -138Q244 -138 294 -115T375 -47T405 58Q405 86 394
110T356 149T285 165Q256 165 229 158T184 143Q182 142 179 142Q174 142 171 147T168 158Q168 166 181 171Q190 190 199 215T218 266T234 308Q231 310 231 318Q231 330 234 339Q236 350 251 355T292 364Q324 371 357 374T419 378T460 380Q480 380 499 378T532 369T545
345Q545 331 539 315T524 288T511 277Q507 277 507 281T507 285Q515 295 517 303T520 318Q520 334 501 339T459 344Q420 344 375 340T290 327Q268 288 250 246T220 175Q229 180 243 184T278 188Q327 188 368 179T435 146T460 72Q460 5 421 -47T317 -129T172 -159Z"
/>
<glyph unicode="6" glyph-name="six" horiz-adv-x="563" d="M150 4Q113 4 83 23T53 92Q53 148 83 206T162 319T269 425T386 518T493 591Q509 601 516 601Q526 601 526 588Q526 584 525 578T522 567Q519 558 502 545T465 519T431 500Q371 464 313 419T207 321T130
213T99 102Q98 65 118 48T166 30Q222 30 273 52T367 113T441 197Q467 237 467 275Q467 293 460 305T435 319Q432 319 429 319T423 320Q383 320 344 295T273 231T221 146T196 62Q195 47 185 47Q175 47 175 65Q175 107 196 156T255 249T338 321T436 349Q466 349 487
333T509 276Q509 272 509 268T508 258Q500 204 464 158T374 78T262 24T150 4Z" />
<glyph unicode="7" glyph-name="seven" horiz-adv-x="420" d="M42 -180Q31 -180 29 -170T27 -150Q27 -114 41 -74T77 5T118 71Q159 125 216 190T363 336Q329 340 288 341T194 343Q173 343 147 337T96 311T58 250Q52 233 36 233Q29 233 23 238T17 253Q17 269 22
284T33 316Q34 320 40 335T54 366T69 381Q75 382 74 372T67 346T57 317Q73 343 102 358T173 374Q208 374 250 371T328 364T378 357Q386 363 395 371T411 379Q420 379 432 369T445 351Q445 346 443 345Q364 280 310 229T219 137T149 58Q129 35 106 -3T67 -83T51
-157Q51 -161 51 -164T52 -172Q52 -180 42 -180Z" />
<glyph unicode="8" glyph-name="eight" horiz-adv-x="410" d="M283 20Q248 2 210 -9T136 -20Q92 -20 62 1T32 71Q32 102 55 132T110 189T170 235Q181 242 192 248T216 262Q185 285 163 312T140 378Q140 425 169 459T244 513T339 533Q380 533 405 518T431 465Q431
450 427 434Q426 430 420 422T406 414Q398 414 401 421Q401 424 404 430Q407 439 407 448Q407 477 382 492T327 507Q298 507 264 498T206 465T182 399Q182 362 205 336T259 287Q309 315 358 347T439 419T471 507Q471 522 478 530T492 538Q507 538 507 514Q507 511
507 508T506 501Q496 442 461 403T378 333T277 274Q305 254 330 235T373 195T390 145Q390 142 390 139T389 131Q385 104 356 74T283 20ZM77 78Q76 75 76 72T76 67Q76 37 100 24T158 10Q187 10 218 18T276 43T320 82T337 131Q337 156 322 176T284 213T234 249Q211
235 189 219T146 184Q119 159 99 129T77 78Z" />
<glyph unicode="9" glyph-name="nine" horiz-adv-x="512" d="M83 -37Q68 -46 59 -46Q43 -46 43 -28Q43 -20 48 -13Q53 -5 71 8T104 28Q107 30 110 30T115 30Q118 30 121 30T129 32Q184 66 242 110T350 208T431 322T462 446Q462 491 436 506T370 521Q337 521 292
506T205 461T135 391T107 300Q107 261 138 255Q144 254 150 254T163 253Q202 253 242 272T316 324T373 394T400 469Q402 484 411 484Q420 484 420 468Q420 428 397 385T336 306T250 247T152 224Q147 224 142 224T131 225Q106 227 86 244T66 304Q66 356 94 400T167
477T267 528T373 546Q445 546 470 520T495 447Q495 383 468 325T396 215T296 116T186 32T83 -37Z" />
<glyph unicode=":" glyph-name="colon" horiz-adv-x="202" d="M151 268Q137 268 135 283T132 308Q132 322 143 334T169 353T193 361Q197 361 199 359L200 357Q193 323 189 304T177 276T151 268ZM109 63Q95 63 93 78T90 103Q90 117 101 128T127 147T150 155Q155
155 157 153L158 152Q151 118 147 99T135 71T109 63Z" />
<glyph unicode=";" glyph-name="semicolon" horiz-adv-x="202" d="M166 166Q152 166 149 176T146 199Q146 213 155 227T179 250T205 259Q211 259 212 256V255Q205 222 202 204T191 179T166 166ZM36 -144Q28 -144 28 -137V-136Q40 -118 57 -96T88 -53T102 -18Q102
-8 95 0T88 20Q88 38 104 51L106 52Q106 52 113 57T130 68T148 74Q158 74 162 66Q169 44 169 33Q169 23 165 20T159 8Q143 -46 119 -79T71 -128T36 -144Z" />
<glyph unicode="&lt;" glyph-name="less" horiz-adv-x="318" d="M217 136L209 140Q184 174 153 200T88 250Q85 253 85 256Q85 264 100 288T137 341T177 395T203 431Q209 442 222 442Q229 442 229 436Q229 433 220 419T198 384T171 342T145 305T130 283Q136 276
151 257T184 216T214 175T227 149Q227 144 226 140T217 136Z" />
<glyph unicode="=" glyph-name="equal" horiz-adv-x="399" d="M126 201Q111 201 111 214Q111 230 123 238T148 249T160 253Q167 253 167 248Q167 242 162 237Q182 236 201 235T246 233Q254 233 261 233T278 234Q278 234 287 234T309 235T329 236Q347 236 347 230Q347
225 328 220T278 210T214 204T155 201Q150 201 145 201T135 202Q133 202 131 202T126 201ZM122 119Q107 119 107 132Q107 148 119 156T144 167T156 171Q163 171 163 166Q163 160 158 155Q178 154 197 153T242 151Q250 151 257 151T274 152Q274 152 283 152T305
153T325 154Q343 154 343 148Q343 143 324 138T274 128T210 122T151 119Q146 119 141 119T131 120Q129 120 127 120T122 119Z" />
<glyph unicode="&gt;" glyph-name="greater" horiz-adv-x="318" d="M91 129Q85 129 85 135Q85 138 94 152T116 187T143 229T169 266T184 288Q178 295 163 314T129 355T99 397T86 422Q86 435 97 435L105 431Q130 397 161 372T226 321Q229 320 229 315Q229 307 214
283T177 230T136 176T110 140Q103 129 91 129Z" />
<glyph unicode="?" glyph-name="question" horiz-adv-x="464" d="M182 149Q175 149 170 158T164 181Q164 192 169 208T188 241Q202 259 237 281T317 331T403 391T472 462T499 543Q499 575 474 596T391 618Q340 618 292 602T214 555T183 483Q183 459 188 449T199
435T210 431T215 426Q215 418 208 414T192 410Q172 410 152 430T132 480Q132 506 151 532Q178 568 224 596T324 641T428 657Q465 657 495 647T545 613T564 551Q564 502 523 456T415 364T266 265Q241 249 229 230T209 192T194 156H193Q188 149 182 149ZM123 -28Q112
-28 110 -14T107 10V11Q107 24 119 35T146 54T167 62Q170 62 170 60Q161 13 155 -7T123 -28Z" />
<glyph unicode="@" glyph-name="at" horiz-adv-x="804" d="M299 -2Q212 -2 147 35T46 135T9 277Q9 359 44 425T135 541T250 623Q243 623 226 622T190 620T157 619Q140 619 136 621T132 627Q132 635 149 639T193 646T249 650T304 651H330Q371 663 421 671T520 679Q576
679 623 666T700 619T730 527Q730 508 725 487T712 444Q727 417 734 390T741 337Q741 283 715 233T645 140T543 66T424 16T299 -2ZM684 483Q690 509 690 532Q690 580 669 607T612 645T532 656Q499 656 464 651T396 638Q457 632 512 613T613 561T684 483ZM272 26Q325
26 383 42T498 87T599 155T671 241T698 339Q698 367 689 395Q677 364 653 327T597 252T531 183T466 132T412 113Q381 113 374 152Q374 170 379 198T393 257T407 307Q392 287 369 256T318 195T263 143T215 122Q191 122 191 158Q191 186 202 227T231 314T270 398T314
463T356 488H359L370 496Q375 502 382 504T398 506Q418 506 440 498T470 490Q477 490 480 498T496 506Q510 506 515 500T521 485Q521 470 513 452T499 421Q498 417 491 415T481 408Q463 358 451 310T431 226T424 182Q424 151 442 151Q457 151 481 172T534 227T590
300T639 375T670 437Q637 500 581 538T458 594T323 616Q267 598 218 561T130 475T71 371T49 259Q49 199 73 146T147 60T272 26ZM247 169Q257 169 273 182T309 217T346 259T376 296T392 317Q408 343 423 373T449 429T459 465Q459 471 454 471H451Q441 470 432 472T410
475Q395 475 376 471Q367 469 350 447T314 390T277 318T248 244T237 186Q237 169 247 169Z" />
<glyph unicode="A" glyph-name="A" horiz-adv-x="619" d="M59 -7H49Q40 -7 40 0Q40 2 40 6T42 16Q54 84 82 149T143 270Q130 270 120 270T93 269Q83 269 83 276Q83 283 91 291T110 300H160Q193 354 234 410T319 522T406 624Q400 632 400 640Q400 648 409 659T444
671Q456 671 461 665T467 650Q467 644 464 636Q472 615 483 576T506 490T527 393T543 301Q576 300 576 290Q576 280 546 275Q545 275 548 254T556 201T565 133T573 68T577 23Q577 13 562 5T535 -4Q523 -4 523 4V16Q523 37 521 74T515 153T508 227T503 273Q427 272
344 271T183 270Q149 209 119 141T79 4Q78 -3 72 -5T59 -7ZM197 298L500 300Q494 347 484 395T462 487T442 562T429 605Q391 565 347 512T264 403T197 298Z" />
<glyph unicode="B" glyph-name="B" horiz-adv-x="631" d="M135 -16Q119 -16 102 -2T85 23Q85 32 96 32Q97 32 109 29Q105 50 103 77T101 138Q101 195 105 261T118 395T137 522T157 625H104Q82 626 82 633Q82 638 94 644T124 650H163Q168 676 186 684T224 692Q239
692 239 682Q239 672 230 662T219 647Q244 645 280 640T353 624T423 595T476 551T497 486Q497 456 481 429T439 380T385 342T334 315Q345 316 357 316T384 317Q417 317 454 312T523 294T575 258T595 197Q595 144 562 105T474 40T357 2T236 -11Q214 -11 193 -10T154
-4Q149 -16 135 -16ZM172 309Q182 309 213 312T285 326T363 355T427 404T453 478Q453 483 453 488T451 500Q441 532 413 554T347 590T274 612T212 623H211Q206 608 199 577T183 508T168 431T155 360T149 310Q150 310 156 310T172 309ZM238 14Q290 14 344 23T445
52T520 105T549 187Q548 221 526 242T468 275T394 291T321 296Q275 296 234 291T147 278Q146 265 145 241T144 186Q144 143 145 98T150 22Q188 14 238 14Z" />
<glyph unicode="C" glyph-name="C" horiz-adv-x="684" d="M348 -13Q253 -13 189 23T92 124T59 277Q59 354 84 423T157 545T277 630T440 661Q469 661 500 657T557 640T599 603T615 539Q615 508 604 493T575 477Q554 477 554 496Q554 513 564 528T574 556Q574 581
554 598T503 626T442 636Q364 636 302 606T197 524T131 408T108 274Q108 205 133 145T209 48T339 10Q408 10 460 28T548 73T607 125T639 165Q644 170 646 170Q651 170 651 155Q651 122 631 96T576 49T502 15T421 -6T348 -13Z" />
<glyph unicode="D" glyph-name="D" horiz-adv-x="775" d="M204 -9Q152 -9 123 3T93 33Q93 41 100 41Q103 41 106 40Q102 59 101 84T99 137Q99 192 104 256T118 386T137 510T159 611H151Q138 611 121 608T99 605Q92 605 92 615Q92 624 101 636T128 648H167Q171
670 182 681T219 692Q233 692 233 681Q230 674 228 670T221 651H247Q313 651 380 640T509 607T620 548T697 461T725 344Q725 285 699 236T630 148T532 80T418 31T304 1T204 -9ZM234 18Q280 18 334 33T443 73T542 130T614 197Q654 248 671 290T688 377Q688 432 662
471T592 536T498 577T397 600T307 610T246 613H211Q180 507 162 388T143 157Q143 144 143 131T144 105Q146 60 162 39T234 18Z" />
<glyph unicode="E" glyph-name="E" horiz-adv-x="577" d="M356 -1H227Q186 -1 146 -1T81 1T55 5Q55 13 67 25T90 39Q89 43 89 48T89 59Q89 85 92 125T100 215T111 314H98Q88 314 88 321Q88 328 96 336T114 345Q124 425 136 500T161 624H108Q86 624 86 632Q86 637
98 642T128 648H167Q172 676 187 684T224 692Q239 692 239 682Q239 675 234 667T224 649Q234 649 259 649T348 648Q379 648 421 648T519 649Q534 649 534 634Q534 624 524 607T503 590Q496 590 490 602T469 616Q456 618 429 618T384 618Q371 618 360 618T337 617Q311
617 285 617T214 619Q204 584 193 533T174 432T160 345Q190 345 232 345T317 345T396 346T446 348Q452 348 452 342Q452 336 443 327T414 314H156Q154 288 150 250T144 171T141 93Q141 75 142 59T145 31Q181 31 243 31T405 30Q427 30 460 34T520 46H521Q525 46
525 36Q525 26 518 13T495 0Q462 0 427 0T356 -1Z" />
<glyph unicode="F" glyph-name="F" horiz-adv-x="540" d="M104 -8Q80 -8 80 14Q86 85 95 164T111 315H99Q89 315 89 322Q89 329 97 337T115 346Q123 416 134 485T162 625H109Q87 626 87 633Q87 638 99 643T129 649H168Q173 677 188 684T224 692Q239 692 239 682Q239
675 234 667T225 650Q235 650 260 650T349 649Q380 649 422 649T520 650Q535 650 535 635Q535 625 525 608T504 591Q497 591 491 603T470 617Q457 619 430 619T385 619Q372 619 361 619T338 618Q312 618 286 618T215 620Q197 564 183 492T158 346Q187 346 229 346T316
346T396 347T447 349Q453 349 453 343Q453 337 444 328T415 315H154Q148 263 142 212T133 122T129 64Q137 63 137 43Q137 -8 104 -8Z" />
<glyph unicode="G" glyph-name="G" horiz-adv-x="780" d="M625 -20Q618 -20 612 -14T606 4Q606 24 610 48T618 97Q589 55 544 31T447 -5T348 -16Q254 -16 190 20T92 121T59 273Q59 350 86 419T166 542T297 627T477 658Q509 658 543 654T606 637T652 600T670 536Q670
505 657 490T626 474Q607 474 607 485Q607 496 617 513T627 547Q627 577 607 596T552 624T479 633Q390 633 321 603T205 522T133 406T108 271Q108 202 133 142T209 45T339 7Q404 7 453 23T539 65T598 117T632 166Q637 187 640 208T646 248H415Q405 248 405 255Q405
262 413 270T432 279Q439 279 467 279T534 279T615 280T689 280T737 282Q743 282 743 276Q743 270 734 261T705 248H685Q680 231 673 208T660 150T654 61Q654 50 655 41T657 22Q657 3 647 -8T625 -20Z" />
<glyph unicode="H" glyph-name="H" horiz-adv-x="689" d="M101 -8Q93 -8 87 -3T80 12Q80 78 87 151T104 300H94Q84 300 84 307Q84 314 91 322T107 331Q114 385 123 440T143 549Q147 569 152 594T171 638T216 657Q231 657 231 647V645Q203 582 183 501T147 331Q173
331 216 331T312 331T415 332T506 333Q512 386 519 437T535 539V569Q535 602 552 629T610 657Q625 657 625 647V645Q599 585 579 505T546 333Q553 333 559 333T569 334Q575 334 575 328Q575 322 567 314T542 301Q532 218 527 148T522 47Q524 34 526 31T529 21Q529
7 519 0T498 -8Q474 -8 474 14Q481 88 488 159T502 300H143Q132 225 127 160T121 56Q121 41 124 35T128 20Q128 6 119 -1T101 -8Z" />
<glyph unicode="I" glyph-name="I" horiz-adv-x="458" d="M206 -8Q193 -8 187 0H56Q46 0 46 7Q46 14 54 22T73 31H184Q197 166 212 303T253 568V598Q253 604 254 608T255 618H139Q129 618 129 625Q129 632 137 640T156 649H265Q270 660 283 665T323 671Q338 671
338 661V659L332 650Q374 650 409 650T461 652Q467 652 467 646Q467 640 458 631T429 618H320V616Q303 568 289 504T264 369T246 235T235 120T231 47Q231 36 234 31Q280 32 320 32T378 34Q384 34 384 28Q384 22 375 13T346 0H228Q218 -8 206 -8Z" />
<glyph unicode="J" glyph-name="J" horiz-adv-x="516" d="M202 -33Q175 -33 146 -13T93 36T54 96T39 148Q39 167 48 167Q51 167 58 151T77 110T104 62T141 22T187 5Q210 5 222 21T242 62T253 108Q268 195 279 266T299 407T315 561Q313 562 313 571Q313 581 319
618H199Q189 618 189 625Q189 632 197 640T216 649H330Q345 677 379 677Q394 677 394 667V665L387 650Q422 650 451 650T495 652Q501 652 501 646Q501 640 492 631T463 618H374L371 607Q364 578 351 510T327 346Q322 296 317 243T304 141T284 53T252 -10T202 -33Z"
/>
<glyph unicode="K" glyph-name="K" horiz-adv-x="635" d="M497 -26Q469 -26 429 -3T343 60T251 146T164 240Q160 243 156 247T147 256Q139 186 136 130T132 47Q134 34 136 31T139 21Q139 7 129 0T108 -8Q84 -8 84 14Q91 86 97 155T111 293Q96 310 85 324T73 346Q73
351 80 351Q87 344 109 344H117Q123 394 130 442T145 539V569Q145 602 162 629T220 657Q235 657 235 647V645Q210 587 191 512T159 349Q173 353 185 355T208 361Q289 393 355 437T470 526T552 605T597 651Q595 653 595 656Q595 667 613 677T645 687Q659 687 659
676Q659 661 634 632T567 567T474 492T371 419T273 359T196 325Q168 317 168 303Q168 294 180 282Q218 242 263 195T354 106T442 37T516 6Q535 6 545 21T560 61T564 110Q564 124 563 135T561 155Q561 171 570 171Q584 171 587 151T590 115Q590 64 575 33T539 -12T497
-26Z" />
<glyph unicode="L" glyph-name="L" horiz-adv-x="579" d="M111 -8Q98 -8 92 0H63Q56 0 56 5Q56 13 67 24T90 39Q102 170 115 295T149 539V569Q149 602 166 629T224 657Q239 657 239 647Q239 641 234 629T224 606T216 587Q199 539 186 477T164 350T148 225T139
117T136 47Q136 40 137 37T139 31Q176 31 241 31T405 30Q427 30 460 34T520 46H521Q525 46 525 36Q525 11 502 4T448 -3Q430 -3 412 -2T379 -1Q319 -1 257 -1T133 0Q123 -8 111 -8Z" />
<glyph unicode="M" glyph-name="M" horiz-adv-x="755" d="M69 -8Q55 -8 55 9V14Q72 136 97 274T160 549Q160 552 163 558Q156 564 156 581Q156 626 171 640T200 654Q207 654 210 653L217 655Q223 657 230 657Q235 657 239 655T244 648Q244 642 238 630T226 606T216
587L204 557Q207 497 216 433T244 313T289 222T356 187Q384 187 428 218T524 320T626 509L629 539V544Q629 552 628 560T626 575Q626 607 640 632T695 657Q701 657 706 655T711 646Q711 636 703 617T693 587Q681 544 673 489T661 376T654 261T652 157Q652 120 652
92T655 47Q657 32 660 30T663 20Q663 6 655 -1T635 -8Q625 -8 618 -3T610 11Q611 125 613 233T621 444Q567 331 515 264T418 168T343 139Q304 139 275 169T226 249T192 356T173 467Q155 410 141 351T115 235T97 133T88 56Q88 43 90 37T92 23Q92 7 84 0T69 -8Z"
/>
<glyph unicode="N" glyph-name="N" horiz-adv-x="680" d="M531 -9Q513 -9 513 13L520 95Q507 136 489 162Q471 186 441 218T377 286T311 353T258 410Q218 456 207 487T195 547Q179 495 167 430T145 298T132 176T127 87Q127 77 127 64T128 39Q128 0 114 0Q104 0
95 12T86 38Q88 75 94 128T108 240T126 359T144 468T159 551Q158 556 158 560T158 569Q158 615 174 635T218 656Q228 656 234 654T241 647Q241 637 235 623T222 595T215 576Q215 546 236 512T291 441T366 364T447 282T520 197L529 185L545 332Q551 385 558 436T574
538V568Q574 590 578 610T595 643T636 656Q651 656 651 646V644Q624 582 605 497T572 319T553 139Q559 123 561 107T564 76Q564 59 561 45T554 20V14Q552 3 545 -3T531 -9Z" />
<glyph unicode="O" glyph-name="O" horiz-adv-x="796" d="M348 -18Q251 -18 188 18T93 114T62 248Q62 326 94 406T195 549Q172 539 151 528T126 516Q117 516 117 525Q117 531 130 540T163 558T202 576T233 588Q265 619 305 645T391 688T484 705Q507 705 530 698T554
667Q554 653 546 638T531 614Q629 600 689 542T749 371Q749 280 715 208T623 85T494 9T348 -18ZM285 603Q314 612 353 616T432 621Q453 621 474 620T514 617Q523 638 523 651Q523 675 485 675Q453 675 416 665T344 639T285 603ZM355 6Q414 6 475 30T587 101T671
215T703 368Q703 427 680 475T616 555T521 594Q512 584 506 580T496 576Q491 576 491 580Q491 589 500 596Q490 597 480 597T459 597Q403 597 349 589T253 569Q202 531 171 480T125 373T110 262Q110 194 136 136T216 42T355 6Z" />
<glyph unicode="P" glyph-name="P" horiz-adv-x="523" d="M99 -2Q88 -2 83 1T77 14Q77 41 81 92T93 208T110 339T130 468T149 574V576Q149 580 148 582T146 589Q146 595 149 609T154 630H148Q138 630 128 629T109 628Q87 629 87 636Q87 646 111 649T160 653Q163
670 180 681T223 692Q239 692 239 680Q234 668 231 665T223 649Q249 647 284 642T357 626T426 599T478 556T498 493Q498 459 483 428T443 370T391 326T340 299Q306 287 268 283T197 278Q173 278 157 279T135 283Q132 266 129 232T123 157T121 74Q121 49 124 33T127
17Q127 12 125 12T121 8Q119 3 113 1T99 -2ZM204 303Q218 303 232 303T256 305Q285 308 319 322T384 359T434 415T454 487Q454 522 429 547T366 588T288 614T215 626Q208 611 199 580T180 510T163 432T149 360T141 309Q144 306 163 305T204 303Z" />
<glyph unicode="Q" glyph-name="Q" horiz-adv-x="796" d="M656 -242Q616 -242 584 -221T524 -165T473 -90T424 -11Q405 -14 386 -16T348 -18Q251 -18 188 18T93 114T62 248Q62 326 94 406T195 549Q172 539 151 528T126 516Q117 516 117 525Q117 531 130 540T163
558T202 576T233 588Q265 619 305 645T391 688T484 705Q507 705 530 698T554 667Q554 653 546 638T531 614Q629 600 689 542T749 371Q749 272 709 196T604 70T460 -2Q479 -32 503 -68T555 -138T614 -192T680 -214Q706 -214 720 -200T742 -166T754 -132T763 -117Q766
-117 767 -122T768 -133Q768 -172 750 -196T706 -231T656 -242ZM285 603Q314 612 353 616T432 621Q453 621 474 620T514 617Q523 638 523 651Q523 675 485 675Q453 675 416 665T344 639T285 603ZM355 6Q369 6 382 7T410 11Q391 39 368 64T321 107T273 124Q259 124
251 116T236 98T221 89Q219 89 219 91Q219 105 232 119T263 142T298 152Q326 152 352 132T402 81T446 20Q512 40 570 86T666 204T703 368Q703 427 680 475T616 555T521 594Q512 584 506 580T496 576Q491 576 491 580Q491 589 500 596Q490 597 480 597T459 597Q403
597 349 589T253 569Q202 531 171 480T125 373T110 262Q110 194 136 136T216 42T355 6Z" />
<glyph unicode="R" glyph-name="R" horiz-adv-x="584" d="M471 -26Q443 -26 405 -2T324 60T238 141T158 224L130 249Q126 216 124 169T121 74Q121 49 124 33T127 17Q127 12 125 12T121 8Q119 3 113 1T99 -2Q88 -2 83 1T77 14Q77 38 80 79T88 172T101 278Q91 289
84 298T76 313Q76 317 82 317Q88 311 105 311Q111 357 119 405T135 497T151 572V574Q151 578 150 580T148 587Q148 593 151 607T156 628H150Q140 628 130 627T111 626Q89 627 89 634Q89 644 113 647T162 651Q166 670 181 681T223 692Q239 692 239 680Q234 668 232
664T225 647Q251 645 286 640T359 624T429 597T481 553T501 489Q501 449 478 412T421 348T356 308Q310 290 267 285T191 279H180Q163 279 163 274Q163 269 173 259Q208 225 249 183T334 102T418 36T490 6Q509 6 519 21T534 61T538 110Q538 124 537 135T535 155Q535
171 544 171Q558 171 561 151T564 115Q564 64 549 33T513 -12T471 -26ZM204 303Q218 303 232 303T256 305Q285 308 319 321T385 358T436 412T456 481Q456 487 456 493T454 507Q444 537 416 559T351 595T279 617T218 624H217Q210 609 201 579T182 509T164 431T149
360T141 309Q144 306 163 305T204 303Z" />
<glyph unicode="S" glyph-name="S" horiz-adv-x="519" d="M149 -17Q102 -17 79 -6T47 21T39 54V61Q39 69 44 82T66 96Q74 96 75 84T84 57Q100 31 125 23T188 15Q221 15 258 26T329 57T382 105T403 168Q403 200 381 221T322 258T247 288T171 323T113 372T90 445Q90
488 114 527T181 596T277 644T389 662Q432 662 453 647T481 609T489 563Q489 558 486 546T477 525T461 515Q454 515 454 528V548Q454 594 427 609T358 625Q331 625 293 616T217 587T156 539T131 473Q131 471 131 469T132 464Q137 422 162 395T225 349T302 317T378
288T435 253T457 199Q457 160 432 122T364 52T266 2T149 -17Z" />
<glyph unicode="T" glyph-name="T" horiz-adv-x="614" d="M238 -8Q214 -8 214 14Q227 153 237 281T272 541V571Q272 582 275 595T282 618H38Q28 618 28 625Q28 632 36 640T55 649H310Q324 658 346 658Q351 658 356 657T362 650Q416 650 464 650T546 651T591 652Q597
652 597 646Q597 640 588 631T559 618H349Q332 570 318 506T294 373T276 240T266 124T262 47Q264 34 266 31T269 21Q269 7 259 0T238 -8Z" />
<glyph unicode="U" glyph-name="U" horiz-adv-x="646" d="M478 -8Q454 -8 454 14Q462 100 469 182T487 345Q435 244 385 177T289 71T209 16T151 -1Q117 -1 96 25T66 95T56 193Q56 251 64 314T87 438T119 547Q113 549 113 558Q113 571 121 591T140 628T157 651Q168
659 178 662T198 666Q210 666 217 661T225 649Q225 644 221 640Q201 622 184 582T152 493T129 398T116 320Q112 281 109 246T105 180Q105 116 120 78T175 39Q207 39 256 78T378 214Q419 269 449 329T497 446T515 547V569Q515 602 532 629T590 657Q605 657 605 647V645Q585
598 569 535T540 404T519 270T507 153T503 72Q511 61 511 43Q511 -8 478 -8Z" />
<glyph unicode="V" glyph-name="V" horiz-adv-x="563" d="M184 -3Q142 -3 117 38T80 145T68 286Q68 354 75 421T96 542Q89 543 89 557Q89 596 103 620T135 657T165 669Q190 669 190 653Q190 649 187 644Q175 629 165 596T146 519T131 431T122 350T119 291Q119
218 126 161T152 72T205 39Q227 39 255 56T319 118T401 243Q427 290 451 346T493 460T522 565T533 642Q533 659 531 668T528 684Q528 688 533 693T556 699Q568 699 572 689T577 664Q577 642 567 601T541 510T504 406T464 306T425 225Q372 136 327 87T246 17T184
-3Z" />
<glyph unicode="W" glyph-name="W" horiz-adv-x="917" d="M151 -1Q117 -1 96 25T66 95T56 193Q56 251 64 314T87 438T119 547Q113 549 113 558Q113 571 121 591T140 628T157 651Q168 659 178 662T198 666Q210 666 217 661T225 649Q225 644 221 640Q201 622 184
582T152 493T129 398T116 320Q112 281 109 246T105 180Q105 116 120 78T175 39Q191 39 220 59T285 122T361 236T434 409Q439 447 446 481T462 546Q453 549 453 560Q453 583 465 598T492 620T518 628Q531 628 539 623T547 610Q547 606 543 602Q527 586 514 551T490
469T475 368T469 263Q469 203 477 152T504 70T552 39Q585 39 626 83T721 237Q753 301 776 371T813 504T826 613Q826 627 825 636T824 651Q824 658 827 663T844 669Q861 669 867 652T874 610Q874 576 863 527T833 423T794 318T755 232Q715 149 673 98T594 24T531
0Q491 0 467 34T432 125T421 249Q421 285 424 321Q389 226 349 164T271 65T201 14T151 -1Z" />
<glyph unicode="X" glyph-name="X" horiz-adv-x="669" d="M11 -16Q0 -16 0 -3Q0 2 3 8Q16 39 46 78T115 160T193 240T265 308Q236 376 211 444T158 589Q154 599 153 608T151 625Q151 645 169 649T200 654Q211 654 227 648T244 637Q244 633 236 631T227 628Q214
625 214 600Q214 577 223 542T247 468T276 395T300 340Q325 363 360 393T432 458T500 527T552 591T572 642V654Q572 664 578 664Q583 664 589 658T596 629Q596 599 568 560T496 478T404 391T314 311Q335 263 361 214T413 122T465 54T512 28Q533 28 551 46T584 92T610
147T629 193T639 212Q646 212 646 197Q646 195 646 192T645 187Q627 111 596 69T533 10T477 -7Q449 -7 418 30T354 127T289 256L278 278Q256 258 227 229T165 166T105 100T56 41T29 1Q22 -16 11 -16Z" />
<glyph unicode="Y" glyph-name="Y" horiz-adv-x="484" d="M84 0Q78 0 73 2T67 10Q67 15 73 27T85 51T95 69Q110 101 127 153T145 261Q145 266 145 269T144 276Q116 350 90 425T37 584Q33 595 32 605T30 623Q30 643 46 648T75 654Q85 654 101 651T117 640Q117 635
111 631T106 626Q93 623 93 598Q93 573 103 534T129 451T160 370T185 309Q194 317 221 341T283 401T353 477T414 555T448 625Q453 644 460 655T485 667Q492 667 500 664T508 647Q508 634 492 608T451 552T403 493Q353 432 302 383T197 284Q191 265 184 233T171
168T164 113Q162 80 157 55T135 15T84 0Z" />
<glyph unicode="Z" glyph-name="Z" horiz-adv-x="556" d="M486 -39Q482 -39 482 -34T481 -29Q491 -18 495 -8T499 9Q499 28 478 36T426 44Q349 44 272 33T111 10Q84 6 63 1T35 -5Q34 -5 29 3T24 34Q24 45 27 60Q31 79 59 115T130 197T223 295T323 396T414 489T480
562T505 605Q505 611 466 616T368 621Q331 621 287 618T207 609T159 593Q161 592 164 586T168 574Q167 566 161 566Q157 566 147 574T129 593T120 612Q120 626 144 634T207 646T289 651T370 652Q422 652 466 651T538 648Q550 645 557 633T565 606Q565 595 560 587Q545
564 512 527T435 445T341 351T243 254T154 162T86 84T53 29Q64 31 101 39T192 57T305 74T416 82Q444 82 470 80T515 69T533 41Q533 24 524 6T504 -26T486 -39Z" />
<glyph unicode="[" glyph-name="bracketleft" horiz-adv-x="421" d="M99 -13Q84 -13 65 -12T32 -3T13 18Q12 24 12 31T11 45Q11 81 21 132T49 244T89 366T133 484T177 584T213 651Q223 665 236 674T271 684H398Q408 684 410 677Q410 676 410 675T411 672Q411 670
409 664Q407 658 402 657T379 656H297Q264 656 233 594T150 392Q128 331 108 270T74 156T61 66Q61 59 61 53T63 42Q67 24 93 18T162 11Q180 11 207 12T253 14Q259 14 259 9V6Q259 0 255 -6T244 -13H99Z" />
<glyph unicode="\" glyph-name="backslash" horiz-adv-x="604" d="M586 -93Q577 -93 576 -90T575 -77T568 -48Q557 -17 525 35T448 152T349 289T242 429T138 558T52 660Q45 667 45 678Q45 686 50 692T67 698Q73 698 102 667T174 581T269 460T373 322T470 183T548
61T592 -26Q597 -39 599 -51T602 -73Q602 -93 586 -93Z" />
<glyph unicode="]" glyph-name="bracketright" horiz-adv-x="430" d="M33 -17Q23 -17 22 -10Q22 -9 22 -8T21 -5Q21 -3 23 3Q25 9 29 10T52 11H134Q167 11 199 73T282 275Q304 336 324 396T357 510T370 599Q370 607 370 613T368 625Q364 643 339 649T270 656Q252
656 224 655T178 653Q174 653 172 658V661Q172 667 176 673T187 680H332Q348 680 366 678T400 670T418 649Q420 643 420 636T420 621Q420 585 410 534T382 422T342 301T298 183T254 84T218 16Q209 3 195 -7T160 -17H33Z" />
<glyph unicode="^" glyph-name="asciicircum" horiz-adv-x="334" d="M53 453Q50 453 50 456Q50 459 53 463Q55 466 70 481T106 513T144 544T167 559Q171 558 186 546T221 516T257 485T277 466Q281 462 281 458Q281 454 277 454Q274 454 273 455Q263 461 241 475T196
504T162 527Q154 521 137 509T101 484T68 462T53 453Z" />
<glyph unicode="_" glyph-name="underscore" horiz-adv-x="328" d="M1 -17L-2 -15V1L1 4H339L341 1V-15L339 -17H1Z" />
<glyph unicode="`" glyph-name="grave" horiz-adv-x="355" d="M274 540Q271 540 269 541Q249 552 220 567T165 595T123 615Q116 618 116 628Q116 636 121 644T135 653Q140 653 144 650Q176 629 206 606T257 566T277 543Q277 540 274 540Z" />
<glyph unicode="a" glyph-name="a" horiz-adv-x="329" d="M30 -3Q6 -3 6 33Q6 61 17 102T46 189T85 273T129 338T171 363H174L185 371Q190 377 197 379T213 381Q233 381 255 373T285 365Q292 365 295 373T311 381Q325 381 330 375T336 359Q336 345 328 327T315
296Q314 292 306 290T296 283Q280 237 267 190T247 107T240 64Q240 39 254 39Q266 39 280 49T307 73T330 96T340 107Q342 107 342 103Q342 99 339 91T332 80Q322 71 301 53T256 18T214 2Q193 2 189 27Q189 45 195 73T208 132T222 182Q207 162 184 131T133 70T78
18T30 -3ZM62 44Q72 44 88 57T124 92T161 134T191 171T207 192Q223 218 238 248T264 304T274 340Q274 346 269 346H266Q256 346 246 348T221 350Q207 350 191 346Q182 344 166 322T130 265T93 193T64 119T52 61Q52 44 62 44Z" />
<glyph unicode="b" glyph-name="b" horiz-adv-x="292" d="M100 -8Q59 -8 39 11L35 2Q34 -1 29 -1Q21 -1 10 10T-2 39Q-2 54 22 115Q26 126 31 127T39 134Q78 235 122 357T210 631Q211 631 218 637T236 649T253 655Q263 655 263 640Q259 624 245 585T212 493T172
384T131 276T96 187Q106 201 124 225T164 277T210 329T255 369T290 385Q310 385 310 348V341Q309 325 304 303T291 251Q313 262 321 262Q324 262 324 260Q324 256 312 246T286 230Q270 178 253 134T210 60Q203 52 187 41T153 18T120 0T100 -8ZM91 132Q126 161 169
186T244 228Q255 257 258 279T262 315Q262 336 252 336Q236 336 193 281T91 132ZM107 24Q131 24 152 44T190 95T218 155T236 206Q195 184 154 161T84 107Q76 91 70 77T58 51Q82 24 107 24Z" />
<glyph unicode="c" glyph-name="c" horiz-adv-x="231" d="M65 -8Q39 -8 22 9T4 63Q4 99 17 143T50 230T90 303T127 341Q158 352 175 363T217 375Q237 375 250 365T264 328Q264 324 264 321T263 312Q260 294 251 284T234 274Q222 274 222 292Q222 302 226 314T230
337Q230 353 213 353Q204 353 189 345T159 325T137 307Q129 299 114 270T84 202T57 125T46 59Q46 22 75 22Q107 22 134 39T182 79T217 119T233 138Q238 136 238 131Q238 121 224 99T185 52T129 10T65 -8Z" />
<glyph unicode="d" glyph-name="d" horiz-adv-x="339" d="M26 -7Q5 -7 5 23Q5 49 17 90T48 179T90 267T135 335T176 362H180Q191 362 196 369T217 377Q237 377 260 369T289 361Q289 361 289 361T290 362Q298 384 309 413T332 472T352 526T364 562Q353 562 353
574Q353 585 359 601T373 630T383 647Q387 655 399 655Q407 655 414 653T426 648Q429 647 429 639Q429 626 419 596T394 527T361 442T328 353Q329 354 330 354Q334 354 338 347T343 334Q343 330 340 329T333 328Q329 328 325 329T319 331Q312 314 302 285T280 221T260
153T244 96T238 61Q238 38 251 38Q264 38 278 48T305 73T327 98T340 109Q343 109 343 104Q343 99 340 92T336 84Q329 77 314 64T279 37T241 12T208 2Q201 2 195 7T189 23Q189 43 196 74T212 137T227 188Q217 174 199 150T158 99T111 48T64 9T26 -7ZM62 43Q73 43
90 58T127 94T161 132T181 156Q212 190 232 229T265 300T283 339Q283 344 263 347T224 350Q207 350 199 348Q191 346 174 323T136 265T96 191T65 117T52 59Q52 43 62 43Z" />
<glyph unicode="e" glyph-name="e" horiz-adv-x="253" d="M86 -10Q74 -10 59 -5T32 15T20 57Q20 68 23 83Q33 133 42 159T54 201Q51 202 45 206T39 217Q39 224 45 226T56 228H63Q71 245 80 265T109 319Q126 351 153 361T216 372Q250 372 263 311Q269 280 269 261Q269
237 254 223T216 202T171 193T136 190Q123 190 114 190T100 191Q85 153 76 118T67 59Q67 19 97 19Q115 19 134 35T172 72T203 109T220 125Q227 125 227 117Q227 103 211 82T172 39T125 4T86 -10ZM149 217Q187 217 206 225T227 263Q227 304 217 321T197 338Q185
338 172 324T146 289T123 250T109 219Q114 219 125 218T149 217Z" />
<glyph unicode="f" glyph-name="f" horiz-adv-x="210" d="M-103 -207Q-138 -207 -154 -194T-175 -162T-180 -127Q-180 -98 -172 -75T-156 -51Q-152 -51 -151 -57Q-152 -64 -152 -71T-153 -85Q-153 -132 -135 -159T-91 -187Q-68 -187 -43 -163T4 -84Q17 -52 33
-3T67 102T100 208T126 296T140 344Q136 343 113 342T73 340Q50 340 50 349Q50 357 63 366T84 375H148Q151 384 158 411T176 472T196 534T211 575Q228 611 247 629T289 653T336 660T386 663Q395 662 398 655T402 640Q402 627 396 613T382 599Q380 599 376 609T361
630T331 640Q312 640 293 628T261 584Q243 538 226 486T193 375H291Q319 375 319 369Q319 363 305 359T268 353T224 349T185 348Q182 341 173 311T152 237T125 147T98 56T76 -16Q52 -92 21 -133T-43 -191T-103 -207Z" />
<glyph unicode="g" glyph-name="g" horiz-adv-x="293" d="M108 65Q80 65 68 81T55 132Q55 174 69 217T108 297T161 356T221 378Q225 378 228 378T236 376Q236 390 240 401T262 412Q280 412 285 400T291 366Q291 355 290 342T289 317Q292 315 301 309T310 294Q310
291 309 289Q307 286 303 286T295 285H286Q284 276 281 260T276 228T270 206Q245 142 200 104T108 65ZM122 94Q138 94 159 108T201 149T235 211T249 289Q240 291 238 300T236 321T233 341T222 350Q204 350 188 337T159 303T137 263T122 231Q114 209 106 179T97
125Q97 94 122 94ZM0 -350Q-31 -350 -52 -339T-73 -297Q-73 -267 -58 -225T-20 -141T24 -64T58 -16Q60 -14 65 -11T78 -6Q65 2 52 8T38 23Q38 34 47 43T67 53H71Q101 42 131 15T185 -47T225 -121T240 -194Q240 -199 240 -204T239 -214Q235 -241 210 -265T149 -308T73
-339T0 -350ZM2 -325Q27 -325 59 -316T121 -291T172 -259T192 -227V-214Q192 -176 178 -140T142 -72T95 -20Q85 -36 62 -68T15 -140T-27 -218T-45 -284Q-45 -325 2 -325Z" />
<glyph unicode="h" glyph-name="h" horiz-adv-x="310" d="M179 -46Q168 -46 161 -38T154 -9Q154 20 165 60T193 144T226 227T254 293T266 328Q266 330 265 330Q261 330 247 315Q190 251 156 200T102 110T71 46T48 7T17 -6Q8 -6 8 4Q8 13 13 24Q59 142 92 252T165
483Q167 490 167 494T168 501Q168 506 167 508T166 514Q166 518 169 527Q184 568 195 591T220 623T257 632Q271 632 272 623Q217 511 171 388T95 155Q106 172 125 201T168 262T219 323T272 370T320 388Q341 388 341 374Q341 365 334 354Q312 318 287 270T239 171T202
74T187 -5Q187 -19 195 -19Q200 -19 213 -10T230 -1Q235 -1 235 -7Q235 -19 217 -32T179 -46Z" />
<glyph unicode="i" glyph-name="i" horiz-adv-x="168" d="M184 449Q170 449 167 459T164 482Q164 497 179 513T214 541T249 553Q254 553 255 550Q255 539 247 529T228 509T212 486Q208 476 202 464T184 449ZM37 -6Q18 -6 18 12Q18 21 22 33Q44 96 58 136T80 200T91
236T94 257Q94 262 93 264T91 270Q91 274 94 283Q115 344 132 366T183 388Q197 388 198 379Q188 360 166 317T118 211T74 65Q73 62 73 57Q73 45 83 45Q89 45 102 52T129 67T150 75Q157 75 158 71Q158 65 143 53T107 27T67 4T37 -6Z" />
<glyph unicode="j" glyph-name="j" horiz-adv-x="201" d="M192 452Q187 452 183 460T176 479T172 493Q172 508 189 523T226 548T257 558Q271 558 271 549Q271 540 253 530Q236 520 228 502T212 468T192 452ZM-78 -265Q-116 -265 -134 -250T-158 -214T-163 -173Q-163
-147 -157 -128T-144 -109Q-140 -109 -139 -115V-125Q-139 -180 -119 -213T-70 -247Q-48 -247 -26 -223T13 -146Q34 -78 51 -21T85 97T122 239Q124 245 124 249T124 256Q124 262 123 264T121 271Q121 273 121 276T123 283Q139 344 154 366T203 388Q216 388 219
379Q176 276 143 156T84 -74Q67 -150 39 -191T-20 -249T-78 -265Z" />
<glyph unicode="k" glyph-name="k" horiz-adv-x="269" d="M6 -21Q-1 -21 -1 -12Q-1 -8 4 7Q51 125 87 244T164 483Q168 495 168 501Q168 506 167 508T165 514Q165 518 168 527Q183 568 194 591T219 623T256 632Q270 632 271 623Q234 548 205 481T152 345T107 194Q107
194 126 210T172 251T229 301T279 346T306 369Q320 380 331 384T347 389Q353 389 353 385Q353 374 326 353Q292 333 261 307T206 254T167 206T153 177Q153 157 162 133T186 84T214 40T239 13Q258 -3 258 -13Q258 -19 249 -19Q232 -19 213 -2T176 40T142 92T115
139T99 167Q96 159 89 138T74 91T60 45T54 17Q54 13 45 4T25 -13T6 -21Z" />
<glyph unicode="l" glyph-name="l" horiz-adv-x="179" d="M36 -6Q17 -6 17 12Q17 22 21 33Q50 112 72 184T117 330T164 483Q166 490 166 494T167 501Q167 506 166 508T164 515Q164 518 167 527Q187 589 203 610T254 632Q268 632 269 623Q242 567 214 496T158 349T109
200T73 65Q72 62 72 57Q72 45 82 45Q89 45 102 52T128 67T148 75Q154 75 157 71Q157 65 143 53T107 27T67 4T36 -6Z" />
<glyph unicode="m" glyph-name="m" horiz-adv-x="488" d="M379 -44Q366 -44 358 -35T350 -2Q350 23 359 54T381 117T407 179T430 230Q443 260 452 283T461 317Q461 324 456 324Q453 324 445 319Q418 301 380 261T306 161T249 24Q247 16 228 6T196 -5Q184 -5 184
4Q184 5 184 6T185 8Q194 51 210 107T245 220T279 315Q284 328 284 333Q284 338 281 338Q276 338 266 327Q193 243 151 179T86 71T46 5T6 -17Q-2 -17 -2 -9Q-2 2 7 20T19 44Q29 68 39 97T58 156T75 207T85 239Q89 251 89 257Q89 262 88 264T86 270Q86 274 89 283Q110
344 127 366T177 388Q191 388 192 379Q185 364 172 336T143 273T114 203T94 139Q107 159 128 192T177 261T234 331T293 384T347 405Q355 405 361 403T367 392Q367 383 360 372Q317 300 291 240T250 113Q274 160 295 195T340 260T397 319T476 381Q483 386 498 391T526
396Q546 396 546 382Q546 375 540 363Q514 317 484 258T430 136T394 18Q391 8 391 -2Q391 -16 400 -16Q406 -16 421 -7T440 3Q445 3 445 -3Q445 -15 424 -29T379 -44Z" />
<glyph unicode="n" glyph-name="n" horiz-adv-x="326" d="M208 -34Q194 -34 187 -25T179 9Q179 42 190 83T218 167T252 249T279 315Q284 328 284 335Q284 340 281 340Q276 340 259 322Q245 306 221 275T168 204T114 126T72 57T54 15Q54 11 45 3T25 -11T5 -17Q-2
-17 -3 -10Q-2 -11 6 9T25 63T49 131T71 196T85 239Q89 251 89 257Q89 262 88 264T86 270Q86 274 89 283Q104 324 115 347T140 379T177 388Q191 388 192 379Q185 364 172 336T143 273T114 203T94 139Q106 159 127 191T176 261T233 330T292 384T347 405Q355 405
361 403T367 392Q367 383 360 372Q336 333 312 283T267 182T234 86T221 12Q221 -6 229 -6Q232 -6 240 -1T256 9T268 14Q274 14 274 8Q274 0 264 -10T238 -27T208 -34Z" />
<glyph unicode="o" glyph-name="o" horiz-adv-x="261" d="M79 -19Q54 -19 38 1T21 65Q21 75 22 86T25 111Q28 128 37 160T62 231T96 303T139 360T190 382H197Q197 395 205 405T227 416Q238 415 243 398T251 358T262 318T284 298Q303 295 303 287Q303 279 284 269Q277
266 271 265T261 264Q261 201 243 149T197 60T137 2T79 -19ZM94 11Q112 11 135 31T181 88T218 172T233 272Q225 277 218 293T204 323T193 338Q179 338 163 319T132 270T104 207T82 146T70 102Q68 89 67 79T66 60Q66 11 94 11Z" />
<glyph unicode="p" glyph-name="p" horiz-adv-x="298" d="M-56 -276Q-68 -276 -68 -251Q-68 -237 -61 -210T-41 -147T-16 -76T10 -7T29 45Q26 53 26 62Q26 72 31 82T48 99Q57 128 69 166T94 241T114 307T126 346Q126 348 115 348T104 355Q104 362 112 366T127
372T135 376Q131 380 131 384Q131 394 140 404T162 423T182 431Q190 431 190 421Q190 418 189 413T185 402L174 378Q215 350 236 307T268 215Q281 219 295 224T322 232Q325 233 328 233T333 233Q340 233 340 230Q340 222 329 217T302 207T272 197Q275 181 276 167T277
140Q277 84 257 51T206 5T144 -9Q121 -9 96 -3T54 17Q35 -38 17 -90T-16 -186Q-17 -188 -17 -190Q-17 -195 -14 -199T-10 -211Q-10 -216 -16 -232T-33 -262T-56 -276ZM99 137Q122 153 152 168T224 199Q213 257 194 293T165 329Q162 329 156 311T140 263T120 200T99
137ZM134 16Q171 16 193 33T224 76T234 131Q234 144 233 157T229 183Q220 183 200 174T158 150T116 123T88 102L66 39Q86 26 102 21T134 16Z" />
<glyph unicode="q" glyph-name="q" horiz-adv-x="311" d="M149 -224Q129 -224 126 -199Q126 -179 135 -142T158 -60T189 30T220 114T244 177Q228 157 202 126T144 65T84 13T33 -8Q10 -8 10 23Q10 50 23 92T59 181T107 269T158 337T204 363H207L218 371Q223 377
230 379T246 381Q266 381 288 373T317 365Q324 365 328 373T345 381Q372 381 372 356Q372 342 365 325T353 296Q352 292 344 290T334 283Q290 178 251 77T185 -137Q181 -153 181 -165Q181 -183 192 -183Q204 -183 219 -173T248 -148T274 -123T289 -112Q294 -112
294 -119Q294 -125 291 -132T285 -140Q277 -147 261 -160T224 -188T184 -213T149 -224ZM74 44Q84 44 101 57T139 92T179 134T212 171T229 192Q247 219 264 250T293 306T305 341Q305 346 301 346H298Q288 346 278 348T253 351Q246 351 239 350T223 346Q216 345 198
322T157 264T113 190T79 116T65 58Q65 44 74 44Z" />
<glyph unicode="r" glyph-name="r" horiz-adv-x="270" d="M15 -6Q9 -6 6 -1Q6 25 12 47T29 74Q43 126 50 154T60 197T65 219T70 240Q72 245 72 249T72 256Q72 264 70 265T68 273Q68 275 68 277T70 284Q86 346 102 369T151 393Q163 393 165 385Q160 371 144 333T109
243T78 140Q86 155 103 184T144 249T195 315T247 367T294 388Q306 388 312 380T318 358Q318 345 312 328T295 295Q288 285 275 274T253 263Q247 263 247 269Q247 274 252 285T261 309T266 330Q266 337 261 337Q243 337 216 307T157 229T99 125T56 18Q50 10 37 2T15
-6Z" />
<glyph unicode="s" glyph-name="s" horiz-adv-x="254" d="M32 -17Q24 -17 19 -11T14 3Q14 15 25 15Q37 15 61 20T112 33T158 54T177 80Q177 93 163 106T127 134T85 163T49 194T34 230Q34 238 36 246T46 262Q76 300 111 323T178 359T225 378Q230 380 237 381T251
383Q265 383 276 375T287 343Q286 333 279 318T262 286T241 260T224 249Q220 249 220 255Q220 264 225 278T236 305T242 327Q242 342 224 342Q217 342 209 341T191 337Q185 336 168 329T132 309T99 282T85 248Q85 237 90 228Q102 204 123 191T165 167T200 144T215
108Q215 84 195 62T145 22T84 -6T32 -17Z" />
<glyph unicode="t" glyph-name="t" horiz-adv-x="231" d="M78 -8Q65 -8 60 0T55 21Q55 41 64 68T79 115Q101 184 116 244T143 344Q139 343 116 342T76 340Q53 340 53 349Q53 357 66 366T87 375H151L155 389Q158 401 158 406Q158 412 156 414T154 420Q154 423 157
432Q170 474 181 497T206 529T242 538Q257 538 258 529Q252 516 235 475T197 375H294Q322 375 322 369Q322 363 308 359T271 353T227 349T188 348Q175 310 160 262T130 165T107 78Q102 58 102 49Q102 32 113 32Q126 32 141 42T171 67T197 92T213 103Q218 103 218
97Q218 91 215 84T207 75Q199 68 183 55T148 27T111 2T78 -8Z" />
<glyph unicode="u" glyph-name="u" horiz-adv-x="333" d="M170 -63Q157 -63 157 -52Q157 -42 172 -32T194 -5Q197 3 206 33T226 103T247 179T262 234Q251 217 229 188T178 125T121 61T65 11T21 -9Q7 -9 7 9Q7 24 18 52Q24 66 36 93T62 151T85 210T95 253Q95 260
93 262T91 270Q91 272 91 274T93 281Q104 322 113 345T137 377T175 386Q189 386 192 377Q188 367 175 336T145 262T111 178T83 106T72 68Q72 64 75 64Q79 64 85 69T99 80Q158 125 201 181T275 296Q276 311 282 334T305 375T347 393Q358 393 359 384Q354 368 339
327T306 238Q298 214 288 182T269 116T253 58T247 25Q247 22 249 22Q258 23 273 35T306 59T334 72Q336 72 339 71T342 67Q342 61 328 50T295 27T259 5T236 -9Q226 -17 215 -30T192 -53T170 -63Z" />
<glyph unicode="v" glyph-name="v" horiz-adv-x="349" d="M57 -11Q51 -11 51 -6Q51 4 54 6T63 12T73 35T82 95T89 216Q89 231 87 236T83 243T79 253T77 278Q77 324 86 344T126 365Q141 365 145 356Q135 278 125 199T107 41Q113 47 135 65T185 115T242 190T289
295Q290 298 290 301T291 307Q291 317 287 324T283 340Q283 348 293 363T316 390T339 403Q350 403 350 382Q350 371 347 354Q338 304 311 253T249 154T176 70T106 11T57 -11Z" />
<glyph unicode="w" glyph-name="w" horiz-adv-x="493" d="M83 -19Q73 -19 61 -5T49 20Q49 23 50 24Q70 74 81 119T92 214Q92 282 78 307T50 332Q47 332 37 324T20 316Q17 316 17 319Q17 329 29 343T58 368T83 379Q100 379 109 358T121 304T124 238Q124 213 123
192T121 157Q127 168 141 193T175 249T215 308T251 355T278 374Q286 385 298 385Q317 385 317 363Q317 359 316 355T315 346Q315 342 317 334T324 314Q331 293 339 259T355 191T368 134T375 110Q380 110 392 127T420 172T451 232T476 296T488 349Q488 358 484 367T480
386Q480 398 490 409H491Q502 418 508 418Q518 418 523 408T531 384T534 361Q534 357 523 332T494 269T453 188T403 103Q391 84 385 73T376 52T370 31T359 -4Q355 -11 348 -11Q338 -11 328 1T317 25Q317 31 317 37T318 51Q318 106 305 178T263 321Q248 312 227
282T182 210T139 125T107 45T94 -8Q91 -19 83 -19Z" />
<glyph unicode="x" glyph-name="x" horiz-adv-x="282" d="M-66 -111Q-75 -111 -75 -93Q-75 -77 -57 -49T-9 15T51 86T108 153T148 203Q147 206 144 223T133 262T113 299T84 315Q77 315 70 314T58 313Q45 313 44 325Q44 327 50 332T65 341T76 345Q88 346 96 354T111
370T122 378H123Q133 378 143 360T163 317T178 270T186 239Q192 250 211 273T254 322T297 366T324 384Q335 384 335 369Q335 359 331 349T322 335Q313 332 312 332Q311 332 310 332T309 333Q307 333 297 324T275 302T252 279T240 265Q220 245 206 231T192 214Q192
212 197 194T210 149T225 94T238 41T244 6Q244 0 238 -12T224 -34T205 -44Q202 -44 197 -20T186 42T173 116T157 177Q105 108 52 47T-45 -91Q-49 -98 -55 -104T-66 -111Z" />
<glyph unicode="y" glyph-name="y" horiz-adv-x="317" d="M-71 -330Q-87 -330 -87 -311Q-87 -286 -70 -249T-26 -171T26 -93T70 -29T91 2Q97 20 99 43T102 92Q102 142 96 189T77 267T44 298Q40 298 36 298T30 297Q26 297 26 302Q26 305 30 311T48 326Q53 330 59
340T73 359T86 368Q101 368 113 338T132 260T140 160Q140 148 140 136T139 112Q139 96 147 96Q157 96 176 117T217 170T261 236T295 298T309 337Q309 343 304 343Q301 343 297 341T289 339Q284 339 281 344Q281 353 295 363T328 381T357 389Q362 389 364 388Q367
384 367 377Q367 362 353 333T315 269T265 196T212 125T167 67T139 33Q139 40 137 30T131 2T122 -30T110 -45Q105 -45 100 -43T92 -40Q18 -140 -12 -194T-43 -272Q-43 -284 -39 -290T-35 -303Q-35 -314 -47 -322T-71 -330Z" />
<glyph unicode="z" glyph-name="z" horiz-adv-x="303" d="M259 -10Q252 -10 249 -7T246 0Q219 2 195 3T150 5Q101 5 67 2T14 -2Q0 -2 -5 4T-11 21Q-11 33 -5 45T8 65Q29 86 61 117T129 185T202 262T270 339H216Q181 339 157 337T125 325Q123 323 116 314T101 296T91
287Q82 287 82 294Q82 335 104 354T184 373Q192 373 207 373T241 374Q263 374 284 373T319 367T334 355Q334 349 333 345Q328 325 320 318T304 309T296 304Q275 287 241 255T170 185T100 111T49 48Q47 46 47 42Q47 33 67 30T115 26Q144 26 176 28T234 34T270 40Q281
43 287 43Q297 43 297 36Q297 25 286 8T259 -10Z" />
<glyph unicode="{" glyph-name="braceleft" horiz-adv-x="323" d="M200 -122Q172 -122 145 -117T101 -96T84 -46Q84 -5 97 33T124 110T137 189Q137 221 122 235T87 254T52 260T36 267Q36 275 54 280Q98 285 126 294T172 325T204 393Q214 427 221 461T239 528T272
585T329 625T423 640H424Q429 640 429 631Q429 620 419 619Q365 619 336 601T292 551T266 474Q256 434 239 390T193 311T115 265Q141 255 157 234T174 181Q174 142 162 105T136 30T123 -47Q123 -77 138 -88T173 -102T208 -104T223 -110Q223 -114 217 -118T200 -122Z"
/>
<glyph unicode="|" glyph-name="bar" horiz-adv-x="219" d="M109 -88Q100 -88 100 -73Q100 -70 102 -62Q105 -51 106 -29T108 20T109 71T109 111V444Q109 507 107 541T103 591T101 616Q101 623 107 624T118 626Q138 626 146 610T156 574T158 540Q158 517 157 467T154
353T148 220T142 91T133 -15T123 -75Q116 -88 109 -88Z" />
<glyph unicode="}" glyph-name="braceright" horiz-adv-x="425" d="M32 -121Q27 -121 27 -112Q27 -103 37 -100Q92 -100 121 -82T164 -32T190 45Q200 85 217 129T264 209T341 254Q315 264 299 285T282 338Q282 377 295 414T320 489T333 565Q333 595 318 607T283
621T248 623T232 629Q232 633 239 637T256 641Q285 641 311 636T354 615T371 565Q371 525 358 486T332 409T318 330Q318 298 333 284T369 265T404 259T420 252Q420 244 402 239Q358 235 330 226T283 194T252 126Q242 92 235 58T217 -9T184 -66T127 -106T33 -121H32Z"
/>
<glyph unicode="~" glyph-name="asciitilde" horiz-adv-x="304" d="M184 437Q167 437 151 444T118 457T85 464Q70 464 61 458T45 445T31 438Q29 438 29 440Q29 445 38 454T57 471T72 481Q88 491 108 491Q133 491 156 481T203 470Q217 470 227 475T245 491Q251
491 251 487Q251 472 236 461T204 444T184 437Z" />
<glyph unicode="&#xa0;" glyph-name="uni00A0" horiz-adv-x="200" />
<glyph unicode="&#xa1;" glyph-name="exclamdown" horiz-adv-x="202" d="M114 345Q111 345 111 347Q120 394 126 414T158 435Q169 435 171 422T174 397V396Q174 384 162 372T135 353T114 345ZM-113 -250Q-125 -250 -134 -248T-143 -239Q-143 -237 -141 -233Q-136
-226 -120 -197T-80 -125T-33 -32T12 63T46 146T59 198Q59 206 56 209T52 216Q52 224 65 231T88 239Q90 239 91 239T93 238Q98 234 98 222Q98 204 88 171T61 97T28 17T-5 -57T-28 -110Q-32 -120 -41 -137T-59 -172T-75 -204T-82 -224Q-82 -229 -74 -229T-64 -236Q-64
-242 -80 -246T-113 -250Z" />
<glyph unicode="&#xa2;" glyph-name="cent" horiz-adv-x="231" d="M96 -2Q86 -2 83 9T80 33Q80 62 91 103T121 194H115Q93 194 78 205T62 244Q62 272 74 305T104 369T141 424T175 453Q192 458 206 465T232 476Q258 539 272 572T295 618T311 631Q312 631 313 631T315
630Q319 628 319 622Q319 619 316 611Q303 585 289 551T257 478Q275 477 287 470T299 443Q299 425 290 415T271 404Q261 404 261 417Q261 424 264 433T268 449Q268 462 250 462Q225 403 200 340T153 219Q185 228 210 248T252 287T271 305Q275 305 275 300Q275 291
258 271T211 230T146 199Q126 143 114 101T102 40Q102 24 109 21T116 16Q116 4 106 1T96 -2ZM119 215H128Q150 271 175 335T223 452Q211 446 200 439T184 428Q177 422 163 400T135 349T110 291T100 242Q100 216 119 215Z" />
<glyph unicode="&#xa3;" glyph-name="sterling" horiz-adv-x="817" d="M604 -83Q542 -83 481 -70T361 -37T246 2Q218 12 182 22T120 32Q101 32 87 23T72 -13Q72 -18 63 -18Q56 -18 48 -11T40 15Q40 67 106 67Q129 67 152 62T219 42Q228 53 243 80T276 145T311
223T340 300Q328 300 306 300T262 299Q248 299 238 301T227 312Q227 326 239 328T265 330Q285 330 306 330T346 329Q356 352 368 394T399 485T446 578T515 650T615 679Q659 679 688 652T717 583Q717 546 701 528T669 510Q664 510 660 511T655 516Q655 519 664 526T683
548T692 586Q692 618 669 639T602 660Q564 660 535 637T483 575T443 491T412 404T386 329Q396 329 421 329T474 328T522 323T543 311Q543 300 508 300Q483 300 457 300T410 301T380 302Q369 275 354 239T322 163T285 89T244 31Q280 14 326 0T424 -25T524 -40T613
-46Q644 -46 675 -34T727 1T748 60Q748 90 739 107T720 133T710 144Q710 153 722 153Q739 153 756 130T773 67Q773 17 750 -16T688 -66T604 -83Z" />
<glyph unicode="&#xa4;" glyph-name="currency" horiz-adv-x="479" d="M49 90L151 186Q116 208 116 251Q116 286 134 314T183 360L130 441L159 450Q161 444 171 421T198 368Q237 385 282 385Q317 385 342 373Q370 400 389 421T414 448L437 439Q430 432 407 412T354
365Q383 344 383 304Q383 264 361 234T303 187Q325 152 343 124T366 91H333Q331 98 318 122T285 179Q256 169 221 169Q186 169 163 180L81 90H49ZM233 198Q285 198 315 227T345 295Q345 322 328 341T273 360Q221 360 188 334T155 266Q155 238 174 218T233 198Z"
/>
<glyph unicode="&#xa5;" glyph-name="yen" horiz-adv-x="520" d="M84 0Q78 0 73 2T67 10V12Q84 43 97 71T122 141Q106 140 92 140T63 139Q53 139 45 139T29 140Q27 140 25 140T19 139Q5 139 -1 146T-8 160Q-8 171 3 178T24 185Q36 185 48 182T67 178Q83 178 99
178T132 176Q131 176 136 195T142 229Q126 228 111 228T81 227Q71 227 63 227T46 228Q44 228 42 228T36 227Q22 227 16 234T9 248Q9 259 20 266T41 273Q53 273 65 270T84 266Q99 266 114 266T145 264Q145 267 145 270T144 276Q116 350 90 425T37 584Q33 595 32
605T30 623Q30 643 46 648T75 654Q85 654 101 651T117 640Q117 635 111 631T106 626Q93 623 93 598Q93 573 103 534T129 451T160 370T185 309Q194 317 221 341T283 401T353 477T414 555T448 625Q453 644 460 655T485 667Q492 667 500 664T508 647Q508 634 492 608T451
552T403 493Q353 432 302 383T197 284Q196 280 194 274T190 262H224Q234 262 253 262T314 265Q339 265 339 259Q339 254 317 249T259 239T183 232Q180 218 177 203T172 174Q184 174 198 174T227 175Q227 175 240 175T270 176T297 177Q322 177 322 171Q322 166 300
161T242 151T167 144Q162 113 160 87T152 42T131 11T84 0Z" />
<glyph unicode="&#xa6;" glyph-name="brokenbar" horiz-adv-x="219" d="M153 322L109 324V444Q109 507 107 541T103 591T101 616Q101 623 107 624T118 626Q138 626 146 610T156 574T158 540Q158 514 157 455T153 322ZM109 -91Q100 -91 100 -76Q100 -61 102 -45T107
-3T110 62Q110 98 110 150T109 277L151 278Q148 205 145 139T137 20T126 -61T109 -91Z" />
<glyph unicode="&#xa7;" glyph-name="section" horiz-adv-x="626" d="M97 -250Q49 -250 26 -239T-6 -212T-14 -179V-172Q-14 -164 -9 -150T13 -136Q21 -136 21 -149T31 -176Q46 -202 72 -210T136 -218Q171 -218 208 -207T279 -176T333 -127T354 -63Q354 -31 331
-10T272 27T196 58T119 93T60 142T37 216Q37 274 82 325T196 405Q186 426 186 454Q186 497 211 536T279 606T376 655T488 673Q531 673 552 658T581 619T589 573Q589 568 586 556T577 535T561 525Q554 525 554 538V559Q554 605 526 620T457 636Q429 636 391 626T315
597T253 549T228 482Q228 480 228 478T229 473Q234 430 260 403T323 357T400 325T476 296T534 260T557 206Q557 170 535 133T474 65T388 15Q397 5 402 -7T408 -33Q408 -73 383 -111T314 -181T214 -231T97 -250ZM369 33Q403 45 433 66T483 116T503 175Q503 208 481
228T424 264T349 293T273 328T211 380Q178 368 148 348T98 302T79 244Q79 242 79 240T80 235Q85 199 104 174T153 133T215 104T278 79Q303 69 326 58T369 33Z" />
<glyph unicode="&#xa8;" glyph-name="dieresis" horiz-adv-x="395" d="M240 434Q228 434 225 442T222 461Q222 479 239 496T273 513Q278 513 279 510Q279 497 273 479T267 455Q267 445 258 441T240 434ZM132 434Q122 434 119 442T115 461Q115 479 132 496T166
513Q170 513 171 510Q171 497 165 479T159 455Q159 445 150 441T132 434Z" />
<glyph unicode="&#xa9;" glyph-name="copyright" horiz-adv-x="799" d="M324 -8Q229 -8 168 27T78 120T49 246Q49 315 77 385T159 514T290 609T467 645Q570 645 634 611T730 520T761 396Q761 327 731 256T643 125T505 29T324 -8ZM332 12Q400 12 458 36T563 100T643
192T693 298T711 407Q711 467 687 517T610 598T474 628Q406 628 347 604T240 539T158 446T106 338T87 229Q87 170 112 121T191 42T332 12ZM352 95Q291 95 252 118T194 178T175 261Q175 309 195 359T253 453T346 522T469 548Q493 548 518 543T558 518Q563 530 564
541T573 553Q581 553 581 546Q581 534 577 522T569 499Q573 490 574 481T575 460Q574 451 572 439T557 426Q538 426 538 442Q538 456 542 468T550 493Q540 509 516 518T462 527Q405 527 360 504T283 442T234 359T217 271Q217 231 233 197T282 142T367 121Q428 121
470 137T540 174T581 211T598 227Q600 227 600 226Q603 225 603 221Q603 193 577 170T512 130T429 104T352 95Z" />
<glyph unicode="&#xaa;" glyph-name="ordfeminine" horiz-adv-x="329" d="M30 287Q6 287 6 323Q6 351 17 392T46 479T85 563T129 628T171 653H174L185 661Q190 667 197 669T213 671Q233 671 255 663T285 655Q292 655 295 663T311 671Q325 671 330 665T336 649Q336
635 328 617T315 586Q314 582 306 580T296 573Q280 527 267 480T247 397T240 354Q240 329 254 329Q266 329 280 339T307 363T330 386T340 397Q342 397 342 393Q342 389 339 381T332 370Q322 361 301 343T256 308T214 292Q193 292 189 317Q189 335 195 363T208 422T222
472Q207 452 184 421T133 360T78 308T30 287ZM62 334Q72 334 88 347T124 382T161 424T191 461T207 482Q223 508 238 538T264 594T274 630Q274 636 269 636H266Q256 636 246 638T221 640Q207 640 191 636Q182 634 166 612T130 555T93 483T64 409T52 351Q52 334 62
334Z" />
<glyph unicode="&#xab;" glyph-name="guillemotleft" horiz-adv-x="420" d="M357 136L349 140Q324 176 293 199T228 250Q225 253 225 256Q225 261 235 278T261 319T294 365T325 407T344 431Q352 442 363 442Q369 442 369 436Q369 432 356 411T325 363T291 313T270
283Q276 276 292 257T325 216T355 175T368 149Q368 136 357 136ZM217 136L209 140Q183 176 153 199T88 250Q85 253 85 256Q85 261 95 278T121 319T154 365T184 407T203 431Q211 442 222 442Q229 442 229 436Q229 432 216 411T185 363T151 313T130 283Q136 276 151
257T184 216T214 175T227 149Q227 136 217 136Z" />
<glyph unicode="&#xac;" glyph-name="logicalnot" horiz-adv-x="596" d="M526 31Q517 31 516 41Q518 85 522 128T528 197L46 176Q41 176 36 179T29 187Q29 193 37 198Q45 199 74 201T146 205T239 211T338 216T427 221T491 224T515 226Q543 226 557 226T572 218V217L560
164Q559 159 555 138T546 92T536 49T526 31Z" />
<glyph unicode="&#xad;" glyph-name="uni00AD" horiz-adv-x="289" d="M38 121Q23 121 23 134Q23 150 35 158T60 169T72 173Q79 173 79 168Q79 162 74 157Q94 156 113 155T158 153Q166 153 173 153T190 154Q190 154 199 154T221 155T241 156Q259 156 259 150Q259
145 240 140T190 130T126 124T67 121Q62 121 57 121T47 122Q45 122 43 122T38 121Z" />
<glyph unicode="&#xae;" glyph-name="registered" horiz-adv-x="638" d="M260 317Q190 317 158 354T126 440Q126 485 150 529T219 604T329 634Q403 634 437 598T471 513Q471 480 457 446T414 382T347 335T260 317ZM264 328Q292 328 316 336T362 360Q359 359 355
359T345 359Q333 360 315 372T280 403T250 441L242 454Q239 441 235 421T227 384T215 367Q206 367 206 371Q206 388 214 410T231 464Q224 473 224 475Q224 477 234 480Q241 504 250 528T266 569Q268 582 274 595T297 608Q304 608 304 605Q304 602 301 597T295 587Q310
586 331 585T370 576T387 547Q387 515 367 497T319 472T266 465Q256 465 256 463Q256 460 260 457Q272 443 289 422T324 384T356 367Q358 367 360 367T365 368Q369 368 370 367Q405 396 425 437T445 518Q445 562 418 593T332 624Q292 624 258 607T199 560T160 498T146
432Q146 389 174 359T264 328ZM271 474Q297 474 326 486T366 530Q368 534 368 537T368 544Q368 567 344 572T291 579H290Q285 571 276 550T260 508T249 476Q254 475 259 475T271 474Z" />
<glyph unicode="&#xaf;" glyph-name="overscore" horiz-adv-x="228" d="M47 420Q33 420 28 422T22 426Q22 433 35 437T66 445T99 448Q118 448 146 446T196 440T218 430Q218 425 207 423T192 420H47Z" />
<glyph unicode="&#xb0;" glyph-name="degree" horiz-adv-x="283" d="M151 320Q116 320 91 345T65 406Q65 441 90 466T151 492Q186 492 211 467T237 406Q237 371 212 346T151 320ZM151 342Q177 342 196 361T215 406Q215 432 196 451T151 470Q125 470 106 451T87
406Q87 380 106 361T151 342Z" />
<glyph unicode="&#xb1;" glyph-name="plusminus" horiz-adv-x="379" d="M179 90Q174 90 174 105Q174 113 175 121T178 132Q188 162 196 190T209 237T213 257Q213 257 197 257T159 256T120 255Q95 255 94 257T93 263Q93 271 101 278T122 286L221 284Q226 301 233
324T248 369T267 406T289 421Q296 421 297 415Q297 408 292 386T278 336T259 283Q267 283 294 284T347 285Q363 285 375 285T391 282Q399 277 399 274Q399 268 384 266T345 262T296 260T250 255Q249 249 238 214T196 115Q184 90 179 90ZM83 18Q79 18 76 22T73 30Q73
48 86 55T103 63Q109 63 109 58Q109 54 107 50Q125 50 157 49T221 48Q236 48 249 48T272 50V51H280Q285 51 289 51T301 49Q310 48 310 46Q310 43 289 38T235 29T169 21T111 18Q105 18 100 18T90 19Q89 19 87 19T83 18Z" />
<glyph unicode="&#xb2;" glyph-name="uni00B2" horiz-adv-x="547" d="M356 271Q316 271 281 284T211 312T137 327Q123 323 108 312T76 290T42 280Q29 280 29 290Q29 305 45 317T87 336T139 344H144Q175 361 210 382T278 423T332 460Q356 479 379 501T418 550T434
608Q434 627 423 634T391 642Q366 642 330 631T257 601T194 558Q192 555 188 555Q182 555 182 563Q182 567 186 570Q218 597 258 620T343 658T431 673Q456 673 471 662T487 626Q487 598 468 569T428 518Q395 484 359 455T274 398T160 337Q194 334 225 324T289 304T359
294Q393 294 411 305T429 332Q429 342 421 350T392 366Q388 367 388 371Q388 375 395 375Q414 375 426 366T443 346T449 329Q449 302 420 287T356 271Z" />
<glyph unicode="&#xb3;" glyph-name="uni00B3" horiz-adv-x="608" d="M142 277Q82 277 42 297T2 360Q2 393 24 416T78 450T142 462Q149 462 149 456Q149 450 140 450Q119 450 96 439T57 409T40 361Q40 327 69 310T144 293Q184 293 225 303T302 333T358 384T380
453Q380 487 353 500T291 513Q269 513 248 507T215 501Q203 501 203 513Q203 519 208 525T221 531Q244 531 273 536T330 551T375 580T393 624Q393 636 383 644T352 653Q331 653 304 645T252 625T209 602Q207 600 204 600Q200 600 200 607Q200 613 203 620T212 630Q217
633 228 642T251 659T264 668Q268 668 268 663Q268 659 265 656T260 650Q278 658 312 668T377 678Q401 678 417 669T434 633Q434 610 415 589T370 552T320 531Q343 529 365 522T401 499T416 455Q416 413 390 380T322 324T232 289T142 277Z" />
<glyph unicode="&#xb4;" glyph-name="acute" horiz-adv-x="355" d="M104 534Q101 534 101 537Q101 543 121 560T171 600T234 644Q239 647 243 647Q252 647 257 639T262 622V620Q262 613 255 609Q242 601 215 588T159 560T109 535Q107 534 104 534Z" />
<glyph unicode="&#xb5;" glyph-name="uni03BC" horiz-adv-x="333" d="M55 -250Q26 -250 10 -238T-13 -209T-23 -173T-25 -144Q-25 -81 -4 -15T54 135Q62 156 71 179T88 222T95 253Q95 260 93 262T91 270Q91 272 91 274T93 281Q104 322 113 345T137 377T175 386Q189
386 192 377Q188 367 175 336T145 262T111 178T83 106T72 68Q72 64 75 64Q79 64 85 69T99 80Q158 125 201 181T275 296Q276 311 282 334T305 375T347 393Q358 393 359 384Q354 368 339 327T306 238Q294 203 284 165T266 93T254 40Q253 34 250 19T236 -10T204 -24Q191
-24 191 -13Q191 -9 194 -5Q197 1 204 22T219 72T235 133T251 192T262 234Q251 217 231 191T185 133T132 73T79 23T32 -7Q29 -15 24 -37T15 -86T10 -141Q10 -175 21 -201T63 -229Q81 -230 81 -238Q81 -250 55 -250Z" />
<glyph unicode="&#xb6;" glyph-name="paragraph" horiz-adv-x="414" d="M275 -66Q268 -66 268 -56Q268 -40 270 -7T275 64T278 128Q280 223 282 317T285 505Q285 545 284 584T283 664Q283 691 292 691Q297 691 309 677T322 647Q322 640 320 636T318 632Q315 559
313 493T309 354T306 192T305 -20V-47Q305 -50 294 -58T275 -66ZM206 -66Q199 -66 199 -56Q199 -5 204 65T213 219T218 391Q194 381 171 381Q140 381 119 399T86 446T75 506Q75 541 88 573T127 626T193 647Q198 647 202 647T212 646Q219 645 233 639T259 625T271
606Q271 599 263 599Q259 599 255 600T249 601Q247 601 246 587T245 551T245 506Q244 456 242 386T238 218T236 -20V-47Q236 -50 225 -58T206 -66Z" />
<glyph unicode="&#xb7;" glyph-name="middot" horiz-adv-x="273" d="M128 264Q115 264 111 274T107 296Q107 311 117 325T141 348T168 357Q173 357 174 354Q174 338 167 316T160 289Q160 276 149 271T128 264Z" />
<glyph unicode="&#xb8;" glyph-name="cedilla" horiz-adv-x="224" d="M24 -280Q20 -280 18 -277T15 -269Q15 -260 26 -258T55 -255T90 -250T119 -232T131 -192Q131 -177 118 -160T92 -123T79 -85Q79 -54 97 -26T149 2Q153 2 156 1T161 -5Q139 -9 127 -28T115 -68Q115
-82 129 -99T158 -136T173 -181Q173 -216 148 -238T88 -270T24 -280Z" />
<glyph unicode="&#xb9;" glyph-name="uni00B9" horiz-adv-x="443" d="M36 269Q32 269 30 275T27 286Q27 294 40 301T70 313T97 321Q114 350 140 399T198 506T256 613Q236 601 214 591T167 571Q166 570 163 570Q157 570 157 577Q157 584 163 585Q197 599 226 619T284
662L288 669Q291 674 299 677T316 680Q323 680 328 678T334 671Q334 667 333 666L127 327Q150 331 172 332T219 334Q225 334 225 327Q225 318 216 318Q168 318 125 303T38 270Q37 270 37 270T36 269Z" />
<glyph unicode="&#xba;" glyph-name="ordmasculine" horiz-adv-x="261" d="M79 250Q54 250 38 270T21 334Q21 344 22 355T25 380Q28 397 37 429T62 500T96 572T139 629T190 651H197Q197 664 205 674T227 685Q238 684 243 667T251 627T262 587T284 567Q303 564
303 556Q303 548 284 538Q277 535 271 534T261 533Q261 470 243 418T197 329T137 271T79 250ZM94 280Q112 280 135 300T181 357T218 441T233 541Q225 546 218 562T204 592T193 607Q179 607 163 588T132 539T104 476T82 415T70 371Q68 358 67 348T66 329Q66 280
94 280Z" />
<glyph unicode="&#xbb;" glyph-name="guillemotright" horiz-adv-x="420" d="M247 129Q241 129 241 135Q241 139 254 160T285 209T319 258T340 288Q334 296 318 314T285 355T255 396T242 422Q242 435 253 435L261 431Q287 396 317 372T382 321Q385 318 385 315Q385
310 375 293T349 252T316 206T285 164T266 140Q262 136 258 133T247 129ZM91 129Q85 129 85 135Q85 139 98 160T129 209T163 258T184 288Q178 296 162 314T129 355T99 396T86 422Q86 435 97 435L105 431Q131 396 161 372T226 321Q229 318 229 315Q229 310 219 293T193
252T160 206T129 164T110 140Q106 136 102 133T91 129Z" />
<glyph unicode="&#xbc;" glyph-name="onequarter" horiz-adv-x="933" d="M36 269Q32 269 30 275T27 286Q27 294 40 301T70 313T97 321Q114 350 140 399T198 506T256 613Q236 601 214 591T167 571Q166 570 163 570Q157 570 157 577Q157 584 163 585Q197 599 226
619T284 662L288 669Q291 674 299 677T316 680Q323 680 328 678T334 671Q334 667 333 666L127 327Q150 331 172 332T219 334Q225 334 225 327Q225 318 216 318Q168 318 125 303T38 270Q37 270 37 270T36 269ZM236 128Q219 128 219 143Q219 160 239 187T292 249T365
320T445 389T519 450T576 493T602 509Q604 509 608 509T616 506Q617 505 618 504T619 500Q619 497 613 492Q577 465 529 426T431 343T339 260T270 190T243 148Q243 142 247 140T252 135Q252 132 245 130T236 128ZM538 -20Q534 -20 532 -15T529 -3Q529 5 545 13T581
27T614 35L627 37V44Q627 65 638 90T662 137T682 169Q663 174 643 178T602 182Q578 182 543 173T483 154H478Q472 154 469 159T465 171Q465 185 480 190T514 199Q539 211 575 230T653 272T733 318T801 363T843 402Q845 404 847 405T854 406Q862 406 869 403T876
395Q876 394 875 393Q835 341 794 289T715 181Q734 174 752 170T791 166Q805 166 823 176T841 209Q841 213 840 216T839 224Q839 229 845 229Q852 229 856 221T863 203T866 190Q866 172 852 164T819 154T788 151Q766 151 746 155T705 163Q698 150 683 127T656 81T644
42V40Q686 45 721 45Q727 45 727 38Q727 29 718 29Q670 29 627 14T540 -20H538ZM691 189Q708 213 730 249T780 319L795 338Q763 317 722 293T638 246T560 205Q572 206 583 206T603 207Q628 207 649 202T691 189Z" />
<glyph unicode="&#xbd;" glyph-name="onehalf" horiz-adv-x="1015" d="M36 269Q32 269 30 275T27 286Q27 294 40 301T70 313T97 321Q114 350 140 399T198 506T256 613Q236 601 214 591T167 571Q166 570 163 570Q157 570 157 577Q157 584 163 585Q197 599 226 619T284
662L288 669Q291 674 299 677T316 680Q323 680 328 678T334 671Q334 667 333 666L127 327Q150 331 172 332T219 334Q225 334 225 327Q225 318 216 318Q168 318 125 303T38 270Q37 270 37 270T36 269ZM338 128Q321 128 321 143Q321 160 341 187T394 249T467 320T547
389T621 450T678 493T704 509Q706 509 710 509T718 506Q719 505 720 504T721 500Q721 497 715 492Q679 465 631 426T533 343T441 260T372 190T345 148Q345 142 349 140T354 135Q354 132 347 130T338 128ZM815 -13Q775 -13 740 0T670 28T596 43Q582 39 567 28T535
6T501 -4Q488 -4 488 6Q488 21 504 33T546 52T598 60H603Q634 77 669 98T737 139T791 176Q815 195 838 217T877 266T893 324Q893 343 882 350T850 358Q825 358 789 347T716 317T653 274Q651 271 647 271Q641 271 641 279Q641 283 645 286Q677 313 717 336T802 374T890
389Q915 389 930 378T946 342Q946 314 927 285T887 234Q854 200 817 171T733 114T619 53Q653 50 684 40T748 20T818 10Q852 10 870 21T888 48Q888 58 880 66T851 82Q847 83 847 87Q847 91 854 91Q873 91 885 82T902 62T908 45Q908 18 879 3T815 -13Z" />
<glyph unicode="&#xbe;" glyph-name="threequarters" horiz-adv-x="1029" d="M142 277Q82 277 42 297T2 360Q2 393 24 416T78 450T142 462Q149 462 149 456Q149 450 140 450Q119 450 96 439T57 409T40 361Q40 327 69 310T144 293Q184 293 225 303T302 333T358
384T380 453Q380 487 353 500T291 513Q269 513 248 507T215 501Q203 501 203 513Q203 519 208 525T221 531Q244 531 273 536T330 551T375 580T393 624Q393 636 383 644T352 653Q331 653 304 645T252 625T209 602Q207 600 204 600Q200 600 200 607Q200 613 203 620T212
630Q217 633 228 642T251 659T264 668Q268 668 268 663Q268 659 265 656T260 650Q278 658 312 668T377 678Q401 678 417 669T434 633Q434 610 415 589T370 552T320 531Q343 529 365 522T401 499T416 455Q416 413 390 380T322 324T232 289T142 277ZM364 128Q347
128 347 143Q347 160 367 187T420 249T493 320T573 389T647 450T704 493T730 509Q732 509 736 509T744 506Q745 505 746 504T747 500Q747 497 741 492Q705 465 657 426T559 343T467 260T398 190T371 148Q371 142 375 140T380 135Q380 132 373 130T364 128ZM638
-20Q634 -20 632 -15T629 -3Q629 5 645 13T681 27T714 35L727 37V44Q727 65 738 90T762 137T782 169Q763 174 743 178T702 182Q678 182 643 173T583 154H578Q572 154 569 159T565 171Q565 185 580 190T614 199Q639 211 675 230T753 272T833 318T901 363T943 402Q945
404 947 405T954 406Q962 406 969 403T976 395Q976 394 975 393Q935 341 894 289T815 181Q834 174 852 170T891 166Q905 166 923 176T941 209Q941 213 940 216T939 224Q939 229 945 229Q952 229 956 221T963 203T966 190Q966 172 952 164T919 154T888 151Q866 151
846 155T805 163Q798 150 783 127T756 81T744 42V40Q786 45 821 45Q827 45 827 38Q827 29 818 29Q770 29 727 14T640 -20H638ZM791 189Q808 213 830 249T880 319L895 338Q863 317 822 293T738 246T660 205Q672 206 683 206T703 207Q728 207 749 202T791 189Z" />
<glyph unicode="&#xbf;" glyph-name="questiondown" horiz-adv-x="464" d="M328 345Q325 345 325 347Q334 394 340 414T372 435Q383 435 385 422T388 397V396Q388 384 376 372T349 353T328 345ZM67 -250Q31 -250 0 -240T-50 -206T-69 -144Q-69 -95 -28 -49T81
44T229 142Q254 158 266 177T286 216T301 251H302Q307 258 313 258Q320 258 325 249T331 226Q331 214 326 199T307 166Q293 148 258 126T178 76T92 16T23 -54T-4 -136Q-4 -168 21 -189T104 -211Q155 -211 203 -195T281 -148T312 -76Q312 -52 307 -42T296 -28T285
-24T280 -19Q280 -11 288 -7T303 -3Q323 -3 343 -23T363 -73Q363 -99 344 -125Q318 -161 272 -189T171 -233T67 -250Z" />
<glyph unicode="&#xc0;" glyph-name="Agrave" horiz-adv-x="619" d="M59 -7H49Q40 -7 40 0Q40 2 40 6T42 16Q54 84 82 149T143 270Q130 270 120 270T93 269Q83 269 83 276Q83 283 91 291T110 300H160Q193 354 234 410T319 522T406 624Q400 632 400 640Q400 648
409 659T444 671Q456 671 461 665T467 650Q467 644 464 636Q472 615 483 576T506 490T527 393T543 301Q576 300 576 290Q576 280 546 275Q545 275 548 254T556 201T565 133T573 68T577 23Q577 13 562 5T535 -4Q523 -4 523 4V16Q523 37 521 74T515 153T508 227T503
273Q427 272 344 271T183 270Q149 209 119 141T79 4Q78 -3 72 -5T59 -7ZM197 298L500 300Q494 347 484 395T462 487T442 562T429 605Q391 565 347 512T264 403T197 298ZM515 698Q518 698 518 701Q518 707 498 724T446 766T381 811Q376 814 372 814Q362 814 357
806T352 789V787Q352 779 359 775Q373 767 400 753T458 725T510 699Q512 698 515 698Z" />
<glyph unicode="&#xc1;" glyph-name="Aacute" horiz-adv-x="619" d="M59 -7H49Q40 -7 40 0Q40 2 40 6T42 16Q54 84 82 149T143 270Q130 270 120 270T93 269Q83 269 83 276Q83 283 91 291T110 300H160Q193 354 234 410T319 522T406 624Q400 632 400 640Q400 648
409 659T444 671Q456 671 461 665T467 650Q467 644 464 636Q472 615 483 576T506 490T527 393T543 301Q576 300 576 290Q576 280 546 275Q545 275 548 254T556 201T565 133T573 68T577 23Q577 13 562 5T535 -4Q523 -4 523 4V16Q523 37 521 74T515 153T508 227T503
273Q427 272 344 271T183 270Q149 209 119 141T79 4Q78 -3 72 -5T59 -7ZM197 298L500 300Q494 347 484 395T462 487T442 562T429 605Q391 565 347 512T264 403T197 298ZM355 702Q352 702 352 705Q352 711 372 728T424 770T489 815Q494 818 498 818Q508 818 513
810T518 793V791Q518 783 511 779Q497 771 470 757T412 729T360 703Q358 702 355 702Z" />
<glyph unicode="&#xc2;" glyph-name="Acircumflex" horiz-adv-x="619" d="M59 -7H49Q40 -7 40 0Q40 2 40 6T42 16Q54 84 82 149T143 270Q130 270 120 270T93 269Q83 269 83 276Q83 283 91 291T110 300H160Q193 354 234 410T319 522T406 624Q400 632 400 640Q400
648 409 659T444 671Q456 671 461 665T467 650Q467 644 464 636Q472 615 483 576T506 490T527 393T543 301Q576 300 576 290Q576 280 546 275Q545 275 548 254T556 201T565 133T573 68T577 23Q577 13 562 5T535 -4Q523 -4 523 4V16Q523 37 521 74T515 153T508 227T503
273Q427 272 344 271T183 270Q149 209 119 141T79 4Q78 -3 72 -5T59 -7ZM197 298L500 300Q494 347 484 395T462 487T442 562T429 605Q391 565 347 512T264 403T197 298ZM332 727Q330 727 331 728Q349 746 374 766T445 813L451 816H453Q456 816 459 813Q491 788
508 769T540 730Q543 727 537 727Q536 727 535 728Q516 742 494 753T445 770Q420 763 390 749T336 728Q334 727 332 727Z" />
<glyph unicode="&#xc3;" glyph-name="Atilde" horiz-adv-x="619" d="M59 -7H49Q40 -7 40 0Q40 2 40 6T42 16Q54 84 82 149T143 270Q130 270 120 270T93 269Q83 269 83 276Q83 283 91 291T110 300H160Q193 354 234 410T319 522T406 624Q400 632 400 640Q400 648
409 659T444 671Q456 671 461 665T467 650Q467 644 464 636Q472 615 483 576T506 490T527 393T543 301Q576 300 576 290Q576 280 546 275Q545 275 548 254T556 201T565 133T573 68T577 23Q577 13 562 5T535 -4Q523 -4 523 4V16Q523 37 521 74T515 153T508 227T503
273Q427 272 344 271T183 270Q149 209 119 141T79 4Q78 -3 72 -5T59 -7ZM197 298L500 300Q494 347 484 395T462 487T442 562T429 605Q391 565 347 512T264 403T197 298ZM478 702Q461 702 445 709T413 722T380 729Q365 729 356 723T341 710T327 703Q325 703 325
705Q325 710 334 719T353 736T367 746Q383 756 403 756Q428 756 450 746T497 735Q511 735 520 740T538 756Q544 756 544 752Q544 737 529 726T498 709T478 702Z" />
<glyph unicode="&#xc4;" glyph-name="Adieresis" horiz-adv-x="619" d="M59 -7H49Q40 -7 40 0Q40 2 40 6T42 16Q54 84 82 149T143 270Q130 270 120 270T93 269Q83 269 83 276Q83 283 91 291T110 300H160Q193 354 234 410T319 522T406 624Q400 632 400 640Q400
648 409 659T444 671Q456 671 461 665T467 650Q467 644 464 636Q472 615 483 576T506 490T527 393T543 301Q576 300 576 290Q576 280 546 275Q545 275 548 254T556 201T565 133T573 68T577 23Q577 13 562 5T535 -4Q523 -4 523 4V16Q523 37 521 74T515 153T508 227T503
273Q427 272 344 271T183 270Q149 209 119 141T79 4Q78 -3 72 -5T59 -7ZM197 298L500 300Q494 347 484 395T462 487T442 562T429 605Q391 565 347 512T264 403T197 298ZM478 715Q466 715 463 723T460 742Q460 760 477 777T511 794Q516 794 517 791Q517 778 511
760T505 736Q505 726 496 722T478 715ZM370 715Q360 715 357 723T353 742Q353 760 370 777T404 794Q408 794 409 791Q409 778 403 760T397 736Q397 726 388 722T370 715Z" />
<glyph unicode="&#xc5;" glyph-name="Aring" horiz-adv-x="619" d="M59 -7H49Q40 -7 40 0Q40 2 40 6T42 16Q54 84 82 149T143 270Q130 270 120 270T93 269Q83 269 83 276Q83 283 91 291T110 300H160Q193 354 234 410T319 522T406 624Q400 632 400 640Q400 648
409 659T444 671Q456 671 461 665T467 650Q467 644 464 636Q472 615 483 576T506 490T527 393T543 301Q576 300 576 290Q576 280 546 275Q545 275 548 254T556 201T565 133T573 68T577 23Q577 13 562 5T535 -4Q523 -4 523 4V16Q523 37 521 74T515 153T508 227T503
273Q427 272 344 271T183 270Q149 209 119 141T79 4Q78 -3 72 -5T59 -7ZM197 298L500 300Q494 347 484 395T462 487T442 562T429 605Q391 565 347 512T264 403T197 298ZM436 715Q414 715 399 726T383 755Q383 771 399 791T441 827T492 843Q518 843 533 827T548
791Q548 753 516 734T436 715ZM451 735Q480 735 496 748T512 791Q512 827 484 827Q471 827 456 817T430 792T419 765Q419 735 451 735Z" />
<glyph unicode="&#xc6;" glyph-name="AE" horiz-adv-x="960" d="M35 -7H26Q18 -7 18 -4Q18 1 25 16Q55 84 101 149T194 270Q181 270 171 270T144 269Q136 269 136 274Q136 281 147 290T169 300H219Q266 353 320 410T432 524T544 625H531Q509 625 509 633Q509 644
529 645T578 650Q590 651 596 659T610 675T636 683Q644 683 650 680T656 668Q652 659 652 660T647 650Q657 650 682 650T771 649Q802 649 844 649T942 650Q957 650 957 635Q957 625 947 608T926 591Q919 591 913 603T892 617Q879 619 852 619T807 619Q794 619 783
619T760 618Q734 618 708 618T637 620Q634 612 628 583T615 513T601 431T589 354T582 302Q600 302 637 302T717 302T797 303T851 305Q857 305 857 299Q857 293 848 284T819 271H577Q575 262 572 234T565 170T559 100T556 45Q556 34 557 31Q593 31 663 31T833 30Q855
30 888 34T948 46H949Q953 46 953 36Q953 26 946 13T923 0Q823 0 724 0T518 -1Q501 -1 501 11Q501 11 504 39T511 110T520 196T531 273Q456 272 383 271T234 270Q184 209 135 141T57 4Q55 -3 49 -5T35 -7ZM258 300H534Q539 339 546 384T562 475T578 559T593 626Q572
615 540 587T468 522T390 445T316 367T258 300ZM501 11V11Q501 11 501 11Z" />
<glyph unicode="&#xc7;" glyph-name="Ccedilla" horiz-adv-x="684" d="M348 -13Q253 -13 189 23T92 124T59 277Q59 354 84 423T157 545T277 630T440 661Q469 661 500 657T557 640T599 603T615 539Q615 508 604 493T575 477Q554 477 554 496Q554 513 564 528T574
556Q574 581 554 598T503 626T442 636Q364 636 302 606T197 524T131 408T108 274Q108 205 133 145T209 48T339 10Q408 10 460 28T548 73T607 125T639 165Q644 170 646 170Q651 170 651 155Q651 122 631 96T576 49T502 15T421 -6T348 -13ZM230 -280Q226 -280 224
-277T221 -269Q221 -260 232 -258T261 -255T296 -250T325 -232T337 -192Q337 -177 324 -160T298 -123T285 -85Q285 -54 303 -26T355 2Q359 2 362 1T367 -5Q345 -9 333 -28T321 -68Q321 -82 335 -99T364 -136T379 -181Q379 -216 354 -238T294 -270T230 -280Z" />
<glyph unicode="&#xc8;" glyph-name="Egrave" horiz-adv-x="577" d="M356 -1H227Q186 -1 146 -1T81 1T55 5Q55 13 67 25T90 39Q89 43 89 48T89 59Q89 85 92 125T100 215T111 314H98Q88 314 88 321Q88 328 96 336T114 345Q124 425 136 500T161 624H108Q86 624 86
632Q86 637 98 642T128 648H167Q172 676 187 684T224 692Q239 692 239 682Q239 675 234 667T224 649Q234 649 259 649T348 648Q379 648 421 648T519 649Q534 649 534 634Q534 624 524 607T503 590Q496 590 490 602T469 616Q456 618 429 618T384 618Q371 618 360
618T337 617Q311 617 285 617T214 619Q204 584 193 533T174 432T160 345Q190 345 232 345T317 345T396 346T446 348Q452 348 452 342Q452 336 443 327T414 314H156Q154 288 150 250T144 171T141 93Q141 75 142 59T145 31Q181 31 243 31T405 30Q427 30 460 34T520
46H521Q525 46 525 36Q525 26 518 13T495 0Q462 0 427 0T356 -1ZM448 698Q451 698 451 701Q451 707 431 724T379 766T314 811Q309 814 305 814Q295 814 290 806T285 789V787Q285 779 292 775Q306 767 333 753T391 725T443 699Q445 698 448 698Z" />
<glyph unicode="&#xc9;" glyph-name="Eacute" horiz-adv-x="577" d="M356 -1H227Q186 -1 146 -1T81 1T55 5Q55 13 67 25T90 39Q89 43 89 48T89 59Q89 85 92 125T100 215T111 314H98Q88 314 88 321Q88 328 96 336T114 345Q124 425 136 500T161 624H108Q86 624 86
632Q86 637 98 642T128 648H167Q172 676 187 684T224 692Q239 692 239 682Q239 675 234 667T224 649Q234 649 259 649T348 648Q379 648 421 648T519 649Q534 649 534 634Q534 624 524 607T503 590Q496 590 490 602T469 616Q456 618 429 618T384 618Q371 618 360
618T337 617Q311 617 285 617T214 619Q204 584 193 533T174 432T160 345Q190 345 232 345T317 345T396 346T446 348Q452 348 452 342Q452 336 443 327T414 314H156Q154 288 150 250T144 171T141 93Q141 75 142 59T145 31Q181 31 243 31T405 30Q427 30 460 34T520
46H521Q525 46 525 36Q525 26 518 13T495 0Q462 0 427 0T356 -1ZM288 702Q285 702 285 705Q285 711 305 728T357 770T422 815Q427 818 431 818Q441 818 446 810T451 793V791Q451 783 444 779Q430 771 403 757T345 729T293 703Q291 702 288 702Z" />
<glyph unicode="&#xca;" glyph-name="Ecircumflex" horiz-adv-x="577" d="M356 -1H227Q186 -1 146 -1T81 1T55 5Q55 13 67 25T90 39Q89 43 89 48T89 59Q89 85 92 125T100 215T111 314H98Q88 314 88 321Q88 328 96 336T114 345Q124 425 136 500T161 624H108Q86
624 86 632Q86 637 98 642T128 648H167Q172 676 187 684T224 692Q239 692 239 682Q239 675 234 667T224 649Q234 649 259 649T348 648Q379 648 421 648T519 649Q534 649 534 634Q534 624 524 607T503 590Q496 590 490 602T469 616Q456 618 429 618T384 618Q371
618 360 618T337 617Q311 617 285 617T214 619Q204 584 193 533T174 432T160 345Q190 345 232 345T317 345T396 346T446 348Q452 348 452 342Q452 336 443 327T414 314H156Q154 288 150 250T144 171T141 93Q141 75 142 59T145 31Q181 31 243 31T405 30Q427 30 460
34T520 46H521Q525 46 525 36Q525 26 518 13T495 0Q462 0 427 0T356 -1ZM265 727Q263 727 264 728Q282 746 307 766T378 813L384 816H386Q389 816 392 813Q424 788 441 769T473 730Q476 727 470 727Q469 727 468 728Q449 742 427 753T378 770Q353 763 323 749T269
728Q267 727 265 727Z" />
<glyph unicode="&#xcb;" glyph-name="Edieresis" horiz-adv-x="577" d="M356 -1H227Q186 -1 146 -1T81 1T55 5Q55 13 67 25T90 39Q89 43 89 48T89 59Q89 85 92 125T100 215T111 314H98Q88 314 88 321Q88 328 96 336T114 345Q124 425 136 500T161 624H108Q86 624
86 632Q86 637 98 642T128 648H167Q172 676 187 684T224 692Q239 692 239 682Q239 675 234 667T224 649Q234 649 259 649T348 648Q379 648 421 648T519 649Q534 649 534 634Q534 624 524 607T503 590Q496 590 490 602T469 616Q456 618 429 618T384 618Q371 618
360 618T337 617Q311 617 285 617T214 619Q204 584 193 533T174 432T160 345Q190 345 232 345T317 345T396 346T446 348Q452 348 452 342Q452 336 443 327T414 314H156Q154 288 150 250T144 171T141 93Q141 75 142 59T145 31Q181 31 243 31T405 30Q427 30 460 34T520
46H521Q525 46 525 36Q525 26 518 13T495 0Q462 0 427 0T356 -1ZM411 715Q399 715 396 723T393 742Q393 760 410 777T444 794Q449 794 450 791Q450 778 444 760T438 736Q438 726 429 722T411 715ZM303 715Q293 715 290 723T286 742Q286 760 303 777T337 794Q341
794 342 791Q342 778 336 760T330 736Q330 726 321 722T303 715Z" />
<glyph unicode="&#xcc;" glyph-name="Igrave" horiz-adv-x="458" d="M206 -8Q193 -8 187 0H56Q46 0 46 7Q46 14 54 22T73 31H184Q197 166 212 303T253 568V598Q253 604 254 608T255 618H139Q129 618 129 625Q129 632 137 640T156 649H265Q270 660 283 665T323
671Q338 671 338 661V659L332 650Q374 650 409 650T461 652Q467 652 467 646Q467 640 458 631T429 618H320V616Q303 568 289 504T264 369T246 235T235 120T231 47Q231 36 234 31Q280 32 320 32T378 34Q384 34 384 28Q384 22 375 13T346 0H228Q218 -8 206 -8ZM389
698Q392 698 392 701Q392 707 372 724T320 766T255 811Q250 814 246 814Q236 814 231 806T226 789V787Q226 779 233 775Q247 767 274 753T332 725T384 699Q386 698 389 698Z" />
<glyph unicode="&#xcd;" glyph-name="Iacute" horiz-adv-x="458" d="M206 -8Q193 -8 187 0H56Q46 0 46 7Q46 14 54 22T73 31H184Q197 166 212 303T253 568V598Q253 604 254 608T255 618H139Q129 618 129 625Q129 632 137 640T156 649H265Q270 660 283 665T323
671Q338 671 338 661V659L332 650Q374 650 409 650T461 652Q467 652 467 646Q467 640 458 631T429 618H320V616Q303 568 289 504T264 369T246 235T235 120T231 47Q231 36 234 31Q280 32 320 32T378 34Q384 34 384 28Q384 22 375 13T346 0H228Q218 -8 206 -8ZM229
702Q226 702 226 705Q226 711 246 728T298 770T363 815Q368 818 372 818Q382 818 387 810T392 793V791Q392 783 385 779Q371 771 344 757T286 729T234 703Q232 702 229 702Z" />
<glyph unicode="&#xce;" glyph-name="Icircumflex" horiz-adv-x="458" d="M206 -8Q193 -8 187 0H56Q46 0 46 7Q46 14 54 22T73 31H184Q197 166 212 303T253 568V598Q253 604 254 608T255 618H139Q129 618 129 625Q129 632 137 640T156 649H265Q270 660 283 665T323
671Q338 671 338 661V659L332 650Q374 650 409 650T461 652Q467 652 467 646Q467 640 458 631T429 618H320V616Q303 568 289 504T264 369T246 235T235 120T231 47Q231 36 234 31Q280 32 320 32T378 34Q384 34 384 28Q384 22 375 13T346 0H228Q218 -8 206 -8ZM206
727Q204 727 205 728Q223 746 248 766T319 813L325 816H327Q330 816 333 813Q365 788 382 769T414 730Q417 727 411 727Q410 727 409 728Q390 742 368 753T319 770Q294 763 264 749T210 728Q208 727 206 727Z" />
<glyph unicode="&#xcf;" glyph-name="Idieresis" horiz-adv-x="458" d="M206 -8Q193 -8 187 0H56Q46 0 46 7Q46 14 54 22T73 31H184Q197 166 212 303T253 568V598Q253 604 254 608T255 618H139Q129 618 129 625Q129 632 137 640T156 649H265Q270 660 283 665T323
671Q338 671 338 661V659L332 650Q374 650 409 650T461 652Q467 652 467 646Q467 640 458 631T429 618H320V616Q303 568 289 504T264 369T246 235T235 120T231 47Q231 36 234 31Q280 32 320 32T378 34Q384 34 384 28Q384 22 375 13T346 0H228Q218 -8 206 -8ZM352
715Q340 715 337 723T334 742Q334 760 351 777T385 794Q390 794 391 791Q391 778 385 760T379 736Q379 726 370 722T352 715ZM244 715Q234 715 231 723T227 742Q227 760 244 777T278 794Q282 794 283 791Q283 778 277 760T271 736Q271 726 262 722T244 715Z" />
<glyph unicode="&#xd0;" glyph-name="Eth" horiz-adv-x="775" d="M204 -9Q152 -9 123 3T93 33Q93 41 100 41Q103 41 106 40Q102 60 100 86T98 142Q98 183 101 228Q87 227 74 227T48 227Q35 227 24 232T12 247Q12 255 21 259T55 264Q67 264 80 264T103 262Q108
324 116 387T135 506T156 603H148Q135 603 118 600T96 597Q89 597 89 607Q89 616 98 628T125 640H164Q169 666 180 679T219 692Q233 692 233 681Q230 674 227 666T218 643Q229 644 240 644T262 644Q322 644 386 634T510 600T619 542T696 458T725 344Q725 285 699
236T630 148T532 80T418 31T304 1T204 -9ZM234 18Q280 18 334 33T443 73T542 130T614 197Q654 248 671 290T688 377Q688 437 649 480T546 551T403 592T247 606Q238 606 229 606T208 605Q184 523 168 436T146 262Q157 262 176 262T216 262T249 260T263 256Q263 248
227 242T144 231Q143 215 143 199T142 167Q142 151 142 136T144 105Q146 60 162 39T234 18Z" />
<glyph unicode="&#xd1;" glyph-name="Ntilde" horiz-adv-x="680" d="M531 -9Q513 -9 513 13L520 95Q507 136 489 162Q471 186 441 218T377 286T311 353T258 410Q218 456 207 487T195 547Q179 495 167 430T145 298T132 176T127 87Q127 77 127 64T128 39Q128 0 114
0Q104 0 95 12T86 38Q88 75 94 128T108 240T126 359T144 468T159 551Q158 556 158 560T158 569Q158 615 174 635T218 656Q228 656 234 654T241 647Q241 637 235 623T222 595T215 576Q215 546 236 512T291 441T366 364T447 282T520 197L529 185L545 332Q551 385
558 436T574 538V568Q574 590 578 610T595 643T636 656Q651 656 651 646V644Q624 582 605 497T572 319T553 139Q559 123 561 107T564 76Q564 59 561 45T554 20V14Q552 3 545 -3T531 -9ZM455 702Q438 702 422 709T390 722T357 729Q342 729 333 723T318 710T304 703Q302
703 302 705Q302 710 311 719T330 736T344 746Q360 756 380 756Q405 756 427 746T474 735Q488 735 497 740T515 756Q521 756 521 752Q521 737 506 726T475 709T455 702Z" />
<glyph unicode="&#xd2;" glyph-name="Ograve" horiz-adv-x="796" d="M348 -18Q251 -18 188 18T93 114T62 248Q62 326 94 406T195 549Q172 539 151 528T126 516Q117 516 117 525Q117 531 130 540T163 558T202 576T233 588Q265 619 305 645T391 688T484 705Q507
705 530 698T554 667Q554 653 546 638T531 614Q629 600 689 542T749 371Q749 280 715 208T623 85T494 9T348 -18ZM285 603Q314 612 353 616T432 621Q453 621 474 620T514 617Q523 638 523 651Q523 675 485 675Q453 675 416 665T344 639T285 603ZM355 6Q414 6 475
30T587 101T671 215T703 368Q703 427 680 475T616 555T521 594Q512 584 506 580T496 576Q491 576 491 580Q491 589 500 596Q490 597 480 597T459 597Q403 597 349 589T253 569Q202 531 171 480T125 373T110 262Q110 194 136 136T216 42T355 6ZM527 733Q530 733
530 736Q530 742 510 759T458 801T393 846Q388 849 384 849Q374 849 369 841T364 824V822Q364 814 371 810Q385 802 412 788T470 760T522 734Q524 733 527 733Z" />
<glyph unicode="&#xd3;" glyph-name="Oacute" horiz-adv-x="796" d="M348 -18Q251 -18 188 18T93 114T62 248Q62 326 94 406T195 549Q172 539 151 528T126 516Q117 516 117 525Q117 531 130 540T163 558T202 576T233 588Q265 619 305 645T391 688T484 705Q507
705 530 698T554 667Q554 653 546 638T531 614Q629 600 689 542T749 371Q749 280 715 208T623 85T494 9T348 -18ZM285 603Q314 612 353 616T432 621Q453 621 474 620T514 617Q523 638 523 651Q523 675 485 675Q453 675 416 665T344 639T285 603ZM355 6Q414 6 475
30T587 101T671 215T703 368Q703 427 680 475T616 555T521 594Q512 584 506 580T496 576Q491 576 491 580Q491 589 500 596Q490 597 480 597T459 597Q403 597 349 589T253 569Q202 531 171 480T125 373T110 262Q110 194 136 136T216 42T355 6ZM367 737Q364 737
364 740Q364 746 384 763T436 805T501 850Q506 853 510 853Q520 853 525 845T530 828V826Q530 818 523 814Q509 806 482 792T424 764T372 738Q370 737 367 737Z" />
<glyph unicode="&#xd4;" glyph-name="Ocircumflex" horiz-adv-x="796" d="M348 -18Q251 -18 188 18T93 114T62 248Q62 326 94 406T195 549Q172 539 151 528T126 516Q117 516 117 525Q117 531 130 540T163 558T202 576T233 588Q265 619 305 645T391 688T484 705Q507
705 530 698T554 667Q554 653 546 638T531 614Q629 600 689 542T749 371Q749 280 715 208T623 85T494 9T348 -18ZM285 603Q314 612 353 616T432 621Q453 621 474 620T514 617Q523 638 523 651Q523 675 485 675Q453 675 416 665T344 639T285 603ZM355 6Q414 6 475
30T587 101T671 215T703 368Q703 427 680 475T616 555T521 594Q512 584 506 580T496 576Q491 576 491 580Q491 589 500 596Q490 597 480 597T459 597Q403 597 349 589T253 569Q202 531 171 480T125 373T110 262Q110 194 136 136T216 42T355 6ZM344 762Q342 762
343 763Q361 781 386 801T457 848L463 851H465Q468 851 471 848Q503 823 520 804T552 765Q555 762 549 762Q548 762 547 763Q528 777 506 788T457 805Q432 798 402 784T348 763Q346 762 344 762Z" />
<glyph unicode="&#xd5;" glyph-name="Otilde" horiz-adv-x="796" d="M348 -18Q251 -18 188 18T93 114T62 248Q62 326 94 406T195 549Q172 539 151 528T126 516Q117 516 117 525Q117 531 130 540T163 558T202 576T233 588Q265 619 305 645T391 688T484 705Q507
705 530 698T554 667Q554 653 546 638T531 614Q629 600 689 542T749 371Q749 280 715 208T623 85T494 9T348 -18ZM285 603Q314 612 353 616T432 621Q453 621 474 620T514 617Q523 638 523 651Q523 675 485 675Q453 675 416 665T344 639T285 603ZM355 6Q414 6 475
30T587 101T671 215T703 368Q703 427 680 475T616 555T521 594Q512 584 506 580T496 576Q491 576 491 580Q491 589 500 596Q490 597 480 597T459 597Q403 597 349 589T253 569Q202 531 171 480T125 373T110 262Q110 194 136 136T216 42T355 6ZM490 737Q473 737
457 744T425 757T392 764Q377 764 368 758T353 745T339 738Q337 738 337 740Q337 745 346 754T365 771T379 781Q395 791 415 791Q440 791 462 781T509 770Q523 770 532 775T550 791Q556 791 556 787Q556 772 541 761T510 744T490 737Z" />
<glyph unicode="&#xd6;" glyph-name="Odieresis" horiz-adv-x="796" d="M348 -18Q251 -18 188 18T93 114T62 248Q62 326 94 406T195 549Q172 539 151 528T126 516Q117 516 117 525Q117 531 130 540T163 558T202 576T233 588Q265 619 305 645T391 688T484 705Q507
705 530 698T554 667Q554 653 546 638T531 614Q629 600 689 542T749 371Q749 280 715 208T623 85T494 9T348 -18ZM285 603Q314 612 353 616T432 621Q453 621 474 620T514 617Q523 638 523 651Q523 675 485 675Q453 675 416 665T344 639T285 603ZM355 6Q414 6 475
30T587 101T671 215T703 368Q703 427 680 475T616 555T521 594Q512 584 506 580T496 576Q491 576 491 580Q491 589 500 596Q490 597 480 597T459 597Q403 597 349 589T253 569Q202 531 171 480T125 373T110 262Q110 194 136 136T216 42T355 6ZM490 750Q478 750
475 758T472 777Q472 795 489 812T523 829Q528 829 529 826Q529 813 523 795T517 771Q517 761 508 757T490 750ZM382 750Q372 750 369 758T365 777Q365 795 382 812T416 829Q420 829 421 826Q421 813 415 795T409 771Q409 761 400 757T382 750Z" />
<glyph unicode="&#xd7;" glyph-name="multiply" horiz-adv-x="440" d="M376 85Q372 85 371 86Q355 91 338 109T306 141Q301 146 280 167T232 214L115 91Q111 87 106 87Q100 87 96 93T91 106Q91 113 103 126T130 152T149 171L211 235Q192 254 176 271T149 299Q144
304 130 317T104 344T91 364Q91 371 95 377T106 383Q111 383 115 379L232 255Q258 281 279 302T306 329Q315 338 329 352T358 378T382 390Q386 390 386 386Q386 382 380 371T361 347L251 235Q280 206 311 178T363 127T385 94Q385 85 376 85Z" />
<glyph unicode="&#xd8;" glyph-name="Oslash" horiz-adv-x="782" d="M151 -119Q139 -119 133 -110T127 -87Q127 -64 137 -34T165 31Q113 68 88 124T62 248Q62 326 94 406T195 549Q172 539 151 528T126 516Q117 516 117 525Q117 531 130 540T163 558T202 576T233
588Q265 619 305 645T391 688T484 705Q507 705 530 698T554 667Q554 653 546 638T531 614Q543 612 554 610T576 605Q615 649 642 678T677 707Q683 707 687 702T691 689Q691 681 677 664T645 627T613 592Q676 566 712 512T749 371Q749 280 715 208T623 85T494 9T348
-18Q302 -18 264 -10T194 15Q160 -45 160 -75Q160 -88 167 -94T174 -104Q174 -109 165 -114T151 -119ZM285 603Q314 612 353 616T432 621Q453 621 474 620T514 617Q523 638 523 651Q523 675 485 675Q453 675 416 665T344 639T285 603ZM184 66Q219 126 266 197T367
340T470 476T559 585Q541 591 521 594Q512 584 506 580T496 576Q491 576 491 580Q491 589 500 596Q490 597 480 597T459 597Q403 597 349 589T253 569Q202 531 171 480T125 373T110 262Q110 204 128 153T184 66ZM355 6Q414 6 475 30T587 101T671 215T703 368Q703
434 674 487T594 569Q542 508 488 438T381 298T285 162T211 45Q239 26 275 16T355 6Z" />
<glyph unicode="&#xd9;" glyph-name="Ugrave" horiz-adv-x="646" d="M478 -8Q454 -8 454 14Q462 100 469 182T487 345Q435 244 385 177T289 71T209 16T151 -1Q117 -1 96 25T66 95T56 193Q56 251 64 314T87 438T119 547Q113 549 113 558Q113 571 121 591T140 628T157
651Q168 659 178 662T198 666Q210 666 217 661T225 649Q225 644 221 640Q201 622 184 582T152 493T129 398T116 320Q112 281 109 246T105 180Q105 116 120 78T175 39Q207 39 256 78T378 214Q419 269 449 329T497 446T515 547V569Q515 602 532 629T590 657Q605 657
605 647V645Q585 598 569 535T540 404T519 270T507 153T503 72Q511 61 511 43Q511 -8 478 -8ZM458 698Q461 698 461 701Q461 707 441 724T389 766T324 811Q319 814 315 814Q305 814 300 806T295 789V787Q295 779 302 775Q316 767 343 753T401 725T453 699Q455 698
458 698Z" />
<glyph unicode="&#xda;" glyph-name="Uacute" horiz-adv-x="646" d="M478 -8Q454 -8 454 14Q462 100 469 182T487 345Q435 244 385 177T289 71T209 16T151 -1Q117 -1 96 25T66 95T56 193Q56 251 64 314T87 438T119 547Q113 549 113 558Q113 571 121 591T140 628T157
651Q168 659 178 662T198 666Q210 666 217 661T225 649Q225 644 221 640Q201 622 184 582T152 493T129 398T116 320Q112 281 109 246T105 180Q105 116 120 78T175 39Q207 39 256 78T378 214Q419 269 449 329T497 446T515 547V569Q515 602 532 629T590 657Q605 657
605 647V645Q585 598 569 535T540 404T519 270T507 153T503 72Q511 61 511 43Q511 -8 478 -8ZM298 702Q295 702 295 705Q295 711 315 728T367 770T432 815Q437 818 441 818Q451 818 456 810T461 793V791Q461 783 454 779Q440 771 413 757T355 729T303 703Q301 702
298 702Z" />
<glyph unicode="&#xdb;" glyph-name="Ucircumflex" horiz-adv-x="646" d="M478 -8Q454 -8 454 14Q462 100 469 182T487 345Q435 244 385 177T289 71T209 16T151 -1Q117 -1 96 25T66 95T56 193Q56 251 64 314T87 438T119 547Q113 549 113 558Q113 571 121 591T140
628T157 651Q168 659 178 662T198 666Q210 666 217 661T225 649Q225 644 221 640Q201 622 184 582T152 493T129 398T116 320Q112 281 109 246T105 180Q105 116 120 78T175 39Q207 39 256 78T378 214Q419 269 449 329T497 446T515 547V569Q515 602 532 629T590 657Q605
657 605 647V645Q585 598 569 535T540 404T519 270T507 153T503 72Q511 61 511 43Q511 -8 478 -8ZM275 727Q273 727 274 728Q292 746 317 766T388 813L394 816H396Q399 816 402 813Q434 788 451 769T483 730Q486 727 480 727Q479 727 478 728Q459 742 437 753T388
770Q363 763 333 749T279 728Q277 727 275 727Z" />
<glyph unicode="&#xdc;" glyph-name="Udieresis" horiz-adv-x="646" d="M478 -8Q454 -8 454 14Q462 100 469 182T487 345Q435 244 385 177T289 71T209 16T151 -1Q117 -1 96 25T66 95T56 193Q56 251 64 314T87 438T119 547Q113 549 113 558Q113 571 121 591T140
628T157 651Q168 659 178 662T198 666Q210 666 217 661T225 649Q225 644 221 640Q201 622 184 582T152 493T129 398T116 320Q112 281 109 246T105 180Q105 116 120 78T175 39Q207 39 256 78T378 214Q419 269 449 329T497 446T515 547V569Q515 602 532 629T590 657Q605
657 605 647V645Q585 598 569 535T540 404T519 270T507 153T503 72Q511 61 511 43Q511 -8 478 -8ZM421 715Q409 715 406 723T403 742Q403 760 420 777T454 794Q459 794 460 791Q460 778 454 760T448 736Q448 726 439 722T421 715ZM313 715Q303 715 300 723T296
742Q296 760 313 777T347 794Q351 794 352 791Q352 778 346 760T340 736Q340 726 331 722T313 715Z" />
<glyph unicode="&#xdd;" glyph-name="Yacute" horiz-adv-x="484" d="M84 0Q78 0 73 2T67 10Q67 15 73 27T85 51T95 69Q110 101 127 153T145 261Q145 266 145 269T144 276Q116 350 90 425T37 584Q33 595 32 605T30 623Q30 643 46 648T75 654Q85 654 101 651T117
640Q117 635 111 631T106 626Q93 623 93 598Q93 573 103 534T129 451T160 370T185 309Q194 317 221 341T283 401T353 477T414 555T448 625Q453 644 460 655T485 667Q492 667 500 664T508 647Q508 634 492 608T451 552T403 493Q353 432 302 383T197 284Q191 265
184 233T171 168T164 113Q162 80 157 55T135 15T84 0ZM199 702Q196 702 196 705Q196 711 216 728T268 770T333 815Q338 818 342 818Q352 818 357 810T362 793V791Q362 783 355 779Q341 771 314 757T256 729T204 703Q202 702 199 702Z" />
<glyph unicode="&#xde;" glyph-name="Thorn" horiz-adv-x="298" d="M-36 -253Q-46 -253 -55 -245T-64 -218Q-64 -204 -56 -173T-36 -102T-9 -18T20 65T44 132Q39 144 39 155Q39 169 46 182T69 205Q82 244 98 295T131 398T160 488T175 540Q175 542 168 542T153
545T145 552Q145 562 155 567T176 575T187 580Q204 625 213 649T227 683T235 698T243 706Q254 717 266 717Q284 717 284 697Q284 688 278 674L240 583Q278 559 312 513T368 404T390 269Q390 208 365 161T296 88T190 61Q160 61 130 68T77 94Q63 66 50 27T25 -53T8
-124T1 -165Q1 -176 4 -183T8 -201Q8 -207 4 -219T-9 -242T-36 -253ZM189 87Q241 87 272 114T318 185T333 275Q333 289 332 302T329 329Q320 393 300 434T259 498T227 531Q212 497 179 397T94 124Q114 104 139 96T189 87Z" />
<glyph unicode="&#xdf;" glyph-name="germandbls" horiz-adv-x="610" d="M-63 -206Q-96 -206 -113 -195T-135 -168T-141 -140Q-141 -121 -135 -112T-122 -102Q-116 -102 -116 -110Q-116 -113 -116 -116T-117 -125Q-117 -157 -96 -172T-52 -187Q-28 -187 -3 -163T44
-84Q57 -52 73 -3T106 102T138 209T164 298T178 346H113Q100 346 100 352Q100 357 107 362T121 367H185Q188 376 196 404T215 468T235 533T251 575Q271 619 309 641T395 664Q427 664 460 657T519 627Q542 607 552 588T562 552Q562 522 539 502T482 465T413 433T356
398T333 353Q333 325 356 307T414 274T483 244T540 207T564 154Q564 121 543 92T487 39T409 3T322 -10Q277 -10 262 7T247 43Q247 50 251 62T278 75Q283 75 283 66T289 46Q300 28 318 23T362 17Q394 17 429 28T490 64T515 128Q515 159 493 179T437 216T370 248T314
287T291 342Q291 373 317 402T417 455Q442 463 466 476T506 507T522 547Q522 566 505 588T460 627T395 643Q362 643 339 629T297 580T261 489T220 346Q218 338 210 308T189 235T164 145T138 56T116 -16Q92 -92 61 -133T-3 -190T-63 -206Z" />
<glyph unicode="&#xe0;" glyph-name="agrave" horiz-adv-x="329" d="M30 -3Q6 -3 6 33Q6 61 17 102T46 189T85 273T129 338T171 363H174L185 371Q190 377 197 379T213 381Q233 381 255 373T285 365Q292 365 295 373T311 381Q325 381 330 375T336 359Q336 345 328
327T315 296Q314 292 306 290T296 283Q280 237 267 190T247 107T240 64Q240 39 254 39Q266 39 280 49T307 73T330 96T340 107Q342 107 342 103Q342 99 339 91T332 80Q322 71 301 53T256 18T214 2Q193 2 189 27Q189 45 195 73T208 132T222 182Q207 162 184 131T133
70T78 18T30 -3ZM62 44Q72 44 88 57T124 92T161 134T191 171T207 192Q223 218 238 248T264 304T274 340Q274 346 269 346H266Q256 346 246 348T221 350Q207 350 191 346Q182 344 166 322T130 265T93 193T64 119T52 61Q52 44 62 44ZM339 430Q342 430 342 433Q342
439 322 456T272 496T209 540Q204 543 200 543Q191 543 186 535T181 518V516Q181 509 188 505Q201 497 228 484T284 456T334 431Q336 430 339 430Z" />
<glyph unicode="&#xe1;" glyph-name="aacute" horiz-adv-x="329" d="M30 -3Q6 -3 6 33Q6 61 17 102T46 189T85 273T129 338T171 363H174L185 371Q190 377 197 379T213 381Q233 381 255 373T285 365Q292 365 295 373T311 381Q325 381 330 375T336 359Q336 345 328
327T315 296Q314 292 306 290T296 283Q280 237 267 190T247 107T240 64Q240 39 254 39Q266 39 280 49T307 73T330 96T340 107Q342 107 342 103Q342 99 339 91T332 80Q322 71 301 53T256 18T214 2Q193 2 189 27Q189 45 195 73T208 132T222 182Q207 162 184 131T133
70T78 18T30 -3ZM62 44Q72 44 88 57T124 92T161 134T191 171T207 192Q223 218 238 248T264 304T274 340Q274 346 269 346H266Q256 346 246 348T221 350Q207 350 191 346Q182 344 166 322T130 265T93 193T64 119T52 61Q52 44 62 44ZM183 687Q180 687 180 690Q180
696 200 713T250 753T313 797Q318 800 322 800Q331 800 336 792T341 775V773Q341 766 334 762Q321 754 294 741T238 713T188 688Q186 687 183 687Z" />
<glyph unicode="&#xe2;" glyph-name="acircumflex" horiz-adv-x="329" d="M30 -3Q6 -3 6 33Q6 61 17 102T46 189T85 273T129 338T171 363H174L185 371Q190 377 197 379T213 381Q233 381 255 373T285 365Q292 365 295 373T311 381Q325 381 330 375T336 359Q336
345 328 327T315 296Q314 292 306 290T296 283Q280 237 267 190T247 107T240 64Q240 39 254 39Q266 39 280 49T307 73T330 96T340 107Q342 107 342 103Q342 99 339 91T332 80Q322 71 301 53T256 18T214 2Q193 2 189 27Q189 45 195 73T208 132T222 182Q207 162 184
131T133 70T78 18T30 -3ZM62 44Q72 44 88 57T124 92T161 134T191 171T207 192Q223 218 238 248T264 304T274 340Q274 346 269 346H266Q256 346 246 348T221 350Q207 350 191 346Q182 344 166 322T130 265T93 193T64 119T52 61Q52 44 62 44ZM161 686Q159 686 160
689Q162 694 179 711T224 752T279 796Q282 799 285 799H287Q290 799 293 796Q314 780 330 757T356 714T363 689Q362 686 360 686Q359 686 358 687Q344 704 319 723T279 755Q265 746 244 734T202 709T165 687Q163 686 161 686Z" />
<glyph unicode="&#xe3;" glyph-name="atilde" horiz-adv-x="329" d="M30 -3Q6 -3 6 33Q6 61 17 102T46 189T85 273T129 338T171 363H174L185 371Q190 377 197 379T213 381Q233 381 255 373T285 365Q292 365 295 373T311 381Q325 381 330 375T336 359Q336 345 328
327T315 296Q314 292 306 290T296 283Q280 237 267 190T247 107T240 64Q240 39 254 39Q266 39 280 49T307 73T330 96T340 107Q342 107 342 103Q342 99 339 91T332 80Q322 71 301 53T256 18T214 2Q193 2 189 27Q189 45 195 73T208 132T222 182Q207 162 184 131T133
70T78 18T30 -3ZM62 44Q72 44 88 57T124 92T161 134T191 171T207 192Q223 218 238 248T264 304T274 340Q274 346 269 346H266Q256 346 246 348T221 350Q207 350 191 346Q182 344 166 322T130 265T93 193T64 119T52 61Q52 44 62 44ZM560 681Q543 681 527 688T495
701T462 708Q447 708 438 702T423 689T409 682Q407 682 407 684Q407 689 416 698T435 715T449 725Q465 735 485 735Q510 735 532 725T579 714Q593 714 602 719T620 735Q626 735 626 731Q626 716 611 705T580 688T560 681Z" />
<glyph unicode="&#xe4;" glyph-name="adieresis" horiz-adv-x="329" d="M30 -3Q6 -3 6 33Q6 61 17 102T46 189T85 273T129 338T171 363H174L185 371Q190 377 197 379T213 381Q233 381 255 373T285 365Q292 365 295 373T311 381Q325 381 330 375T336 359Q336 345
328 327T315 296Q314 292 306 290T296 283Q280 237 267 190T247 107T240 64Q240 39 254 39Q266 39 280 49T307 73T330 96T340 107Q342 107 342 103Q342 99 339 91T332 80Q322 71 301 53T256 18T214 2Q193 2 189 27Q189 45 195 73T208 132T222 182Q207 162 184 131T133
70T78 18T30 -3ZM62 44Q72 44 88 57T124 92T161 134T191 171T207 192Q223 218 238 248T264 304T274 340Q274 346 269 346H266Q256 346 246 348T221 350Q207 350 191 346Q182 344 166 322T130 265T93 193T64 119T52 61Q52 44 62 44ZM304 434Q292 434 289 442T286
461Q286 479 303 496T337 513Q342 513 343 510Q343 497 337 479T331 455Q331 445 322 441T304 434ZM196 434Q186 434 183 442T179 461Q179 479 196 496T230 513Q234 513 235 510Q235 497 229 479T223 455Q223 445 214 441T196 434Z" />
<glyph unicode="&#xe5;" glyph-name="aring" horiz-adv-x="329" d="M30 -3Q6 -3 6 33Q6 61 17 102T46 189T85 273T129 338T171 363H174L185 371Q190 377 197 379T213 381Q233 381 255 373T285 365Q292 365 295 373T311 381Q325 381 330 375T336 359Q336 345 328
327T315 296Q314 292 306 290T296 283Q280 237 267 190T247 107T240 64Q240 39 254 39Q266 39 280 49T307 73T330 96T340 107Q342 107 342 103Q342 99 339 91T332 80Q322 71 301 53T256 18T214 2Q193 2 189 27Q189 45 195 73T208 132T222 182Q207 162 184 131T133
70T78 18T30 -3ZM62 44Q72 44 88 57T124 92T161 134T191 171T207 192Q223 218 238 248T264 304T274 340Q274 346 269 346H266Q256 346 246 348T221 350Q207 350 191 346Q182 344 166 322T130 265T93 193T64 119T52 61Q52 44 62 44ZM262 440Q240 440 225 451T209
480Q209 508 227 534T272 576T325 593Q351 593 366 577T381 541Q381 516 364 493T320 455T262 440ZM277 460Q306 460 325 485T345 541Q345 577 317 577Q304 577 287 566T258 534T245 490Q245 460 277 460Z" />
<glyph unicode="&#xe6;" glyph-name="ae" horiz-adv-x="470" d="M259 -10Q247 -10 232 -5T205 15T193 57Q193 84 202 117T221 181Q206 160 183 130T133 69T78 18T30 -3Q6 -3 6 33Q6 61 17 102T46 189T85 273T129 338T171 363H174L185 371Q190 377 197 379T213
381Q233 381 255 373T285 365Q292 365 295 373T311 381Q333 381 335 364Q345 367 363 369T389 372Q423 372 436 311Q442 280 442 261Q442 237 427 223T389 202T344 193T309 190Q296 190 287 190T273 191Q258 153 249 118T240 59Q240 19 270 19Q288 19 307 35T345
72T376 109T393 125Q400 125 400 117Q400 103 384 82T345 39T298 4T259 -10ZM62 44Q72 44 88 57T124 92T161 134T191 171T207 192Q223 218 238 248T264 304T274 340Q274 346 269 346H266Q256 346 246 348T221 350Q207 350 191 346Q182 344 166 322T130 265T93 193T64
119T52 61Q52 44 62 44ZM322 217Q360 217 379 225T400 263Q400 304 390 321T370 338Q358 338 345 324T319 289T296 250T282 219Q287 219 298 218T322 217Z" />
<glyph unicode="&#xe7;" glyph-name="ccedilla" horiz-adv-x="231" d="M65 -8Q39 -8 22 9T4 63Q4 99 17 143T50 230T90 303T127 341Q158 352 175 363T217 375Q237 375 250 365T264 328Q264 324 264 321T263 312Q260 294 251 284T234 274Q222 274 222 292Q222 302
226 314T230 337Q230 353 213 353Q204 353 189 345T159 325T137 307Q129 299 114 270T84 202T57 125T46 59Q46 22 75 22Q107 22 134 39T182 79T217 119T233 138Q238 136 238 131Q238 121 224 99T185 52T129 10T65 -8ZM206 -280Q202 -280 200 -277T197 -269Q197
-260 208 -258T237 -255T272 -250T301 -232T313 -192Q313 -177 300 -160T274 -123T261 -85Q261 -54 279 -26T331 2Q335 2 338 1T343 -5Q321 -9 309 -28T297 -68Q297 -82 311 -99T340 -136T355 -181Q355 -216 330 -238T270 -270T206 -280Z" />
<glyph unicode="&#xe8;" glyph-name="egrave" horiz-adv-x="253" d="M86 -10Q74 -10 59 -5T32 15T20 57Q20 68 23 83Q33 133 42 159T54 201Q51 202 45 206T39 217Q39 224 45 226T56 228H63Q71 245 80 265T109 319Q126 351 153 361T216 372Q250 372 263 311Q269
280 269 261Q269 237 254 223T216 202T171 193T136 190Q123 190 114 190T100 191Q85 153 76 118T67 59Q67 19 97 19Q115 19 134 35T172 72T203 109T220 125Q227 125 227 117Q227 103 211 82T172 39T125 4T86 -10ZM149 217Q187 217 206 225T227 263Q227 304 217
321T197 338Q185 338 172 324T146 289T123 250T109 219Q114 219 125 218T149 217ZM275 430Q278 430 278 433Q278 439 258 456T208 496T145 540Q140 543 136 543Q127 543 122 535T117 518V516Q117 509 124 505Q137 497 164 484T220 456T270 431Q272 430 275 430Z"
/>
<glyph unicode="&#xe9;" glyph-name="eacute" horiz-adv-x="253" d="M86 -10Q74 -10 59 -5T32 15T20 57Q20 68 23 83Q33 133 42 159T54 201Q51 202 45 206T39 217Q39 224 45 226T56 228H63Q71 245 80 265T109 319Q126 351 153 361T216 372Q250 372 263 311Q269
280 269 261Q269 237 254 223T216 202T171 193T136 190Q123 190 114 190T100 191Q85 153 76 118T67 59Q67 19 97 19Q115 19 134 35T172 72T203 109T220 125Q227 125 227 117Q227 103 211 82T172 39T125 4T86 -10ZM149 217Q187 217 206 225T227 263Q227 304 217
321T197 338Q185 338 172 324T146 289T123 250T109 219Q114 219 125 218T149 217ZM119 687Q116 687 116 690Q116 696 136 713T186 753T249 797Q254 800 258 800Q267 800 272 792T277 775V773Q277 766 270 762Q257 754 230 741T174 713T124 688Q122 687 119 687Z"
/>
<glyph unicode="&#xea;" glyph-name="ecircumflex" horiz-adv-x="253" d="M86 -10Q74 -10 59 -5T32 15T20 57Q20 68 23 83Q33 133 42 159T54 201Q51 202 45 206T39 217Q39 224 45 226T56 228H63Q71 245 80 265T109 319Q126 351 153 361T216 372Q250 372 263 311Q269
280 269 261Q269 237 254 223T216 202T171 193T136 190Q123 190 114 190T100 191Q85 153 76 118T67 59Q67 19 97 19Q115 19 134 35T172 72T203 109T220 125Q227 125 227 117Q227 103 211 82T172 39T125 4T86 -10ZM149 217Q187 217 206 225T227 263Q227 304 217
321T197 338Q185 338 172 324T146 289T123 250T109 219Q114 219 125 218T149 217ZM353 686Q351 686 352 689Q354 694 371 711T416 752T471 796Q474 799 477 799H479Q482 799 485 796Q506 780 522 757T548 714T555 689Q554 686 552 686Q551 686 550 687Q536 704
511 723T471 755Q457 746 436 734T394 709T357 687Q355 686 353 686Z" />
<glyph unicode="&#xeb;" glyph-name="edieresis" horiz-adv-x="253" d="M86 -10Q74 -10 59 -5T32 15T20 57Q20 68 23 83Q33 133 42 159T54 201Q51 202 45 206T39 217Q39 224 45 226T56 228H63Q71 245 80 265T109 319Q126 351 153 361T216 372Q250 372 263 311Q269
280 269 261Q269 237 254 223T216 202T171 193T136 190Q123 190 114 190T100 191Q85 153 76 118T67 59Q67 19 97 19Q115 19 134 35T172 72T203 109T220 125Q227 125 227 117Q227 103 211 82T172 39T125 4T86 -10ZM149 217Q187 217 206 225T227 263Q227 304 217
321T197 338Q185 338 172 324T146 289T123 250T109 219Q114 219 125 218T149 217ZM240 434Q228 434 225 442T222 461Q222 479 239 496T273 513Q278 513 279 510Q279 497 273 479T267 455Q267 445 258 441T240 434ZM132 434Q122 434 119 442T115 461Q115 479 132
496T166 513Q170 513 171 510Q171 497 165 479T159 455Q159 445 150 441T132 434Z" />
<glyph unicode="&#xec;" glyph-name="igrave" horiz-adv-x="168" d="M37 -6Q18 -6 18 12Q18 21 22 33Q44 96 58 136T80 200T91 236T94 257Q94 262 93 264T91 270Q91 274 94 283Q115 344 132 366T183 388Q197 388 198 379Q188 360 166 317T118 211T74 65Q73 62
73 57Q73 45 83 45Q89 45 102 52T129 67T150 75Q157 75 158 71Q158 65 143 53T107 27T67 4T37 -6ZM521 689Q518 689 516 690Q496 701 467 716T412 744T370 764Q363 767 363 777Q363 785 368 793T382 802Q387 802 391 799Q423 778 453 755T504 715T524 692Q524 689
521 689Z" />
<glyph unicode="&#xed;" glyph-name="iacute" horiz-adv-x="168" d="M37 -6Q18 -6 18 12Q18 21 22 33Q44 96 58 136T80 200T91 236T94 257Q94 262 93 264T91 270Q91 274 94 283Q115 344 132 366T183 388Q197 388 198 379Q188 360 166 317T118 211T74 65Q73 62
73 57Q73 45 83 45Q89 45 102 52T129 67T150 75Q157 75 158 71Q158 65 143 53T107 27T67 4T37 -6ZM119 690Q116 690 116 693Q116 699 136 716T186 756T249 800Q254 803 258 803Q267 803 272 795T277 778V776Q277 769 270 765Q257 757 230 744T174 716T124 691Q122
690 119 690Z" />
<glyph unicode="&#xee;" glyph-name="icircumflex" horiz-adv-x="168" d="M37 -6Q18 -6 18 12Q18 21 22 33Q44 96 58 136T80 200T91 236T94 257Q94 262 93 264T91 270Q91 274 94 283Q115 344 132 366T183 388Q197 388 198 379Q188 360 166 317T118 211T74 65Q73
62 73 57Q73 45 83 45Q89 45 102 52T129 67T150 75Q157 75 158 71Q158 65 143 53T107 27T67 4T37 -6ZM334 686Q332 686 333 689Q335 694 352 711T397 752T452 796Q455 799 458 799H460Q463 799 466 796Q487 780 503 757T529 714T536 689Q535 686 533 686Q532 686
531 687Q517 704 492 723T452 755Q438 746 417 734T375 709T338 687Q336 686 334 686Z" />
<glyph unicode="&#xef;" glyph-name="idieresis" horiz-adv-x="168" d="M37 -6Q18 -6 18 12Q18 21 22 33Q44 96 58 136T80 200T91 236T94 257Q94 262 93 264T91 270Q91 274 94 283Q115 344 132 366T183 388Q197 388 198 379Q188 360 166 317T118 211T74 65Q73
62 73 57Q73 45 83 45Q89 45 102 52T129 67T150 75Q157 75 158 71Q158 65 143 53T107 27T67 4T37 -6ZM477 434Q465 434 462 442T459 461Q459 479 476 496T510 513Q515 513 516 510Q516 497 510 479T504 455Q504 445 495 441T477 434ZM369 434Q359 434 356 442T352
461Q352 479 369 496T403 513Q407 513 408 510Q408 497 402 479T396 455Q396 445 387 441T369 434Z" />
<glyph unicode="&#xf0;" glyph-name="eth" horiz-adv-x="310" d="M75 -13Q51 -13 36 6T21 65Q21 75 22 86T25 111Q29 132 38 166T64 237T100 308T146 362T202 383Q214 383 224 380Q223 400 206 440T166 522Q144 511 117 497T77 483Q67 483 67 493Q67 504 80 513Q91
521 110 529T151 548Q138 570 122 588T95 619T84 639Q84 649 91 657T109 666Q121 666 136 649T167 608T191 566Q228 582 256 593T288 604Q292 604 292 602Q292 595 266 578T203 541Q230 487 246 421T263 288Q263 236 248 183T207 86T146 14T75 -13ZM94 11Q112 11
135 31T181 88T218 172T233 272V290Q233 310 229 323T207 337H200Q198 338 193 338Q179 338 163 319T132 270T104 207T82 146T70 102Q68 89 67 79T66 60Q66 11 94 11Z" />
<glyph unicode="&#xf1;" glyph-name="ntilde" horiz-adv-x="326" d="M208 -34Q194 -34 187 -25T179 9Q179 42 190 83T218 167T252 249T279 315Q284 328 284 335Q284 340 281 340Q276 340 259 322Q245 306 221 275T168 204T114 126T72 57T54 15Q54 11 45 3T25 -11T5
-17Q-2 -17 -3 -10Q-2 -11 6 9T25 63T49 131T71 196T85 239Q89 251 89 257Q89 262 88 264T86 270Q86 274 89 283Q104 324 115 347T140 379T177 388Q191 388 192 379Q185 364 172 336T143 273T114 203T94 139Q106 159 127 191T176 261T233 330T292 384T347 405Q355
405 361 403T367 392Q367 383 360 372Q336 333 312 283T267 182T234 86T221 12Q221 -6 229 -6Q232 -6 240 -1T256 9T268 14Q274 14 274 8Q274 0 264 -10T238 -27T208 -34ZM585 722Q568 722 552 729T519 742T486 749Q471 749 462 743T446 730T432 723Q430 723 430
725Q430 730 439 739T458 756T473 766Q489 776 509 776Q534 776 557 766T604 755Q618 755 628 760T646 776Q652 776 652 772Q652 757 637 746T605 729T585 722Z" />
<glyph unicode="&#xf2;" glyph-name="ograve" horiz-adv-x="261" d="M79 -19Q54 -19 38 1T21 65Q21 75 22 86T25 111Q28 128 37 160T62 231T96 303T139 360T190 382H197Q197 395 205 405T227 416Q238 415 243 398T251 358T262 318T284 298Q303 295 303 287Q303
279 284 269Q277 266 271 265T261 264Q261 201 243 149T197 60T137 2T79 -19ZM94 11Q112 11 135 31T181 88T218 172T233 272Q225 277 218 293T204 323T193 338Q179 338 163 319T132 270T104 207T82 146T70 102Q68 89 67 79T66 60Q66 11 94 11ZM294 450Q297 450
297 453Q297 459 277 476T227 516T164 560Q159 563 155 563Q146 563 141 555T136 538V536Q136 529 143 525Q156 517 183 504T239 476T289 451Q291 450 294 450Z" />
<glyph unicode="&#xf3;" glyph-name="oacute" horiz-adv-x="261" d="M79 -19Q54 -19 38 1T21 65Q21 75 22 86T25 111Q28 128 37 160T62 231T96 303T139 360T190 382H197Q197 395 205 405T227 416Q238 415 243 398T251 358T262 318T284 298Q303 295 303 287Q303
279 284 269Q277 266 271 265T261 264Q261 201 243 149T197 60T137 2T79 -19ZM94 11Q112 11 135 31T181 88T218 172T233 272Q225 277 218 293T204 323T193 338Q179 338 163 319T132 270T104 207T82 146T70 102Q68 89 67 79T66 60Q66 11 94 11ZM138 707Q135 707
135 710Q135 716 155 733T205 773T268 817Q273 820 277 820Q286 820 291 812T296 795V793Q296 786 289 782Q276 774 249 761T193 733T143 708Q141 707 138 707Z" />
<glyph unicode="&#xf4;" glyph-name="ocircumflex" horiz-adv-x="261" d="M79 -19Q54 -19 38 1T21 65Q21 75 22 86T25 111Q28 128 37 160T62 231T96 303T139 360T190 382H197Q197 395 205 405T227 416Q238 415 243 398T251 358T262 318T284 298Q303 295 303 287Q303
279 284 269Q277 266 271 265T261 264Q261 201 243 149T197 60T137 2T79 -19ZM94 11Q112 11 135 31T181 88T218 172T233 272Q225 277 218 293T204 323T193 338Q179 338 163 319T132 270T104 207T82 146T70 102Q68 89 67 79T66 60Q66 11 94 11ZM116 706Q114 706
115 709Q117 714 134 731T179 772T234 816Q237 819 240 819H242Q245 819 248 816Q269 800 285 777T311 734T318 709Q317 706 315 706Q314 706 313 707Q299 724 274 743T234 775Q220 766 199 754T157 729T120 707Q118 706 116 706Z" />
<glyph unicode="&#xf5;" glyph-name="otilde" horiz-adv-x="261" d="M79 -19Q54 -19 38 1T21 65Q21 75 22 86T25 111Q28 128 37 160T62 231T96 303T139 360T190 382H197Q197 395 205 405T227 416Q238 415 243 398T251 358T262 318T284 298Q303 295 303 287Q303
279 284 269Q277 266 271 265T261 264Q261 201 243 149T197 60T137 2T79 -19ZM94 11Q112 11 135 31T181 88T218 172T233 272Q225 277 218 293T204 323T193 338Q179 338 163 319T132 270T104 207T82 146T70 102Q68 89 67 79T66 60Q66 11 94 11ZM515 701Q498 701
482 708T450 721T417 728Q402 728 393 722T378 709T364 702Q362 702 362 704Q362 709 371 718T390 735T404 745Q420 755 440 755Q465 755 487 745T534 734Q548 734 557 739T575 755Q581 755 581 751Q581 736 566 725T535 708T515 701Z" />
<glyph unicode="&#xf6;" glyph-name="odieresis" horiz-adv-x="261" d="M79 -19Q54 -19 38 1T21 65Q21 75 22 86T25 111Q28 128 37 160T62 231T96 303T139 360T190 382H197Q197 395 205 405T227 416Q238 415 243 398T251 358T262 318T284 298Q303 295 303 287Q303
279 284 269Q277 266 271 265T261 264Q261 201 243 149T197 60T137 2T79 -19ZM94 11Q112 11 135 31T181 88T218 172T233 272Q225 277 218 293T204 323T193 338Q179 338 163 319T132 270T104 207T82 146T70 102Q68 89 67 79T66 60Q66 11 94 11ZM259 454Q247 454
244 462T241 481Q241 499 258 516T292 533Q297 533 298 530Q298 517 292 499T286 475Q286 465 277 461T259 454ZM151 454Q141 454 138 462T134 481Q134 499 151 516T185 533Q189 533 190 530Q190 517 184 499T178 475Q178 465 169 461T151 454Z" />
<glyph unicode="&#xf7;" glyph-name="divide" horiz-adv-x="406" d="M230 305Q213 305 201 315T188 340Q188 359 202 364T226 369Q239 369 253 360T268 335Q268 322 255 314T230 305ZM174 211Q154 211 128 212T76 216T35 223T19 235Q19 252 30 256T81 261Q101
261 129 261T198 260Q225 260 245 260T300 259Q326 259 352 260T396 262Q396 261 396 261T397 259Q397 252 381 246T339 234T288 226T239 219T207 213Q199 211 174 211ZM184 105Q167 105 155 115T142 140Q142 159 156 164T180 169Q193 169 207 160T222 135Q222
122 209 114T184 105Z" />
<glyph unicode="&#xf8;" glyph-name="oslash" horiz-adv-x="261" d="M35 -101Q22 -101 22 -80Q22 -64 27 -45T41 -3Q21 17 21 64Q21 75 22 86T25 111Q28 128 37 160T62 231T96 303T139 360T190 382H197Q197 395 205 405T227 416Q235 415 239 404T248 377Q270 411
285 431T303 452Q309 452 313 446Q315 442 315 438Q315 432 305 416T281 379T255 340Q261 315 272 306T293 295T303 287Q303 279 288 272T261 264Q261 201 243 149T197 60T137 2T78 -19Q68 -19 56 -14Q48 -33 44 -47T39 -72Q39 -81 43 -85T47 -91Q47 -95 42 -98T35
-101ZM66 53Q95 113 134 182T208 312Q202 323 202 330T193 338Q179 338 163 319T132 270T104 207T82 146T70 102Q68 91 67 81T66 63V53ZM93 11Q111 11 135 31T181 88T218 171T233 272Q227 275 221 286Q181 219 141 148T73 22Q80 11 93 11Z" />
<glyph unicode="&#xf9;" glyph-name="ugrave" horiz-adv-x="333" d="M170 -63Q157 -63 157 -52Q157 -42 172 -32T194 -5Q197 3 206 33T226 103T247 179T262 234Q251 217 229 188T178 125T121 61T65 11T21 -9Q7 -9 7 9Q7 24 18 52Q24 66 36 93T62 151T85 210T95
253Q95 260 93 262T91 270Q91 272 91 274T93 281Q104 322 113 345T137 377T175 386Q189 386 192 377Q188 367 175 336T145 262T111 178T83 106T72 68Q72 64 75 64Q79 64 85 69T99 80Q158 125 201 181T275 296Q276 311 282 334T305 375T347 393Q358 393 359 384Q354
368 339 327T306 238Q298 214 288 182T269 116T253 58T247 25Q247 22 249 22Q258 23 273 35T306 59T334 72Q336 72 339 71T342 67Q342 61 328 50T295 27T259 5T236 -9Q226 -17 215 -30T192 -53T170 -63ZM329 430Q332 430 332 433Q332 439 312 456T262 496T199 540Q194
543 190 543Q181 543 176 535T171 518V516Q171 509 178 505Q191 497 218 484T274 456T324 431Q326 430 329 430Z" />
<glyph unicode="&#xfa;" glyph-name="uacute" horiz-adv-x="333" d="M170 -63Q157 -63 157 -52Q157 -42 172 -32T194 -5Q197 3 206 33T226 103T247 179T262 234Q251 217 229 188T178 125T121 61T65 11T21 -9Q7 -9 7 9Q7 24 18 52Q24 66 36 93T62 151T85 210T95
253Q95 260 93 262T91 270Q91 272 91 274T93 281Q104 322 113 345T137 377T175 386Q189 386 192 377Q188 367 175 336T145 262T111 178T83 106T72 68Q72 64 75 64Q79 64 85 69T99 80Q158 125 201 181T275 296Q276 311 282 334T305 375T347 393Q358 393 359 384Q354
368 339 327T306 238Q298 214 288 182T269 116T253 58T247 25Q247 22 249 22Q258 23 273 35T306 59T334 72Q336 72 339 71T342 67Q342 61 328 50T295 27T259 5T236 -9Q226 -17 215 -30T192 -53T170 -63ZM173 687Q170 687 170 690Q170 696 190 713T240 753T303 797Q308
800 312 800Q321 800 326 792T331 775V773Q331 766 324 762Q311 754 284 741T228 713T178 688Q176 687 173 687Z" />
<glyph unicode="&#xfb;" glyph-name="ucircumflex" horiz-adv-x="333" d="M170 -63Q157 -63 157 -52Q157 -42 172 -32T194 -5Q197 3 206 33T226 103T247 179T262 234Q251 217 229 188T178 125T121 61T65 11T21 -9Q7 -9 7 9Q7 24 18 52Q24 66 36 93T62 151T85 210T95
253Q95 260 93 262T91 270Q91 272 91 274T93 281Q104 322 113 345T137 377T175 386Q189 386 192 377Q188 367 175 336T145 262T111 178T83 106T72 68Q72 64 75 64Q79 64 85 69T99 80Q158 125 201 181T275 296Q276 311 282 334T305 375T347 393Q358 393 359 384Q354
368 339 327T306 238Q298 214 288 182T269 116T253 58T247 25Q247 22 249 22Q258 23 273 35T306 59T334 72Q336 72 339 71T342 67Q342 61 328 50T295 27T259 5T236 -9Q226 -17 215 -30T192 -53T170 -63ZM151 686Q149 686 150 689Q152 694 169 711T214 752T269 796Q272
799 275 799H277Q280 799 283 796Q304 780 320 757T346 714T353 689Q352 686 350 686Q349 686 348 687Q334 704 309 723T269 755Q255 746 234 734T192 709T155 687Q153 686 151 686Z" />
<glyph unicode="&#xfc;" glyph-name="udieresis" horiz-adv-x="333" d="M170 -63Q157 -63 157 -52Q157 -42 172 -32T194 -5Q197 3 206 33T226 103T247 179T262 234Q251 217 229 188T178 125T121 61T65 11T21 -9Q7 -9 7 9Q7 24 18 52Q24 66 36 93T62 151T85 210T95
253Q95 260 93 262T91 270Q91 272 91 274T93 281Q104 322 113 345T137 377T175 386Q189 386 192 377Q188 367 175 336T145 262T111 178T83 106T72 68Q72 64 75 64Q79 64 85 69T99 80Q158 125 201 181T275 296Q276 311 282 334T305 375T347 393Q358 393 359 384Q354
368 339 327T306 238Q298 214 288 182T269 116T253 58T247 25Q247 22 249 22Q258 23 273 35T306 59T334 72Q336 72 339 71T342 67Q342 61 328 50T295 27T259 5T236 -9Q226 -17 215 -30T192 -53T170 -63ZM294 434Q282 434 279 442T276 461Q276 479 293 496T327 513Q332
513 333 510Q333 497 327 479T321 455Q321 445 312 441T294 434ZM186 434Q176 434 173 442T169 461Q169 479 186 496T220 513Q224 513 225 510Q225 497 219 479T213 455Q213 445 204 441T186 434Z" />
<glyph unicode="&#xfd;" glyph-name="yacute" horiz-adv-x="317" d="M-71 -330Q-87 -330 -87 -311Q-87 -286 -70 -249T-26 -171T26 -93T70 -29T91 2Q97 20 99 43T102 92Q102 142 96 189T77 267T44 298Q40 298 36 298T30 297Q26 297 26 302Q26 305 30 311T48 326Q53
330 59 340T73 359T86 368Q101 368 113 338T132 260T140 160Q140 148 140 136T139 112Q139 96 147 96Q157 96 176 117T217 170T261 236T295 298T309 337Q309 343 304 343Q301 343 297 341T289 339Q284 339 281 344Q281 353 295 363T328 381T357 389Q362 389 364
388Q367 384 367 377Q367 362 353 333T315 269T265 196T212 125T167 67T139 33Q139 40 137 30T131 2T122 -30T110 -45Q105 -45 100 -43T92 -40Q18 -140 -12 -194T-43 -272Q-43 -284 -39 -290T-35 -303Q-35 -314 -47 -322T-71 -330ZM139 687Q136 687 136 690Q136
696 156 713T206 753T269 797Q274 800 278 800Q287 800 292 792T297 775V773Q297 766 290 762Q277 754 250 741T194 713T144 688Q142 687 139 687Z" />
<glyph unicode="&#xfe;" glyph-name="thorn" horiz-adv-x="219" d="M-56 -276Q-68 -276 -68 -251Q-68 -237 -61 -210T-41 -147T-16 -76T10 -7T29 45Q26 53 26 62Q26 72 31 82T48 99Q57 128 69 166T94 241T114 307T126 346Q126 348 115 348T104 355Q104 362 111
366T127 372T135 376Q167 461 186 522T222 616T260 649Q267 649 267 641Q267 635 261 621Q260 618 251 594T230 534T205 463T184 404T174 378Q199 361 216 338T246 287Q258 259 267 221T276 143Q276 105 264 70T224 13T144 -9Q121 -9 96 -3T54 17Q35 -38 17 -90T-16
-186Q-17 -188 -17 -190Q-17 -195 -14 -199T-10 -211Q-10 -216 -16 -232T-33 -262T-56 -276ZM134 16Q171 16 193 33T224 76T234 131Q234 144 233 157T229 183Q221 222 208 255T183 309T164 329Q162 329 154 305T135 245T111 171T88 102L66 39Q86 26 102 21T134
16Z" />
<glyph unicode="&#xff;" glyph-name="ydieresis" horiz-adv-x="317" d="M-71 -330Q-87 -330 -87 -311Q-87 -286 -70 -249T-26 -171T26 -93T70 -29T91 2Q97 20 99 43T102 92Q102 142 96 189T77 267T44 298Q40 298 36 298T30 297Q26 297 26 302Q26 305 30 311T48
326Q53 330 59 340T73 359T86 368Q101 368 113 338T132 260T140 160Q140 148 140 136T139 112Q139 96 147 96Q157 96 176 117T217 170T261 236T295 298T309 337Q309 343 304 343Q301 343 297 341T289 339Q284 339 281 344Q281 353 295 363T328 381T357 389Q362
389 364 388Q367 384 367 377Q367 362 353 333T315 269T265 196T212 125T167 67T139 33Q139 40 137 30T131 2T122 -30T110 -45Q105 -45 100 -43T92 -40Q18 -140 -12 -194T-43 -272Q-43 -284 -39 -290T-35 -303Q-35 -314 -47 -322T-71 -330ZM260 434Q248 434 245
442T242 461Q242 479 259 496T293 513Q298 513 299 510Q299 497 293 479T287 455Q287 445 278 441T260 434ZM152 434Q142 434 139 442T135 461Q135 479 152 496T186 513Q190 513 191 510Q191 497 185 479T179 455Q179 445 170 441T152 434Z" />
<glyph unicode="&#x2013;" glyph-name="endash" horiz-adv-x="397" d="M37 138Q25 138 25 149Q25 156 29 162T39 168H118Q137 168 171 168T241 167T306 165T341 164Q361 163 391 162T436 152Q441 149 441 147Q441 138 404 138H37Z" />
<glyph unicode="&#x2014;" glyph-name="emdash" horiz-adv-x="606" d="M37 138Q25 138 25 149Q25 156 29 162T39 168H118Q199 168 278 167T424 164T534 159T584 152Q589 149 589 147Q589 138 552 138H37Z" />
<glyph unicode="&#x2018;" glyph-name="quoteleft" horiz-adv-x="221" d="M64 402Q54 402 50 412T44 432T42 444Q42 454 46 458T52 469Q65 511 87 544T134 600T178 634T207 646Q212 646 212 641H211Q199 629 182 609T148 567T120 525T109 492Q109 484 116 476T123
457Q123 437 108 426L106 425H107Q107 425 100 420T83 408T64 402Z" />
<glyph unicode="&#x2019;" glyph-name="quoteright" horiz-adv-x="209" d="M141 329Q137 329 137 333V335Q149 347 166 366T199 408T227 450T238 483Q238 490 234 494L233 495Q224 504 224 517Q224 536 240 549L242 550Q242 550 249 555T266 566T284 572Q294 572
298 564Q305 542 305 531Q305 521 301 518T295 506L296 505Q282 463 260 431T213 375T170 341T141 329Z" />
<glyph unicode="&#x201a;" glyph-name="quotesinglbase" horiz-adv-x="255" d="M72 -4Q68 -4 68 0V2Q80 14 97 33T130 75T158 117T169 150Q169 157 165 161L164 162Q155 171 155 182Q155 196 165 208T188 229T214 238Q223 238 229 231Q233 220 234 212T235 198Q235
185 231 179T224 164Q211 127 189 96T143 43T100 8T72 -4Z" />
<glyph unicode="&#x201c;" glyph-name="quotedblleft" horiz-adv-x="275" d="M195 411Q186 411 182 420T176 440T174 453Q174 463 178 466T184 477Q198 519 220 552T266 608T310 642T338 654Q343 654 343 650V649Q331 637 314 617T280 575T252 533T241 500Q241
492 248 484T255 465Q255 445 240 434L238 433V434Q238 434 231 429T214 417T195 411ZM64 402Q54 402 50 412T44 432T42 444Q42 454 46 458T52 469Q65 511 87 544T134 600T178 634T207 646Q212 646 212 641H211Q199 629 182 609T148 567T120 525T109 492Q109 484
116 476T123 457Q123 437 108 426L106 425H107Q107 425 100 420T83 408T64 402Z" />
<glyph unicode="&#x201d;" glyph-name="quotedblright" horiz-adv-x="406" d="M224 404Q220 404 220 408V409L221 410Q233 422 250 441T283 482T310 524T321 557Q321 565 317 569V570Q308 579 308 592Q308 612 323 624L325 625Q325 625 332 630T349 641T367 647Q377
647 381 639Q388 617 388 606Q388 596 385 593T379 581V580Q365 538 343 506T296 450T253 416T224 404ZM94 396Q89 396 89 401H90Q102 413 119 432T152 474T180 516T191 549Q191 557 187 561L186 562Q177 571 177 584Q177 603 193 616L194 617V616Q194 616 201
622T218 633T237 639Q247 639 251 631Q258 609 258 598Q258 588 254 585T248 573L249 572Q235 530 213 498T166 442T123 408T94 396Z" />
<glyph unicode="&#x201e;" glyph-name="quotedblbase" horiz-adv-x="447" d="M239 -4Q235 -4 235 0V2Q247 14 264 33T297 75T325 117T336 150Q336 157 332 161L331 162Q322 171 322 182Q322 196 331 208T355 229T381 238Q390 238 396 231Q400 220 401 212T402
198Q402 185 398 179T391 164Q378 127 356 96T310 43T267 8T239 -4ZM72 -4Q68 -4 68 0V2Q80 14 97 33T130 75T158 117T169 150Q169 157 165 161L164 162Q155 171 155 182Q155 196 165 208T188 229T214 238Q223 238 229 231Q233 220 234 212T235 198Q235 185 231
179T224 164Q211 127 189 96T143 43T100 8T72 -4Z" />
<glyph unicode="&#x2022;" glyph-name="bullet" horiz-adv-x="537" d="M271 20Q211 20 162 49T83 127T54 236Q54 296 83 345T161 423T270 453Q330 453 379 424T457 346T487 237Q487 177 458 128T380 50T271 20Z" />
<glyph unicode="&#x2039;" glyph-name="guilsinglleft" horiz-adv-x="324" d="M181 -3Q183 -1 171 18T142 64T108 116T83 155Q59 192 39 220T14 259Q14 259 15 272T22 288Q22 288 39 301T83 336T143 383T206 434T261 479T295 509Q296 510 298 510Q301 510 301
501Q301 488 297 470T287 447Q264 431 232 407T165 357T102 308T57 269Q72 240 95 205T142 138T180 82T196 55Q196 30 190 14T181 -3Z" />
<glyph unicode="&#x203a;" glyph-name="guilsinglright" horiz-adv-x="371" d="M67 -10Q64 -10 64 0Q64 12 69 31T78 54Q101 71 133 94T200 144T263 193T308 232Q293 261 270 296T223 363T184 418T168 445Q168 470 174 486T182 504Q181 502 193 483T222 436T256
384T282 346Q305 309 325 281T351 242Q351 242 350 229T343 213Q343 213 326 200T282 165T222 118T159 67T105 22T70 -8Q68 -10 67 -10Z" />
</font>
</defs>
</svg>
