<?xml version="1.0" standalone="no"?>
<!DOCTYPE svg PUBLIC "-//W3C//DTD SVG 1.1//EN" "http://www.w3.org/Graphics/SVG/1.1/DTD/svg11.dtd">
<svg xmlns="http://www.w3.org/2000/svg">
<defs >
<font id="Merienda" horiz-adv-x="550" ><font-face
    font-family="Merienda"
    units-per-em="1000"
    panose-1="0 0 0 0 0 0 0 0 0 0"
    ascent="1102"
    descent="-342"
    alphabetic="0" />
<glyph unicode=" " horiz-adv-x="330" />
<glyph unicode="!" horiz-adv-x="286" d="M243 703Q243 673 233 630T208 533T183 417T172 287Q172 264 174 247T180 218Q147 230 127 250T98 298T89 366Q89 428 101 489T126 614T139 748Q139 761 139 773T136 798Q148 798 166 793T201 777T231 748T243 703ZM168
-1Q155 -5 139 -8T108 -11Q93 -11 78 -7T53 10T43 43Q43 62 49 80T61 116Q75 121 90 123T121 126Q137 126 151 122T176 105T186 72Q186 53 180 35T168 -1Z" />
<glyph unicode="&quot;" horiz-adv-x="338" d="M183 762Q183 739 172 715T150 661T139 591Q139 567 145 540Q110 540 92 552T67 583T60 625Q60 654 68 679T85 731T93 788Q93 797 92 807T87 827Q105 827 127 823T166 805T183 762ZM338 762Q338 739 327 715T305
661T294 591Q294 567 300 540Q265 540 247 552T222 583T215 625Q215 654 223 679T240 731T248 788Q248 797 247 807T242 827Q260 827 282 823T321 805T338 762Z" />
<glyph unicode="#" horiz-adv-x="772" d="M617 547Q694 547 725 526T757 454Q757 450 757 445T756 435Q703 440 652 442T541 444Q465 444 387 438T214 432Q138 432 107 453T75 525Q75 530 75 534T76 544Q131 540 181 538T290 535Q366 535 444 541T617 547ZM557
285Q634 285 665 264T697 192Q697 188 697 183T696 173Q660 176 626 178T556 181T482 182Q406 182 328 176T155 170Q79 170 47 191T15 263Q15 268 15 272T16 282Q71 278 121 276T230 273Q306 273 384 279T557 285ZM166 -41Q135 -37 114 -13T93 46Q93 70 107 116T145
223T194 351T247 487T292 617T320 727Q352 723 372 699T393 640Q393 616 379 570T341 463T292 335T239 199T194 69T166 -41ZM437 -41Q406 -37 385 -13T364 46Q364 70 378 116T416 223T465 351T518 487T563 617T591 727Q623 723 643 699T664 640Q664 616 650 570T612
463T563 335T510 199T465 69T437 -41Z" />
<glyph unicode="$" horiz-adv-x="599" d="M270 -25Q208 -25 160 -5T84 52T56 135Q56 168 70 192T108 231T164 245Q172 245 178 245T190 242Q177 222 170 200T163 155Q163 103 195 71T280 38Q329 38 360 66T392 140Q392 176 372 205T319 261T249 315T180 372T127
441T106 529Q106 584 133 624T208 687T320 710Q377 710 421 691T490 637T516 558Q516 511 485 480T407 448Q397 448 389 449T374 451Q394 472 405 500T416 556Q416 599 389 625T316 652Q269 652 240 624T211 549Q211 509 232 477T286 417T356 362T427 306T481 242T502
161Q502 107 473 65T391 -1T270 -25ZM324 868Q324 868 331 859T348 831T365 789T372 736Q372 698 363 631T340 480T311 303T284 121T267 -48T268 -182Q268 -182 256 -177T228 -158T199 -120T187 -56Q187 -15 198 55T225 213T260 394T295 578T319 743T324 868Z"
/>
<glyph unicode="%" horiz-adv-x="887" d="M212 656Q183 656 158 630T118 560T102 466Q102 409 122 375T177 340Q206 340 228 364T263 432T276 529Q276 588 259 622T212 656ZM188 686Q224 700 249 700Q298 700 325 659T353 546Q353 475 329 417T264 326T171 292Q105
292 66 342T27 477Q27 535 45 583T95 665T171 710L188 686ZM530 768Q546 754 556 725T567 665Q567 641 554 594T518 483T470 346T419 197T375 50T348 -82Q319 -78 300 -51T280 14Q280 41 295 92T336 210T391 352T449 503T499 647T530 768ZM719 340Q690 340 665
314T625 244T609 150Q609 93 629 59T684 24Q713 24 735 48T770 116T783 213Q783 272 766 306T719 340ZM695 370Q731 384 756 384Q805 384 832 343T860 230Q860 159 836 101T771 10T678 -24Q612 -24 573 26T534 161Q534 219 552 267T602 349T678 394L695 370Z" />
<glyph unicode="&amp;" horiz-adv-x="620" d="M201 590Q201 505 264 464T441 422Q492 422 551 433T667 468Q667 451 665 432T656 395T634 367T592 356H526Q520 316 513 271T499 177T486 80T477 -14T473 -103Q473 -147 481 -180T497 -230Q454 -214 431 -188T400
-124T391 -32Q391 -21 392 -3T394 34T396 63Q375 28 345 7T281 -24T219 -33Q168 -33 124 -11T52 54T24 162Q24 216 53 265T136 349T264 395Q205 415 169 446T117 515T100 587Q100 637 127 681T202 753T313 781Q408 781 455 740T503 637Q503 609 490 581T450 535T387
516Q379 516 369 517T345 521Q373 552 386 579T400 638Q400 677 375 696T318 715Q282 715 256 697T215 650T201 590ZM258 40Q303 40 332 58T379 106T406 173T421 248L436 357Q400 357 359 353T278 338T204 307T151 254T131 173Q131 106 167 73T258 40Z" />
<glyph unicode="&apos;" horiz-adv-x="183" d="M183 762Q183 739 172 715T150 661T139 591Q139 567 145 540Q110 540 92 552T67 583T60 625Q60 654 68 679T85 731T93 788Q93 797 92 807T87 827Q105 827 127 823T166 805T183 762Z" />
<glyph unicode="(" horiz-adv-x="359" d="M349 765Q288 719 242 644T170 475T144 282Q144 222 156 162T189 46T240 -52T302 -121Q302 -128 295 -134T280 -143Q198 -97 144 -35T62 108T35 287Q35 373 54 448T111 588T204 702T331 787Q339 785 347 778T349 765Z" />
<glyph unicode=")" horiz-adv-x="359" d="M10 -121Q71 -75 117 0T189 169T215 362Q215 422 203 482T170 598T119 696T57 765Q57 772 64 778T79 787Q161 742 215 679T297 536T324 357Q324 271 305 196T248 56T155 -58T28 -143Q21 -141 13 -133T10 -121Z" />
<glyph unicode="*" horiz-adv-x="522" d="M416 573Q400 590 382 610T346 647T318 673Q318 668 319 656T322 633T324 614Q324 591 320 568T305 530T271 515Q259 515 239 525T195 556Q208 569 221 590T244 634T260 671Q247 665 226 657T184 643T149 637Q121 637
107 651T92 691Q92 704 96 719T110 754Q129 746 153 740T200 730T241 726Q229 739 213 761T185 806T173 847Q173 867 184 877T212 891T245 895Q252 895 261 895T277 893Q275 878 274 868T273 854Q273 842 275 824T280 789T288 760Q296 774 308 792T336 828T367
858T396 870Q405 870 417 860T441 831T458 782Q437 778 413 769T367 748T332 727Q345 724 367 717T413 698T453 673T470 643Q470 629 457 609T416 573Z" />
<glyph unicode="+" horiz-adv-x="620" d="M278 109Q271 109 262 109T243 111Q253 159 256 208T261 307Q239 306 215 305T164 304Q118 304 96 315T67 345T60 388Q60 393 60 397T61 406Q96 402 137 400T219 398Q230 398 241 398T263 399Q263 425 264 451T267 505Q271
556 287 579T342 603Q350 603 359 603T376 601Q366 553 363 504T358 405Q381 407 405 408T456 409Q502 409 524 398T553 368T560 325Q560 321 560 317T559 307Q525 312 484 313T401 315Q390 315 379 315T356 314Q355 288 355 262T352 207Q348 157 332 133T278 109Z"
/>
<glyph unicode="," horiz-adv-x="228" d="M59 115Q73 120 90 123T124 126Q140 126 154 121T178 103T188 64Q188 5 147 -51T24 -152L0 -122Q36 -87 55 -45T74 40Q74 59 70 77T59 115Z" />
<glyph unicode="-" horiz-adv-x="481" d="M81 229Q77 243 76 252T75 274Q75 327 102 351T191 375Q214 375 237 374T288 372Q330 372 357 380T400 404Q404 390 405 381T406 359Q406 306 379 282T290 258Q268 258 245 259T193 261Q151 261 125 254T81 229Z" />
<glyph unicode="." horiz-adv-x="223" d="M165 -1Q152 -5 136 -8T105 -11Q90 -11 75 -7T50 10T40 43Q40 62 46 80T58 116Q72 121 87 123T118 126Q134 126 148 122T173 105T183 72Q183 53 177 35T165 -1Z" />
<glyph unicode="/" horiz-adv-x="413" d="M364 868Q385 854 399 825T413 765Q413 744 397 695T354 578T294 428T227 262T163 94T112 -60T84 -182Q60 -179 41 -166T11 -132T0 -86Q0 -63 18 -11T65 113T131 268T205 438T276 606T332 755T364 868Z" />
<glyph unicode="0" horiz-adv-x="644" d="M360 632Q319 632 284 603T221 526T179 418T164 299Q164 231 178 174T223 81T301 46Q344 46 376 74T431 151T465 258T477 380Q477 474 461 529T418 608T360 632ZM318 668Q346 681 370 687T417 693Q473 693 510 658T565
563T584 429Q584 367 573 303T539 180T479 76T393 4T279 -23Q239 -23 200 -4T130 54T79 155T60 301Q60 403 89 488T170 631T292 710Q316 710 318 668Z" />
<glyph unicode="1" horiz-adv-x="531" d="M144 501Q127 501 115 513T95 544T84 579T80 605Q99 609 133 618T210 641T298 672T386 710Q384 671 381 653T373 629T362 620Q347 611 323 596T272 565T218 534T172 510T144 501ZM40 -21Q40 -20 42 -9T50 18T71 50T111
77T174 88Q210 88 249 87T328 85T407 90T481 110Q477 43 457 12T381 -19Q358 -19 329 -15T264 -6T187 -1Q151 -1 113 -5T40 -21ZM218 43L278 611L386 710Q386 662 380 599T366 465T348 319T333 174T327 42L218 43Z" />
<glyph unicode="2" horiz-adv-x="569" d="M-10 -21Q-10 -5 -1 11T23 41T59 66T103 83T150 89Q157 89 164 89T181 89T208 88Q254 88 299 90T385 97T457 107T505 120Q501 55 470 18T387 -19Q367 -19 333 -15T255 -6T156 -1Q109 -1 67 -6T-10 -21ZM194 441Q161 441
136 454T96 492T82 548Q82 594 109 630T184 688T289 710Q355 710 404 687T481 622T509 524Q509 465 481 402T398 275T269 151T99 39L35 41Q104 88 161 136T262 231T335 326T380 418T396 506Q396 567 366 603T286 639Q242 639 215 611T187 539Q187 514 196 490T225
444Q218 443 210 442T194 441Z" />
<glyph unicode="3" d="M138 132Q138 91 165 67T240 43Q296 43 331 81T367 178Q367 221 347 254T291 309T208 333L205 355Q216 358 233 360T268 364T302 366Q354 366 394 344T457 283T480 193Q480 130 449 81T364 4T239 -25Q179 -25 132 -6T59 47T32 125Q32 158
46 183T86 222T144 237Q167 237 185 230Q163 214 151 188T138 132ZM179 359Q235 369 278 395T346 460T371 543Q371 587 346 612T278 638Q238 638 214 615T189 552Q189 530 198 509T224 468Q215 466 206 465T189 463Q146 463 120 490T93 561Q93 604 117 637T185
690T282 710Q338 710 380 689T447 630T471 544Q471 488 437 443T338 367T184 325L179 359Z" />
<glyph unicode="4" horiz-adv-x="562" d="M18 254Q94 359 146 451T230 621T275 759Q290 752 303 741T325 716T339 689T345 661Q345 633 329 594T284 509T222 412T151 309T82 207L18 254ZM40 180Q34 186 29 197T21 224T18 254Q92 254 153 255T269 259T382 267T505
280Q509 269 510 257T512 231Q512 209 504 195T480 174T436 167L40 180ZM456 385Q456 356 452 330T442 271T432 194T427 82Q427 62 428 45T431 13T435 -10Q423 -13 410 -14T389 -15Q357 -15 340 6T322 80Q322 105 327 139T339 221T351 332T357 476Q368 477 374
477T385 478Q422 478 439 456T456 385Z" />
<glyph unicode="5" horiz-adv-x="563" d="M251 -25Q192 -25 147 -6T76 47T50 127Q50 161 64 187T101 229T156 244Q168 244 179 244T195 241Q156 198 156 145Q156 99 182 73T255 46Q317 46 355 89T394 199Q394 253 371 292T304 352T201 374Q178 374 153 371T99
361L157 692L203 673L225 646L190 428Q204 430 221 431T254 433Q330 433 386 406T475 331T507 217Q507 148 474 94T382 7T251 -25ZM504 708Q508 701 510 686T513 654Q513 620 499 605T456 589Q443 589 411 592T337 601T254 613T183 626Q151 633 136 650T116 700Q141
696 173 695T247 693Q286 693 331 695T422 700T504 708Z" />
<glyph unicode="6" horiz-adv-x="596" d="M125 334Q169 362 220 377T317 392Q378 392 423 369T493 302T519 202Q519 154 501 113T449 41T373 -7T278 -25Q207 -25 156 10T78 111T50 271Q50 365 72 445T136 584T232 677T352 710Q402 710 441 692T503 641T526 569Q526
542 515 522T483 491T435 480Q412 480 393 490Q408 500 416 521T425 564Q425 600 404 621T348 643Q308 643 273 613T212 528T170 403T155 251Q155 153 187 100T277 46Q316 46 346 65T393 117T410 195Q410 255 375 289T280 324Q249 324 209 314T135 286L125 334Z"
/>
<glyph unicode="7" horiz-adv-x="496" d="M54 708Q89 704 134 701T227 696T316 694Q357 694 391 695T452 700L411 629Q336 617 273 608T166 594T105 589Q74 589 60 605T45 656Q45 670 47 684T54 708ZM457 811Q479 792 492 767T506 720Q506 691 486 641T434 528T365
392T292 245T232 99T197 -35Q157 -27 130 -3T103 51Q103 83 126 137T186 258T267 401T350 550T419 691T457 811Z" />
<glyph unicode="8" horiz-adv-x="577" d="M264 350L281 317Q217 270 187 228T157 142Q157 95 186 66T264 36Q300 36 330 51T379 92T398 147Q398 179 377 206T324 260T254 313T185 372T131 442T110 528Q110 582 139 623T220 687T341 710Q429 710 478 671T527 561Q527
492 479 434T351 349L313 377Q432 460 432 551Q432 596 406 622T336 648Q287 648 254 618T221 541Q221 504 242 474T296 417T365 362T435 305T489 238T510 157Q510 103 480 62T395 -2T269 -25Q204 -25 155 -4T78 55T50 142Q50 188 76 228T151 301T264 350Z" />
<glyph unicode="9" horiz-adv-x="599" d="M475 351Q434 323 384 308T283 293Q223 293 178 317T107 383T81 483Q81 547 113 598T199 679T320 710Q393 710 444 671T523 558T550 378Q550 286 530 212T472 84T381 3T262 -25Q208 -25 166 -7T99 43T74 115Q74 142 85
162T117 193T165 205Q190 205 207 195Q193 186 184 166T175 121Q175 85 199 64T263 42Q319 42 360 84T423 206T445 392Q445 639 319 639Q282 639 253 620T207 567T190 491Q190 431 225 396T320 361Q352 361 391 371T465 399L475 351Z" />
<glyph unicode=":" horiz-adv-x="232" d="M165 -1Q152 -5 136 -8T105 -11Q90 -11 75 -7T50 10T40 43Q40 62 46 80T58 116Q72 121 87 123T118 126Q134 126 148 122T173 105T183 72Q183 53 177 35T165 -1ZM194 413Q181 409 165 406T134 403Q119 403 104 407T79 424T69
457Q69 476 75 494T87 530Q101 535 116 537T147 540Q163 540 177 536T202 519T212 486Q212 467 206 449T194 413Z" />
<glyph unicode=";" horiz-adv-x="232" d="M59 115Q73 120 90 123T124 126Q140 126 154 121T178 103T188 64Q188 5 147 -51T24 -152L0 -122Q36 -87 55 -45T74 40Q74 59 70 77T59 115ZM194 413Q181 409 165 406T134 403Q119 403 104 407T79 424T69 457Q69 476 75
494T87 530Q101 535 116 537T147 540Q163 540 177 536T202 519T212 486Q212 467 206 449T194 413Z" />
<glyph unicode="&lt;" horiz-adv-x="620" d="M104 316Q85 337 85 365Q85 393 104 420Q169 451 222 486T321 553T405 605T478 625Q499 625 512 607T535 551Q481 531 424 498T311 430T205 368Q255 342 310 307T422 240T535 185Q526 148 513 130T478 111Q444 111
406 131T322 182T223 249T104 316Z" />
<glyph unicode="=" horiz-adv-x="620" d="M456 545Q512 545 536 529T560 471Q560 464 560 457T557 443Q526 447 486 449T401 451Q345 451 289 446T164 440Q108 440 84 457T60 514Q60 521 61 528T63 542Q95 538 135 536T219 534Q275 534 331 539T456 545ZM456 529Q512
529 536 513T560 455Q560 448 560 441T557 427Q526 431 486 433T401 435Q345 435 289 430T164 424Q108 424 84 441T60 498Q60 505 61 512T63 526Q95 522 135 520T219 518Q275 518 331 523T456 529Z" />
<glyph unicode="&gt;" horiz-adv-x="620" d="M516 420Q535 399 535 371Q535 343 516 316Q452 285 398 250T299 183T215 131T142 111Q121 111 108 129T85 185Q140 205 197 238T309 306T415 368Q365 395 310 429T198 497T85 551Q94 589 107 607T142 625Q176 625
214 605T298 554T398 487T516 420Z" />
<glyph unicode="?" horiz-adv-x="458" d="M130 310Q130 352 153 384T210 443T278 497T335 557T358 631Q358 672 333 696T263 721Q220 721 193 695T165 628Q165 590 190 560Q182 556 173 554T153 552Q119 552 97 575T75 634Q75 674 101 706T173 757T274 776Q330
776 371 757T435 704T458 622Q458 577 440 544T394 484T335 434T275 386T229 331T211 262Q211 248 214 233T222 206Q191 216 171 231T140 265T130 310ZM227 -1Q214 -5 198 -8T167 -11Q152 -11 137 -7T112 10T102 43Q102 62 108 80T120 116Q134 121 149 123T180
126Q196 126 210 122T235 105T245 72Q245 53 239 35T227 -1Z" />
<glyph unicode="@" horiz-adv-x="1027" d="M594 535H631Q663 535 678 521T694 463Q694 433 686 389T668 288T659 167Q659 124 671 96T720 67Q740 67 763 85T808 139T844 232T858 365Q858 448 835 505T774 597T689 647T593 663Q486 663 406 625T273 523T194 381T167
222Q167 138 188 81T246 -10T327 -60T418 -75Q459 -75 496 -61T565 -22Q572 -46 572 -65Q572 -99 550 -122T492 -157T411 -169Q349 -169 288 -145T177 -73T96 47T65 218Q65 292 88 364T155 501T265 614T414 692T602 720Q652 720 703 709T800 672T883 605T941 506T962
369Q962 280 937 211T873 95T788 24T701 0Q657 0 632 20T598 82T588 184Q588 196 589 211T591 236H583Q552 159 505 124T414 89Q371 89 341 126T310 245Q310 292 323 341T364 433T432 501T527 527Q550 527 568 522T602 507L603 491Q549 488 505 456T433 370T406
245Q406 211 421 189T468 166Q494 166 518 189T561 253T592 341T603 440Q603 447 602 466T599 505T594 535Z" />
<glyph unicode="A" horiz-adv-x="645" d="M352 707Q332 657 304 591T243 447T180 288T121 125T76 -33Q44 -19 26 -6T2 19T-5 44Q-5 57 12 99T57 203T119 339T189 492T256 643T308 776L352 707ZM473 64Q466 85 456 128T434 230T408 354T379 485T349 608T318 708Q305
743 290 761T263 793Q279 799 294 802T322 805Q358 805 381 784T421 722T451 624T480 493Q501 396 519 304T562 136T620 12Q600 0 578 -8T541 -16Q510 -16 497 4T473 64ZM167 306H436Q433 278 417 264T380 244T337 238L145 231L167 306Z" />
<glyph unicode="B" horiz-adv-x="679" d="M90 43Q100 102 109 174T127 322T142 473T152 610T156 719Q156 772 153 799T142 847Q185 833 210 812T246 759Q287 779 335 790T428 802Q484 802 525 782T588 725T611 636Q611 586 589 544T525 470T422 418Q465 408 499
389T557 343T593 283T606 212Q606 161 585 118T527 43T438 -6T324 -24Q282 -24 241 -16T161 7T90 43ZM378 738Q347 738 315 731T258 712Q258 679 254 628T244 515T232 388T219 260T209 144T205 55Q232 46 257 42T309 37Q400 37 451 85T503 215Q503 268 478 306T405
366T286 392L283 428Q356 438 406 462T482 526T508 616Q508 655 493 682T449 724T378 738Z" />
<glyph unicode="C" horiz-adv-x="687" d="M570 195Q584 195 597 186T611 168Q566 78 491 27T327 -25Q246 -25 186 19T93 145T60 337Q60 441 87 527T163 675T281 772T431 806Q526 806 581 757T637 625Q637 582 621 549T577 497T511 478Q503 478 492 480T467 486Q484
504 497 530T517 585T525 640Q525 692 499 720T425 748Q372 748 326 716T244 626T188 493T168 331Q168 243 191 178T256 78T355 43Q417 43 475 84T570 195Z" />
<glyph unicode="D" horiz-adv-x="760" d="M246 759Q296 782 336 792T419 802Q506 802 571 755T672 622T709 423Q709 326 682 246T604 107T484 17T330 -15Q288 -15 243 -6T157 18T90 53Q102 115 112 183T130 320T144 458T153 592T156 714Q156 752 155 776T151 816T142
847Q185 833 210 812T246 759ZM206 70Q226 57 251 51T303 45Q399 45 466 90T568 221T604 428Q604 520 577 589T501 696T386 735Q354 735 320 726T259 702Q259 664 254 602T241 465T225 315T212 176T206 70Z" />
<glyph unicode="E" horiz-adv-x="599" d="M120 21Q116 36 113 54T110 92Q110 125 116 178T132 296T151 433T167 576T174 712L274 717Q276 709 276 701T277 681Q277 650 271 603T257 495T241 368T226 232T220 95Q220 73 221 66T230 50L120 21ZM70 -8Q78 15 91 31T125
59T172 77T232 84Q297 86 344 88T426 93T491 101T554 114Q547 56 515 24T431 -8Q403 -8 347 -2T219 5Q177 5 140 2T70 -8ZM90 309Q89 314 88 323T86 338Q86 367 98 384T138 410T209 419Q227 419 250 419T297 417T338 416Q382 416 411 423T459 445Q461 438 462 429T464
408Q464 373 447 357T388 340Q379 340 356 340T300 341Q254 341 216 338T147 327T90 309ZM216 681Q178 681 159 685T133 700T126 733Q126 747 128 761T134 785Q185 778 238 775T341 771Q407 771 470 777T589 793Q582 752 556 729T477 696Q451 692 408 689T314 683T216
681Z" />
<glyph unicode="F" horiz-adv-x="520" d="M197 -17Q152 -17 129 3T106 69Q106 105 112 160T129 282T149 424T166 571T173 712L273 717Q275 709 275 701T276 683Q276 642 268 578T248 435T228 266T219 83Q219 60 220 36T225 -15Q215 -16 209 -16T197 -17ZM87 309Q86
316 86 323T85 338Q85 373 102 390T147 413T209 419Q225 419 248 419T296 417T335 416Q370 416 403 421T460 445Q461 439 461 433T462 419Q462 375 445 358T399 340Q374 340 352 340T310 341Q278 341 241 340T164 332T87 309ZM179 681Q151 681 135 685T112 700T105
732Q105 749 107 763T113 785Q163 778 215 775T320 771Q385 771 448 776T568 793Q561 745 530 724T455 696Q420 690 371 687T271 683T179 681Z" />
<glyph unicode="G" horiz-adv-x="687" d="M524 263Q508 192 472 140T387 58T280 29Q213 29 162 67T83 175T55 335Q55 436 83 521T161 671T278 770T424 806Q515 806 568 760T622 633Q622 589 604 555T554 501T480 481Q443 481 410 496T357 539Q370 535 382 534T408
532Q461 532 495 564T530 645Q530 690 499 719T419 748Q368 748 322 714T240 622T183 488T162 330Q162 261 181 209T234 128T315 99Q362 99 399 127T458 204T480 314Q480 339 477 364L524 263ZM280 -271Q355 -271 401 -204T467 -17T488 260Q488 286 485 312T477
364Q484 365 495 365T514 366Q561 366 578 346T596 280Q596 196 586 110T553 -55T493 -195T400 -293T269 -329Q198 -329 154 -302T90 -233T70 -148Q70 -110 83 -80T120 -33T173 -16Q185 -16 198 -20T225 -33Q209 -55 196 -86T182 -159Q182 -204 204 -237T280 -271Z"
/>
<glyph unicode="H" horiz-adv-x="791" d="M576 435Q573 410 564 395T540 370T511 358T480 354Q446 354 409 355T335 356Q274 356 213 350T92 324Q91 331 91 343T90 362Q90 396 108 410T156 428T224 432Q241 432 293 432T419 433T576 435ZM704 684Q704 652 698
596T681 471T661 330T645 193T638 78Q638 2 652 -31Q610 -16 585 5T550 57T539 129Q539 160 545 211T559 327T576 460T591 596T597 720Q597 741 596 762T593 802Q632 800 654 791T687 767T701 731T704 684ZM285 684Q285 652 279 596T262 471T242 330T226 193T219
78Q219 41 222 13T233 -31Q191 -16 167 5T131 57T120 129Q120 160 126 211T140 327T157 460T172 596T178 720Q178 741 177 762T174 802Q213 800 235 791T268 767T282 731T285 684Z" />
<glyph unicode="I" horiz-adv-x="344" d="M257 684Q257 652 251 596T234 471T214 330T198 193T191 78Q191 2 205 -31Q163 -16 139 5T103 57T92 129Q92 160 98 211T112 327T129 460T144 596T150 720Q150 741 149 762T146 802Q185 800 207 791T240 767T254 731T257 684Z" />
<glyph unicode="J" horiz-adv-x="518" d="M124 -36Q76 -36 38 -15T-21 43T-43 129Q-43 165 -30 192T8 235T63 251Q91 251 114 235Q89 213 74 179T59 106Q59 63 76 42T130 21Q163 21 188 41T232 108T263 237T280 441T286 733L402 738L365 323Q349 148 288 56T124
-36ZM230 670Q196 670 185 688T173 728Q173 742 175 754T179 776Q218 767 253 764T323 760Q376 760 429 768T534 792Q530 757 512 734T471 700T431 686Q407 682 370 679T294 673T230 670Z" />
<glyph unicode="K" horiz-adv-x="671" d="M176 282L166 332Q282 423 369 506T515 664T599 799Q610 778 616 751T622 695Q622 669 611 643T571 584T492 511T364 413T176 282ZM205 -31Q163 -16 139 5T103 57T92 129Q92 160 98 211T112 327T129 460T144 596T150 720Q150
741 149 762T146 802Q185 800 207 791T240 767T254 731T257 684Q257 652 251 596T234 471T214 330T198 193T191 78Q191 2 205 -31ZM597 -33Q552 -33 514 -8T442 60T382 158T330 273T285 393L377 461Q409 361 439 289T500 162T566 64T641 -23Q634 -27 622 -30T597
-33Z" />
<glyph unicode="L" horiz-adv-x="547" d="M202 30L125 31Q112 51 107 74T101 129Q101 160 107 211T121 327T138 460T153 596T159 720Q159 741 158 762T155 802Q194 800 216 791T249 767T263 731T266 684Q266 652 260 596T243 471T223 330T207 193T200 78Q200 65
200 53T202 30ZM56 -8Q59 1 67 16T92 47T139 73T218 84Q284 84 346 88T459 99T540 114Q533 56 500 24T419 -8Q399 -8 367 -5T294 1T206 5Q171 5 133 3T56 -8Z" />
<glyph unicode="M" horiz-adv-x="927" d="M417 174Q401 174 389 179T375 191Q345 269 311 356T241 527T168 676T91 777Q99 785 109 791T131 800T150 803Q178 803 199 794T242 755T289 666T354 509T448 264Q475 304 509 354T580 460T648 575T705 692T738 802Q757
779 765 758T772 714T763 667T739 610Q705 538 661 468T569 328T478 188Q465 181 447 178T417 174ZM179 -5Q150 -5 130 0T98 14T81 34T75 58Q75 71 80 110T95 206T113 330T132 463T146 591T152 695Q152 733 149 757T138 796Q177 783 196 763T221 716T228 657Q228
576 215 485T189 293T175 78Q175 57 176 36T179 -5ZM790 -31Q745 -16 720 5T684 57T673 129Q673 157 677 199T689 294T705 408T721 535T733 668T738 802Q767 799 787 790T819 766T836 731T842 684Q842 652 836 596T819 471T799 330T783 193T776 78Q776 2 790 -31Z"
/>
<glyph unicode="N" horiz-adv-x="821" d="M85 58Q85 71 90 110T105 206T123 330T142 463T156 591T162 695Q162 733 159 757T148 796Q187 783 206 763T231 716T238 657Q238 576 225 485T199 293T185 78Q185 57 186 36T189 -5Q160 -5 140 0T108 14T91 34T85 58ZM600
45Q596 58 595 70T593 97Q593 158 601 230T620 383T639 549T647 720Q647 740 646 761T643 801Q672 801 691 796T723 783T740 763T746 740Q746 727 741 687T727 588T708 461T690 325T676 195T670 90Q670 70 671 51T675 14L600 45ZM524 38Q511 57 489 102T436 210T370
343T299 481T228 608T161 703Q136 733 113 748T75 773Q98 789 118 795T155 802Q188 802 215 789T265 742Q282 716 321 645T416 461Q449 394 482 325T551 195T622 87T698 19Q670 -3 648 -12T603 -21Q586 -21 572 -14T547 7T524 38Z" />
<glyph unicode="O" horiz-adv-x="802" d="M359 -25Q281 -25 226 11T135 106T82 237T65 379Q65 462 85 535T143 667T230 767T342 827Q349 826 354 821T361 811Q326 789 294 761T236 694T194 596L202 594Q235 663 284 709T389 780T498 804Q562 804 616 769T703 662T737
479Q737 409 724 337T682 200T610 85T503 5T359 -25ZM372 35Q432 35 479 71T558 167T607 301T624 450Q624 554 602 615T543 704T458 731Q397 731 347 696T259 602T202 472T182 330Q182 270 193 217T227 123T286 59T372 35Z" />
<glyph unicode="P" horiz-adv-x="621" d="M241 741Q284 767 330 777T414 788Q484 788 530 760T598 687T621 589Q621 540 603 491T548 401T457 336T333 311Q319 311 306 312T278 315L275 347Q346 347 393 367T467 420T507 492T519 570Q519 609 503 642T452 695T365
715Q342 715 315 710T257 693L241 741ZM97 69Q97 105 104 161T121 285T140 427T157 575T164 716Q164 754 161 782T150 826Q180 823 205 805T247 757T263 683Q263 642 255 578T235 435T215 266T206 83Q206 60 207 36T212 -15Q203 -16 197 -16T186 -17Q143 -17 120
3T97 69Z" />
<glyph unicode="Q" horiz-adv-x="787" d="M187 -46Q325 -30 425 35T579 205T634 447Q634 534 611 598T546 697T446 732Q391 732 343 701T259 615T203 488T182 332Q182 238 209 191T290 143Q332 143 355 172T379 254Q379 293 365 327T329 377Q341 382 356 385T384
389Q431 389 459 357T488 271Q488 217 463 174T394 105T296 79Q232 79 184 112T109 206T82 347Q82 442 111 524T191 668T311 765T458 800Q590 800 663 711T737 462Q737 348 699 252T587 83T411 -35T177 -96L187 -46ZM654 -312Q626 -312 584 -295T490 -251T379 -195T257
-144Q201 -124 159 -115T78 -104Q94 -78 120 -64T187 -46L270 -67Q330 -89 391 -112T516 -157T643 -192T774 -210Q755 -256 722 -284T654 -312Z" />
<glyph unicode="R" horiz-adv-x="675" d="M430 357Q459 255 495 181T572 54T658 -38Q647 -43 633 -45T605 -48Q567 -48 534 -26T472 35T419 122T374 224T336 330L430 357ZM241 741Q284 767 330 777T414 788Q484 788 530 760T598 687T621 589Q621 540 603 491T548
401T457 336T333 311Q319 311 306 312T278 315L275 347Q346 347 393 367T467 420T507 492T519 570Q519 609 503 642T452 695T365 715Q342 715 315 710T257 693L241 741ZM97 69Q97 105 104 161T121 285T140 427T157 575T164 716Q164 795 150 826Q180 823 205 805T247
757T263 683Q263 642 255 578T235 435T215 266T206 83Q206 60 207 36T212 -15Q203 -16 197 -16T186 -17Q143 -17 120 3T97 69Z" />
<glyph unicode="S" horiz-adv-x="629" d="M204 631Q204 584 228 547T292 478T375 414T458 350T521 276T546 184Q546 123 512 76T419 2T282 -25Q212 -25 158 -2T74 62T43 156Q43 191 57 218T98 260T158 275Q166 275 172 274T185 271Q154 225 154 173Q154 114 193
78T296 41Q358 41 398 75T438 162Q438 204 414 238T351 303T270 365T189 431T127 511T102 611Q102 672 132 717T216 787T343 812Q408 812 458 790T536 730T565 641Q565 607 551 580T510 538T451 522Q441 522 433 523T416 526Q439 550 452 581T465 643Q465 693 430
723T338 753Q278 753 241 720T204 631Z" />
<glyph unicode="T" horiz-adv-x="543" d="M49 729Q49 743 51 754T56 772Q111 765 164 762T271 759Q348 759 424 765T574 785Q569 752 553 731T513 698T458 684Q422 681 374 678T273 673T173 669T93 668Q75 668 66 677T53 700T49 729ZM355 723Q355 692 348 635T331
506T310 357T292 207T285 78Q285 2 299 -31Q257 -16 233 5T197 57T186 129Q186 161 192 209T206 318T223 445T238 582T244 720L355 723Z" />
<glyph unicode="U" horiz-adv-x="755" d="M233 653Q233 586 223 519T201 382T190 239Q190 167 204 129T242 77T298 62Q318 62 344 71T400 105T458 176T510 294T547 472T561 720L564 388Q554 329 538 271T497 160T439 68T359 4T254 -20Q173 -20 130 36T87 220Q87
260 91 312T103 420T116 530T127 631T132 707Q132 772 121 802Q161 788 185 768T221 719T233 653ZM668 684Q668 652 662 596T645 471T625 330T609 193T602 78Q602 2 616 -31Q574 -16 549 5T514 57T503 129Q503 160 509 211T523 327T540 460T555 596T561 720Q561
741 560 762T557 802Q596 800 618 791T651 767T665 731T668 684Z" />
<glyph unicode="V" horiz-adv-x="661" d="M327 0Q324 -2 311 -5T283 -11T257 -14Q247 -14 239 -11T228 1Q219 46 206 112T178 255T145 410T108 559T70 684T31 766Q49 777 68 784T101 792Q123 792 138 784T164 751T187 682T213 564T248 384L306 85L294 81Q311 115
332 165T377 276T424 400T469 526T506 644T531 741T541 807Q588 797 608 778T629 733Q629 710 613 662T569 549T508 412T440 265T377 122T327 0Z" />
<glyph unicode="W" horiz-adv-x="983" d="M587 -14Q577 -14 569 -11T560 1Q553 46 544 112T522 255T497 410T468 559T437 684T402 766Q420 777 439 784T472 792Q487 792 498 787T520 762T542 699T566 579T596 384L637 101Q655 146 678 207T728 339T780 481T826
616T860 731T875 807Q911 797 934 779T957 737Q957 718 943 676T906 577T855 453T796 319T737 189T688 78T655 0Q652 -2 640 -5T613 -11T587 -14ZM234 -14Q224 -14 216 -11T207 1Q200 46 191 112T170 255T145 410T116 559T84 684T49 766Q67 777 86 784T119 792Q134
792 145 787T167 762T189 699T213 579T243 384L284 101Q300 141 321 195T365 312T412 438T455 561T489 669L535 532Q512 476 485 414T429 289T376 171T332 71T302 0Q299 -2 287 -5T260 -11T234 -14Z" />
<glyph unicode="X" horiz-adv-x="671" d="M30 81Q30 121 59 169T138 269T246 378T364 490T474 602T555 710T590 809Q608 797 619 780T635 746T640 715Q640 673 609 630T527 539T414 435T290 309T173 156T84 -31Q70 -17 60 -3T43 25T33 53T30 81ZM581 -33Q531 -33
489 -1T411 86T343 213T281 362T220 516T158 661T90 779Q108 790 129 796T174 803Q189 803 202 794T230 763T262 702T303 603T357 457Q406 322 453 228T542 72T620 -28Q610 -31 600 -32T581 -33Z" />
<glyph unicode="Y" horiz-adv-x="565" d="M313 274Q305 225 301 174T296 78Q296 41 299 13T310 -31Q269 -31 243 -18T205 28T193 125Q193 140 194 157T198 201T206 273Q154 473 113 594T33 777Q51 791 69 797T107 803Q128 803 144 793T174 755T203 673T236 532T278
316Q316 383 350 452T410 587T454 709T477 807Q521 794 543 774T565 729Q565 710 554 680T514 598T437 469T313 274Z" />
<glyph unicode="Z" horiz-adv-x="573" d="M4 36Q106 160 192 280T346 507T454 700T507 838Q535 802 544 767T553 711Q553 670 526 618T454 505T353 373T239 225T130 62L4 36ZM132 12Q95 12 49 9T-40 -3Q-37 6 -29 21T-4 52T45 78T125 89Q136 89 143 89T160 88T192
87Q229 87 273 89T361 95T443 104T505 117Q495 54 462 25T375 -5Q339 -5 280 3T132 12ZM83 722Q83 742 85 755T91 777Q105 776 144 773T239 766T355 763Q393 763 429 764T498 769L459 700Q441 697 407 691T333 679T253 667T182 658T137 654Q103 654 93 674T83 722Z"
/>
<glyph unicode="[" horiz-adv-x="379" d="M332 783Q350 783 360 765T372 709Q353 711 320 712T251 715Q238 625 228 549T212 403T203 262T198 109T196 -71Q228 -70 258 -68T305 -65Q303 -103 293 -121T265 -139H197Q139 -139 111 -124T82 -74Q82 -38 92 60T116
321Q121 386 124 432T129 512T132 576T134 638T139 713Q141 737 153 752T192 775T262 783H332Z" />
<glyph unicode="\" horiz-adv-x="413" d="M49 868Q57 823 80 755T137 606T207 439T281 269T347 113T395 -11T413 -86Q413 -111 402 -132T373 -166T329 -182Q322 -131 301 -60T250 93T186 261T119 428T59 577T16 695T0 765Q0 796 14 825T49 868Z" />
<glyph unicode="]" horiz-adv-x="379" d="M47 -139Q29 -139 19 -121T7 -65Q26 -66 59 -68T128 -71Q142 19 151 95T167 241T176 382T181 535T183 715Q152 714 122 713T74 709Q76 747 86 765T114 783H182Q241 783 269 768T297 718Q297 682 287 584T263 323Q258 258
255 212T250 132T247 68T245 6T240 -69Q239 -93 227 -108T188 -131T117 -139H47Z" />
<glyph unicode="^" horiz-adv-x="620" d="M483 327Q454 327 432 349T393 421T359 555T324 764L352 739Q294 649 254 580T185 451T129 328Q107 337 94 348T76 373T71 404Q71 432 102 484T186 608T301 759Q308 763 330 769T373 776Q387 776 396 772T408 758Q424
689 438 634T468 533T502 443T549 352Q542 342 524 335T483 327Z" />
<glyph unicode="_" horiz-adv-x="463" d="M359 7Q398 7 417 -4T442 -34T448 -77Q448 -81 448 -85T447 -95Q411 -90 379 -89T311 -87Q279 -87 247 -89T179 -95T104 -98Q65 -98 46 -87T21 -57T15 -14Q15 -9 15 -5T16 4Q52 0 84 -2T152 -4Q184 -4 216 -2T284 4T359 7Z" />
<glyph unicode="`" horiz-adv-x="279" d="M259 652Q258 641 249 632T227 619Q207 645 175 675T103 731T20 770Q21 796 30 812T50 838T68 852Q106 837 144 803T213 728T259 652Z" />
<glyph unicode="a" horiz-adv-x="635" d="M417 170Q398 118 363 77T284 12T195 -12Q128 -12 91 40T53 186Q53 261 74 327T133 444T221 522T328 551Q345 551 364 548T407 537Q353 524 308 492T230 415T179 315T161 199Q161 138 182 106T242 73Q283 73 320 105T387
193T434 319T451 466Q451 492 449 519T443 568Q453 569 461 569T476 570Q517 570 538 549T560 488Q560 462 553 421T537 329T520 222T512 111Q512 68 519 37T543 -33Q479 -20 451 23T423 149Q423 157 423 160T424 168L417 170Z" />
<glyph unicode="b" horiz-adv-x="641" d="M223 392Q254 481 305 529T418 577Q457 577 491 550T548 475T570 360Q570 285 551 221T497 109T416 34T316 7Q302 7 287 9T257 16Q308 28 346 64T410 150T449 252T462 350Q462 381 454 411T427 462T375 483Q342 483 311
453T253 371T212 254T196 119Q196 85 200 51T215 -18Q180 -6 154 22T115 93T101 189Q101 249 111 321T134 475T158 642T168 817Q168 852 166 887T159 957Q198 943 219 915T249 847T258 764Q258 725 251 668T233 542T215 394L223 392Z" />
<glyph unicode="c" horiz-adv-x="545" d="M173 226Q173 144 199 97T273 49Q311 49 353 74T425 147Q441 145 451 140T462 120Q433 67 395 38T319 -3T248 -15Q201 -15 159 10T91 87T65 221Q65 291 84 355T141 469T232 548T354 577Q406 577 438 559T485 511T500 449Q500
420 488 394T454 350T402 333Q392 333 380 335T356 342Q372 359 383 392T395 456Q395 484 383 504T338 525Q300 525 270 498T218 427T185 331T173 226Z" />
<glyph unicode="d" horiz-adv-x="616" d="M411 163Q390 108 356 69T280 10T195 -11Q156 -11 124 10T71 75T51 188Q51 270 74 338T137 456T232 533T349 561Q368 561 387 558T426 550Q354 538 303 500T221 411T174 304T159 202Q159 168 168 139T196 91T249 73Q291
73 324 104T381 188T422 309T450 449T467 592T475 722T478 822Q478 861 477 895T470 957Q506 946 528 917T562 846T573 750Q573 690 563 618T540 464T516 297T506 122Q506 51 515 -18Q476 -4 455 22T425 85T416 162L411 163Z" />
<glyph unicode="e" horiz-adv-x="542" d="M248 -15Q195 -15 154 16T89 102T65 229Q65 303 86 366T147 477T238 550T352 577Q426 577 464 540T502 432Q502 379 473 337T394 270T278 246Q246 246 218 249T164 259L167 294H204Q262 294 305 313T372 369T396 452Q396
487 380 506T333 525Q295 525 265 497T214 423T182 325T171 226Q171 138 197 94T276 49Q374 49 437 147Q474 141 474 120Q431 50 377 18T248 -15Z" />
<glyph unicode="f" horiz-adv-x="408" d="M118 93Q118 130 121 191T133 328T157 482T197 636T254 770T333 865T437 900Q497 900 534 867T572 784Q572 758 561 734T527 695T474 679Q467 679 458 680T441 686Q448 692 456 705T471 736T478 771Q478 803 464 822T426
841Q389 841 360 807T308 714T270 584T244 434T227 285T218 154T215 63Q215 34 215 15T217 -22T222 -60T231 -113Q201 -101 180 -83T145 -39T125 20T118 93ZM394 574Q395 569 395 562T396 548Q396 504 379 489T333 474Q292 474 258 474T191 473T126 463T52 438Q51
444 51 452T50 467Q50 502 66 519T111 542T173 548Q197 548 222 547T270 545Q305 545 338 550T394 574Z" />
<glyph unicode="g" horiz-adv-x="619" d="M419 162Q397 112 363 77T289 22T210 3Q157 3 122 30T71 102T54 201Q54 248 67 299T107 398T171 484T258 544T369 567Q387 567 400 560T421 538Q358 525 310 493T230 415T182 317T165 212Q165 178 174 148T203 100T254
82Q295 82 328 104T385 163T425 249T446 352Q453 424 461 470T480 545T507 589T547 613Q544 590 541 567T535 520T533 473Q533 345 525 236T500 37T455 -121T388 -235T299 -305T184 -329Q132 -329 98 -312T46 -267T28 -212Q28 -170 52 -137T117 -104Q128 -104 139
-106T163 -114Q147 -125 136 -148T125 -194Q125 -228 146 -247T206 -267Q242 -267 276 -250T339 -188T390 -59T426 161L419 162Z" />
<glyph unicode="h" horiz-adv-x="621" d="M519 -15Q458 -15 426 10T394 102Q394 132 400 170T414 251T428 336T434 417Q434 483 388 483Q362 483 329 456T265 377T214 255T193 98Q193 75 194 51T199 0Q190 -1 184 -1T172 -2Q126 -2 103 17T80 83Q80 116 87 172T104
301T126 458T144 631T151 809Q151 850 148 880T139 926Q179 912 201 889T234 832T244 751Q244 710 238 646T222 502T200 335L206 334Q231 405 269 460T349 546T427 577Q491 577 514 539T538 435Q538 379 529 323T509 210T499 95Q499 48 513 26T556 -14Q546 -15
537 -15T519 -15Z" />
<glyph unicode="i" horiz-adv-x="321" d="M192 88Q192 52 195 26T204 -15Q165 -1 143 22T111 80T102 164Q102 208 110 262T126 372T134 479Q134 505 134 530T128 581Q135 582 143 582T157 583Q202 583 222 563T242 497Q242 468 230 407T206 264T192 88ZM237 666Q225
662 211 659T183 656Q169 656 155 660T132 676T122 707Q122 724 128 740T140 773Q152 778 166 780T194 783Q208 783 222 779T245 763T255 732Q255 716 249 700T237 666Z" />
<glyph unicode="j" horiz-adv-x="331" d="M-84 -334Q-137 -334 -173 -301T-210 -218Q-210 -190 -199 -165T-165 -124T-112 -108Q-105 -108 -96 -109T-79 -115Q-89 -125 -97 -139T-111 -170T-116 -207Q-116 -237 -103 -253T-69 -270Q-31 -270 -2 -240T49 -158T86
-37T110 107T123 262T127 412Q127 459 125 501T121 581Q128 582 138 582T155 583Q196 583 214 565T232 504Q232 449 229 377T219 226T197 66T159 -85T102 -213T22 -301T-84 -334ZM224 666Q212 662 198 659T170 656Q156 656 142 660T119 676T109 707Q109 724 115
740T127 773Q139 778 153 780T181 783Q195 783 209 779T232 763T242 732Q242 716 236 700T224 666Z" />
<glyph unicode="k" horiz-adv-x="574" d="M206 360Q231 445 265 492T335 559T402 579Q453 579 485 546T517 449Q517 409 501 374T456 311T386 268L398 231Q416 173 443 118T500 17T555 -63T596 -111Q583 -115 571 -117T547 -120Q499 -120 462 -89T396 -4T343 113T297
244Q287 243 278 243T259 243Q253 248 253 275Q301 276 333 292T386 335T415 390T424 443Q424 469 412 487T375 505Q344 505 311 473T250 383T205 251T188 94Q188 71 189 49T194 0Q185 -1 179 -1T167 -2Q121 -2 98 17T75 83Q75 116 82 172T99 301T121 458T139 631T146
809Q146 850 143 880T134 926Q174 912 196 889T229 832T239 751Q239 712 233 652T217 518T198 362L206 360Z" />
<glyph unicode="l" horiz-adv-x="299" d="M81 117Q81 150 88 211T105 349T124 509T141 670T148 809Q148 850 145 880T136 926Q174 912 196 889T228 832T238 751Q238 705 229 631T209 465T189 273T180 75Q180 52 181 30T184 -15Q147 -13 126 -3T96 24T84 64T81 117Z" />
<glyph unicode="m" horiz-adv-x="895" d="M220 376Q245 436 278 481T347 552T413 577Q457 577 481 554T515 492T525 404Q563 486 612 531T701 577Q744 577 768 560T802 510T812 435Q812 393 806 351T793 266T779 182T773 95Q773 48 787 26T830 -14Q820 -15 811
-15T793 -15Q732 -15 700 10T668 102Q668 142 678 196T698 308T708 417Q708 449 697 466T662 483Q637 483 607 456T550 379T505 259T487 106Q487 81 488 55T493 0Q483 -1 476 -1T462 -2Q420 -2 398 17T375 83Q375 109 381 149T396 236T411 330T418 417Q418 483
372 483Q347 483 317 456T260 379T215 260T197 106Q197 81 198 55T203 0Q193 -1 186 -1T172 -2Q130 -2 108 17T85 83Q85 100 91 139T105 232T120 341T126 448Q126 487 122 525T109 598Q152 582 175 556T207 498T216 426Q216 414 216 402T213 377L220 376Z" />
<glyph unicode="n" horiz-adv-x="626" d="M216 346Q242 414 280 466T361 547T439 577Q498 577 520 539T543 435Q543 387 534 330T514 213T504 95Q504 48 518 26T561 -14Q551 -15 542 -15T524 -15Q457 -15 428 10T399 102Q399 132 405 170T419 251T433 336T439
417Q439 483 399 483Q371 483 337 456T271 377T219 255T198 98Q198 75 199 51T204 0Q194 -1 187 -1T173 -2Q130 -2 108 18T85 84Q85 106 91 146T106 238T120 343T127 448Q127 487 123 525T110 598Q172 573 194 529T216 427Q216 408 215 388T210 347L216 346Z" />
<glyph unicode="o" horiz-adv-x="617" d="M268 -15Q232 -15 196 0T131 48T83 129T65 247Q65 330 89 399T159 517T266 591Q277 591 281 585T286 571Q255 550 224 513T174 411L181 409Q210 472 248 508T328 559T405 574Q449 574 482 548T533 474T552 357Q552 293
536 228T486 107T398 19T268 -15ZM278 47Q320 47 352 73T407 143T442 239T454 341Q454 430 429 470T363 511Q324 511 290 485T228 417T185 325T169 228Q169 181 180 140T215 73T278 47Z" />
<glyph unicode="p" horiz-adv-x="649" d="M215 361Q258 458 321 505T443 553Q482 553 514 532T565 469T584 360Q584 285 563 220T505 105T420 28T317 0Q278 0 237 16Q297 28 341 66T416 155T461 260T476 360Q476 407 457 437T399 468Q346 468 303 424T228 301T181
118T164 -108Q164 -160 168 -215T184 -329Q150 -327 120 -318T72 -285T53 -213Q53 -188 59 -139T74 -26T93 111T108 259T114 402Q114 455 111 506T99 603Q168 583 191 522T215 361Z" />
<glyph unicode="q" horiz-adv-x="637" d="M575 43Q583 34 588 22T594 -2Q594 -25 578 -37T534 -58T471 -77T396 -105T316 -154Q307 -136 307 -122Q307 -99 323 -83T366 -56T424 -34T485 -14T540 10T575 43ZM423 192Q389 119 351 77T272 18T193 0Q154 0 122 20T71
82T51 187Q51 234 62 284T95 383T150 469T225 531T321 554Q339 554 358 551T399 541Q344 525 300 492T224 413T176 313T159 202Q159 154 177 119T236 83Q278 83 316 113T383 195T430 313T448 454Q448 481 447 509T442 568Q450 569 456 569T467 570Q501 570 526
553T552 483Q552 455 542 391T517 238T492 45T481 -166Q481 -208 483 -248T492 -329Q459 -327 430 -319T384 -286T366 -217Q366 -197 373 -155T390 -56T412 64T431 191L423 192Z" />
<glyph unicode="r" horiz-adv-x="463" d="M221 370Q247 447 276 492T336 558T390 578Q419 578 437 562T465 521T475 466Q475 434 465 405T432 358T373 340Q367 340 361 340T348 342Q360 359 371 388T382 442Q382 458 376 468T353 478Q331 478 305 452T254 375T214
251T198 85Q198 65 200 44T203 0Q193 -1 186 -1T173 -2Q130 -2 108 18T85 84Q85 106 91 146T106 238T120 343T127 448Q127 487 123 525T110 598Q172 573 194 529T216 427Q216 417 216 403T213 372L221 370Z" />
<glyph unicode="s" horiz-adv-x="502" d="M232 -20Q142 -20 95 16T48 103Q48 146 72 172T130 199Q138 199 146 198T164 191Q154 178 148 160T142 125Q142 90 164 63T234 35Q257 35 279 44T315 71T330 116Q330 146 314 169T271 212T215 252T160 295T117 349T100
421Q100 468 124 504T193 562T297 583Q351 583 384 566T433 523T448 467Q448 432 428 404T373 375Q366 375 357 377T336 384Q350 401 356 422T362 456Q362 492 338 510T285 528Q264 528 244 520T210 493T197 448Q197 416 214 390T259 342T316 299T374 254T418 203T436
140Q436 93 410 57T338 1T232 -20Z" />
<glyph unicode="t" horiz-adv-x="386" d="M206 63Q206 21 209 -10T220 -57Q182 -43 159 -20T125 39T115 122Q115 184 125 245T148 373T171 516T181 685Q181 701 181 717T180 750Q225 743 250 710T276 618Q276 564 266 497T241 356T217 207T206 63ZM394 574Q395
569 395 562T396 548Q396 504 379 489T333 474Q292 474 258 474T191 473T126 463T52 438Q51 444 51 452T50 467Q50 502 66 519T111 542T173 548Q197 548 222 547T270 545Q305 545 338 550T394 574Z" />
<glyph unicode="u" horiz-adv-x="606" d="M507 -21Q464 -4 441 22T408 82T399 156Q399 172 400 188T404 223L396 225Q373 159 339 108T269 29T200 0Q155 0 131 22T96 82T86 166Q86 219 94 269T111 368T119 462Q119 490 116 517T105 572Q143 572 171 564T216 534T233
465Q233 429 223 378T202 271T191 168Q191 131 202 113T237 94Q260 94 285 117T333 180T374 271T403 380T414 496Q414 516 413 537T408 577Q416 578 424 578T440 579Q462 579 481 572T513 546T526 490Q526 471 521 434T507 350T494 252T488 154Q488 108 492 64T507
-21Z" />
<glyph unicode="v" horiz-adv-x="516" d="M256 0Q251 -3 233 -8T198 -14Q188 -14 180 -11T170 1Q153 69 140 148T113 307T82 452T39 560Q56 572 72 579T110 586Q144 586 162 557T190 476T206 358T222 216T249 64L226 78Q252 128 281 185T337 300T386 414T421 517T434
599Q467 577 481 556T496 508Q496 480 479 438T435 345T375 236T311 119T256 0Z" />
<glyph unicode="w" horiz-adv-x="769" d="M485 -14Q475 -14 469 -11T460 1Q448 69 439 148T419 307T390 452T344 560Q361 571 378 578T409 586Q443 586 462 560T490 487T505 373T516 227T535 57L517 78Q544 140 573 210T630 350T674 485T692 599Q724 584 739 561T754
502Q754 471 740 428T702 335T650 229T595 115T547 0Q543 -3 522 -8T485 -14ZM177 -14Q167 -14 161 -11T152 1Q137 69 126 148T103 307T76 452T36 560Q53 571 70 578T101 586Q137 586 156 560T184 487T197 373T208 228T227 58L210 80Q231 130 255 187T303 305T346
421T376 525L420 432Q402 385 377 330T325 216T272 103T229 0Q225 -3 209 -8T177 -14Z" />
<glyph unicode="x" horiz-adv-x="555" d="M468 595Q488 570 497 549T507 508Q507 475 485 446T425 386T342 316T250 228T164 112T98 -42Q70 -11 57 16T43 68Q43 97 71 135T146 219T244 312T345 410T427 506T468 595ZM458 -30Q408 -30 371 1T304 85T249 202T201
333T151 459T93 560Q107 571 128 578T162 586Q189 586 208 567T243 513T273 429T308 321Q334 244 361 186T414 87T464 20T507 -21Q494 -25 482 -27T458 -30Z" />
<glyph unicode="y" horiz-adv-x="516" d="M102 -228Q102 -194 120 -144T167 -33T232 96T303 233T368 369T416 494T434 599Q467 577 481 556T496 508Q496 475 475 429T421 324T350 199T280 58T225 -95T204 -256Q204 -276 205 -298T211 -342Q176 -337 155 -325T122
-297T106 -263T102 -228ZM178 -47Q171 11 161 79T139 217T111 352T78 472T39 560Q53 571 73 578T112 586Q146 586 166 555T197 471T215 353T227 220T242 90L178 -47Z" />
<glyph unicode="z" horiz-adv-x="495" d="M119 95Q161 95 203 92T292 88Q327 88 363 90T435 100Q437 89 438 76T440 51Q440 23 424 8T364 -7Q341 -7 301 -2T214 7T122 12Q85 12 52 8T-15 -8Q-7 32 9 54T52 85T119 95ZM88 566Q135 559 182 556T279 552Q320 552
361 554T447 561Q452 554 454 543T456 523L392 487Q356 487 312 481T225 467T145 460Q109 460 95 477T80 525Q80 544 88 566ZM19 52Q136 168 223 271T362 459T425 604Q445 596 457 576T470 530Q470 499 449 461T390 377T307 281T209 174T109 55L19 52Z" />
<glyph unicode="{" horiz-adv-x="372" d="M217 171Q217 126 211 84T204 8Q204 -27 217 -48T273 -69Q282 -69 292 -68T315 -65Q315 -94 309 -110T287 -132T242 -139Q156 -139 125 -104T94 -10Q94 28 101 73T108 168Q108 207 103 239T82 291T40 312L42 348Q76 353
95 377T122 437T131 514T133 595Q133 692 168 737T301 783Q339 783 353 765T367 709Q343 712 325 712Q275 712 261 687T247 610Q247 546 237 487T203 385T139 330Q158 326 176 304T205 247T217 171Z" />
<glyph unicode="|" horiz-adv-x="456" d="M171 -122Q171 -24 178 105T186 383Q186 453 185 528T182 671T178 792T172 867Q230 867 257 852T285 803Q285 754 283 710T278 619T273 515T270 383Q270 295 271 204T274 33T278 -105T284 -186Q226 -186 199 -171T171 -122Z" />
<glyph unicode="}" horiz-adv-x="372" d="M155 473Q155 518 161 560T168 636Q168 671 155 692T99 713Q90 713 80 712T57 709Q57 738 63 754T86 776T130 783Q216 783 247 748T278 654Q278 617 271 572T264 476Q264 438 270 406T290 353T332 332L330 296Q296 291
277 267T250 207T241 130T239 49Q239 -48 204 -93T71 -139Q34 -139 20 -121T5 -65Q29 -68 47 -68Q97 -68 111 -43T125 34Q125 99 135 158T170 259T233 314Q214 318 196 340T167 398T155 473Z" />
<glyph unicode="~" horiz-adv-x="620" d="M415 294Q375 294 336 300T260 313T193 320Q151 320 115 311T59 284Q59 339 73 371T119 417T205 432Q245 432 284 426T360 413T427 406Q469 406 505 416T561 442Q561 388 547 356T501 309T415 294Z" />
<glyph unicode="&#xa0;" horiz-adv-x="330" />
<glyph unicode="&#xa1;" horiz-adv-x="286" d="M43 -134Q43 -104 53 -61T78 36T103 152T114 282Q114 305 113 323T106 351Q139 339 159 320T188 271T197 203Q197 142 185 81T160 -44T147 -179Q147 -192 147 -204T150 -229Q138 -229 120 -224T85 -208T55 -179T43
-134ZM118 570Q132 575 147 577T178 580Q194 580 208 576T233 559T243 526Q243 507 237 489T225 453Q212 449 196 446T165 443Q150 443 135 448T110 464T100 497Q100 516 106 534T118 570Z" />
<glyph unicode="&#xa2;" horiz-adv-x="545" d="M173 288Q173 206 199 159T273 111Q311 111 353 136T425 209Q441 207 451 202T462 182Q433 129 395 100T319 59T248 47Q201 47 159 72T91 149T65 283Q65 353 84 417T141 531T232 610T354 639Q406 639 438 621T485
573T500 511Q500 482 488 456T454 412T402 395Q392 395 380 397T356 404Q372 421 383 454T395 518Q395 546 383 566T338 587Q300 587 270 560T218 489T185 393T173 288ZM274 86Q264 7 261 -62T262 -182Q262 -182 250 -177T222 -158T193 -120T181 -56Q181 -31 185
5T197 86H274ZM294 609Q307 689 314 756T318 868Q318 868 325 859T342 831T359 789T366 736Q366 714 363 682T354 609H294Z" />
<glyph unicode="&#xa3;" horiz-adv-x="572" d="M30 -21Q30 -20 32 -9T43 18T68 51T114 78T190 89Q227 89 265 86T344 83Q383 83 422 88T501 110Q499 68 487 40T453 -4T394 -19Q376 -19 345 -15T273 -6T187 -2Q149 -2 109 -6T30 -21ZM108 42Q129 77 138 129T152
245T162 373T181 498T221 606T294 682T413 710Q463 710 491 693T530 647T542 586Q542 537 513 505T438 472Q430 472 420 473T396 479Q416 499 430 525T444 589Q444 613 432 633T392 654Q352 654 329 628T293 558T274 458T262 342T246 225T217 119T163 40L108 42ZM394
307Q356 307 314 302T233 288T161 275T108 269Q46 269 38 335Q48 334 56 333T75 332Q122 332 172 341T270 360T357 370Q398 370 420 355T452 301Q446 304 431 305T394 307Z" />
<glyph unicode="&#xa4;" horiz-adv-x="613" d="M275 179Q236 179 199 196T138 251T114 355Q114 411 139 462T214 547T337 580Q377 580 413 563T474 508T498 403Q498 347 473 296T398 212T275 179ZM148 108Q134 91 117 91Q106 91 92 97T60 117Q89 147 123 188T187
267L238 234Q212 198 188 164T148 108ZM425 109Q412 129 393 163T353 234L408 268Q432 231 460 189T514 117Q495 104 480 98T454 92Q436 92 425 109ZM295 234Q333 234 357 256T394 313T406 385Q406 462 379 494T318 527Q281 527 257 505T220 448T208 376Q208 321
221 290T254 247T295 234ZM204 490Q180 528 152 570T97 642Q135 668 157 668Q175 668 186 651Q199 631 218 597T258 527L204 490ZM426 492L375 524Q401 561 425 595T466 650Q480 667 497 667Q519 667 553 642Q525 612 490 571T426 492Z" />
<glyph unicode="&#xa5;" horiz-adv-x="507" d="M288 -30Q245 -30 221 -18T186 24T175 109Q175 129 177 158T187 240Q142 411 105 520T33 685Q50 696 67 702T104 708Q125 708 140 700T169 667T196 597T224 477T258 294Q300 372 335 451T393 598T421 711Q464 701
485 684T507 643Q507 626 498 599T464 528T398 415T291 243Q284 195 280 150T275 66Q275 32 278 8T288 -30ZM400 116Q362 116 320 111T239 97T167 84T114 78Q52 78 44 144Q54 143 62 142T81 141Q128 141 178 150T276 169T363 179Q404 179 426 164T458 110Q452 113
437 114T400 116ZM400 256Q362 256 320 251T239 237T167 224T114 218Q52 218 44 284Q54 283 62 282T81 281Q128 281 178 290T276 309T363 319Q404 319 426 304T458 250Q452 253 437 254T400 256Z" />
<glyph unicode="&#xa6;" horiz-adv-x="456" d="M274 450Q241 450 222 461T194 494T186 547Q186 594 185 651T181 765T172 867Q232 867 258 852T285 803Q285 774 284 731T280 638T276 540T274 450ZM182 231Q216 231 235 220T262 188T270 134Q270 87 271 30T275
-83T284 -186Q224 -186 198 -171T171 -122Q171 -93 172 -50T176 43T180 142T182 231Z" />
<glyph unicode="&#xa7;" horiz-adv-x="620" d="M529 320Q529 270 502 229T427 161T317 127Q370 87 404 58T457 6T483 -40T491 -90Q491 -146 461 -190T379 -260T259 -286Q197 -286 148 -266T71 -210T43 -128Q43 -80 71 -50T143 -19Q151 -19 158 -19T172 -22Q160
-43 153 -65T146 -106Q146 -139 162 -166T206 -208T270 -224Q321 -224 353 -195T385 -119Q385 -86 365 -58T312 -5T244 48T176 108T124 179T103 269Q103 344 151 391T287 449Q211 503 176 558T141 680Q141 767 197 815T357 863Q408 863 449 844T514 791T538 716Q538
690 525 667T491 631T443 617Q421 617 403 625Q425 639 439 664T453 712Q453 754 424 780T347 807Q299 807 272 779T244 700Q244 659 264 626T317 564T386 508T455 453T508 393T529 320ZM202 291Q202 262 217 238T258 199T314 184Q361 184 393 215T425 291Q425
337 393 368T314 399Q284 399 259 385T218 346T202 291Z" />
<glyph unicode="&#xa8;" horiz-adv-x="357" d="M130 668Q118 664 105 662T78 659Q65 659 52 663T29 678T20 707Q20 723 25 738T37 770Q49 774 62 777T89 780Q102 780 115 776T138 761T147 731Q147 715 141 700T130 668ZM320 668Q308 664 295 662T268 659Q255 659
242 663T219 678T210 707Q210 723 215 738T227 770Q239 774 252 777T279 780Q292 780 305 776T328 761T337 731Q337 715 331 700T320 668Z" />
<glyph unicode="&#xa9;" horiz-adv-x="803" d="M489 485Q521 485 521 465Q493 413 453 396T380 378Q345 378 314 395T265 449T246 542Q246 599 266 648T328 727T432 758Q488 758 511 731T535 672Q535 638 515 615T462 592Q455 592 447 594T428 599Q439 611 447
634T455 677Q455 692 449 703T426 715Q397 715 377 689T345 623T334 543Q334 485 355 458T405 431Q425 431 447 444T489 485ZM438 861Q486 861 533 847T618 799T680 712T703 579Q703 521 682 466T617 368T511 299T365 273Q317 273 270 287T185 335T123 422T100
555Q100 614 121 668T186 766T292 835T438 861ZM436 814Q347 814 287 777T196 680T165 555Q165 467 195 416T272 342T367 320Q457 320 517 357T607 453T638 579Q638 667 608 718T531 792T436 814Z" />
<glyph unicode="&#xaa;" horiz-adv-x="486" d="M306 557Q292 523 267 497T212 457T149 442Q104 442 77 475T49 567Q49 612 64 655T107 734T171 790T249 811Q266 811 281 808T307 799Q260 785 224 749T168 666T147 573Q147 541 159 522T196 502Q222 502 245 523T287
581T316 661T327 752Q327 765 326 783T322 818Q331 820 338 820T353 820Q385 820 403 808T421 767Q421 745 413 706T396 618T387 522Q387 493 392 473T409 429Q355 436 333 463T310 545Q310 549 310 551T310 556L306 557Z" />
<glyph unicode="&#xab;" horiz-adv-x="638" d="M78 327Q100 337 119 364T157 424T193 490T233 543T279 564Q297 564 314 555T352 519Q327 511 304 488T259 435T217 373T176 317Q191 292 205 261T235 200T268 146T309 115Q283 88 263 79T224 70Q199 70 183 91T155
144T133 209T109 270T75 307L78 327ZM319 327Q341 337 360 364T398 424T434 490T474 543T520 564Q538 564 555 555T593 519Q568 511 545 488T500 435T458 373T417 317Q432 292 446 261T476 200T509 146T550 115Q524 88 504 79T465 70Q440 70 424 91T396 144T374
209T350 270T316 307L319 327Z" />
<glyph unicode="&#xac;" horiz-adv-x="620" d="M518 136Q461 136 461 204Q461 220 467 248T484 320Q434 320 380 316T272 308T170 304Q111 304 86 323T60 388Q60 393 60 397T61 406Q103 401 140 399T218 396Q275 396 331 402T456 409Q512 409 536 387T560 311Q560
278 556 235T552 141Q539 138 532 137T518 136Z" />
<glyph unicode="&#xae;" horiz-adv-x="803" d="M295 731Q318 739 350 745T413 752Q443 752 469 745T511 720T528 671Q528 644 509 611T443 558Q461 489 488 446T531 386Q503 380 487 380Q457 380 438 397T407 440T385 495T368 545Q364 545 355 544T346 543Q335
463 335 383Q326 382 319 382T308 381Q279 381 266 390T253 419Q253 438 259 473T273 553T287 643T295 731ZM366 699Q363 669 359 636T350 575Q397 578 423 604T450 657Q450 677 439 691T403 706Q386 706 366 699ZM436 814Q347 814 287 777T196 680T165 555Q165
467 195 416T272 342T367 320Q457 320 517 357T607 453T638 579Q638 667 608 718T531 792T436 814ZM438 861Q486 861 533 847T618 799T680 712T703 579Q703 521 682 466T617 368T511 299T365 273Q317 273 270 287T185 335T123 422T100 555Q100 614 121 668T186
766T292 835T438 861Z" />
<glyph unicode="&#xaf;" horiz-adv-x="334" d="M82 694Q42 694 31 714T20 772Q20 777 21 781T23 790Q47 785 69 783T113 781Q147 781 179 787T252 793Q292 793 303 773T314 715Q314 711 314 707T311 697Q287 702 266 704T221 706Q187 706 155 700T82 694Z" />
<glyph unicode="&#xb0;" horiz-adv-x="404" d="M229 784Q292 784 329 745T366 637Q366 583 342 541T274 475T175 450Q112 450 75 490T38 597Q38 651 63 693T131 760T229 784ZM212 729Q174 729 150 697T125 613Q125 562 143 534T193 505Q231 505 255 537T280 621Q280
671 262 700T212 729Z" />
<glyph unicode="&#xb1;" horiz-adv-x="620" d="M278 202Q271 202 262 202T243 204Q253 252 256 301T261 400Q239 399 215 398T164 397Q118 397 96 408T67 438T60 481Q60 486 60 490T61 499Q96 495 137 493T219 491Q230 491 241 491T263 492Q263 518 264 544T267
598Q271 649 287 672T342 696Q350 696 359 696T376 694Q366 646 363 597T358 498Q381 500 405 501T456 502Q502 502 524 491T553 461T560 418Q560 414 560 410T559 400Q525 405 484 406T401 408Q390 408 379 408T356 407Q355 381 355 355T352 300Q348 250 332 226T278
202ZM433 114Q489 114 513 98T537 40Q537 33 537 26T534 12Q503 16 463 18T378 20Q322 20 266 15T141 9Q85 9 61 26T37 83Q37 90 38 97T40 111Q72 107 112 105T196 103Q252 103 308 108T433 114Z" />
<glyph unicode="&#xb2;" horiz-adv-x="380" d="M73 439L34 440Q96 476 142 520T215 609T241 695Q241 727 224 745T178 763Q145 763 129 739T112 668Q86 668 69 684T51 726Q51 763 88 786T183 810Q245 810 283 781T321 703Q321 660 291 613T205 522T73 439ZM-1
393Q-1 423 28 444T98 465Q104 465 108 465T118 465T136 464Q175 464 212 467T278 474T320 485Q318 443 299 419T247 394Q228 394 191 400T103 406Q75 406 48 403T-1 393Z" />
<glyph unicode="&#xb3;" horiz-adv-x="380" d="M163 391Q106 391 71 414T36 476Q36 507 59 527T118 548Q114 537 112 525T110 501Q110 469 126 452T172 435Q201 435 220 456T240 509Q240 543 212 566T133 590L145 606L199 613Q252 613 286 585T320 513Q320 477
300 450T244 407T163 391ZM133 590L130 613Q163 618 188 633T228 669T243 714Q243 736 229 749T191 763Q162 763 148 741T134 673Q107 673 90 690T73 732Q73 765 107 787T192 810Q246 810 280 784T314 715Q314 682 292 655T229 612T133 590Z" />
<glyph unicode="&#xb4;" horiz-adv-x="279" d="M20 652Q36 687 66 728T135 803T211 852Q218 848 229 838T249 812T259 770Q217 757 177 731T105 675T52 619Q40 622 31 631T20 652Z" />
<glyph unicode="&#xb5;" horiz-adv-x="603" d="M125 -307Q89 -294 69 -275T42 -227T34 -159Q34 -109 46 -40T75 112T103 284T116 462Q116 490 113 517T102 572Q144 572 172 564T215 534T230 465Q230 429 220 378T199 271T188 168Q188 94 234 94Q260 94 290 126T348
214T393 339T411 480Q411 508 410 527T405 577Q414 578 423 578T439 579Q477 579 500 562T523 490Q523 471 518 434T504 350T491 252T485 154Q485 108 489 64T504 -21Q462 -4 439 22T406 82T396 156Q396 173 398 191T402 228L394 230Q370 163 335 111T253 30T145
1Q135 -51 126 -111T117 -237Q117 -261 119 -278T125 -307Z" />
<glyph unicode="&#xb6;" horiz-adv-x="620" d="M464 -329Q424 -326 400 -316T364 -277T353 -196Q353 -163 357 -114T371 14T394 211Q291 250 222 306T117 426T82 557Q82 628 109 686T191 778T330 812Q426 812 480 761T534 602Q534 571 529 516T515 388T497 233T480
68T466 -95T460 -239Q460 -262 461 -284T464 -329ZM333 742Q286 742 257 720T215 661T202 576Q202 517 229 459T302 354T406 276Q410 322 415 378T425 492T433 599T436 682Q420 713 391 727T333 742ZM186 -201Q186 -153 193 -87T211 55T232 208Q251 193 274 181T316
160Q307 85 299 28T286 -82T281 -203Q281 -250 288 -277T309 -319Q276 -317 248 -309T203 -276T186 -201Z" />
<glyph unicode="&#xb7;" horiz-adv-x="223" d="M165 259Q152 255 136 252T105 249Q90 249 75 253T50 270T40 303Q40 322 46 340T58 376Q72 381 87 383T118 386Q134 386 148 382T173 365T183 332Q183 313 177 295T165 259Z" />
<glyph unicode="&#xb8;" horiz-adv-x="207" d="M65 -40Q124 -44 155 -73T187 -152Q187 -207 152 -251T59 -313Q41 -305 31 -287T20 -243Q63 -234 88 -208T113 -144Q113 -92 59 -67Q59 -59 60 -53T65 -40Z" />
<glyph unicode="&#xb9;" horiz-adv-x="380" d="M266 798Q260 759 254 710T244 612T236 522T233 458Q233 439 235 426T241 400Q228 398 220 397T206 396Q178 396 166 411T154 462Q154 490 159 537T173 640T194 752L222 747Q200 733 177 720T135 699T108 691Q95
691 84 710T72 750Q110 761 143 772T205 792T253 810L266 798Z" />
<glyph unicode="&#xba;" horiz-adv-x="474" d="M208 440Q172 440 138 458T81 514T58 611Q58 665 77 711T130 789T212 834Q220 834 225 830T231 821Q207 807 185 781T151 710L155 709Q175 754 202 778T257 813T308 823Q355 823 385 786T416 682Q416 641 404 599T368
520T304 462T208 440ZM221 485Q255 485 279 513T317 585T330 672Q330 729 314 753T273 778Q249 778 228 762T189 719T163 660T153 598Q153 568 160 542T182 501T221 485Z" />
<glyph unicode="&#xbb;" horiz-adv-x="638" d="M560 307Q538 297 519 270T481 210T445 144T405 91T359 70Q341 70 324 79T286 115Q311 123 334 146T379 199T421 261T462 317Q447 342 433 373T403 434T370 488T329 519Q355 546 375 555T414 564Q439 564 455 543T483
490T505 425T529 364T563 327L560 307ZM319 307Q297 297 278 270T240 210T204 144T164 91T118 70Q100 70 83 79T45 115Q70 123 93 146T138 199T180 261T221 317Q206 342 192 373T162 434T129 488T88 519Q114 546 134 555T173 564Q198 564 214 543T242 490T264 425T288
364T322 327L319 307Z" />
<glyph unicode="&#xbc;" horiz-adv-x="887" d="M266 698Q260 659 254 610T244 512T236 422T233 358Q233 339 235 326T241 300Q228 298 220 297T206 296Q178 296 166 311T154 362Q154 390 159 437T173 540T194 652L222 647Q200 633 177 620T135 599T108 591Q95
591 84 610T72 650Q110 661 143 672T205 692T253 710L266 698ZM530 768Q546 754 556 725T567 665Q567 641 554 594T518 483T470 346T419 197T375 50T348 -82Q319 -78 300 -51T280 14Q280 41 295 92T336 210T391 352T449 503T499 647T530 768ZM515 124Q570 210 604
287T651 422Q672 413 687 396T702 363Q702 349 692 323T661 262T612 184T546 91L515 124ZM529 80L515 124Q561 123 600 124T674 128T745 136T819 149Q821 143 822 135T824 120Q824 98 812 85T777 72L529 80ZM787 212Q787 193 783 172T775 121T770 42Q770 19 771
7T776 -16Q770 -17 762 -18T746 -20Q722 -20 710 -7T698 31Q698 52 703 81T714 152T718 250Q726 252 734 253T749 255Q769 255 778 245T787 212Z" />
<glyph unicode="&#xbd;" horiz-adv-x="887" d="M266 698Q260 659 254 610T244 512T236 422T233 358Q233 339 235 326T241 300Q228 298 220 297T206 296Q178 296 166 311T154 362Q154 390 159 437T173 540T194 652L222 647Q200 633 177 620T135 599T108 591Q95
591 84 610T72 650Q110 661 143 672T205 692T253 710L266 698ZM530 768Q546 754 556 725T567 665Q567 641 554 594T518 483T470 346T419 197T375 50T348 -82Q319 -78 300 -51T280 14Q280 41 295 92T336 210T391 352T449 503T499 647T530 768ZM580 23L541 24Q603
60 649 104T722 193T748 279Q748 311 731 329T685 347Q652 347 636 323T619 252Q593 252 576 268T558 310Q558 347 595 370T690 394Q752 394 790 365T828 287Q828 244 798 197T712 106T580 23ZM506 -23Q506 7 535 28T605 49Q611 49 615 49T625 49T643 48Q682 48
719 51T785 58T827 69Q825 27 806 3T754 -22Q735 -22 698 -16T610 -10Q582 -10 555 -13T506 -23Z" />
<glyph unicode="&#xbe;" horiz-adv-x="887" d="M163 291Q106 291 71 314T36 376Q36 407 59 427T118 448Q114 437 112 425T110 401Q110 369 126 352T172 335Q201 335 220 356T240 409Q240 443 212 466T133 490L145 506L199 513Q252 513 286 485T320 413Q320 377
300 350T244 307T163 291ZM133 490L130 513Q163 518 188 533T228 569T243 614Q243 636 229 649T191 663Q162 663 148 641T134 573Q107 573 90 590T73 632Q73 665 107 687T192 710Q246 710 280 684T314 615Q314 582 292 555T229 512T133 490ZM530 768Q546 754 556
725T567 665Q567 641 554 594T518 483T470 346T419 197T375 50T348 -82Q319 -78 300 -51T280 14Q280 41 295 92T336 210T391 352T449 503T499 647T530 768ZM515 124Q570 210 604 287T651 422Q672 413 687 396T702 363Q702 349 692 323T661 262T612 184T546 91L515
124ZM529 80L515 124Q561 123 600 124T674 128T745 136T819 149Q821 143 822 135T824 120Q824 98 812 85T777 72L529 80ZM787 212Q787 193 783 172T775 121T770 42Q770 19 771 7T776 -16Q770 -17 762 -18T746 -20Q722 -20 710 -7T698 31Q698 52 703 81T714 152T718
250Q726 252 734 253T749 255Q769 255 778 245T787 212Z" />
<glyph unicode="&#xbf;" horiz-adv-x="458" d="M328 259Q328 217 305 185T248 126T180 72T123 12T100 -62Q100 -103 126 -127T195 -152Q239 -152 266 -126T293 -59Q293 -21 268 9Q276 13 285 15T305 17Q340 17 361 -6T383 -65Q383 -104 357 -136T285 -188T184
-207Q128 -207 87 -188T23 -135T0 -53Q0 -8 18 25T64 85T123 135T183 183T229 238T247 307Q247 321 244 336T236 363Q267 353 287 339T318 304T328 259ZM231 570Q245 575 260 577T291 580Q307 580 321 576T346 559T356 526Q356 507 350 489T338 453Q325 449 309
446T278 443Q263 443 248 448T223 464T213 497Q213 516 219 534T231 570Z" />
<glyph unicode="&#xc0;" horiz-adv-x="645" d="M352 707Q332 657 304 591T243 447T180 288T121 125T76 -33Q44 -19 26 -6T2 19T-5 44Q-5 57 12 99T57 203T119 339T189 492T256 643T308 776L352 707ZM473 64Q466 85 456 128T434 230T408 354T379 485T349 608T318
708Q305 743 290 761T263 793Q279 799 294 802T322 805Q358 805 381 784T421 722T451 624T480 493Q501 396 519 304T562 136T620 12Q600 0 578 -8T541 -16Q510 -16 497 4T473 64ZM167 306H436Q433 278 417 264T380 244T337 238L145 231L167 306ZM490 900Q489 889
480 880T458 867Q438 893 406 923T334 979T251 1018Q252 1044 261 1060T281 1086T299 1100Q337 1085 375 1051T444 976T490 900Z" />
<glyph unicode="&#xc1;" horiz-adv-x="645" d="M352 707Q332 657 304 591T243 447T180 288T121 125T76 -33Q44 -19 26 -6T2 19T-5 44Q-5 57 12 99T57 203T119 339T189 492T256 643T308 776L352 707ZM473 64Q466 85 456 128T434 230T408 354T379 485T349 608T318
708Q305 743 290 761T263 793Q279 799 294 802T322 805Q358 805 381 784T421 722T451 624T480 493Q501 396 519 304T562 136T620 12Q600 0 578 -8T541 -16Q510 -16 497 4T473 64ZM167 306H436Q433 278 417 264T380 244T337 238L145 231L167 306ZM251 900Q267 935
297 976T366 1051T442 1100Q449 1096 460 1086T480 1060T490 1018Q448 1005 408 979T336 923T283 867Q271 870 262 879T251 900Z" />
<glyph unicode="&#xc2;" horiz-adv-x="645" d="M352 707Q332 657 304 591T243 447T180 288T121 125T76 -33Q44 -19 26 -6T2 19T-5 44Q-5 57 12 99T57 203T119 339T189 492T256 643T308 776L352 707ZM473 64Q466 85 456 128T434 230T408 354T379 485T349 608T318
708Q305 743 290 761T263 793Q279 799 294 802T322 805Q358 805 381 784T421 722T451 624T480 493Q501 396 519 304T562 136T620 12Q600 0 578 -8T541 -16Q510 -16 497 4T473 64ZM167 306H436Q433 278 417 264T380 244T337 238L145 231L167 306ZM251 867Q245 872
234 881T214 907T204 949Q262 986 307 1024T383 1100Q404 1096 415 1084T433 1053T451 1009T479 955T530 894Q520 890 509 887T478 883Q448 883 430 898T399 953T375 1067L396 1034Q380 1005 362 979T317 926T251 867Z" />
<glyph unicode="&#xc3;" horiz-adv-x="645" d="M352 707Q332 657 304 591T243 447T180 288T121 125T76 -33Q44 -19 26 -6T2 19T-5 44Q-5 57 12 99T57 203T119 339T189 492T256 643T308 776L352 707ZM473 64Q466 85 456 128T434 230T408 354T379 485T349 608T318
708Q305 743 290 761T263 793Q279 799 294 802T322 805Q358 805 381 784T421 722T451 624T480 493Q501 396 519 304T562 136T620 12Q600 0 578 -8T541 -16Q510 -16 497 4T473 64ZM167 306H436Q433 278 417 264T380 244T337 238L145 231L167 306ZM238 930Q228 930
220 934T212 947Q219 986 233 1008T266 1040T304 1049Q329 1049 352 1042T396 1028T435 1020Q460 1020 477 1030T503 1054Q513 1054 520 1050T529 1037Q524 998 509 976T475 944T437 935Q413 935 390 942T346 957T306 964Q281 964 264 954T238 930Z" />
<glyph unicode="&#xc4;" horiz-adv-x="645" d="M352 707Q332 657 304 591T243 447T180 288T121 125T76 -33Q44 -19 26 -6T2 19T-5 44Q-5 57 12 99T57 203T119 339T189 492T256 643T308 776L352 707ZM473 64Q466 85 456 128T434 230T408 354T379 485T349 608T318
708Q305 743 290 761T263 793Q279 799 294 802T322 805Q358 805 381 784T421 722T451 624T480 493Q501 396 519 304T562 136T620 12Q600 0 578 -8T541 -16Q510 -16 497 4T473 64ZM167 306H436Q433 278 417 264T380 244T337 238L145 231L167 306ZM318 916Q306 912
293 910T266 907Q253 907 240 911T217 926T208 955Q208 971 213 986T225 1018Q237 1022 250 1025T277 1028Q290 1028 303 1024T326 1009T335 979Q335 963 329 948T318 916ZM508 916Q496 912 483 910T456 907Q443 907 430 911T407 926T398 955Q398 971 403 986T415
1018Q427 1022 440 1025T467 1028Q480 1028 493 1024T516 1009T525 979Q525 963 519 948T508 916Z" />
<glyph unicode="&#xc5;" horiz-adv-x="645" d="M352 707Q332 657 304 591T243 447T180 288T121 125T76 -33Q44 -19 26 -6T2 19T-5 44Q-5 57 12 99T57 203T119 339T189 492T256 643T308 776L352 707ZM473 64Q466 85 456 128T434 230T408 354T379 485T349 608T318
708Q305 743 290 761T263 793Q279 799 294 802T322 805Q358 805 381 784T421 722T451 624T480 493Q501 396 519 304T562 136T620 12Q600 0 578 -8T541 -16Q510 -16 497 4T473 64ZM167 306H436Q433 278 417 264T380 244T337 238L145 231L167 306ZM411 941Q416 956
419 971T423 998Q423 1024 409 1031T375 1039Q352 1039 330 1034Q325 1019 322 1004T318 977Q318 951 332 944T366 936Q389 936 411 941ZM461 889Q439 882 412 877T359 872Q334 872 309 880T268 908T252 964Q252 995 260 1025T280 1086Q303 1093 329 1098T382 1103Q408
1103 432 1095T473 1067T489 1011Q489 980 481 951T461 889Z" />
<glyph unicode="&#xc6;" horiz-adv-x="909" d="M61 -33Q28 -24 12 -11T-10 17T-15 44Q-15 56 3 95T52 192T120 317T194 451T264 579T316 681L368 790Q393 787 430 784T508 777T587 773T651 771Q716 771 779 776T899 793Q892 754 868 732T808 701T735 689T661 687Q636
687 608 688T548 692T481 699T408 709Q387 659 353 592T279 448T197 288T120 123T61 -33ZM380 -8Q383 1 391 16T416 47T463 73T542 84Q608 84 670 88T783 99T864 114Q857 56 824 24T743 -8Q712 -8 657 -2T530 5Q495 5 457 3T380 -8ZM420 41Q419 47 418 54T417 69Q417
105 423 160T440 282T460 424T477 571T484 712L584 717Q586 709 586 701T587 683Q587 650 581 603T567 496T550 370T536 230T530 83Q530 80 530 77T530 70L420 41ZM268 309Q267 316 267 323T266 338Q266 373 283 390T328 413T390 419Q400 419 425 419T484 418T551
418T611 417T646 416Q681 416 714 421T771 445Q772 439 772 433T773 419Q773 375 756 358T710 340Q700 340 679 340T630 340T577 341T530 341T501 341Q469 341 429 340T348 332T268 309Z" />
<glyph unicode="&#xc7;" horiz-adv-x="687" d="M570 195Q584 195 597 186T611 168Q566 78 491 27T327 -25Q246 -25 186 19T93 145T60 337Q60 441 87 527T163 675T281 772T431 806Q526 806 581 757T637 625Q637 582 621 549T577 497T511 478Q503 478 492 480T467
486Q484 504 497 530T517 585T525 640Q525 692 499 720T425 748Q372 748 326 716T244 626T188 493T168 331Q168 243 191 178T256 78T355 43Q417 43 475 84T570 195ZM271 -40Q330 -44 361 -73T393 -152Q393 -207 358 -251T265 -313Q247 -305 237 -287T226 -243Q269
-234 294 -208T319 -144Q319 -92 265 -67Q265 -59 266 -53T271 -40Z" />
<glyph unicode="&#xc8;" horiz-adv-x="599" d="M120 21Q116 36 113 54T110 92Q110 125 116 178T132 296T151 433T167 576T174 712L274 717Q276 709 276 701T277 681Q277 650 271 603T257 495T241 368T226 232T220 95Q220 73 221 66T230 50L120 21ZM70 -8Q78 15
91 31T125 59T172 77T232 84Q297 86 344 88T426 93T491 101T554 114Q547 56 515 24T431 -8Q403 -8 347 -2T219 5Q177 5 140 2T70 -8ZM90 309Q89 314 88 323T86 338Q86 367 98 384T138 410T209 419Q227 419 250 419T297 417T338 416Q382 416 411 423T459 445Q461
438 462 429T464 408Q464 373 447 357T388 340Q379 340 356 340T300 341Q254 341 216 338T147 327T90 309ZM216 681Q178 681 159 685T133 700T126 733Q126 747 128 761T134 785Q185 778 238 775T341 771Q407 771 470 777T589 793Q582 752 556 729T477 696Q451 692
408 689T314 683T216 681ZM489 900Q488 889 479 880T457 867Q437 893 405 923T333 979T250 1018Q251 1044 260 1060T280 1086T298 1100Q336 1085 374 1051T443 976T489 900Z" />
<glyph unicode="&#xc9;" horiz-adv-x="599" d="M120 21Q116 36 113 54T110 92Q110 125 116 178T132 296T151 433T167 576T174 712L274 717Q276 709 276 701T277 681Q277 650 271 603T257 495T241 368T226 232T220 95Q220 73 221 66T230 50L120 21ZM70 -8Q78 15
91 31T125 59T172 77T232 84Q297 86 344 88T426 93T491 101T554 114Q547 56 515 24T431 -8Q403 -8 347 -2T219 5Q177 5 140 2T70 -8ZM90 309Q89 314 88 323T86 338Q86 367 98 384T138 410T209 419Q227 419 250 419T297 417T338 416Q382 416 411 423T459 445Q461
438 462 429T464 408Q464 373 447 357T388 340Q379 340 356 340T300 341Q254 341 216 338T147 327T90 309ZM216 681Q178 681 159 685T133 700T126 733Q126 747 128 761T134 785Q185 778 238 775T341 771Q407 771 470 777T589 793Q582 752 556 729T477 696Q451 692
408 689T314 683T216 681ZM250 900Q266 935 296 976T365 1051T441 1100Q448 1096 459 1086T479 1060T489 1018Q447 1005 407 979T335 923T282 867Q270 870 261 879T250 900Z" />
<glyph unicode="&#xca;" horiz-adv-x="599" d="M120 21Q116 36 113 54T110 92Q110 125 116 178T132 296T151 433T167 576T174 712L274 717Q276 709 276 701T277 681Q277 650 271 603T257 495T241 368T226 232T220 95Q220 73 221 66T230 50L120 21ZM70 -8Q78 15
91 31T125 59T172 77T232 84Q297 86 344 88T426 93T491 101T554 114Q547 56 515 24T431 -8Q403 -8 347 -2T219 5Q177 5 140 2T70 -8ZM90 309Q89 314 88 323T86 338Q86 367 98 384T138 410T209 419Q227 419 250 419T297 417T338 416Q382 416 411 423T459 445Q461
438 462 429T464 408Q464 373 447 357T388 340Q379 340 356 340T300 341Q254 341 216 338T147 327T90 309ZM216 681Q178 681 159 685T133 700T126 733Q126 747 128 761T134 785Q185 778 238 775T341 771Q407 771 470 777T589 793Q582 752 556 729T477 696Q451 692
408 689T314 683T216 681ZM250 867Q244 872 233 881T213 907T203 949Q261 986 306 1024T382 1100Q403 1096 414 1084T432 1053T450 1009T478 955T529 894Q519 890 508 887T477 883Q447 883 429 898T398 953T374 1067L395 1034Q379 1005 361 979T316 926T250 867Z"
/>
<glyph unicode="&#xcb;" horiz-adv-x="599" d="M120 21Q116 36 113 54T110 92Q110 125 116 178T132 296T151 433T167 576T174 712L274 717Q276 709 276 701T277 681Q277 650 271 603T257 495T241 368T226 232T220 95Q220 73 221 66T230 50L120 21ZM70 -8Q78 15
91 31T125 59T172 77T232 84Q297 86 344 88T426 93T491 101T554 114Q547 56 515 24T431 -8Q403 -8 347 -2T219 5Q177 5 140 2T70 -8ZM90 309Q89 314 88 323T86 338Q86 367 98 384T138 410T209 419Q227 419 250 419T297 417T338 416Q382 416 411 423T459 445Q461
438 462 429T464 408Q464 373 447 357T388 340Q379 340 356 340T300 341Q254 341 216 338T147 327T90 309ZM216 681Q178 681 159 685T133 700T126 733Q126 747 128 761T134 785Q185 778 238 775T341 771Q407 771 470 777T589 793Q582 752 556 729T477 696Q451 692
408 689T314 683T216 681ZM317 916Q305 912 292 910T265 907Q252 907 239 911T216 926T207 955Q207 971 212 986T224 1018Q236 1022 249 1025T276 1028Q289 1028 302 1024T325 1009T334 979Q334 963 328 948T317 916ZM507 916Q495 912 482 910T455 907Q442 907
429 911T406 926T397 955Q397 971 402 986T414 1018Q426 1022 439 1025T466 1028Q479 1028 492 1024T515 1009T524 979Q524 963 518 948T507 916Z" />
<glyph unicode="&#xcc;" horiz-adv-x="344" d="M257 684Q257 652 251 596T234 471T214 330T198 193T191 78Q191 2 205 -31Q163 -16 139 5T103 57T92 129Q92 160 98 211T112 327T129 460T144 596T150 720Q150 741 149 762T146 802Q185 800 207 791T240 767T254
731T257 684ZM331 900Q330 889 321 880T299 867Q279 893 247 923T175 979T92 1018Q93 1044 102 1060T122 1086T140 1100Q178 1085 216 1051T285 976T331 900Z" />
<glyph unicode="&#xcd;" horiz-adv-x="344" d="M257 684Q257 652 251 596T234 471T214 330T198 193T191 78Q191 2 205 -31Q163 -16 139 5T103 57T92 129Q92 160 98 211T112 327T129 460T144 596T150 720Q150 741 149 762T146 802Q185 800 207 791T240 767T254
731T257 684ZM92 900Q108 935 138 976T207 1051T283 1100Q290 1096 301 1086T321 1060T331 1018Q289 1005 249 979T177 923T124 867Q112 870 103 879T92 900Z" />
<glyph unicode="&#xce;" horiz-adv-x="344" d="M257 684Q257 652 251 596T234 471T214 330T198 193T191 78Q191 2 205 -31Q163 -16 139 5T103 57T92 129Q92 160 98 211T112 327T129 460T144 596T150 720Q150 741 149 762T146 802Q185 800 207 791T240 767T254
731T257 684ZM92 867Q86 872 75 881T55 907T45 949Q103 986 148 1024T224 1100Q245 1096 256 1084T274 1053T292 1009T320 955T371 894Q361 890 350 887T319 883Q289 883 271 898T240 953T216 1067L237 1034Q221 1005 203 979T158 926T92 867Z" />
<glyph unicode="&#xcf;" horiz-adv-x="344" d="M257 684Q257 652 251 596T234 471T214 330T198 193T191 78Q191 2 205 -31Q163 -16 139 5T103 57T92 129Q92 160 98 211T112 327T129 460T144 596T150 720Q150 741 149 762T146 802Q185 800 207 791T240 767T254
731T257 684ZM159 916Q147 912 134 910T107 907Q94 907 81 911T58 926T49 955Q49 971 54 986T66 1018Q78 1022 91 1025T118 1028Q131 1028 144 1024T167 1009T176 979Q176 963 170 948T159 916ZM349 916Q337 912 324 910T297 907Q284 907 271 911T248 926T239 955Q239
971 244 986T256 1018Q268 1022 281 1025T308 1028Q321 1028 334 1024T357 1009T366 979Q366 963 360 948T349 916Z" />
<glyph unicode="&#xd0;" horiz-adv-x="760" d="M246 759Q296 782 336 792T419 802Q506 802 571 755T672 622T709 423Q709 326 682 246T604 107T484 17T330 -15Q288 -15 243 -6T157 18T90 53Q102 115 112 183T130 320T144 458T153 592T156 714Q156 752 155 776T151
816T142 847Q185 833 210 812T246 759ZM206 70Q226 57 251 51T303 45Q399 45 466 90T568 221T604 428Q604 520 577 589T501 696T386 735Q354 735 320 726T259 702Q259 664 254 602T241 465T225 315T212 176T206 70ZM360 377Q303 377 257 382T165 387Q141 387 114
387T66 385T36 380Q36 384 36 388T35 396Q35 417 41 434T65 460T119 470Q175 470 222 465T314 460Q339 460 365 460T413 463T443 467Q443 463 443 459T444 451Q444 430 438 414T415 387T360 377Z" />
<glyph unicode="&#xd1;" horiz-adv-x="821" d="M85 58Q85 71 90 110T105 206T123 330T142 463T156 591T162 695Q162 733 159 757T148 796Q187 783 206 763T231 716T238 657Q238 576 225 485T199 293T185 78Q185 57 186 36T189 -5Q160 -5 140 0T108 14T91 34T85
58ZM600 45Q596 58 595 70T593 97Q593 158 601 230T620 383T639 549T647 720Q647 740 646 761T643 801Q672 801 691 796T723 783T740 763T746 740Q746 727 741 687T727 588T708 461T690 325T676 195T670 90Q670 70 671 51T675 14L600 45ZM524 38Q511 57 489 102T436
210T370 343T299 481T228 608T161 703Q136 733 113 748T75 773Q98 789 118 795T155 802Q188 802 215 789T265 742Q282 716 321 645T416 461Q449 394 482 325T551 195T622 87T698 19Q670 -3 648 -12T603 -21Q586 -21 572 -14T547 7T524 38ZM318 930Q308 930 300
934T292 947Q299 986 313 1008T346 1040T384 1049Q409 1049 432 1042T476 1028T515 1020Q540 1020 557 1030T583 1054Q593 1054 600 1050T609 1037Q604 998 589 976T555 944T517 935Q493 935 470 942T426 957T386 964Q361 964 344 954T318 930Z" />
<glyph unicode="&#xd2;" horiz-adv-x="802" d="M359 -25Q281 -25 226 11T135 106T82 237T65 379Q65 462 85 535T143 667T230 767T342 827Q349 826 354 821T361 811Q326 789 294 761T236 694T194 596L202 594Q235 663 284 709T389 780T498 804Q562 804 616 769T703
662T737 479Q737 409 724 337T682 200T610 85T503 5T359 -25ZM372 35Q432 35 479 71T558 167T607 301T624 450Q624 554 602 615T543 704T458 731Q397 731 347 696T259 602T202 472T182 330Q182 270 193 217T227 123T286 59T372 35ZM579 900Q578 889 569 880T547
867Q527 893 495 923T423 979T340 1018Q341 1044 350 1060T370 1086T388 1100Q426 1085 464 1051T533 976T579 900Z" />
<glyph unicode="&#xd3;" horiz-adv-x="802" d="M359 -25Q281 -25 226 11T135 106T82 237T65 379Q65 462 85 535T143 667T230 767T342 827Q349 826 354 821T361 811Q326 789 294 761T236 694T194 596L202 594Q235 663 284 709T389 780T498 804Q562 804 616 769T703
662T737 479Q737 409 724 337T682 200T610 85T503 5T359 -25ZM372 35Q432 35 479 71T558 167T607 301T624 450Q624 554 602 615T543 704T458 731Q397 731 347 696T259 602T202 472T182 330Q182 270 193 217T227 123T286 59T372 35ZM340 900Q356 935 386 976T455
1051T531 1100Q538 1096 549 1086T569 1060T579 1018Q537 1005 497 979T425 923T372 867Q360 870 351 879T340 900Z" />
<glyph unicode="&#xd4;" horiz-adv-x="802" d="M359 -25Q281 -25 226 11T135 106T82 237T65 379Q65 462 85 535T143 667T230 767T342 827Q349 826 354 821T361 811Q326 789 294 761T236 694T194 596L202 594Q235 663 284 709T389 780T498 804Q562 804 616 769T703
662T737 479Q737 409 724 337T682 200T610 85T503 5T359 -25ZM372 35Q432 35 479 71T558 167T607 301T624 450Q624 554 602 615T543 704T458 731Q397 731 347 696T259 602T202 472T182 330Q182 270 193 217T227 123T286 59T372 35ZM340 867Q334 872 323 881T303
907T293 949Q351 986 396 1024T472 1100Q493 1096 504 1084T522 1053T540 1009T568 955T619 894Q609 890 598 887T567 883Q537 883 519 898T488 953T464 1067L485 1034Q469 1005 451 979T406 926T340 867Z" />
<glyph unicode="&#xd5;" horiz-adv-x="802" d="M359 -25Q281 -25 226 11T135 106T82 237T65 379Q65 462 85 535T143 667T230 767T342 827Q349 826 354 821T361 811Q326 789 294 761T236 694T194 596L202 594Q235 663 284 709T389 780T498 804Q562 804 616 769T703
662T737 479Q737 409 724 337T682 200T610 85T503 5T359 -25ZM372 35Q432 35 479 71T558 167T607 301T624 450Q624 554 602 615T543 704T458 731Q397 731 347 696T259 602T202 472T182 330Q182 270 193 217T227 123T286 59T372 35ZM327 930Q317 930 309 934T301
947Q308 986 322 1008T355 1040T393 1049Q418 1049 441 1042T485 1028T524 1020Q549 1020 566 1030T592 1054Q602 1054 609 1050T618 1037Q613 998 598 976T564 944T526 935Q502 935 479 942T435 957T395 964Q370 964 353 954T327 930Z" />
<glyph unicode="&#xd6;" horiz-adv-x="802" d="M359 -25Q281 -25 226 11T135 106T82 237T65 379Q65 462 85 535T143 667T230 767T342 827Q349 826 354 821T361 811Q326 789 294 761T236 694T194 596L202 594Q235 663 284 709T389 780T498 804Q562 804 616 769T703
662T737 479Q737 409 724 337T682 200T610 85T503 5T359 -25ZM372 35Q432 35 479 71T558 167T607 301T624 450Q624 554 602 615T543 704T458 731Q397 731 347 696T259 602T202 472T182 330Q182 270 193 217T227 123T286 59T372 35ZM407 916Q395 912 382 910T355
907Q342 907 329 911T306 926T297 955Q297 971 302 986T314 1018Q326 1022 339 1025T366 1028Q379 1028 392 1024T415 1009T424 979Q424 963 418 948T407 916ZM597 916Q585 912 572 910T545 907Q532 907 519 911T496 926T487 955Q487 971 492 986T504 1018Q516
1022 529 1025T556 1028Q569 1028 582 1024T605 1009T614 979Q614 963 608 948T597 916Z" />
<glyph unicode="&#xd7;" horiz-adv-x="620" d="M492 136Q460 169 420 204T316 289Q276 234 248 203T199 158T157 145Q138 145 120 152T91 172Q134 213 169 256T242 345Q183 393 152 421T110 468T99 507Q99 527 106 544T126 573Q158 540 197 505T301 420Q342 476
369 507T418 551T460 564Q480 564 497 557T526 537Q483 496 448 453T375 364Q436 316 467 288T508 241T519 202Q519 183 512 165T492 136Z" />
<glyph unicode="&#xd8;" horiz-adv-x="802" d="M359 -25Q281 -25 226 11T135 106T82 237T65 379Q65 462 85 535T143 667T230 767T342 827Q349 826 354 821T361 811Q326 789 294 761T236 694T194 596L202 594Q235 663 284 709T389 780T498 804Q562 804 616 769T703
662T737 479Q737 409 724 337T682 200T610 85T503 5T359 -25ZM372 35Q432 35 479 71T558 167T607 301T624 450Q624 554 602 615T543 704T458 731Q397 731 347 696T259 602T202 472T182 330Q182 270 193 217T227 123T286 59T372 35ZM558 949Q558 949 565 943T582
924T599 892T607 846Q607 825 591 776T548 659T488 509T421 343T357 175T306 21T278 -101Q278 -101 270 -99T249 -92T224 -76T203 -48T194 -5Q194 18 212 70T259 194T325 349T399 519T470 687T526 836T558 949Z" />
<glyph unicode="&#xd9;" horiz-adv-x="755" d="M233 653Q233 586 223 519T201 382T190 239Q190 167 204 129T242 77T298 62Q318 62 344 71T400 105T458 176T510 294T547 472T561 720L564 388Q554 329 538 271T497 160T439 68T359 4T254 -20Q173 -20 130 36T87
220Q87 260 91 312T103 420T116 530T127 631T132 707Q132 772 121 802Q161 788 185 768T221 719T233 653ZM668 684Q668 652 662 596T645 471T625 330T609 193T602 78Q602 2 616 -31Q574 -16 549 5T514 57T503 129Q503 160 509 211T523 327T540 460T555 596T561
720Q561 741 560 762T557 802Q596 800 618 791T651 767T665 731T668 684ZM537 900Q536 889 527 880T505 867Q485 893 453 923T381 979T298 1018Q299 1044 308 1060T328 1086T346 1100Q384 1085 422 1051T491 976T537 900Z" />
<glyph unicode="&#xda;" horiz-adv-x="755" d="M233 653Q233 586 223 519T201 382T190 239Q190 167 204 129T242 77T298 62Q318 62 344 71T400 105T458 176T510 294T547 472T561 720L564 388Q554 329 538 271T497 160T439 68T359 4T254 -20Q173 -20 130 36T87
220Q87 260 91 312T103 420T116 530T127 631T132 707Q132 772 121 802Q161 788 185 768T221 719T233 653ZM668 684Q668 652 662 596T645 471T625 330T609 193T602 78Q602 2 616 -31Q574 -16 549 5T514 57T503 129Q503 160 509 211T523 327T540 460T555 596T561
720Q561 741 560 762T557 802Q596 800 618 791T651 767T665 731T668 684ZM298 900Q314 935 344 976T413 1051T489 1100Q496 1096 507 1086T527 1060T537 1018Q495 1005 455 979T383 923T330 867Q318 870 309 879T298 900Z" />
<glyph unicode="&#xdb;" horiz-adv-x="755" d="M233 653Q233 586 223 519T201 382T190 239Q190 167 204 129T242 77T298 62Q318 62 344 71T400 105T458 176T510 294T547 472T561 720L564 388Q554 329 538 271T497 160T439 68T359 4T254 -20Q173 -20 130 36T87
220Q87 260 91 312T103 420T116 530T127 631T132 707Q132 772 121 802Q161 788 185 768T221 719T233 653ZM668 684Q668 652 662 596T645 471T625 330T609 193T602 78Q602 2 616 -31Q574 -16 549 5T514 57T503 129Q503 160 509 211T523 327T540 460T555 596T561
720Q561 741 560 762T557 802Q596 800 618 791T651 767T665 731T668 684ZM298 867Q292 872 281 881T261 907T251 949Q309 986 354 1024T430 1100Q451 1096 462 1084T480 1053T498 1009T526 955T577 894Q567 890 556 887T525 883Q495 883 477 898T446 953T422 1067L443
1034Q427 1005 409 979T364 926T298 867Z" />
<glyph unicode="&#xdc;" horiz-adv-x="755" d="M233 653Q233 586 223 519T201 382T190 239Q190 167 204 129T242 77T298 62Q318 62 344 71T400 105T458 176T510 294T547 472T561 720L564 388Q554 329 538 271T497 160T439 68T359 4T254 -20Q173 -20 130 36T87
220Q87 260 91 312T103 420T116 530T127 631T132 707Q132 772 121 802Q161 788 185 768T221 719T233 653ZM668 684Q668 652 662 596T645 471T625 330T609 193T602 78Q602 2 616 -31Q574 -16 549 5T514 57T503 129Q503 160 509 211T523 327T540 460T555 596T561
720Q561 741 560 762T557 802Q596 800 618 791T651 767T665 731T668 684ZM365 916Q353 912 340 910T313 907Q300 907 287 911T264 926T255 955Q255 971 260 986T272 1018Q284 1022 297 1025T324 1028Q337 1028 350 1024T373 1009T382 979Q382 963 376 948T365 916ZM555
916Q543 912 530 910T503 907Q490 907 477 911T454 926T445 955Q445 971 450 986T462 1018Q474 1022 487 1025T514 1028Q527 1028 540 1024T563 1009T572 979Q572 963 566 948T555 916Z" />
<glyph unicode="&#xdd;" horiz-adv-x="565" d="M313 274Q305 225 301 174T296 78Q296 41 299 13T310 -31Q269 -31 243 -18T205 28T193 125Q193 140 194 157T198 201T206 273Q154 473 113 594T33 777Q51 791 69 797T107 803Q128 803 144 793T174 755T203 673T236
532T278 316Q316 383 350 452T410 587T454 709T477 807Q521 794 543 774T565 729Q565 710 554 680T514 598T437 469T313 274ZM213 900Q229 935 259 976T328 1051T404 1100Q411 1096 422 1086T442 1060T452 1018Q410 1005 370 979T298 923T245 867Q233 870 224 879T213
900Z" />
<glyph unicode="&#xde;" horiz-adv-x="621" d="M232 596Q275 622 321 632T405 643Q475 643 521 615T589 542T612 444Q612 395 594 346T539 256T448 191T324 166Q310 166 297 167T269 170L266 202Q337 202 384 222T458 275T498 347T510 425Q510 464 494 497T443
550T356 570Q333 570 306 565T248 548L232 596ZM97 69Q97 105 104 161T121 285T140 427T157 575T164 716Q164 754 161 782T150 826Q180 823 205 805T247 757T263 683Q263 642 255 578T235 435T215 266T206 83Q206 60 207 36T212 -15Q203 -16 197 -16T186 -17Q143
-17 120 3T97 69Z" />
<glyph unicode="&#xdf;" horiz-adv-x="714" d="M467 469Q532 465 579 437T653 362T679 251Q679 191 659 140T602 49T517 -13T413 -35Q340 -35 297 3T254 104Q254 140 268 169T304 216T354 234Q363 234 375 231T400 223Q389 211 379 188T361 138T354 92Q354 58
372 39T423 19Q463 19 495 48T548 127T568 237Q568 293 547 336T489 404T401 429L386 468Q433 498 468 538T524 625T545 720Q545 776 521 808T453 841Q386 841 337 761T262 533Q251 466 240 396T219 257T205 126T199 10Q199 -16 201 -43T211 -118Q176 -99 153 -71T119
-3T108 87Q108 117 112 164T124 267T142 381T162 492Q130 485 103 478T51 461Q51 477 51 480T50 483T50 487Q52 533 82 552T182 573Q226 736 300 818T472 900Q523 900 561 879T621 820T643 734Q643 686 621 637T560 546T466 474L467 469Z" />
<glyph unicode="&#xe0;" horiz-adv-x="635" d="M417 170Q398 118 363 77T284 12T195 -12Q128 -12 91 40T53 186Q53 261 74 327T133 444T221 522T328 551Q345 551 364 548T407 537Q353 524 308 492T230 415T179 315T161 199Q161 138 182 106T242 73Q283 73 320
105T387 193T434 319T451 466Q451 492 449 519T443 568Q453 569 461 569T476 570Q517 570 538 549T560 488Q560 462 553 421T537 329T520 222T512 111Q512 68 519 37T543 -33Q479 -20 451 23T423 149Q423 157 423 160T424 168L417 170ZM486 652Q485 641 476 632T454
619Q434 645 402 675T330 731T247 770Q248 796 257 812T277 838T295 852Q333 837 371 803T440 728T486 652Z" />
<glyph unicode="&#xe1;" horiz-adv-x="635" d="M417 170Q398 118 363 77T284 12T195 -12Q128 -12 91 40T53 186Q53 261 74 327T133 444T221 522T328 551Q345 551 364 548T407 537Q353 524 308 492T230 415T179 315T161 199Q161 138 182 106T242 73Q283 73 320
105T387 193T434 319T451 466Q451 492 449 519T443 568Q453 569 461 569T476 570Q517 570 538 549T560 488Q560 462 553 421T537 329T520 222T512 111Q512 68 519 37T543 -33Q479 -20 451 23T423 149Q423 157 423 160T424 168L417 170ZM247 652Q263 687 293 728T362
803T438 852Q445 848 456 838T476 812T486 770Q444 757 404 731T332 675T279 619Q267 622 258 631T247 652Z" />
<glyph unicode="&#xe2;" horiz-adv-x="635" d="M417 170Q398 118 363 77T284 12T195 -12Q128 -12 91 40T53 186Q53 261 74 327T133 444T221 522T328 551Q345 551 364 548T407 537Q353 524 308 492T230 415T179 315T161 199Q161 138 182 106T242 73Q283 73 320
105T387 193T434 319T451 466Q451 492 449 519T443 568Q453 569 461 569T476 570Q517 570 538 549T560 488Q560 462 553 421T537 329T520 222T512 111Q512 68 519 37T543 -33Q479 -20 451 23T423 149Q423 157 423 160T424 168L417 170ZM247 619Q241 624 230 633T210
659T200 701Q258 738 303 776T379 852Q400 848 411 836T429 805T447 761T475 707T526 646Q516 642 505 639T474 635Q444 635 426 650T395 705T371 819L392 786Q376 757 358 731T313 678T247 619Z" />
<glyph unicode="&#xe3;" horiz-adv-x="635" d="M417 170Q398 118 363 77T284 12T195 -12Q128 -12 91 40T53 186Q53 261 74 327T133 444T221 522T328 551Q345 551 364 548T407 537Q353 524 308 492T230 415T179 315T161 199Q161 138 182 106T242 73Q283 73 320
105T387 193T434 319T451 466Q451 492 449 519T443 568Q453 569 461 569T476 570Q517 570 538 549T560 488Q560 462 553 421T537 329T520 222T512 111Q512 68 519 37T543 -33Q479 -20 451 23T423 149Q423 157 423 160T424 168L417 170ZM234 682Q224 682 216 686T208
699Q215 738 229 760T262 792T300 801Q325 801 348 794T392 780T431 772Q456 772 473 782T499 806Q509 806 516 802T525 789Q520 750 505 728T471 696T433 687Q409 687 386 694T342 709T302 716Q277 716 260 706T234 682Z" />
<glyph unicode="&#xe4;" horiz-adv-x="635" d="M417 170Q398 118 363 77T284 12T195 -12Q128 -12 91 40T53 186Q53 261 74 327T133 444T221 522T328 551Q345 551 364 548T407 537Q353 524 308 492T230 415T179 315T161 199Q161 138 182 106T242 73Q283 73 320
105T387 193T434 319T451 466Q451 492 449 519T443 568Q453 569 461 569T476 570Q517 570 538 549T560 488Q560 462 553 421T537 329T520 222T512 111Q512 68 519 37T543 -33Q479 -20 451 23T423 149Q423 157 423 160T424 168L417 170ZM314 668Q302 664 289 662T262
659Q249 659 236 663T213 678T204 707Q204 723 209 738T221 770Q233 774 246 777T273 780Q286 780 299 776T322 761T331 731Q331 715 325 700T314 668ZM504 668Q492 664 479 662T452 659Q439 659 426 663T403 678T394 707Q394 723 399 738T411 770Q423 774 436
777T463 780Q476 780 489 776T512 761T521 731Q521 715 515 700T504 668Z" />
<glyph unicode="&#xe5;" horiz-adv-x="635" d="M417 170Q398 118 363 77T284 12T195 -12Q128 -12 91 40T53 186Q53 261 74 327T133 444T221 522T328 551Q345 551 364 548T407 537Q353 524 308 492T230 415T179 315T161 199Q161 138 182 106T242 73Q283 73 320
105T387 193T434 319T451 466Q451 492 449 519T443 568Q453 569 461 569T476 570Q517 570 538 549T560 488Q560 462 553 421T537 329T520 222T512 111Q512 68 519 37T543 -33Q479 -20 451 23T423 149Q423 157 423 160T424 168L417 170ZM407 693Q412 708 415 723T419
750Q419 776 405 783T371 791Q348 791 326 786Q321 771 318 756T314 729Q314 703 328 696T362 688Q385 688 407 693ZM457 641Q435 634 408 629T355 624Q330 624 305 632T264 660T248 716Q248 747 256 777T276 838Q299 845 325 850T378 855Q404 855 428 847T469
819T485 763Q485 732 477 703T457 641Z" />
<glyph unicode="&#xe6;" horiz-adv-x="888" d="M194 -15Q130 -15 92 36T53 173Q53 247 75 314T136 434T224 517T328 548Q346 548 365 545T407 534Q358 522 314 489T235 408T181 304T161 191Q161 136 183 103T244 70Q283 70 320 103T386 191T433 317T451 463Q451
491 450 519T445 565Q448 566 461 566T482 567Q494 567 499 561T507 536T509 480L414 160Q393 109 358 70T280 8T194 -15ZM594 -15Q544 -15 504 13T440 90T412 205L494 478Q532 525 584 551T698 577Q772 577 810 540T848 432Q848 379 819 337T740 270T624 246Q592
246 564 249T510 259L513 294H550Q608 294 651 313T718 369T742 452Q742 487 726 506T679 525Q641 525 611 497T560 423T528 325T517 226Q517 138 543 94T622 49Q720 49 783 147Q803 144 811 138T820 120Q777 50 723 18T594 -15Z" />
<glyph unicode="&#xe7;" horiz-adv-x="545" d="M173 226Q173 144 199 97T273 49Q311 49 353 74T425 147Q441 145 451 140T462 120Q433 67 395 38T319 -3T248 -15Q201 -15 159 10T91 87T65 221Q65 291 84 355T141 469T232 548T354 577Q406 577 438 559T485 511T500
449Q500 420 488 394T454 350T402 333Q392 333 380 335T356 342Q372 359 383 392T395 456Q395 484 383 504T338 525Q300 525 270 498T218 427T185 331T173 226ZM239 -40Q298 -44 329 -73T361 -152Q361 -207 326 -251T233 -313Q215 -305 205 -287T194 -243Q237 -234
262 -208T287 -144Q287 -92 233 -67Q233 -59 234 -53T239 -40Z" />
<glyph unicode="&#xe8;" horiz-adv-x="542" d="M248 -15Q195 -15 154 16T89 102T65 229Q65 303 86 366T147 477T238 550T352 577Q426 577 464 540T502 432Q502 379 473 337T394 270T278 246Q246 246 218 249T164 259L167 294H204Q262 294 305 313T372 369T396
452Q396 487 380 506T333 525Q295 525 265 497T214 423T182 325T171 226Q171 138 197 94T276 49Q374 49 437 147Q474 141 474 120Q431 50 377 18T248 -15ZM448 652Q447 641 438 632T416 619Q396 645 364 675T292 731T209 770Q210 796 219 812T239 838T257 852Q295
837 333 803T402 728T448 652Z" />
<glyph unicode="&#xe9;" horiz-adv-x="542" d="M248 -15Q195 -15 154 16T89 102T65 229Q65 303 86 366T147 477T238 550T352 577Q426 577 464 540T502 432Q502 379 473 337T394 270T278 246Q246 246 218 249T164 259L167 294H204Q262 294 305 313T372 369T396
452Q396 487 380 506T333 525Q295 525 265 497T214 423T182 325T171 226Q171 138 197 94T276 49Q374 49 437 147Q474 141 474 120Q431 50 377 18T248 -15ZM209 652Q225 687 255 728T324 803T400 852Q407 848 418 838T438 812T448 770Q406 757 366 731T294 675T241
619Q229 622 220 631T209 652Z" />
<glyph unicode="&#xea;" horiz-adv-x="542" d="M248 -15Q195 -15 154 16T89 102T65 229Q65 303 86 366T147 477T238 550T352 577Q426 577 464 540T502 432Q502 379 473 337T394 270T278 246Q246 246 218 249T164 259L167 294H204Q262 294 305 313T372 369T396
452Q396 487 380 506T333 525Q295 525 265 497T214 423T182 325T171 226Q171 138 197 94T276 49Q374 49 437 147Q474 141 474 120Q431 50 377 18T248 -15ZM209 619Q203 624 192 633T172 659T162 701Q220 738 265 776T341 852Q362 848 373 836T391 805T409 761T437
707T488 646Q478 642 467 639T436 635Q406 635 388 650T357 705T333 819L354 786Q338 757 320 731T275 678T209 619Z" />
<glyph unicode="&#xeb;" horiz-adv-x="542" d="M248 -15Q195 -15 154 16T89 102T65 229Q65 303 86 366T147 477T238 550T352 577Q426 577 464 540T502 432Q502 379 473 337T394 270T278 246Q246 246 218 249T164 259L167 294H204Q262 294 305 313T372 369T396
452Q396 487 380 506T333 525Q295 525 265 497T214 423T182 325T171 226Q171 138 197 94T276 49Q374 49 437 147Q474 141 474 120Q431 50 377 18T248 -15ZM276 668Q264 664 251 662T224 659Q211 659 198 663T175 678T166 707Q166 723 171 738T183 770Q195 774 208
777T235 780Q248 780 261 776T284 761T293 731Q293 715 287 700T276 668ZM466 668Q454 664 441 662T414 659Q401 659 388 663T365 678T356 707Q356 723 361 738T373 770Q385 774 398 777T425 780Q438 780 451 776T474 761T483 731Q483 715 477 700T466 668Z" />
<glyph unicode="&#xec;" horiz-adv-x="321" d="M192 88Q192 52 195 26T204 -15Q165 -1 143 22T111 80T102 164Q102 208 110 262T126 372T134 479Q134 505 134 530T128 581Q135 582 143 582T157 583Q202 583 222 563T242 497Q242 468 230 407T206 264T192 88ZM308
652Q307 641 298 632T276 619Q256 645 224 675T152 731T69 770Q70 796 79 812T99 838T117 852Q155 837 193 803T262 728T308 652Z" />
<glyph unicode="&#xed;" horiz-adv-x="321" d="M192 88Q192 52 195 26T204 -15Q165 -1 143 22T111 80T102 164Q102 208 110 262T126 372T134 479Q134 505 134 530T128 581Q135 582 143 582T157 583Q202 583 222 563T242 497Q242 468 230 407T206 264T192 88ZM69
652Q85 687 115 728T184 803T260 852Q267 848 278 838T298 812T308 770Q266 757 226 731T154 675T101 619Q89 622 80 631T69 652Z" />
<glyph unicode="&#xee;" horiz-adv-x="321" d="M192 88Q192 52 195 26T204 -15Q165 -1 143 22T111 80T102 164Q102 208 110 262T126 372T134 479Q134 505 134 530T128 581Q135 582 143 582T157 583Q202 583 222 563T242 497Q242 468 230 407T206 264T192 88ZM69
619Q63 624 52 633T32 659T22 701Q80 738 125 776T201 852Q222 848 233 836T251 805T269 761T297 707T348 646Q338 642 327 639T296 635Q266 635 248 650T217 705T193 819L214 786Q198 757 180 731T135 678T69 619Z" />
<glyph unicode="&#xef;" horiz-adv-x="321" d="M192 88Q192 52 195 26T204 -15Q165 -1 143 22T111 80T102 164Q102 208 110 262T126 372T134 479Q134 505 134 530T128 581Q135 582 143 582T157 583Q202 583 222 563T242 497Q242 468 230 407T206 264T192 88ZM136
668Q124 664 111 662T84 659Q71 659 58 663T35 678T26 707Q26 723 31 738T43 770Q55 774 68 777T95 780Q108 780 121 776T144 761T153 731Q153 715 147 700T136 668ZM326 668Q314 664 301 662T274 659Q261 659 248 663T225 678T216 707Q216 723 221 738T233 770Q245
774 258 777T285 780Q298 780 311 776T334 761T343 731Q343 715 337 700T326 668Z" />
<glyph unicode="&#xf0;" horiz-adv-x="606" d="M337 899Q389 899 428 874T495 807T541 712T567 603T576 494Q576 420 565 347T531 208T472 93T387 14T274 -15Q218 -15 171 12T94 93T65 231Q65 327 103 394T204 496T335 531Q372 531 409 521T480 491Q480 519 478
561T467 651T444 740T403 808T338 835Q294 835 268 806T242 719Q214 719 195 738T176 784Q176 820 198 846T257 885T337 899ZM296 47Q340 47 373 80T429 168T464 294T479 438Q451 456 416 465T355 474Q304 474 262 444T194 357T168 225Q168 170 182 130T225 69T296
47ZM333 661Q369 666 408 686T487 729T561 770T624 788Q645 788 656 774T675 739Q639 734 600 714T521 671T447 629T384 611Q363 611 352 625T333 661Z" />
<glyph unicode="&#xf1;" horiz-adv-x="626" d="M216 346Q242 414 280 466T361 547T439 577Q498 577 520 539T543 435Q543 387 534 330T514 213T504 95Q504 48 518 26T561 -14Q551 -15 542 -15T524 -15Q457 -15 428 10T399 102Q399 132 405 170T419 251T433 336T439
417Q439 483 399 483Q371 483 337 456T271 377T219 255T198 98Q198 75 199 51T204 0Q194 -1 187 -1T173 -2Q130 -2 108 18T85 84Q85 106 91 146T106 238T120 343T127 448Q127 487 123 525T110 598Q172 573 194 529T216 427Q216 408 215 388T210 347L216 346ZM207
682Q197 682 189 686T181 699Q188 738 202 760T235 792T273 801Q298 801 321 794T365 780T404 772Q429 772 446 782T472 806Q482 806 489 802T498 789Q493 750 478 728T444 696T406 687Q382 687 359 694T315 709T275 716Q250 716 233 706T207 682Z" />
<glyph unicode="&#xf2;" horiz-adv-x="617" d="M268 -15Q232 -15 196 0T131 48T83 129T65 247Q65 330 89 399T159 517T266 591Q277 591 281 585T286 571Q255 550 224 513T174 411L181 409Q210 472 248 508T328 559T405 574Q449 574 482 548T533 474T552 357Q552
293 536 228T486 107T398 19T268 -15ZM278 47Q320 47 352 73T407 143T442 239T454 341Q454 430 429 470T363 511Q324 511 290 485T228 417T185 325T169 228Q169 181 180 140T215 73T278 47ZM455 652Q454 641 445 632T423 619Q403 645 371 675T299 731T216 770Q217
796 226 812T246 838T264 852Q302 837 340 803T409 728T455 652Z" />
<glyph unicode="&#xf3;" horiz-adv-x="617" d="M268 -15Q232 -15 196 0T131 48T83 129T65 247Q65 330 89 399T159 517T266 591Q277 591 281 585T286 571Q255 550 224 513T174 411L181 409Q210 472 248 508T328 559T405 574Q449 574 482 548T533 474T552 357Q552
293 536 228T486 107T398 19T268 -15ZM278 47Q320 47 352 73T407 143T442 239T454 341Q454 430 429 470T363 511Q324 511 290 485T228 417T185 325T169 228Q169 181 180 140T215 73T278 47ZM216 652Q232 687 262 728T331 803T407 852Q414 848 425 838T445 812T455
770Q413 757 373 731T301 675T248 619Q236 622 227 631T216 652Z" />
<glyph unicode="&#xf4;" horiz-adv-x="617" d="M268 -15Q232 -15 196 0T131 48T83 129T65 247Q65 330 89 399T159 517T266 591Q277 591 281 585T286 571Q255 550 224 513T174 411L181 409Q210 472 248 508T328 559T405 574Q449 574 482 548T533 474T552 357Q552
293 536 228T486 107T398 19T268 -15ZM278 47Q320 47 352 73T407 143T442 239T454 341Q454 430 429 470T363 511Q324 511 290 485T228 417T185 325T169 228Q169 181 180 140T215 73T278 47ZM216 619Q210 624 199 633T179 659T169 701Q227 738 272 776T348 852Q369
848 380 836T398 805T416 761T444 707T495 646Q485 642 474 639T443 635Q413 635 395 650T364 705T340 819L361 786Q345 757 327 731T282 678T216 619Z" />
<glyph unicode="&#xf5;" horiz-adv-x="617" d="M268 -15Q232 -15 196 0T131 48T83 129T65 247Q65 330 89 399T159 517T266 591Q277 591 281 585T286 571Q255 550 224 513T174 411L181 409Q210 472 248 508T328 559T405 574Q449 574 482 548T533 474T552 357Q552
293 536 228T486 107T398 19T268 -15ZM278 47Q320 47 352 73T407 143T442 239T454 341Q454 430 429 470T363 511Q324 511 290 485T228 417T185 325T169 228Q169 181 180 140T215 73T278 47ZM203 682Q193 682 185 686T177 699Q184 738 198 760T231 792T269 801Q294
801 317 794T361 780T400 772Q425 772 442 782T468 806Q478 806 485 802T494 789Q489 750 474 728T440 696T402 687Q378 687 355 694T311 709T271 716Q246 716 229 706T203 682Z" />
<glyph unicode="&#xf6;" horiz-adv-x="617" d="M268 -15Q232 -15 196 0T131 48T83 129T65 247Q65 330 89 399T159 517T266 591Q277 591 281 585T286 571Q255 550 224 513T174 411L181 409Q210 472 248 508T328 559T405 574Q449 574 482 548T533 474T552 357Q552
293 536 228T486 107T398 19T268 -15ZM278 47Q320 47 352 73T407 143T442 239T454 341Q454 430 429 470T363 511Q324 511 290 485T228 417T185 325T169 228Q169 181 180 140T215 73T278 47ZM283 668Q271 664 258 662T231 659Q218 659 205 663T182 678T173 707Q173
723 178 738T190 770Q202 774 215 777T242 780Q255 780 268 776T291 761T300 731Q300 715 294 700T283 668ZM473 668Q461 664 448 662T421 659Q408 659 395 663T372 678T363 707Q363 723 368 738T380 770Q392 774 405 777T432 780Q445 780 458 776T481 761T490
731Q490 715 484 700T473 668Z" />
<glyph unicode="&#xf7;" horiz-adv-x="620" d="M456 409Q512 409 536 393T560 335Q560 328 560 321T557 307Q526 311 486 313T401 315Q345 315 289 310T164 304Q108 304 84 321T60 378Q60 385 61 392T63 406Q95 402 135 400T219 398Q275 398 331 403T456 409ZM364
99Q351 95 335 92T304 89Q289 89 274 93T249 110T239 143Q239 162 245 180T257 216Q271 221 286 223T317 226Q333 226 347 222T372 205T382 172Q382 153 376 135T364 99ZM364 499Q351 495 335 492T304 489Q289 489 274 493T249 510T239 543Q239 562 245 580T257
616Q271 621 286 623T317 626Q333 626 347 622T372 605T382 572Q382 553 376 535T364 499Z" />
<glyph unicode="&#xf8;" horiz-adv-x="617" d="M268 -15Q232 -15 196 0T131 48T83 129T65 247Q65 330 89 399T159 517T266 591Q277 591 281 585T286 571Q255 550 224 513T174 411L181 409Q210 472 248 508T328 559T405 574Q449 574 482 548T533 474T552 357Q552
293 536 228T486 107T398 19T268 -15ZM278 47Q320 47 352 73T407 143T442 239T454 341Q454 430 429 470T363 511Q324 511 290 485T228 417T185 325T169 228Q169 181 180 140T215 73T278 47ZM434 720Q434 720 440 715T454 700T467 675T473 638Q473 622 461 583T426
488T378 368T325 235T274 101T233 -21T210 -120Q210 -120 204 -119T187 -113T167 -100T150 -77T143 -43Q143 -24 157 17T195 116T248 240T308 376T364 511T409 630T434 720Z" />
<glyph unicode="&#xf9;" horiz-adv-x="606" d="M507 -21Q464 -4 441 22T408 82T399 156Q399 172 400 188T404 223L396 225Q373 159 339 108T269 29T200 0Q155 0 131 22T96 82T86 166Q86 219 94 269T111 368T119 462Q119 490 116 517T105 572Q143 572 171 564T216
534T233 465Q233 429 223 378T202 271T191 168Q191 131 202 113T237 94Q260 94 285 117T333 180T374 271T403 380T414 496Q414 516 413 537T408 577Q416 578 424 578T440 579Q462 579 481 572T513 546T526 490Q526 471 521 434T507 350T494 252T488 154Q488 108
492 64T507 -21ZM390 652Q389 641 380 632T358 619Q338 645 306 675T234 731T151 770Q152 796 161 812T181 838T199 852Q237 837 275 803T344 728T390 652Z" />
<glyph unicode="&#xfa;" horiz-adv-x="606" d="M507 -21Q464 -4 441 22T408 82T399 156Q399 172 400 188T404 223L396 225Q373 159 339 108T269 29T200 0Q155 0 131 22T96 82T86 166Q86 219 94 269T111 368T119 462Q119 490 116 517T105 572Q143 572 171 564T216
534T233 465Q233 429 223 378T202 271T191 168Q191 131 202 113T237 94Q260 94 285 117T333 180T374 271T403 380T414 496Q414 516 413 537T408 577Q416 578 424 578T440 579Q462 579 481 572T513 546T526 490Q526 471 521 434T507 350T494 252T488 154Q488 108
492 64T507 -21ZM211 652Q227 687 257 728T326 803T402 852Q409 848 420 838T440 812T450 770Q408 757 368 731T296 675T243 619Q231 622 222 631T211 652Z" />
<glyph unicode="&#xfb;" horiz-adv-x="606" d="M507 -21Q464 -4 441 22T408 82T399 156Q399 172 400 188T404 223L396 225Q373 159 339 108T269 29T200 0Q155 0 131 22T96 82T86 166Q86 219 94 269T111 368T119 462Q119 490 116 517T105 572Q143 572 171 564T216
534T233 465Q233 429 223 378T202 271T191 168Q191 131 202 113T237 94Q260 94 285 117T333 180T374 271T403 380T414 496Q414 516 413 537T408 577Q416 578 424 578T440 579Q462 579 481 572T513 546T526 490Q526 471 521 434T507 350T494 252T488 154Q488 108
492 64T507 -21ZM211 619Q205 624 194 633T174 659T164 701Q222 738 267 776T343 852Q364 848 375 836T393 805T411 761T439 707T490 646Q480 642 469 639T438 635Q408 635 390 650T359 705T335 819L356 786Q340 757 322 731T277 678T211 619Z" />
<glyph unicode="&#xfc;" horiz-adv-x="606" d="M507 -21Q464 -4 441 22T408 82T399 156Q399 172 400 188T404 223L396 225Q373 159 339 108T269 29T200 0Q155 0 131 22T96 82T86 166Q86 219 94 269T111 368T119 462Q119 490 116 517T105 572Q143 572 171 564T216
534T233 465Q233 429 223 378T202 271T191 168Q191 131 202 113T237 94Q260 94 285 117T333 180T374 271T403 380T414 496Q414 516 413 537T408 577Q416 578 424 578T440 579Q462 579 481 572T513 546T526 490Q526 471 521 434T507 350T494 252T488 154Q488 108
492 64T507 -21ZM278 668Q266 664 253 662T226 659Q213 659 200 663T177 678T168 707Q168 723 173 738T185 770Q197 774 210 777T237 780Q250 780 263 776T286 761T295 731Q295 715 289 700T278 668ZM468 668Q456 664 443 662T416 659Q403 659 390 663T367 678T358
707Q358 723 363 738T375 770Q387 774 400 777T427 780Q440 780 453 776T476 761T485 731Q485 715 479 700T468 668Z" />
<glyph unicode="&#xfd;" horiz-adv-x="516" d="M102 -228Q102 -194 120 -144T167 -33T232 96T303 233T368 369T416 494T434 599Q467 577 481 556T496 508Q496 475 475 429T421 324T350 199T280 58T225 -95T204 -256Q204 -276 205 -298T211 -342Q176 -337 155 -325T122
-297T106 -263T102 -228ZM178 -47Q171 11 161 79T139 217T111 352T78 472T39 560Q53 571 73 578T112 586Q146 586 166 555T197 471T215 353T227 220T242 90L178 -47ZM179 652Q195 687 225 728T294 803T370 852Q377 848 388 838T408 812T418 770Q376 757 336 731T264
675T211 619Q199 622 190 631T179 652Z" />
<glyph unicode="&#xfe;" horiz-adv-x="649" d="M213 362Q242 421 281 464T363 530T443 553Q482 553 514 532T565 469T584 360Q584 285 563 220T505 105T420 28T317 0Q278 0 237 16Q297 28 341 66T416 155T461 260T476 360Q476 407 457 437T399 468Q346 468 303
424T228 301T181 118T164 -108Q164 -160 168 -215T184 -329Q150 -327 120 -318T72 -285T53 -213Q53 -192 60 -133T78 11T101 198T124 408T142 619T149 809Q149 850 146 880T137 926Q177 912 199 889T232 832T242 751Q242 711 237 658T224 533T206 365L213 362Z"
/>
<glyph unicode="&#xff;" horiz-adv-x="516" d="M102 -228Q102 -194 120 -144T167 -33T232 96T303 233T368 369T416 494T434 599Q467 577 481 556T496 508Q496 475 475 429T421 324T350 199T280 58T225 -95T204 -256Q204 -276 205 -298T211 -342Q176 -337 155 -325T122
-297T106 -263T102 -228ZM178 -47Q171 11 161 79T139 217T111 352T78 472T39 560Q53 571 73 578T112 586Q146 586 166 555T197 471T215 353T227 220T242 90L178 -47ZM246 668Q234 664 221 662T194 659Q181 659 168 663T145 678T136 707Q136 723 141 738T153 770Q165
774 178 777T205 780Q218 780 231 776T254 761T263 731Q263 715 257 700T246 668ZM436 668Q424 664 411 662T384 659Q371 659 358 663T335 678T326 707Q326 723 331 738T343 770Q355 774 368 777T395 780Q408 780 421 776T444 761T453 731Q453 715 447 700T436
668Z" />
<glyph unicode="&#x2013;" horiz-adv-x="503" d="M379 370Q418 370 437 359T462 329T468 286Q468 282 468 278T467 268Q453 271 430 272T381 275T331 276Q299 276 267 274T199 268T124 265Q85 265 66 276T41 306T35 349Q35 354 35 358T36 367Q50 364 73 363T122
360T172 359Q204 359 236 362T304 367T379 370Z" />
<glyph unicode="&#x2014;" horiz-adv-x="665" d="M508 370Q562 370 588 359T622 329T630 286Q630 282 630 278T629 268Q606 271 575 272T509 275T442 276Q398 276 354 274T261 268T157 265Q104 265 78 276T43 306T35 349Q35 354 35 358T36 367Q59 364 90 363T156
360T223 359Q267 359 311 362T404 367T508 370Z" />
<glyph unicode="&#x2018;" horiz-adv-x="228" d="M169 598Q156 594 138 591T104 587Q88 587 74 592T50 610T40 649Q40 708 81 764T204 865L228 835Q192 801 173 759T154 673Q154 654 158 636T169 598Z" />
<glyph unicode="&#x2019;" horiz-adv-x="228" d="M99 854Q113 859 130 862T164 865Q180 865 194 860T218 842T228 803Q228 744 187 688T64 587L40 617Q76 652 95 694T114 779Q114 798 110 816T99 854Z" />
<glyph unicode="&#x201a;" horiz-adv-x="228" d="M59 115Q73 120 90 123T124 126Q140 126 154 121T178 103T188 64Q188 5 147 -51T24 -152L0 -122Q36 -87 55 -45T74 40Q74 59 70 77T59 115Z" />
<glyph unicode="&#x201c;" horiz-adv-x="416" d="M169 598Q156 594 138 591T104 587Q88 587 74 592T50 610T40 649Q40 708 81 764T204 865L228 835Q192 801 173 759T154 673Q154 654 158 636T169 598ZM357 598Q344 594 326 591T292 587Q276 587 262 592T238 610T228
649Q228 708 269 764T392 865L416 835Q380 801 361 759T342 673Q342 654 346 636T357 598Z" />
<glyph unicode="&#x201d;" horiz-adv-x="416" d="M99 854Q113 859 130 862T164 865Q180 865 194 860T218 842T228 803Q228 744 187 688T64 587L40 617Q76 652 95 694T114 779Q114 798 110 816T99 854ZM287 854Q301 859 318 862T352 865Q368 865 382 860T406 842T416
803Q416 744 375 688T252 587L228 617Q264 652 283 694T302 779Q302 798 298 816T287 854Z" />
<glyph unicode="&#x201e;" horiz-adv-x="416" d="M59 115Q73 120 90 123T124 126Q140 126 154 121T178 103T188 64Q188 5 147 -51T24 -152L0 -122Q36 -87 55 -45T74 40Q74 59 70 77T59 115ZM247 115Q261 120 278 123T312 126Q328 126 342 121T366 103T376 64Q376
5 335 -51T212 -152L188 -122Q224 -87 243 -45T262 40Q262 59 258 77T247 115Z" />
<glyph unicode="&#x2022;" horiz-adv-x="252" d="M190 248Q174 242 155 239T118 236Q99 236 81 241T52 261T40 301Q40 323 47 345T62 388Q78 394 97 397T134 400Q152 400 170 395T200 375T212 335Q212 313 205 291T190 248Z" />
<glyph unicode="&#x2039;" horiz-adv-x="397" d="M78 327Q100 337 119 364T157 424T193 490T233 543T279 564Q297 564 314 555T352 519Q327 511 304 488T259 435T217 373T176 317Q191 292 205 261T235 200T268 146T309 115Q283 88 263 79T224 70Q199 70 183 91T155
144T133 209T109 270T75 307L78 327Z" />
<glyph unicode="&#x203a;" horiz-adv-x="397" d="M319 307Q297 297 278 270T240 210T204 144T164 91T118 70Q100 70 83 79T45 115Q70 123 93 146T138 199T180 261T221 317Q206 342 192 373T162 434T129 488T88 519Q114 546 134 555T173 564Q198 564 214 543T242
490T264 425T288 364T322 327L319 307Z" />
</font>
</defs>
</svg>
