<?xml version="1.0" standalone="no"?>
<!DOCTYPE svg PUBLIC "-//W3C//DTD SVG 1.1//EN" "http://www.w3.org/Graphics/SVG/1.1/DTD/svg11.dtd">
<svg xmlns="http://www.w3.org/2000/svg">
<defs >
<font id="GentiumBookPlus" horiz-adv-x="1059" ><font-face
    font-family="Gentium Book Plus"
    units-per-em="2048"
    panose-1="2 0 5 3 6 0 0 2 0 4"
    ascent="2250"
    descent="-750"
    alphabetic="0" />
<glyph unicode=" " glyph-name="space" horiz-adv-x="451" />
<glyph unicode="!" glyph-name="exclam" horiz-adv-x="582" d="M343 397Q324 383 304 374T259 358L230 379L173 1388Q213 1413 267 1439T357 1480L402 1453L343 397ZM419 126Q419 53 375 7T266 -40Q151 -40 151 80Q151 151 197 198T305 246Q356 246 387 216T419 126Z" />
<glyph unicode="&quot;" glyph-name="quotedbl" horiz-adv-x="900" d="M695 834Q680 826 646 820T589 813L526 1416Q540 1425 577 1439T651 1465T703 1480L748 1457L695 834ZM322 834Q307 826 273 820T216 813L153 1416Q168 1425 205 1439T278 1465T329 1480L375
1457L322 834Z" />
<glyph unicode="#" glyph-name="numbersign" horiz-adv-x="986" d="M1002 941Q998 919 986 889T966 841H213L188 865Q193 887 205 916T224 966H977L1002 941ZM598 170Q580 157 551 147T496 127L470 147L785 1251Q806 1267 833 1275T885 1292L912 1270L598 170ZM292
170Q274 157 246 147T192 127L166 147L481 1251Q502 1267 529 1275T579 1292L608 1270L292 170ZM893 568Q889 549 879 518T860 470H104L82 495Q87 515 97 545T117 595H871L893 568Z" />
<glyph unicode="$" glyph-name="dollar" horiz-adv-x="986" d="M540 -138Q510 -164 469 -174L440 -149V1351Q467 1368 474 1372T511 1384L540 1360V-138ZM452 -10Q357 -10 273 17T97 101Q88 108 85 157T86 266T100 363L153 359Q265 119 502 119Q559 119 612 143T698
212T732 322Q732 403 686 453T567 535T413 595T258 660T139 755T93 909Q93 955 114 1008T184 1108T315 1184T520 1214Q621 1214 712 1187T844 1119Q852 1110 838 1076T800 1005T760 953L711 961Q607 1109 464 1109Q346 1109 296 1061T245 956Q245 891 291 850T412
780T568 721T725 649T845 542T892 375Q892 286 845 197T700 49T452 -10Z" />
<glyph unicode="%" glyph-name="percent" horiz-adv-x="1439" d="M1371 309Q1371 217 1330 140T1219 17T1066 -30Q983 -30 920 16T821 140T785 309Q785 402 826 479T936 602T1090 648Q1176 648 1239 602T1336 480T1371 309ZM363 14Q344 1 297 -12T224 -33L200
1L1075 1192Q1100 1206 1141 1218T1212 1237L1240 1205L363 14ZM656 897Q656 805 615 728T504 604T350 558Q266 558 203 604T104 727T69 897Q69 989 109 1066T219 1189T373 1235Q459 1235 522 1190T621 1067T656 897ZM1207 289Q1207 432 1165 500T1066 569Q1020
569 986 512T951 332Q951 187 989 118T1090 49Q1140 49 1173 108T1207 289ZM491 877Q491 1021 449 1088T350 1156Q303 1156 269 1099T234 920Q234 775 272 706T373 637Q423 637 457 696T491 877Z" />
<glyph unicode="&amp;" glyph-name="ampersand" horiz-adv-x="1384" d="M1369 748Q1315 682 1265 647Q1228 664 1180 676T1098 690Q1119 657 1125 626T1131 543Q1131 456 1083 357T948 170T748 26T503 -30Q309 -30 192 67T75 352Q75 487 186 625T514 883Q641 955
682 1030T724 1171Q724 1241 690 1288T593 1336Q527 1336 495 1273T462 1130Q462 1035 506 926T623 705T784 488T961 295T1124 147Q1207 77 1318 103L1329 50Q1243 12 1172 -9T1079 -30Q1052 -30 986 19T831 153T651 348T480 582T351 832T302 1073Q302 1181 350
1266T478 1400T649 1450Q739 1450 793 1416T871 1325T896 1204Q896 1100 820 1003T626 832Q487 744 410 669T301 523T270 373Q270 280 309 218T411 125T543 94Q642 94 724 133T865 235T957 368T990 502Q990 586 941 642T832 698L808 728Q818 741 842 760T887 787H1343L1369
748Z" />
<glyph unicode="&apos;" glyph-name="quotesingle" horiz-adv-x="527" d="M322 834Q307 826 273 820T216 813L153 1416Q168 1425 205 1439T278 1465T329 1480L375 1457L322 834Z" />
<glyph unicode="(" glyph-name="parenleft" horiz-adv-x="659" d="M586 -315Q430 -239 326 -100T169 225T116 623Q116 842 174 1035T337 1375T586 1600L625 1545Q541 1470 471 1342T358 1040T316 651Q316 457 352 282T457 -33T625 -260L586 -315Z" />
<glyph unicode=")" glyph-name="parenright" horiz-adv-x="659" d="M545 663Q545 444 487 250T323 -91T75 -315L36 -260Q120 -185 190 -57T302 246T345 635Q345 828 310 1004T205 1319T36 1545L75 1600Q230 1525 335 1385T492 1060T545 663Z" />
<glyph unicode="*" glyph-name="asterisk" horiz-adv-x="912" d="M493 1199L739 1391Q760 1377 795 1352T847 1311L845 1265L531 1135L821 1017Q819 993 815 950T804 884L762 862L495 1069L537 761Q516 748 477 731T415 709L374 732L420 1069L174 877Q152 890
116 915T67 957L68 1004L383 1133L92 1251Q93 1275 97 1319T108 1383L149 1405L418 1198L375 1508Q397 1519 437 1537T500 1561L538 1535L493 1199Z" />
<glyph unicode="+" glyph-name="plus" horiz-adv-x="848" d="M789 596Q784 576 773 547T753 502H86L58 528Q64 549 74 576T94 623H762L789 596ZM487 232Q441 210 389 199L362 223V895Q380 901 409 911T460 926L487 901V232Z" />
<glyph unicode="," glyph-name="comma" horiz-adv-x="497" d="M420 70Q420 11 389 -62T303 -207T174 -330L121 -290Q177 -225 204 -162T231 -12Q231 32 200 62T104 87L88 144Q97 156 128 172T199 204T276 230T334 239Q382 217 401 176T420 70Z" />
<glyph unicode="-" glyph-name="hyphen" horiz-adv-x="703" d="M644 549Q638 527 627 497T608 450H86L58 477Q64 498 74 527T94 575H617L644 549Z" />
<glyph unicode="." glyph-name="period" horiz-adv-x="497" d="M399 126Q399 53 355 7T246 -40Q131 -40 131 80Q131 151 177 198T285 246Q336 246 367 216T399 126Z" />
<glyph unicode="/" glyph-name="slash" horiz-adv-x="966" d="M221 -281Q201 -295 155 -311T84 -335L44 -307L745 1549Q772 1566 811 1579T880 1600L919 1576L221 -281Z" />
<glyph unicode="0" glyph-name="zero" horiz-adv-x="986" d="M915 602Q915 430 860 287T706 57T476 -30Q345 -30 255 56T118 286T71 602Q71 774 125 918T279 1148T510 1235Q642 1235 732 1150T869 920T915 602ZM719 565Q719 839 647 977T476 1115Q377 1115 323
1006T268 645Q268 371 335 231T510 90Q611 90 665 201T719 565Z" />
<glyph unicode="1" glyph-name="one" horiz-adv-x="986" d="M165 0V63Q322 82 378 107T435 153V930Q435 970 432 992T417 1028Q405 1041 348 1041T158 1014L134 1075Q176 1086 237 1107T363 1153T484 1203T576 1245L615 1208V153Q615 134 664 108T865 63V0H165Z" />
<glyph unicode="2" glyph-name="two" horiz-adv-x="986" d="M851 0H122L93 74Q270 280 382 419T556 649T642 804T666 924Q666 1014 623 1076T480 1138Q425 1138 386 1106T326 1025T308 929Q274 910 235 895T150 875L120 918Q120 969 155 1024T251 1128T388 1205T548
1235Q680 1235 766 1168T853 962Q853 895 824 825T729 663T556 445T292 139H704Q738 139 758 167T788 231T802 296T806 324L866 310L851 0Z" />
<glyph unicode="3" glyph-name="three" horiz-adv-x="986" d="M855 381Q855 269 804 176T657 26T424 -30Q345 -30 253 4T71 124L107 201Q198 134 264 109T406 83Q518 83 590 153T663 351Q663 448 625 506T530 590T420 616Q392 616 385 615T347 609L332 679Q452
711 510 756T587 850T606 940Q606 986 589 1031T535 1107T439 1137Q367 1137 327 1087T300 968Q264 949 223 936T134 919L104 960Q104 1016 157 1080T298 1189T496 1235Q603 1235 669 1194T767 1090T798 958Q798 883 740 811T585 698Q663 689 724 645T820 531T855
381Z" />
<glyph unicode="4" glyph-name="four" horiz-adv-x="986" d="M902 435Q881 403 860 383T815 345H750V114Q750 99 778 86T889 53V0H370V53Q501 75 540 91T580 125V345H91L55 381L546 1172Q589 1189 633 1209T711 1245L750 1208V465H876L902 435ZM580 1020L226 465H580V1020Z"
/>
<glyph unicode="5" glyph-name="five" horiz-adv-x="986" d="M864 410Q864 294 817 194T678 32T451 -30Q358 -30 262 6T79 123L119 197Q224 124 298 102T429 80Q509 80 564 120T648 225T677 367Q677 504 610 583T414 663Q358 663 298 642T185 580L138 613Q147
667 159 746T184 910T207 1074T220 1205H686Q743 1205 775 1214T807 1223L838 1192Q816 1159 779 1117T719 1058H317Q315 1019 307 959T291 841T276 754Q364 785 481 785Q606 785 691 732T820 594T864 410Z" />
<glyph unicode="6" glyph-name="six" horiz-adv-x="986" d="M911 412Q911 342 886 265T812 121T690 12T521 -30Q406 -30 312 33T161 209T105 473Q105 662 182 826T415 1102T808 1249L830 1180Q643 1138 526 1038T353 806T298 537Q298 300 369 192T555 83Q622 83
660 123T713 225T729 348Q729 473 695 539T612 630T515 655Q457 655 385 612T253 477L238 583Q316 689 409 732T564 775Q728 775 819 676T911 412Z" />
<glyph unicode="7" glyph-name="seven" horiz-adv-x="986" d="M910 1167Q841 1006 773 842T644 526T538 250T465 47Q429 22 381 3T283 -30L239 6Q355 210 440 385T596 724T741 1058H289Q270 1058 250 1053T207 1016T155 908L102 928Q106 959 113 1013T130 1122T147
1205H877L910 1167Z" />
<glyph unicode="8" glyph-name="eight" horiz-adv-x="986" d="M897 352Q897 249 839 162T683 23T466 -30Q345 -30 261 14T133 131T89 285Q89 397 168 491T377 651L460 614Q367 544 325 476T282 315Q282 211 345 145T510 78Q577 78 620 111T684 198T705 309Q705
399 664 454T559 546T422 611T286 677T181 769T140 915Q140 1008 189 1080T323 1193T512 1235Q675 1235 761 1160T847 969Q847 878 775 806T598 666L515 709Q596 765 630 823T665 938Q664 1042 609 1088T466 1134Q384 1134 344 1076T303 950Q303 887 345 846T456
774T600 711T743 635T854 523T897 352Z" />
<glyph unicode="9" glyph-name="nine" horiz-adv-x="986" d="M900 731Q900 529 824 366T591 96T195 -43L175 26Q378 77 494 168T659 383T708 660Q708 843 673 943T585 1083T480 1123Q384 1123 331 1049T278 856Q278 737 313 673T397 585T491 560Q578 560 647 622T756
769L769 654Q719 560 628 499T441 438Q330 438 253 485T136 614T95 795Q95 871 126 948T213 1091T347 1195T516 1235Q619 1235 706 1183T847 1020T900 731Z" />
<glyph unicode=":" glyph-name="colon" horiz-adv-x="497" d="M399 126Q399 53 355 7T246 -40Q131 -40 131 80Q131 151 177 198T285 246Q336 246 367 216T399 126ZM399 851Q399 778 355 732T246 685Q131 685 131 805Q131 876 177 923T285 971Q336 971 367 941T399 851Z" />
<glyph unicode=";" glyph-name="semicolon" horiz-adv-x="497" d="M420 70Q420 11 389 -62T303 -207T174 -330L121 -290Q177 -225 204 -162T231 -12Q231 32 200 62T104 87L88 144Q97 156 128 172T199 204T276 230T334 239Q382 217 401 176T420 70ZM399 851Q399
778 355 732T246 685Q131 685 131 805Q131 876 177 923T285 971Q336 971 367 941T399 851Z" />
<glyph unicode="&lt;" glyph-name="less" horiz-adv-x="909" d="M851 879Q846 858 836 823T820 769L86 500L58 529Q64 549 73 582T92 635L824 906L851 879ZM851 326Q829 305 810 288T760 251L86 500L58 529Q64 549 73 582T92 635L832 364L851 326Z" />
<glyph unicode="=" glyph-name="equal" horiz-adv-x="909" d="M851 744Q846 724 835 696T817 650H86L58 677Q64 698 74 725T94 771H824L851 744ZM851 444Q846 423 835 396T817 350H86L58 379Q64 399 74 425T94 471H824L851 444Z" />
<glyph unicode="&gt;" glyph-name="greater" horiz-adv-x="909" d="M851 628Q846 607 837 576T818 520L86 251L58 279Q65 298 74 333T91 387L634 587L78 792L58 832Q81 851 105 870T150 906L825 658L851 628Z" />
<glyph unicode="?" glyph-name="question" horiz-adv-x="902" d="M826 1165Q826 1075 793 1005T711 875T611 759T524 637T482 493L476 397Q457 383 439 373T392 356L365 379L357 493Q353 561 379 627T447 758T530 883T601 1004T630 1120Q630 1243 579 1310T434
1377Q369 1377 321 1321T272 1186Q272 1172 275 1156T284 1126Q251 1109 201 1097T107 1080L77 1113Q76 1120 76 1131T75 1151Q75 1245 135 1319T295 1437T510 1480Q663 1480 744 1393T826 1165ZM562 126Q562 53 518 7T409 -40Q294 -40 294 80Q294 151 340 198T448
246Q499 246 530 216T562 126Z" />
<glyph unicode="@" glyph-name="at" horiz-adv-x="1701" d="M1626 557Q1626 428 1584 321T1474 135T1328 13T1177 -30Q1125 -30 1085 11T1030 152Q976 80 937 41T859 -14T767 -30Q699 -30 631 24T518 184T473 442Q473 531 502 622T588 789T725 913T904 960Q950
960 985 944T1071 868Q1139 901 1203 960L1234 930Q1234 930 1227 900T1212 820T1204 716V285Q1204 127 1300 127Q1333 127 1375 176T1449 312T1481 512Q1481 738 1407 892T1203 1126T903 1206Q750 1206 629 1151T424 1001T295 782T250 524Q250 340 304 197T452
-46T669 -198T928 -250Q1046 -250 1150 -221T1334 -152T1453 -77L1487 -142Q1439 -194 1354 -251T1149 -347T879 -387Q643 -387 462 -284T178 11T75 465Q75 639 142 796T329 1077T605 1272T942 1343Q1146 1343 1300 1255T1540 991T1626 557ZM1024 731Q998 783 966
813T878 843Q775 843 714 752T653 473Q653 359 683 281T759 161T848 120Q887 120 921 148T1024 260V731Z" />
<glyph unicode="A" glyph-name="A" horiz-adv-x="1242" d="M385 440L279 121Q269 90 305 76T423 53V0H0V53Q68 65 107 78T156 121L520 1227Q551 1257 594 1279T672 1317L1092 121Q1102 93 1129 77T1221 53V0H774V53Q851 58 880 73T899 121L789 440H385ZM754 540L582
1038L418 540H754Z" />
<glyph unicode="B" glyph-name="B" horiz-adv-x="1161" d="M1054 356Q1054 186 923 86T577 -14Q516 -14 435 -12T272 -6T123 0L370 106Q401 89 453 84T550 78Q694 78 775 146T857 327Q857 401 825 474T722 597T535 646Q469 646 420 639T326 623L316 730H409Q554
730 628 766T729 858T755 971Q755 1071 686 1135T431 1199Q378 1199 310 1194T173 1180T48 1161L37 1230Q92 1245 169 1258T330 1281T489 1290Q699 1290 821 1218T943 1020Q943 913 889 835T740 723Q830 707 901 655T1013 526T1054 356ZM48 0V53Q115 67 152 84T190
114V1210L380 1231V112Q380 100 412 82T518 51V0H48Z" />
<glyph unicode="C" glyph-name="C" horiz-adv-x="1113" d="M1036 211Q908 76 796 23T576 -30Q481 -30 390 11T225 132T109 326T65 586Q65 799 148 957T372 1202T681 1290Q788 1290 876 1261T1017 1190Q1024 1184 1006 1153T963 1087T922 1037L877 1046Q826 1106
757 1139T602 1173Q551 1173 491 1145T376 1054T288 885T253 623Q253 448 315 333T470 162T656 105Q710 105 797 139T994 264Q1004 258 1018 239T1036 211Z" />
<glyph unicode="D" glyph-name="D" horiz-adv-x="1244" d="M48 0V53Q115 67 152 84T190 114V1179Q113 1168 48 1158L37 1230Q98 1247 184 1260T364 1282T538 1290Q826 1290 991 1128T1156 676Q1156 489 1102 360T961 151T773 36T579 0H513Q435 0 374 0T245 0T82
0H48ZM552 92Q617 92 687 124T817 224T915 393T953 637Q953 903 829 1051T471 1199Q427 1199 380 1196V159Q380 115 434 104T552 92Z" />
<glyph unicode="E" glyph-name="E" horiz-adv-x="1036" d="M914 1233Q912 1199 906 1152T890 1060T873 990H818Q814 1082 794 1121T736 1160H328L357 1260H879L914 1233ZM811 705Q795 677 768 641T719 589Q688 618 647 631T521 644H314L336 735H783L811 705ZM979
264Q972 178 959 104T938 0H48V53Q115 67 152 84T190 114V1145Q190 1157 155 1175T48 1207V1260H525V1207Q458 1200 419 1191T380 1167V164Q380 145 394 131T452 108T584 100H703Q765 100 803 113T870 167T926 285L979 264Z" />
<glyph unicode="F" glyph-name="F" horiz-adv-x="999" d="M922 1233Q921 1199 915 1152T900 1060T883 990H826Q823 1082 803 1121T744 1160H328L357 1260H889L922 1233ZM783 705Q764 675 737 640T689 589Q660 618 618 631T492 644H253L308 735H752L783 705ZM48
0V53Q115 67 152 84T190 114V1145Q190 1157 155 1175T48 1207V1260H525V1207Q471 1200 426 1191T380 1167V114Q380 102 417 87T553 53V0H48Z" />
<glyph unicode="G" glyph-name="G" horiz-adv-x="1207" d="M1160 562Q1103 549 1081 526T1058 480V159Q1058 159 1031 148T968 122T905 100T878 98V480Q878 502 842 522T687 562V615H1160V562ZM1060 1188Q1069 1181 1050 1152T1004 1090T959 1041L916 1050Q850
1124 777 1149T608 1175Q571 1175 512 1149T393 1062T293 897T253 637Q253 454 312 336T463 160T655 103Q757 103 830 132T956 210Q965 206 988 196T1032 175T1058 159Q959 78 884 38T746 -16T623 -30Q520 -30 421 7T241 121T113 312T65 582Q65 804 156 962T400
1205T742 1290Q786 1290 844 1278T959 1244T1060 1188Z" />
<glyph unicode="H" glyph-name="H" horiz-adv-x="1359" d="M818 0V53Q885 67 922 84T960 114V1145Q960 1157 925 1175T818 1207V1260H1293V1207Q1225 1193 1188 1176T1150 1145V114Q1150 102 1185 85T1293 53V0H818ZM352 610V710H980V610H352ZM48 0V53Q115 67
152 84T190 114V1145Q190 1157 155 1175T48 1207V1260H523V1207Q455 1193 418 1176T380 1145V114Q380 102 415 85T523 53V0H48Z" />
<glyph unicode="I" glyph-name="I" horiz-adv-x="630" d="M68 0V53Q135 67 172 84T210 114V1145Q210 1157 175 1175T68 1207V1260H543V1207Q475 1193 438 1176T400 1145V114Q400 102 435 85T543 53V0H68Z" />
<glyph unicode="J" glyph-name="J" horiz-adv-x="645" d="M578 1207Q510 1193 473 1176T435 1145V198Q435 43 404 -49T325 -197T224 -295Q170 -339 97 -365T-25 -392Q-72 -392 -115 -377T-187 -341T-215 -307Q-215 -295 -190 -269T-132 -219T-81 -187Q-26 -228
11 -241T87 -254Q122 -254 158 -225T220 -113T245 126V1145Q245 1157 209 1173T53 1207V1260H578V1207Z" />
<glyph unicode="K" glyph-name="K" horiz-adv-x="1212" d="M1140 1207Q1076 1199 1041 1189T975 1145L512 643H373L777 1118Q822 1172 806 1186T710 1207V1260H1140V1207ZM1204 42Q1146 23 1080 5T966 -14Q936 -14 914 -5T872 29L373 643L497 721L1023 140Q1057
101 1101 95T1197 95L1204 42ZM48 0V53Q115 67 152 84T190 114V1145Q190 1157 155 1175T48 1207V1260H523V1207Q455 1193 418 1176T380 1145V114Q380 102 415 85T523 53V0H48Z" />
<glyph unicode="L" glyph-name="L" horiz-adv-x="998" d="M969 264Q962 178 949 104T928 0H48V53Q115 67 152 84T190 114V1145Q190 1157 155 1175T48 1207V1260H523V1207Q455 1193 418 1176T380 1145V174Q380 139 418 120T566 100H699Q761 100 798 113T861 167T916
285L969 264Z" />
<glyph unicode="M" glyph-name="M" horiz-adv-x="1679" d="M1123 0V53Q1190 67 1232 84T1275 114L1265 1147L1445 1204L1455 114Q1455 102 1491 85T1600 53V0H1123ZM1578 1207Q1533 1207 1471 1184T1355 1126T1285 1051L833 0H829Q806 126 803 178T813 262L1208
1176Q1233 1236 1244 1248T1274 1260H1578V1207ZM843 264Q857 233 856 180T829 0H769L312 1054Q286 1114 242 1147T151 1194T68 1207V1260H374Q393 1260 404 1245T440 1176L843 264ZM58 0V53Q200 81 200 114L210 1186L336 1211L325 114Q325 102 360 85T468 53V0H58Z"
/>
<glyph unicode="N" glyph-name="N" horiz-adv-x="1339" d="M1293 1207Q1221 1197 1186 1178T1150 1145V32L1020 71V1145Q1020 1157 989 1176T878 1207V1260H1293V1207ZM1150 -30Q1085 -23 1047 -4T991 39L238 1083Q197 1140 149 1169T48 1207V1260H282Q311 1260
326 1247T378 1182L1027 286Q1041 266 1070 228T1125 159T1150 128V-30ZM48 0V53Q121 62 155 81T190 114V1186L320 1221V114Q320 102 352 83T463 53V0H48Z" />
<glyph unicode="O" glyph-name="O" horiz-adv-x="1244" d="M584 -30Q462 -30 366 22T203 165T102 370T67 612Q67 748 110 870T232 1087T415 1236T642 1290Q769 1290 865 1236T1027 1091T1126 884T1160 647Q1160 511 1114 389T988 173T805 24T584 -30ZM618 95Q773
95 872 229T972 629Q972 733 946 829T872 1003T756 1125T606 1170Q439 1170 347 1028T254 641Q254 492 304 368T436 169T618 95Z" />
<glyph unicode="P" glyph-name="P" horiz-adv-x="1101" d="M1017 936Q1017 832 976 756T871 629T736 555T603 530Q507 530 440 560L414 645Q455 626 491 621T563 615Q623 615 684 646T788 739T830 895Q830 1000 783 1067T655 1166T473 1199Q368 1199 256 1187T48
1158L37 1230Q138 1256 271 1273T530 1290Q751 1290 884 1199T1017 936ZM48 0V53Q115 67 152 84T190 114V1203H380V114Q380 102 414 86T553 53V0H48Z" />
<glyph unicode="Q" glyph-name="Q" horiz-adv-x="1244" d="M1158 647Q1158 511 1113 389T987 173T803 24T583 -30Q468 -30 373 21T209 161T103 366T65 612Q65 748 108 870T230 1087T413 1236T641 1290Q767 1290 863 1236T1025 1091T1124 884T1158 647ZM1327 -119Q1280
-206 1227 -259T1142 -312Q1062 -312 983 -267T824 -160T666 -46T508 20Q508 20 532 25T591 38T657 48T702 49Q763 34 822 2T937 -66T1047 -125T1148 -150Q1173 -150 1203 -135T1293 -74L1327 -119ZM971 629Q971 733 945 829T870 1003T754 1125T604 1170Q438 1170
346 1028T253 641Q253 492 302 368T435 169T617 95Q771 95 871 229T971 629Z" />
<glyph unicode="R" glyph-name="R" horiz-adv-x="1179" d="M962 987Q962 859 898 772T726 640T486 595Q458 595 429 598T368 609L362 699Q397 693 420 691T469 689Q619 689 697 758T775 956Q775 1060 701 1129T450 1199Q362 1199 256 1187T48 1158L37 1230Q135
1253 244 1271T489 1290Q734 1290 848 1203T962 987ZM1174 42Q1108 20 1039 3T930 -14Q902 -14 874 2T832 41L527 612L646 678L988 154Q1019 111 1056 100T1162 95L1174 42ZM48 0V53Q115 67 152 84T190 114V1214H380V114Q380 102 415 85T523 53V0H48Z" />
<glyph unicode="S" glyph-name="S" horiz-adv-x="1000" d="M770 1045L724 1051Q672 1126 607 1155T485 1184Q377 1184 330 1129T282 1017Q282 954 327 909T445 826T597 751T749 663T867 545T913 377Q913 310 885 239T799 107T655 8T450 -30Q382 -30 290 -4T126
68Q119 72 116 103T112 179T116 268T129 344L180 339Q225 221 312 160T501 98Q561 98 617 126T711 205T748 319Q748 400 703 453T586 545T435 618T284 697T167 804T122 965Q122 1011 145 1067T218 1174T347 1257T541 1290Q637 1290 725 1264T851 1198Q860 1190
846 1159T810 1094T770 1045Z" />
<glyph unicode="T" glyph-name="T" horiz-adv-x="1148" d="M1106 1233Q1104 1182 1095 1113T1073 980H1018Q999 1073 985 1116T928 1160H561L590 1260H1073L1106 1233ZM182 1160Q162 1160 146 1146T110 1092T61 974L8 995Q12 1054 22 1131T43 1260H620L643 1160H182ZM305
0V53Q397 72 431 91T466 125V1167Q466 1179 432 1186T326 1207V1260H799V1207Q732 1193 694 1187T656 1167V125Q656 112 690 92T818 53V0H305Z" />
<glyph unicode="U" glyph-name="U" horiz-adv-x="1349" d="M1288 1207Q1220 1193 1183 1176T1145 1145V524Q1145 262 1016 116T671 -30Q534 -30 425 21T253 177T190 444V1145Q190 1157 155 1175T48 1207V1260H523V1207Q455 1193 418 1176T380 1145V499Q380 307
463 201T718 95Q813 95 875 152T969 299T1000 488V1145Q1000 1157 965 1175T858 1207V1260H1288V1207Z" />
<glyph unicode="V" glyph-name="V" horiz-adv-x="1341" d="M1303 1207Q1235 1194 1196 1182T1148 1141L767 67Q757 37 726 18T660 -13T602 -30L157 1141Q138 1191 18 1207V1260H478V1207Q398 1201 370 1187T352 1143L696 231L1019 1141Q1029 1170 996 1183T882
1207V1260H1303V1207Z" />
<glyph unicode="W" glyph-name="W" horiz-adv-x="1741" d="M1712 1207Q1624 1189 1594 1175T1560 1145L1331 59Q1325 31 1299 13T1241 -15T1190 -30L859 922L572 59Q557 16 508 -2T418 -30L158 1137Q153 1162 122 1178T20 1207V1260H469V1207Q372 1197 352 1178T336
1137L525 295L839 1260H909L1256 295L1435 1145Q1439 1168 1394 1182T1281 1207V1260H1712V1207Z" />
<glyph unicode="X" glyph-name="X" horiz-adv-x="1270" d="M1193 1207Q1120 1199 1078 1183T1010 1123L635 524L579 672L861 1123Q888 1168 859 1184T740 1207V1260H1193V1207ZM763 0V53Q851 62 873 79T868 137L195 1123Q164 1167 135 1182T39 1207V1260H520V1207Q435
1199 409 1183T413 1123L1086 137Q1115 94 1149 78T1242 53V0H763ZM360 137Q331 93 358 76T479 53V0H29V53Q93 58 139 77T211 137L596 752L639 578L360 137Z" />
<glyph unicode="Y" glyph-name="Y" horiz-adv-x="1230" d="M1191 1207Q1123 1194 1088 1181T1038 1141L680 487H538Q502 570 454 663T354 846T252 1013T166 1141Q147 1163 117 1178T4 1194L0 1247Q59 1255 126 1262T234 1270Q287 1270 320 1229Q369 1164 426 1072T539
878T642 680L899 1141Q914 1167 890 1182T788 1207V1260H1191V1207ZM355 0V53Q446 72 481 91T517 125V637H707V125Q707 112 741 92T870 53V0H355Z" />
<glyph unicode="Z" glyph-name="Z" horiz-adv-x="1086" d="M1009 313Q1007 270 1005 212T1000 96T997 0H88L57 48L755 1150H319Q286 1150 246 1098T183 941L116 955L148 1276Q202 1264 240 1262T338 1260H971L999 1215L306 110H807Q849 110 877 158T944 330L1009 313Z" />
<glyph unicode="[" glyph-name="bracketleft" horiz-adv-x="650" d="M615 -241Q611 -261 601 -289T584 -335H135V1600H578L613 1572Q609 1547 600 1517T584 1475H305V-210H578L615 -241Z" />
<glyph unicode="\" glyph-name="backslash" horiz-adv-x="961" d="M873 -335Q849 -327 807 -311T746 -281L50 1576L90 1600Q119 1593 153 1580T215 1549L910 -307L873 -335Z" />
<glyph unicode="]" glyph-name="bracketright" horiz-adv-x="630" d="M73 -335L37 -304Q40 -281 49 -252T65 -210H345V1475H73L35 1504Q38 1525 48 1554T65 1600H515V-335H73Z" />
<glyph unicode="^" glyph-name="asciicircum" horiz-adv-x="1008" d="M907 635Q864 594 801 565L764 592L481 1315L231 635Q210 615 177 595T123 565L100 592L422 1462Q447 1485 487 1511T555 1550L907 635Z" />
<glyph unicode="_" glyph-name="underscore" horiz-adv-x="805" d="M838 -158Q833 -179 822 -208T803 -256H-2L-29 -227Q-24 -207 -13 -179T7 -131H812L838 -158Z" />
<glyph unicode="`" glyph-name="grave" horiz-adv-x="653" d="M443 1081Q433 1072 414 1061T377 1045L15 1422L39 1468Q52 1471 87 1477T158 1489T210 1497L443 1081Z" />
<glyph unicode="a" glyph-name="a" horiz-adv-x="968" d="M956 92Q871 34 805 2T707 -30Q670 -30 647 22T623 164V697Q623 763 591 807T468 850Q409 849 360 813T317 717Q318 707 293 695T231 672T162 655T117 652L101 696Q132 767 205 827T373 923T562 960Q680
960 741 899T803 735V198Q803 120 843 120Q857 120 878 125T939 147L956 92ZM633 483Q528 466 469 450T379 416T327 377Q301 350 285 317T269 239Q269 189 287 162T330 125T372 115Q426 115 490 144T633 244L641 157Q547 56 454 13T293 -30Q242 -30 192 -7T109
65T75 191Q75 265 101 314T164 401Q196 434 244 462T382 516T633 566V483Z" />
<glyph unicode="b" glyph-name="b" horiz-adv-x="1060" d="M975 497Q975 410 938 318T833 147T676 19T479 -30Q435 -30 339 4T135 96V1286Q135 1345 126 1371T90 1405T8 1420V1470Q82 1485 147 1502T276 1550Q297 1532 315 1514V752Q415 861 509 910T660 960Q800
960 887 836T975 497ZM811 411Q811 610 739 711T572 813Q537 813 466 775T315 633V208Q395 154 469 134T577 113Q654 113 706 155T785 265T811 411Z" />
<glyph unicode="c" glyph-name="c" horiz-adv-x="908" d="M858 190Q771 89 707 43T588 -17T470 -30Q369 -30 279 26T132 189T75 444Q75 588 143 705T329 891T595 960Q661 960 736 938T845 881Q848 865 837 825T810 744T781 685L734 695Q712 751 659 798T510 845Q444
845 386 805T291 683T255 475Q255 364 295 283T403 157T547 113Q585 113 618 119T696 152T814 239L858 190Z" />
<glyph unicode="d" glyph-name="d" horiz-adv-x="1093" d="M1081 94Q895 -30 834 -30Q791 -30 768 43T745 282V1264Q745 1338 738 1372T702 1419T603 1436V1485Q694 1496 767 1514T892 1550L925 1518V269Q925 199 931 169T948 126Q957 116 981 120T1063 147L1081
94ZM819 245Q747 157 687 96T564 2T421 -30Q342 -30 262 26T129 189T75 444Q75 535 109 626T207 793T358 914T551 960Q611 960 672 940T811 843Q811 783 798 756T752 710Q719 773 659 808T525 843Q407 843 331 754T255 483Q255 372 294 291T390 165T502 120Q575
120 642 175T780 297Q792 291 803 272T819 245Z" />
<glyph unicode="e" glyph-name="e" horiz-adv-x="961" d="M886 555Q868 534 833 515T766 483H182L184 580H659Q682 580 689 587T697 616Q697 653 682 708T624 807T501 850Q385 850 322 750T258 495Q258 391 291 304T387 165T539 113Q581 113 620 121T711 157T838
244Q851 237 863 220T880 195Q790 99 725 51T601 -14T470 -30Q364 -30 274 28T130 191T75 437Q75 572 131 688T291 876Q338 909 404 934T532 960Q630 960 697 924T807 827T867 696T886 555Z" />
<glyph unicode="f" glyph-name="f" horiz-adv-x="657" d="M842 1454Q842 1439 815 1412T755 1359T702 1323Q655 1371 608 1393T532 1415Q498 1415 462 1383T400 1264T375 1016V930H630L662 899Q643 869 613 835T564 790Q540 802 498 813T375 825V112Q375 100 420
88T582 53V0H58V53Q126 65 160 82T195 112V825H66L43 856L121 930H195V961Q195 1103 220 1192T288 1339T384 1443Q445 1496 517 1523T636 1550Q683 1550 730 1531T810 1489T842 1454Z" />
<glyph unicode="g" glyph-name="g" horiz-adv-x="1019" d="M993 -115Q993 -193 948 -262T827 -384T661 -467T480 -497Q407 -497 328 -482T180 -435T68 -351T25 -226Q25 -190 48 -149T137 -57T334 61Q334 61 356 59T401 51T427 30Q324 -26 277 -66T218 -136T205
-187Q205 -240 250 -283T372 -353T540 -380Q669 -380 742 -317T815 -162Q815 -129 792 -101T708 -52T531 -16Q334 7 253 51T172 143Q172 163 209 210T362 333L517 350Q428 290 399 250T369 201Q369 186 387 173T457 146T615 120Q764 103 846 68T960 -14T993 -115ZM1012
928Q1001 902 989 875T955 823Q901 814 844 809T702 807L658 889Q780 896 861 919T989 960L1012 928ZM853 641Q853 539 795 461T644 339T450 295Q349 295 269 333T142 440T95 602Q95 700 152 781T302 911T498 960Q599 960 679 917T806 801T853 641ZM683 600Q683
705 619 780T431 855Q398 855 360 833T293 768T265 659Q265 554 326 480T517 405Q575 405 629 454T683 600Z" />
<glyph unicode="h" glyph-name="h" horiz-adv-x="1150" d="M668 0V53Q805 89 805 114V613Q805 735 776 774T682 813Q617 813 536 754T370 579V114Q370 99 406 83T508 53V0H53V53Q119 70 154 84T190 114V1288Q190 1344 183 1369T146 1403T53 1420V1470Q147 1486
207 1503T331 1550L370 1514V717Q466 833 576 896T764 960Q850 960 917 905T985 729V114Q985 101 1014 87T1123 53V0H668Z" />
<glyph unicode="i" glyph-name="i" horiz-adv-x="575" d="M418 1261Q418 1201 380 1160T284 1119Q183 1119 183 1220Q183 1281 221 1321T315 1361Q362 1361 390 1336T418 1261ZM68 0V53Q205 81 205 114V663Q205 731 199 765T165 812T68 833V883Q138 895 211 915T341
960H385V114Q385 102 417 85T523 53V0H68Z" />
<glyph unicode="j" glyph-name="j" horiz-adv-x="550" d="M414 1261Q414 1201 376 1160T281 1119Q179 1119 179 1220Q179 1281 217 1321T311 1361Q358 1361 386 1336T414 1261ZM380 102Q380 -52 352 -145T277 -296T178 -395Q124 -437 57 -467T-54 -497Q-99 -497
-142 -483T-214 -451T-242 -421Q-242 -407 -215 -380T-154 -327T-100 -292Q-68 -324 -28 -337T50 -350Q87 -350 121 -318T178 -200T200 43V663Q200 731 194 764T160 811T63 833V883Q153 898 209 916T333 960H380V102Z" />
<glyph unicode="k" glyph-name="k" horiz-adv-x="1040" d="M1008 877Q964 873 925 860T843 813L440 496L345 526L644 789Q688 828 689 846T666 871T606 877V930H1008V877ZM34 0V53Q100 70 135 83T171 114V1286Q171 1345 161 1371T121 1405T34 1420V1470Q112 1484
184 1502T312 1550L351 1514V114Q351 99 369 88T461 53V0H34ZM1043 23Q984 10 923 0T841 -10Q765 -10 724 43L347 526L474 602L885 124Q913 91 945 82T1037 76L1043 23Z" />
<glyph unicode="l" glyph-name="l" horiz-adv-x="575" d="M58 0V53Q144 68 174 83T205 114V1286Q205 1345 194 1370T154 1405T68 1420V1470Q149 1484 214 1501T347 1550L385 1514V114Q385 99 418 83T533 53V0H58Z" />
<glyph unicode="m" glyph-name="m" horiz-adv-x="1673" d="M1194 0V53Q1266 72 1295 86T1325 114V623Q1325 746 1299 784T1215 823Q1156 823 1083 765T938 603V114Q938 101 966 87T1074 53V0H626V53Q698 72 728 86T758 114V623Q758 746 734 784T650 823Q590 823
521 766T370 603V114Q370 81 505 53V0H53V53Q119 70 154 84T190 114V704Q190 757 183 781T146 815T53 833V883Q138 895 198 914T318 960L355 923L366 729Q463 850 552 905T713 960Q808 960 868 912T932 753L933 734Q1026 850 1115 905T1278 960Q1373 960 1439 905T1505
729V114Q1505 101 1536 87T1646 53V0H1194Z" />
<glyph unicode="n" glyph-name="n" horiz-adv-x="1150" d="M668 0V53Q805 89 805 114V618Q805 736 778 774T685 813Q628 813 548 762T370 579V114Q370 99 406 83T508 53V0H53V53Q119 70 154 84T190 114V704Q190 756 184 780T148 815T53 833V883Q129 893 192 912T318
960L355 923L366 709Q463 831 574 895T764 960Q850 960 917 905T985 729V114Q985 101 1014 87T1123 53V0H668Z" />
<glyph unicode="o" glyph-name="o" horiz-adv-x="1045" d="M970 485Q970 385 933 293T831 128T682 13T504 -30Q374 -30 278 32T128 201T75 444Q75 543 110 635T210 801T359 917T543 960Q672 960 768 898T917 729T970 485ZM783 450Q783 556 744 645T644 790T514
845Q418 845 364 796T286 663T263 473Q263 368 304 280T408 138T532 85Q666 85 724 183T783 450Z" />
<glyph unicode="p" glyph-name="p" horiz-adv-x="1105" d="M646 -30Q522 -30 370 93V-365Q370 -381 407 -397T539 -427V-480H53V-427Q119 -411 154 -397T190 -365V704Q190 754 182 780T145 818T53 833V883Q137 898 195 915T318 960L355 923L364 750Q468 862 559
911T708 960Q844 960 937 840T1030 495Q1030 404 997 312T907 142T783 17T646 -30ZM623 820Q587 820 523 782T370 633V218Q465 152 527 133T641 113Q738 113 801 193T865 426Q865 546 831 634T741 771T623 820Z" />
<glyph unicode="q" glyph-name="q" horiz-adv-x="1078" d="M573 -480V-427Q666 -413 704 -398T743 -365V841Q764 848 799 870T869 918T920 960L954 928Q954 928 939 864T923 710V-365Q923 -381 953 -397T1059 -427V-480H573ZM817 245Q744 157 684 96T559 2T414
-30Q338 -30 260 26T129 189T75 444Q75 561 118 650T221 800T327 888Q383 920 444 940T551 960Q611 960 671 939T809 840Q809 780 796 754T750 707Q719 770 656 806T523 843Q452 843 391 804T293 686T255 485Q255 372 293 290T388 164T500 120Q573 120 640 175T777
297Q790 291 801 272T817 245Z" />
<glyph unicode="r" glyph-name="r" horiz-adv-x="844" d="M805 921Q814 915 813 882T802 804T780 715T755 644H702Q691 725 662 765T591 805Q548 805 485 742T370 521V114Q370 99 409 83T542 53V0H53V53Q190 84 190 114V679Q190 745 183 771T167 806Q154 819 131
824T53 833V883Q132 898 194 915T318 960L355 923L368 723Q422 823 496 891T657 960Q691 960 730 951T805 921Z" />
<glyph unicode="s" glyph-name="s" horiz-adv-x="813" d="M727 283Q727 177 685 114T581 20T460 -20T366 -30Q313 -30 241 -13T101 43Q94 47 92 76T90 148T95 231T108 301L163 290Q173 198 243 138T411 78Q482 78 524 116T567 220Q567 291 506 335T322 444Q266
473 215 507T132 588T99 698Q99 781 144 839T262 929T416 960Q486 960 567 939T691 883Q699 876 690 840T666 764T639 711L590 719Q550 795 500 830T395 865Q331 865 295 830T259 753Q259 696 313 657T482 559Q540 529 596 494T690 408T727 283Z" />
<glyph unicode="t" glyph-name="t" horiz-adv-x="723" d="M696 130Q587 49 496 10T351 -30Q277 -30 221 29T165 229V825H39L15 856L93 930H165V1164L312 1283L345 1255V930H665L696 899Q677 869 646 835T595 790Q571 802 523 813T402 825H345V317Q345 203 369
161T445 118Q481 118 531 132T662 188L696 130Z" />
<glyph unicode="u" glyph-name="u" horiz-adv-x="1108" d="M1094 92Q1021 44 949 7T853 -30Q817 -30 793 11T760 156Q677 77 614 37T501 -16T408 -30Q346 -30 291 -5T200 87T165 279V704Q165 767 159 795T126 832T39 847V897Q120 906 181 920T315 960L345 919V337Q345
202 382 155T486 108Q543 108 608 142T760 262V704Q760 764 751 793T713 833T623 847V897Q704 906 775 923T908 960L940 919V264Q940 142 963 124Q974 116 1001 120T1079 147L1094 92Z" />
<glyph unicode="v" glyph-name="v" horiz-adv-x="1020" d="M1002 877Q942 863 924 851T894 809L611 67Q594 22 546 0T464 -30L126 809Q115 835 91 850T18 877V930H426V877Q349 867 327 854T318 809L554 214L775 809Q786 839 768 852T679 877V930H1002V877Z" />
<glyph unicode="w" glyph-name="w" horiz-adv-x="1454" d="M1435 877Q1375 863 1358 851T1335 815L1114 59Q1106 30 1079 12T1022 -16T975 -30L711 671L731 930Q731 930 758 930T797 930L1054 234L1217 815Q1223 838 1201 852T1110 877V930H1435V877ZM527 59Q512
13 465 -5T391 -30L127 815Q116 855 18 877V930H426V877Q332 867 316 851T306 815L481 234L725 930Q739 930 762 930T785 930L801 805L527 59Z" />
<glyph unicode="x" glyph-name="x" horiz-adv-x="1043" d="M1005 877Q924 871 883 848T814 788L563 445L498 522L691 790Q725 839 706 855T624 877V930H1005V877ZM597 0V53Q630 56 656 62T688 86T668 140L196 788Q170 824 139 847T29 877V930H474V877Q412 871
391 855T403 790L871 146Q893 116 928 89T1029 53V0H597ZM309 140Q283 104 294 87T337 63T399 53V0H18V53Q96 65 131 90T188 146L449 500L513 420L309 140Z" />
<glyph unicode="y" glyph-name="y" horiz-adv-x="1020" d="M1002 877Q942 863 922 851T892 810L558 -79Q474 -301 358 -399T132 -497Q56 -497 2 -478T-52 -439Q-52 -430 -29 -399T24 -335T75 -289Q123 -319 171 -322T258 -312Q294 -300 344 -239T430 -92L459 -23L129
809Q118 837 93 851T18 877V930H426V877Q351 867 330 855T321 809L553 217L773 809Q784 840 763 853T670 877V930H1002V877Z" />
<glyph unicode="z" glyph-name="z" horiz-adv-x="896" d="M847 276Q847 234 846 178T842 73T835 0H97L71 45L617 830H300Q264 830 230 794T173 660L117 675L137 946Q181 934 215 932T313 930H828L850 887L301 100H697Q726 100 747 146T792 288L847 276Z" />
<glyph unicode="{" glyph-name="braceleft" horiz-adv-x="698" d="M664 1543Q586 1494 534 1423T482 1257Q482 1182 492 1136T513 1044T523 923Q523 840 473 765T338 653Q438 635 480 565T523 385Q523 308 513 254T493 151T482 38Q482 -63 515 -124T654 -244L626
-315Q453 -247 370 -163T286 67Q286 143 296 192T317 291T327 422Q327 503 288 542T179 581Q151 581 147 581T114 575L97 638Q212 669 269 728T327 863Q327 922 321 960T307 1031T292 1101T286 1200Q286 1335 382 1434T633 1600L664 1543Z" />
<glyph unicode="|" glyph-name="bar" horiz-adv-x="500" d="M325 -422Q307 -437 272 -452T213 -476L175 -451V1619Q203 1635 230 1649T287 1670L325 1646V-422Z" />
<glyph unicode="}" glyph-name="braceright" horiz-adv-x="698" d="M603 646Q487 615 430 557T372 422Q372 363 378 325T392 255T406 185T412 86Q412 -49 316 -148T66 -315L34 -257Q112 -208 164 -137T216 29Q216 104 206 150T186 242T176 364Q176 447 226 520T362
631Q261 650 219 720T176 901Q176 978 186 1031T206 1134T216 1247Q216 1349 183 1410T44 1529L72 1600Q246 1533 329 1448T412 1219Q412 1143 402 1094T382 995T372 864Q372 705 521 705Q547 705 551 705T586 711L603 646Z" />
<glyph unicode="~" glyph-name="asciitilde" horiz-adv-x="999" d="M955 777Q928 711 881 641T773 521T647 472Q605 472 559 496T464 552T369 608T279 632Q184 632 102 470L44 500Q73 565 120 635T226 755T352 804Q400 804 448 780T543 724T634 668T719 644Q764
644 810 683T897 804L955 777Z" />
<glyph unicode="&#xa0;" glyph-name="uni00A0" horiz-adv-x="451" />
<glyph unicode="&#xa1;" glyph-name="exclamdown" horiz-adv-x="582" d="M419 841Q419 769 374 722T266 674Q214 674 183 704T152 796Q152 868 196 914T305 961Q419 961 419 841ZM399 -472Q358 -496 305 -523T215 -564L170 -538L227 523Q247 538 267 546T313 562L340
543L399 -472Z" />
<glyph unicode="&#xa2;" glyph-name="cent" horiz-adv-x="986" d="M583 -3Q565 -19 550 -26T510 -41L483 -13V1209Q510 1226 516 1232T554 1245L583 1221V-3ZM892 353Q805 252 742 205T623 143T502 129Q406 129 313 181T160 336T99 586Q99 728 168 839T356 1015T627
1079Q693 1079 769 1058T880 999Q883 984 872 948T844 875T816 821L771 833Q758 857 730 887T654 941T537 964Q470 964 410 929T312 817T274 616Q274 501 315 424T425 307T574 267Q613 267 648 274T729 311T845 404L892 353Z" />
<glyph unicode="&#xa3;" glyph-name="sterling" horiz-adv-x="986" d="M891 1165Q890 1131 884 1074T869 963T852 883H795Q767 1129 568 1129Q530 1129 491 1114T423 1047T384 888T396 595Q413 444 381 320T288 114Q356 119 401 119T481 118T555 114T649 114Q711
115 750 127T818 176T875 292L928 272Q921 185 907 107T885 0Q831 -30 753 -30T583 -18T401 6T228 13T87 -30L59 27Q107 66 138 101T185 189T202 333T192 578Q177 778 220 925T366 1154T627 1235Q679 1235 738 1224T891 1165ZM650 531H81L57 559Q61 574 69 595T84
632H653L680 607L650 531Z" />
<glyph unicode="&#xa4;" glyph-name="currency" horiz-adv-x="986" d="M364 733Q309 678 309 601Q309 525 363 472Q418 417 495 417Q571 417 625 471Q679 527 679 602Q679 678 624 733Q570 787 495 787Q418 787 364 733ZM290 807Q333 850 386 871T495 893Q612
893 698 807Q740 765 762 711T784 600Q784 545 763 492T699 396Q658 354 605 334T495 313Q438 313 385 334T288 398Q246 440 226 492T205 600Q205 656 226 710T290 807ZM373 410L209 247L173 249Q164 264 155 282T139 317L301 480L339 482L373 410ZM295 730L140
886L142 922Q157 931 175 940T210 956L365 801L367 764L295 730ZM776 248L621 403L623 440Q654 458 691 475L847 318L848 281L776 248ZM846 884L683 721L646 723Q628 755 612 791L776 955L813 956L846 884Z" />
<glyph unicode="&#xa5;" glyph-name="yen" horiz-adv-x="986" d="M234 0V53Q324 72 359 91T395 125V420H118L96 445Q100 460 108 482T122 521H395V563Q326 712 244 854T94 1085Q76 1108 46 1123T-68 1138L-72 1191Q-13 1199 55 1206T165 1214Q218 1214 250 1173Q325
1075 388 965T522 710L729 1085Q744 1111 720 1126T618 1151V1204H1021V1151Q953 1138 918 1125T868 1085L585 561V521H855L880 498L851 420H585V125Q585 112 620 92T749 53V0H234Z" />
<glyph unicode="&#xa6;" glyph-name="brokenbar" horiz-adv-x="500" d="M327 747Q306 731 272 716T213 694L174 718V1619Q203 1635 229 1649T287 1670L327 1646V747ZM327 -422Q306 -438 272 -453T213 -476L174 -451V439Q203 456 229 469T287 493L327 466V-422Z" />
<glyph unicode="&#xa7;" glyph-name="section" horiz-adv-x="982" d="M447 -30Q394 -30 322 -8T182 51Q176 54 173 83T171 155T176 239T189 308L245 297Q255 206 324 141T492 76Q564 76 606 107T649 205Q649 258 611 294T515 359T396 422Q275 487 195 566T114
776Q114 840 149 900T242 1006T367 1067L428 988Q359 979 316 933T273 824Q273 764 302 721T394 636T554 539Q612 510 671 476T769 392T809 268Q809 162 767 102T662 13T541 -22T447 -30ZM653 361L555 446Q621 447 665 492T710 597Q710 692 638 754T413 899Q319
950 250 1021T180 1193Q180 1276 226 1330T344 1412T497 1440Q568 1440 649 1416T773 1356Q781 1348 772 1312T747 1236T720 1183L671 1191Q592 1345 476 1345Q412 1345 376 1318T340 1240Q340 1172 400 1125T571 1017Q653 971 720 925T827 817T868 660Q868 570
833 505T747 403T653 361Z" />
<glyph unicode="&#xa8;" glyph-name="dieresis" horiz-adv-x="801" d="M309 1263Q309 1201 272 1157T180 1113Q84 1113 84 1218Q84 1280 122 1323T213 1367Q309 1367 309 1263ZM717 1263Q717 1201 680 1157T587 1113Q492 1113 492 1218Q492 1280 530 1323T621
1367Q717 1367 717 1263Z" />
<glyph unicode="&#xa9;" glyph-name="copyright" horiz-adv-x="1472" d="M735 -30Q596 -30 479 22T276 167T143 381T95 643Q95 781 142 903T276 1117T479 1261T735 1313Q874 1313 991 1261T1195 1117T1329 903T1377 643Q1377 503 1330 382T1196 168T992 23T735
-30ZM713 223Q625 223 544 269T411 404T359 614Q359 745 417 845T575 1003T795 1060Q867 1060 927 1040T1022 993Q1027 987 1015 958T985 899T956 857L922 862Q891 903 850 937T743 971Q696 971 642 941T551 838T513 641Q513 539 558 469T667 363T788 327Q832 327
877 344T1002 420L1035 383Q940 288 864 256T713 223ZM735 68Q894 68 1017 145T1210 353T1280 643Q1280 800 1210 930T1017 1138T735 1216Q578 1216 455 1138T262 930T192 643Q192 484 262 354T455 146T735 68Z" />
<glyph unicode="&#xaa;" glyph-name="ordfeminine" horiz-adv-x="537" d="M526 779Q433 716 389 716Q371 716 355 748T338 861V1056Q338 1118 324 1150T258 1183Q228 1183 201 1160T187 1096Q189 1090 164 1082T109 1068T71 1064L62 1086Q71 1129 114 1165T212
1222T307 1244Q379 1244 411 1203T443 1053V857Q443 829 447 817T457 797Q462 794 476 796T518 809L526 779ZM292 984Q217 964 188 933T158 858Q158 819 176 806T208 793Q238 793 273 808T350 861L355 814Q303 760 253 738T165 716Q125 716 86 741T47 830Q47 892
93 941T242 1017L408 1058L411 1014L292 984ZM49 586V664H498V586H49Z" />
<glyph unicode="&#xab;" glyph-name="guillemotleft" horiz-adv-x="1014" d="M458 430Q458 430 458 447T458 483T460 503L831 918L878 883Q878 883 856 841T800 737T734 612T679 508T658 467L879 47L831 12L458 430ZM75 430Q75 430 75 447T75 483T77 503L449 918L496
883Q496 883 474 841T418 737T352 612T297 508T276 467L497 47L449 12L75 430Z" />
<glyph unicode="&#xac;" glyph-name="logicalnot" horiz-adv-x="986" d="M911 233Q891 218 866 202T815 177L788 205V501H93L66 528Q71 548 82 576T102 623Q338 623 486 623T716 623T832 623T873 623T880 623L911 599V233Z" />
<glyph unicode="&#xad;" glyph-name="uni00AD" horiz-adv-x="703" d="M644 549Q638 527 627 497T608 450H86L58 477Q64 498 74 527T94 575H617L644 549Z" />
<glyph unicode="&#xae;" glyph-name="registered" horiz-adv-x="730" d="M701 1084Q701 987 658 908T538 781T364 733Q267 733 192 780T73 907T30 1084Q30 1181 73 1260T191 1387T364 1435Q461 1435 537 1388T657 1261T701 1084ZM637 1084Q637 1163 602 1228T506
1332T364 1371Q286 1371 225 1332T128 1228T93 1084Q93 1005 128 940T224 836T364 797Q444 797 505 835T602 939T637 1084ZM504 1196Q504 1136 459 1103T344 1069Q329 1069 307 1074L305 1112Q324 1108 340 1108Q436 1108 436 1187Q436 1216 414 1236T338 1256Q310
1256 278 1253T212 1244L210 1275Q239 1281 273 1286T349 1292Q427 1292 465 1265T504 1196ZM557 899Q537 893 513 887T478 881Q458 881 448 898L342 1080L390 1098L505 936Q516 918 555 920L557 899ZM212 886V906Q254 915 254 924V1271H315V924Q315 914 356 906V886H212Z"
/>
<glyph unicode="&#xaf;" glyph-name="overscore" horiz-adv-x="1010" d="M872 1290Q867 1268 851 1231T828 1175H163L138 1202Q142 1224 158 1260T184 1316H847L872 1290Z" />
<glyph unicode="&#xb0;" glyph-name="degree" horiz-adv-x="733" d="M602 1047Q602 962 560 895T455 789T328 750Q242 750 187 808T132 946Q132 1032 173 1099T277 1205T406 1244Q486 1244 544 1185T602 1047ZM478 995Q478 1051 451 1093T378 1135Q330 1135 293
1098T256 998Q256 945 282 902T356 858Q401 858 439 894T478 995Z" />
<glyph unicode="&#xb1;" glyph-name="plusminus" horiz-adv-x="848" d="M789 704Q784 683 773 655T753 609H86L58 636Q64 656 74 683T94 730H762L789 704ZM487 344Q441 321 389 310L362 335V999Q380 1005 409 1015T460 1030L487 1005V344ZM789 222Q784 202 773
173T753 128H86L58 154Q64 175 74 202T94 249H762L789 222Z" />
<glyph unicode="&#xb2;" glyph-name="twosuperior" horiz-adv-x="690" d="M604 620H78L58 664Q182 788 260 871T382 1009T442 1102T459 1174Q459 1228 431 1261T336 1294Q282 1294 252 1258T224 1177Q170 1152 97 1145L77 1171Q77 1212 120 1256T233 1330T384
1361Q481 1361 542 1321T604 1197Q604 1143 569 1086T449 942T220 711H493Q525 711 540 737T559 788T564 814L614 806L604 620Z" />
<glyph unicode="&#xb3;" glyph-name="threesuperior" horiz-adv-x="690" d="M606 849Q606 748 524 675T304 602Q243 602 174 626T42 702L67 749Q131 708 181 693T284 678Q360 678 408 716T457 831Q457 889 431 923T368 971T294 986Q275 986 270 986T243 982L233
1031Q314 1051 353 1077T405 1131T417 1184Q417 1225 392 1259T307 1294Q260 1294 234 1268T218 1201Q192 1189 156 1182T86 1171L66 1196Q66 1230 104 1268T205 1333T347 1361Q462 1361 513 1309T565 1195Q565 1150 525 1105T417 1039Q499 1031 552 977T606 849Z"
/>
<glyph unicode="&#xb4;" glyph-name="acute" horiz-adv-x="653" d="M279 1045Q261 1048 243 1058T212 1078L439 1497Q454 1496 489 1491T560 1479T611 1469L637 1425L279 1045Z" />
<glyph unicode="&#xb5;" glyph-name="mu" horiz-adv-x="1125" d="M1110 87Q1070 61 1024 34T936 -12T868 -31Q817 -31 795 44T773 216Q773 225 773 278T773 406T773 556T773 684T773 748Q773 780 761 830T735 900Q782 911 837 927T938 960L969 919Q965 893 960
857T953 759Q953 752 953 705T953 592T953 458T953 340T953 278Q953 185 962 150T992 114Q1013 114 1037 121T1095 142L1110 87ZM834 257Q736 111 650 40T493 -31Q425 -31 353 32T232 203T183 447Q183 455 183 495T183 586T183 675T183 719Q183 770 178 794T146
828T56 844V894Q138 906 200 919T322 960Q323 960 338 943T363 915Q363 912 363 858T363 724T363 566T363 431T363 371Q363 321 386 268T448 180T536 144Q572 144 613 157T705 217T819 358L834 257ZM279 459Q274 398 275 348T279 241T281 106Q279 -103 326 -229T429
-419Q409 -425 366 -441T282 -475T224 -500L183 -468Q183 -462 183 -404T183 -254T183 -53T183 168T183 375T183 535T183 615Q183 615 205 587T251 523T279 459Z" />
<glyph unicode="&#xb6;" glyph-name="paragraph" horiz-adv-x="1170" d="M1023 1260Q1023 1260 1002 1240T951 1195T898 1151T870 1137Q805 1162 736 1174T608 1191T512 1196Q437 1196 376 1163T279 1071T243 938Q243 866 275 792T377 668T557 618Q622 618 650
622T678 626L686 561Q686 561 651 543T514 524Q384 524 278 566T108 693T44 903Q44 1017 104 1104T270 1240T518 1290Q553 1290 614 1287T746 1280T879 1271T983 1263T1023 1260ZM457 -250V-197Q525 -183 562 -166T600 -135L602 1211Q602 1219 586 1214T538 1203T456
1207V1260H1093V1207Q1025 1193 987 1176T949 1145V-135Q949 -148 984 -165T1093 -197V-250H457ZM816 1194L736 1213V-135Q736 -146 751 -154T775 -166Q787 -163 801 -155T816 -135V1194Z" />
<glyph unicode="&#xb7;" glyph-name="middot" horiz-adv-x="340" d="M290 717Q290 653 251 612T153 571Q50 571 50 678Q50 741 90 782T186 824Q233 824 261 798T290 717Z" />
<glyph unicode="&#xb8;" glyph-name="cedilla" horiz-adv-x="469" d="M423 -229Q423 -303 341 -362T98 -444L71 -387Q169 -371 211 -339T253 -273Q253 -240 228 -226T146 -206Q146 -206 153 -188T180 -115T235 52L328 50L276 -99Q336 -111 379 -142T423 -229Z" />
<glyph unicode="&#xb9;" glyph-name="onesuperior" horiz-adv-x="690" d="M116 620V666Q225 677 261 692T297 720V1171Q297 1218 284 1230Q276 1237 240 1237T110 1221L94 1265Q133 1274 195 1293T318 1332T410 1367L438 1345V720Q438 708 469 693T606 666V620H116Z" />
<glyph unicode="&#xba;" glyph-name="ordmasculine" horiz-adv-x="577" d="M532 990Q532 921 495 859T398 756T273 716Q170 716 107 788T44 969Q44 1039 78 1102T171 1204T303 1244Q404 1244 468 1171T532 990ZM56 586V664H521V586H56ZM424 971Q424 1055 382 1119T275
1183Q215 1183 184 1127T152 986Q152 902 198 839T302 776Q358 776 391 831T424 971Z" />
<glyph unicode="&#xbb;" glyph-name="guillemotright" horiz-adv-x="1014" d="M556 429L183 12L135 47L356 466L136 883L183 918L555 502L556 429ZM939 429L566 12L518 47L739 466L518 883L566 918L938 502L939 429Z" />
<glyph unicode="&#xbc;" glyph-name="onequarter" horiz-adv-x="1225" d="M321 3Q298 -8 271 -15T216 -30L191 0L995 1203Q1015 1211 1045 1221T1097 1235L1122 1207L321 3ZM1153 212Q1141 196 1129 184T1104 163H1073V61Q1073 53 1086 47T1145 32V0H853V32Q926
42 946 50T966 66V163H691L670 180L948 562Q972 571 1002 580T1051 598L1073 580V227H1138L1153 212ZM966 484L772 227H966V484ZM94 637V674Q182 683 211 694T240 717V1077Q240 1116 230 1124Q223 1130 194 1130T90 1117L77 1153Q108 1160 158 1175T257 1207T332
1235L353 1217V717Q353 707 378 695T488 674V637H94Z" />
<glyph unicode="&#xbd;" glyph-name="onehalf" horiz-adv-x="1225" d="M314 3Q291 -8 264 -15T209 -30L184 0L988 1203Q1008 1211 1038 1221T1090 1235L1115 1207L314 3ZM94 637V674Q182 683 211 694T240 717V1077Q240 1116 230 1124Q223 1130 194 1130T90 1117L77
1153Q108 1160 158 1175T257 1207T332 1235L353 1217V717Q353 707 378 695T488 674V637H94ZM1141 0H718L702 35Q835 168 904 244T999 363T1024 443Q1024 486 1002 512T926 538Q882 538 858 510T836 446Q817 436 788 429T734 420L717 440Q717 474 752 509T843 568T964
593Q1043 593 1092 561T1141 462Q1141 419 1113 373T1017 257T832 73H1052Q1077 73 1089 93T1105 134T1109 155L1149 149L1141 0Z" />
<glyph unicode="&#xbe;" glyph-name="threequarters" horiz-adv-x="1225" d="M314 3Q290 -8 263 -15T208 -30L183 0L988 1203Q1007 1211 1037 1221T1089 1235L1114 1207L314 3ZM524 821Q524 740 458 682T282 623Q233 623 178 642T71 703L91 740Q142 708 183 696T266
684Q327 684 365 714T404 806Q404 876 361 903T273 930Q258 930 254 930T232 926L225 966Q323 989 347 1024T372 1089Q372 1122 352 1148T284 1175Q246 1175 225 1155T212 1102Q192 1093 163 1087T106 1078L90 1099Q90 1125 120 1155T202 1208T316 1230Q408 1230
449 1188T491 1097Q491 1061 459 1025T373 973Q439 966 481 923T524 821ZM1153 212Q1141 196 1129 184T1104 163H1073V61Q1073 53 1086 47T1145 32V0H853V32Q926 42 946 50T966 66V163H691L670 180L948 562Q972 571 1002 580T1051 598L1073 580V227H1138L1153 212ZM966
484L772 227H966V484Z" />
<glyph unicode="&#xbf;" glyph-name="questiondown" horiz-adv-x="902" d="M608 841Q608 769 562 722T453 674Q401 674 371 704T340 796Q340 868 384 914T492 960Q608 960 608 841ZM427 523Q456 549 509 564L537 541L543 427Q548 358 522 292T455 162T373 37T303
-84T274 -201Q274 -324 324 -390T468 -457Q533 -457 582 -401T631 -266Q631 -251 627 -236T617 -206Q650 -188 700 -176T796 -160L825 -193Q827 -201 827 -212T827 -230Q827 -325 767 -399T607 -516T393 -559Q239 -559 157 -472T75 -246Q75 -155 108 -85T190 45T291
162T378 283T421 427L427 523Z" />
<glyph unicode="&#xc0;" glyph-name="Agrave" horiz-adv-x="1242" d="M385 440L279 121Q269 90 305 76T423 53V0H0V53Q68 65 107 78T156 121L520 1227Q551 1257 594 1279T672 1317L1092 121Q1102 93 1129 77T1221 53V0H774V53Q851 58 880 73T899 121L789 440H385ZM754
540L582 1038L418 540H754ZM792 1417Q779 1398 768 1385T739 1363L260 1610L268 1661Q278 1670 307 1687T366 1720T412 1744L792 1417Z" />
<glyph unicode="&#xc1;" glyph-name="Aacute" horiz-adv-x="1242" d="M385 440L279 121Q269 90 305 76T423 53V0H0V53Q68 65 107 78T156 121L520 1227Q551 1257 594 1279T672 1317L1092 121Q1102 93 1129 77T1221 53V0H774V53Q851 58 880 73T899 121L789 440H385ZM754
540L582 1038L418 540H754ZM474 1364Q457 1372 445 1386T421 1417L802 1742Q816 1735 846 1719T906 1685T947 1657L956 1606L474 1364Z" />
<glyph unicode="&#xc2;" glyph-name="Acircumflex" horiz-adv-x="1242" d="M385 440L279 121Q269 90 305 76T423 53V0H0V53Q68 65 107 78T156 121L520 1227Q551 1257 594 1279T672 1317L1092 121Q1102 93 1129 77T1221 53V0H774V53Q851 58 880 73T899 121L789
440H385ZM754 540L582 1038L418 540H754ZM934 1417Q922 1398 913 1385T886 1365L610 1560L336 1365Q320 1372 309 1385T284 1417L553 1734H670L934 1417Z" />
<glyph unicode="&#xc3;" glyph-name="Atilde" horiz-adv-x="1242" d="M385 440L279 121Q269 90 305 76T423 53V0H0V53Q68 65 107 78T156 121L520 1227Q551 1257 594 1279T672 1317L1092 121Q1102 93 1129 77T1221 53V0H774V53Q851 58 880 73T899 121L789 440H385ZM754
540L582 1038L418 540H754ZM969 1634Q946 1580 909 1524T825 1429T722 1391Q672 1391 628 1418T541 1473T456 1501Q414 1501 382 1470T313 1382L252 1405Q276 1459 312 1515T396 1610T499 1649Q553 1649 599 1622T686 1567T763 1539Q838 1539 908 1659L969 1634Z"
/>
<glyph unicode="&#xc4;" glyph-name="Adieresis" horiz-adv-x="1242" d="M385 440L279 121Q269 90 305 76T423 53V0H0V53Q68 65 107 78T156 121L520 1227Q551 1257 594 1279T672 1317L1092 121Q1102 93 1129 77T1221 53V0H774V53Q851 58 880 73T899 121L789 440H385ZM754
540L582 1038L418 540H754ZM519 1543Q519 1481 482 1437T390 1393Q294 1393 294 1498Q294 1560 332 1603T423 1647Q519 1647 519 1543ZM927 1543Q927 1481 890 1437T797 1393Q702 1393 702 1498Q702 1560 740 1603T831 1647Q927 1647 927 1543Z" />
<glyph unicode="&#xc5;" glyph-name="Aring" horiz-adv-x="1242" d="M385 440L279 121Q269 90 305 76T423 53V0H0V53Q68 65 107 78T156 121L520 1227Q551 1257 594 1279T672 1317L1092 121Q1102 93 1129 77T1221 53V0H774V53Q851 58 880 73T899 121L789 440H385ZM754
540L582 1038L418 540H754ZM805 1612Q805 1543 771 1488T686 1402T580 1370Q509 1370 464 1416T418 1532Q418 1601 451 1656T535 1743T642 1775Q712 1775 758 1728T805 1612ZM700 1571Q700 1619 678 1651T621 1684Q580 1684 552 1653T523 1573Q523 1527 545 1494T601
1461Q641 1461 670 1490T700 1571Z" />
<glyph unicode="&#xc6;" glyph-name="AE" horiz-adv-x="1615" d="M1560 264Q1551 178 1539 104T1518 0H629V53Q769 81 769 114V642H505L293 121Q280 92 308 77T416 53V0H0V53Q65 64 103 78T154 121L559 1123Q573 1157 526 1172T381 1207V1260H911H1079H1461L1493
1233Q1491 1199 1485 1152T1471 1060T1452 990H1397Q1393 1082 1374 1121T1315 1160H959V735H1362L1391 705Q1374 677 1347 640T1299 587Q1244 642 1125 642H959V164Q959 145 974 131T1033 108T1166 100H1284Q1345 100 1383 113T1450 167T1506 285L1560 264ZM769
1138Q769 1160 740 1158T696 1121L542 735H769V1138Z" />
<glyph unicode="&#xc7;" glyph-name="Ccedilla" horiz-adv-x="1113" d="M1036 211Q908 76 796 23T576 -30Q481 -30 390 11T225 132T109 326T65 586Q65 799 148 957T372 1202T681 1290Q788 1290 876 1261T1017 1190Q1024 1184 1006 1153T963 1087T922 1037L877
1046Q826 1106 757 1139T602 1173Q551 1173 491 1145T376 1054T288 885T253 623Q253 448 315 333T470 162T656 105Q710 105 797 139T994 264Q1004 258 1018 239T1036 211ZM772 -229Q772 -303 690 -362T447 -444L420 -387Q518 -371 560 -339T602 -273Q602 -240 577
-226T495 -206Q495 -206 502 -188T528 -115T583 52L676 50L625 -99Q685 -111 728 -142T772 -229Z" />
<glyph unicode="&#xc8;" glyph-name="Egrave" horiz-adv-x="1036" d="M914 1233Q912 1199 906 1152T890 1060T873 990H818Q814 1082 794 1121T736 1160H328L357 1260H879L914 1233ZM811 705Q795 677 768 641T719 589Q688 618 647 631T521 644H314L336 735H783L811
705ZM979 264Q972 178 959 104T938 0H48V53Q115 67 152 84T190 114V1145Q190 1157 155 1175T48 1207V1260H525V1207Q458 1200 419 1191T380 1167V164Q380 145 394 131T452 108T584 100H703Q765 100 803 113T870 167T926 285L979 264ZM695 1417Q682 1398 671 1385T642
1363L163 1610L171 1661Q181 1670 210 1687T269 1720T315 1744L695 1417Z" />
<glyph unicode="&#xc9;" glyph-name="Eacute" horiz-adv-x="1036" d="M914 1233Q912 1199 906 1152T890 1060T873 990H818Q814 1082 794 1121T736 1160H328L357 1260H879L914 1233ZM811 705Q795 677 768 641T719 589Q688 618 647 631T521 644H314L336 735H783L811
705ZM979 264Q972 178 959 104T938 0H48V53Q115 67 152 84T190 114V1145Q190 1157 155 1175T48 1207V1260H525V1207Q458 1200 419 1191T380 1167V164Q380 145 394 131T452 108T584 100H703Q765 100 803 113T870 167T926 285L979 264ZM377 1364Q360 1372 348 1386T324
1417L705 1742Q719 1735 749 1719T809 1685T850 1657L859 1606L377 1364Z" />
<glyph unicode="&#xca;" glyph-name="Ecircumflex" horiz-adv-x="1036" d="M914 1233Q912 1199 906 1152T890 1060T873 990H818Q814 1082 794 1121T736 1160H328L357 1260H879L914 1233ZM811 705Q795 677 768 641T719 589Q688 618 647 631T521 644H314L336 735H783L811
705ZM979 264Q972 178 959 104T938 0H48V53Q115 67 152 84T190 114V1145Q190 1157 155 1175T48 1207V1260H525V1207Q458 1200 419 1191T380 1167V164Q380 145 394 131T452 108T584 100H703Q765 100 803 113T870 167T926 285L979 264ZM837 1417Q825 1398 816 1385T789
1365L513 1560L239 1365Q223 1372 212 1385T187 1417L456 1734H573L837 1417Z" />
<glyph unicode="&#xcb;" glyph-name="Edieresis" horiz-adv-x="1036" d="M914 1233Q912 1199 906 1152T890 1060T873 990H818Q814 1082 794 1121T736 1160H328L357 1260H879L914 1233ZM811 705Q795 677 768 641T719 589Q688 618 647 631T521 644H314L336 735H783L811
705ZM979 264Q972 178 959 104T938 0H48V53Q115 67 152 84T190 114V1145Q190 1157 155 1175T48 1207V1260H525V1207Q458 1200 419 1191T380 1167V164Q380 145 394 131T452 108T584 100H703Q765 100 803 113T870 167T926 285L979 264ZM422 1543Q422 1481 385 1437T293
1393Q197 1393 197 1498Q197 1560 235 1603T326 1647Q422 1647 422 1543ZM830 1543Q830 1481 793 1437T700 1393Q605 1393 605 1498Q605 1560 643 1603T734 1647Q830 1647 830 1543Z" />
<glyph unicode="&#xcc;" glyph-name="Igrave" horiz-adv-x="630" d="M68 0V53Q135 67 172 84T210 114V1145Q210 1157 175 1175T68 1207V1260H543V1207Q475 1193 438 1176T400 1145V114Q400 102 435 85T543 53V0H68ZM486 1417Q473 1398 462 1385T433 1363L-46 1610L-38
1661Q-28 1670 1 1687T60 1720T106 1744L486 1417Z" />
<glyph unicode="&#xcd;" glyph-name="Iacute" horiz-adv-x="630" d="M68 0V53Q135 67 172 84T210 114V1145Q210 1157 175 1175T68 1207V1260H543V1207Q475 1193 438 1176T400 1145V114Q400 102 435 85T543 53V0H68ZM168 1364Q151 1372 139 1386T115 1417L496 1742Q510
1735 540 1719T600 1685T641 1657L650 1606L168 1364Z" />
<glyph unicode="&#xce;" glyph-name="Icircumflex" horiz-adv-x="630" d="M68 0V53Q135 67 172 84T210 114V1145Q210 1157 175 1175T68 1207V1260H543V1207Q475 1193 438 1176T400 1145V114Q400 102 435 85T543 53V0H68ZM628 1417Q616 1398 607 1385T580 1365L304
1560L30 1365Q14 1372 3 1385T-22 1417L247 1734H364L628 1417Z" />
<glyph unicode="&#xcf;" glyph-name="Idieresis" horiz-adv-x="630" d="M68 0V53Q135 67 172 84T210 114V1145Q210 1157 175 1175T68 1207V1260H543V1207Q475 1193 438 1176T400 1145V114Q400 102 435 85T543 53V0H68ZM213 1543Q213 1481 176 1437T84 1393Q-12
1393 -12 1498Q-12 1560 26 1603T117 1647Q213 1647 213 1543ZM621 1543Q621 1481 584 1437T491 1393Q396 1393 396 1498Q396 1560 434 1603T525 1647Q621 1647 621 1543Z" />
<glyph unicode="&#xd0;" glyph-name="Eth" horiz-adv-x="1244" d="M629 615H49L27 640Q38 676 53 715H633L658 692L629 615ZM48 0V53Q115 67 152 84T190 114V1179Q113 1168 48 1158L37 1230Q98 1247 184 1260T364 1282T538 1290Q826 1290 991 1128T1156 676Q1156
489 1102 360T961 151T773 36T579 0H513Q435 0 374 0T245 0T82 0H48ZM552 92Q617 92 687 124T817 224T915 393T953 637Q953 903 829 1051T471 1199Q427 1199 380 1196V159Q380 115 434 104T552 92Z" />
<glyph unicode="&#xd1;" glyph-name="Ntilde" horiz-adv-x="1339" d="M1293 1207Q1221 1197 1186 1178T1150 1145V32L1020 71V1145Q1020 1157 989 1176T878 1207V1260H1293V1207ZM1150 -30Q1085 -23 1047 -4T991 39L238 1083Q197 1140 149 1169T48 1207V1260H282Q311
1260 326 1247T378 1182L1027 286Q1041 266 1070 228T1125 159T1150 128V-30ZM48 0V53Q121 62 155 81T190 114V1186L320 1221V114Q320 102 352 83T463 53V0H48ZM1028 1634Q1005 1580 968 1524T884 1429T781 1391Q731 1391 687 1418T600 1473T515 1501Q473 1501
441 1470T372 1382L311 1405Q335 1459 371 1515T455 1610T558 1649Q612 1649 658 1622T745 1567T822 1539Q897 1539 967 1659L1028 1634Z" />
<glyph unicode="&#xd2;" glyph-name="Ograve" horiz-adv-x="1244" d="M584 -30Q462 -30 366 22T203 165T102 370T67 612Q67 748 110 870T232 1087T415 1236T642 1290Q769 1290 865 1236T1027 1091T1126 884T1160 647Q1160 511 1114 389T988 173T805 24T584 -30ZM618
95Q773 95 872 229T972 629Q972 733 946 829T872 1003T756 1125T606 1170Q439 1170 347 1028T254 641Q254 492 304 368T436 169T618 95ZM806 1417Q793 1398 782 1385T753 1363L274 1610L282 1661Q292 1670 321 1687T380 1720T426 1744L806 1417Z" />
<glyph unicode="&#xd3;" glyph-name="Oacute" horiz-adv-x="1244" d="M584 -30Q462 -30 366 22T203 165T102 370T67 612Q67 748 110 870T232 1087T415 1236T642 1290Q769 1290 865 1236T1027 1091T1126 884T1160 647Q1160 511 1114 389T988 173T805 24T584 -30ZM618
95Q773 95 872 229T972 629Q972 733 946 829T872 1003T756 1125T606 1170Q439 1170 347 1028T254 641Q254 492 304 368T436 169T618 95ZM488 1364Q471 1372 459 1386T435 1417L816 1742Q830 1735 860 1719T920 1685T961 1657L970 1606L488 1364Z" />
<glyph unicode="&#xd4;" glyph-name="Ocircumflex" horiz-adv-x="1244" d="M584 -30Q462 -30 366 22T203 165T102 370T67 612Q67 748 110 870T232 1087T415 1236T642 1290Q769 1290 865 1236T1027 1091T1126 884T1160 647Q1160 511 1114 389T988 173T805 24T584
-30ZM618 95Q773 95 872 229T972 629Q972 733 946 829T872 1003T756 1125T606 1170Q439 1170 347 1028T254 641Q254 492 304 368T436 169T618 95ZM948 1417Q936 1398 927 1385T900 1365L624 1560L350 1365Q334 1372 323 1385T298 1417L567 1734H684L948 1417Z"
/>
<glyph unicode="&#xd5;" glyph-name="Otilde" horiz-adv-x="1244" d="M584 -30Q462 -30 366 22T203 165T102 370T67 612Q67 748 110 870T232 1087T415 1236T642 1290Q769 1290 865 1236T1027 1091T1126 884T1160 647Q1160 511 1114 389T988 173T805 24T584 -30ZM618
95Q773 95 872 229T972 629Q972 733 946 829T872 1003T756 1125T606 1170Q439 1170 347 1028T254 641Q254 492 304 368T436 169T618 95ZM983 1634Q960 1580 923 1524T839 1429T736 1391Q686 1391 642 1418T555 1473T470 1501Q428 1501 396 1470T327 1382L266 1405Q290
1459 326 1515T410 1610T513 1649Q567 1649 613 1622T700 1567T777 1539Q852 1539 922 1659L983 1634Z" />
<glyph unicode="&#xd6;" glyph-name="Odieresis" horiz-adv-x="1244" d="M584 -30Q462 -30 366 22T203 165T102 370T67 612Q67 748 110 870T232 1087T415 1236T642 1290Q769 1290 865 1236T1027 1091T1126 884T1160 647Q1160 511 1114 389T988 173T805 24T584
-30ZM618 95Q773 95 872 229T972 629Q972 733 946 829T872 1003T756 1125T606 1170Q439 1170 347 1028T254 641Q254 492 304 368T436 169T618 95ZM533 1543Q533 1481 496 1437T404 1393Q308 1393 308 1498Q308 1560 346 1603T437 1647Q533 1647 533 1543ZM941 1543Q941
1481 904 1437T811 1393Q716 1393 716 1498Q716 1560 754 1603T845 1647Q941 1647 941 1543Z" />
<glyph unicode="&#xd7;" glyph-name="multiply" horiz-adv-x="840" d="M749 283Q729 274 697 264T646 249L91 803L90 841Q110 850 141 859T194 873L749 318V283ZM91 319L645 873Q666 868 697 859T748 839V803L194 249Q175 253 144 262T91 283V319Z" />
<glyph unicode="&#xd8;" glyph-name="Oslash" horiz-adv-x="1244" d="M1158 647Q1158 511 1113 389T987 173T803 24T583 -30Q460 -30 364 22T202 165T100 370T65 612Q65 748 108 870T230 1087T413 1236T641 1290Q767 1290 863 1236T1025 1091T1124 884T1158 647ZM971
629Q971 733 945 829T870 1003T754 1125T604 1170Q438 1170 346 1028T253 641Q253 492 302 368T435 169T617 95Q771 95 871 229T971 629ZM242 -2Q224 -18 175 -32T101 -53L72 -19L982 1264Q1010 1281 1050 1294T1120 1313L1150 1279L242 -2Z" />
<glyph unicode="&#xd9;" glyph-name="Ugrave" horiz-adv-x="1349" d="M1288 1207Q1220 1193 1183 1176T1145 1145V524Q1145 262 1016 116T671 -30Q534 -30 425 21T253 177T190 444V1145Q190 1157 155 1175T48 1207V1260H523V1207Q455 1193 418 1176T380 1145V499Q380
307 463 201T718 95Q813 95 875 152T969 299T1000 488V1145Q1000 1157 965 1175T858 1207V1260H1288V1207ZM863 1417Q850 1398 839 1385T810 1363L331 1610L339 1661Q349 1670 378 1687T437 1720T483 1744L863 1417Z" />
<glyph unicode="&#xda;" glyph-name="Uacute" horiz-adv-x="1349" d="M1288 1207Q1220 1193 1183 1176T1145 1145V524Q1145 262 1016 116T671 -30Q534 -30 425 21T253 177T190 444V1145Q190 1157 155 1175T48 1207V1260H523V1207Q455 1193 418 1176T380 1145V499Q380
307 463 201T718 95Q813 95 875 152T969 299T1000 488V1145Q1000 1157 965 1175T858 1207V1260H1288V1207ZM545 1364Q528 1372 516 1386T492 1417L873 1742Q887 1735 917 1719T977 1685T1018 1657L1027 1606L545 1364Z" />
<glyph unicode="&#xdb;" glyph-name="Ucircumflex" horiz-adv-x="1349" d="M1288 1207Q1220 1193 1183 1176T1145 1145V524Q1145 262 1016 116T671 -30Q534 -30 425 21T253 177T190 444V1145Q190 1157 155 1175T48 1207V1260H523V1207Q455 1193 418 1176T380 1145V499Q380
307 463 201T718 95Q813 95 875 152T969 299T1000 488V1145Q1000 1157 965 1175T858 1207V1260H1288V1207ZM1005 1417Q993 1398 984 1385T957 1365L681 1560L407 1365Q391 1372 380 1385T355 1417L624 1734H741L1005 1417Z" />
<glyph unicode="&#xdc;" glyph-name="Udieresis" horiz-adv-x="1349" d="M1288 1207Q1220 1193 1183 1176T1145 1145V524Q1145 262 1016 116T671 -30Q534 -30 425 21T253 177T190 444V1145Q190 1157 155 1175T48 1207V1260H523V1207Q455 1193 418 1176T380 1145V499Q380
307 463 201T718 95Q813 95 875 152T969 299T1000 488V1145Q1000 1157 965 1175T858 1207V1260H1288V1207ZM590 1543Q590 1481 553 1437T461 1393Q365 1393 365 1498Q365 1560 403 1603T494 1647Q590 1647 590 1543ZM998 1543Q998 1481 961 1437T868 1393Q773 1393
773 1498Q773 1560 811 1603T902 1647Q998 1647 998 1543Z" />
<glyph unicode="&#xdd;" glyph-name="Yacute" horiz-adv-x="1230" d="M1191 1207Q1123 1194 1088 1181T1038 1141L680 487H538Q502 570 454 663T354 846T252 1013T166 1141Q147 1163 117 1178T4 1194L0 1247Q59 1255 126 1262T234 1270Q287 1270 320 1229Q369
1164 426 1072T539 878T642 680L899 1141Q914 1167 890 1182T788 1207V1260H1191V1207ZM355 0V53Q446 72 481 91T517 125V637H707V125Q707 112 741 92T870 53V0H355ZM475 1364Q458 1372 446 1386T422 1417L803 1742Q817 1735 847 1719T907 1685T948 1657L957 1606L475
1364Z" />
<glyph unicode="&#xde;" glyph-name="Thorn" horiz-adv-x="1101" d="M1018 669Q1018 565 977 489T872 362T737 287T604 263Q558 263 516 270T440 295L415 377Q456 358 492 353T564 348Q624 348 685 378T788 471T830 628Q830 733 783 800T655 899T474 931Q370 931
250 917L239 1000Q299 1011 368 1017T531 1023Q751 1023 884 932T1018 669ZM47 0V53Q115 67 153 84T191 114V1145Q191 1157 155 1175T47 1207V1260H553V1207Q450 1190 416 1175T381 1145V114Q381 102 415 86T553 53V0H47Z" />
<glyph unicode="&#xdf;" glyph-name="germandbls" horiz-adv-x="1201" d="M1123 283Q1123 203 1086 132T970 15T767 -30Q724 -30 665 -18T557 13T499 46Q493 54 492 90T492 171T498 253T511 301L563 288Q580 178 653 128T803 78Q872 78 917 114T963 215Q963 282
930 327T846 406T736 468T626 530T541 611T508 729Q508 808 541 853T624 925T722 976T804 1031T838 1122Q838 1195 811 1262T727 1374T585 1418Q523 1418 475 1385T398 1264T370 1011V0H53V53Q120 65 155 82T190 112V956Q190 1117 221 1212T302 1362T403 1458Q458
1500 529 1525T676 1550Q795 1550 871 1492T983 1351T1020 1190Q1020 1092 985 1035T899 946T797 893T711 845T676 770Q676 726 708 695T791 637T899 583T1008 516T1091 421T1123 283Z" />
<glyph unicode="&#xe0;" glyph-name="agrave" horiz-adv-x="968" d="M956 92Q871 34 805 2T707 -30Q670 -30 647 22T623 164V697Q623 763 591 807T468 850Q409 849 360 813T317 717Q318 707 293 695T231 672T162 655T117 652L101 696Q132 767 205 827T373 923T562
960Q680 960 741 899T803 735V198Q803 120 843 120Q857 120 878 125T939 147L956 92ZM633 483Q528 466 469 450T379 416T327 377Q301 350 285 317T269 239Q269 189 287 162T330 125T372 115Q426 115 490 144T633 244L641 157Q547 56 454 13T293 -30Q242 -30 192
-7T109 65T75 191Q75 265 101 314T164 401Q196 434 244 462T382 516T633 566V483ZM611 1081Q598 1069 580 1060T545 1045L183 1422L207 1468Q220 1471 255 1477T326 1490T378 1497L611 1081Z" />
<glyph unicode="&#xe1;" glyph-name="aacute" horiz-adv-x="968" d="M956 92Q871 34 805 2T707 -30Q670 -30 647 22T623 164V697Q623 763 591 807T468 850Q409 849 360 813T317 717Q318 707 293 695T231 672T162 655T117 652L101 696Q132 767 205 827T373 923T562
960Q680 960 741 899T803 735V198Q803 120 843 120Q857 120 878 125T939 147L956 92ZM633 483Q528 466 469 450T379 416T327 377Q301 350 285 317T269 239Q269 189 287 162T330 125T372 115Q426 115 490 144T633 244L641 157Q547 56 454 13T293 -30Q242 -30 192
-7T109 65T75 191Q75 265 101 314T164 401Q196 434 244 462T382 516T633 566V483ZM443 1045Q425 1048 406 1058T376 1078L603 1497Q618 1496 653 1491T724 1479T775 1469L801 1425L443 1045Z" />
<glyph unicode="&#xe2;" glyph-name="acircumflex" horiz-adv-x="968" d="M956 92Q871 34 805 2T707 -30Q670 -30 647 22T623 164V697Q623 763 591 807T468 850Q409 849 360 813T317 717Q318 707 293 695T231 672T162 655T117 652L101 696Q132 767 205 827T373
923T562 960Q680 960 741 899T803 735V198Q803 120 843 120Q857 120 878 125T939 147L956 92ZM633 483Q528 466 469 450T379 416T327 377Q301 350 285 317T269 239Q269 189 287 162T330 125T372 115Q426 115 490 144T633 244L641 157Q547 56 454 13T293 -30Q242
-30 192 -7T109 65T75 191Q75 265 101 314T164 401Q196 434 244 462T382 516T633 566V483ZM815 1097Q803 1078 794 1065T767 1045L491 1298L217 1045Q201 1052 190 1065T165 1097L434 1479H551L815 1097Z" />
<glyph unicode="&#xe3;" glyph-name="atilde" horiz-adv-x="968" d="M956 92Q871 34 805 2T707 -30Q670 -30 647 22T623 164V697Q623 763 591 807T468 850Q409 849 360 813T317 717Q318 707 293 695T231 672T162 655T117 652L101 696Q132 767 205 827T373 923T562
960Q680 960 741 899T803 735V198Q803 120 843 120Q857 120 878 125T939 147L956 92ZM633 483Q528 466 469 450T379 416T327 377Q301 350 285 317T269 239Q269 189 287 162T330 125T372 115Q426 115 490 144T633 244L641 157Q547 56 454 13T293 -30Q242 -30 192
-7T109 65T75 191Q75 265 101 314T164 401Q196 434 244 462T382 516T633 566V483ZM848 1349Q824 1295 788 1240T703 1147T598 1109Q551 1109 509 1136T428 1191T349 1219Q311 1219 278 1186T209 1097L146 1121Q169 1175 205 1231T290 1324T395 1362Q447 1362 490
1334T570 1279T641 1251Q678 1251 714 1284T784 1376L848 1349Z" />
<glyph unicode="&#xe4;" glyph-name="adieresis" horiz-adv-x="968" d="M956 92Q871 34 805 2T707 -30Q670 -30 647 22T623 164V697Q623 763 591 807T468 850Q409 849 360 813T317 717Q318 707 293 695T231 672T162 655T117 652L101 696Q132 767 205 827T373 923T562
960Q680 960 741 899T803 735V198Q803 120 843 120Q857 120 878 125T939 147L956 92ZM633 483Q528 466 469 450T379 416T327 377Q301 350 285 317T269 239Q269 189 287 162T330 125T372 115Q426 115 490 144T633 244L641 157Q547 56 454 13T293 -30Q242 -30 192
-7T109 65T75 191Q75 265 101 314T164 401Q196 434 244 462T382 516T633 566V483ZM401 1263Q401 1201 363 1157T271 1113Q176 1113 176 1218Q176 1280 214 1323T304 1367Q401 1367 401 1263ZM808 1263Q808 1201 771 1157T679 1113Q583 1113 583 1218Q583 1280 621
1323T712 1367Q808 1367 808 1263Z" />
<glyph unicode="&#xe5;" glyph-name="aring" horiz-adv-x="968" d="M956 92Q871 34 805 2T707 -30Q670 -30 647 22T623 164V697Q623 763 591 807T468 850Q409 849 360 813T317 717Q318 707 293 695T231 672T162 655T117 652L101 696Q132 767 205 827T373 923T562
960Q680 960 741 899T803 735V198Q803 120 843 120Q857 120 878 125T939 147L956 92ZM633 483Q528 466 469 450T379 416T327 377Q301 350 285 317T269 239Q269 189 287 162T330 125T372 115Q426 115 490 144T633 244L641 157Q547 56 454 13T293 -30Q242 -30 192
-7T109 65T75 191Q75 265 101 314T164 401Q196 434 244 462T382 516T633 566V483ZM686 1292Q686 1223 652 1168T567 1082T461 1050Q390 1050 345 1096T299 1212Q299 1281 332 1336T416 1423T523 1455Q593 1455 639 1408T686 1292ZM581 1251Q581 1299 559 1331T502
1364Q461 1364 433 1333T404 1253Q404 1207 426 1174T482 1141Q522 1141 551 1170T581 1251Z" />
<glyph unicode="&#xe6;" glyph-name="ae" horiz-adv-x="1445" d="M293 -30Q245 -30 195 -8T110 62T75 191Q75 310 168 405T461 555Q492 563 536 568T626 576V660Q626 741 597 795T480 850Q440 850 395 828T325 767T316 681Q318 672 293 660T232 637T162 621T117
618L101 659Q116 725 168 780T290 875T430 938T553 960Q716 960 768 829Q833 903 908 931T1042 960Q1163 960 1235 898T1338 743T1370 555Q1351 534 1317 515T1251 482H803Q803 469 803 455T802 426Q802 354 829 282T908 163T1036 115Q1078 115 1117 123T1204 159T1320
244Q1333 237 1345 220T1362 195Q1282 102 1218 54T1094 -12T965 -30Q877 -30 795 25T665 180Q578 73 472 22T293 -30ZM372 115Q424 115 496 147T640 251Q632 283 629 311T626 381V478Q595 476 566 473T513 464Q401 439 334 381T267 239Q267 165 305 140T372 115ZM812
580H1146Q1184 580 1184 616Q1184 715 1142 785T1013 855Q983 855 942 835T865 756T812 580Z" />
<glyph unicode="&#xe7;" glyph-name="ccedilla" horiz-adv-x="908" d="M858 190Q771 89 707 43T588 -17T470 -30Q369 -30 279 26T132 189T75 444Q75 588 143 705T329 891T595 960Q661 960 736 938T845 881Q848 865 837 825T810 744T781 685L734 695Q712 751 659
798T510 845Q444 845 386 805T291 683T255 475Q255 364 295 283T403 157T547 113Q585 113 618 119T696 152T814 239L858 190ZM678 -229Q678 -303 596 -362T353 -444L326 -387Q424 -371 466 -339T508 -273Q508 -240 483 -226T401 -206Q401 -206 408 -188T434 -115T489
52L582 50L531 -99Q591 -111 634 -142T678 -229Z" />
<glyph unicode="&#xe8;" glyph-name="egrave" horiz-adv-x="961" d="M886 555Q868 534 833 515T766 483H182L184 580H659Q682 580 689 587T697 616Q697 653 682 708T624 807T501 850Q385 850 322 750T258 495Q258 391 291 304T387 165T539 113Q581 113 620 121T711
157T838 244Q851 237 863 220T880 195Q790 99 725 51T601 -14T470 -30Q364 -30 274 28T130 191T75 437Q75 572 131 688T291 876Q338 909 404 934T532 960Q630 960 697 924T807 827T867 696T886 555ZM638 1081Q625 1069 607 1060T572 1045L210 1422L234 1468Q247
1471 282 1477T353 1490T405 1497L638 1081Z" />
<glyph unicode="&#xe9;" glyph-name="eacute" horiz-adv-x="961" d="M886 555Q868 534 833 515T766 483H182L184 580H659Q682 580 689 587T697 616Q697 653 682 708T624 807T501 850Q385 850 322 750T258 495Q258 391 291 304T387 165T539 113Q581 113 620 121T711
157T838 244Q851 237 863 220T880 195Q790 99 725 51T601 -14T470 -30Q364 -30 274 28T130 191T75 437Q75 572 131 688T291 876Q338 909 404 934T532 960Q630 960 697 924T807 827T867 696T886 555ZM470 1045Q452 1048 433 1058T403 1078L630 1497Q645 1496 680
1491T751 1479T802 1469L828 1425L470 1045Z" />
<glyph unicode="&#xea;" glyph-name="ecircumflex" horiz-adv-x="961" d="M886 555Q868 534 833 515T766 483H182L184 580H659Q682 580 689 587T697 616Q697 653 682 708T624 807T501 850Q385 850 322 750T258 495Q258 391 291 304T387 165T539 113Q581 113 620
121T711 157T838 244Q851 237 863 220T880 195Q790 99 725 51T601 -14T470 -30Q364 -30 274 28T130 191T75 437Q75 572 131 688T291 876Q338 909 404 934T532 960Q630 960 697 924T807 827T867 696T886 555ZM842 1097Q830 1078 821 1065T794 1045L518 1298L244
1045Q228 1052 217 1065T192 1097L461 1479H578L842 1097Z" />
<glyph unicode="&#xeb;" glyph-name="edieresis" horiz-adv-x="961" d="M886 555Q868 534 833 515T766 483H182L184 580H659Q682 580 689 587T697 616Q697 653 682 708T624 807T501 850Q385 850 322 750T258 495Q258 391 291 304T387 165T539 113Q581 113 620
121T711 157T838 244Q851 237 863 220T880 195Q790 99 725 51T601 -14T470 -30Q364 -30 274 28T130 191T75 437Q75 572 131 688T291 876Q338 909 404 934T532 960Q630 960 697 924T807 827T867 696T886 555ZM428 1263Q428 1201 390 1157T298 1113Q203 1113 203
1218Q203 1280 241 1323T331 1367Q428 1367 428 1263ZM835 1263Q835 1201 798 1157T706 1113Q610 1113 610 1218Q610 1280 648 1323T739 1367Q835 1367 835 1263Z" />
<glyph unicode="&#xec;" glyph-name="igrave" horiz-adv-x="575" d="M68 0V53Q205 81 205 114V663Q205 731 200 765T167 812T68 833V883Q138 895 211 915T341 960H385V114Q385 102 417 85T523 53V0H68ZM414 1081Q401 1069 383 1060T348 1045L-14 1422L10 1468Q23
1471 58 1477T129 1490T181 1497L414 1081Z" />
<glyph unicode="&#xed;" glyph-name="iacute" horiz-adv-x="575" d="M68 0V53Q205 81 205 114V663Q205 731 200 765T167 812T68 833V883Q138 895 211 915T341 960H385V114Q385 102 417 85T523 53V0H68ZM246 1045Q228 1048 209 1058T179 1078L406 1497Q421 1496
456 1491T527 1479T578 1469L604 1425L246 1045Z" />
<glyph unicode="&#xee;" glyph-name="icircumflex" horiz-adv-x="575" d="M68 0V53Q205 81 205 114V663Q205 731 200 765T167 812T68 833V883Q138 895 211 915T341 960H385V114Q385 102 417 85T523 53V0H68ZM618 1097Q606 1078 597 1065T570 1045L294 1298L20
1045Q4 1052 -7 1065T-32 1097L237 1479H354L618 1097Z" />
<glyph unicode="&#xef;" glyph-name="idieresis" horiz-adv-x="575" d="M68 0V53Q205 81 205 114V663Q205 731 200 765T167 812T68 833V883Q138 895 211 915T341 960H385V114Q385 102 417 85T523 53V0H68ZM204 1263Q204 1201 166 1157T74 1113Q-21 1113 -21 1218Q-21
1280 17 1323T107 1367Q204 1367 204 1263ZM611 1263Q611 1201 574 1157T482 1113Q386 1113 386 1218Q386 1280 424 1323T515 1367Q611 1367 611 1263Z" />
<glyph unicode="&#xf0;" glyph-name="eth" horiz-adv-x="1029" d="M950 597Q950 424 904 304T786 111T639 4T504 -30Q370 -30 274 32T127 201T75 444Q75 543 109 635T204 801T342 917T506 960Q566 960 628 927T738 843Q712 936 667 1012T555 1159L334 1065Q297
1068 282 1070T232 1083L221 1122L479 1233Q424 1278 357 1305T205 1320L197 1371L420 1450Q475 1413 527 1374T622 1295L823 1381Q870 1374 886 1371T928 1359L935 1322L696 1220Q832 1072 891 914T950 597ZM770 595Q746 670 698 725T591 812T480 843Q371 843
316 741T260 478Q260 373 299 284T397 140T514 85Q624 85 697 197T770 556Q770 559 770 575T770 595Z" />
<glyph unicode="&#xf1;" glyph-name="ntilde" horiz-adv-x="1150" d="M668 0V53Q805 89 805 114V618Q805 736 778 774T685 813Q628 813 548 762T370 579V114Q370 99 406 83T508 53V0H53V53Q119 70 154 84T190 114V704Q190 756 184 780T148 815T53 833V883Q129
893 192 912T318 960L355 923L366 709Q463 831 574 895T764 960Q850 960 917 905T985 729V114Q985 101 1014 87T1123 53V0H668ZM943 1349Q919 1295 883 1240T798 1147T693 1109Q646 1109 604 1136T523 1191T444 1219Q406 1219 373 1186T304 1097L241 1121Q264 1175
300 1231T385 1324T490 1362Q542 1362 585 1334T665 1279T736 1251Q773 1251 809 1284T879 1376L943 1349Z" />
<glyph unicode="&#xf2;" glyph-name="ograve" horiz-adv-x="1045" d="M970 485Q970 385 933 293T831 128T682 13T504 -30Q374 -30 278 32T128 201T75 444Q75 543 110 635T210 801T359 917T543 960Q672 960 768 898T917 729T970 485ZM783 450Q783 556 744 645T644
790T514 845Q418 845 364 796T286 663T263 473Q263 368 304 280T408 138T532 85Q666 85 724 183T783 450ZM662 1081Q649 1069 631 1060T596 1045L234 1422L258 1468Q271 1471 306 1477T377 1490T429 1497L662 1081Z" />
<glyph unicode="&#xf3;" glyph-name="oacute" horiz-adv-x="1045" d="M970 485Q970 385 933 293T831 128T682 13T504 -30Q374 -30 278 32T128 201T75 444Q75 543 110 635T210 801T359 917T543 960Q672 960 768 898T917 729T970 485ZM783 450Q783 556 744 645T644
790T514 845Q418 845 364 796T286 663T263 473Q263 368 304 280T408 138T532 85Q666 85 724 183T783 450ZM494 1045Q476 1048 457 1058T427 1078L654 1497Q669 1496 704 1491T775 1479T826 1469L852 1425L494 1045Z" />
<glyph unicode="&#xf4;" glyph-name="ocircumflex" horiz-adv-x="1045" d="M970 485Q970 385 933 293T831 128T682 13T504 -30Q374 -30 278 32T128 201T75 444Q75 543 110 635T210 801T359 917T543 960Q672 960 768 898T917 729T970 485ZM783 450Q783 556 744
645T644 790T514 845Q418 845 364 796T286 663T263 473Q263 368 304 280T408 138T532 85Q666 85 724 183T783 450ZM866 1097Q854 1078 845 1065T818 1045L542 1298L268 1045Q252 1052 241 1065T216 1097L485 1479H602L866 1097Z" />
<glyph unicode="&#xf5;" glyph-name="otilde" horiz-adv-x="1045" d="M970 485Q970 385 933 293T831 128T682 13T504 -30Q374 -30 278 32T128 201T75 444Q75 543 110 635T210 801T359 917T543 960Q672 960 768 898T917 729T970 485ZM783 450Q783 556 744 645T644
790T514 845Q418 845 364 796T286 663T263 473Q263 368 304 280T408 138T532 85Q666 85 724 183T783 450ZM899 1349Q875 1295 839 1240T754 1147T649 1109Q602 1109 560 1136T479 1191T400 1219Q362 1219 329 1186T260 1097L197 1121Q220 1175 256 1231T341 1324T446
1362Q498 1362 541 1334T621 1279T692 1251Q729 1251 765 1284T835 1376L899 1349Z" />
<glyph unicode="&#xf6;" glyph-name="odieresis" horiz-adv-x="1045" d="M970 485Q970 385 933 293T831 128T682 13T504 -30Q374 -30 278 32T128 201T75 444Q75 543 110 635T210 801T359 917T543 960Q672 960 768 898T917 729T970 485ZM783 450Q783 556 744 645T644
790T514 845Q418 845 364 796T286 663T263 473Q263 368 304 280T408 138T532 85Q666 85 724 183T783 450ZM452 1263Q452 1201 414 1157T322 1113Q227 1113 227 1218Q227 1280 265 1323T355 1367Q452 1367 452 1263ZM859 1263Q859 1201 822 1157T730 1113Q634 1113
634 1218Q634 1280 672 1323T763 1367Q859 1367 859 1263Z" />
<glyph unicode="&#xf7;" glyph-name="divide" horiz-adv-x="848" d="M789 596Q784 576 773 547T753 502H86L58 528Q64 549 74 576T94 623H762L789 596ZM512 828Q512 780 483 744T411 708Q337 708 337 793Q337 843 366 877T438 912Q512 912 512 828ZM512 335Q512
286 483 251T411 215Q337 215 337 300Q337 349 366 383T438 418Q512 418 512 335Z" />
<glyph unicode="&#xf8;" glyph-name="oslash" horiz-adv-x="1045" d="M970 485Q970 385 933 293T831 128T682 13T504 -30Q436 -30 376 -12T267 40L249 17Q231 2 186 -21T114 -53L86 -21L187 112Q134 175 105 260T75 444Q75 543 110 635T210 801T359 917T543 960Q611
960 671 942T780 889L799 914Q826 931 864 953T932 983L963 951L860 816Q912 754 941 669T970 485ZM310 272L678 756Q643 797 600 821T514 845Q418 845 363 796T285 663T261 473Q261 420 274 368T310 272ZM532 85Q666 85 725 183T785 450Q785 505 772 558T737 656L371
176Q407 134 449 110T532 85Z" />
<glyph unicode="&#xf9;" glyph-name="ugrave" horiz-adv-x="1108" d="M1094 92Q1021 44 949 7T853 -30Q817 -30 793 11T760 156Q677 77 614 37T501 -16T408 -30Q346 -30 291 -5T200 87T165 279V704Q165 767 159 795T126 832T39 847V897Q120 906 181 920T315 960L345
919V337Q345 202 382 155T486 108Q543 108 608 142T760 262V704Q760 764 751 793T713 833T623 847V897Q704 906 775 923T908 960L940 919V264Q940 142 963 124Q974 116 1001 120T1079 147L1094 92ZM675 1081Q662 1069 644 1060T609 1045L247 1422L271 1468Q284
1471 319 1477T390 1490T442 1497L675 1081Z" />
<glyph unicode="&#xfa;" glyph-name="uacute" horiz-adv-x="1108" d="M1094 92Q1021 44 949 7T853 -30Q817 -30 793 11T760 156Q677 77 614 37T501 -16T408 -30Q346 -30 291 -5T200 87T165 279V704Q165 767 159 795T126 832T39 847V897Q120 906 181 920T315 960L345
919V337Q345 202 382 155T486 108Q543 108 608 142T760 262V704Q760 764 751 793T713 833T623 847V897Q704 906 775 923T908 960L940 919V264Q940 142 963 124Q974 116 1001 120T1079 147L1094 92ZM507 1045Q489 1048 470 1058T440 1078L667 1497Q682 1496 717
1491T788 1479T839 1469L865 1425L507 1045Z" />
<glyph unicode="&#xfb;" glyph-name="ucircumflex" horiz-adv-x="1108" d="M1094 92Q1021 44 949 7T853 -30Q817 -30 793 11T760 156Q677 77 614 37T501 -16T408 -30Q346 -30 291 -5T200 87T165 279V704Q165 767 159 795T126 832T39 847V897Q120 906 181 920T315
960L345 919V337Q345 202 382 155T486 108Q543 108 608 142T760 262V704Q760 764 751 793T713 833T623 847V897Q704 906 775 923T908 960L940 919V264Q940 142 963 124Q974 116 1001 120T1079 147L1094 92ZM879 1097Q867 1078 858 1065T831 1045L555 1298L281 1045Q265
1052 254 1065T229 1097L498 1479H615L879 1097Z" />
<glyph unicode="&#xfc;" glyph-name="udieresis" horiz-adv-x="1108" d="M1094 92Q1021 44 949 7T853 -30Q817 -30 793 11T760 156Q677 77 614 37T501 -16T408 -30Q346 -30 291 -5T200 87T165 279V704Q165 767 159 795T126 832T39 847V897Q120 906 181 920T315
960L345 919V337Q345 202 382 155T486 108Q543 108 608 142T760 262V704Q760 764 751 793T713 833T623 847V897Q704 906 775 923T908 960L940 919V264Q940 142 963 124Q974 116 1001 120T1079 147L1094 92ZM465 1263Q465 1201 427 1157T335 1113Q240 1113 240 1218Q240
1280 278 1323T368 1367Q465 1367 465 1263ZM872 1263Q872 1201 835 1157T743 1113Q647 1113 647 1218Q647 1280 685 1323T776 1367Q872 1367 872 1263Z" />
<glyph unicode="&#xfd;" glyph-name="yacute" horiz-adv-x="1020" d="M1002 877Q942 863 922 851T892 810L558 -79Q474 -301 358 -399T132 -497Q56 -497 2 -478T-52 -439Q-52 -430 -29 -399T24 -335T75 -289Q123 -319 171 -322T258 -312Q294 -300 344 -239T430
-92L459 -23L129 809Q118 837 93 851T18 877V930H426V877Q351 867 330 855T321 809L553 217L773 809Q784 840 763 853T670 877V930H1002V877ZM486 1045Q468 1048 449 1058T419 1078L646 1497Q661 1496 696 1491T767 1479T818 1469L844 1425L486 1045Z" />
<glyph unicode="&#xfe;" glyph-name="thorn" horiz-adv-x="1105" d="M1030 497Q1030 406 996 313T902 143T768 18T611 -30Q572 -30 509 -7T370 75V-365Q370 -381 408 -397T540 -427V-480H53V-427Q119 -411 154 -397T190 -365V1287Q190 1347 179 1372T139 1406T53
1420V1470Q138 1484 202 1501T331 1550L370 1513V754Q476 868 564 914T710 960Q847 960 938 839T1030 497ZM865 415Q865 544 831 634T743 772T626 820Q590 820 524 782T370 633V218Q455 158 521 132T651 105Q719 105 767 148T840 262T865 415Z" />
<glyph unicode="&#xff;" glyph-name="ydieresis" horiz-adv-x="1020" d="M1002 877Q942 863 922 851T892 810L558 -79Q474 -301 358 -399T132 -497Q56 -497 2 -478T-52 -439Q-52 -430 -29 -399T24 -335T75 -289Q123 -319 171 -322T258 -312Q294 -300 344 -239T430
-92L459 -23L129 809Q118 837 93 851T18 877V930H426V877Q351 867 330 855T321 809L553 217L773 809Q784 840 763 853T670 877V930H1002V877ZM444 1263Q444 1201 406 1157T314 1113Q219 1113 219 1218Q219 1280 257 1323T347 1367Q444 1367 444 1263ZM851 1263Q851
1201 814 1157T722 1113Q626 1113 626 1218Q626 1280 664 1323T755 1367Q851 1367 851 1263Z" />
<glyph unicode="&#x2013;" glyph-name="endash" horiz-adv-x="971" d="M913 549Q908 527 897 497T878 450H86L58 477Q64 498 74 527T94 575H887L913 549Z" />
<glyph unicode="&#x2014;" glyph-name="emdash" horiz-adv-x="1594" d="M1536 549Q1531 527 1520 497T1501 450H86L58 477Q64 498 74 527T94 575H1509L1536 549Z" />
<glyph unicode="&#x2018;" glyph-name="quoteleft" horiz-adv-x="489" d="M407 1021Q397 1009 366 992T295 960T219 934T166 926Q126 958 106 997T86 1098Q86 1157 113 1223T188 1349T301 1450L352 1410Q311 1365 290 1304T268 1193Q268 1145 298 1112T391 1076L407
1021Z" />
<glyph unicode="&#x2019;" glyph-name="quoteright" horiz-adv-x="490" d="M397 1311Q397 1251 370 1185T295 1059T183 958L131 997Q172 1043 193 1104T215 1214Q215 1262 185 1296T94 1333L78 1388Q86 1400 117 1416T189 1448T265 1474T319 1483Q357 1450 377
1411T397 1311Z" />
<glyph unicode="&#x201a;" glyph-name="quotesinglbase" horiz-adv-x="490" d="M403 53Q403 -6 376 -72T301 -199T189 -300L137 -261Q177 -215 199 -154T221 -44Q221 5 191 39T99 76L83 131Q92 142 123 158T195 191T270 217T324 226Q362 192 382 153T403 53Z" />
<glyph unicode="&#x201c;" glyph-name="quotedblleft" horiz-adv-x="933" d="M850 1021Q840 1009 809 992T737 960T662 934T609 926Q570 958 550 997T529 1098Q529 1157 556 1223T631 1349T744 1450L795 1410Q753 1365 732 1304T711 1193Q711 1145 741 1112T833
1076L850 1021ZM408 1021Q399 1009 368 992T296 960T221 934T167 926Q127 958 107 997T87 1098Q87 1157 114 1223T189 1349T303 1450L353 1410Q312 1365 291 1304T269 1193Q269 1145 299 1112T392 1076L408 1021Z" />
<glyph unicode="&#x201d;" glyph-name="quotedblright" horiz-adv-x="933" d="M844 1279Q844 1220 817 1154T742 1027T630 926L580 966Q619 1011 641 1073T664 1183Q664 1231 633 1265T541 1302L525 1357Q533 1369 564 1385T636 1417T712 1443T766 1452Q804 1419
824 1379T844 1279ZM403 1279Q403 1220 376 1154T301 1027T189 926L137 966Q177 1011 199 1073T221 1183Q221 1231 191 1265T99 1302L83 1357Q92 1369 123 1385T195 1417T270 1443T324 1452Q362 1419 382 1379T403 1279Z" />
<glyph unicode="&#x201e;" glyph-name="quotedblbase" horiz-adv-x="953" d="M844 53Q844 -6 817 -72T742 -199T630 -300L580 -261Q619 -215 641 -154T664 -44Q664 5 633 39T541 76L525 131Q533 142 564 158T636 191T712 217T766 226Q804 192 824 153T844 53ZM403
53Q403 -6 376 -72T301 -199T189 -300L137 -261Q177 -215 199 -154T221 -44Q221 5 191 39T99 76L83 131Q92 142 123 158T195 191T270 217T324 226Q362 192 382 153T403 53Z" />
<glyph unicode="&#x2022;" glyph-name="bullet" horiz-adv-x="569" d="M498 662Q498 541 432 465T260 389Q165 389 118 452T70 612Q70 732 139 808T309 885Q400 885 449 823T498 662Z" />
<glyph unicode="&#x2039;" glyph-name="guilsinglleft" horiz-adv-x="632" d="M449 12L75 430Q75 430 75 447T75 483T77 503L449 918L496 883Q496 883 474 841T418 737T352 612T297 508T276 467L497 47L449 12Z" />
<glyph unicode="&#x203a;" glyph-name="guilsinglright" horiz-adv-x="632" d="M556 429L183 12L135 47L356 466L136 883L183 918L555 502L556 429Z" />
</font>
</defs>
</svg>
