<?xml version="1.0" standalone="no"?>
<!DOCTYPE svg PUBLIC "-//W3C//DTD SVG 1.1//EN" "http://www.w3.org/Graphics/SVG/1.1/DTD/svg11.dtd">
<svg xmlns="http://www.w3.org/2000/svg">
<defs >
<font id="Baloo2" horiz-adv-x="456" ><font-face
    font-family="Baloo 2"
    units-per-em="1000"
    panose-1="0 0 0 0 0 0 0 0 0 0"
    ascent="1078"
    descent="-524"
    alphabetic="0" />
<glyph unicode=" " horiz-adv-x="200" />
<glyph unicode="!" horiz-adv-x="250" d="M164 582Q164 552 164 504T162 399T158 287T154 187Q148 183 140 180T121 177Q107 177 98 183T88 202Q86 231 84 282T81 393T80 512T79 612Q100 625 124 625Q143 625 153 615T164 582ZM66 45Q66 69 81 85T122 101Q148
101 163 85T178 45Q178 21 163 5T122 -11Q96 -11 81 5T66 45Z" />
<glyph unicode="&quot;" horiz-adv-x="270" d="M101 418Q94 415 87 414T70 412Q55 412 47 419T37 441L31 615Q49 625 70 625Q88 625 97 616T107 586Q107 569 106 538T104 475T101 418ZM234 418Q227 415 219 414T202 412Q186 412 179 419T170 441L163 615Q172 620
181 622T203 625Q221 625 230 616T239 585Q239 569 238 538T236 475T234 418Z" />
<glyph unicode="#" horiz-adv-x="667" d="M566 162H49Q47 168 45 175T43 191Q43 208 51 216T76 224H594Q596 218 598 211T600 194Q600 178 592 170T566 162ZM596 396H79Q77 402 75 409T72 425Q72 442 81 450T106 458H624Q626 452 628 445T630 428Q630 412 622
404T596 396ZM307 532L195 -3Q190 -4 184 -4T170 -5Q154 -5 145 3T135 27Q135 37 138 51T144 76L256 611Q261 612 268 612T281 613Q297 613 306 606T316 581Q316 571 313 557T307 532ZM523 532L411 -3Q406 -4 400 -4T386 -5Q370 -5 361 3T351 27Q351 37 354 51T359
76L472 611Q477 612 484 612T497 613Q513 613 522 606T532 581Q532 571 529 557T523 532Z" />
<glyph unicode="$" horiz-adv-x="522" d="M221 25H294V-89Q290 -90 282 -92T262 -94Q243 -94 232 -86T221 -61V25ZM294 568H221V697Q226 699 235 700T254 702Q274 702 284 694T294 669V568ZM257 55Q324 55 358 85T393 164Q393 205 367 232T283 275L196 301Q154
314 123 334T76 385T59 457Q59 534 115 577T264 621Q318 621 360 610T427 580T452 542Q452 529 445 519T427 502Q402 522 360 537T267 552Q209 552 175 527T141 457Q141 422 165 400T245 362L306 344Q385 322 430 280T476 164Q476 85 419 36T257 -13Q196 -13 151
0T80 34T54 75Q54 92 64 103T89 120Q112 98 154 77T257 55Z" />
<glyph unicode="%" horiz-adv-x="772" d="M335 474Q335 409 294 371T194 332Q135 332 94 370T53 474Q53 539 94 577T194 616Q253 616 294 578T335 474ZM124 474Q124 435 143 414T194 392Q225 392 244 413T264 474Q264 513 245 534T194 556Q163 556 144 535T124
474ZM186 65L554 616Q577 613 590 605T604 582Q604 572 600 563T588 542L221 -7Q199 -5 185 5T171 28Q171 36 175 45T186 65ZM719 135Q719 69 678 31T578 -8Q520 -8 479 30T437 135Q437 200 478 238T578 276Q637 276 678 238T719 135ZM508 135Q508 95 527 74T578
52Q609 52 628 73T648 135Q648 173 629 194T578 216Q547 216 528 195T508 135Z" />
<glyph unicode="&amp;" horiz-adv-x="637" d="M509 102L480 68Q446 31 397 8T279 -15Q210 -15 159 10T79 80T50 187Q50 238 70 276T126 341T204 378L239 319Q212 313 188 297T147 253T131 186Q131 126 170 90T280 53Q318 53 358 69T433 124L455 156Q473 189 483
239T494 353Q503 357 512 359T531 362Q551 362 561 351T571 317Q571 261 555 202T509 102ZM565 -14Q545 -14 525 9L219 329L194 357Q163 389 148 419T133 485Q133 526 151 556T205 604T292 621Q345 621 372 606T400 568Q400 556 394 547T379 532Q363 541 342 547T297
553Q259 553 237 535T215 484Q215 453 231 429T277 374L609 29Q606 9 595 -2T565 -14Z" />
<glyph unicode="&apos;" horiz-adv-x="139" d="M103 418Q96 416 88 414T70 412Q55 412 47 419T37 441L31 615Q39 620 48 622T71 625Q90 625 99 616T109 585Q109 568 108 538T106 475T103 418Z" />
<glyph unicode="(" horiz-adv-x="254" d="M204 -116Q188 -116 175 -105T148 -73Q103 -9 79 76T55 274Q55 385 83 472T148 615Q161 635 174 646T204 657Q218 657 228 649T244 629Q190 560 161 471T131 274Q131 167 157 81T244 -87Q239 -99 229 -107T204 -116Z" />
<glyph unicode=")" horiz-adv-x="254" d="M50 -116Q36 -116 26 -108T10 -87Q70 -5 96 81T123 274Q123 381 94 470T10 629Q15 641 25 649T50 657Q66 657 79 646T106 615Q143 560 171 473T199 274Q199 162 175 77T106 -73Q93 -93 80 -104T50 -116Z" />
<glyph unicode="*" horiz-adv-x="299" d="M146 535L168 478L23 526Q20 537 20 547Q20 561 28 570T50 579Q55 579 60 577T71 573L146 535ZM181 510L100 391Q96 390 93 390T87 390Q68 390 59 398T49 419Q49 427 52 434T61 446L113 504L181 510ZM135 490L162 536L258
421Q256 408 246 399T223 390Q212 390 203 398T187 416L135 490ZM124 515L254 588Q263 584 271 575T279 553Q279 541 272 535T254 524L170 484L124 515ZM176 520L126 492L121 640Q126 643 134 646T152 649Q165 649 173 643T182 623Q182 617 181 596T178 553T176
520Z" />
<glyph unicode="+" horiz-adv-x="548" d="M462 266H58Q55 273 53 280T51 298Q51 315 60 323T86 332H490Q492 326 494 318T497 301Q497 285 488 276T462 266ZM312 488V73Q305 70 297 68T278 66Q258 66 249 75T239 106V521Q247 524 255 526T276 528Q295 528 303
519T312 488Z" />
<glyph unicode="," horiz-adv-x="145" d="M68 -94Q52 -121 29 -121Q7 -121 -7 -104Q2 -78 13 -43T35 30T50 94Q58 98 67 100T88 103Q106 103 116 95T126 66Q126 44 116 12T91 -50T68 -94Z" />
<glyph unicode="-" horiz-adv-x="389" d="M300 228H61Q58 235 56 242T54 260Q54 277 63 285T89 294H328Q330 288 332 280T335 263Q335 247 326 238T300 228Z" />
<glyph unicode="." horiz-adv-x="141" d="M16 42Q16 66 30 82T71 98Q97 98 111 82T125 42Q125 19 111 3T71 -13Q45 -13 31 3T16 42Z" />
<glyph unicode="/" horiz-adv-x="305" d="M274 621L89 -105Q83 -106 77 -106T63 -107Q44 -107 34 -98T24 -71Q24 -60 28 -45T34 -21L218 705Q225 706 231 706T244 707Q261 707 272 699T283 671Q283 660 280 647T274 621Z" />
<glyph unicode="0" horiz-adv-x="583" d="M447 304Q447 393 426 447T369 527T291 552Q249 552 214 527T157 446T136 304Q136 184 177 120T291 55Q365 55 406 119T447 304ZM291 -13Q221 -13 168 21T84 126T54 304Q54 419 88 488T176 588T291 620Q353 620 407 588T495
487T529 304Q529 198 499 128T416 22T291 -13Z" />
<glyph unicode="1" horiz-adv-x="357" d="M254 224H173V530L45 470Q32 475 24 485T15 510Q15 539 51 554L191 615H210Q230 615 242 603T254 571V224ZM173 264H254V-1Q248 -3 238 -5T216 -8Q195 -8 184 1T173 29V264Z" />
<glyph unicode="2" horiz-adv-x="508" d="M57 545Q57 563 80 580T142 609T227 620Q291 620 337 599T408 538T433 446Q433 391 403 338T298 217L135 66H432Q436 62 439 54T442 34Q442 18 434 9T411 0H58Q48 7 43 17T38 40Q38 56 44 68T62 92L242 265Q304 323 327
362T350 445Q350 492 318 522T221 552Q177 552 143 537T85 505Q74 510 66 520T57 545Z" />
<glyph unicode="3" horiz-adv-x="506" d="M217 621Q312 621 370 580T429 455Q429 415 413 387T374 342T333 321Q360 313 386 294T429 244T447 170Q447 110 418 70T338 10T220 -11Q165 -11 123 0T56 30T32 68Q32 82 39 92T59 109Q85 89 122 73T220 57Q286 57 327
85T368 172Q368 223 330 254T220 285H137Q133 290 130 299T127 319Q127 330 130 339T137 353H213Q287 353 318 380T350 453Q350 502 314 527T216 553Q168 553 132 539T71 507Q61 512 53 523T45 547Q45 565 68 582T130 610T217 621Z" />
<glyph unicode="4" horiz-adv-x="548" d="M32 223L323 609Q332 611 343 612T364 614Q378 614 390 610T411 596T419 565V215H519Q522 210 525 202T528 182Q528 166 520 157T497 148H419V-2Q414 -3 405 -5T384 -8Q363 -8 352 1T341 27V148H52Q42 153 35 166T27 195Q27
204 28 210T32 223ZM342 215L344 530H342L120 215H342Z" />
<glyph unicode="5" horiz-adv-x="538" d="M204 608L177 549L160 360Q177 369 207 377T272 386Q332 386 380 364T456 298T485 190Q485 132 459 86T382 14T258 -13Q201 -13 158 0T91 32T67 69Q67 85 77 97T99 113Q121 94 161 74T258 54Q327 54 365 92T403 190Q403
251 364 285T262 319Q227 319 198 308T144 283Q117 285 101 299T84 337Q84 343 84 352T86 371L103 562Q105 583 116 595T148 608H204ZM162 540V608H454Q457 604 460 595T463 576Q463 560 455 550T432 540H162Z" />
<glyph unicode="6" horiz-adv-x="550" d="M455 561Q455 549 449 539T432 523Q410 534 383 542T323 551Q245 551 192 495T135 320Q155 340 196 362T299 385Q387 385 444 335T501 187Q501 125 475 80T401 11T288 -13Q221 -13 168 17T85 113T54 285Q54 379 76 443T137
546T223 602T321 620Q356 620 386 613T436 593T455 561ZM288 54Q346 54 383 89T420 189Q420 254 383 285T290 317Q235 317 195 294T132 237L135 244Q135 159 175 107T288 54Z" />
<glyph unicode="7" horiz-adv-x="458" d="M55 608H415Q426 602 432 592T438 568Q438 558 436 548T427 526L176 -4Q170 -5 165 -5T153 -5Q134 -5 120 4T106 31Q106 43 111 54T123 81L349 540H33Q30 545 27 553T24 572Q24 589 32 598T55 608Z" />
<glyph unicode="8" horiz-adv-x="569" d="M212 328L272 338Q344 352 380 379T416 453Q416 500 381 526T285 553Q226 553 190 526T154 454Q154 416 174 393T229 359T305 343L349 328Q390 320 427 300T487 245T510 160Q510 106 482 67T403 8T285 -13Q217 -13 166
7T87 67T59 161Q59 210 81 244T139 300T212 328ZM350 307L282 293Q218 283 179 250T139 162Q139 111 178 83T285 54Q350 54 390 82T430 163Q430 221 382 255T252 294L201 309Q143 325 109 361T74 455Q74 506 100 543T174 600T285 620Q383 620 439 576T496 453Q496
390 454 354T350 307Z" />
<glyph unicode="9" horiz-adv-x="552" d="M82 49Q82 61 88 72T105 88Q124 77 154 67T227 56Q279 56 322 78T391 150T417 284Q408 274 388 260T336 234T264 223Q208 223 159 242T81 305T51 418Q51 481 79 526T155 596T262 620Q331 620 384 589T467 492T498 323Q498
201 464 127T370 20T228 -13Q168 -13 125 3T82 49ZM275 290Q326 290 365 315T418 372L417 361Q417 450 377 501T262 553Q207 553 170 518T132 420Q132 351 174 321T275 290Z" />
<glyph unicode=":" horiz-adv-x="189" d="M40 392Q40 416 54 432T94 448Q120 448 134 432T149 392Q149 368 135 353T94 337Q69 337 55 352T40 392ZM40 42Q40 66 54 82T94 98Q120 98 134 82T149 42Q149 19 135 3T94 -13Q68 -13 54 3T40 42Z" />
<glyph unicode=";" horiz-adv-x="202" d="M46 392Q46 416 60 432T100 448Q126 448 140 432T155 392Q155 368 141 353T100 337Q74 337 60 352T46 392ZM89 -94Q73 -121 50 -121Q28 -121 14 -104Q23 -78 34 -43T56 30T71 94Q79 98 88 100T109 103Q127 103 137 95T147
66Q147 44 137 12T112 -50T89 -94Z" />
<glyph unicode="&lt;" horiz-adv-x="473" d="M132 301L440 141Q441 136 441 132T441 123Q441 108 431 98T404 88Q397 88 388 91T369 101L64 267Q54 282 54 300Q54 315 59 324T71 338L405 509Q422 503 430 493T438 471Q438 455 428 445T402 425L132 301Z" />
<glyph unicode="=" horiz-adv-x="518" d="M431 363H58Q55 369 53 377T51 394Q51 411 60 419T86 428H460Q462 422 464 415T466 397Q466 381 457 372T431 363ZM431 161H58Q55 167 53 174T51 192Q51 209 60 217T86 226H460Q462 220 464 212T466 195Q466 179 457 170T431
161Z" />
<glyph unicode="&gt;" horiz-adv-x="460" d="M331 302L33 459Q32 464 32 468T32 477Q32 491 42 501T68 512Q76 512 84 509T103 500L399 334Q409 319 409 300Q409 285 405 276T392 262L68 92Q51 97 43 107T35 130Q35 146 45 156T71 175L331 302Z" />
<glyph unicode="?" horiz-adv-x="459" d="M213 224L115 200Q106 209 101 220T95 244Q95 258 103 267T131 281L200 299Q266 316 301 349T337 437Q337 485 303 519T195 554Q155 554 115 542T50 509Q39 517 33 528T27 552Q27 581 75 603T198 625Q264 625 314 601T392
535T420 438Q420 354 369 302T213 224ZM104 45Q104 69 119 85T160 102Q186 102 201 86T217 45Q217 21 202 5T160 -11Q135 -11 120 5T104 45Z" />
<glyph unicode="@" horiz-adv-x="1000" d="M380 200Q380 136 412 101T503 66Q538 66 566 81T620 127L632 53Q611 31 577 16T492 0Q405 0 352 53T298 200Q298 272 327 323T407 402T528 429Q563 429 596 421T652 401Q693 381 693 352Q693 345 693 337T691 322L665
60H586L614 344Q598 352 575 357T523 363Q459 363 420 321T380 200ZM608 37Q613 52 619 64T633 84T650 91Q662 81 680 71T726 61Q791 61 824 118T857 267Q857 362 815 434T697 546T516 587Q400 587 314 539T181 405T134 204Q134 95 178 14T301 -111T486 -156Q524
-156 553 -152T602 -141Q608 -147 611 -155T615 -172Q615 -187 603 -198T561 -215T480 -221Q404 -221 339 -202T221 -147T131 -58T75 60T55 204Q55 305 87 387T180 529T325 620T515 652Q613 652 691 625T823 546T907 424T936 266Q936 137 883 66T726 -5Q695 -5
664 6T608 37Z" />
<glyph unicode="A" horiz-adv-x="592" d="M298 545H294Q279 503 259 445T217 326T176 211L171 196Q165 178 156 151T137 95T118 40T104 -2Q97 -5 90 -6T71 -8Q55 -8 43 0T30 28Q30 37 33 46T40 67Q52 101 69 150T108 257T152 376T197 495T238 601Q246 605 262
609T295 613Q315 613 333 607T357 587Q381 529 408 456T464 303T517 148T563 12Q556 3 545 -2T519 -8Q500 -8 490 0T473 29L418 192L410 220Q390 281 369 343T329 458T298 545ZM132 162L158 229H437L453 162H132Z" />
<glyph unicode="B" horiz-adv-x="599" d="M420 349V283H145V349H420ZM305 283L337 333Q405 333 450 311T517 251T540 168Q540 77 475 33T288 -11Q261 -11 234 -10T181 -4T131 6Q89 18 89 52V564Q89 580 97 589T122 602Q156 612 194 615T277 619Q390 619 453 579T516
455Q516 413 496 378T430 321T308 299L299 349Q365 349 399 376T433 453Q433 503 394 527T277 552Q243 552 217 550T169 543V67Q193 62 224 59T288 56Q371 56 414 84T457 170Q457 222 419 252T305 283Z" />
<glyph unicode="C" horiz-adv-x="588" d="M533 541Q533 528 525 518T505 502Q480 520 445 536T353 552Q292 552 244 524T167 441T138 303Q138 180 198 118T356 56Q408 56 447 71T511 105Q521 101 530 91T539 66Q539 56 534 47T515 28Q492 12 452 0T350 -13Q267
-13 200 22T93 128T54 303Q54 408 94 479T201 585T347 621Q402 621 444 609T509 579T533 541Z" />
<glyph unicode="D" horiz-adv-x="652" d="M515 311Q515 186 455 122T278 57Q249 57 222 59T170 67V543Q190 547 214 549T269 551Q337 551 392 527T481 450T515 311ZM598 311Q598 414 557 482T442 584T270 619Q231 619 192 616T122 603Q106 598 98 590T89 565V51Q89
18 131 5Q167 -6 207 -8T279 -11Q376 -11 447 24T558 130T598 311Z" />
<glyph unicode="E" horiz-adv-x="531" d="M89 366H170V8Q166 7 155 4T133 0Q113 0 101 12T89 44V366ZM170 248L89 249V564Q89 584 101 596T133 608Q144 608 155 605T170 600V248ZM133 278V346H434Q437 342 440 333T443 314Q443 298 435 288T412 278H133ZM133 0V68H470Q473
64 476 56T479 36Q479 20 471 10T448 0H133ZM133 539V608H465Q468 604 471 595T474 576Q474 560 466 550T443 539H133Z" />
<glyph unicode="F" horiz-adv-x="517" d="M170 246L89 247V564Q89 584 101 596T133 608Q144 608 155 605T170 600V246ZM133 262V331H430Q433 326 436 318T439 299Q439 283 431 273T408 262H133ZM133 539V608H465Q468 604 471 595T474 576Q474 560 466 550T443
539H133ZM89 356H171V1Q166 0 156 -2T134 -5Q112 -5 101 4T89 31V356Z" />
<glyph unicode="G" horiz-adv-x="639" d="M570 287V70Q570 52 560 40T528 17Q503 4 459 -4T370 -13Q277 -13 206 21T94 125T54 303Q54 410 95 480T206 586T357 621Q414 621 457 609T524 579T548 542Q548 529 540 519T521 503Q494 521 457 536T362 552Q299 552
248 524T168 441T138 303Q138 217 168 163T252 82T371 56Q407 56 439 62T489 77V261H338Q335 266 332 274T329 293Q329 310 337 319T360 329H527Q545 329 557 318T570 287Z" />
<glyph unicode="H" horiz-adv-x="654" d="M89 362H171V2Q165 0 155 -2T133 -5Q111 -5 100 4T89 32V362ZM171 295H89V606Q94 608 104 610T127 613Q149 613 160 605T171 576V295ZM483 362H565V2Q559 0 549 -2T527 -5Q505 -5 494 4T483 32V362ZM565 295H483V606Q488
608 498 610T521 613Q543 613 554 605T565 576V295ZM526 274H138V342H526V274Z" />
<glyph unicode="I" horiz-adv-x="262" d="M90 363H171V2Q166 0 156 -2T134 -5Q112 -5 101 4T90 32V363ZM171 296H90V606Q95 608 105 610T128 613Q150 613 160 605T171 576V296Z" />
<glyph unicode="J" horiz-adv-x="385" d="M215 289H296V148Q296 88 274 53T214 4T134 -11Q78 -11 52 2T25 38Q25 52 31 62T42 77Q57 70 78 64T122 58Q167 58 191 80T215 152V289ZM296 265H215V606Q220 608 230 610T252 613Q274 613 285 605T296 576V265Z" />
<glyph unicode="K" horiz-adv-x="566" d="M152 310L215 350Q321 248 397 168T527 40Q526 18 514 6T484 -7Q467 -7 454 3T426 26L152 310ZM226 282L145 300L446 612Q472 611 485 599T498 571Q498 558 492 547T471 523L226 282ZM89 367H171V1Q165 -1 155 -3T133
-6Q111 -6 100 3T89 31V367ZM171 300H89V606Q94 608 104 610T127 613Q149 613 160 605T171 576V300Z" />
<glyph unicode="L" horiz-adv-x="501" d="M89 355H171V8L133 0Q114 0 102 12T89 44V355ZM133 0V70H458Q463 66 466 57T469 37Q469 20 460 10T436 0H133ZM171 295H89V606Q94 608 104 610T127 613Q149 613 160 605T171 576V295Z" />
<glyph unicode="M" horiz-adv-x="780" d="M435 158Q428 153 417 149T391 145Q375 145 363 150T345 166Q292 278 253 371T189 525H185Q182 450 179 385T171 260T164 136T155 0Q149 -2 140 -4T119 -6Q97 -6 88 3T79 29Q79 41 81 84T87 191T96 325T106 466T117 592Q125
599 140 605T174 611Q197 611 213 602T238 574Q264 523 290 463T341 343T389 230H393Q437 336 480 434T554 601Q563 606 577 608T603 611Q626 611 639 604T657 579Q661 562 666 521T676 425T685 308T694 188T701 82T706 6Q697 0 687 -3T664 -6Q649 -6 638 1T624
29Q618 126 613 220T603 394T596 523H592Q570 468 532 382T435 158Z" />
<glyph unicode="N" horiz-adv-x="660" d="M89 539L157 545Q161 514 164 472T168 386T170 301V2Q165 0 155 -2T133 -5Q111 -5 100 3T89 31V539ZM571 69L502 63Q492 147 491 234T489 404V606Q495 608 505 610T527 613Q549 613 560 605T571 577V69ZM571 99V11Q562
4 548 -1T517 -6Q493 -6 476 3T445 38L255 358Q240 385 222 417T188 479T163 528L89 509V596Q97 604 111 609T143 614Q167 614 184 605T215 570L406 250Q422 223 439 191T472 129T496 80L571 99Z" />
<glyph unicode="O" horiz-adv-x="689" d="M634 304Q634 200 596 130T493 23T344 -13Q262 -13 196 23T92 129T54 304Q54 408 93 478T197 585T344 621Q426 621 491 585T595 479T634 304ZM551 304Q551 423 495 487T344 552Q251 552 195 488T138 304Q138 185 194 121T344
56Q439 56 495 120T551 304Z" />
<glyph unicode="P" horiz-adv-x="567" d="M170 285H267Q347 285 391 318T435 420Q435 488 393 519T271 551Q244 551 218 549T170 542V285ZM272 217H89V564Q89 580 97 588T122 602Q151 611 192 615T273 619Q400 619 458 566T517 421Q517 359 491 313T410 242T272
217ZM89 256H171V2Q165 0 155 -2T133 -5Q111 -5 100 4T89 32V256Z" />
<glyph unicode="Q" horiz-adv-x="690" d="M330 0L407 24Q470 -12 512 -33T587 -68T658 -96Q660 -103 660 -107T660 -116Q660 -135 649 -146T616 -158Q584 -158 532 -131T415 -58L330 0ZM634 304Q634 200 596 130T493 23T344 -13Q262 -13 196 23T92 129T54 304Q54
408 93 478T197 585T344 621Q426 621 491 585T595 479T634 304ZM551 304Q551 423 495 487T344 552Q251 552 195 488T138 304Q138 185 194 121T344 56Q439 56 495 120T551 304Z" />
<glyph unicode="R" horiz-adv-x="589" d="M170 298H285Q359 298 401 330T443 425Q443 487 399 519T273 551Q246 551 219 549T170 542V298ZM285 230H89V564Q89 580 97 588T122 602Q151 611 193 615T276 619Q401 619 463 568T525 425Q525 366 498 322T418 254T285
230ZM287 256L347 286Q375 251 405 213T463 139T513 75T547 30Q543 13 530 3T502 -7Q485 -7 474 1T451 26L287 256ZM89 252H171V2Q165 0 155 -2T133 -5Q111 -5 100 4T89 32V252Z" />
<glyph unicode="S" horiz-adv-x="523" d="M257 55Q324 55 358 85T393 164Q393 205 367 232T283 275L196 301Q154 314 123 334T76 385T59 457Q59 534 115 577T264 621Q318 621 360 610T427 580T452 542Q452 529 445 519T427 502Q402 522 360 537T267 552Q209 552
175 527T141 457Q141 422 165 400T245 362L306 344Q385 322 430 280T476 164Q476 85 419 36T257 -13Q196 -13 151 0T80 34T54 75Q54 92 64 103T89 120Q112 98 154 77T257 55Z" />
<glyph unicode="T" horiz-adv-x="523" d="M261 539L256 608H489Q492 604 495 595T498 576Q498 560 490 550T467 539H261ZM263 608L268 539H34Q31 544 28 553T25 572Q25 589 33 598T56 608H263ZM221 566H302V2Q297 0 287 -2T265 -5Q243 -5 232 4T221 32V566Z" />
<glyph unicode="U" horiz-adv-x="649" d="M324 -13Q249 -13 196 14T116 92T88 210V292H169V217Q169 137 213 97T324 56Q390 56 434 96T479 217V292H561V210Q561 143 534 93T453 15T324 -13ZM169 251H88V606Q93 608 103 610T126 613Q148 613 158 605T169 576V251ZM561
251H479V606Q484 608 494 610T517 613Q539 613 550 605T561 576V251Z" />
<glyph unicode="V" horiz-adv-x="583" d="M347 8Q342 4 328 0T297 -5Q278 -5 263 0T243 17Q227 48 206 100T160 216T111 348T67 479T31 592Q37 600 49 607T76 614Q95 614 104 605T119 578Q163 448 204 325T295 77H299Q328 153 359 241T420 424T473 607Q480 611
488 612T507 614Q525 614 536 605T547 578Q547 563 536 522T507 425T466 307T421 186T379 80T347 8Z" />
<glyph unicode="W" horiz-adv-x="803" d="M359 457Q367 461 379 464T404 467Q424 467 437 461T455 441Q480 369 500 308T539 189T577 70H581Q600 160 618 245T653 419T684 607Q698 614 718 614Q737 614 748 606T759 580Q759 561 754 523T739 433T717 324T690 209T662
100T635 11Q626 6 612 2T580 -3Q558 -3 543 4T523 23Q509 58 489 115T448 241T406 377Q387 311 365 240T323 108T286 10Q279 6 265 2T232 -3Q210 -3 196 4T176 23Q166 48 152 98T121 212T90 346T61 480T39 595Q46 602 58 608T84 614Q102 614 112 606T126 577Q139
514 151 455T175 336T202 211T233 70H237Q251 115 264 156T291 240T321 336T359 457Z" />
<glyph unicode="X" horiz-adv-x="591" d="M268 289L254 295L49 574Q54 591 66 602T97 614Q113 614 124 605T147 578L311 343L334 323L544 32Q540 15 529 4T498 -7Q482 -7 472 1T449 27L268 289ZM336 301L314 281L109 -5Q105 -6 100 -6T89 -7Q69 -7 57 3T45 29Q45
42 51 53T68 78L255 323L282 348L472 611Q477 612 482 612T493 613Q514 613 524 603T535 578Q535 568 530 557T516 535Q473 477 428 419T336 301Z" />
<glyph unicode="Y" horiz-adv-x="550" d="M314 218H243Q215 260 185 306T125 401T69 495T21 582Q25 593 36 603T65 614Q84 614 94 604T116 574Q132 546 153 509T198 431T241 355T277 295H281Q316 353 345 405T401 507T454 607Q460 611 469 612T485 614Q504 614
513 605T523 580Q523 570 508 538T464 457T398 347T314 218ZM238 257H319V2Q314 0 304 -2T282 -5Q260 -5 249 4T238 32V257Z" />
<glyph unicode="Z" horiz-adv-x="557" d="M71 88L451 608H483Q502 592 502 570Q502 556 497 545T481 520L102 0H69Q61 7 56 17T50 38Q50 52 55 63T71 88ZM90 0L93 69H499Q503 64 506 56T509 36Q509 20 501 10T478 0H90ZM464 608L462 539H67Q64 544 61 553T57 572Q57
589 65 598T89 608H464Z" />
<glyph unicode="[" horiz-adv-x="268" d="M69 -60V597H142V-60H69ZM69 -46H252Q254 -53 256 -60T258 -77Q258 -93 250 -101T224 -110H110Q90 -110 80 -99T69 -69V-46ZM110 651H252Q254 645 256 638T258 621Q258 605 250 597T224 588H69V611Q69 630 79 640T110 651Z" />
<glyph unicode="\" horiz-adv-x="341" d="M110 639L300 -46Q293 -53 281 -58T258 -64Q245 -64 236 -58T223 -38L33 647Q41 655 52 660T75 665Q88 665 97 659T110 639Z" />
<glyph unicode="]" horiz-adv-x="269" d="M199 602V-56H126V602H199ZM199 588H16Q14 594 12 601T10 618Q10 635 19 643T45 651H158Q178 651 188 641T199 611V588ZM158 -110H16Q14 -104 12 -97T10 -80Q10 -63 19 -55T45 -46H199V-69Q199 -88 189 -99T158 -110Z" />
<glyph unicode="^" horiz-adv-x="463" d="M194 646Q199 650 209 652T230 655Q260 655 267 641Q281 616 300 578T340 497T379 414T409 343Q404 336 394 330T372 324Q356 324 347 331T329 357L232 573H225Q221 564 209 538T181 475T150 402T123 332Q116 328 108
326T88 323Q75 323 65 330T54 353Q54 362 66 391T98 460T137 539T173 608T194 646Z" />
<glyph unicode="_" horiz-adv-x="465" d="M430 -123H6Q4 -117 2 -110T0 -92Q0 -75 9 -67T35 -58H458Q460 -64 462 -72T465 -89Q465 -105 456 -114T430 -123Z" />
<glyph unicode="`" horiz-adv-x="302" d="M153 534L59 634Q58 638 58 641T57 647Q57 663 68 673T95 683Q106 683 114 679T130 666L220 553Q219 537 210 528T187 518Q176 518 169 522T153 534Z" />
<glyph unicode="a" horiz-adv-x="499" d="M240 52Q282 52 309 60T349 77V222L225 209Q173 205 148 186T123 131Q123 94 152 73T240 52ZM239 475Q326 475 377 436T428 313V76Q428 54 420 43T394 21Q370 8 330 -3T240 -14Q146 -14 95 23T43 130Q43 195 86 229T207
271L349 285V313Q349 363 319 386T238 409Q197 409 160 397T93 370Q85 377 79 386T72 406Q72 432 101 446Q128 460 163 467T239 475Z" />
<glyph unicode="b" horiz-adv-x="549" d="M281 475Q343 475 392 449T470 368T499 231Q499 147 470 93T388 13T267 -13Q218 -13 179 -1T114 25Q93 39 85 51T77 84V417H157V84Q172 73 201 63T267 53Q335 53 376 96T418 231Q418 324 376 366T269 409Q229 409 198
394T147 358L132 423Q154 440 191 457T281 475ZM157 401H77V648Q82 650 92 652T115 655Q136 655 146 647T157 619V401Z" />
<glyph unicode="c" horiz-adv-x="478" d="M289 408Q221 408 176 362T131 230Q131 145 174 99T289 53Q331 53 359 64T409 91Q420 85 427 76T434 54Q434 26 393 7T289 -13Q220 -13 166 13T80 94T49 230Q49 311 81 365T167 447T287 475Q349 475 389 454T430 406Q430
394 423 385T405 371Q383 386 357 397T289 408Z" />
<glyph unicode="d" horiz-adv-x="547" d="M390 79V415L470 416V76Q470 57 462 46T435 23Q415 10 378 -1T293 -13Q221 -13 166 12T80 90T49 229Q49 316 79 370T162 449T276 475Q315 475 350 464T405 437V363Q386 382 356 395T284 409Q243 409 208 392T152 334T131
227Q131 136 175 95T292 53Q327 53 349 60T390 79ZM470 396L390 395V648Q395 650 405 652T427 655Q449 655 459 647T470 619V396Z" />
<glyph unicode="e" horiz-adv-x="519" d="M104 180L100 243L402 284Q398 339 364 374T270 410Q208 410 168 366T127 238V216Q134 136 179 95T304 53Q346 53 380 67T434 97Q445 90 451 81T458 59Q458 40 437 24T380 -3T300 -13Q223 -13 167 15T80 98T49 234Q49
291 65 335T111 411T182 458T271 475Q332 475 378 449T451 377T478 270Q478 248 468 239T440 227L104 180Z" />
<glyph unicode="f" horiz-adv-x="399" d="M142 371V436H354Q357 432 360 424T363 404Q363 388 355 380T332 371H142ZM156 499V382H77V503Q77 562 98 598T160 652T257 670Q314 670 346 655T379 618Q379 607 375 598T362 581Q344 591 317 597T265 604Q204 604 180
579T156 499ZM77 426H157V2Q152 0 142 -2T120 -5Q99 -5 88 3T77 31V426Z" />
<glyph unicode="g" horiz-adv-x="537" d="M267 14Q209 14 160 36T81 110T51 245Q51 321 80 372T162 449T281 475Q327 475 365 464T430 435Q445 425 454 413T464 382V73H384V381Q367 392 342 400T281 409Q214 409 173 368T132 246Q132 156 173 118T276 80Q320 80
347 95T390 128L394 57Q379 41 347 28T267 14ZM384 -15V90H464V-20Q464 -86 436 -126T358 -184T246 -202Q196 -202 160 -191T111 -173Q81 -156 81 -130Q81 -116 87 -107T104 -92Q125 -108 163 -121T246 -135Q313 -135 348 -106T384 -15Z" />
<glyph unicode="h" horiz-adv-x="551" d="M476 199H396V291Q396 351 363 380T276 409Q237 409 204 394T147 358L132 423Q156 440 195 457T287 475Q370 475 423 430T476 293V199ZM77 264H157V2Q152 0 142 -2T120 -5Q99 -5 88 3T77 31V264ZM396 263L476 262V2Q471
0 461 -2T439 -5Q417 -5 407 3T396 31V263ZM157 225H77V648Q82 650 92 652T115 655Q136 655 146 647T157 619V225Z" />
<glyph unicode="i" horiz-adv-x="241" d="M68 608Q68 629 83 643T120 658Q143 658 157 644T171 608Q171 587 157 573T120 558Q98 558 83 572T68 608ZM80 264H160V2Q155 0 145 -2T123 -5Q102 -5 91 3T80 31V264ZM160 225H80V460Q85 462 95 464T118 467Q139 467
149 459T160 430V225Z" />
<glyph unicode="j" horiz-adv-x="243" d="M6 -146Q30 -135 47 -123T73 -90T83 -30V303H163V-45Q163 -103 143 -135T97 -181T52 -195Q27 -195 18 -181T6 -146ZM71 608Q71 629 86 643T123 658Q146 658 160 644T174 608Q174 587 160 573T123 558Q101 558 86 572T71
608ZM163 214L83 225V460Q88 462 98 464T121 467Q142 467 152 459T163 430V214Z" />
<glyph unicode="k" horiz-adv-x="487" d="M198 211L148 250L376 471Q400 470 413 460T427 432Q427 418 419 407T394 383L198 211ZM146 237L202 270L456 42Q454 20 443 7T412 -6Q397 -6 385 2T359 23L146 237ZM77 268L157 256V2Q152 0 142 -2T120 -5Q99 -5 88 3T77
31V268ZM157 217L77 229V648Q82 650 92 652T115 655Q136 655 146 647T157 619V217Z" />
<glyph unicode="l" horiz-adv-x="246" d="M83 264L163 252V2Q158 0 148 -2T126 -5Q105 -5 94 3T83 31V264ZM163 214L83 225V648Q88 650 98 652T120 655Q142 655 152 647T163 619V214Z" />
<glyph unicode="m" horiz-adv-x="816" d="M448 320V205H368V314Q368 363 340 386T264 409Q233 409 204 399T155 376V205H75V372Q75 392 83 406T113 433Q140 450 181 462T265 475Q316 475 355 460T413 417Q419 411 423 406T431 393Q438 381 443 362T448 320ZM741
318V205H661V314Q661 363 633 386T558 409Q523 409 491 395T432 353L400 411Q426 437 468 456T564 475Q618 475 657 458T719 406T741 318ZM75 258H155V2Q150 0 140 -2T118 -5Q97 -5 86 3T75 31V258ZM368 258H448V2Q443 0 433 -2T411 -5Q389 -5 379 3T368 31V258ZM661
258H741V2Q736 0 726 -2T704 -5Q682 -5 672 3T661 31V258Z" />
<glyph unicode="n" horiz-adv-x="550" d="M475 305V203H395V301Q395 357 364 383T279 409Q239 409 208 399T155 376V203H75V372Q75 393 83 406T113 433Q139 448 182 461T279 475Q370 475 422 434T475 305ZM75 258H155V2Q150 0 140 -2T118 -5Q97 -5 86 3T75 31V258ZM395
258H475V2Q470 0 460 -2T438 -5Q416 -5 406 3T395 31V258Z" />
<glyph unicode="o" horiz-adv-x="553" d="M504 231Q504 157 476 102T397 17T277 -13Q208 -13 157 17T77 102T49 231Q49 306 77 360T157 445T277 475Q345 475 396 445T475 361T504 231ZM277 409Q210 409 171 362T131 231Q131 147 169 100T277 53Q345 53 383 100T422
231Q422 314 384 361T277 409Z" />
<glyph unicode="p" horiz-adv-x="546" d="M272 -13Q338 -13 389 14T468 95T497 232Q497 317 466 370T381 449T261 475Q213 475 176 463T111 435Q89 422 82 410T75 378V48H155V380Q175 391 200 400T261 409Q302 409 337 392T394 337T416 232Q416 138 374 96T261
53Q218 53 188 67T137 101V27Q154 12 191 0T272 -13ZM155 75L75 77V-150Q75 -169 86 -178T118 -187Q130 -187 140 -185T155 -180V75Z" />
<glyph unicode="q" horiz-adv-x="546" d="M471 63L391 64V381Q374 392 349 400T288 409Q245 409 210 391T153 333T131 228Q131 136 174 95T287 53Q323 53 353 65T400 95V22Q380 8 350 -2T275 -13Q210 -13 159 12T78 90T49 228Q49 312 80 367T165 448T286 475Q334
475 373 463T438 435Q453 426 462 413T471 382V63ZM391 78L471 80V-183Q466 -185 456 -187T434 -190Q412 -190 402 -181T391 -153V78Z" />
<glyph unicode="r" horiz-adv-x="382" d="M155 376V218H75V370Q75 393 83 406T112 433Q138 450 183 462T283 475Q363 475 363 435Q363 425 360 417T352 402Q342 404 326 406T294 408Q248 408 213 399T155 376ZM75 264L155 252V2Q150 0 140 -2T118 -5Q97 -5 86
3T75 31V264Z" />
<glyph unicode="s" horiz-adv-x="447" d="M401 123Q401 59 354 23T218 -13Q142 -13 94 10T46 62Q46 74 52 85T72 104Q99 85 135 69T217 53Q321 53 321 123Q321 152 304 170T252 197L169 219Q108 234 80 265T52 344Q52 397 95 436T226 475Q273 475 308 466T362
441T382 407Q382 394 376 384T358 369Q346 377 328 386T284 402T229 409Q185 409 158 392T131 344Q131 322 146 306T196 281L265 264Q333 248 367 214T401 123Z" />
<glyph unicode="t" horiz-adv-x="372" d="M76 264H156V126Q156 86 179 70T242 53Q259 53 280 59T315 73Q321 67 326 58T331 37Q331 15 305 1T233 -13Q163 -13 120 18T76 121V264ZM117 386V452H320Q323 448 326 439T329 420Q329 404 321 395T299 386H117ZM156 234H76V596Q81
598 91 600T114 603Q135 603 145 595T156 567V234Z" />
<glyph unicode="u" horiz-adv-x="550" d="M75 169V260H155V173Q155 109 189 81T283 53Q323 53 351 61T395 79V260H475V82Q475 61 470 49T443 24Q421 11 380 -1T282 -13Q216 -13 170 6T99 66T75 169ZM475 208H395V460Q400 462 410 464T432 467Q454 467 464 459T475
430V208ZM155 208H75V460Q80 462 90 464T113 467Q134 467 144 459T155 430V208Z" />
<glyph unicode="v" horiz-adv-x="495" d="M421 471Q438 471 448 462T459 436Q459 423 448 387T419 301T380 197T336 92T294 4Q289 0 277 -3T250 -6Q233 -6 220 -1T202 15Q191 35 174 73T136 161T96 262T58 363T30 449Q37 459 49 465T73 471Q91 471 101 462T118
432L180 253Q188 230 201 196T227 128T248 71H252Q292 172 327 270T387 463Q400 471 421 471Z" />
<glyph unicode="w" horiz-adv-x="729" d="M366 344Q348 281 328 218T288 100T253 5Q245 0 235 -3T208 -6Q192 -6 179 -1T160 17Q150 37 138 75T112 162T84 263T59 365T39 452Q46 459 56 465T82 471Q101 471 110 461T124 427Q133 385 144 332T168 227T191 134T207
72H211Q219 96 236 150T276 275T324 417Q332 422 343 424T367 427Q385 427 397 421T413 401Q437 332 458 266T495 148T518 71H523Q546 160 573 262T617 462Q631 471 651 471Q668 471 678 463T688 438Q688 427 682 396T664 323T640 234T612 142T586 61T564 5Q559
1 548 -2T521 -6Q480 -6 473 13Q459 49 441 102T404 218T366 344Z" />
<glyph unicode="x" horiz-adv-x="482" d="M214 261L229 268Q270 321 306 367T380 468Q384 469 386 469T391 469Q412 469 424 460T436 434Q436 423 432 413T417 390Q383 348 348 305T278 221L252 199Q215 150 176 98T101 -5Q97 -5 94 -5T87 -5Q64 -5 53 5T41 30Q41
38 44 47T61 72Q97 120 137 166T214 261ZM263 259L281 247Q322 193 363 141T446 35Q444 16 433 5T404 -6Q388 -6 377 2T352 29Q322 71 289 118T225 206L202 227Q158 280 120 328T42 427Q46 447 57 458T84 469Q101 469 111 461T131 438Q161 398 194 351T263 259Z"
/>
<glyph unicode="y" horiz-adv-x="489" d="M169 103Q152 135 128 189T79 311T30 449Q37 459 48 465T73 471Q90 471 101 462T119 432Q149 348 182 265T255 93H259Q280 135 303 198T347 331T382 463Q389 466 397 468T416 471Q433 471 444 463T455 437Q455 421 446
384T422 297T386 192T342 83T294 -14Q248 -99 210 -144T140 -190Q117 -190 105 -178T89 -150Q111 -131 138 -100T191 -32T233 38Q216 43 202 56T169 103Z" />
<glyph unicode="z" horiz-adv-x="469" d="M93 0H61Q54 6 50 15T45 35Q45 47 50 57T63 78L370 462H401Q409 455 413 446T418 426Q418 415 413 405T399 384L93 0ZM390 462V396H60Q57 401 54 410T51 429Q51 446 59 454T81 462H390ZM67 0V65H416Q419 61 422 53T425
33Q425 17 417 9T394 0H67Z" />
<glyph unicode="{" horiz-adv-x="281" d="M122 275Q155 258 173 224T192 136V5Q192 -30 205 -44T248 -60Q250 -66 250 -71T251 -83Q251 -97 242 -106T215 -115Q173 -115 147 -85T120 5V128Q120 181 101 209T44 244Q40 249 39 258T37 275Q37 282 39 291T44 306Q82
312 101 340T120 421V537Q120 597 146 626T215 656Q233 656 242 648T251 624Q251 618 251 613T248 601Q219 601 206 587T192 536V414Q192 361 174 327T122 275Z" />
<glyph unicode="|" horiz-adv-x="251" d="M162 641V-180Q155 -183 147 -185T127 -187Q108 -187 99 -178T89 -147V674Q97 677 105 679T124 681Q144 681 153 672T162 641Z" />
<glyph unicode="}" horiz-adv-x="281" d="M159 275Q126 292 108 326T89 414V536Q89 572 76 586T33 601Q32 607 31 612T30 624Q30 639 39 647T66 656Q108 656 134 627T161 537V421Q161 369 180 341T237 306Q240 300 242 291T244 275Q244 268 243 259T237 244Q199
238 180 210T161 128V5Q161 -55 135 -85T66 -115Q48 -115 39 -106T30 -83Q30 -77 31 -72T33 -60Q62 -59 75 -45T89 5V136Q89 189 107 223T159 275Z" />
<glyph unicode="~" horiz-adv-x="448" d="M312 282Q339 282 350 296T370 327Q392 327 407 315T423 283Q423 252 397 233T329 213Q289 213 255 223T192 244T136 254Q109 254 98 240T78 209Q56 209 41 221T25 253Q25 274 37 290T70 314T119 323Q160 323 194 313T257
293T312 282Z" />
<glyph unicode="&#xa0;" horiz-adv-x="200" />
<glyph unicode="&#xa1;" horiz-adv-x="250" d="M86 -126Q86 -96 86 -48T88 57T92 169T96 269Q102 274 110 276T129 279Q143 279 152 273T162 254Q164 225 166 174T169 63T170 -56T171 -156Q150 -169 126 -169Q107 -169 97 -159T86 -126ZM184 411Q184 387 169 371T128
355Q102 355 87 371T72 411Q72 435 87 451T128 467Q154 467 169 451T184 411Z" />
<glyph unicode="&#xa2;" horiz-adv-x="476" d="M233 28H306V-108Q302 -109 293 -111T274 -113Q255 -113 244 -105T233 -80V28ZM306 422H233V571Q238 573 247 574T266 576Q286 576 296 568T306 543V422ZM289 408Q221 408 176 362T131 230Q131 145 174 99T289 53Q331
53 359 64T409 91Q420 85 427 76T434 54Q434 26 393 7T288 -13Q219 -13 165 13T80 94T49 230Q49 311 81 365T167 447T287 475Q349 475 389 454T430 406Q430 394 423 385T404 371Q383 386 357 397T289 408Z" />
<glyph unicode="&#xa3;" horiz-adv-x="504" d="M384 263H85Q74 263 66 270T57 296Q57 306 60 313T65 328H405Q408 321 410 314T413 296Q413 278 405 271T384 263ZM145 219Q145 242 142 278T134 352T130 418Q130 490 157 534T231 600T332 621Q397 621 428 601T459
560Q459 552 454 541T436 522Q414 537 392 545T337 553Q273 553 242 517T210 407Q210 381 213 344T220 273T223 217Q223 164 209 127T168 66H461Q465 59 467 52T469 33Q469 17 461 9T440 0H100Q81 0 68 11T54 45Q54 54 55 60Q100 83 122 116T145 219Z" />
<glyph unicode="&#xa4;" horiz-adv-x="525" d="M145 382L206 420L152 485Q142 497 131 508T107 519Q94 519 81 510T60 483L145 382ZM373 298Q373 240 343 209T262 178Q212 178 181 209T150 298Q150 355 181 386T262 418Q312 418 342 387T373 298ZM326 423L378
372L430 436Q441 449 447 460T454 485Q454 503 440 513T407 527L326 423ZM447 298Q447 357 422 397T355 459T262 480Q211 480 169 459T102 398T77 298Q77 238 102 198T169 136T262 115Q313 115 355 136T422 197T447 298ZM380 210L320 171L373 107Q383 94 394 83T418
72Q432 72 444 81T465 109L380 210ZM202 168L150 219L97 155Q87 143 80 131T73 107Q73 89 87 79T121 64L202 168Z" />
<glyph unicode="&#xa5;" horiz-adv-x="546" d="M345 319L205 323Q174 369 142 418T83 512T37 592Q44 601 55 609T81 618Q98 618 108 609T130 578L273 345H278Q310 395 333 435T379 516T432 610Q441 615 448 616T466 618Q484 618 492 609T501 586Q501 577 488 551T451
486T401 405T345 319ZM234 193H316V1Q311 0 301 -2T279 -5Q257 -5 246 4T234 31V193ZM244 280L264 342H489Q492 335 494 327T497 310Q497 296 490 288T472 280H244ZM291 342L307 280H59Q55 285 52 293T49 312Q49 329 56 335T74 342H291ZM471 148H59Q55 153 52 161T49
180Q49 198 56 204T73 210H487Q490 205 492 196T495 178Q495 164 488 156T471 148Z" />
<glyph unicode="&#xa6;" horiz-adv-x="293" d="M162 642V310Q155 307 147 305T127 303Q108 303 99 312T89 343V675Q97 678 105 680T124 682Q144 682 153 673T162 642ZM162 152V-180Q155 -183 147 -185T127 -187Q108 -187 99 -178T89 -147V185Q97 188 105 190T124
192Q144 192 153 183T162 152Z" />
<glyph unicode="&#xa7;" horiz-adv-x="504" d="M444 85Q444 24 394 -10T248 -45Q194 -45 152 -35T85 -7T60 30Q60 44 67 54T85 71Q119 50 159 35T248 20Q304 20 334 36T365 85Q365 112 346 125T282 149L191 169Q137 180 100 209T63 298Q63 345 90 374T154 416L212
386Q182 375 162 354T141 300Q141 272 161 256T215 232L307 212Q369 199 406 171T444 85ZM444 283Q444 249 429 224T391 183T343 157L292 195Q324 206 344 227T365 282Q365 311 345 326T281 352L191 370Q157 378 129 391T84 429T67 494Q67 555 114 588T245 621Q294
621 332 612T392 589T414 555Q414 542 408 533T393 518Q375 527 353 536T304 550T247 556Q200 556 173 541T146 494Q146 466 164 453T216 433L306 415Q368 399 406 371T444 283Z" />
<glyph unicode="&#xa8;" horiz-adv-x="374" d="M154 606Q154 587 140 573T104 558Q83 558 70 572T56 606Q56 626 69 640T104 654Q126 654 140 640T154 606ZM327 606Q327 587 313 573T277 558Q257 558 243 572T228 606Q228 626 242 640T277 654Q298 654 312 640T327 606Z" />
<glyph unicode="&#xa9;" horiz-adv-x="713" d="M54 298Q54 385 92 455T197 567T355 609Q445 609 513 568T620 456T659 298Q659 214 621 146T514 38T355 -2Q265 -2 198 38T92 146T54 298ZM355 555Q281 555 227 522T145 432T116 298Q116 226 144 171T227 84T355
52Q430 52 483 83T565 170T594 298Q594 374 566 431T484 522T355 555ZM377 420Q335 420 302 393T269 303Q269 246 300 217T380 187Q408 187 424 194T453 209Q473 198 473 177Q473 161 449 145T375 128Q326 128 286 148T222 207T198 303Q198 365 223 404T288 461T367
480Q411 480 440 465T469 425Q469 418 463 410T448 398Q434 406 417 413T377 420Z" />
<glyph unicode="&#xaa;" horiz-adv-x="352" d="M174 358Q195 358 213 362T240 372V452L172 445Q136 441 120 432T104 404Q104 382 121 370T174 358ZM171 620Q227 620 264 597T301 510V355Q301 346 295 339T277 326Q233 305 174 305Q113 305 78 328T42 400Q42 444
72 467T159 495L240 503V510Q240 543 223 555T167 567Q142 567 116 559T73 540Q66 544 61 552T55 570Q55 581 60 587T76 600Q91 608 117 614T171 620Z" />
<glyph unicode="&#xab;" horiz-adv-x="469" d="M101 225L239 82Q239 67 230 55T201 42Q188 42 177 50T156 69L45 192Q41 199 38 207T35 226Q35 242 39 250T50 265L195 416Q215 412 224 403T234 380Q234 368 228 359T207 334L101 225ZM292 225L429 82Q429 67 420
55T392 42Q379 42 368 50T347 69L235 192Q231 199 228 207T225 226Q225 242 229 250T240 265L385 416Q405 412 414 403T424 380Q424 368 418 359T397 334L292 225Z" />
<glyph unicode="&#xac;" horiz-adv-x="542" d="M86 383H452Q469 383 479 374T490 346V182Q483 179 474 177T454 175Q434 175 425 184T415 215V318H58Q55 324 53 332T51 349Q51 366 60 374T86 383Z" />
<glyph unicode="&#xad;" horiz-adv-x="389" d="M300 228H61Q58 235 56 242T54 260Q54 277 63 285T89 294H328Q330 288 332 280T335 263Q335 247 326 238T300 228Z" />
<glyph unicode="&#xae;" horiz-adv-x="619" d="M58 377Q58 445 89 501T177 591T309 625Q383 625 440 591T529 501T561 377Q561 309 529 253T440 163T309 129Q234 129 178 162T90 252T58 377ZM113 377Q113 320 137 275T206 204T309 178Q368 178 412 204T480 275T505
377Q505 434 481 479T412 550T309 576Q250 576 206 550T138 479T113 377ZM305 350H279V270Q275 269 268 269T253 268Q241 268 234 272T227 291V476Q227 490 249 494Q263 497 275 498T301 499Q349 499 376 480T403 424Q403 399 389 382T353 357L410 287Q408 279
400 273T381 267Q371 267 364 272T348 287L305 350ZM279 391H311Q349 391 349 426Q349 441 337 449T305 458Q298 458 292 458T279 456V391Z" />
<glyph unicode="&#xaf;" horiz-adv-x="328" d="M267 570H40Q36 576 33 584T29 602Q29 619 38 627T61 635H289Q293 629 296 621T299 603Q299 586 291 578T267 570Z" />
<glyph unicode="&#xb0;" horiz-adv-x="360" d="M321 489Q321 449 302 420T251 374T181 358Q119 358 79 395T39 489Q39 529 58 558T110 604T180 620Q218 620 250 604T301 559T321 489ZM180 561Q153 561 131 543T109 489Q109 454 130 435T180 416Q209 416 230 435T251
489Q251 524 229 542T180 561Z" />
<glyph unicode="&#xb1;" horiz-adv-x="548" d="M446 318H72Q70 324 68 332T66 349Q66 366 75 374T101 383H475Q477 377 479 370T481 352Q481 336 472 327T446 318ZM446 0H72Q70 6 68 14T66 31Q66 48 75 56T101 65H475Q477 59 479 52T481 34Q481 18 472 9T446 0ZM312
514V150Q305 148 297 146T278 143Q258 143 249 152T239 184V547Q247 550 255 552T275 554Q294 554 303 545T312 514Z" />
<glyph unicode="&#xb2;" horiz-adv-x="276" d="M123 697Q176 697 206 671T236 598Q236 567 220 539T160 476L90 420H238Q241 415 242 409T244 395Q244 385 239 378T218 371H36Q30 377 27 385T23 403Q23 417 27 425T39 440L126 517Q150 538 164 558T178 598Q178
623 161 635T120 647Q101 647 83 640T51 622Q44 626 39 632T34 650Q34 670 61 683T123 697Z" />
<glyph unicode="&#xb3;" horiz-adv-x="272" d="M77 559H134Q154 559 167 570T180 600Q180 622 163 634T115 647Q93 647 74 640T43 625Q36 630 32 637T27 654Q27 673 55 685T121 697Q177 697 207 672T238 606Q238 582 225 563T189 536Q213 528 227 507T242 459Q242
409 207 386T120 363Q77 363 47 377T17 412Q17 423 22 431T37 443Q49 433 68 423T118 413Q147 413 165 426T184 464Q184 484 171 497T134 510H77Q73 515 71 521T69 535Q69 551 77 559Z" />
<glyph unicode="&#xb4;" horiz-adv-x="298" d="M90 578L187 687Q209 686 222 675T236 649Q236 636 230 627T210 605L119 516Q100 516 88 526T75 550Q75 559 80 565T90 578Z" />
<glyph unicode="&#xb5;" horiz-adv-x="552" d="M77 223H157L147 65Q151 37 154 -13T157 -115V-184Q153 -185 143 -187T121 -190Q99 -190 88 -181T77 -154V223ZM119 140V259L157 260V173Q157 109 192 81T285 53Q325 53 353 61T397 79V260H477V82Q477 61 472 49T445
24Q424 12 386 0T294 -13Q246 -13 206 1T143 48T119 140ZM477 208H397V460Q402 462 412 464T434 467Q455 467 466 459T477 430V208ZM157 208H77V460Q82 462 92 464T114 467Q136 467 146 459T157 430V208Z" />
<glyph unicode="&#xb6;" horiz-adv-x="441" d="M213 613H328Q348 613 359 606T371 575V-69Q367 -70 357 -72T335 -75Q314 -75 303 -67T291 -38V544H225V276Q225 264 212 256T170 248Q133 248 97 267T38 325T15 426Q15 490 43 531T116 592T213 613Z" />
<glyph unicode="&#xb7;" horiz-adv-x="141" d="M16 252Q16 276 30 292T71 308Q97 308 111 292T125 252Q125 229 111 213T71 197Q45 197 31 213T16 252Z" />
<glyph unicode="&#xb8;" horiz-adv-x="195" d="M61 2L111 17Q139 -2 151 -28T163 -85Q163 -133 133 -161T55 -189Q30 -189 17 -180T3 -153Q3 -139 9 -129H24Q60 -129 76 -114T93 -72Q93 -55 86 -35T61 2Z" />
<glyph unicode="&#xb9;" horiz-adv-x="211" d="M100 395V628L39 599Q31 603 24 611T16 630Q16 640 22 647T40 659L114 692H126Q142 692 149 684T157 659V373Q151 370 144 369T130 367Q116 367 108 373T100 395Z" />
<glyph unicode="&#xba;" horiz-adv-x="378" d="M333 462Q333 386 294 346T189 305Q125 305 85 345T44 463Q44 540 85 580T189 620Q254 620 293 580T333 462ZM189 566Q152 566 130 539T107 463Q107 414 129 387T189 360Q226 360 248 386T270 462Q270 511 249 538T189 566Z" />
<glyph unicode="&#xbb;" horiz-adv-x="469" d="M367 233L230 376Q230 391 239 403T267 416Q281 416 292 408T312 389L424 266Q429 259 431 251T434 232Q434 216 430 208T419 193L273 42Q254 47 245 56T235 78Q235 90 241 99T262 124L367 233ZM177 233L40 376Q40
391 49 403T77 416Q91 416 102 408T122 389L234 266Q239 259 241 251T244 232Q244 216 240 208T228 193L83 42Q64 47 55 56T45 78Q45 90 51 99T72 124L177 233Z" />
<glyph unicode="&#xbc;" horiz-adv-x="602" d="M92 315V548L31 519Q23 523 16 531T8 550Q8 560 14 567T32 579L106 612H118Q134 612 141 604T149 579V293Q143 290 136 289T122 287Q108 287 100 293T92 315ZM537 290V121H585Q587 117 588 112T590 99Q590 86 583
80T566 73H338Q330 77 325 85T319 104Q319 112 321 119T329 133L465 316Q472 318 480 319T497 321Q514 321 525 313T537 290ZM483 121V187Q483 202 483 222T485 260L388 121H483ZM481 24V94H537V2Q531 -1 525 -2T510 -4Q496 -4 489 2T481 24ZM89 63L456 609Q475
608 485 601T495 580Q495 570 492 562T480 542L113 -5Q94 -4 84 3T73 24Q73 34 77 42T89 63Z" />
<glyph unicode="&#xbd;" horiz-adv-x="621" d="M92 315V548L31 519Q23 523 16 531T8 550Q8 560 14 567T32 579L106 612H118Q134 612 141 604T149 579V293Q143 290 136 289T122 287Q108 287 100 293T92 315ZM473 326Q526 326 556 300T586 227Q586 196 570 168T510
105L440 49H588Q591 44 592 38T594 24Q594 14 589 7T568 0H386Q380 6 377 14T373 32Q373 46 377 54T389 69L476 146Q500 167 514 187T528 227Q528 252 511 264T470 276Q451 276 433 269T401 251Q394 255 389 261T384 279Q384 299 411 312T473 326ZM89 63L456 609Q475
608 485 601T495 580Q495 570 492 562T480 542L113 -5Q94 -4 84 3T73 24Q73 34 77 42T89 63Z" />
<glyph unicode="&#xbe;" horiz-adv-x="647" d="M77 479H134Q154 479 167 490T180 520Q180 542 163 554T115 567Q93 567 74 560T43 545Q36 550 32 557T27 574Q27 593 55 605T121 617Q177 617 207 592T238 526Q238 502 225 483T189 456Q213 448 227 427T242 379Q242
329 207 306T120 283Q77 283 47 297T17 332Q17 343 22 351T37 363Q49 353 68 343T118 333Q147 333 165 346T184 384Q184 404 171 417T134 430H77Q73 435 71 441T69 455Q69 471 77 479ZM583 290V121H631Q633 117 634 112T636 99Q636 86 629 80T612 73H384Q376 77
371 85T365 104Q365 112 367 119T375 133L511 316Q518 318 526 319T543 321Q560 321 571 313T583 290ZM529 121V187Q529 202 529 222T531 260L434 121H529ZM527 24V94H583V2Q577 -1 571 -2T556 -4Q542 -4 535 2T527 24ZM139 63L506 609Q525 608 535 601T545 580Q545
570 542 562T530 542L163 -5Q144 -4 134 3T123 24Q123 34 127 42T139 63Z" />
<glyph unicode="&#xbf;" horiz-adv-x="459" d="M246 232L344 256Q353 247 358 236T364 212Q364 198 356 189T328 175L259 157Q193 140 158 107T122 19Q122 -29 156 -63T264 -98Q304 -98 344 -85T409 -53Q420 -61 426 -72T432 -96Q432 -125 384 -147T261 -169Q195
-169 145 -145T67 -79T39 18Q39 102 91 154T246 232ZM355 411Q355 387 340 371T299 354Q273 354 258 370T242 411Q242 435 257 451T299 467Q325 467 340 451T355 411Z" />
<glyph unicode="&#xc0;" horiz-adv-x="592" d="M298 545H294Q279 503 259 445T217 326T176 211L171 196Q165 178 156 151T137 95T118 40T104 -2Q97 -5 90 -6T71 -8Q55 -8 43 0T30 28Q30 37 33 46T40 67Q52 101 69 150T108 257T152 376T197 495T238 601Q246 605
262 609T295 613Q315 613 333 607T357 587Q381 529 408 456T464 303T517 148T563 12Q556 3 545 -2T519 -8Q500 -8 490 0T473 29L418 192L410 220Q390 281 369 343T329 458T298 545ZM132 162L158 229H437L453 162H132ZM260 680L172 768Q171 772 171 775T171 780Q171
796 180 806T205 817Q228 817 241 799L325 698Q324 682 316 673T293 664Q283 664 276 668T260 680Z" />
<glyph unicode="&#xc1;" horiz-adv-x="592" d="M298 545H294Q279 503 259 445T217 326T176 211L171 196Q165 178 156 151T137 95T118 40T104 -2Q97 -5 90 -6T71 -8Q55 -8 43 0T30 28Q30 37 33 46T40 67Q52 101 69 150T108 257T152 376T197 495T238 601Q246 605
262 609T295 613Q315 613 333 607T357 587Q381 529 408 456T464 303T517 148T563 12Q556 3 545 -2T519 -8Q500 -8 490 0T473 29L418 192L410 220Q390 281 369 343T329 458T298 545ZM132 162L158 229H437L453 162H132ZM285 724L376 820Q398 819 409 809T421 784Q421
770 416 761T396 740L311 664Q292 666 282 674T271 694Q271 704 275 711T285 724Z" />
<glyph unicode="&#xc2;" horiz-adv-x="592" d="M298 751Q282 734 259 710T206 659Q189 661 178 669T167 692Q167 704 174 713T193 733L252 792Q274 814 299 814Q315 814 326 808T349 788L431 695Q431 680 422 671T397 661Q386 661 376 667T352 689L298 751ZM298
545H294Q279 503 259 445T217 326T176 211L171 196Q165 178 156 151T137 95T118 40T104 -2Q97 -5 90 -6T71 -8Q55 -8 43 0T30 28Q30 37 33 46T40 67Q52 101 69 150T108 257T152 376T197 495T238 601Q246 605 262 609T295 613Q315 613 333 607T357 587Q381 529 408
456T464 303T517 148T563 12Q556 3 545 -2T519 -8Q500 -8 490 0T473 29L418 192L410 220Q390 281 369 343T329 458T298 545ZM132 162L158 229H437L453 162H132Z" />
<glyph unicode="&#xc3;" horiz-adv-x="592" d="M298 545H294Q279 503 259 445T217 326T176 211L171 196Q165 178 156 151T137 95T118 40T104 -2Q97 -5 90 -6T71 -8Q55 -8 43 0T30 28Q30 37 33 46T40 67Q52 101 69 150T108 257T152 376T197 495T238 601Q246 605
262 609T295 613Q315 613 333 607T357 587Q381 529 408 456T464 303T517 148T563 12Q556 3 545 -2T519 -8Q500 -8 490 0T473 29L418 192L410 220Q390 281 369 343T329 458T298 545ZM132 162L158 229H437L453 162H132ZM230 786Q258 786 280 778T322 761T359 752Q377
752 385 763T398 790H404Q422 790 436 782T450 752Q450 724 430 707T377 690Q349 690 325 699T281 716T245 725Q227 725 219 714T207 686H201Q183 686 169 695T155 724Q155 744 165 757T193 778T230 786Z" />
<glyph unicode="&#xc4;" horiz-adv-x="592" d="M298 545H294Q279 503 259 445T217 326T176 211L171 196Q165 178 156 151T137 95T118 40T104 -2Q97 -5 90 -6T71 -8Q55 -8 43 0T30 28Q30 37 33 46T40 67Q52 101 69 150T108 257T152 376T197 495T238 601Q246 605
262 609T295 613Q315 613 333 607T357 587Q381 529 408 456T464 303T517 148T563 12Q556 3 545 -2T519 -8Q500 -8 490 0T473 29L418 192L410 220Q390 281 369 343T329 458T298 545ZM132 162L158 229H437L453 162H132ZM259 738Q259 719 245 705T209 690Q188 690
175 704T161 738Q161 758 174 772T209 786Q231 786 245 772T259 738ZM432 738Q432 719 418 705T382 690Q362 690 348 704T333 738Q333 758 347 772T382 786Q403 786 417 772T432 738Z" />
<glyph unicode="&#xc5;" horiz-adv-x="592" d="M298 545H294Q279 503 259 445T217 326T176 211L171 196Q165 178 156 151T137 95T118 40T104 -2Q97 -5 90 -6T71 -8Q55 -8 43 0T30 28Q30 37 33 46T40 67Q52 101 69 150T108 257T152 376T197 495T238 601Q246 605
262 609T295 613Q315 613 333 607T357 587Q381 529 408 456T464 303T517 148T563 12Q556 3 545 -2T519 -8Q500 -8 490 0T473 29L418 192L410 220Q390 281 369 343T329 458T298 545ZM132 162L158 229H437L453 162H132ZM191 744Q191 783 219 809T297 835Q347 835
375 809T403 744Q403 706 375 680T297 654Q248 654 220 680T191 744ZM251 744Q251 725 264 714T297 703Q317 703 330 714T344 744Q344 764 331 775T297 786Q277 786 264 775T251 744Z" />
<glyph unicode="&#xc6;" horiz-adv-x="844" d="M457 541H398L222 214L199 172L108 -3Q101 -5 96 -6T79 -8Q59 -8 49 0T39 24Q39 33 43 43T54 67Q65 88 88 131T143 233T210 356T281 484T346 601Q354 606 367 609T397 613Q411 613 423 610T444 602T456 588L457 541ZM138
162L165 229H433L449 162H138ZM404 549H484V8Q480 7 469 4T446 0Q427 0 416 12T404 44V549ZM446 278V346H747Q751 342 754 333T757 314Q757 298 749 288T726 278H446ZM446 0V68H783Q786 64 789 56T793 36Q793 20 785 10T762 0H446ZM435 539V571Q436 588 448 598T483
608H778Q782 604 785 595T788 576Q788 560 780 550T757 539H435Z" />
<glyph unicode="&#xc7;" horiz-adv-x="588" d="M533 541Q533 528 525 518T505 502Q480 520 445 536T353 552Q292 552 244 524T167 441T138 303Q138 180 198 118T356 56Q408 56 447 71T511 105Q521 101 530 91T539 66Q539 56 534 47T515 28Q492 12 452 0T350 -13Q267
-13 200 22T93 128T54 303Q54 408 94 479T201 585T347 621Q402 621 444 609T509 579T533 541ZM307 2L357 17Q385 -2 397 -28T409 -85Q409 -133 379 -161T301 -189Q276 -189 263 -180T249 -153Q249 -139 255 -129H270Q306 -129 322 -114T339 -72Q339 -55 332 -35T307
2Z" />
<glyph unicode="&#xc8;" horiz-adv-x="542" d="M101 366H182V8Q178 7 167 4T145 0Q125 0 113 12T101 44V366ZM182 248L101 249V564Q101 584 113 596T145 608Q156 608 167 605T182 600V248ZM145 278V346H446Q449 342 452 333T455 314Q455 298 447 288T424 278H145ZM145
0V68H482Q485 64 488 56T491 36Q491 20 483 10T460 0H145ZM145 539V608H477Q480 604 483 595T486 576Q486 560 478 550T455 539H145ZM279 680L191 768Q190 772 190 775T190 780Q190 796 199 806T224 817Q247 817 260 799L344 698Q343 682 335 673T312 664Q302 664
295 668T279 680Z" />
<glyph unicode="&#xc9;" horiz-adv-x="542" d="M101 366H182V8Q178 7 167 4T145 0Q125 0 113 12T101 44V366ZM182 248L101 249V564Q101 584 113 596T145 608Q156 608 167 605T182 600V248ZM145 278V346H446Q449 342 452 333T455 314Q455 298 447 288T424 278H145ZM145
0V68H482Q485 64 488 56T491 36Q491 20 483 10T460 0H145ZM145 539V608H477Q480 604 483 595T486 576Q486 560 478 550T455 539H145ZM279 724L370 820Q392 819 403 809T415 784Q415 770 410 761T390 740L305 664Q286 666 276 674T265 694Q265 704 269 711T279 724Z"
/>
<glyph unicode="&#xca;" horiz-adv-x="542" d="M101 366H182V8Q178 7 167 4T145 0Q125 0 113 12T101 44V366ZM182 248L101 249V564Q101 584 113 596T145 608Q156 608 167 605T182 600V248ZM145 278V346H446Q449 342 452 333T455 314Q455 298 447 288T424 278H145ZM145
0V68H482Q485 64 488 56T491 36Q491 20 483 10T460 0H145ZM145 539V608H477Q480 604 483 595T486 576Q486 560 478 550T455 539H145ZM296 751Q280 734 257 710T204 659Q187 661 176 669T165 692Q165 704 172 713T191 733L250 792Q272 814 297 814Q313 814 324 808T347
788L429 695Q429 680 420 671T395 661Q384 661 374 667T350 689L296 751Z" />
<glyph unicode="&#xcb;" horiz-adv-x="542" d="M101 366H182V8Q178 7 167 4T145 0Q125 0 113 12T101 44V366ZM182 248L101 249V564Q101 584 113 596T145 608Q156 608 167 605T182 600V248ZM145 278V346H446Q449 342 452 333T455 314Q455 298 447 288T424 278H145ZM145
0V68H482Q485 64 488 56T491 36Q491 20 483 10T460 0H145ZM145 539V608H477Q480 604 483 595T486 576Q486 560 478 550T455 539H145ZM264 729Q264 710 250 696T214 681Q193 681 180 695T166 729Q166 749 179 763T214 777Q236 777 250 763T264 729ZM437 729Q437
710 423 696T387 681Q367 681 353 695T338 729Q338 749 352 763T387 777Q408 777 422 763T437 729Z" />
<glyph unicode="&#xcc;" horiz-adv-x="262" d="M90 363H171V2Q166 0 156 -2T134 -5Q112 -5 101 4T90 32V363ZM171 296H90V606Q95 608 105 610T128 613Q150 613 160 605T171 576V296ZM348 680L260 768Q259 772 259 775T259 780Q259 796 268 806T293 817Q316 817
329 799L413 698Q412 682 404 673T381 664Q371 664 364 668T348 680Z" />
<glyph unicode="&#xcd;" horiz-adv-x="262" d="M90 363H171V2Q166 0 156 -2T134 -5Q112 -5 101 4T90 32V363ZM171 296H90V606Q95 608 105 610T128 613Q150 613 160 605T171 576V296ZM113 724L204 820Q226 819 237 809T249 784Q249 770 244 761T224 740L139 664Q120
666 110 674T99 694Q99 704 103 711T113 724Z" />
<glyph unicode="&#xce;" horiz-adv-x="262" d="M90 363H171V2Q166 0 156 -2T134 -5Q112 -5 101 4T90 32V363ZM171 296H90V606Q95 608 105 610T128 613Q150 613 160 605T171 576V296ZM388 751Q372 734 349 710T296 659Q279 661 268 669T257 692Q257 704 264 713T283
733L342 792Q364 814 389 814Q405 814 416 808T439 788L521 695Q521 680 512 671T487 661Q476 661 466 667T442 689L388 751Z" />
<glyph unicode="&#xcf;" horiz-adv-x="262" d="M90 363H171V2Q166 0 156 -2T134 -5Q112 -5 101 4T90 32V363ZM171 296H90V606Q95 608 105 610T128 613Q150 613 160 605T171 576V296ZM350 729Q350 710 336 696T300 681Q279 681 266 695T252 729Q252 749 265 763T300
777Q322 777 336 763T350 729ZM523 729Q523 710 509 696T473 681Q453 681 439 695T424 729Q424 749 438 763T473 777Q494 777 508 763T523 729Z" />
<glyph unicode="&#xd0;" horiz-adv-x="682" d="M150 338V270H331Q345 270 353 280T362 306Q362 317 359 325T353 338H150ZM213 270V338H41Q27 338 19 329T10 302Q10 292 13 284T20 270H213ZM544 311Q544 186 484 122T307 57Q278 57 251 59T199 67V543Q219 547
243 549T298 551Q366 551 421 527T510 450T544 311ZM627 311Q627 414 586 482T471 584T299 619Q260 619 221 616T151 603Q135 598 127 590T118 565V51Q118 18 160 5Q196 -6 236 -8T308 -11Q405 -11 476 24T587 130T627 311Z" />
<glyph unicode="&#xd1;" horiz-adv-x="660" d="M89 539L157 545Q161 514 164 472T168 386T170 301V2Q165 0 155 -2T133 -5Q111 -5 100 3T89 31V539ZM571 69L502 63Q492 147 491 234T489 404V606Q495 608 505 610T527 613Q549 613 560 605T571 577V69ZM571 99V11Q562
4 548 -1T517 -6Q493 -6 476 3T445 38L255 358Q240 385 222 417T188 479T163 528L89 509V596Q97 604 111 609T143 614Q167 614 184 605T215 570L406 250Q422 223 439 191T472 129T496 80L571 99ZM250 786Q278 786 300 778T342 761T379 752Q397 752 405 763T418
790H424Q442 790 456 782T470 752Q470 724 450 707T397 690Q369 690 345 699T301 716T265 725Q247 725 239 714T227 686H221Q203 686 189 695T175 724Q175 744 185 757T213 778T250 786Z" />
<glyph unicode="&#xd2;" horiz-adv-x="689" d="M634 304Q634 200 596 130T493 23T344 -13Q262 -13 196 23T92 129T54 304Q54 408 93 478T197 585T344 621Q426 621 491 585T595 479T634 304ZM551 304Q551 423 495 487T344 552Q251 552 195 488T138 304Q138 185
194 121T344 56Q439 56 495 120T551 304ZM311 680L223 768Q222 772 222 775T222 780Q222 796 231 806T256 817Q279 817 292 799L376 698Q375 682 367 673T344 664Q334 664 327 668T311 680Z" />
<glyph unicode="&#xd3;" horiz-adv-x="689" d="M634 304Q634 200 596 130T493 23T344 -13Q262 -13 196 23T92 129T54 304Q54 408 93 478T197 585T344 621Q426 621 491 585T595 479T634 304ZM551 304Q551 423 495 487T344 552Q251 552 195 488T138 304Q138 185
194 121T344 56Q439 56 495 120T551 304ZM331 724L422 820Q444 819 455 809T467 784Q467 770 462 761T442 740L357 664Q338 666 328 674T317 694Q317 704 321 711T331 724Z" />
<glyph unicode="&#xd4;" horiz-adv-x="689" d="M634 304Q634 200 596 130T493 23T344 -13Q262 -13 196 23T92 129T54 304Q54 408 93 478T197 585T344 621Q426 621 491 585T595 479T634 304ZM551 304Q551 423 495 487T344 552Q251 552 195 488T138 304Q138 185
194 121T344 56Q439 56 495 120T551 304ZM343 751Q327 734 304 710T251 659Q234 661 223 669T212 692Q212 704 219 713T238 733L297 792Q319 814 344 814Q360 814 371 808T394 788L476 695Q476 680 467 671T442 661Q431 661 421 667T397 689L343 751Z" />
<glyph unicode="&#xd5;" horiz-adv-x="689" d="M634 304Q634 200 596 130T493 23T344 -13Q262 -13 196 23T92 129T54 304Q54 408 93 478T197 585T344 621Q426 621 491 585T595 479T634 304ZM551 304Q551 423 495 487T344 552Q251 552 195 488T138 304Q138 185
194 121T344 56Q439 56 495 120T551 304ZM272 786Q300 786 322 778T364 761T401 752Q419 752 427 763T440 790H446Q464 790 478 782T492 752Q492 724 472 707T419 690Q391 690 367 699T323 716T287 725Q269 725 261 714T249 686H243Q225 686 211 695T197 724Q197
744 207 757T235 778T272 786Z" />
<glyph unicode="&#xd6;" horiz-adv-x="689" d="M634 304Q634 200 596 130T493 23T344 -13Q262 -13 196 23T92 129T54 304Q54 408 93 478T197 585T344 621Q426 621 491 585T595 479T634 304ZM551 304Q551 423 495 487T344 552Q251 552 195 488T138 304Q138 185
194 121T344 56Q439 56 495 120T551 304ZM306 729Q306 710 292 696T256 681Q235 681 222 695T208 729Q208 749 221 763T256 777Q278 777 292 763T306 729ZM479 729Q479 710 465 696T429 681Q409 681 395 695T380 729Q380 749 394 763T429 777Q450 777 464 763T479
729Z" />
<glyph unicode="&#xd7;" horiz-adv-x="495" d="M284 305L436 141Q432 128 422 117T395 106Q386 106 378 110T365 121L237 264L214 282L62 444Q66 457 76 469T101 481Q111 481 119 476T132 464L261 324L284 305ZM410 408L288 279L256 256L101 102Q88 107 74 116T60
141Q60 150 66 158T80 174L211 302L240 321L391 479Q403 475 415 466T427 440Q427 431 422 423T410 408Z" />
<glyph unicode="&#xd8;" horiz-adv-x="689" d="M181 76L96 -16Q71 -11 60 1T49 25Q49 38 56 47T75 70L125 121L181 76ZM603 541L547 480L501 537L581 626Q601 622 614 612T628 587Q628 578 623 568T603 541ZM533 466L169 62L135 129L486 521L533 466ZM634 304Q634
200 596 130T493 23T344 -13Q262 -13 196 24T92 132T54 304Q54 408 93 478T197 585T344 621Q426 621 491 584T595 476T634 304ZM552 304Q552 420 495 486T344 552Q251 552 194 488T137 304Q137 189 193 123T344 56Q439 56 495 120T552 304Z" />
<glyph unicode="&#xd9;" horiz-adv-x="649" d="M324 -13Q249 -13 196 14T116 92T88 210V292H169V217Q169 137 213 97T324 56Q390 56 434 96T479 217V292H561V210Q561 143 534 93T453 15T324 -13ZM169 251H88V606Q93 608 103 610T126 613Q148 613 158 605T169 576V251ZM561
251H479V606Q484 608 494 610T517 613Q539 613 550 605T561 576V251ZM286 680L198 768Q197 772 197 775T197 780Q197 796 206 806T231 817Q254 817 267 799L351 698Q350 682 342 673T319 664Q309 664 302 668T286 680Z" />
<glyph unicode="&#xda;" horiz-adv-x="649" d="M324 -13Q249 -13 196 14T116 92T88 210V292H169V217Q169 137 213 97T324 56Q390 56 434 96T479 217V292H561V210Q561 143 534 93T453 15T324 -13ZM169 251H88V606Q93 608 103 610T126 613Q148 613 158 605T169 576V251ZM561
251H479V606Q484 608 494 610T517 613Q539 613 550 605T561 576V251ZM310 724L401 820Q423 819 434 809T446 784Q446 770 441 761T421 740L336 664Q317 666 307 674T296 694Q296 704 300 711T310 724Z" />
<glyph unicode="&#xdb;" horiz-adv-x="649" d="M324 -13Q249 -13 196 14T116 92T88 210V292H169V217Q169 137 213 97T324 56Q390 56 434 96T479 217V292H561V210Q561 143 534 93T453 15T324 -13ZM169 251H88V606Q93 608 103 610T126 613Q148 613 158 605T169 576V251ZM561
251H479V606Q484 608 494 610T517 613Q539 613 550 605T561 576V251ZM329 751Q313 734 290 710T237 659Q220 661 209 669T198 692Q198 704 205 713T224 733L283 792Q305 814 330 814Q346 814 357 808T380 788L462 695Q462 680 453 671T428 661Q417 661 407 667T383
689L329 751Z" />
<glyph unicode="&#xdc;" horiz-adv-x="649" d="M324 -13Q249 -13 196 14T116 92T88 210V292H169V217Q169 137 213 97T324 56Q390 56 434 96T479 217V292H561V210Q561 143 534 93T453 15T324 -13ZM169 251H88V606Q93 608 103 610T126 613Q148 613 158 605T169 576V251ZM561
251H479V606Q484 608 494 610T517 613Q539 613 550 605T561 576V251ZM286 729Q286 710 272 696T236 681Q215 681 202 695T188 729Q188 749 201 763T236 777Q258 777 272 763T286 729ZM459 729Q459 710 445 696T409 681Q389 681 375 695T360 729Q360 749 374 763T409
777Q430 777 444 763T459 729Z" />
<glyph unicode="&#xdd;" horiz-adv-x="550" d="M314 218H243Q215 260 185 306T125 401T69 495T21 582Q25 593 36 603T65 614Q84 614 94 604T116 574Q132 546 153 509T198 431T241 355T277 295H281Q316 353 345 405T401 507T454 607Q460 611 469 612T485 614Q504
614 513 605T523 580Q523 570 508 538T464 457T398 347T314 218ZM238 257H319V2Q314 0 304 -2T282 -5Q260 -5 249 4T238 32V257ZM254 724L345 820Q367 819 378 809T390 784Q390 770 385 761T365 740L280 664Q261 666 251 674T240 694Q240 704 244 711T254 724Z"
/>
<glyph unicode="&#xde;" horiz-adv-x="575" d="M170 182V428H279Q355 428 398 398T441 305Q441 242 398 212T279 182H170ZM89 497V113H298Q411 113 466 166T522 305Q522 394 467 445T298 497H89ZM170 161H89V31Q89 13 100 4T134 -5Q145 -5 155 -3T170 1V161ZM89
458H170V577Q170 595 159 604T126 613Q115 613 105 611T89 607V458Z" />
<glyph unicode="&#xdf;" horiz-adv-x="577" d="M160 285H80V475Q80 538 106 581T176 647T277 670Q334 670 379 648T450 579T477 463Q477 429 442 415L398 398Q372 385 362 373T351 340Q351 320 363 306T407 271Q449 247 477 226T520 179T535 116Q535 49 489 16T370
-17Q312 -17 280 1T247 45Q247 57 253 69T273 86Q292 71 316 61T373 51Q409 51 431 69T454 117Q454 144 437 163T370 210Q321 236 295 266T269 341Q269 382 290 409T354 454L397 472Q397 528 364 565T276 602Q230 602 195 572T160 474V285ZM80 372H160V-2Q156 -3
146 -5T125 -8Q103 -8 92 1T80 29V372Z" />
<glyph unicode="&#xe0;" horiz-adv-x="499" d="M240 52Q282 52 309 60T349 77V222L225 209Q173 205 148 186T123 131Q123 94 152 73T240 52ZM239 475Q326 475 377 436T428 313V76Q428 54 420 43T394 21Q370 8 330 -3T240 -14Q146 -14 95 23T43 130Q43 195 86 229T207
271L349 285V313Q349 363 319 386T238 409Q197 409 160 397T93 370Q85 377 79 386T72 406Q72 432 101 446Q128 460 163 467T239 475ZM212 534L118 634Q117 638 117 641T116 647Q116 663 127 673T154 683Q165 683 173 679T189 666L279 553Q278 537 269 528T246 518Q235
518 228 522T212 534Z" />
<glyph unicode="&#xe1;" horiz-adv-x="499" d="M240 52Q282 52 309 60T349 77V222L225 209Q173 205 148 186T123 131Q123 94 152 73T240 52ZM239 475Q326 475 377 436T428 313V76Q428 54 420 43T394 21Q370 8 330 -3T240 -14Q146 -14 95 23T43 130Q43 195 86 229T207
271L349 285V313Q349 363 319 386T238 409Q197 409 160 397T93 370Q85 377 79 386T72 406Q72 432 101 446Q128 460 163 467T239 475ZM218 578L315 687Q337 686 350 675T364 649Q364 636 358 627T338 605L247 516Q228 516 216 526T203 550Q203 559 208 565T218 578Z"
/>
<glyph unicode="&#xe2;" horiz-adv-x="499" d="M240 52Q282 52 309 60T349 77V222L225 209Q173 205 148 186T123 131Q123 94 152 73T240 52ZM239 475Q326 475 377 436T428 313V76Q428 54 420 43T394 21Q370 8 330 -3T240 -14Q146 -14 95 23T43 130Q43 195 86 229T207
271L349 285V313Q349 363 319 386T238 409Q197 409 160 397T93 370Q85 377 79 386T72 406Q72 432 101 446Q128 460 163 467T239 475ZM308 541L243 618Q220 590 198 567T155 520Q137 522 125 531T113 553Q113 564 119 572T135 591L196 657Q209 668 219 674T243 680Q259
680 269 674T290 656L374 556Q374 543 367 533T343 522Q331 522 324 527T308 541Z" />
<glyph unicode="&#xe3;" horiz-adv-x="499" d="M240 52Q282 52 309 60T349 77V222L225 209Q173 205 148 186T123 131Q123 94 152 73T240 52ZM239 475Q326 475 377 436T428 313V76Q428 54 420 43T394 21Q370 8 330 -3T240 -14Q146 -14 95 23T43 130Q43 195 86 229T207
271L349 285V313Q349 363 319 386T238 409Q197 409 160 397T93 370Q85 377 79 386T72 406Q72 432 101 446Q128 460 163 467T239 475ZM167 651Q195 651 217 643T259 626T296 617Q314 617 322 628T335 655H341Q359 655 373 647T387 617Q387 589 367 572T314 555Q286
555 262 564T218 581T182 590Q164 590 156 579T144 551H138Q120 551 106 560T92 589Q92 609 102 622T130 643T167 651Z" />
<glyph unicode="&#xe4;" horiz-adv-x="499" d="M240 52Q282 52 309 60T349 77V222L225 209Q173 205 148 186T123 131Q123 94 152 73T240 52ZM239 475Q326 475 377 436T428 313V76Q428 54 420 43T394 21Q370 8 330 -3T240 -14Q146 -14 95 23T43 130Q43 195 86 229T207
271L349 285V313Q349 363 319 386T238 409Q197 409 160 397T93 370Q85 377 79 386T72 406Q72 432 101 446Q128 460 163 467T239 475ZM211 857Q211 838 197 824T161 809Q140 809 127 823T113 857Q113 877 126 891T161 905Q183 905 197 891T211 857ZM384 857Q384
838 370 824T334 809Q314 809 300 823T285 857Q285 877 299 891T334 905Q355 905 369 891T384 857Z" />
<glyph unicode="&#xe5;" horiz-adv-x="499" d="M240 52Q282 52 309 60T349 77V222L225 209Q173 205 148 186T123 131Q123 94 152 73T240 52ZM239 475Q326 475 377 436T428 313V76Q428 54 420 43T394 21Q370 8 330 -3T240 -14Q146 -14 95 23T43 130Q43 195 86 229T207
271L349 285V313Q349 363 319 386T238 409Q197 409 160 397T93 370Q85 377 79 386T72 406Q72 432 101 446Q128 460 163 467T239 475ZM147 612Q147 651 174 678T251 705Q301 705 328 678T355 612Q355 573 328 546T251 519Q202 519 175 546T147 612ZM205 612Q205
590 218 578T251 566Q271 566 284 578T298 612Q298 634 285 646T251 658Q231 658 218 646T205 612Z" />
<glyph unicode="&#xe6;" horiz-adv-x="811" d="M396 180L392 243L694 284Q689 339 656 374T562 410Q499 410 459 366T419 238V216Q425 136 470 95T595 53Q637 53 671 67T726 97Q737 90 743 81T750 59Q750 40 729 24T672 -3T592 -13Q483 -13 425 46T367 202Q367
207 362 217T356 234Q356 310 382 363T454 446T563 475Q624 475 670 449T743 377T770 270Q770 248 760 239T732 227L396 180ZM240 52Q282 52 309 60T349 77V222L225 209Q173 205 148 186T123 131Q123 94 152 73T240 52ZM239 475Q321 475 367 436T413 313V70Q413
48 403 34T375 12Q353 2 322 -6T240 -14Q146 -14 95 23T43 130Q43 195 86 229T207 271L349 285V313Q349 363 319 386T238 409Q197 409 160 397T93 370Q85 377 79 386T72 406Q72 432 101 446Q128 460 163 467T239 475Z" />
<glyph unicode="&#xe7;" horiz-adv-x="478" d="M289 408Q221 408 176 362T131 230Q131 145 174 99T289 53Q331 53 359 64T409 91Q420 85 427 76T434 54Q434 26 393 7T289 -13Q220 -13 166 13T80 94T49 230Q49 311 81 365T167 447T287 475Q349 475 389 454T430
406Q430 394 423 385T405 371Q383 386 357 397T289 408ZM250 2L300 17Q328 -2 340 -28T352 -85Q352 -133 322 -161T244 -189Q219 -189 206 -180T192 -153Q192 -139 198 -129H213Q249 -129 265 -114T282 -72Q282 -55 275 -35T250 2Z" />
<glyph unicode="&#xe8;" horiz-adv-x="519" d="M104 180L100 243L402 284Q398 339 364 374T270 410Q208 410 168 366T127 238V216Q134 136 179 95T304 53Q346 53 380 67T434 97Q445 90 451 81T458 59Q458 40 437 24T380 -3T300 -13Q223 -13 167 15T80 98T49 234Q49
291 65 335T111 411T182 458T271 475Q332 475 378 449T451 377T478 270Q478 248 468 239T440 227L104 180ZM235 534L141 634Q140 638 140 641T139 647Q139 663 150 673T177 683Q188 683 196 679T212 666L302 553Q301 537 292 528T269 518Q258 518 251 522T235 534Z"
/>
<glyph unicode="&#xe9;" horiz-adv-x="519" d="M104 180L100 243L402 284Q398 339 364 374T270 410Q208 410 168 366T127 238V216Q134 136 179 95T304 53Q346 53 380 67T434 97Q445 90 451 81T458 59Q458 40 437 24T380 -3T300 -13Q223 -13 167 15T80 98T49 234Q49
291 65 335T111 411T182 458T271 475Q332 475 378 449T451 377T478 270Q478 248 468 239T440 227L104 180ZM258 578L355 687Q377 686 390 675T404 649Q404 636 398 627T378 605L287 516Q268 516 256 526T243 550Q243 559 248 565T258 578Z" />
<glyph unicode="&#xea;" horiz-adv-x="519" d="M104 180L100 243L402 284Q398 339 364 374T270 410Q208 410 168 366T127 238V216Q134 136 179 95T304 53Q346 53 380 67T434 97Q445 90 451 81T458 59Q458 40 437 24T380 -3T300 -13Q223 -13 167 15T80 98T49 234Q49
291 65 335T111 411T182 458T271 475Q332 475 378 449T451 377T478 270Q478 248 468 239T440 227L104 180ZM337 541L272 618Q249 590 227 567T184 520Q166 522 154 531T142 553Q142 564 148 572T164 591L225 657Q238 668 248 674T272 680Q288 680 298 674T319 656L403
556Q403 543 396 533T372 522Q360 522 353 527T337 541Z" />
<glyph unicode="&#xeb;" horiz-adv-x="519" d="M104 180L100 243L402 284Q398 339 364 374T270 410Q208 410 168 366T127 238V216Q134 136 179 95T304 53Q346 53 380 67T434 97Q445 90 451 81T458 59Q458 40 437 24T380 -3T300 -13Q223 -13 167 15T80 98T49 234Q49
291 65 335T111 411T182 458T271 475Q332 475 378 449T451 377T478 270Q478 248 468 239T440 227L104 180ZM232 857Q232 838 218 824T182 809Q161 809 148 823T134 857Q134 877 147 891T182 905Q204 905 218 891T232 857ZM405 857Q405 838 391 824T355 809Q335
809 321 823T306 857Q306 877 320 891T355 905Q376 905 390 891T405 857Z" />
<glyph unicode="&#xec;" horiz-adv-x="241" d="M80 343H160V-2Q156 -3 146 -5T125 -8Q103 -8 92 1T80 29V343ZM160 292H80V459Q85 461 95 463T116 465Q138 465 149 456T160 428V292ZM84 534L-10 634Q-11 638 -11 641T-12 647Q-12 663 -1 673T26 683Q37 683 45
679T61 666L151 553Q150 537 141 528T118 518Q107 518 100 522T84 534Z" />
<glyph unicode="&#xed;" horiz-adv-x="241" d="M80 343H160V-2Q156 -3 146 -5T125 -8Q103 -8 92 1T80 29V343ZM160 292H80V459Q85 461 95 463T116 465Q138 465 149 456T160 428V292ZM104 578L201 687Q223 686 236 675T250 649Q250 636 244 627T224 605L133 516Q114
516 102 526T89 550Q89 559 94 565T104 578Z" />
<glyph unicode="&#xee;" horiz-adv-x="241" d="M80 343H160V-2Q156 -3 146 -5T125 -8Q103 -8 92 1T80 29V343ZM160 292H80V459Q85 461 95 463T116 465Q138 465 149 456T160 428V292ZM188 541L123 618Q100 590 78 567T35 520Q17 522 5 531T-7 553Q-7 564 -1 572T15
591L76 657Q89 668 99 674T123 680Q139 680 149 674T170 656L254 556Q254 543 247 533T223 522Q211 522 204 527T188 541Z" />
<glyph unicode="&#xef;" horiz-adv-x="241" d="M80 343H160V-2Q156 -3 146 -5T125 -8Q103 -8 92 1T80 29V343ZM160 292H80V459Q85 461 95 463T116 465Q138 465 149 456T160 428V292ZM83 601Q83 582 69 568T33 553Q12 553 -1 567T-15 601Q-15 621 -2 635T33 649Q55
649 69 635T83 601ZM256 601Q256 582 242 568T206 553Q186 553 172 567T157 601Q157 621 171 635T206 649Q227 649 241 635T256 601Z" />
<glyph unicode="&#xf0;" horiz-adv-x="537" d="M362 539L327 526L185 476Q175 482 168 492T161 516Q161 537 186 546L279 581L303 587L423 634Q433 627 440 618T448 594Q448 580 442 574T423 562L362 539ZM421 352L408 289Q386 327 351 348T273 370Q202 370 167
328T131 214Q131 141 169 97T272 53Q339 53 372 98T406 220Q406 254 404 281T396 335Q394 351 394 356T392 364T387 377Q368 423 344 462T284 531Q275 539 271 544T258 557Q232 577 204 589T145 611Q145 630 155 644T187 659Q217 659 254 641T329 592Q336 586 337
585T346 577Q383 540 415 488T467 373T487 239Q487 156 461 100T387 16T271 -13Q170 -13 110 47T49 214Q49 291 79 340T157 412T259 436Q315 436 355 413T421 352Z" />
<glyph unicode="&#xf1;" horiz-adv-x="560" d="M485 305V203H405V301Q405 357 374 383T289 409Q249 409 218 399T165 376V203H85V372Q85 393 93 406T123 433Q149 448 192 461T289 475Q380 475 432 434T485 305ZM85 258H165V2Q160 0 150 -2T128 -5Q107 -5 96 3T85
31V258ZM405 258H485V2Q480 0 470 -2T448 -5Q426 -5 416 3T405 31V258ZM203 651Q231 651 253 643T295 626T332 617Q350 617 358 628T371 655H377Q395 655 409 647T423 617Q423 589 403 572T350 555Q322 555 298 564T254 581T218 590Q200 590 192 579T180 551H174Q156
551 142 560T128 589Q128 609 138 622T166 643T203 651Z" />
<glyph unicode="&#xf2;" horiz-adv-x="553" d="M504 231Q504 157 476 102T397 17T277 -13Q208 -13 157 17T77 102T49 231Q49 306 77 360T157 445T277 475Q345 475 396 445T475 361T504 231ZM277 409Q210 409 171 362T131 231Q131 147 169 100T277 53Q345 53 383
100T422 231Q422 314 384 361T277 409ZM243 534L149 634Q148 638 148 641T147 647Q147 663 158 673T185 683Q196 683 204 679T220 666L310 553Q309 537 300 528T277 518Q266 518 259 522T243 534Z" />
<glyph unicode="&#xf3;" horiz-adv-x="553" d="M504 231Q504 157 476 102T397 17T277 -13Q208 -13 157 17T77 102T49 231Q49 306 77 360T157 445T277 475Q345 475 396 445T475 361T504 231ZM277 409Q210 409 171 362T131 231Q131 147 169 100T277 53Q345 53 383
100T422 231Q422 314 384 361T277 409ZM274 578L371 687Q393 686 406 675T420 649Q420 636 414 627T394 605L303 516Q284 516 272 526T259 550Q259 559 264 565T274 578Z" />
<glyph unicode="&#xf4;" horiz-adv-x="553" d="M504 231Q504 157 476 102T397 17T277 -13Q208 -13 157 17T77 102T49 231Q49 306 77 360T157 445T277 475Q345 475 396 445T475 361T504 231ZM277 409Q210 409 171 362T131 231Q131 147 169 100T277 53Q345 53 383
100T422 231Q422 314 384 361T277 409ZM342 541L277 618Q254 590 232 567T189 520Q171 522 159 531T147 553Q147 564 153 572T169 591L230 657Q243 668 253 674T277 680Q293 680 303 674T324 656L408 556Q408 543 401 533T377 522Q365 522 358 527T342 541Z" />
<glyph unicode="&#xf5;" horiz-adv-x="553" d="M504 231Q504 157 476 102T397 17T277 -13Q208 -13 157 17T77 102T49 231Q49 306 77 360T157 445T277 475Q345 475 396 445T475 361T504 231ZM277 409Q210 409 171 362T131 231Q131 147 169 100T277 53Q345 53 383
100T422 231Q422 314 384 361T277 409ZM206 651Q234 651 256 643T298 626T335 617Q353 617 361 628T374 655H380Q398 655 412 647T426 617Q426 589 406 572T353 555Q325 555 301 564T257 581T221 590Q203 590 195 579T183 551H177Q159 551 145 560T131 589Q131
609 141 622T169 643T206 651Z" />
<glyph unicode="&#xf6;" horiz-adv-x="553" d="M504 231Q504 157 476 102T397 17T277 -13Q208 -13 157 17T77 102T49 231Q49 306 77 360T157 445T277 475Q345 475 396 445T475 361T504 231ZM277 409Q210 409 171 362T131 231Q131 147 169 100T277 53Q345 53 383
100T422 231Q422 314 384 361T277 409ZM240 857Q240 838 226 824T190 809Q169 809 156 823T142 857Q142 877 155 891T190 905Q212 905 226 891T240 857ZM413 857Q413 838 399 824T363 809Q343 809 329 823T314 857Q314 877 328 891T363 905Q384 905 398 891T413
857Z" />
<glyph unicode="&#xf7;" horiz-adv-x="522" d="M436 266H58Q55 273 53 280T51 298Q51 315 60 323T86 332H464Q467 326 469 318T471 301Q471 285 462 276T436 266ZM210 135Q210 158 224 173T263 188Q287 188 301 173T316 135Q316 113 302 98T263 82Q239 82 225
97T210 135ZM210 459Q210 482 224 497T263 512Q287 512 301 497T316 459Q316 436 302 421T263 406Q239 406 225 421T210 459Z" />
<glyph unicode="&#xf8;" horiz-adv-x="553" d="M425 399L377 443L430 523Q444 523 455 519T472 507T479 487Q479 480 473 471L425 399ZM179 25L121 -61Q106 -61 95 -57T77 -44T71 -26Q71 -17 77 -8L120 54L179 25ZM195 47L157 104L347 399L403 373L195 47ZM504
231Q504 157 476 102T397 17T277 -13Q208 -13 157 17T77 102T49 231Q49 306 77 360T157 445T277 475Q345 475 396 445T475 361T504 231ZM277 409Q210 409 170 362T129 231Q129 147 168 100T277 53Q345 53 384 100T424 231Q424 314 385 361T277 409Z" />
<glyph unicode="&#xf9;" horiz-adv-x="550" d="M75 169V260H155V173Q155 109 189 81T283 53Q323 53 351 61T395 79V260H475V82Q475 61 470 49T443 24Q421 11 380 -1T282 -13Q216 -13 170 6T99 66T75 169ZM475 208H395V460Q400 462 410 464T432 467Q454 467 464
459T475 430V208ZM155 208H75V460Q80 462 90 464T113 467Q134 467 144 459T155 430V208ZM238 534L144 634Q143 638 143 641T142 647Q142 663 153 673T180 683Q191 683 199 679T215 666L305 553Q304 537 295 528T272 518Q261 518 254 522T238 534Z" />
<glyph unicode="&#xfa;" horiz-adv-x="550" d="M75 169V260H155V173Q155 109 189 81T283 53Q323 53 351 61T395 79V260H475V82Q475 61 470 49T443 24Q421 11 380 -1T282 -13Q216 -13 170 6T99 66T75 169ZM475 208H395V460Q400 462 410 464T432 467Q454 467 464
459T475 430V208ZM155 208H75V460Q80 462 90 464T113 467Q134 467 144 459T155 430V208ZM259 578L356 687Q378 686 391 675T405 649Q405 636 399 627T379 605L288 516Q269 516 257 526T244 550Q244 559 249 565T259 578Z" />
<glyph unicode="&#xfb;" horiz-adv-x="550" d="M75 169V260H155V173Q155 109 189 81T283 53Q323 53 351 61T395 79V260H475V82Q475 61 470 49T443 24Q421 11 380 -1T282 -13Q216 -13 170 6T99 66T75 169ZM475 208H395V460Q400 462 410 464T432 467Q454 467 464
459T475 430V208ZM155 208H75V460Q80 462 90 464T113 467Q134 467 144 459T155 430V208ZM343 541L278 618Q255 590 233 567T190 520Q172 522 160 531T148 553Q148 564 154 572T170 591L231 657Q244 668 254 674T278 680Q294 680 304 674T325 656L409 556Q409 543
402 533T378 522Q366 522 359 527T343 541Z" />
<glyph unicode="&#xfc;" horiz-adv-x="550" d="M75 169V260H155V173Q155 109 189 81T283 53Q323 53 351 61T395 79V260H475V82Q475 61 470 49T443 24Q421 11 380 -1T282 -13Q216 -13 170 6T99 66T75 169ZM475 208H395V460Q400 462 410 464T432 467Q454 467 464
459T475 430V208ZM155 208H75V460Q80 462 90 464T113 467Q134 467 144 459T155 430V208ZM236 857Q236 838 222 824T186 809Q165 809 152 823T138 857Q138 877 151 891T186 905Q208 905 222 891T236 857ZM409 857Q409 838 395 824T359 809Q339 809 325 823T310 857Q310
877 324 891T359 905Q380 905 394 891T409 857Z" />
<glyph unicode="&#xfd;" horiz-adv-x="489" d="M169 103Q152 135 128 189T79 311T30 449Q37 459 48 465T73 471Q90 471 101 462T119 432Q149 348 182 265T255 93H259Q280 135 303 198T347 331T382 463Q389 466 397 468T416 471Q433 471 444 463T455 437Q455 421
446 384T422 297T386 192T342 83T294 -14Q248 -99 210 -144T140 -190Q117 -190 105 -178T89 -150Q111 -131 138 -100T191 -32T233 38Q216 43 202 56T169 103ZM232 578L329 687Q351 686 364 675T378 649Q378 636 372 627T352 605L261 516Q242 516 230 526T217 550Q217
559 222 565T232 578Z" />
<glyph unicode="&#xfe;" horiz-adv-x="553" d="M77 52H157V619Q157 636 147 645T114 655Q103 655 93 653T77 649V52ZM274 -13Q340 -13 391 14T470 95T499 232Q499 317 468 370T385 449T269 475Q222 475 184 462T126 435L153 379Q173 391 200 400T263 409Q304 409
339 392T396 337T418 232Q418 138 376 96T263 53Q220 53 190 67T139 101V27Q156 12 193 0T274 -13ZM157 75L77 77V-150Q77 -169 88 -178T120 -187Q132 -187 142 -185T157 -180V75Z" />
<glyph unicode="&#xff;" horiz-adv-x="489" d="M169 103Q152 135 128 189T79 311T30 449Q37 459 48 465T73 471Q90 471 101 462T119 432Q149 348 182 265T255 93H259Q280 135 303 198T347 331T382 463Q389 466 397 468T416 471Q433 471 444 463T455 437Q455 421
446 384T422 297T386 192T342 83T294 -14Q248 -99 210 -144T140 -190Q117 -190 105 -178T89 -150Q111 -131 138 -100T191 -32T233 38Q216 43 202 56T169 103ZM208 857Q208 838 194 824T158 809Q137 809 124 823T110 857Q110 877 123 891T158 905Q180 905 194 891T208
857ZM381 857Q381 838 367 824T331 809Q311 809 297 823T282 857Q282 877 296 891T331 905Q352 905 366 891T381 857Z" />
<glyph unicode="&#x2013;" horiz-adv-x="534" d="M446 228H60Q58 235 56 242T54 260Q54 277 63 285T89 294H474Q476 288 478 280T480 263Q480 247 472 238T446 228Z" />
<glyph unicode="&#x2014;" horiz-adv-x="767" d="M678 231H61Q58 238 56 245T54 263Q54 280 63 288T89 297H707Q709 291 711 283T713 266Q713 250 704 241T678 231Z" />
<glyph unicode="&#x2018;" horiz-adv-x="129" d="M51 600Q57 614 65 620T88 627Q96 627 105 624T119 616Q115 591 109 556T99 484T92 417Q83 413 75 412T55 410Q37 410 27 419T16 449Q16 469 22 499T36 557T51 600Z" />
<glyph unicode="&#x2019;" horiz-adv-x="127" d="M79 437Q72 423 64 417T42 410Q33 410 25 413T10 421Q15 446 20 481T30 552T37 619Q46 622 55 623T75 625Q92 625 102 616T113 586Q113 567 107 537T93 480T79 437Z" />
<glyph unicode="&#x201a;" horiz-adv-x="131" d="M79 -121Q72 -135 64 -141T42 -148Q33 -148 25 -145T10 -137Q15 -112 20 -77T30 -6T37 61Q46 64 55 65T75 67Q92 67 102 58T113 28Q113 9 107 -21T93 -78T79 -121Z" />
<glyph unicode="&#x201c;" horiz-adv-x="263" d="M186 600Q192 614 200 620T222 627Q231 627 239 624T252 616Q248 591 243 556T233 484T226 417Q216 413 208 412T189 410Q171 410 162 419T153 449Q153 469 159 499T172 557T186 600ZM50 600Q56 614 64 620T86
627Q94 627 102 624T116 616Q112 591 106 556T96 484T89 417Q80 413 72 412T53 410Q35 410 26 419T16 449Q16 469 22 499T36 557T50 600Z" />
<glyph unicode="&#x201d;" horiz-adv-x="263" d="M76 437Q70 423 63 417T41 410Q32 410 24 413T10 421Q15 446 20 481T30 552T37 619Q46 622 54 623T73 625Q91 625 100 616T110 586Q110 567 104 537T91 480T76 437ZM213 437Q207 423 199 417T177 410Q168 410 160
413T147 421Q152 446 157 481T167 552T174 619Q183 622 191 623T210 625Q228 625 237 616T246 586Q246 567 241 537T227 480T213 437Z" />
<glyph unicode="&#x201e;" horiz-adv-x="263" d="M76 -121Q70 -135 63 -141T41 -148Q32 -148 24 -145T10 -137Q15 -112 20 -77T30 -6T37 61Q46 64 54 65T73 67Q91 67 100 58T110 28Q110 9 104 -21T91 -78T76 -121ZM213 -121Q207 -135 199 -141T177 -148Q168 -148
160 -145T147 -137Q152 -112 157 -77T167 -6T174 61Q183 64 191 65T210 67Q228 67 237 58T246 28Q246 9 241 -21T227 -78T213 -121Z" />
<glyph unicode="&#x2022;" horiz-adv-x="263" d="M49 282Q49 315 71 339T131 364Q168 364 190 340T213 282Q213 249 191 225T131 201Q94 201 72 225T49 282Z" />
<glyph unicode="&#x2039;" horiz-adv-x="279" d="M101 225L239 82Q239 67 230 55T201 42Q188 42 177 50T156 69L45 192Q41 199 38 207T35 226Q35 242 39 250T50 265L195 416Q215 412 224 403T234 380Q234 368 228 359T207 334L101 225Z" />
<glyph unicode="&#x203a;" horiz-adv-x="279" d="M177 233L40 376Q40 391 49 403T77 416Q91 416 102 408T122 389L234 266Q239 259 241 251T244 232Q244 216 240 208T228 193L83 42Q64 47 55 56T45 78Q45 90 51 99T72 124L177 233Z" />
</font>
</defs>
</svg>
