<?xml version="1.0" standalone="no"?>
<!DOCTYPE svg PUBLIC "-//W3C//DTD SVG 1.1//EN" "http://www.w3.org/Graphics/SVG/1.1/DTD/svg11.dtd">
<svg xmlns="http://www.w3.org/2000/svg">
<defs >
<font id="HachiMaruPop" horiz-adv-x="990" ><font-face
    font-family="Hachi Maru Pop"
    units-per-em="1000"
    panose-1="0 0 0 0 0 0 0 0 0 0"
    ascent="1160"
    descent="-288"
    alphabetic="0" />
<glyph unicode=" " glyph-name="space" horiz-adv-x="600" />
<glyph unicode="!" glyph-name="exclam" horiz-adv-x="500" d="M246 205Q235 205 226 213T216 235V707Q216 722 226 729T246 737Q259 737 267 729T276 707V235Q276 219 267 212T246 205ZM246 -100Q191 -100 155 -66T119 23Q119 79 155 113T246 147Q301 147 337
113T374 23Q374 -29 338 -64T246 -100ZM246 -43Q280 -43 298 -24T317 23Q317 54 298 72T246 90Q211 90 194 72T176 23Q176 -7 194 -25T246 -43Z" />
<glyph unicode="&quot;" glyph-name="quotedbl" horiz-adv-x="500" d="M314 548Q287 548 287 576V687Q287 699 294 707T314 715Q327 715 335 708T343 687V576Q343 561 334 555T314 548ZM194 548Q167 548 167 576V687Q167 699 174 707T194 715Q206 715 214 708T223
687V576Q223 560 214 554T194 548Z" />
<glyph unicode="#" glyph-name="numbersign" horiz-adv-x="800" d="M192 -87Q176 -87 167 -77T161 -51L201 118H98Q82 118 75 128T68 148Q68 159 76 168T98 178H215L281 460H149Q133 460 126 469T119 490Q119 502 127 511T149 520H295L334 686Q336 699 344 704T361
709Q367 709 370 708Q385 706 390 695T393 673L357 520H561L600 686Q604 703 614 706T636 708Q650 707 655 695T658 673L622 520H711Q723 520 732 512T741 490Q741 477 733 469T711 460H608L542 178H660Q676 178 683 169T690 148Q690 118 660 118H528L485 -64Q483
-77 475 -82T458 -87Q452 -87 449 -86Q439 -84 433 -78T426 -60Q426 -54 427 -51L466 118H263L220 -64Q215 -87 192 -87ZM277 178H481L547 460H343L277 178Z" />
<glyph unicode="$" glyph-name="dollar" horiz-adv-x="641" d="M311 -133Q300 -133 291 -126T281 -103V-49Q202 -47 148 -21T48 57Q40 65 40 76Q40 88 51 99Q59 107 71 107Q85 107 93 96Q171 9 281 9V277Q238 287 195 300T117 336T61 391T44 476Q44 521 65 555T122
614T199 651T281 668V723Q281 740 290 746T311 753Q322 753 331 745T341 723V668Q374 668 412 659T488 633T554 589T598 528Q601 522 601 516Q601 495 582 489Q575 486 569 486Q552 486 543 504Q528 540 496 562T424 596T341 610V327Q403 313 454 294T536 241T572
145Q574 83 543 43T458 -19T341 -48V-103Q341 -119 331 -126T311 -133ZM281 338V610Q199 603 154 570T104 474Q104 427 124 401T185 362T281 338ZM341 11Q384 15 423 30T487 72T512 140Q512 181 488 204T424 241T341 266V11Z" />
<glyph unicode="%" glyph-name="percent" horiz-adv-x="739" d="M220 348Q166 348 126 370T63 432T40 522Q40 601 89 648T220 696Q274 696 314 673T377 611T400 522Q400 471 378 432T315 371T220 348ZM81 -65Q69 -57 69 -42Q69 -33 75 -23L619 675Q628 687 641
687Q651 687 661 680Q675 670 675 659Q675 654 673 649T667 639L123 -60Q114 -72 100 -72Q90 -72 81 -65ZM220 408Q276 408 308 440T340 522Q340 572 307 604T220 636Q159 636 130 606T100 522Q100 470 133 439T220 408ZM519 -83Q468 -83 428 -61T364 0T340 90Q340
170 388 217T519 265Q572 265 612 242T676 180T699 90Q699 39 676 0T612 -61T519 -83ZM519 -23Q576 -23 607 8T639 90Q639 141 607 173T519 205Q458 205 429 174T400 90Q400 38 432 8T519 -23Z" />
<glyph unicode="&amp;" glyph-name="ampersand" horiz-adv-x="716" d="M289 -92Q234 -92 184 -77T97 -30T47 53Q40 80 40 106Q40 152 62 188T126 256T220 322Q183 375 158 427T132 537Q132 585 154 620T215 674T303 694Q350 694 388 675T450 620T473 538Q473 459
428 405T310 306Q341 270 379 231T460 156T540 88Q566 125 586 170T610 260Q612 277 621 282T642 288Q659 286 664 277T670 256Q666 202 643 150T588 51Q597 45 615 32T651 7T673 -8Q681 -13 683 -19T686 -33Q686 -44 680 -50Q671 -64 656 -64Q648 -64 639 -58Q634
-54 626 -49T601 -31T551 4Q503 -48 433 -70T289 -92ZM274 354Q332 391 372 432T412 532Q412 579 378 606T300 634Q256 634 224 607T192 534Q192 508 204 477T235 413T274 354ZM292 -32Q349 -32 408 -14T504 41Q440 92 374 154T258 275Q211 246 176 221T121 167T101
103Q101 95 102 86T106 67Q115 32 144 10T212 -22T292 -32Z" />
<glyph unicode="&apos;" glyph-name="quotesingle" horiz-adv-x="500" d="M126 538Q123 536 117 536Q107 536 111 549L127 575Q96 578 73 597T49 650Q49 685 71 708T131 732Q165 732 189 710T214 654Q214 619 188 586T126 538Z" />
<glyph unicode="(" glyph-name="parenleft" horiz-adv-x="500" d="M400 -128Q339 -102 291 -56T210 50T159 175T141 308Q141 403 173 492T263 651T401 753Q404 755 407 755T412 755Q426 755 434 746T442 726Q442 707 424 697Q348 662 299 603T225 469T201 308Q201
228 226 153T302 18T424 -73Q435 -78 438 -86T442 -101Q442 -113 434 -121T412 -130Q409 -130 406 -130T400 -128Z" />
<glyph unicode=")" glyph-name="parenright" horiz-adv-x="500" d="M85 -128Q79 -131 72 -131Q61 -131 52 -122T43 -100Q43 -80 61 -73Q134 -41 183 18T258 153T284 308Q284 393 260 468T186 602T61 697Q50 702 47 709T43 725Q43 738 51 747T72 756Q78 756 84
753Q146 727 194 680T276 573T327 444T344 308Q344 241 327 174T275 48T193 -56T85 -128Z" />
<glyph unicode="*" glyph-name="asterisk" horiz-adv-x="600" d="M299 42Q287 42 279 49T270 71V203L166 96Q157 86 146 86Q134 86 125 95Q116 104 116 116Q116 127 124 137L257 274L124 410Q116 419 116 431Q116 443 125 452Q133 460 146 460Q160 460 166 451L270
344V472Q270 488 279 494T299 501Q311 501 319 494T328 472V347L432 454Q441 463 452 463Q458 463 463 461T473 455Q483 447 483 434Q483 423 474 414L338 274L475 134Q484 125 484 113Q484 100 474 92Q467 85 457 85Q450 85 443 88T433 94L328 201V71Q328 55 319
49T299 42Z" />
<glyph unicode="+" glyph-name="plus" horiz-adv-x="490" d="M245 62Q232 62 224 70T215 92V242H60Q44 242 37 251T30 272Q30 285 38 293T60 302H215V453Q215 466 223 474T245 483Q275 483 275 453V302H430Q445 302 452 292T460 272Q460 261 452 252T430 242H275V92Q275
62 245 62Z" />
<glyph unicode="," glyph-name="comma" horiz-adv-x="500" d="M166 -80Q146 -93 135 -93Q128 -93 128 -87Q128 -84 131 -78L147 -53Q117 -50 94 -31T71 19Q71 54 93 77T151 100Q187 100 210 77T233 24Q233 -6 214 -34T166 -80Z" />
<glyph unicode="-" glyph-name="hyphen" horiz-adv-x="500" d="M120 240Q105 240 98 250T90 270Q90 283 98 291T120 300H391Q408 300 414 291T421 270Q421 259 413 250T391 240H120Z" />
<glyph unicode="." glyph-name="period" horiz-adv-x="500" d="M149 -86Q112 -86 90 -62T68 -7Q68 28 90 49T149 70Q188 70 209 48T230 -7Q230 -43 208 -64T149 -86Z" />
<glyph unicode="/" glyph-name="slash" horiz-adv-x="300" d="M57 -162Q30 -154 35 -126L215 675Q221 703 251 698Q266 694 271 683T274 662L93 -139Q90 -155 79 -159T57 -162Z" />
<glyph unicode="0" glyph-name="zero" horiz-adv-x="802" d="M401 -99Q284 -99 204 -46T82 99T40 308Q40 430 80 522T200 665T401 716Q523 716 603 665T722 521T762 308Q762 189 719 97T595 -47T401 -99ZM401 -39Q499 -39 566 5T667 128T702 308Q702 413 670 491T572
613T401 656Q299 656 233 614T133 493T100 308Q100 205 134 127T235 5T401 -39Z" />
<glyph unicode="1" glyph-name="one" horiz-adv-x="407" d="M297 -96Q284 -96 276 -89T267 -66V622L79 560Q76 559 74 559T68 558Q58 558 51 565T41 580Q40 584 40 587T40 594Q40 603 44 608T60 617Q80 624 110 634T172 656T229 676T262 687Q285 693 299 693Q327
693 327 664V-66Q327 -82 317 -89T297 -96Z" />
<glyph unicode="2" glyph-name="two" horiz-adv-x="717" d="M79 -79Q62 -79 54 -71T45 -51Q45 -31 69 -21Q114 -5 163 16T260 61T349 107Q396 132 443 165T530 238T593 323T617 417Q617 465 595 504T536 572T453 616T357 632Q305 632 253 616T160 568T97 493Q90
476 73 476Q66 476 57 479Q47 484 44 490T40 504Q40 512 43 519Q71 575 121 613T235 671T362 691Q427 691 484 670T584 611T652 522T677 411Q677 344 644 288T556 183T430 86Q354 34 236 -19H642Q658 -19 665 -29T672 -49Q672 -59 664 -69T642 -79H79Z" />
<glyph unicode="3" glyph-name="three" horiz-adv-x="706" d="M344 -102Q286 -102 230 -94T133 -70Q123 -67 118 -60T113 -45Q113 -32 123 -22T145 -11Q151 -11 155 -14Q190 -28 235 -34T330 -41Q390 -41 445 -28T535 12T570 85Q570 122 542 147T472 186T387 200Q371
200 363 209T354 229Q351 254 383 260Q447 267 497 292T577 357T607 449Q607 513 570 558T473 629T340 654Q292 654 244 644T153 615T81 566Q71 556 60 556Q49 556 39 566Q30 577 30 588Q30 600 39 609Q75 645 124 668T230 702T340 714Q430 714 504 680T622 585T666
443Q666 376 625 321T511 234Q567 212 598 173T629 83Q629 63 625 46Q612 -9 571 -41T471 -88T344 -102Z" />
<glyph unicode="4" glyph-name="four" horiz-adv-x="783" d="M530 -122Q517 -120 509 -112T502 -90L508 32Q484 31 462 31T416 31Q364 31 317 33T225 42Q130 58 85 95T40 195Q40 251 75 333Q115 428 184 520T335 705Q344 715 356 715Q369 715 378 706Q389 696
389 686Q389 673 379 665Q344 634 306 589T232 492T167 388T120 292Q97 235 97 200Q97 167 117 146T181 111Q223 98 282 93T401 87Q430 87 458 88T511 91L530 471Q532 488 541 494T562 500Q579 498 584 489T590 468L571 96Q590 97 601 98T623 101T656 106T717 116Q732
119 741 111T752 92Q757 63 728 57Q704 53 692 51T671 48T652 46T622 42T568 36L562 -93Q561 -109 551 -115T530 -122Z" />
<glyph unicode="5" glyph-name="five" horiz-adv-x="681" d="M82 -87Q55 -81 58 -52Q61 -39 71 -32T94 -28Q134 -35 177 -40T264 -45Q308 -45 350 -40T428 -23Q499 -3 539 43T580 157Q580 234 527 289T390 368Q364 376 336 379T279 382Q229 382 178 373T79 349Q76
348 73 348T67 347Q57 347 49 355T40 377V661Q40 675 49 683T68 691Q79 693 88 687T99 668H602Q618 668 625 659T632 638Q632 627 624 618T602 608H100V417Q144 429 189 435T279 442Q362 442 433 417Q493 396 540 358T614 268T641 153Q641 101 617 56T550 -24T452
-79Q412 -94 365 -100T269 -107Q222 -107 175 -102T82 -87Z" />
<glyph unicode="6" glyph-name="six" horiz-adv-x="756" d="M381 -111Q311 -111 249 -90T140 -28T67 69T40 193Q40 294 73 381T164 537T299 653T462 722Q468 724 471 724Q491 724 497 701Q500 690 494 679T474 663Q373 632 292 569T161 421Q209 450 265 464T378
479Q447 479 508 459T616 400T689 306T716 183Q716 89 671 23T549 -78T381 -111ZM385 -46Q462 -46 522 -23T618 48T654 167Q654 247 619 301T523 383T383 411Q327 411 273 398T176 360T111 296Q107 275 105 255T103 215Q103 133 138 75T236 -15T385 -46Z" />
<glyph unicode="7" glyph-name="seven" horiz-adv-x="773" d="M460 -110Q447 -110 437 -102T426 -81Q426 -77 428 -71Q455 22 491 132T571 364T659 607H103Q96 607 91 610Q91 588 93 555T100 486T111 421T127 376Q134 368 134 358Q134 343 121 334Q112 328 102
328Q88 328 79 341Q68 355 59 385T44 456T34 540T30 620Q30 643 31 662T36 694Q38 708 46 712T65 717Q83 717 89 709T95 689Q95 678 92 666Q94 667 98 667T118 667T173 667H702Q733 667 733 641Q733 635 730 627Q673 485 630 362T552 129T486 -88Q478 -110 460
-110Z" />
<glyph unicode="8" glyph-name="eight" horiz-adv-x="816" d="M366 -114Q314 -114 264 -104T172 -72T107 -19T83 52Q83 100 110 136T178 201T264 253Q202 278 151 310T70 387T40 491Q40 542 65 582T135 652T233 696T345 711Q421 711 495 691T626 629T710 525Q713
519 713 513Q713 501 704 493T681 484Q664 484 656 501Q634 550 588 583T482 634T360 651Q312 651 266 642T184 613T125 564T103 495Q103 441 136 403T222 338T334 287Q415 327 471 354T565 401T632 433T684 456T736 477Q742 480 748 480Q759 480 767 472T776 449Q776
432 758 423Q724 409 700 399T653 377T601 351T526 314T411 257Q482 230 538 201T628 139T661 64Q661 19 635 -14T565 -69T469 -103T366 -114ZM358 -53Q396 -53 438 -47T517 -26T578 9T602 61Q602 96 540 132T338 223Q292 200 249 176T177 124T149 59Q149 18 180
-6T260 -42T358 -53Z" />
<glyph unicode="9" glyph-name="nine" horiz-adv-x="809" d="M582 -101Q567 -101 559 -91T551 -71Q551 -67 553 -61L624 161Q571 120 508 96T385 71Q274 71 197 113T80 227T40 390Q40 465 66 528T139 637T249 709T389 735Q486 735 565 699T698 597T768 442Q771
426 763 418T744 406Q734 403 723 409T709 430Q694 505 649 560T539 646T400 677Q314 677 247 640T142 539T103 394Q103 316 139 257T237 164T373 131Q477 131 559 188T682 346Q687 357 695 363T711 368Q741 359 741 337Q741 334 741 332T739 326L610 -80Q606 -92
598 -96T582 -101Z" />
<glyph unicode=":" glyph-name="colon" horiz-adv-x="500" d="M259 360Q222 360 202 381T182 435Q182 469 202 489T259 510Q297 510 317 489T337 435Q337 401 316 381T259 360ZM259 53Q221 53 202 74T182 128Q182 163 202 183T259 203Q297 203 317 182T337 128Q337
94 316 74T259 53Z" />
<glyph unicode=";" glyph-name="semicolon" horiz-adv-x="500" d="M259 360Q222 360 202 381T182 435Q182 469 202 489T259 510Q297 510 317 489T337 435Q337 401 316 381T259 360ZM256 10Q253 9 251 9T246 8Q237 8 241 21L257 46Q225 49 203 68T181 119Q181 155
202 177T261 200Q296 200 319 179T342 123Q342 81 317 55T256 10Z" />
<glyph unicode="&lt;" glyph-name="less" horiz-adv-x="524" d="M445 -37L44 266Q30 277 30 290Q30 305 44 314L445 619Q453 626 463 626Q476 626 487 613Q494 603 494 594Q494 580 482 571L112 290L481 10Q494 0 494 -13Q494 -22 487 -31Q477 -44 463 -44Q454
-44 445 -37Z" />
<glyph unicode="=" glyph-name="equal" horiz-adv-x="431" d="M60 330Q44 330 37 340T30 360Q30 371 38 380T60 390H371Q387 390 394 381T401 360Q401 330 371 330H60ZM60 130Q45 130 38 140T30 160Q30 172 38 181T60 190H371Q387 190 394 181T401 160Q401 147
393 139T371 130H60Z" />
<glyph unicode="&gt;" glyph-name="greater" horiz-adv-x="524" d="M79 -37Q71 -44 61 -44Q48 -44 37 -31Q30 -22 30 -13Q30 1 43 10L413 290L43 571Q31 580 31 596Q31 606 37 613Q48 626 62 626Q71 626 79 619L481 314Q494 303 494 290Q494 277 480 266L79 -37Z" />
<glyph unicode="?" glyph-name="question" horiz-adv-x="800" d="M379 150Q371 150 360 156T349 180V263Q349 282 363 289T399 298Q470 309 524 329T610 390T641 498Q641 545 616 580T550 639T457 675T354 687Q315 687 273 680T196 656T137 615Q128 605 117 605Q104
605 95 614Q85 624 85 635Q85 646 94 656Q124 688 166 707T255 736T347 745Q416 745 480 729T593 682T672 605T701 502Q701 417 662 362T556 276T409 236V180Q409 165 399 158T379 150ZM372 -130Q317 -130 281 -96T245 -6Q245 51 282 84T372 117Q427 117 463 84T499
-6Q499 -61 464 -95T372 -130ZM372 -73Q407 -73 424 -55T442 -6Q442 29 422 44T372 60Q338 60 320 42T302 -6Q302 -37 320 -55T372 -73Z" />
<glyph unicode="@" glyph-name="at" horiz-adv-x="1000" d="M476 -138Q380 -138 301 -107T163 -17T73 119T41 290Q41 382 74 460T168 596T309 686T482 719Q618 719 720 667T880 521T937 297Q937 252 929 202T903 106T860 33T798 5Q767 5 744 22T705 68Q678 43
640 26T562 1T483 -8Q401 -8 341 28T247 125T213 265Q213 347 248 410T346 509T486 546Q534 546 585 533T674 492Q677 503 686 505T703 508Q716 508 724 499T731 476Q729 430 727 389T725 311Q725 263 728 221T741 137Q748 109 762 89T795 69Q806 69 818 79T841
112Q852 138 860 172T872 239T877 297Q877 411 827 492T688 616T482 659Q401 659 332 631T210 552T130 434T101 290Q101 181 147 101T277 -26T476 -78Q511 -78 550 -74T625 -61T685 -36Q694 -30 702 -30Q710 -30 716 -34T727 -43Q734 -50 734 -60Q734 -75 719 -85Q688
-105 646 -117T560 -133T476 -138ZM486 51Q519 51 558 60T631 88T681 132Q671 173 667 213T663 297Q663 353 666 417Q629 454 586 470T487 486Q423 486 375 458T300 381T273 271Q273 207 301 158T378 80T486 51Z" />
<glyph unicode="A" glyph-name="A" horiz-adv-x="891" d="M106 -72Q95 -72 87 -66T76 -47Q69 1 65 48T60 142Q60 216 72 286T109 422Q140 501 190 559T304 651T444 684Q520 684 586 649T702 555T781 420Q807 356 819 283T831 132Q831 87 828 43T817 -46Q816 -60
807 -66T787 -72Q775 -72 765 -63T757 -38Q762 0 765 39T768 118Q768 195 756 268T718 403Q693 465 651 514T556 591T440 620Q380 620 330 594T242 521T177 417T137 294H684Q700 294 707 285T714 264Q714 253 706 244T684 234H127Q125 216 124 194T122 147Q122
99 126 49T135 -37Q137 -54 127 -63T106 -72Z" />
<glyph unicode="B" glyph-name="B" horiz-adv-x="793" d="M377 -77Q340 -77 303 -74T228 -67Q213 -65 207 -54T201 -34Q201 -23 210 -15T234 -8Q269 -12 305 -15T377 -18Q422 -18 471 -11T561 10T629 49T655 106Q655 155 601 182T448 209Q433 208 424 217T415
237Q415 257 426 262T455 269Q519 273 573 296T661 358T695 444Q695 493 668 527T594 584T492 616T380 626Q330 626 271 620T142 596L165 -40Q165 -53 157 -62T135 -71Q105 -71 105 -42L80 652Q80 668 88 675T108 683Q120 683 129 677T140 657Q272 687 376 687Q447
687 514 673T636 629T721 554T753 446Q753 385 714 331T606 245Q655 223 685 187T715 106Q715 57 686 23T607 -34T497 -66T377 -77Z" />
<glyph unicode="C" glyph-name="C" horiz-adv-x="791" d="M444 -81Q323 -81 232 -34T91 99T40 300Q40 386 70 457T155 581T283 663T444 692Q530 692 607 659T743 563Q751 553 751 543Q751 531 741 521Q734 512 721 512Q708 512 699 522Q649 576 584 604T444 632Q345
632 267 590T145 473T100 300Q100 201 143 129T263 18T444 -21Q515 -21 578 4T690 79Q699 88 711 88Q723 88 732 79Q741 70 741 58Q741 45 732 36Q677 -19 601 -50T444 -81Z" />
<glyph unicode="D" glyph-name="D" horiz-adv-x="817" d="M327 -88Q249 -88 166 -73Q153 -70 147 -61Q143 -69 134 -71T115 -73Q92 -65 92 -44L80 629Q80 644 90 652T111 660Q122 660 129 653Q135 659 142 659Q181 666 220 669T298 673Q397 673 484 647T637 569T740
445T777 280Q777 193 742 125T645 9T502 -63T327 -88ZM333 -31Q413 -31 483 -10T606 51T689 150T719 281Q719 360 686 422T596 527T463 593T304 616Q231 616 157 601Q156 601 154 601T149 600Q144 600 140 602L152 -21Q162 -11 179 -14Q259 -31 333 -31Z" />
<glyph unicode="E" glyph-name="E" horiz-adv-x="773" d="M321 -84Q256 -84 213 -76T145 -45T106 17T87 119Q83 148 82 178T80 240Q80 320 89 407T108 592Q94 592 87 603T81 623Q81 635 88 643T110 652L683 664Q699 664 706 655T713 635Q715 623 708 614T684 604L169
594Q159 515 152 423T144 246Q144 209 145 175T151 112Q157 54 174 24T223 -16T306 -26Q357 -26 423 -22T556 -11T678 5Q695 9 704 -2T713 -25Q713 -38 706 -44T688 -53Q630 -62 586 -68T501 -77T418 -82T321 -84ZM208 270Q193 270 186 279T177 299Q177 311 185
320T207 330L657 341Q673 341 680 332T688 312Q688 299 681 290T659 281L208 270Z" />
<glyph unicode="F" glyph-name="F" horiz-adv-x="811" d="M173 -83Q143 -88 137 -60Q119 17 112 112T105 309Q105 381 108 454T115 598Q80 598 80 628Q80 641 88 649T110 658L721 663Q737 663 744 654T751 633Q753 623 745 613T722 603L175 598Q171 528 168 457T165
315Q165 215 172 123T195 -46Q198 -62 191 -71T173 -83ZM206 229Q190 229 183 238T175 258Q175 270 183 279T204 288L670 297Q686 297 693 288T700 268Q702 255 694 246T671 237L206 229Z" />
<glyph unicode="G" glyph-name="G" horiz-adv-x="829" d="M628 -100Q615 -100 606 -93T596 -72L595 -27Q558 -42 516 -49T430 -57Q346 -57 275 -29T152 50T70 172T40 328Q40 414 70 485T156 608T285 688T446 716Q508 716 568 700T681 651Q696 643 696 628Q696
619 691 609Q681 595 666 595Q657 595 650 600Q604 627 553 640T449 653Q376 653 313 630T202 564T127 461T100 328Q100 232 142 159T258 44T428 3Q516 3 592 35L586 213H406Q390 213 383 223T376 243Q376 255 383 264T406 273H769Q786 273 792 264T799 243Q799
232 791 223T769 213H646L656 -69Q658 -85 648 -92T628 -100Z" />
<glyph unicode="H" glyph-name="H" horiz-adv-x="878" d="M158 -76Q128 -81 122 -52Q100 59 90 164T80 382Q80 443 82 507T89 640Q89 656 100 663T121 668Q134 667 142 659T149 636Q147 603 145 553T142 451T140 358Q140 345 140 333T141 313H678Q695 313 701
304T708 283Q708 270 700 262T678 253H144Q149 180 158 101T181 -40Q184 -55 176 -64T158 -76ZM748 -76Q736 -74 727 -65T721 -43Q730 68 734 184T738 427Q738 475 738 525T736 627Q736 642 746 649T766 658Q779 658 787 650T796 628Q797 576 797 526T798 428Q798
300 794 184T780 -48Q780 -64 770 -70T748 -76Z" />
<glyph unicode="I" glyph-name="I" horiz-adv-x="544" d="M475 -59Q434 -62 386 -63T289 -65Q228 -65 171 -63T67 -55Q40 -52 40 -23Q42 -10 50 -3T72 3Q86 2 101 1T147 -1T242 -4V593Q242 599 244 605L82 596Q66 593 58 604T49 627Q49 638 55 646T75 656Q128
661 180 664T286 667Q330 667 375 665T467 659Q482 659 488 648T495 626Q490 596 462 599Q426 603 382 604T300 605Q301 604 302 593V-4Q337 -4 373 -3T472 0Q487 2 495 -7T504 -28Q504 -40 497 -48T475 -59Z" />
<glyph unicode="J" glyph-name="J" horiz-adv-x="833" d="M293 -77Q256 -77 218 -68T141 -43Q131 -38 127 -31T123 -16Q123 -10 125 -4Q131 13 151 13Q158 13 165 10Q197 -3 229 -10T292 -18Q372 -18 439 27Q508 72 542 142T576 294Q576 358 557 419Q544 463 524
499T485 559T460 592Q421 592 371 591T268 587T165 581T73 575Q57 574 49 583T40 602Q39 613 46 623T67 634Q183 642 278 646T464 651Q536 651 610 648T767 637Q784 634 789 625T793 604Q790 574 761 577Q737 579 705 581T640 585T579 589T536 591Q602 500 625
404Q637 350 637 297Q637 194 592 108T461 -31Q382 -77 293 -77Z" />
<glyph unicode="K" glyph-name="K" horiz-adv-x="761" d="M122 -72Q109 -72 101 -64T92 -42L80 680Q80 696 90 703T110 710Q121 712 130 704T140 681L146 338Q175 378 229 421T352 506T495 587T641 658Q649 661 655 661Q673 661 681 644Q684 637 684 630Q684 612
667 604Q622 582 564 553T444 489T328 419T235 350T186 288Q197 262 234 232T326 171T442 110T566 55T681 12Q701 2 701 -14Q701 -22 699 -25Q691 -45 672 -45Q669 -45 661 -43Q595 -18 519 13T370 81T237 155T147 233L152 -41Q152 -56 143 -63T122 -72Z" />
<glyph unicode="L" glyph-name="L" horiz-adv-x="780" d="M362 -86Q347 -86 333 -86T307 -85Q236 -80 192 -65T123 -20T89 59T80 178Q80 241 87 317T107 477T133 643Q135 657 143 662T161 667Q177 667 186 658T192 633Q189 609 183 566T170 470T157 366T145 273T139
212Q139 200 139 189T138 167Q138 96 150 54T198 -6T303 -28Q311 -28 319 -28T336 -29Q381 -29 441 -25T569 -15T707 -3Q723 -1 731 -10T740 -30Q743 -60 713 -63Q658 -69 596 -74T473 -82T362 -86Z" />
<glyph unicode="M" glyph-name="M" horiz-adv-x="978" d="M799 -65Q792 -65 789 -63Q768 -55 768 -36Q768 -34 768 -31T770 -25Q799 61 818 153T837 327Q837 336 837 345T836 362Q833 419 816 467T768 546T693 583Q653 587 620 568T564 515T532 436Q529 422 521
415T503 409Q492 409 484 418T473 440Q462 488 438 526T380 587T305 610Q257 610 224 577T171 493T146 386Q144 369 143 352T142 315Q142 236 158 148T200 -26Q201 -29 201 -31T202 -36Q202 -47 195 -54T180 -63Q178 -64 175 -64T170 -64Q151 -64 143 -43Q115 46
98 140T80 322Q80 344 81 365T85 405Q92 469 116 526T181 623T275 669Q292 672 309 672Q374 672 427 634T509 537Q535 592 582 621T681 651Q732 651 779 622T859 531T897 371Q898 362 898 353T898 333Q898 244 878 144T826 -45Q823 -55 815 -60T799 -65Z" />
<glyph unicode="N" glyph-name="N" horiz-adv-x="857" d="M124 -72Q113 -72 104 -65T92 -44Q86 30 83 113T80 281Q80 372 83 462T92 635Q94 652 104 658T124 663Q142 660 148 650T152 624Q197 579 231 545T296 479T362 413T442 331T549 222T699 69Q707 146 711
231T716 404Q716 462 714 519T709 631Q708 645 717 654T741 663Q751 663 759 656T769 635Q773 577 775 522T777 410Q777 300 769 190T747 -40Q746 -54 737 -60T718 -67Q703 -67 694 -57T687 -33Q687 -29 688 -20T690 -8L147 546Q143 483 141 419T139 291Q139 208
142 125T152 -39Q154 -55 145 -62T124 -72Z" />
<glyph unicode="O" glyph-name="O" horiz-adv-x="859" d="M430 -86Q314 -86 226 -38T89 96T40 294Q40 413 87 498T221 630T430 676Q550 676 637 628T771 495T819 294Q819 210 790 141T709 21T585 -58T430 -86ZM430 -26Q528 -26 602 15T717 128T759 294Q759 394
719 466T605 577T430 616Q272 616 186 531T100 294Q100 197 141 125T257 14T430 -26Z" />
<glyph unicode="P" glyph-name="P" horiz-adv-x="802" d="M133 -73Q120 -73 112 -66T103 -44L80 637Q80 668 112 668Q133 668 139 647Q256 694 349 700Q360 701 371 701T394 702Q504 702 590 658T725 525Q762 453 762 378Q762 324 743 273T685 179Q630 116 548
89T374 62Q327 62 280 68T185 86Q173 88 168 96T162 113Q162 117 164 123Q170 145 195 145Q199 145 202 145T209 143Q253 131 299 125T388 118Q464 118 530 140T642 213Q706 286 706 377Q706 445 670 506Q627 577 556 611T398 645Q382 645 365 644T330 640Q245
629 142 583L163 -42Q163 -58 154 -65T133 -73Z" />
<glyph unicode="Q" glyph-name="Q" horiz-adv-x="868" d="M434 -94Q315 -94 226 -44T89 96T40 301Q40 418 89 507T227 646T434 697Q553 697 641 646T779 506T828 301Q828 228 809 161T750 44L786 19Q798 10 798 -3Q798 -12 793 -20Q783 -33 770 -33Q763 -33 754
-27L712 1Q655 -51 583 -72T434 -94ZM434 -37Q502 -37 560 -20T663 34L495 149Q483 160 483 173Q483 182 488 189Q498 202 511 202Q519 202 528 196L703 76Q741 126 756 183T772 301Q772 404 729 480T610 598T434 640Q331 640 256 597T139 478T97 301Q97 201 138
125T256 6T434 -37Z" />
<glyph unicode="R" glyph-name="R" horiz-adv-x="807" d="M133 -82Q105 -82 102 -53L80 633Q80 659 107 663Q117 665 126 660T139 641Q202 666 265 678T386 690Q466 690 535 670T657 611T738 519T767 399Q767 371 762 342T744 280Q718 210 664 167T538 101L661
-8Q672 -16 672 -29Q672 -41 663 -50Q653 -60 641 -60Q631 -60 621 -52L468 83Q411 74 349 74Q300 74 252 79T158 92L162 -51Q162 -68 153 -75T133 -82ZM156 153Q203 145 250 141T342 136Q421 136 489 151T607 201T681 293Q693 321 698 347T704 396Q704 469 660
521T541 601T378 630Q321 630 261 617T142 577L156 153Z" />
<glyph unicode="S" glyph-name="S" horiz-adv-x="762" d="M327 -84Q311 -82 305 -72T299 -52Q299 -40 307 -32T330 -24Q345 -25 360 -25T390 -26Q450 -26 496 -17T570 15T597 80Q597 108 583 120T545 136T493 140Q456 140 418 137T338 133Q254 133 187 162T80
246T40 381Q40 450 68 510T145 616T258 686T394 712Q473 712 554 683T710 599Q717 594 719 587T722 573Q722 563 717 555Q707 540 692 540Q684 540 676 546Q609 593 536 620T393 647Q336 647 285 626T193 568T130 484T107 384Q107 318 140 276T230 213T360 193Q404
193 445 196T517 199Q579 199 620 165T661 76Q661 16 624 -19T523 -70T379 -85Q366 -85 354 -85T327 -84Z" />
<glyph unicode="T" glyph-name="T" horiz-adv-x="865" d="M433 -73Q422 -73 413 -65T403 -43V588L60 595Q45 595 38 605T30 625Q33 655 61 655L805 641Q818 641 826 633T835 610Q835 597 827 589T804 581L463 587V-43Q463 -58 454 -65T433 -73Z" />
<glyph unicode="U" glyph-name="U" horiz-adv-x="819" d="M437 -83Q340 -83 266 -51T141 40T66 175T40 340Q40 412 57 488T109 640Q113 649 120 653T135 657Q150 657 158 649T166 626Q166 622 165 617T162 606Q133 541 119 476T104 349Q104 247 142 164T254 31T437
-19Q537 -19 598 25T688 146T717 315Q717 384 703 459T663 608Q660 614 660 619Q660 631 671 640T692 649Q712 649 720 628Q749 547 764 467T779 312Q779 229 759 157T698 31T592 -53T437 -83Z" />
<glyph unicode="V" glyph-name="V" horiz-adv-x="842" d="M429 -78Q383 -78 343 -52T267 17T202 115T148 226Q83 376 31 591Q28 606 36 617T60 628Q69 628 77 623T89 606Q127 458 166 344T249 151Q338 -12 428 -12Q510 -12 593 133Q635 209 675 327T752 605Q754
618 762 623T779 628Q798 628 806 617T811 592Q785 477 757 383T696 214Q673 160 645 108T584 14T512 -53T429 -78Z" />
<glyph unicode="W" glyph-name="W" horiz-adv-x="994" d="M291 -78Q246 -78 211 -53T152 16T111 114T88 225T80 336Q80 401 91 471T121 605Q125 619 134 624T152 629Q167 629 175 620T180 595Q162 516 154 447T145 318Q145 257 153 199T180 94T228 20T300 -8Q336
-8 367 14T426 73T473 149Q484 173 499 171Q514 171 529 150Q554 114 584 79T646 20T708 -5Q738 -8 761 10T800 60T826 129T841 203Q850 263 850 330Q850 399 841 468T815 596Q814 598 814 601T814 606Q814 619 823 624T844 629Q869 629 874 604Q893 534 903 463T914
320Q914 240 899 166Q886 106 862 51T800 -41T710 -77Q673 -77 637 -57T567 -3T504 71Q460 7 403 -35T291 -78Z" />
<glyph unicode="X" glyph-name="X" horiz-adv-x="746" d="M58 -63Q46 -54 46 -40Q46 -29 53 -21Q93 30 142 88T242 204T339 312Q307 345 279 373T218 431T144 502T40 599Q30 609 30 621Q30 631 38 642Q48 652 60 652Q72 652 81 643Q146 583 197 534T292 443T379
356Q406 385 442 421T517 498T595 575T665 643Q676 652 686 652Q699 652 707 642Q716 633 716 621Q716 609 706 600Q633 530 560 456T421 313Q497 234 569 148T699 -22Q705 -29 705 -38Q705 -53 692 -63Q683 -69 673 -69Q659 -69 650 -56Q590 28 521 110T380 269Q332
216 283 160T186 48T100 -58Q91 -70 77 -70Q67 -70 58 -63Z" />
<glyph unicode="Y" glyph-name="Y" horiz-adv-x="806" d="M404 -83Q391 -83 383 -75T374 -53V124Q249 135 163 212T43 416Q36 442 33 472T30 534Q30 558 32 581T37 627Q39 641 47 647T66 653Q81 653 90 645T97 619Q94 599 93 579T92 538Q92 479 104 426Q125 350
168 295T273 211T407 181Q481 181 541 211T644 297T706 428Q712 453 714 477T717 525Q717 549 715 572T709 619Q708 638 717 645T738 653Q748 653 757 647T769 628Q773 603 774 578T776 526Q776 498 774 471T765 417Q734 288 647 211T434 124V-53Q434 -69 425 -76T404
-83Z" />
<glyph unicode="Z" glyph-name="Z" horiz-adv-x="819" d="M77 -37Q61 -35 55 -26T48 -6Q48 5 57 13T80 21L102 20L659 584Q620 587 558 588T424 590Q352 590 282 588T157 582T78 570Q68 566 56 573T41 592Q36 621 64 629Q93 636 149 641T276 648T421 651Q493 651
560 649T680 641T758 628Q770 624 774 616T779 600Q779 593 778 590Q769 569 755 569Q751 569 746 570T732 573L185 18Q218 17 275 17T399 16Q466 16 533 16T654 18T738 21Q755 23 764 12T773 -10Q773 -20 767 -27T747 -37Q717 -39 664 -40T545 -42T410 -43Q341
-43 276 -43T158 -41T77 -37Z" />
<glyph unicode="[" glyph-name="bracketleft" horiz-adv-x="500" d="M245 -101Q233 -101 224 -92T215 -71V724Q215 736 224 745T245 754H417Q433 754 440 745T447 724Q447 713 439 704T417 694H275V-41H417Q433 -41 440 -50T447 -71Q447 -83 439 -92T417 -101H245Z" />
<glyph unicode="\" glyph-name="backslash" horiz-adv-x="300" d="M241 -162Q221 -162 216 -139L35 662Q32 672 38 683T58 698Q72 700 81 696T94 675L274 -126Q276 -134 276 -137Q276 -149 266 -155T241 -162Z" />
<glyph unicode="]" glyph-name="bracketright" horiz-adv-x="500" d="M95 -101Q81 -101 73 -91T65 -71Q65 -59 73 -50T95 -41H237V694H95Q80 694 73 704T65 724Q65 735 73 744T95 754H267Q279 754 288 745T297 724V-71Q297 -83 288 -92T267 -101H95Z" />
<glyph unicode="^" glyph-name="asciicircum" horiz-adv-x="389" d="M80 542Q76 538 71 537T61 536Q45 536 38 546Q30 556 30 566Q30 579 42 588Q63 606 87 627T133 667T163 691Q180 704 195 704Q210 704 227 691Q236 685 257 666T304 626T348 588Q359 580 359
566Q359 555 352 546Q341 535 328 535Q319 535 309 542L195 637L80 542Z" />
<glyph unicode="_" glyph-name="underscore" horiz-adv-x="500" d="M80 -9Q63 -9 57 0T50 21Q50 34 58 42T80 50H421Q436 50 443 41T451 21Q451 8 443 0T421 -9H80Z" />
<glyph unicode="`" glyph-name="grave" horiz-adv-x="500" d="M272 643L184 715Q172 726 172 738Q172 751 183 762Q194 773 207 773Q219 773 230 763L317 691Q328 681 328 668Q328 654 318 644Q310 633 296 633Q283 633 272 643Z" />
<glyph unicode="a" glyph-name="a" horiz-adv-x="739" d="M382 -81Q374 -82 366 -82T349 -82Q260 -82 190 -45T80 59T40 210Q40 290 71 357T161 470T298 527Q309 529 322 530T348 531Q402 531 460 517T559 476Q564 487 575 489T593 490Q604 489 610 480T616 459Q615
436 615 414T614 370Q614 258 630 171T693 19Q699 10 699 1Q699 -11 690 -19T669 -27Q654 -27 644 -14Q634 0 625 17T609 47Q568 -10 509 -41T382 -81ZM362 -23Q430 -23 487 15T581 119Q566 175 559 249T553 403Q533 425 500 440T428 463T351 471Q326 471 304 468T263
457Q187 429 143 364T98 214Q98 140 133 87T229 6T362 -23Z" />
<glyph unicode="b" glyph-name="b" horiz-adv-x="653" d="M119 -78Q95 -75 92 -51Q85 26 83 109T80 277Q80 370 83 463T92 645Q94 660 102 666T120 673Q139 673 145 664T152 641Q146 546 143 454T139 271Q139 136 148 2Q197 -15 256 -15Q318 -15 378 3T479 53Q516
82 534 124T552 212Q552 271 523 325T435 404Q401 420 357 426T266 432Q244 432 222 431T178 428Q164 425 156 434T146 454Q146 467 153 477T175 488Q226 497 281 497Q334 497 383 488T473 457Q519 433 550 393T597 306T613 209Q613 156 594 106T534 20Q483 -26
409 -49T258 -73Q230 -73 203 -70T150 -60Q147 -72 137 -75T119 -78Z" />
<glyph unicode="c" glyph-name="c" horiz-adv-x="654" d="M258 -78Q188 -56 139 -12T65 91T40 215Q40 286 69 355T153 467Q196 503 258 521T384 540Q446 540 503 523T599 471Q610 460 610 448Q610 439 601 428Q591 418 579 418Q567 418 558 427Q532 453 481 466T377
480Q340 480 306 474T246 454Q176 420 139 355T101 215Q101 139 144 76T267 -16Q318 -34 371 -34Q424 -34 474 -17T562 33Q573 41 583 41Q596 41 606 31Q614 20 614 10Q614 -2 603 -11Q555 -53 495 -74T372 -95Q315 -95 258 -78Z" />
<glyph unicode="d" glyph-name="d" horiz-adv-x="679" d="M356 -73Q258 -73 187 -38T78 64T40 224Q40 310 79 373T185 470T336 505Q421 505 503 470Q519 463 519 448Q519 441 514 434Q505 417 485 417Q478 417 470 420Q406 446 341 446Q270 446 215 416T130 333T99
214Q99 143 131 92T220 14T352 -13Q405 -13 449 -1T526 28Q520 71 517 124T514 236Q514 305 517 376T526 514T539 637Q541 651 549 657T568 664Q580 664 590 655T598 630Q592 578 587 514T579 381T576 243Q576 161 581 89T598 -32Q599 -35 599 -41Q599 -50 593
-58T576 -69Q546 -72 539 -46L537 -34Q500 -53 451 -63T356 -73Z" />
<glyph unicode="e" glyph-name="e" horiz-adv-x="702" d="M475 -63Q451 -70 427 -73T378 -77Q313 -77 253 -54T144 11T68 110T40 235Q40 330 82 403T198 519T364 561Q422 561 475 539T571 476T637 383T662 270Q662 220 631 195T548 160T434 151Q392 151 341 154T240
162T154 173Q140 175 134 183T128 202Q128 216 137 225T163 233Q181 229 219 225T302 217T389 211T457 209Q531 211 568 227T606 282Q606 323 585 362T529 432T451 482T364 501Q308 503 259 482T174 423T117 336T96 232Q96 180 121 135T188 55T281 2T384 -17Q419
-17 455 -6Q458 -5 464 -5Q476 -5 485 -13T495 -36Q495 -44 491 -52T475 -63Z" />
<glyph unicode="f" glyph-name="f" horiz-adv-x="660" d="M226 -83Q206 -83 199 -64Q186 -31 174 13T154 103T140 186H70Q54 186 47 196T40 216Q40 227 48 236T70 246H134Q131 282 131 318Q131 368 137 416T156 503Q184 585 240 629T380 673Q435 673 486 654T573
599T619 516Q623 495 610 486T586 476Q575 476 568 483T557 498Q540 551 492 579T388 607Q318 607 276 571T214 466Q205 433 201 393T197 313Q197 278 200 246H492Q508 246 515 236T522 216Q522 205 514 196T492 186H206Q209 159 219 104T255 -42Q256 -45 256 -48T257
-54Q257 -68 248 -75T226 -83Z" />
<glyph unicode="g" glyph-name="g" horiz-adv-x="674" d="M424 -194Q381 -194 351 -165T323 -92Q329 -49 361 -23T440 17T531 40Q534 70 535 79T538 94Q490 55 428 33T304 11Q245 11 194 32Q119 64 80 130T40 273Q40 355 79 418T187 517T339 553Q399 553 452 533T544
472Q561 472 567 465T576 447Q587 397 593 324T600 180Q600 141 598 106T591 44Q639 44 634 11Q634 0 626 -8T602 -16Q600 -15 596 -15T580 -15Q569 -64 550 -104T501 -169T424 -194ZM237 81Q268 71 305 71Q371 71 436 102T542 185Q542 201 540 231T535 295T528
358T522 400Q505 431 472 452T400 483T322 494Q255 492 206 463T131 384T104 270Q104 203 138 152T237 81ZM426 -136Q451 -136 468 -118T498 -74T517 -23Q489 -29 458 -39T406 -63T384 -100Q384 -115 396 -125T426 -136Z" />
<glyph unicode="h" glyph-name="h" horiz-adv-x="698" d="M132 -83Q104 -83 98 -56Q88 -9 84 62T80 214Q80 287 83 361T91 503T104 619Q106 635 116 641T137 645Q150 644 158 635T164 612Q160 578 156 532T149 435T143 338T141 259Q174 329 234 372T369 415Q465
414 529 374T626 262T658 96Q658 17 638 -58Q631 -81 610 -81Q596 -81 586 -71T580 -44Q597 21 597 87Q597 203 543 274T377 348Q316 348 273 315T202 229Q177 179 165 129T153 25Q153 8 154 -10T158 -48Q160 -64 151 -72T132 -83Z" />
<glyph unicode="i" glyph-name="i" horiz-adv-x="363" d="M182 300Q118 300 79 340T40 438Q40 500 79 538T182 576Q224 576 256 558T305 508T323 438Q323 399 305 368T255 319T182 300ZM182 360Q222 360 243 382T264 438Q264 475 242 495T182 516Q142 516 121
495T100 438Q100 402 122 381T182 360ZM182 -68Q166 -68 159 -60T151 -40Q148 34 148 112Q148 178 151 235Q152 251 162 257T183 262Q195 262 203 253T211 230Q209 220 208 187T207 114Q207 82 207 51T209 -4T211 -35Q211 -52 202 -60T182 -68Z" />
<glyph unicode="j" glyph-name="j" horiz-adv-x="542" d="M361 300Q297 300 258 339T219 438Q219 500 258 538T361 576Q423 576 462 538T502 438Q502 375 461 338T361 300ZM361 360Q401 360 422 382T443 438Q443 475 421 495T361 516Q321 516 300 495T279 438Q279
402 301 381T361 360ZM235 -192Q190 -192 148 -173T75 -121T31 -46Q30 -43 30 -38Q30 -27 37 -18T58 -9Q68 -9 77 -14T89 -30Q98 -58 121 -81T174 -118T237 -132Q276 -132 316 -107T377 -48Q392 -20 399 10T406 71Q406 109 397 147T371 222Q368 230 368 236Q368
250 377 257T399 265Q417 265 425 248Q445 205 455 159T466 69Q466 26 455 -16T418 -93Q399 -120 369 -142T304 -178T235 -192Z" />
<glyph unicode="k" glyph-name="k" horiz-adv-x="635" d="M144 -85Q121 -85 115 -60Q97 64 89 202T80 477Q80 559 83 635Q83 651 93 657T114 664Q127 663 135 655T143 632Q142 605 141 555T140 448Q140 402 140 357T142 278T145 226Q170 259 218 291T325 353T441
404T543 441Q549 443 552 443Q564 443 574 434T584 411Q584 403 579 395T562 384Q473 350 399 320T270 257T189 184Q217 154 263 127T365 77T478 33T584 -3Q605 -12 605 -31Q605 -35 603 -41Q595 -62 577 -62Q574 -62 566 -60Q562 -58 529 -47T445 -17T339 25T233
77T152 134Q157 86 160 54T166 -3T174 -51Q176 -68 166 -76T144 -85Z" />
<glyph unicode="l" glyph-name="l" horiz-adv-x="649" d="M68 -78Q53 -78 47 -69T40 -51Q40 -26 66 -23Q112 -21 163 -10T258 20Q205 60 173 103T127 200T113 324Q113 383 127 439T168 541T235 612T328 639Q401 639 446 601T513 500T535 364Q535 298 518 231T468
108T386 20Q480 -17 583 -23Q609 -26 609 -52Q609 -64 601 -71T581 -78Q519 -75 451 -58T325 -16Q265 -44 199 -60T68 -78ZM317 52Q369 78 403 127T455 237T473 359Q473 419 457 468T408 546T326 574Q291 574 264 551T217 489T187 403T176 309Q176 225 213 157T317
52Z" />
<glyph unicode="m" glyph-name="m" horiz-adv-x="861" d="M708 -62Q695 -62 685 -54T674 -33Q674 -29 676 -23Q696 42 707 111T719 241Q719 296 708 339T671 407T601 433Q549 433 520 399T478 303T457 162Q457 147 447 140T426 132Q413 134 405 143T397 165Q399
179 400 192T401 220Q401 277 385 328T339 412T264 443Q228 443 203 423T162 369T140 296Q141 251 145 196T157 86T172 -14Q175 -29 167 -38T148 -49Q135 -50 126 -45T113 -25Q95 79 88 170T80 365Q80 393 80 422T82 482Q84 499 94 505T114 510Q126 510 135 502T142
479L141 448Q168 477 198 489T263 501Q332 501 373 465T435 371Q458 427 497 459T595 492Q662 492 703 456T762 360T781 227Q781 163 769 94T734 -40Q726 -62 708 -62Z" />
<glyph unicode="n" glyph-name="n" horiz-adv-x="765" d="M614 -74Q601 -74 592 -66T582 -44Q582 -40 584 -34Q601 19 611 77T622 190Q622 297 578 360T437 431Q365 434 313 395T226 292Q195 233 180 158T164 12Q164 2 164 -8T165 -29Q165 -47 155 -54T133 -62Q108
-62 105 -33Q98 30 93 107T84 263T80 408Q80 427 80 444T81 476Q81 493 91 500T112 505Q124 505 132 497T141 475Q142 436 142 407T142 347T143 268Q164 336 205 388T303 469T423 499Q506 499 564 462T654 359T685 205Q685 138 673 75T641 -53Q638 -64 631 -69T614
-74Z" />
<glyph unicode="o" glyph-name="o" horiz-adv-x="718" d="M359 -87Q262 -87 191 -47T80 63T40 227Q40 323 79 393T189 503T359 542Q459 542 530 504T640 395T678 227Q678 132 639 61T529 -48T359 -87ZM359 -24Q482 -24 548 43T615 227Q615 349 546 414T359 479Q241
479 172 412T103 227Q103 149 136 93T227 7T359 -24Z" />
<glyph unicode="p" glyph-name="p" horiz-adv-x="707" d="M128 -188Q118 -188 109 -181T100 -161Q92 -46 86 58T80 258Q80 320 83 378T93 492Q95 508 105 514T126 518Q139 517 146 508T152 485Q146 439 143 364T140 212Q140 158 141 109T147 27Q195 11 243 1T337
-9Q412 -9 472 19T568 101T603 229Q603 300 571 353T485 435T362 465Q322 465 281 455T204 427Q197 423 188 423Q171 423 164 439Q160 446 160 454Q160 469 176 480Q214 501 264 511T365 522Q454 522 522 484T628 379T667 229Q667 137 621 70T497 -33T321 -69Q233
-69 151 -37L159 -156Q161 -173 150 -180T128 -188Z" />
<glyph unicode="q" glyph-name="q" horiz-adv-x="730" d="M625 -185Q613 -186 603 -180T590 -161Q579 -108 574 -34T569 121Q569 198 573 273T583 409Q556 424 519 436T444 457T376 465Q298 465 236 432T138 341T102 210Q102 135 147 76T275 -11Q324 -22 372 -22Q408
-22 441 -15T500 8Q510 13 518 13Q532 13 541 0Q546 -12 546 -18Q546 -32 532 -41Q499 -63 453 -73T358 -84Q321 -84 287 -78T225 -61Q137 -23 89 43T40 198Q40 295 83 368T202 482T378 524Q436 524 488 512T590 472Q593 485 602 491T620 497Q634 497 642 487T649
463Q640 396 635 307T629 129Q629 50 634 -23T649 -150Q652 -163 646 -172T625 -185Z" />
<glyph unicode="r" glyph-name="r" horiz-adv-x="686" d="M184 -68Q171 -68 163 -60T154 -38Q151 17 145 81T129 211T107 338T82 446Q80 454 80 457Q80 470 89 477T110 484Q120 484 128 479T140 463Q151 428 161 380T179 284T191 198Q210 277 255 334T366 423T509
454Q572 454 636 431Q656 422 656 404Q656 374 627 374Q620 374 616 375Q568 391 511 391Q429 391 373 358T283 266T232 130T214 -36Q214 -52 205 -60T184 -68Z" />
<glyph unicode="s" glyph-name="s" horiz-adv-x="597" d="M371 -86Q334 -86 295 -79T217 -61Q197 -55 197 -36Q197 -5 223 -5Q229 -5 233 -6Q282 -19 311 -25T366 -32Q397 -32 425 -23T471 3T490 42Q490 65 468 77T409 97T326 110T230 123Q133 140 82 185T30 325Q30
384 56 430T128 507T230 555T350 572Q405 572 458 558T553 515Q567 505 567 493Q567 484 561 475Q556 468 550 466T537 463Q529 463 521 468Q487 491 443 500T353 510Q281 510 220 489T123 427T86 325Q86 257 124 225T239 179Q294 170 348 164T448 145T520 110T548
43Q548 1 524 -28T460 -71T371 -86Z" />
<glyph unicode="t" glyph-name="t" horiz-adv-x="624" d="M380 -72Q297 -57 242 0T169 142Q164 166 162 191T159 243Q159 286 164 329T178 413H60Q44 413 37 422T30 443Q30 456 38 464T60 473H193Q197 489 206 518T225 576T241 621Q249 639 268 639Q283 639 291
630T300 610Q300 604 297 598Q291 581 283 557T267 511T255 473H531Q547 473 554 463T561 443Q561 432 554 423T531 413H240Q231 373 226 328T220 242Q220 224 221 207T225 175Q239 100 281 49T397 -15Q407 -16 418 -16T439 -17Q470 -17 501 -13T554 0Q558 1 561
1T567 2Q594 2 594 -31Q594 -47 573 -57Q515 -78 443 -78Q409 -78 380 -72Z" />
<glyph unicode="u" glyph-name="u" horiz-adv-x="718" d="M643 -68Q635 -68 627 -64T615 -49Q599 -12 590 32T576 116Q554 66 517 26T433 -39T332 -66Q230 -71 166 -34T71 72T40 227Q40 289 54 355T94 489Q101 508 121 508Q135 508 144 500T153 480Q153 475 150
467Q125 403 112 341T98 223Q98 156 120 103T189 21T311 -6Q385 -3 442 43T533 169T566 353Q566 371 565 390T561 428Q559 445 569 451T591 457Q605 456 614 448T624 425Q624 385 626 334T633 228T644 122T658 32T676 -28Q678 -31 678 -34T678 -40Q678 -53 667
-60T643 -68Z" />
<glyph unicode="v" glyph-name="v" horiz-adv-x="687" d="M349 -62Q303 -62 265 -32T194 45Q137 125 100 228T31 449Q30 452 30 458Q30 467 36 475T53 486Q81 489 90 464Q98 427 113 378T149 277T190 177T230 98Q256 58 285 28T352 -2Q376 -2 397 14T436 54T468
102Q491 142 514 198T559 322T597 462Q600 477 611 482T633 486Q645 485 652 475T656 451Q647 405 631 349T593 234T548 126T501 44Q467 -3 430 -32T349 -62Z" />
<glyph unicode="w" glyph-name="w" horiz-adv-x="900" d="M290 -81Q231 -81 191 -46T127 48T91 181T80 330Q80 371 83 412T91 491Q93 505 101 510T120 516Q136 516 144 507T150 483Q144 449 141 409T138 327Q138 265 146 203T171 91T217 10T288 -21Q324 -21 350
7T392 80T416 173T421 260Q421 277 430 284T450 292Q464 294 472 285T481 262Q480 220 487 173T510 82T553 12T617 -15Q659 -15 687 9T731 74T753 168T760 278Q760 328 756 379T747 476Q744 509 778 509Q792 509 798 502T806 484Q813 439 816 391T820 295Q820 223
810 157T777 37T716 -47T622 -78Q581 -78 549 -58T493 -6T455 64Q443 28 418 -5T361 -60T290 -81Z" />
<glyph unicode="x" glyph-name="x" horiz-adv-x="618" d="M43 -54Q31 -43 31 -29Q31 -18 38 -10Q65 24 104 68T186 158T261 237Q230 269 179 318T41 451Q30 460 30 473Q30 485 39 495Q49 505 61 505Q74 505 84 496Q127 455 182 403T305 282Q341 317 383 357T467
434T537 497Q545 504 558 504Q574 504 580 493Q588 482 588 472Q588 458 577 449Q522 403 463 347T351 237Q388 200 431 155T514 67T581 -10Q588 -20 588 -31Q588 -46 577 -54Q567 -62 557 -62Q544 -62 533 -50Q514 -27 486 4T426 68T363 134T307 190Q274 159 235
118T157 34T87 -49Q77 -61 63 -61Q52 -61 43 -54Z" />
<glyph unicode="y" glyph-name="y" horiz-adv-x="652" d="M144 -196Q138 -199 131 -199Q120 -199 112 -189T104 -169Q104 -148 126 -139Q195 -108 256 -65T368 33Q280 58 216 118T108 262T31 442Q27 453 34 464T53 479Q59 481 62 481Q71 481 79 476T92 459Q119
372 159 296T255 166T387 90Q399 87 406 78Q471 162 508 257T559 458Q561 472 570 478T590 485Q605 485 613 476T622 451Q609 353 573 256T480 79Q416 -14 332 -83T144 -196Z" />
<glyph unicode="z" glyph-name="z" horiz-adv-x="695" d="M621 -49Q554 -50 479 -51T331 -53Q259 -53 196 -52T92 -47Q76 -45 70 -37T64 -18Q66 0 78 4T105 9Q166 81 236 157T379 305T522 441Q485 445 442 446T354 448Q280 448 207 444T75 429Q59 426 51 434T40
454Q39 467 45 476T65 489Q119 499 189 503T334 508Q415 508 493 503T631 489Q647 486 652 476T655 454Q651 438 638 435T601 432Q474 314 371 212T180 6Q194 5 214 5T259 5Q313 5 378 6T507 7T614 8Q629 8 638 -1T647 -25Q647 -49 621 -49Z" />
<glyph unicode="{" glyph-name="braceleft" horiz-adv-x="500" d="M282 -127Q250 -113 235 -71T219 18Q219 34 221 50T226 81Q231 111 234 136T238 180Q238 206 230 217Q224 226 209 238T177 261T147 281Q132 292 126 300Q121 307 121 311Q121 319 128 325T147
335Q182 348 209 361T248 396Q253 408 253 425Q253 452 247 487T233 555T226 602Q223 663 254 705T337 757Q345 759 354 760T374 761Q405 761 427 755Q449 749 449 727Q449 708 436 700T411 696Q393 703 374 703Q337 703 311 676T285 605Q285 569 292 538T306 478T313
421Q313 377 289 353T226 304Q262 281 278 253T295 188Q295 164 291 130T284 63T280 5Q280 -36 295 -59T352 -83Q363 -83 381 -80T407 -72Q415 -69 420 -69Q432 -69 440 -77T448 -100Q448 -121 429 -127Q389 -142 351 -142Q315 -142 282 -127Z" />
<glyph unicode="|" glyph-name="bar" horiz-adv-x="500" d="M252 -145Q240 -145 231 -137T222 -115V707Q222 722 232 729T252 737Q263 737 272 729T282 707V-115Q282 -130 272 -137T252 -145Z" />
<glyph unicode="}" glyph-name="braceright" horiz-adv-x="500" d="M147 -142Q128 -142 105 -137T67 -127Q57 -124 53 -116T48 -100Q48 -94 50 -88Q52 -80 60 -75T77 -69Q83 -69 89 -72Q122 -83 147 -83Q172 -83 189 -71T213 -30Q216 -12 216 5Q216 27 213 55T204
133Q201 157 201 178Q201 219 215 249T270 304Q225 332 204 355T183 421Q183 446 190 477T204 541T211 605Q211 652 185 677T123 703Q103 703 85 696Q82 695 77 695Q64 695 56 705T47 725Q47 741 52 746T70 755Q94 761 120 761Q152 761 182 750T235 714Q255 693
263 670T271 622Q271 593 264 561T250 496T242 427Q242 387 272 370T349 335Q369 328 374 318Q379 310 368 299T349 281Q309 256 284 237T259 181Q259 150 264 121T273 61T276 -8Q276 -67 241 -104T147 -142Z" />
<glyph unicode="~" glyph-name="asciitilde" horiz-adv-x="435" d="M290 530Q259 530 241 544T209 580Q194 607 182 618T151 630Q132 630 117 610T97 566Q94 552 86 548T68 543Q55 543 47 553T41 577Q52 625 82 656T152 687Q181 687 201 676T240 637Q257 609 265
598T290 587Q312 587 324 606T338 650Q340 665 349 671T368 676Q395 676 395 646Q392 600 363 565T290 530Z" />
<glyph unicode="&#xa0;" glyph-name="uni00A0" horiz-adv-x="600" />
<glyph unicode="&#xa1;" glyph-name="exclamdown" horiz-adv-x="500" d="M246 490Q188 490 154 525T119 614Q119 671 156 704T246 737Q303 737 338 701T374 614Q374 561 338 526T246 490ZM246 547Q281 547 299 566T317 614Q317 643 298 661T246 680Q211 680 194
662T176 614Q176 582 194 565T246 547ZM246 -100Q235 -100 226 -92T216 -70V402Q216 418 226 425T246 432Q258 432 267 425T276 402V-70Q276 -85 267 -92T246 -100Z" />
<glyph unicode="&#xa2;" glyph-name="cent" horiz-adv-x="545" d="M303 -104Q290 -104 280 -94T270 -71V66Q181 75 124 125Q40 195 40 316Q40 422 98 495Q161 576 270 587V729Q270 743 280 752T303 762Q317 762 326 753T335 729V588Q386 585 420 572T472 546T491
532Q501 523 501 508Q501 494 493 486Q484 475 469 475Q456 475 447 484Q447 485 434 493T397 510T335 523V130Q401 135 451 180Q459 188 473 188Q488 188 497 178Q505 170 505 156Q505 140 494 132Q425 70 335 65V-71Q335 -84 326 -94T303 -104ZM270 132V522Q193
511 149 455Q127 427 116 391T105 314Q105 226 165 175Q208 139 270 132Z" />
<glyph unicode="&#xa3;" glyph-name="sterling" horiz-adv-x="709" d="M128 -78Q115 -78 106 -69T96 -47Q96 -36 103 -27T122 -15Q174 -5 216 23T281 89T298 163Q294 192 278 217T242 270Q237 278 231 285T220 301H62Q49 301 40 310T30 333Q30 347 39 356T62 365H184Q175
386 170 409T165 461Q165 474 166 487T170 516Q182 578 222 622T323 688Q344 696 366 699T410 702Q468 702 524 680T628 615Q639 607 639 591Q639 578 631 570Q623 559 607 559Q593 559 585 567Q506 638 411 638Q378 638 343 627Q299 612 271 580T234 504Q232 493
231 483T230 461Q230 433 237 410T256 365H492Q506 365 515 356T524 333Q524 320 515 311T492 301H299Q322 269 342 233T363 148Q363 104 339 62T274 -14H647Q661 -14 670 -23T679 -46Q679 -59 670 -68T647 -78H128Z" />
<glyph unicode="&#xa4;" glyph-name="currency" horiz-adv-x="659" d="M72 -15Q60 -15 49 -6Q40 5 40 17Q40 31 49 40L112 103Q82 140 65 185T48 282Q48 330 63 373T105 452L49 508Q40 519 40 531Q40 545 49 554Q59 564 72 564Q86 564 95 554L150 499Q187 529
232 546T329 564Q380 564 426 547T508 499L563 554Q573 564 586 564Q600 564 609 554Q619 545 619 531Q619 518 609 508L553 452Q580 417 595 374T611 282Q611 231 594 186T546 103L609 40Q619 31 619 17Q619 4 609 -6Q600 -15 586 -15Q572 -15 563 -6L499 58Q464
31 421 16T329 1Q281 1 238 16T159 58L95 -6Q86 -15 72 -15ZM329 66Q389 66 438 95T516 173T546 282Q546 342 517 391T438 469T329 499Q270 499 221 470T142 391T113 282Q113 223 142 174T220 95T329 66Z" />
<glyph unicode="&#xa5;" glyph-name="yen" horiz-adv-x="690" d="M345 -112Q332 -112 324 -104T315 -82V24H109Q96 24 88 32T79 54Q79 84 109 84H315V218H109Q93 218 86 227T79 248Q79 278 109 278H315V341L40 632Q30 641 30 653Q30 667 40 675Q48 685 60 685Q71
685 80 676L341 398L611 676Q620 685 631 685Q646 685 651 675Q660 666 660 654Q660 642 651 631L375 350V278H581Q598 278 604 269T611 248Q611 237 603 228T581 218H375V84H581Q598 84 604 75T611 54Q611 42 603 33T581 24H375V-82Q375 -94 367 -103T345 -112Z"
/>
<glyph unicode="&#xa6;" glyph-name="brokenbar" horiz-adv-x="500" d="M252 357Q240 357 231 365T222 387V707Q222 722 232 729T252 737Q263 737 272 729T282 707V387Q282 372 272 365T252 357ZM254 -109Q242 -109 233 -101T224 -79V241Q224 256 234 263T254
271Q265 271 274 263T284 241V-79Q284 -94 274 -101T254 -109Z" />
<glyph unicode="&#xa7;" glyph-name="section" horiz-adv-x="525" d="M298 -115Q276 -118 253 -118Q193 -118 138 -97T48 -33Q40 -25 40 -15Q40 -8 43 -2T51 8Q59 16 69 16Q82 16 93 5Q122 -28 163 -43T245 -58Q281 -58 317 -49T378 -20T403 31Q403 66 376 84T307
114T219 136Q165 149 126 166T65 213T43 289Q43 340 72 376T146 432Q100 451 72 479T43 556Q43 617 74 652T156 702T267 718Q308 718 350 707T427 671T482 607Q485 601 485 595Q485 585 479 578T466 568Q463 567 460 567T453 566Q446 566 439 569T427 583Q415 611
385 627T323 652T270 660Q224 660 186 648T126 614T103 559Q103 511 149 492T278 459Q328 451 370 433T437 384T463 302Q463 253 438 216T368 157Q417 137 440 107T463 32Q463 -14 438 -45T375 -93T298 -115ZM256 190Q298 190 332 204T386 245T403 305Q403 338
380 356T325 383T267 400Q188 400 146 370T103 293Q101 258 121 238T177 208T256 190Z" />
<glyph unicode="&#xa8;" glyph-name="dieresis" horiz-adv-x="600" d="M230 673Q202 673 188 689T173 729Q173 753 188 768T230 783Q256 783 271 768T287 729Q287 704 272 689T230 673ZM370 673Q342 673 328 689T313 729Q313 753 328 768T370 783Q396 783 411
768T427 729Q427 704 412 689T370 673Z" />
<glyph unicode="&#xa9;" glyph-name="copyright" horiz-adv-x="915" d="M457 -98Q331 -98 237 -48T92 95T40 312Q40 442 89 533T231 673T457 722Q586 722 680 672T824 531T875 312Q875 223 844 148T757 18T624 -67T457 -98ZM457 -34Q534 -34 598 -9T711 64T785
174T811 312Q811 477 719 567T457 658Q286 658 195 569T103 312Q103 206 146 128T268 8T457 -34ZM464 92Q365 92 301 145Q228 206 228 308Q228 400 278 466Q310 507 356 527T458 548Q511 548 546 536T600 512T620 498Q630 489 630 475Q630 463 622 453Q613 443
598 443Q585 443 577 451Q576 452 563 460T524 476T459 484Q374 484 328 427Q292 378 292 311Q292 235 342 194Q388 156 465 156Q530 156 580 198Q588 206 601 206Q616 206 625 196Q633 186 633 175Q633 162 622 151Q593 124 556 109T479 92H464Z" />
<glyph unicode="&#xaa;" glyph-name="ordfeminine" horiz-adv-x="481" d="M229 365Q175 365 133 388T65 452T40 545Q40 620 84 673T198 738Q205 740 212 740T228 740Q258 740 291 733T348 711Q353 715 360 716T372 716Q393 713 393 688Q393 675 393 663T392 640Q392
575 401 526T436 440Q441 434 441 424Q441 414 434 406T414 397Q401 397 392 409Q385 417 377 432Q351 401 313 383T229 365ZM236 420Q271 420 302 439T353 493Q335 560 337 652Q321 668 291 677T230 686Q204 686 183 678Q142 662 118 627T94 547Q94 491 133 456T236
420Z" />
<glyph unicode="&#xab;" glyph-name="guillemotleft" horiz-adv-x="492" d="M260 93Q248 93 241 100L43 248Q32 257 30 273Q30 289 42 299L239 463Q249 471 260 471Q275 471 285 459Q292 451 292 439Q292 423 281 414L115 275L279 151Q293 142 293 125Q293 117
286 106Q276 93 260 93ZM429 93Q417 93 410 100L212 248Q201 257 199 273Q199 289 211 299L408 463Q418 471 429 471Q444 471 454 459Q461 451 461 439Q461 423 450 414L284 275L448 151Q462 142 462 125Q462 117 455 106Q445 93 429 93Z" />
<glyph unicode="&#xac;" glyph-name="logicalnot" horiz-adv-x="573" d="M461 134Q448 134 439 143T429 166V340H62Q49 340 40 349T30 372Q30 385 39 394T62 404H461Q474 404 483 395T493 372V166Q493 153 484 144T461 134Z" />
<glyph unicode="&#xad;" glyph-name="uni00AD" horiz-adv-x="500" d="M120 240Q105 240 98 250T90 270Q90 283 98 291T120 300H391Q408 300 414 291T421 270Q421 259 413 250T391 240H120Z" />
<glyph unicode="&#xae;" glyph-name="registered" horiz-adv-x="730" d="M365 97Q267 97 194 136T80 247T40 416Q40 510 81 582T196 694T365 735Q466 735 538 696T650 586T690 416Q690 324 648 252T533 138T365 97ZM365 156Q442 156 502 189T596 282T631 416Q631
540 562 608T365 676Q286 676 226 644T133 553T99 416Q99 336 131 278T223 188T365 156ZM248 216Q236 216 228 224T218 244L208 554Q208 566 216 574T237 584Q249 584 256 577Q274 584 304 592T371 600Q392 600 414 596T458 582Q499 564 521 529T544 449Q544 416
532 385T496 333Q478 318 460 310L496 277Q507 268 507 255Q507 245 499 235Q490 226 477 226Q465 226 457 233L392 291Q368 288 341 288H336Q319 288 304 289T276 292L277 246Q278 234 270 225T249 216H248ZM274 352Q288 350 305 349T342 347Q374 347 405 353T456
377Q468 388 476 407T485 449Q485 507 434 529Q419 536 403 538T371 541Q337 541 309 533T268 519L274 352Z" />
<glyph unicode="&#xaf;" glyph-name="overscore" horiz-adv-x="314" d="M61 638Q45 638 38 647T30 669Q30 682 39 691T61 700H253Q266 700 275 692T284 669Q284 638 253 638H61Z" />
<glyph unicode="&#xb0;" glyph-name="degree" horiz-adv-x="1000" d="M167 488Q131 488 101 506T53 554T34 621Q34 660 52 690T101 737T167 754Q228 754 264 715T300 621Q300 583 281 553T232 505T167 488ZM167 544Q200 544 222 566T244 621Q244 656 221 677T167
698Q134 698 112 676T90 621Q90 588 112 566T167 544Z" />
<glyph unicode="&#xb1;" glyph-name="plusminus" horiz-adv-x="529" d="M261 123Q249 123 240 131T230 154V299H61Q45 299 38 309T30 330Q30 343 38 352T61 361H230V516Q230 532 240 539T261 547Q273 547 282 539T292 516V361H468Q485 361 492 352T499 330Q499
317 492 308T468 299H292V154Q292 138 282 131T261 123ZM81 29Q68 29 59 38T50 60Q50 91 81 91H448Q465 91 472 81T479 60Q479 48 471 39T448 29H81Z" />
<glyph unicode="&#xb2;" glyph-name="uni00B2" horiz-adv-x="356" d="M66 402Q56 402 49 408T42 424Q42 438 58 445Q85 454 115 468T169 496Q194 509 217 527T256 566T272 612Q272 643 244 665T177 688Q146 688 120 674T82 638Q78 625 64 625Q61 625 59 625T53
627Q40 633 40 647Q40 651 42 657Q59 690 97 711T179 732Q218 732 249 716T298 672T316 609Q316 565 286 532T212 470Q203 464 193 458T172 446H292Q302 446 308 440T314 424Q314 415 308 409T292 402H66Z" />
<glyph unicode="&#xb3;" glyph-name="uni00B3" horiz-adv-x="336" d="M165 398Q144 398 120 401T78 412T60 437Q60 455 83 455Q92 455 99 452T120 446T159 443Q194 443 215 453T237 480Q237 497 222 507T182 517Q164 517 164 534V536Q164 549 181 551Q213 556
232 576T252 624Q252 653 228 670T163 688Q132 688 103 677T57 652Q53 649 49 649Q41 649 33 662Q30 665 30 671Q30 682 40 689Q60 705 93 718T163 732Q223 732 259 702T296 621Q296 595 282 572T243 536Q260 529 270 514T281 479Q281 451 264 433T219 407T165
398Z" />
<glyph unicode="&#xb4;" glyph-name="acute" horiz-adv-x="600" d="M302 645Q292 629 275 629Q267 629 256 635Q240 646 240 663Q240 673 246 680L306 764Q312 773 319 776T333 780Q344 780 351 774Q369 763 369 747Q369 737 362 729L302 645Z" />
<glyph unicode="&#xb5;" glyph-name="uni00B5" horiz-adv-x="668" d="M112 -33Q99 -33 90 -24T80 -1V581Q80 594 89 603T112 612Q125 612 134 603T143 581V283Q154 227 192 195T286 162Q316 162 347 174T403 210T440 274Q439 294 439 315T438 358Q438 381 438
404T439 451Q440 483 440 516T441 580Q441 594 450 603T472 612Q486 612 495 603T504 581Q504 548 504 515T502 449Q502 428 502 406T501 361Q501 307 504 258T519 179T552 148Q564 148 583 156Q589 159 596 159Q617 159 625 140Q628 134 628 128Q628 107 608 99Q593
92 579 89T551 85Q524 85 501 99Q469 122 454 173Q423 139 380 119T286 98Q282 98 279 98T272 99Q239 101 206 113T143 152V-1Q143 -14 134 -23T112 -33Z" />
<glyph unicode="&#xb6;" glyph-name="paragraph" horiz-adv-x="676" d="M309 -86Q297 -86 288 -79T279 -56V166Q198 165 145 196T66 285T40 416Q40 567 137 639T410 711Q457 711 510 707T622 691Q646 688 646 662Q646 648 637 639T612 632Q596 635 573 638T531
643T506 646V-56Q506 -72 497 -79T476 -86Q465 -86 456 -78T446 -56V650Q435 651 425 651T406 652Q390 652 375 651T339 646V-56Q339 -72 329 -79T309 -86Z" />
<glyph unicode="&#xb7;" glyph-name="middot" horiz-adv-x="500" d="M247 197Q208 197 187 219T166 276Q166 311 188 332T247 353Q286 353 307 331T328 276Q328 240 306 219T247 197Z" />
<glyph unicode="&#xb8;" glyph-name="cedilla" horiz-adv-x="600" d="M294 -191Q284 -191 274 -191T254 -190Q244 -189 237 -182T230 -165Q230 -154 237 -147T255 -139Q264 -139 273 -139T292 -140Q311 -140 328 -138T353 -127Q355 -125 357 -122T359 -111Q359
-105 359 -101T353 -94Q337 -80 289 -80Q258 -80 219 -86H216Q203 -86 195 -76Q190 -69 190 -62Q190 -56 193 -50Q198 -39 204 -28T215 -7Q218 -2 221 3T225 12Q233 26 249 26Q260 26 267 18T274 0Q274 -6 271 -12L261 -30Q269 -29 275 -29T289 -29Q357 -29 386
-55Q410 -75 410 -110Q410 -142 388 -164Q371 -180 346 -185T294 -191Z" />
<glyph unicode="&#xb9;" glyph-name="uni00B9" horiz-adv-x="254" d="M152 386Q143 386 137 392T130 408V671L68 651Q66 650 64 650T60 649Q43 649 40 666V673Q40 689 54 693Q60 695 69 698T88 704Q103 710 117 715T136 721Q141 723 145 723T153 723Q174 723 174
702V408Q174 399 168 393T152 386Z" />
<glyph unicode="&#xba;" glyph-name="ordmasculine" horiz-adv-x="469" d="M235 372Q177 372 133 396T65 463T40 563Q40 651 93 703T235 756Q325 756 377 704T429 563Q429 476 377 424T235 372ZM235 428Q301 428 337 463T373 563Q373 628 337 663T235 699Q170
699 134 663T97 563Q97 502 134 465T235 428Z" />
<glyph unicode="&#xbb;" glyph-name="guillemotright" horiz-adv-x="492" d="M232 93Q244 93 251 100L449 248Q460 257 462 273Q462 289 450 299L253 463Q243 471 232 471Q217 471 207 459Q200 451 200 439Q200 423 211 414L377 275L213 151Q199 142 199 125Q199
117 206 106Q216 93 232 93ZM63 93Q75 93 82 100L280 248Q291 257 293 273Q293 289 281 299L84 463Q74 471 63 471Q48 471 38 459Q31 451 31 439Q31 423 42 414L208 275L44 151Q30 142 30 125Q30 117 37 106Q47 93 63 93Z" />
<glyph unicode="&#xbc;" glyph-name="onequarter" horiz-adv-x="646" d="M43 -73Q30 -64 30 -50Q30 -41 36 -31L526 727Q534 741 549 741Q561 741 568 735Q581 725 581 710Q581 701 575 693L85 -65Q81 -72 75 -75T61 -78Q50 -78 43 -73ZM516 -79Q506 -78 501 -71T496
-55L498 -17Q489 -17 480 -17T463 -18Q444 -18 427 -17T393 -13Q310 0 310 58Q310 84 325 118Q342 157 370 195T431 270Q437 277 448 277Q457 277 463 271Q471 265 471 256Q471 248 463 240Q445 224 425 198T388 145T362 94Q353 73 353 61Q353 43 380 34Q396 29
419 27T466 25Q474 25 483 25T500 26L507 170Q509 191 531 191Q551 188 551 168L544 29L566 33Q571 33 577 34T590 36Q592 36 593 36T595 37Q612 37 616 19V15Q616 -2 598 -7Q582 -10 578 -10T565 -12Q561 -12 556 -12T542 -14L540 -58Q538 -79 516 -79ZM186 386Q177
386 171 392T164 408V671L102 651Q100 650 98 650T94 649Q77 649 74 666V673Q74 689 88 693Q94 695 103 698T122 704Q137 710 151 715T170 721Q175 723 179 723T187 723Q208 723 208 702V408Q208 399 202 393T186 386Z" />
<glyph unicode="&#xbd;" glyph-name="onehalf" horiz-adv-x="643" d="M43 -73Q30 -64 30 -50Q30 -41 36 -31L526 727Q534 741 549 741Q561 741 568 735Q581 725 581 710Q581 701 575 693L85 -65Q81 -72 75 -75T61 -78Q50 -78 43 -73ZM363 -69Q353 -69 346 -63T339
-47Q339 -33 355 -26Q382 -17 412 -3T466 25Q491 38 514 56T553 95T569 141Q569 172 541 194T474 217Q443 217 417 203T379 167Q375 154 361 154Q358 154 356 154T350 156Q337 162 337 176Q337 180 339 186Q356 219 394 240T476 261Q515 261 546 245T595 201T613
138Q613 94 583 61T509 -1Q500 -7 490 -13T469 -25H589Q599 -25 605 -31T611 -47Q611 -56 605 -62T589 -69H363ZM165 386Q156 386 150 392T143 408V671L81 651Q79 650 77 650T73 649Q56 649 53 666V673Q53 689 67 693Q73 695 82 698T101 704Q116 710 130 715T149
721Q154 723 158 723T166 723Q187 723 187 702V408Q187 399 181 393T165 386Z" />
<glyph unicode="&#xbe;" glyph-name="threequarters" horiz-adv-x="620" d="M43 -73Q30 -64 30 -50Q30 -41 36 -31L526 727Q534 741 549 741Q561 741 568 735Q581 725 581 710Q581 701 575 693L85 -65Q81 -72 75 -75T61 -78Q50 -78 43 -73ZM167 376Q115 376 79
389Q64 394 64 409Q64 419 71 425T86 432Q92 432 95 430Q121 421 162 421Q203 421 225 431T248 461Q248 476 230 486T185 497Q175 497 169 503T161 518V520Q161 538 181 541Q218 545 240 563T263 607Q263 639 236 659T166 680Q136 680 110 671T69 647Q62 640 54
640Q45 640 37 648Q31 656 31 663Q31 672 38 679Q59 700 93 712T166 724Q226 724 266 691T307 605Q307 553 256 521Q271 512 281 495T292 458Q292 454 292 451T290 443Q273 376 167 376ZM490 -93Q480 -92 475 -85T470 -69L472 -31Q463 -31 454 -31T437 -32Q418
-32 401 -31T367 -27Q284 -14 284 44Q284 70 299 104Q316 143 344 181T405 256Q411 263 422 263Q431 263 437 257Q445 251 445 242Q445 234 437 226Q419 210 399 184T362 131T336 80Q327 59 327 47Q327 29 354 20Q370 15 393 13T440 11Q448 11 457 11T474 12L481
156Q483 177 505 177Q525 174 525 154L518 15L540 19Q545 19 551 20T564 22Q566 22 567 22T569 23Q586 23 590 5V1Q590 -16 572 -21Q556 -24 552 -24T539 -26Q535 -26 530 -26T516 -28L514 -72Q512 -93 490 -93Z" />
<glyph unicode="&#xbf;" glyph-name="questiondown" horiz-adv-x="800" d="M413 498Q358 498 322 531T286 621Q286 679 323 712T413 745Q469 745 504 711T540 621Q540 568 505 533T413 498ZM413 555Q448 555 465 573T483 621Q483 653 465 670T413 688Q378 688
361 670T343 621Q343 587 363 571T413 555ZM438 -130Q369 -130 306 -114T192 -67T113 10T84 113Q84 201 122 256T226 340T376 379V435Q376 450 386 457T406 465Q418 465 427 457T436 435V352Q436 333 423 326T386 317Q315 306 261 286T175 226T144 117Q144 70 169
35T235 -24T328 -60T431 -72Q471 -72 512 -65T590 -41T648 0Q657 10 668 10Q681 10 690 1Q700 -9 700 -20Q700 -30 691 -41Q662 -72 620 -92T530 -121T438 -130Z" />
<glyph unicode="&#xc0;" glyph-name="Agrave" horiz-adv-x="891" d="M452 667L364 739Q352 750 352 762Q352 775 363 786Q374 797 387 797Q399 797 410 787L497 715Q508 705 508 692Q508 678 498 668Q490 657 476 657Q463 657 452 667ZM106 -72Q95 -72 87 -66T76
-47Q69 1 65 45T60 129Q60 194 72 255T109 382Q140 461 190 519T304 611T444 644Q520 644 586 609T702 513T781 380Q807 316 819 252T831 120Q831 80 828 39T817 -46Q816 -60 807 -66T787 -72Q775 -72 765 -63T757 -38Q762 0 765 36T768 108Q768 176 756 239T718
363Q693 426 651 475T555 552T440 580Q380 580 330 551T242 475T177 372T137 264H684Q700 264 707 255T714 234Q714 223 706 214T684 204H127Q125 186 124 166T122 125Q122 84 126 42T135 -37Q137 -54 127 -63T106 -72Z" />
<glyph unicode="&#xc1;" glyph-name="Aacute" horiz-adv-x="891" d="M447 663Q437 647 420 647Q412 647 401 653Q385 664 385 681Q385 691 391 698L451 782Q457 791 464 794T478 798Q489 798 496 792Q514 781 514 765Q514 755 507 747L447 663ZM106 -72Q95 -72
87 -66T76 -47Q69 1 65 45T60 129Q60 194 72 255T109 382Q140 461 190 519T304 611T444 644Q520 644 586 609T702 513T781 380Q807 316 819 252T831 120Q831 80 828 39T817 -46Q816 -60 807 -66T787 -72Q775 -72 765 -63T757 -38Q762 0 765 36T768 108Q768 176
756 239T718 363Q693 426 651 475T555 552T440 580Q380 580 330 551T242 475T177 372T137 264H684Q700 264 707 255T714 234Q714 223 706 214T684 204H127Q125 186 124 166T122 125Q122 84 126 42T135 -37Q137 -54 127 -63T106 -72Z" />
<glyph unicode="&#xc2;" glyph-name="Acircumflex" horiz-adv-x="891" d="M565 648Q553 648 546 656Q511 695 486 712T441 730Q422 729 399 713T343 660Q335 652 324 652Q315 652 307 658Q299 666 299 677Q299 687 305 694Q346 740 377 760T441 781Q473 781 507
760T584 690Q591 681 591 673Q591 662 582 654Q575 648 565 648ZM106 -72Q95 -72 87 -66T76 -47Q69 1 65 45T60 129Q60 194 72 255T109 382Q140 461 190 519T304 611T444 644Q520 644 586 609T702 513T781 380Q807 316 819 252T831 120Q831 80 828 39T817 -46Q816
-60 807 -66T787 -72Q775 -72 765 -63T757 -38Q762 0 765 36T768 108Q768 176 756 239T718 363Q693 426 651 475T555 552T440 580Q380 580 330 551T242 475T177 372T137 264H684Q700 264 707 255T714 234Q714 223 706 214T684 204H127Q125 186 124 166T122 125Q122
84 126 42T135 -37Q137 -54 127 -63T106 -72Z" />
<glyph unicode="&#xc3;" glyph-name="Atilde" horiz-adv-x="891" d="M504 640Q484 640 468 647T440 666Q418 695 408 711T391 733T366 740Q342 735 329 718T311 676Q308 662 300 658T282 653Q269 653 261 663T255 687Q266 735 296 766T366 797Q395 797 415 786T454
747Q471 719 479 708T504 697H505Q525 697 538 716T552 760Q554 775 563 781T582 786Q609 786 609 756Q606 710 577 675T504 640ZM106 -72Q95 -72 87 -66T76 -47Q69 1 65 45T60 129Q60 194 72 255T109 382Q140 461 190 519T304 611T444 644Q520 644 586 609T702
513T781 380Q807 316 819 252T831 120Q831 80 828 39T817 -46Q816 -60 807 -66T787 -72Q775 -72 765 -63T757 -38Q762 0 765 36T768 108Q768 176 756 239T718 363Q693 426 651 475T555 552T440 580Q380 580 330 551T242 475T177 372T137 264H684Q700 264 707 255T714
234Q714 223 706 214T684 204H127Q125 186 124 166T122 125Q122 84 126 42T135 -37Q137 -54 127 -63T106 -72Z" />
<glyph unicode="&#xc4;" glyph-name="Adieresis" horiz-adv-x="891" d="M365 673Q337 673 323 689T308 729Q308 753 323 768T365 783Q391 783 406 768T422 729Q422 704 407 689T365 673ZM505 673Q477 673 463 689T448 729Q448 753 463 768T505 783Q531 783 546
768T562 729Q562 704 547 689T505 673ZM106 -72Q95 -72 87 -66T76 -47Q69 1 65 45T60 129Q60 194 72 255T109 382Q140 461 190 519T304 611T444 644Q520 644 586 609T702 513T781 380Q807 316 819 252T831 120Q831 80 828 39T817 -46Q816 -60 807 -66T787 -72Q775
-72 765 -63T757 -38Q762 0 765 36T768 108Q768 176 756 239T718 363Q693 426 651 475T555 552T440 580Q380 580 330 551T242 475T177 372T137 264H684Q700 264 707 255T714 234Q714 223 706 214T684 204H127Q125 186 124 166T122 125Q122 84 126 42T135 -37Q137
-54 127 -63T106 -72Z" />
<glyph unicode="&#xc5;" glyph-name="Aring" horiz-adv-x="891" d="M445 649Q414 649 393 670T371 722Q371 752 392 773T445 795Q475 795 496 774T518 722Q518 692 497 671T445 649ZM445 750Q432 750 424 742T416 722Q416 710 424 702T445 694Q457 694 465 702T473
722Q473 734 465 742T445 750ZM106 -72Q95 -72 87 -66T76 -47Q69 1 65 45T60 129Q60 194 72 255T109 382Q140 461 190 519T304 611T444 644Q520 644 586 609T702 513T781 380Q807 316 819 252T831 120Q831 80 828 39T817 -46Q816 -60 807 -66T787 -72Q775 -72 765
-63T757 -38Q762 0 765 36T768 108Q768 176 756 239T718 363Q693 426 651 475T555 552T440 580Q380 580 330 551T242 475T177 372T137 264H684Q700 264 707 255T714 234Q714 223 706 214T684 204H127Q125 186 124 166T122 125Q122 84 126 42T135 -37Q137 -54 127
-63T106 -72Z" />
<glyph unicode="&#xc6;" glyph-name="AE" horiz-adv-x="852" d="M764 4Q776 4 784 -4T792 -24Q792 -35 784 -43T764 -52H512Q507 -70 487 -70H486Q474 -70 466 -62T459 -41Q462 73 464 152T466 292Q466 330 465 363T462 428Q460 454 456 486T445 547T428 594T404
613Q369 613 332 573T261 464T196 311H395Q406 311 414 303T422 283Q422 272 414 264T395 256H178Q154 179 138 102T115 -43Q114 -53 106 -60T87 -68Q75 -68 67 -59T60 -38Q65 16 79 88T116 240T169 396T235 534T313 632T401 669Q454 669 482 607Q574 608 622 608T696
608Q722 608 734 608T765 607Q776 607 784 599T792 579Q792 568 784 560T764 552H500Q511 509 516 452T522 327H744Q755 327 763 319T772 299Q772 288 764 280T744 272H522Q522 253 522 221T520 150T518 74T516 4H764Z" />
<glyph unicode="&#xc7;" glyph-name="Ccedilla" horiz-adv-x="791" d="M444 -61Q427 -61 411 -60Q410 -61 410 -62L400 -80Q408 -79 414 -79T428 -79Q496 -79 525 -105Q549 -125 549 -160Q549 -192 527 -214Q510 -230 485 -235T433 -241Q423 -241 413 -241T393
-240Q383 -239 376 -232T369 -215Q369 -204 376 -197T394 -189Q403 -189 412 -189T431 -190Q450 -190 467 -188T492 -177Q494 -175 496 -172T498 -161Q498 -155 498 -151T492 -144Q476 -130 428 -130Q397 -130 358 -136H355Q342 -136 334 -126Q329 -119 329 -112Q329
-106 332 -100Q337 -89 343 -78T354 -57L356 -54Q259 -39 189 9T79 133T40 310Q40 392 70 461T155 583T283 663T444 692Q530 692 607 659T743 563Q751 553 751 543Q751 531 741 521Q734 512 721 512Q708 512 699 522Q649 576 584 604T444 632Q345 632 267 591T145
476T100 310Q100 211 143 142T263 36T444 -1Q515 -1 578 24T690 99Q699 108 711 108Q723 108 732 99Q741 90 741 78Q741 65 732 56Q677 1 601 -30T444 -61Z" />
<glyph unicode="&#xc8;" glyph-name="Egrave" horiz-adv-x="773" d="M410 653L322 725Q310 736 310 748Q310 761 321 772Q332 783 345 783Q357 783 368 773L455 701Q466 691 466 678Q466 664 456 654Q448 643 434 643Q421 643 410 653ZM321 -84Q256 -84 215 -75T149
-44T110 18T87 119Q83 142 82 166T80 216Q80 281 89 358T108 532Q94 532 87 543T81 563Q81 575 88 583T110 592L683 604Q699 604 706 595T713 575Q715 563 708 554T684 544L169 534Q159 455 152 373T144 219Q144 188 145 162T151 112Q161 54 177 24T224 -16T306
-26Q357 -26 423 -22T556 -11T678 5Q695 9 704 -2T713 -25Q713 -38 706 -44T688 -53Q630 -62 586 -68T501 -77T418 -82T321 -84ZM208 240Q193 240 186 249T177 269Q177 281 185 290T207 300L657 311Q673 312 680 303T688 282Q688 269 681 260T659 251L208 240Z"
/>
<glyph unicode="&#xc9;" glyph-name="Eacute" horiz-adv-x="773" d="M400 645Q390 629 373 629Q365 629 354 635Q338 646 338 663Q338 673 344 680L404 764Q410 773 417 776T431 780Q442 780 449 774Q467 763 467 747Q467 737 460 729L400 645ZM321 -84Q256 -84
215 -75T149 -44T110 18T87 119Q83 142 82 166T80 216Q80 281 89 358T108 532Q94 532 87 543T81 563Q81 575 88 583T110 592L683 604Q699 604 706 595T713 575Q715 563 708 554T684 544L169 534Q159 455 152 373T144 219Q144 188 145 162T151 112Q161 54 177 24T224
-16T306 -26Q357 -26 423 -22T556 -11T678 5Q695 9 704 -2T713 -25Q713 -38 706 -44T688 -53Q630 -62 586 -68T501 -77T418 -82T321 -84ZM208 240Q193 240 186 249T177 269Q177 281 185 290T207 300L657 311Q673 312 680 303T688 282Q688 269 681 260T659 251L208
240Z" />
<glyph unicode="&#xca;" glyph-name="Ecircumflex" horiz-adv-x="773" d="M508 648Q496 648 489 656Q454 695 429 712T384 730Q365 729 342 713T286 660Q278 652 267 652Q258 652 250 658Q242 666 242 677Q242 687 248 694Q289 740 320 760T384 781Q416 781 450
760T527 690Q534 681 534 673Q534 662 525 654Q518 648 508 648ZM321 -84Q256 -84 215 -75T149 -44T110 18T87 119Q83 142 82 166T80 216Q80 281 89 358T108 532Q94 532 87 543T81 563Q81 575 88 583T110 592L683 604Q699 604 706 595T713 575Q715 563 708 554T684
544L169 534Q159 455 152 373T144 219Q144 188 145 162T151 112Q161 54 177 24T224 -16T306 -26Q357 -26 423 -22T556 -11T678 5Q695 9 704 -2T713 -25Q713 -38 706 -44T688 -53Q630 -62 586 -68T501 -77T418 -82T321 -84ZM208 240Q193 240 186 249T177 269Q177
281 185 290T207 300L657 311Q673 312 680 303T688 282Q688 269 681 260T659 251L208 240Z" />
<glyph unicode="&#xcb;" glyph-name="Edieresis" horiz-adv-x="773" d="M318 673Q290 673 276 689T261 729Q261 753 276 768T318 783Q344 783 359 768T375 729Q375 704 360 689T318 673ZM458 673Q430 673 416 689T401 729Q401 753 416 768T458 783Q484 783 499
768T515 729Q515 704 500 689T458 673ZM321 -84Q256 -84 215 -75T149 -44T110 18T87 119Q83 142 82 166T80 216Q80 281 89 358T108 532Q94 532 87 543T81 563Q81 575 88 583T110 592L683 604Q699 604 706 595T713 575Q715 563 708 554T684 544L169 534Q159 455
152 373T144 219Q144 188 145 162T151 112Q161 54 177 24T224 -16T306 -26Q357 -26 423 -22T556 -11T678 5Q695 9 704 -2T713 -25Q713 -38 706 -44T688 -53Q630 -62 586 -68T501 -77T418 -82T321 -84ZM208 240Q193 240 186 249T177 269Q177 281 185 290T207 300L657
311Q673 312 680 303T688 282Q688 269 681 260T659 251L208 240Z" />
<glyph unicode="&#xcc;" glyph-name="Igrave" horiz-adv-x="544" d="M282 643L194 715Q182 726 182 738Q182 751 193 762Q204 773 217 773Q229 773 240 763L327 691Q338 681 338 668Q338 654 328 644Q320 633 306 633Q293 633 282 643ZM475 -59Q434 -62 386 -63T289
-65Q228 -65 171 -63T67 -55Q40 -52 40 -23Q42 -10 50 -3T72 3Q86 2 101 1T147 -1T242 -4V513Q242 519 244 525L82 516Q66 513 58 524T49 547Q49 558 55 566T75 576Q128 581 180 584T286 587Q330 587 375 585T467 579Q482 579 488 568T495 546Q490 516 462 519Q426
523 382 524T300 525Q301 524 302 513V-4Q337 -4 373 -3T472 0Q487 2 495 -7T504 -28Q504 -40 497 -48T475 -59Z" />
<glyph unicode="&#xcd;" glyph-name="Iacute" horiz-adv-x="584" d="M302 645Q292 629 275 629Q267 629 256 635Q240 646 240 663Q240 673 246 680L306 764Q312 773 319 776T333 780Q344 780 351 774Q369 763 369 747Q369 737 362 729L302 645ZM495 -59Q454 -62
406 -63T309 -65Q248 -65 191 -63T87 -55Q60 -52 60 -23Q62 -10 70 -3T92 3Q106 2 121 1T167 -1T262 -4V513Q262 519 264 525L102 516Q86 513 78 524T69 547Q69 558 75 566T95 576Q148 581 200 584T306 587Q350 587 395 585T487 579Q502 579 508 568T515 546Q510
516 482 519Q446 523 402 524T320 525Q321 524 322 513V-4Q357 -4 393 -3T492 0Q507 2 515 -7T524 -28Q524 -40 517 -48T495 -59Z" />
<glyph unicode="&#xce;" glyph-name="Icircumflex" horiz-adv-x="584" d="M410 648Q398 648 391 656Q356 695 331 712T286 730Q267 729 244 713T188 660Q180 652 169 652Q160 652 152 658Q144 666 144 677Q144 687 150 694Q191 740 222 760T286 781Q318 781 352
760T429 690Q436 681 436 673Q436 662 427 654Q420 648 410 648ZM495 -59Q454 -62 406 -63T309 -65Q248 -65 191 -63T87 -55Q60 -52 60 -23Q62 -10 70 -3T92 3Q106 2 121 1T167 -1T262 -4V513Q262 519 264 525L102 516Q86 513 78 524T69 547Q69 558 75 566T95 576Q148
581 200 584T306 587Q350 587 395 585T487 579Q502 579 508 568T515 546Q510 516 482 519Q446 523 402 524T320 525Q321 524 322 513V-4Q357 -4 393 -3T492 0Q507 2 515 -7T524 -28Q524 -40 517 -48T495 -59Z" />
<glyph unicode="&#xcf;" glyph-name="Idieresis" horiz-adv-x="584" d="M220 673Q192 673 178 689T163 729Q163 753 178 768T220 783Q246 783 261 768T277 729Q277 704 262 689T220 673ZM360 673Q332 673 318 689T303 729Q303 753 318 768T360 783Q386 783 401
768T417 729Q417 704 402 689T360 673ZM495 -59Q454 -62 406 -63T309 -65Q248 -65 191 -63T87 -55Q60 -52 60 -23Q62 -10 70 -3T92 3Q106 2 121 1T167 -1T262 -4V513Q262 519 264 525L102 516Q86 513 78 524T69 547Q69 558 75 566T95 576Q148 581 200 584T306 587Q350
587 395 585T487 579Q502 579 508 568T515 546Q510 516 482 519Q446 523 402 524T320 525Q321 524 322 513V-4Q357 -4 393 -3T492 0Q507 2 515 -7T524 -28Q524 -40 517 -48T495 -59Z" />
<glyph unicode="&#xd0;" glyph-name="Eth" horiz-adv-x="921" d="M431 -88Q353 -88 270 -73Q257 -70 251 -61Q247 -69 238 -71T219 -73Q196 -65 196 -44L191 230L111 228Q96 228 89 237T80 257Q80 270 88 279T110 288L190 290L184 629Q184 644 194 652T215 660Q226
660 233 653Q239 659 246 659Q285 666 324 669T402 673Q501 673 588 647T741 569T844 445T881 280Q881 193 846 125T749 9T606 -63T431 -88ZM437 -31Q517 -31 587 -10T710 51T793 150T823 281Q823 360 790 422T700 527T567 593T408 616Q335 616 261 601Q260 601
258 601T253 600Q248 600 244 602L250 292L372 295Q387 295 394 286T403 266Q403 253 395 244T373 235L251 232L256 -21Q266 -11 283 -14Q363 -31 437 -31Z" />
<glyph unicode="&#xd1;" glyph-name="Ntilde" horiz-adv-x="857" d="M481 616Q461 616 445 623T417 642Q395 671 385 687T368 709T343 716Q319 711 306 694T288 652Q285 638 277 634T259 629Q246 629 238 639T232 663Q243 711 273 742T343 773Q372 773 392 762T431
723Q448 695 456 684T481 673H482Q502 673 515 692T529 736Q531 751 540 757T559 762Q586 762 586 732Q583 686 554 651T481 616ZM124 -72Q113 -72 104 -65T92 -44Q88 6 86 44T82 124T80 221Q80 312 83 402T92 575Q94 592 104 598T124 603Q142 600 148 590T152
564Q210 506 260 459T359 368T459 281T568 185T699 69Q705 120 708 160T714 243T716 344Q716 402 714 459T709 571Q708 585 717 594T741 603Q751 603 759 596T769 575Q773 517 775 462T777 350Q777 295 775 249T769 160T760 68T747 -40Q746 -54 737 -60T718 -67Q703
-67 694 -57T687 -33Q687 -29 688 -20T690 -8L147 486Q143 423 141 359T139 231Q139 176 140 136T145 55T152 -39Q154 -55 145 -62T124 -72Z" />
<glyph unicode="&#xd2;" glyph-name="Ograve" horiz-adv-x="859" d="M412 643L324 715Q312 726 312 738Q312 751 323 762Q334 773 347 773Q359 773 370 763L457 691Q468 681 468 668Q468 654 458 644Q450 633 436 633Q423 633 412 643ZM430 -86Q314 -86 226 -46T89
73T40 264Q40 383 87 461T221 577T430 616Q550 616 637 576T771 457T819 264Q819 153 769 75T630 -45T430 -86ZM430 -26Q528 -26 602 7T717 106T759 264Q759 364 719 428T605 524T430 556Q272 556 186 486T100 264Q100 167 141 103T257 6T430 -26Z" />
<glyph unicode="&#xd3;" glyph-name="Oacute" horiz-adv-x="859" d="M442 645Q432 629 415 629Q407 629 396 635Q380 646 380 663Q380 673 386 680L446 764Q452 773 459 776T473 780Q484 780 491 774Q509 763 509 747Q509 737 502 729L442 645ZM430 -86Q314 -86
226 -46T89 73T40 264Q40 383 87 461T221 577T430 616Q550 616 637 576T771 457T819 264Q819 153 769 75T630 -45T430 -86ZM430 -26Q528 -26 602 7T717 106T759 264Q759 364 719 428T605 524T430 556Q272 556 186 486T100 264Q100 167 141 103T257 6T430 -26Z"
/>
<glyph unicode="&#xd4;" glyph-name="Ocircumflex" horiz-adv-x="859" d="M530 648Q518 648 511 656Q476 695 451 712T406 730Q387 729 364 713T308 660Q300 652 289 652Q280 652 272 658Q264 666 264 677Q264 687 270 694Q311 740 342 760T406 781Q438 781 472
760T549 690Q556 681 556 673Q556 662 547 654Q540 648 530 648ZM430 -86Q314 -86 226 -46T89 73T40 264Q40 383 87 461T221 577T430 616Q550 616 637 576T771 457T819 264Q819 153 769 75T630 -45T430 -86ZM430 -26Q528 -26 602 7T717 106T759 264Q759 364 719
428T605 524T430 556Q272 556 186 486T100 264Q100 167 141 103T257 6T430 -26Z" />
<glyph unicode="&#xd5;" glyph-name="Otilde" horiz-adv-x="859" d="M499 630Q479 630 463 637T435 656Q413 685 403 701T386 723T361 730Q337 725 324 708T306 666Q303 652 295 648T277 643Q264 643 256 653T250 677Q261 725 291 756T361 787Q390 787 410 776T449
737Q466 709 474 698T499 687H500Q520 687 533 706T547 750Q549 765 558 771T577 776Q604 776 604 746Q601 700 572 665T499 630ZM430 -86Q314 -86 226 -46T89 73T40 264Q40 383 87 461T221 577T430 616Q550 616 637 576T771 457T819 264Q819 153 769 75T630 -45T430
-86ZM430 -26Q528 -26 602 7T717 106T759 264Q759 364 719 428T605 524T430 556Q272 556 186 486T100 264Q100 167 141 103T257 6T430 -26Z" />
<glyph unicode="&#xd6;" glyph-name="Odieresis" horiz-adv-x="859" d="M340 673Q312 673 298 689T283 729Q283 753 298 768T340 783Q366 783 381 768T397 729Q397 704 382 689T340 673ZM480 673Q452 673 438 689T423 729Q423 753 438 768T480 783Q506 783 521
768T537 729Q537 704 522 689T480 673ZM430 -86Q314 -86 226 -46T89 73T40 264Q40 383 87 461T221 577T430 616Q550 616 637 576T771 457T819 264Q819 153 769 75T630 -45T430 -86ZM430 -26Q528 -26 602 7T717 106T759 264Q759 364 719 428T605 524T430 556Q272
556 186 486T100 264Q100 167 141 103T257 6T430 -26Z" />
<glyph unicode="&#xd7;" glyph-name="multiply" horiz-adv-x="436" d="M263 264L397 130Q406 121 406 108Q406 96 397 85Q388 76 374 76Q361 76 352 85L218 219L85 85Q76 76 62 76Q49 76 40 85Q30 97 30 108Q30 120 40 130L173 264L40 397Q30 409 30 420Q30 432
40 442Q49 452 62 452Q76 452 85 442L218 309L352 442Q361 452 374 452Q388 452 397 442Q406 433 406 420Q406 408 397 397L263 264Z" />
<glyph unicode="&#xd8;" glyph-name="Oslash" horiz-adv-x="859" d="M430 -86Q314 -86 226 -38T89 96T40 294Q40 413 87 498T221 630T430 676Q550 676 637 628T771 495T819 294Q819 210 790 141T709 21T585 -58T430 -86ZM430 -26Q528 -26 602 15T717 128T759 294Q759
394 719 466T605 577T430 616Q272 616 186 531T100 294Q100 197 141 125T257 14T430 -26ZM114 -10Q95 11 113 32L670 636Q689 657 712 638Q723 627 723 615T714 595L157 -8Q146 -20 135 -18T114 -10Z" />
<glyph unicode="&#xd9;" glyph-name="Ugrave" horiz-adv-x="819" d="M412 643L324 715Q312 726 312 738Q312 751 323 762Q334 773 347 773Q359 773 370 763L457 691Q468 681 468 668Q468 654 458 644Q450 633 436 633Q423 633 412 643ZM437 -83Q307 -83 219 -32T85
108T40 308Q40 376 57 450T109 600Q113 609 120 613T135 617Q150 617 158 609T166 586Q166 582 165 577T162 566Q133 501 119 438T104 317Q104 221 142 145T254 25T437 -19Q537 -19 598 20T688 129T717 285Q717 350 703 422T663 568Q660 574 660 579Q660 591 671
600T692 609Q712 609 720 588Q779 425 779 281Q779 176 744 94T633 -36T437 -83Z" />
<glyph unicode="&#xda;" glyph-name="Uacute" horiz-adv-x="819" d="M402 645Q392 629 375 629Q367 629 356 635Q340 646 340 663Q340 673 346 680L406 764Q412 773 419 776T433 780Q444 780 451 774Q469 763 469 747Q469 737 462 729L402 645ZM437 -83Q307 -83
219 -32T85 108T40 308Q40 376 57 450T109 600Q113 609 120 613T135 617Q150 617 158 609T166 586Q166 582 165 577T162 566Q133 501 119 438T104 317Q104 221 142 145T254 25T437 -19Q537 -19 598 20T688 129T717 285Q717 350 703 422T663 568Q660 574 660 579Q660
591 671 600T692 609Q712 609 720 588Q779 425 779 281Q779 176 744 94T633 -36T437 -83Z" />
<glyph unicode="&#xdb;" glyph-name="Ucircumflex" horiz-adv-x="819" d="M530 648Q518 648 511 656Q476 695 451 712T406 730Q387 729 364 713T308 660Q300 652 289 652Q280 652 272 658Q264 666 264 677Q264 687 270 694Q311 740 342 760T406 781Q438 781 472
760T549 690Q556 681 556 673Q556 662 547 654Q540 648 530 648ZM437 -83Q307 -83 219 -32T85 108T40 308Q40 376 57 450T109 600Q113 609 120 613T135 617Q150 617 158 609T166 586Q166 582 165 577T162 566Q133 501 119 438T104 317Q104 221 142 145T254 25T437
-19Q537 -19 598 20T688 129T717 285Q717 350 703 422T663 568Q660 574 660 579Q660 591 671 600T692 609Q712 609 720 588Q779 425 779 281Q779 176 744 94T633 -36T437 -83Z" />
<glyph unicode="&#xdc;" glyph-name="Udieresis" horiz-adv-x="819" d="M330 673Q302 673 288 689T273 729Q273 753 288 768T330 783Q356 783 371 768T387 729Q387 704 372 689T330 673ZM470 673Q442 673 428 689T413 729Q413 753 428 768T470 783Q496 783 511
768T527 729Q527 704 512 689T470 673ZM437 -83Q307 -83 219 -32T85 108T40 308Q40 376 57 450T109 600Q113 609 120 613T135 617Q150 617 158 609T166 586Q166 582 165 577T162 566Q133 501 119 438T104 317Q104 221 142 145T254 25T437 -19Q537 -19 598 20T688
129T717 285Q717 350 703 422T663 568Q660 574 660 579Q660 591 671 600T692 609Q712 609 720 588Q779 425 779 281Q779 176 744 94T633 -36T437 -83Z" />
<glyph unicode="&#xdd;" glyph-name="Yacute" horiz-adv-x="806" d="M404 -83Q391 -83 383 -75T374 -53V124Q249 135 163 212T43 416Q36 442 33 472T30 534Q30 558 32 581T37 627Q39 641 47 647T66 653Q81 653 90 645T97 619Q94 599 93 579T92 538Q92 479 104
426Q125 350 168 295T273 211T407 181Q481 181 541 211T644 297T706 428Q712 453 714 477T717 525Q717 549 715 572T709 619Q708 638 717 645T738 653Q748 653 757 647T769 628Q773 603 774 578T776 526Q776 498 774 471T765 417Q734 288 647 211T434 124V-53Q434
-69 425 -76T404 -83ZM462 645Q452 629 435 629Q427 629 416 635Q400 646 400 663Q400 673 406 680L466 764Q472 773 479 776T493 780Q504 780 511 774Q529 763 529 747Q529 737 522 729L462 645Z" />
<glyph unicode="&#xde;" glyph-name="Thorn" horiz-adv-x="699" d="M142 -78Q131 -78 123 -70T114 -51L80 680Q79 692 87 700T108 709Q119 709 127 701T136 682L142 559Q177 571 238 586T369 601Q407 601 445 595T517 571Q576 543 612 494T657 381Q659 372 659
364T659 346Q659 287 634 232T564 137Q520 100 453 87T321 73Q272 73 230 77T164 86L170 -48Q171 -60 163 -68T143 -78H142ZM161 143Q190 138 231 134T319 130Q379 130 436 140T527 180Q564 212 583 256T603 346Q603 405 574 450T493 520Q465 534 433 539T369 545Q322
545 277 537T198 518T145 500L161 143Z" />
<glyph unicode="&#xdf;" glyph-name="germandbls" horiz-adv-x="599" d="M137 -145Q124 -145 115 -137T104 -116Q94 -12 87 108T80 340Q80 359 80 378T81 415Q82 484 112 532T188 608T283 643Q303 646 321 646Q389 646 442 612T514 518Q529 475 529 434Q529 386
506 343Q474 284 402 245Q479 223 520 174Q559 126 559 56Q559 11 542 -25T490 -84Q437 -119 354 -119Q291 -119 219 -98Q208 -95 202 -86T196 -67Q196 -53 205 -44T228 -35Q234 -35 237 -36Q269 -45 298 -50T354 -55Q417 -55 454 -30Q476 -16 485 6T494 59Q494
105 470 133Q422 189 279 200Q266 201 258 210T249 231Q249 242 256 251T273 264Q409 300 449 373Q464 402 464 436Q464 463 453 498Q438 542 400 561T320 581Q294 581 264 572T208 544T164 492T145 414Q145 398 145 383T144 351Q144 239 150 118T169 -109Q171
-122 163 -132T140 -144Q139 -145 137 -145Z" />
<glyph unicode="&#xe0;" glyph-name="agrave" horiz-adv-x="739" d="M382 643L294 715Q282 726 282 738Q282 751 293 762Q304 773 317 773Q329 773 340 763L427 691Q438 681 438 668Q438 654 428 644Q420 633 406 633Q393 633 382 643ZM382 -81Q374 -82 366 -82T349
-82Q260 -82 190 -45T80 59T40 210Q40 290 71 357T161 470T298 527Q309 529 322 530T348 531Q402 531 460 517T559 476Q564 487 575 489T593 490Q604 489 610 480T616 459Q615 436 615 414T614 370Q614 258 630 171T693 19Q699 10 699 1Q699 -11 690 -19T669 -27Q654
-27 644 -14Q634 0 625 17T609 47Q568 -10 509 -41T382 -81ZM362 -23Q430 -23 487 15T581 119Q566 175 559 249T553 403Q533 425 500 440T428 463T351 471Q326 471 304 468T263 457Q187 429 143 364T98 214Q98 140 133 87T229 6T362 -23Z" />
<glyph unicode="&#xe1;" glyph-name="aacute" horiz-adv-x="739" d="M382 -81Q374 -82 366 -82T349 -82Q260 -82 190 -45T80 59T40 210Q40 290 71 357T161 470T298 527Q309 529 322 530T348 531Q402 531 460 517T559 476Q564 487 575 489T593 490Q604 489 610
480T616 459Q615 436 615 414T614 370Q614 258 630 171T693 19Q699 10 699 1Q699 -11 690 -19T669 -27Q654 -27 644 -14Q634 0 625 17T609 47Q568 -10 509 -41T382 -81ZM362 -23Q430 -23 487 15T581 119Q566 175 559 249T553 403Q533 425 500 440T428 463T351 471Q326
471 304 468T263 457Q187 429 143 364T98 214Q98 140 133 87T229 6T362 -23ZM342 891Q332 875 315 875Q307 875 296 881Q280 892 280 909Q280 919 286 926L346 1010Q352 1019 359 1022T373 1026Q384 1026 391 1020Q409 1009 409 993Q409 983 402 975L342 891Z"
/>
<glyph unicode="&#xe2;" glyph-name="acircumflex" horiz-adv-x="739" d="M382 -81Q374 -82 366 -82T349 -82Q260 -82 190 -45T80 59T40 210Q40 290 71 357T161 470T298 527Q309 529 322 530T348 531Q402 531 460 517T559 476Q564 487 575 489T593 490Q604 489
610 480T616 459Q615 436 615 414T614 370Q614 258 630 171T693 19Q699 10 699 1Q699 -11 690 -19T669 -27Q654 -27 644 -14Q634 0 625 17T609 47Q568 -10 509 -41T382 -81ZM362 -23Q430 -23 487 15T581 119Q566 175 559 249T553 403Q533 425 500 440T428 463T351
471Q326 471 304 468T263 457Q187 429 143 364T98 214Q98 140 133 87T229 6T362 -23ZM490 884Q478 884 471 892Q436 931 411 948T366 966Q347 965 324 949T268 896Q260 888 249 888Q240 888 232 894Q224 902 224 913Q224 923 230 930Q271 976 302 996T366 1017Q398
1017 432 996T509 926Q516 917 516 909Q516 898 507 890Q500 884 490 884Z" />
<glyph unicode="&#xe3;" glyph-name="atilde" horiz-adv-x="739" d="M419 570Q399 570 383 577T355 596Q333 625 323 641T306 663T281 670Q257 665 244 648T226 606Q223 592 215 588T197 583Q184 583 176 593T170 617Q181 665 211 696T281 727Q310 727 330 716T369
677Q386 649 394 638T419 627H420Q440 627 453 646T467 690Q469 705 478 711T497 716Q524 716 524 686Q521 640 492 605T419 570ZM382 -81Q374 -82 366 -82T349 -82Q260 -82 190 -45T80 59T40 210Q40 290 71 357T161 470T298 527Q309 529 322 530T348 531Q402 531
460 517T559 476Q564 487 575 489T593 490Q604 489 610 480T616 459Q615 436 615 414T614 370Q614 258 630 171T693 19Q699 10 699 1Q699 -11 690 -19T669 -27Q654 -27 644 -14Q634 0 625 17T609 47Q568 -10 509 -41T382 -81ZM362 -23Q430 -23 487 15T581 119Q566
175 559 249T553 403Q533 425 500 440T428 463T351 471Q326 471 304 468T263 457Q187 429 143 364T98 214Q98 140 133 87T229 6T362 -23Z" />
<glyph unicode="&#xe4;" glyph-name="adieresis" horiz-adv-x="739" d="M382 -81Q374 -82 366 -82T349 -82Q260 -82 190 -45T80 59T40 210Q40 290 71 357T161 470T298 527Q309 529 322 530T348 531Q402 531 460 517T559 476Q564 487 575 489T593 490Q604 489 610
480T616 459Q615 436 615 414T614 370Q614 258 630 171T693 19Q699 10 699 1Q699 -11 690 -19T669 -27Q654 -27 644 -14Q634 0 625 17T609 47Q568 -10 509 -41T382 -81ZM362 -23Q430 -23 487 15T581 119Q566 175 559 249T553 403Q533 425 500 440T428 463T351 471Q326
471 304 468T263 457Q187 429 143 364T98 214Q98 140 133 87T229 6T362 -23ZM280 899Q252 899 238 915T223 955Q223 979 238 994T280 1009Q306 1009 321 994T337 955Q337 930 322 915T280 899ZM420 899Q392 899 378 915T363 955Q363 979 378 994T420 1009Q446 1009
461 994T477 955Q477 930 462 915T420 899Z" />
<glyph unicode="&#xe5;" glyph-name="aring" horiz-adv-x="739" d="M382 -81Q374 -82 366 -82T349 -82Q260 -82 190 -45T80 59T40 210Q40 290 71 357T161 470T298 527Q309 529 322 530T348 531Q402 531 460 517T559 476Q564 487 575 489T593 490Q604 489 610 480T616
459Q615 436 615 414T614 370Q614 258 630 171T693 19Q699 10 699 1Q699 -11 690 -19T669 -27Q654 -27 644 -14Q634 0 625 17T609 47Q568 -10 509 -41T382 -81ZM362 -23Q430 -23 487 15T581 119Q566 175 559 249T553 403Q533 425 500 440T428 463T351 471Q326 471
304 468T263 457Q187 429 143 364T98 214Q98 140 133 87T229 6T362 -23ZM351 880Q320 880 299 901T277 953Q277 983 298 1004T351 1026Q381 1026 402 1005T424 953Q424 923 403 902T351 880ZM351 981Q338 981 330 973T322 953Q322 941 330 933T351 925Q363 925
371 933T379 953Q379 965 371 973T351 981Z" />
<glyph unicode="&#xe6;" glyph-name="ae" horiz-adv-x="821" d="M231 -72Q204 -72 180 -65Q118 -49 79 -1T40 112Q40 175 78 225T180 297Q199 303 220 305T267 308Q293 308 322 306T383 300Q377 362 352 408T286 476Q258 491 225 491Q171 491 117 451Q107 444
97 444Q81 444 72 458Q65 466 65 477Q65 492 78 502Q151 555 225 555Q272 555 315 533Q381 498 417 422Q431 449 451 471T496 508Q543 537 596 537Q645 537 689 512Q733 486 757 440T781 333Q781 278 746 249Q723 230 688 222T611 214Q574 214 534 218T451 227Q459
152 490 97T569 16Q605 -2 643 -2Q690 -2 733 23Q740 27 749 27Q767 27 777 12Q781 5 781 -4Q781 -23 765 -32Q707 -67 644 -67Q589 -67 539 -40Q502 -20 473 12T423 87Q407 39 384 10T339 -36Q293 -72 231 -72ZM449 292Q490 287 532 283T612 278Q643 278 667 282T705
298Q710 302 713 309T717 334Q717 421 656 456Q628 473 595 473Q562 473 529 454Q455 408 449 292ZM196 -3Q213 -8 232 -8Q248 -8 265 -3T301 15Q338 43 359 99T385 235Q354 239 324 241T268 244Q248 244 231 243T200 236Q146 217 125 181T104 112Q104 79 125 45T196
-3Z" />
<glyph unicode="&#xe7;" glyph-name="ccedilla" horiz-adv-x="654" d="M258 -78Q188 -56 139 -12T65 91T40 215Q40 286 69 355T153 467Q196 503 258 521T384 540Q446 540 503 523T599 471Q610 460 610 448Q610 439 601 428Q591 418 579 418Q567 418 558 427Q532
453 481 466T377 480Q340 480 306 474T246 454Q176 420 139 355T101 215Q101 139 144 76T267 -16Q318 -34 371 -34Q424 -34 474 -17T562 33Q573 41 583 41Q596 41 606 31Q614 20 614 10Q614 -2 603 -11Q555 -53 495 -74T372 -95Q315 -95 258 -78ZM354 -15Q344 -15
334 -15T314 -14Q304 -13 297 -6T290 11Q290 22 297 29T315 37Q324 37 333 37T352 36Q371 36 388 38T413 49Q415 51 417 54T419 65Q419 71 419 75T413 82Q397 96 349 96Q318 96 279 90H276Q263 90 255 100Q250 107 250 114Q250 120 253 126Q258 137 264 148T275
169Q278 174 281 179T285 188Q293 202 309 202Q320 202 327 194T334 176Q334 170 331 164L321 146Q329 147 335 147T349 147Q417 147 446 121Q470 101 470 66Q470 34 448 12Q431 -4 406 -9T354 -15Z" />
<glyph unicode="&#xe8;" glyph-name="egrave" horiz-adv-x="702" d="M352 643L264 715Q252 726 252 738Q252 751 263 762Q274 773 287 773Q299 773 310 763L397 691Q408 681 408 668Q408 654 398 644Q390 633 376 633Q363 633 352 643ZM475 -63Q451 -70 427 -73T378
-77Q313 -77 253 -54T144 11T68 110T40 235Q40 330 82 403T198 519T364 561Q422 561 475 539T571 476T637 383T662 270Q662 220 631 195T548 160T434 151Q392 151 341 154T240 162T154 173Q140 175 134 183T128 202Q128 216 137 225T163 233Q181 229 219 225T302
217T389 211T457 209Q531 211 568 227T606 282Q606 323 585 362T529 432T451 482T364 501Q308 503 259 482T174 423T117 336T96 232Q96 180 121 135T188 55T281 2T384 -17Q419 -17 455 -6Q458 -5 464 -5Q476 -5 485 -13T495 -36Q495 -44 491 -52T475 -63Z" />
<glyph unicode="&#xe9;" glyph-name="eacute" horiz-adv-x="702" d="M475 -63Q451 -70 427 -73T378 -77Q313 -77 253 -54T144 11T68 110T40 235Q40 330 82 403T198 519T364 561Q422 561 475 539T571 476T637 383T662 270Q662 220 631 195T548 160T434 151Q392
151 341 154T240 162T154 173Q140 175 134 183T128 202Q128 216 137 225T163 233Q181 229 219 225T302 217T389 211T457 209Q531 211 568 227T606 282Q606 323 585 362T529 432T451 482T364 501Q308 503 259 482T174 423T117 336T96 232Q96 180 121 135T188 55T281
2T384 -17Q419 -17 455 -6Q458 -5 464 -5Q476 -5 485 -13T495 -36Q495 -44 491 -52T475 -63ZM342 645Q332 629 315 629Q307 629 296 635Q280 646 280 663Q280 673 286 680L346 764Q352 773 359 776T373 780Q384 780 391 774Q409 763 409 747Q409 737 402 729L342
645Z" />
<glyph unicode="&#xea;" glyph-name="ecircumflex" horiz-adv-x="702" d="M475 -63Q451 -70 427 -73T378 -77Q313 -77 253 -54T144 11T68 110T40 235Q40 330 82 403T198 519T364 561Q422 561 475 539T571 476T637 383T662 270Q662 220 631 195T548 160T434 151Q392
151 341 154T240 162T154 173Q140 175 134 183T128 202Q128 216 137 225T163 233Q181 229 219 225T302 217T389 211T457 209Q531 211 568 227T606 282Q606 323 585 362T529 432T451 482T364 501Q308 503 259 482T174 423T117 336T96 232Q96 180 121 135T188 55T281
2T384 -17Q419 -17 455 -6Q458 -5 464 -5Q476 -5 485 -13T495 -36Q495 -44 491 -52T475 -63ZM470 894Q458 894 451 902Q416 941 391 958T346 976Q327 975 304 959T248 906Q240 898 229 898Q220 898 212 904Q204 912 204 923Q204 933 210 940Q251 986 282 1006T346
1027Q378 1027 412 1006T489 936Q496 927 496 919Q496 908 487 900Q480 894 470 894Z" />
<glyph unicode="&#xeb;" glyph-name="edieresis" horiz-adv-x="702" d="M475 -63Q451 -70 427 -73T378 -77Q313 -77 253 -54T144 11T68 110T40 235Q40 330 82 403T198 519T364 561Q422 561 475 539T571 476T637 383T662 270Q662 220 631 195T548 160T434 151Q392
151 341 154T240 162T154 173Q140 175 134 183T128 202Q128 216 137 225T163 233Q181 229 219 225T302 217T389 211T457 209Q531 211 568 227T606 282Q606 323 585 362T529 432T451 482T364 501Q308 503 259 482T174 423T117 336T96 232Q96 180 121 135T188 55T281
2T384 -17Q419 -17 455 -6Q458 -5 464 -5Q476 -5 485 -13T495 -36Q495 -44 491 -52T475 -63ZM280 909Q252 909 238 925T223 965Q223 989 238 1004T280 1019Q306 1019 321 1004T337 965Q337 940 322 925T280 909ZM420 909Q392 909 378 925T363 965Q363 989 378 1004T420
1019Q446 1019 461 1004T477 965Q477 940 462 925T420 909Z" />
<glyph unicode="&#xec;" glyph-name="igrave" horiz-adv-x="236" d="M122 -68Q106 -68 99 -60T91 -40Q88 34 88 112Q88 178 91 235Q92 251 102 257T123 262Q135 262 143 253T151 230Q149 220 148 187T147 114Q147 82 147 51T149 -4T151 -35Q151 -52 142 -60T122
-68ZM140 373L52 445Q40 456 40 468Q40 481 51 492Q62 503 75 503Q87 503 98 493L185 421Q196 411 196 398Q196 384 186 374Q178 363 164 363Q151 363 140 373Z" />
<glyph unicode="&#xed;" glyph-name="iacute" horiz-adv-x="209" d="M104 -68Q88 -68 81 -60T73 -40Q70 34 70 112Q70 178 73 235Q74 251 84 257T105 262Q117 262 125 253T133 230Q131 220 130 187T129 114Q129 82 129 51T131 -4T133 -35Q133 -52 124 -60T104
-68ZM102 385Q92 369 75 369Q67 369 56 375Q40 386 40 403Q40 413 46 420L106 504Q112 513 119 516T133 520Q144 520 151 514Q169 503 169 487Q169 477 162 469L102 385Z" />
<glyph unicode="&#xee;" glyph-name="icircumflex" horiz-adv-x="372" d="M184 -68Q168 -68 161 -60T153 -40Q150 34 150 112Q150 178 153 235Q154 251 164 257T185 262Q197 262 205 253T213 230Q211 220 210 187T209 114Q209 82 209 51T211 -4T213 -35Q213 -52
204 -60T184 -68ZM306 368Q294 368 287 376Q252 415 227 432T182 450Q163 449 140 433T84 380Q76 372 65 372Q56 372 48 378Q40 386 40 397Q40 407 46 414Q87 460 118 480T182 501Q214 501 248 480T325 410Q332 401 332 393Q332 382 323 374Q316 368 306 368Z"
/>
<glyph unicode="&#xef;" glyph-name="idieresis" horiz-adv-x="334" d="M171 -68Q155 -68 148 -60T140 -40Q137 34 137 112Q137 178 140 235Q141 251 151 257T172 262Q184 262 192 253T200 230Q198 220 197 187T196 114Q196 82 196 51T198 -4T200 -35Q200 -52
191 -60T171 -68ZM97 373Q69 373 55 389T40 429Q40 453 55 468T97 483Q123 483 138 468T154 429Q154 404 139 389T97 373ZM237 373Q209 373 195 389T180 429Q180 453 195 468T237 483Q263 483 278 468T294 429Q294 404 279 389T237 373Z" />
<glyph unicode="&#xf0;" glyph-name="eth" horiz-adv-x="594" d="M274 -96Q226 -96 176 -76T90 -8T43 118Q40 138 40 157Q40 218 67 267T145 349Q181 372 224 383T312 394Q381 394 444 370Q413 429 367 472T267 545Q241 527 214 507T157 464Q147 457 137 457Q121
457 110 470Q103 478 103 490Q103 507 116 517Q139 534 159 549T198 579Q176 587 155 594T112 608Q101 611 95 620T88 640Q88 655 98 664T121 673Q127 673 130 672Q166 662 199 650T262 623Q286 639 312 655T367 687Q374 691 383 691Q404 691 413 674Q417 667 417
658Q417 638 400 629Q381 618 363 608T328 586Q438 516 496 413T554 179Q554 63 470 -18Q433 -52 387 -72T290 -95Q286 -96 283 -96T274 -96ZM273 -29Q342 -29 389 2T462 81T487 177Q487 205 484 230T476 280Q440 303 398 315T312 327Q276 327 242 318T181 292Q155
276 131 244T107 156Q107 149 107 142T109 126Q114 88 132 53T185 -6T273 -29Z" />
<glyph unicode="&#xf1;" glyph-name="ntilde" horiz-adv-x="765" d="M614 -74Q601 -74 592 -66T582 -44Q582 -40 584 -34Q601 19 611 77T622 190Q622 297 578 360T437 431Q365 434 313 395T226 292Q195 233 180 158T164 12Q164 2 164 -8T165 -29Q165 -47 155 -54T133
-62Q108 -62 105 -33Q98 30 93 107T84 263T80 408Q80 427 80 444T81 476Q81 493 91 500T112 505Q124 505 132 497T141 475Q142 436 142 407T142 347T143 268Q164 336 205 388T303 469T423 499Q506 499 564 462T654 359T685 205Q685 138 673 75T641 -53Q638 -64
631 -69T614 -74ZM459 550Q439 550 423 557T395 576Q373 605 363 621T346 643T321 650Q297 645 284 628T266 586Q263 572 255 568T237 563Q224 563 216 573T210 597Q221 645 251 676T321 707Q350 707 370 696T409 657Q426 629 434 618T459 607H460Q480 607 493
626T507 670Q509 685 518 691T537 696Q564 696 564 666Q561 620 532 585T459 550Z" />
<glyph unicode="&#xf2;" glyph-name="ograve" horiz-adv-x="718" d="M359 -87Q262 -87 191 -47T80 63T40 227Q40 323 79 393T189 503T359 542Q459 542 530 504T640 395T678 227Q678 132 639 61T529 -48T359 -87ZM359 -24Q482 -24 548 43T615 227Q615 349 546 414T359
479Q241 479 172 412T103 227Q103 149 136 93T227 7T359 -24ZM342 889L254 961Q242 972 242 984Q242 997 253 1008Q264 1019 277 1019Q289 1019 300 1009L387 937Q398 927 398 914Q398 900 388 890Q380 879 366 879Q353 879 342 889Z" />
<glyph unicode="&#xf3;" glyph-name="oacute" horiz-adv-x="718" d="M359 -87Q262 -87 191 -47T80 63T40 227Q40 323 79 393T189 503T359 542Q459 542 530 504T640 395T678 227Q678 132 639 61T529 -48T359 -87ZM359 -24Q482 -24 548 43T615 227Q615 349 546 414T359
479Q241 479 172 412T103 227Q103 149 136 93T227 7T359 -24ZM352 891Q342 875 325 875Q317 875 306 881Q290 892 290 909Q290 919 296 926L356 1010Q362 1019 369 1022T383 1026Q394 1026 401 1020Q419 1009 419 993Q419 983 412 975L352 891Z" />
<glyph unicode="&#xf4;" glyph-name="ocircumflex" horiz-adv-x="718" d="M359 -87Q262 -87 191 -47T80 63T40 227Q40 323 79 393T189 503T359 542Q459 542 530 504T640 395T678 227Q678 132 639 61T529 -48T359 -87ZM359 -24Q482 -24 548 43T615 227Q615 349
546 414T359 479Q241 479 172 412T103 227Q103 149 136 93T227 7T359 -24ZM480 874Q468 874 461 882Q426 921 401 938T356 956Q337 955 314 939T258 886Q250 878 239 878Q230 878 222 884Q214 892 214 903Q214 913 220 920Q261 966 292 986T356 1007Q388 1007 422
986T499 916Q506 907 506 899Q506 888 497 880Q490 874 480 874Z" />
<glyph unicode="&#xf5;" glyph-name="otilde" horiz-adv-x="718" d="M359 -87Q262 -87 191 -47T80 63T40 227Q40 323 79 393T189 503T359 542Q459 542 530 504T640 395T678 227Q678 132 639 61T529 -48T359 -87ZM359 -24Q482 -24 548 43T615 227Q615 349 546 414T359
479Q241 479 172 412T103 227Q103 149 136 93T227 7T359 -24ZM419 560Q399 560 383 567T355 586Q333 615 323 631T306 653T281 660Q257 655 244 638T226 596Q223 582 215 578T197 573Q184 573 176 583T170 607Q181 655 211 686T281 717Q310 717 330 706T369 667Q386
639 394 628T419 617H420Q440 617 453 636T467 680Q469 695 478 701T497 706Q524 706 524 676Q521 630 492 595T419 560Z" />
<glyph unicode="&#xf6;" glyph-name="odieresis" horiz-adv-x="718" d="M359 -87Q262 -87 191 -47T80 63T40 227Q40 323 79 393T189 503T359 542Q459 542 530 504T640 395T678 227Q678 132 639 61T529 -48T359 -87ZM359 -24Q482 -24 548 43T615 227Q615 349 546
414T359 479Q241 479 172 412T103 227Q103 149 136 93T227 7T359 -24ZM280 889Q252 889 238 905T223 945Q223 969 238 984T280 999Q306 999 321 984T337 945Q337 920 322 905T280 889ZM420 889Q392 889 378 905T363 945Q363 969 378 984T420 999Q446 999 461 984T477
945Q477 920 462 905T420 889Z" />
<glyph unicode="&#xf7;" glyph-name="divide" horiz-adv-x="534" d="M266 336Q228 336 208 358T188 412Q188 448 208 468T266 488Q304 488 324 467T345 412Q345 378 324 357T266 336ZM61 239Q48 239 39 248T30 270Q30 301 61 301H473Q490 301 497 291T504 270Q504
258 496 249T473 239H61ZM266 56Q228 56 208 78T188 132Q188 167 208 187T266 208Q304 208 324 186T345 132Q345 98 324 77T266 56Z" />
<glyph unicode="&#xf8;" glyph-name="oslash" horiz-adv-x="718" d="M359 -87Q262 -87 191 -47T80 63T40 227Q40 323 79 393T189 503T359 542Q459 542 530 504T640 395T678 227Q678 132 639 61T529 -48T359 -87ZM359 -24Q482 -24 548 43T615 227Q615 349 546 414T359
479Q241 479 172 412T103 227Q103 149 136 93T227 7T359 -24ZM257 -162Q230 -154 235 -126L415 675Q421 703 451 698Q466 694 471 683T474 662L293 -139Q290 -155 279 -159T257 -162Z" />
<glyph unicode="&#xf9;" glyph-name="ugrave" horiz-adv-x="718" d="M643 -68Q635 -68 627 -64T615 -49Q599 -12 590 32T576 116Q554 66 517 26T433 -39T332 -66Q230 -71 166 -34T71 72T40 227Q40 289 54 355T94 489Q101 508 121 508Q135 508 144 500T153 480Q153
475 150 467Q125 403 112 341T98 223Q98 156 120 103T189 21T311 -6Q385 -3 442 43T533 169T566 353Q566 371 565 390T561 428Q559 445 569 451T591 457Q605 456 614 448T624 425Q624 385 626 334T633 228T644 122T658 32T676 -28Q678 -31 678 -34T678 -40Q678
-53 667 -60T643 -68ZM332 879L244 951Q232 962 232 974Q232 987 243 998Q254 1009 267 1009Q279 1009 290 999L377 927Q388 917 388 904Q388 890 378 880Q370 869 356 869Q343 869 332 879Z" />
<glyph unicode="&#xfa;" glyph-name="uacute" horiz-adv-x="718" d="M643 -68Q635 -68 627 -64T615 -49Q599 -12 590 32T576 116Q554 66 517 26T433 -39T332 -66Q230 -71 166 -34T71 72T40 227Q40 289 54 355T94 489Q101 508 121 508Q135 508 144 500T153 480Q153
475 150 467Q125 403 112 341T98 223Q98 156 120 103T189 21T311 -6Q385 -3 442 43T533 169T566 353Q566 371 565 390T561 428Q559 445 569 451T591 457Q605 456 614 448T624 425Q624 385 626 334T633 228T644 122T658 32T676 -28Q678 -31 678 -34T678 -40Q678
-53 667 -60T643 -68ZM342 861Q332 845 315 845Q307 845 296 851Q280 862 280 879Q280 889 286 896L346 980Q352 989 359 992T373 996Q384 996 391 990Q409 979 409 963Q409 953 402 945L342 861Z" />
<glyph unicode="&#xfb;" glyph-name="ucircumflex" horiz-adv-x="718" d="M643 -68Q635 -68 627 -64T615 -49Q599 -12 590 32T576 116Q554 66 517 26T433 -39T332 -66Q230 -71 166 -34T71 72T40 227Q40 289 54 355T94 489Q101 508 121 508Q135 508 144 500T153
480Q153 475 150 467Q125 403 112 341T98 223Q98 156 120 103T189 21T311 -6Q385 -3 442 43T533 169T566 353Q566 371 565 390T561 428Q559 445 569 451T591 457Q605 456 614 448T624 425Q624 385 626 334T633 228T644 122T658 32T676 -28Q678 -31 678 -34T678
-40Q678 -53 667 -60T643 -68ZM470 884Q458 884 451 892Q416 931 391 948T346 966Q327 965 304 949T248 896Q240 888 229 888Q220 888 212 894Q204 902 204 913Q204 923 210 930Q251 976 282 996T346 1017Q378 1017 412 996T489 926Q496 917 496 909Q496 898 487
890Q480 884 470 884Z" />
<glyph unicode="&#xfc;" glyph-name="udieresis" horiz-adv-x="718" d="M643 -68Q635 -68 627 -64T615 -49Q599 -12 590 32T576 116Q554 66 517 26T433 -39T332 -66Q230 -71 166 -34T71 72T40 227Q40 289 54 355T94 489Q101 508 121 508Q135 508 144 500T153 480Q153
475 150 467Q125 403 112 341T98 223Q98 156 120 103T189 21T311 -6Q385 -3 442 43T533 169T566 353Q566 371 565 390T561 428Q559 445 569 451T591 457Q605 456 614 448T624 425Q624 385 626 334T633 228T644 122T658 32T676 -28Q678 -31 678 -34T678 -40Q678
-53 667 -60T643 -68ZM270 889Q242 889 228 905T213 945Q213 969 228 984T270 999Q296 999 311 984T327 945Q327 920 312 905T270 889ZM410 889Q382 889 368 905T353 945Q353 969 368 984T410 999Q436 999 451 984T467 945Q467 920 452 905T410 889Z" />
<glyph unicode="&#xfd;" glyph-name="yacute" horiz-adv-x="652" d="M144 -196Q138 -199 131 -199Q120 -199 112 -189T104 -169Q104 -148 126 -139Q195 -108 256 -65T368 33Q280 58 216 118T108 262T31 442Q27 453 34 464T53 479Q59 481 62 481Q71 481 79 476T92
459Q119 372 159 296T255 166T387 90Q399 87 406 78Q471 162 508 257T559 458Q561 472 570 478T590 485Q605 485 613 476T622 451Q609 353 573 256T480 79Q416 -14 332 -83T144 -196ZM312 861Q302 845 285 845Q277 845 266 851Q250 862 250 879Q250 889 256 896L316
980Q322 989 329 992T343 996Q354 996 361 990Q379 979 379 963Q379 953 372 945L312 861Z" />
<glyph unicode="&#xfe;" glyph-name="thorn" horiz-adv-x="588" d="M133 -197Q120 -197 111 -188T101 -166Q101 -165 98 -120T90 2T82 174Q81 203 81 231T80 288Q80 385 82 465T86 593T89 642Q90 655 99 664T122 673Q136 673 145 664T155 640Q155 639 153 583T149
430Q152 440 164 449Q166 450 183 457T229 471T296 479Q318 479 341 476T390 463Q463 438 505 378T548 238Q548 171 515 112T426 24Q386 3 347 -5T272 -13Q237 -13 207 -8T156 5L165 -162Q166 -175 158 -185T136 -197H133ZM155 640V640Q155 641 155 640ZM152 75Q166
69 198 61T272 52Q301 52 332 59T395 82Q436 103 459 146T482 239Q482 298 452 340T368 402Q349 409 331 411T296 414Q253 414 225 403T195 391Q191 390 188 389T180 387Q161 387 151 405L148 414Q147 386 147 355T146 290Q146 263 146 235T148 177Q149 150 150
125T152 75Z" />
<glyph unicode="&#xff;" glyph-name="ydieresis" horiz-adv-x="652" d="M144 -196Q138 -199 131 -199Q120 -199 112 -189T104 -169Q104 -148 126 -139Q195 -108 256 -65T368 33Q280 58 216 118T108 262T31 442Q27 453 34 464T53 479Q59 481 62 481Q71 481 79 476T92
459Q119 372 159 296T255 166T387 90Q399 87 406 78Q471 162 508 257T559 458Q561 472 570 478T590 485Q605 485 613 476T622 451Q609 353 573 256T480 79Q416 -14 332 -83T144 -196ZM260 849Q232 849 218 865T203 905Q203 929 218 944T260 959Q286 959 301 944T317
905Q317 880 302 865T260 849ZM400 849Q372 849 358 865T343 905Q343 929 358 944T400 959Q426 959 441 944T457 905Q457 880 442 865T400 849Z" />
<glyph unicode="&#x2013;" glyph-name="endash" horiz-adv-x="500" d="M84 285Q68 285 61 295T54 315Q54 328 62 336T84 344H425Q440 344 447 335T455 315Q455 302 447 294T425 285H84Z" />
<glyph unicode="&#x2014;" glyph-name="emdash" horiz-adv-x="1000" d="M154 239Q138 239 131 249T123 270Q123 283 131 292T154 301H846Q863 301 870 291T877 270Q877 258 869 249T846 239H154Z" />
<glyph unicode="&#x2018;" glyph-name="quoteleft" horiz-adv-x="600" d="M395 548Q361 548 337 570T312 627Q312 663 339 696T400 742Q404 744 410 744Q422 744 415 731L399 705Q431 702 454 683T477 630Q477 595 455 572T395 548ZM205 548Q171 548 147 570T122
627Q122 665 149 697T210 742Q214 744 220 744Q232 744 225 731L209 705Q241 702 264 682T287 630Q287 594 265 571T205 548Z" />
<glyph unicode="&#x2019;" glyph-name="quoteright" horiz-adv-x="600" d="M299 550Q295 548 289 548Q277 548 284 561L300 587Q268 590 245 610T222 662Q222 698 244 721T304 744Q337 744 362 722T387 667Q387 629 362 598T299 550Z" />
<glyph unicode="&#x201a;" glyph-name="quotesinglbase" horiz-adv-x="600" d="M273 -85Q269 -87 263 -87Q251 -87 258 -74L274 -48Q242 -45 219 -25T196 27Q196 63 218 86T278 109Q312 109 336 87T361 32Q361 -7 334 -39T273 -85Z" />
<glyph unicode="&#x201c;" glyph-name="quotedblleft" horiz-adv-x="600" d="M396 548Q362 548 338 570T313 627Q313 663 340 696T401 742Q405 744 411 744Q423 744 416 731L400 705Q432 702 455 683T478 630Q478 595 456 572T396 548ZM206 548Q172 548 148 570T123
627Q123 665 150 697T211 742Q215 744 221 744Q233 744 226 731L210 705Q242 702 265 682T288 630Q288 594 266 571T206 548Z" />
<glyph unicode="&#x201d;" glyph-name="quotedblright" horiz-adv-x="600" d="M205 744Q239 744 263 722T288 665Q288 629 262 597T200 550Q196 548 190 548Q178 548 185 561L201 587Q170 590 147 609T123 662Q123 697 145 720T205 744ZM395 744Q430 744 454 722T478
665Q478 627 451 596T390 550Q386 548 380 548Q368 548 375 561L391 587Q359 590 336 610T313 662Q313 698 335 721T395 744Z" />
<glyph unicode="&#x201e;" glyph-name="quotedblbase" horiz-adv-x="500" d="M336 -93Q332 -95 326 -95Q314 -95 321 -82L337 -56Q306 -53 283 -33T259 19Q259 54 281 77T341 101Q377 101 401 77T425 23Q425 -1 412 -24T378 -66T336 -93ZM146 -93Q142 -95 136
-95Q127 -95 131 -82L147 -56Q116 -53 93 -34T69 19Q69 54 91 77T151 101Q187 101 210 77T234 22Q234 -3 221 -26T187 -66T146 -93Z" />
<glyph unicode="&#x2022;" glyph-name="bullet" horiz-adv-x="500" d="M247 158Q190 158 158 191T126 277Q126 330 158 361T247 392Q305 392 337 360T369 277Q369 225 336 192T247 158Z" />
<glyph unicode="&#x2039;" glyph-name="guilsinglleft" horiz-adv-x="323" d="M260 93Q248 93 241 100L43 248Q32 257 30 273Q30 289 42 299L239 463Q249 471 260 471Q275 471 285 459Q292 451 292 439Q292 423 281 414L115 275L279 151Q293 142 293 125Q293 117
286 106Q276 93 260 93Z" />
<glyph unicode="&#x203a;" glyph-name="guilsinglright" horiz-adv-x="323" d="M63 93Q75 93 82 100L280 248Q291 257 293 273Q293 289 281 299L84 463Q74 471 63 471Q48 471 38 459Q31 451 31 439Q31 423 42 414L208 275L44 151Q30 142 30 125Q30 117 37 106Q47
93 63 93Z" />
</font>
</defs>
</svg>
