<?xml version="1.0" standalone="no"?>
<!DOCTYPE svg PUBLIC "-//W3C//DTD SVG 1.1//EN" "http://www.w3.org/Graphics/SVG/1.1/DTD/svg11.dtd">
<svg xmlns="http://www.w3.org/2000/svg">
<defs >
<font id="MooLahLah" horiz-adv-x="548" ><font-face
    font-family="Moo Lah Lah"
    units-per-em="1000"
    panose-1="0 0 0 0 0 0 0 0 0 0"
    ascent="920"
    descent="-300"
    alphabetic="0" />
<glyph unicode=" " glyph-name="space" horiz-adv-x="255" />
<glyph unicode="!" glyph-name="exclam" horiz-adv-x="373" d="M217 252Q174 252 151 255Q141 255 128 265Q125 262 116 260T101 257Q79 257 75 321Q75 374 73 439T67 582Q63 603 62 617T60 639Q60 681 93 682Q107 683 122 683T154 684Q176 684 199 683T249 679Q265
678 274 677T286 673Q298 664 295 636Q292 612 292 382Q292 376 293 361T295 329T296 303Q296 262 282 257Q265 252 217 252ZM186 287Q192 287 198 287T209 289L236 293Q250 293 259 356Q234 361 219 376T196 414Q192 425 191 432T188 440Q183 450 172 462T149
494Q142 511 142 531Q142 536 142 540T144 549Q150 577 178 605Q196 623 192 653Q163 654 145 654T121 654Q89 651 89 609Q89 604 89 597T90 582Q95 524 101 461T116 329Q119 316 128 297Q133 296 140 294T159 290Q174 287 186 287ZM178 14Q125 14 82 42Q38 77
38 115Q38 137 49 155T74 190Q72 194 72 195Q72 201 82 209Q131 237 197 237Q227 237 253 221T296 179T313 122Q313 91 291 67T238 28T178 14ZM162 43Q181 43 238 60Q278 72 278 114V130Q277 135 277 139T277 145Q277 173 234 191L228 187Q220 181 217 176T213
161Q213 158 213 155T214 147Q215 143 215 140T216 132Q216 109 197 91T149 73Q124 73 106 90T78 128Q75 90 113 60Q135 43 162 43Z" />
<glyph unicode="&quot;" glyph-name="quotedbl" horiz-adv-x="481" d="M133 463Q120 463 108 470T95 493Q95 501 98 513Q103 525 109 541T123 578Q126 585 131 585Q143 585 143 562Q143 555 140 544T132 528Q122 514 119 507T115 495Q115 490 127 491H141Q141
501 144 512T167 542Q182 556 187 580Q188 585 188 589T189 597Q189 601 189 604T187 611Q182 629 179 642T176 664Q176 676 180 688Q166 686 161 683T151 667Q150 663 149 658T147 648Q147 623 161 612Q167 608 167 593Q167 563 156 571Q136 585 133 613L129 651Q128
654 128 657T128 663Q128 679 134 685Q157 712 181 712Q244 712 257 705Q265 700 265 683Q265 673 262 656Q250 591 221 534Q213 518 205 507T193 487L191 483H190Q177 469 165 466T133 463ZM307 463Q300 463 295 464T287 467Q271 477 271 493Q271 501 275 515T285
546T297 574T306 585Q318 585 318 562Q318 543 307 528Q297 514 294 507T290 495Q290 490 302 491H317Q317 501 320 512T342 542Q357 557 363 580Q364 584 364 587T365 593Q365 602 362 611Q356 632 353 646T351 669Q352 674 353 678T356 688Q322 684 322 648Q322
623 336 612Q342 608 342 593Q342 563 331 571Q310 585 309 613Q308 623 307 632T304 651Q304 654 304 656T303 661Q303 676 310 685Q333 712 356 712Q422 712 433 705Q440 701 440 684Q440 673 437 656Q430 616 412 568T368 487L367 483H365Q353 469 344 467Q333
466 324 465T307 463Z" />
<glyph unicode="#" glyph-name="numbersign" horiz-adv-x="629" d="M389 33Q378 33 360 37T328 51T314 75Q314 88 325 115Q330 126 335 137T345 160Q346 162 349 171T358 198Q329 201 307 202T267 203Q260 203 252 203T235 201Q219 100 196 74Q167 42 113 42Q95
42 95 69Q95 92 109 131L130 192Q120 191 111 191T94 190Q63 190 52 198T29 231Q24 242 24 257Q24 294 55 291Q68 290 92 288T152 284Q156 298 160 317T171 362Q172 363 173 371T179 396Q170 394 152 393T108 392Q59 393 59 428Q59 451 65 471T100 491L134 489Q155
488 194 483L207 585Q219 670 290 670Q334 670 334 622Q334 607 328 592Q316 563 305 530T282 458Q276 439 268 395T247 280Q256 280 277 280T318 281T346 282H388Q406 323 418 323Q435 323 443 282Q484 282 507 282T537 284Q540 284 542 284T547 285Q580 285 580
246Q580 218 577 210Q571 197 555 193Q546 191 532 190T498 188Q487 188 474 188T444 190Q440 149 435 116T422 57Q415 33 389 33ZM443 358Q431 358 427 383L425 402Q422 402 419 403H413Q407 404 390 406T354 413T322 424T308 440Q308 460 336 464Q349 466 369
468T419 475V484Q419 495 421 522T427 592Q433 666 479 666Q520 666 540 637Q547 627 547 611Q547 602 541 579T527 532T514 495Q537 498 551 498Q604 498 604 445Q604 425 557 405Q533 396 499 396Q492 396 485 396T470 397Q451 358 443 358Z" />
<glyph unicode="$" glyph-name="dollar" horiz-adv-x="554" d="M254 -78Q236 -79 223 -78T201 -75Q188 -72 188 -63Q188 -59 194 -44T201 -18Q201 -7 199 10T197 35Q179 35 149 41T88 58T36 84T15 118Q15 130 29 147Q38 158 44 164T51 175L60 241Q68 282 88 282Q98
282 107 274T117 255Q117 240 94 240Q86 240 82 218Q74 183 72 178Q66 166 64 156T61 136Q61 132 61 128T63 121Q66 108 120 86Q131 106 144 121T180 146L218 164L233 173Q194 184 194 197Q194 202 203 202Q210 202 227 197Q237 194 243 193T252 191Q252 192 254
194H263Q290 194 306 200Q316 210 316 219Q316 235 289 244Q267 252 236 260T163 282Q144 288 121 302T80 334T53 368Q37 400 37 462Q37 499 53 533T98 594T160 632Q167 634 176 636T197 643Q197 662 194 704Q191 742 215 742L254 740Q284 738 301 740Q349 744
346 745H345Q345 745 345 745T346 745Q368 745 365 728Q364 695 356 647Q373 643 401 635T470 613Q501 603 501 584Q501 578 496 566Q489 550 479 527T458 471Q452 439 451 438Q447 423 436 423Q429 423 415 432Q378 457 346 468T285 479Q249 479 249 460Q249 454
256 447Q268 435 294 431T346 421Q375 417 410 407T468 380Q539 328 539 250Q539 207 526 162Q515 124 500 102T465 68T416 46Q374 32 344 30Q363 -11 363 -34Q363 -75 308 -75L254 -78ZM305 289Q310 292 316 295T331 303Q362 318 362 344Q362 353 357 365T337
396Q325 398 307 402T264 412Q215 424 215 460Q215 482 229 495T264 515T302 521Q309 521 315 521T326 519Q342 549 384 564Q419 577 463 574Q463 581 450 588T417 601T382 611T360 616Q333 620 328 629Q327 631 327 659Q327 663 327 669T329 685Q331 699 329 704Q328
711 318 711L280 709Q265 708 256 708T243 709Q232 709 224 685Q221 675 220 666T216 646H221Q233 646 232 637Q231 624 227 617T208 609Q186 608 171 603T138 583Q135 575 133 566T131 548Q131 517 147 502T180 473Q194 461 199 445T205 411Q205 387 192 361T160
318Q165 316 170 315T179 311Q202 308 233 303T305 289ZM414 86Q425 86 437 92T459 107Q473 121 489 143T507 187Q508 195 508 203T509 221Q509 243 506 264T493 295Q480 310 468 319T448 336Q443 340 430 331T406 306T395 273Q395 258 406 242T427 209T438 176Q438
165 431 155Q416 133 405 121T393 100Q393 96 397 92Q403 86 414 86ZM158 204Q152 205 137 212T122 227Q122 233 137 233Q147 233 160 227T173 209Q173 201 158 204Z" />
<glyph unicode="%" glyph-name="percent" horiz-adv-x="805" d="M15 -1Q6 -1 6 4Q6 8 12 15Q23 23 36 35T67 63Q110 113 170 193T315 377T518 599Q524 605 538 647Q547 675 568 673Q616 669 642 668T674 667Q685 667 761 673Q766 673 768 668V666Q768 664 763
657Q724 608 651 527T476 326Q460 307 427 266T344 160Q334 147 324 135T303 109Q294 99 288 87T277 61L260 15Q258 10 248 5T231 -1H15ZM222 402Q165 402 133 422Q108 439 90 468T71 522Q71 587 114 621T218 656Q235 656 263 647T314 624T343 594Q351 569 354
554T358 534Q358 514 348 493Q352 489 352 483Q352 475 346 463Q328 428 294 415T222 402ZM125 31H224Q225 42 227 50T233 62Q236 67 253 88T303 148Q304 149 304 150L277 156Q251 162 255 182Q272 259 368 309Q394 321 421 333T474 358Q527 421 588 492T719 642Q677
638 660 636T649 634Q636 634 613 636T557 642Q559 636 562 626T571 600Q579 576 579 564Q579 535 546 500Q510 461 411 394Q402 390 387 383T352 365L104 70Q95 60 95 50Q95 31 125 31ZM224 429Q242 429 258 433T293 447Q313 457 321 468Q317 468 317 472Q317
475 320 481Q327 493 329 507T332 534Q332 564 309 591T257 624Q241 627 216 627Q190 627 173 623T148 613H146Q147 613 149 611Q160 605 191 606Q232 606 239 567Q240 566 240 561Q252 549 252 534Q252 521 243 506T217 491Q210 491 202 494Q196 484 196 472Q196
465 198 457T203 439Q204 437 205 435T207 430Q212 429 216 429T224 429ZM209 512Q217 512 218 527V534Q218 545 215 555Q214 548 205 542T196 530Q196 523 200 518T209 512ZM618 10Q561 10 529 30Q503 47 485 77T467 133Q467 175 487 204T540 249T614 264Q631
264 659 255T710 232T739 202Q747 177 750 162T754 142Q754 122 744 101Q748 97 748 91Q748 83 742 71Q724 36 690 23T618 10ZM620 37Q639 37 654 41T689 55Q709 65 717 76Q713 76 713 80Q713 83 716 89Q723 101 725 115T728 142Q728 172 705 199T653 232Q637 235
613 235Q586 235 569 231T544 221H543L545 219Q550 215 560 214T587 214Q606 214 619 205T635 175Q636 174 636 168Q648 158 648 142Q648 129 639 114T613 99Q606 99 598 102Q592 92 592 80Q592 73 594 65T599 47Q600 45 601 43T603 38Q608 37 612 37T620 37ZM605
120Q613 120 614 135V142Q614 153 611 163Q610 156 601 150T592 138Q592 131 596 126T605 120Z" />
<glyph unicode="&amp;" glyph-name="ampersand" horiz-adv-x="795" d="M487 -1Q474 -1 474 14Q474 28 484 40T509 53Q511 53 520 51T547 42Q552 40 566 39Q566 41 565 42Q558 59 529 75Q501 91 492 110Q485 124 485 141Q485 148 486 154T490 168Q508 213 553 219Q585
223 603 232T631 277Q606 300 598 313Q589 297 570 283Q557 273 549 268T539 260Q525 246 513 246Q508 246 494 256T467 277T450 291Q445 297 443 301Q426 301 424 313V317Q424 326 430 329Q432 330 437 332T451 336Q441 341 431 353T415 375Q414 383 410 394T401
421Q391 412 377 406Q398 391 398 385Q398 375 382 375Q369 375 354 385T326 410T306 434Q299 444 299 460Q299 479 311 497Q291 512 281 537Q275 551 275 567Q275 585 282 605Q255 601 224 583T171 538T149 483Q149 473 151 461T156 435Q201 433 223 402Q233 389
246 389Q249 389 251 389T257 391Q260 392 263 392T271 392Q313 392 333 368T354 303Q354 273 328 233Q367 194 367 173Q367 161 351 161Q340 161 334 175Q325 195 322 198Q319 202 308 209T287 224T271 231Q256 231 256 202Q256 183 308 179Q329 178 329 164Q329
153 319 151T300 149Q301 143 307 126T321 87T330 40Q368 46 395 56T442 78Q459 89 475 89Q486 89 486 83Q486 75 473 63T444 41T422 27Q361 -3 280 2Q105 12 58 88Q26 141 26 200Q26 292 98 331Q147 357 151 357Q155 357 155 360Q155 364 145 380Q131 403 124
424T116 474Q116 519 136 544Q185 603 241 622T371 641Q446 641 486 614Q584 549 581 483Q578 419 558 375T475 308L492 291Q501 284 505 280T510 275Q511 275 544 311L579 349Q592 360 599 360Q607 360 608 348Q614 346 625 340T659 310Q682 285 691 279Q729 252
723 220Q717 191 649 145Q667 129 694 105T759 50Q776 36 776 26Q776 8 745 8Q716 8 686 7T624 4Q596 3 563 2T492 -1H487ZM355 421L373 448Q376 453 376 459Q376 477 357 481Q337 486 337 448Q337 435 355 421Z" />
<glyph unicode="&apos;" glyph-name="quotesingle" horiz-adv-x="316" d="M133 463Q120 463 108 470T95 493Q95 501 98 513Q103 525 109 541T123 578Q126 585 131 585Q143 585 143 562Q143 555 140 544T132 528Q122 514 119 507T115 495Q115 490 127 491H141Q141
501 144 512T167 542Q182 556 187 580Q188 585 188 589T189 597Q189 601 189 604T187 611Q182 629 179 642T176 664Q176 676 180 688Q166 686 161 683T151 667Q150 663 149 658T147 648Q147 623 161 612Q167 608 167 593Q167 563 156 571Q136 585 133 613L129 651Q128
654 128 657T128 663Q128 679 134 685Q157 712 181 712Q244 712 257 705Q265 700 265 683Q265 673 262 656Q250 591 221 534Q213 518 205 507T193 487L191 483H190Q177 469 165 466T133 463Z" />
<glyph unicode="(" glyph-name="parenleft" horiz-adv-x="478" d="M389 2Q267 2 167 102Q60 209 60 355Q60 501 181 609Q293 709 417 709Q430 709 430 696Q429 680 429 663T428 628Q428 611 428 594T430 559Q430 549 414 545Q409 544 403 543T391 541Q245 503
245 368Q245 322 263 283T314 218T390 186Q400 185 400 174L401 15V12Q401 2 389 2ZM171 139Q175 139 197 155Q218 170 238 167Q239 181 242 194T251 218Q244 220 233 221T204 223Q191 224 182 230T172 251Q172 267 196 307Q220 348 220 368Q220 453 273 504T405
570L402 597Q389 594 376 594Q322 594 322 636Q322 651 331 669Q294 656 262 637T198 591Q189 584 189 562Q189 555 192 533T199 490T203 461Q203 431 172 415Q154 409 134 402T99 384T85 355Q85 296 107 245T163 143Q166 139 171 139ZM376 28V164Q372 165 355
130Q341 99 325 89T295 78Q290 78 282 80V73Q282 53 290 48Q311 38 333 34T376 28Z" />
<glyph unicode=")" glyph-name="parenright" horiz-adv-x="455" d="M28 2Q14 2 15 15Q18 42 18 70Q18 90 17 111T15 152Q15 162 31 166L53 170Q200 208 200 343Q200 389 182 428T132 493T55 525Q44 527 44 537L43 696Q43 709 56 709Q178 709 278 609Q385 502 385
356Q385 210 263 102Q207 53 149 28T28 2ZM69 547Q74 546 90 583Q107 620 127 627Q142 632 152 632Q159 632 163 631V638Q163 658 155 663Q134 674 112 678T68 683L69 547ZM114 42Q150 55 184 73T246 120Q256 130 256 149Q256 157 253 178T246 221T242 250Q242
280 272 296Q292 303 312 310T346 328T360 356Q360 415 343 470T282 568Q278 572 274 572Q269 572 248 557Q226 541 206 544Q205 516 194 493Q201 491 212 490T240 488Q255 487 263 481T272 460Q272 453 267 439T249 404Q225 364 225 343Q225 258 173 207T40 141Q41
136 41 129T42 114Q56 117 68 117Q122 117 122 75Q122 61 114 42Z" />
<glyph unicode="*" glyph-name="asterisk" horiz-adv-x="400" d="M267 414Q252 414 223 455Q214 468 206 480T190 506Q178 489 166 472T141 437Q125 415 115 415Q106 415 86 430Q72 441 58 451T29 472Q24 475 24 482Q24 498 53 536L87 580Q67 587 47 594T6 608Q-18
617 -18 630Q-18 632 -10 655T15 722Q18 730 31 730Q43 730 62 724T99 710T130 696V800Q130 813 142 813H237Q250 813 250 800V697Q259 700 275 706T313 720Q325 725 333 727T346 730Q360 730 367 708L394 633Q400 617 352 597L290 576Q294 571 304 559T325 531T345
502T353 484Q353 477 343 467T319 446T292 427T273 416Q269 414 267 414ZM112 444Q117 454 123 467T140 498Q170 542 184 542Q195 542 214 517Q228 499 241 481T268 444Q251 506 242 541T233 587Q233 608 265 611Q295 614 320 620T367 635L341 702Q333 699 325
678Q317 657 311 655Q299 652 289 649T267 646Q232 646 217 666T202 720Q202 762 225 788H190Q165 788 165 727Q165 703 160 680T146 635Q136 610 125 599Q157 588 157 576Q157 568 150 558Q144 551 107 529Q67 505 53 485Q96 477 98 475Q102 471 112 444ZM95 609Q91
616 86 625T75 647Q51 696 34 702L10 636Q18 634 39 627T95 609Z" />
<glyph unicode="+" glyph-name="plus" horiz-adv-x="521" d="M202 38Q179 40 183 62L189 93Q192 105 192 121T192 156Q192 158 192 161T194 169H181Q174 169 167 169T152 170Q150 170 150 172Q150 173 154 182T158 196Q158 216 109 216Q104 216 98 197Q92 179
81 177Q75 176 70 176T60 176Q56 176 52 176T44 177Q37 178 37 193Q37 201 38 212T40 225Q40 227 39 242T37 274T36 294Q36 312 54 319Q60 321 70 321Q76 321 84 321T102 319Q130 317 145 316T164 314H178Q176 337 178 358Q180 360 181 360Q182 360 191 356T205
352Q225 352 225 401Q225 407 206 413Q187 419 186 429Q185 435 185 440T185 450Q185 455 185 459T186 466Q187 473 202 473Q210 473 221 472T234 470Q236 470 251 471T283 473T303 474Q321 474 328 456Q330 452 330 440Q330 434 330 427T328 408Q326 380 325 365T323
346Q323 340 323 330T325 303Q336 300 343 300Q348 300 373 311T443 322Q472 322 469 295V234Q469 230 470 215T472 193Q470 170 448 174L417 180Q405 183 390 183T354 183Q348 185 344 185Q341 185 335 183Q321 185 321 186Q324 186 324 193T333 203Q338 205 349
203Q357 202 361 202T367 202Q371 202 387 201T432 198Q441 198 441 203Q441 205 438 211T435 222V225Q435 228 435 232T436 242Q386 221 346 225H326L323 213Q318 197 314 186T309 167Q309 162 320 137T331 67Q331 38 304 41H242Q239 41 224 40T202 38ZM212 69Q214
69 220 72T231 75H234Q236 75 240 75T251 74Q230 124 234 164V172Q229 171 224 171T212 170Q212 168 212 165T211 156V143Q211 139 210 123T207 78Q207 69 212 69Z" />
<glyph unicode="," glyph-name="comma" horiz-adv-x="273" d="M71 -112Q54 -112 47 -108Q27 -97 27 -86Q27 -78 31 -69Q36 -58 43 -44T60 -13Q63 -7 69 -7Q84 -7 84 -27Q84 -34 80 -42T70 -56Q58 -68 54 -74T50 -83Q50 -88 65 -87H82Q82 -76 86 -68T113 -44Q131
-32 137 -12Q138 -9 138 -6T139 1Q139 8 136 15Q129 32 126 41T123 55Q123 71 129 81Q115 80 102 71T89 46Q89 25 105 16Q112 12 112 0Q112 -25 99 -19Q76 -8 73 16Q70 39 68 49T66 57Q66 77 87 89T129 102Q163 102 184 101T215 97Q231 93 231 78Q231 75 226 53Q216
13 194 -24T143 -91L142 -94H140Q126 -106 115 -108Q102 -110 91 -111T71 -112Z" />
<glyph unicode="-" glyph-name="hyphen" horiz-adv-x="521" d="M201 152Q193 152 186 152T171 154Q169 154 169 156Q169 157 173 165T177 180Q177 199 128 199Q123 199 117 181Q111 163 100 161Q94 160 89 160T79 160Q75 160 71 160T63 161Q56 162 56 176Q56 184
57 195T59 208Q59 210 58 225T56 257T55 276Q55 293 73 300Q79 302 89 302Q95 302 103 302T121 300Q149 298 164 297T183 295Q189 295 209 296T250 299T280 300Q304 300 316 295Q349 281 362 281Q367 281 392 292T462 304Q491 304 488 277V216Q488 213 489 199T491
177Q489 154 467 158L436 164Q431 166 425 166T412 166Q404 166 394 166T373 166Q369 168 362 168Q357 168 354 167Q340 167 340 170Q343 169 343 177T352 186Q354 186 358 186T368 186Q388 184 409 183T451 182Q460 182 460 186Q460 188 457 194T454 205V208Q454
211 454 215T455 225Q405 204 365 208Q361 209 357 209T349 209Q314 209 312 189Q309 152 201 152Z" />
<glyph unicode="." glyph-name="period" horiz-adv-x="279" d="M138 9Q88 9 68 39Q49 67 49 93Q49 118 76 131Q76 141 90 147T120 157T144 161Q164 161 180 150Q226 119 224 90Q221 43 202 26T138 9ZM182 40Q201 50 203 68Q206 113 176 127Q152 139 135 139Q124
139 116 134Q111 129 104 123T88 111Q85 107 82 100T74 84Q84 96 97 105T127 114Q149 114 162 99Q169 91 172 70T182 40Z" />
<glyph unicode="/" glyph-name="slash" horiz-adv-x="904" d="M9 -19Q-2 -19 -2 -14Q-2 -11 6 -1Q18 9 34 22T70 55Q224 234 306 331T400 441Q418 463 472 522T603 688Q607 693 613 707T627 745Q638 777 661 776Q717 773 748 771T787 769Q793 769 818 770T889
776Q897 776 898 770Q898 765 892 757Q846 699 759 603T554 367Q535 345 497 295T398 170Q386 155 374 140T349 110Q338 97 331 83T318 54L298 -1Q296 -7 284 -13T264 -19H9ZM139 18H255Q258 42 266 55Q270 60 290 85T348 156Q350 158 350 158Q350 160 319 166Q288
172 292 196Q301 242 331 275T401 332T482 372Q514 385 531 393T551 403Q619 471 688 558T840 739Q821 737 794 733Q775 730 757 730Q726 730 649 739Q651 732 654 720T665 690Q675 666 675 648Q675 613 635 572Q590 524 476 446Q466 442 449 434T407 412L114 64Q103
51 103 41Q103 18 139 18Z" />
<glyph unicode="0" glyph-name="zero" horiz-adv-x="520" d="M254 12Q168 12 114 51T34 155T9 299Q9 367 37 423T118 512T241 545Q247 545 263 544T296 541T326 535T340 523Q332 516 318 516Q315 516 312 516T303 518L284 493Q274 481 270 469T266 446Q266 434
275 422T293 400T304 381Q321 370 331 341T338 282Q348 299 355 309T367 325Q386 347 411 347Q435 347 454 330Q459 326 465 316T482 290Q474 434 396 493Q390 496 390 502Q390 508 397 508Q407 508 425 496Q448 481 463 451T487 383T500 311T504 249Q504 180 470
127T379 43T254 12ZM69 142Q92 255 177 248Q176 253 176 259T175 274Q175 291 178 315Q170 322 164 329T153 346Q143 369 134 380T100 401Q59 419 58 420Q34 372 34 275Q34 201 69 142ZM253 176Q317 176 317 295Q317 311 311 330T292 363T261 377Q197 377 197 270Q197
256 203 234T223 194T253 176ZM248 33Q276 33 307 40T366 63T412 101Q424 116 424 119Q424 121 422 121Q419 121 403 116T378 111Q372 111 361 115T342 119Q326 119 313 103T286 69Q271 51 250 51Q218 51 218 85Q218 98 227 117T236 148Q236 178 209 178Q193 178
169 167T126 138T107 102Q107 89 117 79Q139 57 171 45T248 33Z" />
<glyph unicode="1" glyph-name="one" horiz-adv-x="389" d="M308 11Q303 11 293 13T278 16Q210 16 175 13Q170 12 165 12T154 12Q109 12 109 34Q109 42 113 62T118 91V165Q118 182 122 182Q127 182 132 167T142 134T147 111Q148 104 150 89T159 62T176 50Q182
50 198 52T242 57Q242 65 246 81T251 105Q251 131 231 137Q202 145 178 160T153 213Q153 228 161 242T190 284Q193 287 200 305Q202 316 200 326Q199 333 199 337T198 344Q198 373 217 389T263 405Q280 405 293 398Q290 439 290 468Q290 505 294 518L181 489Q137
478 111 469T74 449Q67 442 67 433Q67 425 74 406T81 377Q81 355 58 355Q44 355 36 363T28 394Q28 402 29 416T32 443T33 461Q33 478 64 487L118 497Q180 508 226 520T304 544Q308 546 311 546T316 546Q323 546 323 541Q323 536 318 531Q324 518 324 505Q324 503
324 500T323 495Q320 482 320 364Q320 258 321 198T327 121Q331 104 333 89T335 62Q335 38 327 24Q320 11 308 11ZM129 213Q120 213 118 242Q115 285 100 340Q99 344 99 347T98 354Q98 391 133 396H136Q146 396 149 385Q149 384 149 382T150 378Q150 370 147 358Q144
345 142 314T137 236Q135 213 129 213Z" />
<glyph unicode="2" glyph-name="two" horiz-adv-x="587" d="M509 3Q505 3 502 3T493 5Q445 13 385 19T254 36Q238 38 195 42T82 51Q67 52 50 49T32 45Q23 45 20 58Q16 77 112 149Q144 171 182 199T266 262Q282 279 293 291T311 311Q341 345 341 364Q341 378 331
386T307 391Q290 389 272 365Q273 361 274 359T276 353Q276 335 255 335L242 338Q234 337 218 338T178 340Q174 341 169 341T157 341Q145 341 129 340T93 335H89Q75 335 75 354Q75 376 84 403T107 456T132 499Q180 573 308 573Q399 573 466 527Q539 476 539 397Q539
351 516 305T454 227T368 186Q355 184 345 183T330 182Q322 182 322 184Q322 190 370 212Q357 226 331 234Q316 234 269 243Q241 218 204 181Q188 162 74 73Q82 73 98 72T132 70T161 67Q159 101 180 123T231 146Q240 146 255 143Q268 140 277 141Q282 142 286 142T295
142Q320 142 335 133Q364 117 368 55Q421 53 451 52T489 52L507 55V92Q498 92 480 101T441 124T408 152T394 178Q394 182 408 186T443 193T482 199T507 201Q542 199 542 184Q542 179 539 168Q532 142 529 114T523 55Q535 54 538 49T542 33Q542 3 509 3ZM112 387H216Q222
395 231 401T251 413Q261 417 264 426T270 448T283 473Q302 498 336 498Q359 498 379 486T413 456Q443 418 468 411Q476 409 490 409Q495 409 500 409T512 410Q494 489 429 521Q365 553 305 553Q167 553 112 387Z" />
<glyph unicode="3" glyph-name="three" horiz-adv-x="519" d="M247 21Q187 21 135 41T44 112Q33 127 24 150T15 185Q15 195 28 200T51 203Q60 199 81 199Q88 199 96 199T114 201Q148 203 197 207Q206 210 218 205T230 192Q230 187 222 182Q205 171 174 171Q168
171 162 171T148 173Q126 173 99 174T38 178Q55 132 76 105T141 57Q152 81 175 103T226 131Q241 133 252 141Q250 141 250 142Q229 146 223 166Q221 171 225 171Q228 171 237 168T257 160T272 156Q300 157 309 181Q311 184 311 187T311 193Q311 209 300 223Q288
240 265 237Q260 236 250 233T233 229Q227 229 227 235Q227 243 228 249T229 262Q229 271 227 281T219 302Q214 315 214 324Q214 338 225 346Q233 352 237 348Q240 348 242 349Q259 357 268 362T277 377Q277 402 250 405H248Q233 405 224 390Q226 386 226 384Q224
370 224 370Q223 364 210 361Q170 359 130 355T49 345Q27 342 27 373Q27 390 33 416T48 455Q61 474 84 491T134 522T182 539Q205 544 229 545T277 547Q305 547 338 541T401 520T442 477Q447 467 449 459T452 446Q452 444 451 444Q450 444 442 455Q411 500 374 514T284
532Q286 528 286 519Q286 515 286 512T284 503Q280 486 269 471T240 451L220 445Q203 440 194 425T183 389L204 394Q210 420 249 426Q276 431 290 397L292 400Q298 411 310 419T336 427Q350 427 362 418T378 395Q378 394 378 393T379 390Q379 380 370 371Q366 367
358 362T346 349Q344 343 344 339Q344 336 346 328Q348 324 348 321T348 314Q348 295 332 280T291 264Q271 264 252 280Q252 277 252 273T253 262Q258 265 264 265Q281 265 301 255T330 231Q330 230 331 229Q346 235 364 235Q390 235 411 224T440 185Q442 179 445
171T453 152Q459 143 474 140Q489 169 489 191Q489 201 482 220T459 267Q448 287 419 287Q399 287 389 290T378 306Q378 322 405 323Q418 333 439 357Q448 374 458 374Q461 374 461 370Q461 360 447 344T426 320Q449 313 480 273Q504 242 504 187Q504 179 504 171T502
154Q500 128 476 102T408 48Q389 36 325 24Q309 22 284 21T247 21ZM463 397Q454 397 454 410Q454 424 457 424Q465 424 465 401Q465 397 463 397Z" />
<glyph unicode="4" glyph-name="four" horiz-adv-x="556" d="M444 3Q434 5 416 6T368 8Q349 8 324 9T268 12Q254 14 254 24Q254 36 267 50L271 53L274 117Q249 123 179 123Q160 123 138 123T90 122Q35 122 24 136Q21 141 21 151Q21 174 23 188T24 210Q23 221 23
230T22 247Q22 272 27 281Q34 292 44 288Q51 295 60 306T81 334Q110 366 144 407T220 499Q235 522 246 528T283 536Q296 537 311 537T343 538Q396 538 472 532Q490 531 490 512Q490 504 487 485T482 453L470 288Q470 284 470 280T469 268Q473 269 476 269T484 269Q512
269 527 254Q536 245 535 214L533 164Q532 91 507 91Q501 91 468 103Q456 107 455 105L458 90Q459 82 460 68T463 33Q465 18 459 10T444 3ZM345 37Q342 48 342 59Q342 64 342 69T344 79Q351 113 371 132T420 164T477 184Q482 185 491 187T512 194Q514 211 515 221T517
235Q517 240 510 240Q505 240 489 236T465 231Q463 231 462 231T458 230Q443 230 443 242Q443 246 448 258L455 264Q454 274 454 284T454 304Q452 304 449 304T443 303Q416 303 401 318T375 354Q372 363 372 373Q372 377 372 381T374 389Q377 396 380 407T387 435V439Q387
445 386 451T383 465Q380 478 376 490T364 514Q341 516 324 517T297 518Q271 518 270 519Q285 483 285 448Q285 359 217 339Q172 325 156 306Q150 299 126 241Q108 199 52 196V184Q51 178 51 172T51 160Q53 155 70 155Q114 151 165 148T275 141Q299 140 299 133Q299
132 295 113T285 56Q296 52 311 47T345 37ZM320 163Q292 163 278 187Q276 191 273 197T268 214V232Q266 252 261 252Q247 253 234 253T206 249Q203 248 199 248Q192 248 192 252Q192 254 194 258T199 268Q202 274 213 290T243 331Q255 348 268 348Q283 348 283
336Q283 329 266 314T217 269Q228 269 241 269T272 270Q288 270 290 288Q292 302 293 315T298 346T314 393Q333 445 341 445Q343 445 343 442Q343 436 340 428T330 400T315 342Q314 336 314 330T313 317Q313 298 317 279Q323 274 333 269Q370 253 370 213Q370 163
320 163Z" />
<glyph unicode="5" glyph-name="five" horiz-adv-x="509" d="M271 13Q261 13 250 13T225 14Q167 17 150 24Q135 30 102 39T16 57Q7 59 7 68Q7 75 16 94Q22 108 26 122T30 151Q30 167 26 180Q25 183 25 186T25 191Q25 220 49 220Q71 220 72 204Q101 198 125 188Q152
177 177 173T225 168Q252 168 266 177T282 208Q283 217 269 226T235 242T196 248Q181 248 149 247T68 244Q52 244 52 251Q52 255 57 270Q59 277 65 312T82 409Q86 432 91 461T101 527Q103 550 129 550Q132 550 135 550T143 549Q169 548 209 547T304 543Q315 542
326 542T351 541Q373 541 396 542T447 544Q476 544 476 520Q476 515 475 507T470 497L468 471Q468 466 468 460T469 445Q469 435 469 422T467 395Q466 365 446 365Q444 365 441 365T432 366Q416 368 380 371T286 379Q282 380 278 380T269 380Q247 380 244 374Q243
371 241 365V345Q240 336 231 328T215 319Q200 319 200 341Q200 368 210 385T234 408Q242 411 260 411Q268 411 276 411T295 409Q305 408 314 408T332 407Q331 411 331 413T331 417Q333 432 345 439Q356 443 368 447T382 472Q384 495 400 508Q365 511 333 513T270
518Q260 511 252 495Q243 474 226 464T188 450Q152 441 152 414Q152 407 156 394T168 363Q174 350 174 334Q174 303 152 277Q212 277 261 259Q279 276 309 274Q315 273 329 270T353 266Q368 266 386 273T420 290Q418 294 415 298T408 306Q390 324 354 336T289 345Q285
344 281 344T274 344Q260 344 260 349Q260 355 270 358T293 362T310 363Q346 363 415 335Q470 313 483 222Q485 212 483 200T477 173Q471 140 450 112Q404 30 311 15Q304 14 294 14T271 13ZM263 44Q291 45 317 48T366 68Q365 71 365 73Q361 83 357 91T348 106Q337
126 315 131Q311 132 304 132T288 132Q264 132 249 150Q241 149 232 149T214 148Q205 148 196 148T176 150Q138 154 71 191Q70 189 70 186T68 177L53 133Q70 122 91 122L114 124Q130 125 143 124Q186 120 216 104T263 44Z" />
<glyph unicode="6" glyph-name="six" horiz-adv-x="530" d="M252 7Q162 7 79 62Q58 76 46 99T26 148T14 197Q13 200 13 204T13 212Q13 237 19 277L24 306Q34 344 99 433Q117 456 135 479T170 524Q180 542 276 540Q284 540 297 542T330 548Q368 556 380 554Q384
555 388 554Q400 568 413 568Q417 568 423 566Q435 562 435 556Q435 550 419 534Q411 526 393 505T345 450Q339 444 324 427T290 392T258 365T245 363Q245 371 262 392T299 436Q328 469 365 520Q361 520 355 520T342 521Q332 521 321 521T295 519Q280 518 258 517T204
514Q218 510 227 505T248 492Q259 477 262 464Q264 454 264 449Q264 440 261 432Q254 413 225 405Q222 404 219 404T213 403Q194 403 177 420Q172 425 168 431T162 445L159 463Q158 464 156 468L93 378Q124 366 141 340T159 281Q159 258 147 235Q144 230 140 222T131
202Q128 192 128 184T128 168Q129 163 133 157T144 142Q157 128 157 109Q157 100 154 91Q148 74 131 59Q163 26 233 26Q241 26 249 26T265 27Q265 39 270 58T276 90Q276 105 261 127Q255 136 251 145Q231 150 212 167T192 206Q192 207 192 207V206Q193 201 200
249Q203 258 211 266Q209 268 203 271Q194 276 194 286Q194 294 201 295Q216 298 231 302T264 306Q282 306 293 300T316 279H319Q326 279 338 274Q348 270 355 269T369 267Q377 267 386 272T406 292Q425 316 446 324Q446 325 449 326Q447 329 445 333T438 343Q418
372 353 370Q346 371 332 377T318 390Q318 397 330 402T356 410T377 413Q418 413 449 371T506 245Q512 226 512 208Q512 165 487 128T422 64T337 22T252 7ZM254 166Q265 166 281 174T304 192Q312 205 312 224Q312 228 312 231T311 238Q303 258 288 270Q286 272
284 275Q282 279 277 280T267 281Q249 281 225 266Q221 258 216 247T206 219Q201 192 238 170Q245 166 254 166Z" />
<glyph unicode="7" glyph-name="seven" horiz-adv-x="500" d="M62 4Q40 4 40 19Q40 30 59 61Q94 120 101 134Q119 173 143 220T198 323Q203 333 209 342T223 359L203 361Q191 363 179 363T154 363Q141 363 129 363T104 361Q96 360 80 357T41 349Q37 348 34 348T29
348Q17 348 17 380T15 464Q14 470 10 486T6 509Q6 521 17 531T54 538Q73 536 91 535T128 534Q142 534 155 534T182 536Q220 539 269 542T378 551Q401 552 430 554T493 558H501Q520 558 520 549Q520 543 512 532Q507 525 494 505T462 451Q444 419 438 419Q437 419
437 420Q437 422 442 435T453 464T465 494T472 510L485 532Q489 539 484 539Q483 539 481 539T475 538Q453 533 410 531T303 526Q254 522 197 519T74 512Q46 511 41 509Q33 506 35 484Q38 441 41 415T43 377Q50 379 55 379T66 381Q74 430 104 455Q144 487 191 487Q221
487 256 476T315 442T340 381Q340 363 333 343T312 306L288 280Q267 255 267 225Q267 221 267 217T269 209Q270 205 270 202T271 193Q271 176 264 161Q264 158 244 134Q231 118 231 104Q231 89 241 80T264 62L302 139L386 314Q392 327 397 327Q399 327 399 323Q399
318 395 307Q385 282 371 250T339 176Q323 145 307 109T272 31Q271 20 251 18Q241 19 232 19T212 19Q201 18 170 17T87 15H78Q73 4 62 4ZM408 344Q403 344 403 353Q403 357 407 366T418 382T426 390Q427 390 427 388Q427 385 424 374T417 354T408 344Z" />
<glyph unicode="8" glyph-name="eight" horiz-adv-x="502" d="M277 10Q190 10 104 40Q51 58 26 113Q17 131 13 149T9 184Q9 189 9 194T10 203Q18 263 108 295Q73 306 55 341T37 411Q37 448 65 476Q73 484 89 495T129 521Q167 544 238 544Q304 544 362 528Q437
508 481 407Q486 395 486 384Q486 350 466 321T413 281Q420 277 441 264T474 217Q480 200 482 184T482 150Q479 114 433 70Q398 36 361 23T277 10ZM283 29H292Q360 33 416 76Q429 85 440 101T458 136T466 165Q466 192 434 239Q425 253 400 256Q374 259 368 263Q352
257 352 260Q352 264 359 268L362 270Q361 272 361 277Q361 283 365 289T378 295Q385 295 393 291Q399 296 422 309Q456 329 462 396Q463 414 445 440Q423 424 415 411Q406 397 395 377T368 334Q331 295 295 291Q291 290 287 290T277 290Q248 290 220 301Q189 313
161 346Q157 351 144 353T116 361T91 375Q70 395 65 429Q64 431 65 435Q56 408 56 389Q56 384 56 380T58 372Q67 342 124 307Q147 293 147 290Q147 287 111 282Q76 276 47 235Q60 240 72 240Q107 240 118 218T133 167Q136 138 155 119Q170 104 187 102T221 99T253
85Q278 64 283 29ZM259 346Q268 345 276 354T285 373Q285 393 269 403Q261 409 229 396Q222 393 221 380Q222 382 225 374T236 358T259 346ZM368 100Q350 100 336 114Q326 124 320 141T309 163Q305 143 293 135T261 127Q251 127 238 129T211 135Q185 143 189 200Q191
221 213 237V240Q213 251 233 251Q240 251 248 250T265 246Q274 248 275 247Q286 247 294 242T307 236H311Q316 236 324 238L336 243Q352 244 374 232Q409 212 418 174Q419 170 419 167T420 159Q420 136 402 116Q387 100 368 100ZM242 145Q277 145 283 166Q286
178 285 200Q283 222 255 222H238Q225 222 221 224L210 209Q204 200 204 189Q204 180 209 168Q220 145 242 145Z" />
<glyph unicode="9" glyph-name="nine" horiz-adv-x="520" d="M293 10Q289 10 284 11T272 14Q267 16 245 17T181 23Q174 24 160 25T124 28Q102 30 90 31T72 33Q62 33 61 34Q60 33 59 32T54 28Q49 24 44 24Q37 24 37 37Q37 49 45 54Q59 62 83 79T138 125Q150 136
191 161Q150 164 93 187Q34 211 20 334Q19 339 19 343T19 352Q19 405 51 452T136 524Q177 544 237 544Q316 544 401 509Q512 463 512 314Q512 251 474 195L423 138Q401 114 375 86T320 26Q311 10 293 10ZM274 38Q282 38 284 40Q289 46 294 48Q302 50 318 65T361
103Q310 135 310 185Q310 234 346 256Q358 264 365 268T374 273Q381 275 385 281T391 292Q394 300 394 306Q394 320 380 339Q376 343 371 349T359 365Q352 382 352 398Q352 402 352 405T353 412Q354 416 354 419T355 427Q355 457 332 483Q325 489 316 499T293 526Q274
529 254 529Q193 529 134 502Q143 500 152 499T171 495Q190 490 205 477T221 442Q221 434 232 421Q246 404 247 401V398Q274 400 304 388Q331 378 331 340Q331 322 324 295Q317 267 278 260Q271 259 269 260Q268 261 270 264Q269 263 261 263Q243 263 218 283L211
276Q183 254 149 254Q124 254 107 262T73 291Q67 299 60 308T41 329Q40 330 32 333Q29 263 99 206Q110 197 122 192T146 186Q148 186 159 186T191 187Q215 187 227 183Q253 197 258 197Q259 197 259 196Q259 194 238 177Q242 173 242 167Q242 156 228 156Q222 156
213 159L177 132Q187 127 222 125Q245 124 261 110T279 72V64Q279 58 278 52T274 38ZM287 276Q314 293 314 315Q314 336 304 356T260 377Q245 377 231 371L225 368Q213 353 211 334V328Q213 299 228 288Q248 274 287 276Z" />
<glyph unicode=":" glyph-name="colon" horiz-adv-x="290" d="M149 260Q99 260 79 290Q60 318 60 344Q60 370 87 383Q87 392 101 398T131 408T154 412Q175 412 191 401Q237 370 235 341Q232 294 213 277T149 260ZM193 291Q212 301 214 319Q217 364 187 378Q162
390 145 390Q135 390 127 385Q122 380 115 375T99 362Q96 358 93 351T85 335Q95 347 108 356T138 365Q160 365 173 350Q180 342 183 322T193 291ZM137 9Q88 9 68 39Q49 67 49 93Q49 118 76 131Q76 141 89 147T119 157T143 161Q163 161 179 150Q202 134 213 119T223
90Q218 42 201 26T137 9ZM182 40Q201 50 203 68Q207 111 176 127Q152 139 135 139Q124 139 116 134Q111 129 104 123T88 111Q85 107 82 100T74 84Q84 96 97 105T127 114Q147 114 162 99Q170 92 173 71T182 40Z" />
<glyph unicode=";" glyph-name="semicolon" horiz-adv-x="291" d="M163 260Q113 260 93 290Q74 318 74 344Q74 370 101 383Q101 392 115 398T145 408T168 412Q189 412 205 401Q251 370 249 341Q246 294 227 277T163 260ZM207 291Q226 301 228 319Q231 364 201
378Q176 390 159 390Q149 390 141 385Q136 380 129 375T113 362Q110 358 107 351T99 335Q109 347 122 356T152 365Q174 365 187 350Q194 342 197 322T207 291ZM71 -112Q54 -112 47 -108Q27 -97 27 -86Q27 -78 31 -69Q36 -58 43 -44T60 -13Q63 -7 69 -7Q84 -7 84
-27Q84 -34 80 -42T70 -56Q58 -68 54 -74T50 -83Q50 -88 65 -87H82Q82 -76 86 -68T113 -44Q131 -31 137 -12Q138 -9 138 -6T139 1Q139 8 136 15Q129 32 126 41T123 55Q123 71 129 81Q115 80 102 71T89 46Q89 25 105 16Q112 12 112 0Q112 -25 99 -19Q76 -8 73 16Q70
39 68 49T66 57Q66 77 87 89T129 102Q163 102 184 101T215 97Q231 93 231 78Q231 75 226 53Q216 13 194 -24T143 -91L142 -94H140Q126 -106 115 -108Q102 -110 91 -111T71 -112Z" />
<glyph unicode="&lt;" glyph-name="less" horiz-adv-x="389" d="M230 86Q225 86 219 97T211 112Q209 119 202 126T186 144Q184 151 179 155T173 161Q173 167 185 167Q187 167 194 159T209 141T218 128Q229 111 233 111Q235 111 239 117T245 126L259 137Q223 149
209 171Q197 189 183 189Q179 189 174 186T161 182Q127 182 92 235Q91 237 97 239T109 246T116 257Q116 275 102 283Q99 282 94 282Q70 271 66 274Q64 276 60 281T50 292Q49 293 49 294Q49 298 55 302Q47 310 42 315T33 323Q22 334 27 346Q37 354 50 365T81 392L112
426Q134 451 143 452Q160 455 174 466T201 495Q239 551 252 564Q258 570 265 570Q271 570 280 560Q287 553 296 543T316 522Q324 516 332 507T348 487Q348 481 341 477Q328 470 324 466Q318 460 310 454T293 439Q285 437 283 431Q278 426 276 426Q270 426 270 438Q270
440 287 457L307 473Q315 479 318 483T322 488Q322 490 317 493Q309 498 307 499T296 513Q286 478 264 461Q247 447 247 435Q247 431 251 425T256 412Q256 396 242 380T206 341Q205 340 202 345T195 357T184 364Q174 364 160 350Q165 343 172 333T189 309L221 277Q244
255 245 244Q249 215 266 208Q273 206 285 199T308 183T318 165Q318 159 306 150Q298 144 289 136T267 116L249 98Q237 86 230 86Z" />
<glyph unicode="=" glyph-name="equal" horiz-adv-x="389" d="M129 249Q128 249 128 251Q128 252 130 259T133 271Q133 288 101 288Q99 288 97 280T91 264T83 255Q79 254 75 254T68 254Q62 254 59 255Q55 256 55 265Q53 270 55 281L57 296Q57 300 57 311T55 336T54
354Q54 371 66 375Q68 376 76 376Q105 376 119 374T137 371Q138 371 149 372T182 374Q187 374 192 374T201 375Q218 375 223 371Q243 359 253 359Q256 359 272 368T318 378Q337 378 335 355V303Q335 302 335 298T336 287Q338 275 336 269Q336 249 321 253L301 258Q294
259 284 259T260 260Q253 263 248 261Q237 261 239 263Q240 267 241 271T246 277Q250 278 257 277Q262 276 265 276T271 276L311 273Q316 273 316 276V277Q316 280 315 285T313 293Q311 296 313 310Q285 295 259 295Q240 295 231 293T221 280Q220 262 188 253Q162
246 129 249ZM129 51Q128 51 128 53Q128 54 130 61T133 73Q133 90 101 90Q99 90 97 82T91 66T83 57Q79 56 75 56T68 56Q62 56 59 57Q55 58 55 67Q53 72 55 83L57 98Q57 102 57 113T55 138T54 156Q54 173 66 177Q68 178 76 178Q105 178 119 176T137 173Q138 173
149 174T182 176Q187 176 192 176T201 177Q218 177 223 173Q243 161 253 161Q256 161 272 170T318 180Q337 180 335 157V105Q335 104 335 100T336 89Q338 77 336 71Q336 51 321 55L301 60Q294 61 284 61T260 62Q253 65 248 63Q237 63 239 65Q240 69 241 73T246
79Q250 80 257 79Q262 78 265 78T271 78L311 75Q316 75 316 78V79Q316 82 315 87T313 95Q311 98 313 112Q285 97 259 97Q240 97 231 95T221 82Q220 64 188 55Q162 48 129 51Z" />
<glyph unicode="&gt;" glyph-name="greater" horiz-adv-x="389" d="M172 86Q166 86 154 98L136 116Q129 124 119 132T96 150Q85 159 85 165Q85 182 104 193T137 208Q154 213 158 244Q160 255 182 277L214 309Q219 316 226 326T243 350Q227 364 219 364Q213 364
208 358T201 346T197 341Q147 379 147 412Q147 419 151 425T155 435Q155 447 138 461Q117 479 107 513Q105 510 102 507T95 500Q93 498 87 494T80 488Q80 486 96 473Q99 471 108 463T125 448T133 438Q133 426 127 426Q126 427 124 428T119 431Q120 431 120 431T120
432Q120 434 115 436T110 439Q99 450 87 460T61 477Q55 480 55 487Q55 493 67 505Q72 510 77 514T86 522Q94 530 103 538T123 560Q132 570 138 570Q144 570 150 564Q157 557 169 540T201 495Q225 461 259 452Q271 448 291 426Q305 410 312 402T321 392Q334 383
347 372T375 346Q376 344 376 339Q376 330 369 323Q366 320 361 315T348 302Q352 298 352 294Q352 290 348 285T337 274Q336 273 334 273Q331 273 325 275T309 282Q304 282 301 283Q287 268 287 257Q287 248 301 242Q313 237 311 235Q273 182 241 182Q235 182 230
185T220 189Q208 189 194 171Q178 149 144 137Q147 135 150 133T158 126Q160 124 163 118T170 111Q171 111 177 119T191 136T199 148Q207 159 211 163T217 167Q230 167 230 161Q229 160 228 158T225 154H224Q222 154 220 149T217 144Q213 140 208 132T192 112Q188
108 182 93Q179 86 172 86Z" />
<glyph unicode="?" glyph-name="question" horiz-adv-x="568" d="M361 242Q344 242 344 262Q344 272 359 278Q369 282 378 284T397 291Q429 303 451 331T484 396T495 464Q495 497 485 524Q467 478 420 461Q390 451 368 434T345 380Q345 345 315 328Q302 321 288
318T257 316Q250 317 243 318T228 324Q228 308 230 296T239 277Q246 269 246 260Q246 242 217 244Q196 246 196 300Q196 298 196 307T194 335V345Q194 360 197 370L202 383V403Q207 402 211 401T217 399Q221 401 224 402T232 403Q236 403 241 403T250 402Q281 402
296 419T312 458Q312 460 312 464T310 473Q297 495 278 495Q270 495 264 490T254 456Q251 435 237 435Q222 435 217 442Q205 441 189 439T151 435Q133 431 117 429T84 427Q72 427 61 428T39 432Q22 437 22 451L34 496Q62 596 120 637T279 678Q319 678 361 664T439
624T500 568Q526 534 526 469Q526 389 498 339T395 253Q371 242 361 242ZM80 468Q118 468 193 471Q192 487 185 509T167 544Q147 576 150 614Q94 586 70 509Q62 483 62 479Q62 468 80 468ZM301 234Q292 234 279 239T266 253Q266 267 286 264Q298 263 304 262T311
260Q320 256 320 248Q320 234 301 234ZM284 -9Q271 -9 259 -6Q206 6 177 33T149 95Q154 174 201 194Q257 218 285 218Q307 218 328 208T368 186Q367 187 367 190Q362 204 369 204Q375 204 381 190T394 157T403 120T407 97Q407 68 388 44T340 6T284 -9ZM289 79Q306
79 330 94T374 145Q376 147 376 148Q373 150 368 156Q352 177 329 185T277 192Q229 189 204 172T173 106Q180 107 186 107T198 108Q223 108 240 98Q275 79 289 79Z" />
<glyph unicode="@" glyph-name="at" horiz-adv-x="659" d="M302 -21Q226 -21 164 13T66 107T30 244Q30 340 71 416T187 538T359 583Q410 583 456 566T540 516T598 440T620 343Q620 307 610 266T579 189T527 130T452 107Q401 107 396 148Q331 111 292 111Q253 111
226 130T183 181T168 248Q168 432 340 432Q380 432 418 406Q432 438 456 438Q495 438 495 394Q495 388 486 344Q500 322 500 316Q500 312 494 312Q491 312 479 317Q475 299 470 283T457 251V249Q457 244 459 237T461 226Q461 217 453 198Q459 179 475 179Q492 179
505 199T528 247T543 303T548 344Q548 385 529 416T479 470T411 503T338 515Q272 515 223 480T147 388T120 269Q120 165 178 108T339 51Q353 51 373 54T420 61Q473 70 499 70Q548 70 548 48Q548 38 527 28T473 9T405 -6T342 -17T302 -21ZM305 183Q333 183 366 223Q408
274 416 279Q416 315 413 345Q376 353 331 353Q312 353 293 341T262 311T249 274Q249 260 255 238T275 200T305 183Z" />
<glyph unicode="A" glyph-name="A" horiz-adv-x="757" d="M14 -1Q-25 -2 -25 23Q-25 44 -3 52Q24 60 29 69Q38 85 45 109T60 165Q69 203 76 228T87 263Q95 288 121 374T188 609Q194 632 209 633Q287 641 443 651Q462 651 468 636Q470 628 471 621T475 605Q484
574 500 533T536 440Q565 364 585 315T616 240Q653 158 677 116T716 73Q746 71 746 49V46Q746 26 730 21H695Q677 21 651 19T589 14Q552 11 524 9T478 7Q455 7 436 21Q414 38 412 63Q412 66 418 73T430 86T439 92Q443 92 445 84T452 66T467 52Q468 52 471 52T480
51Q488 51 501 51T531 53L528 75Q528 85 531 100T542 129T562 143Q571 143 587 135T610 127Q615 127 615 136Q615 141 609 158T593 197T576 236T563 260Q559 260 552 257T541 253Q528 253 514 301Q499 355 470 375Q443 394 428 403T411 415Q396 430 388 445T380
480Q380 500 388 507T419 515Q445 517 475 477Q477 483 477 490Q477 504 469 524T450 564T430 594Q389 609 343 607Q320 607 313 588T301 549Q290 518 251 505Q203 489 186 467Q178 438 166 395T137 295Q170 275 171 235Q171 220 152 186Q134 155 134 127Q134 99
157 77Q187 48 194 38L237 36Q235 47 232 62T226 96Q225 108 232 120T251 132Q260 133 277 129T302 125L409 128Q422 128 422 122Q422 96 360 90H277L278 80Q279 73 276 55T266 21T250 5H249Q244 5 242 13Q193 3 142 1Q129 3 111 3T69 5Q51 4 14 -1ZM301 157Q277
157 259 171T241 210Q241 217 243 227T245 243Q244 255 234 272T223 302Q221 331 247 351Q259 360 271 365T299 371Q325 371 325 347Q325 336 323 318T318 282T316 255Q318 241 326 241Q333 245 343 249T368 257V263Q368 286 354 326T309 424Q309 428 313 441T322
466T331 478Q339 473 354 424Q363 394 368 378T375 360L401 310Q412 291 416 277T420 254Q420 229 397 229Q394 229 390 229T381 230Q382 197 359 177T301 157Z" />
<glyph unicode="B" glyph-name="B" horiz-adv-x="595" d="M5 15Q-24 15 -24 39Q-24 58 20 78Q44 89 44 405Q44 460 43 499T40 564Q37 598 13 608Q-11 619 -11 629Q-11 657 27 657Q44 657 67 656T118 653Q178 648 237 647T357 643Q412 640 456 625T526 575T553
477Q553 435 543 404T495 349Q525 332 545 316T575 277T585 217Q585 150 557 111T484 52T385 26T278 19Q266 19 240 19T189 20T155 21Q130 21 80 18Q31 15 5 15ZM73 409H76Q84 409 94 448L106 496Q139 601 235 618L202 619Q189 618 172 618T131 618H87Q76 618 74
614T71 598L73 409ZM95 58Q108 58 145 96Q181 133 208 133Q228 133 250 115Q273 97 294 97Q312 97 351 114Q390 131 410 131Q421 131 437 126T471 115T497 109Q517 109 529 125T547 164T553 201Q553 253 531 282T463 331Q448 324 435 324L425 329V332Q425 338 436
343Q427 349 427 355Q427 368 444 368Q455 368 466 364Q505 393 505 400Q505 404 489 405Q445 410 418 444T391 522Q391 553 407 568Q417 575 426 582T446 597Q415 607 387 612T332 616L304 615Q321 596 321 571Q321 554 310 534T299 503Q371 484 371 453Q371 444
361 429T337 402T314 388Q301 346 265 335Q248 330 192 330Q175 330 161 294Q147 257 141 238T134 217Q111 167 73 145Q73 58 95 58ZM286 416Q300 416 308 416T319 418Q334 422 337 443Q330 464 327 469Q320 478 302 478Q278 478 277 477Q265 474 265 459V437Q265
429 270 417Q272 416 276 416T286 416ZM300 163Q283 163 273 163T258 165Q237 170 237 197Q237 204 243 211T258 218Q262 218 263 212T266 198T275 191Q288 191 306 195T340 208T355 234Q355 270 279 270Q269 270 263 258T251 245Q246 247 242 263T238 286Q238
300 264 302Q286 302 287 303Q298 305 308 312Q325 325 358 325Q394 325 413 314Q424 307 433 289T450 265Q465 258 480 251T496 217Q496 197 483 183T450 169Q435 169 417 189Q399 209 386 209L377 208Q359 163 300 163Z" />
<glyph unicode="C" glyph-name="C" horiz-adv-x="546" d="M329 -7Q192 -7 77 108Q54 132 40 171T19 253T12 328Q12 376 29 418Q31 423 38 438T56 471T74 503T85 520Q93 531 100 531H102Q108 531 109 525Q109 522 88 487L110 490Q149 495 203 463Q256 432 289 435Q303
442 317 446T345 451Q351 451 360 451T380 450Q403 448 414 450Q457 456 453 485L449 511Q442 507 434 505T415 501Q372 498 355 498Q244 498 244 577Q244 582 244 588T246 600Q164 581 131 529Q130 525 124 521L123 531Q119 581 189 612Q244 637 304 641Q315 642
325 642T346 642Q360 642 373 642T400 640Q476 634 478 611Q478 606 477 596T475 581Q476 570 480 543T490 490T495 450Q498 390 485 389Q482 389 438 407Q401 422 367 422Q311 422 281 392T254 307Q257 270 289 245T358 220Q404 220 453 261Q456 307 481 307Q495
307 508 300T522 279Q522 269 519 250T512 212T508 181Q508 159 523 115Q531 92 534 77T537 54Q537 16 485 13Q474 12 455 10T407 2Q358 -7 329 -7ZM72 250Q87 250 101 257T131 277Q157 299 157 326Q157 354 128 389Q102 422 75 422Q53 422 43 372Q39 354 37 340T35
313Q35 250 72 250ZM352 14Q404 18 442 26T504 49L499 156Q482 112 438 112Q427 112 410 116T381 120Q360 120 331 101Q313 89 299 85T273 81Q232 81 212 111Q205 122 200 140T189 185Q183 213 148 213L116 210Q101 209 83 213T42 225Q73 125 160 66Q247 7 352
14Z" />
<glyph unicode="D" glyph-name="D" horiz-adv-x="645" d="M156 4Q62 4 52 11Q45 7 40 7Q15 7 15 56Q15 75 16 98T20 149Q31 265 34 381T37 615Q37 646 74 646Q168 646 231 644T328 638Q424 627 492 592T596 492T633 325Q633 236 592 177Q574 56 415 20Q378 12
313 8T156 4ZM348 45L347 67Q346 84 347 97T355 119Q359 124 365 129T379 139Q395 146 400 153Q403 161 406 170T413 187Q420 203 450 203Q469 203 482 190T496 158Q496 144 478 126Q460 108 460 95Q460 87 467 74Q509 93 531 120H520Q514 120 514 126Q514 127
518 131Q535 146 566 182Q565 191 565 204T564 237Q572 245 580 245Q587 245 591 236Q599 264 603 290T607 339Q607 361 604 380Q593 373 579 361T547 330Q529 312 516 300T491 281Q456 260 415 263Q393 219 363 205T285 190Q238 190 238 217Q238 222 249 224Q252
225 260 225Q267 225 271 224L288 221Q314 221 339 232T381 264T398 313Q398 424 294 424Q280 424 279 414V267Q279 236 267 236Q243 236 243 322Q243 336 243 351T245 384Q187 409 187 475Q187 548 245 612Q235 613 221 613T188 613Q186 613 180 613T165 614Q155
615 148 615T135 615Q65 615 65 581Q65 565 66 541T69 485Q72 421 72 389Q99 388 120 370T141 323Q141 319 141 313T139 299Q136 283 136 275Q136 223 170 202Q203 186 234 173Q269 150 269 100Q269 69 260 48L348 45Z" />
<glyph unicode="E" glyph-name="E" horiz-adv-x="529" d="M86 -5Q56 -6 54 18V21Q54 39 73 41Q90 40 115 39T173 37Q132 67 132 129Q132 191 179 212Q188 216 196 247Q207 285 225 304T289 324Q302 324 314 321T336 309Q339 307 349 298T376 273H382Q392 273 411
276T440 281Q431 322 431 382Q422 346 384 346Q358 346 350 364T335 400Q324 399 314 399T296 399Q261 399 261 405L268 414Q261 427 253 455V459Q253 474 262 478Q271 483 287 482Q286 520 309 547T372 575Q422 575 422 522Q422 511 419 500Q424 502 429 502T441
504L440 514Q438 522 435 534T429 562Q428 581 435 621Q416 617 392 614T337 610L238 607Q232 582 191 538Q156 500 156 475Q156 468 162 452T168 426Q170 397 142 373Q113 349 83 352Q88 285 91 218T95 83V75Q95 54 87 53H82Q63 53 63 71Q63 75 64 85T66 102Q65
114 62 140T56 192T52 230Q50 266 49 339Q48 376 47 403T45 448Q45 459 42 479T34 524T27 568T24 596Q24 615 35 628T65 642Q79 642 100 639T132 636Q146 637 167 638T218 640Q276 642 304 643Q314 643 333 645T376 651T418 656T445 659Q464 659 467 630Q466 618
466 606T466 581L471 492Q476 486 477 479V475Q477 460 451 460Q444 460 436 460T417 461Q388 463 374 461Q331 457 310 456T288 450V419Q301 420 319 422T363 426Q391 428 411 430T442 432Q477 432 477 413Q477 411 476 395T470 348Q462 287 461 280Q468 277 468
263Q468 239 440 238Q427 237 415 237T391 237Q312 237 301 255L290 254Q300 235 303 207L369 210Q388 214 415 218T480 227Q493 227 496 220Q496 219 497 201T508 146Q513 128 515 115T518 91Q519 85 519 79T519 68Q519 12 495 10Q489 10 468 12T423 17T385 20Q361
20 323 17T234 8Q185 3 148 0T86 -5Z" />
<glyph unicode="F" glyph-name="F" horiz-adv-x="482" d="M430 428Q424 428 413 430T392 437T383 450L391 458Q425 466 433 470T441 491Q441 495 440 511T439 540Q408 526 383 526Q374 526 358 529T333 533Q310 533 276 505Q241 476 201 476Q181 476 156 487T114
518T96 559Q96 563 97 570T101 591Q73 588 70 571Q69 560 68 549T66 526Q66 521 61 516Q55 522 47 544T32 589T25 621Q25 654 67 654Q80 654 100 652T147 644Q174 639 194 636T228 633Q246 633 273 635T335 641Q370 645 396 646T439 648Q476 648 476 628Q476 620
472 604T468 580Q468 569 468 544T469 493T470 456Q470 435 460 431Q454 428 430 428ZM262 -10Q252 -10 234 -8T197 -5T168 -3Q157 -3 134 -4T86 -7T51 -9Q39 -9 39 8Q39 90 40 176T48 352Q51 398 61 398H63Q68 389 70 377Q94 416 145 416Q170 416 196 405T240
374T258 326Q258 296 214 261Q169 227 169 187Q169 179 176 163T189 129T196 101Q196 68 172 42L233 41Q252 41 254 76Q253 71 253 140Q253 145 254 164T258 217Q244 231 244 246Q244 272 275 272Q287 272 312 267T364 257T403 251Q416 251 416 258Q416 260 415
266T414 275Q326 303 326 335Q326 357 347 367L288 364Q263 364 256 380Q252 389 252 419Q252 469 276 469Q281 469 293 467T316 461T327 452Q326 451 320 448T301 436Q285 426 285 415Q285 395 302 394Q298 395 307 395T337 396Q416 396 429 387H433V385Q448 364
449 319Q450 318 450 248Q450 234 441 226Q435 222 397 217T286 208Q290 116 292 71T294 27V28Q294 28 294 28T294 27Q293 -10 262 -10Z" />
<glyph unicode="G" glyph-name="G" horiz-adv-x="713" d="M351 188Q299 188 268 221T229 307Q212 302 197 302Q172 302 146 311T103 340T85 389Q85 420 126 454Q166 488 166 526Q166 537 149 573Q112 548 86 508T47 422T33 332Q33 320 35 296T38 259Q38 235 27
235Q12 243 12 344Q12 444 58 514T183 622T357 660Q383 660 420 653T498 631T574 596T632 549T654 491Q654 472 641 468Q635 466 613 466Q599 466 576 461T520 443Q456 419 432 419Q420 419 401 438Q383 456 357 456Q325 456 300 436T262 387T248 327Q248 275 276
244T356 212Q391 212 419 240Q447 268 451 268Q452 267 452 261Q452 238 435 222T395 197T351 188ZM423 461Q471 486 473 488Q482 497 482 543Q482 567 493 600Q433 629 370 631Q376 609 376 584Q376 516 341 479Q351 481 360 482T376 483Q398 483 423 461ZM346
15Q315 15 272 26T186 57T109 103T63 160Q62 164 61 167T59 173Q59 180 64 180Q72 180 98 151Q102 183 125 203T180 224Q227 224 270 177Q314 130 352 130Q363 130 385 133T420 137Q492 137 532 100Q551 113 568 130T603 170Q570 190 555 218Q536 254 529 261Q517
273 482 282Q448 291 428 312L420 321Q409 320 399 320T381 319Q359 319 351 323V296Q351 275 361 268Q365 268 378 265T415 261Q420 261 420 259Q420 254 406 250T375 243T353 241Q326 241 326 254Q326 259 328 269T331 286Q331 290 331 296T330 312Q329 328 330
337Q323 347 323 357Q323 394 378 394Q389 394 406 393T430 391Q468 391 546 397Q584 400 613 401T661 402Q701 402 701 362Q701 257 656 179T531 58T346 15Z" />
<glyph unicode="H" glyph-name="H" horiz-adv-x="665" d="M587 1Q546 1 426 7Q370 10 372 24Q372 34 375 51T383 86T387 114Q388 133 390 160T394 224Q378 226 365 227T340 228Q332 228 319 227T286 224Q286 209 283 167Q282 149 282 135T282 109Q282 100 285
79T289 46Q287 9 210 14Q164 16 137 18T98 21Q15 32 15 59Q15 75 20 100T35 160Q54 230 55 263Q55 267 54 279T50 304T48 324Q48 352 64 352Q78 352 79 296Q78 280 78 263T77 229Q88 216 106 214T141 211Q174 211 193 190T213 138Q213 105 197 88L160 57L222 52Q248
50 251 81V132Q251 173 254 198T262 232Q259 238 259 245Q259 270 286 269Q325 267 346 266T370 265Q434 258 434 236Q434 224 419 221Q419 196 419 172T420 124Q422 45 437 45L506 42Q516 42 524 42T540 41Q589 41 590 51Q589 59 587 75Q588 89 590 109T595 156Q598
182 600 202T603 236L606 327Q560 290 500 290Q485 290 468 295T432 310Q400 327 382 329Q378 329 330 312Q287 297 255 297Q222 297 194 315T149 362T132 423Q132 435 136 452T150 493Q158 513 163 528T168 554Q168 575 128 617H92Q61 617 63 636Q66 667 86 667Q95
667 117 665T164 660T199 656L267 653Q317 647 317 629Q317 620 312 601T306 572L302 444Q317 446 341 441Q356 438 366 438T380 437H384Q402 437 403 453Q404 467 404 487T404 534Q404 561 404 581T406 616Q407 644 443 644Q451 644 464 642T490 639T507 636Q518
636 543 636T592 636T628 636Q650 635 650 611Q650 604 648 585T644 542T639 497T637 466Q634 408 631 289Q630 230 628 185T624 111Q619 10 607 2Q605 1 587 1ZM51 373Q46 373 47 379Q51 395 51 422T51 489Q53 527 54 555T56 600Q56 609 69 609Q83 609 82 599Q80
581 79 554T74 492L65 388Q64 373 51 373ZM496 545Q505 545 519 549T548 557T572 561Q595 561 615 550L618 582V584Q618 593 600 597Q596 598 593 598T585 598Q560 598 540 599T504 600Q462 600 453 594Q458 545 496 545ZM519 74Q455 74 455 156Q455 161 455 170T456
194Q458 239 489 239Q500 239 514 230T545 197Q573 157 573 134Q573 109 558 92T519 74Z" />
<glyph unicode="I" glyph-name="I" horiz-adv-x="338" d="M84 -2Q26 -5 24 31Q24 48 34 75Q46 109 48 144T51 216Q51 245 50 282T47 367Q46 399 44 431T40 495Q40 507 37 533T31 586T27 621Q27 642 51 642Q57 642 70 640T89 638Q110 639 186 647Q196 648 211 653T241
664T266 670Q273 670 283 656T293 635Q293 630 276 625T235 615T189 607T158 604Q187 578 248 572Q246 578 245 591V593Q245 605 259 607Q267 607 276 601T286 587Q287 580 283 562T279 534Q279 524 281 507T287 473T290 446V439Q290 419 281 417Q257 427 255 448Q248
444 242 443T231 440Q221 440 203 444T175 449Q167 449 151 445T125 440Q101 439 70 457Q71 444 72 421T74 363Q96 354 108 333Q116 320 121 312T130 300Q137 294 150 289T181 277Q213 267 231 252T252 199Q254 170 230 139Q207 107 207 98Q209 83 218 71Q226 73
239 76T270 81Q271 86 271 94T271 116Q271 141 270 182T267 280Q266 294 263 320T258 360V364Q258 387 276 387H278Q293 387 295 365V306Q295 261 295 204T297 75Q324 65 326 46Q326 38 319 28T301 9T283 1Q277 1 261 9T231 18Q222 18 202 15T159 9T115 2T84 -2Z"
/>
<glyph unicode="J" glyph-name="J" horiz-adv-x="441" d="M166 2Q147 2 119 7T62 22T14 50T-5 91Q-5 95 4 117T25 167T48 218T63 247Q61 253 61 260Q61 271 68 287T88 304Q102 304 121 262Q140 219 149 219Q168 231 168 346L167 593Q144 610 144 640Q144 669 173
669Q196 669 244 660Q268 656 286 653T317 650Q326 650 341 651T372 654T396 656Q435 656 435 637Q435 631 418 620L419 604Q420 598 420 592T420 578Q420 557 419 531T413 472Q408 426 406 393T403 340Q403 335 403 326T404 303V266Q404 2 166 2ZM114 42Q107 55
107 72Q107 108 141 124Q158 129 174 135T208 146Q245 160 256 192Q258 196 258 200T258 208Q258 211 258 214T257 222Q255 235 255 242T254 252Q254 308 290 337T381 362V464Q381 598 384 605Q354 592 298 587Q336 547 336 497Q336 470 318 448T272 426Q264 426
248 429T224 432Q215 432 201 429V425Q201 414 203 390T206 341T208 305Q208 286 203 258T185 208T146 186Q117 186 92 205Q76 179 61 152T30 95Q50 58 114 42Z" />
<glyph unicode="K" glyph-name="K" horiz-adv-x="662" d="M85 8Q31 8 31 35Q34 61 37 111L35 309Q34 358 31 430T24 599Q23 634 77 636Q95 637 111 637T141 637Q264 637 264 622L265 554Q265 510 250 509Q243 509 239 522T232 551T229 573Q228 586 221 593T201
604Q197 606 153 607Q186 558 186 502Q186 447 153 404T66 351L65 255Q83 261 93 261Q104 261 121 255T147 248H152Q156 248 160 248T169 249L192 251Q208 251 224 245L223 249Q223 259 227 271T238 294T254 304Q267 304 276 273Q284 270 297 253T327 210T358 159T384
111T397 79Q403 53 423 53Q434 54 456 54T489 53L598 54Q596 61 592 70T582 91Q570 86 551 84Q518 84 502 95T474 135Q465 158 457 172T436 196T400 218Q378 229 365 238T344 252Q330 263 324 279T318 314Q318 347 336 380T383 441T447 484T514 500Q533 526 551
554T588 610Q581 614 529 614H464Q472 596 473 580Q473 557 460 541T423 524Q398 524 370 544Q356 517 336 476T290 380Q278 348 260 348Q247 348 231 357T214 379Q213 396 239 426L278 468Q303 506 340 603Q358 650 417 650Q424 650 441 649T467 648Q479 649 506
651T559 657T598 660Q641 661 641 642L559 499Q476 356 476 336Q477 297 590 189Q647 134 674 100T702 51Q702 25 604 17L478 15Q427 14 411 15Q391 16 381 31Q381 31 368 63Q359 86 324 140Q303 172 290 192T273 219Q273 210 274 188T276 144T277 114Q279 20 265
18Q261 19 257 19T246 19Q235 19 212 17T165 12T131 10Q128 10 112 9T85 8ZM114 42Q116 42 122 42T138 43H164L165 54Q169 104 66 132V88Q66 42 114 42Z" />
<glyph unicode="L" glyph-name="L" horiz-adv-x="506" d="M432 -5Q420 -5 367 4Q339 9 305 12T230 17Q195 19 161 19T91 21Q84 -3 63 -3Q24 -3 24 29Q24 40 28 60T37 91Q46 120 48 153T50 226Q50 472 47 536Q47 545 44 561T39 595T36 622Q36 652 68 652Q77 652
94 650T118 647Q143 647 192 659Q217 665 235 667T265 670Q307 670 307 625Q307 598 282 598Q272 598 255 603T231 610Q225 595 222 586T218 575Q217 573 217 564T217 538Q217 520 207 502T180 472T143 460Q113 460 97 483T82 536Q81 533 81 504Q81 499 81 487T80
456Q79 437 79 422T78 395Q78 255 138 231Q163 221 179 197Q184 186 188 174T196 151Q205 125 234 125Q242 125 259 132T294 145T323 152Q367 152 394 122T423 46Q439 47 442 68Q447 106 450 135T454 187Q454 210 372 210Q362 210 345 207T312 199T285 195Q238
195 238 243Q238 260 251 293Q240 298 220 313T184 348T167 379Q167 403 189 407Q190 408 228 408Q233 408 247 410T268 411Q270 427 270 436T272 447Q276 459 279 466T289 474Q294 471 294 377Q294 368 296 346T300 301T303 269Q303 262 303 255T301 242Q327 244
343 245T366 246Q374 246 391 245T418 243Q428 243 442 244T462 246Q488 246 488 197Q488 189 486 174T482 144T480 120Q480 106 482 80T485 41Q485 -5 432 -5ZM279 490Q277 491 274 508T270 544T268 568Q268 581 287 581Q301 581 301 549Q301 490 279 490Z" />
<glyph unicode="M" glyph-name="M" horiz-adv-x="848" d="M40 -13Q16 -13 15 9V12Q15 17 16 23T19 36Q26 62 29 97T33 179Q34 233 37 269T42 324Q45 349 48 381T53 451Q57 513 59 545T62 579Q64 597 65 608T67 623Q69 636 81 641T108 647Q123 647 146 646T192
645T225 644Q235 645 251 649T284 658T311 664H315Q331 664 332 652Q337 602 358 532T419 373Q430 419 441 476T466 604Q466 613 463 628T459 648Q459 671 492 672Q494 672 505 671T535 668Q573 663 597 665Q609 666 628 669T666 675T696 680Q714 683 720 645L724
593Q726 579 740 516T780 341Q806 229 820 170T838 103Q841 96 844 87T851 64Q852 39 808 36L725 32Q697 31 676 29T640 27Q623 27 618 54Q614 77 609 117T599 213Q595 264 590 304T579 372Q572 352 548 217Q537 153 531 115T524 68Q524 64 524 61T525 54Q525 10
486 8Q477 8 454 8T407 7T373 6Q365 5 352 30T324 93T296 172T273 247T260 296Q259 279 259 256T259 203V150Q261 127 260 126Q257 119 255 115T243 111Q214 111 214 168Q214 191 222 218Q234 262 234 328Q234 342 233 356T232 387Q232 397 239 408T255 421Q262
417 263 407Q264 401 263 388T263 371Q264 363 278 325T322 219Q334 231 353 233Q359 233 370 232T387 230Q397 231 410 240T434 250Q489 255 489 205Q489 179 452 174Q436 172 429 154Q424 141 419 133T412 121Q405 112 392 110T360 108Q377 54 447 58Q479 61
489 106L521 234Q530 271 536 303T546 364Q520 372 502 394T484 444Q484 467 495 482T524 507T557 529Q565 537 572 551T586 585Q593 605 599 618T612 638Q590 635 572 634T540 633Q530 633 522 633T507 635Q494 586 477 514T436 343Q439 339 442 332T449 314Q450
303 439 293T417 283Q389 283 376 347Q355 366 346 387T329 431Q317 464 279 479Q242 494 223 540Q210 572 187 570H183Q170 570 144 553Q118 536 96 536Q92 536 88 536T80 538Q79 522 79 508T79 481Q108 476 117 463Q129 443 134 440Q150 435 165 429T181 395Q181
379 171 367T143 353Q135 352 124 359T102 374T81 382Q82 372 82 360T83 333Q83 319 83 304T81 271Q102 283 122 283Q147 283 167 266T191 224Q193 210 184 188T175 151Q175 138 185 113T195 64Q204 65 211 65T223 65Q266 65 266 35Q266 0 179 -8Q169 -9 150 -9T108
-11T67 -12T40 -13ZM809 94Q813 104 812 120Q810 146 805 178T790 247L757 373L745 371Q734 370 720 373T689 384Q656 398 638 398Q630 398 619 393T593 373Q598 354 602 329T610 273Q612 248 615 223T620 172Q629 231 632 237Q640 253 654 262T690 271Q711 271
725 256T742 220Q742 211 741 193T740 165Q743 127 757 114T809 94Z" />
<glyph unicode="N" glyph-name="N" horiz-adv-x="710" d="M227 31Q211 31 189 32T140 38Q106 43 85 44T53 47Q14 50 15 75Q19 94 24 122T37 188Q42 220 48 300T64 507Q65 521 65 549T67 607T69 650Q71 673 93 673Q109 673 133 672T191 669Q223 668 247 667T287
664Q304 662 333 625Q361 588 361 577Q361 563 351 565Q348 565 325 591Q303 617 295 621L267 585Q251 565 251 543Q251 530 260 511T269 477Q269 458 256 442T223 415T182 405Q156 405 139 414T113 440Q108 457 102 475T90 510Q89 482 87 441T82 343Q155 323 168
273Q170 250 171 226T175 178Q183 122 242 96Q244 102 244 109T246 125Q251 177 251 209T251 255Q249 269 248 282T244 309Q241 335 241 352Q241 393 275 392Q290 390 301 381T312 357Q312 347 308 328T294 283Q275 232 274 205Q274 200 274 193T273 176Q273 167
273 157T274 135Q275 112 275 94T273 64Q270 31 227 31ZM649 -8Q642 -8 623 -3T594 3Q586 4 575 4T551 5Q541 5 531 5T508 4Q494 4 482 4T458 3Q448 3 439 3T422 4Q401 5 393 30L384 72Q379 87 372 110T351 163Q349 168 341 180T319 212Q295 247 295 253Q296 263
304 273T322 283Q328 283 339 279L385 165Q408 108 429 80T464 51L513 48Q470 94 470 147Q470 199 500 230L548 269Q576 291 576 327Q576 341 571 358T552 397Q527 440 527 471Q527 555 647 557Q647 563 648 573T651 597H638Q611 597 567 607Q542 612 525 615T496
619H493Q484 619 482 607Q474 530 473 489T471 442Q471 416 474 388T480 334Q485 293 483 266Q482 245 457 245Q425 245 431 303Q413 298 398 298Q371 298 352 314T334 356Q334 362 337 374T342 393Q342 403 334 418T326 448Q326 480 351 495Q334 526 335 530Q335
537 342 537Q361 535 395 474L437 393Q443 440 446 510Q448 563 450 592T452 626Q455 666 525 666Q555 666 597 662T666 648V650Q671 658 675 658Q685 657 691 633Q693 623 694 615T695 601L674 311Q671 263 671 186V146Q671 108 670 78T667 24Q664 -8 649 -8Z"
/>
<glyph unicode="O" glyph-name="O" horiz-adv-x="708" d="M328 -13Q261 -13 204 15T103 92T36 201T12 327Q12 385 31 442T89 545T182 614Q183 631 204 642T254 660T312 668T353 671Q455 671 532 633T652 521T696 342Q696 286 680 232T632 132T547 59Q412 -13 328
-13ZM350 26Q337 40 337 65Q337 87 347 97T374 112T408 122Q410 123 414 124T426 128Q435 132 444 132Q477 132 477 103Q477 93 464 74Q456 62 452 55T445 44Q476 55 512 75T582 124T639 185T669 252Q671 266 672 282T673 315Q673 413 614 510Q594 516 558 552Q527
583 498 583Q470 583 431 553Q391 523 360 523Q284 523 277 629Q274 626 257 618T221 602T197 594Q194 594 188 596Q177 589 162 579T126 552Q190 518 190 436Q190 426 187 404T180 361T176 330Q176 297 203 228Q230 158 230 115Q230 79 220 53Q286 26 350 26ZM468
169Q464 169 448 175T412 190T377 206T358 217H350Q287 217 266 247Q247 273 247 338Q247 371 259 406T297 465T360 490Q366 490 377 488T397 482T406 474Q406 469 345 463Q311 460 290 429T268 362Q268 316 292 281T367 246Q393 246 416 258T454 292T469 339Q469
371 462 387T432 423Q419 435 419 450Q419 462 431 462Q451 462 467 442T487 400H496Q498 400 509 405T535 416T563 422Q596 422 619 401T642 347V272Q642 245 629 231T596 210T553 201Q545 200 531 192T500 177T468 169Z" />
<glyph unicode="P" glyph-name="P" horiz-adv-x="583" d="M53 -9Q43 -9 40 63Q38 109 37 176T33 334Q31 424 29 491T25 604Q24 631 43 632H47Q66 632 75 621Q95 622 125 623T196 626Q240 634 326 641Q441 645 507 580T579 399Q580 371 570 344Q547 285 516 252T440
206T334 189Q328 189 317 196T306 209Q306 218 344 223L392 227Q460 233 507 289Q550 341 550 405Q550 442 537 477Q533 476 526 475T509 474Q480 474 461 491Q449 508 437 525T403 543Q394 542 377 539T350 534Q263 531 217 604L162 598Q143 596 130 595T106 593Q99
593 93 593T82 594L76 566L86 567Q91 568 95 568T103 568Q144 568 160 543Q166 534 170 516T174 469Q174 461 180 450T196 425Q217 397 217 372Q217 344 194 322T141 298Q131 298 114 303T87 309L66 306Q66 293 66 274T68 228L70 179Q75 181 100 212Q123 242 164
242Q219 242 246 186Q243 193 240 204T233 229V231Q233 247 257 247Q289 247 290 211Q290 195 284 145Q281 120 279 101T278 68Q278 59 281 44T285 23Q285 0 244 0Q231 0 207 2T159 6T124 7Q116 7 102 3T75 -5T53 -9ZM392 258Q368 258 350 272T331 309Q333 315
333 324T335 346Q327 342 315 340T288 338Q241 338 240 357Q240 361 255 362Q261 362 272 362T293 361T303 360Q320 360 333 374T346 405Q345 441 275 439Q271 422 267 405T255 371Q246 376 244 398V429L241 442H239Q224 446 224 459Q224 466 230 475T244 484Q253
486 301 475Q348 465 356 460H361Q398 464 400 419Q400 401 436 386Q472 371 472 329Q472 296 449 277T392 258Z" />
<glyph unicode="Q" glyph-name="Q" horiz-adv-x="737" d="M550 -31Q539 -31 517 6Q495 43 489 43Q479 43 455 38T408 27T372 21Q317 21 257 36T145 83T59 163T26 275Q26 312 38 313Q44 303 44 275Q44 232 94 167Q113 267 197 267Q207 267 223 263T255 256T279
251Q256 289 256 339Q256 385 281 421Q310 462 355 456Q373 463 404 463Q437 463 461 452Q479 475 502 477T548 482Q568 493 609 506Q586 541 569 558T530 586T468 609Q463 570 436 547T371 514T300 504Q264 504 253 468Q248 450 243 433T233 398Q217 361 166 361Q145
361 114 377Q83 393 63 393Q49 393 34 387L30 359Q26 337 19 337Q12 344 12 356Q12 400 28 445T72 530T131 598Q154 619 190 633T266 654T336 661Q378 661 427 651T523 622T603 577Q693 510 693 342Q693 249 635 158Q644 154 660 143T693 118T721 90T733 65Q733
61 717 50T677 26T626 -1T579 -22T550 -31ZM383 208L359 256Q340 294 340 298Q340 302 357 311T397 331T440 348T467 356L475 352Q483 332 515 301Q517 309 518 315T520 327Q520 359 504 383T461 421T402 435Q380 435 350 423Q320 410 322 410Q316 410 320 422Q279
387 279 330Q279 278 308 251T383 208ZM555 18Q563 18 580 23T618 37T656 53T682 65Q684 65 689 70Q681 77 672 85T654 105L622 143Q609 132 600 132Q579 140 579 152Q579 159 608 191Q635 221 643 262Q622 324 617 329Q608 338 591 343T545 349V339Q546 309 532
282Q537 274 537 271Q537 265 532 258T520 251Q512 254 487 291Q465 325 455 325Q454 325 436 317T383 294L369 288Q369 281 374 278Q385 281 397 281Q434 281 458 254T482 189Q482 148 460 135L414 115Q386 100 375 59Q383 62 432 86Q468 103 492 103Q524 103
530 92Q534 85 534 53Q534 18 555 18Z" />
<glyph unicode="R" glyph-name="R" horiz-adv-x="629" d="M603 -1Q600 -1 594 1Q570 0 410 7Q400 8 381 6T351 3Q333 5 329 18Q326 27 319 46T301 95Q280 158 280 167L285 176L293 180Q324 135 338 85Q347 52 367 45Q385 38 482 35L512 34Q506 44 499 49T483 58Q479
60 447 61Q386 64 368 100Q363 120 359 140T345 178Q344 180 340 188T326 210Q317 225 317 243Q317 276 336 298T385 320Q397 320 408 315T428 297H432Q440 297 449 281Q510 300 536 348Q473 363 467 366Q438 381 438 423Q438 464 472 489Q511 517 518 535Q498
565 455 584Q431 554 365 537Q308 522 290 488Q350 485 370 453H373Q383 453 383 434Q383 427 382 419T376 403V400Q376 386 363 378Q350 356 327 350Q324 349 313 349Q306 349 298 349T279 350Q254 352 250 384Q249 398 248 411T245 438Q231 434 216 429T190 416T179
390Q179 378 193 345Q207 313 206 294Q203 248 171 224T94 200Q79 200 62 203Q60 181 57 149T50 73Q50 62 64 62L128 58Q99 73 99 97Q99 120 142 132Q172 140 196 140Q206 140 216 139T236 130Q237 140 235 160T230 202T228 235Q228 261 252 261Q283 261 281 225Q281
217 277 196T268 155T262 125Q262 114 262 94T264 55T265 24Q265 11 238 11Q239 11 239 11T237 11H238Q240 11 230 11T198 13Q170 14 143 15T87 18Q15 29 15 70Q15 89 19 118T28 187Q38 256 41 325T47 464Q50 573 53 627Q55 651 68 657Q72 659 80 660T102 660Q203
654 255 652T312 648Q376 635 425 623T506 586Q583 528 583 417Q583 359 555 313T470 252Q478 242 496 219T537 167T580 108T614 57T627 26Q626 -1 603 -1ZM305 376Q340 376 351 415Q340 442 328 447T287 452Q280 452 279 440Q279 435 278 423T277 404Q277 376
305 376Z" />
<glyph unicode="S" glyph-name="S" horiz-adv-x="539" d="M268 6Q255 6 226 9T161 17T91 30T34 48T5 69Q2 77 2 83Q2 85 32 139Q62 192 62 216Q62 220 59 229T56 243Q56 252 64 260T81 269Q88 269 108 250Q133 227 165 211T232 194Q281 194 281 219Q281 230 268
237T255 246Q255 253 272 253Q283 253 293 242T303 219Q303 199 281 185T237 170Q173 170 93 225Q92 223 86 206T66 157Q47 109 47 92Q47 77 60 73Q94 104 144 104Q155 104 175 101T206 98Q236 98 270 124Q302 150 362 150Q410 150 410 198Q410 205 409 220T408
243Q408 298 466 325Q449 351 410 366Q410 342 394 329T353 315Q345 315 329 319T306 323Q289 323 273 298Q257 273 238 273Q217 273 204 287T190 323Q190 344 213 358Q234 372 242 401L252 414Q244 432 244 442Q244 492 315 492Q367 492 411 460Q413 466 419 474T433
493Q396 518 396 556Q396 577 416 603Q399 608 381 611T345 616Q328 572 277 551Q250 540 234 529T212 508Q210 504 208 493T204 461Q201 432 176 420T125 407Q86 407 59 438Q58 431 58 425T57 413Q57 377 69 354T103 314T153 281Q161 277 175 273T204 265T226
258Q231 256 231 254Q231 248 210 248Q164 248 122 270T54 330T27 416Q27 490 65 544T164 629T295 659Q306 659 331 655T388 644T449 627T498 606T517 584Q517 576 503 556Q494 543 489 537T483 529Q473 513 467 492T456 444Q452 419 434 419Q414 419 408 444Q372
462 326 462Q277 462 277 450Q277 441 320 425Q345 416 370 408T421 391Q477 369 505 336T533 239Q533 162 497 110T400 32T268 6Z" />
<glyph unicode="T" glyph-name="T" horiz-adv-x="530" d="M295 21Q288 21 256 23T167 27Q146 28 134 33T121 64Q121 67 121 73T123 90Q124 113 126 148T133 230Q140 323 142 370Q143 390 146 411T159 450Q107 446 42 441Q25 442 25 474Q25 510 29 558T39 667Q44
688 64 687Q83 686 111 683T179 673Q217 667 245 664T293 659Q301 659 309 659T327 658Q341 658 358 658T394 660Q414 661 431 661T461 662Q471 662 479 662T494 661Q533 659 530 616L521 448Q519 420 496 420Q487 420 469 424T433 432T405 436Q387 436 384 379Q383
360 383 341T383 302Q381 275 367 276Q361 276 361 299Q361 314 362 330T366 361V385Q329 369 309 370Q276 373 260 389T238 431T230 485Q228 511 203 515Q199 516 189 517T160 519Q117 521 70 555V527Q70 520 66 507T61 488Q61 482 70 480Q78 480 97 481T136 483T168
484Q196 484 197 454Q193 450 180 450Q179 439 177 423T172 384Q181 380 194 368T223 333Q231 322 266 302Q280 294 289 282T305 256Q309 247 307 234Q306 228 305 222T304 210Q304 200 309 183T315 154Q315 103 267 66Q277 65 285 65T299 65Q340 65 349 87Q351
93 356 182Q356 187 358 200T365 224T373 236Q380 230 380 205Q380 191 377 165Q376 151 376 144T375 136Q375 125 375 106T377 67T377 37Q376 21 295 21Z" />
<glyph unicode="U" glyph-name="U" horiz-adv-x="640" d="M319 6Q188 6 124 67Q68 120 54 246L39 487Q33 526 24 601Q23 629 53 631Q64 632 82 632T120 631T150 631Q161 632 183 636T228 644T259 648Q271 648 283 637T296 614V612Q296 604 281 601L283 594Q283
586 283 573T282 541Q281 505 282 487Q283 473 283 462T284 441Q284 410 279 408Q272 424 260 504Q248 584 250 599Q240 599 214 602Q203 604 194 604T178 604Q159 602 130 600T62 594L64 585Q80 580 101 562Q106 558 122 557T165 555Q197 555 217 536T238 482Q238
447 210 420Q179 391 181 355Q182 345 188 330T200 301T207 276Q210 228 139 228Q108 228 82 238Q99 145 149 98Q151 143 181 160L240 178Q275 189 284 221Q276 244 275 283V298Q275 324 282 325Q284 324 286 301Q289 261 301 241Q309 229 323 224T357 220Q375
221 385 237T395 272Q395 283 392 302T386 342T382 375L371 586Q367 659 416 662Q464 665 503 665Q531 665 555 664T599 661Q617 660 618 644Q618 633 614 609T610 567Q610 542 615 503T623 411L627 321Q630 266 630 247Q630 107 553 77Q544 60 519 47T463 26T401
13T353 7Q344 6 336 6T319 6ZM403 47Q441 53 477 67Q472 68 470 72Q470 84 523 93Q536 102 547 112T566 136Q568 138 570 141T576 147Q577 139 575 130T569 109Q603 133 603 254Q603 270 597 390Q589 396 580 402T561 409Q555 409 543 405T523 400Q486 398 461
423T434 487Q433 498 438 513T451 550Q459 570 462 586T465 615V620Q456 621 443 621T412 621Q399 620 396 609Q395 605 396 585L407 388Q409 372 413 349T423 294H426Q436 294 453 299T478 305Q496 305 513 296T543 271T556 237Q559 196 517 179L440 155Q401 137
401 95Q401 70 402 58T403 47Z" />
<glyph unicode="V" glyph-name="V" horiz-adv-x="663" d="M234 14Q221 14 211 24T201 49Q202 78 232 78Q254 78 290 69Q297 109 320 124Q364 153 366 157Q372 169 382 184T399 223Q407 249 416 270T443 304T492 317Q508 317 527 314Q638 575 635 605L532 609Q494
589 494 549Q494 539 497 525T508 493Q521 461 521 443Q521 418 503 402T460 386Q416 386 391 423Q384 404 373 376T348 310Q349 300 349 292T350 276Q350 271 348 258T342 234T332 222Q316 223 303 316Q297 358 273 436Q261 475 253 504T242 553Q241 574 233 591T201
609Q189 609 169 608T128 607T95 606Q102 598 114 589T143 569Q160 558 172 550T190 534Q211 512 209 477Q209 468 204 452T198 427Q198 418 206 403T230 364Q261 316 261 285Q261 221 196 206Q210 170 210 153Q209 138 199 138Q180 140 167 170Q160 187 150 216T127
285Q116 323 106 352T86 400Q81 410 71 433T49 487T25 546T7 598T0 627Q2 665 58 665Q70 665 91 664T143 658Q169 654 188 653T220 650Q262 648 272 607Q283 564 300 501T340 353Q354 394 373 456T420 599Q424 610 426 617T430 627Q438 638 456 638Q484 639 531
637T646 628Q653 638 668 638Q688 638 688 628Q688 617 676 598L659 569Q597 457 547 330T446 66L438 40Q435 30 432 26T425 19Q419 17 333 15Q293 14 268 14T234 14Z" />
<glyph unicode="W" glyph-name="W" horiz-adv-x="981" d="M608 9Q576 9 575 28Q574 38 560 100T516 278Q508 295 499 317T482 367Q482 382 494 393T522 406Q545 406 572 232Q599 58 622 58H633Q650 58 674 56T732 53Q754 55 761 65T774 95Q763 91 752 90T730 87Q698
87 670 101T624 140T607 198Q607 212 613 235T620 271Q620 278 613 292T599 324T592 358Q592 395 618 419Q606 452 588 554Q584 550 570 543T533 525Q502 510 492 493T476 443Q471 411 458 399T409 386Q404 386 398 386T385 388Q373 327 373 329Q373 320 380 303T387
277Q388 246 350 244Q343 244 337 259T326 297T319 338T316 364Q316 383 325 383Q330 381 335 373T341 364Q346 371 358 420Q362 436 365 451T372 483L402 612Q406 631 424 638Q428 640 437 640T460 641Q471 641 494 644T540 651T573 654Q593 654 603 641Q609 634
615 611T628 560T639 508T645 475Q653 429 661 395T675 340Q679 365 685 403T702 491L710 593Q715 653 751 653Q776 653 799 653T844 654Q876 654 904 654T959 652Q995 651 997 630Q997 621 986 596Q965 549 941 481T891 323Q863 223 840 154T803 46Q798 32 776
22T715 12Q713 12 686 11T608 9ZM274 0Q239 0 230 40Q224 66 208 105Q198 131 192 147T184 170Q165 227 135 311T63 508Q61 514 54 526T35 558Q14 590 14 608Q14 635 50 636Q66 636 90 637T145 643Q186 648 212 649T254 650Q270 650 272 645T275 616Q275 607 280
587T290 546T295 515Q295 500 289 500Q277 500 265 548Q253 596 242 596L160 594Q137 593 117 593T79 593Q76 592 76 586L90 557L108 559Q112 560 115 560T122 560Q166 560 204 528Q248 492 248 438Q248 427 246 412T236 380Q222 343 222 333Q224 297 257 268L320
218Q355 184 355 140Q355 92 325 50H411Q427 50 434 66Q436 69 437 76T440 97Q428 103 418 125T402 171T395 207Q395 239 431 240Q440 240 450 232T469 217Q471 227 474 237T479 258Q486 292 493 292Q505 292 505 251Q505 240 502 215T491 148Q484 104 478 77T469
40Q457 2 410 2L274 0ZM852 317Q900 463 924 537T949 613Q942 620 920 619L869 617Q907 607 909 563Q909 530 886 510T829 488Q804 488 786 502T768 541Q768 547 770 559T772 578Q772 582 768 594T760 607L759 605Q756 599 751 577T740 527T730 475T724 442L754
445Q795 445 810 426T832 372Q841 333 852 317ZM308 430Q292 430 292 459Q292 469 300 469L313 464Q319 460 319 451Q319 447 316 439T308 430Z" />
<glyph unicode="X" glyph-name="X" horiz-adv-x="699" d="M680 -2Q670 -2 664 4Q651 2 636 1T603 -1Q596 -1 588 -1T572 0Q532 2 511 3T485 5Q450 12 431 14T409 21Q405 32 401 48T391 86Q390 94 382 110T365 143T354 164L312 77Q282 14 256 16L191 20Q174 19
152 19T103 19Q83 19 61 19T13 20Q-13 20 -13 40Q-13 68 12 69Q14 75 28 97T64 150T110 215T158 280T198 334T222 364Q179 431 145 489T78 597Q77 599 72 604T57 620Q43 635 44 645Q49 677 85 674Q93 674 110 668T146 656T174 649Q186 649 213 648T267 646T306
645Q323 645 326 635Q332 617 342 591T365 529Q379 549 408 614Q417 635 459 635Q471 635 493 634T555 633Q580 633 600 633T636 634Q666 634 681 631T696 613Q696 607 638 531Q607 490 590 468T571 441Q561 423 550 406T528 371Q495 323 472 323Q452 323 452 340Q453
345 458 353T473 372L501 400Q445 424 445 478Q445 521 483 552Q518 581 521 602Q508 603 498 603T480 603Q443 603 433 579Q411 520 391 492T359 465Q340 467 340 479Q340 484 343 493T353 513L323 583Q302 620 268 622Q251 623 226 623T169 624Q197 596 209 554Q221
511 232 500Q243 489 287 468Q329 448 345 429Q368 400 368 357Q368 283 320 248L237 209Q194 187 192 139V125Q191 84 171 52L236 48Q261 47 308 142Q355 237 362 236Q371 236 382 228T392 212Q385 197 370 183Q372 182 403 120Q417 136 420 143Q421 146 421 157T425
184T440 210Q455 225 476 225Q492 225 506 215T520 189Q520 181 514 168T507 147Q507 141 513 131T527 109T534 84Q534 70 528 58T511 36L539 34L650 30Q643 48 575 159Q512 263 512 272Q513 276 516 276Q520 276 535 258T571 211T616 151T659 89T691 40T703 16Q700
-2 680 -2Z" />
<glyph unicode="Y" glyph-name="Y" horiz-adv-x="668" d="M283 -15Q242 -15 229 -1T215 54Q215 70 216 94T219 150Q221 182 222 206T223 246Q223 268 211 284T185 316Q172 337 151 372T101 456Q28 580 31 591Q9 595 9 616Q9 630 21 638T50 649T76 653Q92 653 116
651T173 645Q205 641 229 639T270 637Q296 637 300 621Q302 613 313 586T343 514Q379 429 379 428Q379 396 352 396Q326 396 309 455Q287 439 255 439Q230 439 213 453T195 491Q195 498 197 510T200 529Q200 540 190 557T181 591Q133 591 80 588Q159 485 213 377Q225
381 243 381Q275 381 300 359T325 304Q325 289 343 275Q357 265 365 259T377 248Q387 238 391 223T395 187Q395 73 264 73L263 53V50Q263 34 280 34Q288 34 303 34T344 35Q364 36 380 36T408 36H412Q427 36 432 46Q435 52 435 74Q435 88 435 110T433 162Q430 221
430 249Q430 298 442 323Q420 363 420 413Q420 442 440 473Q459 502 459 522Q459 533 455 556T450 591H440Q425 591 412 554Q399 517 377 517Q368 517 368 532Q368 543 379 571L395 611Q402 636 451 636Q478 636 535 648Q591 660 620 660Q681 660 681 632Q681 607
577 439Q472 270 472 262Q472 224 481 152Q490 79 490 42Q490 -13 442 -13Q433 -13 413 -11T381 -9Q371 -9 352 -10T313 -13T283 -15Z" />
<glyph unicode="Z" glyph-name="Z" horiz-adv-x="649" d="M32 -7Q-13 -8 -13 31Q-13 71 17 74Q21 74 25 74T35 72Q41 81 57 110T96 178T143 259T187 338T220 399T233 425Q228 434 192 434Q181 433 164 431T125 423Q104 418 89 415T63 411Q37 411 35 471Q34 506
34 528T33 561Q31 632 46 638Q63 644 85 644Q99 644 120 643T152 642Q201 644 250 647T349 652Q402 655 445 655Q474 655 499 654T547 651Q576 650 578 637Q571 626 522 623L458 619L460 609Q461 606 461 603T461 597Q461 576 448 557T415 527T371 515Q335 515
294 561Q254 606 216 606H174Q169 607 164 607T154 607Q80 607 77 542L89 543Q102 544 115 541T140 530Q164 512 175 512Q214 509 235 472L258 484Q272 492 282 492Q295 492 307 481T320 458Q320 441 267 391Q297 355 297 325Q297 308 285 289T247 253Q246 252
237 243T210 216Q191 195 167 193Q165 193 163 193T157 192Q153 192 150 192T141 194Q128 171 107 139T57 66Q71 62 89 60T129 59Q167 100 236 133Q309 167 363 167Q450 167 536 69Q567 73 573 122Q575 141 576 160T577 198Q570 198 560 198T539 199Q521 199 499
198T448 197Q427 197 411 200T383 211Q369 191 361 191Q346 191 345 210Q346 218 354 235T379 281L378 291Q377 301 382 314T391 339T395 357Q396 364 391 371T377 387Q358 406 358 419Q358 440 373 452T409 465Q435 465 444 442Q453 417 455 417Q502 530 546 586T631
646H633Q644 646 644 633Q643 603 623 576T584 528Q555 496 535 472T499 422T461 355L403 243L447 246Q457 247 466 247T484 247Q510 247 534 245T582 239Q583 253 597 253Q620 253 625 206Q625 204 625 196T626 171L629 46Q629 17 600 17Q588 16 559 18T502 22T459
24Q424 23 371 19T246 8Q174 1 121 -2T32 -7Z" />
<glyph unicode="[" glyph-name="bracketleft" horiz-adv-x="462" d="M111 -81Q96 -81 93 -71H89Q82 -71 78 -65T74 -52Q78 70 80 172T82 355Q82 378 80 429T74 559Q73 590 72 620T58 680L36 737Q36 738 36 738T35 740Q35 746 40 751T52 756H268Q278 756 282 746Q296
745 304 740Q327 725 338 725Q342 725 361 737T413 749Q435 749 433 720V653Q433 649 434 633T435 609Q434 588 422 588Q420 588 411 591T394 595L347 598H342Q336 601 334 601Q332 599 332 598Q321 600 322 601Q324 615 327 617T343 620Q359 618 374 617T405 615Q411
615 411 618V619Q411 622 409 629T407 640Q407 642 407 647T408 663Q370 640 341 643Q338 643 335 643T329 644Q303 644 301 624Q300 600 269 590Q268 498 268 419T267 272Q267 217 267 170T268 85Q311 86 329 85Q340 84 348 84T362 84Q370 86 377 86T390 86Q397
86 402 86T411 84Q416 82 416 66Q416 42 415 32T413 22Q413 17 414 1T415 -30T416 -50Q416 -71 402 -77Q398 -79 390 -79Q386 -79 381 -79T367 -77Q345 -75 334 -74T320 -72Q314 -72 300 -73T270 -75T247 -77Q231 -77 211 -66Q197 -65 187 -65T170 -64Q147 -81
111 -81ZM108 76L167 79Q159 103 159 125Q159 154 169 191T204 272Q208 279 221 288T239 307V583Q233 582 228 582T216 582Q149 582 108 629Q105 607 105 574Q105 570 137 564Q168 558 182 532Q205 488 205 451Q205 413 185 387T135 340Q111 322 111 316Q111 216
108 76Z" />
<glyph unicode="\" glyph-name="backslash" horiz-adv-x="931" d="M659 -19Q651 -19 639 -13T625 -1L605 54Q595 82 573 110L525 170Q507 194 468 243T369 367Q304 444 220 541T31 757Q25 763 25 768Q25 776 34 776Q78 772 103 771T136 769Q142 769 173 770T261
776Q285 778 296 745Q313 699 320 688Q397 582 450 523T523 441Q534 428 616 331T853 55Q864 46 880 32T917 -1Q924 -8 924 -14Q924 -19 914 -19H659ZM667 18H784Q820 18 820 41Q820 51 809 64L516 412Q502 422 480 430T447 446Q390 486 350 517T287 572Q248 614
248 648Q248 666 258 690Q265 707 269 719T274 739Q198 730 166 730Q149 730 129 733Q102 737 83 739Q121 695 189 607T372 403Q376 399 441 372Q481 356 521 333T592 276T631 196Q636 172 605 166Q573 160 573 158Q573 157 574 156Q612 110 632 85T657 55Q664
46 667 18Z" />
<glyph unicode="]" glyph-name="bracketright" horiz-adv-x="472" d="M186 -80Q176 -80 172 -70Q158 -69 150 -64Q128 -49 116 -49Q112 -49 93 -61T41 -73Q19 -73 21 -44V23Q21 27 20 43T19 67Q20 88 32 88Q34 88 43 85T60 81L107 78H112Q118 75 120 75Q122 77
122 78Q133 76 132 75Q130 64 128 60T111 56Q95 58 80 59T49 61Q43 61 43 58V57Q43 53 44 46T47 36Q47 34 47 29T46 13Q84 36 113 33Q116 33 119 33T125 32Q151 32 153 52Q154 76 185 86Q187 178 187 257T187 404Q187 460 187 506T186 591Q143 590 125 591Q117
592 111 592T99 592Q91 592 83 591T66 590Q59 590 54 590T43 592Q36 593 38 618L41 654Q41 659 41 675T39 707T38 726Q38 747 52 753Q56 755 64 755Q69 755 74 755T87 753Q109 751 120 750T134 748Q140 748 154 749T184 752T207 753Q223 753 243 742Q257 741 267
741T284 740Q307 757 343 757Q357 757 361 747H365Q371 747 375 742T380 728Q376 606 374 504T372 321Q372 298 374 247T380 117Q381 86 382 56T395 -4L417 -61Q418 -62 418 -65Q418 -70 413 -75T402 -80H186ZM346 47Q349 70 349 102Q349 107 319 111Q286 117 272
144Q249 188 249 225Q249 265 269 289T319 336Q343 354 343 360Q343 461 346 600L287 597Q295 573 295 551Q295 523 282 487T249 404Q246 397 233 388T215 369V93Q221 94 226 94T238 94Q305 94 346 47Z" />
<glyph unicode="^" glyph-name="asciicircum" horiz-adv-x="429" d="M343 481Q338 481 333 487Q316 507 313 528Q312 540 286 549Q277 552 262 573L240 603Q235 608 228 614T210 631Q196 620 196 611Q196 605 205 599T212 592Q177 560 152 560Q143 560 137 566Q133
570 128 570Q119 570 107 558Q93 544 62 539Q66 533 71 528Q78 517 79 515Q81 517 108 539Q124 552 125 552Q127 551 129 550T134 546Q135 545 131 540T122 533Q118 531 113 524T96 511Q93 509 85 497Q81 492 77 493Q76 494 70 502T51 523Q46 529 40 538T25 557Q18
566 18 571Q18 576 24 580Q30 585 45 593T86 614Q119 630 128 656Q131 666 153 679Q168 688 175 693T184 700Q193 709 204 719T228 739H232Q242 739 247 731L261 711Q264 714 267 714Q271 714 274 710T282 699Q282 698 282 698T283 697Q283 694 281 690T273 677L271
671L272 670Q284 656 292 656Q299 656 304 665T311 674Q347 640 347 614Q347 605 341 600Q337 597 337 592Q337 583 350 570Q358 563 363 552T372 526Q374 528 376 530T383 536Q393 544 396 544Q392 547 369 572Q356 586 356 588Q356 590 358 592T361 598Q363 599
368 595T375 586L399 562Q402 560 412 552Q417 549 417 543Q416 542 410 536T389 517Q382 511 374 505T356 488Q349 481 343 481Z" />
<glyph unicode="_" glyph-name="underscore" horiz-adv-x="844" d="M283 -152Q268 -152 254 -152T226 -151Q221 -151 221 -149Q221 -147 229 -138T238 -124Q238 -104 143 -104Q130 -104 120 -123Q110 -141 88 -143Q77 -144 67 -144T47 -145Q39 -145 32 -145T17
-143Q3 -141 3 -128Q3 -122 6 -110T9 -95Q9 -93 8 -78T4 -46T2 -25Q2 -9 13 -6Q15 -5 20 -3T36 0Q39 1 44 1T57 1Q69 1 86 1T128 -1Q183 -3 213 -4T249 -5Q260 -6 282 -5T336 -3Q407 0 437 0Q462 0 479 -1T506 -5Q536 -12 558 -16T594 -20Q604 -20 653 -9T788 3Q843
3 838 -24V-86Q838 -91 841 -103T844 -123Q844 -151 798 -146L738 -140Q722 -138 704 -138T663 -137H616Q612 -136 607 -136T597 -136Q593 -136 589 -136T579 -137Q551 -136 551 -134Q556 -134 557 -127T575 -117Q577 -117 580 -117T587 -116Q610 -116 623 -117T641
-118Q649 -118 680 -119T767 -122Q783 -122 783 -117Q783 -115 779 -109T772 -98V-95Q772 -92 772 -88T774 -77Q678 -99 600 -95Q592 -94 584 -94T569 -94Q501 -94 498 -114Q490 -152 283 -152Z" />
<glyph unicode="`" glyph-name="grave" horiz-adv-x="203" d="M158 646Q154 648 151 649T142 655Q133 663 122 673T96 697Q90 701 92 705Q95 711 102 711Q108 711 116 707Q124 705 130 699T140 687Q148 674 153 669T161 662H162Q165 662 169 671L174 682Q163 687
156 692T140 720Q134 736 116 749Q105 757 89 759Q71 761 61 763T47 766Q32 772 23 781Q21 771 26 759T46 740Q58 735 66 735Q72 735 80 739Q81 740 85 740Q90 740 97 737Q122 727 112 721Q104 714 89 714Q80 714 71 717Q48 725 38 727T29 729Q14 735 7 747T0 773Q0
782 3 789Q22 836 31 845Q36 850 43 850Q46 850 48 850T54 848Q58 847 77 834Q152 788 194 725Q195 723 196 721T198 717Q203 710 203 705T203 696Q196 656 184 650Q168 642 158 646Z" />
<glyph unicode="a" glyph-name="a" horiz-adv-x="497" d="M170 -20Q118 -20 83 4T28 70T9 161Q9 220 43 264Q81 314 156 336Q173 340 197 346T254 360H256Q257 365 257 370T258 382Q258 387 258 392T257 402Q254 432 250 439Q242 446 233 446Q207 446 212 399V396Q212
383 197 383Q172 386 147 386Q122 386 98 383T47 375H45Q33 375 31 390Q22 553 243 567Q250 568 256 568T269 568Q348 568 390 535Q410 519 424 494T443 433Q445 419 448 383T454 291Q455 264 457 229T465 155T480 84T504 28Q508 23 502 17Q497 12 489 12L332 20Q325
20 325 34Q325 54 346 52L466 42Q429 77 424 156Q423 189 423 222T423 289Q423 300 414 300Q412 300 407 299T391 294Q380 290 371 290Q365 290 363 291Q309 317 309 373Q309 404 328 432Q334 441 334 452Q334 479 294 510Q259 538 245 536Q167 531 120 505Q93
490 93 474Q93 457 124 441Q140 417 181 413Q184 476 234 476Q261 476 273 462T287 427T290 384Q290 341 274 334Q266 330 253 326T220 318Q177 309 165 306Q156 303 134 294T94 273T75 247Q75 238 97 228Q123 215 140 195T158 142Q158 129 155 114T144 80Q140
70 122 67Q104 64 106 56Q110 43 136 26Q162 9 179 11Q256 16 280 71Q285 82 297 82Q316 82 310 65Q308 58 301 48T281 21Q237 -20 170 -20ZM235 90Q204 90 185 113T166 167Q167 197 183 220T224 259T275 283Q277 284 283 284Q288 284 295 283T313 280Q342 274
342 267Q342 263 347 256T363 236Q383 211 383 191Q383 164 366 152T323 140H305Q298 140 296 138Q283 90 235 90ZM230 122Q268 122 268 162Q268 173 267 194T265 246Q199 216 198 167V162Q198 146 207 134Q216 122 230 122Z" />
<glyph unicode="b" glyph-name="b" horiz-adv-x="512" d="M306 -12Q253 -12 202 36Q200 29 196 21T183 13L21 8H17Q-5 8 -5 21Q-5 28 10 58Q17 72 21 84T26 104Q30 142 36 225T48 436Q49 453 49 480T46 545Q45 588 43 613T38 648V650Q38 657 44 665T55 673Q77
671 95 670T126 669Q133 669 139 669T149 670Q178 673 197 673T227 674Q234 674 238 669T242 658L238 542Q275 565 316 565Q418 565 462 455Q487 390 487 297Q487 238 477 187T448 94Q400 -12 306 -12ZM172 44Q166 67 166 79Q166 99 180 99Q188 99 240 76Q269 63
291 58T331 52Q370 52 391 64Q412 76 412 93Q412 109 396 121T354 133Q314 133 270 104Q253 93 241 93Q199 93 194 180Q192 221 191 244T190 272L202 382Q205 412 223 439T275 466Q295 466 308 454T322 424Q322 411 328 381Q337 338 340 320Q351 255 380 255Q410
255 410 303Q410 323 403 343Q399 347 391 361T375 389T368 410Q368 422 379 427Q398 435 406 447T415 470Q415 482 404 493T379 504Q372 504 355 498T327 494Q321 495 302 511Q284 526 276 526Q274 526 266 519T249 504T230 497Q212 497 195 516T166 561T154 603Q154
612 156 622T158 634Q158 640 151 640Q145 640 138 640T122 639Q113 639 103 639T82 640L77 515Q81 496 93 496Q103 496 127 517Q151 538 158 538Q164 538 168 523T174 486T177 446T178 421Q178 379 167 331T132 241T65 180L63 98Q66 72 72 67T102 58Q120 56 137
53T172 44ZM251 124Q262 124 269 140T281 180T288 229T292 275T293 302Q293 310 293 331T289 376T279 417T260 435Q239 435 233 380L221 272Q221 267 222 244T226 179Q229 124 251 124Z" />
<glyph unicode="c" glyph-name="c" horiz-adv-x="486" d="M261 -12Q204 -12 148 16T55 91Q4 156 4 276Q4 398 78 475Q163 563 261 563Q386 563 471 443Q473 441 473 438Q473 425 402 378L370 348Q350 329 328 328Q323 328 303 351Q283 374 261 374Q238 374 223
358T201 320T194 277Q194 255 199 233T219 195T261 179Q285 179 304 206Q321 230 329 227Q340 220 357 209T400 183Q421 173 442 163T476 145T487 131Q453 57 394 23T261 -12ZM188 34Q192 34 198 42Q203 48 206 55T214 69Q192 75 174 90T135 124Q129 130 129 139Q129
146 134 161T138 185Q138 194 108 195Q86 196 78 206T70 235Q70 277 119 302Q132 307 144 313T170 325Q196 406 261 406Q341 406 341 446Q341 462 328 482T296 517T261 532Q238 532 222 519T195 487T175 449Q156 407 142 388Q135 379 120 379Q117 379 113 379T104
381Q98 383 93 383T83 383Q71 383 64 379Q55 373 49 353T39 310T35 276Q35 193 78 130T185 35Q186 35 186 35T188 34ZM353 38Q360 38 372 48T396 71T416 98T425 117Q425 125 413 135T383 156T351 172T328 179Q327 143 313 129Q312 128 302 122T271 104Q301 104
317 79Q322 72 325 65T332 50Q343 38 353 38Z" />
<glyph unicode="d" glyph-name="d" horiz-adv-x="500" d="M192 1Q147 1 111 24Q67 53 46 95T17 187T7 285Q6 293 6 301T6 316Q6 374 19 423Q38 498 75 537T171 576Q189 576 211 569T241 553Q250 543 250 535Q250 529 245 527Q240 525 234 528Q219 535 205 540T173
545Q124 545 95 512T47 417L46 413Q46 409 48 406T53 397Q66 380 66 378Q98 314 98 261Q98 236 88 223T66 196Q54 182 57 171Q69 130 85 100T125 54Q130 51 134 51Q138 51 147 58T166 72T185 80Q189 80 200 79T225 75T246 73Q271 73 282 87Q290 96 295 96Q304 96
318 55Q329 66 329 88Q329 96 327 111T322 143T320 170Q320 200 340 223T391 247Q413 247 428 231L417 350L409 601Q372 579 356 579Q334 579 327 619Q321 649 276 657L280 592V589Q280 576 269 576Q258 576 255 592L244 671V675Q244 688 259 688H344L419 696Q455
701 455 671Q455 660 449 637L440 602Q440 509 446 318Q450 280 455 228T465 109Q466 71 493 41Q493 40 493 40T494 38Q494 34 489 30T478 25L308 23Q296 23 288 46Q242 1 192 1ZM237 104Q212 104 201 125Q197 133 187 172Q180 180 172 188T156 204Q126 234 120
272Q118 280 140 315Q162 348 160 357Q155 378 136 403Q120 423 122 440Q127 485 173 485Q172 485 172 485T174 485H173Q166 485 237 479Q242 479 269 498Q285 509 296 513T313 517Q334 517 353 498Q370 482 373 462T377 420Q377 334 294 317L301 194Q306 104 237
104ZM247 137Q272 137 269 192L259 394Q256 448 232 448Q214 448 207 412T200 326Q200 318 201 297T205 248T213 196T226 154T247 137Z" />
<glyph unicode="e" glyph-name="e" horiz-adv-x="534" d="M261 -11Q203 -11 156 12T74 75T22 165T4 271Q4 396 98 490Q172 564 265 564Q346 564 403 525T490 423T520 285Q520 269 519 253T501 238Q421 249 377 254T324 260Q316 261 283 262T193 265Q192 261 192
256T192 247Q192 163 261 163Q288 163 304 188Q322 217 330 215Q346 212 368 209T422 200Q434 199 450 193T478 185Q494 184 494 163Q494 113 434 57Q361 -11 261 -11ZM191 35Q207 35 223 60Q242 90 258 105T295 128T351 144Q409 157 409 162Q409 168 393 172T360
180T338 183Q324 155 302 142T249 132Q245 133 227 131T189 127T163 125Q122 125 122 180Q122 219 143 259Q162 297 179 297Q189 297 200 297T221 298Q260 298 305 295T399 284Q409 283 422 289T446 305T456 323Q456 329 452 333Q428 357 416 374T403 404Q403 406
404 413T407 434Q408 437 408 440T408 445Q408 456 404 463Q390 489 355 509T284 532Q266 534 252 513T224 470Q223 466 223 463T222 456Q222 438 239 426T272 414Q301 415 332 403Q370 388 370 362Q370 345 358 330T333 315L193 327Q171 335 148 339T102 344Q59
344 47 325T35 270Q35 198 68 138T158 46Q178 35 191 35ZM314 348Q303 383 274 383Q239 383 221 356L314 348Z" />
<glyph unicode="f" glyph-name="f" horiz-adv-x="298" d="M64 -5Q58 -5 53 -1T49 10Q68 42 63 82L61 326L46 425L28 424H26Q14 424 12 439L8 522V525Q8 538 22 538L40 539Q39 547 39 553T39 567Q39 604 45 620Q57 657 102 672Q147 687 184 684L247 679Q271 678
271 627Q271 618 270 607T267 583Q266 567 253 567Q207 564 201 561Q201 560 201 552T202 528Q222 531 236 531Q269 531 270 515L274 453V450Q274 438 259 436L237 435L242 258L259 21V18Q259 4 244 4H162L65 -5H64ZM98 28L183 34Q219 37 219 127Q219 149 216 159L198
233Q193 253 191 269T188 295Q188 313 195 323Q209 343 209 391Q209 405 208 419T205 449Q206 465 220 465L242 467Q241 490 226 503T188 516Q172 516 171 531L170 547Q169 579 188 589Q197 594 235 597Q234 614 219 632T186 653Q182 654 179 654T172 654Q148 654
119 642Q77 624 72 592Q71 591 117 574Q162 558 160 536Q158 508 149 500T113 487Q97 484 84 480T59 471Q57 469 57 469Q57 466 66 456T76 442L87 360Q120 373 136 373Q167 373 167 347Q167 339 155 313Q144 289 144 278Q144 266 161 226Q175 192 177 178Q181 148
157 125T104 83Q101 81 101 61V38Q99 29 98 28Z" />
<glyph unicode="g" glyph-name="g" horiz-adv-x="495" d="M237 -170Q163 -170 126 -151Q98 -137 84 -110T66 -42V-40Q66 -26 81 -25L236 -11H239Q252 -11 253 -26Q253 -45 262 -45Q275 -45 275 -5Q275 2 275 10T273 29Q272 34 272 40T272 52Q232 24 185 24Q93
24 45 115Q6 187 6 288Q6 368 36 440Q86 556 177 556Q225 556 262 530Q264 538 265 542T267 547Q272 558 281 558L430 563Q466 565 466 545Q466 546 448 489L449 328L460 143Q463 101 464 68T465 8Q465 -8 465 -21T463 -44Q459 -80 431 -108T365 -151Q315 -170
237 -170ZM466 545V545Q466 545 466 545ZM373 265Q413 265 413 319Q413 349 400 379T364 430Q348 445 348 453L363 475Q378 498 378 510Q378 528 348 528Q344 528 339 528T328 526L294 527Q283 486 273 486Q272 486 241 506Q213 524 178 524Q148 524 148 506Q148
503 152 485T157 452Q157 442 152 431T138 408Q175 408 178 419Q193 471 237 471Q277 471 287 422Q295 383 320 309Q340 265 373 265ZM242 145Q252 145 260 158T267 191L259 395Q258 440 234 440Q216 440 208 411Q204 394 202 371T200 316Q200 309 200 290T203
246T209 198T222 160T242 145ZM381 18Q431 18 431 67Q431 104 411 142Q392 178 374 178Q356 178 352 141Q347 103 299 103Q247 103 212 132Q211 133 207 133Q205 133 196 129T175 119T155 114Q137 114 122 132T97 188Q94 200 121 246Q147 292 143 302Q136 317 128
335T110 377L60 330Q37 304 37 277Q37 251 48 214T80 140T128 80T188 56Q214 56 234 66T274 96Q281 103 288 103Q300 103 302 86Q302 85 329 67Q356 49 356 37V33Q356 28 353 20Q363 19 370 19T381 18ZM256 -139Q287 -138 310 -121T333 -69Q333 -53 327 -34Q320
-40 312 -47T293 -65Q283 -77 261 -77Q231 -77 223 -43Q222 -44 215 -49T193 -66Q173 -81 173 -91Q173 -105 225 -111Q231 -111 236 -118T245 -132T256 -139Z" />
<glyph unicode="h" glyph-name="h" horiz-adv-x="463" d="M409 -5Q372 2 343 5T292 8Q281 8 271 8T249 6H248Q242 6 238 11T235 23Q244 100 247 150T252 223L256 393Q257 430 246 430Q234 430 231 408Q224 353 219 316T211 256Q210 238 196 238Q185 238 170 248T144
273T129 303Q128 311 127 318T125 333Q99 317 85 284T64 214T56 149Q54 107 73 77T126 41L179 33Q175 39 170 48T157 69Q150 87 150 101Q150 106 153 123T164 169Q173 203 191 203Q206 203 208 162Q209 137 209 115T209 74V15Q209 -2 192 1Q102 17 10 22Q-5 22
-5 29Q-5 32 2 43T16 68T23 92L50 362Q53 400 57 475T69 661Q70 668 61 683T51 707Q53 724 68 721Q111 714 134 711T163 707Q168 707 189 708T248 711Q254 711 258 706T263 694L246 543Q285 564 316 564Q346 564 381 546T432 503Q449 478 449 431Q449 420 448 403T444
363Q441 336 438 302T429 227Q427 216 421 216Q416 216 411 221T405 232L408 299Q322 301 322 374Q322 404 345 499Q348 512 341 520T325 529Q301 529 247 472H250Q279 472 284 437Q284 409 286 382T305 320Q321 286 323 277Q324 272 324 267T325 257Q325 238 320
218T306 177Q285 124 288 80Q289 71 300 59T327 38T359 29Q395 29 400 85Q399 90 394 97T375 111Q350 126 350 143Q350 157 361 177Q378 194 400 194Q429 194 427 179Q428 161 427 119T426 9Q426 -8 409 -5ZM135 416Q150 450 185 464Q186 472 189 482T199 502Q213
523 220 568T230 681Q171 679 135 687Q138 668 138 655Q138 632 124 632H119Q116 633 114 633Q102 633 100 613Q97 589 94 557T87 485Q87 472 103 453T135 416Z" />
<glyph unicode="i" glyph-name="i" horiz-adv-x="249" d="M110 625Q98 625 89 629Q-10 674 -4 738Q4 816 42 823Q46 824 50 824T58 825Q62 825 66 825T74 823Q79 828 88 828Q99 828 117 822Q155 809 177 781T199 711Q199 686 185 672Q163 650 145 638T110 625ZM107
654Q134 651 153 670T173 717Q173 732 165 749T143 780T114 795Q106 794 95 794T70 794Q57 789 36 778Q41 780 47 780T60 780Q65 780 70 780T82 779Q102 777 117 762T132 726Q132 719 129 709T116 682Q109 669 107 654ZM16 -4Q4 -4 2 11Q2 18 13 30T24 49Q23 276
21 307Q20 327 18 369T10 476Q10 482 5 493T-5 517T-11 537Q-11 544 -7 549T4 554Q44 552 66 551T93 549Q98 549 121 552T186 560Q192 560 197 556T202 545Q202 530 202 509T204 460Q205 430 206 409T207 377Q207 368 200 351T193 324Q194 315 203 299T214 274Q216
199 220 52L242 19Q243 18 243 16Q243 2 227 3Q213 5 199 5T169 5Q99 5 18 -4H16ZM156 307Q156 313 156 320T157 334L172 528Q92 502 86 503Q59 508 59 476Q59 465 63 457Q77 429 81 403T86 355Q88 351 116 337Q142 324 156 307ZM96 29Q119 29 128 38T146 67Q154
85 189 83V114Q189 149 187 183T172 250Q168 198 128 198Q119 198 103 201T81 204Q77 204 73 202L60 79Q55 29 96 29Z" />
<glyph unicode="j" glyph-name="j" horiz-adv-x="242" d="M80 -168Q73 -168 66 -168T50 -166L-11 -156Q-26 -153 -26 -139L-23 -58Q-23 -41 -8 -43Q5 -44 29 -33Q31 135 38 477Q38 483 28 502Q18 521 18 527Q20 557 65 556L212 553Q227 553 227 537Q226 485 223
435T216 338Q208 243 207 234Q207 208 210 184Q212 170 212 158T214 133Q214 133 212 91T207 -35Q206 -64 202 -90T183 -135T134 -162Q106 -168 80 -168ZM74 -137Q92 -137 112 -132T150 -116T171 -84Q171 -83 128 -62Q84 -41 87 -21Q94 19 120 34Q131 39 141 43T162
53Q183 66 181 108L177 191Q146 182 132 182Q99 182 99 206Q99 211 105 220T124 244Q148 270 148 282Q148 297 125 333Q114 351 109 363T104 380Q106 411 132 430Q145 440 159 448T185 469Q189 473 190 496Q192 520 195 523L110 524Q84 524 72 471Q69 456 67 443T65
419Q65 415 65 411T66 403L76 335Q82 296 82 276Q82 263 80 253T73 237Q46 207 46 161Q46 129 62 71Q78 11 77 -14L76 -31Q74 -64 55 -71Q46 -75 7 -75Q7 -86 12 -96T26 -117Q37 -130 47 -133T74 -137ZM127 643Q77 643 57 673Q38 701 38 727Q38 752 65 765Q65 775
79 781T109 791T133 795Q153 795 169 784Q215 753 213 724Q210 677 191 660T127 643ZM171 674Q190 684 192 702Q195 747 165 761Q141 773 124 773Q113 773 105 768Q100 763 93 757T77 745Q74 741 71 734T63 718Q73 730 86 739T116 748Q138 748 151 733Q158 725
161 704T171 674Z" />
<glyph unicode="k" glyph-name="k" horiz-adv-x="438" d="M33 -7Q27 -7 22 -3T18 8Q29 33 33 55T37 99L29 313L31 435L20 600Q-5 649 -5 654Q-5 666 10 666L193 673Q209 673 209 657L215 487L225 529Q233 559 247 559L382 563Q397 563 397 545Q397 525 369 444Q368
438 365 422T356 387T345 355T332 341Q324 341 324 372Q324 377 324 383T325 397Q289 417 289 440Q289 459 305 481Q308 485 319 493T342 512T362 531L288 517Q264 526 267 526Q260 526 251 499L218 383Q199 316 160 316Q139 316 122 339T105 401Q105 412 113 432T138
482Q157 514 167 535T179 567Q183 586 185 598T187 615Q187 642 145 640L50 636Q60 623 69 610T88 583Q95 574 97 562T100 537Q100 527 91 461T62 270Q67 257 71 246T80 223Q89 198 98 184T114 164Q118 160 118 154Q118 143 108 109Q97 70 97 55Q97 27 123 27Q155
29 174 48Q199 73 197 116L192 244Q192 262 208 262Q220 262 223 248L238 172L278 33L399 37Q251 110 251 221Q251 280 289 307Q303 317 317 317Q339 317 355 290L383 176L435 27Q436 25 436 21Q436 16 433 12T423 7Q349 7 308 4L267 1Q249 -1 240 43Q237 57 234
71T229 100L232 16Q232 9 228 4T217 -1Q201 -1 187 -1T161 0Q144 0 131 0T107 -2L34 -7H33Z" />
<glyph unicode="l" glyph-name="l" horiz-adv-x="273" d="M35 27Q19 27 19 43Q19 51 25 67T32 91Q31 243 31 325T30 418Q30 437 29 489T23 627Q23 632 16 646T2 675T-5 693Q-5 701 9 701Q59 699 87 698T120 697Q125 697 146 698T202 704H203Q209 704 213 700T218
689Q216 589 216 506T215 358Q215 339 217 298T226 191Q228 166 230 142T244 93L266 47Q266 46 266 46T267 44Q267 40 262 36T251 31L35 27ZM118 60L217 62Q201 83 188 83Q107 88 107 164Q107 173 108 190T109 216Q109 241 101 255Q91 273 85 287T79 314Q79 341
107 357Q115 362 128 366T158 376Q186 385 186 388Q186 414 186 442T185 499Q185 540 185 583T187 673L151 667Q136 664 118 664Q91 664 25 670Q31 667 46 662T85 648Q114 639 132 622T150 572Q150 546 136 509T92 423Q88 417 76 410T58 394L63 99Q63 82 80 71T118
60Z" />
<glyph unicode="m" glyph-name="m" horiz-adv-x="638" d="M608 -11L548 -9Q527 -5 515 -4T499 -2L426 -5Q420 -5 416 0T411 12L421 178L422 312Q422 387 421 391Q420 397 415 397Q409 397 407 392Q406 389 404 370T400 313L389 137L390 17Q390 11 385 7T374 2L320
8L218 3H217Q211 3 207 8T203 19L214 176L213 311Q214 333 214 355T212 403Q210 403 208 404Q195 404 194 376V342L184 136L182 20Q182 5 166 5L90 8L11 10Q-5 10 -4 26L18 317Q20 350 21 376T23 423Q23 470 15 498T-5 555V557Q-5 562 0 566T11 570L117 560Q167
552 167 545Q167 538 155 535T137 532L26 538Q29 530 40 521T65 501T86 475Q102 443 105 376Q107 335 69 216Q50 154 40 111T28 41L121 33L152 36L157 189Q104 187 104 230Q104 258 123 291T162 343Q153 360 153 381Q153 407 166 427T201 447Q226 447 252 418Q288
378 306 344T325 279Q325 246 311 209T264 131Q235 93 235 68Q235 45 257 45Q268 45 286 53T320 73T341 93Q343 101 345 110T349 128L369 194V314Q369 368 373 383Q379 406 388 417T414 428Q428 428 440 432T466 444Q483 455 494 455Q516 455 523 424Q523 417 523
404T524 372Q524 356 505 347Q469 331 456 313T443 252Q443 235 446 214L443 26L546 23Q577 22 577 44Q577 64 546 83L527 91Q505 100 492 113Q474 131 474 151Q474 179 488 222T528 326Q579 442 580 440Q572 529 487 529Q451 529 421 502Q388 472 385 472Q379
472 374 481Q376 449 357 425T310 400Q292 400 254 447Q217 493 206 493Q201 493 195 486T181 479Q165 479 165 490Q165 495 173 506T191 527T203 541Q240 569 289 568Q302 568 322 560T361 539T389 515Q431 561 488 561Q544 561 576 535T608 453Q608 443 607 426T604
384L598 313L601 81L616 40Q621 27 622 18T624 4Q624 -11 608 -11Z" />
<glyph unicode="n" glyph-name="n" horiz-adv-x="469" d="M29 -11Q22 -11 16 -6T13 3Q27 20 32 33T38 54Q37 51 37 67T36 117L32 287L17 468L-9 530Q-11 534 -11 536Q-11 543 -3 543Q59 542 89 542T115 541Q137 543 159 549T186 556Q195 556 199 541T204 509T206
484Q200 473 191 473Q177 473 177 492V524L113 513Q96 514 83 503T70 475Q70 456 90 436Q127 399 127 375Q127 349 93 334Q75 333 54 325L58 225Q113 200 113 126Q113 65 72 22L153 52Q177 40 181 40Q195 40 195 70Q195 75 195 81T193 96L157 173Q151 187 149 205T146
245Q146 257 146 271T147 304Q147 327 152 349T170 394Q178 408 185 418T199 432Q207 437 221 439Q226 440 231 440T240 440Q251 440 260 439T279 437Q276 451 276 463Q276 487 291 511L305 535Q305 541 291 539Q270 538 256 533T230 506L229 504Q226 504 225 517Q225
530 228 533Q244 549 258 559T289 570Q369 573 400 519Q423 478 423 394V306L436 145Q438 120 440 105T444 86L471 50Q475 45 476 41T477 32Q477 15 399 15L267 14Q252 14 250 29L234 345Q231 398 227 407Q226 408 222 408Q221 407 220 407T217 406Q215 403 215
381Q215 373 215 362T216 336L233 15Q233 9 229 4T218 -1Q181 1 160 1T133 1Q128 1 103 -2T30 -11H29ZM307 38H377Q371 79 371 98Q371 121 381 121H386Q389 120 391 120Q403 120 404 147L407 204L392 393Q379 382 364 377Q365 373 365 369T365 360Q365 301 275
155Q277 132 280 110T285 64Q290 41 307 38Z" />
<glyph unicode="o" glyph-name="o" horiz-adv-x="537" d="M266 -12Q185 -12 105 43Q4 111 4 268Q4 323 23 374T78 465T161 529T267 553Q348 553 401 519T490 415Q506 385 514 351T523 276Q523 200 493 134T406 28T266 -12ZM266 19Q253 41 253 75Q253 121 282 147Q277
148 273 148T266 148Q238 148 216 166T180 213T167 277Q167 281 158 285T139 295T126 307Q123 315 123 326Q123 361 143 393Q154 410 196 410Q206 410 220 409T248 407T266 406Q309 406 337 366Q335 395 334 424T330 483Q323 522 267 522Q234 522 209 500T159 455Q129
427 109 409T80 379Q40 328 40 276Q40 262 47 242T65 203T88 173Q94 168 102 163T122 153Q158 140 158 105Q158 100 157 91T155 77Q155 62 168 51T199 33T236 23T266 19ZM266 179Q292 179 312 206T333 277Q333 297 326 319T305 358T266 374Q243 374 228 358T206
320T199 277Q199 234 219 207T266 179ZM413 83Q414 83 416 85Q492 161 492 276Q492 278 490 278Q490 278 461 260Q431 241 411 241Q383 241 364 272Q365 255 366 238T368 203Q368 175 362 161Q383 150 396 117Q409 83 413 83Z" />
<glyph unicode="p" glyph-name="p" horiz-adv-x="499" d="M50 -179Q44 -179 38 -170T33 -154Q41 -131 43 -106T44 -56Q40 87 35 215T19 456Q18 465 15 477T4 503Q-11 532 -11 540Q-11 554 14 553L176 548Q187 548 195 524Q221 549 248 560T301 572Q410 572 452
441Q466 400 473 360T480 278Q480 233 462 152Q459 125 443 79Q398 -4 308 -4Q266 -4 232 18L238 -156Q238 -163 234 -168T223 -173Q209 -173 195 -173T168 -172Q124 -172 91 -175L50 -179ZM130 282Q182 304 188 381Q194 467 234 467Q249 467 263 457Q295 436 332
436Q354 436 363 448T372 480Q372 505 350 519T295 534Q276 534 255 526T209 500Q166 467 163 467Q158 467 158 477Q158 489 165 516Q148 511 131 508T96 502Q71 499 65 494T56 462L59 380Q130 348 130 282ZM254 125Q266 125 272 142T282 184T285 229T286 258Q286
265 285 285T282 330T274 380T262 421T244 437Q222 437 219 382Q217 341 216 317T215 288Q215 283 218 256T226 180Q232 125 254 125ZM267 35Q278 35 293 49Q311 64 320 66Q331 68 348 62T373 56Q385 56 397 67T409 91Q409 111 372 133Q362 139 362 150Q362 163
377 187Q386 202 391 209T396 218Q402 233 402 250Q402 269 397 286T381 320Q359 353 340 353Q319 353 323 307Q324 299 324 291T325 273Q325 195 310 147Q296 103 222 80Q230 64 240 53T264 36Q265 36 265 36T267 35ZM146 -139Q181 -137 191 -133Q207 -127 205
-101L197 74Q182 71 168 71Q93 71 85 134Q71 115 71 14Q71 -5 71 -28T73 -77Q78 -76 83 -76T92 -75Q145 -75 146 -139Z" />
<glyph unicode="q" glyph-name="q" horiz-adv-x="515" d="M435 -216Q388 -210 345 -209T262 -207Q245 -207 247 -190L258 23Q224 1 182 1Q96 1 50 84Q40 103 30 122T17 163Q15 175 14 191T13 226Q13 241 13 257T15 293Q21 412 71 494Q97 537 130 557T200 577Q221
577 238 573T270 559Q272 558 280 550T304 527Q306 534 310 542T323 551L485 553Q511 553 511 540Q511 532 496 503Q480 473 479 458Q478 450 473 405T458 279Q452 226 449 182T445 103Q444 66 443 12T442 -111Q442 -132 445 -151T452 -191V-193Q452 -200 446 -208T435
-216ZM390 299Q394 361 438 381L442 463Q439 490 433 495T403 504Q385 507 368 510T334 519Q336 509 337 501T338 487Q338 464 322 464Q316 464 300 470T258 489Q204 514 174 515Q86 519 86 477Q86 460 104 447T151 434Q171 434 192 441T235 462Q250 471 263 471Q305
471 309 384Q311 351 338 329Q348 321 390 299ZM238 130Q260 130 267 184Q274 233 276 260T280 292Q282 303 277 386Q274 441 253 441Q242 441 234 424T221 382T213 329T209 281T208 252Q208 202 215 166T238 130ZM341 -174Q377 -174 384 -132Q385 -127 388 -104T395
-39Q401 23 420 46Q414 77 410 106T402 161Q401 172 399 190T392 233Q376 222 366 215T350 202Q328 183 326 169Q317 93 245 93Q218 93 198 107T177 143Q177 148 176 159T172 185Q168 207 166 222T161 247Q150 312 121 312Q91 312 91 262Q91 253 92 244T97 225Q99
221 116 194Q131 170 131 157Q131 146 120 140Q83 121 83 98Q83 85 94 74T119 63Q126 63 143 68T171 72Q179 71 198 54Q219 37 226 41Q236 47 246 53T265 68Q272 75 278 75Q293 75 291 57L281 -136Q279 -161 295 -167Q300 -169 311 -171T341 -174Z" />
<glyph unicode="r" glyph-name="r" horiz-adv-x="341" d="M59 1Q43 1 43 16Q43 136 43 200T42 274Q41 294 38 348T28 491Q28 499 9 515Q-9 531 -11 540Q-11 547 -7 552T4 557Q19 556 34 556T64 555Q117 555 171 561H174Q186 561 186 551Q186 532 162 532Q147 531
124 531T68 530Q67 530 63 530T52 531Q30 531 30 526Q30 520 57 500L59 458Q91 499 116 499Q161 499 165 393Q177 422 208 422Q241 422 285 391L280 543Q258 536 242 519T211 473Q207 464 200 464Q189 464 189 479Q189 482 191 488Q196 502 215 539Q247 573 293
577H296Q310 577 310 562Q309 551 309 541T309 519Q309 479 311 444T317 377V374Q317 361 302 361Q269 360 253 353T232 330T227 282Q227 275 227 262T226 228Q225 208 225 193T224 166Q225 131 227 97T234 28V26Q234 15 219 12L147 1H59ZM74 33L146 36Q150 49
153 61T160 87Q173 122 200 121L196 230Q170 280 163 321Q162 311 158 284T148 226T134 173T118 150Q97 150 70 237Q68 215 67 194T66 150Q66 116 68 87T74 33Z" />
<glyph unicode="s" glyph-name="s" horiz-adv-x="441" d="M214 -10Q191 -10 161 -6T100 8T45 34T11 75Q8 83 77 130Q142 174 151 174Q153 174 154 173Q158 166 169 152T192 126T212 114Q245 114 245 146Q245 159 227 180Q222 186 142 233Q84 267 60 303Q32 344
37 406Q42 461 65 495T140 549Q162 557 187 562T242 567Q277 567 315 558T383 526T423 465Q412 459 390 449T344 427T298 407T267 399Q265 399 264 400Q250 438 237 438Q223 438 223 409Q223 385 237 374Q254 360 319 326Q365 302 391 270T417 183Q417 158 409
136Q383 63 333 27T214 -10ZM292 438Q292 438 326 459Q339 467 361 473Q378 478 376 481Q349 533 260 533Q218 533 171 521Q180 506 185 463Q199 477 222 477Q239 477 254 468T286 441Q289 438 292 438ZM255 199Q251 207 251 218Q251 241 270 256T321 272Q327 272
333 272T345 270Q301 292 259 320T177 377Q149 397 147 408Q140 406 129 404T102 399Q76 396 76 395Q75 364 100 364Q105 364 118 365T138 366Q160 366 182 352T204 313Q204 289 151 263Q186 243 212 227T255 199ZM216 21Q294 21 332 53Q298 63 274 125Q268 95
225 79Q213 75 194 70T148 60Q108 53 108 48Q108 44 119 39Q160 21 216 21Z" />
<glyph unicode="t" glyph-name="t" horiz-adv-x="303" d="M170 6Q145 7 116 12T63 32T32 75Q31 80 31 88T30 109Q30 128 31 155T35 220Q45 382 47 438L30 439Q14 440 15 456L21 539Q23 554 38 553L55 552V562Q56 566 56 570T56 578Q56 608 42 634V635Q42 641 47
645T59 649L136 640L237 636Q253 636 252 620L246 539L269 537Q286 535 283 520L273 459Q270 443 242 443Q235 443 227 444T210 447Q206 407 202 369T193 293Q187 206 187 163Q187 150 187 142T189 129Q191 128 204 127T240 123Q257 121 254 106L245 55Q246 50
246 45T246 36Q246 13 229 7Q226 6 170 6ZM172 37Q189 39 205 57T222 93Q203 95 192 97T175 101Q156 110 158 143L164 294L180 463Q182 480 197 478Q198 477 207 476T221 474Q250 474 251 507Q249 507 241 506T227 504Q209 504 209 520Q209 523 211 531Q217 554
217 572Q217 609 188 609H154L91 615Q96 607 101 600T111 586L150 552Q170 530 170 515Q170 510 165 498T145 468Q116 430 116 418Q116 408 136 380Q157 350 157 341Q157 319 126 319Q108 319 70 334L65 250L63 232V226Q63 219 66 217Q68 218 72 218Q93 218 108
199T132 156T141 116Q141 84 103 84Q81 84 58 101Q63 67 104 49Q140 32 172 37Z" />
<glyph unicode="u" glyph-name="u" horiz-adv-x="482" d="M160 -1Q117 -1 92 14T55 56T40 114T36 182V432Q36 483 31 491Q25 502 18 510T6 528Q2 534 1 538T0 546Q0 564 79 560L211 553Q228 551 227 538L213 314L221 223Q220 215 221 204T223 180Q226 153 234
153Q243 153 248 179L245 230L253 368L245 551Q245 557 249 562T261 567Q298 563 319 561T346 559Q351 559 377 561T449 567H452Q466 567 466 554Q466 552 465 551Q440 517 438 510Q437 507 437 489T436 438V87L459 25Q462 18 460 15Q457 11 452 11Q442 12 429
13T398 16Q374 19 354 19Q333 19 310 14T283 8Q270 8 267 46Q266 57 266 66T266 81Q272 91 281 91Q296 91 295 72L293 40L357 47Q390 44 390 75Q390 98 366 123Q332 158 332 184Q332 212 368 225Q377 226 387 227T407 232L408 332Q359 357 359 426Q359 492 405
535L323 510Q300 523 295 523Q277 523 281 468Q288 450 295 432T310 396Q321 368 321 337Q321 324 320 306T316 265Q316 213 288 170Q279 157 272 148T257 133Q248 127 235 127Q200 127 199 185Q199 192 171 210Q140 229 136 239Q120 277 110 305T99 354Q99 393
132 406Q142 410 158 412T196 413Q195 421 195 430T197 453L199 489Q199 519 183 520Q113 526 104 526Q78 526 73 520Q67 511 66 466Q66 459 66 450T65 430Q65 420 65 409T66 384L67 338V182Q83 198 106 198Q141 198 160 171T179 111Q179 85 163 60L146 35Q146
31 160 31Q182 31 185 32Q193 34 202 42T222 61Q223 62 224 62Q226 62 226 51Q226 26 205 13T160 -1Z" />
<glyph unicode="v" glyph-name="v" horiz-adv-x="401" d="M190 -7L96 -5Q82 -5 80 8L41 252L14 390L-19 531Q-19 533 -19 534T-20 536Q-20 550 -4 550L68 547Q72 547 90 549T139 555H141Q153 555 155 542Q163 469 174 378T199 176Q222 177 229 189Q234 199 247
209T279 231Q293 239 302 239Q306 239 312 237L321 321Q275 346 275 460Q275 498 281 529L232 527Q231 505 228 468T223 379Q222 348 211 348Q202 348 202 366V543Q202 556 217 558Q236 557 258 557T306 556Q308 557 321 558T360 563Q379 563 376 545L350 376L352
321L332 201L320 17Q318 3 305 3L251 2L190 -7ZM82 163Q99 201 138 201Q163 201 178 182L157 323Q141 287 109 287Q67 287 67 354Q67 373 92 430Q106 462 114 485T126 523L46 520Q26 520 26 486Q26 478 27 465T31 433L45 338L82 163ZM108 27L181 30L151 66Q141
78 129 85T104 96L94 100L108 27Z" />
<glyph unicode="w" glyph-name="w" horiz-adv-x="668" d="M74 9Q61 9 59 23L17 338L-18 549Q-18 550 -18 551T-19 553Q-19 558 -14 562T-1 567Q37 565 58 564T83 562Q88 562 106 563T157 567H160Q173 567 175 553Q176 545 181 503T197 385L220 553Q222 568 238
567L294 562L390 567H393Q406 567 408 553L426 405Q431 440 436 477T452 554Q455 567 469 567L560 569L627 567Q648 567 645 549L614 339L598 277L572 23Q570 8 554 9Q513 13 489 14T460 15Q455 15 429 15T355 9H353Q340 9 337 22Q331 50 327 82T317 151L314 136Q308
106 303 80T290 31Q282 8 263 9Q238 11 214 12T166 13Q143 13 121 12T77 9H74ZM536 332L538 338Q540 343 542 354T545 385Q546 404 548 417T552 438Q559 463 586 463Q590 463 594 463T603 461L613 535Q591 537 578 538T561 540Q557 540 538 539T484 535Q482 524
479 505T471 458Q468 442 489 418Q505 400 517 378T536 332ZM65 189Q79 237 97 245Q123 257 144 264T183 275L160 442Q137 432 117 432Q71 432 71 481Q71 504 85 530L13 535L42 367L65 189ZM370 40L481 44Q486 44 501 43T544 40L559 145Q504 228 442 271Q443 267
443 264T443 259Q443 236 429 236Q419 236 417 250L412 290Q296 316 296 373Q296 426 392 448L381 535H342L318 484Q295 455 241 443Q236 405 229 364T213 278Q222 278 229 277T243 272Q249 268 262 258T298 228Q300 239 301 250T303 271Q305 286 317 286Q330 286
333 268L346 190Q380 169 406 171Q440 174 462 157Q480 143 480 117Q480 94 463 77T415 59Q393 59 365 70L370 40ZM176 40H231Q259 40 265 63L269 80Q263 81 258 81T247 81Q196 81 176 40Z" />
<glyph unicode="x" glyph-name="x" horiz-adv-x="410" d="M357 -7Q353 -7 347 -7T333 -6L228 0Q214 2 213 13Q213 21 213 34T211 63Q209 71 207 82T200 109Q194 85 187 62T174 16Q171 4 158 5L74 15Q6 13 6 33Q6 44 24 68Q37 86 66 181L97 300L83 396L47 552Q47
554 47 555T46 557Q46 564 51 568T63 571Q104 567 137 564T197 561Q211 561 212 548L224 450Q232 482 239 506T250 546Q253 559 266 557L325 548Q330 547 339 547T362 546Q372 546 383 546T408 547Q417 547 421 541T422 526L342 284L363 168L398 23Q406 -7 357
-7ZM109 408Q140 424 195 426Q193 446 190 472T182 531L82 538L102 465L109 408ZM242 31Q256 141 339 143L320 207L311 281V289L386 517L343 520Q348 442 274 442Q270 442 265 442T255 444L249 424Q268 420 285 410T303 377Q303 373 301 367Q299 362 290 353T271
336T259 322Q258 319 258 316T257 310Q257 295 270 279Q283 263 283 243Q283 221 265 203T223 183Q223 163 226 122Q228 108 232 86T242 31ZM148 94Q159 94 168 111Q173 131 178 150T188 190Q135 212 121 268L74 129Q94 127 118 111Q141 94 148 94Z" />
<glyph unicode="y" glyph-name="y" horiz-adv-x="383" d="M50 -205Q44 -205 39 -201T34 -190L36 -157L30 -106Q29 -91 44 -89T88 -85Q121 -82 121 -23Q121 -5 118 8L85 139L46 257L-27 524Q-28 526 -28 530Q-28 544 -13 544Q25 543 61 545T133 551H136Q146 551
149 539L174 399L191 327L196 540Q196 555 210 555Q221 555 258 557T356 563H358Q364 563 368 559T372 546L329 171Q328 152 327 123T324 52Q320 -27 310 -76T287 -145Q257 -189 178 -199L50 -205ZM146 -169Q241 -164 269 -127Q271 -125 271 -122Q271 -117 253
-107Q219 -88 208 -70T196 -9Q196 30 209 70T244 126Q253 133 286 149Q306 158 303 173Q290 238 283 285T276 364Q276 448 334 452L340 531Q327 530 309 529T266 526Q250 525 238 508T225 465L222 328L220 184Q220 166 204 166Q192 166 189 181L171 296L137 438Q107
439 92 453T65 493Q58 511 48 511Q43 512 33 512T8 513L67 282Q81 288 93 288Q116 288 132 271T157 226T171 168T177 110T179 67Q179 -16 166 -52Q156 -83 132 -95T60 -111L118 -133Q149 -148 146 -169Z" />
<glyph unicode="z" glyph-name="z" horiz-adv-x="346" d="M294 -10Q253 -6 229 -3T196 2Q189 3 145 4T21 9Q6 9 7 25Q10 78 16 141L98 306L148 422L63 428Q45 430 48 445L52 470Q54 484 55 504T56 550V551Q56 557 61 561T72 564Q138 556 202 552T333 546Q349 546
347 529L338 407L270 273L208 133L303 126Q321 125 318 110Q314 90 312 63T310 4Q310 -11 294 -10ZM146 453Q117 474 117 496Q117 514 135 529L86 532L80 458L146 453ZM72 188Q90 195 108 195Q124 195 134 189Q136 221 160 245T210 269Q226 269 233 259L264 314L308
418L312 478Q296 491 281 491Q254 491 254 451Q254 437 261 414T269 378Q269 355 258 340T230 325Q206 325 191 358Q188 365 186 379T179 413L72 188ZM225 26Q222 83 286 96L198 97Q182 97 157 127Q148 61 91 35L225 26Z" />
<glyph unicode="{" glyph-name="braceleft" horiz-adv-x="410" d="M366 -145Q283 -145 237 -125T171 -56T152 74Q152 75 153 89T156 131Q157 138 157 144T157 155Q157 180 150 199T122 244Q112 257 89 257H76Q72 256 70 256T65 256Q52 256 52 266L51 337L45 395Q43
406 73 409Q110 413 127 434T150 487T156 549Q156 612 160 661T182 746T244 799T366 818H392Q406 818 404 806Q401 775 401 747Q401 734 401 722T403 697V695Q403 684 390 684Q349 684 318 650Q307 638 303 565L297 463Q286 383 223 336Q257 312 272 289T292 238T299
168L306 27Q312 3 342 -1Q347 -2 359 -2T391 -3Q404 -3 404 -16Q402 -42 401 -57T400 -75Q400 -78 401 -92T404 -133Q404 -145 391 -145H366ZM104 306Q112 308 133 336Q154 365 173 365Q189 365 202 352Q263 395 272 466Q274 483 276 522T279 619Q279 629 274 653T269
692Q269 720 286 742T333 765Q357 765 379 746V793H366Q286 793 232 748Q184 708 182 661Q182 650 208 630Q233 611 233 578Q233 532 213 489T156 416T70 383Q70 299 104 306ZM366 -120Q354 -100 354 -81Q354 -56 379 -28Q374 -28 357 -33T321 -43T297 -48Q284
-48 274 -37T257 -11T248 14Q246 25 245 44T241 92Q240 104 242 123T249 169Q258 222 258 239Q258 275 219 308Q220 289 215 259T199 187Q187 143 182 115T177 74Q177 0 193 -42T250 -102T366 -120Z" />
<glyph unicode="|" glyph-name="bar" horiz-adv-x="290" d="M69 -71Q62 -71 58 -65T54 -52Q58 70 60 172T62 355Q62 378 60 429T54 559Q53 590 52 620T38 680L16 737Q16 738 16 738T15 740Q15 746 20 751T32 756H248Q264 756 264 737Q264 726 257 707T250 678Q249
588 249 506T248 350Q248 253 248 171T249 20Q249 8 263 -23Q276 -52 276 -61Q276 -72 263 -71Q213 -66 185 -65T151 -64Q146 -64 126 -65T70 -71H69ZM85 -48Q96 -47 120 -42Q128 -40 135 -39T149 -38Q163 -38 187 -40T247 -48L171 36Q139 80 139 125Q139 154 149
191T184 272Q188 279 201 288T219 307V679Q219 700 202 714T164 728H66Q82 700 83 687Q84 680 84 652T85 574Q85 570 117 564Q148 558 162 532Q185 488 185 451Q185 413 165 387T115 340Q91 322 91 316Q91 162 85 -48Z" />
<glyph unicode="}" glyph-name="braceright" horiz-adv-x="430" d="M18 -145Q4 -145 5 -133Q7 -115 8 -99T9 -68Q9 -56 9 -45T7 -24V-21Q7 -11 19 -11Q57 -11 91 23Q103 35 107 108Q108 134 109 159T112 210Q123 290 187 336Q153 360 138 383T117 435T110 504L103
645Q96 670 67 674Q62 675 50 675T18 676Q5 676 6 688Q9 714 9 729T9 748Q9 751 8 765T6 806Q6 818 18 818H43Q126 818 172 797T238 728T257 598Q257 597 256 584T253 542Q252 536 252 530T252 519Q252 494 260 474T287 428Q297 415 320 415Q324 415 332 416T344
417Q357 417 357 407L358 336L364 278Q365 268 336 263Q317 260 304 255T281 238Q268 222 261 194T253 124Q253 9 244 -27Q231 -80 201 -105T131 -138T43 -145H18ZM190 365Q189 383 194 413T210 487Q232 571 232 598Q232 674 217 716T161 775T43 793Q55 774 55
754Q55 728 31 701Q36 701 53 706T89 715T112 720Q136 720 146 699T161 658Q163 648 165 629T168 581Q169 558 160 505Q151 453 151 434Q151 398 190 365ZM30 -120H43Q122 -120 177 -76Q227 -35 227 12Q227 26 202 44Q176 62 176 95Q176 142 196 185T254 257T339
290Q339 374 305 367Q300 366 277 337Q254 308 236 308Q221 308 207 320Q146 277 137 206Q135 189 134 151T130 55Q130 50 132 36T137 7T140 -20Q140 -47 123 -70T76 -93Q53 -93 30 -73V-120Z" />
<glyph unicode="~" glyph-name="asciitilde" horiz-adv-x="525" d="M61 479Q52 479 54 489Q59 513 58 527T57 543L54 587Q56 593 57 594Q113 642 166 642Q196 642 244 620Q295 597 308 597Q322 597 343 612T398 652Q403 656 409 654Q414 652 414 645L411 595L414
547Q413 543 410 540Q352 491 304 491Q277 491 226 514Q174 537 162 537Q145 537 122 524T69 482Q66 479 61 479ZM72 509Q119 550 119 550Q148 571 178 571Q198 571 213 561T244 539Q279 510 304 510Q312 510 327 529Q335 540 348 553T378 566Q389 566 395 551Q395
611 383 611Q380 611 375 608Q355 595 339 587T308 578Q292 578 241 601Q190 624 166 624Q154 624 143 612T133 588Q136 571 103 551Q70 530 72 509Z" />
<glyph unicode="&#xa0;" glyph-name="uni00A0" horiz-adv-x="255" />
<glyph unicode="&#xa1;" glyph-name="exclamdown" horiz-adv-x="373" d="M165 347Q136 347 109 363T66 406T49 462Q49 493 71 517T124 556T184 570Q237 570 280 542Q324 507 324 469Q324 456 320 443T305 416L288 394Q290 390 290 389Q290 383 280 375Q231 347
165 347ZM128 393L134 397Q142 403 145 408T149 423Q149 426 149 429T148 437Q147 441 147 444T146 452Q146 475 165 493T213 511Q238 511 256 494T284 456Q287 494 249 524Q227 541 200 541Q181 541 124 524Q84 512 84 470V454Q85 449 85 445T85 439Q85 411 128
393ZM208 -100Q186 -100 163 -99T113 -95Q97 -93 88 -92T76 -89Q64 -82 67 -52Q70 -28 70 202Q70 209 69 224T67 255T66 281Q66 323 81 327Q96 332 146 332Q189 332 211 329Q221 329 234 319Q237 322 247 324T261 327Q283 327 287 263Q287 210 289 145T295 2Q299
-19 300 -33T302 -55Q302 -96 269 -98Q255 -99 240 -99T208 -100ZM241 -70Q273 -67 273 -25Q273 -20 273 -13T272 2Q267 60 261 123T246 255Q243 268 234 287Q230 289 222 290T203 294Q190 297 177 297Q170 297 165 297T153 295L126 291Q112 291 103 228Q128 224
143 209T166 170Q170 159 171 153T174 144Q179 134 190 122T213 90Q220 73 220 53Q220 49 220 45T218 35Q212 7 184 -21Q166 -39 170 -69Q199 -70 217 -70T241 -70Z" />
<glyph unicode="&#xa2;" glyph-name="cent" horiz-adv-x="549" d="M331 -26Q316 -24 300 -24T265 -24Q251 -24 236 -24T205 -25Q199 -23 195 -16Q199 -12 202 -7T209 6Q210 38 210 64T211 111Q211 127 211 140T210 163Q210 167 209 169Q151 190 99 251Q62 292
62 394Q62 439 76 473Q78 478 86 492T104 521T123 548T138 559Q143 559 143 554Q143 552 126 527Q131 528 135 528T143 529Q172 529 209 504Q248 478 271 479Q291 488 312 488Q321 488 337 486T363 484Q394 484 392 507L391 527Q381 521 365 521Q341 521 324 522T297
525Q258 533 248 558L219 555Q215 556 210 565L211 592Q178 580 160 556Q159 555 158 554T155 551L154 558Q153 595 209 615V626L210 761L197 781Q196 782 196 783Q196 786 199 788T206 790Q220 789 234 789T265 788Q281 788 298 788T332 790Q338 788 342 781Q338
777 335 772T328 758Q327 703 326 671T326 628Q417 621 417 598Q417 594 416 587T414 577Q414 567 416 548T420 511T422 480Q422 436 411 436Q410 436 402 440T378 452Q347 467 319 467Q238 467 238 388Q238 359 262 339T316 319Q349 319 381 344Q386 376 402 376Q432
376 432 355Q432 347 428 333T421 304T417 280Q417 272 421 253T429 216T433 192Q433 161 392 161Q388 161 372 160T327 156Q328 152 328 148T328 140Q328 140 328 106T327 4L340 -16Q341 -17 341 -18Q341 -21 338 -23T331 -26ZM234 640Q238 671 261 671Q267 671
279 668T295 667L305 741Q305 743 305 745T306 750Q306 772 284 772Q275 772 268 769T254 750Q249 739 228 741Q227 674 228 659L234 640ZM104 355Q118 355 133 362T158 382T169 408Q169 420 161 437T139 468T112 481Q101 481 94 464T83 427T79 398Q79 355 104
355ZM325 170Q383 175 407 186L410 265Q395 236 364 236Q356 236 342 240T320 245Q311 245 297 239T270 227T246 221Q222 221 209 233T191 263T184 302Q183 317 164 323Q161 324 132 324Q113 324 80 338Q104 234 200 189Q198 197 198 200Q200 205 208 210Q231 208
244 207T261 205Q264 205 278 206T318 210Q323 207 327 200L325 170ZM253 -7Q262 -7 269 -4T283 15Q288 26 309 24Q311 92 309 105L303 125Q299 94 276 94Q270 94 258 96T242 98L232 24Q232 22 232 20T231 15Q231 -7 253 -7Z" />
<glyph unicode="&#xa3;" glyph-name="sterling" horiz-adv-x="530" d="M485 -5Q473 -5 420 4Q402 7 373 9T313 14T254 17Q219 19 185 19T115 21Q108 -3 87 -3Q48 -3 48 29Q48 40 52 60T61 91Q70 120 72 153T74 226Q74 265 74 299T72 364H68Q63 364 57 346Q51 328
40 326Q34 325 29 325T19 325Q15 325 11 325T3 326Q-4 327 -4 341Q-4 349 -3 360T-1 373Q-1 376 -3 384T-5 398Q-5 415 13 422Q19 424 29 424Q35 424 43 424T61 422Q67 422 70 421Q70 432 70 442T69 463Q69 495 72 522T82 575Q94 616 122 639T189 671T265 681Q314
681 355 670Q390 661 410 633T431 582Q431 561 415 555Q406 552 388 562T351 586T324 601Q316 603 306 606T285 609Q273 609 262 602T242 575Q241 573 241 564T241 538Q241 510 230 495T189 480Q169 480 163 491T157 520Q157 529 157 538T159 558Q156 565 150 565Q142
565 132 555T113 531T105 504Q105 499 105 487T104 456Q103 446 103 437T103 419Q111 418 116 418T123 417Q129 417 149 418T190 421T220 422Q244 422 256 417Q261 415 265 414T273 410Q279 411 284 411T292 411Q288 419 286 429T284 450Q284 474 287 480Q290 491
290 507T291 537T298 550Q303 550 313 539Q315 538 315 518T317 469T318 409Q330 414 351 420T402 426Q431 426 428 399V338Q428 336 423 331T405 326Q403 326 400 326T394 327Q388 330 382 331T370 332Q360 332 348 330T322 328Q324 310 325 294T327 269Q327 262
327 255T325 242Q372 244 392 245T419 246Q427 246 444 245T471 243Q481 243 495 244T515 246Q541 246 541 197Q541 189 539 174T535 144T533 120Q533 106 535 80T538 41Q538 -5 485 -5ZM476 46Q492 47 495 68Q500 106 503 135T507 187Q507 210 425 210Q415 210
391 207T343 199T309 195Q262 195 262 243Q262 260 275 293Q266 297 250 309T218 336Q208 334 193 332T155 330Q128 330 123 334T117 345Q117 355 103 360Q111 252 162 231Q187 221 203 197Q208 186 212 174T220 151Q229 125 258 125Q266 125 283 132T318 145T347
152Q413 152 444 122T476 46Z" />
<glyph unicode="&#xa4;" glyph-name="currency" horiz-adv-x="520" d="M35 248Q28 248 23 253T18 263Q18 268 21 271Q28 279 36 298T68 350Q73 356 80 365T94 381Q58 420 58 487Q58 543 92 586Q79 601 68 615Q44 647 36 667T21 694Q18 697 18 702Q18 707 23 712T35
717Q45 717 54 709Q65 701 81 687T112 658T139 631Q161 645 186 653T242 661Q279 661 310 649T365 616Q371 625 382 634T400 648Q432 673 452 680T479 695Q482 698 486 698Q491 698 496 694T501 681Q501 672 494 662Q484 649 466 630T431 593T404 568Q424 533 424
492Q424 441 397 399Q402 399 404 397Q413 390 430 373T466 336T494 303Q501 293 501 284Q501 273 493 269T479 270Q472 277 452 284T400 317Q393 322 383 330T366 346T361 359Q339 343 309 334T242 324Q219 324 195 329T148 345Q141 336 124 319T87 284T54 256Q45
248 35 248ZM245 356Q317 356 357 403Q354 403 351 403T344 402Q329 402 320 409Q314 407 307 405T289 402H241Q224 402 197 413T150 443T129 486Q129 511 146 531T190 563T241 576Q271 576 293 562T326 525Q336 545 370 555Q356 578 325 594T263 610Q237 610 220
595Q203 587 186 579T150 561Q124 548 111 529T98 486Q98 453 125 435Q127 434 141 426T182 400Q187 397 194 392T212 375Q228 356 245 356ZM251 423Q280 423 296 443T312 489Q312 515 292 535T239 555Q211 555 189 535T166 487Q166 436 239 424Q242 423 245 423T251
423Z" />
<glyph unicode="&#xa5;" glyph-name="yen" horiz-adv-x="683" d="M286 2Q245 2 232 16T218 71Q218 87 219 111T222 167Q224 199 225 223T226 263Q226 285 214 301T188 333Q181 344 164 373T124 440T81 514T47 577T34 608Q12 612 12 633Q12 647 24 655T53 666T80
670Q96 670 120 669T176 663Q208 659 232 657T273 655Q299 655 303 638Q305 630 316 603T346 531Q382 446 382 445Q382 414 356 414Q328 414 312 472Q290 456 258 456Q234 456 216 470T198 509Q198 515 200 527T203 546Q203 558 193 575T184 608Q136 608 83 605Q162
502 216 394Q228 398 246 398Q278 398 303 376T328 321Q328 305 346 293Q374 274 386 257T398 204Q398 90 267 90L266 70Q266 51 283 51Q291 51 306 51T347 53Q387 54 411 53H415Q430 53 435 63Q438 69 438 91Q438 105 438 127T436 179Q433 238 433 267Q433 315
445 340Q423 380 423 430Q423 459 443 490Q462 519 462 539Q462 550 458 573T453 608H443Q428 608 415 571Q402 534 380 534Q371 534 371 550Q371 560 382 588L398 628Q408 653 454 653Q483 653 538 665Q594 677 623 677Q685 677 685 649Q685 626 580 456Q475 287
475 279Q475 243 484 169Q493 96 493 59Q493 4 445 4Q436 4 416 6T384 8Q374 8 355 7T316 4T286 2Z" />
<glyph unicode="&#xa6;" glyph-name="brokenbar" horiz-adv-x="290" d="M61 397Q60 425 58 465T54 559Q53 590 52 620T38 680L16 737Q16 738 16 738T15 740Q15 746 20 751T32 756H248Q264 756 264 737Q264 726 257 707T250 678Q249 603 249 534T248 400H219V679Q219
700 202 714T164 728H66Q82 700 83 687Q84 680 84 652T85 574Q85 570 117 564Q148 558 162 532Q185 488 185 451Q185 420 171 397H61ZM69 -71Q62 -71 58 -65T54 -52Q57 43 59 126T62 280H91Q91 138 85 -48Q96 -47 120 -42Q128 -40 135 -39T149 -38Q163 -38 187
-40T247 -48L171 36Q139 80 139 125Q139 154 149 191T184 272Q187 277 195 283H248Q249 207 249 142T249 20Q249 8 263 -23Q276 -52 276 -61Q276 -72 263 -71Q213 -66 185 -65T151 -64Q146 -64 126 -65T70 -71H69Z" />
<glyph unicode="&#xa7;" glyph-name="section" horiz-adv-x="445" d="M183 -176Q160 -176 130 -172T69 -158T14 -132T-20 -91Q-23 -83 46 -36Q111 8 119 8Q122 8 123 7Q126 1 137 -13T161 -39T180 -52Q214 -52 214 -20Q214 -7 196 14Q193 18 172 31T110 67Q51
102 29 137Q16 158 10 183T5 240Q10 296 33 328T108 383Q122 389 139 393T175 399Q120 432 97 467Q71 508 76 568Q81 624 103 657T179 711Q201 719 226 724T281 729Q317 729 355 720T422 689T462 627Q451 621 429 611T383 589T337 569T306 561Q304 561 303 562Q289
600 276 600Q262 600 262 571Q262 548 276 537Q284 530 304 518T359 488Q404 465 430 432T456 345Q456 320 448 298Q426 237 387 202T296 156Q339 133 362 100T386 17Q386 -9 377 -30Q346 -102 299 -139T183 -176ZM331 600Q331 600 365 621Q378 629 401 635Q417
639 415 643Q388 695 299 695Q257 695 210 683Q219 668 224 625Q238 639 261 639Q278 639 293 630T325 603Q328 600 331 600ZM294 361Q290 370 290 380Q290 403 309 418T361 434Q366 434 372 434T384 432Q340 455 299 482T216 539Q188 559 186 570Q179 568 168
566T141 562Q115 559 115 558Q113 526 139 526Q145 526 157 527T177 528Q198 528 220 514T243 476Q243 451 190 425L232 400Q237 399 243 399T255 398Q278 395 273 374Q280 370 285 367T294 361ZM212 203Q286 220 286 293Q286 309 283 319Q282 323 266 342L259
347Q249 334 243 326T231 316Q181 289 181 255Q181 242 186 229T206 208Q208 207 212 203ZM224 33Q220 41 220 52Q220 75 238 90T290 106Q296 106 302 106T314 104Q270 127 228 155T145 211Q119 230 116 242Q109 240 98 238T71 233Q45 230 45 230Q42 198 69 198Q74
198 87 199T107 200Q127 200 149 185T172 148Q172 122 120 97Q155 77 181 61T224 33ZM185 -145Q263 -145 301 -113Q267 -103 243 -41Q237 -68 194 -86Q181 -91 162 -96T117 -106Q77 -113 77 -118Q77 -122 88 -127Q108 -135 132 -140T185 -145Z" />
<glyph unicode="&#xa8;" glyph-name="dieresis" horiz-adv-x="381" d="M276 642Q226 642 206 672Q187 700 187 726Q187 751 214 764Q214 774 228 780T258 790T282 794Q302 794 318 783Q364 752 362 723Q359 676 340 659T276 642ZM70 642Q20 642 0 672Q-19 700
-19 726Q-19 751 8 764Q8 774 22 780T52 790T76 794Q96 794 112 783Q158 752 156 723Q153 676 134 659T70 642ZM298 655Q307 655 314 659Q351 683 345 716Q339 743 329 756Q326 761 322 764T314 768Q307 770 298 771T279 777Q275 780 268 780Q255 780 249 772Q246
766 246 763Q246 754 256 752T265 741Q264 734 257 725T250 708Q250 701 257 701Q266 701 279 706T304 714T314 711Q311 701 297 686T279 659Q288 655 298 655ZM85 657Q96 657 104 662Q118 668 133 684T146 712Q144 716 134 722T115 732T105 727Q105 717 102 700T93
682Q72 682 58 697Q51 705 48 726T38 756Q19 746 17 728Q14 683 44 669Q68 657 85 657Z" />
<glyph unicode="&#xa9;" glyph-name="copyright" horiz-adv-x="784" d="M392 15Q314 15 246 43T127 123T47 243T18 389Q18 463 46 530T125 650T241 733T382 763Q462 763 532 736T654 658T736 539T766 389Q766 311 737 243T657 124T538 44T392 15ZM392 89Q454 89
508 112T604 177T668 272T692 389Q692 450 670 504T607 599T514 665T399 689Q313 689 243 651T132 544T91 389Q91 326 114 272T179 176T274 112T392 89ZM421 173Q304 173 219 264Q183 303 183 397Q183 428 189 449T208 490T239 534Q252 551 259 551Q265 551 265
547Q265 545 247 522Q252 523 256 523T264 523Q293 523 331 500Q369 476 393 477Q415 485 435 485Q444 485 461 483T486 481Q518 481 516 503L515 521Q503 516 489 516Q432 516 409 522Q367 533 367 571Q367 581 370 591Q339 587 315 578T281 549Q279 545 276 544V551Q274
584 328 602Q348 609 370 613T415 617Q423 617 443 616T486 612T525 602T542 587Q542 585 540 578T538 568Q538 559 540 542T544 507T546 478Q546 437 535 437Q533 437 502 451Q469 465 442 465Q360 465 360 392Q360 364 384 346T439 327Q471 327 505 350Q509 381
526 381Q557 381 557 361Q557 350 549 327T541 290Q541 283 545 265T553 231T557 208Q557 180 516 180Q506 180 488 179T451 175T421 173ZM224 361Q245 361 267 376T290 411Q290 423 282 439T260 467T233 479Q222 479 215 463T203 429T199 401Q199 361 224 361ZM418
187Q496 187 532 203L534 276Q519 250 487 250Q480 250 466 254T443 258Q434 258 420 253T393 242T369 236Q344 236 331 247T313 275T306 311Q305 325 286 331Q283 332 253 332Q243 332 230 335T200 346Q212 299 243 263T320 207T418 187Z" />
<glyph unicode="&#xaa;" glyph-name="ordfeminine" horiz-adv-x="358" d="M127 355Q84 355 57 384T27 461Q26 500 48 530Q72 561 118 575Q128 577 142 580T176 589Q177 596 176 611Q174 628 173 631Q167 635 165 635Q153 635 155 610V608Q155 597 143 597Q136
598 129 598T115 598Q83 598 54 592H52Q41 592 41 604Q35 714 188 714Q234 714 261 693Q288 672 294 630Q297 614 300 545Q301 524 303 494T312 435T330 388Q333 383 328 378Q324 374 318 374L224 379Q217 379 217 390Q217 406 233 404L297 399Q279 420 276 463V543Q276
547 273 547L261 544Q248 539 242 542Q207 558 207 594Q207 605 210 614T219 631Q222 636 222 641Q222 656 200 674Q179 689 172 689Q127 686 98 670Q84 662 84 654Q84 647 95 634T122 620Q128 620 131 621Q134 659 165 659Q192 659 197 640T202 600Q202 572 191
568Q184 565 176 563T158 558L125 551Q104 544 89 535T73 518Q73 515 84 510Q123 490 123 455Q123 437 114 417Q111 410 99 407Q91 405 92 404Q93 398 108 388Q124 378 132 380Q176 382 190 414Q193 422 203 422Q219 422 214 408Q213 404 209 398T196 381Q168 355
127 355ZM166 421Q147 421 135 435T122 470Q123 494 140 513T189 543Q190 543 191 543T195 544Q201 544 213 541Q222 539 227 537T233 530Q233 529 235 526T245 513Q258 498 258 485Q258 451 219 451H205Q196 421 166 421ZM165 446Q183 448 183 468Q183 473 183
484T181 513Q147 496 147 470V466Q147 459 152 452Q157 446 165 446Z" />
<glyph unicode="&#xab;" glyph-name="guillemotleft" horiz-adv-x="673" d="M525 26Q518 26 513 36T506 52Q504 59 497 66T481 84Q479 91 474 95T468 101Q468 107 480 107Q482 107 489 99T504 81T513 68Q524 51 528 51Q530 51 534 57T540 66L554 77Q518 89 504
111Q492 129 478 129Q474 129 469 126T456 122Q440 122 422 135T386 175Q385 177 391 179T404 186T411 197Q411 216 396 223Q393 222 389 222Q370 213 364 213Q357 213 345 232Q344 233 344 233T344 234Q344 238 350 242Q342 250 337 255T328 263Q317 274 322 286Q332
294 345 305T376 332L407 366Q418 377 425 384T438 392Q455 395 469 406T496 435Q534 491 547 504Q553 510 560 510Q566 510 575 500Q582 493 591 483T611 462Q619 456 627 447T643 427Q643 421 636 417Q629 413 625 411T618 406Q611 402 604 395T588 379Q580 377
578 371Q573 366 571 366Q565 366 565 378Q565 380 582 397L602 413Q610 419 613 423T617 428Q617 430 612 433Q604 438 602 439T591 453Q581 418 559 401Q542 387 542 375Q542 371 546 365T550 352Q550 336 537 320T501 281Q500 280 497 285T490 297T479 304Q469
304 455 290Q460 283 467 273T483 249Q484 248 492 241T516 217Q539 195 540 184Q544 155 561 148Q568 146 580 139T603 123T613 105Q613 99 601 90Q593 84 584 76T562 56L544 38Q532 26 525 26ZM264 26Q259 26 253 37T245 52Q243 59 236 66T220 84Q218 91 213
95T207 101Q207 107 219 107Q221 107 228 99T243 81T252 68Q263 51 267 51Q269 51 273 57T279 66L293 77Q257 89 243 111Q231 129 217 129Q213 129 208 126T195 122Q161 122 126 175Q125 177 131 179T143 186T150 197Q150 215 136 223Q133 222 128 222Q104 211
100 214Q98 216 94 221T84 232Q83 233 83 234Q83 238 89 242Q81 250 76 255T67 263Q56 274 61 286Q71 294 84 305T115 332L146 366Q168 391 177 392Q194 395 208 406T235 435Q273 491 286 504Q292 510 299 510Q305 510 314 500Q321 493 330 483T350 462Q358 456
366 447T382 427Q382 421 375 417Q362 410 358 406Q352 400 344 394T327 379Q319 377 317 371Q312 366 310 366Q304 366 304 378Q304 380 321 397L341 413Q349 419 352 423T356 428Q356 430 351 433Q343 438 341 439T330 453Q320 418 298 401Q281 387 281 375Q281
371 285 365T290 352Q290 336 276 320T240 281Q239 280 236 285T229 297T218 304Q208 304 194 290Q199 283 206 273T223 249L255 217Q278 195 279 184Q283 155 300 148Q307 146 319 139T342 123T352 105Q352 99 340 90Q332 84 323 76T301 56L283 38Q271 26 264
26Z" />
<glyph unicode="&#xac;" glyph-name="logicalnot" horiz-adv-x="790" d="M562 8Q555 8 551 14T547 27Q549 99 551 164T554 287H546Q539 287 534 287T523 288Q464 288 461 268Q457 231 284 231Q272 231 261 231T237 233Q234 233 234 235Q234 236 240 244T247 259Q247
278 169 278Q159 278 150 260Q142 242 124 240Q87 239 66 240Q54 242 54 255Q54 261 56 272T59 287Q59 293 56 320Q55 333 54 342T53 355Q53 370 63 374Q65 375 69 376T81 379Q85 380 91 380T107 381Q116 381 128 381T157 379Q202 377 227 376T256 374Q276 374
328 377Q357 379 377 379T411 379Q431 379 445 378T467 374Q518 360 540 360Q548 360 588 372Q609 377 637 380T699 383Q741 383 741 364V355Q741 338 741 322T742 289Q743 283 744 274T745 260Q745 252 742 246V99Q742 87 756 56Q769 27 769 18Q769 7 756 8Q706
13 678 14T644 15Q639 15 619 14T563 8H562ZM578 31Q589 32 613 37Q621 39 628 40T642 41Q656 41 680 39T740 31L664 115Q632 159 632 204Q632 226 638 254Q640 264 643 274T651 295Q615 288 583 286L578 31Z" />
<glyph unicode="&#xad;" glyph-name="uni00AD" horiz-adv-x="521" d="M201 152Q193 152 186 152T171 154Q169 154 169 156Q169 157 173 165T177 180Q177 199 128 199Q123 199 117 181Q111 163 100 161Q94 160 89 160T79 160Q75 160 71 160T63 161Q56 162 56 176Q56
184 57 195T59 208Q59 210 58 225T56 257T55 276Q55 293 73 300Q79 302 89 302Q95 302 103 302T121 300Q149 298 164 297T183 295Q189 295 209 296T250 299T280 300Q304 300 316 295Q349 281 362 281Q367 281 392 292T462 304Q491 304 488 277V216Q488 213 489
199T491 177Q489 154 467 158L436 164Q431 166 425 166T412 166Q404 166 394 166T373 166Q369 168 362 168Q357 168 354 167Q340 167 340 170Q343 169 343 177T352 186Q354 186 358 186T368 186Q388 184 409 183T451 182Q460 182 460 186Q460 188 457 194T454 205V208Q454
211 454 215T455 225Q405 204 365 208Q361 209 357 209T349 209Q314 209 312 189Q309 152 201 152Z" />
<glyph unicode="&#xae;" glyph-name="registered" horiz-adv-x="784" d="M392 15Q314 15 246 43T127 123T47 243T18 389Q18 458 42 523T112 640T220 722Q264 743 304 753T382 763Q462 763 531 735T654 657T736 539T766 389Q766 311 737 243T657 124T538 44T392
15ZM393 88Q456 88 510 111T606 176T670 271T693 389Q693 445 674 496T619 589T536 654Q464 690 400 690Q336 690 280 668T182 605T116 509T92 389Q92 326 115 272T179 176T275 111T393 88ZM290 208Q226 208 226 239Q226 248 227 267T230 308T233 350T234 378Q234
394 234 418T233 476Q232 509 232 533T231 574Q231 595 260 595H386Q432 592 470 580T533 539T557 457Q557 383 494 362Q595 252 595 231Q595 223 590 218T576 215Q569 214 542 214T465 213Q459 213 448 211T430 208Q420 208 416 218T397 264Q382 300 382 305L385
310L389 313Q399 300 406 286T420 257Q427 238 438 234Q446 231 472 231Q480 231 489 231T508 232H526Q515 246 486 246Q449 246 437 267L421 313Q414 321 408 332T402 355Q402 400 444 400Q457 400 467 387L469 388Q474 388 480 378Q516 392 530 422Q511 426 501
427T489 430Q469 439 469 466Q469 490 490 506Q510 521 514 534Q500 551 474 561Q458 540 424 530Q389 520 378 498Q415 498 427 480H429Q436 480 436 466Q436 457 432 449V446Q432 437 426 434Q416 415 376 415Q361 415 357 434L353 466Q340 462 327 457T314 436Q314
427 324 409T334 379Q334 346 309 331T250 319Q250 311 250 296T248 265T247 241Q247 234 255 234H294Q276 245 276 258Q276 269 288 275T314 283T337 286Q345 286 357 281Q357 292 353 313T349 346Q349 360 364 360Q381 360 381 340Q381 330 377 310T372 279Q372
269 375 249T378 218Q378 210 338 210Q333 210 317 209T290 208ZM388 431Q411 431 417 456Q410 471 404 474T378 477Q373 477 373 469V443Q375 431 388 431Z" />
<glyph unicode="&#xaf;" glyph-name="overscore" horiz-adv-x="343" d="M94 656Q92 656 92 657Q92 658 95 664T98 674Q98 687 60 687Q55 687 51 675T38 661Q33 660 29 660T19 660Q12 660 9 661Q5 662 4 668V671Q4 677 5 684T6 694Q6 697 6 706T4 726T3 741Q3 755
17 758Q24 759 54 758L103 755Q105 755 123 756T175 758Q198 758 207 755Q219 751 228 748T242 745Q246 745 266 753T321 761Q342 761 341 742V700Q341 697 342 687T343 672Q341 655 325 659Q315 661 309 661T300 663Q291 665 279 665T251 665Q244 667 236 665Q225
665 225 667Q227 669 227 671T233 676T261 678Q265 678 277 677T312 676Q319 676 319 678Q319 680 317 684T314 692Q314 693 314 696T315 706Q282 693 251 693Q228 693 217 691T204 681Q203 665 164 659Q148 657 131 656T94 656Z" />
<glyph unicode="&#xb0;" glyph-name="degree" horiz-adv-x="364" d="M183 530Q140 530 95 557Q40 589 40 665Q40 701 58 732T109 782T184 802Q228 802 257 786T305 736Q324 704 324 669Q324 632 308 601T260 550T183 530ZM186 557Q182 563 191 569T216 580T246
590T268 601Q282 602 288 617T294 652Q294 677 287 701T272 732Q250 742 234 748T218 768Q214 787 184 787Q166 787 153 777T125 755Q109 742 102 730T90 713Q79 701 75 692T71 669Q71 659 73 643T86 619Q89 617 93 615T104 610Q114 607 120 607T127 599Q127 596
126 592T125 585Q125 575 137 569T163 560T186 557ZM229 594Q220 594 215 598Q208 603 210 611Q197 606 185 606Q159 606 141 622T119 664Q115 668 110 673T98 684Q92 690 96 697T107 710T120 718Q126 721 130 721Q135 721 139 718Q156 737 185 737Q211 737 230
718T249 671Q249 658 245 649L248 651Q252 655 256 661T271 668Q283 668 283 658Q283 642 271 636Q264 632 260 623T253 606Q252 602 245 598T229 594ZM184 635Q198 635 207 645T216 670Q216 684 207 694T184 705Q171 705 162 695T152 670Q152 656 161 646T184
635Z" />
<glyph unicode="&#xb1;" glyph-name="plusminus" horiz-adv-x="411" d="M161 233Q140 235 145 253Q147 264 148 270T149 280L152 333Q152 335 152 337T154 344H143Q136 344 130 344T118 345Q116 345 116 346Q116 348 119 355T123 367Q123 384 82 384Q78 384 75
376T68 360T58 351Q52 350 48 350T38 350Q30 350 27 351Q22 352 20 360Q20 366 21 378T23 392Q23 396 23 408T21 433T20 450Q20 465 35 471Q37 472 40 472T49 473Q54 473 60 473T75 471Q100 469 113 468T128 467H140V478Q140 485 140 491T141 504Q141 506 142 506Q144
506 151 503T163 499Q180 499 180 541Q180 545 172 548T156 555T147 565Q146 571 146 576T146 585Q146 593 147 596Q149 601 156 602H159Q166 602 176 601T188 599Q192 599 204 600T229 602T246 603Q261 603 267 588Q269 584 269 574Q269 570 269 563T267 547Q265
523 264 510T263 494Q263 489 263 480T265 458Q274 455 280 455Q284 455 306 464T365 474Q389 474 387 451V399Q387 397 388 387T389 369Q389 345 369 349Q359 351 352 352T343 353L290 356Q284 358 281 358Q279 358 277 358T273 356Q261 358 261 359Q263 358 263
364T271 373Q276 375 285 373Q292 372 296 372T301 372L356 369Q363 369 363 373Q363 375 361 380T358 389V392Q358 394 358 398T359 407Q338 398 319 395T283 391Q279 391 275 391T266 391Q265 384 258 369T251 343Q251 339 260 317T270 258Q270 233 247 236H195Q192
236 180 235T161 233ZM169 260Q171 260 176 262T185 265Q187 265 191 265T203 264Q193 287 191 305T188 347Q184 346 179 346T169 345V334Q168 330 168 327T168 322L165 267Q165 260 169 260ZM139 51Q138 51 138 53Q138 54 140 61T143 73Q143 90 111 90Q109 90
107 82T101 66T93 57Q89 56 85 56T78 56Q72 56 69 57Q65 58 65 67Q63 72 65 83L67 98Q67 102 66 113T65 138T64 156Q64 173 76 177Q78 178 86 178Q115 178 129 176T147 173Q148 173 159 174T192 176Q197 176 202 176T211 177Q228 177 233 173Q253 161 263 161Q266
161 282 170T328 180Q347 180 345 157V105Q345 104 345 100T346 89Q348 77 346 71Q346 51 331 55L311 60Q304 61 294 61T270 62Q263 65 258 63Q247 63 249 65Q250 69 251 73T256 79Q260 80 267 79Q272 78 275 78T281 78L321 75Q326 75 326 78V79Q326 82 325 87T323
95Q321 98 323 112Q295 97 269 97Q250 97 241 95T231 82Q230 64 198 55Q172 48 139 51Z" />
<glyph unicode="&#xb2;" glyph-name="uni00B2" horiz-adv-x="373" d="M323 361Q321 361 314 362Q285 367 249 370T170 381Q161 382 135 384T67 390Q58 390 48 388T37 386Q32 386 30 394Q27 405 85 448Q105 461 128 478T178 516Q187 526 194 533T205 546Q223 566
223 577Q223 586 217 590T202 594Q192 593 181 578Q182 576 183 575T184 571Q184 560 171 560L163 562Q155 561 125 563Q121 564 112 564Q105 564 96 563T74 560H71Q63 560 63 571Q63 591 75 617T97 658Q126 703 203 703Q258 703 298 675Q341 645 341 597Q341 569
328 542T291 495T239 471Q224 468 216 468Q211 468 211 469Q211 473 240 486Q232 495 217 499Q207 499 179 505Q162 490 140 468Q131 456 62 403Q70 402 87 402T115 399Q113 419 126 433T157 447Q162 447 171 445Q179 443 184 444Q188 444 195 444Q210 444 219
439Q236 429 239 392Q270 391 288 390T311 390L322 392V414Q315 414 299 423T268 445T254 466Q254 469 269 472T300 477T322 480Q343 479 343 469Q343 466 341 460Q337 444 335 427T332 392Q343 391 343 379Q343 361 323 361ZM85 591H148Q154 600 169 607Q178 610
178 621T188 643Q199 658 220 658Q233 658 245 651T266 633Q284 610 299 606Q304 604 312 604Q315 604 318 604T325 605Q314 652 275 672Q237 691 201 691Q118 691 85 591Z" />
<glyph unicode="&#xb3;" glyph-name="uni00B3" horiz-adv-x="359" d="M172 396Q90 396 48 451Q41 460 36 475T30 497Q30 504 39 508T56 511Q59 509 71 509Q76 509 81 509T92 510Q112 510 142 513Q144 514 147 514Q154 514 159 510T165 501Q165 497 159 493Q148
486 129 486Q125 486 122 486T113 487Q100 487 85 487T51 489Q61 465 73 450T107 424Q115 441 129 453T159 468Q164 468 169 470Q159 473 155 485Q153 492 159 492Q161 492 163 491T171 488Q178 485 182 484T187 483Q201 483 207 496Q208 498 208 501Q208 509 202
518Q195 526 183 525Q183 525 177 523Q174 522 171 521T164 520Q155 520 157 529Q158 531 158 534V540Q158 542 158 543T159 545Q159 550 157 554T153 566Q150 574 150 580Q150 590 157 596Q163 601 167 598H168Q178 603 182 605T187 612Q187 625 174 626Q167 626
162 620Q162 619 162 619T163 616Q162 614 162 612Q162 608 161 607Q159 602 150 600Q126 599 102 597T54 590H51Q39 590 37 607Q37 618 40 635T50 661Q62 678 87 693T133 712Q146 715 160 716T190 717Q207 717 228 714T267 701T292 673Q296 665 297 661T298 654Q298
649 295 649Q293 649 291 651T287 657Q269 683 248 691T198 702Q198 701 198 700T199 696Q199 693 197 687Q191 660 169 654L157 650Q142 646 137 623Q138 623 138 624Q142 624 144 625Q149 640 173 645Q182 647 189 643T198 630Q208 645 226 645Q235 645 243 639T254
624V621Q254 614 248 606Q247 605 246 605T243 602Q238 599 234 594Q232 589 234 584Q236 578 236 574Q236 563 227 554T205 542Q218 535 223 527Q232 530 242 530Q283 530 291 498Q293 490 298 479Q300 477 302 476T307 473Q316 490 314 503Q314 514 297 545Q290
555 276 555Q252 555 248 566V569Q248 582 266 583Q273 589 285 602Q291 613 299 613Q304 613 304 608Q304 602 297 593T285 579Q299 573 314 552Q322 542 325 529T329 498Q329 493 329 488T328 478Q325 446 270 412Q257 404 219 397Q209 396 194 396T172 396ZM302
621Q293 621 293 635Q293 643 298 643Q306 643 306 627Q306 621 302 621ZM223 523L222 524Q222 524 223 523Z" />
<glyph unicode="&#xb4;" glyph-name="acute" horiz-adv-x="211" d="M50 643Q11 652 5 664Q0 674 0 682Q0 685 2 691Q6 699 12 706Q20 714 31 725T56 750Q61 755 64 753Q69 751 69 744Q69 737 65 729Q62 722 56 716T43 706Q30 699 25 694T18 686Q18 685 18 685T17
684Q17 682 26 678L37 673Q42 684 48 690T77 704Q93 710 107 727Q117 740 118 753Q120 771 123 781T127 795Q135 812 143 818Q140 819 134 819Q125 819 116 814T101 797Q98 791 97 786T96 776Q96 773 96 770T98 764Q99 762 99 759Q99 754 96 746Q85 723 79 732Q73
743 73 754Q73 759 74 764T77 774Q84 793 87 803T91 815Q98 829 110 835T134 842Q145 842 152 838Q198 818 206 807Q211 802 211 795Q211 790 208 784Q207 782 204 777T194 762Q145 690 80 652Q72 648 65 645T50 643ZM91 815Q91 815 91 815T91 815V815Z" />
<glyph unicode="&#xb5;" glyph-name="uni00B5" horiz-adv-x="484" d="M-6 -209Q-25 -209 -22 -191Q-16 -153 -12 -118T2 -34Q11 -1 19 58T32 194T38 355V432Q38 483 33 491Q27 502 20 510T8 528Q4 534 3 538T2 546Q2 564 81 560L213 553Q230 551 229 538L215 314L223
223Q222 215 223 204T225 180Q228 153 236 153Q245 153 250 179L247 230L255 368L247 551Q247 557 251 562T263 567Q300 563 321 561T348 559Q353 559 379 561T451 567H454Q468 567 468 554Q468 552 467 551Q442 517 440 510Q439 507 439 489T438 438V87L461 25Q464
18 462 15Q459 11 454 11Q444 12 431 13T400 16Q376 19 356 19Q335 19 312 14T285 8Q272 8 269 46Q268 57 268 66T268 81Q274 91 283 91Q298 91 297 72L295 40L359 47Q392 44 392 75Q392 98 368 123Q334 158 334 184Q334 212 370 225Q379 226 389 227T409 232L410
332Q361 357 361 426Q361 492 407 535L325 510Q302 523 297 523Q279 523 283 468Q290 450 297 432T312 396Q323 368 323 337Q323 324 322 306T318 265Q318 213 290 170Q281 157 274 148T259 133Q250 127 237 127Q202 127 201 185Q201 192 173 210Q142 229 138 239Q122
277 112 305T101 354Q101 393 134 406Q144 410 160 412T198 413Q197 421 197 430T199 453L201 489Q201 519 185 520Q115 526 106 526Q80 526 75 520Q69 511 68 466Q68 459 68 450T67 430Q67 420 67 409T68 384L69 338V182Q85 198 108 198Q143 198 162 171T181 111Q181
85 165 60L148 35Q148 31 162 31Q184 31 187 32Q195 34 204 42T224 61Q225 62 226 62Q228 62 228 51Q228 26 207 13T162 -1V-9Q163 -37 158 -84T152 -189Q152 -202 137 -204Q118 -203 96 -203T48 -202Q46 -203 33 -204T-6 -209ZM12 -177L122 -173Q124 -150 131
-109T141 -16Q141 -8 143 0Q109 3 88 18Q89 8 89 -8T89 -58Q89 -70 82 -92T58 -137T12 -177Z" />
<glyph unicode="&#xb6;" glyph-name="paragraph" horiz-adv-x="724" d="M649 -319Q623 -311 608 -310T589 -309Q583 -308 543 -315Q540 -316 538 -310T536 -293Q543 -153 548 -36T557 174Q558 201 559 259T561 408Q561 437 561 459T558 510Q550 518 537 518Q506
518 496 502T486 445T484 334Q482 244 481 149T478 -61Q476 -243 468 -243Q462 -243 451 -234T430 -214T412 -202Q403 -201 384 -205T346 -215T316 -220Q284 -220 284 -162Q284 -153 285 -132T288 -87T289 -49V-4Q289 26 288 63T284 145L281 185Q218 200 182 223T131
288T118 401Q120 448 136 488T179 554T241 587Q279 594 321 603T424 613Q450 613 478 609T539 604Q545 604 551 604T564 605Q593 608 622 609T675 609Q683 609 683 587Q682 574 678 552T672 519Q663 278 657 100T646 -214Q646 -221 647 -234T651 -264Q655 -281
656 -292T658 -307Q658 -321 649 -319ZM642 -292L604 -194Q589 -147 589 -100Q589 -67 596 -23T620 76Q623 84 630 94T641 116L655 521Q656 545 647 561T627 578L582 580Q582 573 582 566T580 551Q581 545 581 541T582 532Q582 527 585 521T591 501T592 462Q592
460 594 453T595 413Q594 404 604 397T619 375Q623 353 625 332T628 291Q628 243 615 212T585 156Q571 136 571 129Q565 -46 553 -289Q557 -288 561 -287T573 -283Q577 -281 581 -280T589 -279Q606 -279 642 -292ZM238 344Q257 344 271 358T286 395Q284 407 283
432Q295 424 321 424Q358 424 358 443Q358 447 346 448Q339 448 324 447T308 446Q295 446 285 460T274 491Q275 527 331 525Q337 523 343 520T355 515H357Q374 515 374 533Q374 545 368 557T355 570Q348 572 310 561Q272 550 266 546H262Q247 546 240 537T231 505Q231
487 203 472Q174 456 174 414Q174 382 192 363T238 344ZM432 23Q447 23 450 47Q452 63 452 102T453 213T454 393Q451 403 449 397T444 375T439 343T435 315Q432 302 423 302Q416 302 403 306T373 311Q370 311 367 311T360 310Q341 306 335 277T328 214Q328 188
330 166T335 134Q338 121 357 121Q366 121 376 123T394 125Q403 125 407 121Q417 112 417 87T418 42Q418 33 422 28T432 23ZM331 -190Q340 -190 340 -178Q340 -172 337 -166Q333 -159 333 -148Q333 -134 338 -120T353 -101Q363 -96 377 -96Q387 -96 397 -99T416
-111Q420 -115 425 -115Q432 -115 436 -103T440 -77Q440 -67 438 -58T431 -42Q413 -18 403 0T382 29T351 44Q347 45 344 45T338 45Q322 45 316 38T310 20Q310 9 315 -4Q319 -15 323 -23T327 -44Q327 -51 325 -60T318 -84Q308 -111 308 -134Q308 -150 312 -162T321
-183Q325 -190 331 -190Z" />
<glyph unicode="&#xb7;" glyph-name="middot" horiz-adv-x="267" d="M138 225Q100 225 85 248Q71 269 71 289Q71 307 91 318Q91 325 101 330T124 338T143 341Q160 341 170 332Q188 321 196 310T204 287Q201 251 186 238T138 225ZM172 249Q188 258 188 275Q188
305 167 315Q149 324 136 324Q126 324 122 320Q118 316 113 312T100 303Q98 299 95 294T90 282Q98 292 108 298T130 305Q147 305 156 294Q161 287 164 272T172 249Z" />
<glyph unicode="&#xb8;" glyph-name="cedilla" horiz-adv-x="194" d="M70 -223Q35 -223 7 -203T-21 -142Q-21 -128 -15 -121T-2 -114Q9 -114 15 -131Q20 -147 34 -155T64 -163Q87 -163 107 -149T127 -108Q127 -91 117 -85T93 -78Q84 -78 76 -81Q73 -82 67 -82Q54
-82 41 -74T31 -55Q34 -49 40 -35T54 -5T65 19Q67 22 72 23T84 25Q93 25 100 23T106 15Q105 10 102 -2T96 -27T92 -43H109Q141 -43 167 -57T194 -108Q194 -145 176 -171T129 -210T70 -223ZM80 -204Q86 -204 93 -203T109 -199Q128 -190 134 -182T141 -165T146 -152Q150
-146 156 -146T168 -143T180 -126Q183 -117 183 -110Q183 -97 177 -91T168 -83Q161 -78 149 -78Q138 -78 138 -86Q138 -90 143 -98Q149 -108 149 -113Q149 -122 142 -125T135 -137Q135 -147 124 -161T99 -176Q86 -177 77 -180T61 -186Q57 -187 57 -192Q57 -201
69 -203Q72 -204 80 -204Z" />
<glyph unicode="&#xb9;" glyph-name="uni00B9" horiz-adv-x="244" d="M104 394Q75 394 75 410Q75 413 76 418T78 428Q81 439 81 445V489Q81 502 86 502Q90 502 94 492T101 471T104 457Q107 425 118 423Q120 422 155 427L158 439Q161 448 161 453Q161 466 151 469Q133
474 118 484T102 518Q102 528 107 537T125 562Q127 564 130 574Q131 578 130 585Q129 589 129 596Q129 614 141 625T171 636Q175 636 178 636T186 634Q185 646 185 656T184 675Q184 682 184 687T185 697L175 694Q166 692 153 689T123 680Q69 667 59 657Q56 654
56 650Q56 648 57 644T60 634Q65 622 65 616Q65 600 48 600Q27 600 27 626Q27 631 27 637T29 651Q29 656 29 661T30 667Q30 680 50 685L83 691Q121 698 148 705T194 719Q196 721 199 721T203 721Q207 721 210 719T214 712Q214 708 213 701T210 687Q209 683 209
663T208 608Q208 541 209 507T212 464Q214 454 215 445T217 427Q217 413 212 403Q207 394 198 394Q195 394 187 396Q183 397 180 397Q159 397 144 397T118 395Q114 394 111 394T104 394ZM90 515Q86 515 84 521T81 535Q80 548 78 562T70 593Q69 597 69 602Q69 628
93 631Q104 631 105 622Q105 621 105 619T106 615Q106 612 104 604Q103 596 101 568L98 532Q98 525 97 520T90 515Z" />
<glyph unicode="&#xba;" glyph-name="ordmasculine" horiz-adv-x="371" d="M187 358Q162 358 138 366T89 391Q27 433 27 529Q27 577 48 616T107 679T188 703Q236 703 269 683T324 618Q344 581 344 534Q344 488 326 448T272 383T187 358ZM182 383Q176 395 176 413Q176
437 190 454H187Q161 454 143 477T125 534Q125 534 121 536T116 539Q102 547 100 551Q98 559 98 564Q98 586 111 605Q119 617 145 617Q150 617 158 617T173 615H187Q210 615 226 596Q225 612 225 627T223 657Q219 678 188 678Q169 678 155 666T125 639Q119 633
114 628T103 619Q94 610 88 604T78 594Q55 564 55 534Q55 521 63 502T82 474Q92 465 102 463Q125 454 125 431Q125 430 125 427T124 421V414Q124 404 134 398T158 388T182 383ZM187 478Q202 478 213 494T224 534Q224 551 216 570T187 589Q168 589 159 570T150 534Q150
511 161 495T187 478ZM268 439Q271 431 273 427T276 422Q320 467 320 530Q319 530 314 527Q313 526 311 525T306 521Q287 510 274 510Q260 510 250 521Q250 517 250 514Q251 510 251 506T251 497V487Q251 480 251 475T249 466Q261 458 268 439Z" />
<glyph unicode="&#xbb;" glyph-name="guillemotright" horiz-adv-x="688" d="M424 26Q418 26 406 38L388 56Q381 64 371 72T348 90Q337 99 337 105Q337 122 356 133T389 148Q406 153 410 184Q412 195 434 217L466 249Q471 256 478 266T495 290Q479 304 471 304Q465
304 460 298T453 286T449 281Q399 319 399 352Q399 359 403 365T407 375Q407 387 390 401Q369 419 359 453Q357 450 354 447T347 440Q345 438 339 434T332 428Q332 426 348 413Q351 411 360 403T377 388T385 378Q385 366 379 366Q378 367 376 368T371 371Q372 371
372 371T372 372Q372 374 367 376T362 379Q351 390 339 400T313 417Q307 420 307 427Q307 433 319 445Q324 450 329 454T338 462Q346 470 355 478T375 500Q384 510 390 510Q396 510 402 504Q409 497 421 480T453 435Q477 401 511 392Q523 388 543 366Q557 350 564
342T573 332Q586 323 599 312T627 286Q628 284 628 279Q628 270 621 263Q618 260 613 255T600 242Q604 238 604 234Q604 230 600 225T589 214Q588 213 586 213Q583 213 577 215T561 222Q556 222 553 223Q539 208 539 197Q539 188 553 182Q565 177 563 175Q525 122
493 122Q487 122 482 125T472 129Q460 129 446 111Q430 89 396 77Q399 75 402 73T410 66Q412 64 415 58T422 51Q423 51 429 59T443 76T451 88Q459 99 463 103T469 107Q482 107 482 101Q481 100 480 98T477 94H476Q474 94 472 89T469 84Q465 80 460 72T444 52Q440
48 434 33Q431 26 424 26ZM147 26Q141 26 129 38L111 56Q104 64 94 72T71 90Q60 99 60 105Q60 122 79 133T112 148Q129 153 133 184Q135 195 157 217L189 249Q194 256 201 266T218 290Q202 304 194 304Q188 304 183 298T176 286T172 281Q122 319 122 352Q122 359
126 365T130 375Q130 387 113 401Q92 419 82 453Q80 450 77 447T70 440Q68 438 62 434T55 428Q55 426 71 413Q74 411 83 403T100 388T108 378Q108 366 102 366Q101 367 99 368T94 371Q95 371 95 371T95 372Q95 374 90 376T85 379Q74 390 62 400T36 417Q30 420 30
427Q30 433 42 445Q47 450 52 454T61 462Q69 470 78 478T98 500Q107 510 113 510Q119 510 125 504Q132 497 144 480T176 435Q200 401 234 392Q246 388 266 366Q280 350 287 342T296 332Q309 323 322 312T350 286Q351 284 351 279Q351 270 344 263Q341 260 336 255T323
242Q327 238 327 234Q327 230 323 225T312 214Q311 213 309 213Q306 213 300 215T284 222Q279 222 276 223Q262 208 262 197Q262 188 276 182Q288 177 286 175Q248 122 216 122Q210 122 205 125T195 129Q183 129 169 111Q153 89 119 77Q122 75 125 73T133 66Q135
64 138 58T145 51Q146 51 152 59T166 76T174 88Q182 99 186 103T192 107Q205 107 205 101Q204 100 203 98T200 94H199Q197 94 195 89T192 84Q188 80 183 72T167 52Q163 48 157 33Q154 26 147 26Z" />
<glyph unicode="&#xbc;" glyph-name="onequarter" horiz-adv-x="787" d="M104 394Q75 394 75 410Q75 413 76 418T78 428Q81 439 81 445V489Q81 502 86 502Q90 502 94 492T101 471T104 457Q107 425 118 423Q120 422 155 427L158 439Q161 448 161 453Q161 466 151
469Q133 474 118 484T102 518Q102 528 107 537T125 562Q127 564 130 574Q131 578 130 585Q129 589 129 596Q129 614 141 625T171 636Q175 636 178 636T186 634Q185 646 185 656T184 675Q184 682 184 687T185 697L175 694Q166 692 153 689T123 680Q69 667 59 657Q56
654 56 650Q56 648 57 644T60 634Q65 622 65 616Q65 600 48 600Q27 600 27 626Q27 631 27 637T29 651Q29 656 29 661T30 667Q30 680 50 685L83 691Q121 698 148 705T194 719Q196 721 199 721T203 721Q207 721 210 719T214 712Q214 708 213 701T210 687Q209 683
209 663T208 608Q208 541 209 507T212 464Q214 454 215 445T217 427Q217 413 212 403Q207 394 198 394Q195 394 187 396Q183 397 180 397Q159 397 144 397T118 395Q114 394 111 394T104 394ZM71 46Q63 46 63 52Q63 59 68 65Q84 81 109 109Q176 203 222 268T293
371Q306 389 314 400T324 415Q327 418 330 423T339 435Q356 458 386 501T455 610Q457 615 461 626T470 654Q479 681 495 680L559 676Q567 675 571 675T577 675Q581 675 597 676T643 680Q648 680 651 673Q651 668 647 661Q634 640 615 614T570 552Q541 512 505 463T427
353Q422 346 415 334T397 305Q384 285 367 258T326 196L294 149Q281 131 275 105L262 62Q261 57 252 52T238 46H71ZM156 81H229Q230 89 231 96T236 109Q239 113 252 133T288 187Q287 188 284 189T272 193Q248 196 253 220Q259 257 278 283T325 329T378 361Q401
372 411 378T422 385Q449 418 477 457T534 540Q551 566 568 592T605 645Q602 645 594 643Q591 642 588 642T582 641Q575 640 570 640T557 639Q538 639 490 645Q492 640 494 631T500 610Q504 601 505 592T507 577Q507 550 480 515Q450 476 376 414Q364 409 332 388L141
112Q135 103 135 96Q135 81 156 81ZM90 515Q86 515 84 521T81 535Q80 548 78 562T70 593Q69 597 69 602Q69 628 93 631Q104 631 105 622Q105 621 105 619T106 615Q106 612 104 604Q103 596 101 568L98 532Q98 525 97 520T90 515ZM698 8Q694 10 687 10T669 10Q665
11 662 11T654 11Q642 11 627 11T594 13Q582 15 582 23Q582 31 591 41L593 43Q593 48 593 53T594 64V77Q579 80 543 80Q532 80 518 80T488 79Q452 79 445 89Q443 92 443 109Q443 114 444 116V130Q444 138 444 144T443 155Q443 172 446 179Q452 188 458 185Q461
188 464 192T471 200Q473 202 475 205T480 211Q497 231 517 255T563 310Q572 324 579 328T603 334Q622 335 650 335T716 331Q730 331 730 316Q730 309 727 295Q725 285 725 281L722 239Q721 226 721 212T718 182V173Q720 173 722 173T726 174Q742 174 751 163Q759
157 757 137L756 107Q755 61 737 61Q732 61 713 68Q711 69 710 69Q710 66 711 63Q711 53 714 29V26Q714 17 710 12T698 8ZM636 35Q635 46 636 56Q643 88 667 101T718 122L737 127Q740 147 740 150H739L730 148Q726 147 721 146T712 145Q711 145 710 145T707 144Q696
144 696 154Q696 161 700 166L703 168Q702 173 702 178T702 188H692Q670 192 655 220Q652 228 654 243Q656 248 658 254T662 271V274Q662 276 662 279T660 287Q658 295 656 301T649 314Q624 317 611 317H600Q603 309 605 300T607 280Q607 221 564 209Q551 205 543
201T529 191Q526 188 512 153Q499 127 467 124V105H475Q493 104 513 103T555 100L598 97Q615 95 615 89L613 75Q612 70 611 63T607 45Q608 45 608 45T609 44Q614 43 621 40T636 35ZM624 104Q606 104 597 119Q596 121 595 125T591 137V148Q590 155 589 156T590 157Q587
157 584 157T577 158Q567 158 558 155H553Q545 155 545 160Q545 162 545 163T547 166L549 171Q551 174 554 179T563 191L577 210Q585 221 594 221Q606 221 606 211Q606 207 602 203T585 187L571 173H576Q581 174 585 174T596 174Q603 174 604 182Q604 184 604 186T605
190Q606 200 608 212T618 246Q624 262 630 271T640 279Q642 275 642 274Q642 271 639 263Q637 257 634 246T625 213Q624 210 624 207T624 199Q624 195 624 190T626 178Q626 178 628 176L634 173Q658 163 658 137Q658 104 624 104Z" />
<glyph unicode="&#xbd;" glyph-name="onehalf" horiz-adv-x="759" d="M104 394Q75 394 75 410Q75 413 76 418T78 428Q81 439 81 445V489Q81 502 86 502Q90 502 94 492T101 471T104 457Q107 425 118 423Q120 422 155 427L158 439Q161 448 161 453Q161 466 151 469Q133
474 118 484T102 518Q102 528 107 537T125 562Q127 564 130 574Q131 578 130 585Q129 589 129 596Q129 614 141 625T171 636Q175 636 178 636T186 634Q185 646 185 656T184 675Q184 682 184 687T185 697L175 694Q166 692 153 689T123 680Q69 667 59 657Q56 654
56 650Q56 648 57 644T60 634Q65 622 65 616Q65 600 48 600Q27 600 27 626Q27 631 27 637T29 651Q29 656 29 661T30 667Q30 680 50 685L83 691Q121 698 148 705T194 719Q196 721 199 721T203 721Q207 721 210 719T214 712Q214 708 213 701T210 687Q209 683 209
663T208 608Q208 541 209 507T212 464Q214 454 215 445T217 427Q217 413 212 403Q207 394 198 394Q195 394 187 396Q183 397 180 397Q159 397 144 397T118 395Q114 394 111 394T104 394ZM65 46Q57 46 57 52Q57 59 62 65Q78 81 103 109Q170 203 216 268T287 371Q300
389 308 400T318 415Q321 418 324 423T333 435Q350 458 380 501T449 610Q451 615 455 626T464 654Q473 681 489 680L553 676Q561 675 565 675T571 675Q575 675 591 676T637 680Q642 680 645 673Q645 668 641 661Q628 640 609 614T564 552Q535 512 499 463T421 353Q416
346 409 334T391 305Q378 285 361 258T320 196L288 149Q275 131 269 105L256 62Q255 57 246 52T232 46H65ZM150 81H223Q224 89 225 96T230 109Q233 113 246 133T282 187Q281 188 278 189T266 193Q242 196 247 220Q253 257 272 283T319 329T372 361Q395 372 405
378T416 385Q443 418 471 457T528 540Q545 566 562 592T599 645Q596 645 588 643Q585 642 582 642T576 641Q569 640 564 640T551 639Q532 639 484 645Q486 640 488 631T494 610Q498 601 499 592T501 577Q501 550 474 515Q444 476 370 414Q358 409 326 388L135 112Q129
103 129 96Q129 81 150 81ZM90 515Q86 515 84 521T81 535Q80 548 78 562T70 593Q69 597 69 602Q69 628 93 631Q104 631 105 622Q105 621 105 619T106 615Q106 612 104 604Q103 596 101 568L98 532Q98 525 97 520T90 515ZM709 5Q703 5 700 6Q671 11 635 14T556 25Q547
26 521 29T453 34Q444 34 434 32T423 30Q416 30 416 39Q416 51 471 92Q491 106 514 122T564 160Q582 180 591 190Q609 211 609 221Q609 230 603 235T588 238Q577 236 567 222Q568 220 569 219T570 215Q570 204 557 204L549 206Q545 205 535 205T511 207Q507 208
498 208Q491 208 482 207T460 204H457Q449 204 449 215Q449 235 461 261T483 302Q512 347 589 347Q644 347 684 319Q727 289 727 241Q727 213 713 186T676 139T625 115Q609 112 602 112Q597 112 597 113Q597 116 626 130Q619 138 603 143Q594 143 565 149Q557 142
547 133T526 112Q517 100 448 47Q456 46 473 46T501 43Q500 63 512 77T543 91Q545 91 549 91T557 89Q560 88 562 88T566 88H581Q595 88 605 83Q622 72 625 36Q657 35 675 34T697 34L708 36V58Q701 58 685 67T654 89T640 110Q640 113 654 116T686 122T708 124Q729
123 729 113Q729 112 729 110T727 104Q723 88 722 72T718 36Q729 35 729 23Q729 5 709 5ZM471 235H534Q537 240 542 244T555 251Q564 254 564 265T574 287Q586 302 606 302Q620 302 632 295T652 277Q670 255 685 250Q689 248 698 248Q701 248 704 248T711 249Q700
296 661 316Q623 335 587 335Q504 335 471 235Z" />
<glyph unicode="&#xbe;" glyph-name="threequarters" horiz-adv-x="839" d="M172 396Q90 396 48 451Q41 460 36 475T30 497Q30 504 39 508T56 511Q59 509 71 509Q76 509 81 509T92 510Q112 510 142 513Q144 514 147 514Q154 514 159 510T165 501Q165 497 159 493Q148
486 129 486Q125 486 122 486T113 487Q100 487 85 487T51 489Q61 465 73 450T107 424Q115 441 129 453T159 468Q164 468 169 470Q159 473 155 485Q153 492 159 492Q161 492 163 491T171 488Q178 485 182 484T187 483Q201 483 207 496Q208 498 208 501Q208 509 202
518Q195 526 183 525Q183 525 177 523Q174 522 171 521T164 520Q155 520 157 529Q158 531 158 534V540Q158 542 158 543T159 545Q159 550 157 554T153 566Q150 574 150 580Q150 590 157 596Q163 601 167 598H168Q178 603 182 605T187 612Q187 625 174 626Q167 626
162 620Q162 619 162 619T163 616Q162 614 162 612Q162 608 161 607Q159 602 150 600Q126 599 102 597T54 590H51Q39 590 37 607Q37 618 40 635T50 661Q62 678 87 693T133 712Q146 715 160 716T190 717Q207 717 228 714T267 701T292 673Q296 665 297 661T298 654Q298
649 295 649Q293 649 291 651T287 657Q269 683 248 691T198 702Q198 701 198 700T199 696Q199 693 197 687Q191 660 169 654L157 650Q142 646 137 623Q138 623 138 624Q142 624 144 625Q149 640 173 645Q182 647 189 643T198 630Q208 645 226 645Q235 645 243 639T254
624V621Q254 614 248 606Q247 605 246 605T243 602Q238 599 234 594Q232 589 234 584Q236 578 236 574Q236 563 227 554T205 542Q218 535 223 527Q232 530 242 530Q283 530 291 498Q293 490 298 479Q300 477 302 476T307 473Q316 490 314 503Q314 514 297 545Q290
555 276 555Q252 555 248 566V569Q248 582 266 583Q273 589 285 602Q291 613 299 613Q304 613 304 608Q304 602 297 593T285 579Q299 573 314 552Q322 542 325 529T329 498Q329 493 329 488T328 478Q325 446 270 412Q257 404 219 397Q209 396 194 396T172 396ZM141
46Q133 46 133 52Q133 59 138 65Q154 81 179 109Q246 203 292 268T363 371Q376 389 384 400T394 415Q397 418 400 423T409 435Q426 458 456 501T525 610Q527 615 531 626T540 654Q549 681 565 680L629 676Q637 675 641 675T647 675Q651 675 667 676T713 680Q718
680 721 673Q721 668 717 661Q704 640 685 614T640 552Q611 512 575 463T497 353Q492 346 485 334T467 305Q454 285 437 258T396 196L364 149Q351 131 345 105L332 62Q331 57 322 52T308 46H141ZM226 81H299Q300 89 301 96T306 109Q309 113 322 133T358 187Q357
188 354 189T342 193Q318 196 323 220Q329 257 348 283T395 329T448 361Q471 372 481 378T492 385Q519 418 547 457T604 540Q621 566 638 592T675 645Q672 645 664 643Q661 642 658 642T652 641Q645 640 640 640T627 639Q608 639 560 645Q562 640 564 631T570 610Q574
601 575 592T577 577Q577 550 550 515Q520 476 446 414Q434 409 402 388L211 112Q205 103 205 96Q205 81 226 81ZM302 621Q293 621 293 635Q293 643 298 643Q306 643 306 627Q306 621 302 621ZM223 523L222 524Q222 524 223 523ZM750 13Q746 15 739 15T721 15Q717
16 714 16T706 16Q694 16 679 16T646 18Q634 20 634 28Q634 36 643 46L645 48Q645 53 645 58T646 69V82Q631 85 595 85Q584 85 570 85T540 84Q504 84 497 94Q495 97 495 114Q495 119 496 121V135Q496 143 496 149T495 160Q495 177 498 184Q504 193 510 190Q513
193 516 197T523 205Q525 207 527 210T532 216Q549 236 569 260T615 315Q624 329 631 333T655 339Q674 340 702 340T768 336Q782 336 782 321Q782 314 779 300Q777 290 777 286L774 244Q773 231 773 217T770 187V178Q772 178 774 178T778 179Q794 179 803 168Q811
162 809 142L808 112Q807 66 789 66Q784 66 765 73Q763 74 762 74Q762 71 763 68Q763 58 766 34V31Q766 22 762 17T750 13ZM688 40Q687 51 688 61Q695 93 719 106T770 127L789 132Q792 152 792 155H791L782 153Q778 152 773 151T764 150Q763 150 762 150T759 149Q748
149 748 159Q748 166 752 171L755 173Q754 178 754 183T754 193H744Q722 197 707 225Q704 233 706 248Q708 253 710 259T714 276V279Q714 281 714 284T712 292Q710 300 708 306T701 319Q676 322 663 322H652Q655 314 657 305T659 285Q659 226 616 214Q603 210 595
206T581 196Q578 193 564 158Q551 132 519 129V110H527Q545 109 565 108T607 105L650 102Q667 100 667 94L665 80Q664 75 663 68T659 50Q660 50 660 50T661 49Q666 48 673 45T688 40ZM676 109Q658 109 649 124Q648 126 647 130T643 142V153Q642 160 641 161T642
162Q639 162 636 162T629 163Q619 163 610 160H605Q597 160 597 165Q597 167 597 168T599 171L601 176Q603 179 606 184T615 196L629 215Q637 226 646 226Q658 226 658 216Q658 212 654 208T637 192L623 178H628Q633 179 637 179T648 179Q655 179 656 187Q656 189
656 191T657 195Q658 205 660 217T670 251Q676 267 682 276T692 284Q694 280 694 279Q694 276 691 268Q689 262 686 251T677 218Q676 215 676 212T676 204Q676 200 676 195T678 183Q678 183 680 181L686 178Q710 168 710 142Q710 109 676 109Z" />
<glyph unicode="&#xbf;" glyph-name="questiondown" horiz-adv-x="568" d="M268 345Q246 345 225 355T185 377Q186 376 186 373Q191 359 184 359Q178 359 172 373T159 406T150 443T146 466Q146 495 165 519T213 557T269 572Q282 572 294 569Q347 556 376 529T404
468Q399 389 352 369Q297 345 268 345ZM276 371Q324 374 350 391T380 457Q373 456 367 456T355 455Q330 455 313 465Q278 484 264 484Q248 484 224 469T179 418Q177 416 177 415Q180 413 185 407Q201 386 224 378T276 371ZM267 299Q255 301 249 302T242 303Q233
308 233 315Q233 329 252 329Q261 329 274 324T287 310Q287 296 267 299ZM274 -115Q234 -115 192 -101T114 -61T53 -5Q27 29 27 94Q27 175 55 225T158 310Q182 321 192 321Q209 321 209 301Q209 291 194 285Q184 281 175 279T156 272Q124 260 102 232T69 168T58
99Q58 66 68 39Q86 85 133 102Q166 113 187 129T208 183Q208 219 238 235Q251 242 265 245T296 247Q304 246 311 245T325 239Q325 255 323 267T314 286Q307 294 307 303Q307 321 336 319Q357 318 357 263Q357 265 357 257T359 228V218Q359 205 356 193Q355 191
354 188T351 180V160Q346 161 342 162T336 164Q332 163 329 162T321 160Q317 160 312 160T303 161Q272 161 257 144T241 105Q241 103 241 99T243 90Q256 68 275 68Q283 68 289 73T299 107Q302 128 316 128Q331 128 336 121Q348 122 364 124T402 128Q420 133 436
134T469 136Q481 136 492 135T514 131Q531 126 531 112L519 67Q491 -33 433 -74T274 -115ZM403 -51Q459 -23 483 54Q491 80 491 84Q491 95 473 95Q435 95 360 92Q362 76 369 54T386 19Q406 -13 403 -51Z" />
<glyph unicode="&#xc0;" glyph-name="Agrave" horiz-adv-x="757" d="M14 -1Q-25 -2 -25 23Q-25 44 -3 52Q24 60 29 69Q38 85 45 109T60 165Q69 203 76 228T87 263Q95 288 121 374T188 609Q194 632 209 633Q287 641 443 651Q462 651 468 636Q470 628 471 621T475
605Q484 574 500 533T536 440Q565 364 585 315T616 240Q653 158 677 116T716 73Q746 71 746 49V46Q746 26 730 21H695Q677 21 651 19T589 14Q552 11 524 9T478 7Q455 7 436 21Q414 38 412 63Q412 66 418 73T430 86T439 92Q443 92 445 84T452 66T467 52Q468 52 471
52T480 51Q488 51 501 51T531 53L528 75Q528 85 531 100T542 129T562 143Q571 143 587 135T610 127Q615 127 615 136Q615 141 609 158T593 197T576 236T563 260Q559 260 552 257T541 253Q528 253 514 301Q499 355 470 375Q443 394 428 403T411 415Q396 430 388
445T380 480Q380 500 388 507T419 515Q445 517 475 477Q477 483 477 490Q477 504 469 524T450 564T430 594Q389 609 343 607Q320 607 313 588T301 549Q290 518 251 505Q203 489 186 467Q178 438 166 395T137 295Q170 275 171 235Q171 220 152 186Q134 155 134 127Q134
99 157 77Q187 48 194 38L237 36Q235 47 232 62T226 96Q225 108 232 120T251 132Q260 133 277 129T302 125L409 128Q422 128 422 122Q422 96 360 90H277L278 80Q279 73 276 55T266 21T250 5H249Q244 5 242 13Q193 3 142 1Q129 3 111 3T69 5Q51 4 14 -1ZM301 157Q277
157 259 171T241 210Q241 217 243 227T245 243Q244 255 234 272T223 302Q221 331 247 351Q259 360 271 365T299 371Q325 371 325 347Q325 336 323 318T318 282T316 255Q318 241 326 241Q333 245 343 249T368 257V263Q368 286 354 326T309 424Q309 428 313 441T322
466T331 478Q339 473 354 424Q363 394 368 378T375 360L401 310Q412 291 416 277T420 254Q420 229 397 229Q394 229 390 229T381 230Q382 197 359 177T301 157ZM320 731Q316 733 313 734T304 740Q295 748 284 758T258 782Q252 786 254 790Q257 796 264 796Q270
796 278 792Q286 790 292 784T302 772Q310 759 315 754T323 747H324Q327 747 331 756L336 767Q325 772 318 777T302 805Q296 821 278 834Q267 842 251 844Q233 846 223 848T209 851Q194 857 185 866Q183 856 188 844T208 825Q220 820 228 820Q234 820 242 824Q243
825 247 825Q252 825 259 822Q284 812 274 806Q266 799 251 799Q242 799 233 802Q210 810 200 812T191 814Q176 820 169 832T162 858Q162 867 165 874Q184 921 193 930Q198 935 205 935Q208 935 210 935T216 933Q220 932 239 919Q314 873 356 810Q357 808 358 806T360
802Q365 795 365 790T365 781Q358 741 346 735Q330 727 320 731Z" />
<glyph unicode="&#xc1;" glyph-name="Aacute" horiz-adv-x="757" d="M14 -1Q-25 -2 -25 23Q-25 44 -3 52Q24 60 29 69Q38 85 45 109T60 165Q69 203 76 228T87 263Q95 288 121 374T188 609Q194 632 209 633Q287 641 443 651Q462 651 468 636Q470 628 471 621T475
605Q484 574 500 533T536 440Q565 364 585 315T616 240Q653 158 677 116T716 73Q746 71 746 49V46Q746 26 730 21H695Q677 21 651 19T589 14Q552 11 524 9T478 7Q455 7 436 21Q414 38 412 63Q412 66 418 73T430 86T439 92Q443 92 445 84T452 66T467 52Q468 52 471
52T480 51Q488 51 501 51T531 53L528 75Q528 85 531 100T542 129T562 143Q571 143 587 135T610 127Q615 127 615 136Q615 141 609 158T593 197T576 236T563 260Q559 260 552 257T541 253Q528 253 514 301Q499 355 470 375Q443 394 428 403T411 415Q396 430 388
445T380 480Q380 500 388 507T419 515Q445 517 475 477Q477 483 477 490Q477 504 469 524T450 564T430 594Q389 609 343 607Q320 607 313 588T301 549Q290 518 251 505Q203 489 186 467Q178 438 166 395T137 295Q170 275 171 235Q171 220 152 186Q134 155 134 127Q134
99 157 77Q187 48 194 38L237 36Q235 47 232 62T226 96Q225 108 232 120T251 132Q260 133 277 129T302 125L409 128Q422 128 422 122Q422 96 360 90H277L278 80Q279 73 276 55T266 21T250 5H249Q244 5 242 13Q193 3 142 1Q129 3 111 3T69 5Q51 4 14 -1ZM301 157Q277
157 259 171T241 210Q241 217 243 227T245 243Q244 255 234 272T223 302Q221 331 247 351Q259 360 271 365T299 371Q325 371 325 347Q325 336 323 318T318 282T316 255Q318 241 326 241Q333 245 343 249T368 257V263Q368 286 354 326T309 424Q309 428 313 441T322
466T331 478Q339 473 354 424Q363 394 368 378T375 360L401 310Q412 291 416 277T420 254Q420 229 397 229Q394 229 390 229T381 230Q382 197 359 177T301 157ZM326 728Q287 737 281 749Q276 759 276 767Q276 770 278 776Q282 784 288 791Q296 799 307 810T332
835Q337 840 340 838Q345 836 345 829Q345 822 341 814Q338 807 332 801T319 791Q306 784 301 779T294 771Q294 770 294 770T293 769Q293 767 302 763L313 758Q318 769 324 775T353 789Q369 795 383 812Q393 825 394 838Q396 856 399 866T403 880Q411 897 419 903Q416
904 410 904Q401 904 392 899T377 882Q374 876 373 871T372 861Q372 858 372 855T374 849Q375 847 375 844Q375 839 372 831Q361 808 355 817Q349 828 349 839Q349 844 350 849T353 859Q360 878 363 888T367 900Q374 914 386 920T410 927Q421 927 428 923Q474 903
482 892Q487 887 487 880Q487 875 484 869Q483 867 480 862T470 847Q421 775 356 737Q348 733 341 730T326 728ZM367 900Q367 900 367 900T367 900V900Z" />
<glyph unicode="&#xc2;" glyph-name="Acircumflex" horiz-adv-x="757" d="M14 -1Q-25 -2 -25 23Q-25 44 -3 52Q24 60 29 69Q38 85 45 109T60 165Q69 203 76 228T87 263Q95 288 121 374T188 609Q194 632 209 633Q287 641 443 651Q462 651 468 636Q470 628 471 621T475
605Q484 574 500 533T536 440Q565 364 585 315T616 240Q653 158 677 116T716 73Q746 71 746 49V46Q746 26 730 21H695Q677 21 651 19T589 14Q552 11 524 9T478 7Q455 7 436 21Q414 38 412 63Q412 66 418 73T430 86T439 92Q443 92 445 84T452 66T467 52Q468 52 471
52T480 51Q488 51 501 51T531 53L528 75Q528 85 531 100T542 129T562 143Q571 143 587 135T610 127Q615 127 615 136Q615 141 609 158T593 197T576 236T563 260Q559 260 552 257T541 253Q528 253 514 301Q499 355 470 375Q443 394 428 403T411 415Q396 430 388
445T380 480Q380 500 388 507T419 515Q445 517 475 477Q477 483 477 490Q477 504 469 524T450 564T430 594Q389 609 343 607Q320 607 313 588T301 549Q290 518 251 505Q203 489 186 467Q178 438 166 395T137 295Q170 275 171 235Q171 220 152 186Q134 155 134 127Q134
99 157 77Q187 48 194 38L237 36Q235 47 232 62T226 96Q225 108 232 120T251 132Q260 133 277 129T302 125L409 128Q422 128 422 122Q422 96 360 90H277L278 80Q279 73 276 55T266 21T250 5H249Q244 5 242 13Q193 3 142 1Q129 3 111 3T69 5Q51 4 14 -1ZM301 157Q277
157 259 171T241 210Q241 217 243 227T245 243Q244 255 234 272T223 302Q221 331 247 351Q259 360 271 365T299 371Q325 371 325 347Q325 336 323 318T318 282T316 255Q318 241 326 241Q333 245 343 249T368 257V263Q368 286 354 326T309 424Q309 428 313 441T322
466T331 478Q339 473 354 424Q363 394 368 378T375 360L401 310Q412 291 416 277T420 254Q420 229 397 229Q394 229 390 229T381 230Q382 197 359 177T301 157ZM187 718Q187 721 162 740Q156 744 150 750T135 764Q128 769 128 774Q128 776 127 781T129 788Q135
790 145 803T183 824Q197 829 206 838T220 858Q224 866 244 876Q258 885 269 893T281 902Q289 910 299 918T322 934H327Q334 934 340 929Q342 928 352 920T373 904T387 894Q388 894 388 893T387 892Q387 892 380 886T366 872T356 860Q355 859 355 858T354 855L355
854Q360 849 368 847T381 845Q386 845 394 853T409 869T416 877Q433 865 443 857T454 839Q454 831 444 829T420 826Q407 826 397 827T385 827Q382 823 382 820Q382 819 380 814T378 802Q378 793 388 784T431 772Q437 771 449 774T470 778Q481 778 482 772Q486 776
492 779Q497 783 490 787T470 802Q465 807 465 812Q465 814 465 816T466 821V822Q469 825 472 824Q475 824 476 823Q481 821 485 817T507 801Q515 794 516 787T519 778Q519 777 515 777T499 765L455 727Q451 724 448 723T442 721Q436 721 433 725L412 756Q408 762
385 771Q381 773 376 777T362 788L338 810Q335 813 326 822T307 841T289 855Q276 846 276 840Q277 836 286 827T304 811T312 802V800Q283 774 257 772Q247 772 242 776Q241 777 236 784T227 797T220 804Q215 804 209 796T192 778T162 765Q170 760 176 749T183 739Q186
739 187 740Q196 748 211 760T229 769L234 764L240 761Q240 760 236 756T229 750L205 732Q188 718 187 718Z" />
<glyph unicode="&#xc3;" glyph-name="Atilde" horiz-adv-x="757" d="M14 -1Q-25 -2 -25 23Q-25 44 -3 52Q24 60 29 69Q38 85 45 109T60 165Q69 203 76 228T87 263Q95 288 121 374T188 609Q194 632 209 633Q287 641 443 651Q462 651 468 636Q470 628 471 621T475
605Q484 574 500 533T536 440Q565 364 585 315T616 240Q653 158 677 116T716 73Q746 71 746 49V46Q746 26 730 21H695Q677 21 651 19T589 14Q552 11 524 9T478 7Q455 7 436 21Q414 38 412 63Q412 66 418 73T430 86T439 92Q443 92 445 84T452 66T467 52Q468 52 471
52T480 51Q488 51 501 51T531 53L528 75Q528 85 531 100T542 129T562 143Q571 143 587 135T610 127Q615 127 615 136Q615 141 609 158T593 197T576 236T563 260Q559 260 552 257T541 253Q528 253 514 301Q499 355 470 375Q443 394 428 403T411 415Q396 430 388
445T380 480Q380 500 388 507T419 515Q445 517 475 477Q477 483 477 490Q477 504 469 524T450 564T430 594Q389 609 343 607Q320 607 313 588T301 549Q290 518 251 505Q203 489 186 467Q178 438 166 395T137 295Q170 275 171 235Q171 220 152 186Q134 155 134 127Q134
99 157 77Q187 48 194 38L237 36Q235 47 232 62T226 96Q225 108 232 120T251 132Q260 133 277 129T302 125L409 128Q422 128 422 122Q422 96 360 90H277L278 80Q279 73 276 55T266 21T250 5H249Q244 5 242 13Q193 3 142 1Q129 3 111 3T69 5Q51 4 14 -1ZM301 157Q277
157 259 171T241 210Q241 217 243 227T245 243Q244 255 234 272T223 302Q221 331 247 351Q259 360 271 365T299 371Q325 371 325 347Q325 336 323 318T318 282T316 255Q318 241 326 241Q333 245 343 249T368 257V263Q368 286 354 326T309 424Q309 428 313 441T322
466T331 478Q339 473 354 424Q363 394 368 378T375 360L401 310Q412 291 416 277T420 254Q420 229 397 229Q394 229 390 229T381 230Q382 197 359 177T301 157ZM147 726Q138 726 140 736Q145 760 144 774T143 790L140 834Q142 840 143 841Q199 889 252 889Q282
889 330 867Q381 844 394 844Q408 844 429 859T484 899Q489 903 495 901Q500 899 500 892L497 842L500 794Q499 790 496 787Q438 738 390 738Q363 738 312 761Q260 784 248 784Q231 784 208 771T155 729Q152 726 147 726ZM396 767Q405 767 413 776Q421 787 427
793T449 799Q453 799 457 797T468 794Q470 794 470 795T474 798Q474 828 477 839T474 851Q471 851 466 848Q446 835 436 827T413 811Q408 808 398 804T375 799Q366 799 357 802T337 812Q333 816 330 827T320 842Q269 865 245 865Q233 865 222 859T212 840Q214 832
207 825T182 808Q175 804 175 800Q175 796 180 795T192 793Q202 793 205 797Q234 818 264 818Q284 818 299 808T330 786Q347 772 360 770T386 768Q388 768 390 768T396 767Z" />
<glyph unicode="&#xc4;" glyph-name="Adieresis" horiz-adv-x="757" d="M14 -1Q-25 -2 -25 23Q-25 44 -3 52Q24 60 29 69Q38 85 45 109T60 165Q69 203 76 228T87 263Q95 288 121 374T188 609Q194 632 209 633Q287 641 443 651Q462 651 468 636Q470 628 471 621T475
605Q484 574 500 533T536 440Q565 364 585 315T616 240Q653 158 677 116T716 73Q746 71 746 49V46Q746 26 730 21H695Q677 21 651 19T589 14Q552 11 524 9T478 7Q455 7 436 21Q414 38 412 63Q412 66 418 73T430 86T439 92Q443 92 445 84T452 66T467 52Q468 52 471
52T480 51Q488 51 501 51T531 53L528 75Q528 85 531 100T542 129T562 143Q571 143 587 135T610 127Q615 127 615 136Q615 141 609 158T593 197T576 236T563 260Q559 260 552 257T541 253Q528 253 514 301Q499 355 470 375Q443 394 428 403T411 415Q396 430 388
445T380 480Q380 500 388 507T419 515Q445 517 475 477Q477 483 477 490Q477 504 469 524T450 564T430 594Q389 609 343 607Q320 607 313 588T301 549Q290 518 251 505Q203 489 186 467Q178 438 166 395T137 295Q170 275 171 235Q171 220 152 186Q134 155 134 127Q134
99 157 77Q187 48 194 38L237 36Q235 47 232 62T226 96Q225 108 232 120T251 132Q260 133 277 129T302 125L409 128Q422 128 422 122Q422 96 360 90H277L278 80Q279 73 276 55T266 21T250 5H249Q244 5 242 13Q193 3 142 1Q129 3 111 3T69 5Q51 4 14 -1ZM301 157Q277
157 259 171T241 210Q241 217 243 227T245 243Q244 255 234 272T223 302Q221 331 247 351Q259 360 271 365T299 371Q325 371 325 347Q325 336 323 318T318 282T316 255Q318 241 326 241Q333 245 343 249T368 257V263Q368 286 354 326T309 424Q309 428 313 441T322
466T331 478Q339 473 354 424Q363 394 368 378T375 360L401 310Q412 291 416 277T420 254Q420 229 397 229Q394 229 390 229T381 230Q382 197 359 177T301 157ZM424 727Q374 727 354 757Q335 785 335 811Q335 836 362 849Q362 859 376 865T406 875T430 879Q450
879 466 868Q512 837 510 808Q507 761 488 744T424 727ZM218 727Q168 727 148 757Q129 785 129 811Q129 836 156 849Q156 859 170 865T200 875T224 879Q244 879 260 868Q306 837 304 808Q301 761 282 744T218 727ZM446 740Q455 740 462 744Q499 768 493 801Q487
828 477 841Q474 846 470 849T462 853Q455 855 446 856T427 862Q423 865 416 865Q403 865 397 857Q394 851 394 848Q394 839 404 837T413 826Q412 819 405 810T398 793Q398 786 405 786Q414 786 427 791T452 799T462 796Q459 786 445 771T427 744Q436 740 446 740ZM233
742Q244 742 252 747Q266 753 281 769T294 797Q292 801 282 807T263 817T253 812Q253 802 250 785T241 767Q220 767 206 782Q199 790 196 811T186 841Q167 831 165 813Q162 768 192 754Q216 742 233 742Z" />
<glyph unicode="&#xc5;" glyph-name="Aring" horiz-adv-x="757" d="M14 -1Q-25 -2 -25 23Q-25 44 -3 52Q24 60 29 69Q38 85 45 109T60 165Q69 203 76 228T87 263Q95 288 121 374T188 609Q194 632 209 633Q287 641 443 651Q462 651 468 636Q470 628 471 621T475
605Q484 574 500 533T536 440Q565 364 585 315T616 240Q653 158 677 116T716 73Q746 71 746 49V46Q746 26 730 21H695Q677 21 651 19T589 14Q552 11 524 9T478 7Q455 7 436 21Q414 38 412 63Q412 66 418 73T430 86T439 92Q443 92 445 84T452 66T467 52Q468 52 471
52T480 51Q488 51 501 51T531 53L528 75Q528 85 531 100T542 129T562 143Q571 143 587 135T610 127Q615 127 615 136Q615 141 609 158T593 197T576 236T563 260Q559 260 552 257T541 253Q528 253 514 301Q499 355 470 375Q443 394 428 403T411 415Q396 430 388
445T380 480Q380 500 388 507T419 515Q445 517 475 477Q477 483 477 490Q477 504 469 524T450 564T430 594Q389 609 343 607Q320 607 313 588T301 549Q290 518 251 505Q203 489 186 467Q178 438 166 395T137 295Q170 275 171 235Q171 220 152 186Q134 155 134 127Q134
99 157 77Q187 48 194 38L237 36Q235 47 232 62T226 96Q225 108 232 120T251 132Q260 133 277 129T302 125L409 128Q422 128 422 122Q422 96 360 90H277L278 80Q279 73 276 55T266 21T250 5H249Q244 5 242 13Q193 3 142 1Q129 3 111 3T69 5Q51 4 14 -1ZM301 157Q277
157 259 171T241 210Q241 217 243 227T245 243Q244 255 234 272T223 302Q221 331 247 351Q259 360 271 365T299 371Q325 371 325 347Q325 336 323 318T318 282T316 255Q318 241 326 241Q333 245 343 249T368 257V263Q368 286 354 326T309 424Q309 428 313 441T322
466T331 478Q339 473 354 424Q363 394 368 378T375 360L401 310Q412 291 416 277T420 254Q420 229 397 229Q394 229 390 229T381 230Q382 197 359 177T301 157ZM321 728Q280 728 237 751Q185 781 185 848Q185 880 202 909T250 957T321 976Q360 976 390 959T437
913T454 852Q454 802 420 765T321 728ZM305 757Q339 757 358 763T396 791Q386 790 383 788T377 789Q365 784 353 784H316Q303 784 283 792T247 815T231 848Q231 867 244 882T277 907T316 917Q339 917 355 906T381 878Q385 885 388 887T404 894Q394 911 375 926T333
942Q312 942 301 932Q287 925 274 919T247 905Q207 887 207 848Q207 823 228 809Q229 808 240 802T271 782Q275 780 280 776T294 763Q299 757 305 757ZM314 808Q337 805 349 818T361 849Q361 866 348 879T314 892Q296 892 282 879T267 848Q267 816 314 808Z" />
<glyph unicode="&#xc6;" glyph-name="AE" horiz-adv-x="969" d="M928 -1Q921 -1 908 1T876 7Q857 11 842 13T816 15Q801 15 785 15T750 13Q744 10 721 12Q635 8 584 7T518 5Q509 5 505 6H496Q470 6 449 22T428 65Q428 68 434 74T447 86T456 92Q462 92 465 77Q469
60 476 56T499 50Q502 51 508 51Q514 51 521 51T535 50H547Q546 55 546 61T545 72Q545 86 551 107T571 136Q572 151 583 174T614 223T655 271T697 308T734 323Q761 323 784 306Q790 302 823 267H828Q839 267 858 269T887 272Q885 285 884 299T882 330Q882 340 882
351T884 373Q874 339 839 339Q819 339 810 348T797 370T789 396Q715 396 715 405L723 414Q709 450 709 456Q709 483 745 481Q746 518 769 543T829 569Q882 569 882 517Q882 504 878 492L900 495V504Q900 513 896 528T891 553Q891 572 900 612Q872 606 835 606Q829
606 822 606T806 605Q798 605 789 605T768 606Q743 607 727 607T703 608Q696 583 652 541Q614 505 614 478Q614 470 618 455T623 431Q623 404 605 386T559 367Q549 367 535 370Q536 315 536 273T536 203Q536 193 535 171T534 126T533 92Q533 63 523 63Q500 63 500
80Q500 85 502 96T504 113Q504 125 503 151T499 203T497 241Q497 275 500 372L439 416Q410 443 410 478Q410 501 419 508T451 516Q476 516 501 482Q499 502 497 516T494 541Q479 576 464 595Q425 611 378 611Q355 611 348 592T334 554Q325 525 282 512Q257 505
241 496T216 476Q194 407 181 365T161 306Q193 285 193 245Q193 231 173 197Q152 163 152 135Q152 109 174 87Q205 56 209 47L252 44Q252 55 248 75T243 104Q243 116 250 128T269 140Q278 140 295 136T320 130H427Q440 130 440 124Q440 93 357 93Q358 93 358 93T356
93H357Q365 93 294 96V86Q294 79 293 69T286 44Q275 12 264 12Q258 12 256 21Q207 12 156 12Q149 12 135 14T106 18T83 19L28 15Q-10 12 -10 37Q-10 60 13 68Q41 77 45 84Q54 100 62 123T80 178Q91 216 98 241T110 276Q151 389 177 475T223 618Q231 641 244 641Q243
641 245 641H244Q247 640 770 640Q779 640 798 641T840 644T881 647T910 649Q932 649 932 616Q932 607 931 592T929 571V481Q934 474 934 468Q934 450 916 450Q907 450 890 451T857 454T830 455Q744 455 744 449L743 418Q769 418 818 421Q843 423 861 423T892 423Q931
423 931 402Q931 399 929 383T921 337Q916 308 913 291T908 270Q915 266 915 254Q915 229 884 229Q761 229 747 253H736Q746 232 747 205H813Q824 205 846 208T891 213T924 216Q937 216 940 208V189Q940 179 944 157T951 112T955 79Q955 -1 928 -1ZM323 162Q298
162 280 176T262 215Q262 221 264 232T267 250Q267 262 258 280T248 310Q248 339 272 357T326 376Q351 376 351 354Q351 344 348 326T342 289T339 260Q339 246 348 246Q353 246 367 253T391 260V266Q391 289 379 330T337 429Q337 434 342 446T353 470T362 482Q369
478 383 427L401 363L426 312Q443 276 443 261Q443 231 420 231Q417 231 413 231T403 233Q403 200 380 181T323 162Z" />
<glyph unicode="&#xc7;" glyph-name="Ccedilla" horiz-adv-x="546" d="M329 -7Q192 -7 77 108Q54 132 40 171T19 253T12 328Q12 376 29 418Q31 423 38 438T56 471T74 503T85 520Q93 531 100 531H102Q108 531 109 525Q109 522 88 487L110 490Q149 495 203 463Q256
432 289 435Q303 442 317 446T345 451Q351 451 360 451T380 450Q403 448 414 450Q457 456 453 485L449 511Q442 507 434 505T415 501Q372 498 355 498Q244 498 244 577Q244 582 244 588T246 600Q164 581 131 529Q130 525 124 521L123 531Q119 581 189 612Q244 637
304 641Q315 642 325 642T346 642Q360 642 373 642T400 640Q476 634 478 611Q478 606 477 596T475 581Q476 570 480 543T490 490T495 450Q498 390 485 389Q482 389 438 407Q401 422 367 422Q311 422 281 392T254 307Q257 270 289 245T358 220Q404 220 453 261Q456
307 481 307Q495 307 508 300T522 279Q522 269 519 250T512 212T508 181Q508 159 523 115Q531 92 534 77T537 54Q537 16 485 13Q474 12 455 10T407 2Q358 -7 329 -7ZM72 250Q87 250 101 257T131 277Q157 299 157 326Q157 354 128 389Q102 422 75 422Q53 422 43
372Q39 354 37 340T35 313Q35 250 72 250ZM352 14Q404 18 442 26T504 49L499 156Q482 112 438 112Q427 112 410 116T381 120Q360 120 331 101Q313 89 299 85T273 81Q232 81 212 111Q205 122 200 140T189 185Q183 213 148 213L116 210Q101 209 83 213T42 225Q73
125 160 66Q247 7 352 14ZM304 -239Q269 -239 241 -219T213 -158Q213 -144 219 -137T232 -130Q243 -130 249 -147Q254 -163 268 -171T298 -179Q321 -179 341 -165T361 -124Q361 -107 351 -101T327 -94Q318 -94 310 -97Q307 -98 301 -98Q288 -98 275 -90T265 -71Q268
-65 274 -51T288 -21T299 3Q301 6 306 7T318 9Q327 9 334 7T340 -1Q339 -6 336 -18T330 -43T326 -59H343Q375 -59 401 -73T428 -124Q428 -161 410 -187T363 -226T304 -239ZM314 -220Q320 -220 327 -219T343 -215Q362 -206 368 -198T375 -181T380 -168Q384 -162
390 -162T402 -159T414 -142Q417 -133 417 -126Q417 -113 411 -107T402 -99Q395 -94 383 -94Q372 -94 372 -102Q372 -106 377 -114Q383 -124 383 -129Q383 -138 376 -141T369 -153Q369 -163 358 -177T333 -192Q320 -193 311 -196T295 -202Q291 -203 291 -208Q291
-217 303 -219Q306 -220 314 -220Z" />
<glyph unicode="&#xc8;" glyph-name="Egrave" horiz-adv-x="529" d="M86 -5Q56 -6 54 18V21Q54 39 73 41Q90 40 115 39T173 37Q132 67 132 129Q132 191 179 212Q188 216 196 247Q207 285 225 304T289 324Q302 324 314 321T336 309Q339 307 349 298T376 273H382Q392
273 411 276T440 281Q431 322 431 382Q422 346 384 346Q358 346 350 364T335 400Q324 399 314 399T296 399Q261 399 261 405L268 414Q261 427 253 455V459Q253 474 262 478Q271 483 287 482Q286 520 309 547T372 575Q422 575 422 522Q422 511 419 500Q424 502 429
502T441 504L440 514Q438 522 435 534T429 562Q428 581 435 621Q416 617 392 614T337 610L238 607Q232 582 191 538Q156 500 156 475Q156 468 162 452T168 426Q170 397 142 373Q113 349 83 352Q88 285 91 218T95 83V75Q95 54 87 53H82Q63 53 63 71Q63 75 64 85T66
102Q65 114 62 140T56 192T52 230Q50 266 49 339Q48 376 47 403T45 448Q45 459 42 479T34 524T27 568T24 596Q24 615 35 628T65 642Q79 642 100 639T132 636Q146 637 167 638T218 640Q276 642 304 643Q314 643 333 645T376 651T418 656T445 659Q464 659 467 630Q466
618 466 606T466 581L471 492Q476 486 477 479V475Q477 460 451 460Q444 460 436 460T417 461Q388 463 374 461Q331 457 310 456T288 450V419Q301 420 319 422T363 426Q391 428 411 430T442 432Q477 432 477 413Q477 411 476 395T470 348Q462 287 461 280Q468 277
468 263Q468 239 440 238Q427 237 415 237T391 237Q312 237 301 255L290 254Q300 235 303 207L369 210Q388 214 415 218T480 227Q493 227 496 220Q496 219 497 201T508 146Q513 128 515 115T518 91Q519 85 519 79T519 68Q519 12 495 10Q489 10 468 12T423 17T385
20Q361 20 323 17T234 8Q185 3 148 0T86 -5ZM247 731Q243 733 240 734T231 740Q222 748 211 758T185 782Q179 786 181 790Q184 796 191 796Q197 796 205 792Q213 790 219 784T229 772Q237 759 242 754T250 747H251Q254 747 258 756L263 767Q252 772 245 777T229
805Q223 821 205 834Q194 842 178 844Q160 846 150 848T136 851Q121 857 112 866Q110 856 115 844T135 825Q147 820 155 820Q161 820 169 824Q170 825 174 825Q179 825 186 822Q211 812 201 806Q193 799 178 799Q169 799 160 802Q137 810 127 812T118 814Q103 820
96 832T89 858Q89 867 92 874Q111 921 120 930Q125 935 132 935Q135 935 137 935T143 933Q147 932 166 919Q241 873 283 810Q284 808 285 806T287 802Q292 795 292 790T292 781Q285 741 273 735Q257 727 247 731Z" />
<glyph unicode="&#xc9;" glyph-name="Eacute" horiz-adv-x="529" d="M86 -5Q56 -6 54 18V21Q54 39 73 41Q90 40 115 39T173 37Q132 67 132 129Q132 191 179 212Q188 216 196 247Q207 285 225 304T289 324Q302 324 314 321T336 309Q339 307 349 298T376 273H382Q392
273 411 276T440 281Q431 322 431 382Q422 346 384 346Q358 346 350 364T335 400Q324 399 314 399T296 399Q261 399 261 405L268 414Q261 427 253 455V459Q253 474 262 478Q271 483 287 482Q286 520 309 547T372 575Q422 575 422 522Q422 511 419 500Q424 502 429
502T441 504L440 514Q438 522 435 534T429 562Q428 581 435 621Q416 617 392 614T337 610L238 607Q232 582 191 538Q156 500 156 475Q156 468 162 452T168 426Q170 397 142 373Q113 349 83 352Q88 285 91 218T95 83V75Q95 54 87 53H82Q63 53 63 71Q63 75 64 85T66
102Q65 114 62 140T56 192T52 230Q50 266 49 339Q48 376 47 403T45 448Q45 459 42 479T34 524T27 568T24 596Q24 615 35 628T65 642Q79 642 100 639T132 636Q146 637 167 638T218 640Q276 642 304 643Q314 643 333 645T376 651T418 656T445 659Q464 659 467 630Q466
618 466 606T466 581L471 492Q476 486 477 479V475Q477 460 451 460Q444 460 436 460T417 461Q388 463 374 461Q331 457 310 456T288 450V419Q301 420 319 422T363 426Q391 428 411 430T442 432Q477 432 477 413Q477 411 476 395T470 348Q462 287 461 280Q468 277
468 263Q468 239 440 238Q427 237 415 237T391 237Q312 237 301 255L290 254Q300 235 303 207L369 210Q388 214 415 218T480 227Q493 227 496 220Q496 219 497 201T508 146Q513 128 515 115T518 91Q519 85 519 79T519 68Q519 12 495 10Q489 10 468 12T423 17T385
20Q361 20 323 17T234 8Q185 3 148 0T86 -5ZM253 728Q214 737 208 749Q203 759 203 767Q203 770 205 776Q209 784 215 791Q223 799 234 810T259 835Q264 840 267 838Q272 836 272 829Q272 822 268 814Q265 807 259 801T246 791Q233 784 228 779T221 771Q221 770
221 770T220 769Q220 767 229 763L240 758Q245 769 251 775T280 789Q296 795 310 812Q320 825 321 838Q323 856 326 866T330 880Q338 897 346 903Q343 904 337 904Q328 904 319 899T304 882Q301 876 300 871T299 861Q299 858 299 855T301 849Q302 847 302 844Q302
839 299 831Q288 808 282 817Q276 828 276 839Q276 844 277 849T280 859Q287 878 290 888T294 900Q301 914 313 920T337 927Q348 927 355 923Q401 903 409 892Q414 887 414 880Q414 875 411 869Q410 867 407 862T397 847Q348 775 283 737Q275 733 268 730T253 728ZM294
900Q294 900 294 900T294 900V900Z" />
<glyph unicode="&#xca;" glyph-name="Ecircumflex" horiz-adv-x="529" d="M86 -5Q56 -6 54 18V21Q54 39 73 41Q90 40 115 39T173 37Q132 67 132 129Q132 191 179 212Q188 216 196 247Q207 285 225 304T289 324Q302 324 314 321T336 309Q339 307 349 298T376 273H382Q392
273 411 276T440 281Q431 322 431 382Q422 346 384 346Q358 346 350 364T335 400Q324 399 314 399T296 399Q261 399 261 405L268 414Q261 427 253 455V459Q253 474 262 478Q271 483 287 482Q286 520 309 547T372 575Q422 575 422 522Q422 511 419 500Q424 502 429
502T441 504L440 514Q438 522 435 534T429 562Q428 581 435 621Q416 617 392 614T337 610L238 607Q232 582 191 538Q156 500 156 475Q156 468 162 452T168 426Q170 397 142 373Q113 349 83 352Q88 285 91 218T95 83V75Q95 54 87 53H82Q63 53 63 71Q63 75 64 85T66
102Q65 114 62 140T56 192T52 230Q50 266 49 339Q48 376 47 403T45 448Q45 459 42 479T34 524T27 568T24 596Q24 615 35 628T65 642Q79 642 100 639T132 636Q146 637 167 638T218 640Q276 642 304 643Q314 643 333 645T376 651T418 656T445 659Q464 659 467 630Q466
618 466 606T466 581L471 492Q476 486 477 479V475Q477 460 451 460Q444 460 436 460T417 461Q388 463 374 461Q331 457 310 456T288 450V419Q301 420 319 422T363 426Q391 428 411 430T442 432Q477 432 477 413Q477 411 476 395T470 348Q462 287 461 280Q468 277
468 263Q468 239 440 238Q427 237 415 237T391 237Q312 237 301 255L290 254Q300 235 303 207L369 210Q388 214 415 218T480 227Q493 227 496 220Q496 219 497 201T508 146Q513 128 515 115T518 91Q519 85 519 79T519 68Q519 12 495 10Q489 10 468 12T423 17T385
20Q361 20 323 17T234 8Q185 3 148 0T86 -5ZM114 718Q114 721 89 740Q83 744 77 750T62 764Q55 769 55 774Q55 776 54 781T56 788Q62 790 72 803T110 824Q124 829 133 838T147 858Q151 866 171 876Q185 885 196 893T208 902Q216 910 226 918T249 934H254Q261 934
267 929Q269 928 279 920T300 904T314 894Q315 894 315 893T314 892Q314 892 307 886T293 872T283 860Q282 859 282 858T281 855L282 854Q287 849 295 847T308 845Q313 845 321 853T336 869T343 877Q360 865 370 857T381 839Q381 831 371 829T347 826Q334 826 324
827T312 827Q309 823 309 820Q309 819 307 814T305 802Q305 793 315 784T358 772Q364 771 376 774T397 778Q408 778 409 772Q413 776 419 779Q424 783 417 787T397 802Q392 807 392 812Q392 814 392 816T393 821V822Q396 825 399 824Q402 824 403 823Q408 821 412
817T434 801Q442 794 443 787T446 778Q446 777 442 777T426 765L382 727Q378 724 375 723T369 721Q363 721 360 725L339 756Q335 762 312 771Q308 773 303 777T289 788L265 810Q262 813 253 822T234 841T216 855Q203 846 203 840Q204 836 213 827T231 811T239 802V800Q210
774 184 772Q174 772 169 776Q168 777 163 784T154 797T147 804Q142 804 136 796T119 778T89 765Q97 760 103 749T110 739Q113 739 114 740Q123 748 138 760T156 769L161 764L167 761Q167 760 163 756T156 750L132 732Q115 718 114 718Z" />
<glyph unicode="&#xcb;" glyph-name="Edieresis" horiz-adv-x="529" d="M86 -5Q56 -6 54 18V21Q54 39 73 41Q90 40 115 39T173 37Q132 67 132 129Q132 191 179 212Q188 216 196 247Q207 285 225 304T289 324Q302 324 314 321T336 309Q339 307 349 298T376 273H382Q392
273 411 276T440 281Q431 322 431 382Q422 346 384 346Q358 346 350 364T335 400Q324 399 314 399T296 399Q261 399 261 405L268 414Q261 427 253 455V459Q253 474 262 478Q271 483 287 482Q286 520 309 547T372 575Q422 575 422 522Q422 511 419 500Q424 502 429
502T441 504L440 514Q438 522 435 534T429 562Q428 581 435 621Q416 617 392 614T337 610L238 607Q232 582 191 538Q156 500 156 475Q156 468 162 452T168 426Q170 397 142 373Q113 349 83 352Q88 285 91 218T95 83V75Q95 54 87 53H82Q63 53 63 71Q63 75 64 85T66
102Q65 114 62 140T56 192T52 230Q50 266 49 339Q48 376 47 403T45 448Q45 459 42 479T34 524T27 568T24 596Q24 615 35 628T65 642Q79 642 100 639T132 636Q146 637 167 638T218 640Q276 642 304 643Q314 643 333 645T376 651T418 656T445 659Q464 659 467 630Q466
618 466 606T466 581L471 492Q476 486 477 479V475Q477 460 451 460Q444 460 436 460T417 461Q388 463 374 461Q331 457 310 456T288 450V419Q301 420 319 422T363 426Q391 428 411 430T442 432Q477 432 477 413Q477 411 476 395T470 348Q462 287 461 280Q468 277
468 263Q468 239 440 238Q427 237 415 237T391 237Q312 237 301 255L290 254Q300 235 303 207L369 210Q388 214 415 218T480 227Q493 227 496 220Q496 219 497 201T508 146Q513 128 515 115T518 91Q519 85 519 79T519 68Q519 12 495 10Q489 10 468 12T423 17T385
20Q361 20 323 17T234 8Q185 3 148 0T86 -5ZM351 727Q301 727 281 757Q262 785 262 811Q262 836 289 849Q289 859 303 865T333 875T357 879Q377 879 393 868Q439 837 437 808Q434 761 415 744T351 727ZM145 727Q95 727 75 757Q56 785 56 811Q56 836 83 849Q83 859
97 865T127 875T151 879Q171 879 187 868Q233 837 231 808Q228 761 209 744T145 727ZM373 740Q382 740 389 744Q426 768 420 801Q414 828 404 841Q401 846 397 849T389 853Q382 855 373 856T354 862Q350 865 343 865Q330 865 324 857Q321 851 321 848Q321 839 331
837T340 826Q339 819 332 810T325 793Q325 786 332 786Q341 786 354 791T379 799T389 796Q386 786 372 771T354 744Q363 740 373 740ZM160 742Q171 742 179 747Q193 753 208 769T221 797Q219 801 209 807T190 817T180 812Q180 802 177 785T168 767Q147 767 133
782Q126 790 123 811T113 841Q94 831 92 813Q89 768 119 754Q143 742 160 742Z" />
<glyph unicode="&#xcc;" glyph-name="Igrave" horiz-adv-x="338" d="M84 -2Q26 -5 24 31Q24 48 34 75Q46 109 48 144T51 216Q51 245 50 282T47 367Q46 399 44 431T40 495Q40 507 37 533T31 586T27 621Q27 642 51 642Q57 642 70 640T89 638Q110 639 186 647Q196
648 211 653T241 664T266 670Q273 670 283 656T293 635Q293 630 276 625T235 615T189 607T158 604Q187 578 248 572Q246 578 245 591V593Q245 605 259 607Q267 607 276 601T286 587Q287 580 283 562T279 534Q279 524 281 507T287 473T290 446V439Q290 419 281 417Q257
427 255 448Q248 444 242 443T231 440Q221 440 203 444T175 449Q167 449 151 445T125 440Q101 439 70 457Q71 444 72 421T74 363Q96 354 108 333Q116 320 121 312T130 300Q137 294 150 289T181 277Q213 267 231 252T252 199Q254 170 230 139Q207 107 207 98Q209
83 218 71Q226 73 239 76T270 81Q271 86 271 94T271 116Q271 141 270 182T267 280Q266 294 263 320T258 360V364Q258 387 276 387H278Q293 387 295 365V306Q295 261 295 204T297 75Q324 65 326 46Q326 38 319 28T301 9T283 1Q277 1 261 9T231 18Q222 18 202 15T159
9T115 2T84 -2ZM159 731Q155 733 152 734T143 740Q134 748 123 758T97 782Q91 786 93 790Q96 796 103 796Q109 796 117 792Q125 790 131 784T141 772Q149 759 154 754T162 747H163Q166 747 170 756L175 767Q164 772 157 777T141 805Q135 821 117 834Q106 842 90
844Q72 846 62 848T48 851Q33 857 24 866Q22 856 27 844T47 825Q59 820 67 820Q73 820 81 824Q82 825 86 825Q91 825 98 822Q123 812 113 806Q105 799 90 799Q81 799 72 802Q49 810 39 812T30 814Q15 820 8 832T1 858Q1 867 4 874Q23 921 32 930Q37 935 44 935Q47
935 49 935T55 933Q59 932 78 919Q153 873 195 810Q196 808 197 806T199 802Q204 795 204 790T204 781Q197 741 185 735Q169 727 159 731Z" />
<glyph unicode="&#xcd;" glyph-name="Iacute" horiz-adv-x="338" d="M84 -2Q26 -5 24 31Q24 48 34 75Q46 109 48 144T51 216Q51 245 50 282T47 367Q46 399 44 431T40 495Q40 507 37 533T31 586T27 621Q27 642 51 642Q57 642 70 640T89 638Q110 639 186 647Q196
648 211 653T241 664T266 670Q273 670 283 656T293 635Q293 630 276 625T235 615T189 607T158 604Q187 578 248 572Q246 578 245 591V593Q245 605 259 607Q267 607 276 601T286 587Q287 580 283 562T279 534Q279 524 281 507T287 473T290 446V439Q290 419 281 417Q257
427 255 448Q248 444 242 443T231 440Q221 440 203 444T175 449Q167 449 151 445T125 440Q101 439 70 457Q71 444 72 421T74 363Q96 354 108 333Q116 320 121 312T130 300Q137 294 150 289T181 277Q213 267 231 252T252 199Q254 170 230 139Q207 107 207 98Q209
83 218 71Q226 73 239 76T270 81Q271 86 271 94T271 116Q271 141 270 182T267 280Q266 294 263 320T258 360V364Q258 387 276 387H278Q293 387 295 365V306Q295 261 295 204T297 75Q324 65 326 46Q326 38 319 28T301 9T283 1Q277 1 261 9T231 18Q222 18 202 15T159
9T115 2T84 -2ZM165 728Q126 737 120 749Q115 759 115 767Q115 770 117 776Q121 784 127 791Q135 799 146 810T171 835Q176 840 179 838Q184 836 184 829Q184 822 180 814Q177 807 171 801T158 791Q145 784 140 779T133 771Q133 770 133 770T132 769Q132 767 141
763L152 758Q157 769 163 775T192 789Q208 795 222 812Q232 825 233 838Q235 856 238 866T242 880Q250 897 258 903Q255 904 249 904Q240 904 231 899T216 882Q213 876 212 871T211 861Q211 858 211 855T213 849Q214 847 214 844Q214 839 211 831Q200 808 194 817Q188
828 188 839Q188 844 189 849T192 859Q199 878 202 888T206 900Q213 914 225 920T249 927Q260 927 267 923Q313 903 321 892Q326 887 326 880Q326 875 323 869Q322 867 319 862T309 847Q260 775 195 737Q187 733 180 730T165 728ZM206 900Q206 900 206 900T206
900V900Z" />
<glyph unicode="&#xce;" glyph-name="Icircumflex" horiz-adv-x="338" d="M84 -2Q26 -5 24 31Q24 48 34 75Q46 109 48 144T51 216Q51 245 50 282T47 367Q46 399 44 431T40 495Q40 507 37 533T31 586T27 621Q27 642 51 642Q57 642 70 640T89 638Q110 639 186 647Q196
648 211 653T241 664T266 670Q273 670 283 656T293 635Q293 630 276 625T235 615T189 607T158 604Q187 578 248 572Q246 578 245 591V593Q245 605 259 607Q267 607 276 601T286 587Q287 580 283 562T279 534Q279 524 281 507T287 473T290 446V439Q290 419 281 417Q257
427 255 448Q248 444 242 443T231 440Q221 440 203 444T175 449Q167 449 151 445T125 440Q101 439 70 457Q71 444 72 421T74 363Q96 354 108 333Q116 320 121 312T130 300Q137 294 150 289T181 277Q213 267 231 252T252 199Q254 170 230 139Q207 107 207 98Q209
83 218 71Q226 73 239 76T270 81Q271 86 271 94T271 116Q271 141 270 182T267 280Q266 294 263 320T258 360V364Q258 387 276 387H278Q293 387 295 365V306Q295 261 295 204T297 75Q324 65 326 46Q326 38 319 28T301 9T283 1Q277 1 261 9T231 18Q222 18 202 15T159
9T115 2T84 -2ZM282 718Q282 721 257 740Q251 744 245 750T230 764Q223 769 223 774Q223 776 222 781T224 788Q230 790 240 803T278 824Q292 829 301 838T315 858Q319 866 339 876Q353 885 364 893T376 902Q384 910 394 918T417 934H422Q429 934 435 929Q437 928
447 920T468 904T482 894Q483 894 483 893T482 892Q482 892 475 886T461 872T451 860Q450 859 450 858T449 855L450 854Q455 849 463 847T476 845Q481 845 489 853T504 869T511 877Q528 865 538 857T549 839Q549 831 539 829T515 826Q502 826 492 827T480 827Q477
823 477 820Q477 819 475 814T473 802Q473 793 483 784T526 772Q532 771 544 774T565 778Q576 778 577 772Q581 776 587 779Q592 783 585 787T565 802Q560 807 560 812Q560 814 560 816T561 821V822Q564 825 567 824Q570 824 571 823Q576 821 580 817T602 801Q610
794 611 787T614 778Q614 777 610 777T594 765L550 727Q546 724 543 723T537 721Q531 721 528 725L507 756Q503 762 480 771Q476 773 471 777T457 788L433 810Q430 813 421 822T402 841T384 855Q371 846 371 840Q372 836 381 827T399 811T407 802V800Q378 774 352
772Q342 772 337 776Q336 777 331 784T322 797T315 804Q310 804 304 796T287 778T257 765Q265 760 271 749T278 739Q281 739 282 740Q291 748 306 760T324 769L329 764L335 761Q335 760 331 756T324 750L300 732Q283 718 282 718Z" />
<glyph unicode="&#xcf;" glyph-name="Idieresis" horiz-adv-x="338" d="M84 -2Q26 -5 24 31Q24 48 34 75Q46 109 48 144T51 216Q51 245 50 282T47 367Q46 399 44 431T40 495Q40 507 37 533T31 586T27 621Q27 642 51 642Q57 642 70 640T89 638Q110 639 186 647Q196
648 211 653T241 664T266 670Q273 670 283 656T293 635Q293 630 276 625T235 615T189 607T158 604Q187 578 248 572Q246 578 245 591V593Q245 605 259 607Q267 607 276 601T286 587Q287 580 283 562T279 534Q279 524 281 507T287 473T290 446V439Q290 419 281 417Q257
427 255 448Q248 444 242 443T231 440Q221 440 203 444T175 449Q167 449 151 445T125 440Q101 439 70 457Q71 444 72 421T74 363Q96 354 108 333Q116 320 121 312T130 300Q137 294 150 289T181 277Q213 267 231 252T252 199Q254 170 230 139Q207 107 207 98Q209
83 218 71Q226 73 239 76T270 81Q271 86 271 94T271 116Q271 141 270 182T267 280Q266 294 263 320T258 360V364Q258 387 276 387H278Q293 387 295 365V306Q295 261 295 204T297 75Q324 65 326 46Q326 38 319 28T301 9T283 1Q277 1 261 9T231 18Q222 18 202 15T159
9T115 2T84 -2ZM519 727Q469 727 449 757Q430 785 430 811Q430 836 457 849Q457 859 471 865T501 875T525 879Q545 879 561 868Q607 837 605 808Q602 761 583 744T519 727ZM313 727Q263 727 243 757Q224 785 224 811Q224 836 251 849Q251 859 265 865T295 875T319
879Q339 879 355 868Q401 837 399 808Q396 761 377 744T313 727ZM541 740Q550 740 557 744Q594 768 588 801Q582 828 572 841Q569 846 565 849T557 853Q550 855 541 856T522 862Q518 865 511 865Q498 865 492 857Q489 851 489 848Q489 839 499 837T508 826Q507
819 500 810T493 793Q493 786 500 786Q509 786 522 791T547 799T557 796Q554 786 540 771T522 744Q531 740 541 740ZM328 742Q339 742 347 747Q361 753 376 769T389 797Q387 801 377 807T358 817T348 812Q348 802 345 785T336 767Q315 767 301 782Q294 790 291
811T281 841Q262 831 260 813Q257 768 287 754Q311 742 328 742Z" />
</font>
</defs>
</svg>
