<?xml version="1.0" standalone="no"?>
<!DOCTYPE svg PUBLIC "-//W3C//DTD SVG 1.1//EN" "http://www.w3.org/Graphics/SVG/1.1/DTD/svg11.dtd">
<svg xmlns="http://www.w3.org/2000/svg">
<defs >
<font id="Chilanka" horiz-adv-x="1783" ><font-face
    font-family="Chilanka"
    units-per-em="2048"
    panose-1="2 0 5 3 0 0 0 0 0 0"
    ascent="1500"
    descent="-750"
    alphabetic="0" />
<glyph unicode=" " glyph-name="space" horiz-adv-x="560" />
<glyph unicode="!" glyph-name="exclam" horiz-adv-x="409" d="M204 253Q146 253 126 296T105 411V442Q96 527 96 640Q96 853 128 1163Q131 1190 151 1209T196 1229Q221 1229 238 1211T259 1171Q297 921 297 644Q297 541 292 434Q291 426 291 415Q291 405 291
396T292 375Q292 325 272 289T204 253ZM101 -99Q101 -67 112 -23T146 56T200 90Q241 90 260 58Q315 -34 315 -107Q315 -156 290 -194T213 -232Q195 -232 178 -225Q101 -194 101 -99Z" />
<glyph unicode="&quot;" glyph-name="quotedbl" horiz-adv-x="526" d="M76 1208Q76 1248 85 1290T115 1360T169 1389Q190 1389 215 1375Q275 1342 275 1231Q275 1138 234 993Q228 973 212 960T171 947Q142 947 127 961T105 1006Q76 1124 76 1208ZM322 1202Q322
1242 331 1284T361 1354T415 1383Q436 1383 461 1369Q521 1336 521 1225Q521 1132 480 987Q474 967 458 954T417 941Q388 941 373 955T351 1000Q322 1118 322 1202Z" />
<glyph unicode="#" glyph-name="numbersign" horiz-adv-x="1590" d="M165 312Q139 312 120 331T100 377Q100 403 119 422T165 442H422L566 843H312Q286 843 267 862T247 908Q247 934 266 953T312 973H613L720 1272Q738 1320 768 1320Q776 1320 785 1317Q847 1295
847 1253Q847 1242 842 1228L751 973H1149L1259 1271Q1277 1319 1308 1319Q1316 1319 1325 1316Q1386 1294 1386 1252Q1386 1240 1381 1226L1288 973H1425Q1451 973 1470 954T1490 908Q1490 882 1471 863T1425 843H1240L1092 442H1398Q1424 442 1443 423T1463 377Q1463
351 1444 332T1398 312H1044L929 -1Q911 -49 880 -49Q872 -49 863 -46Q802 -24 802 18Q802 30 807 44L905 312H513L407 16Q389 -33 357 -33Q350 -33 341 -30Q279 -8 279 34Q279 46 284 60L375 312H165ZM953 442L1101 843H704L560 442H953Z" />
<glyph unicode="$" glyph-name="dollar" horiz-adv-x="1316" d="M1050 1038Q1050 1014 1028 990T984 966Q965 966 942 983Q876 1033 805 1071T656 1135Q655 1050 655 965T654 793Q656 793 670 792T711 789Q1117 766 1199 489Q1217 429 1217 369Q1217 261 1158
155Q1045 -49 812 -115Q733 -137 650 -137L649 -281Q649 -310 629 -327T583 -345Q557 -345 538 -326Q520 -308 520 -148Q520 -135 520 -122Q385 -90 278 3T119 218Q111 236 111 251Q111 274 134 292T186 311Q221 311 239 269Q321 75 520 13Q521 178 522 342T524
672Q330 693 238 771Q100 889 100 1019Q100 1066 118 1114Q151 1203 233 1255T439 1307Q481 1307 527 1300Q527 1347 535 1385T592 1424Q618 1424 637 1405T657 1359V1271Q854 1213 1020 1087Q1050 1065 1050 1038ZM437 1178Q386 1178 338 1160T259 1109T227 1032Q227
1015 233 997Q258 924 318 873Q379 821 524 803L526 1169Q478 1178 437 1178ZM650 -7Q836 -7 965 115Q1087 231 1087 363Q1087 406 1074 452Q1026 616 798 650Q770 655 725 658T654 663Q653 496 652 328T650 -7Z" />
<glyph unicode="%" glyph-name="percent" horiz-adv-x="1237" d="M221 -54Q197 -54 173 -38T149 2Q149 20 164 44L798 1067L652 997Q643 993 634 990T617 983Q610 883 551 833Q456 754 353 754Q287 754 218 787Q100 844 100 948Q100 1122 336 1301Q356 1316 378
1316Q423 1316 438 1266Q457 1280 476 1280Q540 1280 597 1115L942 1280Q964 1291 981 1291Q1006 1291 1019 1267T1033 1218Q1033 1201 1025 1187L464 282L669 441Q691 457 711 457Q735 457 758 432Q764 434 774 434Q803 434 857 416Q1065 346 1118 218Q1137 171
1137 130Q1137 59 1080 6Q1034 -37 968 -63T834 -90Q782 -90 735 -72T653 -11Q593 63 593 170Q593 194 596 220L259 -41Q241 -54 221 -54ZM224 971Q224 934 265 910T348 886Q365 886 382 890Q483 917 487 995Q412 1046 410 1194Q224 1050 224 971ZM719 161Q719
101 756 70T844 39Q887 39 920 52T977 88Q1009 118 1009 143Q1009 152 1005 161Q966 241 763 310Q760 311 757 313T751 316Q719 220 719 161Z" />
<glyph unicode="&amp;" glyph-name="ampersand" horiz-adv-x="1289" d="M1115 635Q1146 635 1168 617T1190 575Q1190 561 1184 545Q1129 393 994 267Q1092 160 1092 119Q1092 98 1078 81T1044 52Q1032 45 1021 45Q995 45 972 82Q941 133 893 184Q716 56 517 17Q461
6 412 6Q304 6 224 63T144 232Q144 318 183 405T268 543Q297 574 311 590T327 607Q176 737 139 842Q100 952 100 1039Q100 1183 191 1256T420 1329Q520 1329 611 1292T759 1186T817 1022Q817 874 639 724Q610 699 581 674T524 622Q545 608 587 580T691 511Q753
471 805 432T900 357Q1015 463 1062 590Q1078 635 1115 635ZM424 1199Q331 1199 281 1158T230 1038Q230 916 291 836Q349 761 419 701Q452 733 486 763T556 824Q690 936 690 1014Q690 1024 688 1034Q670 1107 594 1153T424 1199ZM796 275Q717 339 600 415Q481 492
431 528Q324 414 287 314Q271 271 271 239Q271 185 309 161T410 137Q452 137 504 147Q649 175 796 275Z" />
<glyph unicode="&apos;" glyph-name="quotesingle" horiz-adv-x="368" d="M76 1208Q76 1248 85 1290T115 1360T169 1389Q190 1389 215 1375Q275 1342 275 1231Q275 1138 234 993Q228 973 212 960T172 947Q120 947 105 1006Q76 1124 76 1208Z" />
<glyph unicode="(" glyph-name="parenleft" horiz-adv-x="721" d="M622 -296Q622 -319 599 -341T552 -364Q528 -364 505 -339Q100 105 100 537Q100 877 351 1209Q482 1383 516 1385Q546 1388 569 1369T592 1325Q592 1297 562 1262Q332 999 264 769Q225 636 225
522Q225 440 245 368Q336 40 601 -251Q622 -274 622 -296Z" />
<glyph unicode=")" glyph-name="parenright" horiz-adv-x="721" d="M100 -296Q100 -274 121 -251Q386 40 477 368Q497 440 497 522Q497 636 458 769Q390 999 160 1262Q130 1297 130 1325Q130 1351 153 1369T206 1385Q240 1383 371 1209Q622 877 622 537Q622 105
217 -339Q194 -364 170 -364Q147 -364 124 -342T100 -296Z" />
<glyph unicode="*" glyph-name="asterisk" horiz-adv-x="1182" d="M945 645Q945 618 927 599T880 580Q853 580 834 599L592 841L350 599Q331 580 304 580Q277 580 258 598T239 644Q239 672 258 691L486 919L137 1035Q116 1042 105 1060T93 1098Q93 1124 118 1147T178
1158L524 1043V1353Q524 1384 543 1405T592 1426Q619 1426 638 1407T657 1361V1051L1003 1166Q1013 1169 1023 1169Q1050 1169 1069 1151T1089 1106Q1089 1083 1076 1066T1044 1043L691 925L926 691Q945 672 945 645Z" />
<glyph unicode="+" glyph-name="plus" horiz-adv-x="1408" d="M1243 701Q1269 701 1288 682T1308 636Q1308 610 1289 591T1243 571H805V-8Q805 -34 786 -53T740 -73Q714 -73 695 -54T675 -8V571H165Q139 571 120 590T100 636Q100 662 119 681T165 701H675V1204Q675
1230 694 1249T740 1269Q766 1269 785 1250T805 1204V701H1243Z" />
<glyph unicode="," glyph-name="comma" horiz-adv-x="445" d="M223 159Q291 159 317 110T343 -3Q343 -59 330 -120T299 -231T267 -309Q242 -357 234 -364Q216 -394 177 -394Q148 -394 126 -369T119 -303Q138 -248 138 -210Q138 -198 136 -188Q129 -147 123 -117T111
-67Q100 -31 100 3Q100 49 119 84T168 141Q193 159 223 159Z" />
<glyph unicode="-" glyph-name="hyphen" horiz-adv-x="783" d="M172 425Q145 425 126 444T107 490Q107 517 126 536T172 555H613Q640 555 659 536T678 490Q678 463 659 444T613 425H172Z" />
<glyph unicode="." glyph-name="period" horiz-adv-x="422" d="M321 86Q321 43 291 11T212 -21Q157 -21 129 15T101 102Q101 126 107 151Q111 169 125 196T159 245T201 266Q232 266 259 236T304 163T321 86Z" />
<glyph unicode="/" glyph-name="slash" horiz-adv-x="1039" d="M166 -177Q139 -177 120 -158T100 -112Q100 -98 107 -84L815 1367Q833 1403 872 1403Q898 1403 919 1386T940 1342Q940 1327 933 1312L224 -140Q217 -155 202 -166T166 -177Z" />
<glyph unicode="0" glyph-name="zero" horiz-adv-x="1144" d="M656 1225Q838 1192 952 954Q1048 754 1048 565Q1048 442 1019 338T947 183Q809 18 606 18Q318 18 178 325Q100 498 100 705Q100 848 129 964T214 1151Q363 1350 569 1350Q615 1350 653 1336T692 1276Q692
1247 656 1225ZM554 1162Q554 1200 585 1220Q574 1221 563 1221Q475 1221 412 1176T309 1057T250 890T230 702Q230 528 296 382Q402 147 602 147Q806 147 879 333Q917 431 917 543Q917 643 887 755Q822 995 692 1074Q653 1098 622 1099Q554 1103 554 1162Z" />
<glyph unicode="1" glyph-name="one" horiz-adv-x="476" d="M100 1306Q100 1340 125 1357T180 1374Q236 1374 274 1339Q327 1290 343 1211T366 1030Q376 891 376 751Q376 566 358 379L326 52Q323 24 304 10T261 -4Q237 -4 217 11T196 57Q196 60 196 64L228 392Q246
578 246 757Q246 822 244 907T233 1071T208 1192Q187 1245 182 1243Q173 1240 164 1240Q137 1240 119 1260T100 1306Z" />
<glyph unicode="2" glyph-name="two" horiz-adv-x="1331" d="M166 1013Q143 1013 120 1035T96 1079Q96 1100 115 1123Q314 1358 514 1374Q540 1376 565 1376Q729 1376 834 1282Q901 1222 934 1154T967 995Q967 878 906 779Q745 518 439 185Q515 200 604 200Q662
200 735 192T881 174T1007 165Q1077 165 1118 179Q1147 189 1169 189Q1198 189 1215 171T1233 121Q1233 80 1183 64Q1084 32 1000 32Q978 32 957 34Q858 44 674 73Q635 79 595 79Q445 79 270 -3Q226 -25 197 -25Q170 -25 155 -1T139 41Q139 64 161 85L203 126Q561
477 798 849Q838 917 838 990Q838 1103 749 1184Q681 1246 564 1246Q545 1246 524 1244Q379 1232 214 1039Q192 1013 166 1013Z" />
<glyph unicode="3" glyph-name="three" horiz-adv-x="1181" d="M737 113Q837 113 894 158T951 294Q951 361 915 418T835 502Q787 531 731 531Q671 531 603 499Q588 492 574 492Q547 492 529 513T511 560Q511 593 539 612Q609 657 667 712Q818 854 843 1008Q847
1034 847 1058Q847 1143 798 1195T663 1248Q652 1248 640 1247Q458 1230 239 1020Q220 1002 193 1002Q164 1002 147 1022T130 1068Q130 1095 149 1114Q401 1357 629 1377Q649 1379 668 1379Q816 1379 902 1275Q977 1184 977 1060Q977 1024 971 985Q942 811 795
656Q897 637 964 567T1063 404Q1082 344 1082 289Q1082 214 1047 146Q963 -16 737 -16Q494 -16 132 193Q101 211 101 248Q101 281 131 304T198 305Q530 113 737 113Z" />
<glyph unicode="4" glyph-name="four" horiz-adv-x="1496" d="M1396 622Q1396 596 1377 576T1332 556Q1280 556 1268 608Q1241 620 1166 620Q1053 620 822 592V89Q822 63 803 44T758 24Q732 24 712 43T692 89V575Q688 574 645 569T519 552Q393 536 327 536Q304
536 287 538Q214 547 156 566T97 643Q97 680 112 712T152 773Q230 864 277 919T354 1011T411 1084T474 1174T572 1317Q597 1354 622 1354Q634 1354 646 1346Q692 1315 692 1281Q692 1263 680 1245Q620 1156 583 1102T516 1007T447 920T346 801Q243 679 240 675Q277
668 331 668Q403 668 501 681Q590 693 637 699T692 706V1039Q692 1065 712 1084T758 1104Q784 1104 803 1085T822 1039V723Q1073 754 1191 754Q1257 754 1282 744Q1396 699 1396 622Z" />
<glyph unicode="5" glyph-name="five" horiz-adv-x="1306" d="M372 1394Q433 1394 513 1390T669 1381T797 1376Q891 1376 974 1388T1120 1421Q1133 1426 1145 1426Q1173 1426 1189 1405T1206 1357Q1206 1339 1196 1323T1163 1299Q1008 1246 795 1246Q703 1246
628 1252T450 1265Q404 1268 367 1268Q289 1268 255 1253Q250 1244 244 1201T233 1105T228 1014Q228 906 246 763Q521 883 721 883Q900 883 1008 795T1117 534Q1117 442 1074 345Q1032 252 955 174T772 48T537 0Q429 0 335 28T160 98Q126 115 126 157Q126 187 154
210T219 214Q388 128 534 128Q633 128 716 164T861 261T953 393Q987 469 987 537Q987 643 913 698T719 754Q524 754 224 610Q210 603 195 603Q170 603 153 619T132 655Q124 695 117 762T104 906T99 1052Q99 1095 103 1146T115 1241T132 1304Q148 1340 190 1366Q236
1394 372 1394Z" />
<glyph unicode="6" glyph-name="six" horiz-adv-x="1177" d="M617 1340Q641 1340 658 1321T675 1277Q675 1245 635 1221Q436 1098 305 817Q268 736 250 667T231 526Q231 156 606 156Q826 156 894 243Q945 307 945 376Q945 427 917 475T840 554T732 586Q656 586
584 547T472 470Q428 428 394 428Q370 428 351 449T331 492Q331 516 355 539Q478 656 633 704Q687 721 737 721Q831 721 908 668T1030 535T1076 374Q1076 322 1057 268T997 162Q890 26 608 26Q243 26 132 308Q96 399 96 497Q96 554 108 613Q185 979 396 1190Q546
1340 617 1340Z" />
<glyph unicode="7" glyph-name="seven" horiz-adv-x="1200" d="M968 1053Q968 1189 915 1242T724 1296Q697 1296 667 1294Q491 1282 186 1167Q173 1162 161 1162Q133 1162 116 1183T99 1231Q99 1249 108 1265T140 1289Q515 1430 734 1430Q918 1430 1008 1332T1098
1048Q1098 985 1088 911Q1070 782 994 490Q917 194 904 65Q901 39 881 23T837 7Q811 7 792 28T775 77Q788 216 865 513Q903 662 926 761T957 913Q968 991 968 1053Z" />
<glyph unicode="8" glyph-name="eight" horiz-adv-x="1189" d="M849 997Q819 997 796 1014T772 1051Q772 1059 775 1068T778 1087Q778 1125 718 1157Q651 1193 491 1193Q368 1193 300 1159T231 1055Q231 981 307 883Q362 839 417 801T528 729Q590 776 729 873Q871
972 918 1022Q944 1050 970 1050Q992 1050 1014 1029T1037 984Q1037 958 1008 928Q953 870 822 779Q756 733 715 704T656 662Q667 657 700 642T787 602Q894 555 967 472Q1039 391 1072 325Q1091 288 1091 246Q1091 217 1081 185Q1059 112 960 51Q859 -12 646 -12Q449
-12 344 44Q173 136 173 268Q173 426 420 643Q244 755 206 802Q160 860 130 925T99 1055Q99 1146 158 1205T309 1294T503 1324Q681 1324 771 1276Q913 1199 913 1098Q913 1062 897 1030T849 997ZM540 574Q343 413 310 292Q307 280 307 269Q307 212 388 168Q483
117 645 117Q819 117 888 159Q923 181 943 196T963 231Q963 253 941 290Q867 419 741 480Q695 503 643 526T540 574Z" />
<glyph unicode="9" glyph-name="nine" horiz-adv-x="1114" d="M370 596Q282 596 223 642T133 762T103 920Q103 1074 175 1179T362 1335Q455 1375 564 1375Q748 1375 978 1262Q1014 1244 1014 1205Q1014 1180 997 1159T952 1138Q937 1138 921 1145Q718 1245 565
1245Q448 1245 370 1193T258 1056Q230 984 230 920Q230 886 238 853Q256 787 289 756T368 725Q447 725 557 810Q667 895 793 1065Q812 1090 844 1090Q866 1090 885 1077T909 1040Q941 895 941 669Q941 404 897 29Q894 1 875 -12T833 -26Q808 -26 787 -11T766 35Q766
39 767 44Q809 402 809 664Q809 774 802 868Q751 810 682 747T533 640T370 596Z" />
<glyph unicode=":" glyph-name="colon" horiz-adv-x="462" d="M370 853Q370 809 331 783T242 756Q185 756 148 785T111 865Q111 887 119 911Q128 938 160 977T230 1016Q263 1016 295 990T348 926T370 853ZM362 171Q362 127 323 101T234 74Q177 74 140 103T103
183Q103 205 111 229Q120 256 152 295T222 334Q255 334 287 308T340 244T362 171Z" />
<glyph unicode=";" glyph-name="semicolon" horiz-adv-x="425" d="M335 686Q335 643 304 611T226 578Q171 578 144 613T116 700Q116 725 122 750Q126 768 140 795T173 844T216 866Q246 866 273 836T318 763T335 686ZM238 431Q306 431 331 382T357 269Q357 213
344 152T313 41T281 -37Q256 -85 248 -92Q230 -123 190 -123Q161 -123 140 -98T133 -31Q152 24 152 62Q152 74 150 84Q143 125 137 155T125 205Q114 241 114 275Q114 320 133 355T182 412Q208 431 238 431Z" />
<glyph unicode="&lt;" glyph-name="less" horiz-adv-x="1250" d="M1060 967Q1074 972 1086 972Q1114 972 1130 952T1147 906Q1147 887 1137 871T1106 846Q1061 829 974 796T783 722T578 643T404 575T307 533Q263 512 238 490Q261 471 320 443Q370 420 498 372T824
255Q914 224 985 199T1108 156Q1128 149 1139 131T1150 93Q1150 66 1125 43T1064 33Q1012 51 940 77T777 134Q620 189 519 225T348 289T217 348Q181 367 140 401T99 487Q99 510 109 534Q128 578 166 602T248 649Q342 696 703 832Q927 916 1060 967Z" />
<glyph unicode="=" glyph-name="equal" horiz-adv-x="866" d="M179 757Q151 757 128 774T104 819Q104 847 127 864T179 882H691Q720 882 743 865T766 819Q766 791 743 774T691 757H179ZM176 343Q147 343 124 361T100 408Q100 437 123 455T176 473H690Q719 473
742 455T766 408Q766 380 743 362T690 343H176Z" />
<glyph unicode="&gt;" glyph-name="greater" horiz-adv-x="1250" d="M191 967Q325 916 548 832Q909 696 1003 649Q1046 627 1084 603T1142 534Q1152 510 1152 487Q1152 436 1111 402T1034 348Q973 317 904 289T732 225T473 134Q383 103 311 77T187 33Q151 20 126
43T101 93Q101 113 112 131T143 156Q195 174 265 199T426 255Q624 324 752 372T930 443Q959 457 979 468T1013 490Q988 512 944 533Q853 579 502 710Q390 752 301 786T144 846Q123 854 114 870T104 905Q104 930 120 951T164 972Q177 972 191 967Z" />
<glyph unicode="?" glyph-name="question" horiz-adv-x="984" d="M394 1277Q323 1277 277 1241T230 1129Q230 1093 240 1048Q242 1040 242 1033Q242 1004 221 988T174 971Q153 971 135 983T112 1021Q100 1079 100 1129Q100 1258 184 1332T391 1406Q473 1406 574
1374Q844 1287 880 1142Q884 1125 884 1108Q884 989 687 827Q589 747 547 685Q506 625 506 550Q506 498 525 447T577 353Q591 335 591 315Q591 288 569 269T521 249Q492 249 473 274Q377 401 377 557Q377 664 450 774Q490 833 591 916Q690 997 741 1067Q763 1092
758 1114Q751 1144 708 1171T614 1220T529 1252Q453 1277 394 1277ZM518 -131Q471 -131 442 -89T412 2Q412 52 441 93T518 135Q565 135 594 94T623 2Q623 -47 594 -89T518 -131Z" />
<glyph unicode="@" glyph-name="at" horiz-adv-x="1555" d="M708 -40Q561 -40 480 48T399 285Q399 388 443 469T551 600Q633 664 759 664Q880 664 941 620T1044 486Q1062 446 1062 399Q1062 361 1057 343T1054 273Q1056 243 1067 206T1095 137T1131 94Q1140 86
1154 86Q1178 86 1216 115Q1269 154 1296 233T1323 400Q1323 502 1290 587Q1212 787 957 845Q841 871 743 871Q413 871 287 572Q267 523 255 469T230 356Q228 349 228 335Q228 205 269 102T383 -78Q515 -219 742 -219Q758 -219 775 -218T809 -217Q839 -217 854
-237T870 -283Q870 -306 856 -325T812 -347Q778 -350 746 -350Q594 -350 479 -299T288 -167Q128 5 104 255Q100 294 100 326Q100 366 106 397Q133 578 212 713T425 924T748 999Q867 999 1003 968Q1309 897 1411 634Q1456 519 1456 402Q1456 310 1428 217Q1413 165
1376 104T1284 0T1161 -44Q1084 -44 1036 2T962 111Q876 -20 764 -36Q736 -40 708 -40ZM765 534Q652 534 591 464T530 280Q530 225 548 180T600 118Q669 87 715 87Q724 87 732 88Q844 105 925 338Q931 354 931 395Q931 426 914 456T883 502Q869 518 835 526T765
534Z" />
<glyph unicode="A" glyph-name="A" horiz-adv-x="1370" d="M163 -39Q140 -39 119 -20T100 24Q136 507 255 893Q374 1277 539 1402Q607 1453 671 1453Q853 1453 1012 1051Q1151 698 1254 125L1270 37Q1271 31 1271 26Q1271 -4 1250 -20T1203 -37Q1182 -37 1164
-25T1141 15L1126 102Q1103 231 1078 348T1026 572H309Q250 280 230 20Q228 -6 208 -22T163 -39ZM338 702H992Q880 1101 760 1252Q732 1288 704 1304Q678 1318 666 1317Q602 1309 540 1216Q420 1036 338 702Z" />
<glyph unicode="B" glyph-name="B" horiz-adv-x="1155" d="M671 728Q764 699 852 647T997 518T1055 341Q1055 204 935 104Q771 -34 464 -34Q320 -34 158 -1Q138 4 123 21T106 61L100 1373Q100 1399 118 1417T159 1438Q225 1444 291 1444Q439 1444 573 1412T806
1314T948 1149Q971 1095 971 1043Q971 964 925 902T810 797T671 728ZM233 775Q248 783 289 786Q311 788 337 790T395 797Q696 837 801 956Q840 1001 840 1048Q840 1073 829 1098Q797 1171 713 1219T518 1292T298 1316Q265 1316 230 1314L233 775ZM257 654Q242 659
233 663L236 116Q353 96 464 96Q723 96 852 204Q926 266 926 340Q926 390 895 436T808 521Q624 648 257 654Z" />
<glyph unicode="C" glyph-name="C" horiz-adv-x="1370" d="M814 -19Q611 -19 450 51T195 258T101 592Q101 755 163 894T324 1140T533 1312Q746 1437 996 1437Q1097 1437 1204 1417Q1230 1412 1242 1394T1254 1355Q1254 1330 1239 1310T1194 1289Q1187 1289 1180
1290Q1087 1308 999 1308Q782 1308 598 1200Q506 1146 422 1056T284 848T230 595Q230 432 307 325T516 164T816 111Q982 111 1190 160Q1198 162 1206 162Q1235 162 1252 141T1269 94Q1269 74 1257 57T1220 34Q996 -19 814 -19Z" />
<glyph unicode="D" glyph-name="D" horiz-adv-x="1093" d="M106 53L100 1366Q100 1390 115 1408T151 1430Q225 1446 295 1446Q480 1446 644 1338Q732 1280 812 1183T942 961T993 693Q993 627 981 562Q948 385 836 263T553 74T176 -10Q174 -10 171 -10Q145 -10
127 9T106 53ZM230 1312L236 127Q389 146 519 201T738 349T851 575Q862 633 862 691Q862 812 820 917T711 1102T567 1233Q439 1316 294 1316Q263 1316 230 1312Z" />
<glyph unicode="E" glyph-name="E" horiz-adv-x="1297" d="M492 1303Q429 1303 360 1302T244 1297Q250 1009 250 779L975 774Q1006 774 1021 754T1037 709Q1037 684 1022 664T974 644L249 649Q248 516 245 410T238 225L233 129Q561 130 768 134T1065 146Q1095
149 1111 127T1127 80Q1127 57 1113 38T1070 16Q972 7 746 3T165 -1Q140 -1 120 19T100 67Q100 78 102 135T107 279T113 461T118 648T120 806Q120 931 117 1069T113 1359Q113 1384 131 1403T174 1423L246 1428Q332 1433 424 1434T614 1432Q999 1420 1160 1348Q1198
1331 1197 1285Q1197 1260 1181 1242T1136 1223Q1122 1223 1107 1230Q941 1303 492 1303Z" />
<glyph unicode="F" glyph-name="F" horiz-adv-x="1285" d="M251 1303Q267 1187 277 1065T290 812H291L1018 807Q1049 807 1064 787T1080 742Q1080 717 1065 697T1018 677Q1017 677 1017 677L291 682Q291 614 287 527T276 348T260 178T242 47L229 -23Q224 -47 205
-61T164 -75Q137 -75 117 -53T101 0L114 70Q138 203 149 360T161 680Q161 863 148 1042T110 1372Q109 1377 109 1382Q109 1410 128 1429T174 1448Q180 1448 185 1447L260 1434Q379 1413 514 1401T786 1388Q1006 1388 1088 1435Q1103 1444 1120 1444Q1146 1444 1165
1426T1185 1379Q1185 1371 1183 1362Q1163 1287 919 1262Q865 1256 793 1256Q744 1256 674 1260T526 1271T376 1286T251 1303Z" />
<glyph unicode="G" glyph-name="G" horiz-adv-x="1851" d="M1623 1255Q1643 1236 1643 1209Q1643 1170 1606 1150T1535 1159Q1450 1237 1292 1280T956 1323Q865 1323 777 1311Q453 1245 315 1046Q270 981 250 913T230 776Q230 652 285 536T422 331Q518 228 664
160T996 92Q1096 92 1201 114Q1280 134 1359 176T1502 274T1595 392Q1621 447 1621 506Q1621 565 1599 595T1535 641T1434 670Q1362 687 1249 687Q1193 687 1127 684T1003 675T913 664L871 658Q866 657 860 657Q831 657 815 678T798 725Q798 746 810 764T851 787L893
793Q927 798 986 804T1113 814T1242 818Q1372 818 1480 794T1659 718Q1751 649 1751 502Q1751 295 1530 130Q1396 30 1230 -12Q1109 -37 995 -37Q889 -37 788 -15Q509 46 327 242Q228 348 164 487T100 776Q100 863 126 950T209 1120Q377 1363 753 1439Q754 1439
755 1439T757 1440Q854 1453 954 1453Q1159 1453 1340 1401T1623 1255Z" />
<glyph unicode="H" glyph-name="H" horiz-adv-x="1110" d="M934 1451Q958 1451 978 1432T998 1387L1011 33Q1011 2 991 -14T946 -30Q922 -30 902 -15T881 32L875 632L237 640L243 21Q243 -11 223 -27T177 -43Q153 -43 133 -28T113 19L100 1373Q100 1404 120 1420T165
1436Q189 1436 209 1421T230 1374L236 770L874 762Q873 918 872 1074T868 1386Q868 1412 888 1431T934 1451Z" />
<glyph unicode="I" glyph-name="I" horiz-adv-x="342" d="M167 1456Q191 1456 210 1436T230 1391L243 38Q243 6 223 -10T177 -26Q153 -26 133 -11T113 36L100 1390Q100 1416 120 1436T167 1456Z" />
<glyph unicode="J" glyph-name="J" horiz-adv-x="993" d="M893 546Q893 370 854 243T722 46T466 -23Q328 -23 146 32Q123 39 113 55T102 90Q102 116 119 137T164 159Q174 159 184 156Q348 106 464 106Q617 106 686 194Q763 294 763 546Q763 590 758 672T743 856T726
1059T711 1244T705 1373Q705 1404 725 1420T771 1436Q795 1436 815 1421T835 1374Q836 1329 842 1246T856 1060T873 857T887 673T893 546Z" />
<glyph unicode="K" glyph-name="K" horiz-adv-x="1211" d="M1111 50Q1111 21 1091 5T1046 -12Q1027 -12 1010 -1T986 32Q968 93 824 231Q710 341 566 460T246 708Q239 422 235 254T230 33Q230 2 210 -13T165 -29Q140 -29 120 -14T100 33Q100 112 109 447T132 1379Q133
1405 153 1423T199 1442Q224 1442 243 1423T262 1376Q258 1228 255 1095T249 845L286 874Q422 978 528 1066T713 1227Q871 1373 891 1404Q902 1421 918 1433T954 1446Q980 1446 998 1426T1017 1380Q1017 1361 1007 1345Q932 1228 519 893Q432 823 372 776Q534 655
672 541T922 317Q1111 134 1111 50Z" />
<glyph unicode="L" glyph-name="L" horiz-adv-x="1267" d="M167 1450Q191 1450 210 1431T230 1387Q241 960 254 642T284 116Q289 116 295 116Q372 116 459 128T631 148Q727 158 813 158Q987 158 1120 118Q1141 112 1153 93T1165 53Q1165 27 1142 5T1084 -7Q965
28 809 28Q717 28 619 17T437 -4Q396 -9 365 -12T306 -16Q254 -16 203 3Q162 18 157 74Q140 280 120 609T100 1384Q100 1410 120 1430T167 1450Z" />
<glyph unicode="M" glyph-name="M" horiz-adv-x="1497" d="M1326 1450Q1355 1450 1372 1428T1389 1384L1398 12Q1398 -19 1378 -35T1333 -51Q1309 -51 1289 -35T1268 12L1261 1142Q1075 832 987 722Q897 610 847 584Q825 572 800 572Q750 572 689 627Q617 694
545 780T407 955T281 1121L233 1187L247 27Q247 -5 227 -21T181 -37Q157 -37 137 -22T117 25L100 1387Q100 1417 120 1434T166 1452Q196 1452 216 1429L386 1198Q697 787 801 710Q873 769 970 920Q1054 1051 1118 1157T1228 1345L1267 1416Q1274 1429 1290 1439T1326
1450Z" />
<glyph unicode="N" glyph-name="N" horiz-adv-x="1264" d="M201 -33Q177 -33 158 -14T138 30L100 1369Q99 1399 120 1417T166 1435Q199 1435 218 1408L1027 243L991 1396Q990 1428 1010 1444T1056 1461Q1080 1461 1100 1446T1121 1400L1164 28Q1165 -3 1144 -20T1098
-38Q1065 -38 1046 -11L236 1155L268 34Q269 7 248 -13T201 -33Z" />
<glyph unicode="O" glyph-name="O" horiz-adv-x="1702" d="M1601 678Q1601 527 1543 403T1381 189T1141 50T850 1Q779 1 707 13T564 51Q407 108 285 233T120 539Q100 622 100 702Q100 815 138 917T237 1103T368 1244Q568 1408 828 1418Q839 1419 847 1417T863
1413Q1053 1403 1206 1315T1451 1107Q1601 912 1601 678ZM835 1288Q617 1279 444 1138Q271 997 237 779Q231 739 231 698Q231 605 259 524T327 387Q407 277 539 204T846 130Q908 130 973 141Q1108 163 1221 233T1403 415T1472 672Q1472 797 1425 900T1300 1082T1131
1207Q998 1276 856 1283Q847 1283 835 1288Z" />
<glyph unicode="P" glyph-name="P" horiz-adv-x="983" d="M232 627L233 18Q233 -13 213 -29T168 -45Q143 -45 123 -29T103 18L100 1371Q100 1397 120 1416T165 1436Q166 1436 167 1436Q533 1424 730 1275Q884 1159 884 1003Q884 860 751 756Q584 626 289 626Q261
626 232 627ZM231 757Q260 756 287 756Q539 756 671 858Q754 922 754 1003Q754 1094 652 1171Q504 1281 230 1302L231 757Z" />
<glyph unicode="Q" glyph-name="Q" horiz-adv-x="1796" d="M507 1420Q638 1482 775 1482Q910 1482 1031 1432T1251 1302T1413 1137Q1538 969 1538 763Q1538 651 1501 528Q1437 316 1276 163Q1412 114 1557 114Q1576 114 1595 115T1632 117Q1662 117 1678 97T1694
51Q1694 29 1680 10T1637 -12Q1594 -16 1552 -16Q1444 -16 1345 8T1158 73Q1007 -18 812 -18Q506 -18 288 263Q167 419 117 636Q100 711 100 785Q100 923 160 1059Q269 1306 507 1420ZM1193 1182Q1143 1225 1074 1264T927 1327T774 1352Q665 1352 564 1303Q369
1210 278 1006Q231 901 231 787Q231 646 302 490Q344 399 416 312T588 169T812 112Q927 112 1024 151Q938 211 875 286Q751 431 751 627Q751 653 753 679Q755 705 775 721T820 738Q846 738 865 718T882 668Q881 649 881 631Q881 503 955 398T1148 223Q1229 286
1294 386Q1349 471 1378 570T1408 785Q1408 999 1193 1182Z" />
<glyph unicode="R" glyph-name="R" horiz-adv-x="1372" d="M175 -38Q150 -38 130 -18T112 30Q117 130 117 329Q117 465 115 648T107 1063L100 1371Q99 1396 116 1415T156 1437Q360 1464 519 1464Q739 1464 873 1412Q1138 1309 1138 995Q1138 608 650 527Q622 523
590 519T519 513L1240 85Q1270 67 1270 30Q1270 0 1241 -24T1174 -27L253 519Q252 520 250 521T246 524Q247 410 247 320Q247 118 242 23Q240 -3 220 -20T175 -38ZM245 626Q263 640 287 640Q325 639 361 639Q724 639 872 735Q1008 823 1008 996Q1008 1116 962 1186Q862
1336 517 1336Q391 1336 231 1316L237 1065Q240 941 242 832T245 626Z" />
<glyph unicode="S" glyph-name="S" horiz-adv-x="1372" d="M792 635Q748 635 702 632T617 629Q485 629 394 658T228 756Q178 802 139 873T100 1032Q100 1088 119 1145Q161 1271 281 1342T565 1414Q778 1414 946 1342T1228 1161Q1248 1142 1248 1115Q1248 1091
1231 1071T1185 1049Q1158 1049 1138 1067Q1042 1160 897 1222T572 1284Q450 1284 361 1240T242 1104Q230 1068 230 1032Q230 974 256 928T317 850Q370 803 440 781T617 759Q654 759 700 762T789 765Q972 765 1072 713Q1147 675 1210 595T1274 411Q1274 378 1266
345Q1221 149 1021 57Q895 -1 753 -1Q720 -1 686 2Q359 33 143 223Q121 243 121 269Q121 295 141 316T188 337Q210 337 228 321Q415 158 699 131Q725 129 750 129Q866 129 975 179Q1108 240 1138 369Q1143 390 1143 410Q1143 476 1101 525T1009 599Q940 635 792
635Z" />
<glyph unicode="T" glyph-name="T" horiz-adv-x="1389" d="M710 -26Q684 -26 665 -7T645 39V1315L165 1317Q134 1317 118 1337T102 1382Q102 1407 118 1427T165 1447L1225 1443Q1256 1443 1271 1423T1287 1378Q1287 1354 1272 1334T1224 1313Q1112 1314 1000 1314T775
1314V39Q775 13 756 -6T710 -26Z" />
<glyph unicode="U" glyph-name="U" horiz-adv-x="1370" d="M663 111Q802 111 894 167T1040 324T1118 557T1141 840Q1141 1070 1086 1383Q1085 1389 1085 1395Q1085 1425 1106 1441T1153 1458Q1174 1458 1191 1446T1214 1406Q1270 1083 1270 832Q1270 302 1018
94Q952 39 860 9T665 -21Q489 -21 386 46T229 231T144 502Q100 730 100 1146Q100 1257 103 1380Q104 1406 124 1424T170 1443Q195 1443 214 1423T233 1376Q230 1246 230 1132Q230 736 271 528Q325 256 423 181Q515 111 663 111Z" />
<glyph unicode="V" glyph-name="V" horiz-adv-x="1246" d="M101 1351Q100 1356 100 1361Q100 1390 121 1406T168 1423Q189 1423 207 1410T229 1369Q265 1114 304 904T387 526Q472 194 552 150Q568 142 581 155Q764 332 1019 1359Q1025 1381 1043 1393T1083 1406Q1110
1406 1131 1383T1145 1327Q899 340 713 108Q644 22 558 22Q462 22 389 139T257 485Q179 794 101 1351Z" />
<glyph unicode="W" glyph-name="W" horiz-adv-x="1840" d="M100 1360Q100 1387 120 1406T166 1426Q191 1426 210 1407T230 1363Q236 1163 248 993T279 682Q344 201 463 117Q480 104 490 107T518 123Q547 146 575 186T634 282Q664 338 690 408T742 562Q851 932
863 1372Q864 1403 883 1418T927 1433Q951 1433 971 1418T993 1373Q1022 681 1174 319Q1218 215 1262 159Q1308 100 1335 92Q1365 83 1383 84Q1423 87 1467 152Q1521 230 1553 345T1598 597T1612 881Q1612 997 1605 1113T1586 1338Q1586 1342 1586 1346Q1586 1376
1606 1392T1652 1408Q1674 1408 1693 1395T1715 1352Q1727 1240 1734 1122T1742 886Q1742 725 1726 574T1673 295T1574 78Q1542 32 1492 -7T1374 -47Q1338 -47 1302 -34Q1224 -6 1166 69Q1137 107 1105 166T1039 305Q971 467 923 749Q853 419 747 218Q621 -23 488
-23Q440 -23 390 10Q308 67 249 218Q189 373 145 663T100 1360Z" />
<glyph unicode="X" glyph-name="X" horiz-adv-x="1421" d="M1308 89Q1322 71 1322 50Q1322 24 1301 4T1253 -16Q1224 -16 1205 9Q1084 167 963 325T719 640L216 -11Q197 -36 168 -36Q142 -36 121 -16T99 31Q99 51 113 69L636 746Q518 899 401 1052T164 1359Q150
1377 150 1398Q150 1424 171 1443T219 1463Q248 1463 267 1438Q380 1292 493 1146T719 853L1155 1418Q1174 1443 1203 1443Q1229 1443 1250 1424T1272 1377Q1272 1357 1258 1339L801 746L1308 89Z" />
<glyph unicode="Y" glyph-name="Y" horiz-adv-x="1272" d="M445 -79Q418 -79 399 -60T380 -14Q380 0 386 13Q459 172 532 331T678 650L115 1334Q100 1353 100 1374Q100 1400 121 1420T168 1440Q196 1440 215 1416L738 782Q815 952 893 1121T1048 1459Q1055 1474
1071 1485T1107 1497Q1134 1497 1153 1478T1172 1432Q1172 1418 1166 1405L504 -41Q497 -56 481 -67T445 -79Z" />
<glyph unicode="Z" glyph-name="Z" horiz-adv-x="1473" d="M739 1456Q948 1456 1067 1399T1186 1208Q1186 1013 892 725Q824 658 736 578T539 403Q325 218 262 148Q836 133 1090 133Q1209 133 1259 136Q1279 151 1299 151Q1323 151 1348 128T1373 82Q1373 67 1364
52Q1345 22 1331 18T1287 7Q1262 2 1118 2Q858 2 215 19Q143 20 111 75Q100 93 100 114Q100 153 140 204Q200 281 434 483Q551 584 640 666T792 809Q854 871 904 929T989 1044Q1053 1145 1053 1208Q1053 1238 1038 1258Q1007 1299 914 1313T712 1327Q594 1327 475
1319T250 1310Q221 1310 196 1311Q165 1312 150 1332T135 1376Q135 1400 150 1420T197 1441Q205 1441 213 1441T231 1441Q300 1441 390 1444T572 1452T739 1456Z" />
<glyph unicode="[" glyph-name="bracketleft" horiz-adv-x="868" d="M704 15Q731 15 750 -4T769 -50Q769 -77 750 -96T704 -115L177 -125H175Q149 -125 130 -106T110 -60L100 1358V1359Q100 1387 118 1405T164 1424L693 1434H695Q722 1434 741 1415T760 1369Q760
1343 741 1324T696 1304L230 1295L240 7L702 15H704Z" />
<glyph unicode="\" glyph-name="backslash" horiz-adv-x="959" d="M106 1423Q100 1438 100 1452Q100 1480 121 1496T168 1513Q208 1513 224 1476L854 -12Q859 -25 859 -38Q859 -64 841 -83T796 -103Q750 -103 734 -64L106 1423Z" />
<glyph unicode="]" glyph-name="bracketright" horiz-adv-x="868" d="M165 15H167L629 7L638 1295L173 1304Q147 1304 128 1323T108 1369Q108 1396 127 1415T173 1434H175L705 1424Q732 1423 750 1405T769 1359L768 1358L758 -60Q758 -86 739 -105T693 -125H692L165
-115Q139 -115 120 -96T100 -50Q100 -23 119 -4T165 15Z" />
<glyph unicode="^" glyph-name="asciicircum" horiz-adv-x="1142" d="M104 293Q130 360 164 449T240 650Q376 1011 423 1105Q445 1148 469 1186T538 1244Q562 1254 585 1254Q636 1254 670 1213T723 1136Q754 1075 782 1006T847 835T938 576Q970 486 995 414T1038
289Q1051 253 1028 228T979 203Q959 203 941 214T916 245Q898 297 873 368T816 529Q747 727 700 855T629 1033Q603 1089 581 1115Q562 1093 539 1046Q517 1001 472 891T361 604Q277 381 226 247Q218 226 201 216T166 206Q141 206 120 222T99 267Q99 279 104 293Z"
/>
<glyph unicode="_" glyph-name="underscore" horiz-adv-x="783" d="M147 -225Q120 -225 101 -206T82 -160Q82 -133 101 -114T147 -95H628Q655 -95 674 -114T693 -160Q693 -187 674 -206T628 -225H147Z" />
<glyph unicode="`" glyph-name="grave" horiz-adv-x="215" d="M-1 1368Q-1 1397 20 1415T65 1434Q104 1434 122 1401L195 1235Q215 1201 215 1179Q215 1161 201 1149T168 1137Q144 1137 125 1170L9 1335Q-1 1351 -1 1368Z" />
<glyph unicode="a" glyph-name="a" horiz-adv-x="1095" d="M985 695Q988 684 988 672Q988 649 979 619Q964 461 964 337Q964 164 993 56Q996 46 996 37Q996 9 975 -7T928 -24Q909 -24 892 -13T868 23Q837 138 835 315Q740 162 631 74Q565 21 495 14Q453 2 413
2Q356 2 309 23T228 76Q167 133 134 223T100 433Q100 586 171 725Q275 929 487 997Q568 1024 643 1024Q737 1024 820 980Q965 903 985 695ZM855 686Q846 782 793 838T647 894Q592 894 527 873Q366 822 292 676Q230 553 230 431Q230 345 253 277T312 175Q357 133
414 133Q433 133 450 137T490 144Q507 146 557 185Q607 225 663 298T770 462T851 645Q852 655 853 665T855 686Z" />
<glyph unicode="b" glyph-name="b" horiz-adv-x="1199" d="M99 93Q99 164 109 256T120 424Q120 428 120 432Q120 496 127 516Q130 605 132 759T138 1132L141 1377Q141 1404 160 1422T207 1441Q233 1441 252 1421T271 1375L268 1131Q267 1027 266 944T263 798Q465
1002 658 1014Q672 1015 687 1015Q858 1015 966 880Q1028 802 1063 699T1099 488Q1099 408 1078 330T1010 184Q944 87 842 35T603 -18Q381 -18 244 208Q242 165 240 130T234 69Q231 42 214 22T170 1Q132 1 116 28T99 93ZM602 112Q771 112 869 218T968 494Q968 591
934 680T835 827T684 885Q677 885 670 885Q481 872 259 597Q258 574 258 551T257 506Q265 484 278 445Q391 112 602 112Z" />
<glyph unicode="c" glyph-name="c" horiz-adv-x="964" d="M230 388Q230 265 301 191T506 117Q621 117 777 173Q788 177 800 177Q826 177 845 159T865 114Q865 91 852 74T821 51Q643 -14 505 -14Q352 -14 254 58T122 244Q100 317 100 391Q100 492 140 597Q177 695
246 782T415 923T640 978Q722 978 810 951Q833 944 843 928T854 892Q854 867 838 846T793 824Q783 824 773 827Q709 846 648 846Q552 846 476 805T345 697T262 553Q230 468 230 388Z" />
<glyph unicode="d" glyph-name="d" horiz-adv-x="1192" d="M1079 426Q1079 352 1086 266T1093 113Q1093 74 1078 46T1022 17Q995 17 978 38T959 86Q957 112 955 147T951 225Q812 5 596 5Q451 5 340 69T165 246T101 508Q101 620 139 726T242 911Q348 1039 515 1039Q533
1039 552 1038Q744 1023 943 815Q943 877 943 960T944 1148L946 1392Q946 1423 966 1439T1011 1455Q1036 1455 1056 1439T1076 1391L1074 1146Q1073 1011 1073 901T1072 704Q1072 595 1073 530Q1079 512 1079 467Q1079 457 1079 447T1079 426ZM597 135Q802 135
921 462Q929 483 934 498T943 523V614Q726 893 538 909Q529 910 520 910Q432 910 367 852T267 703T232 514Q232 346 330 241T597 135Z" />
<glyph unicode="e" glyph-name="e" horiz-adv-x="1156" d="M242 339Q271 235 354 176T565 117Q735 117 960 228Q974 235 989 235Q1015 235 1034 217T1054 172Q1054 129 1018 111Q904 55 786 21T558 -13Q445 -13 348 29T181 169Q142 224 121 286T100 425Q100 459
104 496Q127 687 263 823Q439 999 726 999Q836 999 919 957T1037 836Q1056 793 1056 745Q1056 663 1014 601T893 485Q674 337 258 337Q252 337 242 339ZM231 461Q245 467 258 467Q635 467 821 593Q873 628 900 664T927 749Q927 777 915 794T882 826Q826 869 727
869Q594 869 485 820T309 679T231 461Z" />
<glyph unicode="f" glyph-name="f" horiz-adv-x="1106" d="M165 852Q139 852 120 871T100 917Q100 943 119 962T165 982H342Q343 1113 345 1182Q347 1265 390 1327T503 1423T658 1457Q702 1457 746 1447Q897 1414 997 1260Q1008 1243 1008 1225Q1008 1198 987
1179T938 1160Q906 1160 887 1189Q816 1298 718 1320Q689 1326 660 1326Q587 1326 532 1287T475 1183Q474 1113 472 982H641Q667 982 686 963T706 917Q706 891 687 872T641 852H471Q470 797 470 650T468 263L467 64Q467 33 447 18T402 2Q378 2 358 17T337 65L338
263Q340 501 340 648T341 852H165Z" />
<glyph unicode="g" glyph-name="g" horiz-adv-x="1119" d="M472 -12Q377 -12 316 53T224 218T194 423Q194 573 256 714Q347 921 540 990Q611 1016 681 1016Q825 1016 904 921T993 685Q997 665 1002 614T1011 500T1017 379T1020 287Q1020 -60 917 -274Q859 -393
758 -478T502 -564Q473 -564 442 -560Q286 -542 131 -447Q101 -429 101 -392Q101 -358 131 -336T199 -336Q331 -416 451 -430Q478 -433 503 -433Q620 -433 687 -372T800 -217Q890 -30 890 288Q890 326 889 365Q716 20 554 1Q511 -12 472 -12ZM481 120Q498 120 512
125T544 131Q558 131 597 164Q635 197 676 256T753 382T812 507Q859 626 865 657Q864 665 864 670T863 677Q854 783 812 834T685 886Q632 886 584 868Q446 819 378 667Q324 545 324 423Q324 337 345 262T398 157Q437 120 481 120Z" />
<glyph unicode="h" glyph-name="h" horiz-adv-x="1120" d="M103 254L100 1396Q100 1427 120 1443T165 1459Q190 1459 210 1443T230 1396L231 800Q345 998 519 1019Q542 1022 564 1022Q704 1022 824 917Q913 840 966 720T1020 437Q1020 237 915 24Q898 -10 857
-10Q829 -10 805 17T799 82Q890 265 890 437Q890 565 849 662T739 819Q656 892 563 892Q479 892 420 836T324 696T267 530Q239 411 233 251V55Q233 24 213 8T167 -8Q143 -8 124 7T103 52Q101 97 101 146Q101 174 101 201T103 254Z" />
<glyph unicode="i" glyph-name="i" horiz-adv-x="455" d="M100 1215Q100 1252 122 1286T178 1342T243 1364Q290 1364 322 1325T355 1246Q355 1209 332 1178T270 1133Q226 1111 192 1111Q155 1111 128 1141T100 1215ZM262 163Q259 83 240 36T174 -12Q148 -12 128
7T108 54Q108 67 113 80Q122 101 127 163T136 311T140 486T142 655T142 779Q142 864 141 942Q141 974 161 990T207 1006Q231 1006 250 991T270 944Q271 891 271 840T272 740Q272 577 271 445T262 163Z" />
<glyph unicode="j" glyph-name="j" horiz-adv-x="865" d="M578 1120Q533 1120 507 1151T481 1220Q481 1258 502 1292T557 1349T622 1371Q669 1371 702 1332T735 1253Q735 1216 712 1185T650 1140Q610 1120 578 1120ZM100 -450Q100 -423 119 -404T165 -385Q179
-385 192 -391Q309 -444 392 -444Q479 -444 529 -391T602 -247T635 -38Q639 10 639 69Q639 302 577 703Q562 801 554 854T546 924Q546 956 566 971T611 987Q635 987 655 972T677 926Q678 914 685 863T705 723Q765 336 765 70Q765 -153 723 -291Q636 -574 395 -574Q326
-574 268 -558T138 -509Q123 -502 112 -487T100 -450Z" />
<glyph unicode="k" glyph-name="k" horiz-adv-x="1071" d="M907 -8Q885 -8 864 10T842 48Q842 98 754 168Q562 319 254 453Q244 457 232 467Q229 341 229 248Q229 100 236 53Q237 47 237 42Q237 12 216 -4T170 -20Q149 -20 131 -7T108 34Q100 85 100 243Q100 579
135 1398Q136 1428 156 1443T200 1458Q224 1458 244 1443T264 1397Q264 1395 264 1392Q253 1136 246 928T235 559Q238 561 245 566T265 579Q446 683 548 782Q652 883 652 931Q652 957 671 976T717 996Q749 996 765 974T782 916Q782 829 649 699Q583 635 531 598T418
521Q661 405 818 282Q972 161 972 57Q972 31 953 12T907 -8Z" />
<glyph unicode="l" glyph-name="l" horiz-adv-x="363" d="M202 1469Q227 1469 246 1449T264 1401Q247 986 238 698T229 248Q229 107 236 62Q237 56 237 51Q237 21 216 5T170 -11Q149 -11 131 2T108 43Q100 94 100 252Q100 588 135 1407Q136 1433 156 1451T202 1469Z" />
<glyph unicode="m" glyph-name="m" horiz-adv-x="1619" d="M532 980Q605 980 666 941T773 838T851 707Q908 878 1012 952Q1079 1000 1152 1000Q1218 1000 1279 963T1391 866Q1451 793 1485 687T1519 447Q1519 241 1409 17Q1391 -17 1350 -17Q1321 -17 1297 10T1292
75Q1389 271 1389 446Q1389 557 1362 644T1286 790Q1223 867 1154 867Q1077 867 1023 773Q980 697 959 609T929 424Q935 378 938 332T942 237Q942 195 940 149T930 50Q927 22 908 9T866 -5Q843 -5 823 9T800 53Q793 166 793 264Q793 348 798 421Q770 614 693 728Q610
852 537 852Q475 852 421 759Q361 655 335 462Q336 402 336 348Q336 215 328 119L322 50Q320 21 301 7T258 -7Q234 -7 214 8T192 53Q189 123 189 188Q189 345 205 469Q196 779 114 882Q99 900 99 921Q99 948 120 967T168 987Q197 987 216 963Q265 900 293 796Q385
980 532 980Z" />
<glyph unicode="n" glyph-name="n" horiz-adv-x="1295" d="M167 1030Q196 1030 215 1007Q287 920 320 739Q456 985 671 1016Q705 1021 738 1021Q858 1021 950 966T1101 821T1181 627Q1195 560 1195 490Q1195 269 1054 23Q1036 -8 999 -8Q968 -8 944 21T941 88Q1065
304 1065 491Q1065 547 1054 600Q1038 677 996 743T888 849T737 890Q714 890 690 887Q591 873 521 800T409 624T347 413Q347 400 347 387Q347 243 332 97L328 58Q325 30 306 17T265 3Q241 3 221 18T199 63Q197 108 197 151Q197 298 217 422Q213 652 181 767Q150
881 124 913Q100 943 100 966Q100 995 121 1012T167 1030Z" />
<glyph unicode="o" glyph-name="o" horiz-adv-x="1209" d="M613 1037Q862 1022 1021 791Q1064 729 1087 654T1110 486Q1110 349 1045 241T888 73Q829 35 755 13T602 -10Q455 -10 352 54T185 215Q100 347 100 498Q100 538 106 579Q134 778 273 905Q413 1033 589
1040Q601 1042 613 1037ZM979 493Q979 609 925 700T786 846T606 907Q598 907 590 910Q488 904 406 848T277 700T229 496Q229 410 262 340T349 221T461 147Q531 119 605 119Q708 119 792 167T921 285Q950 331 964 384T979 493Z" />
<glyph unicode="p" glyph-name="p" horiz-adv-x="1199" d="M99 905Q99 942 115 969T170 997Q196 997 213 976T234 928Q237 903 239 869T244 790Q381 1016 603 1016Q740 1016 842 964T1010 814Q1056 746 1077 668T1099 510Q1099 402 1064 299T966 118Q858 -17 687
-17Q672 -17 658 -16Q465 -4 263 200Q265 138 266 55T268 -133L271 -377Q271 -403 252 -423T207 -443Q180 -443 161 -425T141 -379L138 -134Q135 85 133 239T127 482Q120 502 120 566Q120 570 120 574Q120 650 110 742T99 905ZM602 886Q391 886 278 553Q265 514
257 492Q258 470 258 447T259 401Q481 127 670 113Q677 113 684 113Q771 113 835 170T933 317T968 504Q968 674 870 780T602 886Z" />
<glyph unicode="q" glyph-name="q" horiz-adv-x="1194" d="M1080 598Q1080 589 1080 581T1080 563Q1080 515 1073 495Q1072 406 1072 252T1071 -121V-366Q1071 -397 1051 -413T1006 -429Q982 -429 962 -413T941 -366V211Q743 5 550 -10Q532 -11 514 -11Q347 -11
240 119Q176 197 139 302T102 518Q102 666 164 780T338 958T596 1023Q814 1023 952 802Q957 889 961 940Q963 967 980 988T1024 1009Q1063 1009 1079 981T1095 915Q1095 848 1088 761T1080 598ZM597 893Q428 893 330 788T231 512Q231 415 266 325T365 176T518 118Q526
118 535 119Q724 134 942 412Q942 435 942 458T943 503Q939 513 934 528T921 564Q804 893 597 893Z" />
<glyph unicode="r" glyph-name="r" horiz-adv-x="827" d="M168 -8Q140 -8 120 19T100 69Q100 88 106 108T114 146Q117 201 125 294T133 476Q133 540 131 615Q125 836 113 884Q108 905 108 922Q108 951 124 969T171 988Q194 988 211 973T233 939Q255 856 259 684Q405
971 654 1002Q658 1002 662 1002Q692 1002 708 981T725 934Q725 912 712 894T670 873Q416 841 296 418Q267 315 252 206Q249 161 247 135T244 86Q244 73 246 65T248 51Q248 29 219 11T168 -8Z" />
<glyph unicode="s" glyph-name="s" horiz-adv-x="1056" d="M100 732Q100 825 149 888T276 984T442 1016Q728 1016 919 834Q939 815 939 789Q939 764 922 744T876 723Q848 723 830 740Q773 795 677 840T480 886Q274 886 237 774Q229 750 229 728Q229 668 285 617Q347
560 493 560Q517 560 544 562T598 564Q727 564 807 526T929 403Q956 347 956 294Q956 270 951 246Q918 100 770 33Q677 -10 573 -10Q552 -10 530 -8Q293 14 136 152Q114 171 114 201Q114 228 133 246T179 265Q204 265 222 250Q292 189 378 155T575 121Q714 121
787 201Q827 245 827 291Q827 318 813 346Q770 434 631 434Q601 434 569 433T511 431Q392 431 335 446Q256 467 195 523T111 657Q100 694 100 732Z" />
<glyph unicode="t" glyph-name="t" horiz-adv-x="812" d="M623 32Q623 5 603 -14T557 -33Q541 -33 527 -25Q398 44 371 352Q365 419 362 496T359 663Q359 749 362 851Q313 851 264 851T165 852Q139 852 120 872T100 919Q100 943 119 962T165 982L366 981Q367 1011
369 1073T373 1205T375 1328Q375 1344 375 1357T374 1381Q374 1411 394 1427T439 1443Q463 1443 483 1428T504 1382Q505 1362 505 1331Q505 1276 503 1206T499 1074T496 980L647 979Q678 979 694 958T710 913Q710 889 695 869T648 849Q647 849 647 849Q608 849
570 849T492 850Q490 760 490 680Q490 318 539 171Q562 104 587 91Q602 83 612 67T623 32Z" />
<glyph unicode="u" glyph-name="u" horiz-adv-x="1114" d="M815 934Q829 990 880 990Q904 990 922 972T944 931Q953 840 953 757Q953 640 935 538Q941 193 997 89Q1004 77 1005 76Q1038 58 1038 18Q1038 -20 1006 -37T934 -33Q859 6 826 229Q793 172 738 114T613
18T460 -21Q407 -21 355 -2Q230 44 165 186T100 513Q100 709 168 963Q174 985 193 997T233 1010Q260 1010 282 986T294 929Q229 695 229 517Q229 382 266 279Q292 207 341 158T458 108Q516 108 578 148Q750 258 805 549Q805 569 805 590T804 634Q804 677 805 723T808
819L815 934Z" />
<glyph unicode="v" glyph-name="v" horiz-adv-x="975" d="M101 954Q100 960 100 965Q100 994 121 1010T167 1026Q189 1026 207 1013T229 972Q334 219 443 131Q561 214 747 967Q753 991 770 1002T808 1014Q833 1014 854 998T876 952Q876 944 874 936Q729 349 617
148Q534 -3 444 -3Q415 -3 385 13Q289 63 225 298Q160 531 101 954Z" />
<glyph unicode="w" glyph-name="w" horiz-adv-x="1544" d="M724 999Q756 999 772 978T789 922Q789 891 785 826T780 712Q780 581 806 461T876 264Q914 199 964 160T1073 120Q1142 120 1211 180Q1314 272 1314 475Q1314 665 1197 887Q1188 902 1188 918Q1188 945
1210 963T1258 982Q1294 982 1311 948Q1444 699 1444 475Q1444 341 1405 242T1292 78Q1193 -10 1075 -10Q973 -10 897 44T771 184T694 367Q610 102 489 14Q445 -18 400 -18Q360 -18 319 7Q230 64 165 300T100 929Q100 960 120 975T165 991Q189 991 209 976T230
930Q246 405 328 210Q360 135 389 116Q397 111 399 111Q401 111 412 119Q463 157 503 237T574 419T623 627T652 822Q654 861 656 902T671 971T724 999Z" />
<glyph unicode="x" glyph-name="x" horiz-adv-x="1139" d="M104 942Q104 979 127 997T177 1015Q208 1015 240 1001T296 967Q378 898 549 641Q555 632 561 623T574 604L921 988Q940 1009 966 1009Q992 1009 1013 989T1034 941Q1034 918 1017 900L648 493Q752 339
813 259Q902 144 947 128Q960 134 975 134Q1000 134 1019 116T1039 71Q1039 35 1015 17T954 -1Q848 -1 713 175Q680 218 642 272T558 394L213 13Q193 -9 168 -9Q142 -9 121 11T100 59Q100 82 117 100L484 505L418 604Q254 849 190 883Q180 880 170 880Q144 880
124 897T104 942Z" />
<glyph unicode="y" glyph-name="y" horiz-adv-x="961" d="M839 927L851 777Q862 596 862 437Q862 -232 668 -497Q617 -567 552 -600T412 -633Q316 -633 209 -581Q175 -564 175 -522Q175 -493 202 -470T267 -464Q346 -504 409 -504Q453 -504 489 -485Q558 -449
603 -356T676 -136T716 129T731 395Q708 331 672 261T588 128T481 27T353 -12Q271 -12 215 39T119 186Q50 352 50 624Q50 771 70 948Q73 976 92 989T134 1003Q158 1003 178 988T199 941Q199 937 199 933Q180 761 180 622Q180 377 239 234Q287 117 354 117Q415 117
491 215Q666 442 709 925Q711 953 730 967T773 982Q796 982 815 968T839 927Z" />
<glyph unicode="z" glyph-name="z" horiz-adv-x="1173" d="M935 829Q935 767 885 693T756 542T587 389T416 249T283 137Q647 128 825 128Q925 128 967 131Q983 140 999 140Q1022 140 1047 116T1073 66Q1073 44 1051 26Q1006 -11 896 -11Q799 -11 688 -8T465 0T257
8Q192 9 174 13Q134 22 117 43T100 90Q100 118 116 148T159 202Q189 229 249 279T380 387T511 496T604 575Q691 652 758 746Q804 812 804 843Q804 857 796 865Q756 903 557 903Q525 903 475 902T370 898T274 895T216 893Q176 893 150 907T123 958Q123 990 144 1006T200
1023Q204 1023 207 1023T216 1023Q234 1023 282 1025T391 1029T504 1033T586 1035Q643 1035 688 1030T792 1009Q859 992 897 947T935 829Z" />
<glyph unicode="{" glyph-name="braceleft" horiz-adv-x="1096" d="M559 1297Q510 1297 470 1269T404 1197T379 1109Q379 1068 393 1024T430 932Q456 874 472 818T488 707Q488 653 470 602T409 502Q560 405 560 172Q560 100 550 22T540 -123Q540 -234 581 -316T685
-432Q731 -457 790 -457Q846 -457 884 -433Q911 -416 935 -416Q958 -416 977 -434T996 -479Q996 -515 966 -535Q884 -588 782 -588Q698 -588 629 -550Q411 -430 411 -106Q411 -45 421 33T431 184Q431 246 409 303Q372 399 280 414Q257 406 232 401T183 395Q148
395 124 410T100 465Q100 497 127 514T192 539T258 546Q301 568 330 610T359 714Q359 736 354 760Q347 799 304 894Q280 948 264 995T248 1095Q248 1216 315 1301T479 1414Q522 1427 566 1427Q631 1427 685 1401T775 1338Q793 1320 793 1293Q793 1267 775 1247T731
1227Q702 1227 675 1254Q657 1272 626 1284T559 1297Z" />
<glyph unicode="|" glyph-name="bar" horiz-adv-x="293" d="M101 1320Q101 1347 105 1391T119 1470T147 1505Q166 1505 176 1470T190 1390T194 1319L193 62Q193 34 189 -10T175 -88T146 -123Q127 -123 117 -88T104 -9T100 63L101 1320Z" />
<glyph unicode="}" glyph-name="braceright" horiz-adv-x="1095" d="M537 -448Q586 -448 627 -419T693 -347T718 -259Q718 -218 704 -175T667 -83Q641 -25 625 32T609 143Q609 197 627 248T687 347Q536 444 536 677Q536 749 546 827T556 972Q556 1083 515 1165T411
1282Q365 1307 307 1307Q251 1307 213 1283Q185 1265 160 1265Q137 1265 119 1283T100 1328Q100 1364 130 1384Q212 1437 314 1437Q398 1437 467 1399Q685 1279 685 955Q685 894 675 816T665 665Q665 603 687 546Q725 450 816 435Q839 443 864 448T913 454Q948
454 972 439T996 384Q996 352 969 335T904 310T838 303Q796 281 767 239T738 137Q738 114 743 90Q751 45 792 -45Q816 -99 832 -146T848 -246Q848 -367 781 -452T617 -565Q574 -578 530 -578Q465 -578 411 -552T321 -489Q303 -471 303 -444Q303 -418 321 -398T365
-378Q394 -378 421 -405Q439 -423 470 -435T537 -448Z" />
<glyph unicode="~" glyph-name="asciitilde" horiz-adv-x="1531" d="M105 658Q129 720 178 773T296 860T445 893Q516 893 593 864Q657 841 752 787Q817 751 887 719T1034 686Q1088 686 1139 707Q1254 753 1312 846Q1330 875 1365 875Q1399 875 1421 844T1422 776Q1366
686 1263 623T1028 559Q981 559 931 569T827 601Q808 609 771 629T690 672T608 714T548 742Q499 760 450 760Q371 760 311 717T226 610Q218 589 202 580T167 570Q142 570 121 586T100 631Q100 644 105 658Z" />
<glyph unicode="&#xa0;" glyph-name="uni00A0" horiz-adv-x="560" />
<glyph unicode="&#xa1;" glyph-name="exclamdown" horiz-adv-x="414" d="M314 1305Q314 1274 302 1229T268 1149T214 1114Q172 1114 152 1147Q100 1239 100 1309Q100 1359 126 1397T203 1436Q258 1436 286 1395T314 1305ZM201 951Q265 951 282 904T299 786Q299
774 299 760Q305 695 305 613Q305 388 262 39Q259 12 240 -6T195 -25Q170 -25 152 -7T131 34Q102 254 102 490Q102 628 112 771Q115 790 114 812T117 854Q125 895 141 923T201 951Z" />
<glyph unicode="&#xa2;" glyph-name="cent" horiz-adv-x="964" d="M621 -4Q622 -40 625 -61T628 -102Q628 -132 607 -148T561 -164Q511 -164 503 -120T493 -14Q345 -11 250 61T122 244Q100 317 100 391Q100 492 140 597Q188 726 283 824T514 961Q517 1030 520
1103T526 1254Q527 1280 547 1298T593 1316Q619 1316 638 1296T655 1248Q652 1177 649 1110T644 978Q685 978 726 971T810 951Q831 945 843 927T855 887Q855 860 831 839T773 827Q707 847 639 847Q630 608 626 429T620 129Q691 142 777 173Q788 177 800 177Q826
177 845 159T865 114Q865 91 852 74T821 51Q767 32 718 18T621 -4ZM491 117Q491 236 496 412T509 821Q421 785 359 715T262 553Q229 465 229 385Q229 272 296 197T491 117Z" />
<glyph unicode="&#xa3;" glyph-name="sterling" horiz-adv-x="1272" d="M738 605Q738 585 721 563T686 540H672L462 541Q475 472 475 406Q475 263 413 133L1107 129Q1132 129 1152 111T1172 69Q1172 36 1154 18T1107 -1H1106L298 4Q271 4 253 23T234 69Q234 89
247 107Q345 239 345 405Q345 471 329 543L165 544Q138 544 119 563T100 609Q100 630 116 652T152 674H166L300 673Q290 726 290 776Q290 943 403 1058Q468 1125 555 1161T757 1198Q900 1198 1025 1119Q1056 1100 1056 1073Q1056 1046 1042 1023T1000 999Q972 999
955 1010Q913 1037 860 1053T749 1069Q690 1069 634 1051Q550 1025 486 957T421 782Q421 733 433 672L673 670Q699 670 718 651T738 605Z" />
<glyph unicode="&#xa4;" glyph-name="currency" horiz-adv-x="1401" d="M696 5Q596 5 511 41T367 129L238 14Q222 -2 197 -2Q172 -2 155 16T138 59Q138 86 158 104L288 219Q243 285 222 360T200 513Q200 660 272 786L122 912Q100 930 100 956Q100 976 115 997T147
1018H171Q182 1018 199 1004L343 883Q482 1033 682 1044H686Q703 1044 707 1042T738 1038Q766 1037 831 1016Q953 976 1045 878Q1054 885 1087 912T1153 968T1194 1003Q1218 1024 1230 1024Q1252 1024 1261 1022T1284 1006Q1301 987 1301 963Q1301 938 1274 914Q1264
905 1230 877T1162 820T1118 783Q1156 719 1176 646T1197 485Q1197 343 1113 220L1248 105Q1269 88 1269 62Q1269 38 1252 19T1210 -1Q1187 -1 1170 14L1034 130Q971 75 883 40T696 5ZM1078 495Q1078 616 1023 710T882 860T699 922Q691 922 683 925Q554 918 448
821Q390 768 353 688T316 501Q316 430 341 364T418 246Q460 199 532 160T691 121Q722 121 752 127Q889 153 983 246T1078 495Z" />
<glyph unicode="&#xa5;" glyph-name="yen" horiz-adv-x="1165" d="M943 349Q943 329 926 307T891 285H877L691 286L693 67V52Q693 33 671 17T628 0Q601 0 582 19T563 65L561 287L370 289Q343 289 324 308T305 354Q305 375 321 397T356 419H371L559 417L558 524V525L370
527Q343 527 324 546T305 592Q305 613 321 635T356 657H371L471 656L113 1139Q100 1155 100 1180Q100 1206 120 1225T168 1244Q199 1244 218 1217L618 676L944 1220Q964 1252 995 1252Q1024 1252 1045 1235T1066 1192Q1066 1169 1056 1153L756 654L878 652Q904
652 923 633T943 588Q943 567 927 545T891 522H877L688 524L689 416L878 415Q906 415 924 395T943 349Z" />
<glyph unicode="&#xa6;" glyph-name="brokenbar" horiz-adv-x="342" d="M165 709Q140 709 120 729T100 774V1390Q100 1422 120 1438T166 1454Q190 1454 210 1438T230 1391V775Q230 749 211 729T165 709ZM165 -107Q140 -107 120 -87T100 -42V574Q100 606 120 622T166
638Q190 638 210 622T230 575V-41Q230 -67 211 -87T165 -107Z" />
<glyph unicode="&#xa7;" glyph-name="section" horiz-adv-x="834" d="M98 727Q98 812 136 873T233 966Q150 1046 150 1160Q150 1164 150 1167Q150 1246 191 1306T286 1398Q348 1434 416 1434Q418 1434 421 1434L445 1433Q477 1433 503 1415T529 1367Q529 1340
510 1320T468 1299Q456 1299 444 1302T421 1305Q363 1305 322 1263T280 1165Q280 1057 424 998Q480 975 516 959T566 933Q637 887 686 822T735 660Q735 576 705 515T622 411Q683 327 683 228Q683 147 641 75Q606 15 540 -32T385 -81Q377 -83 368 -83Q341 -83 319
-64T297 -17Q297 51 394 51Q397 51 399 51Q463 58 507 109T552 232Q552 256 545 279Q522 365 403 416Q399 418 390 422T365 432Q220 492 164 559Q98 636 98 727ZM350 871Q299 871 264 829T229 730Q229 679 261 645T341 587T439 543T524 500Q558 523 584 568T610
670Q610 748 534 797Q419 871 350 871Z" />
<glyph unicode="&#xa8;" glyph-name="dieresis" horiz-adv-x="532" d="M221 1254Q221 1211 190 1179T112 1146Q57 1146 30 1181T2 1268Q2 1293 8 1318Q12 1336 26 1363T59 1412T102 1434Q132 1434 159 1404T204 1331T221 1254ZM532 1246Q532 1203 501 1171T423
1138Q368 1138 341 1173T313 1260Q313 1285 319 1310Q323 1328 337 1355T370 1404T413 1426Q443 1426 470 1396T515 1323T532 1246Z" />
<glyph unicode="&#xa9;" glyph-name="copyright" horiz-adv-x="1702" d="M1601 678Q1601 527 1543 403T1381 189T1141 50T850 1Q779 1 707 13T564 51Q407 108 285 233T120 539Q100 622 100 702Q100 815 138 917T237 1103T368 1244Q568 1408 828 1418Q839 1419
847 1417T863 1413Q1053 1403 1206 1315T1451 1107Q1601 912 1601 678ZM835 1288Q617 1279 444 1138Q271 997 237 779Q231 739 231 698Q231 605 259 524T327 387Q407 277 539 204T846 130Q908 130 973 141Q1108 163 1221 233T1403 415T1472 672Q1472 797 1425 901T1300
1082T1131 1207Q998 1276 856 1283Q847 1283 835 1288ZM518 622Q518 499 589 425T794 351Q909 351 1065 407Q1076 411 1088 411Q1114 411 1133 393T1153 348Q1153 325 1140 308T1109 285Q931 220 793 220Q640 220 542 292T410 478Q388 551 388 625Q388 726 428
831Q465 929 534 1016T703 1157T928 1212Q1010 1212 1098 1185Q1121 1178 1131 1162T1142 1126Q1142 1101 1126 1080T1081 1058Q1071 1058 1061 1061Q997 1080 936 1080Q840 1080 764 1039T633 931T550 787Q518 702 518 622Z" />
<glyph unicode="&#xaa;" glyph-name="ordfeminine" horiz-adv-x="893" d="M356 668Q271 668 214 713T129 829T100 981Q100 1119 169 1239Q243 1367 394 1415Q460 1436 518 1436Q636 1436 705 1366T785 1189Q793 1166 783 1132Q772 1013 772 921Q772 797 792 721Q794
711 794 702Q794 682 775 664T732 645Q701 645 681 659Q643 686 634 842Q522 686 413 675Q385 668 356 668ZM238 989Q238 789 332 789Q593 789 646 1159Q647 1165 647 1169T648 1176Q635 1313 518 1313Q516 1313 515 1313Q479 1313 440 1300Q339 1268 288 1177Q238
1088 238 989Z" />
<glyph unicode="&#xab;" glyph-name="guillemotleft" horiz-adv-x="1430" d="M728 457Q728 429 711 408T667 387Q645 387 629 397Q550 445 475 486T328 562Q258 597 217 617T163 645Q101 684 101 725Q101 766 119 787T161 824Q173 832 213 854T324 913Q394 950
468 994T621 1089Q638 1100 661 1100Q687 1100 704 1079T722 1030Q722 999 692 979Q583 908 471 846T268 736Q278 731 313 714T410 667Q530 608 696 508Q728 489 728 457ZM1331 451Q1331 423 1314 402T1270 381Q1245 381 1231 390Q1072 486 931 555Q861 590 820
610T766 638Q703 678 703 719Q703 760 721 781T763 818Q775 826 815 848T926 907Q996 944 1070 987T1224 1082Q1241 1093 1263 1093Q1289 1093 1307 1072T1325 1023Q1325 993 1294 973Q1134 869 1011 804Q950 772 915 754T870 730Q880 725 915 708T1012 660Q1074
630 1145 591T1298 502Q1331 483 1331 451Z" />
<glyph unicode="&#xac;" glyph-name="logicalnot" horiz-adv-x="1176" d="M165 662Q164 662 163 662Q137 662 119 681T100 727Q100 752 119 773Q152 805 165 792H1009Q1036 791 1055 773T1074 728L1076 339V338Q1076 311 1058 292T1012 273Q985 273 966 292T946
338L944 662H165Z" />
<glyph unicode="&#xad;" glyph-name="uni00AD" horiz-adv-x="0" />
<glyph unicode="&#xae;" glyph-name="registered" horiz-adv-x="1700" d="M836 1411L859 1406H863Q1054 1395 1205 1308T1450 1100Q1522 1006 1561 894T1600 666Q1600 569 1572 474T1482 294Q1420 208 1323 140T1105 33T850 -7Q780 -7 708 5T563 44Q403 103 283
228T119 532Q99 614 99 695Q99 813 136 914T233 1096T363 1234Q447 1303 571 1357T836 1411ZM855 1276Q842 1277 833 1281Q662 1274 523 1187T309 972Q274 912 252 842T230 692Q230 628 246 562Q282 413 381 313T611 165Q670 144 729 134T847 124Q957 124 1058
155T1239 239T1368 359Q1420 432 1445 511T1470 672Q1470 861 1347 1021Q1271 1120 1142 1193T855 1276ZM683 413Q683 366 682 326T667 262T613 238Q592 238 571 255T549 291Q549 317 551 337T553 398Q553 494 549 737L542 1091V1104Q542 1121 561 1138T598 1157Q724
1175 821 1175Q963 1175 1043 1137Q1204 1060 1204 873Q1204 781 1157 713T1046 615Q977 583 898 570L1251 361Q1284 342 1284 310Q1284 282 1267 261T1224 240Q1202 240 1185 249L682 548Q682 508 682 474T683 413ZM673 1036Q676 917 678 844T680 690Q708 689
734 689Q993 689 1055 784Q1065 799 1069 823T1074 873Q1074 932 1057 964Q1014 1044 817 1044Q753 1044 673 1036Z" />
<glyph unicode="&#xaf;" glyph-name="overscore" horiz-adv-x="783" d="M172 1021Q145 1021 126 1040T107 1086Q107 1113 126 1132T172 1151H613Q640 1151 659 1132T678 1086Q678 1059 659 1040T613 1021H172Z" />
<glyph unicode="&#xb0;" glyph-name="degree" horiz-adv-x="852" d="M417 1422Q508 1422 584 1387T706 1283T752 1116Q752 1020 685 940Q612 853 459 831Q437 828 415 828Q329 828 258 871T143 988T100 1151Q100 1231 143 1292T259 1387T417 1422ZM428 1294Q347
1294 288 1256T228 1142Q228 1103 246 1068T292 1006Q340 959 419 959Q570 959 615 1072Q624 1095 624 1119Q624 1138 618 1158Q576 1294 428 1294Z" />
<glyph unicode="&#xb1;" glyph-name="plusminus" horiz-adv-x="1299" d="M1124 754Q1150 753 1169 734T1189 689Q1189 663 1170 644T1124 624H741V230Q741 204 722 185T676 165Q650 165 631 184T611 230V624H165Q164 624 163 624Q138 624 119 643T100 689Q100
715 119 734T165 754H611V1181Q611 1207 630 1226T676 1246Q702 1246 721 1227T741 1181V754H1124ZM167 -6Q140 -6 121 13T102 59Q102 86 121 105T167 124H1134Q1161 124 1180 105T1199 59Q1199 32 1180 13T1134 -6H167Z" />
<glyph unicode="&#xb2;" glyph-name="uni00B2" horiz-adv-x="597" d="M341 1297Q341 1326 321 1346T267 1366Q216 1366 162 1302Q151 1289 136 1289Q100 1289 100 1323Q100 1337 109 1347Q143 1387 183 1411T266 1435Q309 1435 352 1409Q409 1375 409 1300Q409
1250 380 1204Q338 1139 259 1050Q268 1051 279 1051Q304 1051 344 1045T411 1039Q428 1039 441 1044T466 1049Q480 1049 488 1037T497 1008Q497 984 465 976T407 968Q371 968 298 983Q288 985 277 985Q232 985 164 953Q157 950 146 950Q133 950 124 961T114 985Q114
1000 126 1012Q154 1039 192 1082T268 1172T330 1256Q341 1277 341 1297Z" />
<glyph unicode="&#xb3;" glyph-name="uni00B3" horiz-adv-x="547" d="M320 1131Q307 1131 294 1125T266 1119Q253 1119 244 1130T234 1156Q234 1173 249 1183Q314 1225 333 1273Q343 1300 343 1319Q343 1363 295 1363Q261 1363 234 1346T169 1294Q159 1284 145
1284Q129 1284 120 1295T110 1319Q110 1334 121 1344Q217 1436 297 1436Q337 1436 376 1404T416 1319Q416 1284 400 1250T364 1192Q402 1177 424 1147T447 1069Q447 1014 411 983T321 952Q239 952 118 1023Q100 1034 100 1050Q100 1065 109 1076T133 1088Q145 1088
153 1083Q258 1023 320 1023Q377 1023 377 1069Q377 1091 361 1111T320 1131Z" />
<glyph unicode="&#xb4;" glyph-name="acute" horiz-adv-x="215" d="M47 1137Q29 1137 15 1149T0 1179Q0 1201 20 1235L93 1401Q111 1434 149 1434Q173 1434 194 1416T215 1368Q215 1351 205 1335L90 1170Q71 1137 47 1137Z" />
<glyph unicode="&#xb5;" glyph-name="mu" horiz-adv-x="1228" d="M913 266Q875 202 818 142T687 43T525 4Q436 4 361 48T235 168Q240 3 273 -80Q278 -93 278 -112Q278 -133 259 -151T218 -170Q185 -170 170 -152T143 -103Q100 7 100 197Q100 406 152 712Q167 832
203 969Q209 988 227 1002T269 1016Q290 1016 310 999T331 961Q331 948 318 891Q306 837 282 701Q272 619 272 546Q272 444 297 350T377 195T518 134Q561 134 598 147T675 189Q758 248 814 355T893 591Q892 642 892 685Q892 820 898 891T914 987Q928 1012 960 1012Q989
1012 1009 997T1032 954Q1040 869 1040 791Q1040 680 1024 581Q1030 182 1092 102V100Q1128 82 1128 48Q1128 20 1111 -1T1068 -23Q950 -23 913 266Z" />
<glyph unicode="&#xb6;" glyph-name="paragraph" horiz-adv-x="1053" d="M578 57Q576 29 556 15T513 1Q489 1 469 16T448 62Q448 63 448 65T448 69L464 761Q349 743 268 783T143 895T100 1044Q100 1104 131 1163T212 1273T320 1354T432 1387L774 1397Q815 1398
848 1381T905 1346Q941 1313 949 1265T954 1158T953 1033Q957 867 944 701T916 382L892 55Q890 26 867 12T820 -2Q795 -2 775 13T754 59Q762 143 770 227T786 395Q785 525 789 667T791 951T766 1218L615 1219Q610 1090 614 942T620 648T610 384L578 57Z" />
<glyph unicode="&#xb7;" glyph-name="middot" horiz-adv-x="421" d="M321 710Q321 667 291 635T212 603Q157 603 129 639T101 726Q101 750 107 775Q111 793 125 820T159 869T201 890Q232 890 259 860T304 787T321 710Z" />
<glyph unicode="&#xb8;" glyph-name="cedilla" horiz-adv-x="674" d="M385 -367Q367 -367 350 -370T312 -373Q296 -373 277 -354T258 -319Q258 -311 258 -306T259 -299L284 -123Q292 -66 355 -66Q374 -66 394 -84T414 -121Q414 -138 413 -141L399 -239Q478 -244
526 -287T574 -406Q574 -452 554 -491Q526 -544 466 -582T323 -620Q231 -620 131 -557Q99 -537 99 -506Q99 -478 117 -457T161 -436Q184 -436 212 -454Q231 -466 265 -479T334 -493Q371 -493 397 -474T436 -433Q445 -415 445 -402Q445 -383 428 -375T385 -367Z"
/>
<glyph unicode="&#xb9;" glyph-name="uni00B9" horiz-adv-x="309" d="M160 1024Q149 1024 138 1033T126 1052Q126 1061 132 1106Q134 1125 136 1167T139 1252Q139 1288 137 1319T130 1364Q119 1366 110 1376T100 1398Q100 1411 110 1424T137 1437Q153 1437 167
1426T186 1407Q211 1371 211 1263Q211 1189 199 1080L196 1055Q195 1042 185 1033T160 1024Z" />
<glyph unicode="&#xba;" glyph-name="ordmasculine" horiz-adv-x="658" d="M323 1498Q422 1498 490 1436T558 1263Q558 1173 499 1118T353 1048Q337 1046 322 1046Q260 1046 210 1079T130 1168T100 1290Q100 1378 163 1438T323 1498ZM192 1285Q192 1231 228 1188T324
1145Q429 1145 462 1231Q468 1247 468 1266Q468 1281 464 1297Q435 1400 331 1400Q270 1400 231 1372T192 1285Z" />
<glyph unicode="&#xbb;" glyph-name="guillemotright" horiz-adv-x="1527" d="M702 457Q702 489 735 508Q901 608 1021 667Q1083 697 1118 714T1163 736Q1073 785 961 846T739 979Q708 999 708 1030Q708 1058 726 1079T770 1100Q792 1100 809 1089Q888 1038 962
994T1106 913Q1244 841 1270 824Q1294 808 1312 787T1330 725Q1330 685 1267 645Q1255 638 1214 618T1102 562Q961 493 802 397Q786 387 763 387Q737 387 720 408T702 457ZM100 451Q100 483 132 502Q214 552 286 591T419 660Q481 690 516 707T561 730Q551 735 516
753T420 804Q359 836 288 878T136 973Q106 993 106 1023Q106 1051 123 1072T167 1093Q190 1093 207 1082Q286 1031 360 988T504 907Q574 870 614 848T667 818Q691 802 709 781T728 719Q728 678 665 638Q653 631 612 611T500 555Q430 521 355 480T199 390Q185 381
161 381Q135 381 118 402T100 451Z" />
<glyph unicode="&#xbc;" glyph-name="onequarter" horiz-adv-x="1283" d="M647 1327Q659 1355 684 1355Q703 1355 718 1341T733 1305Q733 1294 729 1284L237 155Q225 128 196 128Q174 128 160 149T156 198L647 1327ZM99 1235Q99 1254 120 1261T161 1269Q242 1269
270 1222T308 1101Q316 1034 316 965Q316 876 302 783L277 623Q275 609 260 602T226 595Q206 595 189 603T175 629L201 789Q215 879 215 966Q215 1017 209 1083T185 1179Q168 1205 165 1205Q160 1204 153 1204Q135 1204 117 1212T99 1235ZM552 429Q566 429 599
433T671 441T737 449T767 453V668Q767 685 778 697T806 709Q823 709 833 697T844 668V464Q994 484 1063 484Q1117 484 1150 460T1183 399Q1183 379 1171 369T1143 358Q1113 358 1107 390Q1091 398 1045 398Q977 398 844 380V57Q844 41 834 28T806 15Q790 15 779
28T767 57V369Q764 369 734 365T665 357T592 348T548 344Q499 344 458 360T416 413Q416 437 425 458T448 497Q494 556 522 591T568 649T602 696T639 754T696 846Q718 881 740 865Q767 846 767 823Q767 812 760 800Q725 743 703 708T663 647T622 592T562 515Q532
477 517 457T500 434Q521 429 552 429Z" />
<glyph unicode="&#xbd;" glyph-name="onehalf" horiz-adv-x="1210" d="M647 1327Q659 1355 684 1355Q703 1355 718 1341T733 1305Q733 1294 729 1284L237 155Q225 128 196 128Q174 128 160 149T156 198L647 1327ZM99 1235Q99 1254 120 1261T161 1269Q242 1269
270 1222T308 1101Q316 1034 316 965Q316 876 302 783L277 623Q275 609 260 602T226 595Q206 595 189 603T175 629L201 789Q215 879 215 966Q215 1017 209 1083T185 1179Q168 1205 165 1205Q160 1204 153 1204Q135 1204 117 1212T99 1235ZM891 491Q891 547 846
581T739 615Q682 615 639 592T544 515Q534 505 518 505Q503 505 491 514T479 536Q479 546 489 556Q549 618 606 648T734 678Q827 678 895 630T963 495Q963 437 929 389Q884 325 819 254T669 102Q709 109 757 109Q805 109 870 101T981 92Q1022 92 1047 99Q1063 104
1075 104Q1101 104 1108 83Q1118 53 1083 43Q1027 27 979 27Q935 27 876 38T754 50Q669 50 575 11Q532 -7 518 5Q489 31 514 53L538 73Q734 239 869 423Q891 456 891 491Z" />
<glyph unicode="&#xbe;" glyph-name="threequarters" horiz-adv-x="1725" d="M653 693Q653 758 611 803T508 848Q469 848 426 828Q417 824 407 824Q390 824 378 837T366 866Q366 887 385 899Q433 930 468 962Q566 1052 582 1148Q585 1164 585 1180Q585 1234 553
1267T465 1300Q397 1300 331 1263T190 1156Q178 1144 161 1144Q142 1144 131 1157T120 1186Q120 1203 132 1215Q298 1369 443 1381Q454 1382 465 1382Q555 1382 612 1325T669 1179Q669 1157 665 1134Q647 1025 551 926Q617 914 660 871T724 768Q737 731 737 696Q737
600 673 552T512 503Q356 503 121 635Q101 646 101 667Q101 683 113 697T143 711Q153 711 164 705Q377 584 513 584Q574 584 613 612T653 693ZM1089 1327Q1101 1355 1126 1355Q1145 1355 1160 1341T1175 1305Q1175 1294 1171 1284L679 155Q667 128 638 128Q616
128 602 149T598 198L1089 1327ZM994 429Q1008 429 1041 433T1113 441T1179 449T1209 453V668Q1209 685 1220 697T1248 709Q1265 709 1275 697T1286 668V464Q1436 484 1505 484Q1559 484 1592 460T1625 399Q1625 379 1613 369T1585 358Q1555 358 1549 390Q1533
398 1487 398Q1419 398 1286 380V57Q1286 41 1276 28T1248 15Q1232 15 1221 28T1209 57V369Q1206 369 1176 365T1107 357T1034 348T990 344Q941 344 900 360T858 413Q858 437 867 458T890 497Q936 556 964 591T1010 649T1044 696T1081 754T1138 846Q1160 881 1182
865Q1209 846 1209 823Q1209 812 1202 800Q1167 743 1145 708T1105 647T1064 592T1004 515Q974 477 959 457T942 434Q963 429 994 429Z" />
<glyph unicode="&#xbf;" glyph-name="questiondown" horiz-adv-x="984" d="M272 1162Q272 1209 296 1249T372 1289Q421 1289 450 1246T480 1150Q480 1102 452 1063T379 1024Q330 1024 301 1068T272 1162ZM578 -106Q651 -106 703 -72T755 38Q755 80 738 136Q735
147 735 157Q735 185 756 201T802 218Q821 218 838 207T862 173Q885 98 885 36Q885 -51 843 -111T731 -203T579 -235Q511 -235 431 -216Q155 -151 107 -10Q100 12 100 36Q100 152 273 320Q367 410 402 474Q433 529 433 591Q433 651 408 705T345 802Q328 821 328
844Q328 870 349 890T396 910Q422 910 441 889Q496 827 528 752T561 596Q561 475 508 395T376 239Q284 150 240 77Q219 49 226 29Q236 1 280 -23T378 -65T466 -91Q528 -106 578 -106Z" />
<glyph unicode="&#xc0;" glyph-name="Agrave" horiz-adv-x="1370" d="M683 1656Q683 1685 704 1703T749 1722Q788 1722 806 1689L879 1523Q899 1489 899 1467Q899 1449 885 1437T852 1425Q828 1425 809 1458L693 1623Q683 1639 683 1656ZM163 -39Q140 -39 119
-20T100 24Q136 507 255 893Q374 1277 539 1402Q607 1453 671 1453Q853 1453 1012 1051Q1151 698 1254 125L1270 37Q1271 31 1271 26Q1271 -4 1250 -20T1203 -37Q1182 -37 1164 -25T1141 15L1126 102Q1103 231 1078 348T1026 572H309Q250 280 230 20Q228 -6 208
-22T163 -39ZM338 702H992Q880 1101 760 1252Q732 1288 704 1304Q678 1318 666 1317Q602 1309 540 1216Q420 1036 338 702Z" />
<glyph unicode="&#xc1;" glyph-name="Aacute" horiz-adv-x="1370" d="M512 1437Q494 1437 480 1449T465 1479Q465 1501 485 1535L558 1701Q576 1734 614 1734Q638 1734 659 1716T680 1668Q680 1651 670 1635L555 1470Q536 1437 512 1437ZM163 -39Q140 -39 119
-20T100 24Q136 507 255 893Q374 1277 539 1402Q607 1453 671 1453Q853 1453 1012 1051Q1151 698 1254 125L1270 37Q1271 31 1271 26Q1271 -4 1250 -20T1203 -37Q1182 -37 1164 -25T1141 15L1126 102Q1103 231 1078 348T1026 572H309Q250 280 230 20Q228 -6 208
-22T163 -39ZM338 702H992Q880 1101 760 1252Q732 1288 704 1304Q678 1318 666 1317Q602 1309 540 1216Q420 1036 338 702Z" />
<glyph unicode="&#xc2;" glyph-name="Acircumflex" horiz-adv-x="1370" d="M332 1477L623 1750Q642 1768 668 1768Q696 1768 715 1749L986 1471Q1006 1451 1006 1427Q1006 1401 985 1381T937 1360Q912 1360 893 1380L667 1612L422 1383Q402 1364 378 1364Q352
1364 332 1385T312 1432Q312 1458 332 1477ZM163 -39Q140 -39 119 -20T100 24Q136 507 255 893Q374 1277 539 1402Q607 1453 671 1453Q853 1453 1012 1051Q1151 698 1254 125L1270 37Q1271 31 1271 26Q1271 -4 1250 -20T1203 -37Q1182 -37 1164 -25T1141 15L1126
102Q1103 231 1078 348T1026 572H309Q250 280 230 20Q228 -6 208 -22T163 -39ZM338 702H992Q880 1101 760 1252Q732 1288 704 1304Q678 1318 666 1317Q602 1309 540 1216Q420 1036 338 702Z" />
<glyph unicode="&#xc3;" glyph-name="Atilde" horiz-adv-x="1370" d="M343 1422Q322 1422 302 1441T282 1480Q282 1501 286 1510Q312 1582 380 1637T544 1693Q637 1693 739 1629Q783 1601 813 1584T859 1559Q891 1546 920 1546Q958 1546 990 1572T1028 1631Q1033
1658 1050 1676T1096 1695Q1117 1695 1138 1678T1159 1641Q1159 1545 1085 1481Q1011 1417 922 1417Q831 1417 724 1484Q686 1508 642 1535T547 1563Q498 1563 460 1534T408 1466Q402 1449 384 1436T343 1422ZM163 -39Q140 -39 119 -20T100 24Q136 507 255 893Q374
1277 539 1402Q607 1453 671 1453Q853 1453 1012 1051Q1151 698 1254 125L1270 37Q1271 31 1271 26Q1271 -4 1250 -20T1203 -37Q1182 -37 1164 -25T1141 15L1126 102Q1103 231 1078 348T1026 572H309Q250 280 230 20Q228 -6 208 -22T163 -39ZM338 702H992Q880 1101
760 1252Q732 1288 704 1304Q678 1318 666 1317Q602 1309 540 1216Q420 1036 338 702Z" />
<glyph unicode="&#xc4;" glyph-name="Adieresis" horiz-adv-x="1370" d="M611 1575Q611 1530 581 1499T502 1468Q447 1468 420 1503T392 1590Q392 1615 398 1640Q402 1658 416 1685T449 1734T491 1755Q522 1755 549 1725T594 1652T611 1575ZM922 1567Q922 1522
892 1491T813 1460Q758 1460 731 1495T703 1582Q703 1607 709 1632Q713 1650 727 1677T760 1726T802 1747Q833 1747 860 1717T905 1644T922 1567ZM163 -39Q140 -39 119 -20T100 24Q136 507 255 893Q374 1277 539 1402Q607 1453 671 1453Q853 1453 1012 1051Q1151
698 1254 125L1270 37Q1271 31 1271 26Q1271 -4 1250 -20T1203 -37Q1182 -37 1164 -25T1141 15L1126 102Q1103 231 1078 348T1026 572H309Q250 280 230 20Q228 -6 208 -22T163 -39ZM338 702H992Q880 1101 760 1252Q732 1288 704 1304Q678 1318 666 1317Q602 1309
540 1216Q420 1036 338 702Z" />
<glyph unicode="&#xc5;" glyph-name="Aring" horiz-adv-x="1370" d="M676 1914Q775 1914 843 1852T911 1679Q911 1589 852 1534T706 1464Q690 1462 675 1462Q613 1462 563 1495T483 1584T453 1706Q453 1794 516 1854T676 1914ZM544 1701Q544 1648 581 1605T677
1561Q782 1561 815 1647Q821 1663 821 1682Q821 1697 817 1713Q788 1816 684 1816Q623 1816 584 1788T544 1701ZM163 -39Q140 -39 119 -20T100 24Q136 507 255 893Q374 1277 539 1402Q607 1453 671 1453Q853 1453 1012 1051Q1151 698 1254 125L1270 37Q1271 31
1271 26Q1271 -4 1250 -20T1203 -37Q1182 -37 1164 -25T1141 15L1126 102Q1103 231 1078 348T1026 572H309Q250 280 230 20Q228 -6 208 -22T163 -39ZM338 702H992Q880 1101 760 1252Q732 1288 704 1304Q678 1318 666 1317Q602 1309 540 1216Q420 1036 338 702Z"
/>
<glyph unicode="&#xc6;" glyph-name="AE" horiz-adv-x="2201" d="M1833 774Q1877 774 1909 764T1941 715Q1941 691 1924 673T1885 653L1150 657Q1147 365 1135 129Q1454 130 1629 132T1838 138Q1872 141 1892 144T1931 147Q1959 147 1999 137Q2030 123 2030 87Q2030
66 2018 48T1982 26Q1766 9 1453 8Q1330 8 1262 7T1157 6T1089 5Q1087 5 1085 5Q1004 5 994 59Q1002 241 1006 377T1011 603L450 609Q400 511 366 432T306 278T252 115Q242 82 234 57T219 12Q202 -16 170 -16Q144 -16 122 2T100 47Q100 50 100 53Q180 367 349 697Q644
1261 1055 1420Q1201 1436 1374 1436Q1535 1436 1720 1422Q1886 1410 2031 1360Q2053 1357 2077 1338T2102 1292Q2102 1266 2081 1249T2036 1232Q2016 1232 1994 1239T1952 1256Q1825 1288 1698 1300T1431 1312Q1364 1312 1293 1310T1146 1305Q1149 1202 1150 1100T1151
896Q1151 840 1151 779Q1174 779 1235 778T1375 776T1532 775T1671 774T1751 773Q1773 773 1793 773T1833 774ZM1008 1256Q741 1107 521 738Q644 737 767 736T1012 733Q1012 795 1012 856Q1012 955 1011 1055T1008 1256Z" />
<glyph unicode="&#xc7;" glyph-name="Ccedilla" horiz-adv-x="1370" d="M890 -264Q872 -264 856 -267T818 -270Q802 -270 783 -251T763 -216Q763 -208 763 -203T764 -196L790 -20V-19Q594 -15 438 56T192 262T101 592Q101 755 163 894T324 1140T533 1312Q746 1437
996 1437Q1097 1437 1204 1417Q1228 1412 1242 1393T1256 1351Q1256 1325 1234 1305T1180 1290Q1087 1308 999 1308Q782 1308 598 1200Q506 1146 422 1056T284 848T230 595Q230 432 307 325T516 164T816 111Q982 111 1190 160Q1198 162 1206 162Q1235 162 1252
141T1269 94Q1269 74 1257 57T1220 34Q1140 15 1065 3T919 -15V-25Q919 -35 918 -38L904 -136Q983 -141 1031 -184T1079 -303Q1079 -349 1059 -388Q1031 -441 971 -479T828 -517Q736 -517 636 -454Q605 -435 605 -403Q605 -375 622 -354T666 -333Q689 -333 717
-351Q736 -363 770 -376T839 -390Q876 -390 902 -371T941 -330Q950 -312 950 -299Q950 -280 933 -272T890 -264Z" />
<glyph unicode="&#xc8;" glyph-name="Egrave" horiz-adv-x="1298" d="M665 1662Q665 1691 686 1709T731 1728Q770 1728 788 1695L861 1529Q881 1495 881 1473Q881 1455 867 1443T834 1431Q810 1431 791 1464L675 1629Q665 1645 665 1662ZM492 1303Q429 1303 360
1302T244 1297Q250 1009 250 779L975 774Q1006 774 1021 754T1037 709Q1037 684 1022 664T974 644L249 649Q248 516 245 410T238 225L233 129Q561 130 768 134T1065 146Q1095 149 1111 127T1127 80Q1127 57 1113 38T1070 16Q972 7 746 3T165 -1Q140 -1 120 19T100
67Q100 78 102 135T107 279T113 461T118 648T120 806Q120 931 117 1069T113 1359Q113 1384 131 1403T174 1423L246 1428Q332 1433 424 1434T614 1432Q999 1420 1160 1348Q1198 1331 1197 1285Q1197 1260 1181 1242T1136 1223Q1122 1223 1107 1230Q941 1303 492
1303Z" />
<glyph unicode="&#xc9;" glyph-name="Eacute" horiz-adv-x="1298" d="M404 1464Q386 1464 372 1476T357 1506Q357 1528 377 1562L450 1728Q468 1761 506 1761Q530 1761 551 1743T572 1695Q572 1678 562 1662L447 1497Q428 1464 404 1464ZM492 1303Q429 1303 360
1302T244 1297Q250 1009 250 779L975 774Q1006 774 1021 754T1037 709Q1037 684 1022 664T974 644L249 649Q248 516 245 410T238 225L233 129Q561 130 768 134T1065 146Q1095 149 1111 127T1127 80Q1127 57 1113 38T1070 16Q972 7 746 3T165 -1Q140 -1 120 19T100
67Q100 78 102 135T107 279T113 461T118 648T120 806Q120 931 117 1069T113 1359Q113 1384 131 1403T174 1423L246 1428Q332 1433 424 1434T614 1432Q999 1420 1160 1348Q1198 1331 1197 1285Q1197 1260 1181 1242T1136 1223Q1122 1223 1107 1230Q941 1303 492
1303Z" />
<glyph unicode="&#xca;" glyph-name="Ecircumflex" horiz-adv-x="1298" d="M281 1567L572 1840Q591 1858 617 1858Q645 1858 664 1839L935 1561Q955 1541 955 1517Q955 1491 934 1471T886 1450Q861 1450 842 1470L616 1702L371 1473Q351 1454 327 1454Q301 1454
281 1475T261 1522Q261 1548 281 1567ZM492 1303Q429 1303 360 1302T244 1297Q250 1009 250 779L975 774Q1006 774 1021 754T1037 709Q1037 684 1022 664T974 644L249 649Q248 516 245 410T238 225L233 129Q561 130 768 134T1065 146Q1095 149 1111 127T1127 80Q1127
57 1113 38T1070 16Q972 7 746 3T165 -1Q140 -1 120 19T100 67Q100 78 102 135T107 279T113 461T118 648T120 806Q120 931 117 1069T113 1359Q113 1384 131 1403T174 1423L246 1428Q332 1433 424 1434T614 1432Q999 1420 1160 1348Q1198 1331 1197 1285Q1197 1260
1181 1242T1136 1223Q1122 1223 1107 1230Q941 1303 492 1303Z" />
<glyph unicode="&#xcb;" glyph-name="Edieresis" horiz-adv-x="1298" d="M581 1581Q581 1536 551 1505T472 1474Q417 1474 390 1509T362 1596Q362 1621 368 1646Q372 1664 386 1691T419 1740T461 1761Q492 1761 519 1731T564 1658T581 1581ZM892 1573Q892 1528
862 1497T783 1466Q728 1466 701 1501T673 1588Q673 1613 679 1638Q683 1656 697 1683T730 1732T772 1753Q803 1753 830 1723T875 1650T892 1573ZM492 1303Q429 1303 360 1302T244 1297Q250 1009 250 779L975 774Q1006 774 1021 754T1037 709Q1037 684 1022 664T974
644L249 649Q248 516 245 410T238 225L233 129Q561 130 768 134T1065 146Q1095 149 1111 127T1127 80Q1127 57 1113 38T1070 16Q972 7 746 3T165 -1Q140 -1 120 19T100 67Q100 78 102 135T107 279T113 461T118 648T120 806Q120 931 117 1069T113 1359Q113 1384
131 1403T174 1423L246 1428Q332 1433 424 1434T614 1432Q999 1420 1160 1348Q1198 1331 1197 1285Q1197 1260 1181 1242T1136 1223Q1122 1223 1107 1230Q941 1303 492 1303Z" />
<glyph unicode="&#xcc;" glyph-name="Igrave" horiz-adv-x="342" d="M95 1674Q95 1703 116 1721T161 1740Q200 1740 218 1707L291 1541Q311 1507 311 1485Q311 1467 297 1455T264 1443Q240 1443 221 1476L105 1641Q95 1657 95 1674ZM167 1456Q191 1456 210 1436T230
1391L243 38Q243 6 223 -10T177 -26Q153 -26 133 -11T113 36L100 1390Q100 1416 120 1436T167 1456Z" />
<glyph unicode="&#xcd;" glyph-name="Iacute" horiz-adv-x="342" d="M56 1473Q38 1473 24 1485T9 1515Q9 1537 29 1571L102 1737Q120 1770 158 1770Q182 1770 203 1752T224 1704Q224 1687 214 1671L99 1506Q80 1473 56 1473ZM167 1456Q191 1456 210 1436T230 1391L243
38Q243 6 223 -10T177 -26Q153 -26 133 -11T113 36L100 1390Q100 1416 120 1436T167 1456Z" />
<glyph unicode="&#xce;" glyph-name="Icircumflex" horiz-adv-x="342" d="M-163 1402L128 1675Q147 1693 173 1693Q201 1693 220 1674L491 1396Q511 1376 511 1352Q511 1326 490 1306T442 1285Q417 1285 398 1305L172 1537L-73 1308Q-93 1289 -117 1289Q-143 1289
-163 1310T-183 1357Q-183 1383 -163 1402ZM167 1456Q191 1456 210 1436T230 1391L243 38Q243 6 223 -10T177 -26Q153 -26 133 -11T113 36L100 1390Q100 1416 120 1436T167 1456Z" />
<glyph unicode="&#xcf;" glyph-name="Idieresis" horiz-adv-x="342" d="M128 1578Q128 1535 97 1503T19 1470Q-36 1470 -63 1505T-91 1592Q-91 1617 -85 1642Q-81 1660 -67 1687T-34 1736T9 1758Q39 1758 66 1728T111 1655T128 1578ZM439 1570Q439 1527 408 1495T330
1462Q275 1462 248 1497T220 1584Q220 1609 226 1634Q230 1652 244 1679T277 1728T320 1750Q350 1750 377 1720T422 1647T439 1570ZM167 1456Q191 1456 210 1436T230 1391L243 38Q243 6 223 -10T177 -26Q153 -26 133 -11T113 36L100 1390Q100 1416 120 1436T167
1456Z" />
<glyph unicode="&#xd0;" glyph-name="Eth" horiz-adv-x="1093" d="M-83 765Q-110 765 -129 784T-148 830Q-148 857 -129 876T-83 895H101L100 1366Q100 1390 115 1408T151 1430Q225 1446 296 1446Q479 1446 644 1338Q732 1280 812 1183T942 961T993 693Q993 627
981 562Q947 384 836 264T556 76T176 -10Q174 -10 171 -10Q146 -10 127 9T106 53L102 765H-83ZM423 830Q423 803 404 784T358 765H232L236 127Q389 146 519 201T738 349T851 575Q862 633 862 691Q862 812 820 916T711 1102T567 1233Q439 1316 294 1316Q263 1316
230 1312L231 895H358Q385 895 404 876T423 830Z" />
<glyph unicode="&#xd1;" glyph-name="Ntilde" horiz-adv-x="1264" d="M262 1434Q241 1434 221 1453T201 1492Q201 1513 205 1522Q231 1594 299 1649T463 1705Q556 1705 658 1641Q702 1613 732 1596T778 1571Q810 1558 839 1558Q877 1558 909 1584T947 1643Q952
1670 969 1688T1015 1707Q1036 1707 1057 1690T1078 1653Q1078 1557 1004 1493Q930 1429 841 1429Q750 1429 643 1496Q605 1520 561 1547T466 1575Q417 1575 379 1546T327 1478Q321 1461 303 1448T262 1434ZM201 -33Q177 -33 158 -14T138 30L100 1369Q99 1399 120
1417T166 1435Q199 1435 218 1408L1027 243L991 1396Q990 1428 1010 1444T1056 1461Q1080 1461 1100 1446T1121 1400L1164 28Q1165 -3 1144 -20T1098 -38Q1065 -38 1046 -11L236 1155L268 34Q269 7 248 -13T201 -33Z" />
<glyph unicode="&#xd2;" glyph-name="Ograve" horiz-adv-x="1702" d="M860 1662Q860 1691 881 1709T926 1728Q965 1728 983 1695L1056 1529Q1076 1495 1076 1473Q1076 1455 1062 1443T1029 1431Q1005 1431 986 1464L870 1629Q860 1645 860 1662ZM1601 678Q1601
527 1543 403T1381 189T1141 50T850 1Q779 1 707 13T564 51Q407 108 285 233T120 539Q100 622 100 702Q100 815 138 917T237 1103T368 1244Q568 1408 828 1418Q839 1419 847 1417T863 1413Q1053 1403 1206 1315T1451 1107Q1601 912 1601 678ZM835 1288Q617 1279
444 1138Q271 997 237 779Q231 739 231 698Q231 605 259 524T327 387Q407 277 539 204T846 130Q908 130 973 141Q1108 163 1221 233T1403 415T1472 672Q1472 797 1425 901T1300 1082T1131 1207Q998 1276 856 1283Q847 1283 835 1288Z" />
<glyph unicode="&#xd3;" glyph-name="Oacute" horiz-adv-x="1702" d="M740 1434Q722 1434 708 1446T693 1476Q693 1498 713 1532L786 1698Q804 1731 842 1731Q866 1731 887 1713T908 1665Q908 1648 898 1632L783 1467Q764 1434 740 1434ZM1601 678Q1601 527 1543
403T1381 189T1141 50T850 1Q779 1 707 13T564 51Q407 108 285 233T120 539Q100 622 100 702Q100 815 138 917T237 1103T368 1244Q568 1408 828 1418Q839 1419 847 1417T863 1413Q1053 1403 1206 1315T1451 1107Q1601 912 1601 678ZM835 1288Q617 1279 444 1138Q271
997 237 779Q231 739 231 698Q231 605 259 524T327 387Q407 277 539 204T846 130Q908 130 973 141Q1108 163 1221 233T1403 415T1472 672Q1472 797 1425 901T1300 1082T1131 1207Q998 1276 856 1283Q847 1283 835 1288Z" />
<glyph unicode="&#xd4;" glyph-name="Ocircumflex" horiz-adv-x="1702" d="M518 1492L809 1765Q828 1783 854 1783Q882 1783 901 1764L1172 1486Q1192 1466 1192 1442Q1192 1416 1171 1396T1123 1375Q1098 1375 1079 1395L853 1627L608 1398Q588 1379 564 1379Q538
1379 518 1400T498 1447Q498 1473 518 1492ZM1601 678Q1601 527 1543 403T1381 189T1141 50T850 1Q779 1 707 13T564 51Q407 108 285 233T120 539Q100 622 100 702Q100 815 138 917T237 1103T368 1244Q568 1408 828 1418Q839 1419 847 1417T863 1413Q1053 1403
1206 1315T1451 1107Q1601 912 1601 678ZM835 1288Q617 1279 444 1138Q271 997 237 779Q231 739 231 698Q231 605 259 524T327 387Q407 277 539 204T846 130Q908 130 973 141Q1108 163 1221 233T1403 415T1472 672Q1472 797 1425 901T1300 1082T1131 1207Q998 1276
856 1283Q847 1283 835 1288Z" />
<glyph unicode="&#xd5;" glyph-name="Otilde" horiz-adv-x="1702" d="M445 1437Q424 1437 404 1456T384 1495Q384 1516 388 1525Q414 1597 482 1652T646 1708Q739 1708 841 1644Q885 1616 915 1599T961 1574Q993 1561 1022 1561Q1060 1561 1092 1587T1130 1646Q1135
1673 1152 1691T1198 1710Q1219 1710 1240 1693T1261 1656Q1261 1560 1187 1496Q1113 1432 1024 1432Q933 1432 826 1499Q788 1523 744 1550T649 1578Q600 1578 562 1549T510 1481Q504 1464 486 1451T445 1437ZM1601 678Q1601 527 1543 403T1381 189T1141 50T850
1Q779 1 707 13T564 51Q407 108 285 233T120 539Q100 622 100 702Q100 815 138 917T237 1103T368 1244Q568 1408 828 1418Q839 1419 847 1417T863 1413Q1053 1403 1206 1315T1451 1107Q1601 912 1601 678ZM835 1288Q617 1279 444 1138Q271 997 237 779Q231 739
231 698Q231 605 259 524T327 387Q407 277 539 204T846 130Q908 130 973 141Q1108 163 1221 233T1403 415T1472 672Q1472 797 1425 901T1300 1082T1131 1207Q998 1276 856 1283Q847 1283 835 1288Z" />
<glyph unicode="&#xd6;" glyph-name="Odieresis" horiz-adv-x="1702" d="M791 1554Q791 1511 760 1479T682 1446Q627 1446 600 1481T572 1568Q572 1593 578 1618Q582 1636 596 1663T629 1712T672 1734Q702 1734 729 1704T774 1631T791 1554ZM1102 1546Q1102 1503
1071 1471T993 1438Q938 1438 911 1473T883 1560Q883 1585 889 1610Q893 1628 907 1655T940 1704T983 1726Q1013 1726 1040 1696T1085 1623T1102 1546ZM1601 678Q1601 527 1543 403T1381 189T1141 50T850 1Q779 1 707 13T564 51Q407 108 285 233T120 539Q100 622
100 702Q100 815 138 917T237 1103T368 1244Q568 1408 828 1418Q839 1419 847 1417T863 1413Q1053 1403 1206 1315T1451 1107Q1601 912 1601 678ZM835 1288Q617 1279 444 1138Q271 997 237 779Q231 739 231 698Q231 605 259 524T327 387Q407 277 539 204T846 130Q908
130 973 141Q1108 163 1221 233T1403 415T1472 672Q1472 797 1425 901T1300 1082T1131 1207Q998 1276 856 1283Q847 1283 835 1288Z" />
<glyph unicode="&#xd7;" glyph-name="multiply" horiz-adv-x="1076" d="M200 272Q174 272 155 290T135 335Q135 363 156 384L423 640L129 867Q102 888 102 922Q102 947 118 966T163 986Q166 986 169 986Q187 986 201 975L518 731L789 990Q807 1008 830 1008Q856
1008 876 987T896 940Q896 914 875 894L621 651L948 399Q975 378 975 344Q975 323 963 305T925 282Q895 276 876 291L527 560L242 288Q225 272 200 272Z" />
<glyph unicode="&#xd8;" glyph-name="Oslash" horiz-adv-x="1702" d="M244 -7Q218 -7 196 13T174 63Q174 77 183 87L299 220Q164 355 120 539Q100 622 100 702Q100 815 138 917T237 1103T368 1244Q568 1408 828 1418Q839 1419 847 1417T863 1413Q1060 1403 1236
1297L1315 1389Q1329 1405 1341 1415T1372 1426Q1397 1426 1419 1406T1442 1357Q1442 1344 1433 1334L1339 1224Q1401 1173 1451 1107Q1601 912 1601 678Q1601 527 1543 403T1381 189T1141 50T850 1Q720 1 599 41T394 139L300 31Q286 15 274 4T244 -7ZM835 1288Q716
1283 608 1238T415 1115T281 933T231 704Q231 617 255 535T312 407Q356 348 384 318L1149 1197Q1011 1274 856 1283Q847 1283 835 1288ZM480 238Q551 190 649 161T856 131Q916 131 973 141Q1108 163 1221 233T1403 415T1472 672Q1472 776 1441 862T1348 1028Q1306
1082 1253 1126L480 238Z" />
<glyph unicode="&#xd9;" glyph-name="Ugrave" horiz-adv-x="1370" d="M584 1665Q584 1694 605 1712T650 1731Q689 1731 707 1698L780 1532Q800 1498 800 1476Q800 1458 786 1446T753 1434Q729 1434 710 1467L594 1632Q584 1648 584 1665ZM663 111Q802 111 894
167T1040 324T1118 557T1141 840Q1141 1070 1086 1383Q1085 1389 1085 1395Q1085 1425 1106 1441T1153 1458Q1174 1458 1191 1446T1214 1406Q1270 1083 1270 832Q1270 302 1018 94Q952 39 860 9T665 -21Q489 -21 386 46T229 231T144 502Q100 730 100 1146Q100 1257
103 1380Q104 1406 124 1424T170 1443Q195 1443 214 1423T233 1376Q230 1246 230 1132Q230 736 271 528Q325 256 423 181Q515 111 663 111Z" />
<glyph unicode="&#xda;" glyph-name="Uacute" horiz-adv-x="1370" d="M404 1434Q386 1434 372 1446T357 1476Q357 1498 377 1532L450 1698Q468 1731 506 1731Q530 1731 551 1713T572 1665Q572 1648 562 1632L447 1467Q428 1434 404 1434ZM663 111Q802 111 894
167T1040 324T1118 557T1141 840Q1141 1070 1086 1383Q1085 1389 1085 1395Q1085 1425 1106 1441T1153 1458Q1174 1458 1191 1446T1214 1406Q1270 1083 1270 832Q1270 302 1018 94Q952 39 860 9T665 -21Q489 -21 386 46T229 231T144 502Q100 730 100 1146Q100 1257
103 1380Q104 1406 124 1424T170 1443Q195 1443 214 1423T233 1376Q230 1246 230 1132Q230 736 271 528Q325 256 423 181Q515 111 663 111Z" />
<glyph unicode="&#xdb;" glyph-name="Ucircumflex" horiz-adv-x="1370" d="M317 1546L608 1819Q627 1837 653 1837Q681 1837 700 1818L971 1540Q991 1520 991 1496Q991 1470 970 1450T922 1429Q897 1429 878 1449L652 1681L407 1452Q387 1433 363 1433Q337 1433
317 1454T297 1501Q297 1527 317 1546ZM663 111Q802 111 894 167T1040 324T1118 557T1141 840Q1141 1070 1086 1383Q1085 1389 1085 1395Q1085 1425 1106 1441T1153 1458Q1174 1458 1191 1446T1214 1406Q1270 1083 1270 832Q1270 302 1018 94Q952 39 860 9T665
-21Q489 -21 386 46T229 231T144 502Q100 730 100 1146Q100 1257 103 1380Q104 1406 124 1424T170 1443Q195 1443 214 1423T233 1376Q230 1246 230 1132Q230 736 271 528Q325 256 423 181Q515 111 663 111Z" />
<glyph unicode="&#xdc;" glyph-name="Udieresis" horiz-adv-x="1370" d="M626 1551Q626 1506 596 1475T517 1444Q462 1444 435 1479T407 1566Q407 1591 413 1616Q417 1634 431 1661T464 1710T506 1731Q537 1731 564 1701T609 1628T626 1551ZM937 1543Q937 1498
907 1467T828 1436Q773 1436 746 1471T718 1558Q718 1583 724 1608Q728 1626 742 1653T775 1702T817 1723Q848 1723 875 1693T920 1620T937 1543ZM663 111Q802 111 894 167T1040 324T1118 557T1141 840Q1141 1070 1086 1383Q1085 1389 1085 1395Q1085 1425 1106
1441T1153 1458Q1174 1458 1191 1446T1214 1406Q1270 1083 1270 832Q1270 302 1018 94Q952 39 860 9T665 -21Q489 -21 386 46T229 231T144 502Q100 730 100 1146Q100 1257 103 1380Q104 1406 124 1424T170 1443Q195 1443 214 1423T233 1376Q230 1246 230 1132Q230
736 271 528Q325 256 423 181Q515 111 663 111Z" />
<glyph unicode="&#xdd;" glyph-name="Yacute" horiz-adv-x="1272" d="M674 1275Q656 1275 642 1287T627 1317Q627 1339 647 1373L720 1539Q738 1572 776 1572Q800 1572 821 1554T842 1506Q842 1489 832 1473L717 1308Q698 1275 674 1275ZM445 -79Q418 -79 399
-60T380 -14Q380 0 386 13Q459 172 532 331T678 650L115 1334Q100 1353 100 1374Q100 1400 121 1420T168 1440Q196 1440 215 1416L738 782Q815 952 893 1121T1048 1459Q1055 1474 1071 1485T1107 1497Q1134 1497 1153 1478T1172 1432Q1172 1418 1166 1405L504 -41Q497
-56 481 -67T445 -79Z" />
<glyph unicode="&#xde;" glyph-name="Thorn" horiz-adv-x="993" d="M168 -27Q147 -27 125 -10T103 26V39L100 1392V1406Q100 1424 122 1441T165 1458Q186 1458 208 1441T230 1406V1264Q540 1249 719 1136Q785 1094 839 1026T893 862Q893 756 831 685T692 572Q522
479 270 479Q251 479 232 480L233 40V26Q233 7 211 -10T168 -27ZM231 1134L232 610Q253 609 274 609Q489 609 618 680Q764 761 764 864Q764 906 736 947T649 1026Q502 1121 231 1134Z" />
<glyph unicode="&#xdf;" glyph-name="germandbls" horiz-adv-x="1084" d="M503 131Q579 131 660 150T797 209T853 313Q853 387 769 473Q668 577 468 634Q423 646 421 703Q421 729 449 749Q611 861 681 979Q713 1033 713 1082Q713 1128 685 1168T616 1236T541 1271Q513
1277 485 1277Q399 1277 325 1215Q271 1170 252 1124Q235 1086 235 1061L230 63Q229 36 211 18T165 -2Q140 -2 119 17Q115 30 100 49V64L105 1061Q107 1200 241 1314Q356 1411 480 1411Q572 1411 669 1357Q803 1283 832 1155Q841 1116 841 1079Q841 994 796 918Q733
811 621 717Q891 603 964 416Q985 362 985 312Q985 219 913 141Q783 -1 521 -1Q453 -1 376 9Q353 12 336 30T318 75Q318 96 334 117T370 139Q370 139 371 139Q405 139 438 135T503 131Z" />
<glyph unicode="&#xe0;" glyph-name="agrave" horiz-adv-x="1095" d="M554 1293Q554 1322 575 1340T620 1359Q659 1359 677 1326L750 1160Q770 1126 770 1104Q770 1086 756 1074T723 1062Q699 1062 680 1095L564 1260Q554 1276 554 1293ZM985 695Q988 684 988
672Q988 649 979 619Q964 461 964 337Q964 164 993 56Q996 46 996 37Q996 9 975 -7T928 -24Q909 -24 892 -13T868 23Q837 138 835 315Q740 162 631 74Q565 21 495 14Q453 2 413 2Q356 2 309 23T228 76Q167 133 134 223T100 433Q100 586 171 725Q275 929 487 997Q568
1024 643 1024Q737 1024 820 980Q965 903 985 695ZM855 686Q846 782 793 838T647 894Q592 894 527 873Q366 822 292 676Q230 553 230 431Q230 345 253 278T312 176Q358 134 415 134Q434 134 451 138T490 144Q507 146 557 185Q607 225 663 298T770 462T851 645Q852
655 853 665T855 686Z" />
<glyph unicode="&#xe1;" glyph-name="aacute" horiz-adv-x="1095" d="M461 1092Q443 1092 429 1104T414 1134Q414 1156 434 1190L507 1356Q525 1389 563 1389Q587 1389 608 1371T629 1323Q629 1306 619 1290L504 1125Q485 1092 461 1092ZM985 695Q988 684 988
672Q988 649 979 619Q964 461 964 337Q964 164 993 56Q996 46 996 37Q996 9 975 -7T928 -24Q909 -24 892 -13T868 23Q837 138 835 315Q740 162 631 74Q565 21 495 14Q453 2 413 2Q356 2 309 23T228 76Q167 133 134 223T100 433Q100 586 171 725Q275 929 487 997Q568
1024 643 1024Q737 1024 820 980Q965 903 985 695ZM855 686Q846 782 793 838T647 894Q592 894 527 873Q366 822 292 676Q230 553 230 431Q230 345 253 278T312 176Q358 134 415 134Q434 134 451 138T490 144Q507 146 557 185Q607 225 663 298T770 462T851 645Q852
655 853 665T855 686Z" />
<glyph unicode="&#xe2;" glyph-name="acircumflex" horiz-adv-x="1095" d="M278 1123L569 1396Q588 1414 614 1414Q642 1414 661 1395L932 1117Q952 1097 952 1073Q952 1047 931 1027T883 1006Q858 1006 839 1026L613 1258L368 1029Q348 1010 324 1010Q298 1010
278 1031T258 1078Q258 1104 278 1123ZM985 695Q988 684 988 672Q988 649 979 619Q964 461 964 337Q964 164 993 56Q996 46 996 37Q996 9 975 -7T928 -24Q909 -24 892 -13T868 23Q837 138 835 315Q740 162 631 74Q565 21 495 14Q453 2 413 2Q356 2 309 23T228 76Q167
133 134 223T100 433Q100 586 171 725Q275 929 487 997Q568 1024 643 1024Q737 1024 820 980Q965 903 985 695ZM855 686Q846 782 793 838T647 894Q592 894 527 873Q366 822 292 676Q230 553 230 431Q230 345 253 278T312 176Q358 134 415 134Q434 134 451 138T490
144Q507 146 557 185Q607 225 663 298T770 462T851 645Q852 655 853 665T855 686Z" />
<glyph unicode="&#xe3;" glyph-name="atilde" horiz-adv-x="1095" d="M207 1053Q186 1053 166 1072T146 1111Q146 1132 150 1141Q176 1213 244 1268T408 1324Q501 1324 603 1260Q647 1232 677 1215T723 1190Q755 1177 784 1177Q822 1177 854 1203T892 1262Q897
1289 914 1307T960 1326Q981 1326 1002 1309T1023 1272Q1023 1176 949 1112Q875 1048 786 1048Q695 1048 588 1115Q550 1139 506 1166T411 1194Q362 1194 324 1165T272 1097Q266 1080 248 1067T207 1053ZM985 695Q988 684 988 672Q988 649 979 619Q964 461 964
337Q964 164 993 56Q996 46 996 37Q996 9 975 -7T928 -24Q909 -24 892 -13T868 23Q837 138 835 315Q740 162 631 74Q565 21 495 14Q453 2 413 2Q356 2 309 23T228 76Q167 133 134 223T100 433Q100 586 171 725Q275 929 487 997Q568 1024 643 1024Q737 1024 820
980Q965 903 985 695ZM855 686Q846 782 793 838T647 894Q592 894 527 873Q366 822 292 676Q230 553 230 431Q230 345 253 278T312 176Q358 134 415 134Q434 134 451 138T490 144Q507 146 557 185Q607 225 663 298T770 462T851 645Q852 655 853 665T855 686Z" />
<glyph unicode="&#xe4;" glyph-name="adieresis" horiz-adv-x="1095" d="M602 1164Q602 1121 571 1089T493 1056Q438 1056 411 1091T383 1178Q383 1203 389 1228Q393 1246 407 1273T440 1322T483 1344Q513 1344 540 1314T585 1241T602 1164ZM913 1156Q913 1113
882 1081T804 1048Q749 1048 722 1083T694 1170Q694 1195 700 1220Q704 1238 718 1265T751 1314T794 1336Q824 1336 851 1306T896 1233T913 1156ZM985 695Q988 684 988 672Q988 649 979 619Q964 461 964 337Q964 164 993 56Q996 46 996 37Q996 9 975 -7T928 -24Q909
-24 892 -13T868 23Q837 138 835 315Q740 162 631 74Q565 21 495 14Q453 2 413 2Q356 2 309 23T228 76Q167 133 134 223T100 433Q100 586 171 725Q275 929 487 997Q568 1024 643 1024Q737 1024 820 980Q965 903 985 695ZM855 686Q846 782 793 838T647 894Q592 894
527 873Q366 822 292 676Q230 553 230 431Q230 345 253 278T312 176Q358 134 415 134Q434 134 451 138T490 144Q507 146 557 185Q607 225 663 298T770 462T851 645Q852 655 853 665T855 686Z" />
<glyph unicode="&#xe5;" glyph-name="aring" horiz-adv-x="1095" d="M584 1498Q683 1498 751 1436T819 1263Q819 1173 760 1118T614 1048Q598 1046 583 1046Q521 1046 471 1079T391 1168T361 1290Q361 1378 424 1438T584 1498ZM452 1285Q452 1232 489 1189T585
1145Q690 1145 723 1231Q729 1247 729 1266Q729 1281 725 1297Q696 1400 592 1400Q531 1400 492 1372T452 1285ZM985 695Q988 684 988 672Q988 649 979 619Q964 461 964 337Q964 164 993 56Q996 46 996 37Q996 9 975 -7T928 -24Q909 -24 892 -13T868 23Q837 138
835 315Q740 162 631 74Q565 21 495 14Q453 2 413 2Q356 2 309 23T228 76Q167 133 134 223T100 433Q100 586 171 725Q275 929 487 997Q568 1024 643 1024Q737 1024 820 980Q965 903 985 695ZM855 686Q846 782 793 838T647 894Q592 894 527 873Q366 822 292 676Q230
553 230 431Q230 345 253 278T312 176Q358 134 415 134Q434 134 451 138T490 144Q507 146 557 185Q607 225 663 298T770 462T851 645Q852 655 853 665T855 686Z" />
<glyph unicode="&#xe6;" glyph-name="ae" horiz-adv-x="1975" d="M509 1015Q689 1015 816 939T1004 737Q1079 856 1216 936T1544 1017Q1728 1017 1819 912Q1875 848 1875 760Q1875 709 1854 660Q1793 523 1596 439Q1400 355 1078 355Q1068 355 1063 356Q1091 253
1173 194T1388 134Q1555 134 1780 245Q1793 252 1815 252Q1841 252 1858 231T1875 180Q1875 145 1838 129Q1586 4 1387 4Q1236 4 1134 65T976 230Q909 124 792 56T510 -12Q274 -12 168 120Q143 151 128 190T113 273Q113 321 133 368Q191 501 384 578Q579 656 897
656H898Q852 770 750 826T509 883Q362 883 187 823Q178 819 157 819Q137 819 119 839T100 880Q100 903 113 921T145 946Q344 1015 509 1015ZM1523 887Q1398 887 1299 838T1136 706T1056 521Q1056 511 1056 501T1055 481Q1064 485 1078 485Q1416 485 1607 592Q1654
619 1700 661T1747 759Q1747 797 1716 832Q1668 887 1523 887ZM516 118Q676 118 786 209T921 447Q921 473 923 493T925 532Q912 526 905 526H897Q515 526 339 409Q302 385 272 351T242 274Q242 235 274 196Q306 157 371 138T516 118Z" />
<glyph unicode="&#xe7;" glyph-name="ccedilla" horiz-adv-x="964" d="M561 -129Q640 -134 688 -177T736 -296Q736 -342 716 -381Q687 -434 628 -472T485 -510Q393 -510 293 -447Q262 -428 262 -397Q262 -369 279 -348T323 -327Q346 -327 374 -345Q392 -356 426
-369T496 -383Q522 -383 542 -374Q558 -366 582 -345T607 -298Q607 -257 549 -257Q533 -257 515 -260T474 -263Q454 -263 437 -243T420 -197Q420 -193 421 -189L447 -13Q447 -12 422 -9Q395 -6 353 10Q232 52 166 146T99 392Q99 500 137 595T235 765T357 885Q489
978 641 978Q722 978 810 951Q831 944 843 926T855 886Q855 860 831 839T773 827Q709 846 648 846Q553 846 477 805T346 697T262 553Q230 468 230 388Q230 265 301 191T506 117Q621 117 777 173Q788 177 800 177Q826 177 845 159T865 115Q865 91 852 74T821 51Q690
2 576 -10Q576 -26 575 -31L561 -129Z" />
<glyph unicode="&#xe8;" glyph-name="egrave" horiz-adv-x="1156" d="M632 1305Q632 1334 653 1352T698 1371Q737 1371 755 1338L828 1172Q848 1138 848 1116Q848 1098 834 1086T801 1074Q777 1074 758 1107L642 1272Q632 1288 632 1305ZM242 339Q271 235 354
176T565 117Q735 117 960 228Q974 235 989 235Q1015 235 1034 217T1054 172Q1054 129 1018 111Q904 55 786 21T558 -13Q445 -13 348 29T181 169Q142 224 121 286T100 425Q100 459 104 496Q127 687 263 823Q439 999 726 999Q836 999 919 957T1037 836Q1056 793 1056
745Q1056 663 1014 601T893 485Q674 337 258 337Q252 337 242 339ZM231 461Q245 467 258 467Q635 467 821 593Q873 628 900 664T927 749Q927 777 915 794T882 826Q826 869 727 869Q594 869 485 820T309 679T231 461Z" />
<glyph unicode="&#xe9;" glyph-name="eacute" horiz-adv-x="1156" d="M398 1032Q380 1032 366 1044T351 1074Q351 1096 371 1130L444 1296Q462 1329 500 1329Q524 1329 545 1311T566 1263Q566 1246 556 1230L441 1065Q422 1032 398 1032ZM242 339Q271 235 354
176T565 117Q735 117 960 228Q974 235 989 235Q1015 235 1034 217T1054 172Q1054 129 1018 111Q904 55 786 21T558 -13Q445 -13 348 29T181 169Q142 224 121 286T100 425Q100 459 104 496Q127 687 263 823Q439 999 726 999Q836 999 919 957T1037 836Q1056 793 1056
745Q1056 663 1014 601T893 485Q674 337 258 337Q252 337 242 339ZM231 461Q245 467 258 467Q635 467 821 593Q873 628 900 664T927 749Q927 777 915 794T882 826Q826 869 727 869Q594 869 485 820T309 679T231 461Z" />
<glyph unicode="&#xea;" glyph-name="ecircumflex" horiz-adv-x="1156" d="M353 1117L644 1390Q663 1408 689 1408Q717 1408 736 1389L1007 1111Q1027 1091 1027 1067Q1027 1041 1006 1021T958 1000Q933 1000 914 1020L688 1252L443 1023Q423 1004 399 1004Q373
1004 353 1025T333 1072Q333 1098 353 1117ZM242 339Q271 235 354 176T565 117Q735 117 960 228Q974 235 989 235Q1015 235 1034 217T1054 172Q1054 129 1018 111Q904 55 786 21T558 -13Q445 -13 348 29T181 169Q142 224 121 286T100 425Q100 459 104 496Q127 687
263 823Q439 999 726 999Q836 999 919 957T1037 836Q1056 793 1056 745Q1056 663 1014 601T893 485Q674 337 258 337Q252 337 242 339ZM231 461Q245 467 258 467Q635 467 821 593Q873 628 900 664T927 749Q927 777 915 794T882 826Q826 869 727 869Q594 869 485
820T309 679T231 461Z" />
<glyph unicode="&#xeb;" glyph-name="edieresis" horiz-adv-x="1156" d="M665 1143Q665 1098 635 1067T556 1036Q501 1036 474 1071T446 1158Q446 1183 452 1208Q456 1226 470 1253T503 1302T545 1323Q576 1323 603 1293T648 1220T665 1143ZM976 1135Q976 1090
946 1059T867 1028Q812 1028 785 1063T757 1150Q757 1175 763 1200Q767 1218 781 1245T814 1294T856 1315Q887 1315 914 1285T959 1212T976 1135ZM242 339Q271 235 354 176T565 117Q735 117 960 228Q974 235 989 235Q1015 235 1034 217T1054 172Q1054 129 1018
111Q904 55 786 21T558 -13Q445 -13 348 29T181 169Q142 224 121 286T100 425Q100 459 104 496Q127 687 263 823Q439 999 726 999Q836 999 919 957T1037 836Q1056 793 1056 745Q1056 663 1014 601T893 485Q674 337 258 337Q252 337 242 339ZM231 461Q245 467 258
467Q635 467 821 593Q873 628 900 664T927 749Q927 777 915 794T882 826Q826 869 727 869Q594 869 485 820T309 679T231 461Z" />
<glyph unicode="&#xec;" glyph-name="igrave" horiz-adv-x="408" d="M92 1347Q92 1376 113 1394T158 1413Q197 1413 215 1380L288 1214Q308 1180 308 1158Q308 1140 294 1128T261 1116Q237 1116 218 1149L102 1314Q92 1330 92 1347ZM262 163Q259 83 240 36T174
-12Q148 -12 128 7T108 54Q108 67 113 80Q122 101 127 163T136 311T140 486T142 655T142 779Q142 864 141 942Q141 974 161 990T207 1006Q231 1006 250 991T270 944Q271 891 271 840T272 740Q272 577 271 445T262 163Z" />
<glyph unicode="&#xed;" glyph-name="iacute" horiz-adv-x="455" d="M89 1047Q71 1047 57 1059T42 1089Q42 1111 62 1145L135 1311Q153 1344 191 1344Q215 1344 236 1326T257 1278Q257 1261 247 1245L132 1080Q113 1047 89 1047ZM262 163Q259 83 240 36T174 -12Q148
-12 128 7T108 54Q108 67 113 80Q122 101 127 163T136 311T140 486T142 655T142 779Q142 864 141 942Q141 974 161 990T207 1006Q231 1006 250 991T270 944Q271 891 271 840T272 740Q272 577 271 445T262 163Z" />
<glyph unicode="&#xee;" glyph-name="icircumflex" horiz-adv-x="455" d="M-109 1099L182 1372Q201 1390 227 1390Q255 1390 274 1371L545 1093Q565 1073 565 1049Q565 1023 544 1003T496 982Q471 982 452 1002L226 1234L-19 1005Q-39 986 -63 986Q-89 986 -109
1007T-129 1054Q-129 1080 -109 1099ZM262 163Q259 83 240 36T174 -12Q148 -12 128 7T108 54Q108 67 113 80Q122 101 127 163T136 311T140 486T142 655T142 779Q142 864 141 942Q141 974 161 990T207 1006Q231 1006 250 991T270 944Q271 891 271 840T272 740Q272
577 271 445T262 163Z" />
<glyph unicode="&#xef;" glyph-name="idieresis" horiz-adv-x="455" d="M158 1182Q158 1138 128 1106T49 1074Q-6 1074 -33 1109T-61 1196Q-61 1221 -55 1246Q-51 1264 -37 1291T-4 1340T39 1362Q69 1362 96 1332T141 1259T158 1182ZM469 1174Q469 1130 439 1098T360
1066Q305 1066 278 1101T250 1188Q250 1213 256 1238Q260 1256 274 1283T307 1332T350 1354Q380 1354 407 1324T452 1251T469 1174ZM262 163Q259 83 240 36T174 -12Q148 -12 128 7T108 54Q108 67 113 80Q122 101 127 163T136 311T140 486T142 655T142 779Q142 864
141 942Q141 974 161 990T207 1006Q231 1006 250 991T270 944Q271 891 271 840T272 740Q272 577 271 445T262 163Z" />
<glyph unicode="&#xf0;" glyph-name="eth" horiz-adv-x="1149" d="M506 804Q622 804 712 744T849 608Q842 777 754 925H540Q521 925 505 947T488 990Q488 1011 504 1033T539 1055H654Q555 1156 426 1208Q385 1225 385 1260Q385 1288 401 1311T447 1335Q461 1335
476 1328Q691 1239 824 1055H1048Q1067 1055 1083 1033T1100 990Q1100 969 1084 947T1048 925H901Q942 840 960 763T979 589Q979 393 895 250T665 43Q583 7 498 7Q391 7 301 59T156 201T101 402Q101 516 155 607T301 751T506 804ZM490 676Q420 676 361 637T267
534T231 402Q231 338 261 283T338 191T440 145Q472 139 502 139Q633 139 732 246Q753 281 765 321T777 403Q777 464 750 519Q718 585 653 630T490 676Z" />
<glyph unicode="&#xf1;" glyph-name="ntilde" horiz-adv-x="1295" d="M277 1077Q256 1077 236 1096T216 1135Q216 1156 220 1165Q246 1237 314 1292T478 1348Q571 1348 673 1284Q717 1256 747 1239T793 1214Q825 1201 854 1201Q892 1201 924 1227T962 1286Q967
1313 984 1331T1030 1350Q1051 1350 1072 1333T1093 1296Q1093 1200 1019 1136Q945 1072 856 1072Q765 1072 658 1139Q620 1163 576 1190T481 1218Q432 1218 394 1189T342 1121Q336 1104 318 1091T277 1077ZM167 1030Q196 1030 215 1007Q287 920 320 739Q456 985
671 1016Q705 1021 738 1021Q858 1021 950 966T1101 821T1182 627Q1196 561 1196 491Q1196 270 1054 23Q1036 -8 999 -8Q968 -8 944 21T941 88Q1065 304 1065 491Q1065 547 1054 600Q1038 677 996 743T888 849T737 890Q714 890 690 887Q591 873 521 800T409 624T347
413Q347 400 347 387Q347 243 332 97L328 58Q325 30 306 17T265 3Q241 3 221 18T199 63Q197 108 197 151Q197 298 217 422Q213 652 181 767Q150 881 124 913Q100 943 100 966Q100 995 121 1012T167 1030Z" />
<glyph unicode="&#xf2;" glyph-name="ograve" horiz-adv-x="1209" d="M557 1323Q557 1352 578 1370T623 1389Q662 1389 680 1356L753 1190Q773 1156 773 1134Q773 1116 759 1104T726 1092Q702 1092 683 1125L567 1290Q557 1306 557 1323ZM613 1037Q862 1022 1021
791Q1064 729 1087 654T1110 486Q1110 349 1045 241T888 73Q829 35 756 13T603 -9Q456 -9 352 55T185 215Q100 347 100 498Q100 538 106 579Q134 778 273 905Q413 1033 589 1040Q601 1042 613 1037ZM979 493Q979 609 925 700T786 846T606 907Q598 907 590 910Q488
904 406 848T277 700T229 496Q229 411 263 341T350 221T461 147Q531 119 605 119Q708 119 792 167T921 285Q950 331 964 384T979 493Z" />
<glyph unicode="&#xf3;" glyph-name="oacute" horiz-adv-x="1209" d="M419 1080Q401 1080 387 1092T372 1122Q372 1144 392 1178L465 1344Q483 1377 521 1377Q545 1377 566 1359T587 1311Q587 1294 577 1278L462 1113Q443 1080 419 1080ZM613 1037Q862 1022 1021
791Q1064 729 1087 654T1110 486Q1110 349 1045 241T888 73Q829 35 756 13T603 -9Q456 -9 352 55T185 215Q100 347 100 498Q100 538 106 579Q134 778 273 905Q413 1033 589 1040Q601 1042 613 1037ZM979 493Q979 609 925 700T786 846T606 907Q598 907 590 910Q488
904 406 848T277 700T229 496Q229 411 263 341T350 221T461 147Q531 119 605 119Q708 119 792 167T921 285Q950 331 964 384T979 493Z" />
<glyph unicode="&#xf4;" glyph-name="ocircumflex" horiz-adv-x="1209" d="M245 1129L536 1402Q555 1420 581 1420Q609 1420 628 1401L899 1123Q919 1103 919 1079Q919 1053 898 1033T850 1012Q825 1012 806 1032L580 1264L335 1035Q315 1016 291 1016Q265 1016
245 1037T225 1084Q225 1110 245 1129ZM613 1037Q862 1022 1021 791Q1064 729 1087 654T1110 486Q1110 349 1045 241T888 73Q829 35 756 13T603 -9Q456 -9 352 55T185 215Q100 347 100 498Q100 538 106 579Q134 778 273 905Q413 1033 589 1040Q601 1042 613 1037ZM979
493Q979 609 925 700T786 846T606 907Q598 907 590 910Q488 904 406 848T277 700T229 496Q229 411 263 341T350 221T461 147Q531 119 605 119Q708 119 792 167T921 285Q950 331 964 384T979 493Z" />
<glyph unicode="&#xf5;" glyph-name="otilde" horiz-adv-x="1209" d="M238 1074Q217 1074 197 1093T177 1132Q177 1153 181 1162Q207 1234 275 1289T439 1345Q532 1345 634 1281Q678 1253 708 1236T754 1211Q786 1198 815 1198Q853 1198 885 1224T923 1283Q928
1310 945 1328T991 1347Q1012 1347 1033 1330T1054 1293Q1054 1197 980 1133Q906 1069 817 1069Q726 1069 619 1136Q581 1160 537 1187T442 1215Q393 1215 355 1186T303 1118Q297 1101 279 1088T238 1074ZM613 1037Q862 1022 1021 791Q1064 729 1087 654T1110 486Q1110
349 1045 241T888 73Q829 35 756 13T603 -9Q456 -9 352 55T185 215Q100 347 100 498Q100 538 106 579Q134 778 273 905Q413 1033 589 1040Q601 1042 613 1037ZM979 493Q979 609 925 700T786 846T606 907Q598 907 590 910Q488 904 406 848T277 700T229 496Q229 411
263 341T350 221T461 147Q531 119 605 119Q708 119 792 167T921 285Q950 331 964 384T979 493Z" />
<glyph unicode="&#xf6;" glyph-name="odieresis" horiz-adv-x="1209" d="M539 1182Q539 1139 508 1107T430 1074Q375 1074 348 1109T320 1196Q320 1221 326 1246Q330 1264 344 1291T377 1340T420 1362Q450 1362 477 1332T522 1259T539 1182ZM850 1174Q850 1131
819 1099T741 1066Q686 1066 659 1101T631 1188Q631 1213 637 1238Q641 1256 655 1283T688 1332T731 1354Q761 1354 788 1324T833 1251T850 1174ZM613 1037Q862 1022 1021 791Q1064 729 1087 654T1110 486Q1110 349 1045 241T888 73Q829 35 756 13T603 -9Q456 -9
352 55T185 215Q100 347 100 498Q100 538 106 579Q134 778 273 905Q413 1033 589 1040Q601 1042 613 1037ZM979 493Q979 609 925 700T786 846T606 907Q598 907 590 910Q488 904 406 848T277 700T229 496Q229 411 263 341T350 221T461 147Q531 119 605 119Q708 119
792 167T921 285Q950 331 964 384T979 493Z" />
<glyph unicode="&#xf7;" glyph-name="divide" horiz-adv-x="1163" d="M749 854Q749 811 710 784T621 757Q564 757 527 786T490 865Q490 904 504 929T543 982Q574 1017 611 1017Q643 1017 674 991T727 927T749 854ZM165 489Q138 489 119 508T100 554Q100 581 119
600T165 619H998Q1025 619 1044 600T1063 554Q1063 527 1044 508T998 489H165ZM741 172Q741 129 702 102T613 74Q556 74 519 103T482 183Q482 222 496 247T535 300Q566 335 603 335Q635 335 666 309T719 245T741 172Z" />
<glyph unicode="&#xf8;" glyph-name="oslash" horiz-adv-x="1209" d="M282 104Q208 166 154 272T100 498Q100 538 106 579Q134 778 273 905Q413 1033 589 1040Q601 1042 613 1037Q712 1031 799 990L876 1122Q884 1137 899 1148T935 1159Q962 1159 981 1140T1001
1093Q1001 1079 994 1067L908 919Q1006 835 1058 729T1110 486Q1110 349 1045 241T888 73Q828 35 755 13T602 -9Q550 -9 497 2T391 36L312 -99Q304 -113 289 -124T254 -136Q227 -136 208 -116T188 -69Q188 -55 195 -43L282 104ZM590 910Q488 904 407 848T277 701T229
496Q229 336 349 220L733 877Q672 904 636 905Q599 906 590 910ZM604 118Q710 118 795 167T930 299T980 488Q980 578 942 662T841 805L457 148Q529 118 604 118Z" />
<glyph unicode="&#xf9;" glyph-name="ugrave" horiz-adv-x="1114" d="M473 1305Q473 1334 494 1352T539 1371Q578 1371 596 1338L669 1172Q689 1138 689 1116Q689 1098 675 1086T642 1074Q618 1074 599 1107L483 1272Q473 1288 473 1305ZM815 934Q829 990 880
990Q904 990 922 972T944 931Q953 840 953 757Q953 640 935 538Q941 193 997 89Q1004 77 1005 76Q1038 58 1038 18Q1038 -20 1006 -37T934 -33Q859 6 826 229Q793 172 738 114T613 18T460 -21Q407 -21 355 -2Q230 44 165 186T100 513Q100 709 168 963Q174 985 193
997T233 1010Q260 1010 282 986T294 929Q229 695 229 517Q229 382 266 279Q292 207 341 158T458 108Q516 108 578 148Q750 258 805 549Q805 569 805 590T804 634Q804 677 805 723T808 819L815 934Z" />
<glyph unicode="&#xfa;" glyph-name="uacute" horiz-adv-x="1114" d="M428 1059Q410 1059 396 1071T381 1101Q381 1123 401 1157L474 1323Q492 1356 530 1356Q554 1356 575 1338T596 1290Q596 1273 586 1257L471 1092Q452 1059 428 1059ZM815 934Q829 990 880
990Q904 990 922 972T944 931Q953 840 953 757Q953 640 935 538Q941 193 997 89Q1004 77 1005 76Q1038 58 1038 18Q1038 -20 1006 -37T934 -33Q859 6 826 229Q793 172 738 114T613 18T460 -21Q407 -21 355 -2Q230 44 165 186T100 513Q100 709 168 963Q174 985 193
997T233 1010Q260 1010 282 986T294 929Q229 695 229 517Q229 382 266 279Q292 207 341 158T458 108Q516 108 578 148Q750 258 805 549Q805 569 805 590T804 634Q804 677 805 723T808 819L815 934Z" />
<glyph unicode="&#xfb;" glyph-name="ucircumflex" horiz-adv-x="1114" d="M224 1153L515 1426Q534 1444 560 1444Q588 1444 607 1425L878 1147Q898 1127 898 1103Q898 1077 877 1057T829 1036Q804 1036 785 1056L559 1288L314 1059Q294 1040 270 1040Q244 1040
224 1061T204 1108Q204 1134 224 1153ZM815 934Q829 990 880 990Q904 990 922 972T944 931Q953 840 953 757Q953 640 935 538Q941 193 997 89Q1004 77 1005 76Q1038 58 1038 18Q1038 -20 1006 -37T934 -33Q859 6 826 229Q793 172 738 114T613 18T460 -21Q407 -21
355 -2Q230 44 165 186T100 513Q100 709 168 963Q174 985 193 997T233 1010Q260 1010 282 986T294 929Q229 695 229 517Q229 382 266 279Q292 207 341 158T458 108Q516 108 578 148Q750 258 805 549Q805 569 805 590T804 634Q804 677 805 723T808 819L815 934Z"
/>
<glyph unicode="&#xfc;" glyph-name="udieresis" horiz-adv-x="1114" d="M554 1164Q554 1121 523 1089T445 1056Q390 1056 363 1091T335 1178Q335 1203 341 1228Q345 1246 359 1273T392 1322T435 1344Q465 1344 492 1314T537 1241T554 1164ZM865 1156Q865 1113
834 1081T756 1048Q701 1048 674 1083T646 1170Q646 1195 652 1220Q656 1238 670 1265T703 1314T746 1336Q776 1336 803 1306T848 1233T865 1156ZM815 934Q829 990 880 990Q904 990 922 972T944 931Q953 840 953 757Q953 640 935 538Q941 193 997 89Q1004 77 1005
76Q1038 58 1038 18Q1038 -20 1006 -37T934 -33Q859 6 826 229Q793 172 738 114T613 18T460 -21Q407 -21 355 -2Q230 44 165 186T100 513Q100 709 168 963Q174 985 193 997T233 1010Q260 1010 282 986T294 929Q229 695 229 517Q229 382 266 279Q292 207 341 158T458
108Q516 108 578 148Q750 258 805 549Q805 569 805 590T804 634Q804 677 805 723T808 819L815 934Z" />
<glyph unicode="&#xfd;" glyph-name="yacute" horiz-adv-x="1011" d="M522 1131Q504 1131 490 1143T475 1173Q475 1195 495 1229L568 1395Q586 1428 624 1428Q648 1428 669 1410T690 1362Q690 1345 680 1329L565 1164Q546 1131 522 1131ZM889 927L901 777Q912
596 912 437Q912 -232 718 -497Q667 -567 602 -600T462 -633Q366 -633 259 -581Q225 -564 225 -522Q225 -493 252 -470T317 -464Q396 -504 459 -504Q503 -504 539 -485Q608 -449 653 -356T726 -136T766 129T781 395Q758 331 722 261T638 129T531 28T403 -11Q321
-11 265 40T169 186Q100 352 100 624Q100 771 120 948Q123 976 142 989T184 1003Q208 1003 228 988T249 941Q249 937 249 933Q230 761 230 622Q230 377 289 234Q337 117 404 117Q465 117 541 215Q716 442 759 925Q761 953 780 967T823 982Q846 982 865 968T889
927Z" />
<glyph unicode="&#xfe;" glyph-name="thorn" horiz-adv-x="1088" d="M100 799Q100 827 120 847T168 868Q194 868 214 849T237 805Q240 777 242 741T247 660Q300 664 352 664Q540 664 689 612T922 450Q988 365 988 268Q988 187 940 116Q872 14 745 -33T452 -80Q365
-80 269 -68L275 -531V-532Q275 -560 255 -580T206 -601Q178 -601 158 -581T138 -532Q137 -371 134 -184T127 191T116 540Q112 626 108 688T100 791V799ZM853 266Q853 334 804 381T698 457Q630 492 541 509T349 527Q302 527 254 523Q258 432 260 319T266 71Q355
58 442 58Q524 58 598 70T729 111Q853 172 853 266Z" />
<glyph unicode="&#xff;" glyph-name="ydieresis" horiz-adv-x="1011" d="M500 1197Q500 1152 470 1121T391 1090Q336 1090 309 1125T281 1212Q281 1237 287 1262Q291 1280 305 1307T338 1356T380 1377Q411 1377 438 1347T483 1274T500 1197ZM811 1189Q811 1144
781 1113T702 1082Q647 1082 620 1117T592 1204Q592 1229 598 1254Q602 1272 616 1299T649 1348T691 1369Q722 1369 749 1339T794 1266T811 1189ZM889 927L901 777Q912 596 912 437Q912 -232 718 -497Q667 -567 602 -600T462 -633Q366 -633 259 -581Q225 -564 225
-522Q225 -493 252 -470T317 -464Q396 -504 459 -504Q503 -504 539 -485Q608 -449 653 -356T726 -136T766 129T781 395Q758 331 722 261T638 129T531 28T403 -11Q321 -11 265 40T169 186Q100 352 100 624Q100 771 120 948Q123 976 142 989T184 1003Q208 1003 228
988T249 941Q249 937 249 933Q230 761 230 622Q230 377 289 234Q337 117 404 117Q465 117 541 215Q716 442 759 925Q761 953 780 967T823 982Q846 982 865 968T889 927Z" />
<glyph unicode="&#x2013;" glyph-name="endash" horiz-adv-x="783" d="M172 425Q145 425 126 444T107 490Q107 517 126 536T172 555H613Q640 555 659 536T678 490Q678 463 659 444T613 425H172Z" />
<glyph unicode="&#x2014;" glyph-name="emdash" horiz-adv-x="1495" d="M172 425Q145 425 126 444T107 490Q107 517 126 536T172 555H1330Q1357 555 1376 536T1395 490Q1395 463 1376 444T1330 425H172Z" />
<glyph unicode="&#x2018;" glyph-name="quoteleft" horiz-adv-x="423" d="M232 868Q156 868 128 927T99 1071Q99 1127 109 1190T134 1306T166 1386Q191 1425 228 1425Q271 1425 271 1380Q271 1352 258 1313T245 1239Q245 1168 289 1087Q324 1022 324 972Q324 932
300 900T232 868Z" />
<glyph unicode="&#x2019;" glyph-name="quoteright" horiz-adv-x="422" d="M193 1433Q267 1433 294 1377T322 1237Q322 1181 312 1116T285 997T251 915Q226 877 191 877Q147 877 147 922Q147 951 161 991T175 1065Q175 1135 133 1216Q100 1280 100 1329Q100 1370
123 1401T193 1433Z" />
<glyph unicode="&#x201a;" glyph-name="quotesinglbase" horiz-adv-x="422" d="M193 230Q267 230 294 174T322 34Q322 -22 312 -87T285 -206T251 -288Q226 -326 191 -326Q147 -326 147 -281Q147 -252 161 -212T175 -138Q175 -68 133 13Q100 77 100 126Q100 167
123 198T193 230Z" />
<glyph unicode="&#x201c;" glyph-name="quotereversed" horiz-adv-x="713" d="M232 868Q156 868 128 927T99 1071Q99 1127 109 1190T134 1306T166 1386Q191 1425 228 1425Q271 1425 271 1380Q271 1352 258 1313T245 1239Q245 1168 289 1087Q324 1022 324 972Q324
932 300 900T232 868ZM522 862Q446 862 418 921T389 1065Q389 1121 399 1184T424 1300T456 1380Q481 1419 518 1419Q561 1419 561 1374Q561 1347 548 1308T535 1234Q535 1162 579 1081Q614 1016 614 966Q614 926 590 894T522 862Z" />
<glyph unicode="&#x201d;" glyph-name="quotedblright" horiz-adv-x="669" d="M440 1436Q514 1436 541 1380T569 1240Q569 1184 559 1119T532 1000T498 918Q473 880 438 880Q394 880 394 925Q394 954 408 994T422 1068Q422 1138 380 1219Q347 1283 347 1332Q347
1373 370 1404T440 1436ZM193 1434Q267 1434 294 1378T322 1238Q322 1182 312 1117T285 998T251 916Q226 878 191 878Q147 878 147 923Q147 952 161 992T175 1066Q175 1136 133 1217Q100 1281 100 1330Q100 1371 123 1402T193 1434Z" />
<glyph unicode="&#x201e;" glyph-name="quotedblbase" horiz-adv-x="669" d="M440 232Q514 232 541 176T569 36Q569 -20 559 -85T532 -204T498 -286Q473 -324 438 -324Q394 -324 394 -279Q394 -250 408 -210T422 -136Q422 -66 380 15Q347 79 347 128Q347 169 370
200T440 232ZM193 230Q267 230 294 174T322 34Q322 -22 312 -87T285 -206T251 -288Q226 -326 191 -326Q147 -326 147 -281Q147 -252 161 -212T175 -138Q175 -68 133 13Q100 77 100 126Q100 167 123 198T193 230Z" />
<glyph unicode="&#x2022;" glyph-name="bullet" horiz-adv-x="876" d="M776 701Q776 614 728 543T602 428T435 385Q346 385 270 426T147 537T100 695Q100 782 148 853T275 967T441 1010Q529 1010 605 969T729 858T776 701Z" />
<glyph unicode="&#x2039;" glyph-name="guilsinglleft" horiz-adv-x="828" d="M728 457Q728 429 711 408T667 387Q645 387 629 397Q550 445 475 486T328 562Q258 597 217 617T163 645Q101 684 101 725Q101 766 119 787T161 824Q173 832 213 854T324 913Q394 950
468 994T621 1089Q638 1100 661 1100Q687 1100 704 1079T722 1030Q722 999 692 979Q583 908 471 846T268 736Q278 731 313 714T410 667Q530 608 696 508Q728 489 728 457Z" />
<glyph unicode="&#x203a;" glyph-name="guilsinglright" horiz-adv-x="836" d="M228 395Q210 382 191 382Q164 382 145 404T126 452Q126 483 154 502Q261 576 370 643T570 759Q547 770 425 824Q363 852 291 889T134 973Q101 991 101 1030Q101 1066 131 1085T197
1086Q278 1041 354 1003T503 932Q647 868 671 854Q736 817 736 771Q736 732 719 712T679 675Q668 667 628 643T519 580Q450 541 378 495T228 395Z" />
</font>
</defs>
</svg>
