<?xml version="1.0" standalone="no"?>
<!DOCTYPE svg PUBLIC "-//W3C//DTD SVG 1.1//EN" "http://www.w3.org/Graphics/SVG/1.1/DTD/svg11.dtd">
<svg xmlns="http://www.w3.org/2000/svg">
<defs >
<font id="RobotoSerif" horiz-adv-x="600" ><font-face
    font-family="Roboto Serif 20pt"
    units-per-em="1000"
    panose-1="0 0 0 0 0 0 0 0 0 0"
    ascent="927"
    descent="-244"
    alphabetic="0" />
<glyph unicode=" " horiz-adv-x="260" />
<glyph unicode="!" horiz-adv-x="308" d="M211 745H97Q97 690 99 643T106 552T114 461T120 359T123 236H185Q185 304 187 359T194 461T202 552T208 643T211 745ZM153 -8Q120 -8 98 12T76 64Q76 96 98 116T153 136Q188 136 210 116T232 64Q232 32 210 12T153 -8Z" />
<glyph unicode="&quot;" horiz-adv-x="426" d="M178 740H76Q76 708 79 681T87 625T95 559T98 471H156Q156 522 159 559T167 625T175 681T178 740ZM351 740H249Q249 708 252 681T260 625T268 559T271 471H329Q329 522 332 559T340 625T348 681T351 740Z" />
<glyph unicode="#" horiz-adv-x="705" d="M137 0L281 765H344L200 0H137ZM45 235V305H606V235H45ZM92 480V550H653V480H92ZM351 0L493 765H558L414 0H351Z" />
<glyph unicode="$" horiz-adv-x="560" d="M248 805H319V681L312 670V43L319 29V-135H248V28L255 40V668L248 680V805ZM284 60Q337 60 373 73T429 117T448 195Q448 234 433 258T391 295T333 317T265 334Q224 345 187 356T122 387T77 440T60 526Q60 582 88 621T168
681T291 702Q343 702 385 694T457 675T501 653V507H415V635Q425 634 433 631T448 622T458 610T460 599Q445 613 419 623T361 640T294 647Q242 647 207 634T154 596T136 530Q136 494 149 473T187 439T245 418T316 400Q355 390 392 378T460 345T509 290T528 204Q528
139 498 95T414 28T286 5Q227 5 179 14T97 37T44 64V217H132V80Q122 80 113 85T97 97T88 110T86 120Q105 103 136 90T205 68T284 60Z" />
<glyph unicode="%" horiz-adv-x="779" d="M198 373Q152 373 117 394T62 456T42 554Q42 611 61 651T116 713T198 735Q244 735 279 714T334 652T354 554Q354 497 335 457T280 395T198 373ZM198 421Q224 421 240 435T265 479T273 554Q273 598 265 627T241 672T198
687Q172 687 156 672T131 628T123 554Q123 509 131 480T155 436T198 421ZM581 -13Q535 -13 500 9T445 71T425 168Q425 225 444 265T499 328T581 350Q627 350 662 328T717 266T737 168Q737 112 718 72T663 9T581 -13ZM58 0L649 710H722L131 0H58ZM581 36Q607 36
623 50T648 94T656 168Q656 213 648 242T624 286T581 301Q555 301 539 287T514 243T506 168Q506 124 514 95T538 51T581 36Z" />
<glyph unicode="&amp;" horiz-adv-x="769" d="M644 309Q638 280 624 240T583 156T519 75T429 14T310 -10Q231 -10 175 14T88 85T58 203Q58 250 73 285T116 347T181 391T262 422L285 379Q246 365 217 345T172 293T156 210Q156 156 174 120T230 66T321 48Q371 48
412 66T485 116T540 185T574 263T586 338Q586 342 574 343T546 346T518 347H513V401H729V347H722Q700 347 684 345T657 334T644 309ZM719 0H577Q516 60 459 118T354 232T269 342T212 449T192 552Q192 606 216 643T283 699T381 718Q459 718 502 684T546 585Q546
546 528 516T479 462T406 421T316 387L294 431Q337 448 369 461T422 490T453 526T464 577Q464 622 443 642T381 663Q351 663 329 653T293 618T280 549Q280 513 292 476T329 398T391 313T478 216T592 102Q608 88 620 79T645 65T677 60H719V0Z" />
<glyph unicode="&apos;" horiz-adv-x="252" d="M177 740H75Q75 708 78 681T86 625T94 559T97 471H155Q155 522 158 559T166 625T174 681T177 740Z" />
<glyph unicode="(" horiz-adv-x="375" d="M153 310Q153 389 170 456T216 578T282 676T355 747V750H284Q241 722 202 679T131 580T81 455T63 310Q63 233 81 165T130 41T201 -58T284 -130H355V-127Q318 -97 282 -55T217 42T170 164T153 310Z" />
<glyph unicode=")" horiz-adv-x="375" d="M222 310Q222 231 205 164T159 42T93 -55T20 -127V-130H91Q134 -102 173 -59T244 41T294 165T312 310Q312 387 294 455T245 579T174 679T91 750H20V747Q57 718 93 676T158 579T205 456T222 310Z" />
<glyph unicode="*" horiz-adv-x="468" d="M75 396L35 463Q55 476 74 483T113 498T156 515T207 541L226 510Q198 493 179 478T143 448T111 421T75 396ZM196 745H273Q273 722 270 702T264 660T257 614T253 556H216Q216 589 213 614T206 660T199 701T196 745ZM35
608L75 675Q95 664 111 651T143 623T178 594T226 561L207 530Q179 546 156 556T114 573T75 588T35 608ZM196 326Q196 350 199 370T205 412T212 458T216 516H253Q253 483 256 458T263 412T270 371T273 326H196ZM262 530L243 561Q271 578 291 593T327 623T358 650T394
675L433 608Q413 596 394 589T356 574T313 556T262 530ZM394 396Q374 408 359 421T327 448T291 477T243 510L262 541Q290 525 313 515T356 498T394 484T433 463L394 396Z" />
<glyph unicode="+" horiz-adv-x="560" d="M243 565H317V117H243V565ZM497 375V308H63V375H497Z" />
<glyph unicode="," horiz-adv-x="308" d="M115 -173L48 -129Q93 -109 123 -88T169 -40T186 19Q187 22 188 25T192 29T197 31T202 29Q199 18 192 12T176 2T154 -1Q121 -1 100 17T78 66Q78 97 100 117T157 137Q182 137 201 127T232 95T243 39Q243 -6 230 -44T189
-113T115 -173Z" />
<glyph unicode="-" horiz-adv-x="468" d="M82 333H387V258H82V333Z" />
<glyph unicode="." horiz-adv-x="286" d="M142 -8Q109 -8 87 12T65 64Q65 96 87 116T142 136Q177 136 199 116T221 64Q221 32 199 12T142 -8Z" />
<glyph unicode="/" horiz-adv-x="513" d="M522 765H440L-9 -143H73L522 765Z" />
<glyph unicode="0" horiz-adv-x="560" d="M280 -11Q226 -11 183 11T108 75T59 180T42 320Q42 399 59 460T107 565T182 629T280 651Q334 651 378 630T453 565T501 461T518 320Q518 242 502 180T454 76T378 11T280 -11ZM280 48Q317 48 343 65T387 116T413 202T422
320Q422 388 414 439T388 524T344 576T280 593Q243 593 217 576T173 525T147 439T138 320Q138 253 146 202T172 117T216 65T280 48Z" />
<glyph unicode="1" horiz-adv-x="560" d="M351 88Q351 74 365 66T405 55T466 52H507V0H99V52H154Q187 52 210 55T246 66T259 88V568L275 580Q268 557 251 540T207 511T148 494T81 488V553Q119 554 151 559T210 574T256 600T289 638H351V88Z" />
<glyph unicode="2" horiz-adv-x="560" d="M316 72H78Q74 69 74 64T76 55T82 50Q139 89 196 128T304 208T395 292T458 379T482 471Q482 532 457 571T385 631T270 651Q221 651 180 637T108 603T63 564V445H153V571Q148 574 141 571T128 559T116 541T109 518Q125
539 148 555T201 582T267 592Q305 592 332 581T373 545T388 473Q388 430 372 392T325 319T252 249T159 177T50 95V0H504V203H443L434 113Q432 96 420 87T383 75T316 72Z" />
<glyph unicode="3" horiz-adv-x="560" d="M255 312L298 295V321L237 302Q307 302 364 324T456 387T491 484Q491 536 465 573T390 631T276 651Q225 651 185 638T116 605T73 566V457H161V571Q151 570 144 566T131 555T123 540T119 521Q140 549 176 570T274 592Q311
592 339 581T384 544T400 473Q400 425 381 395T326 350T240 335H170V275H252Q314 275 351 259T405 210T422 131Q422 79 404 47T353 1T272 -14Q230 -14 199 -2T146 29T110 73T85 122L29 86Q48 39 79 3T158 -53T273 -74Q345 -74 400 -50T485 21T516 132Q516 171 502
204T457 261T377 298T255 312Z" />
<glyph unicode="4" horiz-adv-x="560" d="M34 129V205L305 638H374L351 603L73 158L63 196H549V129H34ZM432 -63H342V617L346 638H432V-63Z" />
<glyph unicode="5" horiz-adv-x="560" d="M264 -74Q339 -74 395 -45T482 39T514 172Q514 238 489 288T416 367T302 396Q263 396 231 385T174 350T130 292Q131 284 136 284T146 286T152 294V618L126 561H447L472 638H88V258H145Q163 286 184 303T230 328T286 336Q325
336 355 319T403 266T420 172Q420 108 401 67T347 6T265 -14Q209 -14 174 5T118 53T83 111L28 73Q47 32 77 -1T152 -54T264 -74Z" />
<glyph unicode="6" horiz-adv-x="560" d="M459 681L450 740Q354 728 279 693T152 601T72 468T44 295Q44 190 75 123T163 23T292 -10Q362 -10 413 22T493 109T522 235Q522 305 497 355T427 433T320 461Q281 461 249 448T192 412T146 359T112 294L120 245Q138 283
157 312T199 360T247 390T306 401Q350 401 376 380T414 322T426 235Q426 180 411 139T367 74T292 50Q256 50 227 63T178 104T148 180T137 295Q137 385 158 452T221 567T323 642T459 681Z" />
<glyph unicode="7" horiz-adv-x="560" d="M253 561H485L474 574Q455 555 424 514T355 414T284 281T224 120T189 -61H286Q296 59 317 148T370 306T442 437T529 561V638H60V423H119L128 518Q130 536 143 545T183 558T253 561Z" />
<glyph unicode="8" horiz-adv-x="560" d="M280 50Q315 50 341 60T387 89T415 135T425 198Q425 249 408 282T359 332T280 349Q235 349 203 333T153 283T135 198Q135 163 145 136T173 89T219 60T280 50ZM280 407Q317 407 343 422T382 466T395 536Q395 578 382 606T343
649T280 664Q244 664 218 650T179 607T165 536Q165 495 178 466T218 422T280 407ZM280 724Q343 724 389 702T460 640T485 546Q485 499 466 463T412 405T328 375L357 391V368L328 387Q385 379 429 354T498 287T523 193Q523 132 493 87T409 16T280 -10Q207 -10 152
15T67 86T37 193Q37 246 62 287T132 353T233 387L203 368V391L233 375Q186 382 150 404T95 463T75 546Q75 600 100 640T171 702T280 724Z" />
<glyph unicode="9" horiz-adv-x="560" d="M96 -20L105 -80Q205 -71 282 -41T413 42T494 170T522 345Q522 453 491 520T405 619T275 651Q205 651 153 622T73 540T44 418Q44 351 69 301T141 224T249 197Q301 197 340 219T407 279T453 365L445 414Q422 362 397 327T339
275T263 257Q217 257 190 277T152 334T140 418Q140 458 148 490T174 544T216 579T276 591Q312 591 340 579T388 538T418 463T428 345Q428 251 407 185T344 76T239 10T96 -20Z" />
<glyph unicode=":" horiz-adv-x="286" d="M142 -8Q109 -8 87 12T65 64Q65 96 87 116T142 136Q177 136 199 116T221 64Q221 32 199 12T142 -8ZM142 377Q109 377 87 397T65 449Q65 481 87 501T142 521Q177 521 199 501T221 449Q221 417 199 397T142 377Z" />
<glyph unicode=";" horiz-adv-x="308" d="M148 377Q115 377 93 397T71 449Q71 481 93 501T148 521Q183 521 205 501T227 449Q227 417 205 397T148 377ZM366 -173L299 -129Q344 -109 374 -88T420 -40T437 19Q438 22 439 25T443 29T448 31T453 29Q450 18 443 12T427
2T405 -1Q372 -1 351 17T329 66Q329 97 351 117T408 137Q433 137 452 127T483 95T494 39Q494 -6 481 -44T440 -113T366 -173Z" />
<glyph unicode="&lt;" horiz-adv-x="560" d="M476 556V484L105 319L85 339V377L476 556ZM476 204V124L85 303V352L106 369L476 204Z" />
<glyph unicode="=" horiz-adv-x="560" d="M497 469V402H63V469H497ZM497 522V455H63V522H497Z" />
<glyph unicode="&gt;" horiz-adv-x="560" d="M99 125V197L469 362L489 342V304L99 125ZM99 477V557L489 378V329L468 312L99 477Z" />
<glyph unicode="?" horiz-adv-x="561" d="M210 387V232H290V348Q328 358 365 375T433 419T482 481T501 567Q501 626 473 667T395 730T273 752Q223 752 181 740T107 710T60 677V555H148V684Q135 683 126 677T112 663T104 644T102 624Q116 642 139 657T196 682T271
692Q314 692 344 679T392 637T409 567Q409 522 394 493T352 444T289 412T210 387ZM251 -9Q218 -9 196 11T174 63Q174 95 196 115T251 135Q286 135 308 115T330 63Q330 31 308 11T251 -9Z" />
<glyph unicode="@" horiz-adv-x="955" d="M479 -100Q531 -100 578 -93T664 -74T732 -50L751 -102Q723 -115 680 -127T584 -147T479 -155Q386 -155 310 -131T178 -58T93 63T63 229Q63 330 97 412T193 553T338 644T522 676Q610 676 678 654T795 589T868 485T893
347Q893 274 876 220T829 129T762 74T682 55Q654 55 634 63T598 84T573 114T558 149L551 151L590 381L598 379L641 468H688L638 179Q634 153 637 136T653 112T690 104Q729 104 760 129T811 208T830 347Q830 433 796 494T693 588T522 621Q434 621 362 593T236 513T154
389T125 229Q125 148 149 87T220 -16T332 -79T479 -100ZM432 49Q391 49 358 67T306 124T286 222Q286 269 300 314T340 395T405 453T493 474Q531 474 557 458T602 411T631 330L605 302Q596 344 582 371T547 411T500 424Q467 424 443 407T403 359T379 291T371 211Q371
172 378 147T401 111T447 99Q475 99 498 113T541 152T582 210L606 194Q576 146 552 114T501 66T432 49Z" />
<glyph unicode="A" horiz-adv-x="714" d="M202 297H488L498 239H189L202 297ZM333 676L349 657L155 75Q155 70 167 65T199 58T242 55H255V0H14V55H20Q49 55 67 64T98 108L302 716H409L619 101Q630 71 648 63T695 55H700V0H436V55H450Q473 55 493 56T525 59T538
65L333 676Z" />
<glyph unicode="B" horiz-adv-x="696" d="M374 710Q429 710 472 699T544 664T588 607T604 530Q604 483 580 446T506 389T385 368L430 396V351L389 379Q469 378 523 356T606 294T635 199Q635 151 618 114T569 52T491 13T384 0H53V55H64Q101 55 125 62T149 91V620Q149
642 125 649T64 656H53V710H374ZM211 401H372Q421 401 451 416T495 460T509 529Q509 568 495 595T451 636T372 651H242V60H382Q436 60 470 76T521 123T538 200Q538 245 521 277T469 326T376 343H211V401Z" />
<glyph unicode="C" horiz-adv-x="756" d="M393 665Q339 665 296 645T221 586T172 489T155 355Q155 279 171 222T220 125T298 66T405 46Q471 46 519 73T598 146T647 250L709 225Q688 152 646 98T542 13T400 -17Q323 -17 260 8T150 81T80 199T55 355Q55 443 80 512T152
629T259 702T392 728Q462 728 513 705T597 636T643 525L614 551L628 715H693V477H623Q606 535 575 577T499 642T393 665Z" />
<glyph unicode="D" horiz-adv-x="794" d="M53 656V710H360Q448 710 518 687T637 620T713 509T740 358Q740 274 714 208T638 95T518 24T360 0H53V55H64Q101 55 125 62T149 91V620Q149 641 125 648T64 656H53ZM360 650H242V61H360Q428 61 480 79T567 135T621 229T640
358Q640 432 622 487T568 578T480 632T360 650Z" />
<glyph unicode="E" horiz-adv-x="680" d="M613 222V0H53V55H64Q101 55 125 62T149 91V620Q149 642 125 649T64 656H53V710H588V513H528L517 606Q515 624 502 633T462 646T392 650H241V61H414Q446 61 469 62T508 69T530 83T539 105L551 222H613ZM218 392Q263 395
308 396T398 400T488 404V325Q443 327 398 329T308 333T218 337V392Z" />
<glyph unicode="F" horiz-adv-x="645" d="M241 650V78Q241 70 249 66T271 59T302 56T336 55H355V0H53V55H64Q101 55 125 62T149 91V620Q149 642 125 649T64 656H53V710H591V511H531L520 606Q518 624 505 633T465 646T395 650H241ZM218 384Q265 386 311 388T404
392T497 395V316Q451 319 405 321T312 325T218 328V384Z" />
<glyph unicode="G" horiz-adv-x="810" d="M696 254V104Q681 85 655 64T591 25T508 -5T411 -17Q330 -17 265 8T152 81T80 198T55 355Q55 443 81 512T155 629T266 702T401 728Q468 728 519 706T603 641T649 540L621 565L635 715H700V491H630Q613 543 582 582T506
643T402 665Q346 665 301 645T223 586T173 489T155 355Q155 279 172 221T222 124T303 66T412 46Q470 46 509 59T571 89T606 116V254Q606 277 580 284T515 292H494V346H785V292H771Q736 292 716 285T696 254Z" />
<glyph unicode="H" horiz-adv-x="853" d="M216 396H638V336H216V396ZM53 0V55H64Q101 55 125 62T149 91V620Q149 642 125 649T64 656H53V710H338V656H329Q315 656 300 656T271 654T250 651T242 646V64Q242 61 250 60T271 57T299 55T329 55H338V0H53ZM516 0V54H525Q539
54 554 55T583 57T604 59T612 64V646Q612 649 604 650T583 653T555 655T525 656H516V710H801V656H790Q753 656 729 649T705 620V91Q705 69 729 62T790 55H801V0H516Z" />
<glyph unicode="I" horiz-adv-x="399" d="M153 91V620Q153 642 129 649T68 656H53V710H347V656H331Q294 656 270 649T246 620V91Q246 69 270 62T331 55H347V0H53V55H68Q105 55 129 62T153 91Z" />
<glyph unicode="J" horiz-adv-x="619" d="M274 710H574V656H558Q521 656 497 649T473 620V226Q473 159 457 112T411 37T338 -4T243 -17Q194 -17 156 -6T90 23T44 57V195H143V62Q125 67 114 74T100 88T100 98T117 97Q128 84 145 72T187 52T243 44Q288 44 318 59T365
113T382 226V620Q382 635 371 642T341 653T297 656H274V710Z" />
<glyph unicode="K" horiz-adv-x="761" d="M53 0V55H64Q101 55 125 62T149 91V620Q149 642 125 649T64 656H53V710H335V656H326Q313 656 298 656T271 654T250 651T242 646V64Q242 61 250 60T270 58T298 56T326 55H335V0H53ZM443 0V55H452Q472 55 491 56T524 59T537
65L283 345V369L548 645Q548 649 536 651T506 654T467 656H458V710H711V656H687Q670 656 657 653T632 644T610 627L348 356L352 400L642 82Q653 70 664 64T689 57T724 55H738V0H443Z" />
<glyph unicode="L" horiz-adv-x="642" d="M345 710H53V656H64Q101 656 125 649T149 620V91Q149 69 125 62T64 55H53V0H595V230H532L520 105Q519 87 506 78T465 65T395 61H242V620Q242 642 267 649T332 656H345V710Z" />
<glyph unicode="M" horiz-adv-x="979" d="M54 0V55H65Q90 55 109 58T139 69T150 91V620Q150 635 139 642T109 653T65 656H54V710H299L498 92L482 90L686 710H925V656H914Q877 656 853 649T829 620V91Q829 69 853 62T914 55H925V0H651V55H660Q677 55 694 56T724
59T737 64V690L747 694L508 -2H446L207 694L217 692V64Q217 61 230 59T262 56T294 55H298V0H54Z" />
<glyph unicode="N" horiz-adv-x="824" d="M54 0V55H65Q90 55 109 58T139 70T150 93V620Q150 635 139 642T109 653T65 656H54V710H278L629 93L617 88V643Q617 647 604 649T570 654T530 656H516V710H781V656H769Q745 656 726 652T695 640T684 617V0H584L203 668L217
672V67Q217 64 231 61T265 57T304 55H318V0H54Z" />
<glyph unicode="O" horiz-adv-x="813" d="M407 -17Q330 -17 266 8T155 82T81 200T55 355Q55 442 81 511T154 628T266 702T407 728Q484 728 548 703T659 629T733 511T759 355Q759 269 733 200T660 83T548 9T407 -17ZM407 45Q465 45 511 65T591 124T641 221T659
355Q659 431 642 489T591 586T512 646T407 666Q349 666 302 646T223 587T173 489T155 355Q155 280 172 222T222 124T302 65T407 45Z" />
<glyph unicode="P" horiz-adv-x="674" d="M243 64V650H370Q423 650 457 633T509 582T526 499Q526 449 509 414T457 361T368 342H215V283H369Q447 283 504 309T593 383T625 500Q625 602 558 656T371 710H54V656H65Q102 656 126 649T150 620V91Q150 69 126 62T65
55H54V0H352V55H329Q313 55 298 55T271 57T251 59T243 64Z" />
<glyph unicode="Q" horiz-adv-x="813" d="M368 0L438 10Q438 -41 454 -72T502 -117T583 -132Q616 -132 643 -128T695 -118T744 -105V-196Q711 -202 672 -206T593 -211Q522 -211 471 -189T394 -119T368 0ZM407 -17Q330 -17 266 8T155 82T81 200T55 355Q55 442 81
511T154 628T266 702T407 728Q484 728 548 703T659 629T733 511T759 355Q759 269 733 200T660 83T548 9T407 -17ZM407 45Q465 45 511 65T590 124T640 221T659 355Q660 431 643 489T592 586T512 646T407 666Q349 666 302 646T223 587T173 489T155 355Q155 280 172
222T222 124T302 65T407 45Z" />
<glyph unicode="R" horiz-adv-x="733" d="M378 321L554 0H704V55H695Q675 55 659 58T631 71T606 99L465 343L378 321ZM241 65V650H364Q416 650 450 634T500 585T517 507Q517 461 501 428T449 376T359 358H226V301H380Q390 301 399 303T419 308T439 315Q494 328
533 355T595 422T617 513Q617 575 587 619T501 686T366 710H53V656H64Q101 656 125 649T149 620V91Q149 69 125 62T64 55H53V0H344V55H327Q312 55 297 55T269 57T249 60T241 65Z" />
<glyph unicode="S" horiz-adv-x="647" d="M356 44Q407 44 440 56T490 97T507 171Q507 212 490 238T444 281T379 309T305 329Q261 341 221 354T148 390T98 449T79 542Q79 599 105 640T181 705T296 728Q349 728 390 712T462 659T507 555L483 576L495 715H557V511H490Q475
562 449 597T385 650T300 668Q252 668 222 654T177 614T163 550Q163 513 178 490T221 452T284 427T361 405Q404 394 445 380T521 343T576 284T596 192Q596 121 565 75T480 6T358 -17Q295 -17 243 2T154 66T103 187L134 159L122 -5H57V230H125Q140 169 172 127T250
65T356 44Z" />
<glyph unicode="T" horiz-adv-x="704" d="M306 91V651H249Q203 651 175 647T134 632T119 603L108 491H48V710H657V491H597L586 603Q584 621 571 632T529 647T456 651H399V91Q399 69 424 62T486 55H504V0H200V55H218Q255 55 280 62T306 91Z" />
<glyph unicode="U" horiz-adv-x="821" d="M237 264Q237 204 251 164T290 100T349 65T424 54Q465 54 498 65T557 100T596 164T610 264V635Q610 640 602 644T581 650T553 654T523 656H514V710H773V656H762Q738 656 719 652T688 637T677 610V264Q677 189 657 136T601
48T517 -1T414 -17Q356 -17 307 -1T221 48T164 135T144 264V620Q144 642 120 649T59 656H48V710H333V656H324Q310 656 295 656T266 654T245 651T237 646V264Z" />
<glyph unicode="V" horiz-adv-x="727" d="M388 34L373 56L572 635Q572 642 560 646T529 653T485 656H471V710H713V656H708Q678 656 660 646T630 602L419 -6H312L95 610Q85 640 67 648T20 656H14V710H279V656H265Q241 656 221 655T189 651T177 645L388 34Z" />
<glyph unicode="W" horiz-adv-x="1032" d="M14 710H271V656H254Q237 656 219 655T187 651T174 645L324 50H312L476 710H582L752 53H740L883 635Q883 641 871 646T840 653T805 656H790V710H1018V656H1012Q985 656 967 646T942 612L790 0H682L512 651H523L362 0H253L89
621Q82 646 66 651T20 656H14V710Z" />
<glyph unicode="X" horiz-adv-x="756" d="M44 656V710H320V656H303Q285 656 266 655T234 652T221 646L407 390L414 388L632 89Q649 66 666 61T712 55H728V0H446V55H463Q481 55 500 55T532 58T545 64L346 337L339 340L134 623Q117 646 100 651T54 656H44ZM29 0V55H44Q71
55 90 64T130 101L333 381L373 336L184 72Q184 67 197 63T229 57T267 55H284V0H29ZM420 355L379 397L555 638Q555 644 542 648T510 654T472 656H457V710H708V656H698Q670 656 650 647T609 611L420 355Z" />
<glyph unicode="Y" horiz-adv-x="703" d="M308 312L318 267L105 626Q96 640 86 646T62 654T30 656H21V710H279V656H262Q245 656 228 655T199 651T186 645L379 314L356 316L535 635Q535 642 523 646T493 653T458 656H445V710H682V656H673Q656 656 642 653T615 640T592
611L391 266L401 312V91Q401 69 425 62T487 55H506V0H203V55H221Q259 55 283 62T308 91V312Z" />
<glyph unicode="Z" horiz-adv-x="654" d="M268 650Q236 650 213 648T175 641T153 628T143 606L132 508H72V710H584V642L122 22L109 61H396Q439 61 466 64T506 77T521 105L533 222H595V0H57V72L506 676L524 650H268Z" />
<glyph unicode="[" horiz-adv-x="362" d="M65 -130V750H327V698H150V-77H327V-130H65Z" />
<glyph unicode="\" horiz-adv-x="513" d="M-9 765L440 -143H522L73 765H-9Z" />
<glyph unicode="]" horiz-adv-x="362" d="M297 -130H35V-77H212V698H35V750H297V-130Z" />
<glyph unicode="^" horiz-adv-x="522" d="M124 339H50L214 710H270L271 685L124 339ZM394 339L246 686L249 710H308L472 339H394Z" />
<glyph unicode="_" horiz-adv-x="514" d="M-5 -95H519V-155H-5V-95Z" />
<glyph unicode="`" horiz-adv-x="500" d="M244 758L297 637V614H264L164 705Q153 715 145 725T133 747T128 769Q128 788 141 802T177 816Q193 816 205 809T227 790T244 758Z" />
<glyph unicode="a" horiz-adv-x="583" d="M407 327V274Q346 266 302 256T229 234T183 207T159 173T152 132Q152 104 163 85T196 57T245 47Q277 47 304 62T356 107T405 182L406 123Q386 82 360 52T300 6T224 -11Q176 -11 139 5T81 54T60 131Q60 173 79 204T139
258T247 298T407 327ZM405 0L393 116L388 122V383Q388 421 378 444T345 477T281 487Q221 487 183 470T126 434Q126 442 130 450T141 466T157 479T179 486V370H91V492Q105 503 131 515T197 537T285 547Q325 547 360 539T421 513T462 466T477 395V93Q477 79 487 71T515
60T559 53L564 52V0H405Z" />
<glyph unicode="b" horiz-adv-x="670" d="M375 -11Q332 -11 297 4T234 47T180 117L183 181Q209 138 237 109T298 65T371 50Q410 50 439 64T488 107T518 177T528 271Q528 323 519 362T492 429T445 471T377 485Q335 485 301 471T238 427T182 353L180 414Q207 456
236 486T302 531T385 547Q460 547 513 512T594 416T622 271Q622 189 593 126T508 26T375 -11ZM110 659Q110 674 102 681T76 694T32 704L22 706V758H199V121L194 114L170 -12H110V659Z" />
<glyph unicode="c" horiz-adv-x="576" d="M324 49Q368 49 399 64T453 102T493 152L540 113Q520 77 489 49T416 5T322 -11Q237 -11 176 23T81 120T48 268Q48 354 82 416T178 513T327 547Q379 547 419 538T486 518T525 497V345H435V474Q445 473 454 470T469 460T478
447T481 432Q459 455 418 470T327 486Q264 486 223 461T162 386T142 268Q142 215 153 174T186 105T243 63T324 49Z" />
<glyph unicode="d" horiz-adv-x="673" d="M561 93Q561 71 583 64T643 53L648 52V0H488L476 117L472 118V659Q472 674 464 681T438 694T393 704L383 706V758H561V93ZM296 547Q340 547 374 532T437 489T490 419L487 353Q462 398 434 427T374 471T301 485Q262 485
232 471T182 428T152 359T142 264Q142 213 151 173T179 106T227 64T295 50Q337 50 371 64T434 108T489 182L490 121Q464 79 435 50T370 5T287 -11Q211 -11 158 23T77 120T48 264Q48 347 77 410T163 510T296 547Z" />
<glyph unicode="e" horiz-adv-x="576" d="M139 263Q139 205 152 164T191 98T248 61T319 49Q361 49 392 64T445 102T484 151L532 112Q513 77 482 49T410 5T317 -11Q241 -11 180 21T84 115T48 264Q48 349 80 412T169 511T299 547Q358 547 401 528T473 471T517 376T532
243H118V301H466L440 279Q438 336 430 375T405 439T362 475T299 486Q264 486 235 473T184 431T151 361T139 263Z" />
<glyph unicode="f" horiz-adv-x="425" d="M43 537H400V477H43V537ZM444 761V695Q429 699 404 704T349 709Q316 709 292 699T255 665T242 595V58Q242 55 256 53T292 49T335 48H359V0H46V48H63Q106 48 129 59T153 104V600Q153 668 180 704T252 756T348 771Q378 771
405 768T444 761Z" />
<glyph unicode="g" horiz-adv-x="633" d="M619 477Q573 479 541 478T486 472T448 455L433 459Q446 491 464 514T504 551T555 570T619 572V477ZM298 163Q236 163 189 186T115 253T88 354Q88 411 115 454T189 522T298 547Q360 547 408 523T483 455T510 354Q510 296
483 253T409 187T298 163ZM298 222Q338 222 365 237T407 281T421 354Q421 397 407 427T366 472T298 488Q259 488 232 473T191 427T177 354Q177 311 191 282T232 237T298 222ZM254 -244Q189 -244 139 -232T59 -192T30 -119Q30 -90 43 -68T83 -27T151 13L181 -6Q155
-24 140 -40T118 -73T111 -108Q111 -132 125 -148T172 -174T257 -184H342Q395 -184 432 -172T489 -136T509 -81Q509 -51 489 -37T418 -22H189H187Q145 -13 118 0T78 34T65 79Q65 106 78 128T117 171T179 210L209 189Q188 174 175 161T154 135T147 107Q147 84 166
74T224 63H419Q475 63 513 49T571 7T592 -67Q592 -127 558 -166T467 -225T342 -244H254Z" />
<glyph unicode="h" horiz-adv-x="675" d="M219 758V58Q219 55 231 53T260 49T291 48H295V0H42V48H45Q71 48 90 52T119 69T130 104V659Q130 674 122 681T96 694T52 704L42 706V758H219ZM649 0H396V48H400Q414 48 431 49T460 52T472 58V385Q472 418 464 439T437
470T385 481Q352 481 321 468T260 429T200 363V416Q229 459 261 488T329 532T408 547Q457 547 491 531T543 481T561 396V104Q561 82 571 70T601 53T646 48H649V0Z" />
<glyph unicode="i" horiz-adv-x="335" d="M167 647Q138 647 120 663T102 711Q102 742 120 758T167 774Q195 774 213 758T232 711Q232 679 214 663T167 647ZM218 537V99Q218 68 241 58T303 48H306V0H42V48H45Q84 48 107 58T130 99V438Q130 460 111 467T52 483L42
485V537H218Z" />
<glyph unicode="j" horiz-adv-x="324" d="M132 -62V438Q132 453 122 461T93 475T46 483L30 485V537H220V-62Q220 -114 204 -149T161 -205T99 -234T30 -243Q4 -243 -21 -239T-60 -230V-167Q-43 -172 -21 -176T29 -180Q61 -180 84 -170T119 -133T132 -62ZM168 647Q140
647 122 663T103 711Q103 742 121 758T168 774Q196 774 214 758T233 711Q233 679 215 663T168 647Z" />
<glyph unicode="k" horiz-adv-x="670" d="M651 0H382V48H387Q402 48 418 49T446 52T458 58L257 280V288L447 473Q447 479 433 482T400 487T364 489H354V537H617V489H607Q587 489 569 486T536 473T503 447L323 272L327 324L546 85Q560 70 574 62T606 51T643 48H651V0ZM219
758V58Q219 55 231 53T261 49T291 48H297V0H42V48H45Q71 48 90 52T119 69T130 104V659Q130 674 122 681T96 694T52 704L42 706V758H219Z" />
<glyph unicode="l" horiz-adv-x="334" d="M220 758V99Q220 68 243 58T305 48H308V0H44V48H48Q87 48 109 58T132 99V659Q132 674 124 681T98 694T54 704L44 706V758H220Z" />
<glyph unicode="m" horiz-adv-x="968" d="M42 0V48H45Q84 48 106 59T129 104V438Q129 453 121 460T95 473T52 483L42 485V537H201L213 424L218 418V58Q218 55 230 53T258 49T288 48H292V0H42ZM610 0H373V48H376Q390 48 406 49T435 52T447 58V385Q447 417 440 438T417
470T372 481Q341 481 313 468T257 430T199 366L200 424Q229 463 258 490T322 532T396 547Q440 547 471 531T519 481T536 396V58Q536 55 547 53T576 49T607 48H610V0ZM942 0H691V48H695Q709 48 725 49T752 52T764 58V385Q764 417 757 438T734 470T690 481Q659 481
631 468T575 430T517 366V424Q547 463 576 490T639 532T713 547Q758 547 789 531T836 481T853 396V104Q853 70 876 59T938 48H942V0Z" />
<glyph unicode="n" horiz-adv-x="675" d="M42 0V48H45Q71 48 90 52T119 69T129 104V438Q129 453 121 460T95 473T52 483L42 485V537H202L214 423L218 418V58Q218 55 230 53T259 49T290 48H294V0H42ZM648 0H396V48H399Q413 48 430 49T459 52T472 58V385Q472 418
464 439T436 470T385 481Q352 481 321 468T260 429T200 362V416Q229 459 261 488T329 532T408 547Q457 547 490 531T542 481T561 396V104Q561 82 571 70T600 53T645 48H648V0Z" />
<glyph unicode="o" horiz-adv-x="635" d="M587 268Q587 183 554 120T460 23T318 -11Q236 -11 176 23T82 120T48 268Q48 332 67 383T122 471T207 527T318 547Q379 547 428 528T513 472T568 384T587 268ZM142 268Q142 196 162 147T221 74T318 49Q376 49 415 73T473
147T493 268Q493 338 474 386T415 460T318 486Q260 486 221 461T162 387T142 268Z" />
<glyph unicode="p" horiz-adv-x="687" d="M319 -223H42V-175H45Q70 -175 88 -171T117 -154T127 -119V438Q127 453 119 460T93 473T49 483L39 485V537H199L211 413L216 407V-165Q216 -168 229 -170T260 -174T292 -175H319V-223ZM392 -11Q348 -11 314 4T251 47T197
117L200 182Q226 138 254 109T315 65T387 50Q426 50 456 64T505 107T535 177T545 271Q545 323 536 362T509 429T461 471T393 485Q352 485 318 471T255 427T199 353L197 415Q224 457 253 486T318 531T402 547Q477 547 530 512T611 416T639 271Q639 189 610 126T526
26T392 -11Z" />
<glyph unicode="q" horiz-adv-x="666" d="M368 -223V-175H395Q410 -175 427 -174T458 -171T472 -165V414L476 423L500 538H561V-119Q561 -153 583 -164T643 -175H646V-223H368ZM296 547Q340 547 374 532T437 489T490 420L487 354Q462 399 434 427T374 470T301
485Q262 485 232 471T183 428T153 359T142 264Q142 213 151 173T180 106T227 65T295 50Q337 50 371 64T434 109T489 182L490 120Q464 79 435 49T370 4T287 -11Q211 -11 158 23T77 120T48 264Q48 347 77 410T163 510T296 547Z" />
<glyph unicode="r" horiz-adv-x="451" d="M419 544V448Q412 450 402 451T382 453T361 454Q333 454 311 449T271 432T236 402T200 358V404Q225 451 251 483T310 531T382 548Q394 548 404 547T419 544ZM42 0V48H45Q84 48 106 59T129 104V438Q129 453 121 460T95
473T52 483L42 485V537H202L214 403L218 407V70Q218 61 232 56T265 50T298 48H320V0H42Z" />
<glyph unicode="s" horiz-adv-x="513" d="M384 141Q384 165 373 181T341 207T296 223T243 236Q210 244 178 254T120 281T79 325T63 394Q63 440 86 474T153 528T259 547Q308 547 344 541T405 527T442 512V386H354V490Q364 490 371 487T383 479T390 464T392 444Q380
458 360 468T315 482T259 487Q200 487 173 465T145 405Q145 380 156 364T188 338T234 321T290 307Q322 300 354 290T411 262T452 218T468 150Q468 103 444 67T373 10T257 -11Q207 -11 168 -5T98 13T45 38V169H135V31Q119 39 111 47T99 63T96 80T98 98Q114 83 137
72T191 55T257 48Q299 48 327 58T369 89T384 141Z" />
<glyph unicode="t" horiz-adv-x="426" d="M14 477V532H25Q59 532 82 536T116 555T128 597L193 537H384V477H14ZM210 163Q210 121 222 97T257 63T312 53Q338 53 360 56T390 62V2Q380 -1 365 -4T334 -9T301 -11Q254 -11 213 3T147 54T121 162V522L128 530V690H210V163Z" />
<glyph unicode="u" horiz-adv-x="658" d="M206 537V152Q206 120 214 99T241 67T292 56Q325 56 355 69T415 108T474 174V120Q446 78 415 49T347 5T269 -10Q222 -10 188 6T135 57T117 141V438Q117 460 98 469T40 483L25 485V537H206ZM545 537V93Q545 79 555 71T583
59T627 53L633 52V0H472L460 117L456 123V438Q456 460 437 469T377 482L353 485V537H545Z" />
<glyph unicode="v" horiz-adv-x="627" d="M472 462Q471 468 459 473T429 481T391 484H386V537H614V484H610Q591 484 576 480T549 466T529 434L362 -6H265L98 440Q92 458 81 467T55 480T17 484H13V537H265V484H260Q238 484 219 484T187 482T174 476L333 38L319
48L472 462Z" />
<glyph unicode="w" horiz-adv-x="900" d="M461 470L440 463L578 -6H675L803 434Q809 454 820 464T848 479T884 484H888V537H658V484H663Q685 484 703 482T732 474T744 462L631 51L643 41L503 537H416L275 51L289 40L172 476Q172 480 184 481T215 483T258 484H263V537H13V484H17Q37
484 52 481T79 468T95 441L221 -6H318L461 470Z" />
<glyph unicode="x" horiz-adv-x="629" d="M609 0H360V53H362Q382 53 401 53T433 56T446 61L287 249L281 251L112 454Q103 465 93 471T70 481T37 484H34V537H279V484H277Q258 484 239 484T208 482T195 477L345 296L352 293L526 86Q537 75 547 68T570 57T606 53H609V0ZM21
0V53H24Q51 53 69 62T106 93L267 283L313 249L167 75Q167 69 179 64T211 56T250 53H253V0H21ZM356 265L312 302L452 463Q452 469 440 474T410 481T371 484H367V537H595V484H592Q576 484 563 481T538 470T513 446L356 265Z" />
<glyph unicode="y" horiz-adv-x="638" d="M352 44L341 7L292 -23L98 451Q92 465 82 472T56 481T19 484H13V537H269V484H264Q244 484 225 484T193 482T180 476L352 44ZM366 17Q338 -51 311 -99T256 -176T194 -218T119 -232Q92 -232 71 -227T39 -214V-134Q42 -135
53 -139T82 -148T121 -152Q146 -152 169 -145T216 -117T264 -55T313 54L321 71L478 463Q478 470 466 474T435 481T396 484H391V537H626V484H620Q603 484 588 481T560 467T539 437L366 17Z" />
<glyph unicode="z" horiz-adv-x="516" d="M123 46L112 60H295Q325 60 346 61T382 67T404 81T413 104L425 190H483V0H42V67L386 488L401 478H241Q210 478 189 477T154 471T133 458T123 435L112 362H55V537H470V474L123 46Z" />
<glyph unicode="{" horiz-adv-x="407" d="M306 208Q306 191 295 172T267 131T233 86T204 39T193 -9Q193 -41 210 -61T266 -90T372 -98L358 -146Q302 -150 255 -145T173 -125T121 -83T102 -14Q102 24 119 57T162 121T211 177T247 227L257 212L58 278V326L257 391L247
377Q235 400 211 426T162 483T120 546T102 617Q102 659 120 686T173 728T254 748T358 749L372 701Q306 703 267 694T210 665T193 612Q193 588 204 565T232 518T267 474T295 432T306 395Q306 380 299 368T273 346T221 327T134 306V297Q187 287 220 278T273 258T299
236T306 208Z" />
<glyph unicode="|" horiz-adv-x="278" d="M102 765H176V-143H102V765Z" />
<glyph unicode="}" horiz-adv-x="407" d="M101 208Q101 224 108 236T134 258T186 277T273 297V306Q220 317 187 326T135 346T109 368T101 395Q101 412 112 432T141 473T175 518T203 564T215 612Q215 645 198 665T142 694T35 701L49 749Q106 753 153 749T234 729T287
686T306 617Q306 580 288 547T245 483T197 427T160 377L150 391L350 326V278L150 212L160 227Q173 204 196 178T245 121T288 58T306 -14Q306 -55 287 -82T234 -125T153 -145T49 -146L35 -98Q102 -99 141 -90T198 -61T215 -9Q215 15 204 39T175 86T141 130T113 171T101
208Z" />
<glyph unicode="~" horiz-adv-x="538" d="M351 256Q324 256 303 266T266 292T235 323T207 348T175 359Q154 359 142 344T123 306T112 256L54 271Q60 322 75 359T117 417T184 438Q213 438 234 428T271 403T301 372T329 347T363 336Q386 336 398 351T418 391T432
441L490 425Q483 388 472 358T445 304T405 269T351 256Z" />
<glyph unicode="&#xa0;" horiz-adv-x="260" />
<glyph unicode="&#xa1;" horiz-adv-x="308" d="M211 -196Q211 -141 209 -95T202 -4T194 88T188 190T185 313H123Q123 245 121 190T114 89T106 -2T100 -94T97 -196H211ZM153 557Q188 557 210 537T232 485Q232 453 210 433T153 413Q120 413 98 433T76 485Q76 517
98 537T153 557Z" />
<glyph unicode="&#xa2;" horiz-adv-x="560" d="M315 47Q348 47 373 55T418 78T453 111T480 149L529 113Q510 77 479 49T407 5T313 -11Q229 -11 167 22T71 117T37 265Q37 353 70 416T165 513T313 547Q367 547 408 538T477 516T517 494V346H434V475Q444 475 452
472T466 462T473 448T475 436Q461 449 437 460T381 480T313 488Q266 488 232 474T174 431T140 362T128 265Q128 211 140 170T175 102T234 61T315 47ZM267 663H337V525L330 506V33L337 20V-146H267V11L274 28V504L267 516V663Z" />
<glyph unicode="&#xa3;" horiz-adv-x="560" d="M34 -13V59Q83 79 115 104T165 162T182 232Q182 270 173 301T151 359T124 414T101 470T92 532Q92 595 120 638T199 704T320 727Q366 727 401 719T462 700T503 678V534H411V665Q422 664 431 660T448 648T459 632T465
617Q442 637 408 651T322 666Q278 666 248 653T202 612T186 539Q186 497 197 464T223 399T249 331T261 248Q261 206 246 167T202 94T130 33T34 -13ZM387 -10Q356 -10 333 -1T287 27T240 72T180 133Q179 138 180 145T186 159T197 174T213 187Q247 152 276 128T333
93T392 81Q421 81 439 92T469 127T491 193L546 176Q538 124 520 82T469 15T387 -10ZM39 372H432V315H39V372Z" />
<glyph unicode="&#xa4;" horiz-adv-x="560" d="M403 373Q403 416 389 445T347 490T280 506Q243 506 215 491T172 446T157 373Q157 331 172 302T215 257T280 242Q319 242 346 257T388 301T403 373ZM78 373Q78 417 94 453T138 517T203 560T280 575Q321 575 357 560T422
518T466 454T482 373Q482 330 466 294T422 230T358 188T280 172Q240 172 204 187T139 230T94 293T78 373ZM19 587L70 638L183 524L125 480L19 587ZM542 587L435 480L377 524L491 638L542 587ZM19 160L125 266L183 222L70 109L19 160ZM542 160L491 109L377 222L435
266L542 160Z" />
<glyph unicode="&#xa5;" horiz-adv-x="560" d="M57 372H508V317H57V372ZM57 221H508V166H57V221ZM239 371H327V91Q327 69 351 62T413 55H433V0H132V55H152Q190 55 214 62T239 91V371ZM311 326H254L78 626Q67 646 52 651T14 656H8V710H236V656H222Q206 656 191
655T166 651T156 645L313 369H279L422 635Q422 642 412 646T387 653T355 656H344V710H553V656H546Q526 656 509 647T476 612L311 326Z" />
<glyph unicode="&#xa6;" horiz-adv-x="278" d="M102 765H176V392H102V765ZM102 230H176V-143H102V230Z" />
<glyph unicode="&#xa7;" horiz-adv-x="644" d="M289 431L302 394Q247 389 209 379T150 348T130 294Q130 266 144 246T185 210T245 181T317 153Q358 138 396 120T464 78T512 21T530 -56Q530 -110 502 -151T423 -214T308 -236Q254 -236 211 -227T137 -203T82 -172V-35H177V-172Q166
-163 157 -153T141 -134T132 -119T133 -113Q152 -134 177 -148T234 -169T306 -176Q353 -176 384 -164T430 -129T446 -72Q446 -38 432 -15T391 25T332 54T261 81Q220 97 182 114T113 155T64 209T46 282Q46 323 65 352T117 399T194 425T289 431ZM396 60L384 109Q425
121 452 132T494 161T509 207Q509 234 494 254T451 290T389 320T317 349Q280 365 244 383T177 425T129 481T111 558Q111 609 138 645T216 700T335 720Q385 720 423 712T487 692T527 669V539H437V655Q448 654 457 649T475 636T486 618T487 602Q474 620 454 633T404
654T336 662Q286 662 255 651T210 618T195 566Q195 535 209 514T249 478T306 449T373 421Q414 404 453 388T524 350T574 298T593 223Q593 174 570 142T503 90T396 60Z" />
<glyph unicode="&#xa8;" horiz-adv-x="500" d="M193 703Q193 672 175 656T128 640Q100 640 82 656T63 703Q63 735 81 751T128 767Q156 767 174 751T193 703ZM437 703Q437 672 419 656T372 640Q344 640 326 656T307 703Q307 735 325 751T372 767Q400 767 418 751T437 703Z" />
<glyph unicode="&#xa9;" horiz-adv-x="871" d="M435 510Q408 510 386 501T349 472T325 424T316 354Q316 302 330 268T374 216T443 199Q483 199 507 213T547 253T572 308L620 289Q609 248 584 217T522 167T437 149Q380 149 335 173T263 243T237 354Q237 419 262
465T332 535T430 560Q468 560 498 545T548 501T574 428L553 449L561 552H609V406H557Q548 438 533 461T493 497T435 510ZM113 355Q113 285 137 225T204 119T306 48T435 22Q505 22 564 47T666 118T734 224T758 355Q758 425 734 485T667 591T564 662T435 688Q365
688 307 663T205 592T137 486T113 355ZM55 355Q55 436 84 506T164 628T285 709T435 738Q516 738 585 709T706 628T787 506T816 355Q816 274 787 204T707 82T586 1T435 -28Q354 -28 285 1T165 82T84 204T55 355Z" />
<glyph unicode="&#xaa;" horiz-adv-x="527" d="M334 566L333 520Q280 513 246 505T191 485T164 458T156 422Q156 402 163 389T185 370T217 364Q253 364 277 386T326 449L333 414Q318 382 299 359T253 324T192 311Q156 311 128 323T85 359T69 421Q69 453 83 476T128
516T210 545T334 566ZM332 320L324 409L321 413V601Q321 627 314 643T289 666T241 674Q213 674 189 669T148 654T122 635Q121 645 129 653T148 666T172 673V595H91V684Q102 694 124 703T177 719T249 725Q292 725 327 715T382 680T403 614V397Q403 379 419 374T463
366H466V320H332Z" />
<glyph unicode="&#xab;" horiz-adv-x="573" d="M118 226L119 320L293 70H231L58 252V298L231 480H293L118 226ZM346 226L347 320L521 70H459L286 252V298L459 480H521L346 226Z" />
<glyph unicode="&#xac;" horiz-adv-x="560" d="M421 372L465 331H75V392H485V154H421V372Z" />
<glyph unicode="&#xad;" horiz-adv-x="441" d="M82 333H387V258H82V333Z" />
<glyph unicode="&#xae;" horiz-adv-x="871" d="M445 22Q515 22 574 47T676 118T744 224T768 355Q768 425 744 485T677 591T574 662T445 688Q375 688 317 663T215 592T147 486T123 355Q123 285 147 225T214 119T316 48T445 22ZM445 -28Q364 -28 295 1T175 82T94
204T65 355Q65 436 94 506T174 628T295 709T445 738Q526 738 595 709T716 628T797 506T826 355Q826 274 797 204T717 82T596 1T445 -28ZM271 153V198H277Q297 198 310 201T324 217V490Q324 502 311 506T276 510H271V555H457Q530 555 571 524T612 438Q612 411 601
389T569 351T520 326T455 317H396V203Q396 201 403 200T421 199T443 198H451V153H271ZM456 508H396V361H455Q497 361 517 379T537 437Q537 475 517 491T456 508ZM450 337L518 347L585 213Q590 203 600 200T625 197H640V154H535L450 337Z" />
<glyph unicode="&#xaf;" horiz-adv-x="500" d="M88 735H413V667H88V735Z" />
<glyph unicode="&#xb0;" horiz-adv-x="523" d="M375 548Q375 604 345 635T262 667Q209 667 179 636T148 548Q148 511 161 485T201 444T262 429Q314 429 344 460T375 548ZM69 548Q69 605 94 646T163 709T262 732Q317 732 360 710T429 646T454 548Q454 492 429 451T361
387T262 364Q207 364 163 386T94 450T69 548Z" />
<glyph unicode="&#xb1;" horiz-adv-x="560" d="M243 602H317V154H243V602ZM497 412V345H63V412H497ZM497 68V1H63V68H497Z" />
<glyph unicode="&#xb2;" horiz-adv-x="404" d="M231 430H80Q78 429 77 426T77 419T83 416Q118 435 154 455T223 496T281 540T322 588T337 643Q337 681 321 705T275 740T199 752Q168 752 142 745T95 727T63 703V629H132V703Q124 703 119 698T109 686T103 670Q117
686 139 697T191 709Q224 709 239 695T254 641Q254 610 238 585T194 537T129 492T50 444V369H352V497H308L302 456Q301 445 294 440T271 432T231 430Z" />
<glyph unicode="&#xb3;" horiz-adv-x="404" d="M196 407Q161 407 138 421T102 455T80 491L37 467Q48 438 67 415T119 377T198 363Q246 363 283 374T341 411T362 476Q362 505 346 526T292 560T193 573L182 566Q228 566 265 576T325 607T347 659Q347 708 309 730T205
752Q172 752 146 745T100 728T72 709V635H140V707Q133 706 128 701T119 690T112 674Q127 688 149 698T201 708Q233 708 250 697T267 653Q267 616 247 602T182 587H144V546H189Q226 546 245 539T271 516T279 478Q279 439 258 423T196 407Z" />
<glyph unicode="&#xb4;" horiz-adv-x="500" d="M250 758Q258 776 267 789T288 808T315 815Q338 815 351 802T364 771Q364 760 359 749T346 727T327 706L227 614H197V637L250 758Z" />
<glyph unicode="&#xb5;" horiz-adv-x="571" d="M544 -10Q511 -10 487 3T449 42T434 109L429 118V537H518V94Q518 69 526 59T554 49Q569 49 578 55T596 73T613 100L655 70Q643 45 627 27T591 0T544 -10ZM179 537V178Q179 134 188 107T216 68T268 56Q301 56 332
70T393 113T451 185L469 153Q437 99 403 63T334 8T260 -11Q230 -11 207 -5T166 16T137 54T117 112L126 146Q130 101 135 63T147 -7T160 -70T172 -128T181 -186T184 -250H90V537H179Z" />
<glyph unicode="&#xb6;" horiz-adv-x="648" d="M330 0V710H254Q192 710 147 688T77 624T53 526Q53 468 78 424T149 355T259 330H265V0H330ZM474 710H299V656H474V710ZM510 0V620Q510 635 521 642T551 653T595 656H606V710H445V0H510Z" />
<glyph unicode="&#xb7;" horiz-adv-x="284" d="M142 267Q109 267 87 287T65 339Q65 371 87 391T142 411Q177 411 199 391T221 339Q221 307 199 287T142 267Z" />
<glyph unicode="&#xb8;" horiz-adv-x="550" d="M309 5L243 -78L241 -63Q287 -62 320 -72T371 -104T389 -160Q389 -187 378 -206T348 -238T305 -256T255 -262Q209 -262 178 -245T129 -203L168 -167Q177 -177 189 -188T217 -206T254 -214Q282 -214 296 -202T311
-162Q311 -136 295 -122T232 -107H199L235 5H309Z" />
<glyph unicode="&#xb9;" horiz-adv-x="404" d="M254 429Q254 415 273 410T325 405H348V369H76V405H108Q137 405 155 410T174 429V694L183 697Q177 678 162 666T122 649T66 643V693Q102 694 126 699T166 717T192 747H254V429Z" />
<glyph unicode="&#xba;" horiz-adv-x="533" d="M473 518Q473 455 448 409T376 337T267 312Q205 312 159 337T86 408T60 518Q60 582 86 628T158 700T267 725Q329 725 375 700T447 629T473 518ZM146 518Q146 467 160 433T200 382T267 365Q306 365 333 382T374 433T388
518Q388 568 374 602T333 654T267 672Q227 672 201 654T160 602T146 518Z" />
<glyph unicode="&#xbb;" horiz-adv-x="573" d="M455 226L280 480H342L515 298V252L342 70H280L454 320L455 226ZM227 226L53 480H115L288 298V252L115 70H53L226 320L227 226Z" />
<glyph unicode="&#xbc;" horiz-adv-x="954" d="M258 429Q258 415 277 410T329 405H352V369H80V405H112Q141 405 159 410T178 429V694L187 697Q181 678 166 666T126 649T70 643V693Q106 694 130 699T170 717T196 747H258V429ZM756 710H826L232 0H162L756 710ZM552
93V156L728 378H769L757 343L579 119L580 150H902V93H552ZM825 0H749V354L752 378H825V0Z" />
<glyph unicode="&#xbd;" horiz-adv-x="978" d="M258 429Q258 415 277 410T329 405H352V369H80V405H112Q141 405 159 410T178 429V694L187 697Q181 678 166 666T126 649T70 643V693Q106 694 130 699T170 717T196 747H258V429ZM756 710H826L232 0H162L756 710ZM793
61H642Q640 60 639 57T639 50T645 47Q680 66 716 86T785 127T843 171T884 219T899 274Q899 312 883 336T837 371T761 383Q730 383 704 376T657 358T625 334V260H694V334Q686 334 681 329T671 317T665 301Q679 317 701 328T753 340Q786 340 801 326T816 272Q816
241 800 216T756 168T691 123T612 75V0H914V128H870L864 87Q863 76 856 71T833 63T793 61Z" />
<glyph unicode="&#xbe;" horiz-adv-x="956" d="M210 407Q175 407 152 421T116 455T94 491L51 467Q62 438 81 415T133 377T212 363Q260 363 297 374T355 411T376 476Q376 505 360 526T306 560T207 573L196 566Q242 566 279 576T339 607T361 659Q361 708 323 730T219
752Q186 752 160 745T114 728T86 709V635H154V707Q147 706 142 701T133 690T126 674Q141 688 163 698T215 708Q247 708 264 697T281 653Q281 616 261 602T196 587H158V546H203Q240 546 259 539T285 516T293 478Q293 439 272 423T210 407ZM758 710H828L234 0H164L758
710ZM554 93V156L730 378H771L759 343L581 119L582 150H904V93H554ZM827 0H751V354L754 378H827V0Z" />
<glyph unicode="&#xbf;" horiz-adv-x="547" d="M339 161V316H259V200Q222 190 185 173T117 129T68 67T49 -19Q49 -77 76 -118T155 -182T276 -204Q326 -204 369 -192T443 -162T489 -129V-7H401V-136Q415 -135 424 -129T438 -115T445 -96T448 -76Q435 -93 411 -109T354
-134T278 -144Q236 -144 205 -131T158 -89T141 -19Q141 26 155 55T197 104T260 136T339 161ZM298 557Q332 557 353 537T375 485Q375 453 354 433T298 413Q264 413 242 433T220 485Q220 517 242 537T298 557Z" />
<glyph unicode="&#xc0;" horiz-adv-x="714" d="M202 297H488L498 239H189L202 297ZM333 676L349 657L155 75Q155 70 167 65T199 58T242 55H255V0H14V55H20Q49 55 67 64T98 108L302 716H409L619 101Q630 71 648 63T695 55H700V0H436V55H450Q473 55 493 56T525 59T538
65L333 676ZM327 900Q317 913 307 922T286 938T260 944Q239 944 226 930T213 899Q213 886 220 874T241 852T272 832L370 780H403V804L327 900Z" />
<glyph unicode="&#xc1;" horiz-adv-x="714" d="M202 297H488L498 239H189L202 297ZM333 676L349 657L155 75Q155 70 167 65T199 58T242 55H255V0H14V55H20Q49 55 67 64T98 108L302 716H409L619 101Q630 71 648 63T695 55H700V0H436V55H450Q473 55 493 56T525 59T538
65L333 676ZM401 900L325 804V780H358L456 832Q474 842 487 852T507 874T515 899Q515 916 502 930T468 944Q454 944 443 938T422 923T401 900Z" />
<glyph unicode="&#xc2;" horiz-adv-x="714" d="M202 297H488L498 239H189L202 297ZM333 676L349 657L155 75Q155 70 167 65T199 58T242 55H255V0H14V55H20Q49 55 67 64T98 108L302 716H409L619 101Q630 71 648 63T695 55H700V0H436V55H450Q473 55 493 56T525 59T538
65L333 676ZM403 932H321L200 787V770H240L389 885L328 882L475 770H525V787L403 932Z" />
<glyph unicode="&#xc3;" horiz-adv-x="714" d="M202 297H488L498 239H189L202 297ZM333 676L349 657L155 75Q155 70 167 65T199 58T242 55H255V0H14V55H20Q49 55 67 64T98 108L302 716H409L619 101Q630 71 648 63T695 55H700V0H436V55H450Q473 55 493 56T525 59T538
65L333 676ZM427 777Q402 777 384 785T352 806T326 831T303 851T278 860Q262 860 253 851T238 823T227 774L175 788Q183 842 196 873T232 917T287 930Q310 930 328 922T359 902T385 878T410 857T437 849Q454 849 463 858T478 886T490 935L543 920Q534 867 519 836T482
791T427 777Z" />
<glyph unicode="&#xc4;" horiz-adv-x="714" d="M202 297H488L498 239H189L202 297ZM333 676L349 657L155 75Q155 70 167 65T199 58T242 55H255V0H14V55H20Q49 55 67 64T98 108L302 716H409L619 101Q630 71 648 63T695 55H700V0H436V55H450Q473 55 493 56T525 59T538
65L333 676ZM303 849Q303 818 285 802T237 786Q209 786 191 802T173 849Q173 881 191 897T237 913Q266 913 284 897T303 849ZM542 849Q542 818 524 802T476 786Q448 786 430 802T412 849Q412 881 430 897T476 913Q505 913 523 897T542 849Z" />
<glyph unicode="&#xc5;" horiz-adv-x="714" d="M202 297H488L498 239H189L202 297ZM333 676L349 657L155 75Q155 70 167 65T199 58T242 55H255V0H14V55H20Q49 55 67 64T98 108L302 716H409L619 101Q630 71 648 63T695 55H700V0H436V55H450Q473 55 493 56T525 59T538
65L333 676ZM293 881Q293 848 310 832T355 815Q384 815 401 831T418 881Q418 914 401 930T355 947Q327 947 310 931T293 881ZM484 881Q484 833 449 803T355 772Q298 772 262 802T226 881Q226 913 242 937T288 975T355 989Q394 989 422 976T467 938T484 881Z" />
<glyph unicode="&#xc6;" horiz-adv-x="1047" d="M254 297H544L554 239H228L254 297ZM586 392Q630 393 674 394T764 398T855 403V325Q810 327 766 329T676 333T586 337V392ZM422 0V55H429Q453 55 473 57T505 63T518 71V655H507L156 75Q156 70 168 65T200 58T243
55H256V0H8V55H13Q33 55 47 60T74 76T98 108L413 623Q413 636 400 643T367 653T321 656H310V710H955V513H895L884 606Q882 624 869 633T829 646T759 650H610V61H781Q813 61 836 62T874 69T896 83T906 105L918 222H979V0H422Z" />
<glyph unicode="&#xc7;" horiz-adv-x="756" d="M393 665Q339 665 296 645T221 586T172 489T155 355Q155 279 171 222T220 125T298 66T405 46Q471 46 519 73T598 146T647 250L709 225Q688 152 646 98T542 13T400 -17Q323 -17 260 8T150 81T80 199T55 355Q55 443
80 512T152 629T259 702T392 728Q462 728 513 705T597 636T643 525L614 551L628 715H693V477H623Q606 535 575 577T499 642T393 665ZM416 5L350 -78L348 -63Q394 -62 427 -72T478 -104T496 -160Q496 -187 485 -206T455 -238T412 -256T362 -262Q316 -262 285 -245T236
-203L275 -167Q284 -177 296 -188T324 -206T361 -214Q389 -214 403 -202T418 -162Q418 -136 402 -122T339 -107H306L342 5H416Z" />
<glyph unicode="&#xc8;" horiz-adv-x="680" d="M613 222V0H53V55H64Q101 55 125 62T149 91V620Q149 642 125 649T64 656H53V710H588V513H528L517 606Q515 624 502 633T462 646T392 650H241V61H414Q446 61 469 62T508 69T530 83T539 105L551 222H613ZM218 392Q263
395 308 396T398 400T488 404V325Q443 327 398 329T308 333T218 337V392ZM343 900Q333 913 323 922T302 938T276 944Q255 944 242 930T229 899Q229 886 236 874T257 852T288 832L386 780H419V804L343 900Z" />
<glyph unicode="&#xc9;" horiz-adv-x="680" d="M613 222V0H53V55H64Q101 55 125 62T149 91V620Q149 642 125 649T64 656H53V710H588V513H528L517 606Q515 624 502 633T462 646T392 650H241V61H414Q446 61 469 62T508 69T530 83T539 105L551 222H613ZM218 392Q263
395 308 396T398 400T488 404V325Q443 327 398 329T308 333T218 337V392ZM376 900L300 804V780H333L431 832Q449 842 462 852T482 874T490 899Q490 916 477 930T443 944Q429 944 418 938T397 923T376 900Z" />
<glyph unicode="&#xca;" horiz-adv-x="680" d="M613 222V0H53V55H64Q101 55 125 62T149 91V620Q149 642 125 649T64 656H53V710H588V513H528L517 606Q515 624 502 633T462 646T392 650H241V61H414Q446 61 469 62T508 69T530 83T539 105L551 222H613ZM218 392Q263
395 308 396T398 400T488 404V325Q443 327 398 329T308 333T218 337V392ZM379 932H297L176 787V770H216L365 885L304 882L451 770H501V787L379 932Z" />
<glyph unicode="&#xcb;" horiz-adv-x="680" d="M613 222V0H53V55H64Q101 55 125 62T149 91V620Q149 642 125 649T64 656H53V710H588V513H528L517 606Q515 624 502 633T462 646T392 650H241V61H414Q446 61 469 62T508 69T530 83T539 105L551 222H613ZM218 392Q263
395 308 396T398 400T488 404V325Q443 327 398 329T308 333T218 337V392ZM279 849Q279 818 261 802T213 786Q185 786 167 802T149 849Q149 881 167 897T213 913Q242 913 260 897T279 849ZM518 849Q518 818 500 802T452 786Q424 786 406 802T388 849Q388 881 406
897T452 913Q481 913 499 897T518 849Z" />
<glyph unicode="&#xcc;" horiz-adv-x="399" d="M153 91V620Q153 642 129 649T68 656H53V710H347V656H331Q294 656 270 649T246 620V91Q246 69 270 62T331 55H347V0H53V55H68Q105 55 129 62T153 91ZM446 900Q436 913 426 922T405 938T379 944Q358 944 345 930T332
899Q332 886 339 874T360 852T391 832L489 780H522V804L446 900Z" />
<glyph unicode="&#xcd;" horiz-adv-x="399" d="M153 91V620Q153 642 129 649T68 656H53V710H347V656H331Q294 656 270 649T246 620V91Q246 69 270 62T331 55H347V0H53V55H68Q105 55 129 62T153 91ZM499 900L423 804V780H456L554 832Q572 842 585 852T605 874T613
899Q613 916 600 930T566 944Q552 944 541 938T520 923T499 900Z" />
<glyph unicode="&#xce;" horiz-adv-x="399" d="M153 91V620Q153 642 129 649T68 656H53V710H347V656H331Q294 656 270 649T246 620V91Q246 69 270 62T331 55H347V0H53V55H68Q105 55 129 62T153 91ZM502 932H420L299 787V770H339L488 885L427 882L574 770H624V787L502
932Z" />
<glyph unicode="&#xcf;" horiz-adv-x="399" d="M153 91V620Q153 642 129 649T68 656H53V710H347V656H331Q294 656 270 649T246 620V91Q246 69 270 62T331 55H347V0H53V55H68Q105 55 129 62T153 91ZM402 849Q402 818 384 802T336 786Q308 786 290 802T272 849Q272
881 290 897T336 913Q365 913 383 897T402 849ZM641 849Q641 818 623 802T575 786Q547 786 529 802T511 849Q511 881 529 897T575 913Q604 913 622 897T641 849Z" />
<glyph unicode="&#xd0;" horiz-adv-x="794" d="M48 386H448V329H48V386ZM53 656V710H360Q448 710 518 687T637 620T713 509T740 358Q740 274 714 208T638 95T518 24T360 0H53V55H64Q101 55 125 62T149 91V620Q149 641 125 648T64 656H53ZM360 650H242V61H360Q428
61 480 79T567 135T621 229T640 358Q640 432 622 487T568 578T480 632T360 650Z" />
<glyph unicode="&#xd1;" horiz-adv-x="824" d="M54 0V55H65Q90 55 109 58T139 70T150 93V620Q150 635 139 642T109 653T65 656H54V710H278L629 93L617 88V643Q617 647 604 649T570 654T530 656H516V710H781V656H769Q745 656 726 652T695 640T684 617V0H584L203
668L217 672V67Q217 64 231 61T265 57T304 55H318V0H54ZM490 777Q465 777 447 785T415 806T389 831T366 851T341 860Q325 860 316 851T301 823T290 774L238 788Q246 842 259 873T295 917T350 930Q373 930 391 922T422 902T448 878T473 857T500 849Q517 849 526
858T541 886T553 935L606 920Q597 867 582 836T545 791T490 777Z" />
<glyph unicode="&#xd2;" horiz-adv-x="813" d="M407 -17Q330 -17 266 8T155 82T81 200T55 355Q55 442 81 511T154 628T266 702T407 728Q484 728 548 703T659 629T733 511T759 355Q759 269 733 200T660 83T548 9T407 -17ZM407 45Q465 45 511 65T591 124T641 221T659
355Q659 431 642 489T591 586T512 646T407 666Q349 666 302 646T223 587T173 489T155 355Q155 280 172 222T222 124T302 65T407 45ZM397 900Q387 913 377 922T356 938T330 944Q309 944 296 930T283 899Q283 886 290 874T311 852T342 832L440 780H473V804L397 900Z"
/>
<glyph unicode="&#xd3;" horiz-adv-x="813" d="M407 -17Q330 -17 266 8T155 82T81 200T55 355Q55 442 81 511T154 628T266 702T407 728Q484 728 548 703T659 629T733 511T759 355Q759 269 733 200T660 83T548 9T407 -17ZM407 45Q465 45 511 65T591 124T641 221T659
355Q659 431 642 489T591 586T512 646T407 666Q349 666 302 646T223 587T173 489T155 355Q155 280 172 222T222 124T302 65T407 45ZM450 900L374 804V780H407L505 832Q523 842 536 852T556 874T564 899Q564 916 551 930T517 944Q503 944 492 938T471 923T450 900Z"
/>
<glyph unicode="&#xd4;" horiz-adv-x="813" d="M407 -17Q330 -17 266 8T155 82T81 200T55 355Q55 442 81 511T154 628T266 702T407 728Q484 728 548 703T659 629T733 511T759 355Q759 269 733 200T660 83T548 9T407 -17ZM407 45Q465 45 511 65T591 124T641 221T659
355Q659 431 642 489T591 586T512 646T407 666Q349 666 302 646T223 587T173 489T155 355Q155 280 172 222T222 124T302 65T407 45ZM453 932H371L250 787V770H290L439 885L378 882L525 770H575V787L453 932Z" />
<glyph unicode="&#xd5;" horiz-adv-x="813" d="M407 -17Q330 -17 266 8T155 82T81 200T55 355Q55 442 81 511T154 628T266 702T407 728Q484 728 548 703T659 629T733 511T759 355Q759 269 733 200T660 83T548 9T407 -17ZM407 45Q465 45 511 65T591 124T641 221T659
355Q659 431 642 489T591 586T512 646T407 666Q349 666 302 646T223 587T173 489T155 355Q155 280 172 222T222 124T302 65T407 45ZM477 777Q452 777 434 785T402 806T376 831T353 851T328 860Q312 860 303 851T288 823T277 774L225 788Q233 842 246 873T282 917T337
930Q360 930 378 922T409 902T435 878T460 857T487 849Q504 849 513 858T528 886T540 935L593 920Q584 867 569 836T532 791T477 777Z" />
<glyph unicode="&#xd6;" horiz-adv-x="813" d="M407 -17Q330 -17 266 8T155 82T81 200T55 355Q55 442 81 511T154 628T266 702T407 728Q484 728 548 703T659 629T733 511T759 355Q759 269 733 200T660 83T548 9T407 -17ZM407 45Q465 45 511 65T591 124T641 221T659
355Q659 431 642 489T591 586T512 646T407 666Q349 666 302 646T223 587T173 489T155 355Q155 280 172 222T222 124T302 65T407 45ZM353 849Q353 818 335 802T287 786Q259 786 241 802T223 849Q223 881 241 897T287 913Q316 913 334 897T353 849ZM592 849Q592 818
574 802T526 786Q498 786 480 802T462 849Q462 881 480 897T526 913Q555 913 573 897T592 849Z" />
<glyph unicode="&#xd7;" horiz-adv-x="560" d="M83 190L428 540L476 492L131 142L83 190ZM83 492L131 540L476 190L428 142L83 492Z" />
<glyph unicode="&#xd8;" horiz-adv-x="813" d="M407 666Q348 666 302 646T223 587T173 489T155 355Q155 273 171 214T219 118T298 63T407 45Q465 45 511 65T591 124T641 221T659 355Q659 438 643 496T594 592T515 648T407 666ZM407 -17Q330 -17 266 9T154 85T81
203T55 355Q55 442 81 511T154 628T266 702T407 728Q484 728 548 701T659 625T733 507T759 355Q759 269 733 200T660 83T548 9T407 -17ZM4 -20L720 730H804L88 -20H4Z" />
<glyph unicode="&#xd9;" horiz-adv-x="821" d="M237 264Q237 204 251 164T290 100T349 65T424 54Q465 54 498 65T557 100T596 164T610 264V635Q610 640 602 644T581 650T553 654T523 656H514V710H773V656H762Q738 656 719 652T688 637T677 610V264Q677 189 657
136T601 48T517 -1T414 -17Q356 -17 307 -1T221 48T164 135T144 264V620Q144 642 120 649T59 656H48V710H333V656H324Q310 656 295 656T266 654T245 651T237 646V264ZM405 900Q395 913 385 922T364 938T338 944Q317 944 304 930T291 899Q291 886 298 874T319 852T350
832L448 780H481V804L405 900Z" />
<glyph unicode="&#xda;" horiz-adv-x="821" d="M237 264Q237 204 251 164T290 100T349 65T424 54Q465 54 498 65T557 100T596 164T610 264V635Q610 640 602 644T581 650T553 654T523 656H514V710H773V656H762Q738 656 719 652T688 637T677 610V264Q677 189 657
136T601 48T517 -1T414 -17Q356 -17 307 -1T221 48T164 135T144 264V620Q144 642 120 649T59 656H48V710H333V656H324Q310 656 295 656T266 654T245 651T237 646V264ZM454 900L378 804V780H411L509 832Q527 842 540 852T560 874T568 899Q568 916 555 930T521 944Q507
944 496 938T475 923T454 900Z" />
<glyph unicode="&#xdb;" horiz-adv-x="821" d="M237 264Q237 204 251 164T290 100T349 65T424 54Q465 54 498 65T557 100T596 164T610 264V635Q610 640 602 644T581 650T553 654T523 656H514V710H773V656H762Q738 656 719 652T688 637T677 610V264Q677 189 657
136T601 48T517 -1T414 -17Q356 -17 307 -1T221 48T164 135T144 264V620Q144 642 120 649T59 656H48V710H333V656H324Q310 656 295 656T266 654T245 651T237 646V264ZM456 932H374L253 787V770H293L442 885L381 882L528 770H578V787L456 932Z" />
<glyph unicode="&#xdc;" horiz-adv-x="821" d="M237 264Q237 204 251 164T290 100T349 65T424 54Q465 54 498 65T557 100T596 164T610 264V635Q610 640 602 644T581 650T553 654T523 656H514V710H773V656H762Q738 656 719 652T688 637T677 610V264Q677 189 657
136T601 48T517 -1T414 -17Q356 -17 307 -1T221 48T164 135T144 264V620Q144 642 120 649T59 656H48V710H333V656H324Q310 656 295 656T266 654T245 651T237 646V264ZM356 849Q356 818 338 802T290 786Q262 786 244 802T226 849Q226 881 244 897T290 913Q319 913
337 897T356 849ZM595 849Q595 818 577 802T529 786Q501 786 483 802T465 849Q465 881 483 897T529 913Q558 913 576 897T595 849Z" />
<glyph unicode="&#xdd;" horiz-adv-x="703" d="M308 312L318 267L105 626Q96 640 86 646T62 654T30 656H21V710H279V656H262Q245 656 228 655T199 651T186 645L379 314L356 316L535 635Q535 642 523 646T493 653T458 656H445V710H682V656H673Q656 656 642 653T615
640T592 611L391 266L401 312V91Q401 69 425 62T487 55H506V0H203V55H221Q259 55 283 62T308 91V312ZM400 900L324 804V780H357L455 832Q473 842 486 852T506 874T514 899Q514 916 501 930T467 944Q453 944 442 938T421 923T400 900Z" />
<glyph unicode="&#xde;" horiz-adv-x="686" d="M351 710H53V656H64Q101 656 125 649T149 620V91Q149 69 125 62T64 55H53V0H351V55H328Q312 55 297 55T270 57T250 59T242 64V646Q242 649 249 650T269 653T297 655T328 656H351V710ZM631 365Q631 428 601 471T516
537T383 559H206L198 499H382Q433 499 466 484T515 439T531 364Q531 320 515 289T465 242T379 225H198V165H380Q457 165 513 189T600 258T631 365Z" />
<glyph unicode="&#xdf;" horiz-adv-x="660" d="M43 537H188V477H43V537ZM346 426L394 447V420L377 436Q430 428 473 408T548 358T595 287T612 196Q612 140 597 101T554 38T492 2T418 -10Q386 -10 362 -5T327 7V69Q331 68 344 63T375 54T413 50Q444 50 468 64T505
109T518 193Q518 242 505 279T466 343T406 383T329 397H327V460Q358 464 384 472T430 497T460 541T471 607Q471 660 444 686T361 713Q325 713 298 703T257 667T242 590V0H46V48H63Q106 48 129 59T153 104V590Q153 660 183 699T261 754T362 771Q426 771 470 752T536
697T559 614Q559 571 541 537T493 480T424 443T346 426Z" />
<glyph unicode="&#xe0;" horiz-adv-x="583" d="M407 327V274Q346 266 302 256T229 234T183 207T159 173T152 132Q152 104 163 85T196 57T245 47Q277 47 304 62T356 107T405 182L406 123Q386 82 360 52T300 6T224 -11Q176 -11 139 5T81 54T60 131Q60 173 79 204T139
258T247 298T407 327ZM405 0L393 116L388 122V383Q388 421 378 444T345 477T281 487Q221 487 183 470T126 434Q126 442 130 450T141 466T157 479T179 486V370H91V492Q105 503 131 515T197 537T285 547Q325 547 360 539T421 513T462 466T477 395V93Q477 79 487 71T515
60T559 53L564 52V0H405ZM302 760L355 639V616H322L222 707Q211 717 203 727T191 749T186 771Q186 790 199 804T235 818Q251 818 263 811T285 792T302 760Z" />
<glyph unicode="&#xe1;" horiz-adv-x="583" d="M407 327V274Q346 266 302 256T229 234T183 207T159 173T152 132Q152 104 163 85T196 57T245 47Q277 47 304 62T356 107T405 182L406 123Q386 82 360 52T300 6T224 -11Q176 -11 139 5T81 54T60 131Q60 173 79 204T139
258T247 298T407 327ZM405 0L393 116L388 122V383Q388 421 378 444T345 477T281 487Q221 487 183 470T126 434Q126 442 130 450T141 466T157 479T179 486V370H91V492Q105 503 131 515T197 537T285 547Q325 547 360 539T421 513T462 466T477 395V93Q477 79 487 71T515
60T559 53L564 52V0H405ZM299 760Q307 778 316 791T337 810T364 817Q387 817 400 804T413 773Q413 762 408 751T395 729T376 708L276 616H246V639L299 760Z" />
<glyph unicode="&#xe2;" horiz-adv-x="583" d="M407 327V274Q346 266 302 256T229 234T183 207T159 173T152 132Q152 104 163 85T196 57T245 47Q277 47 304 62T356 107T405 182L406 123Q386 82 360 52T300 6T224 -11Q176 -11 139 5T81 54T60 131Q60 173 79 204T139
258T247 298T407 327ZM405 0L393 116L388 122V383Q388 421 378 444T345 477T281 487Q221 487 183 470T126 434Q126 442 130 450T141 466T157 479T179 486V370H91V492Q105 503 131 515T197 537T285 547Q325 547 360 539T421 513T462 466T477 395V93Q477 79 487 71T515
60T559 53L564 52V0H405ZM322 796H250L128 631V616H164L317 751L248 749L399 616H445V631L322 796Z" />
<glyph unicode="&#xe3;" horiz-adv-x="583" d="M407 327V274Q346 266 302 256T229 234T183 207T159 173T152 132Q152 104 163 85T196 57T245 47Q277 47 304 62T356 107T405 182L406 123Q386 82 360 52T300 6T224 -11Q176 -11 139 5T81 54T60 131Q60 173 79 204T139
258T247 298T407 327ZM405 0L393 116L388 122V383Q388 421 378 444T345 477T281 487Q221 487 183 470T126 434Q126 442 130 450T141 466T157 479T179 486V370H91V492Q105 503 131 515T197 537T285 547Q325 547 360 539T421 513T462 466T477 395V93Q477 79 487 71T515
60T559 53L564 52V0H405ZM354 627Q331 627 314 636T282 660T257 689T234 712T209 722Q186 722 177 698T161 625L110 638Q118 695 131 728T166 775T219 790Q241 790 257 781T287 757T313 729T338 706T365 697Q380 697 388 708T402 740T414 794L465 780Q456 723 442
690T406 642T354 627Z" />
<glyph unicode="&#xe4;" horiz-adv-x="583" d="M407 327V274Q346 266 302 256T229 234T183 207T159 173T152 132Q152 104 163 85T196 57T245 47Q277 47 304 62T356 107T405 182L406 123Q386 82 360 52T300 6T224 -11Q176 -11 139 5T81 54T60 131Q60 173 79 204T139
258T247 298T407 327ZM405 0L393 116L388 122V383Q388 421 378 444T345 477T281 487Q221 487 183 470T126 434Q126 442 130 450T141 466T157 479T179 486V370H91V492Q105 503 131 515T197 537T285 547Q325 547 360 539T421 513T462 466T477 395V93Q477 79 487 71T515
60T559 53L564 52V0H405ZM227 705Q227 674 209 658T162 642Q134 642 116 658T97 705Q97 737 115 753T162 769Q190 769 208 753T227 705ZM471 705Q471 674 453 658T406 642Q378 642 360 658T341 705Q341 737 359 753T406 769Q434 769 452 753T471 705Z" />
<glyph unicode="&#xe5;" horiz-adv-x="583" d="M407 327V274Q346 266 302 256T229 234T183 207T159 173T152 132Q152 104 163 85T196 57T245 47Q277 47 304 62T356 107T405 182L406 123Q386 82 360 52T300 6T224 -11Q176 -11 139 5T81 54T60 131Q60 173 79 204T139
258T247 298T407 327ZM405 0L393 116L388 122V383Q388 421 378 444T345 477T281 487Q221 487 183 470T126 434Q126 442 130 450T141 466T157 479T179 486V370H91V492Q105 503 131 515T197 537T285 547Q325 547 360 539T421 513T462 466T477 395V93Q477 79 487 71T515
60T559 53L564 52V0H405ZM224 712Q224 679 241 663T286 646Q315 646 332 662T349 712Q349 745 332 761T286 778Q258 778 241 762T224 712ZM415 712Q415 680 399 656T354 617T286 603Q248 603 219 617T174 655T157 712Q157 744 173 768T219 806T286 820Q325 820
353 807T398 769T415 712Z" />
<glyph unicode="&#xe6;" horiz-adv-x="908" d="M418 319L417 265Q354 258 309 250T233 230T185 205T160 173T152 133Q152 104 163 86T197 58T248 49Q282 49 311 64T368 111T422 191L456 154Q435 114 411 83T360 31T302 0T233 -11Q180 -11 141 5T81 54T60 132Q60
174 79 204T141 257T252 294T418 319ZM288 547Q331 547 364 538T420 510T455 459T467 382L398 303V383Q398 421 388 444T352 477T285 487Q223 487 184 470T126 434Q126 442 130 450T141 466T157 479T179 486V370H91V492Q106 503 133 515T199 537T288 547ZM658 49Q701
49 730 64T780 102T817 152L866 110Q846 75 817 48T748 5T656 -11Q582 -11 524 21T432 115T398 264Q398 298 402 316T412 344T425 360T438 375Q452 415 471 446T515 500T573 535T644 547Q699 547 740 529T808 472T850 378T865 245H460L459 303H799L773 279Q771
336 763 375T740 439T700 475T641 487Q608 487 580 473T530 431T497 361T485 263Q485 205 498 164T534 98T589 61T658 49Z" />
<glyph unicode="&#xe7;" horiz-adv-x="576" d="M324 49Q368 49 399 64T453 102T493 152L540 113Q520 77 489 49T416 5T322 -11Q237 -11 176 23T81 120T48 268Q48 354 82 416T178 513T327 547Q379 547 419 538T486 518T525 497V345H435V474Q445 473 454 470T469
460T478 447T481 432Q459 455 418 470T327 486Q264 486 223 461T162 386T142 268Q142 215 153 174T186 105T243 63T324 49ZM333 5L267 -78L265 -63Q311 -62 344 -72T395 -104T413 -160Q413 -187 402 -206T372 -238T329 -256T279 -262Q233 -262 202 -245T153 -203L192
-167Q201 -177 213 -188T241 -206T278 -214Q306 -214 320 -202T335 -162Q335 -136 319 -122T256 -107H223L259 5H333Z" />
<glyph unicode="&#xe8;" horiz-adv-x="576" d="M139 263Q139 205 152 164T191 98T248 61T319 49Q361 49 392 64T445 102T484 151L532 112Q513 77 482 49T410 5T317 -11Q241 -11 180 21T84 115T48 264Q48 349 80 412T169 511T299 547Q358 547 401 528T473 471T517
376T532 243H118V301H466L440 279Q438 336 430 375T405 439T362 475T299 486Q264 486 235 473T184 431T151 361T139 263ZM291 760L344 639V616H311L211 707Q200 717 192 727T180 749T175 771Q175 790 188 804T224 818Q240 818 252 811T274 792T291 760Z" />
<glyph unicode="&#xe9;" horiz-adv-x="576" d="M139 263Q139 205 152 164T191 98T248 61T319 49Q361 49 392 64T445 102T484 151L532 112Q513 77 482 49T410 5T317 -11Q241 -11 180 21T84 115T48 264Q48 349 80 412T169 511T299 547Q358 547 401 528T473 471T517
376T532 243H118V301H466L440 279Q438 336 430 375T405 439T362 475T299 486Q264 486 235 473T184 431T151 361T139 263ZM303 760Q311 778 320 791T341 810T368 817Q391 817 404 804T417 773Q417 762 412 751T399 729T380 708L280 616H250V639L303 760Z" />
<glyph unicode="&#xea;" horiz-adv-x="576" d="M139 263Q139 205 152 164T191 98T248 61T319 49Q361 49 392 64T445 102T484 151L532 112Q513 77 482 49T410 5T317 -11Q241 -11 180 21T84 115T48 264Q48 349 80 412T169 511T299 547Q358 547 401 528T473 471T517
376T532 243H118V301H466L440 279Q438 336 430 375T405 439T362 475T299 486Q264 486 235 473T184 431T151 361T139 263ZM334 796H262L140 631V616H176L329 751L260 749L411 616H457V631L334 796Z" />
<glyph unicode="&#xeb;" horiz-adv-x="576" d="M139 263Q139 205 152 164T191 98T248 61T319 49Q361 49 392 64T445 102T484 151L532 112Q513 77 482 49T410 5T317 -11Q241 -11 180 21T84 115T48 264Q48 349 80 412T169 511T299 547Q358 547 401 528T473 471T517
376T532 243H118V301H466L440 279Q438 336 430 375T405 439T362 475T299 486Q264 486 235 473T184 431T151 361T139 263ZM237 705Q237 674 219 658T172 642Q144 642 126 658T107 705Q107 737 125 753T172 769Q200 769 218 753T237 705ZM481 705Q481 674 463 658T416
642Q388 642 370 658T351 705Q351 737 369 753T416 769Q444 769 462 753T481 705Z" />
<glyph unicode="&#xec;" horiz-adv-x="335" d="M218 537V99Q218 68 241 58T303 48H306V0H42V48H45Q84 48 107 58T130 99V438Q130 460 111 467T52 483L42 485V537H218ZM418 760L471 639V616H438L338 707Q327 717 319 727T307 749T302 771Q302 790 315 804T351 818Q367
818 379 811T401 792T418 760Z" />
<glyph unicode="&#xed;" horiz-adv-x="335" d="M218 537V99Q218 68 241 58T303 48H306V0H42V48H45Q84 48 107 58T130 99V438Q130 460 111 467T52 483L42 485V537H218ZM434 760Q442 778 451 791T472 810T499 817Q522 817 535 804T548 773Q548 762 543 751T530 729T511
708L411 616H381V639L434 760Z" />
<glyph unicode="&#xee;" horiz-adv-x="335" d="M196 795H124L4 630V615H40L191 751L122 748L271 615H317V630L196 795ZM218 537V99Q218 68 241 58T303 48H306V0H42V48H45Q84 48 107 58T130 99V438Q130 460 111 467T52 483L42 485V537H218Z" />
<glyph unicode="&#xef;" horiz-adv-x="335" d="M46 641Q18 641 0 657T-19 705Q-19 736 -1 752T46 768Q74 768 92 752T111 705Q111 674 93 658T46 641ZM275 641Q247 641 229 657T210 705Q210 736 228 752T275 768Q303 768 321 752T340 705Q340 674 322 658T275
641ZM218 537V99Q218 68 241 58T303 48H306V0H42V48H45Q84 48 107 58T130 99V438Q130 460 111 467T52 483L42 485V537H218Z" />
<glyph unicode="&#xf0;" horiz-adv-x="627" d="M494 418L506 357Q483 392 456 417T396 457T318 472Q276 472 243 458T188 417T154 351T142 262Q142 193 161 145T218 73T313 49Q356 49 388 64T443 112T475 194T486 312Q486 387 475 444T441 544T382 621T295 681T179
733L208 783Q302 752 372 709T488 610T556 479T579 312Q579 208 547 136T454 27T313 -11Q233 -11 174 22T81 117T48 262Q48 345 82 405T175 499T313 532Q352 532 386 519T449 480T494 418ZM139 605L510 768L530 716L160 554L139 605Z" />
<glyph unicode="&#xf1;" horiz-adv-x="675" d="M42 0V48H45Q71 48 90 52T119 69T129 104V438Q129 453 121 460T95 473T52 483L42 485V537H202L214 423L218 418V58Q218 55 230 53T259 49T290 48H294V0H42ZM648 0H396V48H399Q413 48 430 49T459 52T472 58V385Q472
418 464 439T436 470T385 481Q352 481 321 468T260 429T200 362V416Q229 459 261 488T329 532T408 547Q457 547 490 531T542 481T561 396V104Q561 82 571 70T600 53T645 48H648V0ZM413 627Q390 627 373 636T341 660T316 689T293 712T268 722Q245 722 236 698T220
625L169 638Q177 695 190 728T225 775T278 790Q300 790 316 781T346 757T372 729T397 706T424 697Q439 697 447 708T461 740T473 794L524 780Q515 723 501 690T465 642T413 627Z" />
<glyph unicode="&#xf2;" horiz-adv-x="635" d="M587 268Q587 183 554 120T460 23T318 -11Q236 -11 176 23T82 120T48 268Q48 332 67 383T122 471T207 527T318 547Q379 547 428 528T513 472T568 384T587 268ZM142 268Q142 196 162 147T221 74T318 49Q376 49 415
73T473 147T493 268Q493 338 474 386T415 460T318 486Q260 486 221 461T162 387T142 268ZM318 760L371 639V616H338L238 707Q227 717 219 727T207 749T202 771Q202 790 215 804T251 818Q267 818 279 811T301 792T318 760Z" />
<glyph unicode="&#xf3;" horiz-adv-x="635" d="M587 268Q587 183 554 120T460 23T318 -11Q236 -11 176 23T82 120T48 268Q48 332 67 383T122 471T207 527T318 547Q379 547 428 528T513 472T568 384T587 268ZM142 268Q142 196 162 147T221 74T318 49Q376 49 415
73T473 147T493 268Q493 338 474 386T415 460T318 486Q260 486 221 461T162 387T142 268ZM330 760Q338 778 347 791T368 810T395 817Q418 817 431 804T444 773Q444 762 439 751T426 729T407 708L307 616H277V639L330 760Z" />
<glyph unicode="&#xf4;" horiz-adv-x="635" d="M587 268Q587 183 554 120T460 23T318 -11Q236 -11 176 23T82 120T48 268Q48 332 67 383T122 471T207 527T318 547Q379 547 428 528T513 472T568 384T587 268ZM142 268Q142 196 162 147T221 74T318 49Q376 49 415
73T473 147T493 268Q493 338 474 386T415 460T318 486Q260 486 221 461T162 387T142 268ZM356 796H284L162 631V616H198L351 751L282 749L433 616H479V631L356 796Z" />
<glyph unicode="&#xf5;" horiz-adv-x="635" d="M587 268Q587 183 554 120T460 23T318 -11Q236 -11 176 23T82 120T48 268Q48 332 67 383T122 471T207 527T318 547Q379 547 428 528T513 472T568 384T587 268ZM142 268Q142 196 162 147T221 74T318 49Q376 49 415
73T473 147T493 268Q493 338 474 386T415 460T318 486Q260 486 221 461T162 387T142 268ZM386 627Q363 627 346 636T314 660T289 689T266 712T241 722Q218 722 209 698T193 625L142 638Q150 695 163 728T198 775T251 790Q273 790 289 781T319 757T345 729T370 706T397
697Q412 697 420 708T434 740T446 794L497 780Q488 723 474 690T438 642T386 627Z" />
<glyph unicode="&#xf6;" horiz-adv-x="635" d="M587 268Q587 183 554 120T460 23T318 -11Q236 -11 176 23T82 120T48 268Q48 332 67 383T122 471T207 527T318 547Q379 547 428 528T513 472T568 384T587 268ZM142 268Q142 196 162 147T221 74T318 49Q376 49 415
73T473 147T493 268Q493 338 474 386T415 460T318 486Q260 486 221 461T162 387T142 268ZM261 705Q261 674 243 658T196 642Q168 642 150 658T131 705Q131 737 149 753T196 769Q224 769 242 753T261 705ZM505 705Q505 674 487 658T440 642Q412 642 394 658T375
705Q375 737 393 753T440 769Q468 769 486 753T505 705Z" />
<glyph unicode="&#xf7;" horiz-adv-x="560" d="M355 540Q355 510 334 491T280 471Q247 471 226 490T205 540Q205 572 226 591T280 610Q312 610 333 591T355 540ZM355 141Q355 111 334 92T280 72Q247 72 226 91T205 141Q205 173 226 192T280 212Q312 212 333 193T355
141ZM497 375V308H63V375H497Z" />
<glyph unicode="&#xf8;" horiz-adv-x="635" d="M-12 -14L560 550H642L70 -14H-12ZM139 268Q139 193 157 145T216 73T318 49Q377 49 416 73T476 146T496 268Q496 344 478 392T420 463T318 486Q259 486 219 461T159 387T139 268ZM48 268Q48 332 67 383T122 471T207
527T318 547Q379 547 428 526T513 468T568 379T587 268Q587 182 554 120T460 23T318 -11Q237 -11 176 25T82 124T48 268Z" />
<glyph unicode="&#xf9;" horiz-adv-x="658" d="M206 537V152Q206 120 214 99T241 67T292 56Q325 56 355 69T415 108T474 174V120Q446 78 415 49T347 5T269 -10Q222 -10 188 6T135 57T117 141V438Q117 460 98 469T40 483L25 485V537H206ZM545 537V93Q545 79 555
71T583 59T627 53L633 52V0H472L460 117L456 123V438Q456 460 437 469T377 482L353 485V537H545ZM327 760L380 639V616H347L247 707Q236 717 228 727T216 749T211 771Q211 790 224 804T260 818Q276 818 288 811T310 792T327 760Z" />
<glyph unicode="&#xfa;" horiz-adv-x="658" d="M206 537V152Q206 120 214 99T241 67T292 56Q325 56 355 69T415 108T474 174V120Q446 78 415 49T347 5T269 -10Q222 -10 188 6T135 57T117 141V438Q117 460 98 469T40 483L25 485V537H206ZM545 537V93Q545 79 555
71T583 59T627 53L633 52V0H472L460 117L456 123V438Q456 460 437 469T377 482L353 485V537H545ZM336 760Q344 778 353 791T374 810T401 817Q424 817 437 804T450 773Q450 762 445 751T432 729T413 708L313 616H283V639L336 760Z" />
<glyph unicode="&#xfb;" horiz-adv-x="658" d="M206 537V152Q206 120 214 99T241 67T292 56Q325 56 355 69T415 108T474 174V120Q446 78 415 49T347 5T269 -10Q222 -10 188 6T135 57T117 141V438Q117 460 98 469T40 483L25 485V537H206ZM545 537V93Q545 79 555
71T583 59T627 53L633 52V0H472L460 117L456 123V438Q456 460 437 469T377 482L353 485V537H545ZM356 796H284L162 631V616H198L351 751L282 749L433 616H479V631L356 796Z" />
<glyph unicode="&#xfc;" horiz-adv-x="658" d="M206 537V152Q206 120 214 99T241 67T292 56Q325 56 355 69T415 108T474 174V120Q446 78 415 49T347 5T269 -10Q222 -10 188 6T135 57T117 141V438Q117 460 98 469T40 483L25 485V537H206ZM545 537V93Q545 79 555
71T583 59T627 53L633 52V0H472L460 117L456 123V438Q456 460 437 469T377 482L353 485V537H545ZM261 705Q261 674 243 658T196 642Q168 642 150 658T131 705Q131 737 149 753T196 769Q224 769 242 753T261 705ZM505 705Q505 674 487 658T440 642Q412 642 394 658T375
705Q375 737 393 753T440 769Q468 769 486 753T505 705Z" />
<glyph unicode="&#xfd;" horiz-adv-x="638" d="M352 44L341 7L292 -23L98 451Q92 465 82 472T56 481T19 484H13V537H269V484H264Q244 484 225 484T193 482T180 476L352 44ZM366 17Q338 -51 311 -99T256 -176T194 -218T119 -232Q92 -232 71 -227T39 -214V-134Q42
-135 53 -139T82 -148T121 -152Q146 -152 169 -145T216 -117T264 -55T313 54L321 71L478 463Q478 470 466 474T435 481T396 484H391V537H626V484H620Q603 484 588 481T560 467T539 437L366 17ZM347 760Q355 778 364 791T385 810T412 817Q435 817 448 804T461 773Q461
762 456 751T443 729T424 708L324 616H294V639L347 760Z" />
<glyph unicode="&#xfe;" horiz-adv-x="682" d="M314 -223H37V-175H40Q65 -175 83 -171T112 -154T122 -119V659Q122 674 114 681T88 694T44 704L34 706V758H211V-165Q211 -168 224 -170T255 -174T287 -175H314V-223ZM387 -11Q350 -11 320 -1T264 31T215 83T170
155L193 187Q219 142 247 112T309 66T382 50Q421 50 451 64T500 107T530 177T540 271Q540 323 531 362T504 429T456 471T388 485Q346 485 312 470T248 425T192 348L171 379Q202 434 234 471T305 527T397 547Q472 547 525 512T606 416T634 271Q634 189 605 126T521
26T387 -11Z" />
<glyph unicode="&#xff;" horiz-adv-x="638" d="M352 44L341 7L292 -23L98 451Q92 465 82 472T56 481T19 484H13V537H269V484H264Q244 484 225 484T193 482T180 476L352 44ZM366 17Q338 -51 311 -99T256 -176T194 -218T119 -232Q92 -232 71 -227T39 -214V-134Q42
-135 53 -139T82 -148T121 -152Q146 -152 169 -145T216 -117T264 -55T313 54L321 71L478 463Q478 470 466 474T435 481T396 484H391V537H626V484H620Q603 484 588 481T560 467T539 437L366 17ZM263 705Q263 674 245 658T198 642Q170 642 152 658T133 705Q133 737
151 753T198 769Q226 769 244 753T263 705ZM507 705Q507 674 489 658T442 642Q414 642 396 658T377 705Q377 737 395 753T442 769Q470 769 488 753T507 705Z" />
<glyph unicode="&#x2013;" horiz-adv-x="637" d="M82 345H556V285H82V345Z" />
<glyph unicode="&#x2014;" horiz-adv-x="992" d="M82 345H911V285H82V345Z" />
<glyph unicode="&#x2018;" horiz-adv-x="265" d="M169 754L231 712Q206 698 185 683T147 649T122 608T112 558L94 565Q104 571 113 572T132 574Q163 574 181 560T200 516Q200 490 182 473T132 456Q96 456 77 476T58 542Q58 579 66 610T88 668T123 715T169 754Z" />
<glyph unicode="&#x2019;" horiz-adv-x="265" d="M96 449L34 492Q60 506 81 521T118 555T144 595T153 646L171 638Q161 633 152 631T133 629Q104 629 85 644T66 687Q66 714 84 731T134 748Q170 748 189 728T208 662Q208 624 200 593T177 535T142 488T96 449Z" />
<glyph unicode="&#x201a;" horiz-adv-x="265" d="M96 -162L34 -119Q60 -105 81 -90T118 -56T144 -16T153 35L171 27Q161 22 152 20T133 18Q104 18 85 33T66 76Q66 103 84 120T134 137Q170 137 189 117T208 51Q208 13 200 -18T177 -76T142 -123T96 -162Z" />
<glyph unicode="&#x201c;" horiz-adv-x="485" d="M389 754L451 712Q426 698 405 683T367 649T342 608T332 558L314 565Q324 571 333 572T352 574Q383 574 401 560T420 516Q420 490 402 473T352 456Q316 456 297 476T278 542Q278 579 286 610T308 668T343 715T389
754ZM169 754L231 712Q206 698 185 683T147 649T122 608T112 558L94 565Q104 571 113 572T132 574Q163 574 181 560T200 516Q200 490 182 473T132 456Q96 456 77 476T58 542Q58 579 66 610T88 668T123 715T169 754Z" />
<glyph unicode="&#x201d;" horiz-adv-x="485" d="M96 449L34 492Q60 506 81 521T118 555T144 595T153 646L171 638Q161 633 152 631T133 629Q104 629 85 644T66 687Q66 714 84 731T134 748Q170 748 189 728T208 662Q208 624 200 593T177 535T142 488T96 449ZM316
449L254 492Q280 506 301 521T338 555T364 595T373 646L391 638Q381 633 372 631T353 629Q324 629 305 644T286 687Q286 714 304 731T354 748Q390 748 409 728T428 662Q428 624 420 593T397 535T362 488T316 449Z" />
<glyph unicode="&#x201e;" horiz-adv-x="485" d="M96 -162L34 -119Q60 -105 81 -90T118 -56T144 -16T153 35L171 27Q161 22 152 20T133 18Q104 18 85 33T66 76Q66 103 84 120T134 137Q170 137 189 117T208 51Q208 13 200 -18T177 -76T142 -123T96 -162ZM316 -162L254
-119Q280 -105 301 -90T338 -56T364 -16T373 35L391 27Q381 22 372 20T353 18Q324 18 305 33T286 76Q286 103 304 120T354 137Q390 137 409 117T428 51Q428 13 420 -18T397 -76T362 -123T316 -162Z" />
<glyph unicode="&#x2022;" horiz-adv-x="465" d="M85 337Q85 379 104 410T156 459T233 477Q276 477 309 460T361 411T380 337Q380 296 361 265T309 215T232 197Q190 197 157 215T104 264T85 337Z" />
<glyph unicode="&#x2039;" horiz-adv-x="345" d="M118 226L119 320L293 70H231L58 252V298L231 480H293L118 226Z" />
<glyph unicode="&#x203a;" horiz-adv-x="345" d="M227 226L53 480H115L288 298V252L115 70H53L226 320L227 226Z" />
</font>
</defs>
</svg>
