<?xml version="1.0" standalone="no"?>
<!DOCTYPE svg PUBLIC "-//W3C//DTD SVG 1.1//EN" "http://www.w3.org/Graphics/SVG/1.1/DTD/svg11.dtd">
<svg xmlns="http://www.w3.org/2000/svg">
<defs >
<font id="Monofett" horiz-adv-x="1133" ><font-face
    font-family="Monofett"
    units-per-em="2048"
    panose-1="0 0 0 0 0 0 0 0 0 0"
    ascent="2001"
    descent="-315"
    alphabetic="0" />
<glyph unicode=" " glyph-name="space" horiz-adv-x="287" />
<glyph unicode="!" glyph-name="exclam" horiz-adv-x="869" d="M430 0Q297 0 200 52T49 192T-4 381V989Q-4 1094 50 1180T204 1318T438 1370Q571 1368 668 1316T819 1179T873 989V381Q873 277 819 190T665 52T430 0ZM412 627H471L512 1280H371L412 627ZM389 438H496V545H389V438Z"
/>
<glyph unicode="&quot;" glyph-name="quotedbl" horiz-adv-x="869" d="M430 0Q297 0 200 52T49 192T-4 381V989Q-4 1094 50 1180T204 1318T438 1370Q571 1368 668 1316T819 1179T873 989V381Q873 277 819 190T665 52T430 0ZM324 1024H424V1280H324V1024ZM473 1024H574V1280H473V1024Z"
/>
<glyph unicode="#" glyph-name="numbersign" horiz-adv-x="989" d="M438 0Q303 0 204 51T51 190T-4 381V989Q-4 1094 50 1180T204 1318T438 1370H551Q686 1370 785 1319T939 1181T993 989V381Q993 277 939 190T786 52T551 0H438ZM313 494H418L432 623H522L510
494H614L629 623H692L703 729H639L662 950H727L737 1055H674L686 1184H582L567 1055H477L492 1184H385L371 1055H305L295 950H361L338 729H272L260 623H326L313 494ZM442 729L467 950H557L535 729H442Z" />
<glyph unicode="$" glyph-name="dollar" horiz-adv-x="1184" d="M438 0Q303 0 204 51T51 190T-4 381V989Q-4 1094 50 1180T204 1318T438 1370H746Q881 1370 980 1319T1134 1181T1188 989V381Q1188 277 1134 190T981 52T746 0H438ZM565 334H647V453H705L807 465L870
528L885 614V717L870 803L807 866L703 877H647V1092H709L770 1079L789 1004L893 1014L877 1120L811 1184L711 1198H647V1280H565V1198H494L393 1184L328 1120L315 1036V932L328 848L393 784L494 772H565V559H498L436 569L420 647L311 637L330 528L393 465L496 453H565V334ZM496
877L434 889L420 948V1020L434 1079L500 1092H565V877H496ZM647 559V772H703L764 762L778 707V625L764 569L698 559H647Z" />
<glyph unicode="%" glyph-name="percent" horiz-adv-x="1184" d="M438 0Q303 0 204 51T51 190T-4 381V989Q-4 1094 50 1180T204 1318T438 1370H746Q881 1370 980 1319T1134 1181T1188 989V381Q1188 277 1134 190T981 52T746 0H438ZM545 494L756 1200L653 1231L445
518L545 494ZM326 893H371L438 907L504 965L514 1024V1096L506 1153L445 1217L369 1227H326L256 1212L191 1155L180 1096V1024L189 967L252 903L326 893ZM332 997L295 1006L285 1038V1081L295 1114Q307 1117 315 1118T334 1122H363L399 1114L410 1081V1038L399
1006L363 997H332ZM838 494H883L957 504L1020 567L1030 625V696L1018 756L952 813L883 827H840L766 817L703 754L694 696V625L705 565L770 508L838 494ZM846 598L809 606L799 639V682L809 715L846 723H875L914 715L924 682V639L914 606L877 598H846Z" />
<glyph unicode="&amp;" glyph-name="ampersand" horiz-adv-x="1184" d="M438 0Q303 0 204 51T51 190T-4 381V989Q-4 1094 50 1180T204 1318T438 1370H746Q881 1370 980 1319T1134 1181T1188 989V381Q1188 277 1134 190T981 52T746 0H438ZM549 453H727L830 465L893
528L907 614V821L991 928H907V1026H801V928H555L490 938L475 997V1108L485 1163L555 1174H721L791 1163L830 1266L727 1280H549L447 1266L383 1202L369 1118V981L404 918L469 874L404 829L369 766V614L383 528L449 465L549 453ZM555 559L490 569L475 629V756L485
811L555 821H801V625L787 569L721 559H555Z" />
<glyph unicode="&apos;" glyph-name="quotesingle" horiz-adv-x="869" d="M430 0Q297 0 200 52T49 192T-4 381V989Q-4 1094 50 1180T204 1318T438 1370Q571 1368 668 1316T819 1179T873 989V381Q873 277 819 190T665 52T430 0ZM391 1024H492V1280H391V1024Z" />
<glyph unicode="(" glyph-name="parenleft" horiz-adv-x="991" d="M438 0Q303 0 204 51T51 190T-4 381V989Q-4 1094 50 1180T204 1318T438 1370H553Q688 1370 787 1319T941 1181T995 989V381Q995 277 941 190T788 52T553 0H438ZM510 324H633V430H516L451 440L436
500V1106Q441 1121 443 1135T451 1165L516 1176H633V1282H510L410 1270L344 1204L332 1120V485L344 399L410 336L510 324Z" />
<glyph unicode=")" glyph-name="parenright" horiz-adv-x="991" d="M438 0Q303 0 204 51T51 190T-4 381V989Q-4 1094 50 1180T204 1318T438 1370H553Q688 1370 787 1319T941 1181T995 989V381Q995 277 941 190T788 52T553 0H438ZM358 324H481L581 336L647 399L659
485V1120L647 1204L581 1270L481 1282H358V1176H475L540 1165Q545 1150 547 1136T555 1106V500L540 440L475 430H358V324Z" />
<glyph unicode="*" glyph-name="asterisk" horiz-adv-x="877" d="M438 0Q303 0 204 51T51 190T-4 381V989Q-4 1094 50 1180T204 1318T438 1370Q574 1370 673 1319T826 1181T881 989V381Q881 277 827 190T673 52T438 0ZM399 803Q416 832 438 868T479 936L561 803L653
856L576 989H727V1096H574L653 1229L561 1282L479 1149L399 1282L305 1229L383 1096H234V989H385L305 856L399 803Z" />
<glyph unicode="+" glyph-name="plus" horiz-adv-x="877" d="M438 0Q303 0 204 51T51 190T-4 381V989Q-4 1094 50 1180T204 1318T438 1370Q574 1370 673 1319T826 1181T881 989V381Q881 277 827 190T673 52T438 0ZM393 694H498V889H692V995H498V1192H393V995H199V889H393V694Z"
/>
<glyph unicode="," glyph-name="comma" horiz-adv-x="877" d="M438 0Q303 0 204 51T51 190T-4 381V989Q-4 1094 50 1180T204 1318T438 1370Q574 1370 673 1319T826 1181T881 989V381Q881 277 827 190T673 52T438 0ZM463 324L524 453V582H373V453H438L399 352L463 324Z" />
<glyph unicode="-" glyph-name="hyphen" horiz-adv-x="877" d="M438 0Q303 0 204 51T51 190T-4 381V989Q-4 1094 50 1180T204 1318T438 1370Q574 1370 673 1319T826 1181T881 989V381Q881 277 827 190T673 52T438 0ZM250 918H627V1026H250V918Z" />
<glyph unicode="." glyph-name="period" horiz-adv-x="877" d="M438 0Q303 0 204 51T51 190T-4 381V989Q-4 1094 50 1180T204 1318T438 1370Q574 1370 673 1319T826 1181T881 989V381Q881 277 827 190T673 52T438 0ZM373 453H504V582H373V453Z" />
<glyph unicode="/" glyph-name="slash" horiz-adv-x="877" d="M438 0Q303 0 204 51T51 190T-4 381V989Q-4 1094 50 1180T204 1318T438 1370Q574 1370 673 1319T826 1181T881 989V381Q881 277 827 190T673 52T438 0ZM315 426H424L561 1249H453L315 426Z" />
<glyph unicode="0" glyph-name="zero" horiz-adv-x="1184" d="M438 0Q303 0 204 51T51 190T-4 381V989Q-4 1094 50 1180T204 1318T438 1370H746Q881 1370 980 1319T1134 1181T1188 989V381Q1188 277 1134 190T981 52T746 0H438ZM498 453H766L868 465L932 528L946
614V1118L932 1202L868 1266L766 1280H498L395 1266L332 1202L320 1118V614L332 528L397 465L498 453ZM504 559L438 569L424 629V1108L434 1163L504 1174H760L830 1163L840 1104V625L825 569L760 559H504Z" />
<glyph unicode="1" glyph-name="one" horiz-adv-x="1184" d="M438 0Q303 0 204 51T51 190T-4 381V989Q-4 1094 50 1180T204 1318T438 1370H746Q881 1370 980 1319T1134 1181T1188 989V381Q1188 277 1134 190T981 52T746 0H438ZM567 455H674V1282H584L438 1231V1124L567
1169V455Z" />
<glyph unicode="2" glyph-name="two" horiz-adv-x="1184" d="M438 0Q303 0 204 51T51 190T-4 381V989Q-4 1094 50 1180T204 1318T438 1370H746Q881 1370 980 1319T1134 1181T1188 989V381Q1188 277 1134 190T981 52T746 0H438ZM385 453H887V557H426V729Q429 741
430 756T434 786L506 803H746L862 836L907 879L922 965V1118L907 1202L844 1266L741 1280H500L397 1266L334 1202L318 1096L424 1085L436 1163L506 1174H735L805 1163L815 1104V979Q810 963 808 949T801 920L735 903H496L379 870L334 825L322 741V516L385 453Z"
/>
<glyph unicode="3" glyph-name="three" horiz-adv-x="1184" d="M438 0Q303 0 204 51T51 190T-4 381V989Q-4 1094 50 1180T204 1318T438 1370H746Q881 1370 980 1319T1134 1181T1188 989V381Q1188 277 1134 190T981 52T746 0H438ZM465 451H731L834 463L897 526L911
612V762L897 846L873 868L897 893L911 977V1116L897 1200L834 1264L731 1278H465L363 1264L299 1200L281 1094L389 1083L402 1161L471 1171H725L795 1161L805 1102V981L791 926L725 915H447V821H727L795 813L805 754V623L791 567L725 557H467L406 567L389 645L281
635L299 526L363 463L465 451Z" />
<glyph unicode="4" glyph-name="four" horiz-adv-x="1184" d="M438 0Q303 0 204 51T51 190T-4 381V989Q-4 1094 50 1180T204 1318T438 1370H746Q881 1370 980 1319T1134 1181T1188 989V381Q1188 277 1134 190T981 52T746 0H438ZM711 453H817V647H971V754H817V1280H711V752H547L477
762L467 821V1280H361V807L375 723L438 659L541 647H711V453Z" />
<glyph unicode="5" glyph-name="five" horiz-adv-x="1184" d="M438 0Q303 0 204 51T51 190T-4 381V989Q-4 1094 50 1180T204 1318T438 1370H746Q881 1370 980 1319T1134 1181T1188 989V381Q1188 277 1134 190T981 52T746 0H438ZM512 453H758L858 465L922 528L936
612V797L922 881L858 944L758 958H512L438 946V1176H895V1280H395L332 1217V840H434L518 852H752L819 842L830 782V623Q828 610 823 596T815 569L756 557H514L451 569L440 616L326 604L348 526L412 465L512 453Z" />
<glyph unicode="6" glyph-name="six" horiz-adv-x="1184" d="M438 0Q303 0 204 51T51 190T-4 381V989Q-4 1094 50 1180T204 1318T438 1370H746Q881 1370 980 1319T1134 1181T1188 989V381Q1188 277 1134 190T981 52T746 0H438ZM512 453H780L881 465L946 528L961
612V799L946 883L883 946L780 961H512L438 948V1108L449 1163H774L879 1151L899 1255L782 1280H512L410 1266L346 1202L332 1118V612L346 528L410 465L512 453ZM514 557L453 569L438 629V788L449 844L518 854H774L844 844L854 784V629L840 569L774 557H514Z" />
<glyph unicode="7" glyph-name="seven" horiz-adv-x="1184" d="M438 0Q303 0 204 51T51 190T-4 381V989Q-4 1094 50 1180T204 1318T438 1370H746Q881 1370 980 1319T1134 1181T1188 989V381Q1188 277 1134 190T981 52T746 0H438ZM469 453H592L852 1194V1280H420V1174H731L469
453Z" />
<glyph unicode="8" glyph-name="eight" horiz-adv-x="1184" d="M438 0Q303 0 204 51T51 190T-4 381V989Q-4 1094 50 1180T204 1318T438 1370H746Q881 1370 980 1319T1134 1181T1188 989V381Q1188 277 1134 190T981 52T746 0H438ZM494 453H762L862 465L928 528L942
614V766L928 850L903 874L928 897L942 981V1118L928 1202L864 1266L762 1280H494L391 1266L328 1202L313 1118V981L328 897L352 874L328 850L313 766V614L328 528L393 465L494 453ZM500 928L434 938L420 997V1108L430 1163L500 1174H756L825 1163L836 1108V997L821
938L756 928H500ZM500 559L434 569L420 629V756L430 811L500 821H756L825 811L836 756V629L821 569L756 559H500Z" />
<glyph unicode="9" glyph-name="nine" horiz-adv-x="1184" d="M438 0Q303 0 204 51T51 190T-4 381V989Q-4 1094 50 1180T204 1318T438 1370H746Q881 1370 980 1319T1134 1181T1188 989V381Q1188 277 1134 190T981 52T746 0H438ZM479 453H750L852 467L916 530L930
614V1120L916 1204L852 1268L750 1280H481L381 1268L315 1204L301 1120V934L315 850L379 786L481 772H750L823 784V625L813 569H488L383 582L363 477L479 453ZM488 879L418 889L408 948V1104L422 1163L488 1176H748L809 1163L823 1110V944L813 889L744 879H488Z"
/>
<glyph unicode=":" glyph-name="colon" horiz-adv-x="877" d="M438 0Q303 0 204 51T51 190T-4 381V989Q-4 1094 50 1180T204 1318T438 1370Q574 1370 673 1319T826 1181T881 989V381Q881 277 827 190T673 52T438 0ZM373 741H504V870H373V741ZM373 453H504V582H373V453Z" />
<glyph unicode=";" glyph-name="semicolon" horiz-adv-x="877" d="M438 0Q303 0 204 51T51 190T-4 381V989Q-4 1094 50 1180T204 1318T438 1370Q574 1370 673 1319T826 1181T881 989V381Q881 277 827 190T673 52T438 0ZM389 741H520V870H389V741ZM463 324L524
453V582H373V453H438L399 352L463 324Z" />
<glyph unicode="&lt;" glyph-name="less" horiz-adv-x="877" d="M439 0Q304 0 205 51T51 190T-4 381V989Q-4 1094 50 1180T204 1318T439 1370Q574 1370 673 1319T827 1181T881 989V381Q881 277 827 190T674 52T439 0ZM546 657L605 739L344 919L605 1099L546 1181L230
953V885L546 657Z" />
<glyph unicode="=" glyph-name="equal" horiz-adv-x="877" d="M438 0Q303 0 204 51T51 190T-4 381V989Q-4 1094 50 1180T204 1318T438 1370Q574 1370 673 1319T826 1181T881 989V381Q881 277 827 190T673 52T438 0ZM243 995H634V1101H243V995ZM243 783H634V889H243V783Z" />
<glyph unicode="&gt;" glyph-name="greater" horiz-adv-x="877" d="M438 0Q303 0 204 51T51 190T-4 381V989Q-4 1094 50 1180T204 1318T438 1370Q574 1370 673 1319T826 1181T881 989V381Q881 277 827 190T673 52T438 0ZM331 657L647 885V953L331 1181L272 1099L533
919L272 739L331 657Z" />
<glyph unicode="?" glyph-name="question" horiz-adv-x="1184" d="M438 0Q303 0 204 51T51 190T-4 381V989Q-4 1094 50 1180T204 1318T438 1370H746Q881 1370 980 1319T1134 1181T1188 989V381Q1188 277 1134 190T981 52T746 0H438ZM582 622H668V787H753L852 801L909
858L924 940V1116L909 1198L852 1255L754 1270H549L451 1255L394 1198L377 1105L464 1097Q467 1113 469 1134T475 1173L751 1184L827 1173L838 1106V950L827 872H624L582 818V622ZM572 463H678V565H572V463Z" />
<glyph unicode="@" glyph-name="at" horiz-adv-x="1184" d="M438 0Q303 0 204 51T51 190T-4 381V989Q-4 1094 50 1180T204 1318T438 1370H746Q881 1370 980 1319T1134 1181T1188 989V381Q1188 277 1134 190T981 52T746 0H438ZM655 340L662 430Q610 427 566 427Q459
427 399 446T310 511T275 636T268 836V946Q268 994 279 1039T329 1122T448 1182T666 1204Q795 1204 858 1159T941 1047T961 909V625L944 565H848L832 625V915L815 1008L746 1077L637 1090H555L436 1065L455 993L557 1014H635L721 999L737 942V848L606 861L473 846L404
776L386 731V696L404 649L473 580L616 565L754 596L803 496H993L1034 565L1047 659V889Q1047 947 1036 1016T988 1149T874 1253T666 1294Q503 1294 406 1265T261 1188T198 1081T182 961V847Q182 710 192 609T247 445T391 355L655 340ZM608 645L498 659L481 715L490
764L611 779L737 766V659L608 645Z" />
<glyph unicode="A" glyph-name="A" horiz-adv-x="1184" d="M438 0Q303 0 204 51T51 190T-4 381V989Q-4 1094 50 1180T204 1318T438 1370H746Q881 1370 980 1319T1134 1181T1188 989V381Q1188 277 1134 190T981 52T746 0H438ZM295 453H414L440 758H809L838 453H952L873
1198L811 1260L678 1280H571L438 1260L377 1198L295 453ZM449 854L479 1159L576 1174H674L768 1159L801 854H449Z" />
<glyph unicode="B" glyph-name="B" horiz-adv-x="1184" d="M438 0Q303 0 204 51T51 190T-4 381V989Q-4 1094 50 1180T204 1318T438 1370H746Q881 1370 980 1319T1134 1181T1188 989V381Q1188 277 1134 190T981 52T746 0H438ZM307 453H727L830 465L893 528L907
612V770L888 844L808 879L888 909L907 985V1118L893 1202L830 1266L727 1280H307V453ZM414 928V1174H721L791 1163L787 1104L801 993L787 940L721 928H414ZM414 559V823H723L791 815L801 756V623L787 569L721 559H414Z" />
<glyph unicode="C" glyph-name="C" horiz-adv-x="1184" d="M438 0Q303 0 204 51T51 190T-4 381V989Q-4 1094 50 1180T204 1318T438 1370H746Q881 1370 980 1319T1134 1181T1188 989V381Q1188 277 1134 190T981 52T746 0H438ZM492 453H733L850 467L825 575L731
559H498L432 569L418 629V1110L428 1165L498 1176H727L830 1159L850 1266L733 1280H492L389 1268L326 1204L311 1120V612L326 528L391 465L492 453Z" />
<glyph unicode="D" glyph-name="D" horiz-adv-x="1184" d="M438 0Q303 0 204 51T51 190T-4 381V989Q-4 1094 50 1180T204 1318T438 1370H746Q881 1370 980 1319T1134 1181T1188 989V381Q1188 277 1134 190T981 52T746 0H438ZM328 453H774L877 465L940 528L954
614V1118L940 1202L877 1266L774 1280H328V453ZM432 559V1174H768L838 1163L848 1104V625L834 569L768 559H432Z" />
<glyph unicode="E" glyph-name="E" horiz-adv-x="1184" d="M438 0Q303 0 204 51T51 190T-4 381V989Q-4 1094 50 1180T204 1318T438 1370H746Q881 1370 980 1319T1134 1181T1188 989V381Q1188 277 1134 190T981 52T746 0H438ZM402 453H905V559H506V813H840V918H506V1174H891V1280H402V453Z"
/>
<glyph unicode="F" glyph-name="F" horiz-adv-x="1184" d="M438 0Q303 0 204 51T51 190T-4 381V989Q-4 1094 50 1180T204 1318T438 1370H746Q881 1370 980 1319T1134 1181T1188 989V381Q1188 277 1134 190T981 52T746 0H438ZM397 453H504V831H838V936H504V1174H895V1280H397V453Z"
/>
<glyph unicode="G" glyph-name="G" horiz-adv-x="1184" d="M438 0Q303 0 204 51T51 190T-4 381V989Q-4 1094 50 1180T204 1318T438 1370H746Q881 1370 980 1319T1134 1181T1188 989V381Q1188 277 1134 190T981 52T746 0H438ZM522 453H772L873 465L938 528L952
614V877H662V770H846V629Q841 613 839 599T832 569L766 559H524L463 569L449 633V1106L459 1161L524 1176H784L887 1159L907 1266L791 1280H522L420 1264L356 1200L342 1116V614L356 528L422 465L522 453Z" />
<glyph unicode="H" glyph-name="H" horiz-adv-x="1184" d="M438 0Q303 0 204 51T51 190T-4 381V989Q-4 1094 50 1180T204 1318T438 1370H746Q881 1370 980 1319T1134 1181T1188 989V381Q1188 277 1134 190T981 52T746 0H438ZM328 453H434V825H850V453H954V1280H850V930H434V1280H328V453Z"
/>
<glyph unicode="I" glyph-name="I" horiz-adv-x="1184" d="M438 0Q303 0 204 51T51 190T-4 381V989Q-4 1094 50 1180T204 1318T438 1370H746Q881 1370 980 1319T1134 1181T1188 989V381Q1188 277 1134 190T981 52T746 0H438ZM358 453H936V559H701V1174H936V1280H358V1174H594V559H358V453Z"
/>
<glyph unicode="J" glyph-name="J" horiz-adv-x="1184" d="M438 0Q303 0 204 51T51 190T-4 381V989Q-4 1094 50 1180T204 1318T438 1370H746Q881 1370 980 1319T1134 1181T1188 989V381Q1188 277 1134 190T981 52T746 0H438ZM453 453H608L709 467L787 528V1280H682V631L668
571L602 559H453V453Z" />
<glyph unicode="K" glyph-name="K" horiz-adv-x="1184" d="M438 0Q303 0 204 51T51 190T-4 381V989Q-4 1094 50 1180T204 1318T438 1370H746Q881 1370 980 1319T1134 1181T1188 989V381Q1188 277 1134 190T981 52T746 0H438ZM899 434L985 508L654 885L998 1225L926
1309L514 901V1280H408V453H514V766L572 817L899 434Z" />
<glyph unicode="L" glyph-name="L" horiz-adv-x="1184" d="M438 0Q303 0 204 51T51 190T-4 381V989Q-4 1094 50 1180T204 1318T438 1370H746Q881 1370 980 1319T1134 1181T1188 989V381Q1188 277 1134 190T981 52T746 0H438ZM449 453H862V559H555V1280H449V453Z" />
<glyph unicode="M" glyph-name="M" horiz-adv-x="1184" d="M438 0Q303 0 204 51T51 190T-4 381V989Q-4 1094 50 1180T204 1318T438 1370H746Q881 1370 980 1319T1134 1181T1188 989V381Q1188 277 1134 190T981 52T746 0H438ZM256 453H363V1165L412 1174H526L569
1165V741H676V1165L719 1174H834L883 1165V453H989V1202L926 1266L842 1280H711L657 1264L623 1195L590 1264L535 1280H404L320 1266L256 1202V453Z" />
<glyph unicode="N" glyph-name="N" horiz-adv-x="1184" d="M438 0Q303 0 204 51T51 190T-4 381V989Q-4 1094 50 1180T204 1318T438 1370H746Q881 1370 980 1319T1134 1181T1188 989V381Q1188 277 1134 190T981 52T746 0H438ZM322 453H428V1163L506 1176H746L815
1165L825 1106V453H932V1120L918 1204L854 1268L752 1280H502L322 1255V453Z" />
<glyph unicode="O" glyph-name="O" horiz-adv-x="1184" d="M438 0Q303 0 204 51T51 190T-4 381V989Q-4 1094 50 1180T204 1318T438 1370H746Q881 1370 980 1319T1134 1181T1188 989V381Q1188 277 1134 190T981 52T746 0H438ZM504 453H772L875 465L938 528L952
614V1118L938 1202L875 1266L772 1280H504L402 1266L338 1202L326 1118V614L338 528L404 465L504 453ZM510 559L445 569L430 629V1108L440 1163L510 1174H766L836 1163L846 1104V625L832 569L766 559H510Z" />
<glyph unicode="P" glyph-name="P" horiz-adv-x="1184" d="M438 0Q303 0 204 51T51 190T-4 381V989Q-4 1094 50 1180T204 1318T438 1370H746Q881 1370 980 1319T1134 1181T1188 989V381Q1188 277 1134 190T981 52T746 0H438ZM377 453H481V748H750L852 760L916
823L930 909V1118L916 1202L852 1266L750 1280H377V453ZM481 854V1174H744L813 1163L823 1104V920L809 864L744 854H481Z" />
<glyph unicode="Q" glyph-name="Q" horiz-adv-x="1184" d="M438 0Q303 0 204 51T51 190T-4 381V989Q-4 1094 50 1180T204 1318T438 1370H746Q881 1370 980 1319T1134 1181T1188 989V381Q1188 277 1134 190T981 52T746 0H438ZM762 299L856 344L801 457L877 465L940
528L954 614V1118L940 1202L877 1266L774 1280H506L404 1266L340 1202L328 1118V614L340 528L406 465L506 453H684L762 299ZM512 559L447 569L432 629V1108L442 1163L512 1174H768L838 1163L848 1104V625L834 569L768 559H748L688 676L596 625L627 559H512Z" />
<glyph unicode="R" glyph-name="R" horiz-adv-x="1184" d="M438 0Q303 0 204 51T51 190T-4 381V989Q-4 1094 50 1180T204 1318T438 1370H746Q881 1370 980 1319T1134 1181T1188 989V381Q1188 277 1134 190T981 52T746 0H438ZM344 453H451V786H711L782 754L797
700V453H903V711L868 803L754 844L864 897L895 987V1098L883 1182L817 1266L717 1280H344V453ZM451 893V1174H711L782 1143L789 1085V979L774 924L711 893H451Z" />
<glyph unicode="S" glyph-name="S" horiz-adv-x="1184" d="M438 0Q303 0 204 51T51 190T-4 381V989Q-4 1094 50 1180T204 1318T438 1370H746Q881 1370 980 1319T1134 1181T1188 989V381Q1188 277 1134 190T981 52T746 0H438ZM494 453H754L856 465L920 528L934
614V766L920 852L856 915L752 926H528L467 938L453 997V1102L467 1161L533 1174H787L881 1155L905 1264L789 1280H526L426 1266L361 1202L348 1118V981L361 897L426 834L526 821H752L813 811L827 756V625L813 569L748 559H500L402 575L377 467L494 453Z" />
<glyph unicode="T" glyph-name="T" horiz-adv-x="1184" d="M438 0Q303 0 204 51T51 190T-4 381V989Q-4 1094 50 1180T204 1318T438 1370H746Q881 1370 980 1319T1134 1181T1188 989V381Q1188 277 1134 190T981 52T746 0H438ZM594 453H701V1174H936V1280H358V1174H594V453Z"
/>
<glyph unicode="U" glyph-name="U" horiz-adv-x="1184" d="M438 0Q303 0 204 51T51 190T-4 381V989Q-4 1094 50 1180T204 1318T438 1370H746Q881 1370 980 1319T1134 1181T1188 989V381Q1188 277 1134 190T981 52T746 0H438ZM498 453H766L868 465L932 528L946
614V1280H840V625L825 569L760 559H504L438 569L424 629V1280H320V614L332 528L397 465L498 453Z" />
<glyph unicode="V" glyph-name="V" horiz-adv-x="1184" d="M438 0Q303 0 204 51T51 190T-4 381V989Q-4 1094 50 1180T204 1318T438 1370H746Q881 1370 980 1319T1134 1181T1188 989V381Q1188 277 1134 190T981 52T746 0H438ZM629 446L696 465L756 524L952 1260L836
1280L655 565L633 557L606 563L426 1280L309 1260L506 524L565 465L629 446Z" />
<glyph unicode="W" glyph-name="W" horiz-adv-x="1184" d="M438 0Q303 0 204 51T51 190T-4 381V989Q-4 1094 50 1180T204 1318T438 1370H746Q881 1370 980 1319T1134 1181T1188 989V381Q1188 277 1134 190T981 52T746 0H438ZM426 449L492 465L553 526L619 967L684
526L746 465L811 449L877 465L938 526L1018 1260L903 1280L836 563L809 557L787 565L668 1247H569L451 565L428 557L402 563L334 1280L219 1260L299 526L361 465L426 449Z" />
<glyph unicode="X" glyph-name="X" horiz-adv-x="1184" d="M438 0Q303 0 204 51T51 190T-4 381V989Q-4 1094 50 1180T204 1318T438 1370H746Q881 1370 980 1319T1134 1181T1188 989V381Q1188 277 1134 190T981 52T746 0H438ZM420 451L641 799L868 451L963 489L731
864L967 1245L868 1282L641 922L420 1282L324 1241L557 864L326 489L420 451Z" />
<glyph unicode="Y" glyph-name="Y" horiz-adv-x="1184" d="M438 0Q303 0 204 51T51 190T-4 381V989Q-4 1094 50 1180T204 1318T438 1370H746Q881 1370 980 1319T1134 1181T1188 989V381Q1188 277 1134 190T981 52T746 0H438ZM584 453H690V684L944 1280H819L637
831L459 1280H334L584 686V453Z" />
<glyph unicode="Z" glyph-name="Z" horiz-adv-x="1184" d="M438 0Q303 0 204 51T51 190T-4 381V989Q-4 1094 50 1180T204 1318T438 1370H746Q881 1370 980 1319T1134 1181T1188 989V381Q1188 277 1134 190T981 52T746 0H438ZM410 453H885V557H508L862 1192L821
1280H393V1174H731L377 539L410 453Z" />
<glyph unicode="[" glyph-name="bracketleft" horiz-adv-x="993" d="M438 0Q303 0 204 51T51 190T-4 381V989Q-4 1094 50 1180T204 1318T438 1370H555Q690 1370 789 1319T943 1181T997 989V381Q997 277 943 190T790 52T555 0H438ZM419 354H591V459H526V1200H591V1305H419V354Z"
/>
<glyph unicode="\" glyph-name="backslash" horiz-adv-x="1057" d="M438 0Q303 0 204 51T51 190T-4 381V989Q-4 1094 50 1180T204 1318T438 1370H619Q754 1370 853 1319T1007 1181T1061 989V381Q1061 277 1007 190T854 52T619 0H438ZM561 453H670L533 1280H424L561 453Z" />
<glyph unicode="]" glyph-name="bracketright" horiz-adv-x="993" d="M438 0Q303 0 204 51T51 190T-4 381V989Q-4 1094 50 1180T204 1318T438 1370H555Q690 1370 789 1319T943 1181T997 989V381Q997 277 943 190T790 52T555 0H438ZM402 354H574V1305H402V1200H467V459H402V354Z"
/>
<glyph unicode="^" glyph-name="asciicircum" horiz-adv-x="729" d="M172 487Q-4 534 -4 674Q-4 727 24 804T89 964T156 1116Q192 1163 223 1182T311 1218H385Q469 1210 508 1185T588 1085Q622 1000 657 916T727 747Q733 713 733 684Q733 505 524 487H483Q443
498 417 510T367 545Q339 516 305 504T213 487H172ZM189 684H229L365 950L500 684H541L402 1022H328L189 684Z" />
<glyph unicode="_" glyph-name="underscore" horiz-adv-x="877" d="M438 0Q303 0 204 51T51 190T-4 381V989Q-4 1094 50 1180T204 1318T438 1370Q574 1370 673 1319T826 1181T881 989V381Q881 277 827 190T673 52T438 0ZM209 344H668V453H209V344Z" />
<glyph unicode="`" glyph-name="grave" horiz-adv-x="631" d="M240 93Q229 104 219 119T197 154L39 424Q-6 500 -4 557Q-4 623 38 667T148 735T291 758Q376 758 441 733T531 645Q576 503 598 425T628 312T635 263Q635 203 598 158T514 93H240ZM367 250H436L336
584H215L367 250Z" />
<glyph unicode="a" glyph-name="a" horiz-adv-x="1184" d="M438 0Q303 0 204 51T51 190T-4 381V989Q-4 1094 50 1180T204 1318T438 1370H746Q881 1370 980 1319T1134 1181T1188 989V381Q1188 277 1134 190T981 52T746 0H438ZM473 453H692L770 465L869 454V1204L801
1268L701 1280H473L356 1266L381 1157L475 1176H698L758 1163L772 1110V877L701 889H473L373 874L309 811L295 729V612L309 528L373 465L473 453ZM479 559L416 569L402 629V715L410 772L479 782H696L772 774V569L694 559H479Z" />
<glyph unicode="b" glyph-name="b" horiz-adv-x="1184" d="M438 0Q303 0 204 51T51 190T-4 381V989Q-4 1094 50 1180T204 1318T438 1370H746Q881 1370 980 1319T1134 1181T1188 989V381Q1188 277 1134 190T981 52T746 0H438ZM307 453H727L830 465L893 528L907
612V770L888 844L808 879L888 909L907 985V1118L893 1202L830 1266L727 1280H307V453ZM414 928V1174H721L791 1163L787 1104L801 993L787 940L721 928H414ZM414 559V823H723L791 815L801 756V623L787 569L721 559H414Z" />
<glyph unicode="c" glyph-name="c" horiz-adv-x="1184" d="M438 0Q303 0 204 51T51 190T-4 381V989Q-4 1094 50 1180T204 1318T438 1370H746Q881 1370 980 1319T1134 1181T1188 989V381Q1188 277 1134 190T981 52T746 0H438ZM492 453H733L850 467L825 575L731
559H498L432 569L418 629V1110L428 1165L498 1176H727L830 1159L850 1266L733 1280H492L389 1268L326 1204L311 1120V612L326 528L391 465L492 453Z" />
<glyph unicode="d" glyph-name="d" horiz-adv-x="1184" d="M438 0Q303 0 204 51T51 190T-4 381V989Q-4 1094 50 1180T204 1318T438 1370H746Q881 1370 980 1319T1134 1181T1188 989V381Q1188 277 1134 190T981 52T746 0H438ZM328 453H774L877 465L940 528L954
614V1118L940 1202L877 1266L774 1280H328V453ZM432 559V1174H768L838 1163L848 1104V625L834 569L768 559H432Z" />
<glyph unicode="e" glyph-name="e" horiz-adv-x="1184" d="M438 0Q303 0 204 51T51 190T-4 381V989Q-4 1094 50 1180T204 1318T438 1370H746Q881 1370 980 1319T1134 1181T1188 989V381Q1188 277 1134 190T981 52T746 0H438ZM481 485H733L850 500L825 608L731
592H488L424 602L410 662V868H877V1120L862 1204L799 1268L698 1280H481L381 1268L318 1204L303 1120V645L318 561L381 498L481 485ZM410 973V1108L418 1165L488 1176H692L760 1165L770 1106V973H410Z" />
<glyph unicode="f" glyph-name="f" horiz-adv-x="1184" d="M438 0Q303 0 204 51T51 190T-4 381V989Q-4 1094 50 1180T204 1318T438 1370H746Q881 1370 980 1319T1134 1181T1188 989V381Q1188 277 1134 190T981 52T746 0H438ZM397 453H504V831H838V936H504V1174H895V1280H397V453Z"
/>
<glyph unicode="g" glyph-name="g" horiz-adv-x="1184" d="M438 0Q303 0 204 51T51 190T-4 381V989Q-4 1094 50 1180T204 1318T438 1370H746Q881 1370 980 1319T1134 1181T1188 989V381Q1188 277 1134 190T981 52T746 0H438ZM522 453H772L873 465L938 528L952
614V877H662V770H846V629Q841 613 839 599T832 569L766 559H524L463 569L449 633V1106L459 1161L524 1176H784L887 1159L907 1266L791 1280H522L420 1264L356 1200L342 1116V614L356 528L422 465L522 453Z" />
<glyph unicode="h" glyph-name="h" horiz-adv-x="1184" d="M438 0Q303 0 204 51T51 190T-4 381V989Q-4 1094 50 1180T204 1318T438 1370H746Q881 1370 980 1319T1134 1181T1188 989V381Q1188 277 1134 190T981 52T746 0H438ZM328 453H434V825H850V453H954V1280H850V930H434V1280H328V453Z"
/>
<glyph unicode="i" glyph-name="i" horiz-adv-x="1184" d="M438 0Q303 0 204 51T51 190T-4 381V989Q-4 1094 50 1180T204 1318T438 1370H746Q881 1370 980 1319T1134 1181T1188 989V381Q1188 277 1134 190T981 52T746 0H438ZM358 453H936V559H701V1174H936V1280H358V1174H594V559H358V453Z"
/>
<glyph unicode="j" glyph-name="j" horiz-adv-x="1184" d="M746 1370Q881 1370 980 1319T1134 1181T1188 989V381Q1188 277 1134 190T981 52T746 0H438Q303 0 204 51T51 190T-4 381V989Q-4 1094 50 1180T204 1318T438 1370H746ZM682 1280V631L668 571L602 559H453V453H608L709
467L787 528V1280H682Z" />
<glyph unicode="k" glyph-name="k" horiz-adv-x="1184" d="M438 0Q303 0 204 51T51 190T-4 381V989Q-4 1094 50 1180T204 1318T438 1370H746Q881 1370 980 1319T1134 1181T1188 989V381Q1188 277 1134 190T981 52T746 0H438ZM899 434L985 508L654 885L998 1225L926
1309L514 901V1280H408V453H514V766L572 817L899 434Z" />
<glyph unicode="l" glyph-name="l" horiz-adv-x="1184" d="M438 0Q303 0 204 51T51 190T-4 381V989Q-4 1094 50 1180T204 1318T438 1370H746Q881 1370 980 1319T1134 1181T1188 989V381Q1188 277 1134 190T981 52T746 0H438ZM449 453H862V559H555V1280H449V453Z" />
<glyph unicode="m" glyph-name="m" horiz-adv-x="1184" d="M438 0Q303 0 204 51T51 190T-4 381V989Q-4 1094 50 1180T204 1318T438 1370H746Q881 1370 980 1319T1134 1181T1188 989V381Q1188 277 1134 190T981 52T746 0H438ZM256 453H363V1165L412 1174H526L569
1165V741H676V1165L719 1174H834L883 1165V453H989V1202L926 1266L842 1280H711L657 1264L623 1195L590 1264L535 1280H404L320 1266L256 1202V453Z" />
<glyph unicode="n" glyph-name="n" horiz-adv-x="1184" d="M438 0Q303 0 204 51T51 190T-4 381V989Q-4 1094 50 1180T204 1318T438 1370H746Q881 1370 980 1319T1134 1181T1188 989V381Q1188 277 1134 190T981 52T746 0H438ZM322 453H428V1163L506 1176H746L815
1165L825 1106V453H932V1120L918 1204L854 1268L752 1280H502L322 1255V453Z" />
<glyph unicode="o" glyph-name="o" horiz-adv-x="1184" d="M438 0Q303 0 204 51T51 190T-4 381V989Q-4 1094 50 1180T204 1318T438 1370H746Q881 1370 980 1319T1134 1181T1188 989V381Q1188 277 1134 190T981 52T746 0H438ZM504 453H772L875 465L938 528L952
614V1118L938 1202L875 1266L772 1280H504L402 1266L338 1202L326 1118V614L338 528L404 465L504 453ZM510 559L445 569L430 629V1108L440 1163L510 1174H766L836 1163L846 1104V625L832 569L766 559H510Z" />
<glyph unicode="p" glyph-name="p" horiz-adv-x="1184" d="M438 0Q303 0 204 51T51 190T-4 381V989Q-4 1094 50 1180T204 1318T438 1370H746Q881 1370 980 1319T1134 1181T1188 989V381Q1188 277 1134 190T981 52T746 0H438ZM377 453H481V748H750L852 760L916
823L930 909V1118L916 1202L852 1266L750 1280H377V453ZM481 854V1174H744L813 1163L823 1104V920L809 864L744 854H481Z" />
<glyph unicode="q" glyph-name="q" horiz-adv-x="1184" d="M438 0Q303 0 204 51T51 190T-4 381V989Q-4 1094 50 1180T204 1318T438 1370H746Q881 1370 980 1319T1134 1181T1188 989V381Q1188 277 1134 190T981 52T746 0H438ZM762 299L856 344L801 457L877 465L940
528L954 614V1118L940 1202L877 1266L774 1280H506L404 1266L340 1202L328 1118V614L340 528L406 465L506 453H684L762 299ZM512 559L447 569L432 629V1108L442 1163L512 1174H768L838 1163L848 1104V625L834 569L768 559H748L688 676L596 625L627 559H512Z" />
<glyph unicode="r" glyph-name="r" horiz-adv-x="1184" d="M438 0Q303 0 204 51T51 190T-4 381V989Q-4 1094 50 1180T204 1318T438 1370H746Q881 1370 980 1319T1134 1181T1188 989V381Q1188 277 1134 190T981 52T746 0H438ZM344 453H451V786H711L782 754L797
700V453H903V711L868 803L754 844L864 897L895 987V1098L883 1182L817 1266L717 1280H344V453ZM451 893V1174H711L782 1143L789 1085V979L774 924L711 893H451Z" />
<glyph unicode="s" glyph-name="s" horiz-adv-x="1184" d="M438 0Q303 0 204 51T51 190T-4 381V989Q-4 1094 50 1180T204 1318T438 1370H746Q881 1370 980 1319T1134 1181T1188 989V381Q1188 277 1134 190T981 52T746 0H438ZM494 453H754L856 465L920 528L934
614V766L920 852L856 915L752 926H528L467 938L453 997V1102L467 1161L533 1174H787L881 1155L905 1264L789 1280H526L426 1266L361 1202L348 1118V981L361 897L426 834L526 821H752L813 811L827 756V625L813 569L748 559H500L402 575L377 467L494 453Z" />
<glyph unicode="t" glyph-name="t" horiz-adv-x="1184" d="M438 0Q303 0 204 51T51 190T-4 381V989Q-4 1094 50 1180T204 1318T438 1370H746Q881 1370 980 1319T1134 1181T1188 989V381Q1188 277 1134 190T981 52T746 0H438ZM594 453H701V1174H936V1280H358V1174H594V453Z"
/>
<glyph unicode="u" glyph-name="u" horiz-adv-x="1184" d="M438 0Q303 0 204 51T51 190T-4 381V989Q-4 1094 50 1180T204 1318T438 1370H746Q881 1370 980 1319T1134 1181T1188 989V381Q1188 277 1134 190T981 52T746 0H438ZM498 453H766L868 465L932 528L946
614V1280H840V625L825 569L760 559H504L438 569L424 629V1280H320V614L332 528L397 465L498 453Z" />
<glyph unicode="v" glyph-name="v" horiz-adv-x="1184" d="M438 0Q303 0 204 51T51 190T-4 381V989Q-4 1094 50 1180T204 1318T438 1370H746Q881 1370 980 1319T1134 1181T1188 989V381Q1188 277 1134 190T981 52T746 0H438ZM629 446L696 465L756 524L952 1260L836
1280L655 565L633 557L606 563L426 1280L309 1260L506 524L565 465L629 446Z" />
<glyph unicode="w" glyph-name="w" horiz-adv-x="1184" d="M438 0Q303 0 204 51T51 190T-4 381V989Q-4 1094 50 1180T204 1318T438 1370H746Q881 1370 980 1319T1134 1181T1188 989V381Q1188 277 1134 190T981 52T746 0H438ZM426 449L492 465L553 526L619 967L684
526L746 465L811 449L877 465L938 526L1018 1260L903 1280L836 563L809 557L787 565L668 1247H569L451 565L428 557L402 563L334 1280L219 1260L299 526L361 465L426 449Z" />
<glyph unicode="x" glyph-name="x" horiz-adv-x="1184" d="M438 0Q303 0 204 51T51 190T-4 381V989Q-4 1094 50 1180T204 1318T438 1370H746Q881 1370 980 1319T1134 1181T1188 989V381Q1188 277 1134 190T981 52T746 0H438ZM420 451L641 799L868 451L963 489L731
864L967 1245L868 1282L641 922L420 1282L324 1241L557 864L326 489L420 451Z" />
<glyph unicode="y" glyph-name="y" horiz-adv-x="1184" d="M438 0Q303 0 204 51T51 190T-4 381V989Q-4 1094 50 1180T204 1318T438 1370H746Q881 1370 980 1319T1134 1181T1188 989V381Q1188 277 1134 190T981 52T746 0H438ZM584 453H690V684L944 1280H819L637
831L459 1280H334L584 686V453Z" />
<glyph unicode="z" glyph-name="z" horiz-adv-x="1184" d="M438 0Q303 0 204 51T51 190T-4 381V989Q-4 1094 50 1180T204 1318T438 1370H746Q881 1370 980 1319T1134 1181T1188 989V381Q1188 277 1134 190T981 52T746 0H438ZM410 453H885V557H508L862 1192L821
1280H393V1174H731L377 539L410 453Z" />
<glyph unicode="{" glyph-name="braceleft" horiz-adv-x="993" d="M438 0Q303 0 204 51T51 190T-4 381V989Q-4 1094 50 1180T204 1318T438 1370H555Q690 1370 789 1319T943 1181T997 989V381Q997 277 943 190T790 52T555 0H438ZM541 350H664V457H547L481 467L467
526V721L453 805L430 827L453 850L465 936V1126L481 1186L547 1196H664V1303H541L440 1290L375 1225L363 1141V950L344 891L281 881H164V774H281L346 764L361 705V512L375 426L440 362L541 350Z" />
<glyph unicode="|" glyph-name="bar" horiz-adv-x="993" d="M438 0Q303 0 204 51T51 190T-4 381V989Q-4 1094 50 1180T204 1318T438 1370H454V378H539V1370H555Q690 1370 789 1319T943 1181T997 989V381Q997 277 943 190T790 52T555 0H438Z" />
<glyph unicode="}" glyph-name="braceright" horiz-adv-x="993" d="M438 0Q303 0 204 51T51 190T-4 381V989Q-4 1094 50 1180T204 1318T438 1370H555Q690 1370 789 1319T943 1181T997 989V381Q997 277 943 190T790 52T555 0H438ZM329 350H452L553 362L618 426L632
512V705L647 764L712 774H829V881H712L649 891L630 950V1141L618 1225L553 1290L452 1303H329V1196H446L512 1186L528 1126V936L540 850L563 827L540 805L526 721V526L512 467L446 457H329V350Z" />
<glyph unicode="~" glyph-name="asciitilde" horiz-adv-x="877" d="M438 0Q303 0 204 51T51 190T-4 381V989Q-4 1094 50 1180T204 1318T438 1370Q574 1370 673 1319T826 1181T881 989V381Q881 277 827 190T673 52T438 0ZM159 862H249Q249 925 263 937T292 950Q317
950 372 929T493 887T615 866Q673 866 700 903T728 1044Q728 1056 726 1063H636Q636 991 619 979T587 967Q584 967 553 978T474 1004T373 1030T271 1042Q221 1042 186 1018T150 928Q150 900 159 862Z" />
<glyph unicode="&#xa0;" glyph-name="uni00A0" horiz-adv-x="287" />
<glyph unicode="&#xa1;" glyph-name="exclamdown" horiz-adv-x="869" d="M430 0Q297 0 200 52T49 192T-4 381V989Q-4 1094 50 1180T204 1318T438 1370Q571 1370 668 1318T819 1180T873 989V381Q873 277 819 190T665 52T430 0ZM384 1280V1173H491V1280H384ZM408
1091L367 438H508L467 1091H408Z" />
<glyph unicode="&#xa2;" glyph-name="cent" horiz-adv-x="1184" d="M438 0Q303 0 204 51T51 190T-4 381V989Q-4 1094 50 1180T204 1318T438 1370H746Q881 1370 980 1319T1134 1181T1188 989V381Q1188 277 1134 190T981 52T746 0H438ZM580 350H660V489H715L832
504L807 612L713 596H660V1075H709L811 1059L832 1165L715 1180H660V1323H580V1180H543L440 1167L377 1104L363 1020V649L377 565L442 502L543 489H580V350ZM483 596L469 666V1010L479 1065L549 1075H580V596H483Z" />
<glyph unicode="&#xa3;" glyph-name="sterling" horiz-adv-x="1184" d="M438 0Q303 0 204 51T51 190T-4 381V989Q-4 1094 50 1180T204 1318T438 1370H746Q881 1370 980 1319T1134 1181T1188 989V381Q1188 277 1134 190T981 52T746 0H438ZM428 453H842V559H535V809H791V887H535V1161L610
1176H666L739 1163V1040H846V1192L768 1268L664 1282L506 1268L428 1192V887H356V809H428V453Z" />
<glyph unicode="&#xa4;" glyph-name="currency" horiz-adv-x="1184" d="M438 0Q303 0 204 51T51 190T-4 381V989Q-4 1094 50 1180T204 1318T438 1370H746Q881 1370 980 1319T1134 1181T1188 989V381Q1188 277 1134 190T981 52T746 0H438ZM389 594L467 678L555
668H705L795 678L875 594L940 659L858 743L873 819V1057L860 1124L940 1210L877 1274L801 1194L705 1206H555L461 1194L387 1274L324 1210L397 1128L389 1057V819L399 739L324 659L389 594ZM553 760L492 770L477 825V1055L488 1106L553 1116H707L772 1106L780 1051V821L768
770L707 760H553Z" />
<glyph unicode="&#xa5;" glyph-name="yen" horiz-adv-x="1184" d="M438 0Q303 0 204 51T51 190T-4 381V989Q-4 1094 50 1180T204 1318T438 1370H746Q881 1370 980 1319T1134 1181T1188 989V381Q1188 277 1134 190T981 52T746 0H438ZM549 455H655V578H803V662H655V688H803V772H692L909
1278H784L602 831L424 1278H299L512 772H402V688H549V662H402V578H549V455Z" />
<glyph unicode="&#xa6;" glyph-name="brokenbar" horiz-adv-x="993" d="M438 0Q303 0 204 51T51 190T-4 381V989Q-4 1094 50 1180T204 1318T438 1370H555Q690 1370 789 1319T943 1181T997 989V381Q997 277 943 190T790 52T555 0H438ZM446 934H553V1280H446V934ZM446
453H553V819H446V453Z" />
<glyph unicode="&#xa7;" glyph-name="section" horiz-adv-x="1184" d="M438 0Q303 0 204 51T51 190T-4 381V989Q-4 1094 50 1180T204 1318T438 1370H746Q881 1370 980 1319T1134 1181T1188 989V381Q1188 277 1134 190T981 52T746 0H438ZM441 357H702L799 371L858
428L870 510V592L858 674L799 731H780L801 811V846L786 930L729 987L630 997H528L459 1010L442 1075V1106L459 1171L528 1184H787L872 1168L893 1253L789 1270H526L430 1255L371 1198L359 1116V1065L371 983L430 926L446 921L428 846V811L443 727L500 670L599 660H699L769
647L787 581V520L770 455L701 442H442L357 458L335 372L441 357ZM602 743L529 754L514 821V838L529 914H629L700 902L715 838V813L700 743H602Z" />
<glyph unicode="&#xa8;" glyph-name="dieresis" horiz-adv-x="795" d="M129 93Q63 136 30 200T-4 343Q-4 423 45 491T184 600T397 642Q520 642 610 601T750 491T799 343Q799 180 664 93H129ZM193 259H324V388H193V259ZM455 259H586V388H455V259Z" />
<glyph unicode="&#xa9;" glyph-name="copyright" horiz-adv-x="1184" d="M438 0Q303 0 204 51T51 190T-4 381V989Q-4 1094 50 1180T204 1318T438 1370H746Q881 1370 980 1319T1134 1181T1188 989V381Q1188 277 1134 190T981 52T746 0H438ZM617 338Q748 338 855
401T1026 572T1090 811Q1090 942 1027 1049T856 1220T617 1284Q486 1284 378 1221T207 1050T143 811Q143 680 206 573T378 402T617 338ZM617 406Q505 406 413 461T266 608T211 811Q211 923 266 1015T413 1162T617 1217Q729 1217 820 1162T967 1015T1022 811Q1022
700 967 608T821 461T617 406ZM551 528H721L803 539L787 614L719 602H557L510 610L500 651V989L508 1028L557 1034H717L789 1024L803 1098L721 1108H551L479 1100L436 1055L426 995V641L436 582L481 537L551 528Z" />
<glyph unicode="&#xaa;" glyph-name="ordfeminine" horiz-adv-x="1184" d="M438 0Q303 0 204 51T51 190T-4 381V989Q-4 1094 50 1180T204 1318T438 1370H746Q881 1370 980 1319T1134 1181T1188 989V381Q1188 277 1134 190T981 52T746 0H438ZM547 596H701L801 608L864
672L879 756V1120L864 1204L801 1268L701 1280H547L430 1266L455 1157Q471 1159 500 1165T549 1176H698L758 1163L772 1110V963L701 975H547L447 961L383 897L369 815V756L383 672L447 608L547 596ZM553 702L490 713Q489 724 483 744T475 772V801Q478 813 479 828T483
858L553 868H696Q715 865 734 864T772 860V766L758 713L694 702H553Z" />
<glyph unicode="&#xab;" glyph-name="guillemotleft" horiz-adv-x="1184" d="M438 0Q303 0 204 51T51 190T-4 381V989Q-4 1094 50 1180T204 1318T438 1370H746Q881 1370 980 1319T1134 1181T1188 989V381Q1188 277 1134 190T981 52T746 0H438ZM561 408L608 453L371
797L608 1141L561 1188L297 811V784L561 408ZM807 408L854 453L596 797L854 1141L807 1188L522 811V784L807 408Z" />
<glyph unicode="&#xae;" glyph-name="registered" horiz-adv-x="1184" d="M438 0Q303 0 204 51T51 190T-4 381V989Q-4 1094 50 1180T204 1318T438 1370H746Q881 1370 980 1319T1134 1181T1188 989V381Q1188 277 1134 190T981 52T746 0H438ZM617 338Q748 338 855
401T1026 572T1090 811Q1090 942 1027 1049T856 1220T617 1284Q486 1284 378 1221T207 1050T143 811Q143 680 206 573T378 402T617 338ZM617 406Q505 406 413 461T266 608T211 811Q211 923 266 1015T413 1162T617 1217Q729 1217 820 1162T967 1015T1022 811Q1022
700 967 608T821 461T617 406ZM434 530H508V764H690L741 741L752 705V530H825V711L801 776L721 805L799 842L819 905V983L811 1040L766 1100L694 1110H434V530ZM508 840V1036H690L741 1014L746 973V899L735 860L690 840H508Z" />
<glyph unicode="&#xaf;" glyph-name="overscore" horiz-adv-x="877" d="M170 93Q85 144 41 212T-4 372Q-4 459 50 531T204 647T438 691Q574 691 673 648T826 532T881 372Q881 281 836 213T707 93H170ZM236 302H612V410H236V302Z" />
<glyph unicode="&#xb0;" glyph-name="degree" horiz-adv-x="877" d="M438 0Q303 0 204 51T51 190T-4 381V989Q-4 1094 50 1180T204 1318T438 1370Q574 1370 673 1319T826 1181T881 989V381Q881 277 827 190T673 52T438 0ZM404 926H475L553 938L612 997L623 1090L612
1194L553 1251L475 1266H404L326 1251L268 1194L256 1100L268 995L326 938L404 926ZM412 1016L356 1026L346 1096L356 1165L416 1176H469L524 1161L535 1096L524 1030L465 1016H412Z" />
<glyph unicode="&#xb1;" glyph-name="plusminus" horiz-adv-x="877" d="M438 0Q303 0 204 51T51 190T-4 381V989Q-4 1094 50 1180T204 1318T438 1370Q574 1370 673 1319T826 1181T881 989V381Q881 277 827 190T673 52T438 0ZM393 834H498V949H692V1055H498V1202H393V1055H199V949H393V834ZM199
639H692V745H199V639Z" />
<glyph unicode="&#xb2;" glyph-name="uni00B2" horiz-adv-x="1184" d="M438 0Q303 0 204 51T51 190T-4 381V989Q-4 1094 50 1180T204 1318T438 1370H746Q881 1370 980 1319T1134 1181T1188 989V381Q1188 277 1134 190T981 52T746 0H438ZM458 741H781V846H499V885L507
940L648 956L765 989L810 1032L824 1100V1128L810 1202L746 1266L644 1280H572L470 1266L407 1202L390 1116L497 1106L509 1163L579 1174H638L708 1163L718 1114L703 1073L568 1057L452 1024L407 979L394 897V805L458 741Z" />
<glyph unicode="&#xb3;" glyph-name="uni00B3" horiz-adv-x="1184" d="M438 0Q303 0 204 51T51 190T-4 381V989Q-4 1094 50 1180T204 1318T438 1370H746Q881 1370 980 1319T1134 1181T1188 989V381Q1188 277 1134 190T981 52T746 0H438ZM590 741H709L811 754L875
817L889 901V920L875 999L850 1022L875 1047L889 1120V1139L875 1202L811 1266L709 1280H590L488 1266L424 1202L406 1135L514 1124L526 1163L596 1174H703L772 1163L782 1124L768 1073L703 1063H571V975H705L772 967L782 911L768 858L703 848H592L531 858L514
913L406 903L424 817L488 754L590 741Z" />
<glyph unicode="&#xb4;" glyph-name="acute" horiz-adv-x="631" d="M117 93Q71 113 34 158T-4 263Q-4 277 2 312T31 425T100 645Q124 708 189 733T340 758Q415 758 482 735T592 668T635 557Q635 497 592 424L434 154Q422 134 412 119T391 93H117ZM195 250H264L416
584H295L195 250Z" />
<glyph unicode="&#xb5;" glyph-name="uni00B5" horiz-adv-x="1184" d="M438 0Q303 0 204 51T51 190T-4 381V989Q-4 1094 50 1180T204 1318T438 1370H746Q881 1370 980 1319T1134 1181T1188 989V381Q1188 277 1134 190T981 52T746 0H438ZM293 322H397V467L471 455H739L842
467L905 530L920 616V1278H813V627L799 571L733 561H477L412 571L397 631V1278H293V322Z" />
<glyph unicode="&#xb6;" glyph-name="paragraph" horiz-adv-x="1184" d="M438 0Q303 0 204 51T51 190T-4 381V989Q-4 1094 50 1180T204 1318T438 1370H746Q881 1370 980 1319T1134 1181T1188 989V381Q1188 277 1134 190T981 52T746 0H438ZM635 475H698V1192H795V475H858V1260H479L383
1245L332 1194L318 1114V983L332 901L383 850L479 838H635V475Z" />
<glyph unicode="&#xb7;" glyph-name="middot" horiz-adv-x="877" d="M438 0Q303 0 204 51T51 190T-4 381V989Q-4 1094 50 1180T204 1318T438 1370Q574 1370 673 1319T826 1181T881 989V381Q881 277 827 190T673 52T438 0ZM373 897H504V1026H373V897Z" />
<glyph unicode="&#xb8;" glyph-name="cedilla" horiz-adv-x="207" d="M211 -315L68 -303L8 -244L-4 -166V-147L8 -90L66 -33H137V6H207V-111L96 -121L86 -156L100 -215L211 -225V-315Z" />
<glyph unicode="&#xb9;" glyph-name="uni00B9" horiz-adv-x="1184" d="M438 0Q303 0 204 51T51 190T-4 381V989Q-4 1094 50 1180T204 1318T438 1370H746Q881 1370 980 1319T1134 1181T1188 989V381Q1188 277 1134 190T981 52T746 0H438ZM567 741H674V1282H584L438
1231V1124L567 1169V741Z" />
<glyph unicode="&#xba;" glyph-name="ordmasculine" horiz-adv-x="1184" d="M438 0Q303 0 204 51T51 190T-4 381V989Q-4 1094 50 1180T204 1318T438 1370H746Q881 1370 980 1319T1134 1181T1188 989V381Q1188 277 1134 190T981 52T746 0H438ZM543 596H750L852
608L916 672L930 758V1118L916 1202L852 1266L750 1280H543L440 1266L377 1202L365 1118V758L377 672L442 608L543 596ZM549 702L483 713L469 772V1108L479 1163L549 1174H744L813 1163L823 1104V768L809 713L744 702H549Z" />
<glyph unicode="&#xbb;" glyph-name="guillemotright" horiz-adv-x="1184" d="M438 0Q303 0 204 51T51 190T-4 381V989Q-4 1094 50 1180T204 1318T438 1370H746Q881 1370 980 1319T1134 1181T1188 989V381Q1188 277 1134 190T981 52T746 0H438ZM377 408L662 784V811L377
1188L330 1141L588 797L330 453L377 408ZM623 408L887 784V811L623 1188L576 1141L813 797L576 453L623 408Z" />
<glyph unicode="&#xbc;" glyph-name="onequarter" horiz-adv-x="1184" d="M438 0Q303 0 204 51T51 190T-4 381V989Q-4 1094 50 1180T204 1318T438 1370H746Q881 1370 980 1319T1134 1181T1188 989V381Q1188 277 1134 190T981 52T746 0H438ZM283 741H389V1282H299L154
1231V1124L283 1169V741ZM373 453H481L682 1280H574L373 453ZM892 356H998V510H1122V617H998V930H892V615H826L756 625L746 684V930H640V670L654 586L717 522L820 510H892V356Z" />
<glyph unicode="&#xbd;" glyph-name="onehalf" horiz-adv-x="1184" d="M438 0Q303 0 204 51T51 190T-4 381V989Q-4 1094 50 1180T204 1318T438 1370H746Q881 1370 980 1319T1134 1181T1188 989V381Q1188 277 1134 190T981 52T746 0H438ZM283 741H389V1282H299L154
1231V1124L283 1169V741ZM373 453H481L682 1280H574L373 453ZM711 455H1034V559H752V598L760 653L901 670L1018 702L1063 745L1077 813V842L1063 915L1000 979L897 993H825L723 979L660 915L643 829L750 819L762 877L832 887H891L961 877L971 827L957 786L821 770L705
737L660 692L647 610V518L711 455Z" />
<glyph unicode="&#xbe;" glyph-name="threequarters" horiz-adv-x="1184" d="M438 0Q303 0 204 51T51 190T-4 381V989Q-4 1094 50 1180T204 1318T438 1370H746Q881 1370 980 1319T1134 1181T1188 989V381Q1188 277 1134 190T981 52T746 0H438ZM283 741H389V1282H299L154
1231V1124L283 1169V741ZM373 453H481L682 1280H574L373 453ZM813 451H932L1034 463L1098 526L1112 610V629L1098 709L1073 731L1098 756L1112 829V848L1098 911L1034 975L932 989H813L711 975L647 911L629 844L737 834L750 872L819 883H926L995 872L1006 834L991
782L926 772H795V684H928L995 676L1006 621L991 567L926 557H815L754 567L737 623L629 612L647 526L711 463L813 451Z" />
<glyph unicode="&#xbf;" glyph-name="questiondown" horiz-adv-x="1184" d="M438 0Q303 0 204 51T51 190T-4 381V989Q-4 1094 50 1180T204 1318T438 1370H746Q881 1370 980 1319T1134 1181T1188 989V381Q1188 277 1134 190T981 52T746 0H438ZM615 1182H721V1284H615V1182ZM539
477H744L842 492L899 549L916 642L829 650Q826 634 824 613T818 574L542 563L466 574L455 641V797L466 875H669L711 929V1125H625V960H540L441 946L384 889L369 807V631L384 549L441 492L539 477Z" />
<glyph unicode="&#xc0;" glyph-name="Agrave" horiz-adv-x="1184" d="M438 0Q303 0 204 51T51 190T-4 381V989Q-4 1094 50 1180T204 1318T438 1370H746Q881 1370 980 1319T1134 1181T1188 989V381Q1188 277 1134 190T981 52T746 0H438ZM295 453H414L440 758H809L838
453H952L873 1198L811 1260L678 1280H571L438 1260L377 1198L295 453ZM449 854L479 1159L576 1174H674L768 1159L801 854H449ZM451 1293Q440 1304 430 1319T408 1354L250 1624Q205 1700 207 1757Q207 1823 249 1867T359 1935T502 1958Q587 1958 652 1933T742 1845Q787
1703 809 1625T839 1512T846 1463Q846 1403 809 1358T725 1293H451ZM578 1450H647L547 1784H426L578 1450Z" />
<glyph unicode="&#xc1;" glyph-name="Aacute" horiz-adv-x="1184" d="M438 0Q303 0 204 51T51 190T-4 381V989Q-4 1094 50 1180T204 1318T438 1370H746Q881 1370 980 1319T1134 1181T1188 989V381Q1188 277 1134 190T981 52T746 0H438ZM295 453H414L440 758H809L838
453H952L873 1198L811 1260L678 1280H571L438 1260L377 1198L295 453ZM449 854L479 1159L576 1174H674L768 1159L801 854H449ZM513 1293Q467 1313 430 1358T392 1463Q392 1477 398 1512T427 1625T496 1845Q520 1908 585 1933T736 1958Q811 1958 878 1935T988 1868T1031
1757Q1031 1697 988 1624L830 1354Q818 1334 808 1319T787 1293H513ZM591 1450H660L812 1784H691L591 1450Z" />
<glyph unicode="&#xc2;" glyph-name="Acircumflex" horiz-adv-x="1184" d="M438 0Q303 0 204 51T51 190T-4 381V989Q-4 1094 50 1180T204 1318T438 1370H746Q881 1370 980 1319T1134 1181T1188 989V381Q1188 277 1134 190T981 52T746 0H438ZM295 453H414L440 758H809L838
453H952L873 1198L811 1260L678 1280H571L438 1260L377 1198L295 453ZM449 854L479 1159L576 1174H674L768 1159L801 854H449ZM314 1293Q283 1319 268 1357T253 1438Q253 1487 278 1561T340 1719T413 1881Q442 1932 492 1957T626 1983Q710 1983 759 1954T845 1850Q886
1765 917 1688Q943 1621 966 1555T990 1449Q990 1347 921 1293H314ZM446 1449H527L622 1741L716 1449H798L667 1787H577L446 1449Z" />
<glyph unicode="&#xc3;" glyph-name="Atilde" horiz-adv-x="1184" d="M438 0Q303 0 204 51T51 190T-4 381V989Q-4 1094 50 1180T204 1318T438 1370H746Q881 1370 980 1319T1134 1181T1188 989V381Q1188 277 1134 190T981 52T746 0H438ZM295 453H414L440 758H809L838
453H952L873 1198L811 1260L678 1280H571L438 1260L377 1198L295 453ZM449 854L479 1159L576 1174H674L768 1159L801 854H449ZM336 1313Q203 1422 203 1592Q203 1696 257 1782T411 1920T645 1972Q781 1972 880 1921T1033 1783T1088 1592Q1088 1425 957 1313H336ZM768
1432Q806 1432 824 1454T847 1508T852 1563V1596H762Q748 1551 738 1536T713 1520Q697 1520 672 1536T605 1569T492 1585Q453 1585 435 1559T413 1500T408 1448V1436H498Q506 1474 516 1488T541 1503Q561 1503 590 1485T662 1450T768 1432Z" />
<glyph unicode="&#xc4;" glyph-name="Adieresis" horiz-adv-x="1184" d="M438 0Q303 0 204 51T51 190T-4 381V989Q-4 1094 50 1180T204 1318T438 1370H746Q881 1370 980 1319T1134 1181T1188 989V381Q1188 277 1134 190T981 52T746 0H438ZM295 453H414L440 758H809L838
453H952L873 1198L811 1260L678 1280H571L438 1260L377 1198L295 453ZM449 854L479 1159L576 1174H674L768 1159L801 854H449ZM353 1313Q287 1356 254 1420T220 1563Q220 1643 269 1711T408 1820T621 1862Q744 1862 834 1821T974 1711T1023 1563Q1023 1400 888
1313H353ZM417 1479H548V1608H417V1479ZM679 1479H810V1608H679V1479Z" />
<glyph unicode="&#xc5;" glyph-name="Aring" horiz-adv-x="1184" d="M438 0Q303 0 204 51T51 190T-4 381V989Q-4 1094 50 1180T204 1318T438 1370H746Q881 1370 980 1319T1134 1181T1188 989V381Q1188 277 1134 190T981 52T746 0H438ZM295 453H414L440 758H809L838
453H952L873 1198L811 1260L678 1280H571L438 1260L377 1198L295 453ZM449 854L479 1159L576 1174H674L768 1159L801 854H449ZM323 1313Q278 1364 257 1430T235 1569Q235 1674 281 1760T413 1898T616 1950Q732 1950 817 1899T950 1761T997 1569Q997 1420 909 1313H323ZM581
1448H649L720 1460L778 1516L786 1602L778 1700L720 1753L649 1768H581L507 1753L454 1700L442 1612L454 1514L507 1460L581 1448ZM585 1528L530 1538L520 1608L530 1678L589 1688H643L698 1673L708 1608L698 1542L638 1528H585Z" />
<glyph unicode="&#xc6;" glyph-name="AE" horiz-adv-x="1184" d="M438 0Q303 0 204 51T51 190T-4 381V989Q-4 1094 50 1180T204 1318T438 1370H746Q881 1370 980 1319T1134 1181T1188 989V381Q1188 277 1134 190T981 52T746 0H438ZM248 459H354L371 590H576V459H944V563H682V819H944V924H682V1176H944V1282H524L391
1262L330 1200L248 459ZM383 696L432 1161Q460 1164 480 1168T528 1176H576V696H383Z" />
<glyph unicode="&#xc7;" glyph-name="Ccedilla" horiz-adv-x="1184" d="M438 0Q303 0 204 51T51 190T-4 381V989Q-4 1094 50 1180T204 1318T438 1370H746Q881 1370 980 1319T1134 1181T1188 989V381Q1188 277 1134 190T981 52T746 0H438ZM665 132V222L554 232L540
291L550 326L661 336V453H733L850 467L825 575L731 559H498L432 569L418 629V1110L428 1165L498 1176H727L830 1159L850 1266L733 1280H492L389 1268L326 1204L311 1120V612L326 528L391 465L492 453H591V414H520L462 357L450 300V281L462 203L522 144L665 132Z"
/>
<glyph unicode="&#xc8;" glyph-name="Egrave" horiz-adv-x="1184" d="M438 0Q303 0 204 51T51 190T-4 381V989Q-4 1094 50 1180T204 1318T438 1370H746Q881 1370 980 1319T1134 1181T1188 989V381Q1188 277 1134 190T981 52T746 0H438ZM402 453H905V559H506V813H840V918H506V1174H891V1280H402V453ZM451
1293Q440 1304 430 1319T408 1354L250 1624Q205 1700 207 1757Q207 1823 249 1867T359 1935T502 1958Q587 1958 652 1933T742 1845Q787 1703 809 1625T839 1512T846 1463Q846 1403 809 1358T725 1293H451ZM578 1450H647L547 1784H426L578 1450Z" />
<glyph unicode="&#xc9;" glyph-name="Eacute" horiz-adv-x="1184" d="M438 0Q303 0 204 51T51 190T-4 381V989Q-4 1094 50 1180T204 1318T438 1370H746Q881 1370 980 1319T1134 1181T1188 989V381Q1188 277 1134 190T981 52T746 0H438ZM402 453H905V559H506V813H840V918H506V1174H891V1280H402V453ZM513
1293Q467 1313 430 1358T392 1463Q392 1477 398 1512T427 1625T496 1845Q520 1908 585 1933T736 1958Q811 1958 878 1935T988 1868T1031 1757Q1031 1697 988 1624L830 1354Q818 1334 808 1319T787 1293H513ZM591 1450H660L812 1784H691L591 1450Z" />
<glyph unicode="&#xca;" glyph-name="Ecircumflex" horiz-adv-x="1184" d="M438 0Q303 0 204 51T51 190T-4 381V989Q-4 1094 50 1180T204 1318T438 1370H746Q881 1370 980 1319T1134 1181T1188 989V381Q1188 277 1134 190T981 52T746 0H438ZM402 453H905V559H506V813H840V918H506V1174H891V1280H402V453ZM314
1293Q283 1319 268 1357T253 1438Q253 1487 278 1561T340 1719T413 1881Q442 1932 492 1957T626 1983Q710 1983 759 1954T845 1850Q886 1765 917 1688Q943 1621 966 1555T990 1449Q990 1347 921 1293H314ZM446 1449H527L622 1741L716 1449H798L667 1787H577L446
1449Z" />
<glyph unicode="&#xcb;" glyph-name="Edieresis" horiz-adv-x="1184" d="M438 0Q303 0 204 51T51 190T-4 381V989Q-4 1094 50 1180T204 1318T438 1370H746Q881 1370 980 1319T1134 1181T1188 989V381Q1188 277 1134 190T981 52T746 0H438ZM402 453H905V559H506V813H840V918H506V1174H891V1280H402V453ZM353
1313Q287 1356 254 1420T220 1563Q220 1643 269 1711T408 1820T621 1862Q744 1862 834 1821T974 1711T1023 1563Q1023 1400 888 1313H353ZM417 1479H548V1608H417V1479ZM679 1479H810V1608H679V1479Z" />
<glyph unicode="&#xcc;" glyph-name="Igrave" horiz-adv-x="1184" d="M438 0Q303 0 204 51T51 190T-4 381V989Q-4 1094 50 1180T204 1318T438 1370H746Q881 1370 980 1319T1134 1181T1188 989V381Q1188 277 1134 190T981 52T746 0H438ZM358 453H936V559H701V1174H936V1280H358V1174H594V559H358V453ZM451
1293Q440 1304 430 1319T408 1354L250 1624Q205 1700 207 1757Q207 1823 249 1867T359 1935T502 1958Q587 1958 652 1933T742 1845Q787 1703 809 1625T839 1512T846 1463Q846 1403 809 1358T725 1293H451ZM578 1450H647L547 1784H426L578 1450Z" />
<glyph unicode="&#xcd;" glyph-name="Iacute" horiz-adv-x="1184" d="M438 0Q303 0 204 51T51 190T-4 381V989Q-4 1094 50 1180T204 1318T438 1370H746Q881 1370 980 1319T1134 1181T1188 989V381Q1188 277 1134 190T981 52T746 0H438ZM358 453H936V559H701V1174H936V1280H358V1174H594V559H358V453ZM513
1293Q467 1313 430 1358T392 1463Q392 1477 398 1512T427 1625T496 1845Q520 1908 585 1933T736 1958Q811 1958 878 1935T988 1868T1031 1757Q1031 1697 988 1624L830 1354Q818 1334 808 1319T787 1293H513ZM591 1450H660L812 1784H691L591 1450Z" />
<glyph unicode="&#xce;" glyph-name="Icircumflex" horiz-adv-x="1184" d="M438 0Q303 0 204 51T51 190T-4 381V989Q-4 1094 50 1180T204 1318T438 1370H746Q881 1370 980 1319T1134 1181T1188 989V381Q1188 277 1134 190T981 52T746 0H438ZM358 453H936V559H701V1174H936V1280H358V1174H594V559H358V453ZM314
1293Q283 1319 268 1357T253 1438Q253 1487 278 1561T340 1719T413 1881Q442 1932 492 1957T626 1983Q710 1983 759 1954T845 1850Q886 1765 917 1688Q943 1621 966 1555T990 1449Q990 1347 921 1293H314ZM446 1449H527L622 1741L716 1449H798L667 1787H577L446
1449Z" />
<glyph unicode="&#xcf;" glyph-name="Idieresis" horiz-adv-x="1184" d="M438 0Q303 0 204 51T51 190T-4 381V989Q-4 1094 50 1180T204 1318T438 1370H746Q881 1370 980 1319T1134 1181T1188 989V381Q1188 277 1134 190T981 52T746 0H438ZM358 453H936V559H701V1174H936V1280H358V1174H594V559H358V453ZM353
1313Q287 1356 254 1420T220 1563Q220 1643 269 1711T408 1820T621 1862Q744 1862 834 1821T974 1711T1023 1563Q1023 1400 888 1313H353ZM417 1479H548V1608H417V1479ZM679 1479H810V1608H679V1479Z" />
<glyph unicode="&#xd0;" glyph-name="Eth" horiz-adv-x="1184" d="M438 0Q303 0 204 51T51 190T-4 381V989Q-4 1094 50 1180T204 1318T438 1370H746Q881 1370 980 1319T1134 1181T1188 989V381Q1188 277 1134 190T981 52T746 0H438ZM328 453H774L877 465L940 528L954
614V1118L940 1202L877 1266L774 1280H328V907H256V842H328V453ZM432 559V842H516V907H432V1174H768L838 1163L848 1104V625L834 569L768 559H432Z" />
<glyph unicode="&#xd1;" glyph-name="Ntilde" horiz-adv-x="1184" d="M438 0Q303 0 204 51T51 190T-4 381V989Q-4 1094 50 1180T204 1318T438 1370H746Q881 1370 980 1319T1134 1181T1188 989V381Q1188 277 1134 190T981 52T746 0H438ZM322 453H428V1163L506 1176H746L815
1165L825 1106V453H932V1120L918 1204L854 1268L752 1280H502L322 1255V453ZM336 1313Q203 1422 203 1592Q203 1696 257 1782T411 1920T645 1972Q781 1972 880 1921T1033 1783T1088 1592Q1088 1425 957 1313H336ZM768 1432Q806 1432 824 1454T847 1508T852 1563V1596H762Q748
1551 738 1536T713 1520Q697 1520 672 1536T605 1569T492 1585Q453 1585 435 1559T413 1500T408 1448V1436H498Q506 1474 516 1488T541 1503Q561 1503 590 1485T662 1450T768 1432Z" />
<glyph unicode="&#xd2;" glyph-name="Ograve" horiz-adv-x="1184" d="M438 0Q303 0 204 51T51 190T-4 381V989Q-4 1094 50 1180T204 1318T438 1370H746Q881 1370 980 1319T1134 1181T1188 989V381Q1188 277 1134 190T981 52T746 0H438ZM504 453H772L875 465L938
528L952 614V1118L938 1202L875 1266L772 1280H504L402 1266L338 1202L326 1118V614L338 528L404 465L504 453ZM510 559L445 569L430 629V1108L440 1163L510 1174H766L836 1163L846 1104V625L832 569L766 559H510ZM451 1293Q440 1304 430 1319T408 1354L250 1624Q205
1700 207 1757Q207 1823 249 1867T359 1935T502 1958Q587 1958 652 1933T742 1845Q787 1703 809 1625T839 1512T846 1463Q846 1403 809 1358T725 1293H451ZM578 1450H647L547 1784H426L578 1450Z" />
<glyph unicode="&#xd3;" glyph-name="Oacute" horiz-adv-x="1184" d="M438 0Q303 0 204 51T51 190T-4 381V989Q-4 1094 50 1180T204 1318T438 1370H746Q881 1370 980 1319T1134 1181T1188 989V381Q1188 277 1134 190T981 52T746 0H438ZM504 453H772L875 465L938
528L952 614V1118L938 1202L875 1266L772 1280H504L402 1266L338 1202L326 1118V614L338 528L404 465L504 453ZM510 559L445 569L430 629V1108L440 1163L510 1174H766L836 1163L846 1104V625L832 569L766 559H510ZM513 1293Q467 1313 430 1358T392 1463Q392 1477
398 1512T427 1625T496 1845Q520 1908 585 1933T736 1958Q811 1958 878 1935T988 1868T1031 1757Q1031 1697 988 1624L830 1354Q818 1334 808 1319T787 1293H513ZM591 1450H660L812 1784H691L591 1450Z" />
<glyph unicode="&#xd4;" glyph-name="Ocircumflex" horiz-adv-x="1184" d="M438 0Q303 0 204 51T51 190T-4 381V989Q-4 1094 50 1180T204 1318T438 1370H746Q881 1370 980 1319T1134 1181T1188 989V381Q1188 277 1134 190T981 52T746 0H438ZM504 453H772L875 465L938
528L952 614V1118L938 1202L875 1266L772 1280H504L402 1266L338 1202L326 1118V614L338 528L404 465L504 453ZM510 559L445 569L430 629V1108L440 1163L510 1174H766L836 1163L846 1104V625L832 569L766 559H510ZM314 1293Q283 1319 268 1357T253 1438Q253 1487
278 1561T340 1719T413 1881Q442 1932 492 1957T626 1983Q710 1983 759 1954T845 1850Q886 1765 917 1688Q943 1621 966 1555T990 1449Q990 1347 921 1293H314ZM446 1449H527L622 1741L716 1449H798L667 1787H577L446 1449Z" />
<glyph unicode="&#xd5;" glyph-name="Otilde" horiz-adv-x="1184" d="M438 0Q303 0 204 51T51 190T-4 381V989Q-4 1094 50 1180T204 1318T438 1370H746Q881 1370 980 1319T1134 1181T1188 989V381Q1188 277 1134 190T981 52T746 0H438ZM504 453H772L875 465L938
528L952 614V1118L938 1202L875 1266L772 1280H504L402 1266L338 1202L326 1118V614L338 528L404 465L504 453ZM510 559L445 569L430 629V1108L440 1163L510 1174H766L836 1163L846 1104V625L832 569L766 559H510ZM336 1313Q203 1422 203 1592Q203 1696 257 1782T411
1920T645 1972Q781 1972 880 1921T1033 1783T1088 1592Q1088 1425 957 1313H336ZM768 1432Q806 1432 824 1454T847 1508T852 1563V1596H762Q748 1551 738 1536T713 1520Q697 1520 672 1536T605 1569T492 1585Q453 1585 435 1559T413 1500T408 1448V1436H498Q506
1474 516 1488T541 1503Q561 1503 590 1485T662 1450T768 1432Z" />
<glyph unicode="&#xd6;" glyph-name="Odieresis" horiz-adv-x="1184" d="M438 0Q303 0 204 51T51 190T-4 381V989Q-4 1094 50 1180T204 1318T438 1370H746Q881 1370 980 1319T1134 1181T1188 989V381Q1188 277 1134 190T981 52T746 0H438ZM504 453H772L875 465L938
528L952 614V1118L938 1202L875 1266L772 1280H504L402 1266L338 1202L326 1118V614L338 528L404 465L504 453ZM510 559L445 569L430 629V1108L440 1163L510 1174H766L836 1163L846 1104V625L832 569L766 559H510ZM353 1313Q287 1356 254 1420T220 1563Q220 1643
269 1711T408 1820T621 1862Q744 1862 834 1821T974 1711T1023 1563Q1023 1400 888 1313H353ZM417 1479H548V1608H417V1479ZM679 1479H810V1608H679V1479Z" />
<glyph unicode="&#xd7;" glyph-name="multiply" horiz-adv-x="877" d="M438 0Q303 0 204 51T51 190T-4 381V989Q-4 1094 50 1180T204 1318T438 1370Q574 1370 673 1319T826 1181T881 989V381Q881 277 827 190T673 52T438 0ZM577 740L636 801L497 941L636 1080L577
1139L438 1000L301 1137L242 1076L379 939L242 801L299 742L438 880L577 740Z" />
<glyph unicode="&#xd8;" glyph-name="Oslash" horiz-adv-x="1184" d="M438 0Q303 0 204 51T51 190T-4 381V989Q-4 1094 50 1180T204 1318T438 1370H746Q881 1370 980 1319T1134 1181T1188 989V381Q1188 277 1134 190T981 52T746 0H438ZM493 458H761L864 470L927
534L941 620V1120L927 1203L864 1267L761 1281H493L390 1267L327 1203L313 1120V620L327 534L392 470L493 458ZM419 640V1109L429 1165L499 1175H757Q760 1175 765 1174T773 1173L419 640ZM495 565Q492 565 490 566T485 567L835 1109V630L821 575L755 565H495Z"
/>
<glyph unicode="&#xd9;" glyph-name="Ugrave" horiz-adv-x="1184" d="M438 0Q303 0 204 51T51 190T-4 381V989Q-4 1094 50 1180T204 1318T438 1370H746Q881 1370 980 1319T1134 1181T1188 989V381Q1188 277 1134 190T981 52T746 0H438ZM498 453H766L868 465L932
528L946 614V1280H840V625L825 569L760 559H504L438 569L424 629V1280H320V614L332 528L397 465L498 453ZM451 1293Q440 1304 430 1319T408 1354L250 1624Q205 1700 207 1757Q207 1823 249 1867T359 1935T502 1958Q587 1958 652 1933T742 1845Q787 1703 809 1625T839
1512T846 1463Q846 1403 809 1358T725 1293H451ZM578 1450H647L547 1784H426L578 1450Z" />
<glyph unicode="&#xda;" glyph-name="Uacute" horiz-adv-x="1184" d="M438 0Q303 0 204 51T51 190T-4 381V989Q-4 1094 50 1180T204 1318T438 1370H746Q881 1370 980 1319T1134 1181T1188 989V381Q1188 277 1134 190T981 52T746 0H438ZM498 453H766L868 465L932
528L946 614V1280H840V625L825 569L760 559H504L438 569L424 629V1280H320V614L332 528L397 465L498 453ZM513 1293Q467 1313 430 1358T392 1463Q392 1477 398 1512T427 1625T496 1845Q520 1908 585 1933T736 1958Q811 1958 878 1935T988 1868T1031 1757Q1031 1697
988 1624L830 1354Q818 1334 808 1319T787 1293H513ZM591 1450H660L812 1784H691L591 1450Z" />
<glyph unicode="&#xdb;" glyph-name="Ucircumflex" horiz-adv-x="1184" d="M438 0Q303 0 204 51T51 190T-4 381V989Q-4 1094 50 1180T204 1318T438 1370H746Q881 1370 980 1319T1134 1181T1188 989V381Q1188 277 1134 190T981 52T746 0H438ZM498 453H766L868 465L932
528L946 614V1280H840V625L825 569L760 559H504L438 569L424 629V1280H320V614L332 528L397 465L498 453ZM314 1293Q283 1319 268 1357T253 1438Q253 1487 278 1561T340 1719T413 1881Q442 1932 492 1957T626 1983Q710 1983 759 1954T845 1850Q886 1765 917 1688Q943
1621 966 1555T990 1449Q990 1347 921 1293H314ZM446 1449H527L622 1741L716 1449H798L667 1787H577L446 1449Z" />
<glyph unicode="&#xdc;" glyph-name="Udieresis" horiz-adv-x="1184" d="M438 0Q303 0 204 51T51 190T-4 381V989Q-4 1094 50 1180T204 1318T438 1370H746Q881 1370 980 1319T1134 1181T1188 989V381Q1188 277 1134 190T981 52T746 0H438ZM498 453H766L868 465L932
528L946 614V1280H840V625L825 569L760 559H504L438 569L424 629V1280H320V614L332 528L397 465L498 453ZM353 1313Q287 1356 254 1420T220 1563Q220 1643 269 1711T408 1820T621 1862Q744 1862 834 1821T974 1711T1023 1563Q1023 1400 888 1313H353ZM417 1479H548V1608H417V1479ZM679
1479H810V1608H679V1479Z" />
<glyph unicode="&#xdd;" glyph-name="Yacute" horiz-adv-x="1184" d="M438 0Q303 0 204 51T51 190T-4 381V989Q-4 1094 50 1180T204 1318T438 1370H746Q881 1370 980 1319T1134 1181T1188 989V381Q1188 277 1134 190T981 52T746 0H438ZM584 453H690V684L944 1280H819L637
831L459 1280H334L584 686V453ZM513 1293Q467 1313 430 1358T392 1463Q392 1477 398 1512T427 1625T496 1845Q520 1908 585 1933T736 1958Q811 1958 878 1935T988 1868T1031 1757Q1031 1697 988 1624L830 1354Q818 1334 808 1319T787 1293H513ZM591 1450H660L812
1784H691L591 1450Z" />
<glyph unicode="&#xde;" glyph-name="Thorn" horiz-adv-x="1184" d="M438 0Q303 0 204 51T51 190T-4 381V989Q-4 1094 50 1180T204 1318T438 1370H746Q881 1370 980 1319T1134 1181T1188 989V381Q1188 277 1134 190T981 52T746 0H438ZM377 453H481V684H750L852
696L916 760L930 846V973L916 1057L852 1120L750 1135H481V1311H377V453ZM481 791V1028H744L813 1018L823 958V856L809 801L744 791H481Z" />
<glyph unicode="&#xdf;" glyph-name="germandbls" horiz-adv-x="1184" d="M438 0Q303 0 204 51T51 190T-4 381V989Q-4 1094 50 1180T204 1318T438 1370H746Q881 1370 980 1319T1134 1181T1188 989V381Q1188 277 1134 190T981 52T746 0H438ZM320 453H426V1108L440
1161L500 1174H717L778 1163L793 1110V1014L778 961L713 948H676V842H760L825 827L840 772V625L825 569L762 559H551V453H768L868 465L934 528L946 614V766L911 866Q901 868 868 884T823 905L852 934L899 1022V1120L885 1204L819 1268L719 1280H498L397 1266L334
1202L320 1118V453Z" />
<glyph unicode="&#xe0;" glyph-name="agrave" horiz-adv-x="1184" d="M438 0Q303 0 204 51T51 190T-4 381V989Q-4 1094 50 1180T204 1318T438 1370H746Q881 1370 980 1319T1134 1181T1188 989V381Q1188 277 1134 190T981 52T746 0H438ZM473 453H692L770 465L869
454V1204L801 1268L701 1280H473L356 1266L381 1157L475 1176H698L758 1163L772 1110V877L701 889H473L373 874L309 811L295 729V612L309 528L373 465L473 453ZM479 559L416 569L402 629V715L410 772L479 782H696L772 774V569L694 559H479ZM451 1293Q440 1304 430
1319T408 1354L250 1624Q205 1700 207 1757Q207 1823 249 1867T359 1935T502 1958Q587 1958 652 1933T742 1845Q787 1703 809 1625T839 1512T846 1463Q846 1403 809 1358T725 1293H451ZM578 1450H647L547 1784H426L578 1450Z" />
<glyph unicode="&#xe1;" glyph-name="aacute" horiz-adv-x="1184" d="M438 0Q303 0 204 51T51 190T-4 381V989Q-4 1094 50 1180T204 1318T438 1370H746Q881 1370 980 1319T1134 1181T1188 989V381Q1188 277 1134 190T981 52T746 0H438ZM473 453H692L770 465L869
454V1204L801 1268L701 1280H473L356 1266L381 1157L475 1176H698L758 1163L772 1110V877L701 889H473L373 874L309 811L295 729V612L309 528L373 465L473 453ZM479 559L416 569L402 629V715L410 772L479 782H696L772 774V569L694 559H479ZM513 1293Q467 1313 430
1358T392 1463Q392 1477 398 1512T427 1625T496 1845Q520 1908 585 1933T736 1958Q811 1958 878 1935T988 1868T1031 1757Q1031 1697 988 1624L830 1354Q818 1334 808 1319T787 1293H513ZM591 1450H660L812 1784H691L591 1450Z" />
<glyph unicode="&#xe2;" glyph-name="acircumflex" horiz-adv-x="1184" d="M438 0Q303 0 204 51T51 190T-4 381V989Q-4 1094 50 1180T204 1318T438 1370H746Q881 1370 980 1319T1134 1181T1188 989V381Q1188 277 1134 190T981 52T746 0H438ZM473 453H692L770 465L869
454V1204L801 1268L701 1280H473L356 1266L381 1157L475 1176H698L758 1163L772 1110V877L701 889H473L373 874L309 811L295 729V612L309 528L373 465L473 453ZM479 559L416 569L402 629V715L410 772L479 782H696L772 774V569L694 559H479ZM314 1293Q283 1319 268
1357T253 1438Q253 1487 278 1561T340 1719T413 1881Q442 1932 492 1957T626 1983Q710 1983 759 1954T845 1850Q886 1765 917 1688Q943 1621 966 1555T990 1449Q990 1347 921 1293H314ZM446 1449H527L622 1741L716 1449H798L667 1787H577L446 1449Z" />
<glyph unicode="&#xe3;" glyph-name="atilde" horiz-adv-x="1184" d="M438 0Q303 0 204 51T51 190T-4 381V989Q-4 1094 50 1180T204 1318T438 1370H746Q881 1370 980 1319T1134 1181T1188 989V381Q1188 277 1134 190T981 52T746 0H438ZM473 453H692L770 465L869
454V1204L801 1268L701 1280H473L356 1266L381 1157L475 1176H698L758 1163L772 1110V877L701 889H473L373 874L309 811L295 729V612L309 528L373 465L473 453ZM479 559L416 569L402 629V715L410 772L479 782H696L772 774V569L694 559H479ZM336 1313Q203 1422 203
1592Q203 1696 257 1782T411 1920T645 1972Q781 1972 880 1921T1033 1783T1088 1592Q1088 1425 957 1313H336ZM768 1432Q806 1432 824 1454T847 1508T852 1563V1596H762Q748 1551 738 1536T713 1520Q697 1520 672 1536T605 1569T492 1585Q453 1585 435 1559T413
1500T408 1448V1436H498Q506 1474 516 1488T541 1503Q561 1503 590 1485T662 1450T768 1432Z" />
<glyph unicode="&#xe4;" glyph-name="adieresis" horiz-adv-x="1184" d="M438 0Q303 0 204 51T51 190T-4 381V989Q-4 1094 50 1180T204 1318T438 1370H746Q881 1370 980 1319T1134 1181T1188 989V381Q1188 277 1134 190T981 52T746 0H438ZM473 453H692L770 465L869
454V1204L801 1268L701 1280H473L356 1266L381 1157L475 1176H698L758 1163L772 1110V877L701 889H473L373 874L309 811L295 729V612L309 528L373 465L473 453ZM479 559L416 569L402 629V715L410 772L479 782H696L772 774V569L694 559H479ZM353 1313Q287 1356 254
1420T220 1563Q220 1643 269 1711T408 1820T621 1862Q744 1862 834 1821T974 1711T1023 1563Q1023 1400 888 1313H353ZM417 1479H548V1608H417V1479ZM679 1479H810V1608H679V1479Z" />
<glyph unicode="&#xe5;" glyph-name="aring" horiz-adv-x="1184" d="M438 0Q303 0 204 51T51 190T-4 381V989Q-4 1094 50 1180T204 1318T438 1370H746Q881 1370 980 1319T1134 1181T1188 989V381Q1188 277 1134 190T981 52T746 0H438ZM473 453H692L770 465L869
454V1204L801 1268L701 1280H473L356 1266L381 1157L475 1176H698L758 1163L772 1110V877L701 889H473L373 874L309 811L295 729V612L309 528L373 465L473 453ZM479 559L416 569L402 629V715L410 772L479 782H696L772 774V569L694 559H479ZM323 1313Q278 1364 257
1430T235 1569Q235 1674 281 1760T413 1898T616 1950Q732 1950 817 1899T950 1761T997 1569Q997 1420 909 1313H323ZM581 1448H649L720 1460L778 1516L786 1602L778 1700L720 1753L649 1768H581L507 1753L454 1700L442 1612L454 1514L507 1460L581 1448ZM585 1528L530
1538L520 1608L530 1678L589 1688H643L698 1673L708 1608L698 1542L638 1528H585Z" />
<glyph unicode="&#xe6;" glyph-name="ae" horiz-adv-x="1184" d="M438 0Q303 0 204 51T51 190T-4 381V989Q-4 1094 50 1180T204 1318T438 1370H746Q881 1370 980 1319T1134 1181T1188 989V381Q1188 277 1134 190T981 52T746 0H438ZM248 459H354L371 590H576V459H944V563H682V819H944V924H682V1176H944V1282H524L391
1262L330 1200L248 459ZM383 696L432 1161Q460 1164 480 1168T528 1176H576V696H383Z" />
<glyph unicode="&#xe7;" glyph-name="ccedilla" horiz-adv-x="1184" d="M746 1370Q881 1370 980 1319T1134 1181T1188 989V381Q1188 277 1134 190T981 52T746 0H438Q303 0 204 51T51 190T-4 381V989Q-4 1094 50 1180T204 1318T438 1370H746ZM733 1280H549L389
1268L326 1204L311 1120V612L326 528L391 465L492 453H586V418H515L457 357L445 300V281L457 203L517 144L660 132V222L549 232L535 291L545 326L656 336V453H733L850 467L825 575L731 559H498L432 569L418 629V1110L428 1165L498 1176H727L830 1159L850 1266L733
1280Z" />
<glyph unicode="&#xe8;" glyph-name="egrave" horiz-adv-x="1184" d="M438 0Q303 0 204 51T51 190T-4 381V989Q-4 1094 50 1180T204 1318T438 1370H746Q881 1370 980 1319T1134 1181T1188 989V381Q1188 277 1134 190T981 52T746 0H438ZM481 485H733L850 500L825
608L731 592H488L424 602L410 662V868H877V1120L862 1204L799 1268L698 1280H481L381 1268L318 1204L303 1120V645L318 561L381 498L481 485ZM410 973V1108L418 1165L488 1176H692L760 1165L770 1106V973H410ZM421 1293Q410 1304 400 1319T378 1354L220 1624Q175
1700 177 1757Q177 1823 219 1867T329 1935T472 1958Q557 1958 622 1933T712 1845Q757 1703 779 1625T809 1512T816 1463Q816 1403 779 1358T695 1293H421ZM548 1450H617L517 1784H396L548 1450Z" />
<glyph unicode="&#xe9;" glyph-name="eacute" horiz-adv-x="1184" d="M438 0Q303 0 204 51T51 190T-4 381V989Q-4 1094 50 1180T204 1318T438 1370H746Q881 1370 980 1319T1134 1181T1188 989V381Q1188 277 1134 190T981 52T746 0H438ZM481 485H733L850 500L825
608L731 592H488L424 602L410 662V868H877V1120L862 1204L799 1268L698 1280H481L381 1268L318 1204L303 1120V645L318 561L381 498L481 485ZM410 973V1108L418 1165L488 1176H692L760 1165L770 1106V973H410ZM483 1293Q437 1313 400 1358T362 1463Q362 1477 368
1512T397 1625T466 1845Q490 1908 555 1933T706 1958Q781 1958 848 1935T958 1868T1001 1757Q1001 1697 958 1624L800 1354Q788 1334 778 1319T757 1293H483ZM561 1450H630L782 1784H661L561 1450Z" />
<glyph unicode="&#xea;" glyph-name="ecircumflex" horiz-adv-x="1184" d="M438 0Q303 0 204 51T51 190T-4 381V989Q-4 1094 50 1180T204 1318T438 1370H746Q881 1370 980 1319T1134 1181T1188 989V381Q1188 277 1134 190T981 52T746 0H438ZM481 485H733L850 500L825
608L731 592H488L424 602L410 662V868H877V1120L862 1204L799 1268L698 1280H481L381 1268L318 1204L303 1120V645L318 561L381 498L481 485ZM410 973V1108L418 1165L488 1176H692L760 1165L770 1106V973H410ZM284 1293Q253 1319 238 1357T223 1438Q223 1487 248
1561T310 1719T383 1881Q412 1932 462 1957T596 1983Q680 1983 729 1954T815 1850Q856 1765 887 1688Q913 1621 936 1555T960 1449Q960 1347 891 1293H284ZM416 1449H497L592 1741L686 1449H768L637 1787H547L416 1449Z" />
<glyph unicode="&#xeb;" glyph-name="edieresis" horiz-adv-x="1184" d="M438 0Q303 0 204 51T51 190T-4 381V989Q-4 1094 50 1180T204 1318T438 1370H746Q881 1370 980 1319T1134 1181T1188 989V381Q1188 277 1134 190T981 52T746 0H438ZM481 485H733L850 500L825
608L731 592H488L424 602L410 662V868H877V1120L862 1204L799 1268L698 1280H481L381 1268L318 1204L303 1120V645L318 561L381 498L481 485ZM410 973V1108L418 1165L488 1176H692L760 1165L770 1106V973H410ZM323 1313Q257 1356 224 1420T190 1563Q190 1643 239
1711T378 1820T591 1862Q714 1862 804 1821T944 1711T993 1563Q993 1400 858 1313H323ZM387 1479H518V1608H387V1479ZM649 1479H780V1608H649V1479Z" />
<glyph unicode="&#xec;" glyph-name="igrave" horiz-adv-x="1184" d="M438 0Q303 0 204 51T51 190T-4 381V989Q-4 1094 50 1180T204 1318T438 1370H746Q881 1370 980 1319T1134 1181T1188 989V381Q1188 277 1134 190T981 52T746 0H438ZM358 453H936V559H701V1174H936V1280H358V1174H594V559H358V453ZM451
1293Q440 1304 430 1319T408 1354L250 1624Q205 1700 207 1757Q207 1823 249 1867T359 1935T502 1958Q587 1958 652 1933T742 1845Q787 1703 809 1625T839 1512T846 1463Q846 1403 809 1358T725 1293H451ZM578 1450H647L547 1784H426L578 1450Z" />
<glyph unicode="&#xed;" glyph-name="iacute" horiz-adv-x="1184" d="M438 0Q303 0 204 51T51 190T-4 381V989Q-4 1094 50 1180T204 1318T438 1370H746Q881 1370 980 1319T1134 1181T1188 989V381Q1188 277 1134 190T981 52T746 0H438ZM358 453H936V559H701V1174H936V1280H358V1174H594V559H358V453ZM513
1293Q467 1313 430 1358T392 1463Q392 1477 398 1512T427 1625T496 1845Q520 1908 585 1933T736 1958Q811 1958 878 1935T988 1868T1031 1757Q1031 1697 988 1624L830 1354Q818 1334 808 1319T787 1293H513ZM591 1450H660L812 1784H691L591 1450Z" />
<glyph unicode="&#xee;" glyph-name="icircumflex" horiz-adv-x="1184" d="M438 0Q303 0 204 51T51 190T-4 381V989Q-4 1094 50 1180T204 1318T438 1370H746Q881 1370 980 1319T1134 1181T1188 989V381Q1188 277 1134 190T981 52T746 0H438ZM358 453H936V559H701V1174H936V1280H358V1174H594V559H358V453ZM314
1293Q283 1319 268 1357T253 1438Q253 1487 278 1561T340 1719T413 1881Q442 1932 492 1957T626 1983Q710 1983 759 1954T845 1850Q886 1765 917 1688Q943 1621 966 1555T990 1449Q990 1347 921 1293H314ZM446 1449H527L622 1741L716 1449H798L667 1787H577L446
1449Z" />
<glyph unicode="&#xef;" glyph-name="idieresis" horiz-adv-x="1184" d="M438 0Q303 0 204 51T51 190T-4 381V989Q-4 1094 50 1180T204 1318T438 1370H746Q881 1370 980 1319T1134 1181T1188 989V381Q1188 277 1134 190T981 52T746 0H438ZM358 453H936V559H701V1174H936V1280H358V1174H594V559H358V453ZM353
1313Q287 1356 254 1420T220 1563Q220 1643 269 1711T408 1820T621 1862Q744 1862 834 1821T974 1711T1023 1563Q1023 1400 888 1313H353ZM417 1479H548V1608H417V1479ZM679 1479H810V1608H679V1479Z" />
<glyph unicode="&#xf0;" glyph-name="eth" horiz-adv-x="1184" d="M438 0Q303 0 204 51T51 190T-4 381V989Q-4 1094 50 1180T204 1318T438 1370H746Q881 1370 980 1319T1134 1181T1188 989V381Q1188 277 1134 190T981 52T746 0H438ZM328 453H774L877 465L940 528L954
614V1118L940 1202L877 1266L774 1280H328V907H256V842H328V453ZM432 559V842H516V907H432V1174H768L838 1163L848 1104V625L834 569L768 559H432Z" />
<glyph unicode="&#xf1;" glyph-name="ntilde" horiz-adv-x="1184" d="M438 0Q303 0 204 51T51 190T-4 381V989Q-4 1094 50 1180T204 1318T438 1370H746Q881 1370 980 1319T1134 1181T1188 989V381Q1188 277 1134 190T981 52T746 0H438ZM322 453H428V1163L506 1176H746L815
1165L825 1106V453H932V1120L918 1204L854 1268L752 1280H502L322 1255V453ZM336 1313Q203 1422 203 1592Q203 1696 257 1782T411 1920T645 1972Q781 1972 880 1921T1033 1783T1088 1592Q1088 1425 957 1313H336ZM768 1432Q806 1432 824 1454T847 1508T852 1563V1596H762Q748
1551 738 1536T713 1520Q697 1520 672 1536T605 1569T492 1585Q453 1585 435 1559T413 1500T408 1448V1436H498Q506 1474 516 1488T541 1503Q561 1503 590 1485T662 1450T768 1432Z" />
<glyph unicode="&#xf2;" glyph-name="ograve" horiz-adv-x="1184" d="M438 0Q303 0 204 51T51 190T-4 381V989Q-4 1094 50 1180T204 1318T438 1370H746Q881 1370 980 1319T1134 1181T1188 989V381Q1188 277 1134 190T981 52T746 0H438ZM504 453H772L875 465L938
528L952 614V1118L938 1202L875 1266L772 1280H504L402 1266L338 1202L326 1118V614L338 528L404 465L504 453ZM510 559L445 569L430 629V1108L440 1163L510 1174H766L836 1163L846 1104V625L832 569L766 559H510ZM451 1293Q440 1304 430 1319T408 1354L250 1624Q205
1700 207 1757Q207 1823 249 1867T359 1935T502 1958Q587 1958 652 1933T742 1845Q787 1703 809 1625T839 1512T846 1463Q846 1403 809 1358T725 1293H451ZM578 1450H647L547 1784H426L578 1450Z" />
<glyph unicode="&#xf3;" glyph-name="oacute" horiz-adv-x="1184" d="M438 0Q303 0 204 51T51 190T-4 381V989Q-4 1094 50 1180T204 1318T438 1370H746Q881 1370 980 1319T1134 1181T1188 989V381Q1188 277 1134 190T981 52T746 0H438ZM504 453H772L875 465L938
528L952 614V1118L938 1202L875 1266L772 1280H504L402 1266L338 1202L326 1118V614L338 528L404 465L504 453ZM510 559L445 569L430 629V1108L440 1163L510 1174H766L836 1163L846 1104V625L832 569L766 559H510ZM513 1293Q467 1313 430 1358T392 1463Q392 1477
398 1512T427 1625T496 1845Q520 1908 585 1933T736 1958Q811 1958 878 1935T988 1868T1031 1757Q1031 1697 988 1624L830 1354Q818 1334 808 1319T787 1293H513ZM591 1450H660L812 1784H691L591 1450Z" />
<glyph unicode="&#xf4;" glyph-name="ocircumflex" horiz-adv-x="1184" d="M438 0Q303 0 204 51T51 190T-4 381V989Q-4 1094 50 1180T204 1318T438 1370H746Q881 1370 980 1319T1134 1181T1188 989V381Q1188 277 1134 190T981 52T746 0H438ZM504 453H772L875 465L938
528L952 614V1118L938 1202L875 1266L772 1280H504L402 1266L338 1202L326 1118V614L338 528L404 465L504 453ZM510 559L445 569L430 629V1108L440 1163L510 1174H766L836 1163L846 1104V625L832 569L766 559H510ZM314 1293Q283 1319 268 1357T253 1438Q253 1487
278 1561T340 1719T413 1881Q442 1932 492 1957T626 1983Q710 1983 759 1954T845 1850Q886 1765 917 1688Q943 1621 966 1555T990 1449Q990 1347 921 1293H314ZM446 1449H527L622 1741L716 1449H798L667 1787H577L446 1449Z" />
<glyph unicode="&#xf5;" glyph-name="otilde" horiz-adv-x="1184" d="M438 0Q303 0 204 51T51 190T-4 381V989Q-4 1094 50 1180T204 1318T438 1370H746Q881 1370 980 1319T1134 1181T1188 989V381Q1188 277 1134 190T981 52T746 0H438ZM504 453H772L875 465L938
528L952 614V1118L938 1202L875 1266L772 1280H504L402 1266L338 1202L326 1118V614L338 528L404 465L504 453ZM510 559L445 569L430 629V1108L440 1163L510 1174H766L836 1163L846 1104V625L832 569L766 559H510ZM336 1313Q203 1422 203 1592Q203 1696 257 1782T411
1920T645 1972Q781 1972 880 1921T1033 1783T1088 1592Q1088 1425 957 1313H336ZM768 1432Q806 1432 824 1454T847 1508T852 1563V1596H762Q748 1551 738 1536T713 1520Q697 1520 672 1536T605 1569T492 1585Q453 1585 435 1559T413 1500T408 1448V1436H498Q506
1474 516 1488T541 1503Q561 1503 590 1485T662 1450T768 1432Z" />
<glyph unicode="&#xf6;" glyph-name="odieresis" horiz-adv-x="1184" d="M438 0Q303 0 204 51T51 190T-4 381V989Q-4 1094 50 1180T204 1318T438 1370H746Q881 1370 980 1319T1134 1181T1188 989V381Q1188 277 1134 190T981 52T746 0H438ZM504 453H772L875 465L938
528L952 614V1118L938 1202L875 1266L772 1280H504L402 1266L338 1202L326 1118V614L338 528L404 465L504 453ZM510 559L445 569L430 629V1108L440 1163L510 1174H766L836 1163L846 1104V625L832 569L766 559H510ZM353 1313Q287 1356 254 1420T220 1563Q220 1643
269 1711T408 1820T621 1862Q744 1862 834 1821T974 1711T1023 1563Q1023 1400 888 1313H353ZM417 1479H548V1608H417V1479ZM679 1479H810V1608H679V1479Z" />
<glyph unicode="&#xf7;" glyph-name="divide" horiz-adv-x="877" d="M438 0Q303 0 204 51T51 190T-4 381V989Q-4 1094 50 1180T204 1318T438 1370Q574 1370 673 1319T826 1181T881 989V381Q881 277 827 190T673 52T438 0ZM373 1055H504V1174H373V1055ZM250 889H627V995H250V889ZM373
710H504V829H373V710Z" />
<glyph unicode="&#xf8;" glyph-name="oslash" horiz-adv-x="1184" d="M438 0Q303 0 204 51T51 190T-4 381V989Q-4 1094 50 1180T204 1318T438 1370H746Q881 1370 980 1319T1134 1181T1188 989V381Q1188 277 1134 190T981 52T746 0H438ZM493 458H761L864 470L927
534L941 620V1120L927 1203L864 1267L761 1281H493L390 1267L327 1203L313 1120V620L327 534L392 470L493 458ZM419 640V1109L429 1165L499 1175H757Q760 1175 765 1174T773 1173L419 640ZM495 565Q492 565 490 566T485 567L835 1109V630L821 575L755 565H495Z"
/>
<glyph unicode="&#xf9;" glyph-name="ugrave" horiz-adv-x="1184" d="M438 0Q303 0 204 51T51 190T-4 381V989Q-4 1094 50 1180T204 1318T438 1370H746Q881 1370 980 1319T1134 1181T1188 989V381Q1188 277 1134 190T981 52T746 0H438ZM498 453H766L868 465L932
528L946 614V1280H840V625L825 569L760 559H504L438 569L424 629V1280H320V614L332 528L397 465L498 453ZM451 1293Q440 1304 430 1319T408 1354L250 1624Q205 1700 207 1757Q207 1823 249 1867T359 1935T502 1958Q587 1958 652 1933T742 1845Q787 1703 809 1625T839
1512T846 1463Q846 1403 809 1358T725 1293H451ZM578 1450H647L547 1784H426L578 1450Z" />
<glyph unicode="&#xfa;" glyph-name="uacute" horiz-adv-x="1184" d="M438 0Q303 0 204 51T51 190T-4 381V989Q-4 1094 50 1180T204 1318T438 1370H746Q881 1370 980 1319T1134 1181T1188 989V381Q1188 277 1134 190T981 52T746 0H438ZM498 453H766L868 465L932
528L946 614V1280H840V625L825 569L760 559H504L438 569L424 629V1280H320V614L332 528L397 465L498 453ZM513 1293Q467 1313 430 1358T392 1463Q392 1477 398 1512T427 1625T496 1845Q520 1908 585 1933T736 1958Q811 1958 878 1935T988 1868T1031 1757Q1031 1697
988 1624L830 1354Q818 1334 808 1319T787 1293H513ZM591 1450H660L812 1784H691L591 1450Z" />
<glyph unicode="&#xfb;" glyph-name="ucircumflex" horiz-adv-x="1184" d="M438 0Q303 0 204 51T51 190T-4 381V989Q-4 1094 50 1180T204 1318T438 1370H746Q881 1370 980 1319T1134 1181T1188 989V381Q1188 277 1134 190T981 52T746 0H438ZM498 453H766L868 465L932
528L946 614V1280H840V625L825 569L760 559H504L438 569L424 629V1280H320V614L332 528L397 465L498 453ZM314 1293Q283 1319 268 1357T253 1438Q253 1487 278 1561T340 1719T413 1881Q442 1932 492 1957T626 1983Q710 1983 759 1954T845 1850Q886 1765 917 1688Q943
1621 966 1555T990 1449Q990 1347 921 1293H314ZM446 1449H527L622 1741L716 1449H798L667 1787H577L446 1449Z" />
<glyph unicode="&#xfc;" glyph-name="udieresis" horiz-adv-x="1184" d="M438 0Q303 0 204 51T51 190T-4 381V989Q-4 1094 50 1180T204 1318T438 1370H746Q881 1370 980 1319T1134 1181T1188 989V381Q1188 277 1134 190T981 52T746 0H438ZM498 453H766L868 465L932
528L946 614V1280H840V625L825 569L760 559H504L438 569L424 629V1280H320V614L332 528L397 465L498 453ZM353 1313Q287 1356 254 1420T220 1563Q220 1643 269 1711T408 1820T621 1862Q744 1862 834 1821T974 1711T1023 1563Q1023 1400 888 1313H353ZM417 1479H548V1608H417V1479ZM679
1479H810V1608H679V1479Z" />
<glyph unicode="&#xfd;" glyph-name="yacute" horiz-adv-x="1184" d="M438 0Q303 0 204 51T51 190T-4 381V989Q-4 1094 50 1180T204 1318T438 1370H746Q881 1370 980 1319T1134 1181T1188 989V381Q1188 277 1134 190T981 52T746 0H438ZM584 453H690V684L944 1280H819L637
831L459 1280H334L584 686V453ZM513 1293Q467 1313 430 1358T392 1463Q392 1477 398 1512T427 1625T496 1845Q520 1908 585 1933T736 1958Q811 1958 878 1935T988 1868T1031 1757Q1031 1697 988 1624L830 1354Q818 1334 808 1319T787 1293H513ZM591 1450H660L812
1784H691L591 1450Z" />
<glyph unicode="&#xfe;" glyph-name="thorn" horiz-adv-x="1184" d="M438 0Q303 0 204 51T51 190T-4 381V989Q-4 1094 50 1180T204 1318T438 1370H746Q881 1370 980 1319T1134 1181T1188 989V381Q1188 277 1134 190T981 52T746 0H438ZM377 453H481V684H750L852
696L916 760L930 846V973L916 1057L852 1120L750 1135H481V1311H377V453ZM481 791V1028H744L813 1018L823 958V856L809 801L744 791H481Z" />
<glyph unicode="&#xff;" glyph-name="ydieresis" horiz-adv-x="1184" d="M438 0Q303 0 204 51T51 190T-4 381V989Q-4 1094 50 1180T204 1318T438 1370H746Q881 1370 980 1319T1134 1181T1188 989V381Q1188 277 1134 190T981 52T746 0H438ZM584 453H690V684L944
1280H819L637 831L459 1280H334L584 686V453ZM353 1313Q287 1356 254 1420T220 1563Q220 1643 269 1711T408 1820T621 1862Q744 1862 834 1821T974 1711T1023 1563Q1023 1400 888 1313H353ZM417 1479H548V1608H417V1479ZM679 1479H810V1608H679V1479Z" />
<glyph unicode="&#x2013;" glyph-name="endash" horiz-adv-x="877" d="M438 0Q303 0 204 51T51 190T-4 381V989Q-4 1094 50 1180T204 1318T438 1370Q574 1370 673 1319T826 1181T881 989V381Q881 277 827 190T673 52T438 0ZM250 918H627V1026H250V918Z" />
<glyph unicode="&#x2014;" glyph-name="emdash" horiz-adv-x="877" d="M-2 1026Q8 1122 64 1200T215 1324T438 1370Q565 1370 660 1324T812 1200T879 1026H-2ZM438 0Q303 0 204 51T51 190T-4 381V918H881V381Q881 277 827 190T673 52T438 0Z" />
<glyph unicode="&#x2018;" glyph-name="quoteleft" horiz-adv-x="877" d="M438 0Q303 0 204 51T51 190T-4 381V989Q-4 1094 50 1180T204 1318T438 1370Q574 1370 673 1319T826 1181T881 989V381Q881 277 827 190T673 52T438 0ZM373 1024H524V1153H459L498 1253L434
1282L373 1153V1024Z" />
<glyph unicode="&#x2019;" glyph-name="quoteright" horiz-adv-x="877" d="M438 0Q303 0 204 51T51 190T-4 381V989Q-4 1094 50 1180T204 1318T438 1370Q574 1370 673 1319T826 1181T881 989V381Q881 277 827 190T673 52T438 0ZM463 1022L524 1151V1280H373V1151H438L399
1051L463 1022Z" />
<glyph unicode="&#x201a;" glyph-name="quotesinglbase" horiz-adv-x="877" d="M438 0Q303 0 204 51T51 190T-4 381V989Q-4 1094 50 1180T204 1318T438 1370Q574 1370 673 1319T826 1181T881 989V381Q881 277 827 190T673 52T438 0ZM463 324L524 453V582H373V453H438L399
352L463 324Z" />
<glyph unicode="&#x201c;" glyph-name="quotedblleft" horiz-adv-x="877" d="M438 0Q303 0 204 51T51 190T-4 381V989Q-4 1094 50 1180T204 1318T438 1370Q574 1370 673 1319T826 1181T881 989V381Q881 277 827 190T673 52T438 0ZM272 1024H424V1153H358L397 1253L334
1282L272 1153V1024ZM457 1024H608V1153H543L582 1253L518 1282L457 1153V1024Z" />
<glyph unicode="&#x201d;" glyph-name="quotedblright" horiz-adv-x="877" d="M438 0Q303 0 204 51T51 190T-4 381V989Q-4 1094 50 1180T204 1318T438 1370Q574 1370 673 1319T826 1181T881 989V381Q881 277 827 190T673 52T438 0ZM383 1022L445 1151V1280H293V1151H358L320
1051L383 1022ZM567 1022L629 1151V1280H477V1151H543L504 1051L567 1022Z" />
<glyph unicode="&#x201e;" glyph-name="quotedblbase" horiz-adv-x="877" d="M438 0Q303 0 204 51T51 190T-4 381V989Q-4 1094 50 1180T204 1318T438 1370Q574 1370 673 1319T826 1181T881 989V381Q881 277 827 190T673 52T438 0ZM383 324L445 453V582H293V453H358L320
352L383 324ZM567 324L629 453V582H477V453H543L504 352L567 324Z" />
<glyph unicode="&#x2022;" glyph-name="bullet" horiz-adv-x="1184" d="M438 0Q303 0 204 51T51 190T-4 381V989Q-4 1094 50 1180T204 1318T438 1370H746Q881 1370 980 1319T1134 1181T1188 989V381Q1188 277 1134 190T981 52T746 0H438ZM551 492H707Q810 492
871 549T932 684V995Q932 1074 871 1131T707 1188H551Q448 1188 387 1131T326 995V684Q326 606 387 549T551 492Z" />
<glyph unicode="&#x2039;" glyph-name="guilsinglleft" horiz-adv-x="1184" d="M438 0Q303 0 204 51T51 190T-4 381V989Q-4 1094 50 1180T204 1318T438 1370H746Q881 1370 980 1319T1134 1181T1188 989V381Q1188 277 1134 190T981 52T746 0H438ZM745 393L806 452L548
797L806 1142L745 1203L451 814V781L745 393Z" />
<glyph unicode="&#x203a;" glyph-name="guilsinglright" horiz-adv-x="1184" d="M438 0Q303 0 204 51T51 190T-4 381V989Q-4 1094 50 1180T204 1318T438 1370H746Q881 1370 980 1319T1134 1181T1188 989V381Q1188 277 1134 190T981 52T746 0H438ZM523 393L797
781V814L523 1203L462 1142L701 797L462 452L523 393Z" />
</font>
</defs>
</svg>
