<?xml version="1.0" standalone="no"?>
<!DOCTYPE svg PUBLIC "-//W3C//DTD SVG 1.1//EN" "http://www.w3.org/Graphics/SVG/1.1/DTD/svg11.dtd">
<svg xmlns="http://www.w3.org/2000/svg">
<defs >
<font id="Lemonada" horiz-adv-x="625" ><font-face
    font-family="Lemonada"
    units-per-em="1000"
    panose-1="0 0 0 0 0 0 0 0 0 0"
    ascent="1345"
    descent="-653"
    alphabetic="0" />
<glyph unicode=" " horiz-adv-x="324" />
<glyph unicode="!" horiz-adv-x="364" d="M190 249Q167 249 159 262T151 296Q151 315 156 349T169 424T184 509T197 592T203 659Q203 679 200 702T184 739Q203 757 228 766T284 775Q325 775 342 751T360 689Q360 668 352 628T331 539T302 438T271 343T245 271Q233
260 217 255T190 249ZM147 -25Q117 -25 97 -5T76 44Q76 67 86 86T116 116T159 128Q190 128 210 108T230 59Q230 37 219 18T189 -13T147 -25Z" />
<glyph unicode="&quot;" horiz-adv-x="443" d="M340 446Q316 446 308 460T299 496Q299 528 312 564T338 638T351 716Q351 739 344 759Q362 770 382 775T418 780Q441 780 450 766T459 730Q459 698 446 662T420 588T407 510Q407 487 414 467Q396 457 377 452T340
446ZM128 446Q104 446 96 460T87 496Q87 528 100 564T126 638T139 716Q139 739 132 759Q150 770 170 775T206 780Q230 780 238 766T247 730Q247 698 234 662T208 588T195 510Q195 487 202 467Q184 457 165 452T128 446Z" />
<glyph unicode="#" horiz-adv-x="843" d="M164 158Q150 158 136 162T110 174Q159 323 213 529T330 1016Q343 1074 394 1074Q408 1074 422 1070T448 1058Q399 910 345 704T228 216Q215 158 164 158ZM454 -98Q440 -98 426 -94T400 -82Q449 67 503 273T620 760Q633
818 684 818Q698 818 712 814T738 802Q689 654 635 448T518 -40Q505 -98 454 -98ZM159 168Q90 168 67 178T43 217Q43 244 64 271Q84 268 106 266T153 262T205 260Q275 260 350 266T503 279T663 286Q731 286 754 276T778 238Q778 208 759 183Q728 189 693 191T619
194Q549 194 474 188T320 175T159 168ZM207 468Q138 468 115 478T91 517Q91 544 112 571Q132 568 154 566T201 562T253 560Q323 560 398 566T551 579T711 586Q779 586 802 576T826 538Q826 508 807 483Q776 489 741 491T667 494Q597 494 522 488T368 475T207 468Z"
/>
<glyph unicode="$" horiz-adv-x="678" d="M303 -24Q233 -24 180 -10T98 32T69 98Q69 121 80 140T110 171Q139 112 189 81T297 49Q371 49 420 77T470 160Q470 193 444 214T378 253T291 287T205 329T138 390T112 482Q112 530 136 570T204 639T310 685T445 702Q503
702 548 690T619 656T645 605Q645 564 618 543T549 521Q506 521 477 548T433 625Q342 614 291 579T240 496Q240 465 265 445T331 408T417 375T503 333T569 273T595 182Q595 140 576 103T519 38T427 -7T303 -24ZM262 -195Q248 -195 234 -192T208 -181Q218 -140 229
-96T252 -2L344 3Q338 -31 333 -65T320 -134Q309 -195 262 -195ZM371 633Q382 679 393 727T416 828Q429 886 478 886Q492 886 506 882T531 870Q514 818 497 758T460 633H371Z" />
<glyph unicode="%" horiz-adv-x="1086" d="M262 272Q180 272 132 323T84 462Q84 535 116 590T205 676T336 707Q349 707 364 705T389 698Q392 695 393 688T395 669Q441 658 464 620T487 518Q487 449 457 393T377 305T262 272ZM267 339Q301 339 327 361T368 423T384
511Q384 623 288 623Q277 623 266 621T243 615Q216 583 202 539T187 453Q187 401 209 370T267 339ZM384 -40Q370 -40 357 -36T333 -24Q383 71 438 183T555 432T688 738Q711 796 762 796Q776 796 789 792T813 780Q740 647 655 460T459 18Q433 -40 384 -40ZM801 -23Q719
-23 671 28T623 167Q623 240 655 295T744 381T875 412Q888 412 903 410T928 403Q931 400 932 393T934 374Q980 363 1003 325T1026 223Q1026 154 996 98T916 10T801 -23ZM806 44Q840 44 866 66T907 128T923 216Q923 328 827 328Q816 328 805 326T782 320Q755 288
741 244T726 158Q726 106 748 75T806 44Z" />
<glyph unicode="&amp;" horiz-adv-x="761" d="M364 327Q293 327 237 352T149 422T117 524Q117 580 140 626T208 705T313 757T448 775Q525 775 573 746T621 670Q621 633 596 612T530 590Q487 590 457 620T413 699Q333 684 287 640T240 530Q240 493 258 464T309
418T383 401Q457 401 512 413T612 438T694 451Q754 451 754 409Q754 396 750 381T737 349Q712 352 695 353T664 355Q630 355 580 348T473 334T364 327ZM247 -92Q188 -92 144 -70T75 -8T50 85Q50 143 75 197T146 298T255 376L317 368Q246 311 211 253T176 137Q176
74 207 41T299 7Q349 7 395 32T477 103T536 213T562 357L620 363Q623 263 597 180T522 36T402 -58T247 -92Z" />
<glyph unicode="&apos;" horiz-adv-x="231" d="M128 446Q104 446 96 460T87 496Q87 528 100 564T126 638T139 716Q139 739 132 759Q150 770 170 775T206 780Q230 780 238 766T247 730Q247 698 234 662T208 588T195 510Q195 487 202 467Q184 457 165 452T128 446Z" />
<glyph unicode="(" horiz-adv-x="415" d="M237 -156Q175 -156 141 -66T106 191Q106 274 120 360T158 525T213 666T276 764T341 801Q358 801 371 796T401 776Q362 739 328 680T269 546T229 391T215 231Q215 111 240 27T321 -120Q305 -136 283 -146T237 -156Z" />
<glyph unicode=")" horiz-adv-x="415" d="M178 801Q240 801 274 711T309 454Q309 371 295 285T257 120T202 -21T139 -119T74 -156Q57 -156 44 -151T14 -131Q53 -94 87 -35T146 99T186 254T200 414Q200 534 175 618T94 765Q111 782 133 791T178 801Z" />
<glyph unicode="*" horiz-adv-x="592" d="M398 300Q381 300 363 322T330 393T309 520L224 355Q194 360 169 370T128 394T112 419Q112 437 130 460T189 510T298 563L112 594Q110 604 109 615T108 637Q108 679 118 700T146 721Q179 721 212 701T277 649T334 588L303
774Q327 785 351 792T394 800Q421 800 430 791T440 755Q440 734 435 708T415 646T370 561L536 648Q553 632 566 613T586 575T594 544Q594 528 573 517T510 506Q492 506 472 506T423 507T354 520L487 388Q475 363 459 343T426 312T398 300Z" />
<glyph unicode="+" horiz-adv-x="706" d="M312 142Q290 142 284 155T283 204L344 585Q394 603 422 603Q445 603 450 590T451 541L391 160Q366 152 347 147T312 142ZM198 315Q163 315 150 324T136 355Q136 369 141 388T154 430H535Q570 430 583 422T597 391Q597
362 579 315H198Z" />
<glyph unicode="," horiz-adv-x="334" d="M60 -177L48 -145Q72 -132 89 -111T117 -67T127 -25L76 42Q77 65 89 84T123 116T169 128Q207 128 227 103T247 45Q247 -8 224 -51T159 -126T60 -177Z" />
<glyph unicode="-" horiz-adv-x="505" d="M115 231Q94 231 81 241T67 282Q67 312 85 345Q98 343 108 342T131 341Q167 341 200 346T265 360T329 373T395 379Q416 379 430 369T444 329Q444 316 440 300T425 266Q413 268 403 269T380 270Q343 270 310 264T246 251T182
237T115 231Z" />
<glyph unicode="." horiz-adv-x="286" d="M137 -25Q107 -25 87 -5T66 44Q66 67 76 86T105 116T149 128Q180 128 200 108T220 59Q220 37 209 18T179 -13T137 -25Z" />
<glyph unicode="/" horiz-adv-x="398" d="M84 -80Q70 -80 56 -76T30 -64Q79 85 133 291T250 778Q263 836 314 836Q328 836 342 832T368 820Q319 672 265 466T148 -22Q135 -80 84 -80Z" />
<glyph unicode="0" horiz-adv-x="730" d="M339 -25Q259 -25 201 13T111 121T79 285Q79 409 127 502T261 648T461 700Q480 700 503 696T542 685Q547 680 549 668T552 637Q615 620 648 556T681 391Q681 303 655 228T582 95T473 7T339 -25ZM348 51Q408 51 454 93T527
210T554 380Q554 492 513 547T384 602Q365 602 346 598T303 586Q271 540 250 488T217 380T206 272Q206 170 245 111T348 51Z" />
<glyph unicode="1" horiz-adv-x="465" d="M240 -25Q205 -25 187 1T169 79Q169 121 173 167T185 267T206 386T237 529Q186 529 154 549T114 605Q166 620 203 636T266 667T312 691T351 700Q391 700 391 654Q391 635 382 592T358 489T330 361T306 223T296 90Q296
63 300 40T313 -4Q274 -25 240 -25Z" />
<glyph unicode="2" horiz-adv-x="656" d="M194 53L107 95Q220 169 297 235T413 362T452 478Q452 543 423 575T334 607Q296 607 265 586T214 527T191 443Q154 448 134 469T114 524Q114 577 145 616T232 678T363 700Q428 700 476 677T552 611T579 512Q579 445 541
377T419 230T194 53ZM476 -30Q439 -30 402 -25T317 -6T200 33Q171 3 148 -9T97 -22Q70 -22 52 -4T33 40Q33 83 68 110T156 137Q185 137 226 127T314 103T402 80T476 69L586 129Q600 107 605 92T611 63Q611 37 593 16T545 -18T476 -30Z" />
<glyph unicode="3" horiz-adv-x="662" d="M199 -156Q114 -156 73 -133T31 -64Q31 -35 54 -16T112 3Q142 3 171 -19T219 -79Q280 -79 329 -56T408 7T437 95Q437 124 426 151T397 198T357 225Q326 204 298 193T245 181Q218 181 200 197T181 238Q181 273 211 294T292
315Q371 315 432 288T529 213T564 103Q564 47 537 0T461 -83T345 -137T199 -156ZM394 250L294 284Q341 302 376 331T431 398T451 478Q451 543 422 575T334 607Q294 607 261 586T206 527T181 443Q145 448 125 469T104 524Q104 577 136 616T227 678T363 700Q426 700
474 676T550 610T578 512Q578 441 531 374T394 250Z" />
<glyph unicode="4" horiz-adv-x="676" d="M194 0Q116 0 80 22T44 91Q44 118 60 156T103 240T158 336T213 438T255 539T272 630Q272 643 271 655T264 683Q284 693 301 696T335 700Q416 700 416 602Q416 513 345 388T127 94H459L430 19Q400 14 359 10T275 3T194
0ZM487 -170Q446 -170 424 -144T401 -68Q401 -43 408 -2T430 93T463 212T507 348Q519 357 532 363T560 373T587 377Q604 377 611 372T618 353Q618 334 608 293T584 198T560 83T549 -41Q549 -107 573 -146Q547 -159 528 -164T487 -170Z" />
<glyph unicode="5" horiz-adv-x="619" d="M199 -155Q114 -155 74 -132T34 -62Q34 -33 58 -15T117 4Q148 4 176 -18T223 -77Q282 -77 330 -54T406 8T435 94Q435 129 417 165T357 226T249 251Q221 251 199 246T168 241Q158 241 153 248T147 264L207 612L314 576L272
323Q358 323 423 295T526 218T564 104Q564 48 537 1T460 -82T344 -136T199 -155ZM394 546Q271 546 214 569T156 639Q156 669 172 684T222 700Q251 700 274 681T312 631Q350 633 394 643T486 669T576 706Q583 696 586 679T590 645Q590 609 564 587T494 556T394 546Z"
/>
<glyph unicode="6" horiz-adv-x="705" d="M333 -25Q264 -25 210 5T125 97T94 250Q94 342 122 427T198 585T303 712T419 797T528 827Q562 827 581 815T615 769Q571 753 521 728T419 661T321 556T236 400H242Q287 461 336 481T431 501Q499 501 546 471T617 389T641
270Q641 207 616 153T548 59T450 -3T333 -25ZM348 53Q374 53 402 66T456 106T497 174T513 271Q513 308 501 342T459 399T375 422Q344 422 308 400T247 332T221 218Q221 177 233 139T272 77T348 53Z" />
<glyph unicode="7" horiz-adv-x="565" d="M242 -121Q204 -121 182 -99T159 -24Q159 51 190 151T277 365T406 593L535 634Q496 574 455 497T380 332T325 156T304 -15Q304 -40 306 -59T318 -98Q298 -111 279 -116T242 -121ZM343 551Q247 551 188 560T101 591T74
646Q74 664 79 681T91 711Q128 695 170 682T255 659T340 643T417 635Q434 666 458 685T511 704Q544 704 561 689T578 644Q578 595 521 573T343 551Z" />
<glyph unicode="8" horiz-adv-x="660" d="M321 -26Q208 -26 141 23T74 158Q74 186 83 215T117 274T184 334T296 396Q376 432 417 466T472 535T487 602Q487 646 458 672T377 698Q325 698 288 673T251 597Q251 558 276 527T342 467T428 411T514 350T580 278T606
187Q606 125 570 77T470 1T321 -26ZM331 58Q371 58 404 71T457 112T478 178Q478 211 453 240T387 298T301 356T215 420T149 494T123 585Q123 644 154 688T243 757T378 782Q480 782 539 733T598 602Q598 534 540 472T374 361Q320 337 277 306T210 237T185 158Q185
112 226 85T331 58Z" />
<glyph unicode="9" horiz-adv-x="685" d="M187 -152Q153 -152 134 -140T101 -94Q145 -78 195 -53T297 15T395 120T479 275H473Q428 214 380 194T284 174Q216 174 169 204T98 287T74 405Q74 469 98 522T166 616T265 678T382 700Q452 700 505 670T590 578T621 425Q621
333 593 248T517 90T412 -37T296 -122T187 -152ZM340 253Q372 253 407 275T468 343T494 457Q494 498 482 536T443 598T367 622Q341 622 312 609T258 569T217 501T201 404Q201 367 213 333T256 276T340 253Z" />
<glyph unicode=":" horiz-adv-x="333" d="M137 -25Q107 -25 87 -5T66 44Q66 67 76 86T105 116T149 128Q180 128 200 108T220 59Q220 37 209 18T179 -13T137 -25ZM190 406Q160 406 140 426T119 475Q119 498 129 517T158 547T202 559Q233 559 253 539T273 490Q273
468 262 449T232 418T190 406Z" />
<glyph unicode=";" horiz-adv-x="333" d="M60 -177L48 -145Q72 -132 89 -111T117 -67T127 -25L76 42Q77 65 89 84T123 116T169 128Q207 128 227 103T247 45Q247 -8 224 -51T159 -126T60 -177ZM190 406Q160 406 140 426T119 475Q119 498 129 517T158 547T202 559Q233
559 253 539T273 490Q273 468 262 449T232 418T190 406Z" />
<glyph unicode="&lt;" horiz-adv-x="753" d="M190 436L567 236Q590 223 601 213T613 191Q613 182 605 168T584 139T559 112L181 313Q159 325 148 335T136 357Q136 367 144 381T165 409T190 436ZM620 625Q637 625 646 611T659 574T666 526L278 350Q265 344 255
341T237 337Q217 337 205 360Q198 373 195 392T190 436L577 612Q591 618 601 621T620 625Z" />
<glyph unicode="=" horiz-adv-x="706" d="M434 443Q399 443 386 452T372 483Q372 497 377 516T390 558H771Q806 558 819 550T833 519Q833 490 815 443H434ZM219 443Q184 443 171 452T157 483Q157 497 162 516T175 558H556Q591 558 604 550T618 519Q618 490 600 443H219Z" />
<glyph unicode="&gt;" horiz-adv-x="753" d="M589 301L212 501Q190 514 178 524T166 546Q166 556 174 569T195 598T220 625L598 424Q621 412 632 402T643 380Q643 370 635 356T614 328T589 301ZM159 112Q143 112 134 126T120 163T113 211L501 387Q514 393 524
396T542 400Q562 400 574 377Q581 364 584 345T589 301L202 125Q189 119 178 116T159 112Z" />
<glyph unicode="?" horiz-adv-x="599" d="M267 241Q236 241 216 259T195 306Q237 309 275 327T344 375T392 446T410 534Q410 593 379 630T289 667Q253 667 218 650T156 595T116 501Q95 501 81 510T61 534T54 571Q54 595 66 629T108 697T186 752T309 775Q396 775
447 741T522 654T545 542Q545 476 521 421T455 325T365 263T267 241ZM197 -25Q167 -25 147 -5T126 44Q126 67 136 86T166 116T209 128Q240 128 260 108T280 59Q280 37 269 18T239 -13T197 -25Z" />
<glyph unicode="@" horiz-adv-x="1082" d="M508 -235Q372 -235 273 -182T120 -32T66 197Q66 324 110 433T233 625T419 754T650 800Q755 800 830 774T953 703T1023 601T1046 482Q1046 412 1021 343T950 216T838 125T693 90L739 160Q790 174 832 206T904 281T951
375T968 474Q968 524 951 570T896 653T796 711T645 733Q543 733 455 695T300 590T197 434T159 243Q159 65 257 -29T543 -124Q656 -124 752 -84T925 35Q933 20 936 6T939 -23Q939 -67 904 -105T807 -173T669 -218T508 -235ZM474 90Q416 90 381 133T346 249Q346 330
384 392T485 491T626 527Q658 527 691 521Q695 513 697 502T699 479Q616 479 562 451T481 375T454 267Q454 224 472 201T523 178Q586 178 625 253T682 479Q707 510 746 510Q766 510 778 499T790 468Q790 447 783 414T765 340T747 253T739 164Q739 148 743 135T756
116Q741 103 725 97T693 90Q663 90 648 107T632 157Q632 164 633 172T636 191L628 194Q602 145 562 118T474 90Z" />
<glyph unicode="A" horiz-adv-x="693" d="M101 -24Q44 -24 44 59Q44 98 62 155T115 287T204 455T329 656L298 698Q327 716 352 724T407 732Q448 732 458 712Q482 732 510 732Q540 732 555 712T570 648Q570 602 569 544T568 420T572 291T582 170T604 69T641 2Q608
-24 564 -24Q529 -24 506 -6T470 56T451 174T445 361Q445 459 445 525T446 634H434Q342 497 284 392T197 212T169 88Q169 34 183 2Q166 -11 146 -17T101 -24ZM144 187L159 258H505L492 187H144Z" />
<glyph unicode="B" horiz-adv-x="753" d="M386 -26Q253 -26 181 6T108 96Q108 125 112 167T124 270T147 418T182 623L151 684Q185 704 215 715T270 726Q313 726 315 675Q419 727 512 727Q592 727 638 686T685 574Q685 510 642 457T518 368Q598 353 643 307T688
190Q688 127 650 79T543 2T386 -26ZM380 48Q462 48 510 86T559 187Q559 249 517 283T396 318Q362 318 322 313T240 296L248 365Q343 370 411 394T517 460T555 554Q555 641 454 641Q417 641 381 634T307 609Q292 537 280 469T258 334T241 203T229 75Q261 63 301
56T380 48Z" />
<glyph unicode="C" horiz-adv-x="662" d="M328 -25Q200 -25 127 50T54 260Q54 360 87 445T179 593T316 691T483 726Q555 726 596 703T637 639Q637 605 610 582T543 558Q504 558 468 575T407 641Q342 614 291 557T211 422T182 252Q182 155 220 100T325 45Q378 45
417 71T479 141T507 240Q545 240 567 225T589 171Q589 118 554 73T459 2T328 -25Z" />
<glyph unicode="D" horiz-adv-x="828" d="M330 -25Q219 -25 164 5T108 97Q108 122 112 163T125 266T148 417T183 623L152 684Q187 704 217 715T269 726Q314 726 314 673Q314 665 310 633T298 554T282 449T264 334T248 222T236 128T231 65Q260 56 286 52T345 48Q430
48 495 91T597 211T634 386Q634 513 583 579T435 646Q389 646 359 638T304 616T244 581L238 632Q273 657 305 678T379 712T478 726Q565 726 629 687T728 577T763 407Q763 311 732 232T643 96T506 7T330 -25Z" />
<glyph unicode="E" horiz-adv-x="580" d="M179 -26Q142 -26 125 -7T108 55Q108 84 111 125T124 230T148 389T185 623L154 684Q186 704 217 715T273 726Q317 726 317 673Q317 665 313 634T301 557T284 456T265 345T249 237T237 147T232 88Q232 63 243 45T280 12Q227
-26 179 -26ZM399 -25Q338 -25 278 -10T176 33L209 75H433Q465 79 491 85T542 101Q547 86 549 77T551 57Q551 15 515 -5T399 -25ZM357 280Q329 280 300 285T232 300L246 369Q276 365 307 363T373 361L447 379Q447 373 447 367T448 355Q448 319 425 300T357 280ZM477
582Q438 582 400 585T325 597T249 619L273 679Q340 679 390 684T489 699T596 720Q600 707 600 697T601 678Q601 643 584 622T538 592T477 582Z" />
<glyph unicode="F" horiz-adv-x="526" d="M179 -26Q142 -26 125 -7T108 55Q108 84 111 125T124 230T148 389T185 623L154 684Q186 704 217 715T273 726Q317 726 317 673Q317 665 313 634T301 557T284 456T265 345T249 237T237 147T232 88Q232 59 238 37T256 0Q216
-26 179 -26ZM357 280Q329 280 300 285T232 300L246 369Q276 365 307 363T373 361L447 379Q447 373 447 367T448 355Q448 319 425 300T357 280ZM467 582Q428 582 390 585T315 597T239 619L263 679Q330 679 380 684T479 699T586 720Q590 707 590 697T591 678Q591
643 574 622T528 592T467 582Z" />
<glyph unicode="G" horiz-adv-x="725" d="M338 -30Q205 -30 130 46T54 260Q54 360 88 445T184 593T326 691T499 726Q574 726 615 703T657 639Q657 605 630 582T560 558Q521 558 483 575T420 641Q352 614 298 557T213 422T182 252Q182 155 222 100T333 45Q394 45
440 76T512 161T543 282Q553 282 559 262T566 195Q566 134 535 83T452 1T338 -30ZM513 -185Q479 -185 462 -171T445 -122Q445 -102 451 -64T472 36L556 215L543 282L478 327Q505 350 540 363T604 377Q634 377 647 367T660 328Q660 321 651 287T627 202T599 94T575
-17T565 -114Q565 -131 569 -143T582 -162Q566 -173 550 -179T513 -185Z" />
<glyph unicode="H" horiz-adv-x="816" d="M623 -26Q586 -26 569 -7T552 55Q552 84 555 125T568 231T592 390T630 623L598 684Q630 704 661 715T717 726Q761 726 761 673Q761 665 757 634T745 557T728 456T710 345T693 237T681 147T676 88Q676 59 682 37T700 0Q661
-26 623 -26ZM179 -26Q142 -26 125 -7T108 55Q108 84 111 125T124 231T148 390T185 623L154 684Q186 704 217 715T273 726Q317 726 317 673Q317 665 313 634T301 557T284 456T265 345T249 237T237 147T232 88Q232 59 238 37T256 0Q217 -26 179 -26ZM199 291L214
362H632L619 291H199Z" />
<glyph unicode="I" horiz-adv-x="372" d="M179 -25Q142 -25 125 -6T108 56Q108 85 111 126T124 232T148 391T185 623L154 684Q186 704 217 715T273 726Q317 726 317 673Q317 665 313 634T301 557T284 457T265 346T249 238T237 148T232 89Q232 60 238 38T256 1Q217
-25 179 -25Z" />
<glyph unicode="J" horiz-adv-x="540" d="M152 -25Q117 -25 85 -15T33 17T12 69Q12 95 31 115T86 136Q119 136 141 119T177 74T199 20L172 39Q207 42 232 53T274 90T304 160T326 271L375 623L503 673L446 271Q434 193 412 137T354 45T269 -8T152 -25ZM348 564Q208
564 149 587T89 665Q89 683 93 701T104 732Q145 711 193 694T289 666T376 653Q387 688 410 707T464 726Q496 726 514 710T532 661Q532 611 488 588T348 564Z" />
<glyph unicode="K" horiz-adv-x="688" d="M206 239L204 302L301 375Q371 427 418 468T493 543T534 607T547 669Q547 677 545 685T539 703Q570 725 608 725Q638 725 657 706T676 657Q676 617 650 576T566 487T416 378L206 239ZM179 -26Q142 -26 125 -7T108 55Q108
84 112 126T124 233T148 393T185 623L154 684Q188 704 218 715T273 726Q317 726 317 673Q317 665 313 634T301 557T284 456T265 345T249 237T237 147T232 88Q232 59 238 37T256 0Q216 -26 179 -26ZM582 -25Q552 -25 531 -12T487 38T434 146L341 353L442 422Q468
353 497 288T557 166T615 69T666 8Q658 -1 644 -8T613 -20T582 -25Z" />
<glyph unicode="L" horiz-adv-x="543" d="M179 -26Q142 -26 125 -7T108 55Q108 84 111 125T123 230T147 389T185 623L154 684Q186 704 217 715T273 726Q317 726 317 673Q317 665 313 634T301 557T284 456T265 345T249 237T237 147T232 88Q232 63 243 45T280 12Q227
-26 179 -26ZM369 -25Q312 -25 258 -12T168 24L202 75H391Q423 79 449 85T500 101Q505 85 507 77T509 57Q509 15 475 -5T369 -25Z" />
<glyph unicode="M" horiz-adv-x="1026" d="M179 -26Q143 -26 126 -8T108 51Q108 79 111 119T123 222T146 383T183 623L152 684Q185 705 215 715T269 726Q305 726 329 714T373 667T409 571T447 408T497 163H508Q528 246 561 327T638 480T731 607T831 694T932 726Q944
726 952 721T966 705T971 676Q971 668 967 637T955 558T939 456T921 343T905 233T893 142T888 82Q888 55 894 35T912 -2Q872 -28 835 -28Q800 -28 783 -10T766 50Q766 78 769 117T779 215T800 363T834 577H828Q785 540 750 489T685 380T635 265T600 159T581 75Q562
59 540 50T498 41Q473 41 455 50T422 88T392 176T356 332T305 577H299Q291 525 282 467T263 349T247 238T236 145T231 84Q231 56 236 36T255 0Q236 -13 217 -19T179 -26Z" />
<glyph unicode="N" horiz-adv-x="844" d="M651 -27Q618 -27 592 -19T542 11T497 77T448 190T390 363T315 608H268L272 726Q304 726 329 714T379 666T430 564T492 387T576 116L652 115L651 -27ZM179 -26Q142 -26 125 -7T108 55Q108 84 111 125T124 231T148 390T185
623L154 684Q186 704 217 715T273 726Q317 726 317 673Q317 665 313 634T301 557T284 456T265 345T249 237T237 147T232 88Q232 59 238 37T256 0Q217 -26 179 -26ZM651 -27Q614 -27 597 -8T580 55Q580 84 583 125T596 231T620 390T658 623L624 684Q657 704 688
715T745 726Q789 726 789 673Q789 665 785 634T773 557T756 456T738 345T721 237T709 146T704 87Q704 59 710 37T728 -1Q708 -14 690 -20T651 -27Z" />
<glyph unicode="O" horiz-adv-x="744" d="M336 -25Q251 -25 188 13T89 119T54 281Q54 384 84 466T168 606T290 694T435 725Q485 725 509 711T533 665Q533 655 532 647T525 627Q514 630 497 632T466 635Q387 635 323 592T221 470T183 285Q183 164 232 105T363 45Q404
45 446 65T525 124T588 216T623 336Q559 365 536 408T512 498Q512 531 525 556T560 597T610 612Q662 612 690 567T719 441Q719 343 691 258T611 110T489 11T336 -25Z" />
<glyph unicode="P" horiz-adv-x="693" d="M384 205Q324 205 277 221T189 269L225 316Q249 298 280 290T342 282Q408 282 455 308T528 381T554 486Q554 528 540 564T494 622T405 644Q365 644 325 626T241 574V616Q272 647 303 671T374 709T470 724Q539 724 586
693T657 610T681 500Q681 443 663 390T609 296T517 230T384 205ZM179 -26Q142 -26 125 -7T108 55Q108 84 111 125T124 231T148 390T185 623L154 684Q186 704 217 715T273 726Q317 726 317 673Q317 665 313 634T301 557T284 456T265 345T249 237T237 147T232 88Q232
59 238 37T256 0Q217 -26 179 -26Z" />
<glyph unicode="Q" horiz-adv-x="744" d="M540 -182Q484 -182 431 -162T334 -115T258 -68Q242 -93 217 -109T160 -125Q135 -125 119 -110T102 -68Q102 -36 126 -18T187 0Q230 0 278 -11T380 -33T495 -45Q542 -45 582 -39T659 -21Q661 -30 662 -40T663 -63Q663
-101 648 -127T605 -168T540 -182ZM336 -25Q251 -25 188 13T89 119T54 281Q54 384 84 466T168 606T290 694T435 725Q485 725 509 711T533 665Q533 655 532 647T525 627Q514 630 497 632T466 635Q387 635 323 592T221 470T183 285Q183 164 232 105T363 45Q404 45
446 65T525 124T588 216T623 336Q559 365 536 408T512 498Q512 531 525 556T560 597T610 612Q662 612 690 567T719 441Q719 343 691 258T611 110T489 11T336 -25Z" />
<glyph unicode="R" horiz-adv-x="725" d="M384 247Q329 247 287 260T201 311L225 358Q249 340 280 332T342 324Q408 324 455 347T528 410T554 501Q554 539 540 571T494 624T405 644Q365 644 325 626T241 574V616Q272 647 303 671T374 709T470 724Q539 724 586
695T657 618T681 515Q681 468 663 421T609 334T517 271T384 247ZM179 -26Q142 -26 125 -7T108 55Q108 84 111 125T124 231T148 390T185 623L154 684Q186 704 217 715T273 726Q317 726 317 673Q317 664 311 626T295 532T275 412T254 285T238 170T232 88Q232 59 238
37T256 0Q217 -26 179 -26ZM605 -25Q575 -25 554 -12T510 38T457 146L395 283L502 327Q534 254 567 190T632 78T689 8Q681 -1 667 -8T636 -20T605 -25Z" />
<glyph unicode="S" horiz-adv-x="716" d="M321 -25Q247 -25 191 -11T103 32T71 102Q71 125 83 144T114 175Q146 114 199 82T315 49Q398 49 451 78T505 165Q505 195 484 215T428 252T352 282T270 315T193 357T137 416T116 500Q116 549 141 590T214 661T326 709T471
726Q533 726 581 714T656 679T684 628Q684 585 656 563T584 541Q537 541 507 569T460 649Q358 637 302 601T245 514Q245 486 266 467T322 432T398 402T480 370T557 328T613 270T634 188Q634 145 614 107T555 39T457 -8T321 -25Z" />
<glyph unicode="T" horiz-adv-x="553" d="M263 -26Q227 -26 210 -8T193 51Q193 89 202 164T229 361T278 661L398 638Q391 589 381 525T359 393T339 261T323 151T317 84Q317 56 322 36T340 0Q302 -26 263 -26ZM503 586Q460 586 417 592T331 605T241 612L80 588Q75
598 73 610T70 637Q70 684 97 699T170 715Q213 715 256 709T342 696T432 688L593 713Q598 704 600 691T602 664Q602 627 576 607T503 586Z" />
<glyph unicode="U" horiz-adv-x="812" d="M618 -26Q591 -26 576 -12T555 27T548 80Q548 107 553 136T565 195L559 196Q529 139 485 89T383 8T258 -23Q215 -23 186 -8T140 31T116 86T108 147Q108 171 111 206T123 296T146 430T183 623L152 684Q181 704 212 715T269
727Q314 727 314 673Q314 665 308 631T292 548T271 442T250 333T234 237T228 175Q228 124 245 95T316 65Q357 65 405 97T499 186T574 321Q572 338 570 367T567 433Q567 468 570 508T581 587T605 657T644 708T705 727Q719 727 735 722T767 705Q753 654 737 579T705
418T681 245T671 84Q671 30 689 0Q670 -13 653 -19T618 -26Z" />
<glyph unicode="V" horiz-adv-x="617" d="M224 -30Q173 -30 144 -8T103 68T91 216Q91 288 92 359T89 494T70 610T20 699Q56 726 97 726Q145 726 170 690T206 570T216 342Q216 257 216 206T216 129T216 90T215 68H227Q323 211 381 313T466 485T493 597Q493 628
488 652T469 699Q500 716 518 721T556 726Q584 726 600 703T617 638Q617 601 600 545T547 414T458 247T333 46L352 12Q340 0 319 -9T272 -24T224 -30Z" />
<glyph unicode="W" horiz-adv-x="980" d="M177 -30Q132 -30 117 8T102 108Q102 197 103 283T99 448T76 590T20 699Q58 726 101 726Q152 726 178 690T215 570T225 342Q225 257 225 206T225 129T225 90T224 68H237Q324 175 378 267T462 429T502 538T513 578Q513
590 506 606T492 637T483 659Q503 678 515 684T542 690Q574 690 594 668T615 606Q615 576 606 544T579 473T533 385T468 270Q415 176 374 117T300 26T238 -18T177 -30ZM608 -30Q564 -30 542 -10T511 47T500 127L461 659Q472 673 493 681T542 690L572 617L591 68H603Q694
211 749 313T829 485T854 597Q854 628 848 652T828 699Q859 716 877 721T917 726Q946 726 962 703T979 638Q979 601 962 545T911 414T827 247T710 46L728 12Q717 0 697 -9T654 -24T608 -30Z" />
<glyph unicode="X" horiz-adv-x="769" d="M612 -30Q582 -30 558 -17T510 27T459 108L242 512Q217 559 193 588T143 634T85 662Q104 692 132 709T192 727Q223 727 247 714T295 670T346 588L563 184Q589 137 612 108T661 63T718 34Q700 4 672 -13T612 -30ZM105 -30Q75
-30 58 -9T40 46Q40 70 53 96T103 159T209 250L366 374L401 309Q277 224 225 157T172 42Q172 29 175 18T182 -3Q172 -13 150 -21T105 -30ZM426 322L390 388Q515 474 567 540T620 654Q620 681 611 699Q621 709 642 717T687 726Q717 726 734 705T752 649Q752 628
739 602T690 538T585 447L426 322Z" />
<glyph unicode="Y" horiz-adv-x="793" d="M89 -242Q16 -242 -17 -216T-51 -148Q-51 -132 -44 -115T-30 -86Q-18 -100 -1 -114T45 -139T118 -149Q156 -149 207 -132T315 -79T426 17T524 158T594 350T621 597Q621 628 616 652T597 699Q628 716 646 721T684 726Q712
726 728 702T745 637Q745 555 730 469T686 297T615 132T517 -16T396 -134T253 -213T89 -242ZM398 -30Q333 -30 292 -6T229 61T196 159T184 275T180 399T174 518T153 622T107 699Q143 726 182 726Q231 726 257 696T295 616T308 503T310 373T313 243T332 130T379
49T468 19L398 -30Z" />
<glyph unicode="Z" horiz-adv-x="654" d="M224 87L113 107L429 584L574 614L224 87ZM467 -30Q430 -30 394 -25T310 -7T192 32Q163 3 140 -9T90 -22Q63 -22 45 -5T27 39Q27 81 61 108T149 135Q178 135 219 125T305 102T393 78T467 68L576 127Q590 106 595 91T601
62Q601 36 583 15T535 -18T467 -30ZM374 564Q278 564 219 574T132 607T105 665Q105 683 110 701T123 732Q162 716 205 703T294 679T383 662T463 653Q479 685 508 705T566 726Q601 726 620 711T639 666Q639 614 575 589T374 564Z" />
<glyph unicode="[" horiz-adv-x="397" d="M190 -156Q155 -156 131 -142T94 -91T81 15Q81 101 89 188T115 372T159 584Q179 671 202 718T258 782T340 800Q372 800 395 793T432 770T445 732Q445 726 445 718T442 699Q435 702 413 705T367 709T326 711Q298 641 275
548T236 349T210 136T201 -70Q217 -70 239 -68T281 -63T307 -58Q310 -67 311 -77T312 -93Q312 -122 282 -139T190 -156Z" />
<glyph unicode="\" horiz-adv-x="678" d="M453 -80Q402 -80 389 -22Q326 259 273 465T169 820Q180 828 195 832T223 836Q274 836 287 778Q350 498 404 292T507 -64Q496 -71 482 -75T453 -80Z" />
<glyph unicode="]" horiz-adv-x="397" d="M218 800Q253 800 277 786T314 736T327 629Q327 543 319 456T293 272T249 60Q230 -27 207 -73T151 -138T68 -156Q36 -156 13 -149T-24 -126T-37 -88Q-37 -82 -36 -74T-34 -55Q-26 -58 -5 -60T42 -65T82 -67Q110 3 133
96T172 295T198 508T207 714Q192 714 170 712T128 708T101 702Q98 711 97 721T96 737Q96 766 126 783T218 800Z" />
<glyph unicode="^" horiz-adv-x="687" d="M190 451Q183 451 172 457T148 475T118 505L379 893Q395 917 407 927T429 938H464Q475 938 482 929T499 893L637 505Q618 488 600 476T568 458T547 451Q536 451 528 461T511 497L406 793L436 789L240 497Q224 472 213
462T190 451Z" />
<glyph unicode="_" horiz-adv-x="659" d="M47 -175Q7 -175 -8 -165T-23 -128Q-23 -110 -18 -90T-5 -48Q12 -55 42 -60T112 -66Q146 -66 190 -61T285 -50T387 -38T486 -33Q527 -33 542 -43T557 -81Q557 -98 552 -117T538 -161Q522 -153 492 -148T422 -143Q388 -143
344 -148T249 -159T147 -170T47 -175Z" />
<glyph unicode="`" horiz-adv-x="600" d="M300 671Q284 671 259 681T201 704T129 727T47 737Q43 748 41 761T38 791Q38 852 92 852Q118 852 141 839T190 806T252 763T337 722Q333 697 324 684T300 671Z" />
<glyph unicode="a" horiz-adv-x="748" d="M258 -25Q204 -25 163 4T99 86T76 210Q76 293 105 363T187 487T309 570T460 600Q506 600 554 592Q560 582 563 570T566 545Q479 545 411 520T296 450T224 344T199 213Q199 145 227 107T306 69Q399 69 459 188T549 545Q560
559 577 567T613 575Q638 575 652 564T667 530Q667 497 655 447T628 333T601 199T589 55Q589 20 607 3Q591 -12 574 -18T540 -25Q506 -25 488 -4T470 57Q470 70 472 85T477 117L467 122Q431 52 377 14T258 -25Z" />
<glyph unicode="b" horiz-adv-x="747" d="M223 -25Q190 -25 162 -16T117 21T100 104Q100 140 107 198T128 333T160 497T199 681L155 731Q180 751 212 762T270 774Q299 774 311 762T323 719Q323 686 304 614T262 446L272 441Q310 517 366 558T489 600Q544 600 584
573T648 495T671 377Q671 292 637 219T542 91T399 6T223 -25ZM198 40Q273 43 337 68T448 137T521 238T548 362Q548 430 520 468T441 506Q395 506 352 473T273 378T218 231T198 40Z" />
<glyph unicode="c" horiz-adv-x="620" d="M313 -25Q204 -25 141 39T78 217Q78 299 106 369T183 490T298 571T439 600Q502 600 538 580T575 523Q575 493 552 473T493 452Q459 452 428 468T377 524Q327 502 287 456T224 348T201 211Q201 132 230 87T312 42Q355 42
387 63T439 121T461 202Q499 202 520 188T542 141Q542 96 511 58T428 -2T313 -25Z" />
<glyph unicode="d" horiz-adv-x="747" d="M257 -25Q203 -25 162 4T98 86T75 210Q75 287 104 353T186 469T308 547T459 575Q513 575 553 567Q559 557 562 546T565 520Q480 520 413 498T297 434T224 337T198 213Q198 145 226 107T305 69Q341 69 377 90T444 153T495
250L486 114L466 122Q430 52 376 14T257 -25ZM535 -25Q504 -25 488 -6T472 54Q472 72 476 112T489 207T507 325T527 453T548 577T567 682L523 732Q548 752 580 763T638 775Q666 775 678 763T690 720Q690 695 680 648T655 535T625 393T599 233T589 64Q589 46 594
29T610 3Q595 -10 577 -17T535 -25Z" />
<glyph unicode="e" horiz-adv-x="650" d="M304 -25Q198 -25 138 40T78 219Q78 302 105 371T181 492T296 571T440 600Q519 600 563 563T608 457Q608 386 557 336T409 259T173 232L185 288Q334 287 416 332T499 460Q499 495 479 516T423 537Q378 537 338 512T268
443T220 339T202 213Q202 134 232 88T314 42Q379 42 420 83T465 192Q503 192 524 178T546 132Q546 92 514 56T428 -2T304 -25Z" />
<glyph unicode="f" horiz-adv-x="433" d="M170 -200Q139 -200 122 -180T104 -122Q104 -67 130 71T206 445Q202 490 200 528T197 601Q197 670 216 710T268 769T339 787Q379 787 405 766T431 711Q431 680 410 660T353 639Q331 639 311 645T274 667L264 660L318 415Q297
337 280 258T250 105T230 -26T223 -120Q223 -158 245 -173Q202 -200 170 -200ZM103 359Q96 375 96 392Q96 417 111 431T152 453T208 460Q231 460 265 464T336 475T403 492Q410 476 410 459Q410 435 395 420T354 398T298 391Q275 391 241 387T171 376T103 359Z"
/>
<glyph unicode="g" horiz-adv-x="672" d="M158 -235Q86 -235 42 -211T-3 -148Q-3 -128 10 -107T44 -70Q67 -110 100 -129T182 -149Q220 -149 266 -130T359 -64T441 62T497 261T511 545Q535 565 548 571T575 578Q617 578 617 540Q617 419 602 305T554 93T467 -78T337
-193T158 -235ZM232 4Q176 4 134 33T69 114T45 235Q45 312 70 378T145 494T264 572T422 600Q474 600 516 592Q522 582 525 571T528 545Q445 545 379 523T265 460T193 364T168 242Q168 169 197 129T280 88Q304 88 334 100T395 143T452 225T494 356T510 545L515 147H451Q415
79 355 42T232 4Z" />
<glyph unicode="h" horiz-adv-x="737" d="M151 -25Q115 -25 99 -7T82 46Q82 67 89 114T107 225T134 366T164 523T195 682L151 732Q175 752 207 763T266 775Q294 775 306 763T318 720Q318 696 309 657T286 558T253 415L263 410Q302 481 348 522T443 582T535 600Q599
600 631 568T663 467Q663 421 653 371T628 268T604 162T593 55Q593 39 596 25T606 3Q575 -25 542 -25Q506 -25 491 -7T475 46Q475 87 484 139T506 246T528 350T538 434Q538 472 524 493T477 515Q433 515 385 482T295 387T227 242T201 55Q201 39 204 25T213 3Q184
-25 151 -25Z" />
<glyph unicode="i" horiz-adv-x="388" d="M171 -25Q137 -25 120 -8T103 46Q103 66 107 101T122 190T148 322T189 508L145 558Q170 578 201 589T258 600Q287 600 300 588T313 545Q313 538 307 511T290 441T268 348T246 244T229 143T222 55Q222 36 226 23T240 2Q207
-25 171 -25ZM260 685Q228 685 209 701T190 742Q190 762 201 779T232 806T279 817Q312 817 330 802T349 761Q349 740 338 723T306 695T260 685Z" />
<glyph unicode="j" horiz-adv-x="397" d="M48 -210Q11 -210 -7 -190T-25 -142Q-25 -110 -4 -92T54 -74Q78 -74 95 -84T124 -103L133 -88Q122 -76 115 -63T105 -34T102 4Q102 28 110 79T131 199T158 348T185 508L141 558Q165 578 197 589T254 600Q283 600 295 588T308
545Q308 538 303 506T288 426T268 318T244 196T219 73T197 -39Q186 -92 166 -130T117 -189T48 -210ZM255 695Q224 695 205 708T185 743Q185 760 196 774T227 798T274 807Q306 807 325 794T344 760Q344 742 333 727T301 704T255 695Z" />
<glyph unicode="k" horiz-adv-x="647" d="M183 156L194 216L333 326Q374 360 409 396T466 469T488 545Q488 553 487 561T483 578Q497 589 515 594T549 600Q578 600 595 582T612 533Q612 481 563 423T407 298L183 156ZM162 -25Q132 -25 116 -6T100 54Q100 72 104
112T117 207T135 325T155 453T176 577T195 682L151 732Q175 752 207 763T266 775Q294 775 306 763T318 720Q318 695 308 648T283 535T253 393T227 233T217 64Q217 46 222 29T237 3Q223 -10 204 -17T162 -25ZM542 -25Q504 -25 476 -2T414 84L309 274L403 343L504
159Q528 117 555 85T635 33Q618 4 593 -10T542 -25Z" />
<glyph unicode="l" horiz-adv-x="375" d="M162 -25Q132 -25 116 -6T100 54Q100 72 104 112T117 207T135 325T155 453T176 577T195 682L151 732Q175 752 207 763T266 775Q294 775 306 763T318 720Q318 706 311 668T292 574T268 454T244 320T225 186T217 64Q217
46 222 29T237 3Q223 -10 204 -17T162 -25Z" />
<glyph unicode="m" horiz-adv-x="1117" d="M172 -25Q136 -25 120 -7T104 46Q104 68 109 107T124 196T144 300T168 406T191 500L146 550Q171 572 203 584T261 597Q291 597 303 585T315 542Q315 516 307 484T284 422L294 417Q347 518 408 559T540 600Q605 600 632
565T660 474Q660 463 659 450T653 422L663 417Q718 518 780 559T915 600Q980 600 1012 568T1044 467Q1044 421 1034 371T1009 268T985 162T974 55Q974 39 977 25T986 3Q957 -25 924 -25Q888 -25 872 -6T855 48Q855 89 864 140T887 247T909 351T919 434Q919 472
905 493T857 515Q816 515 771 482T686 387T623 242T598 55Q598 39 601 25T611 3Q582 -25 548 -25Q512 -25 496 -6T480 48Q480 89 489 140T512 247T534 351T544 434Q544 472 530 493T482 515Q440 515 395 482T311 387T248 242T223 55Q223 39 226 25T235 3Q206 -25
172 -25Z" />
<glyph unicode="n" horiz-adv-x="758" d="M172 -25Q138 -25 121 -8T104 46Q104 68 111 116T130 228T158 362T191 500L146 550Q171 572 203 584T261 597Q291 597 303 585T315 542Q315 516 307 484T284 422L294 417Q344 506 409 553T556 600Q621 600 652 568T684
467Q684 421 674 371T649 268T625 162T614 55Q614 19 627 3Q597 -25 563 -25Q529 -25 513 -8T496 46Q496 87 505 139T527 246T549 350T559 434Q559 475 544 495T498 515Q454 515 414 489T339 418T278 314T238 189T223 55Q223 18 235 3Q205 -25 172 -25Z" />
<glyph unicode="o" horiz-adv-x="725" d="M321 -25Q248 -25 194 7T111 99T81 238Q81 318 106 384T179 499T290 573T431 600Q452 600 470 599T508 592Q515 582 517 571T521 545Q419 545 349 504T242 393T205 231Q205 143 238 93T332 42Q392 42 439 75T516 169T555
311Q514 337 496 368T477 441Q477 467 487 487T516 518T557 530Q603 530 629 489T655 375Q655 291 630 219T558 92T452 6T321 -25Z" />
<glyph unicode="p" horiz-adv-x="769" d="M311 0Q261 0 216 8Q210 19 207 30T204 55Q315 55 398 93T526 201T572 362Q572 430 544 468T464 506Q412 506 369 458T291 318T228 94L252 475L304 437Q339 515 394 557T512 600Q567 600 608 571T671 489T694 365Q694
288 665 222T584 106T462 28T311 0ZM159 -200Q128 -200 112 -180T96 -117Q96 -97 103 -40T124 103T154 292T191 507L147 557Q171 577 203 588T262 600Q291 600 302 588T314 545Q314 520 304 473T279 360T249 218T223 57T213 -112Q213 -131 219 -147T234 -172Q219
-185 200 -192T159 -200Z" />
<glyph unicode="q" horiz-adv-x="737" d="M477 -199Q449 -199 437 -187T425 -144Q425 -113 441 -44T477 117L467 122Q431 52 377 14T258 -25Q204 -25 163 4T99 86T76 210Q76 293 105 363T187 487T309 570T460 600Q509 600 554 592Q560 582 563 570T566 545Q479
545 411 520T296 450T224 344T199 213Q199 145 227 107T306 69Q353 69 396 103T474 200T529 350T549 545Q563 562 581 568T613 575Q638 575 652 564T667 530Q667 503 656 441T627 293T588 104T548 -106L592 -156Q567 -176 535 -187T477 -199Z" />
<glyph unicode="r" horiz-adv-x="492" d="M171 -25Q137 -25 120 -5T103 58Q103 79 110 127T130 239T158 371T190 500L146 550Q172 572 197 584T245 597Q275 597 287 581T299 542Q299 508 288 471T258 389L268 384Q300 459 332 507T398 578T465 601Q497 601 514
587T531 542Q531 508 505 489T437 469Q397 469 359 434T289 340T240 207T222 55Q222 18 234 3Q204 -25 171 -25Z" />
<glyph unicode="s" horiz-adv-x="618" d="M267 -25Q202 -25 154 -13T80 22T54 77Q54 97 66 115T100 145Q126 95 168 69T260 42Q307 42 343 53T399 88T420 147Q420 174 396 191T335 222T255 250T176 284T114 334T90 411Q90 453 111 487T173 547T268 586T389 600Q469
600 520 577T572 515Q572 478 548 459T485 440Q447 440 420 464T379 534Q297 525 251 495T204 424Q204 399 228 382T289 352T368 324T448 289T509 239T533 162Q533 123 515 89T463 30T379 -10T267 -25Z" />
<glyph unicode="t" horiz-adv-x="446" d="M210 -25Q192 -25 177 -19T153 6T143 60Q143 103 152 156T176 266T205 379T229 484T239 570Q239 592 236 614T227 659Q244 677 272 687T327 698Q356 698 369 685T382 642Q382 614 370 569T340 466T304 342T274 206T262
65L294 11Q275 -8 253 -16T210 -25ZM159 438Q133 438 123 448T112 477Q112 488 115 500T128 526Q145 521 172 519T219 517Q269 517 320 528T424 539Q451 539 460 529T470 499Q470 489 467 477T454 452Q438 457 412 459T366 461Q317 461 265 450T159 438Z" />
<glyph unicode="u" horiz-adv-x="742" d="M256 -25Q174 -25 135 15T96 137Q96 181 103 229T121 325T138 416T146 496Q146 518 143 537T135 573Q155 585 177 592T213 600Q242 600 255 585T269 535Q269 513 263 476T247 393T229 303T214 221T207 164Q207 107 231
78T302 49Q361 49 411 92T489 212L482 60L447 78Q426 48 394 25T326 -12T256 -25ZM524 -25Q490 -25 474 -2T457 70Q457 97 465 149T492 287T539 498L498 558Q512 570 531 579T572 594T611 600Q641 600 653 588T666 545Q666 538 660 511T643 441T622 348T600 244T583
143T576 55Q576 17 593 2Q563 -25 524 -25Z" />
<glyph unicode="v" horiz-adv-x="657" d="M258 -25Q212 -25 186 -7T148 57T137 180Q137 240 138 298T136 408T119 503T76 575Q108 600 147 600Q189 600 211 571T243 475T252 291Q252 225 252 184T252 120T252 83T252 61H262Q343 176 393 259T466 400T489 492Q489
541 468 575Q494 589 511 594T548 600Q574 600 589 581T604 526Q604 496 590 452T545 349T470 214T365 48L380 18Q368 6 348 -4T304 -19T258 -25Z" />
<glyph unicode="w" horiz-adv-x="914" d="M212 -25Q170 -25 155 1T140 101Q140 173 141 242T138 374T120 488T76 575Q108 600 147 600Q189 600 211 571T243 475T252 291Q252 225 252 184T252 120T252 83T251 61H261Q327 144 369 217T433 347T464 436T473 472Q473
483 465 497T448 524T436 545Q456 559 470 564T500 570Q529 570 545 551T562 498Q562 463 549 424T509 334T445 214Q405 141 374 95T316 22T264 -14T212 -25ZM558 -25Q521 -25 501 -8T473 42T462 115L431 544Q443 557 461 563T500 570L526 510L542 61H552Q622 176
664 259T726 400T746 492Q746 541 726 575Q751 589 768 594T806 600Q832 600 846 581T861 526Q861 496 849 452T810 349T746 214T654 48L670 18Q658 6 640 -4T600 -19T558 -25Z" />
<glyph unicode="x" horiz-adv-x="654" d="M515 -25Q490 -25 469 -14T429 22T388 89L208 416Q187 454 168 477T127 516T77 541Q94 570 120 585T174 600Q200 600 221 589T261 553T302 485L481 159Q502 122 521 98T563 58T612 33Q595 5 570 -10T515 -25ZM97 -25Q71
-25 55 -7T39 42Q39 63 51 86T95 141T185 215L311 313L345 252Q246 185 204 131T161 38Q161 27 163 18T169 0Q158 -10 138 -17T97 -25ZM368 263L334 324Q433 392 476 445T519 537Q519 549 517 558T511 575Q522 586 542 593T582 601Q609 601 625 583T641 533Q641
513 629 490T586 435T495 361L368 263Z" />
<glyph unicode="y" horiz-adv-x="666" d="M67 -200Q2 -200 -28 -178T-58 -118Q-58 -103 -52 -87T-38 -61Q-27 -73 -12 -85T27 -106T90 -115Q123 -115 167 -101T260 -57T354 22T438 142T497 306T520 520Q520 532 520 548T518 575Q541 589 556 594T588 600Q609 600
624 588T639 540Q639 463 622 379T570 211T486 54T373 -77T233 -167T67 -200ZM328 -25Q263 -25 226 1T171 71T148 170T141 284T137 399T120 501T76 575Q108 600 145 600Q189 600 212 576T245 510T257 417T259 310T261 204T276 111T316 45T393 20L328 -25Z" />
<glyph unicode="z" horiz-adv-x="602" d="M217 76L111 97L374 471L511 496L217 76ZM410 -25Q348 -25 295 -10T185 25Q160 2 139 -8T92 -18Q64 -18 49 0T34 42Q34 64 47 84T86 117T151 131Q174 131 207 122T278 101T350 80T410 71L510 124Q519 109 525 94T531 61Q531
36 515 17T471 -14T410 -25ZM322 447Q242 448 193 458T122 490T99 550Q99 560 101 572T110 605Q143 591 183 578T263 555T339 538T397 530Q411 562 438 581T494 600Q526 600 544 585T563 542Q563 520 550 502T508 472T433 454T322 447Z" />
<glyph unicode="{" horiz-adv-x="357" d="M147 -156Q95 -156 69 -127T43 -38Q43 3 52 60T81 181T130 308Q120 305 108 305Q90 305 76 316T62 347Q62 363 75 374T106 386Q127 386 140 374Q141 403 141 442T142 522T143 591Q143 663 156 705T192 767T243 794T299
800Q347 800 374 783T401 732Q401 726 401 718T399 699Q392 702 370 705T324 709T285 711Q273 617 261 555T234 453T202 388T163 341Q184 317 196 284T208 213Q208 207 207 194T201 151T188 68T161 -70Q177 -70 199 -68T242 -63T268 -58Q271 -67 272 -77T274 -93Q274
-122 243 -139T147 -156Z" />
<glyph unicode="|" horiz-adv-x="447" d="M121 -180Q93 -180 82 -167T70 -122L273 782L261 853Q280 867 303 873T346 880Q373 880 385 867T397 822L194 -82L206 -153Q187 -166 164 -173T121 -180Z" />
<glyph unicode="}" horiz-adv-x="357" d="M221 800Q274 800 299 771T325 682Q325 641 316 584T288 463T238 336Q249 339 260 339Q278 339 292 328T306 297Q306 281 293 270T262 258Q242 258 228 270Q227 241 227 202T226 123T225 53Q225 -19 212 -61T176 -123T126
-150T69 -156Q21 -156 -6 -139T-33 -88Q-33 -82 -33 -74T-31 -55Q-23 -58 -2 -60T44 -65T83 -67Q95 27 107 89T134 191T166 256T205 303Q184 327 172 360T160 431Q160 437 161 450T167 493T181 576T207 714Q192 714 169 712T127 708T100 702Q97 711 96 721T94 737Q94
766 125 783T221 800Z" />
<glyph unicode="~" horiz-adv-x="712" d="M187 287Q157 287 145 297T133 337Q133 349 138 365T151 402Q208 402 268 410T383 430T483 450T552 459Q583 459 594 449T606 409Q606 397 601 381T588 344Q532 344 472 336T356 316T256 296T187 287Z" />
<glyph unicode="&#xa0;" horiz-adv-x="324" />
<glyph unicode="&#xa1;" horiz-adv-x="364" d="M220 326Q243 326 251 313T259 279Q259 260 254 226T241 151T226 66T213 -17T207 -84Q207 -103 210 -126T226 -164Q207 -182 182 -191T126 -200Q85 -200 68 -176T50 -114Q50 -93 58 -53T79 36T108 137T139 232T165
304Q177 315 193 320T220 326ZM263 600Q293 600 313 580T334 531Q334 509 324 490T295 459T251 447Q220 447 200 467T180 516Q180 538 191 557T221 588T263 600Z" />
<glyph unicode="&#xa2;" horiz-adv-x="568" d="M290 74Q190 74 134 129T77 284Q77 353 101 412T170 514T273 581T399 605Q456 605 489 587T522 536Q522 509 502 491T450 473Q419 473 391 487T344 536Q300 518 265 481T210 392T190 279Q190 211 217 173T290 134Q328
134 357 152T403 200T421 269Q456 269 476 256T496 214Q496 176 468 144T394 93T290 74ZM242 -72Q228 -72 214 -69T186 -58Q197 -20 207 21T229 107H324Q319 79 314 50T303 -10Q291 -69 242 -72ZM330 570Q339 608 348 647T366 728Q381 786 430 786Q444 786 458
782T484 770Q469 725 454 675T424 570H330Z" />
<glyph unicode="&#xa3;" horiz-adv-x="606" d="M444 -30Q411 -30 378 -25T302 -6T197 33Q168 3 145 -9T94 -22Q67 -22 49 -4T31 40Q31 82 65 109T153 137Q177 137 214 127T294 103T376 80T444 69L553 129Q567 107 573 92T579 63Q579 37 561 16T513 -18T444 -30ZM141
73L178 470Q190 596 250 647T416 699Q502 699 551 675T601 600Q601 588 598 575T588 543Q545 565 475 577T324 590L232 74L141 73ZM125 297Q97 297 87 306T76 334Q76 343 79 355T93 380Q111 374 139 373T190 371Q242 371 296 381T406 391Q434 391 443 382T453 355Q453
344 451 333T438 309Q421 314 393 316T345 318Q309 318 273 313T200 302T125 297Z" />
<glyph unicode="&#xa4;" horiz-adv-x="653" d="M311 132Q222 132 172 182T122 312Q122 380 156 431T250 510T389 539Q469 539 512 489T556 359Q556 317 539 277T488 204T410 152T311 132ZM116 20Q104 20 91 25T67 40T47 59Q81 103 117 151T191 254L260 195Q239
162 218 129T173 58Q160 39 147 30T116 20ZM458 20Q428 20 408 58Q391 95 374 128T341 195L436 227Q462 181 486 139T533 59Q524 49 511 40T484 26T458 20ZM312 210Q358 210 387 234T431 297T446 378Q446 401 438 420T409 450T345 461Q335 461 325 461T304 459Q267
425 250 384T232 307Q232 267 252 239T312 210ZM240 441Q220 478 205 505T174 557T140 612Q150 623 163 631T190 645T216 651Q247 651 266 614Q278 590 285 574T300 542T318 504L240 441ZM497 444L408 476Q429 509 451 543T496 614Q521 651 552 651Q564 651 577
646T602 632T621 612Q593 575 561 533T497 444Z" />
<glyph unicode="&#xa5;" horiz-adv-x="628" d="M320 221Q268 221 246 254T217 372Q211 436 202 494T173 599T115 675Q149 700 192 700Q235 700 261 671T303 589T328 466T344 314H349Q380 344 408 383T458 462T492 540T505 606Q505 645 479 675Q508 690 526 695T562
700Q591 700 607 682T624 634Q624 588 604 533T550 422T476 322T395 249T320 221ZM142 177Q114 177 104 186T94 214Q94 223 97 235T110 260Q128 254 156 253T206 251Q226 251 247 253T290 258L284 192Q250 188 214 183T142 177ZM290 -25Q258 -25 243 -8T228 50Q228
74 233 107T251 189T282 310H407Q385 222 371 164T357 62Q357 42 360 28T373 1Q349 -12 330 -18T290 -25ZM165 313Q137 313 127 322T117 350Q117 359 120 371T133 396Q151 390 179 389T230 387Q248 387 266 389T304 392L297 327Q265 323 232 318T165 313ZM548 189Q531
194 504 195T456 197Q432 197 406 196T353 192L360 258Q398 263 437 267T516 272Q545 272 555 262T565 235Q565 225 562 213T548 189ZM570 325Q553 330 526 331T477 333Q461 333 444 333T408 332L429 397Q456 402 483 405T538 408Q567 408 577 398T587 371Q587
361 584 349T570 325Z" />
<glyph unicode="&#xa6;" horiz-adv-x="447" d="M202 465L273 782L261 853Q280 867 303 873T346 880Q373 880 385 867T397 822L317 465H202ZM121 -180Q93 -180 82 -167T70 -122L150 236H265L194 -82L206 -153Q187 -166 164 -173T121 -180Z" />
<glyph unicode="&#xa7;" horiz-adv-x="708" d="M446 93L359 159Q421 176 455 205T489 275Q489 306 464 326T397 363T311 397T225 439T159 499T133 589Q133 631 152 668T209 734T301 779T426 795Q496 795 548 781T630 740T660 673Q660 651 649 632T619 600Q591
660 541 691T432 722Q357 722 308 695T259 611Q259 578 285 557T351 518T437 484T523 442T590 382T616 289Q616 246 596 208T537 141T446 93ZM286 -187Q216 -187 164 -173T82 -131T52 -65Q52 -43 63 -24T94 8Q123 -52 172 -83T280 -114Q355 -114 404 -86T454 -3Q454
30 428 51T362 90T275 124T189 166T122 227T96 319Q96 359 112 393T161 456T237 504L347 448Q288 431 256 401T223 333Q223 302 248 282T315 245T401 212T487 170T553 110T579 19Q579 -23 560 -60T503 -126T411 -171T286 -187Z" />
<glyph unicode="&#xa8;" horiz-adv-x="600" d="M470 685Q440 685 422 701T404 742Q404 762 414 779T444 806T488 817Q517 817 534 802T552 761Q552 729 529 707T470 685ZM206 685Q177 685 160 701T143 742Q143 762 153 779T182 806T225 817Q255 817 273 802T291
761Q291 740 280 723T250 695T206 685Z" />
<glyph unicode="&#xa9;" horiz-adv-x="896" d="M424 150Q359 150 299 171T190 235T113 342T85 493Q85 614 141 704T299 845T537 896Q584 896 607 888T639 862T650 818Q733 773 772 700T811 546Q811 448 778 374T688 250T564 175T424 150ZM423 213Q501 213 562
241T667 316T733 423T756 543Q756 590 739 638T688 726T602 790T480 815Q389 815 315 779T198 672T154 494Q154 398 191 336T290 243T423 213ZM433 321Q365 321 327 360T288 472Q288 525 305 570T354 648T426 700T515 719Q553 719 575 707T597 673Q597 654 583
642T547 630Q526 630 507 639T475 674Q440 659 413 629T371 558T355 468Q355 416 375 387T431 358Q459 358 480 371T513 408T528 461Q548 461 559 453T571 425Q571 396 552 373T502 335T433 321Z" />
<glyph unicode="&#xaa;" horiz-adv-x="535" d="M205 333Q150 333 116 376T81 491Q81 572 118 635T218 734T355 770Q386 770 416 764Q420 756 422 745T424 722Q345 722 293 694T214 617T188 509Q188 467 206 444T255 421Q315 421 352 496T408 722Q433 753 472 753Q515
753 515 711Q515 690 508 657T490 582T473 495T465 405Q465 390 469 378T481 359Q465 346 450 340T417 333Q388 333 373 350T357 399Q357 407 358 415T361 434L354 437Q329 388 290 361T205 333Z" />
<glyph unicode="&#xab;" horiz-adv-x="629" d="M471 25Q445 57 417 95T363 170T323 238T307 288Q307 312 317 334T353 383T425 450T542 549Q547 549 560 545T584 529T595 495Q595 475 577 453T528 406T458 355T374 300Q427 247 462 210T516 144T534 85Q534 65
527 52T506 32T471 25ZM219 25Q193 57 165 95T111 170T71 238T55 288Q55 312 65 334T101 383T173 450T290 549Q295 549 308 545T332 529T343 495Q343 475 325 453T276 406T206 355T124 300Q176 247 211 210T265 144T283 85Q283 65 276 52T254 32T219 25Z" />
<glyph unicode="&#xac;" horiz-adv-x="706" d="M475 86Q453 86 447 99T446 148L489 431L597 391L554 104Q529 96 509 91T475 86ZM198 315Q163 315 150 324T136 355Q136 369 141 388T154 430H535Q570 430 583 422T597 391L579 315H198Z" />
<glyph unicode="&#xad;" horiz-adv-x="505" d="M115 231Q94 231 81 241T67 282Q67 312 85 345Q98 343 108 342T131 341Q167 341 200 346T265 360T329 373T395 379Q416 379 430 369T444 329Q444 316 440 300T425 266Q413 268 403 269T380 270Q343 270 310 264T246
251T182 237T115 231Z" />
<glyph unicode="&#xae;" horiz-adv-x="896" d="M424 150Q359 150 299 171T190 235T113 342T85 493Q85 614 141 704T299 845T537 896Q584 896 607 888T639 862T650 818Q733 773 772 700T811 546Q811 448 778 374T688 250T564 175T424 150ZM423 213Q501 213 562
241T667 316T733 423T756 543Q756 590 739 638T688 726T602 790T480 815Q389 815 315 779T198 672T154 494Q154 398 191 336T290 243T423 213ZM449 465Q419 465 397 472T352 499L364 524Q377 514 393 510T426 506Q461 506 486 518T525 551T539 600Q539 619 532
636T507 664T460 675Q439 675 418 666T373 638V660Q389 677 405 690T443 710T494 718Q530 718 555 703T593 662T606 607Q606 582 597 557T568 511T519 478T449 465ZM340 320Q320 320 311 330T302 363Q302 379 304 401T310 457T323 541T343 664L327 697Q344 707
360 713T390 719Q413 719 413 691Q413 686 410 666T402 616T391 552T380 485T371 425T368 381Q368 365 371 354T381 334Q360 320 340 320ZM566 321Q550 321 539 328T516 354T487 411L454 484L511 507Q528 468 545 434T580 375T610 338Q606 333 598 330T582 324T566
321Z" />
<glyph unicode="&#xaf;" horiz-adv-x="600" d="M150 703Q107 703 107 750Q107 765 114 789T130 827Q141 822 159 819T193 815Q237 815 283 819T378 823Q447 823 447 776Q447 761 445 748T434 715Q426 719 407 721T369 724Q317 724 259 714T150 703Z" />
<glyph unicode="&#xb0;" horiz-adv-x="493" d="M262 258Q180 258 132 307T84 439Q84 508 116 560T205 642T336 672Q349 672 364 670T389 663Q392 660 393 653T395 636Q441 625 464 589T487 492Q487 426 457 373T377 289T262 258ZM267 322Q301 322 327 343T368
401T384 485Q384 592 288 592Q277 592 266 590T243 584Q216 554 202 512T187 430Q187 380 209 351T267 322Z" />
<glyph unicode="&#xb1;" horiz-adv-x="707" d="M313 142Q291 142 285 155T284 204L345 585Q395 603 423 603Q446 603 451 590T452 541L392 160Q367 152 348 147T313 142ZM199 315Q164 315 151 324T137 355Q137 369 142 388T155 430H536Q571 430 584 422T598 391Q598
362 580 315H199ZM126 -139Q91 -139 78 -130T64 -99Q64 -85 69 -66T82 -24H463Q498 -24 511 -32T525 -63Q525 -92 507 -139H126Z" />
<glyph unicode="&#xb2;" horiz-adv-x="453" d="M179 336L114 364Q184 398 228 433T294 503T316 567Q316 602 299 620T249 639Q215 639 190 614T159 542Q132 545 117 560T102 601Q102 651 148 680T270 710Q314 710 347 694T400 648T419 582Q419 541 396 503T319
425T179 336ZM115 272Q93 272 78 286T63 323Q63 354 88 374T154 395Q171 395 196 388T248 372T301 355T345 348L427 393Q436 377 439 365T443 341Q443 312 415 292T345 272Q309 272 274 282T187 308Q148 272 115 272Z" />
<glyph unicode="&#xb3;" horiz-adv-x="424" d="M190 272Q132 272 99 288T66 332Q66 352 79 365T114 379Q134 379 153 364T187 321Q235 321 264 341T293 394Q293 426 263 446T184 466V504Q234 504 268 525T302 578Q302 607 284 623T232 639Q201 639 178 617T148
557Q123 560 110 573T96 609Q96 654 137 682T245 710Q310 710 350 680T390 599Q390 561 367 532T302 489Q343 474 364 450T385 394Q385 358 360 331T291 288T190 272Z" />
<glyph unicode="&#xb4;" horiz-adv-x="600" d="M126 671Q113 671 104 683T89 721Q139 740 174 762T235 804T285 838T334 851Q388 851 388 790Q388 774 386 761T379 736Q336 736 298 726T226 704T167 681T126 671Z" />
<glyph unicode="&#xb5;" horiz-adv-x="742" d="M126 -200Q96 -200 80 -180T64 -117Q64 -97 71 -40T92 103T122 292T159 507L115 557Q138 577 170 588T230 600Q258 600 270 588T282 545Q282 528 275 489T256 400T234 300T215 207T207 142Q207 49 302 49Q361 49
411 92T489 212L482 60L447 78Q434 47 403 24T333 -10T255 -12T184 30Q171 -55 177 -102T201 -172Q187 -185 168 -192T126 -200ZM524 -25Q490 -25 474 -2T457 70Q457 97 465 149T492 287T539 498L498 558Q512 570 531 579T572 594T611 600Q641 600 653 588T666
545Q666 538 660 511T643 441T622 348T600 244T583 143T576 55Q576 17 593 2Q563 -25 524 -25Z" />
<glyph unicode="&#xb6;" horiz-adv-x="589" d="M353 -98Q307 -98 289 -70T270 1Q270 36 281 86T313 195T362 320T423 451H403Q369 393 328 365T234 336Q186 336 154 358T106 415T90 493Q90 535 105 577T152 655T230 712T339 734Q368 734 402 726T467 698T518 642T538
548Q538 501 522 438T483 300T445 147T428 -10Q428 -28 433 -43T448 -67Q424 -83 399 -90T353 -98Z" />
<glyph unicode="&#xb7;" horiz-adv-x="333" d="M141 220Q111 220 91 240T70 289Q70 312 80 331T109 361T153 373Q184 373 204 353T224 304Q224 282 213 263T183 232T141 220Z" />
<glyph unicode="&#xb8;" horiz-adv-x="600" d="M150 -287Q94 -287 61 -264T27 -203Q27 -179 44 -160T90 -129T154 -118Q133 -129 121 -148T108 -189Q108 -212 120 -223T158 -234Q191 -234 214 -212T237 -157Q237 -77 154 -39Q237 -39 284 -70T332 -158Q332 -194
308 -223T243 -269T150 -287Z" />
<glyph unicode="&#xb9;" horiz-adv-x="346" d="M191 272Q161 272 146 287T131 334Q131 354 135 388T146 461T160 535T173 595Q159 595 144 603T118 627T103 664Q148 672 176 683T224 702T262 710Q297 710 297 672Q297 653 288 616T268 532T248 440T239 355Q239
336 241 320T250 290Q219 272 191 272Z" />
<glyph unicode="&#xba;" horiz-adv-x="500" d="M265 333Q183 333 134 383T85 519Q85 593 117 649T207 738T337 770Q352 770 363 769T387 765Q391 756 392 745T394 719Q333 720 288 695T217 623T192 514Q192 454 215 422T282 390Q339 390 375 435T411 556Q411 600
401 632T369 690Q379 704 394 711T425 719Q458 719 479 687T500 602Q500 525 472 464T390 368T265 333Z" />
<glyph unicode="&#xbb;" horiz-adv-x="652" d="M182 560Q208 528 236 490T290 415T330 347T346 297Q346 273 336 251T300 202T228 135T111 36Q106 36 93 40T69 56T58 90Q58 110 76 132T125 179T196 230T279 285Q226 338 191 375T137 441T119 500Q119 521 126 534T147
553T182 560ZM434 560Q460 528 488 490T542 415T582 347T598 297Q598 273 588 251T552 202T480 135T363 36Q358 36 345 40T321 56T310 90Q310 110 328 132T377 179T447 230T529 285Q477 338 442 375T388 441T370 500Q370 521 377 534T399 553T434 560Z" />
<glyph unicode="&#xbc;" horiz-adv-x="1002" d="M191 272Q161 272 146 287T131 334Q131 354 135 388T146 461T160 535T173 595Q159 595 144 603T118 627T103 664Q148 672 176 683T224 702T262 710Q297 710 297 672Q297 653 288 616T268 532T248 440T239 355Q239
336 241 320T250 290Q219 272 191 272ZM297 -40Q283 -40 270 -36T246 -24Q296 71 351 183T468 432T601 738Q624 796 675 796Q689 796 702 792T726 780Q653 647 568 460T372 18Q346 -40 297 -40ZM663 35Q610 35 583 51T556 98Q556 115 571 140T609 194T653 255T691
316T707 373Q707 387 701 403Q715 409 730 412T757 415Q817 415 817 343Q817 296 771 237T632 103H859L836 56Q802 48 753 42T663 35ZM854 -23Q824 -23 808 -4T792 50Q792 72 801 111T826 197T861 284Q874 292 892 298T924 305Q940 305 945 302T951 287Q951 271
940 234T917 149T906 52Q906 40 909 25T917 -4Q898 -14 884 -18T854 -23Z" />
<glyph unicode="&#xbd;" horiz-adv-x="1049" d="M191 272Q161 272 146 287T131 334Q131 354 135 388T146 461T160 535T173 595Q159 595 144 603T118 627T103 664Q148 672 176 683T224 702T262 710Q297 710 297 672Q297 653 288 616T268 532T248 440T239 355Q239
336 241 320T250 290Q219 272 191 272ZM297 -40Q283 -40 270 -36T246 -24Q296 71 351 183T468 432T601 738Q624 796 675 796Q689 796 702 792T726 780Q653 647 568 460T372 18Q346 -40 297 -40ZM712 41L647 69Q717 103 761 138T827 208T849 272Q849 307 832 325T782
344Q748 344 723 319T692 247Q665 250 650 265T635 306Q635 356 681 385T803 415Q847 415 880 399T933 353T952 287Q952 246 929 208T852 130T712 41ZM648 -23Q626 -23 611 -9T596 28Q596 59 621 79T687 100Q704 100 729 93T781 77T834 60T878 53L960 98Q969 82
972 70T976 46Q976 17 948 -3T878 -23Q842 -23 807 -13T720 13Q681 -23 648 -23Z" />
<glyph unicode="&#xbe;" horiz-adv-x="1080" d="M190 272Q132 272 99 288T66 332Q66 352 79 365T114 379Q134 379 153 364T187 321Q235 321 264 341T293 394Q293 426 263 446T184 466V504Q234 504 268 525T302 578Q302 607 284 623T232 639Q201 639 178 617T148
557Q123 560 110 573T96 609Q96 654 137 682T245 710Q310 710 350 680T390 599Q390 561 367 532T302 489Q343 474 364 450T385 394Q385 358 360 331T291 288T190 272ZM375 -40Q361 -40 348 -36T324 -24Q374 71 429 183T546 432T679 738Q702 796 753 796Q767 796
780 792T804 780Q731 647 646 460T450 18Q424 -40 375 -40ZM741 35Q688 35 661 51T634 98Q634 115 649 140T687 194T731 255T769 316T785 373Q785 387 779 403Q793 409 808 412T835 415Q895 415 895 343Q895 296 849 237T710 103H937L914 56Q880 48 831 42T741
35ZM932 -23Q902 -23 886 -4T870 50Q870 72 879 111T904 197T939 284Q952 292 970 298T1002 305Q1018 305 1023 302T1029 287Q1029 271 1018 234T995 149T984 52Q984 40 987 25T995 -4Q976 -14 962 -18T932 -23Z" />
<glyph unicode="&#xbf;" horiz-adv-x="599" d="M249 334Q281 334 301 316T321 269Q279 266 241 248T172 200T124 129T106 41Q106 -18 137 -55T227 -92Q263 -92 298 -74T361 -20T400 74Q422 74 435 66T455 41T462 4Q462 -20 450 -54T408 -122T330 -177T207 -200Q121
-200 69 -166T-6 -79T-29 33Q-29 99 -5 154T61 250T151 312T249 334ZM319 600Q349 600 369 580T390 531Q390 509 380 490T351 459T307 447Q276 447 256 467T236 516Q236 538 247 557T277 588T319 600Z" />
<glyph unicode="&#xc0;" horiz-adv-x="693" d="M101 -24Q44 -24 44 59Q44 98 62 155T115 287T204 455T329 656L298 698Q327 716 352 724T407 732Q448 732 458 712Q482 732 510 732Q540 732 555 712T570 648Q570 602 569 544T568 420T572 291T582 170T604 69T641
2Q608 -24 564 -24Q529 -24 506 -6T470 56T451 174T445 361Q445 459 445 525T446 634H434Q342 497 284 392T197 212T169 88Q169 34 183 2Q166 -11 146 -17T101 -24ZM144 187L159 258H505L492 187H144ZM558 806Q542 806 517 816T459 839T387 862T305 872Q301 883
299 896T296 926Q296 987 350 987Q376 987 399 974T448 941T510 898T595 857Q591 832 582 819T558 806Z" />
<glyph unicode="&#xc1;" horiz-adv-x="693" d="M101 -24Q44 -24 44 59Q44 98 62 155T115 287T204 455T329 656L298 698Q327 716 352 724T407 732Q448 732 458 712Q482 732 510 732Q540 732 555 712T570 648Q570 602 569 544T568 420T572 291T582 170T604 69T641
2Q608 -24 564 -24Q529 -24 506 -6T470 56T451 174T445 361Q445 459 445 525T446 634H434Q342 497 284 392T197 212T169 88Q169 34 183 2Q166 -11 146 -17T101 -24ZM144 187L159 258H505L492 187H144ZM366 806Q353 806 344 818T329 856Q379 875 414 897T475 939T525
973T574 986Q628 986 628 925Q628 909 626 896T619 871Q576 871 538 861T466 839T407 816T366 806Z" />
<glyph unicode="&#xc2;" horiz-adv-x="693" d="M101 -24Q44 -24 44 59Q44 98 62 155T115 287T204 455T329 656L298 698Q327 716 352 724T407 732Q448 732 458 712Q482 732 510 732Q540 732 555 712T570 648Q570 602 569 544T568 420T572 291T582 170T604 69T641
2Q608 -24 564 -24Q529 -24 506 -6T470 56T451 174T445 361Q445 459 445 525T446 634H434Q342 497 284 392T197 212T169 88Q169 34 183 2Q166 -11 146 -17T101 -24ZM144 187L159 258H505L492 187H144ZM370 799Q349 799 338 807T327 828Q327 854 344 885T386 947T434
998Q452 1009 471 1016T526 1023Q554 1023 574 1011T596 970L600 883Q601 858 609 843T630 818Q612 808 596 804T561 799Q536 799 520 810T504 856Q504 888 506 918T516 973H501Q484 957 470 932T449 877T442 817Q435 810 415 805T370 799Z" />
<glyph unicode="&#xc3;" horiz-adv-x="693" d="M101 -24Q44 -24 44 59Q44 98 62 155T115 287T204 455T329 656L298 698Q327 716 352 724T407 732Q448 732 458 712Q482 732 510 732Q540 732 555 712T570 648Q570 602 569 544T568 420T572 291T582 170T604 69T641
2Q608 -24 564 -24Q529 -24 506 -6T470 56T451 174T445 361Q445 459 445 525T446 634H434Q342 497 284 392T197 212T169 88Q169 34 183 2Q166 -11 146 -17T101 -24ZM144 187L159 258H505L492 187H144ZM339 827Q308 827 297 838T285 875Q285 892 291 911T305 950Q320
945 336 941T368 937Q413 937 450 948T520 971T581 983Q613 983 624 972T635 935Q635 919 630 899T615 859Q601 864 585 868T552 872Q508 872 471 861T401 838T339 827Z" />
<glyph unicode="&#xc4;" horiz-adv-x="693" d="M101 -24Q44 -24 44 59Q44 98 62 155T115 287T204 455T329 656L298 698Q327 716 352 724T407 732Q448 732 458 712Q482 732 510 732Q540 732 555 712T570 648Q570 602 569 544T568 420T572 291T582 170T604 69T641
2Q608 -24 564 -24Q529 -24 506 -6T470 56T451 174T445 361Q445 459 445 525T446 634H434Q342 497 284 392T197 212T169 88Q169 34 183 2Q166 -11 146 -17T101 -24ZM144 187L159 258H505L492 187H144ZM591 820Q561 820 543 836T525 877Q525 897 535 914T565 941T609
952Q638 952 655 937T673 896Q673 864 650 842T591 820ZM327 820Q298 820 281 836T264 877Q264 897 274 914T303 941T346 952Q376 952 394 937T412 896Q412 875 401 858T371 830T327 820Z" />
<glyph unicode="&#xc5;" horiz-adv-x="693" d="M101 -24Q44 -24 44 59Q44 98 62 155T115 287T204 455T329 656L298 698Q327 716 352 724T407 732Q448 732 458 712Q482 732 510 732Q540 732 555 712T570 648Q570 602 569 544T568 420T572 291T582 170T604 69T641
2Q608 -24 564 -24Q529 -24 506 -6T470 56T451 174T445 361Q445 459 445 525T446 634H434Q342 497 284 392T197 212T169 88Q169 34 183 2Q166 -11 146 -17T101 -24ZM144 187L159 258H505L492 187H144ZM453 769Q388 769 349 805T311 902Q312 953 335 992T398 1052T492
1074Q557 1074 596 1039T634 941Q634 891 612 852T548 791T453 769ZM460 829Q496 829 519 861T543 942Q543 1015 486 1015Q474 1015 464 1014T439 1008Q420 988 411 962T401 906Q401 872 417 851T460 829Z" />
<glyph unicode="&#xc6;" horiz-adv-x="861" d="M98 -29Q70 -29 57 -9T44 47Q44 87 63 145T121 280T217 451T351 656L321 698Q350 713 375 719T430 726Q456 726 471 715T494 682L469 634H457Q357 495 293 388T198 203T167 76Q167 54 169 35T184 -2Q163 -19 141
-24T98 -29ZM144 187L159 258H485L472 187H144ZM680 -25Q619 -25 559 -10T457 33L490 75H714Q746 79 772 85T823 101Q828 86 829 77T831 57Q831 15 795 -5T680 -25ZM460 -26Q423 -26 406 -7T389 55Q389 84 393 126T406 233T430 396T469 634L435 684Q467 704 498
715T554 726Q598 726 598 673Q598 665 594 634T582 557T565 456T547 345T530 237T518 147T513 88Q513 63 524 45T560 12Q509 -26 460 -26ZM638 280Q610 280 581 285T513 300L527 369Q557 365 588 363T654 361L727 379Q728 373 728 367T728 355Q728 319 705 300T638
280ZM758 582Q719 582 681 585T606 597T530 619L554 679Q621 679 671 684T770 699T877 720Q881 707 881 697T882 678Q882 643 865 622T819 592T758 582Z" />
<glyph unicode="&#xc7;" horiz-adv-x="662" d="M328 -25Q200 -25 127 50T54 260Q54 360 87 445T179 593T316 691T483 726Q555 726 596 703T637 639Q637 605 610 582T543 558Q504 558 468 575T407 641Q342 614 291 557T211 422T182 252Q182 155 220 100T325 45Q378
45 417 71T479 141T507 240Q545 240 567 225T589 171Q589 118 554 73T459 2T328 -25ZM221 -45Q165 -45 132 -22T98 39Q98 63 115 82T161 113T225 124Q204 113 192 94T179 53Q179 30 191 19T229 8Q262 8 285 30T308 85Q308 165 225 203Q308 203 355 172T403 84Q403
48 379 19T314 -27T221 -45Z" />
<glyph unicode="&#xc8;" horiz-adv-x="580" d="M179 -26Q142 -26 125 -7T108 55Q108 84 111 125T124 230T148 389T185 623L154 684Q186 704 217 715T273 726Q317 726 317 673Q317 665 313 634T301 557T284 456T265 345T249 237T237 147T232 88Q232 63 243 45T280
12Q227 -26 179 -26ZM399 -25Q338 -25 278 -10T176 33L209 75H433Q465 79 491 85T542 101Q547 86 549 77T551 57Q551 15 515 -5T399 -25ZM357 280Q329 280 300 285T232 300L246 369Q276 365 307 363T373 361L447 379Q447 373 447 367T448 355Q448 319 425 300T357
280ZM477 582Q438 582 400 585T325 597T249 619L273 679Q340 679 390 684T489 699T596 720Q600 707 600 697T601 678Q601 643 584 622T538 592T477 582ZM509 806Q493 806 468 816T410 839T338 862T256 872Q252 883 250 896T247 926Q247 987 301 987Q327 987 350
974T399 941T461 898T546 857Q542 832 533 819T509 806Z" />
<glyph unicode="&#xc9;" horiz-adv-x="580" d="M179 -26Q142 -26 125 -7T108 55Q108 84 111 125T124 230T148 389T185 623L154 684Q186 704 217 715T273 726Q317 726 317 673Q317 665 313 634T301 557T284 456T265 345T249 237T237 147T232 88Q232 63 243 45T280
12Q227 -26 179 -26ZM399 -25Q338 -25 278 -10T176 33L209 75H433Q465 79 491 85T542 101Q547 86 549 77T551 57Q551 15 515 -5T399 -25ZM357 280Q329 280 300 285T232 300L246 369Q276 365 307 363T373 361L447 379Q447 373 447 367T448 355Q448 319 425 300T357
280ZM477 582Q438 582 400 585T325 597T249 619L273 679Q340 679 390 684T489 699T596 720Q600 707 600 697T601 678Q601 643 584 622T538 592T477 582ZM317 806Q304 806 295 818T280 856Q330 875 365 897T426 939T476 973T525 986Q579 986 579 925Q579 909 577
896T570 871Q527 871 489 861T417 839T358 816T317 806Z" />
<glyph unicode="&#xca;" horiz-adv-x="580" d="M179 -26Q142 -26 125 -7T108 55Q108 84 111 125T124 230T148 389T185 623L154 684Q186 704 217 715T273 726Q317 726 317 673Q317 665 313 634T301 557T284 456T265 345T249 237T237 147T232 88Q232 63 243 45T280
12Q227 -26 179 -26ZM399 -25Q338 -25 278 -10T176 33L209 75H433Q465 79 491 85T542 101Q547 86 549 77T551 57Q551 15 515 -5T399 -25ZM357 280Q329 280 300 285T232 300L246 369Q276 365 307 363T373 361L447 379Q447 373 447 367T448 355Q448 319 425 300T357
280ZM477 582Q438 582 400 585T325 597T249 619L273 679Q340 679 390 684T489 699T596 720Q600 707 600 697T601 678Q601 643 584 622T538 592T477 582ZM321 799Q300 799 289 807T278 828Q278 854 295 885T337 947T385 998Q403 1009 422 1016T477 1023Q505 1023
525 1011T547 970L551 883Q552 858 560 843T581 818Q563 808 547 804T512 799Q487 799 471 810T455 856Q455 888 457 918T467 973H452Q435 957 421 932T400 877T393 817Q386 810 366 805T321 799Z" />
<glyph unicode="&#xcb;" horiz-adv-x="580" d="M179 -26Q142 -26 125 -7T108 55Q108 84 111 125T124 230T148 389T185 623L154 684Q186 704 217 715T273 726Q317 726 317 673Q317 665 313 634T301 557T284 456T265 345T249 237T237 147T232 88Q232 63 243 45T280
12Q227 -26 179 -26ZM399 -25Q338 -25 278 -10T176 33L209 75H433Q465 79 491 85T542 101Q547 86 549 77T551 57Q551 15 515 -5T399 -25ZM357 280Q329 280 300 285T232 300L246 369Q276 365 307 363T373 361L447 379Q447 373 447 367T448 355Q448 319 425 300T357
280ZM477 582Q438 582 400 585T325 597T249 619L273 679Q340 679 390 684T489 699T596 720Q600 707 600 697T601 678Q601 643 584 622T538 592T477 582ZM542 820Q512 820 494 836T476 877Q476 897 486 914T516 941T560 952Q589 952 606 937T624 896Q624 864 601
842T542 820ZM278 820Q249 820 232 836T215 877Q215 897 225 914T254 941T297 952Q327 952 345 937T363 896Q363 875 352 858T322 830T278 820Z" />
<glyph unicode="&#xcc;" horiz-adv-x="372" d="M179 -25Q142 -25 125 -6T108 56Q108 85 111 126T124 232T148 391T185 623L154 684Q186 704 217 715T273 726Q317 726 317 673Q317 665 313 634T301 557T284 457T265 346T249 238T237 148T232 89Q232 60 238 38T256
1Q217 -25 179 -25ZM373 806Q357 806 332 816T274 839T202 862T120 872Q116 883 114 896T111 926Q111 987 165 987Q191 987 214 974T263 941T325 898T410 857Q406 832 397 819T373 806Z" />
<glyph unicode="&#xcd;" horiz-adv-x="372" d="M179 -25Q142 -25 125 -6T108 56Q108 85 111 126T124 232T148 391T185 623L154 684Q186 704 217 715T273 726Q317 726 317 673Q317 665 313 634T301 557T284 457T265 346T249 238T237 148T232 89Q232 60 238 38T256
1Q217 -25 179 -25ZM181 806Q168 806 159 818T144 856Q194 875 229 897T290 939T340 973T389 986Q443 986 443 925Q443 909 441 896T434 871Q391 871 353 861T281 839T222 816T181 806Z" />
<glyph unicode="&#xce;" horiz-adv-x="372" d="M179 -25Q142 -25 125 -6T108 56Q108 85 111 126T124 232T148 391T185 623L154 684Q186 704 217 715T273 726Q317 726 317 673Q317 665 313 634T301 557T284 457T265 346T249 238T237 148T232 89Q232 60 238 38T256
1Q217 -25 179 -25ZM185 799Q164 799 153 807T142 828Q142 854 159 885T201 947T249 998Q267 1009 286 1016T341 1023Q369 1023 389 1011T411 970L415 883Q416 858 424 843T445 818Q427 808 411 804T376 799Q351 799 335 810T319 856Q319 888 321 918T331 973H316Q299
957 285 932T264 877T257 817Q250 810 230 805T185 799Z" />
<glyph unicode="&#xcf;" horiz-adv-x="372" d="M179 -25Q142 -25 125 -6T108 56Q108 85 111 126T124 232T148 391T185 623L154 684Q186 704 217 715T273 726Q317 726 317 673Q317 665 313 634T301 557T284 457T265 346T249 238T237 148T232 89Q232 60 238 38T256
1Q217 -25 179 -25ZM406 820Q376 820 358 836T340 877Q340 897 350 914T380 941T424 952Q453 952 470 937T488 896Q488 864 465 842T406 820ZM142 820Q113 820 96 836T79 877Q79 897 89 914T118 941T161 952Q191 952 209 937T227 896Q227 875 216 858T186 830T142
820Z" />
<glyph unicode="&#xd0;" horiz-adv-x="828" d="M330 -25Q219 -25 164 5T108 97Q108 122 112 163T125 266T148 417T183 623L152 684Q187 704 217 715T269 726Q314 726 314 673Q314 665 310 633T298 554T282 449T264 334T248 222T236 128T231 65Q260 56 286 52T345
48Q430 48 495 91T597 211T634 386Q634 513 583 579T435 646Q389 646 359 638T304 616T244 581L238 632Q273 657 305 678T379 712T478 726Q565 726 629 687T728 577T763 407Q763 311 732 232T643 96T506 7T330 -25ZM70 296Q39 296 28 308T16 342Q16 354 20 369T34
400Q54 393 85 391T142 388Q200 388 260 401T382 414Q414 414 424 402T435 368Q435 355 432 341T418 311Q399 318 368 320T314 322Q275 322 235 316T153 303T70 296Z" />
<glyph unicode="&#xd1;" horiz-adv-x="844" d="M651 -27Q618 -27 592 -19T542 11T497 77T448 190T390 363T315 608H268L272 726Q304 726 329 714T379 666T430 564T492 387T576 116L652 115L651 -27ZM179 -26Q142 -26 125 -7T108 55Q108 84 111 125T124 231T148
390T185 623L154 684Q186 704 217 715T273 726Q317 726 317 673Q317 665 313 634T301 557T284 456T265 345T249 237T237 147T232 88Q232 59 238 37T256 0Q217 -26 179 -26ZM651 -27Q614 -27 597 -8T580 55Q580 84 583 125T596 231T620 390T658 623L624 684Q657
704 688 715T745 726Q789 726 789 673Q789 665 785 634T773 557T756 456T738 345T721 237T709 146T704 87Q704 59 710 37T728 -1Q708 -14 690 -20T651 -27ZM390 827Q359 827 348 838T336 875Q336 892 342 911T356 950Q371 945 387 941T419 937Q464 937 501 948T571
971T632 983Q664 983 675 972T686 935Q686 919 681 899T666 859Q652 864 636 868T603 872Q559 872 522 861T452 838T390 827Z" />
<glyph unicode="&#xd2;" horiz-adv-x="744" d="M336 -25Q251 -25 188 13T89 119T54 281Q54 384 84 466T168 606T290 694T435 725Q485 725 509 711T533 665Q533 655 532 647T525 627Q514 630 497 632T466 635Q387 635 323 592T221 470T183 285Q183 164 232 105T363
45Q404 45 446 65T525 124T588 216T623 336Q559 365 536 408T512 498Q512 531 525 556T560 597T610 612Q662 612 690 567T719 441Q719 343 691 258T611 110T489 11T336 -25ZM592 806Q576 806 551 816T493 839T421 862T339 872Q335 883 333 896T330 926Q330 987
384 987Q410 987 433 974T482 941T544 898T629 857Q625 832 616 819T592 806Z" />
<glyph unicode="&#xd3;" horiz-adv-x="744" d="M336 -25Q251 -25 188 13T89 119T54 281Q54 384 84 466T168 606T290 694T435 725Q485 725 509 711T533 665Q533 655 532 647T525 627Q514 630 497 632T466 635Q387 635 323 592T221 470T183 285Q183 164 232 105T363
45Q404 45 446 65T525 124T588 216T623 336Q559 365 536 408T512 498Q512 531 525 556T560 597T610 612Q662 612 690 567T719 441Q719 343 691 258T611 110T489 11T336 -25ZM400 806Q387 806 378 818T363 856Q413 875 448 897T509 939T559 973T608 986Q662 986
662 925Q662 909 660 896T653 871Q610 871 572 861T500 839T441 816T400 806Z" />
<glyph unicode="&#xd4;" horiz-adv-x="744" d="M336 -25Q251 -25 188 13T89 119T54 281Q54 384 84 466T168 606T290 694T435 725Q485 725 509 711T533 665Q533 655 532 647T525 627Q514 630 497 632T466 635Q387 635 323 592T221 470T183 285Q183 164 232 105T363
45Q404 45 446 65T525 124T588 216T623 336Q559 365 536 408T512 498Q512 531 525 556T560 597T610 612Q662 612 690 567T719 441Q719 343 691 258T611 110T489 11T336 -25ZM404 799Q383 799 372 807T361 828Q361 854 378 885T420 947T468 998Q486 1009 505 1016T560
1023Q588 1023 608 1011T630 970L634 883Q635 858 643 843T664 818Q646 808 630 804T595 799Q570 799 554 810T538 856Q538 888 540 918T550 973H535Q518 957 504 932T483 877T476 817Q469 810 449 805T404 799Z" />
<glyph unicode="&#xd5;" horiz-adv-x="744" d="M336 -25Q251 -25 188 13T89 119T54 281Q54 384 84 466T168 606T290 694T435 725Q485 725 509 711T533 665Q533 655 532 647T525 627Q514 630 497 632T466 635Q387 635 323 592T221 470T183 285Q183 164 232 105T363
45Q404 45 446 65T525 124T588 216T623 336Q559 365 536 408T512 498Q512 531 525 556T560 597T610 612Q662 612 690 567T719 441Q719 343 691 258T611 110T489 11T336 -25ZM373 827Q342 827 331 838T319 875Q319 892 325 911T339 950Q354 945 370 941T402 937Q447
937 484 948T554 971T615 983Q647 983 658 972T669 935Q669 919 664 899T649 859Q635 864 619 868T586 872Q542 872 505 861T435 838T373 827Z" />
<glyph unicode="&#xd6;" horiz-adv-x="744" d="M336 -25Q251 -25 188 13T89 119T54 281Q54 384 84 466T168 606T290 694T435 725Q485 725 509 711T533 665Q533 655 532 647T525 627Q514 630 497 632T466 635Q387 635 323 592T221 470T183 285Q183 164 232 105T363
45Q404 45 446 65T525 124T588 216T623 336Q559 365 536 408T512 498Q512 531 525 556T560 597T610 612Q662 612 690 567T719 441Q719 343 691 258T611 110T489 11T336 -25ZM625 820Q595 820 577 836T559 877Q559 897 569 914T599 941T643 952Q672 952 689 937T707
896Q707 864 684 842T625 820ZM361 820Q332 820 315 836T298 877Q298 897 308 914T337 941T380 952Q410 952 428 937T446 896Q446 875 435 858T405 830T361 820Z" />
<glyph unicode="&#xd7;" horiz-adv-x="668" d="M192 155Q173 162 155 171T126 193T114 218Q114 228 122 241T151 271L505 594Q525 587 542 577T571 554T582 530Q582 520 574 507T545 476L192 155ZM455 155L182 490Q173 501 168 509T163 526Q163 540 175 551T205
573T241 594L515 259Q524 246 529 238T534 222Q534 208 522 196T492 175T455 155Z" />
<glyph unicode="&#xd8;" horiz-adv-x="744" d="M336 -25Q251 -25 188 13T89 119T54 281Q54 384 84 466T168 606T290 694T435 725Q485 725 509 711T533 665Q533 655 532 647T525 627Q514 630 497 632T466 635Q387 635 323 592T221 470T183 285Q183 164 232 105T363
45Q404 45 446 65T525 124T588 216T623 336Q559 365 536 408T512 498Q512 531 525 556T560 597T610 612Q662 612 690 567T719 441Q719 343 691 258T611 110T489 11T336 -25ZM298 -103Q284 -103 270 -99T244 -87Q293 62 347 268T464 755Q477 813 528 813Q542 813
556 809T582 797Q533 649 479 443T362 -45Q349 -103 298 -103Z" />
<glyph unicode="&#xd9;" horiz-adv-x="812" d="M618 -26Q591 -26 576 -12T555 27T548 80Q548 107 553 136T565 195L559 196Q529 139 485 89T383 8T258 -23Q215 -23 186 -8T140 31T116 86T108 147Q108 171 111 206T123 296T146 430T183 623L152 684Q181 704 212
715T269 727Q314 727 314 673Q314 665 308 631T292 548T271 442T250 333T234 237T228 175Q228 124 245 95T316 65Q357 65 405 97T499 186T574 321Q572 338 570 367T567 433Q567 468 570 508T581 587T605 657T644 708T705 727Q719 727 735 722T767 705Q753 654 737
579T705 418T681 245T671 84Q671 30 689 0Q670 -13 653 -19T618 -26ZM596 806Q580 806 555 816T497 839T425 862T343 872Q339 883 337 896T334 926Q334 987 388 987Q414 987 437 974T486 941T548 898T633 857Q629 832 620 819T596 806Z" />
<glyph unicode="&#xda;" horiz-adv-x="812" d="M618 -26Q591 -26 576 -12T555 27T548 80Q548 107 553 136T565 195L559 196Q529 139 485 89T383 8T258 -23Q215 -23 186 -8T140 31T116 86T108 147Q108 171 111 206T123 296T146 430T183 623L152 684Q181 704 212
715T269 727Q314 727 314 673Q314 665 308 631T292 548T271 442T250 333T234 237T228 175Q228 124 245 95T316 65Q357 65 405 97T499 186T574 321Q572 338 570 367T567 433Q567 468 570 508T581 587T605 657T644 708T705 727Q719 727 735 722T767 705Q753 654 737
579T705 418T681 245T671 84Q671 30 689 0Q670 -13 653 -19T618 -26ZM404 806Q391 806 382 818T367 856Q417 875 452 897T513 939T563 973T612 986Q666 986 666 925Q666 909 664 896T657 871Q614 871 576 861T504 839T445 816T404 806Z" />
<glyph unicode="&#xdb;" horiz-adv-x="812" d="M618 -26Q591 -26 576 -12T555 27T548 80Q548 107 553 136T565 195L559 196Q529 139 485 89T383 8T258 -23Q215 -23 186 -8T140 31T116 86T108 147Q108 171 111 206T123 296T146 430T183 623L152 684Q181 704 212
715T269 727Q314 727 314 673Q314 665 308 631T292 548T271 442T250 333T234 237T228 175Q228 124 245 95T316 65Q357 65 405 97T499 186T574 321Q572 338 570 367T567 433Q567 468 570 508T581 587T605 657T644 708T705 727Q719 727 735 722T767 705Q753 654 737
579T705 418T681 245T671 84Q671 30 689 0Q670 -13 653 -19T618 -26ZM408 799Q387 799 376 807T365 828Q365 854 382 885T424 947T472 998Q490 1009 509 1016T564 1023Q592 1023 612 1011T634 970L638 883Q639 858 647 843T668 818Q650 808 634 804T599 799Q574
799 558 810T542 856Q542 888 544 918T554 973H539Q522 957 508 932T487 877T480 817Q473 810 453 805T408 799Z" />
<glyph unicode="&#xdc;" horiz-adv-x="812" d="M618 -26Q591 -26 576 -12T555 27T548 80Q548 107 553 136T565 195L559 196Q529 139 485 89T383 8T258 -23Q215 -23 186 -8T140 31T116 86T108 147Q108 171 111 206T123 296T146 430T183 623L152 684Q181 704 212
715T269 727Q314 727 314 673Q314 665 308 631T292 548T271 442T250 333T234 237T228 175Q228 124 245 95T316 65Q357 65 405 97T499 186T574 321Q572 338 570 367T567 433Q567 468 570 508T581 587T605 657T644 708T705 727Q719 727 735 722T767 705Q753 654 737
579T705 418T681 245T671 84Q671 30 689 0Q670 -13 653 -19T618 -26ZM629 820Q599 820 581 836T563 877Q563 897 573 914T603 941T647 952Q676 952 693 937T711 896Q711 864 688 842T629 820ZM365 820Q336 820 319 836T302 877Q302 897 312 914T341 941T384 952Q414
952 432 937T450 896Q450 875 439 858T409 830T365 820Z" />
<glyph unicode="&#xdd;" horiz-adv-x="793" d="M89 -242Q16 -242 -17 -216T-51 -148Q-51 -132 -44 -115T-30 -86Q-18 -100 -1 -114T45 -139T118 -149Q156 -149 207 -132T315 -79T426 17T524 158T594 350T621 597Q621 628 616 652T597 699Q628 716 646 721T684
726Q712 726 728 702T745 637Q745 555 730 469T686 297T615 132T517 -16T396 -134T253 -213T89 -242ZM398 -30Q333 -30 292 -6T229 61T196 159T184 275T180 399T174 518T153 622T107 699Q143 726 182 726Q231 726 257 696T295 616T308 503T310 373T313 243T332
130T379 49T468 19L398 -30ZM380 806Q367 806 358 818T343 856Q393 875 428 897T489 939T539 973T588 986Q642 986 642 925Q642 909 640 896T633 871Q590 871 552 861T480 839T421 816T380 806Z" />
<glyph unicode="&#xde;" horiz-adv-x="693" d="M384 111Q324 111 277 127T189 175L225 222Q249 204 280 196T342 188Q408 188 455 214T528 287T554 392Q554 434 540 470T494 528T405 550Q365 550 325 532T241 480V522Q272 553 303 577T374 615T470 630Q539 630
586 599T657 516T681 406Q681 349 663 296T609 202T517 136T384 111ZM179 -26Q142 -26 125 -7T108 55Q108 84 111 125T124 231T148 390T185 623L154 684Q186 704 217 715T273 726Q317 726 317 673Q317 665 313 634T301 557T284 456T265 345T249 237T237 147T232
88Q232 59 238 37T256 0Q217 -26 179 -26Z" />
<glyph unicode="&#xdf;" horiz-adv-x="692" d="M144 -210Q112 -210 97 -189T82 -124Q82 -99 93 -20T124 184T173 473Q195 598 266 661T452 725Q516 725 564 706T638 653T665 573Q665 513 627 465T513 383Q556 372 588 344T640 277T659 193Q659 91 591 33T404 -25Q332
-25 293 -3T253 60Q253 79 265 97T297 130Q305 93 334 70T402 46Q444 46 476 66T526 121T544 200Q544 260 517 303T439 371Q475 389 501 417T542 479T557 548Q557 599 528 630T451 662Q406 662 375 641T322 572T285 442Q263 322 247 228T221 63T205 -52T199 -118Q199
-164 221 -182Q207 -195 186 -202T144 -210ZM115 323Q77 323 60 334T43 369Q43 399 61 426Q75 421 96 418T141 415Q165 415 183 417T226 424L241 341Q227 337 205 333T158 326T115 323Z" />
<glyph unicode="&#xe0;" horiz-adv-x="748" d="M258 -25Q204 -25 163 4T99 86T76 210Q76 293 105 363T187 487T309 570T460 600Q506 600 554 592Q560 582 563 570T566 545Q479 545 411 520T296 450T224 344T199 213Q199 145 227 107T306 69Q399 69 459 188T549
545Q560 559 577 567T613 575Q638 575 652 564T667 530Q667 497 655 447T628 333T601 199T589 55Q589 20 607 3Q591 -12 574 -18T540 -25Q506 -25 488 -4T470 57Q470 70 472 85T477 117L467 122Q431 52 377 14T258 -25ZM538 671Q522 671 497 681T439 704T367 727T285
737Q281 748 279 761T276 791Q276 852 330 852Q356 852 379 839T428 806T490 763T575 722Q571 697 562 684T538 671Z" />
<glyph unicode="&#xe1;" horiz-adv-x="748" d="M258 -25Q204 -25 163 4T99 86T76 210Q76 293 105 363T187 487T309 570T460 600Q506 600 554 592Q560 582 563 570T566 545Q479 545 411 520T296 450T224 344T199 213Q199 145 227 107T306 69Q399 69 459 188T549
545Q560 559 577 567T613 575Q638 575 652 564T667 530Q667 497 655 447T628 333T601 199T589 55Q589 20 607 3Q591 -12 574 -18T540 -25Q506 -25 488 -4T470 57Q470 70 472 85T477 117L467 122Q431 52 377 14T258 -25ZM346 671Q333 671 324 683T309 721Q359 740
394 762T455 804T505 838T554 851Q608 851 608 790Q608 774 606 761T599 736Q556 736 518 726T446 704T387 681T346 671Z" />
<glyph unicode="&#xe2;" horiz-adv-x="748" d="M258 -25Q204 -25 163 4T99 86T76 210Q76 293 105 363T187 487T309 570T460 600Q506 600 554 592Q560 582 563 570T566 545Q479 545 411 520T296 450T224 344T199 213Q199 145 227 107T306 69Q399 69 459 188T549
545Q560 559 577 567T613 575Q638 575 652 564T667 530Q667 497 655 447T628 333T601 199T589 55Q589 20 607 3Q591 -12 574 -18T540 -25Q506 -25 488 -4T470 57Q470 70 472 85T477 117L467 122Q431 52 377 14T258 -25ZM350 664Q329 664 318 672T307 693Q307 719
324 750T366 812T414 863Q432 874 451 881T506 888Q534 888 554 876T576 835L580 748Q581 723 589 708T610 683Q592 673 576 669T541 664Q516 664 500 675T484 721Q484 753 486 783T496 838H481Q464 822 450 797T429 742T422 682Q415 675 395 670T350 664Z" />
<glyph unicode="&#xe3;" horiz-adv-x="748" d="M258 -25Q204 -25 163 4T99 86T76 210Q76 293 105 363T187 487T309 570T460 600Q506 600 554 592Q560 582 563 570T566 545Q479 545 411 520T296 450T224 344T199 213Q199 145 227 107T306 69Q399 69 459 188T549
545Q560 559 577 567T613 575Q638 575 652 564T667 530Q667 497 655 447T628 333T601 199T589 55Q589 20 607 3Q591 -12 574 -18T540 -25Q506 -25 488 -4T470 57Q470 70 472 85T477 117L467 122Q431 52 377 14T258 -25ZM319 692Q288 692 277 703T265 740Q265 757
271 776T285 815Q300 810 316 806T348 802Q393 802 430 813T500 836T561 848Q593 848 604 837T615 800Q615 784 610 764T595 724Q581 729 565 733T532 737Q488 737 451 726T381 703T319 692Z" />
<glyph unicode="&#xe4;" horiz-adv-x="748" d="M258 -25Q204 -25 163 4T99 86T76 210Q76 293 105 363T187 487T309 570T460 600Q506 600 554 592Q560 582 563 570T566 545Q479 545 411 520T296 450T224 344T199 213Q199 145 227 107T306 69Q399 69 459 188T549
545Q560 559 577 567T613 575Q638 575 652 564T667 530Q667 497 655 447T628 333T601 199T589 55Q589 20 607 3Q591 -12 574 -18T540 -25Q506 -25 488 -4T470 57Q470 70 472 85T477 117L467 122Q431 52 377 14T258 -25ZM571 685Q541 685 523 701T505 742Q505 762
515 779T545 806T589 817Q618 817 635 802T653 761Q653 729 630 707T571 685ZM307 685Q278 685 261 701T244 742Q244 762 254 779T283 806T326 817Q356 817 374 802T392 761Q392 740 381 723T351 695T307 685Z" />
<glyph unicode="&#xe5;" horiz-adv-x="748" d="M258 -25Q204 -25 163 4T99 86T76 210Q76 293 105 363T187 487T309 570T460 600Q506 600 554 592Q560 582 563 570T566 545Q479 545 411 520T296 450T224 344T199 213Q199 145 227 107T306 69Q399 69 459 188T549
545Q560 559 577 567T613 575Q638 575 652 564T667 530Q667 497 655 447T628 333T601 199T589 55Q589 20 607 3Q591 -12 574 -18T540 -25Q506 -25 488 -4T470 57Q470 70 472 85T477 117L467 122Q431 52 377 14T258 -25ZM433 634Q368 634 329 670T291 767Q292 818
315 857T378 917T472 939Q537 939 576 904T614 806Q614 756 592 717T528 656T433 634ZM440 694Q476 694 499 726T523 807Q523 880 466 880Q454 880 444 879T419 873Q400 853 391 827T381 771Q381 737 397 716T440 694Z" />
<glyph unicode="&#xe6;" horiz-adv-x="1030" d="M258 -25Q204 -25 163 4T99 86T76 210Q76 287 105 353T187 469T309 547T460 575Q514 575 554 567Q560 557 563 546T566 520Q481 520 414 498T298 434T225 337T199 213Q199 145 227 107T306 69Q342 69 378 90T445
153T496 250L472 122H465Q430 52 376 14T258 -25ZM684 -25Q578 -25 518 40T458 219Q458 302 485 371T561 492T676 571T820 600Q899 600 943 563T988 457Q988 386 937 336T789 259T553 232L565 288Q714 287 796 332T879 460Q879 495 859 516T803 537Q758 537 718
512T648 443T600 339T582 213Q582 134 612 88T694 42Q759 42 800 83T845 192Q883 192 904 178T926 132Q926 92 895 56T808 -2T684 -25Z" />
<glyph unicode="&#xe7;" horiz-adv-x="620" d="M313 -25Q204 -25 141 39T78 217Q78 299 106 369T183 490T298 571T439 600Q502 600 538 580T575 523Q575 493 552 473T493 452Q459 452 428 468T377 524Q327 502 287 456T224 348T201 211Q201 132 230 87T312 42Q355
42 387 63T439 121T461 202Q499 202 520 188T542 141Q542 96 511 58T428 -2T313 -25ZM223 -45Q167 -45 134 -22T100 39Q100 63 117 82T163 113T227 124Q206 113 194 94T181 53Q181 30 193 19T231 8Q264 8 287 30T310 85Q310 165 227 203Q310 203 357 172T405 84Q405
48 381 19T316 -27T223 -45Z" />
<glyph unicode="&#xe8;" horiz-adv-x="650" d="M304 -25Q198 -25 138 40T78 219Q78 302 105 371T181 492T296 571T440 600Q519 600 563 563T608 457Q608 386 557 336T409 259T173 232L185 288Q334 287 416 332T499 460Q499 495 479 516T423 537Q378 537 338 512T268
443T220 339T202 213Q202 134 232 88T314 42Q379 42 420 83T465 192Q503 192 524 178T546 132Q546 92 514 56T428 -2T304 -25ZM525 671Q509 671 484 681T426 704T354 727T272 737Q268 748 266 761T263 791Q263 852 317 852Q343 852 366 839T415 806T477 763T562
722Q558 697 549 684T525 671Z" />
<glyph unicode="&#xe9;" horiz-adv-x="650" d="M304 -25Q198 -25 138 40T78 219Q78 302 105 371T181 492T296 571T440 600Q519 600 563 563T608 457Q608 386 557 336T409 259T173 232L185 288Q334 287 416 332T499 460Q499 495 479 516T423 537Q378 537 338 512T268
443T220 339T202 213Q202 134 232 88T314 42Q379 42 420 83T465 192Q503 192 524 178T546 132Q546 92 514 56T428 -2T304 -25ZM333 671Q320 671 311 683T296 721Q346 740 381 762T442 804T492 838T541 851Q595 851 595 790Q595 774 593 761T586 736Q543 736 505
726T433 704T374 681T333 671Z" />
<glyph unicode="&#xea;" horiz-adv-x="650" d="M304 -25Q198 -25 138 40T78 219Q78 302 105 371T181 492T296 571T440 600Q519 600 563 563T608 457Q608 386 557 336T409 259T173 232L185 288Q334 287 416 332T499 460Q499 495 479 516T423 537Q378 537 338 512T268
443T220 339T202 213Q202 134 232 88T314 42Q379 42 420 83T465 192Q503 192 524 178T546 132Q546 92 514 56T428 -2T304 -25ZM337 664Q316 664 305 672T294 693Q294 719 311 750T353 812T401 863Q419 874 438 881T493 888Q521 888 541 876T563 835L567 748Q568
723 576 708T597 683Q579 673 563 669T528 664Q503 664 487 675T471 721Q471 753 473 783T483 838H468Q451 822 437 797T416 742T409 682Q402 675 382 670T337 664Z" />
<glyph unicode="&#xeb;" horiz-adv-x="650" d="M304 -25Q198 -25 138 40T78 219Q78 302 105 371T181 492T296 571T440 600Q519 600 563 563T608 457Q608 386 557 336T409 259T173 232L185 288Q334 287 416 332T499 460Q499 495 479 516T423 537Q378 537 338 512T268
443T220 339T202 213Q202 134 232 88T314 42Q379 42 420 83T465 192Q503 192 524 178T546 132Q546 92 514 56T428 -2T304 -25ZM558 685Q528 685 510 701T492 742Q492 762 502 779T532 806T576 817Q605 817 622 802T640 761Q640 729 617 707T558 685ZM294 685Q265
685 248 701T231 742Q231 762 241 779T270 806T313 817Q343 817 361 802T379 761Q379 740 368 723T338 695T294 685Z" />
<glyph unicode="&#xec;" horiz-adv-x="388" d="M171 -25Q137 -25 120 -8T103 46Q103 66 107 101T122 191T149 324T189 508L145 558Q170 578 201 589T258 600Q287 600 300 588T313 545Q313 538 307 511T290 441T268 348T246 244T229 143T222 55Q222 36 226 23T240
2Q207 -25 171 -25ZM357 671Q341 671 316 681T258 704T186 727T104 737Q100 748 98 761T95 791Q95 852 149 852Q175 852 198 839T247 806T309 763T394 722Q390 697 381 684T357 671Z" />
<glyph unicode="&#xed;" horiz-adv-x="388" d="M171 -25Q137 -25 120 -8T103 46Q103 66 107 101T122 191T149 324T189 508L145 558Q170 578 201 589T258 600Q287 600 300 588T313 545Q313 538 307 511T290 441T268 348T246 244T229 143T222 55Q222 36 226 23T240
2Q207 -25 171 -25ZM165 671Q152 671 143 683T128 721Q178 740 213 762T274 804T324 838T373 851Q427 851 427 790Q427 774 425 761T418 736Q375 736 337 726T265 704T206 681T165 671Z" />
<glyph unicode="&#xee;" horiz-adv-x="388" d="M171 -25Q137 -25 120 -8T103 46Q103 66 107 101T122 191T149 324T189 508L145 558Q170 578 201 589T258 600Q287 600 300 588T313 545Q313 538 307 511T290 441T268 348T246 244T229 143T222 55Q222 36 226 23T240
2Q207 -25 171 -25ZM169 664Q148 664 137 672T126 693Q126 719 143 750T185 812T233 863Q251 874 270 881T325 888Q353 888 373 876T395 835L399 748Q400 723 408 708T429 683Q411 673 395 669T360 664Q335 664 319 675T303 721Q303 753 305 783T315 838H300Q283
822 269 797T248 742T241 682Q234 675 214 670T169 664Z" />
<glyph unicode="&#xef;" horiz-adv-x="388" d="M171 -25Q137 -25 120 -8T103 46Q103 66 107 101T122 191T149 324T189 508L145 558Q170 578 201 589T258 600Q287 600 300 588T313 545Q313 538 307 511T290 441T268 348T246 244T229 143T222 55Q222 36 226 23T240
2Q207 -25 171 -25ZM646 685Q616 685 598 701T580 742Q580 762 590 779T620 806T664 817Q693 817 710 802T728 761Q728 729 705 707T646 685ZM382 685Q353 685 336 701T319 742Q319 762 329 779T358 806T401 817Q431 817 449 802T467 761Q467 740 456 723T426 695T382
685Z" />
<glyph unicode="&#xf0;" horiz-adv-x="704" d="M319 -25Q247 -25 194 7T111 99T81 237Q81 317 106 383T176 498T284 573T420 600Q469 600 496 592Q509 572 509 545Q417 545 349 507T243 398T205 231Q205 142 241 92T343 42Q402 42 446 74T514 165T539 303Q539
403 514 485T443 627T338 719T210 752Q210 784 231 805T287 827Q343 827 395 802T493 732T571 627T624 496T643 351Q643 240 602 156T487 23T319 -25ZM597 698Q579 691 556 685T510 676T472 672L457 754Q483 758 500 762T541 775Q558 781 577 791T613 813Q629 801
637 789T649 766Q656 745 646 729T597 698Z" />
<glyph unicode="&#xf1;" horiz-adv-x="758" d="M172 -25Q138 -25 121 -8T104 46Q104 68 111 116T130 228T158 362T191 500L146 550Q171 572 203 584T261 597Q291 597 303 585T315 542Q315 516 307 484T284 422L294 417Q344 506 409 553T556 600Q621 600 652 568T684
467Q684 421 674 371T649 268T625 162T614 55Q614 19 627 3Q597 -25 563 -25Q529 -25 513 -8T496 46Q496 87 505 139T527 246T549 350T559 434Q559 475 544 495T498 515Q454 515 414 489T339 418T278 314T238 189T223 55Q223 18 235 3Q205 -25 172 -25ZM353 692Q322
692 311 703T299 740Q299 757 305 776T319 815Q334 810 350 806T382 802Q427 802 464 813T534 836T595 848Q627 848 638 837T649 800Q649 784 644 764T629 724Q615 729 599 733T566 737Q522 737 485 726T415 703T353 692Z" />
<glyph unicode="&#xf2;" horiz-adv-x="725" d="M321 -25Q248 -25 194 7T111 99T81 238Q81 318 106 384T179 499T290 573T431 600Q452 600 470 599T508 592Q515 582 517 571T521 545Q419 545 349 504T242 393T205 231Q205 143 238 93T332 42Q392 42 439 75T516
169T555 311Q514 337 496 368T477 441Q477 467 487 487T516 518T557 530Q603 530 629 489T655 375Q655 291 630 219T558 92T452 6T321 -25ZM527 671Q511 671 486 681T428 704T356 727T274 737Q270 748 268 761T265 791Q265 852 319 852Q345 852 368 839T417 806T479
763T564 722Q560 697 551 684T527 671Z" />
<glyph unicode="&#xf3;" horiz-adv-x="725" d="M321 -25Q248 -25 194 7T111 99T81 238Q81 318 106 384T179 499T290 573T431 600Q452 600 470 599T508 592Q515 582 517 571T521 545Q419 545 349 504T242 393T205 231Q205 143 238 93T332 42Q392 42 439 75T516
169T555 311Q514 337 496 368T477 441Q477 467 487 487T516 518T557 530Q603 530 629 489T655 375Q655 291 630 219T558 92T452 6T321 -25ZM335 671Q322 671 313 683T298 721Q348 740 383 762T444 804T494 838T543 851Q597 851 597 790Q597 774 595 761T588 736Q545
736 507 726T435 704T376 681T335 671Z" />
<glyph unicode="&#xf4;" horiz-adv-x="725" d="M321 -25Q248 -25 194 7T111 99T81 238Q81 318 106 384T179 499T290 573T431 600Q452 600 470 599T508 592Q515 582 517 571T521 545Q419 545 349 504T242 393T205 231Q205 143 238 93T332 42Q392 42 439 75T516
169T555 311Q514 337 496 368T477 441Q477 467 487 487T516 518T557 530Q603 530 629 489T655 375Q655 291 630 219T558 92T452 6T321 -25ZM339 664Q318 664 307 672T296 693Q296 719 313 750T355 812T403 863Q421 874 440 881T495 888Q523 888 543 876T565 835L569
748Q570 723 578 708T599 683Q581 673 565 669T530 664Q505 664 489 675T473 721Q473 753 475 783T485 838H470Q453 822 439 797T418 742T411 682Q404 675 384 670T339 664Z" />
<glyph unicode="&#xf5;" horiz-adv-x="725" d="M321 -25Q248 -25 194 7T111 99T81 238Q81 318 106 384T179 499T290 573T431 600Q452 600 470 599T508 592Q515 582 517 571T521 545Q419 545 349 504T242 393T205 231Q205 143 238 93T332 42Q392 42 439 75T516
169T555 311Q514 337 496 368T477 441Q477 467 487 487T516 518T557 530Q603 530 629 489T655 375Q655 291 630 219T558 92T452 6T321 -25ZM308 692Q277 692 266 703T254 740Q254 757 260 776T274 815Q289 810 305 806T337 802Q382 802 419 813T489 836T550 848Q582
848 593 837T604 800Q604 784 599 764T584 724Q570 729 554 733T521 737Q477 737 440 726T370 703T308 692Z" />
<glyph unicode="&#xf6;" horiz-adv-x="725" d="M321 -25Q248 -25 194 7T111 99T81 238Q81 318 106 384T179 499T290 573T431 600Q452 600 470 599T508 592Q515 582 517 571T521 545Q419 545 349 504T242 393T205 231Q205 143 238 93T332 42Q392 42 439 75T516
169T555 311Q514 337 496 368T477 441Q477 467 487 487T516 518T557 530Q603 530 629 489T655 375Q655 291 630 219T558 92T452 6T321 -25ZM560 685Q530 685 512 701T494 742Q494 762 504 779T534 806T578 817Q607 817 624 802T642 761Q642 729 619 707T560 685ZM296
685Q267 685 250 701T233 742Q233 762 243 779T272 806T315 817Q345 817 363 802T381 761Q381 740 370 723T340 695T296 685Z" />
<glyph unicode="&#xf7;" horiz-adv-x="706" d="M198 315Q163 315 150 324T136 355Q136 369 141 388T154 430H535Q570 430 583 422T597 391Q597 362 579 315H198ZM404 535Q374 535 354 555T333 604Q333 627 343 646T372 676T416 688Q447 688 467 668T487 619Q487
597 476 578T446 547T404 535ZM328 58Q298 58 278 78T257 127Q257 150 267 169T296 199T340 211Q371 211 391 191T411 142Q411 120 400 101T370 70T328 58Z" />
<glyph unicode="&#xf8;" horiz-adv-x="725" d="M280 -78Q269 -78 258 -75T237 -65Q276 54 319 219T413 608Q423 655 464 655Q475 655 486 652T507 642Q468 523 425 358T331 -32Q321 -78 280 -78ZM321 -25Q248 -25 194 7T111 99T81 238Q81 318 106 384T179 499T290
573T431 600Q452 600 470 599T508 592Q515 582 517 571T521 545Q419 545 349 504T242 393T205 231Q205 143 238 93T332 42Q392 42 439 75T516 169T555 311Q514 337 496 368T477 441Q477 467 487 487T516 518T557 530Q603 530 629 489T655 375Q655 291 630 219T558
92T452 6T321 -25Z" />
<glyph unicode="&#xf9;" horiz-adv-x="742" d="M256 -25Q174 -25 135 15T96 137Q96 181 103 229T121 325T138 416T146 496Q146 518 143 537T135 573Q155 585 177 592T213 600Q242 600 255 585T269 535Q269 513 263 476T247 393T229 303T214 221T207 164Q207 107
231 78T302 49Q361 49 411 92T489 212L482 60L447 78Q426 48 394 25T326 -12T256 -25ZM524 -25Q490 -25 474 -2T457 70Q457 97 465 149T492 287T539 498L498 558Q512 570 531 579T572 594T611 600Q641 600 653 588T666 545Q666 538 660 511T643 441T622 348T600
244T583 143T576 55Q576 17 593 2Q563 -25 524 -25ZM535 671Q519 671 494 681T436 704T364 727T282 737Q278 748 276 761T273 791Q273 852 327 852Q353 852 376 839T425 806T487 763T572 722Q568 697 559 684T535 671Z" />
<glyph unicode="&#xfa;" horiz-adv-x="742" d="M256 -25Q174 -25 135 15T96 137Q96 181 103 229T121 325T138 416T146 496Q146 518 143 537T135 573Q155 585 177 592T213 600Q242 600 255 585T269 535Q269 513 263 476T247 393T229 303T214 221T207 164Q207 107
231 78T302 49Q361 49 411 92T489 212L482 60L447 78Q426 48 394 25T326 -12T256 -25ZM524 -25Q490 -25 474 -2T457 70Q457 97 465 149T492 287T539 498L498 558Q512 570 531 579T572 594T611 600Q641 600 653 588T666 545Q666 538 660 511T643 441T622 348T600
244T583 143T576 55Q576 17 593 2Q563 -25 524 -25ZM343 671Q330 671 321 683T306 721Q356 740 391 762T452 804T502 838T551 851Q605 851 605 790Q605 774 603 761T596 736Q553 736 515 726T443 704T384 681T343 671Z" />
<glyph unicode="&#xfb;" horiz-adv-x="742" d="M256 -25Q174 -25 135 15T96 137Q96 181 103 229T121 325T138 416T146 496Q146 518 143 537T135 573Q155 585 177 592T213 600Q242 600 255 585T269 535Q269 513 263 476T247 393T229 303T214 221T207 164Q207 107
231 78T302 49Q361 49 411 92T489 212L482 60L447 78Q426 48 394 25T326 -12T256 -25ZM524 -25Q490 -25 474 -2T457 70Q457 97 465 149T492 287T539 498L498 558Q512 570 531 579T572 594T611 600Q641 600 653 588T666 545Q666 538 660 511T643 441T622 348T600
244T583 143T576 55Q576 17 593 2Q563 -25 524 -25ZM347 664Q326 664 315 672T304 693Q304 719 321 750T363 812T411 863Q429 874 448 881T503 888Q531 888 551 876T573 835L577 748Q578 723 586 708T607 683Q589 673 573 669T538 664Q513 664 497 675T481 721Q481
753 483 783T493 838H478Q461 822 447 797T426 742T419 682Q412 675 392 670T347 664Z" />
<glyph unicode="&#xfc;" horiz-adv-x="742" d="M256 -25Q174 -25 135 15T96 137Q96 181 103 229T121 325T138 416T146 496Q146 518 143 537T135 573Q155 585 177 592T213 600Q242 600 255 585T269 535Q269 513 263 476T247 393T229 303T214 221T207 164Q207 107
231 78T302 49Q361 49 411 92T489 212L482 60L447 78Q426 48 394 25T326 -12T256 -25ZM524 -25Q490 -25 474 -2T457 70Q457 97 465 149T492 287T539 498L498 558Q512 570 531 579T572 594T611 600Q641 600 653 588T666 545Q666 538 660 511T643 441T622 348T600
244T583 143T576 55Q576 17 593 2Q563 -25 524 -25ZM568 685Q538 685 520 701T502 742Q502 762 512 779T542 806T586 817Q615 817 632 802T650 761Q650 729 627 707T568 685ZM304 685Q275 685 258 701T241 742Q241 762 251 779T280 806T323 817Q353 817 371 802T389
761Q389 740 378 723T348 695T304 685Z" />
<glyph unicode="&#xfd;" horiz-adv-x="666" d="M67 -200Q2 -200 -28 -178T-58 -118Q-58 -103 -52 -87T-38 -61Q-27 -73 -12 -85T27 -106T90 -115Q123 -115 167 -101T260 -57T354 22T438 142T497 306T520 520Q520 532 520 548T518 575Q541 589 556 594T588 600Q609
600 624 588T639 540Q639 463 622 379T570 211T486 54T373 -77T233 -167T67 -200ZM328 -25Q263 -25 226 1T171 71T148 170T141 284T137 399T120 501T76 575Q108 600 145 600Q189 600 212 576T245 510T257 417T259 310T261 204T276 111T316 45T393 20L328 -25ZM301
671Q288 671 279 683T264 721Q314 740 349 762T410 804T460 838T509 851Q563 851 563 790Q563 774 561 761T554 736Q511 736 473 726T401 704T342 681T301 671Z" />
<glyph unicode="&#xfe;" horiz-adv-x="746" d="M288 0Q238 0 193 8Q187 19 184 30T181 55Q292 55 374 93T503 201T549 362Q549 430 521 468T440 506Q389 506 346 458T267 318T204 94L228 475L280 437Q316 515 370 557T489 600Q544 600 584 571T648 489T671 365Q671
288 642 222T560 106T439 28T288 0ZM134 -200Q104 -200 88 -181T72 -121Q72 -103 77 -57T92 55T114 201T140 364T168 530T195 682L151 732Q175 752 207 763T266 775Q294 775 306 763T318 720Q318 682 309 626T285 500T254 353T223 196T199 38T189 -112Q189 -130
194 -146T209 -172Q195 -185 176 -192T134 -200Z" />
<glyph unicode="&#xff;" horiz-adv-x="666" d="M67 -200Q2 -200 -28 -178T-58 -118Q-58 -103 -52 -87T-38 -61Q-27 -73 -12 -85T27 -106T90 -115Q123 -115 167 -101T260 -57T354 22T438 142T497 306T520 520Q520 532 520 548T518 575Q541 589 556 594T588 600Q609
600 624 588T639 540Q639 463 622 379T570 211T486 54T373 -77T233 -167T67 -200ZM328 -25Q263 -25 226 1T171 71T148 170T141 284T137 399T120 501T76 575Q108 600 145 600Q189 600 212 576T245 510T257 417T259 310T261 204T276 111T316 45T393 20L328 -25ZM526
685Q496 685 478 701T460 742Q460 762 470 779T500 806T544 817Q573 817 590 802T608 761Q608 729 585 707T526 685ZM262 685Q233 685 216 701T199 742Q199 762 209 779T238 806T281 817Q311 817 329 802T347 761Q347 740 336 723T306 695T262 685Z" />
<glyph unicode="&#x2013;" horiz-adv-x="660" d="M111 225Q71 225 56 235T41 272Q41 290 46 310T59 352Q76 345 106 340T176 334Q210 334 254 339T349 350T451 362T550 367Q591 367 606 357T621 319Q621 302 616 283T602 239Q586 247 556 252T486 257Q452 257
408 252T313 241T211 230T111 225Z" />
<glyph unicode="&#x2014;" horiz-adv-x="817" d="M109 225Q69 225 55 235T40 271Q40 288 45 308T59 352Q82 345 120 340T208 334Q255 334 315 339T442 350T577 362T710 367Q749 367 763 358T778 322Q778 305 773 285T759 239Q737 247 698 252T610 257Q564 257
504 252T376 241T241 230T109 225Z" />
<glyph unicode="&#x2018;" horiz-adv-x="319" d="M280 760L292 728Q268 716 251 695T223 650T213 608L264 541Q264 519 251 499T217 467T171 455Q134 455 114 480T93 538Q93 591 116 634T181 709T280 760Z" />
<glyph unicode="&#x2019;" horiz-adv-x="349" d="M126 455L114 487Q138 500 155 521T183 565T193 607L142 674Q143 697 155 716T189 748T235 760Q273 760 293 735T313 677Q313 624 290 581T225 506T126 455Z" />
<glyph unicode="&#x201a;" horiz-adv-x="334" d="M60 -177L48 -145Q72 -132 89 -111T117 -67T127 -25L76 42Q77 65 89 84T123 116T169 128Q207 128 227 103T247 45Q247 -8 224 -51T159 -126T60 -177Z" />
<glyph unicode="&#x201c;" horiz-adv-x="545" d="M280 760L292 728Q268 716 251 695T223 650T213 608L264 541Q264 519 251 499T217 467T171 455Q134 455 114 480T93 538Q93 591 116 634T181 709T280 760ZM506 760L518 728Q494 716 477 695T449 650T439 608L490
541Q490 519 477 499T443 467T397 455Q360 455 340 480T319 538Q319 591 342 634T407 709T506 760Z" />
<glyph unicode="&#x201d;" horiz-adv-x="575" d="M352 455L340 487Q364 500 381 521T409 565T419 607L368 674Q369 697 381 716T415 748T461 760Q499 760 519 735T539 677Q539 624 516 581T451 506T352 455ZM126 455L114 487Q138 500 155 521T183 565T193 607L142
674Q143 697 155 716T189 748T235 760Q273 760 293 735T313 677Q313 624 290 581T225 506T126 455Z" />
<glyph unicode="&#x201e;" horiz-adv-x="560" d="M60 -177L48 -145Q72 -132 89 -111T117 -67T127 -25L76 42Q77 65 89 84T123 116T169 128Q207 128 227 103T247 45Q247 -8 224 -51T159 -126T60 -177ZM286 -177L274 -145Q298 -132 315 -111T343 -67T353 -25L302
42Q303 65 315 84T349 116T395 128Q433 128 453 103T473 45Q473 -8 450 -51T385 -126T286 -177Z" />
<glyph unicode="&#x2022;" horiz-adv-x="388" d="M163 223Q127 223 103 247T78 306Q78 333 90 356T125 393T178 407Q215 407 239 383T263 324Q263 297 250 274T214 237T163 223Z" />
<glyph unicode="&#x2039;" horiz-adv-x="379" d="M219 25Q193 57 165 95T111 170T71 238T55 288Q55 312 65 334T101 383T173 450T290 549Q295 549 308 545T332 529T343 495Q343 475 325 453T276 406T206 355T124 300Q176 247 211 210T265 144T283 85Q283 65 276
52T254 32T219 25Z" />
<glyph unicode="&#x203a;" horiz-adv-x="379" d="M158 549Q184 517 212 479T266 404T306 336T322 286Q322 262 312 240T276 191T204 124T87 25Q82 25 69 29T45 45T34 79Q34 99 52 121T101 168T171 219T253 274Q201 327 166 364T112 430T94 489Q94 510 101 523T123
542T158 549Z" />
</font>
</defs>
</svg>
