<?xml version="1.0" standalone="no"?>
<!DOCTYPE svg PUBLIC "-//W3C//DTD SVG 1.1//EN" "http://www.w3.org/Graphics/SVG/1.1/DTD/svg11.dtd">
<svg xmlns="http://www.w3.org/2000/svg">
<defs >
<font id="Arizonia" horiz-adv-x="546" ><font-face
    font-family="Arizonia"
    units-per-em="1000"
    panose-1="0 0 0 0 0 0 0 0 0 0"
    ascent="900"
    descent="-350"
    alphabetic="0" />
<glyph unicode=" " glyph-name="space" horiz-adv-x="267" />
<glyph unicode="!" glyph-name="exclam" horiz-adv-x="260" d="M155 138Q137 146 129 163T121 203Q121 235 132 273T162 350T201 422T239 474Q280 518 309 533T358 549Q375 549 382 542T390 530Q390 517 374 500T335 465T294 429Q267 401 241 364T194 288T161
218T148 165Q148 147 159 144Q163 143 163 140Q163 135 155 138ZM71 0Q58 0 51 7Q40 16 40 32Q40 55 58 74Q79 98 106 98Q117 98 126 92Q137 83 137 67Q137 45 119 25Q97 0 71 0Z" />
<glyph unicode="&quot;" glyph-name="quotedbl" horiz-adv-x="253" d="M222 343Q218 343 218 347Q218 351 222 355Q257 397 271 435T291 501T301 538Q308 549 316 553T343 557Q360 557 368 551T371 533Q363 513 346 487T308 432T266 381T229 346Q225 343 222 343ZM99
343Q95 343 95 347Q95 351 99 355Q134 397 148 435T168 501T178 538Q185 549 193 553T220 557Q237 557 245 551T248 533Q240 513 223 487T185 432T143 381T106 346Q102 343 99 343Z" />
<glyph unicode="#" glyph-name="numbersign" horiz-adv-x="712" d="M190 77Q181 77 181 91Q181 108 202 150T257 248Q224 249 205 251T183 255Q181 258 171 268T160 285Q160 291 173 290Q197 289 224 288T280 285Q301 320 324 356T371 428Q292 429 239 431T182
438Q180 441 170 450T159 467Q159 473 172 472Q218 470 275 468T394 464Q429 516 459 558T509 626T533 652Q535 652 544 654T562 656Q572 656 572 651Q572 648 567 641Q539 604 506 559T436 463Q459 463 481 463T526 462Q549 462 571 462T614 463Q649 515 679 558T729
626T753 652Q755 652 764 654T782 656Q792 656 792 651Q792 648 787 641Q759 605 726 560T657 464Q676 465 694 465T731 465Q767 465 798 465T850 470Q852 470 853 470T855 471Q865 471 865 463Q865 459 860 454T842 445Q825 441 793 439T720 437T636 434Q609 395
583 356T532 280Q562 280 600 280T678 283T749 292Q751 292 751 292T753 293Q763 293 763 285Q763 281 758 276T741 267Q716 261 676 257T591 250T511 247Q480 199 457 157T420 86Q417 77 410 77Q401 77 401 91Q401 98 404 107Q412 129 431 165T476 246H417Q383
246 351 246T291 247Q260 198 237 157T200 86Q197 77 190 77ZM496 280Q519 317 543 356T593 432Q548 431 502 430T412 428Q387 392 362 356T314 284Q358 283 404 282T496 280Z" />
<glyph unicode="$" glyph-name="dollar" horiz-adv-x="530" d="M117 -171Q113 -171 113 -161Q113 -150 119 -131Q134 -87 174 -14Q144 -14 110 -6T48 22T11 74Q34 53 75 44T159 35Q170 35 181 35T202 37Q221 70 242 106T286 180Q267 188 247 202T215 235T205 275Q210
315 235 342T296 388T374 419T452 439Q479 478 497 501T519 524Q521 524 523 524T528 525Q537 525 537 519Q537 512 526 498Q516 485 507 472T488 445Q492 446 496 446T504 446Q533 446 553 435T571 396Q570 384 555 368T519 331T478 288T444 244T432 200Q421 208
417 218T412 241Q412 264 426 289T453 330Q469 350 488 367T528 397Q522 406 507 406Q494 406 478 401T448 389Q414 341 380 289T314 183Q319 181 324 178T336 173Q368 157 384 134T400 87Q400 65 386 45T346 10Q325 -1 296 -5T240 -11T198 -14Q176 -56 158 -93T126
-160Q121 -171 117 -171ZM294 192Q321 239 353 288T410 377Q356 354 320 325T266 270T247 231Q247 218 260 209T294 192ZM228 40Q236 41 244 42T259 47Q275 52 297 63T336 91T354 125Q354 144 329 161Q326 163 320 165T306 171Q285 137 266 105T228 40Z" />
<glyph unicode="%" glyph-name="percent" horiz-adv-x="703" d="M149 -144Q144 -144 144 -132Q144 -123 150 -105Q160 -76 183 -29T239 78T309 200T383 322T452 431T508 511Q494 503 474 503Q461 503 446 507T411 523Q415 514 415 498Q415 476 403 449T365 393Q345
371 313 351T245 318T180 305Q154 305 137 318T119 363Q119 376 122 391Q127 413 143 439T181 488T219 525Q241 543 271 555T331 568Q358 568 379 558Q391 551 397 545Q405 542 420 542Q433 542 446 544T466 548Q491 556 521 564T571 573Q587 573 587 564Q587 557
577 543Q535 487 486 416T387 268T292 115T212 -24T158 -133Q153 -144 149 -144ZM176 322Q202 322 238 340T306 393Q329 418 339 440T349 478Q349 504 331 512Q313 521 293 521Q264 521 237 505T187 462T151 409T138 360Q138 335 156 326Q163 322 176 322ZM463
22Q437 22 420 35T402 80Q402 92 405 107Q410 129 426 155T464 204T502 242Q524 260 554 272T615 285Q641 285 662 275Q698 257 698 214Q698 192 686 165T648 110Q628 88 596 68T528 35T463 22ZM458 38Q484 38 521 56T590 110Q613 135 622 157T632 195Q632 221
615 229Q597 238 577 238Q548 238 520 221T470 179T434 126T421 76Q421 51 439 42Q443 41 448 40T458 38Z" />
<glyph unicode="&amp;" glyph-name="ampersand" horiz-adv-x="743" d="M602 -127Q561 -127 511 -108Q454 -85 414 -47T336 31Q314 26 296 23T263 18Q236 15 212 15Q121 15 65 48T8 134Q8 175 46 222T173 319L235 351Q245 394 266 446T332 552T458 650Q499 673
535 683T601 693Q649 693 676 671T704 614Q704 587 685 556T623 493Q605 480 568 460T487 419T403 379T336 348T309 336Q308 328 308 319T307 302Q307 271 313 241Q363 266 413 281T510 303Q532 307 554 309T597 311Q642 311 673 298T704 247Q704 214 676 184T601
128T500 81T394 46Q424 4 462 -27T541 -76Q569 -87 591 -92T630 -97Q658 -97 671 -86T684 -60Q684 -36 655 -12T573 13Q566 13 559 13T544 11H541Q536 11 536 13Q536 16 541 20T554 25Q568 27 581 28T606 29Q665 29 692 8T720 -42Q720 -73 689 -100T602 -127ZM315
383Q333 390 368 404T447 437T535 479T613 527Q655 557 674 583T694 629Q694 664 643 664Q618 664 584 654T505 618Q418 571 373 508T315 383ZM217 34Q242 34 270 37Q283 39 296 40T322 45Q297 74 278 105T247 170Q231 162 218 155T196 140Q191 136 189 134T187
134Q187 147 200 162T236 195L238 196Q232 220 230 244T228 292L194 273Q139 239 106 197T73 117Q73 82 107 58T217 34ZM384 60Q427 70 469 91T545 138T599 189T620 233Q620 246 608 254T568 262Q560 262 550 261T527 258Q486 251 430 236T321 201Q339 123 384
60Z" />
<glyph unicode="&apos;" glyph-name="quotesingle" horiz-adv-x="200" d="M169 343Q165 343 165 347Q165 351 169 355Q204 397 218 435T238 501T248 538Q255 549 263 553T290 557Q307 557 315 551T318 533Q310 513 293 487T255 432T213 381T176 346Q172 343 169 343Z" />
<glyph unicode="(" glyph-name="parenleft" horiz-adv-x="362" d="M215 -8Q185 -8 157 -1T117 25Q104 49 104 92Q104 137 117 196T156 321T220 449T308 566T420 655Q432 661 441 661Q452 661 452 654Q452 647 439 638Q394 609 353 552T281 424T231 279T212 142Q212
111 217 85T232 37Q240 22 271 17Q275 16 280 10T278 0Q270 -4 253 -6T215 -8Z" />
<glyph unicode=")" glyph-name="parenright" horiz-adv-x="362" d="M32 -44Q21 -44 21 -37Q21 -30 34 -21Q79 9 120 66T192 194T242 339T261 476Q261 506 257 532T241 580Q238 587 227 592T202 600Q198 601 193 608T195 617Q217 626 259 626Q288 626 316 619T356
592Q369 568 369 525Q369 481 356 422T317 297T253 169T165 52T53 -37Q42 -44 32 -44Z" />
<glyph unicode="*" glyph-name="asterisk" horiz-adv-x="534" d="M266 185Q262 185 260 188T260 198Q281 251 291 293T312 379Q232 361 189 359T127 355Q114 355 114 365Q114 372 123 373Q179 384 219 397T302 424Q244 480 219 514T182 562Q179 567 179 570Q179
580 187 580Q191 580 194 576Q234 535 267 509T337 455Q385 539 416 577T460 629Q464 634 470 634Q475 634 477 630T476 620Q443 570 421 530T384 443Q437 451 470 454T526 457Q548 457 560 456T581 453Q591 452 591 443Q591 435 583 435Q527 430 487 424T395 404Q423
387 452 365T503 323T534 295Q539 290 539 285Q539 280 535 278T525 279Q477 312 439 332T359 371Q330 288 309 248T277 192Q273 185 266 185Z" />
<glyph unicode="+" glyph-name="plus" horiz-adv-x="515" d="M221 6Q217 6 213 9T210 18Q213 57 227 99T262 182Q229 178 198 173T136 163H135Q129 163 129 178Q129 190 133 203T144 217Q182 221 217 222T285 224Q306 259 330 289T378 344Q383 349 397 349Q408
349 417 346T422 338Q400 316 375 287T326 224Q376 223 414 219T471 209Q478 208 478 200Q478 195 474 190T462 185Q417 188 379 188Q338 188 300 185Q272 142 253 99T231 16Q231 6 221 6Z" />
<glyph unicode="," glyph-name="comma" horiz-adv-x="207" d="M-33 -100Q-37 -100 -38 -94T-35 -86Q-5 -83 21 -64T63 -21T79 23Q72 13 60 6T35 -1Q21 -1 12 8Q4 15 4 28Q4 39 10 51T28 74Q50 98 81 98Q91 98 100 94T114 80Q119 73 119 59Q119 38 107 12T73 -39T25
-81T-33 -100Z" />
<glyph unicode="-" glyph-name="hyphen" horiz-adv-x="438" d="M135 163Q129 163 129 178Q129 190 133 203T144 217Q185 221 218 222T277 224Q323 224 349 221T389 216Q401 214 401 205Q401 198 391 198Q339 197 299 192T221 179T136 163H135Z" />
<glyph unicode="." glyph-name="period" horiz-adv-x="202" d="M48 0Q35 0 28 7Q17 16 17 32Q17 55 35 74Q56 98 83 98Q94 98 103 92Q114 83 114 67Q114 45 96 25Q74 0 48 0Z" />
<glyph unicode="/" glyph-name="slash" horiz-adv-x="405" d="M56 -122Q44 -122 44 -104Q44 -100 45 -95T48 -85Q58 -56 85 -6T150 108T231 238T316 368T394 481T453 561T481 591Q484 591 495 593T517 596Q530 596 530 589Q530 585 524 577Q481 522 429 450T321
298T216 142T127 -1T69 -111Q64 -122 56 -122Z" />
<glyph unicode="0" glyph-name="zero" horiz-adv-x="553" d="M180 -19Q127 -19 95 9T63 84Q63 134 86 187T149 289T239 376T343 438T449 461Q510 461 551 431T593 333Q593 290 569 242T502 147T407 64T296 4T180 -19ZM181 6Q219 6 261 22T345 68T419 135T472 215T492
301Q492 339 465 360T390 381Q350 381 308 364T226 316T155 247T106 168T88 86Q88 50 112 28T181 6Z" />
<glyph unicode="1" glyph-name="one" horiz-adv-x="343" d="M193 -6Q165 -2 149 10T125 35Q119 47 119 59Q119 76 130 106Q149 158 182 219T257 336Q238 323 211 307T156 275T109 249Q104 245 99 245Q94 245 94 250Q94 259 110 269Q130 280 160 302T226 352T299
404T370 445T431 461Q447 461 460 453Q463 451 465 446T459 442Q436 444 411 419T360 352T310 258T263 155T223 61T193 -6Z" />
<glyph unicode="2" glyph-name="two" horiz-adv-x="606" d="M552 -31Q546 -31 549 -23Q555 -3 523 11T438 33T323 41Q283 41 244 38T170 27Q146 22 120 13T69 -4T26 -11Q14 -11 7 -7Q0 -3 0 11Q0 25 12 43T59 80T159 111Q178 115 187 117T213 127Q272 153 331
179T447 236Q490 260 508 286T526 338Q526 370 503 393T444 421Q431 423 418 424T392 425Q333 425 286 410T212 373T184 337Q184 320 218 320Q242 320 282 330Q321 340 350 354T398 387Q401 390 402 390T404 387Q405 384 405 379Q405 364 391 351T357 325T319 306T290
295Q261 288 237 285T195 281Q161 281 145 290T129 315Q129 337 156 362Q176 380 210 397T287 429T376 452T465 461Q515 461 556 447T617 398Q628 379 628 358Q628 328 605 295T531 229Q476 194 403 168T263 118Q311 117 363 110T459 88T531 49T559 -9Q559 -12
559 -15T558 -22Q557 -31 552 -31Z" />
<glyph unicode="3" glyph-name="three" horiz-adv-x="581" d="M129 -86Q73 -86 33 -69T-14 -9Q-15 -6 -15 -3T-15 3Q-15 31 4 53T52 93T114 124Q147 138 195 143T287 149Q336 149 360 143Q375 139 375 132Q375 127 355 127Q342 127 313 123T246 110T169 90T95
64Q49 45 28 27T7 -8Q7 -28 38 -41T118 -55Q144 -55 187 -45T279 -17T371 26T443 78T471 138Q471 170 435 200Q414 217 389 226T336 238Q323 239 315 244T306 254Q306 261 318 267T358 275Q383 277 412 285T464 311T486 360Q486 389 460 411T379 434Q363 434 344
431T304 423Q270 415 251 400T231 370Q231 357 247 350Q260 344 273 339T305 331Q311 331 311 325Q311 320 302 320Q274 319 245 324T202 336Q190 341 185 349T180 365Q180 383 197 398T242 425T297 443Q319 448 360 454T444 460Q479 460 510 454T560 431T579 385Q579
364 559 341T508 298T449 268Q458 267 481 262T520 244Q539 229 548 209T557 166Q557 117 517 65T405 -22Q370 -38 323 -53T226 -77T129 -86Z" />
<glyph unicode="4" glyph-name="four" horiz-adv-x="496" d="M310 -17Q282 -17 261 -6T230 28Q222 47 222 68Q222 91 229 115T248 165Q234 164 220 162T191 158Q161 153 136 145T91 136Q65 136 62 146Q60 148 60 150Q60 160 71 171Q86 186 103 198T137 224Q167
246 208 278T296 346T386 411T469 461T532 480Q546 480 552 475Q555 473 557 468T551 464Q528 466 502 444T450 384T399 301T355 211Q414 207 456 190T498 137Q498 134 498 131T496 124Q495 117 490 117T487 123Q493 138 474 148T418 163T337 169Q324 135 315 108T303
65Q302 60 302 56T301 46Q301 28 308 14T331 -9Q335 -10 332 -12T327 -16Q323 -17 319 -17T310 -17ZM137 194Q163 201 198 205T270 212Q282 234 293 253T314 287Q326 307 337 326T363 364Q353 357 328 338T269 294T202 243T137 194Z" />
<glyph unicode="5" glyph-name="five" horiz-adv-x="540" d="M141 -34Q89 -34 53 -18T17 39Q17 63 33 82T76 117T129 144Q158 155 201 160T282 166Q320 166 342 161Q356 158 356 151Q356 147 340 147Q330 147 305 143T246 132T178 115T113 92Q73 76 56 60T38 30Q38
10 72 -3T155 -16Q195 -16 239 -7T325 24Q385 55 412 85T439 144Q439 177 403 207Q382 224 331 237T210 250Q205 245 200 239T190 228Q184 221 173 221Q167 221 162 224T157 232Q157 238 165 245Q193 269 234 307T311 384Q298 395 293 407T288 428Q288 446 296
450Q301 454 311 454Q330 454 355 443T403 427Q420 423 440 421T482 419Q527 419 569 426T638 448T666 480Q666 486 669 488T673 481Q672 446 647 421T583 381T503 358T427 350Q414 350 403 351T383 354Q351 360 329 372Q309 350 285 327T237 278Q260 283 288 286T344
289Q385 289 423 281T487 252Q523 223 523 182Q523 139 484 93T381 17Q359 7 319 -5T232 -25T141 -34Z" />
<glyph unicode="6" glyph-name="six" horiz-adv-x="496" d="M184 -6Q130 -6 102 22T73 101Q73 124 78 150T96 205Q120 265 163 319T264 418T385 493T517 534Q519 534 521 534T525 535Q542 535 542 527Q542 521 528 518Q484 508 429 473T318 384T218 269T149 143Q131
94 131 66Q131 43 141 33T168 23Q185 23 205 30T245 50Q288 76 316 105Q375 166 401 208T427 269Q427 285 411 285Q395 285 367 270T309 233T252 187T214 147Q205 135 197 135Q192 135 192 140Q192 149 205 163Q240 204 277 233T349 281Q381 299 408 307T457 316Q487
316 503 301T519 259Q519 228 496 186T423 97Q391 66 350 43T265 7Q222 -6 184 -6Z" />
<glyph unicode="7" glyph-name="seven" horiz-adv-x="367" d="M199 -21Q165 -21 148 -3T131 41Q131 56 137 71Q146 94 169 125T224 189T289 255T352 315T399 361Q385 353 363 351T310 349Q274 349 237 359T179 391Q175 381 166 365T146 333T126 309Q121 305 116
305Q112 305 110 308T113 317Q125 328 135 346T151 386T157 422Q157 444 161 452T172 460Q179 460 184 454T191 444Q191 436 190 432T187 420Q198 415 216 413T257 411Q298 411 346 416T434 426T494 431Q505 431 513 429T525 420Q506 422 485 409T446 377T415 345Q396
324 365 287T302 208T244 126T208 61Q199 40 199 21Q199 -3 218 -13Q220 -15 220 -15Q220 -17 218 -18T213 -20Q209 -21 206 -21T199 -21Z" />
<glyph unicode="8" glyph-name="eight" horiz-adv-x="480" d="M200 -18Q157 -18 119 -11T58 12T35 53Q35 74 50 95T89 135T136 168T176 192Q192 201 211 211T251 232Q229 240 208 250T173 275T161 308Q165 344 191 373T259 424T346 457T437 469Q469 469 496 463T542
442Q546 439 549 436Q563 453 571 469T581 501Q581 514 590 514Q601 514 599 499Q598 479 588 459T562 416Q564 409 564 401Q564 387 557 372Q553 364 548 364Q545 364 545 373Q546 385 543 394Q502 348 444 304T331 222Q379 205 406 179T434 124Q434 90 409 64T346
20T269 -8T200 -18ZM255 290Q255 266 279 248Q323 272 369 299T456 356T528 414Q526 416 523 417Q503 427 473 427Q438 427 399 414T327 381T274 336Q255 312 255 290ZM139 41Q139 21 157 11T207 1Q259 1 303 17T374 61T402 118Q402 142 382 166T313 210Q290 194
270 180T234 155Q183 118 161 90T139 41Z" />
<glyph unicode="9" glyph-name="nine" horiz-adv-x="494" d="M254 -198Q220 -193 207 -176T193 -136Q193 -108 206 -76T235 -14T260 34Q283 80 311 126T366 214Q344 191 322 173T277 141Q224 110 184 110Q147 110 127 132T106 189Q106 225 129 271T193 360T289
431T408 459Q429 459 448 455T483 441Q514 422 527 399T540 349Q540 318 525 285T488 221Q480 210 459 185T410 125T353 52T298 -25T256 -98T240 -156Q240 -181 259 -191Q261 -191 261 -193Q261 -194 259 -196T254 -198ZM217 138Q237 138 276 163T368 241Q400 273
428 301T477 373Q485 391 485 400Q485 412 477 417T454 423Q404 423 358 398T276 332T218 249T196 170Q196 152 201 145T217 138Z" />
<glyph unicode=":" glyph-name="colon" horiz-adv-x="222" d="M145 167Q132 167 124 174Q113 183 113 199Q113 220 132 241Q153 265 180 265Q191 265 200 259Q210 250 210 234Q210 212 192 192Q170 167 145 167ZM54 0Q41 0 33 7Q22 16 22 32Q22 55 40 74Q61 98
88 98Q99 98 108 92Q119 83 119 67Q119 45 101 25Q79 0 54 0Z" />
<glyph unicode=";" glyph-name="semicolon" horiz-adv-x="227" d="M145 167Q132 167 124 174Q113 183 113 199Q113 220 132 241Q153 265 180 265Q191 265 200 259Q210 250 210 234Q210 212 192 192Q170 167 145 167ZM-23 -101Q-28 -101 -28 -98T-25 -94Q5 -91
31 -73T74 -27T96 29L92 25Q67 0 41 0Q28 0 21 7Q13 15 13 26Q13 51 38 74Q61 97 91 97Q101 97 110 93T124 79Q129 69 129 58Q129 37 117 11T83 -40T35 -82T-23 -101Z" />
<glyph unicode="&lt;" glyph-name="less" horiz-adv-x="294" d="M207 22Q206 22 206 23Q206 26 211 34Q219 47 219 63Q219 89 203 117T160 166T104 186Q81 186 81 189Q81 192 95 201Q105 208 118 214Q145 231 176 252T237 296T287 340T317 379Q319 384 327 387T342
391Q351 391 348 385Q337 360 309 332T243 277T166 225Q183 218 203 199T239 153T254 98Q254 68 231 42Q214 22 207 22Z" />
<glyph unicode="=" glyph-name="equal" horiz-adv-x="461" d="M154 179Q148 179 148 194Q148 206 152 219T163 233Q203 237 235 238T293 240Q340 240 367 237T408 232Q420 230 420 221Q420 213 410 213Q358 212 318 207T240 194T155 179H154ZM118 65Q112 65 112
80Q112 92 116 105T127 119Q167 123 199 124T258 126Q305 126 332 123T373 118Q384 116 384 107Q384 99 374 99Q323 98 283 93T205 80T119 65H118Z" />
<glyph unicode="&gt;" glyph-name="greater" horiz-adv-x="294" d="M45 14Q36 14 39 20Q51 44 79 72T145 127T222 179Q205 186 185 206T149 252T134 307Q134 337 157 363Q174 383 181 383Q182 383 182 382Q182 379 177 371Q169 358 169 342Q169 317 185 288T228
239T284 219Q307 219 307 215Q307 212 292 203Q283 197 270 191Q243 174 212 153T151 108T101 64T71 26Q69 21 61 18T45 14Z" />
<glyph unicode="?" glyph-name="question" horiz-adv-x="520" d="M285 159Q273 171 273 184Q273 200 285 216T314 248T347 275T371 292Q418 325 463 359T554 428Q592 463 608 490T625 538Q625 570 591 585T507 600Q469 600 427 592T346 568Q316 555 291 543T250
521Q200 490 174 464T148 422Q148 405 176 405Q194 405 224 413T297 441Q333 457 370 478T436 521T476 563Q478 568 479 569T483 565Q486 561 486 556Q486 543 473 525Q445 485 409 449T324 392Q286 375 254 367T196 359Q163 359 145 371T126 406Q126 432 155 467T247
542Q265 553 290 565T343 589Q365 598 401 611T481 635T564 646Q602 646 632 633T677 585Q687 562 687 539Q687 502 664 469T603 407T521 350T433 300T356 254T305 212Q291 197 291 185Q291 179 297 173Q300 170 300 166Q300 161 295 158T285 159ZM202 0Q189 0
181 7Q170 16 170 32Q170 53 189 74Q210 98 237 98Q248 98 257 92Q267 83 267 67Q267 45 249 25Q227 0 202 0Z" />
<glyph unicode="@" glyph-name="at" horiz-adv-x="626" d="M281 -13Q210 -13 163 13T93 83T70 177Q70 222 87 268T139 354T225 422Q266 444 315 455T412 467Q463 467 507 454T577 414T604 345Q604 318 591 286Q580 258 563 237T532 204Q511 184 491 166T449 136Q429
126 410 126Q385 126 370 143T355 185Q355 189 355 193T357 201L360 214Q346 189 330 173T297 145Q268 125 242 125Q214 125 196 146T177 201Q177 241 205 282Q225 311 260 329T331 347Q345 347 357 345T382 335Q398 327 406 320T420 303Q429 303 444 297T459 277Q459
269 455 262Q451 255 442 240T424 207Q420 196 417 187T414 169Q414 149 430 149Q443 149 465 164Q485 177 510 200T553 252T571 313Q571 351 543 378T469 421T372 436Q336 436 301 428T236 403Q169 364 137 312T104 210Q104 166 127 128T194 68T302 45Q312 45
322 45T342 47Q415 56 472 89T570 169T631 264T652 350Q652 401 618 416Q614 417 614 420Q614 422 616 424T623 424Q646 414 657 393T668 342Q668 305 651 260T603 170T528 85T430 20T314 -11Q305 -12 297 -12T281 -13ZM263 146Q277 146 298 162T345 213Q349 218
361 234T385 269T397 302Q397 311 390 317T366 323Q345 323 321 306T277 257Q260 228 252 206T244 170Q244 146 263 146Z" />
<glyph unicode="A" glyph-name="A" horiz-adv-x="1030" d="M199 -40Q137 -40 90 -27T23 2Q-27 41 -27 92Q-27 135 10 178T125 258T319 316Q369 325 420 330T524 335Q568 335 612 331T700 318Q714 315 732 311T769 300Q852 385 931 469T1084 611Q1136 652 1181
667T1261 682Q1302 682 1328 670T1363 649Q1366 646 1363 643T1357 643Q1352 649 1333 656T1284 663Q1247 663 1197 646T1086 582Q1011 523 938 447T788 293Q827 279 859 255T897 196V192Q897 188 895 188Q892 188 889 194Q885 205 867 213T824 226T778 234T745
238L734 239Q651 159 563 92T375 -10Q328 -26 284 -33T199 -40ZM972 -89Q927 -57 906 -12T885 85Q885 137 903 189Q921 242 955 299T1031 410T1110 510T1175 586T1207 623Q1213 631 1216 631Q1220 631 1222 625T1224 610Q1224 594 1219 587Q1193 554 1157 503T1084
390T1015 261T964 132T944 17Q944 -13 952 -38T978 -82Q979 -83 979 -85Q979 -87 977 -89T972 -89ZM202 -23Q239 -23 282 -17T371 4Q457 31 542 96T709 241Q696 242 683 242T656 242Q586 242 511 235T367 215Q257 196 188 168T86 108T53 49Q53 22 80 2Q94 -8 126
-15T202 -23Z" />
<glyph unicode="B" glyph-name="B" horiz-adv-x="643" d="M222 -51Q162 -51 126 -41T69 -18T38 4Q26 15 26 18Q26 19 28 19Q32 19 37 18T46 14Q81 2 106 2T159 1Q192 1 239 7T337 27T433 66Q492 99 523 144T555 230Q555 274 516 305T393 336Q385 336 376 336T357
335Q317 332 272 321T190 292T138 252Q113 216 97 189T69 137T42 86Q37 72 25 72Q19 72 19 80Q19 85 20 88Q26 111 48 152T104 244T173 346T243 440T299 509T328 536Q334 536 338 530T341 519Q341 519 328 503T296 462T255 410T216 362T191 330Q280 345 369 366T540
429Q590 455 618 485T647 541Q647 567 614 584T507 602Q477 602 433 595T339 576T239 548T149 512T84 473Q67 460 73 450Q75 447 75 444Q75 442 72 442T66 445Q50 455 42 471T34 500Q34 505 35 509T38 516Q57 544 99 568T194 611T304 645T408 667T486 675Q591 675
647 647T704 574Q704 538 665 496T544 413Q504 392 458 377T366 351Q385 353 402 354T436 355Q547 355 597 319T647 229Q647 191 623 149T556 67T451 -3Q408 -24 364 -34T283 -47T222 -51Z" />
<glyph unicode="C" glyph-name="C" horiz-adv-x="719" d="M290 -39Q242 -39 195 -28T109 9T47 73T24 167Q24 219 45 267T99 357T169 432Q220 478 285 521T423 598T572 652T716 672Q746 672 781 663T842 633T868 574Q868 540 845 507T784 445T700 392T607 349T517
319T446 305Q439 304 432 304T418 304Q412 304 393 305T357 312T340 327Q340 332 346 332Q350 332 356 330T371 328Q395 328 433 340T515 372T604 419T685 474T744 532T766 587Q766 611 749 622T709 638T669 642Q606 642 540 623T409 572T287 499T184 417Q153 388
123 351T72 271T52 183Q52 133 76 99T138 45T222 15T308 6Q334 6 360 8T411 15Q478 27 533 44T640 88T744 158Q748 160 749 160Q754 160 754 154Q754 151 750 145Q711 103 656 69T537 11T410 -26T290 -39Z" />
<glyph unicode="D" glyph-name="D" horiz-adv-x="843" d="M250 -52Q161 -52 92 -31T-1 38Q-6 48 -6 51Q-6 53 -4 53Q0 53 10 46Q48 20 107 12T225 4Q282 4 348 14T482 43T614 93T731 163Q814 226 852 285T890 396Q890 453 848 497T732 565T557 590Q521 590 483
587Q419 581 356 566T235 527T132 477T62 422T36 366Q36 349 48 332Q51 329 51 324Q51 320 48 319T40 321Q31 331 23 352T15 401Q15 428 27 457T72 512Q110 542 166 568T288 615T425 646T565 657Q684 657 760 622T874 528T911 399Q911 335 881 268T792 141T647
37Q592 10 525 -10T387 -41T250 -52ZM149 83Q142 83 142 97Q142 111 157 143T199 217T256 305T320 396T380 477T427 535T452 557H461Q472 557 472 552Q472 547 464 539Q430 502 393 455T318 357T249 255T192 162T157 90Q154 83 149 83Z" />
<glyph unicode="E" glyph-name="E" horiz-adv-x="719" d="M267 -46Q187 -46 131 -21T46 50T16 153Q16 209 45 272T135 402Q180 451 236 493T350 571T465 630T569 665Q595 671 621 674T673 678Q716 678 752 667T810 632T832 569Q832 547 825 526T812 494Q809 488
806 488Q804 488 803 491T804 499Q813 519 813 534Q813 559 792 570T733 582Q691 582 634 569T514 533T387 480T269 415T173 342Q107 281 77 228T46 132Q46 69 105 33T263 -3Q289 -3 317 0T375 8Q446 21 519 46T660 108T783 189T874 284Q884 297 886 297Q887 297
887 294Q887 292 887 290T885 282Q875 253 842 217T759 144T648 71T520 9T386 -33Q324 -46 267 -46ZM205 282Q194 282 187 286Q183 288 179 293T175 307Q175 319 192 333T264 357Q282 360 304 362T350 364Q392 364 435 359T514 341T567 310Q573 303 573 296Q573
288 565 288Q559 288 551 293Q534 305 505 311T437 317Q370 317 290 300Q265 295 243 289T205 282Z" />
<glyph unicode="F" glyph-name="F" horiz-adv-x="668" d="M425 -83Q402 -83 393 -68T383 -33Q383 -8 395 14Q421 62 460 114T541 219T619 319Q595 322 568 322Q500 322 420 305Q395 300 374 294T335 287Q324 287 317 291Q314 293 310 298T305 312Q305 323 323
337T394 362Q429 368 478 368Q519 368 562 363T640 347Q678 400 695 439T712 507Q712 552 675 570T579 588Q542 588 500 583T413 567Q404 565 373 558T300 539T212 512T128 480T64 445T39 407Q39 391 61 376Q63 374 63 373Q63 371 58 371Q52 371 47 374Q18 394
18 432Q18 460 37 491T96 544Q147 573 210 596T340 636T473 661T594 670Q668 670 710 655T771 614T789 556Q789 513 764 465T707 379Q699 369 690 358T670 335Q685 327 697 315Q704 306 704 300Q704 293 696 293Q690 293 682 298Q675 303 668 306T651 312Q623 278
591 241T530 167T478 100Q465 82 449 60T422 14T410 -35Q410 -49 415 -60T435 -71Q442 -71 451 -68L455 -67Q459 -67 459 -70Q459 -75 451 -78Q434 -83 425 -83Z" />
<glyph unicode="G" glyph-name="G" horiz-adv-x="912" d="M416 -241Q367 -241 326 -227T257 -180T221 -96V-93Q221 -88 224 -88Q229 -88 231 -95Q242 -152 286 -188T387 -224Q427 -224 464 -208T534 -165T595 -110T648 -55Q704 7 749 74T821 197Q787 162 738 126T629
57T506 -1T377 -41Q345 -48 315 -51T258 -55Q178 -55 122 -29T37 42T7 144Q7 200 36 264T126 394Q171 443 227 485T341 562T456 621T560 656Q586 662 613 665T665 669Q708 669 743 658T801 623T823 560Q823 538 816 517T803 485Q800 479 797 479Q795 479 794 483T795
491Q804 511 804 525Q804 550 783 561T724 573Q682 573 625 560T505 524T378 471T260 406T164 333Q98 272 68 219T37 123Q37 60 96 25T255 -11Q281 -11 308 -9T366 -1Q453 15 543 49T711 134T840 243Q844 254 847 264T850 285Q850 298 838 298Q822 298 803 282Q795
275 788 275Q783 275 783 280Q783 288 793 297Q826 321 857 321Q883 321 899 303Q909 292 909 269Q909 240 893 199T851 113T796 25T740 -52T698 -103Q643 -161 570 -201T416 -241Z" />
<glyph unicode="H" glyph-name="H" horiz-adv-x="812" d="M638 -23Q633 -23 633 -12Q633 -2 639 16Q649 45 674 94T734 203T808 327T886 450T957 558T1011 634T1038 662H1047Q1056 662 1056 656Q1056 650 1045 636Q1003 581 956 513T863 371T774 227T699 94T647
-12Q642 -23 638 -23ZM216 -144Q211 -144 211 -133Q211 -123 217 -105Q227 -76 253 -26T317 87T394 216Q372 213 351 210T309 203Q180 181 121 142T61 69Q61 49 80 34Q82 32 82 31Q82 30 78 30Q72 30 69 33Q26 65 26 111Q26 144 51 177T131 237T272 280Q314 288
357 292T444 295Q479 350 512 399T571 486T615 547T637 569H646Q655 569 655 563Q655 557 644 543Q606 492 561 428T471 294Q518 291 564 282Q582 278 606 271T653 254T694 227T714 189Q715 182 713 182T708 187Q704 199 682 206T635 216T598 221Q567 224 533 224Q478
224 422 218Q379 150 340 85T272 -37T225 -133Q220 -144 216 -144Z" />
<glyph unicode="I" glyph-name="I" horiz-adv-x="595" d="M133 374Q127 374 123 378Q105 390 94 411T82 458Q82 483 96 508T143 552Q196 583 266 604T411 638T552 650Q578 650 613 645T682 627T738 592T760 534Q760 530 760 527T759 519Q759 510 754 510Q751 510
751 515Q751 518 751 521T752 527Q752 556 709 569T599 582Q542 582 475 574T343 550T223 516T137 473T104 424Q104 401 136 379Q138 378 138 376Q138 374 133 374ZM216 -144Q211 -144 211 -133Q211 -123 217 -105Q224 -86 237 -58T270 5Q245 3 222 -1T178 -12Q154
-18 128 -29T77 -50T34 -60Q21 -60 15 -55Q8 -50 8 -33Q8 -18 19 2T61 43T150 77Q172 83 203 86T272 89Q283 89 294 89T317 88Q353 150 394 216T477 346T552 459T609 539T637 569H646Q655 569 655 563Q655 557 644 543Q599 484 546 407T440 247T341 86Q398 81 449
65T532 18T565 -59Q565 -86 557 -86Q552 -86 554 -76Q560 -50 529 -32T445 -3T331 7Q322 7 313 7T295 6Q273 -34 255 -69T225 -133Q220 -144 216 -144Z" />
<glyph unicode="J" glyph-name="J" horiz-adv-x="622" d="M-53 -313Q-110 -313 -142 -283T-174 -202Q-174 -170 -161 -132T-119 -50Q-88 -2 -44 42T50 124T150 190Q159 257 191 325T271 455T378 568T498 649Q553 677 609 677Q662 677 702 649T752 564Q753 559
753 553T754 541Q754 489 726 420T649 271T536 112T398 -42T250 -175T102 -270Q57 -292 18 -302T-53 -313ZM-22 -276Q-1 -276 23 -271T73 -255Q137 -228 207 -176T346 -54T477 93T587 249T662 397T690 520Q690 569 666 599T592 630Q559 630 514 615Q423 584 355
524T244 383T190 211Q237 234 285 247T381 261Q387 261 393 261T406 260Q433 258 452 247T476 215Q478 211 478 209T478 204Q478 201 476 201Q475 201 473 202T466 204Q462 205 457 205T447 206Q400 206 332 176T193 100Q200 84 209 77T228 69Q235 69 235 63Q235
58 224 58Q220 58 214 59T198 62Q180 67 167 83Q106 42 47 -5T-57 -110Q-82 -143 -93 -169T-105 -215Q-105 -246 -82 -261T-22 -276Z" />
<glyph unicode="K" glyph-name="K" horiz-adv-x="667" d="M427 -88Q422 -88 428 -79T461 -47Q508 -5 530 41T553 129Q553 192 506 236T369 281Q314 281 245 260Q205 248 191 248Q183 248 183 252Q183 255 194 266Q219 289 267 326T377 408T508 496T643 579T764
641T856 670H861Q872 670 872 663Q872 652 856 645Q768 614 679 567T508 467T358 363T242 276Q338 307 418 307Q491 307 543 285T623 227T651 145Q651 90 605 31T456 -77Q447 -81 439 -84T427 -88ZM-25 -85Q-29 -85 -29 -75Q-29 -70 -28 -64T-23 -47Q-15 -24 5
19T52 118T112 235T179 356T244 467T301 555T343 604Q353 612 372 612Q383 612 392 608T401 594Q401 585 391 572Q367 541 337 498T274 406T210 310T152 221Q120 171 87 115T26 8T-16 -74Q-20 -85 -25 -85Z" />
<glyph unicode="L" glyph-name="L" horiz-adv-x="706" d="M84 83Q63 83 49 89T32 99Q31 101 32 102T35 102Q41 98 58 98Q77 98 106 108T168 151Q195 178 223 217T283 303Q250 310 222 324T184 367Q182 375 185 375T190 370Q197 359 220 356T267 352Q282 352 295
353T316 354H319Q370 425 435 495T586 614Q643 646 699 658T808 671Q861 671 898 645T936 574Q936 522 874 461T681 352Q608 325 527 309T365 295Q352 295 337 296T305 300Q269 245 238 199T179 125Q154 101 128 92T84 83ZM344 357Q412 365 486 385T626 429Q752
475 807 522T863 605Q863 631 840 643T787 655Q748 655 697 644T592 604Q516 564 455 497T344 357ZM693 -68Q686 -68 689 -58Q690 -55 690 -50Q690 -30 654 -13T553 15T399 26Q344 26 292 22T196 7Q165 0 130 -11T62 -31T7 -41Q-8 -41 -17 -36T-27 -14Q-27 9 2
36T104 83Q163 100 212 104T310 108Q509 108 605 66T702 -41Q702 -45 702 -48T701 -57Q700 -68 693 -68Z" />
<glyph unicode="M" glyph-name="M" horiz-adv-x="1324" d="M1173 -229Q1148 -229 1120 -217T1073 -180T1056 -120Q1057 -99 1060 -79T1076 -29T1116 46T1193 165T1320 345Q1357 396 1372 429T1387 481Q1387 497 1378 504T1355 511Q1335 511 1308 499T1255 468Q1208
433 1159 389T1064 297T978 206Q945 153 916 110T874 47Q870 40 862 37T845 34Q831 34 820 41T815 60Q815 60 827 81T858 137T900 214T944 297T980 374T1001 429Q1007 455 1007 477Q1007 499 999 512T971 526Q958 526 938 518T891 493Q845 463 788 415T669 307T547
185T434 63Q431 60 427 60Q389 11 371 -4T352 -10Q352 10 407 79Q450 132 499 191T592 310T662 420Q688 471 688 506Q688 553 650 571T552 589Q505 589 452 581T346 560T249 534T178 511Q134 496 97 479T39 445T17 409Q17 392 40 376Q42 375 42 373Q42 371 37 371Q32
371 27 374Q-2 394 -2 432Q-2 460 17 491T76 544Q127 573 190 596T320 636T452 661T574 670Q648 670 690 655T751 614T769 556Q769 513 744 465T687 379Q659 345 616 294T530 191Q591 255 654 316T776 427T882 508Q933 541 971 555T1037 570Q1075 570 1091 547T1108
490Q1108 454 1091 412Q1080 385 1062 351T1022 279Q1074 333 1132 387T1246 482Q1294 517 1347 540T1437 563Q1459 563 1472 554T1485 523Q1485 505 1473 477T1435 410Q1333 259 1270 151T1176 -30T1142 -145Q1141 -150 1141 -155T1141 -165Q1141 -193 1150 -204T1172
-216Q1187 -216 1200 -205Q1204 -203 1205 -203Q1210 -203 1213 -208T1211 -218Q1197 -229 1173 -229Z" />
<glyph unicode="N" glyph-name="N" horiz-adv-x="585" d="M-72 -144Q-76 -144 -76 -134Q-76 -129 -75 -122T-70 -105Q-61 -79 -38 -35T16 65T85 181T160 300T232 410T294 500T336 556Q353 607 373 637T414 667Q430 667 449 661T482 645T496 624Q496 615 488 610Q465
591 448 553T418 466T400 361T394 251Q394 192 401 139T423 50Q435 82 459 129T514 233T579 348T645 460T705 556T751 624T774 649Q777 649 784 650T799 652Q814 652 814 644Q814 637 807 629Q756 562 701 482T595 318T501 160T433 28L436 23Q449 1 468 -11T503
-24Q514 -24 523 -18Q524 -18 524 -18T525 -17Q529 -17 530 -21T528 -28Q505 -44 477 -44Q454 -44 431 -31T389 7Q341 72 321 155T301 321Q301 366 306 409T319 491Q277 434 232 367T141 228T56 90T-15 -35T-63 -133Q-68 -144 -72 -144Z" />
<glyph unicode="O" glyph-name="O" horiz-adv-x="652" d="M276 -39Q224 -39 181 -16T113 50T87 153Q87 198 104 252T160 368Q198 428 246 478T344 562T434 610Q467 622 502 622Q544 622 575 598T606 518Q606 499 602 481T595 453Q594 447 591 447Q585 447 587
458Q589 467 590 474T592 488Q592 512 578 522T540 533Q506 533 459 515T361 466T263 395T186 312Q147 258 128 210T109 123Q109 71 142 40T240 9Q269 9 303 15T377 36Q436 57 496 96T605 194Q650 250 685 331T720 516Q720 571 711 600T688 642T662 654Q658 654
652 652Q651 652 651 652T649 651Q646 651 646 654Q646 659 653 662Q661 665 671 665Q690 665 710 652T744 608T759 524Q759 450 736 386T677 267T608 170Q572 124 517 76T402 -5Q371 -22 339 -30T276 -39Z" />
<glyph unicode="P" glyph-name="P" horiz-adv-x="539" d="M-8 -26Q-16 -26 -16 -17Q-16 -15 -16 -13T-14 -7Q-7 20 22 72T92 187Q52 197 26 217Q-4 241 -4 271Q-4 294 14 310Q18 314 21 314Q23 314 23 311Q23 305 18 300Q11 290 11 276Q11 264 16 252T35 230Q63
208 102 202Q140 259 180 315T257 419T319 494T351 523Q358 523 362 516T366 502Q366 502 345 476T290 405T216 307T137 197Q190 194 251 206T371 238T480 281T559 323Q620 364 648 407T677 489Q677 538 634 570T509 602Q486 602 459 599Q416 594 362 582T254 553T155
515T84 473Q67 460 73 450Q75 447 75 444Q75 442 72 442T66 445Q50 455 42 471T34 500Q34 505 35 509T38 516Q58 544 105 569T216 616T349 651T480 672Q492 673 503 673T525 674Q629 674 677 631T726 525Q726 468 686 406T568 299Q537 281 490 261T387 222T273
191T162 179Q152 179 143 179T125 181Q87 126 57 76T12 -10Q10 -17 4 -21T-8 -26Z" />
<glyph unicode="Q" glyph-name="Q" horiz-adv-x="656" d="M668 -227Q662 -227 665 -217Q667 -211 667 -207Q667 -183 627 -167T521 -142T382 -133Q330 -133 278 -137T180 -152Q148 -158 112 -169T43 -190T-14 -200Q-30 -200 -38 -195Q-46 -191 -46 -178Q-46 -164
-34 -146T12 -108T109 -72Q84 -63 65 -35T47 52Q52 137 89 224T187 393T322 539T475 644Q541 677 603 677Q676 677 724 634T773 511Q773 462 751 402T676 271Q643 226 601 183T514 103T427 41T351 4Q332 -2 314 -5T277 -9Q235 -9 205 13T175 85Q175 111 182 136T196
174Q199 181 202 181Q204 181 205 178T204 169Q195 145 195 130Q195 109 208 100T245 90Q282 90 336 110T451 165T565 241T656 327Q706 386 730 438T754 531Q754 576 724 602T634 629Q606 629 571 623T495 602Q374 562 286 479T149 287T94 55Q92 10 99 -15T120
-52T145 -64L153 -63Q182 -58 224 -55T314 -51Q376 -51 440 -58T560 -80T648 -123T682 -189Q682 -195 681 -201T678 -215Q675 -227 668 -227Z" />
<glyph unicode="R" glyph-name="R" horiz-adv-x="587" d="M-8 -39Q-16 -39 -16 -30Q-16 -28 -16 -26T-14 -21Q-8 2 12 41T63 128T129 228Q123 249 124 262Q125 272 137 285T165 308T190 316Q229 369 263 413T320 483T350 509Q358 509 362 502T366 489Q366 489
343 460T282 382T202 275Q203 274 203 272T204 268L240 271Q291 275 348 289T460 326T558 378Q606 411 637 448T669 517Q669 548 632 568T507 589Q477 589 433 582T339 563T239 535T149 499T84 460Q68 446 73 437Q75 434 75 431Q75 429 73 429Q70 429 65 432Q49
442 42 457T34 486Q34 498 38 502Q56 528 97 552T195 596T314 631T437 654T548 662Q589 662 617 656Q656 648 683 618T710 543Q710 502 678 453T566 358Q522 332 465 310T350 272T241 254Q233 253 225 253T209 253Q225 213 259 171T337 92T423 33T497 10Q521 10
540 21T563 52Q563 56 567 56T570 50Q566 15 532 -1T456 -17Q402 -17 354 3T264 54T192 123T143 194Q100 131 64 73T12 -23Q10 -30 4 -34T-8 -39Z" />
<glyph unicode="S" glyph-name="S" horiz-adv-x="580" d="M237 -33Q204 -34 164 -28T86 -5T20 37T-18 101Q18 69 80 55T206 40Q291 40 354 59Q372 64 396 75T443 102T481 137T497 176Q497 190 488 203T459 229Q447 236 425 244T376 264T327 291T291 328T280 378Q285
419 317 459T399 535T506 598T619 640T718 656Q762 656 793 639T820 581Q818 563 796 538T742 483T681 420T631 353T613 287Q597 300 590 316T582 349Q582 373 592 398T617 445T645 484Q668 512 697 537T756 583Q747 596 725 596Q702 596 674 586T621 565T586 547Q543
524 500 495T420 436T361 381T336 338Q334 317 354 303T406 276T469 248Q511 227 530 200T549 144Q549 108 522 74T449 16Q408 -4 364 -15T285 -29T237 -33Z" />
<glyph unicode="T" glyph-name="T" horiz-adv-x="433" d="M13 423Q7 423 0 428Q-18 445 -18 471Q-18 502 8 535T87 589Q146 612 215 627T356 650T496 658Q521 658 545 657T591 654Q738 640 815 598T893 510Q893 491 880 474Q874 466 863 459T844 451Q838 451 838
457Q838 464 848 480Q860 498 860 513Q860 542 824 558T729 581T603 588Q557 588 510 586T422 579Q403 577 365 572T278 560T181 542T91 518T25 490T-1 455Q-1 442 14 428Q16 426 16 425Q16 423 13 423ZM288 -81Q236 -77 217 -48T198 20Q198 53 207 88T226 152Q236
180 252 211T297 285T372 393T486 554Q498 569 507 569Q513 569 515 565T516 556Q422 417 372 318T297 148Q292 134 285 109T271 54T265 -2Q265 -30 275 -50T310 -70Q325 -70 338 -60Q343 -57 344 -57Q346 -57 346 -59Q346 -62 340 -67Q321 -84 288 -81Z" />
<glyph unicode="U" glyph-name="U" horiz-adv-x="657" d="M538 -118Q489 -118 471 -96T452 -41Q452 -9 464 28T492 98T520 153Q418 20 332 -22Q305 -35 280 -35Q240 -35 218 -6T195 62Q195 67 195 72T196 81Q203 127 224 181T273 290T326 398T370 495T387 570Q387
605 367 619T313 633Q281 633 242 622T164 595T94 560T44 528Q37 522 29 522Q19 522 12 534T5 563Q5 576 10 588T25 609Q46 626 90 641T188 667T295 677Q342 677 381 668T444 636T468 575Q468 563 465 549Q459 521 439 478T392 384T335 281T282 180T246 95Q236
66 236 40Q236 16 246 1T279 -15Q302 -15 336 4Q384 30 432 80T526 192T614 320T694 443T759 543Q774 564 791 572T822 580Q834 580 839 576T839 565Q822 548 792 507T726 410T653 290T587 164T538 47T519 -45Q519 -67 527 -82T552 -100L559 -101H562Q574 -101
583 -92Q585 -90 588 -90Q590 -90 590 -92T585 -98Q578 -104 564 -111T538 -118Z" />
<glyph unicode="V" glyph-name="V" horiz-adv-x="484" d="M233 -94Q229 -94 227 -91T227 -82Q234 -71 246 -49T277 1Q260 -7 239 -14T203 -25T189 -25Q194 -8 207 40T236 157T265 301T282 450Q283 458 283 465T283 480Q283 554 261 595T205 636Q174 636 139 601T69
489Q49 443 39 392T32 293V291Q32 284 29 282T23 286Q17 299 14 319T11 362Q11 403 20 448T45 525Q66 564 98 595T167 644T240 662Q279 662 312 636T362 548Q370 519 374 487T378 416Q378 348 364 263T321 70Q357 124 401 187T495 314T597 438T701 545T801 621Q827
636 859 648T919 660Q949 660 962 643Q964 639 964 638Q964 634 959 634T949 635Q904 638 847 606T728 518T602 392T480 247T372 106T290 -13T243 -88Q240 -94 233 -94Z" />
<glyph unicode="W" glyph-name="W" horiz-adv-x="814" d="M92 -66Q99 -53 116 -18T158 66T208 174T258 294T299 414Q307 441 310 464T314 508Q314 555 296 580T249 605Q216 605 174 571T88 462Q61 416 44 365T23 266Q22 257 19 254T13 258Q8 273 8 294Q8 324 15
361T37 434T69 498Q95 536 133 566T213 613T293 630Q340 630 371 600T402 500Q402 457 392 402T358 275Q403 342 461 403T575 504Q616 534 646 547T697 561Q729 561 742 534T756 462Q756 419 746 365T720 254T686 149Q727 214 776 285T879 425T987 547T1093 633Q1118
648 1150 659T1210 671Q1240 671 1253 654Q1255 650 1255 650Q1255 646 1250 646T1240 646Q1198 649 1146 620T1038 537T925 418T815 282T716 146T636 29Q634 25 615 16T571 -2T530 -15T515 -16Q522 1 539 39T578 133T623 254T663 392Q672 431 672 455Q672 499
643 499Q619 499 580 471T495 394T402 286T312 163Q291 114 268 67T220 -21Q217 -25 197 -34T151 -52T108 -65T92 -66Z" />
<glyph unicode="X" glyph-name="X" horiz-adv-x="500" d="M-139 -95Q-142 -95 -142 -91Q-142 -84 -135 -74Q-90 -13 -21 71T131 244Q112 294 103 346T94 445Q94 481 99 510T115 558Q120 567 135 576T168 590T198 596Q214 596 214 587Q214 583 209 575Q196 554
190 521T183 448Q183 385 197 313Q268 385 344 450T498 565T651 644T796 671Q800 671 800 667T795 663Q753 664 696 640T571 572T433 472Q376 427 319 377T206 273Q222 211 245 154T296 57T350 2Q373 -10 397 -10Q412 -10 425 -5T446 10Q448 12 450 12Q452 12 453
10T453 4Q438 -15 420 -19T379 -24Q335 -24 292 8T210 95T144 212Q84 153 32 97T-60 -5T-123 -82Q-132 -95 -139 -95Z" />
<glyph unicode="Y" glyph-name="Y" horiz-adv-x="870" d="M335 -306Q286 -306 240 -292T156 -246T97 -163T75 -40V-36Q75 -25 80 -25Q87 -25 89 -38Q99 -108 128 -161T201 -244T296 -274Q350 -274 399 -244T492 -166T574 -65T644 37Q762 216 807 351T847 581Q831
526 799 461T726 332T642 213Q628 196 603 167T545 106T479 45T412 -2T353 -20Q350 -20 347 -20T341 -19Q317 -13 317 19Q317 45 330 82T364 163T411 252T460 339Q474 363 493 396T527 465T542 532Q542 564 519 584T437 605Q401 605 360 599T278 582T203 562T148
545Q97 527 61 507T24 466Q24 452 42 440L44 438Q44 437 40 437Q34 437 31 439Q9 454 9 483Q9 505 24 529T70 571Q122 601 189 622T326 656T453 668Q536 668 568 643T601 577Q601 541 582 497T536 407T485 320Q463 281 439 239T393 157T358 84T345 30Q345 17 351
9T371 1Q391 1 421 21T484 74T548 140T602 203T634 245Q704 346 757 438T834 607Q841 630 849 632Q853 634 855 634Q860 634 863 626Q873 599 877 567T882 497Q882 431 869 357T832 209T777 67T710 -53Q662 -123 602 -180T474 -272T335 -306Z" />
<glyph unicode="Z" glyph-name="Z" horiz-adv-x="743" d="M717 -47Q710 -47 715 -38Q721 -26 721 -16Q721 5 696 17T628 35T530 40Q463 40 388 34T243 20T119 4T41 -9Q25 -12 9 1T-8 32Q-8 48 7 59Q16 65 36 77T72 96L75 98Q125 148 188 204T321 315T464 420T606
507T735 564Q716 581 670 589T567 597Q506 597 441 589T320 565T229 527T194 478Q194 462 211 442Q212 441 212 439Q212 438 210 438Q203 438 199 442Q179 461 179 487Q179 512 196 539T244 590T315 629Q363 647 422 655T539 664Q606 664 667 653Q691 649 716 639T758
610T773 562Q776 559 776 555Q776 550 771 546Q770 539 768 532T763 517Q760 509 757 510T757 517Q761 529 760 539L757 537Q661 494 569 439T394 325T242 211T121 110Q148 119 202 124T322 129Q377 129 434 125T545 111T641 86T708 48T733 -5Q733 -22 726 -37Q722
-47 717 -47Z" />
<glyph unicode="[" glyph-name="bracketleft" horiz-adv-x="399" d="M167 -75Q138 -75 109 -73T59 -62T32 -40Q29 -32 45 7T92 106T163 233T249 367T339 487Q356 507 378 531T425 573T477 595Q487 596 498 596T521 597Q549 597 579 595T634 591Q643 591 643 582Q643
570 630 570Q589 570 554 569T483 563Q466 562 450 551T420 525T400 502Q370 462 336 408T268 295T207 178T164 72T147 -8Q147 -19 150 -28Q158 -37 177 -41T219 -48T257 -50T273 -51Q282 -52 282 -60Q282 -72 266 -72Q255 -72 227 -73T167 -75Z" />
<glyph unicode="\" glyph-name="backslash" horiz-adv-x="625" d="M563 -122Q555 -122 550 -111Q531 -67 493 -1T404 142T298 298T191 449T95 577Q89 585 89 589Q89 596 102 596Q112 596 123 594T138 591Q143 591 166 562T225 482T303 368T388 238T469 108T534
-5T571 -85Q575 -94 575 -104Q575 -122 563 -122Z" />
<glyph unicode="]" glyph-name="bracketright" horiz-adv-x="399" d="M-8 -74Q-36 -74 -66 -72T-121 -68Q-130 -68 -130 -59Q-130 -47 -117 -47Q-76 -47 -42 -46T30 -40Q47 -38 63 -27T92 -1T113 22Q144 62 178 116T246 229T306 347T350 453T366 532Q366 543 363
552Q356 561 336 565T294 571T255 573T239 574Q231 575 231 584Q231 588 234 591T243 595Q254 595 282 597T345 599Q375 599 404 596T454 586T480 564Q483 556 467 517T420 418T349 291T264 156T174 36Q158 17 136 -7T88 -49T35 -72Q25 -73 15 -73T-8 -74Z" />
<glyph unicode="^" glyph-name="asciicircum" horiz-adv-x="461" d="M176 338Q171 338 171 343Q171 348 175 353T186 358Q204 358 231 369T287 399T343 439Q347 445 359 457T385 482T407 499T411 496Q398 474 398 446Q398 420 409 397T438 360T476 349H481Q489
349 489 345Q489 337 468 333Q458 331 448 330T429 328Q382 328 358 352T333 406Q295 374 251 355T176 338Z" />
<glyph unicode="_" glyph-name="underscore" horiz-adv-x="556" d="M-90 -118V-68H466V-118H-90Z" />
<glyph unicode="`" glyph-name="grave" horiz-adv-x="500" d="M268 346Q230 346 196 362T136 401T98 437Q93 442 101 450T122 464T145 470Q153 470 154 467Q168 449 190 425T237 383T280 360Q290 358 290 353Q290 351 286 349T268 346Z" />
<glyph unicode="a" glyph-name="a" horiz-adv-x="476" d="M55 -1Q24 -1 7 18T-10 69Q-10 98 5 133T55 204Q90 242 142 265T241 289Q279 289 306 273T342 231Q353 231 369 225T386 203Q386 192 375 178Q368 168 351 148T318 105Q306 87 299 72T292 45Q292 30 307
30Q324 30 358 49Q395 70 429 97T482 140Q487 144 489 144Q493 144 493 139Q493 133 488 128Q479 120 453 98T394 52T328 13Q312 6 299 3T274 -1Q247 -1 233 14T219 55Q219 65 222 76T229 98L236 115Q210 83 184 62T132 24Q110 11 91 5T55 -1ZM86 25Q104 25 138
46T217 113Q223 119 239 134T275 169T307 208T321 241Q321 260 288 260Q259 260 219 238T141 171Q103 126 86 94T68 44Q68 25 86 25Z" />
<glyph unicode="b" glyph-name="b" horiz-adv-x="405" d="M154 -17Q92 -17 92 46Q92 57 93 68T99 92Q83 67 69 49T46 20Q24 -5 2 -5Q-8 -5 -22 -1T-49 16Q-36 34 -8 75T52 164Q39 151 24 138T-5 113Q-9 109 -14 109Q-18 109 -18 113Q-18 118 -10 125Q11 143 30
160T72 206T126 285Q182 371 222 443T274 555Q276 560 277 566T278 578Q278 586 274 592T259 600Q257 600 257 602T259 604Q280 603 294 590T312 543Q315 516 297 465T248 352T182 228Q218 264 258 286T331 309Q361 309 379 290T397 240Q397 206 378 166T327 87Q288
41 241 12T154 -17ZM149 -8Q175 -8 208 14T268 78Q288 109 297 138T306 189Q306 216 294 231T262 246Q236 246 203 224T143 159Q123 129 114 100T104 48Q104 -8 149 -8Z" />
<glyph unicode="c" glyph-name="c" horiz-adv-x="339" d="M96 -10Q53 -10 24 11T-6 74Q-6 118 15 156T72 222T148 267T231 283Q272 283 291 268T311 232Q311 218 303 205T281 191Q272 191 272 198Q272 203 275 207Q287 228 287 244Q287 264 266 264Q249 264 222
251Q200 241 176 221T130 174T96 120T82 68Q82 45 95 30T134 15Q151 15 174 23T227 49Q251 64 277 85T329 128T372 166Q378 172 382 172Q386 172 386 167Q386 160 380 155Q354 131 323 104T259 52T193 13Q141 -10 96 -10Z" />
<glyph unicode="d" glyph-name="d" horiz-adv-x="406" d="M282 -88Q266 -74 259 -53T251 -4Q251 21 256 49T271 108Q252 84 229 59T184 16Q142 -18 93 -18Q56 -18 30 5T4 79Q4 92 6 104T13 128Q7 123 2 118T-9 109Q-13 106 -17 106Q-22 106 -22 111Q-22 117 -12
125Q1 136 17 155T54 196Q89 235 139 259T239 283Q281 283 300 268T320 232Q345 285 372 333T424 419T465 474Q476 487 492 493T526 499Q543 499 559 494T587 478Q577 472 556 450T507 394T450 323T394 247Q363 202 336 150T291 50T274 -36Q274 -66 287 -82Q290
-86 287 -87T282 -88ZM124 16Q142 16 172 34T246 98Q260 112 268 122T283 143Q288 157 293 170T304 196Q298 192 295 192Q287 192 287 201Q287 205 290 211Q300 228 300 241Q300 262 276 262Q263 262 241 254Q216 244 190 224T141 176T105 119T91 64Q91 45 98 31T124
16Z" />
<glyph unicode="e" glyph-name="e" horiz-adv-x="340" d="M97 -10Q53 -10 24 11T-6 74Q-6 118 15 156T71 222T147 267T230 283Q271 283 291 269T311 233Q311 213 293 191T239 151Q217 141 189 134T139 126Q123 126 123 131Q123 135 137 135Q150 135 177 142T231
163Q260 179 272 195T284 224Q284 236 275 244T248 252Q232 252 212 243Q183 230 153 201T102 136T82 69Q82 47 94 32T132 17Q158 17 192 33T261 74T326 124T374 166Q380 172 383 172Q386 172 386 167Q386 160 380 155Q342 120 298 82T203 18T97 -10Z" />
<glyph unicode="f" glyph-name="f" horiz-adv-x="239" d="M34 -89Q13 -72 5 -50T-3 -5Q-3 32 13 90T58 212Q56 211 54 211Q49 211 44 222T38 247Q38 261 47 275T85 296Q91 298 101 300Q133 360 170 409T244 484Q267 500 292 507T343 515Q373 515 402 504T450 472T469
418V417Q469 413 466 413T461 418Q454 445 434 456T390 468Q371 468 352 462T319 447Q283 424 247 384T182 303Q209 301 230 294T262 279Q276 269 283 258Q287 251 287 246Q287 240 282 240Q279 240 273 243Q255 255 217 255Q201 255 182 253T142 244L129 225Q97
178 74 129T39 35T27 -41Q27 -69 39 -84Q42 -88 39 -89T34 -89Z" />
<glyph unicode="g" glyph-name="g" horiz-adv-x="408" d="M-89 -267Q-150 -267 -190 -253T-254 -215Q-270 -198 -284 -171T-298 -124Q-298 -117 -295 -117Q-288 -117 -286 -125Q-286 -128 -280 -148T-256 -192T-206 -234T-120 -252Q-57 -252 -7 -223T82 -146T155
-42T218 68T279 163Q266 149 247 129T205 87T163 49T130 24Q108 11 89 5T53 -1Q22 -1 5 18T-12 69Q-12 98 3 133T53 204Q88 242 140 265T239 289Q256 289 272 286T301 274Q319 263 327 254T340 231Q346 231 359 226T383 213T394 197Q394 193 386 188Q366 178 341
141T286 52T218 -55T134 -159T33 -237T-89 -267ZM81 25Q101 25 130 45Q152 60 178 82T229 130T272 176Q305 214 305 238Q305 258 281 258Q257 258 215 235Q191 222 164 198T114 146T76 94Q60 65 60 47Q60 25 81 25Z" />
<glyph unicode="h" glyph-name="h" horiz-adv-x="403" d="M216 -1Q191 -1 177 13T162 51Q162 66 169 85T191 124Q214 155 235 178T266 221Q276 239 276 249Q276 264 258 264Q242 264 213 247T151 190Q133 168 110 139T73 84Q67 73 62 62T45 23Q42 16 29 8T7 0Q1
0 1 5Q1 9 4 15Q9 24 26 72T71 185Q56 169 38 151T-2 115Q-6 111 -11 111Q-17 111 -17 116Q-17 120 -8 127Q15 147 38 169T88 226Q97 248 120 289T175 382T246 484T326 575Q363 611 403 630T477 649Q506 649 524 635T542 590Q542 559 525 524T489 468Q446 420 388
380T265 312Q263 311 261 311T257 310Q250 310 250 315Q250 321 261 325Q299 342 338 367T412 421T469 479Q496 513 504 534T512 571Q512 591 490 591Q480 591 461 582T416 551Q376 519 334 473T251 373T174 263T109 154Q121 171 134 188T160 220Q190 253 219 268T271
283Q297 283 313 268T329 226Q329 212 325 199T314 174Q306 157 293 134T268 91Q245 54 245 38Q245 29 253 29Q263 29 286 43Q304 54 326 71T371 108T410 141T432 161Q438 167 441 167Q444 167 444 164Q444 159 437 150Q411 123 372 89T284 23Q265 10 248 5T216
-1Z" />
<glyph unicode="i" glyph-name="i" horiz-adv-x="275" d="M223 306Q209 306 202 315T195 334Q195 354 214 373T254 393Q268 393 275 384T282 365Q282 344 264 325T223 306ZM70 -1Q29 -1 15 16T0 56Q0 74 6 90T16 114Q22 124 32 137T56 165Q36 148 19 132T-10 108Q-13
105 -16 105Q-20 105 -20 110Q-20 118 -9 126Q17 148 41 174T88 222T127 254Q145 264 156 267T174 270Q185 270 190 267T192 259Q175 242 159 216T128 160T106 105T97 61Q97 36 117 36Q136 36 166 53T230 98T293 151Q297 155 300 155Q305 155 305 150T303 143Q270
112 229 79T146 22T70 -1Z" />
<glyph unicode="j" glyph-name="j" horiz-adv-x="159" d="M137 306Q123 306 116 315T109 334Q109 354 128 373T168 393Q182 393 189 384T196 365Q196 344 178 325T137 306ZM-342 -269Q-390 -269 -434 -255T-506 -210T-534 -126V-124Q-534 -118 -530 -118Q-526
-118 -524 -125Q-513 -181 -470 -216T-371 -251Q-336 -251 -294 -232T-209 -178T-125 -101T-50 -11Q-38 5 -17 36T26 106T64 178Q59 173 48 163T27 142T11 127Q10 126 10 126T9 126Q4 126 4 133Q4 138 9 142Q17 149 34 166T67 206T82 246Q82 258 70 263Q68 264
68 266Q68 273 76 273Q96 273 107 259T118 219Q118 191 106 153T74 72T31 -10T-13 -81T-51 -130Q-86 -167 -134 -199T-235 -250T-342 -269Z" />
<glyph unicode="k" glyph-name="k" horiz-adv-x="340" d="M37 -79Q15 -59 8 -43T0 3Q0 33 8 70T33 147Q23 137 12 127T-10 109Q-13 106 -16 106Q-19 106 -19 109Q-19 116 -7 128Q9 142 23 159T54 197Q104 308 166 397T316 568Q361 609 400 627T470 645Q500 645
517 629T534 587Q534 562 518 530T464 463Q438 438 402 412T328 362T257 324Q255 323 253 323T249 322Q242 322 242 327Q242 333 253 337Q284 351 321 375T394 427T453 480Q483 512 496 534T510 569Q510 584 493 584Q475 584 442 566T365 509Q312 462 261 401T167
281T96 175Q135 227 172 256T240 298Q266 308 289 308Q315 308 331 295T347 262Q347 242 334 217T288 168Q263 150 222 137T144 123Q123 123 108 129Q128 104 158 81T219 43T275 28Q292 28 306 37T320 59Q320 61 322 61T325 59Q325 40 310 28T272 11Q262 9 252
8T230 6Q189 6 154 20T93 56T56 98Q43 66 37 35T30 -23Q30 -58 42 -73Q45 -77 42 -78T37 -79ZM125 134Q150 134 184 146T241 175Q259 189 267 205T276 234Q276 248 268 257T243 267Q227 267 205 257T154 220Q138 205 122 189T91 156Q93 151 96 146T103 138Q107
136 113 135T125 134Z" />
<glyph unicode="l" glyph-name="l" horiz-adv-x="294" d="M92 -5Q52 -5 36 14T20 60Q20 85 29 113T51 166Q38 152 26 141T6 122Q2 119 -2 119Q-7 119 -7 124Q-7 129 -1 133Q20 151 48 182T100 245Q120 271 148 310T205 392T255 472Q258 478 261 487T265 503Q265
513 257 513Q255 513 246 509T227 501T216 497Q208 497 217 506Q233 518 257 529T308 549T352 557Q394 557 394 530Q394 516 381 493Q370 475 349 451T303 399T253 345T213 298Q209 293 194 272T159 222T120 160T88 98T75 48Q75 21 101 21Q118 21 144 31Q169 40
196 58T250 98T297 138T328 167Q334 173 338 173Q342 173 342 168Q342 163 337 158Q321 141 294 114T233 60T163 14T92 -5Z" />
<glyph unicode="m" glyph-name="m" horiz-adv-x="518" d="M-5 -5Q-15 -5 -29 -1T-57 16Q-46 31 -26 56T18 113T61 175Q45 159 26 141T-12 108Q-16 105 -20 105Q-24 105 -24 109Q-24 115 -15 123Q13 148 46 179T96 244Q101 256 101 266Q101 279 96 282Q92 285 92
290Q92 299 101 299Q106 299 109 297Q120 292 130 278T140 235Q140 208 129 175Q140 192 151 207T172 236Q192 262 214 275T254 289Q282 289 282 257Q282 239 270 210Q259 185 240 150Q257 173 274 194T305 229Q334 258 360 271T409 284Q435 284 450 270T466 230Q466
212 457 191Q451 179 437 159T407 117T380 77T369 51Q369 41 380 41Q397 41 419 56Q445 74 475 99T524 140Q528 144 531 144Q535 144 535 139Q535 133 530 128Q515 114 492 93T441 51T388 16T342 1Q316 1 300 13T283 51Q283 68 290 89Q297 110 318 138T363 194T403
240Q415 254 415 261Q415 270 403 270Q389 270 362 255T303 207Q283 186 263 154T226 90T201 32Q194 14 175 14Q165 14 157 20T152 33Q177 77 201 120T246 210Q260 241 260 257Q260 271 248 271Q236 271 216 257T180 224Q156 196 134 162T96 99Q83 78 69 58T38
20Q16 -5 -5 -5Z" />
<glyph unicode="n" glyph-name="n" horiz-adv-x="397" d="M-5 -5Q-15 -5 -29 -1T-57 16Q-46 31 -26 56T18 113T61 175Q45 159 26 141T-12 108Q-16 104 -21 104Q-25 104 -25 108Q-25 113 -17 120Q11 145 45 177T96 244Q101 256 101 266Q101 279 96 282Q92 285 92
290Q92 299 101 299Q106 299 109 297Q120 292 130 278T140 236Q140 220 136 200T122 153Q137 173 152 192T181 226Q208 257 235 270T285 284Q311 284 327 269T343 230Q343 211 333 191Q330 183 319 167T295 131T271 97Q258 81 253 70T248 51Q248 41 259 41Q273
41 298 56Q313 65 332 80T371 112T403 140Q407 144 410 144Q414 144 414 139Q414 133 409 128Q379 100 340 67T262 16Q231 1 205 1Q183 1 170 12T157 46Q157 62 165 84Q175 111 193 138T232 189T268 231Q281 245 281 255Q281 264 269 264Q257 264 234 251T181 207Q140
164 109 114T38 20Q16 -5 -5 -5Z" />
<glyph unicode="o" glyph-name="o" horiz-adv-x="399" d="M77 -9Q38 -9 19 10T-1 61Q-1 80 4 98T15 130Q8 123 2 118T-9 109Q-13 106 -16 106Q-20 106 -20 111Q-20 118 -10 127Q25 156 45 178T87 220Q124 252 166 270T250 288Q294 288 319 267T344 205Q344 182
331 152T288 90Q276 77 261 65T235 46Q284 51 327 80T404 139Q409 142 411 142Q416 142 416 137Q416 133 411 128Q368 87 319 59T209 32Q174 13 141 2T77 -9ZM122 19Q136 19 152 24T184 37Q178 37 173 43T167 59Q167 79 182 100T219 136T262 151Q274 151 284 145T296
127Q313 146 319 168T326 209Q326 235 310 248T265 262Q238 262 206 243T145 194T98 129T79 62Q79 19 122 19Z" />
<glyph unicode="p" glyph-name="p" horiz-adv-x="401" d="M-119 -278Q-126 -268 -133 -253T-141 -212Q-141 -191 -126 -152T-87 -62T-32 41T30 143Q11 124 -9 109Q-13 106 -15 106Q-18 106 -18 110Q-18 112 -16 117T-7 127Q13 144 41 173T99 241Q122 270 139 292T166
325Q177 336 186 342T205 348Q216 348 230 343T258 323Q247 310 229 286T195 240Q218 267 256 288T327 309Q357 309 375 290T393 240Q393 206 374 166T323 87Q284 41 237 12T150 -17Q122 -17 106 -1T90 46Q90 78 104 115Q77 81 47 37T-13 -53T-65 -141T-103 -215T-117
-263Q-117 -271 -115 -273Q-112 -277 -114 -278T-119 -278ZM145 -6Q174 -6 202 12T254 61T291 125T305 189Q305 216 293 231T258 246Q232 246 199 224T139 159Q119 130 111 101T102 48Q102 19 114 7T145 -6Z" />
<glyph unicode="q" glyph-name="q" horiz-adv-x="416" d="M119 -304Q90 -299 78 -275T65 -222Q65 -181 82 -141T118 -65Q138 -27 161 11T206 85Q188 66 169 51T132 24Q110 11 91 5T55 -1Q24 -1 7 18T-10 69Q-10 98 5 133T55 204Q90 242 142 265T243 289Q279 289
306 272T342 231Q349 231 350 228Q360 227 371 222T394 209Q380 191 352 152T288 62T218 -43T155 -147T114 -231Q110 -243 108 -252T106 -268Q106 -281 111 -287T123 -298Q126 -299 123 -301T119 -304ZM83 21Q100 21 132 41T208 107Q232 132 245 147T270 177T301
211Q308 218 311 226T314 239Q314 259 281 259Q253 259 216 237T141 171Q101 125 83 91T65 40Q65 21 83 21Z" />
<glyph unicode="r" glyph-name="r" horiz-adv-x="361" d="M150 -1Q107 -1 92 15T77 52Q77 78 97 107Q109 124 124 145T152 186T170 213Q177 223 178 226T180 234Q180 240 173 245T148 251Q143 251 140 251T132 250Q124 250 123 251L120 247Q92 210 60 175T-10
109Q-14 106 -16 106Q-20 106 -20 110Q-20 118 -8 128Q23 154 53 186T107 255Q98 261 98 279Q98 306 115 337Q127 358 141 368T167 379Q188 379 188 354Q188 338 176 314Q171 302 157 284T128 257Q149 264 181 266T236 269Q249 269 268 262T287 235Q287 222 275
207Q272 203 259 188T231 152T202 110Q189 91 182 75T174 48Q174 32 192 32Q213 32 248 52T323 103T398 169Q402 173 405 173Q409 173 409 168Q409 162 404 157Q369 122 327 86T239 24T150 -1Z" />
<glyph unicode="s" glyph-name="s" horiz-adv-x="307" d="M57 -11Q17 -11 -13 4T-58 62Q-59 66 -56 67T-51 63Q-41 41 -25 32T10 23Q42 23 66 42T110 90T145 149T175 202Q197 239 227 269T283 306Q277 309 268 309Q243 309 213 294T153 255T94 205T42 156T4 120Q-4
113 -8 113Q-12 113 -12 117Q-12 123 -7 128Q23 154 55 186T120 249T187 300T256 320Q260 320 263 320T271 319Q282 318 291 313T297 306Q274 296 261 266T237 196T211 115T166 42Q180 47 210 65T276 109T343 168Q347 172 351 172Q356 172 356 167Q356 163 352
159Q325 133 292 104T221 48T141 6T57 -11Z" />
<glyph unicode="t" glyph-name="t" horiz-adv-x="278" d="M66 -17Q34 -17 17 2T0 55Q0 87 17 130L19 135L1 118Q-3 114 -8 114Q-13 114 -13 118Q-13 123 -6 130Q20 153 47 178T94 227Q87 224 79 224Q71 224 67 228Q60 233 60 246Q60 257 70 269T114 290Q121 292
128 293T143 295Q175 340 199 378T237 430Q243 437 258 442T291 450T319 453Q352 453 352 447Q352 443 337 428Q312 404 279 369T210 292Q239 288 263 277T299 249Q303 244 303 237Q303 229 298 229Q294 229 289 234Q268 255 219 255Q209 255 199 254T177 251Q143
207 115 163T75 81Q69 63 69 48Q69 33 76 24T97 14Q106 14 119 19Q138 26 163 42T213 80T261 121T299 155T316 171Q319 174 321 174Q325 174 325 168Q325 161 319 155Q309 145 289 125T242 81T185 34T125 -2T66 -17Z" />
<glyph unicode="u" glyph-name="u" horiz-adv-x="459" d="M299 -39Q286 -34 274 -21T261 24Q261 51 270 80T293 139Q267 106 237 74T176 22T119 1Q97 1 83 13T68 50Q68 68 75 89Q82 110 100 136T139 187T177 231Q188 244 188 252Q188 262 177 262Q165 262 143
246Q120 229 94 205T45 158T6 122Q3 119 0 119Q-5 119 -5 125Q-5 130 4 138Q48 176 77 207T134 261Q149 273 165 278T195 284Q219 284 235 270T251 231Q251 212 241 191Q230 166 212 142T176 94Q163 75 157 63T151 45Q151 37 159 37Q167 37 182 46T213 69Q224 79
232 87T245 100Q268 124 291 151T331 202Q344 219 351 228T368 247Q385 266 404 267Q415 267 429 263T458 245Q448 231 429 207T387 153T344 92T310 34T297 -13Q297 -27 305 -35Q309 -39 305 -39T299 -39Z" />
<glyph unicode="v" glyph-name="v" horiz-adv-x="294" d="M42 0Q31 0 25 3Q39 23 51 56T74 123T89 181T95 208L53 166Q40 153 25 139T-5 113Q-9 110 -12 108T-19 105Q-23 105 -23 109Q-23 115 -14 123Q14 148 47 179T97 244Q102 256 102 266Q102 279 97 282Q93
285 93 290Q93 299 102 299Q108 299 117 294T132 283Q144 271 147 253T151 216Q151 188 146 153T130 86T105 30L103 27Q109 31 113 34T120 40Q150 70 172 107T213 184T252 259T298 319Q313 334 337 334Q350 334 363 327T382 304Q384 300 381 299T375 302Q369 317
356 317Q343 317 322 298Q286 263 257 217T199 123T130 36Q114 20 88 10T42 0Z" />
<glyph unicode="w" glyph-name="w" horiz-adv-x="521" d="M68 -1Q28 -1 14 16T0 56Q0 90 15 113T56 165Q36 148 19 133T-10 109Q-13 106 -16 106Q-20 106 -20 110Q-20 118 -8 128Q17 147 44 174T96 226T136 259Q147 265 157 267T174 270Q185 270 190 267T192 259Q175
241 158 215T127 159T105 104T96 60Q96 39 110 39Q121 39 135 49T163 71Q179 85 197 107T234 154T271 198Q286 215 302 226T338 238Q352 238 359 232T362 222Q342 201 326 172T300 114T290 61Q290 39 304 39Q315 39 329 49T358 71Q373 85 386 99T413 130Q415 182
426 215T454 266Q460 274 479 280T515 286Q534 286 534 276Q534 272 528 264Q517 251 502 230T473 186T455 146Q451 130 451 117Q451 98 464 98Q476 98 495 113Q498 116 507 123T525 138T538 150Q543 155 546 155Q549 155 549 150Q549 144 546 141Q537 132 522
118T499 98Q490 91 476 84T448 77Q436 77 427 85T415 112Q378 68 337 34T261 -1Q221 -1 208 16T194 55Q194 70 199 87Q166 51 132 25T68 -1Z" />
<glyph unicode="x" glyph-name="x" horiz-adv-x="300" d="M-105 -96Q-109 -96 -110 -93T-108 -86Q-77 -45 -28 14T82 133Q67 172 67 211Q67 253 83 275Q88 281 105 291T137 308Q151 314 158 314Q164 314 159 306Q143 280 143 234Q143 214 146 193Q195 237 246
272T346 327T439 346Q441 346 441 344T436 342Q400 342 345 311T229 232Q210 216 191 199T151 165Q159 129 172 96T202 42Q213 29 225 21T254 13Q273 13 282 25Q284 27 286 26T286 22Q279 12 268 7T245 2Q206 2 177 18T127 60T93 111Q31 52 -18 -2T-91 -87Q-97
-96 -105 -96Z" />
<glyph unicode="y" glyph-name="y" horiz-adv-x="444" d="M-68 -269Q-116 -269 -156 -255T-224 -209Q-251 -178 -260 -126Q-262 -118 -256 -118Q-252 -118 -250 -125Q-239 -181 -196 -216T-96 -251Q-44 -251 9 -224T112 -149T206 -41Q253 23 291 92T366 231Q353
212 339 192T311 155Q284 121 250 86T181 26T119 1Q97 1 83 13T68 50Q68 72 76 90T94 125Q111 153 135 182T177 231Q188 244 188 252Q188 262 177 262Q164 262 144 246Q120 229 95 206T48 161T12 128Q5 123 2 123Q-2 123 -2 127Q-2 133 5 139Q25 156 47 179T92
224T134 261Q149 273 165 278T195 284Q219 284 235 270T252 231Q252 212 242 191Q230 166 212 142T176 94Q163 75 157 63T151 46Q151 37 159 37Q167 37 182 46T214 69Q241 94 273 130T337 207T391 281Q405 314 421 339T462 364Q476 364 484 356T493 340Q493 333
487 329T467 325Q456 327 442 321T413 283Q397 247 383 199T348 96T296 -17T209 -133Q156 -189 84 -229T-68 -269Z" />
<glyph unicode="z" glyph-name="z" horiz-adv-x="410" d="M-187 -299Q-238 -299 -263 -285T-289 -247Q-289 -215 -242 -174T-100 -98Q-52 -79 -1 -68T99 -56Q114 -56 129 -57T158 -61Q176 -65 189 -73T202 -89Q202 -95 194 -93Q187 -91 179 -90T160 -89Q129 -89
89 -96T7 -116T-73 -144Q-133 -166 -169 -197T-205 -252Q-205 -264 -193 -272T-152 -280Q-123 -280 -85 -272T-8 -250T62 -223Q121 -198 170 -160T249 -79T279 -1Q279 31 250 51T152 72Q118 72 85 68T28 58T1 53Q-9 53 -9 61Q-9 71 3 84T26 101Q50 109 83 117T172
147Q205 161 232 175T260 199Q260 206 248 208T218 212T184 213Q160 213 132 210T83 199T56 174Q41 183 41 202Q41 236 77 257Q98 270 129 277T201 284Q260 284 286 269T313 232Q313 200 268 171Q248 158 219 147T154 124Q164 125 173 125T192 126Q266 126 307
99T348 27Q348 -7 321 -50T234 -140Q191 -174 146 -199T71 -237Q11 -263 -58 -281T-187 -299Z" />
<glyph unicode="{" glyph-name="braceleft" horiz-adv-x="399" d="M222 -51Q162 -51 132 -24T102 47Q102 75 113 107T142 169T174 222T197 255Q207 271 207 285Q207 302 195 315T163 335Q148 340 148 350Q148 357 156 363T176 372Q203 377 227 393T279 443T343
533Q378 588 428 606T535 625Q563 625 591 622T646 615Q654 613 654 606Q654 602 651 599T643 596Q622 599 604 601T568 603Q522 603 485 584T413 509Q376 451 333 419T250 374T180 354Q175 354 170 351Q190 344 214 334T256 309T274 277Q274 266 267 256Q258 243
243 213T217 147Q210 125 203 96T196 40Q196 12 208 -8T253 -29Q257 -29 261 -29T270 -28Q281 -26 297 -24T328 -17H331Q337 -17 337 -22Q337 -31 327 -34Q297 -43 271 -47T222 -51Z" />
<glyph unicode="|" glyph-name="bar" horiz-adv-x="250" d="M125 -139Q114 -139 117 -125Q128 -80 134 -12T144 137T147 303Q147 404 144 499T135 667V670Q135 686 148 686Q159 686 171 680T188 672Q194 671 197 619T200 486Q200 427 199 359T194 221T185 88T172
-24T156 -103Q150 -122 141 -130T125 -139Z" />
<glyph unicode="}" glyph-name="braceright" horiz-adv-x="399" d="M25 -44Q-3 -44 -31 -41T-87 -34Q-95 -32 -95 -25Q-95 -14 -84 -16Q-43 -22 -11 -22Q36 -22 73 -3T146 72Q183 131 226 162T309 207T379 226L389 229Q370 237 346 247T303 272T285 303Q285 314
292 324Q301 338 316 368T342 434Q349 455 356 484T363 541Q363 570 351 590T305 610Q301 610 298 610T289 609Q279 608 263 606T231 598Q230 598 230 598T228 597Q222 597 222 603Q222 612 232 615Q262 624 288 628T336 632Q397 632 427 605T457 533Q457 505 446
474T417 412T385 359T362 325Q352 309 352 295Q352 279 364 266T396 246Q411 241 411 231Q411 224 403 217T383 208Q357 204 332 188T280 138T216 47Q182 -7 132 -25T25 -44Z" />
<glyph unicode="~" glyph-name="asciitilde" horiz-adv-x="461" d="M104 159Q102 159 102 162Q102 168 109 178Q117 190 136 207T184 237T244 250Q265 250 288 242T334 224T378 215Q395 215 412 222T443 240Q451 246 457 246Q466 246 460 237Q441 215 409 194T345
173Q324 173 303 181T261 197T214 206Q195 206 168 195T118 167Q109 159 104 159Z" />
<glyph unicode="&#xa0;" glyph-name="uni00A0" horiz-adv-x="267" />
<glyph unicode="&#xa1;" glyph-name="exclamdown" horiz-adv-x="260" d="M164 243Q153 243 144 249Q133 258 133 274Q133 295 152 316Q162 328 175 334T199 341Q212 341 220 334Q230 325 230 309Q230 287 212 267Q191 243 164 243ZM-88 -208Q-104 -208 -112 -201T-120
-189Q-119 -175 -103 -159T-64 -124T-24 -88Q3 -59 29 -23T76 52T109 123T122 176Q122 194 111 197Q107 199 108 202T115 203Q133 196 141 179T149 137Q149 106 138 68T108 -9T70 -80T31 -133Q-9 -177 -39 -192T-88 -208Z" />
<glyph unicode="&#xa2;" glyph-name="cent" horiz-adv-x="375" d="M126 -6Q117 -6 117 5Q117 14 126 34T147 79T172 123T189 153Q156 158 135 179T114 234Q114 279 136 317T194 385T272 429T357 444Q361 443 364 443T370 443Q400 488 420 515T444 543H445Q449
543 454 542T459 535Q459 529 451 518Q438 501 423 481T393 438Q430 425 430 393Q430 380 424 368Q420 360 413 356T400 351Q391 351 391 358Q391 363 394 367Q406 390 406 405Q406 425 383 424Q346 369 306 305T227 178Q236 175 249 175Q268 175 292 183T346 209L392
238Q399 242 404 242Q409 242 409 237Q409 228 397 219Q378 207 356 195T313 173Q260 149 211 151Q206 140 192 113T163 56T141 7Q136 -6 126 -6ZM209 186Q244 245 282 305T352 416Q350 415 348 414T342 411Q322 402 297 384T249 342T209 293T188 244Q187 240 187
237T187 230Q187 202 209 186Z" />
<glyph unicode="&#xa3;" glyph-name="sterling" horiz-adv-x="580" d="M559 -82Q567 -69 549 -58T495 -38T410 -24T307 -19Q281 -19 254 -20T201 -24Q160 -28 112 -36T32 -45Q12 -45 3 -41Q-5 -37 -5 -29Q-5 -19 12 -5T82 19Q101 35 117 68T149 135T177 188Q152
189 135 197T117 216Q117 224 131 233T176 248Q180 249 194 250T213 252Q251 317 295 366T376 434Q424 457 480 457Q529 457 570 439T626 386V385Q626 383 623 383T618 386Q608 406 585 414T536 422Q516 422 497 418T462 407Q438 396 409 373T353 318T302 255Q322
254 344 252T386 246T413 239Q421 235 427 232T438 223Q444 217 444 213Q444 210 440 210Q438 210 430 213Q419 217 396 217Q368 217 331 213T259 201Q254 195 243 166T206 99T131 27Q140 29 150 30T172 32Q202 35 242 35Q294 35 351 30T459 13T542 -18T574 -65Q574
-73 571 -82Q569 -89 563 -89T559 -82Z" />
<glyph unicode="&#xa4;" glyph-name="currency" horiz-adv-x="600" d="M277 288L75 169L255 324Q250 341 250 357Q250 396 272 436T327 505L272 661L378 542Q429 570 481 570Q504 570 524 563T559 540L763 661L579 503Q585 485 585 467Q585 428 563 392T509 324L566
169L457 288Q404 260 356 260Q308 260 277 288ZM390 306Q421 306 450 325T498 375T518 442Q518 477 497 500T444 523Q414 523 385 504T337 454T318 386Q318 352 337 329T390 306Z" />
<glyph unicode="&#xa5;" glyph-name="yen" horiz-adv-x="444" d="M256 -52Q179 -46 184 17Q186 36 191 59T201 100Q181 97 160 94T112 88Q106 88 106 98Q106 106 109 114T119 123Q145 125 168 126T210 128Q214 139 217 150T224 172Q208 170 190 167T152 162Q146
162 146 172Q146 180 149 188T158 197Q180 199 198 200T233 202L236 213Q244 245 246 281T247 352Q246 388 234 404T205 421Q189 421 174 408T149 372Q139 348 134 322T129 270Q130 266 129 265T125 267Q119 281 119 306Q119 327 123 350T137 390Q153 420 181 441T237
463Q257 463 274 449T300 402Q305 385 306 361T308 311Q308 274 306 242T300 202Q331 246 367 291T445 376T527 440Q540 448 557 454T588 460Q595 460 601 458T610 451Q611 450 611 450T611 449Q611 447 608 447T603 447Q573 449 536 427T460 368T384 287T319 202Q366
202 384 201T411 198Q420 197 420 191Q420 186 412 186Q398 186 377 185T336 184T305 182Q295 167 288 154T274 129Q324 128 343 127T371 124Q381 122 381 117Q381 112 372 112Q359 112 338 111T296 110T265 108L262 101Q258 88 250 58T241 0Q241 -16 246 -28T265
-44Q267 -44 268 -44T270 -45Q280 -45 289 -38Q294 -34 295 -36T291 -42Q278 -54 256 -52Z" />
<glyph unicode="&#xa6;" glyph-name="brokenbar" horiz-adv-x="250" d="M171 326Q162 326 155 330T147 341Q147 432 144 517T136 667V670Q136 686 149 686Q160 686 172 680T189 672Q195 671 197 622T200 495Q200 460 200 422T198 342Q198 335 190 331T171 326ZM126
-139Q115 -139 118 -125Q132 -67 139 26T147 225Q147 233 154 236T170 240Q179 240 187 236T194 222Q191 154 186 90T173 -24T157 -103Q151 -122 142 -130T126 -139Z" />
<glyph unicode="&#xa7;" glyph-name="section" horiz-adv-x="553" d="M130 -139Q96 -139 57 -132T-19 -110T-83 -69T-121 -5Q-86 -37 -24 -51T103 -66Q188 -66 251 -47Q269 -42 293 -31T340 -3T378 32T394 71Q394 79 391 88Q383 107 356 123Q342 132 313 142T253
169T199 208T177 264Q177 299 202 336Q191 356 194 381Q199 422 231 462T312 537T419 600T533 642T632 658Q675 658 706 642T733 583Q731 566 709 541T656 486T594 422T544 355T526 289Q510 302 503 318T495 351Q495 375 505 400T530 447T558 486Q582 514 611 539T670
586Q662 598 639 598Q616 598 587 588T534 567T499 549Q456 526 413 497T333 438T274 383T249 341Q247 320 267 306T319 279T382 250Q424 230 443 203T462 147Q462 112 436 78Q445 59 445 39Q445 3 418 -32T345 -90Q313 -106 278 -116T211 -131T158 -137T130 -139ZM387
130Q398 141 404 153T411 179Q411 192 402 205T373 231Q358 240 326 252T262 281Q232 248 232 230Q232 210 253 196T304 169T365 142Q376 138 387 130Z" />
<glyph unicode="&#xa8;" glyph-name="dieresis" horiz-adv-x="500" d="M307 370Q300 370 296 376T291 390Q291 406 304 419T335 441T366 449Q375 449 375 439Q375 427 361 409Q354 400 339 385T307 370ZM181 370Q174 370 170 376T165 390Q165 406 178 419T209
441T240 449Q249 449 249 439Q249 427 235 409Q228 400 213 385T181 370Z" />
<glyph unicode="&#xa9;" glyph-name="copyright" horiz-adv-x="767" d="M406 49Q316 49 257 82T169 170T140 288Q140 345 162 402T228 510T336 596Q385 623 450 637T583 652Q624 652 663 647T737 629Q764 620 791 601T838 557T864 500Q867 485 867 468Q867 422
847 368T790 261T700 163T585 88T448 51Q437 50 427 50T406 49ZM429 115Q455 115 482 118Q586 131 663 182T786 301Q828 362 828 420Q828 467 801 503T729 565T629 604T517 617Q470 617 426 607T345 577Q257 528 216 461T175 329Q175 272 205 224T292 145T429 115ZM417
176Q351 176 314 212T277 301Q277 333 291 366T337 432Q369 466 417 491T517 530T611 544Q647 544 671 529T695 489Q695 467 673 442Q649 416 635 406T613 395Q606 395 606 403Q606 411 611 422T627 441Q644 456 651 468T659 491Q659 510 638 519T590 529Q551 529
510 514T431 473T365 417Q338 387 326 360T313 310Q313 268 348 243T442 218Q454 218 467 219T494 223Q532 230 567 244T632 274T677 304Q681 307 682 305T682 300Q667 281 632 257T554 213T473 183Q458 179 444 178T417 176Z" />
<glyph unicode="&#xaa;" glyph-name="ordfeminine" horiz-adv-x="289" d="M156 378Q137 378 127 389T117 420Q117 437 126 458T156 501Q177 524 208 538T268 552Q289 552 305 543Q316 536 320 531T328 517Q334 517 344 513T354 500Q354 492 348 485Q343 479 333
468T313 442Q297 418 297 406Q297 397 307 397Q318 397 337 408Q360 421 387 443T430 480Q435 483 436 483Q442 483 436 475Q412 453 381 427T320 386Q310 382 302 380T287 378Q271 378 263 387T254 411Q254 424 260 437L264 448Q248 429 233 416T202 393Q189 385
178 382T156 378ZM175 394Q186 394 206 407T253 447Q257 451 272 465T301 495T315 523Q315 534 295 534Q278 534 254 521T207 481Q185 454 175 435T164 405Q164 394 175 394ZM109 307Q104 305 104 317Q104 325 107 334T116 344Q150 348 176 349T223 351Q252 351
269 350T295 346Q304 345 304 340Q304 334 296 334Q258 333 229 329T172 319T109 307Z" />
<glyph unicode="&#xab;" glyph-name="guillemotleft" horiz-adv-x="458" d="M324 44Q322 44 322 46Q322 49 328 56Q336 69 336 84Q336 110 319 139T276 188T220 208Q197 208 197 212Q197 215 212 224L235 237Q262 254 293 275T353 319T403 363T433 401Q435 406
443 409T459 413Q468 413 465 407Q453 383 425 355T359 300T282 248Q299 241 319 221T354 175T369 120Q369 106 364 92T347 64Q330 44 324 44ZM167 22Q166 22 166 23Q166 26 171 34Q179 47 179 63Q179 89 163 117T120 166T64 186Q41 186 41 189Q41 192 55 201Q61
205 67 208T78 215Q105 232 136 253T197 297T247 341T277 379Q279 384 287 387T302 391Q311 391 308 385Q297 360 269 332T203 277T126 225Q143 218 163 199T198 153T213 98Q213 84 208 70T191 42Q174 22 167 22Z" />
<glyph unicode="&#xac;" glyph-name="logicalnot" horiz-adv-x="461" d="M137 163Q131 163 131 178Q131 190 135 203T146 217Q187 221 220 222T279 224Q325 224 351 221T391 216Q398 215 401 210Q405 206 401 194Q381 142 376 98T374 17Q375 5 362 4Q354 4 354
11Q350 54 357 100T387 198Q337 196 299 188T223 171T138 163H137Z" />
<glyph unicode="&#xad;" glyph-name="uni00AD" horiz-adv-x="438" d="M135 163Q129 163 129 178Q129 190 133 203T144 217Q185 221 218 222T277 224Q323 224 349 221T389 216Q401 214 401 205Q401 198 391 198Q339 197 299 192T221 179T136 163H135Z" />
<glyph unicode="&#xae;" glyph-name="registered" horiz-adv-x="766" d="M405 49Q315 49 257 82T169 170T140 288Q140 345 162 402T227 510T335 596Q384 623 449 637T582 652Q623 652 662 647T736 629Q763 620 790 601T837 557T863 500Q866 485 866 468Q866 422
846 368T789 261T699 163T584 88T447 51Q436 50 426 50T405 49ZM428 115Q454 115 481 118Q585 131 662 182T785 301Q827 362 827 420Q827 467 800 503T728 565T628 604T516 617Q469 617 425 607T344 577Q256 528 215 461T174 329Q174 278 198 234T267 159Q268 154
272 154Q272 154 272 154T274 154Q270 157 267 159Q267 159 267 160Q267 172 279 196T312 251T355 316Q352 325 352 332V337Q353 343 360 351T376 365T392 370Q416 402 436 429T471 472T489 488Q494 488 496 484T499 475Q499 475 485 457T448 410T399 345Q400 344
400 340Q405 341 410 341T422 342Q469 345 523 363T616 408Q645 428 664 450T683 492Q683 511 661 523T585 536Q562 536 527 530T452 512T379 487T327 457Q319 451 319 447Q319 446 319 446T320 444Q325 436 316 440Q306 447 302 457T297 474Q297 479 299 483Q313
503 348 520T430 551T525 572T611 580Q636 580 652 577Q675 572 691 553T708 508Q708 483 689 454T621 395Q594 380 560 366T490 343T423 332Q418 332 413 332T404 331Q413 307 434 282T481 234T533 198T578 184Q593 184 605 191T618 209Q619 211 621 211T623 208Q621
187 600 178T552 168Q509 168 472 188T406 238T363 295Q337 258 315 223T284 164Q281 156 274 154Q304 136 343 126T428 115Z" />
<glyph unicode="&#xaf;" glyph-name="overscore" horiz-adv-x="500" d="M132 382Q129 381 129 388Q129 395 132 405T141 425T149 435Q179 439 206 441T259 443Q301 443 331 439T377 427Q380 426 380 418Q379 413 375 408T365 403Q349 405 334 406T304 407Q255
407 214 399T132 382Z" />
<glyph unicode="&#xb0;" glyph-name="degree" horiz-adv-x="292" d="M271 466Q253 466 241 475T229 506Q229 511 229 515T231 525Q234 540 245 557T272 591T298 617Q313 629 333 637T374 646Q393 646 407 639Q432 627 432 598Q432 583 424 565T398 526Q384 511
362 497T316 475T271 466ZM273 485Q288 485 310 495T353 528Q367 543 372 556T378 579Q378 595 368 600Q362 603 356 604T345 605Q321 605 300 588T264 549T250 508Q250 493 261 487Q267 485 273 485Z" />
<glyph unicode="&#xb1;" glyph-name="plusminus" horiz-adv-x="461" d="M232 69Q228 69 224 72T221 81Q224 120 238 162T272 245Q239 241 209 236T146 226H145Q139 226 139 241Q139 253 143 266T154 280Q192 284 228 285T296 288Q340 360 388 408Q393 413 407
413Q418 413 428 410T433 401Q411 379 386 350T337 287Q387 286 424 282T482 272Q489 271 489 263Q489 258 485 253T473 248Q450 250 428 251T386 252Q346 252 311 249Q283 206 264 162T242 79Q242 69 232 69ZM102 -25Q96 -25 96 -10Q96 2 100 15T111 29Q152 33
185 34T244 36Q290 36 316 33T356 28Q368 26 368 17Q368 10 358 10Q306 9 266 4T188 -9T103 -25H102Z" />
<glyph unicode="&#xb2;" glyph-name="uni00B2" horiz-adv-x="491" d="M540 340Q533 340 536 348Q539 359 519 367T464 381T391 386Q366 386 341 384T292 377Q283 375 273 372T252 365Q236 361 222 357T197 352Q190 352 185 355Q180 358 180 368Q180 378 188 390T219
415T284 436Q297 438 303 439T319 446Q357 463 395 480T471 517Q498 533 509 549T521 582Q521 602 507 616T470 633Q461 635 453 635T436 635Q398 635 368 626T321 604T304 582Q304 572 325 572Q339 572 364 578Q415 590 438 614Q442 619 446 614Q451 600 436 586T400
563T371 551Q334 542 309 542Q263 542 263 567Q263 582 281 598Q298 614 331 628T405 653T483 663Q517 663 544 654T584 621Q591 610 591 595Q591 573 575 551T527 508Q493 487 449 471T364 440Q396 439 429 434T491 417T534 389T546 347Q545 340 540 340Z" />
<glyph unicode="&#xb3;" glyph-name="uni00B3" horiz-adv-x="461" d="M266 312Q227 312 199 325T170 371Q170 400 197 420T256 453Q278 461 309 465T369 469Q384 469 397 468T417 465Q428 462 428 455Q428 451 414 451Q403 451 374 446T310 432T245 410Q215 397
202 386T189 365Q189 352 208 345T259 336Q275 336 303 342T362 361T422 388T468 422T486 460Q486 469 481 478T464 498Q439 520 401 523Q380 525 380 535Q380 548 415 551Q432 552 451 557T485 575T496 609Q495 626 479 638T430 650Q407 650 380 643Q360 639 348
629T335 611Q335 605 344 600Q352 596 360 593T381 587Q387 587 387 582Q387 576 373 576Q356 576 339 579T313 587Q297 593 297 608Q297 624 321 639T376 660Q390 663 416 667T471 671Q506 671 533 661T561 621Q561 600 536 578T483 545Q492 544 502 541T521 531Q546
510 546 478Q546 445 520 411T447 354Q413 338 363 325T266 312Z" />
<glyph unicode="&#xb4;" glyph-name="acute" horiz-adv-x="500" d="M250 346Q228 346 230 352Q230 358 244 360Q264 364 295 382T360 425T414 467Q419 470 425 470Q435 470 445 464T460 450T458 437Q440 423 406 401T330 363T250 346Z" />
<glyph unicode="&#xb5;" glyph-name="uni00B5" horiz-adv-x="377" d="M-119 -278Q-130 -268 -140 -253T-151 -212Q-151 -184 -132 -138T-83 -35T-17 76T53 178T114 250Q136 272 158 272Q169 272 183 267T212 248Q199 235 183 215T148 171Q136 151 122 132T94 94Q81
75 75 63T69 45Q69 37 77 37Q85 37 100 46T131 69Q142 79 150 87T163 100Q186 124 209 151T249 202Q257 213 265 223T281 242Q283 244 284 245T285 247Q302 266 321 267Q332 267 347 263T376 245Q366 231 347 207T305 153T262 92T228 34T215 -13Q215 -27 223 -35Q227
-39 223 -39T217 -39Q204 -34 192 -21T179 24Q179 51 188 80T211 139Q185 106 154 74T93 22T36 1H27Q-43 -100 -80 -170T-117 -263Q-117 -271 -115 -273Q-111 -277 -114 -278T-119 -278Z" />
<glyph unicode="&#xb6;" glyph-name="paragraph" horiz-adv-x="463" d="M-39 -186Q-46 -186 -46 -181Q-43 -175 -36 -173Q-7 -167 24 -141T86 -74T146 12T202 105T248 190T282 254Q275 253 267 253T250 252Q219 252 195 263T170 305Q170 309 170 313T172 322Q180
361 210 398T281 467T365 519T442 547Q465 552 488 559T533 570Q541 572 549 573T565 573Q582 590 603 605T645 624Q648 625 651 625T657 626Q666 626 669 618Q664 613 652 610T629 599Q597 575 561 525T486 411T410 277T334 144T263 32T200 -38Q195 -43 190 -43Q185
-45 185 -41Q188 -36 192 -33T200 -25Q217 -8 237 21T278 85T316 152T345 205Q374 262 405 324T473 448T554 559Q549 559 546 558Q523 553 495 527T438 460T379 373T325 281T279 198T248 140Q235 115 211 76T157 -5T94 -87T28 -153T-34 -186H-39Z" />
<glyph unicode="&#xb7;" glyph-name="middot" horiz-adv-x="132" d="M42 127Q31 127 23 133Q12 142 12 158Q12 181 30 200Q52 225 77 225Q90 225 98 218Q109 209 109 193Q109 172 91 151Q81 139 68 133T42 127Z" />
<glyph unicode="&#xb8;" glyph-name="cedilla" horiz-adv-x="500" d="M65 -222Q60 -222 60 -218Q60 -213 63 -210T70 -207Q79 -207 95 -206T130 -200T163 -182T181 -145Q183 -130 176 -114T168 -82Q168 -64 182 -44T216 -9T256 5Q265 5 263 -1Q252 -2 238 -11T215
-33T205 -57Q205 -67 214 -82T232 -113T241 -147Q241 -174 221 -189T170 -211T111 -220T65 -222Z" />
<glyph unicode="&#xb9;" glyph-name="uni00B9" horiz-adv-x="345" d="M286 357Q254 360 240 384Q236 392 236 401Q236 408 238 415T243 432Q254 464 274 501T319 573Q299 560 275 546T233 522Q230 520 225 520Q220 520 220 525Q220 533 231 539Q241 544 255 554T285
577Q310 596 338 616T394 650T441 664Q454 664 461 659Q466 655 465 651T459 648Q442 650 423 628T384 569T346 493T313 417Q306 398 300 383T288 358L286 357Z" />
<glyph unicode="&#xba;" glyph-name="ordmasculine" horiz-adv-x="230" d="M168 372Q152 372 141 381T129 411Q129 415 129 420T131 430Q133 437 134 443T140 456Q136 452 132 449T125 444Q123 442 121 442Q119 442 119 445Q119 451 125 455Q147 473 162 489T194
519Q210 532 230 541T272 551Q288 551 301 545Q326 533 326 504Q326 488 318 470T292 432Q276 416 253 402Q282 406 308 423T357 461Q362 465 364 462T363 456Q337 431 305 412T238 393Q220 384 202 378T168 372ZM162 383Q172 383 184 387T209 398Q199 403 192
412T184 436Q184 465 206 488T255 518Q252 519 249 519T243 519Q217 519 193 500T153 456T137 410Q137 392 150 386Q155 383 162 383ZM218 404Q227 409 235 416T252 432Q268 449 274 464T280 490Q280 504 273 510Q269 512 265 512Q254 512 240 503T214 478T200
448Q199 444 199 441T199 436Q199 410 218 404ZM99 307Q94 305 94 317Q94 325 97 334T105 344Q137 348 161 349T205 351Q232 351 248 350T272 346Q280 344 280 340Q280 334 273 334Q238 333 211 329T158 319T99 307Z" />
<glyph unicode="&#xbb;" glyph-name="guillemotright" horiz-adv-x="458" d="M196 35Q187 35 190 41Q202 66 230 93T295 149T372 200Q356 208 336 227T300 273T285 328Q285 342 290 356T307 384Q324 404 331 404Q332 404 332 403Q332 400 327 392Q319 379 319
363Q319 338 335 309T378 260T434 240Q457 240 457 236Q457 233 442 224Q437 220 431 217T420 211Q393 195 362 174T301 129T251 85T221 47Q219 42 211 39T196 35ZM9 14Q0 14 3 20Q15 45 43 72T109 127T186 179Q170 187 150 206T114 251T99 306Q99 321 104 335T121
363Q138 383 145 383Q146 383 146 382Q146 379 141 371Q133 358 133 342Q133 317 149 288T192 239T248 219Q271 219 271 215Q271 212 256 203Q251 199 245 196T234 190Q207 174 176 153T115 108T65 64T35 26Q33 21 25 18T9 14Z" />
<glyph unicode="&#xbc;" glyph-name="onequarter" horiz-adv-x="716" d="M286 357Q254 360 240 384Q236 392 236 401Q236 408 238 415T243 432Q254 464 274 501T319 573Q299 560 275 546T233 522Q230 520 225 520Q220 520 220 525Q220 533 231 539Q241 544 255
554T285 577Q310 596 338 616T394 650T441 664Q454 664 461 659Q466 655 465 651T459 648Q442 650 423 628T384 569T346 493T313 417Q306 398 300 383T288 358L286 357ZM200 15Q189 15 189 29Q189 36 193 45Q203 69 229 110T292 202T371 307T454 413T530 505T587
570T615 594Q618 594 629 596T650 598Q663 598 663 593Q663 589 657 583Q615 538 564 479T459 356T356 230T270 114T213 24Q209 15 200 15ZM565 -1Q515 -6 499 29Q494 42 494 55Q494 81 510 116Q506 116 503 116T495 115L476 112Q468 111 460 109T444 104Q435 102
427 100T411 98Q394 98 390 105Q389 106 389 108Q389 116 397 124Q405 132 413 139T432 153Q434 155 440 159L489 196Q524 224 564 254T641 305T699 326Q703 326 706 325T712 322Q717 318 716 314T710 311Q687 313 654 270T586 151Q677 143 677 101Q677 95 676
92Q675 85 670 86T667 92Q672 103 646 111T572 119Q554 74 551 54Q550 51 550 48T550 43Q550 16 568 8Q572 4 567 0H566L565 -1ZM507 185Q492 174 477 163T449 142Q482 148 526 151Q534 165 541 177T554 199Q568 223 579 239Q552 220 507 185Z" />
<glyph unicode="&#xbd;" glyph-name="onehalf" horiz-adv-x="789" d="M286 357Q254 360 240 384Q236 392 236 401Q236 408 238 415T243 432Q254 464 274 501T319 573Q299 560 275 546T233 522Q230 520 225 520Q220 520 220 525Q220 533 231 539Q241 544 255 554T285
577Q310 596 338 616T394 650T441 664Q454 664 461 659Q466 655 465 651T459 648Q442 650 423 628T384 569T346 493T313 417Q306 398 300 383T288 358L286 357ZM200 15Q189 15 189 29Q189 36 193 45Q203 69 229 110T292 202T371 307T454 413T530 505T587 570T615
594Q618 594 629 596T650 598Q663 598 663 593Q663 589 657 583Q615 538 564 479T459 356T356 230T270 114T213 24Q209 15 200 15ZM738 -20Q731 -20 734 -12Q737 -1 717 7T662 21T589 26Q564 26 539 24T490 17Q481 15 471 12T450 5Q434 1 420 -3T395 -8Q388 -8
383 -5Q378 -2 378 8Q378 18 386 30T417 55T482 76Q495 78 501 79T517 86Q555 103 593 120T669 157Q696 173 707 189T719 222Q719 242 705 256T668 273Q659 275 651 275T634 275Q596 275 566 266T519 244T502 222Q502 212 523 212Q537 212 562 218Q613 230 636
254Q640 259 644 254Q649 240 634 226T598 203T569 191Q532 182 507 182Q461 182 461 207Q461 222 479 238Q496 254 529 268T603 293T681 303Q715 303 742 294T782 261Q789 250 789 235Q789 213 773 191T725 148Q691 127 647 111T562 80Q594 79 627 74T689 57T732
29T744 -13Q743 -20 738 -20Z" />
<glyph unicode="&#xbe;" glyph-name="threequarters" horiz-adv-x="869" d="M354 15Q343 15 343 29Q343 36 347 45Q357 69 383 110T446 202T525 307T608 413T684 505T741 570T769 594Q772 594 783 596T804 598Q817 598 817 593Q817 589 811 583Q769 538 718 479T613
356T510 230T424 114T367 24Q363 15 354 15ZM718 -1Q668 -6 652 29Q647 42 647 55Q647 81 663 116Q659 116 656 116T648 115L629 112Q621 111 613 109T597 104Q588 102 580 100T564 98Q547 98 543 105Q542 106 542 108Q542 116 550 124Q558 132 566 139T585 153Q587
155 593 159L642 196Q677 224 717 254T794 305T852 326Q856 326 859 325T865 322Q870 318 869 314T863 311Q840 313 807 270T739 151Q830 143 830 101Q830 95 829 92Q828 85 823 86T820 92Q825 103 799 111T725 119Q707 74 704 54Q703 51 703 48T703 43Q703 16
721 8Q725 4 720 0H719L718 -1ZM660 185Q645 174 630 163T602 142Q635 148 679 151Q687 165 694 177T707 199Q721 223 732 239Q705 220 660 185ZM266 312Q227 312 199 325T170 371Q170 400 197 420T256 453Q278 461 309 465T369 469Q384 469 397 468T417 465Q428
462 428 455Q428 451 414 451Q403 451 374 446T310 432T245 410Q215 397 202 386T189 365Q189 352 208 345T259 336Q275 336 303 342T362 361T422 388T468 422T486 460Q486 469 481 478T464 498Q439 520 401 523Q380 525 380 535Q380 548 415 551Q432 552 451 557T485
575T496 609Q495 626 479 638T430 650Q407 650 380 643Q360 639 348 629T335 611Q335 605 344 600Q352 596 360 593T381 587Q387 587 387 582Q387 576 373 576Q356 576 339 579T313 587Q297 593 297 608Q297 624 321 639T376 660Q390 663 416 667T471 671Q506 671
533 661T561 621Q561 600 536 578T483 545Q492 544 502 541T521 531Q546 510 546 478Q546 445 520 411T447 354Q413 338 363 325T266 312Z" />
<glyph unicode="&#xbf;" glyph-name="questiondown" horiz-adv-x="500" d="M310 243Q299 243 290 249Q279 258 279 274Q279 295 298 316Q308 328 321 334T345 341Q358 341 366 334Q376 325 376 309Q376 287 358 267Q337 243 310 243ZM-17 -304Q-54 -304 -84 -291T-130
-243Q-140 -220 -140 -198Q-140 -161 -117 -128T-56 -66T26 -9T114 42T191 87T242 129Q256 144 256 156Q256 162 250 168Q247 171 247 175Q247 180 252 183T262 182Q274 170 274 157Q274 141 262 125T233 93T200 66T176 49Q130 16 84 -18T-7 -87Q-44 -122 -61 -149T-78
-197Q-78 -229 -44 -244T40 -259Q78 -259 121 -251T201 -227Q231 -214 256 -202T297 -180Q347 -149 373 -123T399 -81Q399 -64 371 -64Q353 -64 323 -72T250 -100Q215 -116 178 -137T112 -180T71 -222Q69 -226 68 -227T64 -224Q61 -219 61 -215Q61 -202 74 -184Q102
-143 138 -108T223 -51Q261 -34 293 -26T351 -18Q384 -18 402 -30T421 -65Q421 -90 392 -126T300 -201Q282 -211 258 -224T204 -248Q183 -256 146 -269T67 -293T-17 -304Z" />
<glyph unicode="&#xc0;" glyph-name="Agrave" horiz-adv-x="1030" d="M199 -40Q137 -40 90 -27T23 2Q-27 41 -27 92Q-27 135 10 178T125 258T319 316Q369 325 420 330T524 335Q568 335 612 331T700 318Q714 315 732 311T769 300Q852 385 931 469T1084 611Q1136
652 1181 667T1261 682Q1302 682 1328 670T1363 649Q1366 646 1363 643T1357 643Q1352 649 1333 656T1284 663Q1247 663 1197 646T1086 582Q1011 523 938 447T788 293Q827 279 859 255T897 196V192Q897 188 895 188Q892 188 889 194Q885 205 867 213T824 226T778
234T745 238L734 239Q651 159 563 92T375 -10Q328 -26 284 -33T199 -40ZM972 -89Q927 -57 906 -12T885 85Q885 137 903 189Q921 242 955 299T1031 410T1110 510T1175 586T1207 623Q1213 631 1216 631Q1220 631 1222 625T1224 610Q1224 594 1219 587Q1193 554 1157
503T1084 390T1015 261T964 132T944 17Q944 -13 952 -38T978 -82Q979 -83 979 -85Q979 -87 977 -89T972 -89ZM202 -23Q239 -23 282 -17T371 4Q457 31 542 96T709 241Q696 242 683 242T656 242Q586 242 511 235T367 215Q257 196 188 168T86 108T53 49Q53 22 80 2Q94
-8 126 -15T202 -23ZM1263 726Q1225 726 1188 737T1123 764T1079 792Q1073 797 1073 803Q1073 813 1088 821T1117 830Q1126 830 1129 827Q1149 809 1176 790T1230 758T1275 740Q1285 738 1285 733Q1285 731 1281 729T1263 726Z" />
<glyph unicode="&#xc1;" glyph-name="Aacute" horiz-adv-x="1030" d="M199 -40Q137 -40 90 -27T23 2Q-27 41 -27 92Q-27 135 10 178T125 258T319 316Q369 325 420 330T524 335Q568 335 612 331T700 318Q714 315 732 311T769 300Q852 385 931 469T1084 611Q1136
652 1181 667T1261 682Q1302 682 1328 670T1363 649Q1366 646 1363 643T1357 643Q1352 649 1333 656T1284 663Q1247 663 1197 646T1086 582Q1011 523 938 447T788 293Q827 279 859 255T897 196V192Q897 188 895 188Q892 188 889 194Q885 205 867 213T824 226T778
234T745 238L734 239Q651 159 563 92T375 -10Q328 -26 284 -33T199 -40ZM972 -89Q927 -57 906 -12T885 85Q885 137 903 189Q921 242 955 299T1031 410T1110 510T1175 586T1207 623Q1213 631 1216 631Q1220 631 1222 625T1224 610Q1224 594 1219 587Q1193 554 1157
503T1084 390T1015 261T964 132T944 17Q944 -13 952 -38T978 -82Q979 -83 979 -85Q979 -87 977 -89T972 -89ZM202 -23Q239 -23 282 -17T371 4Q457 31 542 96T709 241Q696 242 683 242T656 242Q586 242 511 235T367 215Q257 196 188 168T86 108T53 49Q53 22 80 2Q94
-8 126 -15T202 -23ZM1265 726Q1243 726 1245 732Q1245 738 1259 740Q1284 744 1318 757T1385 788T1440 822Q1450 830 1464 830Q1481 830 1490 823T1499 808Q1499 802 1493 797Q1475 783 1438 766T1355 738T1265 726Z" />
<glyph unicode="&#xc2;" glyph-name="Acircumflex" horiz-adv-x="1030" d="M199 -40Q137 -40 90 -27T23 2Q-27 41 -27 92Q-27 135 10 178T125 258T319 316Q369 325 420 330T524 335Q568 335 612 331T700 318Q714 315 732 311T769 300Q852 385 931 469T1084 611Q1136
652 1181 667T1261 682Q1302 682 1328 670T1363 649Q1366 646 1363 643T1357 643Q1352 649 1333 656T1284 663Q1247 663 1197 646T1086 582Q1011 523 938 447T788 293Q827 279 859 255T897 196V192Q897 188 895 188Q892 188 889 194Q885 205 867 213T824 226T778
234T745 238L734 239Q651 159 563 92T375 -10Q328 -26 284 -33T199 -40ZM972 -89Q927 -57 906 -12T885 85Q885 137 903 189Q921 242 955 299T1031 410T1110 510T1175 586T1207 623Q1213 631 1216 631Q1220 631 1222 625T1224 610Q1224 594 1219 587Q1193 554 1157
503T1084 390T1015 261T964 132T944 17Q944 -13 952 -38T978 -82Q979 -83 979 -85Q979 -87 977 -89T972 -89ZM202 -23Q239 -23 282 -17T371 4Q457 31 542 96T709 241Q696 242 683 242T656 242Q586 242 511 235T367 215Q257 196 188 168T86 108T53 49Q53 22 80 2Q94
-8 126 -15T202 -23ZM1109 741Q1091 741 1094 744Q1094 748 1110 752Q1130 757 1166 769T1240 797T1304 823Q1318 830 1328 830Q1339 830 1346 820Q1350 813 1358 797T1379 766T1408 752Q1413 752 1413 748Q1413 742 1390 742Q1351 742 1327 755T1292 783Q1249
769 1198 755T1109 741Z" />
<glyph unicode="&#xc3;" glyph-name="Atilde" horiz-adv-x="1030" d="M199 -40Q137 -40 90 -27T23 2Q-27 41 -27 92Q-27 135 10 178T125 258T319 316Q369 325 420 330T524 335Q568 335 612 331T700 318Q714 315 732 311T769 300Q852 385 931 469T1084 611Q1136
652 1181 667T1261 682Q1302 682 1328 670T1363 649Q1366 646 1363 643T1357 643Q1352 649 1333 656T1284 663Q1247 663 1197 646T1086 582Q1011 523 938 447T788 293Q827 279 859 255T897 196V192Q897 188 895 188Q892 188 889 194Q885 205 867 213T824 226T778
234T745 238L734 239Q651 159 563 92T375 -10Q328 -26 284 -33T199 -40ZM972 -89Q927 -57 906 -12T885 85Q885 137 903 189Q921 242 955 299T1031 410T1110 510T1175 586T1207 623Q1213 631 1216 631Q1220 631 1222 625T1224 610Q1224 594 1219 587Q1193 554 1157
503T1084 390T1015 261T964 132T944 17Q944 -13 952 -38T978 -82Q979 -83 979 -85Q979 -87 977 -89T972 -89ZM202 -23Q239 -23 282 -17T371 4Q457 31 542 96T709 241Q696 242 683 242T656 242Q586 242 511 235T367 215Q257 196 188 168T86 108T53 49Q53 22 80 2Q94
-8 126 -15T202 -23ZM1307 754Q1283 754 1270 765T1244 786T1211 797Q1192 797 1174 787T1143 768T1124 758Q1118 758 1118 762Q1118 765 1122 769Q1149 795 1182 812T1246 830Q1269 830 1281 825T1303 813T1322 801T1350 795Q1370 795 1384 803T1407 824Q1415
822 1413 814Q1411 801 1394 787T1353 764T1307 754Z" />
<glyph unicode="&#xc4;" glyph-name="Adieresis" horiz-adv-x="1030" d="M199 -40Q137 -40 90 -27T23 2Q-27 41 -27 92Q-27 135 10 178T125 258T319 316Q369 325 420 330T524 335Q568 335 612 331T700 318Q714 315 732 311T769 300Q852 385 931 469T1084 611Q1136
652 1181 667T1261 682Q1302 682 1328 670T1363 649Q1366 646 1363 643T1357 643Q1352 649 1333 656T1284 663Q1247 663 1197 646T1086 582Q1011 523 938 447T788 293Q827 279 859 255T897 196V192Q897 188 895 188Q892 188 889 194Q885 205 867 213T824 226T778
234T745 238L734 239Q651 159 563 92T375 -10Q328 -26 284 -33T199 -40ZM972 -89Q927 -57 906 -12T885 85Q885 137 903 189Q921 242 955 299T1031 410T1110 510T1175 586T1207 623Q1213 631 1216 631Q1220 631 1222 625T1224 610Q1224 594 1219 587Q1193 554 1157
503T1084 390T1015 261T964 132T944 17Q944 -13 952 -38T978 -82Q979 -83 979 -85Q979 -87 977 -89T972 -89ZM202 -23Q239 -23 282 -17T371 4Q457 31 542 96T709 241Q696 242 683 242T656 242Q586 242 511 235T367 215Q257 196 188 168T86 108T53 49Q53 22 80 2Q94
-8 126 -15T202 -23ZM1331 748Q1314 748 1314 769Q1314 786 1327 800T1360 822T1393 831Q1402 831 1402 821Q1402 806 1387 789Q1380 779 1365 764T1331 748ZM1185 748Q1168 748 1168 769Q1168 786 1181 800T1214 822T1247 831Q1256 831 1256 821Q1256 806 1241
789Q1234 779 1219 764T1185 748Z" />
<glyph unicode="&#xc5;" glyph-name="Aring" horiz-adv-x="1030" d="M199 -40Q137 -40 90 -27T23 2Q-27 41 -27 92Q-27 135 10 178T125 258T319 316Q369 325 420 330T524 335Q568 335 612 331T700 318Q714 315 732 311T769 300Q852 385 931 469T1084 611Q1136
652 1181 667T1261 682Q1302 682 1328 670T1363 649Q1366 646 1363 643T1357 643Q1352 649 1333 656T1284 663Q1247 663 1197 646T1086 582Q1011 523 938 447T788 293Q827 279 859 255T897 196V192Q897 188 895 188Q892 188 889 194Q885 205 867 213T824 226T778
234T745 238L734 239Q651 159 563 92T375 -10Q328 -26 284 -33T199 -40ZM972 -89Q927 -57 906 -12T885 85Q885 137 903 189Q921 242 955 299T1031 410T1110 510T1175 586T1207 623Q1213 631 1216 631Q1220 631 1222 625T1224 610Q1224 594 1219 587Q1193 554 1157
503T1084 390T1015 261T964 132T944 17Q944 -13 952 -38T978 -82Q979 -83 979 -85Q979 -87 977 -89T972 -89ZM202 -23Q239 -23 282 -17T371 4Q457 31 542 96T709 241Q696 242 683 242T656 242Q586 242 511 235T367 215Q257 196 188 168T86 108T53 49Q53 22 80 2Q94
-8 126 -15T202 -23ZM1265 726Q1249 726 1240 732T1230 755Q1230 757 1230 760T1231 766Q1236 791 1255 815T1301 860T1356 893T1406 906Q1430 906 1444 894T1454 858Q1448 833 1427 809T1377 767T1318 737T1265 726ZM1271 742Q1297 742 1326 757T1379 796T1406
839Q1409 855 1399 860T1374 865Q1347 865 1321 848T1275 808T1252 764Q1251 761 1251 756Q1251 742 1271 742Z" />
<glyph unicode="&#xc6;" glyph-name="AE" horiz-adv-x="1788" d="M1167 -83Q1087 -83 1031 -58T946 13T916 116Q916 154 929 196T971 284Q922 283 872 280T768 273Q708 213 645 158T515 59T375 -10Q328 -26 284 -33T199 -40Q137 -40 90 -27T23 2Q-8 26 -30 56T-53
119Q-53 150 -26 181T68 242T248 296T534 337Q607 344 680 349T823 357Q891 428 956 495T1084 611Q1137 653 1185 668T1271 684Q1286 684 1299 682T1323 677Q1350 670 1370 651T1397 605Q1416 612 1434 617T1469 627Q1495 633 1522 636T1574 640Q1617 640 1653
629T1710 595T1732 532Q1732 510 1725 489T1712 457Q1709 450 1706 450Q1704 450 1703 454T1704 462Q1713 482 1713 497Q1713 522 1692 533T1633 544Q1588 544 1527 530T1397 489T1262 429T1140 357Q1173 356 1205 353T1268 346Q1300 342 1339 336T1415 319T1475
294T1499 259Q1499 242 1479 223Q1469 213 1463 213T1460 220Q1466 230 1447 238T1394 255T1323 268T1253 277T1205 282Q1129 285 1053 285Q998 230 973 182T947 95Q947 32 1005 -4T1163 -40Q1189 -40 1217 -37T1275 -29Q1346 -17 1419 9T1560 71T1683 151T1774
247Q1783 259 1786 259Q1787 259 1787 256Q1787 255 1787 253T1785 245Q1775 216 1742 180T1659 106T1548 33T1420 -29T1286 -70Q1224 -83 1167 -83ZM851 358Q898 360 943 360T1031 361L1035 365Q1082 416 1140 460T1260 539T1379 598Q1373 628 1350 645T1285 663Q1248
663 1198 647T1086 582Q1027 535 969 478T851 358ZM202 -23Q239 -23 282 -17T371 4Q434 24 496 64T619 157T739 271Q696 267 651 263T556 254Q398 239 296 219T136 174T55 125T31 77Q31 55 46 36T80 2Q94 -8 126 -15T202 -23Z" />
<glyph unicode="&#xc7;" glyph-name="Ccedilla" horiz-adv-x="719" d="M290 -39Q242 -39 195 -28T109 9T47 73T24 167Q24 219 45 267T99 357T169 432Q220 478 285 521T423 598T572 652T716 672Q746 672 781 663T842 633T868 574Q868 540 845 507T784 445T700 392T607
349T517 319T446 305Q439 304 432 304T418 304Q412 304 393 305T357 312T340 327Q340 332 346 332Q350 332 356 330T371 328Q395 328 433 340T515 372T604 419T685 474T744 532T766 587Q766 611 749 622T709 638T669 642Q606 642 540 623T409 572T287 499T184 417Q153
388 123 351T72 271T52 183Q52 133 76 99T138 45T222 15T308 6Q334 6 360 8T411 15Q478 27 533 44T640 88T744 158Q748 160 749 160Q754 160 754 154Q754 151 750 145Q711 103 656 69T537 11T410 -26T290 -39ZM53 -236Q48 -236 48 -231Q48 -225 51 -222T58 -219Q92
-219 119 -215T164 -197T186 -154Q188 -138 180 -122T172 -87Q172 -66 186 -45T221 -10T262 5Q269 5 270 4T270 -1Q247 -4 228 -23T208 -61Q208 -72 218 -87T237 -120T247 -156Q247 -184 224 -200T167 -224T102 -234T53 -236Z" />
<glyph unicode="&#xc8;" glyph-name="Egrave" horiz-adv-x="719" d="M267 -46Q187 -46 131 -21T46 50T16 153Q16 209 45 272T135 402Q180 451 236 493T350 571T465 630T569 665Q595 671 621 674T673 678Q716 678 752 667T810 632T832 569Q832 547 825 526T812
494Q809 488 806 488Q804 488 803 491T804 499Q813 519 813 534Q813 559 792 570T733 582Q691 582 634 569T514 533T387 480T269 415T173 342Q107 281 77 228T46 132Q46 69 105 33T263 -3Q289 -3 317 0T375 8Q446 21 519 46T660 108T783 189T874 284Q884 297 886
297Q887 297 887 294Q887 292 887 290T885 282Q875 253 842 217T759 144T648 71T520 9T386 -33Q324 -46 267 -46ZM205 282Q194 282 187 286Q183 288 179 293T175 307Q175 319 192 333T264 357Q282 360 304 362T350 364Q392 364 435 359T514 341T567 310Q573 303
573 296Q573 288 565 288Q559 288 551 293Q534 305 505 311T437 317Q370 317 290 300Q265 295 243 289T205 282ZM704 726Q666 726 629 737T564 764T520 792Q514 797 514 803Q514 813 529 821T558 830Q567 830 570 827Q590 809 617 790T671 758T716 740Q726 738
726 733Q726 731 722 729T704 726Z" />
<glyph unicode="&#xc9;" glyph-name="Eacute" horiz-adv-x="719" d="M267 -46Q187 -46 131 -21T46 50T16 153Q16 209 45 272T135 402Q180 451 236 493T350 571T465 630T569 665Q595 671 621 674T673 678Q716 678 752 667T810 632T832 569Q832 547 825 526T812
494Q809 488 806 488Q804 488 803 491T804 499Q813 519 813 534Q813 559 792 570T733 582Q691 582 634 569T514 533T387 480T269 415T173 342Q107 281 77 228T46 132Q46 69 105 33T263 -3Q289 -3 317 0T375 8Q446 21 519 46T660 108T783 189T874 284Q884 297 886
297Q887 297 887 294Q887 292 887 290T885 282Q875 253 842 217T759 144T648 71T520 9T386 -33Q324 -46 267 -46ZM205 282Q194 282 187 286Q183 288 179 293T175 307Q175 319 192 333T264 357Q282 360 304 362T350 364Q392 364 435 359T514 341T567 310Q573 303
573 296Q573 288 565 288Q559 288 551 293Q534 305 505 311T437 317Q370 317 290 300Q265 295 243 289T205 282ZM706 726Q684 726 686 732Q686 738 700 740Q725 744 759 757T826 788T881 822Q891 830 905 830Q922 830 931 823T940 808Q940 802 934 797Q916 783
879 766T796 738T706 726Z" />
<glyph unicode="&#xca;" glyph-name="Ecircumflex" horiz-adv-x="719" d="M267 -46Q187 -46 131 -21T46 50T16 153Q16 209 45 272T135 402Q180 451 236 493T350 571T465 630T569 665Q595 671 621 674T673 678Q716 678 752 667T810 632T832 569Q832 547 825 526T812
494Q809 488 806 488Q804 488 803 491T804 499Q813 519 813 534Q813 559 792 570T733 582Q691 582 634 569T514 533T387 480T269 415T173 342Q107 281 77 228T46 132Q46 69 105 33T263 -3Q289 -3 317 0T375 8Q446 21 519 46T660 108T783 189T874 284Q884 297 886
297Q887 297 887 294Q887 292 887 290T885 282Q875 253 842 217T759 144T648 71T520 9T386 -33Q324 -46 267 -46ZM205 282Q194 282 187 286Q183 288 179 293T175 307Q175 319 192 333T264 357Q282 360 304 362T350 364Q392 364 435 359T514 341T567 310Q573 303
573 296Q573 288 565 288Q559 288 551 293Q534 305 505 311T437 317Q370 317 290 300Q265 295 243 289T205 282ZM550 741Q532 741 535 744Q535 748 551 752Q571 757 607 769T681 797T745 823Q759 830 769 830Q780 830 787 820Q791 813 799 797T820 766T849 752Q854
752 854 748Q854 742 831 742Q792 742 768 755T733 783Q690 769 639 755T550 741Z" />
<glyph unicode="&#xcb;" glyph-name="Edieresis" horiz-adv-x="719" d="M267 -46Q187 -46 131 -21T46 50T16 153Q16 209 45 272T135 402Q180 451 236 493T350 571T465 630T569 665Q595 671 621 674T673 678Q716 678 752 667T810 632T832 569Q832 547 825 526T812
494Q809 488 806 488Q804 488 803 491T804 499Q813 519 813 534Q813 559 792 570T733 582Q691 582 634 569T514 533T387 480T269 415T173 342Q107 281 77 228T46 132Q46 69 105 33T263 -3Q289 -3 317 0T375 8Q446 21 519 46T660 108T783 189T874 284Q884 297 886
297Q887 297 887 294Q887 292 887 290T885 282Q875 253 842 217T759 144T648 71T520 9T386 -33Q324 -46 267 -46ZM205 282Q194 282 187 286Q183 288 179 293T175 307Q175 319 192 333T264 357Q282 360 304 362T350 364Q392 364 435 359T514 341T567 310Q573 303
573 296Q573 288 565 288Q559 288 551 293Q534 305 505 311T437 317Q370 317 290 300Q265 295 243 289T205 282ZM772 748Q755 748 755 769Q755 786 768 800T801 822T834 831Q843 831 843 821Q843 806 828 789Q821 779 806 764T772 748ZM626 748Q609 748 609 769Q609
786 622 800T655 822T688 831Q697 831 697 821Q697 806 682 789Q675 779 660 764T626 748Z" />
<glyph unicode="&#xcc;" glyph-name="Igrave" horiz-adv-x="595" d="M133 374Q127 374 123 378Q105 390 94 411T82 458Q82 483 96 508T143 552Q196 583 266 604T411 638T552 650Q578 650 613 645T682 627T738 592T760 534Q760 530 760 527T759 519Q759 510 754
510Q751 510 751 515Q751 518 751 521T752 527Q752 556 709 569T599 582Q542 582 475 574T343 550T223 516T137 473T104 424Q104 401 136 379Q138 378 138 376Q138 374 133 374ZM216 -144Q211 -144 211 -133Q211 -123 217 -105Q224 -86 237 -58T270 5Q245 3 222
-1T178 -12Q154 -18 128 -29T77 -50T34 -60Q21 -60 15 -55Q8 -50 8 -33Q8 -18 19 2T61 43T150 77Q172 83 203 86T272 89Q283 89 294 89T317 88Q353 150 394 216T477 346T552 459T609 539T637 569H646Q655 569 655 563Q655 557 644 543Q599 484 546 407T440 247T341
86Q398 81 449 65T532 18T565 -59Q565 -86 557 -86Q552 -86 554 -76Q560 -50 529 -32T445 -3T331 7Q322 7 313 7T295 6Q273 -34 255 -69T225 -133Q220 -144 216 -144ZM713 726Q675 726 638 737T573 764T529 792Q523 797 523 803Q523 813 538 821T567 830Q576 830
579 827Q599 809 626 790T680 758T725 740Q735 738 735 733Q735 731 731 729T713 726Z" />
<glyph unicode="&#xcd;" glyph-name="Iacute" horiz-adv-x="595" d="M133 374Q127 374 123 378Q105 390 94 411T82 458Q82 483 96 508T143 552Q196 583 266 604T411 638T552 650Q578 650 613 645T682 627T738 592T760 534Q760 530 760 527T759 519Q759 510 754
510Q751 510 751 515Q751 518 751 521T752 527Q752 556 709 569T599 582Q542 582 475 574T343 550T223 516T137 473T104 424Q104 401 136 379Q138 378 138 376Q138 374 133 374ZM216 -144Q211 -144 211 -133Q211 -123 217 -105Q224 -86 237 -58T270 5Q245 3 222
-1T178 -12Q154 -18 128 -29T77 -50T34 -60Q21 -60 15 -55Q8 -50 8 -33Q8 -18 19 2T61 43T150 77Q172 83 203 86T272 89Q283 89 294 89T317 88Q353 150 394 216T477 346T552 459T609 539T637 569H646Q655 569 655 563Q655 557 644 543Q599 484 546 407T440 247T341
86Q398 81 449 65T532 18T565 -59Q565 -86 557 -86Q552 -86 554 -76Q560 -50 529 -32T445 -3T331 7Q322 7 313 7T295 6Q273 -34 255 -69T225 -133Q220 -144 216 -144ZM715 726Q693 726 695 732Q695 738 709 740Q734 744 768 757T835 788T890 822Q900 830 914 830Q931
830 940 823T949 808Q949 802 943 797Q925 783 888 766T805 738T715 726Z" />
<glyph unicode="&#xce;" glyph-name="Icircumflex" horiz-adv-x="595" d="M133 374Q127 374 123 378Q105 390 94 411T82 458Q82 483 96 508T143 552Q196 583 266 604T411 638T552 650Q578 650 613 645T682 627T738 592T760 534Q760 530 760 527T759 519Q759 510
754 510Q751 510 751 515Q751 518 751 521T752 527Q752 556 709 569T599 582Q542 582 475 574T343 550T223 516T137 473T104 424Q104 401 136 379Q138 378 138 376Q138 374 133 374ZM216 -144Q211 -144 211 -133Q211 -123 217 -105Q224 -86 237 -58T270 5Q245 3
222 -1T178 -12Q154 -18 128 -29T77 -50T34 -60Q21 -60 15 -55Q8 -50 8 -33Q8 -18 19 2T61 43T150 77Q172 83 203 86T272 89Q283 89 294 89T317 88Q353 150 394 216T477 346T552 459T609 539T637 569H646Q655 569 655 563Q655 557 644 543Q599 484 546 407T440
247T341 86Q398 81 449 65T532 18T565 -59Q565 -86 557 -86Q552 -86 554 -76Q560 -50 529 -32T445 -3T331 7Q322 7 313 7T295 6Q273 -34 255 -69T225 -133Q220 -144 216 -144ZM559 741Q541 741 544 744Q544 748 560 752Q580 757 616 769T690 797T754 823Q768 830
778 830Q789 830 796 820Q800 813 808 797T829 766T858 752Q863 752 863 748Q863 742 840 742Q801 742 777 755T742 783Q699 769 648 755T559 741Z" />
<glyph unicode="&#xcf;" glyph-name="Idieresis" horiz-adv-x="595" d="M133 374Q127 374 123 378Q105 390 94 411T82 458Q82 483 96 508T143 552Q196 583 266 604T411 638T552 650Q578 650 613 645T682 627T738 592T760 534Q760 530 760 527T759 519Q759 510
754 510Q751 510 751 515Q751 518 751 521T752 527Q752 556 709 569T599 582Q542 582 475 574T343 550T223 516T137 473T104 424Q104 401 136 379Q138 378 138 376Q138 374 133 374ZM216 -144Q211 -144 211 -133Q211 -123 217 -105Q224 -86 237 -58T270 5Q245 3
222 -1T178 -12Q154 -18 128 -29T77 -50T34 -60Q21 -60 15 -55Q8 -50 8 -33Q8 -18 19 2T61 43T150 77Q172 83 203 86T272 89Q283 89 294 89T317 88Q353 150 394 216T477 346T552 459T609 539T637 569H646Q655 569 655 563Q655 557 644 543Q599 484 546 407T440
247T341 86Q398 81 449 65T532 18T565 -59Q565 -86 557 -86Q552 -86 554 -76Q560 -50 529 -32T445 -3T331 7Q322 7 313 7T295 6Q273 -34 255 -69T225 -133Q220 -144 216 -144ZM781 748Q764 748 764 769Q764 786 777 800T810 822T843 831Q852 831 852 821Q852 806
837 789Q830 779 815 764T781 748ZM635 748Q618 748 618 769Q618 786 631 800T664 822T697 831Q706 831 706 821Q706 806 691 789Q684 779 669 764T635 748Z" />
<glyph unicode="&#xd0;" glyph-name="Eth" horiz-adv-x="843" d="M250 -52Q161 -52 92 -31T-1 38Q-6 48 -6 51Q-6 53 -4 53Q0 53 10 46Q48 20 107 12T225 4Q282 4 348 14T482 43T614 93T731 163Q814 226 852 285T890 396Q890 453 848 497T732 565T557 590Q521
590 483 587Q419 581 356 566T235 527T132 477T62 422T36 366Q36 349 48 332Q51 329 51 324Q51 320 48 319T40 321Q31 331 23 352T15 401Q15 428 27 457T72 512Q110 542 166 568T288 615T425 646T565 657Q684 657 760 622T874 528T911 399Q911 335 881 268T792
141T647 37Q592 10 525 -10T387 -41T250 -52ZM149 83Q142 83 142 97Q142 99 142 102T143 108Q149 133 171 173T236 275Q220 270 194 262T142 246T95 232H94Q89 232 89 240Q89 251 95 268T109 287Q135 294 166 301T225 314T270 323Q317 388 356 441T420 525T452
557H461Q472 557 472 552Q472 547 464 539Q426 497 386 445T298 328Q323 332 356 336T418 343T455 346H456Q465 346 465 339Q465 331 454 328Q431 324 394 316T321 300T268 286Q220 219 195 172T157 90Q154 83 149 83Z" />
<glyph unicode="&#xd1;" glyph-name="Ntilde" horiz-adv-x="585" d="M-72 -144Q-76 -144 -76 -134Q-76 -129 -75 -122T-70 -105Q-61 -79 -38 -35T16 65T85 181T160 300T232 410T294 500T336 556Q353 607 373 637T414 667Q430 667 449 661T482 645T496 624Q496
615 488 610Q465 591 448 553T418 466T400 361T394 251Q394 192 401 139T423 50Q435 82 459 129T514 233T579 348T645 460T705 556T751 624T774 649Q777 649 784 650T799 652Q814 652 814 644Q814 637 807 629Q756 562 701 482T595 318T501 160T433 28L436 23Q449
1 468 -11T503 -24Q514 -24 523 -18Q524 -18 524 -18T525 -17Q529 -17 530 -21T528 -28Q505 -44 477 -44Q454 -44 431 -31T389 7Q341 72 321 155T301 321Q301 366 306 409T319 491Q277 434 232 367T141 228T56 90T-15 -35T-63 -133Q-68 -144 -72 -144ZM710 754Q686
754 673 765T647 786T614 797Q595 797 577 787T546 768T527 758Q521 758 521 762Q521 765 525 769Q552 795 585 812T649 830Q672 830 684 825T706 813T725 801T753 795Q773 795 787 803T810 824Q818 822 816 814Q814 801 797 787T756 764T710 754Z" />
<glyph unicode="&#xd2;" glyph-name="Ograve" horiz-adv-x="652" d="M276 -39Q224 -39 181 -16T113 50T87 153Q87 198 104 252T160 368Q198 428 246 478T344 562T434 610Q467 622 502 622Q544 622 575 598T606 518Q606 499 602 481T595 453Q594 447 591 447Q585
447 587 458Q589 467 590 474T592 488Q592 512 578 522T540 533Q506 533 459 515T361 466T263 395T186 312Q147 258 128 210T109 123Q109 71 142 40T240 9Q269 9 303 15T377 36Q436 57 496 96T605 194Q650 250 685 331T720 516Q720 571 711 600T688 642T662 654Q658
654 652 652Q651 652 651 652T649 651Q646 651 646 654Q646 659 653 662Q661 665 671 665Q690 665 710 652T744 608T759 524Q759 450 736 386T677 267T608 170Q572 124 517 76T402 -5Q371 -22 339 -30T276 -39ZM618 726Q580 726 543 737T478 764T434 792Q428 797
428 803Q428 813 443 821T472 830Q481 830 484 827Q504 809 531 790T585 758T630 740Q640 738 640 733Q640 731 636 729T618 726Z" />
<glyph unicode="&#xd3;" glyph-name="Oacute" horiz-adv-x="652" d="M276 -39Q224 -39 181 -16T113 50T87 153Q87 198 104 252T160 368Q198 428 246 478T344 562T434 610Q467 622 502 622Q544 622 575 598T606 518Q606 499 602 481T595 453Q594 447 591 447Q585
447 587 458Q589 467 590 474T592 488Q592 512 578 522T540 533Q506 533 459 515T361 466T263 395T186 312Q147 258 128 210T109 123Q109 71 142 40T240 9Q269 9 303 15T377 36Q436 57 496 96T605 194Q650 250 685 331T720 516Q720 571 711 600T688 642T662 654Q658
654 652 652Q651 652 651 652T649 651Q646 651 646 654Q646 659 653 662Q661 665 671 665Q690 665 710 652T744 608T759 524Q759 450 736 386T677 267T608 170Q572 124 517 76T402 -5Q371 -22 339 -30T276 -39ZM620 726Q598 726 600 732Q600 738 614 740Q639 744
673 757T740 788T795 822Q805 830 819 830Q836 830 845 823T854 808Q854 802 848 797Q830 783 793 766T710 738T620 726Z" />
<glyph unicode="&#xd4;" glyph-name="Ocircumflex" horiz-adv-x="652" d="M276 -39Q224 -39 181 -16T113 50T87 153Q87 198 104 252T160 368Q198 428 246 478T344 562T434 610Q467 622 502 622Q544 622 575 598T606 518Q606 499 602 481T595 453Q594 447 591 447Q585
447 587 458Q589 467 590 474T592 488Q592 512 578 522T540 533Q506 533 459 515T361 466T263 395T186 312Q147 258 128 210T109 123Q109 71 142 40T240 9Q269 9 303 15T377 36Q436 57 496 96T605 194Q650 250 685 331T720 516Q720 571 711 600T688 642T662 654Q658
654 652 652Q651 652 651 652T649 651Q646 651 646 654Q646 659 653 662Q661 665 671 665Q690 665 710 652T744 608T759 524Q759 450 736 386T677 267T608 170Q572 124 517 76T402 -5Q371 -22 339 -30T276 -39ZM464 741Q446 741 449 744Q449 748 465 752Q485 757
521 769T595 797T659 823Q673 830 683 830Q694 830 701 820Q705 813 713 797T734 766T763 752Q768 752 768 748Q768 742 745 742Q706 742 682 755T647 783Q604 769 553 755T464 741Z" />
<glyph unicode="&#xd5;" glyph-name="Otilde" horiz-adv-x="652" d="M276 -39Q224 -39 181 -16T113 50T87 153Q87 198 104 252T160 368Q198 428 246 478T344 562T434 610Q467 622 502 622Q544 622 575 598T606 518Q606 499 602 481T595 453Q594 447 591 447Q585
447 587 458Q589 467 590 474T592 488Q592 512 578 522T540 533Q506 533 459 515T361 466T263 395T186 312Q147 258 128 210T109 123Q109 71 142 40T240 9Q269 9 303 15T377 36Q436 57 496 96T605 194Q650 250 685 331T720 516Q720 571 711 600T688 642T662 654Q658
654 652 652Q651 652 651 652T649 651Q646 651 646 654Q646 659 653 662Q661 665 671 665Q690 665 710 652T744 608T759 524Q759 450 736 386T677 267T608 170Q572 124 517 76T402 -5Q371 -22 339 -30T276 -39ZM662 754Q638 754 625 765T599 786T566 797Q547 797
529 787T498 768T479 758Q473 758 473 762Q473 765 477 769Q504 795 537 812T601 830Q624 830 636 825T658 813T677 801T705 795Q725 795 739 803T762 824Q770 822 768 814Q766 801 749 787T708 764T662 754Z" />
<glyph unicode="&#xd6;" glyph-name="Odieresis" horiz-adv-x="652" d="M276 -39Q224 -39 181 -16T113 50T87 153Q87 198 104 252T160 368Q198 428 246 478T344 562T434 610Q467 622 502 622Q544 622 575 598T606 518Q606 499 602 481T595 453Q594 447 591 447Q585
447 587 458Q589 467 590 474T592 488Q592 512 578 522T540 533Q506 533 459 515T361 466T263 395T186 312Q147 258 128 210T109 123Q109 71 142 40T240 9Q269 9 303 15T377 36Q436 57 496 96T605 194Q650 250 685 331T720 516Q720 571 711 600T688 642T662 654Q658
654 652 652Q651 652 651 652T649 651Q646 651 646 654Q646 659 653 662Q661 665 671 665Q690 665 710 652T744 608T759 524Q759 450 736 386T677 267T608 170Q572 124 517 76T402 -5Q371 -22 339 -30T276 -39ZM686 748Q669 748 669 769Q669 786 682 800T715 822T748
831Q757 831 757 821Q757 806 742 789Q735 779 720 764T686 748ZM540 748Q523 748 523 769Q523 786 536 800T569 822T602 831Q611 831 611 821Q611 806 596 789Q589 779 574 764T540 748Z" />
<glyph unicode="&#xd7;" glyph-name="multiply" horiz-adv-x="360" d="M315 2Q276 2 247 18T197 60T163 111Q122 72 103 54T77 29T64 15Q57 7 49 7Q40 7 47 17Q52 25 61 36T91 71T153 134H152Q130 191 130 236Q130 261 138 275Q141 281 154 289T181 305T205 313T209
306Q205 299 204 288T203 263Q203 242 206 222T213 193Q245 221 278 249T343 296Q357 304 367 304Q381 304 381 295Q381 290 374 286Q338 262 299 232Q280 216 261 199T221 165Q232 117 252 76T296 20Q303 17 310 15T324 13Q343 13 352 25Q354 27 356 26T356 22Q349
12 338 7T315 2Z" />
<glyph unicode="&#xd8;" glyph-name="Oslash" horiz-adv-x="652" d="M135 -104Q125 -104 125 -89V-84Q125 -81 125 -78T128 -72Q146 -40 165 -7Q130 17 109 57T87 153Q87 198 104 252T160 368Q198 428 246 478T344 562T434 610Q467 622 502 622Q538 622 563 607Q609
670 640 708T680 751Q683 753 691 754T709 756Q720 756 720 750Q720 745 715 739Q686 704 652 662H653Q661 665 671 665Q690 665 710 652T744 608T759 524Q759 450 736 386T677 267T608 170Q572 124 517 76T402 -5Q371 -22 339 -30T276 -39Q229 -39 190 -21Q168
-57 147 -94Q141 -104 135 -104ZM592 488Q592 526 554 532Q477 425 389 293T209 11Q224 9 240 9Q269 9 303 15T377 36Q436 57 496 96T605 194Q650 250 685 331T720 516Q720 571 711 600T688 642T662 654Q658 654 652 652Q651 652 651 652T649 651Q646 651 646 654Q619
619 590 580Q606 556 606 518Q606 499 602 481T595 453Q594 447 591 447Q585 447 587 458Q589 467 590 474T592 488ZM109 123Q109 43 180 18Q235 113 292 204T405 378T508 529Q472 522 428 502T339 452T254 386T186 312Q147 258 128 210T109 123Z" />
<glyph unicode="&#xd9;" glyph-name="Ugrave" horiz-adv-x="657" d="M538 -118Q489 -118 471 -96T452 -41Q452 -9 464 28T492 98T520 153Q418 20 332 -22Q305 -35 280 -35Q240 -35 218 -6T195 62Q195 67 195 72T196 81Q203 127 224 181T273 290T326 398T370 495T387
570Q387 605 367 619T313 633Q281 633 242 622T164 595T94 560T44 528Q37 522 29 522Q19 522 12 534T5 563Q5 576 10 588T25 609Q46 626 90 641T188 667T295 677Q342 677 381 668T444 636T468 575Q468 563 465 549Q459 521 439 478T392 384T335 281T282 180T246
95Q236 66 236 40Q236 16 246 1T279 -15Q302 -15 336 4Q384 30 432 80T526 192T614 320T694 443T759 543Q774 564 791 572T822 580Q834 580 839 576T839 565Q822 548 792 507T726 410T653 290T587 164T538 47T519 -45Q519 -67 527 -82T552 -100L559 -101H562Q574
-101 583 -92Q585 -90 588 -90Q590 -90 590 -92T585 -98Q578 -104 564 -111T538 -118ZM667 726Q629 726 592 737T527 764T483 792Q477 797 477 803Q477 813 492 821T521 830Q530 830 533 827Q553 809 580 790T634 758T679 740Q689 738 689 733Q689 731 685 729T667
726Z" />
<glyph unicode="&#xda;" glyph-name="Uacute" horiz-adv-x="657" d="M538 -118Q489 -118 471 -96T452 -41Q452 -9 464 28T492 98T520 153Q418 20 332 -22Q305 -35 280 -35Q240 -35 218 -6T195 62Q195 67 195 72T196 81Q203 127 224 181T273 290T326 398T370 495T387
570Q387 605 367 619T313 633Q281 633 242 622T164 595T94 560T44 528Q37 522 29 522Q19 522 12 534T5 563Q5 576 10 588T25 609Q46 626 90 641T188 667T295 677Q342 677 381 668T444 636T468 575Q468 563 465 549Q459 521 439 478T392 384T335 281T282 180T246
95Q236 66 236 40Q236 16 246 1T279 -15Q302 -15 336 4Q384 30 432 80T526 192T614 320T694 443T759 543Q774 564 791 572T822 580Q834 580 839 576T839 565Q822 548 792 507T726 410T653 290T587 164T538 47T519 -45Q519 -67 527 -82T552 -100L559 -101H562Q574
-101 583 -92Q585 -90 588 -90Q590 -90 590 -92T585 -98Q578 -104 564 -111T538 -118ZM669 726Q647 726 649 732Q649 738 663 740Q688 744 722 757T789 788T844 822Q854 830 868 830Q885 830 894 823T903 808Q903 802 897 797Q879 783 842 766T759 738T669 726Z"
/>
<glyph unicode="&#xdb;" glyph-name="Ucircumflex" horiz-adv-x="657" d="M538 -118Q489 -118 471 -96T452 -41Q452 -9 464 28T492 98T520 153Q418 20 332 -22Q305 -35 280 -35Q240 -35 218 -6T195 62Q195 67 195 72T196 81Q203 127 224 181T273 290T326 398T370
495T387 570Q387 605 367 619T313 633Q281 633 242 622T164 595T94 560T44 528Q37 522 29 522Q19 522 12 534T5 563Q5 576 10 588T25 609Q46 626 90 641T188 667T295 677Q342 677 381 668T444 636T468 575Q468 563 465 549Q459 521 439 478T392 384T335 281T282
180T246 95Q236 66 236 40Q236 16 246 1T279 -15Q302 -15 336 4Q384 30 432 80T526 192T614 320T694 443T759 543Q774 564 791 572T822 580Q834 580 839 576T839 565Q822 548 792 507T726 410T653 290T587 164T538 47T519 -45Q519 -67 527 -82T552 -100L559 -101H562Q574
-101 583 -92Q585 -90 588 -90Q590 -90 590 -92T585 -98Q578 -104 564 -111T538 -118ZM513 741Q495 741 498 744Q498 748 514 752Q534 757 570 769T644 797T708 823Q722 830 732 830Q743 830 750 820Q754 813 762 797T783 766T812 752Q817 752 817 748Q817 742
794 742Q755 742 731 755T696 783Q653 769 602 755T513 741Z" />
<glyph unicode="&#xdc;" glyph-name="Udieresis" horiz-adv-x="657" d="M538 -118Q489 -118 471 -96T452 -41Q452 -9 464 28T492 98T520 153Q418 20 332 -22Q305 -35 280 -35Q240 -35 218 -6T195 62Q195 67 195 72T196 81Q203 127 224 181T273 290T326 398T370
495T387 570Q387 605 367 619T313 633Q281 633 242 622T164 595T94 560T44 528Q37 522 29 522Q19 522 12 534T5 563Q5 576 10 588T25 609Q46 626 90 641T188 667T295 677Q342 677 381 668T444 636T468 575Q468 563 465 549Q459 521 439 478T392 384T335 281T282
180T246 95Q236 66 236 40Q236 16 246 1T279 -15Q302 -15 336 4Q384 30 432 80T526 192T614 320T694 443T759 543Q774 564 791 572T822 580Q834 580 839 576T839 565Q822 548 792 507T726 410T653 290T587 164T538 47T519 -45Q519 -67 527 -82T552 -100L559 -101H562Q574
-101 583 -92Q585 -90 588 -90Q590 -90 590 -92T585 -98Q578 -104 564 -111T538 -118ZM735 748Q718 748 718 769Q718 786 731 800T764 822T797 831Q806 831 806 821Q806 806 791 789Q784 779 769 764T735 748ZM589 748Q572 748 572 769Q572 786 585 800T618 822T651
831Q660 831 660 821Q660 806 645 789Q638 779 623 764T589 748Z" />
<glyph unicode="&#xdd;" glyph-name="Yacute" horiz-adv-x="870" d="M335 -306Q286 -306 240 -292T156 -246T97 -163T75 -40V-36Q75 -25 80 -25Q87 -25 89 -38Q99 -108 128 -161T201 -244T296 -274Q350 -274 399 -244T492 -166T574 -65T644 37Q762 216 807 351T847
581Q831 526 799 461T726 332T642 213Q628 196 603 167T545 106T479 45T412 -2T353 -20Q350 -20 347 -20T341 -19Q317 -13 317 19Q317 45 330 82T364 163T411 252T460 339Q474 363 493 396T527 465T542 532Q542 564 519 584T437 605Q401 605 360 599T278 582T203
562T148 545Q97 527 61 507T24 466Q24 452 42 440L44 438Q44 437 40 437Q34 437 31 439Q9 454 9 483Q9 505 24 529T70 571Q122 601 189 622T326 656T453 668Q536 668 568 643T601 577Q601 541 582 497T536 407T485 320Q463 281 439 239T393 157T358 84T345 30Q345
17 351 9T371 1Q391 1 421 21T484 74T548 140T602 203T634 245Q704 346 757 438T834 607Q841 630 849 632Q853 634 855 634Q860 634 863 626Q873 599 877 567T882 497Q882 431 869 357T832 209T777 67T710 -53Q662 -123 602 -180T474 -272T335 -306ZM766 726Q744
726 746 732Q746 738 760 740Q785 744 819 757T886 788T941 822Q951 830 965 830Q982 830 991 823T1000 808Q1000 802 994 797Q976 783 939 766T856 738T766 726Z" />
<glyph unicode="&#xde;" glyph-name="Thorn" horiz-adv-x="678" d="M-8 -229Q-16 -229 -16 -220Q-16 -218 -16 -216T-14 -210Q-7 -182 22 -130T92 -16Q73 -11 57 -4T26 15Q-4 39 -4 69Q-4 92 14 108Q19 111 20 111Q23 111 23 107Q23 104 18 97Q11 87 11 73Q11
61 16 49T35 27Q61 7 102 -1Q133 45 171 105T254 235T344 375Q294 363 243 347T151 311T84 270Q67 257 73 248Q75 245 75 242Q75 239 72 239T66 242Q50 253 42 268T34 297Q34 302 35 306T38 313Q55 337 91 359T178 400T285 434T399 458Q431 507 462 553T524 640Q526
642 527 642Q532 642 536 634T539 620Q493 553 436 464Q447 466 458 467T480 469Q492 470 503 470T525 471Q629 471 677 428T726 322Q726 265 686 204T568 97Q538 79 491 59T389 20T275 -11T164 -23Q154 -23 145 -23T125 -21Q87 -77 57 -127T12 -212Q10 -219 4
-224T-8 -229ZM137 -5Q190 -8 251 3T371 35T480 78T559 120Q620 161 648 205T677 286Q677 335 634 367T509 399Q486 399 459 396Q424 393 386 384Q341 313 296 241T210 105T137 -5Z" />
<glyph unicode="&#xdf;" glyph-name="germandbls" horiz-adv-x="460" d="M-153 -159Q-199 -159 -235 -135T-280 -63Q-281 -58 -278 -58T-273 -63Q-265 -90 -246 -101T-202 -113Q-183 -113 -164 -107T-131 -92Q-94 -69 -58 -29T6 52Q31 87 50 126T96 212H26Q11
212 11 224Q11 240 41 264T139 300Q171 360 208 409T282 484Q311 503 337 511T386 520Q430 520 457 494T485 428Q485 403 472 373T428 314Q420 306 416 305Q399 289 392 257T378 187T359 111T319 42Q336 48 377 73T460 135Q463 137 470 144T486 158T496 168Q500
172 504 172Q509 172 509 167Q509 163 505 159Q481 135 460 117Q426 86 386 57T301 8T210 -11Q122 -11 104 45V46Q104 49 108 49T114 46Q119 37 131 30T163 23Q195 23 217 38T255 77T278 123T290 164Q302 224 319 256T359 301T406 318Q427 343 440 365T459 405Q465
423 465 435Q465 454 455 463T427 472Q396 472 357 447Q314 419 267 369T180 244Q170 225 155 190T120 110T73 21T15 -63T-55 -129Q-77 -144 -102 -151T-153 -159Z" />
<glyph unicode="&#xe0;" glyph-name="agrave" horiz-adv-x="476" d="M55 -1Q24 -1 7 18T-10 69Q-10 98 5 133T55 204Q90 242 142 265T241 289Q279 289 306 273T342 231Q353 231 369 225T386 203Q386 192 375 178Q368 168 351 148T318 105Q306 87 299 72T292 45Q292
30 307 30Q324 30 358 49Q395 70 429 97T482 140Q487 144 489 144Q493 144 493 139Q493 133 488 128Q479 120 453 98T394 52T328 13Q312 6 299 3T274 -1Q247 -1 233 14T219 55Q219 65 222 76T229 98L236 115Q210 83 184 62T132 24Q110 11 91 5T55 -1ZM86 25Q104
25 138 46T217 113Q223 119 239 134T275 169T307 208T321 241Q321 260 288 260Q259 260 219 238T141 171Q103 126 86 94T68 44Q68 25 86 25ZM343 346Q305 346 271 362T211 401T173 437Q168 442 176 450T197 464T220 470Q228 470 229 467Q243 449 265 425T312 383T355
360Q365 358 365 353Q365 351 361 349T343 346Z" />
<glyph unicode="&#xe1;" glyph-name="aacute" horiz-adv-x="476" d="M55 -1Q24 -1 7 18T-10 69Q-10 98 5 133T55 204Q90 242 142 265T241 289Q279 289 306 273T342 231Q353 231 369 225T386 203Q386 192 375 178Q368 168 351 148T318 105Q306 87 299 72T292 45Q292
30 307 30Q324 30 358 49Q395 70 429 97T482 140Q487 144 489 144Q493 144 493 139Q493 133 488 128Q479 120 453 98T394 52T328 13Q312 6 299 3T274 -1Q247 -1 233 14T219 55Q219 65 222 76T229 98L236 115Q210 83 184 62T132 24Q110 11 91 5T55 -1ZM86 25Q104
25 138 46T217 113Q223 119 239 134T275 169T307 208T321 241Q321 260 288 260Q259 260 219 238T141 171Q103 126 86 94T68 44Q68 25 86 25ZM325 346Q303 346 305 352Q305 358 319 360Q339 364 370 382T435 425T489 467Q494 470 500 470Q510 470 520 464T535 450T533
437Q515 423 481 401T405 363T325 346Z" />
<glyph unicode="&#xe2;" glyph-name="acircumflex" horiz-adv-x="476" d="M55 -1Q24 -1 7 18T-10 69Q-10 98 5 133T55 204Q90 242 142 265T241 289Q279 289 306 273T342 231Q353 231 369 225T386 203Q386 192 375 178Q368 168 351 148T318 105Q306 87 299 72T292
45Q292 30 307 30Q324 30 358 49Q395 70 429 97T482 140Q487 144 489 144Q493 144 493 139Q493 133 488 128Q479 120 453 98T394 52T328 13Q312 6 299 3T274 -1Q247 -1 233 14T219 55Q219 65 222 76T229 98L236 115Q210 83 184 62T132 24Q110 11 91 5T55 -1ZM86
25Q104 25 138 46T217 113Q223 119 239 134T275 169T307 208T321 241Q321 260 288 260Q259 260 219 238T141 171Q103 126 86 94T68 44Q68 25 86 25ZM178 361Q162 361 164 365Q164 370 179 372Q193 375 217 385T270 409T326 436T373 460Q378 463 387 463Q394 463
395 460Q403 448 412 429T432 393T458 373Q463 371 463 369Q463 362 441 362Q405 362 382 378T347 412Q309 394 261 378T178 361Z" />
<glyph unicode="&#xe3;" glyph-name="atilde" horiz-adv-x="476" d="M55 -1Q24 -1 7 18T-10 69Q-10 98 5 133T55 204Q90 242 142 265T241 289Q279 289 306 273T342 231Q353 231 369 225T386 203Q386 192 375 178Q368 168 351 148T318 105Q306 87 299 72T292 45Q292
30 307 30Q324 30 358 49Q395 70 429 97T482 140Q487 144 489 144Q493 144 493 139Q493 133 488 128Q479 120 453 98T394 52T328 13Q312 6 299 3T274 -1Q247 -1 233 14T219 55Q219 65 222 76T229 98L236 115Q210 83 184 62T132 24Q110 11 91 5T55 -1ZM86 25Q104
25 138 46T217 113Q223 119 239 134T275 169T307 208T321 241Q321 260 288 260Q259 260 219 238T141 171Q103 126 86 94T68 44Q68 25 86 25ZM363 374Q342 374 328 385T302 406T277 417Q260 417 244 407T216 388T199 378Q193 378 193 382Q193 385 197 389Q224 415
253 432T308 450Q336 450 350 442T374 424T401 415Q418 415 431 423T452 444Q460 442 458 434Q455 421 439 407T401 384T363 374Z" />
<glyph unicode="&#xe4;" glyph-name="adieresis" horiz-adv-x="476" d="M55 -1Q24 -1 7 18T-10 69Q-10 98 5 133T55 204Q90 242 142 265T241 289Q279 289 306 273T342 231Q353 231 369 225T386 203Q386 192 375 178Q368 168 351 148T318 105Q306 87 299 72T292
45Q292 30 307 30Q324 30 358 49Q395 70 429 97T482 140Q487 144 489 144Q493 144 493 139Q493 133 488 128Q479 120 453 98T394 52T328 13Q312 6 299 3T274 -1Q247 -1 233 14T219 55Q219 65 222 76T229 98L236 115Q210 83 184 62T132 24Q110 11 91 5T55 -1ZM86
25Q104 25 138 46T217 113Q223 119 239 134T275 169T307 208T321 241Q321 260 288 260Q259 260 219 238T141 171Q103 126 86 94T68 44Q68 25 86 25ZM382 370Q375 370 371 376T366 390Q366 406 379 419T410 441T441 449Q450 449 450 439Q450 427 436 409Q429 400
414 385T382 370ZM256 370Q249 370 245 376T240 390Q240 406 253 419T284 441T315 449Q324 449 324 439Q324 427 310 409Q303 400 288 385T256 370Z" />
<glyph unicode="&#xe5;" glyph-name="aring" horiz-adv-x="476" d="M55 -1Q24 -1 7 18T-10 69Q-10 98 5 133T55 204Q90 242 142 265T241 289Q279 289 306 273T342 231Q353 231 369 225T386 203Q386 192 375 178Q368 168 351 148T318 105Q306 87 299 72T292 45Q292
30 307 30Q324 30 358 49Q395 70 429 97T482 140Q487 144 489 144Q493 144 493 139Q493 133 488 128Q479 120 453 98T394 52T328 13Q312 6 299 3T274 -1Q247 -1 233 14T219 55Q219 65 222 76T229 98L236 115Q210 83 184 62T132 24Q110 11 91 5T55 -1ZM86 25Q104
25 138 46T217 113Q223 119 239 134T275 169T307 208T321 241Q321 260 288 260Q259 260 219 238T141 171Q103 126 86 94T68 44Q68 25 86 25ZM325 346Q309 346 300 352T290 375Q290 377 290 380T291 386Q296 411 315 435T361 480T416 513T466 526Q490 526 504 514T514
478Q508 453 487 429T437 387T378 357T325 346ZM331 362Q357 362 386 377T439 416T466 459Q469 475 459 480T434 485Q407 485 381 468T335 428T312 384Q311 381 311 376Q311 362 331 362Z" />
<glyph unicode="&#xe6;" glyph-name="ae" horiz-adv-x="582" d="M312 -12Q272 -12 246 6T219 57Q219 66 222 76T229 98L236 115Q210 83 184 62T132 24Q110 11 91 5T55 -1Q24 -1 7 18T-10 69Q-10 98 5 133T55 204Q90 242 142 265T241 289Q258 289 274 286T303 274Q318
265 326 257T338 241Q369 261 403 272T471 283Q513 283 533 269T554 233Q554 213 536 191T481 151Q459 141 431 134T381 126Q364 126 364 131Q364 135 379 135Q392 135 419 142T472 163Q501 179 513 195T526 224Q526 236 517 244T490 252Q474 252 454 243Q435 234
412 215T368 172T332 122T313 73Q312 70 312 67T312 62Q312 39 330 28T376 17Q402 17 435 33T504 74T568 124T616 168Q621 173 625 173Q628 173 628 168Q628 161 622 155Q584 121 540 83T446 18T341 -10Q334 -11 327 -11T312 -12ZM86 25Q104 25 138 46T217 113Q223
119 239 134T275 169T307 208T321 241Q321 260 288 260Q259 260 219 238T141 171Q103 126 86 94T68 44Q68 25 86 25Z" />
<glyph unicode="&#xe7;" glyph-name="ccedilla" horiz-adv-x="339" d="M96 -10Q53 -10 24 11T-6 74Q-6 118 15 156T72 222T148 267T231 283Q272 283 291 268T311 232Q311 218 303 205T281 191Q272 191 272 198Q272 203 275 207Q287 228 287 244Q287 264 266 264Q249
264 222 251Q200 241 176 221T130 174T96 120T82 68Q82 45 95 30T134 15Q151 15 174 23T227 49Q251 64 277 85T329 128T372 166Q378 172 382 172Q386 172 386 167Q386 160 380 155Q354 131 323 104T259 52T193 13Q141 -10 96 -10ZM-83 -222Q-88 -222 -88 -218Q-88
-213 -85 -210T-78 -207Q-69 -207 -53 -206T-18 -200T15 -182T33 -145Q35 -130 28 -114T20 -82Q20 -64 34 -44T68 -9T108 5Q117 5 115 -1Q104 -2 90 -11T67 -33T57 -57Q57 -67 66 -82T84 -113T93 -147Q93 -174 73 -189T22 -211T-37 -220T-83 -222Z" />
<glyph unicode="&#xe8;" glyph-name="egrave" horiz-adv-x="340" d="M97 -10Q53 -10 24 11T-6 74Q-6 118 15 156T71 222T147 267T230 283Q271 283 291 269T311 233Q311 213 293 191T239 151Q217 141 189 134T139 126Q123 126 123 131Q123 135 137 135Q150 135
177 142T231 163Q260 179 272 195T284 224Q284 236 275 244T248 252Q232 252 212 243Q183 230 153 201T102 136T82 69Q82 47 94 32T132 17Q158 17 192 33T261 74T326 124T374 166Q380 172 383 172Q386 172 386 167Q386 160 380 155Q342 120 298 82T203 18T97 -10ZM313
346Q275 346 241 362T181 401T143 437Q138 442 146 450T167 464T190 470Q198 470 199 467Q213 449 235 425T282 383T325 360Q335 358 335 353Q335 351 331 349T313 346Z" />
<glyph unicode="&#xe9;" glyph-name="eacute" horiz-adv-x="340" d="M97 -10Q53 -10 24 11T-6 74Q-6 118 15 156T71 222T147 267T230 283Q271 283 291 269T311 233Q311 213 293 191T239 151Q217 141 189 134T139 126Q123 126 123 131Q123 135 137 135Q150 135
177 142T231 163Q260 179 272 195T284 224Q284 236 275 244T248 252Q232 252 212 243Q183 230 153 201T102 136T82 69Q82 47 94 32T132 17Q158 17 192 33T261 74T326 124T374 166Q380 172 383 172Q386 172 386 167Q386 160 380 155Q342 120 298 82T203 18T97 -10ZM295
346Q273 346 275 352Q275 358 289 360Q309 364 340 382T405 425T459 467Q464 470 470 470Q480 470 490 464T505 450T503 437Q485 423 451 401T375 363T295 346Z" />
<glyph unicode="&#xea;" glyph-name="ecircumflex" horiz-adv-x="340" d="M97 -10Q53 -10 24 11T-6 74Q-6 118 15 156T71 222T147 267T230 283Q271 283 291 269T311 233Q311 213 293 191T239 151Q217 141 189 134T139 126Q123 126 123 131Q123 135 137 135Q150
135 177 142T231 163Q260 179 272 195T284 224Q284 236 275 244T248 252Q232 252 212 243Q183 230 153 201T102 136T82 69Q82 47 94 32T132 17Q158 17 192 33T261 74T326 124T374 166Q380 172 383 172Q386 172 386 167Q386 160 380 155Q342 120 298 82T203 18T97
-10ZM148 361Q132 361 134 365Q134 370 149 372Q163 375 187 385T240 409T296 436T343 460Q348 463 357 463Q364 463 365 460Q373 448 382 429T402 393T428 373Q433 371 433 369Q433 362 411 362Q375 362 352 378T317 412Q279 394 231 378T148 361Z" />
<glyph unicode="&#xeb;" glyph-name="edieresis" horiz-adv-x="340" d="M97 -10Q53 -10 24 11T-6 74Q-6 118 15 156T71 222T147 267T230 283Q271 283 291 269T311 233Q311 213 293 191T239 151Q217 141 189 134T139 126Q123 126 123 131Q123 135 137 135Q150 135
177 142T231 163Q260 179 272 195T284 224Q284 236 275 244T248 252Q232 252 212 243Q183 230 153 201T102 136T82 69Q82 47 94 32T132 17Q158 17 192 33T261 74T326 124T374 166Q380 172 383 172Q386 172 386 167Q386 160 380 155Q342 120 298 82T203 18T97 -10ZM352
370Q345 370 341 376T336 390Q336 406 349 419T380 441T411 449Q420 449 420 439Q420 427 406 409Q399 400 384 385T352 370ZM226 370Q219 370 215 376T210 390Q210 406 223 419T254 441T285 449Q294 449 294 439Q294 427 280 409Q273 400 258 385T226 370Z" />
<glyph unicode="&#xec;" glyph-name="igrave" horiz-adv-x="275" d="M70 -1Q29 -1 15 16T0 56Q0 74 6 90T16 114Q22 124 32 137T56 165Q36 148 19 132T-10 108Q-13 105 -16 105Q-20 105 -20 110Q-20 119 -9 127Q16 147 43 174T95 226T136 259Q147 265 157 267T174
270Q185 270 190 267T192 259Q175 242 159 216T128 160T106 105T97 61Q97 36 117 36Q136 36 166 53T230 98T293 151Q297 155 300 155Q305 155 306 151T304 144Q269 113 228 79T145 22T70 -1ZM518 346Q480 346 446 362T386 401T348 437Q343 442 351 450T372 464T395
470Q403 470 404 467Q418 449 440 425T487 383T530 360Q540 358 540 353Q540 351 536 349T518 346Z" />
<glyph unicode="&#xed;" glyph-name="iacute" horiz-adv-x="275" d="M70 -1Q29 -1 15 16T0 56Q0 74 6 90T16 114Q22 124 32 137T56 165Q36 148 19 132T-10 108Q-13 105 -16 105Q-20 105 -20 110Q-20 119 -9 127Q16 147 43 174T95 226T136 259Q147 265 157 267T174
270Q185 270 190 267T192 259Q175 242 159 216T128 160T106 105T97 61Q97 36 117 36Q136 36 166 53T230 98T293 151Q297 155 300 155Q305 155 306 151T304 144Q269 113 228 79T145 22T70 -1ZM500 346Q478 346 480 352Q480 358 494 360Q514 364 545 382T610 425T664
467Q669 470 675 470Q685 470 695 464T710 450T708 437Q690 423 656 401T580 363T500 346Z" />
<glyph unicode="&#xee;" glyph-name="icircumflex" horiz-adv-x="275" d="M70 -1Q29 -1 15 16T0 56Q0 74 6 90T16 114Q22 124 32 137T56 165Q36 148 19 132T-10 108Q-13 105 -16 105Q-20 105 -20 110Q-20 119 -9 127Q16 147 43 174T95 226T136 259Q147 265 157
267T174 270Q185 270 190 267T192 259Q175 242 159 216T128 160T106 105T97 61Q97 36 117 36Q136 36 166 53T230 98T293 151Q297 155 300 155Q305 155 306 151T304 144Q269 113 228 79T145 22T70 -1ZM353 361Q337 361 339 365Q339 370 354 372Q368 375 392 385T445
409T501 436T548 460Q553 463 562 463Q569 463 570 460Q578 448 587 429T607 393T633 373Q638 371 638 369Q638 362 616 362Q580 362 557 378T522 412Q484 394 436 378T353 361Z" />
<glyph unicode="&#xef;" glyph-name="idieresis" horiz-adv-x="275" d="M70 -1Q29 -1 15 16T0 56Q0 74 6 90T16 114Q22 124 32 137T56 165Q36 148 19 132T-10 108Q-13 105 -16 105Q-20 105 -20 110Q-20 119 -9 127Q16 147 43 174T95 226T136 259Q147 265 157 267T174
270Q185 270 190 267T192 259Q175 242 159 216T128 160T106 105T97 61Q97 36 117 36Q136 36 166 53T230 98T293 151Q297 155 300 155Q305 155 306 151T304 144Q269 113 228 79T145 22T70 -1ZM557 370Q550 370 546 376T541 390Q541 406 554 419T585 441T616 449Q625
449 625 439Q625 427 611 409Q604 400 589 385T557 370ZM431 370Q424 370 420 376T415 390Q415 406 428 419T459 441T490 449Q499 449 499 439Q499 427 485 409Q478 400 463 385T431 370Z" />
<glyph unicode="&#xf0;" glyph-name="eth" horiz-adv-x="382" d="M98 -10Q55 -10 26 11T-4 74Q-4 118 17 156T74 222T150 267T233 283Q274 283 293 268T313 232Q313 220 307 208Q303 200 296 196T283 191Q274 191 274 198Q274 203 277 207Q289 228 289 244Q289
264 268 264Q251 264 224 251Q202 241 178 221T132 174T98 120T84 68Q84 45 97 30T136 15Q153 15 176 23T229 49Q292 90 318 134T344 223Q344 278 314 330T242 422Q223 409 203 395T158 366Q157 365 157 365T156 365Q152 365 146 376Q139 392 139 405Q139 415 144
418Q179 438 209 453Q192 467 177 478T147 497Q129 508 129 525Q129 536 136 543T160 551Q170 551 182 548T209 535Q247 513 278 486Q313 500 335 507T368 517Q370 517 370 517T372 518Q379 518 383 512Q384 511 384 509Q384 504 377 501Q356 491 338 482T304 462Q347
418 369 368T391 268Q391 194 343 126T195 13Q143 -10 98 -10Z" />
<glyph unicode="&#xf1;" glyph-name="ntilde" horiz-adv-x="397" d="M-5 -5Q-15 -5 -29 -1T-57 16Q-46 31 -26 56T18 113T61 175Q45 159 26 141T-12 108Q-16 104 -21 104Q-25 104 -25 108Q-25 113 -17 120Q11 145 45 177T96 244Q101 256 101 266Q101 279 96 282Q92
285 92 290Q92 299 101 299Q106 299 109 297Q120 292 130 278T140 236Q140 220 136 200T122 153Q137 173 152 192T181 226Q208 257 235 270T285 284Q311 284 327 269T343 230Q343 211 333 191Q330 183 319 167T295 131T271 97Q258 81 253 70T248 51Q248 41 259
41Q273 41 298 56Q313 65 332 80T371 112T403 140Q407 144 410 144Q414 144 414 139Q414 133 409 128Q379 100 340 67T262 16Q231 1 205 1Q183 1 170 12T157 46Q157 62 165 84Q175 111 193 138T232 189T268 231Q281 245 281 255Q281 264 269 264Q257 264 234 251T181
207Q140 164 109 114T38 20Q16 -5 -5 -5ZM343 374Q322 374 308 385T282 406T257 417Q240 417 224 407T196 388T179 378Q173 378 173 382Q173 385 177 389Q204 415 233 432T288 450Q316 450 330 442T354 424T381 415Q398 415 411 423T432 444Q440 442 438 434Q435
421 419 407T381 384T343 374Z" />
<glyph unicode="&#xf2;" glyph-name="ograve" horiz-adv-x="399" d="M77 -9Q38 -9 19 10T-1 61Q-1 80 4 98T15 130Q8 123 2 118T-9 109Q-13 106 -16 106Q-20 106 -20 111Q-20 118 -10 127Q25 156 45 178T87 220Q124 252 166 270T250 288Q294 288 319 267T344 205Q344
182 331 152T288 90Q276 77 261 65T235 46Q284 51 327 80T404 139Q409 142 411 142Q416 142 416 137Q416 133 411 128Q368 87 319 59T209 32Q174 13 141 2T77 -9ZM122 19Q136 19 152 24T184 37Q178 37 173 43T167 59Q167 79 182 100T219 136T262 151Q274 151 284
145T296 127Q313 146 319 168T326 209Q326 235 310 248T265 262Q238 262 206 243T145 194T98 129T79 62Q79 19 122 19ZM326 346Q288 346 254 362T194 401T156 437Q151 442 159 450T180 464T203 470Q211 470 212 467Q226 449 248 425T295 383T338 360Q348 358 348
353Q348 351 344 349T326 346Z" />
<glyph unicode="&#xf3;" glyph-name="oacute" horiz-adv-x="399" d="M77 -9Q38 -9 19 10T-1 61Q-1 80 4 98T15 130Q8 123 2 118T-9 109Q-13 106 -16 106Q-20 106 -20 111Q-20 118 -10 127Q25 156 45 178T87 220Q124 252 166 270T250 288Q294 288 319 267T344 205Q344
182 331 152T288 90Q276 77 261 65T235 46Q284 51 327 80T404 139Q409 142 411 142Q416 142 416 137Q416 133 411 128Q368 87 319 59T209 32Q174 13 141 2T77 -9ZM122 19Q136 19 152 24T184 37Q178 37 173 43T167 59Q167 79 182 100T219 136T262 151Q274 151 284
145T296 127Q313 146 319 168T326 209Q326 235 310 248T265 262Q238 262 206 243T145 194T98 129T79 62Q79 19 122 19ZM308 346Q286 346 288 352Q288 358 302 360Q322 364 353 382T418 425T472 467Q477 470 483 470Q493 470 503 464T518 450T516 437Q498 423 464
401T388 363T308 346Z" />
<glyph unicode="&#xf4;" glyph-name="ocircumflex" horiz-adv-x="399" d="M77 -9Q38 -9 19 10T-1 61Q-1 80 4 98T15 130Q8 123 2 118T-9 109Q-13 106 -16 106Q-20 106 -20 111Q-20 118 -10 127Q25 156 45 178T87 220Q124 252 166 270T250 288Q294 288 319 267T344
205Q344 182 331 152T288 90Q276 77 261 65T235 46Q284 51 327 80T404 139Q409 142 411 142Q416 142 416 137Q416 133 411 128Q368 87 319 59T209 32Q174 13 141 2T77 -9ZM122 19Q136 19 152 24T184 37Q178 37 173 43T167 59Q167 79 182 100T219 136T262 151Q274
151 284 145T296 127Q313 146 319 168T326 209Q326 235 310 248T265 262Q238 262 206 243T145 194T98 129T79 62Q79 19 122 19ZM161 361Q145 361 147 365Q147 370 162 372Q176 375 200 385T253 409T309 436T356 460Q361 463 370 463Q377 463 378 460Q386 448 395
429T415 393T441 373Q446 371 446 369Q446 362 424 362Q388 362 365 378T330 412Q292 394 244 378T161 361Z" />
<glyph unicode="&#xf5;" glyph-name="otilde" horiz-adv-x="399" d="M77 -9Q38 -9 19 10T-1 61Q-1 80 4 98T15 130Q8 123 2 118T-9 109Q-13 106 -16 106Q-20 106 -20 111Q-20 118 -10 127Q25 156 45 178T87 220Q124 252 166 270T250 288Q294 288 319 267T344 205Q344
182 331 152T288 90Q276 77 261 65T235 46Q284 51 327 80T404 139Q409 142 411 142Q416 142 416 137Q416 133 411 128Q368 87 319 59T209 32Q174 13 141 2T77 -9ZM122 19Q136 19 152 24T184 37Q178 37 173 43T167 59Q167 79 182 100T219 136T262 151Q274 151 284
145T296 127Q313 146 319 168T326 209Q326 235 310 248T265 262Q238 262 206 243T145 194T98 129T79 62Q79 19 122 19ZM346 374Q325 374 311 385T285 406T260 417Q243 417 227 407T199 388T182 378Q176 378 176 382Q176 385 180 389Q207 415 236 432T291 450Q319
450 333 442T357 424T384 415Q401 415 414 423T435 444Q443 442 441 434Q438 421 422 407T384 384T346 374Z" />
<glyph unicode="&#xf6;" glyph-name="odieresis" horiz-adv-x="399" d="M77 -9Q38 -9 19 10T-1 61Q-1 80 4 98T15 130Q8 123 2 118T-9 109Q-13 106 -16 106Q-20 106 -20 111Q-20 118 -10 127Q25 156 45 178T87 220Q124 252 166 270T250 288Q294 288 319 267T344
205Q344 182 331 152T288 90Q276 77 261 65T235 46Q284 51 327 80T404 139Q409 142 411 142Q416 142 416 137Q416 133 411 128Q368 87 319 59T209 32Q174 13 141 2T77 -9ZM122 19Q136 19 152 24T184 37Q178 37 173 43T167 59Q167 79 182 100T219 136T262 151Q274
151 284 145T296 127Q313 146 319 168T326 209Q326 235 310 248T265 262Q238 262 206 243T145 194T98 129T79 62Q79 19 122 19ZM365 370Q358 370 354 376T349 390Q349 406 362 419T393 441T424 449Q433 449 433 439Q433 427 419 409Q412 400 397 385T365 370ZM239
370Q232 370 228 376T223 390Q223 406 236 419T267 441T298 449Q307 449 307 439Q307 427 293 409Q286 400 271 385T239 370Z" />
<glyph unicode="&#xf7;" glyph-name="divide" horiz-adv-x="461" d="M308 264Q297 264 288 270Q277 279 277 295Q277 316 295 337Q317 362 343 362Q356 362 364 355Q374 346 374 330Q374 308 356 288Q335 264 308 264ZM135 163Q129 163 129 178Q129 190 133 203T144
217Q185 221 220 222T284 224Q335 224 367 221T412 216Q424 214 424 205Q424 198 414 198Q336 196 272 185T136 163H135ZM175 36Q159 36 152 45T144 67Q144 89 162 110Q183 134 210 134Q221 134 230 128Q241 119 241 103Q241 81 223 61Q201 36 175 36Z" />
<glyph unicode="&#xf8;" glyph-name="oslash" horiz-adv-x="399" d="M77 -9Q71 -9 65 -8Q65 -9 64 -10Q49 -30 38 -46T19 -74Q12 -84 7 -84Q1 -84 1 -74Q1 -66 6 -58Q12 -47 21 -35T43 -4Q21 4 10 21T-1 61Q-1 80 4 98T15 130Q8 123 2 118T-9 109Q-13 106 -16
106Q-20 106 -20 111Q-20 118 -10 127Q25 156 45 178T87 220Q124 252 166 270T250 288Q253 288 256 288Q272 309 285 326T307 354Q316 366 323 368Q326 369 331 369T340 369Q348 369 348 365Q348 362 344 357Q331 340 317 322T287 283Q344 267 344 205Q344 182
331 152T288 90Q276 77 261 65T235 46Q284 51 327 80T404 139Q409 142 411 142Q416 142 416 137Q416 133 411 128Q368 87 319 59T209 32Q174 13 141 2T77 -9ZM122 19Q136 19 152 24T184 37Q178 37 173 43T167 59Q167 79 182 100T219 136T262 151Q274 151 284 145T296
127Q313 146 319 168T326 209Q326 235 310 248T271 262Q238 219 205 175T142 93T93 28Q103 19 122 19ZM79 62Q79 54 80 49Q100 76 126 111T179 184T232 256Q206 246 179 225T130 177T93 120T79 62Z" />
<glyph unicode="&#xf9;" glyph-name="ugrave" horiz-adv-x="459" d="M299 -39Q286 -34 274 -21T261 24Q261 51 270 80T293 139Q267 106 237 74T176 22T119 1Q97 1 83 13T68 50Q68 68 75 89Q82 110 100 136T139 187T177 231Q188 244 188 252Q188 262 177 262Q165
262 143 246Q120 229 94 205T45 158T6 122Q3 119 0 119Q-5 119 -5 125Q-5 130 4 138Q48 176 77 207T134 261Q149 273 165 278T195 284Q219 284 235 270T251 231Q251 212 241 191Q230 166 212 142T176 94Q163 75 157 63T151 45Q151 37 159 37Q167 37 182 46T213
69Q224 79 232 87T245 100Q268 124 291 151T331 202Q344 219 351 228T368 247Q385 266 404 267Q415 267 429 263T458 245Q448 231 429 207T387 153T344 92T310 34T297 -13Q297 -27 305 -35Q309 -39 305 -39T299 -39ZM373 346Q335 346 301 362T241 401T203 437Q198
442 206 450T227 464T250 470Q258 470 259 467Q273 449 295 425T342 383T385 360Q395 358 395 353Q395 351 391 349T373 346Z" />
<glyph unicode="&#xfa;" glyph-name="uacute" horiz-adv-x="459" d="M299 -39Q286 -34 274 -21T261 24Q261 51 270 80T293 139Q267 106 237 74T176 22T119 1Q97 1 83 13T68 50Q68 68 75 89Q82 110 100 136T139 187T177 231Q188 244 188 252Q188 262 177 262Q165
262 143 246Q120 229 94 205T45 158T6 122Q3 119 0 119Q-5 119 -5 125Q-5 130 4 138Q48 176 77 207T134 261Q149 273 165 278T195 284Q219 284 235 270T251 231Q251 212 241 191Q230 166 212 142T176 94Q163 75 157 63T151 45Q151 37 159 37Q167 37 182 46T213
69Q224 79 232 87T245 100Q268 124 291 151T331 202Q344 219 351 228T368 247Q385 266 404 267Q415 267 429 263T458 245Q448 231 429 207T387 153T344 92T310 34T297 -13Q297 -27 305 -35Q309 -39 305 -39T299 -39ZM355 346Q333 346 335 352Q335 358 349 360Q369
364 400 382T465 425T519 467Q524 470 530 470Q540 470 550 464T565 450T563 437Q545 423 511 401T435 363T355 346Z" />
<glyph unicode="&#xfb;" glyph-name="ucircumflex" horiz-adv-x="459" d="M299 -39Q286 -34 274 -21T261 24Q261 51 270 80T293 139Q267 106 237 74T176 22T119 1Q97 1 83 13T68 50Q68 68 75 89Q82 110 100 136T139 187T177 231Q188 244 188 252Q188 262 177 262Q165
262 143 246Q120 229 94 205T45 158T6 122Q3 119 0 119Q-5 119 -5 125Q-5 130 4 138Q48 176 77 207T134 261Q149 273 165 278T195 284Q219 284 235 270T251 231Q251 212 241 191Q230 166 212 142T176 94Q163 75 157 63T151 45Q151 37 159 37Q167 37 182 46T213
69Q224 79 232 87T245 100Q268 124 291 151T331 202Q344 219 351 228T368 247Q385 266 404 267Q415 267 429 263T458 245Q448 231 429 207T387 153T344 92T310 34T297 -13Q297 -27 305 -35Q309 -39 305 -39T299 -39ZM208 361Q192 361 194 365Q194 370 209 372Q223
375 247 385T300 409T356 436T403 460Q408 463 417 463Q424 463 425 460Q433 448 442 429T462 393T488 373Q493 371 493 369Q493 362 471 362Q435 362 412 378T377 412Q339 394 291 378T208 361Z" />
<glyph unicode="&#xfc;" glyph-name="udieresis" horiz-adv-x="459" d="M299 -39Q286 -34 274 -21T261 24Q261 51 270 80T293 139Q267 106 237 74T176 22T119 1Q97 1 83 13T68 50Q68 68 75 89Q82 110 100 136T139 187T177 231Q188 244 188 252Q188 262 177 262Q165
262 143 246Q120 229 94 205T45 158T6 122Q3 119 0 119Q-5 119 -5 125Q-5 130 4 138Q48 176 77 207T134 261Q149 273 165 278T195 284Q219 284 235 270T251 231Q251 212 241 191Q230 166 212 142T176 94Q163 75 157 63T151 45Q151 37 159 37Q167 37 182 46T213
69Q224 79 232 87T245 100Q268 124 291 151T331 202Q344 219 351 228T368 247Q385 266 404 267Q415 267 429 263T458 245Q448 231 429 207T387 153T344 92T310 34T297 -13Q297 -27 305 -35Q309 -39 305 -39T299 -39ZM412 370Q405 370 401 376T396 390Q396 406 409
419T440 441T471 449Q480 449 480 439Q480 427 466 409Q459 400 444 385T412 370ZM286 370Q279 370 275 376T270 390Q270 406 283 419T314 441T345 449Q354 449 354 439Q354 427 340 409Q333 400 318 385T286 370Z" />
<glyph unicode="&#xfd;" glyph-name="yacute" horiz-adv-x="444" d="M-68 -269Q-116 -269 -156 -255T-224 -209Q-251 -178 -260 -126Q-262 -118 -256 -118Q-252 -118 -250 -125Q-239 -181 -196 -216T-96 -251Q-44 -251 9 -224T112 -149T206 -41Q253 23 291 92T366
231Q353 212 339 192T311 155Q284 121 250 86T181 26T119 1Q97 1 83 13T68 50Q68 72 76 90T94 125Q111 153 135 182T177 231Q188 244 188 252Q188 262 177 262Q164 262 144 246Q120 229 95 206T48 161T12 128Q5 123 2 123Q-2 123 -2 127Q-2 133 5 139Q25 156 47
179T92 224T134 261Q149 273 165 278T195 284Q219 284 235 270T252 231Q252 212 242 191Q230 166 212 142T176 94Q163 75 157 63T151 46Q151 37 159 37Q167 37 182 46T214 69Q241 94 273 130T337 207T391 281Q405 314 421 339T462 364Q476 364 484 356T493 340Q493
333 487 329T467 325Q456 327 442 321T413 283Q397 247 383 199T348 96T296 -17T209 -133Q156 -189 84 -229T-68 -269ZM316 366Q294 366 296 372Q296 378 310 380Q330 384 361 402T426 445T480 487Q485 490 491 490Q501 490 511 484T526 470T524 457Q506 443 472
421T396 383T316 366Z" />
<glyph unicode="&#xfe;" glyph-name="thorn" horiz-adv-x="398" d="M-109 -278Q-120 -268 -130 -253T-141 -212Q-141 -168 -117 -110T-52 17T41 155Q27 142 12 129T-12 109Q-16 106 -18 106Q-21 106 -21 110Q-21 112 -19 117T-10 127Q15 148 42 177T95 235T136
285Q165 323 197 370T261 472Q264 478 267 487T271 503Q271 513 263 513Q261 513 252 509T233 501T222 497Q214 497 223 506Q246 524 283 540T348 557Q390 557 390 530Q390 516 377 493Q366 475 341 443T285 372T227 300T184 242Q206 268 243 288T314 309Q344 309
362 290T380 240Q380 206 361 166T310 87Q271 41 224 12T137 -17Q109 -17 92 -1T75 48Q75 63 79 80T91 115Q57 59 22 2T-42 -106T-89 -199T-107 -263Q-107 -271 -105 -273Q-102 -277 -104 -278T-109 -278ZM132 -8Q158 -8 191 14T251 78Q271 109 280 138T289 189Q289
216 277 231T245 246Q219 246 186 224T126 159Q106 129 97 100T87 48Q87 -8 132 -8Z" />
<glyph unicode="&#xff;" glyph-name="ydieresis" horiz-adv-x="444" d="M-68 -269Q-116 -269 -156 -255T-224 -209Q-251 -178 -260 -126Q-262 -118 -256 -118Q-252 -118 -250 -125Q-239 -181 -196 -216T-96 -251Q-44 -251 9 -224T112 -149T206 -41Q253 23 291
92T366 231Q353 212 339 192T311 155Q284 121 250 86T181 26T119 1Q97 1 83 13T68 50Q68 72 76 90T94 125Q111 153 135 182T177 231Q188 244 188 252Q188 262 177 262Q164 262 144 246Q120 229 95 206T48 161T12 128Q5 123 2 123Q-2 123 -2 127Q-2 133 5 139Q25
156 47 179T92 224T134 261Q149 273 165 278T195 284Q219 284 235 270T252 231Q252 212 242 191Q230 166 212 142T176 94Q163 75 157 63T151 46Q151 37 159 37Q167 37 182 46T214 69Q241 94 273 130T337 207T391 281Q405 314 421 339T462 364Q476 364 484 356T493
340Q493 333 487 329T467 325Q456 327 442 321T413 283Q397 247 383 199T348 96T296 -17T209 -133Q156 -189 84 -229T-68 -269ZM373 390Q366 390 362 396T357 410Q357 426 370 439T401 461T432 469Q441 469 441 459Q441 447 427 429Q420 420 405 405T373 390ZM247
390Q240 390 236 396T231 410Q231 426 244 439T275 461T306 469Q315 469 315 459Q315 447 301 429Q294 420 279 405T247 390Z" />
<glyph unicode="&#x2013;" glyph-name="endash" horiz-adv-x="515" d="M135 163Q129 163 129 178Q129 190 133 203T144 217Q185 221 222 223T294 225Q356 225 402 220T471 209Q478 208 478 200Q478 195 474 190T462 185Q416 188 376 188Q304 188 248 180T136 163H135Z" />
<glyph unicode="&#x2014;" glyph-name="emdash" horiz-adv-x="760" d="M135 163Q129 163 129 178Q129 190 133 203T144 217Q185 221 243 223T365 225Q423 225 480 224T586 220T670 215T716 209Q723 208 723 200Q723 195 719 190T707 185Q661 188 592 188Q532 188
464 186T332 180T216 172T136 163H135Z" />
<glyph unicode="&#x2018;" glyph-name="quoteleft" horiz-adv-x="228" d="M198 338Q188 338 179 342T165 356Q160 364 160 377Q160 398 172 424T206 475T254 517T312 536Q317 536 318 530T314 522Q284 519 258 500T216 457T200 413Q207 423 219 430T244 437Q258
437 267 428Q275 421 275 408Q275 398 269 386T251 362Q229 338 198 338Z" />
<glyph unicode="&#x2019;" glyph-name="quoteright" horiz-adv-x="228" d="M166 338Q162 338 161 344T164 352Q194 355 220 374T262 417T278 461Q271 451 259 444T234 437Q220 437 211 446Q203 453 203 466Q203 477 209 489T227 512Q249 536 280 536Q290 536 299
532T313 518Q318 511 318 497Q318 476 306 450T272 399T224 357T166 338Z" />
<glyph unicode="&#x201a;" glyph-name="quotesinglbase" horiz-adv-x="207" d="M-33 -100Q-37 -100 -38 -94T-35 -86Q-5 -83 21 -64T63 -21T79 23Q72 13 60 6T35 -1Q21 -1 12 8Q4 15 4 28Q4 39 10 51T28 74Q50 98 81 98Q91 98 100 94T114 80Q119 73 119 59Q119
38 107 12T73 -39T25 -81T-33 -100Z" />
<glyph unicode="&#x201c;" glyph-name="quotedblleft" horiz-adv-x="381" d="M351 338Q341 338 332 342T318 356Q313 364 313 377Q313 398 325 424T359 475T407 517T465 536Q470 536 471 530T467 522Q437 519 411 500T369 457T353 413Q360 423 372 430T397 437Q411
437 420 428Q428 421 428 408Q428 398 422 386T404 362Q382 338 351 338ZM198 338Q188 338 179 342T165 356Q160 364 160 377Q160 398 172 424T206 475T254 517T312 536Q317 536 318 530T314 522Q284 519 258 500T216 457T200 413Q207 423 219 430T244 437Q258
437 267 428Q275 421 275 408Q275 398 269 386T251 362Q229 338 198 338Z" />
<glyph unicode="&#x201d;" glyph-name="quotedblright" horiz-adv-x="381" d="M166 338Q162 338 161 344T164 352Q194 355 220 374T262 417T278 461Q271 451 259 444T234 437Q220 437 211 446Q203 453 203 466Q203 477 209 489T227 512Q249 536 280 536Q290 536
299 532T313 518Q318 511 318 497Q318 476 306 450T272 399T224 357T166 338ZM319 338Q315 338 314 344T317 352Q347 355 373 374T415 417T431 461Q424 451 412 444T387 437Q373 437 364 446Q356 453 356 466Q356 477 362 489T380 512Q402 536 433 536Q443 536
452 532T466 518Q471 511 471 497Q471 476 459 450T425 399T377 357T319 338Z" />
<glyph unicode="&#x201e;" glyph-name="quotedblbase" horiz-adv-x="360" d="M120 -100Q116 -100 115 -94T118 -86Q148 -83 174 -64T216 -21T232 23Q225 13 213 6T188 -1Q174 -1 165 8Q157 15 157 28Q157 39 163 51T181 74Q203 98 234 98Q244 98 253 94T267 80Q272
73 272 59Q272 38 260 12T226 -39T178 -81T120 -100ZM-33 -100Q-37 -100 -38 -94T-35 -86Q-5 -83 21 -64T63 -21T79 23Q72 13 60 6T35 -1Q21 -1 12 8Q4 15 4 28Q4 39 10 51T28 74Q50 98 81 98Q91 98 100 94T114 80Q119 73 119 59Q119 38 107 12T73 -39T25 -81T-33
-100Z" />
<glyph unicode="&#x2022;" glyph-name="bullet" horiz-adv-x="501" d="M272 13Q218 13 173 40T101 112T74 212Q74 267 101 312T173 384T272 411Q327 411 372 384T444 312T471 212Q471 157 444 112T372 40T272 13Z" />
<glyph unicode="&#x2039;" glyph-name="guilsinglleft" horiz-adv-x="301" d="M167 22Q166 22 166 23Q166 26 171 34Q179 47 179 63Q179 89 163 117T120 166T64 186Q41 186 41 189Q41 192 55 201Q61 205 67 208T78 215Q105 232 136 253T197 297T247 341T277 379Q279
384 287 387T302 391Q311 391 308 385Q297 360 269 332T203 277T126 225Q143 218 163 199T198 153T213 98Q213 84 208 70T191 42Q174 22 167 22Z" />
<glyph unicode="&#x203a;" glyph-name="guilsinglright" horiz-adv-x="301" d="M24 14Q15 14 18 20Q30 45 58 72T124 127T201 179Q185 187 165 206T129 251T114 306Q114 321 119 335T136 363Q153 383 160 383Q161 383 161 382Q161 379 156 371Q148 358 148 342Q148
317 164 288T207 239T263 219Q286 219 286 215Q286 212 271 203Q266 199 260 196T249 190Q222 174 191 153T130 108T80 64T50 26Q48 21 40 18T24 14Z" />
</font>
</defs>
</svg>
