<?xml version="1.0" standalone="no"?>
<!DOCTYPE svg PUBLIC "-//W3C//DTD SVG 1.1//EN" "http://www.w3.org/Graphics/SVG/1.1/DTD/svg11.dtd">
<svg xmlns="http://www.w3.org/2000/svg">
<defs >
<font id="DotGothic16" horiz-adv-x="966" ><font-face
    font-family="DotGothic16"
    units-per-em="1000"
    panose-1="2 2 9 0 0 0 0 0 0 0"
    ascent="1160"
    descent="-288"
    alphabetic="0" />
<glyph unicode=" " glyph-name="space" horiz-adv-x="500" />
<glyph unicode="!" glyph-name="exclam" horiz-adv-x="500" d="M213 787H286V159H213V787ZM213 107H286V-28H213V107Z" />
<glyph unicode="&quot;" glyph-name="quotedbl" horiz-adv-x="500" d="M152 849H224V591H152V849ZM275 849H348V591H275V849Z" />
<glyph unicode="#" glyph-name="numbersign" horiz-adv-x="500" d="M91 159H28V231H91V355H153V468H91V540H153V787H225V540H338V787H410V540H472V468H410V344H349V231H410V159H349V-28H276V159H163V-28H91V159ZM276 231V355H338V468H225V344H163V231H276Z" />
<glyph unicode="$" glyph-name="dollar" horiz-adv-x="500" d="M28 231H102V46H214V406H91V468H28V726H91V787H214V849H287V787H410V726H472V591H400V715H287V417H410V355H472V35H410V-28H287V-90H214V-28H91V35H28V231ZM214 478V715H102V478H214ZM400 46V344H287V46H400Z"
/>
<glyph unicode="%" glyph-name="percent" horiz-adv-x="500" d="M2 46H64V169H125V293H184V344H64V406H2V726H64V787H195V726H256V478H306V602H367V726H426V787H498V715H437V591H376V468H317V417H437V355H498V35H437V-28H306V35H245V282H195V159H134V35H75V-28H2V46ZM184
417V715H75V417H184ZM245 355V406H195V355H245ZM426 46V344H317V46H426Z" />
<glyph unicode="&amp;" glyph-name="ampersand" horiz-adv-x="500" d="M64 35H2V293H64V355H125V468H64V726H125V787H376V726H437V529H376V468H317V406H256V293H317V231H376V169H426V293H498V159H437V46H498V-28H426V35H376V-28H64V35ZM245 417V478H306V540H367V715H134V478H195V417H245ZM367
46V159H306V220H245V282H184V344H134V282H75V46H367Z" />
<glyph unicode="&apos;" glyph-name="quotesingle" horiz-adv-x="500" d="M213 849H286V591H213V849Z" />
<glyph unicode="(" glyph-name="parenleft" horiz-adv-x="500" d="M310 159H248V602H310V787H372V849H444V777H382V591H321V169H382V-16H444V-90H372V-28H310V159Z" />
<glyph unicode=")" glyph-name="parenright" horiz-adv-x="500" d="M125 -16V169H186V591H125V777H63V849H135V787H197V602H259V159H197V-28H135V-90H63V-16H125Z" />
<glyph unicode="*" glyph-name="asterisk" horiz-adv-x="500" d="M28 478H91V540H153V653H91V715H28V787H102V726H163V664H214V787H287V664H338V726H400V787H472V715H410V653H349V540H410V478H472V406H400V468H338V529H287V406H214V529H163V468H102V406H28V478Z" />
<glyph unicode="+" glyph-name="plus" horiz-adv-x="500" d="M214 220H28V293H214V540H287V293H472V220H287V-28H214V220Z" />
<glyph unicode="," glyph-name="comma" horiz-adv-x="500" d="M125 -16V35H63V169H197V-28H135V-90H63V-16H125Z" />
<glyph unicode="-" glyph-name="hyphen" horiz-adv-x="500" d="M59 293H440V220H59V293Z" />
<glyph unicode="." glyph-name="period" horiz-adv-x="500" d="M63 169H197V35H63V169Z" />
<glyph unicode="/" glyph-name="slash" horiz-adv-x="500" d="M28 107H90V231H151V355H213V478H275V602H337V726H398V849H471V715H409V591H347V468H286V344H224V220H162V97H100V-28H28V107Z" />
<glyph unicode="0" glyph-name="zero" horiz-adv-x="500" d="M91 97H28V664H91V726H153V787H349V726H410V664H472V97H410V35H349V-28H153V35H91V97ZM163 107V46H338V107H400V653H338V715H163V653H102V107H163Z" />
<glyph unicode="1" glyph-name="one" horiz-adv-x="500" d="M275 715H152V787H348V-28H275V715Z" />
<glyph unicode="2" glyph-name="two" horiz-adv-x="500" d="M28 231H91V293H153V355H276V417H338V478H400V653H338V715H163V653H102V468H28V664H91V726H153V787H349V726H410V664H472V468H410V406H349V344H287V282H163V220H102V46H472V-28H28V231Z" />
<glyph unicode="3" glyph-name="three" horiz-adv-x="500" d="M91 97H28V231H102V107H163V46H338V107H400V282H338V344H153V417H338V478H400V653H338V715H163V653H102V529H28V664H91V726H153V787H349V726H410V664H472V468H410V406H349V355H410V293H472V97H410V35H349V-28H153V35H91V97Z"
/>
<glyph unicode="4" glyph-name="four" horiz-adv-x="500" d="M2 169H64V231H125V355H184V478H245V602H306V726H367V787H437V169H498V97H437V-28H367V97H2V169ZM367 169V591H317V468H256V344H195V220H134V169H367Z" />
<glyph unicode="5" glyph-name="five" horiz-adv-x="500" d="M91 97H28V169H102V107H163V46H338V107H400V344H338V406H163V344H102V282H28V787H410V715H102V417H153V478H349V417H410V355H472V97H410V35H349V-28H153V35H91V97Z" />
<glyph unicode="6" glyph-name="six" horiz-adv-x="500" d="M91 97H28V664H91V726H153V787H349V726H410V664H472V529H400V653H338V715H163V653H102V417H153V478H349V417H410V355H472V97H410V35H349V-28H153V35H91V97ZM163 107V46H338V107H400V344H338V406H163V344H102V107H163Z"
/>
<glyph unicode="7" glyph-name="seven" horiz-adv-x="500" d="M153 169H214V355H276V540H338V664H400V715H28V787H472V653H410V529H349V344H287V159H225V-28H153V169Z" />
<glyph unicode="8" glyph-name="eight" horiz-adv-x="500" d="M91 97H28V293H91V355H153V406H91V468H28V664H91V726H153V787H349V726H410V664H472V468H410V406H349V355H410V293H472V97H410V35H349V-28H153V35H91V97ZM338 417V478H400V653H338V715H163V653H102V478H163V417H338ZM163
107V46H338V107H400V282H338V344H163V282H102V107H163Z" />
<glyph unicode="9" glyph-name="nine" horiz-adv-x="500" d="M91 97H28V169H102V107H163V46H338V107H400V282H349V220H153V282H91V344H28V664H91V726H153V787H349V726H410V664H472V97H410V35H349V-28H153V35H91V97ZM338 293V355H400V653H338V715H163V653H102V355H163V293H338Z"
/>
<glyph unicode=":" glyph-name="colon" horiz-adv-x="500" d="M182 540H317V406H182V540ZM182 169H317V35H182V169Z" />
<glyph unicode=";" glyph-name="semicolon" horiz-adv-x="500" d="M182 540H317V406H182V540ZM244 -16V35H182V169H317V-28H255V-90H182V-16H244Z" />
<glyph unicode="&lt;" glyph-name="less" horiz-adv-x="500" d="M91 220H28V293H91V355H214V417H276V478H400V540H472V468H410V406H287V344H225V282H102V231H225V169H287V107H410V46H472V-28H400V35H276V97H214V159H91V220Z" />
<glyph unicode="=" glyph-name="equal" horiz-adv-x="500" d="M59 417H440V344H59V417ZM59 169H440V97H59V169Z" />
<glyph unicode="&gt;" glyph-name="greater" horiz-adv-x="500" d="M28 46H91V107H214V169H276V231H400V282H276V344H214V406H91V468H28V540H102V478H225V417H287V355H410V293H472V220H410V159H287V97H225V35H102V-28H28V46Z" />
<glyph unicode="?" glyph-name="question" horiz-adv-x="500" d="M184 355H245V417H367V478H426V653H367V715H134V653H75V529H2V664H64V726H125V787H376V726H437V664H498V468H437V406H376V344H256V159H184V355ZM184 107H317V-28H184V107Z" />
<glyph unicode="@" glyph-name="at" horiz-adv-x="500" d="M64 97H2V540H64V664H125V726H184V787H376V726H437V664H498V220H437V159H367V220H317V159H184V220H125V529H75V107H134V46H437V-28H125V35H64V97ZM184 540V602H317V540H367V602H426V653H367V715H195V653H134V540H184ZM306
231V529H195V231H306ZM426 231V529H376V231H426Z" />
<glyph unicode="A" glyph-name="A" horiz-adv-x="500" d="M28 169H91V417H153V602H214V787H287V602H349V417H410V169H472V-28H400V159H102V-28H28V169ZM338 231V406H276V591H225V406H163V231H338Z" />
<glyph unicode="B" glyph-name="B" horiz-adv-x="500" d="M28 787H349V726H410V664H472V468H410V406H349V355H410V293H472V97H410V35H349V-28H28V787ZM338 417V478H400V653H338V715H102V417H338ZM338 46V107H400V282H338V344H102V46H338Z" />
<glyph unicode="C" glyph-name="C" horiz-adv-x="500" d="M91 97H28V664H91V726H153V787H349V726H410V664H472V529H400V653H338V715H163V653H102V107H163V46H338V107H400V293H472V97H410V35H349V-28H153V35H91V97Z" />
<glyph unicode="D" glyph-name="D" horiz-adv-x="500" d="M28 787H349V726H410V664H472V97H410V35H349V-28H28V787ZM338 46V107H400V653H338V715H102V46H338Z" />
<glyph unicode="E" glyph-name="E" horiz-adv-x="500" d="M28 787H472V715H102V417H410V344H102V46H472V-28H28V787Z" />
<glyph unicode="F" glyph-name="F" horiz-adv-x="500" d="M28 787H472V715H102V417H410V344H102V-28H28V787Z" />
<glyph unicode="G" glyph-name="G" horiz-adv-x="500" d="M91 97H28V664H91V726H153V787H349V726H410V664H472V529H400V653H338V715H163V653H102V107H163V46H338V107H400V344H214V417H472V97H410V35H349V-28H153V35H91V97Z" />
<glyph unicode="H" glyph-name="H" horiz-adv-x="500" d="M28 787H102V417H400V787H472V-28H400V344H102V-28H28V787Z" />
<glyph unicode="I" glyph-name="I" horiz-adv-x="500" d="M213 787H286V-28H213V787Z" />
<glyph unicode="J" glyph-name="J" horiz-adv-x="500" d="M91 97H28V293H102V107H163V46H338V107H400V787H472V97H410V35H349V-28H153V35H91V97Z" />
<glyph unicode="K" glyph-name="K" horiz-adv-x="500" d="M28 787H102V478H153V540H214V602H276V664H338V726H400V787H472V715H410V653H349V591H287V529H225V468H163V355H225V293H287V231H349V107H410V46H472V-28H400V35H338V97H276V220H214V282H153V344H102V-28H28V787Z" />
<glyph unicode="L" glyph-name="L" horiz-adv-x="500" d="M28 787H102V46H472V-28H28V787Z" />
<glyph unicode="M" glyph-name="M" horiz-adv-x="500" d="M28 787H102V664H163V478H225V231H276V478H338V664H400V787H472V-28H400V468H349V220H287V35H214V220H153V468H102V-28H28V787Z" />
<glyph unicode="N" glyph-name="N" horiz-adv-x="500" d="M28 787H102V664H163V540H225V417H287V293H349V169H400V787H472V-28H400V35H338V159H276V282H214V406H153V529H102V-28H28V787Z" />
<glyph unicode="O" glyph-name="O" horiz-adv-x="500" d="M91 97H28V664H91V726H153V787H349V726H410V664H472V97H410V35H349V-28H153V35H91V97ZM163 107V46H338V107H400V653H338V715H163V653H102V107H163Z" />
<glyph unicode="P" glyph-name="P" horiz-adv-x="500" d="M28 787H349V726H410V664H472V406H410V344H349V282H102V-28H28V787ZM338 355V417H400V653H338V715H102V355H338Z" />
<glyph unicode="Q" glyph-name="Q" horiz-adv-x="500" d="M91 97H28V664H91V726H153V787H349V726H410V664H472V97H410V-16H472V-90H338V-28H153V35H91V97ZM163 107V46H276V97H214V231H287V107H400V653H338V715H163V653H102V107H163Z" />
<glyph unicode="R" glyph-name="R" horiz-adv-x="500" d="M28 787H349V726H410V664H472V468H410V406H349V355H410V169H472V-28H400V159H338V344H102V-28H28V787ZM338 417V478H400V653H338V715H102V417H338Z" />
<glyph unicode="S" glyph-name="S" horiz-adv-x="500" d="M91 97H28V231H102V107H163V46H338V107H400V282H338V344H153V406H91V468H28V664H91V726H153V787H349V726H410V664H472V529H400V653H338V715H163V653H102V478H163V417H349V355H410V293H472V97H410V35H349V-28H153V35H91V97Z"
/>
<glyph unicode="T" glyph-name="T" horiz-adv-x="500" d="M214 653H28V726H472V653H287V-28H214V653Z" />
<glyph unicode="U" glyph-name="U" horiz-adv-x="500" d="M91 97H28V787H102V107H163V46H338V107H400V787H472V97H410V35H349V-28H153V35H91V97Z" />
<glyph unicode="V" glyph-name="V" horiz-adv-x="500" d="M153 282H91V529H28V787H102V540H163V293H225V107H276V293H338V540H400V787H472V529H410V282H349V97H287V-28H214V97H153V282Z" />
<glyph unicode="W" glyph-name="W" horiz-adv-x="500" d="M91 220H28V787H102V231H153V478H214V726H287V478H349V231H400V787H472V220H410V-28H338V220H276V468H225V220H163V-28H91V220Z" />
<glyph unicode="X" glyph-name="X" horiz-adv-x="500" d="M28 107H91V231H153V355H214V406H153V529H91V653H28V787H102V664H163V540H225V417H276V540H338V664H400V787H472V653H410V529H349V406H287V355H349V231H410V107H472V-28H400V97H338V220H276V344H225V220H163V97H102V-28H28V107Z"
/>
<glyph unicode="Y" glyph-name="Y" horiz-adv-x="500" d="M214 344H153V468H91V591H28V787H102V602H163V478H225V355H276V478H338V602H400V787H472V591H410V468H349V344H287V-28H214V344Z" />
<glyph unicode="Z" glyph-name="Z" horiz-adv-x="500" d="M28 107H91V231H153V355H214V478H276V602H338V715H28V787H472V715H410V591H349V468H287V344H225V220H163V97H102V46H472V-28H28V107Z" />
<glyph unicode="[" glyph-name="bracketleft" horiz-adv-x="500" d="M248 849H444V777H321V-16H444V-90H248V849Z" />
<glyph unicode="\" glyph-name="backslash" horiz-adv-x="500" d="M275 282H213V468H152V653H90V787H162V664H224V478H286V293H348V107H409V-28H337V97H275V282Z" />
<glyph unicode="]" glyph-name="bracketright" horiz-adv-x="500" d="M186 -16V777H63V849H259V-90H63V-16H186Z" />
<glyph unicode="^" glyph-name="asciicircum" horiz-adv-x="500" d="M59 540H121V664H182V787H317V664H378V540H440V406H368V529H306V653H193V529H131V406H59V540Z" />
<glyph unicode="_" glyph-name="underscore" horiz-adv-x="500" d="M498 -48V-120H2V-48H498Z" />
<glyph unicode="`" glyph-name="grave" horiz-adv-x="500" d="M248 653H186V715H125V849H197V787H259V664H321V591H248V653Z" />
<glyph unicode="a" glyph-name="a" horiz-adv-x="500" d="M28 231H91V293H338V468H102V344H28V478H91V540H349V478H410V46H472V-28H400V35H287V-28H91V35H28V231ZM276 46V107H338V220H102V46H276Z" />
<glyph unicode="b" glyph-name="b" horiz-adv-x="500" d="M28 726H102V478H153V540H349V478H410V417H472V97H410V35H349V-28H153V35H102V-28H28V726ZM163 107V46H338V107H400V406H338V468H163V406H102V107H163Z" />
<glyph unicode="c" glyph-name="c" horiz-adv-x="500" d="M91 97H28V417H91V478H153V540H349V478H410V417H472V344H400V406H338V468H163V406H102V107H163V46H338V107H400V169H472V97H410V35H349V-28H153V35H91V97Z" />
<glyph unicode="d" glyph-name="d" horiz-adv-x="500" d="M91 97H28V417H91V478H153V540H349V478H400V726H472V-28H400V35H349V-28H153V35H91V97ZM163 107V46H338V107H400V406H338V468H163V406H102V107H163Z" />
<glyph unicode="e" glyph-name="e" horiz-adv-x="500" d="M91 97H28V417H91V478H153V540H349V478H410V417H472V220H102V107H163V46H338V107H400V169H472V97H410V35H349V-28H153V35H91V97ZM400 293V406H338V468H163V406H102V293H400Z" />
<glyph unicode="f" glyph-name="f" horiz-adv-x="500" d="M184 468H59V540H184V726H245V787H441V715H256V540H441V468H256V-28H184V468Z" />
<glyph unicode="g" glyph-name="g" horiz-adv-x="500" d="M28 107H91V159H28V231H91V282H28V478H91V540H349V478H400V540H472V468H410V282H349V220H102V169H410V107H472V-28H410V-90H91V-28H28V107ZM338 293V468H102V293H338ZM400 -16V97H102V-16H400Z" />
<glyph unicode="h" glyph-name="h" horiz-adv-x="500" d="M28 726H102V478H153V540H349V478H410V417H472V-28H400V406H338V468H163V406H102V-28H28V726Z" />
<glyph unicode="i" glyph-name="i" horiz-adv-x="500" d="M213 726H286V591H213V726ZM213 540H286V-28H213V540Z" />
<glyph unicode="j" glyph-name="j" horiz-adv-x="500" d="M275 726H348V591H275V726ZM275 -16V540H348V-28H286V-90H152V-16H275Z" />
<glyph unicode="k" glyph-name="k" horiz-adv-x="500" d="M28 726H102V293H153V355H214V417H338V478H400V540H472V468H410V406H349V344H225V282H163V231H225V169H349V107H410V46H472V-28H400V35H338V97H214V159H153V220H102V-28H28V726Z" />
<glyph unicode="l" glyph-name="l" horiz-adv-x="500" d="M213 726H286V-28H213V726Z" />
<glyph unicode="m" glyph-name="m" horiz-adv-x="500" d="M28 540H102V478H153V540H225V478H338V540H410V478H472V-28H400V468H349V406H287V-28H214V468H163V406H102V-28H28V540Z" />
<glyph unicode="n" glyph-name="n" horiz-adv-x="500" d="M28 540H102V478H153V540H349V478H410V417H472V-28H400V406H338V468H163V406H102V-28H28V540Z" />
<glyph unicode="o" glyph-name="o" horiz-adv-x="500" d="M91 97H28V417H91V478H153V540H349V478H410V417H472V97H410V35H349V-28H153V35H91V97ZM163 107V46H338V107H400V406H338V468H163V406H102V107H163Z" />
<glyph unicode="p" glyph-name="p" horiz-adv-x="500" d="M28 540H102V478H153V540H349V478H410V417H472V159H410V97H349V35H153V97H102V-90H28V540ZM338 107V169H400V406H338V468H163V406H102V169H163V107H338Z" />
<glyph unicode="q" glyph-name="q" horiz-adv-x="500" d="M91 159H28V417H91V478H153V540H349V478H400V540H472V-90H400V97H349V35H153V97H91V159ZM338 107V169H400V406H338V468H163V406H102V169H163V107H338Z" />
<glyph unicode="r" glyph-name="r" horiz-adv-x="500" d="M90 540H162V478H213V540H409V468H224V406H162V-28H90V540Z" />
<glyph unicode="s" glyph-name="s" horiz-adv-x="500" d="M28 169H102V46H400V220H91V282H28V478H91V540H410V478H472V344H400V468H102V293H410V231H472V35H410V-28H91V35H28V169Z" />
<glyph unicode="t" glyph-name="t" horiz-adv-x="500" d="M184 468H59V540H184V726H256V540H441V468H256V46H441V-28H245V35H184V468Z" />
<glyph unicode="u" glyph-name="u" horiz-adv-x="500" d="M91 97H28V540H102V107H163V46H338V107H400V540H472V-28H400V35H349V-28H153V35H91V97Z" />
<glyph unicode="v" glyph-name="v" horiz-adv-x="500" d="M153 220H91V344H28V540H102V355H163V231H225V107H276V231H338V355H400V540H472V344H410V220H349V97H287V-28H214V97H153V220Z" />
<glyph unicode="w" glyph-name="w" horiz-adv-x="500" d="M91 159H28V540H102V169H153V355H214V540H287V355H349V169H400V540H472V159H410V-28H338V159H276V344H225V159H163V-28H91V159Z" />
<glyph unicode="x" glyph-name="x" horiz-adv-x="500" d="M28 46H91V169H153V231H214V282H153V344H91V468H28V540H102V478H163V355H225V293H276V355H338V478H400V540H472V468H410V344H349V282H287V231H349V169H410V46H472V-28H400V35H338V159H276V220H225V159H163V35H102V-28H28V46Z"
/>
<glyph unicode="y" glyph-name="y" horiz-adv-x="500" d="M214 -16V97H153V220H91V406H28V540H102V417H163V231H225V107H276V231H338V417H400V540H472V406H410V220H349V97H287V-28H225V-90H28V-16H214Z" />
<glyph unicode="z" glyph-name="z" horiz-adv-x="500" d="M28 107H91V169H153V231H214V293H276V355H338V417H400V468H28V540H472V406H410V344H349V282H287V220H225V159H163V97H102V46H472V-28H28V107Z" />
<glyph unicode="{" glyph-name="braceleft" horiz-adv-x="500" d="M248 344H186V417H248V787H310V849H444V777H321V406H259V355H321V-16H444V-90H310V-28H248V344Z" />
<glyph unicode="|" glyph-name="bar" horiz-adv-x="500" d="M213 787H286V-90H213V787Z" />
<glyph unicode="}" glyph-name="braceright" horiz-adv-x="500" d="M186 -16V355H248V406H186V777H63V849H197V787H259V417H321V344H259V-28H197V-90H63V-16H186Z" />
<glyph unicode="~" glyph-name="asciitilde" horiz-adv-x="500" d="M59 293H121V355H255V293H368V355H440V282H378V220H244V282H131V220H59V293Z" />
<glyph unicode="&#xa0;" glyph-name="uni00A0" horiz-adv-x="500" />
<glyph unicode="&#xa1;" glyph-name="exclamdown" horiz-adv-x="500" d="M213 664H286V529H213V664ZM213 478H286V-90H213V478Z" />
<glyph unicode="&#xa2;" glyph-name="cent" horiz-adv-x="500" d="M28 46H91V159H28V540H91V602H153V664H400V726H472V653H410V602H472V406H400V529H349V406H287V220H225V107H338V169H400V293H472V159H410V97H349V35H102V-28H28V46ZM153 169V231H214V417H276V540H338V591H163V529H102V169H153Z"
/>
<glyph unicode="&#xa3;" glyph-name="sterling" horiz-adv-x="500" d="M2 46H64V169H125V344H2V417H125V468H64V664H125V726H184V787H376V726H437V664H498V591H426V653H367V715H195V653H134V478H195V417H376V344H195V159H134V46H426V231H498V35H437V-28H2V46Z" />
<glyph unicode="&#xa4;" glyph-name="currency" horiz-adv-x="500" d="M2 46H64V97H2V355H64V406H2V478H75V417H125V478H376V417H426V478H498V406H437V355H498V97H437V46H498V-28H426V35H376V-28H125V35H75V-28H2V46ZM367 46V107H426V344H367V406H134V344H75V107H134V46H367Z"
/>
<glyph unicode="&#xa5;" glyph-name="yen" horiz-adv-x="500" d="M28 231H214V344H28V417H153V529H91V653H28V787H102V664H163V540H225V417H276V540H338V664H400V787H472V653H410V529H349V417H472V344H287V231H472V159H287V-28H214V159H28V231Z" />
<glyph unicode="&#xa6;" glyph-name="brokenbar" horiz-adv-x="500" d="M213 818H286V499H213V818ZM213 262H286V-59H213V262Z" />
<glyph unicode="&#xa7;" glyph-name="section" horiz-adv-x="500" d="M64 35H2V169H75V46H134V-16H367V46H426V159H367V220H125V282H64V344H2V540H64V591H2V787H64V849H376V787H437V653H367V777H75V602H376V540H437V478H498V282H437V231H498V35H437V-28H376V-90H125V-28H64V35ZM426
293V468H367V529H75V355H134V293H426Z" />
<glyph unicode="&#xa8;" glyph-name="dieresis" horiz-adv-x="500" d="M59 787H193V653H59V787ZM306 787H440V653H306V787Z" />
<glyph unicode="&#xa9;" glyph-name="copyright" horiz-adv-x="500" d="M125 97H64V159H2V417H64V478H125V540H376V478H437V417H498V159H437V97H376V35H125V97ZM367 107V169H426V406H367V468H134V406H75V169H134V107H367ZM184 220H125V355H184V417H317V344H195V231H317V159H184V220Z"
/>
<glyph unicode="&#xaa;" glyph-name="ordfeminine" horiz-adv-x="500" d="M152 529H90V602H152V653H90V726H152V787H286V726H348V540H409V468H337V529H286V468H152V529ZM275 664V715H162V664H275ZM275 540V591H162V540H275Z" />
<glyph unicode="&#xab;" glyph-name="guillemotleft" horiz-adv-x="500" d="M125 159H64V220H2V293H64V355H125V417H184V478H245V540H317V468H256V406H195V344H134V282H75V231H134V169H195V107H256V46H317V-28H245V35H184V97H125V159ZM245 220H184V293H245V355H306V417H367V478H426V540H498V468H437V406H376V344H317V282H256V231H317V169H376V107H437V46H498V-28H426V35H367V97H306V159H245V220Z"
/>
<glyph unicode="&#xac;" glyph-name="logicalnot" horiz-adv-x="500" d="M28 355H472V97H400V282H28V355Z" />
<glyph unicode="&#xad;" glyph-name="uni00AD" horiz-adv-x="500" d="M2 293H498V220H2V293Z" />
<glyph unicode="&#xae;" glyph-name="registered" horiz-adv-x="500" d="M125 97H64V159H2V417H64V478H125V540H376V478H437V417H498V159H437V97H376V35H125V97ZM376 231V169H426V406H367V468H134V417H317V355H376V282H317V231H376ZM125 169V406H75V169H125ZM306
293V344H195V293H306ZM367 107V159H306V220H195V159H134V107H367Z" />
<glyph unicode="&#xaf;" glyph-name="overscore" horiz-adv-x="500" d="M59 726H440V653H59V726Z" />
<glyph unicode="&#xb0;" glyph-name="degree" horiz-adv-x="500" d="M152 529H90V726H152V787H348V726H409V529H348V468H152V529ZM337 540V715H162V540H337Z" />
<glyph unicode="&#xb1;" glyph-name="plusminus" horiz-adv-x="500" d="M214 282H28V355H214V540H287V355H472V282H287V97H214V282ZM28 46H472V-28H28V46Z" />
<glyph unicode="&#xb2;" glyph-name="uni00B2" horiz-adv-x="500" d="M90 478H152V540H213V602H337V715H162V591H90V726H152V787H348V726H409V591H348V529H224V468H162V417H409V344H90V478Z" />
<glyph unicode="&#xb3;" glyph-name="uni00B3" horiz-adv-x="500" d="M152 406H90V478H162V417H337V529H152V602H337V715H162V653H90V726H152V787H348V726H409V591H348V540H409V406H348V344H152V406Z" />
<glyph unicode="&#xb4;" glyph-name="acute" horiz-adv-x="500" d="M152 664H214V787H348V715H287V653H225V591H152V664Z" />
<glyph unicode="&#xb5;" glyph-name="uni00B5" horiz-adv-x="500" d="M75 -120H2V571H75V138H134V77H367V138H426V571H498V3H426V66H376V3H125V66H75V-120Z" />
<glyph unicode="&#xb6;" glyph-name="paragraph" horiz-adv-x="500" d="M214 406H91V468H28V726H91V787H472V-90H400V715H287V-90H214V406Z" />
<glyph unicode="&#xb7;" glyph-name="middot" horiz-adv-x="500" d="M182 355H317V220H182V355Z" />
<glyph unicode="&#xb8;" glyph-name="cedilla" horiz-adv-x="500" d="M121 138H182V200H255V128H193V77H317V15H378V-59H317V-120H121V-48H306V3H121V138Z" />
<glyph unicode="&#xb9;" glyph-name="uni00B9" horiz-adv-x="500" d="M275 715H152V787H348V344H275V715Z" />
<glyph unicode="&#xba;" glyph-name="ordmasculine" horiz-adv-x="500" d="M182 529H121V726H182V787H317V726H378V529H317V468H182V529ZM306 540V715H193V540H306Z" />
<glyph unicode="&#xbb;" glyph-name="guillemotright" horiz-adv-x="500" d="M2 46H64V107H125V169H184V231H245V282H184V344H125V406H64V468H2V540H75V478H134V417H195V355H256V293H317V220H256V159H195V97H134V35H75V-28H2V46ZM184 46H245V107H306V169H367V231H426V282H367V344H306V406H245V468H184V540H256V478H317V417H376V355H437V293H498V220H437V159H376V97H317V35H256V-28H184V46Z"
/>
<glyph unicode="&#xbc;" glyph-name="onequarter" horiz-adv-x="500" d="M2 46H64V169H125V293H184V344H125V715H2V787H195V417H245V540H306V664H367V787H437V653H376V529H317V406H256V293H306V355H367V417H437V107H498V35H437V-28H367V35H184V159H134V35H75V-28H2V46ZM367
107V282H317V159H256V107H367ZM245 169V282H195V169H245Z" />
<glyph unicode="&#xbd;" glyph-name="onehalf" horiz-adv-x="500" d="M2 46H64V169H125V293H184V344H125V715H2V787H195V417H245V540H306V664H367V787H437V653H376V529H317V417H437V355H498V220H437V159H317V97H256V46H498V-28H184V107H245V169H306V231H426V344H256V220H195V159H134V35H75V-28H2V46Z"
/>
<glyph unicode="&#xbe;" glyph-name="threequarters" horiz-adv-x="500" d="M2 46H64V169H125V293H184V344H64V406H2V478H75V417H184V529H64V602H184V715H75V653H2V726H64V787H195V726H256V591H195V540H306V664H367V787H437V653H376V529H317V406H256V293H306V355H367V417H437V107H498V35H437V-28H367V35H184V159H134V35H75V-28H2V46ZM367
107V282H317V159H256V107H367ZM245 169V282H195V169H245Z" />
<glyph unicode="&#xbf;" glyph-name="questiondown" horiz-adv-x="500" d="M182 664H317V529H182V664ZM59 231H121V293H244V478H317V282H255V220H131V-16H368V169H440V-28H378V-90H121V-28H59V231Z" />
<glyph unicode="&#xc0;" glyph-name="Agrave" horiz-adv-x="500" d="M28 169H91V355H153V540H214V664H276V715H214V777H153V849H287V726H349V653H287V540H349V355H410V169H472V-28H400V159H102V-28H28V169ZM338 231V344H276V529H225V344H163V231H338Z" />
<glyph unicode="&#xc1;" glyph-name="Aacute" horiz-adv-x="500" d="M28 169H91V355H153V540H214V653H153V726H214V849H349V777H287V715H225V664H287V540H349V355H410V169H472V-28H400V159H102V-28H28V169ZM338 231V344H276V529H225V344H163V231H338Z" />
<glyph unicode="&#xc2;" glyph-name="Acircumflex" horiz-adv-x="500" d="M91 726H153V787H214V849H287V787H348V726H410V653H338V715H276V777H225V715H163V653H91V726ZM28 169H91V355H153V540H214V664H287V540H349V355H410V169H472V-28H400V159H102V-28H28V169ZM338
231V344H276V529H225V344H163V231H338Z" />
<glyph unicode="&#xc3;" glyph-name="Atilde" horiz-adv-x="500" d="M91 787H153V849H287V787H400V849H472V777H410V715H276V777H163V715H91V787ZM28 169H91V355H153V540H214V664H287V540H349V355H410V169H472V-28H400V159H102V-28H28V169ZM338 231V344H276V529H225V344H163V231H338Z"
/>
<glyph unicode="&#xc4;" glyph-name="Adieresis" horiz-adv-x="500" d="M91 849H225V715H91V849ZM338 849H472V715H338V849ZM28 169H91V355H153V540H214V664H287V540H349V355H410V169H472V-28H400V159H102V-28H28V169ZM338 231V344H276V529H225V344H163V231H338Z" />
<glyph unicode="&#xc5;" glyph-name="Aring" horiz-adv-x="500" d="M28 169H91V355H153V540H214V653H153V787H214V849H349V787H410V653H349V591H287V540H349V355H410V169H472V-28H400V159H102V-28H28V169ZM338 664V777H225V664H338ZM338 231V344H276V529H225V344H163V231H338Z"
/>
<glyph unicode="&#xc6;" glyph-name="AE" horiz-adv-x="500" d="M2 231H64V417H125V602H184V787H498V715H317V417H498V344H317V46H498V-28H245V220H75V-28H2V231ZM245 293V591H195V406H134V293H245Z" />
<glyph unicode="&#xc7;" glyph-name="Ccedilla" horiz-adv-x="500" d="M338 -16V35H214V97H153V159H91V220H28V664H91V726H153V787H349V726H410V664H472V529H400V653H338V715H163V653H102V231H163V169H338V231H400V417H472V220H410V159H349V46H410V-28H349V-90H153V-16H338Z"
/>
<glyph unicode="&#xc8;" glyph-name="Egrave" horiz-adv-x="500" d="M2 664H245V715H184V777H125V849H256V726H317V664H498V591H75V355H437V282H75V46H498V-28H2V664Z" />
<glyph unicode="&#xc9;" glyph-name="Eacute" horiz-adv-x="500" d="M2 664H184V726H245V849H376V777H317V715H256V664H498V591H75V355H437V282H75V46H498V-28H2V664Z" />
<glyph unicode="&#xca;" glyph-name="Ecircumflex" horiz-adv-x="500" d="M2 664H64V726H125V787H184V849H317V787H376V726H437V664H498V591H75V355H437V282H75V46H498V-28H2V664ZM367 664V715H306V777H195V715H134V664H367Z" />
<glyph unicode="&#xcb;" glyph-name="Edieresis" horiz-adv-x="500" d="M64 849H195V715H64V849ZM306 849H437V715H306V849ZM2 664H498V591H75V355H437V282H75V46H498V-28H2V664Z" />
<glyph unicode="&#xcc;" glyph-name="Igrave" horiz-adv-x="500" d="M213 664H275V715H213V777H152V849H286V726H348V653H286V-28H213V664Z" />
<glyph unicode="&#xcd;" glyph-name="Iacute" horiz-adv-x="500" d="M213 653H152V726H213V849H348V777H286V715H224V664H286V-28H213V653Z" />
<glyph unicode="&#xce;" glyph-name="Icircumflex" horiz-adv-x="500" d="M90 726H152V787H213V849H286V787H348V726H409V653H337V715H275V777H224V715H162V653H90V726ZM213 664H286V-28H213V664Z" />
<glyph unicode="&#xcf;" glyph-name="Idieresis" horiz-adv-x="500" d="M275 849H348V715H275V849ZM152 849H224V715H152V849ZM213 664H286V-28H213V664Z" />
<glyph unicode="&#xd0;" glyph-name="Eth" horiz-adv-x="500" d="M64 344H2V417H64V787H376V726H437V664H498V97H437V35H376V-28H64V344ZM367 46V107H426V653H367V715H134V417H256V344H134V46H367Z" />
<glyph unicode="&#xd1;" glyph-name="Ntilde" horiz-adv-x="500" d="M28 787H91V849H225V787H338V849H410V777H349V715H214V777H102V715H28V787ZM28 664H102V602H163V478H225V355H287V293H349V169H400V664H472V-28H400V35H338V159H276V282H214V344H153V468H102V-28H28V664Z"
/>
<glyph unicode="&#xd2;" glyph-name="Ograve" horiz-adv-x="500" d="M91 97H28V540H91V602H153V664H214V715H153V777H91V849H225V726H287V664H349V602H410V540H472V97H410V35H349V-28H153V35H91V97ZM163 107V46H338V107H400V529H338V591H163V529H102V107H163Z" />
<glyph unicode="&#xd3;" glyph-name="Oacute" horiz-adv-x="500" d="M91 97H28V540H91V602H153V726H214V849H349V777H287V715H225V664H349V602H410V540H472V97H410V35H349V-28H153V35H91V97ZM163 107V46H338V107H400V529H338V591H163V529H102V107H163Z" />
<glyph unicode="&#xd4;" glyph-name="Ocircumflex" horiz-adv-x="500" d="M91 97H28V540H91V602H153V664H338V715H276V777H163V715H102V653H28V726H91V787H153V849H287V787H349V726H410V653H349V602H410V540H472V97H410V35H349V-28H153V35H91V97ZM163 107V46H338V107H400V529H338V591H163V529H102V107H163Z"
/>
<glyph unicode="&#xd5;" glyph-name="Otilde" horiz-adv-x="500" d="M28 787H91V849H225V787H338V849H410V777H349V715H214V777H102V715H28V787ZM91 97H28V540H91V602H153V664H349V602H410V540H472V97H410V35H349V-28H153V35H91V97ZM163 107V46H338V107H400V529H338V591H163V529H102V107H163Z"
/>
<glyph unicode="&#xd6;" glyph-name="Odieresis" horiz-adv-x="500" d="M28 849H163V715H28V849ZM276 849H410V715H276V849ZM91 97H28V540H91V602H153V664H349V602H410V540H472V97H410V35H349V-28H153V35H91V97ZM163 107V46H338V107H400V529H338V591H163V529H102V107H163Z"
/>
<glyph unicode="&#xd7;" glyph-name="multiply" horiz-adv-x="500" d="M2 46H64V107H125V169H184V344H125V406H64V468H2V540H75V478H134V417H195V355H306V417H367V478H426V540H498V468H437V406H376V344H317V169H376V107H437V46H498V-28H426V35H367V97H306V159H195V97H134V35H75V-28H2V46Z"
/>
<glyph unicode="&#xd8;" glyph-name="Oslash" horiz-adv-x="500" d="M2 46H64V97H2V664H64V726H125V787H376V726H426V849H498V715H437V664H498V97H437V35H376V-28H125V35H75V-90H2V46ZM125 107V231H184V355H245V478H306V602H367V715H134V653H75V107H125ZM367 46V107H426V591H376V468H317V344H256V220H195V97H134V46H367Z"
/>
<glyph unicode="&#xd9;" glyph-name="Ugrave" horiz-adv-x="500" d="M276 715H214V777H153V849H287V726H349V653H276V715ZM91 97H28V664H102V107H163V46H338V107H400V664H472V97H410V35H349V-28H153V35H91V97Z" />
<glyph unicode="&#xda;" glyph-name="Uacute" horiz-adv-x="500" d="M153 726H214V849H349V777H287V715H225V653H153V726ZM91 97H28V664H102V107H163V46H338V107H400V664H472V97H410V35H349V-28H153V35H91V97Z" />
<glyph unicode="&#xdb;" glyph-name="Ucircumflex" horiz-adv-x="500" d="M91 787H153V849H287V787H349V715H276V777H163V715H91V787ZM91 97H28V664H102V107H163V46H338V107H400V664H472V97H410V35H349V-28H153V35H91V97Z" />
<glyph unicode="&#xdc;" glyph-name="Udieresis" horiz-adv-x="500" d="M28 849H163V715H28V849ZM276 849H410V715H276V849ZM91 97H28V664H102V107H163V46H338V107H400V664H472V97H410V35H349V-28H153V35H91V97Z" />
<glyph unicode="&#xdd;" glyph-name="Yacute" horiz-adv-x="500" d="M153 726H214V849H349V777H287V715H225V653H153V726ZM214 282H153V406H91V529H28V664H102V540H163V417H225V293H276V417H338V540H400V664H472V529H410V406H349V282H287V-28H214V282Z" />
<glyph unicode="&#xde;" glyph-name="Thorn" horiz-adv-x="500" d="M28 787H102V664H349V602H410V540H472V220H410V159H349V97H102V-28H28V787ZM338 169V231H400V529H338V591H102V169H338Z" />
<glyph unicode="&#xdf;" glyph-name="germandbls" horiz-adv-x="500" d="M28 664H91V726H153V787H349V726H410V664H472V468H410V406H349V355H410V293H472V97H410V35H349V-28H214V35H153V107H225V46H338V107H400V282H338V344H214V417H338V478H400V653H338V715H163V653H102V-28H28V664Z"
/>
<glyph unicode="&#xe0;" glyph-name="agrave" horiz-adv-x="500" d="M214 715H153V777H91V849H225V726H287V653H214V715ZM28 231H91V293H338V468H102V344H28V478H91V540H349V478H410V46H472V-28H400V35H287V-28H91V35H28V231ZM276 46V107H338V220H102V46H276Z" />
<glyph unicode="&#xe1;" glyph-name="aacute" horiz-adv-x="500" d="M153 726H214V849H349V777H287V715H225V653H153V726ZM28 231H91V293H338V468H102V344H28V478H91V540H349V478H410V46H472V-28H400V35H287V-28H91V35H28V231ZM276 46V107H338V220H102V46H276Z" />
<glyph unicode="&#xe2;" glyph-name="acircumflex" horiz-adv-x="500" d="M28 726H91V787H153V849H287V787H349V726H410V653H338V715H276V777H163V715H102V653H28V726ZM28 231H91V293H338V468H102V344H28V478H91V540H349V478H410V46H472V-28H400V35H287V-28H91V35H28V231ZM276
46V107H338V220H102V46H276Z" />
<glyph unicode="&#xe3;" glyph-name="atilde" horiz-adv-x="500" d="M28 726H91V787H225V726H338V787H410V715H349V653H214V715H102V653H28V726ZM28 231H91V293H338V468H102V344H28V478H91V540H349V478H410V46H472V-28H400V35H287V-28H91V35H28V231ZM276 46V107H338V220H102V46H276Z"
/>
<glyph unicode="&#xe4;" glyph-name="adieresis" horiz-adv-x="500" d="M28 787H163V653H28V787ZM276 787H410V653H276V787ZM28 231H91V293H338V468H102V344H28V478H91V540H349V478H410V46H472V-28H400V35H287V-28H91V35H28V231ZM276 46V107H338V220H102V46H276Z" />
<glyph unicode="&#xe5;" glyph-name="aring" horiz-adv-x="500" d="M153 653H91V787H153V849H287V787H349V653H287V591H153V653ZM276 664V777H163V664H276ZM28 231H91V293H338V468H102V344H28V478H91V540H349V478H410V46H472V-28H400V35H287V-28H91V35H28V231ZM276
46V107H338V220H102V46H276Z" />
<glyph unicode="&#xe6;" glyph-name="ae" horiz-adv-x="500" d="M64 35H2V231H64V293H184V468H75V406H2V478H64V540H195V478H245V540H437V478H498V220H256V46H426V107H498V35H437V-28H245V35H195V-28H64V35ZM426 293V468H256V293H426ZM184 46V220H75V46H184Z" />
<glyph unicode="&#xe7;" glyph-name="ccedilla" horiz-adv-x="500" d="M338 -16V35H214V97H153V159H91V220H28V540H91V602H153V664H349V602H410V540H472V468H400V529H338V591H163V529H102V231H163V169H338V231H400V293H472V220H410V159H349V46H410V-28H349V-90H153V-16H338Z"
/>
<glyph unicode="&#xe8;" glyph-name="egrave" horiz-adv-x="500" d="M276 715H214V777H153V849H287V726H349V653H276V715ZM91 97H28V417H91V478H153V540H349V478H410V417H472V220H102V107H163V46H338V107H400V169H472V97H410V35H349V-28H153V35H91V97ZM400 293V406H338V468H163V406H102V293H400Z"
/>
<glyph unicode="&#xe9;" glyph-name="eacute" horiz-adv-x="500" d="M153 726H214V849H349V777H287V715H225V653H153V726ZM91 97H28V417H91V478H153V540H349V478H410V417H472V220H102V107H163V46H338V107H400V169H472V97H410V35H349V-28H153V35H91V97ZM400 293V406H338V468H163V406H102V293H400Z"
/>
<glyph unicode="&#xea;" glyph-name="ecircumflex" horiz-adv-x="500" d="M28 726H91V787H153V849H287V787H349V726H410V653H338V715H276V777H163V715H102V653H28V726ZM91 97H28V417H91V478H153V540H349V478H410V417H472V220H102V107H163V46H338V107H400V169H472V97H410V35H349V-28H153V35H91V97ZM400
293V406H338V468H163V406H102V293H400Z" />
<glyph unicode="&#xeb;" glyph-name="edieresis" horiz-adv-x="500" d="M28 787H163V653H28V787ZM276 787H410V653H276V787ZM91 97H28V417H91V478H153V540H349V478H410V417H472V220H102V107H163V46H338V107H400V169H472V97H410V35H349V-28H153V35H91V97ZM400 293V406H338V468H163V406H102V293H400Z"
/>
<glyph unicode="&#xec;" glyph-name="igrave" horiz-adv-x="500" d="M275 715H213V777H152V849H286V726H348V653H275V715ZM213 540H286V-28H213V540Z" />
<glyph unicode="&#xed;" glyph-name="iacute" horiz-adv-x="500" d="M152 726H213V849H348V777H286V715H224V653H152V726ZM213 540H286V-28H213V540Z" />
<glyph unicode="&#xee;" glyph-name="icircumflex" horiz-adv-x="500" d="M90 726H152V787H213V849H286V787H348V726H409V653H337V715H275V777H224V715H162V653H90V726ZM213 540H286V-28H213V540Z" />
<glyph unicode="&#xef;" glyph-name="idieresis" horiz-adv-x="500" d="M275 787H348V653H275V787ZM152 787H224V653H152V787ZM213 540H286V-28H213V540Z" />
<glyph unicode="&#xf0;" glyph-name="eth" horiz-adv-x="500" d="M64 97H2V417H64V478H125V529H2V602H125V664H245V715H64V787H317V726H367V787H498V715H376V664H437V602H498V97H437V35H376V-28H125V35H64V97ZM376 540V478H426V591H367V653H317V591H134V540H376ZM367
46V107H426V406H367V468H134V406H75V107H134V46H367Z" />
<glyph unicode="&#xf1;" glyph-name="ntilde" horiz-adv-x="500" d="M28 726H91V787H225V726H338V787H410V715H349V653H214V715H102V653H28V726ZM28 540H102V478H153V540H349V478H410V417H472V-28H400V406H338V468H163V406H102V-28H28V540Z" />
<glyph unicode="&#xf2;" glyph-name="ograve" horiz-adv-x="500" d="M276 715H214V777H153V849H287V726H349V653H276V715ZM91 97H28V417H91V478H153V540H349V478H410V417H472V97H410V35H349V-28H153V35H91V97ZM163 107V46H338V107H400V406H338V468H163V406H102V107H163Z" />
<glyph unicode="&#xf3;" glyph-name="oacute" horiz-adv-x="500" d="M153 726H214V849H349V777H287V715H225V653H153V726ZM91 97H28V417H91V478H153V540H349V478H410V417H472V97H410V35H349V-28H153V35H91V97ZM163 107V46H338V107H400V406H338V468H163V406H102V107H163Z" />
<glyph unicode="&#xf4;" glyph-name="ocircumflex" horiz-adv-x="500" d="M28 726H91V787H153V849H287V787H349V726H410V653H338V715H276V777H163V715H102V653H28V726ZM91 97H28V417H91V478H153V540H349V478H410V417H472V97H410V35H349V-28H153V35H91V97ZM163
107V46H338V107H400V406H338V468H163V406H102V107H163Z" />
<glyph unicode="&#xf5;" glyph-name="otilde" horiz-adv-x="500" d="M91 726H153V787H287V726H400V787H472V715H410V653H276V715H163V653H91V726ZM91 97H28V417H91V478H153V540H349V478H410V417H472V97H410V35H349V-28H153V35H91V97ZM163 107V46H338V107H400V406H338V468H163V406H102V107H163Z"
/>
<glyph unicode="&#xf6;" glyph-name="odieresis" horiz-adv-x="500" d="M28 787H163V653H28V787ZM276 787H410V653H276V787ZM91 97H28V417H91V478H153V540H349V478H410V417H472V97H410V35H349V-28H153V35H91V97ZM163 107V46H338V107H400V406H338V468H163V406H102V107H163Z"
/>
<glyph unicode="&#xf7;" glyph-name="divide" horiz-adv-x="500" d="M184 540H317V406H184V540ZM2 293H498V220H2V293ZM184 107H317V-28H184V107Z" />
<glyph unicode="&#xf8;" glyph-name="oslash" horiz-adv-x="500" d="M28 46H91V97H28V417H91V478H153V540H349V478H400V540H472V468H410V417H472V97H410V35H349V-28H153V35H102V-28H28V46ZM153 107V231H214V293H276V417H338V468H163V406H102V107H153ZM338 46V107H400V406H349V282H287V220H225V97H163V46H338Z"
/>
<glyph unicode="&#xf9;" glyph-name="ugrave" horiz-adv-x="500" d="M276 715H214V777H153V849H287V726H349V653H276V715ZM91 97H28V540H102V107H163V46H338V107H400V540H472V-28H400V35H349V-28H153V35H91V97Z" />
<glyph unicode="&#xfa;" glyph-name="uacute" horiz-adv-x="500" d="M153 726H214V849H349V777H287V715H225V653H153V726ZM91 97H28V540H102V107H163V46H338V107H400V540H472V-28H400V35H349V-28H153V35H91V97Z" />
<glyph unicode="&#xfb;" glyph-name="ucircumflex" horiz-adv-x="500" d="M28 726H91V787H153V849H287V787H349V726H410V653H338V715H276V777H163V715H102V653H28V726ZM91 97H28V540H102V107H163V46H338V107H400V540H472V-28H400V35H349V-28H153V35H91V97Z" />
<glyph unicode="&#xfc;" glyph-name="udieresis" horiz-adv-x="500" d="M28 787H163V653H28V787ZM276 787H410V653H276V787ZM91 97H28V540H102V107H163V46H338V107H400V540H472V-28H400V35H349V-28H153V35H91V97Z" />
<glyph unicode="&#xfd;" glyph-name="yacute" horiz-adv-x="500" d="M125 757H184V880H317V808H256V746H195V684H125V757ZM125 -48V15H184V190H125V313H64V437H2V571H75V448H134V324H195V200H306V324H367V448H426V571H498V437H437V313H376V190H317V66H256V3H195V-59H134V-120H2V-48H125Z"
/>
<glyph unicode="&#xfe;" glyph-name="thorn" horiz-adv-x="500" d="M102 -120H28V757H102V509H153V571H349V509H410V448H472V128H410V66H349V3H153V66H102V-120ZM163 138V77H338V138H400V437H338V499H163V437H102V138H163Z" />
<glyph unicode="&#xff;" glyph-name="ydieresis" horiz-adv-x="500" d="M64 818H195V684H64V818ZM306 818H437V684H306V818ZM125 -48V15H184V190H125V313H64V437H2V571H75V448H134V324H195V200H306V324H367V448H426V571H498V437H437V313H376V190H317V66H256V3H195V-59H134V-120H2V-48H125Z"
/>
<glyph unicode="&#x2013;" glyph-name="endash" horiz-adv-x="500" d="M2 293H498V220H2V293Z" />
<glyph unicode="&#x2014;" glyph-name="emdash" horiz-adv-x="500" d="M2 293H498V220H2V293Z" />
<glyph unicode="&#x2018;" glyph-name="quoteleft" horiz-adv-x="500" d="M183 726H245V787H317V715H256V664H317V529H183V726Z" />
<glyph unicode="&#x2019;" glyph-name="quoteright" horiz-adv-x="500" d="M183 602H244V653H183V787H317V591H255V529H183V602Z" />
<glyph unicode="&#x201a;" glyph-name="quotesinglbase" horiz-adv-x="500" d="M125 138H259V-59H197V-120H125V-48H186V3H125V138Z" />
<glyph unicode="&#x201c;" glyph-name="quotedblleft" horiz-adv-x="500" d="M125 726H186V787H259V715H197V664H259V529H125V726ZM310 726H372V787H444V715H382V664H444V529H310V726Z" />
<glyph unicode="&#x201d;" glyph-name="quotedblright" horiz-adv-x="500" d="M63 602H125V653H63V787H197V591H135V529H63V602ZM248 602H310V653H248V787H382V591H321V529H248V602Z" />
<glyph unicode="&#x201e;" glyph-name="quotedblbase" horiz-adv-x="500" d="M63 138H197V-59H135V-120H63V-48H125V3H63V138ZM248 138H382V-59H321V-120H248V-48H310V3H248V138Z" />
<glyph unicode="&#x2022;" glyph-name="bullet" horiz-adv-x="500" d="M152 220H90V417H152V478H348V417H409V220H348V159H152V220Z" />
<glyph unicode="&#x2039;" glyph-name="guilsinglleft" horiz-adv-x="500" d="M152 220H90V293H152V355H213V417H275V478H337V540H409V468H348V406H286V344H224V282H162V231H224V169H286V107H348V46H409V-28H337V35H275V97H213V159H152V220Z" />
<glyph unicode="&#x203a;" glyph-name="guilsinglright" horiz-adv-x="500" d="M90 46H152V107H213V169H275V231H337V282H275V344H213V406H152V468H90V540H162V478H224V417H286V355H348V293H409V220H348V159H286V97H224V35H162V-28H90V46Z" />
</font>
</defs>
</svg>
