<?xml version="1.0" standalone="no"?>
<!DOCTYPE svg PUBLIC "-//W3C//DTD SVG 1.1//EN" "http://www.w3.org/Graphics/SVG/1.1/DTD/svg11.dtd">
<svg xmlns="http://www.w3.org/2000/svg">
<defs >
<font id="SometypeMono" horiz-adv-x="580" ><font-face
    font-family="Sometype Mono"
    units-per-em="1000"
    panose-1="2 11 0 9 2 2 3 3 2 4"
    ascent="925"
    descent="-275"
    alphabetic="0" />
<glyph unicode=" " />
<glyph unicode="!" d="M282 218L227 606V650H353V606L298 218H282ZM290 -12Q262 -12 242 8T221 57Q221 86 241 106T290 126Q319 126 339 106T359 57Q359 29 339 9T290 -12Z" />
<glyph unicode="&quot;" d="M152 374L119 650H229L196 374H152ZM384 374L351 650H461L428 374H384Z" />
<glyph unicode="#" d="M109 0L139 174H21L31 232H150L182 418H63L73 476H192L219 630H280L253 476H380L407 630H468L441 476H559L549 418H431L399 232H517L507 174H388L358 0H297L327 174H200L170 0H109ZM211 232H338L370 418H243L211 232Z" />
<glyph unicode="$" d="M257 -82L265 19Q204 22 152 40T58 93L97 153Q132 125 174 110T266 91V287L228 292Q152 302 115 341T77 443Q77 516 127 560T265 610L257 712H333L325 610Q373 606 416 593T497 553L461 491Q430 511 396 523T324 539V351L364 346Q441 336
478 297T515 195Q515 120 466 75T325 21L333 -82H257ZM324 92Q381 97 410 123T440 192Q440 229 417 250T342 277L324 279V92ZM266 359V540Q211 536 182 512T152 446Q152 409 175 388T249 361L266 359Z" />
<glyph unicode="%" d="M71 -4L15 44L219 266L254 235L71 -4ZM425 -12Q363 -12 328 29T292 138Q292 206 327 247T425 288Q487 288 522 247T558 138Q558 70 523 29T425 -12ZM425 44Q458 44 475 68T493 138Q493 183 476 207T425 232Q392 232 375 208T357 138Q357
93 374 69T425 44ZM361 364L326 395L509 634L565 586L361 364ZM155 342Q93 342 58 383T22 492Q22 560 57 601T155 642Q217 642 252 601T288 492Q288 424 253 383T155 342ZM155 398Q188 398 205 422T223 492Q223 537 206 561T155 586Q122 586 105 562T87 492Q87
447 104 423T155 398Z" />
<glyph unicode="&amp;" d="M213 -12Q130 -12 80 36T30 167Q30 229 59 272T147 348V349Q109 395 93 430T77 505Q77 577 123 619T247 662Q322 662 366 622T410 512Q410 456 378 416T273 341L260 335V333L394 185Q412 217 429 257T466 351L526 326Q501 261 479 216T436
139L562 0H464L392 79Q356 33 313 11T213 -12ZM219 56Q257 56 289 72T351 124L190 301Q146 279 125 246T104 171Q104 118 135 87T219 56ZM216 382L251 399Q298 422 319 448T340 510Q340 551 316 573T248 595Q202 595 176 571T150 504Q150 474 165 448T216 382Z"
/>
<glyph unicode="&apos;" d="M268 324L230 650H350L312 324H268Z" />
<glyph unicode="(" d="M453 -222Q354 -197 282 -132T171 30T132 250Q132 372 171 469T282 632T453 722V659Q375 635 320 579T236 440T206 250Q206 144 235 61T320 -79T453 -159V-222Z" />
<glyph unicode=")" d="M127 -222V-159Q205 -135 260 -79T345 60T374 250Q374 357 345 440T261 579T127 659V722Q227 698 298 633T409 470T448 250Q448 128 409 31T299 -132T127 -222Z" />
<glyph unicode="*" d="M252 25L265 232L92 117L54 183L240 275L54 367L92 433L265 318L252 525H328L315 318L488 433L526 367L340 275L526 183L488 117L315 232L328 25H252Z" />
<glyph unicode="+" d="M257 35V242H50V308H257V515H323V308H530V242H323V35H257Z" />
<glyph unicode="," d="M194 -189L182 -140Q235 -126 262 -92T297 -5Q293 -6 290 -6T282 -7Q254 -7 235 13T215 64Q215 94 235 116T288 138Q318 138 341 117T365 39Q365 -4 348 -51T292 -135T194 -189Z" />
<glyph unicode="-" d="M90 242V308H490V242H90Z" />
<glyph unicode="." d="M290 -12Q259 -12 237 10T215 63Q215 93 237 115T290 138Q321 138 343 116T365 63Q365 32 343 10T290 -12Z" />
<glyph unicode="/" d="M60 -60L444 710H520L136 -60H60Z" />
<glyph unicode="0" d="M290 -12Q175 -12 114 72T53 315Q53 474 114 558T290 642Q406 642 466 558T527 315Q527 156 467 72T290 -12ZM290 58Q370 58 411 123T452 315Q452 347 450 374T442 426L161 137Q202 58 290 58ZM138 204L419 493Q378 572 290 572Q210 572
169 507T128 315Q128 284 130 256T138 204Z" />
<glyph unicode="1" d="M65 0V68H255V510L107 396L74 440L279 636H329V68H519V0H65Z" />
<glyph unicode="2" d="M76 0V64Q76 180 119 244T260 336L339 358Q384 371 407 394T430 460Q430 516 394 544T291 572Q193 572 115 504L78 564Q127 605 178 623T289 642Q391 642 448 594T505 457Q505 391 470 350T358 287L279 265Q232 252 204 230T164 168T150
68H505V0H76Z" />
<glyph unicode="3" d="M73 -12L72 56Q203 56 282 70T398 116T434 198Q434 251 397 269T288 287H173V355H252Q329 355 369 383T409 469Q409 519 375 545T275 572Q180 572 103 515L68 575Q159 642 278 642Q376 642 430 600T484 478Q484 379 401 339V337Q455 324
482 289T509 195Q509 121 466 76T327 10T73 -12Z" />
<glyph unicode="4" d="M357 0V147H36V203L292 630H373L125 215H357V441L431 481V215H546V147H431V0H357Z" />
<glyph unicode="5" d="M69 -12L68 56Q196 56 275 72T392 122T429 210Q429 260 399 284T304 308Q220 308 149 267L90 293L128 630H479V562H188L164 343Q236 378 318 378Q410 378 457 335T504 208Q504 131 460 83T320 12T69 -12Z" />
<glyph unicode="6" d="M301 -12Q191 -12 128 63T64 278Q64 451 168 544T475 642L478 574Q317 569 234 507T140 322H142Q221 396 319 396Q380 396 425 371T495 302T520 198Q520 135 493 88T416 15T301 -12ZM303 58Q366 58 405 95T445 196Q445 256 409 291T307 327Q258
327 216 306T139 240Q144 155 187 107T303 58Z" />
<glyph unicode="7" d="M165 0Q200 167 266 301T437 560H65V630H514V552Q443 469 391 383T305 202T251 0H165Z" />
<glyph unicode="8" d="M290 -12Q176 -12 114 33T52 163Q52 213 79 253T171 332V334Q122 359 100 393T77 474Q77 554 135 598T290 642Q389 642 446 598T503 475Q503 429 481 392T408 322V320Q467 297 497 262T528 166Q528 80 467 34T290 -12ZM290 58Q364 58 408
86T453 166Q453 198 433 218T377 252L242 305Q183 274 155 241T127 168Q127 116 170 87T290 58ZM337 348Q385 375 406 404T428 471Q428 523 392 547T290 572Q226 572 189 548T152 478Q152 448 170 427T229 390L337 348Z" />
<glyph unicode="9" d="M105 -12L102 56Q263 61 346 123T440 308H438Q359 234 261 234Q200 234 155 259T85 328T60 432Q60 495 87 542T164 616T279 642Q389 642 452 567T516 352Q516 179 412 86T105 -12ZM273 303Q322 303 364 324T441 390Q437 475 394 523T277
572Q214 572 175 535T135 434Q135 374 172 339T273 303Z" />
<glyph unicode=":" d="M290 332Q259 332 237 354T215 407Q215 437 237 459T290 482Q321 482 343 460T365 407Q365 376 343 354T290 332ZM290 -12Q259 -12 237 10T215 63Q215 93 237 115T290 138Q321 138 343 116T365 63Q365 32 343 10T290 -12Z" />
<glyph unicode=";" d="M194 -189L182 -140Q235 -126 262 -92T297 -5Q293 -6 290 -6T282 -7Q254 -7 235 13T215 64Q215 94 235 116T288 138Q318 138 341 117T365 39Q365 -4 348 -51T292 -135T194 -189ZM290 332Q259 332 237 354T215 407Q215 437 237 459T290 482Q321
482 343 460T365 407Q365 376 343 354T290 332Z" />
<glyph unicode="&lt;" d="M490 0L80 245V305L490 550V472L160 275L490 78V0Z" />
<glyph unicode="=" d="M60 347V413H520V347H60ZM60 137V203H520V137H60Z" />
<glyph unicode="&gt;" d="M90 0V78L420 275L90 472V550L500 305V245L90 0Z" />
<glyph unicode="?" d="M215 218Q206 254 206 282Q206 370 291 391L346 405Q394 417 413 436T433 493Q433 544 398 568T293 592Q236 592 190 576T101 524L63 583Q114 624 168 643T290 662Q395 662 451 620T508 493Q508 430 475 393T371 338L316 324Q294 319 284
308T273 271Q273 261 274 248T280 218H215ZM251 -12Q223 -12 203 8T182 57Q182 86 202 106T251 126Q280 126 300 106T320 57Q320 29 300 9T251 -12Z" />
<glyph unicode="@" d="M322 -46Q180 -46 105 46T29 307Q29 475 104 568T322 662Q430 662 486 608T542 451V169H489L480 222Q415 157 333 157Q264 157 226 196T187 300Q187 371 233 407T354 443H471V451Q471 523 434 559T323 596Q216 596 159 521T102 308Q102 166
162 93T325 20Q364 20 399 30T467 62L492 1Q417 -46 322 -46ZM345 225Q381 225 412 239T471 281V382H362Q310 382 285 360T260 300Q260 266 280 246T345 225Z" />
<glyph unicode="A" d="M29 0L246 650H334L551 0H473L414 180H162L103 0H29ZM185 250H391L288 564L185 250Z" />
<glyph unicode="B" d="M86 0V650H312Q411 650 458 609T505 484Q505 428 483 393T414 341V339Q523 310 523 180Q523 0 326 0H86ZM160 70H317Q385 70 416 97T447 182Q447 244 413 272T304 300H160V70ZM160 369H292Q367 369 398 394T430 477Q430 531 402 555T305
580H160V369Z" />
<glyph unicode="C" d="M332 -12Q203 -12 135 75T67 325Q67 489 135 575T332 662Q383 662 425 647T508 598L468 537Q436 566 404 578T332 591Q143 591 143 325Q143 59 332 59Q376 59 411 74T483 127L526 69Q481 26 435 7T332 -12Z" />
<glyph unicode="D" d="M82 0V650H242Q385 650 455 570T525 325Q525 162 456 81T246 0H82ZM156 70H236Q346 70 397 131T449 325Q449 457 398 518T236 580H156V70Z" />
<glyph unicode="E" d="M108 0V650H510V580H182V366H462V296H182V70H510V0H108Z" />
<glyph unicode="F" d="M112 0V650H514V580H186V362H466V292H186V0H112Z" />
<glyph unicode="G" d="M305 -12Q227 -12 171 28T86 143T56 325Q56 489 124 575T321 662Q372 662 414 647T497 598L457 537Q425 566 393 578T321 591Q132 591 132 325Q132 59 316 59Q387 59 440 109V288H307V358H514V0H467L459 51Q425 18 388 3T305 -12Z" />
<glyph unicode="H" d="M75 0V650H149V366H431V650H505V0H431V296H149V0H75Z" />
<glyph unicode="I" d="M82 0V70H253V580H82V650H498V580H327V70H498V0H82Z" />
<glyph unicode="J" d="M266 -12Q206 -12 158 7T65 67L108 125Q143 91 181 75T263 59Q331 59 367 96T404 200V580H175V650H478V193Q478 95 423 42T266 -12Z" />
<glyph unicode="K" d="M81 0V650H155V314L449 650H542L314 393L547 0H461L263 334L155 213V0H81Z" />
<glyph unicode="L" d="M112 0V650H186V70H514V0H112Z" />
<glyph unicode="M" d="M66 0V650H167L289 245L411 650H514V0H442V551L315 132H261L134 551V0H66Z" />
<glyph unicode="N" d="M75 0V650H169L435 136V650H505V0H429L145 549V0H75Z" />
<glyph unicode="O" d="M290 -12Q170 -12 109 73T47 325Q47 492 108 577T290 662Q410 662 471 577T533 325Q533 159 472 74T290 -12ZM290 59Q457 59 457 325Q457 591 290 591Q123 591 123 325Q123 59 290 59Z" />
<glyph unicode="P" d="M90 0V650H326Q426 650 476 603T527 464Q527 372 477 325T326 278H164V0H90ZM164 348H316Q388 348 419 375T451 464Q451 526 420 553T316 580H164V348Z" />
<glyph unicode="Q" d="M437 -222Q355 -222 310 -174T265 -35V-11Q157 -2 102 83T47 325Q47 492 108 577T290 662Q410 662 471 577T533 325Q533 25 339 -8V-27Q339 -90 364 -121T441 -153Q494 -153 540 -126L560 -189Q533 -205 502 -213T437 -222ZM290 59Q457 59
457 325Q457 591 290 591Q123 591 123 325Q123 59 290 59Z" />
<glyph unicode="R" d="M87 0V650H318Q416 650 465 605T514 469Q514 310 360 290L533 0H447L277 288H161V0H87ZM161 358H309Q378 358 408 384T438 469Q438 528 408 554T309 580H161V358Z" />
<glyph unicode="S" d="M281 -12Q213 -12 156 9T55 72L96 131Q134 95 181 77T283 59Q357 59 396 90T435 182Q435 228 412 252T338 288L233 312Q157 329 120 370T82 479Q82 565 140 613T300 662Q415 662 501 594L463 534Q391 591 298 591Q231 591 194 563T157 482Q157
441 180 418T254 383L359 359Q436 342 473 301T510 185Q510 92 451 40T281 -12Z" />
<glyph unicode="T" d="M253 0V580H37V650H543V580H327V0H253Z" />
<glyph unicode="U" d="M290 -12Q187 -12 131 43T75 201V650H149V211Q149 59 291 59Q433 59 433 211V650H505V201Q505 99 450 44T290 -12Z" />
<glyph unicode="V" d="M246 0L39 650H117L292 91L467 650H541L334 0H246Z" />
<glyph unicode="W" d="M112 0L9 650H82L164 118L254 581H330L420 118L502 650H571L468 0H382L291 469L200 0H112Z" />
<glyph unicode="X" d="M53 0L248 332L58 650H145L294 393L441 650H522L333 327L527 0H440L286 266L134 0H53Z" />
<glyph unicode="Y" d="M253 0V280L34 650H121L292 353L465 650H546L327 280V0H253Z" />
<glyph unicode="Z" d="M72 0V58L411 580H88V650H506V592L168 70H506V0H72Z" />
<glyph unicode="[" d="M154 -210V710H469V648H226V-148H469V-210H154Z" />
<glyph unicode="\" d="M444 -60L60 710H136L520 -60H444Z" />
<glyph unicode="]" d="M111 -210V-148H354V648H111V710H426V-210H111Z" />
<glyph unicode="^" d="M50 275L258 636H322L530 275H454L290 562L126 275H50Z" />
<glyph unicode="_" d="M0 -138V-72H580V-138H0Z" />
<glyph unicode="`" d="M325 554L164 701L223 753L367 590L325 554Z" />
<glyph unicode="a" d="M246 -12Q160 -12 113 27T66 137Q66 204 110 239T242 274H422V294Q422 359 392 386T288 414Q194 414 118 373L95 436Q181 482 291 482Q397 482 445 440T494 305V0H440L431 50Q390 19 344 4T246 -12ZM256 56Q350 56 422 110V210H240Q189 210
165 192T140 137Q140 97 169 77T256 56Z" />
<glyph unicode="b" d="M316 -12Q225 -12 143 50L135 0H81V710H153V427Q191 454 232 468T316 482Q411 482 466 415T522 235Q522 122 467 55T316 -12ZM304 56Q372 56 410 104T448 235Q448 318 410 366T304 414Q267 414 227 400T153 361V109Q186 84 226 70T304 56Z" />
<glyph unicode="c" d="M328 -12Q250 -12 194 18T108 103T78 235Q78 312 108 367T194 452T328 482Q421 482 500 433L472 373Q438 394 402 404T328 414Q244 414 198 368T152 235Q152 149 198 103T328 56Q370 56 408 68T485 105L515 47Q431 -12 328 -12Z" />
<glyph unicode="d" d="M264 -12Q170 -12 114 55T58 235Q58 348 114 415T264 482Q306 482 347 468T427 427V710H499V0H445L437 50Q355 -12 264 -12ZM276 56Q314 56 354 70T427 109V361Q394 386 354 400T276 414Q209 414 171 366T132 235Q132 152 170 104T276 56Z" />
<glyph unicode="e" d="M317 -12Q196 -12 127 54T57 235Q57 311 87 366T171 451T297 482Q367 482 418 454T496 374T524 251Q524 241 524 231T522 210H132Q139 136 187 96T319 56Q403 56 478 105L509 46Q464 16 417 2T317 -12ZM134 274H451Q444 340 404 377T296
414Q229 414 187 377T134 274Z" />
<glyph unicode="f" d="M232 0V404H77V470H232V545Q232 633 278 677T416 722Q492 722 555 690L536 626Q480 654 422 654Q363 654 334 624T304 534V470H504V404H304V0H232Z" />
<glyph unicode="g" d="M275 -222Q225 -222 177 -211T85 -176L111 -113Q148 -133 188 -143T273 -154Q351 -154 389 -119T427 -14V53Q389 26 348 12T264 -2Q201 -2 155 28T84 113T58 240Q58 312 83 366T155 451T264 482Q355 482 437 420L445 470H499V-23Q499 -117
443 -169T275 -222ZM276 66Q314 66 354 80T427 119V361Q394 386 354 400T276 414Q209 414 171 366T132 240Q132 162 170 114T276 66Z" />
<glyph unicode="h" d="M89 0V710H161V427Q237 482 329 482Q412 482 454 438T497 305V0H425V294Q425 357 399 385T317 414Q277 414 237 401T161 361V0H89Z" />
<glyph unicode="i" d="M254 0V404H54V470H326V66H526V0H254ZM536 584Q508 584 488 604T467 653Q467 682 487 702T536 722Q565 722 585 702T605 653Q605 625 585 605T536 584Z" />
<glyph unicode="j" d="M219 -222Q172 -222 130 -211T49 -177L74 -114Q106 -133 141 -143T213 -154Q271 -154 302 -122T333 -32V404H134V470H405V-43Q405 -129 357 -175T219 -222ZM359 584Q331 584 311 604T290 653Q290 682 310 702T359 722Q388 722 408 702T428
653Q428 625 408 605T359 584Z" />
<glyph unicode="k" d="M97 0V710H169V230L437 470H535L329 287L540 0H450L274 239L169 145V0H97Z" />
<glyph unicode="l" d="M406 -12Q231 -12 231 165V644H31V710H303V176Q303 113 329 85T411 56Q474 56 529 86L549 22Q484 -12 406 -12Z" />
<glyph unicode="m" d="M54 0V470H103L110 431Q163 482 224 482Q288 482 313 431Q366 482 427 482Q474 482 501 453T529 371V0H460V363Q460 418 410 418Q364 418 326 380V0H257V363Q257 418 207 418Q161 418 123 380V0H54Z" />
<glyph unicode="n" d="M89 0V470H143L151 420Q192 451 236 466T329 482Q412 482 454 438T497 305V0H425V294Q425 357 399 385T317 414Q277 414 237 401T161 361V0H89Z" />
<glyph unicode="o" d="M290 -12Q219 -12 165 19T82 105T52 235Q52 309 81 364T165 451T290 482Q362 482 415 451T498 365T528 235Q528 161 499 106T416 19T290 -12ZM290 56Q367 56 410 104T454 235Q454 318 411 366T290 414Q214 414 170 366T126 235Q126 152 170
104T290 56Z" />
<glyph unicode="p" d="M81 -210V470H135L143 420Q225 482 316 482Q411 482 466 415T522 235Q522 122 467 55T316 -12Q274 -12 233 2T153 43V-210H81ZM304 56Q372 56 410 104T448 235Q448 318 410 366T304 414Q267 414 227 400T153 361V109Q186 84 226 70T304 56Z" />
<glyph unicode="q" d="M427 -210V43Q389 16 348 2T264 -12Q170 -12 114 55T58 235Q58 348 114 415T264 482Q355 482 437 420L445 470H499V-210H427ZM276 56Q314 56 354 70T427 109V361Q394 386 354 400T276 414Q209 414 171 366T132 235Q132 152 170 104T276 56Z" />
<glyph unicode="r" d="M124 0V470H182L192 388Q233 435 283 458T393 482Q459 482 499 454L472 389Q453 402 433 407T387 413Q274 413 196 306V0H124Z" />
<glyph unicode="s" d="M289 -12Q166 -12 69 46L98 107Q141 82 190 69T292 56Q427 56 427 134Q427 163 409 176T346 196L232 212Q159 223 126 251T92 336Q92 406 143 444T288 482Q393 482 486 434L460 372Q381 414 286 414Q165 414 165 341Q165 313 183 300T246
281L360 265Q434 255 467 226T500 139Q500 66 446 27T289 -12Z" />
<glyph unicode="t" d="M382 -12Q207 -12 207 165V404H52V470H207V622L279 662V470H479V404H279V176Q279 113 305 85T387 56Q450 56 505 86L525 22Q460 -12 382 -12Z" />
<glyph unicode="u" d="M251 -12Q169 -12 126 32T83 165V470H155V176Q155 113 181 85T263 56Q304 56 344 70T419 109V470H491V0H437L429 50Q389 19 345 4T251 -12Z" />
<glyph unicode="v" d="M247 0L57 470H135L292 75L449 470H523L333 0H247Z" />
<glyph unicode="w" d="M124 0L15 470H86L172 88L257 421H327L412 88L498 470H565L456 0H374L291 329L207 0H124Z" />
<glyph unicode="x" d="M58 0L243 241L63 470H154L296 289L433 470H517L337 236L522 0H431L284 187L142 0H58Z" />
<glyph unicode="y" d="M128 -222Q62 -222 11 -191L37 -130Q78 -154 124 -154Q168 -154 193 -132T240 -55L258 -10L57 470H136L295 83L449 470H523L302 -85Q272 -161 234 -191T128 -222Z" />
<glyph unicode="z" d="M81 0V56L392 404H91V470H497V414L186 66H497V0H81Z" />
<glyph unicode="{" d="M425 -210Q324 -210 278 -166T232 -31Q232 -11 233 7T237 42Q239 59 240 75T242 108Q242 167 219 193T141 219H86V281H141Q195 281 218 307T242 392Q242 409 241 425T237 458Q235 475 234 493T232 531Q232 621 278 665T425 710H491V648H444Q371
648 338 619T304 526Q304 513 305 496T309 461Q311 444 312 426T314 391Q314 331 292 298T226 252V248Q269 236 291 203T314 109Q314 92 313 74T309 39Q307 23 306 6T304 -26Q304 -90 337 -119T444 -148H491V-210H425Z" />
<glyph unicode="|" d="M254 -250V750H326V-250H254Z" />
<glyph unicode="}" d="M89 -210V-148H136Q209 -148 242 -119T276 -26Q276 -12 275 5T271 39Q269 56 268 74T266 109Q266 169 288 202T354 248V252Q311 264 289 297T266 391Q266 408 267 426T271 461Q273 478 274 495T276 526Q276 590 243 619T136 648H89V710H155Q256
710 302 666T348 531Q348 512 347 494T343 458Q341 442 340 426T338 392Q338 333 361 307T439 281H494V219H439Q385 219 362 193T338 108Q338 92 339 76T343 42Q345 25 346 7T348 -31Q348 -121 302 -165T155 -210H89Z" />
<glyph unicode="~" d="M116 170L50 173Q55 286 90 331T184 376Q225 376 257 352T315 299Q337 277 357 260T399 242Q429 242 445 273T464 380L530 377Q526 265 491 220T396 174Q355 174 323 198T265 251Q243 274 223 291T181 308Q151 308 135 278T116 170Z" />
<glyph unicode="&#xa0;" />
<glyph unicode="&#xa1;" d="M298 252L353 -136V-180H227V-136L282 252H298ZM290 482Q319 482 339 462T359 413Q359 385 339 365T290 344Q262 344 242 364T221 413Q221 442 241 462T290 482Z" />
<glyph unicode="&#xa2;" d="M285 -35L292 66Q185 75 126 140T66 315Q66 424 125 489T292 564L285 665H361L354 564Q395 561 432 550T505 518L476 454Q418 488 354 494V136Q390 140 423 151T488 183L521 122Q481 97 441 83T354 66L361 -35H285ZM292 137V493Q219
486 180 441T141 315Q141 236 180 191T292 137Z" />
<glyph unicode="&#xa3;" d="M67 0V76Q131 108 156 149T182 239Q182 250 181 260T177 281H67V349H149Q138 374 129 402T120 467Q120 548 177 595T338 642Q386 642 427 631T508 596L481 530Q416 572 336 572Q269 572 232 545T195 464Q195 432 208 406T234 349H458V281H254Q256
273 256 265T257 246Q257 190 235 147T161 68H512V0H67Z" />
<glyph unicode="&#xa4;" d="M93 64L39 118L147 215Q117 259 117 315Q117 371 147 415L39 512L93 566L190 458Q234 488 290 488Q346 488 390 458L487 566L541 512L433 415Q463 371 463 315Q463 259 433 215L541 118L487 64L390 172Q346 142 290 142Q234 142 190
172L93 64ZM290 210Q335 210 362 239T390 315Q390 362 363 391T290 420Q245 420 218 391T190 315Q190 268 217 239T290 210Z" />
<glyph unicode="&#xa5;" d="M250 0V119H64V183H250V273H64V337H241L41 630H130L290 394L450 630H539L339 337H510V273H324V183H510V119H324V0H250Z" />
<glyph unicode="&#xa6;" d="M254 400V750H326V400H254ZM254 -250V100H326V-250H254Z" />
<glyph unicode="&#xa7;" d="M287 -130Q231 -130 182 -116T86 -73L118 -14Q155 -39 196 -51T287 -63Q423 -63 423 22Q423 53 402 71T336 96L209 117Q136 129 101 162T65 252Q65 347 158 384V386Q83 421 83 506Q83 581 137 621T291 662Q401 662 492 605L460 546Q423
571 382 583T291 595Q155 595 155 510Q155 479 176 462T243 436L370 415Q443 403 478 370T513 280Q513 185 421 148V146Q495 111 495 26Q495 -49 441 -89T287 -130ZM313 172Q375 176 407 201T440 270Q440 302 420 320T352 346L266 360Q205 356 172 331T138 262Q138
230 159 212T227 186L313 172Z" />
<glyph unicode="&#xa8;" d="M182 587Q154 587 135 606T116 653Q116 681 135 700T182 719Q210 719 229 700T248 653Q248 625 229 606T182 587ZM398 587Q370 587 351 606T332 653Q332 681 351 700T398 719Q426 719 445 700T464 653Q464 625 445 606T398 587Z" />
<glyph unicode="&#xa9;" d="M290 18Q207 18 146 56T52 163T18 325Q18 419 51 487T146 594T290 632Q373 632 434 594T528 488T562 325Q562 232 529 163T434 56T290 18ZM293 159Q226 159 188 202T150 325Q150 404 188 447T293 491Q322 491 346 482T393 453L364 409Q333
437 294 437Q206 437 206 325Q206 213 294 213Q337 213 371 248L403 206Q379 181 353 170T293 159ZM290 70Q391 70 448 138T506 325Q506 444 449 512T290 580Q190 580 132 512T74 325Q74 207 132 139T290 70Z" />
<glyph unicode="&#xaa;" d="M257 275Q190 275 153 306T115 392Q115 445 150 473T254 501H391V514Q391 562 368 582T291 603Q217 603 158 571L137 625Q207 662 295 662Q378 662 416 629T455 522V284H407L400 322Q337 275 257 275ZM115 113V173H455V113H115ZM267
334Q338 334 391 371V447H254Q217 447 199 433T181 393Q181 334 267 334Z" />
<glyph unicode="&#xab;" d="M472 57L310 208V262L472 413L504 382L395 235L504 88L472 57ZM237 57L75 208V262L237 413L269 382L160 235L269 88L237 57Z" />
<glyph unicode="&#xac;" d="M444 75V307H50V373H510V75H444Z" />
<glyph unicode="&#xae;" d="M290 18Q207 18 146 56T52 163T18 325Q18 419 51 487T146 594T290 632Q373 632 434 594T528 488T562 325Q562 232 529 163T434 56T290 18ZM290 70Q391 70 448 138T506 325Q506 444 449 512T290 580Q190 580 132 512T74 325Q74 207 132
139T290 70ZM182 166V485H306Q357 485 383 460T410 386Q410 312 350 292L423 166H359L292 286H237V166H182ZM237 338H298Q330 338 342 349T355 386Q355 411 343 422T298 433H237V338Z" />
<glyph unicode="&#xaf;" d="M155 620V686H425V620H155Z" />
<glyph unicode="&#xb0;" d="M290 402Q244 402 208 423T151 480T130 562Q130 608 151 644T208 701T290 722Q336 722 372 701T429 644T450 562Q450 516 429 480T372 423T290 402ZM290 468Q331 468 356 494T382 562Q382 603 357 629T290 656Q250 656 224 630T198
562Q198 521 224 495T290 468Z" />
<glyph unicode="&#xb1;" d="M257 131V323H60V389H257V581H323V389H520V323H323V131H257ZM60 0V66H520V0H60Z" />
<glyph unicode="&#xb2;" d="M111 306V359Q111 443 145 489T262 554L328 570Q363 578 380 593T397 633Q397 668 369 685T290 702Q248 702 213 691T146 655L110 711Q150 740 193 754T288 768Q375 768 422 733T469 631Q469 581 440 551T345 503L281 487Q229 474 208
450T183 371H469V306H111Z" />
<glyph unicode="&#xb3;" d="M108 294L106 359Q211 359 275 368T368 396T398 448Q398 477 374 489T295 502H188V566H257Q318 566 348 583T379 636Q379 702 275 702Q197 702 136 662L103 720Q141 745 184 756T277 768Q362 768 406 737T451 647Q451 577 384 550V548Q470
530 470 445Q470 391 434 358T319 309T108 294Z" />
<glyph unicode="&#xb4;" d="M255 554L213 590L357 753L416 701L255 554Z" />
<glyph unicode="&#xb5;" d="M86 -210V470H158V176Q158 113 184 85T266 56Q307 56 347 70T422 109V470H494V0H440L432 50Q392 19 348 4T254 -12Q178 -12 144 34L158 -159V-210H86Z" />
<glyph unicode="&#xb6;" d="M264 -120V264H243Q143 264 93 312T42 457Q42 650 243 650H504V-120H434V580H334V-120H264Z" />
<glyph unicode="&#xb7;" d="M290 205Q259 205 237 227T215 280Q215 310 237 332T290 355Q321 355 343 333T365 280Q365 249 343 227T290 205Z" />
<glyph unicode="&#xb8;" d="M277 -222Q246 -222 221 -216T175 -201L189 -151Q207 -159 230 -164T278 -170Q308 -170 320 -162T333 -137Q333 -123 322 -117T284 -111H231L270 0H319L294 -70H302Q395 -70 395 -139Q395 -181 365 -201T277 -222Z" />
<glyph unicode="&#xb9;" d="M109 306V371H260V657L132 587L103 635L283 762H332V371H483V306H109Z" />
<glyph unicode="&#xba;" d="M290 275Q234 275 192 299T126 367T102 469Q102 527 125 570T191 638T290 662Q347 662 389 638T454 571T478 469Q478 411 455 368T389 300T290 275ZM102 113V173H478V113H102ZM290 335Q347 335 379 371T412 469Q412 531 380 566T290
602Q233 602 201 567T168 469Q168 407 200 371T290 335Z" />
<glyph unicode="&#xbb;" d="M343 57L311 88L420 235L311 382L343 413L505 262V208L343 57ZM108 57L76 88L185 235L76 382L108 413L270 262V208L108 57Z" />
<glyph unicode="&#xbc;" d="M25 354V413H113V548L44 509L15 553L133 636H182V413H269V354H25ZM381 364L346 395L529 634L585 586L381 364ZM91 -4L35 44L239 266L274 235L91 -4ZM456 0V57H284V105L423 276H502L372 116H456V157L525 189V116H577V57H525V0H456Z" />
<glyph unicode="&#xbd;" d="M25 354V413H113V548L44 509L15 553L133 636H182V413H269V354H25ZM361 364L326 395L509 634L565 586L361 364ZM71 -4L15 44L219 266L254 235L71 -4ZM323 0V49Q323 99 346 124T417 163L462 175Q479 180 485 185T492 201Q492 216 479
222T442 229Q415 229 393 222T351 201L325 256Q349 270 377 279T444 288Q498 288 529 267T561 201Q561 164 540 146T478 116L432 104Q413 99 403 90T392 59H561V0H323Z" />
<glyph unicode="&#xbe;" d="M18 342L16 401Q117 401 155 410T193 443Q193 455 182 460T133 466H68V521H116Q156 521 170 529T184 552Q184 568 172 575T131 583Q105 583 83 577T42 560L17 615Q44 629 72 635T132 642Q191 642 221 622T252 565Q252 524 211 508V506Q262
493 262 441Q262 388 207 365T18 342ZM371 364L336 395L519 634L575 586L371 364ZM81 -4L25 44L229 266L264 235L81 -4ZM456 0V57H284V105L423 276H502L372 116H456V157L525 189V116H577V57H525V0H456Z" />
<glyph unicode="&#xbf;" d="M365 252Q374 216 374 188Q374 100 289 79L234 65Q186 53 167 34T147 -23Q147 -74 182 -98T287 -122Q344 -122 390 -105T479 -54L517 -113Q466 -153 412 -172T290 -192Q185 -192 129 -150T72 -23Q72 40 105 77T209 132L264 146Q286
151 296 162T307 199Q307 210 306 223T300 252H365ZM329 482Q358 482 378 462T398 413Q398 385 378 365T329 344Q301 344 281 364T260 413Q260 442 280 462T329 482Z" />
<glyph unicode="&#xc0;" d="M29 0L246 650H334L551 0H473L414 180H162L103 0H29ZM185 250H391L288 564L185 250ZM589 719L419 830L466 893L622 764L589 719Z" />
<glyph unicode="&#xc1;" d="M29 0L246 650H334L551 0H473L414 180H162L103 0H29ZM185 250H391L288 564L185 250ZM246 719L213 764L369 893L416 830L246 719Z" />
<glyph unicode="&#xc2;" d="M29 0L246 650H334L551 0H473L414 180H162L103 0H29ZM185 250H391L288 564L185 250ZM410 719L377 764L531 890H559L713 764L680 719L545 815L410 719Z" />
<glyph unicode="&#xc3;" d="M29 0L246 650H334L551 0H473L414 180H162L103 0H29ZM185 250H391L288 564L185 250ZM435 737L380 747Q393 803 418 833T485 864Q513 864 532 854T566 832Q577 824 588 818T610 811Q624 811 636 824T657 872L711 862Q699 807 673 776T607
745Q579 745 561 755T526 777Q515 785 504 791T482 798Q468 798 456 785T435 737Z" />
<glyph unicode="&#xc4;" d="M29 0L246 650H334L551 0H473L414 180H162L103 0H29ZM185 250H391L288 564L185 250ZM182 737Q154 737 135 756T116 803Q116 831 135 850T182 869Q210 869 229 850T248 803Q248 775 229 756T182 737ZM398 737Q370 737 351 756T332 803Q332
831 351 850T398 869Q426 869 445 850T464 803Q464 775 445 756T398 737Z" />
<glyph unicode="&#xc5;" d="M29 0L246 650H334L551 0H473L414 180H162L103 0H29ZM185 250H391L288 564L185 250ZM290 690Q243 690 211 722T178 803Q178 851 210 883T290 916Q337 916 369 884T402 803Q402 755 370 723T290 690ZM290 747Q313 747 327 762T341 803Q341
828 327 843T290 859Q268 859 254 844T239 803Q239 778 253 763T290 747Z" />
<glyph unicode="&#xc6;" d="M4 0L249 650H566V581H366V365H537V297H366V69H566V0H295V154H134L78 0H4ZM160 223H295V581H292L160 223Z" />
<glyph unicode="&#xc7;" d="M332 -12Q203 -12 135 75T67 325Q67 489 135 575T332 662Q383 662 425 647T508 598L468 537Q436 566 404 578T332 591Q143 591 143 325Q143 59 332 59Q376 59 411 74T483 127L526 69Q481 26 435 7T332 -12ZM303 -222Q272 -222 247 -216T201
-201L215 -151Q233 -159 256 -164T304 -170Q334 -170 346 -162T359 -137Q359 -123 348 -117T310 -111H257L296 0H345L320 -70H328Q421 -70 421 -139Q421 -181 391 -201T303 -222Z" />
<glyph unicode="&#xc8;" d="M108 0V650H510V580H182V366H462V296H182V70H510V0H108ZM352 719L182 830L229 893L385 764L352 719Z" />
<glyph unicode="&#xc9;" d="M108 0V650H510V580H182V366H462V296H182V70H510V0H108ZM265 719L232 764L388 893L435 830L265 719Z" />
<glyph unicode="&#xca;" d="M108 0V650H510V580H182V366H462V296H182V70H510V0H108ZM173 719L140 764L294 890H322L476 764L443 719L308 815L173 719Z" />
<glyph unicode="&#xcb;" d="M108 0V650H510V580H182V366H462V296H182V70H510V0H108ZM201 737Q173 737 154 756T135 803Q135 831 154 850T201 869Q229 869 248 850T267 803Q267 775 248 756T201 737ZM417 737Q389 737 370 756T351 803Q351 831 370 850T417 869Q445
869 464 850T483 803Q483 775 464 756T417 737Z" />
<glyph unicode="&#xcc;" d="M82 0V70H253V580H82V650H498V580H327V70H498V0H82ZM589 719L419 830L466 893L622 764L589 719Z" />
<glyph unicode="&#xcd;" d="M82 0V70H253V580H82V650H498V580H327V70H498V0H82ZM246 719L213 764L369 893L416 830L246 719Z" />
<glyph unicode="&#xce;" d="M82 0V70H253V580H82V650H498V580H327V70H498V0H82ZM410 719L377 764L531 890H559L713 764L680 719L545 815L410 719Z" />
<glyph unicode="&#xcf;" d="M82 0V70H253V580H82V650H498V580H327V70H498V0H82ZM182 737Q154 737 135 756T116 803Q116 831 135 850T182 869Q210 869 229 850T248 803Q248 775 229 756T182 737ZM398 737Q370 737 351 756T332 803Q332 831 351 850T398 869Q426
869 445 850T464 803Q464 775 445 756T398 737Z" />
<glyph unicode="&#xd0;" d="M14 294V356H326V294H14ZM107 0V650H267Q410 650 480 570T550 325Q550 162 481 81T271 0H107ZM181 70H261Q371 70 422 131T474 325Q474 457 423 518T261 580H181V70Z" />
<glyph unicode="&#xd1;" d="M75 0V650H169L435 136V650H505V0H429L145 549V0H75ZM435 737L380 747Q393 803 418 833T485 864Q513 864 532 854T566 832Q577 824 588 818T610 811Q624 811 636 824T657 872L711 862Q699 807 673 776T607 745Q579 745 561 755T526
777Q515 785 504 791T482 798Q468 798 456 785T435 737Z" />
<glyph unicode="&#xd2;" d="M290 -12Q170 -12 109 73T47 325Q47 492 108 577T290 662Q410 662 471 577T533 325Q533 159 472 74T290 -12ZM290 59Q457 59 457 325Q457 591 290 591Q123 591 123 325Q123 59 290 59ZM589 719L419 830L466 893L622 764L589 719Z" />
<glyph unicode="&#xd3;" d="M290 -12Q170 -12 109 73T47 325Q47 492 108 577T290 662Q410 662 471 577T533 325Q533 159 472 74T290 -12ZM290 59Q457 59 457 325Q457 591 290 591Q123 591 123 325Q123 59 290 59ZM246 719L213 764L369 893L416 830L246 719Z" />
<glyph unicode="&#xd4;" d="M290 -12Q170 -12 109 73T47 325Q47 492 108 577T290 662Q410 662 471 577T533 325Q533 159 472 74T290 -12ZM290 59Q457 59 457 325Q457 591 290 591Q123 591 123 325Q123 59 290 59ZM410 719L377 764L531 890H559L713 764L680 719L545
815L410 719Z" />
<glyph unicode="&#xd5;" d="M290 -12Q170 -12 109 73T47 325Q47 492 108 577T290 662Q410 662 471 577T533 325Q533 159 472 74T290 -12ZM290 59Q457 59 457 325Q457 591 290 591Q123 591 123 325Q123 59 290 59ZM435 737L380 747Q393 803 418 833T485 864Q513
864 532 854T566 832Q577 824 588 818T610 811Q624 811 636 824T657 872L711 862Q699 807 673 776T607 745Q579 745 561 755T526 777Q515 785 504 791T482 798Q468 798 456 785T435 737Z" />
<glyph unicode="&#xd6;" d="M290 -12Q170 -12 109 73T47 325Q47 492 108 577T290 662Q410 662 471 577T533 325Q533 159 472 74T290 -12ZM290 59Q457 59 457 325Q457 591 290 591Q123 591 123 325Q123 59 290 59ZM182 737Q154 737 135 756T116 803Q116 831 135
850T182 869Q210 869 229 850T248 803Q248 775 229 756T182 737ZM398 737Q370 737 351 756T332 803Q332 831 351 850T398 869Q426 869 445 850T464 803Q464 775 445 756T398 737Z" />
<glyph unicode="&#xd7;" d="M124 62L77 109L243 275L77 441L124 488L290 322L456 488L503 441L337 275L503 109L456 62L290 228L124 62Z" />
<glyph unicode="&#xd8;" d="M290 -12Q170 -12 109 73T47 325Q47 492 108 577T290 662Q410 662 471 577T533 325Q533 159 472 74T290 -12ZM290 59Q457 59 457 325Q457 591 290 591Q123 591 123 325Q123 59 290 59ZM70 -32L20 5L510 682L560 645L70 -32Z" />
<glyph unicode="&#xd9;" d="M290 -12Q187 -12 131 43T75 201V650H149V211Q149 59 291 59Q433 59 433 211V650H505V201Q505 99 450 44T290 -12ZM589 719L419 830L466 893L622 764L589 719Z" />
<glyph unicode="&#xda;" d="M290 -12Q187 -12 131 43T75 201V650H149V211Q149 59 291 59Q433 59 433 211V650H505V201Q505 99 450 44T290 -12ZM246 719L213 764L369 893L416 830L246 719Z" />
<glyph unicode="&#xdb;" d="M290 -12Q187 -12 131 43T75 201V650H149V211Q149 59 291 59Q433 59 433 211V650H505V201Q505 99 450 44T290 -12ZM410 719L377 764L531 890H559L713 764L680 719L545 815L410 719Z" />
<glyph unicode="&#xdc;" d="M290 -12Q187 -12 131 43T75 201V650H149V211Q149 59 291 59Q433 59 433 211V650H505V201Q505 99 450 44T290 -12ZM182 737Q154 737 135 756T116 803Q116 831 135 850T182 869Q210 869 229 850T248 803Q248 775 229 756T182 737ZM398
737Q370 737 351 756T332 803Q332 831 351 850T398 869Q426 869 445 850T464 803Q464 775 445 756T398 737Z" />
<glyph unicode="&#xdd;" d="M253 0V280L34 650H121L292 353L465 650H546L327 280V0H253ZM246 719L213 764L369 893L416 830L246 719Z" />
<glyph unicode="&#xde;" d="M90 0V650H164V537H326Q427 537 477 490T527 351Q527 259 477 212T326 165H164V0H90ZM164 235H316Q388 235 419 262T451 351Q451 413 420 440T316 467H164V235Z" />
<glyph unicode="&#xdf;" d="M371 -12Q334 -12 299 -3T234 24L259 88Q285 73 312 65T368 56Q412 56 438 74T464 130Q464 164 444 183T395 218Q369 233 345 251T306 295T291 358Q291 393 301 418T334 477Q354 507 362 526T371 567Q371 606 343 630T264 654Q148 654
148 521V0H76V534Q76 622 127 672T267 722Q350 722 397 680T445 564Q445 533 435 508T402 449Q383 419 374 402T365 363Q365 335 385 317T434 283Q460 269 484 251T523 204T538 132Q538 62 495 25T371 -12Z" />
<glyph unicode="&#xe0;" d="M246 -12Q160 -12 113 27T66 137Q66 204 110 239T242 274H422V294Q422 359 392 386T288 414Q194 414 118 373L95 436Q181 482 291 482Q397 482 445 440T494 305V0H440L431 50Q390 19 344 4T246 -12ZM256 56Q350 56 422 110V210H240Q189
210 165 192T140 137Q140 97 169 77T256 56ZM576 554L415 701L474 753L618 590L576 554Z" />
<glyph unicode="&#xe1;" d="M246 -12Q160 -12 113 27T66 137Q66 204 110 239T242 274H422V294Q422 359 392 386T288 414Q194 414 118 373L95 436Q181 482 291 482Q397 482 445 440T494 305V0H440L431 50Q390 19 344 4T246 -12ZM256 56Q350 56 422 110V210H240Q189
210 165 192T140 137Q140 97 169 77T256 56ZM507 554L465 590L609 753L668 701L507 554Z" />
<glyph unicode="&#xe2;" d="M246 -12Q160 -12 113 27T66 137Q66 204 110 239T242 274H422V294Q422 359 392 386T288 414Q194 414 118 373L95 436Q181 482 291 482Q397 482 445 440T494 305V0H440L431 50Q390 19 344 4T246 -12ZM256 56Q350 56 422 110V210H240Q189
210 165 192T140 137Q140 97 169 77T256 56ZM415 554L373 590L527 753H555L709 590L667 554L541 669L415 554Z" />
<glyph unicode="&#xe3;" d="M246 -12Q160 -12 113 27T66 137Q66 204 110 239T242 274H422V294Q422 359 392 386T288 414Q194 414 118 373L95 436Q181 482 291 482Q397 482 445 440T494 305V0H440L431 50Q390 19 344 4T246 -12ZM256 56Q350 56 422 110V210H240Q189
210 165 192T140 137Q140 97 169 77T256 56ZM430 576L376 586Q388 649 413 683T481 718Q509 718 528 705T562 678Q573 668 584 660T606 652Q620 652 633 668T654 728L708 718Q696 655 671 621T603 586Q575 586 556 599T522 626Q511 637 500 644T478 652Q464 652
451 636T430 576Z" />
<glyph unicode="&#xe4;" d="M246 -12Q160 -12 113 27T66 137Q66 204 110 239T242 274H422V294Q422 359 392 386T288 414Q194 414 118 373L95 436Q181 482 291 482Q397 482 445 440T494 305V0H440L431 50Q390 19 344 4T246 -12ZM256 56Q350 56 422 110V210H240Q189
210 165 192T140 137Q140 97 169 77T256 56ZM434 587Q406 587 387 606T368 653Q368 681 387 700T434 719Q462 719 481 700T500 653Q500 625 481 606T434 587ZM650 587Q622 587 603 606T584 653Q584 681 603 700T650 719Q678 719 697 700T716 653Q716 625 697 606T650
587Z" />
<glyph unicode="&#xe5;" d="M246 -12Q160 -12 113 27T66 137Q66 204 110 239T242 274H422V294Q422 359 392 386T288 414Q194 414 118 373L95 436Q181 482 291 482Q397 482 445 440T494 305V0H440L431 50Q390 19 344 4T246 -12ZM256 56Q350 56 422 110V210H240Q189
210 165 192T140 137Q140 97 169 77T256 56ZM542 540Q495 540 463 572T430 653Q430 701 462 733T542 766Q589 766 621 734T654 653Q654 605 622 573T542 540ZM542 597Q565 597 579 612T593 653Q593 678 579 693T542 709Q520 709 506 694T491 653Q491 628 505 613T542
597Z" />
<glyph unicode="&#xe6;" d="M156 -12Q91 -12 53 27T14 132Q14 201 58 237T184 273H243V289Q243 355 220 385T150 416Q97 416 51 382L21 441Q48 460 81 471T157 482Q255 482 283 403H285Q321 482 409 482Q483 482 522 423T562 251Q562 240 562 234T560 211H313Q317
129 344 92T430 54Q486 54 534 88L563 29Q536 10 503 -1T428 -12Q334 -12 288 52Q234 -12 156 -12ZM168 54Q196 54 218 65T262 102Q254 125 250 152T243 211H182Q85 211 85 131Q85 94 106 74T168 54ZM314 273H493Q490 345 468 380T404 416Q364 416 342 380T314
273Z" />
<glyph unicode="&#xe7;" d="M328 -12Q250 -12 194 18T108 103T78 235Q78 312 108 367T194 452T328 482Q421 482 500 433L472 373Q438 394 402 404T328 414Q244 414 198 368T152 235Q152 149 198 103T328 56Q370 56 408 68T485 105L515 47Q431 -12 328 -12ZM299
-222Q268 -222 243 -216T197 -201L211 -151Q229 -159 252 -164T300 -170Q330 -170 342 -162T355 -137Q355 -123 344 -117T306 -111H253L292 0H341L316 -70H324Q417 -70 417 -139Q417 -181 387 -201T299 -222Z" />
<glyph unicode="&#xe8;" d="M317 -12Q196 -12 127 54T57 235Q57 311 87 366T171 451T297 482Q367 482 418 454T496 374T524 251Q524 241 524 231T522 210H132Q139 136 187 96T319 56Q403 56 478 105L509 46Q464 16 417 2T317 -12ZM134 274H451Q444 340 404 377T296
414Q229 414 187 377T134 274ZM331 554L170 701L229 753L373 590L331 554Z" />
<glyph unicode="&#xe9;" d="M317 -12Q196 -12 127 54T57 235Q57 311 87 366T171 451T297 482Q367 482 418 454T496 374T524 251Q524 241 524 231T522 210H132Q139 136 187 96T319 56Q403 56 478 105L509 46Q464 16 417 2T317 -12ZM134 274H451Q444 340 404 377T296
414Q229 414 187 377T134 274ZM262 554L220 590L364 753L423 701L262 554Z" />
<glyph unicode="&#xea;" d="M317 -12Q196 -12 127 54T57 235Q57 311 87 366T171 451T297 482Q367 482 418 454T496 374T524 251Q524 241 524 231T522 210H132Q139 136 187 96T319 56Q403 56 478 105L509 46Q464 16 417 2T317 -12ZM134 274H451Q444 340 404 377T296
414Q229 414 187 377T134 274ZM170 554L128 590L282 753H310L464 590L422 554L296 669L170 554Z" />
<glyph unicode="&#xeb;" d="M317 -12Q196 -12 127 54T57 235Q57 311 87 366T171 451T297 482Q367 482 418 454T496 374T524 251Q524 241 524 231T522 210H132Q139 136 187 96T319 56Q403 56 478 105L509 46Q464 16 417 2T317 -12ZM134 274H451Q444 340 404 377T296
414Q229 414 187 377T134 274ZM189 587Q161 587 142 606T123 653Q123 681 142 700T189 719Q217 719 236 700T255 653Q255 625 236 606T189 587ZM405 587Q377 587 358 606T339 653Q339 681 358 700T405 719Q433 719 452 700T471 653Q471 625 452 606T405 587Z" />
<glyph unicode="&#xec;" d="M254 0V404H54V470H326V66H526V0H254ZM570 554L409 701L468 753L612 590L570 554Z" />
<glyph unicode="&#xed;" d="M254 0V404H54V470H326V66H526V0H254ZM501 554L459 590L603 753L662 701L501 554Z" />
<glyph unicode="&#xee;" d="M254 0V404H54V470H326V66H526V0H254ZM409 554L367 590L521 753H549L703 590L661 554L535 669L409 554Z" />
<glyph unicode="&#xef;" d="M254 0V404H54V470H326V66H526V0H254ZM428 587Q400 587 381 606T362 653Q362 681 381 700T428 719Q456 719 475 700T494 653Q494 625 475 606T428 587ZM644 587Q616 587 597 606T578 653Q578 681 597 700T644 719Q672 719 691 700T710
653Q710 625 691 606T644 587Z" />
<glyph unicode="&#xf0;" d="M282 -12Q211 -12 159 16T78 95T49 212Q49 279 78 328T159 405T278 433Q328 433 367 417T438 368H440Q415 473 343 545L145 463L123 521L296 585Q260 611 217 629T125 657L143 722Q208 709 265 681T368 613L474 660L496 602L411 571Q464
512 494 435T525 266Q525 177 495 115T411 21T282 -12ZM284 56Q364 56 407 107T451 265V275Q418 324 381 345T290 366Q210 366 167 325T123 213Q123 140 165 98T284 56Z" />
<glyph unicode="&#xf1;" d="M89 0V470H143L151 420Q192 451 236 466T329 482Q412 482 454 438T497 305V0H425V294Q425 357 399 385T317 414Q277 414 237 401T161 361V0H89ZM188 576L134 586Q146 649 171 683T239 718Q267 718 286 705T320 678Q331 668 342 660T364
652Q378 652 391 668T412 728L466 718Q454 655 429 621T361 586Q333 586 314 599T280 626Q269 637 258 644T236 652Q222 652 209 636T188 576Z" />
<glyph unicode="&#xf2;" d="M290 -12Q219 -12 165 19T82 105T52 235Q52 309 81 364T165 451T290 482Q362 482 415 451T498 365T528 235Q528 161 499 106T416 19T290 -12ZM290 56Q367 56 410 104T454 235Q454 318 411 366T290 414Q214 414 170 366T126 235Q126
152 170 104T290 56ZM580 554L419 701L478 753L622 590L580 554Z" />
<glyph unicode="&#xf3;" d="M290 -12Q219 -12 165 19T82 105T52 235Q52 309 81 364T165 451T290 482Q362 482 415 451T498 365T528 235Q528 161 499 106T416 19T290 -12ZM290 56Q367 56 410 104T454 235Q454 318 411 366T290 414Q214 414 170 366T126 235Q126
152 170 104T290 56ZM255 554L213 590L357 753L416 701L255 554Z" />
<glyph unicode="&#xf4;" d="M290 -12Q219 -12 165 19T82 105T52 235Q52 309 81 364T165 451T290 482Q362 482 415 451T498 365T528 235Q528 161 499 106T416 19T290 -12ZM290 56Q367 56 410 104T454 235Q454 318 411 366T290 414Q214 414 170 366T126 235Q126
152 170 104T290 56ZM419 554L377 590L531 753H559L713 590L671 554L545 669L419 554Z" />
<glyph unicode="&#xf5;" d="M290 -12Q219 -12 165 19T82 105T52 235Q52 309 81 364T165 451T290 482Q362 482 415 451T498 365T528 235Q528 161 499 106T416 19T290 -12ZM290 56Q367 56 410 104T454 235Q454 318 411 366T290 414Q214 414 170 366T126 235Q126
152 170 104T290 56ZM178 576L124 586Q136 649 161 683T229 718Q257 718 276 705T310 678Q321 668 332 660T354 652Q368 652 381 668T402 728L456 718Q444 655 419 621T351 586Q323 586 304 599T270 626Q259 637 248 644T226 652Q212 652 199 636T178 576Z" />
<glyph unicode="&#xf6;" d="M290 -12Q219 -12 165 19T82 105T52 235Q52 309 81 364T165 451T290 482Q362 482 415 451T498 365T528 235Q528 161 499 106T416 19T290 -12ZM290 56Q367 56 410 104T454 235Q454 318 411 366T290 414Q214 414 170 366T126 235Q126
152 170 104T290 56ZM182 587Q154 587 135 606T116 653Q116 681 135 700T182 719Q210 719 229 700T248 653Q248 625 229 606T182 587ZM398 587Q370 587 351 606T332 653Q332 681 351 700T398 719Q426 719 445 700T464 653Q464 625 445 606T398 587Z" />
<glyph unicode="&#xf7;" d="M50 242V308H530V242H50ZM290 10Q264 10 246 28T227 74Q227 99 245 117T290 136Q316 136 334 118T353 74Q353 47 335 29T290 10ZM290 414Q264 414 246 432T227 477Q227 503 245 521T290 540Q316 540 334 522T353 477Q353 451 335 433T290 414Z" />
<glyph unicode="&#xf8;" d="M290 -12Q219 -12 165 19T82 105T52 235Q52 309 81 364T165 451T290 482Q362 482 415 451T498 365T528 235Q528 161 499 106T416 19T290 -12ZM290 56Q367 56 410 104T454 235Q454 318 411 366T290 414Q214 414 170 366T126 235Q126
152 170 104T290 56ZM87 -12L43 32L493 482L537 438L87 -12Z" />
<glyph unicode="&#xf9;" d="M251 -12Q169 -12 126 32T83 165V470H155V176Q155 113 181 85T263 56Q304 56 344 70T419 109V470H491V0H437L429 50Q389 19 345 4T251 -12ZM580 554L419 701L478 753L622 590L580 554Z" />
<glyph unicode="&#xfa;" d="M251 -12Q169 -12 126 32T83 165V470H155V176Q155 113 181 85T263 56Q304 56 344 70T419 109V470H491V0H437L429 50Q389 19 345 4T251 -12ZM255 554L213 590L357 753L416 701L255 554Z" />
<glyph unicode="&#xfb;" d="M251 -12Q169 -12 126 32T83 165V470H155V176Q155 113 181 85T263 56Q304 56 344 70T419 109V470H491V0H437L429 50Q389 19 345 4T251 -12ZM419 554L377 590L531 753H559L713 590L671 554L545 669L419 554Z" />
<glyph unicode="&#xfc;" d="M251 -12Q169 -12 126 32T83 165V470H155V176Q155 113 181 85T263 56Q304 56 344 70T419 109V470H491V0H437L429 50Q389 19 345 4T251 -12ZM182 587Q154 587 135 606T116 653Q116 681 135 700T182 719Q210 719 229 700T248 653Q248
625 229 606T182 587ZM398 587Q370 587 351 606T332 653Q332 681 351 700T398 719Q426 719 445 700T464 653Q464 625 445 606T398 587Z" />
<glyph unicode="&#xfd;" d="M128 -222Q62 -222 11 -191L37 -130Q78 -154 124 -154Q168 -154 193 -132T240 -55L258 -10L57 470H136L295 83L449 470H523L302 -85Q272 -161 234 -191T128 -222ZM510 554L468 590L612 753L671 701L510 554Z" />
<glyph unicode="&#xfe;" d="M81 -210V710H153V427Q231 482 316 482Q411 482 466 415T522 235Q522 122 467 55T316 -12Q274 -12 233 2T153 43V-210H81ZM304 56Q372 56 410 104T448 235Q448 318 410 366T304 414Q267 414 227 400T153 361V109Q186 84 226 70T304 56Z" />
<glyph unicode="&#xff;" d="M128 -222Q62 -222 11 -191L37 -130Q78 -154 124 -154Q168 -154 193 -132T240 -55L258 -10L57 470H136L295 83L449 470H523L302 -85Q272 -161 234 -191T128 -222ZM437 587Q409 587 390 606T371 653Q371 681 390 700T437 719Q465 719
484 700T503 653Q503 625 484 606T437 587ZM653 587Q625 587 606 606T587 653Q587 681 606 700T653 719Q681 719 700 700T719 653Q719 625 700 606T653 587Z" />
<glyph unicode="&#x2013;" d="M60 242V308H520V242H60Z" />
<glyph unicode="&#x2014;" d="M0 242V308H580V242H0Z" />
<glyph unicode="&#x2018;" d="M377 662L389 613Q336 600 309 566T274 478Q278 479 281 479T289 480Q318 480 337 460T356 409Q356 379 336 357T283 335Q253 335 230 357T206 434Q206 477 224 524T279 609T377 662Z" />
<glyph unicode="&#x2019;" d="M205 335L193 384Q246 398 273 432T308 519Q304 518 301 518T293 517Q265 517 246 537T226 588Q226 618 246 640T299 662Q329 662 352 641T376 563Q376 520 359 473T303 389T205 335Z" />
<glyph unicode="&#x201a;" d="M194 -189L182 -140Q235 -126 262 -92T297 -5Q293 -6 290 -6T282 -7Q254 -7 235 13T215 64Q215 94 235 116T288 138Q318 138 341 117T365 39Q365 -4 348 -51T292 -135T194 -189Z" />
<glyph unicode="&#x201c;" d="M254 662L266 613Q213 600 186 566T151 478Q155 479 158 479T166 480Q195 480 214 460T233 409Q233 379 213 357T160 335Q130 335 107 357T83 434Q83 477 101 524T156 609T254 662ZM500 662L512 613Q459 600 432 566T397 478Q401
479 404 479T412 480Q441 480 460 460T479 409Q479 379 459 357T406 335Q376 335 353 357T329 434Q329 477 347 524T402 609T500 662Z" />
<glyph unicode="&#x201d;" d="M328 335L316 384Q369 398 396 432T431 519Q427 518 424 518T416 517Q388 517 369 537T349 588Q349 618 369 640T422 662Q452 662 475 641T499 563Q499 520 482 473T426 389T328 335ZM82 335L70 384Q123 398 150 432T185 519Q181
518 178 518T170 517Q142 517 123 537T103 588Q103 618 123 640T176 662Q206 662 229 641T253 563Q253 520 236 473T180 389T82 335Z" />
<glyph unicode="&#x201e;" d="M317 -189L305 -140Q358 -126 385 -92T420 -5Q416 -6 413 -6T405 -7Q377 -7 358 13T338 64Q338 94 358 116T411 138Q441 138 464 117T488 39Q488 -4 471 -51T415 -135T317 -189ZM327 -189L315 -140Q368 -126 395 -92T430 -5Q426 -6
423 -6T415 -7Q387 -7 368 13T348 64Q348 94 368 116T421 138Q451 138 474 117T498 39Q498 -4 481 -51T425 -135T327 -189Z" />
<glyph unicode="&#x2022;" d="M290 145Q253 145 223 163T174 212T155 280Q155 316 173 347T222 396T290 415Q327 415 357 397T406 347T425 280Q425 243 407 212T358 163T290 145Z" />
<glyph unicode="&#x2039;" d="M388 57L164 208V262L388 413L414 377L259 235L414 93L388 57Z" />
<glyph unicode="&#x203a;" d="M192 57L166 93L321 235L166 377L192 413L416 262V208L192 57Z" />
</font>
</defs>
</svg>
