<?xml version="1.0" standalone="no"?>
<!DOCTYPE svg PUBLIC "-//W3C//DTD SVG 1.1//EN" "http://www.w3.org/Graphics/SVG/1.1/DTD/svg11.dtd">
<svg xmlns="http://www.w3.org/2000/svg">
<defs >
<font id="Trispace" horiz-adv-x="1218" ><font-face
    font-family="Trispace Thin"
    units-per-em="2000"
    panose-1="0 0 0 0 0 0 0 0 0 0"
    ascent="1830"
    descent="-430"
    alphabetic="0" />
<glyph unicode=" " horiz-adv-x="1000" />
<glyph unicode="!" horiz-adv-x="1000" d="M435 414L403 1400H634L601 414H435ZM407 227H625V0H407V227Z" />
<glyph unicode="&quot;" horiz-adv-x="1300" d="M640 937L598 1400H811L770 937H640ZM778 937L736 1400H949L908 937H778Z" />
<glyph unicode="#" horiz-adv-x="1800" d="M1033 0L1195 1400H1371L1209 0H1033ZM160 367L178 518H1488L1469 367H160ZM368 0L530 1400H706L544 0H368ZM226 880L244 1031H1554L1535 880H226Z" />
<glyph unicode="$" horiz-adv-x="1300" d="M588 0V283H742V0H588ZM588 1145V1400H742V1145H588ZM660 184Q553 184 465 207T314 271T216 361L374 469Q390 440 417 417T482 375T567 347T668 337Q720 337 766 346T847 374T903 423T923 496Q923 548 881 578T769 627T610
657Q544 667 480 686T362 740T276 825T244 951Q244 1010 269 1056T337 1135T435 1189T552 1220T675 1230Q778 1230 859 1204T996 1137T1077 1055L923 955Q910 982 885 1004T825 1043T750 1069T664 1078Q629 1078 588 1073T510 1053T451 1013T427 949Q427 903 462
875T558 829T695 800Q746 792 803 780T915 748T1014 697T1085 619T1112 507Q1112 440 1087 388T1018 297T917 233T794 196T660 184Z" />
<glyph unicode="%" horiz-adv-x="1300" d="M111 0L991 1400H1141L261 0H111ZM929 9Q867 9 813 34T724 118T690 274Q690 370 724 428T812 511T929 537Q991 537 1046 512T1135 428T1169 274Q1169 177 1135 119T1046 35T929 9ZM929 117Q961 117 987 131T1028 180T1043
274Q1043 333 1028 367T987 415T929 429Q898 429 872 415T831 367T815 274Q815 214 830 180T872 132T929 117ZM330 849Q269 849 214 874T125 958T91 1114Q91 1210 125 1268T214 1351T330 1377Q392 1377 447 1352T536 1268T570 1114Q570 1017 536 959T447 875T330
849ZM330 957Q362 957 388 971T429 1020T445 1114Q445 1173 430 1207T388 1255T330 1269Q299 1269 273 1255T232 1207T217 1114Q217 1054 232 1020T273 972T330 957Z" />
<glyph unicode="&amp;" horiz-adv-x="1700" d="M737 -16Q582 -16 469 32T292 168T229 375Q229 466 269 535T376 657T526 753T696 833Q806 881 863 922T942 1008T964 1115Q964 1162 950 1192T911 1239T855 1264T791 1271Q759 1271 729 1263T674 1236T637 1189T623
1119Q623 1079 640 1035T682 949T732 872T774 817L1427 0H1224L654 710Q623 749 590 795T527 893T479 1002T461 1119Q461 1193 488 1248T562 1339T668 1394T792 1412Q858 1412 918 1395T1027 1342T1102 1249T1130 1112Q1130 1022 1089 950T969 818T775 709Q704
678 641 645T528 574T451 488T423 380Q423 330 443 286T503 208T603 153T744 133Q824 133 895 152T1026 208T1129 299T1196 426T1220 589H1396Q1396 480 1362 387T1267 219T1123 93T942 12T737 -16Z" />
<glyph unicode="&apos;" horiz-adv-x="1000" d="M461 937L419 1400H632L591 937H461Z" />
<glyph unicode="(" horiz-adv-x="1300" d="M871 -448Q844 -420 799 -365T702 -224T605 -21T530 248T501 588Q501 778 530 929T606 1198T703 1399T800 1538T873 1621L1021 1519Q1003 1502 966 1455T882 1329T795 1143T727 896T699 588Q699 420 725 282T793 36T879
-150T961 -278T1019 -347L871 -448Z" />
<glyph unicode=")" horiz-adv-x="1300" d="M437 -448L289 -347Q308 -327 346 -278T428 -151T514 36T582 282T608 588Q608 757 581 896T513 1143T426 1329T342 1454T287 1519L435 1621Q462 1593 507 1539T604 1400T701 1198T776 930T806 588Q806 400 777 248T703
-21T606 -223T510 -364T437 -448Z" />
<glyph unicode="*" horiz-adv-x="1300" d="M722 1028L571 1257L661 1329L834 1106L722 1028ZM474 1028L362 1106L536 1329L625 1257L474 1028ZM571 1257L292 1335L337 1467L598 1374L571 1257ZM598 1248Q569 1248 549 1266T528 1312Q528 1336 548 1356T598 1377Q627
1377 646 1357T666 1312Q666 1285 647 1267T598 1248ZM536 1329L527 1600H671L661 1329H536ZM625 1257L598 1374L859 1467L904 1335L625 1257Z" />
<glyph unicode="+" horiz-adv-x="1300" d="M524 218V996H688V218H524ZM216 526V690H994V526H216Z" />
<glyph unicode="," horiz-adv-x="1000" d="M434 -260L351 -152Q378 -140 403 -123T443 -75T459 5L601 0Q601 -76 574 -128T507 -213T434 -260ZM371 0V227H601V0H371Z" />
<glyph unicode="-" horiz-adv-x="1300" d="M350 526V690H950V526H350Z" />
<glyph unicode="." horiz-adv-x="1000" d="M379 227H598V0H379V227Z" />
<glyph unicode="/" horiz-adv-x="842" d="M87 -284L585 1600H766L268 -284H87Z" />
<glyph unicode="0" horiz-adv-x="1300" d="M647 -22Q555 -22 470 14T317 133T211 354T171 696Q171 899 210 1036T317 1257T469 1376T647 1412Q735 1412 819 1376T972 1257T1081 1037T1121 696Q1121 492 1081 354T973 134T820 15T647 -22ZM647 128Q702 128 750
158T836 255T895 431T917 696Q917 851 896 959T837 1134T751 1231T647 1262Q591 1262 542 1232T455 1135T397 960T375 696Q375 540 396 431T455 255T541 158T647 128Z" />
<glyph unicode="1" horiz-adv-x="1300" d="M237 0V152H555V1218L242 1133V1305L582 1400H753V152H1071V0H237Z" />
<glyph unicode="2" horiz-adv-x="1300" d="M160 0V150Q188 170 238 210T353 305T485 425T617 563T734 711T816 859T847 999Q847 1070 828 1118T776 1197T700 1240T608 1254Q539 1254 483 1223T389 1139T335 1021L162 1101Q190 1202 256 1271T414 1376T610 1412Q702
1412 782 1390T922 1320T1016 1192T1050 1000Q1050 912 1010 819T906 636T766 463T620 314T497 206T425 151H1046V0H160Z" />
<glyph unicode="3" horiz-adv-x="1300" d="M638 -22Q515 -22 419 14T258 112T165 255L340 346Q358 286 398 239T498 165T640 137Q720 137 785 172T888 276T927 447Q927 523 906 577T849 666T766 717T670 734Q644 734 617 729T563 715T513 695L397 816L834 1248H229V1400H1073V1248L640
831Q660 842 698 849T772 857Q833 857 894 834T1007 761T1090 634T1122 448Q1122 332 1085 244T981 97T827 8T638 -22Z" />
<glyph unicode="4" horiz-adv-x="1300" d="M736 0V314H147V467L612 1400H932V467H1145V314H932V0H736ZM347 467H736V1262H739L347 467Z" />
<glyph unicode="5" horiz-adv-x="1300" d="M609 -22Q487 -22 395 16T243 118T156 253L327 340Q340 297 374 250T466 170T612 137Q696 137 760 175T860 288T896 469Q896 567 858 635T759 737T628 772Q562 772 506 750T409 687T348 590L261 644Q275 710 313 763T407
854T532 912T677 932Q784 932 878 883T1030 731T1089 472Q1089 349 1051 257T947 102T794 9T609 -22ZM348 590L181 646L275 1400H1012V1248H430L348 590Z" />
<glyph unicode="6" horiz-adv-x="1300" d="M614 -22Q511 -22 423 17T270 139T168 350T131 656Q131 833 174 973T293 1211T470 1361T690 1413Q788 1413 854 1387T958 1326T1011 1266L888 1150Q877 1169 853 1193T789 1237T685 1256Q609 1256 544 1216T430 1096T354
902T327 639Q327 499 349 403T410 248T501 163T616 136Q693 136 755 175T855 291T893 474Q893 582 858 649T763 747T634 779Q582 779 532 760T440 702T370 608T333 479L218 531Q233 626 276 701T383 828T522 907T675 935Q789 935 881 884T1029 732T1085 480Q1085
367 1051 275T955 116T806 14T614 -22Z" />
<glyph unicode="7" horiz-adv-x="1300" d="M532 0Q532 136 552 283T607 576T687 852T785 1084T892 1248H241V1400H1098V1248Q1037 1173 983 1068T885 836T808 570T758 286T740 0H532Z" />
<glyph unicode="8" horiz-adv-x="1300" d="M646 -22Q513 -22 404 23T229 160T164 388Q164 500 208 578T326 705T483 775T646 797Q722 797 805 775T961 705T1079 579T1125 388Q1125 251 1060 160T887 24T646 -22ZM646 136Q716 136 780 162T886 246T927 398Q927
494 886 552T781 637T646 663Q575 663 511 636T404 550T362 398Q362 304 403 247T510 163T646 136ZM646 677Q575 677 500 700T361 770T258 887T218 1049Q218 1139 252 1207T345 1321T481 1390T646 1414Q730 1414 806 1391T943 1321T1037 1207T1072 1049Q1072 957
1033 887T931 771T792 701T646 677ZM646 811Q752 811 817 873T883 1040Q883 1098 862 1139T805 1206T728 1244T646 1256Q603 1256 561 1244T484 1206T428 1139T407 1040Q407 935 475 873T646 811Z" />
<glyph unicode="9" horiz-adv-x="1300" d="M564 -23Q466 -23 400 3T296 65T243 124L366 240Q377 222 401 197T466 153T569 134Q645 134 710 174T824 294T900 488T927 751Q927 890 905 985T844 1141T753 1227T638 1254Q561 1254 499 1215T399 1100T361 916Q361
809 396 742T491 643T620 611Q672 611 722 631T814 690T886 785T925 915L1036 859Q1021 764 978 689T871 562T732 483T579 455Q466 455 373 506T225 658T169 910Q169 1023 203 1115T299 1274T448 1376T640 1412Q743 1412 831 1373T984 1251T1086 1040T1123 734Q1123
557 1080 417T961 179T784 29T564 -23Z" />
<glyph unicode=":" horiz-adv-x="1000" d="M350 1000H569V773H350V1000ZM606 227H825V0H606V227Z" />
<glyph unicode=";" horiz-adv-x="1000" d="M376 999H595V772H376V999ZM678 -260L595 -152Q622 -140 647 -123T687 -75T703 5L845 0Q845 -76 818 -128T751 -213T678 -260ZM615 0V227H845V0H615Z" />
<glyph unicode="&lt;" horiz-adv-x="1300" d="M965 1072L1046 944L356 480V570L1046 106L965 -22L271 450V600L965 1072Z" />
<glyph unicode="=" horiz-adv-x="1300" d="M208 710V874H986V710H208ZM208 342V506H986V342H208Z" />
<glyph unicode="&gt;" horiz-adv-x="1300" d="M264 -22L183 106L873 570V480L183 944L264 1072L958 600V450L264 -22Z" />
<glyph unicode="?" horiz-adv-x="1300" d="M481 392V445Q481 515 501 571T553 675T625 763T703 839Q742 875 775 910T828 983T849 1062Q849 1115 829 1151T774 1209T698 1240T613 1250Q562 1250 513 1235T422 1193T347 1129T299 1047L140 1137Q165 1209 232 1271T397
1373T608 1412Q696 1412 774 1394T913 1335T1009 1229T1044 1069Q1044 1001 1016 948T945 849T852 759Q803 715 759 668T687 566T659 439V392H481ZM461 227H680V0H461V227Z" />
<glyph unicode="@" horiz-adv-x="1700" d="M732 -18Q649 -18 561 2T392 67T245 185T142 363T104 610Q104 763 146 889T266 1113T449 1277T683 1378T956 1412Q1086 1412 1201 1378T1405 1270T1543 1080T1594 802Q1594 697 1565 603T1483 436T1354 321T1186 279Q1130
279 1088 295T1021 345T992 429Q983 400 954 372T881 324T782 305Q732 305 685 322T599 378T539 478T516 628Q516 731 543 815T623 961T751 1056T921 1090Q970 1090 1012 1083T1088 1064T1140 1043Q1132 963 1123 876T1105 709T1092 574T1087 501Q1087 462 1096
436T1128 397T1186 384Q1252 384 1299 421T1375 519T1419 653T1433 799Q1433 912 1400 999T1304 1147T1151 1239T946 1270Q831 1270 729 1242T543 1159T397 1027T302 847T269 624Q269 506 302 414T400 257T556 159T766 125Q870 125 926 146T1001 179L1077 51Q1063
42 1020 25T906 -5T732 -18ZM814 441Q856 441 886 463T936 523T962 610Q963 619 967 654T976 739T986 843T995 941Q987 944 961 948T894 953Q834 953 792 927T724 856T687 755T675 637Q675 572 688 533T722 474T767 448T814 441Z" />
<glyph unicode="A" horiz-adv-x="1300" d="M1185 0H980L890 354H414L324 0H119L487 1400H817L1185 0ZM639 1248L446 506H858L665 1248H639Z" />
<glyph unicode="B" horiz-adv-x="1300" d="M222 0V1400H682Q732 1400 788 1393T898 1365T995 1306T1065 1208T1091 1058Q1091 957 1054 888T967 780T875 734Q913 730 959 710T1050 649T1122 546T1151 394Q1151 268 1104 180T969 46T763 0H222ZM420 152H701Q773
152 829 178T918 261T951 406Q951 500 912 552T815 625T700 646H420V152ZM420 798H664Q724 798 776 824T861 903T894 1032Q894 1098 877 1139T829 1205T753 1238T655 1248H420V798Z" />
<glyph unicode="C" horiz-adv-x="1300" d="M700 -22Q614 -22 531 2T373 80T242 217T153 420T121 696Q121 853 154 971T244 1174T375 1310T534 1387T704 1412Q789 1412 860 1389T990 1323T1092 1223T1163 1096L988 1009Q972 1052 948 1095T890 1175T809 1234T704
1257Q634 1257 567 1225T445 1126T358 952T325 696Q325 546 357 439T443 265T564 165T699 133Q759 133 805 156T887 215T947 294T988 376L1163 287Q1136 222 1093 166T991 67T859 2T700 -22Z" />
<glyph unicode="D" horiz-adv-x="1300" d="M197 0V1400H562Q633 1400 704 1389T842 1348T966 1268T1067 1140T1135 955T1160 700Q1160 555 1136 446T1068 260T967 132T842 52T704 12T562 0H197ZM395 152H547Q632 152 705 178T836 266T924 434T956 700Q956 860
925 966T836 1134T706 1222T547 1248H395V152Z" />
<glyph unicode="E" horiz-adv-x="1300" d="M233 0V1400H1108V1248H431V764H1028V612H431V152H1108V0H233Z" />
<glyph unicode="F" horiz-adv-x="1300" d="M279 0V1400H1104V1248H477V691H1011V539H477V0H279Z" />
<glyph unicode="G" horiz-adv-x="1300" d="M691 -22Q613 -22 532 1T377 75T244 209T151 413T117 696Q117 856 150 975T241 1178T372 1313T527 1388T689 1412Q782 1412 860 1389T999 1326T1100 1231T1156 1113L971 1036Q961 1079 938 1118T879 1189T795 1238T685
1257Q631 1257 578 1237T478 1175T395 1066T338 908T317 696Q317 544 350 437T437 263T559 164T693 133Q759 133 816 158T915 235T981 369T1005 565H679V720H1195V611Q1195 474 1168 370T1093 191T981 70T844 0T691 -22Z" />
<glyph unicode="H" horiz-adv-x="1300" d="M173 0V1400H371V804H926V1400H1124V0H926V652H371V0H173Z" />
<glyph unicode="I" horiz-adv-x="1300" d="M261 0V152H550V1248H261V1400H1039V1248H748V152H1039V0H261Z" />
<glyph unicode="J" horiz-adv-x="1300" d="M603 -22Q506 -22 423 9T277 109T181 289T147 559H345Q345 415 375 322T463 183T603 137Q687 137 744 182T831 321T860 559V1248H315V1400H1058V541Q1058 389 1025 282T930 108T786 9T603 -22Z" />
<glyph unicode="K" horiz-adv-x="1300" d="M197 0V1400H395V794H487L889 1400H1104L617 677V761L1130 0H913L487 642H395V0H197Z" />
<glyph unicode="L" horiz-adv-x="1000" d="M152 0V1400H351V152H893V0H152Z" />
<glyph unicode="M" horiz-adv-x="1700" d="M810 133L868 411L1163 1400H1277L1274 1223L938 133H810ZM131 0L275 1400H459L335 0H131ZM759 133L423 1223L422 1400H534L831 411L885 133H759ZM1362 0L1238 1400H1422L1566 0H1362Z" />
<glyph unicode="N" horiz-adv-x="1300" d="M155 0V1400H447L972 174H939V1400H1137V0H881L344 1222H353V0H155Z" />
<glyph unicode="O" horiz-adv-x="1300" d="M648 -22Q562 -22 480 3T326 83T200 222T116 424T85 696Q85 849 115 966T200 1168T325 1307T479 1386T648 1412Q734 1412 816 1387T969 1307T1094 1169T1179 967T1210 696Q1210 542 1179 425T1095 222T970 83T816 4T648
-22ZM648 133Q716 133 780 165T895 265T977 439T1008 696Q1008 845 978 951T896 1125T780 1225T648 1257Q580 1257 516 1225T400 1126T318 952T287 696Q287 546 317 440T399 265T515 165T648 133Z" />
<glyph unicode="P" horiz-adv-x="1300" d="M234 0V1400H635Q689 1400 754 1390T883 1351T1001 1271T1086 1137T1118 934Q1118 814 1086 731T1001 594T884 511T754 470T635 458H433V0H234ZM433 610H619Q664 610 715 622T813 668T888 766T917 934Q917 1038 888 1100T813
1195T716 1237T619 1248H433V610Z" />
<glyph unicode="Q" horiz-adv-x="1300" d="M567 -313V0H734V-193L704 -163H1107V-313H567ZM648 -22Q562 -22 480 3T326 83T200 222T116 424T85 696Q85 849 115 966T200 1168T325 1307T479 1386T648 1412Q734 1412 816 1387T969 1307T1094 1169T1179 967T1210 696Q1210
542 1179 425T1095 222T970 83T816 4T648 -22ZM648 133Q716 133 780 165T895 265T977 439T1008 696Q1008 845 978 951T896 1125T780 1225T648 1257Q580 1257 516 1225T400 1126T318 952T287 696Q287 546 317 440T399 265T515 165T648 133Z" />
<glyph unicode="R" horiz-adv-x="1300" d="M222 0V1400H723Q776 1400 832 1390T942 1354T1037 1286T1105 1177T1130 1019Q1130 925 1104 858T1033 745T936 673T827 635T723 623H420V0H222ZM944 0L675 679L871 700L1155 0H944ZM420 771H688Q753 771 808 795T898
872T932 1014Q932 1107 897 1157T804 1228T683 1248H420V771Z" />
<glyph unicode="S" horiz-adv-x="1300" d="M653 -22Q529 -22 424 13T245 114T137 272L328 355Q352 291 400 242T515 164T665 136Q752 136 816 164T916 245T951 370Q951 425 922 468T841 544T728 600T600 640Q508 664 432 698T299 780T212 896T181 1053Q181 1125
208 1183T282 1284T391 1355T524 1398T667 1412Q781 1412 878 1379T1042 1287T1134 1154L947 1070Q926 1129 886 1170T788 1232T660 1254Q607 1254 559 1242T472 1205T411 1144T388 1058Q388 989 425 941T527 861T679 806Q746 788 814 765T944 708T1054 630T1131
524T1159 385Q1159 301 1132 235T1056 121T944 41T806 -6T653 -22Z" />
<glyph unicode="T" horiz-adv-x="1300" d="M550 0V1248H141V1400H1157V1248H748V0H550Z" />
<glyph unicode="U" horiz-adv-x="1300" d="M652 -22Q552 -22 463 9T306 107T200 282T161 544V1400H359V553Q359 410 394 318T495 182T652 137Q743 137 808 181T908 318T943 553V1400H1141V544Q1141 391 1103 283T998 107T842 9T652 -22Z" />
<glyph unicode="V" horiz-adv-x="1300" d="M473 0L111 1400H315L630 152H638L952 1400H1157L795 0H473Z" />
<glyph unicode="W" horiz-adv-x="1700" d="M1104 0L850 1132L823 1391H942L1230 138L1212 0H1104ZM341 0L90 1400H299L486 144L505 0H341ZM481 0L467 138L758 1391H877L854 1132L595 0H481ZM1188 0L1210 144L1401 1400H1610L1358 0H1188Z" />
<glyph unicode="X" horiz-adv-x="1300" d="M123 0L445 689L123 1400H343L621 768H657L946 1400H1166L833 689L1166 0H946L656 616H621L343 0H123Z" />
<glyph unicode="Y" horiz-adv-x="1300" d="M542 0V513L124 1400H331L641 698L949 1400H1156L740 513V0H542Z" />
<glyph unicode="Z" horiz-adv-x="1300" d="M208 0V152L873 1248H224V1400H1075V1248L410 152H1091V0H208Z" />
<glyph unicode="[" horiz-adv-x="1300" d="M484 -411V1611H982V1448H682V-248H982V-411H484Z" />
<glyph unicode="\" horiz-adv-x="843" d="M585 -284L87 1600H269L767 -284H585Z" />
<glyph unicode="]" horiz-adv-x="1300" d="M819 -411H321V-248H621V1448H321V1611H819V-411Z" />
<glyph unicode="^" horiz-adv-x="1300" d="M334 1120L533 1600H759L958 1120H793L656 1459H636L499 1120H334Z" />
<glyph unicode="_" horiz-adv-x="1300" d="M-5 -280V-116H1305V-280H-5Z" />
<glyph unicode="`" horiz-adv-x="1300" d="M642 1128L315 1412H534L828 1128H642Z" />
<glyph unicode="a" horiz-adv-x="1300" d="M552 -22Q467 -22 396 -1T272 62T192 165T163 305Q163 372 186 423T252 512T347 573T459 608T577 620Q649 620 708 605T809 568T869 525V669Q869 724 847 762T788 823T705 856T607 867Q556 867 509 857T421 832T348 798T294
764L205 911Q241 938 303 964T446 1007T621 1024Q682 1024 745 1014T865 981T968 920T1040 826T1066 694V152H1215V0H906L887 128Q869 95 825 61T712 2T552 -22ZM601 129Q676 129 730 152T819 206T869 263V387Q851 412 811 436T717 476T610 492Q547 492 490 474T395
417T358 314Q358 250 388 209T473 149T601 129Z" />
<glyph unicode="b" horiz-adv-x="1300" d="M225 0V1500H423V225L401 0H225ZM728 -22Q634 -22 562 17T439 120T364 257T338 397L419 424Q424 370 444 319T497 227T575 162T676 137Q751 137 814 177T916 298T955 502Q955 627 918 706T819 824T683 863Q627 863 582
841T503 780T448 696T416 600L340 627Q340 691 367 760T445 888T570 985T738 1022Q843 1022 938 968T1093 798T1153 502Q1153 367 1117 268T1019 105T883 9T728 -22Z" />
<glyph unicode="c" horiz-adv-x="1300" d="M703 -22Q634 -22 564 -3T431 55T318 157T239 304T210 502Q210 615 239 701T317 848T430 948T564 1005T703 1024Q784 1024 851 1004T972 949T1063 870T1120 775L944 694Q932 734 903 775T824 843T708 871Q657 871 606
851T511 786T443 671T417 502Q417 405 442 335T511 220T605 153T708 131Q776 131 824 157T902 223T943 301L1120 219Q1101 174 1064 131T974 54T852 -1T703 -22Z" />
<glyph unicode="d" horiz-adv-x="1300" d="M536 -22Q457 -22 382 9T245 104T148 268T111 502Q111 682 171 797T326 967T526 1022Q620 1022 693 985T818 889T896 760T923 627L848 600Q838 649 817 695T761 780T682 840T581 863Q507 863 445 825T346 707T309 502Q309
379 347 298T449 177T588 137Q643 137 688 161T767 227T820 319T845 424L926 397Q926 331 900 258T824 121T702 18T536 -22ZM1039 1500V64L950 153H1197V0H863L840 210V1500H1039Z" />
<glyph unicode="e" horiz-adv-x="1300" d="M652 -22Q562 -22 474 9T313 105T198 268T155 502Q155 637 198 736T313 898T475 993T656 1024Q752 1024 840 994T996 905T1105 757T1145 549Q1145 530 1144 507T1138 467H313V594H936Q936 600 936 602T936 610Q936 691
898 750T797 840T659 872Q605 872 552 852T455 787T385 673T358 503Q358 380 401 298T514 173T663 131Q737 131 791 154T879 213T925 283L1107 192Q1084 150 1044 112T946 43T815 -4T652 -22Z" />
<glyph unicode="f" horiz-adv-x="1000" d="M334 0V1125Q334 1241 370 1317T465 1437T596 1499T738 1518Q808 1518 855 1506T929 1479V1324Q904 1339 866 1352T764 1366Q722 1366 681 1356T606 1318T552 1237T532 1097V0H334ZM73 848V1000H915V848H73Z" />
<glyph unicode="g" horiz-adv-x="1300" d="M649 -424Q549 -424 470 -398T335 -324T249 -217T219 -89H417Q417 -112 429 -142T470 -202T543 -250T653 -269Q739 -269 797 -228T884 -114T914 54V789L923 1000H1112V69Q1112 -26 1091 -103T1029 -241T931 -342T803
-403T649 -424ZM612 -22Q533 -22 458 9T321 104T224 268T187 502Q187 682 247 797T402 967T602 1022Q696 1022 769 985T894 889T972 760T999 627L924 600Q914 649 893 695T837 780T758 840T657 863Q583 863 521 825T422 707T385 502Q385 379 423 298T525 177T664
137Q719 137 764 161T843 227T896 319T921 424L1002 397Q1002 331 976 258T900 121T778 18T612 -22Z" />
<glyph unicode="h" horiz-adv-x="1300" d="M233 0V1500H431V0H233ZM892 0V565Q892 671 870 736T802 832T685 863Q634 863 589 843T508 787T450 704T425 604L369 622Q369 697 393 768T465 897T584 989T749 1023Q827 1023 890 999T997 924T1066 791T1090 595V0H892Z" />
<glyph unicode="i" horiz-adv-x="1000" d="M87 0V152H415V848H133V1000H613V152H924V0H87ZM409 1417H617V1190H409V1417Z" />
<glyph unicode="j" horiz-adv-x="1000" d="M97 -400V-241H172Q244 -241 301 -221T399 -162T461 -62T483 79V848H125V1000H681V45Q681 -67 645 -150T542 -289T385 -372T189 -400H97ZM476 1417H684V1190H476V1417Z" />
<glyph unicode="k" horiz-adv-x="1300" d="M265 0V1500H463V599H599V448H463V0H265ZM916 0L443 534L646 561L1155 0H916ZM647 499L461 548L911 1000H1149L647 499Z" />
<glyph unicode="l" horiz-adv-x="1000" d="M80 0V152H390V1348H138V1500H589V152H907V0H80Z" />
<glyph unicode="m" horiz-adv-x="1700" d="M1377 0V603Q1377 733 1332 798T1182 863Q1116 863 1061 827T971 734T933 613L857 628Q857 702 887 772T971 899T1097 989T1254 1023Q1360 1023 1431 982T1539 853T1575 626V0H1377ZM98 0V1000H279L296 794V0H98ZM737
0V603Q737 733 691 798T542 863Q476 863 421 827T332 734T295 613L219 628Q220 702 250 772T334 899T459 989T614 1023Q774 1023 854 933T935 658V0H737Z" />
<glyph unicode="n" horiz-adv-x="1300" d="M225 0V1000H402L424 795V0H225ZM885 0V565Q885 671 863 736T795 832T678 863Q627 863 582 843T501 787T443 704T418 604L362 622Q362 697 386 768T458 897T577 989T742 1023Q820 1023 883 999T991 924T1060 791T1084
595V0H885Z" />
<glyph unicode="o" horiz-adv-x="1300" d="M655 -22Q589 -22 520 -5T386 51T271 150T190 299T160 502Q160 617 189 704T270 852T386 951T519 1006T655 1024Q721 1024 790 1007T924 951T1040 852T1121 704T1151 502Q1151 386 1121 299T1040 151T925 51T791 -4T655
-22ZM655 131Q705 131 756 149T850 211T921 325T949 502Q949 606 922 676T851 790T756 852T655 871Q606 871 555 852T460 790T389 677T362 502Q362 397 389 326T459 211T554 150T655 131Z" />
<glyph unicode="p" horiz-adv-x="1300" d="M201 -400V1000H378L399 832V-400H201ZM704 -22Q611 -22 539 17T416 120T340 257T314 397L395 424Q400 370 420 319T473 227T551 162T652 137Q727 137 790 177T892 298T931 502Q931 627 894 706T795 824T659 863Q603
863 558 841T479 780T424 696T392 600L317 627Q317 691 343 760T421 888T546 985T714 1022Q819 1022 914 968T1069 798T1129 502Q1129 367 1093 268T995 105T859 9T704 -22Z" />
<glyph unicode="q" horiz-adv-x="1300" d="M1061 -400H863V832L884 1000H1061V-400ZM558 -22Q479 -22 404 9T267 104T170 268T133 502Q133 682 193 797T348 967T548 1022Q642 1022 715 985T840 889T918 760T945 627L870 600Q860 649 839 695T783 780T704 840T603
863Q529 863 467 825T368 707T331 502Q331 379 369 298T471 177T610 137Q665 137 710 161T789 227T842 319T867 424L948 397Q948 331 922 258T846 121T724 18T558 -22Z" />
<glyph unicode="r" horiz-adv-x="1300" d="M247 0V152H458V848H247V1000H619L656 753V152H897V0H247ZM653 582L573 614Q575 679 599 739T665 852T760 942T876 1002T1005 1024Q1072 1024 1106 1013T1152 994L1107 824Q1097 832 1065 841T980 851Q924 851 870 828T770
767T694 680T653 582Z" />
<glyph unicode="s" horiz-adv-x="1300" d="M647 -22Q540 -22 452 1T301 64T203 155L361 263Q377 234 404 211T470 169T554 141T655 131Q707 131 753 140T834 168T890 217T910 290Q910 342 868 372T756 421T597 451Q531 461 467 480T349 534T263 619T231 745Q231
804 256 850T324 929T422 983T539 1014T662 1024Q765 1024 846 998T983 931T1064 849L911 749Q897 776 872 798T812 837T737 863T651 872Q616 872 575 867T497 847T438 807T415 743Q415 697 450 669T545 623T682 594Q733 586 790 574T902 542T1001 491T1072 413T1099
301Q1099 234 1074 182T1005 91T904 27T781 -10T647 -22Z" />
<glyph unicode="t" horiz-adv-x="1300" d="M388 287V1317H587V293Q587 227 605 189T656 135T728 118Q769 118 804 134T860 189T881 298H1044Q1044 210 1016 150T941 52T833 -2T706 -19Q638 -19 581 -3T480 49T413 145T388 287ZM141 848V1000H1053V848H141Z" />
<glyph unicode="u" horiz-adv-x="1300" d="M536 -23Q459 -23 396 1T288 76T219 209T195 405V1000H393V435Q393 329 415 264T483 168T600 137Q651 137 696 157T777 213T835 296T860 396L916 378Q916 303 892 232T820 103T701 11T536 -23ZM892 0L855 214V1000H1053V105L1014
152H1171V0H892Z" />
<glyph unicode="v" horiz-adv-x="1300" d="M489 0L145 1000H355L635 163H653L933 1000H1143L799 0H489Z" />
<glyph unicode="w" horiz-adv-x="1700" d="M1094 0L812 1000H959L1241 0H1094ZM343 0L140 1000H339L513 0H343ZM460 0L741 1000H888L607 0H460ZM1187 0L1361 1000H1560L1357 0H1187Z" />
<glyph unicode="x" horiz-adv-x="1300" d="M127 0L488 501L127 1000H351L652 578H643L945 1000H1169L807 501L1169 0H945L643 426H652L351 0H127Z" />
<glyph unicode="y" horiz-adv-x="1300" d="M433 -400L609 46L665 -6H531L160 1000H366L675 115H638L943 1000H1146L632 -400H433Z" />
<glyph unicode="z" horiz-adv-x="1300" d="M219 0V152L800 848H235V1000H1025V848L449 152H1031V0H219Z" />
<glyph unicode="{" horiz-adv-x="1300" d="M335 591V677H350Q410 677 444 705T493 786T507 913V1261Q507 1350 534 1417T612 1531T732 1601T890 1625H956V1472H918Q848 1472 798 1449T721 1370T694 1214V842Q694 754 668 703T603 628T521 598T446 591H335ZM890
-436Q803 -436 733 -413T612 -343T535 -228T507 -72V275Q507 350 493 403T445 484T350 512H335V597H446Q479 597 521 591T602 561T668 487T694 347V-25Q694 -125 721 -181T798 -260T918 -283H956V-436H890Z" />
<glyph unicode="|" horiz-adv-x="1300" d="M568 -360V1600H733V-360H568Z" />
<glyph unicode="}" horiz-adv-x="1300" d="M957 591H846Q813 591 771 597T689 628T624 703T598 842V1214Q598 1314 571 1370T494 1449T374 1472H335V1625H401Q488 1625 559 1602T680 1532T757 1418T785 1261V913Q785 839 799 786T847 705T942 677H957V591ZM401
-436H335V-283H374Q444 -283 494 -260T571 -181T598 -25V347Q598 436 623 486T689 560T771 590T846 597H957V512H942Q881 512 847 484T799 403T785 275V-72Q785 -160 758 -228T680 -342T559 -412T401 -436Z" />
<glyph unicode="~" horiz-adv-x="1300" d="M730 648Q672 648 635 667T569 712T514 757T447 776Q392 776 351 743T291 678L183 769Q188 779 208 802T260 851T338 895T440 913Q498 913 535 894T601 848T656 803T723 783Q778 783 818 817T875 883L983 790Q978 779
959 756T907 708T831 666T730 648Z" />
<glyph unicode="&#xa0;" horiz-adv-x="1000" />
<glyph unicode="&#xa1;" horiz-adv-x="1000" d="M572 586L605 -400H374L407 586H572ZM601 773H382V1000H601V773Z" />
<glyph unicode="&#xa2;" horiz-adv-x="1300" d="M663 170Q562 170 472 198T310 289T199 451T158 694Q158 839 198 939T310 1100T471 1188T663 1216Q797 1216 904 1159T1082 973L912 885Q888 931 854 970T771 1033T652 1057Q594 1057 541 1037T446 974T381 862T357
694Q357 597 380 528T445 415T540 350T652 329Q720 329 771 351T859 409T916 484L1086 395Q1040 319 976 269T832 195T663 170ZM564 0V231H731V0H564ZM564 1160V1400H731V1160H564Z" />
<glyph unicode="&#xa3;" horiz-adv-x="1300" d="M99 620V772H892V620H99ZM335 105L164 113Q195 137 225 176T281 265T321 371T336 485Q336 554 321 618T285 746Q266 810 251 875T236 1010Q236 1101 271 1175T369 1302T516 1383T695 1412Q804 1412 880 1382T1006
1306T1083 1212L933 1121Q914 1155 883 1184T805 1231T695 1249Q650 1249 605 1237T524 1195T465 1116T442 993Q442 939 454 883T484 769Q502 707 516 642T531 509Q531 412 508 334T440 198T335 105ZM238 -27L164 113Q166 113 184 113T229 114T287 116T342 118Q364
132 396 145T472 167T571 176Q616 176 650 169T715 153Q744 144 773 138T842 131Q896 131 941 141T1013 162L1062 3Q1035 -6 975 -16T842 -26Q790 -26 745 -18T656 1Q618 11 582 17T507 23Q451 23 393 13T292 -10T238 -27Z" />
<glyph unicode="&#xa4;" horiz-adv-x="1300" d="M659 338Q582 338 507 359T372 428T275 551T239 740Q239 852 275 928T371 1051T507 1119T659 1140Q735 1140 809 1119T944 1052T1041 929T1077 740Q1077 628 1041 552T945 428T810 360T659 338ZM261 239L160 344L342
522L445 421L261 239ZM1057 242L875 424L977 524L1159 347L1057 242ZM659 496Q694 496 734 505T812 538T872 612T896 740Q896 819 873 867T812 939T735 973T659 982Q624 982 583 973T504 940T444 867T420 740Q420 661 443 612T504 539T582 505T659 496ZM342 960L160
1137L261 1242L445 1060L342 960ZM977 957L875 1059L1057 1240L1159 1135L977 957Z" />
<glyph unicode="&#xa5;" horiz-adv-x="1300" d="M258 513V649H1023V513H258ZM258 229V365H1023V229H258ZM542 0V513L124 1400H331L641 698L949 1400H1156L740 513V0H542Z" />
<glyph unicode="&#xa6;" horiz-adv-x="1300" d="M511 906V1600H679V906H511ZM511 -360V326H679V-360H511Z" />
<glyph unicode="&#xa7;" horiz-adv-x="1300" d="M577 -218Q463 -218 370 -190T212 -112T123 5L283 84Q299 44 337 10T436 -47T577 -69Q637 -69 688 -60T776 -31T834 21T855 100Q855 131 839 157T796 205T734 243T660 272T584 291Q535 301 480 316T371 354T274
413T204 499T177 616Q177 683 214 733T311 818T438 874T569 905L699 804Q690 806 681 806T660 807Q629 807 590 801T511 781T438 746T385 696T364 627Q364 588 385 556T442 500T519 461T605 437Q642 430 696 416T810 376T922 313T1006 221T1039 95Q1039 25 1013
-27T942 -117T838 -176T712 -208T577 -218ZM740 291L585 360Q622 364 660 376T735 407T799 451T844 508T861 576Q861 614 845 644T800 697T736 736T660 763T582 781Q544 787 495 802T395 843T303 907T235 998T209 1119Q209 1183 234 1231T302 1314T399 1370T511
1402T625 1412Q727 1412 813 1386T959 1313T1041 1200L879 1120Q860 1167 824 1198T736 1246T621 1262Q578 1262 537 1255T462 1231T409 1186T389 1112Q389 1073 408 1044T459 992T530 957T607 936Q644 929 699 915T814 875T926 811T1012 717T1045 587Q1045 531
1024 487T969 409T894 352T813 313T740 291Z" />
<glyph unicode="&#xa8;" horiz-adv-x="1300" d="M296 1369H503V1141H296V1369ZM759 1369H966V1141H759V1369Z" />
<glyph unicode="&#xa9;" horiz-adv-x="1300" d="M643 106Q573 106 496 125T347 185T217 295T124 463T89 698Q89 832 123 931T216 1098T347 1208T496 1269T643 1288Q712 1288 788 1269T937 1209T1067 1099T1159 931T1194 698Q1194 563 1160 464T1067 296T937 186T789
125T643 106ZM659 388Q585 388 517 418T406 515T363 696Q363 810 406 877T517 974T659 1004Q727 1004 775 980T853 919T894 850L789 805Q776 840 741 867T655 894Q603 894 565 869T506 800T484 696Q484 638 505 594T565 524T655 499Q706 499 739 524T787 574L892
529Q879 497 847 464T767 410T659 388ZM643 226Q701 226 760 241T873 290T969 379T1036 513T1061 698Q1061 803 1037 882T970 1015T873 1103T760 1152T643 1168Q584 1168 524 1153T410 1104T313 1016T245 882T220 698Q220 592 244 513T312 379T410 291T524 242T643
226Z" />
<glyph unicode="&#xaa;" horiz-adv-x="1000" d="M428 1051Q337 1051 284 1093T231 1208Q231 1244 248 1271T295 1318T365 1346T451 1355Q504 1355 542 1341T594 1315V1343Q594 1387 556 1408T465 1429Q415 1429 368 1417T300 1395L261 1482Q288 1495 345 1508T474
1521Q533 1521 587 1504T677 1450T713 1356V1149H777V1060H613L602 1115Q593 1103 570 1088T511 1062T428 1051ZM459 1139Q507 1139 541 1156T588 1188V1246Q574 1257 542 1267T472 1278Q417 1278 386 1260T354 1209Q354 1174 381 1157T459 1139Z" />
<glyph unicode="&#xab;" horiz-adv-x="1300" d="M558 170L116 526L188 645L643 267L558 170ZM116 526V648H180V526H116ZM188 531L116 648L558 1004L643 907L188 531ZM1090 170L648 526L720 645L1175 267L1090 170ZM648 526V648H712V526H648ZM720 531L648 648L1090
1004L1175 907L720 531Z" />
<glyph unicode="&#xac;" horiz-adv-x="1300" d="M832 276V690H993V276H832ZM320 526V690H920V526H320Z" />
<glyph unicode="&#xad;" horiz-adv-x="1300" d="M412 526V690H858V526H412Z" />
<glyph unicode="&#xae;" horiz-adv-x="1300" d="M635 403Q547 403 458 429T296 514T178 668T133 902Q133 1040 177 1135T295 1288T458 1373T635 1400Q723 1400 811 1374T972 1289T1090 1135T1135 902Q1135 765 1091 670T973 516T811 430T635 403ZM740 649L633
883L717 888L839 649H740ZM635 504Q699 504 767 522T892 585T985 707T1021 902Q1021 1019 986 1096T893 1217T767 1280T635 1299Q570 1299 502 1281T376 1218T282 1096T246 902Q246 785 281 708T375 586T501 523T635 504ZM473 649V1158H661Q696 1158 731 1146T790
1102T815 1009Q815 943 787 911T721 869T658 858H566V649H473ZM566 934H643Q680 934 703 952T726 1009Q726 1047 704 1064T643 1081H566V934Z" />
<glyph unicode="&#xaf;" horiz-adv-x="1300" d="M267 1290V1430H931V1290H267Z" />
<glyph unicode="&#xb0;" horiz-adv-x="1000" d="M527 1053Q462 1053 409 1084T324 1169T292 1288Q292 1352 324 1405T409 1489T527 1521Q591 1521 644 1490T728 1405T760 1288Q760 1223 729 1170T644 1085T527 1053ZM527 1174Q574 1174 606 1207T639 1288Q639
1335 607 1367T527 1400Q479 1400 447 1368T414 1288Q414 1240 446 1207T527 1174Z" />
<glyph unicode="&#xb1;" horiz-adv-x="1300" d="M198 678V814H1012V678H198ZM198 182V318H1012V182H198ZM523 438V1052H689V438H523Z" />
<glyph unicode="&#xb2;" horiz-adv-x="780" d="M82 560V675Q102 687 139 713T223 777T315 859T400 953T463 1051T487 1148Q487 1199 471 1229T428 1272T365 1286Q307 1286 268 1245T216 1147L80 1207Q96 1271 138 1315T239 1383T366 1407Q446 1407 509 1383T608
1304T645 1154Q645 1091 614 1026T534 902T434 794T343 714T289 676H643V560H82Z" />
<glyph unicode="&#xb3;" horiz-adv-x="781" d="M383 547Q305 547 245 569T144 630T85 720L220 789Q233 754 254 727T308 685T385 670Q427 670 461 688T515 744T535 833Q535 887 517 920T468 969T399 985Q379 985 356 979T312 963L224 1057L466 1283H121V1400H654V1283L408
1062Q414 1065 426 1068T453 1073T481 1075Q529 1075 576 1051T656 973T688 833Q688 763 665 710T599 620T502 566T383 547Z" />
<glyph unicode="&#xb4;" horiz-adv-x="1300" d="M511 1128H324L618 1412H837L511 1128Z" />
<glyph unicode="&#xb5;" horiz-adv-x="1300" d="M195 -400V1000H392V-400H195ZM536 -23Q459 -23 396 1T288 76T219 209T195 405V1000H393V435Q393 329 415 264T483 168T600 137Q651 137 696 157T777 213T835 296T860 396L916 378Q916 303 892 232T820 103T701
11T536 -23ZM892 0L855 214V1000H1053V105L1014 152H1171V0H892Z" />
<glyph unicode="&#xb6;" horiz-adv-x="1300" d="M571 -240V614H516Q461 614 396 635T273 704T177 827T140 1015Q140 1118 178 1191T277 1311T412 1378T556 1400H1070V-240H914V1248H727V-240H571Z" />
<glyph unicode="&#xb7;" horiz-adv-x="1000" d="M379 745H598V518H379V745Z" />
<glyph unicode="&#xb8;" horiz-adv-x="1300" d="M599 -407Q570 -407 541 -405T485 -398T433 -387T388 -374L434 -268Q464 -278 492 -286T550 -298T614 -302Q661 -302 695 -291T750 -257T770 -207Q770 -173 749 -162T695 -151Q674 -151 651 -158T606 -176T572 -199L467
-171L528 0H653L594 -154L581 -134Q592 -116 616 -102T674 -78T745 -69Q784 -69 819 -81T876 -121T898 -201Q898 -268 860 -314T754 -383T599 -407Z" />
<glyph unicode="&#xb9;" horiz-adv-x="780" d="M126 560V677H309V1259L130 1206V1340L330 1400H466V677H648V560H126Z" />
<glyph unicode="&#xba;" horiz-adv-x="1000" d="M746 1053Q681 1053 628 1084T543 1169T511 1288Q511 1352 543 1405T628 1489T746 1521Q810 1521 863 1490T947 1405T979 1288Q979 1223 948 1170T863 1085T746 1053ZM746 1174Q793 1174 825 1207T858 1288Q858
1335 826 1367T746 1400Q698 1400 666 1368T633 1288Q633 1240 665 1207T746 1174Z" />
<glyph unicode="&#xbb;" horiz-adv-x="1300" d="M746 170L661 267L1117 645L1188 526L746 170ZM1188 526H1124V648H1188V526ZM1117 531L661 907L746 1004L1188 648L1117 531ZM215 170L129 267L585 645L657 526L215 170ZM657 526H593V648H657V526ZM585 531L129
907L215 1004L657 648L585 531Z" />
<glyph unicode="&#xbc;" horiz-adv-x="1820" d="M126 560V677H309V1259L130 1206V1340L330 1400H466V677H648V560H126ZM573 0L1129 1400H1248L693 0H573ZM1475 0V178H1117V295L1386 840H1622V295H1743V178H1622V0H1475ZM1270 295H1475V749H1486L1270 295Z" />
<glyph unicode="&#xbd;" horiz-adv-x="1820" d="M126 560V677H309V1259L130 1206V1340L330 1400H466V677H648V560H126ZM573 0L1129 1400H1248L693 0H573ZM1122 0V115Q1142 127 1179 153T1263 217T1355 299T1440 393T1503 491T1527 588Q1527 639 1511 669T1468
712T1405 726Q1347 726 1308 685T1256 587L1120 647Q1136 711 1178 755T1279 823T1406 847Q1486 847 1549 823T1648 744T1685 594Q1685 531 1654 466T1574 342T1474 234T1383 154T1329 116H1683V0H1122Z" />
<glyph unicode="&#xbe;" horiz-adv-x="1820" d="M383 547Q305 547 245 569T144 630T85 720L220 789Q233 754 254 727T308 685T385 670Q427 670 461 688T515 744T535 833Q535 887 517 920T468 969T399 985Q379 985 356 979T312 963L224 1057L466 1283H121V1400H654V1283L408
1062Q414 1065 426 1068T453 1073T481 1075Q529 1075 576 1051T656 973T688 833Q688 763 665 710T599 620T502 566T383 547ZM574 0L1130 1400H1249L694 0H574ZM1476 0V178H1118V295L1387 840H1623V295H1744V178H1623V0H1476ZM1271 295H1476V749H1487L1271 295Z"
/>
<glyph unicode="&#xbf;" horiz-adv-x="1300" d="M746 608V555Q746 486 726 429T674 325T602 237T524 161Q486 125 453 90T399 18T378 -62Q378 -115 398 -151T453 -209T529 -240T615 -250Q665 -250 714 -235T806 -193T880 -129T929 -47L1087 -137Q1062 -209 995
-271T830 -373T619 -412Q531 -412 453 -394T314 -335T218 -229T183 -69Q183 -1 211 52T283 152T375 241Q424 285 468 332T541 435T569 561V608H746ZM766 773H547V1000H766V773Z" />
<glyph unicode="&#xc0;" horiz-adv-x="1300" d="M1185 0H980L890 354H414L324 0H119L487 1400H817L1185 0ZM639 1248L446 506H858L665 1248H639ZM559 1528L232 1812H451L745 1528H559Z" />
<glyph unicode="&#xc1;" horiz-adv-x="1300" d="M1185 0H980L890 354H414L324 0H119L487 1400H817L1185 0ZM639 1248L446 506H858L665 1248H639ZM727 1528H540L834 1812H1053L727 1528Z" />
<glyph unicode="&#xc2;" horiz-adv-x="1300" d="M1185 0H980L890 354H414L324 0H119L487 1400H817L1185 0ZM639 1248L446 506H858L665 1248H639ZM303 1530L584 1794H719L1001 1530H823L652 1703L480 1530H303Z" />
<glyph unicode="&#xc3;" horiz-adv-x="1300" d="M1185 0H980L890 354H414L324 0H119L487 1400H817L1185 0ZM639 1248L446 506H858L665 1248H639ZM762 1518Q715 1518 685 1537T630 1577Q609 1595 588 1608T539 1622Q490 1622 463 1587T424 1528L336 1601Q342 1621
367 1655T435 1718T533 1746Q578 1746 609 1728T665 1687Q687 1668 708 1654T758 1640Q806 1640 834 1676T872 1736L957 1661Q951 1640 928 1607T864 1546T762 1518Z" />
<glyph unicode="&#xc4;" horiz-adv-x="1300" d="M1185 0H980L890 354H414L324 0H119L487 1400H817L1185 0ZM639 1248L446 506H858L665 1248H639ZM317 1769H524V1541H317V1769ZM780 1769H987V1541H780V1769Z" />
<glyph unicode="&#xc5;" horiz-adv-x="1300" d="M1185 0H980L890 354H414L324 0H119L487 1400H817L1185 0ZM639 1248L446 506H858L665 1248H639ZM654 1484Q601 1484 557 1509T487 1577T460 1676Q460 1728 486 1771T557 1840T654 1866Q705 1866 748 1840T818 1771T844
1676Q844 1621 818 1578T749 1509T654 1484ZM654 1591Q689 1591 713 1614T737 1677Q737 1712 713 1734T654 1756Q618 1756 594 1734T569 1677Q569 1638 593 1615T654 1591Z" />
<glyph unicode="&#xc6;" horiz-adv-x="1700" d="M835 0V1248H664L698 1400H1525V1248H1033V764H1463V612H1033V152H1525V0H835ZM411 291L445 435H907L886 291H411ZM126 0L636 1400H827L339 0H126Z" />
<glyph unicode="&#xc7;" horiz-adv-x="1300" d="M715 -407Q685 -407 657 -405T601 -398T549 -387T504 -374L550 -268Q580 -278 608 -286T666 -298T730 -302Q776 -302 811 -291T865 -257T885 -207Q885 -173 864 -162T811 -151Q790 -151 766 -158T722 -176T688 -199L583
-171L644 0H768L710 -154L696 -134Q708 -116 732 -102T790 -78T860 -69Q899 -69 934 -81T991 -121T1014 -201Q1014 -268 976 -314T870 -383T715 -407ZM700 -22Q614 -22 531 2T373 80T242 217T153 420T121 696Q121 853 154 971T244 1174T375 1310T534 1387T704 1412Q789
1412 860 1389T990 1323T1092 1223T1163 1096L988 1009Q972 1052 948 1095T890 1175T809 1234T704 1257Q634 1257 567 1225T445 1126T358 952T325 696Q325 546 357 439T443 265T564 165T699 133Q759 133 805 156T887 215T947 294T988 376L1163 287Q1136 222 1093
166T991 67T859 2T700 -22Z" />
<glyph unicode="&#xc8;" horiz-adv-x="1300" d="M233 0V1400H1108V1248H431V764H1028V612H431V152H1108V0H233ZM598 1528L271 1812H490L784 1528H598Z" />
<glyph unicode="&#xc9;" horiz-adv-x="1300" d="M233 0V1400H1108V1248H431V764H1028V612H431V152H1108V0H233ZM766 1528H579L873 1812H1092L766 1528Z" />
<glyph unicode="&#xca;" horiz-adv-x="1300" d="M233 0V1400H1108V1248H431V764H1028V612H431V152H1108V0H233ZM343 1530L624 1794H759L1041 1530H863L692 1703L520 1530H343Z" />
<glyph unicode="&#xcb;" horiz-adv-x="1300" d="M233 0V1400H1108V1248H431V764H1028V612H431V152H1108V0H233ZM356 1769H563V1541H356V1769ZM819 1769H1026V1541H819V1769Z" />
<glyph unicode="&#xcc;" horiz-adv-x="1300" d="M261 0V152H550V1248H261V1400H1039V1248H748V152H1039V0H261ZM559 1528L232 1812H451L745 1528H559Z" />
<glyph unicode="&#xcd;" horiz-adv-x="1300" d="M261 0V152H550V1248H261V1400H1039V1248H748V152H1039V0H261ZM727 1528H540L834 1812H1053L727 1528Z" />
<glyph unicode="&#xce;" horiz-adv-x="1300" d="M261 0V152H550V1248H261V1400H1039V1248H748V152H1039V0H261ZM303 1530L584 1794H719L1001 1530H823L652 1703L480 1530H303Z" />
<glyph unicode="&#xcf;" horiz-adv-x="1300" d="M261 0V152H550V1248H261V1400H1039V1248H748V152H1039V0H261ZM317 1769H524V1541H317V1769ZM780 1769H987V1541H780V1769Z" />
<glyph unicode="&#xd0;" horiz-adv-x="1300" d="M197 0V630H44V770H197V1400H562Q633 1400 704 1389T842 1348T966 1268T1067 1140T1135 955T1160 700Q1160 555 1136 446T1068 260T967 132T842 52T704 12T562 0H197ZM395 152H547Q632 152 705 178T836 266T924
434T956 700Q956 860 925 966T836 1134T706 1222T547 1248H395V770H670V630H395V152Z" />
<glyph unicode="&#xd1;" horiz-adv-x="1300" d="M155 0V1400H447L972 174H939V1400H1137V0H881L344 1222H353V0H155ZM754 1518Q707 1518 677 1537T622 1577Q601 1595 580 1608T531 1622Q482 1622 455 1587T416 1528L328 1601Q334 1621 359 1655T427 1718T525 1746Q570
1746 601 1728T657 1687Q679 1668 700 1654T750 1640Q798 1640 826 1676T864 1736L949 1661Q943 1640 920 1607T856 1546T754 1518Z" />
<glyph unicode="&#xd2;" horiz-adv-x="1300" d="M648 -22Q562 -22 480 3T326 83T200 222T116 424T85 696Q85 849 115 966T200 1168T325 1307T479 1386T648 1412Q734 1412 816 1387T969 1307T1094 1169T1179 967T1210 696Q1210 542 1179 425T1095 222T970 83T816
4T648 -22ZM648 133Q716 133 780 165T895 265T977 439T1008 696Q1008 845 978 951T896 1125T780 1225T648 1257Q580 1257 516 1225T400 1126T318 952T287 696Q287 546 317 440T399 265T515 165T648 133ZM552 1528L225 1812H444L738 1528H552Z" />
<glyph unicode="&#xd3;" horiz-adv-x="1300" d="M648 -22Q562 -22 480 3T326 83T200 222T116 424T85 696Q85 849 115 966T200 1168T325 1307T479 1386T648 1412Q734 1412 816 1387T969 1307T1094 1169T1179 967T1210 696Q1210 542 1179 425T1095 222T970 83T816
4T648 -22ZM648 133Q716 133 780 165T895 265T977 439T1008 696Q1008 845 978 951T896 1125T780 1225T648 1257Q580 1257 516 1225T400 1126T318 952T287 696Q287 546 317 440T399 265T515 165T648 133ZM720 1528H533L827 1812H1046L720 1528Z" />
<glyph unicode="&#xd4;" horiz-adv-x="1300" d="M648 -22Q562 -22 480 3T326 83T200 222T116 424T85 696Q85 849 115 966T200 1168T325 1307T479 1386T648 1412Q734 1412 816 1387T969 1307T1094 1169T1179 967T1210 696Q1210 542 1179 425T1095 222T970 83T816
4T648 -22ZM648 133Q716 133 780 165T895 265T977 439T1008 696Q1008 845 978 951T896 1125T780 1225T648 1257Q580 1257 516 1225T400 1126T318 952T287 696Q287 546 317 440T399 265T515 165T648 133ZM297 1530L578 1794H713L995 1530H817L646 1703L474 1530H297Z"
/>
<glyph unicode="&#xd5;" horiz-adv-x="1300" d="M648 -22Q562 -22 480 3T326 83T200 222T116 424T85 696Q85 849 115 966T200 1168T325 1307T479 1386T648 1412Q734 1412 816 1387T969 1307T1094 1169T1179 967T1210 696Q1210 542 1179 425T1095 222T970 83T816
4T648 -22ZM648 133Q716 133 780 165T895 265T977 439T1008 696Q1008 845 978 951T896 1125T780 1225T648 1257Q580 1257 516 1225T400 1126T318 952T287 696Q287 546 317 440T399 265T515 165T648 133ZM756 1518Q709 1518 679 1537T624 1577Q603 1595 582 1608T533
1622Q484 1622 457 1587T418 1528L330 1601Q336 1621 361 1655T429 1718T527 1746Q572 1746 603 1728T659 1687Q681 1668 702 1654T752 1640Q800 1640 828 1676T866 1736L951 1661Q945 1640 922 1607T858 1546T756 1518Z" />
<glyph unicode="&#xd6;" horiz-adv-x="1300" d="M648 -22Q562 -22 480 3T326 83T200 222T116 424T85 696Q85 849 115 966T200 1168T325 1307T479 1386T648 1412Q734 1412 816 1387T969 1307T1094 1169T1179 967T1210 696Q1210 542 1179 425T1095 222T970 83T816
4T648 -22ZM648 133Q716 133 780 165T895 265T977 439T1008 696Q1008 845 978 951T896 1125T780 1225T648 1257Q580 1257 516 1225T400 1126T318 952T287 696Q287 546 317 440T399 265T515 165T648 133ZM311 1769H518V1541H311V1769ZM774 1769H981V1541H774V1769Z"
/>
<glyph unicode="&#xd7;" horiz-adv-x="1300" d="M822 275L273 825L388 941L939 390L822 275ZM387 275L271 390L821 941L937 825L387 275Z" />
<glyph unicode="&#xd8;" horiz-adv-x="1300" d="M106 51L1063 1426L1194 1337L237 -39L106 51ZM648 -22Q562 -22 480 3T326 83T200 222T116 424T85 696Q85 849 115 966T200 1168T325 1307T479 1386T648 1412Q734 1412 816 1387T969 1307T1094 1169T1179 967T1210
696Q1210 542 1179 425T1095 222T970 83T816 4T648 -22ZM648 133Q716 133 780 165T895 265T977 439T1008 696Q1008 845 978 951T896 1125T780 1225T648 1257Q580 1257 516 1225T400 1126T318 952T287 696Q287 546 317 440T399 265T515 165T648 133Z" />
<glyph unicode="&#xd9;" horiz-adv-x="1300" d="M652 -22Q552 -22 463 9T306 107T200 282T161 544V1400H359V553Q359 410 394 318T495 182T652 137Q743 137 808 181T908 318T943 553V1400H1141V544Q1141 391 1103 283T998 107T842 9T652 -22ZM557 1528L230 1812H449L743
1528H557Z" />
<glyph unicode="&#xda;" horiz-adv-x="1300" d="M652 -22Q552 -22 463 9T306 107T200 282T161 544V1400H359V553Q359 410 394 318T495 182T652 137Q743 137 808 181T908 318T943 553V1400H1141V544Q1141 391 1103 283T998 107T842 9T652 -22ZM725 1528H538L832
1812H1051L725 1528Z" />
<glyph unicode="&#xdb;" horiz-adv-x="1300" d="M652 -22Q552 -22 463 9T306 107T200 282T161 544V1400H359V553Q359 410 394 318T495 182T652 137Q743 137 808 181T908 318T943 553V1400H1141V544Q1141 391 1103 283T998 107T842 9T652 -22ZM301 1530L582 1794H717L999
1530H821L650 1703L478 1530H301Z" />
<glyph unicode="&#xdc;" horiz-adv-x="1300" d="M652 -22Q552 -22 463 9T306 107T200 282T161 544V1400H359V553Q359 410 394 318T495 182T652 137Q743 137 808 181T908 318T943 553V1400H1141V544Q1141 391 1103 283T998 107T842 9T652 -22ZM315 1769H522V1541H315V1769ZM778
1769H985V1541H778V1769Z" />
<glyph unicode="&#xdd;" horiz-adv-x="1300" d="M542 0V513L124 1400H331L641 698L949 1400H1156L740 513V0H542ZM714 1528H527L821 1812H1040L714 1528Z" />
<glyph unicode="&#xde;" horiz-adv-x="1300" d="M230 0V1400H428V1176H608Q657 1176 719 1168T846 1134T965 1057T1053 923T1086 714Q1086 589 1053 506T966 373T847 297T720 264T608 256H428V0H230ZM428 408H595Q627 408 666 413T744 435T815 485T867 574T886
714Q886 798 867 854T816 944T744 995T666 1018T595 1024H428V408Z" />
<glyph unicode="&#xdf;" horiz-adv-x="1300" d="M703 -22Q647 -22 601 -16T518 0T457 18L497 179Q523 169 569 156T683 142Q737 142 788 154T880 193T946 268T971 385Q971 449 945 492T879 567T799 624Q766 646 736 669T688 719T669 782Q669 820 683 847T718 896T764
938Q789 959 812 982T850 1036T865 1108Q865 1158 847 1196T798 1261T725 1301T635 1315Q583 1315 533 1299T441 1247T374 1154T349 1014V0H151V1032Q151 1149 192 1233T302 1371T457 1450T634 1476Q751 1476 846 1436T997 1315T1053 1119Q1053 1053 1033 1006T983
925T924 866Q899 844 882 825T865 787Q865 772 885 756T936 722Q969 702 1008 675T1082 608T1139 513T1161 381Q1161 272 1124 196T1021 71T874 1T703 -22Z" />
<glyph unicode="&#xe0;" horiz-adv-x="1300" d="M552 -22Q467 -22 396 -1T272 62T192 165T163 305Q163 372 186 423T252 512T347 573T459 608T577 620Q649 620 708 605T809 568T869 525V669Q869 724 847 762T788 823T705 856T607 867Q556 867 509 857T421 832T348
798T294 764L205 911Q241 938 303 964T446 1007T621 1024Q682 1024 745 1014T865 981T968 920T1040 826T1066 694V152H1215V0H906L887 128Q869 95 825 61T712 2T552 -22ZM601 129Q676 129 730 152T819 206T869 263V387Q851 412 811 436T717 476T610 492Q547 492
490 474T395 417T358 314Q358 250 388 209T473 149T601 129ZM795 1128L468 1412H687L981 1128H795Z" />
<glyph unicode="&#xe1;" horiz-adv-x="1300" d="M552 -22Q467 -22 396 -1T272 62T192 165T163 305Q163 372 186 423T252 512T347 573T459 608T577 620Q649 620 708 605T809 568T869 525V669Q869 724 847 762T788 823T705 856T607 867Q556 867 509 857T421 832T348
798T294 764L205 911Q241 938 303 964T446 1007T621 1024Q682 1024 745 1014T865 981T968 920T1040 826T1066 694V152H1215V0H906L887 128Q869 95 825 61T712 2T552 -22ZM601 129Q676 129 730 152T819 206T869 263V387Q851 412 811 436T717 476T610 492Q547 492
490 474T395 417T358 314Q358 250 388 209T473 149T601 129ZM707 1128H520L814 1412H1033L707 1128Z" />
<glyph unicode="&#xe2;" horiz-adv-x="1300" d="M552 -22Q467 -22 396 -1T272 62T192 165T163 305Q163 372 186 423T252 512T347 573T459 608T577 620Q649 620 708 605T809 568T869 525V669Q869 724 847 762T788 823T705 856T607 867Q556 867 509 857T421 832T348
798T294 764L205 911Q241 938 303 964T446 1007T621 1024Q682 1024 745 1014T865 981T968 920T1040 826T1066 694V152H1215V0H906L887 128Q869 95 825 61T712 2T552 -22ZM601 129Q676 129 730 152T819 206T869 263V387Q851 412 811 436T717 476T610 492Q547 492
490 474T395 417T358 314Q358 250 388 209T473 149T601 129ZM540 1130L821 1394H956L1238 1130H1060L889 1303L717 1130H540Z" />
<glyph unicode="&#xe3;" horiz-adv-x="1300" d="M552 -22Q467 -22 396 -1T272 62T192 165T163 305Q163 372 186 423T252 512T347 573T459 608T577 620Q649 620 708 605T809 568T869 525V669Q869 724 847 762T788 823T705 856T607 867Q556 867 509 857T421 832T348
798T294 764L205 911Q241 938 303 964T446 1007T621 1024Q682 1024 745 1014T865 981T968 920T1040 826T1066 694V152H1215V0H906L887 128Q869 95 825 61T712 2T552 -22ZM601 129Q676 129 730 152T819 206T869 263V387Q851 412 811 436T717 476T610 492Q547 492
490 474T395 417T358 314Q358 250 388 209T473 149T601 129ZM999 1118Q952 1118 922 1137T867 1177Q846 1195 825 1208T776 1222Q727 1222 700 1187T661 1128L573 1201Q579 1221 604 1255T672 1318T770 1346Q815 1346 846 1328T902 1287Q924 1268 945 1254T995
1240Q1043 1240 1071 1276T1109 1336L1194 1261Q1188 1240 1165 1207T1101 1146T999 1118Z" />
<glyph unicode="&#xe4;" horiz-adv-x="1300" d="M552 -22Q467 -22 396 -1T272 62T192 165T163 305Q163 372 186 423T252 512T347 573T459 608T577 620Q649 620 708 605T809 568T869 525V669Q869 724 847 762T788 823T705 856T607 867Q556 867 509 857T421 832T348
798T294 764L205 911Q241 938 303 964T446 1007T621 1024Q682 1024 745 1014T865 981T968 920T1040 826T1066 694V152H1215V0H906L887 128Q869 95 825 61T712 2T552 -22ZM601 129Q676 129 730 152T819 206T869 263V387Q851 412 811 436T717 476T610 492Q547 492
490 474T395 417T358 314Q358 250 388 209T473 149T601 129ZM297 1369H504V1141H297V1369ZM760 1369H967V1141H760V1369Z" />
<glyph unicode="&#xe5;" horiz-adv-x="1300" d="M552 -22Q467 -22 396 -1T272 62T192 165T163 305Q163 372 186 423T252 512T347 573T459 608T577 620Q649 620 708 605T809 568T869 525V669Q869 724 847 762T788 823T705 856T607 867Q556 867 509 857T421 832T348
798T294 764L205 911Q241 938 303 964T446 1007T621 1024Q682 1024 745 1014T865 981T968 920T1040 826T1066 694V152H1215V0H906L887 128Q869 95 825 61T712 2T552 -22ZM601 129Q676 129 730 152T819 206T869 263V387Q851 412 811 436T717 476T610 492Q547 492
490 474T395 417T358 314Q358 250 388 209T473 149T601 129ZM891 1084Q838 1084 794 1109T724 1177T697 1276Q697 1328 723 1371T794 1440T891 1466Q942 1466 985 1440T1055 1371T1081 1276Q1081 1221 1055 1178T986 1109T891 1084ZM891 1191Q926 1191 950 1214T974
1277Q974 1312 950 1334T891 1356Q855 1356 831 1334T806 1277Q806 1238 830 1215T891 1191Z" />
<glyph unicode="&#xe6;" horiz-adv-x="1700" d="M435 -22Q336 -22 262 2T139 72T65 181T40 320Q40 381 59 432T115 522T203 589T320 631T462 646Q523 646 572 635T656 609T709 580V697Q709 740 692 771T644 824T571 856T479 867Q414 867 353 853T241 819T161 785L86
935Q122 953 184 974T328 1009T503 1024Q579 1024 648 1006T767 950T838 854Q880 912 935 949T1056 1005T1189 1024Q1286 1024 1369 993T1516 901T1614 752T1649 549Q1649 530 1648 507T1642 467H914Q918 365 953 289T1049 172T1192 131Q1267 131 1315 156T1390
217T1429 283L1607 192Q1585 153 1550 115T1464 46T1344 -3T1186 -22Q1111 -22 1042 0T914 67T814 180Q783 123 730 78T602 5T435 -22ZM470 125Q549 125 602 160T682 252T709 370V447Q694 459 672 471T622 494T564 510T500 517Q413 517 354 494T265 428T235 325Q235
266 260 221T338 151T470 125ZM918 594H1440V610Q1440 668 1423 716T1373 799T1295 853T1192 872Q1124 872 1066 842T968 751T918 594Z" />
<glyph unicode="&#xe7;" horiz-adv-x="1300" d="M703 -22Q634 -22 564 -3T431 55T318 157T239 304T210 502Q210 615 239 701T317 848T430 948T564 1005T703 1024Q784 1024 851 1004T972 949T1063 870T1120 775L944 694Q932 734 903 775T824 843T708 871Q657 871
606 851T511 786T443 671T417 502Q417 405 442 335T511 220T605 153T708 131Q776 131 824 157T902 223T943 301L1120 219Q1101 174 1064 131T974 54T852 -1T703 -22ZM703 -407Q674 -407 645 -405T589 -398T537 -387T492 -374L538 -268Q568 -278 596 -286T654 -298T718
-302Q765 -302 799 -291T854 -257T874 -207Q874 -173 853 -162T799 -151Q778 -151 755 -158T710 -176T676 -199L571 -171L632 0H757L698 -154L685 -134Q696 -116 720 -102T778 -78T849 -69Q888 -69 923 -81T980 -121T1002 -201Q1002 -268 964 -314T858 -383T703
-407Z" />
<glyph unicode="&#xe8;" horiz-adv-x="1300" d="M652 -22Q562 -22 474 9T313 105T198 268T155 502Q155 637 198 736T313 898T475 993T656 1024Q752 1024 840 994T996 905T1105 757T1145 549Q1145 530 1144 507T1138 467H313V594H936Q936 600 936 602T936 610Q936
691 898 750T797 840T659 872Q605 872 552 852T455 787T385 673T358 503Q358 380 401 298T514 173T663 131Q737 131 791 154T879 213T925 283L1107 192Q1084 150 1044 112T946 43T815 -4T652 -22ZM824 1128L497 1412H716L1010 1128H824Z" />
<glyph unicode="&#xe9;" horiz-adv-x="1300" d="M652 -22Q562 -22 474 9T313 105T198 268T155 502Q155 637 198 736T313 898T475 993T656 1024Q752 1024 840 994T996 905T1105 757T1145 549Q1145 530 1144 507T1138 467H313V594H936Q936 600 936 602T936 610Q936
691 898 750T797 840T659 872Q605 872 552 852T455 787T385 673T358 503Q358 380 401 298T514 173T663 131Q737 131 791 154T879 213T925 283L1107 192Q1084 150 1044 112T946 43T815 -4T652 -22ZM736 1128H549L843 1412H1062L736 1128Z" />
<glyph unicode="&#xea;" horiz-adv-x="1300" d="M652 -22Q562 -22 474 9T313 105T198 268T155 502Q155 637 198 736T313 898T475 993T656 1024Q752 1024 840 994T996 905T1105 757T1145 549Q1145 530 1144 507T1138 467H313V594H936Q936 600 936 602T936 610Q936
691 898 750T797 840T659 872Q605 872 552 852T455 787T385 673T358 503Q358 380 401 298T514 173T663 131Q737 131 791 154T879 213T925 283L1107 192Q1084 150 1044 112T946 43T815 -4T652 -22ZM313 1130L594 1394H729L1011 1130H833L662 1303L490 1130H313Z"
/>
<glyph unicode="&#xeb;" horiz-adv-x="1300" d="M652 -22Q562 -22 474 9T313 105T198 268T155 502Q155 637 198 736T313 898T475 993T656 1024Q752 1024 840 994T996 905T1105 757T1145 549Q1145 530 1144 507T1138 467H313V594H936Q936 600 936 602T936 610Q936
691 898 750T797 840T659 872Q605 872 552 852T455 787T385 673T358 503Q358 380 401 298T514 173T663 131Q737 131 791 154T879 213T925 283L1107 192Q1084 150 1044 112T946 43T815 -4T652 -22ZM326 1369H533V1141H326V1369ZM789 1369H996V1141H789V1369Z" />
<glyph unicode="&#xec;" horiz-adv-x="1000" d="M137 0V152H460V848H137V1000H658V152H949V0H137ZM451 1128L124 1412H343L637 1128H451Z" />
<glyph unicode="&#xed;" horiz-adv-x="1000" d="M137 0V152H460V848H137V1000H658V152H949V0H137ZM619 1128H432L726 1412H945L619 1128Z" />
<glyph unicode="&#xee;" horiz-adv-x="1000" d="M137 0V152H460V848H137V1000H658V152H949V0H137ZM452 1130L733 1394H868L1150 1130H972L801 1303L629 1130H452Z" />
<glyph unicode="&#xef;" horiz-adv-x="1000" d="M137 0V152H460V848H137V1000H658V152H949V0H137ZM465 1369H672V1141H465V1369ZM928 1369H1135V1141H928V1369Z" />
<glyph unicode="&#xf0;" horiz-adv-x="1300" d="M634 -21Q534 -21 447 13T293 115T189 279T152 503Q152 629 185 726T279 890T425 991T614 1025Q700 1025 774 995T905 914T996 796T1038 659L916 562Q915 632 896 688T842 783T756 844T638 865Q573 865 521 840T432
767T376 652T356 503Q356 422 376 355T434 240T524 165T640 138Q705 138 755 164T841 247T894 398T913 627Q913 759 883 878T799 1098T672 1277T512 1405T333 1474L405 1604Q506 1582 609 1528T804 1389T969 1194T1083 948T1125 657Q1125 465 1086 335T979 126T822
14T634 -21ZM507 1229L407 1327L778 1594L861 1490L507 1229Z" />
<glyph unicode="&#xf1;" horiz-adv-x="1300" d="M225 0V1000H402L424 795V0H225ZM885 0V565Q885 671 863 736T795 832T678 863Q627 863 582 843T501 787T443 704T418 604L362 622Q362 697 386 768T458 897T577 989T742 1023Q820 1023 883 999T991 924T1060 791T1084
595V0H885ZM771 1118Q724 1118 694 1137T639 1177Q618 1195 597 1208T548 1222Q499 1222 472 1187T433 1128L345 1201Q351 1221 376 1255T444 1318T542 1346Q587 1346 618 1328T674 1287Q696 1268 717 1254T767 1240Q815 1240 843 1276T881 1336L966 1261Q960 1240
937 1207T873 1146T771 1118Z" />
<glyph unicode="&#xf2;" horiz-adv-x="1300" d="M655 -22Q589 -22 520 -5T386 51T271 150T190 299T160 502Q160 617 189 704T270 852T386 951T519 1006T655 1024Q721 1024 790 1007T924 951T1040 852T1121 704T1151 502Q1151 386 1121 299T1040 151T925 51T791
-4T655 -22ZM655 131Q705 131 756 149T850 211T921 325T949 502Q949 606 922 676T851 790T756 852T655 871Q606 871 555 852T460 790T389 677T362 502Q362 397 389 326T459 211T554 150T655 131ZM818 1128L491 1412H710L1004 1128H818Z" />
<glyph unicode="&#xf3;" horiz-adv-x="1300" d="M655 -22Q589 -22 520 -5T386 51T271 150T190 299T160 502Q160 617 189 704T270 852T386 951T519 1006T655 1024Q721 1024 790 1007T924 951T1040 852T1121 704T1151 502Q1151 386 1121 299T1040 151T925 51T791
-4T655 -22ZM655 131Q705 131 756 149T850 211T921 325T949 502Q949 606 922 676T851 790T756 852T655 871Q606 871 555 852T460 790T389 677T362 502Q362 397 389 326T459 211T554 150T655 131ZM730 1128H543L837 1412H1056L730 1128Z" />
<glyph unicode="&#xf4;" horiz-adv-x="1300" d="M655 -22Q589 -22 520 -5T386 51T271 150T190 299T160 502Q160 617 189 704T270 852T386 951T519 1006T655 1024Q721 1024 790 1007T924 951T1040 852T1121 704T1151 502Q1151 386 1121 299T1040 151T925 51T791
-4T655 -22ZM655 131Q705 131 756 149T850 211T921 325T949 502Q949 606 922 676T851 790T756 852T655 871Q606 871 555 852T460 790T389 677T362 502Q362 397 389 326T459 211T554 150T655 131ZM562 1130L843 1394H978L1260 1130H1082L911 1303L739 1130H562Z"
/>
<glyph unicode="&#xf5;" horiz-adv-x="1300" d="M655 -22Q589 -22 520 -5T386 51T271 150T190 299T160 502Q160 617 189 704T270 852T386 951T519 1006T655 1024Q721 1024 790 1007T924 951T1040 852T1121 704T1151 502Q1151 386 1121 299T1040 151T925 51T791
-4T655 -22ZM655 131Q705 131 756 149T850 211T921 325T949 502Q949 606 922 676T851 790T756 852T655 871Q606 871 555 852T460 790T389 677T362 502Q362 397 389 326T459 211T554 150T655 131ZM765 1118Q718 1118 688 1137T633 1177Q612 1195 591 1208T542 1222Q493
1222 466 1187T427 1128L339 1201Q345 1221 370 1255T438 1318T536 1346Q581 1346 612 1328T668 1287Q690 1268 711 1254T761 1240Q809 1240 837 1276T875 1336L960 1261Q954 1240 931 1207T867 1146T765 1118Z" />
<glyph unicode="&#xf6;" horiz-adv-x="1300" d="M655 -22Q589 -22 520 -5T386 51T271 150T190 299T160 502Q160 617 189 704T270 852T386 951T519 1006T655 1024Q721 1024 790 1007T924 951T1040 852T1121 704T1151 502Q1151 386 1121 299T1040 151T925 51T791
-4T655 -22ZM655 131Q705 131 756 149T850 211T921 325T949 502Q949 606 922 676T851 790T756 852T655 871Q606 871 555 852T460 790T389 677T362 502Q362 397 389 326T459 211T554 150T655 131ZM320 1369H527V1141H320V1369ZM783 1369H990V1141H783V1369Z" />
<glyph unicode="&#xf7;" horiz-adv-x="1300" d="M216 526V690H994V526H216ZM596 172Q547 172 513 207T478 292Q478 340 512 375T596 410Q646 410 680 375T714 292Q714 242 680 207T596 172ZM596 812Q547 812 513 847T478 932Q478 981 512 1015T596 1050Q646 1050
680 1016T714 932Q714 883 680 848T596 812Z" />
<glyph unicode="&#xf8;" horiz-adv-x="1300" d="M219 32L1009 1034L1093 973L303 -29L219 32ZM655 -22Q589 -22 520 -5T386 51T271 150T190 299T160 502Q160 617 189 704T270 852T386 951T519 1006T655 1024Q721 1024 790 1007T924 951T1040 852T1121 704T1151
502Q1151 386 1121 299T1040 151T925 51T791 -4T655 -22ZM655 131Q705 131 756 149T850 211T921 325T949 502Q949 606 922 676T851 790T756 852T655 871Q606 871 555 852T460 790T389 677T362 502Q362 397 389 326T459 211T554 150T655 131Z" />
<glyph unicode="&#xf9;" horiz-adv-x="1300" d="M536 -23Q459 -23 396 1T288 76T219 209T195 405V1000H393V435Q393 329 415 264T483 168T600 137Q651 137 696 157T777 213T835 296T860 396L916 378Q916 303 892 232T820 103T701 11T536 -23ZM892 0L855 214V1000H1053V105L1014
152H1171V0H892ZM791 1128L464 1412H683L977 1128H791Z" />
<glyph unicode="&#xfa;" horiz-adv-x="1300" d="M536 -23Q459 -23 396 1T288 76T219 209T195 405V1000H393V435Q393 329 415 264T483 168T600 137Q651 137 696 157T777 213T835 296T860 396L916 378Q916 303 892 232T820 103T701 11T536 -23ZM892 0L855 214V1000H1053V105L1014
152H1171V0H892ZM703 1128H516L810 1412H1029L703 1128Z" />
<glyph unicode="&#xfb;" horiz-adv-x="1300" d="M536 -23Q459 -23 396 1T288 76T219 209T195 405V1000H393V435Q393 329 415 264T483 168T600 137Q651 137 696 157T777 213T835 296T860 396L916 378Q916 303 892 232T820 103T701 11T536 -23ZM892 0L855 214V1000H1053V105L1014
152H1171V0H892ZM536 1130L817 1394H952L1234 1130H1056L885 1303L713 1130H536Z" />
<glyph unicode="&#xfc;" horiz-adv-x="1300" d="M536 -23Q459 -23 396 1T288 76T219 209T195 405V1000H393V435Q393 329 415 264T483 168T600 137Q651 137 696 157T777 213T835 296T860 396L916 378Q916 303 892 232T820 103T701 11T536 -23ZM892 0L855 214V1000H1053V105L1014
152H1171V0H892ZM550 1369H757V1141H550V1369ZM1013 1369H1220V1141H1013V1369Z" />
<glyph unicode="&#xfd;" horiz-adv-x="1300" d="M433 -400L609 46L665 -6H531L160 1000H366L675 115H638L943 1000H1146L632 -400H433ZM715 1128H528L822 1412H1041L715 1128Z" />
<glyph unicode="&#xfe;" horiz-adv-x="1300" d="M201 -400V1500H399V-400H201ZM704 -22Q611 -22 539 17T416 120T340 257T314 397L395 424Q400 370 420 319T473 227T551 162T652 137Q727 137 790 177T892 298T931 502Q931 627 894 706T795 824T659 863Q603 863
558 841T479 780T424 696T392 600L317 627Q317 691 343 760T421 888T546 985T714 1022Q819 1022 914 968T1069 798T1129 502Q1129 367 1093 268T995 105T859 9T704 -22Z" />
<glyph unicode="&#xff;" horiz-adv-x="1300" d="M433 -400L609 46L665 -6H531L160 1000H366L675 115H638L943 1000H1146L632 -400H433ZM306 1369H513V1141H306V1369ZM769 1369H976V1141H769V1369Z" />
<glyph unicode="&#x2013;" horiz-adv-x="1300" d="M208 526V690H972V526H208Z" />
<glyph unicode="&#x2014;" horiz-adv-x="1300" d="M50 526V690H1146V526H50Z" />
<glyph unicode="&#x2018;" horiz-adv-x="1000" d="M547 1464L630 1357Q604 1345 579 1327T538 1279T522 1199L380 1204Q380 1281 407 1333T474 1418T547 1464ZM610 1204V977H380V1204H610Z" />
<glyph unicode="&#x2019;" horiz-adv-x="1000" d="M441 913L358 1020Q386 1033 410 1050T451 1098T467 1178L608 1173Q608 1097 581 1045T514 960T441 913ZM378 1173V1400H608V1173H378Z" />
<glyph unicode="&#x201a;" horiz-adv-x="1000" d="M434 -260L351 -152Q378 -140 403 -123T443 -75T459 5L601 0Q601 -76 574 -128T507 -213T434 -260ZM371 0V227H601V0H371Z" />
<glyph unicode="&#x201c;" horiz-adv-x="1300" d="M543 1455L626 1348Q600 1336 575 1318T534 1270T518 1190L376 1195Q376 1272 404 1324T470 1409T543 1455ZM606 1195V968H376V1195H606ZM910 1455L993 1348Q966 1336 941 1318T900 1270T884 1190L743 1195Q743
1272 770 1324T837 1409T910 1455ZM973 1195V968H743V1195H973Z" />
<glyph unicode="&#x201d;" horiz-adv-x="1300" d="M765 913L682 1020Q710 1033 735 1050T775 1098T791 1178L933 1173Q933 1097 906 1045T839 960T765 913ZM702 1173V1400H933V1173H702ZM399 913L316 1020Q344 1033 368 1050T408 1098T424 1178L566 1173Q566 1097
539 1045T472 960T399 913ZM336 1173V1400H566V1173H336Z" />
<glyph unicode="&#x201e;" horiz-adv-x="1300" d="M661 -260L578 -152Q605 -140 630 -123T670 -75T686 5L828 0Q828 -76 801 -128T734 -213T661 -260ZM598 0V227H828V0H598ZM778 -260L695 -152Q722 -140 747 -123T787 -75T803 5L945 0Q945 -76 918 -128T851 -213T778
-260ZM715 0V227H945V0H715Z" />
<glyph unicode="&#x2022;" horiz-adv-x="1300" d="M592 429Q524 429 470 461T383 548T351 670Q351 738 383 793T469 881T592 913Q660 913 715 881T801 794T833 670Q833 603 802 548T715 461T592 429Z" />
<glyph unicode="&#x2039;" horiz-adv-x="1300" d="M777 170L335 526L407 645L862 267L777 170ZM335 526V648H399V526H335ZM407 531L335 648L777 1004L862 907L407 531Z" />
<glyph unicode="&#x203a;" horiz-adv-x="1300" d="M470 170L385 267L841 645L912 526L470 170ZM912 526H848V648H912V526ZM841 531L385 907L470 1004L912 648L841 531Z" />
</font>
</defs>
</svg>
