<?xml version="1.0" standalone="no"?>
<!DOCTYPE svg PUBLIC "-//W3C//DTD SVG 1.1//EN" "http://www.w3.org/Graphics/SVG/1.1/DTD/svg11.dtd">
<svg xmlns="http://www.w3.org/2000/svg">
<defs >
<font id="KosugiMaru" horiz-adv-x="1013" ><font-face
    font-family="Kosugi Maru"
    units-per-em="1024"
    panose-1="0 0 0 0 0 0 0 0 0 0"
    ascent="901"
    descent="-123"
    alphabetic="0" />
<glyph unicode=" " glyph-name="space" horiz-adv-x="512" />
<glyph unicode="!" glyph-name="exclam" horiz-adv-x="512" d="M256 191Q234 191 226 205T216 238L197 704Q196 737 207 759T256 781Q288 781 301 763T314 714V704L295 238Q294 219 286 205T256 191ZM256 -3Q188 -3 188 66Q188 95 208 114T257 133Q284 133 304
113T324 65Q324 -3 256 -3Z" />
<glyph unicode="&quot;" glyph-name="quotedbl" horiz-adv-x="512" d="M349 542Q335 542 328 551T318 574L295 730Q291 756 309 768T349 781Q372 781 389 768T403 728L381 574Q379 561 372 552T349 542ZM164 542Q149 542 142 551T132 574L110 729Q106 755 124
768T164 781Q183 781 200 767T218 733Q218 717 214 686T204 624T195 574Q193 561 186 552T164 542Z" />
<glyph unicode="#" glyph-name="numbersign" horiz-adv-x="512" d="M145 -3Q108 -3 108 34Q108 78 111 121T117 208Q101 208 81 208T47 216T32 248Q32 273 47 280T84 288T122 287L134 510Q117 510 96 510T59 517T43 550Q43 575 60 582T100 590T139 589L147 736Q148
755 157 768T186 781Q198 781 211 772T224 748Q224 709 220 669T214 589H320L328 736Q329 755 338 768T367 781Q378 781 391 772T405 749Q405 710 401 669T395 589Q411 589 431 589T466 582T481 550Q481 525 466 517T429 509T391 510L378 287Q395 287 416 287T452
280T468 247Q468 222 452 215T413 207T374 208L364 42Q363 23 355 10T326 -3Q289 -3 289 35Q289 78 292 121T298 208H193L183 42Q182 23 174 10T145 -3ZM197 287H303L315 510H210L197 287Z" />
<glyph unicode="$" glyph-name="dollar" horiz-adv-x="512" d="M257 -82Q235 -82 228 -68T221 -35T222 -1Q168 7 126 36T59 111T34 212Q34 252 75 252Q98 252 107 238T121 203T134 157T162 111T222 77V385Q175 408 134 432T68 494T42 591Q42 673 92 723T222 780Q222
795 222 813T228 846T257 860Q279 860 286 846T293 813T292 778Q337 772 376 747T440 684T465 598Q465 558 424 558Q402 558 392 570T377 600T365 639T342 676T292 701V441Q344 418 386 390T453 320T478 216Q478 122 433 66T292 -1Q292 -15 292 -34T286 -68T257
-82ZM222 473V704Q175 696 150 669T124 592Q124 547 154 519T222 473ZM292 74Q347 86 371 123T396 214Q396 266 366 299T292 352V74Z" />
<glyph unicode="%" glyph-name="percent" horiz-adv-x="512" d="M83 -3Q53 -3 53 26Q53 36 58 46L399 757Q404 767 411 774T430 781Q460 781 460 752Q460 742 455 732L114 21Q110 11 103 4T83 -3ZM130 393Q91 393 70 411T40 459T29 522T27 584Q27 614 28 648T39
712T70 762T132 781Q171 781 192 762T222 713T232 649T234 587Q234 558 233 525T222 461T192 412T130 393ZM130 459Q144 459 151 471Q154 477 156 493T160 528T162 564T163 588Q163 597 163 617T161 660T151 699T130 715Q117 715 110 699T101 660T98 617T98 588Q98
582 98 565T100 529T104 493T110 471Q118 459 130 459ZM383 -3Q344 -3 323 15T292 61T281 123T279 185Q279 215 280 249T290 315T321 365T384 385Q424 385 445 366T474 317T484 253T486 190Q486 161 485 128T474 65T444 16T383 -3ZM383 63Q396 63 403 75Q406 81
408 97T412 132T414 169T415 192Q415 198 415 214T413 250T409 286T403 307Q396 319 382 319Q369 319 362 303T353 264T350 221T350 192Q350 185 350 169T352 133T356 97T362 75Q369 63 383 63Z" />
<glyph unicode="&amp;" glyph-name="ampersand" horiz-adv-x="512" d="M218 -3Q131 -3 79 48T27 187Q27 232 45 274T91 353T149 421Q130 450 111 483T78 551T65 623Q65 781 225 781Q301 781 340 744T380 630Q380 585 360 547T309 475T248 411L362 235Q370 269
372 304T376 373Q378 393 385 409T416 425Q439 425 447 412T456 378Q456 320 448 262T417 150Q422 143 433 127T456 92T477 57T486 34Q486 -3 447 -3Q430 -3 417 11T393 44T374 75Q343 40 304 19T218 -3ZM207 475Q225 493 246 518T283 572T299 628Q299 702 226
702Q189 702 168 685T146 628Q146 588 165 548T207 475ZM218 79Q255 79 282 97T328 146L192 354Q161 321 137 279T113 190Q113 137 138 108T218 79Z" />
<glyph unicode="&apos;" glyph-name="quotesingle" horiz-adv-x="512" d="M256 542Q240 542 232 552T222 577L200 715Q196 745 212 763T257 781Q283 781 298 769T313 728Q313 711 309 683T299 625T290 577Q288 562 281 552T256 542Z" />
<glyph unicode="(" glyph-name="parenleft" horiz-adv-x="512" d="M436 -82Q417 -82 395 -65T350 -24T311 25T283 63Q232 137 208 219T183 390Q183 582 299 739Q308 751 323 771T358 811T398 846T435 860Q471 860 471 825Q471 812 459 801T439 782Q350 705 303
606T255 387Q255 301 276 233T341 105T446 -10Q454 -17 462 -26T471 -46Q471 -82 436 -82Z" />
<glyph unicode=")" glyph-name="parenright" horiz-adv-x="512" d="M76 -82Q41 -82 41 -47Q41 -34 53 -23T73 -4Q162 73 209 172T257 390Q257 485 227 570T132 726Q116 743 99 758T65 789Q58 796 50 805T41 825Q41 860 77 860Q97 860 119 843T163 802T202 753T230
715Q280 642 304 560T329 390Q329 294 301 206T214 41Q205 29 189 9T154 -32T114 -67T76 -82Z" />
<glyph unicode="*" glyph-name="asterisk" horiz-adv-x="512" d="M256 101Q237 101 225 112T215 144L238 353L120 243Q113 236 105 231T85 225Q43 225 43 267Q43 282 52 291T74 308L226 389L74 471Q62 478 53 487T43 512Q43 553 85 553Q94 553 103 548T120 536L238
425L215 634Q213 654 225 665T256 677Q275 677 287 666T297 634L274 425L392 536Q399 542 408 547T427 553Q469 553 469 511Q469 498 460 488T440 472L286 389L438 308Q450 301 459 292T469 267Q469 225 427 225Q417 225 408 230T392 243L274 353L297 144Q299 124
287 113T256 101Z" />
<glyph unicode="+" glyph-name="plus" horiz-adv-x="512" d="M256 68Q235 68 228 81T220 113V353H89Q71 353 58 361T45 389Q45 409 58 417T89 425H220V665Q220 684 227 697T256 710Q277 710 284 697T292 665V425H423Q441 425 454 417T467 389Q467 369 454 361T423
353H292V113Q292 94 285 81T256 68Z" />
<glyph unicode="," glyph-name="comma" horiz-adv-x="512" d="M85 -82Q61 -82 61 -57Q61 -48 73 -39T100 -18T127 8T139 39Q139 41 138 44T134 46Q97 40 76 57T54 112Q54 181 126 181Q169 181 186 156T203 90Q203 21 158 -30Q147 -43 126 -62T85 -82Z" />
<glyph unicode="-" glyph-name="hyphen" horiz-adv-x="512" d="M89 353Q71 353 58 361T45 389Q45 409 58 417T89 425H423Q441 425 454 417T467 389Q467 369 454 361T423 353H89Z" />
<glyph unicode="." glyph-name="period" horiz-adv-x="512" d="M128 33Q97 33 76 54T54 107Q54 138 76 159T129 181Q159 181 180 159T202 107Q202 77 180 55T128 33Z" />
<glyph unicode="/" glyph-name="slash" horiz-adv-x="512" d="M80 -82Q44 -82 44 -48Q44 -37 49 -25L395 830Q400 843 409 851T432 860Q468 860 468 826Q468 820 466 814T462 803L117 -52Q112 -65 103 -73T80 -82Z" />
<glyph unicode="0" glyph-name="zero" horiz-adv-x="512" d="M256 -3Q196 -3 157 22T95 90T61 183T47 286T44 384Q44 429 47 482T61 588T92 682Q118 735 160 758T260 781Q319 781 358 756T423 677Q442 637 451 586T464 483T468 387Q468 342 465 290T452 186T419
92T357 23T256 -3ZM256 78Q291 78 312 103T346 167T363 249T370 331T371 391Q371 413 370 451T364 531T346 612T311 675T254 700Q220 700 199 675T165 611T148 529T142 448T141 389Q141 367 142 329T148 248T166 166T200 103T256 78Z" />
<glyph unicode="1" glyph-name="one" horiz-adv-x="512" d="M296 -3Q269 -3 259 14T248 56V639Q239 629 226 615T197 591T165 580Q116 580 116 628Q116 645 127 656T151 675Q179 692 203 716T249 764Q266 781 288 781Q345 781 345 723V56Q345 31 335 14T296 -3Z" />
<glyph unicode="2" glyph-name="two" horiz-adv-x="512" d="M115 11Q85 11 66 24T47 69Q47 87 70 118T129 190T205 280T281 380T340 484T363 584Q363 614 352 640T319 684T264 701Q223 701 203 685T175 644T161 594T144 553T106 536Q57 536 57 585Q57 605 63 625T78
663Q106 723 154 752T268 782Q323 782 367 759T438 695T465 596Q465 546 443 491T384 379T306 269T225 171T156 91H416Q437 91 451 83T465 51Q465 28 451 20T416 11H115Z" />
<glyph unicode="3" glyph-name="three" horiz-adv-x="512" d="M248 -3Q205 -3 167 10T98 54Q74 78 58 108T41 173Q41 222 92 222Q113 222 123 207T141 170T159 126T191 88T250 73Q292 73 320 95T362 151T376 223Q376 284 354 315T291 357T196 368Q176 368 167
379T158 410Q158 451 197 451Q210 451 223 450T249 449Q312 448 338 486T365 582Q365 635 343 670T262 705Q226 705 208 691T181 655T166 613T148 578T113 563Q69 563 69 606Q69 660 97 699T169 759T264 781Q351 781 405 730T460 590Q460 523 431 477T337 407Q471
362 471 217Q471 115 410 56T248 -3Z" />
<glyph unicode="4" glyph-name="four" horiz-adv-x="512" d="M351 -3Q326 -3 317 12T307 50V185H88Q27 185 27 244Q27 266 38 286L280 740Q289 757 303 769T338 782Q370 782 382 763T395 714V265Q412 265 433 265T470 258T486 225Q486 200 471 192T434 184T395
185V50Q395 28 386 13T351 -3ZM116 265H307V627L116 265Z" />
<glyph unicode="5" glyph-name="five" horiz-adv-x="512" d="M248 -3Q193 -3 147 18T71 89Q61 106 53 125T45 164Q45 187 55 201T91 216Q112 216 123 202T141 168T160 127T191 92T249 78Q289 78 313 95T351 141T368 202T373 267Q373 291 370 321T358 378T329 424T277
442Q246 442 226 428T192 390T167 342Q160 326 149 318T119 309Q91 309 80 327T68 371V682Q68 717 93 742T153 767H402Q423 767 436 758T450 726Q450 704 437 695T402 685H188Q156 685 156 653V445Q182 479 216 498T293 517Q344 517 378 494T431 433T459 351T468
264Q468 189 448 129T380 33T248 -3Z" />
<glyph unicode="6" glyph-name="six" horiz-adv-x="512" d="M261 -3Q203 -3 164 20T101 84T65 172T49 271T44 365Q44 414 48 470T66 582T106 682T176 754T285 781Q338 781 378 758T443 686Q451 672 457 656T463 622Q463 576 416 576Q394 576 384 589T367 621T354
660T330 692T282 705Q247 705 223 686T184 635T161 567T149 496T143 436Q172 474 210 497T298 520Q348 520 381 497T433 435T460 353T468 268Q468 219 457 171T422 83T358 21T261 -3ZM259 73Q297 73 319 92T352 140T367 202T371 264Q371 288 369 318T357 377T329
425T277 444Q245 444 220 428T175 387T141 336Q141 313 142 280T150 210T168 143T203 93T259 73Z" />
<glyph unicode="7" glyph-name="seven" horiz-adv-x="512" d="M160 -4Q114 -4 114 39Q114 47 116 53T120 67Q124 77 138 113T172 204T216 319T263 441T305 552T335 634T347 666Q347 674 342 676T330 679H100Q78 679 62 688T46 723Q46 748 62 757T100 767H397Q460
767 460 707Q460 698 458 690T453 674L210 40Q203 23 192 10T160 -4Z" />
<glyph unicode="8" glyph-name="eight" horiz-adv-x="512" d="M257 -3Q190 -3 140 23T61 99T32 216Q32 290 68 339T172 415Q114 438 83 480T51 587Q51 647 78 690T152 757T256 781Q314 781 360 757T433 690T461 587Q461 461 341 415Q409 389 445 340T481 216Q481
114 420 56T257 -3ZM256 459Q309 459 340 495T371 582Q371 702 254 702Q195 702 168 670T141 581Q141 530 172 495T256 459ZM256 76Q327 76 357 116T387 224Q387 264 372 298T327 353T254 374Q211 374 183 352T140 295T126 220Q126 154 156 115T256 76Z" />
<glyph unicode="9" glyph-name="nine" horiz-adv-x="512" d="M227 -3Q174 -3 134 20T69 92Q62 106 56 123T49 156Q49 202 96 202Q119 202 129 189T145 157T158 119T182 86T230 73Q265 73 289 92T328 143T351 211T364 282T369 342Q340 305 302 282T214 258Q164
258 131 281T79 343T52 426T44 510Q44 559 55 607T90 694T154 757T251 781Q309 781 348 758T411 694T447 606T463 507T468 413Q468 364 464 308T446 196T406 96T336 24T227 -3ZM235 334Q262 334 290 351T340 393T371 441Q371 464 370 498T362 567T343 634T308 685T252
705Q215 705 193 686T160 638T145 575T141 514Q141 490 143 460T155 401T183 353T235 334Z" />
<glyph unicode=":" glyph-name="colon" horiz-adv-x="512" d="M256 406Q227 406 207 427T186 477Q186 506 207 526T257 546Q286 546 306 526T326 476Q326 447 306 427T256 406ZM256 -3Q227 -3 207 18T186 68Q186 97 207 117T257 137Q286 137 306 117T326 67Q326
38 306 18T256 -3Z" />
<glyph unicode=";" glyph-name="semicolon" horiz-adv-x="512" d="M257 406Q228 406 208 427T187 477Q187 506 208 526T258 546Q287 546 307 526T327 476Q327 447 307 427T257 406ZM216 -114Q195 -114 195 -91Q195 -82 206 -74T231 -56T256 -32T267 2Q267 10 262
8Q232 3 209 22T185 72Q185 106 203 121T254 136Q296 136 311 111T327 47Q327 15 317 -14T285 -67Q274 -80 255 -97T216 -114Z" />
<glyph unicode="&lt;" glyph-name="less" horiz-adv-x="512" d="M430 47Q423 47 415 52T401 61L65 338Q54 347 45 360T35 389Q35 405 44 418T65 441L401 717Q407 722 414 726T430 730Q467 730 467 693Q467 683 461 674T447 659L119 389L447 119Q455 113 461 105T467
85Q467 47 430 47Z" />
<glyph unicode="=" glyph-name="equal" horiz-adv-x="512" d="M89 448Q71 448 58 456T45 484Q45 504 58 512T89 520H423Q441 520 454 512T467 484Q467 464 454 456T423 448H89ZM89 259Q71 259 58 267T45 295Q45 315 58 323T89 331H423Q441 331 454 323T467 295Q467
275 454 267T423 259H89Z" />
<glyph unicode="&gt;" glyph-name="greater" horiz-adv-x="512" d="M82 47Q45 47 45 85Q45 96 51 104T65 119L393 389L65 659Q58 665 52 674T45 693Q45 730 82 730Q90 730 97 726T111 717L447 441Q459 431 468 418T477 389Q477 374 468 361T448 339L111 61Q105
56 98 52T82 47Z" />
<glyph unicode="?" glyph-name="question" horiz-adv-x="512" d="M251 191Q207 191 207 237V257Q207 319 223 362T264 435T313 490T353 540T370 598Q370 651 340 673T260 696Q220 696 198 682T165 646T146 603T127 568T92 553Q48 553 48 595Q48 652 80 693T163
758T264 781Q319 781 364 760T437 699T464 600Q464 573 454 542T425 491Q396 460 372 437T331 390T305 338T295 265Q295 247 294 230T285 202T251 191ZM253 -3Q185 -3 185 66Q185 95 205 114T254 133Q281 133 301 113T321 65Q321 37 301 17T253 -3Z" />
<glyph unicode="@" glyph-name="at" horiz-adv-x="512" d="M259 -3Q199 -3 158 22T91 90T50 184T31 289T25 388Q25 437 30 489T51 590T96 681Q128 726 170 753T270 781Q334 781 376 749T443 667T478 560T488 451Q488 397 479 339T443 233Q428 206 404 179T345
152Q320 152 311 175T300 218Q287 197 266 178T217 158Q181 158 163 180T139 233T133 293Q133 316 135 356T144 443T164 530T200 597T256 624Q284 624 298 604T318 560Q319 570 320 585T327 612T347 624Q363 624 370 612T375 586L339 248Q338 239 342 230T357 220Q374
220 385 241T403 294T415 361T420 423T422 462Q422 499 416 543T392 626T345 691T266 716Q222 716 192 692T141 628T110 543T95 454T91 378Q91 347 95 306T109 223T138 144T186 86T258 63Q293 63 317 77T359 110T389 143T414 158Q446 158 446 128Q446 113 436 98T412
69T387 46Q360 23 328 10T259 -3ZM222 230Q241 230 254 252T275 310T289 382T296 451T298 498Q298 517 292 538T261 559Q243 559 232 537T213 479T202 407T197 339T195 295Q195 287 196 271T203 243T222 230Z" />
<glyph unicode="A" glyph-name="A" horiz-adv-x="512" d="M69 -3Q50 -3 38 6T26 35Q26 37 26 43T28 50L194 723Q200 749 214 765T257 781Q286 781 300 763T321 719L485 50Q486 49 486 43T487 35Q487 15 476 6T444 -3Q425 -3 414 9T399 38L358 214H156L114 38Q110
21 99 9T69 -3ZM175 296H338L257 640L175 296Z" />
<glyph unicode="B" glyph-name="B" horiz-adv-x="512" d="M130 11Q93 11 67 36T41 99V679Q41 715 67 741T130 767H225Q289 767 342 754T427 702T459 587Q459 520 426 475T331 406Q404 385 441 338T479 213Q479 147 450 102T370 34T256 11H130ZM135 446H218Q283
446 323 476T364 575Q364 639 331 660T239 682H174Q156 682 146 671T135 642V446ZM175 96H227Q272 96 307 108T363 148T384 226Q384 277 363 306T305 348T222 361H135V136Q135 96 175 96Z" />
<glyph unicode="C" glyph-name="C" horiz-adv-x="512" d="M271 -3Q209 -3 167 21T98 87T58 179T39 283T34 385Q34 434 39 488T58 595T98 689T168 756T275 781Q328 781 371 754T440 682T466 584Q466 540 421 540Q397 540 386 555T369 593T353 638T326 675T270 691Q230
691 205 668T164 608T143 529T134 447T132 380Q132 353 134 316T142 239T164 165T204 109T268 87Q303 87 322 104T353 146T374 197T395 239T432 256Q478 256 478 211Q478 183 466 151T439 94Q412 45 370 21T271 -3Z" />
<glyph unicode="D" glyph-name="D" horiz-adv-x="512" d="M120 11Q87 11 64 34T41 91V687Q41 719 64 743T119 767H191Q277 767 332 736T420 652T465 532T478 390Q478 325 467 258T428 135T348 45T217 11H120ZM171 99H199Q259 99 295 127T349 199T374 295T381 393Q381
438 375 487T350 580T296 651T203 679H170Q152 679 144 668T135 639V139Q135 123 144 111T171 99Z" />
<glyph unicode="E" glyph-name="E" horiz-adv-x="512" d="M120 11Q87 11 64 34T41 91V687Q41 719 64 743T120 767H431Q454 767 469 758T484 723Q484 698 469 689T431 679H175Q135 679 135 639V442H373Q396 442 411 433T427 398Q427 373 412 364T373 354H135V139Q135
99 175 99H431Q454 99 469 90T484 55Q484 30 469 21T431 11H120Z" />
<glyph unicode="F" glyph-name="F" horiz-adv-x="512" d="M88 -3Q61 -3 51 14T41 55V687Q41 720 64 743T120 767H431Q454 767 469 758T484 723Q484 698 469 689T431 679H176Q136 679 136 639V435H383Q406 435 421 426T436 391Q436 366 421 357T383 347H136V55Q136
30 126 14T88 -3Z" />
<glyph unicode="G" glyph-name="G" horiz-adv-x="512" d="M275 -3Q211 -3 168 22T98 90T57 185T38 292T33 397Q33 446 39 499T61 602T105 692T177 757T281 781Q335 781 377 760T447 692Q460 671 469 647T478 598Q478 556 433 556Q408 556 397 569T379 603T363
644T334 678T277 692Q236 692 209 672T166 619T143 547T133 470T130 403Q130 375 132 334T141 250T163 168T206 107T275 83Q329 83 356 112T383 194V301Q383 320 372 325T343 331T308 330Q287 330 271 337T255 373Q255 398 270 407T307 416H389Q426 416 451 399T477
341V197Q477 104 423 51T275 -3Z" />
<glyph unicode="H" glyph-name="H" horiz-adv-x="512" d="M88 -4Q62 -4 52 12T41 53V723Q41 747 51 764T88 781Q115 781 125 764T135 723V442H377V723Q377 747 387 764T424 781Q451 781 461 764T471 723V53Q471 29 461 13T424 -4Q398 -4 388 12T377 53V354H135V53Q135
29 125 13T88 -4Z" />
<glyph unicode="I" glyph-name="I" horiz-adv-x="512" d="M255 -3Q227 -3 217 14T206 57V721Q206 747 217 764T256 781Q284 781 294 764T305 721V57Q305 32 294 15T255 -3Z" />
<glyph unicode="J" glyph-name="J" horiz-adv-x="512" d="M255 -3Q199 -3 148 21T64 91T31 197Q31 244 80 244Q105 244 117 228T136 189T155 142T190 102T257 86Q306 86 331 112T366 178T376 258V723Q376 748 386 764T424 781Q451 781 461 764T471 723V255Q471
181 451 123T384 31T255 -3Z" />
<glyph unicode="K" glyph-name="K" horiz-adv-x="512" d="M87 -3Q61 -3 51 13T40 54V724Q40 748 50 764T87 781Q113 781 123 765T134 724V398L377 755Q384 766 394 773T418 781Q462 781 462 739Q462 731 458 723T448 708L279 469L476 73Q480 66 482 58T485 41Q485
19 473 8T438 -3Q420 -3 409 8T390 34L220 386L134 265V54Q134 30 124 14T87 -3Z" />
<glyph unicode="L" glyph-name="L" horiz-adv-x="512" d="M121 11Q89 11 65 33T41 89V722Q41 747 51 764T90 781Q118 781 128 764T139 722V130Q139 101 168 101H430Q453 101 469 92T485 56Q485 31 469 21T430 11H121Z" />
<glyph unicode="M" glyph-name="M" horiz-adv-x="512" d="M78 -3Q56 -3 47 11T38 45V696Q38 732 53 756T108 781Q140 781 154 761T173 712L256 205L339 712Q344 741 358 761T405 781Q445 781 459 756T474 696V45Q474 25 466 11T434 -3Q412 -3 403 11T394 45V658L296
38Q293 22 284 10T256 -3Q237 -3 229 8T217 37L118 658V45Q118 25 110 11T78 -3Z" />
<glyph unicode="N" glyph-name="N" horiz-adv-x="512" d="M86 -3Q61 -3 51 13T41 52V711Q41 740 53 760T97 781Q120 781 134 766T155 731L380 181V725Q380 748 390 764T425 781Q451 781 461 765T471 725V68Q471 39 459 18T414 -3Q391 -3 377 13T354 48L132 593V52Q132
28 122 13T86 -3Z" />
<glyph unicode="O" glyph-name="O" horiz-adv-x="512" d="M257 -3Q197 -3 157 22T92 90T55 184T38 289T34 387Q34 433 38 486T55 592T93 686T159 755T261 781Q320 781 359 755T423 686T459 591T475 487T479 390Q479 345 475 292T459 187T422 92T357 23T257 -3ZM256
86Q312 86 340 134Q359 166 367 213T379 310T382 394Q382 419 381 456T373 534T354 611T316 669T255 692Q219 692 196 671T160 615T140 542T133 466T131 406Q131 370 133 320T144 220T170 138Q197 86 256 86Z" />
<glyph unicode="P" glyph-name="P" horiz-adv-x="512" d="M88 -3Q62 -3 52 13T41 54V688Q41 721 64 744T120 767H233Q267 767 311 763T386 741Q437 712 459 665T482 560Q482 452 425 396T260 339H135V54Q135 30 125 14T88 -3ZM135 424H228Q303 424 344 451T385
561Q385 632 347 657T242 682H175Q135 682 135 642V424Z" />
<glyph unicode="Q" glyph-name="Q" horiz-adv-x="512" d="M252 -3Q192 -3 153 23T89 92T52 187T36 291T32 389Q32 434 36 487T52 591T89 686T154 755T254 781Q314 781 354 755T419 686T455 591T472 485T476 387Q476 322 467 256T433 128Q440 120 454 103T480 67T492
39Q492 -3 452 -3Q440 -3 428 8T406 32T389 55Q363 24 328 11T252 -3ZM255 85Q304 85 334 126Q328 134 311 154T275 199T242 244T228 274Q228 316 268 316Q279 316 293 304T322 273T348 239T367 213Q376 257 378 302T381 392Q381 417 380 454T372 533T353 610T315
669T254 692Q217 692 194 669T158 608T138 528T131 447T129 385Q129 361 130 324T138 245T157 167T194 108T255 85Z" />
<glyph unicode="R" glyph-name="R" horiz-adv-x="512" d="M88 -3Q61 -3 51 14T41 55V684Q41 718 65 742T124 767H249Q317 767 367 748T446 685T474 568Q474 486 429 442T307 381Q333 374 357 363T398 330Q415 309 427 271T447 194T461 128Q466 109 472 86T478
43Q478 19 465 8T428 -3Q403 -3 390 16T371 66T361 134T349 209T326 278T281 328T205 347H135V55Q135 31 125 14T88 -3ZM135 432H213Q259 432 296 444T355 487T377 567Q377 630 339 656T242 682H177Q158 682 147 671T135 640V432Z" />
<glyph unicode="S" glyph-name="S" horiz-adv-x="512" d="M262 -3Q198 -3 147 22T64 106Q51 129 43 154T34 207Q34 258 84 258Q107 258 118 246T135 213T147 171T165 128T200 96T264 83Q319 83 350 121T381 212Q381 254 363 282T314 329T248 365T176 398T109 439T61
498T42 586Q42 647 69 690T142 757T247 781Q299 781 348 760T429 698T462 600Q462 552 414 552Q390 552 379 566T360 602T342 645T309 680T246 695Q193 695 165 669T136 589Q136 554 154 531T203 490T270 457T343 423T410 378T459 312T478 216Q478 116 421 57T262
-3Z" />
<glyph unicode="T" glyph-name="T" horiz-adv-x="512" d="M256 -4Q228 -4 218 13T207 56V678H74Q52 678 39 688T25 723Q25 746 38 756T74 767H437Q460 767 473 757T487 722Q487 698 473 688T437 678H305V56Q305 31 295 14T256 -4Z" />
<glyph unicode="U" glyph-name="U" horiz-adv-x="512" d="M256 -3Q148 -3 95 55T41 219V724Q41 748 51 764T88 781Q114 781 124 765T135 724V230Q135 168 161 127T256 86Q324 86 350 127T377 230V724Q377 748 387 764T424 781Q450 781 460 765T471 724V225Q471
116 420 57T256 -3Z" />
<glyph unicode="V" glyph-name="V" horiz-adv-x="512" d="M256 -4Q228 -4 214 14T193 58L28 725Q27 727 27 733T26 740Q26 761 38 771T70 781Q89 781 100 770T115 741L256 170L396 737Q401 755 412 768T443 781Q463 781 475 771T487 740Q487 739 487 733T485 725L319
54Q313 29 298 13T256 -4Z" />
<glyph unicode="W" glyph-name="W" horiz-adv-x="512" d="M141 -3Q121 -3 112 9T100 41L20 743Q18 761 30 771T58 781Q78 781 86 769T97 739L153 249L218 742Q220 759 228 770T256 781Q274 781 282 770T293 742L358 249L414 739Q416 757 425 769T453 781Q470 781
481 771T491 743L411 41Q409 22 400 10T370 -3Q350 -3 340 9T328 41L256 567L183 41Q181 22 171 10T141 -3Z" />
<glyph unicode="X" glyph-name="X" horiz-adv-x="512" d="M70 -3Q51 -3 39 6T26 36Q26 44 28 51T35 66L208 407L54 712Q51 718 48 726T45 742Q45 763 57 772T89 781Q105 781 115 772T133 748L256 504L381 750Q388 763 398 772T424 781Q444 781 455 772T467 742Q467
726 459 712L305 407L478 66Q482 59 484 52T487 36Q487 15 475 6T443 -3Q427 -3 415 7T396 31L256 310L116 31Q109 17 98 7T70 -3Z" />
<glyph unicode="Y" glyph-name="Y" horiz-adv-x="512" d="M255 -3Q228 -3 218 14T208 55V332L34 713Q31 720 29 727T26 742Q26 763 38 772T69 781Q86 781 96 771T114 747L256 443L397 746Q404 760 415 770T442 781Q462 781 474 772T486 742Q486 735 484 728T478
714L303 330V55Q303 30 293 14T255 -3Z" />
<glyph unicode="Z" glyph-name="Z" horiz-adv-x="512" d="M110 11Q74 11 52 27T30 81Q30 95 36 109T49 135L367 679H95Q73 679 57 688T40 723Q40 749 56 758T95 767H397Q432 767 454 752T476 699Q476 686 469 672T456 646L137 99H429Q452 99 467 90T483 55Q483
30 468 21T429 11H110Z" />
<glyph unicode="[" glyph-name="bracketleft" horiz-adv-x="512" d="M257 -69Q226 -69 202 -45T178 10V768Q178 800 202 823T257 847H430Q448 847 459 839T471 811Q471 792 460 784T430 775H300Q250 775 250 725V53Q250 3 300 3H430Q448 3 459 -5T471 -33Q471
-52 460 -60T430 -69H257Z" />
<glyph unicode="\" glyph-name="backslash" horiz-adv-x="512" d="M256 -3Q231 -3 221 13T211 52V191H78Q59 191 46 198T33 227Q33 248 46 255T78 263H211V354H209L204 364H78Q59 364 46 371T33 400Q33 421 46 428T78 436H170L33 716Q30 723 28 730T26 744Q26
781 66 781Q82 781 92 771T109 748L256 441L403 748Q409 761 419 771T446 781Q486 781 486 744Q486 737 484 730T479 716L342 436H435Q454 436 467 429T480 400Q480 379 467 372T435 364H308L303 354H301V263H435Q454 263 467 256T480 227Q480 206 467 199T435
191H301V52Q301 29 292 13T256 -3Z" />
<glyph unicode="]" glyph-name="bracketright" horiz-adv-x="512" d="M82 -69Q64 -69 53 -61T41 -33Q41 -13 52 -5T82 3H212Q262 3 262 53V725Q262 775 212 775H82Q64 775 53 783T41 811Q41 831 52 839T82 847H255Q287 847 310 824T334 768V10Q334 -23 311 -46T255
-69H82Z" />
<glyph unicode="^" glyph-name="asciicircum" horiz-adv-x="512" d="M127 770Q101 770 101 795Q101 807 112 816L202 901H309L399 816Q410 807 410 795Q410 770 384 770Q378 770 360 780T320 804T280 830T256 846Q250 842 231 830T190 804T150 780T127 770Z" />
<glyph unicode="_" glyph-name="underscore" horiz-adv-x="512" d="M0 -123V-51H512V-123H0Z" />
<glyph unicode="`" glyph-name="grave" horiz-adv-x="512" d="M375 756Q370 756 349 762T297 777T235 795T180 812T148 822Q135 826 125 834T114 859Q114 901 157 901Q166 901 174 899T191 892L381 803Q388 800 393 794T399 780Q399 756 375 756Z" />
<glyph unicode="a" glyph-name="a" horiz-adv-x="512" d="M204 -3Q134 -3 86 35T37 147Q37 202 59 237T118 293T199 322T290 334T377 338Q377 380 370 408T340 450T269 465Q229 465 208 451T175 419T149 386T110 372Q90 372 77 381T63 413Q63 430 71 445T89 474Q121
515 167 530T263 546Q322 546 367 529T439 473T466 370V42Q466 -3 421 -3Q395 -3 386 10T377 42T377 80Q343 43 300 20T204 -3ZM210 74Q242 74 271 85T325 117Q339 129 358 150T377 193V270Q352 269 320 268T255 261T192 243T146 208T128 150Q128 110 149 92T210
74Z" />
<glyph unicode="b" glyph-name="b" horiz-adv-x="512" d="M92 -3Q67 -3 57 13T47 52V726Q47 750 57 765T93 781Q119 781 128 765T138 726V463Q164 501 199 523T281 546Q335 546 372 522T432 457T465 369T476 277Q476 230 467 181T436 90T377 23T282 -3Q236 -3
200 18T138 77Q138 59 137 41T127 10T92 -3ZM270 78Q308 78 330 97T364 148T378 213T382 275Q382 304 378 337T363 399T328 446T267 465Q233 465 204 445T156 394T138 329V208Q138 173 156 144T205 96T270 78Z" />
<glyph unicode="c" glyph-name="c" horiz-adv-x="512" d="M268 -3Q186 -3 136 36T64 138T41 275Q41 348 64 409T138 508T269 546Q308 546 344 534T409 495Q430 476 447 450T464 394Q464 350 418 350Q397 350 386 361T367 390T349 424T319 452T264 464Q223 464
198 447T159 402T140 340T135 273Q135 239 140 205T160 142T200 96T268 79Q304 79 324 92T354 126T372 165T392 198T426 212Q472 212 472 169Q472 136 457 107T418 54Q388 23 349 10T268 -3Z" />
<glyph unicode="d" glyph-name="d" horiz-adv-x="512" d="M230 -3Q173 -3 136 22T76 90T45 181T36 277Q36 323 46 370T79 457T139 521T231 546Q278 546 313 524T374 463V726Q374 750 384 765T420 781Q446 781 455 765T465 726V43Q465 -3 419 -3Q393 -3 384 9T374
39T374 77Q349 39 313 18T230 -3ZM243 78Q279 78 308 96T356 144T374 210V327Q374 362 357 393T310 445T245 465Q207 465 184 447T150 399T134 337T130 275Q130 247 133 213T148 148T182 98T243 78Z" />
<glyph unicode="e" glyph-name="e" horiz-adv-x="512" d="M267 -4Q187 -4 137 35T64 137T41 271Q41 323 52 372T89 460T156 523T257 546Q328 546 375 516T447 434T471 313Q471 250 406 250H134Q134 205 144 165T182 99T264 73Q304 73 325 85T357 116T375 152T393
182T426 195Q446 195 458 185T470 154Q470 123 454 97T415 49Q385 21 347 9T267 -4ZM137 329H364Q376 329 376 340Q376 394 345 431T258 469Q216 469 191 450T153 398T137 329Z" />
<glyph unicode="f" glyph-name="f" horiz-adv-x="512" d="M251 -3Q226 -3 216 13T206 52V450H125Q104 450 90 459T75 491Q75 514 90 522T125 531H206V657Q206 713 238 740T324 767H388Q409 767 421 758T434 726Q434 701 420 694T386 686T346 685T311 674T297 633V531H389Q409
531 424 523T439 491Q439 468 425 459T389 450H297V52Q297 28 287 13T251 -3Z" />
<glyph unicode="g" glyph-name="g" horiz-adv-x="512" d="M247 -123Q216 -123 179 -120T108 -104T53 -68T31 -2Q31 31 47 53T88 90T141 114Q122 122 99 136T75 176Q75 202 98 219T141 246Q104 268 83 300T62 377Q62 430 88 467T157 525T249 546Q284 546 316 536T374
501Q390 518 411 532T457 546Q477 546 484 534T492 505Q492 484 479 475T447 460T414 447Q434 409 434 367Q434 319 408 285T340 234T254 216Q240 216 226 217T198 223Q189 219 177 212T164 193Q164 178 186 171T243 157T317 143T391 119T448 76T470 4Q470 -39
448 -64T391 -102T318 -119T247 -123ZM249 284Q296 284 322 306T349 377Q349 475 249 475Q207 475 177 447T147 376Q147 333 177 309T249 284ZM241 -51Q256 -51 280 -50T327 -43T367 -25T384 10Q384 29 367 44T324 70T273 86T233 92Q213 92 186 83T138 56T117 14Q117
-16 139 -29T190 -47T241 -51Z" />
<glyph unicode="h" glyph-name="h" horiz-adv-x="512" d="M91 -3Q66 -3 56 13T46 52V726Q46 750 56 765T92 781Q118 781 127 765T137 726V448Q169 490 211 518T309 546Q394 546 430 496T466 366V52Q466 28 456 13T420 -3Q395 -3 385 13T375 52V350Q375 380 368
406T343 448T290 465Q226 465 182 416Q165 397 151 373T137 322V52Q137 28 127 13T91 -3Z" />
<glyph unicode="i" glyph-name="i" horiz-adv-x="512" d="M256 652Q191 652 191 717Q191 782 257 782Q283 782 302 763T321 717Q321 652 256 652ZM255 -3Q229 -3 219 13T208 53V484Q208 508 218 524T255 541Q281 541 291 525T302 484V53Q302 29 292 13T255 -3Z" />
<glyph unicode="j" glyph-name="j" horiz-adv-x="512" d="M298 652Q233 652 233 717Q233 782 299 782Q325 782 344 763T363 717Q363 652 298 652ZM153 -123Q133 -123 121 -114T108 -82Q108 -58 121 -50T153 -41T192 -41Q234 -41 242 -23T251 36V484Q251 508 261
524T298 541Q324 541 334 525T345 484V31Q345 -26 334 -58T300 -103T241 -120T153 -123Z" />
<glyph unicode="k" glyph-name="k" horiz-adv-x="512" d="M92 -3Q67 -3 57 12T47 51V727Q47 750 57 765T92 781Q118 781 127 766T137 727V296L380 528Q388 535 397 540T416 546Q458 546 458 506Q458 496 452 488T438 472L287 332L469 73Q474 66 478 58T482 40Q482
-3 437 -3Q423 -3 412 6T392 26L224 273L137 192V51Q137 28 128 13T92 -3Z" />
<glyph unicode="l" glyph-name="l" horiz-adv-x="512" d="M256 -3Q230 -3 220 13T209 54V724Q209 748 219 764T256 781Q282 781 292 765T303 724V54Q303 30 293 14T256 -3Z" />
<glyph unicode="m" glyph-name="m" horiz-adv-x="512" d="M78 -3Q55 -3 46 11T36 47V505Q36 546 79 546Q102 546 110 538T120 515T121 482Q137 506 159 526T213 546Q245 546 263 528T289 480Q305 506 328 526T383 546Q422 546 442 525T469 472T476 408V47Q476
25 467 11T433 -3Q410 -3 401 11T391 47V402Q391 412 390 429T382 460T361 474Q344 474 330 459T308 422T299 386V47Q299 25 290 11T256 -3Q233 -3 224 11T214 47V395Q214 404 213 423T206 458T186 474Q171 474 156 457T131 419T121 383V47Q121 25 112 11T78 -3Z"
/>
<glyph unicode="n" glyph-name="n" horiz-adv-x="512" d="M91 -3Q66 -3 56 13T46 52V495Q46 518 56 532T91 546Q120 546 129 530T138 492T137 449Q169 492 211 519T309 546Q394 546 430 496T466 366V52Q466 28 456 13T420 -3Q395 -3 385 13T375 52V350Q375 380
368 406T343 448T290 465Q226 465 182 416Q165 397 151 374T137 323V52Q137 28 127 13T91 -3Z" />
<glyph unicode="o" glyph-name="o" horiz-adv-x="512" d="M256 -3Q171 -3 124 34T57 134T37 271Q37 348 57 410T126 509T260 546Q320 546 361 523T427 461T464 372T475 270Q475 195 456 133T389 34T256 -3ZM256 79Q296 79 320 96T358 142T376 203T381 269Q381
301 377 335T359 399T321 446T255 464Q214 464 189 444T152 392T135 324T130 256Q130 213 140 173T177 106T256 79Z" />
<glyph unicode="p" glyph-name="p" horiz-adv-x="512" d="M92 -123Q67 -123 57 -107T47 -67V500Q47 546 93 546Q120 546 129 534T138 504T138 465Q164 503 199 524T281 546Q334 546 371 524T431 463T465 380T476 289Q476 242 467 195T435 109T376 46T282 22Q236
22 200 42T138 100V-67Q138 -90 128 -106T92 -123ZM269 103Q306 103 328 120T362 166T378 226T382 287Q382 317 378 348T362 405T327 448T267 465Q234 465 205 446T157 395T138 331V231Q138 197 157 168T206 121T269 103Z" />
<glyph unicode="q" glyph-name="q" horiz-adv-x="512" d="M419 -123Q394 -123 384 -107T374 -67V100Q348 63 312 43T230 22Q174 22 137 46T77 109T46 195T36 290Q36 335 47 380T81 463T141 523T231 546Q277 546 313 525T374 465Q374 485 374 503T383 534T419 546Q465
546 465 500V-67Q465 -90 455 -106T419 -123ZM242 103Q293 103 325 133T370 210Q370 212 372 219T374 227V328Q374 363 357 394T310 445T245 465Q208 465 185 449T150 405T134 347T130 285Q130 257 134 225T149 166T183 121T242 103Z" />
<glyph unicode="r" glyph-name="r" horiz-adv-x="512" d="M169 -3Q144 -3 134 13T124 52V491Q124 515 134 530T170 546Q197 546 206 531T215 496T215 456Q244 493 281 519T368 546Q390 546 402 536T415 503Q415 476 396 466T353 453Q323 449 291 433T237 392T215
331V52Q215 28 205 13T169 -3Z" />
<glyph unicode="s" glyph-name="s" horiz-adv-x="512" d="M265 -3Q224 -3 183 6T107 42Q85 59 68 82T50 136Q50 158 62 167T95 176Q116 176 129 161T156 126T195 91T263 76Q288 76 311 81T349 103T365 148Q365 175 343 193T287 225T213 253T140 285T83 332T61
401Q61 452 89 484T161 531T249 546Q287 546 324 537T391 503Q411 487 428 466T445 418Q445 397 433 388T401 379Q379 379 367 392T342 423T310 453T250 467Q228 467 207 462T172 443T158 402Q158 376 180 359T236 329T310 303T383 271T440 223T462 149Q462 93
433 60T359 12T265 -3Z" />
<glyph unicode="t" glyph-name="t" horiz-adv-x="512" d="M318 11Q266 11 240 24T204 66T195 144V451H122Q102 451 87 459T72 491Q72 514 87 522T122 531H195V666Q195 690 205 705T241 721Q267 721 276 705T286 666V531H373Q393 531 408 523T423 491Q423 468 408
460T373 451H286V157Q286 126 292 112T315 95T358 92Q381 92 399 87T417 52Q417 30 405 21T372 11H318Z" />
<glyph unicode="u" glyph-name="u" horiz-adv-x="512" d="M203 -3Q118 -3 82 47T46 177V491Q46 515 56 530T92 546Q118 546 127 530T137 491V192Q137 163 144 137T169 94T222 78Q287 78 331 127Q348 146 361 170T375 220V491Q375 515 385 530T421 546Q447 546
456 530T466 491V47Q466 24 455 11T420 -3Q392 -3 383 13T374 52T375 94Q343 51 301 24T203 -3Z" />
<glyph unicode="v" glyph-name="v" horiz-adv-x="512" d="M256 -3Q202 -3 186 46L36 481Q34 487 32 493T30 507Q30 528 42 537T74 546Q94 546 104 534T121 504L256 104L393 507Q398 524 409 535T439 546Q459 546 471 537T483 507Q483 502 473 470T446 390T411
287T374 182T343 95T326 46Q308 -3 256 -3Z" />
<glyph unicode="w" glyph-name="w" horiz-adv-x="512" d="M145 -3Q122 -3 112 11T97 47L21 495Q20 499 20 503T20 511Q20 546 57 546Q75 546 83 535T95 507L152 159L204 492Q208 515 219 530T256 546Q282 546 293 531T308 492L359 159L416 506Q419 523 427 534T454
546Q491 546 491 510Q491 507 491 503T490 495L414 46Q410 25 400 11T366 -3Q344 -3 333 11T318 46L256 429L194 47Q190 26 179 12T145 -3Z" />
<glyph unicode="x" glyph-name="x" horiz-adv-x="512" d="M78 -3Q35 -3 35 37Q35 45 39 52T47 66L203 285L67 476Q63 483 59 490T54 506Q54 527 66 536T98 546Q113 546 124 538T143 518L256 359L370 518Q378 529 389 537T415 546Q458 546 458 506Q458 498 455
491T446 476L309 285L466 66Q471 59 474 52T478 36Q478 15 466 6T434 -3Q419 -3 408 5T389 25L256 211L123 25Q115 14 104 6T78 -3Z" />
<glyph unicode="y" glyph-name="y" horiz-adv-x="512" d="M181 -123Q162 -123 149 -115T136 -84Q136 -77 146 -51T171 7T198 66T215 104L41 476Q38 483 36 490T33 505Q33 527 45 536T78 546Q95 546 105 536T123 512L262 212L394 511Q400 525 411 535T439 546Q484
546 484 504Q484 496 481 488T475 472L229 -86Q222 -102 211 -112T181 -123Z" />
<glyph unicode="z" glyph-name="z" horiz-adv-x="512" d="M121 11Q90 11 69 24T48 71Q48 85 54 97T69 120L339 449H105Q84 449 70 458T55 490Q55 513 69 522T105 531H380Q410 531 431 519T453 473Q453 460 447 449T433 427L159 93H414Q435 93 449 84T464 52Q464
29 450 20T414 11H121Z" />
<glyph unicode="{" glyph-name="braceleft" horiz-adv-x="512" d="M443 -82Q420 -82 392 -70T344 -46Q276 -7 276 68V268Q276 304 266 321T240 346T210 356T185 366T174 389Q174 405 184 411T210 420T240 431T265 456T276 508V707Q276 786 343 824Q363 835 391
847T443 860Q471 860 471 833Q471 821 453 812T410 791T367 759T348 704V499Q348 457 330 429T268 389Q312 380 330 351T348 279V77Q348 62 352 44T368 14Q384 -1 409 -12T454 -31Q471 -38 471 -54Q471 -82 443 -82Z" />
<glyph unicode="|" glyph-name="bar" horiz-adv-x="512" d="M256 -82Q236 -82 228 -69T220 -38V816Q220 834 228 847T256 860Q276 860 284 847T292 816V-38Q292 -56 284 -69T256 -82Z" />
<glyph unicode="}" glyph-name="braceright" horiz-adv-x="512" d="M69 -82Q41 -82 41 -55Q41 -43 59 -34T102 -13T145 19T164 74V279Q164 321 182 350T243 389Q200 399 182 428T164 499V701Q164 716 160 734T144 764Q128 779 102 791T56 811Q41 817 41 832Q41
860 69 860Q90 860 119 848T168 825Q203 807 219 776T236 707V510Q236 467 256 447T316 418Q338 414 338 389Q338 373 328 367T302 358T272 347T247 322T236 270V71Q236 34 219 4T170 -46Q151 -57 122 -69T69 -82Z" />
<glyph unicode="~" glyph-name="asciitilde" horiz-adv-x="512" d="M341 648Q310 648 281 661T222 687T162 700Q145 700 132 689T106 667T80 656Q45 656 45 693Q45 717 68 737T120 769T171 781Q202 781 231 768T290 742T350 729Q366 729 380 740T408 762T431 774Q467
774 467 737Q467 713 445 693T392 661T341 648Z" />
<glyph unicode="&#xa7;" glyph-name="section" horiz-adv-x="1024" d="M528 -36Q476 -36 424 -24T331 22Q303 45 282 75T260 142Q260 164 272 173T305 183Q329 183 342 169T368 135T398 95T448 60T535 46Q561 46 592 53T646 78T669 129Q669 158 642 177T571 212T479
243T387 278T317 328T289 402Q289 441 309 468T360 512T424 540Q396 553 368 567T322 605T304 664Q304 707 324 736T378 782T450 806T522 814Q567 814 612 803T693 762Q716 743 735 716T755 656Q755 635 743 626T711 617Q685 617 673 628T654 657T634 692T597 720T522
732Q500 732 471 728T420 710T398 665Q398 642 423 625T489 594T575 565T661 529T727 479T753 407Q753 354 722 322T643 272Q673 259 701 240T746 193T764 130Q764 83 742 51T685 0T609 -27T528 -36ZM535 313Q565 315 593 322T641 349T660 404Q660 422 645 437T609
464T566 484T530 496Q509 495 484 492T436 480T397 454T382 409Q382 389 397 375Q411 363 437 351T490 329T535 313Z" />
<glyph unicode="&#xa8;" glyph-name="dieresis" horiz-adv-x="1024" d="M623 787Q566 787 566 844Q566 901 624 901Q680 901 680 844Q680 787 623 787ZM401 787Q344 787 344 844Q344 901 402 901Q458 901 458 844Q458 787 401 787Z" />
<glyph unicode="&#xb0;" glyph-name="degree" horiz-adv-x="1024" d="M195 553Q153 553 118 574T62 630T41 708Q41 751 62 785T119 840T197 860Q239 860 273 839T327 784T348 707Q348 665 328 630T273 574T195 553ZM195 613Q234 613 261 640T288 707Q288 747 260
773T193 800Q155 800 128 773T101 707Q101 668 128 641T195 613Z" />
<glyph unicode="&#xb1;" glyph-name="plusminus" horiz-adv-x="1024" d="M513 216Q493 216 485 229T477 260V485H200Q181 485 168 492T155 521Q155 542 168 549T200 557H477V781Q477 799 485 812T513 825Q533 825 541 812T549 781V557H826Q844 557 857 549T870
521Q870 501 857 493T826 485H549V260Q549 242 541 229T513 216ZM199 73Q181 73 168 81T155 109Q155 129 168 137T199 145H825Q844 145 857 138T870 109Q870 88 857 81T825 73H199Z" />
<glyph unicode="&#xb2;" glyph-name="uni00B2" horiz-adv-x="1024" />
<glyph unicode="&#xb3;" glyph-name="uni00B3" horiz-adv-x="1024" />
<glyph unicode="&#xb4;" glyph-name="acute" horiz-adv-x="1024" d="M394 756Q370 756 370 780Q370 788 375 794T388 803L578 892Q586 896 594 898T612 901Q655 901 655 859Q655 843 645 835T621 822Q613 820 589 813T534 796T473 777T421 762T394 756Z" />
<glyph unicode="&#xb5;" glyph-name="uni00B5" horiz-adv-x="1024" />
<glyph unicode="&#xb6;" glyph-name="paragraph" horiz-adv-x="1024" d="M510 -62Q489 -62 481 -49T473 -17V365Q259 389 259 601Q259 677 292 728T382 806T511 833H751Q786 833 786 796Q786 775 778 768T756 760T727 759V-17Q727 -36 719 -49T690 -62Q669 -62
661 -49T653 -17V759H547V-17Q547 -36 539 -49T510 -62Z" />
<glyph unicode="&#xd7;" glyph-name="multiply" horiz-adv-x="1024" d="M245 86Q209 86 209 123Q209 132 214 139T225 153L461 389L225 625Q219 631 214 639T209 656Q209 692 246 692Q255 692 262 687T276 676L512 440L748 676Q754 682 761 687T778 692Q815 692
815 656Q815 647 810 639T799 625L563 389L799 153Q805 147 810 140T815 123Q815 86 779 86Q770 86 762 91T748 102L512 338L276 102Q270 96 262 91T245 86Z" />
<glyph unicode="&#xe5;" glyph-name="aring" horiz-adv-x="1024" d="M512 660Q478 660 451 676T408 721T392 782Q392 816 409 843T454 885T515 901Q548 901 575 885T617 841T633 781Q633 748 617 721T573 677T512 660ZM512 713Q580 713 580 781Q580 810 560 829T511
848Q483 848 464 828T445 780Q445 752 464 733T512 713ZM195 -70Q153 -70 153 -31Q153 -24 155 -17T161 -4L435 546Q447 569 466 587T513 606Q541 606 560 588T590 546L864 -4Q867 -10 869 -17T872 -31Q872 -70 830 -70Q811 -70 800 -58T780 -30L705 120H320L245
-30Q238 -45 226 -57T195 -70ZM361 202H664L512 506L361 202Z" />
<glyph unicode="&#xf7;" glyph-name="divide" horiz-adv-x="1024" d="M512 531Q446 531 446 598Q446 663 513 663Q540 663 559 643T578 597Q578 531 512 531ZM199 353Q181 353 168 361T155 389Q155 409 168 417T199 425H825Q844 425 857 418T870 389Q870 368 857
361T825 353H199ZM512 115Q446 115 446 182Q446 247 513 247Q540 247 559 227T578 181Q578 115 512 115Z" />
<glyph unicode="&#x2018;" glyph-name="quoteleft" horiz-adv-x="1024" d="M902 609Q860 609 845 634T829 697Q829 760 872 811Q883 823 902 841T938 860Q961 860 961 837Q961 829 950 820T925 799T900 774T889 743Q889 736 896 736L902 738H904Q936 742 952 722T969
673Q969 609 902 609Z" />
<glyph unicode="&#x2019;" glyph-name="quoteright" horiz-adv-x="1024" d="M85 609Q63 609 63 632Q63 640 73 649T98 670T123 696T134 726Q134 733 127 733L122 731H119Q88 728 71 748T54 796Q54 830 72 845T122 860Q163 860 178 835T194 773Q194 732 178 698T130
636Q123 630 110 620T85 609Z" />
<glyph unicode="&#x201c;" glyph-name="quotedblleft" horiz-adv-x="1024" d="M903 609Q861 609 846 634T830 697Q830 739 847 772T895 833Q903 839 916 849T939 860Q962 860 962 837Q962 830 951 820T926 799T901 773T890 743Q890 736 897 736L903 738H905Q936
742 953 723T970 674Q970 609 903 609ZM713 609Q671 609 656 634T640 697Q640 760 683 811Q694 823 713 841T749 860Q772 860 772 837Q772 829 761 820T736 799T711 774T700 743Q700 736 707 736L713 738H715Q747 742 763 722T780 673Q780 609 713 609Z" />
<glyph unicode="&#x201d;" glyph-name="quotedblright" horiz-adv-x="1024" d="M276 609Q253 609 253 632Q253 640 263 649T288 670T313 696T324 726Q324 733 317 733L311 731H309Q278 727 261 747T244 796Q244 830 262 845T312 860Q353 860 368 835T384 772Q384
706 342 658Q336 651 325 639T300 618T276 609ZM85 609Q62 609 62 632Q62 640 73 649T98 670T123 696T134 726Q134 733 127 733L121 731H119Q88 727 71 747T54 796Q54 830 72 845T122 860Q163 860 178 835T194 773Q194 731 178 698T129 636Q122 630 109 620T85
609Z" />
</font>
</defs>
</svg>
