<?xml version="1.0" standalone="no"?>
<!DOCTYPE svg PUBLIC "-//W3C//DTD SVG 1.1//EN" "http://www.w3.org/Graphics/SVG/1.1/DTD/svg11.dtd">
<svg xmlns="http://www.w3.org/2000/svg">
<defs >
<font id="FasterOne" horiz-adv-x="684" ><font-face
    font-family="Faster One"
    units-per-em="1000"
    panose-1="0 0 0 0 0 0 0 0 0 0"
    ascent="898"
    descent="-165"
    alphabetic="0" />
<glyph unicode=" " glyph-name="space" horiz-adv-x="200" />
<glyph unicode="!" glyph-name="exclam" horiz-adv-x="534" d="M425 170H264L311 598Q313 609 322 617T352 625H500Q531 625 531 605Q531 600 530 598L425 170ZM268 484L-135 529H273L268 484ZM258 388L-152 433H263L258 388ZM247 292L-169 337H252L247 292ZM237
196L-186 241H242L237 196ZM218 44Q218 103 250 126T342 149Q395 149 415 136T436 96Q436 41 410 17T314 -7Q259 -7 239 5T218 44ZM223 145Q206 128 197 102L-203 145H223ZM188 44Q188 21 196 3L-220 48H188V44Z" />
<glyph unicode="&quot;" glyph-name="quotedbl" horiz-adv-x="665" d="M574 275H479V506Q479 542 489 598Q491 609 499 617T529 625H649Q666 625 673 619T680 604Q680 603 680 602T679 598L669 540Q668 536 665 527T653 492T625 415T574 275ZM336 275H241V506Q241
542 251 598Q253 609 261 617T291 625H411Q428 625 435 619T442 604Q442 603 442 602T441 598L431 540Q430 536 427 527T415 492T387 415T336 275ZM211 484L-66 529H211V484ZM211 388L-83 433H211V388ZM211 292L-100 337H211V292Z" />
<glyph unicode="#" glyph-name="numbersign" horiz-adv-x="746" d="M425 665L349 474H529L595 640Q602 652 609 658T638 665H689L613 474H746L728 426Q721 407 712 402T689 395H582L516 228H649L631 181Q623 162 615 157T592 150H485L420 -15Q413 -27 406 -33T377
-40H326L401 150H221L156 -15Q149 -27 142 -33T113 -40H62L137 150H0L19 197Q27 217 36 222T58 228H168L234 395H97L116 443Q124 463 133 467T155 474H265L331 640Q338 652 345 658T374 665H425ZM318 395L252 228H432L498 395H318Z" />
<glyph unicode="$" glyph-name="dollar" horiz-adv-x="770" d="M519 718H639L623 638Q655 636 690 632T753 622L698 467H555Q521 467 508 455T489 414L548 407Q642 396 677 361T712 270Q712 221 699 174T658 89T589 27T487 1L466 -100H343L365 1Q326 4 289 9T216
25L272 184Q307 174 350 168T433 162Q450 162 466 163T502 166L509 208L451 215Q390 223 356 242T309 290T295 357Q295 423 316 482T382 582T501 635L519 718ZM391 625Q378 617 365 607T342 584L-44 625H391ZM303 529L285 485L-130 529H303ZM266 388L-159 433H272Q271
430 271 427T270 421Q269 414 268 406T266 388ZM266 337Q267 324 268 314T274 292L-149 337H266ZM396 196L-126 241H305Q322 225 342 214T396 196ZM-148 145H226L211 101L-148 145ZM-166 48H193L178 4L-166 48Z" />
<glyph unicode="%" glyph-name="percent" horiz-adv-x="971" d="M670 665L401 -15Q394 -27 387 -33T358 -40H307L576 640Q583 652 590 658T619 665H670ZM71 421Q83 489 103 534T162 602T271 625Q349 625 378 597T408 512Q408 493 406 470T398 421Q386 354 367
309T309 241T199 218Q120 218 91 246T61 332Q61 351 64 373T71 421ZM216 501L184 319H202Q222 319 236 323T253 343L285 524H265Q246 524 233 521T216 501ZM573 194Q585 262 605 307T664 375T773 398Q851 398 880 370T910 285Q910 266 908 243T900 194Q888 127
869 82T811 14T701 -9Q622 -9 593 19T563 105Q563 124 566 146T573 194ZM718 274L686 92H704Q724 92 738 96T755 116L787 297H767Q748 297 735 294T718 274Z" />
<glyph unicode="&amp;" glyph-name="ampersand" horiz-adv-x="832" d="M531 -115V21Q483 7 434 -4T341 -15Q282 -15 243 14T203 119Q203 154 210 193T235 268T283 330T360 363V367L284 396Q301 492 333 541T408 607T501 625Q558 625 601 619T684 604L630 462H546Q517
462 502 454T481 420L475 382H823L777 242H711L651 -100L531 -115ZM329 584L-54 625H376Q351 609 329 584ZM277 485L-136 529H295Q290 519 286 508T277 485ZM252 388L-171 433H261L252 388ZM215 294L-186 337H246Q227 316 215 294ZM461 143Q477 143 494 144T531
148V242H420Q416 229 413 210T409 180Q409 143 461 143ZM180 196L-241 241H191L190 237Q187 227 185 217T180 196ZM173 100L-250 145H173V100ZM208 3L-215 48H183Q188 35 194 24T208 3Z" />
<glyph unicode="&apos;" glyph-name="quotesingle" horiz-adv-x="427" d="M336 275H241V506Q241 542 251 598Q253 609 261 617T291 625H411Q428 625 435 619T442 604Q442 603 442 602T441 598L431 540Q430 536 427 527T415 492T387 415T336 275ZM211 484L-66 529H211V484ZM211
388L-83 433H211V388ZM211 292L-100 337H211V292Z" />
<glyph unicode="(" glyph-name="parenleft" horiz-adv-x="558" d="M564 690L548 543Q535 537 519 527T487 493T455 426T427 312Q420 274 417 245T414 192Q414 149 422 127T443 96T466 81L431 -66Q374 -58 337 -34T280 26T252 103T244 186Q244 221 248 253T256
312Q262 347 274 392T308 486T363 578T446 651T564 690ZM-56 625H375Q365 615 355 605T336 583L-56 625ZM-132 529H299Q292 518 287 507T276 485L-132 529ZM255 433L242 388L-176 433H255ZM222 292L-202 337H230Q229 332 228 327T226 317Q225 311 225 305T222 292ZM214
196L-210 241H216Q215 230 215 219T214 196ZM216 145Q218 134 219 123T223 100L-201 145H216ZM239 48Q248 24 263 3L-160 48H239Z" />
<glyph unicode=")" glyph-name="parenright" horiz-adv-x="512" d="M263 533L299 680Q356 672 392 648T449 588T478 512T486 429Q486 394 482 361T473 302Q467 267 455 222T422 128T367 36T284 -37T166 -76L182 71Q196 77 211 86T243 119T274 185T302 302Q315
374 315 420Q315 462 307 484T287 517T263 533ZM-176 625H255L244 580L-176 625ZM269 484L-155 529H231L228 516Q241 512 252 502T269 484ZM285 420Q285 413 285 405T283 388L-140 433H284Q285 430 285 427T285 420ZM269 292L-155 337H277L269 292ZM258 241Q254
228 251 217T244 196L-174 241H258ZM219 145Q209 129 199 119T178 103L-212 145H219ZM144 3L-280 48H149L144 3Z" />
<glyph unicode="*" glyph-name="asterisk" horiz-adv-x="648" d="M469 580L425 491L507 548L561 564Q564 565 569 565Q587 565 592 538L602 467Q603 463 603 460T603 453Q603 443 599 434T582 422L525 406H435L499 351L523 304Q525 301 525 298T525 292Q525 285
520 277T501 260L437 216Q421 204 410 204Q399 204 392 215L361 263L354 345L315 262L275 216Q266 205 255 205Q243 205 231 216L180 260Q165 272 165 286Q165 295 174 304L215 351L294 404H208L159 422Q145 427 145 440Q145 450 153 466L187 538Q193 551 200 559T217
567Q219 567 221 567T227 565L278 547L338 492L326 580L336 638Q338 649 346 657T377 665H449Q479 665 479 644Q479 643 479 640T476 623T469 580ZM129 485L-180 529H150L129 485ZM148 394L162 388L-157 433H115Q118 405 148 394ZM162 337L153 325Q147 317 142
310T135 294L-169 337H162ZM207 196L-114 241H157Q158 240 160 238T172 226T207 196Z" />
<glyph unicode="+" glyph-name="plus" horiz-adv-x="600" d="M71 240L96 384H244L272 539H408L380 384H529L504 240H355L327 84H191L219 240H71Z" />
<glyph unicode="," glyph-name="comma" horiz-adv-x="325" d="M93 99Q101 137 113 160T149 195T216 206Q266 206 285 191T304 141Q304 98 289 61T248 -15L160 -151L80 -122L136 22Q111 27 101 39T90 72Q90 84 93 99ZM72 145Q66 125 63 100L-159 145H72ZM-154 48H59Q63
36 72 21T97 -1L-154 48Z" />
<glyph unicode="-" glyph-name="hyphen" horiz-adv-x="350" d="M341 292L17 337H349L341 292ZM324 196L0 241H332L324 196Z" />
<glyph unicode="." glyph-name="period" horiz-adv-x="325" d="M93 99Q103 156 127 181T216 206Q266 206 285 191T304 141Q304 132 303 122T300 99Q290 42 266 18T178 -6Q128 -6 109 8T89 57Q89 66 90 76T93 99ZM72 145Q66 125 63 100L-159 145H72ZM70 3L-154
48H59Q61 19 70 3Z" />
<glyph unicode="/" glyph-name="slash" horiz-adv-x="651" d="M651 665L262 -15Q255 -27 248 -33T219 -40H148L537 640Q544 652 551 658T580 665H651ZM470 580L179 625H493L470 580ZM416 484L125 529H439L416 484ZM361 388L70 433H385L361 388ZM306 292L15 337H330L306
292ZM251 196L-40 241H275L251 196ZM196 100L-95 145H220L196 100ZM141 3L-150 48H165L141 3Z" />
<glyph unicode="0" glyph-name="zero" horiz-adv-x="773" d="M219 312Q238 421 270 493T364 603T531 640Q650 640 696 593T743 453Q743 422 739 387T728 312Q709 204 677 132T583 22T416 -15Q297 -15 251 32T204 171Q204 233 219 312ZM339 625Q326 616 314 606T291
584L-91 625H339ZM252 529Q247 519 242 508T232 485L-178 529H252ZM435 426L385 146H425Q463 146 484 154T512 199L561 479H516Q477 479 460 471T435 426ZM215 433L203 388L-217 433H215ZM184 292L-240 337H192L184 292ZM174 196L-250 241H178Q177 230 176 219T174
196ZM174 145Q176 121 180 100L-243 145H174ZM234 3L-190 48H198Q212 21 234 3Z" />
<glyph unicode="1" glyph-name="one" horiz-adv-x="709" d="M504 0H304L378 425H211L236 573L463 625H613L504 0ZM207 589L-105 625H327L209 598L207 589ZM190 484L-234 529H197L190 484ZM174 388L-250 433H182L174 388ZM324 292L-100 337H332L324 292ZM307 196L-117
241H315L307 196ZM290 100L-134 145H298L290 100ZM273 3L-151 48H281L273 3Z" />
<glyph unicode="2" glyph-name="two" horiz-adv-x="808" d="M322 475V602Q379 619 444 629T568 640Q629 640 677 632T755 594T784 500Q784 424 760 374T691 292T587 236T457 188L452 160H720L692 0H204L226 125Q238 191 266 232T337 303T439 357T570 416L579 475H322ZM293
580L-130 625H293V580ZM292 484L-132 529H292V484ZM537 433L449 396L99 433H537ZM333 337Q319 328 306 318T280 297L-97 337H333ZM235 241V240Q223 220 214 197L-197 241H235ZM191 100L-233 145H199L191 100ZM174 3L-250 48H182L174 3Z" />
<glyph unicode="3" glyph-name="three" horiz-adv-x="795" d="M559 405L570 475H318V602Q376 620 432 630T548 640Q610 640 659 633T736 600T765 522Q765 454 735 408T657 337L656 332Q727 297 727 219Q727 149 703 104T635 32T536 -4T417 -15Q303 -15 202 11L258
176Q300 165 339 159T425 153Q470 153 516 159L527 223L366 240L391 385L559 405ZM288 580L-135 625H288V580ZM287 484L-137 529H287V484ZM-63 433H369L360 388L-63 433ZM344 292L-79 337H352L344 292ZM328 196L-96 241H336L328 196ZM214 145L200 100L-218 145H214ZM182
48L168 3L-250 48H182Z" />
<glyph unicode="4" glyph-name="four" horiz-adv-x="812" d="M387 581L-20 625H410L387 581ZM481 0L498 100H205L227 225L444 625H781L718 272H780L750 100H688L671 0H481ZM335 486L-71 529H358L335 486ZM554 475L434 272H528L564 475H554ZM282 390L-124 433H306L282
390ZM230 293L-177 337H254L230 293ZM-230 241H202L197 232L191 196L-230 241ZM174 100L-250 145H182L174 100ZM451 3L27 48H459L451 3Z" />
<glyph unicode="5" glyph-name="five" horiz-adv-x="799" d="M302 580L-119 625H311L302 580ZM201 11L257 176Q343 153 434 153Q479 153 524 159L532 209L463 217Q366 228 325 250T283 326Q283 345 287 365L342 625H774L729 453L507 467L496 406L551 399Q659 385
700 351T742 257Q742 166 714 112T638 31T536 -6T426 -15Q367 -15 311 -9T201 11ZM291 529L282 484L-140 529H291ZM-161 433H271L261 388L-161 433ZM256 292L-168 337H253V326Q253 309 256 292ZM283 241Q300 225 325 215T385 198L-20 241H283ZM199 101L-217 145H214L199
101ZM-250 48H182L168 3L-250 48Z" />
<glyph unicode="6" glyph-name="six" horiz-adv-x="769" d="M707 259Q707 120 631 53T412 -15Q297 -15 251 33T204 177Q204 206 207 240T218 312Q232 393 255 454T317 557T419 619T574 640Q598 640 633 636T702 626T753 614L703 475H451L438 405H486Q547 405 597
396T677 355T707 259ZM361 625Q330 606 307 585L-68 625H361ZM261 529Q255 519 249 508T238 486L-169 529H261ZM217 433Q213 423 210 412T204 388L-215 433H217ZM183 292L-240 337H192Q191 332 190 324T183 292ZM493 178L507 257H469Q441 257 425 251T404 215L390
136H429Q458 136 473 142T493 178ZM174 196L-250 241H177Q176 229 175 218T174 196ZM181 100L-243 145H175Q176 123 181 100ZM200 48Q207 35 215 25T233 5L-170 48H200Z" />
<glyph unicode="7" glyph-name="seven" horiz-adv-x="702" d="M196 580L-226 625H201L196 580ZM679 500L408 0H193L442 448H213L231 625H701L679 500ZM186 484L-238 529H191L186 484ZM174 388L-250 433H181L174 388ZM-86 337H346L322 293L-86 337ZM268 198L-139
241H292L268 198ZM-193 145H239L215 101L-193 145ZM185 48L161 4L-247 48H185Z" />
<glyph unicode="8" glyph-name="eight" horiz-adv-x="781" d="M424 -15Q361 -15 311 -2T231 44T201 131Q201 188 232 236T313 308L314 315Q272 351 272 422Q272 485 296 527T359 594T445 629T539 640Q593 640 639 627T714 583T743 498Q743 440 716 391T650 315L649
308Q678 292 694 263T711 196Q711 120 672 74T568 6T424 -15ZM300 584L-79 625H351Q324 609 300 584ZM248 485L-168 529H263Q259 519 255 508T248 485ZM522 385Q541 385 545 403L559 484H521Q493 484 477 478T456 442L453 423L509 389Q517 385 522 385ZM244 388L-180
433H242V422Q242 413 242 405T244 388ZM241 294L-157 337H260Q262 332 265 328T271 318Q255 308 241 294ZM181 197L-233 241H199L198 238Q187 217 181 197ZM402 136H441Q470 136 485 142T505 178L509 201L450 234Q440 240 432 240Q421 240 418 223L402 136ZM174
100L-250 145H172Q171 141 171 138T171 131Q171 115 174 100ZM228 3L-195 48H190Q203 22 228 3Z" />
<glyph unicode="9" glyph-name="nine" horiz-adv-x="787" d="M430 -15Q371 -15 312 -9T200 11L257 176Q299 165 341 159T418 153Q463 153 509 159L521 228H473Q427 228 387 232T315 249T267 291T249 367Q249 505 327 572T545 640Q661 640 707 591T754 446Q754
417 751 384T740 313Q721 205 687 132T591 22T430 -15ZM294 584L-85 625H346V624Q316 608 294 584ZM235 485L-178 529H253L252 526Q248 516 244 506T235 485ZM452 376H490Q519 376 534 382T554 418L567 489H528Q500 489 485 483T464 447L452 376ZM219 388L-205
433H223Q222 423 221 413T219 388ZM228 298L-136 337H220Q222 327 223 317T228 298ZM328 204L10 241H267Q281 229 295 222T329 209L328 204ZM199 101L-216 145H215L199 101ZM166 4L-250 48H181L166 4Z" />
<glyph unicode=":" glyph-name="colon" horiz-adv-x="325" d="M146 388Q156 445 180 470T269 495Q319 495 338 480T357 430Q357 421 356 411T353 388Q343 331 319 307T231 283Q181 283 162 297T142 346Q142 355 143 365T146 388ZM125 434Q119 414 116 389L-106
434H125ZM123 292L-101 337H112Q114 308 123 292ZM93 99Q103 156 127 181T216 206Q266 206 285 191T304 141Q304 132 303 122T300 99Q290 42 266 18T178 -6Q128 -6 109 8T89 57Q89 66 90 76T93 99ZM72 145Q66 125 63 100L-159 145H72ZM70 3L-154 48H59Q61 19 70
3Z" />
<glyph unicode=";" glyph-name="semicolon" horiz-adv-x="325" d="M146 388Q156 445 180 470T269 495Q319 495 338 480T357 430Q357 421 356 411T353 388Q343 331 319 307T231 283Q181 283 162 297T142 346Q142 355 143 365T146 388ZM125 434Q119 414 116 389L-106
434H125ZM123 292L-101 337H112Q114 308 123 292ZM93 99Q101 137 113 160T149 195T216 206Q266 206 285 191T304 141Q304 98 289 61T248 -15L160 -151L80 -122L136 22Q111 27 101 39T90 72Q90 84 93 99ZM72 145Q66 125 63 100L-159 145H72ZM-154 48H59Q63 36 72
21T97 -1L-154 48Z" />
<glyph unicode="&lt;" glyph-name="less" horiz-adv-x="600" d="M497 557L537 423L250 315L249 308L488 201L400 67L96 221L128 403L497 557Z" />
<glyph unicode="=" glyph-name="equal" horiz-adv-x="600" d="M92 359L117 503H550L525 359H92ZM50 121L75 265H508L483 121H50Z" />
<glyph unicode="&gt;" glyph-name="greater" horiz-adv-x="600" d="M110 67L70 201L357 309L358 316L119 423L207 557L511 403L479 221L110 67Z" />
<glyph unicode="?" glyph-name="question" horiz-adv-x="610" d="M442 302L403 175H241L261 363Q263 380 276 390T332 416L440 453L446 487Q437 488 426 488T404 489Q372 489 337 486T272 479T230 469L232 612Q282 625 334 632T435 640Q490 640 536 633T611 601T640
523Q640 439 595 388T442 302ZM200 484L-173 529H201L200 484ZM292 433Q247 415 237 393L-90 433H292ZM223 292L-151 337H228L224 296L223 292ZM213 196L-161 241H218L213 196ZM196 44Q196 102 227 125T319 149Q373 149 393 136T414 96Q414 41 388 17T291 -7Q237
-7 217 5T196 44ZM200 145Q182 128 174 102L-181 145H200ZM166 44Q166 32 168 22T174 3L-200 48H166V44Z" />
<glyph unicode="@" glyph-name="at" horiz-adv-x="1068" d="M576 -75Q503 -75 440 -63T330 -23T257 55T231 178Q231 198 233 220T240 266L254 349Q271 450 313 516T416 620T553 674T711 690Q872 690 947 653T1022 535Q1022 526 1021 517T1018 497L947 90H852L809
153Q739 81 629 81Q599 81 571 91T526 126T508 198Q508 285 542 338T638 415T780 440H818L831 513Q810 518 771 520T695 523Q656 523 619 520T550 503T496 460T464 380L429 183Q425 164 425 145Q425 95 451 73T520 46T610 40H789L772 -54Q720 -64 673 -69T576 -75ZM262
485L-138 529H285Q279 519 273 508T262 485ZM231 388L-188 433H243Q239 422 236 411T231 388ZM213 292L-211 337H221L213 292ZM684 221H715Q742 221 760 226T786 257L797 319H767Q739 319 719 313T693 277L684 221ZM201 196L-220 241H205Q204 230 203 219T201 196ZM209
100L-210 145H202Q203 133 205 122T209 100ZM253 5L-158 48H226Q237 25 253 5Z" />
<glyph unicode="A" glyph-name="A" horiz-adv-x="851" d="M192 0L455 625H749L793 0H592L588 99H431L392 0H192ZM404 582L-4 625H422L404 582ZM363 486L-45 529H381L363 486ZM323 389L-86 433H341L323 389ZM493 258H573V433H563L493 258ZM282 293L-127 337H301L282
293ZM242 197L-168 241H260L242 197ZM201 101L-209 145H220L201 101ZM160 4L-250 48H179L160 4Z" />
<glyph unicode="B" glyph-name="B" horiz-adv-x="774" d="M204 0L314 625H622Q695 625 727 600T759 523Q759 443 724 396T644 337L643 331Q692 322 712 290T733 212Q733 156 713 108T651 30T546 0H204ZM275 580L-148 625H283L275 580ZM259 484L-165 529H266L259
484ZM463 395H522Q548 395 558 415T568 460Q568 473 562 480T540 488H480L463 395ZM242 388L-182 433H250L242 388ZM225 292L-199 337H233L225 292ZM419 147H493Q520 147 532 168T544 217Q544 231 537 240T512 249H437L419 147ZM208 196L-216 241H216L208 196ZM191
100L-233 145H199L191 100ZM174 3L-250 48H182L174 3Z" />
<glyph unicode="C" glyph-name="C" horiz-adv-x="683" d="M443 -15Q313 -15 261 35T208 185Q208 213 212 244T222 312Q241 421 277 493T380 603T558 640Q580 640 610 637T668 628T712 614L656 461Q628 468 596 471T544 475Q498 475 474 466T445 425L399 163Q419
159 437 157T473 155Q511 155 550 161T621 179L605 11Q570 -3 532 -9T443 -15ZM310 592L4 625H355Q343 618 332 610T310 592ZM240 489L-134 529H260Q255 519 250 510T240 489ZM207 392L-181 433H219L207 392ZM188 295L-205 337H195L192 317Q191 311 190 306T188
295ZM178 199L-216 241H181Q178 219 178 199ZM186 103L-203 145H179Q181 134 182 124T186 103ZM239 11L-107 48H209Q222 25 239 11Z" />
<glyph unicode="D" glyph-name="D" horiz-adv-x="841" d="M204 0L314 625H580Q711 625 764 579T818 432Q818 380 806 312Q787 204 751 135T648 33T470 0H204ZM275 580L-148 625H283L275 580ZM259 484L-165 529H266L259 484ZM422 160H501Q534 160 555 168T584 213L619
412Q620 417 620 420T620 428Q620 454 602 459T554 465H475L422 160ZM242 388L-182 433H250L242 388ZM225 292L-199 337H233L225 292ZM208 196L-216 241H216L208 196ZM191 100L-233 145H199L191 100ZM174 3L-250 48H182L174 3Z" />
<glyph unicode="E" glyph-name="E" horiz-adv-x="726" d="M204 0L314 625H732L680 465H475L461 381H651L625 236H435L422 160H655L627 0H204ZM275 580L-148 625H283L275 580ZM259 484L-165 529H266L259 484ZM242 388L-182 433H250L242 388ZM225 292L-199 337H233L225
292ZM208 196L-216 241H216L208 196ZM191 100L-233 145H199L191 100ZM174 3L-250 48H182L174 3Z" />
<glyph unicode="F" glyph-name="F" horiz-adv-x="666" d="M204 0L314 625H704L651 465H475L461 381H623L596 232H434L394 0H204ZM275 580L-148 625H283L275 580ZM259 484L-165 529H266L259 484ZM242 388L-182 433H250L242 388ZM225 292L-199 337H233L225 292ZM208
196L-216 241H216L208 196ZM191 100L-233 145H199L191 100ZM174 3L-250 48H182L174 3Z" />
<glyph unicode="G" glyph-name="G" horiz-adv-x="767" d="M441 -15Q311 -15 259 35T206 185Q206 213 210 244T220 312Q234 393 257 454T321 557T423 619T578 640Q603 640 638 636T706 627T757 614L702 461Q666 468 627 471T562 475Q506 475 477 466T443 425L394
142H457Q486 142 505 148T529 184L534 211H486L513 364H742L683 30Q620 7 556 -4T441 -15ZM310 592L4 625H355Q343 618 332 610T310 592ZM240 489L-134 529H260Q255 519 250 510T240 489ZM207 392L-181 433H219L207 392ZM188 295L-205 337H195L192 317Q191 311
190 306T188 295ZM178 199L-216 241H181Q178 219 178 199ZM186 103L-203 145H179Q181 134 182 124T186 103ZM239 11L-107 48H209Q222 25 239 11Z" />
<glyph unicode="H" glyph-name="H" horiz-adv-x="846" d="M204 0L314 625H504L465 404H608L647 625H837L727 0H537L575 221H432L394 0H204ZM275 580L-148 625H283L275 580ZM259 484L-165 529H266L259 484ZM242 388L-182 433H250L242 388ZM225 292L-199 337H233L225
292ZM208 196L-216 241H216L208 196ZM191 100L-233 145H199L191 100ZM174 3L-250 48H182L174 3Z" />
<glyph unicode="I" glyph-name="I" horiz-adv-x="504" d="M204 0L314 625H504L394 0H204ZM275 580L-148 625H283L275 580ZM259 484L-165 529H266L259 484ZM242 388L-182 433H250L242 388ZM225 292L-199 337H233L225 292ZM208 196L-216 241H216L208 196ZM191 100L-233
145H199L191 100ZM174 3L-250 48H182L174 3Z" />
<glyph unicode="J" glyph-name="J" horiz-adv-x="566" d="M177 0L206 160H265Q284 160 297 164T315 190L363 465H285L314 625H582L501 165Q487 84 442 42T325 0H177ZM275 580L-148 625H283L275 580ZM257 484L-167 529H264L257 484ZM319 388L-105 433H327L319 388ZM302
292L-122 337H310L302 292ZM285 196L-139 241H293L285 196ZM164 100L-260 145H172L164 100ZM147 3L-277 48H155L147 3Z" />
<glyph unicode="K" glyph-name="K" horiz-adv-x="771" d="M204 0L314 625H504L459 370H467Q470 382 475 396T485 418L611 625H816L620 318L711 0H506L451 224Q448 235 448 253Q448 258 448 263T449 272H441L394 0H204ZM275 580L-148 625H283L275 580ZM259 484L-165
529H266L259 484ZM242 388L-182 433H250L242 388ZM225 292L-199 337H233L225 292ZM208 196L-216 241H216L208 196ZM191 100L-233 145H199L191 100ZM174 3L-250 48H182L174 3Z" />
<glyph unicode="L" glyph-name="L" horiz-adv-x="622" d="M204 0L314 625H504L422 160H612L584 0H204ZM275 580L-148 625H283L275 580ZM259 484L-165 529H266L259 484ZM242 388L-182 433H250L242 388ZM225 292L-199 337H233L225 292ZM208 196L-216 241H216L208
196ZM191 100L-233 145H199L191 100ZM174 3L-250 48H182L174 3Z" />
<glyph unicode="M" glyph-name="M" horiz-adv-x="1023" d="M202 0L348 625H596L614 307H621L751 625H999L925 0H726L768 303H761L636 0H491L470 303H465L400 0H202ZM307 580L-112 625H317L307 580ZM284 484L-135 529H295L284 484ZM262 388L-158 433H272L262 388ZM239
292L-181 337H250L239 292ZM217 196L-204 241H227L217 196ZM194 100L-227 145H205L194 100ZM172 3L-250 48H182L172 3Z" />
<glyph unicode="N" glyph-name="N" horiz-adv-x="851" d="M204 0L314 625H493L595 403Q598 396 598 383Q598 376 598 369T596 355H604L652 625H842L732 0H553L451 222Q450 226 449 231T447 244Q447 250 447 257T449 270H441L394 0H204ZM275 580L-148 625H283L275
580ZM259 484L-165 529H266L259 484ZM242 388L-182 433H250L242 388ZM225 292L-199 337H233L225 292ZM208 196L-216 241H216L208 196ZM191 100L-233 145H199L191 100ZM174 3L-250 48H182L174 3Z" />
<glyph unicode="O" glyph-name="O" horiz-adv-x="815" d="M442 -15Q312 -15 260 36T207 187Q207 215 210 246T220 312Q239 421 276 493T380 603T557 640Q687 640 739 590T792 438Q792 397 786 344T764 236T722 132T657 48Q617 13 564 -1T442 -15ZM310 592L4 625H355Q343
618 332 610T310 592ZM240 489L-134 529H260Q255 519 250 510T240 489ZM396 156H475Q508 156 529 164T558 209L604 469H524Q491 469 470 461T442 416L396 156ZM207 392L-181 433H219L207 392ZM188 295L-205 337H195L192 317Q191 311 190 306T188 295ZM178 199L-216
241H181Q178 219 178 199ZM186 103L-203 145H179Q181 134 182 124T186 103ZM239 11L-107 48H209Q222 25 239 11Z" />
<glyph unicode="P" glyph-name="P" horiz-adv-x="769" d="M204 0L314 625H614Q679 625 716 605T768 548T784 467Q784 440 779 400T758 317T716 236T647 175T544 151H420L394 0H204ZM275 580L-148 625H283L275 580ZM258 484L-165 529H266L258 484ZM448 311H492Q521
311 541 317T566 353Q573 390 575 406T578 428T579 434Q579 455 562 460T519 465H475L448 311ZM241 388L-182 433H249L241 388ZM224 292L-199 337H232L224 292ZM208 196L-216 241H216L208 196ZM191 100L-233 145H199L191 100ZM174 3L-250 48H182L174 3Z" />
<glyph unicode="Q" glyph-name="Q" horiz-adv-x="815" d="M685 -50L509 -15L516 23L431 0Q346 0 297 23T228 89T207 187Q207 215 210 246T220 312Q239 421 276 493T380 603T557 640Q686 640 739 588T792 434Q792 369 778 306T742 190T693 107L755 65L685 -50ZM310
592L4 625H355Q343 618 332 610T310 592ZM240 489L-134 529H260Q255 519 250 510T240 489ZM396 156H475Q508 156 529 164T558 209L604 469H524Q491 469 470 461T442 416L396 156ZM207 392L-181 433H219L207 392ZM188 295L-205 337H195L188 295ZM178 199L-216 241H181Q178
219 178 199ZM187 103L-203 145H179Q181 134 183 124T187 103ZM255 11L-107 48H215Q223 40 234 30T255 11Z" />
<glyph unicode="R" glyph-name="R" horiz-adv-x="795" d="M204 0L314 625H614Q679 625 716 605T769 551T785 472Q785 445 780 408T760 333T721 261T656 208L722 0H513L467 186H426L394 0H204ZM275 580L-148 625H283L275 580ZM258 484L-165 529H266L258 484ZM453
340H497Q526 340 546 346T571 382Q576 407 577 420T579 434Q579 456 561 460T513 465H475L453 340ZM241 388L-182 433H249L241 388ZM224 292L-199 337H232L224 292ZM208 196L-216 241H216L208 196ZM191 100L-233 145H199L191 100ZM174 3L-250 48H182L174 3Z" />
<glyph unicode="S" glyph-name="S" horiz-adv-x="798" d="M438 -15Q379 -15 323 -9T213 11L269 176Q307 166 351 160T434 153Q466 153 490 154T536 159L544 209L461 217Q363 227 325 261T287 356Q287 383 293 416Q309 501 339 550T427 619T578 640Q633 640 686
634T788 615L736 455Q697 462 662 466T584 470Q561 470 545 469T506 465L498 416L565 409Q637 402 678 382T736 331T753 260Q753 248 752 236T748 209Q734 128 703 82T630 16T539 -10T438 -15ZM323 584L-63 625H367Q354 617 344 607T323 584ZM277 485L-138 529H292L277
485ZM258 388L-166 433H265Q264 430 264 427T263 421Q262 414 261 406T258 388ZM266 292L-157 337H258Q259 324 260 314T266 292ZM398 196L-131 241H300Q333 209 398 196ZM211 101L-148 145H226L211 101ZM179 4L-165 48H194L179 4Z" />
<glyph unicode="T" glyph-name="T" horiz-adv-x="727" d="M327 0L408 465H271L300 625H765L736 465H598L517 0H327ZM260 580L-163 625H268L260 580ZM244 484L-180 529H251L244 484ZM364 388L-60 433H372L364 388ZM347 292L-77 337H355L347 292ZM330 196L-94 241H338L330
196ZM313 100L-111 145H321L313 100ZM296 3L-128 48H304L296 3Z" />
<glyph unicode="U" glyph-name="U" horiz-adv-x="814" d="M453 -15Q373 -15 325 0T256 52T235 147Q235 173 238 205T249 274L311 625H501L418 156H486Q518 156 534 164T557 209L631 625H821L759 274Q745 193 725 138T671 49T584 0T453 -15ZM272 580L-151 625H280L272
580ZM255 484L-168 529H263L255 484ZM238 388L-186 433H246L238 388ZM221 292L-202 337H229L221 292ZM207 196L-216 241H212Q211 229 210 218T207 196ZM208 100L-215 145H205Q205 121 208 100ZM254 3L-169 48H222Q235 20 254 3Z" />
<glyph unicode="V" glyph-name="V" horiz-adv-x="793" d="M308 0L271 625H482V228H491L642 625H843L586 0H308ZM243 580L-180 625H241L243 580ZM249 484L-175 529H246L249 484ZM254 388L-169 433H252L254 388ZM260 292L-163 337H257L260 292ZM266 196L-157 241H263L266
196ZM272 100L-152 145H269L272 100ZM278 3L-146 48H275L278 3Z" />
<glyph unicode="W" glyph-name="W" horiz-adv-x="993" d="M253 0V625H452L434 276H440L570 625H721V276H727L834 625H1033L830 0H578V230H567L484 0H253ZM223 580L-170 625H223V580ZM223 484L-170 529H223V484ZM223 388L-170 433H223V388ZM223 292L-170 337H223V292ZM223
196L-170 241H223V196ZM223 100L-170 145H223V100ZM223 3L-170 48H223V3Z" />
<glyph unicode="X" glyph-name="X" horiz-adv-x="772" d="M150 0L334 317L260 625H476L511 458H521L616 625H822L636 323L712 0H501L461 180H453L351 0H150ZM240 580L-183 625H229Q231 614 234 603T240 580ZM263 484L-160 529H252Q254 518 257 507T263 484ZM286
388L-137 433H275L286 388ZM284 293L-127 337H299L302 324L284 293ZM229 198L-177 241H254L229 198ZM174 102L-232 145H199L174 102ZM118 5L-289 48H143L118 5Z" />
<glyph unicode="Y" glyph-name="Y" horiz-adv-x="654" d="M264 0L293 170L203 625H413L426 405H433L525 625H735L483 170L454 0H264ZM182 580L-241 625H173L182 580ZM200 484L-223 529H191L200 484ZM219 388L-204 433H210L219 388ZM238 292L-186 337H229L238 292ZM257
196L-167 241H248L257 196ZM250 100L-173 145H257L250 100ZM233 3L-190 48H241L233 3Z" />
<glyph unicode="Z" glyph-name="Z" horiz-adv-x="748" d="M150 0L172 125L473 459L471 465H272L283 625H768L746 500L447 166L448 160H690L662 0H150ZM250 580L-173 625H253L250 580ZM243 484L-181 529H246L243 484ZM371 391L-23 433H409L371 391ZM285 295L-109
337H323L285 295ZM198 199L-196 241H236L198 199ZM136 100L-288 145H144L136 100ZM119 3L-563 48H127L119 3Z" />
<glyph unicode="[" glyph-name="bracketleft" horiz-adv-x="557" d="M209 29L306 575Q315 625 352 647T444 674T562 680L545 533Q545 533 541 533T521 531T465 526L386 78L464 71L429 -76Q371 -76 321 -72T239 -49T207 10Q207 15 207 19T209 29ZM275 580L-148
625H295Q285 616 281 604T275 580ZM259 484L-165 529H266L259 484ZM242 388L-182 433H250L242 388ZM225 292L-199 337H233L225 292ZM208 196L-216 241H216L208 196ZM191 100L-233 145H199L191 100ZM177 3L-250 48H182Q179 37 178 26T177 3Z" />
<glyph unicode="\" glyph-name="backslash" horiz-adv-x="503" d="M389 -15L0 665H71Q92 665 99 659T114 640L503 -40H432Q411 -40 404 -34T389 -15Z" />
<glyph unicode="]" glyph-name="bracketright" horiz-adv-x="532" d="M513 575L416 29Q407 -21 370 -43T277 -70T160 -76L177 71L257 78L336 526Q299 530 283 531T263 532T258 533L293 680Q351 680 401 676T483 653T515 594Q515 590 515 585T513 575ZM239 580L-108
625H249L239 580ZM217 484L-125 529H227L217 484ZM280 388L-142 433H288L280 388ZM264 292L-159 337H272L264 292ZM247 196L-176 241H255L247 196ZM230 100L-193 145H238L230 100ZM139 3L-210 48H144L139 3Z" />
<glyph unicode="^" glyph-name="asciicircum" horiz-adv-x="600" d="M528 262L392 218L329 442H323L181 218L62 262L265 587H438L528 262Z" />
<glyph unicode="_" glyph-name="underscore" horiz-adv-x="406" d="M-70 -135L-51 -27Q-46 2 -27 8T21 15H373L354 -93Q349 -122 330 -128T282 -135H-70ZM-103 -135L-410 -81H-94L-103 -135Z" />
<glyph unicode="`" glyph-name="grave" horiz-adv-x="279" d="M238 569L64 604Q53 606 48 609T38 616L-7 655Q-11 659 -11 665Q-11 673 -2 684L61 758Q70 769 79 769Q84 769 90 765L279 626L238 569ZM-37 684L-432 723H-8Q-15 713 -23 705T-37 684ZM6 603L-402
642H-35Q-30 635 -22 628T6 603Z" />
<glyph unicode="a" glyph-name="a" horiz-adv-x="758" d="M192 0L414 529H662L701 0H526L522 81H396L365 0H192ZM363 486L-45 529H381L363 486ZM323 389L-86 433H341L323 389ZM449 224H522V376H508L449 224ZM282 293L-127 337H301L282 293ZM242 197L-168 241H260L242
197ZM201 101L-209 145H220L201 101ZM160 4L-250 48H179L160 4Z" />
<glyph unicode="b" glyph-name="b" horiz-adv-x="714" d="M204 0L296 529H566Q628 529 654 504T680 435Q680 381 655 340T596 283L595 277Q630 266 645 242T661 186Q661 101 615 51T470 0H204ZM257 484L-167 529H264L257 484ZM240 388L-184 433H248L240 388ZM431
338H486Q503 338 509 352T516 382Q516 391 512 396T496 402H442L431 338ZM223 292L-201 337H231L223 292ZM206 196L-218 241H214L206 196ZM395 131H457Q477 131 484 147T492 182Q492 193 488 199T470 205H408L395 131ZM189 100L-235 145H197L189 100ZM172 3L-252
48H180L172 3Z" />
<glyph unicode="c" glyph-name="c" horiz-adv-x="620" d="M400 -12Q290 -12 246 30T202 156Q202 179 205 206T214 264Q230 356 260 417T346 508T497 539Q516 539 542 537T593 530T630 517L579 378Q552 386 526 389T484 392Q449 392 432 386T410 358L371 144Q387
140 400 140T426 139Q458 139 492 145T555 161L539 11Q508 -2 475 -7T400 -12ZM279 496L-28 529H320Q296 515 279 496ZM216 393L-162 433H233Q229 423 225 414T216 393ZM189 295L-202 337H198L189 295ZM174 199L-220 241H179Q178 230 177 220T174 199ZM177 103L-216
145H173Q173 134 174 124T177 103ZM220 11L-129 48H194Q199 38 205 29T220 11Z" />
<glyph unicode="d" glyph-name="d" horiz-adv-x="775" d="M204 0L296 529H521Q632 529 678 490T724 365Q724 343 721 318T713 264Q697 173 666 115T579 28T428 0H204ZM256 484L-168 529H263L256 484ZM239 388L-185 433H247L239 388ZM397 143H455Q481 143 498 149T519
181L548 346Q549 349 549 352T549 357Q549 374 535 378T497 383H439L397 143ZM222 292L-202 337H230L222 292ZM205 196L-219 241H213L205 196ZM188 100L-236 145H196L188 100ZM171 3L-253 48H179L171 3Z" />
<glyph unicode="e" glyph-name="e" horiz-adv-x="656" d="M204 0L296 529H648L601 379H438L426 311H576L559 215H410L398 147H583L557 0H204ZM256 484L-168 529H263L256 484ZM239 388L-185 433H247L239 388ZM222 292L-202 337H230L222 292ZM205 196L-219 241H213L205
196ZM188 100L-236 145H196L188 100ZM171 3L-253 48H179L171 3Z" />
<glyph unicode="f" glyph-name="f" horiz-adv-x="591" d="M204 0L296 529H629L583 379H438L426 311H558L538 192H406L372 0H204ZM257 484L-167 529H264L257 484ZM240 388L-184 433H248L240 388ZM223 292L-201 337H231L223 292ZM206 196L-218 241H214L206 196ZM189
100L-235 145H197L189 100ZM172 3L-252 48H180L172 3Z" />
<glyph unicode="g" glyph-name="g" horiz-adv-x="696" d="M398 -12Q289 -12 245 30T201 158Q201 181 204 207T212 264Q228 356 259 417T350 508T513 539Q535 539 565 537T624 530T669 517L618 378Q584 386 552 389T499 392Q456 392 434 386T408 358L366 128H412Q433
128 448 133T467 158L474 197H433L453 311H655L605 28Q550 6 495 -3T398 -12ZM277 496L-30 529H318Q294 515 277 496ZM214 393L-164 433H231Q227 423 223 414T214 393ZM187 295L-204 337H196L187 295ZM172 199L-222 241H177Q176 230 175 220T172 199ZM175 103L-218
145H171Q171 134 172 124T175 103ZM218 11L-131 48H192Q197 38 203 29T218 11Z" />
<glyph unicode="h" glyph-name="h" horiz-adv-x="772" d="M204 0L296 529H465L432 346H545L577 529H746L653 0H485L516 183H404L372 0H204ZM256 484L-168 529H263L256 484ZM239 388L-185 433H247L239 388ZM222 292L-202 337H230L222 292ZM205 196L-219 241H213L205
196ZM188 100L-236 145H196L188 100ZM171 3L-253 48H179L171 3Z" />
<glyph unicode="i" glyph-name="i" horiz-adv-x="489" d="M204 0L296 529H472L379 0H204ZM256 484L-168 529H263L256 484ZM239 388L-185 433H247L239 388ZM222 292L-202 337H230L222 292ZM205 196L-219 241H213L205 196ZM188 100L-236 145H196L188 100ZM171 3L-253
48H179L171 3Z" />
<glyph unicode="j" glyph-name="j" horiz-adv-x="534" d="M176 0L202 143H273Q286 143 297 146T310 163L347 379H282L309 529H542L474 141Q461 71 422 36T321 0H176ZM270 484L-154 529H277L270 484ZM252 388L-172 433H260L252 388ZM302 292L-122 337H310L302 292ZM285
196L-139 241H293L285 196ZM163 100L-261 145H171L163 100ZM145 3L-279 48H153L145 3Z" />
<glyph unicode="k" glyph-name="k" horiz-adv-x="697" d="M204 0L296 529H465L436 367H441L544 529H727L559 270L638 0H455L408 173H402L372 0H204ZM256 484L-168 529H263L256 484ZM239 388L-185 433H247L239 388ZM222 292L-202 337H230L222 292ZM205 196L-219
241H213L205 196ZM188 100L-236 145H196L188 100ZM171 3L-253 48H179L171 3Z" />
<glyph unicode="l" glyph-name="l" horiz-adv-x="567" d="M204 0L296 529H472L405 147H555L529 0H204ZM256 484L-168 529H263L256 484ZM239 388L-185 433H247L239 388ZM222 292L-202 337H230L222 292ZM205 196L-219 241H213L205 196ZM188 100L-236 145H196L188
100ZM171 3L-253 48H179L171 3Z" />
<glyph unicode="m" glyph-name="m" horiz-adv-x="901" d="M204 0L325 529H542L557 281H561L662 529H879L815 0H643L670 215H665L575 0H443L428 215H423L375 0H204ZM281 484L-138 529H292L281 484ZM259 388L-161 433H269L259 388ZM236 292L-184 337H247L236 292ZM216
196L-207 241H226L216 196ZM193 100L-230 145H204L193 100ZM171 3L-253 48H181L171 3Z" />
<glyph unicode="n" glyph-name="n" horiz-adv-x="769" d="M204 0L296 529H432L536 332H542L576 529H743L650 0H514L411 198H407L372 0H204ZM256 484L-168 529H263L256 484ZM239 388L-185 433H247L239 388ZM222 292L-202 337H230L222 292ZM205 196L-219 241H213L205
196ZM188 100L-236 145H196L188 100ZM171 3L-253 48H179L171 3Z" />
<glyph unicode="o" glyph-name="o" horiz-adv-x="759" d="M412 -12Q303 -12 260 30T216 158Q216 181 219 208T227 264Q243 356 274 417T361 508T509 539Q619 539 664 497T709 368Q709 346 706 320T698 264Q682 173 651 112T563 19T412 -12ZM292 496L-15 529H333Q309
515 292 496ZM229 393L-149 433H246Q242 423 238 414T229 393ZM382 140H441Q467 140 483 146T504 178L542 387H481Q457 387 440 381T419 350L382 140ZM202 295L-189 337H211L202 295ZM187 199L-207 241H192Q191 230 190 220T187 199ZM190 103L-203 145H186Q186
134 187 124T190 103ZM233 11L-116 48H207Q212 38 218 29T233 11Z" />
<glyph unicode="p" glyph-name="p" horiz-adv-x="695" d="M204 0L296 529H550Q605 529 636 511T681 463T695 392Q695 369 690 335T673 265T638 196T579 144T491 124H394L372 0H204ZM256 484L-168 529H263L256 484ZM239 388L-185 433H247L239 388ZM418 259H449Q469
259 483 264T501 288L513 356Q513 358 513 359T514 362Q514 376 501 379T471 383H439L418 259ZM222 292L-202 337H230L222 292ZM205 196L-219 241H213L205 196ZM188 100L-236 145H196L188 100ZM171 3L-253 48H179L171 3Z" />
<glyph unicode="q" glyph-name="q" horiz-adv-x="733" d="M596 -42L440 -10L446 26L371 1Q280 1 241 38T202 155Q202 178 205 205T213 264Q229 356 260 417T347 508T496 539Q606 539 651 497T696 368Q696 292 682 238T648 148T612 95L656 63L596 -42ZM278 496L-29
529H319Q295 515 278 496ZM215 393L-163 433H232Q228 423 224 414T215 393ZM369 140H428Q454 140 470 146T491 178L529 387H468Q444 387 427 381T406 350L369 140ZM188 295L-203 337H197L188 295ZM173 199L-221 241H178Q177 230 176 220T173 199ZM176 103L-217
145H172Q172 134 173 124T176 103ZM219 11L-130 48H193Q198 38 204 29T219 11Z" />
<glyph unicode="r" glyph-name="r" horiz-adv-x="721" d="M204 0L296 529H550Q606 529 637 512T682 465T696 397Q696 367 688 324T657 241T591 176L648 0H461L423 154H399L372 0H204ZM256 484L-168 529H263L256 484ZM239 388L-185 433H247L239 388ZM423 291H455Q475
291 489 296T507 321L513 356Q513 358 513 359T514 362Q514 376 500 379T461 383H439L423 291ZM222 292L-202 337H230L222 292ZM205 196L-219 241H213L205 196ZM188 100L-236 145H196L188 100ZM171 3L-253 48H179L171 3Z" />
<glyph unicode="s" glyph-name="s" horiz-adv-x="718" d="M405 -12Q358 -12 310 -7T214 11L263 159Q341 137 413 137Q431 137 447 137T482 140L487 172L424 179Q341 188 308 218T275 300Q275 311 276 324T280 350Q293 422 319 463T394 521T522 539Q617 539 701
518L653 372Q618 380 589 384T526 388Q507 388 495 388T466 385L461 356L511 350Q599 340 635 305T672 217Q672 208 671 198T668 178Q656 109 630 70T568 14T490 -8T405 -12ZM298 487L-92 529H339Q327 520 317 510T298 487ZM257 388L-161 433H270Q266 423 263 412T257
388ZM245 292L-179 337H247Q246 328 246 319T245 300V292ZM283 196L-140 241H254Q263 215 283 196ZM212 101L-205 145H226L212 101ZM180 3L-238 48H194L180 3Z" />
<glyph unicode="t" glyph-name="t" horiz-adv-x="623" d="M277 0L343 379H232L259 529H654L627 379H519L453 0H277ZM219 484L-205 529H226L219 484ZM202 388L-222 433H210L202 388ZM298 292L-126 337H306L298 292ZM281 196L-143 241H289L281 196ZM264 100L-160
145H272L264 100ZM247 3L-177 48H255L247 3Z" />
<glyph unicode="u" glyph-name="u" horiz-adv-x="727" d="M416 -12Q313 -12 272 18T231 125Q231 148 234 174T242 231L295 529H463L395 140H445Q470 140 481 146T497 178L560 529H728L676 231Q660 140 633 87T555 11T416 -12ZM256 484L-168 529H263L256 484ZM239
388L-185 433H247L239 388ZM222 292L-202 337H230L222 292ZM205 196L-219 241H213L205 196ZM202 100L-222 145H201V125Q201 118 201 112T202 100ZM240 3L-184 48H211Q222 20 240 3Z" />
<glyph unicode="v" glyph-name="v" horiz-adv-x="725" d="M303 0L274 529H459V227H463L579 529H760L546 0H303ZM244 484L-180 529H241L244 484ZM249 388L-174 433H247L249 388ZM254 292L-168 337H251L254 292ZM259 196L-162 241H256L259 196ZM264 100L-157 145H262L264
100ZM270 3L-151 48H267L270 3Z" />
<glyph unicode="w" glyph-name="w" horiz-adv-x="959" d="M253 0V529H435V243H440L552 529H704V243H708L800 529H991L796 0H579L564 187H557L480 0H253ZM220 484L-173 529H220V484ZM220 388L-173 433H220V388ZM220 292L-173 337H220V292ZM220 196L-173 241H220V196ZM220
100L-173 145H220V100ZM220 3L-173 48H220V3Z" />
<glyph unicode="x" glyph-name="x" horiz-adv-x="703" d="M144 0L319 267L237 529H438L464 411H473L544 529H736L561 267L644 0H448L417 124H408L334 0H144ZM221 484L-203 529H207L221 484ZM251 388L-172 433H237L251 388ZM280 292L-143 337H266L280 292ZM239
198L-165 241H267L239 198ZM176 102L-228 145H204L176 102ZM112 5L-292 48H140L112 5Z" />
<glyph unicode="y" glyph-name="y" horiz-adv-x="635" d="M264 0L290 151L212 529H384L406 337H412L495 529H670L458 151L433 0H264ZM191 484L-233 529H182L191 484ZM211 388L-213 433H202L211 388ZM231 292L-193 337H222L231 292ZM251 196L-173 241H241L251 196ZM251
100L-173 145H259L251 100ZM234 3L-190 48H242L234 3Z" />
<glyph unicode="z" glyph-name="z" horiz-adv-x="666" d="M151 0L170 111L410 377L408 383H253L263 529H675L655 418L414 149L416 143H610L586 0H151ZM230 484L-194 529H233L230 484ZM223 388L-201 433H226L223 388ZM296 295L-99 337H333L296 295ZM209 199L-185
241H247L209 199ZM137 101L-273 145H159L141 124L137 101ZM120 3L-304 48H128L120 3Z" />
<glyph unicode="{" glyph-name="braceleft" horiz-adv-x="557" d="M386 78L464 71L429 -76Q371 -76 321 -72T239 -49T207 10Q207 12 208 18T214 44T230 107T260 229L200 245L220 357L285 373L306 575Q310 613 332 634T391 665T471 677T562 680L545 533Q545 533
541 533T521 531T465 526L453 409Q448 362 429 341T387 307L385 295Q405 280 413 261T422 218Q422 208 420 197T415 175L386 78ZM276 580L-148 625H292Q286 618 282 605T276 580ZM267 484L-165 529H271L267 484ZM258 397L232 391L-182 433H262L258 397ZM178 292L-199
337H186L178 292ZM220 196L-216 241H169L166 223L223 208L220 196ZM196 100L-233 145H207L196 100ZM177 3L-250 48H183Q177 26 177 3Z" />
<glyph unicode="|" glyph-name="bar" horiz-adv-x="522" d="M187 -79L325 704H439L301 -79H187ZM272 580L-151 625H280L272 580ZM256 484L-168 529H263L256 484ZM239 388L-185 433H247L239 388ZM222 292L-202 337H230L222 292ZM205 196L-219 241H213L205 196ZM188
100L-236 145H196L188 100ZM171 3L-253 48H179L171 3Z" />
<glyph unicode="}" glyph-name="braceright" horiz-adv-x="533" d="M336 526L258 533L293 680Q351 680 401 676T483 653T515 594Q515 592 514 586T508 560T493 497T462 375L522 359L502 247L437 231L416 29Q412 -9 390 -30T331 -61T251 -73T160 -76L177 71L257
78L269 195Q274 242 293 263T335 297L337 309Q318 324 309 344T300 386Q300 397 302 407T307 429L336 526ZM239 580L-108 625H249L239 580ZM290 475L-125 529H226L221 506L297 499L290 475ZM270 388L-142 433H277Q274 422 272 411T270 388ZM300 302L286 293L-159
337H279Q287 317 300 302ZM239 197L-176 241H248Q245 232 243 221T239 197ZM230 106L-193 145H234L230 106ZM139 3L-210 48H144L139 3Z" />
<glyph unicode="~" glyph-name="asciitilde" horiz-adv-x="600" d="M383 203Q352 203 328 213T285 235T248 258T212 268Q187 268 161 249T108 202L23 293Q51 324 81 354T144 403T215 423Q241 423 263 413T306 389T346 365T389 354Q414 354 439 370T492 420L578
330Q538 274 488 239T383 203Z" />
<glyph unicode="&#xa0;" glyph-name="uni00A0" horiz-adv-x="200" />
<glyph unicode="&#xa1;" glyph-name="exclamdown" horiz-adv-x="587" d="M549 464Q549 406 517 383T425 359Q372 359 352 372T331 412Q331 468 357 491T453 515Q508 515 528 503T549 464ZM324 505Q311 488 305 461L-95 505H324ZM301 409Q301 382 313 364L-112
409H301ZM342 338H503L456 -90Q455 -101 446 -109T415 -117H267Q236 -117 236 -97Q236 -92 237 -90L342 338ZM294 268L-129 313H305L294 268ZM-150 217H282L271 172L-150 217ZM248 76L-174 121H258L248 76ZM-197 25H235L224 -19L-197 25ZM206 -97Q206 -108 209
-117L-220 -72H211L209 -80Q206 -89 206 -97Z" />
<glyph unicode="&#xa2;" glyph-name="cent" horiz-adv-x="637" d="M383 580L-40 625H391L383 580ZM397 504L417 600H539L520 513Q543 511 568 507T616 496L563 351H497Q475 351 454 344T425 302L400 189Q423 186 445 186Q468 186 494 189T547 201L527 56Q502 46
476 41T419 35L397 -64H275L298 44Q249 56 226 86T203 172Q203 193 208 229T225 307T259 390T315 461T397 504ZM372 529V525Q333 513 305 490L-58 529H372ZM252 433Q245 423 239 412T226 390L-180 433H252ZM204 337Q200 326 197 315T190 292L-228 337H204ZM174
196L-250 241H179L174 196ZM175 145Q176 132 177 121T183 100L-239 145H175ZM264 23L260 3L-163 48H219Q239 32 264 23Z" />
<glyph unicode="&#xa3;" glyph-name="sterling" horiz-adv-x="794" d="M649 262H505L478 160H685V0H204L221 100L274 135L311 262H250L269 369H341L362 443Q418 641 600 641Q661 641 702 636T774 622L720 477H627Q600 477 579 470T549 428L533 369H677L649 262ZM445
625Q433 616 422 606T400 584L14 625H445ZM363 529Q358 519 353 508T344 485L-67 529H363ZM-104 433H328L319 399H243L-104 433ZM224 292L-200 337H232L224 292ZM271 232L260 196L-159 241H215L214 232H271ZM193 118L191 104L-195 145H235L193 118ZM174 3L-250
48H182L174 3Z" />
<glyph unicode="&#xa4;" glyph-name="currency" horiz-adv-x="568" d="M104 313Q112 358 122 393T150 453L80 546L131 592L205 496Q246 515 320 515Q357 515 383 510T428 496L536 592L572 546L466 453Q470 442 472 430T474 403Q474 369 467 324T447 237T417 173L490
80L437 34L363 130Q321 111 249 111Q176 111 140 129L32 34L-2 80L101 172Q97 183 95 195T93 222Q93 242 96 264T104 313ZM244 353L222 231H252Q281 231 300 237T325 273L346 395H317Q289 395 269 389T244 353Z" />
<glyph unicode="&#xa5;" glyph-name="yen" horiz-adv-x="695" d="M413 625L424 391H430L525 625H725L589 369H652L633 262H532L505 212H624L605 105H472L454 0H264L282 105H149L168 212H286L278 262H177L196 369H259L212 625H413ZM182 625L187 597L-78 625H182ZM200
529L206 498L-95 529H200ZM218 433L225 398L-112 433H218ZM161 337L154 298L-129 337H161ZM143 241L136 198L-146 241H143ZM120 101L-163 145H127L120 101ZM234 4L-180 48H241L234 4Z" />
<glyph unicode="&#xa6;" glyph-name="brokenbar" horiz-adv-x="522" d="M279 447L325 704H439L393 447H279ZM272 580L-151 625H280L272 580ZM256 484L-168 529H263L256 484ZM187 -79L228 156H342L301 -79H187ZM188 100L-236 145H196L188 100ZM171 3L-253 48H179L171 3Z" />
<glyph unicode="&#xa7;" glyph-name="section" horiz-adv-x="761" d="M368 625Q331 611 303 586L-58 625H368ZM165 -91L208 31H463L469 65Q378 65 325 79T250 120T227 190Q227 234 242 276T273 342Q267 353 265 365T263 390Q263 465 285 510T346 578T431 610T530
618Q579 618 630 613T727 593L684 466H469L463 432Q554 432 604 417T675 373T696 306Q696 261 681 220T649 155Q660 132 660 100Q660 25 635 -19T567 -85T476 -114T377 -121Q325 -121 270 -114T165 -91ZM260 529Q256 518 252 507T244 485L-171 529H260ZM233 388L-191
433H235Q234 423 234 412T233 388ZM234 337Q229 327 225 316T215 293L-197 337H234ZM537 203Q542 236 543 246T545 260Q545 275 537 282T504 290H395Q390 257 389 248T387 233Q387 218 395 211T428 203H537ZM197 196L-227 241H201Q200 230 199 219T197 196ZM202
145Q208 119 224 100L-198 145H202ZM182 48L167 3L-250 48H182Z" />
<glyph unicode="&#xa8;" glyph-name="dieresis" horiz-adv-x="430" d="M353 738Q389 738 403 727T417 690Q417 631 397 607T326 582Q290 582 276 593T262 630Q262 689 283 713T353 738ZM145 738Q180 738 194 727T209 690Q209 631 188 607T118 582Q82 582 68 593T54
630Q54 689 75 713T145 738ZM41 723Q36 713 33 702T27 677L-275 723H41ZM24 630Q24 612 27 598L-275 644H24V630Z" />
<glyph unicode="&#xa9;" glyph-name="copyright" horiz-adv-x="788" d="M456 159Q349 159 301 203T252 333Q252 399 268 458T318 563T409 635T545 662Q651 662 698 619T746 491Q746 425 731 366T682 260T593 186T456 159ZM294 583L-96 625H334Q313 607 294 583ZM464
205Q592 205 645 278T699 487Q699 559 660 587T537 616Q410 616 355 543T300 336Q300 263 339 234T464 205ZM484 254Q421 254 396 278T371 351Q371 377 377 411Q387 463 404 498T453 550T539 568Q555 568 578 565T615 554L587 476Q573 480 557 481T531 483Q512
483 502 480T490 464L469 344Q477 343 485 342T499 341Q537 341 573 355L564 268Q529 254 484 254ZM244 485L-170 529H261Q256 518 252 507T244 485ZM224 388L-200 433H231Q227 414 225 393L224 388ZM224 292L-200 337H222V333Q222 323 222 313T224 292ZM262 196L-161
241H236Q241 228 247 217T262 196Z" />
<glyph unicode="&#xaa;" glyph-name="ordfeminine" horiz-adv-x="633" d="M362 344Q310 344 281 364T240 417T228 489Q228 542 242 592T286 683T358 746T460 770Q517 770 563 762T660 738L594 356H517L481 402Q460 379 434 362T362 344ZM383 461H406Q428 461 444
465T464 490L493 653H469Q446 653 431 648T410 619L383 461ZM208 580L-209 625H221Q217 614 214 603T208 580ZM198 484L-226 529H200Q199 519 199 509T198 489V484ZM218 388L-205 433H203Q208 409 218 388ZM194 300L-151 337H266Q271 333 279 330H269Q242 330 223
327T194 300ZM204 191L218 271Q222 293 235 296T269 300H592L579 222Q575 200 562 196T527 191H204ZM174 196L-250 241H182L174 196Z" />
<glyph unicode="&#xab;" glyph-name="guillemotleft" horiz-adv-x="767" d="M167 300L382 475L450 424L325 250L389 76L303 25L150 200L167 300ZM404 300L620 475L687 424L562 250L626 76L541 25L382 200L404 300ZM273 424L-8 465H323L273 424ZM155 328L-126 369H205L155
328ZM124 228L-200 273H132L124 228ZM-154 177H130L169 132L-154 177ZM-69 80H214L254 35L-69 80Z" />
<glyph unicode="&#xac;" glyph-name="logicalnot" horiz-adv-x="600" d="M72 240L97 384H530L480 100H352L377 240H72Z" />
<glyph unicode="&#xae;" glyph-name="registered" horiz-adv-x="788" d="M456 159Q349 159 301 203T252 333Q252 399 268 458T318 563T409 635T545 662Q651 662 698 619T746 491Q746 425 731 366T682 260T593 186T456 159ZM294 583L-96 625H334Q313 607 294 583ZM464
205Q592 205 645 278T699 487Q699 559 660 587T537 616Q410 616 355 543T300 336Q300 263 339 234T464 205ZM358 261L411 561H554Q602 561 620 540T638 487Q638 469 633 444T615 396T578 360L610 261H503L481 348H470L455 261H358ZM244 485L-170 529H261Q256 518
252 507T244 485ZM484 428H500Q515 428 521 430T530 443Q533 459 533 462T534 466Q534 473 530 475T509 478H493L484 428ZM224 388L-200 433H231Q227 414 225 393L224 388ZM224 292L-200 337H222V333Q222 323 222 313T224 292ZM262 196L-161 241H236Q241 228 247
217T262 196Z" />
<glyph unicode="&#xaf;" glyph-name="overscore" horiz-adv-x="399" d="M335 596H101Q76 596 67 603T57 627Q57 633 58 641T61 660L72 723H307Q332 723 341 717T350 694Q350 688 349 680T346 660L335 596ZM34 684L-326 723H41L34 684ZM30 601L-330 642H28Q27 639
27 636T27 628Q27 613 30 601Z" />
<glyph unicode="&#xb0;" glyph-name="degree" horiz-adv-x="578" d="M344 357Q270 357 237 387T204 477Q204 538 225 589T290 672T406 704Q479 704 511 674T544 585Q544 525 524 473T459 389T344 357ZM189 581L-224 625H207Q194 602 189 581ZM302 461H362Q388
461 405 466T428 500L445 600H391Q361 600 343 595T320 562L302 461ZM174 484L-250 529H177Q174 507 174 484ZM194 388L-229 433H178Q183 406 194 388Z" />
<glyph unicode="&#xb1;" glyph-name="plusminus" horiz-adv-x="600" d="M91 341L116 485H264L292 640H428L400 485H549L524 341H375L347 185H211L239 341H91ZM31 0L56 144H489L464 0H31Z" />
<glyph unicode="&#xb2;" glyph-name="uni00B2" horiz-adv-x="400" d="M84 616L85 724Q121 733 162 737T240 741Q278 741 308 736T357 711T375 652Q375 644 374 634T371 613Q366 582 356 562T324 528T269 500T180 468L176 448H336L318 343H12L26 425Q35 473 56
498T111 539T192 576L232 594L238 629Q222 631 214 631T197 631Q172 631 143 627T84 616Z" />
<glyph unicode="&#xb3;" glyph-name="uni00B3" horiz-adv-x="400" d="M227 584L235 628Q213 631 189 631Q137 631 84 616L85 724Q121 733 157 737T231 741Q270 741 300 736T348 715T366 665Q366 625 351 597T308 550Q327 539 335 523T343 486Q343 480 343 474T341
460Q331 402 302 376T233 342T150 334Q77 334 13 351L50 460Q79 453 104 449T156 444Q168 444 179 444T203 446L211 492L115 503L127 572L227 584Z" />
<glyph unicode="&#xb4;" glyph-name="acute" horiz-adv-x="429" d="M255 604L81 569L40 626L229 765Q235 769 240 769Q249 769 258 758L321 684Q330 674 330 666Q330 662 329 660T326 655L281 616Q276 612 271 609T255 604ZM67 684L-293 723H120L67 684ZM-44 603L-404
642H9L-44 603Z" />
<glyph unicode="&#xb5;" glyph-name="uni00B5" horiz-adv-x="784" d="M488 529L417 131H446Q475 131 494 137T519 173L583 529L775 544L679 0H584L550 43Q507 0 426 0H358L297 -165H174L298 529H488ZM256 484L-168 529H263L256 484ZM239 388L-185 433H247L239
388ZM222 292L-202 337H230L222 292ZM205 196L-219 241H213L205 196ZM188 100L-236 145H196L188 100ZM171 3L-253 48H179L171 3Z" />
<glyph unicode="&#xb6;" glyph-name="paragraph" horiz-adv-x="766" d="M322 625Q291 609 267 585L-106 625H322ZM396 0L293 -25L335 218Q288 225 262 246T226 297T216 359Q216 410 229 457T270 543T347 603T464 625H767L738 465H690L608 0Q579 -165 437 -165H157L166
-114L368 -55Q386 -50 401 -42T420 -12L505 465H477L396 0ZM224 529Q212 507 205 485L-207 529H224ZM187 388L-237 433H192Q191 422 190 411T187 388ZM186 337Q187 325 188 314T193 292L-230 337H186ZM218 241Q244 210 294 196L-124 241H218ZM283 100L-141 145H291L283
100ZM266 3L-158 48H274L266 3Z" />
<glyph unicode="&#xb7;" glyph-name="middot" horiz-adv-x="325" d="M93 292Q103 349 127 374T216 399Q266 399 285 384T304 334Q304 325 303 315T300 292Q290 235 266 211T178 187Q128 187 109 201T89 250Q89 259 90 269T93 292ZM72 338Q66 318 63 293L-159 338H72ZM70
196L-154 241H59Q61 212 70 196Z" />
<glyph unicode="&#xb8;" glyph-name="cedilla" horiz-adv-x="469" d="M203 -26L211 21H269Q298 9 312 -14T326 -64Q326 -101 296 -133T204 -165Q179 -165 155 -160T109 -146L135 -58H166Q186 -58 192 -53T203 -26ZM94 -89L-88 -58H103L94 -89ZM73 -161L-101 -130H82L73
-161Z" />
<glyph unicode="&#xb9;" glyph-name="uni00B9" horiz-adv-x="400" d="M316 343H37L55 448H136L162 596L70 591L90 700L220 732H319L269 448H334L316 343Z" />
<glyph unicode="&#xba;" glyph-name="ordmasculine" horiz-adv-x="633" d="M408 344Q318 344 278 381T237 490Q237 564 262 628T341 731T483 770Q574 770 614 733T655 623Q655 549 630 486T550 383T408 344ZM391 461H415Q438 461 453 466T473 495L501 653H477Q455
653 439 648T419 619L391 461ZM216 580L-203 625H228Q224 613 221 602T216 580ZM207 484L-217 529H208Q207 519 207 510T207 490V484ZM230 388L-193 433H213Q216 420 220 409T230 388ZM195 302L-129 337H286Q292 333 302 330H269Q243 330 224 327T195 302ZM204
191L218 271Q222 293 235 296T269 300H592L579 222Q575 200 562 196T527 191H204ZM174 196L-250 241H182L174 196Z" />
<glyph unicode="&#xbb;" glyph-name="guillemotright" horiz-adv-x="758" d="M563 475L716 300L699 200L484 25L416 76L542 250L477 424L563 475ZM326 475L479 300L462 200L247 25L179 76L305 250L240 424L326 475ZM208 424L42 465H249L203 438L208 424ZM245 328L-76
369H229L245 328ZM252 228L-150 273H265L272 255L252 228ZM-104 177H215L182 132L-104 177ZM-19 80H145L138 70L184 35L-19 80Z" />
<glyph unicode="&#xbc;" glyph-name="onequarter" horiz-adv-x="971" d="M326 -40L595 640Q602 652 609 658T638 665H689L420 -15Q413 -27 406 -33T377 -40H326ZM63 227L81 332H162L188 480L96 475L116 584L246 616H345L295 332H360L342 227H63ZM728 0L738 60H563L578
144L710 389H923L883 160H920L902 60H865L855 0H728ZM696 160H756L780 295H763L696 160Z" />
<glyph unicode="&#xbd;" glyph-name="onehalf" horiz-adv-x="971" d="M659 665L390 -15Q383 -27 376 -33T347 -40H296L565 640Q572 652 579 658T608 665H659ZM322 227H43L61 332H142L168 480L76 475L96 584L226 616H325L275 332H340L322 227ZM641 273L642 381Q678
390 719 394T797 398Q835 398 865 393T914 368T932 309Q932 301 931 291T928 270Q923 239 913 219T881 185T826 157T737 125L733 105H893L875 0H569L583 82Q592 130 613 155T668 196T749 233L789 251L795 286Q779 288 771 288T754 288Q729 288 700 284T641 273Z"
/>
<glyph unicode="&#xbe;" glyph-name="threequarters" horiz-adv-x="971" d="M307 -40L576 640Q583 652 590 658T619 665H670L401 -15Q394 -27 387 -33T358 -40H307ZM166 218Q93 218 29 235L66 344Q95 337 120 333T172 328Q184 328 195 328T219 330L227 376L131
387L143 456L243 468L251 512Q229 515 205 515Q153 515 100 500L101 608Q137 617 173 621T247 625Q286 625 316 620T364 599T382 549Q382 509 367 481T324 434Q343 423 351 407T359 370Q359 364 359 358T357 344Q347 286 318 260T249 226T166 218ZM728 0L738 60H563L578
144L710 389H923L883 160H920L902 60H865L855 0H728ZM696 160H756L780 295H763L696 160Z" />
<glyph unicode="&#xbf;" glyph-name="questiondown" horiz-adv-x="610" d="M387 529Q356 514 345 487L-43 529H387ZM580 464Q580 406 549 383T457 359Q403 359 383 372T362 412Q362 468 388 491T485 515Q539 515 559 503T580 464ZM334 388L-90 433H332V412Q332
405 332 399T334 388ZM328 292L-90 337H341L328 292ZM334 206L373 333H535L515 145Q514 128 501 118T444 92L336 55L330 21Q339 20 350 20T372 19Q404 19 439 22T504 30T546 39L544 -104Q495 -117 443 -124T341 -132Q286 -132 240 -125T165 -93T136 -15Q136 69
181 120T334 206ZM310 230Q291 223 274 217T242 202L-119 241H313L310 230ZM161 145Q142 125 131 102L-271 145H161ZM106 4L-318 49H112Q111 39 110 29T107 8L106 4Z" />
<glyph unicode="&#xc0;" glyph-name="Agrave" horiz-adv-x="851" d="M192 0L455 625H749L793 0H592L588 99H431L392 0H192ZM404 582L-4 625H422L404 582ZM363 486L-45 529H381L363 486ZM323 389L-86 433H341L323 389ZM493 258H573V433H563L493 258ZM282 293L-127
337H301L282 293ZM242 197L-168 241H260L242 197ZM201 101L-209 145H220L201 101ZM160 4L-250 48H179L160 4ZM740 679L566 714Q555 716 550 719T540 726L495 765Q491 769 491 775Q491 783 500 794L563 868Q572 879 581 879Q586 879 592 875L781 736L740 679ZM465
794L70 833H494Q487 823 479 815T465 794ZM508 713L100 752H467Q472 745 480 738T508 713Z" />
<glyph unicode="&#xc1;" glyph-name="Aacute" horiz-adv-x="851" d="M192 0L455 625H749L793 0H592L588 99H431L392 0H192ZM404 582L-4 625H422L404 582ZM363 486L-45 529H381L363 486ZM323 389L-86 433H341L323 389ZM493 258H573V433H563L493 258ZM282 293L-127
337H301L282 293ZM242 197L-168 241H260L242 197ZM201 101L-209 145H220L201 101ZM160 4L-250 48H179L160 4ZM718 714L544 679L503 736L692 875Q698 879 703 879Q712 879 721 868L784 794Q793 784 793 776Q793 772 792 770T789 765L744 726Q739 722 734 719T718
714ZM530 794L170 833H583L530 794ZM419 713L59 752H472L419 713Z" />
<glyph unicode="&#xc2;" glyph-name="Acircumflex" horiz-adv-x="851" d="M192 0L455 625H749L793 0H592L588 99H431L392 0H192ZM404 582L-4 625H422L404 582ZM363 486L-45 529H381L363 486ZM323 389L-86 433H341L323 389ZM493 258H573V433H563L493 258ZM282 293L-127
337H301L282 293ZM242 197L-168 241H260L242 197ZM201 101L-209 145H220L201 101ZM160 4L-250 48H179L160 4ZM622 880H667Q672 880 675 878T680 871L763 726L697 677L619 740L520 677L472 726L604 871Q612 880 622 880ZM493 794L170 833H528L493 794ZM419 713L89
752H455L419 713Z" />
<glyph unicode="&#xc3;" glyph-name="Atilde" horiz-adv-x="851" d="M192 0L455 625H749L793 0H592L588 99H431L392 0H192ZM404 582L-4 625H422L404 582ZM363 486L-45 529H381L363 486ZM323 389L-86 433H341L323 389ZM493 258H573V433H563L493 258ZM282 293L-127
337H301L282 293ZM242 197L-168 241H260L242 197ZM201 101L-209 145H220L201 101ZM160 4L-250 48H179L160 4ZM664 816L750 856L783 775Q732 743 703 725T657 697T631 686T609 683Q585 683 570 697T534 728L449 688L415 769Q466 801 495 819T541 847T567 858T589
861Q613 861 629 847T664 816ZM461 833L389 787L95 833H461ZM389 754L408 708L95 754H389Z" />
<glyph unicode="&#xc4;" glyph-name="Adieresis" horiz-adv-x="851" d="M192 0L455 625H749L793 0H592L588 99H431L392 0H192ZM404 582L-4 625H422L404 582ZM363 486L-45 529H381L363 486ZM323 389L-86 433H341L323 389ZM493 258H573V433H563L493 258ZM282 293L-127
337H301L282 293ZM242 197L-168 241H260L242 197ZM201 101L-209 145H220L201 101ZM160 4L-250 48H179L160 4ZM738 848Q774 848 788 837T802 800Q802 741 782 717T711 692Q675 692 661 703T647 740Q647 799 668 823T738 848ZM530 848Q565 848 579 837T594 800Q594
741 573 717T503 692Q467 692 453 703T439 740Q439 799 460 823T530 848ZM426 833Q421 823 418 812T412 787L110 833H426ZM409 740Q409 722 412 708L110 754H409V740Z" />
<glyph unicode="&#xc5;" glyph-name="Aring" horiz-adv-x="851" d="M192 0L455 625H749L793 0H592L588 99H431L392 0H192ZM404 582L-4 625H422L404 582ZM363 486L-45 529H381L363 486ZM323 389L-86 433H341L323 389ZM493 258H573V433H563L493 258ZM282 293L-127
337H301L282 293ZM242 197L-168 241H260L242 197ZM201 101L-209 145H220L201 101ZM160 4L-250 48H179L160 4ZM600 667Q551 667 529 687T507 747Q507 822 542 860T641 898Q691 898 712 878T734 818Q734 743 699 705T600 667ZM480 787L182 833H490Q487 823 485 811T480
787ZM572 736H612Q630 736 641 739T656 762L668 829H631Q612 829 600 826T584 804L572 736ZM482 708L184 754H477V747Q477 726 482 708Z" />
<glyph unicode="&#xc6;" glyph-name="AE" horiz-adv-x="1010" d="M192 0L455 625H1016L964 465H760L766 381H935L909 236H776L782 160H982L954 0H592L588 99H431L392 0H192ZM404 582L-4 625H422L404 582ZM363 486L-45 529H381L363 486ZM323 389L-86 433H341L323
389ZM493 258H573V433H563L493 258ZM282 293L-127 337H301L282 293ZM242 197L-168 241H260L242 197ZM201 101L-209 145H220L201 101ZM160 4L-250 48H179L160 4Z" />
<glyph unicode="&#xc7;" glyph-name="Ccedilla" horiz-adv-x="683" d="M443 -15Q313 -15 261 35T208 185Q208 213 212 244T222 312Q241 421 277 493T380 603T558 640Q580 640 610 637T668 628T712 614L656 461Q628 468 596 471T544 475Q498 475 474 466T445 425L399
163Q419 159 437 157T473 155Q511 155 550 161T621 179L605 11Q570 -3 532 -9T443 -15ZM310 592L4 625H355Q343 618 332 610T310 592ZM240 489L-134 529H260Q255 519 250 510T240 489ZM207 392L-181 433H219L207 392ZM188 295L-205 337H195L192 317Q191 311 190
306T188 295ZM178 199L-216 241H181Q178 219 178 199ZM186 103L-203 145H179Q181 134 182 124T186 103ZM239 11L-107 48H209Q222 25 239 11ZM362 -26L370 21H428Q457 9 471 -14T485 -64Q485 -101 455 -133T363 -165Q338 -165 314 -160T268 -146L294 -58H325Q345
-58 351 -53T362 -26ZM253 -89L71 -58H262L253 -89ZM232 -161L58 -130H241L232 -161Z" />
<glyph unicode="&#xc8;" glyph-name="Egrave" horiz-adv-x="726" d="M204 0L314 625H732L680 465H475L461 381H651L625 236H435L422 160H655L627 0H204ZM275 580L-148 625H283L275 580ZM259 484L-165 529H266L259 484ZM242 388L-182 433H250L242 388ZM225 292L-199
337H233L225 292ZM208 196L-216 241H216L208 196ZM191 100L-233 145H199L191 100ZM174 3L-250 48H182L174 3ZM660 679L486 714Q475 716 470 719T460 726L415 765Q411 769 411 775Q411 783 420 794L483 868Q492 879 501 879Q506 879 512 875L701 736L660 679ZM385
794L-10 833H414Q407 823 399 815T385 794ZM428 713L20 752H387Q392 745 400 738T428 713Z" />
<glyph unicode="&#xc9;" glyph-name="Eacute" horiz-adv-x="726" d="M204 0L314 625H732L680 465H475L461 381H651L625 236H435L422 160H655L627 0H204ZM275 580L-148 625H283L275 580ZM259 484L-165 529H266L259 484ZM242 388L-182 433H250L242 388ZM225 292L-199
337H233L225 292ZM208 196L-216 241H216L208 196ZM191 100L-233 145H199L191 100ZM174 3L-250 48H182L174 3ZM638 714L464 679L423 736L612 875Q618 879 623 879Q632 879 641 868L704 794Q713 784 713 776Q713 772 712 770T709 765L664 726Q659 722 654 719T638
714ZM450 794L90 833H503L450 794ZM339 713L-21 752H392L339 713Z" />
<glyph unicode="&#xca;" glyph-name="Ecircumflex" horiz-adv-x="726" d="M204 0L314 625H732L680 465H475L461 381H651L625 236H435L422 160H655L627 0H204ZM275 580L-148 625H283L275 580ZM259 484L-165 529H266L259 484ZM242 388L-182 433H250L242 388ZM225
292L-199 337H233L225 292ZM208 196L-216 241H216L208 196ZM191 100L-233 145H199L191 100ZM174 3L-250 48H182L174 3ZM542 880H587Q592 880 595 878T600 871L683 726L617 677L539 740L440 677L392 726L524 871Q532 880 542 880ZM413 794L90 833H448L413 794ZM339
713L9 752H375L339 713Z" />
<glyph unicode="&#xcb;" glyph-name="Edieresis" horiz-adv-x="726" d="M204 0L314 625H732L680 465H475L461 381H651L625 236H435L422 160H655L627 0H204ZM275 580L-148 625H283L275 580ZM259 484L-165 529H266L259 484ZM242 388L-182 433H250L242 388ZM225 292L-199
337H233L225 292ZM208 196L-216 241H216L208 196ZM191 100L-233 145H199L191 100ZM174 3L-250 48H182L174 3ZM658 848Q694 848 708 837T722 800Q722 741 702 717T631 692Q595 692 581 703T567 740Q567 799 588 823T658 848ZM450 848Q485 848 499 837T514 800Q514
741 493 717T423 692Q387 692 373 703T359 740Q359 799 380 823T450 848ZM346 833Q341 823 338 812T332 787L30 833H346ZM329 740Q329 722 332 708L30 754H329V740Z" />
<glyph unicode="&#xcc;" glyph-name="Igrave" horiz-adv-x="504" d="M204 0L314 625H504L394 0H204ZM275 580L-148 625H283L275 580ZM259 484L-165 529H266L259 484ZM242 388L-182 433H250L242 388ZM225 292L-199 337H233L225 292ZM208 196L-216 241H216L208 196ZM191
100L-233 145H199L191 100ZM174 3L-250 48H182L174 3ZM554 679L380 714Q369 716 364 719T354 726L309 765Q305 769 305 775Q305 783 314 794L377 868Q386 879 395 879Q400 879 406 875L595 736L554 679ZM279 794L-116 833H308Q301 823 293 815T279 794ZM322 713L-86
752H281Q286 745 294 738T322 713Z" />
<glyph unicode="&#xcd;" glyph-name="Iacute" horiz-adv-x="504" d="M204 0L314 625H504L394 0H204ZM275 580L-148 625H283L275 580ZM259 484L-165 529H266L259 484ZM242 388L-182 433H250L242 388ZM225 292L-199 337H233L225 292ZM208 196L-216 241H216L208 196ZM191
100L-233 145H199L191 100ZM174 3L-250 48H182L174 3ZM532 714L358 679L317 736L506 875Q512 879 517 879Q526 879 535 868L598 794Q607 784 607 776Q607 772 606 770T603 765L558 726Q553 722 548 719T532 714ZM344 794L-16 833H397L344 794ZM233 713L-127 752H286L233
713Z" />
<glyph unicode="&#xce;" glyph-name="Icircumflex" horiz-adv-x="504" d="M204 0L314 625H504L394 0H204ZM275 580L-148 625H283L275 580ZM259 484L-165 529H266L259 484ZM242 388L-182 433H250L242 388ZM225 292L-199 337H233L225 292ZM208 196L-216 241H216L208
196ZM191 100L-233 145H199L191 100ZM174 3L-250 48H182L174 3ZM436 880H481Q486 880 489 878T494 871L577 726L511 677L433 740L334 677L286 726L418 871Q426 880 436 880ZM307 794L-16 833H342L307 794ZM233 713L-97 752H269L233 713Z" />
<glyph unicode="&#xcf;" glyph-name="Idieresis" horiz-adv-x="504" d="M204 0L314 625H504L394 0H204ZM275 580L-148 625H283L275 580ZM259 484L-165 529H266L259 484ZM242 388L-182 433H250L242 388ZM225 292L-199 337H233L225 292ZM208 196L-216 241H216L208
196ZM191 100L-233 145H199L191 100ZM174 3L-250 48H182L174 3ZM552 848Q588 848 602 837T616 800Q616 741 596 717T525 692Q489 692 475 703T461 740Q461 799 482 823T552 848ZM344 848Q379 848 393 837T408 800Q408 741 387 717T317 692Q281 692 267 703T253
740Q253 799 274 823T344 848ZM240 833Q235 823 232 812T226 787L-76 833H240ZM223 740Q223 722 226 708L-76 754H223V740Z" />
<glyph unicode="&#xd0;" glyph-name="Eth" horiz-adv-x="841" d="M204 0L314 625H580Q711 625 764 579T818 432Q818 380 806 312Q787 204 751 135T648 33T470 0H204ZM275 580L-148 625H283L275 580ZM259 484L-165 529H266L259 484ZM422 160H501Q534 160 555 168T584
213L619 412Q620 417 620 420T620 428Q620 454 602 459T554 465H475L457 363H537L523 286Q519 265 506 260T471 255H439L422 160ZM242 388L-182 433H250L242 388ZM225 292L-199 337H233L225 292ZM208 196L-216 241H216L208 196ZM191 100L-233 145H199L191 100ZM174
3L-250 48H182L174 3Z" />
<glyph unicode="&#xd1;" glyph-name="Ntilde" horiz-adv-x="851" d="M204 0L314 625H493L595 403Q598 396 598 383Q598 376 598 369T596 355H604L652 625H842L732 0H553L451 222Q450 226 449 231T447 244Q447 250 447 257T449 270H441L394 0H204ZM275 580L-148
625H283L275 580ZM259 484L-165 529H266L259 484ZM242 388L-182 433H250L242 388ZM225 292L-199 337H233L225 292ZM208 196L-216 241H216L208 196ZM191 100L-233 145H199L191 100ZM174 3L-250 48H182L174 3ZM633 816L719 856L752 775Q701 743 672 725T626 697T600
686T578 683Q554 683 539 697T503 728L418 688L384 769Q435 801 464 819T510 847T536 858T558 861Q582 861 598 847T633 816ZM430 833L358 787L64 833H430ZM358 754L377 708L64 754H358Z" />
<glyph unicode="&#xd2;" glyph-name="Ograve" horiz-adv-x="815" d="M442 -15Q312 -15 260 36T207 187Q207 215 210 246T220 312Q239 421 276 493T380 603T557 640Q687 640 739 590T792 438Q792 397 786 344T764 236T722 132T657 48Q617 13 564 -1T442 -15ZM310
592L4 625H355Q343 618 332 610T310 592ZM240 489L-134 529H260Q255 519 250 510T240 489ZM396 156H475Q508 156 529 164T558 209L604 469H524Q491 469 470 461T442 416L396 156ZM207 392L-181 433H219L207 392ZM188 295L-205 337H195L192 317Q191 311 190 306T188
295ZM178 199L-216 241H181Q178 219 178 199ZM186 103L-203 145H179Q181 134 182 124T186 103ZM239 11L-107 48H209Q222 25 239 11ZM712 679L538 714Q527 716 522 719T512 726L467 765Q463 769 463 775Q463 783 472 794L535 868Q544 879 553 879Q558 879 564 875L753
736L712 679ZM437 794L42 833H466Q459 823 451 815T437 794ZM480 713L72 752H439Q444 745 452 738T480 713Z" />
<glyph unicode="&#xd3;" glyph-name="Oacute" horiz-adv-x="815" d="M442 -15Q312 -15 260 36T207 187Q207 215 210 246T220 312Q239 421 276 493T380 603T557 640Q687 640 739 590T792 438Q792 397 786 344T764 236T722 132T657 48Q617 13 564 -1T442 -15ZM310
592L4 625H355Q343 618 332 610T310 592ZM240 489L-134 529H260Q255 519 250 510T240 489ZM396 156H475Q508 156 529 164T558 209L604 469H524Q491 469 470 461T442 416L396 156ZM207 392L-181 433H219L207 392ZM188 295L-205 337H195L192 317Q191 311 190 306T188
295ZM178 199L-216 241H181Q178 219 178 199ZM186 103L-203 145H179Q181 134 182 124T186 103ZM239 11L-107 48H209Q222 25 239 11ZM690 714L516 679L475 736L664 875Q670 879 675 879Q684 879 693 868L756 794Q765 784 765 776Q765 772 764 770T761 765L716 726Q711
722 706 719T690 714ZM502 794L142 833H555L502 794ZM391 713L31 752H444L391 713Z" />
<glyph unicode="&#xd4;" glyph-name="Ocircumflex" horiz-adv-x="815" d="M442 -15Q312 -15 260 36T207 187Q207 215 210 246T220 312Q239 421 276 493T380 603T557 640Q687 640 739 590T792 438Q792 397 786 344T764 236T722 132T657 48Q617 13 564 -1T442 -15ZM310
592L4 625H355Q343 618 332 610T310 592ZM240 489L-134 529H260Q255 519 250 510T240 489ZM396 156H475Q508 156 529 164T558 209L604 469H524Q491 469 470 461T442 416L396 156ZM207 392L-181 433H219L207 392ZM188 295L-205 337H195L192 317Q191 311 190 306T188
295ZM178 199L-216 241H181Q178 219 178 199ZM186 103L-203 145H179Q181 134 182 124T186 103ZM239 11L-107 48H209Q222 25 239 11ZM594 880H639Q644 880 647 878T652 871L735 726L669 677L591 740L492 677L444 726L576 871Q584 880 594 880ZM465 794L142 833H500L465
794ZM391 713L61 752H427L391 713Z" />
<glyph unicode="&#xd5;" glyph-name="Otilde" horiz-adv-x="815" d="M442 -15Q312 -15 260 36T207 187Q207 215 210 246T220 312Q239 421 276 493T380 603T557 640Q687 640 739 590T792 438Q792 397 786 344T764 236T722 132T657 48Q617 13 564 -1T442 -15ZM310
592L4 625H355Q343 618 332 610T310 592ZM240 489L-134 529H260Q255 519 250 510T240 489ZM396 156H475Q508 156 529 164T558 209L604 469H524Q491 469 470 461T442 416L396 156ZM207 392L-181 433H219L207 392ZM188 295L-205 337H195L192 317Q191 311 190 306T188
295ZM178 199L-216 241H181Q178 219 178 199ZM186 103L-203 145H179Q181 134 182 124T186 103ZM239 11L-107 48H209Q222 25 239 11ZM636 816L722 856L755 775Q704 743 675 725T629 697T603 686T581 683Q557 683 542 697T506 728L421 688L387 769Q438 801 467 819T513
847T539 858T561 861Q585 861 601 847T636 816ZM433 833L361 787L67 833H433ZM361 754L380 708L67 754H361Z" />
<glyph unicode="&#xd6;" glyph-name="Odieresis" horiz-adv-x="815" d="M442 -15Q312 -15 260 36T207 187Q207 215 210 246T220 312Q239 421 276 493T380 603T557 640Q687 640 739 590T792 438Q792 397 786 344T764 236T722 132T657 48Q617 13 564 -1T442 -15ZM310
592L4 625H355Q343 618 332 610T310 592ZM240 489L-134 529H260Q255 519 250 510T240 489ZM396 156H475Q508 156 529 164T558 209L604 469H524Q491 469 470 461T442 416L396 156ZM207 392L-181 433H219L207 392ZM188 295L-205 337H195L192 317Q191 311 190 306T188
295ZM178 199L-216 241H181Q178 219 178 199ZM186 103L-203 145H179Q181 134 182 124T186 103ZM239 11L-107 48H209Q222 25 239 11ZM710 848Q746 848 760 837T774 800Q774 741 754 717T683 692Q647 692 633 703T619 740Q619 799 640 823T710 848ZM502 848Q537 848
551 837T566 800Q566 741 545 717T475 692Q439 692 425 703T411 740Q411 799 432 823T502 848ZM398 833Q393 823 390 812T384 787L82 833H398ZM381 740Q381 722 384 708L82 754H381V740Z" />
<glyph unicode="&#xd7;" glyph-name="multiply" horiz-adv-x="600" d="M129 75L50 177L202 312L97 447L212 549L316 414L468 549L547 447L396 312L500 177L385 75L281 210L129 75Z" />
<glyph unicode="&#xd8;" glyph-name="Oslash" horiz-adv-x="815" d="M251 -79L301 9Q251 32 229 76T207 187Q207 215 210 246T220 312Q239 421 276 493T380 603T557 640Q613 640 655 630L697 704H747L697 616Q748 594 770 549T792 438Q792 397 786 344T764 236T722
132T657 48Q617 13 564 -1T442 -15Q386 -15 345 -5L303 -79H251ZM310 592L4 625H355Q343 618 332 610T310 592ZM240 489L-134 529H260Q255 519 250 510T240 489ZM442 416L401 184L563 469H524Q491 469 470 461T442 416ZM558 209L600 444L436 156H475Q508 156 529
164T558 209ZM207 392L-181 433H219L207 392ZM188 295L-205 337H195L192 317Q191 311 190 306T188 295ZM178 199L-216 241H181Q178 219 178 199ZM186 103L-203 145H179Q181 134 182 124T186 103ZM239 11L-107 48H209Q222 25 239 11Z" />
<glyph unicode="&#xd9;" glyph-name="Ugrave" horiz-adv-x="814" d="M453 -15Q373 -15 325 0T256 52T235 147Q235 173 238 205T249 274L311 625H501L418 156H486Q518 156 534 164T557 209L631 625H821L759 274Q745 193 725 138T671 49T584 0T453 -15ZM272 580L-151
625H280L272 580ZM255 484L-168 529H263L255 484ZM238 388L-186 433H246L238 388ZM221 292L-202 337H229L221 292ZM207 196L-216 241H212Q211 229 210 218T207 196ZM208 100L-215 145H205Q205 121 208 100ZM254 3L-169 48H222Q235 20 254 3ZM711 679L537 714Q526
716 521 719T511 726L466 765Q462 769 462 775Q462 783 471 794L534 868Q543 879 552 879Q557 879 563 875L752 736L711 679ZM436 794L41 833H465Q458 823 450 815T436 794ZM479 713L71 752H438Q443 745 451 738T479 713Z" />
<glyph unicode="&#xda;" glyph-name="Uacute" horiz-adv-x="814" d="M453 -15Q373 -15 325 0T256 52T235 147Q235 173 238 205T249 274L311 625H501L418 156H486Q518 156 534 164T557 209L631 625H821L759 274Q745 193 725 138T671 49T584 0T453 -15ZM272 580L-151
625H280L272 580ZM255 484L-168 529H263L255 484ZM238 388L-186 433H246L238 388ZM221 292L-202 337H229L221 292ZM207 196L-216 241H212Q211 229 210 218T207 196ZM208 100L-215 145H205Q205 121 208 100ZM254 3L-169 48H222Q235 20 254 3ZM689 714L515 679L474
736L663 875Q669 879 674 879Q683 879 692 868L755 794Q764 784 764 776Q764 772 763 770T760 765L715 726Q710 722 705 719T689 714ZM501 794L141 833H554L501 794ZM390 713L30 752H443L390 713Z" />
<glyph unicode="&#xdb;" glyph-name="Ucircumflex" horiz-adv-x="814" d="M453 -15Q373 -15 325 0T256 52T235 147Q235 173 238 205T249 274L311 625H501L418 156H486Q518 156 534 164T557 209L631 625H821L759 274Q745 193 725 138T671 49T584 0T453 -15ZM272
580L-151 625H280L272 580ZM255 484L-168 529H263L255 484ZM238 388L-186 433H246L238 388ZM221 292L-202 337H229L221 292ZM207 196L-216 241H212Q211 229 210 218T207 196ZM208 100L-215 145H205Q205 121 208 100ZM254 3L-169 48H222Q235 20 254 3ZM593 880H638Q643
880 646 878T651 871L734 726L668 677L590 740L491 677L443 726L575 871Q583 880 593 880ZM464 794L141 833H499L464 794ZM390 713L60 752H426L390 713Z" />
<glyph unicode="&#xdc;" glyph-name="Udieresis" horiz-adv-x="814" d="M453 -15Q373 -15 325 0T256 52T235 147Q235 173 238 205T249 274L311 625H501L418 156H486Q518 156 534 164T557 209L631 625H821L759 274Q745 193 725 138T671 49T584 0T453 -15ZM272 580L-151
625H280L272 580ZM255 484L-168 529H263L255 484ZM238 388L-186 433H246L238 388ZM221 292L-202 337H229L221 292ZM207 196L-216 241H212Q211 229 210 218T207 196ZM208 100L-215 145H205Q205 121 208 100ZM254 3L-169 48H222Q235 20 254 3ZM709 848Q745 848 759
837T773 800Q773 741 753 717T682 692Q646 692 632 703T618 740Q618 799 639 823T709 848ZM501 848Q536 848 550 837T565 800Q565 741 544 717T474 692Q438 692 424 703T410 740Q410 799 431 823T501 848ZM397 833Q392 823 389 812T383 787L81 833H397ZM380 740Q380
722 383 708L81 754H380V740Z" />
<glyph unicode="&#xdd;" glyph-name="Yacute" horiz-adv-x="654" d="M264 0L293 170L203 625H413L426 405H433L525 625H735L483 170L454 0H264ZM182 580L-241 625H173L182 580ZM200 484L-223 529H191L200 484ZM219 388L-204 433H210L219 388ZM238 292L-186 337H229L238
292ZM257 196L-167 241H248L257 196ZM250 100L-173 145H257L250 100ZM233 3L-190 48H241L233 3ZM585 714L411 679L370 736L559 875Q565 879 570 879Q579 879 588 868L651 794Q660 784 660 776Q660 772 659 770T656 765L611 726Q606 722 601 719T585 714ZM397 794L37
833H450L397 794ZM286 713L-74 752H339L286 713Z" />
<glyph unicode="&#xde;" glyph-name="Thorn" horiz-adv-x="769" d="M204 0L314 625H504L490 550H600Q665 550 702 529T755 473T771 391Q771 364 765 324T745 241T703 161T634 100T531 76H407L394 0H204ZM275 580L-148 625H283L275 580ZM258 484L-165 529H266L258
484ZM241 388L-182 433H249L241 388ZM435 236H479Q508 236 528 242T553 278L565 348Q566 351 566 354T566 359Q566 380 549 385T506 390H462L435 236ZM224 292L-199 337H232L224 292ZM208 196L-216 241H216L208 196ZM191 100L-233 145H199L191 100ZM174 3L-250
48H182L174 3Z" />
<glyph unicode="&#xdf;" glyph-name="germandbls" horiz-adv-x="773" d="M557 -15Q520 -15 482 -12T428 -1L472 141Q488 137 503 134T535 130Q553 130 568 134L574 166Q519 166 499 183T478 243Q478 275 490 308T518 373T547 434T559 487Q559 502 551 510T519
519Q504 519 484 515L394 0H204L269 370H222L245 500H292L309 560Q324 613 361 637T452 668T570 675Q599 675 631 671T691 653T737 616T755 550Q755 539 749 508T719 427T639 314Q716 314 747 283T778 198Q778 103 721 44T557 -15ZM285 581L-125 625H306Q292 603
285 581ZM212 484L-212 529H219L212 484ZM194 388L-230 433H202L194 388ZM225 292L-199 337H233L225 292ZM208 196L-216 241H216L208 196ZM191 100L-233 145H199L191 100ZM174 3L-250 48H182L174 3Z" />
<glyph unicode="&#xe0;" glyph-name="agrave" horiz-adv-x="758" d="M192 0L414 529H662L701 0H526L522 81H396L365 0H192ZM363 486L-45 529H381L363 486ZM323 389L-86 433H341L323 389ZM449 224H522V376H508L449 224ZM282 293L-127 337H301L282 293ZM242 197L-168
241H260L242 197ZM201 101L-209 145H220L201 101ZM160 4L-250 48H179L160 4ZM693 569L519 604Q508 606 503 609T493 616L448 655Q444 659 444 665Q444 673 453 684L516 758Q525 769 534 769Q539 769 545 765L734 626L693 569ZM418 684L23 723H447Q440 713 432 705T418
684ZM461 603L53 642H420Q425 635 433 628T461 603Z" />
<glyph unicode="&#xe1;" glyph-name="aacute" horiz-adv-x="758" d="M192 0L414 529H662L701 0H526L522 81H396L365 0H192ZM363 486L-45 529H381L363 486ZM323 389L-86 433H341L323 389ZM449 224H522V376H508L449 224ZM282 293L-127 337H301L282 293ZM242 197L-168
241H260L242 197ZM201 101L-209 145H220L201 101ZM160 4L-250 48H179L160 4ZM671 604L497 569L456 626L645 765Q651 769 656 769Q665 769 674 758L737 684Q746 674 746 666Q746 662 745 660T742 655L697 616Q692 612 687 609T671 604ZM483 684L123 723H536L483
684ZM372 603L12 642H425L372 603Z" />
<glyph unicode="&#xe2;" glyph-name="acircumflex" horiz-adv-x="758" d="M192 0L414 529H662L701 0H526L522 81H396L365 0H192ZM363 486L-45 529H381L363 486ZM323 389L-86 433H341L323 389ZM449 224H522V376H508L449 224ZM282 293L-127 337H301L282 293ZM242
197L-168 241H260L242 197ZM201 101L-209 145H220L201 101ZM160 4L-250 48H179L160 4ZM555 770H600Q605 770 608 768T613 761L696 616L630 567L552 630L453 567L405 616L537 761Q545 770 555 770ZM426 684L103 723H461L426 684ZM352 603L22 642H388L352 603Z" />
<glyph unicode="&#xe3;" glyph-name="atilde" horiz-adv-x="758" d="M192 0L414 529H662L701 0H526L522 81H396L365 0H192ZM363 486L-45 529H381L363 486ZM323 389L-86 433H341L323 389ZM449 224H522V376H508L449 224ZM282 293L-127 337H301L282 293ZM242 197L-168
241H260L242 197ZM201 101L-209 145H220L201 101ZM160 4L-250 48H179L160 4ZM604 706L690 746L723 665Q672 633 643 615T597 587T571 576T549 573Q525 573 510 587T474 618L389 578L355 659Q406 691 435 709T481 737T507 748T529 751Q553 751 569 737T604 706ZM401
723L329 677L35 723H401ZM329 644L348 598L35 644H329Z" />
<glyph unicode="&#xe4;" glyph-name="adieresis" horiz-adv-x="758" d="M192 0L414 529H662L701 0H526L522 81H396L365 0H192ZM363 486L-45 529H381L363 486ZM323 389L-86 433H341L323 389ZM449 224H522V376H508L449 224ZM282 293L-127 337H301L282 293ZM242 197L-168
241H260L242 197ZM201 101L-209 145H220L201 101ZM160 4L-250 48H179L160 4ZM681 738Q717 738 731 727T745 690Q745 631 725 607T654 582Q618 582 604 593T590 630Q590 689 611 713T681 738ZM473 738Q508 738 522 727T537 690Q537 631 516 607T446 582Q410 582
396 593T382 630Q382 689 403 713T473 738ZM369 723Q364 713 361 702T355 677L53 723H369ZM352 630Q352 612 355 598L53 644H352V630Z" />
<glyph unicode="&#xe5;" glyph-name="aring" horiz-adv-x="758" d="M192 0L414 529H662L701 0H526L522 81H396L365 0H192ZM363 486L-45 529H381L363 486ZM323 389L-86 433H341L323 389ZM449 224H522V376H508L449 224ZM282 293L-127 337H301L282 293ZM242 197L-168
241H260L242 197ZM201 101L-209 145H220L201 101ZM160 4L-250 48H179L160 4ZM541 557Q492 557 470 577T448 637Q448 712 483 750T582 788Q632 788 653 768T675 708Q675 633 640 595T541 557ZM421 677L123 723H431Q428 713 426 701T421 677ZM513 626H553Q571 626
582 629T597 652L609 719H572Q553 719 541 716T525 694L513 626ZM423 598L125 644H418V637Q418 616 423 598Z" />
<glyph unicode="&#xe6;" glyph-name="ae" horiz-adv-x="935" d="M192 0L414 529H927L880 379H673L678 311H855L838 215H685L690 147H862L836 0H526L522 81H396L365 0H192ZM363 486L-45 529H381L363 486ZM323 389L-86 433H341L323 389ZM449 224H522V376H508L449
224ZM282 293L-127 337H301L282 293ZM242 197L-168 241H260L242 197ZM201 101L-209 145H220L201 101ZM160 4L-250 48H179L160 4Z" />
<glyph unicode="&#xe7;" glyph-name="ccedilla" horiz-adv-x="620" d="M400 -12Q290 -12 246 30T202 156Q202 179 205 206T214 264Q230 356 260 417T346 508T497 539Q516 539 542 537T593 530T630 517L579 378Q552 386 526 389T484 392Q449 392 432 386T410 358L371
144Q387 140 400 140T426 139Q458 139 492 145T555 161L539 11Q508 -2 475 -7T400 -12ZM279 496L-28 529H320Q296 515 279 496ZM216 393L-162 433H233Q229 423 225 414T216 393ZM189 295L-202 337H198L189 295ZM174 199L-220 241H179Q178 230 177 220T174 199ZM177
103L-216 145H173Q173 134 174 124T177 103ZM220 11L-129 48H194Q199 38 205 29T220 11ZM337 -26L345 21H403Q432 9 446 -14T460 -64Q460 -101 430 -133T338 -165Q313 -165 289 -160T243 -146L269 -58H300Q320 -58 326 -53T337 -26ZM228 -89L46 -58H237L228 -89ZM207
-161L33 -130H216L207 -161Z" />
<glyph unicode="&#xe8;" glyph-name="egrave" horiz-adv-x="656" d="M204 0L296 529H648L601 379H438L426 311H576L559 215H410L398 147H583L557 0H204ZM256 484L-168 529H263L256 484ZM239 388L-185 433H247L239 388ZM222 292L-202 337H230L222 292ZM205 196L-219
241H213L205 196ZM188 100L-236 145H196L188 100ZM171 3L-253 48H179L171 3ZM612 569L438 604Q427 606 422 609T412 616L367 655Q363 659 363 665Q363 673 372 684L435 758Q444 769 453 769Q458 769 464 765L653 626L612 569ZM337 684L-58 723H366Q359 713 351
705T337 684ZM380 603L-28 642H339Q344 635 352 628T380 603Z" />
<glyph unicode="&#xe9;" glyph-name="eacute" horiz-adv-x="656" d="M204 0L296 529H648L601 379H438L426 311H576L559 215H410L398 147H583L557 0H204ZM256 484L-168 529H263L256 484ZM239 388L-185 433H247L239 388ZM222 292L-202 337H230L222 292ZM205 196L-219
241H213L205 196ZM188 100L-236 145H196L188 100ZM171 3L-253 48H179L171 3ZM590 604L416 569L375 626L564 765Q570 769 575 769Q584 769 593 758L656 684Q665 674 665 666Q665 662 664 660T661 655L616 616Q611 612 606 609T590 604ZM402 684L42 723H455L402 684ZM291
603L-69 642H344L291 603Z" />
<glyph unicode="&#xea;" glyph-name="ecircumflex" horiz-adv-x="656" d="M204 0L296 529H648L601 379H438L426 311H576L559 215H410L398 147H583L557 0H204ZM256 484L-168 529H263L256 484ZM239 388L-185 433H247L239 388ZM222 292L-202 337H230L222 292ZM205
196L-219 241H213L205 196ZM188 100L-236 145H196L188 100ZM171 3L-253 48H179L171 3ZM474 770H519Q524 770 527 768T532 761L615 616L549 567L471 630L372 567L324 616L456 761Q464 770 474 770ZM345 684L22 723H380L345 684ZM271 603L-59 642H307L271 603Z" />
<glyph unicode="&#xeb;" glyph-name="edieresis" horiz-adv-x="656" d="M204 0L296 529H648L601 379H438L426 311H576L559 215H410L398 147H583L557 0H204ZM256 484L-168 529H263L256 484ZM239 388L-185 433H247L239 388ZM222 292L-202 337H230L222 292ZM205 196L-219
241H213L205 196ZM188 100L-236 145H196L188 100ZM171 3L-253 48H179L171 3ZM600 738Q636 738 650 727T664 690Q664 631 644 607T573 582Q537 582 523 593T509 630Q509 689 530 713T600 738ZM392 738Q427 738 441 727T456 690Q456 631 435 607T365 582Q329 582
315 593T301 630Q301 689 322 713T392 738ZM288 723Q283 713 280 702T274 677L-28 723H288ZM271 630Q271 612 274 598L-28 644H271V630Z" />
<glyph unicode="&#xec;" glyph-name="igrave" horiz-adv-x="489" d="M204 0L296 529H472L379 0H204ZM256 484L-168 529H263L256 484ZM239 388L-185 433H247L239 388ZM222 292L-202 337H230L222 292ZM205 196L-219 241H213L205 196ZM188 100L-236 145H196L188 100ZM171
3L-253 48H179L171 3ZM525 569L351 604Q340 606 335 609T325 616L280 655Q276 659 276 665Q276 673 285 684L348 758Q357 769 366 769Q371 769 377 765L566 626L525 569ZM250 684L-145 723H279Q272 713 264 705T250 684ZM293 603L-115 642H252Q257 635 265 628T293
603Z" />
<glyph unicode="&#xed;" glyph-name="iacute" horiz-adv-x="489" d="M204 0L296 529H472L379 0H204ZM256 484L-168 529H263L256 484ZM239 388L-185 433H247L239 388ZM222 292L-202 337H230L222 292ZM205 196L-219 241H213L205 196ZM188 100L-236 145H196L188 100ZM171
3L-253 48H179L171 3ZM503 604L329 569L288 626L477 765Q483 769 488 769Q497 769 506 758L569 684Q578 674 578 666Q578 662 577 660T574 655L529 616Q524 612 519 609T503 604ZM315 684L-45 723H368L315 684ZM204 603L-156 642H257L204 603Z" />
<glyph unicode="&#xee;" glyph-name="icircumflex" horiz-adv-x="489" d="M204 0L296 529H472L379 0H204ZM256 484L-168 529H263L256 484ZM239 388L-185 433H247L239 388ZM222 292L-202 337H230L222 292ZM205 196L-219 241H213L205 196ZM188 100L-236 145H196L188
100ZM171 3L-253 48H179L171 3ZM387 770H432Q437 770 440 768T445 761L528 616L462 567L384 630L285 567L237 616L369 761Q377 770 387 770ZM258 684L-65 723H293L258 684ZM184 603L-146 642H220L184 603Z" />
<glyph unicode="&#xef;" glyph-name="idieresis" horiz-adv-x="489" d="M204 0L296 529H472L379 0H204ZM256 484L-168 529H263L256 484ZM239 388L-185 433H247L239 388ZM222 292L-202 337H230L222 292ZM205 196L-219 241H213L205 196ZM188 100L-236 145H196L188
100ZM171 3L-253 48H179L171 3ZM513 738Q549 738 563 727T577 690Q577 631 557 607T486 582Q450 582 436 593T422 630Q422 689 443 713T513 738ZM305 738Q340 738 354 727T369 690Q369 631 348 607T278 582Q242 582 228 593T214 630Q214 689 235 713T305 738ZM201
723Q196 713 193 702T187 677L-115 723H201ZM184 630Q184 612 187 598L-115 644H184V630Z" />
<glyph unicode="&#xf0;" glyph-name="eth" horiz-adv-x="775" d="M204 0L296 529H521Q632 529 678 490T724 365Q724 343 721 318T713 264Q697 173 666 115T579 28T428 0H204ZM256 484L-168 529H263L256 484ZM239 388L-185 433H247L239 388ZM397 143H455Q481 143
498 149T519 181L548 346Q549 349 549 352T549 357Q549 374 535 378T497 383H439L426 306H503L491 245Q487 228 477 224T450 220H410L397 143ZM222 292L-202 337H230L222 292ZM205 196L-219 241H213L205 196ZM188 100L-236 145H196L188 100ZM171 3L-253 48H179L171
3Z" />
<glyph unicode="&#xf1;" glyph-name="ntilde" horiz-adv-x="769" d="M204 0L296 529H432L536 332H542L576 529H743L650 0H514L411 198H407L372 0H204ZM256 484L-168 529H263L256 484ZM239 388L-185 433H247L239 388ZM222 292L-202 337H230L222 292ZM205 196L-219
241H213L205 196ZM188 100L-236 145H196L188 100ZM171 3L-253 48H179L171 3ZM560 706L646 746L679 665Q628 633 599 615T553 587T527 576T505 573Q481 573 466 587T430 618L345 578L311 659Q362 691 391 709T437 737T463 748T485 751Q509 751 525 737T560 706ZM357
723L285 677L-9 723H357ZM285 644L304 598L-9 644H285Z" />
<glyph unicode="&#xf2;" glyph-name="ograve" horiz-adv-x="759" d="M412 -12Q303 -12 260 30T216 158Q216 181 219 208T227 264Q243 356 274 417T361 508T509 539Q619 539 664 497T709 368Q709 346 706 320T698 264Q682 173 651 112T563 19T412 -12ZM292 496L-15
529H333Q309 515 292 496ZM229 393L-149 433H246Q242 423 238 414T229 393ZM382 140H441Q467 140 483 146T504 178L542 387H481Q457 387 440 381T419 350L382 140ZM202 295L-189 337H211L202 295ZM187 199L-207 241H192Q191 230 190 220T187 199ZM190 103L-203
145H186Q186 134 187 124T190 103ZM233 11L-116 48H207Q212 38 218 29T233 11ZM664 569L490 604Q479 606 474 609T464 616L419 655Q415 659 415 665Q415 673 424 684L487 758Q496 769 505 769Q510 769 516 765L705 626L664 569ZM389 684L-6 723H418Q411 713 403
705T389 684ZM432 603L24 642H391Q396 635 404 628T432 603Z" />
<glyph unicode="&#xf3;" glyph-name="oacute" horiz-adv-x="759" d="M412 -12Q303 -12 260 30T216 158Q216 181 219 208T227 264Q243 356 274 417T361 508T509 539Q619 539 664 497T709 368Q709 346 706 320T698 264Q682 173 651 112T563 19T412 -12ZM292 496L-15
529H333Q309 515 292 496ZM229 393L-149 433H246Q242 423 238 414T229 393ZM382 140H441Q467 140 483 146T504 178L542 387H481Q457 387 440 381T419 350L382 140ZM202 295L-189 337H211L202 295ZM187 199L-207 241H192Q191 230 190 220T187 199ZM190 103L-203
145H186Q186 134 187 124T190 103ZM233 11L-116 48H207Q212 38 218 29T233 11ZM642 604L468 569L427 626L616 765Q622 769 627 769Q636 769 645 758L708 684Q717 674 717 666Q717 662 716 660T713 655L668 616Q663 612 658 609T642 604ZM454 684L94 723H507L454
684ZM343 603L-17 642H396L343 603Z" />
<glyph unicode="&#xf4;" glyph-name="ocircumflex" horiz-adv-x="759" d="M412 -12Q303 -12 260 30T216 158Q216 181 219 208T227 264Q243 356 274 417T361 508T509 539Q619 539 664 497T709 368Q709 346 706 320T698 264Q682 173 651 112T563 19T412 -12ZM292
496L-15 529H333Q309 515 292 496ZM229 393L-149 433H246Q242 423 238 414T229 393ZM382 140H441Q467 140 483 146T504 178L542 387H481Q457 387 440 381T419 350L382 140ZM202 295L-189 337H211L202 295ZM187 199L-207 241H192Q191 230 190 220T187 199ZM190 103L-203
145H186Q186 134 187 124T190 103ZM233 11L-116 48H207Q212 38 218 29T233 11ZM526 770H571Q576 770 579 768T584 761L667 616L601 567L523 630L424 567L376 616L508 761Q516 770 526 770ZM397 684L74 723H432L397 684ZM323 603L-7 642H359L323 603Z" />
<glyph unicode="&#xf5;" glyph-name="otilde" horiz-adv-x="759" d="M412 -12Q303 -12 260 30T216 158Q216 181 219 208T227 264Q243 356 274 417T361 508T509 539Q619 539 664 497T709 368Q709 346 706 320T698 264Q682 173 651 112T563 19T412 -12ZM292 496L-15
529H333Q309 515 292 496ZM229 393L-149 433H246Q242 423 238 414T229 393ZM382 140H441Q467 140 483 146T504 178L542 387H481Q457 387 440 381T419 350L382 140ZM202 295L-189 337H211L202 295ZM187 199L-207 241H192Q191 230 190 220T187 199ZM190 103L-203
145H186Q186 134 187 124T190 103ZM233 11L-116 48H207Q212 38 218 29T233 11ZM575 706L661 746L694 665Q643 633 614 615T568 587T542 576T520 573Q496 573 481 587T445 618L360 578L326 659Q377 691 406 709T452 737T478 748T500 751Q524 751 540 737T575 706ZM372
723L300 677L6 723H372ZM300 644L319 598L6 644H300Z" />
<glyph unicode="&#xf6;" glyph-name="odieresis" horiz-adv-x="759" d="M412 -12Q303 -12 260 30T216 158Q216 181 219 208T227 264Q243 356 274 417T361 508T509 539Q619 539 664 497T709 368Q709 346 706 320T698 264Q682 173 651 112T563 19T412 -12ZM292 496L-15
529H333Q309 515 292 496ZM229 393L-149 433H246Q242 423 238 414T229 393ZM382 140H441Q467 140 483 146T504 178L542 387H481Q457 387 440 381T419 350L382 140ZM202 295L-189 337H211L202 295ZM187 199L-207 241H192Q191 230 190 220T187 199ZM190 103L-203
145H186Q186 134 187 124T190 103ZM233 11L-116 48H207Q212 38 218 29T233 11ZM652 738Q688 738 702 727T716 690Q716 631 696 607T625 582Q589 582 575 593T561 630Q561 689 582 713T652 738ZM444 738Q479 738 493 727T508 690Q508 631 487 607T417 582Q381 582
367 593T353 630Q353 689 374 713T444 738ZM340 723Q335 713 332 702T326 677L24 723H340ZM323 630Q323 612 326 598L24 644H323V630Z" />
<glyph unicode="&#xf7;" glyph-name="divide" horiz-adv-x="600" d="M417 547L401 457Q399 445 390 437T359 428H283Q250 428 250 450Q250 451 250 456T255 481T267 547Q269 559 278 567T309 575H385Q404 575 411 569T418 554Q418 552 418 551T417 547ZM71 240L96
384H529L504 240H71ZM350 167L334 77Q332 65 323 57T292 48H216Q183 48 183 70Q183 71 183 76T188 101T200 167Q202 179 211 187T242 195H318Q337 195 344 189T351 174Q351 172 351 171T350 167Z" />
<glyph unicode="&#xf8;" glyph-name="oslash" horiz-adv-x="759" d="M275 -54L305 4Q257 21 237 60T216 158Q216 181 219 208T227 264Q243 356 274 417T361 508T509 539Q551 539 584 533L609 581H649L619 523Q667 505 688 466T709 368Q709 346 706 320T698 264Q682
173 651 112T563 19T412 -12Q373 -12 342 -6L317 -54H275ZM292 496L-15 529H333Q309 515 292 496ZM229 393L-149 433H246Q242 423 238 414T229 393ZM419 350L384 154L507 387H481Q457 387 440 381T419 350ZM504 178L539 371L418 140H441Q467 140 483 146T504 178ZM202
295L-189 337H211L202 295ZM187 199L-207 241H192Q191 230 190 220T187 199ZM190 103L-203 145H186Q186 134 187 124T190 103ZM233 11L-116 48H207Q212 38 218 29T233 11Z" />
<glyph unicode="&#xf9;" glyph-name="ugrave" horiz-adv-x="727" d="M416 -12Q313 -12 272 18T231 125Q231 148 234 174T242 231L295 529H463L395 140H445Q470 140 481 146T497 178L560 529H728L676 231Q660 140 633 87T555 11T416 -12ZM256 484L-168 529H263L256
484ZM239 388L-185 433H247L239 388ZM222 292L-202 337H230L222 292ZM205 196L-219 241H213L205 196ZM202 100L-222 145H201V125Q201 118 201 112T202 100ZM240 3L-184 48H211Q222 20 240 3ZM668 569L494 604Q483 606 478 609T468 616L423 655Q419 659 419 665Q419
673 428 684L491 758Q500 769 509 769Q514 769 520 765L709 626L668 569ZM393 684L-2 723H422Q415 713 407 705T393 684ZM436 603L28 642H395Q400 635 408 628T436 603Z" />
<glyph unicode="&#xfa;" glyph-name="uacute" horiz-adv-x="727" d="M416 -12Q313 -12 272 18T231 125Q231 148 234 174T242 231L295 529H463L395 140H445Q470 140 481 146T497 178L560 529H728L676 231Q660 140 633 87T555 11T416 -12ZM256 484L-168 529H263L256
484ZM239 388L-185 433H247L239 388ZM222 292L-202 337H230L222 292ZM205 196L-219 241H213L205 196ZM202 100L-222 145H201V125Q201 118 201 112T202 100ZM240 3L-184 48H211Q222 20 240 3ZM646 604L472 569L431 626L620 765Q626 769 631 769Q640 769 649 758L712
684Q721 674 721 666Q721 662 720 660T717 655L672 616Q667 612 662 609T646 604ZM458 684L98 723H511L458 684ZM347 603L-13 642H400L347 603Z" />
<glyph unicode="&#xfb;" glyph-name="ucircumflex" horiz-adv-x="727" d="M416 -12Q313 -12 272 18T231 125Q231 148 234 174T242 231L295 529H463L395 140H445Q470 140 481 146T497 178L560 529H728L676 231Q660 140 633 87T555 11T416 -12ZM256 484L-168 529H263L256
484ZM239 388L-185 433H247L239 388ZM222 292L-202 337H230L222 292ZM205 196L-219 241H213L205 196ZM202 100L-222 145H201V125Q201 118 201 112T202 100ZM240 3L-184 48H211Q222 20 240 3ZM530 770H575Q580 770 583 768T588 761L671 616L605 567L527 630L428
567L380 616L512 761Q520 770 530 770ZM401 684L78 723H436L401 684ZM327 603L-3 642H363L327 603Z" />
<glyph unicode="&#xfc;" glyph-name="udieresis" horiz-adv-x="727" d="M416 -12Q313 -12 272 18T231 125Q231 148 234 174T242 231L295 529H463L395 140H445Q470 140 481 146T497 178L560 529H728L676 231Q660 140 633 87T555 11T416 -12ZM256 484L-168 529H263L256
484ZM239 388L-185 433H247L239 388ZM222 292L-202 337H230L222 292ZM205 196L-219 241H213L205 196ZM202 100L-222 145H201V125Q201 118 201 112T202 100ZM240 3L-184 48H211Q222 20 240 3ZM656 738Q692 738 706 727T720 690Q720 631 700 607T629 582Q593 582
579 593T565 630Q565 689 586 713T656 738ZM448 738Q483 738 497 727T512 690Q512 631 491 607T421 582Q385 582 371 593T357 630Q357 689 378 713T448 738ZM344 723Q339 713 336 702T330 677L28 723H344ZM327 630Q327 612 330 598L28 644H327V630Z" />
<glyph unicode="&#xfd;" glyph-name="yacute" horiz-adv-x="635" d="M264 0L290 151L212 529H384L406 337H412L495 529H670L458 151L433 0H264ZM191 484L-233 529H182L191 484ZM211 388L-213 433H202L211 388ZM231 292L-193 337H222L231 292ZM251 196L-173 241H241L251
196ZM251 100L-173 145H259L251 100ZM234 3L-190 48H242L234 3ZM570 604L396 569L355 626L544 765Q550 769 555 769Q564 769 573 758L636 684Q645 674 645 666Q645 662 644 660T641 655L596 616Q591 612 586 609T570 604ZM382 684L22 723H435L382 684ZM271 603L-89
642H324L271 603Z" />
<glyph unicode="&#xfe;" glyph-name="thorn" horiz-adv-x="748" d="M204 0L295 529H465L454 467H539Q594 467 625 449T670 401T684 330Q684 307 679 273T662 203T627 134T568 82T480 62H383L372 0H204ZM256 484L-168 529H263L256 484ZM239 388L-185 433H247L239
388ZM222 292L-202 337H230L222 292ZM407 197H438Q458 197 472 202T490 226L502 294Q502 296 502 297T503 300Q503 314 490 317T460 321H428L407 197ZM205 196L-219 241H213L205 196ZM188 100L-236 145H196L188 100ZM171 3L-253 48H179L171 3Z" />
<glyph unicode="&#xff;" glyph-name="ydieresis" horiz-adv-x="635" d="M264 0L290 151L212 529H384L406 337H412L495 529H670L458 151L433 0H264ZM191 484L-233 529H182L191 484ZM211 388L-213 433H202L211 388ZM231 292L-193 337H222L231 292ZM251 196L-173
241H241L251 196ZM251 100L-173 145H259L251 100ZM234 3L-190 48H242L234 3ZM580 738Q616 738 630 727T644 690Q644 631 624 607T553 582Q517 582 503 593T489 630Q489 689 510 713T580 738ZM372 738Q407 738 421 727T436 690Q436 631 415 607T345 582Q309 582
295 593T281 630Q281 689 302 713T372 738ZM268 723Q263 713 260 702T254 677L-48 723H268ZM251 630Q251 612 254 598L-48 644H251V630Z" />
<glyph unicode="&#x2013;" glyph-name="endash" horiz-adv-x="595" d="M552 292L48 337H560L552 292ZM535 196L31 241H543L535 196Z" />
<glyph unicode="&#x2014;" glyph-name="emdash" horiz-adv-x="854" d="M806 292L62 337H814L806 292ZM789 196L45 241H797L789 196Z" />
<glyph unicode="&#x2018;" glyph-name="quoteleft" horiz-adv-x="360" d="M348 446Q348 387 320 350T224 313Q175 313 155 328T135 377Q135 386 136 397T140 420L143 432Q152 467 165 490T191 534L280 670L360 641L302 496Q328 492 338 480T348 446ZM152 529Q146
519 140 509T129 485L-178 529H152ZM111 427Q105 405 105 388L-218 433H112L111 427ZM110 337Q120 305 154 292L-166 337H110Z" />
<glyph unicode="&#x2019;" glyph-name="quoteright" horiz-adv-x="458" d="M226 518Q234 556 246 579T282 614T349 625Q399 625 418 610T437 560Q437 517 422 480T381 404L293 268L213 297L269 441Q244 446 234 458T223 491Q223 503 226 518ZM197 524Q195 514
194 506T193 491V484L-131 529H198Q197 527 197 524ZM230 422L217 389L-99 433H213Q216 429 220 427T230 422ZM179 293L-134 337H196L179 293Z" />
<glyph unicode="&#x201a;" glyph-name="quotesinglbase" horiz-adv-x="325" d="M93 99Q101 137 113 160T149 195T216 206Q266 206 285 191T304 141Q304 98 289 61T248 -15L160 -151L80 -122L136 22Q111 27 101 39T90 72Q90 84 93 99ZM72 145Q66 125 63 100L-159
145H72ZM-154 48H59Q63 36 72 21T97 -1L-154 48Z" />
<glyph unicode="&#x201c;" glyph-name="quotedblleft" horiz-adv-x="597" d="M348 446Q348 387 320 350T224 313Q175 313 155 328T135 377Q135 386 136 397T140 420L143 432Q152 467 165 490T191 534L280 670L360 641L302 496Q328 492 338 480T348 446ZM585 446Q585
387 557 350T461 313Q412 313 392 328T372 377Q372 386 373 397T377 420L380 432Q389 467 402 490T428 534L517 670L597 641L539 496Q565 492 575 480T585 446ZM152 529Q146 519 140 509T129 485L-178 529H152ZM111 427Q105 405 105 388L-218 433H112L111 427ZM110
337Q120 305 154 292L-166 337H110Z" />
<glyph unicode="&#x201d;" glyph-name="quotedblright" horiz-adv-x="696" d="M464 518Q472 556 484 579T520 614T587 625Q637 625 656 610T675 560Q675 517 660 480T619 404L531 268L451 297L507 441Q482 446 472 458T461 491Q461 503 464 518ZM226 518Q234 556
246 579T282 614T349 625Q399 625 418 610T437 560Q437 517 422 480T381 404L293 268L213 297L269 441Q244 446 234 458T223 491Q223 503 226 518ZM197 524Q195 514 194 506T193 491V484L-131 529H198Q197 527 197 524ZM230 422L217 389L-99 433H213Q216 429 220
427T230 422ZM179 293L-134 337H196L179 293Z" />
<glyph unicode="&#x201e;" glyph-name="quotedblbase" horiz-adv-x="563" d="M331 99Q339 137 351 160T387 195T454 206Q504 206 523 191T542 141Q542 98 527 61T486 -15L398 -151L318 -122L374 22Q349 27 339 39T328 72Q328 84 331 99ZM93 99Q101 137 113 160T149
195T216 206Q266 206 285 191T304 141Q304 98 289 61T248 -15L160 -151L80 -122L136 22Q111 27 101 39T90 72Q90 84 93 99ZM72 145Q66 125 63 100L-159 145H72ZM-154 48H59Q63 36 72 21T97 -1L-154 48Z" />
<glyph unicode="&#x2022;" glyph-name="bullet" horiz-adv-x="526" d="M204 195Q204 249 219 293T270 362T370 388Q434 388 459 369T484 305Q484 251 471 207T422 138T321 112Q256 112 230 131T204 195ZM204 337Q199 327 195 316T186 293L-227 337H204ZM174 196L-250
241H176Q175 230 175 219T174 196ZM218 100L-206 145H181Q191 117 218 100Z" />
<glyph unicode="&#x2039;" glyph-name="guilsinglleft" horiz-adv-x="530" d="M167 300L382 475L450 424L325 250L389 76L303 25L150 200L167 300ZM273 424L-8 465H323L273 424ZM155 328L-126 369H205L155 328ZM124 228L-200 273H132L124 228ZM-154 177H130L169
132L-154 177ZM-69 80H214L254 35L-69 80Z" />
<glyph unicode="&#x203a;" glyph-name="guilsinglright" horiz-adv-x="521" d="M326 475L479 300L462 200L247 25L179 76L305 250L240 424L326 475ZM208 424L42 465H249L203 438L208 424ZM245 328L-76 369H229L245 328ZM252 228L-150 273H265L272 255L252 228ZM-104
177H215L182 132L-104 177ZM-19 80H145L138 70L184 35L-19 80Z" />
</font>
</defs>
</svg>
