<?xml version="1.0" standalone="no"?>
<!DOCTYPE svg PUBLIC "-//W3C//DTD SVG 1.1//EN" "http://www.w3.org/Graphics/SVG/1.1/DTD/svg11.dtd">
<svg xmlns="http://www.w3.org/2000/svg">
<defs >
<font id="Wavefont" horiz-adv-x="100" ><font-face
    font-family="Wavefont Thin"
    units-per-em="1000"
    panose-1="2 0 0 9 0 0 0 0 0 0"
    ascent="1200"
    descent="-200"
    alphabetic="0" />
<glyph unicode=" " />
<glyph unicode="!" />
<glyph unicode="&quot;" />
<glyph unicode="#" />
<glyph unicode="$" />
<glyph unicode="%" />
<glyph unicode="&amp;" />
<glyph unicode="&apos;" />
<glyph unicode="(" />
<glyph unicode=")" />
<glyph unicode="*" d="M0 50H100V-40H0V50ZM50 100Q36 100 25 94T7 76T0 50V50Q0 36 6 25T24 7T50 0V0Q64 0 75 6T93 24T100 50V50Q100 64 94 75T76 93T50 100V100ZM50 10Q36 10 25 4T7 -14T0 -40V-40Q0 -54 6 -65T24 -83T50 -90V-90Q64 -90 75 -84T93 -66T100
-40V-40Q100 -26 94 -15T76 3T50 10V10Z" />
<glyph unicode="+" />
<glyph unicode="," />
<glyph unicode="-" d="M0 50H100V-40H0V50ZM50 100Q36 100 25 94T7 76T0 50V50Q0 36 6 25T24 7T50 0V0Q64 0 75 6T93 24T100 50V50Q100 64 94 75T76 93T50 100V100ZM50 10Q36 10 25 4T7 -14T0 -40V-40Q0 -54 6 -65T24 -83T50 -90V-90Q64 -90 75 -84T93 -66T100
-40V-40Q100 -26 94 -15T76 3T50 10V10Z" />
<glyph unicode="." d="M0 50H100V-40H0V50ZM50 100Q36 100 25 94T7 76T0 50V50Q0 36 6 25T24 7T50 0V0Q64 0 75 6T93 24T100 50V50Q100 64 94 75T76 93T50 100V100ZM50 10Q36 10 25 4T7 -14T0 -40V-40Q0 -54 6 -65T24 -83T50 -90V-90Q64 -90 75 -84T93 -66T100
-40V-40Q100 -26 94 -15T76 3T50 10V10Z" />
<glyph unicode="/" />
<glyph unicode="0" d="M0 50H100V-40H0V50ZM50 100Q36 100 25 94T7 76T0 50V50Q0 36 6 25T24 7T50 0V0Q64 0 75 6T93 24T100 50V50Q100 64 94 75T76 93T50 100V100ZM50 10Q36 10 25 4T7 -14T0 -40V-40Q0 -54 6 -65T24 -83T50 -90V-90Q64 -90 75 -84T93 -66T100
-40V-40Q100 -26 94 -15T76 3T50 10V10Z" />
<glyph unicode="1" d="M0 50H100V50H0V50ZM50 100Q36 100 25 94T7 76T0 50V50Q0 36 6 25T24 7T50 0V0Q64 0 75 6T93 24T100 50V50Q100 64 94 75T76 93T50 100V100ZM50 100Q36 100 25 94T7 76T0 50V50Q0 36 6 25T24 7T50 0V0Q64 0 75 6T93 24T100 50V50Q100 64
94 75T76 93T50 100V100Z" />
<glyph unicode="2" d="M0 50H100V150H0V50ZM50 100Q36 100 25 94T7 76T0 50V50Q0 36 6 25T24 7T50 0V0Q64 0 75 6T93 24T100 50V50Q100 64 94 75T76 93T50 100V100ZM50 200Q36 200 25 194T7 176T0 150V150Q0 136 6 125T24 107T50 100V100Q64 100 75 106T93 124T100
150V150Q100 164 94 175T76 193T50 200V200Z" />
<glyph unicode="3" d="M0 50H100V250H0V50ZM50 100Q36 100 25 94T7 76T0 50V50Q0 36 6 25T24 7T50 0V0Q64 0 75 6T93 24T100 50V50Q100 64 94 75T76 93T50 100V100ZM50 300Q36 300 25 294T7 276T0 250V250Q0 236 6 225T24 207T50 200V200Q64 200 75 206T93 224T100
250V250Q100 264 94 275T76 293T50 300V300Z" />
<glyph unicode="4" d="M0 50H100V350H0V50ZM50 100Q36 100 25 94T7 76T0 50V50Q0 36 6 25T24 7T50 0V0Q64 0 75 6T93 24T100 50V50Q100 64 94 75T76 93T50 100V100ZM50 400Q36 400 25 394T7 376T0 350V350Q0 336 6 325T24 307T50 300V300Q64 300 75 306T93 324T100
350V350Q100 364 94 375T76 393T50 400V400Z" />
<glyph unicode="5" d="M0 50H100V450H0V50ZM50 100Q36 100 25 94T7 76T0 50V50Q0 36 6 25T24 7T50 0V0Q64 0 75 6T93 24T100 50V50Q100 64 94 75T76 93T50 100V100ZM50 500Q36 500 25 494T7 476T0 450V450Q0 436 6 425T24 407T50 400V400Q64 400 75 406T93 424T100
450V450Q100 464 94 475T76 493T50 500V500Z" />
<glyph unicode="6" d="M0 50H100V550H0V50ZM50 100Q36 100 25 94T7 76T0 50V50Q0 36 6 25T24 7T50 0V0Q64 0 75 6T93 24T100 50V50Q100 64 94 75T76 93T50 100V100ZM50 600Q36 600 25 594T7 576T0 550V550Q0 536 6 525T24 507T50 500V500Q64 500 75 506T93 524T100
550V550Q100 564 94 575T76 593T50 600V600Z" />
<glyph unicode="7" d="M0 50H100V650H0V50ZM50 100Q36 100 25 94T7 76T0 50V50Q0 36 6 25T24 7T50 0V0Q64 0 75 6T93 24T100 50V50Q100 64 94 75T76 93T50 100V100ZM50 700Q36 700 25 694T7 676T0 650V650Q0 636 6 625T24 607T50 600V600Q64 600 75 606T93 624T100
650V650Q100 664 94 675T76 693T50 700V700Z" />
<glyph unicode="8" d="M0 50H100V750H0V50ZM50 100Q36 100 25 94T7 76T0 50V50Q0 36 6 25T24 7T50 0V0Q64 0 75 6T93 24T100 50V50Q100 64 94 75T76 93T50 100V100ZM50 800Q36 800 25 794T7 776T0 750V750Q0 736 6 725T24 707T50 700V700Q64 700 75 706T93 724T100
750V750Q100 764 94 775T76 793T50 800V800Z" />
<glyph unicode="9" d="M0 50H100V850H0V50ZM50 100Q36 100 25 94T7 76T0 50V50Q0 36 6 25T24 7T50 0V0Q64 0 75 6T93 24T100 50V50Q100 64 94 75T76 93T50 100V100ZM50 900Q36 900 25 894T7 876T0 850V850Q0 836 6 825T24 807T50 800V800Q64 800 75 806T93 824T100
850V850Q100 864 94 875T76 893T50 900V900Z" />
<glyph unicode=":" />
<glyph unicode=";" />
<glyph unicode="&lt;" />
<glyph unicode="=" />
<glyph unicode="&gt;" />
<glyph unicode="?" />
<glyph unicode="@" />
<glyph unicode="A" d="M0 50H100V470H0V50ZM50 100Q36 100 25 94T7 76T0 50V50Q0 36 6 25T24 7T50 0V0Q64 0 75 6T93 24T100 50V50Q100 64 94 75T76 93T50 100V100ZM50 520Q36 520 25 514T7 496T0 470V470Q0 456 6 445T24 427T50 420V420Q64 420 75 426T93 444T100
470V470Q100 484 94 495T76 513T50 520V520Z" />
<glyph unicode="B" d="M0 50H100V490H0V50ZM50 100Q36 100 25 94T7 76T0 50V50Q0 36 6 25T24 7T50 0V0Q64 0 75 6T93 24T100 50V50Q100 64 94 75T76 93T50 100V100ZM50 540Q36 540 25 534T7 516T0 490V490Q0 476 6 465T24 447T50 440V440Q64 440 75 446T93 464T100
490V490Q100 504 94 515T76 533T50 540V540Z" />
<glyph unicode="C" d="M0 50H100V510H0V50ZM50 100Q36 100 25 94T7 76T0 50V50Q0 36 6 25T24 7T50 0V0Q64 0 75 6T93 24T100 50V50Q100 64 94 75T76 93T50 100V100ZM50 560Q36 560 25 554T7 536T0 510V510Q0 496 6 485T24 467T50 460V460Q64 460 75 466T93 484T100
510V510Q100 524 94 535T76 553T50 560V560Z" />
<glyph unicode="D" d="M0 50H100V530H0V50ZM50 100Q36 100 25 94T7 76T0 50V50Q0 36 6 25T24 7T50 0V0Q64 0 75 6T93 24T100 50V50Q100 64 94 75T76 93T50 100V100ZM50 580Q36 580 25 574T7 556T0 530V530Q0 516 6 505T24 487T50 480V480Q64 480 75 486T93 504T100
530V530Q100 544 94 555T76 573T50 580V580Z" />
<glyph unicode="E" d="M0 50H100V550H0V50ZM50 100Q36 100 25 94T7 76T0 50V50Q0 36 6 25T24 7T50 0V0Q64 0 75 6T93 24T100 50V50Q100 64 94 75T76 93T50 100V100ZM50 600Q36 600 25 594T7 576T0 550V550Q0 536 6 525T24 507T50 500V500Q64 500 75 506T93 524T100
550V550Q100 564 94 575T76 593T50 600V600Z" />
<glyph unicode="F" d="M0 50H100V570H0V50ZM50 100Q36 100 25 94T7 76T0 50V50Q0 36 6 25T24 7T50 0V0Q64 0 75 6T93 24T100 50V50Q100 64 94 75T76 93T50 100V100ZM50 620Q36 620 25 614T7 596T0 570V570Q0 556 6 545T24 527T50 520V520Q64 520 75 526T93 544T100
570V570Q100 584 94 595T76 613T50 620V620Z" />
<glyph unicode="G" d="M0 50H100V590H0V50ZM50 100Q36 100 25 94T7 76T0 50V50Q0 36 6 25T24 7T50 0V0Q64 0 75 6T93 24T100 50V50Q100 64 94 75T76 93T50 100V100ZM50 640Q36 640 25 634T7 616T0 590V590Q0 576 6 565T24 547T50 540V540Q64 540 75 546T93 564T100
590V590Q100 604 94 615T76 633T50 640V640Z" />
<glyph unicode="H" d="M0 50H100V610H0V50ZM50 100Q36 100 25 94T7 76T0 50V50Q0 36 6 25T24 7T50 0V0Q64 0 75 6T93 24T100 50V50Q100 64 94 75T76 93T50 100V100ZM50 660Q36 660 25 654T7 636T0 610V610Q0 596 6 585T24 567T50 560V560Q64 560 75 566T93 584T100
610V610Q100 624 94 635T76 653T50 660V660Z" />
<glyph unicode="I" d="M0 50H100V630H0V50ZM50 100Q36 100 25 94T7 76T0 50V50Q0 36 6 25T24 7T50 0V0Q64 0 75 6T93 24T100 50V50Q100 64 94 75T76 93T50 100V100ZM50 680Q36 680 25 674T7 656T0 630V630Q0 616 6 605T24 587T50 580V580Q64 580 75 586T93 604T100
630V630Q100 644 94 655T76 673T50 680V680Z" />
<glyph unicode="J" d="M0 50H100V650H0V50ZM50 100Q36 100 25 94T7 76T0 50V50Q0 36 6 25T24 7T50 0V0Q64 0 75 6T93 24T100 50V50Q100 64 94 75T76 93T50 100V100ZM50 700Q36 700 25 694T7 676T0 650V650Q0 636 6 625T24 607T50 600V600Q64 600 75 606T93 624T100
650V650Q100 664 94 675T76 693T50 700V700Z" />
<glyph unicode="K" d="M0 50H100V670H0V50ZM50 100Q36 100 25 94T7 76T0 50V50Q0 36 6 25T24 7T50 0V0Q64 0 75 6T93 24T100 50V50Q100 64 94 75T76 93T50 100V100ZM50 720Q36 720 25 714T7 696T0 670V670Q0 656 6 645T24 627T50 620V620Q64 620 75 626T93 644T100
670V670Q100 684 94 695T76 713T50 720V720Z" />
<glyph unicode="L" d="M0 50H100V690H0V50ZM50 100Q36 100 25 94T7 76T0 50V50Q0 36 6 25T24 7T50 0V0Q64 0 75 6T93 24T100 50V50Q100 64 94 75T76 93T50 100V100ZM50 740Q36 740 25 734T7 716T0 690V690Q0 676 6 665T24 647T50 640V640Q64 640 75 646T93 664T100
690V690Q100 704 94 715T76 733T50 740V740Z" />
<glyph unicode="M" d="M0 50H100V710H0V50ZM50 100Q36 100 25 94T7 76T0 50V50Q0 36 6 25T24 7T50 0V0Q64 0 75 6T93 24T100 50V50Q100 64 94 75T76 93T50 100V100ZM50 760Q36 760 25 754T7 736T0 710V710Q0 696 6 685T24 667T50 660V660Q64 660 75 666T93 684T100
710V710Q100 724 94 735T76 753T50 760V760Z" />
<glyph unicode="N" d="M0 50H100V730H0V50ZM50 100Q36 100 25 94T7 76T0 50V50Q0 36 6 25T24 7T50 0V0Q64 0 75 6T93 24T100 50V50Q100 64 94 75T76 93T50 100V100ZM50 780Q36 780 25 774T7 756T0 730V730Q0 716 6 705T24 687T50 680V680Q64 680 75 686T93 704T100
730V730Q100 744 94 755T76 773T50 780V780Z" />
<glyph unicode="O" d="M0 50H100V750H0V50ZM50 100Q36 100 25 94T7 76T0 50V50Q0 36 6 25T24 7T50 0V0Q64 0 75 6T93 24T100 50V50Q100 64 94 75T76 93T50 100V100ZM50 800Q36 800 25 794T7 776T0 750V750Q0 736 6 725T24 707T50 700V700Q64 700 75 706T93 724T100
750V750Q100 764 94 775T76 793T50 800V800Z" />
<glyph unicode="P" d="M0 50H100V770H0V50ZM50 100Q36 100 25 94T7 76T0 50V50Q0 36 6 25T24 7T50 0V0Q64 0 75 6T93 24T100 50V50Q100 64 94 75T76 93T50 100V100ZM50 820Q36 820 25 814T7 796T0 770V770Q0 756 6 745T24 727T50 720V720Q64 720 75 726T93 744T100
770V770Q100 784 94 795T76 813T50 820V820Z" />
<glyph unicode="Q" d="M0 50H100V790H0V50ZM50 100Q36 100 25 94T7 76T0 50V50Q0 36 6 25T24 7T50 0V0Q64 0 75 6T93 24T100 50V50Q100 64 94 75T76 93T50 100V100ZM50 840Q36 840 25 834T7 816T0 790V790Q0 776 6 765T24 747T50 740V740Q64 740 75 746T93 764T100
790V790Q100 804 94 815T76 833T50 840V840Z" />
<glyph unicode="R" d="M0 50H100V810H0V50ZM50 100Q36 100 25 94T7 76T0 50V50Q0 36 6 25T24 7T50 0V0Q64 0 75 6T93 24T100 50V50Q100 64 94 75T76 93T50 100V100ZM50 860Q36 860 25 854T7 836T0 810V810Q0 796 6 785T24 767T50 760V760Q64 760 75 766T93 784T100
810V810Q100 824 94 835T76 853T50 860V860Z" />
<glyph unicode="S" d="M0 50H100V830H0V50ZM50 100Q36 100 25 94T7 76T0 50V50Q0 36 6 25T24 7T50 0V0Q64 0 75 6T93 24T100 50V50Q100 64 94 75T76 93T50 100V100ZM50 880Q36 880 25 874T7 856T0 830V830Q0 816 6 805T24 787T50 780V780Q64 780 75 786T93 804T100
830V830Q100 844 94 855T76 873T50 880V880Z" />
<glyph unicode="T" d="M0 50H100V850H0V50ZM50 100Q36 100 25 94T7 76T0 50V50Q0 36 6 25T24 7T50 0V0Q64 0 75 6T93 24T100 50V50Q100 64 94 75T76 93T50 100V100ZM50 900Q36 900 25 894T7 876T0 850V850Q0 836 6 825T24 807T50 800V800Q64 800 75 806T93 824T100
850V850Q100 864 94 875T76 893T50 900V900Z" />
<glyph unicode="U" d="M0 50H100V870H0V50ZM50 100Q36 100 25 94T7 76T0 50V50Q0 36 6 25T24 7T50 0V0Q64 0 75 6T93 24T100 50V50Q100 64 94 75T76 93T50 100V100ZM50 920Q36 920 25 914T7 896T0 870V870Q0 856 6 845T24 827T50 820V820Q64 820 75 826T93 844T100
870V870Q100 884 94 895T76 913T50 920V920Z" />
<glyph unicode="V" d="M0 50H100V890H0V50ZM50 100Q36 100 25 94T7 76T0 50V50Q0 36 6 25T24 7T50 0V0Q64 0 75 6T93 24T100 50V50Q100 64 94 75T76 93T50 100V100ZM50 940Q36 940 25 934T7 916T0 890V890Q0 876 6 865T24 847T50 840V840Q64 840 75 846T93 864T100
890V890Q100 904 94 915T76 933T50 940V940Z" />
<glyph unicode="W" d="M0 50H100V910H0V50ZM50 100Q36 100 25 94T7 76T0 50V50Q0 36 6 25T24 7T50 0V0Q64 0 75 6T93 24T100 50V50Q100 64 94 75T76 93T50 100V100ZM50 960Q36 960 25 954T7 936T0 910V910Q0 896 6 885T24 867T50 860V860Q64 860 75 866T93 884T100
910V910Q100 924 94 935T76 953T50 960V960Z" />
<glyph unicode="X" d="M0 50H100V930H0V50ZM50 100Q36 100 25 94T7 76T0 50V50Q0 36 6 25T24 7T50 0V0Q64 0 75 6T93 24T100 50V50Q100 64 94 75T76 93T50 100V100ZM50 980Q36 980 25 974T7 956T0 930V930Q0 916 6 905T24 887T50 880V880Q64 880 75 886T93 904T100
930V930Q100 944 94 955T76 973T50 980V980Z" />
<glyph unicode="Y" d="M0 50H100V940H0V50ZM50 100Q36 100 25 94T7 76T0 50V50Q0 36 6 25T24 7T50 0V0Q64 0 75 6T93 24T100 50V50Q100 64 94 75T76 93T50 100V100ZM50 990Q36 990 25 984T7 966T0 940V940Q0 926 6 915T24 897T50 890V890Q64 890 75 896T93 914T100
940V940Q100 954 94 965T76 983T50 990V990Z" />
<glyph unicode="Z" d="M0 50H100V950H0V50ZM50 100Q36 100 25 94T7 76T0 50V50Q0 36 6 25T24 7T50 0V0Q64 0 75 6T93 24T100 50V50Q100 64 94 75T76 93T50 100V100ZM50 1000Q36 1000 25 994T7 976T0 950V950Q0 936 6 925T24 907T50 900V900Q64 900 75 906T93 924T100
950V950Q100 964 94 975T76 993T50 1000V1000Z" />
<glyph unicode="[" />
<glyph unicode="\" />
<glyph unicode="]" />
<glyph unicode="^" />
<glyph unicode="_" d="M0 50H100V-40H0V50ZM50 100Q36 100 25 94T7 76T0 50V50Q0 36 6 25T24 7T50 0V0Q64 0 75 6T93 24T100 50V50Q100 64 94 75T76 93T50 100V100ZM50 10Q36 10 25 4T7 -14T0 -40V-40Q0 -54 6 -65T24 -83T50 -90V-90Q64 -90 75 -84T93 -66T100
-40V-40Q100 -26 94 -15T76 3T50 10V10Z" />
<glyph unicode="`" />
<glyph unicode="a" d="M0 50H100V-40H0V50ZM50 100Q36 100 25 94T7 76T0 50V50Q0 36 6 25T24 7T50 0V0Q64 0 75 6T93 24T100 50V50Q100 64 94 75T76 93T50 100V100ZM50 10Q36 10 25 4T7 -14T0 -40V-40Q0 -54 6 -65T24 -83T50 -90V-90Q64 -90 75 -84T93 -66T100
-40V-40Q100 -26 94 -15T76 3T50 10V10Z" />
<glyph unicode="b" d="M0 50H100V-30H0V50ZM50 100Q36 100 25 94T7 76T0 50V50Q0 36 6 25T24 7T50 0V0Q64 0 75 6T93 24T100 50V50Q100 64 94 75T76 93T50 100V100ZM50 20Q36 20 25 14T7 -4T0 -30V-30Q0 -44 6 -55T24 -73T50 -80V-80Q64 -80 75 -74T93 -56T100
-30V-30Q100 -16 94 -5T76 13T50 20V20Z" />
<glyph unicode="c" d="M0 50H100V-10H0V50ZM50 100Q36 100 25 94T7 76T0 50V50Q0 36 6 25T24 7T50 0V0Q64 0 75 6T93 24T100 50V50Q100 64 94 75T76 93T50 100V100ZM50 40Q36 40 25 34T7 16T0 -10V-10Q0 -24 6 -35T24 -53T50 -60V-60Q64 -60 75 -54T93 -36T100
-10V-10Q100 4 94 15T76 33T50 40V40Z" />
<glyph unicode="d" d="M0 50H100V10H0V50ZM50 100Q36 100 25 94T7 76T0 50V50Q0 36 6 25T24 7T50 0V0Q64 0 75 6T93 24T100 50V50Q100 64 94 75T76 93T50 100V100ZM50 60Q36 60 25 54T7 36T0 10V10Q0 -4 6 -15T24 -33T50 -40V-40Q64 -40 75 -34T93 -16T100 10V10Q100
24 94 35T76 53T50 60V60Z" />
<glyph unicode="e" d="M0 50H100V30H0V50ZM50 100Q36 100 25 94T7 76T0 50V50Q0 36 6 25T24 7T50 0V0Q64 0 75 6T93 24T100 50V50Q100 64 94 75T76 93T50 100V100ZM50 80Q36 80 25 74T7 56T0 30V30Q0 16 6 5T24 -13T50 -20V-20Q64 -20 75 -14T93 4T100 30V30Q100
44 94 55T76 73T50 80V80Z" />
<glyph unicode="f" d="M0 50H100V50H0V50ZM50 100Q36 100 25 94T7 76T0 50V50Q0 36 6 25T24 7T50 0V0Q64 0 75 6T93 24T100 50V50Q100 64 94 75T76 93T50 100V100ZM50 100Q36 100 25 94T7 76T0 50V50Q0 36 6 25T24 7T50 0V0Q64 0 75 6T93 24T100 50V50Q100 64
94 75T76 93T50 100V100Z" />
<glyph unicode="g" d="M0 50H100V70H0V50ZM50 100Q36 100 25 94T7 76T0 50V50Q0 36 6 25T24 7T50 0V0Q64 0 75 6T93 24T100 50V50Q100 64 94 75T76 93T50 100V100ZM50 120Q36 120 25 114T7 96T0 70V70Q0 56 6 45T24 27T50 20V20Q64 20 75 26T93 44T100 70V70Q100
84 94 95T76 113T50 120V120Z" />
<glyph unicode="h" d="M0 50H100V90H0V50ZM50 100Q36 100 25 94T7 76T0 50V50Q0 36 6 25T24 7T50 0V0Q64 0 75 6T93 24T100 50V50Q100 64 94 75T76 93T50 100V100ZM50 140Q36 140 25 134T7 116T0 90V90Q0 76 6 65T24 47T50 40V40Q64 40 75 46T93 64T100 90V90Q100
104 94 115T76 133T50 140V140Z" />
<glyph unicode="i" d="M0 50H100V110H0V50ZM50 100Q36 100 25 94T7 76T0 50V50Q0 36 6 25T24 7T50 0V0Q64 0 75 6T93 24T100 50V50Q100 64 94 75T76 93T50 100V100ZM50 160Q36 160 25 154T7 136T0 110V110Q0 96 6 85T24 67T50 60V60Q64 60 75 66T93 84T100 110V110Q100
124 94 135T76 153T50 160V160Z" />
<glyph unicode="j" d="M0 50H100V130H0V50ZM50 100Q36 100 25 94T7 76T0 50V50Q0 36 6 25T24 7T50 0V0Q64 0 75 6T93 24T100 50V50Q100 64 94 75T76 93T50 100V100ZM50 180Q36 180 25 174T7 156T0 130V130Q0 116 6 105T24 87T50 80V80Q64 80 75 86T93 104T100
130V130Q100 144 94 155T76 173T50 180V180Z" />
<glyph unicode="k" d="M0 50H100V150H0V50ZM50 100Q36 100 25 94T7 76T0 50V50Q0 36 6 25T24 7T50 0V0Q64 0 75 6T93 24T100 50V50Q100 64 94 75T76 93T50 100V100ZM50 200Q36 200 25 194T7 176T0 150V150Q0 136 6 125T24 107T50 100V100Q64 100 75 106T93 124T100
150V150Q100 164 94 175T76 193T50 200V200Z" />
<glyph unicode="l" d="M0 50H100V170H0V50ZM50 100Q36 100 25 94T7 76T0 50V50Q0 36 6 25T24 7T50 0V0Q64 0 75 6T93 24T100 50V50Q100 64 94 75T76 93T50 100V100ZM50 220Q36 220 25 214T7 196T0 170V170Q0 156 6 145T24 127T50 120V120Q64 120 75 126T93 144T100
170V170Q100 184 94 195T76 213T50 220V220Z" />
<glyph unicode="m" d="M0 50H100V190H0V50ZM50 100Q36 100 25 94T7 76T0 50V50Q0 36 6 25T24 7T50 0V0Q64 0 75 6T93 24T100 50V50Q100 64 94 75T76 93T50 100V100ZM50 240Q36 240 25 234T7 216T0 190V190Q0 176 6 165T24 147T50 140V140Q64 140 75 146T93 164T100
190V190Q100 204 94 215T76 233T50 240V240Z" />
<glyph unicode="n" d="M0 50H100V210H0V50ZM50 100Q36 100 25 94T7 76T0 50V50Q0 36 6 25T24 7T50 0V0Q64 0 75 6T93 24T100 50V50Q100 64 94 75T76 93T50 100V100ZM50 260Q36 260 25 254T7 236T0 210V210Q0 196 6 185T24 167T50 160V160Q64 160 75 166T93 184T100
210V210Q100 224 94 235T76 253T50 260V260Z" />
<glyph unicode="o" d="M0 50H100V230H0V50ZM50 100Q36 100 25 94T7 76T0 50V50Q0 36 6 25T24 7T50 0V0Q64 0 75 6T93 24T100 50V50Q100 64 94 75T76 93T50 100V100ZM50 280Q36 280 25 274T7 256T0 230V230Q0 216 6 205T24 187T50 180V180Q64 180 75 186T93 204T100
230V230Q100 244 94 255T76 273T50 280V280Z" />
<glyph unicode="p" d="M0 50H100V250H0V50ZM50 100Q36 100 25 94T7 76T0 50V50Q0 36 6 25T24 7T50 0V0Q64 0 75 6T93 24T100 50V50Q100 64 94 75T76 93T50 100V100ZM50 300Q36 300 25 294T7 276T0 250V250Q0 236 6 225T24 207T50 200V200Q64 200 75 206T93 224T100
250V250Q100 264 94 275T76 293T50 300V300Z" />
<glyph unicode="q" d="M0 50H100V270H0V50ZM50 100Q36 100 25 94T7 76T0 50V50Q0 36 6 25T24 7T50 0V0Q64 0 75 6T93 24T100 50V50Q100 64 94 75T76 93T50 100V100ZM50 320Q36 320 25 314T7 296T0 270V270Q0 256 6 245T24 227T50 220V220Q64 220 75 226T93 244T100
270V270Q100 284 94 295T76 313T50 320V320Z" />
<glyph unicode="r" d="M0 50H100V290H0V50ZM50 100Q36 100 25 94T7 76T0 50V50Q0 36 6 25T24 7T50 0V0Q64 0 75 6T93 24T100 50V50Q100 64 94 75T76 93T50 100V100ZM50 340Q36 340 25 334T7 316T0 290V290Q0 276 6 265T24 247T50 240V240Q64 240 75 246T93 264T100
290V290Q100 304 94 315T76 333T50 340V340Z" />
<glyph unicode="s" d="M0 50H100V310H0V50ZM50 100Q36 100 25 94T7 76T0 50V50Q0 36 6 25T24 7T50 0V0Q64 0 75 6T93 24T100 50V50Q100 64 94 75T76 93T50 100V100ZM50 360Q36 360 25 354T7 336T0 310V310Q0 296 6 285T24 267T50 260V260Q64 260 75 266T93 284T100
310V310Q100 324 94 335T76 353T50 360V360Z" />
<glyph unicode="t" d="M0 50H100V330H0V50ZM50 100Q36 100 25 94T7 76T0 50V50Q0 36 6 25T24 7T50 0V0Q64 0 75 6T93 24T100 50V50Q100 64 94 75T76 93T50 100V100ZM50 380Q36 380 25 374T7 356T0 330V330Q0 316 6 305T24 287T50 280V280Q64 280 75 286T93 304T100
330V330Q100 344 94 355T76 373T50 380V380Z" />
<glyph unicode="u" d="M0 50H100V350H0V50ZM50 100Q36 100 25 94T7 76T0 50V50Q0 36 6 25T24 7T50 0V0Q64 0 75 6T93 24T100 50V50Q100 64 94 75T76 93T50 100V100ZM50 400Q36 400 25 394T7 376T0 350V350Q0 336 6 325T24 307T50 300V300Q64 300 75 306T93 324T100
350V350Q100 364 94 375T76 393T50 400V400Z" />
<glyph unicode="v" d="M0 50H100V370H0V50ZM50 100Q36 100 25 94T7 76T0 50V50Q0 36 6 25T24 7T50 0V0Q64 0 75 6T93 24T100 50V50Q100 64 94 75T76 93T50 100V100ZM50 420Q36 420 25 414T7 396T0 370V370Q0 356 6 345T24 327T50 320V320Q64 320 75 326T93 344T100
370V370Q100 384 94 395T76 413T50 420V420Z" />
<glyph unicode="w" d="M0 50H100V390H0V50ZM50 100Q36 100 25 94T7 76T0 50V50Q0 36 6 25T24 7T50 0V0Q64 0 75 6T93 24T100 50V50Q100 64 94 75T76 93T50 100V100ZM50 440Q36 440 25 434T7 416T0 390V390Q0 376 6 365T24 347T50 340V340Q64 340 75 346T93 364T100
390V390Q100 404 94 415T76 433T50 440V440Z" />
<glyph unicode="x" d="M0 50H100V410H0V50ZM50 100Q36 100 25 94T7 76T0 50V50Q0 36 6 25T24 7T50 0V0Q64 0 75 6T93 24T100 50V50Q100 64 94 75T76 93T50 100V100ZM50 460Q36 460 25 454T7 436T0 410V410Q0 396 6 385T24 367T50 360V360Q64 360 75 366T93 384T100
410V410Q100 424 94 435T76 453T50 460V460Z" />
<glyph unicode="y" d="M0 50H100V430H0V50ZM50 100Q36 100 25 94T7 76T0 50V50Q0 36 6 25T24 7T50 0V0Q64 0 75 6T93 24T100 50V50Q100 64 94 75T76 93T50 100V100ZM50 480Q36 480 25 474T7 456T0 430V430Q0 416 6 405T24 387T50 380V380Q64 380 75 386T93 404T100
430V430Q100 444 94 455T76 473T50 480V480Z" />
<glyph unicode="z" d="M0 50H100V450H0V50ZM50 100Q36 100 25 94T7 76T0 50V50Q0 36 6 25T24 7T50 0V0Q64 0 75 6T93 24T100 50V50Q100 64 94 75T76 93T50 100V100ZM50 500Q36 500 25 494T7 476T0 450V450Q0 436 6 425T24 407T50 400V400Q64 400 75 406T93 424T100
450V450Q100 464 94 475T76 493T50 500V500Z" />
<glyph unicode="{" />
<glyph unicode="|" d="M0 50H100V950H0V50ZM50 100Q36 100 25 94T7 76T0 50V50Q0 36 6 25T24 7T50 0V0Q64 0 75 6T93 24T100 50V50Q100 64 94 75T76 93T50 100V100ZM50 1000Q36 1000 25 994T7 976T0 950V950Q0 936 6 925T24 907T50 900V900Q64 900 75 906T93 924T100
950V950Q100 964 94 975T76 993T50 1000V1000Z" />
<glyph unicode="}" />
<glyph unicode="~" />
<glyph unicode="&#xa0;" />
<glyph unicode="&#xa1;" />
<glyph unicode="&#xa2;" />
<glyph unicode="&#xa3;" />
<glyph unicode="&#xa5;" />
<glyph unicode="&#xa7;" />
<glyph unicode="&#xa8;" />
<glyph unicode="&#xa9;" />
<glyph unicode="&#xaa;" />
<glyph unicode="&#xab;" />
<glyph unicode="&#xae;" />
<glyph unicode="&#xaf;" />
<glyph unicode="&#xb0;" />
<glyph unicode="&#xb4;" />
<glyph unicode="&#xb6;" />
<glyph unicode="&#xb7;" />
<glyph unicode="&#xb8;" />
<glyph unicode="&#xba;" />
<glyph unicode="&#xbb;" />
<glyph unicode="&#xbf;" />
<glyph unicode="&#xc0;" />
<glyph unicode="&#xc1;" />
<glyph unicode="&#xc2;" />
<glyph unicode="&#xc3;" />
<glyph unicode="&#xc4;" />
<glyph unicode="&#xc5;" />
<glyph unicode="&#xc6;" />
<glyph unicode="&#xc7;" />
<glyph unicode="&#xc8;" />
<glyph unicode="&#xc9;" />
<glyph unicode="&#xca;" />
<glyph unicode="&#xcb;" />
<glyph unicode="&#xcc;" />
<glyph unicode="&#xcd;" />
<glyph unicode="&#xce;" />
<glyph unicode="&#xcf;" />
<glyph unicode="&#xd0;" />
<glyph unicode="&#xd1;" />
<glyph unicode="&#xd2;" />
<glyph unicode="&#xd3;" />
<glyph unicode="&#xd4;" />
<glyph unicode="&#xd5;" />
<glyph unicode="&#xd6;" />
<glyph unicode="&#xd7;" />
<glyph unicode="&#xd8;" />
<glyph unicode="&#xd9;" />
<glyph unicode="&#xda;" />
<glyph unicode="&#xdb;" />
<glyph unicode="&#xdc;" />
<glyph unicode="&#xdd;" />
<glyph unicode="&#xde;" />
<glyph unicode="&#xdf;" />
<glyph unicode="&#xe0;" />
<glyph unicode="&#xe1;" />
<glyph unicode="&#xe2;" />
<glyph unicode="&#xe3;" />
<glyph unicode="&#xe4;" />
<glyph unicode="&#xe5;" />
<glyph unicode="&#xe6;" />
<glyph unicode="&#xe7;" />
<glyph unicode="&#xe8;" />
<glyph unicode="&#xe9;" />
<glyph unicode="&#xea;" />
<glyph unicode="&#xeb;" />
<glyph unicode="&#xec;" />
<glyph unicode="&#xed;" />
<glyph unicode="&#xee;" />
<glyph unicode="&#xef;" />
<glyph unicode="&#xf0;" />
<glyph unicode="&#xf1;" />
<glyph unicode="&#xf2;" />
<glyph unicode="&#xf3;" />
<glyph unicode="&#xf4;" />
<glyph unicode="&#xf5;" />
<glyph unicode="&#xf6;" />
<glyph unicode="&#xf7;" />
<glyph unicode="&#xf8;" />
<glyph unicode="&#xf9;" />
<glyph unicode="&#xfa;" />
<glyph unicode="&#xfb;" />
<glyph unicode="&#xfc;" />
<glyph unicode="&#xfd;" />
<glyph unicode="&#xfe;" />
<glyph unicode="&#xff;" />
<glyph unicode="&#x2013;" d="M0 50H100V-40H0V50ZM50 100Q36 100 25 94T7 76T0 50V50Q0 36 6 25T24 7T50 0V0Q64 0 75 6T93 24T100 50V50Q100 64 94 75T76 93T50 100V100ZM50 10Q36 10 25 4T7 -14T0 -40V-40Q0 -54 6 -65T24 -83T50 -90V-90Q64 -90 75 -84T93
-66T100 -40V-40Q100 -26 94 -15T76 3T50 10V10Z" />
<glyph unicode="&#x2014;" d="M0 50H100V-40H0V50ZM50 100Q36 100 25 94T7 76T0 50V50Q0 36 6 25T24 7T50 0V0Q64 0 75 6T93 24T100 50V50Q100 64 94 75T76 93T50 100V100ZM50 10Q36 10 25 4T7 -14T0 -40V-40Q0 -54 6 -65T24 -83T50 -90V-90Q64 -90 75 -84T93
-66T100 -40V-40Q100 -26 94 -15T76 3T50 10V10Z" />
<glyph unicode="&#x2018;" />
<glyph unicode="&#x2019;" />
<glyph unicode="&#x201a;" />
<glyph unicode="&#x201c;" />
<glyph unicode="&#x201d;" />
<glyph unicode="&#x201e;" />
<glyph unicode="&#x2022;" />
<glyph unicode="&#x2039;" />
<glyph unicode="&#x203a;" />
</font>
</defs>
</svg>
