<?xml version="1.0" standalone="no"?>
<!DOCTYPE svg PUBLIC "-//W3C//DTD SVG 1.1//EN" "http://www.w3.org/Graphics/SVG/1.1/DTD/svg11.dtd">
<svg xmlns="http://www.w3.org/2000/svg">
<defs >
<font id="Mansalva" horiz-adv-x="584" ><font-face
    font-family="Mansalva"
    units-per-em="1000"
    panose-1="0 0 0 0 0 0 0 0 0 0"
    ascent="1112"
    descent="-466"
    alphabetic="0" />
<glyph unicode=" " glyph-name="space" horiz-adv-x="250" />
<glyph unicode="!" glyph-name="exclam" horiz-adv-x="337" d="M130 110Q123 110 118 114Q112 120 108 132T103 155Q105 172 108 191T116 232Q168 446 175 626L176 641Q178 680 187 697T218 715Q230 715 242 704T265 676T277 642L287 566L281 530Q277 500 273
479T267 446Q260 417 248 369T219 252Q211 224 204 204T190 171Q183 156 173 143T150 117Q143 110 130 110ZM120 -34Q108 -34 96 -28Q50 -9 50 40Q50 59 55 77L83 71Q93 69 100 67T115 63Q123 61 130 57T145 47Q164 31 164 10Q164 -3 156 -14Q142 -34 120 -34Z"
/>
<glyph unicode="&quot;" glyph-name="quotedbl" horiz-adv-x="394" d="M73 391Q60 395 60 399Q60 422 65 443T81 501Q94 541 98 565L97 587Q96 629 94 641Q94 676 101 701Q102 705 120 709Q129 711 138 712T158 713Q178 713 190 709Q202 704 201 697Q200 691 200
687T199 678Q199 674 199 671T198 665Q197 653 195 641T190 614Q176 552 150 492T82 392Q78 389 73 391ZM222 391Q209 395 209 399Q209 444 224 511Q225 517 227 528T232 555L234 575Q236 613 239 644T250 701Q250 706 273 706Q299 706 322 700T344 681Q343 677
343 672T343 661Q343 654 344 651V644Q344 640 343 633T339 614Q333 589 330 572T321 536T298 491T252 420Q251 419 247 415T237 404Q223 390 222 391Z" />
<glyph unicode="#" glyph-name="numbersign" horiz-adv-x="752" d="M209 4Q202 4 190 9Q179 14 159 26Q160 33 162 55Q164 74 166 90T172 119Q177 136 184 162T201 222Q194 221 189 220T182 218Q169 215 156 215Q123 215 83 235Q60 249 60 262Q60 276 84 288Q101
296 117 297L228 318V319Q233 335 237 351T245 387L249 409Q246 408 237 408L196 402Q171 399 159 399Q124 399 95 411Q85 416 77 424T67 441Q66 446 77 452T101 461Q157 475 200 479L266 485Q268 496 278 539T308 658L324 725L353 726Q363 726 369 724Q415 714
415 686Q415 678 410 661Q406 646 401 629T391 593Q385 574 381 560T374 535L360 493L470 501L478 542Q481 556 485 583T493 630Q497 655 505 667Q513 679 523 676Q555 665 577 645Q587 635 587 608Q587 600 586 591T583 571L570 509L597 512Q601 513 607 513T622
513Q632 513 638 513T647 511Q669 506 675 495Q675 492 668 487T655 480L633 473L598 464Q587 460 577 458T556 453L533 350Q566 352 590 354T631 357Q658 357 671 351Q685 345 690 329Q691 325 685 319T672 310L640 301Q627 297 615 294T590 288L515 275Q510 253
501 219T481 141Q469 92 454 59T416 11Q400 0 392 0Q383 0 383 27L385 55L389 92L423 260L293 238L291 223L241 50Q234 26 227 14Q220 4 209 4ZM318 332L406 343L441 344L456 429Q457 431 457 433T458 437L341 422L323 350L318 332Z" />
<glyph unicode="$" glyph-name="dollar" horiz-adv-x="545" d="M298 -157Q265 -157 260 -146T253 -102Q253 -76 252 -59T250 -28L246 24Q246 51 234 54Q221 55 203 60Q195 62 188 64T173 71Q166 75 154 82T123 99Q120 100 118 119Q116 139 116 139Q120 140 128
142T142 143Q163 136 177 134T199 132Q222 136 230 142T238 160T239 186Q239 198 238 201Q238 205 238 210T239 221V239Q239 257 232 265T195 268L169 265Q156 264 140 268T102 292Q80 312 68 331T52 373Q44 433 86 478Q124 519 183 538Q225 559 227 570L222 632V653Q222
657 222 661T223 672Q223 677 223 684T222 700L221 722Q220 739 224 749T247 764Q254 765 258 765T266 766Q295 766 307 730Q315 703 315 682Q313 659 315 630Q316 603 320 595T356 592Q409 600 464 555Q478 546 478 532Q478 519 463 508Q451 500 445 497T431 491T408
484Q405 483 394 483L352 486L324 489Q320 452 318 430T316 401Q316 391 323 387Q329 382 390 375Q407 371 428 363T464 344Q478 335 485 320T495 286Q500 253 482 225Q445 145 381 107L346 86Q336 79 337 68L338 51Q339 35 339 17T339 -24V-99Q339 -157 298 -157ZM194
339Q209 339 221 344T234 358Q235 363 235 369T236 382Q236 409 233 440Q230 471 224 471Q192 460 172 445T152 407Q152 405 152 401T154 392Q152 370 163 355T194 339ZM325 163Q369 183 389 223T408 300Q379 308 366 308Q310 325 315 268Q317 240 320 214T325
163Z" />
<glyph unicode="%" glyph-name="percent" horiz-adv-x="774" d="M309 539L306 548Q302 547 290 547Q251 547 225 567T185 620T169 692Q168 725 180 754Q197 793 239 826Q247 833 274 833H308Q332 833 355 819T398 782T425 734Q432 713 435 696T438 664Q437 612
392 575Q376 562 334 548L309 539ZM276 607Q284 607 294 613Q327 631 339 660T356 741Q354 754 343 771Q329 790 276 815Q257 815 241 804T226 778Q231 746 239 708T258 626Q262 607 276 607ZM88 94Q81 99 72 103Q63 107 61 112Q60 114 60 120Q60 135 67 145L89
173Q135 232 170 273T231 340Q311 429 376 498T491 619Q496 624 501 630T514 646Q536 674 554 688T600 706Q607 707 613 707T624 708Q647 708 663 700Q683 693 683 674Q683 662 671 648Q601 572 524 495Q507 477 482 451T427 394T370 335T317 282Q269 234 165 145L137
121Q128 114 113 106T88 94ZM604 76Q594 76 583 77T559 80Q515 91 485 130T455 219Q455 257 476 291Q484 302 494 312Q503 320 534 343Q537 346 544 346Q552 346 553 343Q562 329 574 325T602 321H617Q664 321 694 281T724 182Q724 128 690 102T604 76ZM603 133Q642
165 642 205Q642 232 625 258T574 302Q548 273 548 232Q548 203 562 176T603 133Z" />
<glyph unicode="&amp;" glyph-name="ampersand" horiz-adv-x="701" d="M606 -65Q599 -65 590 -62Q562 -55 562 -33Q562 -25 563 -23Q564 -21 564 -13Q564 8 552 33T522 80T483 111Q470 116 466 116Q458 116 453 112T436 96L416 76Q389 49 370 33T329 6Q292 -11
256 -11Q216 -11 181 7T123 57T93 131Q91 139 90 147T89 162Q89 237 150 310Q164 329 164 337Q164 347 147 364Q111 397 91 432T70 511Q70 563 104 616Q139 669 291 697Q337 697 365 678Q390 661 407 622T424 548Q424 544 424 540T422 530Q405 440 345 385Q322
365 322 347Q322 329 345 312Q359 301 382 284T437 244L448 270L455 288Q457 292 460 299T469 320Q474 333 478 345T486 368Q496 411 535 411Q573 411 573 377Q573 366 570 355Q558 315 548 283T527 227Q519 209 519 200Q519 185 543 170Q651 109 651 -7Q651 -33
639 -49T606 -65ZM241 407Q251 407 268 427Q274 439 279 449T288 470Q296 490 303 503L317 550Q317 594 304 613T270 633Q241 627 217 606Q173 567 173 514Q171 466 205 427Q217 407 241 407ZM250 64Q266 64 296 75Q313 92 330 114T367 163Q369 165 369 172Q369
178 367 184T361 193Q339 210 322 223Q314 230 306 234T291 242L233 270Q194 218 194 154Q194 147 195 137T198 112Q202 91 217 78T250 64Z" />
<glyph unicode="&apos;" glyph-name="quotesingle" horiz-adv-x="218" d="M79 455Q77 454 68 462T60 476Q63 522 67 567T76 659Q77 667 85 672T94 679Q131 688 152 670T167 622Q158 588 149 554T125 488Q121 477 107 470T79 455Z" />
<glyph unicode="(" glyph-name="parenleft" horiz-adv-x="429" d="M328 -124Q257 -124 184 -74Q139 -43 113 -17T75 49Q61 100 60 131Q60 135 60 140T62 154Q101 402 262 575Q270 586 280 593L331 632Q349 627 366 614T391 579Q394 573 394 567Q394 550 375 535Q288
466 238 369Q205 306 184 251T150 138Q147 125 146 106T146 62Q173 14 205 -9Q225 -21 251 -34T310 -62L343 -77L381 -102Q374 -115 357 -119T328 -124Z" />
<glyph unicode=")" glyph-name="parenright" horiz-adv-x="356" d="M81 -120L155 0Q190 58 208 116T225 236Q225 335 177 435Q166 456 149 478Q130 498 124 506Q115 518 105 528Q79 562 80 559Q74 568 68 580T60 609Q97 609 118 606T151 589L179 555Q210 518 230
492T261 451Q284 415 293 368T310 256L313 233Q314 220 314 211T315 194Q315 84 244 -41Q222 -79 183 -97T81 -120Z" />
<glyph unicode="*" glyph-name="asterisk" horiz-adv-x="622" d="M338 -34L289 144Q285 138 282 133T276 123Q270 112 266 107L241 67Q228 46 196 46Q175 46 155 58Q136 71 136 89Q136 103 147 120Q151 125 155 132T163 147Q167 155 169 160T173 168L186 194Q173
192 166 191T158 190H137Q104 190 86 195Q60 203 60 223Q60 237 77 251Q125 287 179 314L197 326Q202 331 202 336Q202 344 185 358Q157 381 131 405T81 454Q76 459 73 468T70 487Q70 490 72 496Q80 504 93 508T117 511Q149 504 173 484T221 431L243 405L254 409Q251
440 250 464T247 504Q247 534 257 538Q269 543 281 543Q293 543 297 539Q311 524 326 506T357 465L374 443L420 501Q422 503 425 507T433 517Q441 528 450 534Q461 541 479 549L500 557Q501 550 502 541T503 519Q503 515 503 511T501 502Q497 488 490 470T473 432L465
413H507Q520 413 529 413T546 412Q553 412 560 408Q564 406 567 404T572 401Q571 397 566 389Q561 381 557 378Q550 374 532 364T485 338L440 313L409 295Q416 290 427 283T453 267Q492 244 515 225T553 175Q544 163 532 163Q524 163 514 170Q509 174 505 176T498
180L396 232L392 195Q387 137 381 85T370 -15Q369 -19 358 -24Q352 -27 347 -29T338 -34Z" />
<glyph unicode="+" glyph-name="plus" horiz-adv-x="673" d="M242 -34Q224 -34 226 -4Q228 15 232 45T243 116L249 154L254 188Q221 188 196 169Q173 153 143 153Q128 153 98 161Q60 172 60 206Q60 224 81 242Q113 269 151 285T240 315Q256 319 263 321T276 332T286
367Q287 373 287 382T288 405L287 463Q287 465 287 469T285 477Q284 481 284 484T283 490Q285 510 295 522T321 534Q332 534 340 530Q402 507 408 450Q409 445 409 438T409 420L408 359L424 355Q436 352 442 353Q486 356 518 359T571 364L584 365Q623 365 623 341Q623
329 612 312T585 280T550 255L495 246Q470 242 452 240T422 236Q399 233 388 223T370 191Q353 135 339 93T314 24Q303 1 263 -26Q250 -34 242 -34Z" />
<glyph unicode="," glyph-name="comma" horiz-adv-x="330" d="M94 -208Q60 -212 60 -199Q59 -185 60 -184Q76 -153 90 -86L120 12L158 98Q163 106 180 109T216 111T249 101T260 81Q254 48 221 -35Q187 -119 94 -208Z" />
<glyph unicode="-" glyph-name="hyphen" horiz-adv-x="621" d="M174 199Q124 199 80 233Q60 247 60 264Q60 283 89 297Q102 302 115 306T141 311L189 314Q296 323 364 323Q418 323 463 312T547 272Q559 263 565 256T571 239Q571 228 564 218Q547 215 545 216Q523
221 497 224T439 227Q415 227 387 226T324 220L284 217Q274 216 260 214T228 207L196 201Q189 200 184 200T174 199Z" />
<glyph unicode="." glyph-name="period" horiz-adv-x="234" d="M126 -34Q103 -33 82 -12T60 34Q60 46 67 55T89 73L98 79L107 88Q114 95 133 102Q142 102 152 95Q165 87 174 67T184 28Q184 26 184 23T182 16Q176 -4 160 -19T126 -34Z" />
<glyph unicode="/" glyph-name="slash" horiz-adv-x="436" d="M127 -80Q107 -80 60 -50L65 -10Q69 17 72 37T78 71Q95 139 120 221L153 337Q166 387 177 444Q180 459 185 481T197 534L244 738Q252 773 257 796T266 830Q271 830 276 830T286 831Q291 832 295 832T304
832Q316 832 326 829Q357 822 371 811T386 777Q386 768 381 746L353 651Q340 607 329 570T309 502Q303 478 294 442T272 356L234 210L231 199Q230 195 229 192T227 185Q223 169 213 134T191 57T169 -19Q159 -53 150 -66Q141 -80 127 -80Z" />
<glyph unicode="0" glyph-name="zero" horiz-adv-x="564" d="M257 -35Q227 -35 195 -23Q150 -6 118 32T74 120Q67 150 64 177T60 228Q60 324 115 395Q135 424 169 462T238 528Q307 585 399 590H402Q417 590 432 583T473 563Q477 560 481 548T483 528Q482 527 465
519L453 514L444 512L434 511L419 508L429 496Q434 489 439 482T449 469Q462 452 470 440T483 420Q512 368 514 309Q514 266 500 224T460 131Q416 42 363 2Q314 -35 257 -35ZM220 53Q236 53 253 61T283 82Q404 203 413 421V422L412 428Q412 438 411 441Q410 484
392 495Q386 497 382 497Q368 497 344 479Q325 466 305 449T261 409Q167 315 162 176Q160 153 165 127Q168 106 180 83T207 55Q210 54 213 54T220 53Z" />
<glyph unicode="1" glyph-name="one" horiz-adv-x="469" d="M353 -3Q322 -4 304 2T283 34Q282 46 281 64T279 106Q278 144 278 200T281 333Q282 385 282 423T283 488Q283 494 282 497Q281 499 281 502T281 507Q280 508 279 508T275 509L267 512Q231 472 207 443T168
393Q161 383 154 372T140 350Q130 336 114 327T84 326T61 371Q57 386 77 408L149 502L247 632Q267 656 293 656Q310 656 329 650T353 642Q369 637 374 627T379 600V578Q379 551 379 528T377 485Q376 466 375 450T373 420L367 262Q366 249 366 229T366 181V40Q366
29 361 14T353 -3Z" />
<glyph unicode="2" glyph-name="two" horiz-adv-x="624" d="M294 -31Q213 -31 114 14Q111 16 111 22Q111 41 137 102Q163 161 217 253Q221 259 229 275T251 317Q265 343 280 376T313 450Q315 469 307 485T285 501Q274 501 263 493Q253 484 229 450L213 428L198
411Q171 381 152 364T115 347Q108 347 100 352Q60 377 60 406Q60 437 90 471Q105 488 139 511T227 565Q263 578 295 578Q321 578 342 573T383 544T426 466Q426 444 414 421Q403 399 396 386T387 369Q305 203 216 39Q282 43 334 52T448 82Q453 84 469 91T507 105T544
112Q564 112 572 98L574 89Q574 76 557 62T514 33T459 8T404 -13Q350 -31 294 -31Z" />
<glyph unicode="3" glyph-name="three" horiz-adv-x="457" d="M211 -61Q171 -61 103 -28L121 -20Q126 -18 130 -17T136 -15Q180 -10 208 18T254 91Q295 190 295 276Q295 283 295 292T293 314Q287 360 263 360Q252 360 233 347L145 283Q132 275 121 275Q110 275
101 280T77 296Q76 296 76 300Q76 309 87 326L134 399L180 471Q187 479 191 501Q192 506 192 510T193 518Q193 538 172 538Q165 538 139 532Q108 523 91 523Q73 523 62 531Q61 535 61 538T60 544Q60 551 66 557Q69 559 78 565T104 579Q151 614 201 614Q242 614
273 591Q306 563 306 531Q306 508 289 479L274 458Q252 430 248 423Q278 419 301 416T343 400T376 359T407 274Q407 199 389 136T330 18Q299 -24 271 -42T211 -61Z" />
<glyph unicode="4" glyph-name="four" horiz-adv-x="592" d="M339 -126Q311 -133 309 -96L306 54L310 132L312 168Q313 174 313 179T313 190Q312 195 312 199T312 207L279 198Q244 191 191 174Q179 170 157 170Q122 170 94 185T61 226Q61 228 61 231T60 240Q57
268 76 306Q115 392 165 471T278 623Q286 633 302 637Q319 642 325 644Q336 647 365 647Q399 647 427 640T458 613Q460 602 461 589T462 559Q462 533 459 504Q458 490 454 470T445 421Q443 411 440 398T432 365Q431 361 429 351T426 331Q433 332 439 334T451 338Q453
339 457 340T469 343Q483 346 492 346Q525 346 542 308Q540 304 518 294Q502 286 492 281T474 274Q442 266 428 259T409 235T402 183L386 -31Q383 -77 371 -102Q368 -109 359 -116T339 -126ZM179 245Q211 256 244 266T311 286Q317 287 321 296T327 312Q340 394
348 467Q349 477 350 490T353 520L355 546Q210 410 159 247Q163 246 169 245T179 245Z" />
<glyph unicode="5" glyph-name="five" horiz-adv-x="700" d="M245 -13Q139 -13 60 54L61 61Q72 62 80 62T93 63Q106 65 118 66T141 67Q151 67 160 66T179 63Q184 62 190 62T205 61Q239 61 263 76T305 117Q332 149 332 187Q332 216 320 238Q300 286 271 316T192
354Q176 356 147 372Q116 388 114 397Q113 403 120 412Q123 416 128 421T140 434Q163 457 187 487T238 557Q258 587 281 600T340 614Q363 615 396 619T474 631Q514 637 539 640T575 645Q607 648 615 648L679 642Q684 641 687 633T690 614Q690 602 686 591T674 576Q667
574 658 572T638 568L581 561Q522 554 474 547T388 531Q378 530 346 499Q314 467 277 402Q278 401 284 397T302 383Q317 370 330 360T353 342Q359 338 365 334T378 324Q442 273 442 204Q442 159 417 108Q392 57 363 26T289 -10Q267 -13 245 -13Z" />
<glyph unicode="6" glyph-name="six" horiz-adv-x="547" d="M338 -6Q329 -6 323 -6T311 -5Q260 1 200 36Q139 71 60 237Q60 242 60 246T61 255Q71 445 222 606Q237 622 260 629T309 637Q348 637 367 622Q374 616 379 607T388 583Q389 579 382 571T369 563Q336
563 311 549Q287 534 238 458Q237 456 236 454T234 449Q233 447 231 444T227 438Q201 390 186 348T171 261Q172 201 195 151Q206 127 212 127Q215 127 223 138Q229 149 235 156Q253 180 268 193T303 222Q327 240 361 240Q394 240 425 225Q457 208 497 128Q497 102
483 74T448 29Q402 -7 338 -6ZM320 73Q350 73 376 89T402 126Q402 135 396 145Q381 169 362 169Q355 169 345 164Q330 156 321 151T303 131T283 82Q297 73 320 73Z" />
<glyph unicode="7" glyph-name="seven" horiz-adv-x="611" d="M301 -32Q278 -32 270 -20Q266 -13 264 -4T260 17Q259 31 265 47Q276 75 290 114T323 203L347 263Q357 287 365 311T381 358Q389 381 408 421Q410 425 417 440T432 475T443 508Q444 511 444 520Q444
536 434 543T407 550Q382 549 330 545T195 534Q182 533 173 533T159 532Q126 532 105 547T60 606Q77 608 90 610T111 613L151 617Q180 619 204 623Q284 637 448 632Q487 631 514 623Q561 609 561 575Q561 558 547 528Q536 506 527 485T509 440Q501 418 490 390T464
328Q454 305 444 274T423 204Q418 187 414 172T404 142L395 115Q385 84 377 60T360 19Q340 -22 319 -29Q310 -32 301 -32Z" />
<glyph unicode="8" glyph-name="eight" horiz-adv-x="548" d="M261 2Q210 2 164 27Q117 51 60 177Q60 181 60 186T62 198Q64 231 70 257T90 315T127 390L143 420Q145 425 154 434L167 450Q139 459 122 470T94 502Q77 531 77 560Q77 583 86 603T113 657Q153 704
193 727T283 753Q298 754 316 752T354 742Q383 733 408 710T455 666Q459 662 459 649Q459 633 454 611T439 569T420 540Q413 534 407 529T394 519Q382 510 382 506Q382 504 396 490Q403 483 409 476T421 461Q435 448 445 423T462 369T468 317Q468 291 465 269T454
217T431 139Q410 77 365 40T261 2ZM215 512Q225 512 233 516Q315 550 360 640Q364 647 364 658Q364 670 355 678T331 686Q291 686 260 667Q229 648 191 544Q191 512 215 512ZM238 73Q256 73 270 88T295 124Q323 183 340 225T366 312Q368 338 360 376T325 477Q277
446 252 426T207 377Q171 322 171 231Q171 215 172 197T176 158Q179 134 191 111T219 78Q231 73 238 73Z" />
<glyph unicode="9" glyph-name="nine" horiz-adv-x="523" d="M401 -48Q351 -48 339 -7Q326 43 319 72T311 132V166Q311 198 313 244T319 352Q320 360 320 365T318 375Q315 381 307 381Q300 381 291 378Q286 377 278 374T256 366Q231 357 209 357Q181 357 151 372T98
411T65 462Q60 477 60 497Q60 537 87 577Q136 651 195 693T333 735Q374 735 408 720T466 674Q473 662 473 643Q473 633 470 630Q454 618 431 618Q423 618 419 620Q405 624 390 637T367 656Q324 659 276 636Q228 612 150 488Q149 485 149 475Q149 464 152 453T161
435Q169 429 186 429Q201 429 213 433Q288 457 359 538Q370 552 394 552Q421 552 443 537Q460 526 460 511Q460 505 454 485Q405 316 405 171Q405 124 410 78T425 -14L427 -28Q427 -48 401 -48Z" />
<glyph unicode=":" glyph-name="colon" horiz-adv-x="267" d="M177 247Q170 246 165 247T154 251Q138 259 122 277T96 319T85 361Q85 370 87 376Q89 385 99 392L113 402Q133 401 158 381Q182 362 217 293Q217 272 206 260T177 247ZM170 27Q149 27 133 43Q111 65
94 85T64 125Q60 130 60 140Q60 144 60 148T62 157Q63 162 63 166T63 174L80 185L114 163Q139 147 158 135T190 114Q203 105 209 93T215 67Q215 49 203 40Q187 27 170 27Z" />
<glyph unicode=";" glyph-name="semicolon" horiz-adv-x="230" d="M155 172Q141 169 125 172T99 185Q83 201 75 238Q70 258 72 273L95 278L112 281Q117 282 122 283T133 286Q150 292 162 285T178 265Q184 226 173 185Q172 175 155 172ZM60 -267V-244Q60 -237 60
-231T62 -220Q82 -122 86 -11L84 2Q83 30 84 54T88 99Q93 128 113 133Q127 136 140 124Q165 101 169 77Q171 67 171 53T168 21Q164 -38 162 -68Q161 -93 156 -118T143 -168Q133 -202 114 -226T60 -267Z" />
<glyph unicode="&lt;" glyph-name="less" horiz-adv-x="668" d="M509 149Q420 149 335 174Q278 188 242 195T167 201Q146 200 129 209Q121 213 107 222T72 247Q60 255 60 269Q60 279 71 293L278 524L316 566Q348 600 367 620T392 648Q439 702 488 702Q516 702
549 687Q561 682 567 671T573 647Q573 624 557 609L532 590Q515 577 502 567T481 549Q442 512 400 470T311 381Q299 368 282 348T241 298L225 279Q286 259 331 245T415 224T496 217Q530 215 591 202Q599 200 606 195L618 186Q615 167 604 161T574 153Q558 151 542
150T509 149Z" />
<glyph unicode="=" glyph-name="equal" horiz-adv-x="644" d="M171 267Q122 267 87 295Q80 299 72 312Q68 317 65 321T60 328Q84 348 107 355T170 362Q272 362 477 374Q507 376 526 355T549 296L377 284Q341 281 294 277T189 268Q186 267 182 267T171 267ZM317
100Q267 101 227 111T151 146Q129 162 129 177Q129 186 136 196Q137 196 139 196T144 197Q149 199 153 197Q175 192 199 189T249 187Q297 189 369 196L390 197Q395 198 401 199T415 201L436 205Q470 213 491 213Q536 213 576 182Q594 169 594 154Q594 136 568 125Q555
120 543 117T520 112L497 110Q442 106 397 104T317 100Z" />
<glyph unicode="&gt;" glyph-name="greater" horiz-adv-x="563" d="M136 200Q116 200 97 208T68 229Q60 240 60 250Q60 268 83 285Q106 300 132 316T189 351Q215 365 274 385Q305 396 326 404T360 420Q351 428 305 463Q286 476 268 490T239 516Q208 551 152 627Q137
647 137 658Q137 668 147 675Q159 684 171 684Q189 684 205 666L248 633Q265 620 279 608T305 584Q319 574 334 562T366 536L415 496L453 468Q482 446 513 395Q513 367 458 343L377 311Q338 295 311 283T266 261L241 247Q233 243 225 238T208 228Q199 223 190 218T171
208Q157 200 136 200Z" />
<glyph unicode="?" glyph-name="question" horiz-adv-x="517" d="M101 270Q94 268 85 272T68 283Q60 291 60 300Q60 310 70 323Q105 366 131 397T174 449L219 502L304 606Q327 633 344 680Q349 697 349 708Q349 734 331 744Q321 750 304 750Q291 750 276 745Q250
736 216 705Q194 685 163 685Q144 685 128 693T101 718Q95 729 95 738Q95 754 109 768Q176 837 276 841Q398 828 456 723Q467 703 467 680Q467 659 460 642Q444 601 418 560T353 477L319 440Q273 388 240 356T168 298Q142 281 101 270ZM150 0Q111 -7 93 14T85 79L97
124Q104 158 138 144L188 123L230 79Q259 50 150 0Z" />
<glyph unicode="@" glyph-name="at" horiz-adv-x="731" d="M358 0L345 1Q163 25 85 195Q60 249 60 294Q60 331 76 364Q115 450 186 503Q214 523 246 542T317 579Q328 584 340 586T373 589L396 591Q508 595 597 499Q605 490 618 473T651 429Q681 389 681 322Q681
315 681 305T679 280L678 259Q676 239 659 217Q641 194 567 158Q553 156 543 155T525 154Q475 154 440 186Q438 188 433 188Q422 188 405 179Q373 162 344 162Q316 162 289 175Q259 188 242 212T225 264Q225 291 241 319Q260 351 282 372T338 404Q358 410 374 410Q416
410 452 377Q469 360 469 347Q469 338 460 327Q453 318 433 318Q409 318 398 330Q396 333 391 339T380 349Q368 355 359 351Q349 347 336 327T314 284T304 247Q304 220 321 220Q326 220 333 223Q365 239 381 258Q402 286 433 286Q449 286 464 276T488 248L494 236Q497
229 501 222Q509 207 521 207Q528 207 539 214Q598 255 598 320Q598 324 598 329T596 343Q587 410 557 459T469 538Q435 556 401 556Q357 556 313 527Q268 498 234 465T177 394Q158 363 148 336T138 282Q138 243 159 205Q161 201 166 193T178 172Q192 146 233 93Q287
42 370 39Q373 38 377 38T385 35Q392 31 399 29L389 17Q382 8 373 3Q367 0 358 0Z" />
<glyph unicode="A" glyph-name="A" horiz-adv-x="710" d="M618 -14L607 -12Q556 0 556 51Q556 60 557 63Q555 69 557 80Q558 89 558 97T555 113Q550 132 544 158T530 217Q524 244 505 244Q498 244 489 241Q458 231 435 224T393 211L345 197Q325 191 306 187T269
178Q235 169 215 137Q207 123 195 103T169 56Q150 22 119 22Q87 22 65 49Q50 66 50 82Q50 93 56 105L125 245Q182 361 216 430T261 523Q326 640 432 691Q456 702 479 702Q509 702 534 687T574 643Q594 601 603 536Q609 493 615 411L617 359Q618 217 655 100Q657
92 658 82T660 59Q660 52 660 43T658 21Q657 5 646 -4T618 -14ZM280 283Q348 295 406 305T513 322Q512 386 510 431T505 512T493 585Q444 576 413 533Q361 463 323 380Q320 373 314 359T297 322L280 283Z" />
<glyph unicode="B" glyph-name="B" horiz-adv-x="640" d="M298 -55Q249 -55 209 -21Q201 -14 192 -7T171 8Q170 5 169 2T167 -6Q164 -14 161 -19Q149 -37 131 -37Q115 -37 102 -24Q66 9 66 51Q66 83 65 107T63 147Q62 167 61 197T60 267Q60 305 62 339T68 403Q79
492 110 568Q134 626 181 659T294 698Q309 699 320 699T340 700Q414 700 464 668Q490 652 504 626T519 570Q519 547 508 520L498 500Q494 492 490 484T481 465Q479 460 471 447T449 410Q474 395 484 391Q537 371 563 331T590 241Q590 192 565 146Q504 32 365 -38Q329
-55 298 -55ZM257 28Q317 40 359 77T443 173Q474 221 482 259Q485 274 485 286Q485 313 471 327T431 341Q415 341 403 337Q357 323 311 280Q287 259 263 259Q249 259 232 268Q213 279 200 292T178 326L201 342Q219 355 232 364T256 379Q352 431 402 548Q407 562
411 591L414 613Q385 626 357 626Q332 626 314 619Q272 606 243 577Q215 549 165 430Q153 391 153 343Q153 330 154 311T157 267Q158 260 159 248T161 218Q162 205 164 177T172 107L176 74Q179 73 184 72T196 70Q213 69 225 62Q233 58 243 46L257 28Z" />
<glyph unicode="C" glyph-name="C" horiz-adv-x="724" d="M333 7Q239 13 182 42T97 117T59 216T50 324Q48 341 58 386T96 482Q157 593 288 637Q328 643 366 634T432 606T467 560Q468 554 468 550T469 544Q469 514 438 514Q433 514 429 514T421 515Q417 515 412
519Q384 535 356 535Q305 535 255 482Q170 394 170 270Q170 226 179 185Q198 96 283 96Q298 96 316 99Q348 103 370 108T411 123T453 148T508 190Q516 195 529 208T561 240L581 261Q605 285 621 285Q634 285 653 272Q674 257 674 234Q674 218 663 204Q660 198 641
172Q632 159 615 139T572 92Q471 18 421 12Q399 10 377 9T333 7Z" />
<glyph unicode="D" glyph-name="D" horiz-adv-x="759" d="M196 -48Q151 -48 111 -23Q96 -13 88 -3T80 22L81 31L88 83Q94 129 99 163T110 220L115 242Q135 329 148 391T169 506T182 615L186 633L161 655Q152 663 146 668T134 678Q138 705 154 716T196 733Q221
740 254 740Q284 740 315 734Q404 718 472 697T599 638Q619 625 636 611T668 579Q709 526 709 471Q709 423 678 374Q560 188 435 79Q397 45 355 18T267 -31Q231 -48 196 -48ZM201 42L214 47Q363 120 470 251Q513 306 542 355T587 458Q591 470 591 489Q591 520 576
545T533 583Q483 606 430 621T318 645Q308 646 286 643L264 640Q288 620 299 605T310 573Q310 571 310 568T308 559Q301 530 293 495T273 416L237 272Q225 223 215 178T195 90Q192 79 192 66T191 46Q199 42 201 42Z" />
<glyph unicode="E" glyph-name="E" horiz-adv-x="817" d="M477 -25Q388 -25 313 4Q184 53 148 177Q143 195 143 214V237Q143 271 110 287Q83 302 69 316T50 358L163 365L214 512Q215 516 216 520T219 530Q220 538 224 546Q233 566 233 579Q233 599 214 614Q208
618 203 633Q199 647 194 654L216 661Q233 666 239 668Q241 669 245 671T256 676Q270 681 271 688Q278 705 288 711T314 717Q319 717 326 717T344 715Q358 715 367 706Q391 682 418 674T484 666H611Q654 666 685 666T738 664Q749 663 763 658T794 645Q800 642 803
634T807 617Q807 613 800 608T787 600Q753 593 727 588T684 579Q657 575 617 572T522 566Q509 565 490 564T442 561Q439 561 428 564Q423 565 419 565T413 566Q376 566 366 535L315 376L314 372Q314 368 315 364T317 355Q321 354 327 354T341 354Q410 354 485 384Q507
392 520 392Q549 392 566 366Q575 353 575 342Q575 330 562 317Q521 282 477 275Q457 272 427 268T357 258L287 248Q271 215 271 180Q271 132 304 99T396 67Q425 68 463 70T547 75L562 76Q587 76 603 65T635 24Q624 0 604 -8T552 -21Q536 -23 517 -24T477 -25Z"
/>
<glyph unicode="F" glyph-name="F" horiz-adv-x="648" d="M149 -33Q132 -33 110 -20Q60 10 60 57Q60 68 61 71Q65 106 68 132T72 175Q75 204 80 248T93 352Q106 445 158 516T297 646Q383 705 467 721Q482 725 506 725Q572 725 619 675Q638 656 638 642Q638 638
633 626Q620 605 597 605Q589 605 580 608Q578 609 575 610T568 612Q564 613 561 614T556 616Q540 628 517 628Q488 637 450 617Q431 607 406 590T349 547Q332 534 318 520T290 490L266 445Q247 409 237 384T223 337T214 286Q221 286 234 286T260 287T277 288L334
300Q348 304 359 306T386 312T430 319Q449 322 471 323T500 324Q512 324 521 324T536 325Q553 325 560 319Q589 293 589 276Q589 264 580 259T552 248L459 228L265 175L256 172Q254 171 251 170T246 168Q225 164 214 162T197 147T188 98V58Q188 45 188 35T186 17Q180
-33 149 -33Z" />
<glyph unicode="G" glyph-name="G" horiz-adv-x="700" d="M285 17Q198 17 127 76Q92 106 74 140T52 219Q51 234 51 244T50 261Q50 290 50 313T53 364T66 427T95 515Q121 572 175 607T296 659T427 676Q469 676 506 670Q560 663 598 613Q574 577 535 576Q423 588
337 564T201 474T152 291Q152 253 161 194Q201 118 265 118Q317 110 366 123T451 165T497 228Q504 254 507 270T511 293Q511 295 511 299T509 308Q492 307 467 305T409 301L323 295Q282 295 259 314T222 379Q224 380 229 385Q233 389 236 389L271 393Q329 400 372
404T446 410Q471 412 499 410T560 402Q650 387 650 319Q650 293 640 267Q638 260 634 251T624 232Q601 183 567 144T475 72Q430 45 391 33T313 18Q309 17 302 17T285 17Z" />
<glyph unicode="H" glyph-name="H" horiz-adv-x="755" d="M467 2Q435 -1 427 37Q408 88 408 128Q408 139 408 147T410 160Q412 173 416 204T427 285L447 366Q435 365 425 365T405 364Q298 355 257 349Q235 345 223 301Q216 279 211 246T200 166L189 130Q185 113
174 99Q167 91 155 82T130 72T106 84Q98 96 96 119T96 167T102 208Q107 232 114 304Q117 313 117 321Q117 344 89 348Q60 353 60 375Q60 403 104 427Q106 428 109 430T116 434Q124 439 129 440Q150 445 159 459T176 498L218 640L229 676Q230 680 233 686T240 702Q272
703 290 679T309 598Q309 598 309 592V598Q308 599 298 555L270 459L335 476L474 465L508 570L516 604Q545 642 567 622Q607 586 607 526Q607 498 590 452Q598 447 609 444T624 439Q655 430 672 418T693 375Q681 356 661 359Q643 362 614 365Q598 366 586 366T565
366L542 258Q534 218 526 188T511 138Q498 98 493 46V30Q491 16 467 2Z" />
<glyph unicode="I" glyph-name="I" horiz-adv-x="711" d="M152 16Q104 16 60 58Q66 80 80 90T127 115Q181 137 240 155Q265 162 271 187Q283 228 291 266T307 353T323 468L327 499Q328 501 328 508Q337 532 329 541T300 551T253 547Q239 541 223 533T187 515Q174
508 160 508Q147 508 129 516Q121 520 116 521T109 524Q89 532 89 553Q89 565 97 576Q107 591 131 609Q219 674 321 676Q344 677 367 674T412 663Q453 650 486 642L601 609Q604 609 611 607T627 596Q635 589 629 579T612 563T588 556Q581 557 572 557T549 558L527
559L456 567L451 531Q444 484 439 447T428 382Q423 358 417 326T402 253L390 194L482 206Q536 214 563 212Q596 212 618 203T649 166Q639 153 627 147T586 134L567 128Q507 108 485 107Q438 101 393 89T283 52Q261 44 239 37T191 22Q170 16 152 16Z" />
<glyph unicode="J" glyph-name="J" horiz-adv-x="610" d="M242 9Q176 9 122 34Q83 52 60 87Q80 111 106 111Q119 111 134 106T155 99Q182 89 216 89Q267 89 311 113T378 178Q435 285 435 426Q435 491 423 578Q395 577 374 568T318 539Q296 526 269 526Q252 526
240 530Q229 533 218 540T202 557Q199 563 199 570Q199 580 206 589T223 603Q261 621 296 636T365 664Q373 666 383 668T404 671Q415 672 422 673T435 676Q450 680 462 681T485 683Q525 683 559 654V597Q560 583 560 562T560 512V477L559 449Q558 390 555 344T544
258T520 178Q494 113 451 73T340 20Q314 15 290 12T242 9Z" />
<glyph unicode="K" glyph-name="K" horiz-adv-x="694" d="M142 -39Q118 -31 105 -26T84 -3T69 57L65 108Q63 129 62 147T60 181Q60 228 67 275T90 394Q100 444 111 490T136 580Q148 618 169 658Q180 678 186 690T194 706Q207 731 226 731Q241 731 272 716Q287
709 292 703T298 688Q298 679 292 662L258 565Q254 554 249 538T235 499Q233 493 230 481T222 450Q226 447 230 445Q249 459 268 473T309 503L528 658Q539 666 561 666Q579 666 595 660T619 642Q625 633 625 624Q625 611 609 595L499 502L471 479Q423 442 400 420Q373
397 373 382Q373 371 390 342L408 314Q452 244 487 191T555 95T627 11L644 -8Q627 -22 614 -22Q602 -22 591 -13Q522 38 468 91T375 209Q365 225 353 243T325 281Q324 283 318 292T299 319L270 295Q242 273 222 256T187 224Q178 216 173 202T167 173Q166 165 166
153T166 124L167 25Q167 2 163 -13T142 -39Z" />
<glyph unicode="L" glyph-name="L" horiz-adv-x="524" d="M272 -58Q174 -58 110 1Q86 22 73 44T60 93Q60 98 60 102T61 109Q69 161 78 204T98 283Q109 323 129 389T177 550Q183 573 193 606T216 684Q223 707 236 716T274 724Q276 724 279 724T284 723Q286 722
289 722T294 722Q358 718 358 660Q358 643 354 630Q350 614 342 592T323 541Q281 435 249 332T193 130Q187 105 187 78Q187 28 232 28Q243 28 246 29Q260 31 289 37T362 52L442 69Q455 56 464 46T474 28Q474 19 466 11Q462 7 454 1T432 -16Q430 -17 426 -23Q421
-28 418 -29L390 -37Q355 -47 328 -52T272 -58Z" />
<glyph unicode="M" glyph-name="M" horiz-adv-x="1000" d="M861 20Q855 20 843 23Q779 36 775 100Q774 108 774 121T774 153Q774 172 774 200T776 266L777 321L779 400Q771 393 734 338Q698 284 616 133Q597 84 574 84Q563 84 543 95Q489 128 477 186Q467 230
456 276T430 371Q427 383 419 401T403 437T392 459L379 485Q234 292 181 129Q170 93 162 81Q153 66 141 66Q121 66 87 100Q60 124 60 154Q60 170 66 186Q87 248 118 307T191 421L222 462Q254 503 277 536T317 592Q341 627 381 627Q385 627 390 627T404 625Q415
623 453 549Q472 512 495 464T546 356L578 289Q599 312 617 342T662 425Q678 454 688 473T705 501Q729 538 755 576T809 656Q817 667 834 671Q836 672 844 672Q860 672 879 663T914 639T936 611Q938 605 938 596Q938 584 937 581Q933 563 928 527Q912 405 901 314T882
161Q880 147 879 131T878 98L876 66Q875 61 875 56T875 43Q875 31 861 20Z" />
<glyph unicode="N" glyph-name="N" horiz-adv-x="719" d="M131 -63Q121 -65 107 -61T82 -47T67 -28Q60 -3 60 20Q60 37 65 52Q74 78 77 131Q80 163 83 180Q90 227 100 292T124 441Q125 446 126 451T129 464Q132 479 131 488Q127 525 137 560T175 624Q220 662 265
621Q273 614 280 606T294 589Q300 579 305 570T314 555L433 389Q447 372 460 355T486 318L503 374Q537 485 559 554T591 649Q611 702 684 671Q704 654 698 630Q694 611 689 598T678 574Q662 532 650 491T626 400T600 285Q599 278 597 269T592 245Q584 204 560 184T495
162Q454 159 424 195Q408 214 389 239T347 295L326 323Q313 342 292 369T242 432L233 388Q226 351 221 322T214 272L208 147Q207 137 207 125T206 96Q205 80 205 62T202 22Q201 -9 181 -32T131 -63Z" />
<glyph unicode="O" glyph-name="O" horiz-adv-x="816" d="M323 0Q294 0 265 6Q201 20 153 54T77 138T50 243Q50 307 88 372Q90 379 97 383Q101 385 103 387T108 391L134 380L158 368Q192 350 202 339T213 306Q213 292 210 266Q209 261 209 254T209 238Q209 219
211 196T219 144Q224 111 262 111Q273 111 276 112Q328 122 365 134T432 172Q487 218 528 260T600 351Q621 386 621 417Q621 443 609 468T573 526Q534 577 473 577Q449 577 427 570Q423 569 406 564T357 548Q353 547 350 546T343 544Q339 543 336 542T328 540L202
505Q190 501 172 496T127 485L116 494Q160 563 250 615Q321 656 416 656Q484 656 546 635T650 573Q658 566 665 560T681 547Q694 537 701 530T711 521Q766 465 766 397Q766 345 731 289Q685 216 635 161T523 67Q420 0 323 0Z" />
<glyph unicode="P" glyph-name="P" horiz-adv-x="689" d="M93 0Q74 0 67 9T60 41L62 81Q68 200 77 258Q81 287 88 321T101 383T110 421Q117 450 122 472T130 509L78 518Q65 544 66 563Q68 595 96 628Q117 652 146 667T206 687Q229 689 249 690T286 692Q424 692
564 634Q572 630 581 625T598 613Q606 606 612 601T620 594Q659 563 659 525Q659 501 644 472Q637 456 617 433Q526 328 376 273Q358 266 345 266Q323 266 304 281T271 322L299 340Q323 356 341 368T370 389Q408 419 442 447T504 501Q516 511 530 538Q522 573 513
577Q508 579 504 580T495 582L300 598Q265 601 256 561L172 172Q168 157 166 144T161 120L154 82L145 37Q141 21 132 12T106 1L93 0Z" />
<glyph unicode="Q" glyph-name="Q" horiz-adv-x="699" d="M154 -92Q123 -92 101 -77T60 -28Q73 -8 93 4T142 25Q168 33 209 40Q211 41 221 42T250 48Q231 59 219 66T200 77Q74 144 79 296L80 325Q81 330 81 336T81 353Q81 376 76 394Q72 405 72 422Q72 447 84
471T116 523Q147 566 180 593T258 630Q276 635 289 635Q298 635 305 632Q353 615 389 593T451 536Q487 489 506 444T526 346Q525 281 484 210Q438 131 366 95Q362 93 356 88T339 75L321 60L363 57Q381 56 393 55T411 55Q469 55 525 42T657 8Q664 6 671 -2T679 -17Q678
-25 671 -33T656 -43Q643 -45 632 -46T610 -48Q606 -48 600 -48T587 -46Q544 -37 500 -37Q476 -37 454 -39T403 -45T332 -56Q316 -59 295 -63T247 -75Q227 -80 212 -83T186 -89Q170 -92 154 -92ZM227 166Q248 166 273 185Q345 240 380 318Q399 361 401 404Q402
452 373 503Q351 543 318 543Q297 543 275 526Q224 485 197 442T173 341V309H171L173 280Q173 264 174 250T177 223Q181 196 194 181T227 166Z" />
<glyph unicode="R" glyph-name="R" horiz-adv-x="699" d="M134 -32Q107 -32 87 -15T67 27Q67 65 69 99T75 162Q103 343 204 538Q261 648 379 706Q416 725 456 725Q496 725 530 705T588 645Q609 611 609 577Q609 531 573 484Q551 456 521 417T451 325L386 241Q387
241 389 239Q391 235 392 234L414 222Q455 200 486 182T536 151Q574 128 617 128Q624 128 628 128T637 129Q640 124 645 114T653 96Q656 86 656 77Q656 61 647 52T621 42Q614 42 611 43Q589 48 571 53T540 65Q519 75 466 110Q446 124 429 134T398 152Q381 162 362
168T323 178Q314 180 293 182T238 188Q223 189 212 190T194 192L176 44L177 28Q177 -8 169 -20T134 -32ZM221 257Q241 255 252 264T283 294Q324 340 365 390T439 484Q448 496 454 508T468 540T488 594Q489 596 489 604Q489 612 487 624T484 641Q411 619 351 551Q292
484 221 257Z" />
<glyph unicode="S" glyph-name="S" horiz-adv-x="529" d="M189 -39Q185 -39 178 -39T162 -37Q115 -39 72 -5Q34 27 34 66Q34 99 62 133Q76 131 78 125T78 97Q78 96 78 94T80 88Q119 70 173 70Q213 70 251 79T316 105T352 141Q357 155 339 182T291 244T226 310Q202
332 181 353T139 395Q117 419 105 450T92 516Q92 562 115 603T186 670Q276 721 370 721Q377 721 386 721T407 719Q418 718 426 716T439 712Q464 702 464 684Q464 666 439 638Q434 639 426 639T407 639Q319 639 232 588Q211 575 196 555Q185 542 185 527Q185 501
215 475Q229 460 253 433T310 366L333 342Q366 307 389 280T429 226T459 167Q467 145 467 129Q467 86 434 50Q396 8 346 -11T233 -36Q225 -37 214 -38T189 -39Z" />
<glyph unicode="T" glyph-name="T" horiz-adv-x="797" d="M331 1Q291 1 291 33Q291 35 291 38T293 46Q304 90 313 164T330 345Q336 428 342 483L350 563Q271 551 184 517Q162 509 145 509Q118 509 96 524T60 568Q66 590 82 601T128 623Q269 674 446 673Q489 673
533 672T624 666Q670 662 697 661T732 658L802 653H816Q825 653 837 634Q837 610 801 605Q756 600 724 597T673 591Q654 590 639 589T614 587Q575 585 546 583T497 579Q481 578 472 577T458 566T448 526Q444 465 427 309Q419 239 414 191T407 117Q406 103 403 85T394
47Q389 30 386 21T372 7T331 1Z" />
<glyph unicode="U" glyph-name="U" horiz-adv-x="743" d="M226 41Q201 41 178 50T139 77Q60 162 60 285Q60 320 66 357Q72 389 78 419T95 486T119 572Q123 583 127 598T138 635Q143 655 153 658Q159 660 160 660Q171 660 186 651Q219 632 233 614T248 573Q248
546 227 502Q165 369 165 259Q165 245 165 234T167 216Q169 193 190 175T236 157Q263 157 283 177Q387 281 454 388T559 623L568 652L570 654Q629 648 663 609T693 511Q680 431 671 373T656 280Q654 267 650 235T640 150Q632 88 632 88L544 102L562 318L551 310Q542
302 527 286T499 256Q480 229 466 211T442 183Q398 137 362 107T275 51Q256 41 226 41Z" />
<glyph unicode="V" glyph-name="V" horiz-adv-x="776" d="M354 3Q344 2 328 8Q196 61 147 175Q131 213 117 261L101 316Q95 337 91 350T85 371Q84 373 84 376T83 383Q82 391 79 393Q62 414 56 437T50 491V511Q50 515 50 519T51 529Q51 534 51 539T50 552Q107 554
133 533T171 460Q184 399 199 337T233 209Q242 178 256 155T295 114L308 131Q315 141 319 147T325 156Q333 170 342 192T365 245L423 370Q481 494 537 581Q578 655 644 681Q665 688 685 690Q707 691 728 681Q756 668 756 641Q756 624 742 610Q725 593 716 589Q698
581 685 569T656 538T619 486Q593 450 573 412T534 328T491 220L473 174Q455 128 438 94T399 29Q379 4 354 3Z" />
<glyph unicode="W" glyph-name="W" horiz-adv-x="894" d="M257 72Q227 72 209 90T179 148Q164 198 149 254T121 366T100 468Q97 487 89 511Q85 522 83 529T79 540L69 569Q60 595 60 607Q60 626 93 649Q163 630 180 555Q184 539 189 515T202 459L223 363Q223 363
226 355T234 330L247 292L302 402Q318 437 333 464T368 517T414 575Q438 604 473 604Q495 604 514 591T544 554Q546 550 548 545T554 532Q566 505 571 488T577 443Q578 423 579 398T585 340L590 282Q611 300 623 318T642 359Q649 378 657 400T673 450L703 540Q719
586 743 614T810 650Q814 651 818 651T828 652Q836 652 839 649Q843 645 853 622Q864 602 864 588Q864 567 842 545Q820 524 806 501T779 447T752 373Q748 360 741 336T723 278Q710 229 699 194T678 136Q673 123 668 114T659 99Q650 88 638 88Q626 88 594 105Q560
124 536 158T496 237T477 326L476 348Q474 375 472 398T468 442Q447 418 431 388T392 314L369 267Q353 239 324 163Q297 91 287 75Q271 72 257 72Z" />
<glyph unicode="X" glyph-name="X" horiz-adv-x="735" d="M78 35L60 88L251 253Q236 284 216 326T169 424Q153 457 153 496Q153 520 164 566Q202 563 233 535T276 463L284 433Q288 416 291 404T297 383L312 355L325 331L356 364Q412 424 451 469T521 555T578 641Q603
644 622 633T666 600Q685 582 685 553Q685 520 662 495L429 239Q428 238 427 236T425 231Q424 227 419 219L506 165L629 94Q646 83 650 72Q653 66 653 61Q653 50 642 45T614 41Q555 49 500 74T389 138Q375 147 365 153T347 159Q341 159 331 153T308 138Q212 70
104 37Q96 35 90 35H78Z" />
<glyph unicode="Y" glyph-name="Y" horiz-adv-x="632" d="M223 -101Q222 -95 217 -84Q212 -74 213 -71Q229 -30 253 30T311 172Q313 179 318 192T330 228Q148 305 87 473Q71 515 66 533Q60 551 60 569Q60 582 63 603T73 650L92 651Q100 651 104 648L121 635Q151
610 166 593T187 546Q200 485 217 438T268 353Q292 325 310 312T360 299Q368 314 373 325T382 345L409 411Q446 501 469 556T502 634Q509 652 531 682Q533 685 536 689T544 700Q577 687 594 662T612 603Q612 579 605 561Q597 536 583 504T549 431L536 404Q528 391
524 382Q513 361 507 349T498 332L471 272Q440 199 414 155L400 133Q367 79 340 38T285 -36T223 -101Z" />
<glyph unicode="Z" glyph-name="Z" horiz-adv-x="805" d="M187 -29Q160 -29 140 -19Q97 0 97 33Q97 52 114 78Q193 189 252 272T349 412Q372 447 399 488T458 577L492 630Q461 639 418 639Q382 639 343 633L297 626Q234 617 176 611L164 610Q134 610 108 623T54
662Q51 664 51 672T50 685L113 694Q185 704 234 709T324 718T408 721Q448 721 488 718Q532 714 567 703T633 667Q664 643 664 626Q664 610 641 587Q586 532 529 466T409 323Q386 295 361 259T312 187L278 138Q276 134 272 126T260 103L250 83L794 116Q795 113 795
104Q795 72 761 63Q712 52 675 45T613 34Q597 32 573 30T515 24Q484 21 459 18T417 13Q393 9 356 2T267 -16L234 -23Q203 -29 187 -29Z" />
<glyph unicode="[" glyph-name="bracketleft" horiz-adv-x="443" d="M125 -80Q87 -80 74 -62T60 1Q65 57 66 86Q74 210 81 319T93 522V546Q90 563 90 577Q90 653 160 675Q200 688 241 700T348 719Q359 721 379 704L393 696Q388 692 378 679Q367 666 358 665Q343
660 323 656T294 649Q252 639 231 634Q186 619 186 579Q186 575 186 570T188 559Q191 544 191 526Q191 519 191 508T190 482Q188 430 185 351T176 166Q175 144 173 113T166 41V32Q166 1 196 1Q200 1 203 1T209 2Q214 4 222 5Q233 7 236 9Q254 20 276 22Q296 22
329 9L346 3Q353 0 359 -7T367 -21Q368 -26 363 -33T351 -44Q338 -52 319 -55Q266 -63 227 -68T161 -77L125 -80Z" />
<glyph unicode="\" glyph-name="backslash" horiz-adv-x="419" d="M340 -34Q335 -34 328 -30Q298 -14 254 67Q208 149 125 353L61 641Q60 643 60 650Q60 665 68 681T90 709T118 722Q148 726 162 690Q173 656 185 619T211 538L225 493Q233 466 239 444T253 403Q263
373 279 330T311 241T342 158T364 102Q369 85 369 51Q369 16 362 -8Q354 -34 340 -34Z" />
<glyph unicode="]" glyph-name="bracketright" horiz-adv-x="417" d="M136 -79Q126 -80 115 -76L78 -61Q72 -57 68 -48L60 -35Q65 -33 74 -26Q80 -21 88 -19Q99 -17 108 -15T128 -12Q150 -8 162 -6T176 -2Q197 3 212 17T228 50Q228 142 230 218T236 355Q238 380
241 419T250 510L257 576Q259 595 250 605T221 616Q209 616 200 613Q187 610 169 610Q155 610 138 613Q130 614 121 620T110 632Q108 640 112 649T123 664Q165 703 235 703Q280 703 322 683Q325 682 347 671L367 661L360 611Q355 571 351 540T344 485Q335 273 329
40Q329 16 329 3T315 -22T264 -52Q193 -75 136 -79Z" />
<glyph unicode="^" glyph-name="asciicircum" horiz-adv-x="447" d="M348 483Q329 487 317 496T283 535Q278 540 266 553T237 588L219 610L206 601Q202 597 199 595T194 590L176 572Q163 559 154 549T139 531Q132 522 122 513T100 504Q97 504 94 504T88 505Q74
507 66 516T61 538Q62 540 63 543T65 552Q75 576 95 601Q105 612 110 619T118 630Q157 678 168 702Q181 729 221 720Q230 719 268 682Q286 664 313 633T376 555L384 541Q388 533 390 527Q389 524 394 511Q399 497 395 491Q391 485 375 483T348 483Z" />
<glyph unicode="_" glyph-name="underscore" horiz-adv-x="660" d="M540 -109L299 -103Q286 -102 267 -102T222 -102L159 -103Q123 -103 94 -86Q60 -68 60 -38Q60 -36 60 -33T62 -25Q66 -11 80 -2T114 9Q127 9 137 8T155 6Q169 5 191 3T244 -2Q254 -3 266 -3T293
-6Q307 -7 324 -8T362 -11Q370 -12 382 -12T411 -12H529Q557 -14 584 -25Q594 -29 602 -41T610 -64Q610 -69 608 -73Q601 -89 573 -103Q568 -107 557 -107Q552 -108 548 -108T540 -109Z" />
<glyph unicode="`" glyph-name="grave" horiz-adv-x="397" d="M296 501Q269 501 246 524L213 560Q167 611 136 646T88 701Q75 717 68 737T61 775Q63 786 62 786T62 787T74 795Q80 799 98 793T126 776Q246 671 314 603Q325 592 336 559L347 531L337 514Q337 514
335 513Q317 503 296 501ZM336 509Q332 504 332 504T335 510L337 514Q342 516 336 509Z" />
<glyph unicode="a" glyph-name="a" horiz-adv-x="494" d="M231 2Q203 2 173 10T117 33T79 65Q59 95 60 125Q62 174 100 221Q126 252 147 270T194 297T256 310Q264 310 277 312T302 317T313 325Q313 339 301 351Q287 362 250 362Q243 362 233 362T208 360Q194 359
184 359T169 358Q136 358 120 369Q116 370 116 388Q116 419 137 426Q159 434 181 438T226 443Q284 443 333 418T406 354Q429 317 436 249Q440 212 442 164T444 58Q444 26 435 21Q427 16 420 16Q411 16 399 22T378 39L371 51Q367 62 362 63Q353 63 342 55T323 37Q317
31 311 26T298 17Q287 10 254 4Q247 3 242 3T231 2ZM200 72Q207 72 213 74Q236 81 259 89T305 108Q315 113 323 125T333 140Q335 143 336 157T337 181Q335 184 334 197Q333 204 331 209T326 220Q321 228 310 235T290 241Q271 240 249 227T208 192Q189 169 179 146T168
102Q169 86 183 77Q191 72 200 72Z" />
<glyph unicode="b" glyph-name="b" horiz-adv-x="489" d="M189 -1Q179 -1 164 1T126 7Q126 17 123 29Q127 31 131 33T142 38Q152 42 162 44Q193 47 232 77Q270 106 332 213Q333 217 334 224T335 241Q335 251 332 258Q316 295 295 307Q289 310 274 301T250 280Q184
208 172 115Q167 79 131 80Q111 80 93 91T63 121T51 159Q50 235 50 347T50 611Q50 636 64 645T107 661Q118 664 134 656Q148 649 171 609Q171 551 162 462L159 422Q159 412 158 400T154 370Q152 351 151 336T149 309Q160 313 177 332Q182 337 186 341T195 349Q238
380 279 380Q321 380 368 345Q439 292 439 223Q439 168 393 107Q327 18 207 0Q204 -1 200 -1T189 -1Z" />
<glyph unicode="c" glyph-name="c" horiz-adv-x="485" d="M238 21Q105 20 64 150Q57 164 54 181T50 217Q50 251 64 282T97 333L116 356Q131 374 138 381Q172 415 231 415Q294 415 341 378Q345 375 349 366T353 350Q353 342 341 333T319 324Q251 332 210 292T169
181Q169 135 188 116T253 97Q281 97 306 108T364 141L383 153Q388 155 395 157T410 160Q427 162 431 149T435 131Q435 109 428 102Q402 72 377 56T319 32T238 21Z" />
<glyph unicode="d" glyph-name="d" horiz-adv-x="494" d="M182 9Q145 13 113 33T63 85Q47 118 51 178Q55 222 71 266T111 337Q138 367 172 384T247 397Q258 396 267 394Q269 393 276 393Q300 391 301 412L300 421Q298 479 296 521T290 591Q290 593 290 597T289
607Q288 612 288 616T288 625Q290 654 319 665Q327 667 333 667Q354 665 375 650T400 617Q405 586 408 545T414 454L418 301Q420 233 422 182T426 95Q426 80 437 50L440 39Q441 36 442 33T444 24Q408 9 389 10Q363 14 336 55Q326 69 317 71Q310 71 299 59Q250 3
182 9ZM178 68Q195 75 205 86T231 117L243 135Q269 166 280 206T299 309Q300 318 297 330T289 343Q281 346 262 341T236 330Q211 305 197 286T170 243Q148 197 146 155Q141 97 178 68Z" />
<glyph unicode="e" glyph-name="e" horiz-adv-x="530" d="M308 11Q280 11 248 15T184 36T119 92T58 201Q54 217 52 232T50 262Q50 309 76 338T162 393Q217 416 262 416Q296 416 326 406Q422 376 422 324Q422 291 383 244Q371 230 356 218T317 192T254 156Q243
149 221 148Q210 147 203 146T191 144Q199 111 229 94T296 77Q327 77 353 91Q389 110 417 136Q436 155 453 155Q464 155 472 144Q480 130 480 112Q480 92 472 81Q446 41 405 26T308 11ZM184 220Q219 246 246 267T291 305Q297 311 297 327Q297 338 296 341Q294 346
289 350Q282 353 281 354Q263 356 241 341T198 301T161 242Q169 205 184 220Z" />
<glyph unicode="f" glyph-name="f" horiz-adv-x="445" d="M270 -243Q248 -243 237 -232T221 -197Q217 -174 209 -140T190 -59L158 107Q157 165 101 165Q84 165 76 171Q70 176 65 182T60 195Q60 200 66 206T79 214Q115 219 127 234T141 281L143 345Q144 387 146
431T153 509Q160 565 236 565Q244 565 250 565T261 564Q275 563 292 555T323 534T338 507Q349 450 296 445Q274 450 265 444T253 427T248 400Q248 393 248 384T246 363Q243 339 243 314Q243 276 247 267Q250 256 264 256Q277 256 305 262H328Q385 262 398 237Q403
235 408 227Q410 223 412 220T415 215L403 206Q397 200 388 198Q377 196 360 193T319 185Q315 184 307 183T287 180Q251 173 251 138Q251 136 251 131T253 119Q265 65 273 25T286 -43L304 -131Q309 -155 311 -173T314 -205Q314 -224 305 -233T270 -243Z" />
<glyph unicode="g" glyph-name="g" horiz-adv-x="503" d="M234 -369Q192 -370 146 -355Q124 -347 104 -324Q83 -302 59 -221Q60 -216 63 -211T70 -204Q71 -203 74 -203Q77 -203 82 -205T90 -209Q96 -211 97 -218Q111 -249 128 -267T173 -283Q277 -275 314 -226Q327
-210 335 -190T344 -151Q344 -125 332 -113T293 -96Q265 -91 240 -82T178 -55Q160 -46 153 -39T146 -22Q146 -11 158 29Q160 33 151 41T128 57T104 72Q50 104 50 176Q50 196 53 214Q71 323 160 370Q182 381 204 381Q221 381 239 376T260 370L281 364Q294 360 310
360Q346 360 376 389Q398 408 425 408Q444 408 459 398T481 367Q482 363 482 360T483 354Q483 345 480 340Q479 338 475 332T463 314Q456 301 450 292T431 272Q427 270 422 268T412 265Q401 262 391 252Q390 216 389 192T381 143T353 85T287 -5L322 -24Q338 -33
350 -39T369 -49Q414 -70 437 -102T460 -174Q460 -222 428 -269Q394 -319 343 -343T234 -369ZM217 104Q255 119 276 156T297 237Q297 264 289 286T257 320Q212 303 181 267Q150 232 150 194Q150 168 166 145T217 104Z" />
<glyph unicode="h" glyph-name="h" horiz-adv-x="510" d="M424 -44Q408 -44 390 -33T360 -5T346 27L344 82Q344 92 344 105T342 137Q341 174 333 189Q327 207 318 210Q308 211 251 186Q238 169 224 135T193 49Q181 12 161 12Q160 12 157 12T148 14Q144 15 138
17T124 21Q106 26 86 67Q86 167 80 249T61 397Q56 429 53 467T50 548V655Q50 670 65 680T101 691Q119 691 130 684Q169 658 169 605V583Q170 481 174 402T197 249Q234 275 279 291Q320 305 353 290T410 244T447 176Q454 156 457 129T460 68L459 -14Q459 -22 451
-31T434 -43Q431 -44 424 -44Z" />
<glyph unicode="i" glyph-name="i" horiz-adv-x="255" d="M134 440L94 447Q57 453 58 502Q50 510 50 521Q50 528 54 533T67 539Q103 539 152 514Q158 513 162 498T164 472Q163 465 152 456Q139 446 134 440ZM158 -1Q133 -1 116 13T94 49L68 261L64 280Q69 301
69 312Q69 326 77 334T110 342Q138 342 159 325T186 279Q189 265 190 248T191 226L205 55Q207 28 197 14T158 -1Z" />
<glyph unicode="j" glyph-name="j" horiz-adv-x="329" d="M211 533Q207 535 202 537T188 541Q173 545 165 552Q161 554 158 558T151 568Q147 573 144 577T138 583Q143 587 151 598Q159 609 180 609Q201 609 230 587Q236 582 240 572T241 555Q238 549 227 542L211
533ZM199 -374Q157 -374 110 -349Q13 -300 7 -201Q7 -197 7 -194T6 -186Q5 -182 5 -179T5 -172Q5 -138 36 -138Q47 -138 55 -146Q58 -150 62 -159T74 -184L83 -202Q112 -259 128 -279Q146 -304 165 -304Q189 -304 202 -271Q210 -250 216 -219L220 -199Q215 -179
207 -142T188 -49L182 -18Q162 86 146 164T119 295Q114 315 116 335L117 370Q118 375 118 384T118 404Q118 429 132 436T173 441Q198 440 212 426T227 390L229 339Q232 271 235 218T245 118T267 24Q273 4 278 -17T288 -62Q292 -85 294 -99T298 -119Q304 -149 308
-171T315 -209Q317 -217 318 -226T319 -247Q319 -315 266 -353Q238 -374 199 -374Z" />
<glyph unicode="k" glyph-name="k" horiz-adv-x="462" d="M90 -24Q82 -23 73 -16T61 -2Q50 44 50 84Q50 205 53 325L63 651Q65 704 118 704Q191 704 187 646L177 544Q175 527 173 503T167 449L165 426Q162 407 162 396Q162 388 164 386L193 414Q209 432 221 442Q247
466 274 466Q296 466 307 449Q313 439 313 426Q313 415 309 411Q294 389 255 342Q240 326 240 311Q240 297 254 280Q260 273 268 263T288 238Q331 183 364 150T442 94Q447 92 450 85T452 73Q451 68 444 63T432 59Q425 61 419 62T407 64Q355 74 333 89Q297 115 231
176L190 214L172 231L151 252Q149 246 149 237Q149 233 149 228T151 218Q153 208 151 203Q148 147 146 106T143 39Q141 6 128 -11T90 -24Z" />
<glyph unicode="l" glyph-name="l" horiz-adv-x="309" d="M192 -28H162Q141 -28 97 -2Q71 30 71 58Q71 175 71 263T69 410L68 586Q68 603 67 619T61 650Q60 653 60 662Q60 699 110 699Q143 699 165 678T186 621Q185 595 183 555T178 462L172 342Q168 257 166 194T161
87Q160 77 162 65T165 50L175 46Q195 71 204 84Q215 99 227 99Q239 99 245 84Q259 42 259 21Q259 9 258 6Q254 -14 236 -22T192 -28Z" />
<glyph unicode="m" glyph-name="m" horiz-adv-x="708" d="M614 16Q599 16 582 25Q575 28 569 36T563 50L557 156Q556 164 556 175T555 200Q554 213 554 228T551 261Q549 299 519 317Q503 313 492 309T468 292T433 252Q427 244 421 230T413 213Q410 206 410 198Q410
192 413 180Q414 173 414 169T414 160Q413 153 413 141T415 113L416 82Q416 75 416 70T415 61Q413 45 405 33T383 21Q378 21 370 24Q366 25 361 27T347 31Q332 35 313 77Q313 103 311 142T303 233Q302 238 301 247T299 270Q298 281 289 287T267 293Q246 293 235
282Q189 256 168 223T147 138L148 104Q148 72 131 43Q126 34 111 28T84 23Q74 24 64 36T53 59Q50 143 50 226Q50 264 50 291T52 338Q53 357 65 368T94 379Q117 379 133 363Q142 347 148 339Q154 331 161 331Q168 331 175 338Q179 341 184 346T197 359Q230 395 266
395Q305 395 360 356Q362 355 364 353T371 348Q379 342 383 342Q390 342 405 358Q460 410 547 415Q574 416 601 395T636 343Q642 318 646 288T653 223Q656 171 657 132T658 67Q657 43 645 30T614 16Z" />
<glyph unicode="n" glyph-name="n" horiz-adv-x="518" d="M114 -5Q52 2 50 48Q49 106 59 185Q63 214 66 237T72 277Q74 294 78 316L84 369Q86 385 87 394T98 411T138 429Q199 429 210 379V377Q210 374 210 371T208 362Q206 350 207 349Q276 364 324 364Q400 364
437 292Q468 231 468 157Q468 147 467 134T464 102Q461 78 445 64T407 49Q392 49 383 52T369 68T362 112L361 133Q360 163 358 189T353 237Q348 270 312 270Q304 270 295 269T274 265Q252 259 240 255T219 246T195 230Q188 225 185 210T182 193Q175 161 169 123T154
40Q153 38 153 34T150 21Q147 5 114 -5Z" />
<glyph unicode="o" glyph-name="o" horiz-adv-x="475" d="M226 20Q181 20 138 37Q95 53 50 198L65 291Q75 330 103 345T178 371Q208 377 237 377Q328 377 392 315Q425 282 425 234Q425 186 391 133Q350 71 300 40Q268 20 226 20ZM204 101Q210 97 226 99T253 109Q263
118 277 138T302 185T314 235Q314 267 296 293T246 329Q243 330 234 330Q214 330 212 324Q204 304 196 279T177 223L174 188Q174 181 174 166T178 140Q188 109 204 101Z" />
<glyph unicode="p" glyph-name="p" horiz-adv-x="432" d="M115 -343Q100 -343 85 -334T60 -310T50 -281Q51 -243 53 -189T58 -64L65 154Q66 184 65 209T58 255Q57 261 57 265T56 271Q56 287 65 296T91 307Q116 309 131 320T166 357Q202 402 245 402Q292 402 354
343Q382 316 382 270Q382 253 379 236Q372 194 350 158T291 80Q261 48 226 48Q196 48 165 67L162 -24Q160 -74 159 -117T157 -198Q157 -205 157 -216T159 -242Q160 -257 160 -268T161 -286Q161 -293 161 -298T160 -308Q159 -317 148 -327T126 -341Q122 -342 120
-342T115 -343ZM189 118Q208 124 231 153Q253 181 282 283Q282 294 277 307Q270 320 256 320Q237 320 230 307Q227 303 216 285T198 247Q176 188 176 140Q176 135 176 131T177 124L189 118Z" />
<glyph unicode="q" glyph-name="q" horiz-adv-x="575" d="M334 -274Q285 -274 298 -231Q297 -217 297 -206T296 -187Q296 -183 296 -179T297 -169Q297 -164 297 -157T296 -143Q295 -106 278 -106Q268 -106 251 -119T213 -145T170 -159Q147 -159 123 -146T83 -111Q138
-50 246 -23Q278 -16 289 1T299 49Q295 92 290 89Q262 70 220 70Q181 70 128 87Q97 96 74 135Q53 169 51 191T52 228Q61 266 93 305Q109 323 147 345T244 393Q277 399 309 399Q348 399 381 388Q398 384 414 373Q431 363 465 334Q468 333 468 322Q468 311 464 307Q450
295 433 295Q409 295 381 311Q359 327 329 327Q280 334 234 309Q227 305 218 301T198 293Q188 289 173 275T146 239T134 193T156 143Q188 134 208 131T244 135T276 165T315 228Q328 253 330 278Q332 302 360 302Q385 302 393 286T401 242Q401 210 399 161T393 46Q392
27 397 18T420 8Q471 8 502 14Q516 17 524 17Q542 17 548 5T555 -39L529 -42Q523 -43 513 -44T487 -47Q457 -52 432 -53Q407 -55 395 -65T383 -101Q383 -117 382 -136T378 -176L374 -230Q372 -252 364 -262T334 -274Z" />
<glyph unicode="r" glyph-name="r" horiz-adv-x="495" d="M142 3Q114 3 92 27T70 80Q71 133 71 212T71 398Q71 427 84 438T131 450Q156 450 173 436T192 401Q195 392 193 370L181 252Q186 257 196 281Q207 305 229 341Q276 386 335 395T465 403Q479 403 482 396T483
380T472 368Q412 348 367 322T288 254Q210 155 198 50Q195 22 181 13T142 3Z" />
<glyph unicode="s" glyph-name="s" horiz-adv-x="411" d="M167 -22Q83 -22 60 50Q68 50 81 50T104 47Q111 46 116 46T124 45Q169 45 199 85Q220 114 220 144Q220 164 210 183Q199 203 186 224T156 269Q146 285 136 299T118 328Q98 360 98 399Q98 435 118 462T179
497L211 503Q237 508 256 510T289 513Q331 513 365 493Q372 488 379 476T391 456Q387 455 383 453T372 447Q365 443 360 442T350 439Q343 438 333 438T308 437Q295 437 285 437T267 436Q235 433 217 415T198 370Q198 350 210 329Q236 286 285 226Q321 181 321 133Q321
107 309 78Q269 -22 167 -22Z" />
<glyph unicode="t" glyph-name="t" horiz-adv-x="462" d="M291 -7Q270 -7 246 -4T200 13T160 61T135 156Q136 166 136 181T136 216Q136 248 135 281T131 348Q129 354 124 357L104 362Q80 367 74 373Q67 381 65 390T60 415Q69 436 93 436Q99 435 103 435T110 434Q131
434 135 446Q140 459 140 499L143 559Q144 598 149 677Q150 718 186 718Q192 718 196 718T205 716Q246 707 260 690Q274 673 272 653T266 610Q236 434 247 429Q247 421 261 416Q274 412 301 413Q324 418 341 421T371 426Q373 427 377 427T387 427Q399 427 403 424Q412
419 412 391Q412 380 410 371T403 361Q390 357 374 354T339 348Q317 344 301 341T274 334Q263 331 252 319T240 297L237 197Q236 158 240 119Q243 86 253 72T283 57Q298 57 329 68Q344 75 357 75Q377 75 384 54Q387 47 387 40Q387 27 378 19T352 5Q322 -6 291 -7Z"
/>
<glyph unicode="u" glyph-name="u" horiz-adv-x="476" d="M371 19Q369 19 363 25T353 37Q349 45 346 56T337 80L329 99L327 105L324 102L308 92Q302 87 296 83T282 76Q259 62 227 62Q187 62 151 84T94 146Q60 205 60 285Q60 305 63 330T71 386Q72 401 90 412Q106
423 125 423Q136 423 146 420Q171 413 181 403T192 376Q192 369 189 355Q179 310 177 265Q176 240 180 217T193 171Q204 143 218 143Q228 143 244 161Q281 205 299 249T321 340Q324 372 331 379Q334 382 344 384Q349 385 355 385T370 385Q388 384 398 383T414 374T426
347L425 300Q425 293 425 282T424 256L419 122Q417 86 398 34Q396 31 387 26T371 19Z" />
<glyph unicode="v" glyph-name="v" horiz-adv-x="485" d="M240 -39Q207 -39 182 -11Q175 -2 167 13T151 51Q128 122 109 182T74 293Q73 297 71 302T66 314Q60 326 60 334Q60 349 75 359Q91 370 107 370Q126 370 154 351Q174 336 183 317T200 267Q208 236 215 219Q219
212 224 193Q229 176 232 167T237 155Q258 193 276 230Q305 290 321 314Q350 358 390 392Q398 400 409 400Q419 400 425 392T434 372Q435 369 435 359Q435 348 433 337T427 315L310 13Q301 -12 282 -25T240 -39Z" />
<glyph unicode="w" glyph-name="w" horiz-adv-x="676" d="M218 -36Q210 -37 186 -26Q162 -14 145 10T116 65T95 125Q77 187 62 254Q61 259 61 262T60 266Q60 288 82 301Q87 309 98 309Q109 309 120 301Q142 283 145 269T149 227Q149 217 155 196T170 153T190 114T207
96Q208 98 210 105T217 126Q221 139 223 147T228 159Q247 199 260 224T280 259Q304 292 337 292Q382 244 400 201Q409 179 420 158T446 116L461 143Q469 157 478 177T499 225Q509 249 517 268T537 307T570 353Q578 364 592 372Q606 380 626 327Q626 261 609 211T553
114T447 8Q440 8 434 8T423 10Q407 12 394 27T368 65T344 111T316 152Q300 103 290 69T272 14Q252 -36 218 -36Z" />
<glyph unicode="x" glyph-name="x" horiz-adv-x="489" d="M132 7Q109 7 90 18T62 52Q60 60 60 63Q60 80 69 93Q92 124 114 151T158 201Q166 209 174 217T183 229Q183 232 176 240Q169 247 161 260Q159 265 153 273T136 293L114 323Q111 328 109 333T104 346L98
366Q102 367 107 369T119 374Q148 388 160 383Q188 372 208 360T236 328Q239 320 243 310T256 291Q260 291 270 300Q275 305 280 311T293 324Q304 335 319 344T349 362Q365 370 378 370Q407 370 437 335Q438 333 438 331T439 327Q439 313 431 303Q406 275 368 243Q365
241 360 236Q358 234 355 232T350 228L326 208Q317 199 317 193Q317 186 332 168L356 136Q370 114 379 97T393 67Q396 60 396 49Q396 45 396 42T395 34Q394 30 394 27T394 19Q387 20 382 20T371 21Q368 21 354 23T330 31Q318 39 307 55L294 71L277 93L265 105L251
116L227 83L194 37Q183 22 167 15T132 7Z" />
<glyph unicode="y" glyph-name="y" horiz-adv-x="442" d="M199 -330Q158 -330 113 -313Q104 -309 92 -303T74 -292L72 -282Q80 -280 90 -276Q95 -274 100 -274T109 -272Q181 -270 214 -242T257 -143Q266 -72 275 70L279 134Q280 157 271 169T236 185Q182 191 143
227T88 318L77 358Q71 380 67 396T60 424V426Q60 432 64 439T72 450Q89 461 109 461Q137 461 159 442T184 393Q186 371 190 346T201 295Q206 274 220 274Q231 274 239 285Q252 302 262 317T279 349Q296 387 329 387Q339 387 342 386Q393 376 392 322L389 229Q385
106 380 44L377 4Q373 -50 370 -87T361 -154T348 -215Q333 -273 293 -301T199 -330Z" />
<glyph unicode="z" glyph-name="z" horiz-adv-x="503" d="M210 18Q174 18 136 24Q108 29 80 60Q60 83 60 98Q60 119 90 147L133 186Q170 218 191 237T219 264Q221 266 224 270T229 279L236 295Q231 297 221 301T202 307L176 312Q138 318 113 328T71 367Q85 380
97 386T125 392Q136 392 148 389Q189 378 228 371T304 361Q324 360 336 350T362 322L376 306Q380 302 372 284T354 254Q333 233 300 202T220 130Q213 124 202 118T185 109Q187 105 202 104Q210 103 219 103T238 102Q285 102 307 109Q318 112 331 116T360 126Q383
134 399 138T425 145Q433 146 444 139T462 122Q463 121 463 117Q463 110 460 102T452 90Q340 18 210 18Z" />
<glyph unicode="{" glyph-name="braceleft" horiz-adv-x="387" d="M252 -163Q248 -162 242 -160T226 -155Q207 -149 163 -122Q120 -44 114 7Q123 54 130 89T142 147Q146 160 146 181Q146 223 119 281Q117 285 112 289T99 297Q91 301 86 304T76 309Q60 319 60 330Q60
339 74 350Q111 377 125 410T140 484Q140 507 137 529Q136 540 133 560T124 608Q109 674 109 714Q109 837 246 863Q253 864 258 864T266 865Q299 865 327 841Q337 832 337 823Q337 806 313 801Q263 791 236 765T209 699Q209 696 209 691T211 679Q215 655 218 637T224
608Q237 544 242 499Q244 479 245 464T246 439Q246 383 214 346Q207 338 207 324Q207 317 210 312Q250 250 250 173Q250 119 234 62Q230 46 229 32T227 5Q227 -41 246 -89Q247 -94 259 -104Q269 -113 272 -117Q273 -118 275 -121T282 -130Q289 -140 286 -145Q281
-151 270 -157T252 -163Z" />
<glyph unicode="|" glyph-name="bar" horiz-adv-x="280" d="M89 -177Q59 -177 60 -143L80 149Q84 208 91 297T109 506V521Q110 533 110 542T111 558Q111 591 102 613T68 645Q78 709 127 747Q134 754 150 754Q169 754 183 744Q230 711 230 633Q230 623 230 616T229
604Q225 564 222 504T215 364Q211 258 195 135T151 -129Q147 -149 128 -163T89 -177Z" />
<glyph unicode="}" glyph-name="braceright" horiz-adv-x="398" d="M165 -163L154 -162Q138 -161 108 -143Q104 -141 99 -138T85 -130Q89 -127 93 -124T102 -117Q111 -109 117 -108Q156 -93 169 -68T181 -7L179 22Q176 84 173 130T165 207Q164 211 164 217T164
230Q164 295 212 362Q146 425 146 503Q146 530 158 584L164 614Q169 637 170 654Q171 663 171 676T172 709Q172 733 171 753T167 791Q165 801 156 809Q151 813 144 818T127 830Q118 837 101 845Q88 853 81 857T73 862Q67 869 65 879Q64 884 63 888T60 894Q64 895
68 896T80 900Q92 904 101 902Q211 880 258 812Q282 775 282 723Q282 716 282 706T280 683Q277 646 271 599Q268 576 266 560T263 535Q261 524 259 505T253 459Q250 431 262 419T309 397Q322 394 334 385T348 369Q349 358 342 345T325 325Q273 285 271 236Q271
211 271 181T273 125T275 90L277 60L280 17Q284 -41 283 -71Q281 -94 264 -114Q247 -136 165 -163Z" />
<glyph unicode="~" glyph-name="asciitilde" horiz-adv-x="678" d="M461 359Q446 359 430 361T396 367Q383 370 367 378T333 397Q299 417 274 427T217 440Q206 438 191 433T155 420Q103 399 82 399Q63 399 60 417Q74 477 113 502Q159 532 205 533Q244 534 284
508L302 496Q350 464 375 453Q399 441 430 441Q449 441 468 445T526 460Q530 461 533 462T539 465Q542 466 545 467T550 469Q568 477 580 477Q606 477 628 449Q628 408 585 389Q521 359 461 359Z" />
<glyph unicode="&#xa0;" glyph-name="uni00A0" horiz-adv-x="250" />
<glyph unicode="&#xa1;" glyph-name="exclamdown" horiz-adv-x="301" d="M193 243Q178 243 163 253T137 279T127 311Q127 323 134 332T156 350Q161 352 164 355Q175 367 183 373T200 379Q209 379 219 372Q232 364 241 344T251 305Q251 303 251 300T249 293Q243
273 227 258T193 243ZM124 -298Q86 -288 73 -275T60 -228Q60 -210 61 -194T64 -164Q75 -106 91 -20T129 182Q173 176 198 149T224 83Q224 71 219 51Q207 8 201 -24L189 -78Q185 -94 181 -114T172 -157L166 -187Q158 -228 150 -252T124 -298Z" />
<glyph unicode="&#xa2;" glyph-name="cent" horiz-adv-x="470" d="M231 -22L214 -8L208 12Q195 54 195 111Q160 117 136 133Q60 181 60 252Q60 256 60 261T62 275Q74 336 94 384T155 471Q180 493 197 500L198 513Q198 567 221 587Q242 598 256 597L265 596L266
502L272 500Q292 493 307 487T333 474Q356 459 356 436Q356 417 341 404T308 392L304 393L301 396Q296 405 267 434L266 435V381L268 181Q299 190 350 221Q353 223 357 225T368 231L373 234Q386 242 393 242Q401 242 411 236T425 222Q426 219 426 216T427 210Q427
195 419 187Q367 126 293 115L267 111Q266 63 255 33Q252 -16 231 -22ZM194 179Q194 224 194 283T196 417Q178 392 168 363T146 289Q142 276 142 258Q142 225 166 198Q171 192 178 188T194 179Z" />
<glyph unicode="&#xa3;" glyph-name="sterling" horiz-adv-x="669" d="M209 34Q199 34 197 40V42Q196 43 197 44Q162 57 167 95Q169 115 173 153T184 247L193 331Q122 336 80 366Q60 380 60 395Q60 404 66 414L68 417H72L75 418Q78 418 80 419Q84 419 87 418Q101
414 120 413T161 411Q175 411 185 411T202 412Q204 431 206 448T209 479Q214 553 252 621Q287 684 323 720Q343 740 371 752T430 765Q516 769 575 739Q594 728 603 719T613 696Q613 677 583 648L577 643L572 649L563 658Q549 672 546 678Q537 692 520 694Q516 695
512 695T500 695Q464 695 428 678Q425 677 419 671Q417 668 416 667T413 664L404 653Q304 555 300 422L335 429Q338 430 350 430Q390 430 424 405Q443 392 441 375Q441 369 435 362T416 349Q406 345 396 343T376 339L294 333L276 159Q275 147 274 138T272 122Q313
123 373 123T515 123H539Q575 123 596 105T618 55L619 48H611L552 46Q510 45 478 44T424 42L384 41L219 35Q216 34 209 34Z" />
<glyph unicode="&#xa4;" glyph-name="currency" horiz-adv-x="589" d="M116 41Q100 41 86 48Q60 60 60 85Q60 98 69 111Q77 122 90 135Q97 141 101 145T108 152L144 186Q139 200 133 215T120 247Q106 287 106 324Q106 329 106 336T108 353Q110 391 129 404Q136
410 151 413Q158 414 162 415T170 417L184 425Q183 429 181 437T174 451Q173 453 167 459T150 476L126 501Q113 515 102 537Q100 543 100 544Q100 552 105 558T117 568Q125 572 138 572Q154 572 171 561Q177 557 186 549T207 530L225 513Q248 522 268 522Q297 522
323 510T386 471L406 485Q415 492 422 497T434 504Q442 509 457 517T495 536Q504 540 508 540Q520 540 530 530Q539 521 539 508Q539 501 536 495Q529 477 509 453Q496 435 464 402L442 377Q449 350 452 328T456 286Q456 242 438 204L496 142Q511 126 511 108Q511
97 507 90Q501 81 488 81Q469 81 450 94L419 115L386 137Q378 136 369 134T348 129Q312 120 291 120Q278 120 261 123L238 127L208 133Q196 117 186 102T167 73Q147 41 116 41ZM268 196Q280 196 283 197Q313 200 339 223Q376 257 376 301L375 313Q369 361 351 396T293
456Q288 451 276 440T254 422Q244 415 230 410Q223 408 219 406T212 403L207 373Q204 346 198 321Q197 317 197 312T196 299Q196 273 208 240Q225 196 268 196Z" />
<glyph unicode="&#xa5;" glyph-name="yen" horiz-adv-x="577" d="M334 -25Q330 -25 325 -24T312 -21Q276 -10 274 26Q273 31 273 38T273 55Q273 68 273 77T272 93Q271 109 266 114T244 120Q241 121 232 121Q225 121 220 121T210 122Q194 127 177 137Q163 148 163
164Q163 171 166 177Q170 183 177 188T192 195Q194 196 201 196Q203 196 206 196T214 194L222 193Q230 193 232 192Q240 191 245 191T255 190L260 191L261 192Q266 200 266 207Q266 211 265 222T259 253Q252 257 239 257Q228 257 216 254L206 253Q203 252 191 252Q163
252 147 268Q131 281 131 294Q131 299 134 305Q142 319 161 324Q166 325 174 325T193 325Q199 325 203 325T212 326H223Q232 326 240 327T255 332Q256 335 256 344Q256 366 241 385L222 408L208 423L190 445L171 467Q155 487 147 498T137 510Q136 514 129 522Q111
545 101 557T76 578Q65 586 62 595L60 612Q60 616 60 619T62 625Q65 632 73 635T87 639Q119 642 142 615Q149 608 158 596T181 566L191 552Q215 518 234 494T270 453L283 442Q286 441 287 438L291 441L302 452L311 464Q328 487 341 507T365 543Q375 559 387 580T414
630L420 640Q438 673 466 673Q468 673 472 673T482 671Q507 667 513 649Q515 641 515 638Q515 625 506 611L485 580Q478 570 471 561T459 542L389 426L379 408L373 398Q367 388 363 375Q360 360 360 350Q360 341 363 336Q370 329 398 330H432Q445 330 454 330T471
329Q509 325 525 290L527 285L524 282Q511 269 496 266T460 264Q457 265 447 265Q437 265 434 264Q428 263 420 263T400 262Q372 262 355 256Q353 237 352 225T351 207Q351 192 355 180Q368 178 378 177T395 176Q419 176 453 184Q458 185 462 185T468 186Q486 186
506 172Q512 169 515 163T518 149Q518 132 503 127Q490 122 476 119T448 113Q442 112 433 112T411 111Q403 111 397 111T386 110Q377 110 371 109T361 107L355 106Q350 94 350 81Q350 69 358 42Q367 12 365 -9V-11L363 -13Q350 -25 334 -25ZM137 510Q137 510 137
510T137 510V510Z" />
<glyph unicode="&#xa6;" glyph-name="brokenbar" horiz-adv-x="283" d="M132 438Q113 438 101 453Q86 472 78 486T68 514Q65 558 63 624T60 778Q60 798 73 809T108 820Q140 819 163 798T187 745Q188 738 188 729T186 708L185 681V632L176 481Q175 451 153 442Q141
438 132 438ZM195 0Q183 0 175 4Q141 18 130 46Q126 56 124 64T120 77L99 208Q93 249 89 280T80 331Q79 362 104 377Q116 383 129 383Q142 383 157 374Q212 340 215 284L217 260Q220 221 220 182Q221 136 223 106T232 45Q233 43 233 36Q233 20 222 10T195 0Z" />
<glyph unicode="&#xa7;" glyph-name="section" horiz-adv-x="593" d="M120 -208Q93 -208 77 -190T60 -141L61 -128Q61 -124 61 -120T63 -112L66 -97Q121 -96 162 -72T242 -4Q268 28 268 63Q268 88 256 113L251 125Q225 129 200 150T170 196V198Q170 201 171 205T174
212L182 215Q189 211 197 209T216 204Q182 278 159 318Q107 409 107 503Q107 562 128 622Q148 678 178 719T258 782L271 790Q297 805 308 807L302 857Q301 862 301 868T301 883Q301 978 369 1064Q406 1112 461 1112Q492 1112 520 1096Q541 1086 541 1069Q541 1053
522 1044Q460 1013 436 965T411 850Q411 840 412 825T415 788Q428 652 508 493L516 475Q543 418 543 360Q543 293 504 239T389 153Q361 142 324 133Q339 73 339 38Q339 -19 312 -69Q285 -118 147 -204Q135 -208 120 -208ZM295 219Q303 223 312 229T332 242Q381
279 419 334Q436 360 436 390Q436 416 422 452L362 598Q343 645 332 685Q329 682 317 676Q249 646 211 584Q186 541 187 500Q187 469 199 434Q206 415 218 387T249 321Q266 285 278 260T295 219Z" />
<glyph unicode="&#xa8;" glyph-name="dieresis" horiz-adv-x="404" d="M116 461Q103 462 81 480L61 491L83 528Q102 529 118 522T146 482Q144 474 133 467T116 461ZM324 434Q311 434 301 440T270 462L249 480Q257 482 263 485T277 493Q303 505 312 505Q330 504
341 493T353 463Q353 449 345 442T324 434Z" />
<glyph unicode="&#xa9;" glyph-name="copyright" horiz-adv-x="504" d="M241 360Q200 360 164 378Q105 405 82 480Q77 497 72 522T62 581Q61 589 61 594T60 604Q60 635 72 672Q78 699 100 711Q113 719 123 724T141 732Q176 742 207 746T266 751Q303 751 340 733Q377
715 439 627Q454 576 454 546Q454 475 407 428Q370 391 320 368Q313 366 306 364T289 361Q279 360 271 361H258Q255 360 251 360T241 360ZM254 399Q294 399 322 412T375 454Q398 481 412 522Q419 542 419 566Q419 600 399 631L376 662Q364 676 353 684T327 694L320
698L311 701Q307 702 301 703T287 706Q269 709 256 709Q220 709 157 692Q118 681 110 640Q108 628 107 615T105 585Q105 519 137 450Q149 427 178 412Q205 399 254 399ZM260 470Q217 470 185 494Q153 517 153 554Q153 581 168 599Q170 601 172 604T179 612Q186
622 196 627Q208 634 223 641T257 656Q265 659 284 659Q304 657 313 639Q316 633 316 628Q316 618 307 609L281 606Q240 601 207 564Q202 556 202 552Q202 542 211 537Q228 526 240 525Q250 523 257 523T269 522Q277 522 282 522T291 521H302Q310 519 325 506Q328
498 320 489T299 475Q288 473 278 472T260 470Z" />
<glyph unicode="&#xaa;" glyph-name="ordfeminine" horiz-adv-x="409" d="M133 430Q107 430 81 451Q72 458 68 470T61 495Q57 519 69 566Q76 591 93 633Q106 664 131 681T187 698Q200 698 213 695Q218 694 225 689Q229 686 231 684T236 681Q205 669 179 646T136
594T120 531Q120 523 120 517T122 507Q130 496 140 496Q151 496 165 513Q179 533 190 555T212 603L217 619Q218 627 235 638L244 636Q269 628 267 604L266 574Q265 559 265 548T265 528Q266 521 267 513T273 495Q278 484 285 484Q291 484 299 489L314 499Q324 506
335 506Q345 506 353 495Q359 486 359 477Q359 465 346 452Q324 430 294 431Q276 431 258 440T226 466Q214 482 208 482Q203 482 192 465Q169 430 133 430Z" />
<glyph unicode="&#xab;" glyph-name="guillemotleft" d="M321 80Q316 80 311 83Q297 94 277 106T230 133Q207 145 186 158T148 184Q138 192 128 201T107 221L91 237Q60 263 60 303Q60 332 79 351Q118 392 152 428T216 497L256 538Q260 543 266 551T279 564Q282
567 296 579T324 596Q328 597 338 584T350 561L351 545Q351 512 338 499Q310 471 281 443T223 386L193 359Q176 342 176 330Q176 316 195 300Q238 262 262 239T308 189Q317 179 321 172T329 153T342 118Q343 117 343 112Q343 108 341 102T338 92Q336 87 331 83Q327
80 321 80ZM459 179L438 185Q409 191 396 201Q363 225 329 256L288 292Q269 312 267 331Q266 354 296 377Q328 400 363 431T436 501Q451 516 461 522T480 528Q496 528 521 507Q534 495 534 480Q534 458 511 435Q491 415 431 379Q413 368 401 360T382 347Q373 340
373 331Q373 320 382 309T407 280L421 265Q425 261 436 250T466 219L481 204L459 179Z" />
<glyph unicode="&#xac;" glyph-name="logicalnot" horiz-adv-x="873" d="M765 95Q744 95 727 107T707 140Q706 148 706 154T705 164L706 196Q706 207 706 216T705 230Q705 253 705 270T703 299Q701 327 688 339T648 353L624 354Q611 354 591 353T545 350L149 319L131
318Q117 318 102 321Q79 327 69 340Q64 347 62 357T61 376Q62 382 69 387T84 394Q96 396 113 396T139 397H220L312 403Q378 407 426 410T504 416Q575 421 717 437Q745 440 768 428T815 394Q820 389 822 380T822 365Q804 316 804 248Q804 238 804 223T806 186Q807
172 807 162T808 145L809 135Q809 133 809 130T807 121Q803 108 794 103Q780 95 765 95Z" />
<glyph unicode="&#xad;" glyph-name="uni00AD" horiz-adv-x="554" d="M164 199Q114 199 70 233Q50 247 50 264Q50 283 79 297Q92 302 105 306T131 311L179 314Q268 320 297 323Q351 323 396 312T480 272Q492 263 498 256T504 239Q504 228 497 218Q480 215 478
216Q456 221 430 224T372 227Q348 231 320 229T257 220L224 213Q215 212 186 201Q179 200 174 200T164 199Z" />
<glyph unicode="&#xae;" glyph-name="registered" horiz-adv-x="504" d="M258 362Q207 359 164 379Q104 407 82 482Q77 498 72 523T62 583Q61 591 61 596T60 606Q60 637 72 674Q78 700 100 713Q113 721 123 726T141 733Q204 752 266 752Q303 752 340 734Q376 716
439 629Q454 577 454 547Q454 477 407 430Q370 391 320 370Q313 368 306 366T289 363Q285 362 281 362T272 362H258ZM249 401Q291 400 320 412T375 455Q400 485 412 524Q419 544 419 568Q419 601 399 632Q398 634 376 664Q364 678 353 686T327 696Q324 696 319
699L311 702Q308 703 292 707T262 711Q243 711 217 707T157 694Q117 682 110 642Q108 630 107 617T105 587Q105 519 137 452Q149 429 178 414Q207 399 249 401ZM305 455Q300 455 293 459Q280 467 263 483Q262 485 255 492Q247 498 227 507Q226 497 225 489T223
476Q221 465 213 463L209 462Q205 462 197 467Q185 476 184 492Q183 519 183 539T182 573Q181 576 182 580V584Q182 617 205 636T259 655Q277 655 290 649Q305 643 305 631L303 621Q298 607 288 592Q286 588 278 577T256 546L277 524Q312 488 322 467Q315 455 305
455ZM230 577Q244 589 251 600T260 628Q239 624 229 617Q220 611 220 602Q220 593 230 577Z" />
<glyph unicode="&#xaf;" glyph-name="overscore" horiz-adv-x="498" d="M154 616Q117 616 96 626Q94 627 91 628T83 634L60 664Q64 667 71 674T82 685Q90 693 100 695Q103 695 108 695T120 696Q131 698 184 690Q252 681 305 675T397 665Q402 664 409 663T424 658Q432
654 438 652T448 648Q444 644 441 641T434 632Q427 623 422 623L370 621Q352 621 315 620T234 617T154 616Z" />
<glyph unicode="&#xb0;" glyph-name="degree" horiz-adv-x="365" d="M184 589Q121 593 89 630T61 728Q62 749 75 763T110 790Q118 794 133 809L150 823Q172 841 184 839Q222 831 248 820T290 785Q315 750 315 714Q315 691 295 659Q275 626 184 589ZM180 651Q195
651 208 656Q223 662 234 685T245 731Q245 746 241 753Q232 775 216 790T175 804Q173 803 169 801T157 796Q142 790 140 785Q129 750 129 707Q129 678 150 657Q164 651 180 651Z" />
<glyph unicode="&#xb1;" glyph-name="plusminus" horiz-adv-x="537" d="M253 180Q248 182 244 189T239 203Q238 211 237 222T236 240Q236 249 236 256T235 267Q235 269 234 277T228 298L165 309Q138 315 124 320T96 339Q91 344 89 351T88 365Q89 370 94 376T106
384Q119 388 141 387L161 385L182 382Q186 381 198 381Q221 381 221 404Q221 409 221 412T220 419L207 500Q205 515 212 525T234 538Q237 539 248 539Q286 539 298 502Q300 497 301 491T303 477Q304 470 304 465T305 455Q306 451 306 446T307 436Q307 424 319 398Q333
395 347 395Q368 395 405 401Q413 402 419 402T429 403Q448 403 462 396Q473 390 483 377Q487 373 487 365Q487 352 476 347Q445 338 413 332L389 327Q367 323 349 319T317 307L305 232Q301 201 279 187Q265 178 253 180ZM141 25Q107 25 75 45Q65 51 62 59T60 81Q63
99 82 106Q97 111 107 111Q109 111 113 111T122 109Q159 99 198 95T290 89Q306 88 323 86T357 81L400 74Q414 73 426 61Q428 59 428 54Q428 45 424 41Q416 32 405 30T375 27Q355 26 324 26T252 26V25H141Z" />
<glyph unicode="&#xb2;" glyph-name="uni00B2" horiz-adv-x="416" d="M215 366Q187 366 145 382Q138 385 132 397T127 418Q129 433 137 463T159 539Q186 631 189 654Q154 659 135 619Q114 579 108 579L92 578Q76 578 68 590Q60 604 60 614Q60 624 66 633Q91 666
105 677Q126 695 154 704T208 714T252 703T270 669Q270 660 268 654Q258 614 229 531L222 511Q220 504 213 489Q210 482 207 470T200 441L201 431Q215 424 234 424Q242 424 254 426T282 432Q316 440 331 440Q351 440 366 433Q365 429 364 425T361 414Q358 401 352
396Q326 386 296 379T231 367Q229 366 225 366T215 366Z" />
<glyph unicode="&#xb3;" glyph-name="uni00B3" horiz-adv-x="255" d="M125 374Q101 374 60 392Q63 393 71 397L80 400Q106 402 123 412T152 448Q177 502 177 551Q177 555 177 560T175 572Q170 598 157 598Q149 598 138 591L85 555Q67 546 44 562Q43 562 43 564Q43
571 50 579L79 620L106 660Q110 664 113 677L101 697Q97 697 82 694Q60 689 53 689Q32 689 25 693Q23 700 24 712Q25 726 40 733T78 742T119 740Q145 740 164 726T183 693Q183 680 167 660L147 633Q173 631 189 628T219 608T244 550Q244 508 239 475T208 412Q190
389 168 382T125 374Z" />
<glyph unicode="&#xb4;" glyph-name="acute" horiz-adv-x="350" d="M84 500Q75 500 60 505Q61 527 61 536T67 553T85 575Q159 658 190 749Q198 774 226 799Q237 808 249 808Q270 808 282 791Q300 766 300 734Q300 704 284 685Q211 594 142 528Q114 500 84 500Z" />
<glyph unicode="&#xb5;" glyph-name="uni00B5" horiz-adv-x="663" d="M92 -226Q80 -226 71 -216T60 -193Q60 -167 64 -158Q94 -47 108 72T126 325L128 399Q128 454 131 509Q132 532 135 551T144 585Q157 617 189 617Q205 617 220 608Q245 595 241 574Q237 557
237 531Q237 512 240 488T248 435Q252 413 257 370Q259 347 263 330T277 300Q293 299 301 305T319 327Q347 371 365 401T397 457T419 513Q423 525 428 536T442 557Q459 578 485 578Q512 578 525 565T541 527L544 494Q550 432 555 386T566 310Q574 259 593 188L602
151Q603 149 604 145T607 135Q609 130 610 126T612 118Q613 115 613 108Q613 78 580 78Q549 78 534 89T511 130Q504 159 495 202T475 303Q471 317 467 340T456 394L437 370Q433 365 428 359T416 344L391 306L366 267Q330 213 272 213Q253 213 238 217Q231 218 226
218T217 219Q214 219 206 215L199 163Q185 60 175 -17T156 -146Q151 -175 141 -193Q129 -212 105 -223Q99 -226 92 -226Z" />
<glyph unicode="&#xb6;" glyph-name="paragraph" horiz-adv-x="509" d="M386 -64Q369 -64 364 -58T358 -38Q358 -33 358 -28T359 -18Q360 -13 360 -8T360 5L359 143Q359 228 360 291T363 398Q361 428 357 438Q351 449 338 449Q328 449 304 442L293 439Q290 438
287 437T278 435Q274 434 269 434T257 434Q188 434 117 498Q96 516 85 532T68 571T61 626Q60 630 60 635T60 648Q60 682 66 709T98 762T182 816L207 821Q222 825 231 825Q247 826 258 826T274 827Q309 827 339 821T410 800Q438 789 448 772T459 723Q458 683 458
616T458 455V186Q458 170 457 138T456 69T455 4Q455 -24 435 -44T386 -64ZM255 508Q272 508 291 514T326 529T343 548Q344 551 344 559Q344 563 344 567T343 576Q342 585 342 585Q341 589 340 598T338 624Q337 690 326 699Q314 709 295 715T254 721Q226 721 201
710T162 675Q145 646 145 620Q145 587 170 558T243 509Q245 508 255 508Z" />
<glyph unicode="&#xb7;" glyph-name="middot" horiz-adv-x="229" d="M112 178Q76 184 63 212Q62 216 61 224T60 237Q71 262 92 278T137 294Q154 294 166 281T179 243Q179 226 171 210Q162 195 118 178H112Z" />
<glyph unicode="&#xb8;" glyph-name="cedilla" horiz-adv-x="277" d="M127 -215Q103 -215 75 -195Q70 -190 70 -183Q70 -171 78 -168Q87 -164 98 -161L117 -155L140 -143Q155 -134 155 -123Q155 -114 144 -105L122 -88Q114 -82 106 -76T91 -63Q75 -47 69 -37T60
-12Q59 6 84 6Q104 6 114 -6Q119 -10 123 -21Q128 -33 133 -38Q141 -45 148 -49T162 -57Q176 -64 186 -72Q213 -92 226 -122Q227 -126 227 -130T227 -139Q227 -152 223 -156Q206 -179 195 -186Q192 -188 178 -197T148 -211Q136 -215 127 -215Z" />
<glyph unicode="&#xb9;" glyph-name="uni00B9" horiz-adv-x="336" d="M251 376Q215 374 207 403Q205 411 203 421T200 441Q199 452 198 458T196 468L184 570Q183 578 182 590T179 620L60 617Q91 655 120 677T187 716Q201 722 212 722Q233 722 250 690Q258 674
262 661T267 637Q269 600 272 544T278 412Q279 397 269 387T251 376Z" />
<glyph unicode="&#xba;" glyph-name="ordmasculine" horiz-adv-x="379" d="M190 418Q130 418 82 474Q69 489 66 505T60 563Q59 575 69 597Q70 599 71 602T73 609Q75 613 75 616T77 624Q81 654 92 662Q121 682 146 693T199 705Q224 705 253 694T298 664Q312 648
320 620T329 560Q329 529 320 503T292 462Q242 418 190 418ZM210 489Q225 495 238 508T257 534Q260 542 260 550Q260 575 244 603T206 639Q184 648 163 648Q134 648 113 626Q112 625 111 620T105 606Q97 589 100 583Q108 567 121 549T153 512Q178 487 210 489Z"
/>
<glyph unicode="&#xbb;" glyph-name="guillemotright" horiz-adv-x="571" d="M216 99L201 110Q203 115 205 121T212 138Q215 148 218 155T226 170Q244 196 264 218T317 273Q371 327 399 364Q406 371 406 382Q406 390 399 398T379 417Q313 473 283 509Q274 519
270 547L265 568Q269 568 274 568T287 570L309 571Q323 571 330 566Q362 539 405 499T501 403Q521 383 521 363Q521 342 497 319Q474 297 451 277T402 236Q364 203 341 182T307 152Q291 138 270 127Q259 122 253 119T245 114L216 99ZM98 202Q82 202 64 205Q66 209
67 215T71 229Q76 245 81 253Q86 261 92 268T106 282Q114 289 123 298T145 319L202 376Q207 383 207 391Q207 399 199 409Q195 413 187 420T164 439Q113 479 89 509Q81 517 73 531T60 553Q72 561 84 565T107 570Q136 572 168 543Q242 479 321 393Q337 377 337 364Q337
356 329 348Q322 341 302 330Q277 315 256 297T197 243Q155 202 98 202Z" />
<glyph unicode="&#xbc;" glyph-name="onequarter" horiz-adv-x="821" d="M273 355Q267 355 260 359T250 369Q247 380 243 399T233 444Q232 449 231 455T229 470Q226 496 222 510T204 540Q200 555 193 555Q189 555 182 550Q176 544 168 533Q167 532 165 530T159
523Q155 519 152 517T146 512Q134 507 120 507Q95 507 75 528Q60 545 60 562Q60 572 66 582Q111 659 211 723Q231 735 245 735Q278 735 278 683Q278 680 278 674T276 659Q275 631 300 409Q303 392 294 371Q291 366 285 361T273 355ZM197 52Q195 54 192 56T184 61Q176
66 175 69Q174 71 174 78Q174 93 180 102L186 111L194 122Q226 171 255 214T312 295Q423 450 519 571Q522 574 538 598Q557 626 571 640T606 657Q609 658 623 658Q643 658 656 651Q673 642 673 625Q673 613 663 600L552 458Q508 400 465 346T380 238Q357 210 321
170T236 78Q228 70 217 63L197 52ZM634 29Q627 29 623 35T615 51Q611 61 606 72T596 96Q578 105 556 105Q548 105 538 104T522 102Q507 99 490 99Q436 99 424 147Q421 159 421 172Q421 181 422 184Q425 194 434 210T460 249Q491 295 588 383H591Q594 383 615 375Q619
373 632 339Q646 305 668 201Q669 175 679 167T718 154Q725 153 737 154Q748 155 770 137Q778 117 718 108L674 103Q673 98 672 92T670 78Q667 62 664 55Q654 35 640 30Q639 29 634 29ZM588 159Q587 164 587 171T587 186Q586 200 585 211T583 230Q582 236 580 256Q579
275 574 281Q557 269 540 250T511 211T498 172L542 166L588 159Z" />
<glyph unicode="&#xbd;" glyph-name="onehalf" horiz-adv-x="736" d="M273 355Q267 355 260 359T250 369Q249 371 249 373T248 378Q247 380 246 383T244 390L236 420Q233 429 230 439T225 459Q223 467 222 479T218 507Q217 528 214 550T205 595Q205 603 200 603Q195
603 185 593T163 569Q138 538 129 535Q125 534 120 532T110 525Q99 518 92 518Q85 518 75 528Q60 545 60 562Q60 572 66 582Q111 659 211 723Q231 735 245 735Q278 735 278 683Q278 680 278 674T276 659Q275 631 300 409Q303 392 294 371Q291 366 285 361T273 355ZM197
52Q195 54 192 56T184 61Q176 66 175 69Q174 71 174 78Q174 93 180 102L186 111L194 122Q226 171 255 214T312 295Q423 450 519 571Q522 574 538 598Q557 626 571 640T606 657Q609 658 623 658Q643 658 656 651Q673 642 673 625Q673 613 663 600L552 458Q508 400
465 346T380 238Q357 210 321 170T236 78Q228 70 217 63L197 52ZM517 -7Q492 -11 469 14Q455 31 455 48Q455 58 461 70Q466 80 472 88T483 104L494 121Q514 149 529 172T558 216Q561 221 565 233L570 249H560Q552 249 547 249T538 247L515 235Q513 234 511 233T507
231Q505 230 502 229T496 225Q484 221 474 231T467 253Q468 257 469 260T471 264Q518 332 591 332Q623 332 642 316T661 274Q661 265 656 248Q649 229 635 209Q628 199 624 194T619 186Q612 176 602 161T578 126Q574 120 557 87Q601 84 630 78T686 55Q684 53 682
50T678 42Q673 34 668 32Q608 6 517 -7Z" />
<glyph unicode="&#xbe;" glyph-name="threequarters" horiz-adv-x="728" d="M108 340Q87 340 60 348Q58 362 65 369T94 387Q97 388 103 392Q105 393 107 394T113 397Q130 406 145 414T171 431Q198 451 216 481Q224 495 224 505Q224 536 179 544Q175 545 169 546T154
548L128 553Q107 559 107 577Q107 586 114 593Q119 598 132 608L149 623Q152 626 154 636Q155 641 155 644T156 651Q139 653 123 655T93 661Q84 662 79 668T73 681Q73 688 78 693Q93 707 121 715T179 724Q202 724 223 716Q239 709 250 694T261 664Q261 658 259
652Q255 642 250 632T236 610L225 592Q277 541 277 503Q277 472 244 428Q231 411 213 394T172 360Q144 340 108 340ZM102 52L89 60Q82 65 80 69Q79 71 79 78Q79 93 85 102L111 141Q145 193 171 231T216 295Q344 472 423 571Q426 574 442 598Q461 626 475 640T510
657Q513 658 517 658T527 658Q548 658 561 651Q577 641 577 625Q577 613 567 600Q549 577 536 560T514 531Q389 371 332 298T284 238Q265 214 241 187T197 139T168 107L141 78Q137 74 133 71T122 64Q115 60 111 57T102 52ZM542 -4Q530 -4 523 18L504 63Q486 72
464 72Q456 72 446 71T430 69Q414 66 397 66Q344 66 332 114Q329 126 329 139Q329 148 330 151Q333 161 342 177T368 216Q399 262 496 350H499Q502 350 523 342Q527 340 540 306Q554 272 576 168Q576 143 586 135T626 121Q633 120 645 121Q655 122 677 104Q686
84 626 75L581 70Q579 64 578 48Q577 40 575 34T571 22Q564 2 548 -3Q547 -4 542 -4ZM496 126L493 161Q492 193 490 197Q490 199 490 209T488 232T482 248Q465 236 448 217T419 178T406 139L451 132L496 126Z" />
<glyph unicode="&#xbf;" glyph-name="questiondown" horiz-adv-x="459" d="M356 569Q352 568 331 569Q310 571 278 676Q280 687 286 693Q290 697 291 699T294 702Q312 707 337 698T382 674T407 644Q410 632 402 615T381 585T356 569ZM339 -238Q326 -240 314 -238T278
-229Q176 -203 107 -124Q91 -106 81 -83T66 -32Q64 -20 63 -8T61 16Q54 129 139 208Q199 261 229 325T270 468Q270 474 272 483T276 496Q312 495 342 481T377 441Q379 426 374 411Q361 361 350 328T323 263Q324 241 272 196Q265 188 258 181T246 166L234 149Q216
124 204 106T184 77Q164 20 161 -37Q163 -47 168 -62T183 -99Q200 -122 224 -133T277 -140Q304 -135 332 -141T377 -190L379 -214Q361 -234 339 -238Z" />
<glyph unicode="&#xc0;" glyph-name="Agrave" horiz-adv-x="731" d="M431 726Q420 732 408 739T383 755Q370 763 340 785T262 844Q257 849 248 855T228 869Q217 891 216 892L228 918Q236 936 236 932Q236 930 245 934Q249 936 256 936Q280 936 309 917Q340 898
375 873T451 815Q476 796 476 770Q476 743 460 739Q454 726 431 726ZM633 0Q607 0 575 12Q562 16 559 25Q557 30 556 40T554 67L549 94Q533 182 524 230T511 289Q489 283 452 280Q430 277 416 274T393 269Q384 265 363 266L323 267Q296 269 282 261Q276 257 247
185Q237 159 231 144T222 123Q204 89 174 73T105 57Q84 57 70 68T50 108Q81 105 96 121T124 171L144 229Q148 240 161 274T191 352T223 434Q239 474 264 521T324 623Q341 650 365 664T417 678Q469 678 505 630Q519 611 531 588T560 527L578 489Q586 471 589 446Q594
401 629 390Q635 388 640 382Q642 378 644 375T649 369Q620 349 620 318Q620 301 629 269Q637 241 645 208T660 146T669 105L680 51Q681 49 681 41L680 15L658 6Q643 0 633 0ZM325 375Q343 378 368 378H403Q434 378 455 381T495 395Q491 406 483 424T460 469Q431
526 418 561Q381 502 360 461T325 375Z" />
<glyph unicode="&#xc1;" glyph-name="Aacute" horiz-adv-x="732" d="M222 726Q215 742 221 759Q228 774 248 784Q265 793 281 803T314 825L371 867Q402 891 427 877Q435 873 442 865Q467 840 469 830Q471 821 460 813Q446 788 397 757Q348 724 222 726ZM678 -19Q666
-12 657 -11Q634 -4 626 6Q541 98 489 164Q475 182 461 188T422 192Q401 190 385 189T357 188Q331 189 307 192T262 199Q249 202 236 202Q218 202 208 192T193 159Q183 130 174 108T156 71Q151 62 135 56T107 49Q100 49 98 50Q90 53 81 62T65 82T60 100Q74 173
84 228T106 331T131 426Q141 460 155 493T197 576L218 616Q226 633 250 648Q273 664 341 682Q393 672 418 646T455 570Q463 532 475 484T501 378L511 339Q517 317 531 303Q550 284 559 264T569 215Q569 202 576 189T598 154Q604 145 608 138T617 125Q634 100 649
72T681 12Q682 11 682 7Q682 4 682 1T681 -5L678 -19ZM416 295Q377 402 341 514Q296 514 279 470Q271 448 258 405T227 298L416 295Z" />
<glyph unicode="&#xc2;" glyph-name="Acircumflex" horiz-adv-x="662" d="M353 739Q339 739 329 746Q317 751 317 763Q317 772 326 781L364 814L420 862Q439 878 458 878Q489 878 505 842Q513 826 519 813T529 789Q530 787 530 781Q530 767 511 762Q490 759 477
772Q475 773 462 789L447 805L400 759Q382 741 356 739H353ZM559 -19Q517 -19 507 35L500 74Q494 100 482 175Q478 209 460 222Q458 223 455 223T446 224Q437 224 423 223T388 220Q360 217 351 217Q334 218 323 218T306 219Q281 219 265 217T236 202T209 154Q203
135 199 122T190 100Q182 84 168 74T136 61Q134 60 125 60Q96 60 78 81Q73 86 72 95T70 115L69 125Q69 127 69 130T71 139Q72 144 72 147T72 152Q72 156 72 158T70 163Q60 174 60 184Q60 191 66 195Q72 201 84 209L89 213Q127 239 144 269Q161 299 180 337T222
421L288 552Q293 562 303 577T327 614L338 631Q340 634 342 637T346 644Q348 648 351 652T356 661Q384 707 428 707Q435 707 442 706T459 702Q485 694 497 674T514 622L545 441L570 289Q572 276 575 257T584 211L611 49Q612 47 612 44T612 36Q612 11 599 -2Q587
-19 559 -19ZM266 281L460 287L415 558L266 281Z" />
<glyph unicode="&#xc3;" glyph-name="Atilde" horiz-adv-x="757" d="M567 779Q543 779 520 785Q513 787 500 792T466 805L422 826Q400 817 385 811T359 801Q351 797 338 797Q322 797 311 808Q306 813 304 819T304 829Q321 846 337 860T366 884Q380 895 402 895Q413
895 423 892Q442 887 458 881T488 867L510 855Q516 851 527 847T555 839Q573 839 585 845T619 884Q630 901 654 901Q671 901 686 892Q707 880 707 860Q707 848 698 836Q679 810 643 795T567 779ZM635 -19Q633 -19 630 -19T621 -17Q598 -12 580 42Q570 68 562 98T545
161Q544 169 500 174Q478 176 453 177T396 178Q359 178 325 177T282 173Q244 166 227 133Q217 115 206 95T181 51Q162 17 129 17Q99 17 75 44Q60 61 60 77Q60 88 66 100Q87 143 117 198T185 321Q223 389 288 481T445 691Q470 702 494 702Q524 702 549 687T589 642Q595
631 601 597T614 519T625 430T633 356Q633 321 640 266T660 120L669 61Q671 42 672 31T673 16Q672 0 662 -9T635 -19ZM493 264Q501 264 509 264T527 266Q527 276 527 283T526 295Q525 396 520 469T506 585Q489 582 442 519Q396 456 292 279Q312 282 331 282Q345
282 365 280T413 272Q420 271 445 268T493 264Z" />
<glyph unicode="&#xc4;" glyph-name="Adieresis" horiz-adv-x="710" d="M332 772Q317 776 303 785T285 796Q281 798 276 801T264 809L291 854Q322 855 346 840T370 806Q370 805 370 803T368 797Q364 788 352 779T332 772ZM625 735Q617 735 609 738Q592 744 566
767Q553 777 545 783T533 792Q538 794 547 798T569 809Q581 815 591 819T610 823Q632 821 646 808T660 772Q660 754 650 745T625 735ZM582 -19Q538 -19 528 37L520 78Q517 92 513 119T501 184Q496 220 478 233Q476 234 473 234T464 235Q454 235 439 234T403 231Q375
228 364 228L317 230Q291 230 275 228T245 212T216 162Q209 142 205 128T196 106Q179 70 140 65Q137 64 128 64Q98 64 79 86Q74 91 73 101T70 121L69 132Q69 134 69 137T71 146Q72 151 72 154T73 160Q73 167 70 171Q60 184 60 193Q60 201 66 205Q68 207 73 211T85
220L90 224Q110 238 125 252T148 282Q183 345 229 441L299 578Q304 588 314 604T339 643L351 661L359 675Q361 679 364 683T370 692Q399 740 445 740Q457 740 477 735Q505 727 517 706T535 652L567 462L594 303Q596 290 599 270T608 222L636 52Q637 50 637 47T637
39Q637 12 624 -1Q611 -19 582 -19ZM275 295L478 301L431 585L275 295Z" />
<glyph unicode="&#xc5;" glyph-name="Aring" horiz-adv-x="704" d="M527 679Q494 679 461 696T418 741Q409 767 409 789Q409 856 481 882Q489 885 498 885Q519 885 544 866Q548 864 552 861T564 856Q570 854 574 852T583 848Q591 844 598 838T607 827Q615 790
615 775Q615 750 602 728Q579 692 555 684Q540 679 527 679ZM512 744Q524 744 536 748T556 759Q574 782 574 798Q574 804 569 816Q567 817 558 826Q550 834 546 833Q523 833 493 818Q475 810 466 790Q467 780 472 770T483 753Q491 744 512 744ZM617 -29Q615 -29
612 -29T603 -27Q588 -23 575 1T551 64T529 145Q528 153 486 158Q466 160 441 161T386 162Q350 162 317 160T275 157Q238 153 221 118Q205 83 177 38Q158 8 126 6Q97 4 74 32Q60 49 60 64Q60 76 66 86Q110 167 183 299Q255 431 432 659Q455 669 480 669Q509 669
534 654T572 611Q577 600 583 567T595 491T607 406T615 334Q615 301 622 247T641 106Q643 95 645 81T650 48Q652 30 653 20T654 5Q653 -11 643 -20T617 -29ZM479 245Q487 245 495 245T512 247Q512 256 512 263T511 275Q510 373 505 443T492 556Q473 553 430 492Q408
461 372 404T285 260Q304 264 322 263Q336 262 356 260T402 253Q409 252 433 249T479 245Z" />
<glyph unicode="&#xc6;" glyph-name="AE" horiz-adv-x="1023" d="M520 -19Q462 -19 430 148Q426 168 418 176T396 184Q390 184 376 181Q369 180 364 179T353 177Q349 176 344 176T334 173Q322 170 313 170H267Q241 170 228 163Q214 156 191 60Q190 55 189 49T183
36Q179 29 176 23T171 13Q149 0 131 0Q123 0 108 4Q100 6 93 7T78 9Q60 32 60 60Q60 77 70 100L96 160Q144 270 182 354T256 512T334 659Q364 713 409 713Q425 713 434 709Q445 707 454 706T470 704Q493 704 520 710T555 718Q608 727 633 733L672 741Q683 743 696
746T726 751Q740 753 751 754T769 755Q807 755 835 734Q842 728 848 719T853 702Q853 694 846 686T831 673Q820 668 796 664L771 659L734 650Q693 640 665 632T623 619Q583 605 525 577L490 562Q489 546 489 533T488 511Q488 461 495 411T517 308Q527 306 542 305T580
304Q646 304 806 316L859 320H866Q882 320 889 314Q898 309 904 301T912 284Q914 277 908 266T896 253Q888 251 841 243T707 221Q561 199 554 195Q548 192 543 183T537 164Q537 161 538 148T542 121T547 95T552 83Q563 81 575 80T601 78Q626 78 652 82T714 94Q737
99 755 102T784 107Q800 110 818 111T852 112T871 113H897Q924 113 943 104T973 72Q968 49 953 40T912 28Q892 24 862 20T790 11Q770 9 755 8T729 4Q714 2 697 1T661 0Q615 -2 590 -4T537 -16Q528 -19 520 -19ZM337 259Q372 259 392 269T409 299L403 342Q402 349
399 372T390 436Q380 516 372 536Q354 518 328 463Q315 436 298 388T257 270Q303 259 337 259Z" />
<glyph unicode="&#xc7;" glyph-name="Ccedilla" horiz-adv-x="660" d="M356 -274Q330 -274 309 -267Q300 -265 296 -257T291 -240Q291 -230 296 -225Q298 -222 307 -213Q311 -210 314 -207T320 -201Q322 -199 326 -195T336 -186Q346 -176 354 -163Q376 -128 376
-94Q376 -45 329 -13Q316 -5 300 8T265 39Q238 65 221 79T183 104Q149 122 119 183Q60 303 60 439Q60 467 63 496T71 557Q80 615 135 676Q154 698 195 709T287 720Q342 720 391 708T462 672Q475 660 478 653Q480 646 481 641T482 631Q482 626 479 621Q473 612 463
605T444 598Q432 598 417 604L398 610Q374 617 337 617Q296 617 259 607T198 578T167 529Q162 500 159 473T156 419Q156 302 207 194Q243 121 338 121Q379 121 419 132T507 162L532 174Q555 185 569 189Q573 190 576 190T580 191Q594 191 603 179T609 150Q601 114
568 98Q529 77 487 59L448 40Q453 27 458 16T467 -4Q477 -29 483 -46T493 -73Q500 -94 500 -118Q500 -164 474 -200T409 -260Q384 -274 356 -274Z" />
<glyph unicode="&#xc8;" glyph-name="Egrave" horiz-adv-x="724" d="M435 763Q419 763 372 779Q347 787 317 795T252 810Q221 816 204 830T187 862Q187 870 194 885T208 911Q215 921 334 900Q422 884 474 864T526 828Q526 818 513 811T490 789Q469 763 435 763ZM187
554Q163 554 149 559T120 584Q116 588 116 607Q116 624 127 638Q154 674 194 687T286 701Q336 701 392 695T510 676Q536 671 557 658T586 628L579 604L520 610L386 607Q317 607 237 566Q213 554 187 554ZM363 -27Q294 -31 229 5Q163 40 74 237Q70 258 67 286T60
349Q61 393 61 416T61 443Q61 446 61 449T62 455Q79 542 86 542Q123 539 142 526T173 495T200 466T244 453Q282 458 320 461T396 467Q481 472 499 456Q509 448 519 439T541 422Q549 417 538 407T510 387T480 375Q380 359 248 351Q186 348 186 300Q186 295 188 282T194
245Q201 200 245 105Q252 98 274 87Q292 77 347 88Q416 102 556 151L637 180L651 186Q663 191 672 191Q692 191 702 179T713 151T708 119T686 98Q670 91 650 81T606 58Q554 32 515 14T439 -15T363 -27Z" />
<glyph unicode="&#xc9;" glyph-name="Eacute" horiz-adv-x="653" d="M371 655Q305 688 305 714Q305 726 309 734Q317 752 334 793L362 864Q372 888 382 902T409 917Q414 917 425 913Q430 900 466 867Q470 864 474 860T484 851Q486 826 460 779Q447 756 425 725T371
655ZM304 -27Q237 -27 179 4Q121 35 64 218Q62 237 61 257T60 300L61 394Q61 400 61 410T63 433L64 470Q64 475 64 482T62 500Q61 503 61 507T61 515Q61 538 70 553T91 577T109 585H128Q132 584 137 584T149 584Q162 584 179 585T205 588Q240 594 256 594L394 595Q450
596 500 595T595 591Q603 591 610 585T628 566L643 549Q639 547 635 543T625 533Q612 521 604 520Q592 518 574 516T531 512Q505 507 484 505T449 504Q369 509 312 500T204 474Q182 467 183 431Q184 394 177 385L404 411Q409 412 413 412T421 412Q446 412 466 403T491
380Q473 338 463 334Q428 324 392 313T318 289L196 250Q188 247 180 237T172 219Q172 203 175 182T185 134Q197 64 262 64Q269 64 274 64T283 66Q321 74 372 86T490 116L603 145Q635 127 635 105Q635 77 579 45Q476 -13 331 -26Q327 -27 320 -27T304 -27Z" />
<glyph unicode="&#xca;" glyph-name="Ecircumflex" horiz-adv-x="678" d="M409 668Q377 670 356 691Q349 704 335 720T301 755L283 726L267 708Q251 692 226 695Q216 696 210 702T203 717Q203 719 203 721T205 726Q217 759 232 789Q252 830 289 830Q313 830 333
813Q358 791 376 776T407 749L444 717Q454 708 454 697Q454 683 441 676Q421 667 409 668ZM319 -27Q249 -27 187 6Q126 38 64 231Q62 251 61 272T60 318L61 417Q61 424 61 434T63 458L64 497Q64 502 64 510T62 529Q61 533 61 545Q61 569 71 585T93 610T113 619Q120
619 124 619T133 618Q137 617 142 617T155 617Q169 617 187 619T214 622Q250 628 268 628L414 629Q445 629 483 628T568 624Q591 611 602 597Q611 574 582 560Q552 545 472 533Q387 520 325 509T208 482Q200 480 195 441Q192 421 189 406T181 381Q177 369 424 429Q430
430 434 430T442 431Q468 431 490 428T516 402Q518 391 508 375T486 354Q450 341 412 329T334 306L189 265Q180 262 180 251Q179 241 177 143Q184 107 211 91T261 75Q269 75 285 76T326 82Q376 90 515 124L634 154Q668 135 668 112Q668 82 609 49Q501 -11 347 -26Q343
-27 336 -27T319 -27Z" />
<glyph unicode="&#xcb;" glyph-name="Edieresis" horiz-adv-x="628" d="M210 763Q192 763 166 772Q157 776 150 788T143 813Q143 822 146 829Q150 839 159 842Q171 845 181 845Q202 845 230 833Q256 824 266 788Q241 763 210 763ZM462 731Q439 729 417 756Q409
767 409 780Q409 793 415 802Q425 815 442 815Q450 815 452 814Q485 808 503 797T528 755Q517 743 504 739T462 731ZM231 -24Q202 -24 176 -3T143 50Q132 99 122 156T102 281Q98 310 94 355T84 462L76 552Q75 563 74 570T72 581Q60 625 60 636Q60 654 74 662Q87
669 129 674Q194 682 304 683L365 684Q376 684 389 684T417 683Q431 682 441 682T457 682Q476 681 490 681T513 680Q573 677 573 626Q573 586 520 581Q479 577 448 575T397 570Q397 572 396 573L347 570Q339 570 328 570T301 568L236 565Q217 563 207 557T197 534V523Q200
513 200 498Q199 491 199 486T199 477Q199 458 209 451T241 445H386Q406 443 432 445Q456 454 510 452Q544 451 559 449T583 436T604 397Q590 371 578 368Q550 361 512 356Q493 354 482 353T467 351L429 346L355 338Q280 331 246 326Q239 325 232 317T223 300Q221
294 221 284Q221 280 221 275T223 261Q223 257 223 253T224 244Q225 239 225 235T225 229Q228 197 232 175T249 143Q257 136 281 136Q296 133 342 140L369 144Q380 146 395 148T429 152Q437 154 471 164Q488 169 505 171T538 172Q558 171 580 155T613 121Q618 109
618 105Q618 92 604 84T572 72Q531 64 490 58T408 47Q361 42 329 31T267 -9Q252 -24 231 -24Z" />
<glyph unicode="&#xcc;" glyph-name="Igrave" horiz-adv-x="422" d="M305 690Q298 690 284 696Q269 703 253 710T217 724Q180 738 169 742L107 765Q84 773 73 785T61 818Q60 827 61 831Q68 860 86 880T127 901Q135 903 140 899L319 785Q323 783 331 777T344 760T342
736Q320 690 305 690ZM298 -31Q286 -31 275 -28Q268 -26 263 -14T257 13Q247 165 215 430Q214 444 213 455T210 476Q209 481 208 487T205 500Q203 507 202 512T201 522Q201 543 227 551Q238 554 251 554Q274 554 295 544T329 512Q343 489 346 469Q353 426 356 393T360
338V129Q360 112 360 86T359 24Q359 12 352 -2T334 -22Q319 -31 298 -31Z" />
<glyph unicode="&#xcd;" glyph-name="Iacute" horiz-adv-x="441" d="M248 645Q234 652 224 657T207 666Q194 675 194 695Q194 710 201 717Q246 768 290 800T388 849Q392 850 395 850T402 851Q419 851 425 838Q429 831 429 820Q429 812 426 804Q423 797 418 788T404
769Q364 717 314 670Q292 648 248 645ZM251 -22Q213 -22 198 20Q194 31 192 47T188 83V313H187V518L186 567Q187 613 230 613Q259 613 272 591Q289 561 297 531Q306 492 309 450Q317 338 319 254T319 114Q319 82 313 32Q307 -22 251 -22Z" />
<glyph unicode="&#xce;" glyph-name="Icircumflex" horiz-adv-x="513" d="M426 588Q376 586 354 617Q348 625 338 641T312 679L291 710Q286 729 276 751Q270 748 260 738Q255 733 240 718T199 679L183 658L143 613L123 616Q95 621 83 625Q60 633 60 658Q60 675
73 688L127 741Q159 772 180 792T228 827Q251 839 272 839Q315 839 341 796L354 773L374 740Q383 726 392 712T412 681L435 646L448 626Q451 620 451 614Q451 603 444 596T426 588ZM236 -43Q224 -43 215 -34T203 -8Q200 19 200 75V338Q200 447 185 514Q184 521
184 526T183 533Q183 560 199 575T241 591Q251 591 254 590Q295 585 313 563T333 498Q335 411 332 317T320 119Q318 94 311 64T289 -2Q285 -17 261 -34Q249 -43 236 -43Z" />
<glyph unicode="&#xcf;" glyph-name="Idieresis" horiz-adv-x="474" d="M127 676Q111 679 85 699L60 712Q71 732 87 757Q110 758 130 750T163 702Q160 692 147 684T127 676ZM377 644Q362 644 349 651T312 678L287 699Q306 705 321 715Q354 729 363 729Q385 728
398 715T412 679Q412 662 402 653T377 644ZM256 -12Q227 -12 214 10Q197 40 189 70Q179 111 177 151Q172 263 169 347T167 487Q167 520 173 569Q179 623 235 623Q273 623 288 581Q298 554 298 518V288H299V83L300 34Q301 -12 256 -12Z" />
<glyph unicode="&#xd0;" glyph-name="Eth" horiz-adv-x="840" d="M376 -27Q362 -27 348 -20T310 6Q314 8 320 12T334 23Q342 29 349 33T364 42Q420 72 465 113T551 210T638 338Q652 360 661 398Q664 413 664 429Q664 463 647 488T596 526Q497 564 365 564L332
563Q326 563 318 558Q311 553 304 549Q292 539 292 518Q292 502 292 484T291 447Q290 408 297 356Q319 345 357 344T435 341Q477 341 507 337T565 314Q528 262 464 256Q456 255 450 255T439 254Q422 253 406 251T373 246Q357 244 343 243T318 241Q317 231 321 204Q324
177 324 159L325 115Q325 84 314 67T280 49Q246 49 225 85Q217 100 214 116Q212 125 211 130T209 137Q205 154 203 167T199 189L193 219Q189 221 182 222T165 226L128 236Q94 246 80 262Q60 282 60 308Q60 334 100 341Q115 343 125 345T143 350Q151 352 160 354T180
359Q182 370 182 384T179 417Q175 452 152 573Q145 581 138 589T123 608Q123 632 138 651T182 675Q232 681 283 681Q293 681 306 681T339 679Q464 671 613 630Q665 615 720 577Q755 551 772 518T790 448Q790 416 776 379Q757 335 737 299T694 235Q636 164 575 107T451
6Q423 -13 403 -21Q388 -27 376 -27Z" />
<glyph unicode="&#xd1;" glyph-name="Ntilde" horiz-adv-x="679" d="M160 621Q152 621 143 625Q135 629 126 638T112 658T107 675Q124 780 205 816Q228 834 266 834Q337 824 425 780Q455 765 489 828Q522 892 537 896Q548 899 565 899Q582 899 599 888Q619 885
617 855Q616 824 599 791Q578 748 552 725T483 690Q443 677 272 736Q216 709 216 667Q216 613 160 621ZM104 -71Q95 -71 83 -65T64 -44T62 -3Q103 194 119 437Q121 458 136 475T171 503T207 514H213Q251 508 273 494T308 452Q328 393 395 246L423 215L425 253L465
500Q468 520 471 538T478 574Q482 595 493 607T524 620Q553 620 568 603Q580 587 578 559L572 490Q569 456 566 432T561 394Q545 225 528 97Q527 81 517 64T493 42Q475 36 463 36Q417 36 390 76Q376 95 354 131T302 221Q297 229 275 260T214 346L203 240Q199 217
192 169T175 48L167 -12Q163 -44 149 -57T104 -71Z" />
<glyph unicode="&#xd2;" glyph-name="Ograve" horiz-adv-x="731" d="M425 638Q375 634 330 666Q318 677 299 694T254 734Q231 754 230 775Q230 787 237 802Q245 816 281 819Q288 820 292 819Q365 818 389 776Q400 758 415 739T443 701T460 669T453 648Q447 644
440 642T425 638ZM342 2Q223 2 135 96Q107 126 87 170T58 262Q54 283 52 304T50 348Q50 444 94 518Q120 562 154 587T236 612Q246 612 253 612T264 610Q282 608 303 606T341 604T365 603Q393 602 414 601T449 598Q500 593 539 562T613 482Q620 472 626 461T637
439Q642 428 648 414T661 384L681 339L668 332Q671 275 644 212Q616 148 459 24Q400 2 342 2ZM306 96Q318 95 332 98T363 106Q414 123 456 163Q498 202 542 360Q539 396 538 423T529 471T502 510T445 542T344 573Q340 574 336 574T327 574Q321 567 314 559T296
541Q292 537 289 533T281 524L265 506Q240 478 230 460Q189 382 188 273Q188 255 188 242T190 218Q193 161 225 130T306 96Z" />
<glyph unicode="&#xd3;" glyph-name="Oacute" horiz-adv-x="617" d="M248 655Q226 655 200 676Q176 696 176 718Q176 737 197 755Q220 775 251 798T323 850Q332 857 346 862Q353 864 357 865T362 867L384 875L405 863Q418 856 423 846Q430 836 430 821Q430 805
419 788Q414 779 408 775Q402 770 398 766T391 759Q317 692 288 671Q269 655 248 655ZM295 6Q292 7 277 10T243 18T208 32Q124 68 89 138T50 300Q49 400 80 469T173 593Q218 632 268 632Q303 632 334 616Q432 568 492 490T565 303Q566 296 566 287T567 264Q567
192 535 120Q519 85 491 62T427 25T358 8T295 6ZM414 152Q470 205 483 320Q483 378 449 431T351 528Q337 519 290 513Q271 510 255 507T233 498Q194 462 172 405T150 288Q150 250 161 211Q169 185 196 153Q214 131 242 116T312 105T414 152Z" />
<glyph unicode="&#xd4;" glyph-name="Ocircumflex" horiz-adv-x="574" d="M413 646Q385 646 364 667Q345 687 325 709Q319 714 312 722T297 740L276 764L270 771L264 764L242 738Q231 724 222 713T205 693Q182 670 148 670Q145 670 140 670T128 672Q102 677 96
693Q95 695 95 701Q95 716 105 726Q130 755 152 779T194 823Q229 857 263 857Q300 857 344 816Q362 799 379 777T408 738T422 717L449 679Q455 670 452 662Q447 653 433 648Q426 647 421 647T413 646ZM323 2Q312 2 300 3T277 6Q196 18 146 87Q83 174 72 250Q70
266 66 294T56 363L50 404H52V432Q52 446 52 456T53 474Q56 519 88 530Q115 538 131 555T163 605Q177 633 193 645T235 657Q255 657 272 653Q362 632 419 572Q470 518 497 450T524 309Q524 238 500 171T428 48Q389 2 323 2ZM294 95L298 98Q392 164 406 301Q407
308 407 318T408 342Q408 456 338 541Q305 580 272 580Q241 580 205 543L190 526L182 516L180 513V473Q181 466 181 456T181 432Q181 418 181 408T179 390Q178 377 178 368T177 352Q177 267 216 174Q229 145 243 127T289 97L294 95Z" />
<glyph unicode="&#xd5;" glyph-name="Otilde" horiz-adv-x="665" d="M148 631Q121 631 107 651Q99 665 99 679Q99 703 116 717Q138 736 158 749T196 770Q250 795 311 795Q353 795 393 783Q433 770 452 770Q474 770 487 784T520 835Q521 836 522 837T525 841Q528
843 532 847Q540 851 552 851Q572 851 591 836Q615 818 615 792Q615 779 609 764Q593 724 562 703T491 682Q476 682 459 685Q423 693 405 700Q368 714 338 714Q278 714 226 665Q195 634 164 632Q162 631 158 631T148 631ZM279 2Q214 2 161 41T80 144Q50 216 50
271Q50 279 50 284T51 293V344Q51 404 95 419Q117 427 128 440T159 483Q163 487 164 491L178 509Q210 551 236 572T306 593Q385 593 444 573T545 497Q601 423 601 348Q601 298 578 247Q523 123 428 55Q354 2 279 2ZM268 70Q311 70 355 101T437 216L483 317Q491
334 495 352T500 387Q500 460 420 537Q401 556 375 556Q351 556 328 538Q265 488 227 420T168 266Q167 264 167 256Q167 252 167 247T168 237Q169 232 169 225T170 209L178 184Q199 117 224 91Q253 70 268 70Z" />
<glyph unicode="&#xd6;" glyph-name="Odieresis" horiz-adv-x="617" d="M184 649Q166 648 149 659T126 685Q124 691 124 698Q124 713 134 723Q148 735 157 735Q159 735 161 735T166 733Q171 731 184 726T207 714Q226 704 226 686Q226 673 219 666T198 652Q195
651 190 651Q184 649 184 649ZM428 636Q420 636 411 639Q401 643 391 648T371 661Q367 664 362 673Q357 683 356 686Q357 689 362 699Q367 707 371 711Q388 725 411 725Q431 725 448 714T472 684Q473 680 473 678T474 673Q474 661 465 652Q449 636 428 636ZM336
1Q326 1 316 2T295 6Q292 7 277 10T243 18T208 32Q124 68 89 138T50 300Q49 400 80 469T173 593Q218 632 268 632Q303 632 334 616Q432 568 492 490T565 303Q566 296 566 287T567 264Q567 227 561 194T534 130T465 67T336 1ZM322 110Q334 110 342 112Q372 120 399
144T448 202T477 270Q483 296 483 320Q483 380 449 432T351 528Q337 519 290 513Q271 510 255 507T233 498Q194 462 172 405T150 288Q150 250 161 211Q169 184 196 163Q224 138 322 110Z" />
<glyph unicode="&#xd7;" glyph-name="multiply" horiz-adv-x="612" d="M536 118Q533 119 530 120T524 123Q520 125 518 126T515 128L454 163Q421 182 397 196T355 221Q339 231 329 231Q317 231 301 218L252 180Q234 165 222 165Q210 165 183 183L265 291Q263 294
260 298T252 309L132 451L79 512Q78 514 76 516T71 522Q66 527 60 543Q60 549 64 556Q70 567 89 567Q103 567 113 561Q166 527 188 501Q199 488 212 471T240 432L264 398Q267 395 277 380Q282 373 292 364T318 342Q323 347 330 355T347 373Q370 396 382 412T401
451Q403 459 409 465T429 483Q436 490 449 498L467 510Q490 526 501 526Q515 526 535 509Q553 496 553 475Q553 459 540 446Q534 439 520 425T482 389L373 284Q390 261 412 244T469 203Q507 177 526 162T562 125Q559 124 556 123T549 121Q542 118 536 118Z" />
<glyph unicode="&#xd8;" glyph-name="Oslash" horiz-adv-x="549" d="M173 -86Q161 -86 153 -79T145 -59Q145 -57 145 -54T147 -47Q153 -24 153 -5Q153 20 144 43T117 93Q60 179 60 267Q60 295 66 325L69 344Q70 349 70 354T71 363Q77 407 100 446T158 515T234
556Q254 562 286 562Q321 564 331 597L338 621Q342 634 344 642T348 655Q354 673 369 683T403 694Q425 694 441 680Q455 668 455 651Q455 644 453 638L425 568Q417 546 417 531Q417 508 433 489Q440 482 445 472T453 457Q499 378 499 292Q499 211 459 127Q411 20
297 5L274 2L252 -4L243 -22Q239 -32 235 -39T227 -52Q211 -73 193 -81Q183 -86 173 -86ZM184 158Q186 159 188 160T194 162Q199 163 201 167L285 460Q286 465 286 470T287 481V494Q285 495 281 499Q278 501 277 500Q218 489 185 452T152 358Q152 324 152 298T153
254Q155 223 161 200T184 158ZM289 87Q327 97 347 123T381 190Q393 227 399 253T405 306Q405 350 384 389Q356 348 329 274T282 109V107Q282 104 285 98L289 87Z" />
<glyph unicode="&#xd9;" glyph-name="Ugrave" horiz-adv-x="628" d="M280 540Q254 540 246 549Q223 576 200 612T155 683L119 739L142 748Q153 753 161 755T174 758Q179 758 184 758T195 759Q200 760 205 760T214 760Q236 760 251 751T279 713Q284 701 291 691Q293
686 295 682T300 674Q325 629 330 612Q334 604 334 583Q334 576 334 570T332 559Q329 548 326 546Q307 540 280 540ZM328 5Q261 5 199 49Q129 98 95 169T60 318Q60 338 61 355T67 389Q70 406 86 425T116 445Q129 446 147 438Q155 434 166 427T194 409Q198 406 198
394Q198 390 198 385T196 373Q191 345 189 321T186 276Q186 204 213 139Q237 80 276 80Q301 80 332 99Q388 131 417 174T456 273T464 401Q463 430 458 459T441 534Q437 552 433 567T427 595Q463 593 493 573T545 518T570 439Q574 410 576 382T578 326Q578 223 536
146Q501 84 446 45T328 5Z" />
<glyph unicode="&#xda;" glyph-name="Uacute" horiz-adv-x="730" d="M367 561Q366 562 362 564T351 569Q344 571 338 574T327 582Q313 590 313 611Q313 621 321 632Q367 683 411 716T508 764Q511 765 514 766T523 767Q539 767 545 753Q549 744 549 735Q549 726
546 720Q544 712 538 704T524 685Q481 634 434 586Q422 574 407 568T367 561ZM292 4Q252 4 215 26T151 80Q60 192 60 346Q60 387 66 429Q68 440 69 457T71 496Q71 504 71 515T73 541Q76 580 118 608L144 585L182 550Q195 537 195 519Q195 515 195 510T193 499Q192
493 191 489T189 480Q165 335 159 261L158 245Q158 189 193 134Q207 111 227 111Q234 111 237 112L264 119Q297 127 318 134T357 152Q432 196 476 253Q495 277 508 308T535 382Q543 411 552 443T569 511Q574 534 579 553T588 587Q591 597 594 606T602 625L622 606Q637
593 649 581T672 558Q680 550 680 534L679 526Q665 432 647 355T599 206Q584 168 552 138Q456 43 323 8Q311 4 292 4Z" />
<glyph unicode="&#xdb;" glyph-name="Ucircumflex" horiz-adv-x="633" d="M409 644Q397 644 386 652Q381 657 369 669T337 702L305 740Q299 748 295 754T286 764Q269 754 259 743T231 703Q205 658 147 654Q119 649 108 677Q105 685 105 692Q105 706 115 716Q137
740 155 768T193 836Q205 862 226 875T272 889Q314 889 344 852Q371 818 421 739L442 705Q450 694 450 681Q450 670 441 659Q428 644 409 644ZM343 4Q295 4 239 47Q81 167 70 364Q69 390 67 430T60 523Q57 581 94 581Q112 581 131 571Q166 554 177 530T186 462Q185
454 185 441T185 411Q185 269 232 152Q240 135 254 119T284 94Q290 91 299 91Q311 91 323 95T340 105L356 123Q390 161 408 186T434 239Q445 277 454 329T474 449L486 531L474 533V577Q474 592 474 603T475 621Q475 631 478 641T488 655Q495 659 508 659Q522 659
527 654Q547 631 556 617T569 586Q576 545 579 505T583 427Q583 327 559 226Q543 158 502 106T399 19Q371 4 343 4Z" />
<glyph unicode="&#xdc;" glyph-name="Udieresis" horiz-adv-x="730" d="M266 672Q245 679 202 705Q195 710 188 714T173 722L209 785Q228 786 245 783T279 765T317 718Q317 712 315 706Q310 694 293 682T266 672ZM530 622Q515 622 506 626Q494 630 481 639T443
667L402 699Q416 706 428 711T448 721Q468 731 480 736T504 741Q535 741 555 722T576 672Q576 647 563 635T530 622ZM292 4Q252 4 215 26T151 80Q60 192 60 346Q60 387 66 429Q68 440 69 457T71 496Q71 504 71 515T73 541Q76 580 118 608L144 585L182 550Q195 537
195 519Q195 515 195 510T193 499Q192 493 191 489T189 480Q165 335 159 261L158 245Q158 189 193 134Q208 111 227 111Q234 111 237 112L264 119Q297 127 318 134T357 152Q432 196 476 253Q495 277 508 308T535 382Q543 411 552 443T569 511Q574 534 579 553T588
587Q591 597 594 606T602 625L622 606Q637 593 649 581T672 558Q680 550 680 534L679 526Q665 432 647 355T599 206Q584 168 552 138Q456 43 323 8Q311 4 292 4Z" />
<glyph unicode="&#xdd;" glyph-name="Yacute" horiz-adv-x="709" d="M332 614Q323 613 317 618T311 632Q311 641 318 648Q354 691 430 772L468 814Q497 849 513 862Q519 867 537 871Q559 861 571 847T584 815Q584 795 566 778Q525 738 482 701T393 629Q384 622
372 619T332 614ZM184 -132L177 -127L352 278Q350 279 348 281T341 285Q337 287 334 289T329 292Q212 327 151 440Q137 467 118 509T74 608L65 629Q60 642 60 657Q60 671 65 673Q77 683 115 681Q119 680 124 679T137 675Q144 672 149 671T157 668Q171 664 178 655T190
629Q222 499 295 386Q300 378 310 368T337 345Q356 332 369 332Q388 332 405 361L523 560Q558 617 609 617Q638 617 669 599Q689 588 689 570Q689 558 677 547Q639 513 608 474T547 387T481 274L468 250Q409 144 365 65T289 -66Q288 -68 286 -72T279 -84Q272 -98
236 -115Q227 -115 219 -113Q213 -111 202 -119L184 -132Z" />
<glyph unicode="&#xde;" glyph-name="Thorn" horiz-adv-x="481" d="M102 -105Q84 -105 76 -87Q68 -69 68 17V103H64V274Q64 320 64 362T63 445Q63 450 63 455T62 467Q61 474 61 479T60 488Q60 498 63 504L62 624L63 657V709Q63 738 79 757T123 776Q147 776 155
759T164 709V605H167V556L187 565L260 596Q274 602 301 600Q370 595 400 566T431 483Q431 451 419 403Q412 374 399 345T364 278Q327 208 257 208Q233 208 206 216Q197 220 186 220Q172 220 167 206V138Q167 135 168 132Q169 130 169 118T170 84L169 50Q168 45
168 38T168 19Q168 -67 149 -86Q130 -105 102 -105ZM187 270Q202 270 219 284Q302 323 315 458Q316 462 305 495Q293 525 166 461Q166 407 166 362T167 280Q174 270 187 270Z" />
<glyph unicode="&#xdf;" glyph-name="germandbls" horiz-adv-x="642" d="M115 -185Q91 -185 81 -171T65 -122Q63 -100 62 -81T60 -44Q60 -12 62 18T70 83T82 166Q85 181 87 193T90 215Q95 243 101 267T118 321T145 396L162 440Q188 512 267 531Q275 533 286 530T307
522Q383 491 383 416Q383 380 367 341Q356 313 356 307Q356 300 363 297Q366 295 373 293T391 286L424 277Q467 267 497 256T553 222Q592 188 592 153Q592 128 576 103Q498 -28 335 -24Q320 -24 303 -13T274 12Q269 20 269 22Q269 28 276 31Q282 34 296 37L320
44Q392 64 426 81Q455 95 484 140Q496 160 496 175Q496 212 441 220Q425 222 411 223T383 225Q344 225 308 211Q295 205 283 205Q253 205 234 239Q231 244 231 252Q231 260 235 271L258 326Q264 340 272 360T291 407Q294 415 294 422Q294 426 294 429T293 436Q292
440 292 449L281 454Q279 450 276 446T267 436Q259 426 255 417Q253 410 248 395T232 355Q209 295 194 249T169 158Q160 110 160 43Q160 27 160 16T161 -4Q161 -10 161 -17T162 -33Q162 -42 162 -52T161 -74Q161 -91 164 -108Q164 -111 164 -115T166 -127Q168 -141
166 -152Q165 -160 157 -170T141 -182Q126 -185 115 -185Z" />
<glyph unicode="&#xe0;" glyph-name="agrave" horiz-adv-x="510" d="M380 547Q314 551 261 576T158 647Q153 652 148 659T136 676Q128 694 128 701Q128 710 136 718Q145 725 156 728T177 730Q190 728 202 722T221 706Q264 652 348 617Q375 606 392 589Q398 583
398 570Q398 567 398 564T396 556Q395 552 389 550T380 547ZM446 -19Q425 -17 412 -17T389 -10T368 16T338 75Q336 74 332 74T320 71Q313 70 307 69T295 67Q264 63 238 62T189 60Q169 60 149 65T113 80Q60 116 60 146Q60 170 93 206Q169 291 263 308Q273 310 288
311T324 313Q334 313 342 313T355 314Q356 319 357 325T358 341L357 349Q351 389 318 389Q309 389 306 388Q287 385 268 379Q255 375 247 374T233 371Q212 368 190 368Q182 368 176 368T166 369Q141 371 130 402Q129 404 129 410Q129 421 135 430T154 444Q194 459
225 467T288 475Q312 475 329 471Q392 457 425 416T459 326Q460 301 460 264T460 177L459 58Q459 54 459 48T460 34Q460 20 446 -19ZM205 135Q208 136 218 137T246 143Q279 149 351 196Q342 232 303 241Q297 242 293 242T285 243Q265 243 245 231Q220 214 200 194T162
148L184 140Q198 134 205 135Z" />
<glyph unicode="&#xe1;" glyph-name="aacute" horiz-adv-x="474" d="M259 508Q256 510 253 511T245 515Q237 520 234 524Q233 525 233 532Q233 543 237 550Q272 609 333 651Q351 662 367 661Q384 660 404 646Q422 633 424 611Q426 590 403 576Q399 574 393 569T376
557Q366 550 357 545T338 535Q328 531 314 526T279 514L259 508ZM354 -58Q338 -58 324 -48Q313 -41 309 -31T300 -6L293 22L288 44Q261 39 245 36T224 31Q217 30 212 30T203 30H117Q67 30 32 116Q25 167 68 227Q112 288 187 271Q213 271 241 259Q255 253 302 221L306
248Q310 282 312 304Q312 334 298 364Q291 363 286 362T276 360Q263 358 255 357T242 355Q222 353 201 352T158 350Q146 350 135 359T124 380Q127 394 141 415Q151 427 165 428L195 432Q255 444 286 444Q330 444 358 419T398 350Q404 329 402 298Q401 290 401 279T400
252Q399 239 398 221T393 178Q390 153 389 135T386 105Q385 97 385 84T385 54L386 -50Q367 -58 354 -58ZM191 107Q193 107 196 107T204 109Q227 116 242 125T270 152Q237 180 217 191Q198 201 181 201Q174 201 160 198T141 189Q132 179 127 161T129 129Q137 119
158 113T191 107Z" />
<glyph unicode="&#xe2;" glyph-name="acircumflex" horiz-adv-x="538" d="M417 506Q404 506 394 513Q381 540 361 568Q351 581 345 589T336 600Q316 632 275 549Q222 504 212 508Q191 516 197 545Q201 575 217 599T260 651Q286 684 315 684Q340 684 368 656Q416
622 450 561Q456 551 456 540Q456 530 448 520Q436 506 417 506ZM440 -19Q435 -19 424 -18T395 -12L390 28L387 49Q386 55 385 60T383 69Q373 66 360 62T339 54L302 37Q248 12 223 4Q194 -4 169 -4Q165 -4 158 -4T142 -2Q104 4 82 29T60 89Q60 113 70 133Q74 143
82 155T102 183Q128 215 167 243T259 295Q273 302 303 302Q313 303 323 303T347 300L370 299Q378 317 378 327Q378 346 364 366Q361 365 357 365T345 364Q338 363 333 362T323 359Q315 356 307 352T291 342L270 331Q251 322 231 322Q203 322 178 341Q165 351 165
366Q165 381 179 392Q259 451 350 464L360 465Q393 465 425 441T471 381Q479 356 483 337T488 301L482 122L479 32Q478 1 458 -13Q451 -19 440 -19ZM186 83Q224 90 276 120T374 194Q361 195 337 208Q328 213 319 216T301 220Q294 220 291 219Q269 214 250 203T215
175Q204 163 191 148T162 112Q160 109 160 102T161 92Q175 80 186 83Z" />
<glyph unicode="&#xe3;" glyph-name="atilde" horiz-adv-x="550" d="M394 488Q372 488 354 493Q338 498 315 514Q295 528 278 536T241 546Q228 543 202 531Q198 529 182 523T157 516Q144 516 143 529Q148 597 176 616Q208 637 233 638Q258 639 340 580Q358 571
375 571Q391 571 410 577T435 585Q485 585 500 553Q498 524 472 509Q435 488 394 488ZM438 -19Q420 -19 406 -9T367 25L346 19Q325 13 310 9T287 3Q274 1 264 0T243 -2Q196 -2 155 19T88 77Q60 117 60 151Q60 188 95 234Q151 305 255 305L341 299Q350 310 350 321Q350
335 338 348Q326 366 303 366Q294 366 291 365Q284 363 276 361T257 354Q248 350 242 349T234 346Q208 336 183 336Q165 336 153 340Q124 349 121 377Q116 410 144 421Q222 451 280 451Q290 451 302 450T327 446Q406 429 437 353Q446 330 450 316T454 288Q454 263
460 210Q461 200 463 176T465 132Q465 119 465 110T463 95Q462 91 465 64Q466 60 467 55T468 43Q470 26 471 13T473 -8Q454 -19 438 -19ZM243 80Q298 79 348 127Q360 138 360 155Q360 176 343 188Q303 220 261 220Q219 220 193 188Q168 159 168 134Q168 124 173
112Q182 93 200 86T243 80Z" />
<glyph unicode="&#xe4;" glyph-name="adieresis" horiz-adv-x="535" d="M382 469Q336 469 307 504Q300 514 300 527Q300 546 313 558Q330 572 350 572Q366 572 376 565Q417 541 422 509Q421 491 409 480T382 469ZM173 466Q153 466 133 477T105 506Q103 512 103
519Q103 533 108 540Q115 552 127 558T153 565Q155 565 158 565T166 563Q187 557 202 539T218 498L210 485Q204 476 195 471Q182 466 173 466ZM201 -19Q161 -19 131 -4T87 44Q76 70 70 93T61 136Q60 140 60 146T60 159Q60 240 104 323Q140 392 229 424Q247 430
265 430Q320 430 347 384L361 359Q370 341 402 306Q411 300 417 281L482 98Q485 89 485 81Q485 66 473 57Q462 49 450 49Q438 49 424 58L391 85L365 107Q362 103 357 96T344 78L314 39Q265 -19 201 -19ZM181 84Q191 82 203 85T223 94Q246 114 258 141Q276 182 285
216T295 288Q295 297 296 300Q297 314 291 324T271 335Q256 335 242 322Q200 284 182 234T161 121Q161 89 181 84Z" />
<glyph unicode="&#xe5;" glyph-name="aring" horiz-adv-x="461" d="M300 474Q278 474 248 488Q182 522 178 602Q176 616 189 636Q192 641 199 649T218 671Q238 692 251 701T282 710Q297 710 328 699Q367 684 383 659T400 585Q399 580 396 564T385 534Q372 505
350 490T300 474ZM288 557Q304 557 319 581L321 593Q321 607 314 616T286 638Q284 640 274 636T256 625T247 617Q248 614 248 605Q248 583 251 573T275 560Q277 560 280 559Q282 558 284 558T288 557ZM360 -19Q346 -19 336 -12Q331 -8 325 -2T315 9Q313 12 312
15T308 20L303 28L255 20Q249 19 222 15T170 11Q142 11 117 27Q92 42 60 123Q60 160 86 201Q111 241 226 295Q233 295 240 295T256 296Q271 297 306 282Q309 327 289 350T220 377L185 380Q175 381 162 382T132 385Q117 387 107 401T96 430Q95 442 108 454T137 468Q148
469 156 469T169 470Q262 470 336 417Q371 393 389 357T410 276Q411 266 411 250T411 213Q410 196 410 171T409 111L408 60Q408 42 397 9Q389 -19 360 -19ZM192 91Q234 91 269 117Q299 140 309 156T320 188T315 228Q297 224 283 222L240 213Q182 201 157 134Q155
128 155 122Q155 107 166 98T192 91Z" />
<glyph unicode="&#xe6;" glyph-name="ae" horiz-adv-x="710" d="M192 6Q170 6 144 12T96 42T60 116Q60 151 71 173T101 215Q127 244 162 261T222 278Q233 278 246 275Q270 265 278 268Q283 273 283 282Q283 307 283 320T282 338Q280 362 265 372Q256 378 243 378Q230
380 216 374L208 371Q206 370 201 369T185 365Q175 363 166 362T149 360Q133 360 113 371T88 400Q87 411 102 423T132 438Q155 443 175 446T213 449Q247 454 303 433L348 375Q374 425 462 444Q485 444 512 435Q545 424 570 403T602 361Q606 349 606 338Q604 318
598 310L578 287Q562 269 549 257T526 238Q516 231 484 214T398 168Q416 143 448 138T517 140T579 159Q588 164 595 167T606 173L608 174Q625 183 634 183Q645 183 653 172Q660 165 660 155Q660 143 646 131Q596 83 554 64T466 52T359 89L326 110L286 52Q223 5
192 6ZM381 240L390 246L408 260Q504 314 512 336Q515 343 511 354Q506 365 474 374Q471 375 463 372Q453 370 444 366T426 356Q418 351 407 327T379 262Q380 258 380 255T380 250L381 240ZM223 88L225 89Q250 105 262 120T280 175Q282 189 266 209Q250 212 239
209Q229 206 225 206Q206 203 183 191T149 160Q130 130 138 123Q168 88 185 88H223Z" />
<glyph unicode="&#xe7;" glyph-name="ccedilla" horiz-adv-x="543" d="M131 -307Q125 -307 117 -307T97 -305Q65 -304 60 -267Q65 -264 73 -260T87 -254Q208 -222 296 -155Q306 -147 309 -142T321 -117L289 -112Q253 -108 246 -68Q242 -46 243 -13Q243 16 220
27Q203 35 191 49T167 83Q133 139 133 191Q133 263 204 346Q213 356 225 366Q232 371 236 375T245 384Q262 400 285 400Q312 402 332 388T359 348Q360 346 360 339Q360 330 354 324T338 316H321Q313 316 310 315Q292 313 285 306Q221 253 208 187Q207 179 207 173T206
163Q206 159 206 153T208 138Q212 113 224 102T263 86Q284 84 300 80Q315 76 334 76Q356 76 377 82L475 106L483 84L493 58Q470 28 426 17Q404 12 388 9T360 4Q337 3 329 -26Q336 -35 351 -47Q358 -53 372 -65T395 -89Q414 -108 414 -130Q414 -148 399 -169Q359
-225 303 -251Q225 -285 168 -302Q151 -307 131 -307Z" />
<glyph unicode="&#xe8;" glyph-name="egrave" horiz-adv-x="534" d="M281 462Q251 462 219 480Q187 498 139 584Q136 598 149 617Q156 627 168 627Q177 627 190 621Q219 607 226 596Q256 548 307 510Q312 506 315 498T316 484Q313 478 304 472T289 463Q288 462
281 462ZM270 -27Q236 -27 200 -18Q132 0 96 59T60 195Q60 218 63 240Q64 247 67 270T80 311Q121 391 225 399Q230 400 233 400T241 400Q245 399 248 399T253 399Q257 400 262 400T275 400Q348 400 419 359Q450 340 450 318Q450 296 418 276Q408 270 394 261T360
238Q309 203 274 184T196 158Q190 157 183 148T176 134Q177 130 179 124T184 108Q186 98 193 85T213 52Q221 44 245 44Q271 44 284 51Q344 77 407 125Q424 137 437 137Q453 137 471 119Q484 107 484 95Q484 81 464 61Q376 -27 270 -27ZM178 250Q191 249 211 255T252
273T290 297T312 323Q294 328 252 328Q228 328 207 305T178 250Z" />
<glyph unicode="&#xe9;" glyph-name="eacute" horiz-adv-x="552" d="M96 437Q79 437 64 442Q70 463 71 464Q105 514 153 552T264 623Q282 632 295 632Q317 632 336 607Q343 600 343 587Q343 571 329 562Q322 558 313 552T292 536Q253 510 225 492T180 465Q154
451 136 444T96 437ZM263 -27Q250 -27 241 -27T224 -25Q180 -21 139 11Q100 40 50 183Q50 220 63 249Q84 299 105 335T158 400Q189 428 242 428Q276 428 309 417T368 388T404 348Q413 329 413 308Q413 289 406 282L387 254Q354 205 328 176T265 130Q246 120 224
116L197 109Q189 108 182 106T168 102Q175 71 194 54T241 37Q261 37 291 51Q320 66 353 87T427 137Q447 153 463 153Q477 153 489 141Q502 129 502 115Q502 103 487 83Q401 -27 263 -27ZM169 184L201 215Q217 231 230 244T254 269Q279 297 288 332Q289 334 289
340Q289 350 283 357T268 364Q262 364 256 361Q246 356 236 348T215 329Q194 306 165 214Q165 196 169 184Z" />
<glyph unicode="&#xea;" glyph-name="ecircumflex" horiz-adv-x="583" d="M407 437Q393 442 380 449T354 465Q349 469 342 475T324 490L300 510L265 472Q241 445 219 445Q197 445 164 472Q183 539 252 591Q269 603 287 603Q303 603 322 593Q334 586 342 580T356
568Q379 543 398 521T433 480Q437 475 438 467T438 452Q435 442 426 438T407 437ZM361 -28Q300 -28 232 29Q219 40 207 44T172 53Q161 55 153 57T139 61Q88 79 60 101Q50 108 50 117Q50 123 55 128T69 134Q77 135 83 135T95 136Q113 136 131 133Q134 132 143 132Q163
132 163 149Q163 156 160 163Q156 178 154 191T152 217Q152 261 171 301T226 387Q233 396 246 401T279 412Q285 414 291 416T305 420Q331 419 360 402Q388 386 425 313Q425 293 416 279Q376 216 305 120Q302 116 292 107Q282 98 282 90Q282 83 287 75Q298 60 312
51T341 42Q352 42 359 47Q428 88 465 119Q485 136 498 136Q507 136 514 129Q533 113 533 92Q533 81 522 67Q479 20 435 -6Q398 -28 361 -28ZM257 239Q284 257 299 281T315 327Q315 340 311 347Q284 323 270 298T257 239Z" />
<glyph unicode="&#xeb;" glyph-name="edieresis" horiz-adv-x="462" d="M143 500Q118 500 93 512T58 542Q54 549 54 556Q54 569 64 576Q72 582 84 587T99 593Q155 589 180 551Q186 542 186 532Q186 510 164 503Q154 500 143 500ZM362 469Q315 469 283 508Q275
516 275 530Q275 543 282 554T302 569Q314 572 327 572Q368 572 396 538Q408 523 408 507Q408 497 404 490Q399 477 389 474T362 469ZM235 -27Q193 -27 155 -8T94 49Q50 120 50 195Q52 272 92 321L110 343Q130 368 143 381T175 405Q210 425 238 423Q250 423 262
420Q323 405 366 364Q391 339 391 307Q391 284 378 262Q355 222 320 195T234 149Q230 148 224 146T210 142Q206 141 201 140T190 137Q170 131 170 112Q170 103 175 95Q196 62 227 62Q235 62 238 63Q283 71 316 85Q328 90 343 99T378 119L412 139Q396 78 362 33Q339
3 306 -12T235 -27ZM191 260Q221 272 239 283T266 315Q267 316 267 319Q267 324 263 328Q254 334 250 333Q199 314 191 260Z" />
<glyph unicode="&#xec;" glyph-name="igrave" horiz-adv-x="336" d="M249 425Q240 425 232 428Q130 466 68 529Q50 546 50 562Q50 572 54 576Q65 594 86 594Q93 594 108 590Q120 586 126 582L275 469Q279 467 282 458Q283 454 284 450T286 444Q282 441 277 435Q272
429 265 427Q260 426 256 426T249 425ZM216 -12Q196 -12 185 8Q178 19 175 30T171 52Q170 87 167 138T157 259L155 282Q154 293 153 309T152 348Q152 369 165 382T197 396Q208 396 220 391Q262 375 262 330V189H260V122Q260 100 260 83T259 55Q259 30 249 11Q237
-12 216 -12Z" />
<glyph unicode="&#xed;" glyph-name="iacute" horiz-adv-x="341" d="M127 392Q125 392 117 393T100 398Q88 402 80 415T71 441Q71 452 76 459Q104 498 124 524T163 568T207 602Q227 616 250 620Q266 623 278 612T291 585Q291 579 289 573Q286 567 284 563T279
555L194 426Q181 406 168 399T127 392ZM119 -26Q105 -26 92 -17T73 7Q60 37 60 66Q60 109 58 172T50 321Q49 339 61 350T92 361Q120 361 139 344T160 298Q161 278 161 263T162 237L161 145L158 78Q158 70 158 56T156 23Q153 -26 119 -26Z" />
<glyph unicode="&#xee;" glyph-name="icircumflex" horiz-adv-x="427" d="M106 343Q87 343 67 354Q50 363 50 381Q50 396 63 408Q110 452 147 483T209 532Q238 555 266 555Q316 555 340 502Q354 473 362 453T375 420Q377 414 377 408Q377 395 366 387T338 378Q314
378 294 395L273 419L250 445Q237 432 219 414T177 374Q147 343 106 343ZM255 -17Q236 -17 222 -9T201 18Q197 30 192 60L177 213Q176 225 176 234T175 248Q175 314 239 314Q261 314 277 303T298 272Q307 245 307 197Q307 183 306 165T304 136V83Q304 67 304 54T303
32Q302 -8 267 -16Q264 -17 255 -17Z" />
<glyph unicode="&#xef;" glyph-name="idieresis" horiz-adv-x="420" d="M331 411Q322 411 314 414Q310 415 306 417T297 422Q292 425 287 427T278 431Q252 443 252 460Q252 478 273 493Q280 498 290 501T304 506Q344 503 361 477Q370 465 370 449Q370 436 363
426Q359 419 350 415T331 411ZM121 393Q115 394 99 399Q81 404 71 409Q61 413 56 422T50 440Q50 458 66 468Q89 483 109 481Q132 478 177 458Q190 452 190 436Q190 416 173 410Q163 406 146 401Q130 397 121 393ZM249 -20Q215 -20 211 8Q206 41 203 66T197 107Q196
120 196 130T195 147L196 201H195V308Q195 350 232 356Q235 357 245 357Q264 357 279 348T299 324Q308 300 306 265Q305 165 297 64Q296 51 293 36T283 0Q277 -20 249 -20Z" />
<glyph unicode="&#xf0;" glyph-name="eth" horiz-adv-x="556" d="M265 -31Q244 -31 221 -25Q133 0 81 78Q60 110 60 141Q60 177 90 207L104 223Q182 301 257 301Q286 301 319 289Q322 303 322 316Q322 375 267 454Q263 453 254 451T230 443L182 429Q179 428 175
428T164 427Q140 427 132 444Q129 452 129 458Q129 483 153 499Q161 504 173 511T205 529Q207 546 200 553T177 569Q170 573 160 577T145 584Q123 592 107 602Q101 605 97 614T93 630Q94 637 101 643T115 652Q126 654 135 655T153 657Q202 657 243 626Q250 622
255 618T266 609Q271 605 275 601T283 594L305 575Q332 582 353 594T406 627Q413 632 418 635T427 641Q454 659 480 656Q491 655 498 646T506 627Q506 621 501 613Q482 588 451 565Q446 561 437 555T414 540Q399 531 384 521T357 498L383 440Q429 347 429 238Q429
151 396 55Q382 16 346 -7T265 -31ZM270 55Q284 55 294 65Q320 91 320 129Q320 153 308 169Q284 202 267 216T233 231Q218 231 201 220T159 182Q155 177 151 169T145 157Q170 81 255 57Q260 56 264 56T270 55Z" />
<glyph unicode="&#xf1;" glyph-name="ntilde" horiz-adv-x="644" d="M478 438Q439 438 410 448T360 469T326 486Q304 494 290 494Q275 494 263 490Q256 488 249 486T233 482Q186 474 173 493Q170 496 169 503Q168 508 168 512T167 522Q167 547 198 565T284 573Q337
562 370 538Q376 536 390 529Q405 522 428 517Q440 517 450 526Q455 531 463 539T482 561Q502 588 515 596Q527 605 549 599T576 569Q581 544 556 519Q548 506 540 493T524 466Q508 438 478 438ZM256 6Q224 11 208 17T187 47Q181 72 177 100T170 160Q169 171 169
186T168 223V265Q168 341 142 339Q135 339 125 329Q114 318 109 320Q60 313 60 345Q60 357 67 371T84 395Q108 423 127 431T168 436Q198 432 227 405T259 326Q240 193 259 143Q306 286 320 300Q355 335 394 335Q426 335 452 313T491 251Q504 211 521 187T572 152Q577
151 585 139L594 124Q590 120 579 112Q569 104 561 102Q558 101 546 101Q521 101 497 116T453 156T421 203Q408 228 393 228T364 203Q347 165 331 126T300 45Q290 22 283 13T256 6Z" />
<glyph unicode="&#xf2;" glyph-name="ograve" horiz-adv-x="491" d="M398 389Q365 404 335 423T259 472Q240 484 221 498T182 530Q170 541 161 560Q160 563 160 565T159 570Q159 582 168 592T189 604Q209 604 225 598L375 533Q419 514 432 458Q433 452 433 448T434
442Q434 410 398 389ZM243 2Q198 2 148 20Q97 38 52 163Q51 175 51 184T50 199Q50 234 60 262T97 314Q105 322 115 341Q126 361 132 367Q173 412 230 412Q261 412 297 399L330 387Q359 377 405 324Q435 293 433 234Q432 204 431 181T422 135T391 85T321 20Q284
2 243 2ZM220 69Q222 69 226 69T238 71Q268 77 293 106Q315 134 341 246Q350 312 287 358Q274 368 262 368T234 356Q198 327 183 288T156 180Q152 156 157 130T178 87T220 69Z" />
<glyph unicode="&#xf3;" glyph-name="oacute" horiz-adv-x="491" d="M203 447Q192 449 183 453Q140 478 143 505T183 547L262 578Q297 592 322 590Q327 590 338 590T360 583T375 561Q376 558 376 547Q376 536 361 525L334 510Q321 503 308 497T284 484L233 457Q218
449 203 447ZM243 2Q198 2 148 20Q97 38 52 163Q51 175 51 184T50 199Q50 234 60 262T97 314Q105 322 115 341Q126 361 132 367Q173 412 230 412Q261 412 297 399L330 387Q359 377 405 324Q435 293 433 234Q432 204 431 181T422 135T391 85T321 20Q284 2 243 2ZM220
69Q222 69 226 69T238 71Q268 77 293 106Q315 134 341 246Q350 312 287 358Q274 368 262 368T234 356Q198 327 183 288T156 180Q152 156 157 130T178 87T220 69Z" />
<glyph unicode="&#xf4;" glyph-name="ocircumflex" horiz-adv-x="491" d="M417 332Q377 332 357 358Q350 366 341 378T320 408L298 438L273 473Q268 471 259 467T244 459Q240 455 229 443T201 411L185 392Q183 390 175 381T154 354Q146 355 129 357T98 364Q77
372 77 392Q77 408 89 418L139 464Q170 494 189 510T233 538Q257 549 274 549Q313 549 338 512Q341 508 345 502T354 488L369 463Q377 452 391 432T426 383L438 366Q441 362 441 356Q441 347 434 340T417 332ZM218 1Q175 1 134 24Q93 47 50 184L55 210Q57 225 59
238T65 262Q74 299 101 314T173 338Q189 340 203 341T228 343Q318 343 377 284Q410 253 410 207Q410 159 376 109Q339 52 290 21Q255 1 218 1ZM201 78Q208 78 218 83T236 96Q243 101 249 108T263 124L281 146Q304 172 304 208Q304 238 286 263T238 298Q236 299
228 299Q220 299 213 298T205 293Q197 270 189 246T172 195Q170 190 168 183T162 165L169 162V147Q169 126 172 117Q187 78 201 78Z" />
<glyph unicode="&#xf5;" glyph-name="otilde" horiz-adv-x="526" d="M371 402Q353 402 331 410Q319 414 291 442Q270 463 254 474T218 488Q206 485 178 466Q165 458 153 451T133 444Q121 444 120 463Q128 526 153 554Q181 588 211 588Q238 588 260 561Q281 538
295 524T317 502Q333 489 352 489Q364 489 375 493Q380 495 389 499T412 509L427 520Q438 528 446 528Q463 528 476 498Q476 474 469 460T449 434Q408 402 371 402ZM243 2Q198 2 156 23Q114 44 52 163Q51 175 51 184T50 199Q50 234 60 262T97 314Q105 322 115 341Q126
361 132 367Q173 412 230 412Q261 412 297 399L330 387Q359 377 405 324Q412 308 418 291T432 253L441 229Q435 202 432 181T418 138T386 89T321 20Q284 2 243 2ZM220 69Q222 69 226 69T238 71Q268 77 293 106Q315 134 341 246Q341 312 287 358Q274 369 262 369Q250
369 234 356Q198 327 183 286T156 176L166 142Q169 129 173 118T181 95Q193 69 220 69Z" />
<glyph unicode="&#xf6;" glyph-name="odieresis" horiz-adv-x="493" d="M202 1Q159 1 124 22Q89 42 50 152Q50 156 50 162T52 176Q55 197 67 241Q81 291 110 317T194 339Q194 363 202 379T230 409L212 418L193 428Q189 430 184 432T174 436L152 445Q137 453 129
467T124 493Q127 507 141 516T173 526Q198 526 220 510T248 470Q249 465 250 457T252 438L255 415L277 403Q291 395 300 391T311 384Q356 354 380 310T405 215Q405 205 404 195T400 171Q385 104 345 61T238 5Q226 3 217 2T202 1ZM395 414Q383 414 375 418Q352 426
338 438T319 474Q336 513 369 513Q395 513 413 499T441 461Q442 459 442 457T443 450Q443 437 431 428Q414 414 395 414ZM195 88Q199 89 202 89T207 89Q228 89 247 102T281 137T304 180T313 221Q312 252 305 274T270 312Q254 322 241 325Q219 325 208 302Q205 295
190 275Q175 257 170 240Q163 212 158 187T151 139Q150 128 156 116T174 95T195 88Z" />
<glyph unicode="&#xf7;" glyph-name="divide" horiz-adv-x="755" d="M326 471Q298 471 276 488T254 526Q254 579 323 583Q349 585 371 566T394 522Q394 501 375 486T326 471ZM431 208V214H126Q114 214 109 217Q105 219 101 222T89 229Q74 237 60 257Q60 269 71
285T94 305Q123 312 160 316T240 322Q255 322 285 316Q312 309 332 309Q363 308 408 308T513 307Q562 307 598 307T658 306Q670 304 684 296Q691 291 696 288T705 282Q700 277 692 266Q688 261 681 256T664 243Q607 232 489 216L431 208ZM372 0Q370 1 352 4Q336
5 316 44Q316 78 337 100T390 122Q418 122 437 105T457 62Q457 33 434 16T372 0Z" />
<glyph unicode="&#xf8;" glyph-name="oslash" horiz-adv-x="462" d="M98 2Q84 2 71 10Q50 24 50 44Q50 54 54 61Q62 76 84 112Q96 133 96 154Q96 161 96 166T94 175Q77 243 77 282Q77 290 77 295T78 304Q82 343 87 363Q95 390 121 390Q129 390 138 387Q158 379
166 369T175 340Q175 333 175 328T173 317Q172 309 172 303T171 291L169 267Q196 290 215 313T256 370Q240 378 230 382T216 388Q203 394 198 397Q194 400 183 438Q196 446 209 446Q223 446 247 436Q260 431 270 429T288 425Q296 436 304 445T319 464Q331 476 344
476Q357 476 373 467Q396 455 396 437Q396 430 394 424Q385 399 372 374L361 351Q371 331 377 320T384 306Q412 254 412 203Q412 139 368 69Q332 13 274 13Q248 13 224 23Q217 25 212 28T201 33L183 41L162 51L135 19Q118 2 98 2ZM239 83Q249 83 258 89Q265 93
270 96T278 102Q312 137 321 192Q323 204 324 213T325 228Q325 252 310 271Q308 270 304 270Q300 269 298 267Q275 242 253 210T208 136Q202 126 202 116Q202 104 214 93Q227 83 239 83Z" />
<glyph unicode="&#xf9;" glyph-name="ugrave" horiz-adv-x="521" d="M240 447Q234 447 226 450Q202 462 186 473T159 494Q125 528 94 579Q84 595 84 609Q84 627 100 638T145 650Q168 652 188 641T222 606Q227 596 234 581T251 546L272 503Q279 492 279 481Q279
470 269 460Q256 447 240 447ZM439 -90Q432 -90 423 -86Q396 -74 387 -58Q376 -37 367 -11L354 22Q353 24 351 32T343 57L340 70L337 80Q316 71 292 59Q249 35 207 35Q158 35 122 66T73 152Q66 176 63 208T60 280Q60 290 61 304T64 338L67 372Q69 404 96 423Q106
430 121 430Q150 428 170 407T191 356Q191 346 190 336T186 314Q182 292 180 287Q174 260 174 234Q174 199 185 160Q187 152 194 143Q198 139 200 135T204 129Q206 130 209 130T214 131Q219 131 221 133Q308 203 326 300Q331 330 340 342T368 355Q382 355 403 349Q426
343 435 331T445 297L444 235Q443 225 443 211T443 177Q443 51 469 -45Q470 -50 470 -53T471 -58Q471 -72 462 -81T439 -90Z" />
<glyph unicode="&#xfa;" glyph-name="uacute" horiz-adv-x="512" d="M279 406Q276 406 265 412T243 425Q231 433 231 450Q232 455 233 460T239 469Q277 513 316 543T404 585Q409 586 412 586T416 587Q433 589 437 576Q438 572 438 568T439 559Q439 557 439 554T438
546Q434 535 417 515Q392 485 372 464T338 429Q318 406 279 406ZM422 4Q384 3 364 38L331 98Q327 105 317 93Q307 80 301 74L288 61L275 47Q237 6 189 12Q152 12 123 35T79 96Q60 143 60 201Q60 224 62 249T68 296T72 323Q77 347 91 361T127 375Q149 375 167 361T191
329Q192 327 192 319L183 293Q172 254 164 222T162 164T198 118Q243 108 253 118Q333 198 316 298L321 322Q331 369 369 369Q400 369 417 356T435 316Q435 308 434 305Q425 268 429 239Q429 214 431 188T439 133Q442 119 446 101T453 74L462 43V33Q462 11 439 6Q433
5 429 5T422 4Z" />
<glyph unicode="&#xfb;" glyph-name="ucircumflex" horiz-adv-x="545" d="M420 361Q399 361 390 375Q372 396 355 432Q350 442 341 459T321 501Q301 496 288 487T252 458Q221 432 182 432Q178 432 172 432T158 434Q144 436 135 445T126 469Q126 486 143 497Q171
513 196 535T249 589Q279 621 319 621Q344 621 365 607T400 567Q408 551 414 534T428 496Q435 476 439 463T445 445L457 409Q460 402 460 394Q460 379 445 368Q435 361 420 361ZM457 -50Q437 -50 420 -32Q414 -25 400 -6L374 31Q362 32 351 29Q346 27 335 23T308
10Q275 -4 242 -4Q219 -4 189 4Q151 15 124 39T85 101Q70 149 64 205Q61 226 61 268Q60 272 60 278T60 293Q60 331 97 342Q101 343 104 343T109 344Q136 344 150 321Q175 281 175 232Q175 170 181 138Q195 75 234 75Q260 75 292 101Q341 143 350 204L353 233Q354
241 355 252T358 278Q360 301 384 303L399 304Q412 304 424 301Q439 298 448 286T460 258Q461 256 461 248Q461 240 460 238Q459 223 459 212T458 192Q458 105 489 6Q495 -12 495 -19Q495 -31 481 -42Q467 -50 457 -50Z" />
<glyph unicode="&#xfc;" glyph-name="udieresis" horiz-adv-x="575" d="M178 488Q159 488 126 499Q115 503 108 516T101 544Q101 556 105 563Q110 574 120 577Q131 580 141 580Q166 580 199 564Q229 550 236 513Q211 488 178 488ZM452 443Q437 442 426 450T403
473Q395 484 395 497Q395 512 402 522Q413 536 432 536Q440 536 443 535Q479 527 499 514T525 467Q512 453 498 449T452 443ZM433 -10Q422 6 415 17T404 35Q396 50 390 62T379 84L360 75Q345 68 337 63Q281 26 216 26Q119 26 82 102Q58 148 60 210L65 337Q66 360
78 373T109 387Q124 387 137 380Q150 374 165 363T189 346Q188 337 187 330T185 317Q183 301 182 290T180 271Q180 266 178 246T174 201T173 152Q174 133 184 123T210 112Q224 112 237 119Q292 147 316 186Q341 225 361 272L366 288Q369 297 387 314Q402 320 416
320Q437 320 459 308Q467 304 473 293T481 272Q482 211 482 166T483 90L484 0Q481 -1 475 -2T461 -5Q457 -6 451 -7T433 -10Z" />
<glyph unicode="&#xfd;" glyph-name="yacute" horiz-adv-x="485" d="M214 288Q191 286 177 299T162 335Q162 347 167 355T183 365Q213 365 238 375T297 404L332 422Q339 425 352 430T385 443Q391 425 391 411Q391 388 376 373Q302 292 214 288ZM244 -246Q221 -246
200 -237T162 -210L158 -204L157 -187Q157 -181 158 -179Q159 -176 165 -174T176 -173Q181 -174 188 -175T204 -178Q221 -183 229 -184Q258 -150 273 -110T299 -15Q268 -8 247 10T196 63Q192 68 187 74T173 90L104 170Q97 179 92 186T82 197Q77 203 72 210T63 224Q60
229 60 235Q60 243 66 250T82 259Q85 260 89 260T99 260Q135 260 162 232Q179 213 214 171Q220 164 228 154T248 129L281 86Q283 85 285 83T291 78Q294 75 297 72T304 66Q314 95 317 122T321 188V191Q321 197 320 200Q319 203 319 208Q315 260 357 260Q359 260
363 260T375 258Q392 255 413 243Q435 232 435 211Q435 202 434 199L384 -78Q370 -149 327 -206Q312 -226 291 -236T244 -246Z" />
<glyph unicode="&#xfe;" glyph-name="thorn" horiz-adv-x="473" d="M75 -108Q60 -107 55 -102T50 -84Q50 -80 50 -76T51 -66Q52 -61 52 -56T52 -43L51 107Q51 129 51 145T52 171Q51 175 51 190V390Q52 406 52 436T53 500T54 559Q54 585 73 604T120 623Q135 622
140 616T145 598Q145 594 145 590T144 580Q143 575 143 570T143 558Q143 529 143 505T144 462Q149 447 164 447Q170 447 194 453L219 459Q223 460 228 460T240 460Q274 460 304 446T370 401Q390 384 400 368T415 332T422 281L423 262Q423 191 389 150T309 104Q301
104 286 100Q278 98 273 97T263 95Q256 94 247 94T225 94Q180 94 143 104L141 -44Q141 -70 122 -89T75 -108ZM143 465Q142 471 142 478T142 493Q142 508 141 508Q140 505 140 494Q140 477 143 465ZM241 192Q268 192 291 203T328 235Q343 261 343 287Q343 318 320
345T252 390Q250 391 240 391Q225 391 207 386T175 372T159 354Q158 351 158 344Q158 340 158 337T160 329Q162 320 160 320L163 286Q164 263 167 241T175 213Q186 203 204 198T241 192Z" />
<glyph unicode="&#xff;" glyph-name="ydieresis" horiz-adv-x="505" d="M366 329Q327 329 309 356Q333 383 348 392T384 401Q399 401 408 392T417 369Q417 364 412 352Q398 329 366 329ZM132 288Q131 289 119 292Q109 295 98 301Q94 304 92 312T91 325Q98 344
117 355T159 367Q175 367 187 361Q204 353 204 336Q204 334 204 332T202 326Q194 304 181 296T132 288ZM239 -277Q215 -277 199 -262T185 -227Q189 -197 203 -153Q210 -130 218 -105T238 -50Q244 -35 244 -21Q244 5 218 22Q189 41 166 64T111 126Q101 138 93 147T80
162Q79 164 78 165T76 167Q60 186 60 201Q60 207 65 219Q71 230 84 239T111 249Q113 249 116 249T123 247Q140 241 155 223T181 184Q188 172 238 116L260 91Q265 84 272 80Q275 78 278 75T284 69Q306 101 320 147T335 232Q336 248 347 257T375 267Q395 267 415
250Q438 228 446 217T455 190Q455 183 450 166Q434 118 408 66Q395 38 385 18T368 -17Q331 -92 315 -129Q305 -153 295 -181T277 -244Q273 -263 264 -270T239 -277Z" />
<glyph unicode="&#x2013;" glyph-name="endash" horiz-adv-x="770" d="M227 291Q148 287 92 320Q83 326 74 337T60 355Q82 368 102 374T149 382T214 384Q312 383 511 387Q531 388 560 388T630 388Q670 388 694 367T720 308Q680 307 621 305T484 301Q398 297 334
295T227 291Z" />
<glyph unicode="&#x2014;" glyph-name="emdash" horiz-adv-x="873" d="M128 284Q114 284 102 287Q78 293 69 316Q64 323 62 333T61 352Q62 357 69 362T84 370Q91 371 99 371T116 372H139Q147 373 153 373T167 373Q173 372 178 372T188 372H220L504 391Q530 393
565 396T646 405L717 412L729 413Q753 413 773 402T815 369Q820 365 822 351T822 330L648 319Q626 319 601 318T545 315Q501 311 435 307T281 295L149 285L128 284Z" />
<glyph unicode="&#x2018;" glyph-name="quoteleft" horiz-adv-x="240" d="M63 515Q52 593 78 661T156 786Q162 782 168 781Q175 778 175 775Q175 747 173 726T167 690Q142 575 166 554Q190 533 190 520Q190 500 190 489T179 471T139 453Q110 444 93 451T70 477T63 515Z" />
<glyph unicode="&#x2019;" glyph-name="quoteright" horiz-adv-x="267" d="M71 398L65 415Q60 430 60 438Q60 447 69 472Q107 578 104 672Q102 698 119 731Q123 740 132 745T151 751Q163 751 174 744Q192 732 204 711T217 668Q217 658 214 647Q175 529 139 449Q129
426 113 412T71 398Z" />
<glyph unicode="&#x201a;" glyph-name="quotesinglbase" horiz-adv-x="267" d="M71 -170L65 -153Q59 -139 60 -130Q61 -122 69 -96Q86 -43 94 7T104 104Q104 129 119 163Q123 172 132 177T151 183Q163 183 174 176Q192 164 204 143T217 100Q217 90 214 79Q174
-39 139 -119Q129 -142 113 -156T71 -170Z" />
<glyph unicode="&#x201c;" glyph-name="quotedblleft" horiz-adv-x="418" d="M109 397Q77 444 66 504Q60 533 60 562Q60 629 96 677L103 688Q110 699 115 707T125 720Q133 728 141 728Q147 728 155 723Q200 698 200 665Q200 649 186 629Q148 577 145 515Q143 474
133 444T109 397ZM249 347Q207 394 207 473Q207 557 275 643Q277 645 278 647Q279 648 280 649T282 651L298 663Q310 672 321 672Q327 672 334 668Q349 661 358 647T368 615Q369 607 364 597T352 581Q326 558 312 529T285 458Q284 454 283 449T281 437Q280 407
249 347Z" />
<glyph unicode="&#x201d;" glyph-name="quotedblright" horiz-adv-x="422" d="M113 376Q86 376 65 404Q61 410 74 435Q81 448 92 487T118 593Q119 603 111 621L88 670Q78 691 69 710T60 738Q60 746 67 747Q88 749 100 741T130 711Q139 699 151 687Q206 632 206
551Q206 476 165 411Q142 376 113 376ZM279 369Q254 369 237 389Q231 397 233 406L237 420Q238 425 240 429T244 436Q263 458 273 484T284 552Q284 585 272 607Q259 628 244 668Q229 706 220 740Q224 742 230 742Q254 742 297 709Q339 675 372 532Q371 513 359
479T322 394Q310 369 279 369Z" />
<glyph unicode="&#x201e;" glyph-name="quotedblbase" horiz-adv-x="408" d="M73 -144Q60 -117 60 -105Q60 -99 68 -75Q97 10 97 85Q97 93 97 100T96 111Q94 134 109 166Q113 174 121 178T139 183Q155 183 165 176Q186 164 199 143T213 101Q213 92 210 83Q193
30 176 -15T141 -99Q119 -145 73 -144ZM238 -145Q222 -145 222 -132Q222 -122 232 -106Q255 -69 255 -20Q255 4 252 26Q251 39 251 48T250 64Q250 140 296 140Q307 140 329 132Q358 120 358 97Q358 95 358 92T356 85Q353 72 352 54T351 29Q349 -15 344 -45T320
-105Q318 -110 308 -118T284 -133T260 -141Q249 -145 238 -145Z" />
<glyph unicode="&#x2022;" glyph-name="bullet" horiz-adv-x="322" d="M162 205Q153 205 150 206Q87 217 65 266Q62 274 62 289Q61 296 61 301T60 311Q79 354 116 381T196 411Q228 412 250 388T272 322Q272 290 257 263Q241 236 162 205Z" />
<glyph unicode="&#x2039;" glyph-name="guilsinglleft" horiz-adv-x="321" d="M247 195L219 198Q200 200 190 204Q157 221 85 264Q60 280 60 300Q60 316 78 337Q101 363 125 395T177 465Q188 482 196 489T214 496Q225 496 247 483Q271 470 271 437Q271 420 263
409Q247 386 230 361T196 318Q183 305 183 291Q183 276 202 263Q207 259 222 248T262 220L247 195Z" />
<glyph unicode="&#x203a;" glyph-name="guilsinglright" horiz-adv-x="349" d="M94 195Q81 195 64 198Q66 206 70 219Q72 226 74 230T78 239Q89 256 107 282T151 342Q165 362 165 374Q165 387 150 399Q131 414 115 429T85 459Q78 466 72 479L60 498Q80 512 100
512Q125 512 153 489Q218 435 285 360Q299 344 299 335Q299 327 293 322Q289 319 283 315T269 305Q247 292 227 275T179 230Q141 195 94 195Z" />
</font>
</defs>
</svg>
