<?xml version="1.0" standalone="no"?>
<!DOCTYPE svg PUBLIC "-//W3C//DTD SVG 1.1//EN" "http://www.w3.org/Graphics/SVG/1.1/DTD/svg11.dtd">
<svg xmlns="http://www.w3.org/2000/svg">
<defs >
<font id="Petemoss" horiz-adv-x="409" ><font-face
    font-family="Petemoss"
    units-per-em="1000"
    panose-1="0 0 0 0 0 0 0 0 0 0"
    ascent="800"
    descent="-300"
    alphabetic="0" />
<glyph unicode=" " glyph-name="space" horiz-adv-x="174" />
<glyph unicode="!" glyph-name="exclam" horiz-adv-x="197" d="M162 130Q145 130 145 153Q145 188 173 273Q197 346 217 391Q324 622 351 622Q368 622 368 593Q368 584 364 579Q357 570 347 554T320 513Q298 478 275 431T225 324Q167 192 167 151L169 138Q169
130 162 130ZM129 -3Q119 -3 107 5T95 23Q95 30 106 38T132 54T154 61Q162 61 162 57Q162 53 151 42Q146 36 143 32T138 26Q133 -3 129 -3Z" />
<glyph unicode="&quot;" glyph-name="quotedbl" horiz-adv-x="279" d="M175 392Q172 392 172 395Q172 395 180 406T198 435T217 469T225 497Q225 499 225 502T223 509Q220 517 220 519Q220 528 236 528Q265 528 265 513Q265 501 256 483T232 445T202 412T175 392ZM83
392Q80 392 80 395Q80 395 88 406T106 435T124 469T132 497Q132 499 132 502T130 509Q127 517 127 520Q127 528 143 528Q172 528 172 513Q172 502 163 484T139 447T109 412T83 392Z" />
<glyph unicode="#" glyph-name="numbersign" horiz-adv-x="644" d="M193 56Q180 56 172 88Q166 112 166 132Q166 142 171 171T188 248H170Q101 248 45 218Q39 216 36 216Q24 216 24 229Q24 236 34 243Q92 281 194 278Q199 304 204 328T217 374L240 454H210Q141
454 85 424Q79 422 76 422Q64 422 64 435Q64 443 73 449Q131 488 247 483L263 578Q264 591 272 591Q281 591 281 578Q281 570 278 547T268 483Q298 482 344 481T451 475L469 578Q470 591 478 591Q487 591 487 578Q487 559 472 473Q495 471 516 470T558 469Q565
469 575 469T600 471Q614 472 624 472T641 472Q653 472 653 466Q653 455 633 453Q608 450 578 449T510 448H467Q460 418 451 373T428 267Q453 265 475 264T518 263Q525 263 535 263T560 265Q574 266 584 266T601 266Q613 266 613 260Q613 248 594 247Q572 245 544
244T483 242Q469 242 454 242T423 243Q415 205 411 178T407 135Q407 130 408 122T412 103Q414 93 415 86T417 74Q417 56 399 56Q386 56 378 88Q372 112 372 132Q372 143 377 171T392 243L218 247Q210 207 206 180T202 135Q202 126 207 104Q209 94 210 87T211 74Q211
56 193 56ZM398 270Q404 299 410 324T421 368L445 449L262 453L223 277Q252 276 296 275T398 270Z" />
<glyph unicode="$" glyph-name="dollar" horiz-adv-x="400" d="M81 -3Q69 -3 69 22Q69 62 110 127Q55 137 29 165Q19 175 19 197Q19 206 25 206Q33 206 49 190Q73 168 108 158T174 147Q232 147 278 171Q304 185 318 204T339 247Q342 259 342 271Q342 287 331 300T290
320Q261 328 234 334T172 349Q138 358 123 377T107 428Q107 465 137 501Q193 566 289 562Q309 609 325 609Q332 609 332 601L311 560Q346 554 371 534Q400 510 400 477Q400 455 383 440T342 425Q332 425 332 431Q332 431 343 439T365 461T377 486Q377 498 371 509T351
528Q323 543 278 543Q262 543 246 541T216 532Q177 516 158 489T139 441Q139 402 201 385L315 355Q346 344 367 325T388 271Q388 234 357 202T281 149Q214 119 142 123Q93 53 93 17Q93 -3 81 -3Z" />
<glyph unicode="%" glyph-name="percent" horiz-adv-x="399" d="M35 -17Q30 -17 30 -8Q30 100 116 243Q187 360 285 456Q258 446 234 446Q212 446 193 457Q176 410 143 372Q102 325 62 325Q25 325 25 357Q25 406 73 473Q112 527 140 527Q145 527 163 519Q164 519
168 528Q173 536 181 536Q201 536 201 507Q201 483 198 471Q210 465 229 465Q248 465 277 473T321 491Q370 528 373 528Q396 528 396 511Q396 506 392 503Q364 481 335 455Q190 325 102 158Q83 123 72 93T55 36Q54 28 54 20T52 4Q48 -17 35 -17ZM66 340Q108 340
155 411Q176 444 178 461Q164 467 161 486Q157 505 150 505Q123 505 87 444Q52 386 52 357Q52 340 66 340ZM222 8Q185 8 185 39Q185 62 198 91T231 149T274 195T316 214Q359 214 359 170Q359 123 314 67Q267 8 222 8ZM226 22Q244 22 264 36T301 72T330 117T341
159Q341 180 318 185Q316 186 314 186T310 187Q296 187 279 170T247 129T222 79T212 39Q212 22 226 22Z" />
<glyph unicode="&amp;" glyph-name="ampersand" horiz-adv-x="727" d="M229 74Q139 74 81 117Q41 145 41 184Q41 197 45 206Q83 305 233 357Q203 386 203 421Q203 436 209 449Q229 494 287 520Q335 541 393 541Q500 541 500 482Q500 457 477 439T428 421Q412 421
412 428Q412 435 426 440Q446 448 453 457Q464 471 464 486Q464 522 399 522Q339 522 292 498Q233 468 233 415Q233 386 257 365Q275 369 286 370T301 372Q340 372 340 355Q340 334 291 334Q264 334 250 344Q190 328 143 289Q88 243 88 187Q88 136 143 114Q185
97 242 97Q403 97 465 210Q473 226 473 235Q473 248 459 262Q445 276 445 276Q445 284 465 284Q485 284 500 269T515 233Q515 204 480 169Q458 146 429 129T364 98Q298 74 229 74ZM363 185Q270 185 270 234Q270 294 383 311L512 327Q602 339 629 360Q639 367 639
372Q639 376 625 384Q610 392 610 395Q610 400 620 400Q635 400 648 391T662 368Q662 313 527 296Q507 294 479 293T416 291Q391 291 377 291T358 290Q293 281 293 250Q293 210 368 202Q389 201 389 192Q389 185 363 185Z" />
<glyph unicode="&apos;" glyph-name="quotesingle" horiz-adv-x="137" d="M83 279Q80 279 80 282Q80 282 106 323Q132 363 132 383Q132 385 132 388T130 395Q127 403 127 407Q127 416 144 416Q172 416 172 400Q172 389 163 371T139 334T109 299T83 279Z" />
<glyph unicode="(" glyph-name="parenleft" horiz-adv-x="326" d="M165 -26Q156 -26 145 -22Q37 16 37 163Q37 276 99 391Q166 514 263 557Q289 568 323 574Q334 576 343 577T357 578Q383 578 383 571Q383 564 331 549Q218 518 148 392Q86 279 86 153Q86 31 151
5Q182 -8 182 -16Q182 -26 165 -26Z" />
<glyph unicode=")" glyph-name="parenright" horiz-adv-x="336" d="M69 -26Q42 -26 42 -19Q42 -10 93 3Q224 39 294 195Q339 296 339 398Q339 520 274 547Q243 560 243 570Q243 579 259 579Q263 579 267 578T279 574Q388 534 388 389Q388 274 327 161Q260 38 163
-5Q137 -16 103 -22Q92 -24 83 -25T69 -26Z" />
<glyph unicode="*" glyph-name="asterisk" horiz-adv-x="451" d="M179 268Q175 268 175 283Q175 295 177 316T185 368L190 401Q140 360 113 338T79 314Q73 313 70 316Q64 323 146 393L177 420Q167 419 154 419T123 418Q77 415 53 415Q37 415 37 436L43 441Q59
443 84 444T143 445H175L146 478Q130 493 120 505T101 525Q98 530 98 534Q98 543 108 553H115Q127 541 148 519T198 461L205 514Q207 542 209 559T212 583Q214 589 222 595T237 601L241 596Q241 577 237 544T225 463L263 499Q285 519 299 532T318 550Q323 553 329
553Q342 553 346 547L345 540Q318 511 241 445Q271 444 304 442T375 438Q380 435 380 432L379 428L369 422L231 421Q269 375 309 316Q312 310 308 308L305 305L295 307L215 401Q205 343 198 311T188 274Q184 268 179 268Z" />
<glyph unicode="+" glyph-name="plus" horiz-adv-x="452" d="M229 138Q219 138 219 238V290Q208 290 191 290T150 288Q104 285 80 285Q64 285 61 306L66 311Q83 313 112 314T184 315H219L216 384Q213 440 213 453Q213 459 220 465T235 471L240 466Q242 450 243
421T244 350V315Q279 314 317 313T398 308Q404 305 404 302V298L395 292L244 291Q243 223 241 186T237 144Q234 138 229 138Z" />
<glyph unicode="," glyph-name="comma" horiz-adv-x="102" d="M-39 -111Q-40 -110 -40 -108Q-40 -106 -3 -66Q34 -26 34 1Q34 3 34 6T32 13Q31 17 31 19T30 24Q30 33 46 33Q74 33 74 17Q74 5 62 -16T31 -59T-6 -96T-37 -111H-39Z" />
<glyph unicode="-" glyph-name="hyphen" horiz-adv-x="197" d="M88 178Q75 178 75 201Q75 212 83 215Q84 216 154 216Q243 216 247 209Q247 203 232 200L211 198Q166 188 136 183T88 178Z" />
<glyph unicode="." glyph-name="period" horiz-adv-x="123" d="M52 -8Q39 -8 25 1T10 23Q10 31 21 39T39 52Q51 59 62 62T80 66Q91 66 91 61Q91 59 77 45Q61 28 58 10Q57 -8 52 -8Z" />
<glyph unicode="/" glyph-name="slash" horiz-adv-x="278" d="M-13 0L263 616H290L14 0H-13Z" />
<glyph unicode="0" glyph-name="zero" horiz-adv-x="571" d="M211 -56Q160 -56 123 -29T65 45T45 151Q45 223 73 290T147 410T248 495T360 527Q420 527 420 493Q420 471 401 451Q461 431 497 381Q531 332 531 265Q531 204 502 147T426 44T322 -29T211 -56ZM224
-28Q266 -28 311 -6T396 57T459 154T484 280Q484 335 462 377T393 434Q366 405 360 405Q358 405 358 409Q358 415 377 440Q361 446 293 446H285L280 447Q280 454 301 458Q317 462 329 462Q334 462 348 461T383 455Q388 466 390 474T393 487Q393 505 355 505Q301
505 254 472T169 386T111 269T90 143Q90 53 129 13T224 -28Z" />
<glyph unicode="1" glyph-name="one" horiz-adv-x="348" d="M14 -35Q8 -35 9 -24Q10 -16 26 -7T70 10L82 13Q90 46 104 87T135 170T170 250T200 313T217 349Q222 358 232 376T251 412T264 434L234 412Q229 408 219 400T199 384T186 377Q182 377 182 379Q182 388
201 408L260 465Q306 511 316 511Q348 511 348 490Q348 479 339 463Q318 432 290 383T233 279T178 172T135 80T113 22Q173 41 225 41Q263 41 262 26Q262 23 254 18T232 13Q149 13 110 -1Q109 -20 105 -23T94 -27Q89 -27 84 -21T77 -14Q70 -14 54 -19T25 -29T14
-35Z" />
<glyph unicode="2" glyph-name="two" horiz-adv-x="501" d="M416 -59Q350 -59 291 -28T172 44Q140 18 113 9T67 0Q33 0 18 23T2 73Q2 98 14 118T49 138Q78 138 105 123T160 83L180 66Q210 86 230 102T269 136T309 178Q359 233 387 290T415 393Q415 431 392 455T320
480Q281 480 243 462T176 413T141 341Q140 337 140 333T140 323Q140 291 156 275T192 255T226 252Q228 252 229 252T232 253Q240 253 240 249Q240 245 233 241T209 236H195Q147 236 127 262T106 321Q106 359 127 393T183 453T256 494T332 509Q399 509 431 477T464
395Q464 343 429 279T325 158Q290 128 258 104T193 57Q225 36 265 19T346 -9T419 -20Q448 -20 465 -10T483 24Q483 39 492 39Q498 39 504 31T511 9Q511 -26 487 -42T416 -59ZM71 25Q89 25 112 33T160 53Q138 68 111 83T63 98Q51 98 43 90T35 62Q35 42 45 34T71
25Z" />
<glyph unicode="3" glyph-name="three" horiz-adv-x="528" d="M212 -47Q154 -47 104 -32T24 12T-7 83Q-7 110 9 135T49 178T97 195H100Q118 195 118 192Q118 190 114 187T102 178Q71 168 55 143T38 89Q38 60 54 32T104 -14T190 -32Q251 -32 300 -14T383 33T436
97T455 167Q455 198 440 225T389 268Q351 250 313 238T238 225Q210 225 197 233T184 253Q184 304 299 304Q320 304 342 300T389 284Q424 311 442 343T461 403Q461 438 433 461T342 485Q324 485 310 484T289 476Q295 463 295 446Q295 418 275 393T228 368Q214 368
204 377T193 402Q193 425 210 449T259 490Q252 499 236 504T206 512Q201 512 201 515Q201 517 207 520T216 523Q234 520 251 514T280 493Q290 498 313 503T361 508Q431 508 469 485T508 408Q508 377 485 343T408 280Q462 256 484 229T506 155Q506 108 480 71T410
7T314 -33T212 -47ZM234 389Q249 389 262 406T275 443Q275 448 274 456T270 470Q249 460 234 443T218 409Q218 396 223 393T234 389ZM265 251Q291 251 317 257T367 278Q333 284 299 284Q265 284 249 280T233 265Q233 251 265 251Z" />
<glyph unicode="4" glyph-name="four" horiz-adv-x="435" d="M204 -30Q182 -30 182 -1Q182 16 188 38T203 84L255 220Q241 219 216 216T153 204Q118 199 92 196T49 192Q-5 192 -5 211Q-6 217 17 241T77 300T159 372T244 441T316 494T357 514Q382 514 407 508T433
489Q433 485 431 479T426 464Q399 422 364 361T303 234Q323 234 348 233T395 229T429 222Q441 220 448 206T455 182Q455 169 446 176Q412 201 370 211T298 222Q267 134 251 88T235 24Q235 16 242 16Q246 16 259 22T284 36Q296 41 302 41Q316 41 316 31Q316 23 308
20Q292 12 272 0T234 -21T204 -30ZM107 223Q172 231 205 232T262 236Q265 243 278 272T308 340T341 416T366 475Q350 470 319 451T249 403T173 345T106 287Q68 252 68 235Q68 219 107 223Z" />
<glyph unicode="5" glyph-name="five" horiz-adv-x="584" d="M187 -47Q131 -47 93 -32T35 9T16 60Q16 92 44 119T128 157Q132 158 139 158Q157 158 157 152Q157 148 145 145Q98 129 75 105T52 55Q52 22 88 -4T192 -30Q237 -30 284 -16T373 26T443 90T477 171Q478
176 478 181T479 190Q479 231 449 250T373 269Q306 269 236 235Q210 222 198 222Q190 222 184 230T179 247Q179 247 190 267T217 315T244 371T256 415Q256 420 256 426T255 438Q255 446 257 452Q264 464 298 473T381 488T474 493Q495 493 514 492T547 488Q568 485
577 476T586 454Q586 435 573 416Q570 411 559 401T537 384T519 383L512 390L533 403Q552 415 552 428Q552 453 493 453Q423 453 323 437Q319 437 308 421T282 381T253 330T230 283T219 254Q263 275 304 285T380 295Q442 295 480 266T518 180Q518 127 490 85T414
14T308 -31T187 -47Z" />
<glyph unicode="6" glyph-name="six" horiz-adv-x="462" d="M174 -41Q110 -41 72 -6T33 97Q33 116 36 135Q44 187 71 239T140 338T228 421T324 479T416 500Q445 500 469 490T494 456Q494 449 491 440Q487 428 478 421T464 414Q465 419 465 424T466 435Q466 454
454 466T407 479Q358 479 308 449T213 370T137 260T95 139Q93 125 92 112T90 85Q90 34 112 6T181 -22Q206 -22 239 -13Q220 4 211 29T201 81Q201 119 218 156T269 217T349 241Q393 241 414 218T436 159Q436 127 419 92T367 27T281 -19L302 -30Q309 -31 309 -36Q308
-39 302 -39Q284 -39 260 -27Q212 -41 174 -41ZM263 -6Q317 15 354 58T391 157Q391 186 379 204T340 222Q308 222 283 201T244 147T230 79Q230 55 238 33T263 -6Z" />
<glyph unicode="7" glyph-name="seven" horiz-adv-x="433" d="M120 -28Q103 -28 103 4Q103 43 130 96T203 211T304 336T417 457Q407 463 364 468T265 473Q88 473 88 427Q88 416 104 404L119 392Q119 390 116 390Q89 391 76 409T63 446Q63 457 67 467T81 482Q98
491 151 495T268 500Q379 500 422 494T466 474Q466 470 456 455T426 424Q383 382 337 329T252 220T187 110T162 15Q162 3 170 3Q174 3 182 7Q190 12 195 15T203 19H205Q209 19 209 16T209 12Q209 6 196 -3T162 -20T120 -28Z" />
<glyph unicode="8" glyph-name="eight" horiz-adv-x="384" d="M74 -39Q3 -39 3 20Q3 48 24 82T76 148T135 197L165 216Q128 257 107 286T85 353Q85 392 108 418T168 457T244 471Q285 471 285 456Q285 453 276 443T255 423T240 413Q238 413 238 415Q238 418 243
425Q248 432 248 434Q247 435 241 435Q226 435 210 432T175 421Q144 408 125 389T106 343Q106 315 131 281L181 226Q283 292 328 346T373 441Q373 475 349 508T287 564T212 586Q198 586 181 579T152 563T140 555Q136 555 136 560Q136 565 142 574Q165 606 209 606Q241
606 277 592T346 553T398 494T419 421Q419 390 393 360T318 294T196 209Q248 150 248 109Q248 83 232 57T190 9T133 -26T74 -39ZM67 5Q88 5 110 13T157 41Q208 79 208 121Q208 156 179 197Q150 176 118 147T64 87T41 30Q41 5 67 5Z" />
<glyph unicode="9" glyph-name="nine" horiz-adv-x="513" d="M79 -31Q34 -31 19 -10T3 37Q3 48 6 52T13 56Q26 56 26 44Q26 26 39 8T92 -10Q147 -10 195 15T282 84T349 179T393 286T408 389Q408 449 382 489T297 529Q258 529 226 510T170 461T133 396T120 328Q120
288 141 261T209 233Q250 233 284 254Q326 278 338 321Q338 330 342 330Q346 330 346 323Q346 270 284 239Q262 227 240 222T196 216Q133 216 105 248T77 326Q77 362 93 400T138 472T207 525T297 546Q346 546 382 524T439 462T460 372Q460 359 459 347T455 321Q442
253 404 190T313 77T199 -2T79 -31Z" />
<glyph unicode=":" glyph-name="colon" horiz-adv-x="200" d="M173 242Q160 242 146 251T131 273Q131 281 141 291T160 302Q180 316 201 316Q212 316 212 311Q212 309 198 295Q183 280 182 277L180 260Q177 242 173 242ZM99 32Q86 32 72 41T58 63Q58 71 68 81T87
92Q107 106 127 106Q138 106 138 101Q138 101 132 91T118 67T105 43T99 32Z" />
<glyph unicode=";" glyph-name="semicolon" horiz-adv-x="167" d="M124 93Q115 93 115 99Q115 100 123 111Q130 119 130 128L129 135V143Q129 151 133 151Q144 151 156 143T168 125Q168 120 160 112T141 99T124 93ZM63 -97L62 -95Q62 -95 69 -86T86 -62T104 -33T113
-10Q112 -9 112 9Q112 24 130 24Q157 24 157 9Q157 -1 146 -19T118 -55T86 -86T63 -97Z" />
<glyph unicode="&lt;" glyph-name="less" horiz-adv-x="318" d="M217 136L209 140Q195 159 165 186T88 250Q85 252 85 256Q85 269 137 342Q158 372 174 394T203 431Q212 442 222 442Q229 442 229 436Q229 421 130 283Q227 161 227 149Q227 135 217 136Z" />
<glyph unicode="=" glyph-name="equal" horiz-adv-x="361" d="M85 285Q74 285 72 306L76 311Q88 313 105 314T146 315Q285 315 298 308Q302 305 302 302V298L296 292Q279 292 249 292T178 290Q171 290 160 290T133 288Q102 285 85 285ZM85 172Q74 172 72 192L76
197Q88 199 105 200T146 202Q284 202 298 194Q302 193 302 189V185L296 179Q265 179 236 179T178 177Q167 177 132 174Q118 173 106 173T85 172Z" />
<glyph unicode="&gt;" glyph-name="greater" horiz-adv-x="318" d="M91 129Q85 129 85 135Q85 150 184 288Q86 413 86 422Q86 437 97 435L105 431Q119 412 149 385T226 321Q229 320 229 315Q229 306 176 229Q153 197 137 175T110 140Q101 129 91 129Z" />
<glyph unicode="?" glyph-name="question" horiz-adv-x="193" d="M99 130Q67 130 67 157V161Q67 210 156 276Q168 284 186 296T228 326Q272 359 272 396Q272 430 229 430Q208 430 187 419T151 389T137 348Q137 342 142 332L147 321Q147 315 138 315Q110 315 110
346Q110 381 181 434V435Q210 453 255 453Q312 453 312 409Q312 366 267 328Q261 323 241 310T185 275Q97 221 97 167Q97 147 116 147Q120 147 124 148T136 152Q148 156 155 156Q157 154 157 154L156 152Q128 130 99 130ZM44 -35Q35 -35 26 -29T16 -13Q16 -6 28
5T47 16H46Q73 28 85 28Q93 28 93 24Q93 21 78 9Q63 -2 61 -6Q59 -10 58 -14T54 -23Q48 -35 44 -35Z" />
<glyph unicode="@" glyph-name="at" horiz-adv-x="612" d="M257 -119Q159 -119 91 -60Q20 2 20 99Q20 160 49 219T129 327T239 405T361 434Q451 434 515 390Q588 341 588 253Q588 164 515 85Q441 2 354 2Q302 2 302 46Q302 71 323 120L329 133L330 137Q330 137
328 135L321 125Q317 119 312 111T298 91Q246 21 213 21Q188 21 171 38T153 80Q153 117 189 174Q207 202 237 227T301 267T366 283Q384 283 408 275Q437 264 437 251Q437 245 434 245Q398 266 384 266Q306 266 235 168Q189 106 189 64Q189 35 209 35Q243 35 343
179Q347 186 353 195T367 216Q374 226 385 226Q399 226 405 222Q396 214 374 158Q336 62 336 42Q336 15 360 15Q391 15 437 49Q477 77 500 108Q549 175 549 248Q549 328 492 374Q440 417 357 417Q200 417 105 244Q62 167 62 102Q62 47 89 0T161 -75T261 -104Q353
-104 439 -58Q535 -8 567 69Q576 99 595 99Q601 99 601 95L600 92Q521 -119 257 -119ZM408 223Q411 223 411 211Q411 218 405 222Q407 223 408 223Z" />
<glyph unicode="A" glyph-name="A" horiz-adv-x="718" d="M186 -82Q111 -82 68 -33T25 92Q25 214 128 317Q202 391 282 391Q377 391 377 298Q377 270 367 239Q354 196 333 196Q325 196 325 205Q325 209 337 239Q348 270 348 287Q348 319 329 342T279 366Q226 366
174 323Q151 304 133 282T100 234Q64 167 64 84Q64 22 91 -14Q123 -56 182 -56Q256 -56 354 36Q401 80 490 190Q486 190 478 190T457 192L447 193H445Q460 186 460 182Q460 176 446 176Q406 176 406 196Q406 223 430 223Q443 223 470 220Q497 217 510 217Q529 240
550 269T597 335L681 456Q719 510 737 510Q758 510 758 456Q758 432 749 424Q737 412 726 389Q707 348 692 305T663 216H697Q701 216 705 216T717 217H731Q757 217 757 209Q757 195 656 187Q648 153 644 126T640 76Q640 19 668 4Q672 2 674 2Q681 2 691 12Q701
22 704 22Q711 22 711 10Q711 -6 690 -15Q672 -23 655 -23Q610 -23 610 52Q610 104 628 186L521 188Q319 -82 186 -82ZM632 215Q654 306 691 402Q652 356 615 310T543 216H561Q569 216 575 216T587 215H632Z" />
<glyph unicode="B" glyph-name="B" horiz-adv-x="579" d="M339 -45Q224 -45 158 34Q99 -28 65 -28Q37 -28 22 6Q10 32 10 63Q10 106 25 148Q44 206 80 206Q106 206 130 165L164 102Q184 131 205 170T251 256Q339 431 389 431Q413 431 413 401Q413 383 402 383Q392
383 392 394Q392 397 394 403L387 410Q369 410 294 246Q238 127 187 67Q256 -20 348 -20Q389 -20 426 -1T488 51T512 123Q512 163 478 194Q446 223 407 230L374 232Q351 235 351 246Q351 265 373 265L401 263Q457 263 497 287Q546 315 546 367Q546 425 458 453Q400
472 322 472Q218 472 145 432Q50 379 50 311Q50 283 68 260Q86 238 86 239Q86 235 81 235Q73 235 60 242Q15 265 15 306Q15 353 54 396Q87 432 136 456Q217 496 334 496Q423 496 491 471Q586 436 586 364Q586 261 447 243Q492 228 523 192T554 110Q554 38 479 -7Q415
-45 339 -45ZM72 -2Q91 -2 137 62Q127 79 110 103T69 159L68 162H67Q40 116 40 68Q40 27 65 2Q69 -2 72 -2Z" />
<glyph unicode="C" glyph-name="C" horiz-adv-x="498" d="M241 -51Q175 -51 125 -23T47 55T18 171Q18 237 44 294T117 396T222 466T348 491Q419 491 470 458Q530 421 530 353Q530 287 473 246Q423 211 353 211Q255 211 255 297Q255 322 268 347Q283 377 306 377Q330
377 330 363Q330 358 317 358Q299 358 289 341T278 303Q278 275 297 255T344 234Q444 234 486 300Q500 323 500 348Q500 386 477 416T418 461Q392 471 355 471Q272 471 204 426T95 305Q61 241 61 176Q61 118 88 76T161 9T266 -15Q378 -15 453 61L482 98Q492 111
505 111Q512 111 512 104Q512 99 502 85Q476 45 434 15T341 -33T241 -51Z" />
<glyph unicode="D" glyph-name="D" horiz-adv-x="630" d="M322 -44Q211 -44 132 20Q83 -32 53 -32Q24 -32 9 12Q1 38 1 62Q1 98 15 146Q33 207 61 207Q79 207 91 161L107 96Q117 78 130 62Q152 93 177 136T233 236Q323 403 360 403Q387 403 387 373Q387 355 377
355Q366 355 366 368L367 373Q368 375 368 378H367Q347 378 272 231Q218 124 151 41Q219 -18 313 -18Q426 -18 508 54Q596 129 596 239Q596 317 538 375Q486 427 406 446Q384 451 360 454T309 457Q214 457 143 418Q53 369 53 303Q53 273 71 255L89 237Q89 232 80
232Q57 232 38 254T19 300Q19 387 133 442Q212 480 313 480Q478 480 563 393Q630 326 630 226Q630 102 536 26Q450 -44 322 -44ZM63 -9Q77 -9 112 38Q93 55 79 87T53 165Q35 116 35 71Q35 52 41 26Q49 -9 63 -9Z" />
<glyph unicode="E" glyph-name="E" horiz-adv-x="523" d="M208 -60Q136 -60 77 -32Q1 4 1 66Q1 81 6 96Q46 210 212 270Q178 303 178 344Q178 421 281 464Q338 489 410 489Q457 489 483 475Q527 502 546 502Q552 502 552 498Q552 489 535 480Q528 478 522 475T509
469L499 462Q516 445 516 419Q516 390 497 367T450 343Q407 343 407 379Q407 417 454 456Q438 462 412 462Q342 462 287 434Q217 400 217 337Q217 304 244 280Q294 294 333 294Q367 294 389 287Q425 277 425 255Q425 234 397 224Q375 216 352 216Q285 216 235 251Q164
231 111 186Q47 132 47 67Q47 -34 219 -34Q302 -34 371 -4Q450 30 484 96Q493 113 493 125Q493 140 477 156Q461 172 461 174Q461 185 485 185Q505 185 516 169T528 131Q528 77 466 26Q415 -15 355 -36Q285 -60 208 -60ZM447 369Q461 369 472 387T483 420Q483 434
473 443Q430 409 430 384Q430 369 447 369ZM357 239Q389 239 389 254Q389 265 336 265Q307 265 272 259Q314 239 357 239Z" />
<glyph unicode="F" glyph-name="F" horiz-adv-x="541" d="M370 -58Q346 -58 346 -32Q346 33 410 192Q350 183 337 183Q325 183 325 193Q325 201 332 209T347 218H363L384 219H421L529 459Q433 503 361 503Q274 503 206 467T98 365T58 212Q58 148 84 107Q115 58
176 58Q224 58 253 90T283 171Q283 189 271 207Q259 224 259 223Q259 230 269 231Q315 225 315 172Q315 133 294 101T239 50T165 31Q93 31 52 93Q17 146 17 222Q17 325 77 407Q169 532 341 532Q433 532 541 478Q559 508 581 508Q604 508 604 483Q604 470 596 470Q594
470 590 474Q586 478 582 478Q573 478 567 464Q648 416 710 416Q791 416 791 485Q791 496 785 515Q778 533 778 539Q778 544 783 544Q796 544 810 509Q821 479 821 461Q821 426 792 406Q767 390 729 390Q655 390 557 443Q523 373 499 317T460 218Q483 218 507 217T560
213Q567 209 567 204Q567 190 536 190H507L477 191Q456 191 448 189Q393 39 393 -6Q393 -15 396 -15Q396 -15 407 -7Q418 1 422 1Q428 1 428 -5Q428 -15 415 -32Q397 -58 370 -58Z" />
<glyph unicode="G" glyph-name="G" horiz-adv-x="632" d="M478 -132Q451 -132 451 -100Q451 -59 507 73Q382 -52 234 -52Q144 -52 84 -4Q19 49 19 136Q19 237 103 328Q140 368 194 399T309 449T425 467Q486 467 527 441Q575 411 575 353Q575 304 540 277Q509 253
458 253Q413 253 385 278T356 347Q356 378 372 378Q384 378 389 349Q397 313 420 297Q448 278 480 278Q542 278 542 339Q542 385 506 413Q484 430 431 430Q371 430 312 411T200 358T112 277Q56 203 56 135Q56 63 115 18Q168 -23 243 -23Q282 -23 326 -8T413 32T490
90T542 158Q545 163 553 183L415 180Q409 180 400 180T376 178Q348 175 333 175Q309 175 309 192Q309 217 390 217Q512 217 645 211Q739 207 739 198Q739 188 674 188Q670 188 649 187T591 183Q581 163 567 127T532 41Q487 -74 487 -93Q487 -95 488 -96Q500 -100
500 -112Q500 -132 478 -132Z" />
<glyph unicode="H" glyph-name="H" horiz-adv-x="622" d="M490 -140Q461 -140 461 -99Q461 -3 531 174L432 176H392Q329 176 324 171Q320 167 311 146T292 98T275 49T267 21L294 30Q301 30 301 23L295 25L300 20Q298 18 281 10Q270 5 270 -3Q254 -13 237 -13Q220
-13 220 0Q220 28 282 172H273Q275 168 275 166Q275 161 268 161Q258 161 244 168T230 184Q230 205 296 206Q344 313 344 382Q344 442 288 442Q216 442 120 355Q33 276 33 178Q33 98 103 98Q115 98 133 107T170 127T198 148T206 157Q209 157 209 150L205 140Q193
110 161 93T95 75Q65 75 44 91T12 134T0 188Q0 281 100 372Q198 461 291 461Q329 461 356 439T384 380Q384 321 334 207L383 208L543 206Q554 238 603 356Q637 437 688 500Q758 588 819 588Q868 588 868 554Q868 544 857 520Q845 495 835 495Q831 495 830 501Q830
501 830 503Q830 503 830 503T830 501Q830 500 831 500Q831 500 832 504T835 515Q840 537 840 541Q840 567 812 567Q790 567 761 543Q673 470 580 205Q674 202 690 196Q699 193 699 187Q699 174 570 174Q560 148 550 114T527 38Q497 -65 497 -97Q497 -105 501 -105Q511
-105 545 -69Q578 -32 580 -32Q586 -32 586 -41Q586 -59 570 -82T531 -122T490 -140Z" />
<glyph unicode="I" glyph-name="I" horiz-adv-x="451" d="M170 -56Q102 -56 57 -17T12 89Q12 109 16 124Q52 266 181 266Q197 266 213 258T240 236T252 207Q252 202 250 197T244 196Q235 207 217 223T174 239Q112 239 74 192Q40 149 40 85Q40 -33 174 -33Q297
-33 399 160Q424 207 447 270T490 413Q492 424 495 437T500 466Q448 451 401 410Q341 358 341 326Q341 307 372 303Q403 297 403 293Q403 277 348 277Q308 277 308 312Q308 342 335 379Q357 409 386 431Q469 492 512 492Q535 492 535 467Q535 428 505 330Q480 249
457 193Q435 141 408 99T348 24Q266 -56 170 -56Z" />
<glyph unicode="J" glyph-name="J" horiz-adv-x="439" d="M67 -152Q17 -152 -23 -132T-88 -74T-112 12Q-112 60 -85 102T-15 170T75 197Q130 197 166 166T203 80Q203 44 184 19Q174 6 169 6Q161 6 161 12Q161 15 162 21T166 36Q168 45 169 52T171 64Q171 107 143
139T71 172Q11 172 -31 116Q-71 64 -71 3Q-71 -56 -32 -93T66 -130Q179 -130 274 -14Q344 71 391 204Q453 379 453 435V443Q442 444 431 444T409 445Q375 445 330 428Q266 403 266 358Q266 321 301 307Q303 306 312 305T335 303Q358 301 358 295Q358 290 343 286T319
282Q286 282 261 308T236 368Q236 423 297 448Q345 468 405 468Q421 468 445 465V469Q445 492 466 492Q485 492 494 460Q597 441 597 393Q597 382 592 382Q572 382 544 407Q513 434 496 437Q496 366 425 177Q376 47 291 -43Q188 -152 67 -152Z" />
<glyph unicode="K" glyph-name="K" horiz-adv-x="665" d="M732 -122Q697 -122 660 -100Q577 -52 444 183Q406 82 343 20Q267 -56 172 -56Q100 -56 56 -16Q8 26 8 96Q8 144 28 182T85 243T167 266Q185 266 203 258T233 235T245 204Q245 193 239 193Q236 193 214
215Q192 237 163 237Q126 237 97 217T52 164T35 93Q35 32 77 -1Q115 -33 177 -33Q261 -33 331 58Q382 126 418 224Q416 227 413 230T406 238Q401 233 393 233Q373 233 373 253Q373 277 399 277Q415 277 429 260Q440 295 449 330T466 400Q468 418 475 451Q477 461
478 461T479 464V466Q470 466 429 442Q394 421 379 410Q320 363 320 329Q320 310 354 304Q388 297 388 293Q388 277 332 277Q292 277 292 316Q292 347 316 381Q337 410 367 430T437 474Q469 492 487 492Q512 492 512 458Q512 395 461 234Q494 237 535 251T616 288T678
333Q702 356 715 383T726 439L725 456Q725 461 725 465T724 473Q724 493 737 493Q762 493 762 441Q762 346 653 279Q563 224 459 213Q535 83 565 41Q642 -64 710 -84Q717 -86 723 -87T735 -88Q767 -88 767 -61Q767 -53 763 -41Q761 -34 760 -30T758 -21Q758 -13
764 -13Q771 -13 779 -24T793 -48T799 -70Q799 -95 779 -108T732 -122Z" />
<glyph unicode="L" glyph-name="L" horiz-adv-x="497" d="M453 -133Q337 -133 197 -4Q154 -61 99 -61Q18 -61 18 43Q18 71 32 121Q49 181 71 181Q88 181 115 141Q137 110 155 86T188 44Q195 59 206 81T232 133Q148 169 148 237Q148 264 166 285T210 307Q222 307
238 297T255 274Q255 269 250 269Q246 269 232 276Q220 281 213 281Q179 281 179 234Q179 181 240 153L279 239Q305 295 322 332T350 388Q409 484 471 484Q515 484 539 451Q560 423 560 376Q560 232 440 155Q375 114 308 114Q298 114 288 115T269 119Q259 102 245
77T211 18Q231 -3 256 -22T312 -59Q383 -100 430 -100Q527 -100 527 -54Q527 -49 524 -39Q520 -30 520 -24Q520 -15 527 -15Q534 -15 550 -36Q558 -47 558 -61Q558 -97 522 -117Q494 -133 453 -133ZM303 137Q341 137 380 156T451 206T499 271Q527 331 527 389Q527
461 477 461Q437 461 384 366Q374 348 360 315T324 234L280 140Q291 137 303 137ZM98 -32Q118 -32 140 -17T175 17Q156 36 137 58T97 106L75 134Q68 141 65 141Q52 141 52 76Q52 -32 98 -32Z" />
<glyph unicode="M" glyph-name="M" horiz-adv-x="813" d="M728 -54Q687 -54 687 4Q687 69 750 205L846 403Q872 460 872 472Q872 478 868 478Q848 478 758 365Q724 322 699 288T658 231Q615 167 588 117T548 29Q534 -9 513 -9Q497 -9 497 5Q497 5 497 5V5Q498
1 543 146Q598 323 598 399Q598 429 588 429Q580 429 560 408Q531 377 499 332T437 236T381 134T341 41Q337 30 335 22T333 9Q333 4 339 -1Q344 -4 344 -6Q344 -14 329 -22T306 -30Q287 -30 287 -12Q287 3 322 99Q330 119 341 149T368 220Q395 295 395 368Q395
423 374 449T298 475Q249 475 203 451T120 387T62 299T40 200Q40 153 63 118Q89 80 135 80Q180 80 214 101Q254 126 254 168Q254 181 246 194Q238 205 238 204Q238 211 247 211Q262 211 271 197T281 166Q281 118 236 86Q196 58 145 58Q103 58 72 78T23 133T5 209Q5
317 110 423Q142 455 202 478Q258 499 308 499Q434 499 434 367Q434 338 429 306T412 240Q433 280 460 322T522 408Q566 464 606 464Q640 464 640 411Q640 362 589 180Q651 296 785 439Q847 504 884 504Q912 504 912 470Q912 435 878 377Q829 293 786 195Q730 66
730 3Q730 -22 743 -22Q752 -22 773 -14Q794 -6 803 -6Q813 -6 813 -12Q813 -26 777 -41Q747 -54 728 -54Z" />
<glyph unicode="N" glyph-name="N" horiz-adv-x="762" d="M147 -96Q107 -96 74 -77T21 -24T1 50Q1 121 60 171Q116 219 188 219Q292 219 292 138Q292 108 273 85T225 61Q207 61 207 70Q207 77 223 81Q246 87 253 93Q270 105 270 127Q270 160 246 179T187 198Q150
198 116 176T59 120T37 47Q37 -4 72 -36T159 -69Q244 -69 319 44Q332 64 356 110T416 231Q430 259 439 279T452 311L483 391Q443 466 365 466Q317 466 284 434T250 353Q250 318 272 290Q296 258 329 258Q351 258 369 272T387 308Q387 315 383 324Q379 333 379 337Q379
344 385 344Q394 344 400 331T406 308Q406 279 381 259T325 239Q297 239 274 254T236 294T222 347Q222 390 242 422T298 472T375 491Q457 491 506 425Q521 441 535 441Q546 441 546 431Q546 425 528 389Q549 328 580 238T652 25Q663 48 709 175Q765 327 791 381Q864
529 933 529Q943 529 954 522T965 504Q965 496 946 496Q915 496 878 450Q796 347 713 105Q709 91 700 66T678 3Q667 -26 638 -26Q627 -26 625 -19L613 14Q591 78 564 159T505 338Q497 322 483 291T446 212Q385 82 333 14Q247 -96 147 -96Z" />
<glyph unicode="O" glyph-name="O" horiz-adv-x="594" d="M243 -55Q133 -55 79 9Q29 67 29 151Q29 265 115 354Q234 476 392 476Q465 476 517 446Q581 410 581 343Q581 327 575 304Q598 263 598 217Q598 143 543 79Q429 -55 243 -55ZM235 -30Q284 -30 334 -16T429
24T504 87Q564 156 564 222Q564 232 563 241T559 261Q546 236 522 210T459 155L440 141Q434 139 433 139Q425 139 425 144Q425 150 439 164Q474 200 496 227Q530 268 541 298Q498 361 415 382Q378 392 300 392Q278 392 278 398Q278 402 281 405Q316 417 348 417Q478
417 550 339Q550 376 519 407Q475 451 396 451Q250 451 147 333Q68 244 68 140Q68 62 112 16T235 -30Z" />
<glyph unicode="P" glyph-name="P" horiz-adv-x="546" d="M49 -51Q-4 -51 -4 -22Q-4 15 53 15L143 6Q226 67 277 183Q265 197 265 217Q265 235 274 235Q275 233 280 227T293 210Q383 413 431 413Q453 413 453 382Q453 363 444 363Q434 363 435 385L434 387H432Q415
387 370 300Q354 269 342 243T321 195Q356 189 379 189Q455 189 523 230Q601 277 601 348Q601 414 522 450Q462 477 386 477Q258 477 172 418Q151 404 128 372Q103 338 103 315Q103 292 122 279T165 266Q200 266 228 287T270 342Q274 355 282 355Q291 355 291 344Q291
302 244 267Q209 241 163 241Q73 241 73 320Q73 390 148 441Q240 503 382 503Q475 503 548 467Q641 422 641 339Q641 253 550 204Q473 163 380 163Q343 163 311 172Q262 69 188 4Q195 4 210 7Q217 8 222 8T231 9Q240 9 240 2Q240 -8 202 -14Q189 -16 178 -17T158
-18Q109 -51 49 -51ZM53 -28Q79 -28 110 -13Q96 -11 84 -10T62 -9Q29 -9 29 -19Q29 -28 53 -28Z" />
<glyph unicode="Q" glyph-name="Q" horiz-adv-x="594" d="M486 -154Q445 -154 384 -119Q337 -91 296 -53Q285 -54 273 -54T248 -55Q165 -55 115 -23L114 -30Q114 -34 114 -40T116 -55Q117 -63 117 -69T118 -80Q118 -92 112 -92Q89 -92 89 -32Q89 -24 89 -18T91
-4Q29 53 29 151Q29 263 115 354Q231 476 392 476Q465 476 517 446Q581 410 581 342Q581 327 575 303Q598 262 598 217Q598 143 543 79Q457 -21 338 -46Q364 -68 404 -94Q454 -123 478 -123Q505 -123 505 -107Q505 -101 498 -93Q490 -82 490 -80Q490 -73 496 -73Q505
-73 515 -81T533 -101T541 -121Q541 -138 521 -147Q506 -154 486 -154ZM307 -22Q433 3 504 87Q564 158 564 223Q564 233 563 242T559 261Q523 192 440 141L432 137Q426 137 426 143Q426 145 440 162Q465 190 479 206T496 226Q530 267 541 297Q480 393 295 393Q277
393 277 399Q277 406 306 414Q317 416 326 417T344 419Q372 419 424 407Q504 389 550 338Q550 376 519 407Q475 451 396 451Q250 451 146 332Q68 242 68 140Q68 74 102 30Q120 59 153 59Q207 59 307 -22ZM232 -30Q240 -30 248 -30T265 -28Q194 22 156 22Q135 22
124 7Q164 -30 232 -30Z" />
<glyph unicode="R" glyph-name="R" horiz-adv-x="574" d="M80 -27Q-4 -27 -4 48Q-4 77 13 114Q32 157 60 157Q68 157 68 150Q68 152 57 136T34 98T23 58Q23 4 85 4Q150 4 217 98Q233 121 254 159T302 250Q298 252 294 252L288 251Q284 250 281 250Q267 250 267
268Q267 291 290 291Q301 291 317 281Q398 412 427 412Q452 412 452 384Q452 364 441 364Q433 364 433 375Q433 378 435 384Q430 389 427 389Q413 389 384 329L347 252H409Q471 252 521 280Q582 313 582 369Q582 428 511 460Q457 483 389 483Q260 483 165 418Q153
410 143 399T123 375Q103 344 103 319Q103 270 150 270Q181 270 216 298Q243 319 253 347Q257 360 265 360Q274 360 274 350Q274 308 227 273Q190 245 147 245Q73 245 73 320Q73 412 186 465Q272 505 378 505Q465 505 532 478Q621 442 621 369Q621 298 542 261Q479
232 401 232Q388 232 374 233T344 236Q407 75 487 18Q507 4 520 4Q546 4 551 63Q552 88 558 88Q565 88 571 74T578 52Q578 22 557 -1T506 -25Q432 -25 370 98Q356 127 345 156T326 213Q313 185 303 165T285 131Q272 108 260 89T235 54Q169 -27 80 -27Z" />
<glyph unicode="S" glyph-name="S" horiz-adv-x="617" d="M322 -74Q292 -74 236 -39Q178 -30 142 -10Q116 6 94 32T59 86T45 136Q45 192 90 192Q121 192 142 142L178 58Q202 13 237 -13Q268 -20 307 -20Q385 -20 449 7Q529 40 550 103Q556 121 556 136Q556 174
506 194Q493 199 473 204T424 213Q358 224 341 228Q222 257 222 330Q222 367 259 404Q333 478 465 478Q588 478 627 407Q636 391 636 372Q636 342 611 325T553 307Q530 307 530 318Q530 327 549 330Q575 335 584 339Q603 349 603 375Q603 417 554 436Q518 450 470
450Q418 450 370 435Q311 417 284 384Q262 359 262 335Q262 285 363 264Q379 262 402 258T456 247Q602 218 602 142Q602 121 593 98Q561 21 468 -16Q391 -47 295 -44Q303 -46 312 -49T332 -54V-55L333 -54Q339 -57 339 -63Q339 -74 322 -74ZM185 2Q164 22 143 54T100
129Q86 158 77 158Q76 158 76 157Q76 126 91 95T131 40T185 2Z" />
<glyph unicode="T" glyph-name="T" horiz-adv-x="427" d="M318 -36Q303 -36 299 -26Q297 -20 297 -3Q297 77 359 231Q411 358 468 452Q354 507 252 507Q127 507 65 406Q39 362 39 320Q39 265 81 236Q100 223 123 216T175 210L194 211H214Q230 211 230 202Q230
193 216 191Q179 185 161 185Q96 185 50 222Q1 261 1 325Q1 382 40 439Q108 537 245 537Q295 537 342 528T435 496L481 474Q499 503 518 503Q543 503 543 476Q543 466 536 466Q534 466 530 470Q526 474 521 474Q515 474 508 461Q617 411 675 411Q728 411 728 442Q728
451 716 464Q703 477 703 481Q703 486 711 486Q717 486 733 472Q754 453 754 431Q754 406 726 393Q702 382 676 382Q598 382 494 441Q488 431 478 410T454 357Q383 199 352 83Q338 29 338 7Q338 2 340 2Q341 2 352 10Q362 17 365 17Q372 17 372 12Q372 3 349 -23Q337
-36 318 -36Z" />
<glyph unicode="U" glyph-name="U" horiz-adv-x="622" d="M298 -37Q255 -37 255 1Q255 65 328 218Q403 377 403 425Q403 457 347 457Q265 457 164 370Q112 326 78 265Q39 198 39 137Q39 68 104 68Q158 68 208 124Q224 143 227 143Q234 143 234 135V132Q234 96
182 69Q137 45 98 45Q92 45 86 45T74 47Q40 53 19 88Q0 119 0 156Q0 267 154 403Q180 426 214 444T285 473T354 484Q444 484 444 423Q444 385 367 217Q327 132 313 61Q311 51 310 43T309 27Q309 7 321 7Q337 7 381 48Q481 143 603 373Q624 412 641 412Q658 412
658 379Q658 370 652 350T632 299L597 218Q524 48 524 -3V-5L526 -3Q533 1 546 13T581 47Q590 56 595 56Q601 56 601 48Q601 35 587 17T553 -16T519 -30Q489 -30 489 -1Q489 36 560 231L557 227L452 81Q426 46 393 7Q346 -37 298 -37Z" />
<glyph unicode="V" glyph-name="V" horiz-adv-x="545" d="M342 -64Q330 -64 330 -28Q330 -3 336 42L358 177Q365 218 368 251T371 311Q371 330 370 344T366 368Q340 466 234 466Q176 466 130 436T58 357T31 247Q31 188 66 141Q105 92 163 92Q193 92 214 109T236
156Q236 160 235 165T232 178Q227 193 227 197Q227 206 235 206Q246 206 252 189T259 158Q259 119 229 94T158 68Q116 68 78 91T20 153Q-3 197 -3 252Q-3 352 73 421Q147 489 247 489Q411 489 411 313Q411 288 407 250T394 162Q376 62 376 10Q376 3 376 -2T378
-11Q392 3 423 56L534 252Q631 420 727 483Q769 510 810 510Q855 510 855 479Q855 469 846 469Q842 469 833 472Q823 475 818 475Q719 475 599 302Q577 271 540 206T449 40Q444 30 439 21T426 0Q408 -28 399 -36Q362 -64 342 -64Z" />
<glyph unicode="W" glyph-name="W" horiz-adv-x="752" d="M143 -86Q135 -86 135 -73Q135 -35 187 88Q193 105 205 135T236 208L256 251Q287 316 301 360T316 428Q316 457 266 457Q172 457 71 356Q-10 274 -10 191Q-10 130 56 130Q103 130 150 180Q167 197 170
197Q176 197 176 183Q176 149 122 122Q74 98 37 98Q-1 98 -24 128Q-43 153 -43 195Q-43 246 -3 311Q34 368 78 406Q96 422 118 435T167 459Q224 483 268 483Q349 483 349 417Q349 360 288 225Q263 169 242 118T202 21Q266 123 322 196T425 312Q430 317 447 331T495
370Q497 370 500 369T504 364Q454 232 454 107Q454 -2 518 -2Q571 -2 626 56Q668 100 698 161Q743 253 743 338Q743 372 734 391Q721 393 704 403Q677 420 677 436Q677 458 701 458Q716 458 738 436Q759 413 764 413Q772 413 783 423Q794 433 802 433Q809 433 809
427Q809 415 795 406T767 395Q779 367 779 320Q779 168 673 50Q603 -28 526 -28Q420 -28 420 114Q420 178 444 290Q412 259 387 232T344 182Q323 154 290 108T212 -5Q207 -12 199 -25T177 -57Q157 -86 143 -86Z" />
<glyph unicode="X" glyph-name="X" horiz-adv-x="614" d="M116 -57Q66 -57 39 -15Q16 22 16 74Q16 101 25 138Q37 187 54 187Q63 187 63 174Q63 171 63 168T61 162Q47 117 47 86Q47 44 66 10Q88 -30 128 -30Q216 -30 411 185L471 253Q464 424 407 456Q387 467
362 467Q314 467 272 438T205 364T179 269Q179 225 206 207Q229 192 249 192Q261 192 275 198T301 210T311 216Q316 216 316 209Q316 190 287 176Q266 166 241 166Q148 166 148 275Q148 333 178 381T257 458T364 487Q491 487 508 296Q652 457 704 473Q724 479 739
479Q778 479 778 461Q778 451 749 451Q692 451 511 252V224L512 208V196Q512 9 536 9Q545 9 561 23T595 56T624 89T636 104Q644 104 644 95Q644 78 621 46Q611 33 602 23T584 5Q550 -25 520 -25Q472 -25 471 120V208Q239 -57 116 -57Z" />
<glyph unicode="Y" glyph-name="Y" horiz-adv-x="639" d="M335 -335Q303 -335 303 -296Q303 -274 317 -237Q345 -162 403 -94Q469 -16 533 6Q553 69 575 140T621 292Q549 182 464 84Q427 41 394 8Q348 -38 306 -38Q266 -38 266 6Q266 61 345 226Q423 393 423 444Q423
478 363 478Q279 478 172 389Q118 344 81 280Q40 207 40 145Q40 71 109 71Q165 71 218 130Q236 150 238 150Q244 150 244 142V139Q244 102 190 72Q146 47 103 47Q56 47 27 82Q1 114 1 163Q1 279 162 422Q182 439 206 454T260 481Q323 507 372 507Q408 507 434 493Q466
476 466 442Q466 402 384 228Q311 72 311 22Q311 7 319 7Q337 7 381 50Q586 244 632 389Q646 433 671 433Q689 433 689 416Q689 365 572 15H577Q604 15 604 -20Q604 -38 596 -38Q583 -38 583 -19Q583 -9 574 -9Q567 -9 560 -13L525 -98Q518 -114 506 -141T474 -208Q404
-335 335 -335ZM342 -311Q378 -311 447 -183Q467 -147 485 -108T521 -26Q494 -40 472 -57T432 -97Q335 -218 335 -291Q335 -311 342 -311Z" />
<glyph unicode="Z" glyph-name="Z" horiz-adv-x="522" d="M525 -165Q491 -165 465 -153Q459 -148 459 -145Q459 -140 470 -140Q472 -140 477 -141T489 -144Q503 -147 510 -147Q596 -147 596 -95Q596 -50 502 -31Q432 -16 342 -16Q317 -16 281 -19T195 -29Q146
-36 109 -39T47 -42Q38 -53 31 -53Q24 -53 25 -41Q-15 -40 -15 -11Q-15 1 1 1Q10 1 20 -5Q25 -8 29 -9T36 -12Q155 184 475 404Q369 422 319 422Q255 422 211 403Q195 396 172 376Q147 354 147 340Q147 333 155 325Q163 317 163 316Q163 310 156 311L150 312H151Q161
312 153 316T134 327T123 343Q123 346 123 349T125 355Q142 403 210 427Q261 446 325 446Q389 446 515 428Q565 461 573 461Q581 461 581 451Q581 434 563 423Q616 425 616 430Q616 430 611 437Q605 442 605 446Q607 448 611 448Q620 448 630 440T641 424Q641 408
613 401Q594 395 573 395Q565 395 553 396T527 399Q466 356 405 308T282 206Q135 79 68 -14Q120 -12 159 -10T225 -4Q287 3 323 6T370 10Q629 10 629 -77Q629 -87 624 -102Q599 -165 525 -165Z" />
<glyph unicode="[" glyph-name="bracketleft" horiz-adv-x="585" d="M156 -17Q48 -17 48 19Q48 59 65 118T111 247T176 386T253 520T333 630T405 701Q431 718 472 718Q575 718 573 697L572 684Q569 683 566 683T558 683Q552 683 543 683T522 685Q510 686 501 686T486
687Q441 687 431 680Q411 667 370 620Q291 528 196 351Q87 149 87 60Q87 4 164 4Q177 4 202 7Q214 8 223 8T239 9Q268 9 268 -3Q268 -17 156 -17Z" />
<glyph unicode="\" glyph-name="backslash" horiz-adv-x="551" d="M497 -96Q497 65 317 332Q250 432 173 526T10 709Q12 715 24 715Q56 715 103 665Q109 660 164 590Q228 510 283 429T387 267Q523 37 523 -84Q523 -116 497 -116V-96Z" />
<glyph unicode="]" glyph-name="bracketright" horiz-adv-x="556" d="M93 -17Q71 -17 56 -17T32 -15Q55 5 71 8H116Q213 8 259 63Q337 156 416 339Q499 534 499 643Q499 664 495 680Q482 689 455 689Q448 689 436 689T406 687L356 684Q388 716 465 716Q507 716
513 714Q538 708 538 679Q538 532 454 332Q371 136 268 27Q226 -17 93 -17Z" />
<glyph unicode="^" glyph-name="asciicircum" horiz-adv-x="222" d="M219 314Q208 314 185 347Q165 375 158 393Q154 387 138 375T101 349T64 325T42 315Q37 315 37 319Q37 321 57 338Q123 391 153 437Q158 445 164 445Q174 445 176 428Q182 387 226 320Q226 314
219 314Z" />
<glyph unicode="_" glyph-name="underscore" horiz-adv-x="806" d="M25 -73Q8 -73 8 -44Q8 -25 25 -25H765Q790 -25 793 -53L786 -60Q657 -60 516 -61T219 -67Q196 -67 122 -70Q55 -73 25 -73Z" />
<glyph unicode="`" glyph-name="grave" horiz-adv-x="110" d="M104 350Q100 350 81 362T39 391T2 418Q-1 421 2 430T10 446T20 450Q22 449 34 437T61 410T89 381T106 364Q109 361 109 356T104 350Z" />
<glyph unicode="a" glyph-name="a" horiz-adv-x="221" d="M134 -7Q125 -7 125 6Q125 40 162 133Q140 93 111 52Q69 -6 46 -6Q14 -6 14 39Q14 86 56 162Q75 197 114 236Q160 282 191 282Q216 282 216 262Q216 254 212 241T201 228Q200 228 195 237Q190 245 184
245Q163 245 127 204Q76 146 56 89Q41 49 41 25Q41 11 48 11Q64 11 122 98Q150 139 167 166T189 207Q192 215 205 227T226 240Q230 240 230 234Q230 228 224 213Q160 57 160 32Q160 23 164 23Q167 23 183 39Q199 55 203 55Q207 55 207 49Q207 41 193 28T161 4T134
-7Z" />
<glyph unicode="b" glyph-name="b" horiz-adv-x="222" d="M48 -9Q43 -9 38 -6H37Q27 0 27 20Q27 89 111 257Q91 259 91 261Q91 264 99 271T116 284T129 291Q129 296 189 431Q206 471 221 500T248 548Q296 624 343 624Q399 624 399 571Q399 532 380 532Q376 532
376 565Q376 589 356 589Q306 589 172 313Q168 306 168 301Q183 308 200 308Q249 308 249 258Q249 218 222 164Q185 89 125 34Q79 -9 48 -9ZM76 24Q96 24 151 102Q217 195 217 252Q217 282 191 282Q170 282 157 272Q144 250 131 222T103 156Q70 72 70 38Q70 24
76 24Z" />
<glyph unicode="c" glyph-name="c" horiz-adv-x="215" d="M49 -7Q8 -7 8 46Q8 105 48 175Q118 302 183 302Q200 302 213 292Q240 291 240 265Q240 244 230 220Q218 189 202 189Q185 189 185 204Q185 215 194 234Q202 255 202 263Q202 270 192 270Q143 270 85 173Q30
84 30 33Q30 7 53 7Q74 7 116 49Q159 90 167 90Q171 90 171 87Q171 83 159 66Q104 -7 49 -7Z" />
<glyph unicode="d" glyph-name="d" horiz-adv-x="255" d="M158 -12Q144 -12 144 12Q144 57 184 153Q170 128 154 105T120 60Q68 -6 40 -6Q6 -6 6 41Q6 92 52 175Q75 216 114 255Q164 305 197 305Q223 305 223 289Q223 283 218 263Q214 242 208 242Q206 242 202
252Q198 262 189 262Q167 262 128 218Q73 157 52 96Q35 47 35 27Q35 12 44 12Q60 12 123 100Q147 133 165 160T196 208Q207 227 217 245T237 283L321 462Q340 502 363 536Q401 590 423 590Q431 590 431 578Q431 571 427 556Q426 555 411 528T366 448Q331 387 301
330T245 219Q182 89 182 35Q182 25 185 17Q185 16 186 16Q188 16 210 35Q233 53 241 53Q243 53 244 52V50Q244 38 228 24T191 -1T158 -12Z" />
<glyph unicode="e" glyph-name="e" horiz-adv-x="201" d="M79 -10Q25 -10 25 59V64Q25 159 107 253Q146 298 174 298Q182 298 186 294Q185 321 206 321Q220 321 220 267Q220 135 153 135Q113 135 84 164Q53 101 53 50Q53 9 80 9Q92 9 109 22T144 53T172 84T184
98Q188 98 188 92Q188 80 177 64T150 31T116 4T87 -10H79ZM145 156Q165 156 177 188Q187 212 187 238V254Q187 265 187 269T186 271Q126 249 94 181Q128 156 145 156Z" />
<glyph unicode="f" glyph-name="f" horiz-adv-x="158" d="M-166 -243Q-192 -243 -209 -227T-226 -185Q-226 -169 -220 -147Q-212 -118 -202 -118Q-196 -118 -196 -131Q-196 -135 -196 -142T-198 -157Q-199 -165 -199 -171T-200 -183Q-200 -224 -170 -224Q-61 -224
90 224L111 283L62 285Q51 285 51 298Q51 302 89 305L118 306Q120 310 122 312L162 432Q175 467 187 496T212 547Q253 622 300 622Q350 622 350 565Q350 538 337 538Q335 538 330 562Q324 585 306 585Q268 585 215 462L154 310L151 303Q158 304 168 304T193 305Q228
305 249 299L251 298L246 295Q221 286 195 286Q175 286 163 286T146 285L120 213Q86 115 64 54T31 -33Q-39 -195 -118 -230Q-147 -243 -166 -243Z" />
<glyph unicode="g" glyph-name="g" horiz-adv-x="232" d="M-77 -318Q-110 -318 -110 -270Q-110 -194 -32 -107Q40 -28 117 1L161 109Q88 -6 36 -6Q7 -6 7 36Q7 101 66 199Q131 304 190 304Q223 304 223 274Q223 246 212 246H210Q206 252 195 252Q165 252 127 213Q96
182 77 147Q30 64 30 30Q30 17 39 17Q67 17 137 107Q204 194 214 231V232Q231 243 243 243Q252 243 252 234Q252 231 250 226T245 213L149 8Q153 9 156 9T164 10Q193 10 193 -24Q193 -42 186 -42Q175 -42 177 -31V-29Q177 -8 157 -8Q147 -8 139 -12Q136 -24 125
-49T100 -105T72 -161T50 -200Q-23 -318 -77 -318ZM-83 -297Q-62 -297 -5 -225Q57 -147 109 -21Q30 -60 -14 -116Q-37 -146 -63 -195Q-92 -251 -92 -283Q-92 -297 -83 -297Z" />
<glyph unicode="h" glyph-name="h" horiz-adv-x="254" d="M-11 -11Q-18 -11 -18 -3Q-18 18 105 294Q118 326 137 372T182 480Q243 613 305 613Q345 613 345 562Q345 539 335 532H333Q329 532 324 552Q319 572 309 572Q252 572 73 138Q89 163 102 182T127 214Q143
234 159 249T193 276Q252 315 284 315Q301 315 301 303Q301 296 289 279Q249 222 206 124Q172 49 172 23Q172 17 174 17Q182 17 213 39Q245 60 247 60Q250 60 250 56Q250 45 236 31T202 6T171 -4Q136 -4 136 31Q136 60 173 137Q182 155 195 182T225 245Q236 270
236 276Q236 279 233 279Q228 279 214 268Q182 242 146 201T79 114T29 28Q11 -11 -11 -11Z" />
<glyph unicode="i" glyph-name="i" horiz-adv-x="135" d="M185 331Q176 331 165 340T153 359Q153 368 163 376T188 391T212 397Q218 397 218 391Q218 387 207 376Q195 364 194 362L193 344Q193 331 185 331ZM53 -6Q16 -6 16 34Q16 88 90 242Q118 303 155 303Q165
303 165 298Q44 78 44 29Q44 13 57 13Q63 13 74 20T97 37T117 54T125 62Q127 62 129 51Q129 39 115 26T84 3T53 -6Z" />
<glyph unicode="j" glyph-name="j" horiz-adv-x="140" d="M174 345Q164 345 150 355T136 375Q136 383 145 392T162 402Q187 416 202 416Q209 416 211 411Q211 408 199 397Q185 385 184 378Q177 345 174 345ZM-158 -255Q-192 -255 -210 -226Q-226 -201 -226 -165Q-226
-159 -225 -150T-222 -130Q-218 -102 -212 -102Q-210 -104 -210 -106L-208 -142Q-203 -234 -159 -234Q-96 -234 -11 -56Q54 79 81 183Q83 193 84 200T86 213Q86 215 86 217T85 223Q84 226 84 228T83 232Q83 241 91 255T111 281T131 293Q139 293 147 279Q146 267
137 237T110 157Q85 89 59 30T5 -82Q-88 -255 -158 -255Z" />
<glyph unicode="k" glyph-name="k" horiz-adv-x="247" d="M170 -18Q144 -18 120 23Q90 74 90 116Q90 131 103 134H129Q172 134 217 199Q248 243 248 275Q248 296 232 296Q203 296 150 233Q104 178 87 143Q46 55 27 -8V-6Q26 -10 22 -10Q16 -10 11 -3T5 11L12 33Q28
82 54 154T118 320Q125 338 135 365T159 428Q234 616 307 616Q349 616 349 559Q349 532 337 532Q333 532 330 554Q326 576 314 576Q281 576 203 420Q152 318 113 219Q122 230 136 247T166 281T200 310T233 322Q276 322 276 275Q276 238 246 194Q220 156 184 132Q179
128 169 123T144 109Q136 104 136 86Q136 51 176 -13Q176 -18 170 -18Z" />
<glyph unicode="l" glyph-name="l" horiz-adv-x="144" d="M43 -6Q12 -6 12 24Q12 63 62 198Q102 304 136 382T202 513Q261 612 307 612Q319 612 326 608Q342 601 342 558Q342 532 329 532Q326 532 324 552Q321 572 308 572Q251 572 138 305Q45 85 45 21Q45 13
48 13Q59 13 100 51L139 88Q141 88 141 85Q141 73 131 58T105 28T72 4T43 -6Z" />
<glyph unicode="m" glyph-name="m" horiz-adv-x="394" d="M306 -13Q296 -13 284 -4T272 15Q272 23 279 41L333 157Q373 241 373 260Q373 269 368 269Q349 269 256 139Q231 105 214 73T185 10Q181 -3 163 -3Q147 -3 147 14Q147 35 197 133Q246 230 246 257Q246
270 239 270Q220 270 136 162Q108 126 87 93T51 27Q33 -12 6 -12Q-3 -12 -3 -3Q-3 0 53 123Q84 188 100 225T120 270Q125 282 138 296T161 311Q167 311 167 303Q167 280 91 129Q216 309 265 309Q283 309 283 284Q283 233 221 120Q352 308 398 308Q418 308 418 282Q418
245 366 144Q313 41 313 21Q313 9 322 9Q332 9 354 31Q375 52 376 52Q378 52 378 49Q378 37 365 23T336 -2T306 -13Z" />
<glyph unicode="n" glyph-name="n" horiz-adv-x="244" d="M5 -9Q-5 -9 -5 0Q-5 7 22 62L71 164Q87 197 95 223T107 269Q109 283 123 297T150 312Q159 312 159 301Q159 286 79 117Q132 197 160 231Q223 307 263 307Q278 307 278 297Q278 272 231 173Q183 76 183
58Q183 55 185 53Q187 51 187 48Q187 42 178 25T162 3Q152 -5 143 -5Q129 -5 129 6Q129 31 183 137Q236 245 236 263Q236 270 232 270Q211 270 124 154Q100 122 81 91T48 28Q32 -9 5 -9Z" />
<glyph unicode="o" glyph-name="o" horiz-adv-x="232" d="M58 -16Q13 -16 13 36Q13 111 69 221Q116 313 154 313Q162 313 172 307L183 301L185 305Q186 313 194 327Q200 329 203 329Q228 329 228 282Q228 277 228 270T227 252Q226 242 226 235T225 222Q225 208
246 208Q250 208 259 211Q268 214 273 214Q282 214 282 208Q282 192 247 192Q226 192 218 199Q200 132 162 68Q111 -16 58 -16ZM64 8Q115 8 172 124Q198 178 200 206Q182 216 178 249Q173 278 166 278Q139 278 101 203Q46 97 46 35Q46 8 64 8Z" />
<glyph unicode="p" glyph-name="p" horiz-adv-x="241" d="M-113 -307Q-122 -307 -122 -291Q-122 -283 -80 -183L-32 -68Q-25 -51 -13 -17T19 69L82 243Q84 248 87 258T94 281Q107 318 132 318Q139 318 139 310Q139 302 113 230L80 143Q104 193 139 243Q189 315
218 315Q257 315 257 247Q257 191 232 131T168 27Q120 -25 75 -25Q34 -25 34 3Q34 12 37 14V14Q37 15 40 15Q40 15 40 15T37 14Q37 13 53 7Q64 3 71 1T82 -1Q137 -1 182 90Q221 168 221 230Q221 272 202 272Q201 271 199 271H200Q172 267 104 151Q76 102 57 65T28
4Q18 -25 2 -69T-37 -172Q-88 -307 -113 -307Z" />
<glyph unicode="q" glyph-name="q" horiz-adv-x="226" d="M45 -300Q22 -300 22 -272Q22 -187 181 158Q156 116 113 64Q56 -4 30 -4Q12 -4 2 14T-9 51Q-9 76 5 109T42 175T93 237T150 283T203 301Q235 301 235 280Q235 265 228 252Q238 259 245 259Q251 259 251
253Q251 246 243 228Q222 182 197 123T142 -11Q66 -202 66 -244Q66 -258 75 -258Q81 -258 94 -252Q106 -246 111 -246Q115 -246 116 -247V-250Q116 -260 104 -272T74 -292T45 -300ZM28 15Q47 15 122 107Q192 191 204 224Q209 236 218 243L214 246Q211 261 195 261Q167
261 122 219Q91 190 68 159T31 95Q15 59 15 34Q15 15 28 15Z" />
<glyph unicode="r" glyph-name="r" horiz-adv-x="202" d="M-11 -8Q-20 -8 -20 0Q-20 9 32 117Q88 235 94 269Q96 283 109 297T136 312Q145 312 145 301Q145 287 110 212L65 117Q99 164 119 192T147 230Q212 307 251 307Q273 307 273 278Q273 244 260 244Q251 244
251 265Q251 271 245 271Q232 271 206 254Q107 188 33 30Q15 -8 -11 -8Z" />
<glyph unicode="s" glyph-name="s" horiz-adv-x="208" d="M22 -26Q-26 -26 -26 4Q-26 24 0 41Q18 52 45 57Q64 61 79 64T105 71L138 82Q139 85 139 88T140 94Q140 117 113 160Q85 203 85 223Q85 247 101 267T141 299T190 312Q230 312 230 285Q230 251 210 251Q202
251 200 268Q199 284 190 284Q179 284 165 274T142 249T132 222Q132 211 150 175Q167 138 167 120Q167 118 167 115T165 106Q164 102 164 98T163 92Q166 95 174 100T192 109T204 114Q206 114 206 113Q206 108 198 100T179 85T160 75V73Q158 64 149 50T129 23T108
3Q70 -26 22 -26ZM21 -8Q41 -8 63 1T103 25T130 58Q110 51 93 45T62 33Q11 14 11 -3Q11 -8 21 -8Z" />
<glyph unicode="t" glyph-name="t" horiz-adv-x="170" d="M65 -6Q31 -6 31 34Q31 55 39 87T66 163L120 293Q116 293 111 293T98 294L76 295Q65 295 65 308Q65 314 82 316L104 318Q114 319 121 320T134 321Q145 348 163 388T208 480Q244 538 276 538Q284 538 284
531Q284 524 235 436Q209 388 194 359T174 319Q249 319 249 308Q249 293 160 293Q59 53 59 28Q59 12 71 12Q81 12 107 35Q130 57 135 57Q141 57 141 48Q141 38 127 25T95 3T65 -6Z" />
<glyph unicode="u" glyph-name="u" horiz-adv-x="262" d="M159 -8Q151 -8 151 4Q151 51 224 201Q160 111 135 79Q66 -6 26 -6Q13 -6 13 7Q13 34 93 214Q97 222 104 238T121 276Q132 297 158 297Q165 297 165 291Q165 279 110 170Q54 60 54 37Q54 30 58 29Q67 29
112 82Q128 101 140 116T162 145Q164 149 171 159T188 187L231 257Q247 283 262 295T288 308Q299 308 299 299Q299 289 244 172Q188 52 188 23Q188 19 189 19Q190 19 212 39Q232 58 240 58Q242 56 242 54Q242 48 232 38T208 17T180 -1T159 -8Z" />
<glyph unicode="v" glyph-name="v" horiz-adv-x="225" d="M43 -8Q25 -8 25 18Q25 57 47 123L83 229Q87 240 87 249V252Q86 255 85 254Q79 253 79 260Q79 272 100 302Q108 313 124 313Q143 313 143 299Q143 283 121 223L91 144Q66 75 66 48Q66 35 74 35Q95 35 148
124Q189 192 208 238Q202 274 202 297Q202 337 217 347Q228 355 239 355Q256 355 256 337Q256 324 251 303T240 261T226 229Q234 194 260 194Q276 194 292 204L295 203V201Q295 192 278 186T250 179Q239 179 228 187T217 206L140 80Q80 -8 43 -8Z" />
<glyph unicode="w" glyph-name="w" horiz-adv-x="323" d="M166 -8Q149 -8 149 14Q149 47 173 113Q197 178 197 209Q197 210 196 210Q193 210 169 170L140 121Q53 -7 13 -7Q-3 -7 -3 8Q-3 22 14 74T66 215L90 276Q99 297 125 297Q133 297 133 291Q133 287 125 265Q124
263 112 234T75 148Q37 60 37 38Q37 29 42 29Q53 29 108 108Q175 203 211 274Q227 308 254 308Q265 308 265 299Q265 283 227 186Q189 89 189 49Q189 35 197 35Q219 35 273 125Q319 200 334 240Q328 282 328 290Q328 309 341 325Q350 336 356 336Q377 336 377 316Q377
298 364 268Q351 238 351 231Q351 203 378 203Q392 203 405 212Q411 212 411 209Q411 201 397 195T374 189Q363 189 352 196T341 213Q322 176 304 144T266 83Q205 -8 166 -8Z" />
<glyph unicode="x" glyph-name="x" horiz-adv-x="216" d="M-37 -75Q-44 -75 -44 -53Q-44 10 92 143V204Q92 223 92 236T91 257H89Q83 257 72 246Q59 235 58 235Q54 235 54 241Q54 249 67 262T96 287T120 298Q129 298 129 291V181Q176 216 213 268Q219 281 230
298T257 338Q261 338 261 332Q261 296 203 229L129 158V51Q129 25 140 25Q150 25 172 50Q193 75 198 75Q200 75 200 72Q200 59 184 39T148 3T113 -13Q94 -13 89 23V73Q89 90 89 101T91 119Q78 108 68 98T48 78Q-4 23 -20 -34Q-32 -75 -37 -75Z" />
<glyph unicode="y" glyph-name="y" horiz-adv-x="243" d="M-49 -294Q-79 -294 -79 -259Q-79 -221 -53 -166Q-29 -116 0 -84Q38 -43 74 -17T146 23Q148 33 164 78T208 206Q82 -7 23 -7Q7 -7 7 8Q7 24 23 73T72 205L100 276Q109 298 127 298Q136 298 143 291Q140
277 127 244T90 159Q47 64 47 39Q47 29 52 29Q63 29 118 108Q141 142 157 164T180 200Q190 217 200 235T221 274Q237 308 264 308Q275 308 275 299Q275 293 231 170Q212 117 199 82T178 28Q186 31 194 31Q221 31 221 -6Q221 -21 216 -21Q210 -21 208 -4Q207 14
190 14Q181 14 169 9L133 -86Q123 -113 112 -135T89 -177Q19 -294 -49 -294ZM-50 -273Q-22 -273 34 -202Q76 -148 137 -1Q63 -33 15 -94Q-58 -186 -58 -257Q-58 -273 -50 -273Z" />
<glyph unicode="z" glyph-name="z" horiz-adv-x="273" d="M-38 -301Q-61 -301 -61 -271Q-61 -233 -29 -174Q0 -121 31 -90Q108 -13 190 16Q205 49 205 83Q205 105 192 105Q183 105 124 75Q64 45 50 45Q31 45 31 63Q31 80 43 89Q60 102 86 121T148 166Q225 226
225 257Q225 268 211 268Q194 268 168 256T119 225T90 191Q87 186 85 186Q76 186 76 208Q76 253 158 283Q191 296 215 296Q271 296 271 265Q271 238 239 206Q230 197 206 180T141 136Q94 105 73 86Q86 91 105 98Q192 129 212 129Q241 129 241 94Q241 67 224 25H236Q266
25 266 -3Q266 -26 259 -26Q253 -26 252 -10Q251 7 236 7Q225 7 217 2Q173 -87 132 -149T54 -247Q-1 -301 -38 -301ZM-36 -279Q-11 -279 54 -208Q76 -184 107 -134T179 -6Q65 -58 -8 -180Q-43 -239 -43 -270Q-43 -279 -36 -279Z" />
<glyph unicode="{" glyph-name="braceleft" horiz-adv-x="258" d="M200 -94Q148 -94 124 -85Q104 -77 84 -63T64 -27Q64 3 82 58Q99 115 99 143Q99 209 -2 211L3 216Q74 222 103 242Q140 267 154 343Q171 430 190 455Q210 481 257 494T360 508Q364 508 365 507L359
505Q351 504 338 503T307 500Q246 487 225 427Q218 399 211 371T196 314Q180 271 142 242T59 213Q71 213 86 208T116 193Q146 174 146 139Q146 125 142 104T130 54Q113 -3 113 -31Q113 -70 145 -81L208 -90L210 -92Q204 -94 200 -94Z" />
<glyph unicode="|" glyph-name="bar" horiz-adv-x="175" d="M41 -81Q41 -68 53 -19L69 47Q82 119 88 195T95 352Q95 387 94 410T90 446Q90 454 86 469Q81 487 81 493Q81 501 94 501Q127 501 127 432Q127 395 122 330T105 170Q79 -41 61 -68Q50 -82 41 -82V-81Z" />
<glyph unicode="}" glyph-name="braceright" horiz-adv-x="340" d="M-29 -88Q-33 -88 -34 -87L-28 -85Q-20 -84 -7 -83T24 -80Q85 -67 106 -7Q113 22 120 50T135 106Q152 149 189 178T271 207Q260 207 245 212T215 227Q185 247 185 281Q185 309 202 366Q210 394
214 415T218 451Q218 490 186 501L123 510L121 512Q127 514 131 514Q183 514 207 505Q227 498 247 484T267 447Q267 418 249 362Q232 305 232 277Q232 211 333 209L328 204Q257 198 228 178Q191 153 177 77Q160 -10 141 -35Q121 -61 74 -74T-29 -88Z" />
<glyph unicode="~" glyph-name="asciitilde" horiz-adv-x="230" d="M124 351Q120 350 120 358Q120 369 130 380T155 399T181 407Q194 407 220 394Q245 381 260 381Q272 381 286 392Q297 401 298 401Q303 401 303 397Q304 394 301 389Q285 355 249 355Q234 355
208 367Q184 379 169 379Q160 379 150 372T132 358T124 351Z" />
<glyph unicode="&#xa0;" glyph-name="uni00A0" horiz-adv-x="174" />
<glyph unicode="&#xa1;" glyph-name="exclamdown" horiz-adv-x="294" d="M195 267Q188 267 187 271Q187 273 198 286Q210 298 211 303Q217 332 220 332Q230 332 242 324T254 305Q254 298 246 289T230 279H231Q206 267 195 267ZM-2 -294Q-19 -294 -19 -265Q-19
-256 -15 -251Q-8 -242 2 -226T29 -185Q51 -150 75 -103T124 4Q182 136 182 177L181 184L180 190Q180 198 187 198Q204 198 204 175Q204 148 175 56Q162 15 151 -14T132 -62Q38 -267 1 -292V-293Q-1 -293 -2 -294Z" />
<glyph unicode="&#xa2;" glyph-name="cent" horiz-adv-x="309" d="M47 66Q35 66 35 88Q35 144 80 211Q65 220 65 253Q65 308 102 373Q168 491 227 491Q231 491 234 491T241 489Q254 510 282 544Q288 553 294 553Q301 553 301 545Q301 544 265 479Q280 475 280
456Q280 438 271 414Q261 386 245 386Q229 386 229 400Q229 407 237 426Q241 435 242 441T245 451Q236 460 227 460Q219 460 200 446Q124 387 90 269Q85 251 85 242Q85 218 107 218Q131 218 174 256L216 294Q216 290 205 273Q153 196 103 200Q59 135 59 86Q59 66
47 66Z" />
<glyph unicode="&#xa3;" glyph-name="sterling" horiz-adv-x="497" d="M101 -27Q72 -27 47 -20Q9 -9 9 10Q9 30 41 42Q67 51 91 51Q128 51 171 45Q188 67 209 106T256 202L189 197Q173 197 173 213Q173 224 187 227Q196 229 269 230Q388 484 474 484Q518 484 540
450Q560 421 560 376Q560 343 548 298Q531 239 512 239Q496 239 496 259Q496 264 499 271Q527 339 527 389Q527 460 482 460Q432 460 318 231H369Q409 230 409 220Q409 208 362 206Q348 205 334 205T305 205Q292 177 272 135T222 36Q293 23 341 17T415 11Q449 11
488 20Q543 33 544 54V61Q544 74 552 74Q562 74 562 54Q562 16 505 -4Q463 -19 415 -19Q393 -19 341 -12T205 10Q172 -27 101 -27ZM95 -4Q123 -4 146 18Q118 21 91 21Q41 21 41 12Q41 5 65 0Q74 -2 81 -3T95 -4Z" />
<glyph unicode="&#xa4;" glyph-name="currency" horiz-adv-x="490" d="M361 118Q354 118 350 125Q336 141 324 156T300 184Q258 151 214 151Q191 151 174 160T145 185L68 127Q62 121 54 121Q49 121 51 128T74 157Q85 167 99 180T133 207Q125 229 125 252Q125 262
126 272T130 293Q136 313 144 331T166 366L121 422Q122 439 123 451T131 464Q135 464 141 458Q151 450 164 432T190 393Q211 413 235 424T285 435Q331 435 357 398Q377 416 394 431T424 454Q434 459 436 459Q443 459 439 446T427 417L370 372Q373 364 374 355T375
335Q375 325 374 315T370 293Q364 268 352 246T323 205Q347 174 358 155Q368 136 368 127Q368 118 361 118ZM209 173Q243 173 277 206T332 288Q341 315 341 338Q341 369 328 388T292 407Q270 407 246 391T200 348T168 288Q158 262 158 239Q158 210 172 192T209
173Z" />
<glyph unicode="&#xa5;" glyph-name="yen" horiz-adv-x="466" d="M45 -6Q30 -6 30 2Q30 43 50 98L86 190Q44 186 40 185V185Q40 185 40 185T40 185Q34 185 28 194T20 208L21 211Q33 214 95 217Q99 228 104 247T117 294Q105 294 79 291Q54 288 40 288Q35 288 28
297T20 311L21 313Q37 318 123 320Q131 357 135 385T140 436Q140 472 120 527Q119 529 112 543T99 572T93 587Q93 598 123 598Q167 598 167 449Q167 368 154 320L158 319Q193 356 234 396T322 481Q460 610 485 610L497 609V606Q314 477 191 318Q265 313 265 305Q265
300 259 300Q229 300 176 297Q162 277 151 257T132 217Q235 217 262 206Q265 205 265 203Q265 197 259 197Q231 197 198 196T123 192Q115 167 108 137T95 71Q94 63 92 49T85 13Q79 -6 45 -6Z" />
<glyph unicode="&#xa6;" glyph-name="brokenbar" horiz-adv-x="166" d="M99 237Q90 237 90 243Q90 252 90 265T92 296Q93 313 93 326T94 348Q94 382 93 404T89 439Q89 445 86 457Q82 468 82 475Q82 483 94 483Q123 483 123 419Q123 263 112 243Q109 237 99 237ZM47
-47L45 -46Q59 9 66 56T78 142Q79 150 80 163T83 193Q84 195 88 196T96 197Q108 197 108 193Q108 186 104 162T95 105T83 43T71 -9T64 -34Q56 -46 47 -47Z" />
<glyph unicode="&#xa7;" glyph-name="section" horiz-adv-x="671" d="M322 -74Q292 -74 236 -39Q206 -34 183 -27T142 -10Q116 6 94 32T59 86T45 136Q45 192 90 192Q121 192 142 142L178 58Q202 13 237 -13Q268 -20 307 -20Q385 -20 449 7Q529 40 550 103Q556
121 556 136Q556 174 506 194Q493 199 473 204T424 213Q358 224 341 228Q222 257 222 330Q222 346 230 364T250 396T277 413Q265 431 265 452Q265 488 302 525Q376 599 507 599Q628 599 669 528Q679 511 679 493Q679 463 654 446T596 428Q573 428 573 439Q573 448
592 451Q618 456 627 460Q645 471 645 497Q645 538 596 557Q560 571 512 571Q462 571 412 556Q353 538 327 506Q305 480 305 457Q305 409 406 386Q515 361 551 347Q645 310 645 249Q645 208 601 156Q602 152 602 149T602 142Q602 121 593 98Q561 21 468 -16Q391
-47 295 -44Q303 -46 312 -49T332 -54V-55L333 -54Q339 -57 339 -63Q339 -74 322 -74ZM589 185Q612 223 612 241Q612 305 468 333Q450 337 417 343T350 361T292 395Q262 353 262 335Q262 291 333 273L477 242Q564 222 589 185ZM185 2Q164 22 143 54T100 129Q86
158 77 158Q76 158 76 157Q76 126 91 95T131 40T185 2Z" />
<glyph unicode="&#xa8;" glyph-name="dieresis" horiz-adv-x="147" d="M120 355Q116 355 107 359T96 367Q90 373 89 377T88 384Q88 387 90 389Q95 393 104 394T120 396Q137 396 137 381Q137 355 120 355ZM32 355Q28 355 19 359T8 367Q2 373 1 377T0 384Q0 387
2 389Q7 393 16 394T32 396Q49 396 49 381Q49 355 32 355Z" />
<glyph unicode="&#xa9;" glyph-name="copyright" horiz-adv-x="594" d="M243 -55Q133 -55 79 9Q29 67 29 151Q29 265 115 354Q234 476 392 476Q460 476 507 444T580 360T606 249Q606 205 591 161T543 79Q429 -55 243 -55ZM232 -30Q282 -30 332 -16T428 24T504
87Q537 125 553 171T569 262Q569 313 549 357T490 429T395 456Q248 456 143 335Q64 246 64 141Q64 63 109 17T232 -30ZM237 36Q214 36 196 50T178 94Q178 126 190 161T224 236Q264 306 307 340T388 375Q408 375 422 364Q450 360 450 325Q450 306 441 285Q428 251
409 251Q394 251 394 268Q394 273 397 279T406 296Q412 307 415 314T419 327Q419 340 398 340Q371 340 335 314T265 234Q234 185 224 148T213 92Q213 69 220 61T241 53Q259 53 283 67T331 102T367 142Q370 147 373 147Q379 147 379 139Q379 137 377 130T367 114Q336
74 307 55T237 36Z" />
<glyph unicode="&#xaa;" glyph-name="ordfeminine" horiz-adv-x="264" d="M94 410Q75 410 75 437Q75 465 100 511Q111 532 135 556Q162 583 181 583Q196 583 196 571Q196 551 187 551Q186 551 184 556Q182 561 177 561Q152 561 116 501Q91 461 91 429Q91 420 95
420Q107 420 150 489Q194 558 202 558Q205 558 205 554Q205 551 201 542Q162 449 162 433Q162 428 165 428Q167 428 176 438Q185 447 188 447Q191 447 191 444Q191 439 183 431T164 416T147 410Q141 410 141 418Q141 436 164 494Q119 410 94 410Z" />
<glyph unicode="&#xab;" glyph-name="guillemotleft" horiz-adv-x="420" d="M327 16L320 20Q310 39 285 66T220 130Q218 132 219 136Q220 145 288 222Q318 254 339 276T372 311Q383 322 393 322Q398 322 398 316Q395 301 269 163Q343 40 341 29Q338 14 327 16ZM187
16L180 20Q170 39 145 66T80 130Q78 132 79 136Q80 148 147 222Q174 252 195 274T231 311Q242 322 252 322Q258 322 258 316Q255 301 129 163Q202 41 200 29Q197 15 187 16Z" />
<glyph unicode="&#xac;" glyph-name="logicalnot" horiz-adv-x="687" d="M502 12Q495 12 495 22Q495 24 495 26T496 31L531 195H77Q73 195 67 197T60 206Q60 213 69 219T86 225H569L525 31Q524 23 518 18T502 12Z" />
<glyph unicode="&#xad;" glyph-name="uni00AD" horiz-adv-x="167" d="M88 178Q75 178 75 201Q75 212 83 215Q84 216 96 216T124 216Q213 216 217 209Q217 202 202 200L181 198Q151 192 135 188T109 181T88 178Z" />
<glyph unicode="&#xae;" glyph-name="registered" horiz-adv-x="594" d="M206 262Q124 262 85 310Q48 351 48 415Q48 500 111 566Q200 656 317 656Q367 656 402 632T457 570T476 488Q476 455 465 423T429 362Q344 262 206 262ZM203 288Q255 288 308 311T394 372Q417
399 428 431T440 496Q440 533 426 564T385 614T317 634Q265 634 222 612T140 548Q84 485 84 409Q84 354 116 321T203 288ZM275 346Q275 346 274 346T273 348Q264 368 246 393T217 429L201 397Q194 383 188 370T182 352Q182 350 179 350Q172 355 169 360T166 379Q166
390 171 401T183 421V420L192 432L204 455Q217 476 230 497T252 537H247Q245 537 243 537T239 536Q227 536 224 541T223 554Q223 556 226 556Q234 556 243 558T263 562L266 573Q266 575 268 575Q278 575 279 566Q292 570 305 572T329 575Q352 575 361 563T371 533Q371
512 353 487T308 443T251 426Q262 413 267 404T279 380Q280 378 281 372T282 360Q282 355 281 351T275 346ZM236 444Q259 447 287 461T335 496T356 537Q356 551 330 551Q320 551 310 549T289 545L279 543Q276 532 267 514T249 479T232 451L230 453L236 444Z" />
<glyph unicode="&#xaf;" glyph-name="overscore" horiz-adv-x="157" d="M10 359Q6 359 3 365T0 375Q0 382 8 384Q14 386 46 386Q54 386 62 386T81 385Q107 384 126 382T154 374Q157 371 157 367Q157 359 153 359H10Z" />
<glyph unicode="&#xb0;" glyph-name="degree" horiz-adv-x="189" d="M100 355Q78 355 64 369T50 405Q50 433 74 456T126 479Q148 479 162 465T176 429Q176 401 152 378T100 355ZM104 373Q121 373 135 389T149 428Q149 442 142 451T122 460Q106 460 92 443T77 406Q77
392 84 383T104 373Z" />
<glyph unicode="&#xb1;" glyph-name="plusminus" horiz-adv-x="438" d="M222 138Q218 138 218 157Q218 162 222 195T235 290Q224 290 206 290T165 288Q119 285 95 285Q89 285 84 292T79 306L85 311Q102 313 132 314T203 315H238L248 413Q250 435 254 452T278 471L282
466Q281 426 264 315Q299 314 337 313T417 308Q422 306 422 302Q421 301 421 298L411 292L260 291Q248 224 230 144Q227 138 222 138ZM115 65Q110 65 104 74T97 89L99 90Q120 97 198 97Q279 97 301 85Q304 84 304 82Q304 77 297 77Q268 77 206 71Q145 65 115 65Z"
/>
<glyph unicode="&#xb2;" glyph-name="uni00B2" horiz-adv-x="348" d="M265 289Q225 289 189 306T115 345Q96 331 79 326T51 321Q30 321 21 333T11 361Q11 375 19 385T40 396Q57 396 74 388T108 366L120 357Q147 373 163 386T199 418Q230 448 247 479T264 535Q264
557 250 570T206 583Q170 583 139 564T100 511Q99 507 99 501Q99 484 108 475T128 464T148 462H151Q157 462 157 459Q157 450 129 450Q100 450 88 464T75 496Q75 524 97 547T151 584T213 599Q255 599 276 581T298 534Q298 506 276 472T209 407Q187 392 168 378T128
352Q157 336 195 325T261 314Q278 314 289 318T300 333Q300 342 308 342Q313 342 318 338T323 326Q323 289 265 289ZM53 334Q64 334 78 338T108 350Q94 358 78 366T49 374Q31 374 31 355Q31 334 53 334Z" />
<glyph unicode="&#xb3;" glyph-name="uni00B3" horiz-adv-x="324" d="M134 300Q88 300 53 318T18 369Q18 390 36 409T73 428Q84 428 84 425Q84 423 82 421T76 415Q60 410 51 398T42 369Q42 347 61 328T123 308Q166 308 197 324T246 365T263 413Q263 430 255 444T228
467Q208 457 188 451T148 444Q119 444 119 459Q119 486 180 486Q191 486 203 484T228 475Q247 489 256 506T266 538Q266 557 251 569T203 582Q193 582 186 582T175 577Q178 570 178 561Q178 546 166 533T139 520Q124 520 124 538Q124 550 132 562T157 583Q149 592
131 596Q130 596 129 596T128 597Q128 599 131 600T136 602Q146 601 155 598T170 586Q175 588 187 591T213 594Q250 594 272 581T294 539Q294 505 238 473Q267 460 281 446T295 407Q295 374 270 350T207 313T134 300ZM147 536Q155 536 160 544T166 561Q166 568
163 572Q141 563 141 547Q141 536 147 536ZM162 458Q176 458 189 461T216 472Q198 475 180 475Q145 475 145 465Q145 458 162 458Z" />
<glyph unicode="&#xb4;" glyph-name="acute" horiz-adv-x="109" d="M5 354Q-1 354 -1 360Q-1 364 3 368Q7 372 19 385T47 413T75 441T89 454Q93 458 98 451T107 434T107 422Q93 411 71 395T29 367T5 354Z" />
<glyph unicode="&#xb5;" glyph-name="uni00B5" horiz-adv-x="252" d="M-101 -284Q-116 -284 -116 -270Q-116 -262 -112 -254Q-78 -178 -40 -92T41 92L98 222L121 276Q132 297 158 297Q165 297 165 291Q165 285 111 172Q56 61 56 34Q56 28 60 28Q89 28 243 274Q264
308 288 308Q299 308 299 299Q299 294 243 171Q188 54 188 23V21Q226 59 238 59Q242 59 242 54Q242 48 232 38T208 17T180 -1T159 -8Q151 -8 151 4Q151 51 224 201Q157 107 140 84Q78 7 37 -5L-34 -176L-67 -257Q-79 -284 -101 -284Z" />
<glyph unicode="&#xb6;" glyph-name="paragraph" horiz-adv-x="584" d="M-20 -296Q-56 -296 -56 -282Q-56 -275 -35 -275Q70 -275 148 -114Q158 -93 169 -65T195 7T230 116T279 275Q228 278 198 305Q163 335 163 382Q163 415 181 443Q206 486 260 500T399 514Q446
514 470 521Q515 592 578 592Q607 592 607 575Q607 563 592 563Q512 563 453 351L345 -41Q264 -246 123 -246H115Q56 -296 -20 -296ZM131 -231Q220 -224 282 -100Q298 -68 315 -17T349 103L390 283Q407 360 414 384Q422 411 430 435T448 481L421 480Q364 434 322
283Q310 236 291 165T246 0Q199 -160 131 -231Z" />
<glyph unicode="&#xb7;" glyph-name="middot" horiz-adv-x="212" d="M134 242Q121 242 107 251T92 273Q92 281 103 289T121 302Q133 309 144 312T162 316Q173 316 173 311Q173 309 159 295Q143 277 141 260Q138 242 134 242Z" />
<glyph unicode="&#xb8;" glyph-name="cedilla" horiz-adv-x="117" d="M39 -139Q23 -139 12 -134T0 -121Q0 -116 4 -116Q8 -116 14 -120Q22 -123 33 -123Q55 -123 68 -110T82 -81Q82 -71 75 -67T59 -62Q46 -62 36 -69Q35 -70 32 -70Q27 -70 24 -65T21 -58Q34 -43
50 -27T78 0H92L57 -46Q66 -43 76 -43Q92 -43 104 -51T117 -77Q117 -104 93 -121T39 -139Z" />
<glyph unicode="&#xb9;" glyph-name="uni00B9" horiz-adv-x="321" d="M83 300Q78 300 78 306Q78 314 121 324L130 326Q134 349 144 377T167 433T190 481T204 508Q209 516 219 533T233 554L212 542Q207 539 195 531T179 523Q176 523 176 525Q176 530 188 540L227
571Q258 596 265 596Q291 596 291 583Q291 577 286 570Q270 549 248 514T205 441T169 373T152 331Q195 341 234 341Q263 341 263 333Q263 332 258 329T242 326Q210 326 188 324T152 318V315Q152 307 149 306T142 304Q138 304 134 307T128 311Q123 311 112 309T91
303T83 300Z" />
<glyph unicode="&#xba;" glyph-name="ordmasculine" horiz-adv-x="225" d="M93 393Q66 393 66 425Q66 469 100 536Q128 591 151 591Q155 591 162 588L168 584L175 599Q177 601 180 601Q195 601 195 572L193 536Q193 528 206 528Q208 528 214 530Q217 531 222 531Q228
531 228 528Q228 518 207 518Q194 518 189 522Q179 480 156 444Q125 393 93 393ZM97 408Q129 408 162 477Q178 509 178 527Q166 534 165 553Q163 570 158 570Q142 570 119 525Q86 461 86 424Q86 408 97 408Z" />
<glyph unicode="&#xbb;" glyph-name="guillemotright" horiz-adv-x="420" d="M217 7Q212 7 212 13Q215 28 341 166Q268 290 269 300Q272 315 283 313L290 309Q301 290 325 263T390 199Q392 197 391 193Q390 184 322 107Q293 75 272 53T238 18Q227 7 217 7ZM61
7Q56 7 56 13Q59 28 185 166Q112 290 113 300Q116 315 127 313L134 309Q145 290 169 263T234 199Q236 197 235 193Q234 184 166 107Q137 75 116 53T82 18Q71 7 61 7Z" />
<glyph unicode="&#xbc;" glyph-name="onequarter" horiz-adv-x="1043" d="M83 300Q78 300 78 306Q78 314 121 324L130 326Q134 349 144 377T167 433T190 481T204 508Q209 516 219 533T233 554L212 542Q207 539 195 531T179 523Q176 523 176 525Q176 530 188 540L227
571Q258 596 265 596Q291 596 291 583Q291 577 286 570Q270 549 248 514T205 441T169 373T152 331Q195 341 234 341Q263 341 263 333Q263 332 258 329T242 326Q210 326 188 324T152 318V315Q152 307 149 306T142 304Q138 304 134 307T128 311Q123 311 112 309T91
303T83 300ZM321 113L677 541H704L347 113H321ZM843 301Q835 301 833 306T831 314Q831 325 832 337T843 374L870 441Q862 440 849 439T814 432Q794 429 779 427T754 425Q723 425 723 436Q722 440 741 458T788 501T847 549T900 589T931 605Q945 605 959 602T975
591Q975 589 974 586T971 577Q955 554 935 520T900 450Q909 450 920 450T944 451Q956 451 966 451T982 448Q990 447 997 439T1004 424Q1004 416 994 416Q970 428 942 435T897 442Q879 393 870 367T861 331Q861 327 865 327Q867 327 874 330T889 338Q895 341 900
341Q907 341 907 336T903 329Q889 322 872 312T843 301ZM789 444Q794 444 799 444T810 445Q830 447 845 448T874 451Q875 455 881 470T896 507T913 548T927 580L879 548Q846 526 830 512T793 478Q783 469 777 463T771 451Q771 444 789 444Z" />
<glyph unicode="&#xbd;" glyph-name="onehalf" horiz-adv-x="1052" d="M83 300Q78 300 78 306Q78 314 121 324L130 326Q134 349 144 377T167 433T190 481T204 508Q209 516 219 533T233 554L212 542Q207 539 195 531T179 523Q176 523 176 525Q176 530 188 540L227
571Q258 596 265 596Q291 596 291 583Q291 577 286 570Q270 549 248 514T205 441T169 373T152 331Q195 341 234 341Q263 341 263 333Q263 332 258 329T242 326Q210 326 188 324T152 318V315Q152 307 149 306T142 304Q138 304 134 307T128 311Q123 311 112 309T91
303T83 300ZM586 289Q546 289 510 306T436 345Q417 331 400 326T372 321Q351 321 342 333T332 361Q332 375 340 385T361 396Q378 396 395 388T429 366L441 357Q468 373 484 386T520 418Q551 448 568 479T585 535Q585 557 571 570T527 583Q491 583 460 564T421 511Q420
507 420 501Q420 484 429 475T449 464T469 462H472Q478 462 478 459Q478 450 450 450Q421 450 409 464T396 496Q396 524 418 547T472 584T534 599Q576 599 597 581T619 534Q619 506 597 472T530 407Q508 392 489 378T449 352Q478 336 516 325T582 314Q599 314 610
318T621 333Q621 342 629 342Q634 342 639 338T644 326Q644 289 586 289ZM374 334Q385 334 399 338T429 350Q415 358 399 366T370 374Q352 374 352 355Q352 334 374 334ZM669 113L1025 541H1052L695 113H669Z" />
<glyph unicode="&#xbe;" glyph-name="threequarters" horiz-adv-x="1046" d="M134 300Q88 300 53 318T18 369Q18 390 36 409T73 428Q84 428 84 425Q84 423 82 421T76 415Q60 410 51 398T42 369Q42 347 61 328T123 308Q166 308 197 324T246 365T263 413Q263 430
255 444T228 467Q208 457 188 451T148 444Q119 444 119 459Q119 486 180 486Q191 486 203 484T228 475Q247 489 256 506T266 538Q266 557 251 569T203 582Q193 582 186 582T175 577Q178 570 178 561Q178 546 166 533T139 520Q124 520 124 538Q124 550 132 562T157
583Q149 592 131 596Q130 596 129 596T128 597Q128 599 131 600T136 602Q146 601 155 598T170 586Q175 588 187 591T213 594Q250 594 272 581T294 539Q294 505 238 473Q267 460 281 446T295 407Q295 374 270 350T207 313T134 300ZM147 536Q155 536 160 544T166
561Q166 568 163 572Q141 563 141 547Q141 536 147 536ZM162 458Q176 458 189 461T216 472Q198 475 180 475Q145 475 145 465Q145 458 162 458ZM324 113L680 541H707L350 113H324ZM846 301Q838 301 836 306T834 314Q834 325 835 337T846 374L873 441Q865 440 852
439T817 432Q797 429 782 427T757 425Q726 425 726 436Q725 440 744 458T791 501T850 549T903 589T934 605Q948 605 962 602T978 591Q978 589 977 586T974 577Q958 554 938 520T903 450Q912 450 923 450T947 451Q959 451 969 451T985 448Q993 447 1000 439T1007
424Q1007 416 997 416Q973 428 945 435T900 442Q882 393 873 367T864 331Q864 327 868 327Q870 327 877 330T892 338Q898 341 903 341Q910 341 910 336T906 329Q892 322 875 312T846 301ZM792 444Q797 444 802 444T813 445Q833 447 848 448T877 451Q878 455 884
470T899 507T916 548T930 580L882 548Q849 526 833 512T796 478Q786 469 780 463T774 451Q774 444 792 444Z" />
<glyph unicode="&#xbf;" glyph-name="questiondown" horiz-adv-x="193" d="M126 246Q118 246 118 250Q118 253 134 266Q150 279 151 281Q164 309 167 309Q176 309 185 302T194 287Q194 280 182 269T163 258H165Q137 246 126 246ZM-44 -179Q-102 -179 -102 -134Q-102
-90 -57 -53Q-49 -46 25 -1Q113 53 113 107Q113 127 94 127Q90 127 86 126T74 122Q62 118 55 118Q54 118 54 119Q54 121 55 122Q78 144 112 144Q144 144 144 117V113Q144 66 55 -2Q43 -11 24 -24T-15 -53T-48 -86T-62 -122Q-62 -140 -48 -148H-47Q-34 -156 -18
-156Q4 -156 24 -145T59 -114T73 -74Q73 -69 68 -57L63 -46Q63 -40 72 -40Q101 -40 101 -72Q101 -107 29 -160V-161Q1 -179 -44 -179Z" />
<glyph unicode="&#xc0;" glyph-name="Agrave" horiz-adv-x="718" d="M186 -82Q111 -82 68 -33T25 92Q25 214 128 317Q202 391 282 391Q377 391 377 298Q377 270 367 239Q354 196 333 196Q325 196 325 205Q325 209 337 239Q348 270 348 287Q348 319 329 342T279
366Q226 366 174 323Q151 304 133 282T100 234Q64 167 64 84Q64 22 91 -14Q123 -56 182 -56Q256 -56 354 36Q401 80 490 190Q486 190 478 190T457 192L447 193H445Q460 186 460 182Q460 176 446 176Q406 176 406 196Q406 223 430 223Q443 223 470 220Q497 217 510
217Q529 240 550 269T597 335L681 456Q719 510 737 510Q758 510 758 456Q758 432 749 424Q737 412 726 389Q707 348 692 305T663 216H697Q701 216 705 216T717 217H731Q757 217 757 209Q757 195 656 187Q648 153 644 126T640 76Q640 19 668 4Q672 2 674 2Q681 2
691 12Q701 22 704 22Q711 22 711 10Q711 -6 690 -15Q672 -23 655 -23Q610 -23 610 52Q610 104 628 186L521 188Q319 -82 186 -82ZM632 215Q654 306 691 402Q652 356 615 310T543 216H561Q569 216 575 216T587 215H632ZM766 545Q763 545 748 552T714 570T676 593T646
611Q643 613 645 622T652 640T661 644Q663 643 677 631T711 604T746 575T766 559Q769 556 770 551T766 545Z" />
<glyph unicode="&#xc1;" glyph-name="Aacute" horiz-adv-x="718" d="M186 -82Q111 -82 68 -33T25 92Q25 214 128 317Q202 391 282 391Q377 391 377 298Q377 270 367 239Q354 196 333 196Q325 196 325 205Q325 209 337 239Q348 270 348 287Q348 319 329 342T279
366Q226 366 174 323Q151 304 133 282T100 234Q64 167 64 84Q64 22 91 -14Q123 -56 182 -56Q256 -56 354 36Q401 80 490 190Q486 190 478 190T457 192L447 193H445Q460 186 460 182Q460 176 446 176Q406 176 406 196Q406 223 430 223Q443 223 470 220Q497 217 510
217Q529 240 550 269T597 335L681 456Q719 510 737 510Q758 510 758 456Q758 432 749 424Q737 412 726 389Q707 348 692 305T663 216H697Q701 216 705 216T717 217H731Q757 217 757 209Q757 195 656 187Q648 153 644 126T640 76Q640 19 668 4Q672 2 674 2Q681 2
691 12Q701 22 704 22Q711 22 711 10Q711 -6 690 -15Q672 -23 655 -23Q610 -23 610 52Q610 104 628 186L521 188Q319 -82 186 -82ZM632 215Q654 306 691 402Q652 356 615 310T543 216H561Q569 216 575 216T587 215H632ZM699 545Q695 545 695 550Q695 555 699 559Q704
563 721 577T758 607T789 632Q796 637 800 641T806 645Q811 645 815 638T821 622T818 610Q807 603 789 593T752 571T718 553T699 545Z" />
<glyph unicode="&#xc2;" glyph-name="Acircumflex" horiz-adv-x="718" d="M186 -82Q111 -82 68 -33T25 92Q25 214 128 317Q202 391 282 391Q377 391 377 298Q377 270 367 239Q354 196 333 196Q325 196 325 205Q325 209 337 239Q348 270 348 287Q348 319 329 342T279
366Q226 366 174 323Q151 304 133 282T100 234Q64 167 64 84Q64 22 91 -14Q123 -56 182 -56Q256 -56 354 36Q401 80 490 190Q486 190 478 190T457 192L447 193H445Q460 186 460 182Q460 176 446 176Q406 176 406 196Q406 223 430 223Q443 223 470 220Q497 217 510
217Q529 240 550 269T597 335L681 456Q719 510 737 510Q758 510 758 456Q758 432 749 424Q737 412 726 389Q707 348 692 305T663 216H697Q701 216 705 216T717 217H731Q757 217 757 209Q757 195 656 187Q648 153 644 126T640 76Q640 19 668 4Q672 2 674 2Q681 2
691 12Q701 22 704 22Q711 22 711 10Q711 -6 690 -15Q672 -23 655 -23Q610 -23 610 52Q610 104 628 186L521 188Q319 -82 186 -82ZM632 215Q654 306 691 402Q652 356 615 310T543 216H561Q569 216 575 216T587 215H632ZM647 543Q643 543 643 547Q643 554 650 557L780
633Q784 635 786 633L855 557Q857 555 857 551Q857 543 850 543Q846 543 831 552T798 574T770 593Q757 587 738 579T699 562T665 549T647 543Z" />
<glyph unicode="&#xc3;" glyph-name="Atilde" horiz-adv-x="718" d="M186 -82Q111 -82 68 -33T25 92Q25 214 128 317Q202 391 282 391Q377 391 377 298Q377 270 367 239Q354 196 333 196Q325 196 325 205Q325 209 337 239Q348 270 348 287Q348 319 329 342T279
366Q226 366 174 323Q151 304 133 282T100 234Q64 167 64 84Q64 22 91 -14Q123 -56 182 -56Q256 -56 354 36Q401 80 490 190Q486 190 478 190T457 192L447 193H445Q460 186 460 182Q460 176 446 176Q406 176 406 196Q406 223 430 223Q443 223 470 220Q497 217 510
217Q529 240 550 269T597 335L681 456Q719 510 737 510Q758 510 758 456Q758 432 749 424Q737 412 726 389Q707 348 692 305T663 216H697Q701 216 705 216T717 217H731Q757 217 757 209Q757 195 656 187Q648 153 644 126T640 76Q640 19 668 4Q672 2 674 2Q681 2
691 12Q701 22 704 22Q711 22 711 10Q711 -6 690 -15Q672 -23 655 -23Q610 -23 610 52Q610 104 628 186L521 188Q319 -82 186 -82ZM632 215Q654 306 691 402Q652 356 615 310T543 216H561Q569 216 575 216T587 215H632ZM671 546Q673 556 679 569T696 593T723 603Q746
603 769 591T808 578Q822 578 831 587T842 602Q843 609 849 608T855 604Q854 594 848 581T830 557T803 547Q780 547 757 559T718 572Q705 572 696 563T684 548Q683 541 677 542T671 546Z" />
<glyph unicode="&#xc4;" glyph-name="Adieresis" horiz-adv-x="718" d="M186 -82Q111 -82 68 -33T25 92Q25 214 128 317Q202 391 282 391Q377 391 377 298Q377 270 367 239Q354 196 333 196Q325 196 325 205Q325 209 337 239Q348 270 348 287Q348 319 329 342T279
366Q226 366 174 323Q151 304 133 282T100 234Q64 167 64 84Q64 22 91 -14Q123 -56 182 -56Q256 -56 354 36Q401 80 490 190Q486 190 478 190T457 192L447 193H445Q460 186 460 182Q460 176 446 176Q406 176 406 196Q406 223 430 223Q443 223 470 220Q497 217 510
217Q529 240 550 269T597 335L681 456Q719 510 737 510Q758 510 758 456Q758 432 749 424Q737 412 726 389Q707 348 692 305T663 216H697Q701 216 705 216T717 217H731Q757 217 757 209Q757 195 656 187Q648 153 644 126T640 76Q640 19 668 4Q672 2 674 2Q681 2
691 12Q701 22 704 22Q711 22 711 10Q711 -6 690 -15Q672 -23 655 -23Q610 -23 610 52Q610 104 628 186L521 188Q319 -82 186 -82ZM632 215Q654 306 691 402Q652 356 615 310T543 216H561Q569 216 575 216T587 215H632ZM793 546Q789 546 780 551T769 559Q762 565
761 569T760 576Q760 579 762 581Q767 586 777 587T793 589Q811 589 811 573Q811 546 793 546ZM705 546Q701 546 692 551T681 559Q674 565 673 569T672 576Q672 579 674 581Q679 586 689 587T705 589Q723 589 723 573Q723 546 705 546Z" />
<glyph unicode="&#xc5;" glyph-name="Aring" horiz-adv-x="718" d="M186 -82Q111 -82 68 -33T25 92Q25 214 128 317Q202 391 282 391Q377 391 377 298Q377 270 367 239Q354 196 333 196Q325 196 325 205Q325 209 337 239Q348 270 348 287Q348 319 329 342T279
366Q226 366 174 323Q151 304 133 282T100 234Q64 167 64 84Q64 22 91 -14Q123 -56 182 -56Q256 -56 354 36Q401 80 490 190Q486 190 478 190T457 192L447 193H445Q460 186 460 182Q460 176 446 176Q406 176 406 196Q406 223 430 223Q443 223 470 220Q497 217 510
217Q529 240 550 269T597 335L681 456Q719 510 737 510Q758 510 758 456Q758 432 749 424Q737 412 726 389Q707 348 692 305T663 216H697Q701 216 705 216T717 217H731Q757 217 757 209Q757 195 656 187Q648 153 644 126T640 76Q640 19 668 4Q672 2 674 2Q681 2
691 12Q701 22 704 22Q711 22 711 10Q711 -6 690 -15Q672 -23 655 -23Q610 -23 610 52Q610 104 628 186L521 188Q319 -82 186 -82ZM632 215Q654 306 691 402Q652 356 615 310T543 216H561Q569 216 575 216T587 215H632ZM757 545Q738 545 724 558T710 590Q710 616
732 635T779 655Q799 655 812 643T826 611Q826 582 804 564T757 545ZM762 563Q773 563 784 577T796 608Q796 620 791 628T774 637Q765 637 755 626T742 600Q741 598 741 595T741 590Q741 579 746 571T762 563Z" />
<glyph unicode="&#xc6;" glyph-name="AE" horiz-adv-x="1111" d="M166 -82Q91 -82 48 -33T5 92Q5 214 108 317Q182 391 262 391Q357 391 357 298Q357 270 347 239Q334 196 313 196Q305 196 305 205Q305 209 317 239Q328 270 328 287Q328 320 310 343T259 366Q206
366 154 323Q131 304 113 282T80 234Q44 167 44 84Q44 22 71 -14Q103 -56 162 -56Q236 -56 334 36Q381 80 470 190Q466 190 458 190T437 192L427 193H425Q440 186 440 182Q440 176 426 176Q386 176 386 196Q386 223 410 223Q423 223 450 220Q477 217 490 217Q508
239 530 268T577 335L661 456Q699 510 717 510Q738 510 738 456Q738 432 729 424Q722 418 717 409T706 389Q690 351 674 305T641 202Q695 237 784 270Q750 303 750 344Q750 421 853 464Q910 489 982 489Q1029 489 1055 475Q1099 502 1118 502Q1124 502 1124 498Q1124
489 1107 480Q1100 478 1094 475T1082 469Q1080 468 1078 466T1071 462Q1088 445 1088 419Q1088 390 1069 367T1022 343Q979 343 979 379Q979 417 1027 456Q1011 462 984 462Q914 462 859 434Q789 400 789 337Q789 304 816 280Q866 294 905 294Q997 294 997 255Q997
234 969 224Q947 216 924 216Q859 216 807 251Q737 231 687 196Q621 150 621 91Q621 29 681 -6Q730 -34 798 -34Q878 -34 946 -3Q1023 32 1056 96Q1065 113 1065 125Q1065 140 1049 156Q1033 172 1033 174Q1033 185 1058 185Q1076 185 1090 168Q1100 152 1100 131Q1100
77 1038 26Q987 -15 927 -36Q855 -61 778 -61Q706 -61 647 -31Q576 7 576 72Q576 95 608 186L501 188Q299 -82 166 -82ZM1019 369Q1033 369 1044 387T1055 420Q1055 434 1045 443Q1002 409 1002 384Q1002 369 1019 369ZM612 215Q634 306 671 402Q632 356 595 310T523
216H541Q549 216 555 216T567 215H612ZM929 239Q961 239 961 254Q961 265 908 265Q879 265 844 259Q886 239 929 239Z" />
<glyph unicode="&#xc7;" glyph-name="Ccedilla" horiz-adv-x="498" d="M241 -51Q175 -51 125 -23T47 55T18 171Q18 237 44 294T117 396T222 466T348 491Q419 491 470 458Q530 421 530 353Q530 287 473 246Q423 211 353 211Q255 211 255 297Q255 322 268 347Q283
377 306 377Q330 377 330 363Q330 358 317 358Q299 358 289 341T278 303Q278 275 297 255T344 234Q444 234 486 300Q500 323 500 348Q500 386 477 416T418 461Q392 471 355 471Q272 471 204 426T95 305Q61 241 61 176Q61 118 88 76T161 9T266 -15Q378 -15 453 61L482
98Q492 111 505 111Q512 111 512 104Q512 99 502 85Q476 45 434 15T341 -33T241 -51ZM202 -179Q186 -179 175 -174T163 -161Q163 -156 167 -156Q171 -156 177 -160Q185 -163 196 -163Q218 -163 231 -150T245 -121Q245 -111 238 -107T222 -102Q209 -102 199 -109Q198
-110 195 -110Q190 -110 187 -105T184 -98Q197 -83 213 -67T241 -40H255L220 -86Q229 -83 239 -83Q255 -83 267 -91T280 -117Q280 -144 256 -161T202 -179Z" />
<glyph unicode="&#xc8;" glyph-name="Egrave" horiz-adv-x="523" d="M208 -60Q136 -60 77 -32Q1 4 1 66Q1 81 6 96Q46 210 212 270Q178 303 178 344Q178 421 281 464Q338 489 410 489Q457 489 483 475Q527 502 546 502Q552 502 552 498Q552 489 535 480Q528 478
522 475T509 469L499 462Q516 445 516 419Q516 390 497 367T450 343Q407 343 407 379Q407 417 454 456Q438 462 412 462Q342 462 287 434Q217 400 217 337Q217 304 244 280Q294 294 333 294Q367 294 389 287Q425 277 425 255Q425 234 397 224Q375 216 352 216Q285
216 235 251Q164 231 111 186Q47 132 47 67Q47 -34 219 -34Q302 -34 371 -4Q450 30 484 96Q493 113 493 125Q493 140 477 156Q461 172 461 174Q461 185 485 185Q505 185 516 169T528 131Q528 77 466 26Q415 -15 355 -36Q285 -60 208 -60ZM447 369Q461 369 472 387T483
420Q483 434 473 443Q430 409 430 384Q430 369 447 369ZM357 239Q389 239 389 254Q389 265 336 265Q307 265 272 259Q314 239 357 239ZM426 528Q423 528 408 535T374 553T336 576T306 594Q303 596 305 605T312 623T321 627Q323 626 337 614T371 587T406 558T426
542Q429 539 430 534T426 528Z" />
<glyph unicode="&#xc9;" glyph-name="Eacute" horiz-adv-x="523" d="M208 -60Q136 -60 77 -32Q1 4 1 66Q1 81 6 96Q46 210 212 270Q178 303 178 344Q178 421 281 464Q338 489 410 489Q457 489 483 475Q527 502 546 502Q552 502 552 498Q552 489 535 480Q528 478
522 475T509 469L499 462Q516 445 516 419Q516 390 497 367T450 343Q407 343 407 379Q407 417 454 456Q438 462 412 462Q342 462 287 434Q217 400 217 337Q217 304 244 280Q294 294 333 294Q367 294 389 287Q425 277 425 255Q425 234 397 224Q375 216 352 216Q285
216 235 251Q164 231 111 186Q47 132 47 67Q47 -34 219 -34Q302 -34 371 -4Q450 30 484 96Q493 113 493 125Q493 140 477 156Q461 172 461 174Q461 185 485 185Q505 185 516 169T528 131Q528 77 466 26Q415 -15 355 -36Q285 -60 208 -60ZM447 369Q461 369 472 387T483
420Q483 434 473 443Q430 409 430 384Q430 369 447 369ZM357 239Q389 239 389 254Q389 265 336 265Q307 265 272 259Q314 239 357 239ZM359 528Q355 528 355 533Q355 538 359 542Q364 546 381 560T418 590T449 615Q456 620 460 624T466 628Q471 628 475 621T481
605T478 593Q467 586 449 576T412 554T378 536T359 528Z" />
<glyph unicode="&#xca;" glyph-name="Ecircumflex" horiz-adv-x="523" d="M208 -60Q136 -60 77 -32Q1 4 1 66Q1 81 6 96Q46 210 212 270Q178 303 178 344Q178 421 281 464Q338 489 410 489Q457 489 483 475Q527 502 546 502Q552 502 552 498Q552 489 535 480Q528
478 522 475T509 469L499 462Q516 445 516 419Q516 390 497 367T450 343Q407 343 407 379Q407 417 454 456Q438 462 412 462Q342 462 287 434Q217 400 217 337Q217 304 244 280Q294 294 333 294Q367 294 389 287Q425 277 425 255Q425 234 397 224Q375 216 352 216Q285
216 235 251Q164 231 111 186Q47 132 47 67Q47 -34 219 -34Q302 -34 371 -4Q450 30 484 96Q493 113 493 125Q493 140 477 156Q461 172 461 174Q461 185 485 185Q505 185 516 169T528 131Q528 77 466 26Q415 -15 355 -36Q285 -60 208 -60ZM447 369Q461 369 472 387T483
420Q483 434 473 443Q430 409 430 384Q430 369 447 369ZM357 239Q389 239 389 254Q389 265 336 265Q307 265 272 259Q314 239 357 239ZM307 526Q303 526 303 530Q303 537 310 540L440 616Q444 618 446 616L515 540Q517 538 517 534Q517 526 510 526Q506 526 491
535T458 557T430 576Q417 570 398 562T359 545T325 532T307 526Z" />
<glyph unicode="&#xcb;" glyph-name="Edieresis" horiz-adv-x="523" d="M208 -60Q136 -60 77 -32Q1 4 1 66Q1 81 6 96Q46 210 212 270Q178 303 178 344Q178 421 281 464Q338 489 410 489Q457 489 483 475Q527 502 546 502Q552 502 552 498Q552 489 535 480Q528
478 522 475T509 469L499 462Q516 445 516 419Q516 390 497 367T450 343Q407 343 407 379Q407 417 454 456Q438 462 412 462Q342 462 287 434Q217 400 217 337Q217 304 244 280Q294 294 333 294Q367 294 389 287Q425 277 425 255Q425 234 397 224Q375 216 352 216Q285
216 235 251Q164 231 111 186Q47 132 47 67Q47 -34 219 -34Q302 -34 371 -4Q450 30 484 96Q493 113 493 125Q493 140 477 156Q461 172 461 174Q461 185 485 185Q505 185 516 169T528 131Q528 77 466 26Q415 -15 355 -36Q285 -60 208 -60ZM447 369Q461 369 472 387T483
420Q483 434 473 443Q430 409 430 384Q430 369 447 369ZM357 239Q389 239 389 254Q389 265 336 265Q307 265 272 259Q314 239 357 239ZM453 529Q449 529 440 534T429 542Q422 548 421 552T420 559Q420 562 422 564Q427 569 437 570T453 572Q471 572 471 556Q471
529 453 529ZM365 529Q361 529 352 534T341 542Q334 548 333 552T332 559Q332 562 334 564Q339 569 349 570T365 572Q383 572 383 556Q383 529 365 529Z" />
<glyph unicode="&#xcc;" glyph-name="Igrave" horiz-adv-x="451" d="M170 -56Q102 -56 57 -17T12 89Q12 109 16 124Q52 266 181 266Q197 266 213 258T240 236T252 207Q252 202 250 197T244 196Q235 207 217 223T174 239Q112 239 74 192Q40 149 40 85Q40 -33 174
-33Q297 -33 399 160Q424 207 447 270T490 413Q492 424 495 437T500 466Q448 451 401 410Q341 358 341 326Q341 307 372 303Q403 297 403 293Q403 277 348 277Q308 277 308 312Q308 342 335 379Q357 409 386 431Q469 492 512 492Q535 492 535 467Q535 428 505 330Q480
249 457 193Q435 141 408 99T348 24Q266 -56 170 -56ZM536 528Q533 528 518 535T484 553T446 576T416 594Q413 596 415 605T422 623T431 627Q433 626 447 614T481 587T516 558T536 542Q539 539 540 534T536 528Z" />
<glyph unicode="&#xcd;" glyph-name="Iacute" horiz-adv-x="451" d="M170 -56Q102 -56 57 -17T12 89Q12 109 16 124Q52 266 181 266Q197 266 213 258T240 236T252 207Q252 202 250 197T244 196Q235 207 217 223T174 239Q112 239 74 192Q40 149 40 85Q40 -33 174
-33Q297 -33 399 160Q424 207 447 270T490 413Q492 424 495 437T500 466Q448 451 401 410Q341 358 341 326Q341 307 372 303Q403 297 403 293Q403 277 348 277Q308 277 308 312Q308 342 335 379Q357 409 386 431Q469 492 512 492Q535 492 535 467Q535 428 505 330Q480
249 457 193Q435 141 408 99T348 24Q266 -56 170 -56ZM469 528Q465 528 465 533Q465 538 469 542Q474 546 491 560T528 590T559 615Q566 620 570 624T576 628Q581 628 585 621T591 605T588 593Q577 586 559 576T522 554T488 536T469 528Z" />
<glyph unicode="&#xce;" glyph-name="Icircumflex" horiz-adv-x="451" d="M170 -56Q102 -56 57 -17T12 89Q12 109 16 124Q52 266 181 266Q197 266 213 258T240 236T252 207Q252 202 250 197T244 196Q235 207 217 223T174 239Q112 239 74 192Q40 149 40 85Q40 -33
174 -33Q297 -33 399 160Q424 207 447 270T490 413Q492 424 495 437T500 466Q448 451 401 410Q341 358 341 326Q341 307 372 303Q403 297 403 293Q403 277 348 277Q308 277 308 312Q308 342 335 379Q357 409 386 431Q469 492 512 492Q535 492 535 467Q535 428 505
330Q480 249 457 193Q435 141 408 99T348 24Q266 -56 170 -56ZM417 526Q413 526 413 530Q413 537 420 540L550 616Q554 618 556 616L625 540Q627 538 627 534Q627 526 620 526Q616 526 601 535T568 557T540 576Q527 570 508 562T469 545T435 532T417 526Z" />
<glyph unicode="&#xcf;" glyph-name="Idieresis" horiz-adv-x="451" d="M170 -56Q102 -56 57 -17T12 89Q12 109 16 124Q52 266 181 266Q197 266 213 258T240 236T252 207Q252 202 250 197T244 196Q235 207 217 223T174 239Q112 239 74 192Q40 149 40 85Q40 -33
174 -33Q297 -33 399 160Q424 207 447 270T490 413Q492 424 495 437T500 466Q448 451 401 410Q341 358 341 326Q341 307 372 303Q403 297 403 293Q403 277 348 277Q308 277 308 312Q308 342 335 379Q357 409 386 431Q469 492 512 492Q535 492 535 467Q535 428 505
330Q480 249 457 193Q435 141 408 99T348 24Q266 -56 170 -56ZM563 529Q559 529 550 534T539 542Q532 548 531 552T530 559Q530 562 532 564Q537 569 547 570T563 572Q581 572 581 556Q581 529 563 529ZM475 529Q471 529 462 534T451 542Q444 548 443 552T442 559Q442
562 444 564Q449 569 459 570T475 572Q493 572 493 556Q493 529 475 529Z" />
<glyph unicode="&#xd0;" glyph-name="Eth" horiz-adv-x="630" d="M322 -44Q211 -44 132 20Q83 -32 53 -32Q24 -32 9 12Q1 38 1 62Q1 98 15 146Q33 207 61 207Q79 207 91 161L107 96Q117 78 130 62Q152 93 177 136T233 236Q323 403 360 403Q387 403 387 373Q387
355 377 355Q366 355 366 368L367 373Q368 375 368 378H367Q347 378 272 231Q218 124 151 41Q219 -18 313 -18Q426 -18 508 54Q596 129 596 239Q596 317 538 375Q486 427 406 446Q384 451 360 454T309 457Q214 457 143 418Q53 369 53 303Q53 273 71 255L89 237Q89
232 80 232Q57 232 38 254T19 300Q19 387 133 442Q212 480 313 480Q478 480 563 393Q630 326 630 226Q630 102 536 26Q450 -44 322 -44ZM63 -9Q77 -9 112 38Q93 55 79 87T53 165Q35 116 35 71Q35 52 41 26Q49 -9 63 -9ZM145 377Q132 377 132 400Q132 411 140 414Q141
415 211 415Q300 415 304 408Q304 402 289 399L268 397Q223 387 193 382T145 377Z" />
<glyph unicode="&#xd1;" glyph-name="Ntilde" horiz-adv-x="762" d="M147 -96Q107 -96 74 -77T21 -24T1 50Q1 121 60 171Q116 219 188 219Q292 219 292 138Q292 108 273 85T225 61Q207 61 207 70Q207 77 223 81Q246 87 253 93Q270 105 270 127Q270 160 246 179T187
198Q150 198 116 176T59 120T37 47Q37 -4 72 -36T159 -69Q244 -69 319 44Q332 64 356 110T416 231Q430 259 439 279T452 311L483 391Q443 466 365 466Q317 466 284 434T250 353Q250 318 272 290Q296 258 329 258Q351 258 369 272T387 308Q387 315 383 324Q379 333
379 337Q379 344 385 344Q394 344 400 331T406 308Q406 279 381 259T325 239Q297 239 274 254T236 294T222 347Q222 390 242 422T298 472T375 491Q457 491 506 425Q521 441 535 441Q546 441 546 431Q546 425 528 389Q549 328 580 238T652 25Q663 48 709 175Q765
327 791 381Q864 529 933 529Q943 529 954 522T965 504Q965 496 946 496Q915 496 878 450Q796 347 713 105Q709 91 700 66T678 3Q667 -26 638 -26Q627 -26 625 -19L613 14Q591 78 564 159T505 338Q497 322 483 291T446 212Q385 82 333 14Q247 -96 147 -96ZM637
529Q639 539 645 552T662 576T689 586Q712 586 735 574T774 561Q788 561 797 570T808 585Q809 592 815 591T821 587Q820 577 814 564T796 540T769 530Q746 530 723 542T684 555Q671 555 662 546T650 531Q649 524 643 525T637 529Z" />
<glyph unicode="&#xd2;" glyph-name="Ograve" horiz-adv-x="594" d="M243 -55Q133 -55 79 9Q29 67 29 151Q29 265 115 354Q234 476 392 476Q465 476 517 446Q581 410 581 343Q581 327 575 304Q598 263 598 217Q598 143 543 79Q429 -55 243 -55ZM235 -30Q284 -30
334 -16T429 24T504 87Q564 156 564 222Q564 232 563 241T559 261Q546 236 522 210T459 155L440 141Q434 139 433 139Q425 139 425 144Q425 150 439 164Q474 200 496 227Q530 268 541 298Q498 361 415 382Q378 392 300 392Q278 392 278 398Q278 402 281 405Q316
417 348 417Q478 417 550 339Q550 376 519 407Q475 451 396 451Q250 451 147 333Q68 244 68 140Q68 62 112 16T235 -30ZM445 524Q442 524 427 531T393 549T355 572T325 590Q322 592 324 601T331 619T340 623Q342 622 356 610T390 583T425 554T445 538Q448 535 449
530T445 524Z" />
<glyph unicode="&#xd3;" glyph-name="Oacute" horiz-adv-x="594" d="M243 -55Q133 -55 79 9Q29 67 29 151Q29 265 115 354Q234 476 392 476Q465 476 517 446Q581 410 581 343Q581 327 575 304Q598 263 598 217Q598 143 543 79Q429 -55 243 -55ZM235 -30Q284 -30
334 -16T429 24T504 87Q564 156 564 222Q564 232 563 241T559 261Q546 236 522 210T459 155L440 141Q434 139 433 139Q425 139 425 144Q425 150 439 164Q474 200 496 227Q530 268 541 298Q498 361 415 382Q378 392 300 392Q278 392 278 398Q278 402 281 405Q316
417 348 417Q478 417 550 339Q550 376 519 407Q475 451 396 451Q250 451 147 333Q68 244 68 140Q68 62 112 16T235 -30ZM378 524Q374 524 374 529Q374 534 378 538Q383 542 400 556T437 586T468 611Q475 616 479 620T485 624Q490 624 494 617T500 601T497 589Q486
582 468 572T431 550T397 532T378 524Z" />
<glyph unicode="&#xd4;" glyph-name="Ocircumflex" horiz-adv-x="594" d="M243 -55Q133 -55 79 9Q29 67 29 151Q29 265 115 354Q234 476 392 476Q465 476 517 446Q581 410 581 343Q581 327 575 304Q598 263 598 217Q598 143 543 79Q429 -55 243 -55ZM235 -30Q284
-30 334 -16T429 24T504 87Q564 156 564 222Q564 232 563 241T559 261Q546 236 522 210T459 155L440 141Q434 139 433 139Q425 139 425 144Q425 150 439 164Q474 200 496 227Q530 268 541 298Q498 361 415 382Q378 392 300 392Q278 392 278 398Q278 402 281 405Q316
417 348 417Q478 417 550 339Q550 376 519 407Q475 451 396 451Q250 451 147 333Q68 244 68 140Q68 62 112 16T235 -30ZM326 522Q322 522 322 526Q322 533 329 536L459 612Q463 614 465 612L534 536Q536 534 536 530Q536 522 529 522Q525 522 510 531T477 553T449
572Q436 566 417 558T378 541T344 528T326 522Z" />
<glyph unicode="&#xd5;" glyph-name="Otilde" horiz-adv-x="594" d="M243 -55Q133 -55 79 9Q29 67 29 151Q29 265 115 354Q234 476 392 476Q465 476 517 446Q581 410 581 343Q581 327 575 304Q598 263 598 217Q598 143 543 79Q429 -55 243 -55ZM235 -30Q284 -30
334 -16T429 24T504 87Q564 156 564 222Q564 232 563 241T559 261Q546 236 522 210T459 155L440 141Q434 139 433 139Q425 139 425 144Q425 150 439 164Q474 200 496 227Q530 268 541 298Q498 361 415 382Q378 392 300 392Q278 392 278 398Q278 402 281 405Q316
417 348 417Q478 417 550 339Q550 376 519 407Q475 451 396 451Q250 451 147 333Q68 244 68 140Q68 62 112 16T235 -30ZM350 525Q352 535 358 548T375 572T402 582Q425 582 448 570T487 557Q501 557 510 566T521 581Q522 588 528 587T534 583Q533 573 527 560T509
536T482 526Q459 526 436 538T397 551Q384 551 375 542T363 527Q362 520 356 521T350 525Z" />
<glyph unicode="&#xd6;" glyph-name="Odieresis" horiz-adv-x="594" d="M243 -55Q133 -55 79 9Q29 67 29 151Q29 265 115 354Q234 476 392 476Q465 476 517 446Q581 410 581 343Q581 327 575 304Q598 263 598 217Q598 143 543 79Q429 -55 243 -55ZM235 -30Q284
-30 334 -16T429 24T504 87Q564 156 564 222Q564 232 563 241T559 261Q546 236 522 210T459 155L440 141Q434 139 433 139Q425 139 425 144Q425 150 439 164Q474 200 496 227Q530 268 541 298Q498 361 415 382Q378 392 300 392Q278 392 278 398Q278 402 281 405Q316
417 348 417Q478 417 550 339Q550 376 519 407Q475 451 396 451Q250 451 147 333Q68 244 68 140Q68 62 112 16T235 -30ZM472 525Q468 525 459 530T448 538Q441 544 440 548T439 555Q439 558 441 560Q446 565 456 566T472 568Q490 568 490 552Q490 525 472 525ZM384
525Q380 525 371 530T360 538Q353 544 352 548T351 555Q351 558 353 560Q358 565 368 566T384 568Q402 568 402 552Q402 525 384 525Z" />
<glyph unicode="&#xd7;" glyph-name="multiply" horiz-adv-x="278" d="M53 46Q45 46 45 53Q45 71 127 156Q94 219 94 236Q94 245 110 245Q116 245 119 239Q124 229 130 212T144 172L185 217Q217 250 229 250L231 248Q230 240 149 159Q157 133 178 109Q204 80 225
80Q230 80 237 84Q245 87 248 87L251 84Q251 74 236 66T210 57Q186 57 161 88Q141 115 132 142Q121 126 104 103T62 51Q57 46 53 46Z" />
<glyph unicode="&#xd8;" glyph-name="Oslash" horiz-adv-x="594" d="M155 -84L172 -47Q112 -32 79 9Q29 67 29 151Q29 265 115 354Q234 476 392 476H406L431 532H458L432 474Q481 466 517 446Q581 410 581 343Q581 327 575 304Q598 263 598 217Q598 143 543 79Q429
-55 243 -55Q219 -55 196 -52L182 -84H155ZM182 -24L367 390Q353 391 337 391T300 392Q278 392 278 398Q278 402 281 405Q316 417 348 417Q356 417 364 417T379 416L395 451Q250 451 147 333Q68 244 68 140Q68 76 98 33T182 -24ZM550 339Q550 376 519 407Q482 444
421 450L405 413Q494 400 550 339ZM235 -30Q284 -30 334 -16T429 24T504 87Q564 156 564 222Q564 232 563 241T559 261Q546 236 521 209T459 155L440 141Q434 139 433 139Q425 139 425 144Q425 150 439 164Q474 200 496 227Q530 268 541 298Q498 361 415 382Q410
384 405 385T393 387L207 -28Q214 -29 221 -29T235 -30Z" />
<glyph unicode="&#xd9;" glyph-name="Ugrave" horiz-adv-x="622" d="M298 -37Q255 -37 255 1Q255 65 328 218Q403 377 403 425Q403 457 347 457Q265 457 164 370Q112 326 78 265Q39 198 39 137Q39 68 104 68Q158 68 208 124Q224 143 227 143Q234 143 234 135V132Q234
96 182 69Q137 45 98 45Q92 45 86 45T74 47Q40 53 19 88Q0 119 0 156Q0 267 154 403Q180 426 214 444T285 473T354 484Q444 484 444 423Q444 385 367 217Q327 132 313 61Q311 51 310 43T309 27Q309 7 321 7Q337 7 381 48Q481 143 603 373Q624 412 641 412Q658 412
658 379Q658 370 652 350T632 299L597 218Q524 48 524 -3V-5L526 -3Q533 1 546 13T581 47Q590 56 595 56Q601 56 601 48Q601 35 587 17T553 -16T519 -30Q489 -30 489 -1Q489 36 560 231L557 227L452 81Q426 46 393 7Q346 -37 298 -37ZM586 484Q583 484 568 491T534
509T496 532T466 550Q463 552 465 561T472 579T481 583Q483 582 497 570T531 543T566 514T586 498Q589 495 590 490T586 484Z" />
<glyph unicode="&#xda;" glyph-name="Uacute" horiz-adv-x="622" d="M298 -37Q255 -37 255 1Q255 65 328 218Q403 377 403 425Q403 457 347 457Q265 457 164 370Q112 326 78 265Q39 198 39 137Q39 68 104 68Q158 68 208 124Q224 143 227 143Q234 143 234 135V132Q234
96 182 69Q137 45 98 45Q92 45 86 45T74 47Q40 53 19 88Q0 119 0 156Q0 267 154 403Q180 426 214 444T285 473T354 484Q444 484 444 423Q444 385 367 217Q327 132 313 61Q311 51 310 43T309 27Q309 7 321 7Q337 7 381 48Q481 143 603 373Q624 412 641 412Q658 412
658 379Q658 370 652 350T632 299L597 218Q524 48 524 -3V-5L526 -3Q533 1 546 13T581 47Q590 56 595 56Q601 56 601 48Q601 35 587 17T553 -16T519 -30Q489 -30 489 -1Q489 36 560 231L557 227L452 81Q426 46 393 7Q346 -37 298 -37ZM519 484Q515 484 515 489Q515
494 519 498Q524 502 541 516T578 546T609 571Q616 576 620 580T626 584Q631 584 635 577T641 561T638 549Q627 542 609 532T572 510T538 492T519 484Z" />
<glyph unicode="&#xdb;" glyph-name="Ucircumflex" horiz-adv-x="622" d="M298 -37Q255 -37 255 1Q255 65 328 218Q403 377 403 425Q403 457 347 457Q265 457 164 370Q112 326 78 265Q39 198 39 137Q39 68 104 68Q158 68 208 124Q224 143 227 143Q234 143 234
135V132Q234 96 182 69Q137 45 98 45Q92 45 86 45T74 47Q40 53 19 88Q0 119 0 156Q0 267 154 403Q180 426 214 444T285 473T354 484Q444 484 444 423Q444 385 367 217Q327 132 313 61Q311 51 310 43T309 27Q309 7 321 7Q337 7 381 48Q481 143 603 373Q624 412 641
412Q658 412 658 379Q658 370 652 350T632 299L597 218Q524 48 524 -3V-5L526 -3Q533 1 546 13T581 47Q590 56 595 56Q601 56 601 48Q601 35 587 17T553 -16T519 -30Q489 -30 489 -1Q489 36 560 231L557 227L452 81Q426 46 393 7Q346 -37 298 -37ZM467 482Q463
482 463 486Q463 493 470 496L600 572Q604 574 606 572L675 496Q677 494 677 490Q677 482 670 482Q666 482 651 491T618 513T590 532Q577 526 558 518T519 501T485 488T467 482Z" />
<glyph unicode="&#xdc;" glyph-name="Udieresis" horiz-adv-x="622" d="M298 -37Q255 -37 255 1Q255 65 328 218Q403 377 403 425Q403 457 347 457Q265 457 164 370Q112 326 78 265Q39 198 39 137Q39 68 104 68Q158 68 208 124Q224 143 227 143Q234 143 234 135V132Q234
96 182 69Q137 45 98 45Q92 45 86 45T74 47Q40 53 19 88Q0 119 0 156Q0 267 154 403Q180 426 214 444T285 473T354 484Q444 484 444 423Q444 385 367 217Q327 132 313 61Q311 51 310 43T309 27Q309 7 321 7Q337 7 381 48Q481 143 603 373Q624 412 641 412Q658 412
658 379Q658 370 652 350T632 299L597 218Q524 48 524 -3V-5L526 -3Q533 1 546 13T581 47Q590 56 595 56Q601 56 601 48Q601 35 587 17T553 -16T519 -30Q489 -30 489 -1Q489 36 560 231L557 227L452 81Q426 46 393 7Q346 -37 298 -37ZM613 485Q609 485 600 490T589
498Q582 504 581 508T580 515Q580 518 582 520Q587 525 597 526T613 528Q631 528 631 512Q631 485 613 485ZM525 485Q521 485 512 490T501 498Q494 504 493 508T492 515Q492 518 494 520Q499 525 509 526T525 528Q543 528 543 512Q543 485 525 485Z" />
<glyph unicode="&#xdd;" glyph-name="Yacute" horiz-adv-x="639" d="M335 -335Q303 -335 303 -296Q303 -274 317 -237Q345 -162 403 -94Q469 -16 533 6Q553 69 575 140T621 292Q549 182 464 84Q427 41 394 8Q348 -38 306 -38Q266 -38 266 6Q266 61 345 226Q423
393 423 444Q423 478 363 478Q279 478 172 389Q118 344 81 280Q40 207 40 145Q40 71 109 71Q165 71 218 130Q236 150 238 150Q244 150 244 142V139Q244 102 190 72Q146 47 103 47Q56 47 27 82Q1 114 1 163Q1 279 162 422Q182 439 206 454T260 481Q323 507 372 507Q408
507 434 493Q466 476 466 442Q466 402 384 228Q311 72 311 22Q311 7 319 7Q337 7 381 50Q586 244 632 389Q646 433 671 433Q689 433 689 416Q689 365 572 15H577Q604 15 604 -20Q604 -38 596 -38Q583 -38 583 -19Q583 -9 574 -9Q567 -9 560 -13L525 -98Q518 -114
506 -141T474 -208Q404 -335 335 -335ZM342 -311Q378 -311 447 -183Q467 -147 485 -108T521 -26Q494 -40 472 -57T432 -97Q335 -218 335 -291Q335 -311 342 -311ZM547 528Q543 528 543 533Q543 538 547 542Q552 546 569 560T606 590T637 615Q644 620 648 624T654
628Q659 628 663 621T669 605T666 593Q655 586 637 576T600 554T566 536T547 528Z" />
<glyph unicode="&#xde;" glyph-name="Thorn" horiz-adv-x="284" d="M-14 -217Q-21 -217 -27 -210T-33 -190Q-33 -187 -27 -167T-11 -117T7 -60L74 175Q96 251 118 330T154 467Q156 473 157 480T161 494Q170 527 199 527Q208 527 208 517Q208 512 196 473T158 346L108
180Q123 223 154 280Q190 345 211 365Q240 391 258 391Q295 391 311 362T328 287Q328 247 316 199T280 106Q255 57 213 29T133 0Q115 0 95 6Q66 14 66 29Q66 38 72 38L86 25Q92 19 99 18T113 17Q133 17 162 31T211 70Q233 95 251 136T280 222T291 303Q291 332 283
351T254 370Q242 370 223 347T181 287T138 207T99 124T72 56Q70 49 64 24T47 -39L27 -106Q23 -119 18 -140T4 -193Q-3 -217 -14 -217Z" />
<glyph unicode="&#xdf;" glyph-name="germandbls" horiz-adv-x="317" d="M-224 -287Q-243 -287 -264 -277T-292 -252Q-297 -240 -297 -223Q-297 -205 -290 -181Q-281 -149 -268 -149Q-261 -149 -261 -164Q-261 -173 -264 -193Q-265 -202 -265 -209T-266 -221Q-266
-265 -229 -265Q-138 -265 -30 -61Q1 -2 30 69T90 224L111 283Q107 283 101 283T87 284L62 285Q51 285 51 298Q51 303 89 305L118 306Q167 434 217 494T323 554Q357 554 372 533T387 478Q387 446 375 408T340 332Q340 322 335 322T326 323Q321 325 311 328T287
331Q262 331 252 314T242 269Q242 248 247 224T260 175Q267 155 271 130T273 92Q276 95 284 100T302 109T314 114Q316 114 316 113Q316 108 308 100T289 85T270 75V73Q268 64 259 50T239 23T218 3Q180 -26 132 -26Q84 -26 84 4Q84 24 110 41Q128 52 155 57Q174
61 189 64T215 71L248 82Q249 84 249 87T249 92Q249 109 240 132T216 188Q207 209 203 229T199 267Q199 311 220 339T281 367Q307 367 316 360T330 347Q341 371 350 404T360 467Q360 492 350 509T314 526Q287 526 262 500T212 430T164 330T120 213Q88 121 62 53T13
-60Q-73 -236 -166 -273Q-202 -287 -224 -287ZM131 -8Q151 -8 173 1T213 25T240 58Q220 51 203 45T172 33Q121 14 121 -3Q121 -8 131 -8Z" />
<glyph unicode="&#xe0;" glyph-name="agrave" horiz-adv-x="221" d="M134 -7Q125 -7 125 6Q125 40 162 133Q140 93 111 52Q69 -6 46 -6Q14 -6 14 39Q14 86 56 162Q75 197 114 236Q160 282 191 282Q216 282 216 262Q216 254 212 241T201 228Q200 228 195 237Q190
245 184 245Q163 245 127 204Q76 146 56 89Q41 49 41 25Q41 11 48 11Q64 11 122 98Q150 139 167 166T189 207Q192 215 205 227T226 240Q230 240 230 234Q230 228 224 213Q160 57 160 32Q160 23 164 23Q167 23 183 39Q199 55 203 55Q207 55 207 49Q207 41 193 28T161
4T134 -7ZM219 573Q215 573 196 585T154 614T117 641Q114 644 117 653T125 669T135 673Q137 672 149 660T176 633T204 604T221 587Q224 584 224 579T219 573Z" />
<glyph unicode="&#xe1;" glyph-name="aacute" horiz-adv-x="221" d="M134 -7Q125 -7 125 6Q125 40 162 133Q140 93 111 52Q69 -6 46 -6Q14 -6 14 39Q14 86 56 162Q75 197 114 236Q160 282 191 282Q216 282 216 262Q216 254 212 241T201 228Q200 228 195 237Q190
245 184 245Q163 245 127 204Q76 146 56 89Q41 49 41 25Q41 11 48 11Q64 11 122 98Q150 139 167 166T189 207Q192 215 205 227T226 240Q230 240 230 234Q230 228 224 213Q160 57 160 32Q160 23 164 23Q167 23 183 39Q199 55 203 55Q207 55 207 49Q207 41 193 28T161
4T134 -7ZM161 321Q155 321 155 327Q155 331 159 335Q163 339 175 352T203 380T231 408T245 421Q249 425 254 418T263 401T263 389Q249 378 227 362T185 334T161 321Z" />
<glyph unicode="&#xe2;" glyph-name="acircumflex" horiz-adv-x="221" d="M134 -7Q125 -7 125 6Q125 40 162 133Q140 93 111 52Q69 -6 46 -6Q14 -6 14 39Q14 86 56 162Q75 197 114 236Q160 282 191 282Q216 282 216 262Q216 254 212 241T201 228Q200 228 195 237Q190
245 184 245Q163 245 127 204Q76 146 56 89Q41 49 41 25Q41 11 48 11Q64 11 122 98Q150 139 167 166T189 207Q192 215 205 227T226 240Q230 240 230 234Q230 228 224 213Q160 57 160 32Q160 23 164 23Q167 23 183 39Q199 55 203 55Q207 55 207 49Q207 41 193 28T161
4T134 -7ZM275 318Q269 318 250 334T215 368Q187 350 159 335T126 320Q122 320 122 323Q122 325 124 328T129 334L227 411Q232 414 233 411L281 332Q282 331 282 327Q282 318 275 318Z" />
<glyph unicode="&#xe3;" glyph-name="atilde" horiz-adv-x="221" d="M134 -7Q125 -7 125 6Q125 40 162 133Q140 93 111 52Q69 -6 46 -6Q14 -6 14 39Q14 86 56 162Q75 197 114 236Q160 282 191 282Q216 282 216 262Q216 254 212 241T201 228Q200 228 195 237Q190
245 184 245Q163 245 127 204Q76 146 56 89Q41 49 41 25Q41 11 48 11Q64 11 122 98Q150 139 167 166T189 207Q192 215 205 227T226 240Q230 240 230 234Q230 228 224 213Q160 57 160 32Q160 23 164 23Q167 23 183 39Q199 55 203 55Q207 55 207 49Q207 41 193 28T161
4T134 -7ZM124 321Q126 331 132 344T149 368T176 378Q199 378 215 366T247 353Q261 353 270 362T281 377Q282 384 288 383T294 379Q293 369 287 356T269 332T242 322Q219 322 203 334T171 347Q158 347 149 338T137 323Q136 316 130 317T124 321Z" />
<glyph unicode="&#xe4;" glyph-name="adieresis" horiz-adv-x="221" d="M134 -7Q125 -7 125 6Q125 40 162 133Q140 93 111 52Q69 -6 46 -6Q14 -6 14 39Q14 86 56 162Q75 197 114 236Q160 282 191 282Q216 282 216 262Q216 254 212 241T201 228Q200 228 195 237Q190
245 184 245Q163 245 127 204Q76 146 56 89Q41 49 41 25Q41 11 48 11Q64 11 122 98Q150 139 167 166T189 207Q192 215 205 227T226 240Q230 240 230 234Q230 228 224 213Q160 57 160 32Q160 23 164 23Q167 23 183 39Q199 55 203 55Q207 55 207 49Q207 41 193 28T161
4T134 -7ZM242 578Q238 578 229 582T218 590Q212 596 211 600T210 607Q210 610 212 612Q217 616 226 617T242 619Q259 619 259 604Q259 578 242 578ZM154 578Q150 578 141 582T130 590Q124 596 123 600T122 607Q122 610 124 612Q129 616 138 617T154 619Q171 619
171 604Q171 578 154 578Z" />
<glyph unicode="&#xe5;" glyph-name="aring" horiz-adv-x="221" d="M134 -7Q125 -7 125 6Q125 40 162 133Q140 93 111 52Q69 -6 46 -6Q14 -6 14 39Q14 86 56 162Q75 197 114 236Q160 282 191 282Q216 282 216 262Q216 254 212 241T201 228Q200 228 195 237Q190
245 184 245Q163 245 127 204Q76 146 56 89Q41 49 41 25Q41 11 48 11Q64 11 122 98Q150 139 167 166T189 207Q192 215 205 227T226 240Q230 240 230 234Q230 228 224 213Q160 57 160 32Q160 23 164 23Q167 23 183 39Q199 55 203 55Q207 55 207 49Q207 41 193 28T161
4T134 -7ZM205 319Q186 319 173 331T160 362Q160 387 181 406T227 425Q246 425 259 413T272 383Q272 355 250 337T205 319ZM210 336Q221 336 232 350T243 380Q243 391 238 399T222 408Q213 408 203 397T191 372Q190 370 190 367T190 362Q190 352 195 344T210 336Z"
/>
<glyph unicode="&#xe6;" glyph-name="ae" horiz-adv-x="323" d="M198 -10Q146 -10 146 60Q146 89 155 120Q83 -6 46 -6Q14 -6 14 39Q14 86 56 162Q75 197 114 236Q160 282 191 282Q216 282 216 262Q216 254 212 241T201 228Q200 228 195 237Q190 245 184 245Q163
245 127 204Q76 146 56 89Q41 49 41 25Q41 11 48 11Q62 11 112 85Q152 146 175 180T204 223Q260 298 294 298Q302 298 306 294Q306 321 326 321Q341 321 341 267Q341 135 274 135Q234 135 205 164Q174 101 174 50Q174 9 200 9Q212 9 229 22T264 53T292 84T304 98Q309
98 309 92Q309 80 298 64T271 31T237 4T208 -10H198ZM266 156Q286 156 298 188Q309 216 308 238L307 255Q307 260 307 264T306 271Q245 248 214 181Q248 156 266 156Z" />
<glyph unicode="&#xe7;" glyph-name="ccedilla" horiz-adv-x="215" d="M49 -7Q8 -7 8 46Q8 105 48 175Q118 302 183 302Q200 302 213 292Q240 291 240 265Q240 244 230 220Q218 189 202 189Q185 189 185 204Q185 215 194 234Q202 255 202 263Q202 270 192 270Q143
270 85 173Q30 84 30 33Q30 7 53 7Q74 7 116 49Q159 90 167 90Q171 90 171 87Q171 83 159 66Q104 -7 49 -7ZM272 -139Q256 -139 245 -134T233 -121Q233 -116 237 -116Q241 -116 247 -120Q255 -123 266 -123Q288 -123 301 -110T315 -81Q315 -71 308 -67T292 -62Q279
-62 269 -69Q268 -70 265 -70Q260 -70 257 -65T254 -58Q267 -43 283 -27T311 0H325L290 -46Q299 -43 309 -43Q325 -43 337 -51T350 -77Q350 -104 326 -121T272 -139Z" />
<glyph unicode="&#xe8;" glyph-name="egrave" horiz-adv-x="201" d="M79 -10Q25 -10 25 59V64Q25 159 107 253Q146 298 174 298Q182 298 186 294Q185 321 206 321Q220 321 220 267Q220 135 153 135Q113 135 84 164Q53 101 53 50Q53 9 80 9Q92 9 109 22T144 53T172
84T184 98Q188 98 188 92Q188 80 177 64T150 31T116 4T87 -10H79ZM145 156Q165 156 177 188Q187 212 187 238V254Q187 265 187 269T186 271Q126 249 94 181Q128 156 145 156ZM220 350Q216 350 197 362T155 391T118 418Q115 421 118 430T126 446T136 450Q138 449
150 437T177 410T205 381T222 364Q225 361 225 356T220 350Z" />
<glyph unicode="&#xe9;" glyph-name="eacute" horiz-adv-x="201" d="M79 -10Q25 -10 25 59V64Q25 159 107 253Q146 298 174 298Q182 298 186 294Q185 321 206 321Q220 321 220 267Q220 135 153 135Q113 135 84 164Q53 101 53 50Q53 9 80 9Q92 9 109 22T144 53T172
84T184 98Q188 98 188 92Q188 80 177 64T150 31T116 4T87 -10H79ZM145 156Q165 156 177 188Q187 212 187 238V254Q187 265 187 269T186 271Q126 249 94 181Q128 156 145 156ZM162 354Q156 354 156 360Q156 364 160 368Q164 372 176 385T204 413T232 441T246 454Q250
458 255 451T264 434T264 422Q250 411 228 395T186 367T162 354Z" />
<glyph unicode="&#xea;" glyph-name="ecircumflex" horiz-adv-x="201" d="M79 -10Q25 -10 25 59V64Q25 159 107 253Q146 298 174 298Q182 298 186 294Q185 321 206 321Q220 321 220 267Q220 135 153 135Q113 135 84 164Q53 101 53 50Q53 9 80 9Q92 9 109 22T144
53T172 84T184 98Q188 98 188 92Q188 80 177 64T150 31T116 4T87 -10H79ZM145 156Q165 156 177 188Q187 212 187 238V254Q187 265 187 269T186 271Q126 249 94 181Q128 156 145 156ZM276 351Q270 351 251 367T216 401Q188 383 160 368T127 353Q123 353 123 356Q123
358 125 361T130 367L228 444Q233 447 234 444L282 365Q283 364 283 360Q283 351 276 351Z" />
<glyph unicode="&#xeb;" glyph-name="edieresis" horiz-adv-x="201" d="M79 -10Q25 -10 25 59V64Q25 159 107 253Q146 298 174 298Q182 298 186 294Q185 321 206 321Q220 321 220 267Q220 135 153 135Q113 135 84 164Q53 101 53 50Q53 9 80 9Q92 9 109 22T144
53T172 84T184 98Q188 98 188 92Q188 80 177 64T150 31T116 4T87 -10H79ZM145 156Q165 156 177 188Q187 212 187 238V254Q187 265 187 269T186 271Q126 249 94 181Q128 156 145 156ZM243 355Q239 355 230 359T219 367Q213 373 212 377T211 384Q211 387 213 389Q218
393 227 394T243 396Q260 396 260 381Q260 355 243 355ZM155 355Q151 355 142 359T131 367Q125 373 124 377T123 384Q123 387 125 389Q130 393 139 394T155 396Q172 396 172 381Q172 355 155 355Z" />
<glyph unicode="&#xec;" glyph-name="igrave" horiz-adv-x="125" d="M49 -6Q15 -6 15 32Q15 82 83 224Q110 280 144 280Q153 280 153 276Q41 73 41 27Q41 12 52 12Q64 12 90 35L115 57Q119 57 119 47Q119 37 107 25T78 3T49 -6ZM172 581Q168 581 149 593T107 622T70
649Q67 652 70 661T78 677T88 681Q90 680 102 668T129 641T157 612T174 595Q177 592 177 587T172 581Z" />
<glyph unicode="&#xed;" glyph-name="iacute" horiz-adv-x="125" d="M49 -6Q15 -6 15 32Q15 82 83 224Q110 280 144 280Q153 280 153 276Q41 73 41 27Q41 12 52 12Q64 12 90 35L115 57Q119 57 119 47Q119 37 107 25T78 3T49 -6ZM114 585Q108 585 108 591Q108 595
112 599Q116 603 128 616T156 644T184 672T198 685Q202 689 207 682T216 665T216 653Q202 642 180 626T138 598T114 585Z" />
<glyph unicode="&#xee;" glyph-name="icircumflex" horiz-adv-x="125" d="M49 -6Q15 -6 15 32Q15 82 83 224Q110 280 144 280Q153 280 153 276Q41 73 41 27Q41 12 52 12Q64 12 90 35L115 57Q119 57 119 47Q119 37 107 25T78 3T49 -6ZM228 582Q222 582 203 598T168
632Q140 614 112 599T79 584Q75 584 75 587Q75 589 77 592T82 598L180 675Q185 678 186 675L234 596Q235 595 235 591Q235 582 228 582Z" />
<glyph unicode="&#xef;" glyph-name="idieresis" horiz-adv-x="125" d="M49 -6Q15 -6 15 32Q15 82 83 224Q110 280 144 280Q153 280 153 276Q41 73 41 27Q41 12 52 12Q64 12 90 35L115 57Q119 57 119 47Q119 37 107 25T78 3T49 -6ZM195 586Q191 586 182 590T171
598Q165 604 164 608T163 615Q163 618 165 620Q170 624 179 625T195 627Q212 627 212 612Q212 586 195 586ZM107 586Q103 586 94 590T83 598Q77 604 76 608T75 615Q75 618 77 620Q82 624 91 625T107 627Q124 627 124 612Q124 586 107 586Z" />
<glyph unicode="&#xf0;" glyph-name="eth" horiz-adv-x="232" d="M58 -16Q13 -16 13 36Q13 74 18 111T52 204Q75 250 105 281T154 313Q173 313 193 296T223 248Q242 308 242 389Q242 424 235 449Q229 447 132 383Q128 380 125 380Q113 380 113 395Q113 404 122
411Q162 445 226 471Q202 522 144 534L116 536Q96 541 96 551Q96 562 110 562Q204 562 250 480Q280 490 309 490Q336 490 336 479Q336 473 303 467Q260 460 259 459Q278 415 278 357Q278 332 273 301T255 235Q246 208 231 175T201 112T173 67Q148 25 116 5T58 -16ZM64
8Q115 8 172 124Q186 152 194 181T203 232Q203 252 195 265T166 278Q153 278 128 251T84 186Q56 133 51 100T46 35Q46 8 64 8Z" />
<glyph unicode="&#xf1;" glyph-name="ntilde" horiz-adv-x="244" d="M5 -9Q-5 -9 -5 0Q-5 7 22 62L71 164Q87 197 95 223T107 269Q109 283 123 297T150 312Q159 312 159 301Q159 286 79 117Q132 197 160 231Q223 307 263 307Q278 307 278 297Q278 272 231 173Q183
76 183 58Q183 55 185 53Q187 51 187 48Q187 42 178 25T162 3Q152 -5 143 -5Q129 -5 129 6Q129 31 183 137Q236 245 236 263Q236 270 232 270Q211 270 124 154Q100 122 81 91T48 28Q32 -9 5 -9ZM196 356Q198 366 204 379T221 403T248 413Q271 413 287 401T319 388Q333
388 342 397T353 412Q354 419 360 418T366 414Q365 404 359 391T341 367T314 357Q291 357 275 369T243 382Q230 382 221 373T209 358Q208 351 202 352T196 356Z" />
<glyph unicode="&#xf2;" glyph-name="ograve" horiz-adv-x="232" d="M58 -16Q13 -16 13 36Q13 111 69 221Q116 313 154 313Q162 313 172 307L183 301L185 305Q186 313 194 327Q200 329 203 329Q228 329 228 282Q228 277 228 270T227 252Q226 242 226 235T225 222Q225
208 246 208Q250 208 259 211Q268 214 273 214Q282 214 282 208Q282 192 247 192Q226 192 218 199Q200 132 162 68Q111 -16 58 -16ZM64 8Q115 8 172 124Q198 178 200 206Q182 216 178 249Q173 278 166 278Q139 278 101 203Q46 97 46 35Q46 8 64 8ZM209 354Q205
354 186 366T144 395T107 422Q104 425 107 434T115 450T125 454Q127 453 139 441T166 414T194 385T211 368Q214 365 214 360T209 354Z" />
<glyph unicode="&#xf3;" glyph-name="oacute" horiz-adv-x="232" d="M58 -16Q13 -16 13 36Q13 111 69 221Q116 313 154 313Q162 313 172 307L183 301L185 305Q186 313 194 327Q200 329 203 329Q228 329 228 282Q228 277 228 270T227 252Q226 242 226 235T225 222Q225
208 246 208Q250 208 259 211Q268 214 273 214Q282 214 282 208Q282 192 247 192Q226 192 218 199Q200 132 162 68Q111 -16 58 -16ZM64 8Q115 8 172 124Q198 178 200 206Q182 216 178 249Q173 278 166 278Q139 278 101 203Q46 97 46 35Q46 8 64 8ZM151 358Q145
358 145 364Q145 368 149 372Q153 376 165 389T193 417T221 445T235 458Q239 462 244 455T253 438T253 426Q239 415 217 399T175 371T151 358Z" />
<glyph unicode="&#xf4;" glyph-name="ocircumflex" horiz-adv-x="232" d="M58 -16Q13 -16 13 36Q13 111 69 221Q116 313 154 313Q162 313 172 307L183 301L185 305Q186 313 194 327Q200 329 203 329Q228 329 228 282Q228 277 228 270T227 252Q226 242 226 235T225
222Q225 208 246 208Q250 208 259 211Q268 214 273 214Q282 214 282 208Q282 192 247 192Q226 192 218 199Q200 132 162 68Q111 -16 58 -16ZM64 8Q115 8 172 124Q198 178 200 206Q182 216 178 249Q173 278 166 278Q139 278 101 203Q46 97 46 35Q46 8 64 8ZM265
355Q259 355 240 371T205 405Q177 387 149 372T116 357Q112 357 112 360Q112 362 114 365T119 371L217 448Q222 451 223 448L271 369Q272 368 272 364Q272 355 265 355Z" />
<glyph unicode="&#xf5;" glyph-name="otilde" horiz-adv-x="232" d="M58 -16Q13 -16 13 36Q13 111 69 221Q116 313 154 313Q162 313 172 307L183 301L185 305Q186 313 194 327Q200 329 203 329Q228 329 228 282Q228 277 228 270T227 252Q226 242 226 235T225 222Q225
208 246 208Q250 208 259 211Q268 214 273 214Q282 214 282 208Q282 192 247 192Q226 192 218 199Q200 132 162 68Q111 -16 58 -16ZM64 8Q115 8 172 124Q198 178 200 206Q182 216 178 249Q173 278 166 278Q139 278 101 203Q46 97 46 35Q46 8 64 8ZM114 358Q116
368 122 381T139 405T166 415Q189 415 205 403T237 390Q251 390 260 399T271 414Q272 421 278 420T284 416Q283 406 277 393T259 369T232 359Q209 359 193 371T161 384Q148 384 139 375T127 360Q126 353 120 354T114 358Z" />
<glyph unicode="&#xf6;" glyph-name="odieresis" horiz-adv-x="232" d="M58 -16Q13 -16 13 36Q13 111 69 221Q116 313 154 313Q162 313 172 307L183 301L185 305Q186 313 194 327Q200 329 203 329Q228 329 228 282Q228 277 228 270T227 252Q226 242 226 235T225
222Q225 208 246 208Q250 208 259 211Q268 214 273 214Q282 214 282 208Q282 192 247 192Q226 192 218 199Q200 132 162 68Q111 -16 58 -16ZM64 8Q115 8 172 124Q198 178 200 206Q182 216 178 249Q173 278 166 278Q139 278 101 203Q46 97 46 35Q46 8 64 8ZM232
359Q228 359 219 363T208 371Q202 377 201 381T200 388Q200 391 202 393Q207 397 216 398T232 400Q249 400 249 385Q249 359 232 359ZM144 359Q140 359 131 363T120 371Q114 377 113 381T112 388Q112 391 114 393Q119 397 128 398T144 400Q161 400 161 385Q161
359 144 359Z" />
<glyph unicode="&#xf7;" glyph-name="divide" horiz-adv-x="228" d="M125 168Q100 168 100 192Q100 216 125 216Q150 216 150 192Q150 168 125 168ZM39 101Q19 101 19 108Q19 121 54 133Q72 139 99 139Q118 139 141 137T192 131Q218 126 218 121Q218 115 182 112L138
110Q39 101 44 101H39ZM117 29Q91 29 91 53Q91 77 117 77Q142 77 142 53Q142 29 117 29Z" />
<glyph unicode="&#xf8;" glyph-name="oslash" horiz-adv-x="232" d="M6 -83L38 -12Q13 -3 13 36Q13 111 69 221Q116 313 154 313Q164 313 181 302L224 397H251L218 323Q228 312 228 282Q228 277 228 270T227 252Q226 242 226 235T225 222Q225 208 246 208Q250
208 259 211Q268 214 273 214Q282 214 282 208Q282 192 247 192Q226 192 218 199Q200 130 163 70Q114 -10 64 -15L33 -83H6ZM50 14L170 277Q169 278 166 278Q139 278 101 203Q46 97 46 35Q46 21 50 14ZM76 10Q124 25 172 124Q198 178 200 206Q183 217 179 238L76
10Z" />
<glyph unicode="&#xf9;" glyph-name="ugrave" horiz-adv-x="262" d="M159 -8Q151 -8 151 4Q151 51 224 201Q160 111 135 79Q66 -6 26 -6Q13 -6 13 7Q13 34 93 214Q97 222 104 238T121 276Q132 297 158 297Q165 297 165 291Q165 279 110 170Q54 60 54 37Q54 30
58 29Q67 29 112 82Q128 101 140 116T162 145Q164 149 171 159T188 187L231 257Q247 283 262 295T288 308Q299 308 299 299Q299 289 244 172Q188 52 188 23Q188 19 189 19Q190 19 212 39Q232 58 240 58Q242 56 242 54Q242 48 232 38T208 17T180 -1T159 -8ZM267
350Q263 350 244 362T202 391T165 418Q162 421 165 430T173 446T183 450Q185 449 197 437T224 410T252 381T269 364Q272 361 272 356T267 350Z" />
<glyph unicode="&#xfa;" glyph-name="uacute" horiz-adv-x="262" d="M159 -8Q151 -8 151 4Q151 51 224 201Q160 111 135 79Q66 -6 26 -6Q13 -6 13 7Q13 34 93 214Q97 222 104 238T121 276Q132 297 158 297Q165 297 165 291Q165 279 110 170Q54 60 54 37Q54 30
58 29Q67 29 112 82Q128 101 140 116T162 145Q164 149 171 159T188 187L231 257Q247 283 262 295T288 308Q299 308 299 299Q299 289 244 172Q188 52 188 23Q188 19 189 19Q190 19 212 39Q232 58 240 58Q242 56 242 54Q242 48 232 38T208 17T180 -1T159 -8ZM209
354Q203 354 203 360Q203 364 207 368Q211 372 223 385T251 413T279 441T293 454Q297 458 302 451T311 434T311 422Q297 411 275 395T233 367T209 354Z" />
<glyph unicode="&#xfb;" glyph-name="ucircumflex" horiz-adv-x="262" d="M159 -8Q151 -8 151 4Q151 51 224 201Q160 111 135 79Q66 -6 26 -6Q13 -6 13 7Q13 34 93 214Q97 222 104 238T121 276Q132 297 158 297Q165 297 165 291Q165 279 110 170Q54 60 54 37Q54
30 58 29Q67 29 112 82Q128 101 140 116T162 145Q164 149 171 159T188 187L231 257Q247 283 262 295T288 308Q299 308 299 299Q299 289 244 172Q188 52 188 23Q188 19 189 19Q190 19 212 39Q232 58 240 58Q242 56 242 54Q242 48 232 38T208 17T180 -1T159 -8ZM323
351Q317 351 298 367T263 401Q235 383 207 368T174 353Q170 353 170 356Q170 358 172 361T177 367L275 444Q280 447 281 444L329 365Q330 364 330 360Q330 351 323 351Z" />
<glyph unicode="&#xfc;" glyph-name="udieresis" horiz-adv-x="262" d="M159 -8Q151 -8 151 4Q151 51 224 201Q160 111 135 79Q66 -6 26 -6Q13 -6 13 7Q13 34 93 214Q97 222 104 238T121 276Q132 297 158 297Q165 297 165 291Q165 279 110 170Q54 60 54 37Q54
30 58 29Q67 29 112 82Q128 101 140 116T162 145Q164 149 171 159T188 187L231 257Q247 283 262 295T288 308Q299 308 299 299Q299 289 244 172Q188 52 188 23Q188 19 189 19Q190 19 212 39Q232 58 240 58Q242 56 242 54Q242 48 232 38T208 17T180 -1T159 -8ZM290
355Q286 355 277 359T266 367Q260 373 259 377T258 384Q258 387 260 389Q265 393 274 394T290 396Q307 396 307 381Q307 355 290 355ZM202 355Q198 355 189 359T178 367Q172 373 171 377T170 384Q170 387 172 389Q177 393 186 394T202 396Q219 396 219 381Q219
355 202 355Z" />
<glyph unicode="&#xfd;" glyph-name="yacute" horiz-adv-x="243" d="M-49 -294Q-79 -294 -79 -259Q-79 -221 -53 -166Q-29 -116 0 -84Q38 -43 74 -17T146 23Q148 33 164 78T208 206Q82 -7 23 -7Q7 -7 7 8Q7 24 23 73T72 205L100 276Q109 298 127 298Q136 298 143
291Q140 277 127 244T90 159Q47 64 47 39Q47 29 52 29Q63 29 118 108Q141 142 157 164T180 200Q190 217 200 235T221 274Q237 308 264 308Q275 308 275 299Q275 293 231 170Q212 117 199 82T178 28Q186 31 194 31Q221 31 221 -6Q221 -21 216 -21Q210 -21 208 -4Q207
14 190 14Q181 14 169 9L133 -86Q123 -113 112 -135T89 -177Q19 -294 -49 -294ZM-50 -273Q-22 -273 34 -202Q76 -148 137 -1Q63 -33 15 -94Q-58 -186 -58 -257Q-58 -273 -50 -273ZM182 354Q176 354 176 360Q176 364 180 368Q184 372 196 385T224 413T252 441T266
454Q270 458 275 451T284 434T284 422Q270 411 248 395T206 367T182 354Z" />
<glyph unicode="&#xfe;" glyph-name="thorn" horiz-adv-x="241" d="M-113 -307Q-122 -307 -122 -291Q-122 -283 -80 -183L-32 -68Q6 29 52 170T154 498Q156 505 159 516T167 544Q180 581 205 581Q212 581 212 572L211 563Q205 544 190 496T150 367L80 143Q104
193 139 243Q189 315 218 315Q257 315 257 247Q257 191 232 131T168 27Q120 -25 75 -25Q34 -25 34 3Q34 11 36 13Q36 14 36 14Q36 15 40 15Q38 15 36 13Q38 12 52 7Q76 -1 82 -1Q137 -1 182 90Q221 170 221 230Q221 272 202 272Q201 271 199 271H200Q172 267 104
151Q78 106 59 70T28 4L-32 -161Q-85 -307 -113 -307Z" />
<glyph unicode="&#xff;" glyph-name="ydieresis" horiz-adv-x="243" d="M-49 -294Q-79 -294 -79 -259Q-79 -221 -53 -166Q-29 -116 0 -84Q38 -43 74 -17T146 23Q148 33 164 78T208 206Q82 -7 23 -7Q7 -7 7 8Q7 24 23 73T72 205L100 276Q109 298 127 298Q136 298
143 291Q140 277 127 244T90 159Q47 64 47 39Q47 29 52 29Q63 29 118 108Q141 142 157 164T180 200Q190 217 200 235T221 274Q237 308 264 308Q275 308 275 299Q275 293 231 170Q212 117 199 82T178 28Q186 31 194 31Q221 31 221 -6Q221 -21 216 -21Q210 -21 208
-4Q207 14 190 14Q181 14 169 9L133 -86Q123 -113 112 -135T89 -177Q19 -294 -49 -294ZM-50 -273Q-22 -273 34 -202Q76 -148 137 -1Q63 -33 15 -94Q-58 -186 -58 -257Q-58 -273 -50 -273ZM263 355Q259 355 250 359T239 367Q233 373 232 377T231 384Q231 387 233
389Q238 393 247 394T263 396Q280 396 280 381Q280 355 263 355ZM175 355Q171 355 162 359T151 367Q145 373 144 377T143 384Q143 387 145 389Q150 393 159 394T175 396Q192 396 192 381Q192 355 175 355Z" />
<glyph unicode="&#x2013;" glyph-name="endash" horiz-adv-x="197" d="M88 178Q75 178 75 201Q75 210 83 215Q103 216 125 216T169 216Q279 216 283 209Q283 201 246 198Q200 188 160 183T88 178Z" />
<glyph unicode="&#x2014;" glyph-name="emdash" horiz-adv-x="197" d="M88 178Q75 178 75 201Q75 212 83 215Q114 216 148 216T223 216Q410 216 414 209Q414 201 377 198L314 195Q275 193 229 190T128 181Q101 178 89 178H88Z" />
<glyph unicode="&#x2018;" glyph-name="quoteleft" horiz-adv-x="137" d="M54 309Q25 309 25 325Q25 336 34 354T58 391T87 426T113 446Q117 446 117 443Q117 443 91 403Q64 363 64 342Q64 338 67 330Q70 323 70 318Q70 309 54 309Z" />
<glyph unicode="&#x2019;" glyph-name="quoteright" horiz-adv-x="137" d="M83 313Q80 313 80 316Q80 316 88 327T106 355T124 389T132 416Q132 418 132 421T130 428Q127 436 127 440Q127 449 144 449Q172 449 172 433Q172 422 163 404T139 367T109 333T83 313Z" />
<glyph unicode="&#x201a;" glyph-name="quotesinglbase" horiz-adv-x="137" d="M45 -56Q41 -56 41 -53Q41 -52 68 -13Q94 27 94 47Q94 49 94 52T92 59Q89 67 89 71Q89 80 106 80Q134 80 134 64Q134 53 125 35T101 -2T71 -36T45 -56Z" />
<glyph unicode="&#x201c;" glyph-name="quotedblleft" horiz-adv-x="175" d="M131 342Q102 342 102 358Q102 368 115 395Q143 456 191 479Q195 479 195 476Q195 476 169 436Q142 396 142 375Q142 371 145 363Q146 359 146 356T147 351Q147 342 131 342ZM54 342Q25
342 25 358Q25 368 38 395Q67 458 113 479Q117 479 117 476Q117 476 91 436Q64 396 64 375Q64 371 67 363Q70 356 70 351Q70 342 54 342Z" />
<glyph unicode="&#x201d;" glyph-name="quotedblright" horiz-adv-x="211" d="M167 347Q163 347 163 350Q163 351 190 390Q216 430 216 450Q216 455 213 462Q210 470 210 474Q210 483 228 483Q256 483 256 468Q256 461 242 430Q213 368 167 347ZM89 347Q86 347
86 350Q86 350 94 361T112 389T130 423T138 450Q138 452 138 455T136 462Q133 470 133 474Q133 483 150 483Q178 483 178 468Q178 457 165 430Q137 370 89 347Z" />
<glyph unicode="&#x201e;" glyph-name="quotedblbase" horiz-adv-x="211" d="M135 -54Q132 -54 132 -51Q132 -51 158 -11Q184 29 184 49Q184 51 184 54T182 62Q179 70 179 74Q179 82 196 82Q224 82 224 67Q224 60 210 29Q182 -31 135 -54ZM57 -54Q54 -54 54 -51Q54
-51 80 -11Q106 29 106 49Q106 51 106 54T104 62Q101 70 101 74Q101 82 118 82Q146 82 146 67Q146 56 133 29Q105 -32 57 -54Z" />
<glyph unicode="&#x2022;" glyph-name="bullet" horiz-adv-x="500" d="M250 154Q208 154 173 175T117 231T96 308Q96 351 117 385T173 441T250 462Q293 462 327 441T383 386T404 308Q404 266 383 231T328 175T250 154Z" />
<glyph unicode="&#x2039;" glyph-name="guilsinglleft" horiz-adv-x="426" d="M257 72Q245 93 216 119T155 168T102 207L100 212Q105 221 134 241T204 288T286 337Q305 347 317 347Q325 347 325 342Q325 338 318 331Q311 325 289 310T239 277T189 242T155 215Q161
209 178 193T215 157T248 118T262 84Q262 77 257 72Z" />
<glyph unicode="&#x203a;" glyph-name="guilsinglright" horiz-adv-x="330" d="M81 80Q73 80 73 85Q73 89 80 96Q87 102 109 117T159 150T209 185T243 212Q237 218 220 234T183 270T150 310T136 343Q136 350 141 355Q153 334 182 309T243 259T296 220L298 215Q293
207 264 186T194 139T112 90Q93 80 81 80Z" />
</font>
</defs>
</svg>
