<?xml version="1.0" standalone="no"?>
<!DOCTYPE svg PUBLIC "-//W3C//DTD SVG 1.1//EN" "http://www.w3.org/Graphics/SVG/1.1/DTD/svg11.dtd">
<svg xmlns="http://www.w3.org/2000/svg">
<defs >
<font id="AoboshiOne" horiz-adv-x="820" ><font-face
    font-family="Aoboshi One"
    units-per-em="1000"
    panose-1="0 0 5 0 0 0 0 0 0 0"
    ascent="1160"
    descent="-288"
    alphabetic="0" />
<glyph unicode=" " glyph-name="space" horiz-adv-x="280" />
<glyph unicode="!" glyph-name="exclam" horiz-adv-x="328" d="M226 229T233 226T246 223V204H82V223Q88 223 95 226T102 234L88 757Q88 762 79 765T60 768V787H268V768Q259 768 250 765T240 757L226 234Q226 229 233 226ZM203 127T230 99T258 31Q258 -8 230 -36T162
-64Q123 -64 96 -36T68 31Q68 72 95 99T163 127Q203 127 230 99Z" />
<glyph unicode="&quot;" glyph-name="quotedbl" horiz-adv-x="452" d="M282 722T274 725T258 728V747H422V728Q415 728 407 725T398 717L382 494Q382 489 388 486T402 483V464H278V483Q285 483 291 486T298 494L282 717Q282 722 274 725ZM54 722T46 725T30 728V747H194V728Q187
728 179 725T170 717L154 494Q154 489 160 486T174 483V464H50V483Q57 483 63 486T70 494L54 717Q54 722 46 725Z" />
<glyph unicode="#" glyph-name="numbersign" horiz-adv-x="775" d="M719 538V382H700Q700 388 697 395T689 402H581L553 278H665Q670 278 673 285T676 298H695V142H676Q676 148 673 155T665 162H526L485 -20Q483 -26 491 -33T510 -40V-59H311V-38Q339 -38 342
-27L385 162H264L223 -20Q221 -26 229 -33T248 -40V-59H49V-38Q77 -38 80 -27L123 162H47Q42 162 39 155T36 142H17V298H36Q36 292 39 285T47 278H149L177 402H71Q66 402 63 395T60 382H41V538H60Q60 532 63 525T71 518H204L244 696Q246 702 238 709T219 716V735H418V714Q390
714 387 703L345 518H466L506 696Q508 702 500 709T481 716V735H680V714Q652 714 649 703L607 518H689Q694 518 697 525T700 538H719ZM291 278H411L439 402H319L291 278Z" />
<glyph unicode="$" glyph-name="dollar" horiz-adv-x="663" d="M625 151T597 101T513 19T381 -18V-91H336V-18Q256 -14 187 25T52 133Q50 135 47 135Q38 135 27 124L14 138L153 269L166 255Q160 250 155 241T153 228Q194 176 238 146T336 111V328L263 355Q189
382 148 429T106 542Q106 636 168 693T336 756V817H381V755Q439 751 481 730T572 669Q573 668 576 668Q581 668 587 671T598 679L611 666L487 544L474 558Q479 563 481 569T480 579Q430 620 381 628V443L428 426Q491 403 533 378T600 311T625 207Q625 151 597 101ZM336
459V630Q291 626 266 604T240 548Q240 516 256 499T307 470L336 459ZM381 112Q428 119 458 148T489 212Q489 271 386 309L381 311V112Z" />
<glyph unicode="%" glyph-name="percent" horiz-adv-x="1000" d="M717 716Q717 724 705 736L717 750L854 632L841 617Q836 622 828 625T816 624L255 -19Q253 -21 253 -24Q253 -28 257 -33T265 -43L252 -57L118 61L130 76Q136 71 143 68T155 69L715 712L717 716ZM190
366T149 390T83 455T59 546Q59 595 83 636T148 702T240 727Q289 727 330 703T396 637T421 546Q421 497 397 456T331 390T240 366Q190 366 149 390ZM268 478T287 498T307 546Q307 574 288 594T240 614Q212 614 192 594T172 546Q172 518 192 498T240 478Q268 478
287 498ZM710 -17T669 7T603 73T578 164Q578 213 602 254T668 320T760 345Q809 345 850 321T916 255T941 164Q941 115 917 74T851 8T760 -17Q710 -17 669 7ZM788 96T807 116T827 164Q827 192 808 212T760 232Q732 232 712 212T692 164Q692 136 712 116T760 96Q788
96 807 116Z" />
<glyph unicode="&amp;" glyph-name="ampersand" horiz-adv-x="800" d="M741 19T751 19T762 20V1H534V20Q548 20 550 23T548 32L511 76Q460 29 406 5T289 -20Q225 -20 173 6T91 78T61 177Q61 234 85 277T158 355Q207 390 230 407Q193 452 173 494T153 580Q153 673
207 723T347 773Q402 773 444 750T510 684T533 588Q533 534 506 491T423 405L412 397L523 270Q555 309 583 351Q584 352 584 355Q584 360 580 364T572 372L583 388L716 298L706 283Q687 292 682 285Q643 228 604 177L736 24Q741 19 751 19ZM316 656T299 637T282
590Q282 564 296 539T337 482Q401 530 401 588Q401 620 386 638T343 656Q316 656 299 637ZM354 107T430 172L306 318Q267 291 231 264Q207 247 199 229T190 187Q190 150 217 129T288 107Q354 107 430 172Z" />
<glyph unicode="&apos;" glyph-name="quotesingle" horiz-adv-x="224" d="M54 722T46 725T30 728V747H194V728Q187 728 179 725T170 717L154 494Q154 489 160 486T174 483V464H50V483Q57 483 63 486T70 494L54 717Q54 722 46 725Z" />
<glyph unicode="(" glyph-name="parenleft" horiz-adv-x="403" d="M340 -70L274 -125L218 -170L205 -154Q213 -148 217 -139T221 -123Q221 -117 218 -114Q155 -38 118 71T80 298Q80 418 119 530T225 718Q227 720 227 723Q227 730 214 743L228 759L340 666L377
636L365 622Q358 628 347 628Q338 628 333 623Q287 560 256 472T225 298Q225 213 256 125T333 -27Q336 -30 343 -30Q358 -30 371 -21L383 -35L340 -70Z" />
<glyph unicode=")" glyph-name="parenright" horiz-adv-x="403" d="M138 -127L72 -72L16 -27L30 -10Q42 -21 60 -21Q71 -21 74 -17Q119 46 148 132T178 303Q178 388 147 476T70 628Q67 631 60 631Q45 631 32 622L20 636L63 671L129 726L185 771L198 755Q190 749
186 740T182 724Q182 718 185 715Q248 639 285 530T323 303Q323 185 284 74T181 -113Q177 -118 181 -131T192 -151L180 -164L138 -127Z" />
<glyph unicode="*" glyph-name="asterisk" horiz-adv-x="409" d="M313 690L359 613L278 576L358 539L314 461L241 512L249 424H160L168 513L96 462L50 539L131 576L51 613L95 691L168 640L160 728H249L241 639L313 690Z" />
<glyph unicode="+" glyph-name="plus" horiz-adv-x="600" d="M550 428V272H531Q531 278 528 285T520 292H358V130Q358 125 365 122T378 119V100H222V119Q228 119 235 122T242 130V292H80Q75 292 72 285T69 272H50V428H69Q69 422 72 415T80 408H242V570Q242 575
235 578T222 581V600H378V581Q372 581 365 578T358 570V408H520Q525 408 528 415T531 428H550Z" />
<glyph unicode="," glyph-name="comma" horiz-adv-x="333" d="M50 110T76 134T139 159Q182 159 207 131T233 46Q233 -41 182 -77T55 -113V-87Q98 -80 129 -60T161 -9Q152 -11 136 -11Q99 -11 75 13T50 75Q50 110 76 134Z" />
<glyph unicode="-" glyph-name="hyphen" horiz-adv-x="382" d="M327 286T330 292T333 304H352V167H333Q333 173 330 179T322 185H60Q55 185 52 179T49 167H30V304H49Q49 298 52 292T60 286H322Q327 286 330 292Z" />
<glyph unicode="." glyph-name="period" horiz-adv-x="320" d="M99 -11T75 13T50 75Q50 110 75 134T136 159Q171 159 195 135T220 75Q220 38 196 14T136 -11Q99 -11 75 13Z" />
<glyph unicode="/" glyph-name="slash" horiz-adv-x="502" d="M5 -59L375 805H497L127 -59H5Z" />
<glyph unicode="0" glyph-name="zero" horiz-adv-x="650" d="M250 -23T186 9T84 105T45 256V483Q45 556 75 623T168 732T323 775Q423 775 486 733T577 625T605 483V252Q605 119 529 48T324 -23Q250 -23 186 9ZM391 109T427 153T464 302V474Q464 553 428 597T320
641Q255 641 219 599T182 472V291Q182 202 220 156T325 109Q391 109 427 153Z" />
<glyph unicode="1" glyph-name="one" horiz-adv-x="650" d="M429 30Q429 25 437 22T453 19V0H268V19Q276 19 284 22T292 30V630H188Q183 630 180 623T177 609H158V771H177Q177 764 180 757T188 750H451V731Q444 731 437 728T429 720V30Z" />
<glyph unicode="2" glyph-name="two" horiz-adv-x="650" d="M605 141V-21H586Q586 -14 583 -7T575 0H66V31L363 355Q406 402 432 440T458 520Q458 577 423 614T333 651Q284 651 247 617T207 531Q208 526 217 523T234 520V501H46V520Q53 520 62 523T71 531Q77 598
110 652T201 739T339 771Q422 771 479 735T564 640T593 517Q593 471 579 434T536 360T453 263L323 120H575Q580 120 583 127T586 141H605Z" />
<glyph unicode="3" glyph-name="three" horiz-adv-x="650" d="M610 750V647L407 472Q462 462 505 428T572 344T596 233Q596 168 565 111T472 18T322 -17Q236 -17 164 31T51 174Q50 178 41 178Q31 178 25 175L18 192L189 268L197 250Q189 247 181 241T175 229Q192
177 231 144T322 110Q361 110 392 127T441 174T459 235Q459 289 423 324T332 360Q308 360 286 353Q282 352 282 348Q282 343 288 337L274 324L254 347L205 399L171 436L185 449Q190 444 197 441T208 440L424 630H125Q120 630 117 623T114 609H95V771H114Q114 764
117 757T125 750H610Z" />
<glyph unicode="4" glyph-name="four" horiz-adv-x="650" d="M636 293V136H617Q617 142 614 149T606 156H512V30Q512 25 519 22T534 19V0H366V19Q373 19 380 22T388 30V156H44Q39 156 36 149T33 134H14V273L351 750H534V731Q527 731 520 728T512 720V273H606Q611
273 614 280T617 293H636ZM388 604L154 273H388V604Z" />
<glyph unicode="5" glyph-name="five" horiz-adv-x="650" d="M415 505T476 473T570 382T604 245Q604 164 570 103T472 7T326 -27Q256 -27 201 1T88 88Q86 90 82 90Q74 90 62 81L50 95L184 211L197 197Q191 192 186 184T184 172Q210 140 245 121T324 101Q396 101
432 141T468 247Q468 307 429 345T328 383Q288 383 258 368T210 328L73 353L77 372Q79 371 86 371Q101 371 102 378L177 721V723Q177 727 173 729T162 731V750H521Q526 750 529 757T532 771H551V609H532Q532 616 529 623T521 630H287L257 494Q293 505 335 505Q415
505 476 473Z" />
<glyph unicode="6" glyph-name="six" horiz-adv-x="650" d="M610 153T576 94T478 1T332 -33Q246 -33 181 2T81 99T46 241Q46 344 117 444L339 758Q340 759 340 761Q340 765 335 770T326 779L337 795L483 695L472 679Q466 684 458 686T446 684L294 487Q302 489
316 490T341 492Q422 492 483 458T577 365T610 230Q610 153 576 94ZM474 296T437 339T330 382Q262 382 222 340T182 235Q182 171 222 131T329 90Q370 90 403 110T455 163T474 229Q474 296 437 339Z" />
<glyph unicode="7" glyph-name="seven" horiz-adv-x="650" d="M625 675L237 6Q236 5 236 3Q236 -1 241 -6T252 -15L243 -32L80 58L89 74Q101 69 109 69Q115 69 116 72L440 629H75Q70 629 67 622T64 608H45V771H64Q64 764 67 757T75 750H625V675Z" />
<glyph unicode="8" glyph-name="eight" horiz-adv-x="650" d="M524 372T551 321T578 216Q578 144 548 90T460 6T325 -24Q252 -24 195 4T106 86T73 211Q73 273 100 323T174 404Q137 430 116 471T94 556Q94 618 123 667T206 744T325 772Q398 772 450 744T529 665T556
551Q556 506 536 467T480 401Q524 372 551 321ZM275 660T247 631T218 561Q218 514 246 484T325 453Q377 453 403 482T430 559Q430 601 403 630T325 660Q275 660 247 631ZM386 91T419 127T452 217Q452 269 418 303T326 338Q288 338 260 321T216 277T200 218Q200
166 234 129T327 91Q386 91 419 127Z" />
<glyph unicode="9" glyph-name="nine" horiz-adv-x="650" d="M47 590T81 649T177 742T318 775Q404 775 468 741T568 645T603 503Q603 393 537 300L313 -16Q312 -17 312 -19Q312 -23 316 -28T326 -36L316 -52L164 41L174 57Q181 53 190 51T202 53L351 256Q329 252
309 252Q233 252 174 285T81 377T47 514Q47 590 81 649ZM175 453T216 414T321 375Q391 375 428 413T466 517Q466 579 427 618T321 657Q258 657 217 617T175 517Q175 453 216 414Z" />
<glyph unicode=":" glyph-name="colon" horiz-adv-x="310" d="M119 314T95 338T70 400Q70 435 95 459T156 484Q191 484 215 460T240 400Q240 363 216 339T156 314Q119 314 95 338ZM119 -11T95 13T70 75Q70 110 95 134T156 159Q191 159 215 135T240 75Q240 38 216
14T156 -11Q119 -11 95 13Z" />
<glyph unicode=";" glyph-name="semicolon" horiz-adv-x="323" d="M119 314T95 338T70 400Q70 435 95 459T156 484Q191 484 215 460T240 400Q240 363 216 339T156 314Q119 314 95 338ZM70 110T96 134T159 159Q202 159 227 131T253 46Q253 -41 202 -77T75 -113V-87Q118
-80 149 -60T181 -9Q172 -11 156 -11Q119 -11 95 13T70 75Q70 110 96 134Z" />
<glyph unicode="&lt;" glyph-name="less" horiz-adv-x="600" d="M74 450L515 638V538L142 379L515 220V120L74 308V450Z" />
<glyph unicode="=" glyph-name="equal" horiz-adv-x="600" d="M75 397T72 391T69 378H50V527H69Q69 521 72 515T80 508H520Q525 508 528 514T531 527H550V378H531Q531 384 528 390T520 397H80Q75 397 72 391ZM75 192T72 186T69 173H50V322H69Q69 316 72 310T80
303H520Q525 303 528 309T531 322H550V173H531Q531 179 528 185T520 192H80Q75 192 72 186Z" />
<glyph unicode="&gt;" glyph-name="greater" horiz-adv-x="600" d="M74 538V638L515 450V308L74 120V220L447 379L74 538Z" />
<glyph unicode="?" glyph-name="question" horiz-adv-x="655" d="M428 317T415 290T403 226Q403 221 413 218T431 215V196H237V215Q245 215 254 218T263 226Q266 274 275 306T306 366T372 424L394 439Q427 460 445 475T475 515T487 573Q487 619 455 652T357 686Q302
686 265 657T220 565V564Q220 559 226 557T240 554V535H70V554Q77 554 85 557T93 565Q99 640 135 694T228 776T354 804Q434 804 493 774T585 692T617 580Q617 520 601 482T556 417T465 344Q428 317 415 290ZM380 127T407 99T435 31Q435 -8 407 -36T339 -64Q300
-64 273 -36T245 31Q245 72 272 99T340 127Q380 127 407 99Z" />
<glyph unicode="@" glyph-name="at" d="M477 484T528 431L530 464Q530 469 526 472T516 475V494H631V475Q626 475 621 472T615 464L602 233Q600 198 614 181T652 163Q667 163 683 180T711 231T723 313Q723 397 686 462T580 564T415 601Q328 601 256 559T141 442T99
278Q99 199 141 130T254 20T404 -22Q506 -22 584 29Q587 31 587 37Q587 43 584 46L599 58L667 -27L652 -39Q649 -35 644 -33T634 -34Q586 -65 526 -81T398 -98Q292 -98 203 -47T63 91T11 275Q11 389 65 480T214 624T423 676Q534 676 622 631T759 504T809 319Q809
241 786 188T726 110T648 84Q612 84 584 101T538 149Q483 82 395 82Q335 82 288 107T214 177T187 282Q187 342 214 388T289 459T395 484Q477 484 528 431ZM446 167T480 200T514 281Q514 333 481 366T395 399Q343 399 310 367T277 282Q277 229 311 198T395 167Q446
167 480 200Z" />
<glyph unicode="A" glyph-name="A" horiz-adv-x="817" d="M783 28Q786 19 807 19V0H604V19Q617 19 622 25T624 37L569 178H243L188 37L187 34Q187 28 192 24T207 19V0H10V19Q30 19 34 28L312 704Q315 710 315 715Q315 724 307 727T290 731V750H523V731Q514 731
506 728T498 715Q498 710 501 704L783 28ZM406 594L288 293H524L406 594Z" />
<glyph unicode="B" glyph-name="B" horiz-adv-x="649" d="M497 418T530 390T586 317T609 219Q609 161 581 111T498 31T367 0H50V19Q57 19 64 22T72 30V720Q72 725 65 728T50 731V750H281Q348 750 399 725T479 654T508 550Q508 475 464 428Q497 418 530 390ZM202
632V455H265Q327 455 350 479T374 548Q374 583 344 607T265 632H202ZM338 118Q414 118 446 149T479 223Q479 268 451 302T355 337H202V118H338Z" />
<glyph unicode="C" glyph-name="C" horiz-adv-x="765" d="M314 -10T224 40T82 180T30 380Q30 496 82 585T222 722T415 771Q516 771 585 736T717 636Q719 634 723 634Q729 634 744 643L756 628L618 519L606 534Q612 538 615 544T615 554Q573 595 528 616T417 638Q349
638 292 605T202 512T169 380Q169 310 204 253T297 162T421 129Q483 129 527 150T610 215L612 219Q612 224 608 230T598 240L611 254L760 129L748 114Q742 119 733 123T721 123Q658 55 589 23T421 -10Q314 -10 224 40Z" />
<glyph unicode="D" glyph-name="D" horiz-adv-x="731" d="M444 750T527 705T655 573T701 369Q701 256 653 173T518 45T320 0H50V19Q57 19 64 22T72 30V720Q72 725 65 728T50 731V750H332Q444 750 527 705ZM301 118Q388 118 449 149T542 238T574 371Q574 490 510
561T313 632H203V118H301Z" />
<glyph unicode="E" glyph-name="E" horiz-adv-x="609" d="M589 140V-20H570Q570 -13 567 -6T559 1H50V20Q57 20 64 23T72 31V721Q72 726 65 729T50 732V751H533Q538 751 541 758T544 772H563V612H544Q544 619 541 626T533 633H201V457H484Q489 457 492 464T495
478H514V318H495Q495 325 492 332T484 339H201V119H559Q564 119 567 126T570 140H589Z" />
<glyph unicode="F" glyph-name="F" horiz-adv-x="577" d="M557 771V611H538Q538 618 535 625T527 632H203V455H465Q470 455 473 462T476 476H495V316H476Q476 323 473 330T465 337H203V30Q203 25 210 22T226 19V0H50V19Q58 19 65 22T73 30V720Q73 725 66 728T51
731V750H527Q532 750 535 757T538 771H557Z" />
<glyph unicode="G" glyph-name="G" horiz-adv-x="805" d="M785 120L710 74Q567 -10 406 -10Q300 -10 214 42T79 184T30 383Q30 497 84 585T229 723T430 772Q509 772 572 746T698 671Q699 670 702 670Q707 670 714 674T726 683L739 669L606 537L592 550Q598 556
601 563T601 575Q520 646 431 646Q361 646 301 614T206 523T170 383Q170 310 200 251T284 156T407 121Q524 121 611 176V322H430Q425 322 422 315T419 301H400V461H419Q419 454 422 447T430 440H762V421Q755 421 748 418T740 410V132Q740 127 748 127Q760 127 775
136L785 120Z" />
<glyph unicode="H" glyph-name="H" horiz-adv-x="764" d="M714 731Q707 731 699 728T690 720V30Q690 25 698 22T714 19V0H526V19Q533 19 541 22T550 30V332H214V30Q214 25 222 22T238 19V0H50V19Q57 19 65 22T74 30V720Q74 725 66 728T50 731V750H238V731Q231
731 223 728T214 720V457H550V720Q550 725 542 728T526 731V750H714V731Z" />
<glyph unicode="I" glyph-name="I" horiz-adv-x="284" d="M74 725T66 728T50 731V750H234V731Q226 731 218 728T210 720V30Q210 25 218 22T234 19V0H50V19Q58 19 66 22T74 30V720Q74 725 66 728Z" />
<glyph unicode="J" glyph-name="J" horiz-adv-x="473" d="M163 -11T127 2T46 44Q45 45 43 45Q39 45 34 41T25 32L10 43L104 181L120 170Q114 162 114 152Q114 147 117 144Q140 127 155 122T194 117Q224 117 246 143T269 215V720Q269 725 261 728T246 731V750H423V731Q416
731 408 728T400 720V211Q400 104 349 47T205 -11Q163 -11 127 2Z" />
<glyph unicode="K" glyph-name="K" horiz-adv-x="708" d="M677 22Q681 17 691 18T703 19V0H477V19Q491 19 493 22T490 30L233 316L200 282V30Q200 25 207 22T222 19V0H50V19Q57 19 64 22T72 30V720Q72 725 65 728T50 731V750H222V731Q215 731 208 728T200 720V458L462
722Q464 724 464 726Q464 731 448 731V750H675V731L656 732Q647 732 642 729L327 410L677 22Z" />
<glyph unicode="L" glyph-name="L" horiz-adv-x="586" d="M556 143V-21H537Q537 -15 534 -8T526 0H51V19Q58 19 65 22T73 30V720Q73 725 65 728T50 731V750H230V731Q223 731 215 728T207 720V122H526Q531 122 534 129T537 143H556Z" />
<glyph unicode="M" glyph-name="M" horiz-adv-x="990" d="M917 30Q917 25 924 22T940 19V0H765V19Q773 19 780 22T788 30V603L495 -38L203 605V30Q203 25 210 22T226 19V0H50V19Q58 19 65 22T73 30V720Q73 725 66 728T51 731V750H309V731Q297 731 294 726T293
713L496 241L702 713Q704 719 696 725T676 731V750H939V731Q932 731 925 728T917 720V30Z" />
<glyph unicode="N" glyph-name="N" horiz-adv-x="776" d="M726 731Q719 731 711 728T703 720V30Q703 25 710 22T725 19V0H549V19Q573 19 564 32L209 522V30Q209 25 217 22T233 19V0H50V19Q58 19 66 22T74 30V720Q74 725 67 728T52 731V750H233V731Q209 731 218
718L583 212L570 720Q570 725 562 728T546 731V750H726V731Z" />
<glyph unicode="O" glyph-name="O" horiz-adv-x="855" d="M314 -16T223 37T81 179T30 367Q30 467 78 559T217 710T430 768Q549 768 639 713T777 567T825 367Q825 271 778 183T640 39T430 -16Q314 -16 223 37ZM506 116T565 147T658 236T692 367Q692 444 660 505T568
601T426 637Q351 637 293 602T201 504T168 367Q168 289 206 232T305 146T431 116Q506 116 565 147Z" />
<glyph unicode="P" glyph-name="P" horiz-adv-x="669" d="M448 750T507 721T597 641T629 523Q629 450 594 400T502 324T380 298H206V30Q206 25 214 22T229 19V0H50V19Q57 19 65 22T73 30V720Q73 725 66 728T51 731V750H369Q448 750 507 721ZM388 425Q423 425 450
440T491 480T505 530Q505 569 472 599T389 629H206V425H388Z" />
<glyph unicode="Q" glyph-name="Q" horiz-adv-x="895" d="M835 94L713 -32L700 -19Q705 -14 708 -7T707 4L649 58Q549 -15 431 -15Q316 -15 225 37T82 177T30 369Q30 477 80 568T223 714T436 769Q548 769 634 715T768 569T816 369Q816 315 797 259T740 151L797
98Q798 97 801 97Q806 97 812 100T821 108L835 94ZM502 111T559 142L454 239Q453 240 450 240Q445 240 439 237T430 229L416 243L539 368L552 355Q547 350 544 343T545 332L655 230Q695 292 695 366Q695 443 662 507T569 610T434 648Q357 648 295 613T199 514T164
373Q164 293 199 234T295 143T434 111Q502 111 559 142Z" />
<glyph unicode="R" glyph-name="R" horiz-adv-x="681" d="M634 26Q638 19 661 19V0H458V19Q472 19 477 24T478 34L310 317H207V30Q207 25 215 22T230 19V0H50V19Q57 19 65 22T73 30V720Q73 725 66 728T51 731V750H356Q488 750 555 691T623 537Q623 450 576 397T453
326L634 26ZM207 634V438H371Q433 438 464 467T495 537Q495 577 460 605T374 634H207Z" />
<glyph unicode="S" glyph-name="S" horiz-adv-x="663" d="M269 -19T195 21T52 133Q50 135 47 135Q38 135 27 124L14 138L153 269L166 255Q160 250 155 241T153 228Q246 110 356 110Q394 110 424 125T472 163T489 212Q489 271 386 309L263 355Q189 382 148 429T106
542Q106 607 136 655T223 730T353 756Q423 756 470 735T572 669Q573 668 576 668Q581 668 587 671T598 679L611 666L487 544L474 558Q479 563 481 569T480 579Q415 631 351 631Q300 631 270 608T240 548Q240 516 256 499T307 470L428 426Q491 403 533 378T600 311T625
207Q625 147 594 96T501 13T355 -19Q269 -19 195 21Z" />
<glyph unicode="T" glyph-name="T" horiz-adv-x="673" d="M658 770V616H639Q639 622 636 629T628 636H405V30Q405 25 413 22T429 19V0H245V19Q253 19 261 22T269 30V636H45Q40 636 37 629T34 616H15V770H34Q34 764 37 757T45 750H628Q633 750 636 757T639 770H658Z" />
<glyph unicode="U" glyph-name="U" horiz-adv-x="767" d="M299 -11T227 27T115 137T75 308V720Q75 725 67 728T50 731V750H243V731Q235 731 227 728T218 720V338Q218 230 261 172T391 114Q485 114 516 174T548 330V720Q548 725 540 728T523 731V750H717V731Q709
731 701 728T692 720V326Q692 167 620 78T391 -11Q299 -11 227 27Z" />
<glyph unicode="V" glyph-name="V" horiz-adv-x="780" d="M776 731Q755 731 752 722L465 46Q463 42 463 35Q463 26 469 23T482 19V0H297V19Q304 19 310 22T316 35Q316 42 314 46L27 722Q24 731 3 731V750H197V731Q185 731 181 725T180 713L393 195L600 713Q602
719 594 725T573 731V750H776V731Z" />
<glyph unicode="W" glyph-name="W" horiz-adv-x="1000" d="M395 49Q390 32 401 26T425 19V0H190V19Q199 19 209 23T219 40Q219 45 218 48L30 721Q28 731 10 731V750H205V731Q193 731 187 725T182 711L307 200L423 701Q424 704 424 709Q424 721 413 726T392 731V750H630V731Q618
731 606 725T599 701L713 224L811 711Q813 717 802 724T777 731V750H990V731Q973 731 970 721L785 48Q784 45 784 40Q784 28 793 24T812 19V0H594V19Q605 19 616 25T624 49L515 554L395 49Z" />
<glyph unicode="X" glyph-name="X" horiz-adv-x="796" d="M786 731H774Q758 731 755 727L477 377L740 24Q744 19 756 19T770 19V0H558V19Q570 19 570 24Q570 26 566 32L390 262L213 32Q211 28 211 27Q211 24 216 22T231 19V0H10V19H17Q35 19 40 24L300 369L40
726Q36 731 24 731T10 731V750H204V731Q192 731 192 727Q192 726 194 723T197 719L391 473L582 718Q584 722 584 723Q584 731 565 731V750H786V731Z" />
<glyph unicode="Y" glyph-name="Y" horiz-adv-x="766" d="M756 731H750Q731 731 727 725L458 339V30Q458 25 466 22T483 19V0H287V19Q295 19 303 22T312 30V333L39 725Q36 729 27 730T10 731V750H216V731Q204 731 204 726Q204 722 207 717L381 472L553 717L555
721Q555 726 550 728T534 731V750H756V731Z" />
<glyph unicode="Z" glyph-name="Z" horiz-adv-x="750" d="M692 147V-21H673Q673 -14 670 -7T662 1H58V35L464 637H88Q83 637 80 630T77 617H58V771H77Q77 765 80 758T88 751H675V718L275 125H662Q667 125 670 132T673 147H692Z" />
<glyph unicode="[" glyph-name="bracketleft" horiz-adv-x="469" d="M240 632V-26H389Q394 -26 397 -20T400 -7H419V-154H400Q400 -148 397 -142T389 -135H101V-116Q108 -116 115 -113T122 -105V711Q122 716 115 719T100 722V741H389Q394 741 397 747T400 760H419V613H400Q400
619 397 625T389 632H240Z" />
<glyph unicode="\" glyph-name="backslash" horiz-adv-x="502" d="M5 805H127L497 -59H375L5 805Z" />
<glyph unicode="]" glyph-name="bracketright" horiz-adv-x="469" d="M347 -109T354 -112T369 -115V-134H80Q75 -134 72 -140T69 -153H50V-6H69Q69 -12 72 -18T80 -25H229V632H80Q75 632 72 626T69 613H50V760H69Q69 754 72 748T80 741H368V722Q361 722 354 719T347
711V-104Q347 -109 354 -112Z" />
<glyph unicode="^" glyph-name="asciicircum" horiz-adv-x="600" d="M381 746L549 395H409L300 623L191 395H51L219 746H381Z" />
<glyph unicode="_" glyph-name="underscore" horiz-adv-x="600" d="M69 -108V-40H531V-108H69Z" />
<glyph unicode="`" glyph-name="grave" horiz-adv-x="600" d="M273 788L143 985H259L353 788H273Z" />
<glyph unicode="a" glyph-name="a" horiz-adv-x="633" d="M587 441Q580 441 573 438T565 430V30Q565 25 572 22T587 19V0H439V55Q376 -13 280 -13Q207 -13 152 16T66 101T35 229Q35 300 68 355T158 441T280 472Q376 472 439 398V460H587V441ZM336 93T368 111T419
160T437 226Q437 286 398 325T295 364Q234 364 195 326T155 229Q155 167 195 130T295 93Q336 93 368 111Z" />
<glyph unicode="b" glyph-name="b" horiz-adv-x="627" d="M409 472T467 442T558 356T592 229Q592 156 559 102T469 17T338 -13Q254 -13 192 37V0H46V19Q53 19 60 22T68 30V720Q68 725 61 728T46 731V750H214V731Q207 731 200 728T192 720V425Q252 472 338 472Q409
472 467 442ZM390 93T430 130T471 229Q471 287 431 325T330 364Q268 364 228 325T188 226Q188 191 206 161T258 112T330 93Q390 93 430 130Z" />
<glyph unicode="c" glyph-name="c" horiz-adv-x="513" d="M210 -21T155 11T68 98T35 218Q35 295 67 353T155 443T276 475Q323 475 356 464T410 438T462 394Q464 392 467 392Q471 392 476 395T485 401L498 387L390 287L377 301Q382 305 385 312T386 324Q350 368
287 368Q230 368 192 330T153 231Q153 168 190 130T287 92Q317 92 336 99T379 128Q381 130 381 133Q381 139 374 146L386 161L494 71L482 57Q466 66 460 60Q423 19 383 -1T274 -21Q210 -21 155 11Z" />
<glyph unicode="d" glyph-name="d" horiz-adv-x="627" d="M555 30Q555 25 562 22T577 19V0H434V35Q374 -14 291 -14Q217 -14 159 16T68 101T35 228Q35 301 68 357T160 445T291 477Q374 477 434 430V720Q434 725 427 728T413 731V750H576V731Q569 731 562 728T555
720V30ZM336 93T368 111T419 159T438 224Q438 285 399 324T297 364Q235 364 196 326T156 226Q156 165 196 129T297 93Q336 93 368 111Z" />
<glyph unicode="e" glyph-name="e" horiz-adv-x="556" d="M356 481T412 448T497 357T526 231Q526 210 523 189H157Q161 141 199 114T290 87Q326 87 350 97T394 127Q396 131 396 132Q396 136 393 140T387 147L399 162L510 75L499 60Q484 69 478 62Q408 -22 290
-22Q214 -22 156 11T67 101T35 227Q35 300 66 358T152 448T279 481Q356 481 412 448ZM406 282Q402 323 365 351T280 380Q233 380 199 352T158 282H406Z" />
<glyph unicode="f" glyph-name="f" horiz-adv-x="345" d="M320 477V330H301Q301 336 298 342T290 349H218V30Q218 25 225 22T238 19V0H83V19Q89 19 96 22T103 30V349H55Q50 349 47 343T44 330H25V477H44Q44 471 47 465T55 458H103V608Q103 675 145 716T259 761Q264
761 266 768T269 782L288 784L297 609L278 608Q278 616 275 623T265 631Q242 627 230 612T218 575V458H290Q295 458 298 464T301 477H320Z" />
<glyph unicode="g" glyph-name="g" horiz-adv-x="631" d="M581 460V441Q574 441 567 438T559 430L560 -37Q560 -162 488 -230T292 -299Q241 -299 184 -271T79 -186Q78 -183 73 -183Q65 -183 56 -190L45 -175L170 -76L182 -91Q177 -95 173 -102T171 -114Q196 -149
225 -166T295 -183Q360 -183 397 -152T434 -56V35Q371 -14 289 -14Q215 -14 158 16T68 102T35 230Q35 302 69 356T161 440T289 470Q373 470 434 424V460H581ZM363 93T400 129T437 226Q437 286 397 325T295 364Q235 364 196 326T156 228Q156 166 196 130T295 93Q363
93 400 129Z" />
<glyph unicode="h" glyph-name="h" horiz-adv-x="611" d="M542 30Q542 25 549 22T565 19V0H389V19Q397 19 404 22T412 30V238Q412 289 387 325T312 362Q261 362 227 328T193 230V30Q193 25 200 22T215 19V0H46V19Q53 19 60 22T68 30V720Q68 725 61 728T46 731V750H215V731Q208
731 201 728T193 720V415Q219 440 256 455T332 470Q397 470 444 443T517 371T542 269V30Z" />
<glyph unicode="i" glyph-name="i" horiz-adv-x="292" d="M115 544T93 566T70 621Q70 652 92 674T147 697Q179 697 201 675T223 621Q223 588 201 566T147 544Q115 544 93 566ZM82 435T75 438T60 441V460H232V441Q225 441 218 438T210 430V30Q210 25 217 22T232
19V0H60V19Q67 19 74 22T82 30V430Q82 435 75 438Z" />
<glyph unicode="j" glyph-name="j" horiz-adv-x="291" d="M111 543T89 565T67 620Q67 651 89 673T143 696Q174 696 196 674T219 620Q219 587 197 565T143 543Q111 543 89 565ZM208 -80Q208 -157 187 -207T113 -312L111 -316Q111 -320 114 -325T122 -334L109 -348L-23
-231L-10 -217Q-4 -222 3 -225T15 -224Q46 -191 62 -160T78 -93V430Q78 435 71 438T55 441V460H231V441Q223 441 216 438T208 430V-80Z" />
<glyph unicode="k" glyph-name="k" horiz-adv-x="543" d="M495 24Q499 19 519 19V0H336V19Q348 19 348 24Q348 26 344 32L249 163L195 100V30Q195 25 202 22T217 19V0H46V19Q53 19 60 22T68 30V720Q68 725 61 728T46 731V750H217V731Q210 731 203 728T195 720V278L327
430L329 434Q329 441 311 441V460H511V441H502Q489 441 485 437L324 250L495 24Z" />
<glyph unicode="l" glyph-name="l" horiz-adv-x="268" d="M69 725T62 728T46 731V750H222V731Q214 731 207 728T199 720V30Q199 25 206 22T222 19V0H46V19Q54 19 61 22T69 30V720Q69 725 62 728Z" />
<glyph unicode="m" glyph-name="m" horiz-adv-x="858" d="M789 30Q789 25 796 22T812 19V0H636V19Q644 19 651 22T659 30V238Q659 362 577 362Q537 362 515 329T493 230V30Q493 25 500 22T516 19V0H341V19Q349 19 356 22T364 30V238Q364 293 347 327T284 362Q248
362 227 336T201 256V30Q201 25 209 22T224 19V0H46V19Q53 19 61 22T69 30V430Q69 435 62 438T47 441V460H201V433Q241 470 303 470Q359 470 399 449T463 389Q481 426 518 448T603 470Q697 470 743 414T789 269V30Z" />
<glyph unicode="n" glyph-name="n" horiz-adv-x="611" d="M542 30Q542 25 549 22T565 19V0H389V19Q397 19 404 22T412 30V238Q412 289 387 325T312 362Q261 362 230 328T198 230V30Q198 25 205 22T221 19V0H46V19Q54 19 61 22T69 30V430Q69 435 62 438T47 441V460H198V419Q224
443 259 456T332 470Q396 470 443 443T516 371T542 269V30Z" />
<glyph unicode="o" glyph-name="o" horiz-adv-x="570" d="M211 -12T155 19T67 106T35 230Q35 298 66 354T155 442T285 475Q355 475 412 444T502 357T535 230Q535 168 506 113T419 23T285 -12Q211 -12 155 19ZM344 103T380 137T417 227Q417 284 381 321T285 358Q230
358 193 322T156 230Q156 172 193 138T285 103Q344 103 380 137Z" />
<glyph unicode="p" glyph-name="p" horiz-adv-x="630" d="M420 472T476 442T563 356T595 228Q595 155 564 100T476 15T346 -15Q263 -15 197 41V-261Q197 -266 204 -269T219 -272V-291H50V-272Q57 -272 64 -269T72 -261V430Q72 435 65 438T50 441V460H197V418Q265
472 349 472Q420 472 476 442ZM395 92T435 128T475 226Q475 286 436 324T336 363Q273 363 234 325T194 225Q194 191 212 160T263 111T336 92Q395 92 435 128Z" />
<glyph unicode="q" glyph-name="q" horiz-adv-x="633" d="M583 441Q576 441 569 438T561 430V-261Q561 -266 568 -269T583 -272V-291H412V-272Q419 -272 426 -269T434 -261V39Q371 -14 290 -14Q217 -14 159 16T68 101T35 228Q35 300 68 355T160 441T290 472Q371
472 434 422V460H583V441ZM335 93T367 111T419 159T438 223Q438 285 399 324T296 363Q234 363 195 325T156 226Q156 164 196 129T296 93Q335 93 367 111Z" />
<glyph unicode="r" glyph-name="r" horiz-adv-x="369" d="M354 490V329H335Q335 336 332 345T324 355H317Q286 355 255 338T203 292T182 231V30Q182 25 189 22T204 19V0H36V19Q43 19 50 22T58 30V430Q58 435 51 438T36 441V460H182V417Q209 442 247 457T323 472H324H325Q330
472 332 478T335 490H354Z" />
<glyph unicode="s" glyph-name="s" horiz-adv-x="451" d="M189 -15T142 6T46 66Q44 68 41 68Q33 68 24 59L10 71L110 185L124 172Q120 167 118 160T119 149Q152 119 180 105T240 90Q317 90 317 141Q317 164 294 176T215 204Q144 223 112 253T80 337Q80 400 121
439T233 479Q269 479 298 468T368 429Q369 428 372 428Q377 428 382 431T389 437L404 424L314 322L300 334Q304 338 305 344T303 355Q285 369 269 376T232 383Q211 383 199 375T187 351Q187 338 194 330T219 314T276 294Q346 273 386 236T426 143Q426 62 375 24T240
-15Q189 -15 142 6Z" />
<glyph unicode="t" glyph-name="t" horiz-adv-x="334" d="M314 480V328H295Q295 335 292 341T284 348H219V30Q219 25 226 22T240 19V0H77V19Q84 19 91 22T98 30V348H50Q45 348 42 342T39 328H20V480H39Q39 473 42 467T50 460H98V577Q98 582 91 585T77 588V607H240V588Q233
588 226 585T219 577V460H284Q289 460 292 466T295 480H314Z" />
<glyph unicode="u" glyph-name="u" horiz-adv-x="564" d="M496 30Q496 25 503 22T518 19V0H394V37Q341 -9 271 -9Q166 -9 117 51T68 203V430Q68 435 61 438T46 441V460H216V441Q209 441 202 438T194 430V211Q194 168 216 139T284 109Q328 109 350 136T372 205V430Q372
435 365 438T350 441V460H518V441Q511 441 504 438T496 430V30Z" />
<glyph unicode="v" glyph-name="v" horiz-adv-x="584" d="M574 441Q554 441 549 433L368 45Q365 38 365 33Q365 25 371 22T385 19V0H183V19Q190 19 197 22T204 35Q204 40 201 46L34 432Q31 441 10 441V460H184V441Q172 441 169 436T168 423L291 136L421 424Q422
425 422 427Q422 432 415 436T396 441V460H574V441Z" />
<glyph unicode="w" glyph-name="w" horiz-adv-x="800" d="M331 48L329 39Q329 28 337 24T355 19V0H149V19Q157 19 165 23T173 37Q173 39 171 47L32 432Q30 437 24 439T10 441V460H179V441Q167 441 163 435T160 422L261 139L346 412Q347 415 347 421Q347 432 340
436T326 441V460H496V441Q489 441 482 437T474 420Q474 415 475 412L551 137L655 422Q657 428 648 434T627 441V460H790V441Q783 441 777 439T768 432L631 47Q629 43 629 37Q629 27 637 23T653 19V0H442V19Q451 19 460 23T470 40Q470 45 469 48L406 291L331 48Z"
/>
<glyph unicode="x" glyph-name="x" horiz-adv-x="554" d="M532 441H525Q512 441 508 436L349 228L504 24Q508 19 528 19V0H352V19Q364 19 364 24Q364 26 360 32L278 140L194 31L192 27Q192 23 197 21T211 18V0H25V19H30Q44 19 49 24L205 230L48 436Q44 441 24
441V460H199V442Q187 442 187 437Q187 434 190 429L275 317L362 429L364 433Q364 437 359 439T344 442V460H532V441Z" />
<glyph unicode="y" glyph-name="y" horiz-adv-x="602" d="M592 441Q571 441 566 433L216 -256Q215 -257 215 -259Q215 -265 222 -269T240 -273V-292H52V-273Q73 -273 78 -265L241 56L36 434Q32 441 10 441V460H195V441Q183 441 181 436T182 425L309 190L428 424Q429
425 429 427Q429 433 422 437T404 441V460H592V441Z" />
<glyph unicode="z" glyph-name="z" horiz-adv-x="487" d="M462 426L230 111H430Q435 111 438 117T441 130H460V-19H441Q441 -13 438 -7T430 0H27V32L258 348H55Q50 348 47 342T44 328H25V480H44Q44 473 47 467T55 460H462V426Z" />
<glyph unicode="{" glyph-name="braceleft" horiz-adv-x="422" d="M242 431Q242 371 212 339T124 303Q182 302 212 270T242 177V60Q242 20 261 -3T307 -26H372Q377 -26 380 -20T383 -7H402V-154H383Q383 -148 380 -142T372 -135H289Q124 -135 124 31V150Q124 191
103 213T40 235Q35 235 32 227T29 211H10V397H29Q29 389 32 381T40 373Q81 373 102 395T124 458V576Q124 741 289 741H372Q377 741 380 747T383 760H402V613H383Q383 619 380 625T372 632H307Q279 632 261 610T242 547V431Z" />
<glyph unicode="|" glyph-name="bar" horiz-adv-x="400" d="M142 -120V716H258V-120H142Z" />
<glyph unicode="}" glyph-name="braceright" horiz-adv-x="422" d="M412 396V210H393Q393 218 390 226T382 234Q341 234 320 212T298 149V30Q298 -135 133 -135H50Q45 -135 42 -141T39 -154H20V-6H39Q39 -12 42 -18T50 -25L115 -26Q142 -26 161 -3T180 60V176Q180
236 210 268T298 303Q240 305 210 337T180 430V547Q180 587 162 609T115 632H50Q45 632 42 626T39 613H20V760H39Q39 754 42 748T50 741H133Q298 741 298 576V457Q298 416 319 394T382 372Q387 372 390 380T393 396H412Z" />
<glyph unicode="~" glyph-name="asciitilde" horiz-adv-x="600" d="M366 208T341 218T285 252Q262 270 249 276T216 282Q200 282 184 271T157 238V236Q157 229 171 218L162 201L32 276L42 292Q47 289 54 289Q61 289 62 293Q87 338 126 363T211 389Q243 389 268
382T318 354Q347 331 361 323T395 315Q411 315 421 323T447 356Q448 357 448 360Q448 369 437 374L445 391L568 329L559 312Q553 315 549 315Q543 315 540 309Q488 208 396 208Q366 208 341 218Z" />
<glyph unicode="&#xa0;" glyph-name="uni00A0" horiz-adv-x="280" />
<glyph unicode="&#xa1;" glyph-name="exclamdown" horiz-adv-x="328" d="M125 597T98 625T70 693Q70 732 98 760T166 788Q205 788 232 760T260 693Q260 652 233 625T165 597Q125 597 98 625ZM102 495T95 498T82 501V520H246V501Q240 501 233 498T226 490L240 -34Q240
-39 249 -42T268 -45V-64H60V-45Q69 -45 78 -42T88 -34L102 490Q102 495 95 498Z" />
<glyph unicode="&#xa2;" glyph-name="cent" horiz-adv-x="498" d="M381 255L489 165L477 151Q461 160 455 154Q418 113 378 93T269 73Q213 73 163 98L126 37L82 64L120 126Q78 160 54 208T30 312Q30 389 62 447T150 537T271 569Q332 569 376 548L410 605L453 578L419
521Q431 511 457 488Q459 486 462 486Q466 486 471 489T480 495L493 481L385 381L372 395Q377 399 380 406T381 418L366 434L223 198Q250 186 282 186Q312 186 331 193T374 222Q376 224 376 227Q376 233 369 240L381 255ZM148 265T182 228L321 457Q301 462 282
462Q225 462 187 424T148 325Q148 265 182 228Z" />
<glyph unicode="&#xa3;" glyph-name="sterling" horiz-adv-x="779" d="M651 243L759 98L744 87Q739 93 733 97T722 98Q675 63 631 46T536 28Q475 28 406 52Q365 66 344 71T292 76Q259 76 229 64T167 24Q165 23 165 19Q165 15 168 10T174 0L159 -12L82 75L26 137L41
150Q45 145 52 141T65 138Q122 175 149 217T176 325V331H112Q107 331 104 325T101 312H82V459H101Q101 453 104 447T112 440H166Q165 449 165 467Q165 569 204 635T305 732T434 763Q509 763 560 737T657 662Q659 660 663 660Q671 660 680 669L693 655L567 532L553
546Q559 551 563 559T565 573Q518 626 441 626Q407 626 375 610T321 557T299 461Q299 447 300 440H537Q542 440 545 446T548 459H567V312H548Q548 318 545 324T537 331H311Q310 255 257 188Q292 197 329 197Q374 197 416 181Q483 156 528 156Q582 156 643 204Q645
206 645 209Q645 216 636 231L651 243Z" />
<glyph unicode="&#xa4;" glyph-name="currency" horiz-adv-x="600" d="M507 258T470 205L548 127L486 65L406 145Q357 115 300 115Q238 115 188 148L105 65L43 127L126 210Q93 260 93 322Q93 379 123 428L43 508L105 570L183 492Q236 529 300 529Q362 529 412
496L486 570L548 508L474 434Q507 384 507 322Q507 258 470 205ZM184 274T218 240T300 206Q349 206 383 240T417 322Q417 371 383 405T300 439Q252 439 218 405T184 322Q184 274 218 240Z" />
<glyph unicode="&#xa5;" glyph-name="yen" horiz-adv-x="766" d="M756 731H750Q731 731 727 725L554 476H720V395H497L458 339V317H720V240H458V30Q458 25 466 22T483 19V0H287V19Q295 19 303 22T312 30V240H47V317H312V333L269 395H47V476H212L39 725Q36 729
27 730T10 731V750H216V731Q204 731 204 726Q204 722 207 717L381 472L553 717L555 721Q555 726 550 728T534 731V750H756V731Z" />
<glyph unicode="&#xa6;" glyph-name="brokenbar" horiz-adv-x="400" d="M142 380V716H258V380H142ZM142 -120V216H258V-120H142Z" />
<glyph unicode="&#xa7;" glyph-name="section" horiz-adv-x="473" d="M435 225T435 149Q435 77 382 33T244 -12Q141 -12 49 78Q47 80 44 80Q40 80 35 77T27 71L14 85L125 193L139 179Q134 175 131 168T131 156Q161 123 186 110T245 97Q277 97 297 112T317 152Q317
170 308 181T277 203T202 235Q199 236 180 243Q121 266 92 302T63 390Q63 420 77 449T117 501Q63 542 63 615Q63 682 112 724T240 766Q275 766 300 759T345 739T397 703Q398 702 402 702Q411 702 421 712L435 698L329 596L316 609Q327 622 319 628Q277 661 238
661Q208 661 191 649T174 613Q174 591 193 576T269 541Q354 511 394 476T434 376Q434 317 371 269Q435 225 435 149ZM170 358T217 339L274 316Q321 344 321 380Q321 404 300 421T216 459Q170 441 170 394Q170 358 217 339Z" />
<glyph unicode="&#xa8;" glyph-name="dieresis" horiz-adv-x="576" d="M146 815T126 835T105 886Q105 915 125 935T176 955Q204 955 224 935T245 886Q245 856 225 836T176 815Q146 815 126 835ZM372 815T352 835T331 886Q331 915 351 935T402 955Q430 955 450
935T471 886Q471 856 451 836T402 815Q372 815 352 835Z" />
<glyph unicode="&#xa9;" glyph-name="copyright" horiz-adv-x="800" d="M295 -3T207 49T66 189T14 383Q14 488 66 576T206 717T400 769Q505 769 593 717T734 577T786 383Q786 278 734 190T594 49T400 -3Q295 -3 207 49ZM487 61T561 104T678 222T722 383Q722 470
679 544T561 661T400 705Q313 705 239 662T122 544T78 383Q78 296 121 222T239 105T400 61Q487 61 561 104ZM339 144T285 175T200 259T169 379Q169 446 199 500T282 584T402 615Q462 615 504 594T583 536Q586 533 589 533Q595 533 604 539L616 524L515 444L503
458Q514 469 507 476Q484 497 460 508T403 519Q346 519 308 479T269 379Q269 343 287 312T337 263T405 244Q436 244 459 254T505 288Q507 290 507 293Q507 300 499 308L511 323L618 232L606 218Q601 222 594 223T584 221Q544 180 503 162T405 144Q339 144 285 175Z"
/>
<glyph unicode="&#xaa;" glyph-name="ordfeminine" horiz-adv-x="420" d="M386 750Q382 750 378 749T373 744V512Q373 509 377 508T386 506V495H300V526Q265 487 208 487Q144 487 105 525T66 628Q66 669 85 701T137 750T208 768Q262 768 300 725V761H386V750ZM252
549T275 572T299 626Q299 661 276 683T217 706Q182 706 159 684T136 628Q136 592 159 571T217 549Q252 549 275 572Z" />
<glyph unicode="&#xab;" glyph-name="guillemotleft" horiz-adv-x="600" d="M245 494H340L170 282L340 70H245L75 282L245 494ZM426 494H521L351 282L521 70H426L256 282L426 494Z" />
<glyph unicode="&#xac;" glyph-name="logicalnot" horiz-adv-x="600" d="M543 101T549 98T562 95V76H414V95Q420 95 426 98T433 106V237H87Q82 237 79 230T76 217H57V371H76Q76 365 79 358T87 351H543V106Q543 101 549 98Z" />
<glyph unicode="&#xad;" glyph-name="uni00AD" horiz-adv-x="382" d="M327 286T330 292T333 304H352V167H333Q333 173 330 179T322 185H60Q55 185 52 179T49 167H30V304H49Q49 298 52 292T60 286H322Q327 286 330 292Z" />
<glyph unicode="&#xae;" glyph-name="registered" horiz-adv-x="800" d="M505 769T593 717T734 577T786 383Q786 278 734 190T594 49T400 -3Q295 -3 207 49T66 189T14 383Q14 488 66 576T206 717T400 769Q505 769 593 717ZM487 61T561 104T678 222T722 383Q722
470 679 544T561 661T400 705Q313 705 239 662T122 544T78 383Q78 296 121 222T239 105T400 61Q487 61 561 104ZM581 179Q585 172 608 172V153H461V172Q475 172 480 177T481 187L382 353H322V183Q322 178 327 175T338 172V153H217V172Q222 172 227 175T233 183V596Q233
601 226 604T211 607V626H412Q495 626 537 589T580 492Q580 437 550 403T473 358L581 179ZM322 550V431H421Q460 431 478 448T497 492Q497 516 476 533T423 550H322Z" />
<glyph unicode="&#xaf;" glyph-name="overscore" horiz-adv-x="600" d="M120 870V959H480V870H120Z" />
<glyph unicode="&#xb0;" glyph-name="degree" horiz-adv-x="431" d="M173 459T138 480T81 536T60 615Q60 657 81 692T137 749T216 770Q258 770 293 749T350 693T371 615Q371 572 350 537T294 480T216 459Q173 459 138 480ZM250 532T274 556T298 615Q298 649 274
673T216 697Q182 697 158 673T133 615Q133 581 157 557T216 532Q250 532 274 556Z" />
<glyph unicode="&#xb1;" glyph-name="plusminus" horiz-adv-x="600" d="M550 498V354H531Q531 360 528 366T520 373H358V280Q358 275 365 272T378 269V250H222V269Q228 269 235 272T242 280V373H80Q75 373 72 367T69 354H50V498H69Q69 492 72 486T80 479H242V570Q242
575 235 578T222 581V600H378V581Q372 581 365 578T358 570V479H520Q525 479 528 485T531 498H550ZM520 225Q525 225 528 231T531 243H550V104H531Q531 110 528 116T520 122H80Q75 122 72 116T69 104H50V243H69Q69 237 72 231T80 225H520Z" />
<glyph unicode="&#xb2;" glyph-name="uni00B2" horiz-adv-x="650" d="M605 141V-21H586Q586 -14 583 -7T575 0H66V31L363 355Q406 402 432 440T458 520Q458 577 423 614T333 651Q284 651 247 617T207 531Q208 526 217 523T234 520V501H46V520Q53 520 62 523T71
531Q77 598 110 652T201 739T339 771Q422 771 479 735T564 640T593 517Q593 471 579 434T536 360T453 263L323 120H575Q580 120 583 127T586 141H605Z" />
<glyph unicode="&#xb3;" glyph-name="uni00B3" horiz-adv-x="650" d="M610 750V647L407 472Q462 462 505 428T572 344T596 233Q596 168 565 111T472 18T322 -17Q236 -17 164 31T51 174Q50 178 41 178Q31 178 25 175L18 192L189 268L197 250Q189 247 181 241T175
229Q192 177 231 144T322 110Q361 110 392 127T441 174T459 235Q459 289 423 324T332 360Q308 360 286 353Q282 352 282 348Q282 343 288 337L274 324L254 347L205 399L171 436L185 449Q190 444 197 441T208 440L424 630H125Q120 630 117 623T114 609H95V771H114Q114
764 117 757T125 750H610Z" />
<glyph unicode="&#xb4;" glyph-name="acute" horiz-adv-x="600" d="M307 985H423L293 788H213L307 985Z" />
<glyph unicode="&#xb5;" glyph-name="uni00B5" horiz-adv-x="600" d="M529 30Q529 25 536 22T551 19V0H412V41Q360 -9 295 -9Q238 -9 192 24V-261Q192 -266 199 -269T215 -272V-291H40V-272Q48 -272 55 -269T63 -261V348V378V430Q63 435 56 438T40 441V460H215V441Q207
441 200 438T192 430V215Q192 173 218 144T294 114Q344 114 372 143T400 215V430Q400 435 393 438T377 441V460H552V441Q544 441 537 438T529 430V30Z" />
<glyph unicode="&#xb6;" glyph-name="paragraph" horiz-adv-x="563" d="M339 750V-120H251V376H231Q177 376 130 397T54 460T25 562Q25 616 51 659T126 726T240 750H339ZM513 750V731Q506 731 499 728T491 720V-120H403V750H513Z" />
<glyph unicode="&#xb7;" glyph-name="middot" horiz-adv-x="270" d="M99 204T75 228T50 290Q50 325 75 349T136 374Q171 374 195 350T220 290Q220 253 196 229T136 204Q99 204 75 228Z" />
<glyph unicode="&#xb8;" glyph-name="cedilla" horiz-adv-x="600" d="M329 -45Q372 -49 398 -72T425 -133Q425 -176 389 -202T298 -229Q241 -229 189 -200L213 -149Q253 -166 282 -166Q308 -166 322 -155T336 -125Q336 -108 318 -97T267 -85L318 52H371L329 -45Z" />
<glyph unicode="&#xb9;" glyph-name="uni00B9" horiz-adv-x="650" d="M429 30Q429 25 437 22T453 19V0H268V19Q276 19 284 22T292 30V630H188Q183 630 180 623T177 609H158V771H177Q177 764 180 757T188 750H451V731Q444 731 437 728T429 720V30Z" />
<glyph unicode="&#xba;" glyph-name="ordmasculine" horiz-adv-x="410" d="M146 488T106 527T66 628Q66 667 84 699T136 751T211 770Q273 770 314 730T356 628Q356 593 339 561T288 508T211 488Q146 488 106 527ZM245 555T266 574T287 626Q287 659 266 680T211
702Q179 702 158 681T136 628Q136 595 157 575T211 555Q245 555 266 574Z" />
<glyph unicode="&#xbb;" glyph-name="guillemotright" horiz-adv-x="646" d="M125 494H220L390 282L220 70H125L295 282L125 494ZM306 494H401L571 282L401 70H306L476 282L306 494Z" />
<glyph unicode="&#xbc;" glyph-name="onequarter" d="M92 665Q87 665 84 660T81 648H62V777H81Q81 771 84 766T92 760H266V741Q259 741 252 738T244 730V349Q244 344 250 341T263 338V319H119V338Q125 338 131 341T138 349V665H92ZM21 24L751 754L778 726L48 -4L21
24ZM799 178V53H780Q780 58 777 63T769 69H731V30Q731 25 736 22T747 19V0H624V19Q629 19 634 22T640 30V69H435Q430 69 427 62T424 47H405V162L626 454H753V435Q746 435 739 432T731 424V162H769Q774 162 777 167T780 178H799ZM640 318L521 162H640V318Z" />
<glyph unicode="&#xbd;" glyph-name="onehalf" d="M91 665Q86 665 83 660T80 648H61V777H80Q80 771 83 766T91 760H265V741Q258 741 251 738T243 730V349Q243 344 249 341T262 338V319H118V338Q124 338 130 341T137 349V665H91ZM20 24L750 754L777 726L47 -4L20
24ZM800 103V-15H781Q781 -10 778 -5T770 0H501Q496 0 493 -5T490 -15H471V103H490Q490 98 493 93T501 88H503L652 231Q656 235 671 249T693 277T700 310Q700 331 684 345T645 359Q622 359 605 348T577 315V313Q577 309 582 305T591 298L584 281L460 329L467 347Q469
346 475 346Q484 346 485 351Q504 395 544 425T638 455Q690 455 726 435T779 381T797 310Q797 263 778 232T708 153L641 88H770Q775 88 778 93T781 103H800Z" />
<glyph unicode="&#xbe;" glyph-name="threequarters" d="M103 302T45 392Q42 396 36 396Q29 396 24 393L15 409L131 476L140 459Q124 447 126 439Q136 417 155 402T202 387Q237 387 254 403T272 445Q272 472 249 488T181 505Q167 505 160 503Q155 503 152 497T149
486H130V604H149Q149 599 152 593T160 585Q166 584 178 584Q214 584 234 601T255 642Q255 661 241 676T202 692Q180 692 164 683T136 649L135 646Q135 642 139 639T146 634L140 616L23 656L29 674L36 673Q47 673 48 679Q68 720 105 746T198 773Q246 773 279 754T329
705T346 642Q346 613 331 589T286 548Q319 537 340 508T362 439Q362 382 322 342T206 302Q103 302 45 392ZM53 24L783 754L810 726L80 -4L53 24ZM780 162Q785 162 788 167T791 178H810V53H791Q791 58 788 63T780 69H742V30Q742 25 747 22T758 19V0H635V19Q640 19
645 22T651 30V69H446Q441 69 438 62T435 47H416V162L637 454H764V435Q757 435 750 432T742 424V162H780ZM651 318L532 162H651V318Z" />
<glyph unicode="&#xbf;" glyph-name="questiondown" horiz-adv-x="655" d="M275 614T248 642T220 710Q220 749 248 777T316 805Q355 805 382 777T410 710Q410 669 383 642T315 614Q275 614 248 642ZM227 424T240 451T252 515Q252 520 242 523T224 526V545H418V526Q410
526 401 523T392 515Q389 467 380 435T349 375T283 317L261 302Q228 281 210 266T180 226T168 168Q168 122 200 89T298 55Q353 55 390 84T435 176V177Q435 182 429 184T415 187V206H585V187Q578 187 570 184T562 176Q556 101 520 47T427 -35T301 -63Q221 -63 162
-33T70 49T38 161Q38 221 54 259T99 324T190 397Q227 424 240 451Z" />
<glyph unicode="&#xc0;" glyph-name="Agrave" horiz-adv-x="817" d="M783 28Q786 19 807 19V0H604V19Q617 19 622 25T624 37L569 178H243L188 37L187 34Q187 28 192 24T207 19V0H10V19Q30 19 34 28L312 704Q315 710 315 715Q315 724 307 727T290 731V750H523V731Q514
731 506 728T498 715Q498 710 501 704L783 28ZM406 594L288 293H524L406 594ZM404 788L274 985H390L484 788H404Z" />
<glyph unicode="&#xc1;" glyph-name="Aacute" horiz-adv-x="817" d="M783 28Q786 19 807 19V0H604V19Q617 19 622 25T624 37L569 178H243L188 37L187 34Q187 28 192 24T207 19V0H10V19Q30 19 34 28L312 704Q315 710 315 715Q315 724 307 727T290 731V750H523V731Q514
731 506 728T498 715Q498 710 501 704L783 28ZM406 594L288 293H524L406 594ZM438 985H554L424 788H344L438 985Z" />
<glyph unicode="&#xc2;" glyph-name="Acircumflex" horiz-adv-x="817" d="M783 28Q786 19 807 19V0H604V19Q617 19 622 25T624 37L569 178H243L188 37L187 34Q187 28 192 24T207 19V0H10V19Q30 19 34 28L312 704Q315 710 315 715Q315 724 307 727T290 731V750H523V731Q514
731 506 728T498 715Q498 710 501 704L783 28ZM406 594L288 293H524L406 594ZM466 958L596 799H494L414 897L334 799H232L362 958H466Z" />
<glyph unicode="&#xc3;" glyph-name="Atilde" horiz-adv-x="817" d="M783 28Q786 19 807 19V0H604V19Q617 19 622 25T624 37L569 178H243L188 37L187 34Q187 28 192 24T207 19V0H10V19Q30 19 34 28L312 704Q315 710 315 715Q315 724 307 727T290 731V750H523V731Q514
731 506 728T498 715Q498 710 501 704L783 28ZM406 594L288 293H524L406 594ZM369 873T343 873Q331 873 313 865T278 841L229 907Q255 932 282 946T334 960Q356 960 372 955T409 936Q455 907 475 907Q497 907 509 917T540 954L599 905Q574 862 549 843T489 823Q468
823 448 831T405 853Q369 873 343 873Z" />
<glyph unicode="&#xc4;" glyph-name="Adieresis" horiz-adv-x="817" d="M783 28Q786 19 807 19V0H604V19Q617 19 622 25T624 37L569 178H243L188 37L187 34Q187 28 192 24T207 19V0H10V19Q30 19 34 28L312 704Q315 710 315 715Q315 724 307 727T290 731V750H523V731Q514
731 506 728T498 715Q498 710 501 704L783 28ZM406 594L288 293H524L406 594ZM272 815T252 835T231 886Q231 915 251 935T302 955Q330 955 350 935T371 886Q371 856 351 836T302 815Q272 815 252 835ZM498 815T478 835T457 886Q457 915 477 935T528 955Q556 955
576 935T597 886Q597 856 577 836T528 815Q498 815 478 835Z" />
<glyph unicode="&#xc5;" glyph-name="Aring" horiz-adv-x="817" d="M783 28Q786 19 807 19V0H604V19Q617 19 622 25T624 37L569 178H243L188 37L187 34Q187 28 192 24T207 19V0H10V19Q30 19 34 28L312 704Q315 710 315 715Q315 724 307 727T290 731V750H523V731Q514
731 506 728T498 715Q498 710 501 704L783 28ZM406 594L288 293H524L406 594ZM369 777T338 808T306 886Q306 930 337 961T415 993Q459 993 490 962T522 886Q522 840 491 809T415 777Q369 777 338 808ZM435 835T449 849T464 886Q464 906 450 920T415 935Q393 935
379 921T364 886Q364 864 378 850T415 835Q435 835 449 849Z" />
<glyph unicode="&#xc6;" glyph-name="AE" horiz-adv-x="1037" d="M1017 140V-20H998Q998 -13 995 -6T987 1H478V20Q485 20 492 23T500 31V178H267L192 35Q191 33 191 30Q191 19 207 19V0H10V19Q32 19 36 26L397 706Q401 713 401 719Q401 731 380 731V750H961Q966
750 969 757T972 770H991V613H972Q972 619 969 626T961 633H629V457H912Q917 457 920 464T923 478H942V318H923Q923 325 920 332T912 339H629V119H987Q992 119 995 126T998 140H1017ZM500 625L327 293H500V625Z" />
<glyph unicode="&#xc7;" glyph-name="Ccedilla" horiz-adv-x="765" d="M611 254L760 129L748 114Q742 119 733 123T721 123Q662 59 598 27T444 -10L429 -45Q472 -49 498 -72T525 -133Q525 -176 489 -202T398 -229Q341 -229 289 -200L313 -149Q353 -166 382 -166Q408
-166 422 -155T436 -125Q436 -108 418 -97T367 -85L395 -9Q293 -3 210 49T78 187T30 380Q30 496 82 585T222 722T415 771Q516 771 585 736T717 636Q719 634 723 634Q729 634 744 643L756 628L618 519L606 534Q612 538 615 544T615 554Q573 595 528 616T417 638Q349
638 292 605T202 512T169 380Q169 310 204 253T297 162T421 129Q483 129 527 150T610 215L612 219Q612 224 608 230T598 240L611 254Z" />
<glyph unicode="&#xc8;" glyph-name="Egrave" horiz-adv-x="609" d="M589 140V-20H570Q570 -13 567 -6T559 1H50V20Q57 20 64 23T72 31V721Q72 726 65 729T50 732V751H533Q538 751 541 758T544 772H563V612H544Q544 619 541 626T533 633H201V457H484Q489 457 492
464T495 478H514V318H495Q495 325 492 332T484 339H201V119H559Q564 119 567 126T570 140H589ZM295 788L165 985H281L375 788H295Z" />
<glyph unicode="&#xc9;" glyph-name="Eacute" horiz-adv-x="609" d="M589 140V-20H570Q570 -13 567 -6T559 1H50V20Q57 20 64 23T72 31V721Q72 726 65 729T50 732V751H533Q538 751 541 758T544 772H563V612H544Q544 619 541 626T533 633H201V457H484Q489 457 492
464T495 478H514V318H495Q495 325 492 332T484 339H201V119H559Q564 119 567 126T570 140H589ZM329 985H445L315 788H235L329 985Z" />
<glyph unicode="&#xca;" glyph-name="Ecircumflex" horiz-adv-x="609" d="M589 140V-20H570Q570 -13 567 -6T559 1H50V20Q57 20 64 23T72 31V721Q72 726 65 729T50 732V751H533Q538 751 541 758T544 772H563V612H544Q544 619 541 626T533 633H201V457H484Q489
457 492 464T495 478H514V318H495Q495 325 492 332T484 339H201V119H559Q564 119 567 126T570 140H589ZM357 958L487 799H385L305 897L225 799H123L253 958H357Z" />
<glyph unicode="&#xcb;" glyph-name="Edieresis" horiz-adv-x="609" d="M589 140V-20H570Q570 -13 567 -6T559 1H50V20Q57 20 64 23T72 31V721Q72 726 65 729T50 732V751H533Q538 751 541 758T544 772H563V612H544Q544 619 541 626T533 633H201V457H484Q489 457
492 464T495 478H514V318H495Q495 325 492 332T484 339H201V119H559Q564 119 567 126T570 140H589ZM163 815T143 835T122 886Q122 915 142 935T193 955Q221 955 241 935T262 886Q262 856 242 836T193 815Q163 815 143 835ZM389 815T369 835T348 886Q348 915 368
935T419 955Q447 955 467 935T488 886Q488 856 468 836T419 815Q389 815 369 835Z" />
<glyph unicode="&#xcc;" glyph-name="Igrave" horiz-adv-x="284" d="M74 725T66 728T50 731V750H234V731Q226 731 218 728T210 720V30Q210 25 218 22T234 19V0H50V19Q58 19 66 22T74 30V720Q74 725 66 728ZM117 788L-13 985H103L197 788H117Z" />
<glyph unicode="&#xcd;" glyph-name="Iacute" horiz-adv-x="284" d="M74 725T66 728T50 731V750H234V731Q226 731 218 728T210 720V30Q210 25 218 22T234 19V0H50V19Q58 19 66 22T74 30V720Q74 725 66 728ZM151 985H267L137 788H57L151 985Z" />
<glyph unicode="&#xce;" glyph-name="Icircumflex" horiz-adv-x="284" d="M74 725T66 728T50 731V750H234V731Q226 731 218 728T210 720V30Q210 25 218 22T234 19V0H50V19Q58 19 66 22T74 30V720Q74 725 66 728ZM179 958L309 799H207L127 897L47 799H-55L75 958H179Z" />
<glyph unicode="&#xcf;" glyph-name="Idieresis" horiz-adv-x="284" d="M74 725T66 728T50 731V750H234V731Q226 731 218 728T210 720V30Q210 25 218 22T234 19V0H50V19Q58 19 66 22T74 30V720Q74 725 66 728ZM-15 815T-35 835T-56 886Q-56 915 -36 935T15 955Q43
955 63 935T84 886Q84 856 64 836T15 815Q-15 815 -35 835ZM211 815T191 835T170 886Q170 915 190 935T241 955Q269 955 289 935T310 886Q310 856 290 836T241 815Q211 815 191 835Z" />
<glyph unicode="&#xd0;" glyph-name="Eth" horiz-adv-x="747" d="M460 750T543 705T671 573T717 369Q717 256 669 173T534 45T336 0H66V19Q73 19 80 22T88 30V327H20V438H88V720Q88 725 81 728T66 731V750H348Q460 750 543 705ZM317 118Q404 118 465 149T558 238T590
371Q590 490 526 561T329 632H219V438H353V327H219V118H317Z" />
<glyph unicode="&#xd1;" glyph-name="Ntilde" horiz-adv-x="776" d="M726 731Q719 731 711 728T703 720V30Q703 25 710 22T725 19V0H549V19Q573 19 564 32L209 522V30Q209 25 217 22T233 19V0H50V19Q58 19 66 22T74 30V720Q74 725 67 728T52 731V750H233V731Q209
731 218 718L583 212L570 720Q570 725 562 728T546 731V750H726V731ZM328 873T302 873Q290 873 272 865T237 841L188 907Q214 932 241 946T293 960Q315 960 331 955T368 936Q414 907 434 907Q456 907 468 917T499 954L558 905Q533 862 508 843T448 823Q427 823
407 831T364 853Q328 873 302 873Z" />
<glyph unicode="&#xd2;" glyph-name="Ograve" horiz-adv-x="855" d="M314 -16T223 37T81 179T30 367Q30 467 78 559T217 710T430 768Q549 768 639 713T777 567T825 367Q825 271 778 183T640 39T430 -16Q314 -16 223 37ZM506 116T565 147T658 236T692 367Q692 444
660 505T568 601T426 637Q351 637 293 602T201 504T168 367Q168 289 206 232T305 146T431 116Q506 116 565 147ZM413 788L283 985H399L493 788H413Z" />
<glyph unicode="&#xd3;" glyph-name="Oacute" horiz-adv-x="855" d="M314 -16T223 37T81 179T30 367Q30 467 78 559T217 710T430 768Q549 768 639 713T777 567T825 367Q825 271 778 183T640 39T430 -16Q314 -16 223 37ZM506 116T565 147T658 236T692 367Q692 444
660 505T568 601T426 637Q351 637 293 602T201 504T168 367Q168 289 206 232T305 146T431 116Q506 116 565 147ZM447 985H563L433 788H353L447 985Z" />
<glyph unicode="&#xd4;" glyph-name="Ocircumflex" horiz-adv-x="855" d="M314 -16T223 37T81 179T30 367Q30 467 78 559T217 710T430 768Q549 768 639 713T777 567T825 367Q825 271 778 183T640 39T430 -16Q314 -16 223 37ZM506 116T565 147T658 236T692 367Q692
444 660 505T568 601T426 637Q351 637 293 602T201 504T168 367Q168 289 206 232T305 146T431 116Q506 116 565 147ZM475 958L605 799H503L423 897L343 799H241L371 958H475Z" />
<glyph unicode="&#xd5;" glyph-name="Otilde" horiz-adv-x="855" d="M314 -16T223 37T81 179T30 367Q30 467 78 559T217 710T430 768Q549 768 639 713T777 567T825 367Q825 271 778 183T640 39T430 -16Q314 -16 223 37ZM506 116T565 147T658 236T692 367Q692 444
660 505T568 601T426 637Q351 637 293 602T201 504T168 367Q168 289 206 232T305 146T431 116Q506 116 565 147ZM378 873T352 873Q340 873 322 865T287 841L238 907Q264 932 291 946T343 960Q365 960 381 955T418 936Q464 907 484 907Q506 907 518 917T549 954L608
905Q583 862 558 843T498 823Q477 823 457 831T414 853Q378 873 352 873Z" />
<glyph unicode="&#xd6;" glyph-name="Odieresis" horiz-adv-x="855" d="M314 -16T223 37T81 179T30 367Q30 467 78 559T217 710T430 768Q549 768 639 713T777 567T825 367Q825 271 778 183T640 39T430 -16Q314 -16 223 37ZM506 116T565 147T658 236T692 367Q692
444 660 505T568 601T426 637Q351 637 293 602T201 504T168 367Q168 289 206 232T305 146T431 116Q506 116 565 147ZM281 815T261 835T240 886Q240 915 260 935T311 955Q339 955 359 935T380 886Q380 856 360 836T311 815Q281 815 261 835ZM507 815T487 835T466
886Q466 915 486 935T537 955Q565 955 585 935T606 886Q606 856 586 836T537 815Q507 815 487 835Z" />
<glyph unicode="&#xd7;" glyph-name="multiply" horiz-adv-x="600" d="M497 235Q499 233 502 233Q506 233 511 236T519 242L532 228L422 118L408 131Q413 136 415 143T415 153L300 268L185 153Q183 151 183 148Q183 144 186 139T192 131L178 118L68 228L81 242Q86
237 93 235T103 235L218 350L103 465Q101 467 98 467Q94 467 89 464T81 458L68 472L178 582L192 569Q187 564 185 557T185 547L300 432L415 547Q417 549 417 552Q417 556 414 561T408 569L422 582L532 472L519 458Q514 463 507 465T497 465L382 350L497 235Z" />
<glyph unicode="&#xd8;" glyph-name="Oslash" horiz-adv-x="843" d="M833 731L730 628Q773 575 796 508T819 367Q819 271 772 183T634 39T424 -16Q350 -16 286 6T171 69L67 -35L10 21L113 124Q70 175 47 238T24 367Q24 467 72 559T211 710T424 768Q570 768 674
685L776 787L833 731ZM162 283T209 220L580 591Q512 637 420 637Q345 637 287 602T195 504T162 367Q162 283 209 220ZM686 466T636 534L267 165Q301 141 342 129T425 116Q500 116 559 147T652 236T686 367Q686 466 636 534Z" />
<glyph unicode="&#xd9;" glyph-name="Ugrave" horiz-adv-x="767" d="M299 -11T227 27T115 137T75 308V720Q75 725 67 728T50 731V750H243V731Q235 731 227 728T218 720V338Q218 230 261 172T391 114Q485 114 516 174T548 330V720Q548 725 540 728T523 731V750H717V731Q709
731 701 728T692 720V326Q692 167 620 78T391 -11Q299 -11 227 27ZM359 788L229 985H345L439 788H359Z" />
<glyph unicode="&#xda;" glyph-name="Uacute" horiz-adv-x="767" d="M299 -11T227 27T115 137T75 308V720Q75 725 67 728T50 731V750H243V731Q235 731 227 728T218 720V338Q218 230 261 172T391 114Q485 114 516 174T548 330V720Q548 725 540 728T523 731V750H717V731Q709
731 701 728T692 720V326Q692 167 620 78T391 -11Q299 -11 227 27ZM393 985H509L379 788H299L393 985Z" />
<glyph unicode="&#xdb;" glyph-name="Ucircumflex" horiz-adv-x="767" d="M299 -11T227 27T115 137T75 308V720Q75 725 67 728T50 731V750H243V731Q235 731 227 728T218 720V338Q218 230 261 172T391 114Q485 114 516 174T548 330V720Q548 725 540 728T523 731V750H717V731Q709
731 701 728T692 720V326Q692 167 620 78T391 -11Q299 -11 227 27ZM421 958L551 799H449L369 897L289 799H187L317 958H421Z" />
<glyph unicode="&#xdc;" glyph-name="Udieresis" horiz-adv-x="767" d="M299 -11T227 27T115 137T75 308V720Q75 725 67 728T50 731V750H243V731Q235 731 227 728T218 720V338Q218 230 261 172T391 114Q485 114 516 174T548 330V720Q548 725 540 728T523 731V750H717V731Q709
731 701 728T692 720V326Q692 167 620 78T391 -11Q299 -11 227 27ZM227 815T207 835T186 886Q186 915 206 935T257 955Q285 955 305 935T326 886Q326 856 306 836T257 815Q227 815 207 835ZM453 815T433 835T412 886Q412 915 432 935T483 955Q511 955 531 935T552
886Q552 856 532 836T483 815Q453 815 433 835Z" />
<glyph unicode="&#xdd;" glyph-name="Yacute" horiz-adv-x="766" d="M756 731H750Q731 731 727 725L458 339V30Q458 25 466 22T483 19V0H287V19Q295 19 303 22T312 30V333L39 725Q36 729 27 730T10 731V750H216V731Q204 731 204 726Q204 722 207 717L381 472L553
717L555 721Q555 726 550 728T534 731V750H756V731ZM422 985H538L408 788H328L422 985Z" />
<glyph unicode="&#xde;" glyph-name="Thorn" horiz-adv-x="669" d="M369 600Q448 600 507 571T597 491T629 373Q629 300 594 250T502 174T380 148H206V30Q206 25 214 22T229 19V0H50V19Q57 19 65 22T73 30V720Q73 725 65 728T50 731V750H229V731Q222 731 214 728T206
720V600H369ZM388 275Q423 275 450 290T491 330T505 380Q505 419 472 449T389 479H206V275H388Z" />
<glyph unicode="&#xdf;" glyph-name="germandbls" horiz-adv-x="657" d="M197 30Q197 25 204 22T219 19V0H50V19Q57 19 64 22T72 30V494Q72 574 102 634T188 726T319 759Q386 759 437 732T517 657T546 550Q546 515 530 481T489 421Q549 399 583 343T617 209Q617
105 559 47T398 -11Q338 -11 270 10H268Q263 10 259 5T253 -5L235 1L289 147L307 140Q305 134 305 126Q305 118 309 115Q351 98 386 98Q436 98 464 128T493 212Q493 271 455 303T350 336H289Q284 336 281 330T278 318H259V459H278Q278 453 281 447T289 441H304Q362
441 392 473T423 548Q423 586 394 616T310 646Q261 646 229 609T197 512V30Z" />
<glyph unicode="&#xe0;" glyph-name="agrave" horiz-adv-x="633" d="M587 441Q580 441 573 438T565 430V30Q565 25 572 22T587 19V0H439V55Q376 -13 280 -13Q207 -13 152 16T66 101T35 229Q35 300 68 355T158 441T280 472Q376 472 439 398V460H587V441ZM336 93T368
111T419 160T437 226Q437 286 398 325T295 364Q234 364 195 326T155 229Q155 167 195 130T295 93Q336 93 368 111ZM291 508L161 705H277L371 508H291Z" />
<glyph unicode="&#xe1;" glyph-name="aacute" horiz-adv-x="633" d="M587 441Q580 441 573 438T565 430V30Q565 25 572 22T587 19V0H439V55Q376 -13 280 -13Q207 -13 152 16T66 101T35 229Q35 300 68 355T158 441T280 472Q376 472 439 398V460H587V441ZM336 93T368
111T419 160T437 226Q437 286 398 325T295 364Q234 364 195 326T155 229Q155 167 195 130T295 93Q336 93 368 111ZM325 705H441L311 508H231L325 705Z" />
<glyph unicode="&#xe2;" glyph-name="acircumflex" horiz-adv-x="633" d="M587 441Q580 441 573 438T565 430V30Q565 25 572 22T587 19V0H439V55Q376 -13 280 -13Q207 -13 152 16T66 101T35 229Q35 300 68 355T158 441T280 472Q376 472 439 398V460H587V441ZM336
93T368 111T419 160T437 226Q437 286 398 325T295 364Q234 364 195 326T155 229Q155 167 195 130T295 93Q336 93 368 111ZM353 678L483 519H381L301 617L221 519H119L249 678H353Z" />
<glyph unicode="&#xe3;" glyph-name="atilde" horiz-adv-x="633" d="M587 441Q580 441 573 438T565 430V30Q565 25 572 22T587 19V0H439V55Q376 -13 280 -13Q207 -13 152 16T66 101T35 229Q35 300 68 355T158 441T280 472Q376 472 439 398V460H587V441ZM336 93T368
111T419 160T437 226Q437 286 398 325T295 364Q234 364 195 326T155 229Q155 167 195 130T295 93Q336 93 368 111ZM256 593T230 593Q218 593 200 585T165 561L116 627Q142 652 169 666T221 680Q243 680 259 675T296 656Q342 627 362 627Q384 627 396 637T427 674L486
625Q461 582 436 563T376 543Q355 543 335 551T292 573Q256 593 230 593Z" />
<glyph unicode="&#xe4;" glyph-name="adieresis" horiz-adv-x="633" d="M587 441Q580 441 573 438T565 430V30Q565 25 572 22T587 19V0H439V55Q376 -13 280 -13Q207 -13 152 16T66 101T35 229Q35 300 68 355T158 441T280 472Q376 472 439 398V460H587V441ZM336
93T368 111T419 160T437 226Q437 286 398 325T295 364Q234 364 195 326T155 229Q155 167 195 130T295 93Q336 93 368 111ZM159 535T139 555T118 606Q118 635 138 655T189 675Q217 675 237 655T258 606Q258 576 238 556T189 535Q159 535 139 555ZM385 535T365 555T344
606Q344 635 364 655T415 675Q443 675 463 655T484 606Q484 576 464 556T415 535Q385 535 365 555Z" />
<glyph unicode="&#xe5;" glyph-name="aring" horiz-adv-x="633" d="M587 441Q580 441 573 438T565 430V30Q565 25 572 22T587 19V0H439V55Q376 -13 280 -13Q207 -13 152 16T66 101T35 229Q35 300 68 355T158 441T280 472Q376 472 439 398V460H587V441ZM336 93T368
111T419 160T437 226Q437 286 398 325T295 364Q234 364 195 326T155 229Q155 167 195 130T295 93Q336 93 368 111ZM256 497T225 528T193 606Q193 650 224 681T302 713Q346 713 377 682T409 606Q409 560 378 529T302 497Q256 497 225 528ZM322 555T336 569T351 606Q351
626 337 640T302 655Q280 655 266 641T251 606Q251 584 265 570T302 555Q322 555 336 569Z" />
<glyph unicode="&#xe6;" glyph-name="ae" horiz-adv-x="912" d="M717 481T771 448T854 359T882 233Q882 212 879 189H513Q517 141 555 114T646 87Q682 87 706 97T750 127Q752 131 752 132Q752 136 749 140T743 147L755 162L866 75L855 60Q840 69 834 62Q764 -22
646 -22Q587 -22 538 -1T454 57Q421 24 367 6T236 -13Q140 -13 88 29T35 139Q35 215 89 254T225 299Q277 302 310 302Q350 302 386 299Q376 339 347 359T280 379Q243 379 205 370T141 336Q140 335 140 331Q140 327 143 321T149 312L134 299L39 407L53 420Q57 415
64 412T76 412Q135 455 182 466T271 478Q323 478 372 459T456 402Q491 440 538 460T640 481Q717 481 771 448ZM762 282Q758 324 723 352T641 380Q593 380 558 352T515 282H762ZM319 80T355 105T391 167V194H339Q262 194 227 191Q201 189 186 174T171 139Q171 112
191 96T246 80Q319 80 355 105Z" />
<glyph unicode="&#xe7;" glyph-name="ccedilla" horiz-adv-x="513" d="M386 161L494 71L482 57Q466 66 460 60Q427 23 391 3T300 -20L289 -45Q332 -49 358 -72T385 -133Q385 -176 349 -202T258 -229Q201 -229 149 -200L173 -149Q213 -166 242 -166Q268 -166 282
-155T296 -125Q296 -108 278 -97T227 -85L251 -20Q192 -14 143 19T64 104T35 218Q35 295 67 353T155 443T276 475Q323 475 356 464T410 438T462 394Q464 392 467 392Q471 392 476 395T485 401L498 387L390 287L377 301Q382 305 385 312T386 324Q350 368 287 368Q230
368 192 330T153 231Q153 168 190 130T287 92Q317 92 336 99T379 128Q381 130 381 133Q381 139 374 146L386 161Z" />
<glyph unicode="&#xe8;" glyph-name="egrave" horiz-adv-x="556" d="M356 481T412 448T497 357T526 231Q526 210 523 189H157Q161 141 199 114T290 87Q326 87 350 97T394 127Q396 131 396 132Q396 136 393 140T387 147L399 162L510 75L499 60Q484 69 478 62Q408
-22 290 -22Q214 -22 156 11T67 101T35 227Q35 300 66 358T152 448T279 481Q356 481 412 448ZM406 282Q402 323 365 351T280 380Q233 380 199 352T158 282H406ZM273 508L143 705H259L353 508H273Z" />
<glyph unicode="&#xe9;" glyph-name="eacute" horiz-adv-x="556" d="M356 481T412 448T497 357T526 231Q526 210 523 189H157Q161 141 199 114T290 87Q326 87 350 97T394 127Q396 131 396 132Q396 136 393 140T387 147L399 162L510 75L499 60Q484 69 478 62Q408
-22 290 -22Q214 -22 156 11T67 101T35 227Q35 300 66 358T152 448T279 481Q356 481 412 448ZM406 282Q402 323 365 351T280 380Q233 380 199 352T158 282H406ZM302 705H418L288 508H208L302 705Z" />
<glyph unicode="&#xea;" glyph-name="ecircumflex" horiz-adv-x="556" d="M356 481T412 448T497 357T526 231Q526 210 523 189H157Q161 141 199 114T290 87Q326 87 350 97T394 127Q396 131 396 132Q396 136 393 140T387 147L399 162L510 75L499 60Q484 69 478
62Q408 -22 290 -22Q214 -22 156 11T67 101T35 227Q35 300 66 358T152 448T279 481Q356 481 412 448ZM406 282Q402 323 365 351T280 380Q233 380 199 352T158 282H406ZM330 678L460 519H358L278 617L198 519H96L226 678H330Z" />
<glyph unicode="&#xeb;" glyph-name="edieresis" horiz-adv-x="556" d="M356 481T412 448T497 357T526 231Q526 210 523 189H157Q161 141 199 114T290 87Q326 87 350 97T394 127Q396 131 396 132Q396 136 393 140T387 147L399 162L510 75L499 60Q484 69 478 62Q408
-22 290 -22Q214 -22 156 11T67 101T35 227Q35 300 66 358T152 448T279 481Q356 481 412 448ZM406 282Q402 323 365 351T280 380Q233 380 199 352T158 282H406ZM136 535T116 555T95 606Q95 635 115 655T166 675Q194 675 214 655T235 606Q235 576 215 556T166 535Q136
535 116 555ZM362 535T342 555T321 606Q321 635 341 655T392 675Q420 675 440 655T461 606Q461 576 441 556T392 535Q362 535 342 555Z" />
<glyph unicode="&#xec;" glyph-name="igrave" horiz-adv-x="252" d="M135 508L5 705H121L215 508H135ZM62 435T55 438T40 441V460H212V441Q205 441 198 438T190 430V30Q190 25 197 22T212 19V0H40V19Q47 19 54 22T62 30V430Q62 435 55 438Z" />
<glyph unicode="&#xed;" glyph-name="iacute" horiz-adv-x="252" d="M131 705H247L117 508H37L131 705ZM62 435T55 438T40 441V460H212V441Q205 441 198 438T190 430V30Q190 25 197 22T212 19V0H40V19Q47 19 54 22T62 30V430Q62 435 55 438Z" />
<glyph unicode="&#xee;" glyph-name="icircumflex" horiz-adv-x="252" d="M206 519L126 617L46 519H-56L74 678H178L308 519H206ZM40 460H212V441Q205 441 198 438T190 430V30Q190 25 197 22T212 19V0H40V19Q47 19 54 22T62 30V430Q62 435 55 438T40 441V460Z" />
<glyph unicode="&#xef;" glyph-name="idieresis" horiz-adv-x="252" d="M-16 535T-36 555T-57 606Q-57 635 -37 655T14 675Q43 675 63 655T83 606Q83 576 63 556T14 535Q-16 535 -36 555ZM210 535T190 555T169 606Q169 635 189 655T240 675Q269 675 289 655T309
606Q309 576 289 556T240 535Q210 535 190 555ZM63 435T56 438T41 441V460H213V441Q206 441 199 438T191 430V30Q191 25 198 22T213 19V0H41V19Q48 19 55 22T63 30V430Q63 435 56 438Z" />
<glyph unicode="&#xf0;" glyph-name="eth" horiz-adv-x="600" d="M545 228Q545 160 512 105T419 18T281 -14Q207 -14 149 16T58 101T25 228Q25 300 59 356T150 442T274 473Q314 473 352 461Q321 512 274 560L123 493L100 544L230 601Q196 631 170 650Q169 651
166 651Q161 651 155 647T144 639L131 653L248 771L262 758Q257 753 255 747T256 737Q311 689 346 652L473 708L496 658L385 609Q542 424 545 233V228ZM322 98T353 115T403 161T421 224Q421 285 385 324T287 364Q225 364 185 327T145 229Q145 169 184 134T283 98Q322
98 353 115Z" />
<glyph unicode="&#xf1;" glyph-name="ntilde" horiz-adv-x="611" d="M542 30Q542 25 549 22T565 19V0H389V19Q397 19 404 22T412 30V238Q412 289 387 325T312 362Q261 362 230 328T198 230V30Q198 25 205 22T221 19V0H46V19Q54 19 61 22T69 30V430Q69 435 62 438T47
441V460H198V419Q224 443 259 456T332 470Q396 470 443 443T516 371T542 269V30ZM249 593T223 593Q211 593 193 585T158 561L109 627Q135 652 162 666T214 680Q236 680 252 675T289 656Q335 627 355 627Q377 627 389 637T420 674L479 625Q454 582 429 563T369 543Q348
543 328 551T285 573Q249 593 223 593Z" />
<glyph unicode="&#xf2;" glyph-name="ograve" horiz-adv-x="570" d="M211 -12T155 19T67 106T35 230Q35 298 66 354T155 442T285 475Q355 475 412 444T502 357T535 230Q535 168 506 113T419 23T285 -12Q211 -12 155 19ZM344 103T380 137T417 227Q417 284 381 321T285
358Q230 358 193 322T156 230Q156 172 193 138T285 103Q344 103 380 137ZM265 508L135 705H251L345 508H265Z" />
<glyph unicode="&#xf3;" glyph-name="oacute" horiz-adv-x="570" d="M211 -12T155 19T67 106T35 230Q35 298 66 354T155 442T285 475Q355 475 412 444T502 357T535 230Q535 168 506 113T419 23T285 -12Q211 -12 155 19ZM344 103T380 137T417 227Q417 284 381 321T285
358Q230 358 193 322T156 230Q156 172 193 138T285 103Q344 103 380 137ZM299 705H415L285 508H205L299 705Z" />
<glyph unicode="&#xf4;" glyph-name="ocircumflex" horiz-adv-x="570" d="M211 -12T155 19T67 106T35 230Q35 298 66 354T155 442T285 475Q355 475 412 444T502 357T535 230Q535 168 506 113T419 23T285 -12Q211 -12 155 19ZM344 103T380 137T417 227Q417 284
381 321T285 358Q230 358 193 322T156 230Q156 172 193 138T285 103Q344 103 380 137ZM327 678L457 519H355L275 617L195 519H93L223 678H327Z" />
<glyph unicode="&#xf5;" glyph-name="otilde" horiz-adv-x="570" d="M211 -12T155 19T67 106T35 230Q35 298 66 354T155 442T285 475Q355 475 412 444T502 357T535 230Q535 168 506 113T419 23T285 -12Q211 -12 155 19ZM344 103T380 137T417 227Q417 284 381 321T285
358Q230 358 193 322T156 230Q156 172 193 138T285 103Q344 103 380 137ZM230 593T204 593Q192 593 174 585T139 561L90 627Q116 652 143 666T195 680Q217 680 233 675T270 656Q316 627 336 627Q358 627 370 637T401 674L460 625Q435 582 410 563T350 543Q329 543
309 551T266 573Q230 593 204 593Z" />
<glyph unicode="&#xf6;" glyph-name="odieresis" horiz-adv-x="570" d="M211 -12T155 19T67 106T35 230Q35 298 66 354T155 442T285 475Q355 475 412 444T502 357T535 230Q535 168 506 113T419 23T285 -12Q211 -12 155 19ZM344 103T380 137T417 227Q417 284 381
321T285 358Q230 358 193 322T156 230Q156 172 193 138T285 103Q344 103 380 137ZM133 535T113 555T92 606Q92 635 112 655T163 675Q191 675 211 655T232 606Q232 576 212 556T163 535Q133 535 113 555ZM359 535T339 555T318 606Q318 635 338 655T389 675Q417 675
437 655T458 606Q458 576 438 556T389 535Q359 535 339 555Z" />
<glyph unicode="&#xf7;" glyph-name="divide" horiz-adv-x="600" d="M264 458T240 482T215 544Q215 579 240 603T301 628Q336 628 360 604T385 544Q385 507 361 483T301 458Q264 458 240 482ZM75 294T72 288T69 274H50V426H69Q69 419 72 413T80 406H520Q525 406
528 412T531 426H550V274H531Q531 281 528 287T520 294H80Q75 294 72 288ZM264 72T240 96T215 158Q215 193 240 217T301 242Q336 242 360 218T385 158Q385 121 361 97T301 72Q264 72 240 96Z" />
<glyph unicode="&#xf8;" glyph-name="oslash" horiz-adv-x="570" d="M479 390Q535 323 535 230Q535 168 506 113T419 23T285 -12Q191 -12 127 38L79 -10L43 26L90 73Q64 104 50 144T35 230Q35 298 66 354T155 442T285 475Q375 475 442 425L490 473L526 437L479
390ZM156 188T176 159L356 339Q324 358 285 358Q230 358 193 322T156 230Q156 188 176 159ZM344 103T380 137T417 227Q417 271 394 305L212 123Q244 103 285 103Q344 103 380 137Z" />
<glyph unicode="&#xf9;" glyph-name="ugrave" horiz-adv-x="564" d="M496 30Q496 25 503 22T518 19V0H394V37Q341 -9 271 -9Q166 -9 117 51T68 203V430Q68 435 61 438T46 441V460H216V441Q209 441 202 438T194 430V211Q194 168 216 139T284 109Q328 109 350 136T372
205V430Q372 435 365 438T350 441V460H518V441Q511 441 504 438T496 430V30ZM271 508L141 705H257L351 508H271Z" />
<glyph unicode="&#xfa;" glyph-name="uacute" horiz-adv-x="564" d="M496 30Q496 25 503 22T518 19V0H394V37Q341 -9 271 -9Q166 -9 117 51T68 203V430Q68 435 61 438T46 441V460H216V441Q209 441 202 438T194 430V211Q194 168 216 139T284 109Q328 109 350 136T372
205V430Q372 435 365 438T350 441V460H518V441Q511 441 504 438T496 430V30ZM305 705H421L291 508H211L305 705Z" />
<glyph unicode="&#xfb;" glyph-name="ucircumflex" horiz-adv-x="564" d="M496 30Q496 25 503 22T518 19V0H394V37Q341 -9 271 -9Q166 -9 117 51T68 203V430Q68 435 61 438T46 441V460H216V441Q209 441 202 438T194 430V211Q194 168 216 139T284 109Q328 109 350
136T372 205V430Q372 435 365 438T350 441V460H518V441Q511 441 504 438T496 430V30ZM333 678L463 519H361L281 617L201 519H99L229 678H333Z" />
<glyph unicode="&#xfc;" glyph-name="udieresis" horiz-adv-x="564" d="M496 30Q496 25 503 22T518 19V0H394V37Q341 -9 271 -9Q166 -9 117 51T68 203V430Q68 435 61 438T46 441V460H216V441Q209 441 202 438T194 430V211Q194 168 216 139T284 109Q328 109 350
136T372 205V430Q372 435 365 438T350 441V460H518V441Q511 441 504 438T496 430V30ZM139 535T119 555T98 606Q98 635 118 655T169 675Q197 675 217 655T238 606Q238 576 218 556T169 535Q139 535 119 555ZM365 535T345 555T324 606Q324 635 344 655T395 675Q423
675 443 655T464 606Q464 576 444 556T395 535Q365 535 345 555Z" />
<glyph unicode="&#xfd;" glyph-name="yacute" horiz-adv-x="602" d="M592 441Q571 441 566 433L216 -256Q215 -257 215 -259Q215 -265 222 -269T240 -273V-292H52V-273Q73 -273 78 -265L241 56L36 434Q32 441 10 441V460H195V441Q183 441 181 436T182 425L309
190L428 424Q429 425 429 427Q429 433 422 437T404 441V460H592V441ZM335 705H451L321 508H241L335 705Z" />
<glyph unicode="&#xfe;" glyph-name="thorn" horiz-adv-x="600" d="M400 472T456 442T543 356T575 228Q575 155 544 100T456 15T326 -15Q243 -15 177 41V-261Q177 -266 184 -269T199 -272V-291H30V-272Q37 -272 44 -269T52 -261V720Q52 725 45 728T30 731V750H199V731Q192
731 185 728T177 720V418Q245 472 329 472Q400 472 456 442ZM375 92T415 128T455 226Q455 286 416 324T316 363Q253 363 214 325T174 225Q174 191 192 160T243 111T316 92Q375 92 415 128Z" />
<glyph unicode="&#xff;" glyph-name="ydieresis" horiz-adv-x="602" d="M592 441Q571 441 566 433L216 -256Q215 -257 215 -259Q215 -265 222 -269T240 -273V-292H52V-273Q73 -273 78 -265L241 56L36 434Q32 441 10 441V460H195V441Q183 441 181 436T182 425L309
190L428 424Q429 425 429 427Q429 433 422 437T404 441V460H592V441ZM169 535T149 555T128 606Q128 635 148 655T199 675Q227 675 247 655T268 606Q268 576 248 556T199 535Q169 535 149 555ZM395 535T375 555T354 606Q354 635 374 655T425 675Q453 675 473 655T494
606Q494 576 474 556T425 535Q395 535 375 555Z" />
<glyph unicode="&#x2013;" glyph-name="endash" horiz-adv-x="600" d="M50 262V333H550V262H50Z" />
<glyph unicode="&#x2014;" glyph-name="emdash" horiz-adv-x="1100" d="M50 262V333H1050V262H50Z" />
<glyph unicode="&#x2018;" glyph-name="quoteleft" horiz-adv-x="283" d="M233 518T207 494T144 469Q101 469 76 497T50 582Q50 669 101 705T228 741V715Q185 708 154 688T122 637Q131 639 147 639Q184 639 208 615T233 553Q233 518 207 494Z" />
<glyph unicode="&#x2019;" glyph-name="quoteright" horiz-adv-x="283" d="M50 692T76 716T139 741Q182 741 207 713T233 628Q233 541 182 505T55 469V495Q98 502 129 522T161 573Q152 571 136 571Q99 571 75 595T50 657Q50 692 76 716Z" />
<glyph unicode="&#x201a;" glyph-name="quotesinglbase" horiz-adv-x="333" d="M50 110T76 134T139 159Q182 159 207 131T233 46Q233 -41 182 -77T55 -113V-87Q98 -80 129 -60T161 -9Q152 -11 136 -11Q99 -11 75 13T50 75Q50 110 76 134Z" />
<glyph unicode="&#x201c;" glyph-name="quotedblleft" horiz-adv-x="496" d="M184 639T208 615T233 553Q233 518 207 494T144 469Q101 469 76 497T50 582Q50 669 101 705T228 741V715Q185 708 154 688T122 637Q131 639 147 639Q184 639 208 615ZM397 639T421 615T446
553Q446 518 420 494T357 469Q314 469 289 497T263 582Q263 669 314 705T441 741V715Q398 708 367 688T335 637Q344 639 360 639Q397 639 421 615Z" />
<glyph unicode="&#x201d;" glyph-name="quotedblright" horiz-adv-x="496" d="M182 741T207 713T233 628Q233 541 182 505T55 469V495Q98 502 129 522T161 573Q152 571 136 571Q99 571 75 595T50 657Q50 692 76 716T139 741Q182 741 207 713ZM395 741T420 713T446
628Q446 541 395 505T268 469V495Q311 502 342 522T374 573Q365 571 349 571Q312 571 288 595T263 657Q263 692 289 716T352 741Q395 741 420 713Z" />
<glyph unicode="&#x201e;" glyph-name="quotedblbase" horiz-adv-x="333" d="M182 159T207 131T233 46Q233 -41 182 -77T55 -113V-87Q98 -80 129 -60T161 -9Q152 -11 136 -11Q99 -11 75 13T50 75Q50 110 76 134T139 159Q182 159 207 131Z" />
<glyph unicode="&#x2022;" glyph-name="bullet" horiz-adv-x="367" d="M127 148T89 186T50 282Q50 318 67 348T116 396T185 414Q221 414 251 397T299 349T317 282Q317 225 279 187T185 148Q127 148 89 186Z" />
<glyph unicode="&#x2039;" glyph-name="guilsinglleft" horiz-adv-x="415" d="M245 494H340L170 282L340 70H245L75 282L245 494Z" />
<glyph unicode="&#x203a;" glyph-name="guilsinglright" horiz-adv-x="415" d="M75 494H170L340 282L170 70H75L245 282L75 494Z" />
</font>
</defs>
</svg>
