<?xml version="1.0" standalone="no"?>
<!DOCTYPE svg PUBLIC "-//W3C//DTD SVG 1.1//EN" "http://www.w3.org/Graphics/SVG/1.1/DTD/svg11.dtd">
<svg xmlns="http://www.w3.org/2000/svg">
<defs >
<font id="Texturina" horiz-adv-x="533" ><font-face
    font-family="Texturina Medium 12pt"
    units-per-em="1000"
    panose-1="0 0 0 0 0 0 0 0 0 0"
    ascent="1260"
    descent="-300"
    alphabetic="0" />
<glyph unicode=" " horiz-adv-x="215" />
<glyph unicode="!" horiz-adv-x="236" d="M88 212Q81 294 75 387T66 571T62 742Q77 754 106 762T168 770L146 232Q141 225 126 219T88 212ZM110 -7Q103 -7 92 2T69 25T51 53T43 75Q43 83 53 93T78 114T107 131T129 138Q138 138 148 129T169 105T186 78T193 55Q193
48 185 37T162 17T135 0T110 -7Z" />
<glyph unicode="&quot;" horiz-adv-x="353" d="M101 435Q90 435 80 437T65 441L48 694Q54 697 67 701T90 705Q100 705 111 694T130 670T139 650Q139 636 135 600T123 520T101 435ZM265 435Q254 435 244 437T229 441L212 694Q218 697 231 701T254 705Q264 705 275
694T294 670T303 650Q303 636 299 600T287 520T265 435Z" />
<glyph unicode="#" horiz-adv-x="657" d="M129 -14Q106 -14 91 -9T68 0L130 156H16Q16 178 20 190T28 204H147L219 386H78Q78 408 82 420T90 434H237Q254 478 270 522T296 594Q317 594 332 585T356 566L303 434L459 437Q470 466 485 506T513 589Q538 589 554 581T576
564L526 439Q577 441 603 443T640 446Q640 423 637 408T629 386H505L437 209Q497 211 528 213T568 216Q568 193 565 178T557 156H416L351 -14Q330 -14 314 -9T289 0L351 156H195L129 -14ZM214 204L370 207L440 386H284L214 204Z" />
<glyph unicode="$" horiz-adv-x="558" d="M251 -115V-10Q227 -8 191 0T123 19T73 44Q73 67 76 92T84 141T93 180Q99 182 111 185T138 188L157 81Q175 74 200 67T251 56V256Q227 264 199 272T144 292T99 313T77 334Q76 344 75 355T73 377Q73 408 79 445T97 503Q109
514 134 526T190 550T251 567V657Q260 665 279 672T325 680Q324 667 321 641T315 572Q342 570 372 562T429 543T472 521Q472 503 468 478T459 429T448 393Q432 393 421 396T404 404L383 493Q366 499 348 503T312 508V316Q357 303 395 290T460 264T491 238Q493 225
494 211T495 182Q495 151 491 117T476 57Q467 48 443 34T386 9T312 -8V-105Q306 -108 290 -111T251 -115ZM312 54Q336 56 358 60T394 69Q402 82 405 103T409 147Q409 164 407 180T401 208Q398 211 381 217T345 230T312 239V54ZM251 333V510Q234 509 215 507T175
499Q165 483 161 461T157 414Q157 403 158 390T161 365Q167 361 190 353T251 333Z" />
<glyph unicode="%" horiz-adv-x="989" d="M217 285Q187 285 156 295T101 318T63 341Q53 365 48 403T43 487Q43 521 45 552T51 609T61 647Q69 654 87 664T130 685T182 701T238 708Q259 708 287 700T341 679T376 658Q384 640 388 606T392 528Q392 501 390 467T384
401T374 348Q366 339 350 329T312 308T265 292T217 285ZM228 339Q235 339 249 342T279 351T303 363Q308 382 311 415T314 487Q314 531 311 570T303 623Q295 632 278 639T242 651T211 655Q202 655 187 652T157 643T132 634Q126 620 123 590T119 521Q119 493 120
462T125 407T133 374Q141 366 161 358T201 344T228 339ZM356 -96Q337 -96 321 -90T295 -76L524 513Q547 571 564 618T592 701T609 755Q633 751 650 742T674 723L356 -96ZM771 -5Q741 -5 710 5T655 28T617 51Q607 75 602 113T597 197Q597 231 599 262T605 319T615
357Q623 364 641 374T684 395T736 411T792 418Q813 418 841 410T895 389T930 368Q938 350 942 316T946 238Q946 211 944 177T938 111T928 58Q920 49 904 39T866 18T819 2T771 -5ZM782 49Q789 49 803 52T833 61T857 73Q862 92 865 125T868 197Q868 241 865 280T857
333Q849 342 832 349T796 361T765 365Q756 365 741 362T711 353T686 344Q680 330 677 300T673 231Q673 203 674 172T679 117T687 84Q695 76 715 68T755 54T782 49Z" />
<glyph unicode="&amp;" horiz-adv-x="785" d="M290 0Q258 0 222 17T152 63T89 123T43 181T26 223Q26 241 45 264T95 313T157 362T214 402Q180 458 154 515T113 627Q122 638 147 653T205 684T274 710T342 720Q373 720 411 711T485 688T543 658Q542 611 533 563T516
488Q506 488 497 490T479 494T467 498L450 625Q419 637 392 643T338 650T279 647T205 635Q213 589 239 534T306 420T394 306T492 204Q494 239 492 275T485 343T474 398L482 412H509Q560 412 616 415T714 425L724 415Q723 392 719 377T712 355H562Q563 323 562 287T557
215T545 155Q598 112 646 87T731 62Q741 62 751 62T777 63Q779 61 781 54T784 39Q781 36 763 27T719 9T669 0Q639 0 591 25T488 94Q451 67 410 46T337 12T290 0ZM307 70Q317 70 339 78T389 102T441 135Q389 182 337 240T240 361Q223 346 203 327T165 290T135 258T123
238Q123 231 135 212T168 169T212 123T262 85T307 70Z" />
<glyph unicode="&apos;" horiz-adv-x="189" d="M101 435Q90 435 80 437T65 441L48 694Q54 697 67 701T90 705Q100 705 111 694T130 670T139 650Q139 636 135 600T123 520T101 435Z" />
<glyph unicode="(" horiz-adv-x="320" d="M238 -200Q147 -112 104 7T61 256Q61 352 82 449T145 635T243 800Q260 800 272 792T289 774Q243 703 212 620T166 447T150 267Q150 140 182 27T280 -166Q272 -180 260 -189T238 -200Z" />
<glyph unicode=")" horiz-adv-x="320" d="M77 -200Q60 -200 48 -192T31 -174Q77 -103 108 -20T154 153T170 333Q170 460 138 573T40 766Q48 780 60 789T82 800Q173 712 216 593T259 344Q259 248 238 151T175 -35T77 -200Z" />
<glyph unicode="*" horiz-adv-x="531" d="M212 304Q200 306 185 313T160 330T150 346Q150 352 160 372T191 420T244 479L243 481L56 500Q55 504 55 507T54 515Q54 524 57 537T66 561T84 571Q95 571 117 568T172 555T241 527L242 530L205 703Q214 709 226 711T252
714Q262 714 269 713T279 708Q285 700 288 679T291 633T290 584T285 545H288L447 638Q456 632 463 622T474 600T478 580Q478 578 478 577T477 573Q473 567 452 555T396 531T315 511V508L458 389Q454 380 444 369T423 350T404 343Q393 343 377 358T343 396T312 439T293
469L290 468L212 304Z" />
<glyph unicode="+" horiz-adv-x="516" d="M227 57V477Q230 482 246 486T291 490V67Q285 64 269 61T227 57ZM53 250Q53 272 57 284T66 299Q129 299 199 300T337 305T455 311L465 302Q464 281 460 268T453 250H53Z" />
<glyph unicode="," horiz-adv-x="224" d="M65 -127Q55 -127 46 -122T30 -108T22 -94Q35 -87 52 -69T84 -31T104 4Q91 10 77 23T55 52T46 77Q46 84 54 93T75 112T101 126T121 132Q129 132 138 123T157 102T172 77T178 55Q178 43 170 21T148 -26T118 -75T88 -112T65 -127Z" />
<glyph unicode="-" horiz-adv-x="342" d="M30 270Q30 290 33 302T42 320Q91 320 141 322T234 327T300 333L315 317Q315 303 312 291T304 270H30Z" />
<glyph unicode="." horiz-adv-x="228" d="M106 -7Q99 -7 88 2T65 25T47 53T39 75Q39 83 49 93T74 114T103 131T125 138Q134 138 144 129T165 105T182 78T189 55Q189 48 180 37T158 17T131 0T106 -7Z" />
<glyph unicode="/" horiz-adv-x="463" d="M103 -90Q83 -90 67 -85T42 -76L271 513Q305 599 326 659T356 749Q382 746 398 738T421 723L103 -90Z" />
<glyph unicode="0" horiz-adv-x="579" d="M279 0Q250 0 220 11T165 38T123 69T100 91Q83 120 76 164T69 258Q69 300 73 339T83 411T95 464Q107 476 131 493T185 526T249 552T319 563Q338 563 362 555T412 534T458 507T488 481Q501 451 506 409T511 324Q511 284
507 244T497 168T484 107Q469 88 438 63T366 19T279 0ZM318 73Q342 73 365 82T404 105Q413 130 417 172T422 254Q422 292 420 328T414 393T405 435Q383 461 345 475T268 490Q244 490 218 483T174 466Q168 452 165 427T159 370T157 307Q157 269 159 233T166 171T178
135Q201 107 239 90T318 73Z" />
<glyph unicode="1" horiz-adv-x="393" d="M269 0Q264 0 244 2T196 8T140 15T90 24T57 32Q57 42 60 48T67 57L108 62Q127 64 139 70T158 92T164 143V388Q164 415 167 435T173 463L171 465L44 451Q44 465 47 477T52 494Q101 508 150 526T237 565Q247 564 255 560T268
551Q265 538 262 515T256 462T253 403V120Q253 100 249 84T240 63L340 56Q342 55 344 50T347 33Q340 25 325 18T295 5T269 0Z" />
<glyph unicode="2" horiz-adv-x="560" d="M85 0Q78 0 68 9T48 32T39 55Q64 69 104 101T190 178T274 272T338 372T363 465Q348 474 321 481T255 491T170 494L151 374Q147 371 138 368T117 365Q108 375 99 393T83 436T71 486Q96 511 134 528T214 555T291 565Q305
565 325 559T369 541T413 518T447 493T461 472Q461 432 442 389T392 303T325 223T253 154T189 102L424 80L469 169Q482 169 493 166T508 157Q507 139 505 108T497 49Q486 40 466 29T424 9T387 0Q379 0 356 5T303 17T242 31T184 43T142 49Q136 42 125 31T102 11T85
0Z" />
<glyph unicode="3" horiz-adv-x="476" d="M151 -105Q137 -105 111 -96T62 -73T29 -50Q34 -35 38 -29T47 -20Q76 -24 106 -27T164 -30Q200 -30 233 -25T291 -12Q300 -5 307 16T320 63T326 106Q326 142 299 165T232 202T149 225Q149 231 150 239T155 257T162 271Q168
271 183 271T212 278Q251 299 276 330T313 397T326 466Q313 475 284 481T214 491T127 494L103 392Q100 389 91 386T70 383Q60 397 47 424T27 486Q51 511 88 528T167 555T245 565Q257 565 278 559T323 541T369 518T404 493T418 472Q418 429 397 384T343 302T274
250V246Q313 235 346 219T400 178T421 118Q421 100 414 75T395 23T372 -23T349 -51Q334 -63 301 -75T229 -96T151 -105Z" />
<glyph unicode="4" horiz-adv-x="551" d="M326 -106Q324 -106 318 -103T304 -95Q310 -79 315 -50T321 9V58H75Q62 66 47 84T27 129L302 546Q311 549 326 553T358 560T391 566L412 551Q411 542 410 525T407 486T405 439T404 388V124L505 129L515 113Q514 105 511
94T504 73T497 59H404V-87Q397 -91 383 -95T355 -103T326 -106ZM104 123H318V374Q318 400 322 425T330 462L325 463L104 123Z" />
<glyph unicode="5" horiz-adv-x="459" d="M138 -105Q124 -105 98 -96T49 -73T16 -50Q20 -35 24 -29T34 -20Q63 -24 92 -27T150 -30Q187 -30 217 -26T272 -12Q278 -7 284 8T297 46T308 95T312 148Q312 162 295 176T249 204T189 231T124 257Q103 265 85 273T54 287T40
296Q41 337 48 380T69 462T96 532Q119 537 156 541T236 549T317 558T384 570L405 560Q405 544 400 527T387 494T372 468Q322 475 263 477T157 479Q149 460 142 434T130 381T124 329L188 310Q257 290 305 270T377 222T402 152Q402 106 390 65T359 -7T327 -50Q311
-62 281 -74T213 -96T138 -105Z" />
<glyph unicode="6" horiz-adv-x="526" d="M262 0Q232 0 204 11T151 40T110 72T87 95Q71 124 65 169T59 267Q59 344 71 404T102 507T139 578T173 616Q182 623 203 632T249 650T298 664T336 670Q351 670 376 661T424 640T457 617Q453 604 450 597T441 586Q413 591
387 592T336 594Q319 594 295 592T248 587T212 578Q201 567 182 510T149 355Q166 365 193 376T249 397T302 406Q324 406 349 396T398 371T438 342T459 321Q468 300 472 271T476 216Q476 180 471 152T457 104Q443 85 414 61T346 18T262 0ZM298 71Q309 71 323 74T352
84T377 99Q382 113 385 139T389 197Q389 220 387 244T378 283Q364 298 342 308T298 324T262 330Q248 330 226 326T183 318T150 309Q148 299 147 285T146 250Q146 226 148 202T154 160T163 137Q181 116 205 102T253 79T298 71Z" />
<glyph unicode="7" horiz-adv-x="524" d="M212 -105Q201 -103 187 -97T160 -84T137 -68T122 -51Q122 -29 135 7T171 89T221 184T277 281T331 370T375 440T401 479H152L129 390Q127 388 119 385T96 382Q87 396 77 414T61 451T53 484Q61 497 76 513T108 544T139
564Q144 564 168 563T226 559T294 553T355 548T394 546Q399 546 416 550T449 559T467 563Q477 559 486 545T495 516L378 319Q343 259 316 208T270 114T243 34T233 -32Q233 -44 234 -56T239 -79Q235 -87 226 -95T212 -105Z" />
<glyph unicode="8" horiz-adv-x="536" d="M253 0Q226 0 197 10T141 36T95 67T69 92Q65 104 63 124T60 166Q60 189 63 212T73 254Q81 270 101 287T145 318T186 342Q159 353 134 364T98 386Q90 400 85 430T79 494Q79 523 83 545T95 584Q119 605 152 625T223 657T298
670Q319 670 348 661T402 638T438 614Q445 600 449 574T454 520Q454 501 452 478T445 442Q431 417 403 397T348 360Q374 351 396 342T436 323T460 305Q468 289 472 266T476 215Q476 183 472 155T463 106Q439 76 404 52T330 14T253 0ZM279 69Q297 69 318 74T356
86T382 100Q387 111 390 131T393 179Q393 207 390 228T382 261Q370 267 353 274T310 291T242 316Q227 308 202 294T155 255Q149 244 146 224T143 181Q143 168 144 155T147 132Q162 114 188 100T239 77T279 69ZM290 380Q302 385 323 396T361 426Q367 441 370 463T374
510Q374 523 372 541T365 571Q355 580 337 587T297 598T255 602Q243 602 228 600T197 595T169 586Q165 571 163 555T161 521Q161 488 165 461T177 419Q188 415 195 412T211 406T239 396T290 380Z" />
<glyph unicode="9" horiz-adv-x="525" d="M203 -105Q189 -105 163 -96T114 -74T81 -52Q84 -39 89 -32T98 -21Q124 -25 151 -27T203 -30Q221 -30 241 -28T280 -21T312 -13Q321 -5 335 24T363 102T380 212Q364 203 337 191T279 169T225 159Q202 159 177 169T128
195T88 223T67 244Q58 265 54 293T50 349Q50 383 55 412T68 461Q83 482 112 506T181 547T265 565Q295 565 322 555T374 530T414 501T437 478Q452 450 460 402T468 280Q468 226 458 174T433 76T401 -1T368 -45Q353 -58 325 -71T263 -95T203 -105ZM264 235Q278 235
301 239T346 250T380 261Q381 269 381 280T382 306Q382 331 380 357T373 403T364 429Q347 450 323 464T273 486T226 494Q215 494 201 491T172 481T148 466Q144 458 141 442T136 407T134 368Q134 344 137 321T148 283Q161 269 182 258T226 241T264 235Z" />
<glyph unicode=":" horiz-adv-x="228" d="M106 -7Q99 -7 88 2T65 25T47 53T39 75Q39 83 49 93T74 114T103 131T125 138Q134 138 144 129T165 105T182 78T189 55Q189 48 180 37T158 17T131 0T106 -7ZM106 369Q99 369 88 378T65 401T47 429T39 451Q39 459 49 469T74
490T103 507T125 514Q134 514 144 505T165 481T182 454T189 431Q189 424 180 413T158 393T131 376T106 369Z" />
<glyph unicode=";" horiz-adv-x="223" d="M65 -127Q55 -127 46 -122T30 -108T22 -94Q35 -87 52 -69T84 -31T104 4Q91 10 77 23T55 52T46 77Q46 84 54 93T75 112T101 126T121 132Q129 132 138 123T157 102T172 77T178 55Q178 43 170 21T148 -26T118 -75T88 -112T65
-127ZM101 369Q94 369 83 378T60 401T42 429T34 451Q34 459 44 469T69 490T98 507T120 514Q129 514 139 505T160 481T177 454T184 431Q184 424 175 413T153 393T126 376T101 369Z" />
<glyph unicode="&lt;" horiz-adv-x="406" d="M333 49Q282 80 226 115T120 184T41 242T10 277Q10 287 40 312T119 369T225 438T333 506Q341 502 350 494T363 471L114 280V273L363 81Q358 68 350 60T333 49Z" />
<glyph unicode="=" horiz-adv-x="516" d="M53 330Q53 352 57 364T66 379Q129 379 199 380T337 385T455 391L465 382Q464 361 460 348T453 330H53ZM53 426Q53 448 57 460T66 475Q129 475 199 476T337 481T455 487L465 478Q464 457 460 444T453 426H53Z" />
<glyph unicode="&gt;" horiz-adv-x="406" d="M73 49Q66 53 57 61T43 84L292 275V282L43 474Q49 487 57 495T73 506Q125 475 181 440T286 371T365 313T396 278Q396 268 366 243T287 186T182 117T73 49Z" />
<glyph unicode="?" horiz-adv-x="519" d="M217 214Q204 237 195 268T181 333T175 396Q190 410 216 424T271 452T324 475T360 491Q365 511 368 541T371 607Q371 630 370 650T364 686Q352 691 334 695T298 701T261 704Q243 704 223 702T183 696T149 686L132 563Q125
559 109 555T81 551Q77 566 71 596T60 660T56 720Q78 734 112 747T186 770T262 780Q288 780 323 770T394 744T454 711Q459 692 461 664T464 605Q464 566 460 529T448 470Q437 452 409 434T349 401T291 375T260 359Q258 350 257 335T256 307Q256 289 258 269T262
232Q256 228 244 222T217 214ZM239 -7Q231 -7 220 2T198 25T179 53T171 75Q171 83 181 93T206 114T235 131T258 138Q266 138 277 129T298 105T315 78T322 55Q322 48 313 37T291 17T263 0T239 -7Z" />
<glyph unicode="@" horiz-adv-x="978" d="M479 -200Q437 -200 393 -189T308 -161T232 -124T172 -86T137 -57Q120 -39 107 -9T86 58T73 134T68 210Q68 273 76 331T97 437T126 516Q161 548 213 581T326 642T449 687T565 704Q596 704 633 695T709 672T782 640T840
606T874 575Q899 537 910 487T922 384Q922 327 912 266T881 151T830 56Q821 47 798 34T748 11T699 0Q680 0 661 9T627 31T606 56Q589 44 567 31T520 9T470 0Q447 0 423 10T377 34T338 62T316 85Q309 94 303 117T294 169T290 223Q290 282 297 335T313 420Q326 429
349 442T400 469T458 491T515 500Q528 500 552 494T604 479T658 460T698 443L704 427Q696 417 690 405T681 370T678 313V72Q690 67 710 63T747 57Q770 75 789 106T822 176T843 258T851 341Q851 410 840 458T811 537Q798 549 769 566T701 599T621 627T543 638Q511
638 465 627T369 595T271 550T190 494Q167 434 157 366T146 223Q146 181 152 136T169 51T195 -12Q211 -28 245 -49T322 -91T411 -125T495 -139Q515 -139 540 -136T591 -128T634 -118Q639 -122 642 -128T647 -144Q624 -161 592 -173T530 -193T479 -200ZM482 72Q496
72 518 77T563 90T596 104V396Q581 403 559 410T516 423T482 429Q471 429 453 426T418 419T389 409Q386 398 383 374T377 323T375 276Q375 243 378 201T391 131Q399 121 416 107T452 82T482 72Z" />
<glyph unicode="A" horiz-adv-x="756" d="M226 0Q221 0 203 2T160 7T109 15T59 23T22 32Q22 40 25 48T33 59H42Q54 59 67 68T93 97T120 151T148 235L263 649Q272 658 289 669T328 692T368 712T397 720Q410 720 431 711T474 689T509 663L644 86Q647 75 651 69T670
61L730 57Q732 53 735 50T739 33Q731 26 719 19T692 6T665 0Q656 0 635 3T586 10T532 20T484 30T453 38Q453 46 457 53T464 62H495Q512 62 522 64T535 77T532 117L495 286H239L200 141Q194 120 186 105T168 80T148 67L292 56Q293 53 296 47T299 32Q290 24 277 17T250
5T226 0ZM254 340Q303 341 347 342T426 346T480 352L420 618Q398 633 377 641T336 654L254 340Z" />
<glyph unicode="B" horiz-adv-x="681" d="M450 0Q425 0 386 2T300 7T207 14T120 23T53 32Q53 40 56 47T63 58L90 62Q110 64 120 72T134 100T138 158V572Q138 600 143 622T156 651H64Q62 655 58 659T53 673Q58 679 70 686T94 698T113 704H447Q471 698 496 686T543
659T578 628Q585 613 588 593T592 551Q592 520 587 487T574 429T553 392Q539 384 516 376T467 363L466 359Q512 354 548 340T601 315Q612 294 616 268T620 216Q620 194 617 171T609 126T596 85Q586 71 561 52T506 18T450 0ZM223 68H476Q489 80 497 102T510 150T514
202Q514 223 511 244T503 283Q490 294 467 306T411 327T333 336H240V134Q240 111 235 93T223 68ZM240 390Q284 391 321 392T392 396T459 402Q476 425 484 458T493 526Q493 558 486 587T462 633Q444 640 418 644T363 650T311 652Q274 652 257 631T240 574V390Z"
/>
<glyph unicode="C" horiz-adv-x="665" d="M357 0Q328 0 291 10T218 37T155 70T116 100Q92 129 79 188T66 321Q66 381 72 439T89 543T109 613Q131 632 165 650T239 685T319 710T394 720Q433 720 473 711T547 686T602 656Q599 597 592 552T578 484Q554 486 541 489T521
495L500 618Q486 626 463 633T417 644T377 649Q355 649 324 643T262 628T210 607Q198 579 190 538T177 450T173 360Q173 315 177 274T190 199T208 143Q217 133 238 121T285 98T336 80T382 73Q400 73 421 75T462 81T493 90L544 239Q562 239 577 234T601 225Q601
200 599 172T593 115T587 64Q568 52 534 37T455 11T357 0Z" />
<glyph unicode="D" horiz-adv-x="749" d="M470 0Q442 0 399 2T305 8T206 15T117 24T53 32Q53 40 56 47T63 58L90 62Q110 64 120 72T134 100T138 158V572Q138 599 141 615T149 641T156 651H64Q60 655 57 661T53 673Q58 679 70 686T94 698T113 704H495Q511 700 530
692T570 673T608 650T635 627Q663 575 672 511T682 384Q682 323 675 267T656 166T627 91Q613 77 594 62T552 35T509 13T470 0ZM223 68H503Q521 83 534 112T557 181T571 265T576 355Q576 403 573 445T562 524T541 589T508 633Q489 638 454 642T379 649T299 652Q263
652 252 631T240 573V134Q240 111 235 93T223 68Z" />
<glyph unicode="E" horiz-adv-x="666" d="M511 0Q488 0 451 1T369 5T278 11T188 17T109 25T53 32Q53 40 56 47T63 58L90 62Q110 64 120 72T134 100T138 158V572Q138 599 141 615T149 641T156 651H64Q61 655 58 660T53 673Q58 679 70 686T94 698T113 704H509Q535
695 559 681T598 652Q595 593 586 550T570 485Q552 485 538 488T516 495L493 636Q473 640 442 643T375 649T300 652Q274 652 261 641T244 612T240 573V391Q286 392 324 393T396 398T457 404L467 393Q465 373 462 356T455 332H240V134Q240 111 235 93T223 68H495L550
233Q568 233 583 228T603 218Q603 191 601 160T597 98T590 44Q582 35 567 26T536 8T511 0Z" />
<glyph unicode="F" horiz-adv-x="620" d="M251 0Q244 0 225 2T180 8T129 16T83 25T53 32Q53 40 56 47T63 58L91 61Q108 64 118 70T133 97T138 159V572Q138 599 141 615T149 641T156 651H64Q60 655 57 661T53 673Q58 679 70 686T94 698T113 704H500Q525 695 550
681T590 652Q586 597 577 552T562 485Q545 485 530 488T507 495L484 636Q455 642 405 647T300 652Q261 652 251 629T240 573V381Q286 382 325 383T398 388T462 394L471 383Q470 360 466 345T459 322H240V133Q240 109 235 92T223 67L324 56Q327 53 329 47T331 32Q318
20 294 10T251 0Z" />
<glyph unicode="G" horiz-adv-x="716" d="M358 0Q329 0 292 10T220 36T156 69T116 100Q91 131 79 192T66 321Q66 381 72 439T89 543T109 613Q131 631 164 650T238 684T319 710T395 720Q431 720 470 711T546 688T605 656Q601 598 594 553T579 484Q556 486 543 489T523
495L500 618Q488 625 466 632T420 644T380 649Q358 649 326 643T262 627T210 606Q201 585 194 557T183 495T176 427T173 360Q173 315 177 274T190 199T208 143Q218 132 239 120T286 98T337 80T380 73Q406 73 433 76T483 85T523 97V195Q523 228 527 254T535 293H382Q382
312 387 330T397 355Q435 355 476 357T557 362T626 367L636 358Q631 331 625 273T619 144V62Q605 53 577 43T513 22T437 6T358 0Z" />
<glyph unicode="H" horiz-adv-x="803" d="M251 0Q244 0 225 2T180 8T129 16T83 25T53 32Q53 40 56 47T63 58L91 61Q108 64 118 70T133 97T138 159V572Q138 611 145 629T156 651H64Q62 655 59 659T53 673Q58 679 70 686T94 698T113 704H318Q323 699 327 690T331
669L289 656Q269 650 259 640T244 614T240 569V395Q279 395 323 395T411 397T493 400T558 404V572Q558 607 564 627T576 651H484Q481 655 478 660T473 673Q478 679 490 686T514 698T533 704H738Q743 699 747 690T751 669L709 656Q690 650 679 641T664 616T660 569V133Q660
109 655 92T643 67L742 56Q744 55 746 49T749 32Q734 20 712 10T671 0Q664 0 644 2T599 8T548 16T502 25T473 32Q473 40 476 47T483 58L510 61Q528 64 538 71T553 98T558 159V335H240V133Q240 109 235 92T223 67L322 56Q324 54 326 47T329 32Q314 20 291 10T251
0Z" />
<glyph unicode="I" horiz-adv-x="383" d="M251 0Q244 0 225 2T180 8T129 16T83 25T53 32Q53 40 56 47T63 58L90 61Q110 64 120 72T134 100T138 158V574Q138 618 146 633T156 651H64Q62 655 59 659T53 673Q58 679 70 686T94 698T113 704H318Q323 699 327 690T331
669L289 656Q269 650 259 640T244 614T240 569V133Q240 109 235 92T223 67L322 56Q324 54 326 47T329 32Q314 20 291 10T251 0Z" />
<glyph unicode="J" horiz-adv-x="376" d="M62 -200Q41 -200 11 -191T-36 -169Q-36 -161 -34 -154T-29 -143Q24 -128 67 -104T138 -56V572Q138 608 144 627T156 651H53Q49 655 46 661T41 673Q47 679 59 686T83 698T101 704H317Q321 700 325 690T329 669L287 656Q269
650 258 642T243 617T238 569V-20Q230 -46 209 -77T159 -136T105 -182T62 -200Z" />
<glyph unicode="K" horiz-adv-x="702" d="M251 0Q244 0 225 2T180 8T129 16T83 25T53 32Q53 40 56 47T63 58L91 61Q108 64 118 70T133 97T138 159V572Q138 611 145 629T156 651H64Q60 655 57 661T53 673Q58 679 70 686T94 698T113 704H318Q323 700 327 690T331
669L289 656Q269 650 259 640T244 614T240 569V393L348 394Q355 410 367 440T396 507T433 583T474 653T518 704H676Q681 700 685 691T690 669L644 656Q613 646 584 622T531 565T486 497T450 429T426 376L533 191Q556 154 574 126T612 82T663 64L683 63Q686 60 689
53T693 35Q681 25 663 17T625 4T587 0Q571 0 555 5T524 22T492 56T458 111L369 288Q357 312 345 324T302 336H240V133Q240 109 235 92T223 67L322 56Q324 54 326 47T329 32Q314 19 291 10T251 0Z" />
<glyph unicode="L" horiz-adv-x="598" d="M471 0Q442 0 400 2T307 7T209 14T120 23T53 32Q53 40 56 47T63 58L90 62Q110 64 120 72T134 100T138 158V572Q138 599 141 615T149 641T156 651H64Q60 655 57 661T53 673Q58 679 70 686T94 698T113 704H318Q323 700 327
690T331 669L289 656Q269 650 259 640T244 614T240 569V134Q240 111 235 93T223 68H456L511 236Q531 236 544 231T564 221Q564 191 562 158T556 96T550 44Q542 36 527 26T496 8T471 0Z" />
<glyph unicode="M" horiz-adv-x="992" d="M230 0Q222 0 197 3T142 12T85 22T48 32Q48 41 51 48T57 58L82 61Q102 65 112 74T128 103T135 160L157 571Q159 607 166 627T177 651H81Q77 655 74 660T69 673Q74 679 85 686T110 698T129 704H295L490 216Q502 241 520
283T561 377T605 487T647 600T681 704H911Q916 698 919 689T924 669L881 656Q863 650 850 642T833 617T829 573L852 142Q854 113 848 93T837 67L937 56Q939 52 941 46T944 32Q930 20 907 10T865 0Q857 0 837 2T791 8T739 16T693 25T662 32Q662 40 665 47T671 58L705
61Q725 64 736 70T751 99T752 168L732 525Q731 564 733 591T739 628L731 631L519 109Q511 102 490 93T441 84L262 527Q250 557 244 583T237 625H231Q229 618 227 601T222 554L202 136Q201 106 195 89T184 70L306 56Q308 54 310 47T313 32Q302 23 287 16T257 4T230
0Z" />
<glyph unicode="N" horiz-adv-x="801" d="M236 0Q228 0 204 3T150 12T94 22T53 32Q53 40 56 47T63 58L90 61Q110 64 120 73T134 104T138 164V573Q138 608 144 627T156 651H64Q61 655 58 660T53 673Q58 679 70 686T94 698T113 704H256L616 144Q612 164 610 194T607
277V570Q607 604 613 624T625 648H530Q528 652 524 656T519 670Q524 677 536 684T561 698T579 704H752Q757 698 760 689T764 669L723 656Q702 650 692 640T679 612T675 562V180Q675 128 678 86T685 27Q674 18 657 12T621 4T588 0L261 510Q239 546 228 572T215 610H209Q208
606 207 592T205 547V134Q205 111 200 94T189 70L313 56Q315 54 317 47T319 32Q309 23 294 16T263 4T236 0Z" />
<glyph unicode="O" horiz-adv-x="744" d="M355 0Q326 0 290 10T218 36T156 69T115 102Q90 134 78 193T66 323Q66 381 72 437T88 540T109 613Q132 630 164 648T237 683T320 710T405 720Q430 720 463 712T531 689T594 658T636 625Q650 600 659 565T673 487T678 400Q678
342 672 286T655 182T631 104Q608 84 565 60T468 18T355 0ZM378 70Q405 70 436 78T493 97T532 118Q543 145 551 185T564 272T569 371Q569 435 562 489T544 580Q539 587 520 598T476 621T424 640T377 648Q353 648 321 642T259 626T208 607Q197 579 189 540T177 454T173
362Q173 299 181 240T208 141Q217 131 238 119T284 95T335 77T378 70Z" />
<glyph unicode="P" horiz-adv-x="630" d="M251 0Q244 0 225 2T180 8T129 16T83 25T53 32Q53 40 56 47T63 58L91 61Q108 64 118 71T133 98T138 159V572Q138 599 141 615T149 641T156 651H64Q60 655 57 661T53 673Q58 679 70 686T94 698T113 704H444Q467 698 492
686T540 660T575 630Q584 613 588 589T592 537Q592 502 587 467T572 404T550 363Q536 351 513 336T463 310T405 295H240V133Q240 109 235 92T223 67L324 56Q327 53 329 47T331 32Q318 20 294 10T251 0ZM240 356Q311 356 364 358T456 364Q467 380 474 404T486 456T490
513Q490 552 483 584T459 634Q441 640 414 644T357 650T305 652Q281 652 267 643T247 616T240 574V356Z" />
<glyph unicode="Q" horiz-adv-x="744" d="M521 -200Q506 -200 478 -191T415 -167T347 -133T287 -97T249 -64Q251 -46 265 -23T292 18L345 14L332 -36Q348 -49 377 -65T443 -96T516 -120T585 -130H624Q628 -133 630 -141T633 -159Q623 -170 603 -179T560 -194T521
-200ZM355 0Q326 0 290 10T218 36T156 69T115 102Q90 134 78 193T66 323Q66 381 72 437T88 540T109 613Q132 630 164 648T237 683T320 710T405 720Q430 720 463 712T531 689T594 658T636 625Q650 600 659 565T673 487T678 400Q678 342 672 286T655 182T631 104Q608
84 565 60T468 18T355 0ZM378 70Q405 70 436 78T493 97T532 118Q543 145 551 185T564 272T569 371Q569 435 562 489T544 580Q539 587 520 598T476 621T424 640T377 648Q353 648 321 642T259 626T208 607Q197 579 189 540T177 454T173 362Q173 299 181 240T208 141Q217
131 238 119T284 95T335 77T378 70Z" />
<glyph unicode="R" horiz-adv-x="694" d="M251 0Q244 0 225 2T180 8T129 16T83 25T53 32Q53 40 56 47T63 58L90 61Q110 64 120 72T134 100T138 158V572Q138 599 141 615T149 641T156 651H64Q60 655 57 661T53 673Q58 679 70 686T94 698T113 704H460Q484 698 507
687T552 662T588 634Q596 616 600 593T605 544Q605 509 600 478T585 423T563 386Q552 376 532 366T487 347T441 333V328Q455 319 463 307T484 273L537 176Q554 145 570 121T606 81T655 64L676 63Q679 60 682 53T686 34Q672 22 654 15T618 4T584 0Q537 0 507 30T452
111L375 277Q365 298 354 308T322 319H240V133Q240 109 235 92T223 67L324 56Q327 53 329 47T331 32Q318 20 294 10T251 0ZM240 376Q285 377 327 378T405 381T468 387Q486 410 494 448T502 525Q502 560 495 588T472 634Q454 640 424 644T363 650T311 652Q274 652
257 631T240 574V376Z" />
<glyph unicode="S" horiz-adv-x="627" d="M291 0Q267 0 237 7T174 25T114 51T71 78Q72 108 76 141T87 205T99 254Q117 254 132 251T154 245L179 109Q197 101 222 93T274 80T320 75Q338 75 361 79T406 90T443 105Q451 123 456 149T461 203Q461 218 460 237T454
270Q424 281 381 294T289 322T198 352T124 383T86 414Q83 426 81 443T79 478Q79 521 86 565T105 634Q123 648 151 663T212 691T277 712T334 720Q370 720 409 711T482 688T540 658Q539 637 536 613T529 565T520 521T512 489Q494 489 479 492T455 500L434 625Q417
632 398 637T357 645T313 648Q295 648 276 646T237 638T201 627Q191 607 188 577T184 517Q184 500 185 486T186 463Q211 453 254 440T348 413T444 382T521 350T557 318Q561 304 562 286T564 244Q564 196 558 160T539 91Q527 79 501 64T439 35T365 10T291 0Z" />
<glyph unicode="T" horiz-adv-x="658" d="M390 0Q383 0 363 2T317 8T265 16T219 25T190 32Q190 39 193 47T198 58L229 61Q250 64 260 73T274 103T278 158V592Q278 615 282 628T290 648H124L103 488Q97 485 81 482T47 478Q43 492 37 519T26 581T19 652Q33 666 58
682T107 704H552Q577 697 602 682T639 652Q635 593 627 548T610 478Q593 478 577 481T555 488L534 642Q518 645 490 648T428 651Q404 651 394 642T381 620T379 591V133Q379 109 374 92T362 67L464 56Q466 55 468 48T471 32Q456 20 432 10T390 0Z" />
<glyph unicode="U" horiz-adv-x="764" d="M382 0Q347 0 305 12T224 43T159 81T131 113V572Q131 609 137 628T148 651H56Q53 655 49 659T44 673Q50 679 62 686T86 698T105 704H310Q314 699 318 691T323 669L281 656Q260 650 250 640T236 613T232 569V140Q242 127
263 115T311 93T361 77T401 71Q431 71 465 80T528 102T568 128V572Q568 608 575 627T586 651H497Q493 655 490 660T486 673Q492 679 503 686T527 699T546 704H715Q720 699 724 690T728 669L685 656Q666 651 656 642T642 614T638 562V110Q628 95 604 76T545 40T468
12T382 0Z" />
<glyph unicode="V" horiz-adv-x="781" d="M400 0Q388 0 370 5T333 20T296 41T270 64L121 621Q117 635 109 643T82 651H34Q31 655 28 660T23 673Q28 679 39 686T63 699T83 704H317Q321 700 325 690T329 669L280 657Q267 654 254 648T235 627T236 581L359 105Q368
96 383 88T415 76T445 71L564 528Q580 588 596 617T622 651H501Q497 655 494 659T489 673Q496 680 510 687T537 699T554 704H758Q763 700 767 690T771 669L744 660Q722 653 706 643T675 611T647 548T614 438L516 68Q506 57 491 45T460 23T428 6T400 0Z" />
<glyph unicode="W" horiz-adv-x="1159" d="M400 0Q389 0 371 5T332 20T296 41T270 64L120 622Q116 635 108 643T82 651H34Q31 655 28 660T23 673Q28 678 39 685T64 698T83 704H312Q317 699 321 690T326 669L280 657Q263 653 250 646T233 623T235 581L359 106Q370
96 385 88T416 76T447 72L557 480L521 619Q517 635 508 643T478 651H431Q428 656 425 661T420 673Q426 679 437 686T461 699T481 704H711Q716 700 720 690T724 669L671 657Q655 653 643 648T626 628T629 581L743 105Q751 96 765 89T796 77T826 72L940 528Q951 571
963 597T984 636T999 651H839Q838 653 834 658T828 673Q836 680 849 687T876 699T894 704H1135Q1140 699 1144 690T1149 669L1120 659Q1101 653 1085 644T1054 613T1024 550T990 438L896 68Q886 57 872 46T841 25T809 9T781 0Q770 0 752 5T715 20T679 41T653 64L591
349H586L514 68Q505 57 491 46T460 25T428 9T400 0Z" />
<glyph unicode="X" horiz-adv-x="740" d="M214 0Q202 0 177 3T121 11T62 22T18 32Q18 41 21 48T28 59Q54 60 78 76T125 118T167 171L308 372L143 621Q134 635 124 643T93 651H54Q53 653 49 659T43 673Q48 679 60 686T86 698T107 704H338Q343 699 347 690T352 669L301
657Q284 653 272 646T259 623Q259 618 262 609T273 587L377 433Q400 471 425 510T476 587T526 655T572 704H702Q707 698 710 689T714 670L673 658Q644 649 617 629T563 580T513 517T466 446T419 373L568 154Q582 135 596 114T629 78T674 60L717 56Q719 54 721 47T724
32Q717 25 703 18T673 5T646 0Q638 0 619 2T573 8T522 16T476 25T447 32Q447 41 450 48T456 59H480Q489 59 495 63T501 75Q501 80 498 88T488 107L350 311L213 113Q202 99 192 87T173 68L296 55Q298 53 300 46T303 32Q293 23 276 16T242 4T214 0Z" />
<glyph unicode="Y" horiz-adv-x="670" d="M403 0Q395 0 376 2T331 8T280 16T234 25T204 32Q204 40 207 47T213 58L242 61Q260 64 270 71T285 98T290 159V289L102 623Q93 639 83 645T52 651H19Q17 654 13 659T8 673Q13 679 25 686T50 699T70 704H301Q305 698 309
689T313 669L262 657Q246 653 234 647T221 624Q221 620 224 610T233 587L349 371H354Q388 460 412 518T454 613T487 670T519 704H662Q667 698 670 690T674 670L638 661Q615 655 597 646T559 616T517 557T464 455T392 295V133Q392 110 387 92T375 67L474 56Q476
53 478 48T481 32Q466 20 444 10T403 0Z" />
<glyph unicode="Z" horiz-adv-x="641" d="M100 0Q92 0 80 10T58 36T48 68Q83 107 125 161T217 282T320 426Q353 475 388 526T459 631L171 640L145 495Q139 492 125 488T91 484Q85 507 78 537T67 600T61 660Q69 670 83 679T114 697T143 711T163 716Q170 716 200
714T272 709T353 703T423 697T459 695Q467 695 480 698T508 706T531 715Q547 706 564 687T586 641L207 99L486 77L536 237Q555 237 570 232T592 221Q592 193 590 161T585 98T579 46Q570 37 558 29T533 15T508 4T488 0Q475 0 440 4T362 13T275 25T200 35T158 41Q146
30 135 21T114 6T100 0Z" />
<glyph unicode="[" horiz-adv-x="382" d="M198 -168Q186 -168 169 -156T135 -128T105 -95V722Q118 738 135 755T169 785T198 798Q220 798 248 795T303 788T350 780Q352 777 355 768T359 747L189 728Q185 641 182 561T177 399T175 230Q175 156 177 73T182 -96L360
-115Q360 -129 357 -138T350 -150Q329 -154 303 -158T248 -165T198 -168Z" />
<glyph unicode="\" horiz-adv-x="463" d="M360 -90L42 723Q47 730 64 738T107 749Q115 722 136 661T192 513L421 -76Q414 -80 397 -85T360 -90Z" />
<glyph unicode="]" horiz-adv-x="382" d="M184 -168Q162 -168 135 -165T80 -158T33 -150Q30 -147 26 -138T22 -115L200 -96Q203 -10 205 73T207 230Q207 318 206 399T201 560T193 728L23 747Q23 759 26 768T33 780Q52 784 79 788T134 795T184 798Q196 798 213
786T247 756T277 722V-95Q265 -111 248 -127T213 -156T184 -168Z" />
<glyph unicode="^" horiz-adv-x="606" d="M49 381Q37 385 28 393T14 411Q46 449 82 489T155 567T223 636T276 685T307 703Q315 703 337 685T389 637T454 568T525 490T593 411Q589 402 581 394T561 381L308 599H301L49 381Z" />
<glyph unicode="_" horiz-adv-x="625" d="M47 -60Q47 -41 50 -28T59 -11Q140 -11 218 -10T365 -7T486 -3T567 3L578 -5Q578 -23 574 -38T567 -60H47Z" />
<glyph unicode="`" horiz-adv-x="211" d="M179 565L0 694Q5 708 15 721T38 744T57 753Q66 753 89 733T145 675T211 587Q207 583 198 576T179 565Z" />
<glyph unicode="a" horiz-adv-x="537" d="M195 -4Q177 -4 151 8T104 35T75 58Q67 68 62 94T57 151Q57 163 57 173T59 194Q61 199 71 209T97 232T127 253T154 264Q162 266 179 267T219 269Q233 270 248 271T280 275T311 279T341 285V400Q314 413 278 421T213 429Q203
429 194 428T176 426L149 343Q145 342 137 339T111 333Q102 345 89 369T71 422Q91 441 117 455T171 479T228 494T281 500Q297 500 322 491T372 468T415 439T433 412V66L505 58Q507 55 510 49T513 34Q507 25 493 18T463 5T435 0Q418 0 401 7T370 27T350 55Q327 42
297 29T239 6T195 -4ZM225 68Q237 68 259 73T304 87T341 102V227Q318 223 292 220T242 214Q214 211 187 207T147 193Q147 175 147 149T156 104Q165 94 185 81T225 68Z" />
<glyph unicode="b" horiz-adv-x="571" d="M290 0Q266 0 234 10T171 35T120 65T99 89V700Q99 708 97 714T84 724L11 747Q13 757 16 764T20 774Q31 780 51 786T92 796T123 800Q152 800 171 780T190 730V440Q208 450 226 460T264 480T301 494T336 500Q353 500 377
493T425 473T469 449T495 427Q504 415 508 389T515 332T517 277Q517 222 509 171T492 89Q480 77 458 63T408 34T350 10T290 0ZM303 72Q317 72 340 77T383 90T411 101Q419 120 422 153T426 221Q426 256 424 288T418 344T411 376Q407 382 388 393T347 414T307 424Q298
424 277 417T232 401T190 383V116Q206 107 227 97T268 79T303 72Z" />
<glyph unicode="c" horiz-adv-x="450" d="M261 0Q234 0 205 10T150 34T106 62T83 82Q70 98 62 137T54 220Q54 261 57 298T67 367T80 417Q93 427 117 440T172 467T234 490T296 500Q311 500 332 491T375 468T412 442T430 423Q431 412 424 394T408 358T389 332Q380
332 370 335T353 342Q347 356 338 376T319 413T298 429Q268 429 241 423T192 408T160 395Q157 385 153 366T147 323T145 276Q145 244 148 213T155 159T164 129Q167 125 179 116T209 97T243 80T272 72Q288 72 316 76T369 86T404 93Q408 90 411 84T415 68Q396 52
372 37T320 11T261 0Z" />
<glyph unicode="d" horiz-adv-x="570" d="M255 0Q230 0 203 10T150 33T108 60T84 81Q70 98 62 136T54 220Q54 261 57 299T67 367T79 417Q93 426 119 440T176 468T240 491T303 500Q317 500 338 493T380 476V700Q380 707 377 714T364 724L292 747Q293 756 296 763T301
774Q311 780 331 786T372 796T404 800Q432 800 451 780T471 730V66L544 58Q546 55 549 48T552 34Q545 25 531 17T501 5T474 0Q455 0 438 7T409 27T389 54Q371 41 349 29T302 8T255 0ZM275 72Q285 72 302 76T341 88T380 102V392Q363 399 343 407T303 420T269 425Q257
425 235 420T192 408T160 395Q156 385 153 365T147 322T145 276Q145 241 148 210T155 157T163 129Q167 124 180 115T211 96T245 79T275 72Z" />
<glyph unicode="e" horiz-adv-x="469" d="M261 0Q234 0 205 10T150 34T106 62T83 82Q70 99 62 137T54 220Q54 261 57 298T67 367T80 417Q94 426 118 440T173 467T236 490T297 500Q313 500 337 489T384 464T415 438Q421 431 425 409T433 360T435 313Q425 298 411
285T381 261T356 245Q346 242 315 238T240 230T145 226Q147 194 152 165T162 129Q166 125 179 116T210 97T244 80T272 72Q284 72 304 75T347 82T389 91T417 97Q421 93 425 87T429 70Q410 54 383 38T325 11T261 0ZM218 284Q243 284 269 286T317 292T350 303Q350
315 349 333T345 367T340 389Q338 393 325 401T295 417T268 425Q258 425 236 420T191 408T158 395Q154 383 151 365T146 328T144 292Q155 288 176 286T218 284Z" />
<glyph unicode="f" horiz-adv-x="338" d="M210 0Q202 0 179 3T128 12T76 22T39 32Q39 40 42 46T48 56L76 61Q93 64 102 79T112 139V446L42 453Q42 467 45 477T53 493L116 500L65 711Q71 722 93 737T146 766T205 790T248 800Q262 800 280 788T314 759T340 727T351
706Q351 701 347 693T336 676T322 660T308 647Q299 647 290 650T275 658Q270 671 262 687T245 714T230 725Q220 725 205 722T175 714T149 705L199 500H312L323 487Q322 477 318 464T308 443L203 444V120Q203 100 199 85T192 64L277 56Q279 53 281 47T284 33Q278
25 265 18T236 5T210 0Z" />
<glyph unicode="g" horiz-adv-x="512" d="M226 -200Q210 -200 186 -192T135 -169T85 -137T48 -102T33 -69Q33 -54 49 -34T90 6T137 40Q132 47 127 57T121 76Q121 86 132 101T158 131T184 155L216 147L206 90Q214 89 241 86T305 78T378 67T442 53T479 37Q484 24
486 9T489 -21Q489 -52 484 -84T471 -136Q459 -144 434 -155T375 -176T302 -193T226 -200ZM249 -131Q269 -131 298 -128T356 -120T400 -109Q403 -101 404 -83T406 -53Q406 -40 404 -28T398 -11Q396 -9 377 -5T329 3T272 12T221 19T193 23Q179 9 164 -7T139 -36T128
-55Q128 -62 142 -75T178 -100T218 -122T249 -131ZM209 129Q179 140 157 150T120 167T96 182T82 195Q74 208 67 231T59 285Q59 333 67 371T82 431Q92 437 114 448T165 472T223 492T276 500Q289 500 308 495T334 487Q362 492 392 503T448 527T490 547L506 536Q506
518 503 499T495 469Q473 462 447 458T392 452V447Q401 442 411 434T431 411Q438 395 442 372T447 329Q447 289 440 252T423 189Q410 179 379 165T305 141T209 129ZM260 184Q271 184 288 188T321 198T343 207Q351 220 355 246T360 301Q360 335 357 362T348 398Q344
404 327 413T290 429T261 436Q248 436 228 432T189 421T160 408Q155 395 151 373T146 326Q146 300 148 278T155 242T162 223Q168 217 186 208T226 191T260 184Z" />
<glyph unicode="h" horiz-adv-x="603" d="M204 0Q196 0 174 3T126 12T75 22T39 32Q39 40 42 46T48 56L75 61Q92 64 101 79T110 139V700Q110 708 107 714T94 724L19 747Q20 757 23 764T28 774Q39 780 59 786T99 796T131 800Q160 800 180 780T200 730V435Q223 450
249 465T299 490T341 500Q363 500 391 491T444 467T486 435T503 401V120Q503 99 499 85T492 64L575 56Q577 53 579 47T582 33Q576 25 562 18T533 5T508 0Q500 0 479 3T430 12T379 22T343 32Q343 39 346 45T353 56L379 61Q389 63 396 69T407 91T412 139V366Q412
376 401 386T374 405T342 419T319 424Q312 424 296 420T261 408T226 394T200 383V122Q200 101 197 86T189 64L270 56Q272 53 274 47T276 33Q271 26 258 18T230 5T204 0Z" />
<glyph unicode="i" horiz-adv-x="308" d="M209 0Q202 0 179 3T129 12T77 22T41 32Q41 39 44 46T50 56L78 61Q89 63 97 70T109 93T113 139V400Q113 408 110 414T97 424L39 445Q40 455 43 463T50 474Q66 483 93 491T137 500Q165 500 184 480T204 430V120Q204 100
200 85T192 64L276 56Q278 52 280 47T283 33Q278 25 264 18T235 5T209 0ZM137 602Q131 602 121 610T100 631T84 656T77 675Q77 683 86 692T108 710T134 725T155 732Q163 732 172 724T191 702T206 677T212 656Q212 650 204 641T183 622T159 608T137 602Z" />
<glyph unicode="j" horiz-adv-x="290" d="M38 -200Q28 -200 12 -194T-21 -178T-44 -159Q-44 -150 -42 -145T-37 -137Q-8 -132 19 -125T68 -110T105 -92V400Q105 408 102 414T89 424L27 445Q28 457 31 464T37 474Q48 480 65 486T101 496T130 500Q157 500 177 480T197
430V-82Q197 -90 185 -104T153 -135T112 -166T71 -190T38 -200ZM133 602Q127 602 117 610T96 631T80 656T73 675Q73 683 82 692T104 710T130 725T151 732Q159 732 168 724T187 702T202 677T208 656Q208 650 200 641T179 622T155 608T133 602Z" />
<glyph unicode="k" horiz-adv-x="580" d="M206 0Q197 0 175 3T127 12T76 22T40 32Q40 39 43 45T49 56L76 61Q93 64 102 79T112 139V700Q112 707 109 714T95 724L26 747Q27 757 30 764T35 774Q46 780 65 786T104 796T136 800Q163 800 182 780T202 730V433Q227 448
257 463T316 489T362 500Q380 500 404 490T451 465T490 433T506 401Q506 382 487 360T442 316T393 278T361 255Q366 251 375 242T398 214L462 120Q473 104 489 88T533 72H560Q562 70 566 65T570 51Q563 38 547 26T515 7T486 0Q464 0 440 16T397 61L318 183Q300
211 287 224T267 242T254 250Q254 259 259 267T268 278L308 283Q316 289 331 300T363 324T392 350T405 371Q405 376 397 385T376 405T351 421T332 428Q314 428 276 414T202 383V122Q202 101 198 86T190 64L274 56Q277 52 279 46T281 33Q276 25 262 18T232 5T206
0Z" />
<glyph unicode="l" horiz-adv-x="295" d="M203 0Q195 0 173 3T124 12T72 22T36 32Q36 40 39 46T46 56L73 61Q90 64 98 79T107 139V700Q107 708 104 714T91 724L19 747Q21 757 23 764T28 774Q39 780 59 786T99 796T131 800Q160 800 179 780T198 730V120Q198 99
194 85T187 64L270 56Q272 53 274 48T277 33Q272 25 258 18T229 5T203 0Z" />
<glyph unicode="m" horiz-adv-x="916" d="M210 0Q202 0 180 3T131 12T79 22T43 32Q43 40 46 46T53 56L80 61Q97 64 106 78T116 139V400Q116 408 113 414T100 424L39 445Q41 458 43 464T50 474Q66 483 93 491T137 500Q166 500 185 482T204 434Q227 449 253 464T304
489T347 500Q370 500 399 490T454 464T497 430Q514 441 536 453T580 475T621 493T654 500Q676 500 704 491T757 467T799 435T816 401V120Q816 98 812 84T805 64L888 56Q890 54 892 48T895 33Q890 25 877 18T848 5T822 0Q814 0 792 3T742 12T690 22T654 32Q654 41
657 47T664 56L691 61Q701 63 709 69T721 91T726 139V366Q726 376 715 386T688 405T656 419T633 424Q624 424 600 416T550 398T511 383V122Q511 100 507 85T499 64L582 56Q584 53 586 47T589 33Q584 25 570 18T541 5T514 0Q506 0 484 3T435 12T384 22T349 32Q349
39 352 46T358 56L385 61Q402 64 411 79T420 139V366Q420 376 409 386T381 405T349 419T325 424Q318 424 302 420T267 408T232 394T207 383V122Q207 102 203 87T194 64L277 56Q279 53 281 47T284 33Q279 25 265 18T236 5T210 0Z" />
<glyph unicode="n" horiz-adv-x="609" d="M210 0Q202 0 180 3T131 12T79 22T43 32Q43 40 46 46T53 56L80 61Q97 64 106 78T116 139V400Q116 408 113 414T100 424L39 445Q41 458 43 464T50 474Q66 483 93 491T137 500Q166 500 185 482T204 434Q227 449 253 464T303
489T347 500Q369 500 397 491T450 467T492 435T509 401V120Q509 100 505 85T497 64L581 56Q583 52 585 46T588 33Q582 25 568 18T540 5T514 0Q506 0 484 3T435 12T385 22T349 32Q349 40 352 46T359 56L384 60Q394 62 401 68T413 90T418 139V366Q418 376 407 386T380
405T348 419T325 424Q318 424 302 420T267 408T232 394T207 383V122Q207 102 203 87T194 64L276 56Q278 52 280 46T282 33Q277 25 264 18T235 5T210 0Z" />
<glyph unicode="o" horiz-adv-x="536" d="M258 0Q232 0 204 10T151 33T108 61T83 83Q70 99 62 137T54 220Q54 261 57 297T67 365T80 417Q94 426 119 440T175 467T238 490T300 500Q318 500 342 492T391 471T435 447T461 424Q469 413 473 387T480 331T482 277Q482
221 474 169T457 85Q444 75 423 61T376 32T319 9T258 0ZM271 72Q285 72 307 78T350 93T377 105Q384 124 387 157T391 220Q391 252 389 286T383 345T375 376Q371 382 353 393T311 415T269 425Q257 425 235 420T191 408T158 395Q155 385 152 365T146 321T144 277Q144
242 147 210T154 157T162 129Q166 125 178 116T207 96T241 79T271 72Z" />
<glyph unicode="p" horiz-adv-x="570" d="M197 -200Q189 -200 167 -197T116 -188T63 -178T26 -168Q26 -160 29 -154T36 -144L63 -139Q80 -136 90 -122T100 -61V400Q100 408 97 414T84 424L26 445Q28 458 30 464T36 474Q53 483 80 491T124 500Q151 500 169 483T189
439Q206 449 225 459T264 479T302 494T336 500Q353 500 377 492T425 472T469 447T496 425Q504 413 509 386T516 329T518 277Q518 221 510 169T492 85Q480 74 459 60T410 32T353 9T293 0Q269 0 242 11T190 36V-80Q190 -100 187 -115T179 -136L264 -144Q266 -146
268 -152T271 -167Q266 -175 252 -182T223 -195T197 -200ZM302 72Q316 72 339 78T383 93T412 105Q420 124 423 159T426 223Q426 256 424 287T419 343T411 375Q407 381 389 393T348 414T307 424Q299 424 278 417T233 401T190 383V105Q207 97 228 89T269 77T302 72Z"
/>
<glyph unicode="q" horiz-adv-x="554" d="M476 -200Q469 -200 452 -198T413 -192T367 -185T324 -176T295 -168Q295 -161 298 -154T304 -144L343 -139Q360 -137 369 -122T379 -61V44Q353 27 322 14T258 0Q233 0 205 9T152 33T108 61T82 83Q68 99 61 137T53 220Q53
260 56 297T66 365T78 417Q92 426 117 440T174 467T237 490T299 500Q314 500 341 493T399 475T454 455T490 439Q490 425 485 410T475 372T470 309V-80Q470 -100 466 -115T458 -136L543 -144Q545 -147 547 -153T550 -167Q545 -175 531 -182T502 -195T476 -200ZM273
72Q285 72 305 78T345 92T379 107V394Q365 400 344 407T301 419T267 425Q256 425 234 420T191 409T158 397Q154 385 151 365T145 321T143 277Q143 242 146 211T153 157T162 129Q166 125 178 116T208 96T243 79T273 72Z" />
<glyph unicode="r" horiz-adv-x="397" d="M211 0Q203 0 181 3T130 12T77 22T41 32Q41 39 44 46T50 56L78 61Q89 63 97 70T109 93T113 139V400Q113 408 110 414T97 424L39 445Q41 457 44 464T50 474Q66 483 93 491T137 500Q165 500 183 481T202 431V422Q212 430
226 443T256 470T287 491T314 500Q326 500 339 491T364 467T383 441T391 423Q391 418 386 404T373 374T358 348Q346 348 336 351T319 357Q313 370 306 383T292 405T282 414Q277 414 266 407T242 391T219 373T204 361V120Q204 100 200 85T192 64L278 56Q280 54 282
48T285 33Q279 25 265 18T236 5T211 0Z" />
<glyph unicode="s" horiz-adv-x="486" d="M218 0Q193 0 165 9T113 33T72 59T53 77Q54 99 63 124T82 165Q95 165 104 162T118 157Q124 142 135 119T159 80Q171 77 186 76T217 74Q245 74 275 76T328 87Q332 95 334 112T337 145Q337 153 337 162T334 180Q331 184
305 192T242 210T166 230T99 251T65 269Q63 281 62 295T61 327Q61 357 66 385T79 433Q91 441 114 452T165 474T223 492T277 500Q293 500 317 492T364 471T403 447T420 430Q420 421 414 401T399 362T381 334Q369 334 359 337T344 344Q330 377 323 400T306 424Q283
424 253 422T197 417T160 411Q157 401 156 387T155 359Q155 346 156 334T158 314Q162 311 187 305T247 290T320 271T387 250T427 226Q430 216 431 203T433 175Q433 142 427 108T414 63Q402 54 381 43T332 23T275 7T218 0Z" />
<glyph unicode="t" horiz-adv-x="341" d="M238 0Q226 0 203 7T156 24T115 45T97 62V446L19 451Q19 469 23 480T30 494L81 500Q96 502 100 510T105 538V646Q117 655 134 664T167 674L186 661V501L298 500L307 487Q306 472 302 460T293 441L188 445V80L305 59Q307
56 309 50T312 34Q305 25 291 18T263 5T238 0Z" />
<glyph unicode="u" horiz-adv-x="593" d="M246 -4Q222 -4 196 7T147 35T110 67T95 92V400Q95 408 92 414T79 424L21 445Q23 457 26 464T32 474Q48 483 75 491T119 500Q147 500 166 480T186 430V120Q197 110 212 98T244 77T273 67Q286 67 308 73T354 88T397 106V400Q397
408 394 415T381 424L313 447Q314 458 317 465T322 474Q333 480 352 486T391 496T421 500Q449 500 468 480T488 430V66L561 58Q563 55 566 49T569 34Q563 25 549 18T518 5T490 0Q464 0 440 14T406 50Q385 37 356 25T297 5T246 -4Z" />
<glyph unicode="v" horiz-adv-x="553" d="M302 0Q279 0 253 9T204 33T164 60T138 82L85 361Q81 378 75 398T48 427L-5 445Q-5 457 -1 464T4 474Q15 480 31 486T63 496T88 500Q121 500 143 476T172 409L217 130Q223 123 236 112T266 91T303 75Q323 100 342 138T378
222T404 314T420 402Q412 408 395 417T359 434T322 449T295 458Q297 467 299 474T306 485Q316 490 333 493T371 498T406 500Q417 500 434 490T469 466T498 440T510 420Q510 388 500 345T474 255T436 162T391 81T344 22T302 0Z" />
<glyph unicode="w" horiz-adv-x="865" d="M302 0Q279 0 253 9T204 33T164 60T138 82L85 361Q81 378 75 398T48 427L-5 445Q-5 457 -1 464T4 474Q15 480 31 486T64 496T88 500Q123 500 144 475T172 408L217 130Q228 119 249 102T300 77Q319 99 339 131T377 201T409
280L394 361Q390 379 384 399T357 427L304 445Q305 457 308 464T314 474Q324 480 340 486T372 496T397 500Q430 500 452 476T481 409L525 127Q536 118 558 101T607 75Q628 99 648 137T685 220T715 313T732 402Q725 408 708 417T671 434T634 449T608 458Q610 469
612 475T618 485Q629 489 646 492T683 498T719 500Q731 500 748 490T782 467T810 440T822 421Q822 389 812 346T785 255T745 162T698 81T651 22T608 0Q585 0 561 9T514 32T474 59T450 81L433 158Q414 118 391 82T344 23T302 0Z" />
<glyph unicode="x" horiz-adv-x="515" d="M120 0Q110 0 94 9T61 32T33 57T22 76Q22 92 39 115T83 164T142 215T200 262L136 370Q127 384 119 397T97 420T64 437L26 448Q27 456 30 464T36 476Q45 481 60 486T90 496T112 500Q144 500 167 476T210 419L275 306Q301
329 323 350T360 389T384 418Q375 424 360 432T331 448T307 459Q308 467 310 474T315 485Q323 488 338 491T367 497T390 500Q398 500 412 493T441 476T465 456T475 439Q475 422 459 400T417 352T362 303T306 257L377 138Q399 102 420 87T461 72H484Q487 70 490
65T493 51Q487 40 473 28T440 8T408 0Q385 0 357 22T300 94L230 213Q204 190 180 166T138 121T113 90Q121 84 135 77T165 62T191 50Q194 45 196 37T199 19Q191 15 176 11T145 4T120 0Z" />
<glyph unicode="y" horiz-adv-x="549" d="M110 -200Q100 -200 84 -193T53 -177T32 -160Q34 -149 36 -144T41 -134Q89 -128 135 -107T222 -53T289 22Q254 32 222 46T167 75T136 98L84 364Q81 383 74 401T48 427L-5 445Q-5 457 -1 464T4 474Q15 480 31 486T64 496T88
500Q123 500 144 474T172 408L213 142Q220 136 237 126T279 104T325 84Q342 119 355 155T379 227T396 296T407 359T413 409Q400 418 378 427T333 445T295 458Q297 466 300 473T306 485Q316 490 333 493T369 498T402 500Q414 500 431 492T466 471T494 446T506 428Q506
391 495 341T464 231T414 110Q385 48 351 -8T277 -107T196 -175T110 -200Z" />
<glyph unicode="z" horiz-adv-x="482" d="M88 0Q80 0 67 10T43 35T32 61Q66 93 107 138T190 233T269 333T336 424L151 432L114 339Q111 337 101 334T77 330Q69 346 58 373T44 428Q49 435 62 446T91 470T120 491T140 500Q145 500 164 499T208 495T259 491T306 488T336
485Q345 485 362 489T394 496T413 498Q425 492 437 474T450 438L181 96L353 73L411 165Q426 164 437 160T453 150Q452 143 451 132T448 105T442 75T435 45Q426 35 408 25T373 7T347 0Q336 0 309 5T249 17T188 28T144 33Q130 33 119 27T88 0Z" />
<glyph unicode="{" horiz-adv-x="394" d="M209 -168Q197 -168 179 -157T143 -128T111 -95L139 238Q119 259 89 271T40 285Q35 292 31 308T26 345Q43 348 64 354T106 369T139 388L111 722Q125 739 143 756T179 786T209 798Q231 798 258 795T313 788T360 780Q363
777 366 768T369 747L200 728Q200 669 201 607T204 491T206 401Q206 380 192 363T157 335T119 316V312Q137 305 157 294T190 263T204 210Q204 181 203 135T199 29T197 -96L370 -115Q370 -128 367 -137T360 -150Q340 -154 313 -158T258 -165T209 -168Z" />
<glyph unicode="|" horiz-adv-x="429" d="M182 -200V777Q192 785 212 792T259 800Q255 777 251 716T247 556V-190Q240 -193 223 -196T182 -200Z" />
<glyph unicode="}" horiz-adv-x="394" d="M185 -168Q164 -168 136 -165T81 -158T34 -150Q32 -146 29 -138T25 -117L195 -98Q195 -37 194 24T190 139T188 230Q188 251 202 268T237 297T276 315V319Q258 326 238 337T204 368T190 421Q190 449 192 495T195 601T197
726L24 746Q24 758 27 767T34 781Q55 785 82 789T136 795T185 798Q198 798 215 787T251 759T283 726L255 392Q275 371 305 359T354 345Q360 339 364 323T368 286Q353 283 331 277T288 263T255 243L283 -92Q270 -108 252 -125T216 -155T185 -168Z" />
<glyph unicode="~" horiz-adv-x="589" d="M425 251Q411 251 381 257T313 274T234 295T158 317L75 266Q71 267 63 272T52 286Q67 305 88 325T131 360T169 374Q182 374 211 369T279 355T358 336T435 316L508 381Q520 377 527 370T536 360Q523 336 503 311T462 269T425 251Z" />
<glyph unicode="&#xa0;" horiz-adv-x="215" />
<glyph unicode="&#xa1;" horiz-adv-x="236" d="M68 -270L90 268Q95 275 110 281T148 288Q156 206 162 113T171 -71T174 -242Q160 -254 131 -262T68 -270ZM107 362Q99 362 88 371T67 395T50 422T43 445Q43 452 52 463T74 483T102 500T126 507Q133 507 144 498T167
475T186 447T193 425Q193 417 184 407T159 386T130 369T107 362Z" />
<glyph unicode="&#xa2;" horiz-adv-x="479" d="M271 0Q242 0 212 10T154 34T108 61T84 81Q70 99 62 138T54 220Q54 279 62 331T80 412Q96 426 122 442T178 472T239 494T295 503Q315 503 337 500T381 490T424 475T459 457Q457 414 451 380T440 330Q425 330 414
332T396 337L379 430Q368 434 349 437T311 442T282 445Q267 445 243 438T196 423T159 407Q155 393 151 371T144 323T141 272Q141 240 144 210T151 158T160 129Q165 124 180 115T215 96T253 79T283 71Q298 71 321 76T368 87T412 98T439 106Q442 103 445 97T450 80Q436
68 417 54T374 28T325 8T271 0ZM248 -122V590Q264 602 282 607T319 613Q315 580 312 539T308 466V-112Q299 -116 283 -119T248 -122Z" />
<glyph unicode="&#xa3;" horiz-adv-x="540" d="M101 0Q95 0 85 10T67 33T58 56L112 84Q121 98 131 126T150 187T164 250H66Q66 273 69 284T77 297Q96 297 117 297T158 298Q138 332 123 368T100 439T91 497Q103 510 126 524T178 550T234 570T284 578Q313 578 347
569T408 548T447 527Q447 505 443 479T433 431T423 398Q406 398 394 401T377 408L358 498Q334 507 311 510T267 514Q248 514 229 512T196 506T177 500Q177 479 184 445T204 372T235 301Q264 302 286 303T331 306T379 311L390 302Q389 285 386 271T378 250H236Q229
198 220 157T201 85L415 73L458 189Q474 189 487 185T506 176Q505 148 501 111T490 49Q479 39 460 28T422 8T392 0Q383 0 362 3T313 12T256 22T203 31T166 36Q159 32 146 23T120 7T101 0Z" />
<glyph unicode="&#xa4;" horiz-adv-x="610" d="M83 49Q72 58 58 72T36 96L126 172Q118 193 114 224T110 287Q110 320 114 350T127 405L36 487Q45 498 59 510T90 532Q107 513 128 489T177 437Q211 457 255 473T338 490Q345 490 363 485T404 469T446 448L523 531Q542
519 554 509T575 489Q550 470 526 449T487 414Q492 402 495 374T498 312Q498 273 494 237T482 174L575 94Q570 86 560 77T541 59T528 49L442 138Q413 116 374 98T293 80Q278 80 254 88T207 109T164 135L83 49ZM304 148Q315 148 331 152T364 162T394 173T411 182Q417
196 419 221T421 269Q421 294 420 318T416 359T410 382Q407 388 388 397T345 414T303 422Q296 422 282 419T251 412T220 403T197 395Q193 383 191 359T189 308Q189 275 192 243T201 197Q203 193 215 185T243 168T276 154T304 148Z" />
<glyph unicode="&#xa5;" horiz-adv-x="583" d="M335 0Q328 0 304 3T251 12T196 22T157 32Q157 39 160 45T167 56L205 61Q228 64 235 84T243 153V208H71Q71 228 75 240T83 254Q112 254 152 254T234 255L202 306H71Q71 327 75 339T83 353H175L88 494Q80 508 73 513T46
519H17Q16 521 13 526T8 539Q13 543 23 549T44 560T61 565H247Q251 559 254 551T257 534L215 525Q200 522 189 517T176 500T189 463L291 290H294Q310 324 330 365T373 447T416 519T454 565H563Q567 560 570 552T574 534L539 524Q511 516 484 491T433 432T384 356Q421
357 451 358T492 360L502 352Q501 335 498 323T490 306H360L335 254Q368 255 397 256T447 258T481 261L491 252Q490 232 487 223T479 208H327V118Q327 100 322 86T312 64L406 56Q408 53 410 47T413 33Q405 24 391 17T361 5T335 0Z" />
<glyph unicode="&#xa6;" horiz-adv-x="429" d="M182 360V777Q192 785 212 792T259 800Q255 777 251 716T247 556V369Q231 365 215 363T182 360ZM182 -200V219Q198 224 215 226T247 229V-190Q240 -193 223 -196T182 -200Z" />
<glyph unicode="&#xa7;" horiz-adv-x="591" d="M268 -200Q246 -200 216 -194T155 -177T97 -154T53 -128Q54 -96 57 -64T66 -3T76 43Q87 44 96 45T122 44L146 -98Q166 -106 192 -114T247 -128T296 -134Q315 -134 340 -129T390 -117T430 -103Q440 -85 446 -56T452
3Q452 22 451 35T444 61Q435 65 406 75T337 98T252 127T168 157T102 183Q88 194 77 210T60 245T52 277Q58 300 67 323T87 366T104 395Q91 401 80 406T59 423Q57 434 56 442T54 459T53 480Q53 507 56 536T66 592T81 634Q98 648 125 663T184 691T247 712T303 720Q339
720 377 711T449 688T505 659Q504 633 500 602T490 542T478 496Q465 496 453 499T433 505L413 632Q385 642 352 649T279 656Q263 656 244 654T204 648T164 638Q156 624 151 603T144 558T141 512Q141 497 142 488T145 467Q153 463 182 454T250 433T333 408T412 383T471
360Q486 349 500 327T524 281T535 241Q526 212 511 184T481 135Q501 125 513 117T532 99Q535 89 536 78T538 54T539 25Q539 -10 533 -43T514 -106Q502 -119 475 -134T413 -165T341 -190T268 -200ZM426 161Q434 182 441 203T452 243T458 276L155 374Q153 365 148
347T139 306T134 258L426 161Z" />
<glyph unicode="&#xa8;" horiz-adv-x="408" d="M295 582Q289 582 279 590T260 609T244 632T238 651Q238 659 246 668T267 685T292 699T311 705Q319 705 328 697T346 677T360 654T366 634Q366 626 353 614T324 592T295 582ZM100 582Q93 582 84 589T65 609T49 632T42
651Q42 659 51 668T72 685T97 699T117 705Q123 705 132 697T151 677T166 654T172 634Q172 626 159 614T128 592T100 582Z" />
<glyph unicode="&#xa9;" horiz-adv-x="612" d="M294 225Q264 225 231 235T169 258T119 284T92 303Q84 313 76 334T62 384T56 442Q56 515 69 564T100 648Q123 663 162 681T249 712T345 726Q365 726 393 718T450 698T502 674T534 651Q540 644 544 627T551 586T555
541T556 501Q556 450 547 399T527 316Q514 305 489 290T433 260T365 235T294 225ZM313 333Q293 333 271 342T233 363T212 379Q209 384 206 397T200 427T197 463Q197 495 201 519T211 569Q220 576 239 585T282 602T331 610Q342 610 359 602T390 585T404 572Q404
566 400 552T392 524T383 506Q377 506 372 507T364 510L350 568Q309 568 285 564T255 557Q251 548 249 524T247 485Q247 456 251 433T258 406Q261 404 272 396T296 381T319 374Q328 374 343 377T373 383T391 388Q393 386 396 381T400 370Q384 357 363 345T313 333ZM307
271Q323 271 346 276T395 290T442 306T476 321Q487 345 492 388T498 477Q498 523 494 565T480 623Q477 628 460 636T418 655T364 671T310 678Q295 678 272 674T224 663T178 651T145 639Q137 623 129 595T115 536T110 479Q110 437 118 397T137 337Q151 323 182 308T247
282T307 271Z" />
<glyph unicode="&#xaa;" horiz-adv-x="466" d="M190 349Q177 349 159 354T123 368T92 383T74 396Q68 404 63 426T58 474Q58 483 58 492T61 510Q61 514 75 527T107 553T137 568Q148 571 175 572T235 575T295 583V680Q272 692 247 699T193 706Q182 706 171 706T145
704L133 632Q128 630 119 628T99 626Q91 636 81 656T67 701Q87 722 117 736T180 759T244 767Q256 767 276 760T317 742T354 718T369 697V411L437 401Q440 398 442 391T444 377Q437 367 415 358T379 349Q359 349 339 362T308 394Q282 376 252 363T190 349ZM203 409Q214
409 230 413T265 423T295 434V541Q265 531 233 528T173 521T131 508Q131 494 133 475T141 438Q145 431 164 420T203 409Z" />
<glyph unicode="&#xab;" horiz-adv-x="565" d="M288 42Q250 70 209 103T132 167T74 223T51 259Q51 270 73 294T132 350T209 415T288 478Q293 476 300 469T314 446L126 230L127 291L313 72Q306 59 300 52T288 42ZM481 42Q443 70 402 103T325 167T267 223T244 259Q244
270 266 294T325 350T402 415T481 478Q486 476 493 469T507 446L319 230L320 291L506 72Q499 59 493 52T481 42Z" />
<glyph unicode="&#xac;" horiz-adv-x="633" d="M529 172V340H27Q27 364 30 378T39 393Q156 393 248 394T408 397T520 401T583 406L597 389Q596 316 593 267T586 187Q579 183 565 178T529 172Z" />
<glyph unicode="&#xad;" horiz-adv-x="342" d="M30 270Q30 290 33 302T42 320Q91 320 141 322T234 327T300 333L315 317Q315 303 312 291T304 270H30Z" />
<glyph unicode="&#xae;" horiz-adv-x="612" d="M294 225Q264 225 231 235T169 258T119 284T92 303Q84 313 76 334T62 384T56 442Q56 515 69 564T100 648Q123 663 162 681T249 712T345 726Q365 726 393 718T450 698T502 674T534 651Q540 644 544 627T551 586T555
541T556 501Q556 450 547 399T527 316Q514 305 489 290T433 260T365 235T294 225ZM307 271Q323 271 346 276T395 290T442 306T476 321Q487 345 492 388T498 477Q498 508 496 537T490 590T480 623Q477 628 460 636T418 655T364 671T310 678Q295 678 272 674T224
663T178 651T145 639Q137 623 129 595T115 536T110 479Q110 437 118 397T137 337Q151 323 182 308T247 282T307 271ZM272 341Q266 341 254 343T227 349T201 355T184 360Q184 362 185 366T188 375H203Q214 375 219 382T224 412V562Q224 575 225 581T229 588H191Q188
591 187 594T186 598Q189 602 199 607T214 613H343Q351 612 370 604T394 589Q397 585 400 571T404 545Q404 535 401 520T392 496Q385 489 371 482T344 471V468Q350 465 355 460T366 443L379 417Q391 395 402 384T431 372H443Q444 370 446 367T448 358Q440 350 426
346T401 341Q390 341 373 348T342 386L312 454Q309 461 305 463T295 466H270V397Q270 388 268 381T264 372L310 366Q311 364 311 360T312 354Q308 349 295 345T272 341ZM270 492Q291 492 311 493T349 499Q351 506 353 515T356 537Q356 551 354 562T343 583Q329
585 318 586T294 587Q280 587 275 582T270 563V492Z" />
<glyph unicode="&#xaf;" horiz-adv-x="328" d="M0 584Q0 606 4 621T12 640Q44 640 88 641T179 645T262 650T317 654L328 645Q327 624 323 608T316 584H0Z" />
<glyph unicode="&#xb0;" horiz-adv-x="326" d="M163 352Q135 352 109 364T65 402T47 465Q47 503 64 528T108 566T163 579Q191 579 217 567T261 529T279 465Q279 427 262 402T218 365T163 352ZM163 401Q196 401 208 415T221 465Q221 502 209 516T163 530Q129 530
117 516T104 465Q104 429 116 415T163 401Z" />
<glyph unicode="&#xb1;" horiz-adv-x="516" d="M227 57V477Q230 482 246 486T291 490V67Q285 64 269 61T227 57ZM53 250Q53 272 57 284T66 299Q129 299 199 300T337 305T455 311L465 302Q464 281 460 268T453 250H53ZM53 -56Q53 -34 57 -22T66 -7Q129 -7 199 -6T337
-1T455 5L465 -4Q464 -25 460 -38T453 -56H53Z" />
<glyph unicode="&#xb2;" horiz-adv-x="426" d="M79 344Q64 347 51 359T35 388Q82 420 123 463T195 551T243 633T261 690Q238 697 199 702T129 707L113 612Q106 610 96 609T78 608Q68 629 60 656T48 708Q61 722 82 733T127 753T176 765T219 770Q235 770 256 762T297
742T331 719T345 699Q345 671 323 624T261 525T166 424L308 408L340 507Q349 507 362 504T381 498Q381 479 380 456T376 411T372 377Q364 371 349 363T317 350T290 344L127 382L79 344Z" />
<glyph unicode="&#xb3;" horiz-adv-x="348" d="M118 346Q109 346 91 352T57 366T35 381Q36 390 39 398T46 410Q60 408 80 407T115 405Q144 405 171 408T216 415Q221 419 225 433T233 464T236 495Q236 504 225 509T189 521T119 541Q119 551 121 562T130 582L192
577Q201 590 210 614T226 661T234 693Q211 699 174 703T104 708L88 612Q81 611 70 610T53 609Q43 629 35 655T22 708Q41 727 71 741T134 762T192 770Q207 770 228 763T269 744T303 720T316 700Q316 686 309 667T289 627T265 590T244 565V563Q267 557 282 547T306
526T314 501Q314 479 307 454T289 408T269 381Q258 373 232 365T175 352T118 346Z" />
<glyph unicode="&#xb4;" horiz-adv-x="211" d="M30 565Q21 569 13 575T0 587Q33 636 64 673T120 732T152 753Q160 753 172 744T195 722T211 694L30 565Z" />
<glyph unicode="&#xb5;" horiz-adv-x="593" d="M188 -200Q145 -200 125 -167T100 -66T95 103L158 64Q158 22 161 -16T174 -84T201 -134T245 -156Q247 -158 250 -164T255 -176Q240 -189 221 -194T188 -200ZM246 -4Q222 -4 196 7T147 35T110 67T95 92V400Q95 408
92 414T79 424L21 445Q23 457 26 464T32 474Q48 483 75 491T119 500Q147 500 166 480T186 430V120Q197 110 212 98T244 77T273 67Q286 67 308 73T354 88T397 106V400Q397 408 394 415T381 424L313 447Q314 458 317 465T322 474Q333 480 352 486T391 496T421 500Q449
500 468 480T488 430V66L561 58Q563 55 566 49T569 34Q563 25 549 18T518 5T490 0Q464 0 440 14T406 50Q385 37 356 25T297 5T246 -4Z" />
<glyph unicode="&#xb6;" horiz-adv-x="734" d="M278 -200Q266 -200 248 -196T211 -185T181 -171Q181 -163 184 -157T189 -148Q235 -135 280 -112T352 -60V252Q322 251 296 251T251 250Q224 250 196 260T142 285T100 314T78 334Q67 350 59 387T50 470Q50 511 56
548T74 613Q86 624 109 639T164 669T231 694T301 704H663Q667 700 671 691T676 671L633 658Q613 652 603 643T588 618T583 572V-180Q576 -189 557 -194T515 -200V576Q515 618 522 634T532 654H421V-70Q412 -92 394 -114T354 -156T312 -188T278 -200Z" />
<glyph unicode="&#xb7;" horiz-adv-x="252" d="M118 198Q111 198 100 207T78 230T59 257T51 279Q51 287 61 297T86 318T115 335T137 342Q146 342 156 333T177 309T194 282T201 259Q201 249 186 235T152 209T118 198Z" />
<glyph unicode="&#xb8;" horiz-adv-x="191" d="M66 -200Q57 -200 43 -196T16 -187T0 -176Q0 -169 2 -164T5 -157Q40 -157 66 -156T116 -150Q121 -142 123 -128T126 -103Q119 -98 102 -92T66 -79T30 -70Q26 -64 22 -55T17 -35Q27 -16 34 -2T58 37H93L72 -37Q99
-41 126 -51T172 -72T191 -91Q191 -107 185 -130T167 -166Q152 -176 131 -184T93 -196T66 -200Z" />
<glyph unicode="&#xb9;" horiz-adv-x="330" d="M213 346Q208 346 186 348T137 355T86 363T52 371Q52 376 54 383T58 394L98 401Q114 403 121 410T128 444V621Q128 639 130 658T135 686H51Q51 695 52 707T58 726Q92 731 124 739T181 766Q192 766 203 763T219 753Q216
737 212 705T208 643V442Q208 428 206 417T199 401L273 394Q275 391 276 386T278 373Q265 364 245 355T213 346Z" />
<glyph unicode="&#xba;" horiz-adv-x="421" d="M201 346Q179 346 156 355T111 376T76 400T57 417Q51 425 46 447T38 499T34 553Q34 600 38 632T47 690Q63 701 95 718T165 750T237 764Q252 764 272 757T312 739T348 718T370 700Q375 694 378 677T383 637T386 592T387
556Q387 513 384 482T374 423Q362 411 335 393T272 360T201 346ZM212 407Q226 407 245 412T281 424T304 434Q308 444 310 460T313 494T314 530Q314 559 312 586T307 633T301 657Q298 662 283 672T248 691T212 700Q203 700 184 696T147 687T120 679Q118 669 115
651T111 613T109 574Q109 533 114 499T124 457Q127 453 143 441T179 418T212 407Z" />
<glyph unicode="&#xbb;" horiz-adv-x="565" d="M84 41Q79 43 72 50T59 73L247 289L246 228L59 447Q67 460 73 468T84 477Q123 449 163 416T240 352T299 296T321 260Q321 249 299 225T241 169T164 104T84 41ZM277 41Q272 43 265 50T252 73L440 289L439 228L252
447Q260 460 266 468T277 477Q316 449 356 416T433 352T492 296T514 260Q514 249 492 225T434 169T357 104T277 41Z" />
<glyph unicode="&#xbc;" horiz-adv-x="893" d="M213 286Q208 286 186 288T137 295T86 303T52 311Q52 316 54 323T58 334L98 341Q114 343 121 350T128 384V561Q128 579 130 598T135 626H51Q51 635 52 647T58 666Q92 671 124 679T181 706Q192 706 203 703T219 693Q216
677 212 645T208 583V382Q208 368 206 357T199 341L273 334Q275 331 276 326T278 313Q265 304 245 295T213 286ZM303 -96Q284 -96 268 -90T242 -76L471 513Q494 571 511 618T539 701T556 755Q580 751 597 742T621 723L303 -96ZM730 -3Q728 -3 723 -1T713 4Q716
12 720 31T725 70V104H547Q540 107 531 119T518 150L709 407Q722 412 744 415T787 419L804 410Q803 401 802 384T799 345T798 305V156L864 159L871 149Q870 140 867 127T859 105H798V9Q792 7 780 4T754 -1T730 -3ZM584 156H723V279Q723 294 725 308T729 333T734
350L730 353L584 156Z" />
<glyph unicode="&#xbd;" horiz-adv-x="960" d="M213 286Q208 286 186 288T137 295T86 303T52 311Q52 316 54 323T58 334L98 341Q114 343 121 350T128 384V561Q128 579 130 598T135 626H51Q51 635 52 647T58 666Q92 671 124 679T181 706Q192 706 203 703T219 693Q216
677 212 645T208 583V382Q208 368 206 357T199 341L273 334Q275 331 276 326T278 313Q265 304 245 295T213 286ZM303 -96Q284 -96 268 -90T242 -76L471 513Q494 571 511 618T539 701T556 755Q580 751 597 742T621 723L303 -96ZM613 -6Q598 -3 585 9T569 38Q616
70 657 113T729 201T777 283T795 340Q772 347 733 352T663 357L647 262Q640 260 630 259T612 258Q602 279 594 306T582 358Q595 372 616 383T661 403T710 415T753 420Q769 420 790 412T831 392T865 369T879 349Q879 321 857 274T795 175T700 74L842 58L874 157Q883
157 896 154T915 148Q915 129 914 106T910 61T906 27Q898 21 883 13T851 0T824 -6L661 32L613 -6Z" />
<glyph unicode="&#xbe;" horiz-adv-x="911" d="M118 286Q109 286 91 292T57 306T35 321Q36 330 39 338T46 350Q60 348 80 347T115 345Q144 345 171 348T216 355Q221 359 225 373T233 404T236 435Q236 444 225 449T189 461T119 481Q119 491 121 502T130 522L192
517Q201 530 210 554T226 601T234 633Q211 639 174 643T104 648L88 552Q81 551 70 550T53 549Q43 569 35 595T22 648Q41 667 71 681T134 702T192 710Q207 710 228 703T269 684T303 660T316 640Q316 626 309 607T289 567T265 530T244 505V503Q267 497 282 487T306
466T314 441Q314 419 307 394T289 348T269 321Q258 313 232 305T175 292T118 286ZM321 -96Q302 -96 286 -90T260 -76L489 513Q512 571 529 618T557 701T574 755Q598 751 615 742T639 723L321 -96ZM748 -3Q746 -3 741 -1T731 4Q734 12 738 31T743 70V104H565Q558
107 549 119T536 150L727 407Q740 412 762 415T805 419L822 410Q821 401 820 384T817 345T816 305V156L882 159L889 149Q888 140 885 127T877 105H816V9Q810 7 798 4T772 -1T748 -3ZM602 156H741V279Q741 294 743 308T747 333T752 350L748 353L602 156Z" />
<glyph unicode="&#xbf;" horiz-adv-x="519" d="M258 -280Q231 -280 196 -270T125 -243T66 -211Q62 -191 59 -164T56 -105Q56 -66 60 -29T72 30Q83 48 111 66T171 99T228 125T260 141Q261 150 262 165T263 193Q263 211 262 231T258 268Q264 272 276 278T302 286Q316
264 325 233T339 168T344 104Q330 90 304 76T249 48T195 25T159 9Q154 -10 151 -41T148 -107Q148 -130 149 -150T155 -186Q168 -191 185 -195T222 -201T258 -204Q277 -204 297 -202T337 -196T370 -186L387 -63Q395 -58 411 -55T438 -51Q443 -66 449 -96T459 -160T464
-220Q441 -233 407 -247T334 -270T258 -280ZM262 362Q253 362 243 371T222 395T205 422T198 445Q198 452 207 463T229 483T257 500T281 507Q288 507 299 498T322 475T340 447T348 425Q348 417 338 407T313 386T284 369T262 362Z" />
<glyph unicode="&#xc0;" horiz-adv-x="756" d="M226 0Q221 0 203 2T160 7T109 15T59 23T22 32Q22 40 25 48T33 59H42Q54 59 67 68T93 97T120 151T148 235L263 649Q272 658 289 669T328 692T368 712T397 720Q410 720 431 711T474 689T509 663L644 86Q647 75 651
69T670 61L730 57Q732 53 735 50T739 33Q731 26 719 19T692 6T665 0Q656 0 635 3T586 10T532 20T484 30T453 38Q453 46 457 53T464 62H495Q512 62 522 64T535 77T532 117L495 286H239L200 141Q194 120 186 105T168 80T148 67L292 56Q293 53 296 47T299 32Q290 24
277 17T250 5T226 0ZM254 340Q303 341 347 342T426 346T480 352L420 618Q398 633 377 641T336 654L254 340ZM442 769L252 901Q257 915 268 929T292 953T313 963Q323 963 347 942T405 882T476 793Q471 786 461 779T442 769Z" />
<glyph unicode="&#xc1;" horiz-adv-x="756" d="M226 0Q221 0 203 2T160 7T109 15T59 23T22 32Q22 40 25 48T33 59H42Q54 59 67 68T93 97T120 151T148 235L263 649Q272 658 289 669T328 692T368 712T397 720Q410 720 431 711T474 689T509 663L644 86Q647 75 651
69T670 61L730 57Q732 53 735 50T739 33Q731 26 719 19T692 6T665 0Q656 0 635 3T586 10T532 20T484 30T453 38Q453 46 457 53T464 62H495Q512 62 522 64T535 77T532 117L495 286H239L200 141Q194 120 186 105T168 80T148 67L292 56Q293 53 296 47T299 32Q290 24
277 17T250 5T226 0ZM254 340Q303 341 347 342T426 346T480 352L420 618Q398 633 377 641T336 654L254 340ZM310 769Q298 773 290 780T277 793Q313 843 346 881T405 941T439 963Q447 963 460 954T484 930T501 901L310 769Z" />
<glyph unicode="&#xc2;" horiz-adv-x="756" d="M226 0Q221 0 203 2T160 7T109 15T59 23T22 32Q22 40 25 48T33 59H42Q54 59 67 68T93 97T120 151T148 235L263 649Q272 658 289 669T328 692T368 712T397 720Q410 720 431 711T474 689T509 663L644 86Q647 75 651
69T670 61L730 57Q732 53 735 50T739 33Q731 26 719 19T692 6T665 0Q656 0 635 3T586 10T532 20T484 30T453 38Q453 46 457 53T464 62H495Q512 62 522 64T535 77T532 117L495 286H239L200 141Q194 120 186 105T168 80T148 67L292 56Q293 53 296 47T299 32Q290 24
277 17T250 5T226 0ZM254 340Q303 341 347 342T426 346T480 352L420 618Q398 633 377 641T336 654L254 340ZM256 771Q246 775 239 781T228 794Q268 848 297 886T346 944T379 964Q392 964 412 943T462 884T529 794Q526 789 519 782T500 771L378 872L256 771Z" />
<glyph unicode="&#xc3;" horiz-adv-x="756" d="M226 0Q221 0 203 2T160 7T109 15T59 23T22 32Q22 40 25 48T33 59H42Q54 59 67 68T93 97T120 151T148 235L263 649Q272 658 289 669T328 692T368 712T397 720Q410 720 431 711T474 689T509 663L644 86Q647 75 651
69T670 61L730 57Q732 53 735 50T739 33Q731 26 719 19T692 6T665 0Q656 0 635 3T586 10T532 20T484 30T453 38Q453 46 457 53T464 62H495Q512 62 522 64T535 77T532 117L495 286H239L200 141Q194 120 186 105T168 80T148 67L292 56Q293 53 296 47T299 32Q290 24
277 17T250 5T226 0ZM254 340Q303 341 347 342T426 346T480 352L420 618Q398 633 377 641T336 654L254 340ZM471 779Q459 779 427 789T357 813T286 840L212 788Q206 790 200 794T190 808Q203 829 220 852T254 891T283 907Q296 907 328 898T400 875T473 849L541
911Q550 908 557 903T567 894Q554 869 536 843T501 798T471 779Z" />
<glyph unicode="&#xc4;" horiz-adv-x="756" d="M226 0Q221 0 203 2T160 7T109 15T59 23T22 32Q22 40 25 48T33 59H42Q54 59 67 68T93 97T120 151T148 235L263 649Q272 658 289 669T328 692T368 712T397 720Q410 720 431 711T474 689T509 663L644 86Q647 75 651
69T670 61L730 57Q732 53 735 50T739 33Q731 26 719 19T692 6T665 0Q656 0 635 3T586 10T532 20T484 30T453 38Q453 46 457 53T464 62H495Q512 62 522 64T535 77T532 117L495 286H239L200 141Q194 120 186 105T168 80T148 67L292 56Q293 53 296 47T299 32Q290 24
277 17T250 5T226 0ZM254 340Q303 341 347 342T426 346T480 352L420 618Q398 633 377 641T336 654L254 340ZM476 783Q469 783 459 791T438 812T421 836T414 856Q414 863 423 872T446 891T473 906T493 912Q501 912 511 904T530 883T546 858T552 837Q552 831 544
822T523 804T498 789T476 783ZM267 783Q260 783 250 791T229 811T212 836T205 856Q205 863 214 872T237 891T264 906T285 912Q293 912 302 904T322 883T338 859T344 838Q344 831 336 822T315 804T289 789T267 783Z" />
<glyph unicode="&#xc5;" horiz-adv-x="756" d="M226 0Q221 0 203 2T160 7T109 15T59 23T22 32Q22 40 25 48T33 59H42Q54 59 67 68T93 97T120 151T148 235L263 649Q272 658 289 669T328 692T368 712T397 720Q410 720 431 711T474 689T509 663L644 86Q647 75 651
69T670 61L730 57Q732 53 735 50T739 33Q731 26 719 19T692 6T665 0Q656 0 635 3T586 10T532 20T484 30T453 38Q453 46 457 53T464 62H495Q512 62 522 64T535 77T532 117L495 286H239L200 141Q194 120 186 105T168 80T148 67L292 56Q293 53 296 47T299 32Q290 24
277 17T250 5T226 0ZM254 340Q303 341 347 342T426 346T480 352L420 618Q398 633 377 641T336 654L254 340ZM379 768Q335 768 306 795T276 863Q276 904 305 931T379 959Q424 959 453 932T482 863Q482 822 453 795T379 768ZM379 815Q402 815 416 828T431 863Q431
886 417 899T379 912Q356 912 342 899T328 863Q328 841 342 828T379 815Z" />
<glyph unicode="&#xc6;" horiz-adv-x="986" d="M208 0Q201 0 178 3T126 11T68 21T22 32Q22 40 25 48T32 60H46Q56 60 66 64T89 85T116 134T146 223L263 636Q271 644 287 655T322 678T359 696T386 704H803Q828 696 854 682T894 652Q890 594 882 550T866 485Q850
485 835 488T813 495L789 636Q775 639 752 641T702 646T646 651T593 653Q556 653 540 649T522 631T526 590L574 380Q626 385 668 390T745 402T803 413L813 403Q812 383 809 365T801 339L589 318L626 154Q634 119 631 98T617 68H841L894 233Q911 233 925 229T947
218Q947 192 946 160T942 97T936 44Q928 36 913 26T881 8T854 0Q831 0 798 1T725 5T646 10T568 17T501 25T452 32Q452 41 455 48T462 58L484 61Q500 63 512 68T530 87T528 128L488 308L234 285L194 139Q187 114 178 99T161 76T147 66L276 55Q279 52 281 46T284
32Q276 24 262 17T234 5T208 0ZM248 342Q278 345 303 347T353 352T407 358T473 367L413 641Q382 641 360 636T324 624L248 342Z" />
<glyph unicode="&#xc7;" horiz-adv-x="665" d="M357 0Q328 0 291 10T218 37T155 70T116 100Q92 129 79 188T66 321Q66 381 72 439T89 543T109 613Q131 632 165 650T239 685T319 710T394 720Q433 720 473 711T547 686T602 656Q599 597 592 552T578 484Q554 486
541 489T521 495L500 618Q486 626 463 633T417 644T377 649Q355 649 324 643T262 628T210 607Q198 579 190 538T177 450T173 360Q173 315 177 274T190 199T208 143Q217 133 238 121T285 98T336 80T382 73Q400 73 421 75T462 81T493 90L544 239Q562 239 577 234T601
225Q601 200 599 172T593 115T587 64Q568 52 534 37T455 11T357 0ZM363 -200Q354 -200 340 -196T313 -187T297 -176Q297 -169 299 -164T302 -157Q337 -157 363 -156T413 -150Q418 -142 420 -128T423 -103Q416 -98 399 -92T363 -79T327 -70Q323 -64 319 -55T314
-35Q324 -16 331 -2T355 37H390L369 -37Q396 -41 423 -51T469 -72T488 -91Q488 -107 482 -130T464 -166Q449 -176 428 -184T390 -196T363 -200Z" />
<glyph unicode="&#xc8;" horiz-adv-x="666" d="M511 0Q488 0 451 1T369 5T278 11T188 17T109 25T53 32Q53 40 56 47T63 58L90 62Q110 64 120 72T134 100T138 158V572Q138 599 141 615T149 641T156 651H64Q61 655 58 660T53 673Q58 679 70 686T94 698T113 704H509Q535
695 559 681T598 652Q595 593 586 550T570 485Q552 485 538 488T516 495L493 636Q473 640 442 643T375 649T300 652Q274 652 261 641T244 612T240 573V391Q286 392 324 393T396 398T457 404L467 393Q465 373 462 356T455 332H240V134Q240 111 235 93T223 68H495L550
233Q568 233 583 228T603 218Q603 191 601 160T597 98T590 44Q582 35 567 26T536 8T511 0ZM414 769L224 901Q229 915 240 929T264 953T285 963Q295 963 319 942T377 882T448 793Q443 786 433 779T414 769Z" />
<glyph unicode="&#xc9;" horiz-adv-x="666" d="M511 0Q488 0 451 1T369 5T278 11T188 17T109 25T53 32Q53 40 56 47T63 58L90 62Q110 64 120 72T134 100T138 158V572Q138 599 141 615T149 641T156 651H64Q61 655 58 660T53 673Q58 679 70 686T94 698T113 704H509Q535
695 559 681T598 652Q595 593 586 550T570 485Q552 485 538 488T516 495L493 636Q473 640 442 643T375 649T300 652Q274 652 261 641T244 612T240 573V391Q286 392 324 393T396 398T457 404L467 393Q465 373 462 356T455 332H240V134Q240 111 235 93T223 68H495L550
233Q568 233 583 228T603 218Q603 191 601 160T597 98T590 44Q582 35 567 26T536 8T511 0ZM283 769Q271 773 263 780T250 793Q286 843 319 881T378 941T412 963Q420 963 433 954T457 930T474 901L283 769Z" />
<glyph unicode="&#xca;" horiz-adv-x="666" d="M511 0Q488 0 451 1T369 5T278 11T188 17T109 25T53 32Q53 40 56 47T63 58L90 62Q110 64 120 72T134 100T138 158V572Q138 599 141 615T149 641T156 651H64Q61 655 58 660T53 673Q58 679 70 686T94 698T113 704H509Q535
695 559 681T598 652Q595 593 586 550T570 485Q552 485 538 488T516 495L493 636Q473 640 442 643T375 649T300 652Q274 652 261 641T244 612T240 573V391Q286 392 324 393T396 398T457 404L467 393Q465 373 462 356T455 332H240V134Q240 111 235 93T223 68H495L550
233Q568 233 583 228T603 218Q603 191 601 160T597 98T590 44Q582 35 567 26T536 8T511 0ZM228 771Q218 775 211 781T200 794Q240 848 269 886T318 944T351 964Q364 964 384 943T434 884T501 794Q498 789 491 782T472 771L350 872L228 771Z" />
<glyph unicode="&#xcb;" horiz-adv-x="666" d="M511 0Q488 0 451 1T369 5T278 11T188 17T109 25T53 32Q53 40 56 47T63 58L90 62Q110 64 120 72T134 100T138 158V572Q138 599 141 615T149 641T156 651H64Q61 655 58 660T53 673Q58 679 70 686T94 698T113 704H509Q535
695 559 681T598 652Q595 593 586 550T570 485Q552 485 538 488T516 495L493 636Q473 640 442 643T375 649T300 652Q274 652 261 641T244 612T240 573V391Q286 392 324 393T396 398T457 404L467 393Q465 373 462 356T455 332H240V134Q240 111 235 93T223 68H495L550
233Q568 233 583 228T603 218Q603 191 601 160T597 98T590 44Q582 35 567 26T536 8T511 0ZM448 783Q441 783 431 791T410 812T393 836T386 856Q386 863 395 872T418 891T445 906T465 912Q473 912 483 904T502 883T518 858T524 837Q524 831 516 822T495 804T470
789T448 783ZM239 783Q232 783 222 791T201 811T184 836T177 856Q177 863 186 872T209 891T236 906T257 912Q265 912 274 904T294 883T310 859T316 838Q316 831 308 822T287 804T261 789T239 783Z" />
<glyph unicode="&#xcc;" horiz-adv-x="383" d="M251 0Q244 0 225 2T180 8T129 16T83 25T53 32Q53 40 56 47T63 58L90 61Q110 64 120 72T134 100T138 158V574Q138 618 146 633T156 651H64Q62 655 59 659T53 673Q58 679 70 686T94 698T113 704H318Q323 699 327 690T331
669L289 656Q269 650 259 640T244 614T240 569V133Q240 109 235 92T223 67L322 56Q324 54 326 47T329 32Q314 20 291 10T251 0ZM255 769L65 901Q70 915 81 929T105 953T126 963Q136 963 160 942T218 882T289 793Q284 786 274 779T255 769Z" />
<glyph unicode="&#xcd;" horiz-adv-x="383" d="M251 0Q244 0 225 2T180 8T129 16T83 25T53 32Q53 40 56 47T63 58L90 61Q110 64 120 72T134 100T138 158V574Q138 618 146 633T156 651H64Q62 655 59 659T53 673Q58 679 70 686T94 698T113 704H318Q323 699 327 690T331
669L289 656Q269 650 259 640T244 614T240 569V133Q240 109 235 92T223 67L322 56Q324 54 326 47T329 32Q314 20 291 10T251 0ZM124 769Q112 773 104 780T91 793Q127 843 160 881T219 941T253 963Q261 963 274 954T298 930T315 901L124 769Z" />
<glyph unicode="&#xce;" horiz-adv-x="383" d="M251 0Q244 0 225 2T180 8T129 16T83 25T53 32Q53 40 56 47T63 58L90 61Q110 64 120 72T134 100T138 158V574Q138 618 146 633T156 651H64Q62 655 59 659T53 673Q58 679 70 686T94 698T113 704H318Q323 699 327 690T331
669L289 656Q269 650 259 640T244 614T240 569V133Q240 109 235 92T223 67L322 56Q324 54 326 47T329 32Q314 20 291 10T251 0ZM69 771Q59 775 52 781T41 794Q81 848 110 886T159 944T192 964Q205 964 225 943T275 884T342 794Q339 789 332 782T313 771L191 872L69
771Z" />
<glyph unicode="&#xcf;" horiz-adv-x="383" d="M251 0Q244 0 225 2T180 8T129 16T83 25T53 32Q53 40 56 47T63 58L90 61Q110 64 120 72T134 100T138 158V574Q138 618 146 633T156 651H64Q62 655 59 659T53 673Q58 679 70 686T94 698T113 704H318Q323 699 327 690T331
669L289 656Q269 650 259 640T244 614T240 569V133Q240 109 235 92T223 67L322 56Q324 54 326 47T329 32Q314 20 291 10T251 0ZM289 783Q282 783 272 791T251 812T234 836T227 856Q227 863 236 872T259 891T286 906T306 912Q314 912 324 904T343 883T359 858T365
837Q365 831 357 822T336 804T311 789T289 783ZM80 783Q73 783 63 791T42 811T25 836T18 856Q18 863 27 872T50 891T77 906T98 912Q106 912 115 904T135 883T151 859T157 838Q157 831 149 822T128 804T102 789T80 783Z" />
<glyph unicode="&#xd0;" horiz-adv-x="754" d="M220 329L137 330H53Q53 351 56 362T64 375L137 376L220 380Q282 381 334 384T430 393L439 385Q438 365 435 350T428 329H220ZM476 0Q447 0 404 2T311 8T212 15T122 24T59 32Q59 40 62 47T68 58L96 62Q115 64 125
72T139 100T144 158V572Q144 599 147 615T155 641T162 651H69Q65 655 62 661T58 673Q64 679 76 686T100 698T119 704H500Q516 700 536 692T576 673T613 650T640 627Q668 575 678 511T688 384Q688 323 681 267T661 166T633 91Q619 77 599 62T557 35T514 13T476 0ZM229
68H508Q526 83 539 112T562 181T576 265T581 355Q581 403 578 445T567 524T546 589T513 633Q495 638 460 642T384 649T304 652Q269 652 257 631T245 573V134Q245 111 240 93T229 68Z" />
<glyph unicode="&#xd1;" horiz-adv-x="801" d="M236 0Q228 0 204 3T150 12T94 22T53 32Q53 40 56 47T63 58L90 61Q110 64 120 73T134 104T138 164V573Q138 608 144 627T156 651H64Q61 655 58 660T53 673Q58 679 70 686T94 698T113 704H256L616 144Q612 164 610
194T607 277V570Q607 604 613 624T625 648H530Q528 652 524 656T519 670Q524 677 536 684T561 698T579 704H752Q757 698 760 689T764 669L723 656Q702 650 692 640T679 612T675 562V180Q675 128 678 86T685 27Q674 18 657 12T621 4T588 0L261 510Q239 546 228 572T215
610H209Q208 606 207 592T205 547V134Q205 111 200 94T189 70L313 56Q315 54 317 47T319 32Q309 23 294 16T263 4T236 0ZM500 779Q488 779 456 789T386 813T315 840L241 788Q235 790 229 794T219 808Q232 829 249 852T283 891T312 907Q325 907 357 898T429 875T502
849L570 911Q579 908 586 903T596 894Q583 869 565 843T530 798T500 779Z" />
<glyph unicode="&#xd2;" horiz-adv-x="744" d="M355 0Q326 0 290 10T218 36T156 69T115 102Q90 134 78 193T66 323Q66 381 72 437T88 540T109 613Q132 630 164 648T237 683T320 710T405 720Q430 720 463 712T531 689T594 658T636 625Q650 600 659 565T673 487T678
400Q678 342 672 286T655 182T631 104Q608 84 565 60T468 18T355 0ZM378 70Q405 70 436 78T493 97T532 118Q543 145 551 185T564 272T569 371Q569 435 562 489T544 580Q539 587 520 598T476 621T424 640T377 648Q353 648 321 642T259 626T208 607Q197 579 189 540T177
454T173 362Q173 299 181 240T208 141Q217 131 238 119T284 95T335 77T378 70ZM436 769L246 901Q251 915 262 929T286 953T307 963Q317 963 341 942T399 882T470 793Q465 786 455 779T436 769Z" />
<glyph unicode="&#xd3;" horiz-adv-x="744" d="M355 0Q326 0 290 10T218 36T156 69T115 102Q90 134 78 193T66 323Q66 381 72 437T88 540T109 613Q132 630 164 648T237 683T320 710T405 720Q430 720 463 712T531 689T594 658T636 625Q650 600 659 565T673 487T678
400Q678 342 672 286T655 182T631 104Q608 84 565 60T468 18T355 0ZM378 70Q405 70 436 78T493 97T532 118Q543 145 551 185T564 272T569 371Q569 435 562 489T544 580Q539 587 520 598T476 621T424 640T377 648Q353 648 321 642T259 626T208 607Q197 579 189 540T177
454T173 362Q173 299 181 240T208 141Q217 131 238 119T284 95T335 77T378 70ZM304 769Q292 773 284 780T271 793Q307 843 340 881T399 941T433 963Q441 963 454 954T478 930T495 901L304 769Z" />
<glyph unicode="&#xd4;" horiz-adv-x="744" d="M355 0Q326 0 290 10T218 36T156 69T115 102Q90 134 78 193T66 323Q66 381 72 437T88 540T109 613Q132 630 164 648T237 683T320 710T405 720Q430 720 463 712T531 689T594 658T636 625Q650 600 659 565T673 487T678
400Q678 342 672 286T655 182T631 104Q608 84 565 60T468 18T355 0ZM378 70Q405 70 436 78T493 97T532 118Q543 145 551 185T564 272T569 371Q569 435 562 489T544 580Q539 587 520 598T476 621T424 640T377 648Q353 648 321 642T259 626T208 607Q197 579 189 540T177
454T173 362Q173 299 181 240T208 141Q217 131 238 119T284 95T335 77T378 70ZM250 771Q240 775 233 781T222 794Q262 848 291 886T340 944T373 964Q386 964 406 943T456 884T523 794Q520 789 513 782T494 771L372 872L250 771Z" />
<glyph unicode="&#xd5;" horiz-adv-x="744" d="M355 0Q326 0 290 10T218 36T156 69T115 102Q90 134 78 193T66 323Q66 381 72 437T88 540T109 613Q132 630 164 648T237 683T320 710T405 720Q430 720 463 712T531 689T594 658T636 625Q650 600 659 565T673 487T678
400Q678 342 672 286T655 182T631 104Q608 84 565 60T468 18T355 0ZM378 70Q405 70 436 78T493 97T532 118Q543 145 551 185T564 272T569 371Q569 435 562 489T544 580Q539 587 520 598T476 621T424 640T377 648Q353 648 321 642T259 626T208 607Q197 579 189 540T177
454T173 362Q173 299 181 240T208 141Q217 131 238 119T284 95T335 77T378 70ZM465 779Q453 779 421 789T351 813T280 840L206 788Q200 790 194 794T184 808Q197 829 214 852T248 891T277 907Q290 907 322 898T394 875T467 849L535 911Q544 908 551 903T561 894Q548
869 530 843T495 798T465 779Z" />
<glyph unicode="&#xd6;" horiz-adv-x="744" d="M355 0Q326 0 290 10T218 36T156 69T115 102Q90 134 78 193T66 323Q66 381 72 437T88 540T109 613Q132 630 164 648T237 683T320 710T405 720Q430 720 463 712T531 689T594 658T636 625Q650 600 659 565T673 487T678
400Q678 342 672 286T655 182T631 104Q608 84 565 60T468 18T355 0ZM378 70Q405 70 436 78T493 97T532 118Q543 145 551 185T564 272T569 371Q569 435 562 489T544 580Q539 587 520 598T476 621T424 640T377 648Q353 648 321 642T259 626T208 607Q197 579 189 540T177
454T173 362Q173 299 181 240T208 141Q217 131 238 119T284 95T335 77T378 70ZM470 783Q463 783 453 791T432 812T415 836T408 856Q408 863 417 872T440 891T467 906T487 912Q495 912 505 904T524 883T540 858T546 837Q546 831 538 822T517 804T492 789T470 783ZM261
783Q254 783 244 791T223 811T206 836T199 856Q199 863 208 872T231 891T258 906T279 912Q287 912 296 904T316 883T332 859T338 838Q338 831 330 822T309 804T283 789T261 783Z" />
<glyph unicode="&#xd7;" horiz-adv-x="516" d="M108 111Q94 119 85 128T71 147L221 294L73 438Q82 449 95 460T121 479L261 334Q288 360 314 387T362 439T396 478Q415 468 428 455T447 429L297 294L436 147Q432 140 424 130T401 112L258 255L108 111Z" />
<glyph unicode="&#xd8;" horiz-adv-x="744" d="M232 -94Q214 -94 201 -88T181 -76L399 513Q420 569 440 626T478 732T506 812Q530 809 543 800T562 783L232 -94ZM355 0Q326 0 290 10T218 36T156 69T115 102Q90 134 78 193T66 323Q66 381 72 437T88 540T109 613Q132
630 164 648T237 683T320 710T405 720Q430 720 463 712T531 689T594 658T636 625Q650 600 659 565T673 487T678 400Q678 342 672 286T655 182T631 104Q608 84 565 60T468 18T355 0ZM378 70Q405 70 436 78T493 97T532 118Q543 145 551 185T564 272T569 371Q569 435
562 489T544 580Q539 587 520 598T476 621T424 640T377 648Q353 648 321 642T259 626T208 607Q197 579 189 540T177 454T173 362Q173 299 181 240T208 141Q217 131 238 119T284 95T335 77T378 70Z" />
<glyph unicode="&#xd9;" horiz-adv-x="764" d="M382 0Q347 0 305 12T224 43T159 81T131 113V572Q131 609 137 628T148 651H56Q53 655 49 659T44 673Q50 679 62 686T86 698T105 704H310Q314 699 318 691T323 669L281 656Q260 650 250 640T236 613T232 569V140Q242
127 263 115T311 93T361 77T401 71Q431 71 465 80T528 102T568 128V572Q568 608 575 627T586 651H497Q493 655 490 660T486 673Q492 679 503 686T527 699T546 704H715Q720 699 724 690T728 669L685 656Q666 651 656 642T642 614T638 562V110Q628 95 604 76T545
40T468 12T382 0ZM469 769L279 901Q284 915 295 929T319 953T340 963Q350 963 374 942T432 882T503 793Q498 786 488 779T469 769Z" />
<glyph unicode="&#xda;" horiz-adv-x="764" d="M382 0Q347 0 305 12T224 43T159 81T131 113V572Q131 609 137 628T148 651H56Q53 655 49 659T44 673Q50 679 62 686T86 698T105 704H310Q314 699 318 691T323 669L281 656Q260 650 250 640T236 613T232 569V140Q242
127 263 115T311 93T361 77T401 71Q431 71 465 80T528 102T568 128V572Q568 608 575 627T586 651H497Q493 655 490 660T486 673Q492 679 503 686T527 699T546 704H715Q720 699 724 690T728 669L685 656Q666 651 656 642T642 614T638 562V110Q628 95 604 76T545
40T468 12T382 0ZM337 769Q325 773 317 780T304 793Q340 843 373 881T432 941T466 963Q474 963 487 954T511 930T528 901L337 769Z" />
<glyph unicode="&#xdb;" horiz-adv-x="764" d="M382 0Q347 0 305 12T224 43T159 81T131 113V572Q131 609 137 628T148 651H56Q53 655 49 659T44 673Q50 679 62 686T86 698T105 704H310Q314 699 318 691T323 669L281 656Q260 650 250 640T236 613T232 569V140Q242
127 263 115T311 93T361 77T401 71Q431 71 465 80T528 102T568 128V572Q568 608 575 627T586 651H497Q493 655 490 660T486 673Q492 679 503 686T527 699T546 704H715Q720 699 724 690T728 669L685 656Q666 651 656 642T642 614T638 562V110Q628 95 604 76T545
40T468 12T382 0ZM283 771Q273 775 266 781T255 794Q295 848 324 886T373 944T406 964Q419 964 439 943T489 884T556 794Q553 789 546 782T527 771L405 872L283 771Z" />
<glyph unicode="&#xdc;" horiz-adv-x="764" d="M382 0Q347 0 305 12T224 43T159 81T131 113V572Q131 609 137 628T148 651H56Q53 655 49 659T44 673Q50 679 62 686T86 698T105 704H310Q314 699 318 691T323 669L281 656Q260 650 250 640T236 613T232 569V140Q242
127 263 115T311 93T361 77T401 71Q431 71 465 80T528 102T568 128V572Q568 608 575 627T586 651H497Q493 655 490 660T486 673Q492 679 503 686T527 699T546 704H715Q720 699 724 690T728 669L685 656Q666 651 656 642T642 614T638 562V110Q628 95 604 76T545
40T468 12T382 0ZM503 783Q496 783 486 791T465 812T448 836T441 856Q441 863 450 872T473 891T500 906T520 912Q528 912 538 904T557 883T573 858T579 837Q579 831 571 822T550 804T525 789T503 783ZM294 783Q287 783 277 791T256 811T239 836T232 856Q232 863
241 872T264 891T291 906T312 912Q320 912 329 904T349 883T365 859T371 838Q371 831 363 822T342 804T316 789T294 783Z" />
<glyph unicode="&#xdd;" horiz-adv-x="670" d="M403 0Q395 0 376 2T331 8T280 16T234 25T204 32Q204 40 207 47T213 58L242 61Q260 64 270 71T285 98T290 159V289L102 623Q93 639 83 645T52 651H19Q17 654 13 659T8 673Q13 679 25 686T50 699T70 704H301Q305 698
309 689T313 669L262 657Q246 653 234 647T221 624Q221 620 224 610T233 587L349 371H354Q388 460 412 518T454 613T487 670T519 704H662Q667 698 670 690T674 670L638 661Q615 655 597 646T559 616T517 557T464 455T392 295V133Q392 110 387 92T375 67L474 56Q476
53 478 48T481 32Q466 20 444 10T403 0ZM282 769Q270 773 262 780T249 793Q285 843 318 881T377 941T411 963Q419 963 432 954T456 930T473 901L282 769Z" />
<glyph unicode="&#xde;" horiz-adv-x="616" d="M251 0Q244 0 225 2T180 8T129 16T83 25T53 32Q53 40 56 47T63 58L91 61Q108 64 118 70T133 97T138 159V572Q138 599 141 615T149 641T156 651H64Q60 655 57 661T53 673Q58 679 70 686T94 698T113 704H320Q325 699
329 690T334 669L291 656Q261 646 251 628T240 568V540H440Q462 534 486 523T533 497T569 466Q577 449 580 427T584 384Q584 349 574 313T548 256Q535 245 511 231T459 204T401 189H240V133Q240 109 235 92T223 67L322 56Q324 54 326 47T329 32Q314 19 291 10T251
0ZM240 244Q307 244 361 247T453 257Q466 277 474 308T483 372Q483 404 476 429T456 470Q439 477 412 480T357 486T305 488Q269 488 255 467T240 411V244Z" />
<glyph unicode="&#xdf;" horiz-adv-x="596" d="M193 0Q186 0 166 3T121 11T74 22T39 32Q39 40 42 46T48 55L75 59Q91 62 101 77T111 137V448L44 455Q44 469 47 479T54 493L115 500L107 713Q111 721 126 732T163 755T209 777T256 793T294 800Q310 800 336 787T392
752T448 708T490 665T507 634Q507 610 493 586T447 531T365 460Q364 450 363 439T362 416Q362 403 363 391T366 364Q369 360 387 349T433 322T488 287T540 251T573 219Q576 210 577 198T579 173Q579 142 573 112T561 68Q550 55 528 39T479 12T425 0Q401 0 376 9T329
33T292 59T271 78Q271 98 280 122T300 160Q310 160 317 157T326 152Q331 136 343 112T366 73Q375 70 387 69T414 67Q434 67 457 70T495 84Q498 94 500 111T502 145Q502 157 502 167T499 186Q495 192 475 205T426 236T368 270T318 301T290 322Q288 336 287 350T286
377Q286 407 287 428T293 462Q341 510 370 540T413 588T427 619Q427 626 417 640T390 669T355 699T323 723T301 732Q286 732 263 729T219 722T182 713L191 500V119Q191 97 187 83T178 61L239 52Q241 49 244 44T247 33Q240 21 223 11T193 0Z" />
<glyph unicode="&#xe0;" horiz-adv-x="537" d="M195 -4Q177 -4 151 8T104 35T75 58Q67 68 62 94T57 151Q57 163 57 173T59 194Q61 199 71 209T97 232T127 253T154 264Q162 266 179 267T219 269Q233 270 248 271T280 275T311 279T341 285V400Q314 413 278 421T213
429Q203 429 194 428T176 426L149 343Q145 342 137 339T111 333Q102 345 89 369T71 422Q91 441 117 455T171 479T228 494T281 500Q297 500 322 491T372 468T415 439T433 412V66L505 58Q507 55 510 49T513 34Q507 25 493 18T463 5T435 0Q418 0 401 7T370 27T350
55Q327 42 297 29T239 6T195 -4ZM225 68Q237 68 259 73T304 87T341 102V227Q318 223 292 220T242 214Q214 211 187 207T147 193Q147 175 147 149T156 104Q165 94 185 81T225 68ZM331 565L152 694Q157 708 167 721T190 744T209 753Q218 753 241 733T297 675T363
587Q359 583 350 576T331 565Z" />
<glyph unicode="&#xe1;" horiz-adv-x="537" d="M195 -4Q177 -4 151 8T104 35T75 58Q67 68 62 94T57 151Q57 163 57 173T59 194Q61 199 71 209T97 232T127 253T154 264Q162 266 179 267T219 269Q233 270 248 271T280 275T311 279T341 285V400Q314 413 278 421T213
429Q203 429 194 428T176 426L149 343Q145 342 137 339T111 333Q102 345 89 369T71 422Q91 441 117 455T171 479T228 494T281 500Q297 500 322 491T372 468T415 439T433 412V66L505 58Q507 55 510 49T513 34Q507 25 493 18T463 5T435 0Q418 0 401 7T370 27T350
55Q327 42 297 29T239 6T195 -4ZM225 68Q237 68 259 73T304 87T341 102V227Q318 223 292 220T242 214Q214 211 187 207T147 193Q147 175 147 149T156 104Q165 94 185 81T225 68ZM205 565Q196 569 188 575T175 587Q208 636 239 673T295 732T327 753Q335 753 347
744T370 722T386 694L205 565Z" />
<glyph unicode="&#xe2;" horiz-adv-x="537" d="M195 -4Q177 -4 151 8T104 35T75 58Q67 68 62 94T57 151Q57 163 57 173T59 194Q61 199 71 209T97 232T127 253T154 264Q162 266 179 267T219 269Q233 270 248 271T280 275T311 279T341 285V400Q314 413 278 421T213
429Q203 429 194 428T176 426L149 343Q145 342 137 339T111 333Q102 345 89 369T71 422Q91 441 117 455T171 479T228 494T281 500Q297 500 322 491T372 468T415 439T433 412V66L505 58Q507 55 510 49T513 34Q507 25 493 18T463 5T435 0Q418 0 401 7T370 27T350
55Q327 42 297 29T239 6T195 -4ZM225 68Q237 68 259 73T304 87T341 102V227Q318 223 292 220T242 214Q214 211 187 207T147 193Q147 175 147 149T156 104Q165 94 185 81T225 68ZM157 567Q146 572 140 578T130 589Q166 642 193 679T240 736T271 756Q283 756 302
736T349 679T412 589Q408 584 402 578T384 567L270 668L157 567Z" />
<glyph unicode="&#xe3;" horiz-adv-x="537" d="M195 -4Q177 -4 151 8T104 35T75 58Q67 68 62 94T57 151Q57 163 57 173T59 194Q61 199 71 209T97 232T127 253T154 264Q162 266 179 267T219 269Q233 270 248 271T280 275T311 279T341 285V400Q314 413 278 421T213
429Q203 429 194 428T176 426L149 343Q145 342 137 339T111 333Q102 345 89 369T71 422Q91 441 117 455T171 479T228 494T281 500Q297 500 322 491T372 468T415 439T433 412V66L505 58Q507 55 510 49T513 34Q507 25 493 18T463 5T435 0Q418 0 401 7T370 27T350
55Q327 42 297 29T239 6T195 -4ZM225 68Q237 68 259 73T304 87T341 102V227Q318 223 292 220T242 214Q214 211 187 207T147 193Q147 175 147 149T156 104Q165 94 185 81T225 68ZM364 575Q352 575 320 585T250 609T179 636L105 584Q99 586 93 590T83 604Q96 625
113 648T147 687T176 703Q189 703 221 694T293 671T366 645L434 707Q443 704 450 699T460 690Q447 665 429 639T394 594T364 575Z" />
<glyph unicode="&#xe4;" horiz-adv-x="537" d="M195 -4Q177 -4 151 8T104 35T75 58Q67 68 62 94T57 151Q57 163 57 173T59 194Q61 199 71 209T97 232T127 253T154 264Q162 266 179 267T219 269Q233 270 248 271T280 275T311 279T341 285V400Q314 413 278 421T213
429Q203 429 194 428T176 426L149 343Q145 342 137 339T111 333Q102 345 89 369T71 422Q91 441 117 455T171 479T228 494T281 500Q297 500 322 491T372 468T415 439T433 412V66L505 58Q507 55 510 49T513 34Q507 25 493 18T463 5T435 0Q418 0 401 7T370 27T350
55Q327 42 297 29T239 6T195 -4ZM225 68Q237 68 259 73T304 87T341 102V227Q318 223 292 220T242 214Q214 211 187 207T147 193Q147 175 147 149T156 104Q165 94 185 81T225 68ZM362 582Q356 582 346 590T327 609T311 632T305 651Q305 659 313 668T334 685T359
699T378 705Q386 705 395 697T413 677T427 654T433 634Q433 626 420 614T391 592T362 582ZM167 582Q160 582 151 589T132 609T116 632T109 651Q109 659 118 668T139 685T164 699T184 705Q190 705 199 697T218 677T233 654T239 634Q239 626 226 614T195 592T167
582Z" />
<glyph unicode="&#xe5;" horiz-adv-x="537" d="M195 -4Q177 -4 151 8T104 35T75 58Q67 68 62 94T57 151Q57 163 57 173T59 194Q61 199 71 209T97 232T127 253T154 264Q162 266 179 267T219 269Q233 270 248 271T280 275T311 279T341 285V400Q314 413 278 421T213
429Q203 429 194 428T176 426L149 343Q145 342 137 339T111 333Q102 345 89 369T71 422Q91 441 117 455T171 479T228 494T281 500Q297 500 322 491T372 468T415 439T433 412V66L505 58Q507 55 510 49T513 34Q507 25 493 18T463 5T435 0Q418 0 401 7T370 27T350
55Q327 42 297 29T239 6T195 -4ZM225 68Q237 68 259 73T304 87T341 102V227Q318 223 292 220T242 214Q214 211 187 207T147 193Q147 175 147 149T156 104Q165 94 185 81T225 68ZM272 564Q228 564 199 591T169 659Q169 700 198 727T272 755Q317 755 346 728T375
659Q375 618 346 591T272 564ZM272 611Q295 611 309 624T324 659Q324 682 310 695T272 708Q249 708 235 695T221 659Q221 637 235 624T272 611Z" />
<glyph unicode="&#xe6;" horiz-adv-x="751" d="M212 0Q197 0 176 6T134 22T97 42T75 58Q67 67 62 92T57 151Q57 163 57 173T59 194Q60 199 71 209T97 232T128 253T154 264Q164 265 180 266T217 269T260 272T304 275T341 278V400Q315 413 279 421T212 429Q203 429
194 428T176 426L149 343Q145 342 137 339T111 333Q101 345 89 368T71 422Q90 441 116 455T171 479T228 494T281 500Q297 500 321 491T370 469T411 443Q435 456 464 469T523 491T580 500Q596 500 621 489T667 463T697 438Q703 430 707 408T715 359T718 313Q709
299 694 286T665 263T640 247Q612 243 557 237T429 228Q430 194 435 166T445 129Q449 125 462 116T493 97T527 80T555 72Q566 72 586 75T627 82T667 91T693 97Q699 92 702 85T706 70Q687 54 661 38T605 11T543 0Q520 0 495 7T448 26T407 49T378 71Q357 56 331 40T274
12T212 0ZM237 72Q248 72 268 76T308 87T341 99V224Q321 222 293 220T235 216T182 209T147 196Q147 176 147 150T156 104Q162 100 175 92T206 78T237 72ZM428 283Q469 285 508 287T580 293T632 301Q632 315 631 332T628 364T622 389Q619 393 606 401T578 417T551
425Q541 425 518 421T474 411T441 400Q437 388 434 368T430 326T428 283Z" />
<glyph unicode="&#xe7;" horiz-adv-x="450" d="M261 0Q234 0 205 10T150 34T106 62T83 82Q70 98 62 137T54 220Q54 261 57 298T67 367T80 417Q93 427 117 440T172 467T234 490T296 500Q311 500 332 491T375 468T412 442T430 423Q431 412 424 394T408 358T389 332Q380
332 370 335T353 342Q347 356 338 376T319 413T298 429Q268 429 241 423T192 408T160 395Q157 385 153 366T147 323T145 276Q145 244 148 213T155 159T164 129Q167 125 179 116T209 97T243 80T272 72Q288 72 316 76T369 86T404 93Q408 90 411 84T415 68Q396 52
372 37T320 11T261 0ZM224 -200Q215 -200 201 -196T174 -187T158 -176Q158 -169 160 -164T163 -157Q198 -157 224 -156T274 -150Q279 -142 281 -128T284 -103Q277 -98 260 -92T224 -79T188 -70Q184 -64 180 -55T175 -35Q185 -16 192 -2T216 37H251L230 -37Q257
-41 284 -51T330 -72T349 -91Q349 -107 343 -130T325 -166Q310 -176 289 -184T251 -196T224 -200Z" />
<glyph unicode="&#xe8;" horiz-adv-x="469" d="M261 0Q234 0 205 10T150 34T106 62T83 82Q70 99 62 137T54 220Q54 261 57 298T67 367T80 417Q94 426 118 440T173 467T236 490T297 500Q313 500 337 489T384 464T415 438Q421 431 425 409T433 360T435 313Q425 298
411 285T381 261T356 245Q346 242 315 238T240 230T145 226Q147 194 152 165T162 129Q166 125 179 116T210 97T244 80T272 72Q284 72 304 75T347 82T389 91T417 97Q421 93 425 87T429 70Q410 54 383 38T325 11T261 0ZM218 284Q243 284 269 286T317 292T350 303Q350
315 349 333T345 367T340 389Q338 393 325 401T295 417T268 425Q258 425 236 420T191 408T158 395Q154 383 151 365T146 328T144 292Q155 288 176 286T218 284ZM318 565L139 694Q144 708 154 721T177 744T196 753Q205 753 228 733T284 675T350 587Q346 583 337
576T318 565Z" />
<glyph unicode="&#xe9;" horiz-adv-x="469" d="M261 0Q234 0 205 10T150 34T106 62T83 82Q70 99 62 137T54 220Q54 261 57 298T67 367T80 417Q94 426 118 440T173 467T236 490T297 500Q313 500 337 489T384 464T415 438Q421 431 425 409T433 360T435 313Q425 298
411 285T381 261T356 245Q346 242 315 238T240 230T145 226Q147 194 152 165T162 129Q166 125 179 116T210 97T244 80T272 72Q284 72 304 75T347 82T389 91T417 97Q421 93 425 87T429 70Q410 54 383 38T325 11T261 0ZM218 284Q243 284 269 286T317 292T350 303Q350
315 349 333T345 367T340 389Q338 393 325 401T295 417T268 425Q258 425 236 420T191 408T158 395Q154 383 151 365T146 328T144 292Q155 288 176 286T218 284ZM192 565Q183 569 175 575T162 587Q195 636 226 673T282 732T314 753Q322 753 334 744T357 722T373
694L192 565Z" />
<glyph unicode="&#xea;" horiz-adv-x="469" d="M261 0Q234 0 205 10T150 34T106 62T83 82Q70 99 62 137T54 220Q54 261 57 298T67 367T80 417Q94 426 118 440T173 467T236 490T297 500Q313 500 337 489T384 464T415 438Q421 431 425 409T433 360T435 313Q425 298
411 285T381 261T356 245Q346 242 315 238T240 230T145 226Q147 194 152 165T162 129Q166 125 179 116T210 97T244 80T272 72Q284 72 304 75T347 82T389 91T417 97Q421 93 425 87T429 70Q410 54 383 38T325 11T261 0ZM218 284Q243 284 269 286T317 292T350 303Q350
315 349 333T345 367T340 389Q338 393 325 401T295 417T268 425Q258 425 236 420T191 408T158 395Q154 383 151 365T146 328T144 292Q155 288 176 286T218 284ZM144 567Q133 572 127 578T117 589Q153 642 180 679T227 736T258 756Q270 756 289 736T336 679T399
589Q395 584 389 578T371 567L257 668L144 567Z" />
<glyph unicode="&#xeb;" horiz-adv-x="469" d="M261 0Q234 0 205 10T150 34T106 62T83 82Q70 99 62 137T54 220Q54 261 57 298T67 367T80 417Q94 426 118 440T173 467T236 490T297 500Q313 500 337 489T384 464T415 438Q421 431 425 409T433 360T435 313Q425 298
411 285T381 261T356 245Q346 242 315 238T240 230T145 226Q147 194 152 165T162 129Q166 125 179 116T210 97T244 80T272 72Q284 72 304 75T347 82T389 91T417 97Q421 93 425 87T429 70Q410 54 383 38T325 11T261 0ZM218 284Q243 284 269 286T317 292T350 303Q350
315 349 333T345 367T340 389Q338 393 325 401T295 417T268 425Q258 425 236 420T191 408T158 395Q154 383 151 365T146 328T144 292Q155 288 176 286T218 284ZM349 582Q343 582 333 590T314 609T298 632T292 651Q292 659 300 668T321 685T346 699T365 705Q373
705 382 697T400 677T414 654T420 634Q420 626 407 614T378 592T349 582ZM154 582Q147 582 138 589T119 609T103 632T96 651Q96 659 105 668T126 685T151 699T171 705Q177 705 186 697T205 677T220 654T226 634Q226 626 213 614T182 592T154 582Z" />
<glyph unicode="&#xec;" horiz-adv-x="308" d="M209 0Q202 0 179 3T129 12T77 22T41 32Q41 39 44 46T50 56L78 61Q89 63 97 70T109 93T113 139V400Q113 408 110 414T97 424L39 445Q40 455 43 463T50 474Q66 483 93 491T137 500Q165 500 184 480T204 430V120Q204
100 200 85T192 64L276 56Q278 52 280 47T283 33Q278 25 264 18T235 5T209 0ZM205 565L26 694Q31 708 41 721T64 744T83 753Q92 753 115 733T171 675T237 587Q233 583 224 576T205 565Z" />
<glyph unicode="&#xed;" horiz-adv-x="308" d="M209 0Q202 0 179 3T129 12T77 22T41 32Q41 39 44 46T50 56L78 61Q89 63 97 70T109 93T113 139V400Q113 408 110 414T97 424L39 445Q40 455 43 463T50 474Q66 483 93 491T137 500Q165 500 184 480T204 430V120Q204
100 200 85T192 64L276 56Q278 52 280 47T283 33Q278 25 264 18T235 5T209 0ZM79 565Q70 569 62 575T49 587Q82 636 113 673T169 732T201 753Q209 753 221 744T244 722T260 694L79 565Z" />
<glyph unicode="&#xee;" horiz-adv-x="308" d="M209 0Q202 0 179 3T129 12T77 22T41 32Q41 39 44 46T50 56L78 61Q89 63 97 70T109 93T113 139V400Q113 408 110 414T97 424L39 445Q40 455 43 463T50 474Q66 483 93 491T137 500Q165 500 184 480T204 430V120Q204
100 200 85T192 64L276 56Q278 52 280 47T283 33Q278 25 264 18T235 5T209 0ZM31 567Q20 572 14 578T4 589Q40 642 67 679T114 736T145 756Q157 756 176 736T223 679T286 589Q282 584 276 578T258 567L144 668L31 567Z" />
<glyph unicode="&#xef;" horiz-adv-x="308" d="M209 0Q202 0 179 3T129 12T77 22T41 32Q41 39 44 46T50 56L78 61Q89 63 97 70T109 93T113 139V400Q113 408 110 414T97 424L39 445Q40 455 43 463T50 474Q66 483 93 491T137 500Q165 500 184 480T204 430V120Q204
100 200 85T192 64L276 56Q278 52 280 47T283 33Q278 25 264 18T235 5T209 0ZM492 582Q486 582 476 590T457 609T441 632T435 651Q435 659 443 668T464 685T489 699T508 705Q516 705 525 697T543 677T557 654T563 634Q563 626 550 614T521 592T492 582ZM297 582Q290
582 281 589T262 609T246 632T239 651Q239 659 248 668T269 685T294 699T314 705Q320 705 329 697T348 677T363 654T369 634Q369 626 356 614T325 592T297 582Z" />
<glyph unicode="&#xf0;" horiz-adv-x="537" d="M258 0Q232 0 204 10T151 33T108 61T83 83Q70 99 62 137T54 220Q54 280 62 330T80 412Q94 421 119 436T175 465T238 490T300 500Q312 500 329 494T363 479T389 465Q379 526 351 571T265 654T114 730Q116 742 120
751T129 768T138 779Q238 748 304 710T410 618T466 491T483 312Q483 277 481 235T472 155T456 90Q444 79 423 64T376 34T319 10T258 0ZM271 72Q285 72 307 77T350 89T377 100Q383 117 386 146T392 209T394 274Q394 291 394 308T392 339T390 366T386 384Q378 392
357 402T314 420T276 429Q264 429 240 423T192 408T158 396Q155 385 152 365T146 322T144 277Q144 242 147 210T154 157T162 129Q166 125 178 116T207 96T241 79T271 72ZM158 513Q146 518 138 528T124 547L288 693Q311 714 331 732T365 764T385 786Q403 779 417
766T437 743L158 513Z" />
<glyph unicode="&#xf1;" horiz-adv-x="609" d="M210 0Q202 0 180 3T131 12T79 22T43 32Q43 40 46 46T53 56L80 61Q97 64 106 78T116 139V400Q116 408 113 414T100 424L39 445Q41 458 43 464T50 474Q66 483 93 491T137 500Q166 500 185 482T204 434Q227 449 253
464T303 489T347 500Q369 500 397 491T450 467T492 435T509 401V120Q509 100 505 85T497 64L581 56Q583 52 585 46T588 33Q582 25 568 18T540 5T514 0Q506 0 484 3T435 12T385 22T349 32Q349 40 352 46T359 56L384 60Q394 62 401 68T413 90T418 139V366Q418 376
407 386T380 405T348 419T325 424Q318 424 302 420T267 408T232 394T207 383V122Q207 102 203 87T194 64L276 56Q278 52 280 46T282 33Q277 25 264 18T235 5T210 0ZM397 575Q385 575 353 585T283 609T212 636L138 584Q132 586 126 590T116 604Q129 625 146 648T180
687T209 703Q222 703 254 694T326 671T399 645L467 707Q476 704 483 699T493 690Q480 665 462 639T427 594T397 575Z" />
<glyph unicode="&#xf2;" horiz-adv-x="536" d="M258 0Q232 0 204 10T151 33T108 61T83 83Q70 99 62 137T54 220Q54 261 57 297T67 365T80 417Q94 426 119 440T175 467T238 490T300 500Q318 500 342 492T391 471T435 447T461 424Q469 413 473 387T480 331T482 277Q482
221 474 169T457 85Q444 75 423 61T376 32T319 9T258 0ZM271 72Q285 72 307 78T350 93T377 105Q384 124 387 157T391 220Q391 252 389 286T383 345T375 376Q371 382 353 393T311 415T269 425Q257 425 235 420T191 408T158 395Q155 385 152 365T146 321T144 277Q144
242 147 210T154 157T162 129Q166 125 178 116T207 96T241 79T271 72ZM328 565L149 694Q154 708 164 721T187 744T206 753Q215 753 238 733T294 675T360 587Q356 583 347 576T328 565Z" />
<glyph unicode="&#xf3;" horiz-adv-x="536" d="M258 0Q232 0 204 10T151 33T108 61T83 83Q70 99 62 137T54 220Q54 261 57 297T67 365T80 417Q94 426 119 440T175 467T238 490T300 500Q318 500 342 492T391 471T435 447T461 424Q469 413 473 387T480 331T482 277Q482
221 474 169T457 85Q444 75 423 61T376 32T319 9T258 0ZM271 72Q285 72 307 78T350 93T377 105Q384 124 387 157T391 220Q391 252 389 286T383 345T375 376Q371 382 353 393T311 415T269 425Q257 425 235 420T191 408T158 395Q155 385 152 365T146 321T144 277Q144
242 147 210T154 157T162 129Q166 125 178 116T207 96T241 79T271 72ZM202 565Q193 569 185 575T172 587Q205 636 236 673T292 732T324 753Q332 753 344 744T367 722T383 694L202 565Z" />
<glyph unicode="&#xf4;" horiz-adv-x="536" d="M258 0Q232 0 204 10T151 33T108 61T83 83Q70 99 62 137T54 220Q54 261 57 297T67 365T80 417Q94 426 119 440T175 467T238 490T300 500Q318 500 342 492T391 471T435 447T461 424Q469 413 473 387T480 331T482 277Q482
221 474 169T457 85Q444 75 423 61T376 32T319 9T258 0ZM271 72Q285 72 307 78T350 93T377 105Q384 124 387 157T391 220Q391 252 389 286T383 345T375 376Q371 382 353 393T311 415T269 425Q257 425 235 420T191 408T158 395Q155 385 152 365T146 321T144 277Q144
242 147 210T154 157T162 129Q166 125 178 116T207 96T241 79T271 72ZM154 567Q143 572 137 578T127 589Q163 642 190 679T237 736T268 756Q280 756 299 736T346 679T409 589Q405 584 399 578T381 567L267 668L154 567Z" />
<glyph unicode="&#xf5;" horiz-adv-x="536" d="M258 0Q232 0 204 10T151 33T108 61T83 83Q70 99 62 137T54 220Q54 261 57 297T67 365T80 417Q94 426 119 440T175 467T238 490T300 500Q318 500 342 492T391 471T435 447T461 424Q469 413 473 387T480 331T482 277Q482
221 474 169T457 85Q444 75 423 61T376 32T319 9T258 0ZM271 72Q285 72 307 78T350 93T377 105Q384 124 387 157T391 220Q391 252 389 286T383 345T375 376Q371 382 353 393T311 415T269 425Q257 425 235 420T191 408T158 395Q155 385 152 365T146 321T144 277Q144
242 147 210T154 157T162 129Q166 125 178 116T207 96T241 79T271 72ZM360 575Q348 575 316 585T246 609T175 636L101 584Q95 586 89 590T79 604Q92 625 109 648T143 687T172 703Q185 703 217 694T289 671T362 645L430 707Q439 704 446 699T456 690Q443 665 425
639T390 594T360 575Z" />
<glyph unicode="&#xf6;" horiz-adv-x="536" d="M258 0Q232 0 204 10T151 33T108 61T83 83Q70 99 62 137T54 220Q54 261 57 297T67 365T80 417Q94 426 119 440T175 467T238 490T300 500Q318 500 342 492T391 471T435 447T461 424Q469 413 473 387T480 331T482 277Q482
221 474 169T457 85Q444 75 423 61T376 32T319 9T258 0ZM271 72Q285 72 307 78T350 93T377 105Q384 124 387 157T391 220Q391 252 389 286T383 345T375 376Q371 382 353 393T311 415T269 425Q257 425 235 420T191 408T158 395Q155 385 152 365T146 321T144 277Q144
242 147 210T154 157T162 129Q166 125 178 116T207 96T241 79T271 72ZM359 582Q353 582 343 590T324 609T308 632T302 651Q302 659 310 668T331 685T356 699T375 705Q383 705 392 697T410 677T424 654T430 634Q430 626 417 614T388 592T359 582ZM164 582Q157 582
148 589T129 609T113 632T106 651Q106 659 115 668T136 685T161 699T181 705Q187 705 196 697T215 677T230 654T236 634Q236 626 223 614T192 592T164 582Z" />
<glyph unicode="&#xf7;" horiz-adv-x="516" d="M248 54Q242 54 233 62T214 82T198 107T192 128Q192 135 201 145T224 164T250 179T271 185Q279 185 288 177T308 155T324 130T330 109Q330 102 321 93T298 75T271 60T248 54ZM254 367Q247 367 237 375T216 396T199
421T192 441Q192 449 201 458T224 477T250 493T271 499Q279 499 288 490T308 469T324 444T330 423Q330 417 322 407T301 388T275 373T254 367ZM53 250Q53 272 57 284T66 299Q129 299 199 300T337 305T455 311L465 302Q464 281 460 268T453 250H53Z" />
<glyph unicode="&#xf8;" horiz-adv-x="536" d="M461 424Q469 413 473 387T480 331T482 277Q482 221 474 169T457 85Q444 75 423 61T376 32T319 9T258 0Q245 0 232 2T206 9L167 -94Q151 -94 139 -88T121 -76L160 29Q133 43 112 59T83 83Q70 99 62 137T54 220Q54
261 57 297T67 365T80 417Q94 426 119 440T175 467T238 490T300 500Q307 500 314 499T330 495Q343 529 353 557T371 607Q393 605 405 596T419 578L381 476Q408 464 430 450T461 424ZM144 277Q144 224 150 181T162 129Q164 126 171 121T188 108L302 418Q293 421
285 423T269 425Q257 425 235 420T191 408T158 395Q155 385 152 365T146 321T144 277ZM377 105Q384 124 387 157T391 220Q391 252 389 286T383 345T375 376Q374 379 367 384T350 394L233 83Q243 78 253 75T271 72Q285 72 307 78T350 93T377 105Z" />
<glyph unicode="&#xf9;" horiz-adv-x="593" d="M246 -4Q222 -4 196 7T147 35T110 67T95 92V400Q95 408 92 414T79 424L21 445Q23 457 26 464T32 474Q48 483 75 491T119 500Q147 500 166 480T186 430V120Q197 110 212 98T244 77T273 67Q286 67 308 73T354 88T397
106V400Q397 408 394 415T381 424L313 447Q314 458 317 465T322 474Q333 480 352 486T391 496T421 500Q449 500 468 480T488 430V66L561 58Q563 55 566 49T569 34Q563 25 549 18T518 5T490 0Q464 0 440 14T406 50Q385 37 356 25T297 5T246 -4ZM351 565L172 694Q177
708 187 721T210 744T229 753Q238 753 261 733T317 675T383 587Q379 583 370 576T351 565Z" />
<glyph unicode="&#xfa;" horiz-adv-x="593" d="M246 -4Q222 -4 196 7T147 35T110 67T95 92V400Q95 408 92 414T79 424L21 445Q23 457 26 464T32 474Q48 483 75 491T119 500Q147 500 166 480T186 430V120Q197 110 212 98T244 77T273 67Q286 67 308 73T354 88T397
106V400Q397 408 394 415T381 424L313 447Q314 458 317 465T322 474Q333 480 352 486T391 496T421 500Q449 500 468 480T488 430V66L561 58Q563 55 566 49T569 34Q563 25 549 18T518 5T490 0Q464 0 440 14T406 50Q385 37 356 25T297 5T246 -4ZM225 565Q216 569
208 575T195 587Q228 636 259 673T315 732T347 753Q355 753 367 744T390 722T406 694L225 565Z" />
<glyph unicode="&#xfb;" horiz-adv-x="593" d="M246 -4Q222 -4 196 7T147 35T110 67T95 92V400Q95 408 92 414T79 424L21 445Q23 457 26 464T32 474Q48 483 75 491T119 500Q147 500 166 480T186 430V120Q197 110 212 98T244 77T273 67Q286 67 308 73T354 88T397
106V400Q397 408 394 415T381 424L313 447Q314 458 317 465T322 474Q333 480 352 486T391 496T421 500Q449 500 468 480T488 430V66L561 58Q563 55 566 49T569 34Q563 25 549 18T518 5T490 0Q464 0 440 14T406 50Q385 37 356 25T297 5T246 -4ZM177 567Q166 572
160 578T150 589Q186 642 213 679T260 736T291 756Q303 756 322 736T369 679T432 589Q428 584 422 578T404 567L290 668L177 567Z" />
<glyph unicode="&#xfc;" horiz-adv-x="593" d="M246 -4Q222 -4 196 7T147 35T110 67T95 92V400Q95 408 92 414T79 424L21 445Q23 457 26 464T32 474Q48 483 75 491T119 500Q147 500 166 480T186 430V120Q197 110 212 98T244 77T273 67Q286 67 308 73T354 88T397
106V400Q397 408 394 415T381 424L313 447Q314 458 317 465T322 474Q333 480 352 486T391 496T421 500Q449 500 468 480T488 430V66L561 58Q563 55 566 49T569 34Q563 25 549 18T518 5T490 0Q464 0 440 14T406 50Q385 37 356 25T297 5T246 -4ZM382 582Q376 582
366 590T347 609T331 632T325 651Q325 659 333 668T354 685T379 699T398 705Q406 705 415 697T433 677T447 654T453 634Q453 626 440 614T411 592T382 582ZM187 582Q180 582 171 589T152 609T136 632T129 651Q129 659 138 668T159 685T184 699T204 705Q210 705
219 697T238 677T253 654T259 634Q259 626 246 614T215 592T187 582Z" />
<glyph unicode="&#xfd;" horiz-adv-x="549" d="M110 -200Q100 -200 84 -193T53 -177T32 -160Q34 -149 36 -144T41 -134Q89 -128 135 -107T222 -53T289 22Q254 32 222 46T167 75T136 98L84 364Q81 383 74 401T48 427L-5 445Q-5 457 -1 464T4 474Q15 480 31 486T64
496T88 500Q123 500 144 474T172 408L213 142Q220 136 237 126T279 104T325 84Q342 119 355 155T379 227T396 296T407 359T413 409Q400 418 378 427T333 445T295 458Q297 466 300 473T306 485Q316 490 333 493T369 498T402 500Q414 500 431 492T466 471T494 446T506
428Q506 391 495 341T464 231T414 110Q385 48 351 -8T277 -107T196 -175T110 -200ZM205 565Q196 569 188 575T175 587Q208 636 239 673T295 732T327 753Q335 753 347 744T370 722T386 694L205 565Z" />
<glyph unicode="&#xfe;" horiz-adv-x="579" d="M205 -200Q197 -200 174 -197T123 -188T71 -178T34 -168Q34 -161 37 -154T43 -144L72 -139Q81 -137 89 -132T102 -110T107 -61V700Q107 708 105 714T91 724L19 747Q20 757 23 764T28 774Q39 780 59 786T99 796T131
800Q160 800 179 780T198 730V434Q215 445 234 456T273 478T310 494T343 500Q360 500 383 492T432 473T476 448T504 424Q513 412 517 386T523 329T525 277Q525 224 518 173T500 90Q489 79 468 64T419 35T361 10T301 0Q277 0 249 11T198 36V-80Q198 -101 194 -115T187
-136L272 -144Q274 -148 276 -154T278 -167Q273 -175 259 -182T230 -195T205 -200ZM310 72Q324 72 347 77T391 89T419 100Q427 119 430 154T434 223Q434 257 432 288T426 343T419 374Q414 381 396 393T355 414T315 424Q306 424 285 418T240 404T198 388V105Q215
97 236 89T277 77T310 72Z" />
<glyph unicode="&#xff;" horiz-adv-x="549" d="M110 -200Q100 -200 84 -193T53 -177T32 -160Q34 -149 36 -144T41 -134Q89 -128 135 -107T222 -53T289 22Q254 32 222 46T167 75T136 98L84 364Q81 383 74 401T48 427L-5 445Q-5 457 -1 464T4 474Q15 480 31 486T64
496T88 500Q123 500 144 474T172 408L213 142Q220 136 237 126T279 104T325 84Q342 119 355 155T379 227T396 296T407 359T413 409Q400 418 378 427T333 445T295 458Q297 466 300 473T306 485Q316 490 333 493T369 498T402 500Q414 500 431 492T466 471T494 446T506
428Q506 391 495 341T464 231T414 110Q385 48 351 -8T277 -107T196 -175T110 -200ZM362 582Q356 582 346 590T327 609T311 632T305 651Q305 659 313 668T334 685T359 699T378 705Q386 705 395 697T413 677T427 654T433 634Q433 626 420 614T391 592T362 582ZM167
582Q160 582 151 589T132 609T116 632T109 651Q109 659 118 668T139 685T164 699T184 705Q190 705 199 697T218 677T233 654T239 634Q239 626 226 614T195 592T167 582Z" />
<glyph unicode="&#x2013;" horiz-adv-x="554" d="M30 256Q30 280 34 291T42 305Q85 305 141 306T255 308T367 312T460 315T517 319L527 309Q526 291 523 277T516 256H30Z" />
<glyph unicode="&#x2014;" horiz-adv-x="881" d="M30 256Q30 279 34 291T42 307Q131 307 219 307T391 309T549 312T683 314T784 318T843 321L854 309Q854 291 851 277T843 256H30Z" />
<glyph unicode="&#x2018;" horiz-adv-x="215" d="M90 509Q83 509 73 517T54 538T39 563T32 584Q32 596 38 615T54 658T76 701T99 734T120 747Q131 747 140 742T156 729T163 715Q151 708 140 694T120 664T107 636Q121 631 134 617T156 588T165 563Q165 556 157
547T135 529T110 515T90 509Z" />
<glyph unicode="&#x2019;" horiz-adv-x="215" d="M95 500Q84 500 75 505T59 519T51 532Q64 540 75 554T95 583T107 611Q95 617 82 631T59 660T50 684Q50 691 58 700T80 718T105 732T126 738Q133 738 142 730T161 709T176 684T183 663Q183 651 177 632T161 589T139
546T116 513T95 500Z" />
<glyph unicode="&#x201a;" horiz-adv-x="224" d="M65 -127Q55 -127 46 -122T30 -108T22 -94Q35 -87 52 -69T84 -31T104 4Q91 10 77 23T55 52T46 77Q46 84 54 93T75 112T101 126T121 132Q129 132 138 123T157 102T172 77T178 55Q178 43 170 21T148 -26T118 -75T88
-112T65 -127Z" />
<glyph unicode="&#x201c;" horiz-adv-x="377" d="M90 509Q83 509 73 517T54 538T39 563T32 584Q32 596 38 615T54 658T76 701T99 734T120 747Q131 747 140 742T156 729T163 715Q151 708 140 694T120 664T107 636Q121 631 134 617T156 588T165 563Q165 556 157
547T135 529T110 515T90 509ZM252 509Q245 509 235 517T216 538T201 563T194 584Q194 596 200 615T216 658T238 701T261 734T282 747Q293 747 302 742T318 729T325 715Q313 708 302 694T282 664T269 636Q283 631 296 617T318 588T327 563Q327 556 319 547T297 529T272
515T252 509Z" />
<glyph unicode="&#x201d;" horiz-adv-x="377" d="M95 500Q84 500 75 505T59 519T51 532Q64 540 75 554T95 583T107 611Q95 617 82 631T59 660T50 684Q50 691 58 700T80 718T105 732T126 738Q133 738 142 730T161 709T176 684T183 663Q183 651 177 632T161 589T139
546T116 513T95 500ZM257 500Q246 500 237 505T221 519T213 532Q226 540 237 554T257 583T269 611Q257 617 244 631T221 660T212 684Q212 691 220 700T242 718T267 732T288 738Q295 738 304 730T323 709T338 684T345 663Q345 651 339 632T323 589T301 546T278 513T257
500Z" />
<glyph unicode="&#x201e;" horiz-adv-x="387" d="M65 -127Q55 -127 46 -122T30 -108T22 -94Q35 -87 52 -69T84 -31T104 4Q91 10 77 23T55 52T46 77Q46 84 54 93T75 112T101 126T121 132Q129 132 138 123T157 102T172 77T178 55Q178 43 170 21T148 -26T118 -75T88
-112T65 -127ZM228 -127Q218 -127 209 -122T193 -108T185 -94Q198 -87 215 -69T247 -31T267 4Q254 10 240 23T218 52T209 77Q209 84 217 93T238 112T264 126T284 132Q292 132 301 123T320 102T335 77T341 55Q341 43 333 21T311 -26T281 -75T251 -112T228 -127Z"
/>
<glyph unicode="&#x2022;" horiz-adv-x="438" d="M206 150Q192 150 172 165T133 203T101 247T88 283Q88 296 105 314T149 348T199 376T239 387Q253 387 272 371T309 332T338 287T350 251Q350 237 333 220T292 187T244 161T206 150Z" />
<glyph unicode="&#x2039;" horiz-adv-x="372" d="M288 42Q250 70 209 103T132 167T74 223T51 259Q51 270 73 294T132 350T209 415T288 478Q293 476 300 469T314 446L126 230L127 291L313 72Q306 59 300 52T288 42Z" />
<glyph unicode="&#x203a;" horiz-adv-x="372" d="M84 41Q79 43 72 50T59 73L247 289L246 228L59 447Q67 460 73 468T84 477Q123 449 163 416T240 352T299 296T321 260Q321 249 299 225T241 169T164 104T84 41Z" />
</font>
</defs>
</svg>
