<?xml version="1.0" standalone="no"?>
<!DOCTYPE svg PUBLIC "-//W3C//DTD SVG 1.1//EN" "http://www.w3.org/Graphics/SVG/1.1/DTD/svg11.dtd">
<svg xmlns="http://www.w3.org/2000/svg">
<defs >
<font id="Narnoor" horiz-adv-x="633" ><font-face
    font-family="Narnoor"
    units-per-em="1000"
    panose-1="2 0 5 3 8 0 0 2 0 4"
    ascent="1314"
    descent="-237"
    alphabetic="0" />
<glyph unicode=" " glyph-name="space" horiz-adv-x="404" />
<glyph unicode="!" glyph-name="exclam" horiz-adv-x="339" d="M209 196H170L131 570Q131 603 149 619T189 636Q211 636 229 620T247 570L209 196ZM191 -6L121 61L188 132L256 61L191 -6Z" />
<glyph unicode="&quot;" glyph-name="quotedbl" horiz-adv-x="410" d="M137 600H110Q110 636 104 676T92 755T86 828L172 820L137 600ZM289 600H262Q262 636 256 676T244 755T238 828L324 820L289 600Z" />
<glyph unicode="#" glyph-name="numbersign" horiz-adv-x="570" d="M525 442V380H45V442H525ZM45 190V253H525V190H45ZM235 651H299L162 -6H98L235 651ZM420 651H484L347 -6H283L420 651Z" />
<glyph unicode="$" glyph-name="dollar" horiz-adv-x="485" d="M236 -11Q186 -11 135 10T47 63L89 125Q121 99 157 81T236 63Q288 63 313 88T339 156Q339 193 320 217T270 259T206 293T141 331T92 383T72 460Q72 535 121 581T249 627Q308 627 346 606T416 552L368
498Q341 524 316 538T253 552Q210 552 185 529T160 465Q160 432 179 411T229 373T293 341T358 302T407 247T427 163Q427 84 376 37T236 -11ZM213 -106V21H278V-106H213ZM213 595V722H278V595H213Z" />
<glyph unicode="%" glyph-name="percent" horiz-adv-x="695" d="M76 457Q76 488 90 522T132 579T198 603Q259 603 299 568T339 477Q339 443 324 408T280 348T208 323Q152 323 114 359T76 457ZM352 149Q352 184 367 216T411 268T474 289Q512 289 543 275T594 233T614
164Q614 127 599 92T556 34T486 11Q441 11 411 31T367 83T352 149ZM188 -22H126L511 644H576L188 -22ZM137 491Q137 469 148 444T179 400T230 381Q254 381 266 398T278 433Q278 454 266 480T234 525T188 544Q164 544 151 529T137 491ZM415 179Q415 154 426 128T457
84T507 68Q534 68 544 86T554 117Q554 138 543 164T511 210T462 230Q440 230 428 216T415 179Z" />
<glyph unicode="&amp;" glyph-name="ampersand" horiz-adv-x="598" d="M226 -11Q167 -11 123 11T54 74T29 164Q29 212 50 247T104 310T174 361T245 407T299 456T320 515Q320 542 307 561T263 581Q229 581 209 556T188 493Q188 450 210 402T269 304T351 212T443
135Q481 108 516 90T583 63L560 -11Q520 -1 477 20T388 76Q335 116 286 167T197 274T134 386T111 492Q111 535 130 569T183 624T262 645Q324 645 358 609T392 516Q392 475 372 443T321 383T255 332T188 284T137 232T117 170Q117 120 151 90T236 59Q274 59 311 79T379
132Q417 173 446 226T492 344H576Q555 273 522 209T442 89Q401 44 348 17T226 -11Z" />
<glyph unicode="&apos;" glyph-name="quotesingle" horiz-adv-x="258" d="M137 600H110Q110 636 104 676T92 755T86 828L172 820L137 600Z" />
<glyph unicode="(" glyph-name="parenleft" horiz-adv-x="334" d="M249 -122Q198 -70 159 1T97 157T75 332Q75 458 119 565T249 781L278 732Q213 649 179 549T144 332Q144 287 151 234T174 126T215 19T278 -73L249 -122Z" />
<glyph unicode=")" glyph-name="parenright" horiz-adv-x="330" d="M104 -122L75 -73Q112 -32 137 19T179 125T202 234T209 332Q209 448 175 548T75 732L104 781Q190 672 234 565T278 332Q278 242 256 158T195 2T104 -122Z" />
<glyph unicode="*" glyph-name="asterisk" horiz-adv-x="545" d="M251 392L212 514L265 569L318 514L279 392H251ZM265 290L211 325V379L265 414L319 379V325L265 290ZM251 312H279L318 190L265 135L212 190L251 312ZM307 344L432 317L453 244L379 225L293 320L307
344ZM237 384L223 360L98 387L77 461L151 479L237 384ZM237 320L151 225L77 243L98 317L223 344L237 320ZM307 360L293 384L379 479L453 460L432 387L307 360Z" />
<glyph unicode="+" glyph-name="plus" horiz-adv-x="691" d="M80 284V364H603V284H80ZM302 586H382V63H302V586Z" />
<glyph unicode="," glyph-name="comma" horiz-adv-x="237" d="M160 21Q160 2 128 -42T26 -160L-1 -135Q40 -85 57 -63T79 -32T83 -19Q83 -14 80 -8T64 12T24 56L102 139Q126 108 143 78T160 21Z" />
<glyph unicode="-" glyph-name="hyphen" horiz-adv-x="618" d="M80 250V324H538V250H80Z" />
<glyph unicode="." glyph-name="period" horiz-adv-x="241" d="M118 -5L40 70L116 147L192 70L118 -5Z" />
<glyph unicode="/" glyph-name="slash" horiz-adv-x="444" d="M17 -31L313 704H384L87 -31H17Z" />
<glyph unicode="0" glyph-name="zero" horiz-adv-x="485" d="M242 -11Q149 -11 95 72T41 310Q41 465 95 546T242 627Q336 627 390 546T444 310Q444 155 390 72T242 -11ZM242 60Q293 60 325 118T357 310Q357 444 325 499T242 555Q192 555 160 500T128 310Q128 177
160 119T242 60Z" />
<glyph unicode="1" glyph-name="one" horiz-adv-x="485" d="M74 0V74H214V511H101V568Q145 576 177 588T236 616H305V74H430V0H74Z" />
<glyph unicode="2" glyph-name="two" horiz-adv-x="485" d="M37 0V53Q128 142 191 210T289 334T323 439Q323 490 296 522T212 554Q175 554 143 533T85 482L33 533Q73 577 117 602T223 627Q309 627 360 577T412 443Q412 387 380 329T294 207T170 71Q195 73 222
75T273 77H442V0H37Z" />
<glyph unicode="3" glyph-name="three" horiz-adv-x="485" d="M229 -11Q155 -11 106 14T24 75L69 134Q97 106 134 85T222 63Q276 63 310 91T345 169Q345 204 328 230T268 270T154 285V353Q249 353 286 384T324 462Q324 505 297 529T223 554Q185 554 154 537T94
493L46 550Q83 584 127 605T226 627Q309 627 362 586T415 469Q415 414 385 379T305 324V320Q361 307 399 267T437 165Q437 110 409 71T334 10T229 -11Z" />
<glyph unicode="4" glyph-name="four" horiz-adv-x="485" d="M292 0V402Q292 428 293 463T296 524H292Q281 502 269 480T242 434L109 237H459V166H17V226L273 616H377V0H292Z" />
<glyph unicode="5" glyph-name="five" horiz-adv-x="485" d="M228 -11Q154 -11 105 14T23 73L67 131Q94 104 130 84T218 63Q273 63 310 98T347 195Q347 256 313 290T223 324Q192 324 170 315T119 287L73 316L93 616H409V538H172L157 367Q178 378 199 384T247 391Q300
391 343 371T413 308T439 198Q439 131 409 85T331 14T228 -11Z" />
<glyph unicode="6" glyph-name="six" horiz-adv-x="485" d="M261 -11Q201 -11 152 21T74 120T45 286Q45 408 78 483T166 592T282 627Q334 627 372 608T436 560L386 504Q368 526 342 539T286 552Q244 552 209 527T152 444T130 286Q130 172 164 115T260 58Q304 58
333 93T362 187Q362 246 335 278T254 311Q226 311 192 292T128 227L125 295Q153 333 193 355T270 378Q350 378 398 330T447 187Q447 127 422 83T354 14T261 -11Z" />
<glyph unicode="7" glyph-name="seven" horiz-adv-x="485" d="M168 0Q173 114 191 204T246 374T343 538H42V616H445V560Q390 491 356 428T302 301T274 164T261 0H168Z" />
<glyph unicode="8" glyph-name="eight" horiz-adv-x="485" d="M244 -11Q185 -11 139 10T66 70T39 157Q39 197 55 228T98 282T153 320V324Q119 349 94 383T68 467Q68 516 91 551T155 607T246 627Q328 627 375 581T423 462Q423 431 410 403T378 353T339 316V312Q367
296 391 275T430 225T446 154Q446 107 421 70T350 11T244 -11ZM286 339Q315 366 330 395T346 457Q346 501 320 531T245 561Q205 561 178 536T150 467Q150 433 169 410T219 370T286 339ZM245 54Q296 54 327 82T359 156Q359 194 337 218T279 259T199 294Q165 271
143 239T120 166Q120 117 156 86T245 54Z" />
<glyph unicode="9" glyph-name="nine" horiz-adv-x="485" d="M202 -11Q150 -11 112 8T48 55L97 111Q116 89 143 76T198 63Q241 63 276 88T333 171T354 329Q354 443 320 500T224 557Q181 557 152 522T122 428Q122 370 149 337T230 304Q259 304 292 323T356 388L359
320Q331 282 292 260T214 237Q134 237 86 285T37 428Q37 488 62 533T130 602T223 627Q284 627 332 595T410 496T439 329Q439 207 406 132T318 23T202 -11Z" />
<glyph unicode=":" glyph-name="colon" horiz-adv-x="321" d="M165 316L87 391L163 468L239 391L165 316ZM167 247L89 322L165 399L241 322L167 247Z" />
<glyph unicode=";" glyph-name="semicolon" horiz-adv-x="297" d="M151 316L73 391L149 468L225 391L151 316ZM228 21Q228 2 196 -42T94 -160L67 -135Q108 -85 125 -63T147 -32T151 -19Q151 -14 148 -8T132 12T92 56L170 139Q194 108 211 78T228 21Z" />
<glyph unicode="&lt;" glyph-name="less" horiz-adv-x="423" d="M349 17L60 220V292L344 494V403L103 226L102 279L349 104V17Z" />
<glyph unicode="=" glyph-name="equal" horiz-adv-x="654" d="M80 415V476H564V415H80ZM80 205V267H564V205H80Z" />
<glyph unicode="&gt;" glyph-name="greater" horiz-adv-x="423" d="M60 17V104L307 279L306 226L65 403V494L349 292V220L60 17Z" />
<glyph unicode="?" glyph-name="question" horiz-adv-x="545" d="M319 204H246Q245 212 245 219T244 233Q244 274 258 306T293 365T334 417T369 467T383 523Q383 563 361 587T297 612Q263 612 234 595T181 550L127 600Q157 639 199 663T296 688Q372 688 417 645T463
528Q463 491 449 461T413 404T369 350T333 293T318 224Q318 220 318 215T319 204ZM288 -19L210 56L286 133L362 56L288 -19Z" />
<glyph unicode="@" glyph-name="at" horiz-adv-x="828" d="M393 -152Q298 -152 220 -113T95 5T48 197Q48 295 80 374T170 510T301 597T457 628Q556 628 628 587T740 473T779 303Q779 218 748 161T672 74T581 45Q541 45 513 63T479 119H477Q455 91 424 72T360 53Q309
53 275 89T241 191Q241 231 254 271T292 344T352 398T429 418Q480 418 506 370H507L519 410H578L539 213Q512 105 590 105Q620 105 649 128T698 195T717 300Q717 377 688 437T599 533T450 569Q386 569 326 543T218 469T142 352T114 199Q114 105 152 40T254 -59T400
-93Q443 -93 483 -82T555 -51L578 -104Q495 -152 393 -152ZM378 114Q397 114 418 127T463 168L489 318Q465 356 430 356Q394 356 368 331T327 269T313 196Q313 153 331 134T378 114Z" />
<glyph unicode="A" glyph-name="A" horiz-adv-x="530" d="M432 0L374 185H152L94 0H0L212 633H317L529 0H432ZM171 258H356L326 348Q310 400 295 453T265 559H261Q247 505 232 453T201 348L171 258Z" />
<glyph unicode="B" glyph-name="B" horiz-adv-x="571" d="M84 0V633H277Q342 633 392 618T470 569T498 478Q498 432 475 394T407 340V336Q463 325 498 288T533 185Q533 123 502 82T417 20T292 0H84ZM176 366H265Q341 366 374 392T408 465Q408 518 373 539T268
561H176V366ZM176 72H281Q358 72 400 100T443 189Q443 245 402 271T281 297H176V72Z" />
<glyph unicode="C" glyph-name="C" horiz-adv-x="553" d="M328 -11Q249 -11 186 27T85 139T48 315Q48 418 85 492T187 605T333 645Q392 645 437 621T510 566L460 506Q435 532 405 548T335 565Q278 565 235 535T167 450T143 318Q143 203 194 136T332 68Q376 68
411 86T474 137L524 80Q487 36 439 13T328 -11Z" />
<glyph unicode="D" glyph-name="D" horiz-adv-x="598" d="M84 0V633H246Q392 633 470 553T549 319Q549 165 472 83T251 0H84ZM176 74H240Q346 74 400 137T454 319Q454 558 240 558H176V74Z" />
<glyph unicode="E" glyph-name="E" horiz-adv-x="512" d="M84 0V633H455V556H176V370H412V292H176V77H465V0H84Z" />
<glyph unicode="F" glyph-name="F" horiz-adv-x="483" d="M84 0V633H456V556H176V354H413V276H176V0H84Z" />
<glyph unicode="G" glyph-name="G" horiz-adv-x="599" d="M339 -11Q255 -11 189 27T86 139T48 315Q48 418 86 492T191 605T342 645Q409 645 454 620T528 566L479 506Q455 531 424 548T345 565Q254 565 199 499T143 318Q143 203 195 136T348 68Q415 68 454 102V257H325V333H537V62Q506
31 455 10T339 -11Z" />
<glyph unicode="H" glyph-name="H" d="M84 0V633H176V372H457V633H549V0H457V292H176V0H84Z" />
<glyph unicode="I" glyph-name="I" horiz-adv-x="260" d="M84 0V633H176V0H84Z" />
<glyph unicode="J" glyph-name="J" horiz-adv-x="468" d="M207 -11Q84 -11 27 91L91 138Q112 101 138 85T197 68Q246 68 270 98T295 198V633H386V190Q386 134 368 89T310 16T207 -11Z" />
<glyph unicode="K" glyph-name="K" horiz-adv-x="565" d="M84 0V633H176V326H179L429 633H532L334 390L563 0H461L278 318L176 194V0H84Z" />
<glyph unicode="L" glyph-name="L" horiz-adv-x="475" d="M84 0V633H176V77H448V0H84Z" />
<glyph unicode="M" glyph-name="M" horiz-adv-x="708" d="M84 0V633H192L310 305Q321 273 331 240T353 175H357Q368 207 378 240T400 305L516 633H624V0H539V328Q539 370 543 423T551 520H547L496 375L382 62H324L209 375L159 520H155Q159 477 163 424T167 328V0H84Z" />
<glyph unicode="N" glyph-name="N" horiz-adv-x="628" d="M84 0V633H179L397 250L464 117H468Q464 165 460 219T456 324V633H543V0H449L231 384L163 516H160Q163 467 167 415T171 312V0H84Z" />
<glyph unicode="O" glyph-name="O" horiz-adv-x="645" d="M322 -11Q241 -11 180 29T83 143T48 319Q48 421 83 494T179 606T322 645Q403 645 464 606T561 494T596 319Q596 217 561 143T465 29T322 -11ZM322 68Q377 68 417 99T479 186T502 319Q502 433 453 499T322
565Q241 565 192 499T143 319Q143 243 165 187T228 99T322 68Z" />
<glyph unicode="P" glyph-name="P" horiz-adv-x="552" d="M84 0V633H271Q342 633 396 615T481 556T512 444Q512 376 482 332T398 266T275 244H176V0H84ZM176 318H265Q345 318 383 349T421 444Q421 509 381 534T262 559H176V318Z" />
<glyph unicode="Q" glyph-name="Q" horiz-adv-x="645" d="M322 -11Q241 -11 180 29T83 143T48 319Q48 421 83 494T179 606T322 645Q403 645 464 606T561 494T596 319Q596 217 561 143T465 29T322 -11ZM322 64Q404 64 453 132T502 319Q502 433 453 499T322 565Q241
565 192 499T143 319Q143 201 192 133T322 64ZM519 -162Q425 -162 363 -115T274 2L369 10Q388 -39 431 -62T529 -86Q550 -86 566 -84T596 -77L613 -146Q598 -153 574 -157T519 -162Z" />
<glyph unicode="R" glyph-name="R" horiz-adv-x="557" d="M84 0V633H288Q353 633 404 616T484 559T514 451Q514 387 485 345T404 281T288 260H176V0H84ZM176 334H276Q347 334 384 363T422 451Q422 511 385 535T276 559H176V334ZM431 0L270 285L340 336L534 0H431Z" />
<glyph unicode="S" glyph-name="S" horiz-adv-x="519" d="M263 -11Q197 -11 140 13T39 82L93 144Q128 110 172 89T265 68Q324 68 356 94T389 164Q389 194 376 212T339 243T286 269L197 308Q167 321 138 342T89 395T69 473Q69 522 95 561T168 622T273 645Q329 645
378 623T462 565L414 507Q385 534 351 549T273 565Q222 565 192 542T161 478Q161 450 176 432T216 402T265 379L353 341Q409 317 446 279T483 171Q483 121 457 80T381 14T263 -11Z" />
<glyph unicode="T" glyph-name="T" horiz-adv-x="521" d="M215 0V556H26V633H495V556H306V0H215Z" />
<glyph unicode="U" glyph-name="U" horiz-adv-x="627" d="M313 -11Q246 -11 194 16T111 104T81 267V633H173V262Q173 189 191 147T241 86T313 68Q354 68 386 86T438 146T457 262V633H545V267Q545 165 516 104T434 16T313 -11Z" />
<glyph unicode="V" glyph-name="V" horiz-adv-x="505" d="M199 0L-1 633H95L193 299Q210 244 223 195T252 91H256Q273 146 286 195T315 299L412 633H506L306 0H199Z" />
<glyph unicode="W" glyph-name="W" horiz-adv-x="764" d="M151 0L20 633H114L177 297Q185 246 194 195T212 93H216Q227 144 237 195T259 297L344 633H425L510 297Q521 247 532 196T554 93H558Q567 145 575 196T592 297L654 633H743L615 0H503L413 364Q406 401
399 436T384 509H380Q373 472 365 437T349 364L261 0H151Z" />
<glyph unicode="X" glyph-name="X" horiz-adv-x="505" d="M13 0L196 327L25 633H127L208 479Q219 457 230 435T256 385H260Q273 413 283 435T304 479L382 633H479L308 322L491 0H390L302 163Q290 187 277 211T249 265H245Q232 236 220 212T196 163L110 0H13Z" />
<glyph unicode="Y" glyph-name="Y" horiz-adv-x="468" d="M188 0V242L-2 633H95L173 460Q187 425 201 391T232 322H236Q252 357 268 391T298 460L375 633H470L280 242V0H188Z" />
<glyph unicode="Z" glyph-name="Z" horiz-adv-x="521" d="M41 0V54L365 556H70V633H479V578L154 77H482V0H41Z" />
<glyph unicode="[" glyph-name="bracketleft" horiz-adv-x="388" d="M297 3V-43H85V737H297V691H151V3H297Z" />
<glyph unicode="\" glyph-name="backslash" horiz-adv-x="499" d="M443 -31H373L76 704H147L443 -31Z" />
<glyph unicode="]" glyph-name="bracketright" horiz-adv-x="390" d="M85 3H231V691H85V737H297V-43H85V3Z" />
<glyph unicode="^" glyph-name="asciicircum" horiz-adv-x="531" d="M502 553H414L270 790H305L159 553H71L275 885H300L502 553Z" />
<glyph unicode="_" glyph-name="underscore" horiz-adv-x="737" d="M79 3V73H659V3H79Z" />
<glyph unicode="`" glyph-name="grave" horiz-adv-x="526" d="M272 554L117 702L180 762L318 599L272 554Z" />
<glyph unicode="a" glyph-name="a" horiz-adv-x="491" d="M187 -11Q126 -11 87 24T48 123Q48 200 116 241T333 299Q333 328 325 353T296 393T240 409Q201 409 166 394T102 360L68 421Q103 444 151 463T256 483Q343 483 383 430T424 285V0H349L342 54H339Q306 26
268 8T187 -11ZM214 60Q246 60 274 75T333 119V241Q223 228 180 200T136 130Q136 93 158 77T214 60Z" />
<glyph unicode="b" glyph-name="b" horiz-adv-x="538" d="M291 -11Q259 -11 225 4T159 49H156L148 0H76V686H166V502L164 419Q195 447 232 465T308 483Q398 483 446 418T495 243Q495 163 467 106T392 19T291 -11ZM274 64Q329 64 365 110T401 242Q401 317 374 362T284
407Q229 407 166 347V109Q195 84 223 74T274 64Z" />
<glyph unicode="c" glyph-name="c" horiz-adv-x="442" d="M266 -11Q203 -11 152 18T72 102T42 235Q42 314 74 369T158 453T272 483Q319 483 352 467T410 428L365 369Q345 387 324 397T277 408Q216 408 176 360T136 235Q136 157 174 110T274 63Q305 63 332 76T380
108L419 47Q387 19 347 4T266 -11Z" />
<glyph unicode="d" glyph-name="d" horiz-adv-x="539" d="M238 -11Q150 -11 97 53T44 235Q44 312 72 367T147 453T246 483Q287 483 316 469T376 429L372 508V686H463V0H388L381 54H378Q351 26 315 8T238 -11ZM259 64Q318 64 372 124V361Q344 387 318 397T264 407Q212
407 175 361T137 236Q137 154 169 109T259 64Z" />
<glyph unicode="e" glyph-name="e" horiz-adv-x="482" d="M270 -11Q207 -11 155 18T73 102T42 235Q42 312 73 367T153 453T256 483Q348 483 397 422T447 261Q447 232 442 212H131Q136 142 177 101T282 59Q314 59 342 69T396 96L428 38Q396 16 357 3T270 -11ZM130
276H367Q367 341 339 376T258 411Q211 411 175 376T130 276Z" />
<glyph unicode="f" glyph-name="f" horiz-adv-x="290" d="M91 0V537Q91 609 125 653T236 698Q259 698 280 693T317 681L298 613Q273 625 246 625Q182 625 182 537V0H91ZM27 398V466L95 471H279V398H27Z" />
<glyph unicode="g" glyph-name="g" horiz-adv-x="492" d="M237 -214Q151 -214 96 -182T41 -88Q41 -58 59 -31T110 15V19Q92 30 80 49T68 97Q68 126 84 149T120 185V188Q96 207 77 239T58 314Q58 367 83 404T149 462T238 483Q258 483 275 480T306 471H472V402H379Q394
387 403 364T413 312Q413 261 390 225T327 169T238 149Q222 149 205 153T170 164Q158 154 151 142T143 112Q143 90 160 77T223 64H312Q395 64 437 37T480 -49Q480 -94 450 -131T366 -191T237 -214ZM238 208Q277 208 304 236T332 314Q332 363 305 390T238 418Q199
418 172 391T145 314Q145 265 172 237T238 208ZM250 -153Q314 -153 353 -126T392 -63Q392 -32 369 -21T301 -9H225Q210 -9 194 -8T163 -2Q140 -18 130 -37T119 -75Q119 -111 154 -132T250 -153Z" />
<glyph unicode="h" glyph-name="h" horiz-adv-x="530" d="M76 0V686H166V502L163 407Q195 438 232 460T318 483Q393 483 427 435T462 297V0H371V286Q371 349 352 376T288 404Q254 404 227 387T166 337V0H76Z" />
<glyph unicode="i" glyph-name="i" horiz-adv-x="243" d="M76 0V471H166V0H76ZM122 563Q97 563 80 578T62 618Q62 644 79 659T122 674Q148 674 164 659T181 618Q181 594 165 579T122 563Z" />
<glyph unicode="j" glyph-name="j" horiz-adv-x="244" d="M31 -206Q8 -206 -9 -202T-40 -193L-23 -125Q-13 -128 -3 -130T20 -133Q54 -133 65 -109T77 -43V471H167V-43Q167 -116 137 -161T31 -206ZM123 563Q98 563 81 578T63 618Q63 644 80 659T123 674Q148 674
165 659T182 618Q182 594 165 579T123 563Z" />
<glyph unicode="k" glyph-name="k" horiz-adv-x="487" d="M76 0V686H165V234H168L360 471H459L300 281L479 0H380L248 218L165 122V0H76Z" />
<glyph unicode="l" glyph-name="l" horiz-adv-x="251" d="M168 -11Q119 -11 98 19T76 104V686H166V98Q166 79 173 71T189 63Q193 63 196 63T207 65L219 -3Q209 -6 197 -8T168 -11Z" />
<glyph unicode="m" glyph-name="m" horiz-adv-x="806" d="M76 0V471H150L158 404H161Q191 437 227 460T307 483Q360 483 391 460T437 395Q472 433 510 458T591 483Q665 483 700 435T735 297V0H645V286Q645 349 625 376T562 404Q512 404 451 337V0H360V286Q360
349 340 376T278 404Q229 404 166 337V0H76Z" />
<glyph unicode="n" glyph-name="n" horiz-adv-x="532" d="M76 0V471H150L158 405H161Q194 437 231 460T318 483Q393 483 427 435T462 297V0H371V286Q371 349 352 376T288 404Q254 404 227 387T166 337V0H76Z" />
<glyph unicode="o" glyph-name="o" horiz-adv-x="526" d="M263 -11Q205 -11 155 18T73 102T42 235Q42 314 73 369T154 453T263 483Q321 483 371 454T452 369T483 235Q483 157 452 102T371 18T263 -11ZM263 63Q321 63 355 110T390 235Q390 312 356 360T263 408Q205
408 171 360T136 235Q136 157 170 110T263 63Z" />
<glyph unicode="p" glyph-name="p" horiz-adv-x="539" d="M76 -194V471H150L158 418H161Q192 444 230 463T308 483Q398 483 446 418T495 243Q495 163 467 106T392 19T291 -11Q226 -11 164 42L166 -38V-194H76ZM274 64Q329 64 365 110T401 242Q401 317 374 362T284
407Q256 407 227 392T166 347V109Q196 84 224 74T274 64Z" />
<glyph unicode="q" glyph-name="q" horiz-adv-x="539" d="M372 -194V-31L376 51Q348 25 313 7T238 -11Q150 -11 97 53T44 235Q44 312 72 367T147 453T246 483Q287 483 318 469T380 426H382L391 471H463V-194H372ZM259 64Q318 64 372 124V361Q344 387 318 397T264
407Q212 407 175 361T137 236Q137 154 169 109T259 64Z" />
<glyph unicode="r" glyph-name="r" horiz-adv-x="344" d="M76 0V471H150L158 386H161Q186 431 220 457T295 483Q325 483 346 473L330 394Q317 398 307 400T283 402Q254 402 222 379T166 297V0H76Z" />
<glyph unicode="s" glyph-name="s" horiz-adv-x="409" d="M202 -11Q153 -11 106 7T25 53L69 112Q100 87 132 73T205 58Q249 58 270 77T292 125Q292 148 277 163T237 189T186 210Q154 222 122 238T69 281T48 346Q48 405 92 444T214 483Q260 483 298 467T364 429L322
371Q297 390 272 401T216 413Q175 413 155 395T135 351Q135 330 149 317T188 293T238 273Q271 261 303 245T357 202T378 130Q378 72 333 31T202 -11Z" />
<glyph unicode="t" glyph-name="t" horiz-adv-x="334" d="M230 -11Q153 -11 122 33T91 150V398H22V466L95 471L106 602H181V471H306V398H181V149Q181 106 197 84T252 61Q265 61 279 65T304 73L321 5Q302 0 279 -5T230 -11Z" />
<glyph unicode="u" glyph-name="u" horiz-adv-x="529" d="M214 -11Q139 -11 105 36T70 173V471H160V185Q160 122 180 94T244 66Q279 66 305 83T363 141V471H453V0H379L371 72H368Q336 34 300 12T214 -11Z" />
<glyph unicode="v" glyph-name="v" horiz-adv-x="460" d="M179 0L11 471H104L188 211Q199 177 209 142T230 71H234Q245 106 255 141T276 211L361 471H449L284 0H179Z" />
<glyph unicode="w" glyph-name="w" horiz-adv-x="704" d="M151 0L23 471H115L180 208Q188 174 194 142T207 75H211Q219 109 226 142T242 208L311 471H397L467 208Q475 174 483 142T499 75H503Q511 109 517 141T531 208L595 471H681L557 0H447L384 241Q376 275
369 308T353 377H349Q342 341 335 308T318 240L257 0H151Z" />
<glyph unicode="x" glyph-name="x" horiz-adv-x="443" d="M13 0L165 246L24 471H122L181 373Q192 354 203 334T226 294H230Q241 314 251 334T271 373L324 471H418L277 236L429 0H331L266 103Q241 148 216 188H212Q201 168 190 147T166 103L107 0H13Z" />
<glyph unicode="y" glyph-name="y" horiz-adv-x="461" d="M92 -199Q75 -199 61 -197T34 -190L52 -118Q59 -120 68 -122T87 -125Q126 -125 151 -99T189 -31L199 1L11 471H104L195 221Q206 190 217 156T239 88H243Q253 120 262 154T282 221L361 471H449L274 -32Q247
-105 206 -152T92 -199Z" />
<glyph unicode="z" glyph-name="z" horiz-adv-x="416" d="M31 0V48L270 398H57V471H384V423L145 73H392V0H31Z" />
<glyph unicode="{" glyph-name="braceleft" horiz-adv-x="344" d="M293 756V710Q272 704 254 694T225 664T213 606Q213 579 220 545T228 483Q228 452 223 425T202 375T149 333Q185 315 201 287T223 230T228 184Q228 150 221 112T213 45Q213 10 238 -7T293 -36V-83Q254
-74 219 -53T161 -1T138 69Q138 100 142 125T151 175T155 230Q155 253 143 269T112 295T75 309V355Q105 360 130 381T155 438Q155 455 152 482T144 537T140 580Q140 651 183 695T293 756Z" />
<glyph unicode="|" glyph-name="bar" horiz-adv-x="220" d="M101 45V652L168 588V-4L101 45Z" />
<glyph unicode="}" glyph-name="braceright" horiz-adv-x="344" d="M51 756Q117 740 160 696T204 580Q204 565 201 538T193 483T189 438Q189 402 214 381T269 355V309Q251 306 233 296T202 269T189 230Q189 200 193 175T202 125T206 69Q206 30 184 -1T126 -53T51
-83V-36Q80 -25 105 -8T131 45Q131 74 124 112T116 184Q116 202 121 230T143 286T195 333Q160 352 143 375T121 425T116 483Q116 510 123 544T131 606Q131 644 120 664T90 694T51 710V756Z" />
<glyph unicode="~" glyph-name="asciitilde" horiz-adv-x="665" d="M464 332Q497 332 511 349T529 391H582Q577 335 546 296T461 256Q436 256 401 265T327 285T253 306T192 315Q161 315 147 297T126 257H79Q81 304 98 333T141 377T193 391Q220 391 258 382T338
362T413 341T464 332Z" />
<glyph unicode="&#xa0;" glyph-name="uni00A0" horiz-adv-x="404" />
<glyph unicode="&#xa1;" glyph-name="exclamdown" horiz-adv-x="289" d="M166 301L204 -73Q204 -106 186 -122T146 -139Q124 -139 106 -123T88 -73L127 301H166ZM148 503L213 436L145 365L78 436L148 503Z" />
<glyph unicode="&#xa2;" glyph-name="cent" horiz-adv-x="485" d="M291 63Q223 63 171 91T89 171T59 299Q59 374 91 426T178 506T298 534Q344 534 378 517T436 477L392 421Q372 439 350 449T302 459Q232 459 190 415T148 299Q148 226 188 182T299 138Q331 138
358 151T405 182L445 124Q413 96 373 80T291 63ZM255 -32V632H310V-32H255Z" />
<glyph unicode="&#xa3;" glyph-name="sterling" horiz-adv-x="485" d="M50 0V55Q99 81 126 125T153 224Q153 262 142 299T119 373T107 446Q107 529 158 578T291 627Q344 627 380 607T444 553L393 503Q374 525 352 538T298 552Q249 552 222 523T195 443Q195 407
205 373T224 302T234 223Q234 175 220 143T177 81V77H445V0H50ZM51 273V329L116 333H368V273H51Z" />
<glyph unicode="&#xa4;" glyph-name="currency" horiz-adv-x="497" d="M101 435L26 512L70 557L149 476L101 435ZM249 195Q297 195 332 232T367 329Q367 389 332 426T249 463Q200 463 165 426T130 329Q130 269 165 232T249 195ZM348 476L427 557L471 512L395 435L348
476ZM149 183L70 103L26 148L101 224L149 183ZM395 224L471 148L427 103L348 183L395 224ZM443 329Q443 272 415 228T343 159T249 134Q189 134 145 161T78 234T54 329Q54 380 73 417T122 477T185 512T249 524Q302 524 346 496T416 424T443 329Z" />
<glyph unicode="&#xa5;" glyph-name="yen" horiz-adv-x="485" d="M197 0V151H42V200H197V261H42V311H175L20 616H115L185 457Q199 425 213 393T241 327H245Q261 361 274 393T302 457L373 616H465L309 311H443V261H287V200H443V151H287V0H197Z" />
<glyph unicode="&#xa6;" glyph-name="brokenbar" horiz-adv-x="237" d="M87 284V721H150V284H87ZM87 -237V205H150V-237H87Z" />
<glyph unicode="&#xa7;" glyph-name="section" horiz-adv-x="485" d="M337 135L287 179Q325 194 344 213T364 267Q364 299 345 320T294 357T229 386T163 419T113 464T93 532Q93 585 132 623T244 662Q292 662 331 645T398 605L355 547Q332 567 306 579T249 592Q211
592 194 576T176 536Q176 511 195 494T245 463T309 434T374 399T423 348T443 274Q443 222 414 190T337 135ZM228 -65Q177 -65 133 -47T57 5L112 54Q136 30 163 17T228 4Q266 4 286 22T306 65Q306 91 287 108T238 140T174 168T110 203T61 253T42 328Q42 376 72 411T149
465L192 422Q159 407 140 387T120 334Q120 303 139 283T189 247T254 217T319 185T369 139T389 70Q389 12 345 -26T228 -65Z" />
<glyph unicode="&#xa8;" glyph-name="dieresis" horiz-adv-x="526" d="M168 564Q146 564 131 579T116 616Q116 638 131 653T168 668Q191 668 205 653T220 616Q220 594 206 579T168 564ZM358 564Q336 564 321 579T306 616Q306 638 321 653T358 668Q381 668 395
653T410 616Q410 594 396 579T358 564Z" />
<glyph unicode="&#xa9;" glyph-name="copyright" horiz-adv-x="720" d="M360 -9Q297 -9 240 13T140 78T71 179T46 313Q46 387 71 445T139 546T240 610T360 632Q423 632 479 610T579 546T648 446T673 313Q673 239 648 180T580 78T480 14T360 -9ZM360 33Q433 33
492 68T588 166T624 313Q624 396 588 458T493 554T360 588Q287 588 227 554T131 458T95 313Q95 229 131 166T227 68T360 33ZM368 121Q319 121 279 144T214 209T190 312Q190 369 215 410T282 473T370 495Q412 495 440 479T492 440L455 398Q436 417 418 426T374 436Q322
436 292 401T261 312Q261 251 291 216T371 180Q400 180 422 191T466 220L498 175Q471 152 441 137T368 121Z" />
<glyph unicode="&#xaa;" glyph-name="ordfeminine" horiz-adv-x="335" d="M130 370Q87 370 61 396T34 462Q34 513 79 540T224 577Q223 606 211 624T167 643Q142 643 117 633T71 611L46 656Q72 672 106 685T177 698Q236 698 263 664T291 566V378H238L230 413H226Q207
396 183 383T130 370ZM151 423Q187 423 224 459V536Q154 529 127 511T100 467Q100 423 151 423Z" />
<glyph unicode="&#xab;" glyph-name="guillemotleft" horiz-adv-x="423" d="M175 61L44 210V277L175 425L213 393L100 243L213 92L175 61ZM333 61L202 210V277L333 425L371 393L258 243L371 92L333 61Z" />
<glyph unicode="&#xac;" glyph-name="logicalnot" horiz-adv-x="485" d="M382 98V285H32V352H452V98H382Z" />
<glyph unicode="&#xad;" glyph-name="uni00AD" horiz-adv-x="618" d="M80 250V324H538V250H80Z" />
<glyph unicode="&#xae;" glyph-name="registered" horiz-adv-x="415" d="M207 307Q157 307 115 331T49 398T24 498Q24 555 48 598T115 665T207 690Q258 690 299 666T366 598T391 498Q391 442 366 399T300 331T207 307ZM207 344Q248 344 280 363T331 418T350 498Q350
544 331 578T280 632T207 652Q146 652 106 609T65 498Q65 430 105 387T207 344ZM136 403V598H212Q243 598 265 584T288 535Q288 518 279 503T252 482L296 403H249L215 469H178V403H136ZM178 501H202Q242 501 242 532Q242 563 204 563H178V501Z" />
<glyph unicode="&#xaf;" glyph-name="overscore" horiz-adv-x="526" d="M133 579V640H393V579H133Z" />
<glyph unicode="&#xb0;" glyph-name="degree" horiz-adv-x="326" d="M163 409Q130 409 102 424T56 468T38 535Q38 573 55 601T101 646T163 662Q197 662 225 646T270 602T288 535Q288 497 271 469T225 425T163 409ZM163 457Q195 457 214 479T234 535Q234 570 215
591T163 613Q132 613 112 592T91 535Q91 501 111 479T163 457Z" />
<glyph unicode="&#xb1;" glyph-name="plusminus" horiz-adv-x="485" d="M207 128V292H32V359H207V539H278V359H452V292H278V128H207ZM32 0V67H452V0H32Z" />
<glyph unicode="&#xb2;" glyph-name="uni00B2" horiz-adv-x="356" d="M49 378V417Q134 492 179 541T225 632Q225 667 206 687T155 708Q133 708 113 693T77 655L36 692Q59 726 92 746T165 766Q223 766 258 735T293 643Q293 591 255 543T160 437H311V378H49Z" />
<glyph unicode="&#xb3;" glyph-name="uni00B3" horiz-adv-x="356" d="M175 367Q129 367 92 387T32 440L77 475Q94 450 118 436T170 421Q199 421 220 437T242 484Q242 516 213 532T130 548V591Q176 591 201 609T227 655Q227 681 210 696T163 711Q143 711 124 699T89
667L48 704Q74 733 104 749T174 766Q224 766 260 739T296 664Q296 631 279 609T232 573Q264 564 287 541T311 480Q311 428 271 398T175 367Z" />
<glyph unicode="&#xb4;" glyph-name="acute" horiz-adv-x="526" d="M254 554L208 599L346 762L409 702L254 554Z" />
<glyph unicode="&#xb5;" glyph-name="mu" horiz-adv-x="548" d="M76 -172V471H166V185Q166 125 185 96T248 66Q279 66 306 82T365 152V471H456Q455 378 453 280T450 101Q450 80 460 72T486 63Q499 63 514 69L526 0Q515 -4 501 -7T465 -11Q423 -11 401 10T373 77H371Q346
34 315 13T246 -8Q219 -8 198 -1T160 32Q161 -12 161 -44T163 -105T167 -172H76Z" />
<glyph unicode="&#xb6;" glyph-name="paragraph" horiz-adv-x="554" d="M369 -77V633H461V-77H369ZM283 213Q214 213 159 235T71 305T38 425Q38 502 69 547T154 613T274 633H316V213H283Z" />
<glyph unicode="&#xb7;" glyph-name="middot" horiz-adv-x="249" d="M118 251L40 326L116 403L192 326L118 251Z" />
<glyph unicode="&#xb8;" glyph-name="cedilla" horiz-adv-x="526" d="M182 -220L174 -178Q234 -174 255 -163T277 -131Q277 -113 261 -103T203 -86L246 2H303L275 -61Q309 -68 327 -84T346 -130Q346 -173 303 -195T182 -220Z" />
<glyph unicode="&#xb9;" glyph-name="uni00B9" horiz-adv-x="356" d="M165 378V670H82V715Q115 721 136 730T178 755H234V378H165Z" />
<glyph unicode="&#xba;" glyph-name="ordmasculine" horiz-adv-x="353" d="M176 370Q136 370 102 389T48 445T27 533Q27 586 47 622T102 678T176 698Q216 698 250 679T304 623T325 533Q325 482 305 446T250 390T176 370ZM176 425Q214 425 235 455T256 533Q256
583 235 613T176 643Q138 643 117 613T96 533Q96 485 117 455T176 425Z" />
<glyph unicode="&#xbb;" glyph-name="guillemotright" horiz-adv-x="423" d="M97 61L59 92L172 243L59 393L97 425L228 277V210L97 61ZM255 61L217 92L330 243L217 393L255 425L386 277V210L255 61Z" />
<glyph unicode="&#xbc;" glyph-name="onequarter" horiz-adv-x="759" d="M141 256V548H58V593Q91 599 112 608T154 633H210V256H141ZM175 -11L523 645H581L234 -11H175ZM613 0V209L618 315H614L567 237L511 146H732V97H441V133L595 377H676V0H613Z" />
<glyph unicode="&#xbd;" glyph-name="onehalf" horiz-adv-x="787" d="M141 256V548H58V593Q91 599 112 608T154 633H210V256H141ZM156 -11L504 645H562L215 -11H156ZM480 0V39Q565 114 610 163T656 254Q656 289 637 309T586 330Q564 330 544 315T508 277L467 314Q490
348 523 368T596 388Q654 388 689 357T724 265Q724 213 686 165T591 59H742V0H480Z" />
<glyph unicode="&#xbe;" glyph-name="threequarters" horiz-adv-x="772" d="M174 245Q128 245 91 265T31 318L76 353Q93 328 117 314T169 299Q198 299 219 315T241 362Q241 394 212 410T129 426V469Q175 469 200 487T226 533Q226 559 209 574T162 589Q142 589
123 577T88 545L47 582Q73 611 103 627T173 644Q223 644 259 617T295 542Q295 509 278 487T231 451Q263 442 286 419T310 358Q310 306 270 276T174 245ZM208 -11L556 645H614L267 -11H208ZM627 0V209L632 315H628L581 237L525 146H746V97H455V133L609 377H690V0H627Z"
/>
<glyph unicode="&#xbf;" glyph-name="questiondown" horiz-adv-x="425" d="M215 -196Q139 -196 94 -153T48 -36Q48 1 62 31T99 88T142 142T178 199T193 268Q193 273 193 278T192 288H265Q266 281 266 274T267 259Q267 219 253 187T218 127T177 75T142 25T128 -31Q128
-71 152 -99T225 -127Q258 -127 287 -112T339 -70L387 -113Q355 -148 313 -172T215 -196ZM227 372Q202 372 185 390T167 436Q167 463 184 480T227 498Q251 498 268 481T286 436Q286 408 269 390T227 372Z" />
<glyph unicode="&#xc0;" glyph-name="Agrave" horiz-adv-x="530" d="M432 0L374 185H152L94 0H0L212 633H317L529 0H432ZM171 258H356L326 348Q310 400 295 453T265 559H261Q247 505 232 453T201 348L171 258ZM278 670L126 782L177 843L318 716L278 670Z" />
<glyph unicode="&#xc1;" glyph-name="Aacute" horiz-adv-x="530" d="M432 0L374 185H152L94 0H0L212 633H317L529 0H432ZM171 258H356L326 348Q310 400 295 453T265 559H261Q247 505 232 453T201 348L171 258ZM248 670L208 716L349 843L400 782L248 670Z" />
<glyph unicode="&#xc2;" glyph-name="Acircumflex" horiz-adv-x="530" d="M432 0L374 185H152L94 0H0L212 633H317L529 0H432ZM171 258H356L326 348Q310 400 295 453T265 559H261Q247 505 232 453T201 348L171 258ZM117 700L215 809H311L409 700L369 673L264 761H262L157
673L117 700Z" />
<glyph unicode="&#xc3;" glyph-name="Atilde" horiz-adv-x="530" d="M432 0L374 185H152L94 0H0L212 633H317L529 0H432ZM171 258H356L326 348Q310 400 295 453T265 559H261Q247 505 232 453T201 348L171 258ZM334 682Q307 682 288 692T254 715T224 738T194 748Q177
748 165 733T149 687L89 692Q92 751 119 782T192 814Q219 814 238 804T272 781T302 758T332 748Q370 748 377 809L437 804Q434 746 407 714T334 682Z" />
<glyph unicode="&#xc4;" glyph-name="Adieresis" horiz-adv-x="530" d="M432 0L374 185H152L94 0H0L212 633H317L529 0H432ZM171 258H356L326 348Q310 400 295 453T265 559H261Q247 505 232 453T201 348L171 258ZM163 688Q141 688 127 702T112 739Q112 762 126
776T163 790Q185 790 199 776T214 739Q214 717 200 703T163 688ZM363 688Q341 688 327 702T312 739Q312 762 326 776T363 790Q386 790 400 776T414 739Q414 717 400 703T363 688Z" />
<glyph unicode="&#xc5;" glyph-name="Aring" horiz-adv-x="530" d="M432 0L374 185H152L94 0H0L212 633H317L529 0H432ZM171 258H356L326 348Q310 400 295 453T265 559H261Q247 505 232 453T201 348L171 258ZM263 674Q221 674 194 698T167 763Q167 804 194 828T263
852Q304 852 331 828T359 763Q359 723 332 699T263 674ZM263 713Q282 713 296 726T310 763Q310 787 296 800T263 814Q244 814 230 801T215 763Q215 739 229 726T263 713Z" />
<glyph unicode="&#xc6;" glyph-name="AE" horiz-adv-x="798" d="M4 0L330 633H741V556H477V370H698V292H477V77H750V0H385V562H381Q356 511 332 460T282 359L100 0H4ZM149 177V250H438V177H149Z" />
<glyph unicode="&#xc7;" glyph-name="Ccedilla" horiz-adv-x="553" d="M328 -11Q249 -11 186 27T85 139T48 315Q48 418 85 492T187 605T333 645Q392 645 437 621T510 566L460 506Q435 532 405 548T335 565Q278 565 235 535T167 450T143 318Q143 203 194 136T332
68Q376 68 411 86T474 137L524 80Q487 36 439 13T328 -11ZM246 -220L238 -178Q298 -174 319 -163T341 -131Q341 -113 325 -103T267 -86L310 2H367L339 -61Q373 -68 391 -84T410 -130Q410 -173 367 -195T246 -220Z" />
<glyph unicode="&#xc8;" glyph-name="Egrave" horiz-adv-x="512" d="M84 0V633H455V556H176V370H412V292H176V77H465V0H84ZM290 670L138 782L189 843L330 716L290 670Z" />
<glyph unicode="&#xc9;" glyph-name="Eacute" horiz-adv-x="512" d="M84 0V633H455V556H176V370H412V292H176V77H465V0H84ZM260 670L220 716L361 843L412 782L260 670Z" />
<glyph unicode="&#xca;" glyph-name="Ecircumflex" horiz-adv-x="512" d="M84 0V633H455V556H176V370H412V292H176V77H465V0H84ZM129 700L227 809H323L421 700L381 673L276 761H274L169 673L129 700Z" />
<glyph unicode="&#xcb;" glyph-name="Edieresis" horiz-adv-x="512" d="M84 0V633H455V556H176V370H412V292H176V77H465V0H84ZM175 688Q153 688 139 702T124 739Q124 762 138 776T175 790Q197 790 211 776T226 739Q226 717 212 703T175 688ZM375 688Q353 688 339
702T324 739Q324 762 338 776T375 790Q398 790 412 776T426 739Q426 717 412 703T375 688Z" />
<glyph unicode="&#xcc;" glyph-name="Igrave" horiz-adv-x="260" d="M84 0V633H176V0H84ZM145 670L-7 782L44 843L185 716L145 670Z" />
<glyph unicode="&#xcd;" glyph-name="Iacute" horiz-adv-x="260" d="M84 0V633H176V0H84ZM115 670L75 716L216 843L267 782L115 670Z" />
<glyph unicode="&#xce;" glyph-name="Icircumflex" horiz-adv-x="260" d="M84 0V633H176V0H84ZM-16 700L82 809H178L276 700L236 673L131 761H129L24 673L-16 700Z" />
<glyph unicode="&#xcf;" glyph-name="Idieresis" horiz-adv-x="260" d="M84 0V633H176V0H84ZM30 688Q8 688 -6 702T-21 739Q-21 762 -7 776T30 790Q52 790 66 776T81 739Q81 717 67 703T30 688ZM230 688Q208 688 194 702T179 739Q179 762 193 776T230 790Q253
790 267 776T281 739Q281 717 267 703T230 688Z" />
<glyph unicode="&#xd0;" glyph-name="Eth" horiz-adv-x="620" d="M30 306V352L108 356H338V306H30ZM105 0V633H267Q413 633 491 553T570 319Q570 165 493 83T272 0H105ZM197 74H261Q367 74 421 137T475 319Q475 558 261 558H197V74Z" />
<glyph unicode="&#xd1;" glyph-name="Ntilde" horiz-adv-x="628" d="M84 0V633H179L397 250L464 117H468Q464 165 460 219T456 324V633H543V0H449L231 384L163 516H160Q163 467 167 415T171 312V0H84ZM387 682Q360 682 341 692T307 715T277 738T247 748Q230 748
218 733T202 687L142 692Q145 751 172 782T245 814Q272 814 291 804T325 781T355 758T385 748Q423 748 430 809L490 804Q487 746 460 714T387 682Z" />
<glyph unicode="&#xd2;" glyph-name="Ograve" horiz-adv-x="645" d="M322 -11Q241 -11 180 29T83 143T48 319Q48 421 83 494T179 606T322 645Q403 645 464 606T561 494T596 319Q596 217 561 143T465 29T322 -11ZM322 68Q377 68 417 99T479 186T502 319Q502 433
453 499T322 565Q241 565 192 499T143 319Q143 243 165 187T228 99T322 68ZM337 670L185 782L236 843L377 716L337 670Z" />
<glyph unicode="&#xd3;" glyph-name="Oacute" horiz-adv-x="645" d="M322 -11Q241 -11 180 29T83 143T48 319Q48 421 83 494T179 606T322 645Q403 645 464 606T561 494T596 319Q596 217 561 143T465 29T322 -11ZM322 68Q377 68 417 99T479 186T502 319Q502 433
453 499T322 565Q241 565 192 499T143 319Q143 243 165 187T228 99T322 68ZM307 670L267 716L408 843L459 782L307 670Z" />
<glyph unicode="&#xd4;" glyph-name="Ocircumflex" horiz-adv-x="645" d="M322 -11Q241 -11 180 29T83 143T48 319Q48 421 83 494T179 606T322 645Q403 645 464 606T561 494T596 319Q596 217 561 143T465 29T322 -11ZM322 68Q377 68 417 99T479 186T502 319Q502
433 453 499T322 565Q241 565 192 499T143 319Q143 243 165 187T228 99T322 68ZM176 700L274 809H370L468 700L428 673L323 761H321L216 673L176 700Z" />
<glyph unicode="&#xd5;" glyph-name="Otilde" horiz-adv-x="645" d="M322 -11Q241 -11 180 29T83 143T48 319Q48 421 83 494T179 606T322 645Q403 645 464 606T561 494T596 319Q596 217 561 143T465 29T322 -11ZM322 68Q377 68 417 99T479 186T502 319Q502 433
453 499T322 565Q241 565 192 499T143 319Q143 243 165 187T228 99T322 68ZM393 682Q366 682 347 692T313 715T283 738T253 748Q236 748 224 733T208 687L148 692Q151 751 178 782T251 814Q278 814 297 804T331 781T361 758T391 748Q429 748 436 809L496 804Q493
746 466 714T393 682Z" />
<glyph unicode="&#xd6;" glyph-name="Odieresis" horiz-adv-x="645" d="M322 -11Q241 -11 180 29T83 143T48 319Q48 421 83 494T179 606T322 645Q403 645 464 606T561 494T596 319Q596 217 561 143T465 29T322 -11ZM322 68Q377 68 417 99T479 186T502 319Q502
433 453 499T322 565Q241 565 192 499T143 319Q143 243 165 187T228 99T322 68ZM222 688Q200 688 186 702T171 739Q171 762 185 776T222 790Q244 790 258 776T273 739Q273 717 259 703T222 688ZM422 688Q400 688 386 702T371 739Q371 762 385 776T422 790Q445 790
459 776T473 739Q473 717 459 703T422 688Z" />
<glyph unicode="&#xd7;" glyph-name="multiply" horiz-adv-x="639" d="M163 82L106 139L476 509L533 452L163 82ZM106 453L163 509L533 140L476 83L106 453Z" />
<glyph unicode="&#xd8;" glyph-name="Oslash" horiz-adv-x="645" d="M96 -30L46 7L555 664L605 626L96 -30ZM324 -11Q243 -11 182 29T85 143T50 319Q50 421 85 494T181 606T324 645Q405 645 466 606T563 494T598 319Q598 217 563 143T467 29T324 -11ZM324 68Q379
68 419 99T481 186T504 319Q504 433 455 499T324 565Q243 565 194 499T145 319Q145 243 167 187T230 99T324 68Z" />
<glyph unicode="&#xd9;" glyph-name="Ugrave" horiz-adv-x="627" d="M313 -11Q246 -11 194 16T111 104T81 267V633H173V262Q173 189 191 147T241 86T313 68Q354 68 386 86T438 146T457 262V633H545V267Q545 165 516 104T434 16T313 -11ZM328 670L176 782L227 843L368
716L328 670Z" />
<glyph unicode="&#xda;" glyph-name="Uacute" horiz-adv-x="627" d="M313 -11Q246 -11 194 16T111 104T81 267V633H173V262Q173 189 191 147T241 86T313 68Q354 68 386 86T438 146T457 262V633H545V267Q545 165 516 104T434 16T313 -11ZM298 670L258 716L399 843L450
782L298 670Z" />
<glyph unicode="&#xdb;" glyph-name="Ucircumflex" horiz-adv-x="627" d="M313 -11Q246 -11 194 16T111 104T81 267V633H173V262Q173 189 191 147T241 86T313 68Q354 68 386 86T438 146T457 262V633H545V267Q545 165 516 104T434 16T313 -11ZM167 700L265 809H361L459
700L419 673L314 761H312L207 673L167 700Z" />
<glyph unicode="&#xdc;" glyph-name="Udieresis" horiz-adv-x="627" d="M313 -11Q246 -11 194 16T111 104T81 267V633H173V262Q173 189 191 147T241 86T313 68Q354 68 386 86T438 146T457 262V633H545V267Q545 165 516 104T434 16T313 -11ZM213 688Q191 688 177
702T162 739Q162 762 176 776T213 790Q235 790 249 776T264 739Q264 717 250 703T213 688ZM413 688Q391 688 377 702T362 739Q362 762 376 776T413 790Q436 790 450 776T464 739Q464 717 450 703T413 688Z" />
<glyph unicode="&#xdd;" glyph-name="Yacute" horiz-adv-x="468" d="M188 0V242L-2 633H95L173 460Q187 425 201 391T232 322H236Q252 357 268 391T298 460L375 633H470L280 242V0H188ZM219 670L179 716L320 843L371 782L219 670Z" />
<glyph unicode="&#xde;" glyph-name="Thorn" horiz-adv-x="569" d="M84 0V633H176V528H285Q355 528 408 510T491 451T521 339Q521 271 491 227T408 162T285 140H176V0H84ZM176 214H275Q354 214 392 244T430 339Q430 404 392 429T275 455H176V214Z" />
<glyph unicode="&#xdf;" glyph-name="germandbls" horiz-adv-x="566" d="M380 -11Q340 -11 306 1T241 35L276 98Q325 58 377 58Q415 58 434 79T454 130Q454 161 435 180T389 214T333 244T286 284T267 349Q267 381 279 404T308 447T336 489T349 541Q349 576 329
599T271 623Q222 623 194 586T166 477V0H76V493Q76 584 126 640T272 696Q326 696 362 676T418 623T437 551Q437 515 424 490T395 444T365 404T352 360Q352 333 371 317T417 287T472 256T519 210T538 134Q538 73 496 31T380 -11Z" />
<glyph unicode="&#xe0;" glyph-name="agrave" horiz-adv-x="491" d="M187 -11Q126 -11 87 24T48 123Q48 200 116 241T333 299Q333 328 325 353T296 393T240 409Q201 409 166 394T102 360L68 421Q103 444 151 463T256 483Q343 483 383 430T424 285V0H349L342 54H339Q306
26 268 8T187 -11ZM214 60Q246 60 274 75T333 119V241Q223 228 180 200T136 130Q136 93 158 77T214 60ZM265 554L110 702L173 762L311 599L265 554Z" />
<glyph unicode="&#xe1;" glyph-name="aacute" horiz-adv-x="491" d="M187 -11Q126 -11 87 24T48 123Q48 200 116 241T333 299Q333 328 325 353T296 393T240 409Q201 409 166 394T102 360L68 421Q103 444 151 463T256 483Q343 483 383 430T424 285V0H349L342 54H339Q306
26 268 8T187 -11ZM214 60Q246 60 274 75T333 119V241Q223 228 180 200T136 130Q136 93 158 77T214 60ZM247 554L201 599L339 762L402 702L247 554Z" />
<glyph unicode="&#xe2;" glyph-name="acircumflex" horiz-adv-x="491" d="M187 -11Q126 -11 87 24T48 123Q48 200 116 241T333 299Q333 328 325 353T296 393T240 409Q201 409 166 394T102 360L68 421Q103 444 151 463T256 483Q343 483 383 430T424 285V0H349L342
54H339Q306 26 268 8T187 -11ZM214 60Q246 60 274 75T333 119V241Q223 228 180 200T136 130Q136 93 158 77T214 60ZM102 582L211 715H301L410 582L373 547L257 653H255L139 547L102 582Z" />
<glyph unicode="&#xe3;" glyph-name="atilde" horiz-adv-x="491" d="M187 -11Q126 -11 87 24T48 123Q48 200 116 241T333 299Q333 328 325 353T296 393T240 409Q201 409 166 394T102 360L68 421Q103 444 151 463T256 483Q343 483 383 430T424 285V0H349L342 54H339Q306
26 268 8T187 -11ZM214 60Q246 60 274 75T333 119V241Q223 228 180 200T136 130Q136 93 158 77T214 60ZM324 557Q299 557 281 568T247 595T219 622T189 634Q169 634 159 615T146 562L86 566Q88 625 112 662T188 699Q213 699 231 688T265 661T294 634T324 622Q344
622 354 642T366 694L426 690Q424 631 400 594T324 557Z" />
<glyph unicode="&#xe4;" glyph-name="adieresis" horiz-adv-x="491" d="M187 -11Q126 -11 87 24T48 123Q48 200 116 241T333 299Q333 328 325 353T296 393T240 409Q201 409 166 394T102 360L68 421Q103 444 151 463T256 483Q343 483 383 430T424 285V0H349L342
54H339Q306 26 268 8T187 -11ZM214 60Q246 60 274 75T333 119V241Q223 228 180 200T136 130Q136 93 158 77T214 60ZM161 564Q139 564 124 579T109 616Q109 638 124 653T161 668Q184 668 198 653T213 616Q213 594 199 579T161 564ZM351 564Q329 564 314 579T299
616Q299 638 314 653T351 668Q374 668 388 653T403 616Q403 594 389 579T351 564Z" />
<glyph unicode="&#xe5;" glyph-name="aring" horiz-adv-x="491" d="M187 -11Q126 -11 87 24T48 123Q48 200 116 241T333 299Q333 328 325 353T296 393T240 409Q201 409 166 394T102 360L68 421Q103 444 151 463T256 483Q343 483 383 430T424 285V0H349L342 54H339Q306
26 268 8T187 -11ZM214 60Q246 60 274 75T333 119V241Q223 228 180 200T136 130Q136 93 158 77T214 60ZM256 537Q205 537 176 564T147 633Q147 674 176 701T256 729Q307 729 336 702T365 633Q365 592 336 565T256 537ZM256 576Q278 576 293 591T308 633Q308 659
293 674T256 690Q234 690 219 675T204 633Q204 607 219 592T256 576Z" />
<glyph unicode="&#xe6;" glyph-name="ae" horiz-adv-x="758" d="M193 -11Q132 -11 93 24T54 123Q54 200 122 241T335 299Q335 328 327 353T300 393T243 409Q206 409 172 394T108 360L74 421Q109 444 155 463T254 483Q305 483 339 458T389 388Q417 432 455 457T541
483Q630 483 676 422T722 259Q722 245 721 233T718 212H419Q423 143 462 102T560 61Q592 61 618 72T671 99L704 38Q672 16 634 3T548 -11Q490 -11 451 14T383 73Q287 -11 193 -11ZM220 60Q251 60 287 77T352 126Q345 144 341 168T335 218L334 241Q230 228 186 200T142
130Q142 93 164 77T220 60ZM419 271H643Q643 339 616 375T538 411Q492 411 459 374T419 271Z" />
<glyph unicode="&#xe7;" glyph-name="ccedilla" horiz-adv-x="442" d="M266 -11Q203 -11 152 18T72 102T42 235Q42 314 74 369T158 453T272 483Q319 483 352 467T410 428L365 369Q345 387 324 397T277 408Q216 408 176 360T136 235Q136 157 174 110T274 63Q305
63 332 76T380 108L419 47Q387 19 347 4T266 -11ZM178 -220L170 -178Q230 -174 251 -163T273 -131Q273 -113 257 -103T199 -86L242 2H299L271 -61Q305 -68 323 -84T342 -130Q342 -173 299 -195T178 -220Z" />
<glyph unicode="&#xe8;" glyph-name="egrave" horiz-adv-x="482" d="M270 -11Q207 -11 155 18T73 102T42 235Q42 312 73 367T153 453T256 483Q348 483 397 422T447 261Q447 232 442 212H131Q136 142 177 101T282 59Q314 59 342 69T396 96L428 38Q396 16 357 3T270
-11ZM130 276H367Q367 341 339 376T258 411Q211 411 175 376T130 276ZM265 554L110 702L173 762L311 599L265 554Z" />
<glyph unicode="&#xe9;" glyph-name="eacute" horiz-adv-x="482" d="M270 -11Q207 -11 155 18T73 102T42 235Q42 312 73 367T153 453T256 483Q348 483 397 422T447 261Q447 232 442 212H131Q136 142 177 101T282 59Q314 59 342 69T396 96L428 38Q396 16 357 3T270
-11ZM130 276H367Q367 341 339 376T258 411Q211 411 175 376T130 276ZM247 554L201 599L339 762L402 702L247 554Z" />
<glyph unicode="&#xea;" glyph-name="ecircumflex" horiz-adv-x="482" d="M270 -11Q207 -11 155 18T73 102T42 235Q42 312 73 367T153 453T256 483Q348 483 397 422T447 261Q447 232 442 212H131Q136 142 177 101T282 59Q314 59 342 69T396 96L428 38Q396 16 357
3T270 -11ZM130 276H367Q367 341 339 376T258 411Q211 411 175 376T130 276ZM102 582L211 715H301L410 582L373 547L257 653H255L139 547L102 582Z" />
<glyph unicode="&#xeb;" glyph-name="edieresis" horiz-adv-x="482" d="M270 -11Q207 -11 155 18T73 102T42 235Q42 312 73 367T153 453T256 483Q348 483 397 422T447 261Q447 232 442 212H131Q136 142 177 101T282 59Q314 59 342 69T396 96L428 38Q396 16 357
3T270 -11ZM130 276H367Q367 341 339 376T258 411Q211 411 175 376T130 276ZM161 564Q139 564 124 579T109 616Q109 638 124 653T161 668Q184 668 198 653T213 616Q213 594 199 579T161 564ZM351 564Q329 564 314 579T299 616Q299 638 314 653T351 668Q374 668
388 653T403 616Q403 594 389 579T351 564Z" />
<glyph unicode="&#xec;" glyph-name="igrave" horiz-adv-x="243" d="M76 0V471H166V0H76ZM130 554L-25 702L38 762L176 599L130 554Z" />
<glyph unicode="&#xed;" glyph-name="iacute" horiz-adv-x="243" d="M76 0V471H166V0H76ZM112 554L66 599L204 762L267 702L112 554Z" />
<glyph unicode="&#xee;" glyph-name="icircumflex" horiz-adv-x="243" d="M76 0V471H166V0H76ZM-33 582L76 715H166L275 582L238 547L122 653H120L4 547L-33 582Z" />
<glyph unicode="&#xef;" glyph-name="idieresis" horiz-adv-x="243" d="M76 0V471H166V0H76ZM26 564Q4 564 -11 579T-26 616Q-26 638 -11 653T26 668Q49 668 63 653T78 616Q78 594 64 579T26 564ZM216 564Q194 564 179 579T164 616Q164 638 179 653T216 668Q239
668 253 653T268 616Q268 594 254 579T216 564Z" />
<glyph unicode="&#xf0;" glyph-name="eth" horiz-adv-x="529" d="M260 -11Q205 -11 157 16T79 94T49 215Q49 282 75 330T147 406T247 433Q289 433 327 413T389 348L390 290Q359 334 327 348T262 363Q201 363 168 322T134 215Q134 169 151 135T198 82T263 63Q324
63 355 113T386 246Q386 357 354 431T264 556T127 650L168 707Q227 676 281 636T378 541T447 415T472 250Q472 172 446 114T373 22T260 -11ZM136 478L111 522L439 691L465 646L136 478Z" />
<glyph unicode="&#xf1;" glyph-name="ntilde" horiz-adv-x="532" d="M76 0V471H150L158 405H161Q194 437 231 460T318 483Q393 483 427 435T462 297V0H371V286Q371 349 352 376T288 404Q254 404 227 387T166 337V0H76ZM352 557Q327 557 309 568T275 595T247 622T217
634Q197 634 187 615T174 562L114 566Q116 625 140 662T216 699Q241 699 259 688T293 661T322 634T352 622Q372 622 382 642T394 694L454 690Q452 631 428 594T352 557Z" />
<glyph unicode="&#xf2;" glyph-name="ograve" horiz-adv-x="526" d="M263 -11Q205 -11 155 18T73 102T42 235Q42 314 73 369T154 453T263 483Q321 483 371 454T452 369T483 235Q483 157 452 102T371 18T263 -11ZM263 63Q321 63 355 110T390 235Q390 312 356 360T263
408Q205 408 171 360T136 235Q136 157 170 110T263 63ZM272 554L117 702L180 762L318 599L272 554Z" />
<glyph unicode="&#xf3;" glyph-name="oacute" horiz-adv-x="526" d="M263 -11Q205 -11 155 18T73 102T42 235Q42 314 73 369T154 453T263 483Q321 483 371 454T452 369T483 235Q483 157 452 102T371 18T263 -11ZM263 63Q321 63 355 110T390 235Q390 312 356 360T263
408Q205 408 171 360T136 235Q136 157 170 110T263 63ZM254 554L208 599L346 762L409 702L254 554Z" />
<glyph unicode="&#xf4;" glyph-name="ocircumflex" horiz-adv-x="526" d="M263 -11Q205 -11 155 18T73 102T42 235Q42 314 73 369T154 453T263 483Q321 483 371 454T452 369T483 235Q483 157 452 102T371 18T263 -11ZM263 63Q321 63 355 110T390 235Q390 312 356
360T263 408Q205 408 171 360T136 235Q136 157 170 110T263 63ZM109 582L218 715H308L417 582L380 547L264 653H262L146 547L109 582Z" />
<glyph unicode="&#xf5;" glyph-name="otilde" horiz-adv-x="526" d="M263 -11Q205 -11 155 18T73 102T42 235Q42 314 73 369T154 453T263 483Q321 483 371 454T452 369T483 235Q483 157 452 102T371 18T263 -11ZM263 63Q321 63 355 110T390 235Q390 312 356 360T263
408Q205 408 171 360T136 235Q136 157 170 110T263 63ZM331 557Q306 557 288 568T254 595T226 622T196 634Q176 634 166 615T153 562L93 566Q95 625 119 662T195 699Q220 699 238 688T272 661T301 634T331 622Q351 622 361 642T373 694L433 690Q431 631 407 594T331
557Z" />
<glyph unicode="&#xf6;" glyph-name="odieresis" horiz-adv-x="526" d="M263 -11Q205 -11 155 18T73 102T42 235Q42 314 73 369T154 453T263 483Q321 483 371 454T452 369T483 235Q483 157 452 102T371 18T263 -11ZM263 63Q321 63 355 110T390 235Q390 312 356
360T263 408Q205 408 171 360T136 235Q136 157 170 110T263 63ZM168 564Q146 564 131 579T116 616Q116 638 131 653T168 668Q191 668 205 653T220 616Q220 594 206 579T168 564ZM358 564Q336 564 321 579T306 616Q306 638 321 653T358 668Q381 668 395 653T410
616Q410 594 396 579T358 564Z" />
<glyph unicode="&#xf7;" glyph-name="divide" horiz-adv-x="675" d="M340 30L262 105L338 182L414 105L340 30ZM340 392L262 467L338 544L414 467L340 392ZM109 250V324H567V250H109Z" />
<glyph unicode="&#xf8;" glyph-name="oslash" horiz-adv-x="526" d="M263 -11Q205 -11 155 18T73 102T42 235Q42 314 73 369T154 453T263 483Q321 483 371 454T452 369T483 235Q483 157 452 102T371 18T263 -11ZM263 60Q321 60 357 107T394 230Q394 315 358 363T263
411Q205 411 168 364T131 239Q131 154 168 107T263 60ZM83 -23L44 7L443 494L481 464L83 -23Z" />
<glyph unicode="&#xf9;" glyph-name="ugrave" horiz-adv-x="529" d="M214 -11Q139 -11 105 36T70 173V471H160V185Q160 122 180 94T244 66Q279 66 305 83T363 141V471H453V0H379L371 72H368Q336 34 300 12T214 -11ZM274 554L119 702L182 762L320 599L274 554Z" />
<glyph unicode="&#xfa;" glyph-name="uacute" horiz-adv-x="529" d="M214 -11Q139 -11 105 36T70 173V471H160V185Q160 122 180 94T244 66Q279 66 305 83T363 141V471H453V0H379L371 72H368Q336 34 300 12T214 -11ZM256 554L210 599L348 762L411 702L256 554Z" />
<glyph unicode="&#xfb;" glyph-name="ucircumflex" horiz-adv-x="529" d="M214 -11Q139 -11 105 36T70 173V471H160V185Q160 122 180 94T244 66Q279 66 305 83T363 141V471H453V0H379L371 72H368Q336 34 300 12T214 -11ZM111 582L220 715H310L419 582L382 547L266
653H264L148 547L111 582Z" />
<glyph unicode="&#xfc;" glyph-name="udieresis" horiz-adv-x="529" d="M214 -11Q139 -11 105 36T70 173V471H160V185Q160 122 180 94T244 66Q279 66 305 83T363 141V471H453V0H379L371 72H368Q336 34 300 12T214 -11ZM170 564Q148 564 133 579T118 616Q118 638
133 653T170 668Q193 668 207 653T222 616Q222 594 208 579T170 564ZM360 564Q338 564 323 579T308 616Q308 638 323 653T360 668Q383 668 397 653T412 616Q412 594 398 579T360 564Z" />
<glyph unicode="&#xfd;" glyph-name="yacute" horiz-adv-x="461" d="M92 -199Q75 -199 61 -197T34 -190L52 -118Q59 -120 68 -122T87 -125Q126 -125 151 -99T189 -31L199 1L11 471H104L195 221Q206 190 217 156T239 88H243Q253 120 262 154T282 221L361 471H449L274
-32Q247 -105 206 -152T92 -199ZM230 554L184 599L322 762L385 702L230 554Z" />
<glyph unicode="&#xfe;" glyph-name="thorn" horiz-adv-x="539" d="M76 -194V686H166V503L165 424Q195 449 230 466T304 483Q396 483 445 418T495 243Q495 163 467 106T392 19T291 -11Q257 -11 226 2T165 39L166 -38V-194H76ZM274 64Q329 64 365 110T401 242Q401
317 374 362T284 407Q256 407 227 392T166 347V109Q196 84 224 74T274 64Z" />
<glyph unicode="&#xff;" glyph-name="ydieresis" horiz-adv-x="461" d="M92 -199Q75 -199 61 -197T34 -190L52 -118Q59 -120 68 -122T87 -125Q126 -125 151 -99T189 -31L199 1L11 471H104L195 221Q206 190 217 156T239 88H243Q253 120 262 154T282 221L361 471H449L274
-32Q247 -105 206 -152T92 -199ZM144 564Q122 564 107 579T92 616Q92 638 107 653T144 668Q167 668 181 653T196 616Q196 594 182 579T144 564ZM334 564Q312 564 297 579T282 616Q282 638 297 653T334 668Q357 668 371 653T386 616Q386 594 372 579T334 564Z" />
<glyph unicode="&#x2013;" glyph-name="endash" horiz-adv-x="652" d="M80 250V324H572V250H80Z" />
<glyph unicode="&#x2014;" glyph-name="emdash" horiz-adv-x="969" d="M80 250V324H889V250H80Z" />
<glyph unicode="&#x2018;" glyph-name="quoteleft" horiz-adv-x="285" d="M160 566Q144 574 127 586T97 613T85 643Q85 656 100 694T155 815L180 798Q144 720 144 690Q144 677 160 662T191 636Q187 621 176 599T160 566Z" />
<glyph unicode="&#x2019;" glyph-name="quoteright" horiz-adv-x="285" d="M125 732Q141 725 158 713T188 685T200 655Q200 642 186 604T130 483L105 500Q141 578 141 608Q141 622 125 636T94 662Q99 677 109 699T125 732Z" />
<glyph unicode="&#x201a;" glyph-name="quotesinglbase" horiz-adv-x="249" d="M125 185Q141 178 158 166T188 138T200 108Q200 95 186 57T130 -64L105 -47Q141 31 141 61Q141 75 125 89T94 115Q99 130 109 152T125 185Z" />
<glyph unicode="&#x201c;" glyph-name="quotedblleft" horiz-adv-x="393" d="M306 567Q290 575 273 587T243 614T231 644Q231 657 246 695T301 816L326 799Q290 721 290 691Q290 678 306 663T337 637Q333 622 322 600T306 567ZM403 567Q387 575 370 587T340 614T328
644Q328 657 343 695T398 816L423 799Q387 721 387 691Q387 678 403 663T434 637Q430 622 419 600T403 567Z" />
<glyph unicode="&#x201d;" glyph-name="quotedblright" horiz-adv-x="393" d="M87 736Q103 729 120 717T150 689T162 659Q162 646 148 608T92 487L67 504Q103 582 103 612Q103 626 87 640T56 666Q61 681 71 703T87 736ZM246 736Q262 729 279 717T309 689T321 659Q321
646 307 608T251 487L226 504Q262 582 262 612Q262 626 246 640T215 666Q220 681 230 703T246 736Z" />
<glyph unicode="&#x201e;" glyph-name="quotedblbase" horiz-adv-x="426" d="M93 156Q109 149 126 137T156 109T168 79Q168 66 154 28T98 -93L73 -76Q109 2 109 32Q109 46 93 60T62 86Q67 101 77 123T93 156ZM252 156Q268 149 285 137T315 109T327 79Q327 66 313
28T257 -93L232 -76Q268 2 268 32Q268 46 252 60T221 86Q226 101 236 123T252 156Z" />
<glyph unicode="&#x2022;" glyph-name="bullet" horiz-adv-x="301" d="M150 134Q105 134 72 167T38 254Q38 307 71 340T150 374Q195 374 228 341T262 254Q262 201 229 168T150 134Z" />
<glyph unicode="&#x2039;" glyph-name="guilsinglleft" horiz-adv-x="265" d="M175 61L44 210V277L175 425L213 393L100 243L213 92L175 61Z" />
<glyph unicode="&#x203a;" glyph-name="guilsinglright" horiz-adv-x="271" d="M97 61L59 92L172 243L59 393L97 425L228 277V210L97 61Z" />
</font>
</defs>
</svg>
