<?xml version="1.0" standalone="no"?>
<!DOCTYPE svg PUBLIC "-//W3C//DTD SVG 1.1//EN" "http://www.w3.org/Graphics/SVG/1.1/DTD/svg11.dtd">
<svg xmlns="http://www.w3.org/2000/svg">
<defs >
<font id="XanhMono" horiz-adv-x="500" ><font-face
    font-family="Xanh Mono"
    units-per-em="1000"
    panose-1="2 0 0 9 0 0 0 0 0 0"
    ascent="970"
    descent="-220"
    alphabetic="0" />
<glyph unicode=" " glyph-name="space" />
<glyph unicode="!" glyph-name="exclam" d="M213 740H283L262 172H234L213 740ZM248 -10Q225 -10 209 6T193 45Q193 68 209 84T248 100Q271 100 287 84T303 45Q303 22 287 6T248 -10Z" />
<glyph unicode="&quot;" glyph-name="quotedbl" d="M314 450L293 740H363L342 450H314ZM421 450L400 740H470L449 450H421Z" />
<glyph unicode="#" glyph-name="numbersign" d="M72 0L135 268H23V298H142L176 443H43V473H183L245 740H279L217 473H342L404 740H438L376 473H487V443H369L335 298H467V268H328L265 0H231L294 268H169L106 0H72ZM176 298H301L335 443H210L176 298Z" />
<glyph unicode="$" glyph-name="dollar" d="M240 -10Q189 -10 144 1T76 22V216H94L102 168Q104 154 111 131T133 85T175 44T244 24V354Q206 390 170 428T111 508T87 603Q87 667 127 706T244 750V844H274V751Q310 750 351 743T419 730V563H401L394 594Q389 615
379 643T345 693T274 719V429Q313 391 351 350T415 262T441 156Q441 87 399 43T274 -8V-103H244V-10H240ZM154 624Q154 578 180 538T244 459V718Q200 714 177 690T154 624ZM374 136Q374 192 345 237T274 324V25Q323 30 348 58T374 136Z" />
<glyph unicode="%" glyph-name="percent" d="M146 490Q109 490 85 509T48 557T35 620T47 682T84 731T146 750Q183 750 207 731T244 683T257 620T245 558T208 509T146 490ZM146 513Q168 513 185 531T203 595V645Q203 692 186 709T146 727Q124 727 107 710T89 645V595Q89
549 106 531T146 513ZM113 112L84 130L423 669L452 651L113 112ZM364 -10Q327 -10 303 9T266 57T253 120T265 182T302 231T364 250Q401 250 425 231T462 183T475 120T463 58T426 9T364 -10ZM364 13Q386 13 403 31T421 95V145Q421 192 404 209T364 227Q342 227 325
210T307 145V95Q307 49 324 31T364 13Z" />
<glyph unicode="&amp;" glyph-name="ampersand" d="M109 630Q109 590 128 556T170 489L198 506Q204 510 221 524T253 564T269 629Q269 673 247 697T190 722Q160 722 135 701T109 630ZM193 -10Q134 -10 92 19T26 102T3 224Q3 288 20 332T62 405T115 454Q91 490
72 527T53 613Q53 675 91 712T191 750Q253 750 287 716T322 631Q322 592 303 563T258 514T212 481L186 464L367 196Q369 209 370 223T372 251V414H310L309 442H473L474 414H404V250Q404 201 393 158L446 79Q464 53 481 43T524 28V0H421L363 87Q335 41 292 16T193
-10ZM69 157Q69 97 105 60T200 22Q250 22 286 48T343 116L132 429Q108 411 89 381T69 298V157Z" />
<glyph unicode="&apos;" glyph-name="quotesingle" d="M234 450L213 740H283L262 450H234Z" />
<glyph unicode="(" glyph-name="parenleft" d="M302 -122Q272 -89 239 -25T182 126T159 319Q159 424 182 512T238 663T302 760H330Q302 727 272 664T220 512T199 319Q199 214 220 127T271 -25T330 -122H302Z" />
<glyph unicode=")" glyph-name="parenright" d="M179 -122Q207 -89 237 -25T289 126T310 319Q310 424 289 512T238 663T179 760H207Q238 727 271 664T327 512T350 319Q350 214 327 127T271 -25T207 -122H179Z" />
<glyph unicode="*" glyph-name="asterisk" d="M166 374L109 415L225 539L224 543L57 575L79 641L232 569L236 572L215 740H285L264 572L268 569L421 641L442 575L276 543L275 539L391 415L334 374L252 522H248L166 374Z" />
<glyph unicode="+" glyph-name="plus" d="M226 150V291H84V325H226V467H260V325H401V291H260V150H226Z" />
<glyph unicode="," glyph-name="comma" d="M203 -101L191 -83Q212 -69 233 -48T255 -10Q230 -10 213 3T195 43Q195 69 211 84T250 100Q272 100 288 86T305 39Q305 9 289 -18T249 -67T203 -101Z" />
<glyph unicode="-" glyph-name="hyphen" d="M112 291V325H376V291H112Z" />
<glyph unicode="." glyph-name="period" d="M250 -10Q227 -10 211 6T195 45Q195 68 211 84T250 100Q273 100 289 84T305 45Q305 22 289 6T250 -10Z" />
<glyph unicode="/" glyph-name="slash" d="M47 -173L359 774H394L82 -173H47Z" />
<glyph unicode="0" glyph-name="zero" d="M250 -10Q199 -10 161 22T97 108T58 230T45 370T57 509T96 631T160 718T250 750Q301 750 339 718T404 632T442 510T455 370T442 231T404 109T340 22T250 -10ZM250 27Q321 27 351 78T381 215V525Q381 611 351 662T250 713Q180
713 150 662T119 525V215Q119 129 149 78T250 27Z" />
<glyph unicode="1" glyph-name="one" d="M-3 0V34H216V635H34V662L123 670Q172 675 204 693T260 750H284V34H473V0H-3Z" />
<glyph unicode="2" glyph-name="two" d="M117 -10Q93 -10 76 12T58 88Q58 136 71 173T105 238T147 285T183 317L271 392Q288 407 310 430T349 488T366 571Q366 638 330 676T235 715Q196 715 169 699T126 658T105 612L146 574Q153 568 166 553T179 515Q179 493
165 480T133 467Q111 467 90 489T68 559Q68 604 90 648T155 721T257 750Q311 750 351 727T413 663T435 573Q435 519 411 479T353 409T292 359L202 292Q175 272 149 246T105 185T87 106Q97 126 122 146T183 166Q218 166 242 149T286 109T326 69T372 51Q397 51 407
67T419 108T421 154V249H451V153Q451 131 449 103T439 50T411 7T357 -10Q324 -10 302 5T265 42T237 86T208 123T170 138Q145 138 126 120T99 85L125 70Q132 66 144 56T157 27Q157 12 147 1T117 -10Z" />
<glyph unicode="3" glyph-name="three" d="M242 -10Q185 -10 145 15T83 85T61 182Q61 234 79 261T126 288Q146 288 158 275T171 241Q171 216 156 202T125 177L95 156Q99 101 134 63T240 25Q305 25 343 61T381 167V302Q381 352 357 387T274 423Q235 423 204 407T142
366L121 386L381 673H208Q194 673 174 667T137 646T118 601L111 526H83V740H416V673L201 439L203 436Q214 442 233 448T280 455Q322 455 361 433T424 363T449 236Q449 155 421 101T346 18T242 -10Z" />
<glyph unicode="4" glyph-name="four" d="M151 0V34H280V213H13V247L310 740H348V247H472V213H348V34H477V0H151ZM46 247H280V636L46 247Z" />
<glyph unicode="5" glyph-name="five" d="M243 -10Q185 -10 143 15T79 84T57 182Q57 234 75 261T122 288Q142 288 154 275T167 241Q167 216 152 202T121 177L91 156Q95 101 133 63T240 25Q308 25 344 61T381 167V312Q381 363 353 398T260 433Q220 433 189 419T139
384T110 344L81 348L126 740H384L414 750H432V673H144L111 389Q122 406 143 423T195 453T264 465Q346 465 397 406T449 237Q449 158 423 103T350 19T243 -10Z" />
<glyph unicode="6" glyph-name="six" d="M251 -10Q212 -10 175 6T108 61T59 166T41 332Q41 418 56 493T101 626T176 717T283 750Q348 750 389 712T430 606Q430 568 416 542T372 516Q354 516 343 527T331 559Q331 581 343 593T371 616L395 634Q395 671 363 695T284
720Q225 720 184 676T121 552T99 363V318H107Q111 350 128 384T179 441T262 465Q322 465 363 433T427 347T449 231Q449 167 426 112T358 24T251 -10ZM256 25Q313 25 347 62T381 170V285Q381 356 348 394T260 433Q202 433 166 395T129 285V170Q129 100 164 63T256
25Z" />
<glyph unicode="7" glyph-name="seven" d="M176 0V47Q176 149 194 221T240 345T299 433T358 500T404 561T422 634Q415 621 393 608T336 594Q302 594 276 608T228 641T185 674T137 689Q113 689 103 673T90 633T88 586V521H58V740H88V692H92Q97 709 112 729T161
750Q189 750 209 737T246 705T277 667T309 635T349 622Q374 622 389 633T410 655L384 670Q377 674 365 684T352 713Q352 728 362 739T392 750Q416 750 433 728T451 652Q451 603 436 567T397 499T346 430T295 344T256 222T241 47V0H176Z" />
<glyph unicode="8" glyph-name="eight" d="M254 -10Q187 -10 142 24T75 113T53 227Q53 284 72 326T119 396T173 435V443Q155 451 135 470T101 518T87 587Q87 642 110 678T172 732T254 750Q298 750 336 732T397 679T421 589Q421 549 407 519T374 470T335 443V435Q361
424 389 397T436 327T455 227Q455 168 433 114T367 25T254 -10ZM254 455Q362 455 362 560V615Q362 720 254 720Q146 720 146 615V560Q146 455 254 455ZM254 25Q318 25 351 59T384 157V291Q384 355 351 389T254 423Q190 423 157 389T124 291V157Q124 93 157 59T254
25Z" />
<glyph unicode="9" glyph-name="nine" d="M229 750Q268 750 305 734T372 679T421 574T439 408Q439 322 424 247T379 114T304 23T197 -10Q132 -10 91 28T50 134Q50 172 64 198T108 224Q126 224 137 213T149 181Q149 159 137 147T109 124L85 106Q85 69 117 45T196
20Q255 20 296 64T359 188T381 377V422H373Q369 390 352 356T301 299T218 275Q158 275 117 307T53 393T31 509Q31 573 54 628T122 716T229 750ZM224 715Q167 715 133 678T99 570V455Q99 384 132 346T220 307Q278 307 314 345T351 455V570Q351 640 316 677T224 715Z"
/>
<glyph unicode=":" glyph-name="colon" d="M250 440Q227 440 211 456T195 495Q195 518 211 534T250 550Q273 550 289 534T305 495Q305 472 289 456T250 440ZM250 -10Q227 -10 211 6T195 45Q195 68 211 84T250 100Q273 100 289 84T305 45Q305 22 289 6T250 -10Z" />
<glyph unicode=";" glyph-name="semicolon" d="M254 416Q231 416 215 432T199 471Q199 494 215 510T254 526Q277 526 293 510T309 471Q309 448 293 432T254 416ZM209 -101L197 -83Q218 -69 239 -48T261 -10Q236 -10 219 3T201 43Q201 69 217 84T256 100Q278 100
294 86T311 39Q311 9 295 -18T255 -67T209 -101Z" />
<glyph unicode="&lt;" glyph-name="less" d="M417 85L60 300V316L417 531L425 517L154 308L425 99L417 85Z" />
<glyph unicode="=" glyph-name="equal" d="M102 342V376H396V342H102ZM102 214V248H396V214H102Z" />
<glyph unicode="&gt;" glyph-name="greater" d="M68 85L425 300V316L68 531L60 517L331 308L60 99L68 85Z" />
<glyph unicode="?" glyph-name="question" d="M237 197V172H209V197Q209 253 225 293T264 365T311 427T350 491T366 573Q366 641 330 678T235 715Q196 715 169 699T126 658T105 612L146 574Q153 568 166 553T179 515Q179 493 165 480T133 467Q111 467 90 489T68
559Q68 604 90 648T155 721T258 750Q312 750 351 727T413 664T435 577Q435 528 415 492T366 426T307 363T257 292T237 197ZM223 -10Q200 -10 184 6T168 45Q168 68 184 84T223 100Q246 100 262 84T278 45Q278 22 262 6T223 -10Z" />
<glyph unicode="@" glyph-name="at" d="M255 -10Q186 -10 133 22T49 118T19 272V468Q19 605 82 677T250 750Q355 750 418 678T481 468V240Q481 206 465 181T410 155Q379 155 359 174T335 230H331Q326 214 313 197T279 167T230 155Q185 155 155 185T110 261T95
359Q95 411 110 458T156 535T231 565Q259 565 279 553T312 524T331 490H334V555H392V241Q392 199 422 199Q451 199 451 241V472Q451 594 396 658T250 722Q159 722 104 658T49 472V268Q49 147 107 84T255 18Q296 18 328 30T384 62T418 98L439 81Q427 62 401 41T338
5T255 -10ZM242 191Q272 191 291 209T321 253T334 304V416Q332 441 321 467T291 511T242 529Q212 529 189 507T166 423V297Q166 236 189 214T242 191Z" />
<glyph unicode="A" glyph-name="A" d="M-1 0V34H52L225 740H265L438 34H502V0H266V34H367L309 271H144L87 34H157V0H-1ZM226 612L152 303H301L226 612Z" />
<glyph unicode="B" glyph-name="B" d="M28 0V34H112V706H28V740H265Q356 740 404 694T452 560Q452 511 436 478T397 428T352 405V398Q380 393 409 371T460 309T481 209Q481 108 427 54T271 0H28ZM182 414H273Q373 414 373 514V608Q373 708 273 708H182V414ZM182
32H273Q335 32 367 64T399 158V257Q399 319 367 351T273 383H182V32Z" />
<glyph unicode="C" glyph-name="C" d="M254 -10Q203 -10 165 22T101 108T62 231T49 370Q49 441 62 509T100 631T164 718T254 750Q294 750 321 734T365 694T386 649H394V740H426V488H374V511Q374 588 357 632T312 694T254 713Q196 713 165 667T133 535V205Q133
119 164 73T254 27Q284 27 311 45T356 108T374 229V252H426V0H394V91H386Q381 70 365 47T322 7T254 -10Z" />
<glyph unicode="D" glyph-name="D" d="M38 0V34H122V706H38V740H227Q290 740 336 709T412 624T457 505T472 370Q472 301 457 235T412 116T336 32T227 0H38ZM227 708H192V32H227Q271 32 307 53T366 114T388 213V527Q388 586 366 626T308 687T227 708Z" />
<glyph unicode="E" glyph-name="E" d="M31 0V34H115V706H31V740H442V526H414L400 633Q391 705 317 705H185V421H314V548H346V260H314V387H185V35H327Q400 35 409 108L424 234H452V0H31Z" />
<glyph unicode="F" glyph-name="F" d="M31 0V34H115V706H31V740H452V526H424L410 633Q401 705 327 705H185V421H326V548H356V260H326V387H185V34H347V0H31Z" />
<glyph unicode="G" glyph-name="G" d="M249 -10Q204 -10 168 19T105 100T64 220T49 368Q49 440 62 508T101 631T166 718T258 750Q295 750 321 734T364 694T386 649H394V740H426V488H374V511Q374 588 357 632T311 694T251 713Q196 713 165 667T133 535V205Q133
119 164 73T247 27Q289 27 314 54T351 124T368 215T372 307V370H206V404H428V0H393V120H384Q379 92 363 62T319 11T249 -10Z" />
<glyph unicode="H" glyph-name="H" d="M11 0V34H77V706H11V740H209V706H143V416H356V706H290V740H488V706H422V34H488V0H290V34H356V384H143V34H209V0H11Z" />
<glyph unicode="I" glyph-name="I" d="M52 0V34H216V706H52V740H450V706H286V34H450V0H52Z" />
<glyph unicode="J" glyph-name="J" d="M385 706V180V180Q382 88 325 39T181 -10Q114 -10 77 16T40 78Q40 98 51 111T85 124Q105 124 117 115T135 95T145 76L171 19Q234 14 274 53T315 178V706H143V740H489V706H385Z" />
<glyph unicode="K" glyph-name="K" d="M1 0V34H67V706H1V740H201V706H135V360L360 706H300V740H485V706H401L239 457L440 34H511V0H287V34H366L196 391L135 297V34H231V0H1Z" />
<glyph unicode="L" glyph-name="L" d="M31 0V34H115V706H31V740H269V706H185V35H327Q400 35 409 108L424 234H452V0H31Z" />
<glyph unicode="M" glyph-name="M" d="M1 0V34H61V706H1V740H99L244 116L389 740H502V706H438V34H502V0H316V34H370V526L248 0H217L95 526V34H159V0H1Z" />
<glyph unicode="N" glyph-name="N" d="M390 -10L135 586V34H219V0H37V34H101V706H37V740H139L380 176V706H296V740H478V706H414V-10H390Z" />
<glyph unicode="O" glyph-name="O" d="M250 -10Q199 -10 161 22T97 108T58 231T45 370Q45 441 58 509T96 631T160 718T250 750Q301 750 339 718T403 632T442 509T455 370Q455 299 442 231T404 109T340 22T250 -10ZM250 27Q309 27 340 73T371 205V535Q371 621 340
667T250 713Q192 713 161 667T129 535V205Q129 119 160 73T250 27Z" />
<glyph unicode="P" glyph-name="P" d="M18 0V34H102V706H18V740H207Q289 740 343 708T425 624T453 515Q453 459 426 408T344 323T207 290H172V34H334V0H18ZM172 327H230Q297 327 332 362T368 465V565Q368 632 333 667T230 703H172V327Z" />
<glyph unicode="Q" glyph-name="Q" d="M250 -10Q199 -10 161 22T97 108T58 231T45 370Q45 441 58 509T96 631T160 718T250 750Q301 750 339 718T403 632T442 509T455 370Q455 295 441 225T399 99T329 15V-72Q329 -81 330 -96T341 -123T370 -136Q390 -136 398 -125T407
-99T409 -78V0H439V-78Q439 -100 432 -124T406 -164T355 -180Q315 -180 294 -152T272 -72V-8Q261 -10 250 -10ZM129 205Q129 68 203 36Q194 46 188 61T182 99Q182 140 201 163T255 187Q291 187 310 161T329 84V59Q371 104 371 205V535Q371 621 340 667T250 713Q192
713 161 667T129 535V205ZM250 27Q262 27 272 29V95Q272 100 271 112T262 136T238 147Q220 147 212 133T204 94Q204 54 219 41T250 27Z" />
<glyph unicode="R" glyph-name="R" d="M409 -10Q367 -10 345 18T322 93V277Q322 332 302 353T220 375H172V34H255V0H18V34H102V706H18V740H248Q323 740 367 712T431 642T451 559Q451 492 410 449T301 392L296 391V385L301 384Q345 375 368 352T391 277V101Q391
91 392 76T402 49T428 37Q451 37 458 55T465 95V268H495V92Q495 70 488 46T462 6T409 -10ZM172 407H231Q298 407 333 432T369 525V580Q369 647 334 677T231 708H172V407Z" />
<glyph unicode="S" glyph-name="S" d="M269 -10Q226 -10 197 6T150 46T123 94T112 133H104V0H72V295H124V256Q124 239 126 210T136 149T159 89T200 42T266 24Q314 24 344 53T374 136Q374 182 354 221T300 295T231 365T161 435T108 511T87 599Q87 646 108 679T163
731T240 750Q287 750 316 730T361 684T383 639H391V740H423V492H371V524Q371 578 356 622T312 691T242 717Q201 717 178 690T154 622Q154 582 174 546T228 475T297 405T367 333T420 253T441 160Q441 108 418 70T355 11T269 -10Z" />
<glyph unicode="T" glyph-name="T" d="M74 0V32H213V705H154Q80 705 71 633L57 526H29V750H47L77 740H419L449 750H467V526H439L425 633Q416 705 342 705H283V32H422V0H74Z" />
<glyph unicode="U" glyph-name="U" d="M252 -10Q173 -10 131 35T89 165V706H25V740H233V706H159V164Q159 100 187 66T270 31Q324 31 352 65T381 164V706H322V740H474V706H415V165Q415 80 374 35T252 -10Z" />
<glyph unicode="V" glyph-name="V" d="M226 0L53 706H-11V740H225V706H124L263 128L404 706H334V740H492V706H439L266 0H226Z" />
<glyph unicode="W" glyph-name="W" d="M136 0L39 706H-21V740H153V706H104L174 197L238 591L218 740H283L358 197L441 706H398V740H524V706H474L358 0H320L254 481L174 0H136Z" />
<glyph unicode="X" glyph-name="X" d="M16 0V34H87L213 363L81 706H10V740H223V706H153L254 443L355 706H300V740H458V706H387L270 402L412 34H483V0H263V34H340L229 321L119 34H179V0H16Z" />
<glyph unicode="Y" glyph-name="Y" d="M69 0V34H213V312L53 706H-26V740H220V706H121L264 356L395 706H329V740H497V706H430L283 315V34H427V0H69Z" />
<glyph unicode="Z" glyph-name="Z" d="M61 0V20L381 705H210Q136 705 127 633L113 516H85V740H460V720L140 35H327Q401 35 410 107L424 224H452V0H61Z" />
<glyph unicode="[" glyph-name="bracketleft" d="M189 -122V-121H187V760H356V734H225V-96H356V-122H189Z" />
<glyph unicode="\" glyph-name="backslash" d="M418 -173L106 774H141L453 -173H418Z" />
<glyph unicode="]" glyph-name="bracketright" d="M187 -122V-96H318V734H187V760H356V-121H354V-122H187Z" />
<glyph unicode="^" glyph-name="asciicircum" d="M156 510L231 750H271L346 510H334L251 656L168 510H156Z" />
<glyph unicode="_" glyph-name="underscore" d="M87 -34V0H404V-34H87Z" />
<glyph unicode="`" glyph-name="grave" d="M264 580L196 760H266L276 580H264Z" />
<glyph unicode="a" glyph-name="a" d="M184 -10Q129 -10 98 23T66 105Q66 150 88 179T145 229T212 264L314 311V408Q314 457 283 485T205 513Q162 513 134 492T95 451Q118 427 129 413T141 380Q141 363 130 348T95 333Q73 333 61 348T48 387Q48 410 59 437T94
491T154 533T239 550Q292 550 323 529T368 476T382 408V84Q382 42 411 42Q430 42 441 57T456 88L474 82Q471 62 460 41T431 5T385 -10Q355 -10 335 10T314 72Q306 54 288 35T244 3T184 -10ZM127 128Q127 89 151 62T215 34Q241 34 261 45T295 73T314 104V287L219
240Q196 229 175 216T141 182T127 128Z" />
<glyph unicode="b" glyph-name="b" d="M99 0V688H-3V712L99 725L143 750H167V465H170Q178 484 195 503T237 536T294 550Q344 550 378 517T429 424T447 288Q447 204 426 137T365 30T267 -10Q231 -10 205 5T164 42T142 85H132V0H99ZM267 22Q314 22 342 56T370 159V396Q370
457 340 483T272 509Q238 509 216 492T182 449T167 401V159Q167 84 196 53T267 22Z" />
<glyph unicode="c" glyph-name="c" d="M269 -10Q210 -10 165 24T94 120T68 262Q68 345 95 410T170 512T283 550Q327 550 363 533T420 486T441 419Q441 384 424 368T386 352Q370 352 357 362T343 392Q343 412 358 429T391 478Q381 491 355 504T290 518Q220 518
181 465T142 320V220Q142 157 162 116T216 53T287 32Q323 32 349 48T391 87T413 132L434 125Q428 96 408 65T353 12T269 -10Z" />
<glyph unicode="d" glyph-name="d" d="M197 -10Q145 -10 111 23T60 113T43 241Q43 327 64 397T126 508T228 550Q263 550 286 536T323 504V688H221V712L323 725L367 750H391V52H462V28L391 15L347 -10H323V75H320Q313 57 296 37T254 4T197 -10ZM218 31Q252 31 274
48T309 91T323 139V381Q323 456 294 487T223 518Q176 518 148 484T120 381V144Q120 83 150 57T218 31Z" />
<glyph unicode="e" glyph-name="e" d="M274 -10Q213 -10 165 24T89 121T61 265Q61 319 73 369T112 461T178 526T272 550Q351 550 399 496T448 345Q448 332 448 321T446 304H135V220Q135 157 157 116T215 53T291 32Q329 32 355 48T398 87T421 132L442 125Q436 96
415 65T359 12T274 -10ZM270 518Q228 518 199 494T153 427T135 330H335Q346 330 356 332T374 347T382 390Q382 452 350 485T270 518Z" />
<glyph unicode="f" glyph-name="f" d="M182 34V508H68V530L182 540V565V565Q182 625 205 672T274 746T392 773Q449 773 487 752T525 694Q525 675 515 663T485 651Q457 651 443 669T422 697L394 747Q331 752 291 712T250 585V540H484V508H250V34H439V0H65V34H182Z" />
<glyph unicode="g" glyph-name="g" d="M233 -190Q141 -190 89 -152T37 -56Q37 -21 53 3T94 41T141 61V65Q91 70 66 93T41 150Q41 181 56 201T92 235T125 256L132 260Q107 285 96 317T84 383Q84 424 101 462T156 525T251 550Q286 550 314 540H465V509H367Q393 485
405 451T418 383Q418 343 401 305T347 241T251 216Q219 216 193 224T148 246L134 238Q118 228 102 215T86 180Q86 159 102 149T138 135T172 130L300 120Q365 115 410 78T455 -25Q455 -75 427 -112T349 -170T233 -190ZM251 244Q304 244 327 278T350 362V404Q350
454 327 488T251 522Q198 522 175 488T152 404V362Q152 312 175 278T251 244ZM243 -154Q311 -154 356 -124T401 -40Q401 -3 380 17T330 45T277 55L181 62Q170 59 149 49T110 17T92 -42Q92 -94 134 -124T243 -154Z" />
<glyph unicode="h" glyph-name="h" d="M14 0V34H98V688H-4V712L98 725L142 750H166V469H169Q177 487 194 505T237 537T297 550Q346 550 374 520T403 430V34H487V0H335V424Q335 504 265 504Q237 504 217 491T184 459T166 421V34H225V33H265V0H14Z" />
<glyph unicode="i" glyph-name="i" d="M27 0V34H216V488H74V512L216 525L260 550H284V34H473V0H27ZM250 630Q227 630 211 646T195 685Q195 708 211 724T250 740Q273 740 289 724T305 685Q305 662 289 646T250 630Z" />
<glyph unicode="j" glyph-name="j" d="M349 630Q326 630 310 646T294 685Q294 708 310 724T349 740Q372 740 388 724T404 685Q404 662 388 646T349 630ZM359 550H383V0H382Q377 -83 326 -136T177 -190Q117 -190 84 -169T50 -114Q50 -92 62 -80T96 -68Q120 -68
133 -82T153 -114L171 -164Q234 -169 274 -129T315 -2V488H173V512L315 525L359 550Z" />
<glyph unicode="k" glyph-name="k" d="M-7 0V34H92V688H-10V712L92 725L136 750H160V280L353 506H300V540H482V506H392L243 332L443 34H514V0H307V34H369L202 284L204 286L160 235V34H239V0H-7Z" />
<glyph unicode="l" glyph-name="l" d="M27 0V34H216V688H74V712L216 725L260 750H284V34H473V0H27Z" />
<glyph unicode="m" glyph-name="m" d="M22 0V34H66V488H12V508L72 523L112 550H131V479H134Q142 502 165 526T223 550Q250 550 267 532T287 479H290Q299 502 322 526T379 550Q410 550 427 530T444 470V34H493V0H379V467Q379 505 346 505Q328 505 316 493T296 462T287
426V34H336V0H223V467Q223 505 187 505Q170 505 158 493T140 462T131 426V34H180V0H22Z" />
<glyph unicode="n" glyph-name="n" d="M14 0V28L98 36V488H-4V512L98 525L142 550H166V469H169Q177 487 194 505T237 537T297 550Q346 550 374 520T403 430V34H487V0H335V424Q335 504 265 504Q237 504 217 491T184 459T166 421V36L265 28V0H14Z" />
<glyph unicode="o" glyph-name="o" d="M250 -10Q200 -10 163 13T102 77T65 168T53 270Q53 323 65 372T101 462T163 526T250 550Q300 550 337 527T398 463T435 373T447 270Q447 218 435 168T399 78T337 14T250 -10ZM250 22Q313 22 345 74T377 220V320Q377 413 345
465T250 518Q187 518 155 466T123 320V220Q123 127 155 75T250 22Z" />
<glyph unicode="p" glyph-name="p" d="M8 -190V-156H127V488H25V512L127 525L171 550H195V465H198Q206 484 223 503T265 536T322 550Q372 550 406 516T457 423T475 288Q475 206 455 138T394 30T295 -10Q258 -10 234 4T195 36V-156H359V-190H8ZM195 159Q195 84
224 53T295 22Q342 22 370 56T398 159V396Q398 457 368 483T300 509Q266 509 244 492T210 449T195 401V159Z" />
<glyph unicode="q" glyph-name="q" d="M201 -190V-156H365V75H362Q355 57 338 37T296 4T239 -10Q187 -10 153 23T102 116T85 251Q85 332 105 400T165 509T267 550Q302 550 327 535T368 498T390 455H400V540H433V-156H532V-190H201ZM260 31Q294 31 316 48T351 91T365
139V381Q365 456 336 487T265 518Q218 518 190 484T162 381V144Q162 83 192 57T260 31Z" />
<glyph unicode="r" glyph-name="r" d="M356 34V0H5V34H125V488H23V512L125 525L169 550H193V374H196L201 389Q224 458 268 504T373 550Q411 550 438 533T465 484Q465 465 455 453T424 441Q399 441 387 457T367 487L352 516Q316 516 289 491T242 424T207 334L193
289V34H356Z" />
<glyph unicode="s" glyph-name="s" d="M295 -10Q245 -10 213 13T163 69T142 133H134V0H102V234H154V222Q154 212 155 189T164 138T185 84T226 41T292 24Q337 24 360 47T384 107Q384 143 365 169T316 216T253 257T189 299T140 351T121 422Q121 478 158 514T258
550Q304 550 331 533T371 492T390 449H398V540H430V346H388V349Q388 375 382 404T362 459T323 501T261 517Q215 517 198 493T181 443Q181 411 200 387T249 342T312 301T376 258T425 204T444 131Q444 91 425 59T372 9T295 -10Z" />
<glyph unicode="t" glyph-name="t" d="M297 -10Q224 -10 179 35T133 170V508H19V540H133L178 647H201V540H462V508H201V175Q201 106 229 69T312 31Q356 31 382 52T420 107T432 182V208H462V182Q462 154 455 121T431 58T381 9T297 -10Z" />
<glyph unicode="u" glyph-name="u" d="M379 550H403V52H474V28L403 15L359 -10H335V85H332Q325 65 309 43T267 5T209 -10Q161 -10 130 21T98 119V488H-4V512L98 525L142 550H166V121Q166 36 235 36Q264 36 284 51T318 87T335 129V488H233V512L335 525L379 550Z" />
<glyph unicode="v" glyph-name="v" d="M226 0L56 506H-21V540H225V506H125L264 89L403 506H334V540H502V506H435L266 0H226Z" />
<glyph unicode="w" glyph-name="w" d="M170 0L84 506H27V540H197V506H146L205 156L264 506H224V540H334V506H298L357 156L416 506H366V540H479V506H443L357 0H326L263 340L205 0H170Z" />
<glyph unicode="x" glyph-name="x" d="M30 0V34H101L218 267L97 506H26V540H236V506H166L258 325L349 506H294V540H452V506H381L274 293L405 34H476V0H259V34H336L234 235L133 34H193V0H30Z" />
<glyph unicode="y" glyph-name="y" d="M73 -190Q24 -190 -6 -171T-37 -119Q-37 -99 -24 -84T15 -68Q37 -68 48 -79T66 -107T75 -137L81 -159Q134 -163 178 -121T256 22L91 506H12V540H258V506H158L289 121L416 506H347V540H515V506H448L287 18Q270 -33 245 -81T178
-159T73 -190Z" />
<glyph unicode="z" glyph-name="z" d="M61 0V20L378 508H210Q136 508 127 436L113 316H85V540H457V520L140 32H327Q401 32 410 104L424 224H452V0H61Z" />
<glyph unicode="{" glyph-name="braceleft" d="M322 -127Q261 -127 231 -98T201 -23Q201 14 213 58T237 147T249 228Q249 262 237 279T206 302T166 309H128V336H166Q187 336 206 342T237 366T249 417Q249 453 237 497T213 586T201 668Q201 714 231 743T322 772H376V748H328Q282
748 262 727T241 670Q241 638 253 594T277 503T289 417Q289 381 270 354T206 326V319Q250 319 269 292T289 228Q289 189 277 143T253 52T241 -25Q241 -60 261 -81T328 -103H376V-127H322Z" />
<glyph unicode="|" glyph-name="bar" d="M224 -173V774H258V-173H224Z" />
<glyph unicode="}" glyph-name="braceright" d="M136 -127V-103H184Q231 -103 251 -82T271 -25Q271 7 259 51T235 142T223 228Q223 264 242 291T306 319V326Q262 326 243 353T223 417Q223 456 235 502T259 593T271 670Q271 705 251 726T184 748H136V772H190Q251
772 281 743T311 668Q311 631 299 587T275 498T263 417Q263 384 275 367T306 343T346 336H384V309H346Q325 309 306 303T275 279T263 228Q263 192 275 148T299 59T311 -23Q311 -69 281 -98T190 -127H136Z" />
<glyph unicode="~" glyph-name="asciitilde" d="M310 588Q288 588 264 600T217 626T176 639Q143 639 143 593H130Q130 601 132 616T140 647T158 674T190 686Q213 686 237 673T284 648T324 635Q357 635 357 681H370Q370 673 368 658T360 627T342 600T310 588Z" />
<glyph unicode="&#xa0;" glyph-name="uni00A0" />
<glyph unicode="&#xa1;" glyph-name="exclamdown" d="M248 440Q225 440 209 456T193 495Q193 518 209 534T248 550Q271 550 287 534T303 495Q303 472 287 456T248 440ZM213 -200L234 368H262L283 -200H213Z" />
<glyph unicode="&#xa2;" glyph-name="cent" d="M254 -92V-9Q193 -4 152 34T90 132T68 264Q68 340 91 401T156 501T254 549V633H284V551Q328 551 363 534T420 487T441 420Q441 385 424 369T386 353Q370 353 357 363T343 393Q343 413 358 430T391 479Q381 492 355
505T290 519Q287 519 284 519V26Q309 27 338 38T387 79T408 169V194H440V169Q440 92 397 44T284 -10V-92H254ZM142 221Q142 136 170 87T254 28V515Q200 502 171 452T142 321V221Z" />
<glyph unicode="&#xa3;" glyph-name="sterling" d="M303 -110Q269 -110 241 -94T192 -53T156 -2Q131 -10 108 -10Q77 -10 62 3T45 32T54 62T87 75Q108 75 126 62T164 32Q185 51 200 87T216 179Q216 227 205 272T178 362H49V394H167Q153 438 142 482T130 574Q130
638 152 676T212 732T300 750Q357 750 395 729T433 670Q433 652 423 640T393 628Q365 628 351 646T330 674L302 724Q260 731 229 698T197 586Q197 536 209 488T238 394H422V362H249Q263 320 273 278T284 194Q284 120 254 76T186 11Q209 -11 236 -28T300 -46Q345
-46 368 -25T399 27T408 82V120H437V82Q437 59 433 27T414 -37T374 -89T303 -110Z" />
<glyph unicode="&#xa4;" glyph-name="currency" d="M53 237L32 258L116 343Q72 393 72 464Q72 502 85 535T121 593L32 683L53 704L144 612Q188 644 252 644Q316 644 359 612L450 704L472 683L382 593Q431 542 431 464Q431 392 387 342L472 258L450 237L365 322Q343
305 315 295T252 285Q218 285 190 295T138 322L53 237ZM252 318Q321 318 357 350T393 433V496Q393 546 357 578T252 611Q183 611 147 579T110 496V433Q110 383 146 351T252 318Z" />
<glyph unicode="&#xa5;" glyph-name="yen" d="M69 0V34H213V311H77V343H213V345L195 389H77V421H181L62 706H-16V740H225V706H129L263 391L386 706H324V740H487V706H421L312 421H411V389H300L283 345V343H411V311H283V34H427V0H69Z" />
<glyph unicode="&#xa6;" glyph-name="brokenbar" d="M224 391V774H258V391H224ZM224 -173V210H258V-173H224Z" />
<glyph unicode="&#xa7;" glyph-name="section" d="M259 -171Q216 -171 187 -155T140 -115T113 -67T102 -28H94V-161H62V134H114V95Q114 78 116 49T126 -12T149 -72T190 -119T256 -137Q304 -137 334 -108T364 -25Q364 16 341 51T282 118T206 182T129 248T70 321T47
408Q47 463 75 496T149 542V551Q115 583 94 619T72 697Q72 738 91 771T145 825T224 845Q271 845 300 825T346 779T368 734H376V845H408V577H356V607Q356 704 322 758T227 812Q186 812 163 786T139 721Q139 684 162 651T221 586T297 522T374 454T433 378T456 289Q456
236 429 202T358 154V145Q390 112 410 76T431 -1Q431 -53 408 -91T345 -150T259 -171ZM333 170Q359 181 374 206T389 266Q389 306 370 340T319 405T251 465T180 524Q149 517 132 492T114 431Q114 393 134 359T188 294T260 233T333 170Z" />
<glyph unicode="&#xa8;" glyph-name="dieresis" d="M397 605Q375 605 361 619T347 655Q347 676 361 690T397 705Q418 705 432 691T447 655Q447 634 433 620T397 605ZM250 605Q229 605 215 619T200 655Q200 676 214 690T250 705Q272 705 286 691T300 655Q300 634
286 620T250 605Z" />
<glyph unicode="&#xa9;" glyph-name="copyright" d="M250 -10Q188 -10 142 22T65 108T19 231T4 370Q4 441 19 509T65 631T142 718T250 750Q312 750 358 718T435 632T481 509T496 370Q496 299 481 231T435 109T358 22T250 -10ZM250 18Q304 18 344 48T412 128T452
242T466 371Q466 437 453 499T412 612T345 692T250 722Q196 722 156 693T88 613T48 500T34 371Q34 305 47 242T88 129T155 48T250 18ZM248 155Q210 155 183 178T139 240T118 324T117 416T139 500T183 561T248 585Q276 585 295 572T326 541T341 504H349V575H372V393H334V416Q334
481 314 517T253 553Q226 553 211 538T190 502T182 460T180 430V310Q180 300 181 280T189 239T211 202T253 187Q293 187 313 223T334 324V347H372V165H349V236H341Q338 219 327 200T296 168T248 155Z" />
<glyph unicode="&#xaa;" glyph-name="ordfeminine" d="M206 216Q169 216 148 237T126 290Q126 320 141 338T181 370T238 395L296 417V455Q296 487 276 506T224 525Q198 525 180 512T154 484Q169 468 175 459T182 438Q182 424 173 414T150 404Q134 404 126 414T118
441Q118 461 132 486T174 531T246 550Q284 550 305 536T336 500T346 455V279Q346 251 363 251Q374 251 381 261T391 282L405 278Q401 258 387 237T344 216Q324 216 310 228T296 270Q287 252 264 234T206 216ZM175 302Q175 277 191 263T230 249Q256 249 273 265T296
295V399L245 378Q214 365 195 350T175 302Z" />
<glyph unicode="&#xab;" glyph-name="guillemotleft" d="M432 70L212 269V281L432 480L442 468L286 275L442 82L432 70ZM526 70L306 269V281L526 480L536 468L380 275L536 82L526 70Z" />
<glyph unicode="&#xac;" glyph-name="logicalnot" d="M85 341V375H415V197H383V341H85Z" />
<glyph unicode="&#xad;" glyph-name="uni00AD" d="M112 291V325H376V291H112Z" />
<glyph unicode="&#xae;" glyph-name="registered" d="M250 293Q182 293 136 326T66 410T43 518Q43 574 66 624T135 707T250 740Q319 740 365 708T434 624T457 517Q457 461 434 410T365 326T250 293ZM250 317Q310 317 350 346T411 421T431 517Q431 567 411 612T351
687T250 716Q190 716 150 687T89 613T69 518Q69 468 89 422T150 347T250 317ZM314 384Q295 384 286 395T277 424V473Q277 495 269 503T237 511H220V407L254 403V388H154V403L187 407V640L154 644V659H252Q296 659 314 636T332 588Q332 561 316 542T272 522H269V519H271Q309
519 309 477V431Q309 425 310 418T321 410Q333 410 333 428V474H351V424Q351 411 344 398T314 384ZM220 532H243Q270 532 284 542T298 579V592Q298 642 243 642H220V532Z" />
<glyph unicode="&#xaf;" glyph-name="overscore" d="M112 638V669H376V638H112Z" />
<glyph unicode="&#xb0;" glyph-name="degree" d="M254 540Q205 540 177 571T149 645Q149 689 177 719T254 750Q303 750 331 720T359 645Q359 602 331 571T254 540ZM254 570Q289 570 307 592T326 645Q326 677 308 698T254 720Q219 720 201 699T182 645Q182 614
200 592T254 570Z" />
<glyph unicode="&#xb1;" glyph-name="plusminus" d="M237 235V333H60V363H237V462H271V363H447V333H271V235H237ZM60 87V117H447V87H60Z" />
<glyph unicode="&#xb2;" glyph-name="uni00B2" d="M174 -10Q157 -10 147 2T136 33Q136 56 149 75T182 111T219 139L244 155Q256 163 270 174T294 202T304 245Q304 278 286 296T238 315Q213 315 195 303T169 278L198 258Q217 245 217 227Q217 215 209 206T184 196Q165
196 154 210T143 247Q143 288 175 314T253 340Q299 340 326 314T354 250Q354 219 336 196T295 157T257 133L230 118Q198 100 178 83T157 52Q164 60 179 69T213 78Q235 78 252 69T286 50T318 40Q339 40 342 54T346 75V103H365V72Q365 58 363 39T350 5T311 -10Q290
-10 276 -1T251 20T227 42T194 51Q181 51 173 47T163 38L178 35Q181 34 190 31T199 13Q199 4 193 -3T174 -10Z" />
<glyph unicode="&#xb3;" glyph-name="uni00B3" d="M248 -10Q203 -10 174 14T145 81Q145 110 157 122T186 135Q216 135 216 106Q216 96 210 85T183 69L172 66Q178 14 237 14Q279 14 296 34T313 80V114Q313 143 295 159T246 175Q226 175 210 169T186 157L173 175L310
291H226Q207 291 197 284T185 257L182 230H168V330H352V299L229 194L230 193Q232 195 240 196T262 198Q306 198 335 176T364 101Q364 47 332 19T248 -10Z" />
<glyph unicode="&#xb4;" glyph-name="acute" d="M196 580L206 760H276L208 580H196Z" />
<glyph unicode="&#xb5;" glyph-name="uni00B5" d="M-41 -190Q-93 -190 -127 -166T-161 -108Q-161 -88 -148 -74T-114 -60Q-94 -60 -83 -71T-65 -98T-56 -128L-49 -162Q-47 -163 -43 -164T-33 -165Q-6 -165 6 -138T31 -70L218 488H99L104 512L229 525L278 550H302L165
136Q152 95 159 69T195 43Q230 43 264 91T333 248T408 540H477L380 84Q377 70 377 56T392 42Q408 42 423 59T460 106L486 141L503 128L480 97Q448 54 421 22T359 -10Q332 -10 314 11T311 77L367 247H352Q338 205 320 161T279 77T226 14T162 -10Q133 -10 122 7T111
40H98L102 -55L97 -70Q90 -93 76 -121T35 -169T-41 -190Z" />
<glyph unicode="&#xb6;" glyph-name="paragraph" d="M299 -100V290Q217 290 163 323T81 407T53 515Q53 572 80 623T162 707T299 740H440V706H396V-100H366V706H329V-100H299Z" />
<glyph unicode="&#xb7;" glyph-name="middot" d="M250 196Q227 196 211 212T195 251Q195 274 211 290T250 306Q273 306 289 290T305 251Q305 228 289 212T250 196Z" />
<glyph unicode="&#xb8;" glyph-name="cedilla" d="M194 -213Q150 -213 121 -197T91 -153Q91 -141 98 -130T124 -118Q147 -118 155 -135T166 -165L170 -188Q173 -189 180 -191T196 -193Q225 -193 238 -177T252 -142Q252 -115 230 -100T171 -84Q161 -84 151 -85T132
-91L123 -86L164 -8H197L173 -50Q218 -46 244 -58T282 -90T294 -133Q294 -150 286 -169T256 -200T194 -213Z" />
<glyph unicode="&#xb9;" glyph-name="uni00B9" d="M137 0V28H239V261H154V282L180 284Q209 286 223 290T247 304T270 330H284L282 28H373V0H137Z" />
<glyph unicode="&#xba;" glyph-name="ordmasculine" d="M250 216Q207 216 179 240T136 302T121 383T135 464T178 526T250 550Q293 550 321 526T364 464T379 383T365 302T322 240T250 216ZM250 242Q288 242 307 273T326 360V406Q326 462 307 493T250 524Q213 524
194 493T174 406V360Q174 305 193 274T250 242Z" />
<glyph unicode="&#xbb;" glyph-name="guillemotright" d="M60 70L280 269V281L60 480L50 468L206 275L50 82L60 70ZM-34 70L186 269V281L-34 480L-44 468L112 275L-44 82L-34 70Z" />
<glyph unicode="&#xbc;" glyph-name="onequarter" d="M95 0L407 740H436L124 0H95ZM-22 408V436H80V669H-5V690L21 692Q50 694 64 698T88 712T111 738H125L123 436H214V408H-22ZM333 0V28H401V82H262V110L414 330H444V110H516V82H444V28H518V0H333ZM289 110H401V276L289
110Z" />
<glyph unicode="&#xbd;" glyph-name="onehalf" d="M95 0L407 740H436L124 0H95ZM-22 408V436H80V669H-5V690L21 692Q50 694 64 698T88 712T111 738H125L123 436H214V408H-22ZM324 -10Q307 -10 297 2T286 33Q286 56 299 75T332 111T369 139L394 155Q406 163 420
174T444 202T454 245Q454 278 436 296T388 315Q363 315 345 303T319 278L348 258Q367 245 367 227Q367 215 359 206T334 196Q315 196 304 210T293 247Q293 288 325 314T403 340Q449 340 476 314T504 250Q504 219 486 196T445 157T407 133L380 118Q348 100 328 83T307
52Q314 60 329 69T363 78Q385 78 402 69T436 50T468 40Q489 40 492 54T496 75V103H515V72Q515 58 513 39T500 5T461 -10Q440 -10 426 -1T401 20T377 42T344 51Q331 51 323 47T313 38L328 35Q331 34 340 31T349 13Q349 4 343 -3T324 -10Z" />
<glyph unicode="&#xbe;" glyph-name="threequarters" d="M95 0L407 740H436L124 0H95ZM89 398Q44 398 15 422T-14 489Q-14 518 -2 530T27 543Q57 543 57 514Q57 504 51 493T24 477L13 474Q19 422 78 422Q120 422 137 442T154 488V522Q154 551 136 567T87 583Q67
583 51 577T27 565L14 583L151 699H67Q48 699 38 692T26 665L23 638H9V738H193V707L70 602L71 601Q73 603 81 604T103 606Q147 606 176 584T205 509Q205 455 173 427T89 398ZM333 0V28H401V82H262V110L414 330H444V110H516V82H444V28H518V0H333ZM289 110H401V276L289
110Z" />
<glyph unicode="&#xbf;" glyph-name="questiondown" d="M280 440Q257 440 241 456T225 495Q225 518 241 534T280 550Q303 550 319 534T335 495Q335 472 319 456T280 440ZM245 -210Q191 -210 152 -187T90 -124T68 -37Q68 12 88 48T137 114T196 177T246 248T266
343V368H294V343Q294 287 278 247T239 175T193 113T153 49T137 -33Q137 -100 173 -137T268 -175Q307 -175 334 -159T377 -118T398 -72L357 -34Q350 -28 337 -13T324 25Q324 48 338 60T370 73Q393 73 414 51T435 -19Q435 -64 413 -108T348 -181T245 -210Z" />
<glyph unicode="&#xc0;" glyph-name="Agrave" d="M-1 0V34H52L225 740H265L438 34H502V0H266V34H367L309 271H144L87 34H157V0H-1ZM226 612L152 303H301L226 612ZM252 780L184 960H254L264 780H252Z" />
<glyph unicode="&#xc1;" glyph-name="Aacute" d="M-1 0V34H52L225 740H265L438 34H502V0H266V34H367L309 271H144L87 34H157V0H-1ZM226 612L152 303H301L226 612ZM236 780L246 960H316L248 780H236Z" />
<glyph unicode="&#xc2;" glyph-name="Acircumflex" d="M-1 0V34H52L225 740H265L438 34H502V0H266V34H367L309 271H144L87 34H157V0H-1ZM226 612L152 303H301L226 612ZM165 780L230 950H270L335 780H323L250 886L177 780H165Z" />
<glyph unicode="&#xc3;" glyph-name="Atilde" d="M-1 0V34H52L225 740H265L438 34H502V0H266V34H367L309 271H144L87 34H157V0H-1ZM226 612L152 303H301L226 612ZM289 807Q268 807 253 819T226 845T198 858Q185 858 179 846T173 812H160Q160 820 161 835T166 866T181
893T211 905Q232 905 246 892T274 867T302 854Q316 854 321 866T327 900H340Q340 893 339 878T334 846T319 819T289 807Z" />
<glyph unicode="&#xc4;" glyph-name="Adieresis" d="M-1 0V34H52L225 740H265L438 34H502V0H266V34H367L309 271H144L87 34H157V0H-1ZM226 612L152 303H301L226 612ZM323 805Q301 805 287 819T273 855Q273 876 287 890T323 905Q344 905 358 891T373 855Q373 834
359 820T323 805ZM176 805Q155 805 141 819T126 855Q126 876 140 890T176 905Q198 905 212 891T226 855Q226 834 212 820T176 805Z" />
<glyph unicode="&#xc5;" glyph-name="Aring" d="M-1 0V34H52L225 740H265L438 34H502V0H266V34H367L309 271H144L87 34H157V0H-1ZM226 612L152 303H301L226 612ZM250 784Q212 784 190 808T167 867Q167 902 189 926T250 950Q288 950 310 926T333 867Q333 833 311
809T250 784ZM250 811Q276 811 290 827T304 867Q304 890 290 906T250 923Q224 923 210 907T196 867Q196 844 210 828T250 811Z" />
<glyph unicode="&#xc6;" glyph-name="AE" d="M7 0V34H60L253 706H162L161 740H490V526H462L451 633Q447 669 428 687T365 705H326V421H387V548H417V260H387V387H326V34L368 35Q412 36 430 53T453 108L465 234H493V0H209V34H263V273H162L95 34H155V0H7ZM263 634L170
303H263V634Z" />
<glyph unicode="&#xc7;" glyph-name="Ccedilla" d="M254 -10Q203 -10 165 22T101 108T62 231T49 370Q49 441 62 509T100 631T164 718T254 750Q294 750 321 734T365 694T386 649H394V740H426V488H374V511Q374 588 357 632T312 694T254 713Q196 713 165 667T133
535V205Q133 119 164 73T254 27Q284 27 311 45T356 108T374 229V252H426V0H394V91H386Q381 70 365 47T322 7T254 -10ZM261 -213Q217 -213 188 -197T158 -153Q158 -141 165 -130T191 -118Q214 -118 222 -135T233 -165L237 -188Q240 -189 247 -191T263 -193Q292 -193
305 -177T319 -142Q319 -115 297 -100T238 -84Q228 -84 218 -85T199 -91L190 -86L231 -8H264L240 -50Q285 -46 311 -58T349 -90T361 -133Q361 -150 353 -169T323 -200T261 -213Z" />
<glyph unicode="&#xc8;" glyph-name="Egrave" d="M31 0V34H115V706H31V740H442V526H414L400 633Q391 705 317 705H185V421H314V548H346V260H314V387H185V35H327Q400 35 409 108L424 234H452V0H31ZM252 780L184 960H254L264 780H252Z" />
<glyph unicode="&#xc9;" glyph-name="Eacute" d="M31 0V34H115V706H31V740H442V526H414L400 633Q391 705 317 705H185V421H314V548H346V260H314V387H185V35H327Q400 35 409 108L424 234H452V0H31ZM236 780L246 960H316L248 780H236Z" />
<glyph unicode="&#xca;" glyph-name="Ecircumflex" d="M31 0V34H115V706H31V740H442V526H414L400 633Q391 705 317 705H185V421H314V548H346V260H314V387H185V35H327Q400 35 409 108L424 234H452V0H31ZM165 780L230 950H270L335 780H323L250 886L177 780H165Z" />
<glyph unicode="&#xcb;" glyph-name="Edieresis" d="M31 0V34H115V706H31V740H442V526H414L400 633Q391 705 317 705H185V421H314V548H346V260H314V387H185V35H327Q400 35 409 108L424 234H452V0H31ZM323 805Q301 805 287 819T273 855Q273 876 287 890T323 905Q344
905 358 891T373 855Q373 834 359 820T323 805ZM176 805Q155 805 141 819T126 855Q126 876 140 890T176 905Q198 905 212 891T226 855Q226 834 212 820T176 805Z" />
<glyph unicode="&#xcc;" glyph-name="Igrave" d="M52 0V34H216V706H52V740H450V706H286V34H450V0H52ZM252 780L184 960H254L264 780H252Z" />
<glyph unicode="&#xcd;" glyph-name="Iacute" d="M52 0V34H216V706H52V740H450V706H286V34H450V0H52ZM236 780L246 960H316L248 780H236Z" />
<glyph unicode="&#xce;" glyph-name="Icircumflex" d="M52 0V34H216V706H52V740H450V706H286V34H450V0H52ZM165 780L230 950H270L335 780H323L250 886L177 780H165Z" />
<glyph unicode="&#xcf;" glyph-name="Idieresis" d="M52 0V34H216V706H52V740H450V706H286V34H450V0H52ZM323 805Q301 805 287 819T273 855Q273 876 287 890T323 905Q344 905 358 891T373 855Q373 834 359 820T323 805ZM176 805Q155 805 141 819T126 855Q126 876
140 890T176 905Q198 905 212 891T226 855Q226 834 212 820T176 805Z" />
<glyph unicode="&#xd0;" glyph-name="Eth" d="M38 0V34H122V371H45V403H122V706H38V740H227Q290 740 336 709T412 624T457 505T472 370Q472 301 457 235T412 116T336 32T227 0H38ZM306 371H192V32H227Q271 32 307 53T366 114T388 213V527Q388 586 366 626T308
687T227 708H192V403H306V371Z" />
<glyph unicode="&#xd1;" glyph-name="Ntilde" d="M390 -10L135 586V34H219V0H37V34H101V706H37V740H139L380 176V706H296V740H478V706H414V-10H390ZM289 807Q268 807 253 819T226 845T198 858Q185 858 179 846T173 812H160Q160 820 161 835T166 866T181 893T211
905Q232 905 246 892T274 867T302 854Q316 854 321 866T327 900H340Q340 893 339 878T334 846T319 819T289 807Z" />
<glyph unicode="&#xd2;" glyph-name="Ograve" d="M250 -10Q199 -10 161 22T97 108T58 231T45 370Q45 441 58 509T96 631T160 718T250 750Q301 750 339 718T403 632T442 509T455 370Q455 299 442 231T404 109T340 22T250 -10ZM250 27Q309 27 340 73T371 205V535Q371
621 340 667T250 713Q192 713 161 667T129 535V205Q129 119 160 73T250 27ZM252 780L184 960H254L264 780H252Z" />
<glyph unicode="&#xd3;" glyph-name="Oacute" d="M250 -10Q199 -10 161 22T97 108T58 231T45 370Q45 441 58 509T96 631T160 718T250 750Q301 750 339 718T403 632T442 509T455 370Q455 299 442 231T404 109T340 22T250 -10ZM250 27Q309 27 340 73T371 205V535Q371
621 340 667T250 713Q192 713 161 667T129 535V205Q129 119 160 73T250 27ZM236 780L246 960H316L248 780H236Z" />
<glyph unicode="&#xd4;" glyph-name="Ocircumflex" d="M250 -10Q199 -10 161 22T97 108T58 231T45 370Q45 441 58 509T96 631T160 718T250 750Q301 750 339 718T403 632T442 509T455 370Q455 299 442 231T404 109T340 22T250 -10ZM250 27Q309 27 340 73T371 205V535Q371
621 340 667T250 713Q192 713 161 667T129 535V205Q129 119 160 73T250 27ZM165 780L230 950H270L335 780H323L250 886L177 780H165Z" />
<glyph unicode="&#xd5;" glyph-name="Otilde" d="M250 -10Q199 -10 161 22T97 108T58 231T45 370Q45 441 58 509T96 631T160 718T250 750Q301 750 339 718T403 632T442 509T455 370Q455 299 442 231T404 109T340 22T250 -10ZM250 27Q309 27 340 73T371 205V535Q371
621 340 667T250 713Q192 713 161 667T129 535V205Q129 119 160 73T250 27ZM289 807Q268 807 253 819T226 845T198 858Q185 858 179 846T173 812H160Q160 820 161 835T166 866T181 893T211 905Q232 905 246 892T274 867T302 854Q316 854 321 866T327 900H340Q340
893 339 878T334 846T319 819T289 807Z" />
<glyph unicode="&#xd6;" glyph-name="Odieresis" d="M250 -10Q199 -10 161 22T97 108T58 231T45 370Q45 441 58 509T96 631T160 718T250 750Q301 750 339 718T403 632T442 509T455 370Q455 299 442 231T404 109T340 22T250 -10ZM250 27Q309 27 340 73T371 205V535Q371
621 340 667T250 713Q192 713 161 667T129 535V205Q129 119 160 73T250 27ZM323 805Q301 805 287 819T273 855Q273 876 287 890T323 905Q344 905 358 891T373 855Q373 834 359 820T323 805ZM176 805Q155 805 141 819T126 855Q126 876 140 890T176 905Q198 905 212
891T226 855Q226 834 212 820T176 805Z" />
<glyph unicode="&#xd7;" glyph-name="multiply" d="M119 208L219 308L118 408L142 432L243 332L343 432L367 408L267 308L366 208L342 184L243 284L143 184L119 208Z" />
<glyph unicode="&#xd8;" glyph-name="Oslash" d="M134 -49L104 -39L131 43Q88 97 67 182T45 360Q45 431 58 499T96 621T160 708T250 740Q277 740 301 731T345 703L366 769L397 759L370 677Q413 623 434 538T455 360Q455 289 442 221T404 99T340 12T250 -20Q223
-20 200 -11T156 17L134 -49ZM129 195Q129 132 146 90L333 666Q302 703 250 703Q192 703 161 657T129 525V195ZM250 17Q309 17 340 63T371 195V525Q371 587 354 629L167 53Q198 17 250 17Z" />
<glyph unicode="&#xd9;" glyph-name="Ugrave" d="M252 -10Q173 -10 131 35T89 165V706H25V740H233V706H159V164Q159 100 187 66T270 31Q324 31 352 65T381 164V706H322V740H474V706H415V165Q415 80 374 35T252 -10ZM252 780L184 960H254L264 780H252Z" />
<glyph unicode="&#xda;" glyph-name="Uacute" d="M252 -10Q173 -10 131 35T89 165V706H25V740H233V706H159V164Q159 100 187 66T270 31Q324 31 352 65T381 164V706H322V740H474V706H415V165Q415 80 374 35T252 -10ZM236 780L246 960H316L248 780H236Z" />
<glyph unicode="&#xdb;" glyph-name="Ucircumflex" d="M252 -10Q173 -10 131 35T89 165V706H25V740H233V706H159V164Q159 100 187 66T270 31Q324 31 352 65T381 164V706H322V740H474V706H415V165Q415 80 374 35T252 -10ZM165 780L230 950H270L335 780H323L250
886L177 780H165Z" />
<glyph unicode="&#xdc;" glyph-name="Udieresis" d="M252 -10Q173 -10 131 35T89 165V706H25V740H233V706H159V164Q159 100 187 66T270 31Q324 31 352 65T381 164V706H322V740H474V706H415V165Q415 80 374 35T252 -10ZM323 805Q301 805 287 819T273 855Q273 876
287 890T323 905Q344 905 358 891T373 855Q373 834 359 820T323 805ZM176 805Q155 805 141 819T126 855Q126 876 140 890T176 905Q198 905 212 891T226 855Q226 834 212 820T176 805Z" />
<glyph unicode="&#xdd;" glyph-name="Yacute" d="M69 0V34H213V312L53 706H-26V740H220V706H121L264 356L395 706H329V740H497V706H430L283 315V34H427V0H69ZM236 780L246 960H316L248 780H236Z" />
<glyph unicode="&#xde;" glyph-name="Thorn" d="M18 0V34H102V706H18V740H304V706H172V595H207Q289 595 343 563T425 479T453 370Q453 314 426 263T344 178T207 145H172V34H304V0H18ZM172 182H230Q297 182 332 217T368 320V420Q368 487 333 522T230 558H172V182Z" />
<glyph unicode="&#xdf;" glyph-name="germandbls" d="M409 -10Q361 -10 335 13T301 58H293V0H265V144H313V122Q313 72 337 48T403 24Q445 24 467 46T489 108Q489 144 473 170T430 218T375 259T319 300T277 348T260 411Q260 446 275 470T314 512T360 549T398 592T414
652Q414 693 390 720T319 747Q270 747 235 709T200 585V0H15V28L132 38V508H38V530L132 540V565Q132 625 152 672T216 746T329 773Q390 773 424 754T471 708T485 654Q485 620 469 599T428 563T378 531T337 494T320 437Q320 403 336 378T379 333T434 293T490 250T532
198T549 128Q549 64 509 27T409 -10Z" />
<glyph unicode="&#xe0;" glyph-name="agrave" d="M184 -10Q129 -10 98 23T66 105Q66 150 88 179T145 229T212 264L314 311V408Q314 457 283 485T205 513Q162 513 134 492T95 451Q118 427 129 413T141 380Q141 363 130 348T95 333Q73 333 61 348T48 387Q48 410
59 437T94 491T154 533T239 550Q292 550 323 529T368 476T382 408V84Q382 42 411 42Q430 42 441 57T456 88L474 82Q471 62 460 41T431 5T385 -10Q355 -10 335 10T314 72Q306 54 288 35T244 3T184 -10ZM127 128Q127 89 151 62T215 34Q241 34 261 45T295 73T314 104V287L219
240Q196 229 175 216T141 182T127 128ZM493 580L425 760H495L505 580H493Z" />
<glyph unicode="&#xe1;" glyph-name="aacute" d="M184 -10Q129 -10 98 23T66 105Q66 150 88 179T145 229T212 264L314 311V408Q314 457 283 485T205 513Q162 513 134 492T95 451Q118 427 129 413T141 380Q141 363 130 348T95 333Q73 333 61 348T48 387Q48 410
59 437T94 491T154 533T239 550Q292 550 323 529T368 476T382 408V84Q382 42 411 42Q430 42 441 57T456 88L474 82Q471 62 460 41T431 5T385 -10Q355 -10 335 10T314 72Q306 54 288 35T244 3T184 -10ZM127 128Q127 89 151 62T215 34Q241 34 261 45T295 73T314 104V287L219
240Q196 229 175 216T141 182T127 128ZM221 580L231 760H301L233 580H221Z" />
<glyph unicode="&#xe2;" glyph-name="acircumflex" d="M184 -10Q129 -10 98 23T66 105Q66 150 88 179T145 229T212 264L314 311V408Q314 457 283 485T205 513Q162 513 134 492T95 451Q118 427 129 413T141 380Q141 363 130 348T95 333Q73 333 61 348T48 387Q48
410 59 437T94 491T154 533T239 550Q292 550 323 529T368 476T382 408V84Q382 42 411 42Q430 42 441 57T456 88L474 82Q471 62 460 41T431 5T385 -10Q355 -10 335 10T314 72Q306 54 288 35T244 3T184 -10ZM127 128Q127 89 151 62T215 34Q241 34 261 45T295 73T314
104V287L219 240Q196 229 175 216T141 182T127 128ZM406 580L471 750H511L576 580H564L491 686L418 580H406Z" />
<glyph unicode="&#xe3;" glyph-name="atilde" d="M184 -10Q129 -10 98 23T66 105Q66 150 88 179T145 229T212 264L314 311V408Q314 457 283 485T205 513Q162 513 134 492T95 451Q118 427 129 413T141 380Q141 363 130 348T95 333Q73 333 61 348T48 387Q48 410
59 437T94 491T154 533T239 550Q292 550 323 529T368 476T382 408V84Q382 42 411 42Q430 42 441 57T456 88L474 82Q471 62 460 41T431 5T385 -10Q355 -10 335 10T314 72Q306 54 288 35T244 3T184 -10ZM127 128Q127 89 151 62T215 34Q241 34 261 45T295 73T314 104V287L219
240Q196 229 175 216T141 182T127 128ZM530 607Q509 607 494 619T467 645T439 658Q426 658 420 646T414 612H401Q401 620 402 635T407 666T422 693T452 705Q473 705 487 692T515 667T543 654Q557 654 562 666T568 700H581Q581 693 580 678T575 646T560 619T530
607Z" />
<glyph unicode="&#xe4;" glyph-name="adieresis" d="M184 -10Q129 -10 98 23T66 105Q66 150 88 179T145 229T212 264L314 311V408Q314 457 283 485T205 513Q162 513 134 492T95 451Q118 427 129 413T141 380Q141 363 130 348T95 333Q73 333 61 348T48 387Q48 410
59 437T94 491T154 533T239 550Q292 550 323 529T368 476T382 408V84Q382 42 411 42Q430 42 441 57T456 88L474 82Q471 62 460 41T431 5T385 -10Q355 -10 335 10T314 72Q306 54 288 35T244 3T184 -10ZM127 128Q127 89 151 62T215 34Q241 34 261 45T295 73T314 104V287L219
240Q196 229 175 216T141 182T127 128ZM564 605Q542 605 528 619T514 655Q514 676 528 690T564 705Q585 705 599 691T614 655Q614 634 600 620T564 605ZM417 605Q396 605 382 619T367 655Q367 676 381 690T417 705Q439 705 453 691T467 655Q467 634 453 620T417
605Z" />
<glyph unicode="&#xe5;" glyph-name="aring" d="M184 -10Q129 -10 98 23T66 105Q66 150 88 179T145 229T212 264L314 311V408Q314 457 283 485T205 513Q162 513 134 492T95 451Q118 427 129 413T141 380Q141 363 130 348T95 333Q73 333 61 348T48 387Q48 410 59
437T94 491T154 533T239 550Q292 550 323 529T368 476T382 408V84Q382 42 411 42Q430 42 441 57T456 88L474 82Q471 62 460 41T431 5T385 -10Q355 -10 335 10T314 72Q306 54 288 35T244 3T184 -10ZM127 128Q127 89 151 62T215 34Q241 34 261 45T295 73T314 104V287L219
240Q196 229 175 216T141 182T127 128ZM491 584Q453 584 431 608T408 667Q408 702 430 726T491 750Q529 750 551 726T574 667Q574 633 552 609T491 584ZM491 611Q517 611 531 627T545 667Q545 690 531 706T491 723Q465 723 451 707T437 667Q437 644 451 628T491
611Z" />
<glyph unicode="&#xe6;" glyph-name="ae" d="M124 -10Q75 -10 46 21T16 103Q16 147 36 175T86 220T141 247L216 276V425Q216 430 215 444T207 474T187 501T145 513Q116 513 95 499T65 471Q88 447 99 433T111 400Q111 383 100 368T65 353Q43 353 31 368T18 408Q18
438 37 471T92 527T178 550Q221 550 242 533T274 494Q292 520 316 535T370 550Q423 550 453 503T484 367Q484 338 482 324H284V200Q284 179 285 150T294 92T319 44T369 25Q387 25 405 35T435 76T448 168V193H480V168Q480 83 453 37T365 -10Q332 -10 308 4T269 38T247
76H234Q230 58 217 38T180 4T124 -10ZM284 350H365Q381 350 394 353T415 370T424 419Q424 463 409 490T363 518Q330 518 308 480T284 350ZM146 34Q179 34 196 55T216 97V254L151 226Q139 221 122 209T91 175T77 117Q77 74 97 54T146 34Z" />
<glyph unicode="&#xe7;" glyph-name="ccedilla" d="M269 -10Q210 -10 165 24T94 120T68 262Q68 345 95 410T170 512T283 550Q327 550 363 533T420 486T441 419Q441 384 424 368T386 352Q370 352 357 362T343 392Q343 412 358 429T391 478Q381 491 355 504T290
518Q220 518 181 465T142 320V220Q142 157 162 116T216 53T287 32Q323 32 349 48T391 87T413 132L434 125Q428 96 408 65T353 12T269 -10ZM284 -213Q240 -213 211 -197T181 -153Q181 -141 188 -130T214 -118Q237 -118 245 -135T256 -165L260 -188Q263 -189 270
-191T286 -193Q315 -193 328 -177T342 -142Q342 -115 320 -100T261 -84Q251 -84 241 -85T222 -91L213 -86L254 -8H287L263 -50Q308 -46 334 -58T372 -90T384 -133Q384 -150 376 -169T346 -200T284 -213Z" />
<glyph unicode="&#xe8;" glyph-name="egrave" d="M274 -10Q213 -10 165 24T89 121T61 265Q61 319 73 369T112 461T178 526T272 550Q351 550 399 496T448 345Q448 332 448 321T446 304H135V220Q135 157 157 116T215 53T291 32Q329 32 355 48T398 87T421 132L442
125Q436 96 415 65T359 12T274 -10ZM270 518Q228 518 199 494T153 427T135 330H335Q346 330 356 332T374 347T382 390Q382 452 350 485T270 518ZM271 580L203 760H273L283 580H271Z" />
<glyph unicode="&#xe9;" glyph-name="eacute" d="M274 -10Q213 -10 165 24T89 121T61 265Q61 319 73 369T112 461T178 526T272 550Q351 550 399 496T448 345Q448 332 448 321T446 304H135V220Q135 157 157 116T215 53T291 32Q329 32 355 48T398 87T421 132L442
125Q436 96 415 65T359 12T274 -10ZM270 518Q228 518 199 494T153 427T135 330H335Q346 330 356 332T374 347T382 390Q382 452 350 485T270 518ZM255 580L265 760H335L267 580H255Z" />
<glyph unicode="&#xea;" glyph-name="ecircumflex" d="M274 -10Q213 -10 165 24T89 121T61 265Q61 319 73 369T112 461T178 526T272 550Q351 550 399 496T448 345Q448 332 448 321T446 304H135V220Q135 157 157 116T215 53T291 32Q329 32 355 48T398 87T421 132L442
125Q436 96 415 65T359 12T274 -10ZM270 518Q228 518 199 494T153 427T135 330H335Q346 330 356 332T374 347T382 390Q382 452 350 485T270 518ZM184 580L249 750H289L354 580H342L269 686L196 580H184Z" />
<glyph unicode="&#xeb;" glyph-name="edieresis" d="M274 -10Q213 -10 165 24T89 121T61 265Q61 319 73 369T112 461T178 526T272 550Q351 550 399 496T448 345Q448 332 448 321T446 304H135V220Q135 157 157 116T215 53T291 32Q329 32 355 48T398 87T421 132L442
125Q436 96 415 65T359 12T274 -10ZM270 518Q228 518 199 494T153 427T135 330H335Q346 330 356 332T374 347T382 390Q382 452 350 485T270 518ZM598 605Q576 605 562 619T548 655Q548 676 562 690T598 705Q619 705 633 691T648 655Q648 634 634 620T598 605ZM451
605Q430 605 416 619T401 655Q401 676 415 690T451 705Q473 705 487 691T501 655Q501 634 487 620T451 605Z" />
<glyph unicode="&#xec;" glyph-name="igrave" d="M20 0V34H209V488H67V512L209 525L253 550H277V34H466V0H20ZM498 580L430 760H500L510 580H498Z" />
<glyph unicode="&#xed;" glyph-name="iacute" d="M20 0V34H209V488H67V512L209 525L253 550H277V34H466V0H20ZM226 580L236 760H306L238 580H226Z" />
<glyph unicode="&#xee;" glyph-name="icircumflex" d="M20 0V34H209V488H67V512L209 525L253 550H277V34H466V0H20ZM411 580L476 750H516L581 580H569L496 686L423 580H411Z" />
<glyph unicode="&#xef;" glyph-name="idieresis" d="M20 0V34H209V488H67V512L209 525L253 550H277V34H466V0H20ZM569 605Q547 605 533 619T519 655Q519 676 533 690T569 705Q590 705 604 691T619 655Q619 634 605 620T569 605ZM422 605Q401 605 387 619T372 655Q372
676 386 690T422 705Q444 705 458 691T472 655Q472 634 458 620T422 605Z" />
<glyph unicode="&#xf0;" glyph-name="eth" d="M235 -10Q182 -10 138 19T67 105T41 245Q41 318 63 376T127 470T229 505Q279 505 311 482T361 424T383 358H391V367Q391 447 364 512T293 625L145 578V611L267 650Q235 679 199 698T125 728L131 750Q174 742 220 721T310
663L435 703V670L336 639Q389 585 424 504T459 311Q459 223 439 162T387 63T314 8T235 -10ZM234 25Q291 25 326 62T361 170V325Q361 396 325 434T230 473Q176 473 143 435T109 325V170Q109 100 143 63T234 25Z" />
<glyph unicode="&#xf1;" glyph-name="ntilde" d="M14 0V28L98 36V488H-4V512L98 525L142 550H166V469H169Q177 487 194 505T237 537T297 550Q346 550 374 520T403 430V34H487V0H335V424Q335 504 265 504Q237 504 217 491T184 459T166 421V36L265 28V0H14ZM545
607Q524 607 509 619T482 645T454 658Q441 658 435 646T429 612H416Q416 620 417 635T422 666T437 693T467 705Q488 705 502 692T530 667T558 654Q572 654 577 666T583 700H596Q596 693 595 678T590 646T575 619T545 607Z" />
<glyph unicode="&#xf2;" glyph-name="ograve" d="M250 -10Q200 -10 163 13T102 77T65 168T53 270Q53 323 65 372T101 462T163 526T250 550Q300 550 337 527T398 463T435 373T447 270Q447 218 435 168T399 78T337 14T250 -10ZM250 22Q313 22 345 74T377 220V320Q377
413 345 465T250 518Q187 518 155 466T123 320V220Q123 127 155 75T250 22ZM508 580L440 760H510L520 580H508Z" />
<glyph unicode="&#xf3;" glyph-name="oacute" d="M250 -10Q200 -10 163 13T102 77T65 168T53 270Q53 323 65 372T101 462T163 526T250 550Q300 550 337 527T398 463T435 373T447 270Q447 218 435 168T399 78T337 14T250 -10ZM250 22Q313 22 345 74T377 220V320Q377
413 345 465T250 518Q187 518 155 466T123 320V220Q123 127 155 75T250 22ZM236 580L246 760H316L248 580H236Z" />
<glyph unicode="&#xf4;" glyph-name="ocircumflex" d="M250 -10Q200 -10 163 13T102 77T65 168T53 270Q53 323 65 372T101 462T163 526T250 550Q300 550 337 527T398 463T435 373T447 270Q447 218 435 168T399 78T337 14T250 -10ZM250 22Q313 22 345 74T377 220V320Q377
413 345 465T250 518Q187 518 155 466T123 320V220Q123 127 155 75T250 22ZM421 580L486 750H526L591 580H579L506 686L433 580H421Z" />
<glyph unicode="&#xf5;" glyph-name="otilde" d="M250 -10Q200 -10 163 13T102 77T65 168T53 270Q53 323 65 372T101 462T163 526T250 550Q300 550 337 527T398 463T435 373T447 270Q447 218 435 168T399 78T337 14T250 -10ZM250 22Q313 22 345 74T377 220V320Q377
413 345 465T250 518Q187 518 155 466T123 320V220Q123 127 155 75T250 22ZM545 607Q524 607 509 619T482 645T454 658Q441 658 435 646T429 612H416Q416 620 417 635T422 666T437 693T467 705Q488 705 502 692T530 667T558 654Q572 654 577 666T583 700H596Q596
693 595 678T590 646T575 619T545 607Z" />
<glyph unicode="&#xf6;" glyph-name="odieresis" d="M250 -10Q200 -10 163 13T102 77T65 168T53 270Q53 323 65 372T101 462T163 526T250 550Q300 550 337 527T398 463T435 373T447 270Q447 218 435 168T399 78T337 14T250 -10ZM250 22Q313 22 345 74T377 220V320Q377
413 345 465T250 518Q187 518 155 466T123 320V220Q123 127 155 75T250 22ZM579 605Q557 605 543 619T529 655Q529 676 543 690T579 705Q600 705 614 691T629 655Q629 634 615 620T579 605ZM432 605Q411 605 397 619T382 655Q382 676 396 690T432 705Q454 705 468
691T482 655Q482 634 468 620T432 605Z" />
<glyph unicode="&#xf7;" glyph-name="divide" d="M250 447Q227 447 211 463T195 502Q195 525 211 541T250 557Q273 557 289 541T305 502Q305 479 289 463T250 447ZM52 345V377H448V345H52ZM250 175Q227 175 211 191T195 230Q195 253 211 269T250 285Q273 285 289
269T305 230Q305 207 289 191T250 175Z" />
<glyph unicode="&#xf8;" glyph-name="oslash" d="M106 -10L78 6L112 63Q82 103 68 158T53 271Q53 324 65 373T101 463T163 527T250 551Q286 551 315 539T366 504L394 551L421 535L388 479Q418 438 432 384T447 271Q447 219 435 169T399 79T337 15T250 -9Q214 -9
185 3T134 38L106 -10ZM123 221Q123 155 139 110L345 467Q312 519 250 519Q187 519 155 467T123 321V221ZM250 23Q313 23 345 75T377 221V321Q377 386 361 432L155 75Q188 23 250 23Z" />
<glyph unicode="&#xf9;" glyph-name="ugrave" d="M379 550H403V52H474V28L403 15L359 -10H335V85H332Q325 65 309 43T267 5T209 -10Q161 -10 130 21T98 119V488H-4V512L98 525L142 550H166V121Q166 36 235 36Q264 36 284 51T318 87T335 129V488H233V512L335 525L379
550ZM508 580L440 760H510L520 580H508Z" />
<glyph unicode="&#xfa;" glyph-name="uacute" d="M379 550H403V52H474V28L403 15L359 -10H335V85H332Q325 65 309 43T267 5T209 -10Q161 -10 130 21T98 119V488H-4V512L98 525L142 550H166V121Q166 36 235 36Q264 36 284 51T318 87T335 129V488H233V512L335 525L379
550ZM236 580L246 760H316L248 580H236Z" />
<glyph unicode="&#xfb;" glyph-name="ucircumflex" d="M379 550H403V52H474V28L403 15L359 -10H335V85H332Q325 65 309 43T267 5T209 -10Q161 -10 130 21T98 119V488H-4V512L98 525L142 550H166V121Q166 36 235 36Q264 36 284 51T318 87T335 129V488H233V512L335
525L379 550ZM421 580L486 750H526L591 580H579L506 686L433 580H421Z" />
<glyph unicode="&#xfc;" glyph-name="udieresis" d="M379 550H403V52H474V28L403 15L359 -10H335V85H332Q325 65 309 43T267 5T209 -10Q161 -10 130 21T98 119V488H-4V512L98 525L142 550H166V121Q166 36 235 36Q264 36 284 51T318 87T335 129V488H233V512L335
525L379 550ZM579 605Q557 605 543 619T529 655Q529 676 543 690T579 705Q600 705 614 691T629 655Q629 634 615 620T579 605ZM432 605Q411 605 397 619T382 655Q382 676 396 690T432 705Q454 705 468 691T482 655Q482 634 468 620T432 605Z" />
<glyph unicode="&#xfd;" glyph-name="yacute" d="M73 -190Q24 -190 -6 -171T-37 -119Q-37 -99 -24 -84T15 -68Q37 -68 48 -79T66 -107T75 -137L81 -159Q134 -163 178 -121T256 22L91 506H12V540H258V506H158L289 121L416 506H347V540H515V506H448L287 18Q270 -33
245 -81T178 -159T73 -190ZM263 580L273 760H343L275 580H263Z" />
<glyph unicode="&#xfe;" glyph-name="thorn" d="M8 -190V-162L127 -152V688H25V712L127 725L171 750H195V465H198Q206 484 223 503T265 536T322 550Q372 550 406 516T457 423T475 288Q475 206 455 138T394 30T295 -10Q258 -10 234 4T195 36V-152L359 -162V-190H8ZM195
159Q195 84 224 53T295 22Q342 22 370 56T398 159V396Q398 457 368 483T300 509Q266 509 244 492T210 449T195 401V159Z" />
<glyph unicode="&#xff;" glyph-name="ydieresis" d="M73 -190Q24 -190 -6 -171T-37 -119Q-37 -99 -24 -84T15 -68Q37 -68 48 -79T66 -107T75 -137L81 -159Q134 -163 178 -121T256 22L91 506H12V540H258V506H158L289 121L416 506H347V540H515V506H448L287 18Q270
-33 245 -81T178 -159T73 -190ZM606 605Q584 605 570 619T556 655Q556 676 570 690T606 705Q627 705 641 691T656 655Q656 634 642 620T606 605ZM459 605Q438 605 424 619T409 655Q409 676 423 690T459 705Q481 705 495 691T509 655Q509 634 495 620T459 605Z"
/>
<glyph unicode="&#x2013;" glyph-name="endash" d="M343 291V325H660V291H343Z" />
<glyph unicode="&#x2014;" glyph-name="emdash" d="M305 291V325H701V291H305Z" />
<glyph unicode="&#x2018;" glyph-name="quoteleft" d="M293 750L305 732Q284 718 263 697T241 659Q266 659 283 646T301 606Q301 580 285 565T246 549Q224 549 208 563T191 610Q191 640 207 667T247 716T293 750Z" />
<glyph unicode="&#x2019;" glyph-name="quoteright" d="M203 549L191 567Q212 581 233 602T255 640Q230 640 213 653T195 693Q195 719 211 734T250 750Q272 750 288 736T305 689Q305 659 289 632T249 583T203 549Z" />
<glyph unicode="&#x201a;" glyph-name="quotesinglbase" d="M203 -101L191 -83Q212 -69 233 -48T255 -10Q230 -10 213 3T195 43Q195 69 211 84T250 100Q272 100 288 86T305 39Q305 9 289 -18T249 -67T203 -101Z" />
<glyph unicode="&#x201c;" glyph-name="quotedblleft" d="M206 750L218 732Q197 718 176 697T154 659Q179 659 196 646T214 606Q214 580 198 565T159 549Q137 549 121 563T104 610Q104 640 120 667T160 716T206 750ZM395 750L407 732Q386 718 365 697T343 659Q368
659 385 646T403 606Q403 580 387 565T348 549Q326 549 310 563T293 610Q293 640 309 667T349 716T395 750Z" />
<glyph unicode="&#x201d;" glyph-name="quotedblright" d="M305 549L293 567Q314 581 335 602T357 640Q332 640 315 653T297 693Q297 719 313 734T352 750Q374 750 390 736T407 689Q407 659 391 632T351 583T305 549ZM116 549L104 567Q125 581 146 602T168 640Q143
640 126 653T108 693Q108 719 124 734T163 750Q185 750 201 736T218 689Q218 659 202 632T162 583T116 549Z" />
<glyph unicode="&#x201e;" glyph-name="quotedblbase" d="M309 -101L297 -83Q318 -69 339 -48T361 -10Q336 -10 319 3T301 43Q301 69 317 84T356 100Q378 100 394 86T411 39Q411 9 395 -18T355 -67T309 -101ZM120 -101L108 -83Q129 -69 150 -48T172 -10Q147 -10
130 3T112 43Q112 69 128 84T167 100Q189 100 205 86T222 39Q222 9 206 -18T166 -67T120 -101Z" />
<glyph unicode="&#x2022;" glyph-name="bullet" d="M244 207Q203 207 174 236T145 306Q145 347 174 376T244 405Q286 405 314 376T343 306Q343 265 315 236T244 207Z" />
<glyph unicode="&#x2039;" glyph-name="guilsinglleft" d="M343 70L123 269V281L343 480L353 468L197 275L353 82L343 70Z" />
<glyph unicode="&#x203a;" glyph-name="guilsinglright" d="M133 70L123 82L279 275L123 468L133 480L353 281V269L133 70Z" />
</font>
</defs>
</svg>
