<?xml version="1.0" standalone="no"?>
<!DOCTYPE svg PUBLIC "-//W3C//DTD SVG 1.1//EN" "http://www.w3.org/Graphics/SVG/1.1/DTD/svg11.dtd">
<svg xmlns="http://www.w3.org/2000/svg">
<defs >
<font id="NanumBrushScript" horiz-adv-x="330" ><font-face
    font-family="Nanum Brush Script"
    units-per-em="1000"
    panose-1="3 6 6 0 0 0 0 0 0 0"
    ascent="920"
    descent="-230"
    alphabetic="0" />
<glyph unicode=" " horiz-adv-x="280" />
<glyph unicode="!" horiz-adv-x="261" d="M201 676Q195 641 188 601T173 521T161 444T155 379L140 335Q133 328 131 318T129 297T129 275T128 255Q127 250 121 245T110 236Q106 233 105 233T96 233Q92 288 93 346T99 462T116 574T143 676Q148 681 153 682T167
688Q180 696 190 696Q195 692 198 687T201 676ZM148 130Q159 115 148 101Q138 88 124 81Q113 76 109 78T98 82Q94 84 85 86T72 94Q65 105 63 117T60 145Q60 151 65 154T77 159T92 161T104 160Q113 157 115 152T122 142Q136 130 148 130Z" />
<glyph unicode="&quot;" horiz-adv-x="280" d="M227 660Q225 646 220 638T212 620Q210 612 210 608T210 592Q197 578 190 575T182 577Q180 582 178 588T174 602Q171 628 167 657T166 712Q168 721 171 727T179 740Q182 745 185 751T191 764Q193 769 199 774T210
779Q213 776 215 773T219 765Q223 759 226 752T230 738Q233 718 230 698T227 660ZM113 570Q113 563 111 560T107 555Q105 553 106 548T101 541Q92 543 85 550T73 560Q70 570 67 584T60 613T54 645T52 677Q52 683 54 689T58 701Q60 708 61 714T67 728Q79 720 85
709T95 686Q101 660 105 628T113 570Z" />
<glyph unicode="#" horiz-adv-x="740" d="M473 632Q474 645 478 653T491 671Q495 675 501 680T509 678Q510 675 513 665T521 644T528 621T531 605Q530 592 530 573T529 531Q558 531 584 530T631 526Q639 525 648 523T666 519Q676 516 677 515T688 511Q692 509
692 506T685 500Q653 493 614 487T529 476Q529 430 529 380T530 285Q553 286 573 286T613 286Q621 285 630 284T648 281Q653 280 655 279T660 278T664 277T671 275Q675 273 675 270T668 264Q638 255 604 247T531 231Q531 212 531 197T532 170Q533 163 530 151T523
126T514 103T509 89Q492 100 484 117T472 155Q471 166 470 182T469 219Q427 212 385 206T303 194Q302 161 301 131T298 76L295 52Q292 47 289 54T282 64Q277 70 272 72T264 82Q255 101 250 121Q247 132 245 149T240 188Q195 183 158 181T94 178Q95 185 101 188T112
197Q121 205 130 213T156 227Q173 233 193 238T235 249Q231 304 230 360T229 453Q172 451 126 451T50 453Q52 460 58 463T70 471Q79 478 89 485T116 497Q164 509 234 517Q237 535 240 552T246 586Q251 618 255 648T267 704Q269 711 276 716T286 722L287 704Q289
668 291 622T296 523Q338 527 382 529T469 532Q470 565 470 591T473 632ZM298 457Q300 408 301 359T303 262Q343 269 385 274T468 282Q467 326 467 374T468 469Q426 465 383 462T298 457Z" />
<glyph unicode="$" horiz-adv-x="551" d="M306 686Q305 663 305 633T307 569Q336 565 366 557T415 538Q420 535 425 527T433 513Q435 508 436 507T437 500Q437 492 434 485T428 470Q426 465 421 461T410 451Q402 450 398 457T387 473Q373 486 353 493T309 503Q310
469 310 436T313 367Q318 366 323 366T335 364Q351 361 370 359T410 354T449 347T483 336Q491 333 496 327T507 316Q512 311 516 307T522 296Q522 277 514 261T492 232T465 210T437 194Q424 188 414 182T393 171T368 163T335 160Q331 160 328 160T321 159Q322 132
322 109T323 69Q328 48 327 40T320 32Q318 32 314 33Q311 34 308 35T299 38Q294 40 292 43T286 53Q284 56 281 60T277 69Q275 88 272 110T267 157Q205 156 152 159T53 170Q47 172 49 176T49 187Q47 192 47 198T46 211Q45 223 50 227T58 237Q69 251 80 245Q89 242
107 238T150 231T203 225T262 221Q260 248 258 276T254 333Q219 339 199 347Q180 353 162 360T129 376T106 399T97 432Q77 471 98 502T168 551Q185 557 205 562T247 569Q249 623 253 668T266 747Q274 747 278 741T286 725T294 705T306 686ZM488 262Q491 279 483
288T460 303T429 309T403 313Q385 315 362 317T315 323Q316 296 317 271T319 220Q349 220 377 222T428 230T467 242T488 262ZM199 498Q193 496 183 493T162 482T147 462T148 432Q155 421 180 408T251 381Q249 413 248 443T247 505Q231 503 219 502T199 498Z" />
<glyph unicode="%" horiz-adv-x="650" d="M480 634Q486 615 479 604T461 583T440 562T429 532Q378 442 329 335T242 124Q240 126 238 122T232 113T225 102T217 97Q207 93 204 85T191 73Q189 86 189 98T191 124Q204 194 228 261T286 391T360 516T446 634Q448 639
454 642T462 647Q470 652 475 647T480 634ZM167 563Q172 565 175 568T184 570Q190 569 194 565T204 557Q212 552 215 545T221 526Q227 497 216 462Q208 438 195 416T168 379Q160 370 147 362T120 350Q115 348 111 346T101 346Q97 347 94 350T88 359Q84 364 83 367T79
376Q77 381 75 385T73 395Q69 417 71 439T80 482T94 519T111 547Q116 552 119 557T128 565Q131 566 133 564T137 562L141 552Q154 559 167 563ZM529 382Q534 384 537 386T546 387Q551 387 555 384T565 378Q572 374 575 369T581 355Q587 334 576 309Q568 292 556
276T530 249Q522 243 510 237T484 228Q479 226 475 225T466 225Q462 226 459 229T453 235Q446 242 444 247Q442 250 441 254T439 261Q435 277 437 293T446 324T459 351T475 371Q480 375 483 378T492 384Q494 384 496 383T500 381Q500 380 501 379Q502 378 504 374Q516
380 529 382ZM103 394Q110 397 121 405T145 426T169 453T189 485Q193 493 191 499T184 511Q176 517 171 519Q159 523 146 525Q145 523 145 523T144 520Q139 510 133 494T120 460T110 424T103 394ZM507 351Q502 344 496 332T484 307T474 282T468 260Q475 263 486
269T509 283T532 303T550 326Q554 332 552 336T546 345Q538 349 533 350Q526 352 520 353T509 355Q507 351 507 351Z" />
<glyph unicode="&amp;" horiz-adv-x="554" d="M318 650Q326 636 329 623T334 593Q337 553 331 512T307 435Q304 418 295 398T276 360T257 326T245 304Q258 291 283 263T342 206Q346 211 362 227T401 261T448 295T494 316Q496 316 500 315Q503 314 506 313T513
310Q519 306 521 306T528 299Q528 293 523 287T509 276T492 268T477 265Q469 259 456 247T429 221T400 191T376 165Q380 159 393 148T421 125T449 103T468 90Q476 87 478 85T477 78Q474 75 466 75T452 74Q446 72 437 66T423 62Q413 66 398 76T367 99T339 121T322
136Q278 114 227 92T132 63Q124 62 119 68T107 71Q99 67 94 69T86 78Q84 84 83 90T82 103Q83 133 91 161T111 216T137 265T166 307Q146 328 124 357T85 420T62 487T69 554Q82 573 90 591T107 626T131 654T171 673H188Q206 691 234 691T289 680Q299 675 306 667T318
650ZM307 588Q306 611 286 625T239 639Q229 638 210 635T170 621T131 591T105 540Q113 490 138 439T200 348Q213 367 229 395T260 455T288 521T307 588ZM295 168Q269 194 245 217T208 253Q198 241 186 224T161 188T139 152T123 123Q136 123 157 127T202 139T251
154T295 168Z" />
<glyph unicode="&apos;" horiz-adv-x="247" d="M154 625Q152 611 147 603T139 585Q137 577 137 573T137 557Q124 543 117 540T109 542Q107 547 105 553T101 567Q99 580 97 599T93 639T91 679T92 712Q94 721 97 727T105 740Q108 745 111 751T117 764Q119 769 125
774T136 779Q139 776 141 773T145 765Q149 759 152 752T156 738Q157 728 157 712T157 680T155 648T154 625Z" />
<glyph unicode="(" horiz-adv-x="350" d="M263 617Q263 609 265 603T263 592Q233 563 205 517T164 418T160 310T211 209Q220 199 240 190T284 178Q292 178 292 172T283 160Q277 156 276 150T267 144Q247 134 228 130T199 127Q170 139 151 165T119 221T101 280T95
330Q95 420 132 496T233 637Q239 643 247 643Q250 643 252 639T256 633Q261 628 262 624T263 617Z" />
<glyph unicode=")" horiz-adv-x="350" d="M272 299Q269 249 243 198T180 103Q174 111 174 117T171 133Q169 140 164 148T161 161Q203 221 216 276T223 395Q215 467 192 513T133 582Q121 590 101 589T64 582Q64 592 70 598T86 611Q92 616 97 620T111 625Q122 625
133 630T156 635Q162 635 168 633T180 625Q236 569 257 484T272 299Z" />
<glyph unicode="*" horiz-adv-x="380" d="M109 645Q124 633 140 620T173 593Q174 604 176 613T180 632Q182 645 186 660T194 690Q202 686 205 679T210 667Q216 658 216 650T216 627Q216 616 216 605T217 583Q240 604 265 625T317 666Q318 656 312 649T299 633Q294
628 284 611T266 581Q264 578 262 575T256 569L277 566Q290 564 306 561T336 555Q332 547 326 544T314 538Q305 532 297 532T274 530Q268 529 262 529T248 528Q268 508 287 488T327 445Q317 443 309 448T293 460Q287 465 269 473T238 489Q231 492 221 501Q222 483
222 466T223 431Q221 426 218 424T213 418Q208 411 206 406T199 400Q192 401 188 412T178 442Q176 450 175 460T171 482Q144 457 119 439Q116 438 112 438T105 438Q88 435 89 438Q91 443 93 449T102 463Q114 477 126 491T153 519Q116 515 78 513Q73 515 71 518T65
523Q58 528 53 529T46 536Q47 548 87 559Q98 562 111 564T141 569Q126 583 112 597T86 626Q85 629 85 633T84 640Q81 657 83 656Q88 654 94 653T109 645Z" />
<glyph unicode="+" horiz-adv-x="530" d="M282 591Q284 562 285 520T286 427Q336 432 387 434T490 434Q496 433 494 426Q493 423 490 420Q488 416 487 416T482 415Q477 410 471 406T459 398Q451 393 444 388T427 380Q395 373 358 368T283 358Q280 316 275 275T260
195Q260 192 258 185T254 176Q252 175 252 179T249 184Q248 184 248 187T243 197Q239 234 238 273T236 352Q182 347 137 344T68 341Q64 341 61 341T54 344Q53 345 49 350T41 362T36 374T39 383Q42 385 47 387T54 396Q93 404 139 411T236 423Q238 468 240 510T248
591Q249 596 256 603T268 614Q277 621 279 617Q282 615 282 607T282 591Z" />
<glyph unicode="," horiz-adv-x="230" d="M142 36Q148 36 152 34Q155 32 157 28T156 16Q158 -6 154 -26T142 -66Q138 -77 133 -83T123 -94T113 -104T102 -116Q95 -127 90 -136T74 -151Q79 -125 82 -106T87 -67Q88 -48 86 -33T82 -7Q72 -7 69 -2T65 10T68 24T74
36Q74 41 77 47T90 55Q96 56 103 53T118 47Q125 44 131 41T142 36Z" />
<glyph unicode="-" horiz-adv-x="530" d="M473 438Q479 437 477 430Q476 427 473 424Q471 420 470 420T465 419Q460 414 454 408T442 397Q434 392 427 387T410 379Q368 370 322 364T232 354T153 347T92 345Q88 345 85 345T78 348Q77 349 73 355T65 368T60 382T63
392Q66 394 71 396T78 405Q153 416 252 427T473 438Z" />
<glyph unicode="." horiz-adv-x="200" d="M110 -9Q110 -15 115 -22T123 -37T125 -54T110 -77Q107 -82 103 -83T96 -89Q93 -98 93 -111Q87 -105 76 -99T55 -86T37 -74T31 -60Q33 -54 32 -49T33 -38Q42 -20 54 -9T76 8Q83 8 87 6T96 2Q101 0 105 -1T110 -9Z" />
<glyph unicode="/" horiz-adv-x="340" d="M263 510Q250 465 235 416T202 317T166 221T128 136Q123 126 116 122T101 113Q95 109 90 105T77 85Q70 115 74 154T90 238T119 330T156 422T194 507T229 578Q233 581 236 582T245 589Q252 594 260 601T274 608Q281 608
286 603Q290 598 288 586Q287 581 286 574T280 561L263 510Z" />
<glyph unicode="0" horiz-adv-x="370" d="M277 551Q277 545 279 541T285 534T291 527T294 517Q320 453 318 390T277 262Q264 249 254 234T233 205T208 178T175 160Q173 159 165 158T147 156T126 156T108 163Q100 169 94 173T80 182Q66 188 57 195T56 228Q53 251
57 288T70 367T94 451T126 528T165 583T209 602Q215 596 226 592T249 583T269 571T277 551ZM255 399Q255 418 249 440T232 483T209 520T183 542Q164 516 148 479T120 400T105 318T107 245Q107 239 110 231T119 216T135 207T158 211Q178 224 198 245T233 292T254
345T255 399Z" />
<glyph unicode="1" horiz-adv-x="242" d="M132 636Q150 518 155 404T166 177Q166 169 165 165T160 156Q157 151 154 150T149 141Q147 136 144 130T138 119T131 111T126 109Q109 155 100 211T87 328T84 451T88 574Q89 585 97 589T107 605Q114 612 117 617T127 624Q129
626 129 629T132 636Z" />
<glyph unicode="2" horiz-adv-x="380" d="M221 534Q221 502 210 470T181 407T142 343T102 279Q89 279 85 269T68 245Q119 261 161 273T238 296Q263 303 282 308T318 317T354 325T399 336Q398 327 392 322T384 311Q381 296 374 292T353 274Q321 263 289 254T222
236T149 220T66 201Q58 199 56 202T45 208Q38 210 32 212T27 225Q28 231 29 238T33 251Q38 265 43 275T51 288Q70 315 91 341T132 395T166 453T187 517Q168 515 144 510T96 499T51 487T17 478L19 489Q21 497 23 498T30 505Q35 511 39 517T50 529Q76 546 110 554T170
568Q180 570 184 565T197 558Q207 556 214 552T221 534Z" />
<glyph unicode="3" horiz-adv-x="366" d="M247 606Q253 568 245 537T219 479T181 428T140 378Q150 381 165 386T198 397T235 407T271 412Q280 413 289 409T307 403Q315 401 320 404T332 402Q340 370 335 343Q330 312 304 267T230 155Q225 142 224 135T218 126Q215
124 213 130Q200 162 206 190T225 245T254 297T276 348Q278 352 275 354T268 356T257 355T247 352Q232 349 212 341T172 325T132 308T100 294Q95 302 96 305T101 317Q103 326 103 335T106 353Q123 395 152 437T213 521Q213 534 205 549T184 565Q155 565 113 552T31
524Q26 523 29 529T37 544Q40 550 40 558T46 571Q56 582 69 590T97 605T124 616T147 622Q165 626 174 621T198 615Q214 615 229 615T247 606Z" />
<glyph unicode="4" horiz-adv-x="521" d="M310 589Q323 537 328 478T336 356Q354 362 376 368T423 381T470 393T514 402Q509 397 509 395T506 387Q501 379 493 368T479 350Q471 338 460 333T429 334L336 299Q335 289 335 276T334 248T332 221T327 197Q325 192
324 183T322 164T320 146T316 133Q311 125 308 119T297 102Q291 121 287 144T280 192T277 240T276 283Q228 266 183 254T95 236Q84 234 65 231T36 226Q32 229 32 232T35 240T39 249T40 258Q37 269 35 282T35 306Q37 322 51 350T88 412T137 479T190 543T240 593T279
619Q284 620 287 618T295 614Q302 613 305 604T310 589ZM276 337Q277 365 277 396T278 460T278 523T276 582Q255 552 229 515T175 439T122 362T77 290Q100 293 126 298T179 310T231 324T276 337Z" />
<glyph unicode="5" horiz-adv-x="380" d="M104 568Q136 574 170 574T240 572T309 563T376 551Q371 546 365 544T351 540Q340 535 330 536T311 530Q263 523 214 517T103 505Q103 496 102 483T98 454T93 423T87 398Q114 406 157 413T245 418Q253 418 259 415T272
408Q280 404 284 401T293 391Q304 371 308 347T308 296Q302 270 293 244T267 192T228 146T172 109Q159 103 144 97T115 89Q109 88 103 88T89 93Q84 95 79 102Q77 105 73 108T66 115Q61 125 70 126Q124 135 169 166T242 239Q266 274 274 313Q287 339 277 353T240
378Q233 381 214 381T170 378T120 368T75 348Q66 342 65 345T61 350Q57 352 55 356T54 377Q55 390 56 406T60 440T66 474T72 504Q53 506 44 502T33 502Q30 510 29 519T36 534Q41 539 46 542T55 547Q65 554 66 576T71 617Q72 622 74 626T78 635Q80 640 81 644T87
653L104 568Z" />
<glyph unicode="6" horiz-adv-x="360" d="M257 663Q257 661 252 655T243 641Q241 633 238 625T229 613Q211 602 197 585T172 546T154 503T142 460Q168 460 201 457T261 443Q270 440 278 434T292 419Q301 408 300 389T299 353Q299 330 295 312T278 273Q252 230
216 194T134 143Q124 140 120 143T105 151Q99 154 93 155T83 162Q79 170 74 175T66 189Q58 216 56 244T53 299T57 345T63 375Q63 406 74 451T109 543T165 627T244 681Q250 682 253 679Q257 676 257 663ZM257 359Q251 365 238 376T207 399T171 418T135 426Q132 409
129 379T123 316T119 252T118 204Q131 208 155 223T203 258T244 297T260 328Q259 333 260 343T257 359Z" />
<glyph unicode="7" horiz-adv-x="470" d="M465 446Q463 442 462 441T459 435Q457 430 453 428T445 423Q440 418 436 412T426 405Q405 401 368 393T289 374Q285 341 280 309T269 249T257 197T244 157Q237 140 232 125T221 99Q201 55 193 55Q195 70 195 79T194 105Q194
113 192 128T190 151Q191 167 195 190T204 240T216 298T229 359Q203 352 184 347T158 338Q150 334 139 337T120 341Q111 343 105 342T91 344Q96 355 108 363T136 380Q162 392 188 402T241 420Q249 465 251 500T244 548Q212 548 183 543T125 531T67 520T6 514Q6
521 12 526T25 539Q28 543 31 548T40 555Q64 565 88 575T138 593T189 606T240 610Q253 610 262 607Q270 605 275 597T285 583Q290 575 293 569T295 551Q297 525 297 495T294 434Q336 443 380 446Q424 452 465 446Z" />
<glyph unicode="8" d="M248 620Q250 582 245 553T232 499T214 455T197 416Q232 403 257 384Q275 370 288 354Q293 346 299 339T308 325Q310 317 306 311T299 297Q288 274 270 249T228 200T176 158T118 132Q108 130 102 130T86 135Q82 137 77 138T69 144Q66 150
65 156T61 168Q56 187 58 212T66 262T79 310T95 352Q100 365 104 376T107 396Q105 407 90 415T64 429Q51 435 44 448Q31 474 44 501Q57 552 93 598T180 671Q190 677 200 675Q206 674 211 670T221 661Q229 653 237 644T248 620ZM199 589Q201 606 187 616T157 624Q153
624 147 619T134 608T122 594T114 583Q111 578 107 568T100 547T94 527T94 513Q101 492 119 475T146 447Q155 462 164 481T180 520T193 558T199 589ZM154 369Q141 343 129 300T110 216Q108 207 108 197T118 191Q156 202 187 222T237 267Q244 276 239 289Q234 301
222 315T197 340T171 360T154 369Z" />
<glyph unicode="9" horiz-adv-x="370" d="M210 653Q212 653 214 652T217 649Q220 646 219 643Q217 640 214 637T207 628Q202 620 199 612T193 602Q174 587 161 569T137 530T120 489T108 449Q104 445 103 442T101 435Q100 426 104 417T108 398Q109 396 119 397T142
415Q155 434 168 453T193 493T212 536T220 585Q220 595 221 605T227 623Q232 630 234 634T242 642Q247 647 252 649T261 653Q280 589 288 523T297 388T297 249T295 109Q290 106 283 103T271 94Q266 88 265 81T258 69L253 58Q247 103 244 154T239 258T237 360T236
456Q231 444 216 425T181 385T138 349T95 329Q90 328 85 328T73 328Q69 328 68 332T62 338Q57 344 52 349T45 367Q43 386 46 407T57 449Q63 481 76 514T108 576T152 626T210 653Z" />
<glyph unicode=":" horiz-adv-x="303" d="M183 444Q154 446 143 461Q140 465 137 468T134 478Q127 486 117 493T100 512Q97 516 100 519T105 525Q107 527 109 527T113 528Q115 528 117 529Q129 535 138 534T155 527T173 515T193 500Q197 497 199 495T202 490Q203
488 203 486T202 478Q206 461 201 451Q197 444 183 444ZM186 279Q191 274 191 266T193 251Q194 245 193 240T186 228Q183 222 179 223T169 223Q164 221 159 218T147 217Q136 221 125 227T104 241T90 258T84 279Q83 288 88 290T98 298Q103 303 105 308T118 313Q121
313 125 310T133 302T143 294T153 289Q162 287 171 286T186 279Z" />
<glyph unicode=";" horiz-adv-x="303" d="M197 464Q195 462 193 462T188 462Q184 462 180 462T171 464Q160 470 149 480T129 498Q126 498 124 499T118 502Q114 504 110 504T102 508Q94 514 91 524T95 549Q95 558 101 557T115 558Q118 559 121 563T129 566Q148
557 169 541T198 501Q200 496 199 491T197 481Q197 476 198 473T197 464ZM214 234Q211 212 204 190T188 148T168 115T147 95Q140 95 137 98Q136 99 136 106V112Q136 116 133 119T131 125Q133 141 138 155T149 183T159 207T164 231Q158 244 150 253T135 271Q128
279 129 283T137 294Q145 302 148 307T159 313Q167 313 174 307T189 296Q206 288 214 272T214 234Z" />
<glyph unicode="&lt;" horiz-adv-x="450" d="M364 606Q373 598 373 593T353 570Q305 531 270 495T209 426T164 364T127 310Q166 286 199 258T261 200T311 144T350 94Q352 90 351 83T351 71Q354 61 353 49Q352 44 353 40T352 34L320 64Q275 112 221 159T95 254Q81
263 73 268T65 282Q65 293 72 305T87 331Q95 344 98 357T109 385Q125 411 145 440T188 497T237 552T290 599L323 610Q329 612 337 614T353 614Q359 611 364 606Z" />
<glyph unicode="=" horiz-adv-x="530" d="M457 492Q457 485 454 481T448 472Q444 466 440 461T428 453Q417 449 403 448T375 447Q311 447 254 440T131 427Q117 425 109 427T88 435Q80 438 72 442T62 456Q60 466 58 473T55 488Q59 489 65 491T76 494Q173 505 263
505T451 492H457ZM485 356L467 344Q460 337 451 326T432 312Q355 292 276 284T110 286Q106 287 105 289T100 293Q95 295 91 299Q82 304 82 312Q82 316 86 318T94 322Q184 348 281 360T468 373Q474 373 479 371T485 356Z" />
<glyph unicode="&gt;" horiz-adv-x="450" d="M171 75Q173 87 174 91T180 106Q183 114 186 129T194 153Q209 189 232 226T280 299T327 363T361 413Q364 419 358 427T345 440Q316 465 278 483T200 515T121 540T52 561Q47 563 47 564T44 569Q39 574 39 577T39 585Q40
590 40 595T41 603Q44 605 52 605Q100 598 145 588T234 560T317 517T396 454Q416 436 416 414Q416 406 411 395T395 370Q341 291 285 218T171 75Z" />
<glyph unicode="?" horiz-adv-x="400" d="M334 612Q351 558 338 513T300 427T244 346T197 262Q203 254 209 250T221 243Q227 240 233 240Q231 225 228 213T211 201Q202 202 198 198T188 194Q186 194 182 196T175 204Q164 240 169 272T188 333T221 391T257 448T285
509T294 575Q292 579 292 583T290 590Q287 595 280 601T268 609Q264 611 261 612T253 614Q233 614 210 606T167 585T132 552T113 511Q112 506 111 501T106 491T100 484T91 486Q77 487 73 492T69 513Q70 520 68 526T63 539T59 551T61 565Q63 570 65 577T71 590Q107
634 151 660T246 683Q255 682 266 677T286 667Q311 656 320 640T334 612ZM278 95Q278 87 275 78T273 58Q274 49 272 43T255 37Q244 32 236 33T220 40Q209 49 200 67T186 102Q184 107 187 116T195 131Q199 136 206 134T226 131Q233 131 241 131T258 125Q266 119
272 111T278 95Z" />
<glyph unicode="@" horiz-adv-x="550" d="M480 547Q493 496 491 447T463 360Q463 348 461 339T455 321Q447 303 442 287T429 258Q416 232 397 211T357 172T315 142T276 122Q265 117 255 120T231 125Q211 127 192 129T157 139Q109 167 82 209T55 309Q53 367 64
414T98 500T151 569T222 623Q235 631 250 633T279 641Q288 643 297 647T317 651Q339 649 363 643T410 623T451 591T480 547ZM446 513Q420 551 390 571T321 591Q288 591 253 577T188 539T135 482T106 411Q93 347 107 292T172 198Q204 176 239 183T309 212Q309 237
309 266T304 326Q298 317 289 305T270 279T248 255T227 236Q223 234 218 231T210 225Q203 218 199 216T189 214Q171 216 165 227Q159 235 157 247T151 268Q145 279 140 287T136 309Q138 363 164 414T242 496Q255 503 270 503Q289 504 302 495T334 477Q351 472 355
461T361 445Q361 420 359 395T356 346T356 300T363 258Q392 288 411 318T437 368Q451 403 452 440T446 513ZM305 406Q306 409 306 415T306 427T304 439T302 447Q302 448 298 450T288 453T278 454T272 454Q259 448 243 431T213 392T190 346T180 300Q180 287 196
281T225 275Q234 282 248 298T274 334T296 373T305 406Z" />
<glyph unicode="A" horiz-adv-x="500" d="M464 349Q461 344 456 343T445 338Q440 335 435 330T425 322Q439 268 447 228T457 168Q459 148 460 124T461 80Q461 65 460 56T455 37Q443 52 436 69T420 103Q403 154 388 210T357 324Q329 325 297 325T233 325T173 325T123
323Q121 317 119 309Q113 296 109 281T102 248T95 211T85 173Q98 173 110 181T136 190Q127 181 121 170T109 141Q108 136 103 131T96 122Q94 118 92 114T87 107Q80 103 75 103T68 105Q60 117 58 130T53 159Q53 186 60 229T78 321Q70 323 62 328T48 336Q37 341 30
341T15 349L76 365Q81 365 89 367Q101 414 113 457T136 530Q144 553 155 583T182 640T217 688T260 713Q267 715 274 716T289 717Q297 717 301 710T313 691Q318 682 322 676T332 649Q356 576 377 503T414 364L475 351L464 349ZM260 670Q243 647 228 620T198 557T168
476T137 373Q189 379 241 380T344 376Q323 457 303 533T260 670Z" />
<glyph unicode="B" horiz-adv-x="460" d="M322 564Q324 550 321 544T315 525Q310 493 298 466T268 411Q288 411 312 410T360 403Q367 401 372 396T383 387Q391 382 397 378T407 367Q417 348 416 330T404 292Q378 241 332 188T234 88Q225 82 218 82T205 79Q196
75 188 73T176 73Q172 76 176 79T183 88Q202 120 230 150T289 212T347 273T395 336Q376 346 344 350T276 354T210 349T164 336Q164 329 164 318T163 293T162 267T160 241Q157 227 160 216T165 194Q167 181 167 171T167 150Q167 144 168 137T166 122Q140 152 125
193T102 280T92 374T91 466T94 548T99 610Q88 611 72 609T42 603Q39 603 34 603T24 603T14 605T9 607Q6 610 4 608T-1 609Q-5 617 -2 623T-4 638Q5 654 28 659T81 666Q105 671 131 672T184 670T235 657T279 633Q291 624 302 610Q307 603 312 588T322 564ZM275 564Q269
577 256 586T227 602T195 611T165 614Q163 602 161 576T157 519T154 459T155 410Q174 418 193 431T228 463T256 507T275 564Z" />
<glyph unicode="C" horiz-adv-x="412" d="M352 563Q353 561 353 560T354 556Q356 552 353 548T347 546Q337 548 327 552T307 561T287 567T268 566Q248 560 227 547T185 515T147 469T117 411Q102 367 108 329T135 264T191 227T270 224Q302 231 331 247T385 280Q380
272 376 266T364 252Q359 247 354 239T344 225Q309 187 259 170Q248 166 240 166T221 163Q205 163 189 162T158 166Q114 181 83 224Q69 243 60 270T48 328T49 389T66 445Q93 503 130 549T220 613Q255 626 304 615Q316 610 331 595Q336 590 341 585T351 571Q352
569 352 567T352 563Z" />
<glyph unicode="D" horiz-adv-x="380" d="M310 581Q323 568 332 550T346 511T351 469T344 428Q318 275 191 173Q177 163 164 161T139 150Q131 145 124 142T106 139Q104 144 105 148T108 157Q109 161 109 166T110 176Q114 183 117 189T122 200Q122 205 116 210T106
224Q93 256 84 296T69 380T58 467T50 549L26 539Q21 537 19 546T19 563L24 582Q26 587 26 593T32 605Q42 613 61 623T106 632Q131 645 159 648T214 645T266 622T310 581ZM310 530Q297 562 270 575T211 591T150 586T106 569Q109 536 112 495T121 411T135 323T157
241Q195 266 226 297T278 365T307 443T310 530Z" />
<glyph unicode="E" horiz-adv-x="460" d="M383 414Q393 412 397 411T403 404L386 380Q380 375 371 372T353 367Q330 365 302 364T244 362T184 359T126 357Q126 315 126 279T129 221Q154 225 187 234T258 255T337 281T417 310Q431 315 443 318T469 326Q469 322
468 321T465 317Q462 309 456 303Q450 298 445 294T435 287Q430 283 427 275T412 260Q347 220 281 194T141 147Q124 142 114 145T97 164Q95 172 92 177T78 190Q73 194 73 203T72 224Q70 248 70 282T70 356H44Q35 357 31 358T19 368Q19 375 22 377T29 383Q32 387
34 392T42 399Q47 400 54 401T72 404Q74 441 75 478T79 547H65Q53 547 49 549T42 554T39 559T33 563Q25 564 25 566T21 570Q17 573 24 577T40 593Q47 600 48 604T61 613Q71 618 99 619T162 619T233 614T296 605Q312 601 325 596T350 581Q350 578 346 578T339 575Q335
572 331 571T324 567Q320 565 316 564Q300 559 283 556T244 550T194 548T128 547Q127 518 127 483T126 411Q174 416 232 419T342 424Q353 424 363 419T383 414Z" />
<glyph unicode="F" horiz-adv-x="430" d="M320 615Q320 607 310 607T286 606Q276 606 269 602T252 598Q229 596 198 595T134 593Q139 561 146 514T161 410Q193 411 229 414T302 420T374 425T439 428Q431 418 420 416T395 405Q384 399 371 391T345 378Q298 361
250 352T172 336Q178 298 184 260T197 183Q199 175 198 167T197 151Q198 143 199 137T201 122Q193 133 186 145T174 170Q157 219 145 276T123 390T107 500T98 595Q75 597 57 601T28 614Q23 618 16 617T-3 615Q-6 616 -6 622T-9 631Q-11 635 -11 638T-3 649Q67 672
143 667T291 641Q298 639 301 635T309 628Q313 625 316 623T320 615Z" />
<glyph unicode="G" horiz-adv-x="530" d="M391 551Q391 546 388 542T383 531Q379 520 378 519T370 511Q367 507 366 505T363 500Q359 498 352 502Q342 511 328 521T298 538T265 549T229 546Q204 538 171 518T115 469Q87 433 85 392T101 315T157 256T245 229Q271
233 290 246T324 279T349 319T365 360Q314 347 263 339T161 343Q156 346 158 346T165 354Q167 358 168 364T178 375Q214 381 252 390T330 407T411 414T494 401Q498 399 503 399T514 396T523 391T527 381Q527 377 518 377Q492 377 459 376T399 367Q398 343 398 314T399
255T409 194T433 139Q435 137 435 129T433 116Q431 113 432 111T431 106Q429 102 424 102T416 105Q390 131 379 169T365 241Q301 177 233 168Q215 166 205 167T177 177Q170 180 157 182T138 189Q111 210 91 237T58 295T41 359T42 428Q43 473 64 507T116 565T184
599T253 610Q276 609 299 605T343 589Q361 579 371 574T391 551Z" />
<glyph unicode="H" horiz-adv-x="450" d="M349 594Q350 600 355 605T363 615Q369 621 370 622T375 626Q380 629 382 624T387 611L390 581Q394 536 395 486T399 385T406 285T424 190Q426 186 425 183T423 181Q422 184 418 186T408 195Q398 203 391 208T377 222Q360
256 352 306T342 414Q294 400 234 378T115 342Q117 322 118 301T124 259Q126 249 126 239T127 215Q129 204 132 192T135 173Q97 224 77 280T48 396T42 515T50 632Q50 636 53 637T58 641Q60 643 60 644T62 647Q68 655 72 653T79 646Q84 637 88 628T98 609Q103 598
105 588T101 564Q106 533 107 494T111 410Q140 417 169 428T226 450T283 469T341 480Q342 509 344 538T349 594Z" />
<glyph unicode="I" horiz-adv-x="257" d="M174 244Q176 231 173 218T174 193Q177 185 177 169T174 142Q168 142 163 146T151 158Q144 166 136 173T123 193Q110 244 103 300T93 415T90 529T89 637Q89 654 93 658Q95 660 98 659T107 656Q112 655 116 653T122 648Q125
645 128 644T132 638Q140 539 151 441T174 244Z" />
<glyph unicode="J" horiz-adv-x="430" d="M414 632Q410 628 408 628T401 625Q396 622 391 621T381 619Q377 618 370 614T356 609Q343 607 327 605T293 601Q314 544 330 482T351 362T349 255T312 173Q278 133 218 127Q191 124 159 130T96 146T43 171T13 199Q4 216
12 231Q15 236 16 240T23 246Q28 247 36 245T50 240L64 243Q100 223 141 213T219 204Q235 205 250 211T275 234Q285 255 292 297T300 391T295 497T274 599Q243 597 214 596T166 596Q151 598 137 601T108 615Q103 608 99 603T91 598Q81 603 76 614T65 632Q62 635
63 641T74 649Q83 652 115 657T188 665T274 667T355 657Q388 649 414 632Z" />
<glyph unicode="K" horiz-adv-x="530" d="M102 496Q102 471 109 441T117 374Q117 323 119 272T134 170Q147 157 149 145T151 119Q151 111 145 94T134 68Q96 125 79 193T58 333T62 476T83 612Q89 606 91 597T95 576Q97 571 98 561T100 540T101 517T102 496ZM427
505Q425 499 421 495T410 488T399 484T391 483Q378 483 366 473T340 449L217 308Q241 297 277 283T352 250T428 207T491 153Q510 140 515 133T521 121T520 112T525 102Q527 93 524 88T521 80Q522 76 518 78T508 85Q476 117 438 140T358 181T268 215T170 246Q147
251 142 265Q138 274 141 283T148 300Q155 314 157 328T168 357Q193 382 219 414T274 474T335 517T406 527Q422 526 427 518T427 505Z" />
<glyph unicode="L" horiz-adv-x="500" d="M116 204Q165 210 208 218T291 236T366 258T439 285Q454 292 466 292Q474 292 473 285Q475 280 477 280T479 267Q479 256 473 246T462 230Q453 220 430 209T375 185T307 161T237 139T174 122T129 111Q120 109 112 116T99
126Q85 133 84 144T75 171Q67 186 64 202T60 235Q58 276 60 317T64 401T66 491T61 591Q63 596 68 592T80 586Q85 584 89 583T96 576Q106 558 111 514T118 414T119 303T116 204Z" />
<glyph unicode="M" horiz-adv-x="570" d="M515 136Q509 142 507 148T499 166Q492 177 493 189T490 218Q488 227 482 237T476 255Q474 319 472 378T465 510Q450 495 434 476T402 435T374 394T352 355Q346 343 338 336T321 322Q316 318 314 314T306 312Q274 322
249 349T201 404T154 454T101 479Q100 450 100 415T102 343T104 270T107 202V153Q96 166 92 177T82 204Q78 212 71 223T62 244Q52 281 48 325T44 413T46 496T50 561Q51 566 53 569T61 573Q65 573 67 575T73 578Q80 578 82 570T93 548Q98 537 99 534T102 522Q130
520 156 504T205 465T246 417T277 374Q295 403 316 431T361 484T406 531T447 570L460 578Q460 582 470 589Q472 591 469 594T467 598Q471 599 475 599T481 595Q498 569 507 543T521 488Q525 423 526 361T525 240Q523 213 521 187T515 136Z" />
<glyph unicode="N" horiz-adv-x="480" d="M438 595Q439 585 437 569T433 539Q431 529 434 516T438 493Q432 474 426 447T415 389T406 328T400 274Q406 255 411 242T421 218T427 193T429 161Q422 154 421 153T412 146Q406 141 401 144T389 147Q380 147 380 149T375
156Q359 172 349 188T329 221T313 255T295 289Q283 311 266 340T227 398T182 448T132 476Q109 398 106 325T115 187Q116 178 115 175T112 165Q110 157 108 146T102 129Q103 115 103 103T98 85Q66 136 55 197T44 323T57 448T81 561Q81 565 83 567T88 571Q90 573
91 574T96 577Q101 578 105 579T114 581Q120 581 122 574T126 563Q129 558 131 543T132 522Q176 516 209 491T268 432T313 365T346 305Q347 327 351 359T361 424T372 486T381 533Q384 547 390 556T403 572Q407 576 411 583T423 592Q428 594 430 594T438 595Z" />
<glyph unicode="O" horiz-adv-x="410" d="M231 511Q237 511 248 512T273 513T297 508T315 490Q335 470 348 434T363 357T354 277T315 214Q304 203 287 186T253 151Q239 137 224 127T190 113Q180 111 174 116T157 129Q149 134 138 137T121 149Q66 219 45 323Q42
339 44 364T53 416T75 469T111 515Q131 534 163 545Q173 551 184 550T208 546Q218 544 224 536T231 511ZM315 392Q309 411 295 428T263 459T226 482T189 494Q180 494 166 487T138 467T112 440T95 409Q84 375 90 333T117 257T169 207T242 208Q261 214 277 236T303
287T317 344T315 392Z" />
<glyph unicode="P" horiz-adv-x="450" d="M403 561Q416 497 403 436T352 323Q339 297 317 290T269 283Q263 283 252 283T230 281T208 278T191 274L195 202Q195 192 193 181T189 161Q187 149 188 141T187 120Q185 108 184 95T182 68Q169 88 159 122T142 199T129
288T121 377T116 456T113 515Q94 507 75 495T39 472Q34 468 29 471T18 471Q14 467 11 467T4 469T-1 473T-5 476Q-7 482 -6 484T-5 491Q-4 497 -4 502T2 512Q62 560 115 584T213 620Q261 633 300 628T377 587Q388 584 395 579T403 561ZM354 541Q343 556 324 562T281
567T232 560T183 543Q183 525 183 499T183 443T185 384T189 329Q204 334 223 338T262 349T299 366T328 394Q334 407 341 426T354 467T359 508T354 541Z" />
<glyph unicode="Q" horiz-adv-x="430" d="M298 544Q330 518 347 481T372 401T377 315T365 234Q391 208 410 186T451 136Q461 124 458 121T449 113Q445 108 439 108Q436 108 434 109Q430 113 427 113T419 116Q397 136 373 154T318 189Q292 163 263 150T196 136Q201
125 201 121T196 114Q190 111 181 110T167 109Q162 109 154 106T141 103Q107 109 77 136Q45 174 38 228T38 338T61 440T94 510Q107 529 123 546T160 576Q169 581 179 585T201 587Q211 585 216 590T230 595Q250 595 253 588Q256 582 253 574T246 558Q250 558 255
558T267 556Q272 555 275 552T284 547Q290 545 292 545T298 544ZM196 527Q132 476 105 402T77 238Q81 231 91 219T113 195T141 173T170 160Q202 155 236 166T298 204Q272 217 254 233T218 263Q211 270 207 272T197 283Q195 286 192 291T187 300Q185 305 182 310T179
323Q191 323 201 321T222 316Q255 303 283 286T333 256Q337 271 338 293T337 338T329 384T315 425Q312 431 306 442T291 465T272 485T252 493Q220 493 211 504T196 527Z" />
<glyph unicode="R" horiz-adv-x="530" d="M396 546Q396 502 381 465Q374 446 362 428T336 392T306 359T277 330Q307 321 343 311T416 286T485 255T542 215Q549 209 551 204T553 190Q553 182 553 180T550 172Q547 167 547 161T542 153Q537 151 532 155Q475 192
398 222T243 274Q235 274 228 271T211 264Q203 261 190 257T175 257Q175 273 184 286T200 313Q208 330 210 335T218 346Q222 351 227 358T244 377Q269 401 286 422T315 464T335 505T351 545Q286 543 234 535T127 512Q133 474 136 427T141 329T147 230T158 138Q163
124 161 113Q160 110 160 108T158 104Q120 194 104 298T105 507Q98 506 86 503T61 496T35 488T13 482L-10 479Q-13 488 -9 492T-2 504Q5 528 27 540Q36 545 42 552T56 563Q83 574 117 582T186 594T257 599T325 591Q335 589 344 584T362 574L378 564Q399 561 396
546Z" />
<glyph unicode="S" horiz-adv-x="470" d="M385 563Q383 559 385 557T385 553Q382 551 375 551T362 549Q355 547 348 547T333 553Q321 559 304 564T266 570Q240 570 211 565T156 550T109 526T79 495Q73 482 74 468T81 440T95 417T112 402Q137 389 167 385T230 380T295
377T354 367Q368 362 380 359T403 351T421 336T436 308Q445 270 432 234Q419 197 389 169T321 123Q291 110 260 106T199 107T145 130T105 177Q96 196 96 223Q95 226 96 229Q98 236 109 236Q113 238 119 234T129 228Q137 227 144 218T159 202Q184 176 215 171T276
170T331 188T368 210Q375 216 383 224T400 243T413 266T419 291Q416 303 403 309T370 320Q335 326 301 326T234 326T169 325T107 332Q98 334 90 338T73 348Q65 353 61 361T52 378Q47 387 43 396T36 417Q31 449 36 483T62 546Q78 570 105 587T167 614T241 624T321
611Q326 609 333 606T345 600Q359 593 370 583T385 563Z" />
<glyph unicode="T" horiz-adv-x="490" d="M470 546Q474 541 468 535L460 529Q455 529 454 527T447 522Q440 519 437 517T419 512Q387 517 348 517T283 514Q289 469 290 419T290 318T286 216T283 121V104Q278 121 275 141Q273 148 272 153T269 166Q255 247 255
337T266 512Q209 504 156 495T51 469Q45 467 40 466T28 463Q23 468 19 470T14 480Q12 491 20 497T36 512Q39 513 40 517T42 525T45 532T49 537Q98 554 152 564T260 576T368 571T470 546Z" />
<glyph unicode="U" horiz-adv-x="449" d="M165 580Q149 541 136 500T113 418T100 335T97 257Q95 251 94 248T92 242Q93 237 95 234T97 223Q121 207 155 205Q189 203 223 213T284 240Q321 264 341 296T372 365T384 441T386 517Q386 520 388 522T391 528Q391 531
392 534Q393 536 393 539T394 544Q394 546 398 548T403 546Q409 501 411 452T403 355T370 264T301 189Q272 169 230 152T146 126Q122 123 113 131T93 144Q79 151 75 155T63 172Q39 220 37 273T46 379T76 478T114 563Q119 571 121 571T130 575Q134 577 141 582T153
587Q155 587 159 587T166 585Q168 584 166 583T165 580Z" />
<glyph unicode="V" horiz-adv-x="390" d="M315 376Q310 359 300 333T278 276T251 214T221 158Q218 153 214 149T208 141Q203 133 200 129T192 123Q187 122 183 126T173 135Q164 143 157 153T144 174Q140 180 133 185T124 198Q92 281 68 376T26 563Q28 568 28 573T32
577Q40 575 50 573T60 563Q75 531 90 485T119 389T147 289T173 203Q193 244 216 294T264 396T314 500T366 597Q366 582 363 567T355 536Q352 527 349 518T342 499Q332 470 329 440T315 376Z" />
<glyph unicode="W" horiz-adv-x="685" d="M485 147Q480 143 476 138T468 128T461 124T453 128L445 138Q419 170 408 207T388 283T372 365T345 448Q326 419 309 381T278 302T252 224T233 157Q230 146 226 142T218 131Q216 127 212 119T203 110Q198 110 196 113T190
121Q139 198 112 282T71 444Q44 472 38 490T28 514Q21 525 27 535T44 547Q50 547 57 548T71 546Q83 540 95 519T122 444Q128 418 136 389T154 332T172 277T187 232Q200 253 218 291T257 371T300 456T343 529Q347 535 351 537T359 542Q362 544 364 547T369 551Q377
553 377 546Q383 527 393 497T415 430T435 352T450 270Q462 297 476 332T506 407T542 486T585 562Q592 573 603 582T623 602Q631 610 636 617T649 631Q653 629 647 611Q642 600 635 586T624 560Q591 466 558 372T498 174Q497 169 493 160T485 147Z" />
<glyph unicode="X" horiz-adv-x="500" d="M474 631Q479 626 479 624T480 616Q482 608 481 605T472 593Q467 588 460 583T448 572Q430 554 410 532T371 488T335 444T305 404Q336 371 364 331T412 256Q414 251 418 238T422 219Q422 214 424 212T428 206T432 199T433
188Q432 183 434 178T429 167L267 349Q239 312 206 256T144 141Q141 137 141 139T134 138Q133 149 133 157T133 179Q133 186 131 195T131 211Q135 231 145 254T168 300T194 345T220 385Q169 423 124 454T41 512L27 523Q27 528 25 533T24 545Q26 549 27 551T34 557Q38
559 40 560T46 560Q75 553 99 544T145 522T190 494T236 461L255 444Q277 473 303 505T358 566T416 612T474 631Z" />
<glyph unicode="Y" horiz-adv-x="480" d="M448 627Q450 622 450 619T450 611Q452 603 452 598T451 587Q431 537 393 484T291 358Q290 341 290 314T289 255T293 191T302 131Q304 126 304 123T304 115Q304 109 301 106T296 97Q292 89 291 79T287 63Q283 55 281 50T275
42Q258 67 249 103T236 177T233 251T241 314Q211 338 186 366T136 424T88 479T34 526Q30 528 28 532T24 541Q19 551 22 559Q23 562 24 565T27 571L37 569Q63 565 92 542T147 490T196 433T232 389Q249 408 272 435T319 491T369 552T415 612L433 638Q438 640 442
636T448 627Z" />
<glyph unicode="Z" horiz-adv-x="520" d="M410 417Q424 417 435 417T460 416Q473 414 486 417T512 414Q501 409 492 405T472 395Q462 390 450 384T426 374Q397 365 350 359T243 348Q201 299 161 257T83 179Q113 182 158 193T261 218T384 242T523 253H541Q531 243
522 241T503 233Q486 225 469 217T434 207Q408 201 364 187T273 160T182 135T110 124Q99 122 90 126T63 135Q56 137 54 140T52 147T51 155T48 164Q41 175 38 184T44 203Q67 227 99 265T166 345H115Q104 344 99 348T86 354Q74 358 63 358T46 361Q42 363 40 363T38
365Q40 372 44 372Q89 378 129 384T207 396Q243 442 272 481T313 540Q284 540 252 538T185 535T117 534T52 539L31 543Q32 551 42 557T57 570Q62 577 66 581T79 587Q133 595 193 594T309 581Q317 579 321 579T327 577T332 574T338 564Q341 560 348 555T360 543Q365
537 364 531T361 518Q358 509 355 499T344 480Q330 461 317 443T290 407Q320 411 350 413T410 417Z" />
<glyph unicode="[" horiz-adv-x="370" d="M296 679Q296 674 295 671T291 663Q289 658 287 654T280 648Q270 643 251 643Q221 643 194 639T137 630Q137 628 138 627Q143 608 150 589T157 551Q157 530 157 495T156 417T155 327T153 235T151 149T150 80Q186 82 225
80T303 71Q306 71 308 69T310 56L299 50Q294 45 287 39T275 31Q252 27 228 25T182 23T142 26T113 34L103 47Q101 49 99 53Q97 55 96 58T95 65Q96 67 98 70T102 75Q106 75 108 76Q104 119 102 171T98 278T96 387T95 488T97 572T101 630Q99 631 96 634Q91 636 87
639T82 650Q81 658 80 664T78 675Q80 676 83 677T89 680Q143 689 190 689T292 679H296Z" />
<glyph unicode="\" horiz-adv-x="810" d="M736 389Q747 388 757 387T763 380Q760 376 753 375T735 369Q726 364 716 358T702 355Q687 354 668 354T629 353Q614 309 601 265T576 174Q575 169 571 160T563 147Q558 143 554 138T546 128T539 124T531 128L523 138Q505
160 495 184T477 235T465 289T454 346Q433 345 412 345T371 343Q351 293 336 243T311 157Q308 146 304 142T296 131Q294 127 290 119T281 110Q276 110 274 113T268 121Q234 172 211 226T173 335Q132 334 100 334T53 334L42 344Q47 354 54 354T69 355Q72 356 82
361T96 366Q104 365 110 366T121 368Q132 371 163 374Q158 392 155 409T149 444Q122 472 116 490T106 514Q99 525 105 535T122 547Q128 547 135 548T149 546Q161 540 173 519T200 444Q205 426 208 410T217 379Q241 381 268 382T324 386Q347 425 369 462T421 529Q425
535 429 537T437 542Q440 544 442 547T447 551Q455 553 455 546Q463 519 476 481T501 394Q517 394 532 394T564 395Q585 437 609 480T663 562Q671 573 681 582T701 602Q709 610 714 617T727 631Q731 629 725 611Q720 600 713 586T702 560Q687 518 672 478T643 395Q675
394 698 393T736 389ZM251 274Q264 290 274 306T296 340Q261 338 230 337Q240 304 251 274ZM423 448Q406 422 391 390Q404 391 416 391T443 392Q436 417 423 448ZM516 306Q522 316 528 327T541 350Q533 349 526 349T510 349Q512 338 513 328T516 306Z" />
<glyph unicode="]" horiz-adv-x="370" d="M79 659Q133 668 180 668T282 660Q284 659 287 658T293 655Q293 650 292 644T289 630Q288 623 284 620T275 614Q273 612 272 612T270 610Q273 579 274 518T275 383T271 232T262 90Q264 89 269 89Q271 88 273 85T276 79Q276
73 272 67Q270 63 268 61L258 48Q247 43 229 41T189 38T143 39T96 45Q91 46 84 52T72 64L61 70Q60 81 62 83T68 85Q106 92 145 94T221 94Q220 136 219 198T217 323T215 442T214 531Q214 550 221 569T233 607Q233 609 234 610Q204 615 177 619T120 623Q101 623 91
628Q87 630 85 634T80 643Q78 647 77 650T75 659H79Z" />
<glyph unicode="^" horiz-adv-x="399" d="M347 562Q347 556 349 552T344 544Q337 542 330 542T310 544Q306 544 299 546T291 551Q286 567 277 588T258 631T235 673T213 708Q186 686 167 662T134 614T113 572T101 543Q99 536 94 532T84 523Q80 519 78 514T70 506Q65
505 63 506T55 507Q55 546 65 582T95 652T142 713T201 763Q211 769 215 773T225 776Q228 776 234 773T245 762Q258 747 272 725T300 678T324 628T344 582Q346 578 346 573T347 562Z" />
<glyph unicode="_" horiz-adv-x="545" d="M509 -87Q512 -93 522 -96T532 -104Q531 -109 528 -109T520 -111Q509 -117 500 -118T475 -121Q454 -121 419 -125T341 -136T252 -147T164 -154T86 -152T29 -135Q21 -128 23 -123Q25 -119 29 -118Q34 -107 43 -108T61 -108Q72
-106 80 -104T97 -101Q114 -97 145 -93T215 -86T296 -81T379 -79T454 -81T509 -87Z" />
<glyph unicode="`" horiz-adv-x="250" d="M139 753Q139 741 144 725T157 691T173 654T185 617Q188 606 184 597T178 579Q177 576 177 573T176 566Q174 564 172 559T167 556Q161 562 151 577T130 611T110 646T96 673Q96 680 93 688T86 705Q82 713 82 725T80 745Q76
763 80 774Q81 779 86 783T96 786Q104 786 108 784T116 779Q124 775 130 770T139 753Z" />
<glyph unicode="a" horiz-adv-x="360" d="M284 465Q297 433 308 396T324 323T325 252T301 193Q293 183 282 185Q278 186 275 190T267 197Q263 200 259 202T250 210Q235 205 221 196T191 176T160 157T127 143Q109 138 101 144T82 159Q75 165 73 166T69 179Q66 201
68 226T80 278Q105 354 182 380Q191 383 200 382T219 376T236 366T252 354L268 341Q273 358 268 377T251 414T226 446T199 465Q148 465 108 442T29 380Q27 378 25 377T20 375Q17 373 13 374Q10 375 12 380Q18 412 36 437T78 482T129 514T182 533Q186 535 189 535T198
536Q205 536 211 532T225 523Q235 518 245 512T263 496Q270 488 275 480T284 465ZM250 287Q244 300 232 311T203 327T169 330T131 312Q125 299 119 284T110 253T107 222T114 193Q152 206 188 223T250 253Q256 259 257 263T257 270T253 277T250 287Z" />
<glyph unicode="b" horiz-adv-x="310" d="M72 664Q74 662 75 661T77 657Q77 626 80 592T86 524T91 455T94 391Q101 401 110 414T133 438T161 456T196 465Q203 472 209 472Q219 473 228 466T247 448Q260 435 269 417T281 380T281 343T264 312Q251 274 228 249T179
210L119 180Q113 177 108 173T96 165Q91 163 89 166T81 172Q69 177 66 187Q63 196 62 202T59 219Q48 268 44 327T39 444T39 557T43 652Q43 665 44 669T51 675Q53 676 56 677T64 676Q67 675 68 672T72 664ZM247 372Q247 378 242 387T229 406T212 422T196 431Q185
428 168 417T140 391Q111 356 109 317T120 240Q129 243 143 250T174 266T205 284T230 302Q241 315 244 330T247 372Z" />
<glyph unicode="c" horiz-adv-x="308" d="M255 414Q258 409 258 405T256 397Q248 388 243 385T226 376Q223 374 221 372T215 370Q210 370 200 378T177 394T152 406T127 403Q116 388 106 365T91 315T87 262T103 212Q161 206 206 231T289 295Q289 288 286 283T279
271Q275 262 271 254T258 237Q244 222 227 208T190 184T150 168T109 164Q98 165 94 169T78 179Q72 183 63 186T48 194Q38 206 33 223Q26 245 26 271T29 321T39 366T51 397Q57 410 69 419T95 437T125 452T153 465Q204 465 255 414Z" />
<glyph unicode="d" horiz-adv-x="319" d="M233 720Q233 656 245 601T265 487Q273 428 276 371T284 264Q281 258 281 250T277 237Q262 223 243 210T201 186Q193 182 185 182T169 181Q160 179 151 176T131 175Q120 178 105 184T75 200T48 220T29 244Q18 301 33 347T80
430Q84 435 90 437T101 444Q106 448 112 450T126 452Q146 450 170 443T207 433V448Q207 474 204 500T197 554T193 609T195 668Q196 676 199 684T204 700Q206 705 210 711T219 720Q224 722 225 726T230 730Q234 729 234 727T233 720ZM227 254Q228 265 228 285T221
328T202 370T164 400Q153 399 139 397T110 388T84 372T65 345Q59 327 65 299T97 244Q112 235 129 234T163 234T197 242T227 254Z" />
<glyph unicode="e" d="M260 478Q267 471 273 463T283 445Q291 426 291 408T277 363Q260 335 234 316T176 292Q154 288 132 292T90 312Q84 307 81 298T78 280Q80 266 88 250T107 227Q124 220 154 226T219 244T287 272T345 299Q345 293 343 291T336 284Q331 279
325 272T311 260Q301 254 296 245T277 227Q258 217 239 207T200 188T162 175T123 172Q110 174 102 179T81 194Q75 199 67 204T55 214Q38 239 32 267T29 324T44 380T73 431Q83 444 97 457T129 481T166 498T206 503Q214 502 220 499T235 491Q240 489 247 486T260
478ZM231 419Q229 428 220 435T200 446T178 452T162 451Q154 448 144 441T124 423T106 402T93 380Q91 377 90 371T90 361Q102 346 126 346Q149 346 175 357T213 380Q214 382 217 387T224 398T229 410T231 419Z" />
<glyph unicode="f" horiz-adv-x="340" d="M230 358Q219 358 209 358T188 356Q191 331 192 303T192 247T185 191T169 140Q167 136 168 134T168 127Q165 125 164 124T160 121Q147 113 139 113Q137 113 137 117T138 125Q149 168 144 224T119 356Q85 356 50 363Q49
363 45 363T35 363T26 365T22 370Q23 376 20 378T16 383Q15 390 17 391T25 394Q42 398 62 401T106 406Q104 412 104 414Q92 449 86 490T81 572T92 650T121 716Q128 726 139 730Q144 732 149 734T160 735Q180 731 196 722T225 699T251 669T274 635Q283 624 274 618T258
607Q250 601 240 601Q233 603 226 610T209 622Q204 627 196 634T179 648T162 658T149 660Q146 658 141 648T132 630Q125 608 130 589Q142 541 154 496T178 414Q178 411 179 409Q218 409 255 404T324 386Q329 384 315 375Q307 370 301 370T286 368Q272 363 258 361T230
358Z" />
<glyph unicode="g" horiz-adv-x="320" d="M210 499Q219 475 232 428T257 326T278 215T287 117Q287 84 281 52T244 -11Q228 -26 206 -47T157 -87Q145 -95 133 -102T108 -113Q103 -101 105 -98T111 -84Q114 -75 115 -59T125 -36Q135 -27 152 -13T185 16T213 47T227
74Q229 92 229 113T227 157T220 202T210 244L208 250Q196 228 183 215T152 193Q144 189 136 188T120 184Q112 182 104 179T90 175Q77 176 65 186T50 209Q49 216 46 223T42 239Q40 268 41 303T47 373T64 441T92 498Q99 506 107 513T127 521Q135 521 141 527T156
532Q173 530 187 524T210 499ZM176 420Q174 434 171 449T163 465Q159 466 156 465T150 462Q137 457 127 432T109 375T97 314T95 272Q97 257 103 244T122 227Q126 226 135 229T154 239T174 253T190 267Q193 270 193 285T190 323T184 371T176 420Z" />
<glyph unicode="h" horiz-adv-x="362" d="M119 363Q142 397 174 417T248 435Q254 434 261 431T274 424Q289 416 302 401T325 366T343 325T353 286Q355 275 356 258T357 227Q355 227 355 226T353 226Q345 230 340 237Q338 239 334 241T329 248Q327 258 325 274T316
310T301 347T279 380Q274 385 271 387T262 393Q257 397 247 398T230 398Q213 393 194 379T161 345T141 297T146 239Q149 230 150 225T151 214T147 203T139 187Q131 175 121 170T102 159Q73 242 58 325T39 482T43 617T68 720Q71 732 81 730Q86 729 89 726T97 718Q101
713 104 710T108 700Q109 695 113 695T116 690Q107 635 104 588T102 501T109 427T119 363Z" />
<glyph unicode="i" horiz-adv-x="211" d="M159 499Q167 491 166 486T159 482Q146 482 131 480T98 476T61 475T23 482Q15 490 23 496T37 516Q40 525 45 528T57 533Q68 533 84 529T112 523Q129 521 140 518T159 499ZM138 363Q144 340 147 321T152 285T154 249T155
210Q155 206 151 202T144 192Q140 183 138 181T129 176Q115 170 104 159Q91 178 87 203T81 255T78 309T70 363Q67 377 72 382T83 389Q90 391 98 386T115 376Q122 372 128 372T138 363Z" />
<glyph unicode="j" horiz-adv-x="257" d="M169 499Q150 493 131 487T95 480T62 482T33 499Q33 512 35 522T50 533Q69 539 87 539T122 535T150 521T169 499ZM220 91Q221 46 197 10T137 -46T63 -64T-1 -28Q-3 -26 -3 -24T-4 -20Q-6 -16 -7 -14T-8 -9L-1 -11Q36 -19
67 -17T120 -2T156 38T169 108Q169 172 154 244T101 380Q97 386 98 388T102 392T108 395T114 397Q119 400 124 396T134 390Q141 387 144 386T152 380Q184 354 201 318T224 242T229 163T220 91Z" />
<glyph unicode="k" horiz-adv-x="410" d="M67 598Q80 576 85 553T94 502T102 440T118 360Q130 386 150 421T197 485Q206 496 219 503T245 516Q252 520 257 524T271 530Q266 520 262 513T252 497Q240 481 226 460T198 417T173 374T155 338L186 360Q206 373 227
371Q240 370 253 364T279 348T302 329T322 309Q342 299 362 278T398 240Q403 235 402 231T404 219Q406 214 405 206T401 192Q397 184 397 179T394 172Q370 193 342 217T285 262T231 301T186 326Q174 333 157 318T135 275Q135 266 135 255T131 230Q129 225 129 216T120
202L103 181Q84 232 71 287T47 398T30 509T16 615L14 635Q14 642 14 643T26 646Q29 644 35 640T45 630Q50 623 56 618T67 598Z" />
<glyph unicode="l" horiz-adv-x="221" d="M111 646Q123 592 130 538T143 430T155 322T173 214Q171 201 170 193T165 183Q160 180 156 177T146 171Q144 170 142 168T138 164T133 164T128 170Q109 227 94 285T69 402T57 521T60 646Q60 661 69 665Q73 667 79 662T91
655Q98 652 102 652T111 646Z" />
<glyph unicode="m" horiz-adv-x="550" d="M65 476Q71 450 70 422T68 366T67 309T82 255Q105 312 145 358T230 442Q236 447 242 448T255 452Q260 454 264 455T277 453Q297 442 300 411T303 323Q318 338 333 356T365 392T398 422T434 441Q440 443 446 442T459 440Q463
440 466 441T473 442Q479 441 483 436T490 425Q494 410 501 384T513 330T522 278T522 244Q520 235 518 232T507 221Q505 221 503 218T497 212Q493 208 490 204Q477 223 470 245T458 291T449 340T439 391Q410 376 394 357T367 316T349 272T329 230Q318 213 307 203T289
194Q283 195 280 205T272 235Q262 276 254 323T235 408Q216 402 198 387T163 351T135 305T116 255Q129 229 117 212Q112 204 103 199T82 187Q75 180 67 182Q59 184 54 191T48 204Q42 236 36 270T29 340T31 409T48 476Q50 482 52 482Q54 482 56 481T60 478Q62 477
62 477T65 476Z" />
<glyph unicode="n" horiz-adv-x="401" d="M106 306Q123 323 140 342T177 380T216 412T258 436Q263 438 267 437T277 438Q285 438 291 438T302 434Q316 425 324 409T339 372Q343 361 343 351T349 328Q355 309 362 290T368 252Q367 247 365 244T360 235Q358 231
353 225T343 216Q338 212 337 210T327 204Q314 223 307 245T295 291T286 340T276 391Q274 398 264 399T240 393T211 369T184 328Q176 310 169 291T154 252T134 214T106 180Q101 175 99 179T89 186Q83 188 83 190T79 202Q73 223 67 250T53 307T37 367T21 425L15
443Q17 447 22 450T34 455Q40 457 47 454T58 451Q69 451 77 437T92 402T101 355T106 306Z" />
<glyph unicode="o" horiz-adv-x="290" d="M165 459L148 442Q156 443 172 446T205 450Q217 448 225 442T235 419Q239 395 247 371T260 322T260 277T233 238Q210 203 183 180T125 152Q105 149 81 157T46 187Q43 185 41 186T37 190Q35 192 34 191T31 192Q30 195 30
200V202V204Q31 239 36 274T53 343T83 406T131 459Q141 465 153 463Q155 463 158 463T165 459ZM131 391Q125 392 124 395T124 402T128 413T131 425Q110 406 99 379T82 324T77 268T80 221Q82 204 87 194T102 181Q113 178 131 187Q157 200 173 223T199 272Q203 286
205 305T204 342Q199 365 179 375T131 391Z" />
<glyph unicode="p" horiz-adv-x="350" d="M312 442Q323 416 323 392T312 340Q300 319 279 303T235 274T189 254T154 241Q158 211 162 176T168 104T173 32T176 -34Q176 -40 173 -41T166 -47Q163 -50 161 -55T154 -62Q151 -64 148 -66T142 -68Q127 -17 115 44T95
171T81 302T74 425Q60 423 46 417T21 404Q19 402 17 403T13 402Q10 400 7 399T1 399Q-5 402 -11 408Q0 441 24 460T77 487Q94 491 129 493T201 493T271 478T312 442ZM275 406Q272 425 255 435T215 448T168 449T124 440Q127 427 130 408T136 369T141 329T145 295Q164
300 187 309T229 333T262 365T275 406Z" />
<glyph unicode="q" horiz-adv-x="340" d="M291 -3Q291 -20 288 -27T279 -42Q274 -50 274 -57T267 -68Q257 -20 252 23T242 107T233 190T223 276Q198 252 165 232T99 210Q73 208 46 221Q37 222 30 229Q25 234 24 240T21 254Q20 275 22 300T30 352T44 401T64 443Q78
464 98 476T149 482Q155 480 159 478T168 471Q172 469 176 467T182 459Q184 455 186 449T188 436Q188 434 188 431T186 425Q185 424 182 425Q156 438 133 431T97 391Q89 365 82 330T74 255Q74 244 92 244Q102 244 117 250T149 269T183 299T216 340Q216 366 213
394T218 449Q220 457 226 464T239 478Q242 482 243 486T250 493Q267 489 275 481Q280 476 280 467T279 443Q282 405 286 354T293 248T297 136T296 34L291 -3Z" />
<glyph unicode="r" horiz-adv-x="360" d="M345 493Q345 484 348 471T346 449Q344 447 344 442T341 434L328 442Q312 450 293 449T253 440Q239 434 226 424T200 400T178 373T161 346Q145 317 145 276T175 170Q175 163 165 153Q163 151 160 147T155 141Q147 134
146 129T139 122Q131 119 124 136Q107 166 92 209T63 299T39 387T22 459Q19 467 21 474T27 487Q30 491 34 489T42 487Q55 487 58 482T68 469Q82 453 90 426T110 362Q126 389 151 414T207 459T269 493T331 509Q337 510 341 506T345 493Z" />
<glyph unicode="s" horiz-adv-x="340" d="M280 441Q275 426 272 418T263 416Q249 430 229 446T180 466Q161 468 140 462T107 434Q97 416 104 391Q110 365 130 354T176 336T228 324T274 306Q280 303 283 297T291 285Q296 279 300 275T309 263Q312 257 316 249T318
230Q315 217 293 202Q245 171 192 153T80 146Q73 148 64 159T49 175Q33 184 27 198Q19 224 19 255Q19 265 22 265T29 264Q35 264 42 256T58 238T74 219T87 210Q104 202 128 201T176 205T222 223T257 255Q257 260 246 267T216 282T177 300T136 319T102 340T82 362Q79
370 75 378T70 391Q65 413 68 433T80 470T104 496T138 510Q168 514 202 511T264 487Q272 480 275 474T281 460Q282 455 283 451T280 441Z" />
<glyph unicode="t" horiz-adv-x="410" d="M389 391Q391 389 392 389T393 387Q392 385 389 383T376 379Q373 378 368 376T360 372Q333 366 297 361T221 352Q219 317 219 287T222 235Q224 218 238 218T267 224Q271 225 288 233T329 253T379 278T426 303Q426 289
411 276Q403 269 394 263T374 250Q363 243 359 235T341 218Q315 201 285 187T231 167Q223 165 215 165T198 162Q186 157 180 164T171 184Q167 221 166 263T165 348Q135 346 110 346T68 350Q53 352 41 356T18 371Q9 371 12 379T18 394Q39 395 79 396T167 400Q171
483 181 554T205 660Q205 669 212 672T228 681Q232 683 236 686T249 690Q258 685 262 682T266 673T263 661T256 643Q254 640 250 618T242 563T232 487T224 401Q257 401 287 401T340 398L389 391Z" />
<glyph unicode="u" horiz-adv-x="340" d="M293 439Q293 369 294 309T306 191Q307 185 303 178T295 166Q289 159 284 153T274 144Q264 139 262 142T259 150Q255 169 249 201T240 267Q228 247 214 227T183 189T149 159T116 139Q109 136 107 138T98 142Q89 146 81
149T67 160Q56 179 49 197Q38 226 36 258T35 322T42 384T52 439Q53 444 57 445T62 452Q64 460 69 463T81 468Q89 470 93 471T106 473Q97 444 92 407T87 332T94 257T114 194Q133 207 151 226T186 265T214 305T233 337Q239 357 240 382T242 428Q241 437 243 442T249
453Q251 456 251 459T255 464Q257 466 259 469T265 473Q271 473 273 467T279 458Q284 453 288 451T293 439Z" />
<glyph unicode="v" horiz-adv-x="281" d="M259 490Q259 420 241 353T200 225Q198 219 193 215T183 205Q172 193 164 183T144 165Q136 158 124 152T106 150Q87 182 74 214T51 279T34 348T21 422Q19 430 22 434T29 441Q32 443 32 448T38 456Q46 451 50 441T60 419Q65
410 69 405T79 388Q91 360 101 317T123 228Q142 253 156 277T182 326T203 375T226 426Q230 434 235 442T245 459Q250 467 252 474T259 490Z" />
<glyph unicode="w" horiz-adv-x="520" d="M508 531Q495 486 485 442T464 355T439 271T406 191Q406 185 402 182T390 174Q382 169 374 162T358 149Q351 142 344 137T331 131Q325 131 321 140Q313 165 307 193T294 250T282 307T270 361L140 192Q136 185 132 179T122
170Q120 169 118 168T114 165T108 166T100 174Q86 198 74 226T53 286T36 348T22 409Q20 417 21 423T24 438Q26 449 32 459Q37 467 40 473T49 480Q56 480 56 482T60 482Q65 480 68 473T73 462Q77 438 82 409T94 349T106 292T119 244Q130 256 149 284T191 343T239
403T287 446V429Q293 435 298 436T308 438Q313 438 317 437T321 429Q325 409 330 384T339 331T348 279T356 234Q369 256 380 283T403 339T427 396T453 449Q460 461 470 473T488 498Q494 507 497 515T508 531Z" />
<glyph unicode="x" horiz-adv-x="380" d="M360 487Q322 449 284 401T207 314L276 235L278 221Q285 213 285 209T284 197Q283 187 280 176Q278 168 280 165T278 160L261 177Q241 195 219 218T177 264Q170 256 158 241T134 208T110 175T93 149L122 147L60 113Q53
126 51 147Q50 158 52 159T56 174Q57 176 58 181T61 193T64 204T68 212Q76 224 86 238T107 265T125 290T137 307Q128 317 116 330T90 357T65 384T43 409Q35 417 30 428T31 451Q36 459 41 459T54 462Q65 466 70 462T83 449Q106 429 130 403T171 358Q205 397 235
430T300 484Q302 486 311 486T322 487Q330 489 333 489T344 490Q353 491 357 491T360 487Z" />
<glyph unicode="y" d="M258 48Q255 36 252 28T246 12T239 -1T230 -16Q225 -20 220 -31T204 -47Q177 -58 144 -66T88 -71Q86 -70 84 -70T80 -69Q75 -59 82 -53T92 -38Q94 -33 96 -27T103 -16Q113 -11 132 -7T169 6T203 27T224 65Q230 96 234 133T240 208T244 283T247
352Q241 340 230 325T206 294T180 267T156 249Q143 242 135 236T119 222Q113 217 103 222T85 240Q76 256 68 279T52 329T36 384T20 439Q13 458 21 466Q28 473 37 473Q45 473 46 469T56 463Q63 462 66 458T75 451Q81 447 83 443T89 429Q94 410 97 394T104 361T112
329T123 293Q150 311 170 332T207 376T237 420T261 462Q265 468 271 479T282 495Q285 498 287 501T292 507Q296 503 297 498T299 487Q301 470 297 451T292 422Q292 377 292 330T289 236T279 142T258 48Z" />
<glyph unicode="z" horiz-adv-x="430" d="M388 351Q384 347 380 346T371 342Q365 337 360 336T347 332Q328 327 285 319T191 302Q170 272 150 243T116 190Q114 186 112 182T110 176Q110 172 116 174Q193 200 269 221T422 242Q428 242 430 239T434 234Q436 232
437 232T439 225Q358 202 277 186T114 149Q109 147 105 147T97 148Q92 150 89 155T83 161Q78 163 77 163T78 177Q80 200 95 230T132 293Q112 291 94 290T61 288Q51 287 46 290T36 295Q14 303 14 310Q18 315 20 316T27 320Q35 325 45 327T65 332Q91 335 115 338T166
343Q188 374 206 398T232 433Q212 431 192 426T152 415T112 405T74 400Q53 400 31 412Q31 424 34 432Q36 439 42 439T54 442Q64 445 74 445T99 446Q131 454 166 464T234 477Q258 479 278 474Q287 472 290 467T295 456Q297 450 296 442T286 429Q284 427 267 405T225
349Q263 352 299 353T371 353L388 351Z" />
<glyph unicode="{" horiz-adv-x="364" d="M236 687Q236 685 235 684T234 682Q234 679 233 678Q230 676 226 676T216 677T204 674T192 666Q169 641 160 601T151 516T156 426T169 345Q180 346 194 345T214 341Q233 331 236 313Q239 291 214 255Q199 196 190 145T171
39Q193 32 217 38T264 56T307 83T343 110Q343 104 341 99T336 87Q334 82 332 74T325 60Q308 40 283 23T236 -4Q230 -7 221 -8T202 -10T184 -9T169 -4Q161 1 159 3T154 11Q152 17 151 23T151 41Q156 95 167 152T192 277Q192 285 184 284T163 277T138 262T116 243Q108
235 103 234T85 234Q65 236 52 247Q47 252 48 256T49 269Q48 274 50 281T56 293Q66 310 84 325T127 341Q116 381 109 430T101 527T112 617T149 687Q161 699 177 702Q182 703 188 703T200 702Q211 700 219 698T236 687Z" />
<glyph unicode="|" horiz-adv-x="242" d="M138 599Q138 565 141 520T148 426T156 324T164 224T167 133T163 61V27H146L129 44Q125 78 119 126T108 231T98 347T92 463T92 567T104 650Q110 650 114 645T121 631T128 614T138 599Z" />
<glyph unicode="}" horiz-adv-x="335" d="M219 623Q219 590 212 559T200 496T195 430T212 359Q232 370 249 385T284 413Q289 417 295 417T307 420Q312 422 316 425T327 428Q319 404 305 385T273 350T238 324T206 305Q209 288 213 259T219 195T217 125T197 60Q197
29 180 9Q175 3 169 -1T156 -11Q150 -16 145 -20T132 -26Q123 -27 114 -22T94 -8Q87 -3 85 3T78 19Q75 26 71 32T65 47Q63 59 62 70T63 92Q65 97 68 101T75 110Q78 114 81 118T89 125Q89 92 154 60Q161 67 166 92T174 152T177 231T173 317Q171 337 168 355T162
391T159 428T162 469Q166 488 168 514T170 565T167 606T157 623Q144 623 133 616T111 600T87 582T58 569Q54 569 54 571T49 578Q44 583 44 587T46 597Q47 601 46 606T47 615Q71 649 100 658T151 666Q169 664 181 659Q186 657 191 652T200 644Q206 639 212 635T219
623Z" />
<glyph unicode="~" horiz-adv-x="587" d="M538 447Q536 445 536 437T534 427Q518 406 500 383T461 339T416 306T364 291Q353 290 330 299T280 330L225 378Q205 396 191 395Q178 394 164 386T136 368T111 346T90 325Q88 323 85 323T79 320Q74 318 71 316T63 313Q55
311 50 311T46 315Q71 391 148 468Q157 473 170 479T200 486Q214 487 228 483T250 468Q263 455 273 440T294 409T319 378T352 349Q358 346 364 345T377 344Q395 344 415 354T455 381T496 420T539 468Q541 470 542 470Q544 469 543 461Q542 456 541 454T538 447Z"
/>
<glyph unicode="&#xa0;" horiz-adv-x="280" />
<glyph unicode="&#xa1;" horiz-adv-x="302" d="M134 -67Q124 -67 119 -67T112 -64T109 -56T109 -41L120 476Q120 493 123 495T143 498H159Q175 498 177 496T181 477L193 -41Q193 -51 193 -56T190 -63T183 -66T168 -67H134ZM199 635Q199 615 185 601T151 586Q131
586 117 600T102 635Q102 655 116 669T151 683Q171 683 185 669T199 635Z" />
<glyph unicode="&#xa2;" horiz-adv-x="456" d="M363 492Q364 490 364 489T365 485Q367 481 364 477T358 475Q345 477 333 479T309 481Q285 406 257 325T199 170Q216 160 236 156T281 153Q313 160 342 176T396 209Q391 201 387 195T375 181Q370 176 365 168T355
154Q320 116 270 99Q259 95 251 95T232 92Q216 92 200 91T169 95Q167 90 166 87T162 79Q156 68 152 64T141 54Q136 50 133 46T122 24Q124 43 127 64T136 111Q125 119 114 129T94 153Q80 172 71 199T59 257T60 318T77 374Q104 432 141 478T231 542Q257 552 294 547Q299
557 303 566T311 584Q313 587 315 588T322 595Q327 601 333 608T342 615Q347 613 348 608Q349 601 346 588Q344 582 342 574T336 559L328 536Q331 534 334 531T342 524Q347 519 352 514T362 500Q363 498 363 496T363 492ZM128 340Q120 307 129 270T162 203Q182
269 208 338T260 468Q242 460 223 448T186 419T153 382T128 340Z" />
<glyph unicode="&#xa3;" horiz-adv-x="566" d="M413 353Q413 351 408 350T396 349T381 348T369 348Q342 347 313 347T254 346Q258 325 262 305T271 269T278 241T283 227Q302 207 322 186T360 147T392 120T412 110Q421 111 429 116T442 136T447 177T438 246L432
268Q440 270 448 264T464 253Q471 249 477 244T488 233Q496 222 502 217T511 198Q515 155 502 121T469 66Q461 58 454 58T438 56Q432 54 421 54T401 55Q391 57 385 56T373 61Q364 68 353 78T329 100T305 122T284 143Q282 134 281 125T279 105Q276 80 258 68T217
50Q209 48 201 42T184 37Q159 42 136 60T97 93Q90 99 90 104T87 113Q82 122 78 130T73 145Q74 156 76 163T81 176Q83 182 92 197T118 226T156 251T209 258Q199 287 190 345Q166 344 144 344T102 341Q94 341 86 349Q81 353 71 353T59 359Q57 364 54 371T52 383Q54
387 61 389T74 393Q96 398 123 400T182 405Q180 416 179 426T177 448Q176 456 181 467T186 487L190 528Q203 548 222 564T261 587Q309 602 353 591T432 543Q437 536 436 531T432 518Q430 513 432 505T431 492Q430 491 429 487T427 479T425 471T422 466L397 497Q387
511 370 523T335 544T301 555T276 556Q262 550 253 539T239 512T233 481T235 450Q235 445 243 408Q276 410 308 410T369 408Q374 406 379 400T390 386Q394 381 404 372T413 353ZM192 198Q184 199 175 195T156 184T141 170T135 157Q135 151 140 144T154 129T174
116T198 108Q206 106 212 109T221 118Q231 151 225 172T192 198Z" />
<glyph unicode="&#xa4;" horiz-adv-x="838" d="M687 300Q687 357 666 407T607 494T519 553T412 575Q355 575 305 554T218 495T159 407T137 300Q137 243 158 193T217 106T305 47T412 25Q469 25 519 46T606 105T665 193T687 300ZM802 599L674 485Q702 446 717 399T733
300Q733 243 715 194T665 103L801 -20L771 -55L633 69Q590 27 533 3T412 -21Q349 -21 295 1T198 61L67 -55L37 -20L165 94Q130 136 111 188T91 300Q91 354 107 402T154 492L36 599L70 632L186 528Q231 573 288 597T412 621Q481 621 540 595T645 520L769 632L802
599Z" />
<glyph unicode="&#xa5;" horiz-adv-x="545" d="M508 569Q511 565 521 563T531 558Q530 555 527 555T519 554Q508 550 499 550T473 548Q469 548 465 548T455 547Q447 528 440 509T423 470Q449 469 471 469T508 466Q511 462 521 460T531 455Q530 452 527 452T519
451Q508 447 499 447T473 445Q448 445 409 442Q391 404 370 369T326 306Q324 273 324 229T337 131Q339 126 339 123T339 115Q339 109 336 106T331 97Q327 89 326 79T322 63Q318 55 316 50T310 42Q277 93 271 151T276 262Q247 285 220 329T167 424Q121 423 84 425T23
436Q20 438 18 440T17 443Q18 446 23 446Q28 453 37 453T55 453Q67 454 75 455T92 457Q101 459 115 460T148 462Q140 479 132 495T115 527Q86 528 63 530T23 539Q20 541 18 543T17 546Q18 549 23 549Q28 556 37 556T55 556Q67 557 75 558T92 560H97Q77 599 59 621Q56
624 54 628T49 636Q44 646 47 654Q48 657 49 660T52 666L62 664Q82 661 104 633T147 565Q196 569 262 571T389 573Q409 608 427 638T460 689L478 715Q483 717 489 713T497 704Q499 699 499 696T499 688Q501 680 501 675T500 664Q493 648 485 625T465 572Q489 571
508 569ZM197 465Q228 467 262 468T332 470Q342 487 351 505T371 541Q324 537 271 533T167 527Q175 511 182 496T197 465ZM256 349Q267 361 281 383T311 433Q288 431 264 430T214 426Q227 398 237 378T256 349Z" />
<glyph unicode="&#xa7;" horiz-adv-x="346" d="M237 316Q202 361 175 380T119 400Q98 400 89 388T80 357T89 317T110 280Q143 238 171 219T218 199Q243 199 253 212T264 243T256 282T237 316ZM311 254Q311 212 291 190T233 169Q262 137 275 104T288 31Q288 -32
255 -68T166 -105Q114 -105 80 -77T45 0H101Q101 -37 120 -55T165 -73Q194 -73 214 -53T234 10Q234 45 215 82T165 147Q141 169 118 192T76 240T47 289T35 341Q35 390 58 413T128 429Q96 458 77 498T57 582Q57 648 88 678T174 709Q228 709 258 680T288 609H233Q233
641 219 662T170 683Q140 683 121 663T101 605Q101 563 126 527T190 454Q213 432 235 408T274 359T301 308T311 254Z" />
<glyph unicode="&#xa8;" horiz-adv-x="540" d="M193 659Q193 634 176 618T135 602Q111 602 95 618T78 659Q78 683 94 700T135 717Q159 717 176 700T193 659ZM460 659Q460 634 443 618T402 602Q378 602 362 618T345 659Q345 683 361 700T402 717Q426 717 443 700T460 659Z" />
<glyph unicode="&#xa9;" horiz-adv-x="855" d="M640 223Q634 176 616 139T570 76T506 35T428 21Q370 21 327 43T254 102T211 189T196 295Q196 350 210 400T254 487T326 547T428 569Q468 569 503 558T567 524T613 468T636 390H573Q561 447 525 479T428 512Q384
512 353 494T301 444T271 374T261 295Q261 254 271 216T301 146T352 97T428 78Q456 78 481 89T527 119T560 164T577 223H640ZM785 298Q785 375 759 440T685 552T572 626T430 653Q353 653 288 627T176 553T102 440T75 298Q75 221 101 156T175 44T288 -30T430 -57Q507
-57 572 -31T684 43T758 156T785 298ZM828 298Q828 212 798 139T715 14T589 -68T430 -98Q344 -98 271 -69T145 13T62 139T32 298Q32 384 62 457T145 582T271 664T430 694Q516 694 589 665T715 583T798 457T828 298Z" />
<glyph unicode="&#xaa;" horiz-adv-x="541" d="M347 723Q357 697 366 668T379 609T379 552T360 504Q354 496 345 498Q342 498 340 501T333 507Q330 509 326 511T319 518Q307 514 296 506T272 490T247 475T220 464Q206 460 199 465T184 477Q179 482 177 483T174
493Q168 528 182 572Q203 635 264 654Q278 660 294 652T321 634L334 623Q338 636 334 652T320 682T300 708T278 723Q236 723 204 705T141 654Q139 652 138 652T134 650Q131 649 129 650Q126 650 128 654Q133 680 147 700T180 736T222 762T264 778Q267 780 270 780T277
780Q283 780 288 777T299 770Q307 765 315 760T330 748Q335 742 339 735T347 723ZM305 572Q300 582 291 590T270 601T246 605T223 600Q218 589 214 577T207 552T204 527T210 504Q241 515 263 524T305 545Q310 550 311 553T311 558T307 564T305 572ZM416 425Q418
421 424 419T430 414Q429 410 428 410T423 409Q416 404 410 404T395 403Q375 403 336 397T255 385T173 380T114 393Q110 399 111 401Q112 403 114 404Q118 412 123 412T134 412Q142 412 147 414T157 416Q173 420 208 423T282 428T359 430T416 425Z" />
<glyph unicode="&#xab;" horiz-adv-x="940" d="M612 -4L592 -34L111 285V317L585 646L607 616L150 300L612 -4ZM829 0L811 -30L328 285V317L804 642L825 613L367 300L829 0Z" />
<glyph unicode="&#xac;" horiz-adv-x="940" d="M825 -144V94H82V125H858V-144H825Z" />
<glyph unicode="&#xad;" horiz-adv-x="410" d="M351 283H59V341H351V283Z" />
<glyph unicode="&#xae;" horiz-adv-x="940" d="M470 -76Q303 -76 185 41Q67 159 67 326Q67 493 185 611Q303 729 470 729Q636 729 754 611Q872 493 872 326Q872 159 754 41Q635 -76 470 -76ZM470 682Q323 682 218 577Q114 473 114 326Q114 179 218 75Q322 -28
470 -28Q618 -28 721 75Q825 179 825 326Q825 473 721 577Q617 682 470 682ZM665 74H578L523 197Q479 290 431 290H384V74H313V586H457Q547 586 595 549T643 447Q643 393 609 357T514 307V305Q556 296 598 210L665 74ZM384 525V350H461Q567 350 567 438Q567 486
538 505T448 525H384Z" />
<glyph unicode="&#xb0;" horiz-adv-x="446" d="M300 614Q300 646 278 669T223 692Q191 692 169 669T146 614Q146 582 168 559T223 536Q255 536 277 559T300 614ZM330 614Q330 592 322 573T299 539T265 516T223 507Q201 507 182 515T148 538T125 572T116 614Q116
636 124 655T147 689T181 712T223 721Q245 721 264 713T298 690T321 656T330 614Z" />
<glyph unicode="&#xb1;" horiz-adv-x="567" d="M295 591Q297 562 298 520T299 427Q349 432 400 434T503 434Q509 433 507 426Q506 423 503 420Q501 416 500 416T495 415Q490 410 484 406T472 398Q464 393 457 388T440 380Q408 373 371 368T296 358Q293 316 288
275T273 195Q273 192 271 185T267 176Q265 175 265 179T262 184Q261 184 261 187T256 197Q252 234 251 273T249 352Q195 347 150 344T81 341Q77 341 74 341T67 344Q66 345 62 350T54 362T49 374T52 383Q55 385 60 387T67 396Q106 404 152 411T249 423Q251 468 253
510T261 591Q262 596 269 603T281 614Q290 621 292 617Q295 615 295 607T295 591ZM483 104Q489 103 487 96Q486 93 483 90Q481 86 480 86T475 85Q470 80 464 74T452 63Q444 58 437 53T420 45Q378 36 332 30T242 20T163 13T102 11Q98 11 95 11T88 14Q87 15 83 21T75
34T70 48T73 58Q76 60 81 62T88 71Q163 82 262 93T483 104Z" />
<glyph unicode="&#xb2;" horiz-adv-x="410" d="M241 753Q241 732 234 711T215 670T190 629T164 587Q156 587 153 580T142 565Q175 576 202 584T252 598Q268 603 280 606T304 611T328 617T357 624Q356 618 353 615T347 608Q345 598 341 596T327 584Q286 569 242
559T141 536Q136 535 134 537T127 541Q122 543 118 544T115 552Q116 556 116 560T119 569Q122 578 125 584T131 593Q143 611 157 628T184 663T206 700T219 742Q207 741 192 738T161 730T132 722T109 716L110 723Q112 728 113 729T117 734Q120 738 123 742T130 749Q147
760 169 766T208 775Q215 776 218 773T226 768Q232 767 236 765T241 753Z" />
<glyph unicode="&#xb3;" horiz-adv-x="400" d="M246 773Q250 750 245 732T231 699T209 670T184 640Q197 644 218 651T260 659Q265 660 271 658T282 654Q287 653 290 653T297 650Q302 629 299 615Q296 596 281 569T236 501Q233 493 232 489T229 483Q226 483 226
486Q218 505 220 521T229 551T244 580T256 609Q258 614 251 614T239 611Q221 607 197 599T157 585Q155 590 155 592T158 599Q160 604 160 609T161 621Q172 646 189 671T226 722Q226 730 220 736T205 743Q188 743 163 734T114 717Q112 717 113 719T113 722Q113 727
115 729T119 736Q121 740 121 745T125 752Q137 766 155 773T186 783Q197 785 202 782T216 779Q226 779 235 779T246 773Z" />
<glyph unicode="&#xb4;" horiz-adv-x="324" d="M246 727L103 516H78L159 727H246Z" />
<glyph unicode="&#xb6;" horiz-adv-x="605" d="M524 -110H470V674H346V-110H292V332Q239 332 200 346T134 386T94 447T81 523Q81 564 94 599T133 659T199 699T290 714H524V-110Z" />
<glyph unicode="&#xb7;" horiz-adv-x="290" d="M202 332Q202 307 185 291T144 275Q120 275 104 291T87 332Q87 356 103 373T144 390Q168 390 185 373T202 332Z" />
<glyph unicode="&#xb8;" horiz-adv-x="317" d="M256 -121Q256 -160 226 -179T143 -198Q120 -198 97 -190T61 -172L73 -147Q87 -156 104 -161T146 -166Q172 -166 189 -155T206 -124Q206 -103 189 -95T143 -87Q129 -87 121 -89T105 -95L98 -91L138 12H170L140 -65Q151
-60 162 -57T190 -53Q219 -53 237 -73T256 -121Z" />
<glyph unicode="&#xb9;" horiz-adv-x="405" d="M212 781Q222 716 224 653T230 528Q230 523 227 521T221 516Q219 514 218 514T215 508Q213 503 209 496T202 491Q193 516 188 547T181 611T179 679T181 747Q182 753 186 755T192 764Q196 768 197 770T203 774Q206
775 207 778T212 781Z" />
<glyph unicode="&#xba;" horiz-adv-x="541" d="M277 778L260 761Q268 762 284 765T317 769Q329 767 337 761T347 738Q351 714 359 690T372 641T372 596T345 557Q322 522 295 499T237 471Q217 468 193 476T158 506Q156 498 151 491T145 488Q142 515 142 523Q143
558 148 593T165 662T195 725T243 778Q253 784 265 782Q267 782 270 782T277 778ZM243 710Q237 711 236 714T236 721T240 732T243 744Q222 725 211 698T194 643T189 587T192 540Q194 523 199 513T214 500Q225 497 243 506Q269 519 285 542T311 591Q315 605 317
624T316 661Q311 684 291 694T243 710ZM416 425Q418 421 424 419T430 414Q429 410 428 410T423 409Q416 404 410 404T395 403Q375 403 336 397T255 385T173 380T114 393Q110 399 111 401Q112 403 114 404Q118 412 123 412T134 412Q142 412 147 414T157 416Q173
420 208 423T282 428T359 430T416 425Z" />
<glyph unicode="&#xbb;" horiz-adv-x="940" d="M612 285L129 -30L111 0L573 300L115 613L136 642L612 317V285ZM829 285L348 -34L328 -4L790 300L333 616L355 646L829 317V285Z" />
<glyph unicode="&#xbc;" horiz-adv-x="737" d="M542 322Q553 284 557 243T561 157Q587 165 623 172T688 178Q684 174 684 173T682 167Q678 162 672 154T660 141Q654 133 646 129T623 130L561 108Q559 93 557 70T550 32Q547 24 545 8T540 -15Q536 -21 531 -25T519
-37Q511 -8 510 30T509 97Q473 86 440 78T375 67Q367 66 353 64T330 62Q324 66 329 72T334 85Q332 93 331 103T332 121Q334 133 345 153T374 197T412 246T453 291T491 326T520 344Q524 345 526 343T532 341Q537 340 539 333T542 322ZM511 147Q517 231 517 310Q485
268 447 219T380 121Q416 125 449 132T511 147ZM385 379Q367 350 346 318T302 255T257 194T213 141Q207 135 202 134T189 130Q184 129 179 127T166 116Q168 149 191 193T246 281T314 366T375 435Q378 436 380 436T388 439Q394 441 401 444T412 446Q416 446 420
440Q421 436 418 428Q416 424 414 420T407 412L385 379ZM254 587Q244 554 233 518T209 444T182 373T154 310Q150 303 145 301T134 293Q129 291 126 288T116 273Q109 306 119 354T147 454T188 554T228 637Q231 639 233 640T240 645Q245 649 251 654T262 659Q267
659 271 655Q273 651 272 643Q271 639 271 634T266 624L254 587Z" />
<glyph unicode="&#xbd;" horiz-adv-x="705" d="M385 379Q367 350 346 318T302 255T257 194T213 141Q207 135 202 134T189 130Q184 129 179 127T166 116Q168 149 191 193T246 281T314 366T375 435Q378 436 380 436T388 439Q394 441 401 444T412 446Q416 446 420
440Q421 436 418 428Q416 424 414 420T407 412L385 379ZM254 587Q244 554 233 518T209 444T182 373T154 310Q150 303 145 301T134 293Q129 291 126 288T116 273Q109 306 119 354T147 454T188 554T228 637Q231 639 233 640T240 645Q245 649 251 654T262 659Q267
659 271 655Q273 651 272 643Q271 639 271 634T266 624L254 587ZM579 285Q574 262 561 241T530 199T492 158T452 118Q444 120 439 113T423 99Q462 102 495 105T555 110Q574 111 588 112T616 113T644 113T679 114Q677 107 672 105T664 98Q662 93 660 91T654 86T646
82T635 75Q585 69 534 68T415 67Q409 67 408 70T400 75Q395 78 391 80T389 91Q391 95 393 99T398 108Q403 118 409 124T417 133Q435 150 455 166T493 199T527 235T552 278Q538 280 520 280T483 280T448 278T422 276L425 285Q427 290 429 290T436 295Q445 304 454
308Q475 317 501 318T547 319Q555 318 557 314T565 307Q573 305 577 301T579 285Z" />
<glyph unicode="&#xbe;" horiz-adv-x="746" d="M564 322Q575 284 579 243T583 157Q609 165 645 172T710 178Q706 174 706 173T704 167Q700 162 694 154T682 141Q676 133 668 129T645 130L583 108Q581 93 579 70T572 32Q569 24 567 8T562 -15Q558 -21 553 -25T541
-37Q533 -8 532 30T531 97Q495 86 462 78T397 67Q389 66 375 64T352 62Q346 66 351 72T356 85Q354 93 353 103T354 121Q356 133 367 153T396 197T434 246T475 291T513 326T542 344Q546 345 548 343T554 341Q559 340 561 333T564 322ZM533 147Q539 231 539 310Q507
268 469 219T402 121Q438 125 471 132T533 147ZM407 379Q389 350 368 318T324 255T279 194T235 141Q229 135 224 134T211 130Q206 129 201 127T188 116Q190 149 213 193T268 281T336 366T397 435Q400 436 402 436T410 439Q416 441 423 444T434 446Q438 446 442
440Q443 436 440 428Q438 424 436 420T429 412L407 379ZM195 638Q199 611 194 590T177 551T151 517T123 482Q138 487 162 495T211 505Q218 505 224 503T237 498Q242 497 246 497T255 494Q260 474 257 452Q253 430 235 399T183 319Q179 310 178 305T174 299Q172
297 171 302Q162 324 165 343T175 378T192 411T207 446Q210 452 201 452T186 449Q165 444 137 435T91 418Q88 423 89 425T92 434Q94 440 94 446T95 459Q108 489 128 518T171 578Q171 587 164 594T147 602Q127 602 98 592T41 572Q39 572 40 575T39 578Q39 584 41
587T46 594Q48 599 49 604T53 613Q67 629 88 638T124 649Q137 652 144 649T160 645Q171 645 182 644T195 638Z" />
<glyph unicode="&#xbf;" horiz-adv-x="540" d="M89 116Q89 176 117 223Q133 251 181 302Q226 348 246 384Q273 430 273 485Q273 496 274 498T286 500H327Q337 500 338 499T340 486Q340 420 312 371Q303 355 288 336T250 293Q227 269 212 249T186 211Q162 169 162
116Q162 56 200 23T298 -11Q324 -11 357 -6T433 14Q449 18 449 5L450 -36Q450 -50 437 -53Q397 -63 362 -68T294 -74Q205 -74 151 -29Q89 21 89 116ZM353 636Q353 616 339 602T305 587Q285 587 271 601T256 636Q256 656 270 670T305 684Q325 684 339 670T353 636Z"
/>
<glyph unicode="&#xd0;" horiz-adv-x="794" d="M661 317Q661 396 645 452T595 545T508 599T380 616H247V375H366V327H247V18H380Q455 18 508 35T595 88T645 181T661 317ZM727 317Q727 137 644 49T408 -40H181V327H67V375H181V674H408Q561 674 644 586T727 317Z" />
<glyph unicode="&#xd7;" horiz-adv-x="408" d="M93 522Q114 502 144 473T208 406Q241 444 277 480T352 551Q358 555 360 548Q361 545 361 541Q363 536 362 536T359 532Q359 525 358 518T354 504Q352 496 350 487T343 469Q324 443 302 413T254 353Q308 288 349
220Q351 218 354 211T358 202Q357 200 354 202T348 204Q348 203 346 205T335 209Q307 234 279 261T223 317Q188 276 157 244T109 194Q106 191 104 189T97 186Q95 186 89 187T76 190T64 195T59 204Q60 208 62 212T61 224Q84 256 112 293T175 369Q145 403 118 435T68
499Q66 503 66 513T67 529Q69 541 73 539Q77 540 82 534T93 522Z" />
<glyph unicode="&#xd8;" horiz-adv-x="780" d="M530 584Q471 631 390 631Q333 631 287 608T207 544T155 444T136 317Q136 236 160 172T229 65L530 584ZM644 317Q644 393 622 454T560 558L260 41Q288 23 320 13T390 3Q445 3 492 26T572 91T625 190T644 317ZM710
317Q710 227 685 158T617 41T515 -31T390 -55Q345 -55 305 -44T229 -13L151 -146L119 -125L197 9Q137 57 104 133T70 317Q70 407 94 476T162 593T263 664T390 689Q488 689 562 639L625 747L659 728L593 616Q647 568 678 494T710 317Z" />
<glyph unicode="&#xde;" horiz-adv-x="530" d="M384 317Q384 369 362 407T306 469T231 505T149 517V117Q188 117 229 128T305 164T361 226T383 317H384ZM447 317Q447 253 421 206T353 127T258 80T150 64V-40H83V674H149V570Q203 570 256 555T352 508T421 429T447 317Z" />
<glyph unicode="&#xdf;" horiz-adv-x="683" d="M510 488Q510 554 474 585T359 616H133V361H359Q399 361 427 371T474 399T501 440T510 488ZM616 138Q616 73 597 29T546 -42T472 -82T384 -94Q340 -94 303 -85T239 -56T196 -5T176 72H242Q244 40 256 20T287 -13T331
-30T384 -35Q418 -35 448 -28T501 -1T537 52T550 137Q550 173 537 203T498 255T438 290T359 303H133V-40H67V674H359Q405 674 444 666T513 637T559 582T576 496Q576 438 547 396T461 337Q494 332 522 314T572 269T604 208T616 138Z" />
<glyph unicode="&#xf0;" horiz-adv-x="592" d="M471 218Q471 267 459 307T423 377T368 422T296 438Q257 438 225 422T169 377T134 308T121 218Q121 169 133 129T169 59T224 14T296 -2Q335 -2 367 14T423 59T458 128T471 218ZM532 220Q532 159 516 109T469 22T394
-35T296 -55Q242 -55 198 -35T124 21T77 108T60 218Q60 278 76 328T123 414T198 471T296 491Q333 491 365 481T423 454Q408 489 388 519T343 577L287 522L262 547L318 602Q286 632 249 659L267 690Q315 666 354 637L409 691L434 666L382 614Q462 537 497 441T532
220Z" />
<glyph unicode="&#xf7;" horiz-adv-x="524" d="M473 386Q479 385 477 378Q476 375 473 372Q471 368 470 368T465 367Q460 362 454 356T442 345Q434 340 427 335T410 327Q368 318 322 312T232 302T153 295T92 293Q88 293 85 293T78 296Q77 297 73 303T65 316T60
330T63 340Q66 342 71 344T78 353Q153 364 252 375T473 386ZM276 543Q276 537 281 530T289 515T291 498T276 475Q273 470 269 469T262 463Q259 454 259 441Q253 447 242 453T221 466T203 478T197 492Q199 498 198 503T199 514Q208 532 220 543T242 560Q249 560
253 558T262 554Q267 552 271 551T276 543ZM307 220Q307 214 312 207T320 192T322 175T307 152Q304 147 300 146T293 140Q290 131 290 118Q284 124 273 130T252 143T234 155T228 169Q230 175 229 180T230 191Q239 209 251 220T273 237Q280 237 284 235T293 231Q298
229 302 228T307 220Z" />
<glyph unicode="&#xf8;" horiz-adv-x="612" d="M419 563Q417 554 414 544T406 522Q420 517 429 512T439 496Q439 491 443 488T451 482T460 476T464 466Q501 410 498 355T439 243Q420 232 405 219T374 194T337 171T289 155Q287 154 281 153T266 151Q255 125 246
103T228 67Q223 58 218 55T204 46Q199 43 194 39T183 21Q178 42 183 76T199 155Q193 157 191 158Q178 163 169 166T149 174Q139 177 130 179T115 186T108 196T113 214Q109 234 115 266T134 335T169 409T216 476T274 524T339 541Q341 539 347 537Q359 564 370 586T389
624Q392 627 395 628T403 634Q409 639 416 645T429 651Q435 651 440 646Q444 642 442 631Q441 626 440 620T435 609L419 563ZM427 383Q427 401 413 415T379 441Q359 387 337 328T292 213Q320 228 347 249T395 293T426 339T427 383ZM303 473Q274 451 249 421T208
357T185 290T188 229Q188 222 194 214T213 200Q233 265 260 335T316 469Q308 471 303 473Z" />
<glyph unicode="&#xfe;" horiz-adv-x="599" d="M449 218Q449 267 437 307T401 377T346 422T274 438Q200 438 150 382V55Q195 -2 273 -2Q313 -2 345 14T400 59T435 128T448 218H449ZM510 218Q510 158 494 108T447 22T372 -35T274 -55Q239 -55 207 -46T151 -14V-140H89V674H150V452Q172
471 205 481T273 491Q327 491 371 471T446 415T493 328T510 218Z" />
<glyph unicode="&#x2013;" horiz-adv-x="410" d="M351 283H59V341H351V283Z" />
<glyph unicode="&#x2014;" horiz-adv-x="864" d="M862 286H2V338H862V286Z" />
<glyph unicode="&#x2018;" horiz-adv-x="283" d="M196 614Q201 612 212 609T227 597Q230 592 231 584T231 571Q230 567 231 563T234 555T235 547T231 540Q223 534 214 533T197 533T184 538T179 544Q177 549 173 554T167 567Q165 580 163 599T159 639T157 679T158
712Q160 721 163 727T171 740Q174 745 177 751T183 764Q185 769 191 774T202 779Q206 780 211 781T218 781L211 765Q206 754 203 735T199 693T197 650T196 614Z" />
<glyph unicode="&#x2019;" horiz-adv-x="283" d="M86 694Q81 696 70 699T55 711Q52 716 51 724T51 737Q52 741 51 745T48 753T47 761T51 768Q59 774 68 775T85 775T98 770T103 764Q105 759 109 754T115 741Q116 728 118 709T123 669T125 629T124 596Q122 587 119
581T111 568Q108 563 105 557T99 544Q97 539 91 534T80 529Q76 528 71 527T64 527L71 543Q76 554 79 573T83 614T85 657T86 694Z" />
<glyph unicode="&#x201c;" horiz-adv-x="283" d="M93 614Q98 612 109 609T124 597Q127 592 128 584T128 571Q127 567 128 563T131 555T132 547T128 540Q120 534 111 533T94 533T81 538T76 544Q74 549 70 554T64 567Q62 580 60 599T56 639T54 679T55 712Q57 721
60 727T68 740Q71 745 74 751T80 764Q82 769 88 774T99 779Q103 780 108 781T115 781L108 765Q103 754 100 735T96 693T94 650T93 614ZM200 624Q205 622 216 619T231 607Q234 602 235 594T235 581Q234 577 235 573T238 565T239 557T235 550Q227 544 218 543T201
543T188 548T183 554Q181 559 177 564T171 577Q169 590 167 607T163 641T160 676T161 706Q163 715 166 721T174 734Q177 739 180 745T186 758Q188 763 194 768T205 773Q209 774 214 775T221 775L214 759Q208 745 205 728T200 691T198 655T200 624Z" />
<glyph unicode="&#x201d;" horiz-adv-x="283" d="M88 680Q83 682 72 685T57 697Q54 702 53 710T53 723Q54 727 53 731T50 739T49 747T53 754Q61 760 70 761T87 761T100 756T105 750Q107 745 111 740T117 727Q125 700 130 667T130 608Q128 599 125 593T117 580Q114
575 111 569T105 556Q103 551 97 546T86 541Q82 540 77 539T70 539L77 555Q87 578 88 614T88 680ZM193 694Q188 696 177 699T162 711Q159 716 158 724T158 737Q159 741 158 745T155 753T154 761T158 768Q166 774 175 775T192 775T205 770T210 764Q212 759 216 754T222
741Q223 728 225 709T230 669T232 629T231 596Q229 587 226 581T218 568Q215 563 212 557T206 544Q204 539 198 534T187 529Q183 528 178 527T171 527L178 543Q183 554 186 573T190 614T192 657T193 694Z" />
<glyph unicode="&#x2022;" horiz-adv-x="940" d="M582 305Q582 282 573 262T549 227T514 204T471 195Q448 195 428 203T393 227T369 262T360 305Q360 327 369 347T393 383T428 407T471 416Q493 416 513 407T549 383T573 348T582 305Z" />
<glyph unicode="&#x2039;" horiz-adv-x="940" d="M823 -133L116 300L823 732V696L185 300L823 -95V-133Z" />
<glyph unicode="&#x203a;" horiz-adv-x="940" d="M823 300L116 -133V-95L754 300L116 696V732L823 300Z" />
</font>
</defs>
</svg>
