<?xml version="1.0" standalone="no"?>
<!DOCTYPE svg PUBLIC "-//W3C//DTD SVG 1.1//EN" "http://www.w3.org/Graphics/SVG/1.1/DTD/svg11.dtd">
<svg xmlns="http://www.w3.org/2000/svg">
<defs >
<font id="ScheherazadeNew" horiz-adv-x="1199" ><font-face
    font-family="Scheherazade New"
    units-per-em="2048"
    panose-1="1 0 6 0 2 0 0 2 0 3"
    ascent="2750"
    descent="-1427"
    alphabetic="0" />
<glyph unicode=" " glyph-name="space" horiz-adv-x="550" />
<glyph unicode="!" glyph-name="exclam" horiz-adv-x="704" d="M441 1109Q441 1024 430 938T398 745Q388 692 382 660T371 599T365 531T362 427T361 256Q361 242 332 242Q305 242 305 256Q305 362 304 426T301 530T295 598T285 659T268 745Q249 852 237 938T225
1109Q225 1199 255 1245T331 1292Q379 1292 410 1246T441 1109ZM445 50Q445 4 412 -28T331 -60Q286 -60 254 -28T221 50Q221 97 253 129T331 162Q379 162 412 130T445 50Z" />
<glyph unicode="&quot;" glyph-name="quotedbl" horiz-adv-x="755" d="M634 1158Q634 1053 609 941T565 727H521Q511 781 495 856T464 1008T450 1145Q450 1194 471 1223T544 1253Q586 1253 610 1226T634 1158ZM302 1158Q302 1117 293 1057T271 933T246 814T228
727H192Q173 820 147 933T120 1145Q120 1192 140 1222T211 1253Q254 1253 278 1226T302 1158Z" />
<glyph unicode="#" glyph-name="numbersign" horiz-adv-x="926" d="M894 386H647L563 -28H490L572 386H265L180 -28H103L187 386H32V462H202L265 772H32V842H283L366 1253H438L359 842H664L750 1253H826L739 842H894V772H727L664 462H894V386ZM652 772H342L277
462H587L652 772Z" />
<glyph unicode="$" glyph-name="dollar" horiz-adv-x="926" d="M833 305Q833 206 783 134T651 20T476 -28V-140H418V-28Q337 -23 256 -5T98 47V302H138Q147 175 220 111T418 35V560Q340 610 267 664T146 789T98 954Q98 1044 143 1107T262 1206T418 1248V1332H476V1248Q557
1244 627 1220T774 1168V898H739Q729 1021 667 1097T476 1187V727Q530 688 591 646T708 553T798 441T833 305ZM418 767V1187Q342 1176 291 1136T239 1010Q239 928 297 867T418 767ZM690 260Q690 318 657 365T574 450T476 521V35Q568 40 629 105T690 260Z" />
<glyph unicode="%" glyph-name="percent" horiz-adv-x="1602" d="M1463 460Q1463 385 1439 301T1368 141T1253 19T1098 -28Q973 -28 918 40T863 228Q863 305 896 382T985 522T1114 625T1266 664Q1351 664 1407 604T1463 460ZM1207 1259L490 -28H401L1049 1138Q994
1114 937 1101T821 1088Q796 1088 773 1091T727 1104Q727 1078 734 1054T742 1003Q742 930 713 849T633 697T512 580T361 535Q240 535 190 607T140 791Q140 866 172 943T261 1086T390 1191T541 1231Q590 1231 622 1216T682 1181T747 1146T838 1130Q921 1130 993
1160T1118 1259H1207ZM1416 450Q1416 507 1383 556T1285 605Q1222 605 1170 557T1081 436T1023 288T1003 160Q1003 102 1030 66T1118 30Q1185 30 1240 73T1334 183T1395 321T1416 450ZM694 1030Q694 1049 687 1073T678 1116Q660 1121 634 1136T584 1164T548 1177Q518
1177 488 1155T432 1104T390 1052Q339 984 311 904T283 737Q283 679 308 640T398 600Q467 600 522 644T615 756T673 897T694 1030Z" />
<glyph unicode="&amp;" glyph-name="ampersand" horiz-adv-x="1442" d="M1384 221Q1362 115 1291 43T1106 -30Q1010 -30 930 25T786 148Q698 70 608 20T394 -30Q313 -30 239 1T116 93T68 244Q68 348 127 431T273 578T445 685Q416 747 392 817T368 956Q368 1094
458 1173T683 1253Q783 1253 856 1197T929 1034Q929 950 882 889T765 785T631 708Q685 610 744 517T872 335Q907 377 943 429T1005 540T1030 654Q1030 691 1009 723T943 755V788H1325V755Q1304 754 1270 747T1212 720Q1192 704 1170 673T1129 608T1096 551Q1018
409 914 280Q947 243 990 204T1082 137T1184 110Q1319 110 1351 244L1384 221ZM823 1037Q823 1098 786 1143T683 1189Q616 1189 570 1142T523 1027Q523 964 548 894T600 767Q685 805 754 870T823 1037ZM739 199Q589 404 472 624Q385 576 321 503T256 324Q256 225
318 154T484 82Q556 82 621 119T739 199Z" />
<glyph unicode="&apos;" glyph-name="quotesingle" horiz-adv-x="335" d="M253 1145Q253 1103 234 995L185 727H145L96 995Q87 1049 82 1087T76 1145Q76 1253 164 1253Q253 1253 253 1145Z" />
<glyph unicode="(" glyph-name="parenleft" horiz-adv-x="832" d="M772 -494L753 -514Q714 -496 655 -457T531 -362T407 -246Q329 -163 264 -65T159 156T120 436Q120 594 160 715T265 934T407 1115Q464 1177 529 1231T654 1326T753 1383L772 1364Q674 1269 599
1177T468 981Q413 878 366 744T318 436Q318 259 366 125T468 -114Q521 -217 597 -306T772 -494Z" />
<glyph unicode=")" glyph-name="parenright" horiz-adv-x="832" d="M60 -494Q158 -396 234 -307T364 -114Q418 -10 466 124T514 436Q514 609 467 743T364 981Q309 1085 234 1177T60 1364L79 1383Q119 1366 178 1326T302 1232T425 1115Q502 1032 567 935T672 716T712
436Q712 279 673 156T569 -65T425 -246Q367 -307 302 -362T178 -456T79 -514L60 -494Z" />
<glyph unicode="*" glyph-name="asterisk" horiz-adv-x="826" d="M665 576Q680 576 692 567T704 539Q704 523 694 503T661 460Q639 438 598 410T519 362T472 341Q468 341 468 344Q468 354 489 391T538 470T587 533Q610 556 629 566T665 576ZM464 584Q464 551 453
499T430 405T413 364Q407 364 394 405T370 498T359 584Q359 637 376 660T413 683Q433 683 448 660T464 584ZM811 286Q811 265 787 250T713 234Q679 234 627 244T533 266T492 286Q492 292 533 304T626 327T713 337Q763 337 787 322T811 286ZM356 344Q356 341 354
341Q344 341 307 361T228 410T163 461Q140 484 130 503T120 539Q120 554 131 565T160 576Q175 576 195 566T239 533Q261 511 288 470T336 391T356 344ZM704 32Q704 -6 665 -6Q649 -6 630 4T587 37Q566 60 538 101T489 179T468 226Q468 229 472 229Q482 229 519
209T597 161T661 110Q704 67 704 32ZM335 286Q335 279 294 267T200 244T113 234Q61 234 38 249T14 286Q14 306 37 321T113 337Q147 337 199 327T293 305T335 286ZM464 -14Q464 -66 449 -89T413 -113Q393 -113 376 -90T359 -14Q359 19 370 71T394 165T413 206Q418
206 430 165T453 72T464 -14ZM354 229Q356 229 356 226Q356 218 336 181T289 102T239 37Q216 14 196 4T160 -6Q144 -6 132 4T120 31Q120 66 163 109Q186 132 227 160T306 208T354 229Z" />
<glyph unicode="+" glyph-name="plus" horiz-adv-x="1098" d="M1046 467H582V5H509V467H44V544H509V1008H582V544H1046V467Z" />
<glyph unicode="," glyph-name="comma" horiz-adv-x="464" d="M368 -10Q368 -218 101 -310V-268Q177 -248 236 -182T295 -37Q295 0 275 0Q261 0 243 -14T197 -28Q154 -28 128 -2T101 73Q101 120 135 150T216 180Q290 180 329 121T368 -10Z" />
<glyph unicode="-" glyph-name="hyphen" horiz-adv-x="617" d="M541 347H73V483H541V347Z" />
<glyph unicode="." glyph-name="period" horiz-adv-x="680" d="M421 79Q421 34 390 3T314 -28Q272 -28 242 3T211 79Q211 122 241 152T314 182Q359 182 390 152T421 79Z" />
<glyph unicode="/" glyph-name="slash" horiz-adv-x="652" d="M575 1494L152 -312H79L499 1494H575Z" />
<glyph unicode="0" glyph-name="zero" horiz-adv-x="926" d="M860 624Q860 551 848 464T807 292T733 135T618 21T457 -22Q370 -22 305 20T194 132T120 286T79 454T66 607Q66 678 79 764T121 936T196 1094T310 1209T467 1253Q556 1253 622 1211T733 1100T807 947T847
779T860 624ZM683 654Q683 696 680 763T666 904T631 1045T567 1152T464 1194Q401 1194 360 1145T296 1020T261 858T247 699T244 584Q244 542 247 475T261 332T296 189T360 80T462 37Q527 37 569 85T634 210T668 372T680 533T683 654Z" />
<glyph unicode="1" glyph-name="one" horiz-adv-x="926" d="M701 0H239V35Q318 35 351 50T391 104T398 216V907Q398 991 388 1048T324 1106Q301 1106 277 1097T232 1079L216 1106L516 1253H548V216Q548 146 554 107T593 51T701 35V0Z" />
<glyph unicode="2" glyph-name="two" horiz-adv-x="926" d="M851 236L762 0H42V35Q127 113 226 210T415 413T562 630T619 846Q619 917 590 978T507 1076T378 1114Q274 1114 208 1058T108 907H76Q95 1055 181 1154T425 1253Q518 1253 597 1213T725 1099T774 929Q774
839 734 749T633 578T512 433Q445 360 376 283T234 138H553Q622 138 668 143T749 169T816 236H851Z" />
<glyph unicode="3" glyph-name="three" horiz-adv-x="926" d="M774 406Q774 264 708 169T531 26T288 -22Q255 -22 205 -17T116 9T76 76Q76 104 99 122T148 140Q187 140 226 119T310 77T410 56Q475 56 526 89T608 177T638 295Q638 403 591 471T463 573T283 607V636Q357
645 420 683T521 783T560 922Q560 1010 506 1069T359 1128Q282 1128 224 1086T125 978L94 992Q129 1066 171 1125T275 1218T425 1253Q499 1253 564 1225T669 1140T710 1003Q710 920 658 850T546 727Q774 644 774 406Z" />
<glyph unicode="4" glyph-name="four" horiz-adv-x="926" d="M860 324H698V0H548V324H30V438L600 1253H698V452H860V324ZM548 452V1062L118 452H548Z" />
<glyph unicode="5" glyph-name="five" horiz-adv-x="926" d="M804 1226L734 1072H366L283 910Q376 900 465 864T626 767T741 625T784 443Q784 312 717 207T539 40T300 -22Q263 -22 214 -13T127 22T89 98Q89 164 160 164Q197 164 232 141T307 95T401 71Q476 71
536 109T631 209T666 347Q666 454 617 529T489 652T315 723T131 750L366 1226H804Z" />
<glyph unicode="6" glyph-name="six" horiz-adv-x="926" d="M830 1219Q682 1210 571 1133T387 938T283 683Q342 724 408 749T546 774Q646 774 715 722T820 587T856 413Q856 303 808 203T671 41T464 -22Q367 -22 295 24T176 145T105 308T82 481Q82 622 134 759T282
1007T504 1186T779 1253H830V1219ZM694 314Q694 370 684 435T647 560T575 658T457 696Q413 696 359 669T268 619Q261 570 256 521T251 422Q251 370 264 303T305 174T380 71T492 30Q565 30 609 76T674 188T694 314Z" />
<glyph unicode="7" glyph-name="seven" horiz-adv-x="926" d="M840 1194L432 -28H335L701 1079H364Q291 1079 244 1067T163 1023T94 929L68 936L187 1226H840V1194Z" />
<glyph unicode="8" glyph-name="eight" horiz-adv-x="926" d="M821 290Q821 187 772 118T641 13T464 -22Q377 -22 296 14T162 118T110 280Q110 353 149 415T245 528T356 617Q287 675 235 725T154 832T125 961Q125 1054 173 1119T299 1219T464 1253Q542 1253 618
1224T744 1136T794 988Q794 915 754 859T654 758T541 680Q613 625 677 567T781 441T821 290ZM664 997Q664 1199 464 1199Q383 1199 321 1154T258 1020Q258 958 294 906T385 806T499 715Q574 785 619 845T664 997ZM690 216Q690 316 608 400T398 584Q330 526 291
451T251 283Q251 180 307 105T476 30Q562 30 626 77T690 216Z" />
<glyph unicode="9" glyph-name="nine" horiz-adv-x="926" d="M846 748Q846 607 794 470T647 220T426 40T150 -28H98V7Q246 11 356 88T538 287T644 541Q587 503 522 476T386 448Q286 448 216 500T110 636T73 814Q73 922 119 1023T251 1188T457 1253Q554 1253 626
1207T748 1085T821 921T846 748ZM676 794Q676 847 664 915T624 1046T550 1152T434 1194Q360 1194 317 1147T255 1034T236 907Q236 855 246 791T280 666T349 567T460 528Q486 528 526 538T605 567T659 607Q666 653 671 699T676 794Z" />
<glyph unicode=":" glyph-name="colon" horiz-adv-x="929" d="M564 706Q564 653 528 616T439 579Q386 579 349 616T312 706Q312 761 349 797T439 834Q491 834 527 798T564 706ZM564 20Q564 -31 528 -67T439 -104Q386 -104 349 -68T312 20Q312 73 349 110T439 148Q491
148 527 111T564 20Z" />
<glyph unicode=";" glyph-name="semicolon" horiz-adv-x="624" d="M463 915Q463 864 428 829T344 793Q293 793 258 828T222 915Q222 968 257 1002T344 1037Q393 1037 428 1003T463 915ZM510 -12Q510 -263 187 -374V-323Q248 -308 301 -266T388 -166T422 -45Q422
0 397 0Q380 0 358 -16T303 -33Q251 -33 219 -2T187 88Q187 145 228 181T326 218Q386 218 427 185T489 98T510 -12Z" />
<glyph unicode="&lt;" glyph-name="less" horiz-adv-x="1782" d="M1426 68L356 479V590L1426 1001V889L469 535L1426 180V68Z" />
<glyph unicode="=" glyph-name="equal" horiz-adv-x="1122" d="M1062 602H60V702H1062V602ZM1062 307H60V408H1062V307Z" />
<glyph unicode="&gt;" glyph-name="greater" horiz-adv-x="1782" d="M1426 479L356 68V180L1313 535L356 889V1001L1426 590V479Z" />
<glyph unicode="?" glyph-name="question" horiz-adv-x="866" d="M766 968Q766 886 733 823T651 703T552 587T467 456T426 288H389Q393 396 425 495T512 686Q548 747 572 815T596 956Q596 1020 574 1077T505 1169T387 1205Q353 1205 313 1193T244 1155T215 1086Q215
1062 229 1033T258 976T272 929Q272 899 252 876T201 853Q147 853 124 902T100 995Q100 1085 148 1142T272 1226T426 1253Q515 1253 592 1223T718 1130T766 968ZM532 77Q532 33 500 2T421 -30Q378 -30 346 1T314 77Q314 123 346 154T421 186Q468 186 500 155T532
77Z" />
<glyph unicode="@" glyph-name="at" horiz-adv-x="1708" d="M1609 155H1661Q1626 27 1548 -76T1362 -251T1130 -362T877 -401Q705 -401 561 -340T311 -170T147 86T89 403Q89 586 152 746T329 1027T600 1216T943 1285Q1132 1285 1278 1211T1507 998T1590 666Q1590
557 1559 445T1465 239T1310 88T1091 30Q954 30 954 160Q954 192 958 223T968 286Q930 240 872 180T745 75T612 30Q556 30 520 61T467 140T450 236Q450 307 476 392T549 561T658 716T794 829T946 872Q1077 872 1104 748L1130 846L1273 868Q1269 853 1254 802T1217
678T1172 524T1129 368T1097 238T1084 160Q1084 132 1104 113T1153 94Q1230 94 1291 143T1398 250Q1470 342 1502 454T1534 683Q1534 854 1457 979T1247 1172T949 1241Q770 1241 627 1170T382 978T226 701T172 378Q172 166 260 3T509 -252T882 -344Q1137 -344 1323
-209T1609 155ZM1069 683Q1069 741 1047 785T956 830Q902 830 850 788T751 678T669 533T613 384T593 265Q593 221 619 180T696 138Q757 138 812 177T914 280T996 417T1050 561T1069 683Z" />
<glyph unicode="A" glyph-name="A" horiz-adv-x="1332" d="M1318 0H833V35Q874 35 915 49T956 113Q956 137 943 179T910 269T873 355T848 410H373Q366 395 348 356T309 269T273 178T258 113Q258 81 284 65T344 42T401 35V0H14V35Q72 38 107 67T167 142T216 244L649
1253H680L1106 236Q1130 181 1153 137T1213 66T1318 35V0ZM823 476L614 976L401 476H823Z" />
<glyph unicode="B" glyph-name="B" horiz-adv-x="1205" d="M1133 335Q1133 226 1084 160T956 59T786 12T610 0H32V35Q109 35 146 49T194 103T206 216V1010Q206 1087 196 1126T148 1180T32 1194V1226H560Q644 1226 734 1214T903 1169T1030 1070T1079 898Q1079 795
1014 726T856 626Q978 605 1055 536T1133 335ZM887 907Q887 1003 836 1059T706 1140T546 1165Q504 1165 463 1161T380 1147V676Q424 667 467 666T553 664Q638 664 714 683T838 756T887 907ZM924 322Q924 428 866 488T719 574T541 600Q503 600 462 599T380 593V89Q433
77 484 71T590 64Q671 64 748 89T874 171T924 322Z" />
<glyph unicode="C" glyph-name="C" horiz-adv-x="1236" d="M1142 307L1170 288Q1088 139 963 55T664 -30Q482 -30 348 52T140 276T66 595Q66 777 144 926T363 1164T690 1253Q785 1253 855 1229T1008 1170Q1045 1170 1061 1199T1084 1253H1116L1142 838H1116Q1070
991 973 1090T706 1189Q580 1189 497 1136T364 996T293 803T272 593Q272 447 319 324T468 126T732 52Q834 52 905 83T1031 171T1142 307Z" />
<glyph unicode="D" glyph-name="D" horiz-adv-x="1337" d="M1266 619Q1266 412 1177 275T932 69T580 0H32V35Q109 35 146 49T194 102T206 216V1010Q206 1088 196 1127T148 1180T32 1194V1226H530Q685 1226 818 1197T1052 1099T1209 913T1266 619ZM1062 612Q1062
763 1006 887T839 1084T568 1158Q520 1158 474 1151T380 1130V89Q427 77 476 69T572 61Q732 61 841 136T1006 337T1062 612Z" />
<glyph unicode="E" glyph-name="E" horiz-adv-x="1130" d="M1091 307L983 0H40V35Q116 35 153 49T202 102T214 216V1015Q214 1092 203 1130T156 1181T40 1194V1226H983L997 959H964Q943 1038 923 1081T860 1142T725 1160H386V676H656Q731 676 769 690T824 743T851
853H884V425H851Q841 497 825 536T771 591T656 607H386V204Q386 133 400 100T490 66H696Q803 66 862 90T962 167T1052 307H1091Z" />
<glyph unicode="F" glyph-name="F" horiz-adv-x="1030" d="M956 959H924Q901 1039 869 1082T786 1143T652 1160H378V678H602Q692 678 722 721T762 846H797V430H762Q762 517 728 559T602 602H378V216Q378 141 389 102T439 49T556 35V0H30V35Q109 35 145 49T193
103T204 216V1010Q204 1084 193 1124T145 1179T30 1194V1226H943L956 959Z" />
<glyph unicode="G" glyph-name="G" horiz-adv-x="1337" d="M1313 668V636Q1247 636 1218 615T1182 554T1175 457V82Q1077 24 967 -3T742 -30Q554 -30 400 44T155 257T64 595Q64 732 113 851T251 1061T458 1202T715 1253Q808 1253 881 1234T1001 1196T1060 1177Q1085
1177 1095 1207T1106 1253H1138L1170 868H1138Q1090 1015 993 1103T732 1192Q612 1192 526 1146T383 1020T299 841T272 634Q272 527 300 421T387 228T534 88T745 35Q811 35 876 51T997 101V457Q997 525 987 563T943 617T838 636V668H1313Z" />
<glyph unicode="H" glyph-name="H" horiz-adv-x="1337" d="M1300 0H774V35Q852 35 890 49T940 103T952 216V593H378V216Q378 141 390 102T441 49T558 35V0H32V35Q111 35 148 49T195 102T206 216V1010Q206 1085 195 1125T147 1179T32 1194V1226H558V1194Q482 1194
444 1180T392 1125T378 1010V659H952V1010Q952 1085 940 1125T890 1179T774 1194V1226H1300V1194Q1228 1194 1191 1182T1141 1133T1127 1025V204Q1127 130 1140 94T1191 47T1300 35V0Z" />
<glyph unicode="I" glyph-name="I" horiz-adv-x="617" d="M572 0H47V35Q126 35 162 49T210 103T221 216V1010Q221 1085 210 1125T163 1179T47 1194V1226H572V1194Q495 1194 458 1180T408 1125T396 1010V216Q396 142 407 103T455 50T572 35V0Z" />
<glyph unicode="J" glyph-name="J" horiz-adv-x="722" d="M710 1226V1194Q632 1194 595 1180T546 1125T535 1010V410Q535 334 520 256T470 114T374 10T221 -30Q180 -30 138 -16T68 30T40 110Q40 204 131 204Q169 204 191 179T227 121T256 62T295 37Q327 37 341
61T358 118T361 172V1010Q361 1084 350 1124T302 1179T185 1194V1226H710Z" />
<glyph unicode="K" glyph-name="K" horiz-adv-x="1337" d="M1354 0H769V35Q801 35 835 46T870 96Q870 116 843 147T802 192L432 560L378 506V216Q378 141 389 102T438 49T553 35V0H32V35Q111 35 147 49T194 102T204 216V1010Q204 1084 194 1124T148 1179T32 1194V1226H553V1194Q478
1194 441 1180T391 1125T378 1010V624Q614 845 733 966T853 1142Q853 1178 821 1186T742 1194V1226H1194V1194Q1130 1194 1071 1162T936 1058T742 869L553 680L1008 232Q1088 153 1163 100T1354 35V0Z" />
<glyph unicode="L" glyph-name="L" horiz-adv-x="1130" d="M1093 335L988 0H35V35Q121 35 167 62T214 187V1039Q214 1136 168 1164T35 1192V1226H568V1192Q480 1192 433 1164T386 1039V232Q386 141 418 110T541 79H664Q782 79 852 99T968 175T1062 340L1093 335Z" />
<glyph unicode="M" glyph-name="M" horiz-adv-x="1649" d="M1609 0H1086V35Q1162 35 1199 49T1249 101T1261 214V1032L786 0H757L283 1032V214Q283 139 295 101T344 49T457 35V0H32V35Q109 35 145 49T193 101T204 214V1015Q204 1114 170 1154T32 1194V1226H378L823
268L1261 1226H1609V1194Q1532 1194 1495 1180T1446 1128T1435 1015V214Q1435 139 1447 101T1496 49T1609 35V0Z" />
<glyph unicode="N" glyph-name="N" horiz-adv-x="1337" d="M1313 1226V1194Q1236 1194 1199 1180T1150 1128T1138 1015V-19H1106L295 968V214Q295 138 306 100T354 48T469 35V0H42V35Q118 35 155 49T204 101T216 214V1067Q170 1129 132 1161T10 1194V1226H310L1060
307V1015Q1060 1089 1048 1127T999 1180T884 1194V1226H1313Z" />
<glyph unicode="O" glyph-name="O" horiz-adv-x="1337" d="M1266 619Q1266 488 1224 371T1102 164T911 22T664 -30Q481 -30 347 58T138 294T64 617Q64 794 142 938T359 1168T678 1253Q811 1253 919 1203T1104 1064T1224 861T1266 619ZM1060 607Q1060 708 1044
811T984 999T863 1137T659 1189Q544 1189 469 1137T350 999T290 815T272 622Q272 530 290 428T351 237T470 93T661 37Q782 37 860 88T981 223T1042 407T1060 607Z" />
<glyph unicode="P" glyph-name="P" horiz-adv-x="1032" d="M966 887Q966 755 907 681T750 578T535 548Q497 548 458 551T378 558V216Q378 141 390 102T441 49T556 35V0H32V35Q110 35 146 49T193 102T204 216V1010Q204 1087 194 1126T148 1180T32 1194V1226H479Q562
1226 648 1212T806 1160T922 1057T966 887ZM760 870Q760 988 692 1072T499 1156Q470 1156 439 1150T378 1138V619Q415 614 452 611T528 607Q600 607 652 644T732 742T760 870Z" />
<glyph unicode="Q" glyph-name="Q" horiz-adv-x="1337" d="M1266 612Q1266 467 1212 341T1057 123T816 -12Q890 -139 999 -230T1261 -335V-364Q1129 -358 988 -311T719 -187T504 -12Q64 142 64 614Q64 791 141 936T356 1167T676 1253Q810 1253 919 1202T1105 1062T1224
857T1266 612ZM1060 590Q1060 687 1043 791T982 985T861 1131T664 1187Q546 1187 470 1135T350 997T290 811T272 614Q272 521 290 420T351 232T471 90T664 35Q781 35 858 84T979 215T1041 395T1060 590Z" />
<glyph unicode="R" glyph-name="R" horiz-adv-x="1236" d="M1253 0H924L509 572Q475 569 437 569Q421 569 407 569T378 571V216Q378 141 390 102T442 49T558 35V0H32V35Q111 35 148 49T195 102T206 216V1010Q206 1087 196 1126T148 1180T32 1194V1226H494Q574
1226 660 1216T821 1174T942 1080T988 912Q988 772 902 699T688 598L938 244Q1005 151 1070 99T1253 35V0ZM786 898Q786 1016 713 1087T521 1158Q486 1158 451 1153T378 1142V634Q395 631 430 631Q518 631 599 655T733 738T786 898Z" />
<glyph unicode="S" glyph-name="S" horiz-adv-x="1030" d="M931 314Q931 208 876 131T734 12T546 -30Q481 -30 417 -12T300 24T216 42Q186 42 175 18T160 -30H127V394H160Q179 237 270 140T526 42Q585 42 641 64T733 132T769 244Q769 315 722 368T601 465T444
554T286 650T165 770T118 931Q118 1032 168 1104T299 1214T474 1253Q529 1253 584 1236T684 1202T757 1184Q785 1184 798 1208T816 1253H851V830H816Q808 926 767 1006T653 1134T476 1182Q422 1182 373 1159T292 1094T260 995Q260 928 308 877T433 783T595 697T757
601T882 479T931 314Z" />
<glyph unicode="T" glyph-name="T" horiz-adv-x="1128" d="M1086 938H1046Q1036 1042 983 1096T821 1150H649V214Q649 139 659 101T707 49T821 35V0H302V35Q379 35 415 49T463 101T474 214V1150H326Q211 1150 153 1106T86 938H44L56 1226H1074L1086 938Z" />
<glyph unicode="U" glyph-name="U" horiz-adv-x="1337" d="M1320 1226V1194Q1209 1194 1176 1152T1142 1003V504Q1142 337 1099 217T953 34T668 -30Q468 -30 365 36T224 226T187 528V1010Q187 1078 178 1118T134 1176T28 1194V1226H521V1194Q415 1194 388 1153T361
1010V474Q361 360 384 264T475 108T680 49Q763 49 839 76T976 160Q1016 197 1033 261T1055 395T1060 514V1010Q1060 1087 1049 1126T1000 1180T884 1194V1226H1320Z" />
<glyph unicode="V" glyph-name="V" horiz-adv-x="1337" d="M1315 1226V1194Q1238 1181 1199 1134T1130 1018L703 -30H671L211 1030Q178 1107 142 1146T17 1194V1226H516V1194Q490 1192 458 1186T403 1162T380 1109Q380 1075 392 1043T422 968L734 251L1025 964Q1036
989 1051 1032T1067 1104Q1067 1136 1045 1154T992 1180T936 1194V1226H1315Z" />
<glyph unicode="W" glyph-name="W" horiz-adv-x="1750" d="M1733 1226V1194Q1663 1194 1626 1150T1564 1032L1201 -30H1163L884 755L607 -30H572L211 990Q193 1044 176 1090T125 1165T24 1194V1226H476V1194Q439 1194 399 1183T359 1121Q359 1093 374 1048T398
976L638 286L842 872Q821 949 793 1023T720 1145T607 1194V1226H1086V1194Q1056 1194 1026 1191T976 1171T956 1114Q956 1077 969 1032T995 954L1231 286L1465 964Q1475 992 1488 1037T1501 1111Q1501 1164 1457 1179T1369 1194V1226H1733Z" />
<glyph unicode="X" glyph-name="X" horiz-adv-x="1337" d="M1315 0H788V35Q811 35 840 39T890 58T912 103Q912 120 886 168T821 277T743 397T675 496T644 541L386 211Q371 192 351 161T331 103Q331 59 373 47T450 35V0H12V35Q84 35 159 86T288 204L607 605L364
959Q321 1022 277 1073T177 1156T40 1194V1226H607V1194Q585 1193 555 1188T502 1168T479 1123Q479 1103 500 1063T553 972T618 874T677 791T710 745Q717 753 746 788T816 872T894 972T959 1066T985 1128Q985 1158 960 1171T904 1189T853 1194V1226H1288V1194Q1204
1189 1151 1151T1025 1021L755 680L1055 235Q1118 141 1176 90T1315 35V0Z" />
<glyph unicode="Y" glyph-name="Y" horiz-adv-x="1337" d="M1313 1226V1194Q1223 1193 1173 1148T1072 1024L750 521V214Q750 139 762 101T811 49T924 35V0H403V35Q480 35 515 49T561 101T572 214V504L239 1018Q213 1058 182 1098T111 1166T17 1194V1226H541V1194Q516
1194 483 1189T426 1168T401 1114Q401 1093 431 1036T507 907T598 767T676 651T710 600L954 978Q969 1001 988 1039T1008 1106Q1008 1156 967 1175T884 1194V1226H1313Z" />
<glyph unicode="Z" glyph-name="Z" horiz-adv-x="1130" d="M1079 324L1022 0H24V35L809 1156H418Q326 1156 277 1133T205 1058T167 919H133L160 1226H1067L260 73H762Q856 73 910 103T995 191T1052 329L1079 324Z" />
<glyph unicode="[" glyph-name="bracketleft" horiz-adv-x="828" d="M597 -249L578 -355L213 -301V1350L578 1403L597 1299L348 1260V-208L597 -249Z" />
<glyph unicode="\" glyph-name="backslash" horiz-adv-x="516" d="M521 -28H448L2 1285H82L521 -28Z" />
<glyph unicode="]" glyph-name="bracketright" horiz-adv-x="828" d="M231 -249L480 -208V1260L231 1299L250 1403L615 1350V-301L250 -355L231 -249Z" />
<glyph unicode="^" glyph-name="asciicircum" horiz-adv-x="1782" d="M1356 17H1246L892 973L535 17H425L835 1086H946L1356 17Z" />
<glyph unicode="_" glyph-name="underscore" horiz-adv-x="892" d="M892 -209H0V-143H892V-209Z" />
<glyph unicode="`" glyph-name="grave" horiz-adv-x="696" d="M526 943H450L185 1111Q103 1163 103 1192Q103 1261 160 1261Q208 1261 268 1201L526 943Z" />
<glyph unicode="a" glyph-name="a" horiz-adv-x="823" d="M821 172V120Q787 74 737 29T624 -17Q566 -17 547 27T528 120Q468 72 406 28T263 -17Q169 -17 118 44T66 197Q66 272 115 329T238 429T391 500T528 548V582Q528 638 517 687T473 768T373 799Q291 799 271
756T251 644Q251 604 235 581T174 558Q132 558 115 582T98 644Q98 719 148 765T268 832T401 853Q558 853 618 789T678 570V288Q678 253 678 210T683 143Q685 126 694 112T722 98Q736 98 756 113T794 145T821 172ZM528 180V497Q467 474 395 439T270 355T218 239Q218
185 252 137T347 89Q394 89 442 119T528 180Z" />
<glyph unicode="b" glyph-name="b" horiz-adv-x="926" d="M863 448Q863 326 810 217T661 40T434 -28Q352 -28 276 3T133 82V960Q133 1065 124 1116T68 1168Q52 1168 37 1164T5 1156L-7 1187L244 1285H286V685Q332 750 397 801T546 853Q655 853 725 792T829 637T863
448ZM706 396Q706 466 684 542T610 671T472 725Q419 725 371 695T286 629V133Q324 93 374 68T481 42Q545 42 588 77T657 168T694 284T706 396Z" />
<glyph unicode="c" glyph-name="c" horiz-adv-x="823" d="M734 326L762 314Q748 229 702 151T582 22T415 -28Q295 -28 217 38T100 206T61 413Q61 529 109 629T247 791T457 853Q513 853 578 831T691 765T739 654Q739 614 716 596T654 577Q605 577 586 599T561 653T547
718T514 772T427 794Q348 794 301 747T232 629T211 492Q211 431 226 366T273 244T356 153T479 118Q579 118 639 181T734 326Z" />
<glyph unicode="d" glyph-name="d" horiz-adv-x="926" d="M934 76L683 -28H644V94Q594 42 534 7T401 -28Q293 -28 217 33T101 188T61 378Q61 464 88 548T168 701T295 811T464 853Q514 853 560 837T644 784V1052Q644 1105 630 1136T580 1168Q564 1168 549 1165T516
1156L504 1187L755 1285H794V254Q794 184 804 139T860 94Q875 94 891 98T924 108L934 76ZM644 157V584Q644 636 619 685T551 767T452 799Q388 799 345 765T276 678T239 564T228 452Q228 395 241 330T284 206T362 110T481 73Q530 73 571 97T644 157Z" />
<glyph unicode="e" glyph-name="e" horiz-adv-x="823" d="M742 322L769 302Q757 217 711 142T593 19T430 -28Q311 -28 231 35T109 198T68 406Q68 525 110 627T237 791T452 853Q602 853 685 758T769 516H197Q197 427 229 336T328 183T499 122Q594 122 651 179T742
322ZM197 568H580Q580 623 562 673T504 756T401 788Q308 788 256 720T197 568Z" />
<glyph unicode="f" glyph-name="f" horiz-adv-x="617" d="M806 1130Q806 1105 783 1081T732 1057Q702 1057 679 1081T633 1138T580 1194T506 1219Q448 1219 421 1177T387 1065T380 917V828H595V762H380V218Q380 135 393 96T448 46T572 35V0H73V35Q145 35 178 53T222
111T232 218V762H68V828H232V884Q232 990 270 1081T385 1229T577 1285Q618 1285 672 1267T766 1215T806 1130Z" />
<glyph unicode="g" glyph-name="g" horiz-adv-x="926" d="M892 755Q892 726 869 717T816 708Q793 708 769 710T727 713Q753 678 764 635T776 548Q776 456 730 394T609 300T450 268Q419 268 388 272T324 286Q301 267 279 242T256 185Q256 149 301 137T417 125T569
122T720 104T837 47T882 -76Q882 -159 837 -220T719 -322T567 -381T418 -401Q383 -401 323 -392T201 -361T97 -307T54 -228Q54 -194 86 -147T159 -58T221 7Q198 23 167 50T136 108Q136 142 162 179T222 250T280 302Q207 336 165 405T122 553Q122 646 168 713T289
817T452 853Q505 853 555 837T654 805T755 788Q778 788 802 791T851 794Q874 794 883 789T892 755ZM617 523Q617 580 602 646T548 761T438 809Q378 809 344 776T295 694T280 593Q280 536 295 471T350 359T462 312Q525 312 558 343T604 422T617 523ZM816 -110Q816
-73 788 -56T727 -32Q692 -24 633 -19T506 -12T375 -7T270 0Q245 -30 215 -73T185 -160Q185 -201 222 -227T312 -266T417 -285T499 -290Q540 -290 593 -282T698 -254T782 -199T816 -110Z" />
<glyph unicode="h" glyph-name="h" horiz-adv-x="926" d="M917 0H509V35Q590 35 616 61T642 169V494Q642 557 635 613T601 706T509 742Q446 742 394 705T302 624V169Q302 87 325 61T434 35V0H24V35Q104 35 128 64T152 169V1044Q152 1101 142 1135T91 1170Q74 1170
58 1166T24 1156L10 1187L260 1285H302V680Q350 752 418 802T577 853Q656 853 700 818T764 725T789 603T794 479V169Q794 93 816 64T917 35V0Z" />
<glyph unicode="i" glyph-name="i" horiz-adv-x="516" d="M364 1111Q364 1073 338 1046T272 1018Q234 1018 207 1044T180 1111Q180 1150 207 1175T272 1201Q310 1201 337 1175T364 1111ZM474 0H68V35Q149 35 173 62T197 169V612Q197 653 187 693T133 734Q119 734
102 730T68 720L56 752L307 853H347V169Q347 90 370 63T474 35V0Z" />
<glyph unicode="j" glyph-name="j" horiz-adv-x="516" d="M361 1111Q361 1073 334 1046T268 1018Q229 1018 203 1044T176 1111Q176 1148 203 1174T268 1201Q305 1201 333 1175T361 1111ZM347 853V17Q347 -90 317 -185T214 -341T19 -401Q-6 -401 -44 -393T-113
-364T-143 -310Q-143 -278 -121 -255T-68 -232Q-27 -232 1 -255T55 -302T113 -326Q154 -326 171 -292T193 -206T197 -98V554Q197 630 188 681T131 732Q115 732 100 729T68 720L56 752L307 853H347Z" />
<glyph unicode="k" glyph-name="k" horiz-adv-x="926" d="M936 0H535V35Q552 35 572 39T593 66Q593 87 581 105T558 138L305 457V187Q305 129 311 96T346 49T438 35V0H12V35Q74 35 103 46T141 89T150 182V1028Q150 1103 138 1136T89 1170Q73 1170 59 1166T30 1156L12
1187L263 1285H305V476L514 654Q524 663 544 681T582 719T600 755Q600 780 578 790T535 802V828H894V802Q817 798 769 777T664 703L445 509L706 184Q758 119 792 87T858 45T936 35V0Z" />
<glyph unicode="l" glyph-name="l" horiz-adv-x="516" d="M476 0H68V35Q154 35 173 74T192 187V1019Q192 1079 182 1123T125 1168Q111 1168 98 1165T68 1156L54 1187L302 1285H342V187Q342 104 364 70T476 35V0Z" />
<glyph unicode="m" glyph-name="m" horiz-adv-x="1442" d="M1435 0H1025V35Q1089 35 1117 49T1151 96T1158 187V546Q1158 592 1148 638T1108 714T1020 745Q957 745 903 710T806 631V187Q806 129 813 96T850 49T941 35V0H521V35Q587 35 615 48T649 94T656 187V546Q656
594 645 640T604 717T516 748Q452 748 399 712T302 631V187Q302 129 310 96T346 49T438 35V0H28V35Q116 35 134 71T152 187V583Q152 638 143 686T89 734Q73 734 58 730T28 720L12 752L263 853H302V678Q361 741 429 797T590 853Q679 853 730 807T802 678Q861 745
927 799T1091 853Q1181 853 1228 808T1293 692T1310 546V187Q1310 110 1329 73T1435 35V0Z" />
<glyph unicode="n" glyph-name="n" horiz-adv-x="926" d="M924 0H509V35Q572 35 600 48T636 94T644 187V526Q644 573 637 623T603 707T514 742Q449 742 395 705T300 624V187Q300 129 307 96T343 49T434 35V0H22V35Q83 35 109 51T141 101T148 187V569Q148 631 137
682T84 734Q69 734 53 730T22 720L10 752L263 853H300V678Q350 740 421 796T577 853Q667 853 714 806T777 688T794 541V187Q794 108 814 72T924 35V0Z" />
<glyph unicode="o" glyph-name="o" horiz-adv-x="926" d="M863 430Q863 310 814 206T673 37T455 -28Q336 -28 247 34T110 195T61 406Q61 522 110 624T250 789T464 853Q585 853 674 796T813 643T863 430ZM694 359Q694 419 682 493T641 636T561 749T434 794Q352
794 309 743T249 620T232 481Q232 422 244 347T286 202T366 86T492 40Q579 40 622 91T680 217T694 359Z" />
<glyph unicode="p" glyph-name="p" horiz-adv-x="926" d="M865 445Q865 361 841 278T770 125T651 14T484 -28Q370 -28 288 49V-204Q288 -265 296 -299T333 -347T427 -364V-398H-10V-364Q58 -361 88 -348T125 -300T133 -199V584Q133 652 124 691T66 730Q34 730
5 715L-5 748L253 851H288V656Q330 730 395 791T553 853Q661 853 730 790T832 633T865 445ZM720 359Q720 416 710 482T674 607T601 704T481 742Q432 742 384 701T288 602V293Q288 224 300 164T354 67T481 30Q570 30 622 81T697 209T720 359Z" />
<glyph unicode="q" glyph-name="q" horiz-adv-x="926" d="M929 -398H509V-364Q599 -364 621 -332T644 -214V145Q594 84 524 28T371 -28Q293 -28 235 9T138 107T80 239T61 378Q61 504 112 612T259 786T490 853Q534 853 579 841T659 794Q717 821 762 853H794V-214Q794
-298 816 -331T929 -364V-398ZM644 199V590Q644 682 601 735T460 788Q366 788 313 734T237 601T214 445Q214 367 238 288T317 155T464 101Q517 101 563 131T644 199Z" />
<glyph unicode="r" glyph-name="r" horiz-adv-x="634" d="M631 752Q631 719 607 694T548 668Q518 668 497 684T459 716T420 732Q394 732 362 692T300 593V192Q300 113 330 74T445 35V0H17V35Q79 35 106 49T141 96T148 187V545Q148 631 137 681T73 732Q48 732 17
720L7 752L263 853H300V666Q321 704 352 747T424 822T514 853Q558 853 594 827T631 752Z" />
<glyph unicode="s" glyph-name="s" horiz-adv-x="722" d="M656 209Q656 138 614 85T508 2T378 -28Q339 -28 299 -14T223 15T157 30Q147 30 139 13T125 -12H94V283H125Q138 218 170 160T254 66T378 30Q434 30 477 61T521 152Q521 221 478 265T370 341T242 409T135
497T91 631Q91 708 129 757T229 829T359 853Q406 853 451 837T541 821Q566 821 580 853H612V570H580Q567 629 540 682T469 768T356 802Q321 802 284 793T222 760T197 690Q197 630 230 592T315 526T426 473T537 415T623 334T656 209Z" />
<glyph unicode="t" glyph-name="t" horiz-adv-x="516" d="M481 152H516Q497 84 441 28T310 -28Q245 -28 209 3T159 85T145 192V767H14V794Q77 818 125 868T210 981T270 1102H298V828H492V767H298V214Q298 187 304 155T327 100T378 76Q419 76 443 97T481 152Z" />
<glyph unicode="u" glyph-name="u" horiz-adv-x="926" d="M929 76L678 -28H636V150Q600 111 557 70T463 0T354 -28Q264 -28 218 22T156 148T140 295V666Q140 747 109 770T0 794V828H293V275Q293 228 303 185T344 114T430 86Q489 86 543 125T636 204V673Q636 749
604 771T502 794V828H786V218Q786 200 789 171T803 118T842 94Q882 94 917 108L929 76Z" />
<glyph unicode="v" glyph-name="v" horiz-adv-x="926" d="M910 828V794Q852 792 830 764T786 685L494 -28H457L160 676Q135 735 106 759T14 794V828H406V794Q367 794 337 786T307 730Q307 710 313 692T326 656L518 199L713 676Q720 693 726 712T732 752Q732 782
703 788T638 794V828H910Z" />
<glyph unicode="w" glyph-name="w" horiz-adv-x="1337" d="M1322 828V794Q1279 788 1250 760T1205 690L929 -28H892L683 504L445 -28H410L143 671Q121 729 98 756T10 794V828H359V794Q329 794 306 784T283 737Q283 704 295 671L474 194L652 582Q631 639 616 686T571
763T474 794V828H870V794Q830 792 794 782T757 722Q757 710 774 661T819 545T874 409T925 287T956 214L1128 671Q1136 690 1141 709T1147 750Q1147 781 1115 787T1060 794V828H1322Z" />
<glyph unicode="x" glyph-name="x" horiz-adv-x="926" d="M905 0H514V35Q540 35 567 44T595 86Q595 99 572 137T516 223T455 311T415 366Q402 350 371 312T305 229T246 146T221 89Q221 55 249 45T302 35V0H32V35Q67 35 102 68T204 190L378 420L221 649Q177 713
138 752T24 794V828H415V794Q347 794 347 750Q347 740 362 711T400 648T441 585T469 544Q478 556 499 584T544 647T585 711T602 752Q602 779 580 786T535 794V828H816V794Q768 793 722 758T635 671T561 570T505 487L720 182Q764 120 792 89T845 47T905 35V0Z" />
<glyph unicode="y" glyph-name="y" horiz-adv-x="926" d="M917 828V794Q860 790 838 756T794 671L457 -157Q434 -213 394 -269T298 -363T176 -401Q130 -401 92 -374T54 -298Q54 -254 79 -235T145 -216Q179 -216 211 -232T272 -248Q308 -248 338 -213T391 -127T431
-31T457 35L160 659Q136 708 104 748T10 794V828H398V794Q364 794 330 787T295 734Q295 709 305 684T326 636L528 218L713 678Q720 695 726 712T732 745Q732 782 704 788T647 794V828H917Z" />
<glyph unicode="z" glyph-name="z" horiz-adv-x="823" d="M794 794L236 61H541Q626 61 666 76T722 132T748 253H779L767 0H37V35L587 767H314Q245 767 208 755T153 707T127 600H94L98 828H794V794Z" />
<glyph unicode="{" glyph-name="braceleft" horiz-adv-x="884" d="M728 -345V-380Q632 -370 547 -317T409 -181T356 2Q356 79 379 154T402 305Q402 364 367 410T279 486T172 522V574Q226 581 279 609T367 684T402 788Q402 870 379 948T356 1109Q356 1207 410 1286T550
1416T728 1476V1440Q624 1416 565 1352T505 1178Q505 1108 527 1041T549 901Q549 765 474 680T274 550Q401 504 475 417T549 191Q549 121 527 54T505 -81Q505 -191 564 -256T728 -345Z" />
<glyph unicode="|" glyph-name="bar" horiz-adv-x="371" d="M223 -401H145V1285H223V-401Z" />
<glyph unicode="}" glyph-name="braceright" horiz-adv-x="884" d="M156 -345Q260 -321 319 -256T379 -81Q379 -13 357 54T335 191Q335 330 409 417T610 550Q486 594 411 679T335 901Q335 973 357 1040T379 1178Q379 1288 320 1352T156 1440V1476Q249 1467 334
1417T473 1287T528 1109Q528 1027 505 949T482 788Q482 730 517 684T605 610T712 574V522Q658 516 605 487T517 411T482 305Q482 229 505 154T528 2Q528 -98 475 -181T338 -317T156 -380V-345Z" />
<glyph unicode="~" glyph-name="asciitilde" horiz-adv-x="1008" d="M922 638L973 570Q935 497 873 435T718 373Q662 373 608 393T500 439T392 486T283 506Q234 506 198 479T136 413T86 335L37 401Q64 453 98 501T179 582T293 614Q344 614 401 593T517 545T629
497T727 476Q798 476 845 528T922 638Z" />
<glyph unicode="&#xa0;" glyph-name="uni00A0" horiz-adv-x="550" />
<glyph unicode="&#xa1;" glyph-name="exclamdown" horiz-adv-x="617" d="M410 779Q410 731 377 706T308 680Q274 680 242 706T209 779Q209 822 239 852T308 883Q339 883 374 859T410 779ZM412 -272Q412 -333 382 -366T306 -400Q273 -400 239 -370T205 -264Q205
-253 205 -238T209 -203L290 530H326L404 -203Q412 -260 412 -272Z" />
<glyph unicode="&#xa2;" glyph-name="cent" horiz-adv-x="926" d="M786 326L814 314Q800 229 754 151T634 22T467 -28Q433 -28 402 -21T340 0L216 -342H152L288 30Q192 96 153 197T113 413Q113 529 161 629T298 791T509 853Q550 853 584 846L713 1199H776L644
828Q692 809 741 760T791 654Q791 614 768 596T706 577Q656 577 638 597T616 649T600 713L398 160Q460 118 530 118Q631 118 691 181T786 326ZM352 204L558 774Q522 794 479 794Q399 794 352 747T284 629T263 492Q263 416 281 341T352 204Z" />
<glyph unicode="&#xa3;" glyph-name="sterling" horiz-adv-x="926" d="M851 283L884 275Q876 206 845 138T758 24T624 -22Q536 -22 467 27T329 125Q306 73 265 26T160 -22Q105 -22 80 10T54 94Q54 160 97 198T204 236Q222 236 242 235T280 228Q282 243 282 258T283
288Q283 365 277 442T263 598H89V683H263Q261 727 256 772T251 863Q251 963 290 1052T404 1197T587 1253Q642 1253 694 1232T781 1169T816 1067Q816 1041 796 1017T748 992Q708 992 695 1013T679 1065T672 1127T644 1180T565 1201Q495 1201 460 1161T413 1063T401
949Q401 882 408 815T420 683H654V598H420Q420 495 412 402T366 211Q399 201 455 184T568 152T659 138Q809 138 851 283ZM270 155Q238 180 192 180Q108 180 108 101Q108 71 120 52T167 32Q216 32 238 75T270 155Z" />
<glyph unicode="&#xa4;" glyph-name="currency" horiz-adv-x="1069" d="M1015 349L952 286L767 469Q672 386 539 386Q472 386 412 405T302 469L118 286L54 349L236 533Q160 630 160 762Q160 825 178 886T241 995L54 1182L118 1248L305 1060Q355 1101 415 1119T539
1138Q601 1138 657 1120T762 1060L952 1248L1015 1182L830 997Q871 948 890 888T910 762Q910 631 833 533L1015 349ZM809 762Q809 837 773 899T675 999T539 1037Q461 1037 398 1001T298 902T260 762Q260 685 297 623T398 524T539 487Q615 487 676 524T773 624T809
762Z" />
<glyph unicode="&#xa5;" glyph-name="yen" horiz-adv-x="926" d="M910 319H541V221Q541 152 548 112T587 54T696 37V0H228V37Q307 37 340 53T379 109T386 221V319H17V386H386V516L373 548H17V612H342L150 1062Q125 1121 98 1154T2 1194V1226H403V1194Q387 1193
360 1188T312 1171T290 1138Q290 1132 310 1081T360 957T421 809T475 679T502 612L696 1069Q702 1085 707 1102T713 1138Q713 1175 678 1184T612 1194V1226H926V1194Q858 1194 827 1152T769 1052L572 612H910V548H548L541 530V386H910V319Z" />
<glyph unicode="&#xa6;" glyph-name="brokenbar" horiz-adv-x="560" d="M326 600H236V1313H326V600ZM326 -354H236V359H326V-354Z" />
<glyph unicode="&#xa7;" glyph-name="section" horiz-adv-x="926" d="M786 434Q786 330 730 255T587 125Q630 79 663 22T696 -103Q696 -214 623 -287T438 -361Q351 -361 283 -306T214 -160Q214 -128 232 -104T283 -79Q315 -79 334 -103T354 -157Q354 -182 346
-206T337 -256Q337 -294 376 -310T445 -326Q483 -326 520 -306T581 -252T605 -180Q605 -110 558 -53T442 58T304 169T187 296T140 457Q140 561 197 636T340 762Q301 810 265 871T228 997Q228 1068 263 1126T356 1218T484 1253Q573 1253 644 1201T715 1052Q715 1018
699 995T644 971Q616 971 594 991T572 1039Q572 1062 578 1084T584 1128Q584 1176 557 1195T484 1214Q417 1214 372 1170T326 1057Q326 987 372 931T487 824T624 718T739 595T786 434ZM371 734Q314 701 273 651T232 533Q232 463 267 411T356 317T463 236T556 152Q609
186 651 236T694 354Q694 413 660 467T573 569T467 658T371 734Z" />
<glyph unicode="&#xa8;" glyph-name="dieresis" horiz-adv-x="553" d="M553 1111Q553 1073 526 1046T462 1018Q425 1018 397 1046T368 1111Q368 1146 397 1173T462 1201Q499 1201 526 1175T553 1111ZM185 1111Q185 1073 157 1046T91 1018Q54 1018 27 1046T0 1111Q0
1146 28 1173T91 1201Q128 1201 156 1175T185 1111Z" />
<glyph unicode="&#xa9;" glyph-name="copyright" horiz-adv-x="1409" d="M1346 612Q1346 477 1297 361T1160 157T955 20T703 -30Q568 -30 451 19T247 155T110 360T61 612Q61 749 110 865T246 1069T451 1204T703 1253Q840 1253 957 1205T1161 1069T1297 866T1346
612ZM1290 612Q1290 735 1245 842T1120 1029T933 1154T703 1199Q580 1199 474 1154T289 1028T165 841T120 612Q120 490 164 384T288 199T474 75T703 30Q826 30 933 74T1120 198T1245 384T1290 612ZM1020 408L1055 389Q927 204 708 204Q592 204 497 255T345 398T288
607Q288 738 349 832T513 976T739 1027Q797 1027 854 1006T941 985Q958 985 969 999T985 1027H1020L1039 774H1006Q972 872 906 928T730 985Q627 985 563 936T468 806T438 634Q438 537 467 453T562 316T739 263Q920 263 1020 408Z" />
<glyph unicode="&#xaa;" glyph-name="ordfeminine" horiz-adv-x="590" d="M588 832V800Q517 720 448 720Q420 720 399 737T378 800Q325 767 296 750T243 726T188 720Q124 720 85 754T46 847Q46 884 70 916T165 983T378 1060V1079Q378 1151 351 1180T265 1210Q225
1210 202 1192T176 1148Q178 1141 178 1131T179 1115Q179 1090 164 1077T125 1064Q70 1064 70 1116Q70 1175 136 1208T287 1241Q374 1241 416 1220T472 1162T486 1072V902Q486 830 490 815Q495 787 518 787Q529 787 541 794T588 832ZM578 592H53V631H578V592ZM378
836V1027Q277 994 230 968T170 919T157 871Q157 834 184 808T248 781Q297 781 378 836Z" />
<glyph unicode="&#xab;" glyph-name="guillemotleft" horiz-adv-x="750" d="M381 9L362 -8Q335 12 293 46T209 133T137 257T108 419Q108 512 136 583T207 706T291 792T362 845L377 827Q313 753 275 648T237 419Q237 292 275 196T381 9ZM639 9L620 -8Q593 12 551
46T467 133T395 257T366 419Q366 512 394 583T465 706T549 792T620 845L635 827Q571 753 533 648T495 419Q495 292 533 196T639 9Z" />
<glyph unicode="&#xac;" glyph-name="logicalnot" horiz-adv-x="1752" d="M1284 267V637H356V749H1396V267H1284Z" />
<glyph unicode="&#xad;" glyph-name="uni00AD" horiz-adv-x="617" d="M541 347H73V481H541V347Z" />
<glyph unicode="&#xae;" glyph-name="registered" horiz-adv-x="1409" d="M1346 612Q1346 477 1297 361T1160 157T955 20T703 -30Q568 -30 451 19T247 155T110 360T61 612Q61 749 110 865T246 1069T451 1204T703 1253Q840 1253 957 1205T1161 1069T1297 866T1346
612ZM1290 612Q1290 735 1245 842T1120 1029T933 1154T703 1199Q580 1199 474 1154T289 1028T165 841T120 612Q120 490 164 384T288 199T474 75T703 30Q826 30 933 74T1120 198T1245 384T1290 612ZM1067 226H898L631 593H563V324Q563 278 594 267T671 256V226H340V256Q402
256 416 282T430 378V877Q430 930 418 953T349 976V1008H698Q761 1008 823 988T926 924T968 806Q968 715 907 669T767 605L956 335Q979 303 1004 281T1067 256V226ZM823 794Q823 875 770 921T638 968Q599 968 563 956V631Q620 631 680 642T781 689T823 794Z" />
<glyph unicode="&#xaf;" glyph-name="overscore" horiz-adv-x="580" d="M580 1018H0V1118H580V1018Z" />
<glyph unicode="&#xb0;" glyph-name="degree" horiz-adv-x="570" d="M481 1086Q481 1005 425 949T286 892Q202 892 146 948T89 1086Q89 1169 145 1226T286 1283Q369 1283 425 1226T481 1086ZM410 1086Q410 1139 374 1175T286 1212Q234 1212 197 1176T160 1086Q160
1035 197 1000T286 964Q337 964 373 999T410 1086Z" />
<glyph unicode="&#xb1;" glyph-name="plusminus" horiz-adv-x="1782" d="M1426 638H946V317H835V638H356V750H835V1069H946V750H1426V638ZM1426 0H356V110H1426V0Z" />
<glyph unicode="&#xb2;" glyph-name="twosuperior" horiz-adv-x="652" d="M605 607L541 464H22V484Q92 537 165 596T300 720T400 848T438 973Q438 1049 387 1091T263 1133Q195 1133 146 1104T71 1008H49Q63 1115 127 1166T298 1217Q354 1217 412 1196T511 1131T551
1022Q551 961 508 894T401 761T271 640T160 548H394Q465 548 505 556T580 607H605Z" />
<glyph unicode="&#xb3;" glyph-name="threesuperior" horiz-adv-x="652" d="M548 715Q548 621 494 564T360 482T199 457Q181 457 145 460T79 475T49 516Q49 540 64 546T101 553Q143 553 188 529T288 504Q347 504 399 544T452 649Q452 723 414 763T317 818T197
835V853Q243 858 289 878T366 934T398 1022Q398 1085 353 1116T251 1147Q145 1147 82 1057L61 1067Q98 1137 158 1179T300 1222Q345 1222 392 1207T471 1159T504 1072Q504 1020 465 977T386 907Q456 885 502 839T548 715Z" />
<glyph unicode="&#xb4;" glyph-name="acute" horiz-adv-x="634" d="M521 1206Q521 1175 499 1153T448 1111L180 943H106L361 1201Q384 1224 411 1242T473 1260Q496 1260 508 1244T521 1206Z" />
<glyph unicode="&#xb5;" glyph-name="uni00B5" horiz-adv-x="1049" d="M943 187H980Q975 102 936 37T802 -28Q752 -28 722 -2T678 65T659 145Q605 86 533 29T373 -28Q282 -28 234 52V10Q234 -69 254 -146T275 -300Q275 -335 253 -368T192 -401Q153 -401 133 -369T113
-302Q113 -267 123 -227T140 -152Q158 -73 163 9T169 172V826H317V332Q317 275 324 218T358 124T445 86Q509 86 564 123T659 206V826H809V228Q809 195 812 159T829 98T870 73Q895 73 909 94T932 142T943 187Z" />
<glyph unicode="&#xb6;" glyph-name="paragraph" horiz-adv-x="838" d="M842 1177H722V-401H656V1177H490V-401H422V546Q308 549 209 579T49 682T-12 887Q-12 1009 44 1083T193 1192T396 1226H842V1177Z" />
<glyph unicode="&#xb7;" glyph-name="middot" horiz-adv-x="335" d="M272 607Q272 561 242 532T167 502Q123 502 92 531T61 607Q61 651 92 680T167 710Q211 710 241 681T272 607Z" />
<glyph unicode="&#xb8;" glyph-name="cedilla" horiz-adv-x="434" d="M410 -244Q410 -301 370 -335T275 -383T172 -398Q96 -398 22 -371L49 -312Q77 -322 106 -328T164 -335Q205 -335 238 -319T272 -256Q272 -215 248 -200T187 -185Q150 -185 120 -194L108 -185L190
12H256L204 -120Q217 -118 230 -117T256 -115Q317 -115 363 -146T410 -244Z" />
<glyph unicode="&#xb9;" glyph-name="onesuperior" horiz-adv-x="652" d="M497 464H164V484Q238 484 257 501T277 595V1034Q277 1075 269 1101T226 1128Q194 1128 160 1111L150 1130L364 1217H386V595Q386 519 404 502T497 484V464Z" />
<glyph unicode="&#xba;" glyph-name="ordmasculine" horiz-adv-x="679" d="M628 988Q628 924 595 861T497 755T335 713Q251 713 188 749T88 844T52 973Q52 1041 86 1102T186 1202T341 1241Q469 1241 548 1167T628 988ZM619 592H62V631H619V592ZM506 944Q506 1055
457 1130T322 1206Q270 1206 222 1166T173 1018Q173 947 196 887T262 789T362 752Q427 752 466 795T506 944Z" />
<glyph unicode="&#xbb;" glyph-name="guillemotright" horiz-adv-x="750" d="M369 9Q437 99 475 195T513 419Q513 542 476 647T373 827L388 845Q416 827 458 793T543 706T613 583T642 419Q642 328 613 257T542 134T457 47T388 -8L369 9ZM111 9Q179 99 217 195T255
419Q255 542 218 647T115 827L130 845Q158 827 200 793T285 706T355 583T384 419Q384 328 355 257T284 134T199 47T130 -8L111 9Z" />
<glyph unicode="&#xbc;" glyph-name="onequarter" horiz-adv-x="1426" d="M1248 192H1150V-7H1060V192H745V258L1091 752H1150V268H1248V192ZM1182 1248L344 -14H256L1098 1248H1182ZM469 474H190V497Q255 497 270 515T286 598V1040Q286 1057 284 1081T273 1123T244
1142Q227 1142 213 1138T185 1126L176 1145L356 1234H376V607Q376 537 388 517T469 497V474ZM1060 268V636L799 268H1060Z" />
<glyph unicode="&#xbd;" glyph-name="onehalf" horiz-adv-x="1426" d="M1276 136L1222 -7H784V14Q861 85 942 166T1079 334T1135 506Q1135 569 1096 618T988 668Q926 668 886 636T826 544H806Q817 632 869 692T1018 752Q1102 752 1165 699T1229 556Q1229 492 1195
426T1108 297T1000 177T902 76H1096Q1157 76 1190 83T1253 136H1276ZM1106 1248L326 -14H239L1020 1248H1106ZM445 474H162V497Q229 497 243 515T258 598V1051Q258 1083 250 1112T216 1142Q200 1142 185 1138T157 1126L150 1145L329 1234H349V598Q349 533 363 515T445
497V474Z" />
<glyph unicode="&#xbe;" glyph-name="threequarters" horiz-adv-x="1426" d="M1273 192H1175V-7H1084V192H767V258L1114 752H1175V268H1273V192ZM1222 1248L386 -14H295L1138 1248H1222ZM575 720Q575 591 489 526T283 460Q262 460 231 463T176 479T152 521Q152
541 165 549T197 558Q232 558 269 534T356 509Q415 509 456 552T497 652Q497 754 435 796T277 840V858Q348 866 398 912T448 1032Q448 1086 415 1122T326 1158Q279 1158 244 1132T185 1067L164 1074Q198 1142 239 1188T366 1234Q433 1234 486 1195T539 1081Q539
1032 506 989T438 914Q575 861 575 720ZM1084 268V636L821 268H1084Z" />
<glyph unicode="&#xbf;" glyph-name="questiondown" horiz-adv-x="823" d="M74 -93Q74 1 119 70T221 205Q284 278 340 360T403 564H439Q435 460 404 365T320 180Q285 121 262 56T239 -81Q239 -143 260 -198T327 -287T441 -322Q474 -322 513 -310T579 -273T607
-207Q607 -183 594 -155T566 -101T552 -55Q552 -26 571 -4T620 18Q673 18 695 -29T718 -119Q718 -206 672 -261T553 -342T403 -368Q318 -368 243 -339T121 -249T74 -93ZM317 769Q317 810 345 838T415 866Q456 866 485 839T514 769Q514 728 484 699T415 669Q373
669 345 698T317 769Z" />
<glyph unicode="&#xc0;" glyph-name="Agrave" horiz-adv-x="1332" d="M1318 0H833V35Q874 35 915 49T956 113Q956 137 943 179T910 269T873 355T848 410H373Q366 395 348 356T309 269T273 178T258 113Q258 81 284 65T344 42T401 35V0H14V35Q72 38 107 67T167 142T216
244L649 1253H680L1106 236Q1130 181 1153 137T1213 66T1318 35V0ZM823 476L614 976L401 476H823ZM839 1339H763L498 1507Q416 1559 416 1588Q416 1657 473 1657Q521 1657 581 1597L839 1339Z" />
<glyph unicode="&#xc1;" glyph-name="Aacute" horiz-adv-x="1332" d="M1318 0H833V35Q874 35 915 49T956 113Q956 137 943 179T910 269T873 355T848 410H373Q366 395 348 356T309 269T273 178T258 113Q258 81 284 65T344 42T401 35V0H14V35Q72 38 107 67T167 142T216
244L649 1253H680L1106 236Q1130 181 1153 137T1213 66T1318 35V0ZM823 476L614 976L401 476H823ZM915 1602Q915 1571 893 1549T842 1507L574 1339H500L755 1597Q778 1620 805 1638T867 1656Q890 1656 902 1640T915 1602Z" />
<glyph unicode="&#xc2;" glyph-name="Acircumflex" horiz-adv-x="1332" d="M1318 0H833V35Q874 35 915 49T956 113Q956 137 943 179T910 269T873 355T848 410H373Q366 395 348 356T309 269T273 178T258 113Q258 81 284 65T344 42T401 35V0H14V35Q72 38 107 67T167
142T216 244L649 1253H680L1106 236Q1130 181 1153 137T1213 66T1318 35V0ZM823 476L614 976L401 476H823ZM956 1327H892L666 1519L440 1327H376L610 1637H725L956 1327Z" />
<glyph unicode="&#xc3;" glyph-name="Atilde" horiz-adv-x="1332" d="M1318 0H833V35Q874 35 915 49T956 113Q956 137 943 179T910 269T873 355T848 410H373Q366 395 348 356T309 269T273 178T258 113Q258 81 284 65T344 42T401 35V0H14V35Q72 38 107 67T167 142T216
244L649 1253H680L1106 236Q1130 181 1153 137T1213 66T1318 35V0ZM823 476L614 976L401 476H823ZM975 1612Q967 1537 912 1476T778 1414Q728 1414 696 1427T639 1457T585 1487T512 1500Q474 1500 442 1473T406 1414H358Q377 1494 426 1548T563 1602Q611 1602 646
1582T716 1541T798 1520Q842 1520 879 1544T927 1612H975Z" />
<glyph unicode="&#xc4;" glyph-name="Adieresis" horiz-adv-x="1332" d="M1318 0H833V35Q874 35 915 49T956 113Q956 137 943 179T910 269T873 355T848 410H373Q366 395 348 356T309 269T273 178T258 113Q258 81 284 65T344 42T401 35V0H14V35Q72 38 107 67T167
142T216 244L649 1253H680L1106 236Q1130 181 1153 137T1213 66T1318 35V0ZM823 476L614 976L401 476H823ZM929 1495Q929 1457 902 1430T838 1402Q801 1402 773 1430T744 1495Q744 1530 773 1557T838 1585Q875 1585 902 1559T929 1495ZM561 1495Q561 1457 533 1430T467
1402Q430 1402 403 1430T376 1495Q376 1530 404 1557T467 1585Q504 1585 532 1559T561 1495Z" />
<glyph unicode="&#xc5;" glyph-name="Aring" horiz-adv-x="1332" d="M1318 0H833V35Q874 35 915 49T956 113Q956 137 943 179T910 269T873 355T848 410H373Q366 395 348 356T309 269T273 178T258 113Q258 81 284 65T344 42T401 35V0H14V35Q72 38 107 67T167 142T216
244L649 1253H680L1106 236Q1130 181 1153 137T1213 66T1318 35V0ZM823 476L614 976L401 476H823ZM839 1512Q839 1435 786 1387T668 1339Q604 1339 549 1387T493 1512Q493 1589 545 1637T668 1685Q732 1685 785 1639T839 1512ZM776 1512Q776 1562 743 1592T668
1622Q622 1622 589 1592T555 1512Q555 1460 590 1431T668 1402Q713 1402 744 1435T776 1512Z" />
<glyph unicode="&#xc6;" glyph-name="AE" horiz-adv-x="1649" d="M1596 310L1499 0H578V34H623Q697 34 734 78Q756 106 756 217V474H398L286 264Q255 206 238 169T221 107Q221 70 261 55T364 34V0H-22V34Q18 34 46 49Q73 66 106 108T192 248L566 944Q636 1074
636 1120Q636 1150 606 1169T480 1194V1226H1486L1499 959H1469Q1452 1043 1432 1086T1367 1145T1230 1160H929V676H1162Q1268 676 1309 715T1358 852H1390V428H1358Q1349 500 1333 539T1279 592T1162 607H929V202Q929 166 930 139T936 103Q944 92 963 79T1034
66H1198Q1301 66 1366 91T1476 170T1564 310H1596ZM756 542V1160L432 542H756Z" />
<glyph unicode="&#xc7;" glyph-name="Ccedilla" horiz-adv-x="1236" d="M1142 307L1170 288Q1088 139 963 55T664 -30Q482 -30 348 52T140 276T66 595Q66 777 144 926T363 1164T690 1253Q785 1253 855 1229T1008 1170Q1045 1170 1061 1199T1084 1253H1116L1142
838H1116Q1070 991 973 1090T706 1189Q580 1189 497 1136T364 996T293 803T272 593Q272 447 319 324T468 126T732 52Q834 52 905 83T1031 171T1142 307ZM889 -270Q889 -327 849 -361T754 -409T651 -424Q575 -424 501 -397L528 -338Q556 -348 585 -354T643 -361Q684
-361 717 -345T751 -282Q751 -241 727 -226T666 -211Q629 -211 599 -220L587 -211L669 -14H735L683 -146Q696 -144 709 -143T735 -141Q796 -141 842 -172T889 -270Z" />
<glyph unicode="&#xc8;" glyph-name="Egrave" horiz-adv-x="1130" d="M1091 307L983 0H40V35Q116 35 153 49T202 102T214 216V1015Q214 1092 203 1130T156 1181T40 1194V1226H983L997 959H964Q943 1038 923 1081T860 1142T725 1160H386V676H656Q731 676 769 690T824
743T851 853H884V425H851Q841 497 825 536T771 591T656 607H386V204Q386 133 400 100T490 66H696Q803 66 862 90T962 167T1052 307H1091ZM738 1339H662L397 1507Q315 1559 315 1588Q315 1657 372 1657Q420 1657 480 1597L738 1339Z" />
<glyph unicode="&#xc9;" glyph-name="Eacute" horiz-adv-x="1130" d="M1091 307L983 0H40V35Q116 35 153 49T202 102T214 216V1015Q214 1092 203 1130T156 1181T40 1194V1226H983L997 959H964Q943 1038 923 1081T860 1142T725 1160H386V676H656Q731 676 769 690T824
743T851 853H884V425H851Q841 497 825 536T771 591T656 607H386V204Q386 133 400 100T490 66H696Q803 66 862 90T962 167T1052 307H1091ZM814 1602Q814 1571 792 1549T741 1507L473 1339H399L654 1597Q677 1620 704 1638T766 1656Q789 1656 801 1640T814 1602Z"
/>
<glyph unicode="&#xca;" glyph-name="Ecircumflex" horiz-adv-x="1130" d="M1091 307L983 0H40V35Q116 35 153 49T202 102T214 216V1015Q214 1092 203 1130T156 1181T40 1194V1226H983L997 959H964Q943 1038 923 1081T860 1142T725 1160H386V676H656Q731 676 769
690T824 743T851 853H884V425H851Q841 497 825 536T771 591T656 607H386V204Q386 133 400 100T490 66H696Q803 66 862 90T962 167T1052 307H1091ZM855 1327H791L565 1519L339 1327H275L509 1637H624L855 1327Z" />
<glyph unicode="&#xcb;" glyph-name="Edieresis" horiz-adv-x="1130" d="M1091 307L983 0H40V35Q116 35 153 49T202 102T214 216V1015Q214 1092 203 1130T156 1181T40 1194V1226H983L997 959H964Q943 1038 923 1081T860 1142T725 1160H386V676H656Q731 676 769
690T824 743T851 853H884V425H851Q841 497 825 536T771 591T656 607H386V204Q386 133 400 100T490 66H696Q803 66 862 90T962 167T1052 307H1091ZM828 1495Q828 1457 801 1430T737 1402Q700 1402 672 1430T643 1495Q643 1530 672 1557T737 1585Q774 1585 801 1559T828
1495ZM460 1495Q460 1457 432 1430T366 1402Q329 1402 302 1430T275 1495Q275 1530 303 1557T366 1585Q403 1585 431 1559T460 1495Z" />
<glyph unicode="&#xcc;" glyph-name="Igrave" horiz-adv-x="617" d="M572 0H47V35Q126 35 162 49T210 103T221 216V1010Q221 1085 210 1125T163 1179T47 1194V1226H572V1194Q495 1194 458 1180T408 1125T396 1010V216Q396 142 407 103T455 50T572 35V0ZM483 1339H407L142
1507Q60 1559 60 1588Q60 1657 117 1657Q165 1657 225 1597L483 1339Z" />
<glyph unicode="&#xcd;" glyph-name="Iacute" horiz-adv-x="617" d="M572 0H47V35Q126 35 162 49T210 103T221 216V1010Q221 1085 210 1125T163 1179T47 1194V1226H572V1194Q495 1194 458 1180T408 1125T396 1010V216Q396 142 407 103T455 50T572 35V0ZM558 1602Q558
1571 536 1549T485 1507L217 1339H143L398 1597Q421 1620 448 1638T510 1656Q533 1656 545 1640T558 1602Z" />
<glyph unicode="&#xce;" glyph-name="Icircumflex" horiz-adv-x="617" d="M572 0H47V35Q126 35 162 49T210 103T221 216V1010Q221 1085 210 1125T163 1179T47 1194V1226H572V1194Q495 1194 458 1180T408 1125T396 1010V216Q396 142 407 103T455 50T572 35V0ZM599
1327H535L309 1519L83 1327H19L253 1637H368L599 1327Z" />
<glyph unicode="&#xcf;" glyph-name="Idieresis" horiz-adv-x="617" d="M572 0H47V35Q126 35 162 49T210 103T221 216V1010Q221 1085 210 1125T163 1179T47 1194V1226H572V1194Q495 1194 458 1180T408 1125T396 1010V216Q396 142 407 103T455 50T572 35V0ZM572
1495Q572 1457 545 1430T481 1402Q444 1402 416 1430T387 1495Q387 1530 416 1557T481 1585Q518 1585 545 1559T572 1495ZM204 1495Q204 1457 176 1430T110 1402Q73 1402 46 1430T19 1495Q19 1530 47 1557T110 1585Q147 1585 175 1559T204 1495Z" />
<glyph unicode="&#xd0;" glyph-name="Eth" horiz-adv-x="1339" d="M1266 623Q1266 450 1196 309T976 84T582 0H32V34H78Q164 34 186 80T208 217V613H32V716H208V1010Q208 1125 184 1156Q152 1194 78 1194H32V1226H530Q819 1226 954 1162Q1091 1098 1178 957T1266
623ZM1063 613Q1063 783 1000 905T825 1094T566 1160Q527 1160 481 1154T382 1134V716H740V613H382V90Q435 76 485 71T574 65Q714 65 824 131T999 320T1063 613Z" />
<glyph unicode="&#xd1;" glyph-name="Ntilde" horiz-adv-x="1337" d="M1313 1226V1194Q1236 1194 1199 1180T1150 1128T1138 1015V-19H1106L295 968V214Q295 138 306 100T354 48T469 35V0H42V35Q118 35 155 49T204 101T216 214V1067Q170 1129 132 1161T10 1194V1226H310L1060
307V1015Q1060 1089 1048 1127T999 1180T884 1194V1226H1313ZM970 1612Q962 1537 907 1476T773 1414Q723 1414 691 1427T634 1457T580 1487T507 1500Q469 1500 437 1473T401 1414H353Q372 1494 421 1548T558 1602Q606 1602 641 1582T711 1541T793 1520Q837 1520
874 1544T922 1612H970Z" />
<glyph unicode="&#xd2;" glyph-name="Ograve" horiz-adv-x="1337" d="M1266 619Q1266 488 1224 371T1102 164T911 22T664 -30Q481 -30 347 58T138 294T64 617Q64 794 142 938T359 1168T678 1253Q811 1253 919 1203T1104 1064T1224 861T1266 619ZM1060 607Q1060
708 1044 811T984 999T863 1137T659 1189Q544 1189 469 1137T350 999T290 815T272 622Q272 530 290 428T351 237T470 93T661 37Q782 37 860 88T981 223T1042 407T1060 607ZM838 1339H762L497 1507Q415 1559 415 1588Q415 1657 472 1657Q520 1657 580 1597L838 1339Z"
/>
<glyph unicode="&#xd3;" glyph-name="Oacute" horiz-adv-x="1337" d="M1266 619Q1266 488 1224 371T1102 164T911 22T664 -30Q481 -30 347 58T138 294T64 617Q64 794 142 938T359 1168T678 1253Q811 1253 919 1203T1104 1064T1224 861T1266 619ZM1060 607Q1060
708 1044 811T984 999T863 1137T659 1189Q544 1189 469 1137T350 999T290 815T272 622Q272 530 290 428T351 237T470 93T661 37Q782 37 860 88T981 223T1042 407T1060 607ZM913 1602Q913 1571 891 1549T840 1507L572 1339H498L753 1597Q776 1620 803 1638T865 1656Q888
1656 900 1640T913 1602Z" />
<glyph unicode="&#xd4;" glyph-name="Ocircumflex" horiz-adv-x="1337" d="M1266 619Q1266 488 1224 371T1102 164T911 22T664 -30Q481 -30 347 58T138 294T64 617Q64 794 142 938T359 1168T678 1253Q811 1253 919 1203T1104 1064T1224 861T1266 619ZM1060 607Q1060
708 1044 811T984 999T863 1137T659 1189Q544 1189 469 1137T350 999T290 815T272 622Q272 530 290 428T351 237T470 93T661 37Q782 37 860 88T981 223T1042 407T1060 607ZM954 1327H890L664 1519L438 1327H374L608 1637H723L954 1327Z" />
<glyph unicode="&#xd5;" glyph-name="Otilde" horiz-adv-x="1337" d="M1266 619Q1266 488 1224 371T1102 164T911 22T664 -30Q481 -30 347 58T138 294T64 617Q64 794 142 938T359 1168T678 1253Q811 1253 919 1203T1104 1064T1224 861T1266 619ZM1060 607Q1060
708 1044 811T984 999T863 1137T659 1189Q544 1189 469 1137T350 999T290 815T272 622Q272 530 290 428T351 237T470 93T661 37Q782 37 860 88T981 223T1042 407T1060 607ZM973 1612Q965 1537 910 1476T776 1414Q726 1414 694 1427T637 1457T583 1487T510 1500Q472
1500 440 1473T404 1414H356Q375 1494 424 1548T561 1602Q609 1602 644 1582T714 1541T796 1520Q840 1520 877 1544T925 1612H973Z" />
<glyph unicode="&#xd6;" glyph-name="Odieresis" horiz-adv-x="1337" d="M1266 619Q1266 488 1224 371T1102 164T911 22T664 -30Q481 -30 347 58T138 294T64 617Q64 794 142 938T359 1168T678 1253Q811 1253 919 1203T1104 1064T1224 861T1266 619ZM1060 607Q1060
708 1044 811T984 999T863 1137T659 1189Q544 1189 469 1137T350 999T290 815T272 622Q272 530 290 428T351 237T470 93T661 37Q782 37 860 88T981 223T1042 407T1060 607ZM927 1495Q927 1457 900 1430T836 1402Q799 1402 771 1430T742 1495Q742 1530 771 1557T836
1585Q873 1585 900 1559T927 1495ZM559 1495Q559 1457 531 1430T465 1402Q428 1402 401 1430T374 1495Q374 1530 402 1557T465 1585Q502 1585 530 1559T559 1495Z" />
<glyph unicode="&#xd7;" glyph-name="multiply" horiz-adv-x="1098" d="M926 176L875 125L546 452L218 125L164 176L494 506L164 833L218 887L546 558L875 887L926 833L600 506L926 176Z" />
<glyph unicode="&#xd8;" glyph-name="Oslash" horiz-adv-x="1339" d="M1267 623Q1267 482 1219 363T1088 156T897 20T673 -29Q583 -29 482 3T298 102L182 -43L128 0L248 148Q66 333 66 628Q66 760 112 874T241 1073T434 1207T671 1255Q876 1255 1038 1120L1157
1266L1211 1226L1087 1076Q1185 974 1226 868T1267 623ZM962 1027Q859 1190 665 1190Q551 1190 476 1140T355 1008T291 827T272 631Q272 424 338 262L962 1027ZM1060 594Q1060 687 1050 767T995 962L376 196Q438 108 508 73T660 37Q772 37 862 92T1006 270T1060
594Z" />
<glyph unicode="&#xd9;" glyph-name="Ugrave" horiz-adv-x="1337" d="M1320 1226V1194Q1209 1194 1176 1152T1142 1003V504Q1142 337 1099 217T953 34T668 -30Q468 -30 365 36T224 226T187 528V1010Q187 1078 178 1118T134 1176T28 1194V1226H521V1194Q415 1194
388 1153T361 1010V474Q361 360 384 264T475 108T680 49Q763 49 839 76T976 160Q1016 197 1033 261T1055 395T1060 514V1010Q1060 1087 1049 1126T1000 1180T884 1194V1226H1320ZM846 1339H770L505 1507Q423 1559 423 1588Q423 1657 480 1657Q528 1657 588 1597L846
1339Z" />
<glyph unicode="&#xda;" glyph-name="Uacute" horiz-adv-x="1337" d="M1320 1226V1194Q1209 1194 1176 1152T1142 1003V504Q1142 337 1099 217T953 34T668 -30Q468 -30 365 36T224 226T187 528V1010Q187 1078 178 1118T134 1176T28 1194V1226H521V1194Q415 1194
388 1153T361 1010V474Q361 360 384 264T475 108T680 49Q763 49 839 76T976 160Q1016 197 1033 261T1055 395T1060 514V1010Q1060 1087 1049 1126T1000 1180T884 1194V1226H1320ZM922 1602Q922 1571 900 1549T849 1507L581 1339H507L762 1597Q785 1620 812 1638T874
1656Q897 1656 909 1640T922 1602Z" />
<glyph unicode="&#xdb;" glyph-name="Ucircumflex" horiz-adv-x="1337" d="M1320 1226V1194Q1209 1194 1176 1152T1142 1003V504Q1142 337 1099 217T953 34T668 -30Q468 -30 365 36T224 226T187 528V1010Q187 1078 178 1118T134 1176T28 1194V1226H521V1194Q415
1194 388 1153T361 1010V474Q361 360 384 264T475 108T680 49Q763 49 839 76T976 160Q1016 197 1033 261T1055 395T1060 514V1010Q1060 1087 1049 1126T1000 1180T884 1194V1226H1320ZM963 1327H899L673 1519L447 1327H383L617 1637H732L963 1327Z" />
<glyph unicode="&#xdc;" glyph-name="Udieresis" horiz-adv-x="1337" d="M1320 1226V1194Q1209 1194 1176 1152T1142 1003V504Q1142 337 1099 217T953 34T668 -30Q468 -30 365 36T224 226T187 528V1010Q187 1078 178 1118T134 1176T28 1194V1226H521V1194Q415
1194 388 1153T361 1010V474Q361 360 384 264T475 108T680 49Q763 49 839 76T976 160Q1016 197 1033 261T1055 395T1060 514V1010Q1060 1087 1049 1126T1000 1180T884 1194V1226H1320ZM936 1495Q936 1457 909 1430T845 1402Q808 1402 780 1430T751 1495Q751 1530
780 1557T845 1585Q882 1585 909 1559T936 1495ZM568 1495Q568 1457 540 1430T474 1402Q437 1402 410 1430T383 1495Q383 1530 411 1557T474 1585Q511 1585 539 1559T568 1495Z" />
<glyph unicode="&#xdd;" glyph-name="Yacute" horiz-adv-x="1337" d="M1313 1226V1194Q1223 1193 1173 1148T1072 1024L750 521V214Q750 139 762 101T811 49T924 35V0H403V35Q480 35 515 49T561 101T572 214V504L239 1018Q213 1058 182 1098T111 1166T17 1194V1226H541V1194Q516
1194 483 1189T426 1168T401 1114Q401 1093 431 1036T507 907T598 767T676 651T710 600L954 978Q969 1001 988 1039T1008 1106Q1008 1156 967 1175T884 1194V1226H1313ZM913 1602Q913 1571 891 1549T840 1507L572 1339H498L753 1597Q776 1620 803 1638T865 1656Q888
1656 900 1640T913 1602Z" />
<glyph unicode="&#xde;" glyph-name="Thorn" horiz-adv-x="1031" d="M961 616Q961 506 906 430T752 315T528 276H379V221Q379 130 401 82T518 34H557V0H34V34H66Q157 34 181 75T205 217V1009Q205 1099 183 1146T68 1194H34V1226H557V1194H518Q433 1194 406 1147T379
1009V949H532Q655 949 752 911T905 798T961 616ZM750 613Q750 741 670 810T470 880H379V338H432Q604 338 677 417T750 613Z" />
<glyph unicode="&#xdf;" glyph-name="germandbls" horiz-adv-x="928" d="M868 382Q868 279 831 189T726 44T563 -11Q488 -11 439 30T389 136Q389 171 407 192T461 214Q536 214 536 143Q536 130 531 110T526 82Q526 61 541 51T578 40Q638 40 675 101T713 283Q713
468 649 579T448 701V752Q539 752 590 806T642 998Q642 1121 594 1173T468 1226Q420 1226 383 1204T324 1120T302 937V0H32V34Q103 36 127 68T151 203V876Q151 1096 234 1192T474 1288Q619 1288 706 1207T793 994Q793 924 762 857T620 743Q739 709 803 621T868
382Z" />
<glyph unicode="&#xe0;" glyph-name="agrave" horiz-adv-x="823" d="M821 172V120Q787 74 737 29T624 -17Q566 -17 547 27T528 120Q468 72 406 28T263 -17Q169 -17 118 44T66 197Q66 272 115 329T238 429T391 500T528 548V582Q528 638 517 687T473 768T373 799Q291
799 271 756T251 644Q251 604 235 581T174 558Q132 558 115 582T98 644Q98 719 148 765T268 832T401 853Q558 853 618 789T678 570V288Q678 253 678 210T683 143Q685 126 694 112T722 98Q736 98 756 113T794 145T821 172ZM528 180V497Q467 474 395 439T270 355T218
239Q218 185 252 137T347 89Q394 89 442 119T528 180ZM576 943H500L235 1111Q153 1163 153 1192Q153 1261 210 1261Q258 1261 318 1201L576 943Z" />
<glyph unicode="&#xe1;" glyph-name="aacute" horiz-adv-x="823" d="M821 172V120Q787 74 737 29T624 -17Q566 -17 547 27T528 120Q468 72 406 28T263 -17Q169 -17 118 44T66 197Q66 272 115 329T238 429T391 500T528 548V582Q528 638 517 687T473 768T373 799Q291
799 271 756T251 644Q251 604 235 581T174 558Q132 558 115 582T98 644Q98 719 148 765T268 832T401 853Q558 853 618 789T678 570V288Q678 253 678 210T683 143Q685 126 694 112T722 98Q736 98 756 113T794 145T821 172ZM528 180V497Q467 474 395 439T270 355T218
239Q218 185 252 137T347 89Q394 89 442 119T528 180ZM652 1206Q652 1175 630 1153T579 1111L311 943H237L492 1201Q515 1224 542 1242T604 1260Q627 1260 639 1244T652 1206Z" />
<glyph unicode="&#xe2;" glyph-name="acircumflex" horiz-adv-x="823" d="M821 172V120Q787 74 737 29T624 -17Q566 -17 547 27T528 120Q468 72 406 28T263 -17Q169 -17 118 44T66 197Q66 272 115 329T238 429T391 500T528 548V582Q528 638 517 687T473 768T373
799Q291 799 271 756T251 644Q251 604 235 581T174 558Q132 558 115 582T98 644Q98 719 148 765T268 832T401 853Q558 853 618 789T678 570V288Q678 253 678 210T683 143Q685 126 694 112T722 98Q736 98 756 113T794 145T821 172ZM528 180V497Q467 474 395 439T270
355T218 239Q218 185 252 137T347 89Q394 89 442 119T528 180ZM693 1187H629L403 1379L177 1187H113L347 1497H462L693 1187Z" />
<glyph unicode="&#xe3;" glyph-name="atilde" horiz-adv-x="823" d="M821 172V120Q787 74 737 29T624 -17Q566 -17 547 27T528 120Q468 72 406 28T263 -17Q169 -17 118 44T66 197Q66 272 115 329T238 429T391 500T528 548V582Q528 638 517 687T473 768T373 799Q291
799 271 756T251 644Q251 604 235 581T174 558Q132 558 115 582T98 644Q98 719 148 765T268 832T401 853Q558 853 618 789T678 570V288Q678 253 678 210T683 143Q685 126 694 112T722 98Q736 98 756 113T794 145T821 172ZM528 180V497Q467 474 395 439T270 355T218
239Q218 185 252 137T347 89Q394 89 442 119T528 180ZM712 1216Q704 1141 649 1080T515 1018Q465 1018 433 1031T376 1061T322 1091T249 1104Q211 1104 179 1077T143 1018H95Q114 1098 163 1152T300 1206Q348 1206 383 1186T453 1145T535 1124Q579 1124 616 1148T664
1216H712Z" />
<glyph unicode="&#xe4;" glyph-name="adieresis" horiz-adv-x="823" d="M821 172V120Q787 74 737 29T624 -17Q566 -17 547 27T528 120Q468 72 406 28T263 -17Q169 -17 118 44T66 197Q66 272 115 329T238 429T391 500T528 548V582Q528 638 517 687T473 768T373
799Q291 799 271 756T251 644Q251 604 235 581T174 558Q132 558 115 582T98 644Q98 719 148 765T268 832T401 853Q558 853 618 789T678 570V288Q678 253 678 210T683 143Q685 126 694 112T722 98Q736 98 756 113T794 145T821 172ZM528 180V497Q467 474 395 439T270
355T218 239Q218 185 252 137T347 89Q394 89 442 119T528 180ZM666 1355Q666 1317 639 1290T575 1262Q538 1262 510 1290T481 1355Q481 1390 510 1417T575 1445Q612 1445 639 1419T666 1355ZM298 1355Q298 1317 270 1290T204 1262Q167 1262 140 1290T113 1355Q113
1390 141 1417T204 1445Q241 1445 269 1419T298 1355Z" />
<glyph unicode="&#xe5;" glyph-name="aring" horiz-adv-x="823" d="M821 172V120Q787 74 737 29T624 -17Q566 -17 547 27T528 120Q468 72 406 28T263 -17Q169 -17 118 44T66 197Q66 272 115 329T238 429T391 500T528 548V582Q528 638 517 687T473 768T373 799Q291
799 271 756T251 644Q251 604 235 581T174 558Q132 558 115 582T98 644Q98 719 148 765T268 832T401 853Q558 853 618 789T678 570V288Q678 253 678 210T683 143Q685 126 694 112T722 98Q736 98 756 113T794 145T821 172ZM528 180V497Q467 474 395 439T270 355T218
239Q218 185 252 137T347 89Q394 89 442 119T528 180ZM576 1116Q576 1039 523 991T405 943Q341 943 286 991T230 1116Q230 1193 282 1241T405 1289Q469 1289 522 1243T576 1116ZM513 1116Q513 1166 480 1196T405 1226Q359 1226 326 1196T292 1116Q292 1064 327
1035T405 1006Q450 1006 481 1039T513 1116Z" />
<glyph unicode="&#xe6;" glyph-name="ae" horiz-adv-x="1237" d="M1152 310L1181 289Q1159 207 1117 135T1009 19T845 -26Q728 -26 672 17T578 119Q552 96 507 62T402 1T269 -26Q185 -26 126 34T66 182Q66 266 109 321T251 425T510 540V623Q510 723 474 763T376
803Q318 803 282 775T246 706Q246 685 248 671T250 643Q250 606 228 584T176 562Q133 562 114 588T95 648Q95 693 127 740T226 820T400 852Q513 852 569 821T643 743Q687 803 746 827T886 852Q1020 852 1099 764T1181 514H664V449Q664 302 716 206T895 110Q913
110 958 118T1057 168T1152 310ZM664 572H1007Q1004 688 958 739T840 790Q770 790 718 737T664 572ZM553 168Q534 204 522 269T510 401V481Q442 456 375 425T264 348T220 233Q220 166 261 119T364 71Q399 71 438 90T553 168Z" />
<glyph unicode="&#xe7;" glyph-name="ccedilla" horiz-adv-x="823" d="M734 326L762 314Q748 229 702 151T582 22T415 -28Q295 -28 217 38T100 206T61 413Q61 529 109 629T247 791T457 853Q513 853 578 831T691 765T739 654Q739 614 716 596T654 577Q605 577 586
599T561 653T547 718T514 772T427 794Q348 794 301 747T232 629T211 492Q211 431 226 366T273 244T356 153T479 118Q579 118 639 181T734 326ZM646 -262Q646 -319 606 -353T511 -401T408 -416Q332 -416 258 -389L285 -330Q313 -340 342 -346T400 -353Q441 -353
474 -337T508 -274Q508 -233 484 -218T423 -203Q386 -203 356 -212L344 -203L426 -6H492L440 -138Q453 -136 466 -135T492 -133Q553 -133 599 -164T646 -262Z" />
<glyph unicode="&#xe8;" glyph-name="egrave" horiz-adv-x="823" d="M742 322L769 302Q757 217 711 142T593 19T430 -28Q311 -28 231 35T109 198T68 406Q68 525 110 627T237 791T452 853Q602 853 685 758T769 516H197Q197 427 229 336T328 183T499 122Q594 122
651 179T742 322ZM197 568H580Q580 623 562 673T504 756T401 788Q308 788 256 720T197 568ZM623 943H547L282 1111Q200 1163 200 1192Q200 1261 257 1261Q305 1261 365 1201L623 943Z" />
<glyph unicode="&#xe9;" glyph-name="eacute" horiz-adv-x="823" d="M742 322L769 302Q757 217 711 142T593 19T430 -28Q311 -28 231 35T109 198T68 406Q68 525 110 627T237 791T452 853Q602 853 685 758T769 516H197Q197 427 229 336T328 183T499 122Q594 122
651 179T742 322ZM197 568H580Q580 623 562 673T504 756T401 788Q308 788 256 720T197 568ZM699 1206Q699 1175 677 1153T626 1111L358 943H284L539 1201Q562 1224 589 1242T651 1260Q674 1260 686 1244T699 1206Z" />
<glyph unicode="&#xea;" glyph-name="ecircumflex" horiz-adv-x="823" d="M742 322L769 302Q757 217 711 142T593 19T430 -28Q311 -28 231 35T109 198T68 406Q68 525 110 627T237 791T452 853Q602 853 685 758T769 516H197Q197 427 229 336T328 183T499 122Q594
122 651 179T742 322ZM197 568H580Q580 623 562 673T504 756T401 788Q308 788 256 720T197 568ZM740 931H676L450 1123L224 931H160L394 1241H509L740 931Z" />
<glyph unicode="&#xeb;" glyph-name="edieresis" horiz-adv-x="823" d="M742 322L769 302Q757 217 711 142T593 19T430 -28Q311 -28 231 35T109 198T68 406Q68 525 110 627T237 791T452 853Q602 853 685 758T769 516H197Q197 427 229 336T328 183T499 122Q594
122 651 179T742 322ZM197 568H580Q580 623 562 673T504 756T401 788Q308 788 256 720T197 568ZM713 1099Q713 1061 686 1034T622 1006Q585 1006 557 1034T528 1099Q528 1134 557 1161T622 1189Q659 1189 686 1163T713 1099ZM345 1099Q345 1061 317 1034T251 1006Q214
1006 187 1034T160 1099Q160 1134 188 1161T251 1189Q288 1189 316 1163T345 1099Z" />
<glyph unicode="&#xec;" glyph-name="igrave" horiz-adv-x="516" d="M474 0H68V35Q149 35 173 62T197 169V624Q197 665 186 699T133 734Q119 734 102 730T68 720L56 752L307 853H347V169Q347 90 370 63T474 35V0ZM694 943H618L353 1111Q271 1163 271 1192Q271
1261 328 1261Q376 1261 436 1201L694 943Z" />
<glyph unicode="&#xed;" glyph-name="iacute" horiz-adv-x="516" d="M474 0H68V35Q149 35 173 62T197 169V624Q197 665 186 699T133 734Q119 734 102 730T68 720L56 752L307 853H347V169Q347 90 370 63T474 35V0ZM770 1206Q770 1175 748 1153T697 1111L429 943H355L610
1201Q633 1224 660 1242T722 1260Q745 1260 757 1244T770 1206Z" />
<glyph unicode="&#xee;" glyph-name="icircumflex" horiz-adv-x="516" d="M474 0H68V35Q149 35 173 62T197 169V624Q197 665 186 699T133 734Q119 734 102 730T68 720L56 752L307 853H347V169Q347 90 370 63T474 35V0ZM811 1187H747L521 1379L295 1187H231L465
1497H580L811 1187Z" />
<glyph unicode="&#xef;" glyph-name="idieresis" horiz-adv-x="516" d="M474 0H68V35Q149 35 173 62T197 169V624Q197 665 186 699T133 734Q119 734 102 730T68 720L56 752L307 853H347V169Q347 90 370 63T474 35V0ZM784 1355Q784 1317 757 1290T693 1262Q656
1262 628 1290T599 1355Q599 1390 628 1417T693 1445Q730 1445 757 1419T784 1355ZM416 1355Q416 1317 388 1290T322 1262Q285 1262 258 1290T231 1355Q231 1390 259 1417T322 1445Q359 1445 387 1419T416 1355Z" />
<glyph unicode="&#xf0;" glyph-name="eth" horiz-adv-x="928" d="M859 428Q859 314 811 210T672 40T452 -26Q343 -26 254 30T113 182T61 400Q61 516 110 617T246 782T443 845Q481 845 511 839T595 793Q559 867 517 933T424 1060L199 936L175 986L385 1105Q346
1145 321 1167T273 1206T216 1248L239 1288Q294 1261 349 1226T463 1148L689 1273L720 1223L512 1105Q679 957 769 779T859 428ZM692 341Q692 547 621 669T433 791Q381 791 334 762T258 663T228 469Q228 350 261 253T355 98T496 40Q579 40 635 110T692 341Z" />
<glyph unicode="&#xf1;" glyph-name="ntilde" horiz-adv-x="926" d="M924 0H509V35Q572 35 600 48T636 94T644 187V526Q644 573 637 623T603 707T514 742Q449 742 395 705T300 624V187Q300 129 307 96T343 49T434 35V0H22V35Q83 35 109 51T141 101T148 187V569Q148
631 137 682T84 734Q69 734 53 730T22 720L10 752L263 853H300V678Q350 740 421 796T577 853Q667 853 714 806T777 688T794 541V187Q794 108 814 72T924 35V0ZM775 1216Q767 1141 712 1080T578 1018Q528 1018 496 1031T439 1061T385 1091T312 1104Q274 1104 242
1077T206 1018H158Q177 1098 226 1152T363 1206Q411 1206 446 1186T516 1145T598 1124Q642 1124 679 1148T727 1216H775Z" />
<glyph unicode="&#xf2;" glyph-name="ograve" horiz-adv-x="926" d="M863 430Q863 310 814 206T673 37T455 -28Q336 -28 247 34T110 195T61 406Q61 522 110 624T250 789T464 853Q585 853 674 796T813 643T863 430ZM694 359Q694 419 682 493T641 636T561 749T434
794Q352 794 309 743T249 620T232 481Q232 422 244 347T286 202T366 86T492 40Q579 40 622 91T680 217T694 359ZM635 943H559L294 1111Q212 1163 212 1192Q212 1261 269 1261Q317 1261 377 1201L635 943Z" />
<glyph unicode="&#xf3;" glyph-name="oacute" horiz-adv-x="926" d="M863 430Q863 310 814 206T673 37T455 -28Q336 -28 247 34T110 195T61 406Q61 522 110 624T250 789T464 853Q585 853 674 796T813 643T863 430ZM694 359Q694 419 682 493T641 636T561 749T434
794Q352 794 309 743T249 620T232 481Q232 422 244 347T286 202T366 86T492 40Q579 40 622 91T680 217T694 359ZM711 1206Q711 1175 689 1153T638 1111L370 943H296L551 1201Q574 1224 601 1242T663 1260Q686 1260 698 1244T711 1206Z" />
<glyph unicode="&#xf4;" glyph-name="ocircumflex" horiz-adv-x="926" d="M863 430Q863 310 814 206T673 37T455 -28Q336 -28 247 34T110 195T61 406Q61 522 110 624T250 789T464 853Q585 853 674 796T813 643T863 430ZM694 359Q694 419 682 493T641 636T561 749T434
794Q352 794 309 743T249 620T232 481Q232 422 244 347T286 202T366 86T492 40Q579 40 622 91T680 217T694 359ZM752 931H688L462 1123L236 931H172L406 1241H521L752 931Z" />
<glyph unicode="&#xf5;" glyph-name="otilde" horiz-adv-x="926" d="M863 430Q863 310 814 206T673 37T455 -28Q336 -28 247 34T110 195T61 406Q61 522 110 624T250 789T464 853Q585 853 674 796T813 643T863 430ZM694 359Q694 419 682 493T641 636T561 749T434
794Q352 794 309 743T249 620T232 481Q232 422 244 347T286 202T366 86T492 40Q579 40 622 91T680 217T694 359ZM771 1216Q763 1141 708 1080T574 1018Q524 1018 492 1031T435 1061T381 1091T308 1104Q270 1104 238 1077T202 1018H154Q173 1098 222 1152T359 1206Q407
1206 442 1186T512 1145T594 1124Q638 1124 675 1148T723 1216H771Z" />
<glyph unicode="&#xf6;" glyph-name="odieresis" horiz-adv-x="926" d="M863 430Q863 310 814 206T673 37T455 -28Q336 -28 247 34T110 195T61 406Q61 522 110 624T250 789T464 853Q585 853 674 796T813 643T863 430ZM694 359Q694 419 682 493T641 636T561 749T434
794Q352 794 309 743T249 620T232 481Q232 422 244 347T286 202T366 86T492 40Q579 40 622 91T680 217T694 359ZM725 1099Q725 1061 698 1034T634 1006Q597 1006 569 1034T540 1099Q540 1134 569 1161T634 1189Q671 1189 698 1163T725 1099ZM357 1099Q357 1061
329 1034T263 1006Q226 1006 199 1034T172 1099Q172 1134 200 1161T263 1189Q300 1189 328 1163T357 1099Z" />
<glyph unicode="&#xf7;" glyph-name="divide" horiz-adv-x="1782" d="M997 821Q997 777 967 746T892 715Q846 715 815 746T784 821Q784 865 815 897T892 929Q937 929 967 897T997 821ZM1426 479H356V590H1426V479ZM997 248Q997 205 967 174T892 143Q846 143 815
174T784 248Q784 292 815 323T892 354Q937 354 967 323T997 248Z" />
<glyph unicode="&#xf8;" glyph-name="oslash" horiz-adv-x="928" d="M892 847L770 709Q866 585 866 428Q866 352 841 272T765 125T638 16T458 -26Q386 -26 328 -3T199 78L78 -61L36 -22L163 122Q120 175 93 257T66 412Q66 487 93 564T171 707T298 812T470 852Q544
852 603 831T731 752L851 886L892 847ZM638 652Q589 734 544 763T443 793Q353 793 294 722T235 481Q235 426 243 367T271 245L638 652ZM698 364Q698 468 664 592L296 186Q344 102 387 71T496 40Q582 40 640 110T698 364Z" />
<glyph unicode="&#xf9;" glyph-name="ugrave" horiz-adv-x="926" d="M929 76L678 -28H636V150Q600 111 557 70T463 0T354 -28Q264 -28 218 22T156 148T140 295V666Q140 747 109 770T0 794V828H293V275Q293 228 303 185T344 114T430 86Q489 86 543 125T636 204V673Q636
749 604 771T502 794V828H786V218Q786 200 789 171T803 118T842 94Q882 94 917 108L929 76ZM638 943H562L297 1111Q215 1163 215 1192Q215 1261 272 1261Q320 1261 380 1201L638 943Z" />
<glyph unicode="&#xfa;" glyph-name="uacute" horiz-adv-x="926" d="M929 76L678 -28H636V150Q600 111 557 70T463 0T354 -28Q264 -28 218 22T156 148T140 295V666Q140 747 109 770T0 794V828H293V275Q293 228 303 185T344 114T430 86Q489 86 543 125T636 204V673Q636
749 604 771T502 794V828H786V218Q786 200 789 171T803 118T842 94Q882 94 917 108L929 76ZM713 1206Q713 1175 691 1153T640 1111L372 943H298L553 1201Q576 1224 603 1242T665 1260Q688 1260 700 1244T713 1206Z" />
<glyph unicode="&#xfb;" glyph-name="ucircumflex" horiz-adv-x="926" d="M929 76L678 -28H636V150Q600 111 557 70T463 0T354 -28Q264 -28 218 22T156 148T140 295V666Q140 747 109 770T0 794V828H293V275Q293 228 303 185T344 114T430 86Q489 86 543 125T636
204V673Q636 749 604 771T502 794V828H786V218Q786 200 789 171T803 118T842 94Q882 94 917 108L929 76ZM754 931H690L464 1123L238 931H174L408 1241H523L754 931Z" />
<glyph unicode="&#xfc;" glyph-name="udieresis" horiz-adv-x="926" d="M929 76L678 -28H636V150Q600 111 557 70T463 0T354 -28Q264 -28 218 22T156 148T140 295V666Q140 747 109 770T0 794V828H293V275Q293 228 303 185T344 114T430 86Q489 86 543 125T636 204V673Q636
749 604 771T502 794V828H786V218Q786 200 789 171T803 118T842 94Q882 94 917 108L929 76ZM727 1099Q727 1061 700 1034T636 1006Q599 1006 571 1034T542 1099Q542 1134 571 1161T636 1189Q673 1189 700 1163T727 1099ZM359 1099Q359 1061 331 1034T265 1006Q228
1006 201 1034T174 1099Q174 1134 202 1161T265 1189Q302 1189 330 1163T359 1099Z" />
<glyph unicode="&#xfd;" glyph-name="yacute" horiz-adv-x="926" d="M917 828V794Q860 790 838 756T794 671L457 -157Q434 -213 394 -269T298 -363T176 -401Q130 -401 92 -374T54 -298Q54 -254 79 -235T145 -216Q179 -216 211 -232T272 -248Q308 -248 338 -213T391
-127T431 -31T457 35L160 659Q136 708 104 748T10 794V828H398V794Q364 794 330 787T295 734Q295 709 305 684T326 636L528 218L713 678Q720 695 726 712T732 745Q732 782 704 788T647 794V828H917ZM753 1206Q753 1175 731 1153T680 1111L412 943H338L593 1201Q616
1224 643 1242T705 1260Q728 1260 740 1244T753 1206Z" />
<glyph unicode="&#xfe;" glyph-name="thorn" horiz-adv-x="928" d="M864 445Q864 316 817 209T685 39T485 -26Q430 -26 388 -15T287 48V-203Q287 -268 295 -301T333 -346T428 -362V-396H-7V-362Q57 -358 88 -349T128 -306T138 -199V1058Q138 1098 128 1133T67
1169Q46 1169 8 1156L-1 1186L253 1288H287V656Q351 766 415 809T554 852Q646 852 716 799T825 653T864 445ZM702 360Q702 518 643 621T481 724Q456 724 434 719T378 688T287 602V293Q287 196 296 160Q308 113 354 71T481 29Q583 29 642 117T702 360Z" />
<glyph unicode="&#xff;" glyph-name="ydieresis" horiz-adv-x="926" d="M917 828V794Q860 790 838 756T794 671L457 -157Q434 -213 394 -269T298 -363T176 -401Q130 -401 92 -374T54 -298Q54 -254 79 -235T145 -216Q179 -216 211 -232T272 -248Q308 -248 338 -213T391
-127T431 -31T457 35L160 659Q136 708 104 748T10 794V828H398V794Q364 794 330 787T295 734Q295 709 305 684T326 636L528 218L713 678Q720 695 726 712T732 745Q732 782 704 788T647 794V828H917ZM767 1099Q767 1061 740 1034T676 1006Q639 1006 611 1034T582
1099Q582 1134 611 1161T676 1189Q713 1189 740 1163T767 1099ZM399 1099Q399 1061 371 1034T305 1006Q268 1006 241 1034T214 1099Q214 1134 242 1161T305 1189Q342 1189 370 1163T399 1099Z" />
<glyph unicode="&#x2013;" glyph-name="endash" horiz-adv-x="1337" d="M1297 347H40V481H1297V347Z" />
<glyph unicode="&#x2014;" glyph-name="emdash" horiz-adv-x="1649" d="M1609 347H40V481H1609V347Z" />
<glyph unicode="&#x2018;" glyph-name="quoteleft" horiz-adv-x="617" d="M450 1067Q450 1015 412 986T325 957Q253 957 208 1015T162 1143Q162 1264 229 1335T406 1440V1400Q355 1371 302 1323T249 1206Q249 1190 255 1170T285 1150Q302 1150 319 1158T356 1166Q396
1166 423 1136T450 1067Z" />
<glyph unicode="&#x2019;" glyph-name="quoteright" horiz-adv-x="617" d="M455 1255Q455 1134 388 1064T211 957V998Q262 1029 315 1077T368 1192Q368 1208 362 1228T332 1248Q316 1248 299 1240T261 1232Q221 1232 194 1263T167 1334Q167 1384 206 1412T292
1440Q365 1440 410 1382T455 1255Z" />
<glyph unicode="&#x201a;" glyph-name="quotesinglbase" horiz-adv-x="617" d="M450 0Q450 -116 385 -185T216 -288V-251Q266 -221 316 -174T366 -61Q366 -45 362 -26T335 -7Q316 -7 299 -14T265 -22Q227 -22 201 7T174 73Q174 123 211 151T295 180Q366 180 408
123T450 0Z" />
<glyph unicode="&#x201c;" glyph-name="quotedblleft" horiz-adv-x="962" d="M832 1067Q832 1017 794 987T711 957Q637 957 593 1017T548 1145Q548 1264 615 1336T792 1443V1403Q758 1382 722 1354T660 1290T634 1209Q634 1193 640 1173T670 1153Q687 1153 704
1159T738 1166Q779 1166 805 1136T832 1067ZM385 1069Q385 1019 346 989T260 959Q187 959 144 1018T100 1145Q100 1266 167 1338T342 1446V1405Q290 1375 239 1327T187 1211Q187 1193 192 1173T223 1153Q240 1153 256 1160T291 1168Q332 1168 358 1138T385 1069Z"
/>
<glyph unicode="&#x201d;" glyph-name="quotedblright" horiz-adv-x="964" d="M864 1253Q864 1134 797 1062T621 955V995Q672 1026 725 1074T778 1189Q778 1206 772 1227T742 1248Q725 1248 708 1240T672 1232Q632 1232 606 1261T580 1330Q580 1383 617 1411T702
1440Q774 1440 819 1381T864 1253ZM417 1255Q417 1134 350 1064T173 957V998Q224 1029 277 1077T330 1192Q330 1208 324 1228T294 1248Q278 1248 261 1240T224 1232Q184 1232 157 1263T130 1334Q130 1384 169 1412T255 1440Q327 1440 372 1382T417 1255Z" />
<glyph unicode="&#x201e;" glyph-name="quotedblbase" horiz-adv-x="821" d="M769 -2Q769 -117 704 -186T535 -290V-251Q584 -221 634 -175T685 -64Q685 -47 679 -29T652 -10Q635 -10 618 -16T584 -22Q546 -22 520 6T494 73Q494 122 530 151T612 180Q684 180 726
122T769 -2ZM337 0Q337 -116 272 -185T101 -288V-251Q151 -221 202 -174T253 -61Q253 -45 247 -26T218 -7Q202 -7 186 -14T152 -22Q112 -22 87 7T61 73Q61 123 97 151T180 180Q251 180 294 123T337 0Z" />
<glyph unicode="&#x2022;" glyph-name="bullet" horiz-adv-x="535" d="M472 607Q472 521 412 461T268 401Q181 401 121 461T61 607Q61 692 121 751T268 811Q352 811 412 752T472 607Z" />
<glyph unicode="&#x2039;" glyph-name="guilsinglleft" horiz-adv-x="492" d="M381 9L362 -8Q335 12 293 46T209 133T137 257T108 419Q108 512 136 583T207 706T291 792T362 845L377 827Q313 753 275 648T237 419Q237 292 275 196T381 9Z" />
<glyph unicode="&#x203a;" glyph-name="guilsinglright" horiz-adv-x="492" d="M111 9Q179 99 217 195T255 419Q255 542 218 647T115 827L130 845Q158 827 200 793T285 706T355 583T384 419Q384 328 355 257T284 134T199 47T130 -8L111 9Z" />
</font>
</defs>
</svg>
