<?xml version="1.0" standalone="no"?>
<!DOCTYPE svg PUBLIC "-//W3C//DTD SVG 1.1//EN" "http://www.w3.org/Graphics/SVG/1.1/DTD/svg11.dtd">
<svg xmlns="http://www.w3.org/2000/svg">
<defs >
<font id="ProtestRiot" horiz-adv-x="513" ><font-face
    font-family="Protest Riot"
    units-per-em="1000"
    panose-1="0 0 0 0 0 0 0 0 0 0"
    ascent="960"
    descent="-240"
    alphabetic="0" />
<glyph unicode=" " glyph-name="space" horiz-adv-x="250" />
<glyph unicode="!" glyph-name="exclam" horiz-adv-x="280" d="M169 227Q148 227 125 235T86 258T70 296Q70 307 70 339T71 416T73 513T77 615T81 708T87 777Q89 796 97 801T119 807Q144 807 170 795T215 763T234 719Q234 708 231 676T221 600T209 504T196 402T187
310T183 240Q183 236 180 232T169 227ZM153 -31Q121 -31 95 -24T54 2T41 57Q42 75 46 96T71 124Q82 126 98 126T127 127Q154 127 187 118Q203 115 203 106Q203 84 196 55T182 -27Q167 -31 153 -31Z" />
<glyph unicode="&quot;" glyph-name="quotedbl" horiz-adv-x="439" d="M108 419Q94 419 83 430Q75 439 67 467T51 534T40 613T35 686Q35 733 46 747Q54 756 82 765T142 774Q159 774 173 772T193 766Q198 763 199 753T200 727Q200 702 196 667T186 594T173 523T160
467T148 440Q138 431 129 425T108 419ZM311 419Q297 419 286 430Q278 439 270 467T254 534T243 613T238 686Q238 733 249 747Q257 756 285 765T345 774Q362 774 376 772T396 766Q401 763 402 753T403 727Q403 702 399 667T389 594T376 523T363 467T351 440Q341
431 332 425T311 419Z" />
<glyph unicode="#" glyph-name="numbersign" horiz-adv-x="605" d="M120 -6Q106 -6 91 -3T67 7T62 28L103 170Q101 170 99 170Q79 170 59 186T25 222T11 248Q11 255 27 258T72 261H130L162 374Q130 374 121 374Q101 374 81 390T47 426T33 452Q33 459 49 462T94
465L189 466L233 617Q236 630 255 632Q259 633 268 633Q288 633 307 621T328 581Q328 579 319 548T295 466L374 467L418 617Q421 630 440 632Q444 633 453 633Q473 633 492 621T513 581Q513 579 504 548T481 468H500Q518 468 537 454T571 423T585 393Q585 386 571
382T543 376Q536 376 512 376T452 375Q435 320 418 264H458Q476 264 495 250T529 219T543 189Q543 182 529 178T501 172Q492 172 461 172T388 171Q372 122 358 80T334 8Q331 -2 323 -5Q319 -6 315 -6T305 -6Q291 -6 276 -3T252 7T247 28L288 171Q266 170 245 170T203
170Q187 121 173 79T149 8Q146 -2 138 -5Q134 -6 130 -6T120 -6ZM267 374Q250 318 232 262L315 263L348 375Q327 375 307 375T267 374Z" />
<glyph unicode="$" glyph-name="dollar" horiz-adv-x="523" d="M302 -106Q268 -106 240 -90T213 -54L216 24Q140 27 96 60T52 153Q52 183 62 205T93 227Q115 197 147 174T214 137T275 124Q296 124 309 133T322 162Q322 176 312 188T275 211L183 245Q140 261 117
278T85 320T76 379Q76 412 89 454T125 538T179 616T246 671L251 779Q251 785 258 787T276 790Q294 790 314 782T348 759T362 721L360 681Q394 670 418 649T457 603T471 561Q471 537 462 508T442 448T424 390Q423 382 419 377T405 371Q394 371 380 382T352 410T329
443T320 468Q320 486 326 507T339 548T345 578Q345 584 344 587T337 591Q322 591 300 571T257 520T222 454T208 390Q208 363 239 350L356 301Q409 279 432 249T455 181Q455 116 420 80T326 32L318 -95Q317 -106 302 -106Z" />
<glyph unicode="%" glyph-name="percent" horiz-adv-x="856" d="M177 -27Q168 -27 155 -21T132 -5T121 16Q121 19 121 22T126 29Q136 45 163 83T229 175T313 289T405 412T495 532T572 634T626 705T646 731Q650 739 666 739Q686 739 702 726T715 679Q715 674 691
641T627 554T537 435T435 302T334 171T248 59T190 -18Q187 -22 185 -24T177 -27ZM212 309Q170 309 128 332T58 395T30 484Q30 548 53 601T115 687T199 720Q242 720 283 697T353 635T381 545Q381 482 358 428T296 342T212 309ZM175 389Q197 389 215 407T247 453T268
512T276 570Q276 600 266 620T236 640Q214 640 196 622T164 576T143 517T135 459Q135 429 145 409T175 389ZM659 -10Q617 -10 575 13T505 76T477 165Q477 229 500 282T562 368T646 401Q689 401 730 378T800 316T828 226Q828 163 805 109T743 23T659 -10ZM622 70Q644
70 662 88T694 134T715 193T723 251Q723 281 713 301T683 321Q661 321 643 303T611 257T590 198T582 140Q582 110 592 90T622 70Z" />
<glyph unicode="&amp;" glyph-name="ampersand" horiz-adv-x="777" d="M589 -142Q534 -142 476 -99T361 8Q333 -14 299 -26T229 -39Q190 -39 154 -20T94 46Q58 73 42 103T26 167Q26 217 58 269T146 372Q130 417 121 458T111 534Q111 584 134 630T194 706T277 736Q292
736 305 733Q322 741 348 747T401 753Q428 753 451 745T489 718T504 665Q504 606 480 563T417 485T335 419L577 421Q635 422 674 406T732 363T752 307Q752 294 747 279Q746 274 739 274Q730 274 709 280T653 293T565 299Q556 259 534 203T471 95Q524 39 576 8T666
-24Q689 -24 711 -16T747 -7Q774 -7 774 -26Q774 -56 747 -82T677 -125T589 -142ZM246 457H248Q283 486 311 528T339 613Q339 634 329 644T304 655Q298 655 292 653T279 648Q257 623 249 589T240 520Q240 484 246 457ZM388 193Q433 238 461 300Q425 302 385 306T315
314V311Q331 280 350 250T388 193ZM221 91Q243 91 259 97T283 109Q262 141 239 181T198 256H196Q177 240 167 211T157 149Q157 138 158 126T162 103Q195 91 221 91Z" />
<glyph unicode="&apos;" glyph-name="quotesingle" horiz-adv-x="236" d="M108 419Q94 419 83 430Q75 439 67 467T51 534T40 613T35 686Q35 733 46 747Q54 756 82 765T142 774Q159 774 173 772T193 766Q198 763 199 753T200 727Q200 702 196 667T186 594T173 523T160
467T148 440Q138 431 129 425T108 419Z" />
<glyph unicode="(" glyph-name="parenleft" horiz-adv-x="381" d="M236 -98Q180 -98 144 -55T90 61T73 220Q73 296 85 375T121 526T178 656T255 747T350 781Q392 781 415 760T436 701Q384 677 344 626T277 508T235 364T221 212Q221 132 238 61T290 -59Q289 -78
272 -88T236 -98Z" />
<glyph unicode=")" glyph-name="parenright" horiz-adv-x="381" d="M145 781Q202 781 238 738T291 622T308 463Q308 387 296 308T260 157T203 27T126 -64T31 -98Q-11 -98 -33 -77T-55 -18Q-3 6 37 57T104 175T146 319T160 471Q160 551 143 622T91 742Q92 761 109
771T145 781Z" />
<glyph unicode="*" glyph-name="asterisk" horiz-adv-x="482" d="M273 356Q258 356 240 363T208 384T194 412V509Q155 495 121 482T66 457Q62 455 62 455Q53 455 47 466T38 491T35 513Q35 529 39 549T60 576L131 607Q98 629 74 646T42 669Q42 687 58 702T92 718Q108
718 124 711T156 692L198 664L196 796Q196 801 204 805T223 809Q238 809 259 802T295 781T311 745V678Q340 691 363 702T397 723Q410 723 416 711T425 684T428 657Q428 636 421 617T397 590L347 566L446 489Q446 477 436 468T414 455T393 450Q368 450 346 463T304
490L299 372Q299 362 292 359T273 356Z" />
<glyph unicode="+" glyph-name="plus" horiz-adv-x="450" d="M243 114Q220 114 198 121T161 144T148 179L152 245Q120 247 88 249Q77 250 61 265T33 299T21 329Q21 336 28 339T65 344T159 346L169 493Q170 501 180 506T205 511Q225 511 246 501T282 472T294 422L287
346H348Q357 346 371 336T398 311T420 282T429 258Q429 251 412 246T376 241Q350 242 326 242T277 242L266 131Q265 121 258 118T243 114Z" />
<glyph unicode="," glyph-name="comma" horiz-adv-x="300" d="M67 -131Q51 -131 41 -126T30 -102Q30 -84 45 -51T75 33T90 148Q107 152 123 152Q194 152 223 128T252 69Q252 38 234 3T188 -62T127 -112T67 -131Z" />
<glyph unicode="-" glyph-name="hyphen" horiz-adv-x="360" d="M112 296Q96 296 76 305T38 327T8 354T-4 374Q-4 391 8 396T38 401Q84 401 125 402T193 403T224 404Q255 404 283 391T329 360T347 329Q347 318 337 309T303 299Q255 297 222 297T162 296H112Z" />
<glyph unicode="." glyph-name="period" horiz-adv-x="300" d="M185 -31Q149 -31 120 -23T74 6T60 67Q61 81 62 96T71 124T93 141Q106 143 124 144T156 145Q186 145 222 135Q232 133 236 131T240 121Q240 96 233 64T217 -27Q200 -31 185 -31Z" />
<glyph unicode="/" glyph-name="slash" horiz-adv-x="427" d="M74 -136Q65 -136 51 -132T26 -113T14 -69Q14 -52 19 -31T34 18Q47 50 69 109T120 243T180 400T242 562T299 709T344 822Q349 834 367 834Q382 834 392 820T408 782T414 735Q414 722 407 694T385 627L137
-9Q123 -46 110 -75T88 -125Q82 -136 74 -136Z" />
<glyph unicode="0" glyph-name="zero" horiz-adv-x="635" d="M323 -15Q271 -15 230 -2T163 43Q108 73 79 131T49 255Q49 306 57 368T84 494T133 610T207 695T312 727Q353 727 387 716T446 673Q498 659 528 625T572 546T586 457Q586 406 578 344T551 218T503 102T428
17T323 -15ZM272 92Q304 92 331 116T379 182T414 273T436 375T444 474Q444 554 426 587T363 620Q328 620 300 596T252 530T218 439T198 337T191 238Q191 159 209 126T272 92Z" />
<glyph unicode="1" glyph-name="one" horiz-adv-x="383" d="M255 -13Q240 -13 220 -8T181 13T148 57T135 133Q135 177 137 265T152 481Q137 471 122 465T94 458Q65 458 42 475T18 523Q18 535 27 541Q92 580 135 628T206 719Q223 719 244 711T281 676Q298 670 304
657T310 625Q310 599 307 547T299 427T290 285T282 137T277 2Q277 -7 271 -10T255 -13Z" />
<glyph unicode="2" glyph-name="two" horiz-adv-x="512" d="M198 -17Q151 -17 116 -6T66 34Q39 45 29 68T18 120Q68 158 115 209T203 316T274 424T322 519T339 585Q339 621 302 621Q280 621 251 601T191 548T134 471T90 381Q50 395 30 427T9 496Q9 532 29 571T83
644T159 699T244 720Q288 720 324 710T388 664Q432 650 454 612T477 536Q477 497 453 445T387 334T291 220T176 117V115Q214 126 263 137T357 148Q408 148 444 128T481 52Q481 42 475 38T462 34Q448 34 413 27T336 9T256 -9T198 -17Z" />
<glyph unicode="3" glyph-name="three" horiz-adv-x="505" d="M152 -29Q128 -29 106 -16T66 19T38 61T28 99Q28 107 31 114T43 121Q129 121 185 132T274 163T320 204T334 249Q334 261 326 274T293 290Q245 270 200 270Q188 270 181 274Q167 283 149 298T118 333T104
371Q104 377 107 388T124 400Q180 400 223 416T295 459T340 512T356 561Q356 584 344 599T299 615Q275 615 248 601T195 565T149 517T118 465Q78 479 58 511T37 580Q37 614 62 646T135 699T248 720Q294 720 332 706T391 660Q436 640 453 605T471 540Q471 488 450
445T390 364Q430 343 449 310T469 235Q469 190 451 144T394 58T295 -5T152 -29Z" />
<glyph unicode="4" glyph-name="four" horiz-adv-x="582" d="M435 -13Q416 -13 390 -7T344 17T324 66Q324 83 326 100T331 152Q288 144 253 138T201 132Q163 132 132 139T90 165Q54 173 38 200T22 257Q57 312 82 379T123 511T148 628T156 702Q158 710 168 713T191
717Q215 717 237 704T275 665T290 605Q290 579 281 534T255 436T215 335T163 254V252Q182 257 213 266T279 283T344 293Q346 351 347 403T350 489T351 522Q353 530 363 533T386 537Q410 537 434 527T474 496T488 443L482 294Q517 286 542 266T568 210Q568 200 562
196T549 192Q542 192 520 190T475 182Q471 139 467 94T457 2Q455 -13 435 -13Z" />
<glyph unicode="5" glyph-name="five" horiz-adv-x="499" d="M136 -18Q112 -18 90 -5T51 30T23 72T13 110Q13 127 24 132Q183 132 252 177T322 307H216Q177 307 146 315T100 344Q65 355 51 380T37 433Q37 557 51 672Q71 678 104 686T175 701T252 714T320 720Q361
720 394 712T448 684T469 629Q469 619 463 615T450 611Q436 611 403 606T329 593T252 579T196 569V440Q220 440 257 436T332 419T396 377Q430 364 447 333T465 260Q465 233 455 197T421 123T360 54T267 2T136 -18Z" />
<glyph unicode="6" glyph-name="six" horiz-adv-x="574" d="M278 -15Q250 -15 217 -5T162 31Q109 57 79 119T49 283Q49 345 67 408T119 530T196 634T293 706T403 733Q429 733 456 718T503 682T522 643Q522 631 514 625Q425 611 347 566T227 440Q249 457 273 466T325
475Q357 475 394 460T446 411Q481 393 498 356T516 275Q516 212 497 160T444 68T368 7T278 -15ZM254 84Q277 84 300 105T344 163T375 250T382 358Q364 367 342 367Q313 367 284 352T231 310T198 253Q196 160 212 122T254 84Z" />
<glyph unicode="7" glyph-name="seven" horiz-adv-x="489" d="M166 -17Q137 -17 113 -5T75 27T61 67Q61 74 65 81T74 93Q147 168 195 242T276 400T335 591Q249 563 179 563Q107 563 61 594T15 692Q15 701 22 704T36 708Q50 708 86 710T166 714T249 718T309 720Q347
720 377 714T418 685Q443 671 450 654T458 611Q458 590 451 546T431 444T398 323T354 200T300 90T237 12T166 -17Z" />
<glyph unicode="8" glyph-name="eight" horiz-adv-x="570" d="M268 -15Q232 -15 198 -6T142 29Q88 51 62 86T34 157Q29 215 64 275T178 375Q139 404 118 436T93 521Q90 571 112 619T183 698T305 730Q348 730 387 719T448 679Q489 663 509 634T531 575Q535 518
507 468T419 366Q516 314 522 222Q524 203 515 173T486 111T435 50T363 3T268 -15ZM282 406Q317 419 340 449T375 518T387 593Q387 619 381 641Q334 641 305 617T262 557T248 487Q248 458 257 435T282 406ZM224 73Q267 82 299 113T348 183T366 255Q366 281 355
297T317 314Q250 283 220 234T190 143Q190 92 224 73Z" />
<glyph unicode="9" glyph-name="nine" horiz-adv-x="574" d="M296 729Q324 729 357 719T412 683Q465 657 495 595T525 431Q525 369 507 306T455 184T378 80T281 8T171 -19Q145 -19 118 -4T71 32T52 71Q52 83 60 89Q149 103 227 148T347 274Q325 257 301 248T249
239Q217 239 180 254T128 303Q94 321 76 358T58 439Q58 502 77 554T130 646T207 707T296 729ZM320 630Q298 630 274 609T230 551T199 464T192 356Q210 347 232 347Q262 347 291 362T343 404T376 461Q378 554 362 592T320 630Z" />
<glyph unicode=":" glyph-name="colon" horiz-adv-x="300" d="M185 -31Q149 -31 120 -23T74 6T60 67Q61 81 62 96T71 124T93 141Q106 143 124 144T156 145Q186 145 222 135Q232 133 236 131T240 121Q240 96 233 64T217 -27Q200 -31 185 -31ZM185 317Q149 317 120
325T74 354T60 415Q61 429 62 444T71 472T93 489Q106 491 124 492T156 493Q186 493 222 483Q232 481 236 479T240 469Q240 444 233 412T217 321Q200 317 185 317Z" />
<glyph unicode=";" glyph-name="semicolon" horiz-adv-x="300" d="M185 317Q149 317 120 325T74 354T60 415Q61 429 62 444T71 472T93 489Q106 491 124 492T156 493Q186 493 222 483Q232 481 236 479T240 469Q240 444 233 412T217 321Q200 317 185 317ZM67 -131Q51
-131 41 -126T30 -102Q30 -84 45 -51T75 33T90 148Q107 152 123 152Q194 152 223 128T252 69Q252 38 234 3T188 -62T127 -112T67 -131Z" />
<glyph unicode="&lt;" glyph-name="less" horiz-adv-x="450" d="M370 496Q378 496 391 487T415 464T426 433Q426 430 426 427T424 421Q420 410 415 403T398 387T360 365T292 329T180 273L432 158Q436 149 436 137Q436 122 426 110T390 98Q376 98 357 103T311 119L100
210Q59 228 36 255T12 305Q12 316 27 329T58 349L358 493Q361 494 364 495T370 496Z" />
<glyph unicode="=" glyph-name="equal" horiz-adv-x="450" d="M376 319Q326 320 281 320T190 322T88 327Q77 328 61 343T33 377T21 407Q21 413 26 416T49 421T106 423T212 424H348Q357 424 371 414T398 389T420 360T429 336Q429 329 412 324T376 319ZM376 409Q326
410 281 410T190 412T88 417Q77 418 61 433T33 467T21 497Q21 503 26 506T49 511T106 513T212 514H348Q357 514 371 504T398 479T420 450T429 426Q429 419 412 414T376 409Z" />
<glyph unicode="&gt;" glyph-name="greater" horiz-adv-x="450" d="M78 98Q70 98 57 107T33 130T22 161Q22 164 22 167T24 173Q28 184 33 191T50 207T88 229T156 265T268 321L16 436Q12 445 12 457Q12 472 22 484T58 496Q72 496 92 491T137 475L348 384Q389 366
412 339T436 289Q436 279 421 266T390 245L90 101Q87 100 84 99T78 98Z" />
<glyph unicode="?" glyph-name="question" horiz-adv-x="515" d="M192 179Q171 179 147 188T105 217T87 268Q87 320 110 359T168 427T237 479T294 522T318 565Q318 597 297 608T239 620Q201 620 167 604T113 563Q77 563 58 584T39 637Q39 668 60 696T129 744T255
763Q309 763 356 747T432 695T461 601Q461 552 445 517T403 456T348 405T291 353T245 289T222 202Q221 189 213 184T192 179ZM188 -31Q156 -31 130 -24T89 2T76 57Q77 75 81 96T106 124Q117 126 133 126T162 127Q189 127 222 118Q238 115 238 106Q238 84 231 55T217
-27Q202 -31 188 -31Z" />
<glyph unicode="@" glyph-name="at" horiz-adv-x="777" d="M424 -108Q332 -108 257 -83T149 1Q95 54 71 115T46 241Q46 318 78 391T167 523T300 617T465 652Q497 652 533 647T600 623T652 564Q677 564 698 539T720 453Q720 433 716 401T707 333T696 265Q694 247
693 231T692 197Q692 173 693 152T694 113Q694 98 685 92T661 85Q643 85 620 94T579 119T552 152Q488 94 418 94Q389 94 364 106T319 145Q289 166 276 193T262 249Q262 293 288 335T359 404T457 432Q493 432 512 429T556 417Q560 446 562 469T566 526Q527 539 486
539Q425 539 370 512T271 438T203 336T178 222Q178 185 190 150T227 83Q260 43 302 26T389 9Q433 9 476 22T557 55Q586 55 605 37T625 -7Q625 -34 607 -53T558 -84T493 -102T424 -108ZM425 215Q446 215 481 234T546 277L548 310Q535 324 514 324Q492 324 467 314T423
283T405 233Q405 215 425 215Z" />
<glyph unicode="A" glyph-name="A" horiz-adv-x="590" d="M132 -43Q98 -43 72 -18T45 60Q45 81 51 107Q34 121 25 139T16 171Q17 179 30 184T77 193Q107 278 146 380T239 602Q251 628 272 628Q281 628 291 623Q289 652 287 680Q286 704 296 715T323 726Q343 726
366 711T406 669T424 604Q425 566 430 507T444 379T461 244Q482 241 504 230T543 201T559 161Q559 145 548 141T520 137H496Q491 137 487 137T477 137Q485 90 492 58T505 16Q511 6 497 -4T465 -14Q431 -14 405 10T368 101Q366 110 365 120L178 91Q167 57 156 24Q148
-2 148 -17T146 -37T132 -43ZM312 430Q288 374 266 320T223 214L345 231Q336 281 328 330T312 430Z" />
<glyph unicode="B" glyph-name="B" horiz-adv-x="558" d="M222 -9Q193 -9 163 0T116 42Q84 54 70 79T58 139L92 629Q70 646 55 667T39 705Q39 714 45 717T58 721Q99 721 151 727T251 733Q307 733 355 717T440 675T496 616T517 551Q517 518 503 476T449 387T339
290Q429 280 471 247T514 171Q514 144 493 118T439 69T366 29T289 1T222 -9ZM236 478L225 330Q298 398 331 456T365 557Q365 592 343 614Q324 614 291 612T224 606Q238 578 238 525Q238 515 238 503T236 478ZM361 173Q361 189 324 201T217 214L208 99Q287 113 324
133T361 173Z" />
<glyph unicode="C" glyph-name="C" horiz-adv-x="502" d="M250 -13Q222 -13 190 -8T128 13T82 61Q55 79 41 119T27 215Q27 279 40 350T79 488T141 610T224 697T326 730Q359 730 383 723T428 686Q468 673 484 639T498 570Q497 537 479 495T446 410Q442 400 438
394T422 388Q399 388 378 404T343 444T329 491Q329 517 339 555T369 621Q337 616 309 585T257 504T216 391T190 261T180 128Q230 128 269 143T339 182T391 233T432 283Q473 276 473 220Q473 159 443 106T363 20T250 -13Z" />
<glyph unicode="D" glyph-name="D" horiz-adv-x="590" d="M208 -14Q179 -14 155 -3T118 40Q84 60 68 82T54 139L89 628Q66 643 51 661T35 699Q35 708 41 711T54 715Q87 715 129 717T209 721T272 723Q355 723 413 702T506 646T558 575T575 506Q575 447 554 386T499
266T423 157T340 68T264 8T208 -14ZM226 410L203 108Q244 144 282 191T349 291T396 396T414 494Q414 526 404 552T370 597Q326 597 277 594T200 589Q228 540 228 456Q228 445 228 434T226 410Z" />
<glyph unicode="E" glyph-name="E" horiz-adv-x="496" d="M228 -14Q200 -14 170 -3T126 34Q97 47 85 75T74 139Q82 260 87 381T106 623Q86 641 71 662T55 699Q55 715 74 715Q88 715 120 717T190 723T263 729T318 732Q376 732 412 716T466 676T484 624Q484 614
474 614Q465 614 457 614T441 615Q396 615 347 610T256 599Q247 520 241 437Q288 443 323 443Q338 443 358 435T398 413T430 386T443 359Q443 341 434 336T406 331Q388 331 359 327T296 319T233 312Q230 264 228 216T225 119Q266 146 304 162T372 179Q392 179 417
167T461 138T480 105Q480 92 468 87L228 -14Z" />
<glyph unicode="F" glyph-name="F" horiz-adv-x="474" d="M199 -14Q183 -14 164 -8T127 15T98 65T86 151Q86 159 86 166T87 182L99 357Q81 378 81 391Q81 414 103 418L116 618Q96 637 80 660T64 700Q64 716 83 716Q97 716 129 718T199 724T272 729T327 732Q407
732 450 699T493 624Q493 614 483 614Q474 614 466 614T450 615Q407 615 359 610T268 600L255 441Q281 443 303 443Q318 443 338 435T378 413T410 386T423 359Q423 341 414 336T386 331Q363 331 324 326T245 315L221 1Q220 -8 214 -11T199 -14Z" />
<glyph unicode="G" glyph-name="G" horiz-adv-x="547" d="M225 -14Q183 -14 145 6T88 62Q61 80 47 120T33 216Q33 280 47 351T87 489T152 611T239 698T346 731Q379 731 403 724T448 687Q486 674 502 644T518 580Q518 544 503 511T471 433Q467 423 463 417T447
411Q431 411 409 426T371 465T354 514Q354 531 363 559T390 616Q353 618 320 590T260 511T212 397T180 264T169 129Q175 128 181 128T193 128Q231 128 269 137T345 164L349 240Q327 242 305 257T268 290T253 321Q253 333 257 339T275 348Q304 353 340 357T414 365T483
371T535 373Q555 373 578 365T621 343T655 316T668 289Q668 271 659 266T631 261Q609 261 571 258T492 251Q479 154 474 54T469 -146Q469 -155 463 -158T447 -161Q398 -161 366 -122T337 -5L339 27Q319 15 296 6T254 -8T225 -14Z" />
<glyph unicode="H" glyph-name="H" horiz-adv-x="580" d="M188 -13Q173 -13 151 -8T106 13T70 60T58 144Q60 179 62 214T68 284Q44 297 27 318T9 352Q9 364 13 370T31 379Q48 382 75 386Q81 458 85 529T90 673Q90 692 98 710T125 728Q143 728 163 721T201 694T230
638T242 545Q242 530 240 492T233 404Q297 410 355 415Q359 482 362 546T367 673Q367 692 375 710T402 728Q426 728 453 717T499 677T519 597Q519 565 516 515T509 406Q535 392 556 373T577 338Q577 320 568 315T540 310Q531 310 502 308Q497 248 493 192T485 92Q484
84 484 77T484 63Q484 42 485 29T487 2Q487 -7 481 -10T465 -13Q450 -13 428 -9T383 9T347 46T335 109Q337 157 340 202T346 292Q315 289 284 286T223 280Q219 229 215 180T208 92Q207 84 207 77T207 63Q207 42 208 29T210 2Q210 -7 204 -10T188 -13Z" />
<glyph unicode="I" glyph-name="I" horiz-adv-x="285" d="M172 -13Q152 -13 124 -3T74 34T52 105Q52 151 57 221T68 376T80 547T85 713Q85 721 97 724T128 728Q148 728 173 717T218 678T237 600Q237 579 235 528T228 409T219 267T207 124T194 2Q192 -13 172 -13Z" />
<glyph unicode="J" glyph-name="J" horiz-adv-x="423" d="M204 -14Q182 -14 160 -1T116 33T71 74T23 109Q10 116 10 129Q10 158 32 173T81 188Q116 188 150 172T213 132Q217 185 220 248T225 378T230 506T233 617Q210 614 192 611T155 608Q123 608 96 626T52 670T35
715Q35 731 54 731Q73 731 102 734T162 739T221 742Q251 742 285 730T335 695Q367 683 377 667T387 634Q387 620 385 572T380 456T372 312T362 165Q358 107 335 67T277 7T204 -14Z" />
<glyph unicode="K" glyph-name="K" horiz-adv-x="562" d="M634 -149Q617 -149 591 -143T536 -123T484 -85L217 188Q211 138 207 89T200 2Q199 -7 193 -10T178 -13Q162 -13 142 -8T102 11T72 53T64 127Q68 180 73 251T82 402T89 562T92 713Q94 721 104 724T127
728Q151 728 176 717T219 678T237 601Q237 558 233 508T226 399Q276 454 320 514T398 630T454 729Q509 729 530 702T552 628Q552 603 531 566T475 484T395 393T305 301L645 -116Q652 -124 652 -133Q652 -149 634 -149Z" />
<glyph unicode="L" glyph-name="L" horiz-adv-x="471" d="M195 -15Q167 -14 140 -2T96 35Q68 52 54 78T43 140Q50 214 57 298T72 485T85 713Q87 721 97 724T121 728Q145 728 171 711T215 660T233 575Q233 483 221 370T197 120H200Q232 143 269 161T340 179Q360
179 385 169T429 142T448 105Q448 92 436 87L195 -15Z" />
<glyph unicode="M" glyph-name="M" horiz-adv-x="737" d="M122 -17Q101 -17 77 -9T36 21T19 80Q19 84 19 88T20 97Q31 198 54 340T120 648Q110 671 97 692T84 728Q84 738 92 742T109 746Q141 746 174 730T235 680T280 593L373 288H375Q397 358 416 419T454 541T496
670Q505 698 519 710T551 722Q568 722 592 711Q630 695 645 660T656 564Q653 525 653 450Q653 395 654 330T659 199T667 80T678 -9Q666 -14 647 -14Q616 -14 586 2T551 57Q544 114 540 184T535 322Q535 370 538 412H536L414 82Q410 71 393 71Q370 71 347 86Q312
96 306 118L211 438H209Q201 399 192 350T173 249T158 149T152 65Q152 41 155 24Q156 20 156 17T156 11Q156 -5 146 -11T122 -17Z" />
<glyph unicode="N" glyph-name="N" horiz-adv-x="638" d="M513 -14Q491 -14 474 -8T436 16Q414 25 399 42T371 82L197 389H195Q186 334 180 266T169 132T162 15Q162 0 143 0Q100 0 75 36T49 136Q49 173 54 260T71 477Q76 539 84 565T111 591L49 695Q45 702 45
710Q45 729 69 729Q102 729 145 706T217 632L420 253H422Q427 316 432 383T442 513T451 629T458 713Q460 721 470 724T493 728Q516 728 536 716T569 676T582 597Q582 562 577 500T564 358T551 190T545 13Q545 0 536 -7T513 -14Z" />
<glyph unicode="O" glyph-name="O" horiz-adv-x="586" d="M279 -15Q248 -15 218 -5T170 32Q94 69 62 139T29 320Q29 394 47 466T102 597T191 691T314 727Q352 727 390 714T446 672Q493 655 517 620T549 534T558 417Q558 359 546 298T511 181T454 81T376 11T279
-15ZM242 99Q274 107 302 144T353 237T389 354T402 471Q402 524 389 567T346 617Q309 610 280 573T231 482T201 368T190 252Q190 191 202 153T242 99Z" />
<glyph unicode="P" glyph-name="P" horiz-adv-x="551" d="M185 -13Q164 -13 138 1T91 48T71 135Q71 142 71 148T72 162Q78 217 84 294T96 457T106 626Q84 643 67 666T50 705Q50 714 56 717T69 721Q97 721 135 723T210 726T274 728Q331 728 380 709T467 660T526
596T547 532Q547 471 521 420T452 326T360 251Q335 234 314 227T276 220Q259 220 247 226T226 241Q221 186 216 128T207 2Q206 -7 200 -10T185 -13ZM245 456Q242 416 239 379T231 303Q321 366 359 428T397 538Q397 579 376 604Q361 604 347 604T320 605Q290 605
265 605T218 603Q232 587 239 561T247 495Q247 486 247 477T245 456Z" />
<glyph unicode="Q" glyph-name="Q" horiz-adv-x="586" d="M279 -15Q248 -15 218 -5T170 32Q94 69 62 139T29 320Q29 394 47 466T102 597T191 691T314 727Q352 727 390 714T446 672Q493 655 517 620T549 534T558 417Q558 356 545 293T507 172T445 70L602 -127Q607
-133 607 -141Q607 -148 602 -153T586 -158Q560 -155 522 -141T450 -105L311 -12Q296 -15 279 -15ZM242 99Q274 107 302 144T353 237T389 354T402 471Q402 524 389 567T346 617Q309 610 280 573T231 482T201 368T190 252Q190 191 202 153T242 99Z" />
<glyph unicode="R" glyph-name="R" horiz-adv-x="563" d="M180 -13Q165 -13 146 -3T109 33T78 101T66 209Q66 250 68 314T75 455T89 610Q65 626 47 650T28 700Q28 709 34 712T47 716Q75 716 113 719T192 725T263 728Q320 728 368 710T452 661T509 595T529 525Q529
494 507 449T440 353T329 255L640 -108Q645 -113 649 -121T653 -136Q653 -150 635 -150Q620 -150 594 -144T541 -126T492 -94L203 177Q202 146 201 117T200 62Q200 45 200 30T202 2V1Q202 -7 195 -10T180 -13ZM329 612Q309 612 287 609T243 603Q234 535 226 456T211
298Q265 333 301 376T354 463T372 541Q372 568 362 587T329 612Z" />
<glyph unicode="S" glyph-name="S" horiz-adv-x="523" d="M255 -13Q142 -13 85 32T27 141Q27 174 38 193T72 213Q94 179 128 154T200 115T265 101Q287 101 300 109T314 137Q314 150 310 161T287 184T227 212L193 225Q137 247 105 268T59 316T45 381Q45 417 59
462T99 553T159 638T232 701T313 725Q348 725 372 718T418 681Q445 673 461 655T484 617T491 583Q491 557 481 524T459 457T439 394Q437 385 433 379T418 373Q402 373 380 388T340 429T323 480Q323 500 330 524T344 569T351 602Q351 609 350 613T342 617Q325 617
303 595T259 538T223 465T209 394Q209 377 225 360T286 326L317 314Q389 286 424 261T469 210T480 157Q480 77 420 32T255 -13Z" />
<glyph unicode="T" glyph-name="T" horiz-adv-x="519" d="M283 -14Q259 -14 231 3T185 61T171 173L192 574Q176 572 161 572T131 571Q94 571 62 590T10 636T-10 687Q-10 704 10 704Q22 704 55 707T131 714T219 722T300 729T354 732Q383 732 414 721T471 691T515
650T532 606Q532 595 521 595Q511 595 503 595T486 596Q452 596 417 594T348 589L314 11Q313 -3 307 -8T283 -14Z" />
<glyph unicode="U" glyph-name="U" horiz-adv-x="584" d="M279 -11Q248 -11 211 0T141 34T86 95T65 183Q65 198 66 237T69 330T73 441T78 551T82 641T84 691Q85 715 96 721T122 728Q147 728 173 716T219 671T238 577Q238 554 234 499T226 372T221 228Q221 191
235 165T281 139Q309 139 327 155T354 223Q357 239 359 275T363 358T368 456T372 554T375 636T377 686Q379 714 390 721T415 728Q440 728 468 716T516 676T533 598Q532 550 527 483T516 339T500 185Q493 125 470 87T413 27T344 -2T279 -11Z" />
<glyph unicode="V" glyph-name="V" horiz-adv-x="570" d="M295 -15Q266 -15 245 -6T203 23Q127 48 118 134L64 711Q72 723 97 723Q125 723 151 707T196 663T218 595L254 177H257Q284 223 311 284T363 412T408 540T443 648T464 714Q466 721 475 726T498 732Q517
732 536 723T569 695T582 649Q582 642 581 634T577 617Q574 608 561 574T528 488T481 373T427 244T371 115T316 1Q313 -4 309 -9T295 -15Z" />
<glyph unicode="W" glyph-name="W" horiz-adv-x="846" d="M245 -6Q223 -6 194 6T146 48Q115 63 99 97T81 175L52 687Q51 707 56 713T75 720Q125 720 156 693T190 623L212 199H214Q259 293 293 400T365 617Q371 635 397 635Q410 635 425 630T455 614Q482 606 498
587T516 545L524 196H526Q553 251 579 319T629 455T671 580T699 671T709 706Q715 721 745 721Q780 721 800 698T821 634Q821 602 806 563Q798 541 781 497T742 395T692 271T637 138T579 9Q572 -6 556 -6Q536 -6 510 3T464 37Q427 53 409 91T392 181L394 360H392Q373
304 353 240T311 116T268 9Q261 -6 245 -6Z" />
<glyph unicode="X" glyph-name="X" horiz-adv-x="557" d="M67 -35Q43 -35 25 -14T6 41Q6 59 13 80T36 125Q74 180 115 240T196 361Q177 404 156 451T110 559T53 698Q83 732 123 732Q162 732 202 697T273 593L311 504Q357 575 393 631T449 721T467 754Q474 758
483 758Q509 758 528 735T548 673Q548 650 539 622T509 563L372 364L526 11Q504 -3 485 -9T448 -16Q400 -16 366 26T302 133Q290 159 279 182T258 227L85 -26Q80 -35 67 -35Z" />
<glyph unicode="Y" glyph-name="Y" horiz-adv-x="570" d="M261 -39Q243 -39 217 -31T171 0T151 70Q151 75 151 80T152 91Q154 113 157 137T165 196T177 285L42 662Q36 679 36 690Q36 712 50 722T85 733Q108 733 133 721T182 685T217 624L289 412Q325 460 353 502T409
590T468 690Q482 715 491 723T513 731Q536 731 551 709T566 654Q566 640 563 625T551 594Q546 586 525 552T472 468T401 359T326 242Q315 169 304 101T284 -24Q283 -33 277 -36T261 -39Z" />
<glyph unicode="Z" glyph-name="Z" horiz-adv-x="506" d="M162 -27Q144 -27 121 -16T85 18Q65 28 51 41T37 66Q37 83 41 99T56 131L319 590Q293 585 264 578T210 565T169 559Q122 559 94 577T53 620T40 662Q40 670 48 674T62 679Q69 680 95 684T160 695T237 707T310
717T361 721Q385 721 413 708T457 678Q486 670 502 649T518 607Q518 597 513 590T498 569Q427 471 356 352T220 113Q248 118 276 122T322 126Q343 126 368 119T416 101T454 76T469 46Q469 36 457 31T412 22Q389 19 355 12T284 -5T215 -20T162 -27Z" />
<glyph unicode="[" glyph-name="bracketleft" horiz-adv-x="349" d="M118 -47Q99 -47 77 -44T39 -32T26 -4L116 756Q118 768 131 772T157 777H295Q304 777 319 767T348 741T373 712T384 690Q384 681 360 677T304 672T247 670Q243 636 236 582T220 462T201 325T181
187T163 62H230Q239 62 254 52T285 26T311 -4T322 -27Q322 -40 271 -43T118 -47Z" />
<glyph unicode="\" glyph-name="backslash" horiz-adv-x="427" d="M410 -136Q394 -136 372 -131T331 -113T303 -76L-8 813Q-8 824 6 829T33 835Q61 835 91 813T135 749L434 -116Q435 -118 435 -121Q435 -128 428 -132T410 -136Z" />
<glyph unicode="]" glyph-name="bracketright" horiz-adv-x="349" d="M231 777Q250 777 272 774T310 762T323 734L233 -26Q232 -38 219 -42T192 -47H54Q45 -47 30 -37T1 -11T-24 18T-35 40Q-35 49 -11 53T45 59T102 60Q106 94 113 148T129 268T148 405T168 543T186
668H119Q110 668 95 678T64 704T38 734T27 757Q27 771 79 774T231 777Z" />
<glyph unicode="^" glyph-name="asciicircum" horiz-adv-x="408" d="M71 616Q51 616 41 631T30 663Q30 680 40 689Q61 706 89 734T146 790T193 836Q205 846 216 846Q229 846 240 835Q255 820 277 794T324 740T369 694Q378 686 378 674Q378 656 356 641T310 626Q281
626 253 648T198 702Q161 664 135 640T71 616Z" />
<glyph unicode="_" glyph-name="underscore" horiz-adv-x="450" d="M182 -144Q148 -144 121 -141T64 -132Q52 -129 35 -114T3 -81T-11 -53Q-11 -46 1 -43T31 -39L365 -36Q374 -36 389 -46T418 -72T443 -101T454 -124Q454 -131 437 -135T402 -141Q385 -142 352
-142T283 -143T218 -144T182 -144Z" />
<glyph unicode="`" glyph-name="grave" horiz-adv-x="294" d="M226 637Q196 637 161 649T93 680T41 717T20 749Q20 769 32 787T62 816T98 828Q116 828 127 817Q146 800 171 775T221 727T264 688Q274 681 274 670Q274 657 262 647T226 637Z" />
<glyph unicode="a" glyph-name="a" horiz-adv-x="492" d="M164 -14Q133 -14 106 -4T61 37Q30 54 19 75T7 124Q7 182 34 227T108 298T209 324Q232 324 253 322T298 308Q301 328 305 358T309 414Q309 437 305 452T287 468Q270 468 255 458T226 433T196 408T162 397Q142
397 116 411T70 444T51 479Q51 489 70 506T121 541T192 571T271 584Q297 584 322 577T369 554Q417 540 438 509T460 419Q460 401 457 356T448 252T437 128Q436 104 442 73T449 18Q449 4 444 -5T425 -14Q407 -14 382 -6T333 18T294 54Q268 25 234 6T164 -14ZM174
111Q190 111 213 120T258 142T293 169L295 200Q278 217 255 217Q233 217 210 203T171 168T155 128Q155 118 160 115T174 111Z" />
<glyph unicode="b" glyph-name="b" horiz-adv-x="530" d="M250 -14Q223 -14 199 -4T163 29Q146 20 131 16T105 12Q81 12 67 25T45 60T35 104T33 145Q33 176 35 233T42 362T51 506T62 642T74 748Q76 759 80 766T100 774Q127 774 155 759T203 716T218 651L210 571Q224
577 238 580T268 584Q308 584 347 567T417 511Q470 470 485 425T500 333Q500 272 481 211T427 99T348 17T250 -14ZM301 458Q270 458 247 440T194 369L167 115Q193 95 219 95Q252 95 276 121T316 187T340 273T348 359Q348 401 337 429T301 458Z" />
<glyph unicode="c" glyph-name="c" horiz-adv-x="433" d="M222 -13Q185 -13 146 -4T76 40Q42 73 30 113T17 212Q17 284 34 350T83 468T162 550T265 580Q294 580 316 574T357 545Q392 535 407 508T423 452Q423 426 410 393T384 324Q381 317 378 312T365 307Q354
307 338 317T307 343T281 373T271 396Q272 410 280 431T304 474Q277 479 253 454T209 385T179 287T167 183Q167 167 168 151T172 121Q188 117 206 117Q243 117 271 132T320 169T353 205T371 221Q391 221 404 206T417 165Q417 118 390 77T319 12T222 -13Z" />
<glyph unicode="d" glyph-name="d" horiz-adv-x="547" d="M231 -14Q199 -14 163 9T102 77Q65 107 48 148T30 231Q30 300 48 363T97 476T170 555T259 584Q303 584 349 551Q354 598 359 646T373 748Q375 759 379 766T399 774Q426 774 454 759T502 716T517 651Q508
566 500 476T484 300T473 139T469 6Q469 -15 453 -15Q431 -15 400 -1T347 49Q316 16 285 1T231 -14ZM182 166Q182 123 221 123Q241 123 274 137T326 181Q329 254 332 322T341 460Q323 470 305 470Q271 470 243 431T199 324T182 166Z" />
<glyph unicode="e" glyph-name="e" horiz-adv-x="474" d="M170 -12Q142 -12 114 5T61 52T21 118T6 190Q6 261 26 331T83 458T170 549T278 583Q304 583 335 568T380 522Q418 504 436 468T450 402Q447 378 429 348T383 286T321 228T252 185T183 168Q171 168 157
176Q160 144 175 131T217 117Q255 117 301 144T399 216Q422 205 434 188T443 144Q439 114 412 87T343 37T256 1T170 -12ZM319 473Q280 471 248 437T194 354T162 255Q195 262 224 289T276 352T311 421T319 473Z" />
<glyph unicode="f" glyph-name="f" horiz-adv-x="359" d="M185 -14Q159 -14 130 -3T81 33T62 104Q64 166 65 243T73 401Q47 414 27 437T6 474Q6 486 10 492T28 501Q59 507 86 511Q100 604 121 660T176 742T261 767Q311 767 347 746T402 696T422 641Q422 627 414
618T389 608Q352 608 330 616T295 631T270 639Q255 639 247 613T232 526Q236 526 240 526Q255 526 275 518T315 496T347 469T360 442Q360 424 351 419T323 414Q307 414 279 411T220 404Q220 397 220 391T218 378Q212 308 210 215T202 2Q202 -3 198 -8T185 -14Z"
/>
<glyph unicode="g" glyph-name="g" horiz-adv-x="532" d="M222 22Q190 22 154 43T93 107Q56 136 39 174T21 252Q21 317 39 376T88 483T161 557T250 584Q305 584 362 536Q363 557 365 579Q366 588 373 593T389 599Q420 599 448 582T493 536T508 469L485 150Q476
24 445 -48T366 -151T261 -181Q189 -181 135 -163T50 -117T19 -61Q19 -31 32 -17T66 -2Q105 -36 136 -51T213 -66Q262 -66 288 -39T321 59Q321 63 322 66Q295 43 269 33T222 22ZM164 185Q164 145 203 145Q219 145 244 155T296 184T337 230Q342 285 347 340T356
450Q326 477 297 477Q261 477 231 439T182 336T164 185Z" />
<glyph unicode="h" glyph-name="h" horiz-adv-x="519" d="M431 -14Q385 -14 354 20T322 105Q322 130 325 172T337 262T361 352Q319 310 285 252T222 127T168 -10Q141 -7 125 3T96 31Q69 50 61 73T53 126Q53 163 55 222T62 352T72 492T84 623T98 721Q103 751 111
763T141 775Q159 775 181 764T219 729T235 667Q235 663 235 658T234 648L191 288H193Q220 350 252 402T315 485T371 517Q390 517 410 509T443 483Q469 473 482 454T493 414Q487 374 479 315T464 188T457 54Q457 38 458 22T461 -8Q446 -14 431 -14Z" />
<glyph unicode="i" glyph-name="i" horiz-adv-x="260" d="M162 -14Q136 -14 108 -4T60 25T40 71Q40 87 42 128T47 223T54 336T63 448T72 538Q73 546 82 548T97 551Q120 551 148 538T196 505T217 463Q217 450 213 412T204 320T193 209T183 97T179 2Q179 -3 175
-8T162 -14ZM176 650Q143 650 116 657T73 685T59 742Q61 761 64 783T90 811Q102 813 119 814T149 815Q177 815 211 806Q228 802 228 793Q228 770 221 739T206 654Q190 650 176 650Z" />
<glyph unicode="j" glyph-name="j" horiz-adv-x="260" d="M62 -190Q23 -190 -1 -178T-37 -153T-49 -137L-43 -123Q-21 -111 -5 -68T24 42T43 189T54 356T58 525Q58 540 66 545T88 551Q120 551 148 535T193 495T211 446Q211 385 210 315T205 173T192 36T166 -80T125
-160T62 -190ZM162 650Q129 650 102 657T59 685T45 742Q47 761 50 783T76 811Q88 813 105 814T135 815Q163 815 197 806Q214 802 214 793Q214 770 207 739T192 654Q176 650 162 650Z" />
<glyph unicode="k" glyph-name="k" horiz-adv-x="503" d="M149 -14Q120 -14 94 1T51 42T34 103Q34 140 37 201T44 338T55 489T69 634T83 750Q85 760 88 767T105 775Q122 775 142 767T182 745T213 713T221 675Q213 621 206 542T192 375Q216 404 243 441T293 514T330
573Q344 599 368 599Q394 599 416 572T439 503Q439 491 437 478T428 451Q411 409 381 373T297 289Q335 208 394 136T520 -10Q525 -14 526 -19T528 -30Q528 -37 523 -43T508 -49Q459 -49 410 -29T327 30Q307 52 282 84T231 150T183 216Q180 153 178 97T176 -3Q176
-14 149 -14Z" />
<glyph unicode="l" glyph-name="l" horiz-adv-x="250" d="M161 -14Q135 -14 105 -3T53 37T31 117Q31 129 33 172T40 278T50 412T62 553T74 677T85 762Q87 770 95 772T109 775Q131 775 159 762T208 722T225 653Q223 631 219 584T210 475T199 345T190 210T182 90T179
2Q179 -3 175 -8T161 -14Z" />
<glyph unicode="m" glyph-name="m" horiz-adv-x="770" d="M687 -14Q656 -14 631 4T591 53T576 116Q576 146 580 183T592 257T607 323L603 325Q580 279 555 222T508 105T474 -10Q444 -9 417 -6T375 14Q349 27 337 54T322 116T319 186Q319 199 321 224T328 278T338
334H335Q293 252 256 166T191 -10Q161 -9 142 0T105 27Q76 43 64 69T52 126Q52 218 63 330T100 559Q105 579 116 579Q141 579 166 567T207 531T224 471Q224 464 223 456T220 439L180 251H182Q221 337 259 410T340 531Q349 542 367 542Q395 542 427 518Q450 509
462 494T475 461Q475 459 475 456T474 451Q458 393 448 327T437 200L442 199Q474 276 508 346T598 489Q606 498 622 498Q651 498 685 474Q708 466 723 452T745 423Q730 350 720 260T710 88Q710 62 711 38T715 -8Q702 -14 687 -14Z" />
<glyph unicode="n" glyph-name="n" horiz-adv-x="529" d="M438 -14Q371 -14 346 25T320 125Q320 172 332 228T360 343H358Q308 262 265 174T185 -11Q131 -11 101 26Q70 40 56 67T41 126Q41 218 52 329T89 560Q92 579 110 579Q137 579 161 567T200 531T215 477Q215
472 215 466T213 454L163 196H165Q190 253 215 309T267 412T323 487T383 516Q408 516 436 490Q464 482 478 464T493 423Q493 420 493 417T492 411Q488 389 483 350T474 261T466 158T463 54Q463 38 464 22T468 -8Q453 -14 438 -14Z" />
<glyph unicode="o" glyph-name="o" horiz-adv-x="534" d="M245 -15Q212 -15 182 -3T132 40Q84 63 58 120T32 253Q32 319 50 378T99 484T170 556T256 583Q294 583 332 570T398 521Q447 496 473 448T500 343Q500 270 485 205T439 91T360 13T245 -15ZM225 95Q255
95 278 121T317 187T341 275T350 364Q350 410 340 441T306 472Q276 472 253 446T214 380T190 292T181 203Q181 157 192 126T225 95Z" />
<glyph unicode="p" glyph-name="p" horiz-adv-x="533" d="M140 -186Q111 -186 84 -177T38 -145T20 -88Q20 -51 22 11T30 148T41 299T53 440T67 549Q73 587 107 587Q121 587 142 579T183 553Q201 566 223 575T271 584Q311 584 350 567T420 511Q473 470 488 425T503
333Q503 272 484 211T430 99T351 17T253 -14Q232 -14 213 -8T179 12Q176 -27 174 -69T168 -157Q167 -175 161 -180T140 -186ZM298 456Q272 456 252 442T209 392Q205 344 199 271T185 105Q204 95 222 95Q255 95 278 120T316 186T338 272T345 357Q345 399 334 427T298
456Z" />
<glyph unicode="q" glyph-name="q" horiz-adv-x="531" d="M231 -14Q199 -14 163 9T102 77Q65 107 48 148T30 231Q30 300 48 363T97 476T170 555T259 584Q311 584 365 539Q366 553 368 567Q370 585 380 592T400 599Q431 599 458 583T501 541T514 486Q510 442 504
378T492 241T478 92T466 -50T456 -166Q455 -176 448 -179T429 -182Q413 -182 392 -174T351 -154T319 -127T306 -99Q306 -95 306 -85T307 -71Q310 -26 314 19Q291 2 270 -6T231 -14ZM181 165Q181 122 220 122Q239 122 272 137T328 179Q334 248 340 315T355 450Q330
470 306 470Q271 470 243 431T198 323T181 165Z" />
<glyph unicode="r" glyph-name="r" horiz-adv-x="379" d="M182 -20Q153 -20 123 -4T72 39T47 102Q44 134 42 179T40 276Q40 349 45 428T66 577Q71 598 83 598Q108 598 136 585T185 553T205 513Q205 502 203 483T200 425H202Q208 457 225 493T270 556T331 583Q355
555 369 510T384 420Q332 408 293 384T213 317Q200 265 194 207T185 97T182 13T182 -20Z" />
<glyph unicode="s" glyph-name="s" horiz-adv-x="436" d="M220 -13Q168 -13 120 2T42 48T11 127Q11 153 21 173T51 193Q67 167 92 148T146 120T198 110Q221 110 236 119T251 149Q251 161 242 172T207 192L122 221Q73 238 56 263T38 332Q38 368 55 410T103 492T172
555T253 580Q287 580 315 574T364 539Q397 524 412 498T428 452Q428 431 417 408T394 361T374 314Q372 307 369 302T355 297Q344 297 330 307T303 331T281 360T272 383Q272 407 285 429T298 464Q298 469 297 472T290 476Q271 476 250 453T213 395T198 326Q198 306
229 295L328 257Q407 226 407 157Q407 105 381 67T311 8T220 -13Z" />
<glyph unicode="t" glyph-name="t" horiz-adv-x="374" d="M205 -15Q183 -15 153 -2T107 46Q81 62 68 89T55 154Q55 178 56 224T59 330T67 456Q40 468 19 491T-3 530Q-3 542 1 549T19 557Q47 561 77 564Q81 596 85 626T94 685Q97 701 103 706T120 712Q150 712 178
697T225 663T242 632Q237 602 234 576Q248 576 260 576Q275 576 295 568T335 546T367 519T380 492Q380 474 371 469T343 464Q326 464 291 462T217 456Q206 371 198 287T186 118Q224 129 247 148T284 185T312 208Q318 211 325 211Q343 211 355 193T368 148Q368 118
351 89T306 37T252 -1T205 -15Z" />
<glyph unicode="u" glyph-name="u" horiz-adv-x="509" d="M236 -14Q165 -14 120 20T54 108T33 221Q33 272 36 330T45 444T55 545Q57 568 66 573T90 579Q113 579 139 567T185 536T205 496Q205 490 202 460T195 386T187 299T184 221Q184 121 236 121Q265 121 283
157T314 252T333 385T344 532Q345 547 355 550T372 554Q393 554 420 539T467 497T487 435Q487 371 480 307T455 186T410 83T338 12T236 -14Z" />
<glyph unicode="v" glyph-name="v" horiz-adv-x="491" d="M281 -15Q256 -15 228 -6T182 25Q143 43 124 70T97 139L28 554Q27 559 27 564T26 573Q26 585 32 592T58 599Q108 599 144 567T189 479L237 189H241Q260 243 278 311T314 449T347 573Q349 581 361 584T389
588Q424 588 446 560T469 488Q469 461 458 428L304 0Q299 -15 281 -15Z" />
<glyph unicode="w" glyph-name="w" horiz-adv-x="783" d="M580 -15Q559 -15 536 -10T492 10Q455 18 438 48T412 145L391 326H388L291 2Q290 -3 286 -8T273 -13Q251 -13 228 -7T188 12Q144 26 119 53T86 125L13 572Q11 586 22 589T47 593Q69 593 96 578T146 538T173
481L229 169H231L340 576Q342 583 351 585T374 588Q391 588 408 580T438 555Q464 543 480 521T500 476L531 216H535Q567 305 590 396T637 576Q643 588 667 588Q688 588 711 578T750 548T766 500Q766 483 758 461L600 1Q599 -4 594 -9T580 -15Z" />
<glyph unicode="x" glyph-name="x" horiz-adv-x="485" d="M49 3Q28 3 14 12T0 39Q0 57 18 81L171 282L50 504Q46 511 46 520Q46 540 67 556T119 573Q148 573 181 553T243 481L281 411L395 560Q410 579 430 579Q444 579 455 567T467 531Q467 510 456 481T417 412L340
302L411 172Q422 152 427 133T432 97Q432 61 416 36T378 -3T339 -14Q336 -14 332 -11T322 5L233 168L168 75Q142 37 109 20T49 3Z" />
<glyph unicode="y" glyph-name="y" horiz-adv-x="474" d="M129 -190Q87 -190 68 -178T44 -152T39 -136Q39 -127 44 -124T54 -118Q62 -114 81 -100T123 -57T160 21Q127 40 107 76T78 150Q73 175 67 216T55 306T42 403T32 491T24 556T21 581Q26 593 57 593Q80 593
111 576T166 532T192 471Q193 459 197 412T206 300T216 167H219L326 576Q329 588 359 588Q381 588 407 577T453 546T473 499Q473 495 473 490T471 480Q470 476 461 448T437 376T402 277T361 164T320 49Q297 -15 269 -69T206 -157T129 -190Z" />
<glyph unicode="z" glyph-name="z" horiz-adv-x="437" d="M114 -20Q93 -20 74 -8T47 26Q9 45 15 92Q17 103 21 117T33 142L235 441Q181 420 140 420Q119 420 94 435T50 475T31 527Q31 536 38 539T53 543Q67 543 102 548T180 561T261 574T320 580Q372 580 392 543Q415
529 421 513T426 478Q425 474 421 471T414 463L177 111Q200 118 226 125T282 132Q314 132 344 124T393 101T412 65Q412 55 405 52T391 47Q379 44 353 37T292 20T224 1T160 -14T114 -20Z" />
<glyph unicode="{" glyph-name="braceleft" horiz-adv-x="424" d="M364 -52Q364 -78 348 -93T303 -109Q232 -109 190 -85T130 -19T112 78Q112 114 120 147T135 210T143 265Q143 273 142 280Q135 279 123 279T99 279T83 279Q60 279 52 283T44 292Q44 307 57 328T89
366T119 383Q130 383 145 383T171 382T183 380Q169 413 162 449T155 522Q155 584 174 638T230 727T323 761Q369 761 393 734T420 674Q379 674 358 649T326 584T310 498T296 410T270 340Q286 318 292 293T298 241Q298 197 289 149T279 55Q279 9 296 -21T364 -52ZM89
284Q132 282 142 281Q138 304 122 319L89 284Z" />
<glyph unicode="|" glyph-name="bar" horiz-adv-x="280" d="M142 -48Q126 -48 107 -43T73 -25T60 9Q63 43 66 104T74 241T84 399T93 557T101 694T107 788Q107 796 117 800T140 804Q158 804 177 796T209 770T220 724Q207 504 194 310T166 -33Q166 -43 159 -45T142 -48Z" />
<glyph unicode="}" glyph-name="braceright" horiz-adv-x="424" d="M60 704Q60 730 76 745T121 761Q192 761 234 737T294 671T312 574Q312 538 305 505T289 442T281 387Q281 379 282 372Q289 373 301 373T325 373T341 373Q364 373 372 369T380 360Q380 345 367
324T336 286T305 269Q295 269 280 269T253 270T241 272Q255 239 262 203T269 130Q269 69 250 14T194 -75T101 -109Q55 -109 31 -82T4 -22Q45 -22 66 3T98 68T114 154T128 242T154 312Q138 334 132 359T126 411Q126 455 135 503T145 597Q145 643 128 673T60 704ZM335
368Q292 370 282 371Q286 348 302 333L335 368Z" />
<glyph unicode="~" glyph-name="asciitilde" horiz-adv-x="450" d="M327 206Q300 206 271 214T210 234Q189 242 174 246T146 250Q131 250 116 245T81 228Q74 224 66 220T50 216Q41 216 37 225T33 251Q33 272 39 299Q47 338 67 358T124 378Q151 378 180 370T241
350Q262 343 277 339T305 334Q320 334 335 340T370 356Q378 360 386 364T401 368Q410 367 414 358T418 333Q418 312 412 285Q404 246 384 226T327 206Z" />
<glyph unicode="&#xa0;" glyph-name="uni00A0" horiz-adv-x="250" />
<glyph unicode="&#xa1;" glyph-name="exclamdown" horiz-adv-x="280" d="M111 454Q133 454 155 446T194 423T210 385Q210 374 210 342T209 265T207 168T203 66T199 -27T193 -96Q191 -115 183 -120T161 -126Q136 -126 110 -114T65 -82T46 -38Q46 -27 49 5T59 81T71
177T84 279T93 371T97 441Q97 446 100 450T111 454ZM127 712Q159 712 185 705T226 679T239 624Q238 606 234 585T209 557Q198 555 182 555T153 554Q126 554 93 563Q77 566 77 575Q77 597 84 626T98 708Q113 712 127 712Z" />
<glyph unicode="&#xa2;" glyph-name="cent" horiz-adv-x="445" d="M263 -148Q235 -148 210 -139T169 -112T155 -68L158 -7Q136 -2 115 9T76 40Q42 73 30 113T17 212Q17 289 36 359T93 483T182 561L189 697Q191 720 200 726T222 732Q243 732 268 723T310 695T326
648L321 572Q341 564 357 545Q392 535 407 508T423 452Q423 426 410 393T384 324Q381 317 378 312T365 307Q354 307 338 317T307 343T281 373T271 396Q272 410 280 431T304 474Q277 479 253 454T209 385T179 287T167 183Q167 167 168 151T172 121Q188 117 206 117Q243
117 271 132T320 169T353 205T371 221Q391 221 404 206T417 165Q417 110 382 65T292 0L283 -135Q282 -148 263 -148Z" />
<glyph unicode="&#xa3;" glyph-name="sterling" horiz-adv-x="525" d="M152 -14Q130 -17 105 -2T63 37T46 78Q46 95 62 101Q85 110 116 117Q120 144 124 177T134 247L111 246Q96 246 76 252T41 271T22 304Q21 310 32 315T77 324L144 330Q153 402 161 467T174 564Q183
625 194 660T229 712T298 728Q346 728 384 701T448 634T488 553T505 484Q507 463 492 455T459 444Q455 443 450 443T440 443Q415 443 393 450T365 473Q359 486 346 509T318 560Q309 513 300 456T283 341L326 345Q383 349 417 324T451 266Q451 259 439 259Q431 259
418 260T389 261L270 255Q261 187 256 138Q288 141 317 142T369 143Q419 143 451 128T498 92T514 53Q514 37 508 30T485 22Q417 22 332 12T152 -14Z" />
<glyph unicode="&#xa4;" glyph-name="currency" horiz-adv-x="601" d="M138 43Q118 43 96 62T59 112T44 178Q44 184 45 191T50 204L102 276Q97 295 96 316T94 361Q94 391 98 422T113 481Q71 552 47 592T23 633Q25 638 38 647T66 663T89 671Q122 671 151 647T201
586Q225 598 255 605T323 612Q346 612 366 609T403 599Q408 606 420 624T448 660T474 677Q497 677 521 658T561 610T578 555Q578 548 577 541T571 527L514 449Q516 438 517 426T519 394Q519 358 511 323T486 257Q509 218 528 183T564 102Q565 99 557 93T539 81T522
76Q475 76 442 103T392 161Q374 151 349 145T297 138Q251 138 218 147Q199 122 184 99T153 52Q148 43 138 43ZM296 251Q328 251 350 275T385 335T398 405Q398 429 391 454T365 495T317 512Q278 512 255 491T221 437T211 366Q211 337 218 311T243 268T296 251Z"
/>
<glyph unicode="&#xa5;" glyph-name="yen" horiz-adv-x="570" d="M261 -39Q243 -39 217 -31T171 0T151 70Q151 75 151 79T152 87Q129 87 115 88Q101 89 82 98T47 121T32 151Q32 159 41 164T81 170L162 173Q163 183 164 194T168 218H116Q97 218 78 229T45 256T32
283Q32 291 41 295T79 300L171 303L42 662Q36 679 36 690Q36 712 50 722T85 733Q108 733 133 721T182 685T217 624L289 412Q325 460 353 502T409 590T468 690Q482 715 491 723T513 731Q536 731 551 709T566 654Q566 640 563 625T551 594Q547 587 531 561T489 495T432
407T368 308Q394 307 418 292T458 257T474 219Q474 210 461 210Q449 210 433 214T404 218H322Q319 199 316 177L366 179Q395 180 420 164T460 126T474 89Q474 81 460 81Q449 81 433 84T406 88Q397 88 368 88T302 87Q297 57 293 29T284 -24Q283 -33 277 -36T261
-39Z" />
<glyph unicode="&#xa6;" glyph-name="brokenbar" horiz-adv-x="280" d="M172 415Q158 415 137 419T100 436T86 472Q93 547 96 601T102 700T106 788Q106 795 116 799T139 804Q156 804 175 796T208 771T220 724Q220 717 220 689T214 606Q211 572 207 529T193 430Q192
422 186 419T172 415ZM147 -49Q133 -49 112 -44T74 -26T60 14Q65 70 70 153T79 324Q80 331 89 335T110 340Q129 340 148 332T181 307T194 260Q193 229 192 200T188 142Q185 108 181 65T167 -34Q166 -42 160 -45T147 -49Z" />
<glyph unicode="&#xa7;" glyph-name="section" horiz-adv-x="489" d="M217 -143Q168 -143 123 -126T49 -77T20 2Q20 31 27 47T53 63Q75 29 114 14T191 -2Q271 -2 271 52Q271 71 262 83T217 108L144 135Q87 156 65 182T42 258Q42 297 61 331T112 389Q110 400 109
412Q108 416 108 420T108 429Q108 460 117 497T144 573T184 644T234 695T290 715Q318 715 343 705T384 672Q417 656 433 632T451 587Q453 566 449 549T439 513T426 464Q421 438 418 430T405 422Q395 422 380 431T349 453T325 482T318 511Q321 528 326 553T331 599Q331
604 328 608T319 613Q306 613 294 591T272 535T257 466T255 406Q257 386 286 375Q347 351 386 331T443 287T462 226Q462 192 442 165T391 118Q412 86 412 32Q412 -28 384 -67T311 -124T217 -143ZM220 215L296 183Q308 193 313 204T319 225Q319 239 310 250T275
272L194 301Q191 302 190 303Q180 288 180 263Q180 233 220 215Z" />
<glyph unicode="&#xa8;" glyph-name="dieresis" horiz-adv-x="401" d="M329 648Q279 648 246 666T213 740Q213 759 217 781T243 809Q255 811 272 812T302 813Q330 813 364 804Q381 800 381 791Q381 768 370 737T359 652Q343 648 329 648ZM136 648Q86 648 53 666T20
740Q20 759 24 781T50 809Q62 811 79 812T109 813Q137 813 171 804Q188 800 188 791Q188 768 177 737T166 652Q150 648 136 648Z" />
<glyph unicode="&#xa9;" glyph-name="copyright" horiz-adv-x="761" d="M391 31Q298 31 231 61T119 141T53 256T31 388Q31 453 53 520T119 646T225 739T370 775Q463 775 530 745T642 665T708 550T730 418Q730 354 708 286T643 160T536 67T391 31ZM347 123Q411
123 459 154T541 236T591 345T608 458Q608 518 587 570T522 655T414 688Q350 688 302 657T220 575T170 466T153 353Q153 293 174 241T238 156T347 123ZM362 184Q345 184 322 187T279 201T248 232Q232 243 224 268T215 327Q215 376 229 431T269 534T330 612T408
643Q429 643 444 639T471 616Q494 609 504 590T514 551Q514 531 503 503T483 446Q480 440 478 437T468 433Q458 433 444 445T420 472T410 496Q411 507 415 530T432 569Q410 573 391 549T358 483T335 390T326 289Q363 286 388 297T429 325T456 355T474 368Q486 368
491 357T497 329Q497 291 480 258T432 204T362 184Z" />
<glyph unicode="&#xaa;" glyph-name="ordfeminine" horiz-adv-x="369" d="M136 269Q110 269 84 280T41 314T24 365Q24 406 43 438T95 490T167 509Q184 509 198 507T228 497Q231 517 232 539T234 581Q234 589 234 596T233 611Q216 606 197 594T162 571T134 561Q120
561 102 571T70 594T56 619Q56 628 73 640T116 665T172 685T227 693Q248 693 276 678T325 640T344 588Q343 550 339 497T331 385T321 269Q302 269 273 282T228 317Q210 297 186 283T136 269ZM143 357Q154 357 170 363T203 379T228 398L229 421Q217 433 200 433Q185
433 169 423T141 398T130 369Q130 357 143 357Z" />
<glyph unicode="&#xab;" glyph-name="guillemotleft" horiz-adv-x="549" d="M226 49Q208 49 183 77Q177 83 163 103T128 150T87 203T45 248Q30 262 27 275T24 301Q25 310 33 320T50 340L231 529Q252 529 267 512T283 465Q285 437 276 412T240 358T164 286Q186
261 205 224T236 148T248 84Q248 68 243 59T226 49ZM454 49Q436 49 411 77Q405 83 391 103T356 150T315 203T273 248Q258 262 255 275T252 301Q253 310 261 320T278 340L459 529Q480 529 495 512T511 465Q513 437 504 412T468 358T392 286Q414 261 433 224T464
148T476 84Q476 68 471 59T454 49Z" />
<glyph unicode="&#xae;" glyph-name="registered" horiz-adv-x="761" d="M391 31Q298 31 231 61T119 141T53 256T31 388Q31 453 53 520T119 646T225 739T370 775Q463 775 530 745T642 665T708 550T730 418Q730 354 708 286T643 160T536 67T391 31ZM347 123Q385
123 418 135T478 168L352 296Q351 268 349 247T344 205Q343 196 332 196Q321 196 302 201T267 217T252 241Q252 254 254 291T260 376T266 471T272 553Q263 561 254 577T245 603Q245 610 264 613Q281 615 312 617T371 619Q447 619 490 592T533 509Q533 466 510 422T445
345L536 229Q572 279 590 340T608 458Q608 518 587 570T522 655T414 688Q350 688 302 657T220 575T170 466T153 353Q153 293 174 241T238 156T347 123ZM358 392Q392 414 407 450T423 517Q423 523 416 528T395 533Q382 533 365 527L358 392Z" />
<glyph unicode="&#xaf;" glyph-name="overscore" horiz-adv-x="373" d="M85 650Q71 650 56 665T31 698T20 725Q20 735 31 743T76 754L261 768Q287 770 307 752T340 710T353 672Q353 663 340 657T307 651L85 650Z" />
<glyph unicode="&#xb0;" glyph-name="degree" horiz-adv-x="468" d="M230 368Q176 368 141 392T88 456T71 543Q71 587 89 627T145 693T239 719Q293 719 328 695T381 632T398 544Q398 501 380 461T324 394T230 368ZM220 441Q252 441 273 459T306 504T317 560Q317
594 301 620T249 646Q217 646 196 628T163 583T152 527Q152 493 169 467T220 441Z" />
<glyph unicode="&#xb1;" glyph-name="plusminus" horiz-adv-x="450" d="M243 264Q220 264 198 271T161 294T148 329L152 395Q120 397 88 399Q77 400 61 415T33 449T21 479Q21 486 28 489T65 494T159 496L169 643Q170 651 180 656T205 661Q225 661 246 651T282
622T294 572L287 496H348Q357 496 371 486T398 461T420 432T429 408Q429 401 412 396T376 391Q350 392 326 392T277 392L266 281Q265 271 258 268T243 264ZM376 370Q326 371 281 371T190 373T88 378Q77 379 61 394T33 428T21 458Q21 464 26 467T49 472T106 474T212
475H348Q357 475 371 465T398 440T420 411T429 387Q429 380 412 375T376 370Z" />
<glyph unicode="&#xb2;" glyph-name="uni00B2" horiz-adv-x="324" d="M106 301Q75 301 56 315T28 351T19 396Q42 419 71 449T127 512T172 573T190 621Q190 647 167 647Q149 647 133 628T103 582T82 532Q57 541 36 558T15 616Q15 645 37 668T91 706T156 720Q218
720 259 692T301 610Q301 569 270 518T162 410V407Q183 416 198 422T232 429Q309 429 309 343Q309 337 305 334T297 331Q288 331 262 327T205 316T147 306T106 301Z" />
<glyph unicode="&#xb3;" glyph-name="uni00B3" horiz-adv-x="313" d="M88 302Q68 302 50 318T21 354T10 385Q10 390 12 394T19 398Q80 398 112 407T156 430T168 456Q168 461 167 465Q142 457 118 457Q115 457 112 457T106 459Q98 464 86 476T66 501T57 525Q57
529 60 535T71 541Q117 541 145 554T186 585T199 619Q199 631 192 640T166 649Q138 649 115 625T76 575Q45 583 31 602T16 642Q16 661 34 678T84 708T157 720Q203 720 233 705T279 666T295 619Q295 562 251 517Q287 493 287 449Q287 416 266 382T202 325T88 302Z"
/>
<glyph unicode="&#xb4;" glyph-name="acute" horiz-adv-x="294" d="M72 627Q50 627 35 640T20 667Q20 677 30 686Q46 700 72 722T125 770T174 818Q188 832 204 832Q222 832 238 818T264 782T274 740Q274 720 251 700T195 664T127 637T72 627Z" />
<glyph unicode="&#xb5;" glyph-name="uni00B5" horiz-adv-x="524" d="M150 -186Q121 -186 94 -177T48 -145T30 -88Q30 -57 31 -7T36 106T44 233Q45 309 52 396T68 558Q69 571 74 575T90 579Q115 579 144 567T195 537T217 500Q217 487 214 455T206 382T199 300T195
227Q195 127 247 127Q276 127 294 162T325 256T344 389T355 540Q356 549 364 551T379 554Q394 554 414 546T454 524T485 494T498 462Q498 372 489 287T456 134T392 26T289 -14Q231 -14 190 33Q187 -13 184 -60T178 -157Q177 -175 171 -180T150 -186Z" />
<glyph unicode="&#xb6;" glyph-name="paragraph" horiz-adv-x="580" d="M248 -108Q224 -108 202 -95T162 -63T134 -22T124 15Q124 42 142 42Q211 42 251 58T311 98T333 151Q236 196 173 261T78 397T47 530Q47 591 72 630T141 690T237 719T347 728Q380 728 423
727T507 723T576 721Q583 721 588 718T593 705Q593 689 570 665T517 620L493 161Q491 116 476 69T432 -18T358 -83T248 -108Z" />
<glyph unicode="&#xb7;" glyph-name="middot" horiz-adv-x="300" d="M185 229Q149 229 120 237T74 266T60 327Q61 341 62 356T71 384T93 401Q106 403 124 404T156 405Q186 405 222 395Q232 393 236 391T240 381Q240 356 233 324T217 233Q200 229 185 229Z" />
<glyph unicode="&#xb8;" glyph-name="cedilla" horiz-adv-x="267" d="M115 -195Q91 -195 69 -182T34 -149T20 -111Q20 -82 40 -82Q54 -82 64 -89T89 -97Q112 -97 132 -69T147 30L221 48Q235 27 241 4T247 -43Q247 -82 231 -116T186 -173T115 -195Z" />
<glyph unicode="&#xb9;" glyph-name="uni00B9" horiz-adv-x="280" d="M203 301Q190 301 170 306T135 321T120 349Q120 368 126 430T136 575Q104 546 68 546Q47 546 33 559T18 601Q18 609 24 613Q49 625 76 644T127 686T169 726Q181 726 199 719T230 698T244 662Q244
658 243 624T238 536T229 424T218 311Q216 301 203 301Z" />
<glyph unicode="&#xba;" glyph-name="ordmasculine" horiz-adv-x="383" d="M175 267Q134 267 98 290T39 356T16 459Q16 522 39 575T100 661T183 694Q226 694 268 672T338 611T366 523Q366 454 346 396T284 303T175 267ZM160 346Q182 346 199 364T229 412T247 474T254
538Q254 570 246 592T221 615Q199 615 182 597T152 549T134 487T127 423Q127 391 135 369T160 346Z" />
<glyph unicode="&#xbb;" glyph-name="guillemotright" horiz-adv-x="549" d="M323 529Q341 529 366 501Q372 495 386 475T421 428T462 375T504 330Q519 316 522 303T525 277Q524 268 516 258T499 238L318 49Q297 49 282 67T266 113Q264 141 273 166T309 220T385
292Q363 317 344 354T313 430T301 494Q301 510 306 519T323 529ZM95 529Q113 529 138 501Q144 495 158 475T193 428T234 375T276 330Q291 316 294 303T297 277Q296 268 288 258T271 238L90 49Q69 49 54 67T38 113Q36 141 45 166T81 220T157 292Q135 317 116 354T85
430T73 494Q73 510 78 519T95 529Z" />
<glyph unicode="&#xbc;" glyph-name="onequarter" horiz-adv-x="770" d="M203 301Q190 301 170 306T135 321T120 349Q120 368 126 430T136 575Q104 546 68 546Q47 546 33 559T18 601Q18 609 24 613Q49 625 76 644T127 686T169 726Q181 726 199 719T230 698T244
662Q244 658 243 624T238 536T229 424T218 311Q216 301 203 301ZM159 -30Q150 -30 138 -25T115 -11T105 10Q105 15 108 19Q116 34 140 72T198 165T271 281T352 408T431 531T499 636T546 709T564 736Q569 745 583 745Q603 745 619 732T635 687Q635 682 613 648T554
559T472 438T379 301T290 168T216 55T171 -21Q167 -30 159 -30ZM680 -23Q668 -23 648 -20T613 -8T597 14Q597 22 598 30T600 57Q574 53 558 50T532 46Q477 46 450 70T422 128Q439 154 451 190T472 265T483 333T487 377Q490 385 510 385Q524 385 543 378T576 356T591
322Q591 308 586 283T572 230T555 177T540 139Q553 141 569 144T604 148Q606 181 607 210T609 257T610 276Q613 284 631 284Q666 284 689 268T712 232L709 149Q730 144 743 127T756 90Q756 80 745 80Q741 80 730 78T705 74Q702 50 700 31T694 -15Q693 -23 680 -23Z"
/>
<glyph unicode="&#xbd;" glyph-name="onehalf" horiz-adv-x="765" d="M203 301Q190 301 170 306T135 321T120 349Q120 368 126 430T136 575Q104 546 68 546Q47 546 33 559T18 601Q18 609 24 613Q49 625 76 644T127 686T169 726Q181 726 199 719T230 698T244 662Q244
658 243 624T238 536T229 424T218 311Q216 301 203 301ZM159 -30Q150 -30 138 -25T115 -11T105 10Q105 15 108 19Q116 34 140 72T198 165T271 281T352 408T431 531T499 636T546 709T564 736Q569 745 583 745Q603 745 619 732T635 687Q635 682 613 648T554 559T472
438T379 301T290 168T216 55T171 -21Q167 -30 159 -30ZM547 -31Q516 -31 497 -17T469 19T460 64Q483 87 512 117T568 180T613 241T631 289Q631 315 608 315Q590 315 574 296T544 250T523 200Q498 209 477 226T456 284Q456 313 478 336T532 374T597 388Q659 388
700 360T742 278Q742 237 711 186T603 78V75Q624 84 639 90T673 97Q750 97 750 11Q750 5 746 2T738 -1Q729 -1 703 -5T646 -16T588 -26T547 -31Z" />
<glyph unicode="&#xbe;" glyph-name="threequarters" horiz-adv-x="770" d="M88 302Q68 302 50 318T21 354T10 385Q10 390 12 394T19 398Q80 398 112 407T156 430T168 456Q168 461 167 465Q142 457 118 457Q115 457 112 457T106 459Q98 464 86 476T66 501T57 525Q57
529 60 535T71 541Q117 541 145 554T186 585T199 619Q199 631 192 640T166 649Q138 649 115 625T76 575Q45 583 31 602T16 642Q16 661 34 678T84 708T157 720Q203 720 233 705T279 666T295 619Q295 562 251 517Q287 493 287 449Q287 416 266 382T202 325T88 302ZM192
-30Q183 -30 171 -25T148 -11T138 10Q138 15 141 19Q149 34 173 72T231 165T304 281T385 408T464 531T532 636T579 709T597 736Q602 745 616 745Q636 745 652 732T668 687Q668 682 646 648T587 559T505 438T412 301T323 168T249 55T204 -21Q200 -30 192 -30ZM680
-23Q668 -23 648 -20T613 -8T597 14Q597 22 598 30T600 57Q574 53 558 50T532 46Q477 46 450 70T422 128Q439 154 451 190T472 265T483 333T487 377Q490 385 510 385Q524 385 543 378T576 356T591 322Q591 308 586 283T572 230T555 177T540 139Q553 141 569 144T604
148Q606 181 607 210T609 257T610 276Q613 284 631 284Q666 284 689 268T712 232L709 149Q730 144 743 127T756 90Q756 80 745 80Q741 80 730 78T705 74Q702 50 700 31T694 -15Q693 -23 680 -23Z" />
<glyph unicode="&#xbf;" glyph-name="questiondown" horiz-adv-x="515" d="M323 444Q344 444 368 435T410 406T428 355Q428 303 405 264T347 196T279 144T221 101T197 58Q197 27 218 15T276 3Q314 3 348 19T402 60Q438 60 457 39T476 -14Q476 -44 455 -73T386
-121T260 -140Q206 -140 159 -124T83 -72T54 22Q54 71 70 106T112 167T167 218T224 270T270 334T293 421Q294 435 302 439T323 444ZM327 654Q359 654 385 647T426 621T439 566Q438 548 434 527T409 499Q398 497 382 497T353 496Q326 496 293 505Q277 508 277 517Q277
539 284 568T298 650Q313 654 327 654Z" />
<glyph unicode="&#xc0;" glyph-name="Agrave" horiz-adv-x="590" d="M132 -43Q98 -43 72 -18T45 60Q45 81 51 107Q34 121 25 139T16 171Q17 179 30 184T77 193Q107 278 146 380T239 602Q251 628 272 628Q281 628 291 623Q289 652 287 680Q286 704 296 715T323
726Q343 726 366 711T406 669T424 604Q425 566 430 507T444 379T461 244Q482 241 504 230T543 201T559 161Q559 145 548 141T520 137H496Q491 137 487 137T477 137Q485 90 492 58T505 16Q511 6 497 -4T465 -14Q431 -14 405 10T368 101Q366 110 365 120L178 91Q167
57 156 24Q148 -2 148 -17T146 -37T132 -43ZM312 430Q288 374 266 320T223 214L345 231Q336 281 328 330T312 430ZM412 761Q382 761 347 773T279 804T227 841T206 873Q206 893 218 911T248 940T284 952Q302 952 313 941Q332 924 357 899T407 851T450 812Q460 805
460 794Q460 781 448 771T412 761Z" />
<glyph unicode="&#xc1;" glyph-name="Aacute" horiz-adv-x="590" d="M132 -43Q98 -43 72 -18T45 60Q45 81 51 107Q34 121 25 139T16 171Q17 179 30 184T77 193Q107 278 146 380T239 602Q251 628 272 628Q281 628 291 623Q289 652 287 680Q286 704 296 715T323
726Q343 726 366 711T406 669T424 604Q425 566 430 507T444 379T461 244Q482 241 504 230T543 201T559 161Q559 145 548 141T520 137H496Q491 137 487 137T477 137Q485 90 492 58T505 16Q511 6 497 -4T465 -14Q431 -14 405 10T368 101Q366 110 365 120L178 91Q167
57 156 24Q148 -2 148 -17T146 -37T132 -43ZM312 430Q288 374 266 320T223 214L345 231Q336 281 328 330T312 430ZM360 762Q341 762 327 774T312 799Q312 810 321 817Q336 830 360 851T410 896T456 940Q469 953 484 953Q501 953 515 940T539 906T549 867Q549 848
528 830T475 796T412 771T360 762Z" />
<glyph unicode="&#xc2;" glyph-name="Acircumflex" horiz-adv-x="590" d="M132 -43Q98 -43 72 -18T45 60Q45 81 51 107Q34 121 25 139T16 171Q17 179 30 184T77 193Q107 278 146 380T239 602Q251 628 272 628Q281 628 291 623Q289 652 287 680Q286 704 296 715T323
726Q343 726 366 711T406 669T424 604Q425 566 430 507T444 379T461 244Q482 241 504 230T543 201T559 161Q559 145 548 141T520 137H496Q491 137 487 137T477 137Q485 90 492 58T505 16Q511 6 497 -4T465 -14Q431 -14 405 10T368 101Q366 110 365 120L178 91Q167
57 156 24Q148 -2 148 -17T146 -37T132 -43ZM312 430Q288 374 266 320T223 214L345 231Q336 281 328 330T312 430ZM234 752Q214 752 204 767T193 799Q193 816 203 825Q224 842 252 870T309 926T356 972Q368 982 379 982Q392 982 403 971Q418 956 440 930T487 876T532
830Q541 822 541 810Q541 792 519 777T473 762Q444 762 416 784T361 838Q324 800 298 776T234 752Z" />
<glyph unicode="&#xc3;" glyph-name="Atilde" horiz-adv-x="590" d="M132 -43Q98 -43 72 -18T45 60Q45 81 51 107Q34 121 25 139T16 171Q17 179 30 184T77 193Q107 278 146 380T239 602Q251 628 272 628Q281 628 291 623Q289 652 287 680Q286 704 296 715T323
726Q343 726 366 711T406 669T424 604Q425 566 430 507T444 379T461 244Q482 241 504 230T543 201T559 161Q559 145 548 141T520 137H496Q491 137 487 137T477 137Q485 90 492 58T505 16Q511 6 497 -4T465 -14Q431 -14 405 10T368 101Q366 110 365 120L178 91Q167
57 156 24Q148 -2 148 -17T146 -37T132 -43ZM312 430Q288 374 266 320T223 214L345 231Q336 281 328 330T312 430ZM434 756Q407 756 387 768T351 792T317 804Q298 804 283 783Q274 773 267 770T254 766Q243 768 235 787T226 838Q226 859 240 881T275 920T320 936Q351
936 370 924T404 900T437 887Q456 887 472 909Q480 920 487 923T500 926Q511 925 519 906T528 854Q528 833 514 811T479 772T434 756Z" />
<glyph unicode="&#xc4;" glyph-name="Adieresis" horiz-adv-x="590" d="M132 -43Q98 -43 72 -18T45 60Q45 81 51 107Q34 121 25 139T16 171Q17 179 30 184T77 193Q107 278 146 380T239 602Q251 628 272 628Q281 628 291 623Q289 652 287 680Q286 704 296 715T323
726Q343 726 366 711T406 669T424 604Q425 566 430 507T444 379T461 244Q482 241 504 230T543 201T559 161Q559 145 548 141T520 137H496Q491 137 487 137T477 137Q485 90 492 58T505 16Q511 6 497 -4T465 -14Q431 -14 405 10T368 101Q366 110 365 120L178 91Q167
57 156 24Q148 -2 148 -17T146 -37T132 -43ZM312 430Q288 374 266 320T223 214L345 231Q336 281 328 330T312 430ZM490 786Q440 786 407 804T374 878Q374 897 378 919T404 947Q416 949 433 950T463 951Q491 951 525 942Q542 938 542 929Q542 906 531 875T520 790Q504
786 490 786ZM297 786Q247 786 214 804T181 878Q181 897 185 919T211 947Q223 949 240 950T270 951Q298 951 332 942Q349 938 349 929Q349 906 338 875T327 790Q311 786 297 786Z" />
<glyph unicode="&#xc5;" glyph-name="Aring" horiz-adv-x="590" d="M132 -43Q98 -43 72 -18T45 60Q45 81 51 107Q34 121 25 139T16 171Q17 179 30 184T77 193Q107 278 146 380T239 602Q251 628 272 628Q281 628 291 623Q289 652 287 680Q286 704 296 715T323 726Q343
726 366 711T406 669T424 604Q425 566 430 507T444 379T461 244Q482 241 504 230T543 201T559 161Q559 145 548 141T520 137H496Q491 137 487 137T477 137Q485 90 492 58T505 16Q511 6 497 -4T465 -14Q431 -14 405 10T368 101Q366 110 365 120L178 91Q167 57 156
24Q148 -2 148 -17T146 -37T132 -43ZM312 430Q288 374 266 320T223 214L345 231Q336 281 328 330T312 430ZM333 776Q284 776 262 799T240 847Q240 868 251 893T281 936T327 954Q330 954 333 954T340 953Q348 959 366 960T393 962Q445 962 463 940T482 892Q482 869
468 842T421 795T333 776ZM359 829Q373 829 380 839T390 861T393 880Q393 911 363 911Q359 911 354 911T344 909Q337 899 332 887T327 861Q327 854 333 842T359 829Z" />
<glyph unicode="&#xc6;" glyph-name="AE" horiz-adv-x="753" d="M110 -14Q70 -14 49 14T28 74Q28 100 41 125T68 173Q52 190 40 208T27 237Q27 245 49 255T115 273Q176 415 212 506T269 637Q258 662 258 676Q258 697 273 705T311 714T354 715Q368 715 396 717T458
723T523 729T575 732Q602 732 631 723T685 698T725 663T741 624Q741 614 731 614Q722 614 714 614T698 615Q659 615 619 611T551 604T516 599L506 432Q524 435 541 437T568 439Q580 439 598 430T633 408T663 379T675 352Q675 345 658 339T613 329T555 322T498 316L485
121Q525 147 562 163T629 179Q649 179 674 167T718 138T737 105Q737 92 725 87L485 -14Q458 -14 430 -3T384 31Q352 46 341 71T331 130L334 188L228 166L169 53Q156 28 151 13T138 -8T110 -14ZM285 310L343 320L359 526H350L285 310Z" />
<glyph unicode="&#xc7;" glyph-name="Ccedilla" horiz-adv-x="502" d="M250 -13Q222 -13 190 -8T128 13T82 61Q55 79 41 119T27 215Q27 279 40 350T79 488T141 610T224 697T326 730Q359 730 383 723T428 686Q468 673 484 639T498 570Q497 537 479 495T446 410Q442
400 438 394T422 388Q399 388 378 404T343 444T329 491Q329 517 339 555T369 621Q337 616 309 585T257 504T216 391T190 261T180 128Q230 128 269 143T339 182T391 233T432 283Q473 276 473 220Q473 159 443 106T363 20T250 -13ZM183 -195Q159 -195 137 -182T102
-149T88 -111Q88 -82 108 -82Q122 -82 132 -89T157 -97Q180 -97 200 -69T215 30L289 48Q303 27 309 4T315 -43Q315 -82 299 -116T254 -173T183 -195Z" />
<glyph unicode="&#xc8;" glyph-name="Egrave" horiz-adv-x="496" d="M228 -14Q200 -14 170 -3T126 34Q97 47 85 75T74 139Q82 260 87 381T106 623Q86 641 71 662T55 699Q55 715 74 715Q88 715 120 717T190 723T263 729T318 732Q376 732 412 716T466 676T484 624Q484
614 474 614Q465 614 457 614T441 615Q396 615 347 610T256 599Q247 520 241 437Q288 443 323 443Q338 443 358 435T398 413T430 386T443 359Q443 341 434 336T406 331Q388 331 359 327T296 319T233 312Q230 264 228 216T225 119Q266 146 304 162T372 179Q392 179
417 167T461 138T480 105Q480 92 468 87L228 -14ZM309 761Q279 761 244 773T176 804T124 841T103 873Q103 893 115 911T145 940T181 952Q199 952 210 941Q229 924 254 899T304 851T347 812Q357 805 357 794Q357 781 345 771T309 761Z" />
<glyph unicode="&#xc9;" glyph-name="Eacute" horiz-adv-x="496" d="M228 -14Q200 -14 170 -3T126 34Q97 47 85 75T74 139Q82 260 87 381T106 623Q86 641 71 662T55 699Q55 715 74 715Q88 715 120 717T190 723T263 729T318 732Q376 732 412 716T466 676T484 624Q484
614 474 614Q465 614 457 614T441 615Q396 615 347 610T256 599Q247 520 241 437Q288 443 323 443Q338 443 358 435T398 413T430 386T443 359Q443 341 434 336T406 331Q388 331 359 327T296 319T233 312Q230 264 228 216T225 119Q266 146 304 162T372 179Q392 179
417 167T461 138T480 105Q480 92 468 87L228 -14ZM257 762Q238 762 224 774T209 799Q209 810 218 817Q233 830 257 851T307 896T353 940Q366 953 381 953Q398 953 412 940T436 906T446 867Q446 848 425 830T372 796T309 771T257 762Z" />
<glyph unicode="&#xca;" glyph-name="Ecircumflex" horiz-adv-x="496" d="M228 -14Q200 -14 170 -3T126 34Q97 47 85 75T74 139Q82 260 87 381T106 623Q86 641 71 662T55 699Q55 715 74 715Q88 715 120 717T190 723T263 729T318 732Q376 732 412 716T466 676T484
624Q484 614 474 614Q465 614 457 614T441 615Q396 615 347 610T256 599Q247 520 241 437Q288 443 323 443Q338 443 358 435T398 413T430 386T443 359Q443 341 434 336T406 331Q388 331 359 327T296 319T233 312Q230 264 228 216T225 119Q266 146 304 162T372 179Q392
179 417 167T461 138T480 105Q480 92 468 87L228 -14ZM131 752Q111 752 101 767T90 799Q90 816 100 825Q121 842 149 870T206 926T253 972Q265 982 276 982Q289 982 300 971Q315 956 337 930T384 876T429 830Q438 822 438 810Q438 792 416 777T370 762Q341 762
313 784T258 838Q221 800 195 776T131 752Z" />
<glyph unicode="&#xcb;" glyph-name="Edieresis" horiz-adv-x="496" d="M228 -14Q200 -14 170 -3T126 34Q97 47 85 75T74 139Q82 260 87 381T106 623Q86 641 71 662T55 699Q55 715 74 715Q88 715 120 717T190 723T263 729T318 732Q376 732 412 716T466 676T484
624Q484 614 474 614Q465 614 457 614T441 615Q396 615 347 610T256 599Q247 520 241 437Q288 443 323 443Q338 443 358 435T398 413T430 386T443 359Q443 341 434 336T406 331Q388 331 359 327T296 319T233 312Q230 264 228 216T225 119Q266 146 304 162T372 179Q392
179 417 167T461 138T480 105Q480 92 468 87L228 -14ZM387 786Q337 786 304 804T271 878Q271 897 275 919T301 947Q313 949 330 950T360 951Q388 951 422 942Q439 938 439 929Q439 906 428 875T417 790Q401 786 387 786ZM194 786Q144 786 111 804T78 878Q78 897
82 919T108 947Q120 949 137 950T167 951Q195 951 229 942Q246 938 246 929Q246 906 235 875T224 790Q208 786 194 786Z" />
<glyph unicode="&#xcc;" glyph-name="Igrave" horiz-adv-x="285" d="M172 -13Q152 -13 124 -3T74 34T52 105Q52 151 57 221T68 376T80 547T85 713Q85 721 97 724T128 728Q148 728 173 717T218 678T237 600Q237 579 235 528T228 409T219 267T207 124T194 2Q192
-13 172 -13ZM216 761Q186 761 151 773T83 804T31 841T10 873Q10 893 22 911T52 940T88 952Q106 952 117 941Q136 924 161 899T211 851T254 812Q264 805 264 794Q264 781 252 771T216 761Z" />
<glyph unicode="&#xcd;" glyph-name="Iacute" horiz-adv-x="285" d="M172 -13Q152 -13 124 -3T74 34T52 105Q52 151 57 221T68 376T80 547T85 713Q85 721 97 724T128 728Q148 728 173 717T218 678T237 600Q237 579 235 528T228 409T219 267T207 124T194 2Q192
-13 172 -13ZM164 762Q145 762 131 774T116 799Q116 810 125 817Q140 830 164 851T214 896T260 940Q273 953 288 953Q305 953 319 940T343 906T353 867Q353 848 332 830T279 796T216 771T164 762Z" />
<glyph unicode="&#xce;" glyph-name="Icircumflex" horiz-adv-x="285" d="M172 -13Q152 -13 124 -3T74 34T52 105Q52 151 57 221T68 376T80 547T85 713Q85 721 97 724T128 728Q148 728 173 717T218 678T237 600Q237 579 235 528T228 409T219 267T207 124T194 2Q192
-13 172 -13ZM38 752Q18 752 8 767T-3 799Q-3 816 7 825Q28 842 56 870T113 926T160 972Q172 982 183 982Q196 982 207 971Q222 956 244 930T291 876T336 830Q345 822 345 810Q345 792 323 777T277 762Q248 762 220 784T165 838Q128 800 102 776T38 752Z" />
<glyph unicode="&#xcf;" glyph-name="Idieresis" horiz-adv-x="285" d="M172 -13Q152 -13 124 -3T74 34T52 105Q52 151 57 221T68 376T80 547T85 713Q85 721 97 724T128 728Q148 728 173 717T218 678T237 600Q237 579 235 528T228 409T219 267T207 124T194 2Q192
-13 172 -13ZM294 786Q244 786 211 804T178 878Q178 897 182 919T208 947Q220 949 237 950T267 951Q295 951 329 942Q346 938 346 929Q346 906 335 875T324 790Q308 786 294 786ZM101 786Q51 786 18 804T-15 878Q-15 897 -11 919T15 947Q27 949 44 950T74 951Q102
951 136 942Q153 938 153 929Q153 906 142 875T131 790Q115 786 101 786Z" />
<glyph unicode="&#xd0;" glyph-name="Eth" horiz-adv-x="600" d="M218 -14Q189 -14 165 -3T128 40Q94 60 78 82T64 139L79 348L61 347Q47 354 33 368T9 397T0 420Q0 429 14 439T65 453L87 456L99 628Q76 643 61 661T45 699Q45 708 51 711T64 715Q97 715 139 717T220
721T282 723Q365 723 423 702T516 646T568 575T585 506Q585 447 564 386T509 266T433 157T350 68T274 8T218 -14ZM324 365L232 359L213 108Q254 144 292 191T359 291T406 396T424 494Q424 526 414 552T380 597Q336 597 287 594T210 589Q235 546 238 475L279 480Q300
483 320 466T354 425T368 386Q368 379 356 373T324 365Z" />
<glyph unicode="&#xd1;" glyph-name="Ntilde" horiz-adv-x="638" d="M513 -14Q491 -14 474 -8T436 16Q414 25 399 42T371 82L197 389H195Q186 334 180 266T169 132T162 15Q162 0 143 0Q100 0 75 36T49 136Q49 173 54 260T71 477Q76 539 84 565T111 591L49 695Q45
702 45 710Q45 729 69 729Q102 729 145 706T217 632L420 253H422Q427 316 432 383T442 513T451 629T458 713Q460 721 470 724T493 728Q516 728 536 716T569 676T582 597Q582 562 577 500T564 358T551 190T545 13Q545 0 536 -7T513 -14ZM399 756Q372 756 352 768T316
792T282 804Q263 804 248 783Q239 773 232 770T219 766Q208 768 200 787T191 838Q191 859 205 881T240 920T285 936Q316 936 335 924T369 900T402 887Q421 887 437 909Q445 920 452 923T465 926Q476 925 484 906T493 854Q493 833 479 811T444 772T399 756Z" />
<glyph unicode="&#xd2;" glyph-name="Ograve" horiz-adv-x="586" d="M279 -15Q248 -15 218 -5T170 32Q94 69 62 139T29 320Q29 394 47 466T102 597T191 691T314 727Q352 727 390 714T446 672Q493 655 517 620T549 534T558 417Q558 359 546 298T511 181T454 81T376
11T279 -15ZM242 99Q274 107 302 144T353 237T389 354T402 471Q402 524 389 567T346 617Q309 610 280 573T231 482T201 368T190 252Q190 191 202 153T242 99ZM393 761Q363 761 328 773T260 804T208 841T187 873Q187 893 199 911T229 940T265 952Q283 952 294 941Q313
924 338 899T388 851T431 812Q441 805 441 794Q441 781 429 771T393 761Z" />
<glyph unicode="&#xd3;" glyph-name="Oacute" horiz-adv-x="586" d="M279 -15Q248 -15 218 -5T170 32Q94 69 62 139T29 320Q29 394 47 466T102 597T191 691T314 727Q352 727 390 714T446 672Q493 655 517 620T549 534T558 417Q558 359 546 298T511 181T454 81T376
11T279 -15ZM242 99Q274 107 302 144T353 237T389 354T402 471Q402 524 389 567T346 617Q309 610 280 573T231 482T201 368T190 252Q190 191 202 153T242 99ZM341 762Q322 762 308 774T293 799Q293 810 302 817Q317 830 341 851T391 896T437 940Q450 953 465 953Q482
953 496 940T520 906T530 867Q530 848 509 830T456 796T393 771T341 762Z" />
<glyph unicode="&#xd4;" glyph-name="Ocircumflex" horiz-adv-x="586" d="M279 -15Q248 -15 218 -5T170 32Q94 69 62 139T29 320Q29 394 47 466T102 597T191 691T314 727Q352 727 390 714T446 672Q493 655 517 620T549 534T558 417Q558 359 546 298T511 181T454
81T376 11T279 -15ZM242 99Q274 107 302 144T353 237T389 354T402 471Q402 524 389 567T346 617Q309 610 280 573T231 482T201 368T190 252Q190 191 202 153T242 99ZM215 752Q195 752 185 767T174 799Q174 816 184 825Q205 842 233 870T290 926T337 972Q349 982
360 982Q373 982 384 971Q399 956 421 930T468 876T513 830Q522 822 522 810Q522 792 500 777T454 762Q425 762 397 784T342 838Q305 800 279 776T215 752Z" />
<glyph unicode="&#xd5;" glyph-name="Otilde" horiz-adv-x="586" d="M279 -15Q248 -15 218 -5T170 32Q94 69 62 139T29 320Q29 394 47 466T102 597T191 691T314 727Q352 727 390 714T446 672Q493 655 517 620T549 534T558 417Q558 359 546 298T511 181T454 81T376
11T279 -15ZM242 99Q274 107 302 144T353 237T389 354T402 471Q402 524 389 567T346 617Q309 610 280 573T231 482T201 368T190 252Q190 191 202 153T242 99ZM415 756Q388 756 368 768T332 792T298 804Q279 804 264 783Q255 773 248 770T235 766Q224 768 216 787T207
838Q207 859 221 881T256 920T301 936Q332 936 351 924T385 900T418 887Q437 887 453 909Q461 920 468 923T481 926Q492 925 500 906T509 854Q509 833 495 811T460 772T415 756Z" />
<glyph unicode="&#xd6;" glyph-name="Odieresis" horiz-adv-x="586" d="M252 783Q202 783 169 801T136 875Q136 894 140 916T166 944Q178 946 195 947T225 948Q253 948 287 939Q304 935 304 926Q304 903 293 872T282 787Q266 783 252 783ZM445 783Q395 783 362
801T329 875Q329 894 333 916T359 944Q371 946 388 947T418 948Q446 948 480 939Q497 935 497 926Q497 903 486 872T475 787Q459 783 445 783ZM279 -15Q210 -15 163 13T86 88T43 196T29 320Q29 394 47 466T102 597T191 691T314 727Q398 727 452 689T532 581T558
417Q558 359 546 298T511 181T454 81T376 11T279 -15ZM255 107Q279 107 300 130T338 191T368 276T387 373T394 467Q394 527 380 567T336 608Q301 608 275 578T231 498T204 392T195 279Q195 232 201 193T221 131T255 107Z" />
<glyph unicode="&#xd7;" glyph-name="multiply" horiz-adv-x="450" d="M139 116Q126 116 108 123T75 143T60 176Q60 195 85 228T164 319L51 430Q51 448 60 462T88 476Q101 476 119 468T163 439Q174 430 186 418T223 382Q244 404 266 428T315 480Q318 483 323 486T337
490Q371 490 393 467T416 409Q416 403 408 392T379 357T318 292Q340 272 364 249Q387 227 401 197T416 144Q416 127 407 117T376 111L256 228Q235 207 211 182T157 126Q153 122 149 119T139 116Z" />
<glyph unicode="&#xd8;" glyph-name="Oslash" horiz-adv-x="586" d="M105 -98Q97 -96 85 -91T63 -73T54 -38Q54 -21 61 3T87 60Q93 70 100 83Q62 123 46 181T29 320Q29 394 47 466T102 597T191 691T314 727Q345 727 376 718T430 691Q447 722 462 749T490 799Q494
804 500 806T515 807Q532 806 541 783T550 731Q550 724 550 717T548 703Q546 690 536 671T524 647L512 625Q540 591 549 538T558 417Q558 359 546 298T511 181T454 81T376 11T279 -15Q253 -15 228 -8T183 16Q166 -17 149 -44T121 -89Q117 -93 114 -96T105 -98ZM242
99Q274 107 302 144T353 237T389 354T402 471Q402 524 389 567T346 617Q309 610 280 573T231 482T201 368T190 252Q190 191 202 153T242 99Z" />
<glyph unicode="&#xd9;" glyph-name="Ugrave" horiz-adv-x="584" d="M279 -11Q248 -11 211 0T141 34T86 95T65 183Q65 198 66 237T69 330T73 441T78 551T82 641T84 691Q85 715 96 721T122 728Q147 728 173 716T219 671T238 577Q238 554 234 499T226 372T221 228Q221
191 235 165T281 139Q309 139 327 155T354 223Q357 239 359 275T363 358T368 456T372 554T375 636T377 686Q379 714 390 721T415 728Q440 728 468 716T516 676T533 598Q532 550 527 483T516 339T500 185Q493 125 470 87T413 27T344 -2T279 -11ZM360 761Q330 761
295 773T227 804T175 841T154 873Q154 893 166 911T196 940T232 952Q250 952 261 941Q280 924 305 899T355 851T398 812Q408 805 408 794Q408 781 396 771T360 761Z" />
<glyph unicode="&#xda;" glyph-name="Uacute" horiz-adv-x="584" d="M279 -11Q248 -11 211 0T141 34T86 95T65 183Q65 198 66 237T69 330T73 441T78 551T82 641T84 691Q85 715 96 721T122 728Q147 728 173 716T219 671T238 577Q238 554 234 499T226 372T221 228Q221
191 235 165T281 139Q309 139 327 155T354 223Q357 239 359 275T363 358T368 456T372 554T375 636T377 686Q379 714 390 721T415 728Q440 728 468 716T516 676T533 598Q532 550 527 483T516 339T500 185Q493 125 470 87T413 27T344 -2T279 -11ZM308 762Q289 762
275 774T260 799Q260 810 269 817Q284 830 308 851T358 896T404 940Q417 953 432 953Q449 953 463 940T487 906T497 867Q497 848 476 830T423 796T360 771T308 762Z" />
<glyph unicode="&#xdb;" glyph-name="Ucircumflex" horiz-adv-x="584" d="M279 -11Q248 -11 211 0T141 34T86 95T65 183Q65 198 66 237T69 330T73 441T78 551T82 641T84 691Q85 715 96 721T122 728Q147 728 173 716T219 671T238 577Q238 554 234 499T226 372T221
228Q221 191 235 165T281 139Q309 139 327 155T354 223Q357 239 359 275T363 358T368 456T372 554T375 636T377 686Q379 714 390 721T415 728Q440 728 468 716T516 676T533 598Q532 550 527 483T516 339T500 185Q493 125 470 87T413 27T344 -2T279 -11ZM182 752Q162
752 152 767T141 799Q141 816 151 825Q172 842 200 870T257 926T304 972Q316 982 327 982Q340 982 351 971Q366 956 388 930T435 876T480 830Q489 822 489 810Q489 792 467 777T421 762Q392 762 364 784T309 838Q272 800 246 776T182 752Z" />
<glyph unicode="&#xdc;" glyph-name="Udieresis" horiz-adv-x="584" d="M279 -11Q248 -11 211 0T141 34T86 95T65 183Q65 198 66 237T69 330T73 441T78 551T82 641T84 691Q85 715 96 721T122 728Q147 728 173 716T219 671T238 577Q238 554 234 499T226 372T221
228Q221 191 235 165T281 139Q309 139 327 155T354 223Q357 239 359 275T363 358T368 456T372 554T375 636T377 686Q379 714 390 721T415 728Q440 728 468 716T516 676T533 598Q532 550 527 483T516 339T500 185Q493 125 470 87T413 27T344 -2T279 -11ZM438 786Q388
786 355 804T322 878Q322 897 326 919T352 947Q364 949 381 950T411 951Q439 951 473 942Q490 938 490 929Q490 906 479 875T468 790Q452 786 438 786ZM245 786Q195 786 162 804T129 878Q129 897 133 919T159 947Q171 949 188 950T218 951Q246 951 280 942Q297
938 297 929Q297 906 286 875T275 790Q259 786 245 786Z" />
<glyph unicode="&#xdd;" glyph-name="Yacute" horiz-adv-x="570" d="M261 -39Q243 -39 217 -31T171 0T151 70Q151 75 151 80T152 91Q154 113 157 137T165 196T177 285L42 662Q36 679 36 690Q36 712 50 722T85 733Q108 733 133 721T182 685T217 624L289 412Q325
460 353 502T409 590T468 690Q482 715 491 723T513 731Q536 731 551 709T566 654Q566 640 563 625T551 594Q546 586 525 552T472 468T401 359T326 242Q315 169 304 101T284 -24Q283 -33 277 -36T261 -39ZM303 762Q284 762 270 774T255 799Q255 810 264 817Q279
830 303 851T353 896T399 940Q412 953 427 953Q444 953 458 940T482 906T492 867Q492 848 471 830T418 796T355 771T303 762Z" />
<glyph unicode="&#xde;" glyph-name="Thorn" horiz-adv-x="559" d="M193 -13Q173 -13 145 -3T95 33T73 105Q73 150 78 218T89 367T100 531Q79 548 65 569T50 605Q50 614 56 617T69 621Q83 621 104 622Q105 645 105 668T106 713Q106 721 118 724T149 728Q167 728
189 719T231 688T256 627Q278 628 295 628Q373 628 431 605T522 541T555 447Q555 347 472 247T222 66Q219 30 215 2Q213 -13 193 -13ZM308 515Q293 515 280 514T255 511Q252 450 247 367T234 200Q283 235 318 277T371 361T389 437Q389 472 370 493T308 515Z" />
<glyph unicode="&#xdf;" glyph-name="germandbls" horiz-adv-x="670" d="M191 -85Q165 -85 136 -75T86 -45T67 7L83 369Q48 395 29 419T10 454Q10 462 24 465T57 468H88Q100 605 168 686T353 767Q392 767 437 750T514 681Q552 670 573 642T602 583T610 527Q610
499 595 470T557 413T509 362T461 324Q452 318 464 310T492 293L558 257Q594 238 615 213T637 149Q637 101 615 65T555 8T469 -13Q417 -13 366 2T282 48T249 127Q249 145 262 160T294 184T325 193Q349 153 383 132T443 110Q460 110 470 119T481 149Q481 161 472
170T437 192L377 221Q345 237 324 250T293 280T287 326Q367 388 414 452T462 568Q462 606 437 632Q393 651 359 651Q313 651 286 619T245 532T228 406L208 -69Q208 -74 204 -79T191 -85Z" />
<glyph unicode="&#xe0;" glyph-name="agrave" horiz-adv-x="492" d="M164 -14Q133 -14 106 -4T61 37Q30 54 19 75T7 124Q7 182 34 227T108 298T209 324Q232 324 253 322T298 308Q301 328 305 358T309 414Q309 437 305 452T287 468Q270 468 255 458T226 433T196
408T162 397Q142 397 116 411T70 444T51 479Q51 489 70 506T121 541T192 571T271 584Q297 584 322 577T369 554Q417 540 438 509T460 419Q460 401 457 356T448 252T437 128Q436 104 442 73T449 18Q449 4 444 -5T425 -14Q407 -14 382 -6T333 18T294 54Q268 25 234
6T164 -14ZM174 111Q190 111 213 120T258 142T293 169L295 200Q278 217 255 217Q233 217 210 203T171 168T155 128Q155 118 160 115T174 111ZM321 637Q291 637 256 649T188 680T136 717T115 749Q115 769 127 787T157 816T193 828Q211 828 222 817Q241 800 266 775T316
727T359 688Q369 681 369 670Q369 657 357 647T321 637Z" />
<glyph unicode="&#xe1;" glyph-name="aacute" horiz-adv-x="492" d="M164 -14Q133 -14 106 -4T61 37Q30 54 19 75T7 124Q7 182 34 227T108 298T209 324Q232 324 253 322T298 308Q301 328 305 358T309 414Q309 437 305 452T287 468Q270 468 255 458T226 433T196
408T162 397Q142 397 116 411T70 444T51 479Q51 489 70 506T121 541T192 571T271 584Q297 584 322 577T369 554Q417 540 438 509T460 419Q460 401 457 356T448 252T437 128Q436 104 442 73T449 18Q449 4 444 -5T425 -14Q407 -14 382 -6T333 18T294 54Q268 25 234
6T164 -14ZM174 111Q190 111 213 120T258 142T293 169L295 200Q278 217 255 217Q233 217 210 203T171 168T155 128Q155 118 160 115T174 111ZM246 627Q224 627 209 640T194 667Q194 677 204 686Q220 700 246 722T299 770T348 818Q362 832 378 832Q396 832 412 818T438
782T448 740Q448 720 425 700T369 664T301 637T246 627Z" />
<glyph unicode="&#xe2;" glyph-name="acircumflex" horiz-adv-x="492" d="M164 -14Q133 -14 106 -4T61 37Q30 54 19 75T7 124Q7 182 34 227T108 298T209 324Q232 324 253 322T298 308Q301 328 305 358T309 414Q309 437 305 452T287 468Q270 468 255 458T226 433T196
408T162 397Q142 397 116 411T70 444T51 479Q51 489 70 506T121 541T192 571T271 584Q297 584 322 577T369 554Q417 540 438 509T460 419Q460 401 457 356T448 252T437 128Q436 104 442 73T449 18Q449 4 444 -5T425 -14Q407 -14 382 -6T333 18T294 54Q268 25 234
6T164 -14ZM174 111Q190 111 213 120T258 142T293 169L295 200Q278 217 255 217Q233 217 210 203T171 168T155 128Q155 118 160 115T174 111ZM153 616Q133 616 123 631T112 663Q112 680 122 689Q143 706 171 734T228 790T275 836Q287 846 298 846Q311 846 322 835Q337
820 359 794T406 740T451 694Q460 686 460 674Q460 656 438 641T392 626Q363 626 335 648T280 702Q243 664 217 640T153 616Z" />
<glyph unicode="&#xe3;" glyph-name="atilde" horiz-adv-x="492" d="M164 -14Q133 -14 106 -4T61 37Q30 54 19 75T7 124Q7 182 34 227T108 298T209 324Q232 324 253 322T298 308Q301 328 305 358T309 414Q309 437 305 452T287 468Q270 468 255 458T226 433T196
408T162 397Q142 397 116 411T70 444T51 479Q51 489 70 506T121 541T192 571T271 584Q297 584 322 577T369 554Q417 540 438 509T460 419Q460 401 457 356T448 252T437 128Q436 104 442 73T449 18Q449 4 444 -5T425 -14Q407 -14 382 -6T333 18T294 54Q268 25 234
6T164 -14ZM174 111Q190 111 213 120T258 142T293 169L295 200Q278 217 255 217Q233 217 210 203T171 168T155 128Q155 118 160 115T174 111ZM334 630Q307 630 287 642T251 666T217 678Q198 678 183 657Q174 647 167 644T154 640Q143 642 135 661T126 712Q126 733
140 755T175 794T220 810Q251 810 270 798T304 774T337 761Q356 761 372 783Q380 794 387 797T400 800Q411 799 419 780T428 728Q428 707 414 685T379 646T334 630Z" />
<glyph unicode="&#xe4;" glyph-name="adieresis" horiz-adv-x="492" d="M164 -14Q133 -14 106 -4T61 37Q30 54 19 75T7 124Q7 182 34 227T108 298T209 324Q232 324 253 322T298 308Q301 328 305 358T309 414Q309 437 305 452T287 468Q270 468 255 458T226 433T196
408T162 397Q142 397 116 411T70 444T51 479Q51 489 70 506T121 541T192 571T271 584Q297 584 322 577T369 554Q417 540 438 509T460 419Q460 401 457 356T448 252T437 128Q436 104 442 73T449 18Q449 4 444 -5T425 -14Q407 -14 382 -6T333 18T294 54Q268 25 234
6T164 -14ZM174 111Q190 111 213 120T258 142T293 169L295 200Q278 217 255 217Q233 217 210 203T171 168T155 128Q155 118 160 115T174 111ZM416 648Q366 648 333 666T300 740Q300 759 304 781T330 809Q342 811 359 812T389 813Q417 813 451 804Q468 800 468 791Q468
768 457 737T446 652Q430 648 416 648ZM223 648Q173 648 140 666T107 740Q107 759 111 781T137 809Q149 811 166 812T196 813Q224 813 258 804Q275 800 275 791Q275 768 264 737T253 652Q237 648 223 648Z" />
<glyph unicode="&#xe5;" glyph-name="aring" horiz-adv-x="492" d="M164 -14Q133 -14 106 -4T61 37Q30 54 19 75T7 124Q7 182 34 227T108 298T209 324Q232 324 253 322T298 308Q301 328 305 358T309 414Q309 437 305 452T287 468Q270 468 255 458T226 433T196
408T162 397Q142 397 116 411T70 444T51 479Q51 489 70 506T121 541T192 571T271 584Q297 584 322 577T369 554Q417 540 438 509T460 419Q460 401 457 356T448 252T437 128Q436 104 442 73T449 18Q449 4 444 -5T425 -14Q407 -14 382 -6T333 18T294 54Q268 25 234
6T164 -14ZM174 111Q190 111 213 120T258 142T293 169L295 200Q278 217 255 217Q233 217 210 203T171 168T155 128Q155 118 160 115T174 111ZM246 643Q187 643 161 666T135 714Q135 735 148 760T185 803T239 821Q243 821 247 821T255 820Q265 826 286 827T318 829Q380
829 402 807T425 759Q425 736 408 709T351 662T246 643ZM278 696Q292 696 299 706T309 728T312 747Q312 778 282 778Q278 778 273 778T263 776Q256 766 251 754T246 728Q246 721 252 709T278 696Z" />
<glyph unicode="&#xe6;" glyph-name="ae" horiz-adv-x="723" d="M173 -14Q132 -14 94 2T31 50T7 122Q7 180 34 225T108 297T209 324Q224 324 237 323T264 318Q272 346 281 373T303 425Q303 437 303 447T301 468Q277 461 251 444T201 412T162 397Q142 397 116 411T70
444T51 479Q51 492 75 509T137 544T216 572T292 583Q313 583 340 572T393 542Q418 561 448 572T515 583Q542 583 572 567T629 524T671 468T688 411Q688 388 672 357T627 294T563 235T491 190T420 173Q403 173 383 187Q385 149 400 133T444 117Q482 117 533 144T636
216Q659 205 671 188T680 144Q676 114 649 87T580 37T493 1T407 -12Q381 -12 354 4T304 46Q274 10 240 -2T173 -14ZM537 473Q513 473 491 453T448 401T413 330T390 254Q416 257 445 279T499 333T541 397T558 452Q558 473 537 473ZM244 212Q244 214 245 216Q214
211 186 181T153 111Q183 111 205 117T251 139Q243 167 243 193Q243 198 243 203T244 212Z" />
<glyph unicode="&#xe7;" glyph-name="ccedilla" horiz-adv-x="433" d="M222 -13Q185 -13 146 -4T76 40Q42 73 30 113T17 212Q17 284 34 350T83 468T162 550T265 580Q294 580 316 574T357 545Q392 535 407 508T423 452Q423 426 410 393T384 324Q381 317 378 312T365
307Q354 307 338 317T307 343T281 373T271 396Q272 410 280 431T304 474Q277 479 253 454T209 385T179 287T167 183Q167 167 168 151T172 121Q188 117 206 117Q243 117 271 132T320 169T353 205T371 221Q391 221 404 206T417 165Q417 118 390 77T319 12T222 -13ZM147
-195Q123 -195 101 -182T66 -149T52 -111Q52 -82 72 -82Q86 -82 96 -89T121 -97Q144 -97 164 -69T179 30L253 48Q267 27 273 4T279 -43Q279 -82 263 -116T218 -173T147 -195Z" />
<glyph unicode="&#xe8;" glyph-name="egrave" horiz-adv-x="474" d="M170 -12Q142 -12 114 5T61 52T21 118T6 190Q6 261 26 331T83 458T170 549T278 583Q304 583 335 568T380 522Q418 504 436 468T450 402Q447 378 429 348T383 286T321 228T252 185T183 168Q171
168 157 176Q160 144 175 131T217 117Q255 117 301 144T399 216Q422 205 434 188T443 144Q439 114 412 87T343 37T256 1T170 -12ZM319 473Q280 471 248 437T194 354T162 255Q195 262 224 289T276 352T311 421T319 473ZM316 637Q286 637 251 649T183 680T131 717T110
749Q110 769 122 787T152 816T188 828Q206 828 217 817Q236 800 261 775T311 727T354 688Q364 681 364 670Q364 657 352 647T316 637Z" />
<glyph unicode="&#xe9;" glyph-name="eacute" horiz-adv-x="474" d="M170 -12Q142 -12 114 5T61 52T21 118T6 190Q6 261 26 331T83 458T170 549T278 583Q304 583 335 568T380 522Q418 504 436 468T450 402Q447 378 429 348T383 286T321 228T252 185T183 168Q171
168 157 176Q160 144 175 131T217 117Q255 117 301 144T399 216Q422 205 434 188T443 144Q439 114 412 87T343 37T256 1T170 -12ZM319 473Q280 471 248 437T194 354T162 255Q195 262 224 289T276 352T311 421T319 473ZM241 627Q219 627 204 640T189 667Q189 677
199 686Q215 700 241 722T294 770T343 818Q357 832 373 832Q391 832 407 818T433 782T443 740Q443 720 420 700T364 664T296 637T241 627Z" />
<glyph unicode="&#xea;" glyph-name="ecircumflex" horiz-adv-x="474" d="M170 -12Q142 -12 114 5T61 52T21 118T6 190Q6 261 26 331T83 458T170 549T278 583Q304 583 335 568T380 522Q418 504 436 468T450 402Q447 378 429 348T383 286T321 228T252 185T183 168Q171
168 157 176Q160 144 175 131T217 117Q255 117 301 144T399 216Q422 205 434 188T443 144Q439 114 412 87T343 37T256 1T170 -12ZM319 473Q280 471 248 437T194 354T162 255Q195 262 224 289T276 352T311 421T319 473ZM148 616Q128 616 118 631T107 663Q107 680
117 689Q138 706 166 734T223 790T270 836Q282 846 293 846Q306 846 317 835Q332 820 354 794T401 740T446 694Q455 686 455 674Q455 656 433 641T387 626Q358 626 330 648T275 702Q238 664 212 640T148 616Z" />
<glyph unicode="&#xeb;" glyph-name="edieresis" horiz-adv-x="474" d="M170 -12Q142 -12 114 5T61 52T21 118T6 190Q6 261 26 331T83 458T170 549T278 583Q304 583 335 568T380 522Q418 504 436 468T450 402Q447 378 429 348T383 286T321 228T252 185T183 168Q171
168 157 176Q160 144 175 131T217 117Q255 117 301 144T399 216Q422 205 434 188T443 144Q439 114 412 87T343 37T256 1T170 -12ZM319 473Q280 471 248 437T194 354T162 255Q195 262 224 289T276 352T311 421T319 473ZM411 648Q361 648 328 666T295 740Q295 759
299 781T325 809Q337 811 354 812T384 813Q412 813 446 804Q463 800 463 791Q463 768 452 737T441 652Q425 648 411 648ZM218 648Q168 648 135 666T102 740Q102 759 106 781T132 809Q144 811 161 812T191 813Q219 813 253 804Q270 800 270 791Q270 768 259 737T248
652Q232 648 218 648Z" />
<glyph unicode="&#xec;" glyph-name="igrave" horiz-adv-x="260" d="M162 -14Q136 -14 108 -4T60 25T40 71Q40 87 42 128T47 223T54 336T63 448T72 538Q73 546 82 548T97 551Q120 551 148 538T196 505T217 463Q217 450 213 412T204 320T193 209T183 97T179 2Q179
-3 175 -8T162 -14ZM177 637Q147 637 112 649T44 680T-8 717T-29 749Q-29 769 -17 787T13 816T49 828Q67 828 78 817Q97 800 122 775T172 727T215 688Q225 681 225 670Q225 657 213 647T177 637Z" />
<glyph unicode="&#xed;" glyph-name="iacute" horiz-adv-x="260" d="M162 -14Q136 -14 108 -4T60 25T40 71Q40 87 42 128T47 223T54 336T63 448T72 538Q73 546 82 548T97 551Q120 551 148 538T196 505T217 463Q217 450 213 412T204 320T193 209T183 97T179 2Q179
-3 175 -8T162 -14ZM102 627Q80 627 65 640T50 667Q50 677 60 686Q76 700 102 722T155 770T204 818Q218 832 234 832Q252 832 268 818T294 782T304 740Q304 720 281 700T225 664T157 637T102 627Z" />
<glyph unicode="&#xee;" glyph-name="icircumflex" horiz-adv-x="260" d="M162 -14Q136 -14 108 -4T60 25T40 71Q40 87 42 128T47 223T54 336T63 448T72 538Q73 546 82 548T97 551Q120 551 148 538T196 505T217 463Q217 450 213 412T204 320T193 209T183 97T179
2Q179 -3 175 -8T162 -14ZM9 616Q-11 616 -21 631T-32 663Q-32 680 -22 689Q-1 706 27 734T84 790T131 836Q143 846 154 846Q167 846 178 835Q193 820 215 794T262 740T307 694Q316 686 316 674Q316 656 294 641T248 626Q219 626 191 648T136 702Q99 664 73 640T9
616Z" />
<glyph unicode="&#xef;" glyph-name="idieresis" horiz-adv-x="260" d="M162 -14Q136 -14 108 -4T60 25T40 71Q40 87 42 128T47 223T54 336T63 448T72 538Q73 546 82 548T97 551Q120 551 148 538T196 505T217 463Q217 450 213 412T204 320T193 209T183 97T179
2Q179 -3 175 -8T162 -14ZM272 648Q222 648 189 666T156 740Q156 759 160 781T186 809Q198 811 215 812T245 813Q273 813 307 804Q324 800 324 791Q324 768 313 737T302 652Q286 648 272 648ZM79 648Q29 648 -4 666T-37 740Q-37 759 -33 781T-7 809Q5 811 22 812T52
813Q80 813 114 804Q131 800 131 791Q131 768 120 737T109 652Q93 648 79 648Z" />
<glyph unicode="&#xf0;" glyph-name="eth" horiz-adv-x="534" d="M217 -14Q189 -14 155 5T91 55T41 126T21 204Q21 266 39 322T88 422T161 492T250 518Q299 518 349 482Q337 525 317 563L256 556Q242 555 224 565T191 591T177 617Q177 636 203 642L250 653Q210
692 163 711Q166 724 186 741T256 758Q302 758 340 741T408 692L439 700Q454 704 472 693T506 665T532 631T543 605Q543 598 530 592T499 584L477 581Q510 498 510 400Q510 324 492 251T438 117T347 22T217 -14ZM161 142Q161 119 174 106T204 93Q236 93 264 116T315
180T351 270T364 376Q364 380 364 383Q332 415 298 415Q261 415 230 379T180 281T161 142Z" />
<glyph unicode="&#xf1;" glyph-name="ntilde" horiz-adv-x="529" d="M438 -14Q371 -14 346 25T320 125Q320 172 332 228T360 343H358Q308 262 265 174T185 -11Q131 -11 101 26Q70 40 56 67T41 126Q41 218 52 329T89 560Q92 579 110 579Q137 579 161 567T200 531T215
477Q215 472 215 466T213 454L163 196H165Q190 253 215 309T267 412T323 487T383 516Q408 516 436 490Q464 482 478 464T493 423Q493 420 493 417T492 411Q488 389 483 350T474 261T466 158T463 54Q463 38 464 22T468 -8Q453 -14 438 -14ZM366 630Q339 630 319
642T283 666T249 678Q230 678 215 657Q206 647 199 644T186 640Q175 642 167 661T158 712Q158 733 172 755T207 794T252 810Q283 810 302 798T336 774T369 761Q388 761 404 783Q412 794 419 797T432 800Q443 799 451 780T460 728Q460 707 446 685T411 646T366 630Z"
/>
<glyph unicode="&#xf2;" glyph-name="ograve" horiz-adv-x="534" d="M245 -15Q212 -15 182 -3T132 40Q84 63 58 120T32 253Q32 319 50 378T99 484T170 556T256 583Q294 583 332 570T398 521Q447 496 473 448T500 343Q500 270 485 205T439 91T360 13T245 -15ZM225
95Q255 95 278 121T317 187T341 275T350 364Q350 410 340 441T306 472Q276 472 253 446T214 380T190 292T181 203Q181 157 192 126T225 95ZM335 637Q305 637 270 649T202 680T150 717T129 749Q129 769 141 787T171 816T207 828Q225 828 236 817Q255 800 280 775T330
727T373 688Q383 681 383 670Q383 657 371 647T335 637Z" />
<glyph unicode="&#xf3;" glyph-name="oacute" horiz-adv-x="534" d="M245 -15Q212 -15 182 -3T132 40Q84 63 58 120T32 253Q32 319 50 378T99 484T170 556T256 583Q294 583 332 570T398 521Q447 496 473 448T500 343Q500 270 485 205T439 91T360 13T245 -15ZM225
95Q255 95 278 121T317 187T341 275T350 364Q350 410 340 441T306 472Q276 472 253 446T214 380T190 292T181 203Q181 157 192 126T225 95ZM260 627Q238 627 223 640T208 667Q208 677 218 686Q234 700 260 722T313 770T362 818Q376 832 392 832Q410 832 426 818T452
782T462 740Q462 720 439 700T383 664T315 637T260 627Z" />
<glyph unicode="&#xf4;" glyph-name="ocircumflex" horiz-adv-x="534" d="M245 -15Q212 -15 182 -3T132 40Q84 63 58 120T32 253Q32 319 50 378T99 484T170 556T256 583Q294 583 332 570T398 521Q447 496 473 448T500 343Q500 270 485 205T439 91T360 13T245 -15ZM225
95Q255 95 278 121T317 187T341 275T350 364Q350 410 340 441T306 472Q276 472 253 446T214 380T190 292T181 203Q181 157 192 126T225 95ZM167 616Q147 616 137 631T126 663Q126 680 136 689Q157 706 185 734T242 790T289 836Q301 846 312 846Q325 846 336 835Q351
820 373 794T420 740T465 694Q474 686 474 674Q474 656 452 641T406 626Q377 626 349 648T294 702Q257 664 231 640T167 616Z" />
<glyph unicode="&#xf5;" glyph-name="otilde" horiz-adv-x="534" d="M245 -15Q212 -15 182 -3T132 40Q84 63 58 120T32 253Q32 319 50 378T99 484T170 556T256 583Q294 583 332 570T398 521Q447 496 473 448T500 343Q500 270 485 205T439 91T360 13T245 -15ZM225
95Q255 95 278 121T317 187T341 275T350 364Q350 410 340 441T306 472Q276 472 253 446T214 380T190 292T181 203Q181 157 192 126T225 95ZM348 630Q321 630 301 642T265 666T231 678Q212 678 197 657Q188 647 181 644T168 640Q157 642 149 661T140 712Q140 733
154 755T189 794T234 810Q265 810 284 798T318 774T351 761Q370 761 386 783Q394 794 401 797T414 800Q425 799 433 780T442 728Q442 707 428 685T393 646T348 630Z" />
<glyph unicode="&#xf6;" glyph-name="odieresis" horiz-adv-x="534" d="M245 -15Q212 -15 182 -3T132 40Q84 63 58 120T32 253Q32 319 50 378T99 484T170 556T256 583Q294 583 332 570T398 521Q447 496 473 448T500 343Q500 270 485 205T439 91T360 13T245 -15ZM225
95Q255 95 278 121T317 187T341 275T350 364Q350 410 340 441T306 472Q276 472 253 446T214 380T190 292T181 203Q181 157 192 126T225 95ZM430 648Q380 648 347 666T314 740Q314 759 318 781T344 809Q356 811 373 812T403 813Q431 813 465 804Q482 800 482 791Q482
768 471 737T460 652Q444 648 430 648ZM237 648Q187 648 154 666T121 740Q121 759 125 781T151 809Q163 811 180 812T210 813Q238 813 272 804Q289 800 289 791Q289 768 278 737T267 652Q251 648 237 648Z" />
<glyph unicode="&#xf7;" glyph-name="divide" horiz-adv-x="450" d="M256 380Q220 380 191 388T145 417T131 478Q132 492 133 507T142 535T164 552Q177 554 195 555T227 556Q257 556 293 546Q303 544 307 542T311 532Q311 507 304 475T288 384Q271 380 256 380ZM371
241Q321 242 279 242T192 244T93 249Q82 250 66 265T38 299T26 329Q26 335 30 338T52 343T106 345T209 346H343Q352 346 366 336T393 311T415 282T424 258Q424 251 407 246T371 241ZM256 29Q220 29 191 37T145 66T131 127Q132 141 133 156T142 184T164 201Q177
203 195 204T227 205Q257 205 293 195Q303 193 307 191T311 181Q311 156 304 124T288 33Q271 29 256 29Z" />
<glyph unicode="&#xf8;" glyph-name="oslash" horiz-adv-x="534" d="M157 -101Q145 -101 122 -94T79 -73T60 -43Q60 -36 64 -29Q70 -18 83 5T110 53Q72 81 52 133T32 253Q32 319 50 378T99 484T170 556T256 583Q286 583 313 576Q330 613 340 635T351 657Q356 669
375 669Q393 669 415 658T453 626T465 573Q464 570 455 551T431 499Q464 471 482 430T500 343Q500 270 485 205T439 91T360 13T245 -15Q229 -15 215 -13L172 -89Q167 -101 157 -101ZM225 95Q255 95 278 121T317 187T341 275T350 364Q350 410 340 441T306 472Q276
472 253 446T214 380T190 292T181 203Q181 157 192 126T225 95Z" />
<glyph unicode="&#xf9;" glyph-name="ugrave" horiz-adv-x="509" d="M236 -14Q165 -14 120 20T54 108T33 221Q33 272 36 330T45 444T55 545Q57 568 66 573T90 579Q113 579 139 567T185 536T205 496Q205 490 202 460T195 386T187 299T184 221Q184 121 236 121Q265
121 283 157T314 252T333 385T344 532Q345 547 355 550T372 554Q393 554 420 539T467 497T487 435Q487 371 480 307T455 186T410 83T338 12T236 -14ZM300 637Q270 637 235 649T167 680T115 717T94 749Q94 769 106 787T136 816T172 828Q190 828 201 817Q220 800
245 775T295 727T338 688Q348 681 348 670Q348 657 336 647T300 637Z" />
<glyph unicode="&#xfa;" glyph-name="uacute" horiz-adv-x="509" d="M236 -14Q165 -14 120 20T54 108T33 221Q33 272 36 330T45 444T55 545Q57 568 66 573T90 579Q113 579 139 567T185 536T205 496Q205 490 202 460T195 386T187 299T184 221Q184 121 236 121Q265
121 283 157T314 252T333 385T344 532Q345 547 355 550T372 554Q393 554 420 539T467 497T487 435Q487 371 480 307T455 186T410 83T338 12T236 -14ZM225 627Q203 627 188 640T173 667Q173 677 183 686Q199 700 225 722T278 770T327 818Q341 832 357 832Q375 832
391 818T417 782T427 740Q427 720 404 700T348 664T280 637T225 627Z" />
<glyph unicode="&#xfb;" glyph-name="ucircumflex" horiz-adv-x="509" d="M236 -14Q165 -14 120 20T54 108T33 221Q33 272 36 330T45 444T55 545Q57 568 66 573T90 579Q113 579 139 567T185 536T205 496Q205 490 202 460T195 386T187 299T184 221Q184 121 236
121Q265 121 283 157T314 252T333 385T344 532Q345 547 355 550T372 554Q393 554 420 539T467 497T487 435Q487 371 480 307T455 186T410 83T338 12T236 -14ZM132 616Q112 616 102 631T91 663Q91 680 101 689Q122 706 150 734T207 790T254 836Q266 846 277 846Q290
846 301 835Q316 820 338 794T385 740T430 694Q439 686 439 674Q439 656 417 641T371 626Q342 626 314 648T259 702Q222 664 196 640T132 616Z" />
<glyph unicode="&#xfc;" glyph-name="udieresis" horiz-adv-x="509" d="M236 -14Q165 -14 120 20T54 108T33 221Q33 272 36 330T45 444T55 545Q57 568 66 573T90 579Q113 579 139 567T185 536T205 496Q205 490 202 460T195 386T187 299T184 221Q184 121 236 121Q265
121 283 157T314 252T333 385T344 532Q345 547 355 550T372 554Q393 554 420 539T467 497T487 435Q487 371 480 307T455 186T410 83T338 12T236 -14ZM395 648Q345 648 312 666T279 740Q279 759 283 781T309 809Q321 811 338 812T368 813Q396 813 430 804Q447 800
447 791Q447 768 436 737T425 652Q409 648 395 648ZM202 648Q152 648 119 666T86 740Q86 759 90 781T116 809Q128 811 145 812T175 813Q203 813 237 804Q254 800 254 791Q254 768 243 737T232 652Q216 648 202 648Z" />
<glyph unicode="&#xfd;" glyph-name="yacute" horiz-adv-x="474" d="M129 -190Q87 -190 68 -178T44 -152T39 -136Q39 -127 44 -124T54 -118Q62 -114 81 -100T123 -57T160 21Q127 40 107 76T78 150Q73 175 67 216T55 306T42 403T32 491T24 556T21 581Q26 593 57
593Q80 593 111 576T166 532T192 471Q193 459 197 412T206 300T216 167H219L326 576Q329 588 359 588Q381 588 407 577T453 546T473 499Q473 495 473 490T471 480Q470 476 461 448T437 376T402 277T361 164T320 49Q297 -15 269 -69T206 -157T129 -190ZM196 627Q174
627 159 640T144 667Q144 677 154 686Q170 700 196 722T249 770T298 818Q312 832 328 832Q346 832 362 818T388 782T398 740Q398 720 375 700T319 664T251 637T196 627Z" />
<glyph unicode="&#xfe;" glyph-name="thorn" horiz-adv-x="532" d="M150 -171Q124 -171 94 -160T42 -120T20 -40Q20 -30 22 12T29 118T38 258T50 412T62 560T73 684T83 762Q85 770 93 772T107 775Q122 775 142 767T182 747T213 721T226 692Q226 684 223 646T216
548Q230 564 246 573T280 583Q324 583 364 560T435 500T484 419T502 332Q502 271 483 210T429 98T350 16T252 -15Q213 -15 175 0Q172 -52 170 -92T168 -155Q168 -160 164 -165T150 -171ZM309 470Q279 470 255 449T203 379Q198 312 193 241T182 105Q202 94 221 94Q254
94 279 122T321 193T347 283T356 371Q356 413 345 441T309 470Z" />
<glyph unicode="&#xff;" glyph-name="ydieresis" horiz-adv-x="474" d="M129 -190Q87 -190 68 -178T44 -152T39 -136Q39 -127 44 -124T54 -118Q62 -114 81 -100T123 -57T160 21Q127 40 107 76T78 150Q73 175 67 216T55 306T42 403T32 491T24 556T21 581Q26 593
57 593Q80 593 111 576T166 532T192 471Q193 459 197 412T206 300T216 167H219L326 576Q329 588 359 588Q381 588 407 577T453 546T473 499Q473 495 473 490T471 480Q470 476 461 448T437 376T402 277T361 164T320 49Q297 -15 269 -69T206 -157T129 -190ZM366 648Q316
648 283 666T250 740Q250 759 254 781T280 809Q292 811 309 812T339 813Q367 813 401 804Q418 800 418 791Q418 768 407 737T396 652Q380 648 366 648ZM173 648Q123 648 90 666T57 740Q57 759 61 781T87 809Q99 811 116 812T146 813Q174 813 208 804Q225 800 225
791Q225 768 214 737T203 652Q187 648 173 648Z" />
<glyph unicode="&#x2013;" glyph-name="endash" horiz-adv-x="540" d="M132 296Q117 296 94 299T46 312T6 336T-11 376Q-11 391 1 396T31 401L412 404Q445 404 475 393T524 365T544 327Q544 312 527 306T492 299Q478 298 444 298T366 297T276 297T192 296T132 296Z" />
<glyph unicode="&#x2014;" glyph-name="emdash" horiz-adv-x="720" d="M145 303Q127 303 101 308T48 324T5 349T-12 382Q-12 398 0 403T30 408L593 411Q627 411 656 398T705 366T724 333Q724 323 708 315T672 306Q661 306 622 306T528 305T413 304T296 303T200
303T145 303Z" />
<glyph unicode="&#x2018;" glyph-name="quoteleft" horiz-adv-x="257" d="M203 775Q219 775 229 770T240 746Q240 729 225 695T195 611T180 496Q163 492 147 492Q77 492 48 516T18 575Q18 607 36 641T82 706T143 756T203 775Z" />
<glyph unicode="&#x2019;" glyph-name="quoteright" horiz-adv-x="257" d="M54 492Q38 492 28 497T17 521Q17 539 32 572T62 656T77 771Q94 775 110 775Q181 775 210 751T239 692Q239 661 221 626T175 561T114 511T54 492Z" />
<glyph unicode="&#x201a;" glyph-name="quotesinglbase" horiz-adv-x="257" d="M313 -131Q297 -131 287 -126T276 -102Q276 -84 291 -51T321 33T336 148Q353 152 369 152Q440 152 469 128T498 69Q498 38 480 3T434 -62T373 -112T313 -131Z" />
<glyph unicode="&#x201c;" glyph-name="quotedblleft" horiz-adv-x="488" d="M217 775Q233 775 243 770T254 746Q254 729 239 695T209 611T194 496Q177 492 161 492Q91 492 62 516T32 575Q32 607 50 641T96 706T157 756T217 775ZM420 775Q436 775 446 770T457
746Q457 729 442 695T412 611T397 496Q380 492 364 492Q294 492 265 516T235 575Q235 607 253 641T299 706T360 756T420 775Z" />
<glyph unicode="&#x201d;" glyph-name="quotedblright" horiz-adv-x="488" d="M271 492Q255 492 245 497T234 521Q234 539 249 572T279 656T294 771Q311 775 327 775Q398 775 427 751T456 692Q456 661 438 626T392 561T331 511T271 492ZM68 492Q52 492 42 497T31
521Q31 539 46 572T76 656T91 771Q108 775 124 775Q195 775 224 751T253 692Q253 661 235 626T189 561T128 511T68 492Z" />
<glyph unicode="&#x201e;" glyph-name="quotedblbase" horiz-adv-x="488" d="M265 -126Q249 -126 239 -121T228 -97Q228 -79 243 -46T273 38T288 153Q305 157 321 157Q392 157 421 133T450 74Q450 43 432 8T386 -57T325 -107T265 -126ZM318 -126Q302 -126 292
-121T281 -97Q281 -79 296 -46T326 38T341 153Q358 157 374 157Q445 157 474 133T503 74Q503 43 485 8T439 -57T378 -107T318 -126Z" />
<glyph unicode="&#x2022;" glyph-name="bullet" horiz-adv-x="400" d="M199 175Q126 175 91 215T55 320Q55 363 73 395T124 445T194 464Q234 464 268 448T323 403T345 331Q345 258 308 217T199 175Z" />
<glyph unicode="&#x2039;" glyph-name="guilsinglleft" horiz-adv-x="346" d="M226 49Q208 49 183 77Q177 83 163 103T128 150T87 203T45 248Q30 262 27 275T24 301Q25 310 33 320T50 340L231 529Q252 529 267 512T283 465Q285 437 276 412T240 358T164 286Q186
261 205 224T236 148T248 84Q248 68 243 59T226 49Z" />
<glyph unicode="&#x203a;" glyph-name="guilsinglright" horiz-adv-x="346" d="M120 549Q138 549 163 521Q169 515 183 495T218 448T259 395T301 350Q316 336 319 323T322 297Q321 288 313 278T296 258L115 69Q94 69 79 87T63 133Q61 161 70 186T106 240T182 312Q160
337 141 374T110 450T98 514Q98 530 103 539T120 549Z" />
</font>
</defs>
</svg>
