<?xml version="1.0" standalone="no"?>
<!DOCTYPE svg PUBLIC "-//W3C//DTD SVG 1.1//EN" "http://www.w3.org/Graphics/SVG/1.1/DTD/svg11.dtd">
<svg xmlns="http://www.w3.org/2000/svg">
<defs >
<font id="ShipporiMinchoB1" horiz-adv-x="993" ><font-face
    font-family="Shippori Mincho B1"
    units-per-em="1000"
    panose-1="0 0 5 0 0 0 0 0 0 0"
    ascent="1160"
    descent="-288"
    alphabetic="0" />
<glyph unicode=" " glyph-name="space" horiz-adv-x="258" />
<glyph unicode="!" glyph-name="exclam" horiz-adv-x="288" d="M138 185T134 190T129 206Q129 341 122 423T101 585Q91 642 91 669Q91 701 105 718T144 735Q169 735 183 718T197 669Q197 642 187 585Q174 506 167 424T159 206Q159 196 155 191T144 185Q138 185
134 190ZM122 -14T106 2T90 40Q90 63 106 78T144 94Q167 94 182 79T198 40Q198 18 183 2T144 -14Q122 -14 106 2Z" />
<glyph unicode="&quot;" glyph-name="quotedbl" horiz-adv-x="389" d="M93 464T90 467T85 481Q70 553 59 635T48 738Q48 765 61 781T99 797Q123 797 136 781T150 740Q150 715 139 633T113 481Q111 471 108 468T99 464Q93 464 90 467ZM286 464T283 467T278 481Q263
553 252 635T241 738Q241 765 254 781T292 797Q316 797 329 781T343 740Q343 715 332 633T306 481Q304 471 301 468T292 464Q286 464 283 467Z" />
<glyph unicode="#" glyph-name="numbersign" horiz-adv-x="676" d="M639 505T644 500T650 484V478Q650 468 645 463T629 457H533Q514 457 510 438L477 285L476 279Q476 271 481 267T496 262H629Q639 262 644 257T650 241V235Q650 225 645 220T629 214H480Q461
214 457 195L418 15Q414 -4 395 -4H392Q381 -4 376 2T373 19L410 191L411 197Q411 205 406 209T391 214H216Q197 214 193 195L154 15Q150 -4 131 -4H128Q117 -4 112 2T109 19L146 191L147 197Q147 205 142 209T127 214H47Q37 214 32 219T26 235V241Q26 251 31 256T47
262H143Q162 262 166 281L199 434L200 440Q200 448 195 452T180 457H47Q37 457 32 462T26 478V484Q26 494 31 499T47 505H196Q215 505 219 524L258 703Q262 722 281 722H284Q295 722 300 716T303 699L266 528L265 522Q265 514 270 510T285 505H460Q479 505 483
524L522 703Q526 722 545 722H548Q559 722 564 716T567 699L530 528L529 522Q529 514 534 510T549 505H629Q639 505 644 500ZM212 279Q212 271 217 267T232 262H407Q426 262 430 281L463 434L464 440Q464 448 459 452T444 457H269Q250 457 246 438L213 285L212
279Z" />
<glyph unicode="$" glyph-name="dollar" horiz-adv-x="544" d="M453 316T476 280T499 197Q499 136 469 88T391 13T288 -14L287 -34V-100Q287 -110 283 -115T272 -121Q265 -121 261 -116T257 -100V-32Q257 -14 237 -9Q160 3 108 49T55 168Q55 197 69 215T106 233Q129
233 142 217T155 177Q155 164 152 155T143 134Q139 126 136 117T133 98Q133 73 163 55T234 28L239 27Q248 27 252 33T257 48V302Q257 319 241 326Q177 354 152 373Q115 400 93 434T71 519Q71 559 87 599T140 670T237 709Q257 712 257 731V781Q257 791 261 796T272
802Q279 802 283 797T287 781V732Q287 713 307 711Q381 703 430 662T480 553Q480 525 466 509T430 493Q410 493 396 505T381 541Q381 556 389 574Q397 592 397 604Q397 635 372 654T309 677H307Q287 677 287 656V420Q287 403 305 394Q379 359 406 343Q453 316 476
280ZM232 429Q238 426 243 426Q257 426 257 444V652Q257 663 251 668T234 671Q186 657 159 622T131 541Q131 506 150 484T214 438L232 429ZM306 298T301 298Q287 298 287 279V47Q287 36 293 31T309 27Q362 38 395 75T428 168Q428 233 360 272Q350 279 312 295Q306
298 301 298Z" />
<glyph unicode="%" glyph-name="percent" horiz-adv-x="938" d="M746 748T746 739Q746 734 741 726L231 -26Q225 -36 215 -36Q208 -36 203 -32Q193 -26 193 -17Q193 -11 198 -3L708 748Q714 758 724 758Q732 758 737 754Q746 748 746 739ZM185 286T152 311T99
386T79 510Q79 582 99 633T153 709T225 735Q263 735 295 710T348 633T368 510Q368 437 348 387T295 311T223 286Q185 286 152 311ZM259 316T281 365T303 510Q303 605 281 654T225 704Q191 704 169 655T146 510Q146 414 168 365T225 316Q259 316 281 365ZM677 -13T644
12T591 87T571 211Q571 283 591 334T644 410T716 436Q754 436 787 411T840 334T860 211Q860 138 840 88T786 12T715 -13Q677 -13 644 12ZM750 17T772 66T794 211Q794 306 772 355T716 405Q682 405 660 356T637 211Q637 115 659 66T716 17Q750 17 772 66Z" />
<glyph unicode="&amp;" glyph-name="ampersand" horiz-adv-x="820" d="M765 106T769 101T774 91Q774 87 770 82Q697 -13 606 -13Q542 -13 477 30Q471 35 462 35Q455 35 448 31Q370 -14 261 -14Q149 -14 93 37T36 165Q36 237 82 287T212 384Q225 390 225 402Q225
405 223 411Q193 486 193 549Q193 600 214 642T274 709T363 734Q410 734 448 717T508 671T530 605Q530 551 478 503T336 408Q324 401 324 390Q324 383 326 379L356 317Q416 196 480 127Q486 120 494 120Q503 120 510 129Q547 174 563 227T580 318Q580 390 487 390Q479
390 479 405Q479 419 487 419H739Q747 419 747 405Q747 390 739 390Q648 390 629 305Q601 183 537 104Q531 97 531 89Q531 81 540 75Q588 41 629 41Q664 41 689 55T742 97Q751 106 759 106Q765 106 769 101ZM321 701T294 665T267 580Q267 530 296 454Q301 440 312
440Q319 440 324 444Q458 523 458 604Q458 648 435 674T366 701Q321 701 294 665ZM360 35T408 55Q420 60 420 70Q420 78 413 85Q370 129 337 182T284 276Q259 329 253 340Q247 352 237 352Q230 352 225 348Q169 314 147 277T124 187Q124 146 145 112T207 56T298
35Q360 35 408 55Z" />
<glyph unicode="&apos;" glyph-name="quotesingle" horiz-adv-x="198" d="M93 464T90 467T85 481Q70 553 59 635T48 738Q48 765 61 781T99 797Q123 797 136 781T150 740Q150 715 139 633T113 481Q111 471 108 468T99 464Q93 464 90 467Z" />
<glyph unicode="(" glyph-name="parenleft" horiz-adv-x="363" d="M318 -101T314 -97Q217 -13 154 112T90 380Q90 523 153 648T314 857Q318 861 323 861Q328 861 331 858T335 850Q335 846 332 843Q262 761 224 638T185 380Q185 245 223 122T332 -83Q335 -86 335
-90Q335 -95 332 -98T323 -101Q318 -101 314 -97Z" />
<glyph unicode=")" glyph-name="parenright" horiz-adv-x="363" d="M35 -101T32 -98T28 -90Q28 -86 31 -83Q101 -1 139 122T178 380Q178 515 140 638T31 843Q28 846 28 850Q28 854 31 857T40 861Q45 861 49 857Q146 773 209 648T273 380Q273 237 210 112T49 -97Q45
-101 40 -101Q35 -101 32 -98Z" />
<glyph unicode="*" glyph-name="asterisk" horiz-adv-x="441" d="M420 501T420 481Q420 468 410 456T385 444Q366 444 346 459T295 504Q269 530 255 541Q242 552 229 559V558Q229 532 243 480Q258 429 258 397Q258 377 249 364T221 351Q204 351 194 364T184 397Q184
429 199 480Q213 532 213 558Q211 558 204 554T187 541Q173 530 147 504Q116 474 97 460T58 445Q43 445 33 457T23 482Q23 502 50 518Q65 527 82 533T127 546Q160 555 170 559Q184 564 184 574Q184 584 170 589Q144 597 130 600Q125 601 98 609T50 629Q23 645 23
665Q23 678 33 690T58 702Q77 702 97 687T148 642Q174 616 188 605Q197 597 204 593T214 588V590Q214 616 200 668Q185 719 185 751Q185 771 195 784T222 797Q240 797 249 784T259 751Q259 719 244 668Q230 616 230 590Q232 590 239 594T256 607Q270 618 296 644Q327
674 346 688T385 703Q400 703 410 691T420 666Q420 646 393 630Q367 614 310 600Q296 597 270 589Q257 583 257 573Q257 564 269 559Q286 553 312 546Q365 533 393 517Q420 501 420 481Z" />
<glyph unicode="+" glyph-name="plus" horiz-adv-x="605" d="M328 397T333 392T349 386H550Q560 386 565 381T571 365V357Q571 347 566 342T550 336H349Q339 336 334 331T328 315V114Q328 104 323 99T307 93H299Q289 93 284 98T278 114V315Q278 325 273 330T257
336H56Q46 336 41 341T35 357V365Q35 375 40 380T56 386H257Q267 386 272 391T278 407V608Q278 618 283 623T299 629H307Q317 629 322 624T328 608V407Q328 397 333 392Z" />
<glyph unicode="," glyph-name="comma" horiz-adv-x="250" d="M84 -107T82 -104T80 -99Q80 -97 82 -95Q100 -79 109 -63T119 -35Q119 -19 106 -12Q89 -4 80 7T70 36Q70 60 86 76T125 92Q148 92 164 76T180 34Q180 -12 153 -49T90 -106L87 -107Q84 -107 82 -104Z" />
<glyph unicode="-" glyph-name="hyphen" horiz-adv-x="271" d="M228 213T223 208T207 202H64Q54 202 49 207T43 223V245Q43 255 48 260T64 266H207Q217 266 222 261T228 245V223Q228 213 223 208Z" />
<glyph unicode="." glyph-name="period" horiz-adv-x="249" d="M102 -16T86 0T70 38Q70 61 86 76T124 92Q147 92 163 76T179 38Q179 16 163 0T124 -16Q102 -16 86 0Z" />
<glyph unicode="/" glyph-name="slash" horiz-adv-x="443" d="M434 847T434 835Q434 828 432 824L47 -80Q43 -93 31 -93Q24 -93 21 -91Q9 -85 9 -74Q9 -72 11 -64L397 840Q401 853 413 853Q419 853 423 851Q434 847 434 835Z" />
<glyph unicode="0" glyph-name="zero" horiz-adv-x="520" d="M203 -14T155 28T77 154T47 359Q47 480 77 565T155 692T261 735Q317 735 365 693T443 565T473 359Q473 238 443 154T365 28T259 -14Q203 -14 155 28ZM319 20T352 104T386 359Q386 529 353 614T261 700Q202
700 168 615T134 359Q134 189 168 105T261 20Q319 20 352 104Z" />
<glyph unicode="1" glyph-name="one" horiz-adv-x="487" d="M90 0Q83 0 83 14Q83 29 90 29H106Q155 29 185 44T215 91V570Q215 600 210 610T184 624T107 628H90Q83 628 83 643Q83 657 90 657Q144 657 187 670T270 714Q278 720 283 720Q295 720 295 702V91Q295
29 404 29H419Q423 29 424 26T426 14Q426 0 419 0H90Z" />
<glyph unicode="2" glyph-name="two" horiz-adv-x="511" d="M427 18Q423 0 404 0H76Q58 0 54 11Q51 17 51 23Q51 29 54 36Q83 108 125 169T235 312Q308 397 341 452T374 566Q374 620 344 661T250 702Q203 702 170 679T137 621Q137 608 140 599T152 579Q159 568
162 560T166 539Q166 515 152 501T114 486Q94 486 78 505T61 559Q61 596 83 637T151 706T263 735Q335 735 379 707T441 636T460 547Q460 505 446 474T408 416T336 345Q325 334 308 319T269 282Q181 193 131 98Q128 92 128 87Q128 73 147 73H238Q311 73 347 81T401
112T438 183Q440 189 445 189Q446 189 454 187Q460 185 463 183T466 177L465 172L427 18Z" />
<glyph unicode="3" glyph-name="three" horiz-adv-x="523" d="M301 387T301 384Q301 381 313 378Q386 359 430 312T474 198Q474 153 454 105T381 21T242 -14Q174 -14 131 11T69 71T50 140Q50 172 65 187T101 203Q122 203 139 191T156 155Q156 144 145 126Q140
119 137 112T133 96Q133 67 155 43T233 19Q277 19 312 43T367 109T387 205Q387 278 347 323T236 368Q229 368 215 366T191 364Q180 364 173 369T165 385Q165 394 172 400T191 406Q205 406 217 403Q233 401 242 401Q284 401 323 429T362 549Q362 632 327 666T244
701Q215 701 188 688T160 637Q160 621 168 603Q175 591 175 577Q175 558 164 546T135 534Q104 534 91 553T77 597Q77 624 99 656T163 712T257 735Q315 735 358 711T425 646T448 558Q448 499 414 454T313 390Q301 387 301 384Z" />
<glyph unicode="4" glyph-name="four" horiz-adv-x="503" d="M476 206T481 201T487 185Q487 175 482 170T466 164H395Q385 164 380 159T374 143V65Q374 43 393 36T443 29H456Q465 29 465 15Q465 0 456 0H216Q208 0 208 15Q208 29 216 29H229Q260 29 279 36T298
65V143Q298 153 293 158T277 164H50Q40 164 35 169T29 185V192Q29 207 36 218L325 719Q335 735 352 731L356 730Q374 726 374 707V227Q374 217 379 212T395 206H466Q476 206 481 201ZM298 548T295 552T287 557Q279 557 273 546L91 231Q88 225 88 220Q88 206 106
206H277Q287 206 292 211T298 227V539Q298 548 295 552Z" />
<glyph unicode="5" glyph-name="five" horiz-adv-x="502" d="M288 467T334 448T417 376T453 231Q453 158 420 102T336 16T233 -14Q187 -14 143 3T70 54T41 135Q41 168 55 182T88 197Q109 197 126 186T143 150Q143 137 137 119Q136 115 134 107T132 92Q132 56 160
38T224 19Q262 19 294 44T345 116T365 224Q365 315 328 370T229 425Q161 425 99 346Q93 338 85 336H81Q75 336 73 339H72Q59 347 59 365L71 705Q71 715 77 720T93 726H400Q411 726 416 720T419 703L413 670Q412 661 406 656T390 651H125Q105 651 103 630L95 425Q93
411 105 411Q115 411 131 424Q161 447 189 457T249 467Q288 467 334 448Z" />
<glyph unicode="6" glyph-name="six" horiz-adv-x="532" d="M359 453T401 424T465 346T487 243Q487 174 461 115T386 21T274 -14Q209 -14 157 24T76 130T47 288Q47 431 87 532T187 684T306 735Q352 735 385 722T436 686T453 640Q453 619 439 605T404 590Q383 590
367 608T349 657Q347 680 337 691T304 702Q238 702 198 618T142 415Q141 407 145 403T157 398Q169 398 183 409Q236 453 301 453Q359 453 401 424ZM311 24T339 51T384 125T400 230Q400 336 360 371T272 406Q233 406 195 380T138 298Q134 285 134 272Q136 166 165
95T274 24Q311 24 339 51Z" />
<glyph unicode="7" glyph-name="seven" horiz-adv-x="545" d="M193 -13T181 12T168 72Q168 171 242 320T417 630Q421 635 421 642Q421 655 403 655H256Q195 655 164 642T117 603T81 522Q79 518 78 517T73 516L65 518Q59 520 56 522T53 527L55 538L71 611Q76 637
82 662T92 710Q97 728 115 728H469Q487 728 491 717Q493 711 493 709Q493 702 488 692Q394 531 348 431T286 250T269 63Q269 -13 219 -13Q193 -13 181 12Z" />
<glyph unicode="8" glyph-name="eight" horiz-adv-x="539" d="M329 404T329 397Q329 390 340 384Q386 357 416 334T468 276T489 193Q489 132 458 85T376 12T272 -14Q215 -14 164 10T81 77T50 175Q50 236 84 274T185 351Q196 357 196 365Q196 374 185 379Q132 409
102 449T72 555Q72 599 93 640T157 708T261 735Q310 735 353 716T422 658T449 569Q449 475 340 412Q329 404 329 397ZM135 547T152 520T198 472T277 420Q284 416 291 416Q299 416 306 422Q374 480 374 567Q374 597 362 628T323 680T253 702Q214 702 188 683T148
636T135 583Q135 547 152 520ZM334 20T373 64T413 178Q413 230 370 267T248 346Q243 350 235 350Q228 350 219 344Q178 311 153 267T128 176Q128 136 144 101T190 43T262 20Q334 20 373 64Z" />
<glyph unicode="9" glyph-name="nine" horiz-adv-x="532" d="M315 734T367 696T448 590T477 432Q477 289 437 188T337 36T218 -15Q172 -15 139 -2T88 34T71 80Q71 101 85 115T120 130Q141 130 157 112T175 63Q177 40 187 29T220 18Q286 18 326 102T382 305Q383
314 379 320T367 326Q359 326 349 318Q295 267 223 267Q165 267 123 296T59 374T37 477Q37 546 63 605T138 699T250 734Q315 734 367 696ZM291 314T329 340T386 422Q390 435 390 448Q388 554 359 625T250 696Q213 696 185 669T140 595T124 490Q124 384 164 349T252
314Q291 314 329 340Z" />
<glyph unicode=":" glyph-name="colon" horiz-adv-x="209" d="M102 379T86 394T70 432Q70 455 85 471T124 487Q147 487 163 471T179 432Q179 410 163 395T124 379Q102 379 86 394ZM102 -16T86 0T70 38Q70 61 86 76T124 92Q147 92 163 76T179 38Q179 16 163 0T124
-16Q102 -16 86 0Z" />
<glyph unicode=";" glyph-name="semicolon" horiz-adv-x="210" d="M103 379T87 394T71 432Q71 455 86 471T125 487Q147 487 163 471T179 432Q179 410 163 395T125 379Q103 379 87 394ZM84 -107T82 -104T80 -99Q80 -97 82 -95Q100 -79 109 -63T119 -35Q119 -19
106 -12Q89 -4 80 7T70 36Q70 60 86 76T125 92Q148 92 164 76T180 34Q180 -12 153 -49T90 -106L87 -107Q84 -107 82 -104Z" />
<glyph unicode="&lt;" glyph-name="less" horiz-adv-x="758" d="M692 123T692 106V96Q692 87 688 82T677 77Q674 77 668 79L80 330Q64 337 64 354V366Q64 383 80 390L668 642Q674 644 677 644Q684 644 688 639T692 625V614Q692 597 676 590L171 374Q165 372 162
368T158 360Q158 353 171 346L676 130Q692 123 692 106Z" />
<glyph unicode="=" glyph-name="equal" horiz-adv-x="633" d="M599 468T594 463T578 457H56Q46 457 41 462T35 478V486Q35 496 40 501T56 507H578Q588 507 593 502T599 486V478Q599 468 594 463ZM599 225T594 220T578 214H56Q46 214 41 219T35 235V243Q35 253
40 258T56 264H578Q588 264 593 259T599 243V235Q599 225 594 220Z" />
<glyph unicode="&gt;" glyph-name="greater" horiz-adv-x="759" d="M695 337T679 330L90 79Q84 77 81 77Q74 77 70 82T66 96V106Q66 123 82 130L588 346Q601 352 601 360Q601 370 588 374L82 590Q66 597 66 614V625Q66 634 70 639T81 644Q84 644 90 642L679 390Q695
383 695 366V354Q695 337 679 330Z" />
<glyph unicode="?" glyph-name="question" horiz-adv-x="444" d="M145 185T145 206L143 400Q143 421 164 422Q232 427 277 465T322 562Q322 622 292 650T226 679Q215 679 206 672T186 652Q170 634 156 624T122 614Q101 614 89 627T76 661Q76 690 101 713T182 737Q226
737 271 718T346 655T377 540Q377 486 350 446T282 382T199 354Q178 352 178 333L175 206Q175 196 171 191T160 185Q145 185 145 206ZM138 -14T122 2T106 40Q106 63 122 78T160 94Q183 94 198 79T214 40Q214 18 199 2T160 -14Q138 -14 122 2Z" />
<glyph unicode="@" glyph-name="at" horiz-adv-x="906" d="M858 232T863 229T868 221Q868 218 867 216Q797 76 694 5T433 -67Q316 -67 227 -19T88 116T38 317Q38 435 90 547T245 730T490 802Q606 802 685 754T803 629T842 466Q842 379 806 306T711 190T590 147Q544
147 524 170T504 245Q504 259 507 278Q508 282 508 287Q508 296 504 296Q501 296 493 284Q462 234 419 197T326 160Q276 160 253 192T229 268Q229 326 267 407T368 546T499 604Q523 604 541 595T570 570Q571 568 574 562T580 556T583 561L588 574Q592 589 610 592L633
595H637Q647 595 651 589T652 573Q622 483 594 381T566 238Q566 186 606 186Q655 186 702 222T780 322T811 466Q811 535 781 604T679 722T493 770Q371 770 280 706T139 538T90 319Q90 200 140 121T272 3T445 -35Q569 -35 672 26T845 226Q848 232 854 232Q858 232
863 229ZM378 217T407 233T471 294T539 414L544 432Q549 459 549 476Q549 521 530 550T484 579Q441 579 399 526T329 402T301 283Q301 248 318 233T359 217Q378 217 407 233Z" />
<glyph unicode="A" glyph-name="A" horiz-adv-x="762" d="M746 28T747 24T748 14Q748 0 742 0H458Q454 0 453 3T451 14Q451 21 452 24T458 28Q496 28 524 39T552 81Q552 93 548 104L499 245Q493 262 475 262H235Q217 262 211 245L194 198L172 134Q163 109 163
90Q163 28 258 28Q262 28 263 24T264 14Q264 0 258 0H12Q8 0 7 3T5 14Q5 21 6 24T12 28Q41 28 71 49T120 118L345 715Q351 730 366 735L383 740Q391 743 397 743Q403 743 405 741Q410 738 411 734L445 635Q479 538 547 341T628 114Q660 28 742 28Q746 28 747 24ZM238
318T238 315Q238 308 243 304T257 300H455Q474 300 474 316L472 324L372 612Q368 626 362 633T354 635Q298 488 240 324Q238 318 238 315Z" />
<glyph unicode="B" glyph-name="B" horiz-adv-x="716" d="M55 0T55 14Q55 28 62 28H78Q124 28 143 42T163 91V635Q163 670 143 684T78 698H62Q55 698 55 712V717Q56 723 60 724T74 726L237 727Q334 727 379 726Q483 724 551 678T619 555Q619 495 574 456T458 396Q446
393 446 388Q446 384 458 381Q545 359 602 314T660 200Q660 138 624 93T526 24T391 0H62Q55 0 55 14ZM244 413T249 408T265 402H270Q415 402 470 444T526 559Q526 621 474 659T324 698Q281 698 263 684T244 635V423Q244 413 249 408ZM332 28Q433 28 499 71T566
201Q566 373 270 373H265Q255 373 250 368T244 352V91Q244 55 264 42T329 28H332Z" />
<glyph unicode="C" glyph-name="C" horiz-adv-x="716" d="M324 -14T245 25T112 146T58 344Q58 458 106 547T229 685T382 735Q415 735 441 728T501 709Q514 704 526 700T547 696Q567 696 588 708Q596 713 601 713Q609 713 612 701L646 561L648 550V548Q647 541
642 539T637 537H634Q628 537 622 544Q617 551 590 594T511 667T389 697Q289 697 236 633T166 493T149 366Q149 253 189 178T290 69T412 34Q487 34 540 74T641 186Q646 192 650 192Q654 192 660 187Q667 181 667 176Q667 174 665 170Q564 -14 397 -14Q324 -14 245
25Z" />
<glyph unicode="D" glyph-name="D" horiz-adv-x="782" d="M56 0T56 14Q56 28 64 28H80Q125 28 145 41T165 90V635Q165 671 145 684T80 698H64Q57 698 57 712V717Q58 723 62 724T76 726Q94 727 176 727Q284 727 358 724Q453 720 534 683T667 567T719 363Q719 240
668 161T535 44T358 2Q292 -1 193 -1L64 0Q56 0 56 14ZM339 30Q397 30 462 58T577 160T627 363Q627 492 578 566T463 668T339 696H331Q285 696 266 682T246 633V92Q246 58 265 44T331 30H339Z" />
<glyph unicode="E" glyph-name="E" horiz-adv-x="720" d="M678 174T678 165Q678 162 673 149Q640 66 623 17Q617 0 599 0H62Q55 0 55 14Q55 28 62 28H78Q123 28 143 42T164 91V635Q164 670 143 684T78 698H62Q55 698 55 712Q55 726 62 726H569Q587 726 594 711Q611
682 626 654T648 613Q649 611 649 608Q649 603 641 598Q638 596 633 596Q627 596 623 600Q579 644 516 670T380 697H355Q314 697 292 694T257 677T244 635V414Q244 404 249 399T265 393H334Q395 393 414 394Q456 395 479 422T503 490Q503 497 516 497Q523 497 526
496T530 490V261Q530 253 516 253Q503 253 503 261Q503 302 480 329T414 357Q395 358 334 358H265Q255 358 250 353T244 337V91Q244 57 265 44T330 29Q343 28 375 28Q399 28 410 29Q472 34 516 55T588 103T652 175Q655 179 660 179Q663 179 669 177Q678 174 678
165Z" />
<glyph unicode="F" glyph-name="F" horiz-adv-x="686" d="M649 611T649 608Q649 605 647 603T641 598Q638 596 633 596Q627 596 623 600Q579 644 517 670T380 697H355Q314 697 292 694T257 677T244 635V414Q244 404 249 399T265 393H334Q395 393 414 394Q456 395
479 422T503 490Q503 497 516 497Q523 497 526 496T530 490V261Q530 253 516 253Q503 253 503 261Q503 302 480 329T414 357Q395 358 334 358H265Q255 358 250 353T244 337V91Q244 57 264 43T330 28H346Q353 28 353 15Q353 0 346 0H62Q55 0 55 14Q55 28 62 28H78Q123
28 143 42T164 91V635Q164 670 143 684T78 698H62Q55 698 55 712Q55 726 62 726H569Q587 726 601 698Q643 627 648 613Q649 611 649 608Z" />
<glyph unicode="G" glyph-name="G" horiz-adv-x="744" d="M355 -13T277 11T128 115T58 345Q58 430 96 521T208 673T381 735Q419 735 448 727T517 701Q535 693 548 693Q564 693 582 705Q590 710 595 710Q606 710 609 696L643 557L645 546Q645 543 643 542T638 538Q635
536 631 536Q623 536 619 543Q585 592 557 623T485 676T381 699Q286 699 234 628T165 476T147 345Q147 209 200 138T312 45T408 23Q474 23 509 53T556 124Q567 165 567 193Q567 201 565 219Q563 235 557 247T529 268T466 277Q461 277 460 280T458 291Q458 305 466
305H728Q736 305 736 291Q736 277 728 277Q693 277 669 261T641 216Q639 202 639 169Q639 110 641 54V49Q641 33 634 33H625Q601 33 579 28T520 11Q483 -1 458 -7T403 -13Q355 -13 277 11Z" />
<glyph unicode="H" glyph-name="H" horiz-adv-x="889" d="M827 28Q832 28 833 25T835 14Q835 0 827 0H544Q537 0 537 14Q537 28 544 28H560Q605 28 625 42T646 90V339Q646 349 641 354T625 360H265Q255 360 250 355T244 339V91Q244 56 264 43T330 29H345Q350 29
351 26T353 15Q353 1 345 1H62Q55 1 55 15Q55 29 62 29H78Q123 29 143 43T164 91V636Q164 671 143 685T78 699H62Q55 699 55 713Q55 727 62 727H345Q350 727 351 724T353 713Q353 699 345 699H330Q283 699 264 685T244 636V419Q244 409 249 404T265 398H625Q635
398 640 403T646 419V635Q646 670 625 684T560 698H544Q537 698 537 712Q537 726 544 726H827Q832 726 833 723T835 712Q835 698 827 698H812Q765 698 746 684T726 635V90Q726 55 746 42T812 28H827Z" />
<glyph unicode="I" glyph-name="I" horiz-adv-x="408" d="M62 0Q55 0 55 14Q55 28 62 28H78Q123 28 143 42T164 90V635Q164 670 143 684T78 698H62Q55 698 55 712Q55 726 62 726H345Q350 726 351 723T353 712Q353 698 345 698H330Q283 698 264 684T244 635V90Q244
55 264 42T330 28H345Q350 28 351 25T353 14Q353 0 345 0H62Z" />
<glyph unicode="J" glyph-name="J" horiz-adv-x="437" d="M65 -165T41 -153T7 -123T-4 -92Q-4 -73 8 -62T33 -50Q55 -50 83 -71Q93 -79 101 -88T116 -102Q134 -118 152 -118Q170 -118 183 -100Q207 -65 207 40V635Q207 671 186 684T120 698H105Q98 698 98 712Q98
726 105 726H388Q393 726 394 723T396 712Q396 698 388 698H373Q328 698 307 684T286 635L287 54Q287 -30 257 -79T185 -146T102 -165Q65 -165 41 -153Z" />
<glyph unicode="K" glyph-name="K" horiz-adv-x="812" d="M799 29T800 26T802 15Q802 0 795 0H496Q489 0 489 15Q489 29 496 29Q577 29 577 59Q577 71 562 90L344 348Q337 357 329 357Q322 357 314 349L255 291Q244 280 244 265V91Q244 56 264 43T329 29H346Q353
29 353 15Q353 0 346 0H62Q55 0 55 15Q55 22 56 25T62 29H77Q123 29 143 43T163 91V635Q163 671 143 684T77 698H62Q55 698 55 712Q55 726 62 726H346Q351 726 352 723T354 712Q354 698 346 698H329Q283 698 264 684T244 635V368Q244 360 247 356T256 351Q263 351
270 358Q338 425 400 487T509 596L540 628Q555 645 555 659Q555 676 537 687T486 698Q479 698 479 712Q479 726 486 726H745Q750 726 751 723T753 712Q753 698 745 698Q676 698 607 634Q583 612 404 437Q396 429 396 421Q396 415 402 407Q406 402 414 393T433 369Q475
320 551 228T651 110Q691 63 721 46T795 29Q799 29 800 26Z" />
<glyph unicode="L" glyph-name="L" horiz-adv-x="712" d="M602 0T584 0H62Q58 0 57 3T55 14Q55 29 62 29H78Q124 29 144 42T164 91V635Q164 670 143 684T78 698H62Q55 698 55 712Q55 726 62 726H346Q351 726 352 723T354 712Q354 698 346 698H331Q286 698 265
684T244 635V91Q244 57 264 45T331 30L354 29L394 30Q482 32 537 70T638 174Q641 179 646 179Q649 179 655 176Q663 172 663 166L662 161L632 81L608 17Q602 0 584 0Z" />
<glyph unicode="M" glyph-name="M" horiz-adv-x="1013" d="M66 0Q58 0 58 15Q58 28 66 28H80Q113 28 140 51T167 108V636Q167 671 147 684T80 698H66Q59 698 59 712Q59 726 66 726H235Q254 726 260 710L487 168Q491 155 501 155Q509 155 515 168L754 710Q761 726
778 726H939Q944 726 945 723T947 712Q947 698 939 698H924Q877 698 858 684T839 636V91Q839 56 859 42T924 28H939Q946 28 946 15Q946 0 939 0H658Q652 0 652 15Q652 28 658 28H675Q721 28 741 42T761 91V571Q761 580 758 584T750 589Q742 589 736 576L493 16Q486
0 480 0Q474 0 467 16L230 575Q224 588 217 588Q212 588 209 584T206 570V108Q206 74 234 51T292 28H308Q314 28 314 15Q314 0 308 0H66Z" />
<glyph unicode="N" glyph-name="N" horiz-adv-x="825" d="M55 0Q49 0 49 15Q49 28 55 28H71Q103 28 129 51T156 108V636Q156 670 136 684T71 698H55Q48 698 48 712Q48 726 55 726H216Q232 726 241 713L607 196Q614 186 621 186Q633 186 633 204V618Q633 640 620
658T586 687T546 698H531Q526 698 525 701T523 712Q523 726 531 726H773Q778 726 779 723T781 712Q781 698 773 698H757Q725 698 699 675T672 618V21Q672 11 669 6T660 0Q648 0 639 13L222 608Q215 618 208 618Q196 618 196 600V108Q196 74 224 51T283 28H299Q306
28 306 15Q306 0 299 0H55Z" />
<glyph unicode="O" glyph-name="O" horiz-adv-x="771" d="M307 -14T232 29T107 158T58 361Q58 478 107 563T231 691T385 735Q463 735 538 692T662 563T711 361Q711 243 662 158T538 30T385 -14Q307 -14 232 29ZM445 19T498 57T585 173T619 361Q619 470 586 547T499
662T385 701Q325 701 271 663T184 547T151 361Q151 251 184 174T271 58T385 19Q445 19 498 57Z" />
<glyph unicode="P" glyph-name="P" horiz-adv-x="655" d="M443 725T497 702T585 635T619 534Q619 426 546 385T358 335Q345 334 301 334H265Q255 334 250 329T244 313V91Q244 56 264 42T330 28H346Q353 28 353 15Q353 0 346 0H62Q55 0 55 14Q55 28 62 28H78Q121
28 142 42T164 91V635Q164 669 143 683T78 698H62Q55 698 55 712Q55 726 62 726H380Q443 725 497 702ZM434 364T480 411T526 538Q526 640 460 669T326 698Q244 698 244 635V384Q244 374 249 369T265 363H322Q434 364 480 411Z" />
<glyph unicode="Q" glyph-name="Q" horiz-adv-x="800" d="M743 -51T743 -55Q743 -59 738 -64Q674 -128 614 -128Q565 -128 535 -100T481 -18Q475 -4 464 -4Q458 -4 455 -5Q419 -14 385 -14Q307 -14 232 29T107 158T58 361Q58 479 107 564T231 692T385 736Q463
736 538 693T662 564T711 361Q711 252 670 171T559 42Q548 36 548 26Q548 21 553 13Q607 -62 670 -62Q685 -62 695 -58T719 -45Q725 -41 729 -41Q733 -41 738 -46Q743 -51 743 -55ZM206 135T213 135Q223 135 229 149Q244 177 270 193T333 210Q430 210 505 93Q511
82 521 82Q529 82 535 89Q574 133 596 201T618 361Q618 470 585 547T498 662T385 701Q325 701 272 663T185 547T151 361Q151 234 200 146Q206 135 213 135ZM251 85T269 66T319 33T385 19Q414 19 442 28Q456 33 456 45Q456 48 454 56Q426 126 396 151T330 176Q293
176 272 153T251 102Q251 85 269 66Z" />
<glyph unicode="R" glyph-name="R" horiz-adv-x="758" d="M740 28T740 15Q740 0 733 0H577Q560 0 552 14Q515 80 457 178T360 336Q353 349 337 349L309 348H265Q255 348 250 343T244 327V91Q244 56 265 42T330 28H346Q353 28 353 15Q353 0 346 0H62Q55 0 55 14Q55
28 62 28H78Q123 28 143 42T164 91V635Q164 670 142 684T77 698H61Q54 698 54 712V717Q55 723 59 724T73 726L291 727H382Q446 726 500 704T588 639T621 540Q621 479 577 437T460 371Q446 366 446 356Q446 351 451 344Q489 288 547 193L618 81Q635 57 661 43T733
28Q740 28 740 15ZM244 387T249 382T265 376H274Q417 376 473 424T529 545Q529 627 471 662T328 697Q290 697 267 686T244 635V397Q244 387 249 382Z" />
<glyph unicode="S" glyph-name="S" horiz-adv-x="651" d="M318 -13T270 -4T184 20Q172 24 159 24Q139 24 119 8Q112 2 105 2Q96 2 91 17L51 185L50 191Q50 196 60 200L66 201Q73 201 77 193Q172 22 345 22Q411 22 467 54T524 166Q524 202 504 234T446 287Q415
303 386 313T315 336Q253 354 227 366Q150 402 122 446T93 543Q93 581 111 625T175 702T301 735Q332 735 363 729T431 709Q448 704 458 704Q477 704 493 717Q501 723 508 723Q518 723 521 710L563 566L564 559Q564 553 556 550Q550 548 547 548Q541 548 537 554Q525
574 494 608T411 672T295 702Q233 702 201 674T160 616T151 571Q151 500 236 457Q274 439 348 417Q392 404 423 393T485 367Q601 307 601 181Q601 126 572 82T486 13T355 -13Q318 -13 270 -4Z" />
<glyph unicode="T" glyph-name="T" horiz-adv-x="743" d="M237 0Q231 0 231 15Q231 28 237 28H252Q297 28 318 42T339 91V635Q339 673 320 685T262 698Q247 698 237 697Q196 695 144 664T59 589Q53 582 48 582Q45 582 41 584Q31 588 31 593L32 598L74 710Q80 726
98 726H659Q677 726 683 710L725 598L726 593Q726 588 716 584Q712 582 709 582Q704 582 698 589Q666 632 614 663T520 697Q511 698 495 698Q456 698 437 685T418 635V91Q418 56 439 42T505 28H520Q527 28 527 15Q527 0 520 0H237Z" />
<glyph unicode="U" glyph-name="U" horiz-adv-x="815" d="M293 -14T224 49T155 219V636Q155 671 135 684T69 698H54Q47 698 47 712Q47 726 54 726H336Q341 726 342 723T344 712Q344 698 336 698H321Q276 698 255 685T234 636Q234 447 234 378T235 289V263Q235
164 273 94T421 24Q540 24 582 90T625 263V618Q625 652 597 675T539 698H524Q517 698 517 712Q517 726 524 726H767Q772 726 773 723T775 712Q775 698 767 698H752Q722 698 694 675T666 618L664 234Q664 120 601 53T421 -14Q293 -14 224 49Z" />
<glyph unicode="V" glyph-name="V" horiz-adv-x="769" d="M356 -14T350 3L133 635Q119 669 91 683T40 698H23Q16 698 16 712Q16 726 23 726H302Q307 726 308 723T310 712Q310 698 302 698H286Q252 698 233 688T213 655Q213 649 217 635L312 363L392 132Q398 118
406 118Q410 118 414 122T420 132Q565 549 586 617Q591 632 591 648Q591 675 573 686T531 698H515Q508 698 508 712Q508 726 515 726H752Q757 726 758 723T760 712Q760 698 752 698H736Q704 698 674 676T628 617Q601 541 548 387T444 81Q432 48 417 3Q411 -14 393
-14H374Q356 -14 350 3Z" />
<glyph unicode="W" glyph-name="W" horiz-adv-x="1022" d="M998 726Q1003 726 1004 723T1006 712Q1006 698 998 698H983Q957 698 930 678T888 617Q879 592 815 364T715 4Q711 -14 692 -14H679Q660 -14 655 4Q590 250 518 507Q517 514 513 518T505 522Q497 522
492 507L354 4Q350 -14 330 -14H317Q298 -14 293 4Q259 139 199 372T129 636Q108 698 42 698H26Q19 698 19 712Q19 726 26 726H304Q309 726 310 723T312 712Q312 698 304 698H289Q253 698 232 685T210 648Q210 639 211 635Q219 595 328 160Q333 145 341 145Q345
145 349 149T354 160L480 617Q483 627 483 633L482 636Q471 671 448 684T388 698H371Q364 698 364 712Q364 726 371 726H643Q648 726 649 723T651 712Q651 698 643 698H628Q601 698 582 684T563 648Q563 640 564 636L626 398Q669 234 689 155Q694 140 703 140Q712
140 716 155Q831 559 846 618Q848 624 848 637Q848 664 828 681T778 698H761Q754 698 754 712Q754 726 761 726H998Z" />
<glyph unicode="X" glyph-name="X" horiz-adv-x="745" d="M728 28Q732 28 733 25T735 14Q735 0 728 0H435Q429 0 429 14Q429 28 435 28H451Q482 28 498 38T514 65Q514 79 505 92L374 305Q368 317 359 317Q352 317 345 307L329 284Q313 261 273 204T210 110Q196
88 196 73Q196 52 215 40T262 28H279Q283 28 284 25T286 14Q286 0 279 0H21Q15 0 15 14Q15 28 21 28H37Q63 28 101 52T165 113Q268 261 328 350Q333 356 333 365Q333 372 329 379L172 635Q157 659 130 674T73 695Q56 698 43 698Q36 698 36 712Q36 726 43 726H315Q320
726 321 723T323 712Q323 698 315 698H300Q275 698 263 687T250 659Q250 646 257 635L370 454Q377 444 385 444Q394 444 401 454L512 617Q523 634 523 650Q523 667 511 678T480 695Q468 698 456 698Q449 698 449 712Q449 726 456 726H689Q694 726 695 723T697 712Q697
698 689 698H674Q646 698 614 676T558 617Q546 596 417 412Q412 406 412 396Q412 389 416 382Q582 118 602 91Q627 56 653 42T713 28H728Z" />
<glyph unicode="Y" glyph-name="Y" horiz-adv-x="754" d="M239 0Q231 0 231 14Q231 28 239 28H254Q299 28 319 43T340 91V230Q340 243 334 256L243 430Q210 493 180 550T135 636Q102 698 50 698H34Q27 698 27 712Q27 726 34 726H307Q312 726 313 723T315 712Q315
698 307 698H291Q213 698 213 662Q213 651 221 635L315 460L385 330Q393 319 400 319Q408 319 414 330Q449 395 492 477T564 615Q572 633 572 644Q572 670 547 684T500 698H483Q476 698 476 712Q476 726 483 726H733Q738 726 739 723T741 712Q741 698 733 698H718Q692
698 662 676T611 617Q576 553 521 451T428 277Q421 264 421 251V91Q421 56 442 42T507 28H522Q530 28 530 14Q530 0 522 0H239Z" />
<glyph unicode="Z" glyph-name="Z" horiz-adv-x="593" d="M29 0T25 10Q23 14 23 17Q23 20 27 27L458 672Q462 677 462 684Q462 697 444 697H334Q258 697 196 671T91 600Q87 596 81 596Q78 596 73 598Q64 602 64 608L65 612Q73 627 88 656T119 711Q126 726 144
726H560Q568 726 573 715Q574 713 574 709Q574 704 571 699L143 53Q139 46 139 40Q139 35 143 32T156 28H302Q387 29 447 68T556 171Q559 175 564 175Q569 175 574 172Q582 167 582 162Q582 160 580 156L516 16Q509 0 492 0H36Q29 0 25 10Z" />
<glyph unicode="[" glyph-name="bracketleft" horiz-adv-x="438" d="M400 849T400 829Q400 809 379 809H216Q206 809 201 804T195 788V-27Q195 -37 200 -42T216 -48H379Q400 -48 400 -68Q400 -88 379 -88H130Q120 -88 115 -83T109 -67V828Q109 838 114 843T130
849H379Q400 849 400 829Z" />
<glyph unicode="\" glyph-name="backslash" horiz-adv-x="444" d="M435 -72T435 -74Q435 -85 423 -91Q420 -93 413 -93Q401 -93 397 -80L11 824Q9 832 9 834Q9 845 21 851Q24 853 31 853Q43 853 47 840L433 -64Q435 -72 435 -74Z" />
<glyph unicode="]" glyph-name="bracketright" horiz-adv-x="437" d="M38 849T59 849H308Q318 849 323 844T329 828V-67Q329 -77 324 -82T308 -88H59Q38 -88 38 -68Q38 -48 59 -48H221Q231 -48 236 -43T242 -27V788Q242 798 237 803T221 809H59Q38 809 38 829Q38
849 59 849Z" />
<glyph unicode="^" glyph-name="asciicircum" horiz-adv-x="629" d="M157 335T139 335H127Q119 335 114 338T109 348Q109 352 113 360L307 720Q315 735 332 735H342Q360 735 367 720L561 360Q565 352 565 348Q565 342 560 339T547 335H535Q518 335 510 350L351
644Q346 655 337 655Q329 655 323 644L164 350Q157 335 139 335Z" />
<glyph unicode="_" glyph-name="underscore" horiz-adv-x="623" d="M582 -109T577 -114T561 -120H66Q56 -120 51 -115T45 -99V-84Q45 -74 50 -69T66 -63H561Q571 -63 576 -68T582 -84V-99Q582 -109 577 -114Z" />
<glyph unicode="`" glyph-name="grave" horiz-adv-x="600" d="M385 803Q386 802 388 802Q390 802 391 803T392 805L391 808L310 947Q302 961 285 961H205Q198 961 198 954Q198 952 201 949L385 803Z" />
<glyph unicode="a" glyph-name="a" horiz-adv-x="550" d="M539 80T539 73L538 67Q523 24 493 6T436 -12Q411 -12 393 1T365 37Q359 49 353 49Q349 49 341 43Q307 15 265 1T181 -14Q123 -14 88 13T52 87Q52 124 68 151T120 199Q142 212 175 222T268 249Q321 263
338 268Q356 273 356 291V316Q356 364 351 387T331 428Q309 455 256 455Q219 455 200 437T168 382Q151 334 119 334Q101 334 87 345T72 376Q72 395 85 420T140 467T259 489Q304 489 344 474T402 435Q417 414 422 392T428 338Q428 291 427 255L426 110Q426 69 441
55T472 41Q485 41 499 49T524 75Q527 80 531 80Q539 80 539 73ZM249 34T282 47T343 87Q353 98 353 100V101L355 211Q355 223 349 228T331 230Q228 204 181 177T133 101Q133 73 152 54T217 34Q249 34 282 47Z" />
<glyph unicode="b" glyph-name="b" horiz-adv-x="579" d="M379 489T425 458T500 371T528 248Q528 176 499 116T422 21T320 -14Q239 -14 177 38Q169 44 163 44Q154 44 148 34L122 -10Q119 -14 116 -14L110 -13Q106 -12 104 -10T101 -5L99 621Q99 642 90 652T67
665T24 672Q17 673 16 675T14 683V687Q14 695 20 697Q40 703 77 712T149 729Q151 730 156 730Q172 730 172 711V459Q172 446 176 441T188 441Q249 489 325 489Q379 489 425 458ZM335 32T369 56T423 128T444 248Q444 332 414 376T349 432T290 444Q263 444 235 433T183
401Q172 391 172 376V96Q172 79 188 68Q213 51 242 42T295 32Q335 32 369 56Z" />
<glyph unicode="c" glyph-name="c" horiz-adv-x="509" d="M216 -13T161 18T73 106T40 235Q40 294 68 353T151 450T283 489Q336 489 375 473T435 432T456 385Q456 368 445 356T417 343Q398 343 385 356T356 398Q325 452 269 452Q228 452 195 425T143 349T124 236Q124
166 148 121T211 54T290 33Q376 33 434 114Q439 120 444 120Q449 120 452 118Q459 114 459 108Q459 104 457 100Q431 48 385 18T280 -13Q216 -13 161 18Z" />
<glyph unicode="d" glyph-name="d" horiz-adv-x="577" d="M558 34T558 20Q558 12 552 10Q544 8 431 -10H427Q409 -10 409 10V15Q409 23 406 27T397 32Q391 32 384 28Q322 -13 258 -13Q200 -13 153 19T78 111T51 245Q51 308 79 364T154 455T253 489Q324 489 382
446Q390 440 395 440Q407 440 407 458L406 621Q406 642 397 652T374 665T332 671Q325 672 324 676T322 688Q322 695 328 697L456 730L462 731Q470 731 474 726T479 711L478 81Q478 58 491 46T531 33L546 34Q558 34 558 20ZM359 28T398 61Q409 72 409 87L407 373Q407
388 396 398Q371 420 341 433T282 446Q214 446 175 385T135 232Q135 166 161 120T227 51T307 28Q359 28 398 61Z" />
<glyph unicode="e" glyph-name="e" horiz-adv-x="543" d="M490 124T490 119Q490 115 487 109Q466 60 418 23T294 -14Q227 -14 172 15T84 100T52 228Q52 292 78 352T155 451T280 490Q363 490 417 440T486 300V296Q486 277 466 277L156 275Q135 275 135 257Q134
251 134 238Q134 169 158 124T222 57T309 35Q405 35 467 125Q471 131 476 131Q479 131 485 127Q490 124 490 119ZM231 454T198 424T147 338Q146 335 146 330Q146 314 165 314L372 316Q393 316 393 326Q390 392 357 423T274 454Q231 454 198 424Z" />
<glyph unicode="f" glyph-name="f" horiz-adv-x="355" d="M340 737T361 723T383 687Q383 671 374 663T347 654Q331 654 320 658T295 672Q284 680 275 684T251 689Q215 689 202 607Q197 568 195 501V499Q195 490 200 485T215 480H268Q289 480 289 462Q289 453 284
448T268 443H215Q205 443 200 438T194 422V69Q194 43 211 35T258 27H271Q278 27 278 13Q278 0 271 0H45Q37 0 37 13Q37 27 45 27H58Q87 27 105 35T123 69V422Q123 432 118 437T102 443H59Q49 443 44 448T38 462Q38 470 43 475T59 480H103Q122 480 124 503Q131 609
174 673T302 737Q340 737 361 723Z" />
<glyph unicode="g" glyph-name="g" horiz-adv-x="592" d="M541 510T553 497T565 469Q565 453 555 441T523 429Q510 429 498 436Q484 442 473 442Q460 442 438 422Q431 416 431 407Q431 400 435 393Q453 360 453 320Q453 287 439 249T382 180T266 150Q242 150 217
155Q213 156 206 156Q197 156 189 152Q173 144 164 136T155 121Q155 113 169 108T222 95Q353 71 421 51Q464 38 492 14T520 -48Q520 -97 480 -129T379 -175T258 -190Q182 -190 132 -171T57 -124T33 -69Q33 -38 60 -17T143 26Q154 30 154 35Q154 41 141 45Q108 54
92 68T75 98Q75 129 141 160Q153 166 153 172Q153 178 143 185Q108 209 90 244T71 321Q71 367 96 405T164 466T258 489Q337 489 391 445Q400 438 406 438Q413 438 420 447Q442 474 468 492T519 510Q541 510 553 497ZM320 185T349 226T379 324Q379 377 350 415T262
454Q199 454 171 413T143 321Q143 264 172 225T264 185Q320 185 349 226ZM453 -32T389 -10Q340 7 231 26Q228 27 222 27Q212 27 204 23Q103 -24 103 -70Q103 -112 152 -133T279 -154Q335 -154 374 -141T433 -108T453 -67Q453 -32 389 -10Z" />
<glyph unicode="h" glyph-name="h" horiz-adv-x="628" d="M587 27Q594 27 594 13Q594 0 587 0H363Q355 0 355 13Q355 27 363 27H376Q405 27 422 35T440 69L439 239Q439 286 437 318Q434 372 412 406T335 440Q297 440 262 421T199 362Q191 350 191 336V69Q191 43
208 35T256 27H268Q277 27 277 13Q277 0 268 0H45Q37 0 37 13Q37 27 45 27H57Q87 27 104 35T122 69L119 621Q119 642 110 652T87 665T44 672Q34 673 34 681V688Q34 695 40 697Q60 703 97 712T169 729Q171 730 176 730Q192 730 192 711L191 437Q191 419 201 419Q207
419 216 428Q274 489 349 489Q427 489 465 446T507 337Q508 321 508 275L509 69Q509 44 527 36T574 27H587Z" />
<glyph unicode="i" glyph-name="i" horiz-adv-x="317" d="M130 617T113 634T96 676Q96 701 113 718T155 735Q180 735 197 718T214 676Q214 651 197 634T155 617Q130 617 113 634ZM50 0Q42 0 42 14Q42 28 50 28H63Q92 28 109 36T127 70L124 375Q124 396 115 406T93
418T49 425Q43 426 42 428T40 437Q40 442 41 446T45 451Q65 457 102 466T174 483Q176 484 181 484Q197 484 197 465L196 70Q196 44 213 36T261 28H274Q281 28 281 14Q281 0 274 0H50Z" />
<glyph unicode="j" glyph-name="j" horiz-adv-x="239" d="M95 617T78 634T61 676Q61 700 78 717T120 735Q144 735 161 718T179 676Q179 651 162 634T120 617Q95 617 78 634ZM-29 -257T-56 -240T-83 -197Q-83 -182 -74 -172T-53 -162Q-36 -162 -17 -176Q-17 -176
10 -200Q31 -219 46 -219Q72 -219 82 -180T92 -88L89 375Q89 396 80 406T58 418T14 425Q8 426 7 428T5 437Q5 442 6 446T10 451Q23 456 139 484L145 485Q153 485 157 480T162 465V-76Q162 -143 136 -183T74 -240T2 -257Q-29 -257 -56 -240Z" />
<glyph unicode="k" glyph-name="k" horiz-adv-x="586" d="M577 27Q585 27 585 14Q585 0 577 0H354Q349 0 347 3T345 14Q345 27 354 27H366Q384 27 395 35T406 55Q406 63 401 71Q383 96 348 142T279 233Q273 243 264 243Q257 243 250 236L201 189Q190 179 190 163V69Q190
44 208 36T255 27H268Q275 27 275 14Q275 0 268 0H44Q36 0 36 14Q36 27 44 27H57Q86 27 103 35T121 69L118 621Q118 652 99 662T43 672Q36 672 35 676T33 688Q33 695 39 697Q59 703 96 712T168 729Q171 730 175 730Q191 730 191 711L190 261Q190 253 193 248T202
243Q209 243 216 250Q344 370 381 407Q388 416 388 425Q388 437 377 445T343 453H330Q322 453 322 466Q322 480 330 480H553Q562 480 562 466Q562 453 553 453H541Q518 453 492 443T447 416Q409 384 328 308Q320 301 320 292Q320 284 325 278L489 70Q523 27 565
27H577Z" />
<glyph unicode="l" glyph-name="l" horiz-adv-x="318" d="M51 1Q43 1 43 15Q43 28 51 28H64Q93 28 110 36T128 70L125 622Q125 653 106 663T50 673Q43 673 42 677T40 689Q40 696 46 698Q66 704 103 713T175 730Q178 731 182 731Q198 731 198 712L197 70Q197 45
215 37T262 28H275Q282 28 282 15Q282 1 275 1H51Z" />
<glyph unicode="m" glyph-name="m" horiz-adv-x="956" d="M914 27Q922 27 922 13Q922 0 914 0H690Q683 0 683 13Q683 20 684 23T690 27H703Q732 27 749 35T767 69V205Q767 276 765 318Q761 440 662 440Q623 440 587 420T524 359Q517 349 517 342V337Q518 321 518
275Q518 192 514 69Q514 44 532 36T579 27H592Q599 27 599 13Q599 0 592 0H368Q360 0 360 13Q360 27 368 27H381Q410 27 427 35T445 69V200Q445 276 443 318Q439 440 340 440Q301 440 266 421T203 361Q196 348 196 335L195 69Q195 44 213 36T260 27H273Q281 27
281 13Q281 0 273 0H49Q42 0 42 13Q42 20 43 23T49 27H62Q91 27 109 35T127 69L123 374Q123 395 114 405T91 418T48 425Q39 426 39 441Q39 448 44 450Q64 456 101 465T173 483Q176 484 180 484Q196 484 196 465V437Q196 420 206 420Q212 420 221 429Q278 489 354
489Q408 489 444 467T499 408Q503 397 510 397Q516 397 523 405Q587 489 676 489Q754 489 795 445T839 337Q840 321 840 275Q840 192 836 69Q836 44 854 36T901 27H914Z" />
<glyph unicode="n" glyph-name="n" horiz-adv-x="633" d="M591 27Q599 27 599 13Q599 0 591 0H367Q360 0 360 13Q360 27 367 27H381Q410 27 427 35T444 69L443 255L442 319Q442 372 419 406T339 441Q301 441 266 422T203 362Q196 349 196 336L195 69Q195 44 213
36T260 27H273Q280 27 280 13Q280 0 273 0H49Q41 0 41 13Q41 27 49 27H62Q91 27 109 35T127 69L124 375Q124 396 115 406T92 419T48 426Q42 427 41 430T39 442Q39 449 44 451Q64 457 101 466T173 483Q175 484 180 484Q196 484 196 465V438Q196 421 206 421Q213
421 221 429Q278 489 353 489Q432 489 472 446T516 338Q517 320 517 266Q517 184 514 69Q514 43 531 35T578 27H591Z" />
<glyph unicode="o" glyph-name="o" horiz-adv-x="576" d="M216 -14T163 23T81 119T52 237Q52 301 80 359T161 453T287 489Q359 489 413 453T495 359T524 237Q524 177 496 119T413 24T287 -14Q216 -14 163 23ZM358 21T399 82T441 237Q441 335 400 394T287 454Q216
454 175 394T134 237Q134 177 152 128T205 50T287 21Q358 21 399 82Z" />
<glyph unicode="p" glyph-name="p" horiz-adv-x="606" d="M408 489T455 456T529 364T555 236Q555 171 528 114T453 23T352 -12Q280 -12 221 30Q214 36 207 36Q202 36 199 32T196 19V-159Q196 -185 213 -193T260 -201H272Q280 -201 280 -214Q280 -228 272 -228H49Q41
-228 41 -214Q41 -201 49 -201H61Q91 -201 108 -193T126 -159L123 374Q123 395 114 405T91 418T48 425Q42 426 41 430T39 441Q39 448 45 450L153 478Q177 484 174 483Q177 484 181 484Q197 484 197 465V461Q197 448 202 443T215 443Q278 489 347 489Q408 489 455
456ZM348 32T381 46T442 107T471 245Q471 315 448 359T391 424T319 444Q294 444 264 433T209 403Q197 394 197 377L196 104Q196 89 207 78Q232 57 262 45T322 32Q348 32 381 46Z" />
<glyph unicode="q" glyph-name="q" horiz-adv-x="570" d="M558 -201Q566 -201 566 -214Q566 -228 558 -228H330Q326 -228 325 -225T323 -214Q323 -207 324 -204T330 -201H343Q372 -201 389 -193T407 -159V12Q407 29 396 29Q390 29 382 24Q325 -14 259 -14Q205
-14 157 21T80 116T51 247Q51 316 79 371T153 457T254 489Q336 489 398 435Q405 428 412 428Q421 428 427 438L457 485Q460 489 464 489Q469 489 473 487T478 479L481 -159Q481 -185 498 -193T545 -201H558ZM306 31T337 41T395 71Q407 80 407 97V374Q407 389 396
399Q373 420 344 432T286 444Q209 442 172 385T135 246Q135 185 153 136T204 59T281 31Q306 31 337 41Z" />
<glyph unicode="r" glyph-name="r" horiz-adv-x="437" d="M388 489T409 474T430 434Q430 417 418 405T386 393Q371 393 348 408Q333 416 324 420T304 424Q260 424 206 361Q196 350 196 335L195 68Q195 43 212 35T260 27H273Q281 27 281 13Q281 0 273 0H49Q42 0
42 13Q42 27 49 27H62Q91 27 108 35T126 68L123 376Q123 397 114 407T92 419T48 426Q42 427 41 431T39 443Q39 450 44 452Q64 458 101 467T173 484Q175 485 180 485Q196 485 196 466V428Q196 413 207 413Q216 413 227 423Q259 453 293 471T358 489Q388 489 409
474Z" />
<glyph unicode="s" glyph-name="s" horiz-adv-x="499" d="M105 -4T98 -4Q88 -4 85 10L55 132L54 137Q54 143 62 147Q64 148 67 148Q74 148 79 140Q103 109 126 85T191 39T289 17Q334 17 362 42T391 107Q391 130 378 149T341 179Q316 191 240 213Q201 222 177 232Q78
273 78 356Q78 378 89 408T133 464T225 489Q257 489 280 482T308 473Q327 466 333 466Q352 466 370 479Q379 485 384 485Q392 485 396 473L429 366Q429 365 430 361T428 353L423 349Q421 348 417 348Q411 348 406 353Q370 394 327 425T221 457Q188 457 167 444T136
413T126 379Q126 357 140 342T188 310Q209 299 269 282Q334 262 364 249Q452 209 452 128Q452 65 405 26T277 -14Q234 -14 169 7Q145 14 140 14Q128 14 112 3Q105 -4 98 -4Z" />
<glyph unicode="t" glyph-name="t" horiz-adv-x="327" d="M151 -14T122 14T92 102V422Q92 432 87 437T71 443H32Q22 443 17 448T11 462Q11 478 28 486Q72 503 97 540T138 659Q143 679 153 679Q164 679 164 658V501Q164 491 169 486T185 480H274Q295 480 295 462Q295
453 290 448T274 443H184Q174 443 169 438T163 422V198L164 108Q165 74 183 54T229 33Q252 33 266 40T295 63Q300 69 305 69Q310 69 314 64T319 54Q319 50 317 47Q277 -14 206 -14Q151 -14 122 14Z" />
<glyph unicode="u" glyph-name="u" horiz-adv-x="604" d="M555 38T558 35T562 26Q562 16 555 14L436 -5L430 -6Q414 -6 414 14V43Q414 60 403 60Q396 60 389 52Q330 -9 254 -9Q168 -9 132 35T95 143L94 376Q94 397 85 407T61 420T19 426Q12 427 11 430T9 439Q9
450 15 452Q34 458 70 467T142 484Q145 485 149 485Q165 485 165 466V341Q165 179 166 155Q168 109 191 75T270 40Q307 40 342 59T404 117Q412 129 412 143L408 375Q408 396 399 406T376 419T333 426Q324 427 324 442Q324 449 330 451Q349 457 385 466T456 483Q459
484 463 484Q479 484 479 465L481 85Q481 48 521 40Q533 38 542 38Q555 38 558 35Z" />
<glyph unicode="v" glyph-name="v" horiz-adv-x="558" d="M248 -14T242 2L89 393Q64 452 4 452Q-4 452 -4 466Q-4 480 4 480H226Q233 480 233 466Q233 452 226 452Q198 452 177 446T155 422Q155 419 157 411L180 350L274 100Q281 87 288 87Q292 87 296 90T302
100Q350 222 414 395Q417 403 417 409Q417 430 393 441T342 452Q334 452 334 466Q334 480 342 480H537Q545 480 545 466Q545 452 537 452Q513 452 489 437T454 398Q441 368 301 3Q295 -14 277 -14H266Q248 -14 242 2Z" />
<glyph unicode="w" glyph-name="w" horiz-adv-x="783" d="M769 480Q777 480 777 467Q777 453 769 453Q744 453 721 440T687 402L563 48L548 3Q542 -14 524 -14H514Q496 -14 490 3L392 287Q388 301 378 301Q368 301 364 287L267 3Q261 -14 243 -14H238Q220 -14
214 3L72 391Q50 453 -12 453Q-20 453 -20 467Q-20 480 -12 480H210Q217 480 217 467Q217 453 210 453Q140 449 140 418Q140 414 142 406L241 120Q243 114 247 110T255 106Q264 106 269 120L354 370Q356 375 356 384Q356 394 354 398L349 412Q342 433 320 443T269
453Q261 453 261 467Q261 480 269 480H491Q498 480 498 467Q498 453 491 453Q466 453 445 445T423 421Q423 418 425 412L522 112Q526 98 536 98Q545 98 549 111Q576 185 605 271T648 398L650 410Q650 434 625 443T572 453Q565 453 565 467Q565 480 572 480H769Z"
/>
<glyph unicode="x" glyph-name="x" horiz-adv-x="576" d="M566 27T566 14Q566 0 558 0H337Q328 0 328 14Q328 27 337 27Q358 27 373 35T388 57Q388 66 381 74L290 189Q284 198 275 198Q268 198 260 189L176 82Q168 73 168 62Q168 48 183 38T214 27Q221 27 221
14Q221 0 214 0H18Q10 0 10 14Q10 27 18 27Q45 27 77 42T128 78Q146 98 241 220Q247 228 247 235Q247 243 241 250L200 302Q131 390 113 411Q92 436 75 444T29 453Q22 453 22 466Q22 480 29 480H250Q259 480 259 466Q259 453 250 453Q227 453 209 445T190 424Q190
419 195 411Q203 400 278 305Q284 296 293 296Q301 296 308 306Q372 387 377 397Q384 408 384 420Q384 435 371 444T333 453Q324 453 324 466Q324 480 333 480H528Q536 480 536 466Q536 453 528 453Q500 453 470 436T417 390Q379 343 327 274Q321 267 321 259Q321
252 327 244Q452 87 470 68Q507 27 558 27Q566 27 566 14Z" />
<glyph unicode="y" glyph-name="y" horiz-adv-x="557" d="M542 480Q549 480 549 466Q549 452 542 452Q486 452 460 398Q441 359 267 -78Q225 -172 182 -200T92 -228Q65 -228 47 -216T29 -186Q29 -167 40 -155T73 -143Q90 -143 110 -151Q126 -158 141 -158Q162
-158 186 -136T226 -78L253 -12Q256 -5 256 2Q256 9 253 16L87 410Q75 437 59 444T15 452Q8 452 8 466Q8 480 15 480H237Q245 480 245 466Q245 452 237 452Q205 452 185 443T164 418Q164 413 167 405L281 125Q283 119 287 116T295 112Q303 112 309 126Q347 216
376 290T419 398Q421 403 421 411Q421 431 398 441T346 452Q339 452 339 466Q339 473 340 476T346 480H542Z" />
<glyph unicode="z" glyph-name="z" horiz-adv-x="480" d="M391 0T373 0H49Q46 0 44 3T39 10Q37 14 37 16Q37 20 41 26L336 428Q341 434 341 441Q341 447 336 450T323 454H275Q206 454 168 436T90 372Q88 369 86 368T81 366Q79 366 73 369Q65 373 65 378L66 383L107
465Q116 480 132 480H436Q443 480 447 472Q449 468 449 466Q449 462 445 456L137 53Q131 46 131 40Q131 34 136 31T149 27H222Q297 27 344 58T423 149Q426 155 432 155Q436 155 440 153Q448 149 448 144L447 138L398 16Q391 0 373 0Z" />
<glyph unicode="{" glyph-name="braceleft" horiz-adv-x="365" d="M307 -100T292 -97Q240 -87 208 -54T162 18T148 89Q148 123 157 166Q158 171 162 196T166 250Q166 279 154 308T118 355T65 374H56Q43 374 43 381Q43 388 56 388H65Q95 388 118 407T153 455T166
516Q166 544 162 568T157 598Q148 639 148 673Q148 704 161 743T207 816T292 859Q307 862 324 862Q327 862 329 860T332 856Q332 850 323 847Q270 831 249 805T227 724Q227 696 237 638Q238 630 242 604T246 557Q246 506 223 460T135 389Q125 385 125 381Q125 377
135 373Q246 332 246 205Q246 184 242 158T237 124Q227 66 227 38Q227 -16 248 -42T323 -85Q332 -88 332 -94Q332 -96 330 -98T324 -100Q307 -100 292 -97Z" />
<glyph unicode="|" glyph-name="bar" horiz-adv-x="257" d="M148 -73T143 -78T129 -84Q109 -84 109 -63V823Q109 833 114 838T129 844Q138 844 143 839T148 823V-63Q148 -73 143 -78Z" />
<glyph unicode="}" glyph-name="braceright" horiz-adv-x="364" d="M37 -101T35 -99T32 -95Q32 -89 41 -86Q94 -70 115 -44T137 37Q137 65 127 123Q126 131 122 157T118 204Q118 331 229 372Q240 377 240 380Q240 383 229 388Q164 413 141 459T118 556Q118 577
122 603T127 637Q137 695 137 723Q137 777 116 803T41 846Q32 849 32 855Q32 857 34 859T40 861Q57 861 72 858Q124 848 156 815T202 743T216 672Q216 638 207 597Q206 591 202 567T198 515Q198 484 210 455T246 406T299 387H308Q321 387 321 380Q321 373 308 373H299Q269
373 246 355T211 307T198 249Q198 220 202 195T207 165Q216 122 216 88Q216 57 203 18T157 -55T72 -98Q57 -101 40 -101Q37 -101 35 -99Z" />
<glyph unicode="~" glyph-name="asciitilde" horiz-adv-x="702" d="M456 295T427 303T357 329Q303 349 272 358T205 367Q174 367 146 358T75 328Q71 326 68 326Q65 326 62 328T58 335Q58 338 60 340Q95 379 144 403T238 428Q263 428 296 419T385 389Q437 371 466
362T517 353Q546 353 573 361T630 389Q634 392 637 392Q640 392 643 390T647 384Q647 382 645 379Q619 344 576 320T483 295Q456 295 427 303Z" />
<glyph unicode="&#xa0;" glyph-name="uni00A0" horiz-adv-x="258" />
<glyph unicode="&#xa1;" glyph-name="exclamdown" horiz-adv-x="298" d="M127 415T111 431T95 469Q95 491 111 507T149 523Q172 523 187 508T203 469Q203 447 188 431T149 415Q127 415 111 431ZM121 -228T106 -209T90 -157Q90 -140 93 -119T101 -74Q116 2 125
84T134 301Q134 311 138 316T149 322Q164 322 164 301Q164 166 173 84T197 -74Q201 -97 204 -118T208 -157Q208 -190 193 -209T149 -228Q121 -228 106 -209Z" />
<glyph unicode="&#xa2;" glyph-name="cent" horiz-adv-x="509" d="M459 114T459 108Q459 104 457 100Q431 48 385 18T280 -13Q241 -13 205 -1Q197 1 195 1Q183 1 178 -14L155 -103Q151 -121 134 -121Q122 -121 122 -107Q122 -101 123 -98L150 4Q151 7 151 12Q151
25 140 32Q94 65 67 117T40 235Q40 292 65 348T141 444T262 488Q282 490 286 507L346 731Q351 749 367 749Q372 749 375 746T379 736Q379 734 377 726L319 509Q318 506 318 502Q318 487 336 484Q391 473 423 444T456 385Q456 368 445 356T417 343Q398 343 385 356T356
398Q343 421 323 436Q318 440 312 440Q301 440 296 424L204 80Q203 77 203 72Q203 59 214 52Q251 33 290 33Q376 33 434 114Q439 120 444 120Q449 120 452 118Q459 114 459 108ZM124 161T154 112Q160 103 167 103Q178 103 182 118L265 429Q269 442 270 452H269Q228
452 195 425T143 349T124 236Q124 161 154 112Z" />
<glyph unicode="&#xa3;" glyph-name="sterling" horiz-adv-x="755" d="M708 198T713 195T719 186L717 178Q682 74 632 31T510 -13Q472 -13 437 -2T375 25T300 70Q295 74 288 74Q279 74 271 63Q243 24 207 5T138 -14Q96 -14 68 5T39 67Q39 110 73 134T156 158Q185
158 225 148Q227 147 232 147Q247 147 250 164Q256 199 256 245L255 312Q254 333 233 333H93Q83 333 78 337T72 349Q72 356 77 360T93 365H233Q253 365 253 386V411Q253 464 255 496Q259 569 290 629T379 726T521 762Q581 762 632 744T683 684Q683 665 671 655T640
645Q628 645 611 651Q594 658 584 667T563 691Q547 711 532 720T484 730Q416 730 382 669T345 509L344 470Q344 447 342 387V385Q342 376 348 371T363 365H550Q560 365 565 361T571 349Q571 342 566 338T550 333H359Q338 333 338 313L332 244Q328 189 312 143Q310
135 310 133Q310 121 324 116Q380 95 418 85T493 74Q571 74 615 101T693 191Q697 198 703 198Q708 198 713 195ZM161 18T185 34T227 85Q230 91 230 96Q230 108 217 113Q187 124 159 124Q117 124 96 108T74 67Q74 46 89 32T136 18Q161 18 185 34Z" />
<glyph unicode="&#xa4;" glyph-name="currency" horiz-adv-x="486" d="M137 233T131 233Q123 233 115 225L78 188Q70 180 62 180Q55 180 48 187L47 188Q40 197 40 203Q40 211 47 218L84 255Q92 263 92 271Q92 277 87 285Q58 332 58 384Q58 436 87 483Q92 491 92
497Q92 505 84 513L47 550Q40 557 40 565Q40 574 47 580L48 581Q55 588 62 588Q70 588 78 580L114 544Q122 536 130 536Q136 536 144 541Q191 570 244 570Q296 570 343 541Q351 536 357 536Q365 536 373 544L409 580Q417 588 425 588Q432 588 439 581L440 580Q447
574 447 565Q447 557 440 550L403 513Q395 505 395 497Q395 491 400 483Q429 436 429 384Q429 332 400 285Q395 277 395 271Q395 263 403 255L440 218Q447 211 447 203Q447 194 440 188L439 187Q432 180 425 180Q417 180 409 188L372 225Q364 233 356 233Q350 233
342 228Q297 199 244 199Q190 199 145 228Q137 233 131 233ZM282 242T315 261T367 312T386 384Q386 423 367 456T315 508T244 527Q205 527 172 508T120 456T101 384Q101 345 120 313T172 261T244 242Q282 242 315 261Z" />
<glyph unicode="&#xa5;" glyph-name="yen" horiz-adv-x="694" d="M697 725Q705 725 705 711Q705 696 697 696H682Q656 696 626 675T575 616Q533 540 469 419Q465 411 465 407Q465 401 470 398T483 394H558Q568 394 573 389T579 375Q579 366 574 361T558 356H451Q434
356 426 341L392 277Q385 266 385 263V260H558Q568 260 573 255T579 241Q579 232 574 227T558 222H406Q396 222 391 217T385 201V91Q385 56 406 42T471 28H486Q494 28 494 14Q494 0 486 0H203Q195 0 195 14Q195 28 203 28H218Q263 28 283 43T304 91V201Q304 211
299 216T283 222H122Q112 222 107 227T101 241Q101 250 106 255T122 260H268Q276 260 281 264T286 274Q286 279 283 285L253 341Q246 356 228 356H122Q112 356 107 361T101 375Q101 384 106 389T122 394H197Q206 394 210 398T215 408Q215 413 212 419L99 635Q79
672 58 684T14 696H-2Q-10 696 -10 711Q-10 725 -2 725H271Q278 725 278 711Q278 696 271 696H255Q177 696 177 661Q177 647 185 634Q192 620 274 469L349 330Q356 318 364 318Q372 318 378 330L528 614Q536 632 536 643Q536 669 511 682T464 696H447Q440 696 440
711Q440 725 447 725H697Z" />
<glyph unicode="&#xa6;" glyph-name="brokenbar" horiz-adv-x="257" d="M148 507T143 502T129 496Q109 496 109 517V823Q109 833 114 838T129 844Q138 844 143 839T148 823V517Q148 507 143 502ZM148 -73T143 -78T129 -84Q109 -84 109 -63V243Q109 253 114 258T129
264Q138 264 143 259T148 243V-63Q148 -73 143 -78Z" />
<glyph unicode="&#xa7;" glyph-name="section" horiz-adv-x="964" d="M637 211T661 180T686 100Q686 45 657 3T583 -63T489 -86Q442 -86 394 -69T314 -14T281 77Q281 106 294 121T327 137Q346 137 358 123T371 84Q371 65 361 45Q352 29 352 16Q352 -13 392 -32T479
-52Q538 -52 576 -16T614 77Q614 108 598 128T550 164Q543 168 484 194Q394 232 366 250Q288 300 288 378Q288 411 303 448T357 514Q377 529 370 535Q334 560 312 592T290 672Q290 710 310 750T373 817T484 844Q532 844 576 827T647 777T675 700Q675 677 664 663T631
648Q614 648 601 659T587 694Q587 704 593 718Q600 730 600 744Q600 773 569 793T493 813Q433 813 398 778T362 691Q362 660 378 638T432 597Q469 579 502 564Q582 525 600 515Q639 492 662 463T685 387Q685 344 667 310T615 250Q607 244 602 240T598 234Q637 211
661 180ZM354 374T373 352T430 310L489 284Q545 260 548 259Q554 256 561 256Q570 256 576 262Q597 279 608 303T619 353Q619 385 604 407T555 446Q536 456 493 474L425 505Q419 508 413 508Q402 508 392 498Q372 480 363 455T354 406Q354 374 373 352Z" />
<glyph unicode="&#xa8;" glyph-name="dieresis" horiz-adv-x="600" d="M264 875T249 890T213 905Q191 905 177 890T162 854Q162 833 176 818T213 803Q234 803 249 818T264 854Q264 875 249 890ZM438 875T423 890T387 905Q365 905 351 890T336 854Q336 833 350
818T387 803Q408 803 423 818T438 854Q438 875 423 890Z" />
<glyph unicode="&#xa9;" glyph-name="copyright" horiz-adv-x="827" d="M298 -9T212 47T79 192T33 372Q33 465 79 553T212 697T413 753Q505 753 593 706T738 573T794 372Q794 280 748 192T614 47T413 -9Q298 -9 212 47ZM511 13T593 61T724 191T772 372Q772 470
724 552T594 683T413 731Q315 731 233 683T102 553T54 372Q54 274 102 192T232 61T413 13Q511 13 593 61ZM370 122T318 148T230 229T194 360Q194 443 228 501T313 589T412 618Q456 618 502 597Q509 594 517 594Q527 594 539 599Q545 602 551 602Q560 602 564 588L584
505L586 493Q586 490 579 486L575 485Q570 485 565 491Q564 493 549 518T498 566T415 590Q341 590 300 528T258 374Q258 300 284 252T350 181T429 158Q478 158 512 184T578 257Q581 262 585 262Q589 262 592 260Q599 254 599 250Q599 248 597 244Q529 122 419 122Q370
122 318 148Z" />
<glyph unicode="&#xaa;" glyph-name="ordfeminine" horiz-adv-x="550" d="M466 461T466 454L465 449Q456 427 437 411T396 395Q370 395 351 422Q345 433 338 433Q333 433 326 428Q280 395 224 395Q184 395 160 413T135 463Q135 512 182 539Q198 548 227 557T276
572T302 579L321 584Q339 590 339 608V620Q339 652 336 668T322 695Q308 712 274 712Q250 712 238 700T217 663Q212 647 203 639T182 630Q171 630 160 638T149 660Q149 673 158 690T195 721T276 735Q306 735 333 725T374 698Q384 684 387 669T391 632Q391 533 390
508V479Q390 458 397 448Q405 436 419 436Q428 436 437 441T452 457Q455 461 459 461Q466 461 466 454ZM269 427T289 435T326 458Q337 469 337 471V472L338 537V538Q338 549 332 554T314 557Q254 543 224 524T194 474Q194 452 209 440T249 427Q269 427 289 435Z"
/>
<glyph unicode="&#xab;" glyph-name="guillemotleft" horiz-adv-x="488" d="M230 7T224 13Q193 48 130 120T36 227Q30 235 30 242Q30 250 36 257Q66 292 129 364T224 471Q230 477 235 477Q237 477 241 475Q247 472 247 465Q247 461 245 457L144 256Q140 246 140
242Q140 238 144 228L245 24Q247 20 247 17Q247 12 241 9Q237 7 235 7Q230 7 224 13ZM441 7T435 13Q404 48 341 120T247 227Q241 235 241 242Q241 250 247 257Q277 292 340 364T435 471Q441 477 446 477Q448 477 452 475Q458 472 458 465Q458 461 456 457L355 256Q351
246 351 242Q351 238 355 228L456 24Q458 20 458 17Q458 12 452 9Q448 7 446 7Q441 7 435 13Z" />
<glyph unicode="&#xac;" glyph-name="logicalnot" horiz-adv-x="639" d="M599 222T594 217T578 211H570Q560 211 555 216T549 232V445Q549 455 544 460T528 466H51Q41 466 36 471T30 487V495Q30 505 35 510T51 516H578Q588 516 593 511T599 495V232Q599 222 594 217Z" />
<glyph unicode="&#xad;" glyph-name="uni00AD" horiz-adv-x="271" d="M228 213T223 208T207 202H64Q54 202 49 207T43 223V245Q43 255 48 260T64 266H207Q217 266 222 261T228 245V223Q228 213 223 208Z" />
<glyph unicode="&#xae;" glyph-name="registered" horiz-adv-x="503" d="M317 759T368 729T449 648T479 536Q479 476 449 425T368 343T257 313Q196 313 145 343T64 424T34 536Q34 595 64 646T145 728T257 759Q317 759 368 729ZM311 335T357 362T430 435T457 536Q457
591 430 637T357 710T257 737Q202 737 156 710T83 637T56 536Q56 481 83 435T156 362T257 335Q311 335 357 362ZM384 432T384 424Q384 416 379 416H336Q320 416 311 431Q271 502 258 522Q249 535 234 535Q227 535 223 530T219 514V450Q219 440 225 436T245 432H251Q256
432 256 424Q256 416 251 416H153Q148 416 148 424Q148 432 153 432H159Q175 432 180 435T185 450V636Q185 646 179 650T159 654H153Q148 654 148 662Q148 670 153 670H263Q300 670 324 652T348 604Q348 569 305 549Q292 543 292 533Q292 527 296 522L318 487Q326
475 329 469L342 448Q352 432 379 432Q384 432 384 424ZM219 550T226 550Q310 550 310 605Q310 628 294 641T246 654Q219 654 219 636V571Q219 550 226 550Z" />
<glyph unicode="&#xaf;" glyph-name="overscore" horiz-adv-x="473" d="M395 806T390 801T374 795H99Q89 795 84 800T78 816V822Q78 832 83 837T99 843H374Q384 843 389 838T395 822V816Q395 806 390 801Z" />
<glyph unicode="&#xb0;" glyph-name="degree" horiz-adv-x="384" d="M151 431T116 451T61 507T40 583Q40 624 60 659T116 714T192 735Q233 735 268 715T323 659T344 583Q344 542 324 507T268 452T192 431Q151 431 116 451ZM239 471T271 504T304 583Q304 630 272
662T192 695Q146 695 113 663T80 583Q80 537 113 504T192 471Q239 471 271 504Z" />
<glyph unicode="&#xb1;" glyph-name="plusminus" horiz-adv-x="787" d="M407 686T412 681T418 665V464Q418 454 423 449T439 443H640Q650 443 655 438T661 422V414Q661 404 656 399T640 393H439Q429 393 424 388T418 372V171Q418 161 413 156T397 150H389Q379
150 374 155T368 171V372Q368 382 363 387T347 393H146Q136 393 131 398T125 414V422Q125 432 130 437T146 443H347Q357 443 362 448T368 464V665Q368 675 373 680T389 686H397Q407 686 412 681ZM661 47T656 42T640 36H146Q136 36 131 41T125 57V65Q125 75 130
80T146 86H640Q650 86 655 81T661 65V57Q661 47 656 42Z" />
<glyph unicode="&#xb2;" glyph-name="uni00B2" horiz-adv-x="343" d="M58 304T53 314Q51 320 51 324Q51 330 54 337Q71 378 96 414T156 492Q201 545 218 570T235 626Q235 660 218 682T170 704Q142 704 127 691T111 664Q111 656 114 651T119 643Q128 630 128 618Q128
601 118 591T92 581Q77 581 67 595T56 629Q56 651 69 676T110 718T177 735Q238 735 267 702T296 627Q296 590 274 560T211 492Q156 441 119 383Q115 378 115 371Q115 365 120 362T133 358H163Q206 358 225 362T254 378T271 417Q273 424 281 424L290 422Q299 419
299 412Q299 409 297 401L278 322Q274 304 255 304H75Q58 304 53 314Z" />
<glyph unicode="&#xb3;" glyph-name="uni00B3" horiz-adv-x="337" d="M118 300T92 315T55 353T43 394Q43 413 53 424T78 436Q94 436 105 426T116 402Q116 394 113 389T108 382Q102 375 102 369Q102 354 113 343T153 331Q189 331 212 359T235 431Q235 471 214 494T155
518Q145 518 139 517T130 516Q121 516 115 520T109 533Q109 541 115 546T130 551Q135 551 142 550T159 549Q181 549 201 563T221 627Q221 671 203 689T160 708Q118 708 118 677Q118 669 122 661Q126 651 126 643Q126 630 118 621T98 612Q80 612 70 623T59 654Q59
671 72 691T111 725T167 739Q217 739 249 709T282 632Q282 602 269 579T230 542Q220 537 220 533Q220 530 230 525Q262 510 279 484T297 427Q297 401 285 372T241 321T159 300Q118 300 92 315Z" />
<glyph unicode="&#xb4;" glyph-name="acute" horiz-adv-x="600" d="M395 949Q398 952 398 954Q398 961 391 961H311Q294 961 286 947L205 808L204 805Q204 804 205 803T208 802Q210 802 211 803L395 949Z" />
<glyph unicode="&#xb5;" glyph-name="uni00B5" horiz-adv-x="608" d="M589 113T589 105Q585 51 564 19T499 -14Q447 -14 429 46Q426 58 421 58Q417 58 411 50Q363 -14 287 -14Q227 -14 187 14Q181 19 173 19Q163 19 163 3V-14Q163 -35 174 -99Q184 -151 184 -166Q184
-192 172 -208T142 -225Q119 -225 107 -208T95 -165Q95 -142 110 -80Q112 -67 117 -44T123 -8Q128 44 128 115V138Q128 172 127 194L126 292Q126 398 127 426Q127 447 148 447H177Q187 447 192 442T198 426V202L199 150Q201 103 224 69T303 35Q364 35 412 102Q419
113 419 128V142V422Q419 432 424 437T440 443H469Q479 443 484 438T490 422V147Q490 96 497 71T524 46Q542 46 550 60T563 105Q564 113 576 113Q589 113 589 105Z" />
<glyph unicode="&#xb6;" glyph-name="paragraph" horiz-adv-x="964" d="M475 -120T470 -115T464 -99L462 429Q462 450 441 450Q336 455 272 503T208 647Q208 748 278 795T462 843H489Q499 843 504 838T510 822V-99Q510 -109 505 -114T489 -120H485Q475 -120 470
-115ZM648 -109T643 -114T627 -120H623Q613 -120 608 -115T602 -99V822Q602 832 607 837T623 843H749Q757 843 757 829Q757 814 749 814H734Q687 814 668 801T648 752V-99Q648 -109 643 -114Z" />
<glyph unicode="&#xb7;" glyph-name="middot" horiz-adv-x="315" d="M133 320T115 337T97 380Q97 405 115 422T158 440Q183 440 200 423T218 380Q218 355 201 338T158 320Q133 320 115 337Z" />
<glyph unicode="&#xb8;" glyph-name="cedilla" horiz-adv-x="600" d="M262 -205T244 -194T226 -170Q226 -162 232 -155T248 -148Q259 -148 265 -152T278 -164T290 -176Q299 -183 314 -183Q335 -183 349 -168T363 -128Q363 -105 346 -93T305 -81Q295 -81 284 -84Q277
-87 271 -88T261 -86Q258 -83 258 -79Q258 -71 266 -62L330 9Q341 21 355 21Q361 21 361 16Q361 8 350 -5L330 -27Q321 -38 317 -46T316 -54L333 -53Q365 -53 387 -70T410 -119Q410 -147 392 -166T346 -195T295 -205Q262 -205 244 -194Z" />
<glyph unicode="&#xb9;" glyph-name="uni00B9" horiz-adv-x="331" d="M78 295Q74 295 71 299T68 309Q68 315 71 319T78 324H88Q144 324 144 353V619Q144 642 139 647T111 653H78Q74 653 71 657T68 668Q68 674 71 678T78 682Q137 682 176 713Q185 719 190 719Q201
719 201 702V353Q201 324 257 324H266Q276 324 276 309Q276 295 266 295H78Z" />
<glyph unicode="&#xba;" glyph-name="ordmasculine" horiz-adv-x="576" d="M216 -14T163 23T81 119T52 237Q52 301 80 359T161 453T287 489Q359 489 413 453T495 359T524 237Q524 177 496 119T413 24T287 -14Q216 -14 163 23ZM358 21T399 82T441 237Q441 335 400
394T287 454Q216 454 175 394T134 237Q134 177 152 128T205 50T287 21Q358 21 399 82Z" />
<glyph unicode="&#xbb;" glyph-name="guillemotright" horiz-adv-x="550" d="M40 7T36 9Q30 12 30 17Q30 20 32 24L133 228Q137 235 137 242Q137 249 133 256L32 457Q30 461 30 465Q30 472 36 475Q40 477 42 477Q47 477 53 471Q84 436 147 364T241 257Q247 250
247 242Q247 235 241 227Q210 192 147 120T53 13Q47 7 42 7Q40 7 36 9ZM251 7T247 9Q241 12 241 17Q241 20 243 24L344 228Q348 235 348 242Q348 249 344 256L243 457Q241 461 241 465Q241 472 247 475Q251 477 253 477Q258 477 264 471Q295 436 358 364T452 257Q458
250 458 242Q458 235 452 227Q421 192 358 120T264 13Q258 7 253 7Q251 7 247 9Z" />
<glyph unicode="&#xbc;" glyph-name="onequarter" horiz-adv-x="921" d="M699 761T699 754Q699 749 694 739L206 -28Q201 -36 195 -39T183 -39Q177 -35 177 -28Q177 -23 182 -13L670 755Q680 773 693 765Q699 761 699 754ZM78 295Q74 295 71 299T68 309Q68 315
71 319T78 324H88Q144 324 144 353V619Q144 642 139 647T111 653H78Q74 653 71 657T68 668Q68 674 71 678T78 682Q137 682 176 713Q185 719 190 719Q201 719 201 702V353Q201 324 257 324H266Q276 324 276 309Q276 295 266 295H78ZM674 0Q664 0 664 15Q664 29 674
29H682Q700 29 707 32T715 43V73Q715 83 710 88T694 94H583Q573 94 568 98T562 110V112Q562 127 569 138L729 415Q736 428 750 428Q759 428 764 422T770 406V151Q770 141 775 136T791 130H814Q824 130 829 125T835 112Q835 104 830 99T814 94H791Q781 94 776 89T770
73V43Q770 36 778 33T804 29H811Q822 29 822 15Q822 0 811 0H674ZM715 279T712 283T704 288Q696 288 690 277L620 155Q616 147 616 143Q616 137 621 134T634 130H694Q704 130 709 135T715 151V270Q715 279 712 283Z" />
<glyph unicode="&#xbd;" glyph-name="onehalf" horiz-adv-x="898" d="M691 761T691 754Q691 749 686 739L198 -28Q193 -36 187 -39T175 -39Q169 -35 169 -28Q169 -23 174 -13L662 755Q672 773 685 765Q691 761 691 754ZM78 295Q74 295 71 299T68 309Q68 315 71
319T78 324H88Q144 324 144 353V619Q144 642 139 647T111 653H78Q74 653 71 657T68 668Q68 674 71 678T78 682Q137 682 176 713Q185 719 190 719Q201 719 201 702V353Q201 324 257 324H266Q276 324 276 309Q276 295 266 295H78ZM579 0T574 10Q572 16 572 20Q572
26 575 33Q592 74 617 110T677 188Q722 241 739 266T756 322Q756 356 739 378T691 400Q663 400 648 387T632 360Q632 352 635 347T640 339Q649 326 649 314Q649 297 639 287T613 277Q598 277 588 291T577 325Q577 347 590 372T631 414T698 431Q759 431 788 398T817
323Q817 286 795 256T732 188Q677 137 640 79Q636 74 636 67Q636 61 641 58T654 54H684Q727 54 746 58T775 74T792 113Q794 120 802 120L811 118Q820 115 820 108Q820 105 818 97L799 18Q795 0 776 0H596Q579 0 574 10Z" />
<glyph unicode="&#xbe;" glyph-name="threequarters" horiz-adv-x="938" d="M725 761T725 754Q725 749 720 739L232 -28Q227 -36 221 -39T209 -39Q203 -35 203 -28Q203 -23 208 -13L696 755Q706 773 719 765Q725 761 725 754ZM158 302T132 317T95 355T83 396Q83
415 93 426T118 438Q134 438 145 428T156 404Q156 396 153 391T148 384Q142 377 142 371Q142 356 153 345T193 333Q229 333 252 361T275 433Q275 473 254 496T195 520Q185 520 179 519T170 518Q161 518 155 522T149 535Q149 543 155 548T170 553Q175 553 182 552T199
551Q221 551 241 565T261 629Q261 673 243 691T200 710Q158 710 158 679Q158 671 162 663Q166 653 166 645Q166 632 158 623T138 614Q120 614 110 625T99 656Q99 673 112 693T151 727T207 741Q257 741 289 711T322 634Q322 604 309 581T270 544Q260 539 260 535Q260
532 270 527Q302 512 319 486T337 429Q337 403 325 374T281 323T199 302Q158 302 132 317ZM674 0Q664 0 664 15Q664 29 674 29H682Q700 29 707 32T715 43V73Q715 83 710 88T694 94H583Q573 94 568 98T562 110V112Q562 127 569 138L729 415Q736 428 750 428Q759
428 764 422T770 406V151Q770 141 775 136T791 130H814Q824 130 829 125T835 112Q835 104 830 99T814 94H791Q781 94 776 89T770 73V43Q770 36 778 33T804 29H811Q822 29 822 15Q822 0 811 0H674ZM715 279T712 283T704 288Q696 288 690 277L620 155Q616 147 616
143Q616 137 621 134T634 130H694Q704 130 709 135T715 151V270Q715 279 712 283Z" />
<glyph unicode="&#xbf;" glyph-name="questiondown" horiz-adv-x="444" d="M262 417T246 433T230 471Q230 493 246 509T284 525Q307 525 322 510T338 471Q338 449 323 433T284 417Q262 417 246 433ZM218 -228T173 -209T98 -146T67 -31Q67 23 94 63T162 127T245
155Q266 157 266 176L269 303Q269 313 273 318T284 324Q299 324 299 303L301 109Q301 89 280 87Q212 82 167 44T122 -53Q122 -113 152 -141T218 -170Q232 -170 242 -163T264 -140Q278 -123 290 -114T322 -105Q343 -105 355 -118T368 -152Q368 -181 343 -204T262
-228Q218 -228 173 -209Z" />
<glyph unicode="&#xc0;" glyph-name="Agrave" horiz-adv-x="762" d="M746 28T747 24T748 14Q748 0 742 0H458Q454 0 453 3T451 14Q451 21 452 24T458 28Q496 28 524 39T552 81Q552 93 548 104L499 245Q493 262 475 262H235Q217 262 211 245L194 198L172 134Q163
109 163 90Q163 28 258 28Q262 28 263 24T264 14Q264 0 258 0H12Q8 0 7 3T5 14Q5 21 6 24T12 28Q41 28 71 49T120 118L345 715Q351 730 366 735L383 740Q391 743 397 743Q403 743 405 741Q410 738 411 734L445 635Q479 538 547 341T628 114Q660 28 742 28Q746 28
747 24ZM238 318T238 315Q238 308 243 304T257 300H455Q474 300 474 316L472 324L372 612Q368 626 362 633T354 635Q298 488 240 324Q238 318 238 315ZM466 803Q467 802 469 802Q471 802 472 803T473 805L472 808L391 947Q383 961 366 961H286Q279 961 279 954Q279
952 282 949L466 803Z" />
<glyph unicode="&#xc1;" glyph-name="Aacute" horiz-adv-x="762" d="M746 28T747 24T748 14Q748 0 742 0H458Q454 0 453 3T451 14Q451 21 452 24T458 28Q496 28 524 39T552 81Q552 93 548 104L499 245Q493 262 475 262H235Q217 262 211 245L194 198L172 134Q163
109 163 90Q163 28 258 28Q262 28 263 24T264 14Q264 0 258 0H12Q8 0 7 3T5 14Q5 21 6 24T12 28Q41 28 71 49T120 118L345 715Q351 730 366 735L383 740Q391 743 397 743Q403 743 405 741Q410 738 411 734L445 635Q479 538 547 341T628 114Q660 28 742 28Q746 28
747 24ZM238 318T238 315Q238 308 243 304T257 300H455Q474 300 474 316L472 324L372 612Q368 626 362 633T354 635Q298 488 240 324Q238 318 238 315ZM477 949Q480 952 480 954Q480 961 473 961H393Q376 961 368 947L287 808L286 805Q286 804 287 803T290 802Q292
802 293 803L477 949Z" />
<glyph unicode="&#xc2;" glyph-name="Acircumflex" horiz-adv-x="762" d="M746 28T747 24T748 14Q748 0 742 0H458Q454 0 453 3T451 14Q451 21 452 24T458 28Q496 28 524 39T552 81Q552 93 548 104L499 245Q493 262 475 262H235Q217 262 211 245L194 198L172 134Q163
109 163 90Q163 28 258 28Q262 28 263 24T264 14Q264 0 258 0H12Q8 0 7 3T5 14Q5 21 6 24T12 28Q41 28 71 49T120 118L345 715Q351 730 366 735L383 740Q391 743 397 743Q403 743 405 741Q410 738 411 734L445 635Q479 538 547 341T628 114Q660 28 742 28Q746 28
747 24ZM238 318T238 315Q238 308 243 304T257 300H455Q474 300 474 316L472 324L372 612Q368 626 362 633T354 635Q298 488 240 324Q238 318 238 315ZM229 802T229 805L230 808L311 947Q319 961 336 961H426Q443 961 451 947L532 808L533 805Q533 802 530 802Q528
802 527 803L396 906Q388 912 381 912Q373 912 366 906L235 803Q234 802 232 802Q229 802 229 805Z" />
<glyph unicode="&#xc3;" glyph-name="Atilde" horiz-adv-x="762" d="M746 28T747 24T748 14Q748 0 742 0H458Q454 0 453 3T451 14Q451 21 452 24T458 28Q496 28 524 39T552 81Q552 93 548 104L499 245Q493 262 475 262H235Q217 262 211 245L194 198L172 134Q163
109 163 90Q163 28 258 28Q262 28 263 24T264 14Q264 0 258 0H12Q8 0 7 3T5 14Q5 21 6 24T12 28Q41 28 71 49T120 118L345 715Q351 730 366 735L383 740Q391 743 397 743Q403 743 405 741Q410 738 411 734L445 635Q479 538 547 341T628 114Q660 28 742 28Q746 28
747 24ZM238 318T238 315Q238 308 243 304T257 300H455Q474 300 474 316L472 324L372 612Q368 626 362 633T354 635Q298 488 240 324Q238 318 238 315ZM439 831T423 836T374 856Q340 872 317 877Q305 879 298 879Q281 879 266 873T230 851Q229 850 226 850Q221
850 221 853L222 857Q258 938 310 938Q332 938 349 933T395 915Q428 899 448 896Q460 894 468 894Q509 894 532 910L536 911Q541 911 541 906Q541 904 538 896Q510 831 458 831Q439 831 423 836Z" />
<glyph unicode="&#xc4;" glyph-name="Adieresis" horiz-adv-x="762" d="M746 28T747 24T748 14Q748 0 742 0H458Q454 0 453 3T451 14Q451 21 452 24T458 28Q496 28 524 39T552 81Q552 93 548 104L499 245Q493 262 475 262H235Q217 262 211 245L194 198L172 134Q163
109 163 90Q163 28 258 28Q262 28 263 24T264 14Q264 0 258 0H12Q8 0 7 3T5 14Q5 21 6 24T12 28Q41 28 71 49T120 118L345 715Q351 730 366 735L383 740Q391 743 397 743Q403 743 405 741Q410 738 411 734L445 635Q479 538 547 341T628 114Q660 28 742 28Q746 28
747 24ZM238 318T238 315Q238 308 243 304T257 300H455Q474 300 474 316L472 324L372 612Q368 626 362 633T354 635Q298 488 240 324Q238 318 238 315ZM345 875T330 890T294 905Q272 905 258 890T243 854Q243 833 257 818T294 803Q315 803 330 818T345 854Q345
875 330 890ZM519 875T504 890T468 905Q446 905 432 890T417 854Q417 833 431 818T468 803Q489 803 504 818T519 854Q519 875 504 890Z" />
<glyph unicode="&#xc5;" glyph-name="Aring" horiz-adv-x="762" d="M746 28T747 24T748 14Q748 0 742 0H458Q454 0 453 3T451 14Q451 21 452 24T458 28Q496 28 524 39T552 81Q552 93 548 104L499 245Q493 262 475 262H235Q217 262 211 245L194 198L172 134Q163
109 163 90Q163 28 258 28Q262 28 263 24T264 14Q264 0 258 0H12Q8 0 7 3T5 14Q5 21 6 24T12 28Q41 28 71 49T120 118L345 715Q351 730 366 735L383 740Q391 743 397 743Q403 743 405 741Q410 738 411 734L445 635Q479 538 547 341T628 114Q660 28 742 28Q746 28
747 24ZM238 318T238 315Q238 308 243 304T257 300H455Q474 300 474 316L472 324L372 612Q368 626 362 633T354 635Q298 488 240 324Q238 318 238 315ZM418 981T443 955T469 892Q469 855 444 829T381 803Q344 803 318 829T292 892Q292 929 318 955T381 981Q418
981 443 955ZM404 834T421 851T438 892Q438 916 421 933T381 950Q357 950 340 933T323 892Q323 868 340 851T381 834Q404 834 421 851Z" />
<glyph unicode="&#xc6;" glyph-name="AE" horiz-adv-x="1264" d="M1146 174T1146 165Q1146 160 1137 136T1123 101Q1118 87 1110 67T1091 17Q1085 0 1067 0H530Q522 0 522 15Q522 28 530 28H546Q591 28 611 42T632 91V240Q632 250 627 255T611 261H389Q372 261
364 247Q312 169 290 133Q273 106 273 84Q273 56 300 42T365 28Q371 28 371 15Q371 0 365 0H120Q112 0 112 15Q112 28 120 28Q145 28 166 45T228 118Q286 201 401 371T580 635Q592 655 592 668Q592 682 581 690T547 698H532Q524 698 524 713Q524 726 532 726H1037Q1055
726 1062 711Q1112 623 1116 613Q1117 611 1117 608Q1117 605 1115 603T1109 598Q1106 596 1101 596Q1095 596 1091 600Q1047 644 984 670T848 697H823Q782 697 760 694T725 677T712 635V413Q712 403 717 398T733 392H882Q924 393 947 420T971 489Q971 496 984
496Q991 496 994 495T998 489V260Q998 252 984 252Q971 252 971 260Q971 301 948 328T882 357H733Q723 357 718 352T712 336V91Q712 57 733 44T798 29Q811 28 843 28Q867 28 878 29Q940 34 984 55T1056 103T1120 175Q1123 179 1128 179Q1131 179 1137 177Q1146
174 1146 165ZM410 316T410 311Q410 306 415 303T428 299H611Q621 299 626 304T632 320V607Q632 617 629 623T621 630Q616 630 613 624L415 324Q410 316 410 311Z" />
<glyph unicode="&#xc7;" glyph-name="Ccedilla" horiz-adv-x="716" d="M667 181T667 176Q667 174 665 170Q569 -3 416 -13Q399 -15 390 -25L388 -27Q379 -38 375 -46T374 -54L391 -53Q423 -53 445 -70T468 -119Q468 -147 450 -166T404 -195T353 -205Q320 -205
302 -194T284 -170Q284 -162 290 -155T306 -148Q317 -148 323 -152T336 -164T348 -176Q357 -183 372 -183Q393 -183 407 -168T421 -128Q421 -105 404 -93T363 -81Q353 -81 342 -84Q335 -87 329 -88T319 -86Q316 -83 316 -79Q316 -71 324 -62L348 -34Q354 -27 354
-21Q354 -11 339 -8Q270 6 206 49T100 167T58 344Q58 458 106 547T229 685T382 735Q415 735 441 728T501 709Q514 704 526 700T547 696Q567 696 588 708Q596 713 601 713Q609 713 612 701L646 561L648 550V548Q647 541 642 539T637 537H634Q628 537 622 544Q617
551 590 594T511 667T389 697Q289 697 236 633T166 493T149 366Q149 253 189 178T290 69T412 34Q487 34 540 74T641 186Q646 192 650 192Q654 192 660 187Q667 181 667 176Z" />
<glyph unicode="&#xc8;" glyph-name="Egrave" horiz-adv-x="720" d="M678 174T678 165Q678 162 673 149Q640 66 623 17Q617 0 599 0H62Q55 0 55 14Q55 28 62 28H78Q123 28 143 42T164 91V635Q164 670 143 684T78 698H62Q55 698 55 712Q55 726 62 726H569Q587 726
594 711Q611 682 626 654T648 613Q649 611 649 608Q649 603 641 598Q638 596 633 596Q627 596 623 600Q579 644 516 670T380 697H355Q314 697 292 694T257 677T244 635V414Q244 404 249 399T265 393H334Q395 393 414 394Q456 395 479 422T503 490Q503 497 516 497Q523
497 526 496T530 490V261Q530 253 516 253Q503 253 503 261Q503 302 480 329T414 357Q395 358 334 358H265Q255 358 250 353T244 337V91Q244 57 265 44T330 29Q343 28 375 28Q399 28 410 29Q472 34 516 55T588 103T652 175Q655 179 660 179Q663 179 669 177Q678
174 678 165ZM445 803Q446 802 448 802Q450 802 451 803T452 805L451 808L370 947Q362 961 345 961H265Q258 961 258 954Q258 952 261 949L445 803Z" />
<glyph unicode="&#xc9;" glyph-name="Eacute" horiz-adv-x="720" d="M678 174T678 165Q678 162 673 149Q640 66 623 17Q617 0 599 0H62Q55 0 55 14Q55 28 62 28H78Q123 28 143 42T164 91V635Q164 670 143 684T78 698H62Q55 698 55 712Q55 726 62 726H569Q587 726
594 711Q611 682 626 654T648 613Q649 611 649 608Q649 603 641 598Q638 596 633 596Q627 596 623 600Q579 644 516 670T380 697H355Q314 697 292 694T257 677T244 635V414Q244 404 249 399T265 393H334Q395 393 414 394Q456 395 479 422T503 490Q503 497 516 497Q523
497 526 496T530 490V261Q530 253 516 253Q503 253 503 261Q503 302 480 329T414 357Q395 358 334 358H265Q255 358 250 353T244 337V91Q244 57 265 44T330 29Q343 28 375 28Q399 28 410 29Q472 34 516 55T588 103T652 175Q655 179 660 179Q663 179 669 177Q678
174 678 165ZM456 949Q459 952 459 954Q459 961 452 961H372Q355 961 347 947L266 808L265 805Q265 804 266 803T269 802Q271 802 272 803L456 949Z" />
<glyph unicode="&#xca;" glyph-name="Ecircumflex" horiz-adv-x="720" d="M678 174T678 165Q678 162 673 149Q640 66 623 17Q617 0 599 0H62Q55 0 55 14Q55 28 62 28H78Q123 28 143 42T164 91V635Q164 670 143 684T78 698H62Q55 698 55 712Q55 726 62 726H569Q587
726 594 711Q611 682 626 654T648 613Q649 611 649 608Q649 603 641 598Q638 596 633 596Q627 596 623 600Q579 644 516 670T380 697H355Q314 697 292 694T257 677T244 635V414Q244 404 249 399T265 393H334Q395 393 414 394Q456 395 479 422T503 490Q503 497 516
497Q523 497 526 496T530 490V261Q530 253 516 253Q503 253 503 261Q503 302 480 329T414 357Q395 358 334 358H265Q255 358 250 353T244 337V91Q244 57 265 44T330 29Q343 28 375 28Q399 28 410 29Q472 34 516 55T588 103T652 175Q655 179 660 179Q663 179 669
177Q678 174 678 165ZM208 802T208 805L209 808L290 947Q298 961 315 961H405Q422 961 430 947L511 808L512 805Q512 802 509 802Q507 802 506 803L375 906Q368 912 360 912Q353 912 345 906L214 803Q213 802 211 802Q208 802 208 805Z" />
<glyph unicode="&#xcb;" glyph-name="Edieresis" horiz-adv-x="720" d="M678 174T678 165Q678 162 673 149Q640 66 623 17Q617 0 599 0H62Q55 0 55 14Q55 28 62 28H78Q123 28 143 42T164 91V635Q164 670 143 684T78 698H62Q55 698 55 712Q55 726 62 726H569Q587
726 594 711Q611 682 626 654T648 613Q649 611 649 608Q649 603 641 598Q638 596 633 596Q627 596 623 600Q579 644 516 670T380 697H355Q314 697 292 694T257 677T244 635V414Q244 404 249 399T265 393H334Q395 393 414 394Q456 395 479 422T503 490Q503 497 516
497Q523 497 526 496T530 490V261Q530 253 516 253Q503 253 503 261Q503 302 480 329T414 357Q395 358 334 358H265Q255 358 250 353T244 337V91Q244 57 265 44T330 29Q343 28 375 28Q399 28 410 29Q472 34 516 55T588 103T652 175Q655 179 660 179Q663 179 669
177Q678 174 678 165ZM324 875T309 890T273 905Q251 905 237 890T222 854Q222 833 236 818T273 803Q294 803 309 818T324 854Q324 875 309 890ZM498 875T483 890T447 905Q425 905 411 890T396 854Q396 833 410 818T447 803Q468 803 483 818T498 854Q498 875 483
890Z" />
<glyph unicode="&#xcc;" glyph-name="Igrave" horiz-adv-x="408" d="M62 0Q55 0 55 14Q55 28 62 28H78Q123 28 143 42T164 90V635Q164 670 143 684T78 698H62Q55 698 55 712Q55 726 62 726H345Q350 726 351 723T353 712Q353 698 345 698H330Q283 698 264 684T244
635V90Q244 55 264 42T330 28H345Q350 28 351 25T353 14Q353 0 345 0H62ZM267 803Q268 802 270 802Q272 802 273 803T274 805L273 808L192 947Q184 961 167 961H87Q80 961 80 954Q80 952 83 949L267 803Z" />
<glyph unicode="&#xcd;" glyph-name="Iacute" horiz-adv-x="408" d="M62 0Q55 0 55 14Q55 28 62 28H78Q123 28 143 42T164 90V635Q164 670 143 684T78 698H62Q55 698 55 712Q55 726 62 726H345Q350 726 351 723T353 712Q353 698 345 698H330Q283 698 264 684T244
635V90Q244 55 264 42T330 28H345Q350 28 351 25T353 14Q353 0 345 0H62ZM278 949Q281 952 281 954Q281 961 274 961H194Q177 961 169 947L88 808L87 805Q87 804 88 803T91 802Q93 802 94 803L278 949Z" />
<glyph unicode="&#xce;" glyph-name="Icircumflex" horiz-adv-x="408" d="M62 0Q55 0 55 14Q55 28 62 28H78Q123 28 143 42T164 90V635Q164 670 143 684T78 698H62Q55 698 55 712Q55 726 62 726H345Q350 726 351 723T353 712Q353 698 345 698H330Q283 698 264
684T244 635V90Q244 55 264 42T330 28H345Q350 28 351 25T353 14Q353 0 345 0H62ZM30 802T30 805L31 808L112 947Q120 961 137 961H227Q244 961 252 947L333 808L334 805Q334 802 331 802Q329 802 328 803L197 906Q189 912 182 912Q175 912 167 906L36 803Q35 802
33 802Q30 802 30 805Z" />
<glyph unicode="&#xcf;" glyph-name="Idieresis" horiz-adv-x="408" d="M62 0Q55 0 55 14Q55 28 62 28H78Q123 28 143 42T164 90V635Q164 670 143 684T78 698H62Q55 698 55 712Q55 726 62 726H345Q350 726 351 723T353 712Q353 698 345 698H330Q283 698 264 684T244
635V90Q244 55 264 42T330 28H345Q350 28 351 25T353 14Q353 0 345 0H62ZM146 875T131 890T95 905Q73 905 59 890T44 854Q44 833 58 818T95 803Q116 803 131 818T146 854Q146 875 131 890ZM320 875T305 890T269 905Q247 905 233 890T218 854Q218 833 232 818T269
803Q290 803 305 818T320 854Q320 875 305 890Z" />
<glyph unicode="&#xd0;" glyph-name="Eth" horiz-adv-x="794" d="M453 720T534 683T667 567T719 363Q719 240 668 161T535 44T358 2Q292 -1 193 -1L64 0Q56 0 56 14Q56 28 64 28H80Q125 28 145 41T165 90V336Q165 346 160 351T144 357H59Q49 357 44 362T38 376Q38
385 43 390T59 395H144Q154 395 159 400T165 416V635Q165 671 145 684T80 698H64Q57 698 57 712V717Q58 723 62 724T76 726Q94 727 176 727Q284 727 358 724Q453 720 534 683ZM339 30Q397 30 462 58T577 160T627 363Q627 492 578 566T463 668T339 696H331Q285 696
266 682T246 633V416Q246 406 251 401T267 395H419Q429 395 434 390T440 376Q440 367 435 362T419 357H267Q257 357 252 352T246 336V92Q246 58 265 44T331 30H339Z" />
<glyph unicode="&#xd1;" glyph-name="Ntilde" horiz-adv-x="825" d="M55 0Q49 0 49 15Q49 28 55 28H71Q103 28 129 51T156 108V636Q156 670 136 684T71 698H55Q48 698 48 712Q48 726 55 726H216Q232 726 241 713L607 196Q614 186 621 186Q633 186 633 204V618Q633
640 620 658T586 687T546 698H531Q526 698 525 701T523 712Q523 726 531 726H773Q778 726 779 723T781 712Q781 698 773 698H757Q725 698 699 675T672 618V21Q672 11 669 6T660 0Q648 0 639 13L222 608Q215 618 208 618Q196 618 196 600V108Q196 74 224 51T283
28H299Q306 28 306 15Q306 0 299 0H55ZM471 831T455 836T406 856Q372 872 349 877Q337 879 330 879Q313 879 298 873T262 851Q261 850 258 850Q253 850 253 853L254 857Q290 938 342 938Q364 938 381 933T427 915Q460 899 480 896Q492 894 500 894Q541 894 564
910L568 911Q573 911 573 906Q573 904 570 896Q542 831 490 831Q471 831 455 836Z" />
<glyph unicode="&#xd2;" glyph-name="Ograve" horiz-adv-x="771" d="M307 -14T232 29T107 158T58 361Q58 478 107 563T231 691T385 735Q463 735 538 692T662 563T711 361Q711 243 662 158T538 30T385 -14Q307 -14 232 29ZM445 19T498 57T585 173T619 361Q619 470
586 547T499 662T385 701Q325 701 271 663T184 547T151 361Q151 251 184 174T271 58T385 19Q445 19 498 57ZM471 803Q472 802 474 802Q476 802 477 803T478 805L477 808L396 947Q388 961 371 961H291Q284 961 284 954Q284 952 287 949L471 803Z" />
<glyph unicode="&#xd3;" glyph-name="Oacute" horiz-adv-x="771" d="M307 -14T232 29T107 158T58 361Q58 478 107 563T231 691T385 735Q463 735 538 692T662 563T711 361Q711 243 662 158T538 30T385 -14Q307 -14 232 29ZM445 19T498 57T585 173T619 361Q619 470
586 547T499 662T385 701Q325 701 271 663T184 547T151 361Q151 251 184 174T271 58T385 19Q445 19 498 57ZM482 949Q485 952 485 954Q485 961 478 961H398Q381 961 373 947L292 808L291 805Q291 804 292 803T295 802Q297 802 298 803L482 949Z" />
<glyph unicode="&#xd4;" glyph-name="Ocircumflex" horiz-adv-x="771" d="M307 -14T232 29T107 158T58 361Q58 478 107 563T231 691T385 735Q463 735 538 692T662 563T711 361Q711 243 662 158T538 30T385 -14Q307 -14 232 29ZM445 19T498 57T585 173T619 361Q619
470 586 547T499 662T385 701Q325 701 271 663T184 547T151 361Q151 251 184 174T271 58T385 19Q445 19 498 57ZM234 802T234 805L235 808L316 947Q324 961 341 961H431Q448 961 456 947L537 808L538 805Q538 802 535 802Q533 802 532 803L401 906Q393 912 386
912Q378 912 371 906L240 803Q239 802 237 802Q234 802 234 805Z" />
<glyph unicode="&#xd5;" glyph-name="Otilde" horiz-adv-x="771" d="M307 -14T232 29T107 158T58 361Q58 478 107 563T231 691T385 735Q463 735 538 692T662 563T711 361Q711 243 662 158T538 30T385 -14Q307 -14 232 29ZM445 19T498 57T585 173T619 361Q619 470
586 547T499 662T385 701Q325 701 271 663T184 547T151 361Q151 251 184 174T271 58T385 19Q445 19 498 57ZM444 831T428 836T379 856Q345 872 322 877Q310 879 303 879Q286 879 271 873T235 851Q234 850 231 850Q226 850 226 853L227 857Q263 938 315 938Q337
938 354 933T400 915Q433 899 453 896Q465 894 473 894Q514 894 537 910L541 911Q546 911 546 906Q546 904 543 896Q515 831 463 831Q444 831 428 836Z" />
<glyph unicode="&#xd6;" glyph-name="Odieresis" horiz-adv-x="771" d="M307 -14T232 29T107 158T58 361Q58 478 107 563T231 691T385 735Q463 735 538 692T662 563T711 361Q711 243 662 158T538 30T385 -14Q307 -14 232 29ZM445 19T498 57T585 173T619 361Q619
470 586 547T499 662T385 701Q325 701 271 663T184 547T151 361Q151 251 184 174T271 58T385 19Q445 19 498 57ZM350 875T335 890T299 905Q277 905 263 890T248 854Q248 833 262 818T299 803Q320 803 335 818T350 854Q350 875 335 890ZM524 875T509 890T473 905Q451
905 437 890T422 854Q422 833 436 818T473 803Q494 803 509 818T524 854Q524 875 509 890Z" />
<glyph unicode="&#xd7;" glyph-name="multiply" horiz-adv-x="891" d="M654 605T662 605Q671 605 677 598L683 592Q689 585 689 577Q689 569 682 562L496 376Q489 369 489 361Q489 355 496 346L682 160Q689 154 689 145Q689 137 682 130L677 124Q671 117 662 117Q654
117 647 124L461 311Q455 318 446 318Q438 318 431 311L244 124Q237 117 229 117Q220 117 214 124L208 130Q202 138 202 145Q202 153 209 160L395 346Q402 353 402 361Q402 370 395 376L209 562Q202 571 202 577Q202 583 209 592L214 598Q220 605 229 605Q237 605
244 598L431 412Q440 405 446 405Q454 405 461 412L647 598Q654 605 662 605Z" />
<glyph unicode="&#xd8;" glyph-name="Oslash" horiz-adv-x="771" d="M668 730T668 724Q668 718 661 707L620 651Q615 643 615 637Q615 630 621 622Q663 573 687 508T711 361Q711 243 662 158T538 30T385 -14Q337 -14 288 3T196 53Q189 59 181 59Q172 59 166 50L130
1Q124 -7 118 -9T106 -8Q101 -3 101 3Q101 10 107 17L148 71Q153 79 153 85Q153 93 146 100Q105 149 82 215T58 361Q58 478 107 563T231 691T385 735Q432 735 480 718T571 669Q579 664 585 664Q594 664 601 673L639 724Q645 732 651 734T663 733Q668 730 668 724ZM151
248T188 166Q192 154 202 154Q210 154 217 163L541 593Q547 601 547 608Q547 616 541 623Q509 661 468 681T385 701Q325 701 271 663T184 547T151 361Q151 248 188 166ZM445 19T498 57T585 173T619 361Q619 475 580 559Q575 570 566 570Q559 570 551 561L227 130Q222
122 222 116Q222 108 230 97Q262 59 302 39T385 19Q445 19 498 57Z" />
<glyph unicode="&#xd9;" glyph-name="Ugrave" horiz-adv-x="815" d="M293 -14T224 49T155 219V636Q155 671 135 684T69 698H54Q47 698 47 712Q47 726 54 726H336Q341 726 342 723T344 712Q344 698 336 698H321Q276 698 255 685T234 636Q234 447 234 378T235 289V263Q235
164 273 94T421 24Q540 24 582 90T625 263V618Q625 652 597 675T539 698H524Q517 698 517 712Q517 726 524 726H767Q772 726 773 723T775 712Q775 698 767 698H752Q722 698 694 675T666 618L664 234Q664 120 601 53T421 -14Q293 -14 224 49ZM493 803Q494 802 496
802Q498 802 499 803T500 805L499 808L418 947Q410 961 393 961H313Q306 961 306 954Q306 952 309 949L493 803Z" />
<glyph unicode="&#xda;" glyph-name="Uacute" horiz-adv-x="815" d="M293 -14T224 49T155 219V636Q155 671 135 684T69 698H54Q47 698 47 712Q47 726 54 726H336Q341 726 342 723T344 712Q344 698 336 698H321Q276 698 255 685T234 636Q234 447 234 378T235 289V263Q235
164 273 94T421 24Q540 24 582 90T625 263V618Q625 652 597 675T539 698H524Q517 698 517 712Q517 726 524 726H767Q772 726 773 723T775 712Q775 698 767 698H752Q722 698 694 675T666 618L664 234Q664 120 601 53T421 -14Q293 -14 224 49ZM504 949Q507 952 507
954Q507 961 500 961H420Q403 961 395 947L314 808L313 805Q313 804 314 803T317 802Q319 802 320 803L504 949Z" />
<glyph unicode="&#xdb;" glyph-name="Ucircumflex" horiz-adv-x="815" d="M293 -14T224 49T155 219V636Q155 671 135 684T69 698H54Q47 698 47 712Q47 726 54 726H336Q341 726 342 723T344 712Q344 698 336 698H321Q276 698 255 685T234 636Q234 447 234 378T235
289V263Q235 164 273 94T421 24Q540 24 582 90T625 263V618Q625 652 597 675T539 698H524Q517 698 517 712Q517 726 524 726H767Q772 726 773 723T775 712Q775 698 767 698H752Q722 698 694 675T666 618L664 234Q664 120 601 53T421 -14Q293 -14 224 49ZM256 802T256
805L257 808L338 947Q346 961 363 961H453Q470 961 478 947L559 808L560 805Q560 802 557 802Q555 802 554 803L423 906Q416 912 408 912Q401 912 393 906L262 803Q261 802 259 802Q256 802 256 805Z" />
<glyph unicode="&#xdc;" glyph-name="Udieresis" horiz-adv-x="815" d="M293 -14T224 49T155 219V636Q155 671 135 684T69 698H54Q47 698 47 712Q47 726 54 726H336Q341 726 342 723T344 712Q344 698 336 698H321Q276 698 255 685T234 636Q234 447 234 378T235
289V263Q235 164 273 94T421 24Q540 24 582 90T625 263V618Q625 652 597 675T539 698H524Q517 698 517 712Q517 726 524 726H767Q772 726 773 723T775 712Q775 698 767 698H752Q722 698 694 675T666 618L664 234Q664 120 601 53T421 -14Q293 -14 224 49ZM372 875T357
890T321 905Q299 905 285 890T270 854Q270 833 284 818T321 803Q342 803 357 818T372 854Q372 875 357 890ZM546 875T531 890T495 905Q473 905 459 890T444 854Q444 833 458 818T495 803Q516 803 531 818T546 854Q546 875 531 890Z" />
<glyph unicode="&#xdd;" glyph-name="Yacute" horiz-adv-x="754" d="M239 0Q231 0 231 14Q231 28 239 28H254Q299 28 319 43T340 91V230Q340 243 334 256L243 430Q210 493 180 550T135 636Q102 698 50 698H34Q27 698 27 712Q27 726 34 726H307Q312 726 313 723T315
712Q315 698 307 698H291Q213 698 213 662Q213 651 221 635L315 460L385 330Q393 319 400 319Q408 319 414 330Q449 395 492 477T564 615Q572 633 572 644Q572 670 547 684T500 698H483Q476 698 476 712Q476 726 483 726H733Q738 726 739 723T741 712Q741 698 733
698H718Q692 698 662 676T611 617Q576 553 521 451T428 277Q421 264 421 251V91Q421 56 442 42T507 28H522Q530 28 530 14Q530 0 522 0H239ZM473 949Q476 952 476 954Q476 961 469 961H389Q372 961 364 947L283 808L282 805Q282 804 283 803T286 802Q288 802 289
803L473 949Z" />
<glyph unicode="&#xde;" glyph-name="Thorn" horiz-adv-x="648" d="M438 567T493 544T581 477T615 376Q615 268 542 227T354 177Q341 176 297 176H262Q252 176 247 171T241 155V90Q241 55 261 42T327 28H342Q347 28 348 25T350 14Q350 0 342 0H59Q52 0 52 14Q52
28 59 28H75Q120 28 140 42T161 90V635Q161 670 140 684T75 698H59Q52 698 52 712Q52 726 59 726H342Q347 726 348 723T350 712Q350 698 342 698H327Q280 698 261 684T241 635V589Q241 569 262 569H298Q346 569 376 568Q438 567 493 544ZM430 206T476 253T522 380Q522
455 472 497T321 539H262Q252 539 247 534T241 518V226Q241 216 246 211T262 205H318Q430 206 476 253Z" />
<glyph unicode="&#xdf;" glyph-name="germandbls" horiz-adv-x="613" d="M364 -6T333 15T302 69Q302 86 312 98T340 111Q361 111 376 96T395 61Q398 45 403 38Q411 27 434 27Q461 27 477 68T494 191Q494 276 455 320T338 387Q329 390 322 390L306 389Q299 389
294 393T288 402Q288 408 292 412T304 416H320Q332 416 339 417Q392 424 413 470T434 573Q434 611 420 644T378 698T317 719Q268 719 242 693T204 615T187 472Q184 416 184 292L185 161Q186 126 186 69Q186 43 203 35T250 27H263Q270 27 270 13Q270 0 263 0H37Q29
0 29 13Q29 27 37 27H50Q79 27 97 35T115 69V469Q115 756 321 756Q368 756 414 735T489 671T519 573Q519 496 479 458T390 407Q379 404 379 402Q379 401 391 398Q462 384 523 337T584 187Q584 122 558 79T493 15T411 -6Q364 -6 333 15Z" />
<glyph unicode="&#xe0;" glyph-name="agrave" horiz-adv-x="550" d="M539 80T539 73L538 67Q523 24 493 6T436 -12Q411 -12 393 1T365 37Q359 49 353 49Q349 49 341 43Q307 15 265 1T181 -14Q123 -14 88 13T52 87Q52 124 68 151T120 199Q142 212 175 222T268 249Q321
263 338 268Q356 273 356 291V316Q356 364 351 387T331 428Q309 455 256 455Q219 455 200 437T168 382Q151 334 119 334Q101 334 87 345T72 376Q72 395 85 420T140 467T259 489Q304 489 344 474T402 435Q417 414 422 392T428 338Q428 291 427 255L426 110Q426 69
441 55T472 41Q485 41 499 49T524 75Q527 80 531 80Q539 80 539 73ZM249 34T282 47T343 87Q353 98 353 100V101L355 211Q355 223 349 228T331 230Q228 204 181 177T133 101Q133 73 152 54T217 34Q249 34 282 47ZM360 557Q361 556 363 556Q365 556 366 557T367 559L366
562L285 701Q277 715 260 715H180Q173 715 173 708Q173 706 176 703L360 557Z" />
<glyph unicode="&#xe1;" glyph-name="aacute" horiz-adv-x="550" d="M539 80T539 73L538 67Q523 24 493 6T436 -12Q411 -12 393 1T365 37Q359 49 353 49Q349 49 341 43Q307 15 265 1T181 -14Q123 -14 88 13T52 87Q52 124 68 151T120 199Q142 212 175 222T268 249Q321
263 338 268Q356 273 356 291V316Q356 364 351 387T331 428Q309 455 256 455Q219 455 200 437T168 382Q151 334 119 334Q101 334 87 345T72 376Q72 395 85 420T140 467T259 489Q304 489 344 474T402 435Q417 414 422 392T428 338Q428 291 427 255L426 110Q426 69
441 55T472 41Q485 41 499 49T524 75Q527 80 531 80Q539 80 539 73ZM249 34T282 47T343 87Q353 98 353 100V101L355 211Q355 223 349 228T331 230Q228 204 181 177T133 101Q133 73 152 54T217 34Q249 34 282 47ZM371 703Q374 706 374 708Q374 715 367 715H287Q270
715 262 701L181 562L180 559Q180 558 181 557T184 556Q186 556 187 557L371 703Z" />
<glyph unicode="&#xe2;" glyph-name="acircumflex" horiz-adv-x="550" d="M539 80T539 73L538 67Q523 24 493 6T436 -12Q411 -12 393 1T365 37Q359 49 353 49Q349 49 341 43Q307 15 265 1T181 -14Q123 -14 88 13T52 87Q52 124 68 151T120 199Q142 212 175 222T268
249Q321 263 338 268Q356 273 356 291V316Q356 364 351 387T331 428Q309 455 256 455Q219 455 200 437T168 382Q151 334 119 334Q101 334 87 345T72 376Q72 395 85 420T140 467T259 489Q304 489 344 474T402 435Q417 414 422 392T428 338Q428 291 427 255L426 110Q426
69 441 55T472 41Q485 41 499 49T524 75Q527 80 531 80Q539 80 539 73ZM249 34T282 47T343 87Q353 98 353 100V101L355 211Q355 223 349 228T331 230Q228 204 181 177T133 101Q133 73 152 54T217 34Q249 34 282 47ZM123 556T123 559L124 562L205 701Q213 715 230
715H320Q337 715 345 701L426 562L427 559Q427 556 424 556Q422 556 421 557L290 660Q283 666 275 666Q268 666 260 660L129 557Q128 556 126 556Q123 556 123 559Z" />
<glyph unicode="&#xe3;" glyph-name="atilde" horiz-adv-x="550" d="M539 80T539 73L538 67Q523 24 493 6T436 -12Q411 -12 393 1T365 37Q359 49 353 49Q349 49 341 43Q307 15 265 1T181 -14Q123 -14 88 13T52 87Q52 124 68 151T120 199Q142 212 175 222T268 249Q321
263 338 268Q356 273 356 291V316Q356 364 351 387T331 428Q309 455 256 455Q219 455 200 437T168 382Q151 334 119 334Q101 334 87 345T72 376Q72 395 85 420T140 467T259 489Q304 489 344 474T402 435Q417 414 422 392T428 338Q428 291 427 255L426 110Q426 69
441 55T472 41Q485 41 499 49T524 75Q527 80 531 80Q539 80 539 73ZM249 34T282 47T343 87Q353 98 353 100V101L355 211Q355 223 349 228T331 230Q228 204 181 177T133 101Q133 73 152 54T217 34Q249 34 282 47ZM333 585T317 590T268 610Q234 626 211 631Q199 633
192 633Q175 633 160 627T124 605Q123 604 120 604Q115 604 115 607L116 611Q152 692 204 692Q226 692 243 687T289 669Q322 653 342 650Q354 648 362 648Q403 648 426 664L430 665Q435 665 435 660Q435 658 432 650Q404 585 352 585Q333 585 317 590Z" />
<glyph unicode="&#xe4;" glyph-name="adieresis" horiz-adv-x="550" d="M539 80T539 73L538 67Q523 24 493 6T436 -12Q411 -12 393 1T365 37Q359 49 353 49Q349 49 341 43Q307 15 265 1T181 -14Q123 -14 88 13T52 87Q52 124 68 151T120 199Q142 212 175 222T268
249Q321 263 338 268Q356 273 356 291V316Q356 364 351 387T331 428Q309 455 256 455Q219 455 200 437T168 382Q151 334 119 334Q101 334 87 345T72 376Q72 395 85 420T140 467T259 489Q304 489 344 474T402 435Q417 414 422 392T428 338Q428 291 427 255L426 110Q426
69 441 55T472 41Q485 41 499 49T524 75Q527 80 531 80Q539 80 539 73ZM249 34T282 47T343 87Q353 98 353 100V101L355 211Q355 223 349 228T331 230Q228 204 181 177T133 101Q133 73 152 54T217 34Q249 34 282 47ZM239 629T224 644T188 659Q166 659 152 644T137
608Q137 587 151 572T188 557Q209 557 224 572T239 608Q239 629 224 644ZM413 629T398 644T362 659Q340 659 326 644T311 608Q311 587 325 572T362 557Q383 557 398 572T413 608Q413 629 398 644Z" />
<glyph unicode="&#xe5;" glyph-name="aring" horiz-adv-x="550" d="M539 80T539 73L538 67Q523 24 493 6T436 -12Q411 -12 393 1T365 37Q359 49 353 49Q349 49 341 43Q307 15 265 1T181 -14Q123 -14 88 13T52 87Q52 124 68 151T120 199Q142 212 175 222T268 249Q321
263 338 268Q356 273 356 291V316Q356 364 351 387T331 428Q309 455 256 455Q219 455 200 437T168 382Q151 334 119 334Q101 334 87 345T72 376Q72 395 85 420T140 467T259 489Q304 489 344 474T402 435Q417 414 422 392T428 338Q428 291 427 255L426 110Q426 69
441 55T472 41Q485 41 499 49T524 75Q527 80 531 80Q539 80 539 73ZM249 34T282 47T343 87Q353 98 353 100V101L355 211Q355 223 349 228T331 230Q228 204 181 177T133 101Q133 73 152 54T217 34Q249 34 282 47ZM312 735T337 709T363 646Q363 609 338 583T275 557Q238
557 212 583T186 646Q186 683 212 709T275 735Q312 735 337 709ZM298 588T315 605T332 646Q332 670 315 687T275 704Q251 704 234 687T217 646Q217 622 234 605T275 588Q298 588 315 605Z" />
<glyph unicode="&#xe6;" glyph-name="ae" horiz-adv-x="845" d="M791 124T791 119Q791 115 788 109Q767 60 719 23T595 -14Q535 -14 485 9T402 76Q395 85 388 85Q382 85 374 76Q338 32 286 9T181 -14Q123 -14 88 13T52 87Q52 124 68 151T120 199Q142 212 175 222T268
249Q321 263 338 268Q356 273 356 291V317Q356 365 351 388T331 429Q309 456 255 456Q219 456 199 438T168 383Q161 359 148 347T119 335Q98 335 85 348T72 377Q72 394 85 420T141 468T259 490Q304 490 344 475T402 436L403 434Q411 424 419 424Q426 424 432 431Q493
490 581 490Q664 490 718 440T787 300V296Q787 277 767 277L457 275Q436 275 436 257Q435 251 435 238Q435 169 459 124T523 57T610 35Q706 35 768 125Q772 131 777 131Q780 131 786 127Q791 124 791 119ZM532 454T499 424T448 338Q447 335 447 330Q447 314 466
314L673 316Q694 316 694 326Q691 392 658 423T575 454Q532 454 499 424ZM256 34T296 54T364 112Q370 120 370 127Q370 133 367 140Q353 180 353 228Q353 232 345 232Q340 232 329 229Q228 204 181 176T133 101Q133 73 152 54T217 34Q256 34 296 54Z" />
<glyph unicode="&#xe7;" glyph-name="ccedilla" horiz-adv-x="509" d="M459 114T459 108Q459 104 457 100Q435 55 398 26T314 -10Q298 -13 289 -23L285 -27Q276 -38 272 -46T271 -54L288 -53Q320 -53 342 -70T365 -119Q365 -147 347 -166T301 -195T250 -205Q217
-205 199 -194T181 -170Q181 -162 187 -155T203 -148Q214 -148 220 -152T233 -164T245 -176Q254 -183 269 -183Q290 -183 304 -168T318 -128Q318 -105 301 -93T260 -81Q249 -81 239 -84Q232 -87 226 -88T216 -86Q213 -83 213 -79Q213 -70 221 -62L245 -36Q251 -29
251 -23Q251 -12 235 -9Q181 2 137 35T66 120T40 235Q40 294 68 353T151 450T283 489Q336 489 375 473T435 432T456 385Q456 368 445 356T417 343Q398 343 385 356T356 398Q325 452 269 452Q228 452 195 425T143 349T124 236Q124 166 148 121T211 54T290 33Q376
33 434 114Q439 120 444 120Q449 120 452 118Q459 114 459 108Z" />
<glyph unicode="&#xe8;" glyph-name="egrave" horiz-adv-x="543" d="M490 124T490 119Q490 115 487 109Q466 60 418 23T294 -14Q227 -14 172 15T84 100T52 228Q52 292 78 352T155 451T280 490Q363 490 417 440T486 300V296Q486 277 466 277L156 275Q135 275 135
257Q134 251 134 238Q134 169 158 124T222 57T309 35Q405 35 467 125Q471 131 476 131Q479 131 485 127Q490 124 490 119ZM231 454T198 424T147 338Q146 335 146 330Q146 314 165 314L372 316Q393 316 393 326Q390 392 357 423T274 454Q231 454 198 424ZM357 557Q358
556 360 556Q362 556 363 557T364 559L363 562L282 701Q274 715 257 715H177Q170 715 170 708Q170 706 173 703L357 557Z" />
<glyph unicode="&#xe9;" glyph-name="eacute" horiz-adv-x="543" d="M490 124T490 119Q490 115 487 109Q466 60 418 23T294 -14Q227 -14 172 15T84 100T52 228Q52 292 78 352T155 451T280 490Q363 490 417 440T486 300V296Q486 277 466 277L156 275Q135 275 135
257Q134 251 134 238Q134 169 158 124T222 57T309 35Q405 35 467 125Q471 131 476 131Q479 131 485 127Q490 124 490 119ZM231 454T198 424T147 338Q146 335 146 330Q146 314 165 314L372 316Q393 316 393 326Q390 392 357 423T274 454Q231 454 198 424ZM368 703Q371
706 371 708Q371 715 364 715H284Q267 715 259 701L178 562L177 559Q177 558 178 557T181 556Q183 556 184 557L368 703Z" />
<glyph unicode="&#xea;" glyph-name="ecircumflex" horiz-adv-x="543" d="M490 124T490 119Q490 115 487 109Q466 60 418 23T294 -14Q227 -14 172 15T84 100T52 228Q52 292 78 352T155 451T280 490Q363 490 417 440T486 300V296Q486 277 466 277L156 275Q135 275
135 257Q134 251 134 238Q134 169 158 124T222 57T309 35Q405 35 467 125Q471 131 476 131Q479 131 485 127Q490 124 490 119ZM231 454T198 424T147 338Q146 335 146 330Q146 314 165 314L372 316Q393 316 393 326Q390 392 357 423T274 454Q231 454 198 424ZM120
556T120 559L121 562L202 701Q210 715 227 715H317Q334 715 342 701L423 562L424 559Q424 556 421 556Q419 556 418 557L287 660Q280 666 272 666Q265 666 257 660L126 557Q125 556 123 556Q120 556 120 559Z" />
<glyph unicode="&#xeb;" glyph-name="edieresis" horiz-adv-x="543" d="M490 124T490 119Q490 115 487 109Q466 60 418 23T294 -14Q227 -14 172 15T84 100T52 228Q52 292 78 352T155 451T280 490Q363 490 417 440T486 300V296Q486 277 466 277L156 275Q135 275
135 257Q134 251 134 238Q134 169 158 124T222 57T309 35Q405 35 467 125Q471 131 476 131Q479 131 485 127Q490 124 490 119ZM231 454T198 424T147 338Q146 335 146 330Q146 314 165 314L372 316Q393 316 393 326Q390 392 357 423T274 454Q231 454 198 424ZM236
629T221 644T185 659Q163 659 149 644T134 608Q134 587 148 572T185 557Q206 557 221 572T236 608Q236 629 221 644ZM410 629T395 644T359 659Q337 659 323 644T308 608Q308 587 322 572T359 557Q380 557 395 572T410 608Q410 629 395 644Z" />
<glyph unicode="&#xec;" glyph-name="igrave" horiz-adv-x="317" d="M46 0Q38 0 38 14Q38 28 46 28H59Q88 28 105 36T123 70L120 375Q120 396 111 406T89 418T45 425Q39 426 38 428T36 437Q36 442 37 446T41 451Q61 457 98 466T170 483Q172 484 177 484Q193 484
193 465L192 70Q192 44 209 36T257 28H270Q277 28 277 14Q277 0 270 0H46ZM228 557Q229 556 231 556Q233 556 234 557T235 559L234 562L153 701Q145 715 128 715H48Q41 715 41 708Q41 706 44 703L228 557Z" />
<glyph unicode="&#xed;" glyph-name="iacute" horiz-adv-x="317" d="M46 0Q38 0 38 14Q38 28 46 28H59Q88 28 105 36T123 70L120 375Q120 396 111 406T89 418T45 425Q39 426 38 428T36 437Q36 442 37 446T41 451Q61 457 98 466T170 483Q172 484 177 484Q193 484
193 465L192 70Q192 44 209 36T257 28H270Q277 28 277 14Q277 0 270 0H46ZM239 703Q242 706 242 708Q242 715 235 715H155Q138 715 130 701L49 562L48 559Q48 558 49 557T52 556Q54 556 55 557L239 703Z" />
<glyph unicode="&#xee;" glyph-name="icircumflex" horiz-adv-x="317" d="M46 0Q38 0 38 14Q38 28 46 28H59Q88 28 105 36T123 70L120 375Q120 396 111 406T89 418T45 425Q39 426 38 428T36 437Q36 442 37 446T41 451Q61 457 98 466T170 483Q172 484 177 484Q193
484 193 465L192 70Q192 44 209 36T257 28H270Q277 28 277 14Q277 0 270 0H46ZM-9 556T-9 559L-8 562L73 701Q81 715 98 715H188Q205 715 213 701L294 562L295 559Q295 556 292 556Q290 556 289 557L158 660Q150 666 143 666Q135 666 128 660L-3 557Q-4 556 -6
556Q-9 556 -9 559Z" />
<glyph unicode="&#xef;" glyph-name="idieresis" horiz-adv-x="317" d="M46 0Q38 0 38 14Q38 28 46 28H59Q88 28 105 36T123 70L120 375Q120 396 111 406T89 418T45 425Q39 426 38 428T36 437Q36 442 37 446T41 451Q61 457 98 466T170 483Q172 484 177 484Q193
484 193 465L192 70Q192 44 209 36T257 28H270Q277 28 277 14Q277 0 270 0H46ZM107 629T92 644T56 659Q34 659 20 644T5 608Q5 587 19 572T56 557Q77 557 92 572T107 608Q107 629 92 644ZM281 629T266 644T230 659Q208 659 194 644T179 608Q179 587 193 572T230
557Q251 557 266 572T281 608Q281 629 266 644Z" />
<glyph unicode="&#xf0;" glyph-name="eth" horiz-adv-x="565" d="M430 751T430 749Q430 740 418 732L332 681Q321 675 321 667Q321 660 329 652Q413 569 460 466T508 266Q508 198 482 134T404 28T279 -13Q211 -13 159 25T79 122T51 243Q51 305 79 364T159 461T279
499Q310 499 345 489Q353 487 356 487Q365 487 365 495Q365 499 361 506Q324 576 280 629Q273 638 264 638Q259 638 251 634L131 563Q124 559 118 559Q109 559 105 566Q102 571 102 574Q102 582 115 590L225 655Q236 661 236 671Q236 677 228 685Q196 715 154 743Q148
747 148 753Q148 758 151 762Q156 769 162 769Q166 769 168 768Q226 740 271 702Q280 696 287 696Q295 696 300 700L402 760Q410 765 416 765Q423 765 428 757Q430 751 430 749ZM318 24T352 52T406 131T426 243Q426 305 406 355T352 433T279 462Q241 462 207 434T153
355T133 243Q133 181 153 131T207 53T279 24Q318 24 352 52Z" />
<glyph unicode="&#xf1;" glyph-name="ntilde" horiz-adv-x="633" d="M591 27Q599 27 599 13Q599 0 591 0H367Q360 0 360 13Q360 27 367 27H381Q410 27 427 35T444 69L443 255L442 319Q442 372 419 406T339 441Q301 441 266 422T203 362Q196 349 196 336L195 69Q195
44 213 36T260 27H273Q280 27 280 13Q280 0 273 0H49Q41 0 41 13Q41 27 49 27H62Q91 27 109 35T127 69L124 375Q124 396 115 406T92 419T48 426Q42 427 41 430T39 442Q39 449 44 451Q64 457 101 466T173 483Q175 484 180 484Q196 484 196 465V438Q196 421 206 421Q213
421 221 429Q278 489 353 489Q432 489 472 446T516 338Q517 320 517 266Q517 184 514 69Q514 43 531 35T578 27H591ZM375 585T359 590T310 610Q276 626 253 631Q241 633 234 633Q217 633 202 627T166 605Q165 604 162 604Q157 604 157 607L158 611Q194 692 246
692Q268 692 285 687T331 669Q364 653 384 650Q396 648 404 648Q445 648 468 664L472 665Q477 665 477 660Q477 658 474 650Q446 585 394 585Q375 585 359 590Z" />
<glyph unicode="&#xf2;" glyph-name="ograve" horiz-adv-x="576" d="M216 -14T163 23T81 119T52 237Q52 301 80 359T161 453T287 489Q359 489 413 453T495 359T524 237Q524 177 496 119T413 24T287 -14Q216 -14 163 23ZM358 21T399 82T441 237Q441 335 400 394T287
454Q216 454 175 394T134 237Q134 177 152 128T205 50T287 21Q358 21 399 82ZM373 557Q374 556 376 556Q378 556 379 557T380 559L379 562L298 701Q290 715 273 715H193Q186 715 186 708Q186 706 189 703L373 557Z" />
<glyph unicode="&#xf3;" glyph-name="oacute" horiz-adv-x="576" d="M216 -14T163 23T81 119T52 237Q52 301 80 359T161 453T287 489Q359 489 413 453T495 359T524 237Q524 177 496 119T413 24T287 -14Q216 -14 163 23ZM358 21T399 82T441 237Q441 335 400 394T287
454Q216 454 175 394T134 237Q134 177 152 128T205 50T287 21Q358 21 399 82ZM384 703Q387 706 387 708Q387 715 380 715H300Q283 715 275 701L194 562L193 559Q193 558 194 557T197 556Q199 556 200 557L384 703Z" />
<glyph unicode="&#xf4;" glyph-name="ocircumflex" horiz-adv-x="576" d="M216 -14T163 23T81 119T52 237Q52 301 80 359T161 453T287 489Q359 489 413 453T495 359T524 237Q524 177 496 119T413 24T287 -14Q216 -14 163 23ZM358 21T399 82T441 237Q441 335 400
394T287 454Q216 454 175 394T134 237Q134 177 152 128T205 50T287 21Q358 21 399 82ZM136 556T136 559L137 562L218 701Q226 715 243 715H333Q350 715 358 701L439 562L440 559Q440 556 437 556Q435 556 434 557L303 660Q295 666 288 666Q280 666 273 660L142
557Q141 556 139 556Q136 556 136 559Z" />
<glyph unicode="&#xf5;" glyph-name="otilde" horiz-adv-x="576" d="M216 -14T163 23T81 119T52 237Q52 301 80 359T161 453T287 489Q359 489 413 453T495 359T524 237Q524 177 496 119T413 24T287 -14Q216 -14 163 23ZM358 21T399 82T441 237Q441 335 400 394T287
454Q216 454 175 394T134 237Q134 177 152 128T205 50T287 21Q358 21 399 82ZM346 585T330 590T281 610Q247 626 224 631Q212 633 205 633Q188 633 173 627T137 605Q136 604 133 604Q128 604 128 607L129 611Q165 692 217 692Q239 692 256 687T302 669Q335 653
355 650Q367 648 375 648Q416 648 439 664L443 665Q448 665 448 660Q448 658 445 650Q417 585 365 585Q346 585 330 590Z" />
<glyph unicode="&#xf6;" glyph-name="odieresis" horiz-adv-x="576" d="M216 -14T163 23T81 119T52 237Q52 301 80 359T161 453T287 489Q359 489 413 453T495 359T524 237Q524 177 496 119T413 24T287 -14Q216 -14 163 23ZM358 21T399 82T441 237Q441 335 400
394T287 454Q216 454 175 394T134 237Q134 177 152 128T205 50T287 21Q358 21 399 82ZM252 629T237 644T201 659Q179 659 165 644T150 608Q150 587 164 572T201 557Q222 557 237 572T252 608Q252 629 237 644ZM426 629T411 644T375 659Q353 659 339 644T324 608Q324
587 338 572T375 557Q396 557 411 572T426 608Q426 629 411 644Z" />
<glyph unicode="&#xf7;" glyph-name="divide" horiz-adv-x="776" d="M372 535T361 546T349 574Q349 591 360 602T388 614Q405 614 416 603T428 574Q428 558 417 547T388 535Q372 535 361 546ZM656 347T651 342T635 336H141Q131 336 126 341T120 357V365Q120 375
125 380T141 386H635Q645 386 650 381T656 365V357Q656 347 651 342ZM372 108T361 119T349 148Q349 165 360 176T388 187Q405 187 416 176T428 148Q428 132 417 120T388 108Q372 108 361 119Z" />
<glyph unicode="&#xf8;" glyph-name="oslash" horiz-adv-x="576" d="M472 488T472 484Q472 477 465 467L451 449Q446 443 446 435Q446 426 453 419Q487 383 505 335T524 237Q524 177 496 119T413 24T287 -14Q215 -14 160 25Q152 30 146 30Q138 30 130 21L114 -1Q101
-17 92 -11Q88 -8 88 -3Q88 5 95 13L114 39Q119 47 119 53Q119 61 113 68Q83 104 68 148T52 237Q52 301 80 359T161 453T287 489Q351 489 405 458Q412 454 418 454Q427 454 434 463L448 481Q461 497 469 491Q472 488 472 484ZM134 178T151 130Q155 117 166 117Q173
117 180 126L379 391Q385 399 385 406Q385 413 378 420Q339 454 287 454Q216 454 175 394T134 237Q134 178 151 130ZM358 21T399 82T441 237Q441 309 418 363Q412 375 404 375Q396 375 389 365L187 97Q181 90 181 82Q181 74 187 68Q226 21 287 21Q358 21 399 82Z"
/>
<glyph unicode="&#xf9;" glyph-name="ugrave" horiz-adv-x="604" d="M555 38T558 35T562 26Q562 16 555 14L436 -5L430 -6Q414 -6 414 14V43Q414 60 403 60Q396 60 389 52Q330 -9 254 -9Q168 -9 132 35T95 143L94 376Q94 397 85 407T61 420T19 426Q12 427 11 430T9
439Q9 450 15 452Q34 458 70 467T142 484Q145 485 149 485Q165 485 165 466V341Q165 179 166 155Q168 109 191 75T270 40Q307 40 342 59T404 117Q412 129 412 143L408 375Q408 396 399 406T376 419T333 426Q324 427 324 442Q324 449 330 451Q349 457 385 466T456
483Q459 484 463 484Q479 484 479 465L481 85Q481 48 521 40Q533 38 542 38Q555 38 558 35ZM387 557Q388 556 390 556Q392 556 393 557T394 559L393 562L312 701Q304 715 287 715H207Q200 715 200 708Q200 706 203 703L387 557Z" />
<glyph unicode="&#xfa;" glyph-name="uacute" horiz-adv-x="604" d="M555 38T558 35T562 26Q562 16 555 14L436 -5L430 -6Q414 -6 414 14V43Q414 60 403 60Q396 60 389 52Q330 -9 254 -9Q168 -9 132 35T95 143L94 376Q94 397 85 407T61 420T19 426Q12 427 11 430T9
439Q9 450 15 452Q34 458 70 467T142 484Q145 485 149 485Q165 485 165 466V341Q165 179 166 155Q168 109 191 75T270 40Q307 40 342 59T404 117Q412 129 412 143L408 375Q408 396 399 406T376 419T333 426Q324 427 324 442Q324 449 330 451Q349 457 385 466T456
483Q459 484 463 484Q479 484 479 465L481 85Q481 48 521 40Q533 38 542 38Q555 38 558 35ZM398 703Q401 706 401 708Q401 715 394 715H314Q297 715 289 701L208 562L207 559Q207 558 208 557T211 556Q213 556 214 557L398 703Z" />
<glyph unicode="&#xfb;" glyph-name="ucircumflex" horiz-adv-x="604" d="M555 38T558 35T562 26Q562 16 555 14L436 -5L430 -6Q414 -6 414 14V43Q414 60 403 60Q396 60 389 52Q330 -9 254 -9Q168 -9 132 35T95 143L94 376Q94 397 85 407T61 420T19 426Q12 427
11 430T9 439Q9 450 15 452Q34 458 70 467T142 484Q145 485 149 485Q165 485 165 466V341Q165 179 166 155Q168 109 191 75T270 40Q307 40 342 59T404 117Q412 129 412 143L408 375Q408 396 399 406T376 419T333 426Q324 427 324 442Q324 449 330 451Q349 457 385
466T456 483Q459 484 463 484Q479 484 479 465L481 85Q481 48 521 40Q533 38 542 38Q555 38 558 35ZM150 556T150 559L151 562L232 701Q240 715 257 715H347Q364 715 372 701L453 562L454 559Q454 556 451 556Q449 556 448 557L317 660Q310 666 302 666Q295 666
287 660L156 557Q155 556 153 556Q150 556 150 559Z" />
<glyph unicode="&#xfc;" glyph-name="udieresis" horiz-adv-x="604" d="M555 38T558 35T562 26Q562 16 555 14L436 -5L430 -6Q414 -6 414 14V43Q414 60 403 60Q396 60 389 52Q330 -9 254 -9Q168 -9 132 35T95 143L94 376Q94 397 85 407T61 420T19 426Q12 427 11
430T9 439Q9 450 15 452Q34 458 70 467T142 484Q145 485 149 485Q165 485 165 466V341Q165 179 166 155Q168 109 191 75T270 40Q307 40 342 59T404 117Q412 129 412 143L408 375Q408 396 399 406T376 419T333 426Q324 427 324 442Q324 449 330 451Q349 457 385
466T456 483Q459 484 463 484Q479 484 479 465L481 85Q481 48 521 40Q533 38 542 38Q555 38 558 35ZM266 629T251 644T215 659Q193 659 179 644T164 608Q164 587 178 572T215 557Q236 557 251 572T266 608Q266 629 251 644ZM440 629T425 644T389 659Q367 659 353
644T338 608Q338 587 352 572T389 557Q410 557 425 572T440 608Q440 629 425 644Z" />
<glyph unicode="&#xfd;" glyph-name="yacute" horiz-adv-x="557" d="M542 480Q549 480 549 466Q549 452 542 452Q486 452 460 398Q441 359 267 -78Q225 -172 182 -200T92 -228Q65 -228 47 -216T29 -186Q29 -167 40 -155T73 -143Q90 -143 110 -151Q126 -158 141
-158Q162 -158 186 -136T226 -78L253 -12Q256 -5 256 2Q256 9 253 16L87 410Q75 437 59 444T15 452Q8 452 8 466Q8 480 15 480H237Q245 480 245 466Q245 452 237 452Q205 452 185 443T164 418Q164 413 167 405L281 125Q283 119 287 116T295 112Q303 112 309 126Q347
216 376 290T419 398Q421 403 421 411Q421 431 398 441T346 452Q339 452 339 466Q339 473 340 476T346 480H542ZM379 703Q382 706 382 708Q382 715 375 715H295Q278 715 270 701L189 562L188 559Q188 558 189 557T192 556Q194 556 195 557L379 703Z" />
<glyph unicode="&#xfe;" glyph-name="thorn" horiz-adv-x="583" d="M385 489T432 456T506 365T532 240Q532 180 507 121T436 24T329 -14Q257 -14 198 28Q191 34 184 34Q179 34 176 30T173 17V-159Q173 -185 190 -193T237 -201H249Q257 -201 257 -214Q257 -228
249 -228H26Q18 -228 18 -214Q18 -201 26 -201H38Q68 -201 85 -193T103 -159L100 620Q100 641 91 651T67 665T25 671Q19 672 18 676T16 687Q16 694 22 696Q42 702 79 711T151 729Q154 730 158 730Q174 730 174 711V460Q174 443 185 443Q191 443 199 448Q260 489
325 489Q385 489 432 456ZM335 30T369 51T425 120T448 245Q448 308 427 353T370 421T296 444Q272 444 242 433T186 402Q174 393 174 376L173 102Q173 87 184 76Q209 55 240 43T300 30Q335 30 369 51Z" />
<glyph unicode="&#xff;" glyph-name="ydieresis" horiz-adv-x="557" d="M542 480Q549 480 549 466Q549 452 542 452Q486 452 460 398Q441 359 267 -78Q225 -172 182 -200T92 -228Q65 -228 47 -216T29 -186Q29 -167 40 -155T73 -143Q90 -143 110 -151Q126 -158
141 -158Q162 -158 186 -136T226 -78L253 -12Q256 -5 256 2Q256 9 253 16L87 410Q75 437 59 444T15 452Q8 452 8 466Q8 480 15 480H237Q245 480 245 466Q245 452 237 452Q205 452 185 443T164 418Q164 413 167 405L281 125Q283 119 287 116T295 112Q303 112 309
126Q347 216 376 290T419 398Q421 403 421 411Q421 431 398 441T346 452Q339 452 339 466Q339 473 340 476T346 480H542ZM247 629T232 644T196 659Q174 659 160 644T145 608Q145 587 159 572T196 557Q217 557 232 572T247 608Q247 629 232 644ZM421 629T406 644T370
659Q348 659 334 644T319 608Q319 587 333 572T370 557Q391 557 406 572T421 608Q421 629 406 644Z" />
<glyph unicode="&#x2013;" glyph-name="endash" horiz-adv-x="536" d="M536 220T515 220H21Q0 220 0 240Q0 260 21 260H515Q536 260 536 240Q536 220 515 220Z" />
<glyph unicode="&#x2014;" glyph-name="emdash" horiz-adv-x="1000" d="M1021 360T1000 360H0Q-21 360 -21 380Q-21 400 0 400H1000Q1021 400 1021 380Q1021 360 1000 360Z" />
<glyph unicode="&#x2018;" glyph-name="quoteleft" horiz-adv-x="203" d="M79 602T63 618T46 660Q46 707 73 743T137 799L141 800Q143 800 144 798T146 794Q146 791 144 789Q107 756 107 728Q107 712 121 706Q137 698 146 687T156 657Q156 634 141 618T102 602Q79
602 63 618Z" />
<glyph unicode="&#x2019;" glyph-name="quoteright" horiz-adv-x="203" d="M59 602T58 604T56 608Q56 611 58 613Q95 646 95 674Q95 690 81 696Q65 704 56 715T46 745Q46 768 61 784T100 800Q123 800 139 784T156 742Q156 695 129 659T65 603L61 602Q59 602 58 604Z" />
<glyph unicode="&#x201a;" glyph-name="quotesinglbase" horiz-adv-x="312" d="M84 -107T82 -104T80 -99Q80 -97 82 -95Q100 -79 109 -63T119 -35Q119 -19 106 -12Q89 -4 80 7T70 36Q70 60 86 76T125 92Q148 92 164 76T180 34Q180 -12 153 -49T90 -106L87 -107Q84
-107 82 -104Z" />
<glyph unicode="&#x201c;" glyph-name="quotedblleft" horiz-adv-x="368" d="M79 602T63 618T46 660Q46 707 73 743T137 799L141 800Q143 800 144 798T146 794Q146 791 144 789Q107 756 107 728Q107 712 121 706Q137 698 146 687T156 657Q156 634 141 618T102
602Q79 602 63 618ZM245 602T229 618T212 660Q212 707 239 743T303 799L307 800Q309 800 310 798T312 794Q312 791 310 789Q273 756 273 728Q273 712 287 706Q303 698 312 687T322 657Q322 634 307 618T268 602Q245 602 229 618Z" />
<glyph unicode="&#x201d;" glyph-name="quotedblright" horiz-adv-x="369" d="M60 601T59 603T57 607Q57 610 59 612Q96 645 96 673Q96 689 82 695Q66 703 57 714T47 744Q47 767 62 783T101 799Q124 799 140 783T157 741Q157 694 130 658T66 602L62 601Q60 601
59 603ZM226 601T225 603T223 607Q223 610 225 612Q262 645 262 673Q262 689 248 695Q232 703 223 714T213 744Q213 767 228 783T267 799Q290 799 306 783T323 741Q323 694 296 658T232 602L228 601Q226 601 225 603Z" />
<glyph unicode="&#x201e;" glyph-name="quotedblbase" horiz-adv-x="368" d="M59 -104T58 -102T56 -98Q56 -95 58 -93Q95 -60 95 -32Q95 -16 81 -10Q65 -2 56 9T46 39Q46 62 61 78T100 94Q123 94 139 78T156 36Q156 -11 129 -47T65 -103L61 -104Q59 -104 58 -102ZM225
-104T224 -102T222 -98Q222 -95 224 -93Q261 -60 261 -32Q261 -16 247 -10Q231 -2 222 9T212 39Q212 62 227 78T266 94Q289 94 305 78T322 36Q322 -11 295 -47T231 -103L227 -104Q225 -104 224 -102Z" />
<glyph unicode="&#x2022;" glyph-name="bullet" horiz-adv-x="383" d="M155 227T124 245T74 295T55 363Q55 400 73 431T123 480T192 499Q229 499 260 481T309 431T328 363Q328 326 310 295T260 246T192 227Q155 227 124 245Z" />
<glyph unicode="&#x2039;" glyph-name="guilsinglleft" horiz-adv-x="277" d="M230 7T224 13Q193 48 130 120T36 227Q30 235 30 242Q30 250 36 257Q66 292 129 364T224 471Q230 477 235 477Q237 477 241 475Q247 472 247 465Q247 461 245 457L144 256Q140 246
140 242Q140 238 144 228L245 24Q247 20 247 17Q247 12 241 9Q237 7 235 7Q230 7 224 13Z" />
<glyph unicode="&#x203a;" glyph-name="guilsinglright" horiz-adv-x="277" d="M40 7T36 9Q30 12 30 17Q30 20 32 24L133 228Q137 235 137 242Q137 249 133 256L32 457Q30 461 30 465Q30 472 36 475Q40 477 42 477Q47 477 53 471Q84 436 147 364T241 257Q247 250
247 242Q247 235 241 227Q210 192 147 120T53 13Q47 7 42 7Q40 7 36 9Z" />
</font>
</defs>
</svg>
