<?xml version="1.0" standalone="no"?>
<!DOCTYPE svg PUBLIC "-//W3C//DTD SVG 1.1//EN" "http://www.w3.org/Graphics/SVG/1.1/DTD/svg11.dtd">
<svg xmlns="http://www.w3.org/2000/svg">
<defs >
<font id="Krub" horiz-adv-x="557" ><font-face
    font-family="Krub"
    units-per-em="1000"
    panose-1="0 0 5 0 0 0 0 0 0 0"
    ascent="1007"
    descent="-293"
    alphabetic="0" />
<glyph unicode=" " glyph-name="space" horiz-adv-x="258" />
<glyph unicode="!" glyph-name="exclam" horiz-adv-x="246" d="M80 700H166L151 206H95L80 700ZM74 0T74 45V54Q74 99 119 99H127Q172 99 172 54V45Q172 0 127 0H119Q74 0 74 45Z" />
<glyph unicode="&quot;" glyph-name="quotedbl" horiz-adv-x="324" d="M62 737H133L123 505H72L62 737ZM191 737H262L252 505H201L191 737Z" />
<glyph unicode="#" glyph-name="numbersign" horiz-adv-x="540" d="M416 433L389 265H489V215H381L347 0H294L328 215H178L144 0H91L125 215H25V265H133L160 433H51V483H168L203 700H256L221 483H371L406 700H459L424 483H515V433H416ZM363 433H213L186 265H336L363 433Z" />
<glyph unicode="$" glyph-name="dollar" horiz-adv-x="609" d="M555 114T498 59T341 -7V-120H279V-10Q212 -8 158 14T71 72T39 151Q39 171 53 183T92 197Q107 130 155 93T279 52V344Q195 367 148 392T80 449T59 529Q59 611 117 659T279 710V809H341V707Q417 697
467 654T536 540Q523 527 496 527Q468 527 455 554Q439 587 409 610T341 644V392Q428 366 473 341T536 283T555 199Q555 114 498 59ZM131 500T144 481T189 445T279 411V650Q206 647 169 617T131 529Q131 500 144 481ZM405 66T443 102T481 193Q481 241 450 271T341
326V56Q405 66 443 102Z" />
<glyph unicode="%" glyph-name="percent" horiz-adv-x="860" d="M601 710H663L259 -10H197L601 710ZM172 362T131 408T90 530Q90 606 131 653T237 700Q304 700 345 653T387 530Q387 453 346 408T237 362Q172 362 131 408ZM283 414T306 444T329 531Q329 648 237
648Q194 648 171 619T148 534Q148 477 171 446T237 414Q283 414 306 444ZM555 0T514 46T473 168Q473 244 514 291T620 338Q687 338 728 291T770 168Q770 91 729 46T620 0Q555 0 514 46ZM666 52T689 82T712 169Q712 286 620 286Q577 286 554 257T531 172Q531 115
554 84T620 52Q666 52 689 82Z" />
<glyph unicode="&amp;" glyph-name="ampersand" horiz-adv-x="687" d="M530 65T555 56T617 45V18Q617 -10 575 -10Q547 -10 518 5T452 58Q365 -10 252 -10Q196 -10 148 10T70 72T40 171Q40 240 74 288T190 388Q158 437 143 476T127 556Q127 601 148 636T205 691T285
710Q348 710 391 672T434 570Q434 513 396 469T273 373Q308 323 360 256T451 145Q483 188 502 242T523 348Q557 348 568 339T579 300Q579 256 558 201T495 99Q530 65 555 56ZM240 657T215 633T189 558Q189 527 202 494T242 418Q311 458 341 494T371 574Q371 610
348 633T282 657Q240 657 215 633ZM105 128T126 100T182 57T255 42Q346 42 412 102Q365 156 312 223T222 341Q157 299 131 263T105 167Q105 128 126 100Z" />
<glyph unicode="&apos;" glyph-name="quotesingle" horiz-adv-x="223" d="M76 737H147L137 505H86L76 737Z" />
<glyph unicode="(" glyph-name="parenleft" horiz-adv-x="390" d="M163 7T122 134T80 380Q80 497 121 623T241 854H315Q230 745 191 624T151 380Q151 257 190 135T315 -96H241Q163 7 122 134Z" />
<glyph unicode=")" glyph-name="parenright" horiz-adv-x="390" d="M75 -96Q161 13 200 135T239 380Q239 502 200 623T75 854H149Q227 750 268 624T310 380Q310 262 269 135T149 -96H75Z" />
<glyph unicode="*" glyph-name="asterisk" horiz-adv-x="618" d="M164 563L284 701L101 739L124 805L292 740L275 920H344L330 740L498 805L521 739L338 701L458 563L400 526L311 683L222 526L164 563Z" />
<glyph unicode="+" glyph-name="plus" horiz-adv-x="600" d="M268 294H50V354H268V578H332V354H550V294H332V70H268V294Z" />
<glyph unicode="," glyph-name="comma" horiz-adv-x="308" d="M179 99T191 87T203 52V41Q203 6 191 -29T161 -93Q135 -133 117 -133Q101 -133 89 -123Q116 -90 131 -62T151 0H146Q127 0 116 12T105 44V55Q105 75 116 87T147 99H159Q179 99 191 87Z" />
<glyph unicode="-" glyph-name="hyphen" horiz-adv-x="480" d="M60 337H420V277H60V337Z" />
<glyph unicode="." glyph-name="period" horiz-adv-x="308" d="M105 0T105 45V54Q105 99 150 99H158Q203 99 203 54V45Q203 0 158 0H150Q105 0 105 45Z" />
<glyph unicode="/" glyph-name="slash" horiz-adv-x="334" d="M280 811H344L54 -55H-10L280 811Z" />
<glyph unicode="0" glyph-name="zero" horiz-adv-x="620" d="M183 -12T117 79T50 338Q50 515 116 612T310 710Q437 710 503 613T570 338Q570 171 504 80T310 -12Q183 -12 117 79ZM405 50T453 125T502 338Q502 488 454 568T310 648Q214 648 166 568T118 338Q118
199 166 125T310 50Q405 50 453 125Z" />
<glyph unicode="1" glyph-name="one" horiz-adv-x="459" d="M382 55V0H78V55H200V617Q174 595 141 579T82 562Q64 562 55 571T45 594Q45 604 50 612Q90 616 135 638T220 700H265V55H382Z" />
<glyph unicode="2" glyph-name="two" horiz-adv-x="537" d="M479 399T400 295T166 59H471V0H52V36Q181 141 258 219T373 365T411 499Q411 569 375 605T271 642Q200 642 161 605T114 483Q85 483 74 491T63 519Q63 569 87 610T159 676T271 700Q364 700 418 651T476
500Q479 399 400 295Z" />
<glyph unicode="3" glyph-name="three" horiz-adv-x="550" d="M418 348T451 309T485 200Q485 102 421 47T250 -9Q183 -9 133 8T57 51T30 104Q30 123 41 134T70 146Q100 100 139 75T253 49Q333 49 376 89T420 199Q420 266 380 299T274 332L242 331Q220 329 207
329Q193 329 181 346T169 377Q169 386 176 386H265Q331 386 367 421T403 525Q403 582 365 612T253 642Q193 642 155 616T86 534Q69 534 58 544T46 573Q46 600 73 630T149 680T255 700Q350 700 409 654T468 523Q468 460 440 420T369 362Q418 348 451 309Z" />
<glyph unicode="4" glyph-name="four" horiz-adv-x="522" d="M331 173H20V209Q115 343 160 453T215 700Q227 703 238 703Q280 703 280 650Q280 564 229 447T107 232H331V452H395V232H496V173H395V0H331V173Z" />
<glyph unicode="5" glyph-name="five" horiz-adv-x="556" d="M356 453T406 425T485 347T514 230Q514 159 486 105T406 21T285 -9Q226 -9 178 9T103 56T76 114Q76 147 114 155Q159 49 285 49Q364 49 406 98T449 226Q449 311 407 352T288 394Q238 394 202 377T136
320L87 327L111 700H456V642H168L153 408Q209 453 292 453Q356 453 406 425Z" />
<glyph unicode="6" glyph-name="six" horiz-adv-x="577" d="M358 449T408 421T485 339T513 216Q513 153 486 102T408 22T289 -7Q212 -7 158 31T77 134T50 278Q50 393 95 491T216 647T376 705Q426 705 426 649Q311 649 233 578T127 388Q157 413 202 431T292 449Q358
449 408 421ZM366 52T407 98T448 216Q448 304 407 347T292 390Q239 390 193 366T116 303Q115 294 115 278Q115 181 159 117T291 52Q366 52 407 98Z" />
<glyph unicode="7" glyph-name="seven" horiz-adv-x="482" d="M456 700V666Q346 480 303 348T251 72L247 0H215Q172 0 173 44L174 79Q178 211 232 358T380 642H91Q49 642 49 679Q49 688 52 700H456Z" />
<glyph unicode="8" glyph-name="eight" horiz-adv-x="564" d="M451 330T482 283T513 173Q513 86 451 39T282 -9Q177 -9 115 38T52 173Q52 237 84 285T198 361Q135 388 104 428T73 525Q73 608 130 656T282 705Q377 705 433 657T490 525Q490 468 462 429T371 361Q451
330 482 283ZM137 477T176 442T286 385Q364 409 395 442T426 528Q426 584 387 616T282 648Q217 648 177 616T137 528Q137 477 176 442ZM356 49T402 82T448 173Q448 212 433 238T383 286T286 329Q198 300 158 266T117 173Q117 116 162 83T282 49Q356 49 402 82Z"
/>
<glyph unicode="9" glyph-name="nine" horiz-adv-x="577" d="M401 700T457 619T513 410Q513 295 468 200T347 49T187 -7Q137 -7 137 49Q252 49 330 117T436 301Q408 278 365 262T278 246Q209 246 158 273T78 351T50 469Q50 534 79 587T160 670T274 700Q401 700
457 619ZM332 305T374 326T447 385Q448 393 448 410Q448 512 408 576T272 641Q197 641 156 592T115 469Q115 386 157 346T278 305Q332 305 374 326Z" />
<glyph unicode=":" glyph-name="colon" horiz-adv-x="324" d="M105 362T105 407V416Q105 461 150 461H158Q203 461 203 416V407Q203 362 158 362H150Q105 362 105 407ZM105 0T105 45V54Q105 99 150 99H158Q203 99 203 54V45Q203 0 158 0H150Q105 0 105 45Z" />
<glyph unicode=";" glyph-name="semicolon" horiz-adv-x="324" d="M179 99T191 87T203 52V41Q203 6 191 -29T161 -93Q135 -133 117 -133Q101 -133 89 -123Q116 -90 131 -62T151 0H146Q127 0 116 12T105 44V55Q105 75 116 87T147 99H159Q179 99 191 87ZM105 362T105
407V416Q105 461 150 461H158Q203 461 203 416V407Q203 362 158 362H150Q105 362 105 407Z" />
<glyph unicode="&lt;" glyph-name="less" horiz-adv-x="600" d="M550 538L124 304L550 68V-7L50 272V336L550 613V538Z" />
<glyph unicode="=" glyph-name="equal" horiz-adv-x="600" d="M70 465H530V403H70V465ZM70 261H530V199H70V261Z" />
<glyph unicode="&gt;" glyph-name="greater" horiz-adv-x="600" d="M550 336V272L50 -7V68L476 304L50 538V613L550 336Z" />
<glyph unicode="?" glyph-name="question" horiz-adv-x="475" d="M185 229Q185 271 209 304T280 381Q327 425 350 457T374 530Q374 585 339 616T240 647Q180 647 145 614T92 529L33 558Q50 625 107 667T242 709Q297 709 342 688T414 625T441 529Q441 488 427 456T391
401T336 348Q293 309 272 282T251 215V189H185V229ZM171 0T171 45V54Q171 99 216 99H224Q269 99 269 54V45Q269 0 224 0H216Q171 0 171 45Z" />
<glyph unicode="@" glyph-name="at" horiz-adv-x="834" d="M556 267Q551 242 551 227Q551 194 580 194Q613 194 645 223T697 301T718 408Q718 487 681 546T579 637T433 669Q343 669 273 628T165 514T126 350Q126 253 166 180T279 68T445 28Q513 28 561 44T658
90Q677 75 677 60Q677 40 645 22T559 -8T445 -20Q334 -20 250 24T119 152T72 352Q72 454 118 537T246 669T432 717Q532 717 609 678T729 569T772 406Q772 329 744 269T670 176T575 143Q547 143 527 159T503 203Q489 176 461 160T389 143Q324 143 286 186T248 309Q248
412 296 475T425 539Q506 539 537 475L545 523H599L556 267ZM430 188T457 215T499 285T514 375Q514 434 490 464T424 494Q369 494 341 441T313 308Q313 188 394 188Q430 188 457 215Z" />
<glyph unicode="A" glyph-name="A" horiz-adv-x="620" d="M504 124T480 203H140Q116 124 89 0H15Q67 214 128 380T273 700H348Q431 548 492 382T605 0H531Q504 124 480 203ZM463 263Q402 457 310 627Q218 457 157 263H463Z" />
<glyph unicode="B" glyph-name="B" horiz-adv-x="615" d="M502 346T537 300T572 194Q572 101 508 51T326 0H86V700H316Q420 700 480 651T540 516Q540 463 515 421T447 361Q502 346 537 300ZM468 574T428 607T316 640H158V385H313Q468 385 468 516Q468 574 428
607ZM414 60T457 91T500 194Q500 264 456 296T314 328H158V60H316Q414 60 457 91Z" />
<glyph unicode="C" glyph-name="C" horiz-adv-x="596" d="M209 -10T131 84T52 350Q52 523 130 616T352 710Q410 710 460 691T546 633Q540 614 529 604T504 594Q490 594 478 603Q424 645 350 645Q240 645 183 570T126 350Q126 206 183 131T350 56Q397 56 434 69T509
112Q522 111 531 102T540 78Q540 55 514 35T444 3T352 -10Q209 -10 131 84Z" />
<glyph unicode="D" glyph-name="D" horiz-adv-x="672" d="M448 700T531 610T615 350Q615 242 577 163T466 42T293 0H86V700H293Q448 700 531 610ZM415 60T478 133T541 349Q541 496 480 568T293 640H158V60H293Q415 60 478 133Z" />
<glyph unicode="E" glyph-name="E" horiz-adv-x="560" d="M505 60Q505 24 495 12T453 0H86V700H504V640H158V388H456V328H158V60H505Z" />
<glyph unicode="F" glyph-name="F" horiz-adv-x="530" d="M158 640V393H455V333H158V0H86V700H498V640H158Z" />
<glyph unicode="G" glyph-name="G" horiz-adv-x="666" d="M604 373V73Q567 35 506 13T377 -10Q222 -10 142 81T62 350Q62 523 143 616T377 710Q448 710 509 684T601 613Q581 578 557 578Q541 578 524 592Q490 621 455 634T376 647Q258 647 197 572T136 350Q136
200 195 127T376 53Q426 53 469 66T532 101V311H391Q371 311 363 325T354 373H604Z" />
<glyph unicode="H" glyph-name="H" horiz-adv-x="680" d="M594 700V0H522V330H158V0H86V700H158V390H522V700H594Z" />
<glyph unicode="I" glyph-name="I" horiz-adv-x="350" d="M139 700H211V0H139V700Z" />
<glyph unicode="J" glyph-name="J" horiz-adv-x="427" d="M113 -10T78 -2T24 17Q24 44 31 57T51 70Q55 70 85 61T149 52Q267 52 267 183V700H339V183Q339 93 288 42T147 -10Q113 -10 78 -2Z" />
<glyph unicode="K" glyph-name="K" horiz-adv-x="610" d="M585 3Q565 -8 542 -8Q524 -8 514 -2T492 22L340 268Q317 305 292 317T211 330H172V0H100V700H172V392H231Q249 392 258 391L494 700H577L322 371Q364 348 402 289L585 3Z" />
<glyph unicode="L" glyph-name="L" horiz-adv-x="513" d="M498 60V0H86V700H158V60H498Z" />
<glyph unicode="M" glyph-name="M" horiz-adv-x="829" d="M681 0Q672 314 624 599Q588 517 553 417T441 70H389Q321 286 283 395T205 596Q157 323 148 0H76Q81 188 100 370T151 700H231Q291 571 332 464T415 219Q457 357 498 463T598 700H678Q709 552 728 370T753 0H681Z" />
<glyph unicode="N" glyph-name="N" horiz-adv-x="690" d="M600 106T602 64Q604 36 604 27Q604 0 578 0H528V54Q528 112 489 165L158 601V0H86V700H144Q157 700 164 697T182 680L528 225V700H600V137Q600 106 602 64Z" />
<glyph unicode="O" glyph-name="O" horiz-adv-x="680" d="M199 -10T124 84T48 354Q48 526 123 618T340 710Q481 710 556 618T632 354Q632 178 557 84T340 -10Q199 -10 124 84ZM448 54T503 129T558 354Q558 646 340 646Q122 646 122 354Q122 205 177 130T340 54Q448
54 503 129Z" />
<glyph unicode="P" glyph-name="P" horiz-adv-x="615" d="M431 700T501 644T572 477Q572 365 502 308T294 251H158V0H86V700H294Q431 700 501 644ZM401 313T450 352T500 477Q500 561 451 599T294 638H158V313H294Q401 313 450 352Z" />
<glyph unicode="Q" glyph-name="Q" horiz-adv-x="680" d="M632 229T593 144T478 20Q494 -1 540 -57Q530 -68 516 -75T485 -82Q459 -82 440 -53L408 -4Q377 -10 340 -10Q199 -10 124 84T48 354Q48 526 123 618T340 710Q481 710 556 618T632 354Q632 229 593 144ZM351
54T371 56L314 149H390Q413 111 439 75Q558 134 558 354Q558 646 340 646Q122 646 122 354Q122 205 177 130T340 54Q351 54 371 56Z" />
<glyph unicode="R" glyph-name="R" horiz-adv-x="629" d="M585 3Q565 -8 542 -8Q524 -8 513 -1T492 22L378 218Q354 260 320 277T226 295H158V0H86V700H313Q434 700 503 647T572 498Q572 423 522 369T392 301Q421 277 444 240L585 3ZM308 357Q398 357 447 394T497
498Q497 567 451 602T313 638H158V357H308Z" />
<glyph unicode="S" glyph-name="S" horiz-adv-x="642" d="M253 -10T195 11T103 70T69 151Q69 171 83 183T122 197Q138 126 190 89T324 52Q408 52 459 91T511 193Q511 230 493 256T432 302T316 342Q230 365 181 390T111 448T89 529Q89 613 151 661T322 710Q417
710 480 666T566 540Q553 527 526 527Q498 527 485 554Q463 598 419 624T322 650Q243 650 202 619T161 529Q161 499 176 479T226 441T325 406Q432 376 486 349T563 288T585 199Q585 136 553 89T462 16T322 -10Q253 -10 195 11Z" />
<glyph unicode="T" glyph-name="T" horiz-adv-x="534" d="M523 682T523 676Q523 659 514 650T487 640H303V0H231V640H15V700H519Q523 682 523 676Z" />
<glyph unicode="U" glyph-name="U" horiz-adv-x="708" d="M219 -10T153 54T86 251V700H158V241Q158 144 206 98T356 52Q459 52 506 97T553 241V700H625V251Q625 117 560 54T356 -10Q219 -10 153 54Z" />
<glyph unicode="V" glyph-name="V" horiz-adv-x="638" d="M608 700Q576 515 515 344T357 0H282Q185 174 123 345T30 700H106Q157 376 319 79Q481 376 532 700H608Z" />
<glyph unicode="W" glyph-name="W" horiz-adv-x="856" d="M841 700Q820 559 782 408T666 0H584Q515 232 485 344T433 551Q409 443 376 322T282 0H200Q122 242 81 398T15 700H87Q106 575 139 443T241 95Q281 219 316 345T410 700H452Q539 384 567 285T625 96Q690
308 722 441T773 700H841Z" />
<glyph unicode="X" glyph-name="X" horiz-adv-x="582" d="M481 0Q465 96 418 168T291 322Q211 241 164 169T101 0H24Q39 82 71 147T145 263T244 370Q159 455 109 528T39 700H114Q132 616 175 553T291 417Q363 489 406 552T468 700H543Q523 602 473 529T338 370Q396
313 437 263T510 148T558 0H481Z" />
<glyph unicode="Y" glyph-name="Y" horiz-adv-x="590" d="M570 700L331 294V0H259V294L20 700H98L296 361L493 700H570Z" />
<glyph unicode="Z" glyph-name="Z" horiz-adv-x="580" d="M528 60V0H54V60L441 640H52V700H520V636L138 60H528Z" />
<glyph unicode="[" glyph-name="bracketleft" horiz-adv-x="389" d="M102 842H315V792H172V-35H315V-85H102V842Z" />
<glyph unicode="\" glyph-name="backslash" horiz-adv-x="334" d="M280 -55L-10 811H54L344 -55H280Z" />
<glyph unicode="]" glyph-name="bracketright" horiz-adv-x="389" d="M74 -85V-35H217V792H74V842H287V-85H74Z" />
<glyph unicode="^" glyph-name="asciicircum" horiz-adv-x="657" d="M298 791H357L595 324H523L325 711L134 324H62L298 791Z" />
<glyph unicode="_" glyph-name="underscore" horiz-adv-x="684" d="M0 -102H684V-162H0V-102Z" />
<glyph unicode="`" glyph-name="grave" horiz-adv-x="243" d="M-4 783H79L180 632H114L-4 783Z" />
<glyph unicode="a" glyph-name="a" horiz-adv-x="558" d="M476 91T483 65T510 17Q500 7 487 1T461 -5Q441 -5 428 18T410 81Q379 39 327 15T218 -10Q142 -10 96 29T50 133Q50 227 141 280T408 341V373Q408 439 375 471T273 504Q229 504 192 486T111 424Q105 418
96 418Q86 418 74 426T51 451Q96 504 153 532T276 560Q369 560 422 510T476 373V137Q476 91 483 65ZM277 46T325 76T408 161V285Q120 273 120 134Q120 46 223 46Q277 46 325 76Z" />
<glyph unicode="b" glyph-name="b" horiz-adv-x="610" d="M449 560T509 488T570 284Q570 146 507 68T333 -10Q227 -10 167 53Q158 0 132 0Q102 0 82 12Q101 54 101 132V791H171V509Q244 560 338 560Q449 560 509 488ZM413 48T456 109T500 284Q500 390 458 447T338
504Q246 504 171 447V122Q230 48 333 48Q413 48 456 109Z" />
<glyph unicode="c" glyph-name="c" horiz-adv-x="551" d="M175 -10T108 66T40 278Q40 364 70 427T158 525T292 560Q384 560 443 514T513 387Q504 383 489 379T463 375Q453 375 449 380T439 404Q428 451 389 477T292 504Q238 504 197 476T133 397T110 278Q110 172
160 109T296 46Q361 46 407 76T476 166Q490 166 499 154T509 126Q509 91 480 60T401 9T296 -10Q175 -10 108 66Z" />
<glyph unicode="d" glyph-name="d" horiz-adv-x="598" d="M507 96T511 63T521 8Q496 -4 475 -4Q448 -4 441 64Q408 24 369 7T273 -10Q164 -10 102 65T40 273Q40 409 106 484T292 560Q329 560 370 547T439 513V791H507V128Q507 96 511 63ZM329 46T368 67T439 132V447Q415
472 374 489T292 506Q204 506 157 446T110 273Q110 163 153 105T278 46Q329 46 368 67Z" />
<glyph unicode="e" glyph-name="e" horiz-adv-x="560" d="M520 291T518 268H120Q122 164 166 106T290 48Q344 48 381 69T444 136Q451 149 465 149Q481 149 509 130Q487 65 428 28T290 -10Q217 -10 163 24T79 123T50 276Q50 409 116 484T297 560Q402 560 461 495T520
314Q520 291 518 268ZM450 322Q450 502 294 502Q218 502 174 456T122 322H450Z" />
<glyph unicode="f" glyph-name="f" horiz-adv-x="335" d="M302 782T326 771T350 739Q350 728 347 719T338 709Q308 724 269 724Q227 724 205 698T183 623V550H307V498H183V0H115V498H12V550H115V624Q115 696 153 739T256 782Q302 782 326 771Z" />
<glyph unicode="g" glyph-name="g" horiz-adv-x="585" d="M548 579T556 570T565 539Q565 533 563 515Q489 515 460 495Q500 447 500 376Q500 184 279 184Q211 184 180 175T148 145Q148 100 309 100Q422 100 484 62T546 -46Q546 -121 480 -161T289 -202Q172 -202
111 -166T50 -60Q50 -20 77 11T154 57V60Q124 68 106 89T88 141Q88 166 108 185T162 212Q119 236 96 275T72 364Q72 560 298 560Q369 560 419 529Q444 552 473 565T530 579Q548 579 556 570ZM362 240T395 270T429 372Q429 442 395 474T285 506Q211 506 177 474T142
372Q142 240 285 240Q362 240 395 270ZM208 38T165 15T121 -52Q121 -98 164 -122T289 -146Q381 -146 428 -123T475 -52Q475 -4 433 17T293 38Q208 38 165 15Z" />
<glyph unicode="h" glyph-name="h" horiz-adv-x="630" d="M439 560T489 511T539 376V0H471V369Q471 434 439 469T347 504Q301 504 250 484T159 429V0H91V791H159V494Q203 526 253 543T353 560Q439 560 489 511Z" />
<glyph unicode="i" glyph-name="i" horiz-adv-x="288" d="M110 550H178V0H110V550ZM351 651T351 696V705Q351 750 396 750H404Q449 750 449 705V696Q449 651 404 651H396Q351 651 351 696Z" />
<glyph unicode="j" glyph-name="j" horiz-adv-x="270" d="M14 -192T-10 -186T-46 -169Q-55 -160 -55 -147Q-55 -135 -50 -126T-39 -117Q-7 -134 37 -134Q67 -134 83 -116T100 -62V550H168V-53Q168 -121 133 -156T34 -192Q14 -192 -10 -186ZM341 651T341 696V705Q341
750 386 750H394Q439 750 439 705V696Q439 651 394 651H386Q341 651 341 696Z" />
<glyph unicode="k" glyph-name="k" horiz-adv-x="547" d="M529 0Q512 0 490 -2Q472 -4 468 -4Q449 -4 439 12L310 220Q281 267 205 264L159 262V0H91V791H159V324L198 325Q219 326 234 333T261 357L411 550H495L317 332Q315 330 308 322T290 307Q339 294 361 259L529 0Z" />
<glyph unicode="l" glyph-name="l" horiz-adv-x="268" d="M100 791H168V0H100V791Z" />
<glyph unicode="m" glyph-name="m" horiz-adv-x="912" d="M732 560T776 514T821 395V0H752V392Q752 450 726 478T647 506Q562 506 489 428Q491 412 491 404V0H423V402Q423 449 395 477T319 506Q276 506 238 487T160 426V0H92V363Q92 511 80 539Q112 554 131 554Q160
554 160 496V492Q198 528 238 544T331 560Q378 560 415 539T472 480Q515 522 559 541T661 560Q732 560 776 514Z" />
<glyph unicode="n" glyph-name="n" horiz-adv-x="610" d="M520 67T521 46T529 7Q505 -5 477 -5Q462 -5 457 16T452 102V373Q452 443 426 474T342 506Q252 506 158 417V0H90V363Q90 511 78 539Q110 554 129 554Q158 554 158 496V487Q204 525 250 542T349 560Q435
560 477 514T520 372V128Q520 67 521 46Z" />
<glyph unicode="o" glyph-name="o" horiz-adv-x="548" d="M158 -10T99 62T40 276Q40 560 274 560Q508 560 508 276Q508 134 449 62T274 -10Q158 -10 99 62ZM359 46T398 101T438 276Q438 394 399 449T274 504Q189 504 150 449T110 276Q110 157 149 102T274 46Q359
46 398 101Z" />
<glyph unicode="p" glyph-name="p" horiz-adv-x="598" d="M440 560T499 487T558 276Q558 189 528 125T440 25T305 -10Q267 -10 229 -3T160 17V-220H92V363Q92 511 80 539Q112 554 131 554Q160 554 160 496V492Q193 525 236 542T328 560Q440 560 499 487ZM391 46T438
106T486 276Q486 504 328 504Q282 504 239 483T160 423V76Q222 46 305 46Q391 46 438 106Z" />
<glyph unicode="q" glyph-name="q" horiz-adv-x="608" d="M494 554T503 551T526 539Q519 520 513 466T507 362V-220H439V32Q395 7 362 -1T275 -10Q165 -10 103 66T40 278Q40 409 103 484T276 560Q330 560 368 547T444 500Q453 554 480 554Q494 554 503 551ZM337
42T372 53T439 90V430Q377 507 281 507Q199 507 155 448T111 278Q111 159 156 101T292 42Q337 42 372 53Z" />
<glyph unicode="r" glyph-name="r" horiz-adv-x="400" d="M341 557T359 546T378 511Q378 495 367 482Q343 495 301 495Q234 495 194 442T153 303V0H85V550H153V451Q176 497 218 527T306 557Q341 557 359 546Z" />
<glyph unicode="s" glyph-name="s" horiz-adv-x="485" d="M200 -10T152 5T72 45T40 98Q40 111 48 121T70 136Q106 89 148 68T249 46Q312 46 344 75T377 152Q377 184 358 204T310 234T231 257Q173 272 138 286T78 328T53 405Q53 456 80 491T149 543T235 560Q298
560 349 535T430 462Q406 437 389 437Q376 437 364 451Q340 479 309 492T232 506Q181 506 151 482T121 408Q121 379 139 361T184 334T258 312Q318 298 355 283T419 237T445 152Q445 78 391 34T245 -10Q200 -10 152 5Z" />
<glyph unicode="t" glyph-name="t" horiz-adv-x="374" d="M349 62T353 53T358 33Q358 14 342 6Q310 -10 259 -10Q194 -10 155 25T116 121V496H12V550H116V700H184V550H328V496H184V134Q184 50 256 50Q302 50 342 67Q349 62 353 53Z" />
<glyph unicode="u" glyph-name="u" horiz-adv-x="610" d="M517 55T532 7Q511 -5 489 -5Q468 -5 459 12T448 76Q420 37 369 14T259 -10Q90 -10 90 175V550H158V182Q158 109 185 77T271 44Q324 44 370 71T448 147V550H517V113Q517 55 532 7Z" />
<glyph unicode="v" glyph-name="v" horiz-adv-x="485" d="M469 550Q457 396 410 263T275 0H210Q122 129 75 262T16 550H84Q98 405 135 293T243 74Q313 180 350 292T401 550H469Z" />
<glyph unicode="w" glyph-name="w" horiz-adv-x="760" d="M722 550Q682 246 570 0H508Q456 114 426 208T378 404Q360 300 329 206T246 0H182Q129 113 94 244T33 550H103Q120 404 146 295T216 91Q312 288 346 550H412Q448 279 541 89Q628 297 644 550H722Z" />
<glyph unicode="x" glyph-name="x" horiz-adv-x="484" d="M342 231T377 191T437 103T468 0H394Q388 64 350 119T242 241Q173 174 135 119T90 0H16Q21 54 46 102T107 191T197 285Q120 359 78 419T28 550H102Q108 493 144 441T242 328Q304 388 340 440T382 550H456Q449
479 407 419T287 285Q342 231 377 191Z" />
<glyph unicode="y" glyph-name="y" horiz-adv-x="485" d="M474 550L261 -42Q233 -121 191 -157T83 -194Q45 -194 23 -183T1 -152Q1 -132 18 -120Q28 -127 48 -132T89 -137Q130 -137 159 -101T210 9L14 550H86L245 107L402 550H474Z" />
<glyph unicode="z" glyph-name="z" horiz-adv-x="500" d="M470 58V0H30V48L370 492H56V550H462V503L122 58H470Z" />
<glyph unicode="{" glyph-name="braceleft" horiz-adv-x="364" d="M181 -91T148 -57T114 35V248Q114 285 99 307T48 337V374Q84 381 99 404T114 464V677Q114 735 147 768T230 802H278V752H243Q179 752 179 680V474Q179 420 161 394T103 357V354Q142 345 160 318T179
238V32Q179 -40 243 -40H278V-91H230Q181 -91 148 -57Z" />
<glyph unicode="|" glyph-name="bar" horiz-adv-x="243" d="M92 802H151V-12H92V802Z" />
<glyph unicode="}" glyph-name="braceright" horiz-adv-x="364" d="M86 -91V-40H121Q185 -40 185 32V238Q185 291 203 318T261 354V357Q222 367 204 393T185 474V680Q185 752 121 752H86V802H134Q183 802 216 769T250 677V464Q250 427 265 404T316 374V337Q280
330 265 308T250 248V35Q250 -23 217 -57T134 -91H86Z" />
<glyph unicode="~" glyph-name="asciitilde" horiz-adv-x="600" d="M50 261Q104 356 198 356Q230 356 254 346T309 314Q338 294 360 285T411 275Q449 275 469 295T506 356L550 320Q539 273 503 243T408 213Q376 213 352 223T294 256Q263 275 243 284T196 294Q163
294 139 273T95 213L50 261Z" />
<glyph unicode="&#xa0;" glyph-name="uni00A0" horiz-adv-x="258" />
<glyph unicode="&#xa1;" glyph-name="exclamdown" horiz-adv-x="243" d="M172 560T172 515V506Q172 461 127 461H119Q74 461 74 506V515Q74 560 119 560H127Q172 560 172 515ZM166 -140H80L95 354H151L166 -140Z" />
<glyph unicode="&#xa2;" glyph-name="cent" horiz-adv-x="547" d="M490 166T499 154T509 126Q509 91 480 60T401 9T296 -10Q252 -10 213 1L186 -80H126L160 23Q102 57 71 122T40 278Q40 364 70 427T158 525T292 560Q316 560 337 557L364 638H423L392 543Q443 523
474 483T513 387Q504 383 489 379T463 375Q453 375 449 380T439 404Q426 461 373 487L231 57Q262 46 296 46Q361 46 407 76T476 166Q490 166 499 154ZM110 216T128 167T181 87L319 502Q301 504 292 504Q238 504 197 476T133 397T110 278Q110 216 128 167Z" />
<glyph unicode="&#xa3;" glyph-name="sterling" horiz-adv-x="609" d="M518 161Q506 81 456 36T334 -10Q273 -10 231 5T145 53Q99 9 16 -10V59Q79 76 108 114T138 219Q138 253 127 317H14V375H117Q111 409 106 444T101 507Q101 568 127 614T199 685T305 710Q389
710 445 666T516 540Q494 523 471 523Q452 523 443 550Q427 599 395 625T305 652Q236 652 202 614T167 504Q167 456 182 375H354V317H193Q204 253 204 218Q204 145 178 98Q210 75 249 62T324 48Q375 48 408 75T456 173L518 161Z" />
<glyph unicode="&#xa4;" glyph-name="currency" horiz-adv-x="609" d="M33 122L92 181Q33 248 33 353Q33 451 92 523L33 582L73 624L135 563Q171 593 214 608T304 624Q399 624 474 563L534 624L576 582L517 523Q576 451 576 353Q576 248 517 181L576 122L534 81L474
140Q397 81 304 81Q208 81 135 140L73 81L33 122ZM362 146T408 172T480 246T506 353Q506 413 480 460T408 533T304 560Q246 560 201 534T129 460T103 353Q103 293 129 246T200 173T304 146Q362 146 408 172Z" />
<glyph unicode="&#xa5;" glyph-name="yen" horiz-adv-x="590" d="M379 376H512V320H346L331 294V224H512V168H331V0H259V168H78V224H259V294L244 320H78V376H211L20 700H98L296 361L493 700H570L379 376Z" />
<glyph unicode="&#xa6;" glyph-name="brokenbar" horiz-adv-x="243" d="M92 802H151V495H92V802ZM92 295H151V-12H92V295Z" />
<glyph unicode="&#xa7;" glyph-name="section" horiz-adv-x="480" d="M359 295T341 324T281 373L148 435Q61 476 61 557Q61 602 85 636T148 689T235 707Q315 707 364 668T418 565L354 556Q344 649 235 649Q126 649 126 557Q126 530 139 512T184 480L326 414Q374
392 399 349T424 254H359Q359 295 341 324ZM164 -88T115 -49T61 54L125 63Q135 -30 244 -30Q353 -30 353 62Q353 89 340 107T295 139L153 205Q105 227 80 270T55 365H120Q120 324 138 295T198 246L331 184Q418 143 418 62Q418 17 394 -17T331 -70T244 -88Q164 -88
115 -49Z" />
<glyph unicode="&#xa8;" glyph-name="dieresis" horiz-adv-x="302" d="M0 639T0 684V693Q0 738 45 738H53Q98 738 98 693V684Q98 639 53 639H45Q0 639 0 684ZM204 639T204 684V693Q204 738 249 738H257Q302 738 302 693V684Q302 639 257 639H249Q204 639 204 684Z" />
<glyph unicode="&#xa9;" glyph-name="copyright" horiz-adv-x="774" d="M283 -10T201 36T73 164T27 350Q27 454 73 536T201 664T387 710Q491 710 573 664T701 536T747 350Q747 246 701 164T573 36T387 -10Q283 -10 201 36ZM474 39T543 78T651 189T690 350Q690
440 651 511T543 621T387 661Q300 661 231 622T124 511T85 350Q85 260 123 189T231 79T387 39Q474 39 543 78ZM341 132T296 159T226 236T201 351Q201 449 254 508T395 567Q529 567 567 442L517 423Q504 469 476 493T396 518Q327 518 293 473T258 351Q258 278 295
230T399 181Q482 181 514 260L564 241Q517 132 399 132Q341 132 296 159Z" />
<glyph unicode="&#xaa;" glyph-name="ordfeminine" horiz-adv-x="380" d="M333 419T334 404T340 370Q328 360 311 360Q280 360 278 416Q257 389 229 374T155 359Q107 359 77 384T46 451Q46 503 77 530T158 567T278 577V584Q278 667 197 667Q168 667 151 658T113
633Q103 624 98 622T84 619Q72 619 64 626T54 646Q78 679 114 695T203 712Q255 712 294 679T333 583V446Q333 419 334 404ZM197 403T230 423T278 471V535Q224 534 188 530T126 507T101 453Q101 426 116 415T162 403Q197 403 230 423Z" />
<glyph unicode="&#xab;" glyph-name="guillemotleft" horiz-adv-x="500" d="M225 288L353 452H415L296 288L415 117H353L225 288ZM70 288L198 452H260L141 288L260 117H198L70 288Z" />
<glyph unicode="&#xac;" glyph-name="logicalnot" horiz-adv-x="600" d="M478 307H50V367H540V117H478V307Z" />
<glyph unicode="&#xad;" glyph-name="uni00AD" horiz-adv-x="380" d="M40 337H340V277H40V337Z" />
<glyph unicode="&#xae;" glyph-name="registered" horiz-adv-x="774" d="M486 710T568 661T699 530T747 350Q747 253 699 171T569 39T387 -10Q289 -10 207 39T76 170T27 350Q27 447 75 529T206 661T387 710Q486 710 568 661ZM472 39T541 80T650 193T690 350Q690
436 651 507T542 619T387 661Q303 661 234 620T125 507T85 350Q85 265 125 194T234 81T387 39Q472 39 541 80ZM556 371T530 341T459 301L553 145H491L404 297H312V145H255V543H418Q556 543 556 420Q556 371 530 341ZM451 344T474 363T497 421Q497 496 405 496H312V344H401Q451
344 474 363Z" />
<glyph unicode="&#xaf;" glyph-name="overscore" horiz-adv-x="243" d="M-42 714H284V654H-42V714Z" />
<glyph unicode="&#xb0;" glyph-name="degree" horiz-adv-x="438" d="M174 481T138 503T80 561T59 642Q59 685 80 722T137 780T219 802Q264 802 300 781T358 722T379 642Q379 598 358 562T301 503T219 481Q174 481 138 503ZM267 528T297 560T328 642Q328 691 298
723T219 755Q171 755 140 723T109 642Q109 593 140 561T219 528Q267 528 297 560Z" />
<glyph unicode="&#xb1;" glyph-name="plusminus" horiz-adv-x="600" d="M270 348H40V407H270V629H331V407H560V348H331V125H270V348ZM40 59H560V0H40V59Z" />
<glyph unicode="&#xb2;" glyph-name="uni00B2" horiz-adv-x="333" d="M310 332V282H22V324Q98 375 145 411T223 490T255 580Q255 619 232 639T167 660Q124 660 99 638T69 572Q49 572 38 580T27 600Q27 629 44 654T94 695T165 710Q232 710 270 676T309 575Q309
507 256 451T113 332H310Z" />
<glyph unicode="&#xb3;" glyph-name="uni00B3" horiz-adv-x="351" d="M290 497T310 472T330 406Q330 347 289 313T174 278Q134 278 100 288T46 316T26 350Q26 363 34 370T54 377Q81 350 106 337T177 324Q225 324 250 345T275 406Q275 441 252 460T188 480Q177
480 166 479T145 478Q134 478 128 492T121 520Q121 527 127 527H180Q223 527 242 547T261 598Q261 665 181 665Q141 665 117 650T73 601Q63 601 53 609T43 631Q43 652 60 670T109 699T179 710Q241 710 278 681T315 598Q315 569 302 545T258 508Q290 497 310 472Z"
/>
<glyph unicode="&#xb4;" glyph-name="acute" horiz-adv-x="243" d="M174 783H259L128 632H62L174 783Z" />
<glyph unicode="&#xb6;" glyph-name="paragraph" horiz-adv-x="550" d="M243 328Q181 328 130 356T50 431T20 535Q20 638 82 694T261 750H550V701H473V0H413V701H303V0H243V328Z" />
<glyph unicode="&#xb7;" glyph-name="middot" horiz-adv-x="308" d="M105 238T105 283V292Q105 337 150 337H158Q203 337 203 292V283Q203 238 158 238H150Q105 238 105 283Z" />
<glyph unicode="&#xb8;" glyph-name="cedilla" horiz-adv-x="243" d="M168 -55T194 -76T220 -136Q220 -180 185 -204T99 -229Q54 -229 30 -218T6 -187Q6 -181 9 -173Q50 -184 93 -184Q123 -184 140 -172T157 -138Q157 -123 144 -112T106 -100Q87 -100 66 -107L49
-75L106 0H164L119 -55H126Q168 -55 194 -76Z" />
<glyph unicode="&#xb9;" glyph-name="uni00B9" horiz-adv-x="379" d="M302 330V282H76V330H166V642Q126 606 94 606Q76 606 68 616T59 645Q89 648 122 666T179 710H218V330H302Z" />
<glyph unicode="&#xba;" glyph-name="ordmasculine" horiz-adv-x="380" d="M116 357T76 405T36 533Q36 613 76 661T191 710Q265 710 304 662T344 533Q344 454 305 406T191 357Q116 357 76 405ZM239 402T263 433T288 533Q288 665 191 665Q92 665 92 533Q92 402
191 402Q239 402 263 433Z" />
<glyph unicode="&#xbb;" glyph-name="guillemotright" horiz-adv-x="500" d="M85 117L204 288L85 452H147L275 288L147 117H85ZM240 117L359 288L240 452H302L430 288L302 117H240Z" />
<glyph unicode="&#xbc;" glyph-name="onequarter" horiz-adv-x="1016" d="M302 330V282H76V330H166V642Q126 606 94 606Q76 606 68 616T59 645Q89 648 122 666T179 710H218V330H302ZM632 700H684L376 0H324L632 700ZM985 98H925V0H873V98H662V122Q719 203 750
272T787 423Q792 425 803 425Q817 425 827 417T837 392Q837 339 807 270T736 146H873V275H925V146H985V98Z" />
<glyph unicode="&#xbd;" glyph-name="onehalf" horiz-adv-x="962" d="M302 330V282H76V330H166V642Q126 606 94 606Q76 606 68 616T59 645Q89 648 122 666T179 710H218V330H302ZM632 700H684L376 0H324L632 700ZM939 51V1H651V43Q727 94 774 130T852 209T884 299Q884
338 861 358T796 379Q753 379 728 357T698 291Q678 291 667 299T656 319Q656 348 673 373T723 414T794 429Q861 429 899 395T938 294Q938 226 885 170T742 51H939Z" />
<glyph unicode="&#xbe;" glyph-name="threequarters" horiz-adv-x="988" d="M290 497T310 472T330 406Q330 347 289 313T174 278Q134 278 100 288T46 316T26 350Q26 363 34 370T54 377Q81 350 106 337T177 324Q225 324 250 345T275 406Q275 441 252 460T188 480Q177
480 166 479T145 478Q134 478 128 492T121 520Q121 527 127 527H180Q223 527 242 547T261 598Q261 665 181 665Q141 665 117 650T73 601Q63 601 53 609T43 631Q43 652 60 670T109 699T179 710Q241 710 278 681T315 598Q315 569 302 545T258 508Q290 497 310 472ZM604
700H656L348 0H296L604 700ZM957 98H897V0H845V98H634V122Q691 203 722 272T759 423Q764 425 775 425Q789 425 799 417T809 392Q809 339 779 270T708 146H845V275H897V146H957V98Z" />
<glyph unicode="&#xbf;" glyph-name="questiondown" horiz-adv-x="475" d="M304 552T304 507V498Q304 453 259 453H251Q206 453 206 498V507Q206 552 251 552H259Q304 552 304 507ZM290 323Q290 281 266 248T195 171Q148 127 125 95T101 22Q101 -33 136 -64T235
-95Q295 -95 330 -62T383 23L442 -6Q425 -73 368 -115T233 -157Q178 -157 133 -136T61 -73T34 23Q34 64 48 96T84 151T139 204Q182 243 203 270T224 337V363H290V323Z" />
<glyph unicode="&#xc0;" glyph-name="Agrave" horiz-adv-x="620" d="M504 124T480 203H140Q116 124 89 0H15Q67 214 128 380T273 700H348Q431 548 492 382T605 0H531Q504 124 480 203ZM463 263Q402 457 310 627Q218 457 157 263H463ZM448 893H531L632 742H566L448 893Z" />
<glyph unicode="&#xc1;" glyph-name="Aacute" horiz-adv-x="620" d="M504 124T480 203H140Q116 124 89 0H15Q67 214 128 380T273 700H348Q431 548 492 382T605 0H531Q504 124 480 203ZM463 263Q402 457 310 627Q218 457 157 263H463ZM357 893H442L311 742H245L357 893Z" />
<glyph unicode="&#xc2;" glyph-name="Acircumflex" horiz-adv-x="620" d="M504 124T480 203H140Q116 124 89 0H15Q67 214 128 380T273 700H348Q431 548 492 382T605 0H531Q504 124 480 203ZM463 263Q402 457 310 627Q218 457 157 263H463ZM530 875H603L714 742H650L567
825L482 742H418L530 875Z" />
<glyph unicode="&#xc3;" glyph-name="Atilde" horiz-adv-x="620" d="M504 124T480 203H140Q116 124 89 0H15Q67 214 128 380T273 700H348Q431 548 492 382T605 0H531Q504 124 480 203ZM463 263Q402 457 310 627Q218 457 157 263H463ZM417 748T417 772Q417 808
441 828T504 848Q526 848 542 842T579 823Q594 813 605 809T629 804Q670 804 677 851Q696 851 706 843T717 821Q717 792 694 771T632 750Q609 750 592 756T554 775Q538 785 526 789T500 794Q461 794 453 748Q417 748 417 772Z" />
<glyph unicode="&#xc4;" glyph-name="Adieresis" horiz-adv-x="620" d="M504 124T480 203H140Q116 124 89 0H15Q67 214 128 380T273 700H348Q431 548 492 382T605 0H531Q504 124 480 203ZM463 263Q402 457 310 627Q218 457 157 263H463ZM160 749T160 794V803Q160
848 205 848H213Q258 848 258 803V794Q258 749 213 749H205Q160 749 160 794ZM364 749T364 794V803Q364 848 409 848H417Q462 848 462 803V794Q462 749 417 749H409Q364 749 364 794Z" />
<glyph unicode="&#xc5;" glyph-name="Aring" horiz-adv-x="620" d="M504 124T480 203H140Q116 124 89 0H15Q67 214 128 380T273 700H348Q431 548 492 382T605 0H531Q504 124 480 203ZM463 263Q402 457 310 627Q218 457 157 263H463ZM520 738T488 769T456 847Q456
894 488 925T566 957Q612 957 644 926T676 847Q676 800 644 769T566 738Q520 738 488 769ZM592 785T610 803T628 847Q628 875 611 892T566 909Q539 909 521 892T503 847Q503 821 521 803T566 785Q592 785 610 803Z" />
<glyph unicode="&#xc6;" glyph-name="AE" horiz-adv-x="930" d="M535 640V403H832V343H535V60H870Q870 24 860 12T818 0H470V206H152Q107 96 89 0H15Q53 188 159 373T425 700H875V640H535ZM470 266V640H461Q379 571 306 474T180 266H470Z" />
<glyph unicode="&#xc7;" glyph-name="Ccedilla" horiz-adv-x="596" d="M522 111T531 102T540 78Q540 47 493 22T379 -9L341 -55H348Q390 -55 416 -76T442 -136Q442 -180 407 -204T321 -229Q276 -229 252 -218T228 -187Q228 -181 231 -173Q272 -184 315 -184Q345
-184 362 -172T379 -138Q379 -123 366 -112T328 -100Q309 -100 288 -107L271 -75L321 -9Q192 2 122 95T52 350Q52 523 130 616T352 710Q410 710 460 691T546 633Q540 614 529 604T504 594Q490 594 478 603Q424 645 350 645Q240 645 183 570T126 350Q126 206 183
131T350 56Q397 56 434 69T509 112Q522 111 531 102Z" />
<glyph unicode="&#xc8;" glyph-name="Egrave" horiz-adv-x="560" d="M505 60Q505 24 495 12T453 0H86V700H504V640H158V388H456V328H158V60H505ZM418 893H501L602 742H536L418 893Z" />
<glyph unicode="&#xc9;" glyph-name="Eacute" horiz-adv-x="560" d="M505 60Q505 24 495 12T453 0H86V700H504V640H158V388H456V328H158V60H505ZM327 893H412L281 742H215L327 893Z" />
<glyph unicode="&#xca;" glyph-name="Ecircumflex" horiz-adv-x="560" d="M505 60Q505 24 495 12T453 0H86V700H504V640H158V388H456V328H158V60H505ZM500 875H573L684 742H620L537 825L452 742H388L500 875Z" />
<glyph unicode="&#xcb;" glyph-name="Edieresis" horiz-adv-x="560" d="M505 60Q505 24 495 12T453 0H86V700H504V640H158V388H456V328H158V60H505ZM130 749T130 794V803Q130 848 175 848H183Q228 848 228 803V794Q228 749 183 749H175Q130 749 130 794ZM334 749T334
794V803Q334 848 379 848H387Q432 848 432 803V794Q432 749 387 749H379Q334 749 334 794Z" />
<glyph unicode="&#xcc;" glyph-name="Igrave" horiz-adv-x="350" d="M139 700H211V0H139V700ZM313 893H396L497 742H431L313 893Z" />
<glyph unicode="&#xcd;" glyph-name="Iacute" horiz-adv-x="350" d="M139 700H211V0H139V700ZM222 893H307L176 742H110L222 893Z" />
<glyph unicode="&#xce;" glyph-name="Icircumflex" horiz-adv-x="350" d="M139 700H211V0H139V700ZM395 875H468L579 742H515L432 825L347 742H283L395 875Z" />
<glyph unicode="&#xcf;" glyph-name="Idieresis" horiz-adv-x="350" d="M139 700H211V0H139V700ZM25 749T25 794V803Q25 848 70 848H78Q123 848 123 803V794Q123 749 78 749H70Q25 749 25 794ZM229 749T229 794V803Q229 848 274 848H282Q327 848 327 803V794Q327
749 282 749H274Q229 749 229 794Z" />
<glyph unicode="&#xd0;" glyph-name="Eth" horiz-adv-x="672" d="M448 700T531 610T615 350Q615 242 577 163T466 42T293 0H86V327H1V384H86V700H293Q448 700 531 610ZM415 60T478 133T541 349Q541 496 480 568T293 640H158V384H346V327H158V60H293Q415 60 478 133Z" />
<glyph unicode="&#xd1;" glyph-name="Ntilde" horiz-adv-x="690" d="M600 106T602 64Q604 36 604 27Q604 0 578 0H528V54Q528 112 489 165L158 601V0H86V700H144Q157 700 164 697T182 680L528 225V700H600V137Q600 106 602 64ZM451 748T451 772Q451 808 475 828T538
848Q560 848 576 842T613 823Q628 813 639 809T663 804Q704 804 711 851Q730 851 740 843T751 821Q751 792 728 771T666 750Q643 750 626 756T588 775Q572 785 560 789T534 794Q495 794 487 748Q451 748 451 772Z" />
<glyph unicode="&#xd2;" glyph-name="Ograve" horiz-adv-x="680" d="M199 -10T124 84T48 354Q48 526 123 618T340 710Q481 710 556 618T632 354Q632 178 557 84T340 -10Q199 -10 124 84ZM448 54T503 129T558 354Q558 646 340 646Q122 646 122 354Q122 205 177
130T340 54Q448 54 503 129ZM478 893H561L662 742H596L478 893Z" />
<glyph unicode="&#xd3;" glyph-name="Oacute" horiz-adv-x="680" d="M199 -10T124 84T48 354Q48 526 123 618T340 710Q481 710 556 618T632 354Q632 178 557 84T340 -10Q199 -10 124 84ZM448 54T503 129T558 354Q558 646 340 646Q122 646 122 354Q122 205 177
130T340 54Q448 54 503 129ZM387 893H472L341 742H275L387 893Z" />
<glyph unicode="&#xd4;" glyph-name="Ocircumflex" horiz-adv-x="680" d="M199 -10T124 84T48 354Q48 526 123 618T340 710Q481 710 556 618T632 354Q632 178 557 84T340 -10Q199 -10 124 84ZM448 54T503 129T558 354Q558 646 340 646Q122 646 122 354Q122 205
177 130T340 54Q448 54 503 129ZM560 875H633L744 742H680L597 825L512 742H448L560 875Z" />
<glyph unicode="&#xd5;" glyph-name="Otilde" horiz-adv-x="680" d="M199 -10T124 84T48 354Q48 526 123 618T340 710Q481 710 556 618T632 354Q632 178 557 84T340 -10Q199 -10 124 84ZM448 54T503 129T558 354Q558 646 340 646Q122 646 122 354Q122 205 177
130T340 54Q448 54 503 129ZM447 748T447 772Q447 808 471 828T534 848Q556 848 572 842T609 823Q624 813 635 809T659 804Q700 804 707 851Q726 851 736 843T747 821Q747 792 724 771T662 750Q639 750 622 756T584 775Q568 785 556 789T530 794Q491 794 483 748Q447
748 447 772Z" />
<glyph unicode="&#xd6;" glyph-name="Odieresis" horiz-adv-x="680" d="M199 -10T124 84T48 354Q48 526 123 618T340 710Q481 710 556 618T632 354Q632 178 557 84T340 -10Q199 -10 124 84ZM448 54T503 129T558 354Q558 646 340 646Q122 646 122 354Q122 205 177
130T340 54Q448 54 503 129ZM190 749T190 794V803Q190 848 235 848H243Q288 848 288 803V794Q288 749 243 749H235Q190 749 190 794ZM394 749T394 794V803Q394 848 439 848H447Q492 848 492 803V794Q492 749 447 749H439Q394 749 394 794Z" />
<glyph unicode="&#xd7;" glyph-name="multiply" horiz-adv-x="600" d="M102 168L258 324L102 480L144 522L300 366L456 522L498 480L342 324L498 168L456 126L300 282L144 126L102 168Z" />
<glyph unicode="&#xd8;" glyph-name="Oslash" horiz-adv-x="680" d="M632 522T632 354Q632 178 557 84T340 -10Q231 -10 159 48L125 0H53L118 92Q48 185 48 354Q48 526 123 618T340 710Q448 710 517 656L549 701H621L560 614Q632 522 632 354ZM122 227T162 154L478
600Q426 646 340 646Q122 646 122 354Q122 227 162 154ZM448 54T503 129T558 354Q558 481 516 553L199 105Q251 54 340 54Q448 54 503 129Z" />
<glyph unicode="&#xd9;" glyph-name="Ugrave" horiz-adv-x="708" d="M219 -10T153 54T86 251V700H158V241Q158 144 206 98T356 52Q459 52 506 97T553 241V700H625V251Q625 117 560 54T356 -10Q219 -10 153 54ZM492 893H575L676 742H610L492 893Z" />
<glyph unicode="&#xda;" glyph-name="Uacute" horiz-adv-x="708" d="M219 -10T153 54T86 251V700H158V241Q158 144 206 98T356 52Q459 52 506 97T553 241V700H625V251Q625 117 560 54T356 -10Q219 -10 153 54ZM401 893H486L355 742H289L401 893Z" />
<glyph unicode="&#xdb;" glyph-name="Ucircumflex" horiz-adv-x="708" d="M219 -10T153 54T86 251V700H158V241Q158 144 206 98T356 52Q459 52 506 97T553 241V700H625V251Q625 117 560 54T356 -10Q219 -10 153 54ZM574 875H647L758 742H694L611 825L526 742H462L574
875Z" />
<glyph unicode="&#xdc;" glyph-name="Udieresis" horiz-adv-x="708" d="M219 -10T153 54T86 251V700H158V241Q158 144 206 98T356 52Q459 52 506 97T553 241V700H625V251Q625 117 560 54T356 -10Q219 -10 153 54ZM204 749T204 794V803Q204 848 249 848H257Q302
848 302 803V794Q302 749 257 749H249Q204 749 204 794ZM408 749T408 794V803Q408 848 453 848H461Q506 848 506 803V794Q506 749 461 749H453Q408 749 408 794Z" />
<glyph unicode="&#xdd;" glyph-name="Yacute" horiz-adv-x="590" d="M570 700L331 294V0H259V294L20 700H98L296 361L493 700H570ZM342 893H427L296 742H230L342 893Z" />
<glyph unicode="&#xde;" glyph-name="Thorn" horiz-adv-x="641" d="M462 598T525 534T588 363Q588 256 525 192T327 128H181V0H109V700H181V598H327Q462 598 525 534ZM514 188T514 363Q514 538 327 538H181V188H327Q514 188 514 363Z" />
<glyph unicode="&#xdf;" glyph-name="germandbls" horiz-adv-x="617" d="M483 351T518 306T553 199Q553 96 495 41T342 -14Q284 -14 239 3T194 53Q194 64 199 72T214 83Q245 60 274 51T346 42Q413 42 450 78T488 191Q488 254 450 293T340 332Q332 332 312 330L288
329Q274 329 265 345T255 377Q255 386 262 386H331Q365 386 394 404T442 455T460 533Q460 599 421 638T311 677Q237 677 195 638T152 522V0H84V522Q84 588 114 635T197 706T313 731Q376 731 425 704T500 630T527 530Q527 467 500 426T425 365Q483 351 518 306Z"
/>
<glyph unicode="&#xe0;" glyph-name="agrave" horiz-adv-x="558" d="M476 91T483 65T510 17Q500 7 487 1T461 -5Q441 -5 428 18T410 81Q379 39 327 15T218 -10Q142 -10 96 29T50 133Q50 227 141 280T408 341V373Q408 439 375 471T273 504Q229 504 192 486T111
424Q105 418 96 418Q86 418 74 426T51 451Q96 504 153 532T276 560Q369 560 422 510T476 373V137Q476 91 483 65ZM277 46T325 76T408 161V285Q120 273 120 134Q120 46 223 46Q277 46 325 76ZM415 783H498L599 632H533L415 783Z" />
<glyph unicode="&#xe1;" glyph-name="aacute" horiz-adv-x="558" d="M476 91T483 65T510 17Q500 7 487 1T461 -5Q441 -5 428 18T410 81Q379 39 327 15T218 -10Q142 -10 96 29T50 133Q50 227 141 280T408 341V373Q408 439 375 471T273 504Q229 504 192 486T111
424Q105 418 96 418Q86 418 74 426T51 451Q96 504 153 532T276 560Q369 560 422 510T476 373V137Q476 91 483 65ZM277 46T325 76T408 161V285Q120 273 120 134Q120 46 223 46Q277 46 325 76ZM324 783H409L278 632H212L324 783Z" />
<glyph unicode="&#xe2;" glyph-name="acircumflex" horiz-adv-x="558" d="M476 91T483 65T510 17Q500 7 487 1T461 -5Q441 -5 428 18T410 81Q379 39 327 15T218 -10Q142 -10 96 29T50 133Q50 227 141 280T408 341V373Q408 439 375 471T273 504Q229 504 192 486T111
424Q105 418 96 418Q86 418 74 426T51 451Q96 504 153 532T276 560Q369 560 422 510T476 373V137Q476 91 483 65ZM277 46T325 76T408 161V285Q120 273 120 134Q120 46 223 46Q277 46 325 76ZM497 765H570L681 632H617L534 715L449 632H385L497 765Z" />
<glyph unicode="&#xe3;" glyph-name="atilde" horiz-adv-x="558" d="M476 91T483 65T510 17Q500 7 487 1T461 -5Q441 -5 428 18T410 81Q379 39 327 15T218 -10Q142 -10 96 29T50 133Q50 227 141 280T408 341V373Q408 439 375 471T273 504Q229 504 192 486T111
424Q105 418 96 418Q86 418 74 426T51 451Q96 504 153 532T276 560Q369 560 422 510T476 373V137Q476 91 483 65ZM277 46T325 76T408 161V285Q120 273 120 134Q120 46 223 46Q277 46 325 76ZM384 638T384 662Q384 698 408 718T471 738Q493 738 509 732T546 713Q561
703 572 699T596 694Q637 694 644 741Q663 741 673 733T684 711Q684 682 661 661T599 640Q576 640 559 646T521 665Q505 675 493 679T467 684Q428 684 420 638Q384 638 384 662Z" />
<glyph unicode="&#xe4;" glyph-name="adieresis" horiz-adv-x="558" d="M476 91T483 65T510 17Q500 7 487 1T461 -5Q441 -5 428 18T410 81Q379 39 327 15T218 -10Q142 -10 96 29T50 133Q50 227 141 280T408 341V373Q408 439 375 471T273 504Q229 504 192 486T111
424Q105 418 96 418Q86 418 74 426T51 451Q96 504 153 532T276 560Q369 560 422 510T476 373V137Q476 91 483 65ZM277 46T325 76T408 161V285Q120 273 120 134Q120 46 223 46Q277 46 325 76ZM127 639T127 684V693Q127 738 172 738H180Q225 738 225 693V684Q225
639 180 639H172Q127 639 127 684ZM331 639T331 684V693Q331 738 376 738H384Q429 738 429 693V684Q429 639 384 639H376Q331 639 331 684Z" />
<glyph unicode="&#xe5;" glyph-name="aring" horiz-adv-x="558" d="M476 91T483 65T510 17Q500 7 487 1T461 -5Q441 -5 428 18T410 81Q379 39 327 15T218 -10Q142 -10 96 29T50 133Q50 227 141 280T408 341V373Q408 439 375 471T273 504Q229 504 192 486T111 424Q105
418 96 418Q86 418 74 426T51 451Q96 504 153 532T276 560Q369 560 422 510T476 373V137Q476 91 483 65ZM277 46T325 76T408 161V285Q120 273 120 134Q120 46 223 46Q277 46 325 76ZM487 628T455 659T423 737Q423 784 455 815T533 847Q579 847 611 816T643 737Q643
690 611 659T533 628Q487 628 455 659ZM559 675T577 693T595 737Q595 765 578 782T533 799Q506 799 488 782T470 737Q470 711 488 693T533 675Q559 675 577 693Z" />
<glyph unicode="&#xe6;" glyph-name="ae" horiz-adv-x="918" d="M878 289T874 268H478Q480 157 523 102T648 46Q711 46 746 67T802 134Q808 148 822 148Q836 148 867 128Q848 62 792 25T648 -12Q578 -12 526 17T444 103Q403 47 346 18T218 -12Q146 -12 98 26T50
132Q50 231 142 280T408 332V373Q408 438 375 471T273 504Q221 504 186 484T111 424Q105 418 96 418Q86 418 74 427T51 451Q93 501 149 530T276 560Q341 560 387 535T457 463Q489 511 540 535T653 560Q763 560 820 500T878 321Q878 289 874 268ZM808 322Q808 406
771 456T650 506Q575 506 532 459T480 322H808ZM284 44T338 80T418 175Q408 218 408 275Q257 269 189 234T120 133Q120 44 223 44Q284 44 338 80Z" />
<glyph unicode="&#xe7;" glyph-name="ccedilla" horiz-adv-x="551" d="M490 166T499 154T509 126Q509 93 482 63T410 13T313 -10L276 -55H283Q325 -55 351 -76T377 -136Q377 -180 342 -204T256 -229Q211 -229 187 -218T163 -187Q163 -181 166 -173Q207 -184 250
-184Q280 -184 297 -172T314 -138Q314 -123 301 -112T263 -100Q244 -100 223 -107L206 -75L257 -8Q154 4 97 79T40 278Q40 364 70 427T158 525T292 560Q384 560 443 514T513 387Q504 383 489 379T463 375Q453 375 449 380T439 404Q428 451 389 477T292 504Q238
504 197 476T133 397T110 278Q110 172 160 109T296 46Q361 46 407 76T476 166Q490 166 499 154Z" />
<glyph unicode="&#xe8;" glyph-name="egrave" horiz-adv-x="560" d="M520 291T518 268H120Q122 164 166 106T290 48Q344 48 381 69T444 136Q451 149 465 149Q481 149 509 130Q487 65 428 28T290 -10Q217 -10 163 24T79 123T50 276Q50 409 116 484T297 560Q402
560 461 495T520 314Q520 291 518 268ZM450 322Q450 502 294 502Q218 502 174 456T122 322H450ZM424 783H507L608 632H542L424 783Z" />
<glyph unicode="&#xe9;" glyph-name="eacute" horiz-adv-x="560" d="M520 291T518 268H120Q122 164 166 106T290 48Q344 48 381 69T444 136Q451 149 465 149Q481 149 509 130Q487 65 428 28T290 -10Q217 -10 163 24T79 123T50 276Q50 409 116 484T297 560Q402
560 461 495T520 314Q520 291 518 268ZM450 322Q450 502 294 502Q218 502 174 456T122 322H450ZM333 783H418L287 632H221L333 783Z" />
<glyph unicode="&#xea;" glyph-name="ecircumflex" horiz-adv-x="560" d="M520 291T518 268H120Q122 164 166 106T290 48Q344 48 381 69T444 136Q451 149 465 149Q481 149 509 130Q487 65 428 28T290 -10Q217 -10 163 24T79 123T50 276Q50 409 116 484T297 560Q402
560 461 495T520 314Q520 291 518 268ZM450 322Q450 502 294 502Q218 502 174 456T122 322H450ZM506 765H579L690 632H626L543 715L458 632H394L506 765Z" />
<glyph unicode="&#xeb;" glyph-name="edieresis" horiz-adv-x="560" d="M520 291T518 268H120Q122 164 166 106T290 48Q344 48 381 69T444 136Q451 149 465 149Q481 149 509 130Q487 65 428 28T290 -10Q217 -10 163 24T79 123T50 276Q50 409 116 484T297 560Q402
560 461 495T520 314Q520 291 518 268ZM450 322Q450 502 294 502Q218 502 174 456T122 322H450ZM136 639T136 684V693Q136 738 181 738H189Q234 738 234 693V684Q234 639 189 639H181Q136 639 136 684ZM340 639T340 684V693Q340 738 385 738H393Q438 738 438 693V684Q438
639 393 639H385Q340 639 340 684Z" />
<glyph unicode="&#xec;" glyph-name="igrave" horiz-adv-x="288" d="M110 550H178V0H110V550ZM282 783H365L466 632H400L282 783Z" />
<glyph unicode="&#xed;" glyph-name="iacute" horiz-adv-x="288" d="M110 550H178V0H110V550ZM191 783H276L145 632H79L191 783Z" />
<glyph unicode="&#xee;" glyph-name="icircumflex" horiz-adv-x="288" d="M110 550H178V0H110V550ZM364 765H437L548 632H484L401 715L316 632H252L364 765Z" />
<glyph unicode="&#xef;" glyph-name="idieresis" horiz-adv-x="288" d="M110 550H178V0H110V550ZM-6 639T-6 684V693Q-6 738 39 738H47Q92 738 92 693V684Q92 639 47 639H39Q-6 639 -6 684ZM198 639T198 684V693Q198 738 243 738H251Q296 738 296 693V684Q296
639 251 639H243Q198 639 198 684Z" />
<glyph unicode="&#xf0;" glyph-name="eth" horiz-adv-x="547" d="M434 600T470 501T507 275Q507 151 452 70T274 -12Q150 -12 95 69T40 275Q40 349 62 413T137 518T274 560Q336 560 375 538Q343 598 292 649L203 595L169 646L245 692Q212 720 172 747L218 794Q266
761 305 728L416 795L449 743L352 684Q434 600 470 501ZM360 42T398 101T437 275Q437 383 398 444T274 506Q188 506 149 445T110 275Q110 161 148 102T274 42Q360 42 398 101Z" />
<glyph unicode="&#xf1;" glyph-name="ntilde" horiz-adv-x="610" d="M520 67T521 46T529 7Q505 -5 477 -5Q462 -5 457 16T452 102V373Q452 443 426 474T342 506Q252 506 158 417V0H90V363Q90 511 78 539Q110 554 129 554Q158 554 158 496V487Q204 525 250 542T349
560Q435 560 477 514T520 372V128Q520 67 521 46ZM412 638T412 662Q412 698 436 718T499 738Q521 738 537 732T574 713Q589 703 600 699T624 694Q665 694 672 741Q691 741 701 733T712 711Q712 682 689 661T627 640Q604 640 587 646T549 665Q533 675 521 679T495
684Q456 684 448 638Q412 638 412 662Z" />
<glyph unicode="&#xf2;" glyph-name="ograve" horiz-adv-x="548" d="M158 -10T99 62T40 276Q40 560 274 560Q508 560 508 276Q508 134 449 62T274 -10Q158 -10 99 62ZM359 46T398 101T438 276Q438 394 399 449T274 504Q189 504 150 449T110 276Q110 157 149 102T274
46Q359 46 398 101ZM412 783H495L596 632H530L412 783Z" />
<glyph unicode="&#xf3;" glyph-name="oacute" horiz-adv-x="548" d="M158 -10T99 62T40 276Q40 560 274 560Q508 560 508 276Q508 134 449 62T274 -10Q158 -10 99 62ZM359 46T398 101T438 276Q438 394 399 449T274 504Q189 504 150 449T110 276Q110 157 149 102T274
46Q359 46 398 101ZM321 783H406L275 632H209L321 783Z" />
<glyph unicode="&#xf4;" glyph-name="ocircumflex" horiz-adv-x="548" d="M158 -10T99 62T40 276Q40 560 274 560Q508 560 508 276Q508 134 449 62T274 -10Q158 -10 99 62ZM359 46T398 101T438 276Q438 394 399 449T274 504Q189 504 150 449T110 276Q110 157 149
102T274 46Q359 46 398 101ZM494 765H567L678 632H614L531 715L446 632H382L494 765Z" />
<glyph unicode="&#xf5;" glyph-name="otilde" horiz-adv-x="548" d="M158 -10T99 62T40 276Q40 560 274 560Q508 560 508 276Q508 134 449 62T274 -10Q158 -10 99 62ZM359 46T398 101T438 276Q438 394 399 449T274 504Q189 504 150 449T110 276Q110 157 149 102T274
46Q359 46 398 101ZM381 638T381 662Q381 698 405 718T468 738Q490 738 506 732T543 713Q558 703 569 699T593 694Q634 694 641 741Q660 741 670 733T681 711Q681 682 658 661T596 640Q573 640 556 646T518 665Q502 675 490 679T464 684Q425 684 417 638Q381 638
381 662Z" />
<glyph unicode="&#xf6;" glyph-name="odieresis" horiz-adv-x="548" d="M158 -10T99 62T40 276Q40 560 274 560Q508 560 508 276Q508 134 449 62T274 -10Q158 -10 99 62ZM359 46T398 101T438 276Q438 394 399 449T274 504Q189 504 150 449T110 276Q110 157 149
102T274 46Q359 46 398 101ZM124 639T124 684V693Q124 738 169 738H177Q222 738 222 693V684Q222 639 177 639H169Q124 639 124 684ZM328 639T328 684V693Q328 738 373 738H381Q426 738 426 693V684Q426 639 381 639H373Q328 639 328 684Z" />
<glyph unicode="&#xf7;" glyph-name="divide" horiz-adv-x="600" d="M268 474T252 489T236 527Q236 547 252 563T289 579Q311 579 327 563T343 527Q343 505 327 490T289 474Q268 474 252 489ZM70 354H530V294H70V354ZM268 73T252 89T236 125Q236 147 252 163T289
179Q311 179 327 163T343 125Q343 105 327 89T289 73Q268 73 252 89Z" />
<glyph unicode="&#xf8;" glyph-name="oslash" horiz-adv-x="548" d="M460 475Q508 405 508 276Q508 134 449 62T274 -10Q181 -10 123 37L94 0H30L88 76Q40 147 40 276Q40 560 274 560Q368 560 426 513L454 550H518L460 475ZM110 186T132 133L387 463Q347 504 274
504Q189 504 150 449T110 276Q110 186 132 133ZM438 366T416 417L161 87Q201 46 274 46Q359 46 398 101T438 276Q438 366 416 417Z" />
<glyph unicode="&#xf9;" glyph-name="ugrave" horiz-adv-x="609" d="M517 55T532 7Q511 -5 489 -5Q468 -5 459 12T448 76Q420 37 369 14T259 -10Q90 -10 90 175V550H158V182Q158 109 185 77T271 44Q324 44 370 71T448 147V550H517V113Q517 55 532 7ZM443 783H526L627
632H561L443 783Z" />
<glyph unicode="&#xfa;" glyph-name="uacute" horiz-adv-x="609" d="M517 55T532 7Q511 -5 489 -5Q468 -5 459 12T448 76Q420 37 369 14T259 -10Q90 -10 90 175V550H158V182Q158 109 185 77T271 44Q324 44 370 71T448 147V550H517V113Q517 55 532 7ZM352 783H437L306
632H240L352 783Z" />
<glyph unicode="&#xfb;" glyph-name="ucircumflex" horiz-adv-x="609" d="M517 55T532 7Q511 -5 489 -5Q468 -5 459 12T448 76Q420 37 369 14T259 -10Q90 -10 90 175V550H158V182Q158 109 185 77T271 44Q324 44 370 71T448 147V550H517V113Q517 55 532 7ZM525
765H598L709 632H645L562 715L477 632H413L525 765Z" />
<glyph unicode="&#xfc;" glyph-name="udieresis" horiz-adv-x="609" d="M517 55T532 7Q511 -5 489 -5Q468 -5 459 12T448 76Q420 37 369 14T259 -10Q90 -10 90 175V550H158V182Q158 109 185 77T271 44Q324 44 370 71T448 147V550H517V113Q517 55 532 7ZM155 639T155
684V693Q155 738 200 738H208Q253 738 253 693V684Q253 639 208 639H200Q155 639 155 684ZM359 639T359 684V693Q359 738 404 738H412Q457 738 457 693V684Q457 639 412 639H404Q359 639 359 684Z" />
<glyph unicode="&#xfd;" glyph-name="yacute" horiz-adv-x="485" d="M474 550L261 -42Q233 -121 191 -157T83 -194Q45 -194 23 -183T1 -152Q1 -132 18 -120Q28 -127 48 -132T89 -137Q130 -137 159 -101T210 9L14 550H86L245 107L402 550H474ZM290 783H375L244
632H178L290 783Z" />
<glyph unicode="&#xfe;" glyph-name="thorn" horiz-adv-x="609" d="M430 560T494 495T558 285Q558 192 526 125T437 23T305 -12Q227 -12 162 14V-220H92V791H162V499Q226 560 323 560Q430 560 494 495ZM389 44T437 106T486 285Q486 400 445 452T323 504Q231 504
162 430V74Q222 44 305 44Q389 44 437 106Z" />
<glyph unicode="&#xff;" glyph-name="ydieresis" horiz-adv-x="485" d="M474 550L261 -42Q233 -121 191 -157T83 -194Q45 -194 23 -183T1 -152Q1 -132 18 -120Q28 -127 48 -132T89 -137Q130 -137 159 -101T210 9L14 550H86L245 107L402 550H474ZM93 639T93 684V693Q93
738 138 738H146Q191 738 191 693V684Q191 639 146 639H138Q93 639 93 684ZM297 639T297 684V693Q297 738 342 738H350Q395 738 395 693V684Q395 639 350 639H342Q297 639 297 684Z" />
<glyph unicode="&#x2013;" glyph-name="endash" horiz-adv-x="623" d="M50 337H573V277H50V337Z" />
<glyph unicode="&#x2014;" glyph-name="emdash" horiz-adv-x="1100" d="M50 337H1050V277H50V337Z" />
<glyph unicode="&#x2018;" glyph-name="quoteleft" horiz-adv-x="243" d="M144 625T155 613T166 581V570Q166 550 155 538T124 526H112Q92 526 80 538T68 573V584Q68 619 80 654T110 718Q136 758 154 758Q170 758 182 748Q155 715 140 687T120 625H125Q144 625 155 613Z" />
<glyph unicode="&#x2019;" glyph-name="quoteright" horiz-adv-x="243" d="M158 758T170 746T182 711V700Q182 665 170 630T140 566Q114 526 96 526Q80 526 68 536Q95 569 110 597T130 659H125Q106 659 95 671T84 703V714Q84 734 95 746T126 758H138Q158 758 170 746Z" />
<glyph unicode="&#x201a;" glyph-name="quotesinglbase" horiz-adv-x="250" d="M158 99T170 87T182 52V41Q182 6 170 -29T140 -93Q114 -133 96 -133Q80 -133 68 -123Q95 -90 110 -62T130 0H125Q106 0 95 12T84 44V55Q84 75 95 87T126 99H138Q158 99 170 87Z" />
<glyph unicode="&#x201c;" glyph-name="quotedblleft" horiz-adv-x="400" d="M170 758T182 748Q155 715 140 687T120 625H125Q144 625 155 613T166 581V570Q166 550 155 538T124 526H112Q92 526 80 538T68 573V584Q68 619 80 654T110 718Q136 758 154 758Q170
758 182 748ZM294 625T305 613T316 581V570Q316 550 305 538T274 526H262Q242 526 230 538T218 573V584Q218 619 230 654T260 718Q286 758 304 758Q320 758 332 748Q305 715 290 687T270 625H275Q294 625 305 613Z" />
<glyph unicode="&#x201d;" glyph-name="quotedblright" horiz-adv-x="400" d="M308 758T320 746T332 711V700Q332 665 320 630T290 566Q264 526 246 526Q230 526 218 536Q245 569 260 597T280 659H275Q256 659 245 671T234 703V714Q234 734 245 746T276 758H288Q308
758 320 746ZM158 758T170 746T182 711V700Q182 665 170 630T140 566Q114 526 96 526Q80 526 68 536Q95 569 110 597T130 659H125Q106 659 95 671T84 703V714Q84 734 95 746T126 758H138Q158 758 170 746Z" />
<glyph unicode="&#x201e;" glyph-name="quotedblbase" horiz-adv-x="400" d="M308 99T320 87T332 52V41Q332 6 320 -29T290 -93Q264 -133 246 -133Q230 -133 218 -123Q245 -90 260 -62T280 0H275Q256 0 245 12T234 44V55Q234 75 245 87T276 99H288Q308 99 320
87ZM158 99T170 87T182 52V41Q182 6 170 -29T140 -93Q114 -133 96 -133Q80 -133 68 -123Q95 -90 110 -62T130 0H125Q106 0 95 12T84 44V55Q84 75 95 87T126 99H138Q158 99 170 87Z" />
<glyph unicode="&#x2022;" glyph-name="bullet" horiz-adv-x="560" d="M228 197T187 220T123 284T100 377Q100 429 123 470T187 534T280 557Q332 557 373 534T437 470T460 377Q460 325 437 284T373 220T280 197Q228 197 187 220Z" />
<glyph unicode="&#x2039;" glyph-name="guilsinglleft" horiz-adv-x="340" d="M70 288L198 452H260L141 288L260 117H198L70 288Z" />
<glyph unicode="&#x203a;" glyph-name="guilsinglright" horiz-adv-x="340" d="M80 117L199 288L80 452H142L270 288L142 117H80Z" />
</font>
</defs>
</svg>
