<?xml version="1.0" standalone="no"?>
<!DOCTYPE svg PUBLIC "-//W3C//DTD SVG 1.1//EN" "http://www.w3.org/Graphics/SVG/1.1/DTD/svg11.dtd">
<svg xmlns="http://www.w3.org/2000/svg">
<defs >
<font id="AdventPro" horiz-adv-x="412" ><font-face
    font-family="Advent Pro"
    units-per-em="1000"
    panose-1="0 0 0 0 0 0 0 0 0 0"
    ascent="964"
    descent="-232"
    alphabetic="0" />
<glyph unicode=" " horiz-adv-x="280" />
<glyph unicode="!" horiz-adv-x="148" d="M40 673L50 121H98L107 674Q107 692 99 701T73 710Q57 710 49 702T40 673ZM73 67Q60 67 50 58T40 34Q40 21 50 11T73 0Q87 0 97 10T107 34Q107 48 97 57T73 67Z" />
<glyph unicode="&quot;" horiz-adv-x="267" d="M167 703L181 588H221L235 703Q235 721 225 729T201 738T178 730T167 703ZM31 703L45 588H84L100 703Q100 721 90 729T66 738T42 730T31 703Z" />
<glyph unicode="#" horiz-adv-x="611" d="M392 244L432 414H579V471H444L499 700H444L390 471H272L325 700H270L217 471H30V414H203L164 244H30V190H151L107 0H162L206 190H324L280 0H335L379 190H579V244H392ZM338 244H219L258 414H377L338 244Z" />
<glyph unicode="$" horiz-adv-x="530" d="M249 -114H305V818H249V-114ZM422 624L438 672Q415 685 390 693T338 705T285 709Q245 709 205 700T133 671T81 618T61 538Q61 499 77 470T120 420T181 383T251 352T320 323T381 290T424 247T440 188Q440 148 426 120T386
75T328 50T260 42Q226 42 188 51T116 80T61 127L26 92Q57 56 94 33T174 -1T264 -12Q309 -12 351 -1T427 33T480 93T500 180Q500 226 484 259T441 316T380 357T310 389T240 417T179 448T136 488T119 543Q119 576 135 598T176 632T230 650T286 655Q310 655 333 652T379
642T422 624Z" />
<glyph unicode="%" horiz-adv-x="713" d="M48 0H116L651 700H587L48 0ZM176 714Q136 714 103 695T49 642T29 568Q29 528 49 495T102 442T176 422Q216 422 249 442T301 495T321 568Q321 609 302 642T249 694T176 714ZM176 663Q202 663 223 650T257 616T270 568Q270
543 257 522T223 487T176 474Q150 474 128 487T93 521T80 568Q80 594 93 615T128 650T176 663ZM536 277Q497 277 464 258T411 205T391 132Q391 92 411 59T464 6T536 -14Q577 -14 609 5T661 58T681 132Q681 172 662 205T610 257T536 277ZM536 227Q563 227 584 215T618
181T631 132Q631 106 619 84T585 50T536 37Q511 37 490 49T455 84T442 132Q442 159 455 180T489 214T536 227Z" />
<glyph unicode="&amp;" horiz-adv-x="529" d="M379 653L404 704H239Q193 704 161 684T112 629T97 548Q98 528 104 502T127 449T174 403H155Q128 403 105 395T65 368T39 322T30 255V160Q30 126 38 99T61 53T98 20T147 1T208 -6Q230 -6 258 1T315 23T363 62Q374
35 397 19T455 -9L468 34Q434 46 417 71T399 137V350H476L499 404H399V507H346V403H296Q266 403 240 414T195 444T164 489T153 545Q153 593 176 623T242 653H379ZM346 350V177Q346 142 331 115T288 71T219 50Q176 46 147 59T102 99T86 165V252Q86 287 96 306T122
335T155 347T185 350H346Z" />
<glyph unicode="&apos;" horiz-adv-x="267" d="M100 704L113 589H153L167 704Q167 722 157 730T134 739T110 731T100 704Z" />
<glyph unicode="(" horiz-adv-x="182" d="M165 780L147 818Q112 799 88 774T53 713T41 627V70Q41 22 50 -8T74 -58T109 -92T147 -120L165 -81Q148 -69 135 -54T114 -21T102 17T98 62V637Q98 660 102 680T114 719T135 753T165 780Z" />
<glyph unicode=")" horiz-adv-x="182" d="M18 780L36 818Q63 803 82 786T115 746T135 694T142 627V70Q142 22 133 -8T109 -58T74 -92T36 -120L18 -81Q35 -69 48 -54T69 -21T81 17T85 62V637Q85 660 81 680T69 719T48 753T18 780Z" />
<glyph unicode="*" horiz-adv-x="353" d="M41 627L23 579L130 541L64 451L110 419L175 516L244 419L285 451L219 541L328 579L307 627L200 587V700H146V587L41 627Z" />
<glyph unicode="+" horiz-adv-x="379" d="M217 530H162V398H28V343H162V210H217V343H348V398H217V530Z" />
<glyph unicode="," horiz-adv-x="267" d="M99 -85L116 -98Q123 -91 132 -80T149 -54T163 -20T169 23Q168 38 159 47T135 56Q121 56 112 47T102 23Q102 11 110 2T130 -10Q128 -26 122 -45T99 -85Z" />
<glyph unicode="-" horiz-adv-x="392" d="M34 356H354V414H34V356Z" />
<glyph unicode="." horiz-adv-x="137" d="M68 57Q55 57 45 48T35 24Q35 11 45 1T68 -9Q82 -9 92 1T103 24Q103 38 93 47T68 57Z" />
<glyph unicode="/" horiz-adv-x="416" d="M18 -114H75L400 818H338L18 -114Z" />
<glyph unicode="0" horiz-adv-x="492" d="M34 508V186Q34 121 62 77T139 11T246 -11Q308 -11 355 13T429 81T456 186V507Q456 605 401 660T247 716Q148 716 91 663T34 508ZM91 187V517Q91 566 110 598T163 646T244 663Q292 663 327 647T381 598T400 517V187Q400
138 380 106T325 58T244 42Q200 42 166 58T111 107T91 187Z" />
<glyph unicode="1" horiz-adv-x="236" d="M13 622L27 583Q40 585 55 590T87 603T117 619T140 634V0H193V700H139Q123 679 101 664T59 640T25 627T13 622Z" />
<glyph unicode="2" horiz-adv-x="413" d="M42 590L95 571Q106 601 123 619T162 647T207 656Q236 656 261 643T303 604T319 541Q319 526 316 512T304 478T275 426L29 53V0H379V53H95L323 395Q356 448 367 484T378 551Q378 602 353 637T290 692T208 710Q175 710
143 697T84 658T42 590Z" />
<glyph unicode="3" horiz-adv-x="443" d="M203 414H201L360 651V700H70V643H292L99 356H210Q253 356 286 334T339 277T359 200Q359 157 338 122T282 65T203 44Q161 44 128 61T72 113L26 82Q55 39 102 14T203 -12Q248 -12 286 4T354 49T399 116T415 200Q415 260
387 308T311 385T203 414Z" />
<glyph unicode="4" horiz-adv-x="489" d="M332 0H389V356H441L462 414H389V700H332V414H113L269 700H210L16 356H332V0Z" />
<glyph unicode="5" horiz-adv-x="440" d="M117 412L141 643H357V700H92L54 356H170Q231 356 272 336T334 280T356 201Q356 165 343 137T308 87T257 55T199 44Q166 44 139 51T92 67T60 83T49 89L28 42Q28 43 41 35T78 16T134 -3T202 -12Q252 -12 291 6T357 55T398
123T412 199Q412 272 379 319T291 389T170 412H117Z" />
<glyph unicode="6" horiz-adv-x="484" d="M272 648H311V700H276Q205 700 150 670T63 587T31 462V203Q31 144 60 96T137 19T245 -10Q289 -10 327 6T395 52T441 120T458 203Q458 263 429 311T351 387T242 415Q212 415 185 408T133 385T86 347V455Q86 512 108 555T172
623T272 648ZM245 360Q277 360 305 348T355 314T389 264T402 203Q402 171 390 143T356 92T306 58T245 45Q202 45 166 66T108 124T86 203Q86 235 98 263T133 313T184 347T245 360Z" />
<glyph unicode="7" horiz-adv-x="435" d="M100 0L418 645V700H26V643H355L37 0H100Z" />
<glyph unicode="8" horiz-adv-x="483" d="M241 709Q192 709 153 686T90 622T66 533Q66 505 74 478T100 428T141 389Q107 372 81 343T41 277T27 201Q27 142 55 94T132 17T240 -12Q300 -12 348 16T425 93T454 201Q454 241 440 276T400 340T340 388Q379 415 397 450T416
533Q416 583 393 623T331 686T241 709ZM240 412Q207 412 180 429T136 474T119 534Q119 568 135 595T179 639T240 656Q274 656 301 640T344 596T361 534Q361 501 345 473T302 429T240 412ZM240 44Q197 44 162 65T105 122T83 201Q83 233 95 261T129 311T179 345T240
357Q285 357 320 337T376 281T397 201Q397 158 376 123T320 66T240 44Z" />
<glyph unicode="9" horiz-adv-x="482" d="M236 709Q191 709 153 693T85 648T40 581T23 497Q23 436 52 388T130 313T239 285Q270 285 297 293T348 316T393 353V246Q393 190 371 147T307 79T208 54H170V-1H205Q276 -1 331 29T417 114T449 239V497Q449 557 421 605T344
681T236 709ZM236 654Q280 654 315 633T372 577T393 497Q393 464 381 436T348 386T298 352T236 340Q204 340 176 352T126 385T92 435T79 497Q79 530 91 558T125 608T175 642T236 654Z" />
<glyph unicode=":" horiz-adv-x="144" d="M104 144Q104 158 94 167T70 177Q57 177 47 168T36 144Q36 130 46 121T70 111Q84 111 94 120T104 144ZM104 385Q104 399 94 408T70 418Q57 418 47 409T36 385Q36 372 46 362T70 352Q84 352 94 362T104 385Z" />
<glyph unicode=";" horiz-adv-x="150" d="M38 35L55 23Q63 29 72 40T89 66T103 100T109 144Q108 159 98 168T74 177Q61 177 51 168T41 144Q41 132 49 123T69 111Q68 95 62 75T38 35ZM111 385Q111 399 101 408T77 418Q64 418 54 409T43 385Q43 372 53 362T77 352Q91
352 101 362T111 385Z" />
<glyph unicode="&lt;" horiz-adv-x="375" d="M25 359L303 79L342 119L102 357L342 599L303 637L25 359Z" />
<glyph unicode="=" horiz-adv-x="391" d="M34 357H354V412H34V357ZM34 253H354V308H34V253Z" />
<glyph unicode="&gt;" horiz-adv-x="375" d="M30 599L270 357L30 119L68 79L346 359L68 637L30 599Z" />
<glyph unicode="?" horiz-adv-x="405" d="M25 532H82Q82 564 92 588T120 627T159 649T204 656Q233 655 260 642T304 602T321 535Q321 502 310 478T280 432T243 389Q229 373 215 356T190 318T173 271T166 212V120H217V207Q217 238 223 261T240 301T265 334T294
366Q315 391 334 417T364 474T376 538Q376 578 362 609T323 663T268 697T204 709Q171 709 139 699T82 667T41 612T25 532ZM193 57Q179 57 169 48T158 24Q158 11 168 1T193 -9Q206 -9 216 1T226 24Q226 38 216 47T193 57Z" />
<glyph unicode="@" horiz-adv-x="719" d="M690 452L675 493Q647 485 631 468T608 425T601 364V163Q601 115 580 82T523 28T442 -1T349 -11Q292 -11 245 0T164 35T111 97T92 190V342Q92 389 106 424T148 483T210 519T288 531Q359 531 405 508T464 443H297Q269 443
244 436T199 410T168 363T156 289V234Q156 178 172 143T217 90T279 66T349 61Q363 61 384 62T428 64T471 66T503 68T516 69V389H566L579 443H512Q506 471 490 495T447 539T379 568T285 579Q224 579 177 562T98 512T49 436T32 339V184Q32 119 58 72T128 -5T227 -51T341
-66Q402 -66 458 -53T560 -11T631 63T657 171V381Q657 400 660 414T671 437T690 452ZM294 389H465V120Q465 120 454 119T424 117T380 114T329 112Q269 112 239 142T209 228V286Q209 335 224 356T259 383T294 389Z" />
<glyph unicode="A" horiz-adv-x="547" d="M527 0L299 700H246L21 0H81L160 245H387L468 0H527ZM175 300L272 614L372 300H175Z" />
<glyph unicode="B" horiz-adv-x="505" d="M262 700H41V0H272Q339 0 384 25T452 97T476 209Q476 257 462 293T424 355T371 393Q393 408 408 428T431 474T439 530Q439 588 418 625T358 681T262 700ZM261 412H98V647H254Q296 647 324 634T366 595T380 530Q380 495
367 468T328 427T261 412ZM270 53H98V357H286Q328 357 357 338T400 285T415 213Q415 160 399 124T350 71T270 53Z" />
<glyph unicode="C" horiz-adv-x="423" d="M354 639L371 677Q340 694 304 702T229 710Q174 710 130 689T60 624T34 510V184Q34 117 58 74T127 11T235 -10Q273 -10 313 -2T396 23L384 69Q356 60 330 54T282 44T239 40Q189 40 156 54T107 101T91 186V514Q91 567 109
599T163 645T247 660Q273 660 299 655T354 639Z" />
<glyph unicode="D" horiz-adv-x="497" d="M230 700H41V0H250Q321 0 368 22T438 89T462 200V475Q462 543 436 593T358 672T230 700ZM233 50H98V650H240Q299 650 335 628T388 570T405 490V190Q405 156 395 130T363 86T309 59T233 50Z" />
<glyph unicode="E" horiz-adv-x="406" d="M41 0H373V50H98V357H270L288 412H98V648H375V700H41V0Z" />
<glyph unicode="F" horiz-adv-x="391" d="M375 700H41V0H98V357H266L289 412H98V647H375V700Z" />
<glyph unicode="G" horiz-adv-x="479" d="M354 638L371 676Q350 687 327 694T280 705T229 709Q166 709 123 685T57 614T34 504V189Q34 124 58 80T125 13T225 -10Q258 -10 289 -3T346 18T391 51L395 0H446V300H244L264 245H393V187Q393 154 380 128T344 83T290
54T223 44Q180 44 151 61T106 110T91 187V512Q91 564 109 596T163 644T248 659Q265 659 282 657T318 651T354 638Z" />
<glyph unicode="H" horiz-adv-x="515" d="M415 412H98V700H41V0H98V357H415V0H472V700H415V412Z" />
<glyph unicode="I" horiz-adv-x="187" d="M20 651L88 649V0H144V700H20V651Z" />
<glyph unicode="J" horiz-adv-x="207" d="M166 119V700H42V651L109 649V114Q109 75 98 50T68 12T27 0L40 -37Q75 -37 99 -25T138 10T159 60T166 119Z" />
<glyph unicode="K" horiz-adv-x="459" d="M98 367V700H41V0H98V269L145 345L371 0H438L182 398L386 700H321L98 367Z" />
<glyph unicode="L" horiz-adv-x="424" d="M41 0H402V50H98V700H41V0Z" />
<glyph unicode="M" horiz-adv-x="621" d="M98 700H41V0H98V535L278 0H339L522 535V0H578V700H522L308 86L98 700Z" />
<glyph unicode="N" horiz-adv-x="577" d="M534 700H478V103L98 700H41V0H98V597L478 0H534V700Z" />
<glyph unicode="O" horiz-adv-x="492" d="M34 508V186Q34 121 62 77T139 11T246 -11Q308 -11 355 13T429 81T456 186V507Q456 605 401 660T247 716Q148 716 91 663T34 508ZM91 187V517Q91 566 110 598T163 646T244 663Q292 663 327 647T381 598T400 517V187Q400
138 380 106T325 58T244 42Q200 42 166 58T111 107T91 187Z" />
<glyph unicode="P" horiz-adv-x="506" d="M277 700H41V0H98V245H277Q327 245 364 257T426 297T463 368T476 474Q476 538 463 581T425 651T362 688T277 700ZM98 300V647H282Q311 647 336 640T379 614T408 561T419 474Q419 417 409 382T379 330T336 306T282 300H98Z" />
<glyph unicode="Q" horiz-adv-x="492" d="M271 50V174H215V51Q215 9 226 -21T259 -71T314 -99T390 -108L396 -61Q366 -61 343 -56T304 -37T280 -3T271 50ZM34 508V186Q34 121 62 77T139 11T246 -11Q308 -11 355 13T429 81T456 186V507Q456 605 401 660T247 716Q148
716 91 663T34 508ZM91 187V517Q91 566 110 598T163 646T244 663Q292 663 327 647T381 598T400 517V187Q400 138 380 106T325 58T244 42Q200 42 166 58T111 107T91 187Z" />
<glyph unicode="R" horiz-adv-x="510" d="M277 700H41V0H98V245H277Q287 245 296 245T315 247T332 250L423 0H480L383 265Q415 281 435 308T466 376T476 474Q476 538 463 581T425 651T362 688T277 700ZM282 300H98V647H282Q311 647 336 640T379 614T408 561T419
474Q419 417 409 382T379 330T336 306T282 300Z" />
<glyph unicode="S" horiz-adv-x="530" d="M421 624L437 672Q414 685 389 693T337 705T284 709Q243 709 204 700T132 671T80 618T60 538Q60 499 76 470T119 420T180 383T249 352T319 323T380 290T423 247T439 188Q439 148 425 120T385 75T327 50T259 42Q225 42
187 51T115 80T60 127L25 92Q56 56 93 33T173 -1T263 -12Q307 -12 349 -1T425 33T479 93T499 180Q499 226 483 259T440 316T379 357T309 389T239 417T178 448T134 488T118 543Q118 576 133 598T174 632T229 650T285 655Q309 655 332 652T378 642T421 624Z" />
<glyph unicode="T" horiz-adv-x="417" d="M233 650H409V700H7V650H178V0H233V650Z" />
<glyph unicode="U" horiz-adv-x="498" d="M458 186V700H402V187Q402 139 383 107T329 58T248 42Q202 42 168 58T114 107T94 187V700H38V186Q38 121 64 77T139 11T249 -11Q311 -11 358 11T431 78T458 186Z" />
<glyph unicode="V" horiz-adv-x="511" d="M15 700L216 0H293L493 700H433L254 69L75 700H15Z" />
<glyph unicode="W" horiz-adv-x="733" d="M405 700H327L220 69L78 700H17L183 0H268L367 599L466 0H550L713 700H654L513 69L405 700Z" />
<glyph unicode="X" horiz-adv-x="556" d="M279 406L107 700H43L246 352L25 0H94L279 294L463 0H532L313 352L516 700H454L279 406Z" />
<glyph unicode="Y" horiz-adv-x="515" d="M474 156V700H417V423Q417 389 402 365T363 327T309 307T250 300Q199 300 162 317T106 368T86 453V700H30V455Q30 391 54 344T124 271T238 245Q270 245 304 251T368 271T417 306V153Q417 128 414 108T403 73T384 47T356
30L369 -7Q419 0 446 41T474 156Z" />
<glyph unicode="Z" horiz-adv-x="547" d="M40 700V651L438 650L421 626L28 49V0H515V49L98 50L115 73L508 651V700H40Z" />
<glyph unicode="[" horiz-adv-x="223" d="M99 762L204 772V818H42V-114H204V-69L99 -59V762Z" />
<glyph unicode="\" horiz-adv-x="414" d="M336 -114H397L72 818H16L336 -114Z" />
<glyph unicode="]" horiz-adv-x="225" d="M20 -114H182V818H20V772L126 762V-59L20 -69V-114Z" />
<glyph unicode="^" horiz-adv-x="267" d="M264 772L136 900L3 771L42 732L136 824L225 735L264 772Z" />
<glyph unicode="_" horiz-adv-x="384" d="M33 -56H353V0H33V-56Z" />
<glyph unicode="`" horiz-adv-x="267" d="M114 717Q111 727 104 733T88 741T69 737Q61 733 58 725T56 707T63 689L117 610H153L114 717Z" />
<glyph unicode="a" horiz-adv-x="447" d="M355 350Q332 364 304 376T244 395T180 403Q150 403 123 395T73 370T39 323T26 252V169Q26 114 43 78T91 23T163 -4T253 -10Q268 -10 288 -9T330 -7T370 -4T400 -1T411 0V288Q411 350 401 392T368 460T304 497T203 509L201
466Q231 466 259 462T308 445T342 410T355 350ZM355 303V46Q355 46 351 46T337 45T315 43T286 40T249 38Q199 36 166 43T115 68T89 113T81 176V250Q81 284 90 305T115 336T146 351T175 355Q207 355 238 348T299 329T355 303Z" />
<glyph unicode="b" horiz-adv-x="457" d="M98 473V700H41V0Q40 0 51 -1T82 -3T122 -6T164 -9T199 -10Q247 -11 288 -4T361 22T409 78T426 169V359Q426 401 412 430T373 476T320 502T260 510Q227 510 199 505T146 492T98 473ZM98 45V423Q125 435 151 444T204 458T264
463Q278 463 296 459T331 444T360 412T371 355V176Q371 140 364 114T338 70T287 45T204 38Q180 39 160 40T127 42T106 44T98 45Z" />
<glyph unicode="c" horiz-adv-x="381" d="M335 433L349 478Q318 492 284 501T215 510Q153 510 112 486T50 419T29 319V174Q29 110 52 70T119 10T219 -11Q252 -12 286 -8T351 5L340 55Q341 55 331 53T304 48T265 43T221 41Q185 42 159 50T116 76T92 120T84 186L85
311Q86 354 99 387T141 440T217 459Q246 458 277 452T335 433Z" />
<glyph unicode="d" horiz-adv-x="458" d="M414 0V700H359V473Q325 488 285 499T196 510Q166 510 137 502T83 477T44 430T29 359V169Q29 114 46 78T95 23T168 -4T258 -10Q272 -10 292 -9T333 -7T373 -4T403 -1T414 0ZM359 423V46Q359 46 354 46T340 44T318 42T289
40T253 38Q203 37 171 44T119 69T92 113T84 176V355Q84 390 96 411T125 444T161 459T192 463Q240 463 279 452T359 423Z" />
<glyph unicode="e" horiz-adv-x="422" d="M87 134V196L392 212V342Q392 398 371 435T310 491T216 510Q163 510 121 491T55 434T31 339V134Q31 92 43 64T79 19T134 -5T204 -12Q242 -12 286 0T367 35L345 78Q308 59 272 48T199 36Q175 36 155 41T119 58T96 88T87
134ZM336 349V262L87 251V338Q87 378 102 406T147 448T215 463Q250 463 277 449T320 410T336 349Z" />
<glyph unicode="f" horiz-adv-x="249" d="M215 658L224 707Q219 709 213 709T201 710T188 710Q164 710 138 703T90 677T53 628T39 550V0H96V447H187L210 500H96V550Q96 577 102 598T119 632T148 653T189 660Q195 660 201 660T215 658Z" />
<glyph unicode="g" horiz-adv-x="441" d="M401 -64V500H344V453Q322 471 299 483T251 502T202 510Q147 513 109 494T51 437T31 346V176Q31 85 75 37T203 -12Q226 -12 247 -7T288 9T321 32T344 61V-63Q344 -83 340 -99T327 -129T307 -151T277 -168L293 -211Q331
-199 355 -180T390 -133T401 -64ZM344 393V174Q344 142 334 117T304 75T260 49T206 40Q168 40 142 54T101 96T87 167V343Q87 377 98 400T127 437T168 456T214 460Q230 459 248 454T284 441T318 420T344 393Z" />
<glyph unicode="h" horiz-adv-x="444" d="M98 467V700H41V0H98V425Q119 437 139 444T181 456T226 460Q250 460 273 455T314 436T344 400T355 343V0H411V346Q411 378 404 404T382 449T346 482T298 503T237 510Q212 510 188 505T140 490T98 467Z" />
<glyph unicode="i" horiz-adv-x="133" d="M38 0H95V501H38V0ZM67 710Q54 710 44 700T33 676Q33 663 43 653T67 643Q81 643 91 653T101 676Q101 690 91 700T67 710Z" />
<glyph unicode="j" horiz-adv-x="200" d="M150 -63V501H29V449H94V-62Q94 -86 87 -106T66 -142T27 -167L43 -210Q81 -197 104 -179T139 -132T150 -63ZM158 676Q158 690 148 699T124 709Q110 709 100 700T89 676Q89 663 99 653T124 643Q138 643 148 653T158 676Z" />
<glyph unicode="k" horiz-adv-x="427" d="M190 352L338 482L298 520L98 335V700H41V0H98V273L150 317L341 0H408L190 352Z" />
<glyph unicode="l" horiz-adv-x="140" d="M41 0H97V700H41V0Z" />
<glyph unicode="m" horiz-adv-x="717" d="M628 342V0H681V344Q681 384 671 415T641 467T590 498T517 509Q489 509 461 502T407 483T359 453Q346 471 327 483T282 502T224 509Q199 509 177 504T135 489T95 466V500H38V0H95V423Q116 435 134 443T171 455T214 459Q238
459 260 454T298 435T325 399T335 342V0H387V344Q387 365 385 383T376 418Q400 433 422 442T466 455T507 459Q531 459 552 454T591 435T618 399T628 342Z" />
<glyph unicode="n" horiz-adv-x="443" d="M352 342V0H407V345Q407 377 400 402T378 448T342 482T294 503T233 510Q208 510 184 505T137 490T95 467V501H38V0H95V425Q116 437 136 444T177 456T222 460Q246 460 269 454T311 435T341 399T352 342Z" />
<glyph unicode="o" horiz-adv-x="430" d="M399 185V316Q399 408 352 460T216 512Q157 512 115 490T51 424T29 316V185Q29 131 50 87T113 17T218 -10Q309 -10 354 43T399 185ZM343 316V175Q343 134 330 104T288 57T218 40Q178 40 148 57T102 104T85 175V316Q85
364 100 396T144 445T218 462Q262 462 289 446T330 397T343 316Z" />
<glyph unicode="p" horiz-adv-x="442" d="M409 176V346Q409 399 390 436T333 493T239 510Q215 509 191 503T143 484T97 453V500H39V-188L97 -212V61Q109 41 130 24T180 -2T239 -12Q322 -12 365 36T409 176ZM352 343V167Q352 124 339 96T300 54T236 40Q207 40 182
49T138 75T108 117T97 174V393Q112 414 134 428T180 450T227 460Q251 462 273 457T313 438T341 401T352 343Z" />
<glyph unicode="q" horiz-adv-x="441" d="M344 62V-189L401 -212V500H344V454Q322 472 299 484T251 503T202 511Q147 514 109 495T51 438T31 346V177Q31 116 50 74T108 11T203 -11Q233 -11 261 -2T311 25T344 62ZM344 394V174Q344 142 334 117T304 75T260 50T206
41Q168 41 142 55T101 98T87 168V344Q87 378 98 401T127 438T168 457T214 461Q230 460 248 455T285 442T318 422T344 394Z" />
<glyph unicode="r" horiz-adv-x="333" d="M306 461L310 509Q310 509 297 511T265 512Q211 509 172 497T95 468V501H38V0H95V409Q109 418 129 427T172 444T219 456T264 462Q281 463 293 462T306 461Z" />
<glyph unicode="s" horiz-adv-x="417" d="M323 439L346 477Q322 492 299 499T255 509T214 512Q184 512 155 504T103 480T65 440T51 384Q51 351 66 328T107 287T162 257T223 232T279 206T319 172T335 125Q335 101 324 84T294 56T254 39T214 34Q183 34 156 41T104
64T57 101L26 68Q61 28 111 5T214 -18Q246 -18 276 -9T332 18T372 63T387 126Q387 163 372 188T331 232T276 263T215 288T160 313T120 344T104 386Q104 407 115 422T144 446T183 460T225 465Q242 465 259 462T293 454T323 439Z" />
<glyph unicode="t" horiz-adv-x="241" d="M95 132V448H192L216 500H95V700H39V132Q39 74 64 39T144 -13L161 30Q139 38 125 51T103 85T95 132Z" />
<glyph unicode="u" horiz-adv-x="445" d="M349 48V0H405V501H349V173Q349 146 339 123T311 82T267 54T212 44Q174 44 147 56T106 97T92 171V501H35V157Q35 123 42 96T64 49T100 16T149 -3T210 -10Q235 -10 261 -4T310 16T349 48Z" />
<glyph unicode="v" horiz-adv-x="428" d="M19 501L172 0H249L404 501H345L212 58L77 501H19Z" />
<glyph unicode="w" horiz-adv-x="708" d="M381 499H324L212 57L77 499H19L171 0H249L351 405L451 0H528L684 499H625L491 57L381 499Z" />
<glyph unicode="x" horiz-adv-x="437" d="M220 300L95 500H30L187 249L30 0H97L220 198L342 0H408L252 249L408 500H346L220 300Z" />
<glyph unicode="y" horiz-adv-x="469" d="M438 470L418 512Q395 504 380 489T357 453T349 409V174Q349 148 339 125T312 83T272 55T222 44Q199 44 176 49T134 68T104 104T92 162V501H35V158Q35 115 46 84T80 32T135 1T210 -9Q235 -9 261 -3T310 17T349 50V-61Q349
-79 346 -95T334 -125T314 -149T284 -166L300 -209Q338 -196 361 -178T394 -132T405 -62V408Q405 440 415 452T438 470Z" />
<glyph unicode="z" horiz-adv-x="428" d="M378 501H40V452L306 451L31 50V0H399V50L101 51L378 452V501Z" />
<glyph unicode="{" horiz-adv-x="258" d="M163 517V630Q163 657 168 678T181 715T199 742T219 761T238 774L216 823Q215 822 204 817T176 801T144 768T117 713T106 630V517Q106 496 103 476T95 436Q89 417 75 398T36 361L25 353L36 345Q60 327 74 309T95 270Q100
251 103 231T106 190V76Q106 28 116 -5T143 -60T175 -94T203 -112T216 -118L239 -67Q230 -62 220 -55T199 -36T181 -9T168 28T163 76V190Q163 211 161 231T153 273Q143 314 96 353Q119 373 133 393T153 433Q158 454 160 475T163 517Z" />
<glyph unicode="|" horiz-adv-x="141" d="M42 -114H98V818H42V-114Z" />
<glyph unicode="}" horiz-adv-x="263" d="M43 823L21 774Q30 769 40 762T60 743T78 715T92 678T97 630V517Q97 489 101 461T119 406T163 353Q133 327 119 300T101 246T97 190V76Q97 49 92 29T79 -8T60 -35T39 -54T20 -67L42 -118Q44 -117 55 -112T83 -95T115 -61T142
-6T153 76V190Q153 218 157 244T176 295T223 345L234 353L223 361Q191 386 176 411T157 462T153 517V630Q153 678 143 711T116 767T84 801T56 817T43 823Z" />
<glyph unicode="~" horiz-adv-x="267" d="M289 306L264 347Q252 334 237 327T203 318Q180 318 157 327T111 345T61 354Q42 354 22 345T-21 313L2 272Q20 289 36 295T69 299Q92 298 114 290T159 273T205 263Q224 262 245 271T289 306Z" />
<glyph unicode="&#xa0;" horiz-adv-x="280" />
<glyph unicode="&#xa1;" horiz-adv-x="148" d="M107 36L98 590H50L40 37Q40 18 48 9T73 0Q90 0 98 9T107 36ZM107 676Q107 690 97 699T73 709Q60 709 50 700T39 676Q39 663 49 653T73 643Q87 643 97 653T107 676Z" />
<glyph unicode="&#xa2;" horiz-adv-x="381" d="M189 -114H245V623H189V-114ZM335 433L349 478Q318 492 284 501T215 510Q153 510 112 486T50 419T29 319V174Q29 110 52 70T119 10T219 -11Q252 -12 286 -8T351 5L340 55Q341 55 331 53T304 48T265 43T221 41Q185
42 159 50T116 76T92 120T84 186L85 311Q86 354 99 387T141 440T217 459Q246 458 277 452T335 433Z" />
<glyph unicode="&#xa3;" horiz-adv-x="428" d="M114 53H34V0H393V53H271Q304 73 323 113T342 191Q342 226 329 260T290 325L278 340H393V397H227L177 455Q164 470 151 489T130 529T123 571Q124 594 135 612T167 641T213 656Q244 660 277 651T342 622L361 671Q339
683 316 691T268 704T220 708Q189 708 161 699T111 671T77 628T64 570Q63 530 83 493T135 420L155 397H34V340H206L248 292Q262 276 271 259T284 225T287 190Q286 156 271 130T231 87T176 62T114 53Z" />
<glyph unicode="&#xa4;" horiz-adv-x="467" d="M351 366L433 450L398 485L315 401Q299 415 278 422T233 429Q209 429 188 422T148 401L66 485L31 450L113 366Q100 350 94 329T87 284Q87 260 94 239T114 200L31 118L66 81L149 165Q166 152 187 145T233 138Q256
138 276 145T315 165L398 81L433 118L351 200Q363 217 370 238T377 284Q377 307 370 328T351 366ZM233 189Q207 189 185 201T151 236T138 284Q138 310 150 331T185 364T233 377Q259 377 280 365T313 331T326 284Q326 258 314 236T280 202T233 189Z" />
<glyph unicode="&#xa5;" horiz-adv-x="516" d="M286 342L495 700H430L257 406L85 700H22L230 340V0H286V342ZM98 198H418V253H98V198ZM98 94H418V149H98V94Z" />
<glyph unicode="&#xa7;" horiz-adv-x="435" d="M323 626L346 664Q321 679 299 686T255 696T214 699Q184 699 155 691T103 667T65 627T51 571Q51 540 64 518T100 479Q77 463 64 439T51 384Q51 351 66 328T107 287T162 257T223 232T279 206T319 172T335 125Q335
101 324 84T294 56T254 39T214 34Q183 34 156 41T104 64T57 101L26 68Q61 28 111 5T214 -18Q246 -18 276 -9T332 18T372 63T387 126Q387 156 376 178T348 218Q366 236 376 259T387 313Q387 350 372 375T331 419T276 450T215 475T160 500T119 531T104 573Q104 594
115 609T144 633T183 647T225 652Q241 652 259 649T293 641T323 626ZM303 250Q278 264 251 275T197 296T150 319T117 348T104 386Q104 401 110 413T126 434T151 450Q175 438 201 428T251 407T294 383T324 352T335 312Q335 292 326 277T303 250Z" />
<glyph unicode="&#xa8;" horiz-adv-x="267" d="M54 742Q41 742 31 732T21 708Q21 695 31 685T54 675Q68 675 78 685T88 708Q88 722 78 732T54 742ZM213 742Q199 742 190 732T180 708Q180 695 189 685T213 675Q227 675 236 685T246 708Q246 722 237 732T213 742Z" />
<glyph unicode="&#xa9;" horiz-adv-x="696" d="M664 188V327Q664 391 641 439T575 519T474 568T347 584Q278 584 221 568T121 520T55 439T31 327V188Q31 124 54 76T120 -5T220 -53T347 -69Q416 -69 474 -53T574 -5T640 75T664 188ZM605 302V212Q605 151 590 108T542
37T462 -2T347 -15Q281 -15 233 -3T154 37T107 107T91 212V302Q91 364 106 407T153 478T233 517T347 530Q413 530 461 518T542 478T589 408T605 302ZM487 384L503 421Q472 438 435 446T360 455Q311 455 274 439T212 394Q190 368 179 332T167 250Q167 194 183 155T232
93Q257 75 290 67T365 58Q404 58 445 66T528 91L512 135Q491 128 472 123T435 115T401 111T370 109Q336 109 311 115T267 136Q245 153 235 182T224 255Q224 292 233 319T261 365Q281 385 310 395T378 405Q391 405 404 404T432 400T460 393T487 384Z" />
<glyph unicode="&#xaa;" horiz-adv-x="329" d="M293 390Q293 407 293 423T293 456T293 489T293 522T293 555Q293 601 282 631T250 678Q237 690 219 696T178 706T128 709L124 666Q152 666 174 663T210 651Q227 641 234 626T241 593Q208 612 180 621T129 631Q95
632 71 618T35 578T23 519Q23 479 34 452T64 410T111 387T172 379Q199 379 229 382T293 390ZM239 543V429Q239 429 226 428T193 425T153 425T119 433Q103 441 92 452T76 478T70 514Q70 540 77 555T96 577T124 584Q148 584 178 573T239 543Z" />
<glyph unicode="&#xab;" horiz-adv-x="530" d="M325 267L473 114L439 79L251 267L439 455L475 417L325 267ZM106 267L253 114L218 79L31 267L218 455L255 417L106 267Z" />
<glyph unicode="&#xad;" horiz-adv-x="392" d="M34 356H354V414H34V356Z" />
<glyph unicode="&#xae;" horiz-adv-x="696" d="M664 188V327Q664 391 641 439T575 519T474 568T347 584Q278 584 221 568T121 520T55 439T31 327V188Q31 124 54 76T120 -5T220 -53T347 -69Q416 -69 474 -53T574 -5T640 75T664 188ZM603 302V212Q603 151 588 108T541
37T462 -2T347 -15Q281 -15 233 -3T154 37T107 107T91 212V302Q91 364 106 407T153 478T233 517T347 530Q413 530 461 518T541 478T587 408T603 302ZM385 443H181V59H234V177H383L440 59H505L441 186Q485 200 501 235T516 312Q515 357 502 383T469 422T427 439T385
443ZM388 233H234V389H388Q415 389 432 381T456 356T464 311Q464 271 445 252T388 233Z" />
<glyph unicode="&#xaf;" horiz-adv-x="267" d="M244 677H23V621H244V677Z" />
<glyph unicode="&#xb0;" horiz-adv-x="348" d="M320 565Q320 605 301 638T248 690T175 710Q135 710 102 691T48 638T28 565Q28 525 48 492T101 439T175 419Q215 419 248 439T300 492T320 565ZM175 660Q201 660 222 647T256 613T269 565Q269 540 256 519T222 484T175
471Q149 471 127 484T92 518T79 565Q79 591 92 612T127 647T175 660Z" />
<glyph unicode="&#xb1;" horiz-adv-x="383" d="M31 378H165V247H30V190H350V247H220V378H351V432H220V565H165V432H31V378Z" />
<glyph unicode="&#xb4;" horiz-adv-x="267" d="M197 684Q203 693 204 701T203 718T190 731Q181 736 173 735T157 728T147 712L109 605H144L197 684Z" />
<glyph unicode="&#xb5;" horiz-adv-x="466" d="M409 95V510L352 498V154Q352 117 337 92T296 55T236 43Q192 43 161 58T113 98T97 152V501H39V-187L97 -210V44Q97 45 104 37T127 18T171 -3T238 -12Q264 -12 288 -6T331 14T361 44Q372 23 382 13T399 0T409 -6L436
26Q434 28 428 36T415 59T409 95Z" />
<glyph unicode="&#xb6;" horiz-adv-x="622" d="M228 247H408V1H464V649H523V1H579V702H228Q180 702 144 691T82 653T43 584T30 476Q30 414 42 370T80 299T142 260T228 247ZM224 649H408V301H224Q196 301 171 307T127 331T97 384T86 476Q86 547 104 584T153 635T224 649Z" />
<glyph unicode="&#xb7;" horiz-adv-x="138" d="M68 317Q55 317 45 308T35 284Q35 271 45 261T68 251Q82 251 92 261T103 284Q103 298 93 307T68 317Z" />
<glyph unicode="&#xb8;" horiz-adv-x="267" d="M166 10H116L75 -59L88 -89Q102 -87 115 -86T140 -83T163 -82Q189 -82 205 -90T221 -124Q221 -144 212 -155T186 -171T150 -175Q137 -175 123 -174T95 -170T66 -164L54 -212Q55 -212 71 -215T110 -221T156 -224Q200
-224 235 -200T271 -126Q271 -84 244 -57T166 -32Q159 -33 153 -33T140 -34L166 10Z" />
<glyph unicode="&#xba;" horiz-adv-x="340" d="M305 503V586Q305 645 271 678T172 711Q107 711 71 679T35 586V503Q35 469 50 441T96 396T173 379Q240 379 272 413T305 503ZM251 581V504Q251 470 232 450T173 430Q148 430 129 439T100 465T89 504V581Q89 620 110
640T173 660Q200 660 217 651T243 625T251 581Z" />
<glyph unicode="&#xbb;" horiz-adv-x="504" d="M181 267L33 114L67 79L255 267L67 455L31 417L181 267ZM400 267L253 114L288 79L475 267L288 455L251 417L400 267Z" />
<glyph unicode="&#xbf;" horiz-adv-x="409" d="M379 162H323Q323 130 313 106T286 67T247 44T202 37Q173 38 146 52T102 92T84 158Q84 192 95 216T125 261T163 303Q177 319 190 337T215 376T233 423T240 482V574H188V487Q188 456 182 433T165 393T141 360T112
327Q89 301 70 276T40 222T29 156Q29 114 44 83T84 29T142 -4T207 -15Q239 -15 269 -5T324 27T364 82T379 162ZM213 703Q200 703 190 693T180 669Q180 656 190 646T213 636Q227 636 237 646T247 669Q247 683 237 693T213 703Z" />
<glyph unicode="&#xc0;" horiz-adv-x="547" d="M253 862Q250 872 243 878T227 886T208 882Q200 878 197 870T195 852T202 834L256 755H292L253 862ZM527 0L299 700H246L21 0H81L160 245H387L468 0H527ZM175 300L272 614L372 300H175Z" />
<glyph unicode="&#xc1;" horiz-adv-x="547" d="M347 834Q353 843 354 851T353 868T340 881Q331 886 323 885T307 878T297 862L259 755H294L347 834ZM527 0L299 700H246L21 0H81L160 245H387L468 0H527ZM175 300L272 614L372 300H175Z" />
<glyph unicode="&#xc2;" horiz-adv-x="547" d="M403 774L274 901L142 773L181 735L274 825L363 737L403 774ZM527 0L299 700H246L21 0H81L160 245H387L468 0H527ZM175 300L272 614L372 300H175Z" />
<glyph unicode="&#xc3;" horiz-adv-x="547" d="M345 869V851Q345 840 342 830T327 819Q317 819 305 827T291 837Q281 845 270 852T248 863Q231 871 211 870T175 857Q165 849 160 838T152 814T150 790V772H200V790Q200 795 201 804T206 818Q214 823 223 820T239
812Q247 808 255 802T273 790Q286 783 299 776T329 769Q364 769 379 794T395 851V869H345ZM527 0L299 700H246L21 0H81L160 245H387L468 0H527ZM175 300L272 614L372 300H175Z" />
<glyph unicode="&#xc4;" horiz-adv-x="547" d="M194 852Q181 852 171 842T161 818Q161 805 171 795T194 785Q208 785 218 795T228 818Q228 832 218 842T194 852ZM353 852Q339 852 330 842T320 818Q320 805 329 795T353 785Q367 785 376 795T386 818Q386 832 377
842T353 852ZM527 0L299 700H246L21 0H81L160 245H387L468 0H527ZM175 300L272 614L372 300H175Z" />
<glyph unicode="&#xc5;" horiz-adv-x="547" d="M273 895Q242 895 216 880T174 840T158 782Q158 750 173 724T215 683T273 668Q304 668 329 683T370 724T386 782Q386 814 371 839T330 880T273 895ZM273 851Q302 851 323 830Q342 811 342 782Q342 768 337 755T322
732Q312 723 300 718T273 712Q258 712 246 717T223 732Q213 742 208 755T202 782Q202 796 207 808T222 831Q232 840 245 845T273 851ZM527 0L299 700H246L21 0H81L160 245H387L468 0H527ZM175 300L272 614L372 300H175Z" />
<glyph unicode="&#xc6;" horiz-adv-x="752" d="M384 0H721V50H441V356H614L633 414H441V647H721V700H292L20 0H79L174 244H384V0ZM195 300L330 647H384V300H195Z" />
<glyph unicode="&#xc7;" horiz-adv-x="423" d="M244 10H194L153 -59L166 -89Q180 -87 193 -86T218 -83T241 -82Q267 -82 283 -90T299 -124Q299 -144 290 -155T264 -171T228 -175Q215 -175 201 -174T173 -170T144 -164L132 -212Q133 -212 149 -215T188 -221T234
-224Q278 -224 313 -200T349 -126Q349 -84 322 -57T244 -32Q237 -33 231 -33T218 -34L244 10ZM354 639L371 677Q340 694 304 702T229 710Q174 710 130 689T60 624T34 510V184Q34 117 58 74T127 11T235 -10Q273 -10 313 -2T396 23L384 69Q356 60 330 54T282 44T239
40Q189 40 156 54T107 101T91 186V514Q91 567 109 599T163 645T247 660Q273 660 299 655T354 639Z" />
<glyph unicode="&#xc8;" horiz-adv-x="406" d="M183 861Q180 871 173 877T157 885T138 881Q130 877 127 869T125 851T132 833L186 754H222L183 861ZM41 0H373V50H98V357H270L288 412H98V648H375V700H41V0Z" />
<glyph unicode="&#xc9;" horiz-adv-x="406" d="M266 834Q272 843 273 851T272 868T259 881Q250 886 242 885T226 878T216 862L178 755H213L266 834ZM41 0H373V50H98V357H270L288 412H98V648H375V700H41V0Z" />
<glyph unicode="&#xca;" horiz-adv-x="406" d="M334 774L205 901L73 773L112 735L205 825L294 737L334 774ZM41 0H373V50H98V357H270L288 412H98V648H375V700H41V0Z" />
<glyph unicode="&#xcb;" horiz-adv-x="406" d="M124 852Q111 852 101 842T91 818Q91 805 101 795T124 785Q138 785 148 795T158 818Q158 832 148 842T124 852ZM283 852Q269 852 260 842T250 818Q250 805 259 795T283 785Q297 785 306 795T316 818Q316 832 307
842T283 852ZM41 0H373V50H98V357H270L288 412H98V648H375V700H41V0Z" />
<glyph unicode="&#xcc;" horiz-adv-x="187" d="M94 864Q91 874 84 880T68 888T49 884Q41 880 38 872T36 854T43 836L97 757H133L94 864ZM20 651L88 649V0H144V700H20V651Z" />
<glyph unicode="&#xcd;" horiz-adv-x="187" d="M187 834Q193 843 194 851T193 868T180 881Q171 886 163 885T147 878T137 862L99 755H134L187 834ZM20 651L88 649V0H144V700H20V651Z" />
<glyph unicode="&#xce;" horiz-adv-x="187" d="M245 774L116 901L-16 773L23 735L116 825L205 737L245 774ZM20 651L88 649V0H144V700H20V651Z" />
<glyph unicode="&#xcf;" horiz-adv-x="187" d="M287 852Q274 852 264 842T254 818Q254 805 264 795T287 785Q301 785 311 795T321 818Q321 832 311 842T287 852ZM446 852Q432 852 423 842T413 818Q413 805 422 795T446 785Q460 785 469 795T479 818Q479 832 470
842T446 852ZM20 651L88 649V0H144V700H20V651Z" />
<glyph unicode="&#xd0;" horiz-adv-x="497" d="M67 357H270L288 412H67V357ZM230 700H41V0H250Q321 0 368 22T438 89T462 200V475Q462 543 436 593T358 672T230 700ZM233 50H98V650H240Q299 650 335 628T388 570T405 490V190Q405 156 395 130T363 86T309 59T233 50Z" />
<glyph unicode="&#xd1;" horiz-adv-x="577" d="M360 869V851Q360 840 357 830T342 819Q332 819 320 827T306 837Q296 845 285 852T263 863Q246 871 226 870T190 857Q180 849 175 838T167 814T165 790V772H215V790Q215 795 216 804T221 818Q229 823 238 820T254
812Q262 808 270 802T288 790Q301 783 314 776T344 769Q379 769 394 794T410 851V869H360ZM534 700H478V103L98 700H41V0H98V597L478 0H534V700Z" />
<glyph unicode="&#xd2;" horiz-adv-x="492" d="M226 863Q223 873 216 879T200 887T181 883Q173 879 170 871T168 853T175 835L229 756H265L226 863ZM34 508V186Q34 121 62 77T139 11T246 -11Q308 -11 355 13T429 81T456 186V507Q456 605 401 660T247 716Q148 716
91 663T34 508ZM91 187V517Q91 566 110 598T163 646T244 663Q292 663 327 647T381 598T400 517V187Q400 138 380 106T325 58T244 42Q200 42 166 58T111 107T91 187Z" />
<glyph unicode="&#xd3;" horiz-adv-x="492" d="M309 834Q315 843 316 851T315 868T302 881Q293 886 285 885T269 878T259 862L221 755H256L309 834ZM34 508V186Q34 121 62 77T139 11T246 -11Q308 -11 355 13T429 81T456 186V507Q456 605 401 660T247 716Q148 716
91 663T34 508ZM91 187V517Q91 566 110 598T163 646T244 663Q292 663 327 647T381 598T400 517V187Q400 138 380 106T325 58T244 42Q200 42 166 58T111 107T91 187Z" />
<glyph unicode="&#xd4;" horiz-adv-x="492" d="M376 774L247 901L115 773L154 735L247 825L336 737L376 774ZM34 508V186Q34 121 62 77T139 11T246 -11Q308 -11 355 13T429 81T456 186V507Q456 605 401 660T247 716Q148 716 91 663T34 508ZM91 187V517Q91 566
110 598T163 646T244 663Q292 663 327 647T381 598T400 517V187Q400 138 380 106T325 58T244 42Q200 42 166 58T111 107T91 187Z" />
<glyph unicode="&#xd5;" horiz-adv-x="492" d="M318 869V851Q318 840 315 830T300 819Q290 819 278 827T264 837Q254 845 243 852T221 863Q204 871 184 870T148 857Q138 849 133 838T125 814T123 790V772H173V790Q173 795 174 804T179 818Q187 823 196 820T212
812Q220 808 228 802T246 790Q259 783 272 776T302 769Q337 769 352 794T368 851V869H318ZM34 508V186Q34 121 62 77T139 11T246 -11Q308 -11 355 13T429 81T456 186V507Q456 605 401 660T247 716Q148 716 91 663T34 508ZM91 187V517Q91 566 110 598T163 646T244
663Q292 663 327 647T381 598T400 517V187Q400 138 380 106T325 58T244 42Q200 42 166 58T111 107T91 187Z" />
<glyph unicode="&#xd6;" horiz-adv-x="492" d="M166 852Q153 852 143 842T133 818Q133 805 143 795T166 785Q180 785 190 795T200 818Q200 832 190 842T166 852ZM325 852Q311 852 302 842T292 818Q292 805 301 795T325 785Q339 785 348 795T358 818Q358 832 349
842T325 852ZM34 508V186Q34 121 62 77T139 11T246 -11Q308 -11 355 13T429 81T456 186V507Q456 605 401 660T247 716Q148 716 91 663T34 508ZM91 187V517Q91 566 110 598T163 646T244 663Q292 663 327 647T381 598T400 517V187Q400 138 380 106T325 58T244 42Q200
42 166 58T111 107T91 187Z" />
<glyph unicode="&#xd7;" horiz-adv-x="347" d="M174 375L71 497L31 463L137 333L31 206L73 168L174 290L274 168L315 206L209 333L315 463L274 497L174 375Z" />
<glyph unicode="&#xd8;" horiz-adv-x="492" d="M38 -1H100L444 700H387L38 -1ZM34 508V186Q34 121 62 77T139 11T246 -11Q308 -11 355 13T429 81T456 186V507Q456 605 401 660T247 716Q148 716 91 663T34 508ZM91 187V517Q91 566 110 598T163 646T244 663Q292
663 327 647T381 598T400 517V187Q400 138 380 106T325 58T244 42Q200 42 166 58T111 107T91 187Z" />
<glyph unicode="&#xd9;" horiz-adv-x="498" d="M229 863Q226 873 219 879T203 887T184 883Q176 879 173 871T171 853T178 835L232 756H268L229 863ZM458 186V700H402V187Q402 139 383 107T329 58T248 42Q202 42 168 58T114 107T94 187V700H38V186Q38 121 64 77T139
11T249 -11Q311 -11 358 11T431 78T458 186Z" />
<glyph unicode="&#xda;" horiz-adv-x="498" d="M312 834Q318 843 319 851T318 868T305 881Q296 886 288 885T272 878T262 862L224 755H259L312 834ZM458 186V700H402V187Q402 139 383 107T329 58T248 42Q202 42 168 58T114 107T94 187V700H38V186Q38 121 64 77T139
11T249 -11Q311 -11 358 11T431 78T458 186Z" />
<glyph unicode="&#xdb;" horiz-adv-x="498" d="M379 774L250 901L118 773L157 735L250 825L339 737L379 774ZM458 186V700H402V187Q402 139 383 107T329 58T248 42Q202 42 168 58T114 107T94 187V700H38V186Q38 121 64 77T139 11T249 -11Q311 -11 358 11T431 78T458 186Z" />
<glyph unicode="&#xdc;" horiz-adv-x="498" d="M169 852Q156 852 146 842T136 818Q136 805 146 795T169 785Q183 785 193 795T203 818Q203 832 193 842T169 852ZM328 852Q314 852 305 842T295 818Q295 805 304 795T328 785Q342 785 351 795T361 818Q361 832 352
842T328 852ZM458 186V700H402V187Q402 139 383 107T329 58T248 42Q202 42 168 58T114 107T94 187V700H38V186Q38 121 64 77T139 11T249 -11Q311 -11 358 11T431 78T458 186Z" />
<glyph unicode="&#xdd;" horiz-adv-x="515" d="M320 834Q326 843 327 851T326 868T313 881Q304 886 296 885T280 878T270 862L232 755H267L320 834ZM474 156V700H417V423Q417 389 402 365T363 327T309 307T250 300Q199 300 162 317T106 368T86 453V700H30V455Q30
391 54 344T124 271T238 245Q270 245 304 251T368 271T417 306V153Q417 128 414 108T403 73T384 47T356 30L369 -7Q419 0 446 41T474 156Z" />
<glyph unicode="&#xde;" horiz-adv-x="506" d="M277 617H98L99 700H41V0H98V162H277Q327 162 364 174T426 214T463 285T476 391Q476 455 463 498T425 568T362 605T277 617ZM98 217V564H282Q311 564 336 557T379 531T408 478T419 391Q419 334 409 299T379 247T336
223T282 217H98Z" />
<glyph unicode="&#xdf;" horiz-adv-x="466" d="M96 0V541Q96 576 105 599T132 635T179 647Q200 647 215 637T240 611T250 577Q251 560 246 544T227 518T190 508Q179 489 176 470T173 434Q176 407 192 383T231 336T281 293T329 248T366 200T381 144Q381 119 373
100T349 69T314 50T274 43Q259 43 244 45T215 51T188 62T161 79L134 36Q154 20 178 9T229 -7T283 -11Q314 -9 342 0T392 28T426 75T439 142Q439 178 425 208T388 265T340 314T290 357T250 398T230 440Q229 450 231 459T239 477Q239 477 243 477T254 477T265 477T269
477Q283 488 291 503T302 536T305 572Q304 604 289 634T245 683T174 700Q141 699 116 688T74 657T48 607T39 538V0H96Z" />
<glyph unicode="&#xe0;" horiz-adv-x="447" d="M204 918Q201 928 194 934T178 942T159 938Q151 934 148 926T146 908T153 890L207 811H243L204 918ZM355 350Q332 364 304 376T244 395T180 403Q150 403 123 395T73 370T39 323T26 252V169Q26 114 43 78T91 23T163
-4T253 -10Q268 -10 288 -9T330 -7T370 -4T400 -1T411 0V288Q411 350 401 392T368 460T304 497T203 509L201 466Q231 466 259 462T308 445T342 410T355 350ZM355 303V46Q355 46 351 46T337 45T315 43T286 40T249 38Q199 36 166 43T115 68T89 113T81 176V250Q81
284 90 305T115 336T146 351T175 355Q207 355 238 348T299 329T355 303Z" />
<glyph unicode="&#xe1;" horiz-adv-x="447" d="M291 889Q297 898 298 906T297 923T284 936Q275 941 267 940T251 933T241 917L203 810H238L291 889ZM355 350Q332 364 304 376T244 395T180 403Q150 403 123 395T73 370T39 323T26 252V169Q26 114 43 78T91 23T163
-4T253 -10Q268 -10 288 -9T330 -7T370 -4T400 -1T411 0V288Q411 350 401 392T368 460T304 497T203 509L201 466Q231 466 259 462T308 445T342 410T355 350ZM355 303V46Q355 46 351 46T337 45T315 43T286 40T249 38Q199 36 166 43T115 68T89 113T81 176V250Q81
284 90 305T115 336T146 351T175 355Q207 355 238 348T299 329T355 303Z" />
<glyph unicode="&#xe2;" horiz-adv-x="447" d="M349 845L220 972L88 844L127 806L220 896L309 808L349 845ZM355 350Q332 364 304 376T244 395T180 403Q150 403 123 395T73 370T39 323T26 252V169Q26 114 43 78T91 23T163 -4T253 -10Q268 -10 288 -9T330 -7T370
-4T400 -1T411 0V288Q411 350 401 392T368 460T304 497T203 509L201 466Q231 466 259 462T308 445T342 410T355 350ZM355 303V46Q355 46 351 46T337 45T315 43T286 40T249 38Q199 36 166 43T115 68T89 113T81 176V250Q81 284 90 305T115 336T146 351T175 355Q207
355 238 348T299 329T355 303Z" />
<glyph unicode="&#xe3;" horiz-adv-x="447" d="M296 930V912Q296 901 293 891T278 880Q268 880 256 888T242 898Q232 906 221 913T199 924Q182 932 162 931T126 918Q116 910 111 899T103 875T101 851V833H151V851Q151 856 152 865T157 879Q165 884 174 881T190
873Q198 869 206 863T224 851Q237 844 250 837T280 830Q315 830 330 855T346 912V930H296ZM355 350Q332 364 304 376T244 395T180 403Q150 403 123 395T73 370T39 323T26 252V169Q26 114 43 78T91 23T163 -4T253 -10Q268 -10 288 -9T330 -7T370 -4T400 -1T411 0V288Q411
350 401 392T368 460T304 497T203 509L201 466Q231 466 259 462T308 445T342 410T355 350ZM355 303V46Q355 46 351 46T337 45T315 43T286 40T249 38Q199 36 166 43T115 68T89 113T81 176V250Q81 284 90 305T115 336T146 351T175 355Q207 355 238 348T299 329T355
303Z" />
<glyph unicode="&#xe4;" horiz-adv-x="447" d="M144 913Q131 913 121 903T111 879Q111 866 121 856T144 846Q158 846 168 856T178 879Q178 893 168 903T144 913ZM303 913Q289 913 280 903T270 879Q270 866 279 856T303 846Q317 846 326 856T336 879Q336 893 327
903T303 913ZM355 350Q332 364 304 376T244 395T180 403Q150 403 123 395T73 370T39 323T26 252V169Q26 114 43 78T91 23T163 -4T253 -10Q268 -10 288 -9T330 -7T370 -4T400 -1T411 0V288Q411 350 401 392T368 460T304 497T203 509L201 466Q231 466 259 462T308
445T342 410T355 350ZM355 303V46Q355 46 351 46T337 45T315 43T286 40T249 38Q199 36 166 43T115 68T89 113T81 176V250Q81 284 90 305T115 336T146 351T175 355Q207 355 238 348T299 329T355 303Z" />
<glyph unicode="&#xe5;" horiz-adv-x="447" d="M225 946Q194 946 168 931T126 891T110 833Q110 801 125 775T167 734T225 719Q256 719 281 734T322 775T338 833Q338 865 323 890T282 931T225 946ZM225 902Q254 902 275 881Q294 862 294 833Q294 819 289 806T274
783Q264 774 252 769T225 763Q210 763 198 768T175 783Q165 793 160 806T154 833Q154 847 159 859T174 882Q184 891 197 896T225 902ZM355 350Q332 364 304 376T244 395T180 403Q150 403 123 395T73 370T39 323T26 252V169Q26 114 43 78T91 23T163 -4T253 -10Q268
-10 288 -9T330 -7T370 -4T400 -1T411 0V288Q411 350 401 392T368 460T304 497T203 509L201 466Q231 466 259 462T308 445T342 410T355 350ZM355 303V46Q355 46 351 46T337 45T315 43T286 40T249 38Q199 36 166 43T115 68T89 113T81 176V250Q81 284 90 305T115
336T146 351T175 355Q207 355 238 348T299 329T355 303Z" />
<glyph unicode="&#xe6;" horiz-adv-x="749" d="M355 350Q332 364 304 376T244 395T180 403Q150 403 123 395T73 370T39 323T26 252V169Q26 114 43 78T91 23T163 -4T253 -10Q268 -10 288 -9T330 -7T370 -4T400 -1T411 0V288Q411 350 401 392T368 460T304 497T203
509L201 466Q231 466 259 462T308 445T342 410T355 350ZM355 303V46Q355 46 351 46T337 45T315 43T286 40T249 38Q199 36 166 43T115 68T89 113T81 176V250Q81 284 90 305T115 336T146 351T175 355Q207 355 238 348T299 329T355 303ZM413 134V196L718 212V342Q718
398 697 435T636 491T542 510Q489 510 447 491T381 434T357 339V134Q357 92 369 64T405 19T460 -5T530 -12Q568 -12 612 0T693 35L671 78Q634 59 598 48T525 36Q501 36 481 41T445 58T422 88T413 134ZM662 349V262L413 251V338Q413 378 428 406T473 448T541 463Q576
463 603 449T646 410T662 349Z" />
<glyph unicode="&#xe7;" horiz-adv-x="381" d="M223 15H173L132 -54L145 -84Q159 -82 172 -81T197 -78T220 -77Q246 -77 262 -85T278 -119Q278 -139 269 -150T243 -166T207 -170Q194 -170 180 -169T152 -165T123 -159L111 -207Q112 -207 128 -210T167 -216T213
-219Q257 -219 292 -195T328 -121Q328 -79 301 -52T223 -27Q216 -28 210 -28T197 -29L223 15ZM335 433L349 478Q318 492 284 501T215 510Q153 510 112 486T50 419T29 319V174Q29 110 52 70T119 10T219 -11Q252 -12 286 -8T351 5L340 55Q341 55 331 53T304 48T265
43T221 41Q185 42 159 50T116 76T92 120T84 186L85 311Q86 354 99 387T141 440T217 459Q246 458 277 452T335 433Z" />
<glyph unicode="&#xe8;" horiz-adv-x="422" d="M191 918Q188 928 181 934T165 942T146 938Q138 934 135 926T133 908T140 890L194 811H230L191 918ZM87 134V196L392 212V342Q392 398 371 435T310 491T216 510Q163 510 121 491T55 434T31 339V134Q31 92 43 64T79
19T134 -5T204 -12Q242 -12 286 0T367 35L345 78Q308 59 272 48T199 36Q175 36 155 41T119 58T96 88T87 134ZM336 349V262L87 251V338Q87 378 102 406T147 448T215 463Q250 463 277 449T320 410T336 349Z" />
<glyph unicode="&#xe9;" horiz-adv-x="422" d="M274 905Q280 914 281 922T280 939T267 952Q258 957 250 956T234 949T224 933L186 826H221L274 905ZM87 134V196L392 212V342Q392 398 371 435T310 491T216 510Q163 510 121 491T55 434T31 339V134Q31 92 43 64T79
19T134 -5T204 -12Q242 -12 286 0T367 35L345 78Q308 59 272 48T199 36Q175 36 155 41T119 58T96 88T87 134ZM336 349V262L87 251V338Q87 378 102 406T147 448T215 463Q250 463 277 449T320 410T336 349Z" />
<glyph unicode="&#xea;" horiz-adv-x="422" d="M341 845L212 972L80 844L119 806L212 896L301 808L341 845ZM87 134V196L392 212V342Q392 398 371 435T310 491T216 510Q163 510 121 491T55 434T31 339V134Q31 92 43 64T79 19T134 -5T204 -12Q242 -12 286 0T367
35L345 78Q308 59 272 48T199 36Q175 36 155 41T119 58T96 88T87 134ZM336 349V262L87 251V338Q87 378 102 406T147 448T215 463Q250 463 277 449T320 410T336 349Z" />
<glyph unicode="&#xeb;" horiz-adv-x="422" d="M131 913Q118 913 108 903T98 879Q98 866 108 856T131 846Q145 846 155 856T165 879Q165 893 155 903T131 913ZM290 913Q276 913 267 903T257 879Q257 866 266 856T290 846Q304 846 313 856T323 879Q323 893 314
903T290 913ZM87 134V196L392 212V342Q392 398 371 435T310 491T216 510Q163 510 121 491T55 434T31 339V134Q31 92 43 64T79 19T134 -5T204 -12Q242 -12 286 0T367 35L345 78Q308 59 272 48T199 36Q175 36 155 41T119 58T96 88T87 134ZM336 349V262L87 251V338Q87
378 102 406T147 448T215 463Q250 463 277 449T320 410T336 349Z" />
<glyph unicode="&#xec;" horiz-adv-x="135" d="M304 938Q301 948 294 954T278 962T259 958Q251 954 248 946T246 928T253 910L307 831H343L304 938ZM38 0H95V500H38V0Z" />
<glyph unicode="&#xed;" horiz-adv-x="135" d="M397 905Q403 914 404 922T403 939T390 952Q381 957 373 956T357 949T347 933L309 826H344L397 905ZM38 0H95V500H38V0Z" />
<glyph unicode="&#xee;" horiz-adv-x="135" d="M454 845L325 972L193 844L232 806L325 896L414 808L454 845ZM38 0H95V500H38V0Z" />
<glyph unicode="&#xef;" horiz-adv-x="135" d="M244 913Q231 913 221 903T211 879Q211 866 221 856T244 846Q258 846 268 856T278 879Q278 893 268 903T244 913ZM403 913Q389 913 380 903T370 879Q370 866 379 856T403 846Q417 846 426 856T436 879Q436 893 427
903T403 913ZM38 0H95V500H38V0Z" />
<glyph unicode="&#xf0;" horiz-adv-x="425" d="M306 659Q282 676 254 686T190 701L181 670Q190 668 205 664T238 650T274 627L171 524L199 496L302 599Q319 578 330 549T341 481V360Q333 376 319 389T285 413T243 428T198 434Q116 434 72 386T28 246V188Q28 97
75 44T212 -9Q301 -9 349 42T398 188V471Q398 501 391 530T371 585T336 633L378 675L350 703L306 659ZM209 43Q167 43 140 59T98 107T84 188V254Q84 296 98 324T138 367T203 381Q232 381 257 373T301 347T330 306T341 249V188Q341 139 327 107T283 59T209 43Z"
/>
<glyph unicode="&#xf1;" horiz-adv-x="443" d="M295 930V912Q295 901 292 891T277 880Q267 880 255 888T241 898Q231 906 220 913T198 924Q181 932 161 931T125 918Q115 910 110 899T102 875T100 851V833H150V851Q150 856 151 865T156 879Q164 884 173 881T189
873Q197 869 205 863T223 851Q236 844 249 837T279 830Q314 830 329 855T345 912V930H295ZM352 342V0H407V345Q407 377 400 402T378 448T342 482T294 503T233 510Q208 510 184 505T137 490T95 467V501H38V0H95V425Q116 437 136 444T177 456T222 460Q246 460 269
454T311 435T341 399T352 342Z" />
<glyph unicode="&#xf2;" horiz-adv-x="430" d="M195 938Q192 948 185 954T169 962T150 958Q142 954 139 946T137 928T144 910L198 831H234L195 938ZM399 185V316Q399 408 352 460T216 512Q157 512 115 490T51 424T29 316V185Q29 131 50 87T113 17T218 -10Q309
-10 354 43T399 185ZM343 316V175Q343 134 330 104T288 57T218 40Q178 40 148 57T102 104T85 175V316Q85 364 100 396T144 445T218 462Q262 462 289 446T330 397T343 316Z" />
<glyph unicode="&#xf3;" horiz-adv-x="430" d="M278 905Q284 914 285 922T284 939T271 952Q262 957 254 956T238 949T228 933L190 826H225L278 905ZM399 185V316Q399 408 352 460T216 512Q157 512 115 490T51 424T29 316V185Q29 131 50 87T113 17T218 -10Q309
-10 354 43T399 185ZM343 316V175Q343 134 330 104T288 57T218 40Q178 40 148 57T102 104T85 175V316Q85 364 100 396T144 445T218 462Q262 462 289 446T330 397T343 316Z" />
<glyph unicode="&#xf4;" horiz-adv-x="430" d="M345 845L216 972L84 844L123 806L216 896L305 808L345 845ZM399 185V316Q399 408 352 460T216 512Q157 512 115 490T51 424T29 316V185Q29 131 50 87T113 17T218 -10Q309 -10 354 43T399 185ZM343 316V175Q343 134
330 104T288 57T218 40Q178 40 148 57T102 104T85 175V316Q85 364 100 396T144 445T218 462Q262 462 289 446T330 397T343 316Z" />
<glyph unicode="&#xf5;" horiz-adv-x="430" d="M287 930V912Q287 901 284 891T269 880Q259 880 247 888T233 898Q223 906 212 913T190 924Q173 932 153 931T117 918Q107 910 102 899T94 875T92 851V833H142V851Q142 856 143 865T148 879Q156 884 165 881T181 873Q189
869 197 863T215 851Q228 844 241 837T271 830Q306 830 321 855T337 912V930H287ZM399 185V316Q399 408 352 460T216 512Q157 512 115 490T51 424T29 316V185Q29 131 50 87T113 17T218 -10Q309 -10 354 43T399 185ZM343 316V175Q343 134 330 104T288 57T218 40Q178
40 148 57T102 104T85 175V316Q85 364 100 396T144 445T218 462Q262 462 289 446T330 397T343 316Z" />
<glyph unicode="&#xf6;" horiz-adv-x="430" d="M136 913Q123 913 113 903T103 879Q103 866 113 856T136 846Q150 846 160 856T170 879Q170 893 160 903T136 913ZM295 913Q281 913 272 903T262 879Q262 866 271 856T295 846Q309 846 318 856T328 879Q328 893 319
903T295 913ZM399 185V316Q399 408 352 460T216 512Q157 512 115 490T51 424T29 316V185Q29 131 50 87T113 17T218 -10Q309 -10 354 43T399 185ZM343 316V175Q343 134 330 104T288 57T218 40Q178 40 148 57T102 104T85 175V316Q85 364 100 396T144 445T218 462Q262
462 289 446T330 397T343 316Z" />
<glyph unicode="&#xf7;" horiz-adv-x="379" d="M28 356H348V410H28V356ZM189 546Q175 546 166 536T156 512Q156 499 165 489T189 479Q203 479 213 489T223 512Q223 526 213 536T189 546ZM189 288Q175 288 166 279T156 255Q156 241 165 232T189 222Q203 222 213
231T223 255Q223 269 213 278T189 288Z" />
<glyph unicode="&#xf8;" horiz-adv-x="430" d="M361 514H303L73 -20H130L361 514ZM399 185V316Q399 408 352 460T216 512Q157 512 115 490T51 424T29 316V185Q29 131 50 87T113 17T218 -10Q309 -10 354 43T399 185ZM343 316V175Q343 134 330 104T288 57T218 40Q178
40 148 57T102 104T85 175V316Q85 364 100 396T144 445T218 462Q262 462 289 446T330 397T343 316Z" />
<glyph unicode="&#xf9;" horiz-adv-x="445" d="M203 935Q200 945 193 951T177 959T158 955Q150 951 147 943T145 925T152 907L206 828H242L203 935ZM349 48V0H405V501H349V173Q349 146 339 123T311 82T267 54T212 44Q174 44 147 56T106 97T92 171V501H35V157Q35
123 42 96T64 49T100 16T149 -3T210 -10Q235 -10 261 -4T310 16T349 48Z" />
<glyph unicode="&#xfa;" horiz-adv-x="445" d="M286 905Q292 914 293 922T292 939T279 952Q270 957 262 956T246 949T236 933L198 826H233L286 905ZM349 48V0H405V501H349V173Q349 146 339 123T311 82T267 54T212 44Q174 44 147 56T106 97T92 171V501H35V157Q35
123 42 96T64 49T100 16T149 -3T210 -10Q235 -10 261 -4T310 16T349 48Z" />
<glyph unicode="&#xfb;" horiz-adv-x="445" d="M353 845L224 972L92 844L131 806L224 896L313 808L353 845ZM349 48V0H405V501H349V173Q349 146 339 123T311 82T267 54T212 44Q174 44 147 56T106 97T92 171V501H35V157Q35 123 42 96T64 49T100 16T149 -3T210 -10Q235
-10 261 -4T310 16T349 48Z" />
<glyph unicode="&#xfc;" horiz-adv-x="445" d="M140 913Q127 913 117 903T107 879Q107 866 117 856T140 846Q154 846 164 856T174 879Q174 893 164 903T140 913ZM299 913Q285 913 276 903T266 879Q266 866 275 856T299 846Q313 846 322 856T332 879Q332 893 323
903T299 913ZM349 48V0H405V501H349V173Q349 146 339 123T311 82T267 54T212 44Q174 44 147 56T106 97T92 171V501H35V157Q35 123 42 96T64 49T100 16T149 -3T210 -10Q235 -10 261 -4T310 16T349 48Z" />
<glyph unicode="&#xfd;" horiz-adv-x="469" d="M297 905Q303 914 304 922T303 939T290 952Q281 957 273 956T257 949T247 933L209 826H244L297 905ZM438 470L418 512Q395 504 380 489T357 453T349 409V174Q349 148 339 125T312 83T272 55T222 44Q199 44 176 49T134
68T104 104T92 162V501H35V158Q35 115 46 84T80 32T135 1T210 -9Q235 -9 261 -3T310 17T349 50V-61Q349 -79 346 -95T334 -125T314 -149T284 -166L300 -209Q338 -196 361 -178T394 -132T405 -62V408Q405 440 415 452T438 470Z" />
<glyph unicode="&#xfe;" horiz-adv-x="442" d="M409 176V346Q409 399 390 436T333 493T239 510Q215 509 191 503T143 484T97 453V700H39V-188L97 -212V61Q109 41 130 24T180 -2T239 -12Q322 -12 365 36T409 176ZM352 343V167Q352 124 339 96T300 54T236 40Q207
40 182 49T138 75T108 117T97 174V393Q112 414 134 428T180 450T227 460Q251 462 273 457T313 438T341 401T352 343Z" />
<glyph unicode="&#xff;" horiz-adv-x="469" d="M154 913Q141 913 131 903T121 879Q121 866 131 856T154 846Q168 846 178 856T188 879Q188 893 178 903T154 913ZM313 913Q299 913 290 903T280 879Q280 866 289 856T313 846Q327 846 336 856T346 879Q346 893 337
903T313 913ZM438 470L418 512Q395 504 380 489T357 453T349 409V174Q349 148 339 125T312 83T272 55T222 44Q199 44 176 49T134 68T104 104T92 162V501H35V158Q35 115 46 84T80 32T135 1T210 -9Q235 -9 261 -3T310 17T349 50V-61Q349 -79 346 -95T334 -125T314
-149T284 -166L300 -209Q338 -196 361 -178T394 -132T405 -62V408Q405 440 415 452T438 470Z" />
<glyph unicode="&#x2013;" horiz-adv-x="443" d="M34 356H409V414H34V356Z" />
<glyph unicode="&#x2014;" horiz-adv-x="717" d="M34 356H683V414H34V356Z" />
<glyph unicode="&#x2018;" horiz-adv-x="128" d="M98 702L79 714Q72 707 64 697T47 671T33 637T27 594Q27 579 37 570T60 561Q74 561 84 570T95 594Q95 606 87 615T65 627Q67 644 74 663T98 702Z" />
<glyph unicode="&#x2019;" horiz-adv-x="129" d="M29 559L47 546Q55 553 64 564T81 590T95 624T101 666Q101 681 91 690T66 700Q53 700 43 690T33 666Q33 654 41 645T60 633Q59 617 53 598T29 559Z" />
<glyph unicode="&#x201a;" horiz-adv-x="140" d="M34 -65L51 -77Q59 -71 68 -60T85 -34T99 0T105 43Q104 58 94 67T70 76Q57 76 47 67T37 43Q37 30 45 21T64 10Q63 -6 56 -25T34 -65Z" />
<glyph unicode="&#x201c;" horiz-adv-x="307" d="M277 702L260 714Q253 707 244 697T227 671T213 637T207 594Q207 579 217 570T240 561Q254 561 264 570T274 594Q274 606 266 615T245 627Q248 644 254 663T277 702ZM98 702L79 714Q72 707 64 697T47 671T33 637T27
594Q27 579 37 570T60 561Q74 561 84 570T95 594Q95 606 87 615T65 627Q67 644 74 663T98 702Z" />
<glyph unicode="&#x201d;" horiz-adv-x="308" d="M29 559L47 546Q55 552 64 563T81 590T95 624T101 666Q100 681 90 690T66 700Q53 700 43 690T33 666Q33 654 41 645T60 633Q59 617 53 598T29 559ZM210 559L227 546Q235 553 244 564T261 590T274 624T280 666Q280
681 270 690T246 700Q233 700 223 690T213 666Q213 654 221 645T241 633Q239 617 233 598T210 559Z" />
<glyph unicode="&#x201e;" horiz-adv-x="319" d="M34 -65L51 -77Q59 -71 68 -60T85 -34T99 0T105 43Q104 58 94 67T70 76Q57 76 47 67T37 43Q37 30 45 21T64 10Q63 -6 56 -25T34 -65ZM214 -65L232 -77Q239 -70 247 -60T264 -34T278 0T284 43Q284 58 274 67T250
76Q237 76 227 67T217 43Q217 30 225 21T245 10Q244 -6 237 -25T214 -65Z" />
<glyph unicode="&#x2022;" horiz-adv-x="343" d="M269 436Q227 478 170 478Q114 478 70 436Q29 395 29 336Q29 308 39 283T70 238Q114 196 170 196Q199 196 224 206T269 238Q290 258 300 283T311 336Q311 394 269 436Z" />
<glyph unicode="&#x2039;" horiz-adv-x="284" d="M27 267L214 79L249 114L101 267L251 417L214 455L27 267Z" />
<glyph unicode="&#x203a;" horiz-adv-x="284" d="M181 267L33 114L68 79L255 267L68 455L31 417L181 267Z" />
</font>
</defs>
</svg>
