<?xml version="1.0" standalone="no"?>
<!DOCTYPE svg PUBLIC "-//W3C//DTD SVG 1.1//EN" "http://www.w3.org/Graphics/SVG/1.1/DTD/svg11.dtd">
<svg xmlns="http://www.w3.org/2000/svg">
<defs >
<font id="Cuprum" horiz-adv-x="416" ><font-face
    font-family="Cuprum"
    units-per-em="1000"
    panose-1="0 0 5 0 0 0 0 0 0 0"
    ascent="895"
    descent="-260"
    alphabetic="0" />
<glyph unicode=" " horiz-adv-x="250" />
<glyph unicode="!" horiz-adv-x="230" d="M73 185L60 700H170L153 185H73ZM68 -5V105H158V-5H68Z" />
<glyph unicode="&quot;" horiz-adv-x="330" d="M215 465L190 700H290L265 465H215ZM65 465L40 700H140L115 465H65Z" />
<glyph unicode="#" horiz-adv-x="570" d="M85 0L115 200H20V270H125L150 430H50V500H165L195 700H285L255 500H365L395 700H485L455 500H550V430H440L415 270H520V200H405L375 0H285L315 200H205L175 0H85ZM210 270H330L355 430H235L210 270Z" />
<glyph unicode="$" horiz-adv-x="445" d="M190 -90V-10H185Q140 -10 99 -4T35 10V55H190V319Q162 332 135 348T85 387T49 444T35 530Q35 611 73 655T190 708V790H250V709Q288 708 322 702T375 690V645H250V385Q279 372 307 357T358 319T396 264T410 180Q410 96
374 51T250 -6V-90H190ZM250 66Q288 80 304 108T320 180Q320 222 300 247T250 289V66ZM190 417V636Q125 614 125 530Q125 487 143 461T190 417Z" />
<glyph unicode="%" horiz-adv-x="680" d="M100 0L490 700H580L190 0H100ZM510 -10Q443 -10 407 27T370 140Q370 215 406 252T510 290Q578 290 614 253T650 140Q650 65 614 28T510 -10ZM510 50Q540 50 557 70T575 140Q575 189 558 209T510 230Q480 230 463 210T445
140Q445 91 462 71T510 50ZM170 410Q103 410 67 447T30 560Q30 635 66 672T170 710Q238 710 274 673T310 560Q310 485 274 448T170 410ZM170 470Q200 470 217 490T235 560Q235 609 218 629T170 650Q140 650 123 630T105 560Q105 511 122 491T170 470Z" />
<glyph unicode="&amp;" horiz-adv-x="515" d="M195 -10Q120 -10 78 36T35 180Q35 225 41 266T55 330H125V180Q125 128 136 101T163 65T195 55Q215 55 230 63T260 94T295 160Q241 237 207 292T153 388T127 462T120 530Q120 620 164 665T290 710Q335 710 376 704T440
690V645H310Q265 645 238 616T210 530Q210 506 213 481T228 425T264 353T330 255L385 390H475L385 170L505 0H405L350 80Q333 50 314 30T268 0T195 -10Z" />
<glyph unicode="&apos;" horiz-adv-x="180" d="M65 465L40 700H140L115 465H65Z" />
<glyph unicode="(" horiz-adv-x="246" d="M190 -190Q135 -100 105 -17T62 140T50 280Q50 345 62 419T104 577T190 750L246 720Q197 615 174 512T150 280Q150 153 173 49T246 -160L190 -190Z" />
<glyph unicode=")" horiz-adv-x="246" d="M56 -190L0 -160Q50 -55 73 49T96 280Q96 408 73 511T0 720L56 750Q111 660 141 577T184 420T196 280Q196 215 184 141T142 -17T56 -190Z" />
<glyph unicode="*" horiz-adv-x="430" d="M145 325L80 360L150 490L20 515L36 585L175 555V700H255V555L394 585L410 515L280 490L350 360L285 325L215 455L145 325Z" />
<glyph unicode="+" horiz-adv-x="430" d="M175 100V265H30V335H175V500H255V335H400V265H255V100H175Z" />
<glyph unicode="," horiz-adv-x="170" d="M40 -115V105H135L105 -115H40Z" />
<glyph unicode="-" horiz-adv-x="360" d="M30 265V335H330V265H30Z" />
<glyph unicode="." horiz-adv-x="170" d="M40 -5V105H130V-5H40Z" />
<glyph unicode="/" horiz-adv-x="390" d="M0 0L300 700H390L90 0H0Z" />
<glyph unicode="0" horiz-adv-x="510" d="M255 -10Q193 -10 147 21T75 131T50 350Q50 490 75 568T146 678T255 710Q318 710 364 679T435 569T460 350Q460 210 435 132T364 22T255 -10ZM255 50Q276 50 296 63T333 110T360 201T370 350Q370 440 360 498T333 590T296
636T255 650Q234 650 214 637T177 590T150 499T140 350Q140 260 150 202T177 110T214 64T255 50Z" />
<glyph unicode="1" horiz-adv-x="280" d="M120 0V630H10V680Q33 688 74 694T160 700H210V0H120Z" />
<glyph unicode="2" horiz-adv-x="390" d="M10 0V80Q85 174 135 236T215 342T257 422T270 500Q270 579 242 612T160 645H20V690Q43 698 84 704T170 710Q268 710 314 662T360 500Q360 451 345 409T298 319T219 213T105 70H360V0H10Z" />
<glyph unicode="3" horiz-adv-x="415" d="M165 -10Q120 -10 79 -4T15 10V55H145Q220 55 252 87T285 190Q285 265 253 297T145 330H75V400H135Q203 400 234 430T265 525Q265 585 237 615T155 645H25V690Q48 698 89 704T175 710Q265 710 310 665T355 525Q355 469
333 432T265 372V368Q305 358 329 331T364 267T375 190Q375 85 327 38T165 -10Z" />
<glyph unicode="4" horiz-adv-x="470" d="M290 0V180H30V260L280 700H380V250H440V180H380V0H290ZM115 250H290V555H286L115 250Z" />
<glyph unicode="5" horiz-adv-x="445" d="M195 -10Q150 -10 109 -4T45 10V55H175Q250 55 282 88T315 200Q315 279 283 312T175 345H60V700H385V635H150V410H195Q308 410 356 362T405 200Q405 88 357 39T195 -10Z" />
<glyph unicode="6" horiz-adv-x="455" d="M235 -10Q141 -10 96 39T50 200V420Q50 578 100 644T245 710Q290 710 331 704T395 690V645H265Q228 645 200 623T156 547T140 400Q163 408 196 414T260 420Q335 420 377 370T420 200Q420 88 375 39T235 -10ZM235 50Q276
50 303 84T330 200Q330 290 300 325T205 360H140V200Q140 118 167 84T235 50Z" />
<glyph unicode="7" horiz-adv-x="410" d="M110 0Q133 143 178 300T290 630H20V700H380V620Q313 455 268 299T200 0H110Z" />
<glyph unicode="8" horiz-adv-x="480" d="M240 -10Q135 -10 88 36T40 180Q40 229 57 265T103 325T160 363V367Q136 376 112 398T71 454T55 535Q55 621 100 665T240 710Q334 710 379 666T425 535Q425 489 409 455T369 398T320 367V363Q349 350 376 326T422 265T440
180Q440 83 393 37T240 -10ZM240 50Q293 50 321 81T350 180Q350 236 320 269T240 325Q191 303 161 270T130 180Q130 113 159 82T240 50ZM240 405Q281 420 308 451T335 535Q335 591 308 620T240 650Q199 650 172 621T145 535Q145 483 172 452T240 405Z" />
<glyph unicode="9" horiz-adv-x="455" d="M210 -10Q165 -10 124 -4T60 10V55H190Q228 55 256 77T299 154T315 300Q293 293 259 287T195 280Q120 280 78 330T35 500Q35 613 80 661T220 710Q314 710 359 662T405 500V280Q405 123 355 57T210 -10ZM250 340H315V500Q315
583 288 616T220 650Q179 650 152 617T125 500Q125 410 155 375T250 340Z" />
<glyph unicode=":" horiz-adv-x="170" d="M40 390V500H130V390H40ZM40 -5V105H130V-5H40Z" />
<glyph unicode=";" horiz-adv-x="165" d="M40 -115V105H135L105 -115H40ZM40 390V500H130V390H40Z" />
<glyph unicode="&lt;" horiz-adv-x="400" d="M360 10L40 210V295L360 495V400L130 256V249L360 105V10Z" />
<glyph unicode="=" horiz-adv-x="430" d="M30 350V425H400V350H30ZM30 175V250H400V175H30Z" />
<glyph unicode="&gt;" horiz-adv-x="400" d="M40 10V105L270 249V256L40 400V495L360 295V210L40 10Z" />
<glyph unicode="?" horiz-adv-x="370" d="M105 185Q105 238 119 274T155 338T199 392T235 448T250 520Q250 584 222 614T140 645H10V690Q33 698 74 704T160 710Q250 710 295 664T340 520Q340 469 325 434T286 371T240 317T201 260T185 185H105ZM100 -5V105H190V-5H100Z" />
<glyph unicode="@" horiz-adv-x="830" d="M430 -90Q243 -90 147 9T50 310Q50 513 144 611T410 710Q530 710 612 669T737 550T780 365Q780 263 755 203T670 116T505 90L500 120H495Q476 101 448 91T390 80Q350 80 316 101T261 169T240 290Q240 385 261 439T329
517T450 540Q480 540 519 534T580 520V155Q615 155 639 172T677 234T690 365Q690 504 618 577T410 650Q325 650 265 617T172 510T140 310Q140 188 174 114T276 8T450 -25H580V-70Q558 -77 517 -83T430 -90ZM420 140Q439 140 459 146T490 160V480H450Q410 480 384
464T344 407T330 290Q330 235 342 202T374 155T420 140Z" />
<glyph unicode="A" horiz-adv-x="510" d="M20 0L190 700H320L490 0H400L355 180H155L110 0H20ZM170 250H340L257 600H253L170 250Z" />
<glyph unicode="B" horiz-adv-x="500" d="M230 -10Q185 -10 147 -6T70 10V690Q108 701 146 705T230 710Q335 710 382 665T430 525Q430 480 413 441T350 377V373Q410 356 435 307T460 190Q460 85 409 38T230 -10ZM160 55H230Q305 55 337 86T370 190Q370 269 338
302T230 335H160V55ZM160 400H220Q280 400 310 430T340 525Q340 585 310 615T220 645H160V400Z" />
<glyph unicode="C" horiz-adv-x="435" d="M270 -10Q200 -10 151 21T76 131T50 350Q50 490 75 568T148 678T260 710Q305 710 346 704T410 690V645H280Q240 645 209 620T159 532T140 350Q140 233 159 169T211 80T290 55H420V10Q398 3 357 -3T270 -10Z" />
<glyph unicode="D" horiz-adv-x="520" d="M230 -10Q185 -10 147 -6T70 10V690Q108 701 146 705T230 710Q310 710 363 679T443 569T470 350Q470 210 444 132T364 22T230 -10ZM160 55H230Q275 55 308 80T361 169T380 350Q380 468 361 531T309 620T230 645H160V55Z" />
<glyph unicode="E" horiz-adv-x="450" d="M70 0V700H410V630H160V400H380V330H160V70H410V0H70Z" />
<glyph unicode="F" horiz-adv-x="430" d="M70 0V700H410V630H160V385H370V315H160V0H70Z" />
<glyph unicode="G" horiz-adv-x="500" d="M290 -10Q210 -10 157 21T77 131T50 350Q50 490 76 568T151 678T270 710Q315 710 356 704T420 690V645H290Q245 645 212 620T159 532T140 350Q140 233 159 169T217 80T310 55H350V380H440V10Q418 3 377 -3T290 -10Z" />
<glyph unicode="H" horiz-adv-x="530" d="M70 0V700H160V390H370V700H460V0H370V320H160V0H70Z" />
<glyph unicode="I" horiz-adv-x="230" d="M70 0V700H160V0H70Z" />
<glyph unicode="J" horiz-adv-x="350" d="M90 -10Q68 -10 44 -4T0 10V55H90Q125 55 149 71T187 127T200 240V700H290V240Q290 145 269 91T204 13T90 -10Z" />
<glyph unicode="K" horiz-adv-x="490" d="M70 0V700H160V360L355 700H460L255 355L480 0H375L160 350V0H70Z" />
<glyph unicode="L" horiz-adv-x="420" d="M70 0V700H160V70H410V0H70Z" />
<glyph unicode="M" horiz-adv-x="740" d="M55 0L95 700H205L368 220H372L535 700H645L685 0H595L565 520H560L415 90H325L180 520H175L145 0H55Z" />
<glyph unicode="N" horiz-adv-x="540" d="M70 0V700H170L375 205H380V700H470V0H370L165 495H160V0H70Z" />
<glyph unicode="O" horiz-adv-x="530" d="M265 -10Q198 -10 150 21T76 131T50 350Q50 490 75 568T149 678T265 710Q333 710 381 679T454 569T480 350Q480 210 455 132T381 22T265 -10ZM265 50Q289 50 311 63T352 110T380 201T390 350Q390 440 380 498T352 590T312
636T265 650Q241 650 219 637T178 590T150 499T140 350Q140 260 150 202T178 110T218 64T265 50Z" />
<glyph unicode="P" horiz-adv-x="490" d="M70 0V690Q108 701 146 705T230 710Q310 710 358 687T428 610T450 460Q450 363 430 307T367 228T260 205Q238 205 209 208T160 215V0H70ZM160 275H230Q275 275 304 291T346 347T360 460Q360 533 347 573T304 629T230 645H160V275Z"
/>
<glyph unicode="Q" horiz-adv-x="540" d="M265 -10Q198 -10 150 21T76 131T50 350Q50 490 75 568T149 678T265 710Q333 710 381 679T454 569T480 350Q480 234 462 163T410 50Q448 50 478 44T530 30V-10H265ZM265 50Q289 50 311 63T352 110T380 201T390 350Q390
440 380 498T352 590T312 636T265 650Q241 650 219 637T178 590T150 499T140 350Q140 260 150 202T178 110T218 64T265 50Z" />
<glyph unicode="R" horiz-adv-x="505" d="M70 0V690Q108 701 146 705T230 710Q310 710 358 688T428 613T450 470Q450 403 439 359T405 289T350 250L470 0H370L260 230H160V0H70ZM160 300H230Q298 300 329 336T360 470Q360 538 347 576T304 629T230 645H160V300Z" />
<glyph unicode="S" horiz-adv-x="445" d="M185 -10Q140 -10 99 -4T35 10V55H165Q251 55 285 85T320 180Q320 224 300 249T247 292T178 325T109 364T56 427T35 530Q35 620 81 665T225 710Q270 710 311 704T375 690V645H245Q185 645 155 616T125 530Q125 484 145
457T198 412T267 378T336 339T389 279T410 180Q410 83 360 37T185 -10Z" />
<glyph unicode="T" horiz-adv-x="430" d="M170 0V630H10V700H420V630H260V0H170Z" />
<glyph unicode="U" horiz-adv-x="520" d="M260 -10Q190 -10 146 13T81 90T60 240V700H150V240Q150 165 163 124T200 67T260 50Q295 50 319 66T357 124T370 240V700H460V240Q460 145 439 91T374 13T260 -10Z" />
<glyph unicode="V" horiz-adv-x="490" d="M180 0L20 700H110L243 95H247L380 700H470L310 0H180Z" />
<glyph unicode="W" horiz-adv-x="720" d="M135 0L20 700H110L200 160H205L315 570H405L515 160H520L610 700H700L585 0H475L362 420H358L245 0H135Z" />
<glyph unicode="X" horiz-adv-x="460" d="M15 0L165 360L30 700H120L230 420L340 700H430L295 360L445 0H355L230 300L105 0H15Z" />
<glyph unicode="Y" horiz-adv-x="450" d="M180 0V220L10 700H100L225 345L350 700H440L270 220V0H180Z" />
<glyph unicode="Z" horiz-adv-x="405" d="M20 0V65L280 630H25V700H385V635L125 70H380V0H20Z" />
<glyph unicode="[" horiz-adv-x="260" d="M70 -180V740H260V680H160V-120H260V-180H70Z" />
<glyph unicode="\" horiz-adv-x="390" d="M300 0L0 700H90L390 0H300Z" />
<glyph unicode="]" horiz-adv-x="260" d="M0 -180V-120H100V680H0V740H190V-180H0Z" />
<glyph unicode="^" horiz-adv-x="445" d="M95 410L30 450L180 700H265L415 450L350 410L225 610H220L95 410Z" />
<glyph unicode="_" horiz-adv-x="300" d="M0 -70V0H300V-70H0Z" />
<glyph unicode="`" horiz-adv-x="170" d="M85 560L22 690H117L145 560H85Z" />
<glyph unicode="a" horiz-adv-x="450" d="M195 -10Q150 -10 117 3T64 50T45 150Q45 213 64 246T116 292T195 305Q218 305 245 302T295 295V340Q295 408 267 429T185 450H85V490Q108 498 141 504T205 510Q265 510 305 497T365 447T385 340V0H310L305 30H300Q281
11 253 1T195 -10ZM225 50Q244 50 264 56T295 70V245H225Q200 245 180 237T147 209T135 150Q135 110 147 89T179 59T225 50Z" />
<glyph unicode="b" horiz-adv-x="470" d="M230 -10Q185 -10 147 -3T70 20V700H160V485Q183 496 206 503T260 510Q313 510 349 487T405 407T425 250Q425 150 405 94T341 14T230 -10ZM160 50H230Q263 50 286 66T322 126T335 250Q335 330 323 373T287 433T230 450Q211
450 191 444T160 430V50Z" />
<glyph unicode="c" horiz-adv-x="375" d="M240 -10Q173 -10 130 13T66 93T45 250Q45 350 65 406T126 486T230 510Q260 510 294 504T350 490V450H250Q213 450 187 434T148 374T135 250Q135 170 148 127T190 67T260 50H360V10Q338 3 304 -3T240 -10Z" />
<glyph unicode="d" horiz-adv-x="470" d="M210 -10Q158 -10 121 13T65 93T45 250Q45 350 64 406T121 486T210 510Q240 510 264 503T310 485V700H400V0H325L320 30H315Q296 11 268 1T210 -10ZM240 50Q259 50 279 56T310 70V430Q299 438 279 444T240 450Q208 450
184 434T148 374T135 250Q135 170 147 127T184 67T240 50Z" />
<glyph unicode="e" horiz-adv-x="440" d="M255 -10Q180 -10 134 13T67 93T45 250Q45 350 65 406T124 486T220 510Q278 510 316 487T375 407T395 250V220H135Q135 123 167 87T275 50H375V10Q353 3 319 -3T255 -10ZM135 280H305Q305 348 293 386T262 439T220 455Q198
455 179 440T147 386T135 280Z" />
<glyph unicode="f" horiz-adv-x="320" d="M80 0V425H20V490H80V530Q80 600 98 636T148 686T220 700Q235 700 256 697T297 690T330 680V640H240Q225 640 209 632T181 599T170 530V490H310V445Q288 438 254 432T190 425H170V0H80Z" />
<glyph unicode="g" horiz-adv-x="465" d="M200 -210Q170 -210 137 -204T80 -190V-150H180Q248 -150 279 -115T310 15Q288 4 264 -3T210 -10Q158 -10 121 13T65 93T45 250Q45 350 65 406T129 486T240 510Q285 510 324 503T400 480V40Q400 -55 379 -109T314 -187T200
-210ZM240 50Q259 50 279 56T310 70V450H240Q208 450 184 434T148 374T135 250Q135 170 147 127T184 67T240 50Z" />
<glyph unicode="h" horiz-adv-x="480" d="M70 0V700H160V485Q183 496 209 503T270 510Q313 510 345 498T396 453T415 360V0H325V360Q325 413 298 431T230 450Q211 450 191 444T160 430V0H70Z" />
<glyph unicode="i" horiz-adv-x="230" d="M70 0V500H160V0H70ZM70 570V680H160V570H70Z" />
<glyph unicode="j" horiz-adv-x="240" d="M30 -210Q8 -210 -16 -204T-60 -190V-150H10Q25 -150 41 -141T69 -109T80 -40V500H170V-40Q170 -110 152 -146T102 -196T30 -210ZM80 570V680H170V570H80Z" />
<glyph unicode="k" horiz-adv-x="435" d="M70 0V700H160V270L305 500H405L250 265L425 0H325L160 260V0H70Z" />
<glyph unicode="l" horiz-adv-x="230" d="M70 0V700H160V0H70Z" />
<glyph unicode="m" horiz-adv-x="690" d="M65 0V500H140L145 470H150Q169 489 192 499T250 510Q284 510 313 501T362 466Q387 488 423 499T485 510Q525 510 556 498T606 453T625 360V0H535V360Q535 395 524 414T494 442T455 450Q433 450 412 444T380 430Q384 419
387 401T390 360V0H300V360Q300 395 289 414T259 442T220 450Q201 450 184 444T155 430V0H65Z" />
<glyph unicode="n" horiz-adv-x="475" d="M65 0V500H140L145 470H150Q169 489 197 499T255 510Q303 510 337 498T391 453T410 360V0H320V360Q320 413 293 431T225 450Q206 450 186 444T155 430V0H65Z" />
<glyph unicode="o" horiz-adv-x="460" d="M230 -10Q170 -10 129 14T67 96T45 250Q45 348 66 404T129 485T230 510Q290 510 331 486T394 405T415 250Q415 153 394 96T332 15T230 -10ZM230 45Q255 45 276 63T311 125T325 250Q325 330 312 374T277 437T230 455Q205
455 184 437T149 375T135 250Q135 170 148 126T183 63T230 45Z" />
<glyph unicode="p" horiz-adv-x="465" d="M65 -200V500H140L145 470H150Q169 489 197 499T255 510Q308 510 344 487T400 407T420 250Q420 150 401 94T345 14T255 -10Q225 -10 202 -3T155 15V-200H65ZM225 50Q258 50 281 66T317 126T330 250Q330 330 318 373T282
433T225 450Q206 450 186 444T155 430V70Q166 63 186 57T225 50Z" />
<glyph unicode="q" horiz-adv-x="465" d="M310 -200V15Q288 4 264 -3T210 -10Q158 -10 121 13T65 93T45 250Q45 350 65 406T129 486T240 510Q285 510 324 503T400 480V-200H310ZM240 50Q259 50 279 56T310 70V450H240Q208 450 184 434T148 374T135 250Q135 170
147 127T184 67T240 50Z" />
<glyph unicode="r" horiz-adv-x="335" d="M65 0V500H141L146 460H151Q169 475 199 487T275 500H325V425H225Q206 425 188 421T155 405V0H65Z" />
<glyph unicode="s" horiz-adv-x="395" d="M160 -10Q130 -10 97 -4T40 10V50H140Q208 50 239 67T270 130Q270 160 253 178T210 208T153 232T96 261T52 307T35 380Q35 455 80 482T215 510Q245 510 279 504T335 490V450H235Q183 450 154 434T125 380Q125 350 142
332T185 302T242 278T299 249T343 203T360 130Q360 75 339 45T274 2T160 -10Z" />
<glyph unicode="t" horiz-adv-x="345" d="M220 -10Q180 -10 149 3T99 53T80 160V425H20V490H80V610H170V490H310V445Q288 438 254 432T190 425H170V160Q170 115 181 92T208 59T240 50H330V10Q318 5 298 1T256 -7T220 -10Z" />
<glyph unicode="u" horiz-adv-x="475" d="M220 -10Q173 -10 138 2T84 47T65 140V500H155V140Q155 88 182 69T250 50Q269 50 289 56T320 70V500H410V0H335L330 30H325Q306 11 278 1T220 -10Z" />
<glyph unicode="v" horiz-adv-x="430" d="M150 0L15 500H100L213 85H217L330 500H415L280 0H150Z" />
<glyph unicode="w" horiz-adv-x="610" d="M105 0L15 500H100L169 120H174L265 400H345L436 120H441L510 500H595L505 0H395L307 270H303L215 0H105Z" />
<glyph unicode="x" horiz-adv-x="400" d="M15 0L140 255L19 500H109L200 315L291 500H381L260 255L385 0H295L200 195L105 0H15Z" />
<glyph unicode="y" horiz-adv-x="475" d="M210 -210Q180 -210 147 -204T90 -190V-150H190Q258 -150 289 -115T320 15Q298 4 274 -3T220 -10Q173 -10 138 2T84 47T65 140V500H155V140Q155 88 182 69T250 50Q269 50 289 56T320 70V500H410V40Q410 -55 389 -109T324
-187T210 -210Z" />
<glyph unicode="z" horiz-adv-x="370" d="M20 0V60L245 435H30V500H350V440L126 65H345V0H20Z" />
<glyph unicode="{" horiz-adv-x="290" d="M290 -180Q225 -180 183 -167T121 -117T100 -10V120Q100 184 79 211T20 250V310Q58 321 79 348T100 440V570Q100 640 120 676T183 726T290 740V680Q245 680 218 659T190 570V460Q190 405 181 373T153 321T110 282V278Q135
259 153 239T180 187T190 100V-10Q190 -55 202 -78T237 -111T290 -120V-180Z" />
<glyph unicode="|" horiz-adv-x="230" d="M70 -200V700H160V-200H70Z" />
<glyph unicode="}" horiz-adv-x="290" d="M0 -180V-120Q30 -120 52 -111T87 -79T100 -10V100Q100 155 109 187T137 239T180 278V282Q155 301 137 321T110 373T100 460V570Q100 638 73 659T0 680V740Q65 740 107 727T169 677T190 570V440Q190 376 211 349T270 310V250Q233
239 212 212T190 120V-10Q190 -80 170 -116T107 -166T0 -180Z" />
<glyph unicode="~" horiz-adv-x="450" d="M30 196Q30 275 56 318T150 361Q184 361 205 349T242 321T270 293T300 281Q326 281 338 301T350 356H420Q420 277 394 234T300 191Q266 191 245 203T208 231T180 259T150 271Q124 271 112 251T100 196H30Z" />
<glyph unicode="&#xa0;" horiz-adv-x="250" />
<glyph unicode="&#xa1;" horiz-adv-x="230" d="M60 0L73 515H153L170 0H60ZM68 595V705H158V595H68Z" />
<glyph unicode="&#xa2;" horiz-adv-x="375" d="M205 -60V-8Q150 -3 115 23T62 104T45 250Q45 343 62 398T115 479T205 509V570H265V508Q288 505 311 500T350 490V450H265V50H360V10Q342 4 317 -1T265 -9V-60H205ZM205 58V443Q171 430 153 387T135 250Q135 159
152 116T205 58Z" />
<glyph unicode="&#xa3;" horiz-adv-x="415" d="M45 0V50Q60 60 71 78T88 128T95 210V320H35V390H95V500Q95 590 116 635T181 695T295 710Q318 710 342 704T385 690V645H295Q260 645 236 635T198 594T185 500V390H335V320H185V234Q185 159 172 124T135 74V70H395V0H45Z" />
<glyph unicode="&#xa4;" horiz-adv-x="520" d="M80 135L30 185L100 255Q89 274 82 299T75 350Q75 376 82 401T100 445L30 515L80 565L150 500Q169 519 199 529T259 540Q290 540 320 530T370 500L440 565L490 515L420 445Q431 426 438 401T445 350Q445 324 438
299T420 255L490 185L440 135L370 200Q351 181 321 171T259 160Q230 160 200 170T150 200L80 135ZM260 225Q298 225 324 255T350 350Q350 414 324 444T260 475Q223 475 197 445T170 350Q170 286 196 256T260 225Z" />
<glyph unicode="&#xa5;" horiz-adv-x="450" d="M180 0V205H60V275H160L139 335H60V405H114L10 700H100L225 345L350 700H440L335 405H390V335H310L289 275H390V205H270V0H180Z" />
<glyph unicode="&#xa6;" horiz-adv-x="230" d="M70 320V680H160V320H70ZM70 -200V160H160V-200H70Z" />
<glyph unicode="&#xa7;" horiz-adv-x="435" d="M180 -210Q143 -210 106 -204T45 -190V-150H160Q239 -150 272 -123T305 -50Q305 -15 286 7T237 46T173 77T109 114T59 167T40 250Q40 308 69 345T138 402Q102 423 76 457T50 550Q50 625 97 667T245 710Q283 710 320
704T380 690V650H265Q201 650 171 623T140 550Q140 515 158 493T206 454T267 423T329 386T376 333T395 250Q395 194 367 157T300 100Q338 78 366 45T395 -50Q395 -125 346 -167T180 -210ZM241 128Q269 144 287 172T305 250Q305 284 290 306T249 343T195 372Q167
357 149 329T130 250Q130 217 145 195T186 158T241 128Z" />
<glyph unicode="&#xa8;" horiz-adv-x="290" d="M180 580V690H270V580H180ZM20 580V690H110V580H20Z" />
<glyph unicode="&#xa9;" horiz-adv-x="810" d="M405 -20Q295 -20 214 24T89 152T45 350Q45 465 89 548T214 675T405 720Q515 720 596 676T721 548T765 350Q765 235 721 152T596 25T405 -20ZM415 130Q374 130 342 138T289 169T256 235T245 350Q245 421 256 464T288
531T342 562T415 570Q449 570 478 564T530 550V510H435Q400 510 376 499T338 454T325 350Q325 280 338 246T375 201T435 190H540V150Q518 143 484 137T415 130ZM405 40Q485 40 546 76T641 181T675 350Q675 450 641 519T546 624T405 660Q325 660 264 624T169 519T135
350Q135 250 169 181T264 76T405 40Z" />
<glyph unicode="&#xaa;" horiz-adv-x="285" d="M115 395Q85 395 58 416T30 490Q30 543 59 564T125 585Q138 585 153 584T179 582T190 580V600Q190 630 175 642T125 655H55V693Q70 698 93 701T135 705Q191 705 223 685T255 600V400H195L190 420Q175 409 157 402T115
395ZM145 445Q156 445 167 449T190 460V535H145Q123 535 109 524T95 490Q95 468 109 457T145 445Z" />
<glyph unicode="&#xab;" horiz-adv-x="435" d="M340 45L185 250L340 455L405 415L285 252V248L405 85L340 45ZM175 45L20 250L175 455L240 415L120 252V248L240 85L175 45Z" />
<glyph unicode="&#xac;" horiz-adv-x="420" d="M325 240L317 340H30V410H390V240H325Z" />
<glyph unicode="&#xad;" horiz-adv-x="360" d="M30 260V340H330V260H30Z" />
<glyph unicode="&#xae;" horiz-adv-x="810" d="M405 -20Q295 -20 214 24T89 152T45 350Q45 465 89 548T214 675T405 720Q515 720 596 676T721 548T765 350Q765 235 721 152T596 25T405 -20ZM405 40Q485 40 546 76T641 181T675 350Q675 450 641 519T546 624T405
660Q325 660 264 624T169 519T135 350Q135 250 169 181T264 76T405 40ZM265 140V550Q291 558 323 564T400 570Q475 570 517 542T560 430Q560 390 549 367T521 331T490 310L570 140H485L415 290H345V140H265ZM345 350H400Q430 350 455 367T480 430Q480 475 455 492T400
510H345V350Z" />
<glyph unicode="&#xaf;" horiz-adv-x="270" d="M20 640V700H250V640H20Z" />
<glyph unicode="&#xb0;" horiz-adv-x="380" d="M190 390Q123 390 82 432T40 550Q40 625 81 667T190 710Q258 710 299 668T340 550Q340 475 299 433T190 390ZM190 450Q220 450 240 474T260 550Q260 603 240 626T190 650Q160 650 140 627T120 550Q120 498 140 474T190 450Z" />
<glyph unicode="&#xb1;" horiz-adv-x="430" d="M175 150V305H30V375H175V530H255V375H400V305H255V150H175ZM30 50V120H400V50H30Z" />
<glyph unicode="&#xb2;" horiz-adv-x="255" d="M30 400V455Q83 496 121 534T160 610Q160 629 146 642T105 655H40V694Q55 699 76 702T120 705Q173 705 199 680T225 610Q225 569 195 532T105 450H225V400H30Z" />
<glyph unicode="&#xb3;" horiz-adv-x="255" d="M105 395Q83 395 64 398T30 406V445H105Q131 445 145 455T160 485Q160 508 147 519T110 530H65V580H105Q131 580 140 592T150 620Q150 635 138 645T99 655H30V694Q44 699 66 702T110 705Q159 705 187 687T215 620Q215
598 201 581T174 560Q194 556 209 538T225 485Q225 433 193 414T105 395Z" />
<glyph unicode="&#xb4;" horiz-adv-x="170" d="M20 560L55 690H150L80 560H20Z" />
<glyph unicode="&#xb5;" horiz-adv-x="475" d="M65 -200V500H155V160Q155 108 182 79T250 50Q269 50 289 56T320 70V500H410V0H335L330 30H325Q306 11 283 1T230 -10Q198 -10 178 4T155 20V-200H65Z" />
<glyph unicode="&#xb6;" horiz-adv-x="530" d="M210 -200V330Q128 330 79 379T30 515Q30 563 52 605T114 673T210 700H510V630H440V-200H360V630H290V-200H210Z" />
<glyph unicode="&#xb7;" horiz-adv-x="250" d="M80 295V405H170V295H80Z" />
<glyph unicode="&#xb8;" horiz-adv-x="200" d="M95 -165Q61 -165 41 -158T20 -150V-120H85Q100 -120 107 -113T115 -95Q115 -84 108 -77T85 -70H30V15H80V-25H95Q136 -25 158 -45T180 -95Q180 -125 158 -145T95 -165Z" />
<glyph unicode="&#xb9;" horiz-adv-x="185" d="M90 400V650H30V688Q45 693 72 696T125 700H155V400H90Z" />
<glyph unicode="&#xba;" horiz-adv-x="300" d="M150 395Q98 395 64 433T30 550Q30 629 64 667T150 705Q203 705 236 667T270 550Q270 471 237 433T150 395ZM150 445Q173 445 189 467T205 550Q205 610 189 632T150 655Q128 655 112 633T95 550Q95 490 111 468T150 445Z" />
<glyph unicode="&#xbb;" horiz-adv-x="435" d="M260 45L195 85L315 248V252L195 415L260 455L415 250L260 45ZM95 45L30 85L150 248V252L30 415L95 455L250 250L95 45Z" />
<glyph unicode="&#xbc;" horiz-adv-x="560" d="M40 0L430 700H510L120 0H40ZM410 0V65H265V115L405 300H475V115H505V65H475V0H410ZM335 115H410V213L335 115ZM105 400V650H45V688Q60 693 87 696T140 700H175V400H105Z" />
<glyph unicode="&#xbd;" horiz-adv-x="590" d="M50 0L440 700H520L130 0H50ZM335 0V55Q388 96 426 134T465 210Q465 229 451 242T410 255H345V294Q360 299 381 302T425 305Q478 305 504 280T530 210Q530 169 500 132T410 50H530V0H335ZM115 400V650H55V688Q70
693 97 696T150 700H185V400H115Z" />
<glyph unicode="&#xbe;" horiz-adv-x="565" d="M45 0L435 700H515L125 0H45ZM415 0V65H270V115L410 300H480V115H510V65H480V0H415ZM340 115H415V213L340 115ZM115 395Q93 395 74 398T40 406V445H115Q141 445 155 455T170 485Q170 508 157 519T120 530H75V580H115Q141
580 150 592T160 620Q160 635 148 645T109 655H40V694Q54 699 76 702T120 705Q169 705 197 687T225 620Q225 598 211 581T184 560Q204 556 219 538T235 485Q235 433 203 414T115 395Z" />
<glyph unicode="&#xbf;" horiz-adv-x="370" d="M210 -10Q120 -10 75 36T30 180Q30 231 45 266T84 329T131 383T169 440T185 515H265Q265 463 251 426T215 362T171 308T135 252T120 180Q120 116 149 86T230 55H360V10Q338 3 297 -3T210 -10ZM180 595V705H270V595H180Z" />
<glyph unicode="&#xc0;" horiz-adv-x="510" d="M20 0L190 700H320L490 0H400L355 180H155L110 0H20ZM170 250H340L257 600H253L170 250ZM218 760L155 890H250L278 760H218Z" />
<glyph unicode="&#xc1;" horiz-adv-x="510" d="M20 0L190 700H320L490 0H400L355 180H155L110 0H20ZM170 250H340L257 600H253L170 250ZM225 760L260 890H355L285 760H225Z" />
<glyph unicode="&#xc2;" horiz-adv-x="510" d="M20 0L190 700H320L490 0H400L355 180H155L110 0H20ZM170 250H340L257 600H253L170 250ZM132 750L207 880H302L377 750H317L254 824L192 750H132Z" />
<glyph unicode="&#xc3;" horiz-adv-x="510" d="M20 0L190 700H320L490 0H400L355 180H155L110 0H20ZM170 250H340L257 600H253L170 250ZM295 765Q276 765 264 774T244 795T227 816T210 825Q185 825 185 780H135Q135 836 154 860T215 885Q234 885 246 876T266 855T283
834T300 825Q325 825 325 870H375Q375 814 356 790T295 765Z" />
<glyph unicode="&#xc4;" horiz-adv-x="510" d="M20 0L190 700H320L490 0H400L355 180H155L110 0H20ZM170 250H340L257 600H253L170 250ZM290 780V890H380V780H290ZM130 780V890H220V780H130Z" />
<glyph unicode="&#xc5;" horiz-adv-x="510" d="M20 0L190 700H320L490 0H400L355 180H155L110 0H20ZM170 250H340L257 600H253L170 250ZM255 740Q218 740 194 761T170 820Q170 858 194 879T255 900Q293 900 316 879T340 820Q340 783 317 762T255 740ZM255 785Q270
785 280 793T290 820Q290 839 280 847T255 855Q240 855 230 847T220 820Q220 801 230 793T255 785Z" />
<glyph unicode="&#xc6;" horiz-adv-x="731" d="M0 0L240 700H691V630H441V400H661V330H441V70H691V0H351V180H152L90 0H0ZM176 250H351V630H306L176 250Z" />
<glyph unicode="&#xc7;" horiz-adv-x="435" d="M270 -10Q200 -10 151 21T76 131T50 350Q50 490 75 568T148 678T260 710Q305 710 346 704T410 690V645H280Q240 645 209 620T159 532T140 350Q140 233 159 169T211 80T290 55H420V10Q398 3 357 -3T270 -10ZM285 -165Q251
-165 231 -158T210 -150V-120H275Q290 -120 297 -113T305 -95Q305 -84 298 -77T275 -70H220V15H270V-25H285Q326 -25 348 -45T370 -95Q370 -125 348 -145T285 -165Z" />
<glyph unicode="&#xc8;" horiz-adv-x="450" d="M70 0V700H410V630H160V400H380V330H160V70H410V0H70ZM188 760L125 890H220L248 760H188Z" />
<glyph unicode="&#xc9;" horiz-adv-x="450" d="M70 0V700H410V630H160V400H380V330H160V70H410V0H70ZM195 760L230 890H325L255 760H195Z" />
<glyph unicode="&#xca;" horiz-adv-x="450" d="M70 0V700H410V630H160V400H380V330H160V70H410V0H70ZM102 750L177 880H272L347 750H287L224 824L162 750H102Z" />
<glyph unicode="&#xcb;" horiz-adv-x="450" d="M70 0V700H410V630H160V400H380V330H160V70H410V0H70ZM260 780V890H350V780H260ZM100 780V890H190V780H100Z" />
<glyph unicode="&#xcc;" horiz-adv-x="230" d="M70 0V700H160V0H70ZM78 760L15 890H110L138 760H78Z" />
<glyph unicode="&#xcd;" horiz-adv-x="230" d="M70 0V700H160V0H70ZM85 760L120 890H215L145 760H85Z" />
<glyph unicode="&#xce;" horiz-adv-x="230" d="M70 0V700H160V0H70ZM-10 750L65 880H160L235 750H175L112 824L50 750H-10Z" />
<glyph unicode="&#xcf;" horiz-adv-x="230" d="M70 0V700H160V0H70ZM150 780V890H240V780H150ZM-10 780V890H80V780H-10Z" />
<glyph unicode="&#xd0;" horiz-adv-x="540" d="M250 -10Q205 -10 167 -6T90 10V320H10V390H90V690Q128 701 166 705T250 710Q330 710 383 679T463 569T490 350Q490 210 464 132T384 22T250 -10ZM180 55H250Q295 55 328 80T381 169T400 350Q400 468 381 531T329
620T250 645H180V390H290V320H180V55Z" />
<glyph unicode="&#xd1;" horiz-adv-x="540" d="M70 0V700H170L375 205H380V700H470V0H370L165 495H160V0H70ZM315 765Q296 765 284 774T264 795T247 816T230 825Q205 825 205 780H155Q155 836 174 860T235 885Q254 885 266 876T286 855T303 834T320 825Q345 825
345 870H395Q395 814 376 790T315 765Z" />
<glyph unicode="&#xd2;" horiz-adv-x="530" d="M265 -10Q198 -10 150 21T76 131T50 350Q50 490 75 568T149 678T265 710Q333 710 381 679T454 569T480 350Q480 210 455 132T381 22T265 -10ZM265 50Q289 50 311 63T352 110T380 201T390 350Q390 440 380 498T352
590T312 636T265 650Q241 650 219 637T178 590T150 499T140 350Q140 260 150 202T178 110T218 64T265 50ZM228 760L165 890H260L288 760H228Z" />
<glyph unicode="&#xd3;" horiz-adv-x="530" d="M265 -10Q198 -10 150 21T76 131T50 350Q50 490 75 568T149 678T265 710Q333 710 381 679T454 569T480 350Q480 210 455 132T381 22T265 -10ZM265 50Q289 50 311 63T352 110T380 201T390 350Q390 440 380 498T352
590T312 636T265 650Q241 650 219 637T178 590T150 499T140 350Q140 260 150 202T178 110T218 64T265 50ZM235 760L270 890H365L295 760H235Z" />
<glyph unicode="&#xd4;" horiz-adv-x="530" d="M265 -10Q198 -10 150 21T76 131T50 350Q50 490 75 568T149 678T265 710Q333 710 381 679T454 569T480 350Q480 210 455 132T381 22T265 -10ZM265 50Q289 50 311 63T352 110T380 201T390 350Q390 440 380 498T352
590T312 636T265 650Q241 650 219 637T178 590T150 499T140 350Q140 260 150 202T178 110T218 64T265 50ZM142 750L217 880H312L387 750H327L264 824L202 750H142Z" />
<glyph unicode="&#xd5;" horiz-adv-x="530" d="M265 -10Q198 -10 150 21T76 131T50 350Q50 490 75 568T149 678T265 710Q333 710 381 679T454 569T480 350Q480 210 455 132T381 22T265 -10ZM265 50Q289 50 311 63T352 110T380 201T390 350Q390 440 380 498T352
590T312 636T265 650Q241 650 219 637T178 590T150 499T140 350Q140 260 150 202T178 110T218 64T265 50ZM305 765Q286 765 274 774T254 795T237 816T220 825Q195 825 195 780H145Q145 836 164 860T225 885Q244 885 256 876T276 855T293 834T310 825Q335 825 335
870H385Q385 814 366 790T305 765Z" />
<glyph unicode="&#xd6;" horiz-adv-x="530" d="M265 -10Q198 -10 150 21T76 131T50 350Q50 490 75 568T149 678T265 710Q333 710 381 679T454 569T480 350Q480 210 455 132T381 22T265 -10ZM265 50Q289 50 311 63T352 110T380 201T390 350Q390 440 380 498T352
590T312 636T265 650Q241 650 219 637T178 590T150 499T140 350Q140 260 150 202T178 110T218 64T265 50ZM300 780V890H390V780H300ZM140 780V890H230V780H140Z" />
<glyph unicode="&#xd7;" horiz-adv-x="400" d="M95 170L40 225L145 330L40 435L95 490L200 385L305 490L360 435L255 330L360 225L305 170L200 275L95 170Z" />
<glyph unicode="&#xd8;" horiz-adv-x="540" d="M270 -10Q217 -10 176 8T107 73L70 20L30 50L83 126Q70 167 63 222T55 350Q55 490 80 568T154 678T270 710Q323 710 364 692T433 627L470 680L510 650L457 574Q471 534 478 479T485 350Q485 210 460 132T386 22T270
-10ZM270 50Q294 50 316 63T357 110T385 201T395 350Q395 387 393 418T388 475L165 156Q182 95 210 73T270 50ZM152 225L374 543Q357 605 330 627T270 650Q246 650 224 637T183 590T155 499T145 350Q145 313 146 282T152 225Z" />
<glyph unicode="&#xd9;" horiz-adv-x="520" d="M260 -10Q190 -10 146 13T81 90T60 240V700H150V240Q150 165 163 124T200 67T260 50Q295 50 319 66T357 124T370 240V700H460V240Q460 145 439 91T374 13T260 -10ZM223 760L160 890H255L283 760H223Z" />
<glyph unicode="&#xda;" horiz-adv-x="520" d="M260 -10Q190 -10 146 13T81 90T60 240V700H150V240Q150 165 163 124T200 67T260 50Q295 50 319 66T357 124T370 240V700H460V240Q460 145 439 91T374 13T260 -10ZM230 760L265 890H360L290 760H230Z" />
<glyph unicode="&#xdb;" horiz-adv-x="520" d="M260 -10Q190 -10 146 13T81 90T60 240V700H150V240Q150 165 163 124T200 67T260 50Q295 50 319 66T357 124T370 240V700H460V240Q460 145 439 91T374 13T260 -10ZM137 750L212 880H307L382 750H322L259 824L197 750H137Z" />
<glyph unicode="&#xdc;" horiz-adv-x="520" d="M260 -10Q190 -10 146 13T81 90T60 240V700H150V240Q150 165 163 124T200 67T260 50Q295 50 319 66T357 124T370 240V700H460V240Q460 145 439 91T374 13T260 -10ZM295 780V890H385V780H295ZM135 780V890H225V780H135Z" />
<glyph unicode="&#xdd;" horiz-adv-x="450" d="M180 0V220L10 700H100L225 345L350 700H440L270 220V0H180ZM195 760L230 890H325L255 760H195Z" />
<glyph unicode="&#xde;" horiz-adv-x="500" d="M70 -10V710H160V630Q314 623 387 552T460 350Q460 219 387 149T160 70V-10H70ZM160 135Q265 139 317 192T370 350Q370 455 318 508T160 565V135Z" />
<glyph unicode="&#xdf;" horiz-adv-x="530" d="M325 -10Q303 -10 276 -4T225 10V50H305Q350 50 377 68T405 135Q405 165 389 186T348 224T298 261T257 304T240 365Q240 399 256 422T292 463T329 502T345 550Q345 591 319 618T255 645Q210 645 183 612T155 495V0H65V495Q65
611 111 660T255 710Q345 710 390 668T435 550Q435 514 419 491T383 449T346 411T330 365Q330 341 346 324T387 290T437 254T478 206T495 135Q495 78 476 47T418 3T325 -10Z" />
<glyph unicode="&#xe0;" horiz-adv-x="450" d="M195 -10Q150 -10 117 3T64 50T45 150Q45 213 64 246T116 292T195 305Q218 305 245 302T295 295V340Q295 408 267 429T185 450H85V490Q108 498 141 504T205 510Q265 510 305 497T365 447T385 340V0H310L305 30H300Q281
11 253 1T195 -10ZM225 50Q244 50 264 56T295 70V245H225Q200 245 180 237T147 209T135 150Q135 110 147 89T179 59T225 50ZM188 560L125 690H220L248 560H188Z" />
<glyph unicode="&#xe1;" horiz-adv-x="450" d="M195 -10Q150 -10 117 3T64 50T45 150Q45 213 64 246T116 292T195 305Q218 305 245 302T295 295V340Q295 408 267 429T185 450H85V490Q108 498 141 504T205 510Q265 510 305 497T365 447T385 340V0H310L305 30H300Q281
11 253 1T195 -10ZM225 50Q244 50 264 56T295 70V245H225Q200 245 180 237T147 209T135 150Q135 110 147 89T179 59T225 50ZM195 560L230 690H325L255 560H195Z" />
<glyph unicode="&#xe2;" horiz-adv-x="450" d="M195 -10Q150 -10 117 3T64 50T45 150Q45 213 64 246T116 292T195 305Q218 305 245 302T295 295V340Q295 408 267 429T185 450H85V490Q108 498 141 504T205 510Q265 510 305 497T365 447T385 340V0H310L305 30H300Q281
11 253 1T195 -10ZM225 50Q244 50 264 56T295 70V245H225Q200 245 180 237T147 209T135 150Q135 110 147 89T179 59T225 50ZM102 550L177 680H272L347 550H287L224 624L162 550H102Z" />
<glyph unicode="&#xe3;" horiz-adv-x="450" d="M195 -10Q150 -10 117 3T64 50T45 150Q45 213 64 246T116 292T195 305Q218 305 245 302T295 295V340Q295 408 267 429T185 450H85V490Q108 498 141 504T205 510Q265 510 305 497T365 447T385 340V0H310L305 30H300Q281
11 253 1T195 -10ZM225 50Q244 50 264 56T295 70V245H225Q200 245 180 237T147 209T135 150Q135 110 147 89T179 59T225 50ZM265 565Q246 565 234 574T214 595T197 616T180 625Q155 625 155 580H105Q105 636 124 660T185 685Q204 685 216 676T236 655T253 634T270
625Q295 625 295 670H345Q345 614 326 590T265 565Z" />
<glyph unicode="&#xe4;" horiz-adv-x="450" d="M195 -10Q150 -10 117 3T64 50T45 150Q45 213 64 246T116 292T195 305Q218 305 245 302T295 295V340Q295 408 267 429T185 450H85V490Q108 498 141 504T205 510Q265 510 305 497T365 447T385 340V0H310L305 30H300Q281
11 253 1T195 -10ZM225 50Q244 50 264 56T295 70V245H225Q200 245 180 237T147 209T135 150Q135 110 147 89T179 59T225 50ZM260 580V690H350V580H260ZM100 580V690H190V580H100Z" />
<glyph unicode="&#xe5;" horiz-adv-x="450" d="M195 -10Q150 -10 117 3T64 50T45 150Q45 213 64 246T116 292T195 305Q218 305 245 302T295 295V340Q295 408 267 429T185 450H85V490Q108 498 141 504T205 510Q265 510 305 497T365 447T385 340V0H310L305 30H300Q281
11 253 1T195 -10ZM225 50Q244 50 264 56T295 70V245H225Q200 245 180 237T147 209T135 150Q135 110 147 89T179 59T225 50ZM225 540Q188 540 164 561T140 620Q140 658 164 679T225 700Q263 700 286 679T310 620Q310 583 287 562T225 540ZM225 585Q240 585 250
593T260 620Q260 639 250 647T225 655Q210 655 200 647T190 620Q190 601 200 593T225 585Z" />
<glyph unicode="&#xe6;" horiz-adv-x="690" d="M195 -10Q150 -10 117 2T64 47T45 140Q45 198 64 229T116 272T195 285Q218 285 245 282T295 275V340Q295 408 267 429T185 450H85V490Q108 498 141 504T205 510Q250 510 288 492T345 440Q364 474 396 492T470 510Q528
510 566 487T625 409T645 255V225H385V210Q387 119 419 85T525 50H625V10Q603 3 569 -3T505 -10Q445 -10 408 6T345 60Q323 26 286 8T195 -10ZM215 50Q240 50 258 57T285 72T295 80V225H225Q188 225 162 207T135 140Q135 88 160 69T215 50ZM385 285H555Q555 350
543 387T512 439T470 455Q448 455 429 440T397 388T385 285Z" />
<glyph unicode="&#xe7;" horiz-adv-x="375" d="M240 -10Q173 -10 130 13T66 93T45 250Q45 350 65 406T126 486T230 510Q260 510 294 504T350 490V450H250Q213 450 187 434T148 374T135 250Q135 170 148 127T190 67T260 50H360V10Q338 3 304 -3T240 -10ZM245 -165Q211
-165 191 -158T170 -150V-120H235Q250 -120 257 -113T265 -95Q265 -84 258 -77T235 -70H180V15H230V-25H245Q286 -25 308 -45T330 -95Q330 -125 308 -145T245 -165Z" />
<glyph unicode="&#xe8;" horiz-adv-x="440" d="M255 -10Q180 -10 134 13T67 93T45 250Q45 350 65 406T124 486T220 510Q278 510 316 487T375 407T395 250V220H135Q135 123 167 87T275 50H375V10Q353 3 319 -3T255 -10ZM135 280H305Q305 348 293 386T262 439T220
455Q198 455 179 440T147 386T135 280ZM183 560L120 690H215L243 560H183Z" />
<glyph unicode="&#xe9;" horiz-adv-x="440" d="M255 -10Q180 -10 134 13T67 93T45 250Q45 350 65 406T124 486T220 510Q278 510 316 487T375 407T395 250V220H135Q135 123 167 87T275 50H375V10Q353 3 319 -3T255 -10ZM135 280H305Q305 348 293 386T262 439T220
455Q198 455 179 440T147 386T135 280ZM190 560L225 690H320L250 560H190Z" />
<glyph unicode="&#xea;" horiz-adv-x="440" d="M255 -10Q180 -10 134 13T67 93T45 250Q45 350 65 406T124 486T220 510Q278 510 316 487T375 407T395 250V220H135Q135 123 167 87T275 50H375V10Q353 3 319 -3T255 -10ZM135 280H305Q305 348 293 386T262 439T220
455Q198 455 179 440T147 386T135 280ZM97 550L172 680H267L342 550H282L219 624L157 550H97Z" />
<glyph unicode="&#xeb;" horiz-adv-x="440" d="M255 -10Q180 -10 134 13T67 93T45 250Q45 350 65 406T124 486T220 510Q278 510 316 487T375 407T395 250V220H135Q135 123 167 87T275 50H375V10Q353 3 319 -3T255 -10ZM135 280H305Q305 348 293 386T262 439T220
455Q198 455 179 440T147 386T135 280ZM255 580V690H345V580H255ZM95 580V690H185V580H95Z" />
<glyph unicode="&#xec;" horiz-adv-x="230" d="M70 0V500H160V0H70ZM334 560L271 690H366L394 560H334Z" />
<glyph unicode="&#xed;" horiz-adv-x="230" d="M70 0V500H160V0H70ZM85 560L120 690H215L145 560H85Z" />
<glyph unicode="&#xee;" horiz-adv-x="230" d="M70 0V500H160V0H70ZM248 550L323 680H418L493 550H433L370 624L308 550H248Z" />
<glyph unicode="&#xef;" horiz-adv-x="230" d="M70 0V500H160V0H70ZM406 580V690H496V580H406ZM246 580V690H336V580H246Z" />
<glyph unicode="&#xf0;" horiz-adv-x="455" d="M225 -10Q131 -10 86 40T40 215Q40 339 84 389T215 440Q249 440 273 433T320 415Q320 453 311 485T285 545L235 485L190 520L248 589Q217 616 174 636T75 670L80 710Q146 704 198 687T291 641L345 705L390 670L333
603Q371 560 390 500T410 360V215Q410 91 365 41T225 -10ZM225 45Q253 45 274 60T307 113T320 215V360Q309 368 289 374T245 380Q189 380 160 345T130 215Q130 150 142 113T176 61T225 45Z" />
<glyph unicode="&#xf1;" horiz-adv-x="475" d="M65 0V500H140L145 470H150Q169 489 197 499T255 510Q303 510 337 498T391 453T410 360V0H320V360Q320 413 293 431T225 450Q206 450 186 444T155 430V0H65ZM275 565Q256 565 244 574T224 595T207 616T190 625Q165
625 165 580H115Q115 636 134 660T195 685Q214 685 226 676T246 655T263 634T280 625Q305 625 305 670H355Q355 614 336 590T275 565Z" />
<glyph unicode="&#xf2;" horiz-adv-x="460" d="M230 -10Q170 -10 129 14T67 96T45 250Q45 348 66 404T129 485T230 510Q290 510 331 486T394 405T415 250Q415 153 394 96T332 15T230 -10ZM230 45Q255 45 276 63T311 125T325 250Q325 330 312 374T277 437T230 455Q205
455 184 437T149 375T135 250Q135 170 148 126T183 63T230 45ZM193 560L130 690H225L253 560H193Z" />
<glyph unicode="&#xf3;" horiz-adv-x="460" d="M230 -10Q170 -10 129 14T67 96T45 250Q45 348 66 404T129 485T230 510Q290 510 331 486T394 405T415 250Q415 153 394 96T332 15T230 -10ZM230 45Q255 45 276 63T311 125T325 250Q325 330 312 374T277 437T230 455Q205
455 184 437T149 375T135 250Q135 170 148 126T183 63T230 45ZM200 560L235 690H330L260 560H200Z" />
<glyph unicode="&#xf4;" horiz-adv-x="460" d="M230 -10Q170 -10 129 14T67 96T45 250Q45 348 66 404T129 485T230 510Q290 510 331 486T394 405T415 250Q415 153 394 96T332 15T230 -10ZM230 45Q255 45 276 63T311 125T325 250Q325 330 312 374T277 437T230 455Q205
455 184 437T149 375T135 250Q135 170 148 126T183 63T230 45ZM107 550L182 680H277L352 550H292L229 624L167 550H107Z" />
<glyph unicode="&#xf5;" horiz-adv-x="460" d="M230 -10Q170 -10 129 14T67 96T45 250Q45 348 66 404T129 485T230 510Q290 510 331 486T394 405T415 250Q415 153 394 96T332 15T230 -10ZM230 45Q255 45 276 63T311 125T325 250Q325 330 312 374T277 437T230 455Q205
455 184 437T149 375T135 250Q135 170 148 126T183 63T230 45ZM270 565Q251 565 239 574T219 595T202 616T185 625Q160 625 160 580H110Q110 636 129 660T190 685Q209 685 221 676T241 655T258 634T275 625Q300 625 300 670H350Q350 614 331 590T270 565Z" />
<glyph unicode="&#xf6;" horiz-adv-x="460" d="M230 -10Q170 -10 129 14T67 96T45 250Q45 348 66 404T129 485T230 510Q290 510 331 486T394 405T415 250Q415 153 394 96T332 15T230 -10ZM230 45Q255 45 276 63T311 125T325 250Q325 330 312 374T277 437T230 455Q205
455 184 437T149 375T135 250Q135 170 148 126T183 63T230 45ZM265 580V690H355V580H265ZM105 580V690H195V580H105Z" />
<glyph unicode="&#xf7;" horiz-adv-x="430" d="M30 260V340H400V260H30ZM175 95V185H255V95H175ZM175 415V505H255V415H175Z" />
<glyph unicode="&#xf8;" horiz-adv-x="480" d="M240 -10Q192 -10 156 5T97 55L65 20L30 60L73 107Q64 135 60 170T55 250Q55 348 76 404T139 485T240 510Q287 510 323 495T383 445L415 480L450 440L407 393Q415 365 420 330T425 250Q425 153 404 96T342 15T240
-10ZM240 45Q265 45 286 63T321 125T335 250Q335 267 335 282T332 311L159 123Q172 79 193 62T240 45ZM147 188L320 377Q307 421 286 438T240 455Q215 455 194 437T159 375T145 250Q145 233 145 218T147 188Z" />
<glyph unicode="&#xf9;" horiz-adv-x="475" d="M220 -10Q173 -10 138 2T84 47T65 140V500H155V140Q155 88 182 69T250 50Q269 50 289 56T320 70V500H410V0H335L330 30H325Q306 11 278 1T220 -10ZM201 560L138 690H233L261 560H201Z" />
<glyph unicode="&#xfa;" horiz-adv-x="475" d="M220 -10Q173 -10 138 2T84 47T65 140V500H155V140Q155 88 182 69T250 50Q269 50 289 56T320 70V500H410V0H335L330 30H325Q306 11 278 1T220 -10ZM208 560L243 690H338L268 560H208Z" />
<glyph unicode="&#xfb;" horiz-adv-x="475" d="M220 -10Q173 -10 138 2T84 47T65 140V500H155V140Q155 88 182 69T250 50Q269 50 289 56T320 70V500H410V0H335L330 30H325Q306 11 278 1T220 -10ZM117 550L192 680H287L362 550H302L239 624L177 550H117Z" />
<glyph unicode="&#xfc;" horiz-adv-x="475" d="M220 -10Q173 -10 138 2T84 47T65 140V500H155V140Q155 88 182 69T250 50Q269 50 289 56T320 70V500H410V0H335L330 30H325Q306 11 278 1T220 -10ZM273 580V690H363V580H273ZM113 580V690H203V580H113Z" />
<glyph unicode="&#xfd;" horiz-adv-x="475" d="M210 -210Q180 -210 147 -204T90 -190V-150H190Q258 -150 289 -115T320 15Q298 4 274 -3T220 -10Q173 -10 138 2T84 47T65 140V500H155V140Q155 88 182 69T250 50Q269 50 289 56T320 70V500H410V40Q410 -55 389 -109T324
-187T210 -210ZM208 560L243 690H338L268 560H208Z" />
<glyph unicode="&#xfe;" horiz-adv-x="470" d="M70 -200V700H160V485Q183 496 206 503T260 510Q313 510 349 487T405 407T425 250Q425 150 406 94T350 14T260 -10Q230 -10 207 -3T160 15V-200H70ZM230 50Q263 50 286 66T322 126T335 250Q335 330 323 373T287 433T230
450Q211 450 191 444T160 430V70Q171 63 191 57T230 50Z" />
<glyph unicode="&#xff;" horiz-adv-x="475" d="M210 -210Q180 -210 147 -204T90 -190V-150H190Q258 -150 289 -115T320 15Q298 4 274 -3T220 -10Q173 -10 138 2T84 47T65 140V500H155V140Q155 88 182 69T250 50Q269 50 289 56T320 70V500H410V40Q410 -55 389 -109T324
-187T210 -210ZM273 580V690H363V580H273ZM113 580V690H203V580H113Z" />
<glyph unicode="&#x2013;" horiz-adv-x="460" d="M30 245V315H430V245H30Z" />
<glyph unicode="&#x2014;" horiz-adv-x="640" d="M30 245V315H610V245H30Z" />
<glyph unicode="&#x2018;" horiz-adv-x="170" d="M40 480L70 700H135V480H40Z" />
<glyph unicode="&#x2019;" horiz-adv-x="170" d="M40 480V700H135L105 480H40Z" />
<glyph unicode="&#x201a;" horiz-adv-x="170" d="M40 -115V105H135L105 -115H40Z" />
<glyph unicode="&#x201c;" horiz-adv-x="320" d="M185 480L215 700H280V480H185ZM35 480L65 700H130V480H35Z" />
<glyph unicode="&#x201d;" horiz-adv-x="320" d="M190 480V700H285L255 480H190ZM40 480V700H135L105 480H40Z" />
<glyph unicode="&#x201e;" horiz-adv-x="320" d="M190 -115V105H285L255 -115H190ZM40 -115V105H135L105 -115H40Z" />
<glyph unicode="&#x2022;" horiz-adv-x="250" d="M45 270V429H205V270H45Z" />
<glyph unicode="&#x2039;" horiz-adv-x="295" d="M200 10L20 250L200 490L265 450L120 252V248L265 50L200 10Z" />
<glyph unicode="&#x203a;" horiz-adv-x="295" d="M95 10L30 50L175 248V252L30 450L95 490L275 250L95 10Z" />
</font>
</defs>
</svg>
