<?xml version="1.0" standalone="no"?>
<!DOCTYPE svg PUBLIC "-//W3C//DTD SVG 1.1//EN" "http://www.w3.org/Graphics/SVG/1.1/DTD/svg11.dtd">
<svg xmlns="http://www.w3.org/2000/svg">
<defs >
<font id="Akshar" horiz-adv-x="433" ><font-face
    font-family="Akshar Light"
    units-per-em="1000"
    panose-1="0 0 0 0 0 0 0 0 0 0"
    ascent="990"
    descent="-390"
    alphabetic="0" />
<glyph unicode=" " horiz-adv-x="188" />
<glyph unicode="!" horiz-adv-x="219" d="M72 211L64 705H155L146 211H72ZM109 -4Q84 -4 67 13T50 55Q50 80 67 97T109 115Q134 115 151 98T169 55Q169 30 152 13T109 -4Z" />
<glyph unicode="&quot;" horiz-adv-x="317" d="M186 505L171 720H257L243 505H186ZM75 505L60 720H146L132 505H75Z" />
<glyph unicode="#" horiz-adv-x="610" d="M286 31L428 631H509L367 31H286ZM50 201L66 277H516L500 201H50ZM98 31L240 631H321L179 31H98ZM94 384L110 460H560L544 384H94Z" />
<glyph unicode="$" horiz-adv-x="472" d="M193 666V803H267V666H193ZM193 -98V39H267V-98H193ZM345 158Q345 195 324 223T270 277T200 328T129 385T75 455T54 547H145Q145 511 166 483T220 429T290 377T361 321T415 251T436 158H345ZM54 545Q54 600 79 639T149
699T252 720V642Q202 642 174 616T145 545H54ZM436 160Q436 106 411 67T342 6T238 -15V64Q288 64 316 89T345 160H436ZM346 554Q341 599 315 620T252 642V720Q299 720 337 701T400 649T431 571L346 554ZM118 198Q124 135 155 100T238 64V-15Q153 -15 100 37T35
181L118 198Z" />
<glyph unicode="%" horiz-adv-x="679" d="M90 -19L511 712H589L168 -19H90ZM487 -23V44Q516 44 535 64T555 117H629Q629 78 610 46T559 -4T487 -23ZM487 -23Q447 -23 415 -5T364 46T346 117H420Q420 85 439 65T487 44V-23ZM346 117Q346 157 364 188T414 237T487
255V189Q458 189 439 169T420 117H346ZM555 117Q555 148 536 168T487 189V255Q527 255 559 237T610 188T629 117H555ZM191 438V505Q221 505 240 525T259 578H333Q333 538 315 507T264 457T191 438ZM191 438Q151 438 119 456T69 506T50 578H124Q124 546 143 526T191
505V438ZM50 578Q50 618 68 649T119 698T191 716V650Q162 650 143 630T124 578H50ZM259 578Q259 609 240 629T191 650V716Q232 716 264 698T314 649T333 578H259Z" />
<glyph unicode="&amp;" horiz-adv-x="662" d="M542 0L203 384L260 443L602 56L542 0ZM250 -17Q160 -17 110 31T60 161L150 158Q150 127 162 106T198 73T250 62V-17ZM250 -17V62Q268 62 288 69T330 92T379 136L430 74Q398 41 368 22T309 -7T250 -17ZM60 161Q59
197 74 231T113 297T164 356T217 405T260 443L318 377Q304 361 277 338T220 286T171 226T150 158L60 161ZM430 74L379 136L518 287L574 234L430 74ZM203 384Q180 410 157 438T119 497T103 564L191 565Q191 543 202 522T229 480T260 443L203 384ZM103 564Q102 608
122 643T181 699T266 720V641Q234 641 212 620T191 565L103 564ZM360 554Q355 599 329 620T265 641V720Q312 720 350 701T413 649T444 571L360 554Z" />
<glyph unicode="&apos;" horiz-adv-x="206" d="M75 505L60 720H146L132 505H75Z" />
<glyph unicode="(" horiz-adv-x="260" d="M174 -120Q50 107 50 335T174 790H260Q152 564 152 336T260 -120H174Z" />
<glyph unicode=")" horiz-adv-x="260" d="M86 -120H0Q108 107 108 335T0 790H86Q210 564 210 336T86 -120Z" />
<glyph unicode="*" horiz-adv-x="393" d="M305 466L180 544L50 614L88 679L213 601L343 531L305 466ZM88 466L50 531L180 601L305 679L343 614L213 544L88 466ZM159 425L164 573L159 720H234L229 573L234 425H159Z" />
<glyph unicode="+" horiz-adv-x="463" d="M188 123V526H275V123H188ZM30 285V366H433V285H30Z" />
<glyph unicode="," horiz-adv-x="223" d="M50 -77Q64 -56 74 -41T90 -11T99 21T102 61L173 71Q173 38 164 9T139 -47T102 -105L50 -77ZM112 12Q87 12 70 28T53 71Q53 96 70 113T112 131Q138 131 155 114T173 71Q173 45 156 29T112 12Z" />
<glyph unicode="-" horiz-adv-x="383" d="M50 284V365H333V284H50Z" />
<glyph unicode="." horiz-adv-x="219" d="M109 -4Q84 -4 67 13T50 55Q50 80 67 97T109 115Q134 115 151 98T169 55Q169 30 152 13T109 -4Z" />
<glyph unicode="/" horiz-adv-x="338" d="M25 0L229 705H313L109 0H25Z" />
<glyph unicode="0" horiz-adv-x="482" d="M336 180V525H427V180H336ZM55 180V525H146V180H55ZM238 642V720H244V642H238ZM238 -15V64H244V-15H238ZM55 525Q55 582 79 625T145 694T240 720V642Q196 642 171 612T146 525H55ZM427 525H336Q336 581 312 611T242 642V720Q295
720 336 695T402 626T427 525ZM55 180H146Q146 125 171 95T240 64V-15Q187 -15 146 10T80 80T55 180ZM427 180Q427 124 403 80T337 11T242 -15V64Q287 64 311 94T336 180H427Z" />
<glyph unicode="1" horiz-adv-x="329" d="M85 498L30 555L168 705V589L85 498ZM168 0V705H259V0H168Z" />
<glyph unicode="2" horiz-adv-x="469" d="M74 81Q75 148 93 196T141 280T204 345T266 404T314 468T333 550Q333 550 342 550T364 550T392 550T415 550T424 550Q424 488 405 445T357 368T294 307T231 247T182 177T162 81H74ZM74 0V81H423V0H74ZM144 562L60 579Q66
623 90 656T154 709T239 728V649Q203 649 176 628T144 562ZM424 549H333Q333 593 306 621T238 649V728Q291 728 333 705T399 641T424 549Z" />
<glyph unicode="3" horiz-adv-x="461" d="M228 331V410Q266 410 290 443T315 528H406Q406 471 384 427T321 357T228 331ZM325 162V232H416V162H325ZM167 331V410H229V331H167ZM315 527Q315 577 291 609T228 641V720Q281 720 321 696T383 628T406 527H315ZM416
163Q416 112 392 72T326 8T231 -16V63Q272 63 298 91T325 163H416ZM416 231H325Q325 275 299 303T231 331V410Q284 410 326 387T392 323T416 231ZM134 554L50 571Q56 615 80 648T144 701T229 720V641Q193 641 166 620T134 554ZM137 150Q142 106 168 85T232 63V-16Q185
-16 147 3T84 56T53 133L137 150Z" />
<glyph unicode="4" horiz-adv-x="487" d="M35 229L217 705H308L126 229H35ZM35 148V229H447V148H35ZM285 0V399H370V0H285Z" />
<glyph unicode="5" horiz-adv-x="483" d="M70 298V705H156V298H70ZM332 179V295H423V179H332ZM70 624V705H405V624H70ZM332 295Q332 340 305 369T237 398L249 473Q299 473 338 450T400 387T423 295H332ZM98 298Q98 348 117 387T172 450T250 473L238 398Q203 398
180 370T156 298H98ZM423 179Q423 123 399 79T333 10T238 -16V63Q283 63 307 94T332 179H423ZM144 150Q149 106 176 85T239 63V-16Q193 -16 154 3T91 56T60 133L144 150Z" />
<glyph unicode="6" horiz-adv-x="474" d="M60 253Q60 333 76 403T121 532T183 639T255 723L323 674Q290 638 259 600T204 514T166 403T151 253H60ZM60 180V248H151V180H60ZM338 180V248H429V180H338ZM429 180Q429 124 405 80T339 11T244 -15V64Q289 64 313 94T338
180H429ZM60 180H151Q151 125 176 95T245 64V-15Q192 -15 151 10T85 80T60 180ZM429 248H338Q338 304 314 334T244 364V443Q297 443 338 418T404 348T429 248ZM60 248Q60 304 84 348T150 417T245 443V364Q201 364 176 334T151 248H60Z" />
<glyph unicode="7" horiz-adv-x="434" d="M97 0L313 624H404L188 0H97ZM30 624V705H404V624H30Z" />
<glyph unicode="8" horiz-adv-x="494" d="M343 223Q343 278 318 308T247 338V407Q335 407 384 358T434 221L343 223ZM247 -15Q159 -15 110 35T60 177L151 179Q151 143 162 117T195 78T247 64V-15ZM60 177V221L151 223V179L60 177ZM247 -15V64Q277 64 298 77T331
117T343 179L434 177Q434 86 385 36T247 -15ZM60 221Q60 309 109 358T247 407V338Q202 338 177 308T151 223L60 221ZM343 179V223L434 221V177L343 179ZM247 338Q166 338 118 386T69 513L160 510Q160 460 182 434T247 407V338ZM69 513V541L160 539V510L69 513ZM247
338V407Q290 407 312 433T334 510L425 513Q425 434 377 386T247 338ZM69 541Q69 623 117 671T247 720V641Q219 641 200 630T170 595T160 539L69 541ZM334 510V539L425 541V513L334 510ZM334 539Q334 572 324 595T295 629T247 641V720Q329 720 377 672T425 541L334
539Z" />
<glyph unicode="9" horiz-adv-x="474" d="M414 453Q414 372 398 302T353 173T291 66T219 -17L151 32Q184 68 215 106T270 191T308 302T323 453H414ZM414 525V457H323V525H414ZM136 525V457H45V525H136ZM45 525Q45 581 69 625T135 694T230 720V641Q186 641 161
611T136 525H45ZM414 525H323Q323 581 299 611T229 641V720Q282 720 323 695T389 625T414 525ZM45 457H136Q136 402 161 372T230 341V262Q177 262 136 287T70 357T45 457ZM414 457Q414 402 390 358T324 288T229 262V341Q274 341 298 371T323 457H414Z" />
<glyph unicode=":" horiz-adv-x="270" d="M159 32Q134 32 117 49T100 91Q100 116 117 133T159 151Q184 151 201 134T219 91Q219 66 202 49T159 32ZM160 353Q135 353 118 370T101 412Q101 437 118 454T160 472Q185 472 202 455T220 412Q220 387 203 370T160 353Z" />
<glyph unicode=";" horiz-adv-x="285" d="M159 353Q134 353 117 370T100 412Q100 437 117 454T159 472Q184 472 201 455T219 412Q219 387 202 370T159 353ZM112 -77Q126 -56 136 -41T152 -11T161 21T164 61L235 71Q235 38 226 9T201 -47T164 -105L112 -77ZM174
12Q149 12 132 28T115 71Q115 96 132 113T174 131Q200 131 217 114T235 71Q235 45 218 29T174 12Z" />
<glyph unicode="&lt;" horiz-adv-x="411" d="M30 272V358L381 536V450L30 272ZM381 94L30 272V358L381 180V94Z" />
<glyph unicode="=" horiz-adv-x="399" d="M30 392V473H369V392H30ZM30 222V303H369V222H30Z" />
<glyph unicode="&gt;" horiz-adv-x="411" d="M381 272L30 450V536L381 358V272ZM30 94V180L381 358V272L30 94Z" />
<glyph unicode="?" horiz-adv-x="435" d="M150 199Q150 258 165 299T202 370T245 427T282 480T297 543Q297 591 274 615T203 640Q178 640 161 630T135 602T126 554H35Q35 603 56 640T116 699T203 720Q257 720 298 698T362 636T385 543Q385 500 370 470T334 414T290
359T253 292T238 199H150ZM150 176V199H238V176H150ZM194 -4Q168 -4 152 13T135 55Q135 80 151 97T194 115Q219 115 236 98T254 55Q254 30 237 13T194 -4Z" />
<glyph unicode="@" horiz-adv-x="739" d="M52 328Q59 405 86 466T158 571T264 639T397 663L392 587Q317 587 261 556T171 468T131 328H52ZM341 -97Q244 -97 175 -56T73 60T46 237H125Q119 156 143 98T219 10T346 -21L341 -97ZM46 237L52 328H131L125 237H46ZM341
-97L346 -21Q382 -21 417 -14T478 8L506 -56Q472 -75 428 -86T341 -97ZM330 70Q287 70 256 91T210 151T198 240H277Q273 197 292 174T350 151L330 70ZM198 240L203 311H282L277 240H198ZM330 70L350 151Q383 151 402 174T424 240H468Q464 190 445 152T397 92T330
70ZM608 237H686Q682 180 661 143T608 86T544 67T481 86T436 144T424 240H503Q499 189 513 163T547 137T586 162T608 237ZM203 311Q208 362 229 400T283 459T358 481L370 400Q331 400 309 377T282 311H203ZM429 314Q433 356 418 378T370 400L358 481Q396 481 422
460T462 402T471 314H429ZM424 240L438 446L445 475H519L503 240H424ZM608 237L614 328H692L686 237H608ZM614 328Q621 410 596 467T520 556T392 587L397 663Q495 663 563 622T666 505T692 328H614Z" />
<glyph unicode="A" horiz-adv-x="496" d="M131 141V219H387V141H131ZM292 705L120 0H30L202 705H292ZM294 705L466 0H377L204 705H294Z" />
<glyph unicode="B" horiz-adv-x="465" d="M213 331V405Q263 405 291 435T319 519H410Q410 465 385 423T314 356T213 331ZM126 0V79H223V0H126ZM126 326V405H223V326H126ZM329 187V211H420V187H329ZM329 210Q329 265 301 295T223 326V400Q279 400 324 375T394 307T420
210H329ZM126 626V705H213V626H126ZM410 518H319Q319 570 291 598T213 626V705Q271 705 315 682T385 616T410 518ZM420 188Q420 132 395 90T326 24T223 0V79Q273 79 301 107T329 188H420ZM60 0V705H151V0H60Z" />
<glyph unicode="C" horiz-adv-x="480" d="M50 171V534H141V171H50ZM50 534Q50 589 75 631T145 697T248 721V642Q198 642 170 614T141 534H50ZM50 172H141Q141 120 169 92T248 63V-16Q190 -16 145 8T75 74T50 172ZM367 508Q361 571 330 606T247 642V721Q332 721
385 669T450 525L367 508ZM367 197L450 181Q439 88 386 36T247 -16V63Q298 63 329 98T367 197Z" />
<glyph unicode="D" horiz-adv-x="475" d="M329 187V518H420V187H329ZM124 0V79H223V0H124ZM124 626V705H223V626H124ZM124 626V705H223V626H124ZM420 518H329Q329 570 301 598T223 626V705Q281 705 325 682T395 616T420 518ZM420 188Q420 132 395 90T326 24T223
0V79Q273 79 301 107T329 188H420ZM60 0V705H151V0H60Z" />
<glyph unicode="E" horiz-adv-x="428" d="M111 0V79H388V0H111ZM126 311V392H328V311H126ZM60 705H151V0H60V705ZM121 705H378V626H121V705Z" />
<glyph unicode="F" horiz-adv-x="398" d="M126 311V392H328V311H126ZM60 705H151V0H60V705ZM121 705H378V626H121V705Z" />
<glyph unicode="G" horiz-adv-x="505" d="M240 296V375H444V296H240ZM353 171V372H444V171H353ZM50 171V534H141V171H50ZM50 534Q50 589 75 631T145 697T248 721V642Q198 642 170 614T141 534H50ZM50 172H141Q141 120 169 92T248 63V-16Q190 -16 145 8T75 74T50
172ZM367 508Q361 571 330 606T247 642V721Q332 721 385 669T450 525L367 508ZM444 172Q444 116 419 74T350 8T247 -16V63Q297 63 325 91T353 172H444Z" />
<glyph unicode="H" horiz-adv-x="517" d="M90 313V391H396V313H90ZM366 0V705H457V0H366ZM60 0V705H151V0H60Z" />
<glyph unicode="I" horiz-adv-x="231" d="M70 0V705H161V0H70Z" />
<glyph unicode="J" horiz-adv-x="321" d="M170 153V705H261V153H170ZM261 153Q261 73 222 29T111 -16L103 63Q124 63 139 73T162 104T170 153H261ZM56 80Q67 73 78 68T103 63L111 -16Q87 -16 64 -8T20 15L56 80Z" />
<glyph unicode="K" horiz-adv-x="386" d="M95 378L302 705H393L183 378H95ZM310 0L87 378H183L406 0H310ZM60 0V705H151V0H60Z" />
<glyph unicode="L" horiz-adv-x="398" d="M121 0V79H378V0H121ZM60 0V705H151V0H60Z" />
<glyph unicode="M" horiz-adv-x="617" d="M270 0L427 705H506L350 0H270ZM267 0L110 705H190L346 0H267ZM60 0V705H151V0H60ZM466 0V705H557V0H466Z" />
<glyph unicode="N" horiz-adv-x="534" d="M359 0L77 705H166L448 0H359ZM60 0V705H151V0H60ZM383 0V705H474V0H383Z" />
<glyph unicode="O" horiz-adv-x="505" d="M359 172V534H450V172H359ZM55 172V534H146V172H55ZM450 533H359Q359 585 331 613T252 641V720Q311 720 355 697T425 631T450 533ZM55 533Q55 588 80 630T150 696T253 720V641Q203 641 175 613T146 533H55ZM450 173Q450
117 425 75T356 9T252 -15V64Q302 64 330 92T359 173H450ZM55 173H146Q146 121 174 93T253 64V-15Q195 -15 150 9T80 75T55 173Z" />
<glyph unicode="P" horiz-adv-x="448" d="M119 626V705H221V626H119ZM119 271V350H221V271H119ZM327 458V518H418V458H327ZM418 518H327Q327 570 299 598T220 626V705Q279 705 323 682T393 616T418 518ZM418 459Q418 403 393 361T324 295T220 271V350Q270 350
298 379T327 459H418ZM60 0V705H151V0H60Z" />
<glyph unicode="Q" horiz-adv-x="505" d="M356 -142Q329 -139 303 -122T256 -80T219 -29L251 9Q281 -23 314 -46T390 -77L356 -142ZM359 172V534H450V172H359ZM55 172V534H146V172H55ZM450 533H359Q359 585 331 613T252 641V720Q311 720 355 697T425 631T450 533ZM55
533Q55 588 80 630T150 696T253 720V641Q203 641 175 613T146 533H55ZM450 173Q450 117 425 75T356 9T252 -15V64Q302 64 330 92T359 173H450ZM55 173H146Q146 121 174 93T253 64V-15Q195 -15 150 9T80 75T55 173Z" />
<glyph unicode="R" horiz-adv-x="462" d="M329 0L201 344H294L422 0H329ZM119 299V377H221V299H119ZM119 626V705H221V626H119ZM327 485V519H418V485H327ZM418 518H327Q327 570 299 598T220 626V705Q279 705 323 682T393 616T418 518ZM418 486Q418 431 393 389T324
323T220 299V377Q270 377 298 406T327 486H418ZM60 0V705H151V0H60Z" />
<glyph unicode="S" horiz-adv-x="472" d="M345 158Q345 195 324 223T270 277T200 328T129 385T75 455T54 547H145Q145 511 166 483T220 429T290 377T361 321T415 251T436 158H345ZM54 545Q54 600 79 639T149 699T252 720V642Q202 642 174 616T145 545H54ZM436
160Q436 106 411 67T342 6T238 -15V64Q288 64 316 89T345 160H436ZM346 554Q341 599 315 620T252 642V720Q299 720 337 701T400 649T431 571L346 554ZM118 198Q124 135 155 100T238 64V-15Q153 -15 100 37T35 181L118 198Z" />
<glyph unicode="T" horiz-adv-x="455" d="M20 626V705H435V626H20ZM182 0V705H273V0H182Z" />
<glyph unicode="U" horiz-adv-x="513" d="M362 171V705H453V171H362ZM60 171V705H151V171H60ZM453 172Q453 117 428 75T359 9T256 -15V64Q306 64 334 92T362 172H453ZM60 172H151Q151 121 179 93T258 64V-15Q200 -15 155 8T85 74T60 172Z" />
<glyph unicode="V" horiz-adv-x="496" d="M204 0L377 705H466L294 0H204ZM202 0L30 705H120L292 0H202Z" />
<glyph unicode="W" horiz-adv-x="760" d="M479 0L342 705H424L563 0H479ZM170 0L40 705H130L260 0H170ZM197 0L337 705H419L282 0H197ZM501 0L631 705H720L590 0H501Z" />
<glyph unicode="X" horiz-adv-x="464" d="M340 0L33 705H125L432 0H340ZM30 0L189 353H276L117 0H30ZM189 353L347 705H434L276 353H189Z" />
<glyph unicode="Y" horiz-adv-x="461" d="M188 243L345 705H431L274 243H188ZM188 0V243H274V0H188ZM188 243L30 705H124L274 243H188Z" />
<glyph unicode="Z" horiz-adv-x="467" d="M40 79L331 626H427L137 79H40ZM40 0V79H427V0H40ZM40 626V705H427V626H40Z" />
<glyph unicode="[" horiz-adv-x="283" d="M50 -119V791H139V-119H50ZM63 -119V-38H283V-119H63ZM63 710V791H283V710H63Z" />
<glyph unicode="\" horiz-adv-x="338" d="M313 0H229L25 705H109L313 0Z" />
<glyph unicode="]" horiz-adv-x="283" d="M233 -119H144V791H233V-119ZM220 -119H0V-38H220V-119ZM220 710H0V791H220V710Z" />
<glyph unicode="^" horiz-adv-x="502" d="M208 705H294L472 354H386L208 705ZM30 354L208 705H294L116 354H30Z" />
<glyph unicode="_" horiz-adv-x="439" d="M50 -22V59H389V-22H50Z" />
<glyph unicode="`" horiz-adv-x="298" d="M152 557L70 690H163L228 557H152Z" />
<glyph unicode="a" horiz-adv-x="466" d="M330 0V344H421V0H330ZM208 -15L215 60Q251 60 276 78T316 131T330 214L375 216Q375 148 353 96T294 15T208 -15ZM208 -15Q163 -15 126 6T67 63T45 145L131 148Q131 110 156 85T215 60L208 -15ZM45 145Q45 192 68 227T132
284T223 305L228 235Q186 235 159 211T131 148L45 145ZM228 235L223 305H377V235H228ZM330 214V343H375V216L330 214ZM421 342H330Q330 386 304 414T235 442V520Q289 520 330 497T396 434T421 342ZM141 354L57 371Q63 416 87 449T150 501T236 520V442Q199 442 173
421T141 354Z" />
<glyph unicode="b" horiz-adv-x="477" d="M60 504V705H151V504H60ZM151 0H60V505H151V0ZM432 161H341V344H432V161ZM341 344Q341 386 315 412T248 439L271 520Q317 520 353 497T411 434T432 344H341ZM111 342Q111 393 132 433T189 497T271 520L248 439Q205 439
178 412T151 342H111ZM341 161H432Q432 111 411 71T354 8T271 -15L248 66Q289 66 315 92T341 161ZM111 164H151Q151 120 178 93T248 66L271 -15Q225 -15 189 8T132 72T111 164Z" />
<glyph unicode="c" horiz-adv-x="431" d="M45 178V327H136V178H45ZM45 326Q45 382 69 426T135 495T230 521V442Q186 442 161 412T136 326H45ZM323 355Q318 400 292 421T229 442V521Q276 521 314 502T377 450T408 372L323 355ZM45 179H136Q136 124 161 94T230 63V-16Q177
-16 136 9T70 79T45 179ZM323 150L408 133Q402 90 377 56T314 3T229 -16V63Q265 63 291 84T323 150Z" />
<glyph unicode="d" horiz-adv-x="477" d="M417 504H326V705H417V504ZM326 0V505H417V0H326ZM45 161V344H136V161H45ZM136 344H45Q45 394 66 434T123 497T207 520L230 439Q189 439 163 413T136 344ZM366 342H326Q326 385 299 412T230 439L207 520Q252 520 288 497T345
434T366 342ZM136 161Q136 119 162 93T230 66L207 -15Q160 -15 124 8T66 71T45 161H136ZM366 164Q366 113 346 73T289 9T207 -15L230 66Q272 66 299 93T326 164H366Z" />
<glyph unicode="e" horiz-adv-x="440" d="M64 225V290H405V225H64ZM219 -16V63H224V-16H219ZM35 179V326H126V179H35ZM314 290V342H405V290H314ZM405 342H314Q314 386 288 414T219 442V520Q273 520 314 497T380 434T405 342ZM318 150L403 133Q397 90 372 56T309
3T224 -16V63Q260 63 286 84T318 150ZM35 325Q35 382 59 425T125 494T220 520V442Q176 442 151 412T126 325H35ZM35 179H126Q126 124 151 94T220 63V-16Q167 -16 126 9T60 79T35 179Z" />
<glyph unicode="f" horiz-adv-x="334" d="M83 0V552H174V0H83ZM25 430V505H297V430H25ZM83 552Q83 631 123 675T233 720L241 642Q220 642 205 631T182 600T174 552H83ZM288 625Q277 633 266 637T241 642L233 720Q257 720 280 713T324 689L288 625Z" />
<glyph unicode="g" horiz-adv-x="477" d="M326 -18V505H417V-18H326ZM45 174V344H136V174H45ZM136 344H45Q45 394 66 434T123 497T207 520L230 439Q189 439 163 413T136 344ZM366 342H326Q326 385 299 412T230 439L207 520Q252 520 288 497T345 434T366 342ZM136
174Q136 132 162 106T230 79L207 -2Q160 -2 124 21T66 84T45 174H136ZM366 177Q366 126 346 86T289 22T207 -2L230 79Q272 79 299 106T326 177H366ZM417 -15Q417 -66 393 -106T327 -170T232 -194V-115Q273 -115 299 -87T326 -15H417ZM137 -28Q142 -72 169 -93T232
-115V-194Q186 -194 147 -175T84 -122T53 -45L137 -28Z" />
<glyph unicode="h" horiz-adv-x="477" d="M60 0V505H151V0H60ZM341 0V344H432V0H341ZM341 344Q341 386 315 412T248 439L271 520Q317 520 353 497T411 434T432 344H341ZM111 342Q111 393 132 433T189 497T271 520L248 439Q205 439 178 412T151 342H111ZM316 0V720H407V0H316Z"
/>
<glyph unicode="i" horiz-adv-x="231" d="M70 0V505H161V0H70ZM115 572Q90 572 73 589T56 631Q56 656 73 673T115 691Q140 691 157 674T175 631Q175 606 158 589T115 572Z" />
<glyph unicode="j" horiz-adv-x="248" d="M178 1Q178 -78 139 -123T29 -168L20 -89Q41 -89 56 -78T79 -47T87 1H178ZM-26 -72Q-16 -79 -5 -84T20 -89L29 -168Q4 -168 -19 -160T-62 -137L-26 -72ZM87 0V505H178V0H87ZM147 573Q122 573 105 590T88 632Q88 657 105
674T147 692Q172 692 189 675T207 632Q207 607 190 590T147 573Z" />
<glyph unicode="k" horiz-adv-x="434" d="M314 0L135 279L222 308L409 0H314ZM138 180L68 227L287 505H397L138 180ZM60 0V720H151V0H60Z" />
<glyph unicode="l" horiz-adv-x="231" d="M70 0V720H161V0H70Z" />
<glyph unicode="m" horiz-adv-x="717" d="M60 0V505H151V0H60ZM321 0V344H412V0H321ZM110 342Q110 393 129 433T183 497T259 520L236 439Q200 439 176 412T151 342H110ZM321 344Q321 386 297 412T236 439L259 520Q303 520 337 497T392 435T412 344H321ZM581 0V344H672V0H581ZM371
342Q371 393 390 433T443 497T519 520L496 439Q460 439 436 412T412 342H371ZM581 344Q581 386 558 412T496 439L519 520Q563 520 597 497T652 435T672 344H581Z" />
<glyph unicode="n" horiz-adv-x="477" d="M60 0V505H151V0H60ZM341 0V344H432V0H341ZM341 344Q341 386 315 412T248 439L271 520Q317 520 353 497T411 434T432 344H341ZM111 342Q111 393 132 433T189 497T271 520L248 439Q205 439 178 412T151 342H111Z" />
<glyph unicode="o" horiz-adv-x="442" d="M316 179V326H407V179H316ZM35 179V326H126V179H35ZM218 441V520H224V441H218ZM218 -15V64H224V-15H218ZM35 325Q35 381 59 425T125 494T220 520V441Q176 441 151 411T126 325H35ZM407 325H316Q316 381 292 411T222 441V520Q275
520 316 495T382 425T407 325ZM35 180H126Q126 125 151 95T220 64V-15Q167 -15 126 10T60 80T35 180ZM407 180Q407 124 383 80T317 11T222 -15V64Q267 64 291 94T316 180H407Z" />
<glyph unicode="p" horiz-adv-x="477" d="M60 1H151V-200H60V1ZM151 505V0H60V505H151ZM432 344V161H341V344H432ZM341 161H432Q432 111 411 71T354 8T271 -15L248 66Q289 66 315 92T341 161ZM111 164H151Q151 120 178 93T248 66L271 -15Q225 -15 189 8T132 72T111
164ZM341 344Q341 386 315 412T248 439L271 520Q317 520 353 497T411 434T432 344H341ZM111 342Q111 393 132 433T189 497T271 520L248 439Q205 439 178 412T151 342H111Z" />
<glyph unicode="q" horiz-adv-x="477" d="M417 1V-200H326V1H417ZM326 505H417V0H326V505ZM45 344H136V161H45V344ZM136 161Q136 119 162 93T230 66L207 -15Q160 -15 124 8T66 71T45 161H136ZM366 164Q366 113 346 73T289 9T207 -15L230 66Q272 66 299 93T326
164H366ZM136 344H45Q45 394 66 434T123 497T207 520L230 439Q189 439 163 413T136 344ZM366 342H326Q326 385 299 412T230 439L207 520Q252 520 288 497T345 434T366 342Z" />
<glyph unicode="r" horiz-adv-x="337" d="M60 0V505H151V0H60ZM110 338Q110 389 127 429T173 493T239 516L231 431Q196 431 174 405T151 338H110ZM291 408Q279 418 263 424T231 431L239 516Q262 516 284 508T322 484L291 408Z" />
<glyph unicode="s" horiz-adv-x="424" d="M299 130Q299 155 281 171T235 201T175 229T115 261T68 308T50 378Q50 378 58 378T80 378T107 378T129 378T138 378Q138 353 156 337T202 307T263 280T323 246T369 200T388 130Q388 130 379 130T357 130T330 130T308 130T299
130ZM214 -15V64Q251 64 275 82T299 130H388Q388 88 366 55T304 4T214 -15ZM50 378Q50 419 70 451T128 502T210 521V442Q179 442 159 424T138 378H50ZM119 151Q124 107 151 86T214 64V-15Q168 -15 129 4T66 57T35 134L119 151ZM304 355Q299 400 273 421T210 442V521Q257
521 295 502T358 450T389 372L304 355Z" />
<glyph unicode="t" horiz-adv-x="354" d="M93 153V706L184 705V153H93ZM35 430V505H310V430H35ZM93 154H184Q184 125 192 105T215 75T251 64L243 -15Q173 -15 133 29T93 154ZM298 81L334 16Q314 1 291 -7T243 -15L251 64Q264 64 275 68T298 81Z" />
<glyph unicode="u" horiz-adv-x="477" d="M417 505V0H326V505H417ZM136 505V161H45V505H136ZM136 161Q136 119 162 93T230 66L207 -15Q160 -15 124 8T66 71T45 161H136ZM366 164Q366 113 346 73T289 9T207 -15L230 66Q272 66 299 93T326 164H366Z" />
<glyph unicode="v" horiz-adv-x="480" d="M203 0L359 505H450L287 0H203ZM194 0L30 505H121L277 0H194Z" />
<glyph unicode="w" horiz-adv-x="699" d="M450 0L578 505H669L534 0H450ZM165 0L30 505H121L249 0H165ZM179 0L309 505H389L257 0H179ZM443 0L310 505H390L520 0H443Z" />
<glyph unicode="x" horiz-adv-x="448" d="M321 0L30 505H127L418 0H321ZM30 0L176 253H272L127 0H30ZM176 253L321 505H418L272 253H176Z" />
<glyph unicode="y" horiz-adv-x="481" d="M64 -185L83 -110Q122 -120 148 -105T189 -43H273Q243 -137 191 -171T64 -185ZM189 -43L360 505H451L273 -43H189ZM206 -37L30 505H121L251 90L206 -37Z" />
<glyph unicode="z" horiz-adv-x="435" d="M55 81L280 425H380L156 81H55ZM55 0V81H380V0H55ZM55 425V505H380V425H55Z" />
<glyph unicode="{" horiz-adv-x="328" d="M144 481V601H235V481H144ZM144 50V171H235V50H144ZM144 601Q144 657 168 701T233 770T328 796V717Q284 717 260 687T235 601H144ZM144 50H235Q235 -4 259 -35T328 -66V-145Q275 -145 234 -120T168 -50T144 50ZM235 481Q235
426 211 382T145 312T50 286V365Q95 365 119 395T144 481H235ZM235 170H144Q144 226 120 256T50 287V365Q103 365 144 340T210 271T235 170Z" />
<glyph unicode="|" horiz-adv-x="228" d="M70 -93V787H158V-93H70Z" />
<glyph unicode="}" horiz-adv-x="328" d="M185 481H94V601H185V481ZM185 50H94V171H185V50ZM185 601H94Q94 657 70 687T0 717V796Q53 796 94 771T160 701T185 601ZM185 50Q185 -5 161 -49T95 -119T0 -145V-66Q45 -66 69 -35T94 50H185ZM94 481H185Q185 426 209
396T278 365V286Q225 286 184 311T118 381T94 481ZM94 170Q94 227 118 270T183 339T278 365V287Q234 287 210 257T185 170H94Z" />
<glyph unicode="~" horiz-adv-x="482" d="M333 223Q306 223 286 231T249 251T217 275T186 295T149 303V372Q176 372 196 364T233 344T265 320T296 300T333 292V223ZM30 260Q31 311 63 341T149 372V303Q127 303 115 292T102 260H30ZM333 223V292Q356 292 367 303T380
335H452Q451 284 419 254T333 223Z" />
<glyph unicode="&#xa0;" horiz-adv-x="188" />
<glyph unicode="&#xa1;" horiz-adv-x="219" d="M109 704Q134 704 151 688T169 645Q169 620 152 603T109 585Q84 585 67 602T50 645Q50 671 67 687T109 704ZM72 489H146L155 -5H64L72 489Z" />
<glyph unicode="&#xa2;" horiz-adv-x="394" d="M172 5V142H245V5H172ZM171 535V672H245V535H171ZM45 273V406H127V273H45ZM45 405Q45 456 66 495T125 558T210 581V510Q171 510 149 483T127 405H45ZM295 432Q290 472 266 491T210 510V581Q252 581 286 564T342 516T371
447L295 432ZM45 274H127Q127 224 149 196T210 168V98Q163 98 126 121T67 183T45 274ZM295 247L371 232Q365 192 343 162T286 115T210 98V168Q242 168 266 187T295 247Z" />
<glyph unicode="&#xa3;" horiz-adv-x="523" d="M163 492Q163 594 220 651T378 709L372 631Q335 632 309 616T269 568T254 492H163ZM66 0V79H483V0H66ZM163 178V492H254V178H163ZM73 318V393H410V318H73ZM443 609Q426 621 409 626T372 631L378 709Q409 709 436
701T482 678L443 609ZM254 179Q254 128 230 88T164 24T69 0V79Q110 79 136 107T163 179H254Z" />
<glyph unicode="&#xa4;" horiz-adv-x="524" d="M369 399L314 454L419 559L474 503L369 399ZM105 135L50 190L155 295L210 240L105 135ZM155 399L50 503L105 559L210 454L155 399ZM419 135L314 240L369 295L474 190L419 135ZM263 193V267Q296 267 317 290T338 347H420Q420
304 400 269T344 213T263 193ZM263 193Q218 193 183 213T128 268T107 347H188Q188 313 209 290T263 267V193ZM107 347Q107 391 127 426T183 481T263 501V427Q231 427 210 405T188 347H107ZM338 347Q338 382 317 404T263 427V501Q308 501 343 481T399 426T420 347H338Z"
/>
<glyph unicode="&#xa5;" horiz-adv-x="526" d="M65 274V344H442V274H65ZM65 153V223H442V153H65ZM223 243L381 705H466L309 243H223ZM223 0V243H309V0H223ZM223 243L65 705H159L309 243H223Z" />
<glyph unicode="&#xa6;" horiz-adv-x="228" d="M70 387V777H158V387H70ZM70 -103V287H158V-103H70Z" />
<glyph unicode="&#xa7;" horiz-adv-x="429" d="M304 319Q304 343 286 359T240 390T180 418T120 450T73 497T55 566Q55 566 64 566T86 566T112 566T134 566T143 566Q143 542 161 526T208 496T268 468T328 435T375 389T393 319Q393 319 384 319T362 319T336 319T313
319T304 319ZM219 174V252Q256 252 280 271T304 319H393Q393 276 371 244T310 193T219 174ZM55 566Q55 608 76 640T133 691T215 710V631Q185 631 164 613T143 566H55ZM125 340Q130 296 156 274T219 252V174Q173 174 135 193T72 245T40 323L125 340ZM310 544Q305
589 278 610T215 631V710Q262 710 300 691T363 639T394 561L310 544ZM125 325Q125 300 143 284T189 254T250 226T310 194T356 147T375 77Q375 77 366 77T344 77T317 77T295 77T286 77Q286 102 268 118T222 148T162 175T102 209T55 256T37 325Q37 325 45 325T67
325T94 325T116 325T125 325ZM210 470V391Q174 391 150 373T125 325H37Q37 368 59 400T120 451T210 470ZM375 77Q375 36 354 4T297 -47T214 -66V13Q246 13 266 31T286 77H375ZM305 304Q300 349 274 370T210 391V470Q257 470 295 451T358 399T389 321L305 304ZM120
100Q125 56 151 35T215 13V-66Q168 -66 130 -47T67 6T36 83L120 100Z" />
<glyph unicode="&#xa8;" horiz-adv-x="396" d="M123 541Q100 541 85 556T70 594Q70 617 85 633T123 649Q146 649 162 633T178 594Q178 571 162 556T123 541ZM271 541Q248 541 233 556T218 594Q218 617 233 633T271 649Q294 649 310 633T326 594Q326 571 310 556T271 541Z" />
<glyph unicode="&#xa9;" horiz-adv-x="750" d="M631 382Q631 466 600 527T511 621T374 654V721Q475 721 549 679T664 561T705 382H631ZM374 -28Q274 -28 200 14T86 132T45 312H120Q120 228 151 167T239 73T374 39V-28ZM45 312V382H120V312H45ZM374 -28V39Q453
39 510 72T599 167T631 312H705Q705 209 664 133T549 14T374 -28ZM45 382Q45 485 85 561T200 679T374 721V654Q296 655 239 622T151 527T120 382H45ZM631 312V382H705V312H631ZM237 287V407H308V287H237ZM237 406Q237 450 256 485T308 540T383 561V499Q348 499
328 475T308 406H237ZM458 429Q454 465 433 482T382 499V561Q438 561 477 528T524 442L458 429ZM237 288H308Q308 245 328 221T383 196V134Q341 134 308 154T256 209T237 288ZM458 265L524 252Q517 200 478 167T382 134V196Q411 196 432 213T458 265Z" />
<glyph unicode="&#xaa;" horiz-adv-x="372" d="M259 319V578H327V319H259ZM167 308L173 364Q199 364 218 377T248 417T259 479L292 481Q292 430 276 391T231 330T167 308ZM167 308Q133 308 106 323T62 366T45 428L109 430Q109 402 128 383T173 364L167 308ZM45
428Q45 462 62 489T110 532T178 548L182 496Q150 496 130 478T109 430L45 428ZM182 496L178 548H294V496H182ZM259 479V576H292V481L259 479ZM327 576H259Q259 608 239 629T188 650V709Q228 709 259 692T309 644T327 576ZM117 585L54 598Q61 646 98 677T188 709V650Q161
650 141 634T117 585Z" />
<glyph unicode="&#xab;" horiz-adv-x="564" d="M99 209V315L316 496V396L99 209ZM99 192L20 253L99 315V192ZM316 11L99 192V297L316 110V11ZM327 209V315L544 496V396L327 209ZM327 192L248 253L327 315V192ZM544 11L327 192V297L544 110V11Z" />
<glyph unicode="&#xac;" horiz-adv-x="473" d="M35 345V426H438V345H35ZM347 216V426H438V216H347Z" />
<glyph unicode="&#xad;" horiz-adv-x="383" d="M50 284V365H333V284H50Z" />
<glyph unicode="&#xae;" horiz-adv-x="498" d="M250 253Q188 253 142 279T71 354T45 467H91Q91 415 110 376T165 316T250 295V253ZM45 467V504H91V467H45ZM250 253V295Q298 295 333 316T388 376T407 467H453Q453 402 428 354T358 280T250 253ZM45 504Q46 570 71
617T142 691T250 718V677Q201 677 166 656T111 595T91 504H45ZM407 467V504H453V467H407ZM407 504Q407 556 388 595T334 655T250 677V718Q312 718 357 692T428 618T453 504H407ZM184 347V622H222V347H184ZM294 347L241 481H280L332 347H294ZM210 463V494H250V463H210ZM210
591V622H250V591H210ZM292 536V549H330V536H292ZM330 549H292Q292 568 281 579T250 591V622Q285 622 307 602T330 549ZM330 536Q330 504 308 484T250 463V494Q270 494 281 505T292 536H330Z" />
<glyph unicode="&#xaf;" horiz-adv-x="423" d="M70 643V705H353V643H70Z" />
<glyph unicode="&#xb0;" horiz-adv-x="383" d="M191 490V556Q221 556 240 576T259 629H333Q333 590 315 558T264 508T191 490ZM191 490Q151 490 119 508T69 558T50 629H124Q124 597 143 577T191 556V490ZM50 629Q50 669 68 700T119 750T191 768V701Q162 701 143
681T124 629H50ZM259 629Q259 660 240 680T191 701V768Q232 768 264 750T314 701T333 629H259Z" />
<glyph unicode="&#xb1;" horiz-adv-x="463" d="M188 198V601H275V198H188ZM30 360V441H433V360H30ZM30 50V131H433V50H30Z" />
<glyph unicode="&#xb2;" horiz-adv-x="274" d="M62 490Q62 526 73 550T102 591T137 624T166 657T178 700Q178 700 184 700T198 700T213 700T219 700Q219 667 208 645T178 607T143 576T114 540T101 490H62ZM62 453V490H219V453H62ZM93 706L55 714Q59 743 81 761T136
780V745Q119 745 107 736T93 706ZM219 700H178Q178 720 166 732T136 745V780Q171 780 195 758T219 700Z" />
<glyph unicode="&#xb3;" horiz-adv-x="274" d="M135 603V638Q152 638 163 652T174 691H215Q215 651 193 627T135 603ZM178 526V558H219V526H178ZM108 603V638H136V603H108ZM174 691Q174 713 163 727T135 741V777Q170 777 192 753T215 691H174ZM219 526Q219 492
196 469T136 446V481Q154 481 166 493T178 526H219ZM219 557H178Q178 577 166 590T136 603V638Q172 638 195 615T219 557ZM92 703L55 710Q59 740 81 758T136 777V741Q119 741 107 732T92 703ZM93 521Q96 501 108 491T137 481V446Q105 446 83 465T56 513L93 521Z"
/>
<glyph unicode="&#xb4;" horiz-adv-x="298" d="M146 557H70L135 690H228L146 557Z" />
<glyph unicode="&#xb5;" horiz-adv-x="477" d="M334 0L326 66V505H417V0H334ZM136 156Q136 114 162 88T230 61L207 -20Q160 -20 124 3T66 66T45 156H136ZM366 159Q366 108 346 68T289 4T207 -20L230 61Q272 61 299 88T326 159H366ZM45 -200V505H136V-200H45Z" />
<glyph unicode="&#xb6;" horiz-adv-x="554" d="M221 335Q169 335 127 360T60 428T35 523Q35 575 60 617T127 683T221 708V335ZM221 -200V708H307V-200H221ZM408 -200V708H494V-200H408ZM221 627V708H472V627H221Z" />
<glyph unicode="&#xb7;" horiz-adv-x="219" d="M109 289Q84 289 67 306T50 348Q50 373 67 390T109 408Q134 408 151 391T169 348Q169 323 152 306T109 289Z" />
<glyph unicode="&#xb8;" horiz-adv-x="329" d="M165 -171Q141 -171 117 -165T70 -147L91 -95Q117 -105 138 -107T171 -101T176 -66H258Q265 -117 240 -144T165 -171ZM176 -66Q170 -43 163 -27T147 5H230Q239 -8 246 -24T258 -66H176Z" />
<glyph unicode="&#xb9;" horiz-adv-x="176" d="M80 453V770H121V453H80ZM42 677L18 702L80 770V718L42 677Z" />
<glyph unicode="&#xba;" horiz-adv-x="369" d="M256 464V575H324V464H256ZM45 464V575H114V464H45ZM182 661V720H187V661H182ZM182 319V378H187V319H182ZM45 574Q45 616 63 649T113 701T184 720V661Q150 661 132 638T114 574H45ZM324 574H256Q256 615 238 638T186
661V720Q225 720 256 701T306 649T324 574ZM45 465H114Q114 424 132 401T184 378V319Q144 319 113 338T64 390T45 465ZM324 465Q324 423 306 390T257 338T186 319V378Q219 378 237 401T256 465H324Z" />
<glyph unicode="&#xbb;" horiz-adv-x="564" d="M465 209L248 396V496L465 315V209ZM465 192V315L544 253L465 192ZM248 11V110L465 297V192L248 11ZM238 209L20 396V496L238 315V209ZM238 192V315L316 253L238 192ZM20 11V110L238 297V192L20 11Z" />
<glyph unicode="&#xbc;" horiz-adv-x="783" d="M109 297V762H169V297H109ZM54 626L18 663L109 762V686L54 626ZM174 -15L485 791H543L232 -15H174ZM457 151L577 465H636L517 151H457ZM457 97V151H728V97H457ZM621 0V263H678V0H621Z" />
<glyph unicode="&#xbd;" horiz-adv-x="792" d="M109 297V762H169V297H109ZM54 626L18 663L109 762V686L54 626ZM174 -15L485 791H543L232 -15H174ZM506 54Q507 107 524 142T567 203T618 251T660 300T677 363Q677 363 686 363T707 363T728 363T737 363Q737 314
720 282T677 226T626 179T583 127T564 54H506ZM506 0V54H736V0H506ZM553 371L498 382Q504 426 536 453T615 481V429Q592 429 574 415T553 371ZM737 363H677Q677 391 660 410T614 429V481Q650 481 677 466T721 423T737 363Z" />
<glyph unicode="&#xbe;" horiz-adv-x="911" d="M173 516V567Q198 567 214 589T230 646H290Q290 588 258 552T173 516ZM237 404V450H297V404H237ZM133 516V567H174V516H133ZM230 645Q230 678 214 699T173 720V772Q225 772 257 737T290 645H230ZM297 404Q297 371
281 344T237 302T174 286V339Q202 339 219 357T237 404H297ZM297 449H237Q237 478 220 497T174 516V567Q209 567 237 552T281 510T297 449ZM111 663L55 674Q61 717 94 744T174 772V720Q149 720 132 706T111 663ZM112 396Q116 367 133 353T175 339V286Q128 286 96
314T57 385L112 396ZM302 -15L613 791H671L360 -15H302ZM585 151L705 465H764L645 151H585ZM585 97V151H856V97H585ZM749 0V263H806V0H749Z" />
<glyph unicode="&#xbf;" horiz-adv-x="435" d="M242 709Q267 709 284 693T301 650Q301 625 284 608T242 590Q217 590 199 607T181 650Q181 676 199 692T242 709ZM285 506Q285 448 270 407T234 335T190 279T153 226T138 163Q138 115 162 91T233 66Q258 66 275 75T300
104T309 151H400Q400 102 379 65T320 7T233 -15Q179 -15 138 8T74 70T50 163Q50 205 65 235T102 292T145 346T182 413T197 506H285ZM285 529V506H197V529H285Z" />
<glyph unicode="&#xc0;" horiz-adv-x="496" d="M131 141V219H387V141H131ZM292 705L120 0H30L202 705H292ZM294 705L466 0H377L204 705H294ZM195 757L113 890H206L271 757H195Z" />
<glyph unicode="&#xc1;" horiz-adv-x="496" d="M131 141V219H387V141H131ZM292 705L120 0H30L202 705H292ZM294 705L466 0H377L204 705H294ZM262 757H186L251 890H344L262 757Z" />
<glyph unicode="&#xc2;" horiz-adv-x="496" d="M131 141V219H387V141H131ZM292 705L120 0H30L202 705H292ZM294 705L466 0H377L204 705H294ZM199 895H275L210 762H117L199 895ZM291 895L373 762H280L215 895H291Z" />
<glyph unicode="&#xc3;" horiz-adv-x="496" d="M131 141V219H387V141H131ZM292 705L120 0H30L202 705H292ZM294 705L466 0H377L204 705H294ZM299 789Q277 789 264 796T240 812T219 828T192 835V890Q213 890 227 883T251 867T272 851T299 844V789ZM105 800Q105
842 128 866T192 890V835Q180 835 173 826T166 800H105ZM299 789V844Q311 844 318 853T325 879H386Q386 837 363 813T299 789Z" />
<glyph unicode="&#xc4;" horiz-adv-x="496" d="M131 141V219H387V141H131ZM292 705L120 0H30L202 705H292ZM294 705L466 0H377L204 705H294ZM170 766Q147 766 132 781T117 819Q117 842 132 858T170 874Q193 874 209 858T225 819Q225 796 209 781T170 766ZM318
766Q295 766 280 781T265 819Q265 842 280 858T318 874Q341 874 357 858T373 819Q373 796 357 781T318 766Z" />
<glyph unicode="&#xc5;" horiz-adv-x="496" d="M131 141V219H387V141H131ZM292 705L120 0H30L202 705H292ZM294 705L466 0H377L204 705H294ZM274 847Q274 860 266 868T246 877V930Q283 930 307 907T332 847H274ZM246 764Q209 764 184 788T159 847H217Q217 835
225 826T246 817V764ZM246 764V817Q258 817 266 826T274 847H332Q332 812 308 788T246 764ZM159 847Q159 883 184 906T246 930V877Q233 877 225 869T217 847H159Z" />
<glyph unicode="&#xc6;" horiz-adv-x="714" d="M249 626L257 705H420L411 626H249ZM110 146L114 220H394L390 146H110ZM30 0L218 705H307L120 0H30ZM413 311V392H614V311H413ZM347 705H438V0H347V705ZM408 705H664V626H408V705ZM398 0V79H674V0H398Z" />
<glyph unicode="&#xc7;" horiz-adv-x="480" d="M50 171V534H141V171H50ZM50 534Q50 589 75 631T145 697T248 721V642Q198 642 170 614T141 534H50ZM50 172H141Q141 120 169 92T248 63V-16Q190 -16 145 8T75 74T50 172ZM367 508Q361 571 330 606T247 642V721Q332
721 385 669T450 525L367 508ZM367 197L450 181Q439 88 386 36T247 -16V63Q298 63 329 98T367 197ZM280 -171Q256 -171 232 -165T185 -147L206 -95Q232 -105 253 -107T286 -101T291 -66H373Q380 -117 355 -144T280 -171ZM291 -66Q285 -43 278 -27T262 5H345Q354
-8 361 -24T373 -66H291Z" />
<glyph unicode="&#xc8;" horiz-adv-x="428" d="M111 0V79H388V0H111ZM126 311V392H328V311H126ZM60 705H151V0H60V705ZM121 705H378V626H121V705ZM164 757L82 890H175L240 757H164Z" />
<glyph unicode="&#xc9;" horiz-adv-x="428" d="M60 705H151V0H60V705ZM121 705H378V626H121V705ZM126 311V392H328V311H126ZM111 0V79H388V0H111ZM230 757H154L219 890H312L230 757Z" />
<glyph unicode="&#xca;" horiz-adv-x="428" d="M60 705H151V0H60V705ZM121 705H378V626H121V705ZM126 311V392H328V311H126ZM111 0V79H388V0H111ZM167 895H243L178 762H85L167 895ZM259 895L341 762H248L183 895H259Z" />
<glyph unicode="&#xcb;" horiz-adv-x="428" d="M111 0V79H388V0H111ZM126 311V392H328V311H126ZM60 705H151V0H60V705ZM121 705H378V626H121V705ZM139 766Q116 766 101 781T86 819Q86 842 101 858T139 874Q162 874 178 858T194 819Q194 796 178 781T139 766ZM287
766Q264 766 249 781T234 819Q234 842 249 858T287 874Q310 874 326 858T342 819Q342 796 326 781T287 766Z" />
<glyph unicode="&#xcc;" horiz-adv-x="231" d="M70 0V705H161V0H70ZM66 757L-16 890H77L142 757H66Z" />
<glyph unicode="&#xcd;" horiz-adv-x="231" d="M70 0V705H161V0H70ZM132 757H56L121 890H214L132 757Z" />
<glyph unicode="&#xce;" horiz-adv-x="231" d="M70 0V705H161V0H70ZM69 895H145L80 762H-13L69 895ZM161 895L243 762H150L85 895H161Z" />
<glyph unicode="&#xcf;" horiz-adv-x="231" d="M70 0V705H161V0H70ZM41 766Q18 766 3 781T-12 819Q-12 842 3 858T41 874Q64 874 80 858T96 819Q96 796 80 781T41 766ZM189 766Q166 766 151 781T136 819Q136 842 151 858T189 874Q212 874 228 858T244 819Q244
796 228 781T189 766Z" />
<glyph unicode="&#xd0;" horiz-adv-x="475" d="M329 187V518H420V187H329ZM124 0V79H223V0H124ZM124 626V705H223V626H124ZM124 626V705H223V626H124ZM420 518H329Q329 570 301 598T223 626V705Q281 705 325 682T395 616T420 518ZM420 188Q420 132 395 90T326
24T223 0V79Q273 79 301 107T329 188H420ZM60 0V705H151V0H60ZM225 321V386H478V321H225Z" />
<glyph unicode="&#xd1;" horiz-adv-x="534" d="M359 0L77 705H166L448 0H359ZM60 0V705H151V0H60ZM383 0V705H474V0H383ZM301 789Q279 789 266 796T242 812T221 828T194 835V890Q215 890 229 883T253 867T274 851T301 844V789ZM107 800Q107 842 130 866T194 890V835Q182
835 175 826T168 800H107ZM301 789V844Q313 844 320 853T327 879H388Q388 837 365 813T301 789Z" />
<glyph unicode="&#xd2;" horiz-adv-x="505" d="M359 172V534H450V172H359ZM55 172V534H146V172H55ZM450 533H359Q359 585 331 613T252 641V720Q311 720 355 697T425 631T450 533ZM55 533Q55 588 80 630T150 696T253 720V641Q203 641 175 613T146 533H55ZM450 173Q450
117 425 75T356 9T252 -15V64Q302 64 330 92T359 173H450ZM55 173H146Q146 121 174 93T253 64V-15Q195 -15 150 9T80 75T55 173ZM202 757L120 890H213L278 757H202Z" />
<glyph unicode="&#xd3;" horiz-adv-x="505" d="M359 172V534H450V172H359ZM55 172V534H146V172H55ZM450 533H359Q359 585 331 613T252 641V720Q311 720 355 697T425 631T450 533ZM55 533Q55 588 80 630T150 696T253 720V641Q203 641 175 613T146 533H55ZM450 173Q450
117 425 75T356 9T252 -15V64Q302 64 330 92T359 173H450ZM55 173H146Q146 121 174 93T253 64V-15Q195 -15 150 9T80 75T55 173ZM269 757H193L258 890H351L269 757Z" />
<glyph unicode="&#xd4;" horiz-adv-x="505" d="M359 172V534H450V172H359ZM55 172V534H146V172H55ZM450 533H359Q359 585 331 613T252 641V720Q311 720 355 697T425 631T450 533ZM55 533Q55 588 80 630T150 696T253 720V641Q203 641 175 613T146 533H55ZM450 173Q450
117 425 75T356 9T252 -15V64Q302 64 330 92T359 173H450ZM55 173H146Q146 121 174 93T253 64V-15Q195 -15 150 9T80 75T55 173ZM206 895H282L217 762H124L206 895ZM298 895L380 762H287L222 895H298Z" />
<glyph unicode="&#xd5;" horiz-adv-x="505" d="M359 172V534H450V172H359ZM55 172V534H146V172H55ZM450 533H359Q359 585 331 613T252 641V720Q311 720 355 697T425 631T450 533ZM55 533Q55 588 80 630T150 696T253 720V641Q203 641 175 613T146 533H55ZM450 173Q450
117 425 75T356 9T252 -15V64Q302 64 330 92T359 173H450ZM55 173H146Q146 121 174 93T253 64V-15Q195 -15 150 9T80 75T55 173ZM306 789Q284 789 271 796T247 812T226 828T199 835V890Q220 890 234 883T258 867T279 851T306 844V789ZM112 800Q112 842 135 866T199
890V835Q187 835 180 826T173 800H112ZM306 789V844Q318 844 325 853T332 879H393Q393 837 370 813T306 789Z" />
<glyph unicode="&#xd6;" horiz-adv-x="505" d="M359 172V534H450V172H359ZM55 172V534H146V172H55ZM450 533H359Q359 585 331 613T252 641V720Q311 720 355 697T425 631T450 533ZM55 533Q55 588 80 630T150 696T253 720V641Q203 641 175 613T146 533H55ZM450 173Q450
117 425 75T356 9T252 -15V64Q302 64 330 92T359 173H450ZM55 173H146Q146 121 174 93T253 64V-15Q195 -15 150 9T80 75T55 173ZM177 766Q154 766 139 781T124 819Q124 842 139 858T177 874Q200 874 216 858T232 819Q232 796 216 781T177 766ZM325 766Q302 766
287 781T272 819Q272 842 287 858T325 874Q348 874 364 858T380 819Q380 796 364 781T325 766Z" />
<glyph unicode="&#xd7;" horiz-adv-x="403" d="M312 153L31 434L92 496L373 214L312 153ZM88 153L30 211L315 496L372 438L88 153Z" />
<glyph unicode="&#xd8;" horiz-adv-x="505" d="M359 172V534H450V172H359ZM55 172V534H146V172H55ZM450 533H359Q359 585 331 613T252 641V720Q311 720 355 697T425 631T450 533ZM55 533Q55 588 80 630T150 696T253 720V641Q203 641 175 613T146 533H55ZM450 173Q450
117 425 75T356 9T252 -15V64Q302 64 330 92T359 173H450ZM55 173H146Q146 121 174 93T253 64V-15Q195 -15 150 9T80 75T55 173ZM88 -50L358 756H415L145 -50H88Z" />
<glyph unicode="&#xd9;" horiz-adv-x="513" d="M362 171V705H453V171H362ZM60 171V705H151V171H60ZM453 172Q453 117 428 75T359 9T256 -15V64Q306 64 334 92T362 172H453ZM60 172H151Q151 121 179 93T258 64V-15Q200 -15 155 8T85 74T60 172ZM207 757L125 890H218L283
757H207Z" />
<glyph unicode="&#xda;" horiz-adv-x="513" d="M362 171V705H453V171H362ZM60 171V705H151V171H60ZM453 172Q453 117 428 75T359 9T256 -15V64Q306 64 334 92T362 172H453ZM60 172H151Q151 121 179 93T258 64V-15Q200 -15 155 8T85 74T60 172ZM273 757H197L262
890H355L273 757Z" />
<glyph unicode="&#xdb;" horiz-adv-x="513" d="M362 171V705H453V171H362ZM60 171V705H151V171H60ZM453 172Q453 117 428 75T359 9T256 -15V64Q306 64 334 92T362 172H453ZM60 172H151Q151 121 179 93T258 64V-15Q200 -15 155 8T85 74T60 172ZM210 895H286L221
762H128L210 895ZM302 895L384 762H291L226 895H302Z" />
<glyph unicode="&#xdc;" horiz-adv-x="513" d="M362 171V705H453V171H362ZM60 171V705H151V171H60ZM453 172Q453 117 428 75T359 9T256 -15V64Q306 64 334 92T362 172H453ZM60 172H151Q151 121 179 93T258 64V-15Q200 -15 155 8T85 74T60 172ZM182 766Q159 766
144 781T129 819Q129 842 144 858T182 874Q205 874 221 858T237 819Q237 796 221 781T182 766ZM330 766Q307 766 292 781T277 819Q277 842 292 858T330 874Q353 874 369 858T385 819Q385 796 369 781T330 766Z" />
<glyph unicode="&#xdd;" horiz-adv-x="461" d="M188 243L345 705H431L274 243H188ZM188 0V243H274V0H188ZM188 243L30 705H124L274 243H188ZM247 762H171L236 895H329L247 762Z" />
<glyph unicode="&#xde;" horiz-adv-x="445" d="M116 489V568H218V489H116ZM116 137V215H218V137H116ZM324 323V380H415V323H324ZM415 380H324Q324 432 296 460T218 489V568Q276 568 320 544T390 478T415 380ZM415 324Q415 269 390 227T321 161T218 137V215Q268
215 296 244T324 324H415ZM60 0V705H151V0H60Z" />
<glyph unicode="&#xdf;" horiz-adv-x="499" d="M60 0V517H146V0H60ZM203 -4L216 72H270V-4H203ZM206 314V390H267V314H206ZM368 177V210H454V177H368ZM343 495V518H429V495H343ZM60 517Q60 573 83 613T147 676T245 698V622Q199 622 173 594T146 517H60ZM429 517H343Q343
565 317 593T244 622V698Q301 698 342 676T406 614T429 517ZM429 496Q429 440 406 400T342 337T244 314V390Q290 390 316 418T343 496H429ZM454 209H368Q368 257 342 285T269 314V390Q326 390 367 368T431 306T454 209ZM454 178Q454 122 431 82T367 19T269 -4V72Q315
72 341 100T368 178H454Z" />
<glyph unicode="&#xe0;" horiz-adv-x="466" d="M330 0V344H421V0H330ZM208 -15L215 60Q251 60 276 78T316 131T330 214L375 216Q375 148 353 96T294 15T208 -15ZM208 -15Q163 -15 126 6T67 63T45 145L131 148Q131 110 156 85T215 60L208 -15ZM45 145Q45 192 68
227T132 284T223 305L228 235Q186 235 159 211T131 148L45 145ZM228 235L223 305H377V235H228ZM330 214V343H375V216L330 214ZM421 342H330Q330 386 304 414T235 442V520Q289 520 330 497T396 434T421 342ZM141 354L57 371Q63 416 87 449T150 501T236 520V442Q199
442 173 421T141 354ZM179 565L97 698H190L255 565H179Z" />
<glyph unicode="&#xe1;" horiz-adv-x="466" d="M330 0V344H421V0H330ZM208 -15L215 60Q251 60 276 78T316 131T330 214L375 216Q375 148 353 96T294 15T208 -15ZM208 -15Q163 -15 126 6T67 63T45 145L131 148Q131 110 156 85T215 60L208 -15ZM45 145Q45 192 68
227T132 284T223 305L228 235Q186 235 159 211T131 148L45 145ZM228 235L223 305H377V235H228ZM330 214V343H375V216L330 214ZM421 342H330Q330 386 304 414T235 442V520Q289 520 330 497T396 434T421 342ZM141 354L57 371Q63 416 87 449T150 501T236 520V442Q199
442 173 421T141 354ZM246 565H170L235 698H328L246 565Z" />
<glyph unicode="&#xe2;" horiz-adv-x="466" d="M330 0V344H421V0H330ZM208 -15L215 60Q251 60 276 78T316 131T330 214L375 216Q375 148 353 96T294 15T208 -15ZM208 -15Q163 -15 126 6T67 63T45 145L131 148Q131 110 156 85T215 60L208 -15ZM45 145Q45 192 68
227T132 284T223 305L228 235Q186 235 159 211T131 148L45 145ZM228 235L223 305H377V235H228ZM330 214V343H375V216L330 214ZM421 342H330Q330 386 304 414T235 442V520Q289 520 330 497T396 434T421 342ZM141 354L57 371Q63 416 87 449T150 501T236 520V442Q199
442 173 421T141 354ZM183 703H259L194 570H101L183 703ZM275 703L357 570H264L199 703H275Z" />
<glyph unicode="&#xe3;" horiz-adv-x="466" d="M330 0V344H421V0H330ZM208 -15L215 60Q251 60 276 78T316 131T330 214L375 216Q375 148 353 96T294 15T208 -15ZM208 -15Q163 -15 126 6T67 63T45 145L131 148Q131 110 156 85T215 60L208 -15ZM45 145Q45 192 68
227T132 284T223 305L228 235Q186 235 159 211T131 148L45 145ZM228 235L223 305H377V235H228ZM330 214V343H375V216L330 214ZM421 342H330Q330 386 304 414T235 442V520Q289 520 330 497T396 434T421 342ZM141 354L57 371Q63 416 87 449T150 501T236 520V442Q199
442 173 421T141 354ZM283 597Q261 597 248 604T224 620T203 636T176 643V698Q197 698 211 691T235 675T256 659T283 652V597ZM89 608Q89 650 112 674T176 698V643Q164 643 157 634T150 608H89ZM283 597V652Q295 652 302 661T309 687H370Q370 645 347 621T283 597Z"
/>
<glyph unicode="&#xe4;" horiz-adv-x="466" d="M330 0V344H421V0H330ZM208 -15L215 60Q251 60 276 78T316 131T330 214L375 216Q375 148 353 96T294 15T208 -15ZM208 -15Q163 -15 126 6T67 63T45 145L131 148Q131 110 156 85T215 60L208 -15ZM45 145Q45 192 68
227T132 284T223 305L228 235Q186 235 159 211T131 148L45 145ZM228 235L223 305H377V235H228ZM330 214V343H375V216L330 214ZM421 342H330Q330 386 304 414T235 442V520Q289 520 330 497T396 434T421 342ZM141 354L57 371Q63 416 87 449T150 501T236 520V442Q199
442 173 421T141 354ZM154 574Q131 574 116 589T101 627Q101 650 116 666T154 682Q177 682 193 666T209 627Q209 604 193 589T154 574ZM302 574Q279 574 264 589T249 627Q249 650 264 666T302 682Q325 682 341 666T357 627Q357 604 341 589T302 574Z" />
<glyph unicode="&#xe5;" horiz-adv-x="466" d="M330 0V344H421V0H330ZM208 -15L215 60Q251 60 276 78T316 131T330 214L375 216Q375 148 353 96T294 15T208 -15ZM208 -15Q163 -15 126 6T67 63T45 145L131 148Q131 110 156 85T215 60L208 -15ZM45 145Q45 192 68
227T132 284T223 305L228 235Q186 235 159 211T131 148L45 145ZM228 235L223 305H377V235H228ZM330 214V343H375V216L330 214ZM421 342H330Q330 386 304 414T235 442V520Q289 520 330 497T396 434T421 342ZM141 354L57 371Q63 416 87 449T150 501T236 520V442Q199
442 173 421T141 354ZM258 654Q258 667 250 675T230 684V737Q267 737 291 714T316 654H258ZM230 571Q193 571 168 595T143 654H201Q201 642 209 633T230 624V571ZM230 571V624Q242 624 250 633T258 654H316Q316 619 292 595T230 571ZM143 654Q143 690 168 713T230
737V684Q217 684 209 676T201 654H143Z" />
<glyph unicode="&#xe6;" horiz-adv-x="763" d="M225 -15L233 60Q271 60 294 72T329 113T340 186L413 189Q413 131 388 85T321 12T225 -15ZM208 -15L215 60Q251 60 276 78T316 131T330 214L375 216Q375 148 353 96T294 15T208 -15ZM208 -15Q163 -15 126 6T67 63T45
145L131 148Q131 110 156 85T215 60L208 -15ZM45 145Q45 192 68 227T132 284T223 305L228 235Q186 235 159 211T131 148L45 145ZM228 235L223 305H377V235H228ZM330 214V343H375V216L330 214ZM421 342H330Q330 386 304 414T235 442V520Q289 520 330 497T396 434T421
342ZM141 354L57 371Q63 416 87 449T150 501T236 520V442Q199 442 173 421T141 354ZM386 225V290H728V225H386ZM541 -16V63H547V-16H541ZM358 179V326H449V179H358ZM637 290V342H728V290H637ZM728 342H637Q637 386 610 414T542 442V520Q595 520 637 497T703 434T728
342ZM641 150L725 133Q719 90 695 56T632 3T546 -16V63Q583 63 609 84T641 150ZM358 325Q358 382 382 425T447 494T542 520V442Q498 442 474 412T449 325H358ZM358 179H449Q449 124 473 94T542 63V-16Q489 -16 448 9T382 79T358 179Z" />
<glyph unicode="&#xe7;" horiz-adv-x="431" d="M45 178V327H136V178H45ZM45 326Q45 382 69 426T135 495T230 521V442Q186 442 161 412T136 326H45ZM323 355Q318 400 292 421T229 442V521Q276 521 314 502T377 450T408 372L323 355ZM45 179H136Q136 124 161 94T230
63V-16Q177 -16 136 9T70 79T45 179ZM323 150L408 133Q402 90 377 56T314 3T229 -16V63Q265 63 291 84T323 150ZM264 -171Q240 -171 216 -165T169 -147L190 -95Q216 -105 237 -107T270 -101T275 -66H357Q364 -117 339 -144T264 -171ZM275 -66Q269 -43 262 -27T246
5H329Q338 -8 345 -24T357 -66H275Z" />
<glyph unicode="&#xe8;" horiz-adv-x="440" d="M64 225V290H405V225H64ZM219 -16V63H224V-16H219ZM35 179V326H126V179H35ZM314 290V342H405V290H314ZM405 342H314Q314 386 288 414T219 442V520Q273 520 314 497T380 434T405 342ZM318 150L403 133Q397 90 372
56T309 3T224 -16V63Q260 63 286 84T318 150ZM35 325Q35 382 59 425T125 494T220 520V442Q176 442 151 412T126 325H35ZM35 179H126Q126 124 151 94T220 63V-16Q167 -16 126 9T60 79T35 179ZM168 557L86 690H179L244 557H168Z" />
<glyph unicode="&#xe9;" horiz-adv-x="440" d="M64 225V290H405V225H64ZM219 -16V63H224V-16H219ZM35 179V326H126V179H35ZM314 290V342H405V290H314ZM405 342H314Q314 386 288 414T219 442V520Q273 520 314 497T380 434T405 342ZM318 150L403 133Q397 90 372
56T309 3T224 -16V63Q260 63 286 84T318 150ZM35 325Q35 382 59 425T125 494T220 520V442Q176 442 151 412T126 325H35ZM35 179H126Q126 124 151 94T220 63V-16Q167 -16 126 9T60 79T35 179ZM235 557H159L224 690H317L235 557Z" />
<glyph unicode="&#xea;" horiz-adv-x="440" d="M64 225V290H405V225H64ZM219 -16V63H224V-16H219ZM35 179V326H126V179H35ZM314 290V342H405V290H314ZM405 342H314Q314 386 288 414T219 442V520Q273 520 314 497T380 434T405 342ZM318 150L403 133Q397 90 372
56T309 3T224 -16V63Q260 63 286 84T318 150ZM35 325Q35 382 59 425T125 494T220 520V442Q176 442 151 412T126 325H35ZM35 179H126Q126 124 151 94T220 63V-16Q167 -16 126 9T60 79T35 179ZM172 695H248L183 562H90L172 695ZM264 695L346 562H253L188 695H264Z"
/>
<glyph unicode="&#xeb;" horiz-adv-x="440" d="M64 225V290H405V225H64ZM219 -16V63H224V-16H219ZM35 179V326H126V179H35ZM314 290V342H405V290H314ZM405 342H314Q314 386 288 414T219 442V520Q273 520 314 497T380 434T405 342ZM318 150L403 133Q397 90 372
56T309 3T224 -16V63Q260 63 286 84T318 150ZM35 325Q35 382 59 425T125 494T220 520V442Q176 442 151 412T126 325H35ZM35 179H126Q126 124 151 94T220 63V-16Q167 -16 126 9T60 79T35 179ZM143 566Q120 566 105 581T90 619Q90 642 105 658T143 674Q166 674 182
658T198 619Q198 596 182 581T143 566ZM291 566Q268 566 253 581T238 619Q238 642 253 658T291 674Q314 674 330 658T346 619Q346 596 330 581T291 566Z" />
<glyph unicode="&#xec;" horiz-adv-x="231" d="M70 0V505H161V0H70ZM322 557L240 690H333L398 557H322Z" />
<glyph unicode="&#xed;" horiz-adv-x="231" d="M70 0V505H161V0H70ZM133 557H57L122 690H215L133 557Z" />
<glyph unicode="&#xee;" horiz-adv-x="231" d="M70 0V505H161V0H70ZM70 695H146L81 562H-12L70 695ZM162 695L244 562H151L86 695H162Z" />
<glyph unicode="&#xef;" horiz-adv-x="231" d="M70 0V505H161V0H70ZM297 566Q274 566 259 581T244 619Q244 642 259 658T297 674Q320 674 336 658T352 619Q352 596 336 581T297 566ZM445 566Q422 566 407 581T392 619Q392 642 407 658T445 674Q468 674 484 658T500
619Q500 596 484 581T445 566Z" />
<glyph unicode="&#xf0;" horiz-adv-x="452" d="M323 331Q323 396 309 459T265 588T186 722L249 758Q303 686 338 615T390 473T407 331H323ZM185 582L151 636L342 745L375 691L185 582ZM316 179V326H407V179H316ZM35 179V326H126V179H35ZM218 441V520H224V441H218ZM218
-15V64H224V-15H218ZM35 325Q35 381 59 425T125 494T220 520V441Q176 441 151 411T126 325H35ZM407 325H316Q316 381 292 411T222 441V520Q275 520 316 495T382 425T407 325ZM35 180H126Q126 125 151 95T220 64V-15Q167 -15 126 10T60 80T35 180ZM407 180Q407 124
383 80T317 11T222 -15V64Q267 64 291 94T316 180H407Z" />
<glyph unicode="&#xf1;" horiz-adv-x="477" d="M60 0V505H151V0H60ZM341 0V344H432V0H341ZM341 344Q341 386 315 412T248 439L271 520Q317 520 353 497T411 434T432 344H341ZM111 342Q111 393 132 433T189 497T271 520L248 439Q205 439 178 412T151 342H111ZM308
589Q286 589 273 596T249 612T228 628T201 635V690Q222 690 236 683T260 667T281 651T308 644V589ZM114 600Q114 642 137 666T201 690V635Q189 635 182 626T175 600H114ZM308 589V644Q320 644 327 653T334 679H395Q395 637 372 613T308 589Z" />
<glyph unicode="&#xf2;" horiz-adv-x="442" d="M316 179V326H407V179H316ZM35 179V326H126V179H35ZM218 441V520H224V441H218ZM218 -15V64H224V-15H218ZM35 325Q35 381 59 425T125 494T220 520V441Q176 441 151 411T126 325H35ZM407 325H316Q316 381 292 411T222
441V520Q275 520 316 495T382 425T407 325ZM35 180H126Q126 125 151 95T220 64V-15Q167 -15 126 10T60 80T35 180ZM407 180Q407 124 383 80T317 11T222 -15V64Q267 64 291 94T316 180H407ZM171 557L89 690H182L247 557H171Z" />
<glyph unicode="&#xf3;" horiz-adv-x="442" d="M316 179V326H407V179H316ZM35 179V326H126V179H35ZM218 441V520H224V441H218ZM218 -15V64H224V-15H218ZM35 325Q35 381 59 425T125 494T220 520V441Q176 441 151 411T126 325H35ZM407 325H316Q316 381 292 411T222
441V520Q275 520 316 495T382 425T407 325ZM35 180H126Q126 125 151 95T220 64V-15Q167 -15 126 10T60 80T35 180ZM407 180Q407 124 383 80T317 11T222 -15V64Q267 64 291 94T316 180H407ZM237 557H161L226 690H319L237 557Z" />
<glyph unicode="&#xf4;" horiz-adv-x="442" d="M316 179V326H407V179H316ZM35 179V326H126V179H35ZM218 441V520H224V441H218ZM218 -15V64H224V-15H218ZM35 325Q35 381 59 425T125 494T220 520V441Q176 441 151 411T126 325H35ZM407 325H316Q316 381 292 411T222
441V520Q275 520 316 495T382 425T407 325ZM35 180H126Q126 125 151 95T220 64V-15Q167 -15 126 10T60 80T35 180ZM407 180Q407 124 383 80T317 11T222 -15V64Q267 64 291 94T316 180H407ZM174 695H250L185 562H92L174 695ZM266 695L348 562H255L190 695H266Z"
/>
<glyph unicode="&#xf5;" horiz-adv-x="442" d="M316 179V326H407V179H316ZM35 179V326H126V179H35ZM218 441V520H224V441H218ZM218 -15V64H224V-15H218ZM35 325Q35 381 59 425T125 494T220 520V441Q176 441 151 411T126 325H35ZM407 325H316Q316 381 292 411T222
441V520Q275 520 316 495T382 425T407 325ZM35 180H126Q126 125 151 95T220 64V-15Q167 -15 126 10T60 80T35 180ZM407 180Q407 124 383 80T317 11T222 -15V64Q267 64 291 94T316 180H407ZM275 589Q253 589 240 596T216 612T195 628T168 635V690Q189 690 203 683T227
667T248 651T275 644V589ZM81 600Q81 642 104 666T168 690V635Q156 635 149 626T142 600H81ZM275 589V644Q287 644 294 653T301 679H362Q362 637 339 613T275 589Z" />
<glyph unicode="&#xf6;" horiz-adv-x="442" d="M316 179V326H407V179H316ZM35 179V326H126V179H35ZM218 441V520H224V441H218ZM218 -15V64H224V-15H218ZM35 325Q35 381 59 425T125 494T220 520V441Q176 441 151 411T126 325H35ZM407 325H316Q316 381 292 411T222
441V520Q275 520 316 495T382 425T407 325ZM35 180H126Q126 125 151 95T220 64V-15Q167 -15 126 10T60 80T35 180ZM407 180Q407 124 383 80T317 11T222 -15V64Q267 64 291 94T316 180H407ZM146 566Q123 566 108 581T93 619Q93 642 108 658T146 674Q169 674 185
658T201 619Q201 596 185 581T146 566ZM294 566Q271 566 256 581T241 619Q241 642 256 658T294 674Q317 674 333 658T349 619Q349 596 333 581T294 566Z" />
<glyph unicode="&#xf7;" horiz-adv-x="463" d="M30 307V388H433V307H30ZM231 454Q206 454 189 471T172 513Q172 538 189 555T231 573Q256 573 273 556T291 513Q291 488 274 471T231 454ZM231 120Q206 120 189 137T172 179Q172 204 189 221T231 239Q256 239 273
222T291 179Q291 154 274 137T231 120Z" />
<glyph unicode="&#xf8;" horiz-adv-x="442" d="M75 -51L308 557H365L132 -51H75ZM316 179V326H407V179H316ZM35 179V326H126V179H35ZM218 441V520H224V441H218ZM218 -15V64H224V-15H218ZM35 325Q35 381 59 425T125 494T220 520V441Q176 441 151 411T126 325H35ZM407
325H316Q316 381 292 411T222 441V520Q275 520 316 495T382 425T407 325ZM35 180H126Q126 125 151 95T220 64V-15Q167 -15 126 10T60 80T35 180ZM407 180Q407 124 383 80T317 11T222 -15V64Q267 64 291 94T316 180H407Z" />
<glyph unicode="&#xf9;" horiz-adv-x="477" d="M417 505V0H326V505H417ZM136 505V161H45V505H136ZM136 161Q136 119 162 93T230 66L207 -15Q160 -15 124 8T66 71T45 161H136ZM366 164Q366 113 346 73T289 9T207 -15L230 66Q272 66 299 93T326 164H366ZM180 557L98
690H191L256 557H180Z" />
<glyph unicode="&#xfa;" horiz-adv-x="477" d="M417 505V0H326V505H417ZM136 505V161H45V505H136ZM136 161Q136 119 162 93T230 66L207 -15Q160 -15 124 8T66 71T45 161H136ZM366 164Q366 113 346 73T289 9T207 -15L230 66Q272 66 299 93T326 164H366ZM247 557H171L236
690H329L247 557Z" />
<glyph unicode="&#xfb;" horiz-adv-x="477" d="M417 505V0H326V505H417ZM136 505V161H45V505H136ZM136 161Q136 119 162 93T230 66L207 -15Q160 -15 124 8T66 71T45 161H136ZM366 164Q366 113 346 73T289 9T207 -15L230 66Q272 66 299 93T326 164H366ZM184 695H260L195
562H102L184 695ZM276 695L358 562H265L200 695H276Z" />
<glyph unicode="&#xfc;" horiz-adv-x="477" d="M417 505V0H326V505H417ZM136 505V161H45V505H136ZM136 161Q136 119 162 93T230 66L207 -15Q160 -15 124 8T66 71T45 161H136ZM366 164Q366 113 346 73T289 9T207 -15L230 66Q272 66 299 93T326 164H366ZM156 566Q133
566 118 581T102 619Q102 642 117 658T156 674Q178 674 194 658T210 619Q210 596 194 581T156 566ZM303 566Q280 566 265 581T250 619Q250 642 265 658T303 674Q326 674 342 658T358 619Q358 596 342 581T303 566Z" />
<glyph unicode="&#xfd;" horiz-adv-x="481" d="M64 -185L83 -110Q122 -120 148 -105T189 -43H273Q243 -137 191 -171T64 -185ZM189 -43L360 505H451L273 -43H189ZM206 -37L30 505H121L251 90L206 -37ZM257 557H181L246 690H339L257 557Z" />
<glyph unicode="&#xfe;" horiz-adv-x="477" d="M60 504V705H151V504H60ZM60 1H151V-200H60V1ZM151 505V0H60V505H151ZM432 344V161H341V344H432ZM341 161H432Q432 111 411 71T354 8T271 -15L248 66Q289 66 315 92T341 161ZM111 164H151Q151 120 178 93T248 66L271
-15Q225 -15 189 8T132 72T111 164ZM341 344Q341 386 315 412T248 439L271 520Q317 520 353 497T411 434T432 344H341ZM111 342Q111 393 132 433T189 497T271 520L248 439Q205 439 178 412T151 342H111Z" />
<glyph unicode="&#xff;" horiz-adv-x="481" d="M64 -185L83 -110Q122 -120 148 -105T189 -43H273Q243 -137 191 -171T64 -185ZM189 -43L360 505H451L273 -43H189ZM206 -37L30 505H121L251 90L206 -37ZM166 566Q143 566 128 581T113 619Q113 642 128 658T166 674Q189
674 205 658T221 619Q221 596 205 581T166 566ZM314 566Q291 566 276 581T261 619Q261 642 276 658T314 674Q337 674 353 658T369 619Q369 596 353 581T314 566Z" />
<glyph unicode="&#x2013;" horiz-adv-x="439" d="M50 284V365H389V284H50Z" />
<glyph unicode="&#x2014;" horiz-adv-x="609" d="M50 284V365H559V284H50Z" />
<glyph unicode="&#x2018;" horiz-adv-x="243" d="M120 611Q146 611 162 594T179 552Q179 527 163 509T120 491Q95 491 78 509T60 552Q60 577 77 594T120 611ZM183 699Q169 678 159 663T143 633T134 602T131 562L60 552Q60 585 69 613T94 669T131 728L183 699Z" />
<glyph unicode="&#x2019;" horiz-adv-x="243" d="M60 508Q74 529 84 544T100 574T109 606T112 646L183 656Q183 623 174 594T149 538T112 480L60 508ZM122 597Q97 597 80 613T63 656Q63 681 80 698T122 716Q148 716 165 699T183 656Q183 630 166 614T122 597Z" />
<glyph unicode="&#x201a;" horiz-adv-x="223" d="M50 -77Q64 -56 74 -41T90 -11T99 21T102 61L173 71Q173 38 164 9T139 -47T102 -105L50 -77ZM112 12Q87 12 70 28T53 71Q53 96 70 113T112 131Q138 131 155 114T173 71Q173 45 156 29T112 12Z" />
<glyph unicode="&#x201c;" horiz-adv-x="403" d="M120 605Q146 605 162 588T179 546Q179 521 163 503T120 485Q95 485 78 503T60 546Q60 571 77 588T120 605ZM183 693Q169 672 159 657T143 627T134 596T131 556L60 546Q60 579 69 607T94 663T131 722L183 693ZM280
605Q306 605 322 588T339 546Q339 521 323 503T280 485Q255 485 238 503T220 546Q220 571 237 588T280 605ZM343 693Q329 672 319 657T303 627T294 596T291 556L220 546Q220 579 229 607T254 663T291 722L343 693Z" />
<glyph unicode="&#x201d;" horiz-adv-x="403" d="M220 509Q234 530 244 545T260 575T269 607T272 647L343 657Q343 624 334 595T309 539T272 481L220 509ZM282 598Q257 598 240 614T223 657Q223 682 240 699T282 717Q308 717 325 700T343 657Q343 631 326 615T282
598ZM60 509Q74 530 84 545T100 575T109 607T112 647L183 657Q183 624 174 595T149 539T112 481L60 509ZM122 598Q97 598 80 614T63 657Q63 682 80 699T122 717Q148 717 165 700T183 657Q183 631 166 615T122 598Z" />
<glyph unicode="&#x201e;" horiz-adv-x="382" d="M209 -77Q223 -56 233 -41T249 -11T258 21T261 61L332 71Q332 38 323 9T298 -47T261 -105L209 -77ZM271 12Q246 12 229 28T212 71Q212 96 229 113T271 131Q297 131 314 114T332 71Q332 45 315 29T271 12ZM50 -77Q64
-56 74 -41T90 -11T99 21T102 61L173 71Q173 38 164 9T139 -47T102 -105L50 -77ZM112 12Q87 12 70 28T53 71Q53 96 70 113T112 131Q138 131 155 114T173 71Q173 45 156 29T112 12Z" />
<glyph unicode="&#x2022;" horiz-adv-x="316" d="M157 237Q111 237 81 267T50 344Q50 375 64 399T102 438T157 453Q187 453 212 439T251 400T266 344Q266 314 252 290T212 251T157 237Z" />
<glyph unicode="&#x2039;" horiz-adv-x="336" d="M99 209V315L316 496V396L99 209ZM99 192L20 253L99 315V192ZM316 11L99 192V297L316 110V11Z" />
<glyph unicode="&#x203a;" horiz-adv-x="336" d="M238 209L20 396V496L238 315V209ZM238 192V315L316 253L238 192ZM20 11V110L238 297V192L20 11Z" />
</font>
</defs>
</svg>
