<?xml version="1.0" standalone="no"?>
<!DOCTYPE svg PUBLIC "-//W3C//DTD SVG 1.1//EN" "http://www.w3.org/Graphics/SVG/1.1/DTD/svg11.dtd">
<svg xmlns="http://www.w3.org/2000/svg">
<defs >
<font id="Nokora" horiz-adv-x="1179" ><font-face
    font-family="Nokora"
    units-per-em="2048"
    panose-1="0 0 0 0 0 0 0 0 0 0"
    ascent="1907"
    descent="-800"
    alphabetic="0" />
<glyph unicode=" " glyph-name="space" horiz-adv-x="532" />
<glyph unicode="!" glyph-name="exclam" horiz-adv-x="550" d="M333 412H217L165 1462H385L333 412ZM147 111Q147 186 184 217T274 248Q325 248 363 217T401 111Q401 37 363 4T274 -29Q221 -29 184 4T147 111Z" />
<glyph unicode="&quot;" glyph-name="quotedbl" horiz-adv-x="835" d="M328 1462L287 934H174L133 1462H328ZM702 1462L661 934H549L508 1462H702Z" />
<glyph unicode="#" glyph-name="numbersign" horiz-adv-x="1323" d="M1091 1462L1009 1028H1270V893H983L919 565H1200V428H893L809 0H663L747 428H454L375 0H231L309 428H51V565H336L401 893H127V1028H426L508 1462H655L573 1028H868L950 1462H1091ZM481 565H774L837
893H545L481 565Z" />
<glyph unicode="$" glyph-name="dollar" horiz-adv-x="1171" d="M648 109V-119H517V100Q405 102 299 119T126 168V342Q196 309 304 285T517 258V672Q314 727 220 811T126 1040Q126 1192 231 1278T517 1374V1554H648V1376Q757 1372 846 1352T1009 1300L953 1149Q888
1176 809 1195T648 1221V809Q779 771 874 726Q964 682 1010 618T1056 451Q1056 307 950 218T648 109ZM517 854V1217Q407 1208 355 1165T302 1055Q302 973 348 929T517 854ZM648 629V268Q769 281 824 325T880 438Q880 516 831 555T648 629Z" />
<glyph unicode="%" glyph-name="percent" horiz-adv-x="1701" d="M399 1483Q549 1483 627 1363T706 1026Q706 809 632 687T399 565Q254 565 177 687T100 1026Q100 1243 171 1363T399 1483ZM1335 1462L524 0H366L1177 1462H1335ZM399 1356Q321 1356 286 1273Q250
1191 250 1026Q250 862 286 778Q321 694 399 694Q557 694 557 1026Q557 1356 399 1356ZM1294 897Q1443 897 1522 777T1601 440Q1601 223 1527 102T1294 -20Q1149 -20 1072 101T995 440Q995 657 1066 777T1294 897ZM1294 768Q1216 768 1180 686Q1144 604 1144 440Q1144
275 1180 192Q1216 109 1294 109Q1452 109 1452 440Q1452 768 1294 768Z" />
<glyph unicode="&amp;" glyph-name="ampersand" horiz-adv-x="1499" d="M622 1485Q786 1485 881 1402T976 1169Q976 1040 893 950T683 786L1079 406Q1132 469 1166 552T1222 731H1404Q1372 598 1323 487T1195 291L1494 0H1251L1073 172Q976 86 858 33T569 -20Q356
-20 232 84T108 381Q108 537 193 633T423 811Q358 885 302 969T245 1165Q245 1315 345 1400T622 1485ZM616 1337Q530 1337 476 1292T421 1167Q421 1094 460 1032T573 893Q694 963 746 1024T798 1169Q798 1243 749 1290T616 1337ZM958 285L532 698Q421 633 359 566T296
387Q296 274 372 207T575 139Q706 139 799 182T958 285Z" />
<glyph unicode="&apos;" glyph-name="quotesingle" horiz-adv-x="460" d="M328 1462L287 934H174L133 1462H328Z" />
<glyph unicode="(" glyph-name="parenleft" horiz-adv-x="614" d="M81 561Q81 811 153 1043T382 1462H552Q409 1270 336 1039T263 563Q263 326 336 98T550 -324H382Q226 -143 154 85T81 561Z" />
<glyph unicode=")" glyph-name="parenright" horiz-adv-x="614" d="M532 561Q532 313 460 85T231 -324H63Q204 -131 277 97T350 563Q350 807 277 1038T61 1462H231Q387 1276 459 1044T532 561Z" />
<glyph unicode="*" glyph-name="asterisk" horiz-adv-x="1128" d="M83 1085L112 1274L501 1163L458 1556H658L618 1163L1011 1274L1039 1085L663 1055L906 731L730 635L556 993L398 635L216 731L456 1055L83 1085Z" />
<glyph unicode="+" glyph-name="plus" horiz-adv-x="1171" d="M102 795H510V1219H657V795H1065V649H657V227H510V649H102V795Z" />
<glyph unicode="," glyph-name="comma" horiz-adv-x="548" d="M185 238H378L392 215Q364 106 315 -24T216 -264H83Q103 -186 122 -97T159 79T185 238Z" />
<glyph unicode="-" glyph-name="hyphen" horiz-adv-x="659" d="M81 469V629H577V469H81Z" />
<glyph unicode="." glyph-name="period" horiz-adv-x="548" d="M147 111Q147 186 184 217T272 248Q323 248 362 217T401 111Q401 37 362 4T272 -29Q221 -29 184 4T147 111Z" />
<glyph unicode="/" glyph-name="slash" horiz-adv-x="761" d="M741 1462L196 0H20L565 1462H741Z" />
<glyph unicode="0" glyph-name="zero" horiz-adv-x="1171" d="M1071 733Q1071 494 1022 328Q973 160 865 70T583 -20Q336 -20 218 179T100 733Q100 971 148 1139Q196 1307 302 1396T583 1485Q829 1485 950 1288T1071 733ZM280 733Q280 432 348 283T583 133Q747
133 817 281T888 733Q888 1032 818 1181T583 1331Q417 1331 349 1182T280 733Z" />
<glyph unicode="1" glyph-name="one" horiz-adv-x="1171" d="M182 1155L577 1462H727V0H551V1022Q551 1110 553 1163T559 1274Q529 1244 499 1219Q485 1208 469 1193T432 1161L276 1034L182 1155Z" />
<glyph unicode="2" glyph-name="two" horiz-adv-x="1171" d="M325 172V164H1065V0H98V150L481 537Q536 592 582 641T667 733Q744 819 782 901T821 1083Q821 1204 750 1266T563 1329Q454 1329 375 1292T211 1190L114 1311Q200 1382 312 1432T563 1483Q768 1483
886 1379T1005 1094Q1005 981 958 879Q911 779 827 681T630 473L325 172Z" />
<glyph unicode="3" glyph-name="three" horiz-adv-x="1171" d="M1010 1120Q1010 973 927 886T706 770V762Q880 741 967 651T1055 416Q1055 287 996 189Q936 90 812 35T493 -20Q379 -20 281 -3T92 59V227Q184 180 290 156T495 131Q692 131 779 208T866 420Q866
557 759 617T457 678H315V831H459Q639 831 732 907T825 1108Q825 1214 754 1272T559 1331Q440 1331 356 1297T190 1208L100 1331Q178 1393 293 1438T557 1483Q786 1483 898 1381T1010 1120Z" />
<glyph unicode="4" glyph-name="four" horiz-adv-x="1171" d="M731 1470H917V494H1130V332H917V0H743V332H43V485L731 1470ZM657 1118L219 494H743V954Q743 1061 746 1135T754 1278H745Q729 1239 705 1194T657 1118Z" />
<glyph unicode="5" glyph-name="five" horiz-adv-x="1171" d="M563 897Q786 897 920 785T1055 467Q1055 240 911 110T508 -20Q393 -20 295 0T129 59V229Q203 184 308 159T510 133Q672 133 771 210T870 449Q870 592 782 668T504 745Q446 745 373 735T254 715L164
772L219 1462H952V1298H373L338 874Q373 881 432 889T563 897Z" />
<glyph unicode="6" glyph-name="six" horiz-adv-x="1171" d="M112 625Q112 782 139 934T240 1211Q313 1335 444 1409T782 1483Q825 1483 877 1479T962 1464V1311Q925 1323 878 1329T786 1335Q644 1335 550 1288T402 1159Q348 1077 323 971T292 743H305Q352 815
436 865T651 915Q841 915 958 800T1075 471Q1075 242 949 111T610 -20Q470 -20 358 50Q246 119 179 262T112 625ZM608 131Q737 131 816 214T896 471Q896 610 826 692T614 774Q517 774 446 734Q374 694 334 632T294 506Q294 419 329 331Q364 244 433 188T608 131Z"
/>
<glyph unicode="7" glyph-name="seven" horiz-adv-x="1171" d="M90 1462H1071V1323L477 0H278L878 1298H90V1462Z" />
<glyph unicode="8" glyph-name="eight" horiz-adv-x="1171" d="M583 1483Q776 1483 899 1393T1022 1133Q1022 1044 984 979Q946 913 883 863T743 774Q832 729 907 676Q981 623 1025 551T1069 379Q1069 195 938 88T589 -20Q352 -20 226 83T100 373Q100 471 142
546Q184 621 253 674T403 764Q295 825 221 912T147 1135Q147 1246 205 1323Q262 1401 360 1442T583 1483ZM581 1337Q467 1337 395 1283T323 1126Q323 1051 359 1000Q395 948 456 913T592 844Q698 889 770 952T843 1126Q843 1229 772 1283T581 1337ZM276 371Q276
264 352 194T585 123Q735 123 814 193T893 377Q893 483 809 554T585 678L553 690Q417 631 347 557T276 371Z" />
<glyph unicode="9" glyph-name="nine" horiz-adv-x="1171" d="M1065 838Q1065 680 1037 528T937 251Q864 127 732 54T393 -20Q352 -20 297 -15T208 0V154Q288 127 389 127Q532 127 625 174T774 302Q830 383 854 490T882 717H870Q823 647 739 597T522 547Q333 547
218 662T102 989Q102 1144 160 1254Q217 1364 322 1423T569 1483Q708 1483 821 1412Q934 1341 999 1199T1065 838ZM569 1331Q442 1331 361 1247T280 991Q280 850 348 769T561 688Q660 688 731 728Q802 768 842 829T882 956Q882 1045 848 1131Q814 1217 744 1274T569
1331Z" />
<glyph unicode=":" glyph-name="colon" horiz-adv-x="548" d="M147 987Q147 1065 184 1095T272 1126Q323 1126 362 1096T401 987Q401 913 362 881T272 848Q221 848 184 880T147 987ZM147 111Q147 186 184 217T272 248Q323 248 362 217T401 111Q401 37 362 4T272
-29Q221 -29 184 4T147 111Z" />
<glyph unicode=";" glyph-name="semicolon" horiz-adv-x="548" d="M143 987Q143 1065 180 1095T268 1126Q321 1126 359 1096T397 987Q397 913 359 881T268 848Q217 848 180 880T143 987ZM167 238H360L374 215Q348 106 298 -25T198 -264H63L102 -98Q122 -8 139
79T167 238Z" />
<glyph unicode="&lt;" glyph-name="less" horiz-adv-x="1171" d="M1067 1245V1085L295 721L1067 397V238L102 662V764L1067 1245Z" />
<glyph unicode="=" glyph-name="equal" horiz-adv-x="1171" d="M114 852V997H1052V852H114ZM114 444V590H1052V444H114Z" />
<glyph unicode="&gt;" glyph-name="greater" horiz-adv-x="1171" d="M102 1245L1067 764V662L102 238V397L874 719L102 1085V1245Z" />
<glyph unicode="?" glyph-name="question" horiz-adv-x="888" d="M430 446V412H286V467Q286 547 302 601Q317 657 355 707T458 815Q539 883 581 927Q626 973 644 1016T663 1120Q663 1219 600 1272T415 1325Q315 1325 237 1300T87 1239L24 1382Q106 1425 205 1454T427
1483Q622 1483 728 1387T835 1124Q835 1034 806 968Q776 904 722 850T593 733Q521 674 489 633Q454 590 442 547T430 446ZM239 111Q239 186 275 217T366 248Q417 248 454 217T491 111Q491 37 454 4T366 -29Q311 -29 275 4T239 111Z" />
<glyph unicode="@" glyph-name="at" horiz-adv-x="1841" d="M1722 731Q1722 637 1701 547T1634 384Q1588 311 1523 267T1367 223Q1273 223 1219 277T1152 401H1142Q1105 326 1034 275T853 223Q696 223 612 327T528 604Q528 736 581 842Q634 946 731 1005T962 1065Q1052
1065 1139 1050T1275 1016L1255 600Q1254 581 1254 569T1253 548V526Q1253 418 1290 384T1380 350Q1443 350 1487 403Q1531 456 1554 541T1578 733Q1578 922 1502 1055Q1426 1188 1291 1257T986 1327Q753 1327 592 1231Q431 1135 348 966T265 580Q265 276 425 115T886
-47Q1011 -47 1124 -20T1326 41V-98Q1238 -135 1129 -158T886 -182Q645 -182 472 -92Q300 -2 209 167T118 573Q118 764 178 927T350 1210Q463 1329 623 1395T986 1462Q1199 1462 1365 1374Q1531 1286 1626 1122T1722 731ZM687 600Q687 467 738 409T880 350Q995
350 1045 436T1103 659L1115 915Q1089 924 1048 930T964 936Q863 936 802 887Q741 838 714 761T687 600Z" />
<glyph unicode="A" glyph-name="A" horiz-adv-x="1308" d="M0 0L571 1468H737L1307 0H1116L940 453H360L186 0H0ZM588 1059L422 616H885L721 1059Q718 1067 713 1081T701 1118Q688 1158 674 1205T651 1278Q635 1214 618 1154T588 1059Z" />
<glyph unicode="B" glyph-name="B" horiz-adv-x="1331" d="M712 0H198V1462H616Q888 1462 1029 1380T1171 1100Q1171 971 1099 886T892 776V766Q986 749 1059 711Q1134 672 1177 600T1220 416Q1220 217 1084 109T712 0ZM624 1305H382V840H653Q839 840 909 900T980
1079Q980 1200 895 1252T624 1305ZM663 686H382V156H677Q872 156 947 231T1023 430Q1023 545 945 615T663 686Z" />
<glyph unicode="C" glyph-name="C" horiz-adv-x="1294" d="M824 1321Q589 1321 454 1164T319 731Q319 459 444 300T822 141Q917 141 1003 157T1173 199V39Q1091 8 1004 -6T796 -20Q573 -20 424 72Q274 164 199 334T124 733Q124 954 205 1123Q286 1292 443 1387T826
1483Q1056 1483 1230 1397L1156 1241Q1089 1272 1006 1296T824 1321Z" />
<glyph unicode="D" glyph-name="D" horiz-adv-x="1495" d="M1369 745Q1369 375 1168 188T606 0H198V1462H649Q868 1462 1031 1380Q1193 1298 1281 1139T1369 745ZM1175 739Q1175 1032 1031 1168T622 1305H382V158H581Q1175 158 1175 739Z" />
<glyph unicode="E" glyph-name="E" horiz-adv-x="1138" d="M978 684H382V162H1015V0H198V1462H1015V1300H382V844H978V684Z" />
<glyph unicode="F" glyph-name="F" horiz-adv-x="1062" d="M382 782H976V621H382V0H198V1462H1015V1300H382V782Z" />
<glyph unicode="G" glyph-name="G" horiz-adv-x="1490" d="M1154 174V608H833V772H1338V55Q1220 16 1099 -2T824 -20Q596 -20 442 71Q286 162 205 331T124 731Q124 957 213 1127Q302 1296 472 1389T882 1483Q1005 1483 1114 1461T1318 1397L1248 1237Q1171 1270
1074 1295T872 1321Q609 1321 463 1163T317 731Q317 558 373 423Q429 289 550 214T867 139Q964 139 1031 149T1154 174Z" />
<glyph unicode="H" glyph-name="H" horiz-adv-x="1517" d="M382 844H1132V1462H1316V0H1132V682H382V0H198V1462H382V844Z" />
<glyph unicode="I" glyph-name="I" horiz-adv-x="694" d="M609 1356L437 1315V145L609 106V0H81V106L253 145V1315L81 1356V1462H609V1356Z" />
<glyph unicode="J" glyph-name="J" horiz-adv-x="559" d="M-7 -389Q-57 -389 -93 -382T-159 -362V-207Q-91 -227 -12 -227Q38 -227 86 -207Q132 -186 160 -136T189 8V1462H373V23Q373 -188 269 -288T-7 -389Z" />
<glyph unicode="K" glyph-name="K" horiz-adv-x="1267" d="M1029 1462H1245L665 825L1267 0H1050L532 698L382 567V0H198V1462H382V741Q413 776 444 811T508 881Q540 916 571 950T634 1020L1029 1462Z" />
<glyph unicode="L" glyph-name="L" horiz-adv-x="1073" d="M382 1462V164H1021V0H198V1462H382Z" />
<glyph unicode="M" glyph-name="M" horiz-adv-x="1857" d="M1490 1280H1482L995 0H843L362 1282H354Q360 1219 364 1112T368 887V0H198V1462H470L921 264H929L1388 1462H1658V0H1476V899Q1476 1006 1481 1110T1490 1280Z" />
<glyph unicode="N" glyph-name="N" horiz-adv-x="1556" d="M1185 637V1462H1357V0H1142L360 1214H352Q354 1179 356 1135T362 1037Q368 931 368 817V0H198V1462H411L1191 252H1199L1194 351Q1191 416 1188 492T1185 637Z" />
<glyph unicode="O" glyph-name="O" horiz-adv-x="1599" d="M1474 733Q1474 508 1397 337Q1320 168 1170 74T800 -20Q573 -20 422 74Q271 168 198 338T124 735Q124 956 198 1127Q272 1296 422 1390T802 1485Q1021 1485 1171 1392Q1320 1298 1397 1130T1474 733ZM319
733Q319 457 435 298T800 139Q1048 139 1163 298T1279 733Q1279 1010 1165 1166T802 1323Q552 1323 436 1167T319 733Z" />
<glyph unicode="P" glyph-name="P" horiz-adv-x="1239" d="M382 0H198V1462H585Q872 1462 1003 1350T1134 1032Q1134 911 1080 806Q1025 700 897 635T550 569H382V0ZM569 1305H382V727H530Q739 727 841 794T943 1024Q943 1165 852 1235T569 1305Z" />
<glyph unicode="Q" glyph-name="Q" horiz-adv-x="1599" d="M1474 733Q1474 465 1367 276T1048 16L1398 -348H1134L851 -18Q845 -18 839 -18T826 -19Q819 -20 813 -20T800 -20Q573 -20 422 74Q271 168 198 338T124 735Q124 956 198 1127Q272 1296 422 1390T802
1485Q1021 1485 1171 1392Q1320 1298 1397 1130T1474 733ZM319 733Q319 457 435 298T800 139Q1048 139 1163 298T1279 733Q1279 1010 1165 1166T802 1323Q552 1323 436 1167T319 733Z" />
<glyph unicode="R" glyph-name="R" horiz-adv-x="1273" d="M382 0H198V1462H601Q874 1462 1004 1359T1134 1047Q1134 929 1091 852Q1048 774 982 727T841 655L1242 0H1027L673 604H382V0ZM591 1303H382V760H601Q780 760 861 830T943 1038Q943 1182 857 1242T591 1303Z" />
<glyph unicode="S" glyph-name="S" horiz-adv-x="1124" d="M1028 391Q1028 197 887 89T505 -20Q383 -20 279 -2T104 49V225Q178 193 287 166T514 139Q675 139 759 202T843 375Q843 447 813 496Q782 546 706 586T499 676Q311 743 217 841T122 1110Q122 1225 182
1309Q305 1483 589 1483Q708 1483 808 1461T993 1401L935 1243Q860 1276 770 1298T585 1321Q448 1321 379 1263T309 1108Q309 1034 340 985Q370 936 440 896T628 813Q756 767 846 712Q935 657 981 582T1028 391Z" />
<glyph unicode="T" glyph-name="T" horiz-adv-x="1138" d="M20 1462H1116V1300H661V0H477V1300H20V1462Z" />
<glyph unicode="U" glyph-name="U" horiz-adv-x="1497" d="M1128 516V1462H1310V516Q1310 364 1249 243Q1188 121 1061 51T741 -20Q467 -20 326 128T184 520V1462H368V514Q368 336 463 238T751 139Q950 139 1039 244T1128 516Z" />
<glyph unicode="V" glyph-name="V" horiz-adv-x="1228" d="M707 528L1034 1462H1229L707 0H522L0 1462H193L522 524Q555 434 576 355T614 205Q629 276 651 356T707 528Z" />
<glyph unicode="W" glyph-name="W" horiz-adv-x="1904" d="M1460 571L1685 1462H1877L1488 0H1302L1017 958Q1008 987 1000 1016T984 1077Q968 1137 957 1183T944 1247Q942 1221 922 1134T874 952L597 0H411L24 1462H217L444 569Q468 475 485 387T513 221Q524
301 544 395T591 580L849 1462H1040L1308 573Q1337 479 1357 385T1388 221Q1396 297 1415 386T1460 571Z" />
<glyph unicode="X" glyph-name="X" horiz-adv-x="1200" d="M602 889L962 1462H1157L704 766L1192 0H983L596 635L203 0H8L493 762L39 1462H244L602 889Z" />
<glyph unicode="Y" glyph-name="Y" horiz-adv-x="1159" d="M487 0V559L0 1462H201L580 743L961 1462H1159L672 567V0H487Z" />
<glyph unicode="Z" glyph-name="Z" horiz-adv-x="1171" d="M1070 1462V1323L300 164H1091V0H77V139L847 1298H102V1462H1070Z" />
<glyph unicode="[" glyph-name="bracketleft" horiz-adv-x="673" d="M622 1315H339V-176H622V-324H163V1462H622V1315Z" />
<glyph unicode="\" glyph-name="backslash" horiz-adv-x="761" d="M196 1462L743 0H565L20 1462H196Z" />
<glyph unicode="]" glyph-name="bracketright" horiz-adv-x="673" d="M51 1462H510V-324H51V-176H334V1315H51V1462Z" />
<glyph unicode="^" glyph-name="asciicircum" horiz-adv-x="1171" d="M1093 547H933L564 1282L237 547H77L511 1473H614L1093 547Z" />
<glyph unicode="_" glyph-name="underscore" horiz-adv-x="909" d="M914 -315H-4V-184H914V-315Z" />
<glyph unicode="`" glyph-name="grave" horiz-adv-x="575" d="M81 1548V1569H296Q320 1521 353 1468Q386 1411 424 1357T493 1266V1241H372Q349 1260 322 1284T266 1337Q206 1396 156 1453T81 1548Z" />
<glyph unicode="a" glyph-name="a" horiz-adv-x="1148" d="M590 1116Q790 1116 886 1028T983 748V0H852L817 156H809Q737 66 657 23T440 -20Q291 -20 193 58T94 305Q94 469 223 558T620 655L807 662V727Q807 864 748 917T579 971Q493 971 416 946T270 887L215
1022Q287 1061 385 1088T590 1116ZM805 438V537L643 530Q438 522 359 465T280 303Q280 211 336 168T481 125Q618 125 711 202T805 438Z" />
<glyph unicode="b" glyph-name="b" horiz-adv-x="1259" d="M303 0H174V1556H354V1178Q354 1108 351 1048T344 952H354Q401 1022 483 1069T694 1116Q899 1116 1023 974T1147 549Q1147 266 1022 123T694 -20Q565 -20 483 27T354 139H340L303 0ZM663 967Q487 967
421 867T354 555V547Q354 344 420 237T668 129Q815 129 887 237T960 551Q960 967 663 967Z" />
<glyph unicode="c" glyph-name="c" horiz-adv-x="983" d="M614 -20Q467 -20 354 39Q242 98 177 223T112 543Q112 745 179 872Q245 999 362 1058T626 1118Q708 1118 787 1101T915 1059L860 909Q810 928 745 944T622 961Q298 961 298 545Q298 346 377 241T612 135Q700
135 769 153T896 199V39Q841 10 775 -5T614 -20Z" />
<glyph unicode="d" glyph-name="d" horiz-adv-x="1259" d="M563 -20Q358 -20 235 122T112 547Q112 829 236 973T565 1118Q692 1118 772 1071T905 956H917Q913 983 909 1035T905 1118V1556H1085V0H939L913 147H905Q855 78 774 29T563 -20ZM591 129Q765 129 836
224T907 512V545Q907 750 839 859T589 969Q444 969 371 853T298 543Q298 346 371 238T591 129Z" />
<glyph unicode="e" glyph-name="e" horiz-adv-x="1155" d="M597 1118Q738 1118 839 1057Q941 996 995 884T1050 623V514H298Q302 328 393 231T649 133Q753 133 834 152T1001 209V51Q917 14 835 -3T640 -20Q483 -20 364 43Q245 106 179 231T112 541Q112 722 173
850Q233 979 342 1048T597 1118ZM595 971Q466 971 392 888T302 657H862Q860 797 797 884T595 971Z" />
<glyph unicode="f" glyph-name="f" horiz-adv-x="704" d="M403 1169V1098H679V958H403V0H223V958H30V1042L223 1104V1167Q223 1380 316 1473T579 1567Q642 1567 697 1556T792 1530L745 1389Q712 1399 669 1409T581 1419Q491 1419 447 1359T403 1169Z" />
<glyph unicode="g" glyph-name="g" horiz-adv-x="1259" d="M563 1118Q784 1118 907 952H917L941 1098H1085V-18Q1085 -254 965 -373T593 -492Q351 -492 198 -422V-256Q361 -342 604 -342Q745 -342 826 -259T907 -33V10Q907 35 909 81T913 145H905Q794 -20 565
-20Q352 -20 232 129T112 547Q112 722 166 850T321 1048T563 1118ZM587 967Q450 967 374 858T298 545Q298 342 372 235T591 127Q757 127 833 216T909 504V547Q909 770 831 868T587 967Z" />
<glyph unicode="h" glyph-name="h" horiz-adv-x="1265" d="M354 0H174V1556H354V1100Q354 1015 344 946H356Q410 1030 501 1073T698 1116Q897 1116 998 1021T1100 715V0H922V702Q922 967 676 967Q491 967 423 864T354 567V0Z" />
<glyph unicode="i" glyph-name="i" horiz-adv-x="528" d="M265 1509Q306 1509 338 1482T370 1395Q370 1335 338 1308T265 1280Q220 1280 190 1307T159 1395Q159 1454 189 1481T265 1509ZM354 1098V0H173V1098H354Z" />
<glyph unicode="j" glyph-name="j" horiz-adv-x="528" d="M160 1395Q160 1454 191 1481T267 1509Q308 1509 339 1482T371 1395Q371 1335 340 1308T267 1280Q222 1280 191 1307T160 1395ZM46 -492Q-8 -492 -46 -485T-112 -467V-322Q-81 -332 -49 -337T23 -342Q89
-342 132 -306T175 -170V1098H355V-164Q355 -317 281 -404T46 -492Z" />
<glyph unicode="k" glyph-name="k" horiz-adv-x="1093" d="M352 0H174V1556H352V743Q352 711 349 658Q348 631 347 608T344 565H352Q361 578 387 611T442 678T483 727L833 1098H1044L600 629L1075 0H858L477 512L352 403V0Z" />
<glyph unicode="l" glyph-name="l" horiz-adv-x="528" d="M354 0H174V1556H354V0Z" />
<glyph unicode="m" glyph-name="m" horiz-adv-x="1914" d="M1378 1118Q1565 1118 1657 1022T1749 715V0H1571V707Q1571 967 1348 967Q1188 967 1120 875T1051 606V0H872V707Q872 967 647 967Q481 967 418 865T354 569V0H174V1098H319L346 948H356Q407 1034 494
1076T680 1118Q938 1118 1016 934H1026Q1081 1028 1175 1073T1378 1118Z" />
<glyph unicode="n" glyph-name="n" horiz-adv-x="1265" d="M702 1118Q899 1118 999 1022T1100 715V0H922V702Q922 967 676 967Q493 967 424 865T354 569V0H174V1098H319L346 948H356Q410 1034 504 1076T702 1118Z" />
<glyph unicode="o" glyph-name="o" horiz-adv-x="1239" d="M1128 551Q1128 279 990 130T616 -20Q469 -20 357 47Q243 113 178 241T112 551Q112 823 248 970T622 1118Q769 1118 884 1052Q999 985 1063 859T1128 551ZM298 551Q298 356 375 243T620 129Q786 129 863
242T941 551Q941 745 864 856T618 967Q450 967 374 856T298 551Z" />
<glyph unicode="p" glyph-name="p" horiz-adv-x="1259" d="M696 1118Q899 1118 1023 977T1147 551Q1147 270 1023 125T694 -20Q567 -20 484 27T354 139H342Q343 122 345 100T349 51Q351 25 352 2T354 -41V-492H174V1098H321L346 948H354Q403 1020 483 1069T696
1118ZM663 967Q496 967 426 873T354 586V551Q354 348 420 239T668 129Q767 129 832 184Q897 238 928 334T960 553Q960 741 888 854T663 967Z" />
<glyph unicode="q" glyph-name="q" horiz-adv-x="1259" d="M941 1098H1085V-492H905V-23Q905 14 907 63T915 147H903Q855 78 773 29T558 -20Q360 -20 236 122T112 547Q112 829 238 973T565 1118Q694 1118 775 1069T907 948H915L941 1098ZM593 129Q761 129 833
222T907 508V545Q907 754 837 861T589 969Q442 969 370 853T298 543Q298 348 370 239T593 129Z" />
<glyph unicode="r" glyph-name="r" horiz-adv-x="845" d="M686 1118Q717 1118 751 1115T815 1106L792 940Q766 946 733 950T674 954Q589 954 516 908Q442 862 398 779T354 586V0H174V1098H321L342 897H350Q401 987 486 1052T686 1118Z" />
<glyph unicode="s" glyph-name="s" horiz-adv-x="980" d="M888 303Q888 143 770 62T450 -20Q335 -20 253 -2T106 49V213Q172 180 265 153T454 125Q591 125 652 169T714 287Q714 329 692 361Q667 397 600 431T444 500Q391 520 346 541T262 582Q186 623 145 680T104
827Q104 967 217 1042T516 1118Q616 1118 703 1098T866 1044L804 901Q735 930 659 950T503 971Q393 971 335 935T276 838Q276 792 303 760Q329 729 391 699T559 629Q663 590 737 549Q811 508 849 450T888 303Z" />
<glyph unicode="t" glyph-name="t" horiz-adv-x="739" d="M540 127Q581 127 624 133T694 150V12Q665 -2 612 -11T509 -20Q423 -20 351 10Q278 39 233 112T188 319V958H32V1044L190 1116L261 1350H368V1098H685V958H368V324Q368 223 416 175T540 127Z" />
<glyph unicode="u" glyph-name="u" horiz-adv-x="1265" d="M911 526V1098H1091V0H943L917 145H909Q855 59 761 20T560 -20Q362 -20 262 75T161 379V1098H343V391Q343 129 587 129Q769 129 840 231T911 526Z" />
<glyph unicode="v" glyph-name="v" horiz-adv-x="1040" d="M848 1098H1040L623 0H416L0 1098H193L426 451Q434 429 442 404T461 351Q479 296 493 245T514 160H522Q525 177 531 198T545 245Q562 297 580 351T614 451L848 1098Z" />
<glyph unicode="w" glyph-name="w" horiz-adv-x="1609" d="M1402 1100H1587L1282 2H1071L882 621Q856 705 836 784T806 911H798Q790 864 772 785T724 618L528 2H323L22 1100H208L360 514Q382 426 402 336T432 186H440Q443 203 447 225T459 273Q471 324 485 380T514
481L708 1100H905L1093 481Q1114 410 1136 328T1167 188H1175Q1181 240 1202 330T1249 514L1402 1100Z" />
<glyph unicode="x" glyph-name="x" horiz-adv-x="1083" d="M841 0L542 438L239 0H36L433 561L54 1098H259L542 684L822 1098H1025L646 561L1046 0H841Z" />
<glyph unicode="y" glyph-name="y" horiz-adv-x="1044" d="M387 -150L444 -4L2 1098H195L432 473Q463 389 487 316T524 174H532Q545 225 571 308T627 475L850 1098H1044L571 -152Q512 -307 422 -399T172 -492Q123 -492 86 -487T22 -475V-332Q45 -336 76 -340T143
-344Q238 -344 295 -291T387 -150Z" />
<glyph unicode="z" glyph-name="z" horiz-adv-x="962" d="M867 1098V963L286 139H882V0H79V119L669 958H114V1098H867Z" />
<glyph unicode="{" glyph-name="braceleft" horiz-adv-x="778" d="M712 -176V-324Q524 -322 416 -242T307 2V303Q307 408 243 452T57 496V645Q178 647 242 690T307 836V1139Q307 1303 419 1382T712 1462V1315Q606 1311 546 1267T485 1122V827Q485 615 262 578V565Q485
526 485 315V14Q485 -86 544 -130T712 -176Z" />
<glyph unicode="|" glyph-name="bar" horiz-adv-x="1128" d="M489 1556H639V-494H489V1556Z" />
<glyph unicode="}" glyph-name="braceright" horiz-adv-x="778" d="M65 -324V-176Q171 -172 231 -128T292 16V313Q292 524 516 563V575Q292 614 292 825V1124Q292 1225 233 1269T65 1315V1462Q253 1460 362 1380T471 1137V838Q471 733 535 689T720 645V496Q600
494 536 451T471 305V0Q471 -164 358 -244T65 -324Z" />
<glyph unicode="~" glyph-name="asciitilde" horiz-adv-x="1171" d="M551 653Q477 686 429 697T335 709Q278 709 215 674T102 588V748Q200 856 348 856Q405 856 464 844T618 791Q692 758 740 747T831 735Q890 735 953 770T1067 856V698Q966 588 821 588Q761 588
702 601T551 653Z" />
<glyph unicode="&#xa0;" glyph-name="uni00A0" horiz-adv-x="532" />
<glyph unicode="&#xab;" glyph-name="guillemotleft" horiz-adv-x="1042" d="M267 541L554 190L425 115L81 526V553L425 965L554 891L267 541ZM675 541L962 190L835 115L487 526V553L835 965L962 891L675 541Z" />
<glyph unicode="&#xbb;" glyph-name="guillemotright" horiz-adv-x="1042" d="M366 541L79 891L206 965L552 553V526L206 115L79 190L366 541ZM771 541L485 891L611 965L960 553V526L611 115L485 190L771 541Z" />
</font>
</defs>
</svg>
