<?xml version="1.0" standalone="no"?>
<!DOCTYPE svg PUBLIC "-//W3C//DTD SVG 1.1//EN" "http://www.w3.org/Graphics/SVG/1.1/DTD/svg11.dtd">
<svg xmlns="http://www.w3.org/2000/svg">
<defs >
<font id="BakbakOne" horiz-adv-x="755" ><font-face
    font-family="Bakbak One"
    units-per-em="1000"
    panose-1="0 0 0 0 0 0 0 0 0 0"
    ascent="1050"
    descent="-350"
    alphabetic="0" />
<glyph unicode=" " glyph-name="space" horiz-adv-x="300" />
<glyph unicode="!" glyph-name="exclam" horiz-adv-x="288" d="M100 178L70 396V642H218V396L188 178H100ZM214 103Q216 88 216 77T217 54Q217 35 214 6Q196 3 179 1T145 -1Q129 -1 113 1T79 6Q77 20 76 31T75 54Q75 64 76 76T79 103Q112 109 147 109Q180 109 214 103Z" />
<glyph unicode="&quot;" glyph-name="quotedbl" horiz-adv-x="354" d="M40 642H157V556L139 408H58L40 556V642ZM197 642H314V556L296 408H215L197 556V642Z" />
<glyph unicode="#" glyph-name="numbersign" horiz-adv-x="817" d="M447 136H315L293 8H138L159 136H60L79 268H181L198 373H95L114 505H221L243 642H398L376 505H508L530 642H687L664 505H757L739 373H642L624 268H723L703 136H602L580 8H425L447 136ZM485 373H353L336
268H468L485 373Z" />
<glyph unicode="$" glyph-name="dollar" horiz-adv-x="607" d="M44 172Q88 157 140 149T245 140Q316 140 350 146T396 167T407 203Q407 222 399 233T368 250T300 261L234 267Q160 274 118 298T58 362T40 460Q40 541 79 585T213 644V766H373V650Q473 644 543 616L540
480L537 476Q438 511 330 511Q278 511 250 506T211 488T200 454Q200 432 207 421T238 405T305 394L368 387Q448 378 491 355T550 294T567 200Q567 117 523 69T373 6V-110H213V2Q164 4 122 11T40 28V169L44 172Z" />
<glyph unicode="%" glyph-name="percent" horiz-adv-x="890" d="M362 473Q362 296 201 296Q40 296 40 473Q40 651 201 651Q362 651 362 473ZM155 9L581 642H731L305 9H155ZM201 403Q253 403 253 473Q253 543 201 543Q148 543 148 473Q148 403 201 403ZM850 178Q851
0 689 0Q529 0 529 178Q529 356 689 356Q849 356 850 178ZM690 107Q742 107 743 178Q744 249 690 249Q635 249 636 178Q637 107 690 107Z" />
<glyph unicode="&amp;" glyph-name="ampersand" horiz-adv-x="642" d="M446 261V344H580V220Q580 180 571 148L632 95L557 5L507 49Q440 0 311 0Q212 0 153 19T67 82T40 201Q40 287 71 324T143 365L145 369Q120 394 111 421T102 490Q102 573 147 612T311 652Q401
652 448 636T513 583T531 479V447H385Q387 495 373 510T313 526Q273 526 260 514T247 473Q247 451 257 434T297 391L444 261H446ZM395 147L230 292Q214 290 203 271T191 217Q191 183 201 165T237 141T311 134Q362 134 395 145V147Z" />
<glyph unicode="&apos;" glyph-name="quotesingle" horiz-adv-x="214" d="M40 642H174V555L156 408H58L40 555V642Z" />
<glyph unicode="(" glyph-name="parenleft" horiz-adv-x="297" d="M277 672Q252 672 236 663T213 623T205 528V18Q205 -50 212 -82T236 -124T277 -134V-259Q213 -259 171 -249T104 -211T70 -127T60 18V528Q60 615 71 668T107 749T174 787T277 797V672Z" />
<glyph unicode=")" glyph-name="parenright" horiz-adv-x="297" d="M20 672V797Q82 797 123 787T190 750T226 669T237 528V18Q237 -72 227 -127T193 -210T127 -249T20 -259V-134Q46 -134 61 -125T84 -83T92 18V528Q92 592 85 622T62 662T20 672Z" />
<glyph unicode="*" glyph-name="asterisk" horiz-adv-x="504" d="M55 540L143 512Q165 505 183 491T211 461L212 462Q192 492 192 548V642H310V548Q310 519 304 500T289 462L291 461Q302 477 317 489T361 512L449 541L486 429L397 400Q369 391 352 390T313 393L312
390Q334 383 348 373T378 341L433 267L337 197L282 271Q266 294 260 310T251 346H249Q249 326 244 311T221 271L167 197L71 267L125 342Q142 366 157 375T192 391L191 394Q170 391 152 392T107 401L18 429L55 540Z" />
<glyph unicode="+" glyph-name="plus" horiz-adv-x="468" d="M308 535V397H438V273H308V135H160V273H30V397H160V535H308Z" />
<glyph unicode="," glyph-name="comma" horiz-adv-x="201" d="M59 -93Q65 -94 73 -94Q103 -94 118 -84T133 -47L132 -46Q115 -56 83 -56Q5 -56 5 18Q5 56 24 75T96 95Q149 95 171 65T194 -21Q194 -94 164 -122T79 -150Q74 -150 69 -150T58 -148V-94L59 -93Z" />
<glyph unicode="-" glyph-name="hyphen" horiz-adv-x="468" d="M30 197V322H438V197H30Z" />
<glyph unicode="." glyph-name="period" horiz-adv-x="258" d="M228 151Q230 129 231 114T232 81Q232 65 231 49T228 11Q203 7 178 4T128 1Q104 1 80 4T31 11Q28 31 27 47T26 80Q26 95 27 112T31 151Q81 160 130 160Q179 160 228 151Z" />
<glyph unicode="/" glyph-name="slash" horiz-adv-x="464" d="M264 720H414L200 -104H50L264 720Z" />
<glyph unicode="0" glyph-name="zero" horiz-adv-x="599" d="M564 314Q564 200 538 131T454 31T299 0Q203 0 145 31T61 131T35 314Q35 429 61 498T145 598T299 629Q396 629 454 598T538 498T564 314ZM299 133Q367 133 388 177T410 314Q410 407 389 451T299 495Q232
495 211 451T189 314Q189 222 210 178T299 133Z" />
<glyph unicode="1" glyph-name="one" horiz-adv-x="379" d="M40 379V549L157 623H307L309 9H157V450H152L45 379H40Z" />
<glyph unicode="2" glyph-name="two" horiz-adv-x="519" d="M42 447V578Q77 600 134 614T258 628Q365 628 429 586T494 444Q494 365 458 318T329 235Q240 201 207 178T173 131H499V4H25V116Q25 167 42 203T103 269T222 331Q279 355 311 377T343 432Q342 470 315
485T237 501Q189 501 139 485T51 447H42Z" />
<glyph unicode="3" glyph-name="three" horiz-adv-x="531" d="M70 605Q114 619 161 624T264 630Q350 630 400 614T471 563T493 477Q493 416 464 375T364 324V319Q438 315 469 278T501 187Q501 97 442 52T251 3Q184 2 133 10T40 32V157H46Q86 144 127 138T220 132Q290
132 321 147T352 199Q352 233 329 245T242 258H162V387H229Q301 387 326 399T352 445Q352 479 324 490T224 501Q185 501 146 495T74 479L70 480V605Z" />
<glyph unicode="4" glyph-name="four" horiz-adv-x="596" d="M20 239L252 622H481V228H586V110H483V7H333L330 110H20V239ZM341 228V532L172 228H341Z" />
<glyph unicode="5" glyph-name="five" horiz-adv-x="535" d="M53 265V618H487V489H191V391L193 388H300Q410 388 460 343T510 200Q510 96 445 48T243 0Q178 0 125 6T30 23V145L32 147Q54 141 84 137T147 131T205 128Q267 128 300 134T345 155T358 199Q358 234
342 249T276 265H53Z" />
<glyph unicode="6" glyph-name="six" horiz-adv-x="544" d="M478 465Q450 479 411 487T330 495Q254 495 222 466T184 366H185Q206 376 241 382T320 388Q417 388 468 342T519 204Q519 138 498 93T427 24T286 0Q188 0 134 34T57 137T35 311Q35 421 67 490T158 592T294
625Q360 625 406 614T482 590V467L478 465ZM286 122Q341 122 360 140T379 199Q379 243 357 259T285 276Q254 276 226 269T183 251Q182 175 205 149T286 122Z" />
<glyph unicode="7" glyph-name="seven" horiz-adv-x="492" d="M299 495H10V623H462V495L278 9H118L119 12L299 495Z" />
<glyph unicode="8" glyph-name="eight" horiz-adv-x="552" d="M522 176Q522 111 499 73T421 17T276 0Q184 0 130 17T53 73T30 176Q30 236 45 269T103 314V316Q67 328 54 360T40 449Q40 516 62 555T137 611T276 629Q362 629 414 612T489 556T512 449Q512 392 499
360T449 316V314Q493 302 507 269T522 176ZM189 444Q189 392 212 378T276 364Q319 364 341 379T363 444Q363 491 339 504T276 518Q236 518 213 504T189 444ZM179 189Q179 144 203 129T276 113Q326 113 349 128T373 189Q373 234 350 249T276 264Q227 264 203 249T179
189Z" />
<glyph unicode="9" glyph-name="nine" horiz-adv-x="544" d="M66 160Q95 146 134 138T214 130Q290 130 322 159T360 259H359Q338 249 303 243T224 237Q127 237 76 283T25 421Q25 487 46 532T118 601T258 625Q356 625 410 591T487 488T509 314Q509 204 477 135T387
33T250 0Q184 0 138 11T62 35V158L66 160ZM258 503Q203 503 184 485T165 426Q165 383 187 366T259 349Q291 349 318 356T361 374Q363 450 339 476T258 503Z" />
<glyph unicode=":" glyph-name="colon" horiz-adv-x="310" d="M247 457Q249 438 249 423T250 393Q250 378 250 363T247 328Q199 319 154 319Q110 319 65 328Q62 347 61 362T60 392Q60 406 61 422T65 457Q88 462 111 464T156 466Q179 466 201 464T247 457ZM247
139Q249 119 249 104T250 74Q250 48 247 10Q201 0 154 0Q132 0 110 2T66 10Q62 28 61 43T60 73Q60 87 61 103T66 139Q88 144 111 145T156 147Q179 147 201 146T247 139Z" />
<glyph unicode=";" glyph-name="semicolon" horiz-adv-x="310" d="M247 456Q249 437 249 422T250 392Q250 377 250 362T247 328Q201 318 154 318Q132 318 110 320T66 328Q62 346 61 361T60 391Q60 405 61 421T66 456Q88 461 111 463T156 465Q179 465 201 463T247
456ZM119 -34Q125 -35 133 -35Q163 -35 178 -25T193 12L192 13Q175 3 143 3Q65 3 65 77Q65 115 84 134T156 154Q209 154 231 124T254 38Q254 -35 224 -63T139 -91Q134 -91 129 -91T118 -89V-35L119 -34Z" />
<glyph unicode="&lt;" glyph-name="less" horiz-adv-x="482" d="M50 437L432 575V430L184 337V335L432 241V97L50 235V437Z" />
<glyph unicode="=" glyph-name="equal" horiz-adv-x="501" d="M50 496H451V370H50V496ZM50 291H451V166H50V291Z" />
<glyph unicode="&gt;" glyph-name="greater" horiz-adv-x="482" d="M448 437V235L66 97V241L314 335V337L66 430V575L448 437Z" />
<glyph unicode="?" glyph-name="question" horiz-adv-x="480" d="M50 486V605Q88 623 134 631T220 640Q302 640 350 623T420 566T442 463Q442 418 434 387T391 323L360 295Q335 272 324 261T310 239T307 207V169H156V197Q156 230 158 250T172 287T211 328L237
352Q264 377 277 391T294 420T299 455Q299 490 275 501T191 513Q119 513 55 485L50 486ZM312 115Q315 81 315 58Q315 34 312 1Q291 -3 271 -5T231 -7Q212 -7 193 -5T154 1Q151 17 150 31T149 58Q149 69 150 83T154 115Q173 119 193 120T233 122Q253 122 272 121T312
115Z" />
<glyph unicode="@" glyph-name="at" horiz-adv-x="1002" d="M559 -35L561 -163Q543 -166 523 -168T477 -170Q354 -170 272 -148T141 -79T71 45T50 231Q50 348 71 430T144 563T282 637T502 661Q641 661 730 638T870 564T940 431T960 231Q960 142 954 83T928 -12T872
-62T771 -77Q688 -77 646 -52T592 35L588 57H586Q568 34 533 21T442 7Q288 7 288 158Q288 222 328 257T455 293H585Q579 328 553 339T466 351Q426 351 390 346T324 333L321 335V448Q348 457 393 463T478 470Q560 470 611 451T686 380T714 228Q716 164 717 126T722
68T736 42T767 35Q795 35 805 50T818 107T820 228Q820 319 810 378T769 470T674 517T502 531Q398 531 336 518T243 471T201 379T190 231Q190 150 200 98T239 15T325 -27T478 -40Q502 -40 522 -39T558 -34L559 -35ZM477 118Q587 118 588 177V198H487Q448 198 433
188T418 158Q418 135 433 127T477 118Z" />
<glyph unicode="A" glyph-name="A" horiz-adv-x="650" d="M640 12V9H470Q463 33 454 64T433 130H217Q197 60 180 9H10V11L215 642H435L640 12ZM323 528Q313 477 294 404T254 255H397Q375 331 356 404T327 528H323Z" />
<glyph unicode="B" glyph-name="B" horiz-adv-x="626" d="M596 171Q596 91 547 50T372 9H60V642H99V642H362Q445 642 491 625T557 573T576 488Q576 418 543 380T417 333V330Q485 325 524 308T579 257T596 171ZM318 516H220V392H318Q367 392 389 404T411 454Q411
490 389 503T318 516ZM338 261H220V134H338Q387 134 409 147T431 198Q431 236 409 248T338 261Z" />
<glyph unicode="C" glyph-name="C" horiz-adv-x="557" d="M532 146V20Q484 10 438 5T329 0Q248 0 193 14T104 63T55 164T40 331Q40 429 55 492T103 589T192 637T329 651Q392 651 438 647T532 631V501L529 499Q487 509 448 513T352 518Q306 518 277 512T230 486T207
430T200 331Q200 266 206 227T230 167T276 140T352 133Q408 133 447 136T527 150L532 146Z" />
<glyph unicode="D" glyph-name="D" horiz-adv-x="670" d="M60 9V642H337Q420 642 476 629T566 581T615 487T630 331Q630 232 615 169T566 71T476 23T337 9H60ZM314 507H220V144H314Q372 144 405 157T453 210T468 331Q468 408 454 445T406 495T314 507Z" />
<glyph unicode="E" glyph-name="E" horiz-adv-x="550" d="M60 9V642H530V512H220V392H489V262H220V139H530V9H60Z" />
<glyph unicode="F" glyph-name="F" horiz-adv-x="545" d="M220 9H60V642H530V512H220V367H510V237H220V9Z" />
<glyph unicode="G" glyph-name="G" horiz-adv-x="655" d="M465 196Q465 229 468 256L466 259Q438 255 405 254T344 253V383L605 384V44Q559 23 501 12T352 0Q232 0 164 32T68 137T40 331Q40 429 62 492T128 589T235 637T379 651Q427 651 475 647T572 632V500L569
498Q527 508 486 512T402 516Q341 516 296 504T225 452T200 331Q200 250 213 208T264 150T372 134Q381 134 400 134T438 136T465 139V196Z" />
<glyph unicode="H" glyph-name="H" horiz-adv-x="680" d="M220 9H60V642H220V400H460V642H620V9H460V270H220V9Z" />
<glyph unicode="I" glyph-name="I" horiz-adv-x="280" d="M220 9H60V642H220V9Z" />
<glyph unicode="J" glyph-name="J" horiz-adv-x="463" d="M248 642H408V241Q408 119 356 60T180 0Q129 0 94 5T20 23V160L24 162Q55 152 82 147T149 142Q191 142 212 151T241 186T249 258L248 642Z" />
<glyph unicode="K" glyph-name="K" horiz-adv-x="606" d="M220 9H60V642H220V377Q222 377 223 377Q233 377 246 393T271 425L405 642H579V639L465 455Q450 430 431 402T394 352T361 325V322Q375 316 393 297T431 252T469 201L602 12V9H418L293 201V200Q287 210
275 226T249 257T225 271Q223 271 222 271T220 271V9Z" />
<glyph unicode="L" glyph-name="L" horiz-adv-x="530" d="M520 145V9H60V642H220V145H520Z" />
<glyph unicode="M" glyph-name="M" horiz-adv-x="868" d="M349 41Q332 95 315 156T280 277T249 389T225 479T211 533L207 532Q210 514 212 485T215 423T216 363V9H63V642H331Q345 589 360 531T391 415T419 306T436 216H438Q443 254 454 305T481 414T512 530T541
642H805V9H654V363Q654 390 655 422T658 484T663 532L659 533Q655 517 645 479T621 389T589 276T555 156T521 41H349Z" />
<glyph unicode="N" glyph-name="N" horiz-adv-x="690" d="M470 642H630V9H471L291 277Q270 309 256 331T230 375T203 427L200 423Q214 375 217 334T220 253V9H60V642H219L399 374Q420 343 434 321T460 276T487 224L490 228Q480 270 475 309T470 388V642Z" />
<glyph unicode="O" glyph-name="O" horiz-adv-x="701" d="M40 326Q40 447 67 518T162 620T351 651Q442 651 502 634T597 579T646 479T661 326Q661 235 647 173T597 72T502 17T351 0Q260 0 200 17T105 72T55 172T40 326ZM351 140Q415 140 447 156T490 212T501 326Q501
398 490 438T447 494T351 511Q288 511 256 495T212 438T200 326Q200 253 211 213T255 156T351 140Z" />
<glyph unicode="P" glyph-name="P" horiz-adv-x="626" d="M220 9H60V642H342Q437 642 494 619T576 544T601 403Q601 319 576 267T494 189T342 164H220V9ZM316 511H220V295H316Q387 295 411 319T435 403Q435 460 411 485T316 511Z" />
<glyph unicode="Q" glyph-name="Q" horiz-adv-x="701" d="M40 326Q40 447 67 518T162 620T351 651Q442 651 502 634T597 579T646 479T661 326Q661 234 646 172T596 71T499 16V11Q529 -22 553 -57T596 -124V-127H414L343 0Q225 1 159 32T67 135T40 326ZM351 140Q415
140 447 156T490 212T501 326Q501 398 490 438T447 494T351 511Q288 511 256 495T212 438T200 326Q200 253 211 213T255 156T351 140Z" />
<glyph unicode="R" glyph-name="R" horiz-adv-x="645" d="M220 9H60V642H362Q481 642 535 589T590 431Q590 353 551 298T448 228L447 225Q472 209 502 172T561 92T614 10V9H428L320 169Q306 190 298 199T278 210T241 212H220V9ZM336 512H220V342H336Q386 342 405
362T425 427Q425 472 406 492T336 512Z" />
<glyph unicode="S" glyph-name="S" horiz-adv-x="607" d="M44 172Q88 157 140 149T245 140Q316 140 350 146T396 167T407 203Q407 222 399 233T368 250T300 261L234 267Q160 274 118 298T58 362T40 460Q40 528 67 570T157 631T322 651Q456 651 543 616L540 480L537
476Q438 511 330 511Q278 511 250 506T211 488T200 454Q200 432 207 421T238 405T305 394L368 387Q448 378 491 355T550 294T567 200Q567 133 539 89T446 22T275 0Q205 0 149 7T40 28V169L44 172Z" />
<glyph unicode="T" glyph-name="T" horiz-adv-x="540" d="M190 9V507H10V642H530V507H350V9H190Z" />
<glyph unicode="U" glyph-name="U" horiz-adv-x="668" d="M608 642V269Q608 171 585 112T503 27T339 0Q229 0 169 26T84 112T60 269V642H220V272Q220 221 230 192T266 152T339 140Q383 140 406 151T439 192T448 272V642H608Z" />
<glyph unicode="V" glyph-name="V" horiz-adv-x="669" d="M637 641L440 9H220L33 641H212Q228 591 246 527T281 397T312 273T333 177H337Q344 215 357 272T388 396T424 526T458 641H637Z" />
<glyph unicode="W" glyph-name="W" horiz-adv-x="892" d="M709 642H872L738 9H543Q512 116 490 218T447 436H445Q422 320 400 218T349 9H154L20 642H183Q198 572 210 505T233 369T257 218H259Q274 299 288 368T317 505T349 642H543Q566 536 588 430T633 218H635Q654
324 672 430T709 642Z" />
<glyph unicode="X" glyph-name="X" horiz-adv-x="672" d="M468 332L653 9H453L338 233H335L220 9H20L205 332V337L32 642H229L335 422H338L444 642H641L468 337V332Z" />
<glyph unicode="Y" glyph-name="Y" horiz-adv-x="570" d="M205 9V205L0 639V642H175Q206 561 224 513T253 437T270 392T283 356H287Q294 375 300 392T316 436T345 512T395 642H570V639L365 205V9H205Z" />
<glyph unicode="Z" glyph-name="Z" horiz-adv-x="599" d="M353 513H46V642H553V527L247 139V137H569V8H30V113L353 511V513Z" />
<glyph unicode="[" glyph-name="bracketleft" horiz-adv-x="343" d="M313 797V672H208V-134H313V-259H60V797H313Z" />
<glyph unicode="\" glyph-name="backslash" horiz-adv-x="464" d="M180 642L484 -102H324L20 642H180Z" />
<glyph unicode="]" glyph-name="bracketright" horiz-adv-x="343" d="M30 797H283V-259H30V-134H135V672H30V797Z" />
<glyph unicode="^" glyph-name="asciicircum" horiz-adv-x="558" d="M380 642L518 318H373L280 528H278L184 318H40L178 642H380Z" />
<glyph unicode="_" glyph-name="underscore" horiz-adv-x="488" d="M10 -6H478V-136H10V-6Z" />
<glyph unicode="`" glyph-name="grave" horiz-adv-x="280" d="M20 829V836H168L270 682H142L20 829Z" />
<glyph unicode="a" glyph-name="a" horiz-adv-x="559" d="M245 501Q341 501 400 481T486 408T514 253V9H369L364 55H361Q342 30 302 15T198 0Q25 0 25 162Q25 231 70 270T214 310H362Q355 352 326 366T227 381Q183 381 141 375T66 360L63 362L64 478Q84 484 115
489T180 498T245 501ZM239 118Q301 118 332 133T364 183V208H251Q207 208 190 196T172 162Q172 137 190 128T239 118Z" />
<glyph unicode="b" glyph-name="b" horiz-adv-x="579" d="M554 274Q554 139 499 70T312 0Q238 0 175 5T63 19L60 21V682H220V421H224Q238 457 270 479T363 501Q554 501 554 274ZM220 257V140Q244 136 276 136Q323 136 349 144T387 178T398 250Q398 309 381 337T311
365Q271 365 246 341T220 257Z" />
<glyph unicode="c" glyph-name="c" horiz-adv-x="469" d="M439 150V20Q414 10 365 5T261 0Q182 0 130 22T52 98T25 248Q25 347 52 402T133 479T260 501Q304 501 353 495T433 479L434 345L431 343Q401 349 367 352T300 355Q233 355 207 330T181 246Q181 201 192
179T229 150T300 143Q335 143 367 146T435 153L439 150Z" />
<glyph unicode="d" glyph-name="d" horiz-adv-x="576" d="M364 9L358 80H354Q337 40 306 20T214 0Q117 0 72 56T25 227Q24 329 46 389T115 475T235 501Q273 501 304 495T354 477L356 478V682H516V9H364ZM266 136Q306 136 331 161T356 244V349Q319 364 269 364Q222
364 202 342T181 251Q181 193 197 165T266 136Z" />
<glyph unicode="e" glyph-name="e" horiz-adv-x="539" d="M489 25Q461 15 412 8T294 0Q208 0 148 22T56 99T25 251Q25 383 85 442T273 501Q364 501 416 475T491 402T514 289Q514 270 513 248T507 205L503 201H174Q181 157 215 143T328 129Q380 129 414 131T485
139L489 136V25ZM375 306Q375 330 368 347T338 374T273 384Q210 384 191 363T171 306H375Z" />
<glyph unicode="f" glyph-name="f" horiz-adv-x="400" d="M20 366V496H91V521Q91 620 137 663T274 707Q306 707 333 702T380 689V577L377 575Q359 577 341 578T307 580Q273 580 260 568T246 529V496H380V366H246V9H91V366H20Z" />
<glyph unicode="g" glyph-name="g" horiz-adv-x="568" d="M96 42Q63 56 48 78T33 131Q33 159 48 180T90 213V216Q65 236 54 266T42 337Q42 417 94 459T274 501Q379 501 434 471H439Q455 497 480 514T541 531Q552 531 561 531T578 529V406Q559 410 533 410Q512
410 493 406Q504 377 504 337Q504 251 452 213T274 175Q245 175 220 177T174 183Q170 175 170 164Q170 148 180 138T217 127H361Q453 127 498 98T544 -14Q544 -96 480 -139T264 -182Q139 -182 82 -149T25 -51Q25 -16 44 7T96 39V42ZM274 282Q321 282 340 293T359
335Q359 365 340 379T274 393Q226 393 207 379T188 335Q188 305 207 294T274 282ZM283 -64Q336 -64 361 -59T394 -44T402 -19Q402 -2 392 8T362 19H209Q189 19 179 9T169 -19Q169 -34 177 -44T210 -59T283 -64Z" />
<glyph unicode="h" glyph-name="h" horiz-adv-x="592" d="M220 9H60V681H220V407H223Q237 452 274 476T373 501Q431 501 468 482T524 416T543 282V9H383L382 251Q382 307 365 331T301 355Q259 355 240 333T220 259V9Z" />
<glyph unicode="i" glyph-name="i" horiz-adv-x="262" d="M211 677Q214 641 214 617Q214 603 214 589T211 556Q190 552 170 550T130 548Q111 548 92 550T52 556Q50 573 49 587T48 616Q48 629 49 644T52 677Q72 682 92 683T133 685Q152 685 171 684T211 677ZM211
9H51V496H211V9Z" />
<glyph unicode="j" glyph-name="j" horiz-adv-x="271" d="M220 677Q223 641 223 617Q223 603 223 589T220 556Q199 552 179 550T139 548Q120 548 101 550T61 556Q59 573 58 587T57 616Q57 629 58 644T61 677Q81 682 101 683T142 685Q161 685 180 684T220 677ZM219
7Q219 -64 205 -104T159 -161T72 -177Q41 -177 15 -174T-35 -163V-34L-32 -32Q-21 -34 -10 -35T18 -37Q44 -37 51 -27T59 12V496H219V7Z" />
<glyph unicode="k" glyph-name="k" horiz-adv-x="537" d="M220 9H60V682H220V290H222L348 496H524V492L376 262V258L548 9H364L223 234L220 235V9Z" />
<glyph unicode="l" glyph-name="l" horiz-adv-x="280" d="M220 9H60V682H220V9Z" />
<glyph unicode="m" glyph-name="m" horiz-adv-x="876" d="M665 501Q739 501 782 452T826 282V9H666L665 262Q665 311 651 333T594 355Q552 355 538 333T523 262V9H363L362 262Q362 311 348 333T291 355Q249 355 235 333T220 262V9H60V496H212L220 407H223Q236
451 268 476T361 501Q421 501 455 476T500 407H503Q516 452 553 476T665 501Z" />
<glyph unicode="n" glyph-name="n" horiz-adv-x="593" d="M220 9H60V496H212L220 407H223Q237 452 273 476T373 501Q460 501 501 452T543 282V9H383L382 251Q382 307 365 331T301 355Q257 355 239 334T220 260V9Z" />
<glyph unicode="o" glyph-name="o" horiz-adv-x="550" d="M25 249Q25 383 82 442T275 501Q366 501 421 475T500 394T525 249Q525 161 501 106T421 26T275 0Q139 0 82 58T25 249ZM275 137Q333 137 353 162T374 252Q374 313 354 339T275 366Q219 366 198 340T176
252Q176 188 197 163T275 137Z" />
<glyph unicode="p" glyph-name="p" horiz-adv-x="576" d="M220 -177H60V496H212L220 427V421H222Q239 462 270 481T362 501Q459 501 504 445T551 274Q553 173 531 113T461 26T341 0Q303 0 273 7T222 24L220 23V-177ZM310 365Q270 365 245 341T220 257V152Q257
137 307 137Q354 137 374 159T395 250Q395 309 379 337T310 365Z" />
<glyph unicode="q" glyph-name="q" horiz-adv-x="579" d="M25 227Q25 317 49 378T129 470T277 501Q351 501 407 498T516 489L519 487V-177H359V80H356Q343 40 306 20T216 0Q127 0 76 56T25 227ZM181 251Q181 193 198 165T268 136Q308 136 333 161T359 244V360Q342
362 322 363T283 365Q228 365 205 340T181 251Z" />
<glyph unicode="r" glyph-name="r" horiz-adv-x="446" d="M220 9H60V496H190L203 396H206Q215 452 249 476T350 501Q377 501 399 499T436 494V338L434 336Q418 340 398 343T351 346Q314 346 285 334T239 288T222 185V185L220 9Z" />
<glyph unicode="s" glyph-name="s" horiz-adv-x="509" d="M38 147Q116 125 211 125Q257 125 280 128T311 138T319 157Q319 174 307 178T257 189L178 204Q102 219 69 251T35 349Q35 437 87 469T255 501Q324 501 376 494T464 475L462 354L459 351Q378 377 282 377Q235
377 217 371T198 345Q198 335 203 329T229 318T292 304L365 290Q426 277 455 247T484 152Q484 95 463 62T393 14T256 0Q190 0 135 6T35 22V145L38 147Z" />
<glyph unicode="t" glyph-name="t" horiz-adv-x="372" d="M70 155V365H10V495H85L115 614H230V495H339V365H230V190Q230 162 237 152T269 141Q285 141 303 142T339 146L342 144V14Q294 0 215 0Q136 0 103 36T70 155Z" />
<glyph unicode="u" glyph-name="u" horiz-adv-x="593" d="M220 0Q128 0 89 49T50 189V496H210L211 228Q211 183 227 165T292 146Q339 146 355 162T373 219V496H533V9H381L373 64H370Q357 35 317 18T220 0Z" />
<glyph unicode="v" glyph-name="v" horiz-adv-x="529" d="M519 493L360 9H160L10 494V496H190Q211 418 229 327T263 152H267Q282 236 300 327T340 496H519V493Z" />
<glyph unicode="w" glyph-name="w" horiz-adv-x="740" d="M368 272Q354 203 339 137T307 9H134L10 496H176Q190 421 204 340T229 181H231Q246 259 263 340T299 496H439Q457 421 474 340T507 181H509Q520 259 534 340T562 496H730L606 9H433Q417 71 401 137T370 272H368Z" />
<glyph unicode="x" glyph-name="x" horiz-adv-x="546" d="M388 257L536 9H358L276 158H274L192 9H10L162 257V261L21 496H196L274 344H276L354 496H529L388 261V257Z" />
<glyph unicode="y" glyph-name="y" horiz-adv-x="537" d="M116 -175L193 8L0 494V496H179Q207 417 231 337T271 173H273Q288 256 311 336T365 496H537V493L280 -177H116V-175Z" />
<glyph unicode="z" glyph-name="z" horiz-adv-x="514" d="M266 366H49V495H476V380L260 142V140H492V11H33V116L266 364V366Z" />
<glyph unicode="{" glyph-name="braceleft" horiz-adv-x="408" d="M259 188V-88Q259 -115 271 -125T307 -136Q324 -136 337 -131L338 -132V-239Q325 -243 309 -246T271 -249Q193 -249 163 -211T133 -109V175Q133 198 120 207T90 218T65 220V329Q74 329 90 330T119
339T133 365V657Q133 722 163 759T271 797Q293 797 309 795T338 787V680L337 679Q324 684 307 684Q283 684 271 674T259 636V352Q259 321 245 305T212 283T180 275V271Q193 270 211 266T244 244T259 188Z" />
<glyph unicode="|" glyph-name="bar" horiz-adv-x="280" d="M60 682H220V-301H60V682Z" />
<glyph unicode="}" glyph-name="braceright" horiz-adv-x="408" d="M149 188Q149 227 163 244T196 265T228 271V275Q215 277 197 283T164 305T149 352V636Q149 663 137 673T101 684Q84 684 71 679L70 680V787Q83 792 99 794T137 797Q215 797 245 760T275 657V365Q275
347 288 340T318 331T343 329V220Q335 220 319 218T289 207T275 175V-109Q275 -173 245 -211T137 -249Q115 -249 99 -246T70 -239V-132L71 -131Q84 -136 101 -136Q125 -136 137 -126T149 -88V188Z" />
<glyph unicode="~" glyph-name="asciitilde" horiz-adv-x="596" d="M437 234Q410 234 378 244T313 268T249 292T194 303Q176 303 165 294T154 264Q154 260 154 256T156 247H44Q44 247 42 262T40 298Q40 363 74 392T158 421Q185 421 217 411T283 387T347 363T402
352Q419 352 430 361T441 391Q441 395 441 399T439 408H551Q551 408 553 394T556 357Q556 293 522 264T437 234Z" />
<glyph unicode="&#xa0;" glyph-name="uni00A0" horiz-adv-x="300" />
<glyph unicode="&#xa1;" glyph-name="exclamdown" horiz-adv-x="268" d="M204 375Q170 369 137 369Q102 369 69 375Q67 390 66 402T65 424Q65 435 66 447T69 472Q86 475 102 477T135 479Q152 479 169 477T204 472Q207 444 207 424Q207 413 207 402T204 375ZM90
300H178L208 82V-177H60V82L90 300Z" />
<glyph unicode="&#xa2;" glyph-name="cent" horiz-adv-x="474" d="M439 150V20Q414 10 363 5V-110H213V2Q150 8 109 33T46 110T25 248Q25 336 47 388T111 467T213 499V616H363V494Q406 488 433 479L434 345L431 343Q401 349 367 352T300 355Q233 355 207 330T181
246Q181 201 192 179T229 150T300 143Q335 143 367 146T435 153L439 150Z" />
<glyph unicode="&#xa3;" glyph-name="sterling" horiz-adv-x="552" d="M201 139H532V9H50V139Q84 139 102 166T120 230V262H50V392H121Q123 473 136 524T177 602T252 640T369 651Q403 651 428 649T478 643T532 628V504L529 502Q495 512 469 515T402 518Q358 518
333 510T295 475T281 392H511V262H280V243Q280 208 260 178T201 140V139Z" />
<glyph unicode="&#xa4;" glyph-name="currency" horiz-adv-x="632" d="M10 28L96 168Q66 223 66 321Q66 422 97 479L10 621H185L217 563Q259 573 316 573Q376 573 420 562L452 621H622L536 476Q566 420 566 321Q566 225 538 170L622 28H452L422 83Q377 72 316
72Q257 72 215 82L185 28H10ZM316 208Q374 208 394 233T415 323Q415 384 395 410T316 437Q260 437 239 411T217 323Q217 259 238 234T316 208Z" />
<glyph unicode="&#xa5;" glyph-name="yen" horiz-adv-x="570" d="M205 9V104H67V204H205V205L187 244H67V344H139L0 639V642H175Q206 561 224 513T253 437T270 392T283 356H287Q294 375 300 392T316 436T345 512T395 642H570V639L431 344H498V244H383L365 205V204H498V104H365V9H205Z"
/>
<glyph unicode="&#xa6;" glyph-name="brokenbar" horiz-adv-x="280" d="M76 241V682H236V241H76ZM236 139V-301H76V139H236Z" />
<glyph unicode="&#xa7;" glyph-name="section" horiz-adv-x="600" d="M389 347Q389 364 377 373T327 389L248 404Q172 419 139 451T105 549Q105 637 157 669T325 701Q394 701 446 694T534 675L532 554L529 551Q448 577 352 577Q305 577 287 571T268 545Q268 535
273 529T299 518T362 504L435 490Q495 477 524 443T554 347H389ZM268 355Q276 331 296 322T362 304L435 290Q496 277 525 247T554 152Q554 95 533 62T463 14T326 0Q260 0 205 6T105 22V145L108 147Q186 125 281 125Q327 125 350 128T381 138T389 157Q389 174 377
178T327 189L248 204Q173 219 140 255T105 355H268Z" />
<glyph unicode="&#xa8;" glyph-name="dieresis" horiz-adv-x="339" d="M327 780Q328 767 328 756T329 735Q329 725 329 714T327 689Q295 682 261 682Q246 682 231 683T198 689Q195 715 195 735Q195 753 198 780Q229 787 263 787Q296 787 327 780ZM142 780Q143
767 143 756T144 735Q144 725 144 714T142 689Q110 682 76 682Q61 682 46 683T13 689Q10 715 10 735Q10 753 13 780Q44 787 78 787Q111 787 142 780Z" />
<glyph unicode="&#xa9;" glyph-name="copyright" horiz-adv-x="1123" d="M65 356Q65 486 90 574T172 716T324 793T562 817Q704 817 799 794T952 717T1033 575T1058 356Q1058 226 1034 137T952 -5T800 -82T562 -106Q420 -106 325 -83T172 -6T90 137T65 356ZM562
24Q678 24 749 39T857 92T909 194T923 356Q923 454 910 518T859 619T750 671T562 687Q452 687 383 672T276 619T224 518T210 356Q210 259 224 195T275 93T382 40T562 24ZM739 252V125Q714 115 666 110T564 105Q487 105 436 126T359 201T333 348Q333 445 360 498T438
574T563 596Q607 596 655 590T733 575L734 443L731 441Q702 447 669 450T603 453Q537 453 512 429T486 346Q486 302 497 281T533 252T603 245Q637 245 668 248T735 255L739 252Z" />
<glyph unicode="&#xaa;" glyph-name="ordfeminine" horiz-adv-x="459" d="M201 691Q280 691 328 675T399 615T422 488V287H303L299 325H296Q280 304 248 292T162 280Q21 280 21 413Q21 469 58 501T176 534H297Q292 569 268 581T186 593Q150 593 115 588T54 575L52
577L53 672Q77 680 120 685T201 691ZM196 377Q247 377 272 389T299 430V451H206Q170 451 156 441T141 413Q141 392 156 385T196 377Z" />
<glyph unicode="&#xab;" glyph-name="guillemotleft" horiz-adv-x="486" d="M221 237L350 433H486L356 237L486 43H350L221 237ZM-10 237L119 433H255L124 237L255 43H119L-10 237Z" />
<glyph unicode="&#xac;" glyph-name="logicalnot" horiz-adv-x="624" d="M454 496H614V153H454V365H10V495H454V496Z" />
<glyph unicode="&#xad;" glyph-name="uni00AD" horiz-adv-x="600" d="M30 197V322H438V197H30Z" />
<glyph unicode="&#xae;" glyph-name="registered" horiz-adv-x="889" d="M40 598Q40 703 60 774T126 889T251 951T445 970Q561 970 639 951T763 889T829 775T849 598Q849 492 829 421T763 306T639 244T445 225Q329 225 251 244T127 306T60 420T40 598ZM445 330Q535
330 591 342T677 383T718 464T729 598Q729 677 719 728T678 810T592 852T445 865Q356 865 300 853T214 810T172 729T160 598Q160 517 171 465T213 383T300 342T445 330ZM529 534Q545 524 564 501T602 450T635 398V397H517L431 526H386V397H285V798H476Q551 798
585 764T620 664Q620 615 596 580T530 535L529 534ZM459 608Q491 608 503 621T516 662Q516 691 504 703T459 716H386V608H459Z" />
<glyph unicode="&#xaf;" glyph-name="overscore" horiz-adv-x="324" d="M314 782V682H10V782H314Z" />
<glyph unicode="&#xb0;" glyph-name="degree" horiz-adv-x="293" d="M273 603Q273 541 244 511T146 480Q79 480 50 510T20 603Q20 666 49 696T146 727Q214 727 243 697T273 603ZM146 549Q178 549 190 562T202 603Q202 631 190 644T146 657Q115 657 103 644T91
603Q91 575 103 562T146 549Z" />
<glyph unicode="&#xb1;" glyph-name="plusminus" horiz-adv-x="582" d="M365 581V453H542V329H365V201H217V329H40V453H217V581H365ZM40 154H542V54H40V154Z" />
<glyph unicode="&#xb2;" glyph-name="uni00B2" horiz-adv-x="364" d="M36 524V618Q60 632 98 641T182 651Q254 651 297 623T340 527Q340 475 316 444T229 387Q168 362 145 351T122 325H344V235H25V310Q25 350 37 374T78 416T157 455Q196 472 218 486T239 519Q236
561 168 561Q135 561 102 550T42 524H36Z" />
<glyph unicode="&#xb3;" glyph-name="uni00B3" horiz-adv-x="397" d="M61 634Q90 642 126 646T205 651Q293 651 327 626T362 548Q362 508 342 480T272 445V442Q325 439 346 414T367 353Q367 292 330 262T203 229Q155 228 111 236T40 256V342H44Q76 330 108 324T182
318Q226 318 243 328T261 360Q261 381 246 389T190 397H136V490H181Q228 490 244 498T261 526Q261 546 243 554T178 562Q147 562 116 558T63 547L61 548V634Z" />
<glyph unicode="&#xb4;" glyph-name="acute" horiz-adv-x="280" d="M260 830L138 691H10L112 837H260V830Z" />
<glyph unicode="&#xb5;" glyph-name="uni00B5" horiz-adv-x="600" d="M212 40H210V-231H51L50 168Q50 178 50 189V496H210L211 228Q211 183 227 165T292 146Q339 146 355 162T373 219V496H533V9H381L373 54H370Q362 32 340 21T288 10Q257 10 239 19T212 40Z" />
<glyph unicode="&#xb6;" glyph-name="paragraph" horiz-adv-x="600" d="M253 693H458V0H306V368H253Q157 368 118 404T79 531Q79 596 96 631T151 679T253 693Z" />
<glyph unicode="&#xb7;" glyph-name="middot" horiz-adv-x="270" d="M225 340Q228 321 229 306T230 276Q230 262 229 247T225 212Q203 207 180 205T134 202Q87 202 46 212Q42 230 41 245T40 275Q40 289 41 305T46 340Q68 345 91 347T136 349Q158 349 180 347T225 340Z" />
<glyph unicode="&#xb8;" glyph-name="cedilla" horiz-adv-x="223" d="M2 -131Q11 -133 26 -135T72 -137Q113 -137 127 -132T142 -115Q142 -103 125 -98T54 -91H40L63 20H153L140 -35Q185 -39 205 -57T226 -119Q226 -174 198 -196T101 -218Q61 -218 39 -217T-3
-211V-134L2 -131Z" />
<glyph unicode="&#xb9;" glyph-name="uni00B9" horiz-adv-x="301" d="M40 468V592L119 642H230L231 235H119V516H116L44 468H40Z" />
<glyph unicode="&#xba;" glyph-name="ordmasculine" horiz-adv-x="470" d="M30 484Q30 594 77 642T235 691Q347 691 393 643T440 484Q440 376 394 328T235 280Q124 280 77 328T30 484ZM235 392Q282 392 299 413T316 487Q316 537 299 558T235 580Q189 580 172 559T154
487Q154 434 171 413T235 392Z" />
<glyph unicode="&#xbb;" glyph-name="guillemotright" horiz-adv-x="496" d="M275 237L146 43H10L140 237L10 433H146L275 237ZM506 237L377 43H241L372 237L241 433H377L506 237Z" />
<glyph unicode="&#xbc;" glyph-name="onequarter" horiz-adv-x="918" d="M499 722H644L315 -101H170L499 722ZM40 468V592L119 642H230L231 235H119V516H116L44 468H40ZM500 164L653 416H808V156H878V75H810V9H711L709 75H500V164ZM716 156V353L603 156H716Z" />
<glyph unicode="&#xbd;" glyph-name="onehalf" horiz-adv-x="944" d="M499 722H644L315 -101H170L499 722ZM40 468V592L119 642H230L231 235H119V516H116L44 468H40ZM596 298V392Q620 406 658 415T742 425Q814 425 857 397T900 301Q900 249 876 218T789 161Q728
136 705 125T682 99H904V9H585V84Q585 124 597 148T638 190T717 229Q756 246 778 260T799 293Q796 335 728 335Q695 335 662 324T602 298H596Z" />
<glyph unicode="&#xbe;" glyph-name="threequarters" horiz-adv-x="1018" d="M599 722H744L415 -101H270L599 722ZM61 634Q90 642 126 646T205 651Q293 651 327 626T362 548Q362 508 342 480T272 445V442Q325 439 346 414T367 353Q367 292 330 262T203 229Q155
228 111 236T40 256V342H44Q76 330 108 324T182 318Q226 318 243 328T261 360Q261 381 246 389T190 397H136V490H181Q228 490 244 498T261 526Q261 546 243 554T178 562Q147 562 116 558T63 547L61 548V634ZM600 164L753 416H908V156H978V75H910V9H811L809 75H600V164ZM816
156V353L703 156H816Z" />
<glyph unicode="&#xbf;" glyph-name="questiondown" horiz-adv-x="420" d="M159 348Q156 383 156 405Q156 429 159 462Q180 466 200 468T240 470Q260 470 279 468T317 462Q320 446 321 433T322 405Q322 394 321 380T317 348Q298 344 278 343T238 341Q219 341 199
342T159 348ZM421 -23V-142Q384 -160 338 -168T251 -177Q170 -177 121 -160T51 -103T29 0Q29 45 38 76T80 140L111 168Q137 192 148 203T161 225T164 256V294H315V266Q315 233 313 213T299 176T260 135L234 111Q208 87 195 72T177 43T172 8Q172 -27 196 -38T280
-50Q352 -50 416 -22L421 -23Z" />
<glyph unicode="&#xc0;" glyph-name="Agrave" horiz-adv-x="650" d="M640 12V9H470Q463 33 454 64T433 130H217Q197 60 180 9H10V11L215 642H435L640 12ZM323 528Q313 477 294 404T254 255H397Q375 331 356 404T327 528H323ZM158 829V836H306L408 682H280L158 829Z" />
<glyph unicode="&#xc1;" glyph-name="Aacute" horiz-adv-x="650" d="M640 12V9H470Q463 33 454 64T433 130H217Q197 60 180 9H10V11L215 642H435L640 12ZM323 528Q313 477 294 404T254 255H397Q375 331 356 404T327 528H323ZM501 830L379 691H251L353 837H501V830Z" />
<glyph unicode="&#xc2;" glyph-name="Acircumflex" horiz-adv-x="650" d="M640 12V9H470Q463 33 454 64T433 130H217Q197 60 180 9H10V11L215 642H435L640 12ZM323 528Q313 477 294 404T254 255H397Q375 331 356 404T327 528H323ZM489 691H374Q363 708 348 732T327
775H324Q317 756 303 732T277 691H161L268 836H376L489 691Z" />
<glyph unicode="&#xc3;" glyph-name="Atilde" horiz-adv-x="650" d="M640 12V9H470Q463 33 454 64T433 130H217Q197 60 180 9H10V11L215 642H435L640 12ZM323 528Q313 477 294 404T254 255H397Q375 331 356 404T327 528H323ZM419 682Q395 682 365 694T306 717T255
729Q228 729 228 702Q228 700 228 697T229 691H144Q144 691 143 706T141 735Q141 779 165 799T230 819Q255 819 285 808T344 784T395 772Q406 772 413 778T421 799Q421 801 421 804T420 810H506Q506 810 507 795T509 766Q509 722 485 702T419 682Z" />
<glyph unicode="&#xc4;" glyph-name="Adieresis" horiz-adv-x="650" d="M640 12V9H470Q463 33 454 64T433 130H217Q197 60 180 9H10V11L215 642H435L640 12ZM323 528Q313 477 294 404T254 255H397Q375 331 356 404T327 528H323ZM483 780Q484 767 484 756T485 735Q485
725 485 714T483 689Q451 682 417 682Q402 682 387 683T354 689Q351 715 351 735Q351 753 354 780Q385 787 419 787Q452 787 483 780ZM298 780Q299 767 299 756T300 735Q300 725 300 714T298 689Q266 682 232 682Q217 682 202 683T169 689Q166 715 166 735Q166
753 169 780Q200 787 234 787Q267 787 298 780Z" />
<glyph unicode="&#xc5;" glyph-name="Aring" horiz-adv-x="650" d="M640 12V9H470Q463 33 454 64T433 130H217Q197 60 180 9H10V11L215 642H435L640 12ZM323 528Q313 477 294 404T254 255H397Q375 331 356 404T327 528H323ZM426 777Q426 729 402 705T325 681Q273
681 249 705T225 777Q225 827 249 851T325 875Q378 875 402 851T426 777ZM325 745Q345 745 352 753T360 779Q360 796 353 804T325 812Q306 812 299 804T291 779Q291 762 298 754T325 745Z" />
<glyph unicode="&#xc6;" glyph-name="AE" horiz-adv-x="950" d="M930 139V9H460V130H259Q240 93 225 62T199 9H10V11L343 642H930V512H620V392H889V262H620V139H930ZM456 528Q441 497 420 453T373 358T321 255H460V528H456Z" />
<glyph unicode="&#xc7;" glyph-name="Ccedilla" horiz-adv-x="557" d="M532 146V20Q484 10 438 5T329 0Q248 0 193 14T104 63T55 164T40 331Q40 429 55 492T103 589T192 637T329 651Q392 651 438 647T532 631V501L529 499Q487 509 448 513T352 518Q306 518 277
512T230 486T207 430T200 331Q200 266 206 227T230 167T276 140T352 133Q408 133 447 136T527 150L532 146ZM237 -131Q246 -133 261 -135T307 -137Q348 -137 362 -132T377 -115Q377 -103 360 -98T289 -91H275L298 20H388L375 -35Q420 -39 440 -57T461 -119Q461
-174 433 -196T336 -218Q296 -218 274 -217T232 -211V-134L237 -131Z" />
<glyph unicode="&#xc8;" glyph-name="Egrave" horiz-adv-x="550" d="M60 9V642H530V512H220V392H489V262H220V139H530V9H60ZM120 829V836H268L370 682H242L120 829Z" />
<glyph unicode="&#xc9;" glyph-name="Eacute" horiz-adv-x="550" d="M60 9V642H530V512H220V392H489V262H220V139H530V9H60ZM490 830L368 691H240L342 837H490V830Z" />
<glyph unicode="&#xca;" glyph-name="Ecircumflex" horiz-adv-x="550" d="M60 9V642H530V512H220V392H489V262H220V139H530V9H60ZM459 691H344Q333 708 318 732T297 775H294Q287 756 273 732T247 691H131L238 836H346L459 691Z" />
<glyph unicode="&#xcb;" glyph-name="Edieresis" horiz-adv-x="550" d="M60 9V642H530V512H220V392H489V262H220V139H530V9H60ZM453 780Q454 767 454 756T455 735Q455 725 455 714T453 689Q421 682 387 682Q372 682 357 683T324 689Q321 715 321 735Q321 753 324
780Q355 787 389 787Q422 787 453 780ZM268 780Q269 767 269 756T270 735Q270 725 270 714T268 689Q236 682 202 682Q187 682 172 683T139 689Q136 715 136 735Q136 753 139 780Q170 787 204 787Q237 787 268 780Z" />
<glyph unicode="&#xcc;" glyph-name="Igrave" horiz-adv-x="280" d="M220 9H60V642H220V9ZM213 829V836H361L463 682H335L213 829Z" />
<glyph unicode="&#xcd;" glyph-name="Iacute" horiz-adv-x="300" d="M220 9H60V642H220V9ZM320 830L198 691H70L172 837H320V830Z" />
<glyph unicode="&#xce;" glyph-name="Icircumflex" horiz-adv-x="275" d="M220 9H60V642H220V9ZM315 691H200Q189 708 174 732T153 775H150Q143 756 129 732T103 691H-13L94 836H202L315 691Z" />
<glyph unicode="&#xcf;" glyph-name="Idieresis" horiz-adv-x="359" d="M255 9H95V642H255V9ZM332 780Q333 767 333 756T334 735Q334 725 334 714T332 689Q300 682 266 682Q251 682 236 683T203 689Q200 715 200 735Q200 753 203 780Q234 787 268 787Q301 787
332 780ZM147 780Q148 767 148 756T149 735Q149 725 149 714T147 689Q115 682 81 682Q66 682 51 683T18 689Q15 715 15 735Q15 753 18 780Q49 787 83 787Q116 787 147 780Z" />
<glyph unicode="&#xd0;" glyph-name="Eth" horiz-adv-x="680" d="M10 262V392H70V642H347Q430 642 486 629T576 581T625 487T640 331Q640 232 625 169T576 71T486 23T347 9H70V262H10ZM339 262H230V144H324Q382 144 415 157T463 210T478 331Q478 408 464 445T416
495T324 507H230V392H339V262Z" />
<glyph unicode="&#xd1;" glyph-name="Ntilde" horiz-adv-x="690" d="M470 642H630V9H471L291 277Q270 309 256 331T230 375T203 427L200 423Q214 375 217 334T220 253V9H60V642H219L399 374Q420 343 434 321T460 276T487 224L490 228Q480 270 475 309T470 388V642ZM439
682Q415 682 385 694T326 717T275 729Q248 729 248 702Q248 700 248 697T249 691H164Q164 691 163 706T161 735Q161 779 185 799T250 819Q275 819 305 808T364 784T415 772Q426 772 433 778T441 799Q441 801 441 804T440 810H526Q526 810 527 795T529 766Q529 722
505 702T439 682Z" />
<glyph unicode="&#xd2;" glyph-name="Ograve" horiz-adv-x="701" d="M40 326Q40 447 67 518T162 620T351 651Q442 651 502 634T597 579T646 479T661 326Q661 235 647 173T597 72T502 17T351 0Q260 0 200 17T105 72T55 172T40 326ZM351 140Q415 140 447 156T490
212T501 326Q501 398 490 438T447 494T351 511Q288 511 256 495T212 438T200 326Q200 253 211 213T255 156T351 140ZM170 829V836H318L420 682H292L170 829Z" />
<glyph unicode="&#xd3;" glyph-name="Oacute" horiz-adv-x="701" d="M40 326Q40 447 67 518T162 620T351 651Q442 651 502 634T597 579T646 479T661 326Q661 235 647 173T597 72T502 17T351 0Q260 0 200 17T105 72T55 172T40 326ZM351 140Q415 140 447 156T490
212T501 326Q501 398 490 438T447 494T351 511Q288 511 256 495T212 438T200 326Q200 253 211 213T255 156T351 140ZM530 830L408 691H280L382 837H530V830Z" />
<glyph unicode="&#xd4;" glyph-name="Ocircumflex" horiz-adv-x="701" d="M40 326Q40 447 67 518T162 620T351 651Q442 651 502 634T597 579T646 479T661 326Q661 235 647 173T597 72T502 17T351 0Q260 0 200 17T105 72T55 172T40 326ZM351 140Q415 140 447 156T490
212T501 326Q501 398 490 438T447 494T351 511Q288 511 256 495T212 438T200 326Q200 253 211 213T255 156T351 140ZM515 691H400Q389 708 374 732T353 775H350Q343 756 329 732T303 691H187L294 836H402L515 691Z" />
<glyph unicode="&#xd5;" glyph-name="Otilde" horiz-adv-x="701" d="M40 326Q40 447 67 518T162 620T351 651Q442 651 502 634T597 579T646 479T661 326Q661 235 647 173T597 72T502 17T351 0Q260 0 200 17T105 72T55 172T40 326ZM351 140Q415 140 447 156T490
212T501 326Q501 398 490 438T447 494T351 511Q288 511 256 495T212 438T200 326Q200 253 211 213T255 156T351 140ZM445 682Q421 682 391 694T332 717T281 729Q254 729 254 702Q254 700 254 697T255 691H170Q170 691 169 706T167 735Q167 779 191 799T256 819Q281
819 311 808T370 784T421 772Q432 772 439 778T447 799Q447 801 447 804T446 810H532Q532 810 533 795T535 766Q535 722 511 702T445 682Z" />
<glyph unicode="&#xd6;" glyph-name="Odieresis" horiz-adv-x="701" d="M40 326Q40 447 67 518T162 620T351 651Q442 651 502 634T597 579T646 479T661 326Q661 235 647 173T597 72T502 17T351 0Q260 0 200 17T105 72T55 172T40 326ZM351 140Q415 140 447 156T490
212T501 326Q501 398 490 438T447 494T351 511Q288 511 256 495T212 438T200 326Q200 253 211 213T255 156T351 140ZM508 780Q509 767 509 756T510 735Q510 725 510 714T508 689Q476 682 442 682Q427 682 412 683T379 689Q376 715 376 735Q376 753 379 780Q410
787 444 787Q477 787 508 780ZM323 780Q324 767 324 756T325 735Q325 725 325 714T323 689Q291 682 257 682Q242 682 227 683T194 689Q191 715 191 735Q191 753 194 780Q225 787 259 787Q292 787 323 780Z" />
<glyph unicode="&#xd7;" glyph-name="multiply" horiz-adv-x="479" d="M342 130L239 232L138 131L41 227L142 329L40 431L137 528L239 427L342 529L439 431L336 329L438 226L342 130Z" />
<glyph unicode="&#xd8;" glyph-name="Oslash" horiz-adv-x="683" d="M-10 9V124L47 166Q39 199 35 238T31 326Q31 447 58 518T153 620T342 651Q438 651 499 632T595 570L692 642H693V527L636 485Q644 453 648 414T652 326Q652 235 638 173T588 72T493 17T342 0Q246
0 185 19T88 81L-9 9H-10ZM191 326Q191 296 192 273L464 474Q448 494 419 502T342 511Q279 511 247 495T203 438T191 326ZM342 140Q406 140 438 156T481 212T492 326Q492 356 491 378L219 177Q236 157 265 149T342 140Z" />
<glyph unicode="&#xd9;" glyph-name="Ugrave" horiz-adv-x="668" d="M608 642V269Q608 171 585 112T503 27T339 0Q229 0 169 26T84 112T60 269V642H220V272Q220 221 230 192T266 152T339 140Q383 140 406 151T439 192T448 272V642H608ZM170 829V836H318L420 682H292L170
829Z" />
<glyph unicode="&#xda;" glyph-name="Uacute" horiz-adv-x="668" d="M608 642V269Q608 171 585 112T503 27T339 0Q229 0 169 26T84 112T60 269V642H220V272Q220 221 230 192T266 152T339 140Q383 140 406 151T439 192T448 272V642H608ZM510 830L388 691H260L362
837H510V830Z" />
<glyph unicode="&#xdb;" glyph-name="Ucircumflex" horiz-adv-x="668" d="M608 642V269Q608 171 585 112T503 27T339 0Q229 0 169 26T84 112T60 269V642H220V272Q220 221 230 192T266 152T339 140Q383 140 406 151T439 192T448 272V642H608ZM498 691H383Q372 708
357 732T336 775H333Q326 756 312 732T286 691H170L277 836H385L498 691Z" />
<glyph unicode="&#xdc;" glyph-name="Udieresis" horiz-adv-x="668" d="M608 642V269Q608 171 585 112T503 27T339 0Q229 0 169 26T84 112T60 269V642H220V272Q220 221 230 192T266 152T339 140Q383 140 406 151T439 192T448 272V642H608ZM492 780Q493 767 493
756T494 735Q494 725 494 714T492 689Q460 682 426 682Q411 682 396 683T363 689Q360 715 360 735Q360 753 363 780Q394 787 428 787Q461 787 492 780ZM307 780Q308 767 308 756T309 735Q309 725 309 714T307 689Q275 682 241 682Q226 682 211 683T178 689Q175
715 175 735Q175 753 178 780Q209 787 243 787Q276 787 307 780Z" />
<glyph unicode="&#xdd;" glyph-name="Yacute" horiz-adv-x="570" d="M205 9V205L0 639V642H175Q206 561 224 513T253 437T270 392T283 356H287Q294 375 300 392T316 436T345 512T395 642H570V639L365 205V9H205ZM460 830L338 691H210L312 837H460V830Z" />
<glyph unicode="&#xde;" glyph-name="Thorn" horiz-adv-x="626" d="M220 9H60V691H220V631H342Q437 631 494 609T576 536T601 402Q601 323 576 273T494 198T342 173H220V9ZM316 500H220V304H316Q387 304 411 327T435 402Q435 452 411 476T316 500Z" />
<glyph unicode="&#xdf;" glyph-name="germandbls" horiz-adv-x="622" d="M413 363Q476 357 513 339T566 284T582 187Q582 96 534 53T368 9H285V133L334 134Q383 136 405 150T427 216Q427 261 405 277T334 294H285V425L314 426Q363 428 385 446T407 503Q407 555
387 571T314 587Q259 587 240 563T220 495V9H60V495Q60 605 118 656T312 707Q447 707 504 660T562 527Q562 448 530 411T413 366V363Z" />
<glyph unicode="&#xe0;" glyph-name="agrave" horiz-adv-x="559" d="M245 501Q341 501 400 481T486 408T514 253V9H369L364 55H361Q342 30 302 15T198 0Q25 0 25 162Q25 231 70 270T214 310H362Q355 352 326 366T227 381Q183 381 141 375T66 360L63 362L64 478Q84
484 115 489T180 498T245 501ZM239 118Q301 118 332 133T364 183V208H251Q207 208 190 196T172 162Q172 137 190 128T239 118ZM95 698V705H243L345 551H217L95 698Z" />
<glyph unicode="&#xe1;" glyph-name="aacute" horiz-adv-x="559" d="M245 501Q341 501 400 481T486 408T514 253V9H369L364 55H361Q342 30 302 15T198 0Q25 0 25 162Q25 231 70 270T214 310H362Q355 352 326 366T227 381Q183 381 141 375T66 360L63 362L64 478Q84
484 115 489T180 498T245 501ZM239 118Q301 118 332 133T364 183V208H251Q207 208 190 196T172 162Q172 137 190 128T239 118ZM430 690L308 551H180L282 697H430V690Z" />
<glyph unicode="&#xe2;" glyph-name="acircumflex" horiz-adv-x="559" d="M245 501Q341 501 400 481T486 408T514 253V9H369L364 55H361Q342 30 302 15T198 0Q25 0 25 162Q25 231 70 270T214 310H362Q355 352 326 366T227 381Q183 381 141 375T66 360L63 362L64
478Q84 484 115 489T180 498T245 501ZM239 118Q301 118 332 133T364 183V208H251Q207 208 190 196T172 162Q172 137 190 128T239 118ZM434 551H319Q308 568 293 592T272 635H269Q262 616 248 592T222 551H106L213 696H321L434 551Z" />
<glyph unicode="&#xe3;" glyph-name="atilde" horiz-adv-x="559" d="M245 501Q341 501 400 481T486 408T514 253V9H369L364 55H361Q342 30 302 15T198 0Q25 0 25 162Q25 231 70 270T214 310H362Q355 352 326 366T227 381Q183 381 141 375T66 360L63 362L64 478Q84
484 115 489T180 498T245 501ZM239 118Q301 118 332 133T364 183V208H251Q207 208 190 196T172 162Q172 137 190 128T239 118ZM364 543Q340 543 310 555T251 578T200 590Q173 590 173 563Q173 561 173 558T174 552H89Q89 552 88 567T86 596Q86 640 110 660T175
680Q200 680 230 669T289 645T340 633Q351 633 358 639T366 660Q366 662 366 665T365 671H451Q451 671 452 656T454 627Q454 583 430 563T364 543Z" />
<glyph unicode="&#xe4;" glyph-name="adieresis" horiz-adv-x="559" d="M245 501Q341 501 400 481T486 408T514 253V9H369L364 55H361Q342 30 302 15T198 0Q25 0 25 162Q25 231 70 270T214 310H362Q355 352 326 366T227 381Q183 381 141 375T66 360L63 362L64
478Q84 484 115 489T180 498T245 501ZM239 118Q301 118 332 133T364 183V208H251Q207 208 190 196T172 162Q172 137 190 128T239 118ZM427 643Q428 630 428 619T429 598Q429 588 429 577T427 552Q395 545 361 545Q346 545 331 546T298 552Q295 578 295 598Q295
616 298 643Q329 650 363 650Q396 650 427 643ZM242 643Q243 630 243 619T244 598Q244 588 244 577T242 552Q210 545 176 545Q161 545 146 546T113 552Q110 578 110 598Q110 616 113 643Q144 650 178 650Q211 650 242 643Z" />
<glyph unicode="&#xe5;" glyph-name="aring" horiz-adv-x="559" d="M245 501Q341 501 400 481T486 408T514 253V9H369L364 55H361Q342 30 302 15T198 0Q25 0 25 162Q25 231 70 270T214 310H362Q355 352 326 366T227 381Q183 381 141 375T66 360L63 362L64 478Q84
484 115 489T180 498T245 501ZM239 118Q301 118 332 133T364 183V208H251Q207 208 190 196T172 162Q172 137 190 128T239 118ZM370 638Q370 590 346 566T269 542Q217 542 193 566T169 638Q169 688 193 712T269 736Q322 736 346 712T370 638ZM269 606Q289 606 296
614T304 640Q304 657 297 665T269 673Q250 673 243 665T235 640Q235 623 242 615T269 606Z" />
<glyph unicode="&#xe6;" glyph-name="ae" horiz-adv-x="878" d="M612 501Q703 501 755 475T830 402T853 289Q853 270 852 248T846 205L842 201H513Q521 157 555 143T667 129Q719 129 753 131T824 139L828 136V25Q800 15 751 8T633 0Q555 0 499 18T409 79H407Q385
36 340 18T218 0Q125 0 75 41T25 162Q25 231 70 270T214 310H363Q356 353 328 367T228 381Q184 381 142 375T67 360L64 362L65 478Q85 484 116 489T181 498T246 501Q312 501 360 492T440 456Q498 501 612 501ZM510 306H714Q714 330 707 347T677 374T612 384Q549
384 530 363T510 306ZM249 118Q307 118 336 132T367 196Q367 199 367 202T366 208H251Q207 208 190 196T172 162Q172 137 195 128T249 118Z" />
<glyph unicode="&#xe7;" glyph-name="ccedilla" horiz-adv-x="469" d="M439 150V20Q414 10 365 5T261 0Q182 0 130 22T52 98T25 248Q25 347 52 402T133 479T260 501Q304 501 353 495T433 479L434 345L431 343Q401 349 367 352T300 355Q233 355 207 330T181 246Q181
201 192 179T229 150T300 143Q335 143 367 146T435 153L439 150ZM154 -131Q163 -133 178 -135T224 -137Q265 -137 279 -132T294 -115Q294 -103 277 -98T206 -91H192L215 20H305L292 -35Q337 -39 357 -57T378 -119Q378 -174 350 -196T253 -218Q213 -218 191 -217T149
-211V-134L154 -131Z" />
<glyph unicode="&#xe8;" glyph-name="egrave" horiz-adv-x="539" d="M489 25Q461 15 412 8T294 0Q208 0 148 22T56 99T25 251Q25 383 85 442T273 501Q364 501 416 475T491 402T514 289Q514 270 513 248T507 205L503 201H174Q181 157 215 143T328 129Q380 129 414
131T485 139L489 136V25ZM375 306Q375 330 368 347T338 374T273 384Q210 384 191 363T171 306H375ZM85 698V705H233L335 551H207L85 698Z" />
<glyph unicode="&#xe9;" glyph-name="eacute" horiz-adv-x="539" d="M489 25Q461 15 412 8T294 0Q208 0 148 22T56 99T25 251Q25 383 85 442T273 501Q364 501 416 475T491 402T514 289Q514 270 513 248T507 205L503 201H174Q181 157 215 143T328 129Q380 129 414
131T485 139L489 136V25ZM375 306Q375 330 368 347T338 374T273 384Q210 384 191 363T171 306H375ZM437 689L315 550H187L289 696H437V689Z" />
<glyph unicode="&#xea;" glyph-name="ecircumflex" horiz-adv-x="539" d="M489 25Q461 15 412 8T294 0Q208 0 148 22T56 99T25 251Q25 383 85 442T273 501Q364 501 416 475T491 402T514 289Q514 270 513 248T507 205L503 201H174Q181 157 215 143T328 129Q380
129 414 131T485 139L489 136V25ZM375 306Q375 330 368 347T338 374T273 384Q210 384 191 363T171 306H375ZM434 551H319Q308 568 293 592T272 635H269Q262 616 248 592T222 551H106L213 696H321L434 551Z" />
<glyph unicode="&#xeb;" glyph-name="edieresis" horiz-adv-x="539" d="M489 25Q461 15 412 8T294 0Q208 0 148 22T56 99T25 251Q25 383 85 442T273 501Q364 501 416 475T491 402T514 289Q514 270 513 248T507 205L503 201H174Q181 157 215 143T328 129Q380 129
414 131T485 139L489 136V25ZM375 306Q375 330 368 347T338 374T273 384Q210 384 191 363T171 306H375ZM427 643Q428 630 428 619T429 598Q429 588 429 577T427 552Q395 545 361 545Q346 545 331 546T298 552Q295 578 295 598Q295 616 298 643Q329 650 363 650Q396
650 427 643ZM242 643Q243 630 243 619T244 598Q244 588 244 577T242 552Q210 545 176 545Q161 545 146 546T113 552Q110 578 110 598Q110 616 113 643Q144 650 178 650Q211 650 242 643Z" />
<glyph unicode="&#xec;" glyph-name="igrave" horiz-adv-x="262" d="M211 9H51V496H211V9ZM-60 699V706H88L190 552H62L-60 699Z" />
<glyph unicode="&#xed;" glyph-name="iacute" horiz-adv-x="262" d="M211 9H51V496H211V9ZM310 690L188 551H60L162 697H310V690Z" />
<glyph unicode="&#xee;" glyph-name="icircumflex" horiz-adv-x="262" d="M211 9H51V496H211V9ZM305 551H190Q179 568 164 592T143 635H140Q133 616 119 592T93 551H-23L84 696H192L305 551Z" />
<glyph unicode="&#xef;" glyph-name="idieresis" horiz-adv-x="262" d="M211 9H51V496H211V9ZM287 642Q288 629 288 618T289 597Q289 587 289 576T287 551Q255 544 221 544Q206 544 191 545T158 551Q155 577 155 597Q155 615 158 642Q189 649 223 649Q256 649
287 642ZM102 642Q103 629 103 618T104 597Q104 587 104 576T102 551Q70 544 36 544Q21 544 6 545T-27 551Q-30 577 -30 597Q-30 615 -27 642Q4 649 38 649Q71 649 102 642Z" />
<glyph unicode="&#xf0;" glyph-name="eth" horiz-adv-x="554" d="M510 248Q513 178 493 122T422 33T280 0Q152 0 96 53T40 209Q40 313 90 359T232 405Q281 405 310 395T353 370L355 371Q340 423 317 474H180V564H268Q241 607 206 652H350Q384 611 412 564H524V474H458Q480
422 494 365T510 248ZM280 137Q327 137 348 157T369 212Q369 247 348 266T280 286Q231 286 211 267T191 212Q191 178 211 158T280 137Z" />
<glyph unicode="&#xf1;" glyph-name="ntilde" horiz-adv-x="593" d="M220 9H60V496H212L220 407H223Q237 452 273 476T373 501Q460 501 501 452T543 282V9H383L382 251Q382 307 365 331T301 355Q257 355 239 334T220 260V9ZM381 541Q357 541 327 553T268 576T217
588Q190 588 190 561Q190 559 190 556T191 550H106Q106 550 105 565T103 594Q103 638 127 658T192 678Q217 678 247 667T306 643T357 631Q368 631 375 637T383 658Q383 660 383 663T382 669H468Q468 669 469 654T471 625Q471 581 447 561T381 541Z" />
<glyph unicode="&#xf2;" glyph-name="ograve" horiz-adv-x="550" d="M25 249Q25 383 82 442T275 501Q366 501 421 475T500 394T525 249Q525 161 501 106T421 26T275 0Q139 0 82 58T25 249ZM275 137Q333 137 353 162T374 252Q374 313 354 339T275 366Q219 366 198
340T176 252Q176 188 197 163T275 137ZM110 698V705H258L360 551H232L110 698Z" />
<glyph unicode="&#xf3;" glyph-name="oacute" horiz-adv-x="550" d="M25 249Q25 383 82 442T275 501Q366 501 421 475T500 394T525 249Q525 161 501 106T421 26T275 0Q139 0 82 58T25 249ZM275 137Q333 137 353 162T374 252Q374 313 354 339T275 366Q219 366 198
340T176 252Q176 188 197 163T275 137ZM460 690L338 551H210L312 697H460V690Z" />
<glyph unicode="&#xf4;" glyph-name="ocircumflex" horiz-adv-x="550" d="M25 249Q25 383 82 442T275 501Q366 501 421 475T500 394T525 249Q525 161 501 106T421 26T275 0Q139 0 82 58T25 249ZM275 137Q333 137 353 162T374 252Q374 313 354 339T275 366Q219
366 198 340T176 252Q176 188 197 163T275 137ZM439 551H324Q313 568 298 592T277 635H274Q267 616 253 592T227 551H111L218 696H326L439 551Z" />
<glyph unicode="&#xf5;" glyph-name="otilde" horiz-adv-x="550" d="M25 249Q25 383 82 442T275 501Q366 501 421 475T500 394T525 249Q525 161 501 106T421 26T275 0Q139 0 82 58T25 249ZM275 137Q333 137 353 162T374 252Q374 313 354 339T275 366Q219 366 198
340T176 252Q176 188 197 163T275 137ZM369 542Q345 542 315 554T256 577T205 589Q178 589 178 562Q178 560 178 557T179 551H94Q94 551 93 566T91 595Q91 639 115 659T180 679Q205 679 235 668T294 644T345 632Q356 632 363 638T371 659Q371 661 371 664T370 670H456Q456
670 457 655T459 626Q459 582 435 562T369 542Z" />
<glyph unicode="&#xf6;" glyph-name="odieresis" horiz-adv-x="550" d="M25 249Q25 383 82 442T275 501Q366 501 421 475T500 394T525 249Q525 161 501 106T421 26T275 0Q139 0 82 58T25 249ZM275 137Q333 137 353 162T374 252Q374 313 354 339T275 366Q219 366
198 340T176 252Q176 188 197 163T275 137ZM433 640Q434 627 434 616T435 595Q435 585 435 574T433 549Q401 542 367 542Q352 542 337 543T304 549Q301 575 301 595Q301 613 304 640Q335 647 369 647Q402 647 433 640ZM248 640Q249 627 249 616T250 595Q250 585
250 574T248 549Q216 542 182 542Q167 542 152 543T119 549Q116 575 116 595Q116 613 119 640Q150 647 184 647Q217 647 248 640Z" />
<glyph unicode="&#xf7;" glyph-name="divide" horiz-adv-x="588" d="M381 601Q383 582 383 568T384 539Q384 514 381 478Q358 474 337 472T293 469Q271 469 251 471T209 478Q206 495 205 510T204 539Q204 551 205 566T209 601Q230 606 251 607T295 609Q317 609
338 608T381 601ZM40 270V394H548V270H40ZM385 187Q387 168 388 153T389 122Q389 109 388 94T385 58Q361 54 339 52T293 49Q271 49 249 51T205 58Q199 94 199 122Q199 148 205 187Q227 192 250 193T295 195Q318 195 340 194T385 187Z" />
<glyph unicode="&#xf8;" glyph-name="oslash" horiz-adv-x="530" d="M16 249Q16 383 73 442T266 501Q401 501 459 442L539 496H540V381L504 357Q516 312 516 249Q516 161 492 106T412 26T266 0Q127 0 70 62L-9 9H-10V124L26 149Q16 191 16 249ZM159 252Q159 244
159 239L337 359Q313 375 266 375Q205 375 182 347T159 252ZM266 128Q328 128 350 155T373 252Q373 260 373 268L192 146Q216 128 266 128Z" />
<glyph unicode="&#xf9;" glyph-name="ugrave" horiz-adv-x="600" d="M220 0Q128 0 89 49T50 189V496H210L211 228Q211 183 227 165T292 146Q339 146 355 162T373 219V496H533V9H381L373 64H370Q357 35 317 18T220 0ZM120 699V706H268L370 552H242L120 699Z" />
<glyph unicode="&#xfa;" glyph-name="uacute" horiz-adv-x="600" d="M220 0Q128 0 89 49T50 189V496H210L211 228Q211 183 227 165T292 146Q339 146 355 162T373 219V496H533V9H381L373 64H370Q357 35 317 18T220 0ZM480 690L358 551H230L332 697H480V690Z" />
<glyph unicode="&#xfb;" glyph-name="ucircumflex" horiz-adv-x="600" d="M220 0Q128 0 89 49T50 189V496H210L211 228Q211 183 227 165T292 146Q339 146 355 162T373 219V496H533V9H381L373 64H370Q357 35 317 18T220 0ZM456 551H341Q330 568 315 592T294 635H291Q284
616 270 592T244 551H128L235 696H343L456 551Z" />
<glyph unicode="&#xfc;" glyph-name="udieresis" horiz-adv-x="600" d="M220 0Q128 0 89 49T50 189V496H210L211 228Q211 183 227 165T292 146Q339 146 355 162T373 219V496H533V9H381L373 64H370Q357 35 317 18T220 0ZM449 640Q450 627 450 616T451 595Q451 585
451 574T449 549Q417 542 383 542Q368 542 353 543T320 549Q317 575 317 595Q317 613 320 640Q351 647 385 647Q418 647 449 640ZM264 640Q265 627 265 616T266 595Q266 585 266 574T264 549Q232 542 198 542Q183 542 168 543T135 549Q132 575 132 595Q132 613
135 640Q166 647 200 647Q233 647 264 640Z" />
<glyph unicode="&#xfd;" glyph-name="yacute" horiz-adv-x="537" d="M116 -175L193 8L0 494V496H179Q207 417 231 337T271 173H273Q288 256 311 336T365 496H537V493L280 -177H116V-175ZM440 690L318 551H190L292 697H440V690Z" />
<glyph unicode="&#xfe;" glyph-name="thorn" horiz-adv-x="576" d="M220 -177H60V642H220V421H222Q239 462 270 481T362 501Q459 501 504 445T551 274Q553 173 531 113T461 26T341 0Q303 0 273 7T222 24L220 23V-177ZM310 365Q270 365 245 341T220 257V152Q257
137 307 137Q354 137 374 159T395 250Q395 309 379 337T310 365Z" />
<glyph unicode="&#xff;" glyph-name="ydieresis" horiz-adv-x="537" d="M116 -175L193 8L0 494V496H179Q207 417 231 337T271 173H273Q288 256 311 336T365 496H537V493L280 -177H116V-175ZM426 643Q427 630 427 619T428 598Q428 588 428 577T426 552Q394 545
360 545Q345 545 330 546T297 552Q294 578 294 598Q294 616 297 643Q328 650 362 650Q395 650 426 643ZM241 643Q242 630 242 619T243 598Q243 588 243 577T241 552Q209 545 175 545Q160 545 145 546T112 552Q109 578 109 598Q109 616 112 643Q143 650 177 650Q210
650 241 643Z" />
<glyph unicode="&#x2013;" glyph-name="endash" horiz-adv-x="563" d="M40 374H523V274H40V374Z" />
<glyph unicode="&#x2014;" glyph-name="emdash" horiz-adv-x="826" d="M30 393H796V293H30V393Z" />
<glyph unicode="&#x2018;" glyph-name="quoteleft" horiz-adv-x="241" d="M162 686Q156 687 148 687Q118 687 103 677T88 640L89 639Q106 649 138 649Q216 649 216 575Q216 538 196 518T125 498Q73 498 50 528T27 614Q27 688 57 715T142 743Q147 743 152 743T163
741V687L162 686Z" />
<glyph unicode="&#x2019;" glyph-name="quoteright" horiz-adv-x="241" d="M80 557Q86 556 94 556Q124 556 139 566T154 603L153 604Q136 594 104 594Q26 594 26 668Q26 706 46 725T117 745Q170 745 192 715T215 629Q215 556 185 528T100 500Q95 500 90 500T79
502V556L80 557Z" />
<glyph unicode="&#x201a;" glyph-name="quotesinglbase" horiz-adv-x="241" d="M80 -91Q86 -92 94 -92Q124 -92 139 -82T154 -45L153 -44Q136 -54 104 -54Q26 -54 26 20Q26 58 46 77T117 97Q170 97 192 67T215 -19Q215 -92 185 -120T100 -148Q95 -148 90 -148T79
-146V-92L80 -91Z" />
<glyph unicode="&#x201c;" glyph-name="quotedblleft" horiz-adv-x="444" d="M367 685Q361 686 353 686Q323 686 308 676T293 639L294 638Q311 648 343 648Q421 648 421 574Q421 537 401 517T330 497Q278 497 255 527T232 613Q232 687 262 714T347 742Q352 742
357 742T368 740V686L367 685ZM158 685Q154 686 151 686T145 686Q114 686 99 676T84 639L85 638Q93 643 105 645T134 648Q212 648 212 574Q212 537 193 517T121 497Q69 497 46 527T23 613Q23 687 53 714T138 742Q144 742 148 742T159 740V686L158 685Z" />
<glyph unicode="&#x201d;" glyph-name="quotedblright" horiz-adv-x="444" d="M77 558Q83 557 91 557Q121 557 136 567T151 604L150 605Q133 595 101 595Q23 595 23 669Q23 707 43 726T114 746Q167 746 189 716T212 630Q212 557 182 529T97 501Q92 501 87 501T76
503V557L77 558ZM286 558Q291 557 293 557T299 557Q330 557 345 567T360 604L359 605Q351 601 339 598T310 595Q232 595 232 669Q232 707 251 726T323 746Q376 746 398 716T421 630Q421 557 391 529T306 501Q300 501 296 501T285 503V557L286 558Z" />
<glyph unicode="&#x201e;" glyph-name="quotedblbase" horiz-adv-x="444" d="M77 -92Q83 -93 91 -93Q121 -93 136 -83T151 -46L150 -45Q133 -55 101 -55Q23 -55 23 19Q23 57 43 76T114 96Q167 96 189 66T212 -20Q212 -93 182 -121T97 -149Q92 -149 87 -149T76
-147V-93L77 -92ZM286 -92Q291 -93 293 -93T299 -93Q330 -93 345 -83T360 -46L359 -45Q351 -49 339 -52T310 -55Q232 -55 232 19Q232 57 251 76T323 96Q376 96 398 66T421 -20Q421 -93 391 -121T306 -149Q300 -149 296 -149T285 -147V-93L286 -92Z" />
<glyph unicode="&#x2022;" glyph-name="bullet" horiz-adv-x="373" d="M336 414Q340 381 341 355T343 306Q343 282 342 257T336 200Q296 193 260 189T187 184Q150 184 113 188T38 200Q34 229 32 255T30 306Q30 329 32 355T38 414Q75 420 112 423T187 427Q224 427
261 424T336 414Z" />
<glyph unicode="&#x2039;" glyph-name="guilsinglleft" horiz-adv-x="255" d="M-10 237L119 433H255L124 237L255 43H119L-10 237Z" />
<glyph unicode="&#x203a;" glyph-name="guilsinglright" horiz-adv-x="255" d="M265 237L136 43H0L131 237L0 433H136L265 237Z" />
</font>
</defs>
</svg>
