<?xml version="1.0" standalone="no"?>
<!DOCTYPE svg PUBLIC "-//W3C//DTD SVG 1.1//EN" "http://www.w3.org/Graphics/SVG/1.1/DTD/svg11.dtd">
<svg xmlns="http://www.w3.org/2000/svg">
<defs >
<font id="DiplomataSC" horiz-adv-x="1105" ><font-face
    font-family="Diplomata SC"
    units-per-em="1000"
    panose-1="0 0 0 0 0 0 0 0 0 0"
    ascent="930"
    descent="-287"
    alphabetic="0" />
<glyph unicode=" " glyph-name="space" horiz-adv-x="450" />
<glyph unicode="!" glyph-name="exclam" horiz-adv-x="679" d="M339 297Q327 297 308 319T267 379T222 461T181 548T151 627T140 682Q140 741 191 771T339 801Q434 801 486 771T538 682Q538 663 527 628T498 549T457 461T412 380T370 320T339 297ZM339 352L369
400Q351 437 331 482T294 573T266 653T255 706Q255 719 269 731T303 750L299 759Q262 752 235 736T207 695Q207 679 215 648T238 577T270 496T306 417T339 352ZM339 -26Q275 -26 223 -8T140 43T109 113Q109 152 140 183T223 233T339 252Q402 252 454 234T537 184T568
113Q568 75 537 43T454 -7T339 -26ZM274 16L277 21Q259 38 248 62T237 113Q237 140 248 164T277 205L274 210Q234 195 209 169T183 113Q183 83 208 57T274 16Z" />
<glyph unicode="&quot;" glyph-name="quotedbl" horiz-adv-x="794" d="M588 293Q577 293 559 318T518 381T477 462T446 540T433 594Q433 639 473 663T588 687Q662 687 703 663T744 594Q744 576 732 540T700 462T660 382T619 318T588 293ZM205 293Q194 293 176
318T135 381T94 462T63 540T50 594Q50 639 90 663T205 687Q280 687 320 663T361 594Q361 576 349 540T317 462T277 382T236 318T205 293ZM205 335L229 374Q215 403 200 438T171 508T148 571T139 614Q139 623 144 633T159 651L157 657Q102 644 102 604Q102 588 112
555T138 480T172 400T205 335ZM588 335L612 374Q597 403 582 438T553 508T531 571T522 614Q522 623 527 633T542 651L540 657Q485 644 485 604Q485 588 495 555T521 480T555 400T588 335Z" />
<glyph unicode="#" glyph-name="numbersign" horiz-adv-x="840" d="M129 -50L184 155H50L71 235H205L254 415H119L140 495H275L330 700H410L355 495H575L630 700H710L655 495H790L769 415H634L585 235H720L699 155H564L509 -50H429L484 155H264L209 -50H129ZM285
235H505L554 415H334L285 235Z" />
<glyph unicode="$" glyph-name="dollar" horiz-adv-x="1261" d="M584 -110V-20Q506 -17 439 -7T307 19T169 58L141 0H94V281H141Q155 250 195 212T295 137T429 71T584 29V179Q518 194 450 211T318 250T205 300T126 364T96 447Q96 513 126 555T206 620T319 654T445
667T567 670Q575 670 584 670V760H634V668Q703 664 782 654T935 632T1065 607L1083 650H1130V439H1083Q1071 457 1038 478T958 522T856 564T744 600T634 623V487Q699 475 772 463T915 432T1041 385T1132 313T1166 206Q1166 85 1032 32T644 -21Q639 -21 634 -21V-110H584ZM431
575Q431 544 474 527T584 496V628Q570 629 558 629Q505 629 468 618T431 575ZM973 68L977 69V92Q977 144 944 175T855 224T727 257T577 291Q507 308 440 328T316 376T223 441T177 529L170 530Q164 517 161 497T157 460Q157 390 241 340T504 244Q615 216 693 198T825
165T914 127T973 68ZM858 70Q858 91 828 107T748 138T634 167V23Q663 20 691 20Q730 20 768 23T832 37T858 70Z" />
<glyph unicode="%" glyph-name="percent" horiz-adv-x="1165" d="M350 -22L744 670H796L402 -22H350ZM291 305Q217 305 155 330T57 400T20 497Q20 550 53 593T148 662T291 688Q375 688 436 663T531 594T564 497Q564 444 527 400T429 331T291 305ZM196 334L197
337Q150 367 125 413T100 497Q100 535 125 581T197 657L196 660Q132 635 96 591T60 497Q60 448 96 404T196 334ZM291 333Q330 333 352 374T374 496Q374 577 358 618T291 659Q243 659 227 618T210 496Q210 416 232 375T291 333ZM394 363Q419 382 436 417T454 496Q454
540 437 575T394 629L391 627Q402 603 408 567T414 496Q414 462 408 426T391 365L394 363ZM872 -12Q798 -12 736 13T638 83T601 180Q601 233 634 276T729 345T872 371Q956 371 1017 346T1112 277T1145 180Q1145 127 1108 83T1010 14T872 -12ZM777 17L778 20Q731
50 706 96T681 180Q681 218 706 264T778 340L777 343Q713 318 677 274T641 180Q641 131 677 87T777 17ZM872 16Q911 16 933 57T955 179Q955 260 939 301T872 342Q824 342 808 301T791 179Q791 99 813 58T872 16ZM975 46Q1000 65 1017 100T1035 179Q1035 223 1018
258T975 312L972 310Q983 286 989 250T995 179Q995 145 989 109T972 48L975 46Z" />
<glyph unicode="&amp;" glyph-name="ampersand" horiz-adv-x="1389" d="M412 -23Q271 -23 180 3T45 74T0 175Q0 216 24 253T103 318T249 364T474 383Q463 415 457 445T450 501Q450 518 474 533T538 559T626 579T725 591T820 595Q906 595 957 566T1009 496Q1009
476 992 452T930 404T804 365Q830 318 868 268T955 173Q1002 203 1029 233T1057 290Q1057 313 1012 313H960V356H1389V313H1232Q1208 292 1146 244T991 143Q1048 99 1116 71T1264 43H1389V0H830Q789 0 739 31Q664 7 582 -8T412 -23ZM785 404Q856 418 888 436T929
471T938 498Q938 513 931 527T903 551T843 561Q804 561 786 552T762 529T757 505Q757 487 764 461T785 404ZM921 36Q839 73 777 131T670 258T599 394T557 517Q543 516 530 509T513 496Q536 403 576 320T670 173T788 73T921 36ZM510 33Q554 33 601 40T697 61Q657
94 619 140T547 238T491 342Q426 336 394 300T362 178Q362 97 403 65T510 33ZM126 53L130 56Q111 85 105 117T98 176Q98 203 104 235T130 295L126 299Q92 275 71 243T50 176Q50 142 71 109T126 53Z" />
<glyph unicode="&apos;" glyph-name="quotesingle" horiz-adv-x="411" d="M205 293Q194 293 176 318T135 381T94 462T63 540T50 594Q50 639 90 663T205 687Q279 687 320 663T361 594Q361 576 349 540T317 462T277 382T236 318T205 293ZM205 335L229 374Q214 403
199 438T170 508T148 571T139 614Q139 623 144 633T159 651L157 657Q102 644 102 604Q102 588 112 555T138 480T172 400T205 335Z" />
<glyph unicode="(" glyph-name="parenleft" horiz-adv-x="805" d="M684 -117Q509 -90 383 -31T188 115T120 310Q120 418 188 504T382 651T684 737V683Q684 683 665 678T619 655T564 596T517 488T498 312Q498 204 517 135T563 25T618 -34T665 -58T684 -63V-117ZM539
-49L542 -42Q463 -6 398 46T295 164T256 310Q256 390 294 456T398 574T542 662L539 669Q433 633 353 580T228 459T183 310Q183 229 228 161T353 40T539 -49Z" />
<glyph unicode=")" glyph-name="parenright" horiz-adv-x="800" d="M115 -117V-63Q115 -63 134 -58T180 -35T235 24T282 133T301 308Q301 416 282 485T236 595T181 654T134 678T115 683V737Q290 711 416 651T611 505T679 310Q679 202 611 116T417 -30T115 -117ZM268
-31Q290 -16 318 12T374 83T418 182T436 308Q436 378 419 434T374 532T319 603T268 647L261 641Q283 621 306 581T346 474T363 308Q363 209 347 143T307 36T261 -25L268 -31Z" />
<glyph unicode="*" glyph-name="asterisk" horiz-adv-x="676" d="M338 539Q331 539 319 555T292 598T264 652T243 704T235 740Q235 770 262 785T338 801Q388 801 415 786T442 740Q442 728 434 704T413 652T386 598T359 556T338 539ZM338 567L358 598Q345 625 332
656T309 713T299 751Q299 756 302 763T313 775L310 784Q269 777 269 745Q269 734 276 712T293 663T316 611T338 567ZM121 480Q87 480 69 495T50 542Q50 584 64 616T98 665T135 683Q148 683 169 670T214 636T260 593T296 551T310 522Q310 513 290 506T240 493T177
484T121 480ZM555 480Q531 480 499 483T437 492T386 505T366 522Q366 532 380 551T415 592T461 635T507 669T541 683Q558 683 578 666T612 616T626 542Q626 511 608 496T555 480ZM541 512Q573 512 590 521T607 555Q607 558 607 561T606 568L596 570Q592 551 576
548T542 544Q513 544 479 548T415 556L392 528Q422 521 464 517T541 512ZM135 512Q170 512 212 516T284 528L261 556Q231 552 197 548T134 544Q118 544 102 547T81 569L70 568Q70 567 70 564T69 557Q69 530 87 521T135 512ZM434 242Q393 242 377 294Q370 316 364
345T353 403T349 453Q349 464 351 476T364 488Q379 488 410 475T475 443T535 404T565 370Q566 367 566 364T567 358Q567 333 539 298T457 246Q446 242 434 242ZM245 243Q219 243 185 260T124 315Q110 333 110 352Q110 371 127 390T172 426T229 457T281 479T315
487Q324 487 326 473T328 451Q328 428 324 398T312 337T296 283T275 251Q270 247 262 245T245 243ZM154 307L164 310Q162 315 162 317T161 323Q161 335 179 351T223 382T271 410T303 427L305 464Q229 425 184 395T138 339Q138 328 143 321T154 307ZM451 266Q466
266 476 272V282Q458 282 444 307T421 371T406 451L372 464Q375 437 380 403T395 338T419 287T451 266Z" />
<glyph unicode="+" glyph-name="plus" horiz-adv-x="740" d="M100 298V378H330V608H410V378H640V298H410V68H330V298H100Z" />
<glyph unicode="," glyph-name="comma" horiz-adv-x="595" d="M129 -151V-114Q159 -114 201 -110T285 -95T358 -63T396 -5Q374 -12 349 -17T297 -22Q240 -22 194 -5T119 40T91 103Q91 138 119 166T193 212T297 229Q361 229 405 207T472 148T495 70Q495 31 474
-8T408 -79T294 -131T129 -151ZM215 15L218 19Q202 35 192 56T181 103Q181 128 191 149T218 187L215 191Q178 178 155 154T132 103Q132 76 155 53T215 15Z" />
<glyph unicode="-" glyph-name="hyphen" horiz-adv-x="740" d="M100 263V343H640V263H100Z" />
<glyph unicode="." glyph-name="period" horiz-adv-x="594" d="M296 -22Q239 -22 193 -5T119 40T91 103Q91 138 118 166T192 212T296 229Q353 229 399 212T473 167T501 103Q501 69 474 41T400 -5T296 -22ZM214 15L217 19Q201 35 191 56T180 103Q180 128 190 149T217
187L214 191Q177 178 154 154T131 103Q131 76 154 53T214 15Z" />
<glyph unicode="/" glyph-name="slash" horiz-adv-x="582" d="M50 -52L450 670H532L132 -52H50Z" />
<glyph unicode="0" glyph-name="zero" horiz-adv-x="1038" d="M519 -22Q417 -22 328 5T171 79T65 190T27 326Q27 397 61 459T160 569T315 643T519 670Q632 670 723 644T878 570T977 460T1011 326Q1011 254 973 191T867 80T710 5T519 -22ZM519 19Q593 19 634 96T676
324Q676 425 663 492T615 594T519 629Q457 629 423 595T376 493T362 324Q362 174 403 97T519 19ZM299 39L301 44Q222 88 172 161T122 325Q122 417 172 490T301 607L299 612Q230 584 178 541T96 442T67 325Q67 264 96 209T177 111T299 39ZM693 50Q721 80 743 123T780
219T794 325Q794 380 780 432T744 528T693 601L688 598Q712 538 724 470T737 325Q737 249 725 181T688 53L693 50Z" />
<glyph unicode="1" glyph-name="one" horiz-adv-x="925" d="M151 0V43H229Q273 43 305 67T337 152V433Q337 503 347 540T358 578L99 399L57 450L377 650H868V607H790Q761 607 736 592T697 552T682 497V152Q682 92 714 68T790 43H868V0H151ZM404 43H469V607H404V43Z" />
<glyph unicode="2" glyph-name="two" horiz-adv-x="1009" d="M50 0V66Q93 79 149 99T266 147T385 209T490 284T565 370T593 467Q593 523 576 556T533 605T485 625T450 630Q392 630 337 607T236 544T160 458T120 362H85V634H120V580Q157 601 207 622T327 656T491
670Q538 670 598 665T721 647T835 612T920 555T952 474Q952 425 910 380T797 292T636 213T450 145T261 89T94 47V42Q280 43 425 56T689 93T913 148V230H948V0H50ZM524 249Q524 249 541 255T584 276T635 315T677 377T695 464Q695 497 681 524T647 570T613 600T598
610L595 607Q595 607 608 592T635 547T648 467Q648 419 627 378T576 305T522 254L524 249Z" />
<glyph unicode="3" glyph-name="three" horiz-adv-x="1025" d="M481 -22Q363 -22 259 -1T87 49V6H52V213H87Q102 173 139 138T228 75T340 33T464 18Q518 18 557 39T617 96T638 175Q638 246 592 290T467 334Q423 334 386 324T326 292T303 236H269V459H303Q303 423
322 404T374 378T442 371Q516 371 557 406T598 497Q598 531 582 561T532 611T442 630Q382 630 320 609T205 544T120 434H85V625H120V583Q171 606 222 626T336 658T481 670Q611 670 705 646T852 582T904 499Q904 464 864 433T753 381T592 350Q711 342 796 318T928
257T974 173Q974 133 936 98T830 35T673 -7T481 -22ZM624 384Q659 406 680 437T701 501Q701 533 680 564T624 618L619 615Q634 589 643 560T652 501Q652 472 643 443T619 387L624 384ZM659 33Q692 59 713 95T735 170Q735 208 714 244T659 307L655 302Q674 271 680
236T687 170Q687 140 681 105T655 37L659 33Z" />
<glyph unicode="4" glyph-name="four" horiz-adv-x="1012" d="M238 0V43H315Q360 43 392 67T424 151V178H57V220L464 650H955V607H877Q848 607 823 592T784 552T769 497V220H956V178H769V151Q769 91 801 67T877 43H955V0H238ZM491 42H556V607H491V42ZM143 220H424V425Q424
495 434 532T445 570L143 220Z" />
<glyph unicode="5" glyph-name="five" horiz-adv-x="1020" d="M442 -22Q364 -22 299 -12T185 10T111 33T85 43V0H50V199H85Q111 168 142 137T216 78T313 35T440 18Q499 18 535 36T590 83T615 141T622 197Q622 222 615 253T584 314T508 363T370 383Q300 383 244
365T148 323T87 281T66 263L49 279L351 663H371Q371 663 375 660T395 654T449 650H886Q925 650 936 656T948 663L971 650L718 525H287L166 370Q216 390 262 404T367 427T511 436Q562 436 622 429T741 407T849 365T928 301T958 211Q958 159 926 120T841 54T720 10T581
-14T442 -22ZM606 18Q606 18 623 24T661 49T700 105T717 202Q717 249 704 282T672 336T632 368T599 383T586 387L584 383Q584 383 596 374T625 343T654 287T667 200Q667 149 658 115T636 60T615 31T605 22L606 18Z" />
<glyph unicode="6" glyph-name="six" horiz-adv-x="1097" d="M541 -22Q451 -22 365 2T209 72T98 180T57 321Q57 399 98 463T210 573T374 645T570 670Q650 670 713 661T819 639T886 617T909 607V643H943V476H909Q909 476 892 491T844 530T775 576T691 614T600 630Q524
630 479 596T414 501T394 358Q394 358 417 367T481 389T575 411T688 421Q747 421 809 408T923 370T1008 306T1040 217Q1040 167 1012 128T934 61T820 14T685 -13T541 -22ZM299 53L302 58Q302 58 282 75T235 126T188 209T168 322Q168 373 183 414T222 487T268 541T306
574T322 585L319 591Q319 591 298 582T246 553T185 502T133 426T112 322Q112 263 131 219T178 143T233 91T280 62T299 53ZM713 28Q713 28 728 36T762 65T796 121T811 211Q811 265 796 299T761 353T726 380T711 388L709 384Q709 384 722 367T749 312T763 211Q763
148 750 109T724 51T710 32L713 28ZM548 17Q608 17 641 38T689 90T707 153T710 206Q710 246 697 284T657 348T584 373Q550 373 517 365T455 346T410 327T393 318V277Q393 230 397 184T415 100T461 40T548 17Z" />
<glyph unicode="7" glyph-name="seven" horiz-adv-x="1106" d="M322 0Q322 84 345 163T403 311H242V355H426Q459 414 494 462T559 546T608 600T627 619Q627 619 614 620T575 622Q538 622 481 615T354 585T214 518T76 400H48V650H1049V605H957Q957 605 932 590T867
543T786 465T710 355H859V311H690Q673 269 663 221T652 116Q652 98 653 81T657 43H805V0H322ZM386 43H440Q440 121 462 193T519 330T592 448T666 539T723 599T745 620H691Q691 620 669 599T612 540T539 449T465 332T408 194T386 43ZM98 490L139 521V605H98V490Z"
/>
<glyph unicode="8" glyph-name="eight" horiz-adv-x="1098" d="M549 -22Q447 -22 358 -7T201 35T95 98T57 174Q57 236 138 285T364 356V360Q294 373 241 395T157 446T127 507Q127 552 179 589T325 648T549 670Q679 670 773 648T920 589T972 507Q972 475 942 446T859
395T735 360V356Q879 335 960 286T1041 174Q1041 134 1003 98T897 36T740 -6T549 -22ZM549 369Q623 369 664 402T706 505Q706 551 693 582T645 629T549 645Q488 645 454 629T407 582T393 505Q393 435 434 402T549 369ZM353 380L355 384Q299 406 266 437T232 507Q232
545 266 578T359 633L358 637Q279 617 232 583T184 507Q184 468 230 435T353 380ZM726 382Q762 406 783 438T804 507Q804 545 783 577T727 633L723 629Q737 601 746 570T755 507Q755 474 746 444T722 385L726 382ZM549 12Q623 12 664 53T706 174Q706 252 672 298T549
345Q467 345 430 303T392 174Q392 94 433 53T549 12ZM321 20L323 24Q253 49 211 88T168 174Q168 221 209 260T321 324L319 328Q225 303 169 263T112 174Q112 125 169 85T321 20ZM732 25Q775 52 799 91T823 174Q823 219 799 257T731 324L729 320Q747 287 757 250T768
174Q768 135 758 98T728 28L732 25Z" />
<glyph unicode="9" glyph-name="nine" horiz-adv-x="1087" d="M518 -22Q411 -22 335 -10T219 15T179 27V-7H144V158H179Q179 158 196 144T243 109T313 67T397 32T488 18Q602 18 647 85T693 276Q693 276 670 267T606 245T512 224T400 214Q340 214 280 225T169 260T88
323T57 418Q57 475 99 520T211 597T369 647T546 664Q636 664 722 641T878 573T989 463T1030 313Q1030 235 989 173T877 68T713 1T518 -22ZM504 262Q538 262 571 270T633 290T677 309T694 318V382Q694 426 690 469T671 547T625 603T540 624Q482 624 449 604T400
553T381 491T377 436Q377 389 390 349T431 286T504 262ZM681 25Q681 25 701 42T747 94T794 184T814 312Q814 386 799 440T764 530T729 583T713 600L710 598Q710 598 722 572T746 483T758 312Q758 249 746 197T719 107T691 49T679 28L681 25ZM236 264L237 267Q237
267 227 275T202 300T178 345T167 412Q167 451 178 480T202 527T226 555T235 563L234 566Q234 566 217 559T177 535T137 487T120 412Q120 367 137 338T176 293T217 271T236 264Z" />
<glyph unicode=":" glyph-name="colon" horiz-adv-x="594" d="M296 383Q239 383 193 400T119 445T91 508Q91 543 118 571T192 617T296 634Q353 634 399 617T473 572T501 508Q501 474 474 446T400 400T296 383ZM214 420L217 424Q201 440 191 461T180 508Q180 533
190 554T217 592L214 596Q177 583 154 559T131 508Q131 481 154 458T214 420ZM296 -22Q239 -22 193 -5T119 40T91 103Q91 138 118 166T192 212T296 229Q353 229 399 212T473 167T501 103Q501 69 474 41T400 -5T296 -22ZM214 15L217 19Q201 35 191 56T180 103Q180
128 190 149T217 187L214 191Q177 178 154 154T131 103Q131 76 154 53T214 15Z" />
<glyph unicode=";" glyph-name="semicolon" horiz-adv-x="595" d="M129 -151V-114Q159 -114 201 -110T285 -95T358 -63T396 -5Q374 -12 349 -17T297 -22Q240 -22 194 -5T119 40T91 103Q91 138 119 166T193 212T297 229Q361 229 405 207T472 148T495 70Q495 31
474 -8T408 -79T294 -131T129 -151ZM215 15L218 19Q202 35 192 56T181 103Q181 128 191 149T218 187L215 191Q178 178 155 154T132 103Q132 76 155 53T215 15ZM303 383Q246 383 200 400T126 445T98 508Q98 543 125 571T199 617T303 634Q360 634 406 617T480 572T508
508Q508 474 481 446T407 400T303 383ZM221 420L224 424Q208 440 198 461T187 508Q187 533 197 554T224 592L221 596Q184 583 161 559T138 508Q138 481 161 458T221 420Z" />
<glyph unicode="&lt;" glyph-name="less" horiz-adv-x="740" d="M585 87L107 309V369L585 591L619 520L217 339L619 158L585 87Z" />
<glyph unicode="=" glyph-name="equal" horiz-adv-x="740" d="M100 408V488H640V408H100ZM100 188V268H640V188H100Z" />
<glyph unicode="&gt;" glyph-name="greater" horiz-adv-x="740" d="M141 87L107 158L509 339L107 520L141 591L619 369V309L141 87Z" />
<glyph unicode="?" glyph-name="question" horiz-adv-x="1092" d="M417 317Q398 317 381 317T338 319V364Q361 363 389 363T436 362Q479 362 514 377T569 434T590 553Q590 621 583 659T563 716T535 740T506 745Q466 745 420 733T327 698T242 649T175 593T139 536H97V800H139V735Q183
748 234 758T350 776T502 783Q592 783 678 776T832 749T941 696T982 609Q982 549 936 497T811 404T630 340T417 317ZM614 375Q630 382 654 402T697 464T716 573Q716 634 697 670T654 726T614 751L608 743Q626 715 639 672T652 573Q652 511 639 464T608 384L614
375ZM496 -26Q433 -26 381 -8T297 43T266 113Q266 152 297 183T380 233T496 252Q559 252 611 234T693 184T724 113Q724 75 694 43T611 -7T496 -26ZM423 16L426 21Q410 38 400 61T389 113Q389 141 399 164T426 205L423 210Q386 195 363 169T340 113Q340 83 363 57T423
16Z" />
<glyph unicode="@" glyph-name="at" horiz-adv-x="1278" d="M575 -1Q507 -1 459 29T387 106T362 205Q362 256 387 303T466 379T600 409Q657 409 684 408T735 406V496Q735 515 731 540T712 589T668 628T587 644Q512 644 455 609T357 515T297 383T276 233Q276 158
296 88T358 -39T465 -129T618 -162Q736 -162 839 -125T1020 -22T1143 131T1188 317H1248Q1248 228 1216 147T1126 -1T990 -117T817 -194T618 -222Q476 -222 370 -183T192 -76T86 74T50 244Q50 329 83 409T184 554T352 656T587 694Q674 694 752 687T891 659T986
599T1021 497V18H775L751 70Q711 36 666 18T575 -1ZM787 74H851V525Q851 542 839 568T800 617T726 651L723 641Q751 630 764 609T782 564T787 525V74ZM315 -118L318 -110Q277 -78 244 -24T193 100T174 244Q174 319 192 387T243 510T317 596L314 604Q252 577 206
520T135 390T110 244Q110 190 124 135T166 29T230 -59T315 -118ZM548 34L550 41Q503 73 483 119T462 205Q462 244 482 291T550 369L548 376Q484 350 448 304T412 205Q412 153 448 107T548 34ZM600 229Q600 201 610 175T640 133T694 116Q713 116 735 121V355Q716
356 695 356Q663 356 642 337T611 289T600 229Z" />
<glyph unicode="A" glyph-name="A" horiz-adv-x="1397" d="M-14 0V43Q19 43 51 58T110 96T159 141T192 179T204 195L461 522L436 553Q414 580 388 593T313 607H234V650H806L1296 43H1410V0H659V43H733Q758 43 775 54T792 86Q792 112 763 148L726 194H283Q268 171
261 150T254 112Q254 79 275 61T329 43H422V0H-14ZM928 43H1005L550 607H473L928 43ZM321 242H688L500 474L321 242Z" />
<glyph unicode="B" glyph-name="B" horiz-adv-x="1481" d="M73 0V43H193Q238 43 269 67T301 151V497Q301 527 287 552T248 592T193 607H73V650H1035Q1102 650 1161 645T1265 626T1336 582T1362 505Q1362 468 1347 441T1309 396T1264 366T1228 350V345Q1245 342
1276 332T1341 303T1398 253T1421 175Q1421 132 1401 102T1347 52T1272 21T1190 5T1114 0H73ZM369 43H434V607H369V43ZM692 362H849Q879 362 909 374T959 414T980 484Q980 543 936 574T810 606Q755 606 724 579T692 508V362ZM1024 364Q1070 379 1101 408T1132 478Q1132
519 1102 548T1024 591L1021 588Q1040 565 1050 539T1061 478Q1061 445 1051 419T1021 368L1024 364ZM776 43H867Q901 43 935 56T994 99T1018 184Q1018 258 972 291T856 324H692V145Q692 100 711 72T776 43ZM1043 47Q1099 65 1135 101T1172 184Q1172 233 1136 269T1043
323L1040 319Q1068 295 1085 262T1102 184Q1102 141 1086 108T1041 51L1043 47Z" />
<glyph unicode="C" glyph-name="C" horiz-adv-x="1097" d="M666 -22Q537 -22 421 -2T215 60T74 168T22 328Q22 404 58 461T155 558T295 624T460 662T630 674Q731 674 822 651T989 600V650H1037V411H989Q970 448 933 486T847 557T741 610T625 630Q567 630 534 611T488
560T474 485V211Q474 111 517 66T669 20Q764 20 832 38T946 81T1019 124T1060 143Q1067 143 1075 139T1084 123Q1084 108 1057 88T980 42Q930 17 855 -2T666 -22ZM356 59L357 64Q302 88 256 124T181 209T152 320Q152 389 180 442T255 535T357 600L356 605Q276 583
214 540T116 441T81 320Q81 261 116 210T213 119T356 59Z" />
<glyph unicode="D" glyph-name="D" horiz-adv-x="1469" d="M70 0V43H190Q235 43 267 67T299 152V498Q299 528 285 552T245 592T190 607H70V650H833Q925 650 1014 640T1181 607T1318 547T1412 458T1446 337Q1446 267 1421 215T1352 126T1255 64T1143 25T1028 6T925
0H70ZM366 43H431V607H366V43ZM772 43H863Q910 43 942 67T993 131T1021 221T1030 324Q1030 404 1010 468T942 569T807 606Q752 606 720 580T688 508V145Q688 100 707 72T772 43ZM1034 50Q1110 93 1155 158T1200 324Q1200 425 1155 490T1034 598L1032 595Q1074 538
1096 470T1119 324Q1119 248 1097 179T1032 53L1034 50Z" />
<glyph unicode="E" glyph-name="E" horiz-adv-x="1360" d="M73 0V43H193Q239 43 270 67T302 151V497Q302 527 288 552T249 592T193 607H73V650H1280V420H1251Q1219 464 1161 506T1016 577T804 605Q752 605 722 578T691 508V474Q691 454 696 430T721 389T779 372Q812
372 849 382T921 409T983 449T1022 499H1059V194H1022Q1006 232 965 258T873 298T779 312Q745 312 726 299T699 265T691 223V187Q691 143 696 111T719 61T777 43H802Q856 43 915 46T1035 66T1150 116T1251 212H1280V0H73ZM369 43H435V607H369V43Z" />
<glyph unicode="F" glyph-name="F" horiz-adv-x="1235" d="M73 0V43H193Q238 43 269 67T301 152V497Q301 542 270 574T193 607H73V650H1208V463H1180Q1157 487 1130 512T1061 559T958 593T804 606Q751 606 722 579T692 508V474Q692 454 697 430T721 389T779 372Q844
372 890 399T961 463H998V213H961Q936 271 890 292T779 313Q745 313 726 300T700 266T692 223V147Q692 101 704 79T742 50T810 43H910V0H73ZM369 43H434V607H369V43Z" />
<glyph unicode="G" glyph-name="G" horiz-adv-x="1372" d="M666 -23Q531 -23 414 -4T209 57T72 166T22 328Q22 409 54 468T143 566T276 630T443 664T630 674Q735 674 853 657T1079 607V650H1127V439H1079Q1057 473 1018 506T925 568T811 612T684 629Q626 629 578
615T502 568T474 482V203Q474 169 482 137T511 78T570 37T669 21Q692 21 720 27T773 49T815 95T832 175V247Q832 276 815 299T772 335T718 348H603V391H1403V348H1213V0H1165Q1165 27 1147 45T1094 63Q1066 63 1030 50T945 20T827 -10T666 -23ZM300 67L301 71Q239
108 199 178T159 335Q159 421 199 490T301 596L299 601Q237 581 189 542T113 449T85 335Q85 274 112 221T188 128T300 67ZM914 71Q926 71 937 90T956 143T964 215V346H899V149Q899 101 903 86T914 71Z" />
<glyph unicode="H" glyph-name="H" horiz-adv-x="1711" d="M73 0V43H193Q238 43 269 67T301 151V497Q301 527 287 552T248 592T193 607H73V650H827V607Q772 607 743 594T703 559T692 508V371H1012V508Q1012 537 1001 559T961 594T877 607V650H1632V607H1511Q1482
607 1457 592T1417 552T1402 497V151Q1402 91 1434 67T1511 43H1632V0H877V43Q927 43 954 50T994 70T1009 100T1012 139V274Q1012 290 1004 304T970 318H734Q710 318 701 304T692 274V136Q692 109 698 88T733 55T827 43V0H73ZM369 43H434V607H369V43ZM1081 43H1146V607H1081V43Z"
/>
<glyph unicode="I" glyph-name="I" horiz-adv-x="1003" d="M73 0V43H195Q240 43 272 67T304 151V497Q304 527 290 552T250 592T195 607H73V650H924V607H803Q773 607 749 592T709 552T694 497V151Q694 91 726 67T803 43H924V0H73ZM371 43H436V607H371V43Z" />
<glyph unicode="J" glyph-name="J" horiz-adv-x="1088" d="M434 -22Q334 -22 252 -8T114 24T35 51V0H-14V262H35Q35 262 48 238T87 178T152 106T246 46T368 21Q412 21 444 45T477 129V497Q477 541 449 574T368 607H247V650H1075V607H976Q924 607 896 574T867 497V196Q867
145 847 105T778 36T645 -7T434 -22ZM544 64Q558 70 572 84T597 129T608 208V607H544V64Z" />
<glyph unicode="K" glyph-name="K" horiz-adv-x="1655" d="M73 0V43H193Q238 43 269 67T301 151V498Q301 528 287 552T248 592T193 607H73V650H915V607H804Q752 607 722 580T692 509V403Q692 383 702 364T750 345H770Q797 345 817 352T864 371L1061 460Q1124 489
1152 512T1181 563Q1181 590 1150 598T1041 607V650H1633V607H1526Q1501 607 1465 596T1388 566T1312 530T1249 497T1216 478Q1205 471 1196 460T1186 433Q1186 415 1201 397L1499 43H1633V0H1077L813 296H734Q709 296 701 282T692 252V151Q692 92 724 68T801 43H873V0H73ZM369
43H434V607H369V43ZM1126 43H1213L962 324H875L1126 43Z" />
<glyph unicode="L" glyph-name="L" horiz-adv-x="1249" d="M73 0V43H193Q238 43 269 67T301 151V497Q301 527 287 552T248 592T193 607H73V650H968V607H801Q771 607 747 592T707 552T692 497V151Q692 122 701 97T734 58T801 43Q838 43 885 53T985 89T1093 164T1202
288H1236V0H73ZM369 43H434V607H369V43Z" />
<glyph unicode="M" glyph-name="M" horiz-adv-x="1858" d="M35 0V43Q85 43 140 55T242 95T320 168T350 277V382Q350 433 323 474T248 545T143 591T22 607V650H669L976 389L1144 650H1825V607H1658Q1613 607 1581 589T1549 526V151Q1549 91 1581 67T1658 43H1825V0H930V43H1050Q1095
43 1127 67T1159 151V559L853 85H801L415 411V277Q415 213 445 168T522 96T625 56T730 43V0H35ZM1226 43H1291V607H1226V43ZM811 169H836V232L396 605H296L811 169Z" />
<glyph unicode="N" glyph-name="N" horiz-adv-x="1544" d="M1211 -42L515 379Q515 379 500 386T465 393Q446 393 431 379T415 323V277Q415 212 445 168T522 96T625 56T730 43V0H35V43Q85 43 140 55T242 95T320 167T350 277V382Q350 433 323 474T248 545T143 591T23
607V650H772L1120 431Q1120 431 1132 424T1160 408T1192 391T1214 383Q1220 383 1228 388T1237 410Q1237 475 1216 514T1160 573T1086 600T1009 607V650H1529V607Q1492 607 1452 600T1378 573T1323 514T1301 410V-42H1211ZM1211 35V107L383 607H356V552L1211 35Z"
/>
<glyph unicode="O" glyph-name="O" horiz-adv-x="1345" d="M672 -22Q537 -22 420 5T213 79T73 190T22 325Q22 397 67 459T198 569T403 643T672 670Q821 670 941 644T1146 570T1276 460T1322 325Q1322 253 1272 190T1132 80T925 5T672 -22ZM672 19Q770 19 824 96T879
324Q879 424 862 492T799 594T672 629Q591 629 546 595T483 492T465 324Q465 173 520 96T672 19ZM384 40L385 44Q315 72 262 115T179 211T149 325Q149 385 179 439T263 536T389 607L388 611Q295 584 225 541T115 442T76 325Q76 264 114 210T222 112T384 40ZM909
47Q965 99 1000 172T1035 325Q1035 405 1000 478T909 603L903 601Q929 538 944 467T960 325Q960 255 945 184T903 49L909 47Z" />
<glyph unicode="P" glyph-name="P" horiz-adv-x="1447" d="M73 0V43H194Q240 43 271 67T303 151V497Q303 527 289 552T250 592T194 607H73V650H1082Q1126 650 1174 647T1269 633T1352 602T1412 550T1434 469Q1434 401 1393 360T1282 302T1122 284H749Q721 284
708 269T694 216V151Q694 92 725 68T802 43H924V0H73ZM370 43H436V607H370V43ZM745 329H846Q867 329 894 336T948 360T992 402T1010 468Q1010 507 993 533T949 576T895 599T846 607H745Q724 607 710 592T695 556V379Q695 359 709 344T745 329ZM1061 333Q1087 342
1109 363T1144 412T1157 468Q1157 497 1144 524T1109 573T1061 603L1056 600Q1074 572 1081 538T1088 468Q1088 434 1081 399T1056 336L1061 333Z" />
<glyph unicode="Q" glyph-name="Q" horiz-adv-x="1345" d="M427 -207V-164Q442 -132 475 -107T552 -61T638 -25V-21Q509 -17 398 11T202 86T70 194T22 325Q22 397 67 460T198 570T403 644T672 671Q821 671 941 644T1146 570T1276 460T1322 325Q1322 259 1279 200T1157
95T975 19T751 -19Q735 -39 728 -62T721 -106Q721 -131 730 -147T759 -164H916V-207H427ZM672 20Q770 20 824 97T879 325Q879 425 862 492T799 594T672 629Q591 629 546 595T483 493T465 325Q465 174 520 97T672 20ZM384 40L385 44Q315 72 262 115T179 211T149
325Q149 385 179 439T263 536T389 607L388 611Q295 584 225 541T115 442T76 325Q76 264 114 210T222 112T384 40ZM909 47Q965 99 1000 172T1035 325Q1035 405 1000 478T909 603L903 601Q929 538 944 467T960 325Q960 255 945 184T903 49L909 47ZM497 -164H558Q558
-150 570 -132T600 -96T633 -63T657 -42L655 -39Q637 -46 611 -60T558 -94T515 -131T497 -164Z" />
<glyph unicode="R" glyph-name="R" horiz-adv-x="1585" d="M73 0V43H194Q240 43 271 67T303 152V497Q303 542 272 574T194 607H73V650H1147Q1191 650 1240 647T1335 633T1418 603T1477 551T1499 469Q1499 414 1465 380T1374 329T1251 305T1120 296V291Q1141 273
1193 250T1319 215L1453 43H1571V0H978L778 256Q778 256 769 266T748 287T723 298Q702 298 698 281T694 227V152Q694 92 725 68T802 43H877V0H73ZM370 43H436V607H370V43ZM856 349Q898 349 937 360T1001 398T1026 468Q1026 507 1009 533T965 576T911 599T862 607H745Q724
607 710 592T695 556V413Q695 396 718 381T778 358T856 349ZM1093 336Q1134 347 1161 384T1188 468Q1188 516 1161 552T1092 601L1089 598Q1108 570 1113 538T1119 468Q1119 433 1113 400T1090 339L1093 336ZM1024 43H1107L909 298H826L1024 43Z" />
<glyph unicode="S" glyph-name="S" horiz-adv-x="1261" d="M644 -21Q551 -21 474 -12T324 15T169 58L141 0H94V281H141Q154 252 189 217T278 148T398 84T539 38T691 20Q730 20 768 23T832 38T858 70Q858 92 826 109T740 141T617 171T477 203T337 243T215 294T128
360T96 447Q96 513 126 555T206 620T319 654T445 667T567 670Q619 670 685 665T820 650T953 629T1065 607L1083 650H1130V439H1083Q1069 460 1028 485T928 535T805 582T675 616T558 629Q505 629 468 618T431 575Q431 549 462 532T545 504T663 482T798 459T933 427T1051
380T1135 309T1166 206Q1166 85 1032 32T644 -21ZM973 68L977 69V92Q977 144 944 175T855 224T727 257T577 291Q507 308 440 328T316 376T223 441T177 529L170 530Q164 517 161 497T157 460Q157 390 241 340T504 244Q615 216 693 198T825 165T914 127T973 68Z"
/>
<glyph unicode="T" glyph-name="T" horiz-adv-x="1104" d="M127 0V43H248Q293 43 324 67T356 152V557Q356 580 348 593T319 606Q304 606 281 589T232 544T180 486T133 428T99 383T86 365H66V650H1055V365H1017Q1017 365 1005 382T971 427T924 485T872 543T823
588T785 606Q765 606 756 593T747 557V152Q747 92 779 68T856 43H977V0H127ZM424 43H489V607H424V43Z" />
<glyph unicode="U" glyph-name="U" horiz-adv-x="1217" d="M652 -22Q522 -22 437 -10T302 24T226 72T194 125T186 177V499Q186 559 155 583T78 607H40V650H701V607H685Q640 607 609 583T577 499V167Q577 97 603 64T692 31Q772 31 822 42T899 74T936 119T947 174V411Q947
476 927 515T875 574T812 600T757 607V650H1212V607Q1175 607 1140 601T1075 574T1029 515T1012 411V220Q1012 183 1008 148T986 82T930 28T824 -9T652 -22ZM319 88V607H254V210Q254 164 263 139T285 103T307 90T319 88Z" />
<glyph unicode="V" glyph-name="V" horiz-adv-x="1259" d="M618 -23L53 607H-14V650H690V607H662Q631 607 615 585T599 533Q599 512 608 490T634 450L821 260L951 402Q967 419 974 437T981 474Q981 508 959 538T898 587T805 607H755V650H1273V607H1222L654 -23H618ZM651
38L691 83L221 607H141L651 38Z" />
<glyph unicode="W" glyph-name="W" horiz-adv-x="2028" d="M618 -23L53 607H-14V650H690V607H662Q631 607 615 585T599 533Q599 512 608 490T634 450L821 260L978 433L822 607H755V650H1459V607H1432Q1401 607 1385 585T1369 533Q1369 512 1378 490T1404 450L1589
260L1720 402Q1736 419 1743 437T1750 474Q1750 508 1728 538T1666 588T1573 607H1524V650H2041V607H1992L1423 -23H1387L1021 383L654 -23H618ZM651 38L691 83L221 607H141L651 38ZM1420 38L1460 83L990 607H910L1420 38Z" />
<glyph unicode="X" glyph-name="X" horiz-adv-x="1373" d="M13 0V43H47Q89 43 132 57T210 91T263 121L535 296L340 497Q311 527 272 552T194 592T125 607H64V650H751V607H733Q710 607 699 597T687 572Q687 540 730 497L805 420L833 439Q882 472 901 498T920 546Q920
574 903 590T860 607H841V649H1327V607H1294Q1252 607 1209 592T1132 557T1079 525L849 376L1067 151Q1126 91 1181 67T1282 43H1360V0H634V43H674Q698 43 712 50T727 72Q727 85 715 104T677 151L577 254L508 209Q459 177 440 150T421 102Q421 74 438 59T481 43H576V0H13ZM865
43H942L390 607H313L865 43Z" />
<glyph unicode="Y" glyph-name="Y" horiz-adv-x="1309" d="M197 0V43H319Q364 43 395 67T427 151V270L87 607H-14V650H735V607H707Q685 607 672 594T659 561Q659 547 666 530T689 498L818 370L877 418Q913 447 931 477T949 534Q949 565 924 586T850 607H800V650H1323V607H1257L818
291V151Q818 92 850 68T927 43H1048V0H197ZM495 43H560V306L255 607H176L495 292V43Z" />
<glyph unicode="Z" glyph-name="Z" horiz-adv-x="1173" d="M54 0V43H77L626 607H569Q478 607 409 588T289 540T201 480T141 424H112V650H1119V607H1098L548 43H666Q759 43 826 61T940 107T1020 167T1075 226H1104V0H54ZM165 43H250L795 607H714L165 43Z" />
<glyph unicode="[" glyph-name="bracketleft" horiz-adv-x="705" d="M150 -95V715H725V670H604Q574 670 550 656T510 617T495 562V56Q495 -4 527 -28T604 -52H725V-95H150ZM217 -52H282V670H217V-52Z" />
<glyph unicode="\" glyph-name="backslash" horiz-adv-x="582" d="M450 -52L50 670H132L532 -52H450Z" />
<glyph unicode="]" glyph-name="bracketright" horiz-adv-x="715" d="M-10 -95V-52H111Q156 -52 188 -28T220 56V562Q220 592 206 616T166 655T111 670H-10V715H565V-95H-10ZM287 -52H352V670H287V-52Z" />
<glyph unicode="^" glyph-name="asciicircum" horiz-adv-x="740" d="M209 189L143 223L345 595H395L597 223L531 189L370 491L209 189Z" />
<glyph unicode="_" glyph-name="underscore" horiz-adv-x="1010" d="M100 -100V-20H910V-100H100Z" />
<glyph unicode="`" glyph-name="grave" horiz-adv-x="650" d="M546 624Q513 624 466 624T369 626T273 631T198 642Q152 653 123 674T78 717T56 754T50 770H341Q366 735 396 711T474 673T600 660V624H546ZM288 663V667Q273 672 253 682T214 708T187 742H123Q132
730 150 712T202 680T288 663Z" />
<glyph unicode="a" glyph-name="a" horiz-adv-x="1188" d="M-14 0V43Q27 43 56 53T105 77T134 100T144 111L398 436L370 471Q359 485 348 494T319 509T267 515H197V558H688L1102 43H1201V0H557V43H623Q643 43 656 51T670 76Q670 98 647 127L616 166H242Q219 127
219 98Q219 72 236 58T280 43H362V0H-14ZM804 43H864L484 515H423L804 43ZM274 207H583L426 403L274 207Z" />
<glyph unicode="b" glyph-name="b" horiz-adv-x="1256" d="M73 0V43H178Q215 43 241 62T267 131V425Q267 461 241 488T178 515H73V558H876Q938 558 992 555T1087 539T1151 500T1174 428Q1174 388 1154 362T1108 321T1065 300V296Q1082 293 1108 284T1162 259T1207
216T1225 152Q1225 106 1199 77T1131 30T1044 7T961 0H73ZM330 43H380V515H330V43ZM605 313H735Q760 313 785 323T827 356T844 414Q844 463 807 489T702 515Q657 515 631 493T605 434V313ZM890 310Q925 324 949 352T974 409Q974 438 950 466T890 507L886 504Q900
484 909 460T919 409Q919 384 910 359T886 314L890 310ZM912 40Q955 57 981 89T1007 159Q1007 196 981 229T912 278L909 274Q929 252 941 222T953 159Q953 126 941 96T909 44L912 40ZM673 43H751Q779 43 808 53T857 88T877 159Q877 221 838 248T742 275H605V127Q605
90 620 67T673 43Z" />
<glyph unicode="c" glyph-name="c" horiz-adv-x="943" d="M571 -22Q461 -22 362 -5T187 49T66 143T22 281Q22 346 52 395T136 479T256 537T396 569T541 580Q626 580 703 561T844 519V559H891V351H846Q831 372 800 403T726 465T636 516T537 537Q464 537 438 502T411
415V180Q411 95 447 57T574 19Q652 19 709 34T807 71T871 107T907 123Q913 123 921 119T930 103Q930 90 907 72T840 32Q797 11 733 -5T571 -22ZM287 42L289 46Q224 83 178 142T132 279Q132 358 178 417T289 513L287 517Q231 494 183 459T106 378T77 279Q77 227
106 182T183 101T287 42Z" />
<glyph unicode="d" glyph-name="d" horiz-adv-x="1268" d="M70 0V43H175Q212 43 238 63T265 132V426Q265 462 239 488T175 515H70V558H722Q820 558 913 544T1082 498T1201 415T1246 290Q1246 218 1216 168T1135 84T1025 33T906 8T799 0H70ZM328 42H377V515H328V42ZM670
43H747Q799 43 829 77T872 165T886 278Q886 345 870 398T812 483T699 515Q653 515 627 493T601 435V126Q601 89 616 66T670 43ZM900 49Q963 84 996 146T1030 278Q1030 348 997 410T900 507L896 504Q931 459 949 400T967 278Q967 216 949 157T896 52L900 49Z" />
<glyph unicode="e" glyph-name="e" horiz-adv-x="1184" d="M73 0V43H178Q216 43 241 62T267 131V426Q267 462 242 488T178 515H73V558H1104V358H1075Q1048 395 1000 431T877 491T697 515Q654 515 630 493T605 435V395Q605 369 619 346T676 322Q713 322 755 336T831
376T880 430H917V166H880Q866 198 832 220T755 254T676 266Q633 266 619 243T605 193V126Q605 89 620 66T673 43H750Q805 43 864 54T978 97T1075 186H1104V0H73ZM329 43H380V515H329V43Z" />
<glyph unicode="f" glyph-name="f" horiz-adv-x="1070" d="M73 0V43H178Q215 43 241 63T267 132V425Q267 462 241 488T178 515H73V558H1043V393H1016Q999 414 976 435T918 475T829 504T697 515Q654 515 630 493T605 435V394Q605 368 619 345T676 321Q730 321 769
344T830 399H866V181H829Q808 231 769 248T676 266Q634 266 620 243T605 193V127Q605 81 620 62T673 43H790V0H73ZM330 43H380V515H330V43Z" />
<glyph unicode="g" glyph-name="g" horiz-adv-x="1169" d="M571 -22Q456 -22 356 -5T181 50T64 147T22 289Q22 377 63 434T178 523T344 567T541 580Q631 580 730 567T920 527V563H967V379H922Q907 401 874 428T795 481T696 523T587 540Q539 540 499 528T435 488T411
416V175Q411 136 423 101T471 43T574 20Q594 20 617 25T661 43T696 82T710 148V209Q710 233 696 251T661 281T616 292H516V334H1201V292H1039V-4H994Q994 19 980 34T936 50Q912 50 881 39T806 14T705 -11T571 -22ZM242 63L245 68Q193 105 166 164T139 287Q139 352
166 411T245 507L242 512Q198 492 161 461T103 387T81 287Q81 231 102 188T161 114T242 63ZM783 62Q797 62 810 97T823 182V291H772V126Q772 86 775 74T783 62Z" />
<glyph unicode="h" glyph-name="h" horiz-adv-x="1482" d="M73 0V43H178Q215 43 241 63T267 132V426Q267 462 241 488T178 515H73V558H719V515Q673 515 648 505T614 477T605 435V317H871V435Q871 459 862 477T829 505T757 515V558H1403V515H1298Q1261 515 1235
489T1208 426V131Q1208 82 1234 63T1298 43H1403V0H757V43Q814 43 837 54T866 84T871 127V240Q871 252 865 263T838 274H638Q619 274 612 263T605 240V127Q605 103 609 84T638 54T719 43V0H73ZM330 43H380V515H330V43ZM935 43H985V515H935V43Z" />
<glyph unicode="i" glyph-name="i" horiz-adv-x="881" d="M73 0V43H179Q216 43 242 62T269 131V425Q269 461 243 488T179 515H73V558H802V515H696Q659 515 633 488T606 425V131Q606 82 632 63T696 43H802V0H73ZM331 43H382V515H331V43Z" />
<glyph unicode="j" glyph-name="j" horiz-adv-x="930" d="M369 -21Q296 -21 230 -10T112 16T33 45V0H-14V225H32Q32 225 43 205T76 154T131 93T210 42T313 21Q350 21 376 41T403 110V425Q403 461 377 488T313 515H208V558H916V515H830Q793 515 767 488T740 425V166Q740
122 723 88T664 29T550 -8T369 -21ZM465 57Q479 62 497 93T515 176V515H465V57Z" />
<glyph unicode="k" glyph-name="k" horiz-adv-x="1426" d="M73 0V43H178Q215 43 241 62T267 131V426Q267 462 241 488T178 515H73V558H795V515H697Q654 515 630 493T605 435V346Q605 329 613 314T651 299H669Q689 299 720 309T786 336T855 368T914 396Q1014 444
1014 481Q1014 503 988 509T896 515V558H1404V515H1311Q1291 515 1261 506T1197 481T1132 451T1079 423T1048 406Q1040 401 1032 392T1024 371Q1024 357 1036 342L1289 43H1404V0H929L704 252H638Q618 252 612 241T605 217V131Q605 82 631 63T695 43H759V0H73ZM330
43H380V515H330V43ZM958 43H1026L831 275H762L958 43Z" />
<glyph unicode="l" glyph-name="l" horiz-adv-x="1080" d="M73 0V43H178Q215 43 241 62T267 131V425Q267 461 241 488T178 515H73V558H840V515H695Q658 515 632 488T605 425V131Q605 95 623 69T695 42Q737 42 793 58T911 119T1035 250H1066V0H73ZM330 43H380V515H330V43Z" />
<glyph unicode="m" glyph-name="m" horiz-adv-x="1592" d="M33 0V43Q75 43 122 53T209 86T275 146T301 238V328Q301 371 278 405T214 464T125 502T22 515V558H575L834 337Q870 392 905 447T976 558H1560V515H1415Q1378 515 1352 501T1325 450V131Q1325 82 1351
63T1415 43H1560V0H794V43H898Q936 43 962 62T988 131V469Q925 370 861 270T733 72H686L361 346V238Q361 184 386 147T452 87T540 54T629 43V0H33ZM696 149H714V199Q622 277 528 356T341 515H265Q373 423 480 332T696 149ZM1050 43H1100V515H1050V43Z" />
<glyph unicode="n" glyph-name="n" horiz-adv-x="1324" d="M1034 -36L442 322Q441 323 429 328T401 334Q387 334 375 323T362 277V239Q362 185 387 148T453 87T540 54T629 43V0H33V43Q76 43 122 53T209 87T275 147T301 239V327Q301 370 278 404T215 464T126 502T23
515V558H664L959 372Q961 371 971 365T995 351T1021 337T1039 331Q1043 331 1049 335T1055 352Q1055 406 1037 438T990 487T927 509T861 515V558H1309V515Q1278 515 1244 510T1181 488T1133 439T1115 352V-36H1034ZM1033 38V92L350 515H332V473L1033 38Z" />
<glyph unicode="o" glyph-name="o" horiz-adv-x="1144" d="M572 -22Q458 -22 359 1T184 66T65 162T22 280Q22 342 60 396T171 492T344 556T572 580Q698 580 799 557T972 492T1082 397T1121 280Q1121 217 1079 163T961 67T786 2T572 -22ZM384 22L386 29Q312 49
254 85T163 170T130 279Q130 340 163 389T254 474T387 530L385 536Q291 517 218 480T104 393T62 280Q62 218 103 167T217 79T384 22ZM572 21Q657 21 704 86T751 278Q751 363 736 420T682 507T572 536Q502 536 463 507T409 421T393 278Q393 151 440 86T572 21ZM770
35Q822 79 852 142T883 280Q883 353 853 416T771 523L767 520Q789 465 801 405T814 279Q814 215 802 155T766 38L770 35Z" />
<glyph unicode="p" glyph-name="p" horiz-adv-x="1249" d="M73 0V43H179Q217 43 243 62T269 131V425Q269 461 243 488T179 515H73V558H933Q981 558 1033 553T1132 532T1207 485T1236 401Q1236 342 1201 307T1105 257T967 242H651Q629 242 618 229T607 186V131Q607
82 633 63T696 43H802V0H73ZM331 43H382V515H331V43ZM647 285H733Q750 285 773 291T818 310T854 346T869 400Q869 433 855 455T818 490T773 509T733 515H647Q631 515 619 503T607 474V325Q607 309 619 297T647 285ZM923 291Q952 304 973 335T995 400Q995 435 974
465T923 509L919 506Q932 484 936 457T941 400Q941 372 937 345T919 294L923 291Z" />
<glyph unicode="q" glyph-name="q" horiz-adv-x="1155" d="M366 -179V-139Q384 -101 431 -73T529 -23L528 -20Q422 -14 330 11T169 76T61 168T22 278Q22 341 61 395T172 491T348 555T578 578Q705 578 807 555T982 491T1093 396T1132 278Q1132 221 1094 171T989
81T834 15T645 -19Q621 -54 621 -90Q621 -109 629 -123T651 -137H787V-179H366ZM578 20Q660 20 705 85T751 278Q751 364 737 421T685 508T578 537Q510 537 472 508T419 422T404 278Q404 151 450 86T578 20ZM395 28L397 35Q323 54 265 89T174 172T141 278Q141 337
174 385T265 468T398 522L396 528Q302 509 229 474T115 389T73 279Q73 219 114 169T228 84T395 28ZM781 41Q833 85 863 145T894 279Q894 350 864 411T782 515L778 512Q800 459 812 400T825 278Q825 216 813 158T777 44L781 41ZM431 -137H478Q481 -123 497 -104T531
-67T557 -41L555 -38Q533 -48 505 -66T455 -104T431 -137Z" />
<glyph unicode="r" glyph-name="r" horiz-adv-x="1365" d="M73 0V43H179Q217 43 243 63T269 132V425Q269 462 243 488T179 515H73V558Q73 558 106 558T195 558T324 558T476 558T635 559T784 559T908 559T989 559Q1036 559 1088 554T1187 533T1262 486T1291 401Q1291
353 1262 325T1184 281T1079 261T967 254V248Q985 233 1029 214T1136 184L1249 43H1352V0H844L673 219Q673 219 666 227T648 244T628 253Q612 253 610 239T607 195V132Q607 83 633 63T696 43H761V0H73ZM331 43H382V515H331V43ZM741 302Q777 302 809 311T862 342T883
400Q883 433 869 455T832 490T787 509T747 515H647Q631 515 619 503T607 474V354Q607 340 626 328T676 309T741 302ZM949 291Q978 304 999 335T1021 400Q1021 435 1000 465T949 509L945 506Q958 484 962 457T967 400Q967 372 963 345T945 294L949 291ZM886 43H949Q909
96 868 148T786 253H722L886 43Z" />
<glyph unicode="s" glyph-name="s" d="M605 -22Q514 -22 440 -14T298 9T162 45L139 -4H94V240H139Q152 210 195 172T302 99T444 42T604 19Q636 19 668 22T721 33T742 58Q742 75 715 89T641 116T538 142T419 170T300 205T196 248T123 305T95 379Q95 438 121 475T189
534T284 564T388 576T485 578Q624 578 730 559T920 518Q923 532 927 542T935 561H980V370H936Q899 406 842 437T721 490T596 525T490 538Q447 538 417 528T386 488Q386 467 412 454T483 430T583 411T698 391T813 364T913 323T984 262T1011 175Q1011 105 961 62T820
-2T605 -22ZM839 72Q839 74 841 74T844 77Q844 120 816 146T740 188T632 216T506 244Q444 258 385 277T278 320T202 375T172 442H165Q158 429 155 416T152 391Q152 345 201 309T350 240T604 171Q667 157 710 145T784 116T839 72Z" />
<glyph unicode="t" glyph-name="t" horiz-adv-x="958" d="M115 0V43H221Q258 43 284 63T310 132V476Q310 493 304 504T282 515Q266 515 242 495T190 444T139 382T100 331T85 310H49L63 558H895L909 310H873Q873 310 858 330T819 382T768 443T717 494T677 515Q661
515 654 504T647 476V132Q647 83 673 63T737 43H843V0H115ZM373 43H422V515H373V43Z" />
<glyph unicode="u" glyph-name="u" horiz-adv-x="1047" d="M575 -22Q458 -22 382 -11T262 19T197 60T171 106T165 151V427Q165 477 139 496T76 515H40V558H607V515H591Q555 515 529 496T502 427V141Q502 80 524 49T598 18Q687 18 733 36T795 83T811 147V353Q811
407 794 439T750 488T697 510T650 515V558H1042V515Q1011 515 981 510T926 489T887 440T872 353V171Q872 148 869 122T850 71T804 24T717 -9T575 -22ZM277 76V515H228V177Q228 134 240 112T265 83T277 76Z" />
<glyph unicode="v" glyph-name="v" horiz-adv-x="1072" d="M526 -19L45 515H-14V558H590V515H564Q545 515 531 495T517 448Q517 432 523 416T542 387L698 229L808 346Q832 373 832 406Q832 434 814 459T762 499T685 515H640V558H1085V515H1040L558 -19H526ZM541
24L575 61L167 515H100L541 24Z" />
<glyph unicode="w" glyph-name="w" horiz-adv-x="1725" d="M526 -19L45 515H-14V558H590V515H563Q544 515 531 495T517 448Q517 432 523 416T542 387L698 226L828 370L698 515H640V558H1244V515H1217Q1198 515 1184 495T1170 449Q1170 433 1176 417T1196 387L1352
229L1461 346Q1474 360 1479 375T1485 406Q1485 434 1467 458T1415 499T1338 515H1293V558H1739V515H1695L1211 -19H1179L868 325L558 -19H526ZM542 24L574 61L167 515H99L542 24ZM1195 24L1228 61L821 515H752L1195 24Z" />
<glyph unicode="x" glyph-name="x" horiz-adv-x="1176" d="M13 0V43H44Q79 43 115 55T181 82T226 108L455 256L292 423Q268 448 235 468T169 502T111 515H56V558H645V515H627Q606 515 598 507T589 488Q589 477 595 465T610 445L689 363L711 379Q751 408 767 429T784
467Q784 490 767 502T735 515H716V557H1136V515H1104Q1072 515 1037 502T971 473T923 446L730 321Q777 273 822 226T913 133Q963 83 1009 63T1093 43H1163V0H540V43H577Q598 43 607 51T617 71Q617 91 598 110L495 215L437 177Q399 152 382 129T364 89Q364 67 382
55T414 43H497V0H13ZM727 43H795L335 515H267L727 43Z" />
<glyph unicode="y" glyph-name="y" horiz-adv-x="1115" d="M166 0V43H273Q309 43 335 62T362 131V231L75 515H-14V558H629V515H602Q584 515 574 505T563 479Q563 468 569 454T589 427L697 321L744 360Q775 386 790 411T805 457Q805 482 785 498T724 515H679V558H1129V515H1071L699
249V131Q699 82 725 63T789 43H895V0H166ZM425 43H474V269L224 515H158L425 251V43Z" />
<glyph unicode="z" glyph-name="z" horiz-adv-x="1019" d="M54 0V43H76L537 515H495Q418 515 360 499T258 459T184 408T132 361H104V558H965V515H945L483 43H577Q649 43 703 57T798 95T869 145T924 197H952V0H54ZM158 43H229L688 515H617L158 43Z" />
<glyph unicode="{" glyph-name="braceleft" horiz-adv-x="805" d="M684 -117Q547 -117 452 -94T296 -34T202 45T157 126T144 192Q144 248 120 264T43 281V339Q96 339 120 355T144 428Q144 455 156 494T202 575T295 654T451 714T684 737V683Q684 683 665 681T619
668T564 636T517 577T498 481Q498 424 488 391T459 343T415 323T357 318V302Q389 302 414 298T459 278T488 229T498 139Q498 81 517 44T563 -15T618 -47T665 -60T684 -63V-117ZM481 -62L483 -55Q420 -31 380 -8T319 45T290 115T282 216Q282 260 256 282T189 310Q230
315 256 337T282 404Q282 464 290 505T319 575T380 627T483 675L481 682Q381 658 321 620T235 528T209 404Q209 363 196 343T163 314V306Q183 299 196 278T209 216Q209 146 235 93T321 1T481 -62Z" />
<glyph unicode="|" glyph-name="bar" horiz-adv-x="365" d="M150 -95V715H215V-95H150Z" />
<glyph unicode="}" glyph-name="braceright" horiz-adv-x="805" d="M121 -117V-63Q121 -63 140 -61T186 -48T241 -16T288 43T307 139Q307 196 317 229T346 277T391 297T448 302V318Q417 318 391 322T346 342T317 391T307 481Q307 539 288 576T242 635T187 667T140
680T121 683V737Q258 737 353 714T509 654T603 575T648 494T661 428Q661 372 685 356T762 339V281Q710 281 686 265T661 192Q661 165 649 126T603 45T510 -34T354 -94T121 -117ZM498 338V346Q479 354 466 374T452 436Q452 506 432 554T361 636T220 694L218 687Q283
665 317 637T365 563T379 436Q379 376 412 357T498 338ZM220 -74Q311 -50 361 -17T431 65T452 184Q452 225 465 246T498 274V282Q446 282 413 263T379 184Q379 105 366 58T318 -17T218 -67L220 -74Z" />
<glyph unicode="~" glyph-name="asciitilde" horiz-adv-x="740" d="M212 253Q181 253 152 262T100 298V378Q127 353 155 343T211 333Q250 333 289 346T369 378T449 410T528 424Q557 424 584 414T640 379V299Q616 324 587 334T525 344Q483 344 445 331T370 299T295
267T212 253Z" />
<glyph unicode="&#xa0;" glyph-name="uni00A0" horiz-adv-x="450" />
<glyph unicode="&#xa1;" glyph-name="exclamdown" horiz-adv-x="679" d="M338 523Q274 523 222 541T139 592T108 662Q108 701 139 732T222 782T338 801Q401 801 453 783T536 733T567 662Q567 624 536 592T453 542T338 523ZM273 565L276 570Q258 587 247 611T236
662Q236 689 247 713T276 754L273 759Q233 744 208 718T182 662Q182 632 207 606T273 565ZM338 -26Q242 -26 191 4T139 93Q139 112 150 147T180 226T221 314T265 395T307 455T338 478Q350 478 369 456T410 396T455 314T496 227T526 148T537 93Q537 35 485 5T338
-26ZM298 16L302 25Q283 32 269 44T254 69Q254 86 265 121T293 202T330 292T368 375L338 423Q323 396 305 359T270 280T238 199T215 128T206 80Q206 55 233 39T298 16Z" />
<glyph unicode="&#xa2;" glyph-name="cent" horiz-adv-x="943" d="M480 -110V30Q385 36 302 57T156 114T58 204T22 330Q22 404 61 458T167 548T315 603T480 627V760H530V629Q535 629 541 629Q626 629 703 610T844 568V608H891V400H846Q831 421 800 452T726 514T636
565T537 586Q464 586 438 551T411 464V229Q411 144 447 106T574 68Q652 68 709 83T807 120T871 156T907 172Q913 172 921 168T930 152Q930 139 907 121T840 81Q797 60 733 44T571 27Q550 27 530 28V-110H480ZM287 91L289 95Q224 132 178 191T132 328Q132 407 178
466T289 562L287 566Q231 543 183 508T106 427T77 328Q77 276 106 231T183 150T287 91Z" />
<glyph unicode="&#xa3;" glyph-name="sterling" horiz-adv-x="1109" d="M336 -22Q311 -22 274 -21T197 -15T123 1T67 32T45 83Q45 119 77 152T171 206T324 227Q355 227 386 221Q362 249 330 277T265 335H65V385H214Q186 415 169 445T151 508Q151 549 176 578T245
625T344 653T459 667T577 671Q649 671 711 662T821 641T895 619T922 610V671H970V453H921Q851 523 794 558T687 606T591 619Q545 619 520 608T486 581T476 549Q476 524 500 499T563 445T641 385H858V335H696Q728 301 750 262T772 175Q772 149 766 128T747 89Q788
77 829 69T915 61Q950 61 972 73T1009 102T1031 138T1047 168T1063 180Q1078 180 1086 156T1094 105Q1094 78 1084 49T1046 -1T970 -22Q920 -22 855 1T718 56Q684 28 636 12T534 -11T429 -20T336 -22ZM398 30Q457 37 496 72T536 164Q536 202 516 238T465 308T399
375T332 436T281 490T261 535Q261 558 269 575T287 602L284 607Q273 603 257 593T230 565T218 523Q218 497 237 468T288 408T353 345T418 281T468 219T488 160Q488 122 472 97T434 58T396 36L398 30ZM141 89Q141 61 174 47T250 32Q291 32 332 44T401 79T429 135Q429
153 420 172Q395 178 371 181T324 185Q274 185 233 173T166 139T141 89Z" />
<glyph unicode="&#xa4;" glyph-name="currency" horiz-adv-x="790" d="M173 -29L132 0L235 149Q146 174 90 224T33 335Q33 396 86 446T234 521L132 668L173 697L288 532Q339 540 395 540Q451 540 502 532L617 697L658 668L556 521Q651 496 704 446T757 335Q757
273 701 224T555 149L658 0L617 -29L502 137Q450 128 395 128Q340 128 288 137L173 -29ZM282 172V178Q213 199 170 242T127 335Q127 385 168 428T282 492V496Q188 478 135 435T82 335Q82 298 108 266T179 209T282 172ZM395 175Q445 175 473 215T502 334Q502 412
481 452T395 492Q333 492 311 452T289 334Q289 255 317 215T395 175ZM535 185Q562 214 582 249T603 335Q603 386 582 422T530 489Q544 452 551 414T559 335Q559 295 553 257T535 185Z" />
<glyph unicode="&#xa5;" glyph-name="yen" horiz-adv-x="1309" d="M197 0V43H319Q364 43 395 67T427 151V197H87V247H427V270L372 325H87V375H321L87 607H-14V650H735V607H707Q685 607 672 594T659 561Q659 547 666 530T689 498L818 370L877 418Q913 447 931 477T949
534Q949 565 924 586T850 607H800V650H1323V607H1257L935 375H1157V325H865L818 291V247H1157V197H818V151Q818 92 850 68T927 43H1048V0H197ZM495 43H560V319L269 607H176L495 292V43Z" />
<glyph unicode="&#xa6;" glyph-name="brokenbar" horiz-adv-x="365" d="M150 387V715H215V387H150ZM150 -95V233H215V-95H150Z" />
<glyph unicode="&#xa7;" glyph-name="section" d="M605 -199Q514 -199 440 -191T298 -168T162 -132L139 -181H94V63H139Q152 33 195 -5T302 -78T444 -135T604 -158Q636 -158 668 -155T721 -144T742 -119Q742 -102 715 -88T641 -61T538 -35T419 -7T300 28T196 71T123
128T95 202Q95 258 118 294T181 352T268 383T366 397V407Q295 427 233 453T133 516T95 602Q95 661 121 698T189 757T284 787T388 799T485 801Q624 801 730 782T920 741Q923 755 927 765T935 784H980V593H936Q899 629 842 660T721 713T596 748T490 761Q447 761 417
751T386 711Q386 690 412 677T483 653T583 634T698 614T813 587T913 546T984 485T1011 398Q1011 317 944 272T761 210V200Q827 184 884 159T976 95T1011 -2Q1011 -72 961 -115T820 -179T605 -199ZM839 295Q839 297 841 297T844 300Q844 343 816 369T740 411T632
439T506 467Q444 481 385 500T278 543T202 598T172 665H165Q158 652 155 639T152 614Q152 568 201 532T350 463T604 394Q667 380 710 368T784 339T839 295ZM366 381H396V427H366V407Q380 403 396 399Q380 398 366 397V381ZM604 242Q636 242 668 245T721 256T742
281Q742 300 719 313T660 336T588 350T524 358T490 361Q447 361 417 351T386 311Q386 292 404 280T450 260T508 249T565 244T604 242ZM839 -105Q839 -103 841 -103T844 -100Q844 -57 816 -31T740 11T632 39T506 67Q444 81 385 100T278 143T202 198T172 265H165Q158
252 155 239T152 214Q152 168 201 132T350 63T604 -6Q667 -20 710 -32T784 -61T839 -105Z" />
<glyph unicode="&#xa8;" glyph-name="dieresis" horiz-adv-x="885" d="M669 593Q632 593 601 608T552 649T533 706Q533 738 551 764T601 805T669 821Q708 821 739 806T788 764T807 706Q807 675 789 649T739 608T669 593ZM213 593Q176 593 145 608T96 649T77 706Q77
738 95 764T145 805T213 821Q252 821 283 806T332 764T351 706Q351 675 333 649T283 608T213 593ZM183 616L186 619Q172 635 164 657T155 706Q155 733 163 755T186 793L183 796Q153 783 134 759T114 706Q114 678 133 654T183 616ZM639 616L642 619Q628 635 620
657T611 706Q611 733 619 755T642 793L639 796Q609 783 590 759T570 706Q570 678 589 654T639 616Z" />
<glyph unicode="&#xa9;" glyph-name="copyright" horiz-adv-x="775" d="M388 192Q317 192 255 212T146 269T72 354T45 457Q45 512 71 560T145 644T255 701T388 722Q459 722 521 702T630 645T703 560T730 457Q730 402 704 354T630 270T521 213T388 192ZM388 226Q451
226 507 244T605 295T671 369T695 457Q695 504 671 545T605 619T507 669T388 688Q325 688 269 670T171 619T104 546T80 457Q80 411 104 369T170 295T269 245T388 226ZM410 322Q359 322 315 336T244 382T217 462Q217 513 245 543T315 587T399 601Q429 601 456 592T507
571V591H521V495H507Q499 515 482 535T443 569T397 583Q371 583 362 567T352 525V415Q352 375 365 357T411 339Q449 339 473 351T510 376T528 388Q535 388 535 380Q535 368 504 348Q489 338 467 330T410 322Z" />
<glyph unicode="&#xaa;" glyph-name="ordfeminine" horiz-adv-x="793" d="M29 308V348Q62 348 82 357T111 376T121 386L268 571L254 588Q254 588 242 599T200 610H152V650H451L693 348H755V308H362V348H409Q417 348 423 351T429 361Q429 369 417 385L401 405H191Q180
383 180 373Q180 362 188 355T208 348H264V308H29ZM503 348H545L337 610H294L503 348ZM219 444H370L294 539L219 444Z" />
<glyph unicode="&#xab;" glyph-name="guillemotleft" horiz-adv-x="678" d="M598 8L325 258V300L598 549V462L486 359L598 255V8ZM273 8L0 258V300L273 549V462L161 359L273 255V8ZM235 119V181L100 303L66 272L235 119ZM560 119V181L425 303L391 272L560 119Z" />
<glyph unicode="&#xac;" glyph-name="logicalnot" horiz-adv-x="740" d="M562 108V298H100V378H640V108H562Z" />
<glyph unicode="&#xae;" glyph-name="registered" horiz-adv-x="775" d="M388 192Q317 192 255 212T146 269T72 354T45 457Q45 512 71 560T145 644T255 701T388 722Q459 722 521 702T630 645T703 560T730 457Q730 402 704 354T630 270T521 213T388 192ZM388 226Q451
226 507 244T605 295T671 369T695 457Q695 504 671 545T605 619T507 669T388 688Q325 688 269 670T171 619T104 546T80 457Q80 411 104 369T170 295T269 245T388 226ZM168 331V348H204Q218 348 227 358T237 392V530Q237 548 228 561T204 574H168V591H490Q512 591
536 587T578 567T596 519Q596 489 578 475T534 455T482 449V445Q488 439 502 433T538 423L582 348H617V331H439L379 433Q379 433 374 441T363 450Q356 450 355 443T354 422V392Q354 368 364 358T387 348H409V331H168ZM403 471Q422 471 438 481T454 518Q454 549
436 561T405 574H369Q363 574 359 568T354 553V496Q354 486 369 479T403 471Z" />
<glyph unicode="&#xaf;" glyph-name="overscore" horiz-adv-x="505" d="M50 630V764H455V630H50ZM111 650H165V744H111V650Z" />
<glyph unicode="&#xb0;" glyph-name="degree" horiz-adv-x="447" d="M223 451Q170 451 126 477T56 547T30 644Q30 698 56 742T126 812T223 838Q277 838 321 812T391 742T417 644Q417 591 391 547T321 477T223 451ZM223 511Q260 511 290 529T339 577T357 644Q357
681 339 711T291 760T223 778Q186 778 156 760T108 712T90 644Q90 607 108 577T156 529T223 511Z" />
<glyph unicode="&#xb1;" glyph-name="plusminus" horiz-adv-x="740" d="M100 360V440H330V670H410V440H640V360H410V130H330V360H100ZM100 0V80H640V0H100Z" />
<glyph unicode="&#xb2;" glyph-name="uni00B2" horiz-adv-x="555" d="M25 362V403Q53 411 90 425T168 459T242 503T298 557T320 619Q320 658 305 675T273 697T247 701Q206 701 168 680T104 627T71 559H44V713H71V687Q99 700 152 714T284 729Q311 729 351 725T431
710T497 677T524 623Q524 593 497 566T425 513T324 467T211 428T103 397V391Q232 395 324 409T494 447V494H521V362H25ZM309 505Q309 505 322 510T354 527T386 562T400 619Q400 654 378 676T333 708L330 705Q330 705 337 696T352 667T360 619Q360 598 350 566T307
509L309 505Z" />
<glyph unicode="&#xb3;" glyph-name="uni00B3" horiz-adv-x="564" d="M264 350Q201 350 145 360T53 386V362H26V484H52Q63 455 94 431T167 392T254 378Q296 378 320 402T345 460Q345 497 321 520T256 544Q221 544 196 531T171 491H144V617H171Q171 588 192 579T242
570Q280 570 301 588T323 635Q323 662 304 681T242 701Q195 701 146 677T70 598H44V708H71V688Q111 705 154 717T264 729Q371 729 434 702T497 636Q497 608 457 587T353 556Q438 547 487 521T536 459Q536 429 499 404T401 365T264 350ZM339 572Q371 583 387 599T403
633Q403 652 387 671T339 704L336 701Q351 682 357 666T363 635Q363 605 336 575L339 572ZM360 380Q389 395 408 416T427 460Q427 482 409 503T360 539L357 536Q374 517 379 497T385 460Q385 442 380 422T357 383L360 380Z" />
<glyph unicode="&#xb4;" glyph-name="acute" horiz-adv-x="650" d="M50 624V660Q128 660 176 673T254 710T309 770H600Q600 770 594 755T573 717T528 674T452 642Q423 635 378 632T282 627T184 625T104 624H50ZM248 663Q300 666 333 680T386 712T413 742H349Q340
724 322 709T284 683T248 667V663Z" />
<glyph unicode="&#xb5;" glyph-name="uni00B5" horiz-adv-x="1439" d="M454 -199Q388 -199 334 -187T248 -141T216 -41V426Q216 476 190 495T126 515H20V559H553V225Q553 207 557 186T573 146T610 115T676 103Q738 103 792 130T881 192V426Q881 476 855 495T791
515H685V559H1218V132Q1218 96 1244 70T1308 43H1414V0H881V129Q826 80 769 54T645 27Q594 27 540 43V-44Q540 -94 569 -124T669 -155H750V-199H454ZM382 -153L383 -145Q359 -133 345 -106T330 -30V426Q330 470 297 494T211 528L209 521Q241 510 260 487T279 426V-30Q279
-90 307 -117T382 -153ZM944 43H995V426Q995 470 962 494T876 528L874 521Q906 510 925 487T944 426V43Z" />
<glyph unicode="&#xb6;" glyph-name="paragraph" horiz-adv-x="1117" d="M305 106Q237 106 184 129T95 191T41 279T22 379Q22 430 41 478T99 565T197 627T338 650H540Q555 698 601 731T736 783T963 801Q990 801 1016 800T1067 796L1062 756Q1056 757 1047 757T1029
758Q985 758 953 734T920 650V19Q920 -32 900 -72T831 -141T698 -184T487 -199Q460 -199 434 -198T383 -194L388 -154Q394 -155 403 -155T421 -156Q465 -156 497 -132T530 -48V194Q479 151 421 129T305 106ZM597 -113Q611 -107 625 -93T650 -48T661 31V715Q648
710 633 695T608 651T597 571V-113ZM269 152L272 162Q230 190 205 227T167 304T155 379Q155 414 167 453T204 531T272 597L269 606Q184 572 136 510T88 379Q88 311 136 249T269 152ZM463 261Q494 261 530 271V580H464Q417 580 389 555T350 491T338 411Q338 374
351 340T391 283T463 261Z" />
<glyph unicode="&#xb7;" glyph-name="middot" horiz-adv-x="594" d="M296 181Q239 181 193 198T119 243T91 306Q91 341 118 369T192 415T296 432Q353 432 399 415T473 370T501 306Q501 272 474 244T400 198T296 181ZM214 218L217 222Q201 238 191 259T180 306Q180
331 190 352T217 390L214 394Q177 381 154 357T131 306Q131 279 154 256T214 218Z" />
<glyph unicode="&#xb8;" glyph-name="cedilla" horiz-adv-x="566" d="M283 -223Q212 -223 150 -213T50 -188V-79H89Q100 -105 122 -127T173 -162T228 -175Q260 -175 283 -159T306 -105Q306 -19 175 0V16Q239 16 299 7T409 -22T487 -68T516 -133Q516 -163 495 -180T440
-207T365 -220T283 -223ZM324 -188Q344 -183 365 -172T401 -143T416 -107Q416 -75 390 -56T324 -24L320 -30Q366 -58 366 -107Q366 -129 354 -150T321 -182L324 -188Z" />
<glyph unicode="&#xb9;" glyph-name="uni00B9" horiz-adv-x="509" d="M80 362V392H126Q149 392 164 404T180 448V600Q180 626 184 648T188 671L54 578L27 611L204 722H477V691H432Q409 691 393 675T376 635V448Q376 417 392 405T432 392H477V362H80ZM220 392H260V691H220V392Z"
/>
<glyph unicode="&#xba;" glyph-name="ordmasculine" horiz-adv-x="718" d="M359 295Q291 295 232 309T127 350T56 410T30 483Q30 534 70 576T185 644T359 670Q460 670 533 645T647 577T688 483Q688 444 663 410T592 350T487 310T359 295ZM256 335V340Q194 360
155 398T115 483Q115 529 152 568T256 626V630Q171 614 123 574T75 483Q75 433 126 393T256 335ZM359 338Q405 338 430 374T456 482Q456 553 437 589T359 626Q303 626 283 590T263 482Q263 410 288 374T359 338ZM486 347Q511 373 529 405T548 483Q548 530 529 562T482
623Q508 554 508 483Q508 447 502 413T486 347Z" />
<glyph unicode="&#xbb;" glyph-name="guillemotright" horiz-adv-x="678" d="M405 8V95L517 198L405 302V549L678 299V257L405 8ZM80 8V95L192 198L80 302V549L353 299V257L80 8ZM222 225L256 256L118 383V321L222 225ZM547 225L581 256L443 383V321L547 225Z" />
<glyph unicode="&#xbc;" glyph-name="onequarter" horiz-adv-x="1165" d="M361 -22L755 670H807L413 -22H361ZM71 317V347H117Q140 347 155 359T171 403V555Q171 581 175 603T179 626L45 533L18 566L195 677H468V646H423Q400 646 384 630T367 590V403Q367 372
383 360T423 347H468V317H71ZM211 347H251V646H211V347ZM716 0V29H762Q785 29 801 41T817 85V97H617V124L841 360H1114V329H1067Q1045 329 1029 313T1013 273V126H1115V97H1013V85Q1013 54 1029 42T1067 29H1114V0H716ZM857 29H897V329H857V29ZM676 126H817V234Q817
256 820 275T823 295Q786 251 750 211T676 126Z" />
<glyph unicode="&#xbd;" glyph-name="onehalf" horiz-adv-x="1165" d="M323 -22L717 670H769L375 -22H323ZM71 317V347H117Q140 347 155 359T171 403V555Q171 581 175 603T179 626L45 533L18 566L195 677H468V646H423Q400 646 384 630T367 590V403Q367 372 383
360T423 347H468V317H71ZM211 347H251V646H211V347ZM614 0V41Q642 49 679 63T757 97T831 141T887 195T909 257Q909 296 894 313T862 335T836 339Q795 339 757 318T693 265T660 197H633V351H660V325Q688 338 741 352T873 367Q900 367 940 363T1020 348T1086 315T1113
261Q1113 231 1086 204T1014 151T913 105T800 66T692 35V29Q821 33 913 47T1083 85V132H1110V0H614ZM898 143Q898 143 911 148T943 165T975 200T989 257Q989 292 967 314T922 346L919 343Q919 343 926 334T941 305T949 257Q949 236 939 204T896 147L898 143Z" />
<glyph unicode="&#xbe;" glyph-name="threequarters" horiz-adv-x="1165" d="M391 -22L785 670H837L443 -22H391ZM285 305Q222 305 166 315T74 341V317H47V439H73Q84 410 115 386T188 347T275 333Q317 333 341 357T366 415Q366 452 342 475T277 499Q242 499 217
486T192 446H165V572H192Q192 543 213 534T263 525Q301 525 322 543T344 590Q344 617 325 636T263 656Q216 656 167 632T91 553H65V663H92V643Q132 660 175 672T285 684Q392 684 455 657T518 591Q518 563 478 542T374 511Q459 502 508 476T557 414Q557 384 520
359T422 320T285 305ZM360 527Q392 538 408 554T424 588Q424 607 408 626T360 659L357 656Q372 637 378 621T384 590Q384 560 357 530L360 527ZM381 335Q410 350 429 371T448 415Q448 437 430 458T381 494L378 491Q395 472 400 452T406 415Q406 397 401 377T378
338L381 335ZM716 0V29H762Q785 29 801 41T817 85V97H617V124L841 360H1114V329H1067Q1045 329 1029 313T1013 273V126H1115V97H1013V85Q1013 54 1029 42T1067 29H1114V0H716ZM857 29H897V329H857V29ZM676 126H817V234Q817 256 820 275T823 295Q786 251 750 211T676
126Z" />
<glyph unicode="&#xbf;" glyph-name="questiondown" horiz-adv-x="1092" d="M583 505Q520 505 468 523T384 574T353 644Q353 683 384 714T467 764T583 783Q646 783 698 765T780 715T811 644Q811 606 781 574T698 524T583 505ZM510 547L513 552Q497 569 487 592T476
644Q476 672 486 695T513 736L510 741Q473 727 450 701T427 644Q427 614 450 588T510 547ZM938 -43V22Q894 10 843 -1T727 -19T575 -26Q485 -26 399 -19T245 8T136 61T95 148Q95 208 141 260T266 353T447 417T660 440Q679 440 696 440T739 438V393Q716 394 688
394T641 395Q598 395 563 380T508 323T487 204Q487 137 494 98T514 41T542 17T571 12Q611 12 657 24T750 59T835 108T902 164T938 221H980V-43H938ZM334 17L336 26Q284 43 252 72T220 148Q220 196 248 239T326 318T440 377L436 385Q355 363 292 327T192 245T155
148Q155 94 205 63T334 17Z" />
<glyph unicode="&#xc0;" glyph-name="Agrave" horiz-adv-x="1397" d="M-14 0V43Q19 43 51 58T110 96T159 141T192 179T204 195L461 522L436 553Q414 580 388 593T313 607H234V650H806L1296 43H1410V0H659V43H733Q758 43 775 54T792 86Q792 112 763 148L726 194H283Q268
171 261 150T254 112Q254 79 275 61T329 43H422V0H-14ZM928 43H1005L550 607H473L928 43ZM321 242H688L500 474L321 242ZM800 716Q767 716 720 716T623 718T527 723T452 734Q406 745 377 766T332 809T310 846T304 862H595Q620 827 650 803T728 765T854 752V716H800ZM542
755V759Q527 764 507 774T468 800T441 834H377Q386 822 404 804T456 772T542 755Z" />
<glyph unicode="&#xc1;" glyph-name="Aacute" horiz-adv-x="1397" d="M-14 0V43Q19 43 51 58T110 96T159 141T192 179T204 195L461 522L436 553Q414 580 388 593T313 607H234V650H806L1296 43H1410V0H659V43H733Q758 43 775 54T792 86Q792 112 763 148L726 194H283Q268
171 261 150T254 112Q254 79 275 61T329 43H422V0H-14ZM928 43H1005L550 607H473L928 43ZM321 242H688L500 474L321 242ZM304 716V752Q382 752 430 765T508 802T563 862H854Q854 862 848 847T827 809T782 766T706 734Q677 727 632 724T536 719T438 717T358 716H304ZM502
755Q554 758 587 772T640 804T667 834H603Q594 816 576 801T538 775T502 759V755Z" />
<glyph unicode="&#xc2;" glyph-name="Acircumflex" horiz-adv-x="1397" d="M-14 0V43Q19 43 51 58T110 96T159 141T192 179T204 195L461 522L436 553Q414 580 388 593T313 607H234V650H806L1296 43H1410V0H659V43H733Q758 43 775 54T792 86Q792 112 763 148L726
194H283Q268 171 261 150T254 112Q254 79 275 61T329 43H422V0H-14ZM928 43H1005L550 607H473L928 43ZM321 242H688L500 474L321 242ZM283 716L417 862H741L874 716H787L684 828L580 716H283ZM394 754H456L531 837H469L394 754Z" />
<glyph unicode="&#xc3;" glyph-name="Atilde" horiz-adv-x="1397" d="M-14 0V43Q19 43 51 58T110 96T159 141T192 179T204 195L461 522L436 553Q414 580 388 593T313 607H234V650H806L1296 43H1410V0H659V43H733Q758 43 775 54T792 86Q792 112 763 148L726 194H283Q268
171 261 150T254 112Q254 79 275 61T329 43H422V0H-14ZM928 43H1005L550 607H473L928 43ZM321 242H688L500 474L321 242ZM687 705Q628 705 586 712T509 729T436 746T350 754Q328 754 312 744T288 717H260Q262 736 276 763T319 816T389 861T486 879Q542 879 581
874T653 861T716 849T787 843Q820 843 837 852T865 878H898Q896 858 883 829T843 772T778 724T687 705ZM694 739Q729 739 765 751T827 785L825 789Q804 782 774 778T722 774Q664 774 623 780T550 796T485 811T412 818Q384 818 365 809T332 788L335 784Q346 786
356 787T377 789Q419 789 465 777T568 752T694 739Z" />
<glyph unicode="&#xc4;" glyph-name="Adieresis" horiz-adv-x="1397" d="M-14 0V43Q19 43 51 58T110 96T159 141T192 179T204 195L461 522L436 553Q414 580 388 593T313 607H234V650H806L1296 43H1410V0H659V43H733Q758 43 775 54T792 86Q792 112 763 148L726
194H283Q268 171 261 150T254 112Q254 79 275 61T329 43H422V0H-14ZM928 43H1005L550 607H473L928 43ZM321 242H688L500 474L321 242ZM806 685Q769 685 738 700T689 741T670 798Q670 830 688 856T738 897T806 913Q845 913 876 898T925 856T944 798Q944 767 926
741T876 700T806 685ZM350 685Q313 685 282 700T233 741T214 798Q214 830 232 856T282 897T350 913Q389 913 420 898T469 856T488 798Q488 767 470 741T420 700T350 685ZM320 708L323 711Q309 727 301 749T292 798Q292 825 300 847T323 885L320 888Q290 875 271
851T251 798Q251 770 270 746T320 708ZM776 708L779 711Q765 727 757 749T748 798Q748 825 756 847T779 885L776 888Q746 875 727 851T707 798Q707 770 726 746T776 708Z" />
<glyph unicode="&#xc5;" glyph-name="Aring" horiz-adv-x="1397" d="M-14 0V43Q19 43 51 58T110 96T159 141T192 179T204 195L461 522L436 553Q414 580 388 593T313 607H234V650H806L1296 43H1410V0H659V43H733Q758 43 775 54T792 86Q792 112 763 148L726 194H283Q268
171 261 150T254 112Q254 79 275 61T329 43H422V0H-14ZM928 43H1005L550 607H473L928 43ZM321 242H688L500 474L321 242ZM578 668Q535 668 500 685T443 732T421 798Q421 834 442 864T499 912T578 930Q622 930 658 912T715 864T737 798Q737 762 716 733T658 686T578
668ZM578 699Q598 699 612 728T626 798Q626 839 612 868T578 897Q559 897 545 868T530 798Q530 757 544 728T578 699ZM521 705L524 708Q510 725 502 748T493 798Q493 852 524 888L521 891Q491 878 472 853T453 798Q453 770 472 745T521 705Z" />
<glyph unicode="&#xc6;" glyph-name="AE" horiz-adv-x="1833" d="M-14 0V43Q19 43 51 58T110 96T159 141T192 179T204 195L461 522L436 553Q414 580 388 593T313 607H234V650H1753V420H1724Q1692 464 1634 506T1489 577T1277 605Q1225 605 1195 578T1164 508V474Q1164
454 1170 430T1194 389T1252 372Q1285 372 1322 382T1394 409T1456 449T1495 499H1532V194H1495Q1479 232 1438 258T1346 298T1252 312Q1218 312 1199 299T1172 265T1164 223V187Q1164 143 1169 111T1192 61T1250 43H1275Q1329 43 1388 46T1508 66T1623 116T1724
212H1753V0H546V43H666Q712 43 743 67T775 151V312H375L283 194Q266 172 260 151T254 112Q254 79 275 61T329 43H422V0H-14ZM666 607H605L422 372H775V507Q775 551 751 579T666 607ZM842 43H908V607H842V43Z" />
<glyph unicode="&#xc7;" glyph-name="Ccedilla" horiz-adv-x="1097" d="M666 -22Q537 -22 421 -2T215 60T74 168T22 328Q22 404 58 461T155 558T295 624T460 662T630 674Q731 674 822 651T989 600V650H1037V411H989Q970 448 933 486T847 557T741 610T625 630Q567
630 534 611T488 560T474 485V211Q474 111 517 66T669 20Q764 20 832 38T946 81T1019 124T1060 143Q1067 143 1075 139T1084 123Q1084 108 1057 88T980 42Q930 17 855 -2T666 -22ZM356 59L357 64Q302 88 256 124T181 209T152 320Q152 389 180 442T255 535T357 600L356
605Q276 583 214 540T116 441T81 320Q81 261 116 210T213 119T356 59ZM549 -223Q478 -223 416 -213T316 -188V-79H355Q366 -105 388 -127T439 -162T494 -175Q526 -175 549 -159T572 -105Q572 -19 441 0V16Q505 16 565 7T675 -22T753 -68T782 -133Q782 -163 761
-180T706 -207T631 -220T549 -223ZM590 -188Q610 -183 631 -172T667 -143T682 -107Q682 -75 656 -56T590 -24L586 -30Q632 -58 632 -107Q632 -129 620 -150T587 -182L590 -188Z" />
<glyph unicode="&#xc8;" glyph-name="Egrave" horiz-adv-x="1360" d="M73 0V43H193Q239 43 270 67T302 151V497Q302 527 288 552T249 592T193 607H73V650H1280V420H1251Q1219 464 1161 506T1016 577T804 605Q752 605 722 578T691 508V474Q691 454 696 430T721
389T779 372Q812 372 849 382T921 409T983 449T1022 499H1059V194H1022Q1006 232 965 258T873 298T779 312Q745 312 726 299T699 265T691 223V187Q691 143 696 111T719 61T777 43H802Q856 43 915 46T1035 66T1150 116T1251 212H1280V0H73ZM369 43H435V607H369V43ZM991
716Q958 716 911 716T814 718T718 723T643 734Q597 745 568 766T523 809T501 846T495 862H786Q811 827 841 803T919 765T1045 752V716H991ZM733 755V759Q718 764 698 774T659 800T632 834H568Q577 822 595 804T647 772T733 755Z" />
<glyph unicode="&#xc9;" glyph-name="Eacute" horiz-adv-x="1360" d="M73 0V43H193Q239 43 270 67T302 151V497Q302 527 288 552T249 592T193 607H73V650H1280V420H1251Q1219 464 1161 506T1016 577T804 605Q752 605 722 578T691 508V474Q691 454 696 430T721
389T779 372Q812 372 849 382T921 409T983 449T1022 499H1059V194H1022Q1006 232 965 258T873 298T779 312Q745 312 726 299T699 265T691 223V187Q691 143 696 111T719 61T777 43H802Q856 43 915 46T1035 66T1150 116T1251 212H1280V0H73ZM369 43H435V607H369V43ZM495
716V752Q573 752 621 765T699 802T754 862H1045Q1045 862 1039 847T1018 809T973 766T897 734Q868 727 823 724T727 719T629 717T549 716H495ZM693 755Q745 758 778 772T831 804T858 834H794Q785 816 767 801T729 775T693 759V755Z" />
<glyph unicode="&#xca;" glyph-name="Ecircumflex" horiz-adv-x="1360" d="M73 0V43H193Q239 43 270 67T302 151V497Q302 527 288 552T249 592T193 607H73V650H1280V420H1251Q1219 464 1161 506T1016 577T804 605Q752 605 722 578T691 508V474Q691 454 696 430T721
389T779 372Q812 372 849 382T921 409T983 449T1022 499H1059V194H1022Q1006 232 965 258T873 298T779 312Q745 312 726 299T699 265T691 223V187Q691 143 696 111T719 61T777 43H802Q856 43 915 46T1035 66T1150 116T1251 212H1280V0H73ZM369 43H435V607H369V43ZM474
716L608 862H932L1065 716H978L875 828L771 716H474ZM585 754H647L722 837H660L585 754Z" />
<glyph unicode="&#xcb;" glyph-name="Edieresis" horiz-adv-x="1360" d="M73 0V43H193Q239 43 270 67T302 151V497Q302 527 288 552T249 592T193 607H73V650H1280V420H1251Q1219 464 1161 506T1016 577T804 605Q752 605 722 578T691 508V474Q691 454 696 430T721
389T779 372Q812 372 849 382T921 409T983 449T1022 499H1059V194H1022Q1006 232 965 258T873 298T779 312Q745 312 726 299T699 265T691 223V187Q691 143 696 111T719 61T777 43H802Q856 43 915 46T1035 66T1150 116T1251 212H1280V0H73ZM369 43H435V607H369V43ZM997
685Q960 685 929 700T880 741T861 798Q861 830 879 856T929 897T997 913Q1036 913 1067 898T1116 856T1135 798Q1135 767 1117 741T1067 700T997 685ZM541 685Q504 685 473 700T424 741T405 798Q405 830 423 856T473 897T541 913Q580 913 611 898T660 856T679 798Q679
767 661 741T611 700T541 685ZM511 708L514 711Q500 727 492 749T483 798Q483 825 491 847T514 885L511 888Q481 875 462 851T442 798Q442 770 461 746T511 708ZM967 708L970 711Q956 727 948 749T939 798Q939 825 947 847T970 885L967 888Q937 875 918 851T898
798Q898 770 917 746T967 708Z" />
<glyph unicode="&#xcc;" glyph-name="Igrave" horiz-adv-x="1003" d="M73 0V43H195Q240 43 272 67T304 151V497Q304 527 290 552T250 592T195 607H73V650H924V607H803Q773 607 749 592T709 552T694 497V151Q694 91 726 67T803 43H924V0H73ZM371 43H436V607H371V43ZM723
716Q690 716 643 716T546 718T450 723T375 734Q329 745 300 766T255 809T233 846T227 862H518Q543 827 573 803T651 765T777 752V716H723ZM465 755V759Q450 764 430 774T391 800T364 834H300Q309 822 327 804T379 772T465 755Z" />
<glyph unicode="&#xcd;" glyph-name="Iacute" horiz-adv-x="1003" d="M73 0V43H195Q240 43 272 67T304 151V497Q304 527 290 552T250 592T195 607H73V650H924V607H803Q773 607 749 592T709 552T694 497V151Q694 91 726 67T803 43H924V0H73ZM371 43H436V607H371V43ZM227
716V752Q305 752 353 765T431 802T486 862H777Q777 862 771 847T750 809T705 766T629 734Q600 727 555 724T459 719T361 717T281 716H227ZM425 755Q477 758 510 772T563 804T590 834H526Q517 816 499 801T461 775T425 759V755Z" />
<glyph unicode="&#xce;" glyph-name="Icircumflex" horiz-adv-x="1003" d="M73 0V43H195Q240 43 272 67T304 151V497Q304 527 290 552T250 592T195 607H73V650H924V607H803Q773 607 749 592T709 552T694 497V151Q694 91 726 67T803 43H924V0H73ZM371 43H436V607H371V43ZM206
716L340 862H664L797 716H710L607 828L503 716H206ZM317 754H379L454 837H392L317 754Z" />
<glyph unicode="&#xcf;" glyph-name="Idieresis" horiz-adv-x="1003" d="M73 0V43H195Q240 43 272 67T304 151V497Q304 527 290 552T250 592T195 607H73V650H924V607H803Q773 607 749 592T709 552T694 497V151Q694 91 726 67T803 43H924V0H73ZM371 43H436V607H371V43ZM729
685Q692 685 661 700T612 741T593 798Q593 830 611 856T661 897T729 913Q768 913 799 898T848 856T867 798Q867 767 849 741T799 700T729 685ZM273 685Q236 685 205 700T156 741T137 798Q137 830 155 856T205 897T273 913Q312 913 343 898T392 856T411 798Q411
767 393 741T343 700T273 685ZM243 708L246 711Q232 727 224 749T215 798Q215 825 223 847T246 885L243 888Q213 875 194 851T174 798Q174 770 193 746T243 708ZM699 708L702 711Q688 727 680 749T671 798Q671 825 679 847T702 885L699 888Q669 875 650 851T630
798Q630 770 649 746T699 708Z" />
<glyph unicode="&#xd0;" glyph-name="Eth" horiz-adv-x="1469" d="M70 0V43H190Q235 43 267 67T299 152V285H148V365H299V498Q299 528 285 552T245 592T190 607H70V650H833Q925 650 1014 640T1181 607T1318 547T1412 458T1446 337Q1446 267 1421 215T1352 126T1255
64T1143 25T1028 6T925 0H70ZM366 43H431V607H366V43ZM772 43H863Q910 43 942 67T993 131T1021 221T1030 324Q1030 404 1010 468T942 569T807 606Q752 606 720 580T688 508V365H876V285H688V145Q688 100 707 72T772 43ZM1034 50Q1110 93 1155 158T1200 324Q1200
425 1155 490T1034 598L1032 595Q1074 538 1096 470T1119 324Q1119 248 1097 179T1032 53L1034 50Z" />
<glyph unicode="&#xd1;" glyph-name="Ntilde" horiz-adv-x="1544" d="M1211 -42L515 379Q515 379 500 386T465 393Q446 393 431 379T415 323V277Q415 212 445 168T522 96T625 56T730 43V0H35V43Q85 43 140 55T242 95T320 167T350 277V382Q350 433 323 474T248
545T143 591T23 607V650H772L1120 431Q1120 431 1132 424T1160 408T1192 391T1214 383Q1220 383 1228 388T1237 410Q1237 475 1216 514T1160 573T1086 600T1009 607V650H1529V607Q1492 607 1452 600T1378 573T1323 514T1301 410V-42H1211ZM1211 35V107L383 607H356V552L1211
35ZM880 705Q821 705 779 712T702 729T629 746T543 754Q521 754 505 744T481 717H453Q455 736 469 763T512 816T582 861T679 879Q735 879 774 874T846 861T909 849T980 843Q1013 843 1030 852T1058 878H1091Q1089 858 1076 829T1036 772T971 724T880 705ZM887 739Q922
739 958 751T1020 785L1018 789Q997 782 967 778T915 774Q857 774 816 780T743 796T678 811T605 818Q577 818 558 809T525 788L528 784Q539 786 549 787T570 789Q612 789 658 777T761 752T887 739Z" />
<glyph unicode="&#xd2;" glyph-name="Ograve" horiz-adv-x="1345" d="M672 -22Q537 -22 420 5T213 79T73 190T22 325Q22 397 67 459T198 569T403 643T672 670Q821 670 941 644T1146 570T1276 460T1322 325Q1322 253 1272 190T1132 80T925 5T672 -22ZM672 19Q770
19 824 96T879 324Q879 424 862 492T799 594T672 629Q591 629 546 595T483 492T465 324Q465 173 520 96T672 19ZM384 40L385 44Q315 72 262 115T179 211T149 325Q149 385 179 439T263 536T389 607L388 611Q295 584 225 541T115 442T76 325Q76 264 114 210T222 112T384
40ZM909 47Q965 99 1000 172T1035 325Q1035 405 1000 478T909 603L903 601Q929 538 944 467T960 325Q960 255 945 184T903 49L909 47ZM894 716Q861 716 814 716T717 718T621 723T546 734Q500 745 471 766T426 809T404 846T398 862H689Q714 827 744 803T822 765T948
752V716H894ZM636 755V759Q621 764 601 774T562 800T535 834H471Q480 822 498 804T550 772T636 755Z" />
<glyph unicode="&#xd3;" glyph-name="Oacute" horiz-adv-x="1345" d="M672 -22Q537 -22 420 5T213 79T73 190T22 325Q22 397 67 459T198 569T403 643T672 670Q821 670 941 644T1146 570T1276 460T1322 325Q1322 253 1272 190T1132 80T925 5T672 -22ZM672 19Q770
19 824 96T879 324Q879 424 862 492T799 594T672 629Q591 629 546 595T483 492T465 324Q465 173 520 96T672 19ZM384 40L385 44Q315 72 262 115T179 211T149 325Q149 385 179 439T263 536T389 607L388 611Q295 584 225 541T115 442T76 325Q76 264 114 210T222 112T384
40ZM909 47Q965 99 1000 172T1035 325Q1035 405 1000 478T909 603L903 601Q929 538 944 467T960 325Q960 255 945 184T903 49L909 47ZM398 716V752Q476 752 524 765T602 802T657 862H948Q948 862 942 847T921 809T876 766T800 734Q771 727 726 724T630 719T532
717T452 716H398ZM596 755Q648 758 681 772T734 804T761 834H697Q688 816 670 801T632 775T596 759V755Z" />
<glyph unicode="&#xd4;" glyph-name="Ocircumflex" horiz-adv-x="1345" d="M672 -22Q537 -22 420 5T213 79T73 190T22 325Q22 397 67 459T198 569T403 643T672 670Q821 670 941 644T1146 570T1276 460T1322 325Q1322 253 1272 190T1132 80T925 5T672 -22ZM672
19Q770 19 824 96T879 324Q879 424 862 492T799 594T672 629Q591 629 546 595T483 492T465 324Q465 173 520 96T672 19ZM384 40L385 44Q315 72 262 115T179 211T149 325Q149 385 179 439T263 536T389 607L388 611Q295 584 225 541T115 442T76 325Q76 264 114 210T222
112T384 40ZM909 47Q965 99 1000 172T1035 325Q1035 405 1000 478T909 603L903 601Q929 538 944 467T960 325Q960 255 945 184T903 49L909 47ZM377 716L511 862H835L968 716H881L778 828L674 716H377ZM488 754H550L625 837H563L488 754Z" />
<glyph unicode="&#xd5;" glyph-name="Otilde" horiz-adv-x="1345" d="M672 -22Q537 -22 420 5T213 79T73 190T22 325Q22 397 67 459T198 569T403 643T672 670Q821 670 941 644T1146 570T1276 460T1322 325Q1322 253 1272 190T1132 80T925 5T672 -22ZM672 19Q770
19 824 96T879 324Q879 424 862 492T799 594T672 629Q591 629 546 595T483 492T465 324Q465 173 520 96T672 19ZM384 40L385 44Q315 72 262 115T179 211T149 325Q149 385 179 439T263 536T389 607L388 611Q295 584 225 541T115 442T76 325Q76 264 114 210T222 112T384
40ZM909 47Q965 99 1000 172T1035 325Q1035 405 1000 478T909 603L903 601Q929 538 944 467T960 325Q960 255 945 184T903 49L909 47ZM781 705Q722 705 680 712T603 729T530 746T444 754Q422 754 406 744T382 717H354Q356 736 370 763T413 816T483 861T580 879Q636
879 675 874T747 861T810 849T881 843Q914 843 931 852T959 878H992Q990 858 977 829T937 772T872 724T781 705ZM788 739Q823 739 859 751T921 785L919 789Q898 782 868 778T816 774Q758 774 717 780T644 796T579 811T506 818Q478 818 459 809T426 788L429 784Q440
786 450 787T471 789Q513 789 559 777T662 752T788 739Z" />
<glyph unicode="&#xd6;" glyph-name="Odieresis" horiz-adv-x="1345" d="M672 -22Q537 -22 420 5T213 79T73 190T22 325Q22 397 67 459T198 569T403 643T672 670Q821 670 941 644T1146 570T1276 460T1322 325Q1322 253 1272 190T1132 80T925 5T672 -22ZM672 19Q770
19 824 96T879 324Q879 424 862 492T799 594T672 629Q591 629 546 595T483 492T465 324Q465 173 520 96T672 19ZM384 40L385 44Q315 72 262 115T179 211T149 325Q149 385 179 439T263 536T389 607L388 611Q295 584 225 541T115 442T76 325Q76 264 114 210T222 112T384
40ZM909 47Q965 99 1000 172T1035 325Q1035 405 1000 478T909 603L903 601Q929 538 944 467T960 325Q960 255 945 184T903 49L909 47ZM900 685Q863 685 832 700T783 741T764 798Q764 830 782 856T832 897T900 913Q939 913 970 898T1019 856T1038 798Q1038 767 1020
741T970 700T900 685ZM444 685Q407 685 376 700T327 741T308 798Q308 830 326 856T376 897T444 913Q483 913 514 898T563 856T582 798Q582 767 564 741T514 700T444 685ZM414 708L417 711Q403 727 395 749T386 798Q386 825 394 847T417 885L414 888Q384 875 365
851T345 798Q345 770 364 746T414 708ZM870 708L873 711Q859 727 851 749T842 798Q842 825 850 847T873 885L870 888Q840 875 821 851T801 798Q801 770 820 746T870 708Z" />
<glyph unicode="&#xd7;" glyph-name="multiply" horiz-adv-x="740" d="M188 101L133 156L315 338L133 520L188 575L370 393L552 575L607 520L425 338L607 156L552 101L370 283L188 101Z" />
<glyph unicode="&#xd8;" glyph-name="Oslash" horiz-adv-x="1345" d="M672 -22Q537 -22 420 5T213 79T73 190T22 325Q22 397 67 459T198 569T403 643T672 670Q821 670 941 644T1146 570T1276 460T1322 325Q1322 253 1272 190T1132 80T925 5T672 -22ZM672 19Q770
19 824 96T879 324Q879 424 862 492T799 594T672 629Q591 629 546 595T483 492T465 324Q465 173 520 96T672 19ZM384 40L385 44Q315 72 262 115T179 211T149 325Q149 385 179 439T263 536T389 607L388 611Q295 584 225 541T115 442T76 325Q76 264 114 210T222 112T384
40ZM909 47Q965 99 1000 172T1035 325Q1035 405 1000 478T909 603L903 601Q929 538 944 467T960 325Q960 255 945 184T903 49L909 47ZM449 -89L843 741H895L501 -89H449Z" />
<glyph unicode="&#xd9;" glyph-name="Ugrave" horiz-adv-x="1217" d="M652 -22Q522 -22 437 -10T302 24T226 72T194 125T186 177V499Q186 559 155 583T78 607H40V650H701V607H685Q640 607 609 583T577 499V167Q577 97 603 64T692 31Q772 31 822 42T899 74T936
119T947 174V411Q947 476 927 515T875 574T812 600T757 607V650H1212V607Q1175 607 1140 601T1075 574T1029 515T1012 411V220Q1012 183 1008 148T986 82T930 28T824 -9T652 -22ZM319 88V607H254V210Q254 164 263 139T285 103T307 90T319 88ZM870 716Q837 716 790
716T693 718T597 723T522 734Q476 745 447 766T402 809T380 846T374 862H665Q690 827 720 803T798 765T924 752V716H870ZM612 755V759Q597 764 577 774T538 800T511 834H447Q456 822 474 804T526 772T612 755Z" />
<glyph unicode="&#xda;" glyph-name="Uacute" horiz-adv-x="1217" d="M652 -22Q522 -22 437 -10T302 24T226 72T194 125T186 177V499Q186 559 155 583T78 607H40V650H701V607H685Q640 607 609 583T577 499V167Q577 97 603 64T692 31Q772 31 822 42T899 74T936
119T947 174V411Q947 476 927 515T875 574T812 600T757 607V650H1212V607Q1175 607 1140 601T1075 574T1029 515T1012 411V220Q1012 183 1008 148T986 82T930 28T824 -9T652 -22ZM319 88V607H254V210Q254 164 263 139T285 103T307 90T319 88ZM374 716V752Q452 752
500 765T578 802T633 862H924Q924 862 918 847T897 809T852 766T776 734Q747 727 702 724T606 719T508 717T428 716H374ZM572 755Q624 758 657 772T710 804T737 834H673Q664 816 646 801T608 775T572 759V755Z" />
<glyph unicode="&#xdb;" glyph-name="Ucircumflex" horiz-adv-x="1217" d="M652 -22Q522 -22 437 -10T302 24T226 72T194 125T186 177V499Q186 559 155 583T78 607H40V650H701V607H685Q640 607 609 583T577 499V167Q577 97 603 64T692 31Q772 31 822 42T899 74T936
119T947 174V411Q947 476 927 515T875 574T812 600T757 607V650H1212V607Q1175 607 1140 601T1075 574T1029 515T1012 411V220Q1012 183 1008 148T986 82T930 28T824 -9T652 -22ZM319 88V607H254V210Q254 164 263 139T285 103T307 90T319 88ZM353 716L487 862H811L944
716H857L754 828L650 716H353ZM464 754H526L601 837H539L464 754Z" />
<glyph unicode="&#xdc;" glyph-name="Udieresis" horiz-adv-x="1217" d="M652 -22Q522 -22 437 -10T302 24T226 72T194 125T186 177V499Q186 559 155 583T78 607H40V650H701V607H685Q640 607 609 583T577 499V167Q577 97 603 64T692 31Q772 31 822 42T899 74T936
119T947 174V411Q947 476 927 515T875 574T812 600T757 607V650H1212V607Q1175 607 1140 601T1075 574T1029 515T1012 411V220Q1012 183 1008 148T986 82T930 28T824 -9T652 -22ZM319 88V607H254V210Q254 164 263 139T285 103T307 90T319 88ZM876 685Q839 685 808
700T759 741T740 798Q740 830 758 856T808 897T876 913Q915 913 946 898T995 856T1014 798Q1014 767 996 741T946 700T876 685ZM420 685Q383 685 352 700T303 741T284 798Q284 830 302 856T352 897T420 913Q459 913 490 898T539 856T558 798Q558 767 540 741T490
700T420 685ZM390 708L393 711Q379 727 371 749T362 798Q362 825 370 847T393 885L390 888Q360 875 341 851T321 798Q321 770 340 746T390 708ZM846 708L849 711Q835 727 827 749T818 798Q818 825 826 847T849 885L846 888Q816 875 797 851T777 798Q777 770 796
746T846 708Z" />
<glyph unicode="&#xdd;" glyph-name="Yacute" horiz-adv-x="1309" d="M197 0V43H319Q364 43 395 67T427 151V270L87 607H-14V650H735V607H707Q685 607 672 594T659 561Q659 547 666 530T689 498L818 370L877 418Q913 447 931 477T949 534Q949 565 924 586T850
607H800V650H1323V607H1257L818 291V151Q818 92 850 68T927 43H1048V0H197ZM495 43H560V306L255 607H176L495 292V43ZM380 716V752Q458 752 506 765T584 802T639 862H930Q930 862 924 847T903 809T858 766T782 734Q753 727 708 724T612 719T514 717T434 716H380ZM578
755Q630 758 663 772T716 804T743 834H679Q670 816 652 801T614 775T578 759V755Z" />
<glyph unicode="&#xde;" glyph-name="Thorn" horiz-adv-x="1447" d="M73 0V43H195Q240 43 272 67T304 151V497Q304 527 290 552T250 592T195 607H73V650H924V607H693V577Q693 540 706 525T748 509H1081Q1125 509 1173 506T1268 492T1351 461T1411 408T1433 327Q1433
259 1392 218T1281 160T1121 142H748Q720 142 707 127T693 74V43H924V0H73ZM371 43H436V607H371V43ZM744 187H845Q866 187 893 194T947 218T991 260T1009 326Q1009 365 992 391T948 434T894 457T845 464H744Q723 464 709 449T694 413V237Q694 217 708 202T744 187ZM1060
191Q1086 200 1108 221T1143 270T1156 326Q1156 355 1143 382T1108 431T1060 461L1055 458Q1073 430 1080 396T1087 326Q1087 292 1080 257T1055 194L1060 191Z" />
<glyph unicode="&#xdf;" glyph-name="germandbls" horiz-adv-x="1330" d="M767 -22Q742 -22 716 -21T661 -17L666 25Q683 21 702 20T740 18Q809 18 846 64T884 180Q884 251 836 299T702 367V395Q762 419 793 459T825 549Q825 597 793 623T717 650Q672 650 639
624T606 550V0H73V43H179Q269 43 269 131V428Q269 463 242 489T179 515H73V558H286Q397 694 696 694Q785 694 858 674T974 619T1018 537Q1018 494 984 452T887 384V379Q999 371 1080 343T1206 273T1250 183Q1250 137 1214 99T1112 34T959 -7T767 -22ZM827 427Q866
446 895 473T924 531Q924 581 864 615L859 612Q876 575 876 544Q876 487 822 430L827 427ZM331 43H382V405Q382 537 448 595L446 602Q331 539 331 396V43ZM900 25Q984 84 984 174Q984 264 890 330L886 325Q912 297 924 254T937 172Q937 88 896 29L900 25Z" />
<glyph unicode="&#xe0;" glyph-name="agrave" horiz-adv-x="1188" d="M-14 0V43Q27 43 56 53T105 77T134 100T144 111L398 436L370 471Q359 485 348 494T319 509T267 515H197V558H688L1102 43H1201V0H557V43H623Q643 43 656 51T670 76Q670 98 647 127L616 166H242Q219
127 219 98Q219 72 236 58T280 43H362V0H-14ZM804 43H864L484 515H423L804 43ZM274 207H583L426 403L274 207ZM714 624Q681 624 634 624T537 626T441 631T366 642Q320 653 291 674T246 717T224 754T218 770H509Q534 735 564 711T642 673T768 660V624H714ZM456 663V667Q441
672 421 682T382 708T355 742H291Q300 730 318 712T370 680T456 663Z" />
<glyph unicode="&#xe1;" glyph-name="aacute" horiz-adv-x="1188" d="M-14 0V43Q27 43 56 53T105 77T134 100T144 111L398 436L370 471Q359 485 348 494T319 509T267 515H197V558H688L1102 43H1201V0H557V43H623Q643 43 656 51T670 76Q670 98 647 127L616 166H242Q219
127 219 98Q219 72 236 58T280 43H362V0H-14ZM804 43H864L484 515H423L804 43ZM274 207H583L426 403L274 207ZM218 624V660Q296 660 344 673T422 710T477 770H768Q768 770 762 755T741 717T696 674T620 642Q591 635 546 632T450 627T352 625T272 624H218ZM416 663Q468
666 501 680T554 712T581 742H517Q508 724 490 709T452 683T416 667V663Z" />
<glyph unicode="&#xe2;" glyph-name="acircumflex" horiz-adv-x="1188" d="M-14 0V43Q27 43 56 53T105 77T134 100T144 111L398 436L370 471Q359 485 348 494T319 509T267 515H197V558H688L1102 43H1201V0H557V43H623Q643 43 656 51T670 76Q670 98 647 127L616
166H242Q219 127 219 98Q219 72 236 58T280 43H362V0H-14ZM804 43H864L484 515H423L804 43ZM274 207H583L426 403L274 207ZM197 624L331 770H655L788 624H701L598 736L494 624H197ZM308 662H370L445 745H383L308 662Z" />
<glyph unicode="&#xe3;" glyph-name="atilde" horiz-adv-x="1188" d="M-14 0V43Q27 43 56 53T105 77T134 100T144 111L398 436L370 471Q359 485 348 494T319 509T267 515H197V558H688L1102 43H1201V0H557V43H623Q643 43 656 51T670 76Q670 98 647 127L616 166H242Q219
127 219 98Q219 72 236 58T280 43H362V0H-14ZM804 43H864L484 515H423L804 43ZM274 207H583L426 403L274 207ZM601 613Q542 613 500 620T423 637T350 654T264 662Q242 662 226 652T202 625H174Q176 644 190 671T233 724T303 769T400 787Q456 787 495 782T567 769T630
757T701 751Q734 751 751 760T779 786H812Q810 766 797 737T757 680T692 632T601 613ZM608 647Q643 647 679 659T741 693L739 697Q718 690 688 686T636 682Q578 682 537 688T464 704T399 719T326 726Q298 726 279 717T246 696L249 692Q260 694 270 695T291 697Q333
697 379 685T482 660T608 647Z" />
<glyph unicode="&#xe4;" glyph-name="adieresis" horiz-adv-x="1188" d="M-14 0V43Q27 43 56 53T105 77T134 100T144 111L398 436L370 471Q359 485 348 494T319 509T267 515H197V558H688L1102 43H1201V0H557V43H623Q643 43 656 51T670 76Q670 98 647 127L616 166H242Q219
127 219 98Q219 72 236 58T280 43H362V0H-14ZM804 43H864L484 515H423L804 43ZM274 207H583L426 403L274 207ZM720 593Q683 593 652 608T603 649T584 706Q584 738 602 764T652 805T720 821Q759 821 790 806T839 764T858 706Q858 675 840 649T790 608T720 593ZM264
593Q227 593 196 608T147 649T128 706Q128 738 146 764T196 805T264 821Q303 821 334 806T383 764T402 706Q402 675 384 649T334 608T264 593ZM234 616L237 619Q223 635 215 657T206 706Q206 733 214 755T237 793L234 796Q204 783 185 759T165 706Q165 678 184
654T234 616ZM690 616L693 619Q679 635 671 657T662 706Q662 733 670 755T693 793L690 796Q660 783 641 759T621 706Q621 678 640 654T690 616Z" />
<glyph unicode="&#xe5;" glyph-name="aring" horiz-adv-x="1188" d="M-14 0V43Q27 43 56 53T105 77T134 100T144 111L398 436L370 471Q359 485 348 494T319 509T267 515H197V558H688L1102 43H1201V0H557V43H623Q643 43 656 51T670 76Q670 98 647 127L616 166H242Q219
127 219 98Q219 72 236 58T280 43H362V0H-14ZM804 43H864L484 515H423L804 43ZM274 207H583L426 403L274 207ZM492 576Q449 576 414 593T357 640T335 706Q335 742 356 772T413 820T492 838Q536 838 572 820T629 772T651 706Q651 670 630 641T572 594T492 576ZM492
607Q512 607 526 636T540 706Q540 747 526 776T492 805Q473 805 459 776T444 706Q444 665 458 636T492 607ZM435 613L438 616Q424 633 416 656T407 706Q407 760 438 796L435 799Q405 786 386 761T367 706Q367 678 386 653T435 613Z" />
<glyph unicode="&#xe6;" glyph-name="ae" horiz-adv-x="1559" d="M-14 0V43Q27 43 56 53T105 77T134 100T144 111L398 436L370 471Q359 485 348 494T319 509T267 515H197V558H1479V358H1450Q1423 395 1375 431T1252 491T1072 515Q1029 515 1005 493T980 435V395Q980
369 994 346T1051 322Q1088 322 1130 336T1206 376T1255 430H1292V166H1255Q1241 198 1207 220T1130 254T1051 266Q1008 266 994 243T980 193V126Q980 89 995 66T1048 43H1125Q1180 43 1239 54T1353 97T1450 186H1479V0H448V43H553Q591 43 616 62T642 131V271H323L242
166Q229 149 224 131T219 98Q219 72 236 58T280 43H362V0H-14ZM553 515H513L359 317H642V426Q642 462 617 488T553 515ZM704 43H755V515H704V43Z" />
<glyph unicode="&#xe7;" glyph-name="ccedilla" horiz-adv-x="943" d="M571 -22Q461 -22 362 -5T187 49T66 143T22 281Q22 346 52 395T136 479T256 537T396 569T541 580Q626 580 703 561T844 519V559H891V351H846Q831 372 800 403T726 465T636 516T537 537Q464
537 438 502T411 415V180Q411 95 447 57T574 19Q652 19 709 34T807 71T871 107T907 123Q913 123 921 119T930 103Q930 90 907 72T840 32Q797 11 733 -5T571 -22ZM287 42L289 46Q224 83 178 142T132 279Q132 358 178 417T289 513L287 517Q231 494 183 459T106 378T77
279Q77 227 106 182T183 101T287 42ZM472 -223Q401 -223 339 -213T239 -188V-79H278Q289 -105 311 -127T362 -162T417 -175Q449 -175 472 -159T495 -105Q495 -19 364 0V16Q428 16 488 7T598 -22T676 -68T705 -133Q705 -163 684 -180T629 -207T554 -220T472 -223ZM513
-188Q533 -183 554 -172T590 -143T605 -107Q605 -75 579 -56T513 -24L509 -30Q555 -58 555 -107Q555 -129 543 -150T510 -182L513 -188Z" />
<glyph unicode="&#xe8;" glyph-name="egrave" horiz-adv-x="1184" d="M73 0V43H178Q216 43 241 62T267 131V426Q267 462 242 488T178 515H73V558H1104V358H1075Q1048 395 1000 431T877 491T697 515Q654 515 630 493T605 435V395Q605 369 619 346T676 322Q713 322
755 336T831 376T880 430H917V166H880Q866 198 832 220T755 254T676 266Q633 266 619 243T605 193V126Q605 89 620 66T673 43H750Q805 43 864 54T978 97T1075 186H1104V0H73ZM329 43H380V515H329V43ZM879 624Q846 624 799 624T702 626T606 631T531 642Q485 653
456 674T411 717T389 754T383 770H674Q699 735 729 711T807 673T933 660V624H879ZM621 663V667Q606 672 586 682T547 708T520 742H456Q465 730 483 712T535 680T621 663Z" />
<glyph unicode="&#xe9;" glyph-name="eacute" horiz-adv-x="1184" d="M73 0V43H178Q216 43 241 62T267 131V426Q267 462 242 488T178 515H73V558H1104V358H1075Q1048 395 1000 431T877 491T697 515Q654 515 630 493T605 435V395Q605 369 619 346T676 322Q713 322
755 336T831 376T880 430H917V166H880Q866 198 832 220T755 254T676 266Q633 266 619 243T605 193V126Q605 89 620 66T673 43H750Q805 43 864 54T978 97T1075 186H1104V0H73ZM329 43H380V515H329V43ZM383 624V660Q461 660 509 673T587 710T642 770H933Q933 770
927 755T906 717T861 674T785 642Q756 635 711 632T615 627T517 625T437 624H383ZM581 663Q633 666 666 680T719 712T746 742H682Q673 724 655 709T617 683T581 667V663Z" />
<glyph unicode="&#xea;" glyph-name="ecircumflex" horiz-adv-x="1184" d="M73 0V43H178Q216 43 241 62T267 131V426Q267 462 242 488T178 515H73V558H1104V358H1075Q1048 395 1000 431T877 491T697 515Q654 515 630 493T605 435V395Q605 369 619 346T676 322Q713
322 755 336T831 376T880 430H917V166H880Q866 198 832 220T755 254T676 266Q633 266 619 243T605 193V126Q605 89 620 66T673 43H750Q805 43 864 54T978 97T1075 186H1104V0H73ZM329 43H380V515H329V43ZM362 624L496 770H820L953 624H866L763 736L659 624H362ZM473
662H535L610 745H548L473 662Z" />
<glyph unicode="&#xeb;" glyph-name="edieresis" horiz-adv-x="1184" d="M73 0V43H178Q216 43 241 62T267 131V426Q267 462 242 488T178 515H73V558H1104V358H1075Q1048 395 1000 431T877 491T697 515Q654 515 630 493T605 435V395Q605 369 619 346T676 322Q713
322 755 336T831 376T880 430H917V166H880Q866 198 832 220T755 254T676 266Q633 266 619 243T605 193V126Q605 89 620 66T673 43H750Q805 43 864 54T978 97T1075 186H1104V0H73ZM329 43H380V515H329V43ZM885 593Q848 593 817 608T768 649T749 706Q749 738 767
764T817 805T885 821Q924 821 955 806T1004 764T1023 706Q1023 675 1005 649T955 608T885 593ZM429 593Q392 593 361 608T312 649T293 706Q293 738 311 764T361 805T429 821Q468 821 499 806T548 764T567 706Q567 675 549 649T499 608T429 593ZM399 616L402 619Q388
635 380 657T371 706Q371 733 379 755T402 793L399 796Q369 783 350 759T330 706Q330 678 349 654T399 616ZM855 616L858 619Q844 635 836 657T827 706Q827 733 835 755T858 793L855 796Q825 783 806 759T786 706Q786 678 805 654T855 616Z" />
<glyph unicode="&#xec;" glyph-name="igrave" horiz-adv-x="881" d="M73 0V43H179Q216 43 242 62T269 131V425Q269 461 243 488T179 515H73V558H802V515H696Q659 515 633 488T606 425V131Q606 82 632 63T696 43H802V0H73ZM331 43H382V515H331V43ZM662 624Q629
624 582 624T485 626T389 631T314 642Q268 653 239 674T194 717T172 754T166 770H457Q482 735 512 711T590 673T716 660V624H662ZM404 663V667Q389 672 369 682T330 708T303 742H239Q248 730 266 712T318 680T404 663Z" />
<glyph unicode="&#xed;" glyph-name="iacute" horiz-adv-x="881" d="M73 0V43H179Q216 43 242 62T269 131V425Q269 461 243 488T179 515H73V558H802V515H696Q659 515 633 488T606 425V131Q606 82 632 63T696 43H802V0H73ZM331 43H382V515H331V43ZM166 624V660Q244
660 292 673T370 710T425 770H716Q716 770 710 755T689 717T644 674T568 642Q539 635 494 632T398 627T300 625T220 624H166ZM364 663Q416 666 449 680T502 712T529 742H465Q456 724 438 709T400 683T364 667V663Z" />
<glyph unicode="&#xee;" glyph-name="icircumflex" horiz-adv-x="881" d="M73 0V43H179Q216 43 242 62T269 131V425Q269 461 243 488T179 515H73V558H802V515H696Q659 515 633 488T606 425V131Q606 82 632 63T696 43H802V0H73ZM331 43H382V515H331V43ZM145 624L279
770H603L736 624H649L546 736L442 624H145ZM256 662H318L393 745H331L256 662Z" />
<glyph unicode="&#xef;" glyph-name="idieresis" horiz-adv-x="881" d="M73 0V43H179Q216 43 242 62T269 131V425Q269 461 243 488T179 515H73V558H802V515H696Q659 515 633 488T606 425V131Q606 82 632 63T696 43H802V0H73ZM331 43H382V515H331V43ZM924 593Q887
593 856 608T807 649T788 706Q788 738 806 764T856 805T924 821Q963 821 994 806T1043 764T1062 706Q1062 675 1044 649T994 608T924 593ZM468 593Q431 593 400 608T351 649T332 706Q332 738 350 764T400 805T468 821Q507 821 538 806T587 764T606 706Q606 675
588 649T538 608T468 593ZM438 616L441 619Q427 635 419 657T410 706Q410 733 418 755T441 793L438 796Q408 783 389 759T369 706Q369 678 388 654T438 616ZM894 616L897 619Q883 635 875 657T866 706Q866 733 874 755T897 793L894 796Q864 783 845 759T825 706Q825
678 844 654T894 616Z" />
<glyph unicode="&#xf0;" glyph-name="eth" horiz-adv-x="1144" d="M572 -22Q458 -22 359 -1T184 56T65 141T22 245Q22 300 60 348T171 434T344 493T572 515Q617 515 659 511T740 500Q740 528 736 555T722 606L594 584V644L685 659Q663 681 629 693T546 706Q500
706 456 692T372 657T302 615T254 580T237 566H202V724H237V687Q320 713 411 731T613 749Q683 749 750 737T878 698L1134 749V689L957 654Q1023 606 1063 534T1104 360Q1104 288 1073 220T976 98T810 11T572 -22ZM770 58Q822 114 852 191T883 360Q883 451 853 528T771
661L767 657Q789 590 801 515T814 360Q814 280 802 206T766 62L770 58ZM572 21Q657 21 704 77T751 244Q751 318 736 368T682 445T572 471Q502 471 463 445T409 369T393 244Q393 134 440 78T572 21ZM384 22L386 29Q312 46 254 77T163 151T130 245Q130 297 163 340T254
414T387 462L385 467Q291 450 218 418T104 343T62 245Q62 192 103 148T217 72T384 22Z" />
<glyph unicode="&#xf1;" glyph-name="ntilde" horiz-adv-x="1324" d="M1034 -36L442 322Q441 323 429 328T401 334Q387 334 375 323T362 277V239Q362 185 387 148T453 87T540 54T629 43V0H33V43Q76 43 122 53T209 87T275 147T301 239V327Q301 370 278 404T215
464T126 502T23 515V558H664L959 372Q961 371 971 365T995 351T1021 337T1039 331Q1043 331 1049 335T1055 352Q1055 406 1037 438T990 487T927 509T861 515V558H1309V515Q1278 515 1244 510T1181 488T1133 439T1115 352V-36H1034ZM1033 38V92L350 515H332V473L1033
38ZM769 613Q710 613 668 620T591 637T518 654T432 662Q410 662 394 652T370 625H342Q344 644 358 671T401 724T471 769T568 787Q624 787 663 782T735 769T798 757T869 751Q902 751 919 760T947 786H980Q978 766 965 737T925 680T860 632T769 613ZM776 647Q811
647 847 659T909 693L907 697Q886 690 856 686T804 682Q746 682 705 688T632 704T567 719T494 726Q466 726 447 717T414 696L417 692Q428 694 438 695T459 697Q501 697 547 685T650 660T776 647Z" />
<glyph unicode="&#xf2;" glyph-name="ograve" horiz-adv-x="1144" d="M572 -22Q458 -22 359 1T184 66T65 162T22 280Q22 342 60 396T171 492T344 556T572 580Q698 580 799 557T972 492T1082 397T1121 280Q1121 217 1079 163T961 67T786 2T572 -22ZM384 22L386
29Q312 49 254 85T163 170T130 279Q130 340 163 389T254 474T387 530L385 536Q291 517 218 480T104 393T62 280Q62 218 103 167T217 79T384 22ZM572 21Q657 21 704 86T751 278Q751 363 736 420T682 507T572 536Q502 536 463 507T409 421T393 278Q393 151 440 86T572
21ZM770 35Q822 79 852 142T883 280Q883 353 853 416T771 523L767 520Q789 465 801 405T814 279Q814 215 802 155T766 38L770 35ZM793 624Q760 624 713 624T616 626T520 631T445 642Q399 653 370 674T325 717T303 754T297 770H588Q613 735 643 711T721 673T847
660V624H793ZM535 663V667Q520 672 500 682T461 708T434 742H370Q379 730 397 712T449 680T535 663Z" />
<glyph unicode="&#xf3;" glyph-name="oacute" horiz-adv-x="1144" d="M572 -22Q458 -22 359 1T184 66T65 162T22 280Q22 342 60 396T171 492T344 556T572 580Q698 580 799 557T972 492T1082 397T1121 280Q1121 217 1079 163T961 67T786 2T572 -22ZM384 22L386
29Q312 49 254 85T163 170T130 279Q130 340 163 389T254 474T387 530L385 536Q291 517 218 480T104 393T62 280Q62 218 103 167T217 79T384 22ZM572 21Q657 21 704 86T751 278Q751 363 736 420T682 507T572 536Q502 536 463 507T409 421T393 278Q393 151 440 86T572
21ZM770 35Q822 79 852 142T883 280Q883 353 853 416T771 523L767 520Q789 465 801 405T814 279Q814 215 802 155T766 38L770 35ZM297 624V660Q375 660 423 673T501 710T556 770H847Q847 770 841 755T820 717T775 674T699 642Q670 635 625 632T529 627T431 625T351
624H297ZM495 663Q547 666 580 680T633 712T660 742H596Q587 724 569 709T531 683T495 667V663Z" />
<glyph unicode="&#xf4;" glyph-name="ocircumflex" horiz-adv-x="1144" d="M572 -22Q458 -22 359 1T184 66T65 162T22 280Q22 342 60 396T171 492T344 556T572 580Q698 580 799 557T972 492T1082 397T1121 280Q1121 217 1079 163T961 67T786 2T572 -22ZM384 22L386
29Q312 49 254 85T163 170T130 279Q130 340 163 389T254 474T387 530L385 536Q291 517 218 480T104 393T62 280Q62 218 103 167T217 79T384 22ZM572 21Q657 21 704 86T751 278Q751 363 736 420T682 507T572 536Q502 536 463 507T409 421T393 278Q393 151 440 86T572
21ZM770 35Q822 79 852 142T883 280Q883 353 853 416T771 523L767 520Q789 465 801 405T814 279Q814 215 802 155T766 38L770 35ZM276 624L410 770H734L867 624H780L677 736L573 624H276ZM387 662H449L524 745H462L387 662Z" />
<glyph unicode="&#xf5;" glyph-name="otilde" horiz-adv-x="1144" d="M572 -22Q458 -22 359 1T184 66T65 162T22 280Q22 342 60 396T171 492T344 556T572 580Q698 580 799 557T972 492T1082 397T1121 280Q1121 217 1079 163T961 67T786 2T572 -22ZM384 22L386
29Q312 49 254 85T163 170T130 279Q130 340 163 389T254 474T387 530L385 536Q291 517 218 480T104 393T62 280Q62 218 103 167T217 79T384 22ZM572 21Q657 21 704 86T751 278Q751 363 736 420T682 507T572 536Q502 536 463 507T409 421T393 278Q393 151 440 86T572
21ZM770 35Q822 79 852 142T883 280Q883 353 853 416T771 523L767 520Q789 465 801 405T814 279Q814 215 802 155T766 38L770 35ZM680 613Q621 613 579 620T502 637T429 654T343 662Q321 662 305 652T281 625H253Q255 644 269 671T312 724T382 769T479 787Q535
787 574 782T646 769T709 757T780 751Q813 751 830 760T858 786H891Q889 766 876 737T836 680T771 632T680 613ZM687 647Q722 647 758 659T820 693L818 697Q797 690 767 686T715 682Q657 682 616 688T543 704T478 719T405 726Q377 726 358 717T325 696L328 692Q339
694 349 695T370 697Q412 697 458 685T561 660T687 647Z" />
<glyph unicode="&#xf6;" glyph-name="odieresis" horiz-adv-x="1144" d="M572 -22Q458 -22 359 1T184 66T65 162T22 280Q22 342 60 396T171 492T344 556T572 580Q698 580 799 557T972 492T1082 397T1121 280Q1121 217 1079 163T961 67T786 2T572 -22ZM384 22L386
29Q312 49 254 85T163 170T130 279Q130 340 163 389T254 474T387 530L385 536Q291 517 218 480T104 393T62 280Q62 218 103 167T217 79T384 22ZM572 21Q657 21 704 86T751 278Q751 363 736 420T682 507T572 536Q502 536 463 507T409 421T393 278Q393 151 440 86T572
21ZM770 35Q822 79 852 142T883 280Q883 353 853 416T771 523L767 520Q789 465 801 405T814 279Q814 215 802 155T766 38L770 35ZM799 593Q762 593 731 608T682 649T663 706Q663 738 681 764T731 805T799 821Q838 821 869 806T918 764T937 706Q937 675 919 649T869
608T799 593ZM343 593Q306 593 275 608T226 649T207 706Q207 738 225 764T275 805T343 821Q382 821 413 806T462 764T481 706Q481 675 463 649T413 608T343 593ZM313 616L316 619Q302 635 294 657T285 706Q285 733 293 755T316 793L313 796Q283 783 264 759T244
706Q244 678 263 654T313 616ZM769 616L772 619Q758 635 750 657T741 706Q741 733 749 755T772 793L769 796Q739 783 720 759T700 706Q700 678 719 654T769 616Z" />
<glyph unicode="&#xf7;" glyph-name="divide" horiz-adv-x="740" d="M370 442Q327 442 296 465T265 522Q265 555 296 579T370 603Q414 603 444 579T475 522Q475 489 445 466T370 442ZM100 298V378H640V298H100ZM370 73Q327 73 296 96T265 153Q265 186 296 210T370
234Q414 234 444 210T475 153Q475 120 445 97T370 73Z" />
<glyph unicode="&#xf8;" glyph-name="oslash" horiz-adv-x="1144" d="M572 -22Q458 -22 359 1T184 66T65 162T22 280Q22 342 60 396T171 492T344 556T572 580Q698 580 799 557T972 492T1082 397T1121 280Q1121 217 1079 163T961 67T786 2T572 -22ZM384 22L386
29Q312 49 254 85T163 170T130 279Q130 340 163 389T254 474T387 530L385 536Q291 517 218 480T104 393T62 280Q62 218 103 167T217 79T384 22ZM572 21Q657 21 704 86T751 278Q751 363 736 420T682 507T572 536Q502 536 463 507T409 421T393 278Q393 151 440 86T572
21ZM770 35Q822 79 852 142T883 280Q883 353 853 416T771 523L767 520Q789 465 801 405T814 279Q814 215 802 155T766 38L770 35ZM349 -77L743 615H795L401 -77H349Z" />
<glyph unicode="&#xf9;" glyph-name="ugrave" horiz-adv-x="1047" d="M575 -22Q458 -22 382 -11T262 19T197 60T171 106T165 151V427Q165 477 139 496T76 515H40V558H607V515H591Q555 515 529 496T502 427V141Q502 80 524 49T598 18Q687 18 733 36T795 83T811
147V353Q811 407 794 439T750 488T697 510T650 515V558H1042V515Q1011 515 981 510T926 489T887 440T872 353V171Q872 148 869 122T850 71T804 24T717 -9T575 -22ZM277 76V515H228V177Q228 134 240 112T265 83T277 76ZM785 624Q752 624 705 624T608 626T512 631T437
642Q391 653 362 674T317 717T295 754T289 770H580Q605 735 635 711T713 673T839 660V624H785ZM527 663V667Q512 672 492 682T453 708T426 742H362Q371 730 389 712T441 680T527 663Z" />
<glyph unicode="&#xfa;" glyph-name="uacute" horiz-adv-x="1047" d="M575 -22Q458 -22 382 -11T262 19T197 60T171 106T165 151V427Q165 477 139 496T76 515H40V558H607V515H591Q555 515 529 496T502 427V141Q502 80 524 49T598 18Q687 18 733 36T795 83T811
147V353Q811 407 794 439T750 488T697 510T650 515V558H1042V515Q1011 515 981 510T926 489T887 440T872 353V171Q872 148 869 122T850 71T804 24T717 -9T575 -22ZM277 76V515H228V177Q228 134 240 112T265 83T277 76ZM289 624V660Q367 660 415 673T493 710T548
770H839Q839 770 833 755T812 717T767 674T691 642Q662 635 617 632T521 627T423 625T343 624H289ZM487 663Q539 666 572 680T625 712T652 742H588Q579 724 561 709T523 683T487 667V663Z" />
<glyph unicode="&#xfb;" glyph-name="ucircumflex" horiz-adv-x="1047" d="M575 -22Q458 -22 382 -11T262 19T197 60T171 106T165 151V427Q165 477 139 496T76 515H40V558H607V515H591Q555 515 529 496T502 427V141Q502 80 524 49T598 18Q687 18 733 36T795 83T811
147V353Q811 407 794 439T750 488T697 510T650 515V558H1042V515Q1011 515 981 510T926 489T887 440T872 353V171Q872 148 869 122T850 71T804 24T717 -9T575 -22ZM277 76V515H228V177Q228 134 240 112T265 83T277 76ZM268 624L402 770H726L859 624H772L669 736L565
624H268ZM379 662H441L516 745H454L379 662Z" />
<glyph unicode="&#xfc;" glyph-name="udieresis" horiz-adv-x="1047" d="M575 -22Q458 -22 382 -11T262 19T197 60T171 106T165 151V427Q165 477 139 496T76 515H40V558H607V515H591Q555 515 529 496T502 427V141Q502 80 524 49T598 18Q687 18 733 36T795 83T811
147V353Q811 407 794 439T750 488T697 510T650 515V558H1042V515Q1011 515 981 510T926 489T887 440T872 353V171Q872 148 869 122T850 71T804 24T717 -9T575 -22ZM277 76V515H228V177Q228 134 240 112T265 83T277 76ZM791 593Q754 593 723 608T674 649T655 706Q655
738 673 764T723 805T791 821Q830 821 861 806T910 764T929 706Q929 675 911 649T861 608T791 593ZM335 593Q298 593 267 608T218 649T199 706Q199 738 217 764T267 805T335 821Q374 821 405 806T454 764T473 706Q473 675 455 649T405 608T335 593ZM305 616L308
619Q294 635 286 657T277 706Q277 733 285 755T308 793L305 796Q275 783 256 759T236 706Q236 678 255 654T305 616ZM761 616L764 619Q750 635 742 657T733 706Q733 733 741 755T764 793L761 796Q731 783 712 759T692 706Q692 678 711 654T761 616Z" />
<glyph unicode="&#xfd;" glyph-name="yacute" horiz-adv-x="1115" d="M166 0V43H273Q309 43 335 62T362 131V231L75 515H-14V558H629V515H602Q584 515 574 505T563 479Q563 468 569 454T589 427L697 321L744 360Q775 386 790 411T805 457Q805 482 785 498T724
515H679V558H1129V515H1071L699 249V131Q699 82 725 63T789 43H895V0H166ZM425 43H474V269L224 515H158L425 251V43ZM283 624V660Q361 660 409 673T487 710T542 770H833Q833 770 827 755T806 717T761 674T685 642Q656 635 611 632T515 627T417 625T337 624H283ZM481
663Q533 666 566 680T619 712T646 742H582Q573 724 555 709T517 683T481 667V663Z" />
<glyph unicode="&#xfe;" glyph-name="thorn" horiz-adv-x="1249" d="M73 0V43H179Q216 43 242 62T269 131V425Q269 461 243 488T179 515H73V558H802V515H606V492Q606 462 617 449T650 436H932Q980 436 1032 431T1131 410T1206 363T1235 279Q1235 220 1200 185T1104
135T966 120H650Q628 120 617 107T606 64V43H802V0H73ZM331 43H382V515H331V43ZM646 163H732Q749 163 772 169T817 188T853 224T868 278Q868 311 854 333T817 368T772 387T732 393H646Q630 393 618 381T606 352V203Q606 187 618 175T646 163ZM922 169Q951 182 972
213T994 278Q994 313 973 343T922 387L918 384Q931 362 935 335T940 278Q940 250 936 223T918 172L922 169Z" />
<glyph unicode="&#xff;" glyph-name="ydieresis" horiz-adv-x="1115" d="M166 0V43H273Q309 43 335 62T362 131V231L75 515H-14V558H629V515H602Q584 515 574 505T563 479Q563 468 569 454T589 427L697 321L744 360Q775 386 790 411T805 457Q805 482 785 498T724
515H679V558H1129V515H1071L699 249V131Q699 82 725 63T789 43H895V0H166ZM425 43H474V269L224 515H158L425 251V43ZM785 593Q748 593 717 608T668 649T649 706Q649 738 667 764T717 805T785 821Q824 821 855 806T904 764T923 706Q923 675 905 649T855 608T785
593ZM329 593Q292 593 261 608T212 649T193 706Q193 738 211 764T261 805T329 821Q368 821 399 806T448 764T467 706Q467 675 449 649T399 608T329 593ZM299 616L302 619Q288 635 280 657T271 706Q271 733 279 755T302 793L299 796Q269 783 250 759T230 706Q230
678 249 654T299 616ZM755 616L758 619Q744 635 736 657T727 706Q727 733 735 755T758 793L755 796Q725 783 706 759T686 706Q686 678 705 654T755 616Z" />
<glyph unicode="&#x2013;" glyph-name="endash" horiz-adv-x="1010" d="M100 263V343H910V263H100Z" />
<glyph unicode="&#x2014;" glyph-name="emdash" horiz-adv-x="1212" d="M100 263V343H1112V263H100Z" />
<glyph unicode="&#x2018;" glyph-name="quoteleft" horiz-adv-x="524" d="M258 290Q195 290 151 312T83 371T60 449Q60 488 81 527T147 598T261 650T426 670V633Q396 633 354 629T270 614T197 582T159 524Q182 532 206 536T258 541Q315 541 362 524T436 479T464
416Q464 382 437 353T362 307T258 290ZM208 328L211 332Q195 348 185 369T174 416Q174 441 184 462T211 500L208 504Q162 495 144 469T125 416Q125 389 145 365T208 328Z" />
<glyph unicode="&#x2019;" glyph-name="quoteright" horiz-adv-x="524" d="M98 290V327Q128 327 170 331T254 346T327 378T365 436Q343 429 318 424T266 419Q209 419 163 436T88 481T60 544Q60 579 88 607T162 653T266 670Q330 670 374 648T441 590T464 511Q464
472 443 433T377 362T263 310T98 290ZM184 456L187 460Q171 476 161 497T150 544Q150 569 160 590T187 628L184 632Q147 619 124 595T101 544Q101 517 124 494T184 456Z" />
<glyph unicode="&#x201a;" glyph-name="quotesinglbase" horiz-adv-x="595" d="M129 -151V-114Q159 -114 201 -110T285 -95T358 -63T396 -5Q374 -12 349 -17T297 -22Q240 -22 194 -5T119 40T91 103Q91 138 119 166T193 212T297 229Q361 229 405 207T472 148T495
70Q495 31 474 -8T408 -79T294 -131T129 -151ZM215 15L218 19Q202 35 192 56T181 103Q181 128 191 149T218 187L215 191Q178 178 155 154T132 103Q132 76 155 53T215 15Z" />
<glyph unicode="&#x201c;" glyph-name="quotedblleft" horiz-adv-x="988" d="M722 290Q659 290 615 312T547 371T524 449Q524 488 545 527T611 598T725 650T890 670V633Q860 633 818 629T734 614T661 582T623 524Q646 532 670 536T722 541Q779 541 825 524T900
479T928 416Q928 382 900 353T826 307T722 290ZM258 290Q195 290 151 312T83 371T60 449Q60 488 81 527T147 598T261 650T426 670V633Q396 633 354 629T270 614T197 582T159 524Q182 532 206 536T258 541Q315 541 362 524T436 479T464 416Q464 382 437 353T362
307T258 290ZM208 328L211 332Q195 348 185 369T174 416Q174 441 184 462T211 500L208 504Q162 495 144 469T125 416Q125 389 145 365T208 328ZM672 328L675 332Q659 348 649 369T638 416Q638 441 648 462T675 500L672 504Q626 495 608 469T589 416Q589 389 609
365T672 328Z" />
<glyph unicode="&#x201d;" glyph-name="quotedblright" horiz-adv-x="988" d="M562 290V327Q592 327 634 331T718 346T791 378T829 436Q807 429 782 424T730 419Q673 419 627 436T552 481T524 544Q524 579 552 607T626 653T730 670Q794 670 838 648T905 590T928
511Q928 472 907 433T841 362T727 310T562 290ZM98 290V327Q128 327 170 331T254 346T327 378T365 436Q343 429 318 424T266 419Q209 419 163 436T88 481T60 544Q60 579 88 607T162 653T266 670Q330 670 374 648T441 590T464 511Q464 472 443 433T377 362T263 310T98
290ZM184 456L187 460Q171 476 161 497T150 544Q150 569 160 590T187 628L184 632Q147 619 124 595T101 544Q101 517 124 494T184 456ZM648 456L651 460Q635 476 625 497T614 544Q614 569 624 590T651 628L648 632Q611 619 588 595T565 544Q565 517 588 494T648
456Z" />
<glyph unicode="&#x201e;" glyph-name="quotedblbase" horiz-adv-x="1059" d="M593 -151V-114Q623 -114 665 -110T749 -95T822 -63T860 -5Q838 -12 813 -17T761 -22Q704 -22 658 -5T583 40T555 103Q555 138 583 166T657 212T761 229Q825 229 869 207T936 149T959
70Q959 31 938 -8T872 -79T758 -131T593 -151ZM129 -151V-114Q159 -114 201 -110T285 -95T358 -63T396 -5Q374 -12 349 -17T297 -22Q240 -22 194 -5T119 40T91 103Q91 138 119 166T193 212T297 229Q361 229 405 207T472 149T495 70Q495 31 474 -8T408 -79T294 -131T129
-151ZM215 15L218 19Q202 35 192 56T181 103Q181 128 191 149T218 187L215 191Q178 178 155 154T132 103Q132 76 155 53T215 15ZM679 15L682 19Q666 35 656 56T645 103Q645 128 655 149T682 187L679 191Q642 178 619 154T596 103Q596 76 619 53T679 15Z" />
<glyph unicode="&#x2022;" glyph-name="bullet" horiz-adv-x="555" d="M90 181V472H465V181H90ZM157 221H222V432H157V221Z" />
<glyph unicode="&#x2039;" glyph-name="guilsinglleft" horiz-adv-x="353" d="M273 8L0 258V300L273 549V462L161 359L273 255V8ZM235 119V181L100 303L66 272L235 119Z" />
<glyph unicode="&#x203a;" glyph-name="guilsinglright" horiz-adv-x="353" d="M80 8V95L192 198L80 302V549L353 299V257L80 8ZM222 225L256 256L118 383V321L222 225Z" />
</font>
</defs>
</svg>
