<?xml version="1.0" standalone="no"?>
<!DOCTYPE svg PUBLIC "-//W3C//DTD SVG 1.1//EN" "http://www.w3.org/Graphics/SVG/1.1/DTD/svg11.dtd">
<svg xmlns="http://www.w3.org/2000/svg">
<defs >
<font id="SofiaSansExtraCondensed" horiz-adv-x="321" ><font-face
    font-family="Sofia Sans Extra Condensed"
    units-per-em="1000"
    panose-1="0 0 0 0 0 0 0 0 0 0"
    ascent="900"
    descent="-300"
    alphabetic="0" />
<glyph unicode=" " horiz-adv-x="125" />
<glyph unicode="!" horiz-adv-x="162" d="M55 192Q49 192 49 200L44 647Q44 655 50 655H111Q118 655 118 646L113 200Q113 192 107 192H55ZM81 -6Q59 -6 48 5T37 38V46Q37 68 48 79T81 90Q103 90 114 79T125 46V38Q125 16 114 5T81 -6Z" />
<glyph unicode="&quot;" horiz-adv-x="268" d="M176 432Q167 432 167 441V674Q167 683 176 683H222Q231 683 231 674V441Q231 432 222 432H176ZM46 432Q37 432 37 441V674Q37 683 46 683H92Q101 683 101 674V441Q101 432 92 432H46Z" />
<glyph unicode="#" horiz-adv-x="364" d="M80 0Q71 0 71 9V128H27Q18 128 18 136V177Q18 186 27 186H71V427H27Q18 427 18 436V477Q18 485 27 485H71V604Q71 613 80 613H118Q127 613 127 604V485H236V604Q236 613 245 613H284Q292 613 292 604V485H337Q346 485
346 477V436Q346 427 337 427H292V186H337Q346 186 346 177V136Q346 128 337 128H292V9Q292 0 284 0H245Q236 0 236 9V128H127V9Q127 0 118 0H80ZM127 186H236V427H127V186Z" />
<glyph unicode="$" horiz-adv-x="420" d="M207 -6Q131 -6 100 46T75 178Q76 188 83 188H132Q140 188 139 178Q133 117 152 87T210 57Q245 57 263 80T282 154Q282 198 272 226T233 277L154 341Q114 374 97 414T79 511Q80 582 115 621T208 661Q278 661 312 613T338
482Q337 471 329 471H281Q273 471 274 482Q279 538 262 568T209 598Q181 598 163 577T144 513Q144 473 156 446T196 395L272 334Q300 311 316 286T340 230T347 157Q347 81 313 38T207 -6ZM193 -89Q184 -89 184 -80V3L240 7V-80Q240 -89 231 -89H193ZM184 651V733Q184
742 193 742H231Q240 742 240 733V647L184 651Z" />
<glyph unicode="%" horiz-adv-x="587" d="M156 0Q148 0 151 10L269 339L375 651Q377 657 383 657H430Q441 657 435 646L323 335L211 6Q210 0 203 0H156ZM146 324Q97 324 71 355T45 435V548Q45 598 71 629T146 661Q196 661 222 630T248 548V435Q248 386 222 355T146
324ZM146 373Q196 373 196 434V551Q196 582 184 597T146 612Q121 612 109 597T97 551V434Q97 373 146 373ZM441 -6Q392 -6 366 25T339 105V218Q339 268 365 299T441 331Q491 331 517 300T543 218V105Q543 56 517 25T441 -6ZM441 43Q467 43 478 58T490 104V221Q490
252 479 267T441 282Q415 282 404 267T392 221V104Q392 73 403 58T441 43Z" />
<glyph unicode="&amp;" horiz-adv-x="402" d="M333 0Q327 0 324 4L96 390Q80 417 68 455T55 537Q55 598 82 629T161 661Q206 661 229 631T253 546Q253 515 246 486T220 424T168 352L138 394Q167 433 180 466T194 541Q194 573 185 588T157 603Q138 603 126 588T114
538Q114 507 123 478T149 420L393 11Q395 6 395 3T389 0H333ZM157 -6Q96 -6 63 37T30 158Q30 188 35 216T52 271T82 326T124 379L154 338Q130 303 116 275T95 221T89 161Q89 109 109 81T165 52Q227 52 258 125T289 350Q289 358 298 358H340Q348 358 348 350Q348
235 326 156T261 35T157 -6Z" />
<glyph unicode="&apos;" horiz-adv-x="138" d="M46 432Q37 432 37 441V674Q37 683 46 683H92Q101 683 101 674V441Q101 432 92 432H46Z" />
<glyph unicode="(" horiz-adv-x="182" d="M119 -140Q85 -105 68 -79T46 -24T40 51V504Q40 550 45 579T68 635T119 695Q126 700 132 695L161 665Q164 662 164 659T161 653Q138 625 125 605T107 563T102 504V51Q102 15 106 -8T124 -50T161 -98Q164 -101 164 -104T161
-110L132 -140Q126 -145 119 -140Z" />
<glyph unicode=")" horiz-adv-x="182" d="M50 -140L21 -110Q17 -107 17 -104T21 -98Q45 -70 58 -51T75 -8T80 51V504Q80 540 75 562T57 605T21 653Q18 656 18 659T21 665L50 695Q56 701 62 695Q97 661 114 635T136 580T142 504V51Q142 6 137 -23T114 -79T62 -140Q56
-146 50 -140Z" />
<glyph unicode="*" horiz-adv-x="309" d="M102 449L73 472Q68 477 72 482L124 541L48 559Q44 561 43 562T43 568L55 602Q57 609 65 607L136 576L130 656Q130 663 136 663H172Q176 663 177 661T179 656L173 575L245 607Q248 608 251 608T255 602L267 568Q269 564
267 562T262 559L183 540L237 481Q239 480 239 477T236 471L205 450Q201 446 196 452L154 518L112 451Q108 444 102 449Z" />
<glyph unicode="+" horiz-adv-x="420" d="M189 173Q180 173 180 182V271H90Q82 271 82 279V322Q82 331 90 331H180V421Q180 429 189 429H231Q240 429 240 421V331H329Q338 331 338 322V279Q338 271 329 271H240V182Q240 173 231 173H189Z" />
<glyph unicode="," horiz-adv-x="166" d="M25 -130Q17 -130 18 -121L60 90Q62 99 68 99H128Q133 99 135 96T136 88L75 -124Q74 -130 68 -130H25Z" />
<glyph unicode="-" horiz-adv-x="290" d="M46 238Q38 238 38 247V283Q38 292 46 292H244Q253 292 253 283V247Q253 238 244 238H46Z" />
<glyph unicode="." horiz-adv-x="162" d="M81 -6Q60 -6 49 5T37 38V46Q37 68 48 79T81 90Q103 90 114 79T125 46V38Q125 16 114 5T81 -6Z" />
<glyph unicode="/" horiz-adv-x="240" d="M12 0Q4 0 7 9L174 648Q175 655 182 655H229Q236 655 233 645L67 7Q65 0 60 0H12Z" />
<glyph unicode="0" horiz-adv-x="361" d="M181 -6Q111 -6 75 40T39 175V480Q39 569 75 615T181 661Q250 661 286 615T322 480V175Q322 87 286 41T181 -6ZM181 57Q220 57 238 86T256 177V477Q256 539 238 568T181 598Q142 598 124 569T105 477V177Q105 116 123 87T181 57Z" />
<glyph unicode="1" horiz-adv-x="284" d="M31 0Q22 0 22 9V55Q22 64 31 64H120L121 576L33 541Q30 540 28 541T25 547V594Q25 600 31 603L160 656Q165 659 170 659H177Q186 659 186 650V64H267Q276 64 276 55V9Q276 0 267 0H31Z" />
<glyph unicode="2" horiz-adv-x="331" d="M45 0Q36 0 36 9V65Q36 125 50 168T86 243T133 303T180 357T216 417T230 494V513Q230 560 216 579T167 598Q131 598 117 571T104 494Q104 485 95 485H50Q41 485 41 494Q40 577 71 619T168 661Q231 661 263 624T296 508Q296
448 282 407T247 337T200 281T154 227T118 159T104 64H286Q294 64 294 55V9Q294 0 286 0H45Z" />
<glyph unicode="3" horiz-adv-x="337" d="M160 -6Q91 -6 62 39T33 162Q33 171 42 171H87Q96 171 96 162Q96 110 111 84T164 57Q200 57 218 83T237 165V196Q237 249 219 277T151 306H119Q110 306 110 314V358Q110 367 119 367H152Q188 367 208 396T229 481V510Q229
559 213 578T164 598Q127 598 112 572T97 494Q97 485 88 485H43Q34 485 34 494Q34 577 67 619T167 661Q230 661 262 623T294 501Q294 435 276 397T228 342V340Q263 324 283 287T303 179Q303 86 266 40T160 -6Z" />
<glyph unicode="4" horiz-adv-x="340" d="M222 0Q213 0 213 9V133H16Q7 133 7 142V147Q7 150 7 153T9 159L166 648Q169 655 175 655H223Q232 655 229 645L89 197H213L217 423Q217 432 225 432H268Q277 432 277 423V197H317Q325 197 325 189V142Q325 133 317 133H277V9Q277
0 268 0H222Z" />
<glyph unicode="5" horiz-adv-x="323" d="M153 -6Q109 -6 80 13T38 70T26 162Q26 167 28 169T35 171H80Q88 171 88 162Q87 114 101 86T155 57Q194 57 212 88T230 184V231Q230 273 223 299T199 339T155 352Q131 352 104 342T51 316Q46 312 42 314T38 322L59 646Q59
655 68 655H262Q271 655 271 646V600Q271 591 262 591H117L104 396Q124 404 141 408T177 412Q236 412 266 363T296 205Q296 103 260 49T153 -6Z" />
<glyph unicode="6" horiz-adv-x="356" d="M181 -6Q108 -6 74 37T39 175V477Q39 571 74 616T182 661Q241 661 274 627T308 531Q308 522 300 522H255Q246 522 246 531Q246 562 229 580T182 598Q141 598 123 571T105 479V177Q105 113 122 85T179 57Q220 57 238 92T256
209V226Q256 296 243 323T194 351Q172 351 147 338T96 299V361Q128 389 156 401T213 413Q269 413 295 367T322 220Q322 108 287 51T181 -6Z" />
<glyph unicode="7" horiz-adv-x="320" d="M85 0Q81 0 80 3T80 11L234 591H88V506Q88 497 79 497H32Q23 497 23 506V646Q23 655 32 655H306Q314 655 314 646V641Q314 633 313 629L147 6Q144 0 138 0H85Z" />
<glyph unicode="8" horiz-adv-x="351" d="M176 -6Q28 -6 28 174Q28 241 47 285T104 350Q74 372 60 407T46 497Q46 575 80 618T176 661Q238 661 271 618T305 497Q305 442 292 407T247 350Q285 330 304 286T323 174Q323 -6 176 -6ZM176 54Q218 54 237 81T257 167V187Q257
257 237 289T176 322Q134 322 114 290T94 187V167Q94 108 113 81T176 54ZM176 377Q208 377 224 404T241 483V502Q241 553 225 577T176 601Q142 601 126 577T110 502V483Q110 431 127 404T176 377Z" />
<glyph unicode="9" horiz-adv-x="358" d="M175 -6Q110 -6 78 34T46 145Q46 153 55 153H100Q108 153 108 145Q108 106 123 82T174 57Q216 57 234 83T252 176V473Q252 538 235 568T179 598Q138 598 120 568T102 450V433Q102 363 116 334T164 304Q187 304 211 317T262
356V294Q230 266 202 254T146 242Q90 242 63 290T36 439Q36 559 70 610T178 661Q250 661 284 615T318 480V178Q318 84 283 39T175 -6Z" />
<glyph unicode=":" horiz-adv-x="162" d="M81 367Q60 367 49 378T37 411V419Q37 440 48 451T81 463Q103 463 114 452T125 419V411Q125 389 114 378T81 367ZM81 -6Q60 -6 49 5T37 38V46Q37 68 48 79T81 90Q103 90 114 79T125 46V38Q125 16 114 5T81 -6Z" />
<glyph unicode=";" horiz-adv-x="169" d="M18 -130Q11 -130 12 -121L54 90Q56 99 62 99H122Q127 99 129 96T129 88L69 -124Q68 -130 61 -130H18ZM88 367Q66 367 55 378T44 411V419Q44 440 55 451T88 463Q110 463 120 452T131 419V411Q131 389 121 378T88 367Z" />
<glyph unicode="&lt;" horiz-adv-x="420" d="M326 148L90 263Q85 266 85 273V322Q85 329 90 332L325 447Q330 449 332 447T335 440V378Q335 370 330 368L151 298L330 227Q335 224 335 217V155Q335 151 333 149T326 148Z" />
<glyph unicode="=" horiz-adv-x="420" d="M91 343Q82 343 82 351V394Q82 403 91 403H329Q338 403 338 394V351Q338 343 329 343H91ZM91 199Q82 199 82 208V250Q82 259 91 259H329Q338 259 338 250V208Q338 199 329 199H91Z" />
<glyph unicode="&gt;" horiz-adv-x="420" d="M94 148Q90 147 88 149T85 155V217Q85 224 90 227L269 298L90 368Q85 370 85 378V440Q85 445 88 447T95 447L331 332Q335 328 335 322V273Q335 267 331 263L94 148Z" />
<glyph unicode="?" horiz-adv-x="293" d="M106 192Q101 192 101 200V243Q101 277 111 303T136 353T167 401T192 456T202 527Q202 569 190 585T147 601Q110 601 99 573T90 487Q90 477 83 477H35Q31 477 29 480T27 488Q23 578 54 619T150 661Q212 661 239 630T267
531Q267 488 257 454T232 392T202 340T177 293T166 244L165 200Q165 192 158 192H106ZM134 -6Q112 -6 102 5T91 38V46Q91 68 101 79T134 90Q156 90 167 79T178 46V38Q178 16 167 5T134 -6Z" />
<glyph unicode="@" horiz-adv-x="590" d="M294 -185Q211 -185 153 -143T64 -23T33 163V341Q33 449 63 527T152 647T294 689Q378 689 436 647T525 527T556 341V256Q556 182 540 129T494 47T422 18Q391 18 368 34T334 80T327 153L356 418Q345 421 331 424T300 427Q274
427 262 405T244 333L225 151Q221 113 229 95T257 77Q277 77 303 99T351 154L355 90Q320 51 293 34T235 17Q198 17 180 51T168 148L187 340Q195 413 221 449T298 486Q327 486 354 478T410 464Q416 463 416 453L384 166Q380 120 392 99T427 77Q450 77 465 97T487
157T495 256V341Q495 433 473 497T406 596T294 630Q229 630 185 596T117 498T94 341V163Q94 72 117 7T185 -92T295 -126H373Q382 -126 382 -135V-176Q382 -185 373 -185H294Z" />
<glyph unicode="A" horiz-adv-x="345" d="M4 0Q-3 0 -2 10L128 648Q129 655 137 655H207Q215 655 216 648L347 10Q348 0 341 0H286Q280 0 278 6L197 439Q190 474 184 508T172 578H170Q165 543 160 509T147 438L66 6Q65 0 59 0H4ZM84 161L96 224H246L260 161H84Z" />
<glyph unicode="B" horiz-adv-x="363" d="M61 0Q52 0 52 9V646Q52 655 61 655H157Q239 655 277 616T316 495Q316 442 299 405T246 347V345Q289 331 311 290T334 184Q334 94 293 47T172 0H61ZM117 63H170Q220 63 244 93T269 189Q269 251 246 280T173 309H117V63ZM117
370H166Q208 370 229 399T251 486Q251 543 230 567T163 592H117V370Z" />
<glyph unicode="C" horiz-adv-x="392" d="M199 -6Q123 -6 83 43T43 191V464Q43 563 83 612T199 661Q254 661 290 635T341 560T348 444Q346 436 341 436H290Q281 436 283 446Q289 521 269 559T199 598Q155 598 132 565T108 459V196Q108 124 131 91T199 57Q251 57
270 98T285 209Q283 219 292 219H339Q348 219 349 209Q355 106 317 50T199 -6Z" />
<glyph unicode="D" horiz-adv-x="398" d="M61 0Q52 0 52 9V646Q52 655 60 655H158Q261 655 310 591T360 392V293Q360 144 312 72T163 0H61ZM117 63H158Q232 63 263 116T295 288V394Q295 497 262 544T155 592H117V63Z" />
<glyph unicode="E" horiz-adv-x="333" d="M60 0Q52 0 52 9V646Q52 655 59 655H285Q292 655 292 646V601Q292 592 285 592H117V364H271Q278 364 278 355V313Q278 304 271 304H117V63H285Q292 63 292 54V9Q292 0 285 0H60Z" />
<glyph unicode="F" horiz-adv-x="322" d="M58 0Q52 0 52 9V646Q52 655 59 655H285Q292 655 292 646V601Q292 592 285 592H117V354H263Q271 354 271 345V303Q271 294 263 294H117V9Q117 0 111 0H58Z" />
<glyph unicode="G" horiz-adv-x="406" d="M183 -6Q111 -6 77 41T43 185V466Q43 561 83 611T198 661Q277 661 317 606T349 454Q349 446 342 446H290Q282 446 284 454Q291 522 268 560T200 598Q154 598 131 565T108 463V190Q108 119 128 88T195 57Q242 57 266 95T290
212V268H207Q200 268 200 277V321Q200 330 207 330H346Q353 330 353 321V128Q353 84 354 59T358 10Q359 0 352 0H311Q303 0 303 7Q301 20 300 37T298 80H297Q284 40 256 17T183 -6Z" />
<glyph unicode="H" horiz-adv-x="411" d="M59 0Q52 0 52 9V646Q52 655 59 655H110Q117 655 117 646V370H295V646Q295 655 302 655H352Q360 655 360 646V9Q360 0 352 0H302Q295 0 295 9V308H117V9Q117 0 110 0H59Z" />
<glyph unicode="I" horiz-adv-x="168" d="M59 0Q52 0 52 9V646Q52 655 59 655H110Q117 655 117 646V9Q117 0 110 0H59Z" />
<glyph unicode="J" horiz-adv-x="168" d="M22 -138Q12 -142 9 -132L-5 -85Q-6 -80 -5 -77T1 -72Q18 -66 29 -51T46 -6T52 71V646Q52 655 59 655H111Q117 655 117 646V72Q117 2 106 -40T74 -105T22 -138Z" />
<glyph unicode="K" horiz-adv-x="367" d="M59 0Q52 0 52 9V646Q52 655 59 655H110Q117 655 117 646V434Q117 413 117 392T116 350T114 307H115Q128 340 142 371T171 433L279 651Q280 655 287 655H346Q356 655 350 644L216 391L363 11Q368 0 359 0H298Q292 0 290
6L175 316L117 207V9Q117 0 110 0H59Z" />
<glyph unicode="L" horiz-adv-x="302" d="M59 0Q52 0 52 9V646Q52 655 59 655H110Q117 655 117 646V63H279Q287 63 287 54V9Q287 0 279 0H59Z" />
<glyph unicode="M" horiz-adv-x="485" d="M50 0Q44 0 44 9L52 646Q52 655 60 655H138Q146 655 147 648L242 257L338 648Q339 655 347 655H425Q432 655 432 646L441 9Q441 0 434 0H384Q376 0 376 9L372 429Q372 458 372 493T373 560H372Q366 529 358 498T342 437L253
99Q252 92 244 92H240Q233 92 232 99L141 438Q133 468 126 498T113 560H111Q113 528 113 494T113 430L108 9Q108 0 101 0H50Z" />
<glyph unicode="N" horiz-adv-x="412" d="M58 0Q52 0 52 9V646Q52 655 59 655H141Q148 655 149 649L257 265Q265 239 273 207T288 142T301 83H303Q302 103 301 127T300 176T299 225T298 269V647Q298 655 305 655H354Q361 655 361 647V9Q361 0 354 0H272Q267 0
265 5L160 377Q145 430 134 479T114 572H112Q113 543 113 508T114 437T115 372V9Q115 0 109 0H58Z" />
<glyph unicode="O" horiz-adv-x="399" d="M199 -6Q124 -6 84 40T43 179V474Q43 569 83 615T199 661Q274 661 315 615T356 474V179Q356 86 315 40T199 -6ZM199 57Q244 57 267 87T291 184V470Q291 537 268 567T199 598Q155 598 132 568T108 470V184Q108 118 131 88T199 57Z" />
<glyph unicode="P" horiz-adv-x="343" d="M59 0Q52 0 52 9V646Q52 655 59 655H155Q240 655 279 607T319 454Q319 357 279 306T161 254H117V9Q117 0 110 0H59ZM117 316H155Q207 316 230 349T254 452Q254 528 231 560T159 593H117V316Z" />
<glyph unicode="Q" horiz-adv-x="399" d="M274 -180Q246 -180 225 -162T193 -100T183 21Q183 25 186 27T192 29L243 32Q248 32 248 23Q247 -33 251 -63T265 -105T286 -117Q292 -117 297 -116T307 -113Q313 -111 313 -120V-163Q313 -172 306 -174Q301 -176 293
-178T274 -180ZM199 -6Q124 -6 84 40T43 179V474Q43 569 83 615T199 661Q274 661 315 615T356 474V179Q356 86 315 40T199 -6ZM199 57Q244 57 267 87T291 184V470Q291 537 268 567T199 598Q155 598 132 568T108 470V184Q108 118 131 88T199 57Z" />
<glyph unicode="R" horiz-adv-x="372" d="M59 0Q52 0 52 9V646Q52 655 59 655H169Q252 655 290 611T329 477Q329 402 308 359T248 300V299L351 11Q353 0 344 0H289Q284 0 281 6L184 285H117V9Q117 0 110 0H59ZM117 345H171Q221 345 242 376T264 472Q264 537 241
564T168 592H117V345Z" />
<glyph unicode="S" horiz-adv-x="341" d="M167 -6Q113 -6 81 18T37 83T29 178Q30 188 36 188H86Q94 188 93 178Q86 117 106 87T170 57Q209 57 228 80T248 154Q248 198 236 226T194 277L113 341Q72 373 53 413T33 511Q34 582 69 621T168 661Q242 661 276 613T303
482Q303 471 296 471H245Q238 471 239 482Q245 538 226 568T169 598Q137 598 118 577T98 513Q98 473 112 445T155 394L233 333Q262 311 279 287T305 231T313 157Q313 81 278 38T167 -6Z" />
<glyph unicode="T" horiz-adv-x="324" d="M137 0Q130 0 130 9V592H25Q17 592 17 601V646Q17 655 25 655H300Q307 655 307 646V601Q307 592 300 592H195V9Q195 0 187 0H137Z" />
<glyph unicode="U" horiz-adv-x="401" d="M200 -6Q121 -6 85 45T48 199V647Q48 655 55 655H106Q113 655 113 647V200Q113 126 133 92T200 57Q247 57 267 91T288 200V647Q288 655 295 655H346Q353 655 353 647V199Q353 96 315 45T200 -6Z" />
<glyph unicode="V" horiz-adv-x="365" d="M144 0Q139 0 137 6L11 645Q10 655 17 655H71Q78 655 79 649L159 218Q165 183 170 148T181 77H183Q188 112 194 147T206 218L286 648Q287 655 293 655H348Q355 655 354 645L228 7Q226 0 221 0H144Z" />
<glyph unicode="W" horiz-adv-x="526" d="M127 0Q122 0 121 7L14 645Q13 655 19 655H72Q79 655 80 648L143 246Q147 220 150 190T156 131T161 80H163Q168 113 173 146T184 213L235 508L214 636Q213 645 220 645H272Q280 645 281 637L347 214Q352 180 356 147T364
80H366Q368 103 370 129T376 186T384 246L445 648Q446 655 452 655H506Q513 655 512 645L407 7Q406 0 400 0H333Q326 0 325 7L284 272Q279 302 275 332T268 392H266Q262 362 257 333T247 273L199 7Q198 3 196 2T192 0H127Z" />
<glyph unicode="X" horiz-adv-x="340" d="M7 0Q-1 0 2 11L130 338L10 644Q7 655 14 655H76Q81 655 83 651L135 501Q144 474 153 447T171 392H172Q180 420 189 447T209 502L261 650Q263 655 268 655H327Q336 655 331 644L212 336L338 10Q343 0 334 0H272Q267 0
265 5L207 167Q197 196 188 224T170 281H169Q161 253 152 225T132 167L74 6Q72 0 67 0H7Z" />
<glyph unicode="Y" horiz-adv-x="343" d="M146 0Q139 0 139 9V224L9 644Q6 655 14 655H73Q79 655 80 649L141 423Q149 395 156 366T171 307H172Q180 336 188 365T203 424L264 649Q266 655 271 655H328Q336 655 334 644L204 225V9Q204 0 198 0H146Z" />
<glyph unicode="Z" horiz-adv-x="332" d="M16 0Q10 0 10 7V10Q10 15 13 21L191 488Q201 514 211 539T231 591V593Q212 592 194 592T156 592H36Q29 592 29 601V646Q29 655 36 655H313Q320 655 320 648V646Q320 643 320 640T318 634L131 150Q123 128 115 107T97
64V62Q120 63 136 63T171 63H297Q304 63 304 54V9Q304 0 297 0H16Z" />
<glyph unicode="[" horiz-adv-x="166" d="M49 -140Q40 -140 40 -131V687Q40 695 49 695H162Q171 695 171 687V645Q171 636 162 636H101V-81H162Q171 -81 171 -90V-131Q171 -140 162 -140H49Z" />
<glyph unicode="\" horiz-adv-x="241" d="M182 0Q174 0 174 7L7 645Q4 655 13 655H57Q66 655 68 648L234 10Q237 0 229 0H182Z" />
<glyph unicode="]" horiz-adv-x="166" d="M4 -140Q-4 -140 -4 -131V-90Q-4 -81 4 -81H66V636H4Q-4 636 -4 645V687Q-4 695 4 695H118Q126 695 126 687V-131Q126 -140 118 -140H4Z" />
<glyph unicode="^" horiz-adv-x="311" d="M31 350Q23 350 26 360L127 677Q130 683 135 683H177Q182 683 185 677L285 361Q288 350 280 350H232Q226 350 224 356L155 609L87 356Q86 350 79 350H31Z" />
<glyph unicode="_" horiz-adv-x="316" d="M14 -118Q5 -118 5 -109V-73Q5 -64 14 -64H302Q311 -64 311 -73V-109Q311 -118 302 -118H14Z" />
<glyph unicode="`" horiz-adv-x="191" d="M115 557Q108 557 103 563L32 682Q29 687 30 690T36 693H87Q94 693 97 686L160 566Q162 562 161 560T155 557H115Z" />
<glyph unicode="a" horiz-adv-x="316" d="M222 0Q216 0 215 9Q213 27 211 54T209 101L205 106V358Q205 399 196 414T157 430Q129 430 118 415T110 364Q110 355 102 355H58Q48 355 47 367Q42 426 70 459T158 492Q219 492 244 463T270 360V120Q270 80 271 52T273
10Q274 0 268 0H222ZM115 -6Q76 -6 55 28T33 123Q33 191 63 232T161 281L213 287V234L168 228Q133 224 116 199T98 128Q98 95 108 76T135 57Q152 57 169 70T215 121L218 63Q188 26 166 10T115 -6Z" />
<glyph unicode="b" horiz-adv-x="338" d="M175 -6Q141 -6 111 1T46 13V674Q46 683 53 683H104Q111 683 111 674V65Q125 63 140 60T169 57Q203 57 218 80T233 166V366Q233 400 223 415T191 430Q169 430 146 411T99 359L94 418Q121 453 151 472T213 492Q257 492
277 463T298 370V163Q298 71 269 33T175 -6Z" />
<glyph unicode="c" horiz-adv-x="326" d="M169 -6Q102 -6 70 34T38 159V328Q38 411 70 451T169 492Q210 492 238 475T279 426T289 349Q289 337 281 337H234Q230 337 229 339T228 346Q230 385 215 407T169 430Q134 430 119 407T103 326V160Q103 105 118 81T169
57Q200 57 214 77T226 139Q226 150 234 150H281Q289 150 289 141Q289 68 260 31T169 -6Z" />
<glyph unicode="d" horiz-adv-x="338" d="M127 -6Q84 -6 62 25T40 122V348Q40 419 68 455T148 492Q177 492 199 485T238 467V405Q192 430 163 430Q135 430 120 409T105 339V122Q105 86 115 72T148 57Q169 57 191 74T238 126L241 67Q213 31 187 13T127 -6ZM245
0Q239 0 237 9Q235 30 234 58T232 101L227 107V674Q227 683 235 683H285Q292 683 292 674V120Q292 78 293 52T295 11Q296 0 289 0H245Z" />
<glyph unicode="e" horiz-adv-x="327" d="M169 -6Q102 -6 70 36T38 166V333Q38 416 70 454T165 492Q227 492 259 453T292 335V236Q292 228 285 228H103V167Q103 109 118 83T169 57Q199 57 213 73T225 123Q223 133 231 133H279Q286 133 286 125Q288 62 258 28T169
-6ZM103 289H227V334Q227 385 213 407T165 430Q133 430 118 407T103 334V289Z" />
<glyph unicode="f" horiz-adv-x="240" d="M76 0Q69 0 69 9V424H25Q17 424 17 432V477Q17 486 25 486H69V558Q69 624 92 656T165 689Q187 689 204 686T231 677Q239 671 239 663V621Q239 617 236 615T227 616Q217 620 205 623T179 626Q155 626 145 611T134 557V486H212Q220
486 220 477V432Q220 424 212 424H134V9Q134 0 126 0H76Z" />
<glyph unicode="g" horiz-adv-x="325" d="M161 -191Q89 -191 56 -161T23 -70Q23 -27 42 3T96 53L139 30Q117 19 103 -5T88 -59Q88 -96 105 -112T163 -129Q207 -129 224 -111T242 -53Q242 -18 229 -1T185 20L119 26Q82 29 62 52T42 109Q42 135 53 153T79 183T106
202L146 174Q126 167 114 155T102 124Q102 108 111 98T140 85L207 77Q258 72 282 40T306 -57Q306 -125 272 -158T161 -191ZM167 162Q106 162 78 201T50 327Q50 414 77 453T167 492Q229 492 256 453T283 327Q283 240 256 201T167 162ZM167 223Q199 223 209 246T220
327Q220 385 210 408T167 431Q136 431 125 408T114 327Q114 269 125 246T167 223ZM245 447L195 471Q197 517 200 550T207 606Q208 616 214 616H257Q265 616 263 607Q258 578 253 541T245 447Z" />
<glyph unicode="h" horiz-adv-x="347" d="M243 0Q236 0 236 9V366Q236 399 226 414T194 430Q174 430 152 414T104 365L99 419Q128 455 156 473T218 492Q259 492 280 462T301 370V9Q301 0 294 0H243ZM53 0Q46 0 46 9V674Q46 683 53 683H104Q111 683 111 674V9Q111
0 104 0H53Z" />
<glyph unicode="i" horiz-adv-x="157" d="M53 0Q46 0 46 9V477Q46 486 53 486H104Q111 486 111 477V9Q111 0 104 0H53ZM79 575Q57 575 46 586T35 618V627Q35 648 46 659T79 671Q101 671 111 660T122 627V618Q122 597 112 586T79 575Z" />
<glyph unicode="j" horiz-adv-x="143" d="M32 -188Q30 -189 27 -189T22 -186L-7 -145Q-14 -138 -7 -133Q21 -108 30 -63T39 56V477Q39 486 46 486H97Q104 486 104 477V50Q104 -10 98 -55T77 -133T32 -188ZM329 575Q307 575 296 586T285 618V627Q285 648 296 659T329
671Q351 671 361 660T372 627V618Q372 597 362 586T329 575Z" />
<glyph unicode="k" horiz-adv-x="313" d="M52 0Q46 0 46 9V674Q46 683 53 683H104Q111 683 111 674V372Q111 353 111 337T111 304T110 268H111Q122 294 134 316T159 363L223 482Q226 486 231 486H290Q299 486 295 476L193 305L305 11Q308 0 300 0H242Q237 0 235
6L151 238L111 167V9Q111 0 105 0H52Z" />
<glyph unicode="l" horiz-adv-x="157" d="M53 0Q46 0 46 9V674Q46 683 53 683H104Q111 683 111 674V9Q111 0 104 0H53Z" />
<glyph unicode="m" horiz-adv-x="515" d="M53 0Q46 0 46 9V366Q46 408 46 434T43 475Q42 486 49 486H95Q100 486 101 477Q103 464 103 452T105 427Q131 458 156 475T213 492Q240 492 259 476T285 428Q310 458 335 475T392 492Q428 492 448 464T469 383V9Q469 0
462 0H411Q404 0 404 9V374Q404 403 395 416T367 430Q349 430 330 416T290 374V9Q290 0 283 0H232Q225 0 225 9V374Q225 403 216 416T188 430Q170 430 151 416T111 374V9Q111 0 104 0H53Z" />
<glyph unicode="n" horiz-adv-x="347" d="M243 0Q236 0 236 9V366Q236 399 226 414T194 430Q174 430 152 414T104 365L99 419Q128 455 156 473T218 492Q259 492 280 462T301 370V9Q301 0 294 0H243ZM53 0Q46 0 46 9V366Q46 408 46 434T43 475Q42 486 49 486H92Q100
486 101 477Q104 458 105 429T107 385L111 379V9Q111 0 104 0H53Z" />
<glyph unicode="o" horiz-adv-x="338" d="M169 -6Q102 -6 70 33T38 155V330Q38 413 70 452T169 492Q236 492 268 453T300 330V155Q300 73 268 34T169 -6ZM169 57Q204 57 219 80T235 156V328Q235 382 220 406T169 430Q134 430 119 406T103 328V156Q103 103 119 80T169 57Z" />
<glyph unicode="p" horiz-adv-x="336" d="M196 -6Q171 -6 146 2T102 21L101 82Q118 73 137 65T179 57Q205 57 218 80T231 157V366Q231 401 222 415T192 430Q168 430 145 410T98 358L93 416Q121 452 149 472T212 492Q254 492 275 464T296 372V155Q296 74 271 34T196
-6ZM53 -185Q46 -185 46 -176V374Q46 410 46 434T43 476Q42 486 49 486H92Q100 486 101 477Q103 467 104 449T106 411L111 387V-176Q111 -185 104 -185H53Z" />
<glyph unicode="q" horiz-adv-x="338" d="M233 -185Q227 -185 227 -176V421Q214 424 197 427T167 430Q134 430 120 406T105 332V119Q105 85 114 71T146 57Q168 57 192 76T239 127L244 69Q216 33 186 14T125 -6Q81 -6 61 23T40 114V334Q40 420 72 456T159 492Q194
492 225 485T292 474V-176Q292 -185 286 -185H233Z" />
<glyph unicode="r" horiz-adv-x="242" d="M53 0Q46 0 46 9V366Q46 408 46 434T43 475Q42 486 49 486H95Q100 486 101 477Q103 457 105 429T107 385L111 379V9Q111 0 104 0H53ZM105 352L101 415Q113 434 128 451T162 480T202 492Q211 492 217 491Q221 490 222 487T224
479Q224 462 224 447T221 415Q220 408 214 409Q209 411 204 411T191 412Q170 412 146 396T105 352Z" />
<glyph unicode="s" horiz-adv-x="293" d="M147 -6Q86 -6 58 32T35 143Q35 151 42 151H93Q99 151 99 144Q98 96 108 76T149 56Q200 56 200 122Q200 148 192 165T163 199L97 251Q66 275 52 305T38 379Q38 433 66 462T149 492Q205 492 233 458T256 365Q256 357 249
357H199Q197 357 195 358T193 367Q195 397 184 414T147 431Q101 431 101 379Q101 354 110 337T139 303L204 251Q238 223 250 196T263 125Q263 61 234 28T147 -6Z" />
<glyph unicode="t" horiz-adv-x="253" d="M163 -6Q112 -6 90 25T68 129V424H25Q17 424 17 432V477Q17 486 25 486H70L78 608Q79 616 86 616H127Q133 616 133 608V486H223Q231 486 231 477V432Q231 424 223 424H133V131Q133 90 143 73T177 56Q190 56 202 59T224
66Q232 69 232 61V15Q232 6 225 4Q212 0 196 -3T163 -6Z" />
<glyph unicode="u" horiz-adv-x="339" d="M129 -6Q83 -6 65 23T46 116V477Q46 486 53 486H104Q111 486 111 477V117Q111 81 119 69T147 57Q173 57 196 77T242 131L248 75Q222 40 192 17T129 -6ZM246 0Q240 0 238 9Q236 30 235 58T233 101L228 107V477Q228 486
236 486H286Q293 486 293 477V120Q293 78 294 52T296 11Q297 0 290 0H246Z" />
<glyph unicode="v" horiz-adv-x="318" d="M125 0Q120 0 118 7L20 476Q18 486 25 486H81Q88 486 89 479L138 199Q144 167 149 135T158 70H160Q163 102 168 135T179 200L231 479Q232 486 238 486H294Q301 486 298 475L201 7Q200 0 192 0H125Z" />
<glyph unicode="w" horiz-adv-x="462" d="M116 0Q109 0 107 8L21 476Q20 486 26 486H79Q86 486 87 477L133 201Q139 169 143 135T150 69H153Q158 101 163 134T173 199L204 368L187 467Q186 477 192 477H243Q249 477 250 470L293 200Q298 167 301 134T308 69H311Q316
102 320 136T329 203L375 477Q377 486 382 486H435Q442 486 441 476L354 8Q353 0 345 0H278Q271 0 269 6L249 126Q244 157 240 190T233 268H229Q225 224 221 191T211 125L193 7Q192 0 185 0H116Z" />
<glyph unicode="x" horiz-adv-x="310" d="M17 0Q13 0 12 3T12 11L115 251L20 476Q18 480 19 483T24 486H78Q86 486 88 480L124 382Q132 363 139 341T154 298H155Q163 318 170 340T185 382L222 481Q225 486 231 486H285Q289 486 290 483T289 476L193 253L298 11Q299
7 298 4T293 0H237Q231 0 228 5L186 117Q179 138 171 161T154 204H153Q146 184 138 161T122 117L79 5Q77 0 69 0H17Z" />
<glyph unicode="y" horiz-adv-x="317" d="M91 -185Q84 -185 86 -174L129 6L18 476Q15 486 22 486H78Q85 486 86 479L134 242Q142 209 147 174T158 106H160Q165 139 171 174T185 243L231 479Q232 486 239 486H293Q296 486 298 483T298 475L150 -178Q149 -185 142 -185H91Z" />
<glyph unicode="z" horiz-adv-x="293" d="M25 0Q18 0 18 7V9Q18 18 21 22L155 338Q164 360 172 380T189 423V424Q173 424 158 424T126 424H40Q33 424 33 432V477Q33 486 40 486H268Q275 486 275 480V478Q275 471 272 465L138 148Q129 127 120 106T103 64V63Q120
63 133 63T163 63H259Q266 63 266 54V9Q266 0 259 0H25Z" />
<glyph unicode="{" horiz-adv-x="172" d="M165 -142Q125 -142 102 -131T68 -88T58 4V183Q58 216 51 232T27 248H16Q7 248 7 257V297Q7 306 16 306H27Q44 306 51 322T58 372V551Q58 612 68 643T101 685T165 697Q174 697 174 688V647Q174 639 165 639Q146 639 136
632T123 608T119 559V371Q119 334 109 311T80 277Q99 267 109 244T119 184V-4Q119 -35 123 -52T137 -77T165 -84Q174 -84 174 -92V-133Q174 -142 165 -142Z" />
<glyph unicode="|" horiz-adv-x="174" d="M63 -185Q54 -185 54 -176V821Q54 830 63 830H111Q119 830 119 821V-176Q119 -185 111 -185H63Z" />
<glyph unicode="}" horiz-adv-x="172" d="M7 -142Q-1 -142 -1 -133V-92Q-1 -84 7 -84Q26 -84 36 -77T50 -53T54 -4V184Q54 220 63 243T92 277Q73 287 64 310T54 371V559Q54 591 50 608T36 632T7 639Q-1 639 -1 647V688Q-1 697 7 697Q47 697 70 686T104 643T114
551V372Q114 338 121 322T146 306H156Q165 306 165 297V257Q165 248 156 248H146Q129 248 122 232T114 183V4Q114 -56 104 -87T71 -130T7 -142Z" />
<glyph unicode="~" horiz-adv-x="420" d="M263 256Q240 256 225 263T194 278T155 285Q137 285 119 278T92 265Q84 261 84 271V313Q84 321 89 323Q98 329 114 337T156 345Q181 345 196 338T227 324T264 316Q282 316 300 324T328 339Q336 341 336 333V292Q336 284
331 280Q322 273 305 265T263 256Z" />
<glyph unicode="&#xa0;" horiz-adv-x="125" />
<glyph unicode="&#xa1;" horiz-adv-x="162" d="M55 294H107Q113 294 113 286L118 -160Q118 -169 111 -169H50Q44 -169 44 -161L49 286Q49 294 55 294ZM81 492Q103 492 114 481T125 448V440Q125 418 114 407T81 396Q59 396 48 407T37 440V448Q37 470 48 481T81 492Z" />
<glyph unicode="&#xa2;" horiz-adv-x="420" d="M184 528V616Q184 625 193 625H231Q240 625 240 616V532L184 528ZM193 -38Q184 -38 184 -29V57L240 54V-29Q240 -38 231 -38H193ZM215 44Q148 44 116 84T84 209V378Q84 461 116 501T215 542Q256 542 284 525T325
476T335 399Q335 387 327 387H280Q276 387 275 389T274 396Q276 435 261 457T215 480Q180 480 165 457T149 376V210Q149 155 164 131T215 107Q246 107 260 127T272 189Q272 200 280 200H327Q335 200 335 191Q335 118 306 81T215 44Z" />
<glyph unicode="&#xa3;" horiz-adv-x="420" d="M95 0Q86 0 86 9V43Q86 48 89 54Q102 79 108 105T114 163V495Q114 578 141 619T229 661Q268 661 292 645T328 592T340 495Q340 486 331 486H289Q280 486 280 495Q280 526 277 549T264 585T231 598Q203 598 191 578T179
492V175Q179 131 172 106T154 64H345Q353 64 353 55V9Q353 0 345 0H95ZM75 313Q67 313 67 322V363Q67 372 75 372H266Q274 372 274 363V322Q274 313 266 313H75Z" />
<glyph unicode="&#xa4;" horiz-adv-x="420" d="M103 121Q97 115 92 120L64 148Q59 153 64 161L107 212Q100 232 97 257T93 314Q93 345 96 370T107 416L64 467Q59 475 64 480L91 507Q97 513 103 507L136 466Q164 497 210 497Q256 497 284 466L317 507Q322 514 328
508L356 480Q361 475 356 467L313 416Q320 396 323 371T327 314Q327 283 324 258T313 212L356 161Q361 153 356 148L328 120Q323 115 317 121L284 162Q256 131 210 131Q164 131 136 162L103 121ZM210 185Q245 185 258 217T271 314Q271 379 258 411T210 443Q175
443 162 411T149 314Q149 249 162 217T210 185Z" />
<glyph unicode="&#xa5;" horiz-adv-x="420" d="M184 0Q178 0 178 9V224L56 644Q53 655 62 655H119Q126 655 127 648L184 421Q192 393 197 365T210 307H211Q218 336 224 364T237 421L294 649Q296 655 302 655H360Q367 655 364 644L243 225V9Q243 0 237 0H184ZM114
112Q105 112 105 120V155Q105 164 114 164H307Q316 164 316 155V120Q316 112 307 112H114ZM114 225Q105 225 105 234V269Q105 278 114 278H307Q316 278 316 269V234Q316 225 307 225H114Z" />
<glyph unicode="&#xa6;" horiz-adv-x="174" d="M63 392Q54 392 54 401V821Q54 830 63 830H111Q119 830 119 821V401Q119 392 111 392H63ZM63 -185Q54 -185 54 -176V244Q54 253 63 253H111Q119 253 119 244V-176Q119 -185 111 -185H63Z" />
<glyph unicode="&#xa7;" horiz-adv-x="293" d="M175 115L150 159Q179 168 195 193T211 253Q211 285 201 309T165 359L88 438Q61 465 50 493T39 560Q39 620 68 652T151 684Q204 684 234 651T264 558Q264 550 258 550H209Q203 550 203 558Q203 622 152 622Q105 622
105 563Q105 538 112 520T138 481L225 390Q251 363 263 330T275 256Q275 202 249 164T175 115ZM142 -118Q89 -118 59 -85T29 9Q29 17 35 17H84Q91 17 91 8Q91 -55 141 -55Q189 -55 189 4Q189 30 182 48T155 86L69 176Q43 205 31 238T18 311Q18 365 45 402T118 451L143
408Q115 398 99 373T82 313Q82 282 92 258T128 208L205 128Q232 101 243 73T255 6Q255 -53 226 -85T142 -118Z" />
<glyph unicode="&#xa8;" horiz-adv-x="254" d="M71 578Q51 578 41 589T30 619V628Q30 648 40 658T71 669Q91 669 101 659T112 628V619Q112 600 102 589T71 578ZM183 578Q164 578 154 589T143 619V628Q143 648 153 658T183 669Q204 669 214 659T224 628V619Q224
600 214 589T183 578Z" />
<glyph unicode="&#xa9;" horiz-adv-x="420" d="M210 -6Q151 -6 113 17T57 89T39 208V396Q39 468 57 515T113 586T210 610Q270 610 307 587T363 516T381 396V208Q381 137 363 89T308 18T210 -6ZM210 40Q272 40 303 77T334 205V399Q334 489 303 526T210 564Q148
564 117 527T86 399V205Q86 115 117 78T210 40ZM211 126Q168 126 149 154T130 230V369Q130 417 149 446T211 476Q255 476 273 446T292 363Q292 359 291 357T286 354H253Q247 354 247 363Q247 401 239 417T211 433Q174 433 174 367V234Q174 168 211 168Q230 168
238 185T247 239Q247 248 253 248H286Q289 248 290 246T292 239Q292 185 274 156T211 126Z" />
<glyph unicode="&#xaa;" horiz-adv-x="238" d="M89 325Q64 325 48 348T32 417Q32 469 57 493T122 521L152 525V567Q152 592 146 602T121 613Q85 613 90 573Q91 565 85 565H53Q44 565 43 574Q39 609 59 635T122 661Q151 661 168 652T194 623T202 573V416Q202 393
203 374T204 341Q204 332 199 332H166Q159 332 159 338Q158 344 157 351T155 366Q141 349 125 337T89 325ZM43 212Q36 212 36 221V256Q36 265 43 265H200Q207 265 207 256V221Q207 212 200 212H43ZM106 373Q116 373 127 381T152 405V483L123 479Q104 476 93 461T82
418Q82 392 88 383T106 373Z" />
<glyph unicode="&#xab;" horiz-adv-x="332" d="M240 93Q236 93 233 99L156 257Q154 261 156 268L233 426Q236 432 240 432H291Q295 432 296 430T296 422L221 262L295 104Q300 93 291 93H240ZM119 93Q115 93 112 99L36 257Q34 261 36 268L112 426Q115 432 120 432H170Q174
432 175 430T175 422L101 262L175 104Q178 93 170 93H119Z" />
<glyph unicode="&#xac;" horiz-adv-x="420" d="M282 147Q273 147 273 156V271H93Q84 271 84 279V322Q84 331 93 331H327Q336 331 336 322V156Q336 147 327 147H282Z" />
<glyph unicode="&#xad;" horiz-adv-x="290" d="M46 238Q38 238 38 247V283Q38 292 46 292H244Q253 292 253 283V247Q253 238 244 238H46Z" />
<glyph unicode="&#xae;" horiz-adv-x="347" d="M173 308Q106 308 70 352T34 480V525Q34 609 70 653T173 697Q241 697 277 653T313 525V480Q313 397 277 353T173 308ZM173 348Q223 348 247 380T271 478V527Q271 594 247 626T173 658Q141 658 119 644T87 601T76
527V478Q76 434 86 405T119 362T173 348ZM127 392Q123 392 123 396V609Q123 615 128 615H167Q199 615 214 599T230 549Q230 524 223 510T202 487L232 397Q234 392 230 392H203Q200 392 198 396L171 479H156V396Q156 392 152 392H127ZM156 508H170Q196 508 196 538V555Q196
571 190 578T170 585H156V508Z" />
<glyph unicode="&#xaf;" horiz-adv-x="199" d="M38 572Q30 572 30 580V625Q30 633 38 633H161Q169 633 169 625V580Q169 572 161 572H38Z" />
<glyph unicode="&#xb0;" horiz-adv-x="239" d="M119 416Q72 416 50 446T28 523V582Q28 629 50 659T119 689Q167 689 188 659T210 582V523Q210 477 189 447T119 416ZM119 461Q144 461 153 477T163 523V582Q163 611 154 627T119 644Q94 644 85 628T76 582V523Q76
494 85 478T119 461Z" />
<glyph unicode="&#xb1;" horiz-adv-x="420" d="M189 173Q180 173 180 182V271H91Q82 271 82 279V322Q82 331 91 331H180V421Q180 429 189 429H232Q240 429 240 421V331H330Q338 331 338 322V279Q338 271 330 271H240V182Q240 173 232 173H189ZM94 67Q85 67 85
76V118Q85 127 94 127H326Q335 127 335 118V76Q335 67 326 67H94Z" />
<glyph unicode="&#xb2;" horiz-adv-x="256" d="M44 354Q35 354 35 363V401Q35 446 48 476T79 529T117 569T149 609T162 662V671Q162 696 155 708T128 721Q107 721 99 706T92 658Q92 649 83 649H49Q40 649 40 658Q36 712 59 743T130 775Q177 775 197 749T217 669Q217
625 205 598T174 551T138 513T108 470T95 408H210Q214 408 216 406T219 399V363Q219 354 210 354H44Z" />
<glyph unicode="&#xb3;" horiz-adv-x="256" d="M124 350Q91 350 72 363T43 403T34 465Q34 474 43 474H77Q86 474 86 465Q86 436 94 421T124 405Q146 405 156 421T167 465V481Q167 510 158 525T125 540H99Q90 540 90 549V585Q90 594 99 594H121Q141 594 151 609T162
656V670Q162 695 153 708T124 721Q100 721 93 704T86 658Q86 649 77 649H43Q34 649 34 658Q31 714 54 744T126 775Q172 775 194 749T217 668Q217 634 207 610T179 571V570Q202 557 212 533T222 471Q222 413 197 382T124 350Z" />
<glyph unicode="&#xb4;" horiz-adv-x="191" d="M35 557Q31 557 30 559T31 566L94 686Q97 693 104 693H154Q159 693 160 690T159 682L88 563Q84 557 75 557H35Z" />
<glyph unicode="&#xb5;" horiz-adv-x="340" d="M53 -185Q46 -185 46 -176V477Q46 486 53 486H104Q111 486 111 477V130Q111 95 121 76T155 57Q175 57 192 71T229 110V477Q229 486 236 486H286Q294 486 294 477V93Q294 72 298 64T313 55Q318 55 322 56T331 58Q337
59 337 51V7Q337 2 330 -1Q323 -4 313 -5T295 -6Q270 -6 255 6T235 49V50Q216 25 198 10T154 -6Q138 -6 127 2T109 19V-176Q109 -185 102 -185H53Z" />
<glyph unicode="&#xb6;" horiz-adv-x="368" d="M132 -185Q123 -185 123 -176V314H107Q60 314 37 343T14 437V560Q14 624 37 653T107 683H319Q326 683 326 674V-176Q326 -185 317 -185H274Q265 -185 265 -176V619H184V-176Q184 -185 175 -185H132Z" />
<glyph unicode="&#xb7;" horiz-adv-x="172" d="M89 214Q68 214 57 225T45 258V266Q45 288 56 299T89 310Q111 310 122 299T133 266V258Q133 236 122 225T89 214Z" />
<glyph unicode="&#xb8;" horiz-adv-x="163" d="M75 -191Q62 -191 53 -190T36 -187Q30 -185 30 -179V-148Q30 -140 36 -142Q40 -143 45 -143T59 -144Q72 -144 77 -138T83 -115V-102Q83 -85 76 -79T57 -72H45Q40 -72 40 -65Q40 -61 40 -56T41 -47L60 24Q62 29 67
29H100Q106 29 105 20L86 -38H90Q109 -38 121 -51T133 -96V-117Q133 -156 119 -173T75 -191Z" />
<glyph unicode="&#xb9;" horiz-adv-x="256" d="M48 354Q39 354 39 363V399Q39 408 48 408H103V701L50 681Q41 678 41 686V726Q41 734 47 737L134 769Q137 770 139 770T145 771H149Q158 771 158 762V408H207Q216 408 216 399V363Q216 354 207 354H48Z" />
<glyph unicode="&#xba;" horiz-adv-x="240" d="M120 325Q77 325 55 350T33 427V559Q33 609 55 635T120 661Q163 661 185 635T207 559V427Q207 376 185 351T120 325ZM45 212Q38 212 38 221V256Q38 265 45 265H195Q202 265 202 256V221Q202 212 195 212H45ZM120
373Q139 373 148 385T157 422V564Q157 589 148 601T120 613Q101 613 92 601T83 564V422Q83 397 92 385T120 373Z" />
<glyph unicode="&#xbb;" horiz-adv-x="332" d="M162 93Q153 93 158 104L232 262L158 422Q156 427 157 429T162 432H213Q217 432 220 426L297 268Q299 261 297 257L220 99Q217 93 213 93H162ZM42 93Q32 93 37 104L111 262L37 422Q35 427 36 429T41 432H92Q96 432
99 426L176 268Q178 261 176 257L100 99Q97 93 92 93H42Z" />
<glyph unicode="&#xbc;" horiz-adv-x="588" d="M48 240Q39 240 39 249V285Q39 294 48 294H103V587L50 567Q41 564 41 572V612Q41 620 47 623L134 655Q137 656 139 656T145 657H149Q158 657 158 648V294H207Q216 294 216 285V249Q216 240 207 240H48ZM184 -28Q176
-28 178 -17L288 349L388 676Q390 683 396 683H440Q449 683 446 674L338 327L237 -22Q234 -28 227 -28H184ZM495 0Q486 0 486 9V81H358Q349 81 349 90V95Q349 99 350 102T352 110L452 405Q455 415 461 415H500Q504 415 506 413T506 404L417 135H488L490 271Q490
280 499 280H527Q535 280 535 271V135H563Q568 135 568 126V90Q568 81 563 81H535V9Q535 0 526 0H495Z" />
<glyph unicode="&#xbd;" horiz-adv-x="618" d="M48 240Q39 240 39 249V285Q39 294 48 294H103V587L50 567Q41 564 41 572V612Q41 620 47 623L134 655Q137 656 139 656T145 657H149Q158 657 158 648V294H207Q216 294 216 285V249Q216 240 207 240H48ZM184 -28Q176
-28 178 -17L288 349L388 676Q390 683 396 683H440Q449 683 446 674L338 327L237 -22Q234 -28 227 -28H184ZM406 0Q397 0 397 9V47Q397 92 410 122T441 175T479 215T511 255T524 308V317Q524 342 517 354T490 367Q469 367 461 352T454 304Q454 295 445 295H411Q402
295 402 304Q398 358 421 389T492 421Q539 421 559 395T579 315Q579 271 567 244T536 197T500 159T470 116T457 54H572Q576 54 578 52T581 45V9Q581 0 572 0H406Z" />
<glyph unicode="&#xbe;" horiz-adv-x="582" d="M124 236Q91 236 72 249T43 289T34 351Q34 360 43 360H77Q86 360 86 351Q86 322 94 307T124 291Q146 291 156 307T167 351V367Q167 396 158 411T125 426H99Q90 426 90 435V471Q90 480 99 480H121Q141 480 151 495T162
542V556Q162 581 153 594T124 607Q100 607 93 590T86 544Q86 535 77 535H43Q34 535 34 544Q31 600 54 630T126 661Q172 661 194 635T217 554Q217 520 207 496T179 457V456Q202 443 212 419T222 357Q222 299 197 268T124 236ZM178 -28Q170 -28 172 -17L282 349L382
676Q384 683 390 683H434Q443 683 440 674L332 327L231 -22Q228 -28 221 -28H178ZM489 0Q480 0 480 9V81H352Q343 81 343 90V95Q343 99 344 102T346 110L446 405Q449 415 455 415H494Q498 415 500 413T500 404L411 135H482L484 271Q484 280 493 280H521Q529 280
529 271V135H557Q562 135 562 126V90Q562 81 557 81H529V9Q529 0 520 0H489Z" />
<glyph unicode="&#xbf;" horiz-adv-x="290" d="M187 294Q192 294 192 286V243Q192 209 182 183T157 133T127 85T101 30T91 -41Q91 -83 103 -99T146 -115Q183 -115 194 -87T203 -1Q203 9 210 9H258Q263 9 264 6T266 -2Q271 -92 239 -133T143 -175Q82 -175 54 -144T26
-45Q26 -1 36 32T61 94T91 146T116 193T127 242L128 286Q128 294 135 294H187ZM159 492Q181 492 191 481T202 448V440Q202 418 192 407T159 396Q137 396 126 407T115 440V448Q115 470 126 481T159 492Z" />
<glyph unicode="&#xc0;" horiz-adv-x="345" d="M4 0Q-3 0 -2 10L128 648Q129 655 137 655H207Q215 655 216 648L347 10Q348 0 341 0H286Q280 0 278 6L197 439Q190 474 184 508T172 578H170Q165 543 160 509T147 438L66 6Q65 0 59 0H4ZM84 161L96 224H246L260 161H84ZM171
714Q161 714 159 720L98 820Q95 825 96 828T102 832H154Q159 832 161 830T165 825L217 723Q219 719 218 717T213 714H171Z" />
<glyph unicode="&#xc1;" horiz-adv-x="345" d="M4 0Q-3 0 -2 10L128 648Q129 655 137 655H207Q215 655 216 648L347 10Q348 0 341 0H286Q280 0 278 6L197 439Q190 474 184 508T172 578H170Q165 543 160 509T147 438L66 6Q65 0 59 0H4ZM84 161L96 224H246L260 161H84ZM131
714Q127 714 126 716T127 723L179 825Q184 832 190 832H242Q247 832 248 829T246 820L185 720Q183 714 173 714H131Z" />
<glyph unicode="&#xc2;" horiz-adv-x="345" d="M4 0Q-3 0 -2 10L128 648Q129 655 137 655H207Q215 655 216 648L347 10Q348 0 341 0H286Q280 0 278 6L197 439Q190 474 184 508T172 578H170Q165 543 160 509T147 438L66 6Q65 0 59 0H4ZM84 161L96 224H246L260 161H84ZM97
723Q89 719 89 726V764Q89 771 93 774L168 811Q173 814 178 811L253 774Q257 771 257 764V726Q257 720 249 723L173 757L97 723Z" />
<glyph unicode="&#xc3;" horiz-adv-x="345" d="M4 0Q-3 0 -2 10L128 648Q129 655 137 655H207Q215 655 216 648L347 10Q348 0 341 0H286Q280 0 278 6L197 439Q190 474 184 508T172 578H170Q165 543 160 509T147 438L66 6Q65 0 59 0H4ZM84 161L96 224H246L260 161H84ZM204
727Q182 727 169 734T139 742Q126 742 117 739T99 730Q91 725 91 735V772Q91 780 95 783Q101 789 113 795T144 801Q166 801 179 794T208 786Q222 786 232 789T250 798Q258 802 258 792V756Q258 748 254 744Q247 738 236 733T204 727Z" />
<glyph unicode="&#xc4;" horiz-adv-x="345" d="M4 0Q-3 0 -2 10L128 648Q129 655 137 655H207Q215 655 216 648L347 10Q348 0 341 0H286Q280 0 278 6L197 439Q190 474 184 508T172 578H170Q165 543 160 509T147 438L66 6Q65 0 59 0H4ZM84 161L96 224H246L260 161H84ZM117
723Q97 723 87 733T76 764V772Q76 792 86 803T117 814Q137 814 147 803T158 772V764Q158 744 148 734T117 723ZM229 723Q210 723 200 733T189 764V772Q189 792 199 803T229 814Q250 814 260 803T270 772V764Q270 744 260 734T229 723Z" />
<glyph unicode="&#xc5;" horiz-adv-x="345" d="M347 10Q348 0 341 0H286Q280 0 278 6L249 161H95L66 6Q65 0 59 0H4Q-3 0 -2 10L125 634Q99 655 99 700Q99 739 118 760T173 782Q208 782 227 761T246 700Q246 652 219 634L347 10ZM143 699Q143 653 173 653Q202
653 202 699Q202 744 173 744Q143 744 143 699ZM106 224H238L197 439Q190 474 184 510T172 581H170Q165 547 160 511T147 438L106 224Z" />
<glyph unicode="&#xc6;" horiz-adv-x="509" d="M5 0Q-4 0 -1 10L181 649Q183 655 188 655H461Q468 655 468 646V601Q468 592 461 592H293V364H447Q454 364 454 355V313Q454 304 447 304H293V63H461Q468 63 468 54V9Q468 0 461 0H234Q228 0 228 9V161H111L69 6Q68
0 62 0H5ZM127 224H228V512Q228 534 228 556T229 601H228Q222 577 217 555T204 509L127 224Z" />
<glyph unicode="&#xc7;" horiz-adv-x="392" d="M199 -6Q123 -6 83 43T43 191V464Q43 563 83 612T199 661Q254 661 290 635T341 560T348 444Q346 436 341 436H290Q281 436 283 446Q289 521 269 559T199 598Q155 598 132 565T108 459V196Q108 124 131 91T199 57Q251
57 270 98T285 209Q283 219 292 219H339Q348 219 349 209Q355 106 317 50T199 -6ZM204 -191Q191 -191 182 -190T165 -187Q159 -185 159 -179V-148Q159 -140 165 -142Q169 -143 174 -143T188 -144Q201 -144 206 -138T212 -115V-102Q212 -85 205 -79T186 -72H174Q169
-72 169 -65Q169 -61 169 -56T170 -47L189 24Q191 29 196 29H229Q235 29 234 20L215 -38H219Q238 -38 250 -51T262 -96V-117Q262 -156 248 -173T204 -191Z" />
<glyph unicode="&#xc8;" horiz-adv-x="333" d="M60 0Q52 0 52 9V646Q52 655 59 655H285Q292 655 292 646V601Q292 592 285 592H117V364H271Q278 364 278 355V313Q278 304 271 304H117V63H285Q292 63 292 54V9Q292 0 285 0H60ZM170 714Q160 714 158 720L97 820Q94
825 95 828T101 832H153Q158 832 160 830T164 825L216 723Q218 719 217 717T212 714H170Z" />
<glyph unicode="&#xc9;" horiz-adv-x="333" d="M60 0Q52 0 52 9V646Q52 655 59 655H285Q292 655 292 646V601Q292 592 285 592H117V364H271Q278 364 278 355V313Q278 304 271 304H117V63H285Q292 63 292 54V9Q292 0 285 0H60ZM130 714Q126 714 125 716T126 723L178
825Q183 832 189 832H241Q246 832 247 829T245 820L184 720Q182 714 172 714H130Z" />
<glyph unicode="&#xca;" horiz-adv-x="333" d="M60 0Q52 0 52 9V646Q52 655 59 655H285Q292 655 292 646V601Q292 592 285 592H117V364H271Q278 364 278 355V313Q278 304 271 304H117V63H285Q292 63 292 54V9Q292 0 285 0H60ZM96 723Q88 719 88 726V764Q88 771
92 774L167 811Q172 814 177 811L252 774Q256 771 256 764V726Q256 720 248 723L172 757L96 723Z" />
<glyph unicode="&#xcb;" horiz-adv-x="333" d="M60 0Q52 0 52 9V646Q52 655 59 655H285Q292 655 292 646V601Q292 592 285 592H117V364H271Q278 364 278 355V313Q278 304 271 304H117V63H285Q292 63 292 54V9Q292 0 285 0H60ZM116 723Q96 723 86 733T75 764V772Q75
792 85 803T116 814Q136 814 146 803T157 772V764Q157 744 147 734T116 723ZM228 723Q209 723 199 733T188 764V772Q188 792 198 803T228 814Q249 814 259 803T269 772V764Q269 744 259 734T228 723Z" />
<glyph unicode="&#xcc;" horiz-adv-x="168" d="M59 0Q52 0 52 9V646Q52 655 59 655H110Q117 655 117 646V9Q117 0 110 0H59ZM340 714Q330 714 328 720L267 820Q264 825 265 828T271 832H323Q328 832 330 830T334 825L386 723Q388 719 387 717T382 714H340Z" />
<glyph unicode="&#xcd;" horiz-adv-x="168" d="M59 0Q52 0 52 9V646Q52 655 59 655H110Q117 655 117 646V9Q117 0 110 0H59ZM44 714Q40 714 39 716T40 723L92 825Q97 832 103 832H155Q160 832 161 829T159 820L98 720Q96 714 86 714H44Z" />
<glyph unicode="&#xce;" horiz-adv-x="168" d="M59 0Q52 0 52 9V646Q52 655 59 655H110Q117 655 117 646V9Q117 0 110 0H59ZM266 723Q258 719 258 726V764Q258 771 262 774L337 811Q342 814 347 811L422 774Q426 771 426 764V726Q426 720 418 723L342 757L266 723Z" />
<glyph unicode="&#xcf;" horiz-adv-x="168" d="M59 0Q52 0 52 9V646Q52 655 59 655H110Q117 655 117 646V9Q117 0 110 0H59ZM286 723Q266 723 256 733T245 764V772Q245 792 255 803T286 814Q306 814 316 803T327 772V764Q327 744 317 734T286 723ZM398 723Q379
723 369 733T358 764V772Q358 792 368 803T398 814Q419 814 429 803T439 772V764Q439 744 429 734T398 723Z" />
<glyph unicode="&#xd0;" horiz-adv-x="398" d="M14 305Q7 305 7 314V354Q7 363 14 363H52H191Q198 363 198 354V314Q198 305 191 305H14ZM61 0Q52 0 52 9V646Q52 655 60 655H158Q261 655 310 591T360 392V293Q360 144 312 72T163 0H61ZM117 63H158Q232 63 263
116T295 288V394Q295 497 262 544T155 592H117V63Z" />
<glyph unicode="&#xd1;" horiz-adv-x="412" d="M58 0Q52 0 52 9V646Q52 655 59 655H141Q148 655 149 649L257 265Q265 239 273 207T288 142T301 83H303Q302 103 301 127T300 176T299 225T298 269V647Q298 655 305 655H354Q361 655 361 647V9Q361 0 354 0H272Q267
0 265 5L160 377Q145 430 134 479T114 572H112Q113 543 113 508T114 437T115 372V9Q115 0 109 0H58ZM237 727Q215 727 202 734T172 742Q159 742 150 739T132 730Q124 725 124 735V772Q124 780 128 783Q134 789 146 795T177 801Q199 801 212 794T241 786Q255 786
265 789T283 798Q291 802 291 792V756Q291 748 287 744Q280 738 269 733T237 727Z" />
<glyph unicode="&#xd2;" horiz-adv-x="399" d="M199 -6Q124 -6 84 40T43 179V474Q43 569 83 615T199 661Q274 661 315 615T356 474V179Q356 86 315 40T199 -6ZM199 57Q244 57 267 87T291 184V470Q291 537 268 567T199 598Q155 598 132 568T108 470V184Q108 118
131 88T199 57ZM197 714Q187 714 185 720L124 820Q121 825 122 828T128 832H180Q185 832 187 830T191 825L243 723Q245 719 244 717T239 714H197Z" />
<glyph unicode="&#xd3;" horiz-adv-x="399" d="M199 -6Q124 -6 84 40T43 179V474Q43 569 83 615T199 661Q274 661 315 615T356 474V179Q356 86 315 40T199 -6ZM199 57Q244 57 267 87T291 184V470Q291 537 268 567T199 598Q155 598 132 568T108 470V184Q108 118
131 88T199 57ZM157 714Q153 714 152 716T153 723L205 825Q210 832 216 832H268Q273 832 274 829T272 820L211 720Q209 714 199 714H157Z" />
<glyph unicode="&#xd4;" horiz-adv-x="399" d="M199 -6Q124 -6 84 40T43 179V474Q43 569 83 615T199 661Q274 661 315 615T356 474V179Q356 86 315 40T199 -6ZM199 57Q244 57 267 87T291 184V470Q291 537 268 567T199 598Q155 598 132 568T108 470V184Q108 118
131 88T199 57ZM123 723Q115 719 115 726V764Q115 771 119 774L194 811Q199 814 204 811L279 774Q283 771 283 764V726Q283 720 275 723L199 757L123 723Z" />
<glyph unicode="&#xd5;" horiz-adv-x="399" d="M199 -6Q124 -6 84 40T43 179V474Q43 569 83 615T199 661Q274 661 315 615T356 474V179Q356 86 315 40T199 -6ZM199 57Q244 57 267 87T291 184V470Q291 537 268 567T199 598Q155 598 132 568T108 470V184Q108 118
131 88T199 57ZM230 727Q208 727 195 734T165 742Q152 742 143 739T125 730Q117 725 117 735V772Q117 780 121 783Q127 789 139 795T170 801Q192 801 205 794T234 786Q248 786 258 789T276 798Q284 802 284 792V756Q284 748 280 744Q273 738 262 733T230 727Z"
/>
<glyph unicode="&#xd6;" horiz-adv-x="399" d="M199 -6Q124 -6 84 40T43 179V474Q43 569 83 615T199 661Q274 661 315 615T356 474V179Q356 86 315 40T199 -6ZM199 57Q244 57 267 87T291 184V470Q291 537 268 567T199 598Q155 598 132 568T108 470V184Q108 118
131 88T199 57ZM143 723Q123 723 113 733T102 764V772Q102 792 112 803T143 814Q163 814 173 803T184 772V764Q184 744 174 734T143 723ZM255 723Q236 723 226 733T215 764V772Q215 792 225 803T255 814Q276 814 286 803T296 772V764Q296 744 286 734T255 723Z"
/>
<glyph unicode="&#xd7;" horiz-adv-x="420" d="M134 195L104 225Q99 232 104 237L168 301L104 365Q100 371 104 377L134 407Q141 414 147 407L211 344L274 407Q280 412 286 407L316 377Q323 371 316 364L253 301L316 238Q323 232 316 225L286 195Q280 191 274
195L211 258L147 195Q141 189 134 195Z" />
<glyph unicode="&#xd8;" horiz-adv-x="399" d="M40 -50Q34 -50 37 -42L79 76L98 127L266 591L277 624L304 699Q305 705 312 705H357Q365 705 362 696L321 583L299 524L133 63L122 29L95 -44Q94 -50 88 -50H40ZM199 -6Q124 -6 84 40T43 179V474Q43 569 83 615T199
661Q274 661 315 615T356 474V179Q356 86 315 40T199 -6ZM199 57Q244 57 267 87T291 184V470Q291 537 268 567T199 598Q155 598 132 568T108 470V184Q108 118 131 88T199 57Z" />
<glyph unicode="&#xd9;" horiz-adv-x="401" d="M200 -6Q121 -6 85 45T48 199V647Q48 655 55 655H106Q113 655 113 647V200Q113 126 133 92T200 57Q247 57 267 91T288 200V647Q288 655 295 655H346Q353 655 353 647V199Q353 96 315 45T200 -6ZM198 714Q188 714
186 720L125 820Q122 825 123 828T129 832H181Q186 832 188 830T192 825L244 723Q246 719 245 717T240 714H198Z" />
<glyph unicode="&#xda;" horiz-adv-x="401" d="M200 -6Q121 -6 85 45T48 199V647Q48 655 55 655H106Q113 655 113 647V200Q113 126 133 92T200 57Q247 57 267 91T288 200V647Q288 655 295 655H346Q353 655 353 647V199Q353 96 315 45T200 -6ZM158 714Q154 714
153 716T154 723L206 825Q211 832 217 832H269Q274 832 275 829T273 820L212 720Q210 714 200 714H158Z" />
<glyph unicode="&#xdb;" horiz-adv-x="401" d="M200 -6Q121 -6 85 45T48 199V647Q48 655 55 655H106Q113 655 113 647V200Q113 126 133 92T200 57Q247 57 267 91T288 200V647Q288 655 295 655H346Q353 655 353 647V199Q353 96 315 45T200 -6ZM124 723Q116 719
116 726V764Q116 771 120 774L195 811Q200 814 205 811L280 774Q284 771 284 764V726Q284 720 276 723L200 757L124 723Z" />
<glyph unicode="&#xdc;" horiz-adv-x="401" d="M200 -6Q121 -6 85 45T48 199V647Q48 655 55 655H106Q113 655 113 647V200Q113 126 133 92T200 57Q247 57 267 91T288 200V647Q288 655 295 655H346Q353 655 353 647V199Q353 96 315 45T200 -6ZM144 723Q124 723
114 733T103 764V772Q103 792 113 803T144 814Q164 814 174 803T185 772V764Q185 744 175 734T144 723ZM256 723Q237 723 227 733T216 764V772Q216 792 226 803T256 814Q277 814 287 803T297 772V764Q297 744 287 734T256 723Z" />
<glyph unicode="&#xdd;" horiz-adv-x="343" d="M146 0Q139 0 139 9V224L9 644Q6 655 14 655H73Q79 655 80 649L141 423Q149 395 156 366T171 307H172Q180 336 188 365T203 424L264 649Q266 655 271 655H328Q336 655 334 644L204 225V9Q204 0 198 0H146ZM129 714Q125
714 124 716T125 723L177 825Q182 832 188 832H240Q245 832 246 829T244 820L183 720Q181 714 171 714H129Z" />
<glyph unicode="&#xde;" horiz-adv-x="343" d="M59 0Q52 0 52 9V646Q52 655 59 655H110Q117 655 117 646V540H155Q240 540 279 492T319 340Q319 242 279 191T161 139H117V9Q117 0 110 0H59ZM117 202H155Q207 202 230 234T254 337Q254 414 231 446T159 479H117V202Z" />
<glyph unicode="&#xdf;" horiz-adv-x="344" d="M227 -6Q179 -6 157 21T136 106Q136 114 142 114H191Q197 114 197 105Q197 80 204 69T228 57Q247 57 254 70T261 121Q261 153 251 175T227 216T199 255T174 301T164 366Q164 394 172 417T190 462T208 508T216 561Q216
596 204 611T165 626Q136 626 124 606T111 536V9Q111 0 105 0H52Q46 0 46 9V527Q46 613 74 651T167 689Q223 689 252 659T281 567Q281 530 273 503T255 455T237 414T229 370Q229 341 239 321T263 282T291 243T316 194T326 123Q326 59 302 27T227 -6Z" />
<glyph unicode="&#xe0;" horiz-adv-x="316" d="M222 0Q216 0 215 9Q213 27 211 54T209 101L205 106V358Q205 399 196 414T157 430Q129 430 118 415T110 364Q110 355 102 355H58Q48 355 47 367Q42 426 70 459T158 492Q219 492 244 463T270 360V120Q270 80 271 52T273
10Q274 0 268 0H222ZM115 -6Q76 -6 55 28T33 123Q33 191 63 232T161 281L213 287V234L168 228Q133 224 116 199T98 128Q98 95 108 76T135 57Q152 57 169 70T215 121L218 63Q188 26 166 10T115 -6ZM158 557Q151 557 146 563L75 682Q72 687 73 690T79 693H130Q137
693 140 686L203 566Q205 562 204 560T198 557H158Z" />
<glyph unicode="&#xe1;" horiz-adv-x="316" d="M222 0Q216 0 215 9Q213 27 211 54T209 101L205 106V358Q205 399 196 414T157 430Q129 430 118 415T110 364Q110 355 102 355H58Q48 355 47 367Q42 426 70 459T158 492Q219 492 244 463T270 360V120Q270 80 271 52T273
10Q274 0 268 0H222ZM115 -6Q76 -6 55 28T33 123Q33 191 63 232T161 281L213 287V234L168 228Q133 224 116 199T98 128Q98 95 108 76T135 57Q152 57 169 70T215 121L218 63Q188 26 166 10T115 -6ZM120 557Q116 557 115 559T116 566L179 686Q182 693 189 693H239Q244
693 245 690T244 682L173 563Q169 557 160 557H120Z" />
<glyph unicode="&#xe2;" horiz-adv-x="316" d="M222 0Q216 0 215 9Q213 27 211 54T209 101L205 106V358Q205 399 196 414T157 430Q129 430 118 415T110 364Q110 355 102 355H58Q48 355 47 367Q42 426 70 459T158 492Q219 492 244 463T270 360V120Q270 80 271 52T273
10Q274 0 268 0H222ZM115 -6Q76 -6 55 28T33 123Q33 191 63 232T161 281L213 287V234L168 228Q133 224 116 199T98 128Q98 95 108 76T135 57Q152 57 169 70T215 121L218 63Q188 26 166 10T115 -6ZM89 558Q81 554 81 562V603Q81 611 85 613L155 653Q160 656 165
653L236 613Q239 611 239 603V562Q239 555 231 558L160 597L89 558Z" />
<glyph unicode="&#xe3;" horiz-adv-x="316" d="M222 0Q216 0 215 9Q213 27 211 54T209 101L205 106V358Q205 399 196 414T157 430Q129 430 118 415T110 364Q110 355 102 355H58Q48 355 47 367Q42 426 70 459T158 492Q219 492 244 463T270 360V120Q270 80 271 52T273
10Q274 0 268 0H222ZM115 -6Q76 -6 55 28T33 123Q33 191 63 232T161 281L213 287V234L168 228Q133 224 116 199T98 128Q98 95 108 76T135 57Q152 57 169 70T215 121L218 63Q188 26 166 10T115 -6ZM189 569Q175 569 165 573T146 580T127 584Q117 584 108 580T90
571Q82 566 82 576V613Q82 621 86 624Q92 631 104 636T132 642Q147 642 156 639T174 631T193 627Q204 627 213 630T230 639Q239 643 239 633V597Q239 589 235 586Q228 579 216 574T189 569Z" />
<glyph unicode="&#xe4;" horiz-adv-x="316" d="M222 0Q216 0 215 9Q213 27 211 54T209 101L205 106V358Q205 399 196 414T157 430Q129 430 118 415T110 364Q110 355 102 355H58Q48 355 47 367Q42 426 70 459T158 492Q219 492 244 463T270 360V120Q270 80 271 52T273
10Q274 0 268 0H222ZM115 -6Q76 -6 55 28T33 123Q33 191 63 232T161 281L213 287V234L168 228Q133 224 116 199T98 128Q98 95 108 76T135 57Q152 57 169 70T215 121L218 63Q188 26 166 10T115 -6ZM104 578Q84 578 74 589T63 619V628Q63 648 73 658T104 669Q124
669 134 659T145 628V619Q145 600 135 589T104 578ZM216 578Q197 578 187 589T176 619V628Q176 648 186 658T216 669Q237 669 247 659T257 628V619Q257 600 247 589T216 578Z" />
<glyph unicode="&#xe5;" horiz-adv-x="316" d="M222 0Q216 0 215 9Q213 27 211 54T209 101L205 106V358Q205 399 196 414T157 430Q129 430 118 415T110 364Q110 355 102 355H58Q48 355 47 367Q42 426 70 459T158 492Q219 492 244 463T270 360V120Q270 80 271 52T273
10Q274 0 268 0H222ZM115 -6Q76 -6 55 28T33 123Q33 191 63 232T161 281L213 287V234L168 228Q133 224 116 199T98 128Q98 95 108 76T135 57Q152 57 169 70T215 121L218 63Q188 26 166 10T115 -6ZM160 550Q126 550 107 572T87 632Q87 671 106 693T160 715Q195 715
214 693T234 632Q234 594 215 572T160 550ZM160 588Q190 588 190 632Q190 676 160 676Q131 676 131 632Q131 588 160 588Z" />
<glyph unicode="&#xe6;" horiz-adv-x="486" d="M115 -6Q76 -6 55 28T33 123Q33 191 63 232T161 283L205 290V358Q205 399 196 414T157 430Q129 430 120 415T110 364Q110 355 102 355H58Q48 355 47 367Q42 426 70 459T158 492Q192 492 211 482T244 448Q260 471
282 481T330 492Q388 492 419 453T451 335V236Q451 228 444 228H270V167Q270 109 285 83T332 57Q359 57 371 73T384 123Q384 133 390 133H439Q446 133 446 125Q446 62 417 28T332 -6Q291 -6 263 12T221 66Q193 32 170 13T115 -6ZM135 57Q151 57 167 69T209 114Q208
124 207 135T205 159V232L168 227Q133 223 116 199T98 128Q98 95 108 76T135 57ZM270 289H386V334Q386 385 372 407T329 430Q299 430 285 407T270 334V289Z" />
<glyph unicode="&#xe7;" horiz-adv-x="326" d="M169 -6Q102 -6 70 34T38 159V328Q38 411 70 451T169 492Q210 492 238 475T279 426T289 349Q289 337 281 337H234Q230 337 229 339T228 346Q230 385 215 407T169 430Q134 430 119 407T103 326V160Q103 105 118 81T169
57Q200 57 214 77T226 139Q226 150 234 150H281Q289 150 289 141Q289 68 260 31T169 -6ZM170 -191Q157 -191 148 -190T131 -187Q125 -185 125 -179V-148Q125 -140 131 -142Q135 -143 140 -143T154 -144Q167 -144 172 -138T178 -115V-102Q178 -85 171 -79T152 -72H140Q135
-72 135 -65Q135 -61 135 -56T136 -47L155 24Q157 29 162 29H195Q201 29 200 20L181 -38H185Q204 -38 216 -51T228 -96V-117Q228 -156 214 -173T170 -191Z" />
<glyph unicode="&#xe8;" horiz-adv-x="327" d="M169 -6Q102 -6 70 36T38 166V333Q38 416 70 454T165 492Q227 492 259 453T292 335V236Q292 228 285 228H103V167Q103 109 118 83T169 57Q199 57 213 73T225 123Q223 133 231 133H279Q286 133 286 125Q288 62 258
28T169 -6ZM103 289H227V334Q227 385 213 407T165 430Q133 430 118 407T103 334V289ZM162 557Q155 557 150 563L79 682Q76 687 77 690T83 693H134Q141 693 144 686L207 566Q209 562 208 560T202 557H162Z" />
<glyph unicode="&#xe9;" horiz-adv-x="327" d="M169 -6Q102 -6 70 36T38 166V333Q38 416 70 454T165 492Q227 492 259 453T292 335V236Q292 228 285 228H103V167Q103 109 118 83T169 57Q199 57 213 73T225 123Q223 133 231 133H279Q286 133 286 125Q288 62 258
28T169 -6ZM103 289H227V334Q227 385 213 407T165 430Q133 430 118 407T103 334V289ZM124 557Q120 557 119 559T120 566L183 686Q186 693 193 693H243Q248 693 249 690T248 682L177 563Q173 557 164 557H124Z" />
<glyph unicode="&#xea;" horiz-adv-x="327" d="M169 -6Q102 -6 70 36T38 166V333Q38 416 70 454T165 492Q227 492 259 453T292 335V236Q292 228 285 228H103V167Q103 109 118 83T169 57Q199 57 213 73T225 123Q223 133 231 133H279Q286 133 286 125Q288 62 258
28T169 -6ZM103 289H227V334Q227 385 213 407T165 430Q133 430 118 407T103 334V289ZM93 558Q85 554 85 562V603Q85 611 89 613L159 653Q164 656 169 653L240 613Q243 611 243 603V562Q243 555 235 558L164 597L93 558Z" />
<glyph unicode="&#xeb;" horiz-adv-x="327" d="M169 -6Q102 -6 70 36T38 166V333Q38 416 70 454T165 492Q227 492 259 453T292 335V236Q292 228 285 228H103V167Q103 109 118 83T169 57Q199 57 213 73T225 123Q223 133 231 133H279Q286 133 286 125Q288 62 258
28T169 -6ZM103 289H227V334Q227 385 213 407T165 430Q133 430 118 407T103 334V289ZM108 578Q88 578 78 589T67 619V628Q67 648 77 658T108 669Q128 669 138 659T149 628V619Q149 600 139 589T108 578ZM220 578Q201 578 191 589T180 619V628Q180 648 190 658T220
669Q241 669 251 659T261 628V619Q261 600 251 589T220 578Z" />
<glyph unicode="&#xec;" horiz-adv-x="157" d="M53 0Q46 0 46 9V477Q46 486 53 486H104Q111 486 111 477V9Q111 0 104 0H53ZM333 557Q326 557 321 563L250 682Q247 687 248 690T254 693H305Q312 693 315 686L378 566Q380 562 379 560T373 557H333Z" />
<glyph unicode="&#xed;" horiz-adv-x="157" d="M53 0Q46 0 46 9V477Q46 486 53 486H104Q111 486 111 477V9Q111 0 104 0H53ZM39 557Q35 557 34 559T35 566L98 686Q101 693 108 693H158Q163 693 164 690T163 682L92 563Q88 557 79 557H39Z" />
<glyph unicode="&#xee;" horiz-adv-x="157" d="M53 0Q46 0 46 9V477Q46 486 53 486H104Q111 486 111 477V9Q111 0 104 0H53ZM264 558Q256 554 256 562V603Q256 611 260 613L330 653Q335 656 340 653L411 613Q414 611 414 603V562Q414 555 406 558L335 597L264 558Z" />
<glyph unicode="&#xef;" horiz-adv-x="157" d="M53 0Q46 0 46 9V477Q46 486 53 486H104Q111 486 111 477V9Q111 0 104 0H53ZM279 578Q259 578 249 589T238 619V628Q238 648 248 658T279 669Q299 669 309 659T320 628V619Q320 600 310 589T279 578ZM391 578Q372
578 362 589T351 619V628Q351 648 361 658T391 669Q412 669 422 659T432 628V619Q432 600 422 589T391 578Z" />
<glyph unicode="&#xf0;" horiz-adv-x="338" d="M169 -6Q102 -6 70 33T38 155V319Q38 392 66 426T140 461Q172 461 200 443T244 402V334Q228 359 206 378T157 398Q132 398 118 379T103 315V156Q103 103 119 80T169 57Q204 57 219 80T235 156V365Q237 438 225 491T186
580T114 637Q108 640 108 643T109 651L131 684Q134 689 137 689T145 688Q221 655 260 574T300 365V155Q300 73 268 34T169 -6ZM132 521Q127 517 123 522L102 554Q99 559 106 564L260 678Q266 681 269 676L288 647Q292 641 286 637L132 521Z" />
<glyph unicode="&#xf1;" horiz-adv-x="347" d="M243 0Q236 0 236 9V366Q236 399 226 414T194 430Q174 430 152 414T104 365L99 419Q128 455 156 473T218 492Q259 492 280 462T301 370V9Q301 0 294 0H243ZM53 0Q46 0 46 9V366Q46 408 46 434T43 475Q42 486 49 486H92Q100
486 101 477Q104 458 105 429T107 385L111 379V9Q111 0 104 0H53ZM205 569Q191 569 181 573T162 580T143 584Q133 584 124 580T106 571Q98 566 98 576V613Q98 621 102 624Q108 631 120 636T148 642Q163 642 172 639T190 631T209 627Q220 627 229 630T246 639Q255
643 255 633V597Q255 589 251 586Q244 579 232 574T205 569Z" />
<glyph unicode="&#xf2;" horiz-adv-x="338" d="M169 -6Q102 -6 70 33T38 155V330Q38 413 70 452T169 492Q236 492 268 453T300 330V155Q300 73 268 34T169 -6ZM169 57Q204 57 219 80T235 156V328Q235 382 220 406T169 430Q134 430 119 406T103 328V156Q103 103
119 80T169 57ZM167 557Q160 557 155 563L84 682Q81 687 82 690T88 693H139Q146 693 149 686L212 566Q214 562 213 560T207 557H167Z" />
<glyph unicode="&#xf3;" horiz-adv-x="338" d="M169 -6Q102 -6 70 33T38 155V330Q38 413 70 452T169 492Q236 492 268 453T300 330V155Q300 73 268 34T169 -6ZM169 57Q204 57 219 80T235 156V328Q235 382 220 406T169 430Q134 430 119 406T103 328V156Q103 103
119 80T169 57ZM129 557Q125 557 124 559T125 566L188 686Q191 693 198 693H248Q253 693 254 690T253 682L182 563Q178 557 169 557H129Z" />
<glyph unicode="&#xf4;" horiz-adv-x="338" d="M169 -6Q102 -6 70 33T38 155V330Q38 413 70 452T169 492Q236 492 268 453T300 330V155Q300 73 268 34T169 -6ZM169 57Q204 57 219 80T235 156V328Q235 382 220 406T169 430Q134 430 119 406T103 328V156Q103 103
119 80T169 57ZM98 558Q90 554 90 562V603Q90 611 94 613L164 653Q169 656 174 653L245 613Q248 611 248 603V562Q248 555 240 558L169 597L98 558Z" />
<glyph unicode="&#xf5;" horiz-adv-x="338" d="M169 -6Q102 -6 70 33T38 155V330Q38 413 70 452T169 492Q236 492 268 453T300 330V155Q300 73 268 34T169 -6ZM169 57Q204 57 219 80T235 156V328Q235 382 220 406T169 430Q134 430 119 406T103 328V156Q103 103
119 80T169 57ZM198 569Q184 569 174 573T155 580T136 584Q126 584 117 580T99 571Q91 566 91 576V613Q91 621 95 624Q101 631 113 636T141 642Q156 642 165 639T183 631T202 627Q213 627 222 630T239 639Q248 643 248 633V597Q248 589 244 586Q237 579 225 574T198
569Z" />
<glyph unicode="&#xf6;" horiz-adv-x="338" d="M169 -6Q102 -6 70 33T38 155V330Q38 413 70 452T169 492Q236 492 268 453T300 330V155Q300 73 268 34T169 -6ZM169 57Q204 57 219 80T235 156V328Q235 382 220 406T169 430Q134 430 119 406T103 328V156Q103 103
119 80T169 57ZM113 578Q93 578 83 589T72 619V628Q72 648 82 658T113 669Q133 669 143 659T154 628V619Q154 600 144 589T113 578ZM225 578Q206 578 196 589T185 619V628Q185 648 195 658T225 669Q246 669 256 659T266 628V619Q266 600 256 589T225 578Z" />
<glyph unicode="&#xf7;" horiz-adv-x="420" d="M95 271Q86 271 86 279V322Q86 331 95 331H326Q335 331 335 322V279Q335 271 326 271H95ZM211 126Q194 126 185 136T176 163V179Q176 197 185 207T211 217Q228 217 236 207T245 179V163Q245 146 237 136T211 126ZM211
383Q194 383 185 393T176 420V437Q176 454 185 464T211 474Q228 474 236 464T245 437V420Q245 404 237 394T211 383Z" />
<glyph unicode="&#xf8;" horiz-adv-x="338" d="M23 -51Q19 -51 18 -48T19 -41L73 89L87 120L219 431L230 458L262 533Q265 537 270 537H314Q323 537 319 528L271 415L256 380L116 52L108 31L75 -46Q72 -51 67 -51H23ZM169 -6Q102 -6 70 33T38 155V330Q38 413 70
452T169 492Q236 492 268 453T300 330V155Q300 73 268 34T169 -6ZM169 57Q204 57 219 80T235 156V328Q235 382 220 406T169 430Q134 430 119 406T103 328V156Q103 103 119 80T169 57Z" />
<glyph unicode="&#xf9;" horiz-adv-x="339" d="M129 -6Q83 -6 65 23T46 116V477Q46 486 53 486H104Q111 486 111 477V117Q111 81 119 69T147 57Q173 57 196 77T242 131L248 75Q222 40 192 17T129 -6ZM246 0Q240 0 238 9Q236 30 235 58T233 101L228 107V477Q228
486 236 486H286Q293 486 293 477V120Q293 78 294 52T296 11Q297 0 290 0H246ZM168 557Q161 557 156 563L85 682Q82 687 83 690T89 693H140Q147 693 150 686L213 566Q215 562 214 560T208 557H168Z" />
<glyph unicode="&#xfa;" horiz-adv-x="339" d="M129 -6Q83 -6 65 23T46 116V477Q46 486 53 486H104Q111 486 111 477V117Q111 81 119 69T147 57Q173 57 196 77T242 131L248 75Q222 40 192 17T129 -6ZM246 0Q240 0 238 9Q236 30 235 58T233 101L228 107V477Q228
486 236 486H286Q293 486 293 477V120Q293 78 294 52T296 11Q297 0 290 0H246ZM130 557Q126 557 125 559T126 566L189 686Q192 693 199 693H249Q254 693 255 690T254 682L183 563Q179 557 170 557H130Z" />
<glyph unicode="&#xfb;" horiz-adv-x="339" d="M129 -6Q83 -6 65 23T46 116V477Q46 486 53 486H104Q111 486 111 477V117Q111 81 119 69T147 57Q173 57 196 77T242 131L248 75Q222 40 192 17T129 -6ZM246 0Q240 0 238 9Q236 30 235 58T233 101L228 107V477Q228
486 236 486H286Q293 486 293 477V120Q293 78 294 52T296 11Q297 0 290 0H246ZM99 558Q91 554 91 562V603Q91 611 95 613L165 653Q170 656 175 653L246 613Q249 611 249 603V562Q249 555 241 558L170 597L99 558Z" />
<glyph unicode="&#xfc;" horiz-adv-x="339" d="M129 -6Q83 -6 65 23T46 116V477Q46 486 53 486H104Q111 486 111 477V117Q111 81 119 69T147 57Q173 57 196 77T242 131L248 75Q222 40 192 17T129 -6ZM246 0Q240 0 238 9Q236 30 235 58T233 101L228 107V477Q228
486 236 486H286Q293 486 293 477V120Q293 78 294 52T296 11Q297 0 290 0H246ZM114 578Q94 578 84 589T73 619V628Q73 648 83 658T114 669Q134 669 144 659T155 628V619Q155 600 145 589T114 578ZM226 578Q207 578 197 589T186 619V628Q186 648 196 658T226 669Q247
669 257 659T267 628V619Q267 600 257 589T226 578Z" />
<glyph unicode="&#xfd;" horiz-adv-x="317" d="M91 -185Q84 -185 86 -174L129 6L18 476Q15 486 22 486H78Q85 486 86 479L134 242Q142 209 147 174T158 106H160Q165 139 171 174T185 243L231 479Q232 486 239 486H293Q296 486 298 483T298 475L150 -178Q149 -185
142 -185H91ZM118 557Q114 557 113 559T114 566L177 686Q180 693 187 693H237Q242 693 243 690T242 682L171 563Q167 557 158 557H118Z" />
<glyph unicode="&#xfe;" horiz-adv-x="336" d="M53 -185Q46 -185 46 -176V674Q46 683 53 683H104Q111 683 111 674V438Q134 464 159 478T212 492Q254 492 275 464T296 372V155Q296 74 271 34T196 -6Q174 -6 152 0T111 17V-176Q111 -185 104 -185H53ZM179 57Q205
57 218 80T231 157V366Q231 401 222 415T192 430Q172 430 152 415T111 376V77Q126 69 143 63T179 57Z" />
<glyph unicode="&#xff;" horiz-adv-x="317" d="M91 -185Q84 -185 86 -174L129 6L18 476Q15 486 22 486H78Q85 486 86 479L134 242Q142 209 147 174T158 106H160Q165 139 171 174T185 243L231 479Q232 486 239 486H293Q296 486 298 483T298 475L150 -178Q149 -185
142 -185H91ZM102 578Q82 578 72 589T61 619V628Q61 648 71 658T102 669Q122 669 132 659T143 628V619Q143 600 133 589T102 578ZM214 578Q195 578 185 589T174 619V628Q174 648 184 658T214 669Q235 669 245 659T255 628V619Q255 600 245 589T214 578Z" />
<glyph unicode="&#x2013;" horiz-adv-x="441" d="M46 238Q38 238 38 247V283Q38 292 46 292H395Q404 292 404 283V247Q404 238 395 238H46Z" />
<glyph unicode="&#x2014;" horiz-adv-x="524" d="M46 238Q38 238 38 247V283Q38 292 46 292H478Q487 292 487 283V247Q487 238 478 238H46Z" />
<glyph unicode="&#x2018;" horiz-adv-x="154" d="M131 655Q139 655 138 646L96 435Q94 426 88 426H28Q23 426 21 429T20 437L81 649Q82 655 88 655H131Z" />
<glyph unicode="&#x2019;" horiz-adv-x="166" d="M25 426Q17 426 18 435L60 646Q62 655 68 655H128Q133 655 135 652T136 644L75 432Q74 426 68 426H25Z" />
<glyph unicode="&#x201a;" horiz-adv-x="166" d="M25 -130Q17 -130 18 -121L60 90Q62 99 68 99H128Q133 99 135 96T136 88L75 -124Q74 -130 68 -130H25Z" />
<glyph unicode="&#x201c;" horiz-adv-x="277" d="M253 655Q261 655 260 646L218 435Q216 426 210 426H150Q145 426 143 429T142 437L203 649Q204 655 210 655H253ZM131 655Q139 655 138 646L96 435Q94 426 88 426H28Q23 426 21 429T20 437L81 649Q82 655 88 655H131Z" />
<glyph unicode="&#x201d;" horiz-adv-x="289" d="M25 426Q17 426 18 435L60 646Q62 655 68 655H128Q133 655 135 652T136 644L75 432Q74 426 68 426H25ZM148 426Q140 426 141 435L183 646Q185 655 191 655H251Q256 655 258 652T259 644L198 432Q197 426 191 426H148Z" />
<glyph unicode="&#x201e;" horiz-adv-x="289" d="M25 -130Q17 -130 18 -121L60 90Q62 99 68 99H128Q133 99 135 96T136 88L75 -124Q74 -130 68 -130H25ZM148 -130Q140 -130 141 -121L183 90Q185 99 191 99H251Q256 99 258 96T259 88L198 -124Q197 -130 191 -130H148Z" />
<glyph unicode="&#x2022;" horiz-adv-x="202" d="M101 185Q74 185 59 200T43 242V283Q43 309 58 324T101 339Q129 339 144 324T160 283V242Q160 215 145 200T101 185Z" />
<glyph unicode="&#x2039;" horiz-adv-x="212" d="M119 93Q115 93 112 99L36 257Q34 261 36 268L112 426Q115 432 120 432H170Q174 432 175 430T175 422L101 262L175 104Q178 93 170 93H119Z" />
<glyph unicode="&#x203a;" horiz-adv-x="212" d="M40 93Q32 93 35 104L109 262L35 422Q34 427 35 429T40 432H90Q95 432 98 426L174 268Q176 261 174 257L98 99Q95 93 91 93H40Z" />
</font>
</defs>
</svg>
