<?xml version="1.0" standalone="no"?>
<!DOCTYPE svg PUBLIC "-//W3C//DTD SVG 1.1//EN" "http://www.w3.org/Graphics/SVG/1.1/DTD/svg11.dtd">
<svg xmlns="http://www.w3.org/2000/svg">
<defs >
<font id="Blinker" horiz-adv-x="479" ><font-face
    font-family="Blinker"
    units-per-em="1000"
    panose-1="2 0 0 0 0 0 0 0 0 0"
    ascent="960"
    descent="-240"
    alphabetic="0" />
<glyph unicode=" " glyph-name="space" horiz-adv-x="171" />
<glyph unicode="!" glyph-name="exclam" horiz-adv-x="220" d="M63 627H156L145 172H74L63 627ZM153 81V0H67V81H153Z" />
<glyph unicode="&quot;" glyph-name="quotedbl" horiz-adv-x="312" d="M52 627H110V399H52V627ZM202 627H260V399H202V627Z" />
<glyph unicode="#" glyph-name="numbersign" horiz-adv-x="571" d="M545 493V436H451L413 201H510V144H404L380 0H320L343 144H174L151 0H90L114 144H26V201H124L162 436H61V493H173L194 627H254L232 493H401L423 627H483L461 493H545ZM353 201L391 436H223L184 201H353Z" />
<glyph unicode="$" glyph-name="dollar" d="M274 -7V-95H202V-7Q154 -5 110 2T39 21V101Q90 86 139 79T237 72Q306 72 334 95T363 179Q363 217 349 234T289 264L158 300Q93 318 66 352T39 449Q39 534 79 579T202 634V722H274V637Q311 636 342 632T405 619V542Q350
553 318 556T252 560Q184 560 154 536T123 455Q123 422 137 405T187 377L318 341Q402 317 426 284T451 181Q451 90 408 46T274 -7Z" />
<glyph unicode="%" glyph-name="percent" horiz-adv-x="640" d="M276 476Q276 392 248 356T151 320Q83 320 55 356T26 476Q26 561 54 596T151 632Q219 632 247 597T276 476ZM499 627L199 0H138L438 627H499ZM217 476Q217 535 203 558T151 582Q115 582 101 559T86
476Q86 418 100 395T151 372Q188 372 202 395T217 476ZM613 152Q613 67 585 32T489 -4Q421 -4 393 31T364 152Q364 237 392 272T489 308Q556 308 584 273T613 152ZM554 152Q554 211 540 234T489 258Q452 258 438 235T423 152Q423 94 437 71T489 48Q525 48 539 71T554
152Z" />
<glyph unicode="&amp;" glyph-name="ampersand" horiz-adv-x="704" d="M540 278V47Q504 20 449 6T323 -8Q178 -8 111 72T43 327Q43 483 110 560T312 637Q407 637 460 593T513 468Q513 431 504 401T476 348H687V278H540ZM307 560Q212 560 171 508T129 334V327Q293
329 362 359T432 463Q432 509 400 534T307 560ZM324 72Q371 72 406 78T460 95V331Q419 294 339 276T133 256Q144 158 188 115T324 72Z" />
<glyph unicode="&apos;" glyph-name="quotesingle" horiz-adv-x="167" d="M52 627H115V399H52V627Z" />
<glyph unicode="(" glyph-name="parenleft" horiz-adv-x="220" d="M117 313Q117 203 135 105T189 -62L133 -80Q90 -2 67 99T44 313Q44 430 66 530T133 707L188 689Q153 621 135 524T117 313Z" />
<glyph unicode=")" glyph-name="parenright" horiz-adv-x="220" d="M103 313Q103 426 85 523T32 689L87 707Q131 631 153 531T176 313Q176 200 153 99T87 -80L31 -62Q66 6 84 104T103 313Z" />
<glyph unicode="*" glyph-name="asterisk" horiz-adv-x="375" d="M229 452L307 350L257 314L187 421L115 316L66 352L146 451L24 489L44 546L162 501L157 627H218L213 501L333 544L352 486L229 452Z" />
<glyph unicode="+" glyph-name="plus" horiz-adv-x="500" d="M463 361V283H291V110H211V283H37V361H211V532H291V361H463Z" />
<glyph unicode="," glyph-name="comma" horiz-adv-x="168" d="M128 86L103 -69Q101 -84 92 -92T67 -100H41L46 86H128Z" />
<glyph unicode="-" glyph-name="hyphen" horiz-adv-x="429" d="M374 350V286H55V350H374Z" />
<glyph unicode="." glyph-name="period" horiz-adv-x="174" d="M128 0H46V83H128V0Z" />
<glyph unicode="/" glyph-name="slash" horiz-adv-x="309" d="M291 707L87 -80H18L223 707H291Z" />
<glyph unicode="0" glyph-name="zero" horiz-adv-x="571" d="M522 315Q522 136 470 64T286 -8Q201 -8 155 13T84 82Q66 118 58 174T49 315Q49 493 101 565T286 637Q370 637 417 616T488 547Q505 511 513 456T522 315ZM419 482Q406 525 376 542T286 560Q197 560
166 509T135 315Q135 168 164 120T286 72Q374 72 405 122T436 315Q436 376 432 416T419 482Z" />
<glyph unicode="1" glyph-name="one" horiz-adv-x="364" d="M285 0H200V553L15 530V603L285 637V0Z" />
<glyph unicode="2" glyph-name="two" horiz-adv-x="452" d="M413 80V0H28V80L255 333Q290 373 304 404T319 470Q319 513 295 536T224 560Q185 560 133 553T59 539V614Q98 625 144 631T237 637Q317 637 360 596T404 479Q404 430 386 388T324 297L129 80H413Z" />
<glyph unicode="3" glyph-name="three" horiz-adv-x="457" d="M387 477Q387 419 361 382T283 330V328Q347 324 380 285T414 175Q414 86 361 39T205 -8Q148 -8 106 -3T34 12V88Q73 79 108 76T192 72Q265 72 299 98T334 181Q334 235 304 259T207 284H109V358H187Q244
358 275 385T307 464Q307 515 282 537T200 560Q166 560 122 554T53 542V614Q87 625 131 631T220 637Q302 637 344 596T387 477Z" />
<glyph unicode="4" glyph-name="four" horiz-adv-x="518" d="M493 240V166H407V0H322V166H35V240L111 627H193L121 240H322V517H407V240H493Z" />
<glyph unicode="5" glyph-name="five" horiz-adv-x="456" d="M421 185Q421 89 370 41T218 -8Q157 -8 112 -3T40 12V88Q75 80 113 76T197 72Q273 72 304 98T336 186Q336 243 306 266T193 289Q159 289 129 287T69 278V627H381V550H154V356Q177 359 196 360T235 362Q333
362 377 319T421 185Z" />
<glyph unicode="6" glyph-name="six" horiz-adv-x="514" d="M268 -8Q147 -8 97 61T47 297Q47 479 111 558T322 637Q344 637 370 635T411 630V555Q385 558 364 559T322 560Q223 560 182 515T133 355Q179 380 221 391T311 402Q398 402 439 355T481 210Q481 107 425
50T268 -8ZM399 207Q399 274 373 302T279 330Q242 330 204 319T131 288Q132 167 161 120T265 72Q331 72 365 106T399 207Z" />
<glyph unicode="7" glyph-name="seven" horiz-adv-x="445" d="M421 627V550L131 0H36L330 550H30V627H421Z" />
<glyph unicode="8" glyph-name="eight" horiz-adv-x="523" d="M477 168Q477 77 425 35T260 -8Q147 -8 97 32T46 163Q46 229 78 270T171 322Q114 333 86 371T58 473Q58 557 107 597T260 637Q368 637 417 599T466 476Q466 411 437 373T351 322Q412 313 444 273T477
168ZM390 462Q390 514 359 538T260 562Q194 562 164 538T134 461Q134 404 164 379T260 353Q327 353 358 379T390 462ZM398 179Q398 234 365 259T260 285Q190 285 158 259T126 175Q126 120 158 95T260 70Q332 70 365 96T398 179Z" />
<glyph unicode="9" glyph-name="nine" horiz-adv-x="512" d="M248 637Q369 637 416 569T464 332Q464 151 400 72T189 -8Q165 -8 138 -6T97 0V77Q113 75 136 74T189 72Q287 72 328 117T377 276Q339 253 298 242T210 230Q119 230 76 277T33 424Q33 525 89 581T248
637ZM248 560Q183 560 150 527T116 428Q116 359 143 331T240 302Q277 302 312 312T379 344Q378 469 351 514T248 560Z" />
<glyph unicode=":" glyph-name="colon" horiz-adv-x="194" d="M138 411H56V494H138V411ZM138 0H56V83H138V0Z" />
<glyph unicode=";" glyph-name="semicolon" horiz-adv-x="202" d="M144 86L119 -69Q117 -84 108 -92T83 -100H57L62 86H144ZM144 411H62V494H144V411Z" />
<glyph unicode="&lt;" glyph-name="less" horiz-adv-x="500" d="M463 164V82L37 266V358L463 542V462L98 313L463 164Z" />
<glyph unicode="=" glyph-name="equal" horiz-adv-x="500" d="M463 502V424H37V502H463ZM463 456V378H37V456H463Z" />
<glyph unicode="&gt;" glyph-name="greater" horiz-adv-x="500" d="M463 266L37 82V164L402 313L37 462V542L463 358V266Z" />
<glyph unicode="?" glyph-name="question" horiz-adv-x="379" d="M185 637Q266 637 311 602T356 502Q356 443 318 393T198 295V173H123V330Q206 372 241 408T276 484Q276 521 250 540T173 560Q136 560 95 553T22 533V609Q60 623 99 630T185 637ZM203 81V0H116V81H203Z" />
<glyph unicode="@" glyph-name="at" horiz-adv-x="644" d="M298 75Q251 75 228 100T204 176Q204 227 231 249T325 271Q346 271 367 269T402 264V289Q402 322 385 337T332 352Q304 352 281 350T235 341V397Q259 403 285 406T346 409Q405 409 433 382T461 297V163Q461
147 466 140T483 132Q513 132 531 174T550 285Q550 389 498 442T344 496Q217 496 164 436T110 236Q110 106 169 47T362 -13Q409 -13 452 -3T531 26V-36Q496 -56 449 -66T347 -76Q192 -76 117 1T42 236Q42 397 117 477T344 557Q475 557 544 489T613 292Q613 192
576 134T473 75Q450 75 435 85T414 115Q393 96 363 86T298 75ZM333 225Q292 225 278 216T263 180Q263 153 275 142T316 130Q341 130 364 137T402 156V220Q375 223 362 224T333 225Z" />
<glyph unicode="A" glyph-name="A" horiz-adv-x="598" d="M98 0H8L256 627H344L589 0H499L442 151H155L98 0ZM298 549Q288 514 275 475T247 397L183 226H414L350 397Q330 452 319 486T298 549Z" />
<glyph unicode="B" glyph-name="B" horiz-adv-x="560" d="M522 180Q522 84 470 42T303 0H72V627H302Q406 627 450 592T494 472Q494 411 473 378T400 333Q461 325 491 287T522 180ZM415 460Q415 512 390 532T303 553H157V357H303Q363 357 389 381T415 460ZM440
185Q440 241 409 263T303 285H157V76H303Q378 76 409 100T440 185Z" />
<glyph unicode="C" glyph-name="C" horiz-adv-x="518" d="M321 72Q362 72 407 81T492 107V31Q437 9 395 1T306 -8Q162 -8 103 66T44 315Q44 482 112 559T331 637Q377 637 413 635T478 628V553Q443 557 408 558T331 560Q219 560 175 505T131 315Q131 179 171 126T321 72Z" />
<glyph unicode="D" glyph-name="D" horiz-adv-x="606" d="M254 0H72V627H254Q350 627 406 611T497 560Q531 525 546 466T562 314Q562 151 489 76T254 0ZM433 499Q410 526 369 538T254 550H157V80H254Q378 80 426 133T475 314Q475 385 465 429T433 499Z" />
<glyph unicode="E" glyph-name="E" horiz-adv-x="523" d="M488 80V0H72V627H479V550H157V358H442V283H157V80H488Z" />
<glyph unicode="F" glyph-name="F" horiz-adv-x="498" d="M157 258V0H72V627H474V550H157V333H437V258H157Z" />
<glyph unicode="G" glyph-name="G" horiz-adv-x="596" d="M470 257H307V332H550V30Q522 17 450 5T319 -8Q164 -8 105 65T45 314Q45 480 116 558T339 637Q391 637 438 635T516 627V552Q476 556 430 558T339 560Q225 560 179 504T132 314Q132 248 139 204T164 132Q184
98 221 84T329 69Q357 69 395 73T470 86V257Z" />
<glyph unicode="H" glyph-name="H" horiz-adv-x="642" d="M157 0H72V627H157V357H485V627H570V0H485V279H157V0Z" />
<glyph unicode="I" glyph-name="I" horiz-adv-x="229" d="M157 627V0H72V627H157Z" />
<glyph unicode="J" glyph-name="J" horiz-adv-x="429" d="M277 234V627H362V229Q362 105 308 49T133 -8Q99 -8 70 -5T17 5V83Q45 77 69 75T122 72Q209 72 243 108T277 234Z" />
<glyph unicode="K" glyph-name="K" horiz-adv-x="579" d="M312 321L578 0H468L239 281H157V0H72V627H157V356H239L464 627H568L312 321Z" />
<glyph unicode="L" glyph-name="L" horiz-adv-x="472" d="M456 80V0H72V627H157V80H456Z" />
<glyph unicode="M" glyph-name="M" horiz-adv-x="735" d="M663 627V0H583V494L404 125H331L152 495V0H72V627H179L369 228L560 627H663Z" />
<glyph unicode="N" glyph-name="N" horiz-adv-x="657" d="M585 627V0H499L152 488V0H72V627H158L505 132V627H585Z" />
<glyph unicode="O" glyph-name="O" horiz-adv-x="649" d="M604 315Q604 144 539 68T325 -8Q166 -8 106 62T45 315Q45 485 111 561T325 637Q484 637 544 567T604 315ZM161 134Q180 100 217 86T325 72Q436 72 477 125T518 315Q518 383 511 426T489 497Q470 531 434
545T325 560Q213 560 172 506T131 315Q131 247 138 204T161 134Z" />
<glyph unicode="P" glyph-name="P" horiz-adv-x="563" d="M157 203V0H72V627H285Q418 627 475 579T533 422Q533 311 473 257T288 203H157ZM447 422Q447 491 410 520T285 550H157V278H285Q372 278 409 312T447 422Z" />
<glyph unicode="Q" glyph-name="Q" horiz-adv-x="649" d="M325 -8Q166 -8 106 62T45 315Q45 485 111 561T325 637Q484 637 544 567T604 315Q604 193 572 121T471 18L585 -128H484L390 -4Q376 -6 361 -7T325 -8ZM161 134Q180 100 217 86T325 72Q436 72 477 125T518
315Q518 383 511 426T489 497Q470 531 434 545T325 560Q213 560 172 506T131 315Q131 247 138 204T161 134Z" />
<glyph unicode="R" glyph-name="R" horiz-adv-x="579" d="M157 225V0H72V627H285Q418 627 475 582T533 431Q533 349 497 301T386 235L550 0H448L296 225H157ZM447 431Q447 495 410 522T285 550H157V300H285Q371 300 409 331T447 431Z" />
<glyph unicode="S" glyph-name="S" horiz-adv-x="504" d="M314 263L162 299Q99 314 71 350T43 452Q43 547 97 592T267 637Q315 637 353 633T425 619V542Q383 552 345 556T266 560Q189 560 158 538T127 458Q127 422 141 404T189 377L340 341Q420 322 446 288T473
181Q473 78 420 35T250 -8Q189 -8 133 0T43 21V101Q90 87 143 80T250 72Q325 72 355 94T385 179Q385 218 371 235T314 263Z" />
<glyph unicode="T" glyph-name="T" horiz-adv-x="531" d="M516 627V550H308V0H223V550H15V627H516Z" />
<glyph unicode="U" glyph-name="U" horiz-adv-x="633" d="M482 250V627H567V250Q567 118 506 55T315 -8Q185 -8 126 53T66 250V627H151V250Q151 151 187 112T315 72Q407 72 444 111T482 250Z" />
<glyph unicode="V" glyph-name="V" horiz-adv-x="586" d="M243 0L8 627H102L246 230Q254 205 266 167T295 67Q308 115 320 158T343 230L486 627H578L343 0H243Z" />
<glyph unicode="W" glyph-name="W" horiz-adv-x="854" d="M187 0L13 627H105L209 230Q213 214 217 193T238 82Q256 173 261 194T270 230L384 627H473L588 230Q592 215 597 195T620 84Q631 145 638 181T649 230L752 627H841L667 0H571L470 336Q459 373 449 415T427
515Q415 457 405 415T384 336L284 0H187Z" />
<glyph unicode="X" glyph-name="X" horiz-adv-x="547" d="M322 325L547 0H443L268 258L98 0H4L221 322L13 627H116L272 385L434 627H526L322 325Z" />
<glyph unicode="Y" glyph-name="Y" horiz-adv-x="575" d="M476 627H564L331 238V0H246V238L7 627H103L290 314L476 627Z" />
<glyph unicode="Z" glyph-name="Z" horiz-adv-x="508" d="M485 80V0H24V80L370 550H53V627H466V550L121 80H485Z" />
<glyph unicode="[" glyph-name="bracketleft" horiz-adv-x="263" d="M238 -20V-82H70V707H238V646H137V-20H238Z" />
<glyph unicode="\" glyph-name="backslash" horiz-adv-x="308" d="M86 707L290 -80H222L17 707H86Z" />
<glyph unicode="]" glyph-name="bracketright" horiz-adv-x="263" d="M193 -82H25V-20H126V646H25V707H193V-82Z" />
<glyph unicode="^" glyph-name="asciicircum" horiz-adv-x="500" d="M161 365H81L213 627H287L418 365H338L250 554L161 365Z" />
<glyph unicode="_" glyph-name="underscore" horiz-adv-x="481" d="M445 -39V-103H36V-39H445Z" />
<glyph unicode="`" glyph-name="grave" horiz-adv-x="307" d="M181 564L50 686H154L257 564H181Z" />
<glyph unicode="a" glyph-name="a" horiz-adv-x="493" d="M178 -8Q102 -8 67 28T31 144Q31 224 74 257T220 291Q254 291 287 288T349 279V327Q349 382 321 406T231 430Q185 430 150 427T80 415V486Q120 496 161 500T256 504Q345 504 388 463T431 334V0H356L352
46H350Q320 22 273 7T178 -8ZM229 224Q161 224 135 208T108 149Q108 105 130 86T202 66Q241 66 282 78T349 108V214Q316 219 288 221T229 224Z" />
<glyph unicode="b" glyph-name="b" horiz-adv-x="540" d="M310 504Q411 504 454 445T498 250Q498 112 444 52T263 -8Q206 -8 156 -2T65 18V665H147V460Q182 481 224 492T310 504ZM416 250Q416 351 388 390T281 430Q245 430 210 421T147 394V81Q169 75 197 72T258
68Q351 68 383 107T416 250Z" />
<glyph unicode="c" glyph-name="c" horiz-adv-x="439" d="M411 98V29Q386 13 337 3T233 -8Q128 -8 86 49T43 248Q43 387 98 445T285 504Q314 504 337 503T398 496V423Q361 428 338 429T285 430Q191 430 158 392T125 248Q125 143 151 106T251 68Q292 68 336 76T411 98Z" />
<glyph unicode="d" glyph-name="d" horiz-adv-x="541" d="M393 665H475V0H404L398 46H396Q367 19 326 6T230 -8Q129 -8 86 52T42 248Q42 384 95 444T272 504Q307 504 337 499T393 483V665ZM282 430Q189 430 157 391T124 248Q124 147 152 108T259 68Q296 68 330
77T393 106V410Q369 420 342 425T282 430Z" />
<glyph unicode="e" glyph-name="e" horiz-adv-x="498" d="M437 96V27Q411 13 361 3T258 -8Q142 -8 92 52T42 250Q42 383 94 443T260 504Q366 504 412 457T458 298Q458 278 457 261T453 220H125Q126 138 158 103T271 68Q314 68 361 76T437 96ZM383 309Q382 375
354 402T260 430Q186 430 156 399T125 288H382Q382 290 382 297T383 309Z" />
<glyph unicode="f" glyph-name="f" horiz-adv-x="351" d="M95 424H21V494H95V506Q95 592 137 633T266 675Q288 675 310 673T351 667V597Q339 600 319 601T278 603Q221 603 199 583T177 508V494H336V424H177V0H95V424Z" />
<glyph unicode="g" glyph-name="g" horiz-adv-x="538" d="M267 -162Q217 -162 174 -156T102 -138V-65Q125 -74 169 -80T258 -86Q333 -86 362 -57T391 48V79Q354 57 312 46T227 34Q128 34 86 89T43 269Q43 396 97 450T283 504Q330 504 384 499T473 485V71Q473 -59
427 -110T267 -162ZM283 430Q187 430 156 397T125 269Q125 179 151 145T254 110Q287 110 322 119T391 146V419Q367 424 340 427T283 430Z" />
<glyph unicode="h" glyph-name="h" horiz-adv-x="553" d="M148 0H66V665H148V454Q193 479 237 491T326 504Q408 504 449 463T491 342V0H409V332Q409 383 383 406T300 430Q263 430 224 420T148 392V0Z" />
<glyph unicode="i" glyph-name="i" horiz-adv-x="214" d="M151 580H63V665H151V580ZM148 0H66V494H148V0Z" />
<glyph unicode="j" glyph-name="j" horiz-adv-x="223" d="M160 580H72V665H160V580ZM0 -162Q-19 -162 -34 -161T-72 -156V-84Q-51 -87 -42 -87T-24 -88Q30 -88 52 -65T75 14V494H157V5Q157 -78 118 -120T0 -162Z" />
<glyph unicode="k" glyph-name="k" horiz-adv-x="493" d="M148 214V0H66V665H148V285H207L380 494H479L274 254L489 0H386L210 214H148Z" />
<glyph unicode="l" glyph-name="l" horiz-adv-x="214" d="M148 665V0H66V665H148Z" />
<glyph unicode="m" glyph-name="m" horiz-adv-x="802" d="M148 0H66V494H141L145 456H148Q192 481 228 492T300 504Q342 504 372 491T419 452H422Q462 477 506 490T596 504Q667 504 703 467T740 356V0H658V346Q658 389 635 409T562 430Q534 430 503 422T441 397Q443
387 443 377T444 356V0H362V346Q362 389 339 409T266 430Q241 430 213 422T148 393V0Z" />
<glyph unicode="n" glyph-name="n" horiz-adv-x="554" d="M148 0H66V494H137L141 446H144Q184 476 227 490T325 504Q407 504 449 463T492 342V0H410V332Q410 382 382 406T296 430Q260 430 223 419T148 385V0Z" />
<glyph unicode="o" glyph-name="o" horiz-adv-x="543" d="M500 248Q500 108 449 50T272 -8Q143 -8 93 48T43 248Q43 389 94 446T272 504Q401 504 450 448T500 248ZM125 249Q125 139 154 104T272 68Q358 68 388 105T418 249Q418 359 390 394T272 430Q185 430 155
393T125 249Z" />
<glyph unicode="p" glyph-name="p" horiz-adv-x="541" d="M148 -152H66V494H137L142 450H145Q176 476 219 490T311 504Q412 504 455 444T499 248Q499 112 446 52T269 -8Q232 -8 202 -3T148 12V-152ZM417 248Q417 350 389 390T282 430Q245 430 212 420T148 389V88Q173
78 199 73T259 68Q352 68 384 106T417 248Z" />
<glyph unicode="q" glyph-name="q" horiz-adv-x="541" d="M476 485V-152H394V36Q359 15 316 4T227 -8Q127 -8 85 51T42 248Q42 386 97 445T284 504Q334 504 388 499T476 485ZM284 430Q187 430 156 393T124 248Q124 146 151 107T255 68Q290 68 326 77T394 102V419Q370
424 342 427T284 430Z" />
<glyph unicode="r" glyph-name="r" horiz-adv-x="353" d="M148 0H66V494H141L145 452H149Q188 475 227 486T304 498Q320 498 325 498T334 497V418Q327 420 317 420T284 421Q248 421 214 413T148 387V0Z" />
<glyph unicode="s" glyph-name="s" horiz-adv-x="439" d="M236 430Q172 430 148 415T123 354Q123 330 134 318T171 301L298 282Q358 273 382 245T406 155Q406 69 365 31T229 -8Q172 -8 123 -2T42 14V91Q74 81 120 75T216 68Q278 68 301 86T324 150Q324 179 311
192T264 211L137 230Q89 237 66 267T41 354Q41 432 87 468T231 504Q271 504 303 502T372 494V421Q346 425 311 427T236 430Z" />
<glyph unicode="t" glyph-name="t" horiz-adv-x="371" d="M356 77V8Q340 1 313 -3T260 -8Q170 -8 132 32T93 170V424H19V494H94L107 614H175V494H351V424H175V173Q175 112 197 90T277 68Q295 68 318 71T356 77Z" />
<glyph unicode="u" glyph-name="u" horiz-adv-x="538" d="M226 -8Q144 -8 103 33T62 156V494H144V166Q144 115 170 92T252 69Q286 69 320 77T390 104V494H472V0H397L393 41H391Q339 14 301 3T226 -8Z" />
<glyph unicode="v" glyph-name="v" horiz-adv-x="494" d="M394 494H484L294 0H200L10 494H101L248 75L394 494Z" />
<glyph unicode="w" glyph-name="w" horiz-adv-x="709" d="M603 494H692L555 0H459L351 385L250 0H154L17 494H107L203 77L310 494H392L506 77L603 494Z" />
<glyph unicode="x" glyph-name="x" horiz-adv-x="446" d="M271 257L436 0H345L220 200L96 0H10L175 256L17 494H114L225 311L342 494H429L271 257Z" />
<glyph unicode="y" glyph-name="y" horiz-adv-x="495" d="M111 -88Q149 -88 168 -72T210 7L8 494H100L252 89L396 494H484L282 -33Q255 -105 219 -133T126 -162Q109 -162 91 -160T54 -155V-83Q65 -86 78 -87T111 -88Z" />
<glyph unicode="z" glyph-name="z" horiz-adv-x="426" d="M400 72V0H29V72L290 424H47V494H383V424L122 72H400Z" />
<glyph unicode="{" glyph-name="braceleft" horiz-adv-x="293" d="M94 318V314Q132 307 155 265T178 157V50Q178 6 199 -12T270 -31V-92Q192 -92 151 -56T110 49V157Q110 217 86 252T25 287H12V343H25Q61 343 85 378T110 473V577Q110 646 151 682T270 718V657Q221
657 200 639T178 576V473Q178 407 156 366T94 318Z" />
<glyph unicode="|" glyph-name="bar" horiz-adv-x="207" d="M137 707V-80H70V707H137Z" />
<glyph unicode="}" glyph-name="braceright" horiz-adv-x="293" d="M199 314V318Q160 325 138 366T115 473V576Q115 620 94 638T23 657V718Q101 718 142 682T183 577V473Q183 413 207 378T268 343H281V287H268Q232 287 208 252T183 157V49Q183 -20 142 -56T23
-92V-31Q72 -31 93 -13T115 50V157Q115 223 138 265T199 314Z" />
<glyph unicode="~" glyph-name="asciitilde" horiz-adv-x="634" d="M518 454H593Q593 346 556 285T448 224Q414 224 381 242T293 316Q251 357 231 369T193 382Q155 382 136 344T116 232H41Q41 339 80 400T192 462Q226 462 259 444T348 371Q389 329 409 317T447
305Q481 305 499 345T518 454Z" />
<glyph unicode="&#xa0;" glyph-name="uni00A0" horiz-adv-x="171" />
<glyph unicode="&#xa1;" glyph-name="exclamdown" horiz-adv-x="213" d="M64 494H150V413H64V494ZM142 322L153 -133H60L71 322H142Z" />
<glyph unicode="&#xa2;" glyph-name="cent" horiz-adv-x="443" d="M294 70V-22H223V66Q123 68 83 125T42 322Q42 445 84 504T223 575V663H294V578Q323 577 346 576T397 570V497Q360 502 337 503T284 504Q190 504 157 466T124 322Q124 217 150 180T250 142Q291
142 335 150T410 172V103Q394 93 363 84T294 70Z" />
<glyph unicode="&#xa3;" glyph-name="sterling" horiz-adv-x="493" d="M35 266V338H113V454Q113 545 160 591T302 637Q335 637 365 634T445 619V545Q412 553 380 556T314 560Q253 560 226 532T198 443V338H411V266H198V226Q198 171 180 137T122 83V80H461V0H35V81Q74
102 93 139T113 226V266H35Z" />
<glyph unicode="&#xa4;" glyph-name="currency" horiz-adv-x="639" d="M95 39L43 91L109 157Q84 190 71 231T58 316Q58 360 71 400T109 474L43 539L95 592L161 526Q193 550 233 562T317 575Q362 575 402 563T476 525L542 592L594 540L528 475Q553 441 566 401T580
315Q580 272 567 232T529 158L595 92L543 40L477 106Q444 82 404 69T319 56Q275 56 235 68T162 106L95 39ZM318 503Q238 503 186 451T134 317Q134 235 186 183T319 131Q400 130 452 182T504 317Q504 398 452 450T318 503Z" />
<glyph unicode="&#xa5;" glyph-name="yen" horiz-adv-x="545" d="M61 107V170H232V230H61V293H205L18 627H115L275 319L435 627H524L343 293H488V230H316V170H488V107H316V0H232V107H61Z" />
<glyph unicode="&#xa6;" glyph-name="brokenbar" horiz-adv-x="207" d="M137 707V380H70V707H137ZM137 247V-80H70V247H137Z" />
<glyph unicode="&#xa7;" glyph-name="section" horiz-adv-x="467" d="M246 574Q191 574 166 562T141 521Q141 503 154 491T202 465L360 404Q402 388 420 364T439 303Q439 268 422 236T373 182Q389 168 396 150T403 107Q403 50 360 20T234 -10Q188 -10 149 -5T75
10V74Q110 63 146 58T219 53Q276 53 301 65T326 106Q326 124 313 136T264 162L115 218Q69 235 49 260T28 324Q28 359 45 391T94 446Q79 459 72 477T64 520Q64 576 107 606T232 637Q280 637 319 633T391 618V554Q358 564 321 569T246 574ZM151 276L318 212L321 211Q343
227 355 247T368 288Q368 313 358 326T315 352L148 416Q148 416 148 416T146 417Q124 399 112 379T99 339Q99 314 109 301T151 276Z" />
<glyph unicode="&#xa8;" glyph-name="dieresis" horiz-adv-x="360" d="M310 642V564H228V642H310ZM133 642V564H50V642H133Z" />
<glyph unicode="&#xa9;" glyph-name="copyright" horiz-adv-x="702" d="M660 314Q660 156 582 73T352 -10Q198 -10 120 71T42 314Q42 473 121 555T352 637Q505 637 582 556T660 314ZM600 314Q600 448 539 514T353 580Q227 580 165 514T103 314Q103 181 164 116T353
51Q478 51 539 116T600 314ZM372 201Q394 201 418 206T466 221V158Q445 148 418 143T360 137Q267 137 227 179T187 316Q187 407 231 450T369 494Q391 494 411 492T457 484V423Q435 427 416 429T370 431Q313 431 289 404T265 316Q265 253 289 227T372 201Z" />
<glyph unicode="&#xaa;" glyph-name="ordfeminine" horiz-adv-x="348" d="M289 355H237L235 381H233Q210 366 186 358T138 350Q94 350 72 371T50 436Q50 480 75 499T161 519Q180 519 199 518T233 513V535Q233 562 217 574T166 586Q137 586 117 584T78 578V627Q101
632 125 634T182 637Q236 637 262 614T289 543V355ZM167 478Q132 478 118 469T104 439Q104 418 116 408T154 398Q175 398 197 404T233 420V473Q220 476 204 477T167 478ZM292 255H51V305H292V255Z" />
<glyph unicode="&#xab;" glyph-name="guillemotleft" horiz-adv-x="482" d="M249 64H171L22 281L171 494H249L101 282L249 64ZM455 64H377L228 281L377 494H455L308 282L455 64Z" />
<glyph unicode="&#xac;" glyph-name="logicalnot" horiz-adv-x="500" d="M463 392V131H383V315H37V392H463Z" />
<glyph unicode="&#xad;" glyph-name="uni00AD" horiz-adv-x="429" d="M374 350V286H55V350H374Z" />
<glyph unicode="&#xae;" glyph-name="registered" horiz-adv-x="435" d="M397 454Q397 363 352 317T218 270Q128 270 83 316T38 454Q38 544 84 590T219 637Q308 637 352 592T397 454ZM351 454Q351 526 319 560T219 595Q151 595 119 561T86 454Q86 383 118 349T219
315Q286 315 318 349T351 454ZM188 422V354H145V556H217Q264 556 282 540T301 489Q301 464 290 449T257 427L306 354H252L211 422H188ZM257 489Q257 503 248 510T217 517H188V458H217Q239 458 248 465T257 489Z" />
<glyph unicode="&#xaf;" glyph-name="overscore" horiz-adv-x="345" d="M295 633V569H50V633H295Z" />
<glyph unicode="&#xb0;" glyph-name="degree" horiz-adv-x="338" d="M303 500Q303 439 267 403T169 366Q108 366 72 402T35 500Q35 560 72 597T169 634Q229 634 266 597T303 500ZM90 500Q90 463 111 441T169 419Q205 419 226 441T248 500Q248 537 227 559T169
581Q133 581 112 559T90 500Z" />
<glyph unicode="&#xb1;" glyph-name="plusminus" horiz-adv-x="500" d="M463 450V372H290V219H210V372H37V450H210V601H290V450H463ZM463 139V61H37V139H463Z" />
<glyph unicode="&#xb2;" glyph-name="uni00B2" horiz-adv-x="295" d="M264 330V270H25V330L162 467Q180 486 188 502T196 534Q196 554 183 564T146 575Q123 575 90 571T44 564V620Q67 626 96 629T156 633Q206 633 233 609T260 540Q260 512 250 490T214 442L102 330H264Z" />
<glyph unicode="&#xb3;" glyph-name="uni00B3" horiz-adv-x="293" d="M246 542Q246 509 230 488T184 459V457Q222 455 242 433T262 371Q262 320 229 293T134 265Q100 265 73 268T28 277V330Q48 326 70 324T123 322Q165 322 184 335T203 376Q203 402 187 414T134
427H73V479H120Q152 479 170 492T188 531Q188 556 174 567T128 578Q108 578 80 575T39 568V619Q58 625 86 629T145 633Q194 633 220 610T246 542Z" />
<glyph unicode="&#xb4;" glyph-name="acute" horiz-adv-x="307" d="M153 686H257L126 564H50L153 686Z" />
<glyph unicode="&#xb5;" glyph-name="mu" horiz-adv-x="551" d="M235 -8Q199 -8 177 2T148 32Q148 -38 154 -78T176 -152H92Q78 -117 72 -74T66 60V494H148V166Q148 114 172 92T253 69Q288 69 326 78T400 106V494H482V0H407L403 43Q357 17 316 5T235 -8Z" />
<glyph unicode="&#xb6;" glyph-name="paragraph" horiz-adv-x="482" d="M414 627V9Q414 -72 374 -117T259 -162Q236 -162 220 -161T185 -157V-84Q210 -87 218 -87T233 -88Q287 -88 309 -66T332 9V140Q303 134 275 131T218 127Q113 127 71 184T28 383Q28 522 83
580T270 639Q306 639 339 637T414 627ZM270 560Q176 560 143 523T110 383Q110 278 136 241T236 204Q258 204 283 206T332 214V558Q319 559 303 559T270 560Z" />
<glyph unicode="&#xb7;" glyph-name="middot" horiz-adv-x="194" d="M138 276H56V359H138V276Z" />
<glyph unicode="&#xb8;" glyph-name="cedilla" horiz-adv-x="325" d="M278 -115Q278 -156 252 -175T166 -195Q133 -195 102 -192T60 -183V-132Q71 -136 98 -139T153 -143Q182 -143 193 -137T205 -113Q205 -99 191 -93T145 -86Q133 -86 115 -87T96 -88L116 15L180
9L168 -47Q222 -45 250 -62T278 -115Z" />
<glyph unicode="&#xb9;" glyph-name="uni00B9" horiz-adv-x="243" d="M191 270H127V571L17 558V612L191 633V270Z" />
<glyph unicode="&#xba;" glyph-name="ordmasculine" horiz-adv-x="374" d="M324 493Q324 420 291 385T188 350Q115 350 83 383T51 493Q51 568 84 602T188 637Q260 637 292 603T324 493ZM108 494Q108 442 125 422T188 402Q231 402 249 423T267 494Q267 546 250
566T188 586Q144 586 126 565T108 494ZM317 255H56V305H317V255Z" />
<glyph unicode="&#xbb;" glyph-name="guillemotright" horiz-adv-x="482" d="M460 281L311 64H233L381 282L233 494H311L460 281ZM254 281L105 64H27L174 282L27 494H105L254 281Z" />
<glyph unicode="&#xbc;" glyph-name="onequarter" horiz-adv-x="721" d="M193 270H129V571L19 558V612L193 633V270ZM505 627L205 0H144L444 627H505ZM699 145V89H650V0H587V89H416V145L462 357H522L479 145H589V295H650V145H699Z" />
<glyph unicode="&#xbd;" glyph-name="onehalf" horiz-adv-x="715" d="M193 270H129V571L19 558V612L193 633V270ZM505 627L205 0H144L444 627H505ZM681 60V0H442V60L579 197Q597 216 605 232T613 264Q613 284 600 294T563 305Q540 305 507 301T461 294V350Q484
356 513 359T573 363Q623 363 650 339T677 270Q677 242 667 220T631 172L519 60H681Z" />
<glyph unicode="&#xbe;" glyph-name="threequarters" horiz-adv-x="755" d="M248 542Q248 509 232 488T186 459V457Q224 455 244 433T264 371Q264 320 231 293T136 265Q102 265 75 268T30 277V330Q50 326 72 324T125 322Q167 322 186 335T205 376Q205 402 189
414T136 427H75V479H122Q154 479 172 492T190 531Q190 556 176 567T130 578Q110 578 82 575T41 568V619Q60 625 88 629T147 633Q196 633 222 610T248 542ZM541 627L241 0H180L480 627H541ZM735 145V89H686V0H623V89H452V145L498 357H558L515 145H625V295H686V145H735Z"
/>
<glyph unicode="&#xbf;" glyph-name="questiondown" horiz-adv-x="376" d="M175 413V494H262V413H175ZM193 -143Q112 -143 67 -108T22 -8Q22 51 60 101T180 199V321H255V164Q172 122 137 86T102 10Q102 -27 128 -46T205 -66Q242 -66 283 -59T356 -39V-115Q318
-129 279 -136T193 -143Z" />
<glyph unicode="&#xc0;" glyph-name="Agrave" horiz-adv-x="598" d="M98 0H8L256 627H344L589 0H499L442 151H155L98 0ZM298 549Q288 514 275 475T247 397L183 226H414L350 397Q330 452 319 486T298 549ZM294 679L165 791H269L370 679H294Z" />
<glyph unicode="&#xc1;" glyph-name="Aacute" horiz-adv-x="598" d="M98 0H8L256 627H344L589 0H499L442 151H155L98 0ZM298 549Q288 514 275 475T247 397L183 226H414L350 397Q330 452 319 486T298 549ZM329 791H433L304 679H228L329 791Z" />
<glyph unicode="&#xc2;" glyph-name="Acircumflex" horiz-adv-x="598" d="M98 0H8L256 627H344L589 0H499L442 151H155L98 0ZM298 549Q288 514 275 475T247 397L183 226H414L350 397Q330 452 319 486T298 549ZM461 679H387L299 742L213 679H138L257 791H342L461 679Z" />
<glyph unicode="&#xc3;" glyph-name="Atilde" horiz-adv-x="598" d="M98 0H8L256 627H344L589 0H499L442 151H155L98 0ZM298 549Q288 514 275 475T247 397L183 226H414L350 397Q330 452 319 486T298 549ZM390 780H446Q446 731 426 703T366 675Q348 675 331 681T286
707Q267 720 258 724T241 728Q225 728 216 715T207 679H151Q151 728 172 756T232 784Q250 784 267 778T313 752Q332 739 340 735T357 731Q373 731 381 744T390 780Z" />
<glyph unicode="&#xc4;" glyph-name="Adieresis" horiz-adv-x="598" d="M98 0H8L256 627H344L589 0H499L442 151H155L98 0ZM298 549Q288 514 275 475T247 397L183 226H414L350 397Q330 452 319 486T298 549ZM429 751V679H347V751H429ZM252 751V679H169V751H252Z" />
<glyph unicode="&#xc5;" glyph-name="Aring" horiz-adv-x="598" d="M98 0H8L256 627H344L589 0H499L442 151H155L98 0ZM298 549Q288 514 275 475T247 397L183 226H414L350 397Q330 452 319 486T298 549ZM412 757Q412 719 382 696T299 673Q248 673 218 696T187
757Q187 794 217 816T299 838Q351 838 381 816T412 757ZM238 757Q238 738 254 728T299 717Q328 717 345 728T362 757Q362 775 345 785T299 795Q270 795 254 785T238 757Z" />
<glyph unicode="&#xc6;" glyph-name="AE" horiz-adv-x="740" d="M98 0H8L246 627H696V550H364L434 358H659V283H461L535 80H705V0H479L423 151H154L98 0ZM288 543Q279 511 268 475T244 397L181 225H396L333 397Q322 428 310 466T288 543Z" />
<glyph unicode="&#xc7;" glyph-name="Ccedilla" horiz-adv-x="518" d="M427 -115Q427 -156 401 -175T315 -195Q282 -195 251 -192T209 -183V-132Q220 -136 247 -139T302 -143Q331 -143 342 -137T354 -113Q354 -99 340 -93T294 -86Q282 -86 264 -87T245 -88L261
-6Q144 4 94 79T44 315Q44 482 112 559T331 637Q377 637 413 635T478 628V553Q443 557 408 558T331 560Q219 560 175 505T131 315Q131 179 171 126T321 72Q362 72 407 81T492 107V31Q445 12 406 3T325 -8L317 -47Q371 -45 399 -62T427 -115Z" />
<glyph unicode="&#xc8;" glyph-name="Egrave" horiz-adv-x="523" d="M488 80V0H72V627H479V550H157V358H442V283H157V80H488ZM280 679L151 791H255L356 679H280Z" />
<glyph unicode="&#xc9;" glyph-name="Eacute" horiz-adv-x="523" d="M488 80V0H72V627H479V550H157V358H442V283H157V80H488ZM315 791H419L290 679H214L315 791Z" />
<glyph unicode="&#xca;" glyph-name="Ecircumflex" horiz-adv-x="523" d="M488 80V0H72V627H479V550H157V358H442V283H157V80H488ZM447 679H373L285 742L199 679H124L243 791H328L447 679Z" />
<glyph unicode="&#xcb;" glyph-name="Edieresis" horiz-adv-x="523" d="M488 80V0H72V627H479V550H157V358H442V283H157V80H488ZM415 751V679H333V751H415ZM238 751V679H155V751H238Z" />
<glyph unicode="&#xcc;" glyph-name="Igrave" horiz-adv-x="229" d="M157 627V0H72V627H157ZM366 679L237 791H341L442 679H366Z" />
<glyph unicode="&#xcd;" glyph-name="Iacute" horiz-adv-x="229" d="M157 627V0H72V627H157ZM401 791H505L376 679H300L401 791Z" />
<glyph unicode="&#xce;" glyph-name="Icircumflex" horiz-adv-x="229" d="M157 627V0H72V627H157ZM533 679H459L371 742L285 679H210L329 791H414L533 679Z" />
<glyph unicode="&#xcf;" glyph-name="Idieresis" horiz-adv-x="229" d="M157 627V0H72V627H157ZM501 751V679H419V751H501ZM324 751V679H241V751H324Z" />
<glyph unicode="&#xd0;" glyph-name="Eth" horiz-adv-x="624" d="M20 291V351H90V627H272Q368 627 424 611T515 560Q549 525 564 466T580 314Q580 151 507 76T272 0H90V291H20ZM339 351V291H175V80H272Q396 80 444 133T493 314Q493 385 483 429T451 499Q428 526
387 538T272 550H175V351H339Z" />
<glyph unicode="&#xd1;" glyph-name="Ntilde" horiz-adv-x="657" d="M585 627V0H499L152 488V0H72V627H158L505 132V627H585ZM425 780H481Q481 731 461 703T401 675Q383 675 366 681T321 707Q302 720 293 724T276 728Q260 728 251 715T242 679H186Q186 728 207
756T267 784Q285 784 302 778T348 752Q367 739 375 735T392 731Q408 731 416 744T425 780Z" />
<glyph unicode="&#xd2;" glyph-name="Ograve" horiz-adv-x="649" d="M604 315Q604 144 539 68T325 -8Q166 -8 106 62T45 315Q45 485 111 561T325 637Q484 637 544 567T604 315ZM161 134Q180 100 217 86T325 72Q436 72 477 125T518 315Q518 383 511 426T489 497Q470
531 434 545T325 560Q213 560 172 506T131 315Q131 247 138 204T161 134ZM320 689L191 801H295L396 689H320Z" />
<glyph unicode="&#xd3;" glyph-name="Oacute" horiz-adv-x="649" d="M604 315Q604 144 539 68T325 -8Q166 -8 106 62T45 315Q45 485 111 561T325 637Q484 637 544 567T604 315ZM161 134Q180 100 217 86T325 72Q436 72 477 125T518 315Q518 383 511 426T489 497Q470
531 434 545T325 560Q213 560 172 506T131 315Q131 247 138 204T161 134ZM355 801H459L330 689H254L355 801Z" />
<glyph unicode="&#xd4;" glyph-name="Ocircumflex" horiz-adv-x="649" d="M604 315Q604 144 539 68T325 -8Q166 -8 106 62T45 315Q45 485 111 561T325 637Q484 637 544 567T604 315ZM161 134Q180 100 217 86T325 72Q436 72 477 125T518 315Q518 383 511 426T489
497Q470 531 434 545T325 560Q213 560 172 506T131 315Q131 247 138 204T161 134ZM487 689H413L325 752L239 689H164L283 801H368L487 689Z" />
<glyph unicode="&#xd5;" glyph-name="Otilde" horiz-adv-x="649" d="M604 315Q604 144 539 68T325 -8Q166 -8 106 62T45 315Q45 485 111 561T325 637Q484 637 544 567T604 315ZM161 134Q180 100 217 86T325 72Q436 72 477 125T518 315Q518 383 511 426T489 497Q470
531 434 545T325 560Q213 560 172 506T131 315Q131 247 138 204T161 134ZM416 790H472Q472 741 452 713T392 685Q374 685 357 691T312 717Q293 730 284 734T267 738Q251 738 242 725T233 689H177Q177 738 198 766T258 794Q276 794 293 788T339 762Q358 749 366
745T383 741Q399 741 407 754T416 790Z" />
<glyph unicode="&#xd6;" glyph-name="Odieresis" horiz-adv-x="649" d="M604 315Q604 144 539 68T325 -8Q166 -8 106 62T45 315Q45 485 111 561T325 637Q484 637 544 567T604 315ZM161 134Q180 100 217 86T325 72Q436 72 477 125T518 315Q518 383 511 426T489
497Q470 531 434 545T325 560Q213 560 172 506T131 315Q131 247 138 204T161 134ZM455 761V689H373V761H455ZM278 761V689H195V761H278Z" />
<glyph unicode="&#xd7;" glyph-name="multiply" horiz-adv-x="500" d="M43 474L99 530L251 378L404 531L459 476L306 323L460 169L404 113L250 267L96 113L41 168L195 322L43 474Z" />
<glyph unicode="&#xd8;" glyph-name="Oslash" horiz-adv-x="649" d="M100 -55L51 -23L107 60Q75 97 60 158T45 315Q45 485 111 561T325 637Q376 637 415 631T484 611L541 694L590 663L532 579Q570 543 587 480T604 315Q604 144 539 68T325 -8Q267 -8 226 0T154
24L100 -55ZM325 560Q213 560 172 506T131 315Q131 249 137 206T159 136L438 544Q418 552 391 556T325 560ZM325 72Q436 72 477 125T518 315Q518 389 510 434T483 507L201 94Q221 82 250 77T325 72Z" />
<glyph unicode="&#xd9;" glyph-name="Ugrave" horiz-adv-x="633" d="M482 250V627H567V250Q567 118 506 55T315 -8Q185 -8 126 53T66 250V627H151V250Q151 151 187 112T315 72Q407 72 444 111T482 250ZM309 679L180 791H284L385 679H309Z" />
<glyph unicode="&#xda;" glyph-name="Uacute" horiz-adv-x="633" d="M482 250V627H567V250Q567 118 506 55T315 -8Q185 -8 126 53T66 250V627H151V250Q151 151 187 112T315 72Q407 72 444 111T482 250ZM344 791H448L319 679H243L344 791Z" />
<glyph unicode="&#xdb;" glyph-name="Ucircumflex" horiz-adv-x="633" d="M482 250V627H567V250Q567 118 506 55T315 -8Q185 -8 126 53T66 250V627H151V250Q151 151 187 112T315 72Q407 72 444 111T482 250ZM476 679H402L314 742L228 679H153L272 791H357L476 679Z" />
<glyph unicode="&#xdc;" glyph-name="Udieresis" horiz-adv-x="633" d="M482 250V627H567V250Q567 118 506 55T315 -8Q185 -8 126 53T66 250V627H151V250Q151 151 187 112T315 72Q407 72 444 111T482 250ZM444 751V679H362V751H444ZM267 751V679H184V751H267Z" />
<glyph unicode="&#xdd;" glyph-name="Yacute" horiz-adv-x="575" d="M476 627H564L331 238V0H246V238L7 627H103L290 314L476 627ZM320 791H424L295 679H219L320 791Z" />
<glyph unicode="&#xde;" glyph-name="Thorn" horiz-adv-x="572" d="M157 105V0H72V627H157V528H285Q418 528 475 480T533 323Q533 212 473 159T288 105H157ZM447 323Q447 392 410 421T285 451H157V180H285Q371 180 409 214T447 323Z" />
<glyph unicode="&#xdf;" glyph-name="germandbls" horiz-adv-x="585" d="M264 677Q360 677 405 644T451 540Q451 521 447 498T435 449L404 338L459 321Q510 305 528 273T547 175Q547 80 506 35T375 -10Q340 -10 310 -7T258 3V78Q282 72 308 69T364 66Q422 66 445
91T469 175Q469 213 458 231T416 258L315 287L356 453Q365 485 367 498T369 523Q369 564 344 583T264 603Q201 603 175 578T148 489V0H66V490Q66 587 113 632T264 677Z" />
<glyph unicode="&#xe0;" glyph-name="agrave" horiz-adv-x="493" d="M178 -8Q102 -8 67 28T31 144Q31 224 74 257T220 291Q254 291 287 288T349 279V327Q349 382 321 406T231 430Q185 430 150 427T80 415V486Q120 496 161 500T256 504Q345 504 388 463T431 334V0H356L352
46H350Q320 22 273 7T178 -8ZM229 224Q161 224 135 208T108 149Q108 105 130 86T202 66Q241 66 282 78T349 108V214Q316 219 288 221T229 224ZM241 564L110 686H214L317 564H241Z" />
<glyph unicode="&#xe1;" glyph-name="aacute" horiz-adv-x="493" d="M178 -8Q102 -8 67 28T31 144Q31 224 74 257T220 291Q254 291 287 288T349 279V327Q349 382 321 406T231 430Q185 430 150 427T80 415V486Q120 496 161 500T256 504Q345 504 388 463T431 334V0H356L352
46H350Q320 22 273 7T178 -8ZM229 224Q161 224 135 208T108 149Q108 105 130 86T202 66Q241 66 282 78T349 108V214Q316 219 288 221T229 224ZM278 686H382L251 564H175L278 686Z" />
<glyph unicode="&#xe2;" glyph-name="acircumflex" horiz-adv-x="493" d="M178 -8Q102 -8 67 28T31 144Q31 224 74 257T220 291Q254 291 287 288T349 279V327Q349 382 321 406T231 430Q185 430 150 427T80 415V486Q120 496 161 500T256 504Q345 504 388 463T431
334V0H356L352 46H350Q320 22 273 7T178 -8ZM229 224Q161 224 135 208T108 149Q108 105 130 86T202 66Q241 66 282 78T349 108V214Q316 219 288 221T229 224ZM408 564H334L246 637L160 564H85L204 686H289L408 564Z" />
<glyph unicode="&#xe3;" glyph-name="atilde" horiz-adv-x="493" d="M178 -8Q102 -8 67 28T31 144Q31 224 74 257T220 291Q254 291 287 288T349 279V327Q349 382 321 406T231 430Q185 430 150 427T80 415V486Q120 496 161 500T256 504Q345 504 388 463T431 334V0H356L352
46H350Q320 22 273 7T178 -8ZM229 224Q161 224 135 208T108 149Q108 105 130 86T202 66Q241 66 282 78T349 108V214Q316 219 288 221T229 224ZM337 684H393Q393 626 373 593T313 560Q295 560 277 568T231 602Q212 620 203 625T186 630Q170 630 162 614T154 564H98Q98
622 119 655T179 688Q197 688 215 680T261 646Q281 628 290 623T307 618Q322 618 329 633T337 684Z" />
<glyph unicode="&#xe4;" glyph-name="adieresis" horiz-adv-x="493" d="M178 -8Q102 -8 67 28T31 144Q31 224 74 257T220 291Q254 291 287 288T349 279V327Q349 382 321 406T231 430Q185 430 150 427T80 415V486Q120 496 161 500T256 504Q345 504 388 463T431
334V0H356L352 46H350Q320 22 273 7T178 -8ZM229 224Q161 224 135 208T108 149Q108 105 130 86T202 66Q241 66 282 78T349 108V214Q316 219 288 221T229 224ZM376 642V564H294V642H376ZM199 642V564H116V642H199Z" />
<glyph unicode="&#xe5;" glyph-name="aring" horiz-adv-x="493" d="M178 -8Q102 -8 67 28T31 144Q31 224 74 257T220 291Q254 291 287 288T349 279V327Q349 382 321 406T231 430Q185 430 150 427T80 415V486Q120 496 161 500T256 504Q345 504 388 463T431 334V0H356L352
46H350Q320 22 273 7T178 -8ZM229 224Q161 224 135 208T108 149Q108 105 130 86T202 66Q241 66 282 78T349 108V214Q316 219 288 221T229 224ZM359 639Q359 595 329 569T246 543Q194 543 164 569T134 639Q134 681 164 706T246 731Q298 731 328 706T359 639ZM185
639Q185 616 201 604T246 591Q276 591 292 603T309 639Q309 660 292 672T246 685Q217 685 201 673T185 639Z" />
<glyph unicode="&#xe6;" glyph-name="ae" horiz-adv-x="766" d="M178 -8Q103 -8 67 28T31 141Q31 220 73 253T217 286H332V327Q332 382 307 406T224 430Q180 430 146 427T80 415V486Q120 496 159 500T249 504Q299 504 331 488T381 437Q407 470 446 487T538 504Q638
504 681 456T725 298Q725 273 724 256T721 220H412Q413 138 443 103T549 68Q589 68 633 76T704 96V27Q679 13 631 3T535 -8Q476 -8 436 9T372 62Q335 29 285 11T178 -8ZM650 309Q649 375 624 402T538 430Q469 430 441 398T412 286H649Q650 289 650 294T650 309ZM109
145Q109 102 130 84T200 66Q240 66 279 80T348 117Q341 138 338 164T333 220H222Q157 220 133 204T109 145Z" />
<glyph unicode="&#xe7;" glyph-name="ccedilla" horiz-adv-x="439" d="M374 -115Q374 -156 348 -175T262 -195Q229 -195 198 -192T156 -183V-132Q167 -136 194 -139T249 -143Q278 -143 289 -137T301 -113Q301 -99 287 -93T241 -86Q229 -86 211 -87T192 -88L208
-7Q118 -1 81 56T43 248Q43 387 98 445T285 504Q314 504 337 503T398 496V423Q361 428 338 429T285 430Q191 430 158 392T125 248Q125 143 151 106T251 68Q292 68 336 76T411 98V29Q390 17 353 7T273 -6L264 -47Q318 -45 346 -62T374 -115Z" />
<glyph unicode="&#xe8;" glyph-name="egrave" horiz-adv-x="498" d="M437 96V27Q411 13 361 3T258 -8Q142 -8 92 52T42 250Q42 383 94 443T260 504Q366 504 412 457T458 298Q458 278 457 261T453 220H125Q126 138 158 103T271 68Q314 68 361 76T437 96ZM383 309Q382
375 354 402T260 430Q186 430 156 399T125 288H382Q382 290 382 297T383 309ZM256 564L125 686H229L332 564H256Z" />
<glyph unicode="&#xe9;" glyph-name="eacute" horiz-adv-x="498" d="M437 96V27Q411 13 361 3T258 -8Q142 -8 92 52T42 250Q42 383 94 443T260 504Q366 504 412 457T458 298Q458 278 457 261T453 220H125Q126 138 158 103T271 68Q314 68 361 76T437 96ZM383 309Q382
375 354 402T260 430Q186 430 156 399T125 288H382Q382 290 382 297T383 309ZM293 686H397L266 564H190L293 686Z" />
<glyph unicode="&#xea;" glyph-name="ecircumflex" horiz-adv-x="498" d="M437 96V27Q411 13 361 3T258 -8Q142 -8 92 52T42 250Q42 383 94 443T260 504Q366 504 412 457T458 298Q458 278 457 261T453 220H125Q126 138 158 103T271 68Q314 68 361 76T437 96ZM383
309Q382 375 354 402T260 430Q186 430 156 399T125 288H382Q382 290 382 297T383 309ZM423 564H349L261 637L175 564H100L219 686H304L423 564Z" />
<glyph unicode="&#xeb;" glyph-name="edieresis" horiz-adv-x="498" d="M437 96V27Q411 13 361 3T258 -8Q142 -8 92 52T42 250Q42 383 94 443T260 504Q366 504 412 457T458 298Q458 278 457 261T453 220H125Q126 138 158 103T271 68Q314 68 361 76T437 96ZM383
309Q382 375 354 402T260 430Q186 430 156 399T125 288H382Q382 290 382 297T383 309ZM391 642V564H309V642H391ZM214 642V564H131V642H214Z" />
<glyph unicode="&#xec;" glyph-name="igrave" horiz-adv-x="214" d="M148 0H66V494H148V0ZM358 810L227 932H331L434 810H358Z" />
<glyph unicode="&#xed;" glyph-name="iacute" horiz-adv-x="214" d="M148 0H66V494H148V0ZM395 932H499L368 810H292L395 932Z" />
<glyph unicode="&#xee;" glyph-name="icircumflex" horiz-adv-x="214" d="M148 0H66V494H148V0ZM525 810H451L363 883L277 810H202L321 932H406L525 810Z" />
<glyph unicode="&#xef;" glyph-name="idieresis" horiz-adv-x="214" d="M148 0H66V494H148V0ZM493 888V810H411V888H493ZM316 888V810H233V888H316Z" />
<glyph unicode="&#xf0;" glyph-name="eth" horiz-adv-x="549" d="M500 241Q500 104 449 48T272 -8Q143 -8 93 46T43 241Q43 378 94 434T272 490Q306 490 335 486T388 472Q379 495 368 518T341 565L159 523V572L311 607Q299 622 286 636T259 665H351Q358 658 365
650T386 624L488 648V598L417 582Q461 514 480 433T500 241ZM125 242Q125 136 154 102T272 68Q358 68 388 104T418 242Q418 263 418 272T417 289H416V295Q410 365 381 390T272 416Q185 416 155 381T125 242Z" />
<glyph unicode="&#xf1;" glyph-name="ntilde" horiz-adv-x="554" d="M148 0H66V494H137L141 446H144Q184 476 227 490T325 504Q407 504 449 463T492 342V0H410V332Q410 382 382 406T296 430Q260 430 223 419T148 385V0ZM370 684H426Q426 626 406 593T346 560Q328
560 310 568T264 602Q245 620 236 625T219 630Q203 630 195 614T187 564H131Q131 622 152 655T212 688Q230 688 248 680T294 646Q314 628 323 623T340 618Q355 618 362 633T370 684Z" />
<glyph unicode="&#xf2;" glyph-name="ograve" horiz-adv-x="543" d="M500 248Q500 108 449 50T272 -8Q143 -8 93 48T43 248Q43 389 94 446T272 504Q401 504 450 448T500 248ZM125 249Q125 139 154 104T272 68Q358 68 388 105T418 249Q418 359 390 394T272 430Q185
430 155 393T125 249ZM267 564L136 686H240L343 564H267Z" />
<glyph unicode="&#xf3;" glyph-name="oacute" horiz-adv-x="543" d="M500 248Q500 108 449 50T272 -8Q143 -8 93 48T43 248Q43 389 94 446T272 504Q401 504 450 448T500 248ZM125 249Q125 139 154 104T272 68Q358 68 388 105T418 249Q418 359 390 394T272 430Q185
430 155 393T125 249ZM304 686H408L277 564H201L304 686Z" />
<glyph unicode="&#xf4;" glyph-name="ocircumflex" horiz-adv-x="543" d="M500 248Q500 108 449 50T272 -8Q143 -8 93 48T43 248Q43 389 94 446T272 504Q401 504 450 448T500 248ZM125 249Q125 139 154 104T272 68Q358 68 388 105T418 249Q418 359 390 394T272
430Q185 430 155 393T125 249ZM434 564H360L272 637L186 564H111L230 686H315L434 564Z" />
<glyph unicode="&#xf5;" glyph-name="otilde" horiz-adv-x="543" d="M500 248Q500 108 449 50T272 -8Q143 -8 93 48T43 248Q43 389 94 446T272 504Q401 504 450 448T500 248ZM125 249Q125 139 154 104T272 68Q358 68 388 105T418 249Q418 359 390 394T272 430Q185
430 155 393T125 249ZM363 684H419Q419 626 399 593T339 560Q321 560 303 568T257 602Q238 620 229 625T212 630Q196 630 188 614T180 564H124Q124 622 145 655T205 688Q223 688 241 680T287 646Q307 628 316 623T333 618Q348 618 355 633T363 684Z" />
<glyph unicode="&#xf6;" glyph-name="odieresis" horiz-adv-x="543" d="M500 248Q500 108 449 50T272 -8Q143 -8 93 48T43 248Q43 389 94 446T272 504Q401 504 450 448T500 248ZM125 249Q125 139 154 104T272 68Q358 68 388 105T418 249Q418 359 390 394T272 430Q185
430 155 393T125 249ZM402 642V564H320V642H402ZM225 642V564H142V642H225Z" />
<glyph unicode="&#xf7;" glyph-name="divide" horiz-adv-x="500" d="M463 361V283H37V361H463ZM295 90H213V173H295V90ZM295 468H213V551H295V468Z" />
<glyph unicode="&#xf8;" glyph-name="oslash" horiz-adv-x="544" d="M92 -66L45 -33L97 43Q69 72 56 121T43 248Q43 389 94 446T272 504Q315 504 346 499T401 483L453 558L500 525L448 450Q475 422 487 373T500 248Q500 108 449 50T272 -8Q232 -8 201 -4T146 11L92
-66ZM272 430Q185 430 155 393T125 249Q125 197 130 165T148 112L358 418Q343 424 323 427T272 430ZM272 68Q358 68 388 105T418 249Q418 300 413 331T398 381L190 79Q204 73 224 71T272 68Z" />
<glyph unicode="&#xf9;" glyph-name="ugrave" horiz-adv-x="538" d="M226 -8Q144 -8 103 33T62 156V494H144V166Q144 115 170 92T252 69Q286 69 320 77T390 104V494H472V0H397L393 41H391Q339 14 301 3T226 -8ZM264 810L133 932H237L340 810H264Z" />
<glyph unicode="&#xfa;" glyph-name="uacute" horiz-adv-x="538" d="M226 -8Q144 -8 103 33T62 156V494H144V166Q144 115 170 92T252 69Q286 69 320 77T390 104V494H472V0H397L393 41H391Q339 14 301 3T226 -8ZM301 676H405L274 554H198L301 676Z" />
<glyph unicode="&#xfb;" glyph-name="ucircumflex" horiz-adv-x="538" d="M226 -8Q144 -8 103 33T62 156V494H144V166Q144 115 170 92T252 69Q286 69 320 77T390 104V494H472V0H397L393 41H391Q339 14 301 3T226 -8ZM431 810H357L269 883L183 810H108L227 932H312L431
810Z" />
<glyph unicode="&#xfc;" glyph-name="udieresis" horiz-adv-x="538" d="M226 -8Q144 -8 103 33T62 156V494H144V166Q144 115 170 92T252 69Q286 69 320 77T390 104V494H472V0H397L393 41H391Q339 14 301 3T226 -8ZM399 888V810H317V888H399ZM222 888V810H139V888H222Z" />
<glyph unicode="&#xfd;" glyph-name="yacute" horiz-adv-x="495" d="M111 -88Q149 -88 168 -72T210 7L8 494H100L252 89L396 494H484L282 -33Q255 -105 219 -133T126 -162Q109 -162 91 -160T54 -155V-83Q65 -86 78 -87T111 -88ZM285 676H389L258 554H182L285 676Z" />
<glyph unicode="&#xfe;" glyph-name="thorn" horiz-adv-x="541" d="M148 -152H66V665H148V456Q178 480 219 492T311 504Q412 504 455 444T499 248Q499 112 446 52T269 -8Q232 -8 202 -3T148 12V-152ZM417 248Q417 350 389 390T282 430Q245 430 211 421T148 392V88Q173
78 199 73T259 68Q352 68 384 106T417 248Z" />
<glyph unicode="&#xff;" glyph-name="ydieresis" horiz-adv-x="495" d="M111 -88Q149 -88 168 -72T210 7L8 494H100L252 89L396 494H484L282 -33Q255 -105 219 -133T126 -162Q109 -162 91 -160T54 -155V-83Q65 -86 78 -87T111 -88ZM383 888V810H301V888H383ZM206
888V810H123V888H206Z" />
<glyph unicode="&#x2013;" glyph-name="endash" horiz-adv-x="519" d="M464 350V286H55V350H464Z" />
<glyph unicode="&#x2014;" glyph-name="emdash" horiz-adv-x="799" d="M744 350V286H55V350H744Z" />
<glyph unicode="&#x2018;" glyph-name="quoteleft" horiz-adv-x="165" d="M37 440L62 595Q65 611 74 619T99 627H120L115 440H37Z" />
<glyph unicode="&#x2019;" glyph-name="quoteright" horiz-adv-x="161" d="M129 627L104 472Q101 456 92 448T67 440H46L51 627H129Z" />
<glyph unicode="&#x201a;" glyph-name="quotesinglbase" horiz-adv-x="162" d="M122 68L97 -87Q94 -103 85 -111T60 -119H39L44 68H122Z" />
<glyph unicode="&#x201c;" glyph-name="quotedblleft" horiz-adv-x="324" d="M37 440L62 595Q65 611 74 619T99 627H120L115 440H37ZM196 440L221 595Q224 611 233 619T258 627H279L274 440H196Z" />
<glyph unicode="&#x201d;" glyph-name="quotedblright" horiz-adv-x="320" d="M288 627L263 472Q260 456 251 448T226 440H205L210 627H288ZM129 627L104 472Q101 456 92 448T67 440H46L51 627H129Z" />
<glyph unicode="&#x201e;" glyph-name="quotedblbase" horiz-adv-x="321" d="M281 68L256 -87Q253 -103 244 -111T219 -119H198L203 68H281ZM122 68L97 -87Q94 -103 85 -111T60 -119H39L44 68H122Z" />
<glyph unicode="&#x2022;" glyph-name="bullet" horiz-adv-x="298" d="M221 258H77V383H221V258Z" />
<glyph unicode="&#x2039;" glyph-name="guilsinglleft" horiz-adv-x="285" d="M258 64H171L22 281L171 494H258L111 282L258 64Z" />
<glyph unicode="&#x203a;" glyph-name="guilsinglright" horiz-adv-x="285" d="M263 281L114 64H27L174 282L27 494H114L263 281Z" />
</font>
</defs>
</svg>
