<?xml version="1.0" standalone="no"?>
<!DOCTYPE svg PUBLIC "-//W3C//DTD SVG 1.1//EN" "http://www.w3.org/Graphics/SVG/1.1/DTD/svg11.dtd">
<svg xmlns="http://www.w3.org/2000/svg">
<defs >
<font id="BIZUDPMincho" horiz-adv-x="1960" ><font-face
    font-family="BIZ UDPMincho"
    units-per-em="2048"
    panose-1="2 2 4 0 0 0 0 0 0 0"
    ascent="1802"
    descent="-246"
    alphabetic="0" />
<glyph unicode=" " horiz-adv-x="683" />
<glyph unicode="!" horiz-adv-x="778" d="M346 449L339 535Q269 1373 269 1467Q269 1531 308 1567Q343 1598 390 1598Q441 1598 477 1561Q510 1526 510 1468Q510 1378 454 704L440 541L432 449H346ZM390 258Q450 258 496 212Q537 169 537 111Q537 69 514 33Q470
-37 389 -37Q354 -37 322 -20Q242 22 242 111Q242 187 306 232Q344 258 390 258Z" />
<glyph unicode="&quot;" horiz-adv-x="1004" d="M149 1194Q286 1323 293 1460Q286 1460 283 1460Q247 1460 215 1477Q143 1517 143 1599Q143 1639 163 1673Q206 1751 292 1751Q357 1751 401 1706Q452 1656 452 1573Q452 1468 395 1359Q328 1230 190 1139L149 1194ZM538
1194Q675 1323 682 1460Q675 1460 672 1460Q636 1460 604 1477Q532 1517 532 1599Q532 1639 552 1673Q595 1751 681 1751Q746 1751 790 1706Q841 1656 841 1573Q841 1468 784 1359Q717 1230 579 1139L538 1194Z" />
<glyph unicode="#" horiz-adv-x="1761" d="M693 1664H809L746 1217H1139L1203 1664H1319L1256 1217H1565V1084H1237L1151 473H1454V340H1133L1069 -106H953L1016 340H623L559 -106H443L506 340H197V473H525L611 1084H308V1217H629L693 1664ZM727 1084L641 473H1035L1121
1084H727Z" />
<glyph unicode="$" horiz-adv-x="1393" d="M637 1710H748V1528Q920 1512 1028 1444Q1131 1378 1131 1294Q1131 1254 1111 1224Q1080 1176 1019 1176Q966 1176 933 1213Q906 1243 906 1284Q906 1351 955 1368Q894 1426 748 1438V903L789 889Q1215 740 1215 440Q1215
225 1030 112Q919 43 748 29V-154H637V29Q447 43 331 116Q188 206 188 350Q188 410 222 446Q256 483 309 483Q354 483 387 454Q428 418 428 359Q428 272 332 246Q423 140 637 119V791Q436 866 348 949Q242 1048 242 1187Q242 1355 387 1450Q481 1513 637 1528V1710ZM748
750V119Q856 132 929 180Q1063 269 1063 427Q1063 555 947 646Q879 699 748 750ZM637 1438Q383 1406 383 1203Q383 1090 458 1030Q510 988 637 942V1438Z" />
<glyph unicode="%" horiz-adv-x="2048" d="M553 1577Q711 1577 809 1445Q895 1329 895 1157Q895 1017 836 911Q740 738 551 738Q391 738 293 869Q207 985 207 1158Q207 1323 285 1435Q384 1577 553 1577ZM550 1497Q467 1497 416 1403Q367 1311 367 1157Q367 1017
409 926Q459 818 552 818Q621 818 669 885Q735 978 735 1156Q735 1314 684 1406Q634 1497 550 1497ZM1555 1608L1637 1553L494 -51L412 4L1555 1608ZM1499 819Q1657 819 1755 687Q1841 571 1841 399Q1841 258 1782 153Q1686 -20 1496 -20Q1337 -20 1239 112Q1153
227 1153 400Q1153 565 1231 677Q1330 819 1499 819ZM1496 739Q1413 739 1362 645Q1313 553 1313 399Q1313 259 1355 168Q1405 60 1498 60Q1567 60 1615 127Q1681 220 1681 398Q1681 555 1630 648Q1580 739 1496 739Z" />
<glyph unicode="&amp;" horiz-adv-x="1782" d="M1597 909V839Q1512 832 1472 784Q1439 744 1409 624Q1346 376 1206 207Q1278 140 1328 112Q1370 89 1416 89Q1532 89 1597 297L1669 262Q1633 111 1578 37Q1510 -54 1402 -54Q1310 -54 1217 12Q1171 44 1108 104Q1031
35 962 1Q849 -54 691 -54Q484 -54 335 45Q133 178 133 420Q133 614 276 748Q354 821 514 911Q395 1136 395 1280Q395 1409 473 1498Q570 1609 741 1609Q828 1609 897 1578Q1057 1505 1057 1321Q1057 1173 933 1057Q853 982 678 887Q764 742 887 578Q1023 398 1130
284Q1221 400 1268 543Q1301 642 1301 704Q1301 772 1239 805Q1193 829 1089 839V909H1597ZM563 827Q424 746 364 665Q295 572 295 427Q295 262 423 163Q545 67 730 67Q893 67 1028 182Q947 273 832 428Q675 639 563 827ZM631 975Q748 1046 833 1120Q918 1193 918
1317Q918 1405 874 1459Q825 1519 742 1519Q655 1519 598 1462Q534 1399 534 1288Q534 1164 631 975Z" />
<glyph unicode="&apos;" horiz-adv-x="614" d="M149 1194Q286 1323 293 1460Q286 1460 283 1460Q247 1460 215 1477Q143 1517 143 1599Q143 1639 163 1673Q206 1751 292 1751Q357 1751 401 1706Q452 1656 452 1573Q452 1468 395 1359Q328 1230 190 1139L149 1194Z" />
<glyph unicode="(" horiz-adv-x="963" d="M708 -195Q525 -30 408 208Q264 501 264 779Q264 1094 445 1420Q555 1616 708 1751H819Q684 1597 603 1467Q395 1135 395 777Q395 439 581 125Q669 -23 819 -195H708Z" />
<glyph unicode=")" horiz-adv-x="963" d="M143 -195Q277 -41 359 90Q567 421 567 777Q567 1117 381 1431Q294 1577 143 1751H254Q437 1585 554 1348Q698 1055 698 778Q698 463 516 137Q407 -60 254 -195H143Z" />
<glyph unicode="*" horiz-adv-x="1024" d="M490 821L426 1198Q423 1216 423 1230Q423 1317 511 1317Q601 1317 601 1230Q601 1215 598 1198L535 821L791 1087Q832 1131 873 1131Q906 1131 934 1100Q961 1069 961 1034Q961 982 897 950L555 778L897 606Q961 574
961 522Q961 490 935 459Q908 425 873 425Q833 425 791 469L535 735L598 358Q601 341 601 326Q601 240 512 240Q423 240 423 326Q423 341 426 358L490 735L234 469Q191 425 151 425Q117 425 90 457Q63 489 63 522Q63 574 127 606L469 778L127 950Q63 982 63 1034Q63
1067 89 1098Q117 1131 151 1131Q192 1131 234 1087L490 821Z" />
<glyph unicode="+" horiz-adv-x="1720" d="M802 1454H917V836H1536V721H917V103H802V721H184V836H802V1454Z" />
<glyph unicode="," horiz-adv-x="676" d="M157 -199Q267 -102 299 37Q243 36 205 64Q145 108 145 190Q145 229 162 263Q208 350 304 350Q366 350 411 307Q464 258 464 175Q464 71 389 -48Q316 -164 198 -244L157 -199Z" />
<glyph unicode="-" horiz-adv-x="1024" d="M102 799H921V676H102V799Z" />
<glyph unicode="." horiz-adv-x="676" d="M305 237Q348 237 387 214Q464 168 464 77Q464 17 424 -28Q376 -82 303 -82Q266 -82 232 -65Q145 -20 145 78Q145 146 195 194Q241 237 305 237Z" />
<glyph unicode="/" horiz-adv-x="1024" d="M842 1720L938 1675L182 -164L86 -119L842 1720Z" />
<glyph unicode="0" horiz-adv-x="1393" d="M699 1596Q936 1596 1087 1359Q1237 1123 1237 753Q1237 476 1146 279Q1095 168 1019 94Q883 -39 695 -39Q432 -39 283 212Q156 424 156 752Q156 1120 304 1356Q455 1596 699 1596ZM695 1508Q543 1508 444 1338Q326 1134
326 753Q326 466 402 286Q501 49 697 49Q873 49 973 246Q1067 431 1067 754Q1067 1144 942 1349Q845 1508 695 1508Z" />
<glyph unicode="1" horiz-adv-x="1065" d="M248 1438V1511Q496 1530 629 1610V260Q629 136 688 105Q736 81 858 74V0H248V74Q407 84 444 122Q477 157 477 260V1335Q477 1412 458 1427Q444 1438 391 1438H248Z" />
<glyph unicode="2" horiz-adv-x="1393" d="M180 0V119Q256 296 394 450Q515 585 635 674L698 721Q867 846 929 939Q1001 1045 1001 1193Q1001 1337 910 1418Q826 1494 685 1494Q549 1494 466 1443Q381 1392 373 1329Q448 1296 448 1215Q448 1164 416 1133Q383
1100 326 1100Q275 1100 241 1136Q205 1175 205 1241Q205 1382 336 1485Q477 1596 685 1596Q897 1596 1029 1493Q1175 1379 1175 1196Q1175 1006 1055 870Q972 776 801 664L741 625Q604 535 474 388Q368 270 327 160H844Q994 160 1063 211Q1129 261 1165 402H1233L1200
0H180Z" />
<glyph unicode="3" horiz-adv-x="1393" d="M504 877H641Q817 877 909 976Q991 1064 991 1213Q991 1348 894 1425Q808 1494 676 1494Q534 1494 440 1439Q393 1412 367 1368Q445 1343 445 1260Q445 1212 415 1180Q383 1145 330 1145Q283 1145 250 1177Q213 1212
213 1270Q213 1371 310 1462Q453 1596 680 1596Q852 1596 979 1514Q1151 1402 1151 1211Q1151 990 981 890Q887 836 733 827V819Q910 808 1014 744Q1198 631 1198 410Q1198 163 992 41Q858 -39 664 -39Q442 -39 289 68Q158 161 158 282Q158 320 175 350Q211 412
279 412Q322 412 354 382Q394 346 394 288Q394 222 328 186Q435 63 661 63Q812 63 912 139Q1036 234 1036 413Q1036 609 888 704Q791 766 643 766H504V877Z" />
<glyph unicode="4" horiz-adv-x="1393" d="M865 1587H971V522H1270V401H971V235Q971 147 1006 117Q1045 83 1176 74V0H611V74Q748 83 791 117Q830 147 830 235V401H66V506L865 1587ZM830 1362L216 522H830V1362Z" />
<glyph unicode="5" horiz-adv-x="1393" d="M301 1556H1140L1106 1392H403L350 884Q506 1015 717 1015Q935 1015 1081 874Q1233 728 1233 506Q1233 271 1073 115Q916 -39 684 -39Q472 -39 327 55Q186 147 186 280Q186 337 218 371Q251 407 302 407Q341 407 371
388Q417 359 417 294Q417 221 340 188Q378 140 457 105Q553 63 665 63Q853 63 967 199Q1069 319 1069 507Q1069 699 956 804Q855 898 696 898Q435 898 299 700L215 723L301 1556Z" />
<glyph unicode="6" horiz-adv-x="1393" d="M340 772Q394 842 462 886Q590 969 738 969Q958 969 1096 807Q1210 672 1210 453Q1210 288 1122 164Q1047 60 928 6Q828 -39 717 -39Q430 -39 281 214Q172 399 172 688Q172 1046 306 1288Q363 1390 436 1457Q590 1596
797 1596Q965 1596 1071 1515Q1159 1448 1159 1366Q1159 1316 1134 1282Q1101 1237 1042 1237Q1007 1237 977 1257Q924 1292 924 1351Q924 1411 973 1444Q922 1494 798 1494Q631 1494 509 1362Q335 1173 332 772H340ZM729 859Q584 859 462 746Q350 641 350 495Q350
367 405 261Q457 162 548 109Q627 63 718 63Q821 63 902 127Q1040 234 1040 453Q1040 654 964 747Q927 792 869 823Q800 859 729 859Z" />
<glyph unicode="7" horiz-adv-x="1393" d="M209 1556H1227V1464Q995 1114 887 800Q774 468 747 86Q737 -52 649 -52Q555 -52 555 68Q555 177 606 371Q680 653 857 1016Q961 1230 1072 1396H478Q273 1396 220 1109H154L209 1556Z" />
<glyph unicode="8" horiz-adv-x="1393" d="M564 819Q240 963 240 1213Q240 1382 384 1493Q518 1596 719 1596Q919 1596 1046 1500Q1184 1396 1184 1217Q1184 966 826 848Q1270 672 1270 379Q1270 166 1068 49Q918 -39 700 -39Q506 -39 365 35Q150 148 150 375Q150
517 254 633Q364 755 564 819ZM715 901Q854 942 934 1010Q1041 1100 1041 1217Q1041 1351 946 1426Q860 1494 718 1494Q600 1494 515 1438Q390 1357 390 1215Q390 1127 457 1056Q526 982 630 938Q656 927 663 923Q700 899 715 901ZM662 766Q494 698 412 620Q306
520 306 380Q306 250 400 166Q514 63 700 63Q844 63 949 129Q1090 218 1090 375Q1090 509 934 627Q853 688 734 738Q665 767 662 766Z" />
<glyph unicode="9" horiz-adv-x="1393" d="M1052 785Q901 588 652 588Q435 588 296 750Q182 883 182 1103Q182 1269 270 1393Q344 1497 464 1551Q564 1596 674 1596Q962 1596 1111 1343Q1220 1158 1220 871Q1220 512 1086 268Q1029 167 956 100Q802 -39 594 -39Q425
-39 320 42Q233 110 233 192Q233 242 258 275Q292 320 354 320Q395 320 430 289Q469 254 469 206Q469 145 420 113Q469 63 595 63Q761 63 883 195Q1056 383 1061 785H1052ZM673 1494Q571 1494 489 1430Q352 1322 352 1104Q352 902 428 811Q522 698 663 698Q766
698 868 763Q1042 875 1042 1061Q1042 1242 941 1364Q835 1494 673 1494Z" />
<glyph unicode=":" horiz-adv-x="676" d="M338 1090Q398 1090 444 1044Q485 1001 485 943Q485 901 462 865Q418 795 337 795Q302 795 270 812Q190 854 190 943Q190 1019 254 1064Q292 1090 338 1090ZM338 270Q398 270 444 224Q485 181 485 123Q485 81 462 45Q418
-25 337 -25Q302 -25 270 -8Q190 34 190 123Q190 199 254 244Q292 270 338 270Z" />
<glyph unicode=";" horiz-adv-x="676" d="M192 -195Q309 -83 331 68Q282 69 247 95Q190 138 190 212Q190 253 211 287Q255 360 337 360Q399 360 442 313Q485 264 485 188Q485 70 399 -74Q340 -175 253 -244L192 -195ZM338 1090Q398 1090 444 1044Q485 1001 485
943Q485 901 462 865Q418 795 337 795Q302 795 270 812Q190 854 190 943Q190 1019 254 1064Q292 1090 338 1090Z" />
<glyph unicode="&lt;" horiz-adv-x="1720" d="M1536 1436V1317L392 778L1536 240V121L156 778L1536 1436Z" />
<glyph unicode="=" horiz-adv-x="1720" d="M184 1075H1536V958H184V1075ZM184 598H1536V481H184V598Z" />
<glyph unicode="&gt;" horiz-adv-x="1720" d="M184 1436L1564 778L184 121V240L1329 778L184 1317V1436Z" />
<glyph unicode="?" horiz-adv-x="1434" d="M633 449V477Q633 605 702 713Q744 778 860 897Q937 977 974 1038Q1028 1128 1028 1226Q1028 1358 927 1432Q830 1502 667 1502Q494 1502 380 1433Q323 1398 291 1346Q354 1345 397 1302Q436 1263 436 1211Q436 1150
390 1108Q348 1069 284 1069Q224 1069 180 1114Q133 1161 133 1236Q133 1379 280 1482Q445 1598 688 1598Q895 1598 1041 1510Q1229 1398 1229 1216Q1229 1101 1143 992Q1091 925 982 839Q846 731 804 675Q735 580 735 477V449H633ZM687 258Q747 258 792 212Q834
169 834 111Q834 69 811 33Q767 -37 686 -37Q651 -37 619 -20Q539 22 539 111Q539 187 603 232Q641 258 687 258Z" />
<glyph unicode="@" horiz-adv-x="2007" d="M1327 1278L1409 1254Q1287 750 1287 574Q1287 432 1400 432Q1507 432 1593 534Q1711 673 1711 887Q1711 1200 1473 1393Q1285 1545 1027 1545Q776 1545 573 1368Q412 1227 340 1023Q295 897 295 762Q295 479 461 273Q595
107 800 44Q903 12 1018 12Q1303 12 1528 179Q1607 237 1680 324L1739 260Q1450 -84 1017 -84Q615 -84 369 187Q156 420 156 761Q156 962 244 1143Q382 1424 659 1559Q832 1643 1025 1643Q1309 1643 1522 1485Q1703 1350 1776 1139Q1817 1018 1817 890Q1817 619
1648 442Q1526 315 1375 315Q1271 315 1210 386Q1165 439 1162 522Q1043 315 869 315Q750 315 676 401Q596 493 596 650Q596 851 715 1048Q804 1196 921 1267Q999 1315 1074 1315Q1196 1315 1272 1198L1327 1278ZM1095 1215Q993 1215 892 1069Q819 966 781 831Q754
738 754 653Q754 559 785 502Q821 432 894 432Q1005 432 1097 625Q1151 739 1190 914Q1208 994 1208 1052Q1208 1215 1095 1215Z" />
<glyph unicode="A" horiz-adv-x="1720" d="M813 1587H892L1456 285Q1507 167 1569 120Q1619 83 1706 74V0H1146V74Q1337 90 1337 151Q1337 171 1310 232L1163 564H497L364 256Q337 194 337 161Q337 84 516 74V0H18V74Q174 96 235 240L813 1587ZM831 1374L532 666H1132L831
1374Z" />
<glyph unicode="B" horiz-adv-x="1516" d="M61 1556H763Q976 1556 1095 1495Q1156 1463 1203 1412Q1292 1316 1292 1190Q1292 886 892 840V832Q1104 825 1233 740Q1402 630 1402 429Q1402 234 1261 125Q1201 78 1104 45Q973 0 816 0H61V74Q191 87 227 118Q264
151 264 236V1321Q264 1411 212 1442Q170 1468 61 1482V1556ZM409 877H657Q843 877 967 939Q1132 1021 1132 1194Q1132 1347 1012 1404Q908 1454 720 1454H568Q480 1454 446 1423Q409 1390 409 1304V877ZM409 775V252Q409 163 448 133Q488 103 614 103H730Q950
103 1073 160Q1238 237 1238 429Q1238 639 1040 719Q904 775 657 775H409Z" />
<glyph unicode="C" horiz-adv-x="1659" d="M1454 1081H1378Q1277 1485 862 1485Q576 1485 420 1246Q297 1056 297 771Q297 530 411 356Q507 210 662 141Q766 94 884 94Q1310 94 1454 547L1536 512Q1452 229 1299 101Q1131 -39 861 -39Q530 -39 323 196Q125 420
125 769Q125 1058 262 1272Q384 1462 585 1544Q712 1596 854 1596Q1062 1596 1258 1486Q1305 1460 1331 1460Q1366 1460 1380 1557H1454V1081Z" />
<glyph unicode="D" horiz-adv-x="1638" d="M49 1556H751Q1115 1556 1320 1327Q1513 1112 1513 780Q1513 410 1301 200Q1099 0 743 0H49V74Q177 89 213 117Q252 147 252 235V1321Q252 1411 211 1441Q168 1473 49 1482V1556ZM399 1304V252Q399 161 436 133Q476 102
601 102H718Q1036 102 1198 293Q1345 465 1345 780Q1345 1125 1173 1294Q1011 1454 710 1454H556Q470 1454 436 1423Q399 1390 399 1304Z" />
<glyph unicode="E" horiz-adv-x="1475" d="M43 1556H1298L1320 1129H1249Q1226 1321 1133 1391Q1051 1454 866 1454H550Q463 1454 430 1423Q393 1390 393 1305V877H661Q807 877 867 931Q923 981 925 1106H997V521H925Q921 661 862 720Q806 775 661 775H393V252Q393
162 432 133Q472 102 604 102H839Q1067 102 1169 180Q1274 260 1292 471H1363L1328 0H43V73Q170 83 206 115Q246 150 246 235V1321Q246 1411 201 1442Q156 1472 43 1483V1556Z" />
<glyph unicode="F" horiz-adv-x="1352" d="M35 1556H1260L1293 1106H1221Q1193 1311 1097 1385Q1008 1454 838 1454H543Q454 1454 420 1423Q383 1390 383 1305V877H623Q769 877 829 931Q885 982 887 1106H959V521H887Q882 672 818 725Q756 775 623 775H383V236Q383
139 419 110Q454 82 598 74V0H35V74Q176 82 210 116Q238 143 238 236V1321Q238 1417 207 1444Q170 1476 35 1483V1556Z" />
<glyph unicode="G" horiz-adv-x="1720" d="M1378 -39L1323 158Q1147 -39 839 -39Q480 -39 283 237Q129 453 129 774Q129 1129 345 1364Q558 1596 881 1596Q1102 1596 1284 1485Q1318 1465 1336 1465Q1378 1465 1390 1557H1462V1114H1390Q1297 1485 871 1485Q589
1485 433 1260Q301 1072 301 778Q301 480 443 285Q597 72 844 72Q1058 72 1195 186Q1329 297 1329 403V530Q1329 613 1283 638Q1216 673 1075 690V764H1679V690Q1551 674 1501 630Q1470 602 1470 516V-39H1378Z" />
<glyph unicode="H" horiz-adv-x="1638" d="M37 1556H590V1482Q445 1475 412 1440Q385 1411 385 1321V877H1254V1321Q1254 1416 1223 1444Q1187 1476 1049 1482V1556H1602V1482Q1460 1476 1426 1440Q1399 1411 1399 1321V236Q1399 139 1430 113Q1465 82 1602 74V0H1049V74Q1195
83 1226 116Q1254 145 1254 236V775H385V236Q385 125 432 101Q470 82 590 74V0H37V74Q178 82 212 116Q240 143 240 236V1321Q240 1416 209 1444Q174 1475 37 1482V1556Z" />
<glyph unicode="I" horiz-adv-x="778" d="M84 1556H694V1482Q537 1468 500 1432Q465 1397 465 1296V260Q465 155 510 120Q550 88 694 74V0H84V74Q234 90 272 123Q313 158 313 260V1296Q313 1419 254 1449Q209 1472 84 1482V1556Z" />
<glyph unicode="J" horiz-adv-x="1024" d="M356 1556H979V1482Q822 1475 780 1431Q745 1395 745 1296V487Q745 228 674 115Q577 -39 349 -39Q197 -39 92 59Q0 144 0 272Q0 307 14 333Q48 399 119 399Q158 399 190 379Q240 347 240 282Q240 199 152 170Q198 59
345 59Q480 59 545 169Q600 264 600 473V1296Q600 1406 557 1439Q509 1475 356 1482V1556Z" />
<glyph unicode="K" horiz-adv-x="1618" d="M35 1556H587V1482Q447 1469 414 1438Q385 1411 385 1321V747L1054 1382Q1077 1403 1077 1422Q1077 1445 1018 1464Q975 1478 901 1482V1556H1454V1482Q1358 1472 1295 1439Q1246 1413 1192 1362L743 940L1370 203Q1459
98 1609 74V0H1036V74Q1210 88 1210 130Q1210 154 1181 188L647 837L385 596V235Q385 143 423 112Q454 87 587 74V0H35V74Q175 86 208 118Q238 146 238 235V1321Q238 1413 205 1441Q169 1473 35 1482V1556Z" />
<glyph unicode="L" horiz-adv-x="1290" d="M59 1556H654V1482Q501 1468 462 1433Q423 1398 423 1296V276Q423 169 468 135Q512 102 636 102H738Q949 102 1056 218Q1141 308 1171 512H1242L1207 0H59V74Q180 85 233 129Q278 166 278 260V1296Q278 1401 235 1437Q196
1469 59 1482V1556Z" />
<glyph unicode="M" horiz-adv-x="1966" d="M41 1556H439L981 381L1536 1556H1916V1482Q1785 1466 1751 1439Q1714 1411 1714 1321V235Q1714 146 1756 112Q1788 86 1916 74V0H1364V74Q1497 86 1532 118Q1569 152 1569 235V1351H1560L996 156H916L365 1378H357V235Q357
146 394 117Q429 89 559 74V0H41V74Q170 92 205 119Q244 149 244 235V1321Q244 1409 203 1439Q168 1465 41 1482V1556Z" />
<glyph unicode="N" horiz-adv-x="1720" d="M43 1556H406L1352 295H1360V1321Q1360 1412 1323 1441Q1283 1472 1157 1482V1556H1678V1482Q1539 1472 1504 1441Q1473 1415 1473 1321V-25H1393L369 1370H361V235Q361 139 404 110Q440 85 563 74V0H43V74Q183 86 216
118Q248 148 248 235V1321Q248 1430 200 1455Q162 1476 43 1482V1556Z" />
<glyph unicode="O" horiz-adv-x="1720" d="M862 1596Q1216 1596 1422 1312Q1585 1088 1585 773Q1585 479 1453 271Q1255 -39 860 -39Q494 -39 295 231Q135 447 135 774Q135 1115 322 1343Q528 1596 862 1596ZM858 1485Q585 1485 433 1258Q307 1071 307 777Q307
534 398 360Q466 230 576 156Q701 72 860 72Q1117 72 1270 278Q1413 469 1413 778Q1413 1096 1266 1287Q1114 1485 858 1485Z" />
<glyph unicode="P" horiz-adv-x="1434" d="M39 1556H723Q945 1556 1108 1480Q1154 1458 1189 1433Q1352 1314 1352 1112Q1352 954 1253 843Q1169 751 1009 709Q878 676 657 676H389V236Q389 154 440 118Q486 85 608 74V0H39V74Q177 90 210 120Q244 150 244 236V1321Q244
1409 197 1441Q153 1472 39 1482V1556ZM389 778H639Q918 778 1047 852Q1180 928 1180 1110Q1180 1454 692 1454H549Q460 1454 426 1423Q389 1390 389 1304V778Z" />
<glyph unicode="Q" horiz-adv-x="1761" d="M1734 16Q1599 -205 1436 -205Q1313 -205 1232 -109Q1191 -60 1153 27Q1020 -39 863 -39Q495 -39 294 233Q135 448 135 775Q135 1068 279 1285Q394 1460 577 1539Q708 1596 860 1596Q1220 1596 1426 1307Q1585 1084 1585
774Q1585 528 1488 338Q1410 184 1274 92Q1338 -74 1447 -74Q1510 -74 1578 -26Q1635 14 1679 84L1734 16ZM565 166Q518 229 518 315Q518 435 598 513Q681 594 813 594Q1002 594 1129 428Q1187 352 1229 231Q1413 405 1413 775Q1413 1061 1294 1248Q1142 1485 860
1485Q581 1485 429 1252Q307 1066 307 772Q307 351 559 160L565 166ZM1114 154Q1058 303 995 374Q918 459 813 459Q729 459 680 417Q633 377 633 305Q633 197 691 136Q751 72 868 72Q979 72 1070 123Q1116 148 1114 154Z" />
<glyph unicode="R" horiz-adv-x="1536" d="M35 1556H708Q963 1556 1109 1488Q1175 1458 1216 1416Q1317 1313 1317 1159Q1317 969 1152 868Q1029 792 811 783V777Q945 752 1015 678Q1080 609 1251 257L1257 244Q1301 154 1360 119Q1417 85 1505 72V0H1186Q971
509 886 621Q796 740 606 740H383V236Q383 153 432 118Q472 89 592 74V0H35V74Q162 88 199 118Q238 150 238 236V1321Q238 1414 188 1446Q153 1470 35 1482V1556ZM383 842H631Q1145 842 1145 1157Q1145 1454 702 1454H542Q450 1454 417 1420Q383 1386 383 1304V842Z"
/>
<glyph unicode="S" horiz-adv-x="1434" d="M160 563H230Q264 315 380 207Q524 72 749 72Q930 72 1041 154Q1149 234 1149 367Q1149 558 824 690L547 803Q358 880 275 975Q187 1075 187 1219Q187 1397 338 1504Q467 1596 670 1596Q899 1596 1041 1502Q1066 1485
1089 1485Q1129 1485 1139 1571H1211V1104H1139Q1105 1283 1000 1376Q878 1485 693 1485Q530 1485 428 1409Q328 1334 328 1219Q328 1118 419 1050Q484 1001 613 950L881 844Q1092 760 1194 654Q1309 534 1309 371Q1309 181 1164 71Q1020 -39 763 -39Q536 -39 357
68Q328 84 314 84Q250 84 230 -25H160V563Z" />
<glyph unicode="T" horiz-adv-x="1434" d="M72 1556H1362L1393 1106H1321Q1295 1300 1205 1378Q1117 1454 938 1454H793V235Q793 143 832 112Q863 87 996 74V0H438V74Q577 86 610 118Q641 148 641 235V1454H496Q309 1454 222 1371Q137 1291 113 1106H41L72 1556Z" />
<glyph unicode="U" horiz-adv-x="1679" d="M27 1556H580V1482Q438 1469 408 1441Q375 1411 375 1321V639Q375 383 470 261Q605 88 865 88Q1046 88 1163 182Q1246 250 1286 335Q1344 459 1344 647V1321Q1344 1412 1307 1441Q1272 1468 1141 1482V1556H1662V1482Q1518
1469 1486 1438Q1457 1411 1457 1321V647Q1457 338 1314 164Q1147 -39 849 -39Q528 -39 350 182Q266 286 242 440Q230 521 230 639V1321Q230 1411 193 1439Q158 1466 27 1482V1556Z" />
<glyph unicode="V" horiz-adv-x="1556" d="M6 1556H590V1482Q366 1466 366 1399Q366 1364 387 1316L823 239L1208 1310Q1227 1363 1227 1390Q1227 1440 1164 1460Q1122 1474 1026 1482V1556H1548V1482Q1382 1455 1317 1275L840 -31H764L221 1325Q189 1406 134
1439Q80 1473 6 1482V1556Z" />
<glyph unicode="W" horiz-adv-x="2007" d="M4 1556H496V1482Q418 1478 379 1463Q315 1439 315 1402Q315 1358 342 1273L655 291H663L967 1437H1124L1436 291H1444L1702 1286Q1722 1363 1722 1395Q1722 1433 1669 1458Q1626 1478 1550 1482V1556H1997V1484Q1855
1435 1812 1271L1474 -25H1366L1032 1212H1024L692 -25H598L180 1312Q132 1466 4 1482V1556Z" />
<glyph unicode="X" horiz-adv-x="1638" d="M51 1556H655V1478Q465 1456 465 1395Q465 1371 516 1308L827 925L1128 1306Q1163 1350 1163 1381Q1163 1417 1100 1450Q1067 1468 1001 1478V1556H1538V1478Q1431 1459 1361 1404Q1305 1361 1241 1278L895 835L1351
248Q1408 174 1478 131Q1541 92 1624 74V0H1044V74Q1096 80 1173 108Q1214 123 1214 149Q1214 169 1186 207L805 712L430 254Q379 192 379 164Q379 105 573 74V0H12V74Q157 105 307 287L733 805L329 1316Q263 1401 202 1432Q143 1461 51 1478V1556Z" />
<glyph unicode="Y" horiz-adv-x="1556" d="M10 1556H595V1478Q405 1464 405 1404Q405 1380 423 1351L798 776L1162 1329Q1181 1357 1181 1386Q1181 1462 996 1478V1556H1535V1478Q1448 1474 1383 1427Q1338 1395 1279 1306L851 663V235Q851 147 890 117Q926 89
1054 74V0H501V74Q637 89 671 120Q704 150 704 235V645L278 1325Q224 1410 157 1442Q100 1470 10 1478V1556Z" />
<glyph unicode="Z" horiz-adv-x="1475" d="M207 1556H1311V1438L289 102H820Q1089 102 1180 196Q1255 274 1293 512H1364L1334 0H111V110L1135 1454H631Q440 1454 353 1369Q273 1290 248 1106H177L207 1556Z" />
<glyph unicode="[" horiz-adv-x="1034" d="M881 1751V1649H451V-93H881V-195H328V1751H881Z" />
<glyph unicode="\" horiz-adv-x="1024" d="M842 -164L938 -119L182 1720L86 1675L842 -164Z" />
<glyph unicode="]" horiz-adv-x="1024" d="M143 1751H696V-195H143V-93H573V1649H143V1751Z" />
<glyph unicode="^" horiz-adv-x="1024" d="M428 1573H596L856 1270H729L512 1460L295 1270H168L428 1573Z" />
<glyph unicode="_" horiz-adv-x="625" d="M0 -246V-195H625V-246H0Z" />
<glyph unicode="`" horiz-adv-x="1024" d="M369 1669L727 1298L676 1243L240 1532L369 1669Z" />
<glyph unicode="a" horiz-adv-x="1270" d="M883 719V750Q883 896 819 964Q786 999 726 1023Q655 1051 579 1051Q457 1051 378 1012Q338 993 326 969Q383 947 383 870Q383 833 363 805Q332 762 274 762Q228 762 197 797Q164 835 164 894Q164 991 278 1064Q406 1147
585 1147Q762 1147 881 1070Q1024 977 1024 707V246Q1024 104 1088 104Q1145 104 1194 207L1253 131Q1182 -37 1059 -37Q898 -37 885 178Q760 -37 453 -37Q278 -37 179 88Q111 175 111 295Q111 486 302 594Q487 700 797 715L883 719ZM883 616L807 612Q545 598 404
520Q269 446 269 303Q269 210 319 155Q377 90 492 90Q605 90 709 144Q819 201 863 286Q883 326 883 365V616Z" />
<glyph unicode="b" horiz-adv-x="1311" d="M219 -25V1337Q219 1422 182 1450Q148 1476 37 1483V1557Q241 1559 362 1598V956Q402 1031 481 1080Q587 1147 712 1147Q939 1147 1086 959Q1212 796 1212 567Q1212 344 1122 191Q985 -41 698 -41Q547 -41 444 28Q389
64 360 121L311 -25H219ZM687 1032Q585 1032 496 960Q428 904 399 829Q360 729 360 560Q360 343 405 242Q451 138 560 93Q621 68 694 68Q843 68 944 203Q1050 343 1050 569Q1050 794 916 930Q815 1032 687 1032Z" />
<glyph unicode="c" horiz-adv-x="1188" d="M1116 272Q955 -41 637 -41Q463 -41 330 51Q94 213 94 555Q94 781 207 934Q309 1073 479 1123Q563 1147 651 1147Q833 1147 950 1054Q1055 972 1055 877Q1055 842 1041 811Q1011 748 940 748Q881 748 850 793Q831 819
831 855Q831 927 880 952Q817 1049 653 1049Q471 1049 357 896Q258 762 258 555Q258 404 313 292Q363 189 452 131Q541 74 651 74Q897 74 1052 338L1116 272Z" />
<glyph unicode="d" horiz-adv-x="1290" d="M950 0L932 104Q817 -41 599 -41Q329 -41 190 168Q86 325 86 568Q86 797 212 959Q359 1147 585 1147Q725 1147 838 1066Q900 1022 936 956V1337Q936 1430 903 1452Q869 1476 750 1483V1557Q925 1557 1079 1598V215Q1079
143 1117 110Q1151 79 1261 74V0H950ZM609 1032Q475 1032 371 918Q248 783 248 568Q248 375 327 242Q431 68 604 68Q740 68 829 151Q896 215 919 328Q938 422 938 565Q938 800 855 905Q755 1032 609 1032Z" />
<glyph unicode="e" horiz-adv-x="1290" d="M277 564V548Q277 387 341 270Q448 74 670 74Q916 74 1080 326L1145 261Q971 -41 657 -41Q381 -41 230 166Q117 321 117 549Q117 784 243 949Q396 1147 646 1147Q821 1147 951 1048Q1097 938 1141 747Q1157 678 1157
605V564H277ZM985 662Q977 832 910 920Q811 1051 648 1051Q495 1051 387 920Q301 816 281 662H985Z" />
<glyph unicode="f" horiz-adv-x="942" d="M286 1106V1217Q286 1392 385 1506Q478 1612 641 1612Q769 1612 849 1550Q927 1491 927 1399Q927 1367 913 1342Q880 1282 814 1282Q758 1282 727 1328Q708 1356 708 1393Q708 1456 761 1479Q724 1516 645 1516Q529 1516
471 1413Q429 1337 429 1215V1106H753V1008H429V238Q429 140 465 110Q500 80 617 74V0H94V74Q215 79 251 113Q286 145 286 238V1008H53V1106H286Z" />
<glyph unicode="g" horiz-adv-x="1352" d="M362 252Q293 265 247 299Q188 343 188 403Q188 524 354 555Q178 616 178 806Q178 936 283 1030Q414 1147 619 1147Q809 1147 929 1059Q984 1118 1062 1154Q1137 1188 1200 1188Q1242 1188 1276 1168Q1341 1131 1341
1059Q1341 1018 1318 984Q1287 940 1234 940Q1191 940 1158 973Q1125 1006 1125 1048Q1125 1064 1132 1085Q1068 1083 987 997Q1067 924 1067 810Q1067 648 938 563Q822 487 626 487Q536 487 462 506Q329 494 329 422Q329 385 392 360Q458 333 563 328L762 317Q976
306 1068 265Q1200 206 1200 61Q1200 -110 1035 -183Q898 -244 634 -244Q386 -244 248 -176Q100 -104 100 34Q100 123 183 180Q249 226 362 242V252ZM617 1055Q518 1055 445 1013Q328 945 328 807Q328 577 621 577Q758 577 837 634Q922 695 922 810Q922 948 790
1016Q715 1055 617 1055ZM630 180Q439 180 353 155Q252 125 252 41Q252 -40 343 -93Q448 -154 641 -154Q1053 -154 1053 54Q1053 180 630 180Z" />
<glyph unicode="h" horiz-adv-x="1372" d="M49 0V74Q164 79 200 113Q237 147 237 238V1337Q237 1427 198 1454Q169 1475 55 1483V1557Q233 1557 380 1598V952Q445 1043 551 1099Q644 1147 738 1147Q929 1147 1041 1009Q1132 896 1132 696V238Q1132 142 1170 110Q1205
80 1322 74V0H815V74Q919 80 956 113Q989 142 989 238V702Q989 851 915 941Q844 1028 725 1028Q537 1028 380 799V238Q380 144 415 113Q450 81 552 74V0H49Z" />
<glyph unicode="i" horiz-adv-x="676" d="M348 1653Q383 1653 416 1633Q475 1595 475 1526Q475 1476 440 1439Q403 1399 348 1399Q316 1399 288 1414Q221 1451 221 1526Q221 1584 265 1622Q301 1653 348 1653ZM76 0V74Q214 79 249 116Q281 149 281 238V887Q281
969 238 996Q197 1022 96 1032V1106Q246 1106 426 1147V238Q426 142 464 107Q499 76 622 74V0H76Z" />
<glyph unicode="j" horiz-adv-x="819" d="M242 1106Q391 1106 571 1147V227Q571 -9 507 -106Q414 -244 257 -244Q151 -244 78 -175Q0 -103 0 0Q0 46 23 78Q57 123 113 123Q139 123 161 112Q221 83 221 13Q221 -68 139 -92Q174 -160 255 -160Q368 -160 405 -15Q426
66 426 217V887Q426 969 383 996Q342 1022 242 1032V1106ZM494 1653Q530 1653 562 1633Q621 1595 621 1526Q621 1476 586 1439Q549 1399 494 1399Q462 1399 434 1414Q367 1451 367 1526Q367 1584 411 1622Q447 1653 494 1653Z" />
<glyph unicode="k" horiz-adv-x="1331" d="M53 0V74Q179 79 213 116Q243 147 243 238V1337Q243 1428 206 1454Q173 1478 55 1483V1557Q247 1558 384 1598V559L775 891Q837 943 837 980Q837 1008 796 1017Q756 1026 679 1032V1106H1203V1032Q1110 1022 1044 977Q991
942 894 858L665 662L1039 203Q1129 93 1299 74V0H744V74Q904 85 904 125Q904 140 881 173L878 178L566 563L384 420V238Q384 142 422 110Q457 80 572 74V0H53Z" />
<glyph unicode="l" horiz-adv-x="676" d="M90 0V74Q214 79 249 116Q280 149 280 238V1338Q280 1426 241 1454Q207 1479 96 1483V1557Q278 1558 425 1598V238Q425 141 462 109Q495 80 613 74V0H90Z" />
<glyph unicode="m" horiz-adv-x="1884" d="M59 0V74Q157 77 194 111Q227 140 227 238V874Q227 968 197 997Q162 1030 75 1032V1106Q210 1109 358 1147V958Q506 1147 697 1147Q904 1147 988 930Q1142 1147 1340 1147Q1475 1147 1569 1042Q1667 932 1667 748V238Q1667
140 1703 107Q1737 77 1831 74V0H1366V74Q1458 78 1495 111Q1528 140 1528 238V688Q1528 857 1466 942Q1404 1028 1295 1028Q1139 1028 1013 799V238Q1013 145 1048 111Q1081 78 1177 74V0H720V74Q817 78 851 116Q880 149 880 238V688Q880 1028 647 1028Q491 1028
366 799V238Q366 140 402 107Q436 78 526 74V0H59Z" />
<glyph unicode="n" horiz-adv-x="1352" d="M49 0V74Q164 79 200 113Q237 147 237 238V887Q237 976 198 1004Q169 1024 55 1032V1106Q233 1106 380 1147V952Q446 1044 551 1099Q644 1147 738 1147Q929 1147 1041 1009Q1132 896 1132 696V238Q1132 142 1170 110Q1205
80 1322 74V0H815V74Q919 80 956 113Q989 142 989 238V702Q989 851 915 941Q844 1028 725 1028Q537 1028 380 799V238Q380 144 415 113Q450 81 552 74V0H49Z" />
<glyph unicode="o" horiz-adv-x="1270" d="M636 1147Q904 1147 1054 937Q1167 779 1167 550Q1167 317 1056 162Q910 -41 634 -41Q397 -41 252 114Q102 275 102 550Q102 808 242 971Q392 1147 636 1147ZM632 1049Q496 1049 399 949Q266 814 266 555Q266 346 377
200Q485 57 635 57Q772 57 878 182Q1003 331 1003 556Q1003 764 912 898Q809 1049 632 1049Z" />
<glyph unicode="p" horiz-adv-x="1331" d="M47 -244V-170Q174 -168 208 -132Q240 -99 240 -8V887Q240 972 203 999Q168 1025 57 1032V1106Q261 1109 382 1147V956Q425 1035 509 1085Q613 1147 735 1147Q959 1147 1100 993Q1233 849 1233 616Q1233 334 1088 191Q958
61 722 61Q581 61 477 134Q420 175 382 237V-8Q382 -104 419 -135Q457 -167 595 -170V-244H47ZM709 1045Q583 1045 483 931Q380 815 380 621Q380 447 423 350Q504 163 719 163Q920 163 1012 340Q1070 452 1070 619Q1070 777 998 888Q926 997 800 1032Q755 1045
709 1045Z" />
<glyph unicode="q" horiz-adv-x="1311" d="M735 -244V-170Q880 -166 915 -132Q948 -100 948 -8V235Q914 176 855 135Q747 61 600 61Q351 61 220 215Q98 357 98 619Q98 855 237 1000Q377 1147 596 1147Q750 1147 865 1053Q902 1023 928 983L995 1114H1091V-8Q1091
-106 1129 -139Q1162 -167 1284 -170V-244H735ZM619 1045Q511 1045 420 979Q260 865 260 619Q260 457 315 346Q406 164 612 164Q786 164 876 294Q950 399 950 620Q950 780 882 886Q818 986 716 1026Q669 1045 619 1045Z" />
<glyph unicode="r" horiz-adv-x="942" d="M31 0V74Q158 77 191 114Q221 147 221 238V887Q221 972 184 999Q150 1025 37 1032V1106Q189 1106 357 1147V915Q418 1014 540 1087Q639 1147 752 1147Q833 1147 884 1106Q942 1059 942 976Q942 927 913 895Q881 860 828
860Q796 860 770 877Q718 911 718 973Q718 1005 739 1036Q647 1034 557 969Q439 884 364 752V238Q364 142 399 111Q437 76 567 74V0H31Z" />
<glyph unicode="s" horiz-adv-x="1106" d="M111 401H181Q226 221 342 140Q463 55 592 55Q713 55 789 114Q862 170 862 252Q862 341 761 405Q700 444 584 485L527 506Q278 594 205 667Q133 739 133 857Q133 984 238 1068Q336 1147 510 1147Q656 1147 780 1055Q802
1038 825 1038Q853 1038 862 1106H930V772H852Q818 893 739 967Q649 1051 514 1051Q405 1051 345 1005Q279 954 279 869Q279 808 337 762Q388 723 561 662L631 637Q847 561 931 483Q1020 400 1020 261Q1020 120 903 39Q789 -41 609 -41Q444 -41 316 45L311 48Q264
80 251 80Q217 80 181 -29H111V401Z" />
<glyph unicode="t" horiz-adv-x="860" d="M14 1008V1104Q176 1134 251 1240Q305 1317 321 1452H395V1106H767V1008H395V322Q395 203 425 150Q461 90 548 90Q682 90 767 217L814 139Q697 -35 508 -35Q356 -35 291 91Q250 171 250 307V1008H14Z" />
<glyph unicode="u" horiz-adv-x="1311" d="M996 0L975 162Q812 -41 599 -41Q375 -41 275 138Q215 245 215 410V887Q215 978 178 1004Q147 1025 31 1032V1106Q194 1107 358 1147V418Q358 249 438 158Q508 78 630 78Q825 78 965 307V887Q965 981 924 1006Q894 1025
782 1032V1106Q963 1107 1110 1147V268Q1110 153 1144 113Q1171 81 1268 74V0H996Z" />
<glyph unicode="v" horiz-adv-x="1249" d="M4 1106H485V1032Q329 1026 329 977Q329 950 350 903L663 203L934 856Q956 910 956 953Q956 1019 782 1032V1106H1241V1032Q1165 1021 1120 972Q1078 927 1042 842L678 -25H602L207 877Q172 956 121 995Q79 1028 4 1032V1106Z" />
<glyph unicode="w" horiz-adv-x="1761" d="M6 1106H477V1032Q322 1019 322 960Q322 944 336 905L575 233H584L837 1000H975L1212 229H1220L1454 881Q1468 920 1468 946Q1468 991 1423 1011Q1389 1026 1315 1032V1106H1743V1032Q1617 1015 1562 862L1245 -20H1159L895
809H889L608 -20H522L201 879Q149 1022 6 1032V1106Z" />
<glyph unicode="x" horiz-adv-x="1352" d="M47 1106H555V1032Q550 1032 499 1028Q420 1022 420 992Q420 972 447 942L674 688L899 926Q934 961 934 984Q934 1013 819 1029Q805 1031 795 1032V1106H1264V1032Q1183 1014 1127 982Q1075 952 1008 881L744 600L1092
201Q1140 145 1213 108Q1270 80 1313 72V0H813V72Q944 84 944 133Q944 150 926 172L655 496L424 221Q373 162 373 140Q373 83 504 72V0H39V72Q170 99 299 248L586 578L289 928Q218 1012 47 1032V1106Z" />
<glyph unicode="y" horiz-adv-x="1311" d="M29 1106H549V1032Q450 1021 425 1010Q385 993 385 966Q385 933 406 893L701 299L942 830Q967 884 967 920Q967 1010 815 1032V1106H1299V1032Q1205 1031 1144 958Q1100 905 1053 805L717 94Q653 -40 590 -117Q485 -244
352 -244Q286 -244 231 -212Q135 -157 135 -57Q135 -2 172 35Q205 68 253 68Q301 68 332 35Q363 1 363 -51Q363 -106 308 -147Q404 -147 463 -90Q516 -39 570 66L613 150L250 881Q188 1007 29 1032V1106Z" />
<glyph unicode="z" horiz-adv-x="1126" d="M129 1106H1007V1028L252 98H661Q772 98 830 136Q920 195 962 422H1032L1001 0H59V78L811 1008H438Q279 1008 220 913Q185 859 163 750H98L129 1106Z" />
<glyph unicode="{" horiz-adv-x="1044" d="M227 817Q385 822 453 942Q493 1011 493 1104V1393Q493 1541 526 1605Q561 1675 638 1708Q734 1749 901 1751V1665Q729 1663 674 1613Q635 1577 624 1529Q616 1495 616 1440V1098Q616 863 429 778Q616 694 616 459V117Q616
14 649 -30Q707 -107 901 -109V-195Q655 -193 566 -104Q510 -48 498 50Q493 91 493 164V453Q493 608 390 687Q327 736 227 739V817Z" />
<glyph unicode="|" horiz-adv-x="901" d="M393 1802H508V-246H393V1802Z" />
<glyph unicode="}" horiz-adv-x="1044" d="M143 -109Q313 -108 369 -57Q409 -21 420 28Q428 62 428 117V459Q428 693 614 778Q428 860 428 1098V1440Q428 1542 394 1587Q338 1662 143 1665V1751Q392 1748 478 1661Q534 1603 546 1506Q551 1464 551 1393V1104Q551
948 653 869Q717 820 817 817V739Q659 734 590 615Q551 545 551 453V164Q551 16 518 -49Q446 -192 143 -195V-109Z" />
<glyph unicode="~" horiz-adv-x="1024" d="M865 1467Q770 1305 644 1305Q567 1305 494 1354Q421 1403 361 1403Q264 1403 207 1317L160 1377Q254 1538 381 1538Q458 1538 541 1482Q603 1440 663 1440Q760 1440 817 1526L865 1467Z" />
<glyph unicode="&#xa0;" horiz-adv-x="683" />
<glyph unicode="&#xa1;" horiz-adv-x="778" d="M346 1112H432L440 1026Q510 187 510 93Q510 30 471 -6Q437 -37 388 -37Q313 -37 281 30Q268 58 268 91Q268 203 339 1019L346 1112ZM390 1598Q450 1598 496 1552Q537 1509 537 1451Q537 1409 514 1373Q470 1303
389 1303Q354 1303 322 1320Q242 1362 242 1451Q242 1527 306 1572Q344 1598 390 1598Z" />
<glyph unicode="&#xa2;" horiz-adv-x="1393" d="M781 1618L887 1593L832 1364Q966 1340 1047 1280Q1158 1199 1158 1090Q1158 1044 1133 1012Q1101 971 1045 971Q982 971 952 1015Q934 1042 934 1077Q934 1148 988 1180Q945 1247 809 1268L584 328Q645 299 727
299Q975 299 1131 563L1194 498Q1033 184 702 184Q630 184 553 203L490 -61L383 -37L451 242Q275 335 201 516Q152 635 152 778Q152 1041 333 1215Q488 1363 721 1372L781 1618ZM699 1274Q537 1256 434 1133Q316 993 316 779Q316 523 484 385L699 1274Z" />
<glyph unicode="&#xa3;" horiz-adv-x="1393" d="M115 887H443Q381 1058 381 1192Q381 1389 519 1496Q639 1590 820 1590Q974 1590 1073 1514Q1155 1451 1155 1365Q1155 1318 1133 1285Q1100 1235 1036 1235Q989 1235 957 1262Q920 1293 920 1345Q920 1424 979
1448Q921 1502 820 1502Q671 1502 597 1410Q535 1333 535 1196Q535 1054 596 887H1112V785H633Q719 528 719 376Q719 351 717 330Q724 325 769 293Q788 280 832 248Q910 191 955 164Q1019 127 1068 127Q1201 127 1260 373L1332 334Q1252 -39 1062 -39Q1015 -39
960 -12Q907 14 789 106L781 112L695 178L684 187Q592 -39 357 -39Q263 -39 191 5Q72 77 72 218Q72 323 140 393Q219 473 354 473Q466 473 594 408Q593 473 562 569Q543 628 484 785H115V887ZM578 260Q435 350 332 350Q265 350 222 318Q174 283 174 218Q174 145
221 101Q270 57 356 57Q474 57 538 159Q553 184 569 228L579 257Q579 258 578 260Z" />
<glyph unicode="&#xa4;" horiz-adv-x="1393" d="M1245 1243L1095 1094Q1210 948 1210 779Q1210 608 1095 461L1245 311L1161 227L1011 377Q866 264 697 264Q523 264 379 377L229 227L145 311L295 461Q180 604 180 780Q180 952 295 1094L143 1243L227 1327L379
1178Q523 1290 695 1290Q866 1290 1011 1178L1161 1327L1245 1243ZM694 1175Q599 1175 512 1130Q402 1073 344 964Q297 877 297 777Q297 663 359 564Q417 473 512 423Q599 377 697 377Q818 377 920 448Q1014 513 1060 618Q1093 695 1093 779Q1093 955 962 1074Q850
1175 694 1175Z" />
<glyph unicode="&#xa5;" horiz-adv-x="1393" d="M23 1556H565V1478Q375 1464 375 1403Q375 1378 393 1351L696 909H751L1024 1329Q1048 1365 1048 1387Q1048 1462 864 1478V1556H1362V1478Q1313 1470 1254 1430Q1210 1400 1147 1306L876 909H1317V807H809L780
766V559H1317V459H780V236Q780 147 819 117Q855 89 983 74V0H430V74Q566 89 600 120Q633 150 633 236V459H96V559H633V748L594 807H96V909H524L248 1325Q196 1402 137 1437Q96 1461 23 1478V1556Z" />
<glyph unicode="&#xa6;" horiz-adv-x="901" d="M393 1700H508V881H393V1700ZM393 676H508V-143H393V676Z" />
<glyph unicode="&#xa7;" horiz-adv-x="2048" d="M770 1092Q577 1208 577 1371Q577 1527 720 1622Q845 1704 1026 1704Q1235 1704 1375 1597Q1479 1517 1479 1422Q1479 1366 1445 1330Q1410 1294 1354 1294Q1308 1294 1272 1321Q1229 1353 1229 1408Q1229 1480
1288 1505Q1232 1614 1026 1614Q904 1614 820 1565Q718 1506 718 1404Q718 1323 801 1256Q862 1206 985 1151L1196 1057Q1487 927 1487 732Q1487 569 1278 465Q1470 348 1470 186Q1470 30 1327 -65Q1203 -147 1020 -147Q813 -147 673 -40Q569 39 569 134Q569 190
603 226Q638 262 693 262Q739 262 775 235Q819 203 819 148Q819 76 760 51Q813 -57 1023 -57Q1143 -57 1227 -8Q1329 51 1329 151Q1329 234 1246 301Q1184 351 1063 406L852 500Q561 630 561 825Q561 987 770 1092ZM852 1047Q700 973 700 866Q700 783 784 715Q848
664 969 610L1163 524L1166 523L1176 519Q1191 512 1196 510Q1347 583 1347 689Q1347 773 1263 841Q1199 893 1079 946L885 1032Q884 1032 881 1033Q879 1035 871 1038Q865 1041 852 1047Z" />
<glyph unicode="&#xa8;" horiz-adv-x="1024" d="M286 1508Q311 1508 336 1497Q404 1464 404 1389Q404 1340 369 1305Q334 1270 284 1270Q254 1270 228 1285Q166 1319 166 1390Q166 1442 205 1477Q238 1508 286 1508ZM741 1508Q767 1508 791 1497Q859 1464 859
1389Q859 1340 824 1305Q789 1270 739 1270Q709 1270 683 1285Q621 1319 621 1390Q621 1442 660 1477Q693 1508 741 1508Z" />
<glyph unicode="&#xa9;" horiz-adv-x="2048" d="M1497 995H1421Q1384 1145 1304 1215Q1200 1305 1028 1305Q815 1305 698 1134Q600 989 600 762Q600 596 667 474Q733 354 849 293Q939 246 1046 246Q1244 246 1360 368Q1436 447 1485 598L1560 563Q1502 356 1395
253Q1258 121 1026 121Q726 121 559 356Q440 523 440 757Q440 1009 572 1186Q740 1411 1024 1411Q1183 1411 1343 1326Q1380 1306 1392 1306Q1414 1306 1423 1382H1497V995ZM1028 1772Q1287 1772 1518 1636Q1718 1518 1846 1330Q2018 1076 2018 778Q2018 515 1882
285Q1764 85 1576 -43Q1322 -215 1023 -215Q761 -215 531 -79Q331 39 203 227Q31 480 31 780Q31 1005 133 1210Q273 1493 555 1650Q774 1772 1028 1772ZM1022 1670Q801 1670 603 1560Q425 1462 306 1300Q133 1063 133 777Q133 555 243 357Q341 179 503 60Q739 -113
1026 -113Q1247 -113 1446 -3Q1624 95 1742 257Q1916 494 1916 779Q1916 971 1833 1148Q1713 1403 1465 1550Q1261 1670 1022 1670Z" />
<glyph unicode="&#xaa;" horiz-adv-x="922" d="M567 1276V1288Q567 1388 533 1434Q499 1481 422 1481Q344 1481 301 1440Q340 1421 340 1375Q340 1331 299 1309Q279 1299 257 1299Q216 1299 190 1331Q170 1354 170 1386Q170 1464 246 1513Q314 1557 424 1557Q580
1557 650 1466Q702 1400 702 1291V1018Q702 919 735 919Q769 919 796 981L843 920Q790 817 700 817Q598 817 573 928Q507 817 356 817Q294 817 247 838Q135 888 135 1018Q135 1242 491 1270L567 1276ZM567 1198L495 1194Q404 1189 348 1153Q276 1107 276 1029Q276
907 380 907Q438 907 491 946Q540 982 567 1041V1198Z" />
<glyph unicode="&#xab;" horiz-adv-x="922" d="M434 983H551L299 553L551 123H434L182 553L434 983ZM702 983H819L567 553L819 123H702L450 553L702 983Z" />
<glyph unicode="&#xac;" horiz-adv-x="2048" d="M192 1161H1827V372H1714V1048H192V1161Z" />
<glyph unicode="&#xad;" horiz-adv-x="1720" d="M184 836H1536V721H184V836Z" />
<glyph unicode="&#xae;" horiz-adv-x="2048" d="M461 1391H998Q1180 1391 1285 1351Q1481 1276 1481 1079Q1481 902 1326 826Q1238 782 1096 779V772Q1195 759 1267 674Q1308 626 1420 392L1434 363Q1471 286 1502 270Q1564 239 1628 232V160H1356Q1195 529 1125
637Q1061 736 908 736H756V350Q756 293 787 271Q823 244 920 234V160H461V234Q556 237 590 264Q619 287 619 350V1198Q619 1265 588 1291Q567 1308 461 1315V1391ZM756 832H928Q1126 832 1233 897Q1319 950 1319 1072Q1319 1295 983 1295H873H863Q801 1294 781
1274Q756 1250 756 1186V832ZM1028 1772Q1287 1772 1518 1636Q1718 1518 1846 1330Q2018 1076 2018 778Q2018 515 1882 285Q1764 85 1576 -43Q1322 -215 1023 -215Q761 -215 531 -79Q331 39 203 227Q31 480 31 780Q31 1005 133 1210Q273 1493 555 1650Q774 1772
1028 1772ZM1022 1670Q801 1670 603 1560Q425 1462 306 1300Q133 1063 133 777Q133 555 243 357Q341 179 503 60Q739 -113 1026 -113Q1247 -113 1446 -3Q1624 95 1742 257Q1916 494 1916 779Q1916 971 1833 1148Q1713 1403 1465 1550Q1261 1670 1022 1670Z" />
<glyph unicode="&#xaf;" horiz-adv-x="1024" d="M193 1468H852V1376H193V1468Z" />
<glyph unicode="&#xb0;" horiz-adv-x="758" d="M315 1733Q412 1733 486 1659Q555 1589 555 1491Q555 1437 531 1387Q503 1330 452 1294Q388 1249 312 1249Q245 1249 186 1287Q72 1359 72 1492Q72 1549 100 1601Q169 1733 315 1733ZM313 1639Q252 1639 207 1593Q166
1550 166 1490Q166 1449 189 1413Q233 1343 314 1343Q367 1343 408 1379Q461 1424 461 1490Q461 1568 397 1613Q359 1639 313 1639Z" />
<glyph unicode="&#xb1;" horiz-adv-x="1720" d="M802 1526H917V1036H1536V921H917V419H802V921H184V1036H802V1526ZM184 246H1536V131H184V246Z" />
<glyph unicode="&#xb2;" horiz-adv-x="922" d="M139 768V850Q187 1000 375 1131L422 1164Q571 1268 571 1372Q571 1452 516 1492Q475 1522 413 1522Q316 1522 270 1456Q334 1451 334 1386Q334 1364 324 1347Q303 1311 255 1311Q215 1311 189 1338Q164 1364 164
1407Q164 1472 220 1524Q300 1598 436 1598Q546 1598 622 1550Q727 1484 727 1363Q727 1264 645 1196Q594 1153 481 1092L432 1065Q284 985 252 877H553Q616 877 642 917Q663 950 678 1029H741L712 768H139Z" />
<glyph unicode="&#xb3;" horiz-adv-x="922" d="M325 1221H401Q482 1221 531 1261Q586 1307 586 1385Q586 1463 520 1501Q479 1524 417 1524Q316 1524 272 1471Q325 1459 325 1406Q325 1371 298 1348Q276 1329 245 1329Q208 1329 183 1353Q157 1378 157 1422Q157
1486 219 1536Q297 1598 425 1598Q535 1598 611 1561Q729 1504 729 1387Q729 1244 555 1190V1182Q751 1136 751 978Q751 866 656 803Q565 742 421 742Q318 742 244 777Q137 827 137 920Q137 980 184 1006Q202 1016 223 1016Q264 1016 289 987Q309 965 309 934Q309
877 258 860Q305 816 407 816Q482 816 532 849Q604 896 604 984Q604 1079 519 1118Q471 1141 401 1141H325V1221Z" />
<glyph unicode="&#xb4;" horiz-adv-x="1024" d="M655 1669L784 1532L348 1243L297 1298L655 1669Z" />
<glyph unicode="&#xb5;" horiz-adv-x="1311" d="M215 -246V887Q215 979 178 1004Q147 1024 31 1032V1106Q113 1107 194 1117T358 1147V418Q358 250 438 158Q509 78 630 78Q826 78 965 307V887Q965 980 924 1006Q896 1024 782 1032V1106Q967 1108 1110 1147V268Q1110
153 1144 113Q1171 81 1268 74V0H996L975 162Q820 -41 619 -41Q541 -41 470 -4T358 99V-19Q358 -103 378 -135Q398 -168 458 -172V-246H215Z" />
<glyph unicode="&#xb6;" horiz-adv-x="1495" d="M672 683H592Q405 683 276 788Q125 912 125 1137Q125 1411 355 1534Q489 1606 670 1606H1360V1508H1174V-77H1068V1508H778V-77H672V683Z" />
<glyph unicode="&#xb7;" horiz-adv-x="737" d="M370 942Q414 942 454 918Q533 870 533 778Q533 714 489 667Q441 614 368 614Q327 614 290 634Q205 682 205 779Q205 853 262 902Q308 942 370 942Z" />
<glyph unicode="&#xb8;" horiz-adv-x="1024" d="M447 268H562L496 131Q746 126 746 -46Q746 -145 636 -193Q534 -236 306 -244L281 -164Q590 -157 590 -45Q590 17 516 41Q465 58 363 59V98L447 268Z" />
<glyph unicode="&#xb9;" horiz-adv-x="922" d="M211 1463V1526Q385 1535 508 1583V907Q508 864 542 850Q577 836 660 834V768H221V834Q317 837 352 854Q381 868 381 907V1413Q381 1463 324 1463H211Z" />
<glyph unicode="&#xba;" horiz-adv-x="922" d="M459 1557Q625 1557 723 1436Q805 1336 805 1193Q805 1075 753 984Q659 819 461 819Q300 819 204 933Q117 1036 117 1191Q117 1382 252 1488Q340 1557 459 1557ZM462 1477Q374 1477 322 1410Q264 1335 264 1192Q264
1091 292 1021Q342 899 462 899Q559 899 611 984Q658 1061 658 1191Q658 1323 609 1397Q556 1477 462 1477Z" />
<glyph unicode="&#xbb;" horiz-adv-x="922" d="M487 983L739 553L487 123H370L622 553L370 983H487ZM219 983L471 553L219 123H102L354 553L102 983H219Z" />
<glyph unicode="&#xbc;" horiz-adv-x="1925" d="M1474 829H1570V309H1730V213H1570V141Q1570 87 1600 75Q1624 65 1697 61V0H1316V61Q1413 67 1433 87Q1447 101 1447 141V213H1025V315L1474 829ZM1447 680L1125 309H1447V680ZM231 1463V1526Q405 1535 528 1583V907Q528
864 562 850Q597 836 680 834V768H241V834Q337 837 372 854Q401 868 401 907V1413Q401 1463 344 1463H231ZM1493 1608L1574 1553L432 -51L350 4L1493 1608Z" />
<glyph unicode="&#xbd;" horiz-adv-x="1925" d="M231 1463V1526Q405 1535 528 1583V907Q528 864 562 850Q597 836 680 834V768H241V834Q337 837 372 854Q401 868 401 907V1413Q401 1463 344 1463H231ZM1493 1608L1574 1553L432 -51L350 4L1493 1608ZM1126 0V82Q1174
232 1361 363L1409 396Q1558 500 1558 604Q1558 684 1503 724Q1462 754 1400 754Q1303 754 1257 689Q1321 683 1321 618Q1321 596 1311 579Q1290 543 1241 543Q1202 543 1176 570Q1151 596 1151 639Q1151 704 1207 756Q1287 830 1423 830Q1533 830 1609 782Q1714
716 1714 595Q1714 497 1632 428Q1582 386 1468 324L1419 297Q1271 217 1239 109H1540Q1603 109 1629 149Q1650 182 1665 261H1728L1699 0H1126Z" />
<glyph unicode="&#xbe;" horiz-adv-x="1925" d="M1493 1608L1575 1553L433 -51L351 4L1493 1608ZM342 1239H424Q591 1239 591 1393Q591 1444 559 1478Q516 1524 438 1524Q348 1524 295 1465Q347 1453 347 1399Q347 1354 308 1331Q291 1321 270 1321Q181 1321 181
1408Q181 1456 220 1502Q302 1598 447 1598Q550 1598 626 1557Q732 1500 732 1393Q732 1292 662 1245Q613 1212 517 1200V1190Q609 1184 668 1150Q762 1096 762 985Q762 852 636 789Q554 748 437 748Q318 748 232 806Q152 859 152 932Q152 992 199 1019Q222 1032
250 1032Q304 1032 323 987Q330 972 330 954Q330 907 271 879Q324 824 434 824Q617 824 617 985Q617 1143 424 1143H342V1239ZM1475 829H1571V309H1731V213H1571V141Q1571 87 1601 75Q1625 65 1698 61V0H1317V61Q1414 67 1434 87Q1448 101 1448 141V213H1026V315L1475
829ZM1448 680L1126 309H1448V680Z" />
<glyph unicode="&#xbf;" horiz-adv-x="1434" d="M801 1108V1079Q801 951 731 844Q689 779 574 659Q497 580 460 518Q406 429 406 331Q406 198 507 125Q604 55 769 55Q939 55 1053 124Q1110 158 1143 211Q1090 211 1052 240Q998 282 998 346Q998 395 1030 434Q1074
487 1149 487Q1210 487 1254 442Q1301 395 1301 320Q1301 178 1154 74Q990 -41 745 -41Q539 -41 393 46Q205 158 205 342Q205 455 291 565Q344 632 452 718Q588 825 629 882Q699 977 699 1079V1108H801ZM747 1594Q800 1594 842 1558Q895 1513 895 1447Q895 1370
831 1325Q793 1299 746 1299Q686 1299 641 1345Q600 1388 600 1447Q600 1489 623 1524Q668 1594 747 1594Z" />
<glyph unicode="&#xc0;" horiz-adv-x="1720" d="M663 1800L1138 1628L1110 1563L600 1659L663 1800ZM800 1484H905L1458 274Q1513 153 1574 115Q1626 81 1706 74V0H1146V74Q1333 88 1333 147Q1333 161 1311 211L1306 223L1175 516H489L366 248Q342 195 342 158Q342
83 516 74V0H18V74Q174 97 235 231L800 1484ZM831 1308L524 618H1138L831 1308Z" />
<glyph unicode="&#xc1;" horiz-adv-x="1720" d="M800 1484H905L1458 274Q1513 153 1574 115Q1626 81 1706 74V0H1146V74Q1333 88 1333 147Q1333 161 1311 211L1306 223L1175 516H489L366 248Q342 195 342 158Q342 83 516 74V0H18V74Q174 97 235 231L800 1484ZM831
1308L524 618H1138L831 1308ZM1056 1800L1120 1659L610 1563L581 1628L1056 1800Z" />
<glyph unicode="&#xc2;" horiz-adv-x="1720" d="M776 1800H944L1204 1563H1077L860 1696L643 1563H516L776 1800ZM800 1484H905L1458 274Q1513 153 1574 115Q1626 81 1706 74V0H1146V74Q1333 88 1333 147Q1333 161 1311 211L1306 223L1175 516H489L366 248Q342
195 342 158Q342 83 516 74V0H18V74Q174 97 235 231L800 1484ZM831 1308L524 618H1138L831 1308Z" />
<glyph unicode="&#xc3;" horiz-adv-x="1720" d="M1212 1729Q1117 1567 992 1567Q914 1567 841 1616Q768 1665 709 1665Q612 1665 555 1579L507 1639Q601 1800 729 1800Q806 1800 889 1744Q951 1702 1011 1702Q1107 1702 1165 1788L1212 1729ZM800 1484H905L1458
274Q1513 153 1574 115Q1626 81 1706 74V0H1146V74Q1333 88 1333 147Q1333 161 1311 211L1306 223L1175 516H489L366 248Q342 195 342 158Q342 83 516 74V0H18V74Q174 97 235 231L800 1484ZM831 1308L524 618H1138L831 1308Z" />
<glyph unicode="&#xc4;" horiz-adv-x="1720" d="M634 1801Q660 1801 684 1790Q752 1757 752 1682Q752 1633 717 1598Q683 1563 632 1563Q602 1563 576 1578Q514 1612 514 1683Q514 1735 553 1770Q586 1801 634 1801ZM1088 1801Q1113 1801 1138 1790Q1206 1757
1206 1682Q1206 1633 1171 1598Q1136 1563 1086 1563Q1056 1563 1030 1578Q968 1612 968 1683Q968 1735 1007 1770Q1040 1801 1088 1801ZM800 1484H905L1458 274Q1513 153 1574 115Q1626 81 1706 74V0H1146V74Q1333 88 1333 147Q1333 161 1311 211L1306 223L1175
516H489L366 248Q342 195 342 158Q342 83 516 74V0H18V74Q174 97 235 231L800 1484ZM831 1308L524 618H1138L831 1308Z" />
<glyph unicode="&#xc5;" horiz-adv-x="1720" d="M18 0V74Q174 97 235 231L784 1449Q667 1502 667 1618Q667 1671 700 1717Q759 1800 860 1800Q938 1800 997 1744Q1054 1691 1054 1618Q1054 1550 1005 1498Q973 1463 923 1443L1458 274Q1513 153 1574 115Q1626
81 1706 74V0H1146V74Q1333 88 1333 147Q1333 161 1311 211L1306 223L1175 516H489L366 248Q342 195 342 158Q342 83 516 74V0H18ZM859 1728Q830 1728 803 1713Q745 1682 745 1616Q745 1584 764 1556Q798 1505 860 1505Q907 1505 941 1538Q976 1570 976 1617Q976
1664 941 1697Q907 1728 859 1728ZM831 1308L524 618H1138L831 1308Z" />
<glyph unicode="&#xc6;" horiz-adv-x="2048" d="M650 1556H1942L1964 1129H1892Q1870 1321 1777 1391Q1695 1454 1510 1454H1317Q1231 1454 1197 1423Q1160 1390 1160 1305V877H1367Q1513 877 1572 931Q1629 981 1630 1106H1702V521H1630Q1626 661 1567 719Q1511
775 1367 775H1160V252Q1160 162 1199 133Q1240 103 1371 103H1463Q1690 103 1792 180Q1897 261 1915 472H1987L1952 0H810V74Q937 83 974 116Q1013 151 1013 236V605H583L405 252Q378 199 378 165Q378 119 427 100Q486 78 571 74V0H28V74Q78 79 145 113Q229 156
300 295L810 1292Q841 1352 841 1396Q841 1445 795 1460Q736 1481 650 1485V1556ZM1007 1452L636 707H1015V1452H1007Z" />
<glyph unicode="&#xc7;" horiz-adv-x="1659" d="M704 -39L758 70Q451 115 282 332Q125 532 125 819Q125 1117 290 1328Q422 1496 624 1561Q734 1596 853 1596Q1069 1596 1249 1494Q1303 1463 1331 1463Q1365 1463 1380 1557H1454V1112H1378Q1277 1485 861 1485Q580
1485 425 1269Q297 1092 297 821Q297 635 377 491Q460 341 613 262Q738 197 885 197Q1311 197 1454 609L1536 578Q1478 391 1388 283Q1214 75 868 64L836 -4Q1098 -7 1098 -104Q1098 -176 999 -208Q900 -240 651 -243L631 -180Q912 -180 912 -125Q912 -85 704 -84V-39Z"
/>
<glyph unicode="&#xc8;" horiz-adv-x="1475" d="M540 1800L1016 1628L987 1563L477 1659L540 1800ZM43 1454H1298L1320 1049H1249Q1228 1214 1146 1282Q1060 1354 866 1354H550Q466 1354 432 1326Q393 1292 393 1211V823H661Q811 823 867 873Q923 923 925 1038H997V481H925Q920
618 856 672Q800 721 661 721H393V243Q393 157 432 131Q477 100 604 100H839Q1076 100 1178 181Q1275 257 1292 446H1363L1328 0H43V73Q171 83 206 113Q246 146 246 227V1227Q246 1313 201 1342Q156 1370 43 1380V1454Z" />
<glyph unicode="&#xc9;" horiz-adv-x="1475" d="M43 1454H1298L1320 1049H1249Q1228 1214 1146 1282Q1060 1354 866 1354H550Q466 1354 432 1326Q393 1292 393 1211V823H661Q811 823 867 873Q923 923 925 1038H997V481H925Q920 618 856 672Q800 721 661 721H393V243Q393
157 432 131Q477 100 604 100H839Q1076 100 1178 181Q1275 257 1292 446H1363L1328 0H43V73Q171 83 206 113Q246 146 246 227V1227Q246 1313 201 1342Q156 1370 43 1380V1454ZM934 1800L997 1659L487 1563L458 1628L934 1800Z" />
<glyph unicode="&#xca;" horiz-adv-x="1475" d="M653 1800H821L1081 1563H954L737 1696L520 1563H393L653 1800ZM43 1454H1298L1320 1049H1249Q1228 1214 1146 1282Q1060 1354 866 1354H550Q466 1354 432 1326Q393 1292 393 1211V823H661Q811 823 867 873Q923
923 925 1038H997V481H925Q920 618 856 672Q800 721 661 721H393V243Q393 157 432 131Q477 100 604 100H839Q1076 100 1178 181Q1275 257 1292 446H1363L1328 0H43V73Q171 83 206 113Q246 146 246 227V1227Q246 1313 201 1342Q156 1370 43 1380V1454Z" />
<glyph unicode="&#xcb;" horiz-adv-x="1475" d="M510 1801Q536 1801 561 1790Q629 1757 629 1682Q629 1633 594 1598Q559 1563 509 1563Q479 1563 453 1578Q391 1612 391 1683Q391 1735 429 1770Q463 1801 510 1801ZM965 1801Q991 1801 1016 1790Q1084 1757 1084
1682Q1084 1633 1049 1598Q1014 1563 964 1563Q934 1563 908 1578Q846 1612 846 1683Q846 1734 884 1770Q918 1801 965 1801ZM43 1454H1298L1320 1049H1249Q1228 1214 1146 1282Q1060 1354 866 1354H550Q466 1354 432 1326Q393 1292 393 1211V823H661Q811 823 867
873Q923 923 925 1038H997V481H925Q920 618 856 672Q800 721 661 721H393V243Q393 157 432 131Q477 100 604 100H839Q1076 100 1178 181Q1275 257 1292 446H1363L1328 0H43V73Q171 83 206 113Q246 146 246 227V1227Q246 1313 201 1342Q156 1370 43 1380V1454Z"
/>
<glyph unicode="&#xcc;" horiz-adv-x="778" d="M193 1800L668 1628L639 1563L129 1659L193 1800ZM84 1454H694V1380Q542 1368 504 1335Q465 1302 465 1204V250Q465 155 506 121Q545 88 694 74V0H84V74Q232 89 270 119Q313 154 313 250V1204Q313 1306 270 1338Q231
1367 84 1380V1454Z" />
<glyph unicode="&#xcd;" horiz-adv-x="778" d="M84 1454H694V1380Q542 1368 504 1335Q465 1302 465 1204V250Q465 155 506 121Q545 88 694 74V0H84V74Q232 89 270 119Q313 154 313 250V1204Q313 1306 270 1338Q231 1367 84 1380V1454ZM586 1800L649 1659L139 1563L111
1628L586 1800Z" />
<glyph unicode="&#xce;" horiz-adv-x="778" d="M305 1800H473L733 1563H606L389 1696L172 1563H45L305 1800ZM84 1454H694V1380Q541 1368 504 1335Q465 1302 465 1204V250Q465 155 506 121Q545 88 694 74V0H84V74Q232 88 270 119Q313 154 313 250V1204Q313 1306
270 1338Q231 1367 84 1380V1454Z" />
<glyph unicode="&#xcf;" horiz-adv-x="778" d="M163 1801Q188 1801 213 1790Q281 1757 281 1682Q281 1633 246 1598Q211 1563 161 1563Q131 1563 105 1578Q43 1612 43 1683Q43 1735 82 1770Q115 1801 163 1801ZM618 1801Q644 1801 668 1790Q736 1757 736 1682Q736
1633 701 1598Q666 1563 616 1563Q586 1563 560 1578Q498 1612 498 1683Q498 1735 537 1770Q570 1801 618 1801ZM84 1454H694V1380Q542 1368 504 1335Q465 1302 465 1204V250Q465 155 506 121Q545 88 694 74V0H84V74Q232 88 270 119Q313 154 313 250V1204Q313 1306
270 1338Q231 1367 84 1380V1454Z" />
<glyph unicode="&#xd0;" horiz-adv-x="1638" d="M49 1556H751Q1115 1556 1320 1327Q1513 1112 1513 781Q1513 411 1301 201Q1099 0 743 0H49V74Q177 89 213 117Q252 147 252 236V744H65V846H252V1321Q252 1411 211 1441Q168 1473 49 1482V1556ZM399 744V252Q399
161 436 133Q476 103 601 103H718Q1036 103 1198 294Q1345 466 1345 781Q1345 1125 1173 1294Q1011 1454 710 1454H556Q470 1454 436 1423Q399 1390 399 1304V846H790V744H399Z" />
<glyph unicode="&#xd1;" horiz-adv-x="1720" d="M1212 1729Q1117 1567 992 1567Q915 1567 842 1616Q769 1665 709 1665Q612 1665 555 1579L508 1639Q602 1800 729 1800Q806 1800 889 1744Q951 1702 1011 1702Q1108 1702 1165 1788L1212 1729ZM43 1454H406L1352
279H1360V1227Q1360 1315 1323 1341Q1282 1370 1157 1380V1454H1678V1380Q1542 1371 1504 1341Q1473 1317 1473 1227V-25H1393L369 1280H361V227Q361 140 401 110Q434 86 563 74V0H43V74Q183 86 216 116Q248 144 248 227V1227Q248 1317 217 1343Q182 1373 43 1380V1454Z"
/>
<glyph unicode="&#xd2;" horiz-adv-x="1720" d="M663 1800L1139 1628L1110 1563L600 1659L663 1800ZM863 1493Q1215 1493 1420 1233Q1585 1024 1585 722Q1585 418 1429 215Q1232 -39 859 -39Q501 -39 304 200Q135 403 135 724Q135 925 213 1091Q343 1369 626 1458Q736
1493 863 1493ZM856 1384Q650 1384 509 1261Q307 1084 307 726Q307 505 391 347Q537 70 861 70Q1152 70 1303 302Q1413 471 1413 725Q1413 1038 1256 1216Q1107 1384 856 1384Z" />
<glyph unicode="&#xd3;" horiz-adv-x="1720" d="M863 1493Q1215 1493 1420 1233Q1585 1024 1585 722Q1585 418 1429 215Q1232 -39 859 -39Q501 -39 304 200Q135 403 135 724Q135 925 213 1091Q343 1369 626 1458Q736 1493 863 1493ZM856 1384Q650 1384 509 1261Q307
1084 307 726Q307 505 391 347Q537 70 861 70Q1152 70 1303 302Q1413 471 1413 725Q1413 1038 1256 1216Q1107 1384 856 1384ZM1057 1800L1120 1659L610 1563L581 1628L1057 1800Z" />
<glyph unicode="&#xd4;" horiz-adv-x="1720" d="M776 1800H944L1204 1563H1077L860 1696L643 1563H516L776 1800ZM863 1493Q1215 1493 1420 1233Q1585 1024 1585 722Q1585 418 1429 215Q1232 -39 859 -39Q501 -39 304 200Q135 403 135 724Q135 925 213 1091Q343
1369 626 1458Q736 1493 863 1493ZM856 1384Q650 1384 509 1261Q307 1084 307 726Q307 505 391 347Q537 70 861 70Q1152 70 1303 302Q1413 471 1413 725Q1413 1038 1256 1216Q1107 1384 856 1384Z" />
<glyph unicode="&#xd5;" horiz-adv-x="1720" d="M1212 1729Q1117 1567 992 1567Q915 1567 842 1616Q768 1665 709 1665Q612 1665 555 1579L508 1639Q602 1800 729 1800Q806 1800 889 1744Q951 1702 1011 1702Q1108 1702 1165 1788L1212 1729ZM863 1493Q1215 1493
1420 1233Q1585 1024 1585 722Q1585 418 1429 215Q1232 -39 859 -39Q501 -39 304 200Q135 403 135 724Q135 925 213 1091Q343 1369 626 1458Q736 1493 863 1493ZM856 1384Q650 1384 509 1261Q307 1084 307 726Q307 505 391 347Q537 70 861 70Q1152 70 1303 302Q1413
471 1413 725Q1413 1038 1256 1216Q1107 1384 856 1384Z" />
<glyph unicode="&#xd6;" horiz-adv-x="1720" d="M634 1801Q660 1801 684 1790Q752 1757 752 1682Q752 1633 717 1598Q682 1563 632 1563Q602 1563 576 1578Q514 1612 514 1683Q514 1735 553 1770Q586 1801 634 1801ZM1089 1801Q1115 1801 1139 1790Q1207 1757
1207 1682Q1207 1633 1172 1598Q1137 1563 1087 1563Q1057 1563 1031 1578Q969 1612 969 1683Q969 1734 1008 1770Q1041 1801 1089 1801ZM863 1493Q1215 1493 1420 1233Q1585 1024 1585 722Q1585 418 1429 215Q1232 -39 859 -39Q501 -39 304 200Q135 403 135 724Q135
925 213 1091Q343 1369 626 1458Q736 1493 863 1493ZM856 1384Q650 1384 509 1261Q307 1084 307 726Q307 505 391 347Q537 70 861 70Q1152 70 1303 302Q1413 471 1413 725Q1413 1038 1256 1216Q1107 1384 856 1384Z" />
<glyph unicode="&#xd7;" horiz-adv-x="1720" d="M338 1376L860 854L1382 1376L1458 1300L936 778L1458 256L1382 180L860 702L338 180L262 256L784 778L262 1300L338 1376Z" />
<glyph unicode="&#xd8;" horiz-adv-x="1720" d="M1462 1639L1542 1577L1378 1366Q1585 1124 1585 773Q1585 487 1460 282Q1263 -39 858 -39Q597 -39 407 111L258 -82L178 -20L334 182Q135 414 135 775Q135 1068 279 1285Q391 1455 568 1535Q703 1596 858 1596Q1109
1596 1306 1438L1462 1639ZM1290 1254L495 223Q645 72 859 72Q1117 72 1270 278Q1413 469 1413 777Q1413 1059 1290 1254ZM1227 1334Q1072 1485 860 1485Q585 1485 433 1258Q307 1071 307 777Q307 497 430 305L1227 1334Z" />
<glyph unicode="&#xd9;" horiz-adv-x="1679" d="M643 1800L1118 1628L1090 1563L580 1659L643 1800ZM27 1454H580V1380Q434 1367 404 1338Q375 1311 375 1227V606Q375 379 454 268Q504 197 589 151Q709 86 863 86Q1097 86 1232 235Q1344 358 1344 614V1227Q1344
1315 1307 1341Q1272 1366 1141 1380V1454H1662V1380Q1518 1367 1486 1338Q1457 1313 1457 1227V614Q1457 319 1313 154Q1146 -39 849 -39Q525 -39 346 176Q263 276 241 426Q230 501 230 606V1227Q230 1314 193 1339Q157 1364 27 1380V1454Z" />
<glyph unicode="&#xda;" horiz-adv-x="1679" d="M27 1454H580V1380Q434 1367 404 1338Q375 1311 375 1227V606Q375 379 454 268Q504 197 589 151Q709 86 863 86Q1097 86 1232 235Q1344 358 1344 614V1227Q1344 1315 1307 1341Q1272 1366 1141 1380V1454H1662V1380Q1518
1367 1486 1338Q1457 1313 1457 1227V614Q1457 319 1313 154Q1146 -39 849 -39Q525 -39 346 176Q263 276 241 426Q230 501 230 606V1227Q230 1314 193 1339Q157 1364 27 1380V1454ZM1036 1800L1100 1659L590 1563L561 1628L1036 1800Z" />
<glyph unicode="&#xdb;" horiz-adv-x="1679" d="M756 1800H924L1184 1563H1057L840 1696L623 1563H496L756 1800ZM27 1454H580V1380Q434 1367 404 1338Q375 1311 375 1227V606Q375 379 454 268Q504 197 589 151Q709 86 863 86Q1097 86 1232 235Q1344 358 1344
614V1227Q1344 1315 1307 1341Q1272 1366 1141 1380V1454H1662V1380Q1518 1367 1486 1338Q1457 1313 1457 1227V614Q1457 319 1313 154Q1146 -39 849 -39Q525 -39 346 176Q263 276 241 426Q230 501 230 606V1227Q230 1314 193 1339Q157 1364 27 1380V1454Z" />
<glyph unicode="&#xdc;" horiz-adv-x="1679" d="M613 1801Q639 1801 664 1790Q732 1757 732 1682Q732 1633 697 1598Q662 1563 612 1563Q582 1563 556 1578Q494 1612 494 1683Q494 1734 532 1770Q566 1801 613 1801ZM1068 1801Q1094 1801 1119 1790Q1187 1757
1187 1682Q1187 1633 1152 1598Q1117 1563 1067 1563Q1037 1563 1011 1578Q949 1612 949 1683Q949 1735 987 1770Q1021 1801 1068 1801ZM27 1454H580V1380Q434 1367 404 1338Q375 1311 375 1227V606Q375 379 454 268Q504 197 589 151Q709 86 863 86Q1097 86 1232
235Q1344 358 1344 614V1227Q1344 1315 1307 1341Q1272 1366 1141 1380V1454H1662V1380Q1518 1367 1486 1338Q1457 1313 1457 1227V614Q1457 319 1313 154Q1146 -39 849 -39Q525 -39 346 176Q263 276 241 426Q230 501 230 606V1227Q230 1314 193 1339Q157 1364
27 1380V1454Z" />
<glyph unicode="&#xdd;" horiz-adv-x="1556" d="M10 1454H595V1376Q477 1367 439 1349Q405 1333 405 1304Q405 1281 423 1255L798 729L1162 1235Q1181 1261 1181 1290Q1181 1360 996 1376V1454H1535V1376Q1392 1369 1279 1212L851 618V227Q851 143 890 115Q924
90 1054 74V0H501V74Q631 89 667 115Q704 141 704 227V600L278 1231Q226 1308 163 1339Q108 1367 10 1376V1454ZM975 1800L1038 1659L528 1563L499 1628L975 1800Z" />
<glyph unicode="&#xde;" horiz-adv-x="1434" d="M80 1556H649V1482Q525 1469 479 1437Q430 1402 430 1321V1274H764Q1007 1274 1185 1163Q1249 1123 1296 1063Q1393 940 1393 790Q1393 606 1281 487Q1198 399 1026 349Q893 311 698 311H430V235Q430 154 481 118Q527
85 649 74V0H80V74Q218 89 251 119Q285 150 285 235V1321Q285 1411 248 1439Q213 1466 80 1482V1556ZM430 1172V413H680Q939 413 1088 507Q1221 592 1221 788Q1221 982 1099 1073Q966 1172 733 1172H430Z" />
<glyph unicode="&#xdf;" horiz-adv-x="1229" d="M74 0V74Q160 80 195 120Q219 146 219 223V1143Q219 1337 304 1453Q410 1598 628 1598Q792 1598 897 1523Q1034 1425 1034 1227Q1034 1043 892 938Q814 880 694 858V848Q915 809 1031 657Q1114 548 1114 393Q1114
145 974 39Q891 -25 750 -25Q608 -25 552 14Q472 72 472 143Q472 185 497 213Q527 246 575 246Q602 246 624 235Q677 209 677 144Q677 85 640 74Q680 49 746 49Q827 49 892 143Q948 224 948 397Q948 742 561 803V893Q870 952 870 1229Q870 1315 841 1378Q780 1512
627 1512Q494 1512 423 1391Q366 1295 366 1145V0H74Z" />
<glyph unicode="&#xe0;" horiz-adv-x="1270" d="M471 1669L829 1298L778 1243L342 1532L471 1669ZM883 719V750Q883 896 819 964Q786 999 726 1023Q655 1051 579 1051Q457 1051 378 1012Q338 993 326 969Q383 947 383 870Q383 833 363 805Q332 762 274 762Q228
762 197 797Q164 835 164 894Q164 991 278 1064Q406 1147 585 1147Q762 1147 881 1070Q1024 977 1024 707V246Q1024 104 1088 104Q1145 104 1194 207L1253 131Q1182 -37 1059 -37Q898 -37 885 178Q760 -37 453 -37Q278 -37 179 88Q111 175 111 295Q111 486 302
594Q487 700 797 715L883 719ZM883 616L807 612Q545 598 404 520Q269 446 269 303Q269 210 319 155Q377 90 492 90Q605 90 709 144Q819 201 863 286Q883 326 883 365V616Z" />
<glyph unicode="&#xe1;" horiz-adv-x="1270" d="M757 1669L886 1532L450 1243L399 1298L757 1669ZM883 719V750Q883 896 819 964Q786 999 726 1023Q655 1051 579 1051Q457 1051 378 1012Q338 993 326 969Q383 947 383 870Q383 833 363 805Q332 762 274 762Q228
762 197 797Q164 835 164 894Q164 991 278 1064Q406 1147 585 1147Q762 1147 881 1070Q1024 977 1024 707V246Q1024 104 1088 104Q1145 104 1194 207L1253 131Q1182 -37 1059 -37Q898 -37 885 178Q760 -37 453 -37Q278 -37 179 88Q111 175 111 295Q111 486 302
594Q487 700 797 715L883 719ZM883 616L807 612Q545 598 404 520Q269 446 269 303Q269 210 319 155Q377 90 492 90Q605 90 709 144Q819 201 863 286Q883 326 883 365V616Z" />
<glyph unicode="&#xe2;" horiz-adv-x="1270" d="M530 1573H698L958 1270H831L614 1460L397 1270H270L530 1573ZM883 719V750Q883 896 819 964Q786 999 726 1023Q655 1051 579 1051Q457 1051 378 1012Q338 993 326 969Q383 947 383 870Q383 833 363 805Q332 762
274 762Q228 762 197 797Q164 835 164 894Q164 991 278 1064Q406 1147 585 1147Q762 1147 881 1070Q1024 977 1024 707V246Q1024 104 1088 104Q1145 104 1194 207L1253 131Q1182 -37 1059 -37Q898 -37 885 178Q760 -37 453 -37Q278 -37 179 88Q111 175 111 295Q111
486 302 594Q487 700 797 715L883 719ZM883 616L807 612Q545 598 404 520Q269 446 269 303Q269 210 319 155Q377 90 492 90Q605 90 709 144Q819 201 863 286Q883 326 883 365V616Z" />
<glyph unicode="&#xe3;" horiz-adv-x="1270" d="M883 719V750Q883 896 819 964Q786 999 726 1023Q655 1051 579 1051Q457 1051 378 1012Q338 993 326 969Q383 947 383 870Q383 833 363 805Q332 762 274 762Q228 762 197 797Q164 835 164 894Q164 991 278 1064Q406
1147 585 1147Q762 1147 881 1070Q1024 977 1024 707V246Q1024 104 1088 104Q1145 104 1194 207L1253 131Q1182 -37 1059 -37Q898 -37 885 178Q760 -37 453 -37Q278 -37 179 88Q111 175 111 295Q111 486 302 594Q487 700 797 715L883 719ZM883 616L807 612Q545
598 404 520Q269 446 269 303Q269 210 319 155Q377 90 492 90Q605 90 709 144Q819 201 863 286Q883 326 883 365V616ZM966 1467Q871 1305 746 1305Q669 1305 596 1354Q522 1403 463 1403Q366 1403 309 1317L262 1377Q356 1538 483 1538Q560 1538 643 1482Q705 1440
765 1440Q862 1440 919 1526L966 1467Z" />
<glyph unicode="&#xe4;" horiz-adv-x="1270" d="M388 1508Q414 1508 438 1497Q506 1464 506 1389Q506 1340 471 1305Q436 1270 386 1270Q356 1270 330 1285Q268 1319 268 1390Q268 1442 307 1477Q340 1508 388 1508ZM842 1508Q867 1508 892 1497Q960 1464 960
1389Q960 1340 925 1305Q890 1270 840 1270Q810 1270 784 1285Q722 1319 722 1390Q722 1442 761 1477Q794 1508 842 1508ZM883 719V750Q883 896 819 964Q786 999 726 1023Q655 1051 579 1051Q457 1051 378 1012Q338 993 326 969Q383 947 383 870Q383 833 363 805Q332
762 274 762Q228 762 197 797Q164 835 164 894Q164 991 278 1064Q406 1147 585 1147Q762 1147 881 1070Q1024 977 1024 707V246Q1024 104 1088 104Q1145 104 1194 207L1253 131Q1182 -37 1059 -37Q898 -37 885 178Q760 -37 453 -37Q278 -37 179 88Q111 175 111
295Q111 486 302 594Q487 700 797 715L883 719ZM883 616L807 612Q545 598 404 520Q269 446 269 303Q269 210 319 155Q377 90 492 90Q605 90 709 144Q819 201 863 286Q883 326 883 365V616Z" />
<glyph unicode="&#xe5;" horiz-adv-x="1270" d="M883 719V750Q883 896 819 964Q786 999 726 1023Q655 1051 579 1051Q457 1051 378 1012Q338 993 326 969Q383 947 383 870Q383 833 363 805Q332 762 274 762Q228 762 197 797Q164 835 164 894Q164 991 278 1064Q406
1147 585 1147Q762 1147 881 1070Q1024 977 1024 707V246Q1024 104 1088 104Q1145 104 1194 207L1253 131Q1182 -37 1059 -37Q898 -37 885 178Q760 -37 453 -37Q278 -37 179 88Q111 175 111 295Q111 486 302 594Q487 700 797 715L883 719ZM883 616L807 612Q545
598 404 520Q269 446 269 303Q269 210 319 155Q377 90 492 90Q605 90 709 144Q819 201 863 286Q883 326 883 365V616ZM615 1606Q693 1606 752 1550Q809 1497 809 1423Q809 1391 796 1359Q780 1318 745 1288Q687 1239 613 1239Q548 1239 495 1280Q421 1336 421 1424Q421
1495 477 1550Q534 1606 615 1606ZM614 1534Q585 1534 558 1519Q499 1488 499 1422Q499 1390 518 1362Q552 1311 615 1311Q662 1311 696 1343Q731 1376 731 1423Q731 1470 696 1503Q662 1534 614 1534Z" />
<glyph unicode="&#xe6;" horiz-adv-x="1987" d="M862 719V750Q862 874 794 953Q710 1051 558 1051Q437 1051 357 1012Q317 993 305 969Q362 947 362 870Q362 833 342 805Q311 762 253 762Q207 762 176 797Q143 835 143 894Q143 991 257 1064Q385 1147 566 1147Q852
1147 960 942Q1103 1147 1364 1147Q1537 1147 1668 1048Q1813 938 1857 747Q1874 678 1874 605V564H993V548Q993 387 1057 270Q1164 74 1386 74Q1632 74 1796 326L1861 261Q1687 -41 1372 -41Q1064 -41 913 211Q825 78 717 23Q601 -37 432 -37Q257 -37 158 88Q90
175 90 296Q90 486 281 595Q464 700 776 715L862 719ZM862 617L786 613Q524 599 383 521Q248 446 248 303Q248 210 298 155Q356 90 471 90Q583 90 688 144Q798 201 842 286Q862 326 862 365V617ZM1702 662Q1693 832 1627 920Q1528 1051 1364 1051Q1211 1051 1103
920Q1018 816 997 662H1702Z" />
<glyph unicode="&#xe7;" horiz-adv-x="1188" d="M438 -39L495 78Q302 128 198 267Q94 406 94 606Q94 825 229 972Q389 1147 655 1147Q834 1147 949 1058Q1055 976 1055 882Q1055 841 1036 810Q1005 758 942 758Q884 758 853 804Q837 827 837 858Q837 918 880 952Q815
1049 652 1049Q461 1049 348 902Q258 784 258 606Q258 425 350 312Q460 176 650 176Q903 176 1052 408L1116 348Q956 61 630 61Q614 61 602 63L569 -4Q831 -7 831 -104Q831 -176 732 -208Q633 -240 385 -244L364 -180Q645 -180 645 -125Q645 -85 438 -84V-39Z"
/>
<glyph unicode="&#xe8;" horiz-adv-x="1290" d="M512 1669L871 1298L819 1243L383 1532L512 1669ZM277 564V548Q277 387 341 270Q448 74 670 74Q916 74 1080 326L1145 261Q971 -41 657 -41Q381 -41 230 166Q117 321 117 549Q117 784 243 949Q396 1147 646 1147Q821
1147 951 1048Q1097 938 1141 747Q1157 678 1157 605V564H277ZM985 662Q977 832 910 920Q811 1051 648 1051Q495 1051 387 920Q301 816 281 662H985Z" />
<glyph unicode="&#xe9;" horiz-adv-x="1290" d="M799 1669L928 1532L492 1243L441 1298L799 1669ZM277 564V548Q277 387 341 270Q448 74 670 74Q916 74 1080 326L1145 261Q971 -41 657 -41Q381 -41 230 166Q117 321 117 549Q117 784 243 949Q396 1147 646 1147Q821
1147 951 1048Q1097 938 1141 747Q1157 678 1157 605V564H277ZM985 662Q977 832 910 920Q811 1051 648 1051Q495 1051 387 920Q301 816 281 662H985Z" />
<glyph unicode="&#xea;" horiz-adv-x="1290" d="M572 1573H740L1000 1270H873L656 1460L439 1270H312L572 1573ZM277 564V548Q277 387 341 270Q448 74 670 74Q916 74 1080 326L1145 261Q971 -41 657 -41Q381 -41 230 166Q117 321 117 549Q117 784 243 949Q396
1147 646 1147Q821 1147 951 1048Q1097 938 1141 747Q1157 678 1157 605V564H277ZM985 662Q977 832 910 920Q811 1051 648 1051Q495 1051 387 920Q301 816 281 662H985Z" />
<glyph unicode="&#xeb;" horiz-adv-x="1290" d="M430 1508Q456 1508 480 1497Q548 1465 548 1389Q548 1340 513 1305Q478 1270 428 1270Q398 1270 372 1285Q310 1319 310 1390Q310 1442 349 1477Q382 1508 430 1508ZM884 1508Q910 1508 934 1497Q1002 1464 1002
1389Q1002 1340 967 1305Q932 1270 882 1270Q852 1270 826 1285Q764 1319 764 1390Q764 1442 803 1477Q836 1508 884 1508ZM277 564V548Q277 387 341 270Q448 74 670 74Q916 74 1080 326L1145 261Q971 -41 657 -41Q381 -41 230 166Q117 321 117 549Q117 784 243
949Q396 1147 646 1147Q821 1147 951 1048Q1097 938 1141 747Q1157 678 1157 605V564H277ZM985 662Q977 832 910 920Q811 1051 648 1051Q495 1051 387 920Q301 816 281 662H985Z" />
<glyph unicode="&#xec;" horiz-adv-x="676" d="M205 1669L563 1298L512 1243L76 1532L205 1669ZM76 0V74Q214 79 250 116Q281 149 281 238V887Q281 969 238 996Q197 1022 97 1032V1106Q246 1106 426 1147V238Q426 142 464 107Q499 76 623 74V0H76Z" />
<glyph unicode="&#xed;" horiz-adv-x="676" d="M481 1669L610 1532L174 1243L123 1298L481 1669ZM76 0V74Q214 79 249 116Q281 149 281 238V887Q281 969 238 996Q197 1022 96 1032V1106Q246 1106 426 1147V238Q426 142 464 107Q499 76 622 74V0H76Z" />
<glyph unicode="&#xee;" horiz-adv-x="676" d="M252 1573H420L672 1270H545L336 1460L127 1270H0L252 1573ZM76 0V74Q214 79 250 116Q281 149 281 238V887Q281 969 238 996Q197 1022 97 1032V1106Q246 1106 426 1147V238Q426 142 464 107Q499 76 623 74V0H76Z" />
<glyph unicode="&#xef;" horiz-adv-x="676" d="M124 1508Q149 1508 174 1497Q242 1464 242 1389Q242 1340 207 1305Q172 1270 122 1270Q92 1270 66 1285Q4 1319 4 1390Q4 1442 43 1477Q76 1508 124 1508ZM558 1508Q583 1508 608 1497Q676 1465 676 1389Q676 1340
641 1305Q606 1270 556 1270Q526 1270 500 1285Q438 1319 438 1390Q438 1442 477 1477Q510 1508 558 1508ZM75 0V74Q213 79 249 116Q280 149 280 238V887Q280 969 237 996Q196 1022 96 1032V1106Q245 1106 425 1147V238Q425 142 463 107Q498 76 622 74V0H75Z" />
<glyph unicode="&#xf0;" horiz-adv-x="1270" d="M899 1655L954 1579L729 1436Q883 1336 993 1167Q1175 886 1175 575Q1175 301 1042 138Q896 -41 634 -41Q381 -41 235 134Q102 292 102 548Q102 742 201 882Q293 1013 448 1069Q543 1104 647 1104Q759 1104 842
1052Q870 1034 907 1004L913 1008Q814 1246 620 1368L335 1196L278 1272L540 1425Q401 1505 262 1532L292 1599Q484 1571 643 1495L899 1655ZM633 1006Q442 1006 339 833Q266 711 266 535Q266 339 371 201Q481 57 635 57Q763 57 866 163Q1003 306 1003 534Q1003
737 910 864Q806 1006 633 1006Z" />
<glyph unicode="&#xf1;" horiz-adv-x="1352" d="M49 0V74Q164 79 200 113Q237 147 237 238V887Q237 976 198 1004Q169 1024 55 1032V1106Q233 1106 380 1147V952Q446 1044 551 1099Q644 1147 738 1147Q929 1147 1041 1009Q1132 896 1132 696V238Q1132 142 1170
110Q1205 80 1322 74V0H815V74Q919 80 956 113Q989 142 989 238V702Q989 851 915 941Q844 1028 725 1028Q537 1028 380 799V238Q380 144 415 113Q450 81 552 74V0H49ZM1007 1467Q913 1305 787 1305Q710 1305 637 1354Q564 1403 504 1403Q407 1403 350 1317L303
1377Q397 1538 524 1538Q601 1538 684 1482Q746 1440 806 1440Q903 1440 960 1526L1007 1467Z" />
<glyph unicode="&#xf2;" horiz-adv-x="1270" d="M491 1669L850 1298L798 1243L362 1532L491 1669ZM636 1147Q904 1147 1054 937Q1167 779 1167 550Q1167 317 1056 162Q910 -41 634 -41Q397 -41 252 114Q102 275 102 550Q102 808 242 971Q392 1147 636 1147ZM632
1049Q496 1049 399 949Q266 814 266 555Q266 346 377 200Q485 57 635 57Q772 57 878 182Q1003 331 1003 556Q1003 764 912 898Q809 1049 632 1049Z" />
<glyph unicode="&#xf3;" horiz-adv-x="1270" d="M778 1669L907 1532L471 1243L419 1298L778 1669ZM636 1147Q904 1147 1054 937Q1167 779 1167 550Q1167 317 1056 162Q910 -41 634 -41Q397 -41 252 114Q102 275 102 550Q102 808 242 971Q392 1147 636 1147ZM632
1049Q496 1049 399 949Q266 814 266 555Q266 346 377 200Q485 57 635 57Q772 57 878 182Q1003 331 1003 556Q1003 764 912 898Q809 1049 632 1049Z" />
<glyph unicode="&#xf4;" horiz-adv-x="1270" d="M551 1573H718L979 1270H852L634 1460L417 1270H290L551 1573ZM636 1147Q904 1147 1054 937Q1167 779 1167 550Q1167 317 1056 162Q910 -41 634 -41Q397 -41 252 114Q102 275 102 550Q102 808 242 971Q392 1147
636 1147ZM632 1049Q496 1049 399 949Q266 814 266 555Q266 346 377 200Q485 57 635 57Q772 57 878 182Q1003 331 1003 556Q1003 764 912 898Q809 1049 632 1049Z" />
<glyph unicode="&#xf5;" horiz-adv-x="1270" d="M636 1147Q904 1147 1054 937Q1167 779 1167 550Q1167 317 1056 162Q910 -41 634 -41Q397 -41 252 114Q102 275 102 550Q102 808 242 971Q392 1147 636 1147ZM632 1049Q496 1049 399 949Q266 814 266 555Q266 346
377 200Q485 57 635 57Q772 57 878 182Q1003 331 1003 556Q1003 764 912 898Q809 1049 632 1049ZM987 1467Q892 1305 766 1305Q689 1305 616 1354Q543 1403 483 1403Q386 1403 329 1317L282 1377Q376 1538 504 1538Q580 1538 663 1482Q725 1440 786 1440Q882 1440
940 1526L987 1467Z" />
<glyph unicode="&#xf6;" horiz-adv-x="1270" d="M408 1508Q434 1508 458 1497Q526 1465 526 1389Q526 1340 491 1305Q456 1270 406 1270Q376 1270 350 1285Q288 1319 288 1390Q288 1441 327 1477Q360 1508 408 1508ZM863 1508Q889 1508 913 1497Q981 1464 981
1389Q981 1340 946 1305Q912 1270 861 1270Q831 1270 805 1285Q743 1319 743 1390Q743 1442 782 1477Q815 1508 863 1508ZM636 1147Q904 1147 1054 937Q1167 779 1167 550Q1167 317 1056 162Q910 -41 634 -41Q397 -41 252 114Q102 275 102 550Q102 808 242 971Q392
1147 636 1147ZM632 1049Q496 1049 399 949Q266 814 266 555Q266 346 377 200Q485 57 635 57Q772 57 878 182Q1003 331 1003 556Q1003 764 912 898Q809 1049 632 1049Z" />
<glyph unicode="&#xf7;" horiz-adv-x="1720" d="M184 836H1536V721H184V836ZM861 1389Q909 1389 945 1353Q981 1318 981 1268Q981 1237 965 1209Q930 1147 859 1147Q831 1147 805 1160Q739 1194 739 1269Q739 1328 788 1365Q820 1389 861 1389ZM861 410Q909 410
945 374Q981 339 981 289Q981 258 965 230Q930 168 859 168Q831 168 805 181Q739 216 739 290Q739 349 788 386Q820 410 861 410Z" />
<glyph unicode="&#xf8;" horiz-adv-x="1270" d="M1081 1208L1159 1143L1026 973Q1167 803 1167 549Q1167 306 1046 149Q900 -41 634 -41Q451 -41 313 59L188 -102L110 -37L239 129Q102 290 102 549Q102 763 200 916Q350 1147 634 1147Q811 1147 952 1042L1081
1208ZM936 858L401 170Q509 57 635 57Q772 57 878 182Q1003 330 1003 555Q1003 731 936 858ZM874 944Q772 1049 634 1049Q496 1049 399 950Q266 814 266 556Q266 388 340 258L874 944Z" />
<glyph unicode="&#xf9;" horiz-adv-x="1311" d="M512 1669L871 1298L819 1243L383 1532L512 1669ZM996 0L975 162Q812 -41 599 -41Q375 -41 275 138Q215 245 215 410V887Q215 978 178 1004Q147 1025 31 1032V1106Q194 1107 358 1147V418Q358 249 438 158Q508 78
630 78Q825 78 965 307V887Q965 981 924 1006Q894 1025 782 1032V1106Q963 1107 1110 1147V268Q1110 153 1144 113Q1171 81 1268 74V0H996Z" />
<glyph unicode="&#xfa;" horiz-adv-x="1311" d="M799 1669L928 1532L492 1243L441 1298L799 1669ZM996 0L975 162Q812 -41 599 -41Q375 -41 275 138Q215 245 215 410V887Q215 978 178 1004Q147 1025 31 1032V1106Q194 1107 358 1147V418Q358 249 438 158Q508 78
630 78Q825 78 965 307V887Q965 981 924 1006Q894 1025 782 1032V1106Q963 1107 1110 1147V268Q1110 153 1144 113Q1171 81 1268 74V0H996Z" />
<glyph unicode="&#xfb;" horiz-adv-x="1311" d="M572 1573H740L1000 1270H873L656 1460L439 1270H312L572 1573ZM996 0L975 162Q812 -41 599 -41Q375 -41 275 138Q215 245 215 410V887Q215 978 178 1004Q147 1025 31 1032V1106Q194 1107 358 1147V418Q358 249
438 158Q508 78 630 78Q825 78 965 307V887Q965 981 924 1006Q894 1025 782 1032V1106Q963 1107 1110 1147V268Q1110 153 1144 113Q1171 81 1268 74V0H996Z" />
<glyph unicode="&#xfc;" horiz-adv-x="1311" d="M430 1508Q456 1508 480 1497Q548 1464 548 1389Q548 1340 513 1305Q478 1270 428 1270Q398 1270 372 1285Q310 1319 310 1390Q310 1441 349 1477Q382 1508 430 1508ZM884 1508Q909 1508 934 1497Q1002 1465 1002
1389Q1002 1340 967 1305Q932 1270 882 1270Q852 1270 826 1285Q764 1319 764 1390Q764 1442 803 1477Q836 1508 884 1508ZM996 0L975 162Q812 -41 599 -41Q375 -41 275 138Q215 245 215 410V887Q215 978 178 1004Q147 1025 31 1032V1106Q194 1107 358 1147V418Q358
249 438 158Q508 78 630 78Q825 78 965 307V887Q965 981 924 1006Q894 1025 782 1032V1106Q963 1107 1110 1147V268Q1110 153 1144 113Q1171 81 1268 74V0H996Z" />
<glyph unicode="&#xfd;" horiz-adv-x="1311" d="M779 1669L908 1532L471 1243L420 1298L779 1669ZM29 1106H549V1032Q450 1021 425 1010Q385 993 385 966Q385 933 406 893L701 299L942 830Q967 884 967 920Q967 1010 815 1032V1106H1299V1032Q1205 1031 1144 958Q1100
905 1053 805L717 94Q653 -40 590 -117Q485 -244 352 -244Q286 -244 231 -212Q135 -157 135 -57Q135 -2 172 35Q205 68 253 68Q301 68 332 35Q363 1 363 -51Q363 -106 308 -147Q404 -147 463 -90Q516 -39 570 66L613 150L250 881Q188 1007 29 1032V1106Z" />
<glyph unicode="&#xfe;" horiz-adv-x="1331" d="M47 -244V-170Q174 -168 208 -132Q240 -99 240 -8V1337Q240 1422 203 1450Q168 1476 57 1483V1557Q261 1559 382 1598V956Q425 1035 509 1085Q613 1147 735 1147Q958 1147 1100 993Q1233 849 1233 618Q1233 351
1095 204Q960 61 722 61Q581 61 477 134Q420 175 382 237V-8Q382 -104 419 -135Q457 -167 595 -170V-244H47ZM709 1045Q583 1045 483 931Q380 815 380 621Q380 447 423 350Q504 163 719 163Q920 163 1012 340Q1070 452 1070 619Q1070 777 998 888Q926 997 800 1032Q755
1045 709 1045Z" />
<glyph unicode="&#xff;" horiz-adv-x="1311" d="M440 1508Q466 1508 490 1497Q558 1464 558 1389Q558 1340 523 1305Q488 1270 438 1270Q408 1270 382 1285Q320 1319 320 1390Q320 1441 359 1477Q392 1508 440 1508ZM894 1508Q920 1508 944 1497Q1012 1465 1012
1389Q1012 1340 977 1305Q942 1270 892 1270Q862 1270 836 1285Q774 1319 774 1390Q774 1442 813 1477Q846 1508 894 1508ZM29 1106H549V1032Q450 1021 425 1010Q385 993 385 966Q385 933 406 893L701 299L942 830Q967 884 967 920Q967 1010 815 1032V1106H1299V1032Q1205
1031 1144 958Q1100 905 1053 805L717 94Q653 -40 590 -117Q485 -244 352 -244Q286 -244 231 -212Q135 -157 135 -57Q135 -2 172 35Q205 68 253 68Q301 68 332 35Q363 1 363 -51Q363 -106 308 -147Q404 -147 463 -90Q516 -39 570 66L613 150L250 881Q188 1007 29
1032V1106Z" />
<glyph unicode="&#x2013;" horiz-adv-x="1024" d="M0 836H1024V721H0V836Z" />
<glyph unicode="&#x2014;" horiz-adv-x="2048" d="M0 836H2048V721H0V836Z" />
<glyph unicode="&#x2018;" horiz-adv-x="1024" d="M833 1800L874 1745Q736 1615 731 1479Q775 1479 808 1461Q880 1422 880 1341Q880 1301 860 1265Q817 1188 730 1188Q666 1188 621 1233Q571 1283 571 1367Q571 1471 628 1579Q695 1709 833 1800Z" />
<glyph unicode="&#x2019;" horiz-adv-x="1024" d="M149 1194Q286 1323 293 1460Q286 1460 283 1460Q247 1460 215 1477Q143 1517 143 1599Q143 1639 163 1673Q206 1751 292 1751Q357 1751 401 1706Q452 1656 452 1573Q452 1468 395 1359Q328 1230 190 1139L149 1194Z" />
<glyph unicode="&#x201a;" horiz-adv-x="614" d="M190 -262L149 -207Q285 -78 293 59H283Q247 59 215 76Q143 117 143 198Q143 237 163 272Q207 350 292 350Q358 350 401 305Q452 256 452 172Q452 68 395 -42Q328 -171 190 -262Z" />
<glyph unicode="&#x201c;" horiz-adv-x="1024" d="M444 1800L485 1745Q347 1615 342 1479Q386 1479 419 1461Q491 1422 491 1341Q491 1301 471 1265Q428 1188 341 1188Q277 1188 232 1233Q182 1283 182 1367Q182 1471 239 1579Q306 1709 444 1800ZM833 1800L874
1745Q736 1615 731 1479Q775 1479 808 1461Q880 1422 880 1341Q880 1301 860 1265Q817 1188 730 1188Q666 1188 621 1233Q571 1283 571 1367Q571 1471 628 1579Q695 1709 833 1800Z" />
<glyph unicode="&#x201d;" horiz-adv-x="1024" d="M149 1194Q286 1323 293 1460Q286 1460 283 1460Q247 1460 215 1477Q143 1517 143 1599Q143 1639 163 1673Q206 1751 292 1751Q357 1751 401 1706Q452 1656 452 1573Q452 1468 395 1359Q328 1230 190 1139L149
1194ZM538 1194Q675 1323 682 1460Q675 1460 672 1460Q636 1460 604 1477Q532 1517 532 1599Q532 1639 552 1673Q595 1751 681 1751Q746 1751 790 1706Q841 1656 841 1573Q841 1468 784 1359Q717 1230 579 1139L538 1194Z" />
<glyph unicode="&#x201e;" horiz-adv-x="1065" d="M192 -262L151 -207Q287 -78 295 59H285Q249 59 217 76Q145 117 145 198Q145 237 165 272Q209 350 294 350Q360 350 403 305Q454 256 454 172Q454 68 397 -42Q330 -171 192 -262ZM581 -262L540 -207Q676 -78 684
59H674Q638 59 606 76Q534 117 534 198Q534 237 554 272Q598 350 683 350Q749 350 792 305Q843 256 843 172Q843 68 786 -42Q719 -171 581 -262Z" />
<glyph unicode="&#x2022;" horiz-adv-x="819" d="M412 987Q464 987 512 960Q619 900 619 778Q619 723 591 674Q530 569 408 569Q333 569 275 619Q201 682 201 780Q201 874 274 937Q333 987 412 987Z" />
<glyph unicode="&#x2039;" horiz-adv-x="721" d="M182 551L485 1014H618L315 551L618 88H485L182 551Z" />
<glyph unicode="&#x203a;" horiz-adv-x="721" d="M539 551L236 88H103L406 551L103 1014H236L539 551Z" />
</font>
</defs>
</svg>
