<?xml version="1.0" standalone="no"?>
<!DOCTYPE svg PUBLIC "-//W3C//DTD SVG 1.1//EN" "http://www.w3.org/Graphics/SVG/1.1/DTD/svg11.dtd">
<svg xmlns="http://www.w3.org/2000/svg">
<defs >
<font id="AROneSans" horiz-adv-x="528" ><font-face
    font-family="AR One Sans"
    units-per-em="1000"
    panose-1="0 0 0 0 0 0 0 0 0 0"
    ascent="1060"
    descent="-300"
    alphabetic="0" />
<glyph unicode=" " horiz-adv-x="262" />
<glyph unicode="!" horiz-adv-x="256" d="M164 181H92L80 700H176L164 181ZM128 -12Q102 -12 84 4T65 51Q65 81 83 97T128 114Q155 114 173 98T191 51Q191 20 173 4T128 -12Z" />
<glyph unicode="&quot;" horiz-adv-x="368" d="M230 470L218 700H310L298 470H230ZM70 470L58 700H150L138 470H70Z" />
<glyph unicode="#" horiz-adv-x="687" d="M132 0L164 163L182 201H25L40 274H186L216 427H70L84 500H241L238 538L270 700H344L304 500H446L486 700H559L528 538L506 500H662L648 427H506L476 274H618L603 201H452L454 163L422 0H348L387 201H245L206 0H132ZM258
264L296 274H362L400 264L434 437L396 427H330L292 437L258 264Z" />
<glyph unicode="$" horiz-adv-x="561" d="M271 8Q220 8 165 21T64 58V152L84 162Q122 121 172 104T268 86Q307 86 339 97T390 129T409 179Q409 213 385 237T322 281T240 322T158 370T95 435T70 528Q70 589 100 627T180 685T285 704Q326 704 370 694T458 660V585L438
575Q412 597 370 611T287 626Q233 626 197 600T160 529Q160 493 184 467T247 418T329 374T411 326T474 263T499 176Q499 130 479 98T426 46T352 17T271 8ZM240 -88L245 -38V71H329V-38L334 -88H240ZM245 648V741L240 790H334L329 740V648H245Z" />
<glyph unicode="%" horiz-adv-x="825" d="M197 363Q160 363 127 377T73 429T52 536Q52 605 72 643T126 696T194 711Q231 711 264 695T318 641T339 533Q339 464 319 428T266 377T197 363ZM196 420Q216 420 232 428T258 461T268 535Q268 585 258 610T232 645T196
654Q177 654 161 645T134 611T124 535Q124 486 134 461T160 428T196 420ZM176 0L586 700H661L251 0H176ZM631 -12Q594 -12 561 2T507 54T486 161Q486 230 506 268T560 321T628 336Q665 336 698 320T752 266T773 158Q773 89 753 53T700 2T631 -12ZM630 45Q650 45
666 53T692 86T702 160Q702 210 692 235T666 270T630 279Q611 279 595 270T568 236T558 160Q558 111 568 86T594 53T630 45Z" />
<glyph unicode="&amp;" horiz-adv-x="724" d="M501 73L243 348Q211 383 187 411T148 471T134 547Q134 630 179 670T308 710Q390 710 436 672T482 557Q482 511 466 481T426 432T381 401L344 445V459Q373 475 387 494T402 549Q402 599 377 618T307 638Q263 638 239
619T214 552Q214 509 231 479T273 424T319 376L523 156V74L501 73ZM648 352V198Q648 93 588 47T432 0H260Q158 0 107 48T54 175Q54 216 69 260T124 345T238 419L298 359Q244 342 208 314T153 251T134 175Q134 128 165 101T285 74H433Q471 74 502 82T551 113T570
179V336L586 352H648Z" />
<glyph unicode="&apos;" horiz-adv-x="208" d="M70 470L58 700H150L138 470H70Z" />
<glyph unicode="(" horiz-adv-x="282" d="M181 -136Q98 -29 67 86T36 319Q38 432 70 543T181 760H255Q124 548 123 320Q122 208 152 95T256 -136H181Z" />
<glyph unicode=")" horiz-adv-x="282" d="M101 -136H26Q99 -19 129 94T159 320Q158 548 27 760H101Q181 655 212 544T246 319Q248 202 216 87T101 -136Z" />
<glyph unicode="*" horiz-adv-x="447" d="M147 367L81 413L175 524L45 559L67 631L198 578L190 612L179 728H265L254 612L246 577L377 631L399 559L270 524L364 413L298 367L236 468L223 504L209 468L147 367Z" />
<glyph unicode="+" horiz-adv-x="560" d="M52 312V389H508V312L448 317H112L52 312ZM319 125H237L242 185V521L237 581H319L314 521V185L319 125Z" />
<glyph unicode="," horiz-adv-x="263" d="M109 -137L77 -118V-102L137 -6L131 0L121 -11Q93 -11 79 7T65 50Q65 78 82 96T129 114Q164 114 181 90T198 31Q198 -13 173 -56T109 -137Z" />
<glyph unicode="-" horiz-adv-x="380" d="M50 215V300H330V215L270 220H110L50 215Z" />
<glyph unicode="." horiz-adv-x="256" d="M128 -12Q101 -12 83 4T65 51Q65 81 83 97T128 114Q154 114 172 98T191 51Q191 20 173 4T128 -12Z" />
<glyph unicode="/" horiz-adv-x="380" d="M8 -12L286 712H368L90 -12H8Z" />
<glyph unicode="0" horiz-adv-x="600" d="M302 -12Q252 -12 209 4T133 60T82 170T63 350Q63 458 81 528T131 639T207 695T302 712Q352 712 395 696T470 639T519 529T537 350Q537 241 519 171T469 60T395 4T302 -12ZM301 62Q342 62 370 77T417 125T443 213T451
350Q451 456 437 519T389 610T301 638Q260 638 231 623T184 573T158 484T149 349Q149 268 157 213T184 125T232 77T301 62ZM304 293Q279 293 262 308T245 352Q245 381 262 396T304 411Q329 411 346 396T363 352Q363 323 346 308T304 293Z" />
<glyph unicode="1" horiz-adv-x="600" d="M280 0V622H272L264 599L122 535L102 545V608L270 700H374L364 620V0H280ZM100 0V84L160 74H454L514 84V0H100Z" />
<glyph unicode="2" horiz-adv-x="600" d="M85 588V673Q113 687 157 699T258 712Q330 712 384 688T469 620T500 517Q500 460 472 407T399 301T300 193L187 74H455L515 84V0H76V78L250 258Q302 311 338 354T394 436T414 512Q414 568 372 601T259 634Q203 634 165
616T105 578L85 588Z" />
<glyph unicode="3" horiz-adv-x="600" d="M269 379V371L315 396Q376 393 416 373T479 324T512 260T522 196Q522 131 489 85T396 13T258 -12Q208 -12 162 -2T75 27V104L95 114Q140 85 183 74T268 62Q323 62 360 79T416 128T436 198Q436 258 394 289T273 321H180V401L406
626H154L94 616V700H505V618L269 379Z" />
<glyph unicode="4" horiz-adv-x="600" d="M463 451V239H530L570 244V165H465V80L471 0H373L379 80V165H33V232L203 700H289L136 259L116 247V239H379V451H463Z" />
<glyph unicode="5" horiz-adv-x="600" d="M287 -12Q231 -13 178 -3T82 27V104L102 114Q114 107 140 95T203 72T284 62Q340 62 377 81T432 134T450 214Q450 261 434 290T391 334T336 354T283 359Q242 359 212 350T158 327L98 346L129 700H491V614L431 624H204L185
399H193L226 424Q252 429 271 430T303 431Q367 431 419 405T504 330T536 210Q536 141 505 93T417 18T287 -12Z" />
<glyph unicode="6" horiz-adv-x="600" d="M427 680Q393 656 357 626T286 560T223 481T174 392H182L243 437Q259 440 272 441T296 442Q343 442 385 429T460 388T511 318T530 219Q530 159 510 116T457 44T382 2T296 -12Q251 -12 209 2T134 46T82 123T62 237Q62 315
85 383T148 510T233 616T326 700H427V680ZM148 220Q148 138 188 100T296 62Q364 62 404 99T444 215Q444 292 403 330T291 368Q227 368 188 335T148 220Z" />
<glyph unicode="7" horiz-adv-x="586" d="M149 0L420 606L440 618V626H73V700H527V634L278 80L252 0H149ZM73 700H154V524H73V700Z" />
<glyph unicode="8" horiz-adv-x="600" d="M300 -12Q235 -12 179 7T89 67T54 179Q54 226 70 261T112 319T169 354L196 362V366Q170 382 145 401T103 450T87 527Q87 590 116 631T193 692T299 712Q357 712 405 692T482 632T511 531Q511 492 499 462T465 410T415 376L396
370V366Q421 357 447 343T495 307T532 253T546 177Q546 113 514 71T425 9T300 -12ZM300 62Q372 62 416 87T460 173Q460 212 442 240T396 285T336 312T273 323Q236 320 206 302T158 253T140 180Q140 133 162 108T221 72T300 62ZM316 392Q371 403 400 438T429 527Q429
588 394 613T301 638Q242 638 206 613T169 531Q169 489 189 461T242 416T316 392Z" />
<glyph unicode="9" horiz-adv-x="600" d="M165 20Q211 52 257 94T344 189T417 307H409L349 263Q333 260 320 259T296 258Q249 258 207 271T132 312T81 381T62 480Q62 540 82 584T135 656T211 698T296 712Q340 712 381 698T456 654T510 577T530 463Q530 385 507
317T444 190T359 84T266 0H165V20ZM444 481Q444 562 403 600T297 638Q227 638 188 598T148 481Q148 403 188 368T296 332Q364 332 404 365T444 481Z" />
<glyph unicode=":" horiz-adv-x="256" d="M128 -12Q101 -12 83 4T65 51Q65 81 83 97T128 114Q154 114 172 98T191 51Q191 20 173 4T128 -12ZM128 396Q101 396 83 412T65 459Q65 489 83 505T128 522Q154 522 172 506T191 459Q191 428 173 412T128 396Z" />
<glyph unicode=";" horiz-adv-x="263" d="M109 118L77 137V153L137 249L131 255L121 244Q93 244 79 262T65 305Q65 333 82 351T129 369Q164 369 181 345T198 286Q198 242 173 199T109 118ZM131 395Q104 395 86 411T68 458Q68 488 86 504T131 521Q157 521 175 505T194
458Q194 427 176 411T131 395Z" />
<glyph unicode="&lt;" horiz-adv-x="561" d="M509 468L212 375L138 356V348L212 329L509 246V165H497L52 307V397L497 548H509V468Z" />
<glyph unicode="=" horiz-adv-x="560" d="M508 459L448 464H112L52 459V536H508V459ZM508 423L448 428H112L52 423V500H508V423Z" />
<glyph unicode="&gt;" horiz-adv-x="561" d="M52 468V548H64L509 397V307L64 165H52V246L349 329L423 348V356L349 375L52 468Z" />
<glyph unicode="?" horiz-adv-x="436" d="M116 178V215Q116 269 140 310T219 391Q241 407 264 423T305 463T322 524Q322 574 287 604T183 635Q137 635 99 621T32 583L16 593V669Q63 693 108 703T196 713Q297 713 352 662T408 529Q408 482 392 449T349 390T292
343Q268 325 247 307T213 266T200 214V178H116ZM157 -12Q130 -12 112 4T94 51Q94 81 112 97T157 114Q183 114 201 98T220 51Q220 20 202 4T157 -12Z" />
<glyph unicode="@" horiz-adv-x="794" d="M408 -109Q335 -109 271 -87T157 -21T80 88T52 240Q52 356 101 437T232 561T417 604Q498 604 559 579T661 509T723 408T744 285Q744 225 726 174T675 93T592 62Q550 62 523 84T491 137H484L472 93Q455 81 434 74T388 67Q354
67 318 84T256 139T231 239Q231 298 255 343T322 413T418 439Q444 439 477 431T538 402V238Q538 183 548 157T589 130Q620 130 637 153T661 210T668 277Q668 357 637 415T550 504T418 536Q340 536 274 502T168 402T128 240Q128 145 167 83T269 -10T404 -41Q440
-41 468 -34T522 -16L538 -28V-89Q476 -109 408 -109ZM390 135Q419 135 440 149T472 185V360Q441 371 411 371Q358 371 332 333T305 241Q305 186 329 161T390 135Z" />
<glyph unicode="A" horiz-adv-x="646" d="M10 0L275 700H371L636 0H540L516 80L336 574L327 638H319L310 574L130 80L106 0H10ZM132 202V280H512V202H132Z" />
<glyph unicode="B" horiz-adv-x="650" d="M90 0L100 80V620L90 700H351Q452 700 511 652T571 515Q571 465 547 428T461 369V363Q519 351 558 309T598 188Q598 123 569 81T489 20T371 0H90ZM185 76H362Q428 76 468 100T508 195Q508 265 469 293T365 322H185V76ZM185
398H359Q412 398 447 425T483 517Q483 578 448 601T350 624H185V398Z" />
<glyph unicode="C" horiz-adv-x="605" d="M377 -12Q273 -12 203 31T98 155T62 348Q62 475 103 555T213 673T366 712Q419 712 467 699T558 661V584L538 574Q506 600 463 617T364 634Q303 634 255 607T180 518T152 348Q152 200 208 133T376 66Q423 66 464 78T546
120L566 110V33Q525 11 478 0T377 -12Z" />
<glyph unicode="D" horiz-adv-x="725" d="M90 0L100 80V620L90 700H302Q340 700 381 696T462 679T539 643T603 579T647 483T663 345Q663 253 642 191T585 91T502 34T405 7T302 0H90ZM185 78H323Q382 78 428 89T507 130T556 211T573 346Q573 435 554 489T501 572T421
611T323 622H185V78Z" />
<glyph unicode="E" horiz-adv-x="567" d="M90 0L100 80V620L90 700H499V612L439 622H185V393H468V311L408 319H185V78H439L499 88V0H90Z" />
<glyph unicode="F" horiz-adv-x="520" d="M90 0L100 80V620L90 700H490V612L430 622H186V382H470V296L410 304H186V80L196 0H90Z" />
<glyph unicode="G" horiz-adv-x="729" d="M433 -12Q252 -12 157 82T62 352Q62 480 109 559T238 675T420 712Q483 712 533 700T628 662V584L608 574Q571 603 526 619T415 636Q338 636 279 608T186 517T152 348Q152 208 219 136T430 64Q488 64 534 77T621 127L649
107V30Q605 11 553 0T433 -12ZM564 30V338H649V30H564ZM393 291V375H649V301H453L393 291Z" />
<glyph unicode="H" horiz-adv-x="760" d="M565 0L575 80V620L565 700H670L660 620V80L670 0H565ZM90 0L100 80V620L90 700H195L185 620V80L195 0H90ZM128 327V405H631V327H128Z" />
<glyph unicode="I" horiz-adv-x="433" d="M174 0V700H259V0H174ZM80 0V82L140 72H293L353 82V0H80ZM80 618V700H353V618L293 628H140L80 618Z" />
<glyph unicode="J" horiz-adv-x="503" d="M187 -12Q130 -12 97 1T46 28V112L66 122Q83 101 110 84T186 66Q229 66 258 81T302 123T318 187V620V700H413L403 620V192Q403 98 349 43T187 -12ZM112 612V700H360V622H172L112 612Z" />
<glyph unicode="K" horiz-adv-x="627" d="M492 0L440 80L261 319H143V394H250L441 634L483 700H594L333 371L607 0H492ZM90 0L100 80V620L90 700H195L185 620V80L195 0H90Z" />
<glyph unicode="L" horiz-adv-x="570" d="M90 0L100 80V620L90 700H195L185 620V78H450L510 88V0H90Z" />
<glyph unicode="M" horiz-adv-x="918" d="M90 0L100 80V700H245L440 167L455 105H463L478 167L673 700H818V80L828 0H723L733 80V617H721L691 504L504 10H414L227 504L197 617H185V80L195 0H90Z" />
<glyph unicode="N" horiz-adv-x="768" d="M90 0L100 80V700H200L536 196L575 98H583V620L573 700H678L668 620V0H568L232 504L193 601H185V80L195 0H90Z" />
<glyph unicode="O" horiz-adv-x="770" d="M385 -12Q325 -12 267 7T163 67T90 178T62 347Q62 448 89 518T163 630T267 692T385 712Q445 712 503 693T607 631T680 518T708 347Q708 247 681 178T607 68T504 7T385 -12ZM384 64Q448 64 501 92T586 182T618 350Q618
454 587 517T502 608T385 636Q321 636 268 608T184 517T152 350Q152 246 183 183T267 92T384 64Z" />
<glyph unicode="P" horiz-adv-x="597" d="M90 0L100 80V620L90 700H311Q385 700 437 670T516 591T544 484Q544 446 531 408T491 339T419 290T311 271H185V80L195 0H90ZM185 345H307Q384 345 419 384T454 484Q454 547 418 586T307 626H185V345Z" />
<glyph unicode="Q" horiz-adv-x="770" d="M493 -159L383 -12V11H443L484 -14L589 -159H493ZM385 -12Q325 -12 267 7T163 67T90 178T62 347Q62 448 89 518T163 630T267 692T385 712Q445 712 503 693T607 631T680 518T708 347Q708 247 681 178T607 68T504 7T385
-12ZM384 64Q448 64 501 92T586 182T618 350Q618 454 587 517T502 608T385 636Q321 636 268 608T184 517T152 350Q152 246 183 183T267 92T384 64Z" />
<glyph unicode="R" horiz-adv-x="662" d="M90 0L100 80V620L90 700H333Q407 700 459 671T538 594T566 493Q566 457 553 421T513 354T441 305T333 286H185V80L195 0H90ZM497 0L453 80L288 316H365L425 261L598 0H497ZM185 360H329Q405 360 439 398T474 489Q474
545 437 585T327 626H185V360Z" />
<glyph unicode="S" horiz-adv-x="603" d="M295 -12Q236 -13 180 0T80 34V110L100 120Q141 95 184 82T284 68Q359 68 402 94T445 172Q445 208 426 232T375 275T306 308T230 341T160 383T109 442T90 528Q90 593 121 633T204 693T313 712Q353 712 398 704T487 676V600L467
590Q433 611 396 621T319 632Q278 632 246 621T196 587T178 530Q178 495 197 471T248 430T318 397T393 364T463 322T514 262T533 175Q533 124 514 89T461 31T385 -1T295 -12Z" />
<glyph unicode="T" horiz-adv-x="577" d="M236 0L246 80V664H331V80L341 0H236ZM28 612V700H549V612L489 622H88L28 612Z" />
<glyph unicode="U" horiz-adv-x="740" d="M371 -12Q273 -12 211 24T120 122T90 258V620L80 700H185L175 620V262Q175 174 220 120T371 66Q475 66 520 120T565 262V620L555 700H660L650 620V258Q650 183 621 122T530 25T371 -12Z" />
<glyph unicode="V" horiz-adv-x="650" d="M282 0L28 700H128L142 642L304 170L320 84H330L346 170L508 642L522 700H622L368 0H282Z" />
<glyph unicode="W" horiz-adv-x="898" d="M445 585L427 499L284 0H192L12 700H110L119 642L226 192L236 102H246L258 192L402 690H496L641 192L653 102H663L673 192L779 642L788 700H886L707 0H615L472 499L455 585H445Z" />
<glyph unicode="X" horiz-adv-x="588" d="M8 0L225 349L22 700H120L148 642L281 409L289 379H297L305 409L439 642L467 700H565L363 350L580 0H483L449 60L308 291L298 321H292L282 291L142 60L108 0H8Z" />
<glyph unicode="Y" horiz-adv-x="564" d="M231 0L241 80V280L6 700H107L132 642L267 390L279 344H287L299 390L432 642L457 700H558L325 280V80L335 0H231Z" />
<glyph unicode="Z" horiz-adv-x="563" d="M38 0V58L401 622H110L50 612V700H513V642L150 78H463L523 88V0H38Z" />
<glyph unicode="[" horiz-adv-x="304" d="M82 -136V766H280V700H156L166 650V-19L156 -70H280V-136H82Z" />
<glyph unicode="\" horiz-adv-x="380" d="M372 -12H290L12 712H94L372 -12Z" />
<glyph unicode="]" horiz-adv-x="304" d="M222 -136H24V-70H148L138 -19V650L148 700H24V766H222V-136Z" />
<glyph unicode="^" horiz-adv-x="468" d="M344 376L267 530L234 624H226L194 530L124 376H40V399L185 700H275L428 399V376H344Z" />
<glyph unicode="_" horiz-adv-x="452" d="M0 -146V-68H452V-146L402 -141H50L0 -146Z" />
<glyph unicode="`" horiz-adv-x="222" d="M134 582L20 718V734H120L202 598V582H134Z" />
<glyph unicode="a" horiz-adv-x="545" d="M410 0L395 53V325Q395 365 384 392T341 435T246 450Q209 450 178 443T117 417L101 427V499Q145 513 183 517T255 522Q342 522 390 499T459 432T479 322V80L489 0H410ZM241 -12Q197 -12 154 2T83 52T54 150Q54 198 72
230T120 280T189 305T267 313Q291 313 311 311T352 304L404 267V221Q378 235 349 240T281 246Q211 246 175 226T138 149Q138 103 165 81T252 58Q314 58 350 78T407 126L427 81L331 0Q311 -5 288 -8T241 -12Z" />
<glyph unicode="b" horiz-adv-x="598" d="M320 -12Q293 -12 271 -8T234 0L134 83V148Q171 99 213 80T304 60Q355 60 389 79T441 140T458 251Q458 349 420 399T299 450Q241 450 199 428T130 377V433L235 509Q254 515 274 518T316 522Q378 522 429 493T512 405T544
257Q544 178 518 117T441 22T320 -12ZM76 0L86 80V648L76 728H180L170 648V52L155 0H76Z" />
<glyph unicode="c" horiz-adv-x="502" d="M318 -12Q273 -12 227 0T141 43T78 125T54 255Q54 330 76 381T135 463T220 508T317 522Q354 522 383 516T437 499V427L421 417Q397 434 370 442T310 450Q266 450 227 433T164 373T140 257Q140 198 155 160T196 100T252
69T312 60Q350 60 379 71T428 95L444 85V13Q416 1 385 -5T318 -12Z" />
<glyph unicode="d" horiz-adv-x="588" d="M279 -12Q215 -12 164 19T84 110T54 255Q54 345 85 404T166 493T275 522Q304 522 327 517T366 505L464 438V378Q446 399 423 415T369 440T299 450Q243 450 208 429T157 365T140 255Q140 158 177 109T301 60Q342 60 369
70T413 95T441 129L449 69L363 0Q344 -5 323 -8T279 -12ZM443 0L428 52V648L418 728H522L512 648V80L522 0H443Z" />
<glyph unicode="e" horiz-adv-x="541" d="M54 256Q54 355 86 413T172 497T285 522Q354 522 400 495T470 417T494 296Q494 276 492 259T487 227H98V245L188 295H409Q409 340 400 375T363 430T284 450Q230 450 199 427T154 361T140 263Q140 196 155 155T195 94T250
67T310 60Q357 60 391 69T453 95L469 85V13Q438 2 401 -5T319 -12Q271 -12 224 -1T138 40T77 121T54 256Z" />
<glyph unicode="f" horiz-adv-x="381" d="M345 645Q329 661 312 665T279 670Q233 670 216 644T198 574V80L208 0H104L114 80V574Q114 657 154 699T273 742Q299 742 320 738T361 727V655L345 645ZM28 435V510H92L156 480L220 510H341V435L291 440H78L28 435Z" />
<glyph unicode="g" horiz-adv-x="583" d="M258 -220Q212 -220 174 -212T103 -192V-120L119 -110Q143 -125 177 -137T260 -148Q302 -147 340 -134T402 -90T427 -3V442L451 510H517L507 430V-6Q507 -68 486 -109T429 -175T349 -209T258 -220ZM280 -12Q220 -12 169
18T86 108T54 257Q54 345 84 403T165 492T278 522Q304 522 326 518T366 507L464 429V378Q446 399 422 415T366 440T295 450Q241 450 207 429T156 365T140 257Q140 161 177 111T303 60Q343 60 369 69T413 94T441 129V76L363 0Q343 -5 322 -8T280 -12Z" />
<glyph unicode="h" horiz-adv-x="600" d="M430 0L440 80V331Q440 389 409 417T315 446Q267 446 232 432T174 398T138 364V427L246 512Q272 518 293 520T333 522Q405 522 446 499T506 435T524 339V80L534 0H430ZM76 0L86 80V648L76 728H180L170 648V80L180 0H76Z" />
<glyph unicode="i" horiz-adv-x="334" d="M180 594Q156 594 139 609T122 652Q122 679 139 694T180 710Q204 710 221 695T238 652Q238 625 221 610T180 594ZM144 0L154 80V442H50V510H248L238 430V80L248 0H144Z" />
<glyph unicode="j" horiz-adv-x="366" d="M213 594Q189 594 172 609T155 652Q155 679 172 694T213 710Q237 710 254 695T271 652Q271 625 254 610T213 594ZM66 -132Q76 -138 88 -143T120 -148Q148 -148 167 -132T186 -75V442H70V510H280L270 430V-66Q270 -145
232 -182T110 -220Q93 -220 79 -219T50 -213V-142L66 -132Z" />
<glyph unicode="k" horiz-adv-x="555" d="M430 0L388 72L251 253H127V321H250L375 462L407 510H522L325 288L541 0H430ZM76 0L86 80V648L76 728H180L170 648V80L180 0H76Z" />
<glyph unicode="l" horiz-adv-x="304" d="M264 69V0Q254 -5 241 -8T207 -12Q177 -12 150 -3T104 34T86 112V648L76 728H180L170 648V113Q170 91 180 80T214 68Q225 68 233 71T248 79L264 69Z" />
<glyph unicode="m" horiz-adv-x="886" d="M716 0L726 80V331Q726 389 694 417T610 446Q564 446 532 429T478 389T447 354V427L551 512Q573 518 592 520T628 522Q695 522 735 500T792 440T810 359V80L820 0H716ZM76 0L86 80V430L76 510H151L170 402V80L180 0H76ZM396
0L406 80V331Q406 389 375 417T292 446Q247 446 214 429T159 391T128 358V427L232 512Q259 518 280 520T317 522Q380 522 418 500T473 440T490 359V80L500 0H396Z" />
<glyph unicode="n" horiz-adv-x="594" d="M424 0L434 80V335Q434 390 403 418T311 446Q263 446 229 432T174 401T141 371V429L249 511Q269 516 290 519T333 522Q381 522 423 506T491 449T518 338V80L528 0H424ZM76 0L86 80V432L76 510H156L170 451V80L180 0H76Z" />
<glyph unicode="o" horiz-adv-x="586" d="M293 -12Q233 -12 178 14T89 99T54 255Q54 329 74 380T128 462T205 508T293 522Q338 522 381 508T458 463T512 380T532 255Q532 158 498 99T409 14T293 -12ZM293 60Q364 60 405 104T446 257Q446 330 428 372T375 432T293
450Q245 450 211 432T159 372T140 257Q140 148 181 104T293 60Z" />
<glyph unicode="p" horiz-adv-x="598" d="M308 -12Q283 -12 265 -9T234 -2L135 81V142Q159 110 184 92T237 67T296 60Q389 60 423 110T458 250Q458 315 443 359T393 427T301 450Q260 450 229 439T174 410T131 369V433L235 508Q253 514 274 518T319 522Q375 522
426 495T511 408T544 255Q544 178 518 118T440 23T308 -12ZM76 -220L86 -140V430L76 510H150L170 418V-140L180 -220H76Z" />
<glyph unicode="q" horiz-adv-x="589" d="M284 -12Q217 -12 165 19T84 110T54 256Q54 349 86 407T169 494T277 522Q306 522 328 517T366 505L464 428V377Q449 395 426 412T371 439T298 450Q240 450 206 427T156 359T140 253Q140 151 179 106T299 60Q340 60 368
70T413 95T441 129V71L363 -2Q342 -7 322 -9T284 -12ZM419 -220L429 -140V431L449 510H523L513 430V-140L523 -220H419Z" />
<glyph unicode="r" horiz-adv-x="415" d="M76 0L86 80V430L76 510H143L159 451H170V80L180 0H76ZM149 329V434L237 509Q273 522 311 522Q328 522 346 520T383 509V442L367 432Q350 438 335 440T306 442Q247 442 210 412T149 329Z" />
<glyph unicode="s" horiz-adv-x="484" d="M406 498V422L390 412Q362 430 328 440T250 450Q220 450 196 445T157 426T142 388Q142 359 163 342T217 313T288 289T358 259T413 211T434 133Q434 76 405 45T327 1T225 -12Q170 -12 128 -3T56 16V90L72 100Q104 81 141
71T232 60Q263 60 290 65T334 85T352 129Q352 162 331 181T277 212T206 235T135 262T80 308T59 384Q59 427 76 454T123 496T188 516T260 522Q304 522 340 516T406 498Z" />
<glyph unicode="t" horiz-adv-x="401" d="M116 143V582L111 652H205L200 582V145Q200 97 221 79T285 60Q305 60 319 64T347 75L363 65V3Q341 -5 319 -8T275 -12Q235 -12 199 1T139 48T116 143ZM30 435V510H94L158 480L222 510H353V435L303 440H80L30 435Z" />
<glyph unicode="u" horiz-adv-x="586" d="M268 -12Q237 -12 204 -4T142 23T96 77T78 166V430L68 510H172L162 430V179Q162 129 178 103T222 69T283 60Q347 60 382 79T444 127V71L353 1Q334 -5 313 -8T268 -12ZM437 0L426 63V430L416 510H520L510 430V80L520 0H437Z" />
<glyph unicode="v" d="M214 0L26 510H126L148 430L256 101L261 54H267L272 101L380 430L402 510H502L314 0H214Z" />
<glyph unicode="w" horiz-adv-x="798" d="M175 0L26 510H123L139 430L218 135L226 71H232L240 135L347 505H451L557 135L565 71H571L579 135L659 430L675 510H772L621 0H519L421 339L402 425H396L377 339L277 0H175Z" />
<glyph unicode="x" horiz-adv-x="516" d="M26 0L195 258L31 510H129L169 438L244 322L254 282H260L270 322L347 438L387 510H485L319 258L490 0H392L350 69L270 185L260 225H254L244 185L166 69L124 0H26Z" />
<glyph unicode="y" horiz-adv-x="544" d="M103 -136Q111 -142 119 -144T136 -146Q159 -146 178 -134T208 -95L237 -17L26 510H122L144 436L266 118L275 61H281L290 118L400 436L422 510H518L278 -119Q264 -156 241 -178T191 -210T136 -220Q122 -220 112 -218T91
-211V-146L103 -136Z" />
<glyph unicode="z" horiz-adv-x="470" d="M40 0V66L296 404L332 432V438H120L48 433V510H427V444L171 104L135 80V74H358L430 79V0H40Z" />
<glyph unicode="{" horiz-adv-x="370" d="M309 -136Q260 -136 223 -120T164 -65T142 39V184Q142 216 124 236T79 265T28 275V355Q52 355 78 365T123 397T142 456V585Q142 650 163 688T222 743T309 760H336V686H291Q218 686 218 598V426Q218 402 208 380T174 342L119
321V309L174 288Q197 273 207 251T218 204V26Q218 -62 291 -62H336V-136H309Z" />
<glyph unicode="|" horiz-adv-x="476" d="M200 -94V729H276V-94H200Z" />
<glyph unicode="}" horiz-adv-x="381" d="M72 -136H45V-62H90Q163 -62 163 26V204Q163 228 174 250T207 288L262 309V321L207 342Q185 357 174 379T163 426V598Q163 686 90 686H45V760H72Q121 760 158 744T217 689T239 585V456Q239 419 257 397T303 365T353 355V275Q330
275 303 266T258 236T239 184V39Q239 -26 218 -64T159 -119T72 -136Z" />
<glyph unicode="~" horiz-adv-x="404" d="M125 417Q153 417 173 409T211 389T244 369T280 360Q326 360 326 418H374L384 410Q384 346 356 317T284 287Q248 287 221 301T172 329T125 344Q103 344 91 329T78 286H30L20 294Q20 355 49 386T125 417Z" />
<glyph unicode="&#xa0;" horiz-adv-x="262" />
<glyph unicode="&#xa1;" horiz-adv-x="256" d="M164 331L176 -188H80L92 331H164ZM128 524Q155 524 173 508T191 461Q191 431 173 415T128 398Q102 398 84 414T65 461Q65 492 83 508T128 524Z" />
<glyph unicode="&#xa2;" horiz-adv-x="573" d="M286 0L291 50V129H375V50L381 0H286ZM291 572V645L286 694H381L375 644V572H291ZM356 76Q311 76 265 88T179 131T116 213T92 343Q92 418 114 469T173 551T258 596T355 610Q392 610 421 604T475 587V515L459 505Q435
522 408 530T348 538Q304 538 265 521T202 461T178 345Q178 286 193 248T234 188T290 157T350 148Q388 148 417 159T466 183L482 173V101Q454 89 423 83T356 76Z" />
<glyph unicode="&#xa3;" horiz-adv-x="524" d="M35 0V78Q69 78 85 97T106 145T111 198V482Q111 602 170 658T330 715Q365 715 399 709T464 691V614L448 606Q416 626 386 633T329 640Q296 640 266 628T215 580T195 470V190Q195 157 190 127T156 78H436L496 88V0H35ZM29
303V384H401V303L351 308H79L29 303Z" />
<glyph unicode="&#xa5;" horiz-adv-x="590" d="M244 0L254 80V291L58 640L18 700H124L298 367L468 700H574L534 640L339 291V80L349 0H244ZM91 257V338H502V257L452 262H141L91 257ZM91 105V184H502V105L452 110H141L91 105Z" />
<glyph unicode="&#xa6;" horiz-adv-x="476" d="M200 409V729H276V409H200ZM200 -94V226H276V-94H200Z" />
<glyph unicode="&#xa7;" horiz-adv-x="483" d="M258 405Q235 408 214 404T175 390T149 364T139 326Q139 293 160 273T214 240T285 214T355 182T410 132T431 49Q431 -6 405 -38T335 -85T236 -99Q183 -99 140 -88T52 -58V21L68 31Q91 11 130 -8T232 -27Q285 -27
316 -10T347 48Q347 82 326 102T272 135T201 162T131 193T76 240T55 317Q55 372 83 403T157 446T258 455V405ZM243 212Q269 214 292 224T331 253T347 302Q347 337 326 357T272 390T201 414T131 443T76 490T55 569Q55 643 105 679T241 715Q285 715 325 706T402 678V601L386
591Q364 611 330 627T246 643Q186 643 163 621T139 573Q139 546 160 529T214 498T285 470T355 435T410 383T431 304Q431 232 381 197T243 162V212Z" />
<glyph unicode="&#xa8;" horiz-adv-x="348" d="M274 604Q252 604 236 618T220 658Q220 684 236 698T274 712Q297 712 312 698T328 658Q328 633 313 619T274 604ZM74 604Q52 604 36 618T20 658Q20 684 36 698T74 712Q97 712 112 698T128 658Q128 633 113 619T74 604Z" />
<glyph unicode="&#xa9;" horiz-adv-x="832" d="M416 -20Q340 -20 273 7T156 83T77 200T48 348Q48 428 76 495T155 612T273 689T416 716Q493 716 559 689T676 613T755 496T784 348Q784 268 756 201T677 84T560 7T416 -20ZM435 146Q379 146 335 170T266 240T240
350Q240 406 258 444T305 506T369 540T435 551Q461 551 486 545T538 525V466L526 460Q507 480 482 488T434 497Q403 497 375 482T328 434T310 351Q310 275 348 238T439 201Q470 201 494 212T534 241L546 233V174Q524 161 495 154T435 146ZM417 46Q498 46 564 83T669
188T708 349Q708 443 669 510T564 613T417 650Q336 650 270 614T164 510T124 349Q124 256 163 188T269 83T417 46Z" />
<glyph unicode="&#xaa;" horiz-adv-x="359" d="M254 393L245 427V597Q245 612 240 624T217 644T160 652Q136 652 115 648T77 632L69 636V696Q97 704 121 707T166 710Q246 710 277 681T309 592V443L314 393H254ZM157 386Q128 386 100 395T53 426T34 488Q34 529
53 550T103 580T170 589Q187 589 200 588T224 583L257 561V522Q238 530 218 532T181 535Q138 535 120 524T101 486Q101 467 113 454T164 440Q201 440 224 453T259 482L272 444L212 393Q201 390 188 388T157 386Z" />
<glyph unicode="&#xab;" horiz-adv-x="446" d="M153 90L34 261L160 431H239V411L139 260L239 108V90H153ZM325 90L216 261L332 431H411V411L315 260L411 108V90H325Z" />
<glyph unicode="&#xae;" horiz-adv-x="832" d="M281 157L286 202V505L281 550H433Q495 550 527 517T560 433Q560 404 548 378T508 334T433 317H350V202L355 157H281ZM494 157L469 202L374 340H419L480 298L572 157H494ZM350 372H416Q463 372 478 390T493 433Q493
460 477 478T415 496L350 495V372ZM416 -20Q340 -20 273 7T156 83T77 200T48 348Q48 428 76 495T155 612T273 689T416 716Q493 716 559 689T676 613T755 496T784 348Q784 268 756 201T677 84T560 7T416 -20ZM417 46Q498 46 564 83T669 188T708 349Q708 443 669
510T564 613T417 650Q336 650 270 614T164 510T124 349Q124 256 163 188T269 83T417 46Z" />
<glyph unicode="&#xaf;" horiz-adv-x="336" d="M20 649H316V582L264 587H72L20 582V649Z" />
<glyph unicode="&#xb0;" horiz-adv-x="302" d="M151 483Q105 483 73 512T40 593Q40 646 72 674T151 703Q197 703 229 675T262 593Q262 541 230 512T151 483ZM152 543Q174 543 188 554T203 593Q203 622 189 633T152 644Q130 644 115 633T100 593Q100 565 115 554T152 543Z" />
<glyph unicode="&#xb1;" horiz-adv-x="560" d="M52 312V389H508V312L448 317H112L52 312ZM319 125H237L242 185V521L237 581H319L314 521V185L319 125ZM508 -5L448 0H112L52 -5V72H508V-5Z" />
<glyph unicode="&#xb2;" horiz-adv-x="270" d="M26 495V552L84 603Q110 628 132 647T169 682T183 718Q183 739 165 751T117 763Q95 763 76 756T41 735L35 740V803Q48 809 68 815T117 821Q174 821 208 793T242 719Q242 678 216 651T154 591L107 549H207L240 553V495H26Z" />
<glyph unicode="&#xb3;" horiz-adv-x="258" d="M123 669V665L145 679Q182 679 202 666T231 632T240 592Q240 547 207 518T114 489Q90 489 68 494T24 509V565L34 570Q53 556 74 552T114 547Q158 547 171 562T184 591Q184 605 171 619T115 633H59V681L154 761H61L34
755V815H230V763L123 669Z" />
<glyph unicode="&#xb4;" horiz-adv-x="222" d="M88 582H20V598L102 734H202V718L88 582Z" />
<glyph unicode="&#xb6;" horiz-adv-x="572" d="M240 0L250 75V363H229Q183 363 143 388T77 455T52 547Q52 597 77 638T142 704T229 729H499L500 73L510 0H416L426 73V658H324V75L334 0H240Z" />
<glyph unicode="&#xb7;" horiz-adv-x="256" d="M128 258Q101 258 83 274T65 321Q65 351 83 367T128 384Q154 384 172 368T191 321Q191 290 173 274T128 258Z" />
<glyph unicode="&#xb8;" horiz-adv-x="243" d="M100 -220Q60 -220 20 -206V-158L30 -150Q41 -155 58 -159T97 -164Q129 -164 145 -154T161 -126Q161 -113 149 -101T99 -88H43L33 -80L70 31H131V17L109 -48H115L126 -40Q177 -40 200 -67T223 -128Q223 -175 186
-197T100 -220Z" />
<glyph unicode="&#xb9;" horiz-adv-x="242" d="M101 494V755H97L91 738L32 697L24 701V755L96 814H167V778V494H101ZM24 494V552L52 548H199L227 552V494H24Z" />
<glyph unicode="&#xba;" horiz-adv-x="364" d="M183 386Q145 386 111 402T56 454T34 548Q34 607 55 642T111 694T183 710Q221 710 255 694T310 643T332 548Q332 490 311 454T255 402T183 386ZM183 438Q219 438 243 460T268 549Q268 594 257 617T226 649T183 658Q159
658 140 650T109 618T98 549Q98 482 122 460T183 438Z" />
<glyph unicode="&#xbb;" horiz-adv-x="446" d="M293 90H207V108L307 260L207 411V431H286L412 261L293 90ZM121 90H35V108L131 260L35 411V431H114L230 261L121 90Z" />
<glyph unicode="&#xbc;" horiz-adv-x="623" d="M89 0L530 700H598L157 0H89ZM38 380V438L66 434H213L241 438V380H38ZM503 0L507 38V62H336V104L445 319H511L412 121L402 114V112H507V188H568V112H593L613 116V62H568V38L571 0H503ZM115 380V639H113L109 628L45
596L38 601V645L110 700H181L177 664V380H115Z" />
<glyph unicode="&#xbd;" horiz-adv-x="644" d="M63 0L504 700H572L131 0H63ZM38 380V438L66 434H213L241 438V380H38ZM115 380V639H113L109 628L45 586L38 591V645L110 700H181L177 664V380H115ZM388 0V57L446 109Q490 148 517 174T545 229Q545 252 529 262T485
273Q459 273 441 265T407 242L397 248V313Q410 319 430 325T480 331Q537 331 570 304T604 233Q604 203 591 179T557 134T518 96L471 54H572L602 58V0H388Z" />
<glyph unicode="&#xbe;" horiz-adv-x="606" d="M60 0L501 700H569L128 0H60ZM486 0L490 38V62H319V104L428 319H494L395 121L385 114V112H490V188H551V112H576L596 116V62H551V38L554 0H486ZM107 366Q82 366 59 371T16 386V442L26 447Q44 436 66 429T110 422Q148
422 160 438T172 469Q172 482 160 495T107 509H51V565L143 646H50L23 642V700H222V648L113 550V546L135 560Q173 560 194 546T223 510T232 467Q232 421 199 394T107 366Z" />
<glyph unicode="&#xbf;" horiz-adv-x="436" d="M318 399V362Q318 308 294 267T215 186Q194 171 170 155T129 115T112 53Q112 3 147 -27T251 -58Q298 -58 336 -44T402 -6L418 -16V-92Q372 -116 326 -126T238 -136Q138 -136 82 -85T26 48Q26 95 42 128T86 187T142
234Q166 252 187 270T221 311T234 363V399H318ZM277 589Q304 589 322 573T340 526Q340 496 322 480T277 463Q251 463 233 479T214 526Q214 557 232 573T277 589Z" />
<glyph unicode="&#xc0;" horiz-adv-x="646" d="M10 0L275 700H371L636 0H540L516 80L336 574L327 638H319L310 574L130 80L106 0H10ZM132 202V280H512V202H132ZM369 760H295L180 882V898H286L369 776V760Z" />
<glyph unicode="&#xc1;" horiz-adv-x="646" d="M10 0L275 700H371L636 0H540L516 80L336 574L327 638H319L310 574L130 80L106 0H10ZM132 202V280H512V202H132ZM253 760V776L336 898H442V882L327 760H253Z" />
<glyph unicode="&#xc2;" horiz-adv-x="646" d="M10 0L275 700H371L636 0H540L516 80L336 574L327 638H319L310 574L130 80L106 0H10ZM132 202V280H512V202H132ZM275 898H371L483 776V760H413L323 839L233 760H163V776L275 898Z" />
<glyph unicode="&#xc3;" horiz-adv-x="646" d="M10 0L275 700H371L636 0H540L516 80L336 574L327 638H319L310 574L130 80L106 0H10ZM132 202V280H512V202H132ZM246 901Q274 901 294 893T332 873T365 853T401 844Q447 844 447 902H495L505 894Q505 830 477 801T405
771Q369 771 342 785T293 813T246 828Q224 828 212 813T199 770H151L141 778Q141 839 170 870T246 901Z" />
<glyph unicode="&#xc4;" horiz-adv-x="646" d="M10 0L275 700H371L636 0H540L516 80L336 574L327 638H319L310 574L130 80L106 0H10ZM132 202V280H512V202H132ZM423 770Q401 770 385 784T369 824Q369 850 385 864T423 878Q446 878 461 864T477 824Q477 799 462
785T423 770ZM223 770Q201 770 185 784T169 824Q169 850 185 864T223 878Q246 878 261 864T277 824Q277 799 262 785T223 770Z" />
<glyph unicode="&#xc5;" horiz-adv-x="646" d="M10 0L275 700H371L636 0H540L516 80L336 574L327 638H319L310 574L130 80L106 0H10ZM132 202V280H512V202H132ZM323 681Q281 681 250 706T219 781Q219 832 250 856T323 881Q366 881 396 857T427 781Q427 731 397
706T323 681ZM323 735Q341 735 355 745T369 781Q369 807 355 817T323 827Q306 827 292 817T277 781Q277 756 291 746T323 735Z" />
<glyph unicode="&#xc6;" horiz-adv-x="955" d="M10 0L439 700H882V612L822 622H559V400H834V316L768 324H559V78H827L887 88V0H464L474 80V165H209L159 80L117 0H10ZM257 240H474V626H466L457 572L257 240Z" />
<glyph unicode="&#xc7;" horiz-adv-x="605" d="M377 -12Q273 -12 203 31T98 155T62 348Q62 475 103 555T213 673T366 712Q419 712 467 699T558 661V584L538 574Q506 600 463 617T364 634Q303 634 255 607T180 518T152 348Q152 200 208 133T376 66Q423 66 464 78T546
120L566 110V33Q525 11 478 0T377 -12ZM374 -220Q334 -220 294 -206V-158L304 -150Q315 -155 332 -159T371 -164Q403 -164 419 -154T435 -126Q435 -113 423 -101T373 -88H317L307 -80L344 31H405V17L383 -48H389L400 -40Q451 -40 474 -67T497 -128Q497 -175 460
-197T374 -220Z" />
<glyph unicode="&#xc8;" horiz-adv-x="567" d="M90 0L100 80V620L90 700H499V612L439 622H185V393H468V311L408 319H185V78H439L499 88V0H90ZM401 760H327L212 882V898H318L401 776V760Z" />
<glyph unicode="&#xc9;" horiz-adv-x="567" d="M90 0L100 80V620L90 700H499V612L439 622H185V393H468V311L408 319H185V78H439L499 88V0H90ZM230 760V776L313 898H419V882L304 760H230Z" />
<glyph unicode="&#xca;" horiz-adv-x="567" d="M90 0L100 80V620L90 700H499V612L439 622H185V393H468V311L408 319H185V78H439L499 88V0H90ZM252 898H348L460 776V760H390L300 839L210 760H140V776L252 898Z" />
<glyph unicode="&#xcb;" horiz-adv-x="567" d="M90 0L100 80V620L90 700H499V612L439 622H185V393H468V311L408 319H185V78H439L499 88V0H90ZM400 770Q378 770 362 784T346 824Q346 850 362 864T400 878Q423 878 438 864T454 824Q454 799 439 785T400 770ZM200
770Q178 770 162 784T146 824Q146 850 162 864T200 878Q223 878 238 864T254 824Q254 799 239 785T200 770Z" />
<glyph unicode="&#xcc;" horiz-adv-x="433" d="M174 0V700H259V0H174ZM80 0V82L140 72H293L353 82V0H80ZM80 618V700H353V618L293 628H140L80 618ZM318 760H244L129 882V898H235L318 776V760Z" />
<glyph unicode="&#xcd;" horiz-adv-x="433" d="M174 0V700H259V0H174ZM80 0V82L140 72H293L353 82V0H80ZM80 618V700H353V618L293 628H140L80 618ZM147 760V776L230 898H336V882L221 760H147Z" />
<glyph unicode="&#xce;" horiz-adv-x="433" d="M174 0V700H259V0H174ZM80 0V82L140 72H293L353 82V0H80ZM80 618V700H353V618L293 628H140L80 618ZM169 898H265L377 776V760H307L217 839L127 760H57V776L169 898Z" />
<glyph unicode="&#xcf;" horiz-adv-x="433" d="M174 0V700H259V0H174ZM80 0V82L140 72H293L353 82V0H80ZM80 618V700H353V618L293 628H140L80 618ZM317 770Q295 770 279 784T263 824Q263 850 279 864T317 878Q340 878 355 864T371 824Q371 799 356 785T317 770ZM117
770Q95 770 79 784T63 824Q63 850 79 864T117 878Q140 878 155 864T171 824Q171 799 156 785T117 770Z" />
<glyph unicode="&#xd0;" horiz-adv-x="777" d="M44 316V394H384V316L324 324H104L44 316ZM142 0L152 80V620L142 700H354Q392 700 433 696T514 679T591 643T655 579T699 483T715 345Q715 253 694 191T637 91T554 34T457 7T354 0H142ZM237 78H375Q434 78 480 89T559
130T608 211T625 346Q625 435 606 489T553 572T473 611T375 622H237V78Z" />
<glyph unicode="&#xd1;" horiz-adv-x="768" d="M90 0L100 80V700H200L536 196L575 98H583V620L573 700H678L668 620V0H568L232 504L193 601H185V80L195 0H90ZM312 901Q340 901 360 893T398 873T431 853T467 844Q513 844 513 902H561L571 894Q571 830 543 801T471
771Q435 771 408 785T359 813T312 828Q290 828 278 813T265 770H217L207 778Q207 839 236 870T312 901Z" />
<glyph unicode="&#xd2;" horiz-adv-x="770" d="M385 -12Q325 -12 267 7T163 67T90 178T62 347Q62 448 89 518T163 630T267 692T385 712Q445 712 503 693T607 631T680 518T708 347Q708 247 681 178T607 68T504 7T385 -12ZM384 64Q448 64 501 92T586 182T618 350Q618
454 587 517T502 608T385 636Q321 636 268 608T184 517T152 350Q152 246 183 183T267 92T384 64ZM486 760H412L297 882V898H403L486 776V760Z" />
<glyph unicode="&#xd3;" horiz-adv-x="770" d="M385 -12Q325 -12 267 7T163 67T90 178T62 347Q62 448 89 518T163 630T267 692T385 712Q445 712 503 693T607 631T680 518T708 347Q708 247 681 178T607 68T504 7T385 -12ZM384 64Q448 64 501 92T586 182T618 350Q618
454 587 517T502 608T385 636Q321 636 268 608T184 517T152 350Q152 246 183 183T267 92T384 64ZM315 760V776L398 898H504V882L389 760H315Z" />
<glyph unicode="&#xd4;" horiz-adv-x="770" d="M385 -12Q325 -12 267 7T163 67T90 178T62 347Q62 448 89 518T163 630T267 692T385 712Q445 712 503 693T607 631T680 518T708 347Q708 247 681 178T607 68T504 7T385 -12ZM384 64Q448 64 501 92T586 182T618 350Q618
454 587 517T502 608T385 636Q321 636 268 608T184 517T152 350Q152 246 183 183T267 92T384 64ZM337 898H433L545 776V760H475L385 839L295 760H225V776L337 898Z" />
<glyph unicode="&#xd5;" horiz-adv-x="770" d="M385 -12Q325 -12 267 7T163 67T90 178T62 347Q62 448 89 518T163 630T267 692T385 712Q445 712 503 693T607 631T680 518T708 347Q708 247 681 178T607 68T504 7T385 -12ZM384 64Q448 64 501 92T586 182T618 350Q618
454 587 517T502 608T385 636Q321 636 268 608T184 517T152 350Q152 246 183 183T267 92T384 64ZM308 901Q336 901 356 893T394 873T427 853T463 844Q509 844 509 902H557L567 894Q567 830 539 801T467 771Q431 771 404 785T355 813T308 828Q286 828 274 813T261
770H213L203 778Q203 839 232 870T308 901Z" />
<glyph unicode="&#xd6;" horiz-adv-x="770" d="M385 -12Q325 -12 267 7T163 67T90 178T62 347Q62 448 89 518T163 630T267 692T385 712Q445 712 503 693T607 631T680 518T708 347Q708 247 681 178T607 68T504 7T385 -12ZM384 64Q448 64 501 92T586 182T618 350Q618
454 587 517T502 608T385 636Q321 636 268 608T184 517T152 350Q152 246 183 183T267 92T384 64ZM485 770Q463 770 447 784T431 824Q431 850 447 864T485 878Q508 878 523 864T539 824Q539 799 524 785T485 770ZM285 770Q263 770 247 784T231 824Q231 850 247 864T285
878Q308 878 323 864T339 824Q339 799 324 785T285 770Z" />
<glyph unicode="&#xd7;" horiz-adv-x="550" d="M122 145L66 200L108 238L387 518L425 561L481 504L439 467L160 187L122 145ZM482 199L426 144L388 186L109 466L67 503L122 560L160 517L440 237L482 199Z" />
<glyph unicode="&#xd8;" horiz-adv-x="781" d="M66 -24L627 724H719L158 -24H66ZM390 -19Q329 -19 271 2T165 67T90 180T62 347Q62 444 90 513T165 628T270 694T390 716Q451 716 509 695T615 628T691 514T719 347Q719 250 691 181T616 67T510 2T390 -19ZM390 56Q450
56 503 85T590 178T623 347Q623 451 590 516T504 611T390 641Q330 641 277 611T191 516T158 347Q158 242 191 178T277 85T390 56Z" />
<glyph unicode="&#xd9;" horiz-adv-x="740" d="M371 -12Q273 -12 211 24T120 122T90 258V620L80 700H185L175 620V262Q175 174 220 120T371 66Q475 66 520 120T565 262V620L555 700H660L650 620V258Q650 183 621 122T530 25T371 -12ZM441 760H367L252 882V898H358L441
776V760Z" />
<glyph unicode="&#xda;" horiz-adv-x="740" d="M371 -12Q273 -12 211 24T120 122T90 258V620L80 700H185L175 620V262Q175 174 220 120T371 66Q475 66 520 120T565 262V620L555 700H660L650 620V258Q650 183 621 122T530 25T371 -12ZM300 760V776L383 898H489V882L374
760H300Z" />
<glyph unicode="&#xdb;" horiz-adv-x="740" d="M371 -12Q273 -12 211 24T120 122T90 258V620L80 700H185L175 620V262Q175 174 220 120T371 66Q475 66 520 120T565 262V620L555 700H660L650 620V258Q650 183 621 122T530 25T371 -12ZM322 898H418L530 776V760H460L370
839L280 760H210V776L322 898Z" />
<glyph unicode="&#xdc;" horiz-adv-x="740" d="M371 -12Q273 -12 211 24T120 122T90 258V620L80 700H185L175 620V262Q175 174 220 120T371 66Q475 66 520 120T565 262V620L555 700H660L650 620V258Q650 183 621 122T530 25T371 -12ZM470 770Q448 770 432 784T416
824Q416 850 432 864T470 878Q493 878 508 864T524 824Q524 799 509 785T470 770ZM270 770Q248 770 232 784T216 824Q216 850 232 864T270 878Q293 878 308 864T324 824Q324 799 309 785T270 770Z" />
<glyph unicode="&#xdd;" horiz-adv-x="564" d="M231 0L241 80V280L6 700H107L132 642L267 390L279 344H287L299 390L432 642L457 700H558L325 280V80L335 0H231ZM212 760V776L295 898H401V882L286 760H212Z" />
<glyph unicode="&#xde;" horiz-adv-x="607" d="M90 0L100 80V620L90 700H191L181 620V552H321Q395 552 447 523T526 447T554 349Q554 315 541 280T501 215T429 167T321 148H184V80L194 0H90ZM184 220H317Q369 220 401 238T448 285T464 348Q464 402 428 441T317
480H184V220Z" />
<glyph unicode="&#xdf;" horiz-adv-x="632" d="M390 -12Q361 -12 325 -6T266 11V93L280 103Q294 90 314 81T355 68T392 64Q437 64 466 90T496 161Q496 193 482 212T444 244T396 267T347 289T310 318T295 365Q295 394 309 413T344 445T387 473T422 506T436 557Q436
568 432 584T416 616T377 643T306 654Q255 654 227 640T187 606T173 565T170 530V80L180 0H76L86 80V521Q86 535 88 560T100 614T132 669T196 711T301 728Q379 728 428 704T499 640T522 556Q522 518 509 492T475 447T435 416T402 392T388 367Q388 351 407 341T456
320T514 290T562 240T582 158Q582 111 564 79T517 26T455 -3T390 -12Z" />
<glyph unicode="&#xe0;" horiz-adv-x="545" d="M410 0L395 53V325Q395 365 384 392T341 435T246 450Q209 450 178 443T117 417L101 427V499Q145 513 183 517T255 522Q342 522 390 499T459 432T479 322V80L489 0H410ZM241 -12Q197 -12 154 2T83 52T54 150Q54 198
72 230T120 280T189 305T267 313Q291 313 311 311T352 304L404 267V221Q378 235 349 240T281 246Q211 246 175 226T138 149Q138 103 165 81T252 58Q314 58 350 78T407 126L427 81L331 0Q311 -5 288 -8T241 -12ZM311 582L197 718V734H297L379 598V582H311Z" />
<glyph unicode="&#xe1;" horiz-adv-x="545" d="M410 0L395 53V325Q395 365 384 392T341 435T246 450Q209 450 178 443T117 417L101 427V499Q145 513 183 517T255 522Q342 522 390 499T459 432T479 322V80L489 0H410ZM241 -12Q197 -12 154 2T83 52T54 150Q54 198
72 230T120 280T189 305T267 313Q291 313 311 311T352 304L404 267V221Q378 235 349 240T281 246Q211 246 175 226T138 149Q138 103 165 81T252 58Q314 58 350 78T407 126L427 81L331 0Q311 -5 288 -8T241 -12ZM266 582H198V598L280 734H380V718L266 582Z" />
<glyph unicode="&#xe2;" horiz-adv-x="545" d="M410 0L395 53V325Q395 365 384 392T341 435T246 450Q209 450 178 443T117 417L101 427V499Q145 513 183 517T255 522Q342 522 390 499T459 432T479 322V80L489 0H410ZM241 -12Q197 -12 154 2T83 52T54 150Q54 198
72 230T120 280T189 305T267 313Q291 313 311 311T352 304L404 267V221Q378 235 349 240T281 246Q211 246 175 226T138 149Q138 103 165 81T252 58Q314 58 350 78T407 126L427 81L331 0Q311 -5 288 -8T241 -12ZM236 734H332L449 598V582H379L284 668L189 582H119V598L236
734Z" />
<glyph unicode="&#xe3;" horiz-adv-x="545" d="M410 0L395 53V325Q395 365 384 392T341 435T246 450Q209 450 178 443T117 417L101 427V499Q145 513 183 517T255 522Q342 522 390 499T459 432T479 322V80L489 0H410ZM241 -12Q197 -12 154 2T83 52T54 150Q54 198
72 230T120 280T189 305T267 313Q291 313 311 311T352 304L404 267V221Q378 235 349 240T281 246Q211 246 175 226T138 149Q138 103 165 81T252 58Q314 58 350 78T407 126L427 81L331 0Q311 -5 288 -8T241 -12ZM208 723Q236 723 256 715T294 695T327 675T363 666Q409
666 409 724H457L467 716Q467 652 439 623T367 593Q331 593 304 607T255 635T208 650Q186 650 174 635T161 592H113L103 600Q103 661 132 692T208 723Z" />
<glyph unicode="&#xe4;" horiz-adv-x="545" d="M410 0L395 53V325Q395 365 384 392T341 435T246 450Q209 450 178 443T117 417L101 427V499Q145 513 183 517T255 522Q342 522 390 499T459 432T479 322V80L489 0H410ZM241 -12Q197 -12 154 2T83 52T54 150Q54 198
72 230T120 280T189 305T267 313Q291 313 311 311T352 304L404 267V221Q378 235 349 240T281 246Q211 246 175 226T138 149Q138 103 165 81T252 58Q314 58 350 78T407 126L427 81L331 0Q311 -5 288 -8T241 -12ZM384 604Q362 604 346 618T330 658Q330 684 346 698T384
712Q407 712 422 698T438 658Q438 633 423 619T384 604ZM184 604Q162 604 146 618T130 658Q130 684 146 698T184 712Q207 712 222 698T238 658Q238 633 223 619T184 604Z" />
<glyph unicode="&#xe5;" horiz-adv-x="545" d="M410 0L395 53V325Q395 365 384 392T341 435T246 450Q209 450 178 443T117 417L101 427V499Q145 513 183 517T255 522Q342 522 390 499T459 432T479 322V80L489 0H410ZM241 -12Q197 -12 154 2T83 52T54 150Q54 198
72 230T120 280T189 305T267 313Q291 313 311 311T352 304L404 267V221Q378 235 349 240T281 246Q211 246 175 226T138 149Q138 103 165 81T252 58Q314 58 350 78T407 126L427 81L331 0Q311 -5 288 -8T241 -12ZM285 568Q243 568 212 593T181 668Q181 719 212 743T285
768Q328 768 358 744T389 668Q389 618 359 593T285 568ZM285 622Q303 622 317 632T331 668Q331 694 317 704T285 714Q268 714 254 704T239 668Q239 643 253 633T285 622Z" />
<glyph unicode="&#xe6;" horiz-adv-x="855" d="M248 59Q313 59 351 97T390 222L270 224Q203 224 171 206T138 143Q138 103 165 81T248 59ZM476 269L522 291H723Q723 338 714 373T678 429T604 450Q541 450 509 408T476 269ZM100 427V498Q129 510 161 516T232 522Q320
522 366 494T435 423Q461 461 504 491T612 522Q674 522 717 493T784 411T808 291Q808 269 806 252T801 224H476Q476 137 522 99T638 61Q677 61 711 70T767 95L783 85V13Q753 1 716 -5T642 -12Q557 -12 504 20T427 93Q413 66 388 42T325 3T238 -12Q194 -12 152 3T82
52T54 143Q54 189 73 218T123 263T191 285T267 291H344L390 269V337Q390 395 347 422T242 450Q208 450 175 442T116 417L100 427Z" />
<glyph unicode="&#xe7;" horiz-adv-x="502" d="M318 -12Q273 -12 227 0T141 43T78 125T54 255Q54 330 76 381T135 463T220 508T317 522Q354 522 383 516T437 499V427L421 417Q397 434 370 442T310 450Q266 450 227 433T164 373T140 257Q140 198 155 160T196 100T252
69T312 60Q350 60 379 71T428 95L444 85V13Q416 1 385 -5T318 -12ZM282 -220Q242 -220 202 -206V-158L212 -150Q223 -155 240 -159T279 -164Q311 -164 327 -154T343 -126Q343 -113 331 -101T281 -88H225L215 -80L252 31H313V17L291 -48H297L308 -40Q359 -40 382
-67T405 -128Q405 -175 368 -197T282 -220Z" />
<glyph unicode="&#xe8;" horiz-adv-x="541" d="M54 256Q54 355 86 413T172 497T285 522Q354 522 400 495T470 417T494 296Q494 276 492 259T487 227H98V245L188 295H409Q409 340 400 375T363 430T284 450Q230 450 199 427T154 361T140 263Q140 196 155 155T195
94T250 67T310 60Q357 60 391 69T453 95L469 85V13Q438 2 401 -5T319 -12Q271 -12 224 -1T138 40T77 121T54 256ZM273 582L159 718V734H259L341 598V582H273Z" />
<glyph unicode="&#xe9;" horiz-adv-x="541" d="M54 256Q54 355 86 413T172 497T285 522Q354 522 400 495T470 417T494 296Q494 276 492 259T487 227H98V245L188 295H409Q409 340 400 375T363 430T284 450Q230 450 199 427T154 361T140 263Q140 196 155 155T195
94T250 67T310 60Q357 60 391 69T453 95L469 85V13Q438 2 401 -5T319 -12Q271 -12 224 -1T138 40T77 121T54 256ZM299 582H231V598L313 734H413V718L299 582Z" />
<glyph unicode="&#xea;" horiz-adv-x="541" d="M54 256Q54 355 86 413T172 497T285 522Q354 522 400 495T470 417T494 296Q494 276 492 259T487 227H98V245L188 295H409Q409 340 400 375T363 430T284 450Q230 450 199 427T154 361T140 263Q140 196 155 155T195
94T250 67T310 60Q357 60 391 69T453 95L469 85V13Q438 2 401 -5T319 -12Q271 -12 224 -1T138 40T77 121T54 256ZM235 734H331L448 598V582H378L283 668L188 582H118V598L235 734Z" />
<glyph unicode="&#xeb;" horiz-adv-x="541" d="M54 256Q54 355 86 413T172 497T285 522Q354 522 400 495T470 417T494 296Q494 276 492 259T487 227H98V245L188 295H409Q409 340 400 375T363 430T284 450Q230 450 199 427T154 361T140 263Q140 196 155 155T195
94T250 67T310 60Q357 60 391 69T453 95L469 85V13Q438 2 401 -5T319 -12Q271 -12 224 -1T138 40T77 121T54 256ZM383 604Q361 604 345 618T329 658Q329 684 345 698T383 712Q406 712 421 698T437 658Q437 633 422 619T383 604ZM183 604Q161 604 145 618T129 658Q129
684 145 698T183 712Q206 712 221 698T237 658Q237 633 222 619T183 604Z" />
<glyph unicode="&#xec;" horiz-adv-x="334" d="M144 0L154 80V442H50V510H248L238 430V80L248 0H144ZM176 582L62 718V734H162L244 598V582H176Z" />
<glyph unicode="&#xed;" horiz-adv-x="334" d="M144 0L154 80V442H50V510H248L238 430V80L248 0H144ZM202 582H134V598L216 734H316V718L202 582Z" />
<glyph unicode="&#xee;" horiz-adv-x="334" d="M144 0L154 80V442H50V510H248L238 430V80L248 0H144ZM107 734H203L320 598V582H250L155 668L60 582H-10V598L107 734Z" />
<glyph unicode="&#xef;" horiz-adv-x="334" d="M144 0L154 80V442H50V510H248L238 430V80L248 0H144ZM286 604Q264 604 248 618T232 658Q232 684 248 698T286 712Q309 712 324 698T340 658Q340 633 325 619T286 604ZM86 604Q64 604 48 618T32 658Q32 684 48 698T86
712Q109 712 124 698T140 658Q140 633 125 619T86 604Z" />
<glyph unicode="&#xf0;" horiz-adv-x="587" d="M278 -12Q214 -12 164 14T84 92T54 223Q54 307 86 358T171 434T283 458Q305 458 322 455T356 446L407 415H414Q410 472 389 515T333 589T256 639T169 665L204 727Q302 714 370 656T475 506T511 297Q511 205 487 136T411
27T278 -12ZM276 60Q329 60 361 84T409 157T425 281Q425 297 424 318T421 359Q399 371 365 379T292 388Q216 388 179 349T141 224Q141 138 176 99T276 60ZM174 503L146 558L248 609L325 620L346 660L481 728L511 670L174 503Z" />
<glyph unicode="&#xf1;" horiz-adv-x="594" d="M424 0L434 80V335Q434 390 403 418T311 446Q263 446 229 432T174 401T141 371V429L249 511Q269 516 290 519T333 522Q381 522 423 506T491 449T518 338V80L528 0H424ZM76 0L86 80V432L76 510H156L170 451V80L180
0H76ZM235 723Q263 723 283 715T321 695T354 675T390 666Q436 666 436 724H484L494 716Q494 652 466 623T394 593Q358 593 331 607T282 635T235 650Q213 650 201 635T188 592H140L130 600Q130 661 159 692T235 723Z" />
<glyph unicode="&#xf2;" horiz-adv-x="586" d="M293 -12Q233 -12 178 14T89 99T54 255Q54 329 74 380T128 462T205 508T293 522Q338 522 381 508T458 463T512 380T532 255Q532 158 498 99T409 14T293 -12ZM293 60Q364 60 405 104T446 257Q446 330 428 372T375
432T293 450Q245 450 211 432T159 372T140 257Q140 148 181 104T293 60ZM283 582L169 718V734H269L351 598V582H283Z" />
<glyph unicode="&#xf3;" horiz-adv-x="586" d="M293 -12Q233 -12 178 14T89 99T54 255Q54 329 74 380T128 462T205 508T293 522Q338 522 381 508T458 463T512 380T532 255Q532 158 498 99T409 14T293 -12ZM293 60Q364 60 405 104T446 257Q446 330 428 372T375
432T293 450Q245 450 211 432T159 372T140 257Q140 148 181 104T293 60ZM309 582H241V598L323 734H423V718L309 582Z" />
<glyph unicode="&#xf4;" horiz-adv-x="586" d="M293 -12Q233 -12 178 14T89 99T54 255Q54 329 74 380T128 462T205 508T293 522Q338 522 381 508T458 463T512 380T532 255Q532 158 498 99T409 14T293 -12ZM293 60Q364 60 405 104T446 257Q446 330 428 372T375
432T293 450Q245 450 211 432T159 372T140 257Q140 148 181 104T293 60ZM245 734H341L458 598V582H388L293 668L198 582H128V598L245 734Z" />
<glyph unicode="&#xf5;" horiz-adv-x="586" d="M293 -12Q233 -12 178 14T89 99T54 255Q54 329 74 380T128 462T205 508T293 522Q338 522 381 508T458 463T512 380T532 255Q532 158 498 99T409 14T293 -12ZM293 60Q364 60 405 104T446 257Q446 330 428 372T375
432T293 450Q245 450 211 432T159 372T140 257Q140 148 181 104T293 60ZM217 723Q245 723 265 715T303 695T336 675T372 666Q418 666 418 724H466L476 716Q476 652 448 623T376 593Q340 593 313 607T264 635T217 650Q195 650 183 635T170 592H122L112 600Q112 661
141 692T217 723Z" />
<glyph unicode="&#xf6;" horiz-adv-x="586" d="M293 -12Q233 -12 178 14T89 99T54 255Q54 329 74 380T128 462T205 508T293 522Q338 522 381 508T458 463T512 380T532 255Q532 158 498 99T409 14T293 -12ZM293 60Q364 60 405 104T446 257Q446 330 428 372T375
432T293 450Q245 450 211 432T159 372T140 257Q140 148 181 104T293 60ZM193 604Q171 604 155 618T139 658Q139 684 155 698T193 712Q216 712 231 698T247 658Q247 633 232 619T193 604ZM393 604Q371 604 355 618T339 658Q339 684 355 698T393 712Q416 712 431
698T447 658Q447 633 432 619T393 604Z" />
<glyph unicode="&#xf7;" horiz-adv-x="560" d="M280 473Q258 473 242 489T225 528Q225 551 241 567T280 583Q303 583 319 567T335 528Q335 506 319 490T280 473ZM280 126Q258 126 242 142T225 181Q225 204 241 220T280 236Q303 236 319 220T335 181Q335 159 319
143T280 126ZM508 313L448 318H112L52 313V390H508V313Z" />
<glyph unicode="&#xf8;" horiz-adv-x="586" d="M75 -41L427 541H511L159 -41H75ZM293 -12Q233 -12 178 14T89 99T54 255Q54 329 74 380T128 462T205 508T293 522Q338 522 381 508T458 463T512 380T532 255Q532 158 498 99T409 14T293 -12ZM293 60Q364 60 405 104T446
257Q446 330 428 372T375 432T293 450Q245 450 211 432T159 372T140 257Q140 148 181 104T293 60Z" />
<glyph unicode="&#xf9;" horiz-adv-x="586" d="M268 -12Q237 -12 204 -4T142 23T96 77T78 166V430L68 510H172L162 430V179Q162 129 178 103T222 69T283 60Q347 60 382 79T444 127V71L353 1Q334 -5 313 -8T268 -12ZM437 0L426 63V430L416 510H520L510 430V80L520
0H437ZM284 582L170 718V734H270L352 598V582H284Z" />
<glyph unicode="&#xfa;" horiz-adv-x="586" d="M268 -12Q237 -12 204 -4T142 23T96 77T78 166V430L68 510H172L162 430V179Q162 129 178 103T222 69T283 60Q347 60 382 79T444 127V71L353 1Q334 -5 313 -8T268 -12ZM437 0L426 63V430L416 510H520L510 430V80L520
0H437ZM310 582H242V598L324 734H424V718L310 582Z" />
<glyph unicode="&#xfb;" horiz-adv-x="586" d="M268 -12Q237 -12 204 -4T142 23T96 77T78 166V430L68 510H172L162 430V179Q162 129 178 103T222 69T283 60Q347 60 382 79T444 127V71L353 1Q334 -5 313 -8T268 -12ZM437 0L426 63V430L416 510H520L510 430V80L520
0H437ZM246 734H342L459 598V582H389L294 668L199 582H129V598L246 734Z" />
<glyph unicode="&#xfc;" horiz-adv-x="586" d="M268 -12Q237 -12 204 -4T142 23T96 77T78 166V430L68 510H172L162 430V179Q162 129 178 103T222 69T283 60Q347 60 382 79T444 127V71L353 1Q334 -5 313 -8T268 -12ZM437 0L426 63V430L416 510H520L510 430V80L520
0H437ZM394 604Q372 604 356 618T340 658Q340 684 356 698T394 712Q417 712 432 698T448 658Q448 633 433 619T394 604ZM194 604Q172 604 156 618T140 658Q140 684 156 698T194 712Q217 712 232 698T248 658Q248 633 233 619T194 604Z" />
<glyph unicode="&#xfd;" horiz-adv-x="544" d="M103 -136Q111 -142 119 -144T136 -146Q159 -146 178 -134T208 -95L237 -17L26 510H122L144 436L266 118L275 61H281L290 118L400 436L422 510H518L278 -119Q264 -156 241 -178T191 -210T136 -220Q122 -220 112 -218T91
-211V-146L103 -136ZM288 582H220V598L302 734H402V718L288 582Z" />
<glyph unicode="&#xfe;" horiz-adv-x="576" d="M281 -10Q263 -10 246 -8T214 -2L112 83V143Q137 110 164 93T218 69T271 62Q351 62 393 111T435 254Q435 308 420 352T371 422T282 448Q245 448 212 436T153 404T109 361V421L211 509Q236 515 256 517T292 519Q354
519 406 490T490 403T522 261Q522 186 494 125T413 27T281 -10ZM53 -200L63 -120V650L53 730H157L147 650V-120L157 -200H53Z" />
<glyph unicode="&#xff;" horiz-adv-x="544" d="M103 -136Q111 -142 119 -144T136 -146Q159 -146 178 -134T208 -95L237 -17L26 510H122L144 436L266 118L275 61H281L290 118L400 436L422 510H518L278 -119Q264 -156 241 -178T191 -210T136 -220Q122 -220 112 -218T91
-211V-146L103 -136ZM372 604Q350 604 334 618T318 658Q318 684 334 698T372 712Q395 712 410 698T426 658Q426 633 411 619T372 604ZM172 604Q150 604 134 618T118 658Q118 684 134 698T172 712Q195 712 210 698T226 658Q226 633 211 619T172 604Z" />
<glyph unicode="&#x2013;" horiz-adv-x="500" d="M36 280V365H464V280L404 285H96L36 280Z" />
<glyph unicode="&#x2014;" horiz-adv-x="1000" d="M36 280V365H964V280L904 285H96L36 280Z" />
<glyph unicode="&#x2018;" horiz-adv-x="159" d="M103 736L135 717V701L75 605L81 599L91 610Q119 610 133 592T147 549Q147 521 130 503T83 485Q49 485 32 509T14 568Q14 612 39 655T103 736Z" />
<glyph unicode="&#x2019;" horiz-adv-x="159" d="M56 487L24 506V522L84 618L78 624L68 613Q40 613 26 631T12 674Q12 702 29 720T76 738Q111 738 128 714T145 655Q145 611 120 568T56 487Z" />
<glyph unicode="&#x201a;" horiz-adv-x="263" d="M109 -137L77 -118V-102L137 -6L131 0L121 -11Q93 -11 79 7T65 50Q65 78 82 96T129 114Q164 114 181 90T198 31Q198 -13 173 -56T109 -137Z" />
<glyph unicode="&#x201c;" horiz-adv-x="355" d="M103 747L135 728V712L75 616L81 610L91 621Q119 621 133 603T147 560Q147 532 130 514T83 496Q49 496 32 520T14 579Q14 623 39 666T103 747ZM299 747L331 728V712L271 616L277 610L287 621Q315 621 329 603T343
560Q343 532 326 514T279 496Q245 496 228 520T210 579Q210 623 235 666T299 747Z" />
<glyph unicode="&#x201d;" horiz-adv-x="355" d="M252 486L220 505V521L280 617L274 623L264 612Q236 612 222 630T208 673Q208 701 225 719T272 737Q307 737 324 713T341 654Q341 610 316 567T252 486ZM56 486L24 505V521L84 617L78 623L68 612Q40 612 26 630T12
673Q12 701 29 719T76 737Q111 737 128 713T145 654Q145 610 120 567T56 486Z" />
<glyph unicode="&#x201e;" horiz-adv-x="463" d="M309 -136L277 -117V-101L337 -5L331 1L321 -10Q293 -10 279 8T265 51Q265 79 282 97T329 115Q364 115 381 91T398 32Q398 -12 373 -55T309 -136ZM109 118L77 137V153L137 249L131 255L121 244Q93 244 79 262T65
305Q65 333 82 351T129 369Q164 369 181 345T198 286Q198 242 173 199T109 118Z" />
<glyph unicode="&#x2022;" horiz-adv-x="314" d="M157 267Q112 267 84 292T55 369Q55 420 83 445T157 471Q202 471 230 446T259 369Q259 318 231 293T157 267Z" />
<glyph unicode="&#x2039;" horiz-adv-x="274" d="M153 90L34 261L160 431H239V411L139 260L239 108V90H153Z" />
<glyph unicode="&#x203a;" horiz-adv-x="274" d="M121 90H35V108L135 260L35 411V431H114L240 261L121 90Z" />
</font>
</defs>
</svg>
