<?xml version="1.0" standalone="no"?>
<!DOCTYPE svg PUBLIC "-//W3C//DTD SVG 1.1//EN" "http://www.w3.org/Graphics/SVG/1.1/DTD/svg11.dtd">
<svg xmlns="http://www.w3.org/2000/svg">
<defs >
<font id="Joan" horiz-adv-x="577" ><font-face
    font-family="Joan"
    units-per-em="1000"
    panose-1="0 0 0 0 0 0 0 0 0 0"
    ascent="1000"
    descent="-292"
    alphabetic="0" />
<glyph unicode=" " glyph-name="space" horiz-adv-x="175" />
<glyph unicode="!" glyph-name="exclam" horiz-adv-x="278" d="M120 190L86 709H191L158 190H120ZM138 -8Q112 -8 95 9T78 52Q78 76 95 94T138 113Q164 113 182 96T200 54Q200 29 182 11T138 -8Z" />
<glyph unicode="&quot;" glyph-name="quotedbl" horiz-adv-x="362" d="M84 476L56 726H150L123 476H84ZM240 476L212 726H306L279 476H240Z" />
<glyph unicode="#" glyph-name="numbersign" horiz-adv-x="603" d="M56 126L64 166H180L208 288H93L101 328H218L254 484L295 475L261 328H384L420 484L461 475L427 328H547L539 288H418L390 166H509L501 126H381L345 -28L304 -19L337 126H214L178 -28L137 -19L171
126H56ZM223 166H347L375 288H252L223 166Z" />
<glyph unicode="$" glyph-name="dollar" horiz-adv-x="536" d="M263 -130L221 -127L231 -12Q192 -10 158 -3T101 11T76 22L46 206L78 212Q95 134 131 87T235 32L259 307Q218 333 179 361T115 426T89 516Q89 571 116 608T189 667T292 691L303 815L345 812L335 692Q373
690 403 684T450 674L471 518L440 515Q433 570 407 605T331 647L308 389Q350 364 391 335T458 264T485 161Q485 106 457 68T381 9T273 -13L263 -130ZM174 538Q174 496 201 467T268 413L288 647Q240 640 207 610T174 538ZM398 149Q398 193 369 224T299 282L277 33Q331
39 364 69T398 149Z" />
<glyph unicode="%" glyph-name="percent" horiz-adv-x="735" d="M145 -45L97 -14L589 744L638 714L145 -45ZM199 407Q161 407 128 427T76 481T56 556Q56 598 75 632T128 686T199 707Q236 707 268 687T320 632T340 556Q340 515 320 481T268 427T199 407ZM199 462Q221
462 239 475T269 510T281 556Q281 581 270 602T240 638T199 652Q164 652 140 623T115 556Q115 532 126 511T157 476T199 462ZM538 -8Q500 -8 467 12T415 66T395 141Q395 183 414 217T467 272T538 292Q575 292 607 272T659 218T679 141Q679 100 659 66T607 12T538
-8ZM538 47Q560 47 578 60T608 95T620 141Q620 166 609 187T579 223T538 237Q503 237 479 208T454 141Q454 117 465 96T496 61T538 47Z" />
<glyph unicode="&amp;" glyph-name="ampersand" horiz-adv-x="781" d="M634 -19Q584 -19 538 5T451 67Q417 37 373 17Q318 -8 260 -8Q201 -8 155 16T83 82T56 178Q56 234 92 288T196 393Q180 416 168 437T146 477Q136 497 130 520T124 569Q124 613 144 647T197
701T271 721Q309 721 341 705T394 660T414 595Q414 549 383 499T293 405Q339 341 381 284Q404 254 428 220T480 153Q520 201 536 260T539 389Q519 398 497 401T461 404V434H686V404Q672 404 647 401T599 389Q600 322 579 251T506 123Q544 82 583 54T664 26Q681
26 693 28T717 32L725 1Q712 -5 689 -12T634 -19ZM269 439Q316 474 331 508T347 570Q347 615 323 646T262 678Q232 678 213 659T194 606Q194 581 201 559T221 514Q229 500 241 481T269 439ZM305 53Q338 53 367 64T423 95Q394 125 367 158T315 224Q293 254 269 287T221
354Q184 323 163 286T142 206Q142 137 188 95T305 53Z" />
<glyph unicode="&apos;" glyph-name="quotesingle" horiz-adv-x="206" d="M84 476L56 726H150L123 476H84Z" />
<glyph unicode="(" glyph-name="parenleft" horiz-adv-x="340" d="M249 -212Q170 -93 127 38T84 319Q84 468 127 599T249 850L284 830Q248 769 221 697T179 533T164 319Q164 198 179 106T221 -58T284 -192L249 -212Z" />
<glyph unicode=")" glyph-name="parenright" horiz-adv-x="340" d="M91 -212L56 -192Q92 -130 119 -58T161 106T176 319Q176 441 161 533T119 697T56 830L91 850Q170 731 213 600T256 319Q256 170 213 39T91 -212Z" />
<glyph unicode="*" glyph-name="asterisk" horiz-adv-x="431" d="M146 484L82 531L195 640L38 664L62 739L201 664L176 822H254L227 666L368 739L393 664L237 642L350 531L286 484L217 626L146 484Z" />
<glyph unicode="+" glyph-name="plus" horiz-adv-x="600" d="M263 -7V210H64V266H263V483H321V266H536V210H321V-7H263Z" />
<glyph unicode="," glyph-name="comma" horiz-adv-x="286" d="M93 -160L78 -139Q110 -115 128 -82T147 -8H145Q119 -8 102 9T84 52Q84 77 101 95T145 114Q171 114 187 97T207 50Q210 19 200 -21T163 -98T93 -160Z" />
<glyph unicode="-" glyph-name="hyphen" horiz-adv-x="376" d="M38 187L47 255L338 270L329 202L38 187Z" />
<glyph unicode="." glyph-name="period" horiz-adv-x="283" d="M141 -8Q114 -8 96 10T78 54Q78 80 96 99T141 118Q168 118 186 100T205 56Q205 31 187 12T141 -8Z" />
<glyph unicode="/" glyph-name="slash" horiz-adv-x="379" d="M108 -92L56 -77L299 721L351 705L108 -92Z" />
<glyph unicode="0" glyph-name="zero" horiz-adv-x="544" d="M272 -14Q225 -14 182 5T105 59T52 139T32 237Q32 289 51 334T104 415T181 469T272 489Q319 489 362 470T439 415T492 335T512 237Q512 185 493 140T440 60T363 6T272 -14ZM272 52Q317 52 356 78T419
146T443 237Q443 287 419 329T356 397T272 423Q227 423 188 397T125 329T101 237Q101 188 125 146T188 78T272 52Z" />
<glyph unicode="1" glyph-name="one" horiz-adv-x="348" d="M28 0V30Q45 30 75 33T131 46V414H38L35 446Q126 460 195 489L215 476V46Q241 36 271 33T318 30V0H28Z" />
<glyph unicode="2" glyph-name="two" horiz-adv-x="445" d="M34 0V44Q40 49 58 66T100 108T147 156T185 200Q211 233 226 264T242 329Q242 370 219 394T154 419Q128 419 108 409T73 372L45 386Q61 434 100 461T191 488Q230 489 262 473T313 427T333 357Q333 317
314 281T262 209Q239 182 213 155T166 105T133 70H411L398 0H34Z" />
<glyph unicode="3" glyph-name="three" horiz-adv-x="395" d="M137 140L122 171Q187 206 222 246T258 333Q258 376 233 398T173 421Q148 421 122 410T71 375L46 395Q71 433 112 460T202 488Q236 488 267 475T320 433T341 359Q341 316 321 281T263 216Q286 194
308 166T344 104T359 30Q359 -41 327 -91T244 -173T136 -216T28 -222L32 -189Q97 -192 152 -168T242 -100T276 3Q276 39 261 69T224 123T180 162Q160 151 137 140Z" />
<glyph unicode="4" glyph-name="four" horiz-adv-x="511" d="M297 -191V26H51L34 53L350 489L378 472V82H477L467 26H378V-168L297 -191ZM117 82H297V331L117 82Z" />
<glyph unicode="5" glyph-name="five" horiz-adv-x="420" d="M30 -219L33 -187Q80 -190 124 -178T203 -142T258 -83T279 -9Q279 41 254 84T183 160T81 206L120 478H384L370 400H168L151 288Q212 262 258 222T332 131T359 24Q359 -36 333 -85T260 -167T154 -215T30 -219Z" />
<glyph unicode="6" glyph-name="six" horiz-adv-x="486" d="M234 -14Q172 -14 127 16T57 97T32 211Q32 289 60 361T139 497T254 613T393 703L411 673Q353 639 300 593T206 490T142 369T118 237Q118 189 136 143T187 68T261 38Q317 38 343 78T370 172Q370 220 345
257T281 309T195 303L180 336Q216 363 263 366T353 351T425 293T454 197Q454 143 426 95T349 17T234 -14Z" />
<glyph unicode="7" glyph-name="seven" horiz-adv-x="459" d="M28 400L42 478H431V400L153 -223L99 -199L366 400H28Z" />
<glyph unicode="8" glyph-name="eight" horiz-adv-x="472" d="M230 -15Q176 -15 133 7T63 69T37 156Q37 197 56 233T107 300T174 350Q134 385 103 427T72 520Q72 566 95 602T156 660T241 682Q283 682 320 663T380 612T403 538Q403 490 373 445T300 369Q332 346
361 319T408 258T426 178Q426 123 400 80T330 11T230 -15ZM260 396Q262 394 264 393T269 390Q298 416 311 453T325 524Q325 555 312 581T277 623T227 639Q195 639 172 615T148 552Q148 503 180 465T260 396ZM122 177Q122 140 139 107T185 53T247 32Q288 32 319
63T351 141Q351 186 329 217T273 274T206 324Q162 296 142 256T122 177Z" />
<glyph unicode="9" glyph-name="nine" horiz-adv-x="496" d="M99 -224L81 -194Q140 -160 200 -106T304 19Q374 130 374 228Q374 263 364 299T334 367T287 417T226 436Q191 436 167 419T130 374T117 314Q117 261 143 222T209 167T294 170L309 137Q269 108 222 106T132
124T63 184T36 278Q36 332 64 380T140 458T251 488Q316 488 362 458T434 374T460 255Q460 189 436 130T380 20Q347 -32 301 -77T203 -160T99 -224Z" />
<glyph unicode=":" glyph-name="colon" horiz-adv-x="303" d="M151 242Q124 242 106 260T88 304Q88 330 106 349T151 368Q178 368 196 350T215 306Q215 281 197 262T151 242ZM151 -8Q124 -8 106 10T88 54Q88 80 106 99T151 118Q178 118 196 100T215 56Q215 31
197 12T151 -8Z" />
<glyph unicode=";" glyph-name="semicolon" horiz-adv-x="306" d="M103 -160L88 -139Q120 -115 138 -82T157 -8H155Q129 -8 112 9T94 52Q94 77 111 95T155 114Q181 114 197 97T217 50Q220 19 210 -21T173 -98T103 -160ZM154 242Q127 242 109 260T91 304Q91 330
109 349T154 368Q181 368 199 350T218 306Q218 281 200 262T154 242Z" />
<glyph unicode="&lt;" glyph-name="less" horiz-adv-x="600" d="M481 443L505 391L174 238L505 85L481 33L95 212V264L481 443Z" />
<glyph unicode="=" glyph-name="equal" horiz-adv-x="600" d="M64 302V358H536V302H64ZM64 374V430H536V374H64Z" />
<glyph unicode="&gt;" glyph-name="greater" horiz-adv-x="600" d="M119 33L95 85L426 238L95 391L119 443L505 264V212L119 33Z" />
<glyph unicode="?" glyph-name="question" horiz-adv-x="484" d="M186 173Q190 209 199 240T226 307Q237 330 254 359T289 423T319 491T331 557Q331 592 315 621T271 669T207 688Q148 688 120 651T96 555L67 547L28 659Q44 676 77 693T152 721T235 733Q321 733
374 692T428 569Q428 533 414 501T380 440T338 386T300 337Q267 289 252 253T230 173H186ZM206 -8Q180 -8 163 9T146 52Q146 76 163 94T206 113Q232 113 250 96T268 54Q268 29 250 11T206 -8Z" />
<glyph unicode="@" glyph-name="at" horiz-adv-x="993" d="M380 -7Q356 -7 338 14T309 69T299 140Q299 191 314 241T358 334T425 405Q466 436 508 448T579 464Q607 467 634 465T686 458L604 37Q647 27 689 38T778 86Q821 119 844 178T869 312Q870 410 828 484T709
600T531 642Q441 642 366 611T237 522T154 386T124 214Q124 130 157 55T248 -77T382 -166T544 -199Q610 -199 655 -189T745 -160L757 -185Q710 -209 655 -224T520 -239Q420 -239 335 -206T188 -112T91 29T56 204Q56 304 93 391T197 544T351 647T541 685Q662 686
750 641T888 514T937 322Q937 243 906 174T812 57Q770 25 729 8T640 -11T530 1L572 210Q545 148 509 99T438 22T380 -7ZM406 72Q425 72 449 92T497 148T544 225T582 312T607 397Q552 412 512 403T443 370Q416 349 399 316T373 246T364 175Q364 132 375 102T406
72Z" />
<glyph unicode="A" glyph-name="A" horiz-adv-x="715" d="M4 0V30Q15 30 35 33T75 45L327 665L312 707L394 737L645 46Q665 36 687 33T721 30V0H464V30Q478 30 504 33T552 46L478 249H216L133 46Q156 36 181 33T221 30V0H4ZM237 300H460L355 589L237 300Z" />
<glyph unicode="B" glyph-name="B" horiz-adv-x="625" d="M50 0V30Q64 30 90 33T138 46V663Q116 670 92 670T53 669L50 699Q116 707 182 714T311 721Q352 721 391 715T460 690Q495 669 514 634T533 558Q533 507 505 463T436 398Q480 384 517 355T577 286T600 198Q600
152 574 106T495 30T360 0H50ZM225 395Q234 395 255 395T302 395T353 401T396 419Q420 434 434 464T449 531Q449 620 388 651T225 668V395ZM509 175Q509 231 477 273T392 334Q352 349 308 349T225 349V69Q238 58 269 51T338 43Q413 43 461 77T509 175Z" />
<glyph unicode="C" glyph-name="C" horiz-adv-x="740" d="M637 13Q534 -14 448 -14Q361 -14 289 12T163 87T80 202T50 350Q50 429 79 496T161 614T283 693T431 721Q500 721 558 710T652 688L672 546L642 540Q615 611 556 642T425 673Q340 673 277 635T180 531T145
380Q145 311 169 249T235 138T333 61T452 33Q535 33 588 69T685 176L715 161L637 13Z" />
<glyph unicode="D" glyph-name="D" horiz-adv-x="832" d="M50 0V30Q64 30 90 33T138 46V663Q116 670 92 670T53 669L50 699Q118 708 189 714T332 721Q461 721 563 681T723 561T782 364Q782 284 744 213T642 92T495 19Q462 10 410 5T310 0H50ZM225 69Q251 59 283
53T353 47Q451 47 525 82T642 182T684 337Q684 426 649 494T550 605T404 665T225 668V69Z" />
<glyph unicode="E" glyph-name="E" horiz-adv-x="598" d="M50 0V30Q64 30 90 33T138 46V661Q116 671 90 674T50 677V707H515L520 571L488 569Q487 586 483 610T468 656H225V393H434Q439 413 441 432T443 463H475V263H443Q443 276 441 298T431 342H225V51H488Q501
68 512 91T532 133T541 159L573 151L540 0H50Z" />
<glyph unicode="F" glyph-name="F" horiz-adv-x="545" d="M50 0V30Q64 30 90 33T138 46V661Q116 671 90 674T50 677V707H515L520 571L488 569Q487 586 483 610T468 656H225V382H430Q436 402 438 421T440 452H470V252H440Q440 265 438 287T428 331H225V46Q250 36
278 33T322 30V0H50Z" />
<glyph unicode="G" glyph-name="G" horiz-adv-x="799" d="M50 349Q50 429 79 497T162 615T284 693T434 721Q509 721 574 709T673 687L694 545L664 539Q646 587 611 616T529 659T435 673Q345 673 280 636T180 532T145 380Q145 310 170 247T238 135T339 59T463 31Q499
31 537 40T617 70V221Q595 231 569 234T529 237V269H759V237Q747 237 730 232T704 221V76Q707 69 715 63T730 52V17Q688 15 646 8T557 -7T458 -14Q339 -14 247 31T103 157T50 349Z" />
<glyph unicode="H" glyph-name="H" horiz-adv-x="850" d="M50 0V30Q64 30 90 33T138 46V661Q116 671 90 674T50 677V707H313V677Q299 677 274 674T225 661V399H625V661Q603 671 577 674T537 677V707H800V677Q786 677 761 674T712 661V46Q735 36 760 33T800 30V0H537V30Q551
30 577 33T625 46V348H225V46Q248 36 273 33T313 30V0H50Z" />
<glyph unicode="I" glyph-name="I" horiz-adv-x="363" d="M50 0V30Q64 30 90 33T138 46V661Q116 671 90 674T50 677V707H313V677Q299 677 274 674T225 661V46Q248 36 273 33T313 30V0H50Z" />
<glyph unicode="J" glyph-name="J" horiz-adv-x="402" d="M46 -263Q65 -246 88 -217T132 -147T166 -59Q171 -39 173 -19T176 20V661Q154 671 128 674T88 677V707H352V677Q338 677 313 674T264 661V0Q248 -66 219 -116T159 -203T102 -259T68 -286L46 -263Z" />
<glyph unicode="K" glyph-name="K" horiz-adv-x="706" d="M705 -30Q637 -29 595 -18T525 15T469 65Q454 81 430 112T377 183T322 261T274 330T243 373L512 661Q493 671 472 674T440 677V707H668V677Q654 677 629 674T581 661L331 392Q347 373 372 340T426 268T484
192T538 127Q565 98 587 74T639 32T712 0L705 -30ZM50 0V30Q64 30 90 33T138 46V661Q116 671 90 674T50 677V707H313V677Q299 677 274 674T225 661V46Q248 36 275 33T317 30V0H50Z" />
<glyph unicode="L" glyph-name="L" horiz-adv-x="590" d="M50 0V30Q64 30 90 33T138 46V661Q116 671 90 674T50 677V707H313V677Q299 677 274 674T225 661V51H493Q505 64 517 85T540 128T555 158L586 148L540 0H50Z" />
<glyph unicode="M" glyph-name="M" horiz-adv-x="951" d="M439 0L207 568L184 46Q207 36 232 33T272 30V0H40V30Q54 30 80 33T128 46L155 661Q133 671 107 674T67 677V707H245L465 169L729 707H876V677Q862 677 837 674T789 661L813 46Q836 36 861 33T901 30V0H638V30Q652
30 677 33T725 46L706 544L439 0Z" />
<glyph unicode="N" glyph-name="N" horiz-adv-x="806" d="M633 -14L184 582V46Q207 36 232 33T272 30V0H40V30Q54 30 80 33T128 46V661Q106 671 80 674T40 677V707H199L622 147V661Q600 671 574 674T534 677V707H766V677Q752 677 727 674T678 661V-14H633Z" />
<glyph unicode="O" glyph-name="O" horiz-adv-x="844" d="M419 -14Q343 -14 276 14T158 91T79 206T50 348Q50 425 79 492T159 611T279 692T424 721Q500 721 567 694T685 617T765 502T794 360Q794 283 765 216T684 97T564 16T419 -14ZM449 41Q523 41 580 78T669
179T702 319Q702 385 679 447T613 559T515 638T395 667Q322 667 265 630T174 530T141 390Q141 324 164 262T230 150T328 71T449 41Z" />
<glyph unicode="P" glyph-name="P" horiz-adv-x="630" d="M50 0V30Q64 30 90 33T138 46V663Q116 670 92 670T53 669L50 699Q116 707 182 714T311 721Q372 721 421 702T506 649T561 575T580 491Q580 433 546 381T446 297T287 268L282 300Q388 307 437 355T487 470Q487
521 465 561T406 628T322 665T225 668V46Q250 36 278 33T322 30V0H50Z" />
<glyph unicode="Q" glyph-name="Q" horiz-adv-x="833" d="M419 -14Q342 -14 275 14T158 92T79 207T50 348Q50 425 79 492T160 611T279 692T424 721Q500 721 567 693T685 616T766 501T795 359Q795 278 763 208T673 85T543 7Q609 -66 690 -113T853 -168L850 -200Q726
-192 629 -149T445 -13Q438 -14 432 -14T419 -14ZM702 319Q702 385 679 447T613 559T515 638T395 667Q321 667 264 630T174 530T141 390Q141 325 164 263T230 150T328 71T449 41Q523 41 580 78T669 179T702 319Z" />
<glyph unicode="R" glyph-name="R" horiz-adv-x="707" d="M50 0V30Q64 30 90 33T138 46V663Q116 670 92 670T53 669L50 699Q116 707 182 714T305 721Q372 721 426 706T512 652T544 548Q544 515 530 480T482 411T391 354Q409 322 434 282T487 202T541 128Q566 97
588 74T640 34T713 0L704 -29Q635 -24 593 -12T522 21T466 73Q450 91 429 124T386 195T344 270T309 330Q290 326 269 323T225 317V46Q248 36 275 33T317 30V0H50ZM225 353Q302 356 353 382T431 446T457 524Q457 583 427 617T345 664T225 668V353Z" />
<glyph unicode="S" glyph-name="S" horiz-adv-x="554" d="M272 -14Q225 -14 182 -7T109 10T77 23L46 215L79 221Q99 135 140 84T262 33Q328 33 370 65T412 155Q412 195 389 225T330 281T252 330T174 383T114 449T91 537Q91 599 123 639T209 700T328 721Q374 721
411 714T467 702L489 540L456 536Q448 599 416 637T321 675Q283 675 251 660T199 619T179 560Q179 521 202 492T263 440T341 392T419 338T479 267T503 168Q503 109 472 69T389 7T272 -14Z" />
<glyph unicode="T" glyph-name="T" horiz-adv-x="638" d="M187 0V30Q201 30 227 33T275 46V656H66Q57 623 52 592T42 531H10V707H628L602 528L571 531Q572 560 572 591T567 656H362V46Q385 36 410 33T450 30V0H187Z" />
<glyph unicode="U" glyph-name="U" horiz-adv-x="834" d="M423 -14Q392 -14 355 -7T281 16T213 62T163 134Q145 178 142 242T138 384V661Q116 671 90 674T50 677V707H313V677Q299 677 274 674T225 661V389Q225 370 225 341T226 279T230 216T240 166Q252 132 278
103T344 56T433 38Q504 38 561 68T637 162Q649 204 649 266T650 400V661Q628 671 602 674T562 677V707H794V677Q780 677 755 674T706 661V393Q706 350 706 303T702 212T688 139Q673 93 642 63T571 16T493 -7T423 -14Z" />
<glyph unicode="V" glyph-name="V" horiz-adv-x="726" d="M335 -14L83 661Q63 671 40 674T4 677V707H265V677Q251 677 226 674T177 661L377 126L596 661Q574 671 548 674T508 677V707H722V677Q711 677 691 674T652 661L376 -14H335Z" />
<glyph unicode="W" glyph-name="W" horiz-adv-x="949" d="M255 -14L80 662Q61 671 39 674T4 677V707H258V677Q244 677 219 674T171 661L305 145L498 619H540L722 155L846 661Q824 671 799 674T759 677V707H973V677Q962 677 941 674T901 661L735 -14H694L500 483L297
-14H255Z" />
<glyph unicode="X" glyph-name="X" horiz-adv-x="675" d="M401 0V30Q415 30 440 33T488 46L320 305L139 46Q162 36 187 33T227 30V0H4V30Q15 30 36 33T76 46L289 352L88 662Q69 671 47 674T12 677V707H282V677Q268 677 243 674T194 661L348 424L514 661Q492 671
467 674T427 677V707H649V677Q638 677 618 674T578 661L379 377L594 46Q614 36 636 33T671 30V0H401Z" />
<glyph unicode="Y" glyph-name="Y" horiz-adv-x="653" d="M203 0V30Q217 30 243 33T291 46V280L80 661Q61 671 39 674T4 677V707H268V677Q254 677 229 674T181 661L349 357L519 661Q497 671 471 674T431 677V707H649V677Q638 677 618 674T578 662L378 301V46Q401
36 426 33T466 30V0H203Z" />
<glyph unicode="Z" glyph-name="Z" horiz-adv-x="620" d="M40 0L25 38L440 656H94Q85 624 80 594T68 534L36 536L43 707H538L555 669L139 51H500Q516 71 529 97T552 145T564 175L595 167L556 0H40Z" />
<glyph unicode="[" glyph-name="bracketleft" horiz-adv-x="329" d="M84 -183V821H273V785Q254 785 218 781T150 766V-128Q182 -139 218 -143T273 -147V-183H84Z" />
<glyph unicode="\" glyph-name="backslash" horiz-adv-x="379" d="M271 -92L28 705L80 721L323 -77L271 -92Z" />
<glyph unicode="]" glyph-name="bracketright" horiz-adv-x="329" d="M245 -183H56V-147Q76 -147 112 -143T179 -128V766Q148 777 112 781T56 785V821H245V-183Z" />
<glyph unicode="^" glyph-name="asciicircum" horiz-adv-x="497" d="M93 377L56 401L226 693H271L441 401L404 377L249 582L93 377Z" />
<glyph unicode="_" glyph-name="underscore" horiz-adv-x="556" d="M28 -84V-30H528V-84H28Z" />
<glyph unicode="`" glyph-name="grave" horiz-adv-x="211" d="M185 517L0 673L58 721L211 539L185 517Z" />
<glyph unicode="a" glyph-name="a" horiz-adv-x="443" d="M152 -8Q100 -8 66 25T32 111Q32 130 35 148T46 179Q55 184 82 194T146 218T215 243T270 262V339Q270 359 269 371T260 394Q254 404 241 412T208 420Q172 420 151 395T135 331L55 299Q54 352 78 389T143
445T233 464Q285 464 317 440T349 363V107Q349 79 350 68T362 48Q372 41 386 43T409 48L421 22Q403 9 383 1T337 -8Q310 -8 294 7T274 45Q242 26 214 9T152 -8ZM182 54Q198 54 220 60T270 80V218Q240 208 207 195T148 172T114 156Q104 112 123 83T182 54Z" />
<glyph unicode="b" glyph-name="b" horiz-adv-x="518" d="M95 23V704Q82 709 65 709T33 708L24 734L156 789L176 775V384Q212 421 252 442T331 464Q379 464 416 435T473 360T494 261Q494 186 460 125T366 28T229 -8Q193 -8 162 -2T95 23ZM288 395Q258 395 229
380T176 342V83Q211 42 271 42Q317 42 350 65T401 127T419 215Q419 262 402 303T356 369T288 395Z" />
<glyph unicode="c" glyph-name="c" horiz-adv-x="434" d="M235 -8Q176 -8 131 23T60 107T34 222Q34 290 63 344T144 431T257 464Q304 464 335 453T384 426T412 396L350 337Q328 371 296 391T229 412Q192 412 165 391T124 336T110 262Q110 203 134 157T199 86T295
60Q321 60 344 69T384 93L405 74Q383 42 336 17T235 -8Z" />
<glyph unicode="d" glyph-name="d" horiz-adv-x="551" d="M217 -8Q163 -8 122 19T58 94T34 202Q34 253 53 300T105 384T182 442T275 464Q316 464 359 447V704Q346 709 329 709T297 708L288 734L420 789L440 775V66Q461 64 481 69T517 79L529 52L406 -8Q384 0 374
13T362 41T359 67V71Q327 34 296 13T217 -8ZM107 249Q107 199 127 157T182 88T263 62Q288 62 312 73T359 112V359Q319 412 254 412Q188 412 148 368T107 249Z" />
<glyph unicode="e" glyph-name="e" horiz-adv-x="430" d="M34 215Q34 288 63 344T140 433T248 464Q298 464 336 439T393 372T407 278L107 262V259Q107 207 128 163T186 92T270 65Q304 65 332 78T379 109L400 91Q385 69 359 46T298 8T225 -8Q169 -8 126 23T59 105T34
215ZM224 412Q181 412 152 380T112 302L318 318Q318 356 290 384T224 412Z" />
<glyph unicode="f" glyph-name="f" horiz-adv-x="364" d="M53 456H107Q107 501 111 548T133 640T189 722Q227 758 269 773T351 789Q389 789 421 777T474 745L408 681Q389 702 363 716T310 730Q287 730 265 721T225 692Q199 663 194 615T188 481V456H334V400H188V46Q212
36 240 33T283 30V0H28V30Q41 30 64 33T107 46V400H42L53 456Z" />
<glyph unicode="g" glyph-name="g" horiz-adv-x="494" d="M218 116Q183 116 152 130Q140 120 133 110T126 87Q126 69 149 61T211 48T299 37Q342 31 381 19T444 -20T469 -94Q469 -149 436 -192T349 -259T234 -284Q181 -284 134 -270T58 -227T28 -151Q28 -120 44
-95T86 -50T137 -13Q101 -4 77 14T53 60Q53 85 75 106T124 145Q90 168 69 206T48 288Q48 336 70 376T130 440T216 464Q257 464 291 447T349 401L476 415L468 351L377 352Q388 323 388 292Q388 243 365 203T303 140T218 116ZM310 276Q310 311 296 343T260 395T209
416Q169 416 148 381T126 300Q126 265 140 234T177 182T228 162Q254 162 272 178T300 221T310 276ZM107 -138Q107 -171 128 -194T181 -230T245 -242Q307 -242 349 -209T392 -120Q392 -90 377 -74T337 -49T285 -37Q260 -33 234 -30T175 -21Q137 -50 122 -79T107
-138Z" />
<glyph unicode="h" glyph-name="h" horiz-adv-x="589" d="M28 0V30Q41 30 64 33T107 46V704Q94 709 77 709T45 708L36 734L168 789L188 775V384Q211 401 239 419T299 451T359 464Q377 464 400 458T447 431Q465 415 476 387T488 314V46Q508 36 531 33T567 30V0H328V30Q341
30 364 33T407 46V289Q407 314 405 332T393 366Q382 384 364 393T322 402Q280 402 246 381T188 341V46Q208 36 231 33T267 30V0H28Z" />
<glyph unicode="i" glyph-name="i" horiz-adv-x="289" d="M28 0V30Q41 30 64 33T107 46V385Q94 390 77 390T45 389L36 415L168 470L188 456V46Q208 36 231 33T267 30V0H28ZM146 565Q122 565 107 580T91 620Q91 642 106 659T146 676Q170 676 186 660T202 621Q202
599 186 582T146 565Z" />
<glyph unicode="j" glyph-name="j" horiz-adv-x="238" d="M-22 -262Q-5 -246 17 -218T58 -152T89 -69Q93 -52 94 -31T97 13V385Q84 390 67 390T35 389L26 415L158 470L178 456V-20Q164 -81 137 -127T81 -207T27 -259T-5 -284L-22 -262ZM136 565Q112 565 97 580T81
620Q81 642 96 659T136 676Q160 676 176 660T192 621Q192 599 176 582T136 565Z" />
<glyph unicode="k" glyph-name="k" horiz-adv-x="544" d="M28 0V30Q41 30 64 33T107 46V704Q94 709 77 709T45 708L36 734L168 789L188 775V46Q209 36 233 33T270 30V0H28ZM529 -31Q479 -29 449 -22T398 -1T358 31Q345 45 323 75T275 141T230 205T202 246L368
410Q348 420 325 423T289 426V456H504V426Q493 426 473 423T434 411L283 261Q299 239 324 206T376 139T424 81Q450 52 472 32T534 -2L529 -31Z" />
<glyph unicode="l" glyph-name="l" horiz-adv-x="289" d="M28 0V30Q41 30 64 33T107 46V704Q94 709 77 709T45 708L36 734L168 789L188 775V46Q208 36 231 33T267 30V0H28Z" />
<glyph unicode="m" glyph-name="m" horiz-adv-x="861" d="M26 0V30Q39 30 62 33T105 46V385Q92 390 75 390T43 389L34 415L166 470L186 456V394Q219 417 261 440T344 464Q362 464 385 458T432 431Q441 423 449 412T462 386Q484 402 512 420T571 451T631 464Q649
464 672 458T719 431Q737 415 748 387T760 314V46Q780 36 803 33T839 30V0H608V30Q619 30 640 33T679 46V289Q679 314 677 332T665 366Q654 384 636 393T594 402Q557 402 526 385T471 349Q472 342 472 333T473 314V46Q491 36 512 33T544 30V0H321V30Q332 30 353
33T392 46V289Q392 314 390 332T378 366Q367 384 349 393T307 402Q270 402 240 385T186 351V46Q204 36 225 33T257 30V0H26Z" />
<glyph unicode="n" glyph-name="n" horiz-adv-x="580" d="M26 0V30Q39 30 62 33T105 46V385Q92 390 75 390T43 389L34 415L166 470L186 456V389Q208 406 235 423T292 452T350 464Q368 464 391 458T438 431Q456 415 467 387T479 314V46Q499 36 522 33T558 30V0H327V30Q338
30 359 33T398 46V289Q398 314 396 332T384 366Q373 384 355 393T313 402Q274 402 242 383T186 346V46Q206 36 229 33T265 30V0H26Z" />
<glyph unicode="o" glyph-name="o" horiz-adv-x="520" d="M266 -8Q202 -8 150 23T66 108T34 226Q34 291 64 345T147 431T263 464Q329 464 382 432T465 346T496 231Q496 166 466 112T383 25T266 -8ZM282 36Q322 36 349 60T392 122T407 204Q407 258 386 307T330
389T248 421Q210 421 182 398T138 336T122 254Q122 201 143 151T200 68T282 36Z" />
<glyph unicode="p" glyph-name="p" horiz-adv-x="529" d="M240 -8Q227 -8 214 -7T188 -4V-230Q211 -240 236 -243T275 -246V-276H28V-246Q41 -246 64 -243T107 -230V385Q94 390 77 390T45 389L36 415L168 470L188 456V385Q224 421 264 442T342 464Q390 464 427
435T484 360T505 261Q505 186 471 125T377 28T240 -8ZM188 82Q223 42 282 42Q328 42 361 65T412 127T430 215Q430 262 414 303T368 369T299 395Q270 395 241 380T188 343V82Z" />
<glyph unicode="q" glyph-name="q" horiz-adv-x="520" d="M217 -8Q162 -8 121 20T57 96T34 202Q34 253 53 300T105 384T180 442T270 464Q294 464 319 457T370 434L404 480L429 473V-230Q449 -240 472 -243T508 -246V-276H261V-246Q275 -246 300 -243T348 -230V58Q320
27 290 10T217 -8ZM107 249Q107 198 127 156T182 88T263 62Q285 62 307 70T348 99V364Q330 387 305 398T250 410Q184 410 146 365T107 249Z" />
<glyph unicode="r" glyph-name="r" horiz-adv-x="376" d="M26 0V30Q37 30 58 33T97 46V385Q84 390 67 390T35 389L26 415L158 470L178 456V360Q202 397 231 428T296 463Q341 468 370 450L326 359Q318 367 304 374T272 381Q236 381 215 357T178 303V46Q201 36 226
33T265 30V0H26Z" />
<glyph unicode="s" glyph-name="s" horiz-adv-x="371" d="M184 -8Q150 -8 112 -1T55 18L34 148L67 154Q76 105 103 71T177 36Q212 36 236 53T260 103Q260 127 240 146T191 184T133 224T83 271T63 335Q63 396 107 430T218 464Q251 464 277 459T312 451L327 337L297
332Q292 373 270 396T213 419Q180 419 158 403T136 354Q136 325 156 305T207 268T266 232T316 185T337 115Q337 60 295 26T184 -8Z" />
<glyph unicode="t" glyph-name="t" horiz-adv-x="309" d="M164 -8Q142 -8 121 2T89 29Q80 43 77 64T73 122V400H20V431Q40 443 61 462T101 503T134 542L154 533V456H293V400H154V127Q154 96 157 81T175 56Q188 48 209 49T251 55T281 66L295 41Q270 21 239 7T164 -8Z" />
<glyph unicode="u" glyph-name="u" horiz-adv-x="571" d="M426 -8Q396 2 388 22T379 59Q347 36 306 14T226 -8Q208 -8 185 -2T138 25Q120 42 109 69T97 142V385Q84 390 67 390T35 389L26 415L158 470L178 456V167Q178 142 180 125T192 90Q203 72 222 63T263 54Q298
54 327 69T379 101V385Q366 390 349 390T317 389L308 415L440 470L460 456V66Q481 64 501 69T537 79L549 52L426 -8Z" />
<glyph unicode="v" glyph-name="v" horiz-adv-x="512" d="M235 -14L71 411Q55 420 38 423T10 426V456H226V426Q215 426 195 423T156 410L268 115L388 410Q370 420 349 423T317 426V456H502V426Q492 426 475 423T441 411L269 -14H235Z" />
<glyph unicode="w" glyph-name="w" horiz-adv-x="720" d="M218 -14L73 410Q57 420 39 423T10 426V456H226V426Q215 426 194 423T155 410L253 123L362 407H397L499 127L596 410Q578 420 557 423T525 426V456H710V426Q700 426 682 423T647 410L502 -14H468L363 275L252
-14H218Z" />
<glyph unicode="x" glyph-name="x" horiz-adv-x="487" d="M259 0V30Q269 30 287 33T321 45L229 182L127 45Q142 36 159 33T185 30V0H10V30Q19 30 35 33T68 43L202 222L75 412Q59 420 42 423T15 426V456H232V426Q222 426 204 423T169 410L255 283L350 410Q336 420
319 423T292 426V456H468V426Q459 426 443 423T409 412L282 243L416 45Q432 36 449 33T477 30V0H259Z" />
<glyph unicode="y" glyph-name="y" horiz-adv-x="513" d="M109 -279L52 -204Q78 -188 101 -168T143 -124Q163 -101 185 -62T225 11L71 411Q55 420 38 423T10 426V456H225V426Q214 426 194 423T155 410L268 115L388 410Q370 420 350 423T318 426V456H503V426Q493
426 475 423T440 410L257 -43Q250 -62 236 -93T205 -155T175 -208Q156 -236 142 -252T109 -279Z" />
<glyph unicode="z" glyph-name="z" horiz-adv-x="457" d="M44 0L34 24L290 406H102Q94 378 89 352T79 300L50 302L56 456H391L401 431L146 50H341Q354 68 365 91T385 133T395 158L423 150L388 0H44Z" />
<glyph unicode="{" glyph-name="braceleft" horiz-adv-x="383" d="M84 301V337Q98 337 117 346T151 375T166 429Q166 491 160 534T147 614T140 694Q140 732 158 759T204 801T265 820T327 812L322 788Q278 797 256 780T225 733T217 672Q217 637 224 573T226 411Q225
384 210 359T165 319Q194 304 209 279T226 227Q232 129 225 65T217 -34Q217 -64 225 -94T255 -141T322 -150L327 -174Q298 -185 266 -182T205 -164T158 -121T140 -57Q140 -13 146 24T159 104T166 209Q166 243 151 263T117 292T84 301Z" />
<glyph unicode="|" glyph-name="bar" horiz-adv-x="282" d="M112 -237V875H170V-237H112Z" />
<glyph unicode="}" glyph-name="braceright" horiz-adv-x="383" d="M299 301Q286 301 267 292T232 263T217 209Q217 148 223 105T236 24T243 -57Q243 -94 225 -121T179 -163T118 -182T56 -174L61 -150Q105 -158 127 -141T158 -94T166 -34Q166 1 159 65T157 227Q158
254 173 279T218 319Q189 334 174 359T157 411Q151 509 158 573T166 672Q166 703 158 732T128 779T61 788L56 812Q85 823 117 820T178 802T225 759T243 694Q243 651 237 614T224 534T217 429Q217 396 232 376T266 346T299 337V301Z" />
<glyph unicode="~" glyph-name="asciitilde" horiz-adv-x="600" d="M118 178L97 191Q107 210 125 233T168 273T223 292Q254 294 276 287T317 269T354 250T394 243Q429 245 447 260T481 298L502 285Q492 267 474 244T432 204T376 184Q345 183 323 190T282 208T245
227T205 234Q171 232 153 216T118 178Z" />
<glyph unicode="&#xa0;" glyph-name="uni00A0" horiz-adv-x="175" />
<glyph unicode="&#xa1;" glyph-name="exclamdown" horiz-adv-x="278" d="M158 305L192 -214H87L120 305H158ZM140 503Q166 503 183 486T200 443Q200 419 183 401T140 382Q114 382 96 399T78 441Q78 466 96 484T140 503Z" />
<glyph unicode="&#xa2;" glyph-name="cent" horiz-adv-x="713" d="M362 -130L320 -127L331 -3Q247 16 184 63T86 179T50 336Q50 409 76 471T149 582T258 658T391 691L402 815L444 812L434 692Q494 690 545 680T628 660L647 524L618 518Q594 582 543 612T430 645L377
39Q406 32 436 32Q516 32 566 67T660 169L688 155L614 12Q514 -13 432 -13Q402 -13 372 -10L362 -130ZM141 365Q141 296 166 234T235 125T336 53L387 645Q312 640 257 603T171 504T141 365Z" />
<glyph unicode="&#xa3;" glyph-name="sterling" horiz-adv-x="558" d="M96 351V393H173Q172 453 172 498T185 579T236 649Q265 675 301 684T371 693Q405 693 436 685T489 659L420 599Q399 622 378 631T331 641Q314 641 298 635T271 615Q252 591 250 560T254 488T262
393H382V351H263Q262 300 252 247T222 147T176 72Q206 79 232 79Q267 79 297 72T353 56T401 48Q426 48 446 60T473 98L502 92Q498 43 472 15T390 -14Q367 -14 348 -9T307 4T257 17T186 23Q148 23 121 16T71 0L56 33Q88 52 110 75T148 131Q164 165 169 225T174 351H96Z"
/>
<glyph unicode="&#xa4;" glyph-name="currency" horiz-adv-x="501" d="M98 44Q88 52 76 64T56 86Q75 102 97 121T137 158Q124 175 117 196T109 239Q109 261 116 281T136 319Q118 336 97 355T56 391Q74 416 98 433Q115 414 134 392T169 352Q207 380 250 380Q272
380 293 373T331 352Q348 371 367 392T402 433Q413 426 425 414T445 391Q426 375 404 356T364 319Q391 282 391 239Q391 195 364 158Q382 141 404 122T445 86Q438 76 426 64T402 44Q386 63 367 85T331 125Q294 97 250 97Q207 97 169 125Q153 107 134 85T98 44ZM250
141Q291 141 319 169T348 239Q348 280 320 308T250 336Q209 336 181 308T152 239Q152 200 180 171T250 141Z" />
<glyph unicode="&#xa5;" glyph-name="yen" horiz-adv-x="747" d="M165 149V187H339V269V269H165V307H318L137 635Q118 644 97 647T64 650V679H317V650Q304 650 280 647T234 635L395 343L558 635Q537 644 512 647T474 650V679H683V650Q672 650 653 647T615 636L433
307H602V269H423V187H602V149H423V44Q444 35 469 32T507 29V0H255V29Q269 29 293 32T339 44V149H165Z" />
<glyph unicode="&#xa6;" glyph-name="brokenbar" horiz-adv-x="282" d="M112 402V875H170V402H112ZM112 -237V236H170V-237H112Z" />
<glyph unicode="&#xa7;" glyph-name="section" horiz-adv-x="547" d="M236 -222Q198 -222 161 -207T95 -158T56 -71L149 -48Q160 -113 191 -146T260 -180Q298 -180 319 -153T341 -85Q341 -45 321 -7T270 71T203 149T136 230T84 314T64 404Q64 459 93 500T177 577Q152
614 136 651T120 727Q120 774 142 812T202 874T287 897Q323 897 358 883T420 837T457 754L369 732Q359 794 330 825T265 857Q229 857 209 831T188 767Q188 730 208 692T262 613T331 532T401 448T454 363T475 276Q475 222 444 182T359 107Q383 72 398 35T414 -43Q414
-92 391 -132T327 -197T236 -222ZM144 433Q144 394 162 357T211 283T274 210T338 135Q395 179 395 246Q395 281 376 317T328 391T264 468T199 547Q169 521 157 492T144 433Z" />
<glyph unicode="&#xa8;" glyph-name="dieresis" horiz-adv-x="280" d="M49 548Q28 548 14 562T0 596Q0 616 14 631T49 646Q70 646 84 632T99 598Q99 578 85 563T49 548ZM230 548Q209 548 195 562T181 596Q181 616 195 631T230 646Q251 646 265 632T280 598Q280
578 266 563T230 548Z" />
<glyph unicode="&#xa9;" glyph-name="copyright" horiz-adv-x="767" d="M384 -90Q316 -90 257 -65T152 6T82 110T56 238Q56 306 81 365T152 470T256 540T384 566Q452 566 511 541T615 470T685 366T711 238Q711 170 686 111T615 6T511 -64T384 -90ZM384 -48Q442
-48 493 -26T582 37T642 128T664 238Q664 296 643 347T583 439T493 501T384 524Q326 524 275 502T186 439T125 348T103 238Q103 180 125 129T185 37T275 -25T384 -48ZM488 81Q443 68 399 68Q343 68 300 90T233 151T209 240Q209 289 233 328T300 391T392 415Q424
415 452 409T496 398L507 321L484 317Q475 346 449 361T389 377Q332 377 301 342T269 253Q269 213 286 180T334 126T399 105Q437 105 461 122T505 170L528 158L488 81Z" />
<glyph unicode="&#xaa;" glyph-name="ordfeminine" horiz-adv-x="320" d="M116 402Q79 402 56 424T32 484Q32 512 42 532Q49 535 67 542T109 558T154 574T190 587V635Q190 658 184 669Q176 684 153 684Q130 684 117 667T109 626L47 602Q44 655 78 688T169 721Q208
721 229 703T250 650V482Q250 466 250 458T256 446Q261 443 268 443Q272 443 277 445T287 448L298 425Q268 402 235 402Q203 402 193 435Q170 419 153 411T116 402ZM135 451Q145 451 158 454T190 466V549Q162 539 133 528T94 511Q88 485 100 468T135 451Z" />
<glyph unicode="&#xab;" glyph-name="guillemotleft" horiz-adv-x="559" d="M364 228L481 67L452 41L281 212V244L452 415L481 389L364 228ZM161 228L278 67L249 41L78 212V244L249 415L278 389L161 228Z" />
<glyph unicode="&#xac;" glyph-name="logicalnot" horiz-adv-x="600" d="M87 300V356H512V81H454V300H87Z" />
<glyph unicode="&#xae;" glyph-name="registered" horiz-adv-x="767" d="M384 -90Q316 -90 257 -65T152 6T82 110T56 238Q56 306 81 365T152 470T256 540T384 566Q452 566 511 541T615 470T685 366T711 238Q711 170 686 111T615 6T511 -64T384 -90ZM384 -48Q442
-48 493 -26T582 37T642 128T664 238Q664 296 643 347T583 439T493 501T384 524Q326 524 275 502T186 439T125 348T103 238Q103 180 125 129T185 37T275 -25T384 -48ZM233 81V102Q241 102 255 104T282 113V386Q269 389 256 389T233 389L231 412Q269 416 301 418T362
421Q413 421 447 402T481 335Q481 313 467 288T414 244Q426 223 443 197T477 151Q495 127 512 114T559 90L552 68Q506 70 481 80T433 117Q421 130 405 158T375 210Q372 215 370 219T365 228Q358 227 352 226T338 224V113Q351 106 366 104T389 102V81H233ZM338 257Q378
260 402 280T427 325Q427 360 403 374T338 387V257Z" />
<glyph unicode="&#xaf;" glyph-name="overscore" horiz-adv-x="300" d="M0 575V623H300V575H0Z" />
<glyph unicode="&#xb0;" glyph-name="degree" horiz-adv-x="298" d="M155 469Q123 469 96 486T51 532T34 595Q34 630 51 658T95 704T154 721Q186 721 213 704T257 659T274 595Q274 561 257 532T213 486T155 469ZM154 516Q182 516 204 539T226 594Q226 626 204
649T154 673Q124 673 103 651T82 594Q82 563 104 540T154 516Z" />
<glyph unicode="&#xb1;" glyph-name="plusminus" horiz-adv-x="600" d="M64 -62V-6H536V-62H64ZM263 48V265H64V321H263V538H321V321H536V265H321V48H263Z" />
<glyph unicode="&#xb2;" glyph-name="uni00B2" horiz-adv-x="306" d="M41 410V448Q50 459 69 480T110 527T148 575Q168 602 179 626T191 675Q191 706 174 723T130 741Q108 741 93 731T64 694L36 707Q50 744 75 770T145 797Q193 797 225 768T257 693Q257 656 240
626T199 567Q176 540 151 512T108 466H269L259 410H41Z" />
<glyph unicode="&#xb3;" glyph-name="uni00B3" horiz-adv-x="316" d="M131 402Q81 402 37 434L52 461Q71 451 91 446T131 441Q166 441 188 461T211 510Q211 566 157 598Q140 591 120 585L109 615Q157 631 176 651T195 701Q195 721 181 735T143 749Q127 749 109
740T76 711L52 731Q78 766 104 781T165 797Q202 797 228 772T255 712Q255 669 221 637Q239 621 256 594T274 529Q274 494 255 465T204 419T131 402Z" />
<glyph unicode="&#xb4;" glyph-name="acute" horiz-adv-x="211" d="M26 517L0 539L153 721L211 673L26 517Z" />
<glyph unicode="&#xb5;" glyph-name="uni00B5" horiz-adv-x="560" d="M213 -8Q176 -8 148 8Q146 9 144 11Q148 -53 155 -113T171 -214L84 -198V436L165 456V156Q165 114 182 84T248 53Q279 53 309 82T365 156V436L446 456V107Q446 79 447 68T459 48Q469 41 483
43T506 48L518 22Q496 7 478 0T431 -8Q414 -8 399 -2T375 19Q368 31 367 48T365 95V98Q327 38 290 15T213 -8Z" />
<glyph unicode="&#xb6;" glyph-name="paragraph" horiz-adv-x="641" d="M343 263Q250 260 186 292T89 376T56 485Q56 538 80 581T144 656T236 703T343 715V263ZM411 -211V710Q453 708 491 704T585 694L583 664Q566 665 542 663T499 656V-183L411 -211Z" />
<glyph unicode="&#xb7;" glyph-name="middot" horiz-adv-x="295" d="M147 165Q120 165 102 183T84 227Q84 253 102 272T147 291Q174 291 192 273T211 229Q211 204 193 185T147 165Z" />
<glyph unicode="&#xb8;" glyph-name="cedilla" horiz-adv-x="183" d="M88 -240Q60 -240 37 -228T0 -197L16 -181Q28 -194 44 -202T76 -210Q97 -210 109 -196T121 -162Q121 -139 107 -123T74 -96T42 -83L84 0H128L104 -46Q132 -61 157 -85T183 -151Q183 -192 157
-216T88 -240Z" />
<glyph unicode="&#xb9;" glyph-name="uni00B9" horiz-adv-x="281" d="M40 410V432Q51 432 71 434T110 443V738H35L32 764Q61 769 93 777T154 797L173 784V443Q191 436 211 434T243 432V410H40Z" />
<glyph unicode="&#xba;" glyph-name="ordmasculine" horiz-adv-x="371" d="M191 402Q148 402 112 423T55 481T34 560Q34 603 54 639T109 698T189 721Q233 721 268 700T325 644T347 564Q347 521 327 484T272 425T191 402ZM202 439Q237 439 258 472T280 546Q280
582 267 614T231 666T179 686Q144 686 122 654T100 580Q100 545 113 513T149 460T202 439Z" />
<glyph unicode="&#xbb;" glyph-name="guillemotright" horiz-adv-x="559" d="M195 228L78 389L107 415L278 244V212L107 41L78 67L195 228ZM398 228L281 389L310 415L481 244V212L310 41L281 67L398 228Z" />
<glyph unicode="&#xbc;" glyph-name="onequarter" horiz-adv-x="875" d="M36 262V288Q50 288 73 291T118 302V654H34L32 684Q64 689 101 696T167 715L187 702V302Q208 294 232 291T269 288V262H36ZM214 -21L177 3L648 727L685 704L214 -21ZM511 143L736 453L768
434V168H837L829 123H768V0L704 -18V123H523L511 143ZM581 168H704V337L581 168Z" />
<glyph unicode="&#xbd;" glyph-name="onehalf" horiz-adv-x="893" d="M36 262V288Q50 288 73 291T118 302V654H34L32 684Q64 689 101 696T167 715L187 702V302Q208 294 232 291T269 288V262H36ZM214 -21L177 3L648 727L685 704L214 -21ZM596 0V42Q607 54 629 81T676
140T720 198Q743 230 756 258T770 314Q770 349 749 370T699 391Q674 391 655 379T619 337L591 352Q607 394 635 423T714 453Q750 453 779 436T825 391T842 327Q842 290 823 257T775 190Q747 156 716 118T666 60H856L842 0H596Z" />
<glyph unicode="&#xbe;" glyph-name="threequarters" horiz-adv-x="912" d="M146 254Q87 254 37 290L52 320Q78 306 101 302T146 297Q188 297 215 321T242 380Q242 444 175 485Q156 477 133 470L121 502Q178 522 200 545T222 605Q222 630 205 646T160 662Q141
662 120 652T81 618L54 639Q84 680 114 697T185 715Q213 715 237 702T275 666T290 617Q290 566 248 528Q270 509 291 478T312 402Q312 361 290 328T230 274T146 254ZM251 -21L214 3L685 727L722 704L251 -21ZM548 143L773 453L805 434V168H874L866 123H805V0L741
-18V123H560L548 143ZM618 168H741V337L618 168Z" />
<glyph unicode="&#xbf;" glyph-name="questiondown" horiz-adv-x="484" d="M298 322Q294 286 285 255T258 188Q248 166 231 136T195 72T165 4T153 -62Q153 -96 169 -126T213 -174T277 -193Q336 -193 364 -156T388 -60L417 -52L456 -164Q440 -181 407 -198T332
-226T249 -238Q163 -238 110 -197T56 -74Q56 -38 70 -6T104 55T146 109T184 158Q217 206 232 242T254 322H298ZM278 503Q304 503 321 486T338 443Q338 419 321 401T278 382Q252 382 234 399T216 441Q216 466 234 484T278 503Z" />
<glyph unicode="&#xc0;" glyph-name="Agrave" horiz-adv-x="715" d="M4 0V30Q15 30 35 33T75 45L327 665L312 707L394 737L645 46Q665 36 687 33T721 30V0H464V30Q478 30 504 33T552 46L478 249H216L133 46Q156 36 181 33T221 30V0H4ZM237 300H460L355 589L237
300ZM427 789L200 872L235 932L441 813L427 789Z" />
<glyph unicode="&#xc1;" glyph-name="Aacute" horiz-adv-x="715" d="M4 0V30Q15 30 35 33T75 45L327 665L312 707L394 737L645 46Q665 36 687 33T721 30V0H464V30Q478 30 504 33T552 46L478 249H216L133 46Q156 36 181 33T221 30V0H4ZM237 300H460L355 589L237
300ZM315 781L301 805L507 924L542 864L315 781Z" />
<glyph unicode="&#xc2;" glyph-name="Acircumflex" horiz-adv-x="715" d="M4 0V30Q15 30 35 33T75 45L327 665L312 707L394 737L645 46Q665 36 687 33T721 30V0H464V30Q478 30 504 33T552 46L478 249H216L133 46Q156 36 181 33T221 30V0H4ZM237 300H460L355 589L237
300ZM207 789L188 812L349 948H373L534 812L515 789L361 877L207 789Z" />
<glyph unicode="&#xc3;" glyph-name="Atilde" horiz-adv-x="715" d="M4 0V30Q15 30 35 33T75 45L327 665L312 707L394 737L645 46Q665 36 687 33T721 30V0H464V30Q478 30 504 33T552 46L478 249H216L133 46Q156 36 181 33T221 30V0H4ZM237 300H460L355 589L237
300ZM226 794L205 805Q214 824 229 847T265 889T312 908Q338 910 357 903T391 885T421 866T454 859Q483 861 497 876T525 914L546 903Q538 885 523 862T486 820T439 800Q414 799 395 806T361 824T331 843T297 850Q268 848 254 832T226 794Z" />
<glyph unicode="&#xc4;" glyph-name="Adieresis" horiz-adv-x="715" d="M4 0V30Q15 30 35 33T75 45L327 665L312 707L394 737L645 46Q665 36 687 33T721 30V0H464V30Q478 30 504 33T552 46L478 249H216L133 46Q156 36 181 33T221 30V0H4ZM237 300H460L355 589L237
300ZM270 800Q249 800 235 814T221 848Q221 868 235 883T270 898Q291 898 305 884T320 850Q320 830 306 815T270 800ZM451 800Q430 800 416 814T402 848Q402 868 416 883T451 898Q472 898 486 884T501 850Q501 830 487 815T451 800Z" />
<glyph unicode="&#xc5;" glyph-name="Aring" horiz-adv-x="715" d="M4 0V30Q15 30 35 33T75 45L327 665L312 707L394 737L645 46Q665 36 687 33T721 30V0H464V30Q478 30 504 33T552 46L478 249H216L133 46Q156 36 181 33T221 30V0H4ZM237 300H460L355 589L237
300ZM361 800Q324 800 296 826T268 893Q268 932 295 960T360 989Q399 989 426 961T453 895Q453 857 426 829T361 800ZM366 833Q385 835 397 847T409 887Q409 911 394 933T355 956Q338 956 325 941T312 903Q312 878 327 855T366 833Z" />
<glyph unicode="&#xc6;" glyph-name="AE" horiz-adv-x="919" d="M4 0V30Q15 30 35 33T75 45L210 300L405 666Q385 673 365 675T332 677V707H837L842 571L809 569Q808 586 804 610T789 656H547V393H755Q761 413 763 432T765 463H797V263H765Q765 276 763 298T753
342H547V51H809Q822 68 833 91T853 133T863 159L894 151L861 0H372V30Q386 30 412 33T460 46V249H245L136 46Q159 36 184 33T224 30V0H4ZM272 300H460V654L272 300Z" />
<glyph unicode="&#xc7;" glyph-name="Ccedilla" horiz-adv-x="740" d="M637 13Q534 -14 448 -14Q361 -14 289 12T163 87T80 202T50 350Q50 429 79 496T161 614T283 693T431 721Q500 721 558 710T652 688L672 546L642 540Q615 611 556 642T425 673Q340 673 277
635T180 531T145 380Q145 311 169 249T235 138T333 61T452 33Q535 33 588 69T685 176L715 161L637 13ZM397 -240Q369 -240 346 -228T309 -197L325 -181Q337 -194 353 -202T385 -210Q406 -210 418 -196T430 -162Q430 -139 416 -123T383 -96T351 -83L393 0H437L413
-46Q441 -61 466 -85T492 -151Q492 -192 466 -216T397 -240Z" />
<glyph unicode="&#xc8;" glyph-name="Egrave" horiz-adv-x="598" d="M50 0V30Q64 30 90 33T138 46V661Q116 671 90 674T50 677V707H515L520 571L488 569Q487 586 483 610T468 656H225V393H434Q439 413 441 432T443 463H475V263H443Q443 276 441 298T431 342H225V51H488Q501
68 512 91T532 133T541 159L573 151L540 0H50ZM380 789L153 872L188 932L394 813L380 789Z" />
<glyph unicode="&#xc9;" glyph-name="Eacute" horiz-adv-x="598" d="M50 0V30Q64 30 90 33T138 46V661Q116 671 90 674T50 677V707H515L520 571L488 569Q487 586 483 610T468 656H225V393H434Q439 413 441 432T443 463H475V263H443Q443 276 441 298T431 342H225V51H488Q501
68 512 91T532 133T541 159L573 151L540 0H50ZM268 781L254 805L460 924L495 864L268 781Z" />
<glyph unicode="&#xca;" glyph-name="Ecircumflex" horiz-adv-x="598" d="M50 0V30Q64 30 90 33T138 46V661Q116 671 90 674T50 677V707H515L520 571L488 569Q487 586 483 610T468 656H225V393H434Q439 413 441 432T443 463H475V263H443Q443 276 441 298T431 342H225V51H488Q501
68 512 91T532 133T541 159L573 151L540 0H50ZM160 789L141 812L302 948H326L487 812L468 789L314 877L160 789Z" />
<glyph unicode="&#xcb;" glyph-name="Edieresis" horiz-adv-x="598" d="M50 0V30Q64 30 90 33T138 46V661Q116 671 90 674T50 677V707H515L520 571L488 569Q487 586 483 610T468 656H225V393H434Q439 413 441 432T443 463H475V263H443Q443 276 441 298T431 342H225V51H488Q501
68 512 91T532 133T541 159L573 151L540 0H50ZM223 800Q202 800 188 814T174 848Q174 868 188 883T223 898Q244 898 258 884T273 850Q273 830 259 815T223 800ZM404 800Q383 800 369 814T355 848Q355 868 369 883T404 898Q425 898 439 884T454 850Q454 830 440
815T404 800Z" />
<glyph unicode="&#xcc;" glyph-name="Igrave" horiz-adv-x="363" d="M50 0V30Q64 30 90 33T138 46V661Q116 671 90 674T50 677V707H313V677Q299 677 274 674T225 661V46Q248 36 273 33T313 30V0H50ZM247 789L20 872L55 932L261 813L247 789Z" />
<glyph unicode="&#xcd;" glyph-name="Iacute" horiz-adv-x="363" d="M50 0V30Q64 30 90 33T138 46V661Q116 671 90 674T50 677V707H313V677Q299 677 274 674T225 661V46Q248 36 273 33T313 30V0H50ZM135 1037L121 1061L327 1180L362 1120L135 1037Z" />
<glyph unicode="&#xce;" glyph-name="Icircumflex" horiz-adv-x="363" d="M50 0V30Q64 30 90 33T138 46V661Q116 671 90 674T50 677V707H313V677Q299 677 274 674T225 661V46Q248 36 273 33T313 30V0H50ZM27 789L8 812L169 948H193L354 812L335 789L181 877L27 789Z" />
<glyph unicode="&#xcf;" glyph-name="Idieresis" horiz-adv-x="363" d="M50 0V30Q64 30 90 33T138 46V661Q116 671 90 674T50 677V707H313V677Q299 677 274 674T225 661V46Q248 36 273 33T313 30V0H50ZM90 800Q69 800 55 814T41 848Q41 868 55 883T90 898Q111
898 125 884T140 850Q140 830 126 815T90 800ZM271 800Q250 800 236 814T222 848Q222 868 236 883T271 898Q292 898 306 884T321 850Q321 830 307 815T271 800Z" />
<glyph unicode="&#xd0;" glyph-name="Eth" horiz-adv-x="836" d="M54 0V30Q68 30 94 33T142 46V344H50V386H142V663Q120 670 96 670T57 669L54 699Q122 708 193 714T336 721Q465 721 567 681T727 561T786 364Q786 284 748 213T646 92T499 19Q466 10 414 5T314
0H54ZM229 69Q255 59 287 53T357 47Q455 47 529 82T646 182T688 337Q688 426 653 494T554 605T408 665T229 668V386H419V344H229V69Z" />
<glyph unicode="&#xd1;" glyph-name="Ntilde" horiz-adv-x="806" d="M633 -14L184 582V46Q207 36 232 33T272 30V0H40V30Q54 30 80 33T128 46V661Q106 671 80 674T40 677V707H199L622 147V661Q600 671 574 674T534 677V707H766V677Q752 677 727 674T678 661V-14H633ZM272
794L251 805Q260 824 275 847T311 889T358 908Q384 910 403 903T437 885T467 866T500 859Q529 861 543 876T571 914L592 903Q584 885 569 862T532 820T485 800Q460 799 441 806T407 824T377 843T343 850Q314 848 300 832T272 794Z" />
<glyph unicode="&#xd2;" glyph-name="Ograve" horiz-adv-x="844" d="M419 -14Q343 -14 276 14T158 91T79 206T50 348Q50 425 79 492T159 611T279 692T424 721Q500 721 567 694T685 617T765 502T794 360Q794 283 765 216T684 97T564 16T419 -14ZM449 41Q523 41
580 78T669 179T702 319Q702 385 679 447T613 559T515 638T395 667Q322 667 265 630T174 530T141 390Q141 324 164 262T230 150T328 71T449 41ZM494 789L267 872L302 932L508 813L494 789Z" />
<glyph unicode="&#xd3;" glyph-name="Oacute" horiz-adv-x="844" d="M419 -14Q343 -14 276 14T158 91T79 206T50 348Q50 425 79 492T159 611T279 692T424 721Q500 721 567 694T685 617T765 502T794 360Q794 283 765 216T684 97T564 16T419 -14ZM449 41Q523 41
580 78T669 179T702 319Q702 385 679 447T613 559T515 638T395 667Q322 667 265 630T174 530T141 390Q141 324 164 262T230 150T328 71T449 41ZM382 781L368 805L574 924L609 864L382 781Z" />
<glyph unicode="&#xd4;" glyph-name="Ocircumflex" horiz-adv-x="844" d="M419 -14Q343 -14 276 14T158 91T79 206T50 348Q50 425 79 492T159 611T279 692T424 721Q500 721 567 694T685 617T765 502T794 360Q794 283 765 216T684 97T564 16T419 -14ZM449 41Q523
41 580 78T669 179T702 319Q702 385 679 447T613 559T515 638T395 667Q322 667 265 630T174 530T141 390Q141 324 164 262T230 150T328 71T449 41ZM274 789L255 812L416 948H440L601 812L582 789L428 877L274 789Z" />
<glyph unicode="&#xd5;" glyph-name="Otilde" horiz-adv-x="844" d="M419 -14Q343 -14 276 14T158 91T79 206T50 348Q50 425 79 492T159 611T279 692T424 721Q500 721 567 694T685 617T765 502T794 360Q794 283 765 216T684 97T564 16T419 -14ZM449 41Q523 41
580 78T669 179T702 319Q702 385 679 447T613 559T515 638T395 667Q322 667 265 630T174 530T141 390Q141 324 164 262T230 150T328 71T449 41ZM293 794L272 805Q281 824 296 847T332 889T379 908Q405 910 424 903T458 885T488 866T521 859Q550 861 564 876T592
914L613 903Q605 885 590 862T553 820T506 800Q481 799 462 806T428 824T398 843T364 850Q335 848 321 832T293 794Z" />
<glyph unicode="&#xd6;" glyph-name="Odieresis" horiz-adv-x="844" d="M419 -14Q343 -14 276 14T158 91T79 206T50 348Q50 425 79 492T159 611T279 692T424 721Q500 721 567 694T685 617T765 502T794 360Q794 283 765 216T684 97T564 16T419 -14ZM449 41Q523
41 580 78T669 179T702 319Q702 385 679 447T613 559T515 638T395 667Q322 667 265 630T174 530T141 390Q141 324 164 262T230 150T328 71T449 41ZM337 800Q316 800 302 814T288 848Q288 868 302 883T337 898Q358 898 372 884T387 850Q387 830 373 815T337 800ZM518
800Q497 800 483 814T469 848Q469 868 483 883T518 898Q539 898 553 884T568 850Q568 830 554 815T518 800Z" />
<glyph unicode="&#xd7;" glyph-name="multiply" horiz-adv-x="600" d="M119 18L79 58L260 238L80 418L120 458L300 278L480 458L520 419L339 238L520 57L481 17L300 199L119 18Z" />
<glyph unicode="&#xd8;" glyph-name="Oslash" horiz-adv-x="844" d="M192 -100L154 -78L223 41Q145 89 98 169T50 348Q50 425 79 492T159 611T279 692T424 721Q469 721 511 711T592 682L660 799L699 778L631 660Q704 611 749 533T794 360Q794 283 765 216T684
97T564 16T419 -14Q377 -14 337 -5T261 20L192 -100ZM141 390Q141 312 174 238T265 114L553 614Q519 639 479 653T395 667Q322 667 265 630T174 530T141 390ZM449 41Q523 41 580 78T669 179T702 319Q702 395 671 465T588 586L300 87Q333 65 370 53T449 41Z" />
<glyph unicode="&#xd9;" glyph-name="Ugrave" horiz-adv-x="834" d="M423 -14Q392 -14 355 -7T281 16T213 62T163 134Q145 178 142 242T138 384V661Q116 671 90 674T50 677V707H313V677Q299 677 274 674T225 661V389Q225 370 225 341T226 279T230 216T240 166Q252
132 278 103T344 56T433 38Q504 38 561 68T637 162Q649 204 649 266T650 400V661Q628 671 602 674T562 677V707H794V677Q780 677 755 674T706 661V393Q706 350 706 303T702 212T688 139Q673 93 642 63T571 16T493 -7T423 -14ZM502 789L275 872L310 932L516 813L502
789Z" />
<glyph unicode="&#xda;" glyph-name="Uacute" horiz-adv-x="834" d="M423 -14Q392 -14 355 -7T281 16T213 62T163 134Q145 178 142 242T138 384V661Q116 671 90 674T50 677V707H313V677Q299 677 274 674T225 661V389Q225 370 225 341T226 279T230 216T240 166Q252
132 278 103T344 56T433 38Q504 38 561 68T637 162Q649 204 649 266T650 400V661Q628 671 602 674T562 677V707H794V677Q780 677 755 674T706 661V393Q706 350 706 303T702 212T688 139Q673 93 642 63T571 16T493 -7T423 -14ZM390 781L376 805L582 924L617 864L390
781Z" />
<glyph unicode="&#xdb;" glyph-name="Ucircumflex" horiz-adv-x="834" d="M423 -14Q392 -14 355 -7T281 16T213 62T163 134Q145 178 142 242T138 384V661Q116 671 90 674T50 677V707H313V677Q299 677 274 674T225 661V389Q225 370 225 341T226 279T230 216T240
166Q252 132 278 103T344 56T433 38Q504 38 561 68T637 162Q649 204 649 266T650 400V661Q628 671 602 674T562 677V707H794V677Q780 677 755 674T706 661V393Q706 350 706 303T702 212T688 139Q673 93 642 63T571 16T493 -7T423 -14ZM282 789L263 812L424 948H448L609
812L590 789L436 877L282 789Z" />
<glyph unicode="&#xdc;" glyph-name="Udieresis" horiz-adv-x="834" d="M423 -14Q392 -14 355 -7T281 16T213 62T163 134Q145 178 142 242T138 384V661Q116 671 90 674T50 677V707H313V677Q299 677 274 674T225 661V389Q225 370 225 341T226 279T230 216T240 166Q252
132 278 103T344 56T433 38Q504 38 561 68T637 162Q649 204 649 266T650 400V661Q628 671 602 674T562 677V707H794V677Q780 677 755 674T706 661V393Q706 350 706 303T702 212T688 139Q673 93 642 63T571 16T493 -7T423 -14ZM345 800Q324 800 310 814T296 848Q296
868 310 883T345 898Q366 898 380 884T395 850Q395 830 381 815T345 800ZM526 800Q505 800 491 814T477 848Q477 868 491 883T526 898Q547 898 561 884T576 850Q576 830 562 815T526 800Z" />
<glyph unicode="&#xdd;" glyph-name="Yacute" horiz-adv-x="653" d="M203 0V30Q217 30 243 33T291 46V280L80 661Q61 671 39 674T4 677V707H268V677Q254 677 229 674T181 661L349 357L519 661Q497 671 471 674T431 677V707H649V677Q638 677 618 674T578 662L378
301V46Q401 36 426 33T466 30V0H203ZM293 781L279 805L485 924L520 864L293 781Z" />
<glyph unicode="&#xde;" glyph-name="Thorn" horiz-adv-x="584" d="M272 163L268 194Q360 199 403 239T446 339Q446 398 419 437T350 495T262 515Q243 515 225 512V46Q248 36 273 33T313 30V0H50V30Q64 30 90 33T138 46V661Q116 671 90 674T50 677V707H313V677Q299
677 274 674T225 661V555Q257 561 284 561Q353 561 410 535T500 464T534 358Q534 308 504 262T416 188T272 163Z" />
<glyph unicode="&#xdf;" glyph-name="germandbls" horiz-adv-x="622" d="M28 0V30Q41 30 64 33T107 46V400H42L53 456H107Q107 501 111 548T133 640T189 722Q227 758 268 773T345 789Q384 789 420 768T479 713T502 638Q502 621 500 608T493 580Q455 550 429 529T389
494Q359 463 359 432Q359 415 367 403T392 374Q413 353 444 328T498 283Q535 253 561 213T588 125Q588 59 546 26T435 -8Q401 -8 371 -1T322 18L300 148L333 154Q338 130 345 106T365 69Q385 48 403 41T448 37Q476 40 495 58T514 103Q514 141 492 168T437 223Q406
250 374 280T320 344Q307 364 303 380T299 412Q299 436 308 456T330 495Q346 516 370 536T417 578Q420 587 422 598T424 622Q424 673 391 702T313 731Q260 731 225 692Q199 663 194 615T188 481V46Q206 36 227 33T259 30V0H28Z" />
<glyph unicode="&#xe0;" glyph-name="agrave" horiz-adv-x="443" d="M152 -8Q100 -8 66 25T32 111Q32 130 35 148T46 179Q55 184 82 194T146 218T215 243T270 262V339Q270 359 269 371T260 394Q254 404 241 412T208 420Q172 420 151 395T135 331L55 299Q54 352
78 389T143 445T233 464Q285 464 317 440T349 363V107Q349 79 350 68T362 48Q372 41 386 43T409 48L421 22Q403 9 383 1T337 -8Q310 -8 294 7T274 45Q242 26 214 9T152 -8ZM182 54Q198 54 220 60T270 80V218Q240 208 207 195T148 172T114 156Q104 112 123 83T182
54ZM235 517L50 673L108 721L261 539L235 517Z" />
<glyph unicode="&#xe1;" glyph-name="aacute" horiz-adv-x="443" d="M152 -8Q100 -8 66 25T32 111Q32 130 35 148T46 179Q55 184 82 194T146 218T215 243T270 262V339Q270 359 269 371T260 394Q254 404 241 412T208 420Q172 420 151 395T135 331L55 299Q54 352
78 389T143 445T233 464Q285 464 317 440T349 363V107Q349 79 350 68T362 48Q372 41 386 43T409 48L421 22Q403 9 383 1T337 -8Q310 -8 294 7T274 45Q242 26 214 9T152 -8ZM182 54Q198 54 220 60T270 80V218Q240 208 207 195T148 172T114 156Q104 112 123 83T182
54ZM187 517L161 539L314 721L372 673L187 517Z" />
<glyph unicode="&#xe2;" glyph-name="acircumflex" horiz-adv-x="443" d="M152 -8Q100 -8 66 25T32 111Q32 130 35 148T46 179Q55 184 82 194T146 218T215 243T270 262V339Q270 359 269 371T260 394Q254 404 241 412T208 420Q172 420 151 395T135 331L55 299Q54
352 78 389T143 445T233 464Q285 464 317 440T349 363V107Q349 79 350 68T362 48Q372 41 386 43T409 48L421 22Q403 9 383 1T337 -8Q310 -8 294 7T274 45Q242 26 214 9T152 -8ZM182 54Q198 54 220 60T270 80V218Q240 208 207 195T148 172T114 156Q104 112 123 83T182
54ZM80 517L57 537L198 694H224L365 537L342 517L211 618L80 517Z" />
<glyph unicode="&#xe3;" glyph-name="atilde" horiz-adv-x="443" d="M152 -8Q100 -8 66 25T32 111Q32 130 35 148T46 179Q55 184 82 194T146 218T215 243T270 262V339Q270 359 269 371T260 394Q254 404 241 412T208 420Q172 420 151 395T135 331L55 299Q54 352
78 389T143 445T233 464Q285 464 317 440T349 363V107Q349 79 350 68T362 48Q372 41 386 43T409 48L421 22Q403 9 383 1T337 -8Q310 -8 294 7T274 45Q242 26 214 9T152 -8ZM182 54Q198 54 220 60T270 80V218Q240 208 207 195T148 172T114 156Q104 112 123 83T182
54ZM77 543L56 554Q65 573 80 596T116 638T163 657Q189 659 208 652T242 634T272 615T305 608Q334 610 348 625T376 663L397 652Q389 634 374 611T337 569T290 549Q265 548 246 555T212 573T182 592T148 599Q119 597 105 581T77 543Z" />
<glyph unicode="&#xe4;" glyph-name="adieresis" horiz-adv-x="443" d="M152 -8Q100 -8 66 25T32 111Q32 130 35 148T46 179Q55 184 82 194T146 218T215 243T270 262V339Q270 359 269 371T260 394Q254 404 241 412T208 420Q172 420 151 395T135 331L55 299Q54
352 78 389T143 445T233 464Q285 464 317 440T349 363V107Q349 79 350 68T362 48Q372 41 386 43T409 48L421 22Q403 9 383 1T337 -8Q310 -8 294 7T274 45Q242 26 214 9T152 -8ZM182 54Q198 54 220 60T270 80V218Q240 208 207 195T148 172T114 156Q104 112 123 83T182
54ZM120 548Q99 548 85 562T71 596Q71 616 85 631T120 646Q141 646 155 632T170 598Q170 578 156 563T120 548ZM301 548Q280 548 266 562T252 596Q252 616 266 631T301 646Q322 646 336 632T351 598Q351 578 337 563T301 548Z" />
<glyph unicode="&#xe5;" glyph-name="aring" horiz-adv-x="443" d="M152 -8Q100 -8 66 25T32 111Q32 130 35 148T46 179Q55 184 82 194T146 218T215 243T270 262V339Q270 359 269 371T260 394Q254 404 241 412T208 420Q172 420 151 395T135 331L55 299Q54 352
78 389T143 445T233 464Q285 464 317 440T349 363V107Q349 79 350 68T362 48Q372 41 386 43T409 48L421 22Q403 9 383 1T337 -8Q310 -8 294 7T274 45Q242 26 214 9T152 -8ZM182 54Q198 54 220 60T270 80V218Q240 208 207 195T148 172T114 156Q104 112 123 83T182
54ZM210 548Q173 548 145 574T117 641Q117 680 144 708T209 737Q248 737 275 709T302 643Q302 605 275 577T210 548ZM215 581Q234 583 246 595T258 635Q258 659 243 681T204 704Q187 704 174 689T161 651Q161 626 176 603T215 581Z" />
<glyph unicode="&#xe6;" glyph-name="ae" horiz-adv-x="660" d="M152 -9Q100 -9 66 24T32 110Q32 129 35 143T46 170Q55 175 82 185T146 209T215 234T270 253V339Q270 359 269 371T260 394Q254 404 241 412T208 420Q172 420 151 395T135 331L55 299Q54 352 78
389T143 445T233 464Q273 464 302 449T342 403Q371 432 407 448T485 464Q526 464 562 446T619 395T638 320L345 230Q350 184 372 147T429 87T507 65Q541 65 569 78T616 109L637 91Q622 69 596 46T535 8T462 -8Q418 -8 382 12T319 65Q298 51 269 34T210 4T152 -9ZM459
414Q427 414 402 394T362 342T344 273L551 344Q542 382 514 398T459 414ZM182 53Q205 53 232 62T301 93Q271 149 271 209H270Q240 199 207 186T148 163T114 147Q104 103 123 78T182 53Z" />
<glyph unicode="&#xe7;" glyph-name="ccedilla" horiz-adv-x="434" d="M235 -8Q176 -8 131 23T60 107T34 222Q34 290 63 344T144 431T257 464Q304 464 335 453T384 426T412 396L350 337Q328 371 296 391T229 412Q192 412 165 391T124 336T110 262Q110 203 134
157T199 86T295 60Q321 60 344 69T384 93L405 74Q383 42 336 17T235 -8ZM234 -240Q206 -240 183 -228T146 -197L162 -181Q174 -194 190 -202T222 -210Q243 -210 255 -196T267 -162Q267 -139 253 -123T220 -96T188 -83L230 0H274L250 -46Q278 -61 303 -85T329 -151Q329
-192 303 -216T234 -240Z" />
<glyph unicode="&#xe8;" glyph-name="egrave" horiz-adv-x="430" d="M34 215Q34 288 63 344T140 433T248 464Q298 464 336 439T393 372T407 278L107 262V259Q107 207 128 163T186 92T270 65Q304 65 332 78T379 109L400 91Q385 69 359 46T298 8T225 -8Q169 -8 126
23T59 105T34 215ZM224 412Q181 412 152 380T112 302L318 318Q318 356 290 384T224 412ZM256 517L71 673L129 721L282 539L256 517Z" />
<glyph unicode="&#xe9;" glyph-name="eacute" horiz-adv-x="430" d="M34 215Q34 288 63 344T140 433T248 464Q298 464 336 439T393 372T407 278L107 262V259Q107 207 128 163T186 92T270 65Q304 65 332 78T379 109L400 91Q385 69 359 46T298 8T225 -8Q169 -8 126
23T59 105T34 215ZM224 412Q181 412 152 380T112 302L318 318Q318 356 290 384T224 412ZM208 517L182 539L335 721L393 673L208 517Z" />
<glyph unicode="&#xea;" glyph-name="ecircumflex" horiz-adv-x="430" d="M34 215Q34 288 63 344T140 433T248 464Q298 464 336 439T393 372T407 278L107 262V259Q107 207 128 163T186 92T270 65Q304 65 332 78T379 109L400 91Q385 69 359 46T298 8T225 -8Q169
-8 126 23T59 105T34 215ZM224 412Q181 412 152 380T112 302L318 318Q318 356 290 384T224 412ZM101 517L78 537L219 694H245L386 537L363 517L232 618L101 517Z" />
<glyph unicode="&#xeb;" glyph-name="edieresis" horiz-adv-x="430" d="M34 215Q34 288 63 344T140 433T248 464Q298 464 336 439T393 372T407 278L107 262V259Q107 207 128 163T186 92T270 65Q304 65 332 78T379 109L400 91Q385 69 359 46T298 8T225 -8Q169 -8
126 23T59 105T34 215ZM224 412Q181 412 152 380T112 302L318 318Q318 356 290 384T224 412ZM141 548Q120 548 106 562T92 596Q92 616 106 631T141 646Q162 646 176 632T191 598Q191 578 177 563T141 548ZM322 548Q301 548 287 562T273 596Q273 616 287 631T322
646Q343 646 357 632T372 598Q372 578 358 563T322 548Z" />
<glyph unicode="&#xec;" glyph-name="igrave" horiz-adv-x="289" d="M28 0V30Q41 30 64 33T107 46V385Q94 390 77 390T45 389L36 415L168 470L188 456V46Q208 36 231 33T267 30V0H28ZM171 517L-14 673L44 721L197 539L171 517Z" />
<glyph unicode="&#xed;" glyph-name="iacute" horiz-adv-x="289" d="M28 0V30Q41 30 64 33T107 46V385Q94 390 77 390T45 389L36 415L168 470L188 456V46Q208 36 231 33T267 30V0H28ZM123 517L97 539L250 721L308 673L123 517Z" />
<glyph unicode="&#xee;" glyph-name="icircumflex" horiz-adv-x="289" d="M28 0V30Q41 30 64 33T107 46V385Q94 390 77 390T45 389L36 415L168 470L188 456V46Q208 36 231 33T267 30V0H28ZM272 517L249 537L390 694H416L557 537L534 517L403 618L272 517Z" />
<glyph unicode="&#xef;" glyph-name="idieresis" horiz-adv-x="289" d="M28 0V30Q41 30 64 33T107 46V385Q94 390 77 390T45 389L36 415L168 470L188 456V46Q208 36 231 33T267 30V0H28ZM56 548Q35 548 21 562T7 596Q7 616 21 631T56 646Q77 646 91 632T106 598Q106
578 92 563T56 548ZM237 548Q216 548 202 562T188 596Q188 616 202 631T237 646Q258 646 272 632T287 598Q287 578 273 563T237 548Z" />
<glyph unicode="&#xf0;" glyph-name="eth" horiz-adv-x="521" d="M266 -8Q202 -8 150 23T66 108T34 226Q34 291 64 345T147 431T263 464Q297 464 327 454T384 426Q373 463 359 494T329 551Q315 573 296 594L163 529L151 579L258 631Q180 698 65 737L77 770Q135
753 196 725T310 656L430 714L442 665L351 621Q375 597 394 572Q424 533 448 480T486 363T496 231Q493 163 462 109T381 23T266 -8ZM122 254Q122 201 143 151T200 68T282 36Q328 36 356 66T396 146T409 254Q409 281 407 307Q390 337 365 363T309 405T248 421Q210
421 182 398T138 336T122 254Z" />
<glyph unicode="&#xf1;" glyph-name="ntilde" horiz-adv-x="580" d="M26 0V30Q39 30 62 33T105 46V385Q92 390 75 390T43 389L34 415L166 470L186 456V389Q208 406 235 423T292 452T350 464Q368 464 391 458T438 431Q456 415 467 387T479 314V46Q499 36 522 33T558
30V0H327V30Q338 30 359 33T398 46V289Q398 314 396 332T384 366Q373 384 355 393T313 402Q274 402 242 383T186 346V46Q206 36 229 33T265 30V0H26ZM148 543L127 554Q136 573 151 596T187 638T234 657Q260 659 279 652T313 634T343 615T376 608Q405 610 419 625T447
663L468 652Q460 634 445 611T408 569T361 549Q336 548 317 555T283 573T253 592T219 599Q190 597 176 581T148 543Z" />
<glyph unicode="&#xf2;" glyph-name="ograve" horiz-adv-x="520" d="M266 -8Q202 -8 150 23T66 108T34 226Q34 291 64 345T147 431T263 464Q329 464 382 432T465 346T496 231Q496 166 466 112T383 25T266 -8ZM282 36Q322 36 349 60T392 122T407 204Q407 258 386
307T330 389T248 421Q210 421 182 398T138 336T122 254Q122 201 143 151T200 68T282 36ZM289 517L104 673L162 721L315 539L289 517Z" />
<glyph unicode="&#xf3;" glyph-name="oacute" horiz-adv-x="520" d="M266 -8Q202 -8 150 23T66 108T34 226Q34 291 64 345T147 431T263 464Q329 464 382 432T465 346T496 231Q496 166 466 112T383 25T266 -8ZM282 36Q322 36 349 60T392 122T407 204Q407 258 386
307T330 389T248 421Q210 421 182 398T138 336T122 254Q122 201 143 151T200 68T282 36ZM241 517L215 539L368 721L426 673L241 517Z" />
<glyph unicode="&#xf4;" glyph-name="ocircumflex" horiz-adv-x="520" d="M266 -8Q202 -8 150 23T66 108T34 226Q34 291 64 345T147 431T263 464Q329 464 382 432T465 346T496 231Q496 166 466 112T383 25T266 -8ZM282 36Q322 36 349 60T392 122T407 204Q407 258
386 307T330 389T248 421Q210 421 182 398T138 336T122 254Q122 201 143 151T200 68T282 36ZM134 517L111 537L252 694H278L419 537L396 517L265 618L134 517Z" />
<glyph unicode="&#xf5;" glyph-name="otilde" horiz-adv-x="520" d="M266 -8Q202 -8 150 23T66 108T34 226Q34 291 64 345T147 431T263 464Q329 464 382 432T465 346T496 231Q496 166 466 112T383 25T266 -8ZM282 36Q322 36 349 60T392 122T407 204Q407 258 386
307T330 389T248 421Q210 421 182 398T138 336T122 254Q122 201 143 151T200 68T282 36ZM131 543L110 554Q119 573 134 596T170 638T217 657Q243 659 262 652T296 634T326 615T359 608Q388 610 402 625T430 663L451 652Q443 634 428 611T391 569T344 549Q319 548
300 555T266 573T236 592T202 599Q173 597 159 581T131 543Z" />
<glyph unicode="&#xf6;" glyph-name="odieresis" horiz-adv-x="520" d="M266 -8Q202 -8 150 23T66 108T34 226Q34 291 64 345T147 431T263 464Q329 464 382 432T465 346T496 231Q496 166 466 112T383 25T266 -8ZM282 36Q322 36 349 60T392 122T407 204Q407 258
386 307T330 389T248 421Q210 421 182 398T138 336T122 254Q122 201 143 151T200 68T282 36ZM174 548Q153 548 139 562T125 596Q125 616 139 631T174 646Q195 646 209 632T224 598Q224 578 210 563T174 548ZM355 548Q334 548 320 562T306 596Q306 616 320 631T355
646Q376 646 390 632T405 598Q405 578 391 563T355 548Z" />
<glyph unicode="&#xf7;" glyph-name="divide" horiz-adv-x="600" d="M64 210V266H536V210H64ZM293 349Q269 349 253 365T236 405Q236 428 252 445T293 462Q317 462 334 446T351 406Q351 383 334 366T293 349ZM293 14Q269 14 253 30T236 70Q236 93 252 110T293
127Q317 127 334 111T351 71Q351 48 334 31T293 14Z" />
<glyph unicode="&#xf8;" glyph-name="oslash" horiz-adv-x="520" d="M119 -69L84 -50L133 34Q88 66 61 116T34 226Q34 291 64 345T147 431T263 464Q318 464 366 440L413 522L448 503L400 419Q444 387 470 338T496 231Q496 166 466 112T383 25T266 -8Q214 -8 167
14L119 -69ZM122 254Q122 212 135 172T171 101L334 385Q316 402 294 411T248 421Q210 421 182 398T138 336T122 254ZM282 36Q322 36 349 60T392 122T407 204Q407 244 395 283T362 353L199 70Q217 54 238 45T282 36Z" />
<glyph unicode="&#xf9;" glyph-name="ugrave" horiz-adv-x="571" d="M426 -8Q396 2 388 22T379 59Q347 36 306 14T226 -8Q208 -8 185 -2T138 25Q120 42 109 69T97 142V385Q84 390 67 390T35 389L26 415L158 470L178 456V167Q178 142 180 125T192 90Q203 72 222
63T263 54Q298 54 327 69T379 101V385Q366 390 349 390T317 389L308 415L440 470L460 456V66Q481 64 501 69T537 79L549 52L426 -8ZM311 517L126 673L184 721L337 539L311 517Z" />
<glyph unicode="&#xfa;" glyph-name="uacute" horiz-adv-x="571" d="M426 -8Q396 2 388 22T379 59Q347 36 306 14T226 -8Q208 -8 185 -2T138 25Q120 42 109 69T97 142V385Q84 390 67 390T35 389L26 415L158 470L178 456V167Q178 142 180 125T192 90Q203 72 222
63T263 54Q298 54 327 69T379 101V385Q366 390 349 390T317 389L308 415L440 470L460 456V66Q481 64 501 69T537 79L549 52L426 -8ZM263 517L237 539L390 721L448 673L263 517Z" />
<glyph unicode="&#xfb;" glyph-name="ucircumflex" horiz-adv-x="571" d="M426 -8Q396 2 388 22T379 59Q347 36 306 14T226 -8Q208 -8 185 -2T138 25Q120 42 109 69T97 142V385Q84 390 67 390T35 389L26 415L158 470L178 456V167Q178 142 180 125T192 90Q203 72
222 63T263 54Q298 54 327 69T379 101V385Q366 390 349 390T317 389L308 415L440 470L460 456V66Q481 64 501 69T537 79L549 52L426 -8ZM156 517L133 537L274 694H300L441 537L418 517L287 618L156 517Z" />
<glyph unicode="&#xfc;" glyph-name="udieresis" horiz-adv-x="571" d="M426 -8Q396 2 388 22T379 59Q347 36 306 14T226 -8Q208 -8 185 -2T138 25Q120 42 109 69T97 142V385Q84 390 67 390T35 389L26 415L158 470L178 456V167Q178 142 180 125T192 90Q203 72
222 63T263 54Q298 54 327 69T379 101V385Q366 390 349 390T317 389L308 415L440 470L460 456V66Q481 64 501 69T537 79L549 52L426 -8ZM196 548Q175 548 161 562T147 596Q147 616 161 631T196 646Q217 646 231 632T246 598Q246 578 232 563T196 548ZM377 548Q356
548 342 562T328 596Q328 616 342 631T377 646Q398 646 412 632T427 598Q427 578 413 563T377 548Z" />
<glyph unicode="&#xfd;" glyph-name="yacute" horiz-adv-x="513" d="M109 -279L52 -204Q78 -188 101 -168T143 -124Q163 -101 185 -62T225 11L71 411Q55 420 38 423T10 426V456H225V426Q214 426 194 423T155 410L268 115L388 410Q370 420 350 423T318 426V456H503V426Q493
426 475 423T440 410L257 -43Q250 -62 236 -93T205 -155T175 -208Q156 -236 142 -252T109 -279ZM244 517L218 539L371 721L429 673L244 517Z" />
<glyph unicode="&#xfe;" glyph-name="thorn" horiz-adv-x="527" d="M26 -281V-251Q39 -251 62 -248T105 -235V704Q92 709 75 709T43 708L34 734L166 789L186 775V385Q222 421 262 442T340 464Q388 464 425 435T482 360T503 261Q503 186 469 125T375 28T238 -8Q225
-8 212 -7T186 -4V-235Q209 -245 234 -248T273 -251V-281H26ZM186 82Q221 42 280 42Q326 42 359 65T410 127T428 215Q428 262 412 303T366 369T297 395Q268 395 239 380T186 343V82Z" />
<glyph unicode="&#xff;" glyph-name="ydieresis" horiz-adv-x="513" d="M109 -279L52 -204Q78 -188 101 -168T143 -124Q163 -101 185 -62T225 11L71 411Q55 420 38 423T10 426V456H225V426Q214 426 194 423T155 410L268 115L388 410Q370 420 350 423T318 426V456H503V426Q493
426 475 423T440 410L257 -43Q250 -62 236 -93T205 -155T175 -208Q156 -236 142 -252T109 -279ZM177 548Q156 548 142 562T128 596Q128 616 142 631T177 646Q198 646 212 632T227 598Q227 578 213 563T177 548ZM358 548Q337 548 323 562T309 596Q309 616 323 631T358
646Q379 646 393 632T408 598Q408 578 394 563T358 548Z" />
<glyph unicode="&#x2013;" glyph-name="endash" horiz-adv-x="576" d="M38 201L49 255H538L527 201H38Z" />
<glyph unicode="&#x2014;" glyph-name="emdash" horiz-adv-x="1076" d="M38 201L49 255H1038L1027 201H38Z" />
<glyph unicode="&#x2018;" glyph-name="quoteleft" horiz-adv-x="234" d="M164 745L178 726Q147 703 130 672T113 603H115Q139 603 155 587T172 546Q172 523 156 506T115 488Q90 488 75 504T56 548Q54 578 63 615T97 687T164 745Z" />
<glyph unicode="&#x2019;" glyph-name="quoteright" horiz-adv-x="234" d="M70 473L56 492Q87 515 104 546T121 615H119Q95 615 79 631T62 672Q62 695 78 712T119 730Q144 730 159 714T178 670Q180 640 171 603T137 531T70 473Z" />
<glyph unicode="&#x201a;" glyph-name="quotesinglbase" horiz-adv-x="286" d="M93 -160L78 -139Q110 -115 128 -82T147 -8H145Q119 -8 102 9T84 52Q84 77 101 95T145 114Q171 114 187 97T207 50Q210 19 200 -21T163 -98T93 -160Z" />
<glyph unicode="&#x201c;" glyph-name="quotedblleft" horiz-adv-x="406" d="M336 745L350 726Q319 703 302 672T285 603H287Q311 603 327 587T344 546Q344 523 328 506T287 488Q262 488 247 504T228 548Q226 578 235 615T269 687T336 745ZM164 745L178 726Q147
703 130 672T113 603H115Q139 603 155 587T172 546Q172 523 156 506T115 488Q90 488 75 504T56 548Q54 578 63 615T97 687T164 745Z" />
<glyph unicode="&#x201d;" glyph-name="quotedblright" horiz-adv-x="406" d="M70 473L56 492Q87 515 104 546T121 615H119Q95 615 79 631T62 672Q62 695 78 712T119 730Q144 730 159 714T178 670Q180 640 171 603T137 531T70 473ZM242 473L228 492Q259 515 276
546T293 615H291Q267 615 251 631T234 672Q234 695 250 712T291 730Q316 730 331 714T350 670Q352 640 343 603T309 531T242 473Z" />
<glyph unicode="&#x201e;" glyph-name="quotedblbase" horiz-adv-x="450" d="M92 -150L78 -131Q109 -108 126 -77T143 -8H141Q117 -8 101 8T84 49Q84 72 100 89T141 107Q166 107 181 91T200 47Q202 17 193 -20T159 -92T92 -150ZM264 -150L250 -131Q281 -108 298
-77T315 -8H313Q289 -8 273 8T256 49Q256 72 272 89T313 107Q338 107 353 91T372 47Q374 17 365 -20T331 -92T264 -150Z" />
<glyph unicode="&#x2022;" glyph-name="bullet" horiz-adv-x="371" d="M185 127Q141 127 113 155T84 226Q84 267 112 298T185 329Q228 329 257 301T287 230Q287 189 258 158T185 127Z" />
<glyph unicode="&#x2039;" glyph-name="guilsinglleft" horiz-adv-x="356" d="M161 228L278 67L249 41L78 212V244L249 415L278 389L161 228Z" />
<glyph unicode="&#x203a;" glyph-name="guilsinglright" horiz-adv-x="356" d="M195 228L78 389L107 415L278 244V212L107 41L78 67L195 228Z" />
</font>
</defs>
</svg>
