<?xml version="1.0" standalone="no"?>
<!DOCTYPE svg PUBLIC "-//W3C//DTD SVG 1.1//EN" "http://www.w3.org/Graphics/SVG/1.1/DTD/svg11.dtd">
<svg xmlns="http://www.w3.org/2000/svg">
<defs >
<font id="Kufam" horiz-adv-x="519" ><font-face
    font-family="Kufam"
    units-per-em="1000"
    panose-1="0 0 0 0 0 0 0 0 0 0"
    ascent="900"
    descent="-400"
    alphabetic="0" />
<glyph unicode=" " horiz-adv-x="256" />
<glyph unicode="!" horiz-adv-x="296" d="M108 200Q108 200 106 229T102 308T100 416V720H198L200 712Q196 694 195 664T193 605T192 566V416Q192 358 190 309T186 230T184 200H108ZM148 -8Q121 -8 103 9T84 56Q84 86 102 103T148 120Q175 120 193 103T212 56Q212
26 194 9T148 -8Z" />
<glyph unicode="&quot;" horiz-adv-x="336" d="M204 720H288L284 484H208L204 720ZM48 720H132L128 484H52L48 720Z" />
<glyph unicode="#" horiz-adv-x="616" d="M316 0L448 720H524L392 0H316ZM32 220V292H560V220H32ZM92 0L224 720H300L168 0H92ZM56 428V500H584V428H56Z" />
<glyph unicode="$" horiz-adv-x="616" d="M288 -12Q254 -12 214 -8T139 4T80 24V122H84Q116 103 171 90T288 76Q360 76 405 105T450 192Q450 237 425 265T344 304L272 318Q218 329 175 351T106 413T80 512Q80 586 115 635T216 708T372 732Q393 732 420 730T475
724T520 712V620H516Q494 630 456 637T376 644Q316 644 270 632T198 592T172 516Q172 459 203 437T292 404L364 390Q419 380 459 353T522 286T544 196Q544 148 526 110T475 44T394 3T288 -12ZM280 -160V36H364V-160H280ZM280 664V860H364V664H280Z" />
<glyph unicode="%" horiz-adv-x="956" d="M199 312Q142 312 106 339T54 413T37 520Q37 580 53 627T106 701T199 728Q257 728 292 701T344 627T361 520Q361 461 345 414T293 339T199 312ZM199 379Q228 379 245 396T270 444T278 520Q278 564 270 595T245 644T199
661Q171 661 154 644T128 596T120 520Q120 476 128 445T153 396T199 379ZM202 0L666 720H754L290 0H202ZM757 -8Q700 -8 664 19T612 93T595 200Q595 260 611 307T664 381T757 408Q815 408 850 381T902 307T919 200Q919 141 903 94T851 19T757 -8ZM757 59Q786 59
803 76T828 124T836 200Q836 244 828 275T803 324T757 341Q729 341 712 324T686 276T678 200Q678 156 686 125T711 76T757 59Z" />
<glyph unicode="&amp;" horiz-adv-x="644" d="M326 -12Q257 -12 199 5T104 64T68 180Q68 238 95 280T172 346L171 322Q119 345 86 390T52 500Q52 580 89 631T194 707T352 732Q394 732 437 724T508 704V612H500Q476 624 438 634T348 644Q292 644 247 630T175 585T148
504Q148 441 188 413T292 384H596V300H516V200Q516 180 516 148T518 85T524 36L522 28Q495 16 463 7T396 -7T326 -12ZM430 59Q424 94 424 144V300H312Q242 300 201 271T160 184Q160 138 182 113T244 78T337 68Q369 68 396 72T451 89L430 59Z" />
<glyph unicode="&apos;" horiz-adv-x="180" d="M48 720H132L128 484H52L48 720Z" />
<glyph unicode="(" horiz-adv-x="356" d="M220 -88Q180 -46 148 19T96 165T76 336Q76 426 95 507T147 653T220 760H316V756Q244 678 202 573T160 336Q160 204 202 99T316 -84V-88H220Z" />
<glyph unicode=")" horiz-adv-x="356" d="M40 -84Q112 -6 154 99T196 336Q196 468 154 573T40 756V760H136Q176 718 208 653T260 507T280 336Q280 246 261 165T209 19T136 -88H40V-84Z" />
<glyph unicode="*" horiz-adv-x="544" d="M242 500L230 720H314L302 500L314 280H230L242 500ZM257 474L60 574L102 646L287 526L484 426L442 354L257 474ZM287 474L102 353L61 426L257 526L442 647L483 574L287 474Z" />
<glyph unicode="+" horiz-adv-x="616" d="M268 72V560H348V72H268ZM64 276V356H552V276H64Z" />
<glyph unicode="," horiz-adv-x="280" d="M118 -12Q105 -6 91 9T76 52Q76 85 94 102T140 120Q167 120 185 104T204 52Q204 28 197 9T184 -24L124 -156H48V-148L118 -12Z" />
<glyph unicode="-" horiz-adv-x="468" d="M68 376H400V288H68V376Z" />
<glyph unicode="." horiz-adv-x="280" d="M140 -8Q113 -8 95 9T76 56Q76 86 94 103T140 120Q167 120 185 103T204 56Q204 26 186 9T140 -8Z" />
<glyph unicode="/" horiz-adv-x="516" d="M412 720H496L104 0H20L412 720Z" />
<glyph unicode="0" horiz-adv-x="616" d="M308 -12Q241 -12 192 15T113 93T67 211T52 360Q52 441 67 509T112 627T192 704T308 732Q376 732 424 705T503 627T549 509T564 360Q564 279 549 211T504 93T425 16T308 -12ZM308 72Q364 72 399 105T451 202T468 360Q468
454 452 518T400 615T308 648Q252 648 217 615T165 518T148 360Q148 266 164 202T216 105T308 72Z" />
<glyph unicode="1" horiz-adv-x="616" d="M276 12V556Q276 572 277 594T279 632T282 646L318 640H88V708Q102 713 132 717T200 725T272 728Q308 728 335 725T378 716L380 704Q376 686 375 656T373 595T372 544V12H276ZM72 0V84H552V0H72Z" />
<glyph unicode="2" horiz-adv-x="616" d="M76 0Q67 18 64 48T60 96Q60 152 78 198T140 279T259 332L308 344Q374 361 407 398T440 504Q440 573 393 610T256 648Q222 648 193 643T139 630T92 612H84V700Q114 712 160 722T260 732Q356 732 416 702T504 620T532 504Q532
402 478 344T340 264L292 252Q213 233 181 196T148 108Q148 92 151 84T160 65L113 84H552V0H76Z" />
<glyph unicode="3" horiz-adv-x="616" d="M256 -12Q202 -12 154 -1T72 28V122H80Q110 103 156 88T256 72Q330 72 370 94T425 149T440 212Q440 272 398 308T268 344H196L180 384L420 669L434 640H84V720H488L500 710Q502 703 503 693T504 676Q504 652 492 629T460
582L289 390L281 420Q363 419 419 394T503 322T532 208Q532 142 499 93T404 16T256 -12Z" />
<glyph unicode="4" horiz-adv-x="616" d="M400 0V592Q400 612 401 631T407 666L422 636Q414 639 402 641T376 644Q307 644 267 603T196 468L122 244L96 280H604V196H36V272L106 480Q126 538 148 584T202 662T275 711T376 728Q414 728 446 724T500 712L502 700Q499
680 498 650T497 590T496 540V0H400Z" />
<glyph unicode="5" horiz-adv-x="616" d="M64 122H72Q99 106 148 89T260 72Q334 72 375 94T432 150T448 220Q448 286 406 321T280 356Q216 356 174 345T104 328L96 332V532Q96 552 96 585T94 650T88 700L90 708Q113 714 147 717T232 720H512V636H148L185 658Q186
644 187 625T188 588V389L165 423Q191 428 222 432T284 436Q416 436 480 379T544 220Q544 150 510 98T412 17T260 -12Q200 -12 149 -1T64 28V122Z" />
<glyph unicode="6" horiz-adv-x="616" d="M316 -12Q246 -12 196 13T116 87T71 201T56 348Q56 437 77 507T139 628T243 705T388 732Q430 732 459 727T512 712V624H504Q483 633 456 640T384 648Q324 648 280 629T208 571T166 478T152 352Q152 258 167 195T219 100T320
68Q374 68 407 90T456 150T472 232Q472 304 434 346T320 388Q254 388 212 362T140 296H104V390H144Q168 419 213 443T336 468Q402 468 453 442T534 363T564 232Q564 164 536 109T452 21T316 -12Z" />
<glyph unicode="7" horiz-adv-x="616" d="M76 720H532L544 710Q546 700 547 691T548 672Q548 644 540 614T520 556L256 0H156V6L481 670L502 636H76V720Z" />
<glyph unicode="8" horiz-adv-x="616" d="M308 -12Q179 -12 116 45T52 196Q52 254 79 297T153 370T256 416L308 360Q264 352 227 332T167 279T144 200Q144 134 190 101T312 68Q390 68 431 101T472 188Q472 230 448 256T388 298T312 328L264 344Q214 361 172 384T105
445T80 540Q80 590 105 634T182 705T316 732Q394 732 444 704T519 629T544 528Q544 480 524 442T473 378T414 340L362 388Q381 397 402 415T439 460T454 524Q454 584 417 618T308 652Q239 652 204 621T168 544Q168 506 185 484T232 447T300 420L348 404Q406 385
455 358T534 289T564 188Q564 126 532 81T442 12T308 -12Z" />
<glyph unicode="9" horiz-adv-x="616" d="M228 -12Q186 -12 157 -7T104 8V96H112Q133 87 160 80T232 72Q292 72 336 91T408 149T450 243T464 368Q464 462 449 525T397 620T296 652Q242 652 209 630T160 570T144 488Q144 416 182 374T296 332Q362 332 405 358T476
424H512V330H472Q448 302 403 277T280 252Q214 252 163 278T82 357T52 488Q52 556 80 611T164 699T300 732Q371 732 420 707T500 633T545 519T560 372Q560 284 539 213T477 92T373 15T228 -12Z" />
<glyph unicode=":" horiz-adv-x="280" d="M140 -8Q113 -8 95 9T76 56Q76 86 94 103T140 120Q167 120 185 103T204 56Q204 26 186 9T140 -8ZM140 416Q113 416 95 433T76 480Q76 510 94 527T140 544Q167 544 185 527T204 480Q204 450 186 433T140 416Z" />
<glyph unicode=";" horiz-adv-x="279" d="M139 416Q112 416 94 433T75 480Q75 510 93 527T139 544Q166 544 184 527T203 480Q203 450 185 433T139 416ZM117 -12Q104 -6 90 9T75 52Q75 85 93 102T139 120Q166 120 184 104T203 52Q203 28 196 9T183 -24L124 -155H48V-147L117
-12Z" />
<glyph unicode="&lt;" horiz-adv-x="616" d="M84 288V344L524 572H532V484L200 316L532 152V64H524L84 288Z" />
<glyph unicode="=" horiz-adv-x="616" d="M64 456H552V376H64V456ZM64 256H552V176H64V256Z" />
<glyph unicode="&gt;" horiz-adv-x="616" d="M92 64H84V152L416 316L84 484V572H92L532 344V288L92 64Z" />
<glyph unicode="?" horiz-adv-x="500" d="M168 188V260Q168 302 185 336T240 397L292 433Q314 448 335 472T356 544Q356 598 320 623T224 648Q176 648 137 637T64 608H56V696Q92 714 134 723T228 732Q333 732 392 686T452 540Q452 500 439 471T406 421T368 387T336
365L296 337Q274 321 267 298T260 256V188H168ZM216 -8Q189 -8 171 9T152 56Q152 86 170 103T216 120Q243 120 261 103T280 56Q280 26 262 9T216 -8Z" />
<glyph unicode="@" horiz-adv-x="966" d="M510 -156Q377 -156 274 -109T111 37T52 288Q52 424 106 523T263 677T510 732Q628 732 719 689T862 566T914 376Q914 288 883 224T797 118T669 56T512 36Q415 36 361 74T306 188Q306 232 330 263T398 311T498 328Q530
328 557 323T608 312V244Q584 251 556 255T502 260Q442 260 414 240T386 184Q386 145 418 127T512 108Q540 108 566 110T617 116L601 93Q593 109 590 128T586 173V317Q586 382 560 407T466 432Q430 432 399 423T350 404H342V482Q369 493 403 500T474 508Q530 508
573 492T641 435T666 320V214Q666 199 666 177T668 131Q742 158 784 217T826 376Q826 466 785 526T672 617T510 648Q402 648 320 611T191 494T144 288Q144 189 172 120T250 7T366 -56T510 -76Q541 -76 574 -72T637 -60T684 -44H692V-128Q674 -136 644 -142T578
-152T510 -156Z" />
<glyph unicode="A" horiz-adv-x="662" d="M48 0L128 480Q138 540 157 586T210 664T295 712T422 728Q458 728 494 725T570 712L572 700Q569 680 568 650T566 590T566 540V0H470V592Q470 612 470 629T474 663L490 634Q477 640 459 642T418 644Q352 644 314 626T256
572T226 480L146 0H48ZM148 220V304H510V220H148Z" />
<glyph unicode="B" horiz-adv-x="640" d="M152 0V84H376Q421 84 454 105T488 184Q488 238 456 259T376 280H152V364H340Q386 364 416 386T461 445T476 524Q476 587 442 611T348 636H152V720H348Q459 720 515 672T572 524Q572 484 559 445T520 373T454 320L449
340Q514 328 549 287T584 184Q584 138 564 96T499 27T380 0H152ZM96 0V720H192V0H96Z" />
<glyph unicode="C" horiz-adv-x="648" d="M56 360Q56 472 98 555T222 685T420 732Q471 732 510 724T580 700V608H572Q542 626 504 635T420 644Q340 644 281 613T189 519T156 360Q156 264 188 201T280 107T420 76Q465 76 503 85T572 112H580V20Q550 5 511 -3T420
-12Q304 -12 223 32T99 160T56 360Z" />
<glyph unicode="D" horiz-adv-x="720" d="M152 0V84H312Q386 84 434 112T511 188T552 290T564 400Q564 517 507 576T336 636H152V720H336Q495 720 579 640T664 400Q664 325 646 254T586 125T477 34T312 0H152ZM96 0V720H192V0H96Z" />
<glyph unicode="E" horiz-adv-x="616" d="M96 0V720H192V0H96ZM152 0V84H564V0H152ZM152 336V420H496V336H152ZM152 636V720H552V636H152Z" />
<glyph unicode="F" horiz-adv-x="572" d="M96 0V720H192V0H96ZM152 280V364H484V280H152ZM152 636V720H540V636H152Z" />
<glyph unicode="G" horiz-adv-x="684" d="M56 360Q56 472 100 555T227 685T428 732Q482 732 524 724T596 700V608H588Q561 622 520 633T428 644Q302 644 229 576T156 360Q156 260 188 197T279 103T420 72Q450 72 478 77T530 90L508 46V364H604V28Q571 10 523 -1T420
-12Q298 -12 217 34T96 164T56 360Z" />
<glyph unicode="H" horiz-adv-x="736" d="M544 0V720H640V0H544ZM96 0V720H192V0H96ZM152 332V416H584V332H152Z" />
<glyph unicode="I" horiz-adv-x="288" d="M96 720H192V0H96V720Z" />
<glyph unicode="J" horiz-adv-x="412" d="M12 84H20Q32 80 61 76T112 72Q172 72 204 103T236 192V720H332V204Q332 138 307 90T233 15T112 -12Q85 -12 58 -8T12 0V84Z" />
<glyph unicode="K" horiz-adv-x="650" d="M268 280H150V364H264Q315 364 341 388T384 448L512 720H612V712L472 420Q454 381 427 349T362 299T268 280ZM96 0V720H192V0H96ZM400 344L614 8V0H506L324 296L400 344Z" />
<glyph unicode="L" horiz-adv-x="532" d="M96 0V720H192V84H500V0H96Z" />
<glyph unicode="M" horiz-adv-x="820" d="M96 0V720H176L430 324H390L644 720H724V0H628V563L649 557L448 248H372L171 557L192 563V0H96Z" />
<glyph unicode="N" horiz-adv-x="736" d="M96 0V720H176L590 283V148L166 595L192 606V0H96ZM544 0V720H640V0H544Z" />
<glyph unicode="O" horiz-adv-x="784" d="M56 360Q56 470 96 554T212 685T392 732Q496 732 571 685T687 554T728 360Q728 250 688 166T572 35T392 -12Q287 -12 212 35T97 166T56 360ZM156 360Q156 268 185 205T267 109T392 76Q464 76 517 108T599 204T628 360Q628
452 599 515T517 611T392 644Q320 644 267 612T185 516T156 360Z" />
<glyph unicode="P" horiz-adv-x="620" d="M152 240V324H308Q368 324 406 349T462 417T480 512Q480 581 444 608T348 636H152V720H352Q454 720 517 669T580 512Q580 463 565 415T516 327T432 264T308 240H152ZM96 0V720H192V0H96Z" />
<glyph unicode="Q" horiz-adv-x="784" d="M632 -158L424 20L520 48L764 -150V-158H632ZM56 360Q56 470 96 554T212 685T392 732Q496 732 571 685T687 554T728 360Q728 250 688 166T572 35T392 -12Q287 -12 212 35T97 166T56 360ZM156 360Q156 268 185 205T267
109T392 76Q464 76 517 108T599 204T628 360Q628 452 599 515T517 611T392 644Q320 644 267 612T185 516T156 360Z" />
<glyph unicode="R" horiz-adv-x="660" d="M152 216V304H324Q380 304 417 331T473 402T492 496Q492 568 454 602T352 636H152V720H356Q428 720 481 694T563 618T592 496Q592 429 570 377T509 289T422 235T320 216H152ZM96 0V720H192V0H96ZM524 0L336 244L436 256L636
4V0H524Z" />
<glyph unicode="S" horiz-adv-x="584" d="M64 118H72Q96 105 126 96T193 81T272 76Q320 76 357 85T416 117T438 180Q438 228 411 249T328 280L240 296Q190 305 148 328T81 394T56 500Q56 580 93 631T198 707T356 732Q398 732 439 724T508 704V612H500Q476 624
440 634T352 644Q296 644 251 630T179 585T152 504Q152 441 185 416T276 380L364 364Q415 355 453 333T512 275T534 184Q534 135 515 98T462 37T379 0T272 -12Q230 -12 193 -7T123 6T64 24V118Z" />
<glyph unicode="T" horiz-adv-x="584" d="M12 720H572V636H340V0H244V636H12V720Z" />
<glyph unicode="U" horiz-adv-x="704" d="M88 720H184V268Q184 163 226 120T352 76Q436 76 478 119T520 268V720H616V268Q616 130 549 59T352 -12Q220 -12 154 59T88 268V720Z" />
<glyph unicode="V" horiz-adv-x="646" d="M90 16Q93 36 94 66T95 126T96 176V720H192V124Q192 105 191 87T189 54L170 79Q184 75 201 74T240 72Q306 72 344 91T402 147T428 232L500 720H598L526 236Q517 176 499 130T447 52T363 4T236 -12Q200 -12 166 -9T92 4L90 16Z" />
<glyph unicode="W" horiz-adv-x="1044" d="M662 -12Q626 -12 596 -9T526 4L524 16Q525 36 524 66T522 126T518 176L456 720H554L612 176Q614 153 615 117T616 53L595 82Q613 77 626 75T666 72Q714 72 743 91T788 147T814 232L910 720H1008L912 236Q896 157 869
102T793 17T662 -12ZM262 -12Q226 -12 196 -9T126 4L124 16Q125 36 125 66T123 126T118 176L56 720H154L212 176Q215 153 215 117T216 53L195 82Q213 78 226 75T266 72Q314 72 343 92T388 148T414 232L488 584L514 320L496 236Q479 157 455 102T385 17T262 -12Z"
/>
<glyph unicode="X" horiz-adv-x="656" d="M516 0L300 321L28 712V720H140L356 399L628 8V0H516ZM32 0V8L300 399L516 720H620V712L352 321L136 0H32Z" />
<glyph unicode="Y" horiz-adv-x="612" d="M260 0V300L8 712V720H116L328 362H290L500 720H604V712L356 306V0H260Z" />
<glyph unicode="Z" horiz-adv-x="586" d="M54 0L46 8Q45 12 45 15T45 21Q45 38 51 53T70 88L426 672L444 636H50V720H526L534 712Q535 709 535 706T536 699Q536 683 529 666T510 632L153 48L135 84H546V0H54Z" />
<glyph unicode="[" horiz-adv-x="344" d="M112 760H320V684H196V-12H320V-88H112V760Z" />
<glyph unicode="\" horiz-adv-x="516" d="M412 0L20 720H104L496 0H412Z" />
<glyph unicode="]" horiz-adv-x="344" d="M24 -12H148V684H24V760H232V-88H24V-12Z" />
<glyph unicode="^" horiz-adv-x="616" d="M85 400V408L280 732H336L531 408V400H443L308 620L173 400H85Z" />
<glyph unicode="_" horiz-adv-x="500" d="M484 -12V-90H16V-12H484Z" />
<glyph unicode="`" horiz-adv-x="600" d="M328 604L197 756V760H313L404 608V604H328Z" />
<glyph unicode="a" horiz-adv-x="590" d="M286 -12Q169 -12 111 30T52 160Q52 218 80 256T161 313T286 332Q342 332 379 323T444 304V232Q417 241 377 248T302 256Q221 256 182 235T142 160Q142 109 180 87T290 64Q330 64 367 70T436 88L418 61Q416 69 415 79T412
100T411 123T410 148V328Q410 392 393 423T341 465T254 476Q215 476 175 466T110 444H102V526Q138 541 182 548T266 556Q316 556 358 547T433 515T484 447T502 332V200Q502 180 502 148T504 85T510 36L508 28Q475 16 435 7T356 -7T286 -12Z" />
<glyph unicode="b" horiz-adv-x="618" d="M284 -12Q233 -12 181 -2T90 24L88 32Q92 50 93 81T95 144T96 196V588Q96 603 96 625T95 671T93 717T88 752L90 760H188V148Q188 118 186 97T180 60L164 88Q188 80 219 74T284 68Q380 68 426 121T472 276Q472 369 425
422T284 476Q258 476 239 474T201 466T156 452V528Q191 543 226 549T292 556Q378 556 439 522T533 425T566 276Q566 186 532 122T435 23T284 -12Z" />
<glyph unicode="c" horiz-adv-x="504" d="M52 274Q52 363 87 426T188 522T344 556Q418 556 468 534V452H460Q439 463 410 469T344 476Q254 476 200 426T146 274Q146 174 200 123T344 72Q380 72 409 79T460 96H468V14Q418 -8 344 -8Q252 -8 187 25T87 122T52 274Z" />
<glyph unicode="d" horiz-adv-x="618" d="M332 -12Q242 -12 180 22T85 121T52 274Q52 363 88 426T189 522T340 556Q375 556 402 551T447 538L443 458Q432 463 408 469T346 476Q249 476 198 424T146 274Q146 203 168 158T234 90T340 68Q375 68 403 74T454 91L438
63Q434 80 432 103T430 152V588Q430 608 430 640T428 703T422 752L424 760H522V200Q522 180 522 148T524 85T530 36L528 28Q486 12 438 0T332 -12Z" />
<glyph unicode="e" horiz-adv-x="597" d="M352 -8Q276 -8 220 10T126 65T70 153T52 274Q52 359 83 422T171 521T304 556Q392 556 446 520T523 419T544 268L543 240H116V316H448V324Q448 399 412 437T304 476Q262 476 226 458T168 397T146 280V274Q146 197 173
153T247 91T356 72Q407 72 443 82T500 104H508V22Q484 10 445 1T352 -8Z" />
<glyph unicode="f" horiz-adv-x="336" d="M100 0V544Q100 616 121 664T186 736T296 760Q320 760 338 757T372 748V668H364Q349 674 335 677T296 680Q235 680 214 648T192 544V0H100ZM16 464V544H344V464H16Z" />
<glyph unicode="g" horiz-adv-x="618" d="M252 -240Q216 -240 173 -234T100 -214V-132H108Q141 -147 180 -153T252 -160Q317 -160 356 -141T412 -83T430 16V400Q430 424 431 445T436 485L453 457Q431 464 404 470T344 476Q278 476 234 454T168 387T146 276Q146
180 195 132T344 84Q372 84 397 88T452 104L450 20Q416 12 390 8T340 4Q254 4 189 34T88 125T52 276Q52 341 71 392T129 480T221 536T344 556Q389 556 439 546T528 520L530 512Q526 494 525 463T523 400T522 348V16Q522 -64 491 -121T399 -209T252 -240Z" />
<glyph unicode="h" horiz-adv-x="640" d="M96 0V588Q96 608 96 640T94 703T88 752L90 760H188V489L169 518Q201 533 239 544T328 556Q370 556 409 546T480 509T529 437T548 320V0H456V308Q456 374 438 409T386 458T308 472Q282 472 257 467T209 455T168 439L188
485V0H96Z" />
<glyph unicode="i" horiz-adv-x="284" d="M142 640Q117 640 100 656T82 700Q82 727 99 743T142 760Q168 760 185 744T202 700Q202 673 185 657T142 640ZM96 0V372Q96 392 96 424T94 487T88 536L90 544H188V0H96Z" />
<glyph unicode="j" horiz-adv-x="284" d="M142 640Q117 640 100 656T82 700Q82 727 99 743T142 760Q168 760 185 744T202 700Q202 673 185 657T142 640ZM-4 -240Q-31 -240 -49 -236T-80 -228V-148H-72Q-60 -152 -45 -156T-8 -160Q40 -160 68 -133T96 -52V372Q96
392 96 424T94 487T88 536L90 544H188V-48Q188 -98 169 -142T107 -213T-4 -240Z" />
<glyph unicode="k" horiz-adv-x="540" d="M188 0H96V588Q96 608 96 640T94 703T88 752L90 760H188V0ZM176 284L424 544H528V532Q518 524 506 513T480 488T452 460L258 261L259 316L452 100Q472 78 495 51T532 12V0H424L176 284Z" />
<glyph unicode="l" horiz-adv-x="284" d="M96 0V588Q96 608 96 640T94 703T88 752L90 760H188V0H96Z" />
<glyph unicode="m" horiz-adv-x="956" d="M96 0V344Q96 364 96 396T94 459T88 508L90 516Q116 526 155 535T235 550T308 556Q352 556 392 546T463 509T513 437T532 320V0H440V312Q440 378 422 413T371 462T296 476Q264 476 228 469T164 452L180 480Q184 465 186
443T188 396V0H96ZM772 0V312Q772 378 755 413T704 462T620 476Q591 476 561 469T496 448L440 512Q490 532 539 544T632 556Q682 556 724 546T797 509T846 437T864 320V0H772Z" />
<glyph unicode="n" horiz-adv-x="640" d="M96 0V344Q96 364 96 396T94 459T88 508L90 516Q116 526 156 535T237 550T308 556Q358 556 401 546T477 509T529 437T548 320V0H456V312Q456 378 437 413T382 462T296 476Q264 476 228 469T164 452L180 480Q184 465 186
443T188 396V0H96Z" />
<glyph unicode="o" horiz-adv-x="604" d="M52 274Q52 363 83 426T171 522T302 556Q376 556 432 523T520 426T552 274Q552 185 521 122T433 26T302 -8Q226 -8 170 25T83 122T52 274ZM146 274Q146 174 186 123T302 72Q377 72 417 123T458 274Q458 375 418 425T302
476Q227 476 187 426T146 274Z" />
<glyph unicode="p" horiz-adv-x="618" d="M96 -232V348Q96 366 96 397T94 459T88 508L90 516Q134 534 187 545T292 556Q355 556 405 537T492 482T547 393T566 274Q566 207 546 154T489 64T399 8T280 -12Q249 -12 219 -6T170 5L176 87Q188 80 212 74T280 68Q376
68 424 121T472 274Q472 375 423 425T284 476Q250 476 219 469T167 450L182 478Q185 463 186 441T188 396V-232H96Z" />
<glyph unicode="q" horiz-adv-x="618" d="M430 -232V400Q430 424 431 445T436 485L453 457Q431 464 404 470T344 476Q248 476 197 424T146 274Q146 168 196 118T340 68Q376 68 403 74T444 87L448 6Q429 -1 397 -6T332 -12Q197 -12 125 64T52 274Q52 341 72 393T131
481T223 537T340 556Q388 556 438 546T528 520L530 512Q526 494 525 463T523 400T522 348V-232H430Z" />
<glyph unicode="r" horiz-adv-x="384" d="M96 0V344Q96 364 96 396T94 459T88 508L90 516Q116 526 154 533T231 544T296 548Q320 548 335 547T360 544V464H352Q339 466 321 467T288 468Q257 468 223 463T164 453L182 478Q188 445 188 396V0H96Z" />
<glyph unicode="s" horiz-adv-x="500" d="M52 108H60Q96 92 141 82T232 72Q246 72 269 73T317 82T359 106T376 156Q376 192 347 207T267 230L219 238Q134 252 93 286T52 384Q52 428 75 466T151 528T292 552Q331 552 367 546T428 530V448H420Q387 460 357 466T288
472Q219 472 180 453T140 387Q140 352 168 337T248 314L296 306Q342 299 380 281T441 233T464 156Q464 75 406 34T228 -8Q177 -8 133 0T52 20V108Z" />
<glyph unicode="t" horiz-adv-x="404" d="M296 -8Q226 -8 184 14T123 77T104 172V692H196V180Q196 123 221 98T300 72Q321 72 341 76T376 88H384V10Q369 3 346 -2T296 -8ZM20 464V544H352V464H20Z" />
<glyph unicode="u" horiz-adv-x="632" d="M332 -12Q280 -12 235 -2T156 35T103 108T84 224V372Q84 392 84 424T82 487T76 536L78 544H176V232Q176 166 195 131T252 82T343 68Q375 68 408 73T467 86L450 62Q446 76 445 97T444 140V372Q444 392 444 424T442 487T436
536L438 544H536V196Q536 176 536 144T538 81T544 32L542 24Q516 14 477 6T398 -7T332 -12Z" />
<glyph unicode="v" horiz-adv-x="536" d="M204 0L12 532V544H108L280 46H255L432 544H524V532L324 0H204Z" />
<glyph unicode="w" horiz-adv-x="772" d="M156 0L12 532V544H104L225 56L205 57L356 544H416L562 55L542 54L668 544H760V532L608 0H500L373 414H395L264 0H156Z" />
<glyph unicode="x" horiz-adv-x="532" d="M408 0L240 232L20 536V544H120L288 312L508 8V0H408ZM28 0V8L248 304L416 544H512V536L292 240L124 0H28Z" />
<glyph unicode="y" horiz-adv-x="536" d="M132 -232V-220L256 84L432 544H524V532L220 -232H132ZM232 -20L12 532V544H108L285 82L232 -20Z" />
<glyph unicode="z" horiz-adv-x="520" d="M53 0L45 10Q40 33 40 48Q40 80 53 106T85 153T116 188L316 400Q328 413 341 428T364 458T371 482L406 466H52V544H451L459 534Q464 511 464 496Q464 464 451 438T419 391T388 356L188 144Q177 131 164 116T141 86T131
62L97 78H480V0H53Z" />
<glyph unicode="{" horiz-adv-x="372" d="M128 220Q128 250 112 271T60 292H12V380H60Q96 380 112 401T128 452V612Q128 658 144 691T193 742T276 760H348V684H272Q242 684 227 669T212 620V456Q212 402 186 374T120 337V335Q159 328 185 299T212 216V52Q212 19
227 4T272 -12H348V-88H276Q226 -88 193 -70T144 -19T128 60V220Z" />
<glyph unicode="|" horiz-adv-x="308" d="M112 760H196V-240H112V760Z" />
<glyph unicode="}" horiz-adv-x="372" d="M100 -12Q130 -12 145 3T160 52V216Q160 270 186 299T252 335V337Q213 345 187 373T160 456V620Q160 653 145 668T100 684H24V760H96Q146 760 179 742T228 691T244 612V452Q244 422 260 401T312 380H360V292H312Q276 292
260 271T244 220V60Q244 14 228 -19T179 -70T96 -88H24V-12H100Z" />
<glyph unicode="~" horiz-adv-x="616" d="M544 408Q542 363 528 321T484 251T402 224Q362 224 334 240T284 276Q262 296 244 312T204 328Q181 328 169 313T152 273T144 224H64Q66 270 80 312T124 381T206 408Q246 408 274 392T324 356Q346 337 364 321T404 304Q427
304 439 319T457 359T464 408H544Z" />
<glyph unicode="&#xa0;" horiz-adv-x="256" />
<glyph unicode="&#xa1;" horiz-adv-x="296" d="M188 344Q188 344 190 315T194 236T196 128V-176H98L96 -168Q100 -150 101 -120T103 -61T104 -22V128Q104 187 106 236T110 314T112 344H188ZM148 552Q175 552 193 535T212 488Q212 458 194 441T148 424Q121 424
103 441T84 488Q84 518 102 535T148 552Z" />
<glyph unicode="&#xa2;" horiz-adv-x="616" d="M376 92Q307 92 252 111T157 166T97 255T76 374Q76 441 97 493T158 581T253 637T376 656Q412 656 446 649T496 636V552H488Q470 561 441 566T376 572Q316 572 270 551T197 485T170 374Q170 307 196 263T269 198T376
176Q412 176 441 181T488 196H496V112Q481 106 445 99T376 92ZM296 -64V132H380V-64H296ZM296 604V800H380V604H296Z" />
<glyph unicode="&#xa3;" horiz-adv-x="616" d="M188 36V472Q188 542 215 601T297 696T436 732Q475 732 501 727T552 712V630H548Q527 639 501 645T436 652Q355 652 318 604T280 472V36H188ZM52 0V78H556V0H52ZM60 340V420H480V340H60Z" />
<glyph unicode="&#xa4;" horiz-adv-x="616" d="M99 201L148 250Q119 297 119 360Q119 423 148 469L99 519L149 569L196 520Q218 534 245 542T304 550Q337 550 365 542T415 518L466 569L516 519L462 465Q475 443 481 417T488 360Q488 330 482 303T462 254L516 201L466
152L415 202Q393 187 366 179T304 170Q272 170 245 178T196 199L149 152L99 201ZM304 241Q354 241 383 274T412 360Q412 413 383 445T304 478Q254 478 225 446T196 360Q196 307 225 274T304 241Z" />
<glyph unicode="&#xa5;" horiz-adv-x="616" d="M114 190V268H506V190H114ZM114 342V420H506V342H114ZM582 720V712L338 314L358 384V0H262V379L282 309L34 712V720H138L331 394H293L482 720H582Z" />
<glyph unicode="&#xa6;" horiz-adv-x="308" d="M112 760H196V424H112V760ZM196 88V-248H112V88H196Z" />
<glyph unicode="&#xa7;" horiz-adv-x="600" d="M328 68V124Q356 130 378 144T413 180T426 228Q426 270 404 292T328 328L268 344Q218 358 179 379T118 435T96 524Q96 629 167 680T368 732Q401 732 435 726T496 708V616H488Q461 628 431 636T356 644Q281 644 235
618T188 532Q188 498 200 479T238 449T300 428L360 412Q410 399 445 377T500 322T520 240Q520 198 503 165T458 107T396 68H328ZM208 -232Q175 -232 141 -226T80 -208V-116H88Q115 -128 145 -136T220 -144Q295 -144 341 -118T388 -32Q388 2 376 21T339 51T276 72L216
88Q167 101 131 123T76 178T56 260Q56 302 73 335T118 393T180 432H248V376Q220 370 198 356T163 320T150 272Q150 230 172 208T248 172L308 156Q358 143 397 122T458 65T480 -24Q480 -129 409 -180T208 -232Z" />
<glyph unicode="&#xa8;" horiz-adv-x="600" d="M654 624Q629 624 612 640T594 684Q594 712 611 728T654 744Q680 744 697 728T714 684Q714 656 697 640T654 624ZM458 624Q433 624 416 640T398 684Q398 712 415 728T458 744Q484 744 501 728T518 684Q518 656 501
640T458 624Z" />
<glyph unicode="&#xa9;" horiz-adv-x="792" d="M48 360Q48 476 91 559T213 687T396 732Q500 732 578 688T700 560T744 360Q744 244 701 161T579 33T396 -12Q292 -12 214 32T92 160T48 360ZM120 360Q120 256 155 188T252 86T396 52Q478 52 540 86T637 189T672 360Q672
462 637 530T540 633T396 668Q314 668 252 635T155 533T120 360ZM216 360Q216 450 271 507T428 564Q454 564 479 560T520 549V488H516Q500 496 477 500T428 504Q362 504 323 470T284 360Q284 285 323 251T428 216Q454 216 477 220T516 232H520V171Q504 164 479
160T428 156Q326 156 271 213T216 360Z" />
<glyph unicode="&#xaa;" horiz-adv-x="451" d="M227 312Q139 312 95 342T50 437Q50 481 71 508T131 549T221 563Q248 563 270 560T305 552Q305 614 283 636T197 659Q167 659 138 652T92 637H85V707Q111 717 143 722T207 727Q259 727 299 714T364 666T388 560V464Q388
450 388 427T390 382T394 346L393 340Q357 327 310 320T227 312ZM228 375Q249 375 269 378T309 386Q306 400 306 421T305 493Q292 496 274 499T235 502Q181 502 156 488T130 438Q130 404 155 390T228 375ZM60 258H396V184H60V258Z" />
<glyph unicode="&#xab;" horiz-adv-x="564" d="M496 72L256 292V324L496 544H504V448L348 308L504 168V72H496ZM276 72L36 292V324L276 544H284V448L128 308L284 168V72H276Z" />
<glyph unicode="&#xac;" horiz-adv-x="616" d="M64 356H552V64H472V276H64V356Z" />
<glyph unicode="&#xad;" horiz-adv-x="468" d="M68 376H400V288H68V376Z" />
<glyph unicode="&#xae;" horiz-adv-x="792" d="M396 -12Q292 -12 214 32T92 160T48 360Q48 476 91 559T213 687T396 732Q500 732 578 688T700 560T744 360Q744 244 701 161T579 33T396 -12ZM256 168V472V562H318V168H256ZM516 168L392 312L450 332L584 176V168H516ZM396
52Q478 52 540 86T637 189T672 360Q672 462 637 530T540 633T396 668Q314 668 252 635T155 533T120 360Q120 256 155 188T252 86T396 52ZM286 280V332H394Q444 332 469 363T494 436Q494 476 473 492T414 508H286V562H416Q485 562 520 530T556 436Q556 398 540 362T487
303T394 280H286Z" />
<glyph unicode="&#xaf;" horiz-adv-x="600" d="M394 720H718V644H394V720Z" />
<glyph unicode="&#xb0;" horiz-adv-x="392" d="M196 480Q139 480 100 514T60 608Q60 668 99 702T196 736Q253 736 292 702T332 608Q332 548 293 514T196 480ZM196 532Q231 532 251 552T272 608Q272 644 252 664T196 684Q162 684 141 664T120 608Q120 572 141 552T196
532Z" />
<glyph unicode="&#xb1;" horiz-adv-x="616" d="M64 360V440H552V360H64ZM64 0V80H552V0H64ZM268 156V644H348V156H268Z" />
<glyph unicode="&#xb2;" horiz-adv-x="397" d="M51 480Q46 490 43 506T40 535Q40 584 67 619T162 674L191 683Q229 693 244 709T259 755Q259 785 235 803T162 822Q142 822 124 819T91 812T65 802H58V870Q77 878 107 883T171 888Q260 888 298 850T337 756Q337 702
308 671T219 622L191 615Q152 604 137 588T120 546H346V480H51Z" />
<glyph unicode="&#xb3;" horiz-adv-x="397" d="M163 472Q129 472 101 478T53 493V563H62Q78 553 103 546T162 538Q218 538 240 557T262 601Q262 627 241 644T174 661H125L109 691L220 813H57V880H315L323 875Q326 866 326 854Q326 841 321 828T303 803L216 715Q279
708 311 677T343 601Q343 544 296 508T163 472Z" />
<glyph unicode="&#xb4;" horiz-adv-x="600" d="M492 604V608L583 760H699V756L568 604H492Z" />
<glyph unicode="&#xb5;" horiz-adv-x="644" d="M96 -232V358H188V-60Q188 -80 188 -112T190 -175T196 -224L194 -232H96ZM344 -12Q292 -12 247 -2T168 35T115 108T96 224V372Q96 392 96 424T94 487T88 536L90 544H188V232Q188 166 207 131T264 82T355 68Q387 68
420 73T479 86L462 62Q458 76 457 97T456 140V372Q456 392 456 424T454 487T448 536L450 544H548V196Q548 176 548 144T550 81T556 32L554 24Q528 14 489 6T410 -7T344 -12Z" />
<glyph unicode="&#xb6;" horiz-adv-x="692" d="M296 248Q233 248 179 275T93 355T60 484Q60 560 92 612T179 692T296 720H596V-250H512V644H396V-250H312V248H296Z" />
<glyph unicode="&#xb7;" horiz-adv-x="280" d="M140 301Q113 301 95 318T76 365Q76 395 94 412T140 429Q167 429 185 412T204 365Q204 335 186 318T140 301Z" />
<glyph unicode="&#xb8;" horiz-adv-x="600" d="M576 24V-40Q630 -46 657 -72T684 -140Q684 -176 667 -200T618 -236T544 -248Q523 -248 509 -245T476 -236V-168H480Q498 -174 509 -177T544 -180Q574 -180 589 -171T604 -140Q604 -116 579 -104T512 -92V24H576Z" />
<glyph unicode="&#xb9;" horiz-adv-x="397" d="M48 549H165V766Q165 777 165 792T166 814H60V875Q74 879 107 881T178 883Q205 883 223 881T252 877V871Q249 856 249 828T249 782V549H352V480H48V549Z" />
<glyph unicode="&#xba;" horiz-adv-x="455" d="M38 520Q38 587 62 633T129 703T227 727Q283 727 325 703T392 633T416 520Q416 454 392 408T326 337T227 313Q170 313 128 337T62 407T38 520ZM124 520Q124 451 151 417T227 382Q277 382 303 416T330 520Q330 589
304 623T227 658Q178 658 151 624T124 520ZM59 266H395V192H59V266Z" />
<glyph unicode="&#xbb;" horiz-adv-x="564" d="M280 72V168L436 308L280 448V544H288L528 324V292L288 72H280ZM60 72V168L216 308L60 448V544H68L308 324V292L68 72H60Z" />
<glyph unicode="&#xbc;" horiz-adv-x="955" d="M48 389H165V606Q165 617 165 632T166 654H60V715Q74 719 107 721T178 723Q205 723 223 721T252 717V711Q249 696 249 668T249 622V389H352V320H48V389ZM201 0L665 720H753L289 0H201ZM796 0V97H589V157L626 265Q639
303 655 329T693 372T744 397T810 405Q830 405 849 403T881 397V392Q880 381 880 364T879 329T879 300V165H936V97H879V0H796ZM671 165H796V306Q796 314 796 322T798 338H791Q754 338 736 319T703 259L671 165Z" />
<glyph unicode="&#xbd;" horiz-adv-x="954" d="M48 389H165V606Q165 617 165 632T166 654H60V715Q74 719 107 721T178 723Q205 723 223 721T252 717V711Q249 696 249 668T249 622V389H352V320H48V389ZM201 0L665 720H753L289 0H201ZM608 0Q603 10 600 26T597 55Q597
104 624 139T719 194L748 203Q786 213 801 229T816 275Q816 305 792 323T719 342Q699 342 681 339T648 332T622 322H615V390Q634 398 664 403T728 408Q817 408 855 370T894 276Q894 222 865 191T776 142L748 135Q709 124 694 108T677 66H903V0H608Z" />
<glyph unicode="&#xbe;" horiz-adv-x="955" d="M163 312Q129 312 101 318T53 333V403H62Q78 393 103 386T162 378Q218 378 240 397T262 441Q262 467 241 484T174 501H125L109 531L220 653H57V720H315L323 715Q326 706 326 694Q326 681 321 668T303 643L216 555Q279
548 311 517T343 441Q343 384 296 348T163 312ZM201 0L665 720H753L289 0H201ZM796 0V97H589V157L626 265Q639 303 655 329T693 372T744 397T810 405Q830 405 849 403T881 397V392Q880 381 880 364T879 329T879 300V165H936V97H879V0H796ZM671 165H796V306Q796
314 796 322T798 338H791Q754 338 736 319T703 259L671 165Z" />
<glyph unicode="&#xbf;" horiz-adv-x="484" d="M332 356V284Q332 242 315 208T260 147L208 111Q186 96 165 72T144 0Q144 -54 180 -79T276 -104Q324 -104 363 -93T436 -64H444V-152Q408 -170 366 -179T272 -188Q167 -188 108 -142T48 4Q48 44 61 73T94 123T132
157T164 179L204 207Q226 223 233 246T240 288V356H332ZM284 552Q311 552 329 535T348 488Q348 458 330 441T284 424Q257 424 239 441T220 488Q220 518 238 535T284 552Z" />
<glyph unicode="&#xc0;" horiz-adv-x="662" d="M48 0L128 480Q138 540 157 586T210 664T295 712T422 728Q458 728 494 725T570 712L572 700Q569 680 568 650T566 590T566 540V0H470V592Q470 612 470 629T474 663L490 634Q477 640 459 642T418 644Q352 644 314
626T256 572T226 480L146 0H48ZM148 220V304H510V220H148ZM351 780L220 932V936H336L427 784V780H351Z" />
<glyph unicode="&#xc1;" horiz-adv-x="662" d="M48 0L128 480Q138 540 157 586T210 664T295 712T422 728Q458 728 494 725T570 712L572 700Q569 680 568 650T566 590T566 540V0H470V592Q470 612 470 629T474 663L490 634Q477 640 459 642T418 644Q352 644 314
626T256 572T226 480L146 0H48ZM148 220V304H510V220H148ZM362 780V784L453 936H569V932L438 780H362Z" />
<glyph unicode="&#xc2;" horiz-adv-x="662" d="M48 0L128 480Q138 540 157 586T210 664T295 712T422 728Q458 728 494 725T570 712L572 700Q569 680 568 650T566 590T566 540V0H470V592Q470 612 470 629T474 663L490 634Q477 640 459 642T418 644Q352 644 314
626T256 572T226 480L146 0H48ZM148 220V304H510V220H148ZM211 780V784L323 936H431L543 784V780H467L377 876L287 780H211Z" />
<glyph unicode="&#xc3;" horiz-adv-x="662" d="M48 0L128 480Q138 540 157 586T210 664T295 712T422 728Q458 728 494 725T570 712L572 700Q569 680 568 650T566 590T566 540V0H470V592Q470 612 470 629T474 663L490 634Q477 640 459 642T418 644Q352 644 314
626T256 572T226 480L146 0H48ZM148 220V304H510V220H148ZM207 808Q207 844 218 873T252 919T307 936Q337 936 358 924T395 896Q407 884 419 876T447 868Q471 868 479 888T487 936H547Q547 900 536 871T502 825T447 808Q417 808 396 820T359 848Q347 860 336 868T307
876Q283 876 275 856T267 808H207Z" />
<glyph unicode="&#xc4;" horiz-adv-x="662" d="M48 0L128 480Q138 540 157 586T210 664T295 712T422 728Q458 728 494 725T570 712L572 700Q569 680 568 650T566 590T566 540V0H470V592Q470 612 470 629T474 663L490 634Q477 640 459 642T418 644Q352 644 314
626T256 572T226 480L146 0H48ZM148 220V304H510V220H148ZM475 800Q450 800 433 816T415 860Q415 888 432 904T475 920Q501 920 518 904T535 860Q535 832 518 816T475 800ZM279 800Q254 800 237 816T219 860Q219 888 236 904T279 920Q305 920 322 904T339 860Q339
832 322 816T279 800Z" />
<glyph unicode="&#xc5;" horiz-adv-x="662" d="M48 0L128 480Q138 540 157 586T210 664T295 712T422 728Q458 728 494 725T570 712L572 700Q569 680 568 650T566 590T566 540V0H470V592Q470 612 470 629T474 663L490 634Q477 640 459 642T418 644Q352 644 314
626T256 572T226 480L146 0H48ZM148 220V304H510V220H148ZM377 780Q328 780 293 811T257 896Q257 950 292 981T377 1012Q427 1012 462 981T497 896Q497 842 462 811T377 780ZM377 832Q404 832 421 849T439 896Q439 926 422 943T377 960Q350 960 333 943T315 896Q315
866 332 849T377 832Z" />
<glyph unicode="&#xc6;" horiz-adv-x="990" d="M46 0L126 480Q136 540 155 586T208 664T293 712T420 728Q456 728 492 725T568 712L570 700Q567 680 566 650T564 590T564 540V0H468V592Q468 612 468 629T472 663L488 634Q475 640 457 642T416 644Q350 644 312
626T254 572T224 480L144 0H46ZM146 220V304H508V220H146ZM524 0V84H936V0H524ZM524 336V420H868V336H524ZM524 636V720H924V636H524Z" />
<glyph unicode="&#xc7;" horiz-adv-x="648" d="M56 360Q56 472 98 555T222 685T420 732Q471 732 510 724T580 700V608H572Q542 626 504 635T420 644Q340 644 281 613T189 519T156 360Q156 264 188 201T280 107T420 76Q465 76 503 85T572 112H580V20Q550 5 511
-3T420 -12Q304 -12 223 32T99 160T56 360ZM388 24V-40Q442 -46 469 -72T496 -140Q496 -176 479 -200T430 -236T356 -248Q335 -248 321 -245T288 -236V-168H292Q310 -174 321 -177T356 -180Q386 -180 401 -171T416 -140Q416 -116 391 -104T324 -92V24H388Z" />
<glyph unicode="&#xc8;" horiz-adv-x="616" d="M96 0V720H192V0H96ZM152 0V84H564V0H152ZM152 336V420H496V336H152ZM152 636V720H552V636H152ZM282 780L151 932V936H267L358 784V780H282Z" />
<glyph unicode="&#xc9;" horiz-adv-x="616" d="M96 0V720H192V0H96ZM152 0V84H564V0H152ZM152 336V420H496V336H152ZM152 636V720H552V636H152ZM293 780V784L384 936H500V932L369 780H293Z" />
<glyph unicode="&#xca;" horiz-adv-x="616" d="M96 0V720H192V0H96ZM152 0V84H564V0H152ZM152 336V420H496V336H152ZM152 636V720H552V636H152ZM142 780V784L254 936H362L474 784V780H398L308 876L218 780H142Z" />
<glyph unicode="&#xcb;" horiz-adv-x="616" d="M96 0V720H192V0H96ZM152 0V84H564V0H152ZM152 336V420H496V336H152ZM152 636V720H552V636H152ZM406 800Q381 800 364 816T346 860Q346 888 363 904T406 920Q432 920 449 904T466 860Q466 832 449 816T406 800ZM210
800Q185 800 168 816T150 860Q150 888 167 904T210 920Q236 920 253 904T270 860Q270 832 253 816T210 800Z" />
<glyph unicode="&#xcc;" horiz-adv-x="288" d="M96 720H192V0H96V720ZM118 780L-13 932V936H103L194 784V780H118Z" />
<glyph unicode="&#xcd;" horiz-adv-x="288" d="M96 720H192V0H96V720ZM129 780V784L220 936H336V932L205 780H129Z" />
<glyph unicode="&#xce;" horiz-adv-x="288" d="M96 720H192V0H96V720ZM-22 780V784L90 936H198L310 784V780H234L144 876L54 780H-22Z" />
<glyph unicode="&#xcf;" horiz-adv-x="288" d="M96 720H192V0H96V720ZM242 800Q217 800 200 816T182 860Q182 888 199 904T242 920Q268 920 285 904T302 860Q302 832 285 816T242 800ZM46 800Q21 800 4 816T-14 860Q-14 888 3 904T46 920Q72 920 89 904T106 860Q106
832 89 816T46 800Z" />
<glyph unicode="&#xd0;" horiz-adv-x="720" d="M12 332V412H308V332H12ZM152 0V84H312Q386 84 434 112T511 188T552 290T564 400Q564 517 507 576T336 636H152V720H336Q495 720 579 640T664 400Q664 325 646 254T586 125T477 34T312 0H152ZM96 0V720H192V0H96Z" />
<glyph unicode="&#xd1;" horiz-adv-x="736" d="M96 0V720H176L590 283V148L166 595L192 606V0H96ZM544 0V720H640V0H544ZM198 808Q198 844 209 873T243 919T298 936Q328 936 349 924T386 896Q398 884 410 876T438 868Q462 868 470 888T478 936H538Q538 900 527
871T493 825T438 808Q408 808 387 820T350 848Q338 860 327 868T298 876Q274 876 266 856T258 808H198Z" />
<glyph unicode="&#xd2;" horiz-adv-x="784" d="M56 360Q56 470 96 554T212 685T392 732Q496 732 571 685T687 554T728 360Q728 250 688 166T572 35T392 -12Q287 -12 212 35T97 166T56 360ZM156 360Q156 268 185 205T267 109T392 76Q464 76 517 108T599 204T628
360Q628 452 599 515T517 611T392 644Q320 644 267 612T185 516T156 360ZM366 780L235 932V936H351L442 784V780H366Z" />
<glyph unicode="&#xd3;" horiz-adv-x="784" d="M56 360Q56 470 96 554T212 685T392 732Q496 732 571 685T687 554T728 360Q728 250 688 166T572 35T392 -12Q287 -12 212 35T97 166T56 360ZM156 360Q156 268 185 205T267 109T392 76Q464 76 517 108T599 204T628
360Q628 452 599 515T517 611T392 644Q320 644 267 612T185 516T156 360ZM377 780V784L468 936H584V932L453 780H377Z" />
<glyph unicode="&#xd4;" horiz-adv-x="784" d="M56 360Q56 470 96 554T212 685T392 732Q496 732 571 685T687 554T728 360Q728 250 688 166T572 35T392 -12Q287 -12 212 35T97 166T56 360ZM156 360Q156 268 185 205T267 109T392 76Q464 76 517 108T599 204T628
360Q628 452 599 515T517 611T392 644Q320 644 267 612T185 516T156 360ZM226 780V784L338 936H446L558 784V780H482L392 876L302 780H226Z" />
<glyph unicode="&#xd5;" horiz-adv-x="784" d="M56 360Q56 470 96 554T212 685T392 732Q496 732 571 685T687 554T728 360Q728 250 688 166T572 35T392 -12Q287 -12 212 35T97 166T56 360ZM156 360Q156 268 185 205T267 109T392 76Q464 76 517 108T599 204T628
360Q628 452 599 515T517 611T392 644Q320 644 267 612T185 516T156 360ZM222 808Q222 844 233 873T267 919T322 936Q352 936 373 924T410 896Q422 884 434 876T462 868Q486 868 494 888T502 936H562Q562 900 551 871T517 825T462 808Q432 808 411 820T374 848Q362
860 351 868T322 876Q298 876 290 856T282 808H222Z" />
<glyph unicode="&#xd6;" horiz-adv-x="784" d="M56 360Q56 470 96 554T212 685T392 732Q496 732 571 685T687 554T728 360Q728 250 688 166T572 35T392 -12Q287 -12 212 35T97 166T56 360ZM156 360Q156 268 185 205T267 109T392 76Q464 76 517 108T599 204T628
360Q628 452 599 515T517 611T392 644Q320 644 267 612T185 516T156 360ZM490 800Q465 800 448 816T430 860Q430 888 447 904T490 920Q516 920 533 904T550 860Q550 832 533 816T490 800ZM294 800Q269 800 252 816T234 860Q234 888 251 904T294 920Q320 920 337
904T354 860Q354 832 337 816T294 800Z" />
<glyph unicode="&#xd7;" horiz-adv-x="616" d="M461 107L99 469L155 525L517 163L461 107ZM155 107L99 163L461 525L517 469L155 107Z" />
<glyph unicode="&#xd8;" horiz-adv-x="784" d="M154 -72L546 792H630L238 -72H154ZM56 360Q56 470 96 554T212 685T392 732Q496 732 571 685T687 554T728 360Q728 250 688 166T572 35T392 -12Q287 -12 212 35T97 166T56 360ZM156 360Q156 268 185 205T267 109T392
76Q464 76 517 108T599 204T628 360Q628 452 599 515T517 611T392 644Q320 644 267 612T185 516T156 360Z" />
<glyph unicode="&#xd9;" horiz-adv-x="704" d="M88 720H184V268Q184 163 226 120T352 76Q436 76 478 119T520 268V720H616V268Q616 130 549 59T352 -12Q220 -12 154 59T88 268V720ZM326 780L195 932V936H311L402 784V780H326Z" />
<glyph unicode="&#xda;" horiz-adv-x="704" d="M88 720H184V268Q184 163 226 120T352 76Q436 76 478 119T520 268V720H616V268Q616 130 549 59T352 -12Q220 -12 154 59T88 268V720ZM337 780V784L428 936H544V932L413 780H337Z" />
<glyph unicode="&#xdb;" horiz-adv-x="704" d="M88 720H184V268Q184 163 226 120T352 76Q436 76 478 119T520 268V720H616V268Q616 130 549 59T352 -12Q220 -12 154 59T88 268V720ZM186 780V784L298 936H406L518 784V780H442L352 876L262 780H186Z" />
<glyph unicode="&#xdc;" horiz-adv-x="704" d="M88 720H184V268Q184 163 226 120T352 76Q436 76 478 119T520 268V720H616V268Q616 130 549 59T352 -12Q220 -12 154 59T88 268V720ZM450 800Q425 800 408 816T390 860Q390 888 407 904T450 920Q476 920 493 904T510
860Q510 832 493 816T450 800ZM254 800Q229 800 212 816T194 860Q194 888 211 904T254 920Q280 920 297 904T314 860Q314 832 297 816T254 800Z" />
<glyph unicode="&#xdd;" horiz-adv-x="612" d="M260 0V300L8 712V720H116L328 362H290L500 720H604V712L356 306V0H260ZM291 780V784L382 936H498V932L367 780H291Z" />
<glyph unicode="&#xde;" horiz-adv-x="600" d="M132 124V208H276Q336 208 374 233T430 301T448 396Q448 465 412 492T316 520H132V604H320Q422 604 485 553T548 396Q548 347 533 299T484 211T400 148T276 124H132ZM88 0V720H184V0H88Z" />
<glyph unicode="&#xdf;" horiz-adv-x="584" d="M376 -8Q340 -8 321 -6T276 4V84H284Q299 78 320 73T372 68Q414 68 439 87T464 148Q464 183 446 204T404 244L388 256Q360 277 336 305T312 384Q312 422 324 447T352 492T380 536T392 592Q392 631 370 655T300 680Q246
680 219 651T192 564V0H100V544Q100 616 122 664T189 736T304 760Q364 760 403 738T461 678T480 596Q480 553 468 526T440 480T412 441T400 388Q400 362 415 344T452 308L468 296Q499 273 525 240T552 148Q552 100 530 65T468 11T376 -8ZM16 466V544H120V466H16Z"
/>
<glyph unicode="&#xe0;" horiz-adv-x="590" d="M286 -12Q169 -12 111 30T52 160Q52 218 80 256T161 313T286 332Q342 332 379 323T444 304V232Q417 241 377 248T302 256Q221 256 182 235T142 160Q142 109 180 87T290 64Q330 64 367 70T436 88L418 61Q416 69 415
79T412 100T411 123T410 148V328Q410 392 393 423T341 465T254 476Q215 476 175 466T110 444H102V526Q138 541 182 548T266 556Q316 556 358 547T433 515T484 447T502 332V200Q502 180 502 148T504 85T510 36L508 28Q475 16 435 7T356 -7T286 -12ZM322 604L191
756V760H307L398 608V604H322Z" />
<glyph unicode="&#xe1;" horiz-adv-x="590" d="M286 -12Q169 -12 111 30T52 160Q52 218 80 256T161 313T286 332Q342 332 379 323T444 304V232Q417 241 377 248T302 256Q221 256 182 235T142 160Q142 109 180 87T290 64Q330 64 367 70T436 88L418 61Q416 69 415
79T412 100T411 123T410 148V328Q410 392 393 423T341 465T254 476Q215 476 175 466T110 444H102V526Q138 541 182 548T266 556Q316 556 358 547T433 515T484 447T502 332V200Q502 180 502 148T504 85T510 36L508 28Q475 16 435 7T356 -7T286 -12ZM487 604V608L578
760H694V756L563 604H487Z" />
<glyph unicode="&#xe2;" horiz-adv-x="590" d="M286 -12Q169 -12 111 30T52 160Q52 218 80 256T161 313T286 332Q342 332 379 323T444 304V232Q417 241 377 248T302 256Q221 256 182 235T142 160Q142 109 180 87T290 64Q330 64 367 70T436 88L418 61Q416 69 415
79T412 100T411 123T410 148V328Q410 392 393 423T341 465T254 476Q215 476 175 466T110 444H102V526Q138 541 182 548T266 556Q316 556 358 547T433 515T484 447T502 332V200Q502 180 502 148T504 85T510 36L508 28Q475 16 435 7T356 -7T286 -12ZM385 604V608L497
760H605L717 608V604H641L551 700L461 604H385Z" />
<glyph unicode="&#xe3;" horiz-adv-x="590" d="M286 -12Q169 -12 111 30T52 160Q52 218 80 256T161 313T286 332Q342 332 379 323T444 304V232Q417 241 377 248T302 256Q221 256 182 235T142 160Q142 109 180 87T290 64Q330 64 367 70T436 88L418 61Q416 69 415
79T412 100T411 123T410 148V328Q410 392 393 423T341 465T254 476Q215 476 175 466T110 444H102V526Q138 541 182 548T266 556Q316 556 358 547T433 515T484 447T502 332V200Q502 180 502 148T504 85T510 36L508 28Q475 16 435 7T356 -7T286 -12ZM381 632Q381
668 392 697T426 743T481 760Q511 760 532 748T569 720Q581 708 593 700T621 692Q645 692 653 712T661 760H721Q721 724 710 695T676 649T621 632Q591 632 570 644T533 672Q521 684 510 692T481 700Q457 700 449 680T441 632H381Z" />
<glyph unicode="&#xe4;" horiz-adv-x="590" d="M286 -12Q169 -12 111 30T52 160Q52 218 80 256T161 313T286 332Q342 332 379 323T444 304V232Q417 241 377 248T302 256Q221 256 182 235T142 160Q142 109 180 87T290 64Q330 64 367 70T436 88L418 61Q416 69 415
79T412 100T411 123T410 148V328Q410 392 393 423T341 465T254 476Q215 476 175 466T110 444H102V526Q138 541 182 548T266 556Q316 556 358 547T433 515T484 447T502 332V200Q502 180 502 148T504 85T510 36L508 28Q475 16 435 7T356 -7T286 -12ZM649 624Q624
624 607 640T589 684Q589 712 606 728T649 744Q675 744 692 728T709 684Q709 656 692 640T649 624ZM453 624Q428 624 411 640T393 684Q393 712 410 728T453 744Q479 744 496 728T513 684Q513 656 496 640T453 624Z" />
<glyph unicode="&#xe5;" horiz-adv-x="590" d="M286 -12Q169 -12 111 30T52 160Q52 218 80 256T161 313T286 332Q342 332 379 323T444 304V232Q417 241 377 248T302 256Q221 256 182 235T142 160Q142 109 180 87T290 64Q330 64 367 70T436 88L418 61Q416 69 415
79T412 100T411 123T410 148V328Q410 392 393 423T341 465T254 476Q215 476 175 466T110 444H102V526Q138 541 182 548T266 556Q316 556 358 547T433 515T484 447T502 332V200Q502 180 502 148T504 85T510 36L508 28Q475 16 435 7T356 -7T286 -12ZM551 604Q502
604 467 635T431 720Q431 774 466 805T551 836Q601 836 636 805T671 720Q671 666 636 635T551 604ZM551 656Q578 656 595 673T613 720Q613 750 596 767T551 784Q524 784 507 767T489 720Q489 690 506 673T551 656Z" />
<glyph unicode="&#xe6;" horiz-adv-x="953" d="M708 -8Q606 -8 540 24T441 120T408 274Q408 359 439 422T527 521T660 556Q748 556 802 520T879 419T900 268L899 240H472V316H804V324Q804 399 768 437T660 476Q618 476 582 458T524 397T502 280V274Q502 197 529
153T603 91T712 72Q763 72 799 82T856 104H864V22Q840 10 801 1T708 -8ZM282 -12Q168 -12 110 30T52 160Q52 218 80 256T161 313T286 332Q328 332 362 325T414 312H458V240H414Q393 246 364 251T302 256Q221 256 182 235T142 160Q142 109 179 88T282 66Q348 66
394 83T474 128H482L518 62Q476 32 417 10T282 -12ZM410 248V328Q410 392 393 423T341 465T254 476Q215 476 175 466T110 444H102V526Q138 541 182 548T266 556Q316 556 358 547T433 515T484 447T502 332V248H410Z" />
<glyph unicode="&#xe7;" horiz-adv-x="504" d="M52 274Q52 363 87 426T188 522T344 556Q418 556 468 534V452H460Q439 463 410 469T344 476Q254 476 200 426T146 274Q146 174 200 123T344 72Q380 72 409 79T460 96H468V14Q418 -8 344 -8Q252 -8 187 25T87 122T52
274ZM554 24V-40Q608 -46 635 -72T662 -140Q662 -176 645 -200T596 -236T522 -248Q501 -248 487 -245T454 -236V-168H458Q476 -174 487 -177T522 -180Q552 -180 567 -171T582 -140Q582 -116 557 -104T490 -92V24H554Z" />
<glyph unicode="&#xe8;" horiz-adv-x="597" d="M352 -8Q276 -8 220 10T126 65T70 153T52 274Q52 359 83 422T171 521T304 556Q392 556 446 520T523 419T544 268L543 240H116V316H448V324Q448 399 412 437T304 476Q262 476 226 458T168 397T146 280V274Q146 197
173 153T247 91T356 72Q407 72 443 82T500 104H508V22Q484 10 445 1T352 -8ZM326 604L195 756V760H311L402 608V604H326Z" />
<glyph unicode="&#xe9;" horiz-adv-x="597" d="M352 -8Q276 -8 220 10T126 65T70 153T52 274Q52 359 83 422T171 521T304 556Q392 556 446 520T523 419T544 268L543 240H116V316H448V324Q448 399 412 437T304 476Q262 476 226 458T168 397T146 280V274Q146 197
173 153T247 91T356 72Q407 72 443 82T500 104H508V22Q484 10 445 1T352 -8ZM491 604V608L582 760H698V756L567 604H491Z" />
<glyph unicode="&#xea;" horiz-adv-x="597" d="M352 -8Q276 -8 220 10T126 65T70 153T52 274Q52 359 83 422T171 521T304 556Q392 556 446 520T523 419T544 268L543 240H116V316H448V324Q448 399 412 437T304 476Q262 476 226 458T168 397T146 280V274Q146 197
173 153T247 91T356 72Q407 72 443 82T500 104H508V22Q484 10 445 1T352 -8ZM389 604V608L501 760H609L721 608V604H645L555 700L465 604H389Z" />
<glyph unicode="&#xeb;" horiz-adv-x="597" d="M352 -8Q276 -8 220 10T126 65T70 153T52 274Q52 359 83 422T171 521T304 556Q392 556 446 520T523 419T544 268L543 240H116V316H448V324Q448 399 412 437T304 476Q262 476 226 458T168 397T146 280V274Q146 197
173 153T247 91T356 72Q407 72 443 82T500 104H508V22Q484 10 445 1T352 -8ZM653 624Q628 624 611 640T593 684Q593 712 610 728T653 744Q679 744 696 728T713 684Q713 656 696 640T653 624ZM457 624Q432 624 415 640T397 684Q397 712 414 728T457 744Q483 744
500 728T517 684Q517 656 500 640T457 624Z" />
<glyph unicode="&#xec;" horiz-adv-x="284" d="M96 0V372Q96 392 96 424T94 487T88 536L90 544H188V0H96ZM425 604L294 756V760H410L501 608V604H425Z" />
<glyph unicode="&#xed;" horiz-adv-x="284" d="M96 0V372Q96 392 96 424T94 487T88 536L90 544H188V0H96ZM78 604V608L169 760H285V756L154 604H78Z" />
<glyph unicode="&#xee;" horiz-adv-x="284" d="M96 0V372Q96 392 96 424T94 487T88 536L90 544H188V0H96ZM-24 604V608L88 760H196L308 608V604H232L142 700L52 604H-24Z" />
<glyph unicode="&#xef;" horiz-adv-x="284" d="M96 0V372Q96 392 96 424T94 487T88 536L90 544H188V0H96ZM240 624Q215 624 198 640T180 684Q180 712 197 728T240 744Q266 744 283 728T300 684Q300 656 283 640T240 624ZM44 624Q19 624 2 640T-16 684Q-16 712
1 728T44 744Q70 744 87 728T104 684Q104 656 87 640T44 624Z" />
<glyph unicode="&#xf0;" horiz-adv-x="612" d="M472 295Q448 331 404 359T300 388Q219 388 180 346T140 232Q140 188 155 151T204 91T292 68Q356 68 392 100T444 195T460 352Q460 439 442 496T391 587T317 634T228 648Q186 648 158 641T108 624H100V712Q124 721
155 726T228 732Q322 732 396 691T513 565T556 348Q556 267 541 201T493 87T410 14T288 -12Q208 -12 155 20T75 107T48 228Q48 308 79 361T164 441T284 468Q360 468 404 445T469 393L472 295ZM292 536L248 580L448 780L492 736L292 536Z" />
<glyph unicode="&#xf1;" horiz-adv-x="640" d="M96 0V344Q96 364 96 396T94 459T88 508L90 516Q116 526 156 535T237 550T308 556Q358 556 401 546T477 509T529 437T548 320V0H456V312Q456 378 437 413T382 462T296 476Q264 476 228 469T164 452L180 480Q184 465
186 443T188 396V0H96ZM150 632Q150 668 161 697T195 743T250 760Q280 760 301 748T338 720Q350 708 362 700T390 692Q414 692 422 712T430 760H490Q490 724 479 695T445 649T390 632Q360 632 339 644T302 672Q290 684 279 692T250 700Q226 700 218 680T210 632H150Z"
/>
<glyph unicode="&#xf2;" horiz-adv-x="604" d="M52 274Q52 363 83 426T171 522T302 556Q376 556 432 523T520 426T552 274Q552 185 521 122T433 26T302 -8Q226 -8 170 25T83 122T52 274ZM146 274Q146 174 186 123T302 72Q377 72 417 123T458 274Q458 375 418 425T302
476Q227 476 187 426T146 274ZM312 604L181 756V760H297L388 608V604H312Z" />
<glyph unicode="&#xf3;" horiz-adv-x="604" d="M52 274Q52 363 83 426T171 522T302 556Q376 556 432 523T520 426T552 274Q552 185 521 122T433 26T302 -8Q226 -8 170 25T83 122T52 274ZM146 274Q146 174 186 123T302 72Q377 72 417 123T458 274Q458 375 418 425T302
476Q227 476 187 426T146 274ZM494 604V608L585 760H701V756L570 604H494Z" />
<glyph unicode="&#xf4;" horiz-adv-x="604" d="M52 274Q52 363 83 426T171 522T302 556Q376 556 432 523T520 426T552 274Q552 185 521 122T433 26T302 -8Q226 -8 170 25T83 122T52 274ZM146 274Q146 174 186 123T302 72Q377 72 417 123T458 274Q458 375 418 425T302
476Q227 476 187 426T146 274ZM392 604V608L504 760H612L724 608V604H648L558 700L468 604H392Z" />
<glyph unicode="&#xf5;" horiz-adv-x="604" d="M52 274Q52 363 83 426T171 522T302 556Q376 556 432 523T520 426T552 274Q552 185 521 122T433 26T302 -8Q226 -8 170 25T83 122T52 274ZM146 274Q146 174 186 123T302 72Q377 72 417 123T458 274Q458 375 418 425T302
476Q227 476 187 426T146 274ZM388 632Q388 668 399 697T433 743T488 760Q518 760 539 748T576 720Q588 708 600 700T628 692Q652 692 660 712T668 760H728Q728 724 717 695T683 649T628 632Q598 632 577 644T540 672Q528 684 517 692T488 700Q464 700 456 680T448
632H388Z" />
<glyph unicode="&#xf6;" horiz-adv-x="604" d="M52 274Q52 363 83 426T171 522T302 556Q376 556 432 523T520 426T552 274Q552 185 521 122T433 26T302 -8Q226 -8 170 25T83 122T52 274ZM146 274Q146 174 186 123T302 72Q377 72 417 123T458 274Q458 375 418 425T302
476Q227 476 187 426T146 274ZM656 624Q631 624 614 640T596 684Q596 712 613 728T656 744Q682 744 699 728T716 684Q716 656 699 640T656 624ZM460 624Q435 624 418 640T400 684Q400 712 417 728T460 744Q486 744 503 728T520 684Q520 656 503 640T460 624Z" />
<glyph unicode="&#xf7;" horiz-adv-x="616" d="M308 420Q283 420 266 436T248 480Q248 508 265 524T308 540Q334 540 351 524T368 480Q368 452 351 436T308 420ZM248 152Q248 180 265 196T308 212Q334 212 351 196T368 152Q368 124 351 108T308 92Q283 92 266
108T248 152ZM64 356H552V276H64V356Z" />
<glyph unicode="&#xf8;" horiz-adv-x="604" d="M88 -88L445 636H517L160 -88H88ZM52 274Q52 363 83 426T171 522T302 556Q376 556 432 523T520 426T552 274Q552 185 521 122T433 26T302 -8Q226 -8 170 25T83 122T52 274ZM146 274Q146 174 186 123T302 72Q377 72
417 123T458 274Q458 375 418 425T302 476Q227 476 187 426T146 274Z" />
<glyph unicode="&#xf9;" horiz-adv-x="632" d="M332 -12Q280 -12 235 -2T156 35T103 108T84 224V372Q84 392 84 424T82 487T76 536L78 544H176V232Q176 166 195 131T252 82T343 68Q375 68 408 73T467 86L450 62Q446 76 445 97T444 140V372Q444 392 444 424T442
487T436 536L438 544H536V196Q536 176 536 144T538 81T544 32L542 24Q516 14 477 6T398 -7T332 -12ZM343 604L212 756V760H328L419 608V604H343Z" />
<glyph unicode="&#xfa;" horiz-adv-x="632" d="M332 -12Q280 -12 235 -2T156 35T103 108T84 224V372Q84 392 84 424T82 487T76 536L78 544H176V232Q176 166 195 131T252 82T343 68Q375 68 408 73T467 86L450 62Q446 76 445 97T444 140V372Q444 392 444 424T442
487T436 536L438 544H536V196Q536 176 536 144T538 81T544 32L542 24Q516 14 477 6T398 -7T332 -12ZM508 604V608L599 760H715V756L584 604H508Z" />
<glyph unicode="&#xfb;" horiz-adv-x="632" d="M332 -12Q280 -12 235 -2T156 35T103 108T84 224V372Q84 392 84 424T82 487T76 536L78 544H176V232Q176 166 195 131T252 82T343 68Q375 68 408 73T467 86L450 62Q446 76 445 97T444 140V372Q444 392 444 424T442
487T436 536L438 544H536V196Q536 176 536 144T538 81T544 32L542 24Q516 14 477 6T398 -7T332 -12ZM150 604V608L262 760H370L482 608V604H406L316 700L226 604H150Z" />
<glyph unicode="&#xfc;" horiz-adv-x="632" d="M332 -12Q280 -12 235 -2T156 35T103 108T84 224V372Q84 392 84 424T82 487T76 536L78 544H176V232Q176 166 195 131T252 82T343 68Q375 68 408 73T467 86L450 62Q446 76 445 97T444 140V372Q444 392 444 424T442
487T436 536L438 544H536V196Q536 176 536 144T538 81T544 32L542 24Q516 14 477 6T398 -7T332 -12ZM414 624Q389 624 372 640T354 684Q354 712 371 728T414 744Q440 744 457 728T474 684Q474 656 457 640T414 624ZM218 624Q193 624 176 640T158 684Q158 712 175
728T218 744Q244 744 261 728T278 684Q278 656 261 640T218 624Z" />
<glyph unicode="&#xfd;" horiz-adv-x="536" d="M132 -232V-220L256 84L432 544H524V532L220 -232H132ZM232 -20L12 532V544H108L285 82L232 -20ZM460 604V608L551 760H667V756L536 604H460Z" />
<glyph unicode="&#xfe;" horiz-adv-x="618" d="M280 -12Q250 -12 220 -6T172 6H120V86H176Q188 80 213 74T280 68Q376 68 424 121T472 274Q472 375 423 425T284 476Q239 476 200 466T136 444H128L173 534Q196 544 226 550T292 556Q355 556 405 537T492 482T547
393T566 274Q566 207 546 154T489 64T399 8T280 -12ZM96 -250V588Q96 608 96 640T94 703T88 752L90 760H188V-250H96Z" />
<glyph unicode="&#xff;" horiz-adv-x="536" d="M132 -232V-220L256 84L432 544H524V532L220 -232H132ZM232 -20L12 532V544H108L285 82L232 -20ZM622 624Q597 624 580 640T562 684Q562 712 579 728T622 744Q648 744 665 728T682 684Q682 656 665 640T622 624ZM426
624Q401 624 384 640T366 684Q366 712 383 728T426 744Q452 744 469 728T486 684Q486 656 469 640T426 624Z" />
<glyph unicode="&#x2013;" horiz-adv-x="500" d="M16 372H484V292H16V372Z" />
<glyph unicode="&#x2014;" horiz-adv-x="1000" d="M16 372H984V292H16V372Z" />
<glyph unicode="&#x2018;" horiz-adv-x="280" d="M140 444Q113 444 95 460T76 512Q76 536 83 555T96 588L156 720H232V712L162 576Q176 570 190 555T204 512Q204 479 186 462T140 444Z" />
<glyph unicode="&#x2019;" horiz-adv-x="280" d="M118 596Q105 602 91 617T76 660Q76 693 94 710T140 728Q167 728 185 712T204 660Q204 636 197 617T184 584L124 452H48V460L118 596Z" />
<glyph unicode="&#x201a;" horiz-adv-x="280" d="M118 -12Q105 -6 91 9T76 52Q76 85 94 102T140 120Q167 120 185 104T204 52Q204 28 197 9T184 -24L124 -156H48V-148L118 -12Z" />
<glyph unicode="&#x201c;" horiz-adv-x="484" d="M344 444Q317 444 299 460T280 512Q280 536 287 555T300 588L360 720H436V712L366 576Q380 570 394 555T408 512Q408 479 390 462T344 444ZM140 444Q113 444 95 460T76 512Q76 536 83 555T96 588L156 720H232V712L162
576Q176 570 190 555T204 512Q204 479 186 462T140 444Z" />
<glyph unicode="&#x201d;" horiz-adv-x="484" d="M118 596Q105 602 91 617T76 660Q76 693 94 710T140 728Q167 728 185 712T204 660Q204 636 197 617T184 584L124 452H48V460L118 596ZM322 596Q309 602 295 617T280 660Q280 693 298 710T344 728Q371 728 389 712T408
660Q408 636 401 617T388 584L328 452H252V460L322 596Z" />
<glyph unicode="&#x201e;" horiz-adv-x="484" d="M118 -12Q105 -6 91 9T76 52Q76 85 94 102T140 120Q167 120 185 104T204 52Q204 28 197 9T184 -24L124 -156H48V-148L118 -12ZM322 -12Q309 -6 295 9T280 52Q280 85 298 102T344 120Q371 120 389 104T408 52Q408
28 401 9T388 -24L328 -156H252V-148L322 -12Z" />
<glyph unicode="&#x2022;" horiz-adv-x="480" d="M240 200Q196 200 159 220T99 277T76 364Q76 414 98 451T158 508T240 528Q284 528 321 508T381 451T404 364Q404 314 382 277T322 220T240 200Z" />
<glyph unicode="&#x2039;" horiz-adv-x="344" d="M276 72L36 292V324L276 544H284V448L128 308L284 168V72H276Z" />
<glyph unicode="&#x203a;" horiz-adv-x="344" d="M60 168L216 308L60 448V544H68L308 324V292L68 72H60V168Z" />
</font>
</defs>
</svg>
