<?xml version="1.0" standalone="no"?>
<!DOCTYPE svg PUBLIC "-//W3C//DTD SVG 1.1//EN" "http://www.w3.org/Graphics/SVG/1.1/DTD/svg11.dtd">
<svg xmlns="http://www.w3.org/2000/svg">
<defs >
<font id="Glory" horiz-adv-x="462" ><font-face
    font-family="Glory Thin"
    units-per-em="1000"
    panose-1="0 0 0 0 0 0 0 0 0 0"
    ascent="900"
    descent="-220"
    alphabetic="0" />
<glyph unicode=" " horiz-adv-x="242" />
<glyph unicode="!" horiz-adv-x="234" d="M94 226Q90 226 89 227T88 234L79 665Q79 669 80 671T86 673H150Q157 673 157 666L148 234Q147 229 146 228T139 226H94ZM155 26Q155 9 148 0T115 -9Q94 -9 85 0T75 26Q75 43 84 51T115 60Q140 60 147 52T155 26Z" />
<glyph unicode="&quot;" horiz-adv-x="352" d="M77 462Q74 462 72 464T70 472L67 696Q66 703 68 705T76 707H120Q127 707 128 705T129 698L125 470Q124 465 123 464T116 462H77ZM232 462Q229 462 228 464T226 472L222 696Q221 703 223 705T231 707H275Q282 707
283 705T285 698L281 470Q281 465 279 464T272 462H232Z" />
<glyph unicode="#" horiz-adv-x="710" d="M198 224H50Q44 224 42 226T40 234L44 268Q44 273 46 275T54 277H201L211 428H67Q63 428 61 429T58 436L62 471Q63 476 65 478T72 480H214L229 698Q230 703 232 705T239 707H279Q284 707 285 705T285 697L270 480L437
479L452 698Q453 703 455 705T462 707H502Q507 707 508 705T508 697L493 479H658Q666 480 668 478T669 471L666 435Q666 431 663 430T657 428H490L480 277H639Q647 277 649 275T652 268L648 232Q648 228 645 226T639 224H477L463 8Q463 5 462 3T455 0H415Q411 0
409 2T407 12L421 224H254L240 8Q240 5 239 3T232 0H192Q188 0 186 2T184 12L198 224ZM257 277H424L434 428H267L257 277Z" />
<glyph unicode="$" horiz-adv-x="472" d="M162 36Q145 39 121 46T79 62Q69 68 64 72T58 85Q58 99 58 112T58 140Q58 144 61 144T69 143T79 137Q110 117 142 107T204 97Q251 97 286 122T321 197Q321 228 306 249T265 286T205 317Q170 334 137 353T82 405T60 487Q60
536 82 569T140 618T221 635Q229 635 236 635T250 635L270 737Q270 741 271 743T279 745H319Q325 745 326 743T326 736L305 625Q332 619 357 607T406 577Q411 574 413 572T412 565Q408 556 402 542T389 521Q386 518 383 519T373 525Q360 533 337 544T286 563T232
572Q189 572 159 551T129 484Q129 456 145 437T187 403T244 373Q280 356 313 335T369 282T391 199Q391 150 367 113T304 54T217 31L193 -127Q192 -132 190 -133T183 -134H142Q139 -134 138 -132T137 -122L162 36Z" />
<glyph unicode="%" horiz-adv-x="789" d="M165 0Q161 0 160 2T161 8L553 701Q555 705 557 706T562 707H615Q619 707 620 705T615 694L230 8Q228 4 226 2T218 0H165ZM209 420Q132 420 100 460T67 565Q67 628 99 668T209 709Q286 709 319 669T353 565Q353 501 320
461T209 420ZM209 467Q257 467 278 493T299 565Q299 612 278 637T209 662Q162 662 141 638T119 565Q119 519 140 493T209 467ZM579 0Q502 0 470 40T437 144Q437 208 469 248T579 289Q656 289 689 249T723 144Q723 81 690 41T579 0ZM579 47Q627 47 648 72T669 144Q669
191 648 216T579 242Q533 242 511 217T489 144Q489 98 511 73T579 47Z" />
<glyph unicode="&amp;" horiz-adv-x="689" d="M270 -7Q207 -7 162 10T89 57T47 122T33 194Q33 236 48 272T90 335T154 373Q134 383 119 399T93 436T79 476T74 511Q74 537 84 565T117 619T180 660T276 676Q327 676 377 652T464 570Q469 562 468 558T463 551L428
524Q420 519 413 529Q390 565 354 589T272 614Q236 614 208 601T162 564T144 504Q144 483 154 461T184 424T230 405Q233 404 244 404T266 403T280 403Q289 403 292 402T296 396V347Q296 341 294 340T287 339H231Q195 339 168 320T127 269T112 202Q112 167 128 134T181
80T277 58Q329 58 371 86T445 158T495 251L410 298Q407 299 406 301T409 309L433 350Q436 356 439 357T445 356L634 255Q639 253 639 250T636 243L613 201Q610 196 608 195T600 196L550 223Q534 180 509 139T449 65T370 13T270 -7Z" />
<glyph unicode="&apos;" horiz-adv-x="170" d="M64 462Q61 462 59 464T57 472L53 696Q53 703 55 705T63 707H107Q114 707 115 705T116 698L112 470Q111 465 110 464T103 462H64Z" />
<glyph unicode="(" horiz-adv-x="369" d="M303 -76Q303 -81 301 -82T287 -83Q215 -82 162 -31T79 111T50 321Q50 368 59 420T87 522T134 612T200 677T287 701Q298 701 300 700T303 694V656Q303 652 300 652T289 651Q253 651 225 630T176 574T142 495T123 407T116
322Q116 262 123 209T145 112T181 36T229 -13T290 -32Q299 -32 301 -34T303 -40V-76Z" />
<glyph unicode=")" horiz-adv-x="369" d="M67 -76V-40Q67 -36 69 -34T79 -32Q112 -31 139 -14T188 36T223 112T245 209T253 322Q253 361 247 406T228 495T194 573T145 630T80 651Q73 651 70 651T67 656V694Q67 698 69 699T82 701Q131 701 169 677T235 613T282
522T310 420T319 321Q319 202 290 111T208 -31T82 -83Q72 -83 70 -82T67 -76Z" />
<glyph unicode="*" horiz-adv-x="546" d="M273 433L164 283Q161 279 158 278T151 279L119 305Q115 309 114 312T118 319L229 464L55 520Q45 523 47 530L61 570Q63 575 65 576T73 576L246 514L243 697Q243 703 244 705T251 707H293Q298 707 300 705T302 697L299
514L472 575Q478 578 480 577T484 570L497 530Q500 522 489 519L315 464L427 319Q431 315 431 312T426 305L393 279Q390 276 387 277T380 283L273 433Z" />
<glyph unicode="+" horiz-adv-x="475" d="M216 113Q211 113 210 114T208 120V277H57Q52 277 51 279T50 284V324Q50 328 51 329T57 331H208V488Q208 492 209 493T215 495H257Q260 495 261 494T263 488V331L418 330Q422 330 423 329T425 323V283Q425 280 424 279T418
277H263V119Q263 115 261 114T256 113H216Z" />
<glyph unicode="," horiz-adv-x="205" d="M145 24Q145 9 138 -14T121 -61T101 -99Q99 -103 95 -104Q90 -104 81 -104T65 -104Q63 -103 63 -101T66 -94Q70 -85 75 -70T87 -38T95 -9Q79 -8 73 1T67 24Q67 40 75 49T105 59Q124 59 134 52T145 24Z" />
<glyph unicode="-" horiz-adv-x="413" d="M74 251Q69 251 68 253T67 258V298Q67 302 68 303T74 305H340Q344 305 345 304T347 298V257Q347 254 346 253T340 251H74Z" />
<glyph unicode="." horiz-adv-x="175" d="M128 25Q128 7 121 -1T87 -10Q65 -10 56 -2T47 25Q47 42 56 50T87 59Q113 59 120 51T128 25Z" />
<glyph unicode="/" horiz-adv-x="544" d="M110 8Q108 4 105 2T97 0H46Q43 0 43 2T44 8L461 701Q464 705 466 706T472 707H522Q527 707 527 705T522 694L110 8Z" />
<glyph unicode="0" horiz-adv-x="542" d="M492 336Q492 264 481 201T443 92T375 19T271 -7Q209 -7 167 19T99 91T62 200T50 336Q50 410 61 472T98 581T166 654T271 680Q333 680 375 654T443 581T480 472T492 336ZM416 336Q416 472 381 546T270 620Q195 620 160
547T125 336Q125 199 160 126T270 52Q345 52 380 126T416 336Z" />
<glyph unicode="1" horiz-adv-x="328" d="M183 0Q175 0 175 7V582Q175 592 166 587L50 520Q41 515 38 522L15 560Q11 568 19 572L183 667Q189 671 192 672T201 673H239Q248 673 248 664V7Q248 0 241 0H183Z" />
<glyph unicode="2" horiz-adv-x="491" d="M44 0Q38 0 36 1T34 8V52Q34 62 41 65Q93 100 149 143T253 239T332 349T363 473Q363 520 344 551T291 597T216 613Q181 613 152 604T101 584T69 569Q54 562 54 571V619Q54 625 56 627T64 634Q77 641 101 651T157 670T223
678Q275 678 323 658T402 592T434 474Q434 410 410 353T344 244T251 149T148 66Q145 64 146 62T150 60H430Q437 60 437 54V8Q437 3 436 2T428 0H44Z" />
<glyph unicode="3" horiz-adv-x="479" d="M212 -5Q180 -5 147 3T86 27T38 65Q35 69 35 72T38 80L64 113Q71 121 78 114Q106 86 140 72T210 58Q256 58 287 78T335 129T351 190Q351 222 335 252T284 303T199 324Q193 324 188 324T177 324Q173 324 171 326T168 334V375Q168
385 177 385Q182 385 190 385T209 385Q251 387 280 405T324 450T339 506Q339 535 325 559T283 600T213 616Q180 616 143 602T80 566Q70 556 63 567L41 607Q39 611 40 615T43 620Q69 640 99 653T160 672T217 678Q279 678 321 655T384 593T406 513Q406 465 382 424T311
361Q300 357 300 355Q300 354 314 349Q365 328 393 288T422 192Q422 143 397 98T326 24T212 -5Z" />
<glyph unicode="4" horiz-adv-x="495" d="M317 0Q310 0 310 7V175Q310 185 300 185H30Q23 185 23 192V229Q23 235 26 240T31 248L310 663Q313 669 316 671T323 673H371Q379 673 379 665V252Q379 242 389 242H456Q462 242 462 236V191Q462 185 456 185H389Q379
185 379 175V7Q379 0 372 0H317ZM112 242H300Q310 242 310 252V551Q310 555 308 555T304 552L107 254Q103 248 104 245T112 242Z" />
<glyph unicode="5" horiz-adv-x="476" d="M192 -5Q172 -5 147 -1T98 13T51 37Q48 40 47 43T47 49L73 93Q76 97 79 97T86 94Q114 78 139 71T192 63Q222 63 251 73T304 102T342 152T357 222Q357 264 339 297T284 349T194 369Q179 369 162 368T127 365T95 356Q85
353 82 355T78 364V661Q78 667 80 670T90 673H365Q370 673 372 672T374 666V619Q374 612 365 612H150Q142 612 142 604V431Q142 427 144 425T152 423Q165 425 178 425T200 425Q277 425 327 398T402 327T427 226Q428 156 395 104T308 23T192 -5Z" />
<glyph unicode="6" horiz-adv-x="546" d="M277 -12Q218 -11 165 20T77 120T43 300Q43 366 64 433T125 556T227 645T371 679Q379 679 394 678T422 674Q426 674 430 671T434 660Q434 651 434 641T434 621Q434 615 432 614T424 614Q418 615 408 616T386 617T361 616T337
608Q287 605 247 581T179 518T134 434T114 340Q113 332 115 330T124 336Q151 373 197 396T296 419Q352 419 392 402T458 356T495 290T507 214Q507 158 480 106T402 21T277 -12ZM277 51Q329 51 364 75T418 137T437 215Q437 251 420 283T371 335T287 356Q251 356
218 339T158 297T117 245Q116 210 128 175T161 112T212 68T277 51Z" />
<glyph unicode="7" horiz-adv-x="453" d="M128 0Q122 0 120 1T118 8Q121 37 134 87T168 198T211 319Q233 378 257 433T301 532T334 603Q336 609 334 611T323 614H27Q23 614 22 615T20 620V666Q20 671 22 672T28 673H422Q425 673 426 672T428 666V639Q428 632 423
624Q408 599 385 552T334 441T278 305Q257 248 238 192T207 87T192 7Q192 3 189 2T181 0H128Z" />
<glyph unicode="8" horiz-adv-x="494" d="M246 -6Q189 -6 141 19T63 88T33 186Q33 248 62 290T137 354Q145 357 146 361T143 369Q107 384 86 417T65 502Q65 551 90 590T156 653T246 677Q297 677 338 654T404 591T429 502Q429 446 408 414T351 365Q349 363 350
359T358 353Q405 331 433 291T461 186Q461 132 432 89T354 20T246 -6ZM248 395Q277 395 302 407T344 443T360 502Q360 531 345 555T304 594T246 609Q215 609 190 595T149 556T133 502Q133 468 150 444T193 408T248 395ZM246 60Q288 60 320 77T372 124T392 187Q392
231 372 261T319 307T249 324Q212 324 179 309T124 263T103 187Q103 153 122 124T173 78T246 60Z" />
<glyph unicode="9" horiz-adv-x="541" d="M246 249Q173 249 127 278T59 353T38 452Q39 508 66 560T145 646T272 679Q326 679 367 658T438 600T482 513T497 402Q499 328 479 256T418 124T311 29T154 -7Q147 -7 133 -6T104 -2Q99 -1 95 2T91 12L92 51Q92 58 94 59T103
59Q116 56 130 55T153 54Q216 54 264 79T344 140Q366 165 381 197T405 260T420 313T427 342Q396 298 348 274T246 249ZM271 615Q218 616 182 592T128 530T110 452Q111 415 125 383T171 331T253 311Q307 311 352 343T425 422Q424 496 402 538T344 597T271 615Z"
/>
<glyph unicode=":" horiz-adv-x="215" d="M148 25Q148 7 140 -1T107 -10Q84 -10 76 -2T67 25Q67 42 75 50T107 59Q132 59 140 51T148 25ZM148 446Q148 429 140 421T107 412Q84 412 76 420T67 446Q67 463 75 472T107 481Q132 481 140 472T148 446Z" />
<glyph unicode=";" horiz-adv-x="221" d="M155 446Q155 429 147 421T113 412Q91 412 82 420T73 446Q73 463 82 472T113 481Q139 481 147 472T155 446ZM153 24Q153 9 146 -15T129 -61T109 -99Q107 -103 103 -104Q98 -104 90 -104T73 -104Q72 -103 72 -101T74 -94Q78
-85 84 -70T95 -38T104 -9Q88 -8 82 1T75 24Q75 40 83 49T113 59Q132 59 142 52T153 24Z" />
<glyph unicode="&lt;" horiz-adv-x="446" d="M58 277Q55 278 53 280T50 288V328Q50 332 52 333T59 336L383 490Q390 494 393 493T396 486V443Q396 440 394 438T386 434L120 306L385 180Q391 176 393 175T396 169V127Q396 116 385 121L58 277Z" />
<glyph unicode="=" horiz-adv-x="476" d="M57 365Q52 365 51 367T50 373V411Q50 416 51 417T58 419H419Q423 419 424 418T426 412V372Q426 369 425 367T419 365H57ZM57 182Q52 182 51 184T50 189V228Q50 232 51 233T58 235H419Q423 235 424 234T426 228V188Q426
185 425 184T419 182H57Z" />
<glyph unicode="&gt;" horiz-adv-x="426" d="M52 121Q46 118 43 120T40 126V168Q40 172 43 174T51 179L317 305L50 433Q40 438 40 443V486Q40 490 43 492T54 490L377 336Q381 334 383 333T386 327V288Q386 283 384 281T379 276L52 121Z" />
<glyph unicode="?" horiz-adv-x="448" d="M128 175Q122 175 121 178T120 187Q120 238 127 273T150 332T186 376T235 414Q249 424 265 436T294 462T315 492T322 529Q321 570 291 592T210 614Q172 614 139 605T85 587Q78 584 76 583T71 589L59 629Q57 634 60 637T69
644Q95 659 134 666T207 674Q291 674 340 634T390 527Q390 479 372 451T329 406T280 372Q244 348 223 323T192 266T183 185Q183 179 182 177T177 175H128ZM113 26Q113 43 121 51T152 60Q176 60 184 52T192 26Q192 9 184 0T152 -9Q130 -9 122 0T113 26Z" />
<glyph unicode="@" horiz-adv-x="839" d="M50 328Q50 401 78 465T157 579T277 656T427 684Q528 684 597 659T708 590T770 494T789 384Q789 335 776 290T739 210T680 154T605 133Q566 133 545 152T515 199T505 255Q505 258 505 261T504 265T497 253Q484 225 465
198T418 153T355 135Q303 135 270 161T224 230T216 322Q223 381 251 431T325 513T430 545Q485 545 523 532T591 500Q600 495 601 487T600 468Q596 454 592 440T583 412Q576 388 569 358T558 297T554 241T567 199T601 183Q637 183 665 213T709 291T726 392Q726 436
711 480T660 559T567 615T427 637Q359 637 302 613T202 546T136 448T112 329Q112 260 135 206T201 112T301 53T429 32Q514 31 589 44T719 84Q727 89 733 91T746 97Q751 101 754 100T760 95L776 69Q780 64 778 60T769 53Q763 49 757 46T743 39Q688 12 612 -2T430
-16Q349 -15 280 7T159 74T79 182T50 328ZM525 441Q527 450 530 457T526 471Q505 481 484 486T435 492Q390 492 357 464T305 393T282 308Q279 276 285 249T307 204T353 187Q381 187 403 208T442 262Q459 292 481 341T525 441Z" />
<glyph unicode="A" horiz-adv-x="553" d="M45 0Q40 0 39 3T39 17Q46 64 60 130T93 271T133 420T178 557T222 663Q225 668 228 670T235 673H317Q322 672 325 670T332 662Q352 622 374 558T419 419T460 268T494 127T514 17Q516 7 515 4T508 0H451Q447 0 446 2T441
14Q437 41 430 77T415 152Q414 158 412 160T402 162H150Q144 161 142 160T138 151Q130 114 123 78T111 13Q110 5 109 3T102 0H45ZM165 220H386Q391 220 393 223T394 235Q372 320 350 406T295 570Q293 576 286 576H267Q261 576 259 569Q243 530 225 474T189 354T158
231Q157 227 158 224T165 220Z" />
<glyph unicode="B" horiz-adv-x="522" d="M475 184Q475 117 450 77T381 18T285 0H88Q80 0 80 7V665Q80 673 88 673H231Q278 673 318 669T390 649T438 600T455 511Q455 476 447 446T421 392T382 358Q377 356 377 351T382 344Q422 328 448 285T475 184ZM399 187Q399
240 382 268T332 307T254 317H159Q153 317 153 312V60Q153 57 154 56T159 54H277Q295 54 316 59T356 77T387 117T399 187ZM379 509Q379 559 360 582T307 611T228 618H159Q153 618 153 612V381Q153 375 159 375H263Q303 375 328 392T366 439T379 509Z" />
<glyph unicode="C" horiz-adv-x="450" d="M415 21Q415 8 399 3Q385 -2 366 -4T328 -8T300 -9Q188 -9 120 77T51 335Q51 507 117 593T300 680Q310 680 328 679T365 675T399 668Q407 666 411 662T415 653V605Q415 589 400 598Q386 607 362 614T307 621Q254 621 219
599T164 538T135 451T126 349Q126 313 130 273T144 193T175 121T228 69T307 49Q339 49 363 56T399 70Q408 76 411 75T415 64V21Z" />
<glyph unicode="D" horiz-adv-x="579" d="M527 347Q527 259 511 198T467 98T408 38T345 8T287 0H88Q80 0 80 7V665Q80 673 88 673H287Q318 673 351 667T416 643T473 588T512 494T527 347ZM455 347Q455 440 439 494T397 574T342 607T288 614H160Q155 614 154 613T153
608V65Q153 61 154 60T159 58H271Q298 58 329 68T389 109T436 196T455 347Z" />
<glyph unicode="E" horiz-adv-x="446" d="M88 0Q80 0 80 7V665Q80 673 88 673H403Q409 673 410 672T411 665V623Q411 617 410 616T403 614H160Q155 614 154 613T153 607V376Q153 372 155 370T160 368H358Q364 368 365 367T367 358V320Q367 314 366 312T358 310H160Q155
310 154 309T153 303V67Q153 63 154 61T160 58H402Q409 58 410 57T411 49V10Q411 3 410 2T402 0H88Z" />
<glyph unicode="F" horiz-adv-x="430" d="M88 0Q80 0 80 7V665Q80 673 88 673H403Q409 673 410 672T411 665V623Q411 617 410 616T403 614H160Q155 614 154 613T153 607V376Q153 372 155 370T160 368H350Q356 368 357 367T359 358V320Q359 314 358 312T350 310H160Q155
310 154 309T153 303V10Q153 3 152 2T143 0H88Z" />
<glyph unicode="G" horiz-adv-x="559" d="M496 23Q496 11 482 5T445 -3T398 -6Q225 -6 133 78T41 325Q41 435 82 514T195 635T356 678Q386 678 420 676T476 666Q485 663 488 661T491 651V609Q491 599 488 597T478 597Q453 611 426 615T367 620Q333 620 290 606T208
560T144 472T118 332Q118 244 143 189T208 104T292 63T376 52Q416 52 423 63V302Q423 308 421 310T414 312H268Q263 312 262 314T260 320V362Q260 366 261 368T268 370H483Q492 370 494 368T496 356V23Z" />
<glyph unicode="H" horiz-adv-x="610" d="M100 0Q97 0 94 1T90 7Q86 41 83 94T77 210T75 340Q75 404 77 466T82 580T91 665Q92 669 95 671T101 673Q115 673 129 673T158 673Q163 673 164 666Q158 605 155 548T151 447T149 379Q149 372 151 370T158 368Q231 368
305 368T452 368Q456 368 459 369T462 379Q461 399 460 443T455 545T446 666Q448 673 452 673Q466 673 480 673T509 673Q512 673 515 671T519 665Q524 632 528 580T534 466T535 339Q535 273 533 210T528 94T521 7Q520 3 517 2T510 0Q496 0 482 0T452 0Q448 0 448
7Q454 47 456 90T460 174T462 248T462 301Q462 307 460 308T453 310Q379 310 305 310T158 310Q153 310 151 309T148 301Q148 280 148 247T149 173T154 90T162 7Q163 0 158 0Q143 0 129 0T100 0Z" />
<glyph unicode="I" horiz-adv-x="232" d="M153 7Q153 0 145 0H87Q80 0 80 7V665Q80 673 87 673H145Q153 673 153 665V7Z" />
<glyph unicode="J" horiz-adv-x="299" d="M224 173Q224 105 211 67T169 14T90 -1L14 0Q8 0 3 2T-3 9V50Q-3 58 5 57Q21 57 40 57T76 56Q114 56 132 76T151 151V665Q151 673 159 673H217Q220 673 222 671T224 665V173Z" />
<glyph unicode="K" horiz-adv-x="529" d="M84 0Q80 0 80 4Q80 171 80 337T80 669Q80 673 84 673Q87 673 96 673T116 673T137 673T149 673Q153 673 153 669Q153 631 153 596T153 527T153 458T153 385Q153 382 154 380T159 377H232Q238 377 241 380T248 387Q268
425 285 459T320 526T355 593T393 666Q396 669 398 671T403 673Q406 673 415 673T434 673T454 673T467 673Q472 673 472 670T468 657Q440 607 415 558T364 460T312 357Q308 348 307 342T306 330Q308 304 318 273T343 210T377 152T416 106Q437 88 461 77T515 65Q517
65 520 64T523 61V5Q523 0 520 0Q473 0 437 12T370 49Q348 67 328 94T291 154T261 220T243 283Q241 291 238 293T232 295Q213 295 195 295T159 295Q159 295 156 294T153 288Q153 249 153 215T153 146T153 78T153 4Q153 0 149 0Q146 0 137 0T117 0T96 0T84 0Z" />
<glyph unicode="L" horiz-adv-x="424" d="M87 0Q80 0 80 7V665Q80 673 87 673H144Q149 673 151 671T153 664V67Q153 63 154 61T160 58H401Q408 58 409 57T411 49V10Q411 3 410 2T401 0H87Z" />
<glyph unicode="M" horiz-adv-x="713" d="M84 0Q75 0 75 9Q75 95 78 187T87 368T99 534T113 665Q114 669 115 671T121 673H159Q165 673 167 671T172 665L350 358Q353 352 357 352T364 357L540 663Q543 669 546 671T555 673H590Q599 673 600 662Q606 609 613 534T625
371T634 191T638 12Q638 5 636 3T628 0H575Q566 0 566 10Q566 52 565 104T561 212T556 323T550 427T543 512Q542 519 537 519T529 514L379 259Q375 253 367 253H344Q337 253 332 260L184 512Q181 518 176 518T171 510Q167 464 163 405T155 280T150 143T148 6Q148
0 142 0H84Z" />
<glyph unicode="N" horiz-adv-x="641" d="M475 157Q477 153 481 153T486 160Q489 195 490 244T492 349T492 462T488 571T479 664Q478 673 484 673H542Q545 673 548 671T551 665Q557 630 560 578T565 462T566 333T563 205T558 92T551 7Q550 3 547 2T539 0H500Q495
0 491 9L164 519Q163 523 160 523T155 518Q153 473 151 420T149 308T149 195T153 91T161 9Q161 0 156 0H99Q95 0 92 1T88 7Q84 41 81 93T77 207T75 336T77 464T82 579T91 665Q91 669 94 671T100 673H140Q145 673 148 666L475 157Z" />
<glyph unicode="O" horiz-adv-x="628" d="M51 334Q51 445 73 521T153 637T313 676Q393 676 444 654T525 588T565 481T576 334Q576 251 565 188T525 81T445 15T313 -7Q210 -7 153 32T74 147T51 334ZM127 334Q127 225 146 165T206 80T311 56Q376 56 417 80T480 164T501
334Q501 444 480 505T418 590T311 615Q247 615 207 590T147 505T127 334Z" />
<glyph unicode="P" horiz-adv-x="484" d="M442 462Q442 398 420 346T355 261T248 229H161Q157 229 155 227T153 221V7Q153 0 145 0H88Q80 0 80 7V665Q80 673 88 673H237Q346 673 394 622T442 462ZM153 294Q153 286 160 286H240Q303 286 337 332T371 461Q371 547
338 582T237 618H161Q156 618 155 617T153 609V294Z" />
<glyph unicode="Q" horiz-adv-x="628" d="M51 333Q51 445 73 521T153 636T313 676Q393 676 444 654T525 588T565 481T576 333Q576 237 561 167T504 55T388 -1Q382 -2 375 -3T362 -5Q352 -6 352 -14Q352 -57 361 -83T394 -120T466 -132H495Q503 -132 503 -141V-174Q503
-179 502 -181T494 -185Q491 -186 480 -186T456 -187Q387 -187 349 -167T295 -109T278 -15Q278 -11 276 -9T269 -5Q262 -5 255 -4T238 1Q166 14 125 55T68 166T51 333ZM127 334Q127 225 146 165T206 80T311 56Q376 56 417 80T480 164T501 334Q501 444 480 505T418
590T311 615Q247 615 207 590T147 505T127 334Z" />
<glyph unicode="R" horiz-adv-x="529" d="M88 0Q80 0 80 7V665Q80 673 88 673H232Q307 673 353 655T420 595T442 480Q442 415 418 366T339 294Q328 287 325 280T326 263Q334 232 348 201T380 142T420 98Q440 83 462 74T510 65Q515 65 518 64T521 56V8Q521 4 520
3T515 1T500 0Q461 0 429 12T371 46Q344 68 321 101T280 174T253 252Q252 256 249 261T236 267H161Q153 267 153 256V7Q153 0 145 0H88ZM153 335Q153 331 155 329T161 327H240Q303 327 337 363T371 480Q371 538 356 567T310 607T229 618H161Q156 618 155 617T153
609V335Z" />
<glyph unicode="S" horiz-adv-x="459" d="M58 27V75Q58 81 61 80T70 77Q90 71 114 65T162 56T203 52Q273 52 308 90T343 190Q343 245 314 274T218 322Q189 329 158 339T101 367T58 418T41 503Q41 565 69 603T143 659T243 677Q267 677 292 674T339 664T379 650Q385
649 386 647T388 639V597Q388 583 370 592Q346 603 316 611T247 620Q188 620 151 591T114 507Q114 471 128 449T165 414T215 393T269 378Q318 363 351 343T401 288T419 194Q419 129 393 84T319 15T204 -9Q176 -9 139 -2T69 15Q63 17 61 19T58 27Z" />
<glyph unicode="T" horiz-adv-x="435" d="M188 0Q185 0 183 2T180 7V606Q180 611 179 612T173 614H30Q25 614 23 615T21 621V666Q21 670 22 671T29 673H404Q410 673 412 671T414 665V622Q414 617 412 616T404 614H262Q257 614 255 613T253 606V7Q253 0 246 0H188Z" />
<glyph unicode="U" horiz-adv-x="634" d="M317 -6Q235 -6 188 13T118 61T88 120T77 173Q73 215 71 264T70 362Q71 411 73 464T79 568T90 663Q90 667 92 670T99 673Q113 673 126 673T153 673Q158 673 159 671T160 661Q156 621 153 577T147 486Q143 406 143 328T149
181Q151 161 157 139T179 97T228 65T315 52Q370 52 402 64T452 96T475 138T484 181Q490 248 490 324T486 480Q484 528 481 574T473 661Q472 669 473 671T479 673Q494 673 507 673T536 673Q540 673 542 670T544 663Q551 619 555 569T561 466T564 365Q565 316 564
266T557 173Q555 155 550 132T533 84T494 40T425 7T317 -6Z" />
<glyph unicode="V" horiz-adv-x="538" d="M236 0Q231 1 228 3T223 10Q201 52 178 115T133 253T92 402T60 543T39 656Q38 665 39 669T45 673H101Q107 673 108 671T111 660Q117 622 127 572T151 466T180 354T212 248T243 158Q247 146 252 129T263 99Q266 96 268
96T273 99Q279 110 284 127T294 158Q308 196 324 246T356 353T386 466T410 573T426 659Q428 668 429 670T436 673H493Q498 673 499 669T498 655Q492 612 478 547T445 405T404 254T360 115T317 10Q314 4 310 3T302 0H236Z" />
<glyph unicode="W" horiz-adv-x="825" d="M228 0Q217 0 213 10Q191 52 168 115T123 253T82 403T49 546T28 663Q28 667 29 670T35 673Q37 673 45 673T62 673T80 673T91 673Q97 673 98 672T100 665Q107 621 121 553T158 397Q174 334 189 279T219 179T247 103Q249
99 250 97T254 94Q256 94 257 94T261 94Q263 94 265 96T268 103Q277 124 288 156T312 227T335 303T357 373T372 427Q371 459 370 497T367 570T364 631T363 664Q363 668 364 671T370 674Q373 674 381 674T398 674T416 674T427 674Q432 674 433 672T435 665Q436 619
439 573T449 485T462 409Q478 330 502 254T554 105Q557 99 558 97T562 94Q564 94 565 94T569 94Q572 94 575 101Q586 127 600 170T632 270T665 391Q677 435 686 472T702 543T715 605T725 663Q726 669 728 671T734 673Q737 673 745 673T762 673T779 673T791 673Q800
673 797 661Q790 618 776 552T742 409T701 256T657 116T614 10Q613 6 610 3T600 0Q592 0 580 0T555 0T533 0Q529 0 526 4T521 10Q504 44 486 90T451 192T418 304Q416 312 413 314T406 304Q392 253 379 209T353 129T330 63T307 10Q305 4 301 2T292 0Q284 0 272 0T248
0T228 0Z" />
<glyph unicode="X" horiz-adv-x="519" d="M340 354Q335 346 335 339T341 323Q348 312 355 302T368 282Q396 238 418 195T457 115T484 51T496 13Q498 5 495 3T487 0H429Q426 0 424 2T418 12Q416 18 407 41T382 98T349 168T312 238T277 294Q269 296 261 296T244
294Q225 268 206 234T169 164T137 96T113 41T102 12Q99 5 97 3T90 0H33Q27 0 24 2T23 13Q25 21 39 57T78 148T139 262Q147 276 157 292T177 323Q181 328 182 338T178 354Q146 404 120 452T75 543T45 616T32 660Q30 667 33 670T41 673H97Q102 673 104 671T107 663Q107
663 114 644T133 594T162 527T198 454T237 389Q239 387 241 384T248 379Q254 378 259 378T269 380Q273 381 274 382T279 387Q299 415 318 451T354 524T383 592T403 643T411 663Q413 669 415 671T421 673H478Q483 673 486 670T487 660Q485 646 472 614T439 539T394
447T340 354Z" />
<glyph unicode="Y" horiz-adv-x="487" d="M293 302Q287 294 285 280T282 254V7Q282 4 280 2T274 0H216Q209 0 209 7V252Q209 270 202 288T187 318Q178 330 166 348T142 386T119 423T104 450Q76 503 57 548T28 623T16 660Q14 667 17 670T26 673H81Q88 673 91 662Q95
651 106 622T134 556T169 482Q182 456 198 429T233 375Q239 367 243 366T254 374Q265 388 276 406T299 443T319 479Q337 514 353 552T380 621T395 663Q397 669 399 671T406 673H463Q467 673 470 670T471 660Q470 654 461 625T433 551T387 454Q381 441 370 422T345
380T319 338T293 302Z" />
<glyph unicode="Z" horiz-adv-x="449" d="M406 673Q411 673 412 671T413 662V629Q413 617 404 601T381 570Q352 537 318 490T250 386T186 272T132 159T96 58H429Q434 58 436 57T438 51V8Q438 3 436 2T429 0H38Q27 0 24 6T22 24Q23 64 40 116T85 226T146 341T213
452T277 547T327 614H39Q33 614 32 616T30 622V665Q30 669 31 671T39 673H406Z" />
<glyph unicode="[" horiz-adv-x="348" d="M265 -106Q265 -114 259 -114H59Q54 -114 52 -112T50 -105V741Q50 749 58 749H257Q263 749 264 748T265 743V706Q265 702 263 701T258 700H120V-64H258Q262 -64 263 -65T265 -71V-106Z" />
<glyph unicode="\" horiz-adv-x="550" d="M462 0Q457 0 454 2T447 10L39 690Q32 700 33 703T40 707H85Q91 707 93 706T100 698L514 11Q517 7 517 4T510 0H462Z" />
<glyph unicode="]" horiz-adv-x="348" d="M90 -114Q83 -114 83 -106V-71Q83 -67 85 -66T91 -64H229V700H91Q88 700 86 701T83 706V743Q83 747 85 748T92 749H291Q298 749 298 741V-105Q298 -109 297 -111T290 -114H90Z" />
<glyph unicode="^" horiz-adv-x="571" d="M60 414Q53 414 51 416T52 423L245 700Q248 703 251 705T262 707H311Q317 707 320 705T325 699L517 424Q523 419 520 417T511 414H457Q454 414 452 416T445 422L286 654L126 423Q122 418 120 416T111 414H60Z" />
<glyph unicode="_" horiz-adv-x="555" d="M23 -85Q20 -85 19 -83T17 -77V-46Q17 -41 18 -40T24 -39H532Q536 -39 537 -40T539 -46V-79Q539 -82 538 -83T531 -85H23Z" />
<glyph unicode="`" horiz-adv-x="128" d="M86 530Q79 530 72 536L1 624Q-1 627 0 629T4 632H62Q67 632 70 631T76 625L125 538Q130 530 123 530H86Z" />
<glyph unicode="a" horiz-adv-x="481" d="M232 -8Q183 -8 142 3T75 46T50 138Q50 189 67 221T112 271T172 296T233 303Q263 303 292 300T339 293Q353 290 353 313Q353 373 324 397T231 422Q192 422 158 411T102 386Q96 382 93 383T90 389L84 427Q83 433 84 435T90
441Q114 458 150 467T232 477Q296 477 334 462T391 422T416 365T423 296Q424 247 424 205T421 123T415 39Q414 32 410 27T391 15Q376 10 356 6T314 -2T271 -6T232 -8ZM237 41Q246 41 262 42T297 47T328 57T343 74Q347 104 349 144T350 219Q350 239 336 243Q323
247 294 250T231 254Q216 254 197 249T160 232T132 197T120 138Q120 104 135 83T176 51T237 41Z" />
<glyph unicode="b" horiz-adv-x="475" d="M231 -6Q181 -6 141 3T92 15Q78 20 71 24T62 37T57 61Q54 79 52 116T48 197T46 279Q45 387 49 496T61 700Q62 704 64 706T72 708H123Q132 708 132 705T132 694Q130 678 128 654T125 601T122 547T120 502T119 474Q119 464
123 461T135 461Q150 465 179 470T237 476Q270 476 304 465T365 427T410 351T428 226Q428 105 376 50T231 -6ZM230 50Q266 50 294 67T339 122T356 228Q356 288 345 324T314 381T272 408T230 415Q217 415 197 412T159 404T134 398Q129 397 125 394T120 382Q119 364
119 332T119 257T121 170T126 86Q127 77 130 73T138 66Q153 61 177 56T230 50Z" />
<glyph unicode="c" horiz-adv-x="395" d="M237 -6Q177 -6 138 12T76 64T46 140T37 235Q37 282 46 325T77 403T138 458T236 478Q278 478 308 470T360 443Q365 438 366 436T368 427V383Q368 377 364 377T356 380Q336 400 305 409T243 418Q205 418 179 402T137 359T115
300T108 234Q108 179 121 138T163 74T241 51Q272 51 297 57T345 75Q355 80 359 71L374 39Q377 34 376 32T370 26Q346 10 311 2T237 -6Z" />
<glyph unicode="d" horiz-adv-x="494" d="M45 230Q46 306 63 353T110 427T173 463T242 473Q269 473 294 470T336 462Q347 459 351 459T356 469Q356 486 356 511T354 565T351 619T349 664T347 689Q346 697 348 699T355 701H409Q413 701 415 700T418 695Q422 645
424 590T428 476T429 359T429 244T425 136T418 42Q417 35 413 30T395 18Q370 8 330 0T245 -9Q204 -8 168 2T108 35Q76 64 61 112T45 230ZM117 229Q117 163 131 126T172 73Q191 57 221 52T282 51T336 65Q341 68 345 71T349 79Q350 104 352 137T354 207T356 276T357
337T356 378Q356 387 352 391T343 397Q321 403 293 407T245 411Q226 411 204 405T162 380T130 326T117 229Z" />
<glyph unicode="e" horiz-adv-x="460" d="M40 237Q40 284 49 327T81 404T141 458T240 478Q301 478 338 460T393 412T418 346T425 274Q425 237 418 228T395 219H122Q119 219 116 217T112 206Q112 160 127 125T173 69T253 49Q286 49 322 57T382 78Q390 83 395 84T404
76L417 51Q420 45 419 43T411 36Q379 15 334 5T241 -6Q179 -6 140 12T79 64T49 142T40 237ZM352 286Q352 322 343 352T310 402T238 421Q204 421 180 408T142 375T121 330T112 283Q112 273 113 270T123 266H335Q345 266 349 269T352 286Z" />
<glyph unicode="f" horiz-adv-x="339" d="M103 8Q100 43 98 91T94 193T91 303T90 407Q90 416 82 416H23Q19 416 18 418T16 424V464Q16 468 17 470T24 472H82Q87 472 88 473T90 481Q89 530 93 571T121 646Q144 679 185 695T285 712Q314 712 338 704T372 690Q379
686 380 684T381 677L371 645Q370 640 368 639T362 640Q350 647 331 652T284 656Q239 656 211 641T173 585Q165 560 163 534T161 481Q161 476 163 474T169 472H319Q323 472 324 471T326 463V424Q326 421 324 419T318 416H170Q166 416 164 414T161 407Q161 360 162
303T165 189T169 85T173 7Q173 3 172 1T167 -1H110Q108 -1 106 1T103 8Z" />
<glyph unicode="g" horiz-adv-x="485" d="M40 242Q41 309 58 362T121 447T246 478Q285 478 323 472T390 454Q405 449 410 439T417 408Q426 336 427 237T416 29Q406 -57 356 -96T216 -136Q181 -136 140 -126T66 -92Q60 -87 59 -84T60 -76Q63 -71 68 -62T76 -47Q80
-41 83 -41T91 -44Q107 -53 127 -61T171 -75T216 -81Q244 -81 270 -71T316 -39T342 21Q342 23 342 24T343 28Q344 35 340 36T326 35Q308 30 283 26T233 21Q171 21 128 47T62 123T40 242ZM113 250Q113 200 125 161T165 100T243 78Q265 78 287 81T326 91Q350 100
351 117Q354 145 354 181T354 256T352 328T347 383Q347 390 344 399T330 413Q318 419 295 422T245 426Q196 426 168 404T127 342T113 250Z" />
<glyph unicode="h" d="M53 7Q53 181 53 354T53 701Q53 708 61 708Q75 708 89 708T117 708Q125 708 125 701Q125 643 125 585T125 469Q125 462 127 460T136 460Q158 466 185 471T241 477Q278 477 309 466T364 427T400 354T414 236Q414 197 413 156T408 77T401 7Q401
3 398 2T389 0Q377 0 366 0T342 0Q333 0 332 2T332 14Q337 60 339 113T342 217Q342 275 334 314T310 377T273 410T227 420Q209 420 186 416T141 407Q134 405 130 400T125 383V7Q125 0 117 0H61Q53 0 53 7Z" />
<glyph unicode="i" horiz-adv-x="202" d="M143 602Q143 584 136 575T103 565Q79 565 71 574T62 602Q62 619 70 628T103 638Q129 638 136 629T143 602ZM139 7Q139 0 131 0H75Q68 0 68 7V465Q68 472 75 472H131Q139 472 139 465V7Z" />
<glyph unicode="j" horiz-adv-x="198" d="M-92 -69L-78 -44Q-75 -39 -73 -39T-65 -41Q-37 -53 -9 -53Q37 -52 54 -24T72 57V465Q72 472 79 472H136Q143 472 143 465V57Q143 -20 115 -62T6 -105Q-14 -105 -36 -101T-74 -91Q-82 -87 -89 -82T-92 -69ZM148 602Q148
584 140 575T107 565Q83 565 75 574T67 602Q67 619 75 628T107 638Q133 638 140 629T148 602Z" />
<glyph unicode="k" horiz-adv-x="433" d="M67 4V694Q67 698 71 698H134Q138 698 138 694V295Q138 293 139 290T143 287Q156 287 169 288T196 289Q205 291 209 293T221 305Q241 328 257 355T286 410T310 463Q313 470 316 471T325 472H382Q388 472 389 469T388 462Q387
461 379 442T356 395T322 335T281 277Q277 273 274 270T268 262Q270 261 273 259T277 255Q294 237 312 208T347 144T379 80T401 30T411 8Q415 0 408 0Q405 0 396 0T376 0T356 0T344 0Q340 0 339 0T335 7Q335 7 328 22T310 63T284 115T255 168T227 209Q222 217 214
223T189 231T143 232Q138 231 138 222V4Q138 0 134 0H71Q67 0 67 4Z" />
<glyph unicode="l" horiz-adv-x="204" d="M67 7V701Q67 708 74 708H130Q138 708 138 701V7Q138 0 130 0H74Q67 0 67 7Z" />
<glyph unicode="m" horiz-adv-x="744" d="M75 0Q67 0 67 8V421Q67 434 71 440T86 450Q99 455 121 461T170 471T220 476Q277 476 312 459T370 411Q384 432 405 446T451 468T500 476Q574 476 614 446T671 366T687 252Q687 201 685 155T681 71T675 8Q675 3 673 2T667
0H613Q608 0 607 2T605 11Q607 29 608 68T611 158T613 256Q613 284 608 312T589 364T554 402T499 417Q460 417 436 397T411 339Q411 287 411 244T412 164T412 89T411 10Q411 0 401 0H348Q340 0 340 8V253Q340 302 329 339T293 396T221 417Q202 417 185 414T154
405Q138 399 138 382V9Q138 0 130 0H75Z" />
<glyph unicode="n" horiz-adv-x="486" d="M75 0Q67 0 67 8Q67 114 67 220T67 433Q67 439 71 443T89 453Q102 457 127 462T182 473T237 478Q314 478 355 448T413 367T429 253Q429 207 427 161T423 75T418 13Q417 4 415 2T403 0H360Q352 0 349 2T347 12Q347 18 348
44T352 106T355 182T357 255Q357 309 344 345T305 399T236 417Q214 417 193 413T155 403Q149 402 144 397T138 378Q138 322 138 260T138 135T138 8Q138 0 131 0H75Z" />
<glyph unicode="o" horiz-adv-x="493" d="M246 -6Q165 -6 120 25T58 111T40 237Q40 307 59 361T124 447T246 478Q324 478 369 447T433 362T453 237Q453 167 436 112T374 26T246 -6ZM246 51Q321 51 350 99T380 236Q380 324 348 371T246 418Q177 418 145 371T112
236Q112 147 142 99T246 51Z" />
<glyph unicode="p" horiz-adv-x="492" d="M72 -105Q69 -45 68 31T67 200Q67 238 68 279T71 361T76 434Q77 441 81 446T98 456Q129 467 169 473T258 480Q354 480 402 424T450 246Q450 198 441 155T411 79T359 25T282 0Q264 -3 240 -3T193 -2T156 4Q149 6 146 6T142
-1Q142 -8 142 -24T141 -61T142 -99Q143 -105 143 -109T133 -113H82Q77 -113 75 -111T72 -105ZM140 87Q140 78 145 75T155 70Q176 64 203 61T250 57Q270 57 292 64T334 92T365 149T378 246Q378 347 345 385T255 424Q229 424 204 420T159 408Q154 406 150 403T146
394Q144 369 143 335T141 264T140 191T139 128T140 87Z" />
<glyph unicode="q" horiz-adv-x="477" d="M191 0Q163 4 135 17T83 59T47 132T37 246Q42 367 93 423T241 480Q290 480 329 474T400 456Q412 452 415 447T420 434Q422 405 422 364T421 273T418 172T414 69T408 -27T401 -105Q400 -108 398 -110T391 -113H339Q330
-113 330 -109T331 -99Q332 -81 333 -61T335 -25T336 -1Q336 5 332 5T320 4Q294 -1 260 -3T191 0ZM109 246Q107 186 117 149T146 93T187 66T228 58Q248 58 276 61T328 70Q333 72 337 75T341 87Q342 100 343 127T346 190T347 263T348 335T348 394Q349 399 346 402T337
408Q317 415 292 419T241 424Q184 424 149 386T109 246Z" />
<glyph unicode="r" horiz-adv-x="327" d="M211 477Q272 477 314 461Q319 458 321 456T323 449L313 411Q312 406 310 405T302 406Q284 412 263 414T224 417Q208 417 191 414T161 408T140 401Q136 398 130 394T124 376V11Q124 4 122 2T115 0H61Q58 0 56 2T53 9V418Q53
433 57 438T69 447Q99 461 139 469T211 477Z" />
<glyph unicode="s" horiz-adv-x="394" d="M41 83Q42 88 45 88T53 84Q69 74 93 67T142 56T185 52Q213 52 238 61T278 89T294 140Q294 177 267 192T178 216Q140 221 108 233T56 271T36 338Q36 384 60 414T123 461T206 477Q242 477 283 467T348 440Q353 438 353 436T352
429L339 390Q337 382 327 388Q308 401 274 411T206 421Q161 421 133 399T105 343Q105 309 133 294T212 273Q245 269 272 262T319 241T350 204T361 146Q361 103 345 74T303 28T244 3T181 -5Q166 -5 139 -1T85 11T39 31Q35 33 34 35T33 41L41 83Z" />
<glyph unicode="t" horiz-adv-x="327" d="M222 0Q160 0 130 26T91 101Q82 143 82 189T82 285Q82 319 82 350T85 413Q85 422 77 422H26Q22 422 20 424T18 430V464Q18 468 20 470T27 472H78Q83 472 85 474T87 484L92 569Q92 576 98 576H154Q157 576 159 574T162
569L158 484Q157 477 158 475T165 472H282Q287 472 288 471T290 463V431Q290 427 288 425T281 422H165Q161 422 158 420T155 411Q154 379 153 346T152 279Q152 238 152 196T162 113Q168 85 184 71T236 57Q250 57 264 60T292 68Q299 72 301 71T305 64L316 31Q318
25 315 22T301 14Q290 10 275 7T245 2T222 0Z" />
<glyph unicode="u" horiz-adv-x="487" d="M250 -4Q174 -4 133 26T75 107T58 220Q58 266 60 312T64 397T68 459Q70 468 73 470T84 472H127Q135 472 138 471T140 460Q140 454 139 429T135 368T132 292T131 216Q131 141 158 98T250 55Q258 55 274 56T308 62T338 72T350
89V463Q350 466 351 469T355 472H412Q415 472 417 471T420 464V49Q420 37 414 32T389 19Q380 16 357 11T304 1T250 -4Z" />
<glyph unicode="v" horiz-adv-x="402" d="M178 0Q171 0 168 6Q144 48 125 95T89 190Q62 270 45 338T21 456Q18 472 27 472H85Q89 472 92 470T96 462Q100 428 110 382T135 282Q151 223 168 174T199 98Q201 92 204 93T210 98Q222 120 236 161T266 256Q281 314 293
371T310 465Q311 472 317 472H377Q383 472 382 465Q374 411 358 342T316 198Q301 150 281 102T236 6Q233 0 227 0H178Z" />
<glyph unicode="w" horiz-adv-x="626" d="M164 10Q136 66 112 127T70 249T40 362T21 454Q19 463 20 467T27 472H85Q94 472 96 462Q101 432 109 391T130 305T155 220T179 146T201 96Q203 90 206 91T210 95Q222 114 233 145T253 210T267 275T273 322Q273 334 273
353T272 394T272 433T271 462Q271 472 280 472H337Q341 472 344 470T347 462Q347 440 348 404T350 316Q351 302 356 278T371 227T389 173T407 125T422 94Q426 85 431 94Q441 113 453 146T477 220T501 304T520 389T534 461Q535 472 547 472H598Q604 472 605 468T605
456Q599 414 586 358T554 239T512 117T463 10Q460 4 457 2T450 0H402Q398 0 396 1T390 8Q377 31 364 61T339 121T321 173Q315 192 306 173Q302 157 295 138T280 100T264 64Q257 49 250 34T237 8Q235 4 232 2T224 0H178Q172 0 170 1T164 10Z" />
<glyph unicode="x" horiz-adv-x="392" d="M21 0Q17 0 16 3T15 11T16 17Q17 22 24 43T46 97T80 165T122 237Q125 242 125 246T121 256Q98 288 80 324T50 393T31 445T24 466Q23 472 28 472H90Q94 472 96 471T101 462Q102 458 109 435T129 381T156 322T187 277Q194
277 199 277T211 277Q228 293 243 321T270 380T289 433T297 461Q299 468 301 470T311 472H361Q364 472 366 471T368 463Q367 459 361 438T343 387T314 323T273 256Q266 249 274 238Q299 203 318 166T351 97T371 43T380 16Q381 9 380 5T373 0H322Q316 0 313 2T308
11Q305 20 297 45T275 102T246 164T211 212Q205 212 202 212T196 212T187 212Q167 187 150 153T120 86T99 32T91 10Q89 3 87 2T79 0H21Z" />
<glyph unicode="y" horiz-adv-x="411" d="M158 70Q135 104 114 152T75 256T45 364T26 460Q24 472 34 472H89Q95 472 98 469T103 457Q105 432 112 397T131 322T154 245T179 176T203 128Q207 121 211 121T216 125Q230 150 245 191T275 280T301 375T316 461Q316 468
319 470T329 472H378Q383 472 386 470T388 459Q383 424 375 390T358 321T336 248Q324 214 308 167T267 69T211 -25T137 -96T40 -123Q25 -123 12 -122T-12 -117Q-24 -112 -20 -102L-6 -71Q-3 -66 0 -66T8 -67Q33 -71 61 -62T111 -36Q131 -22 141 -10T162 20Q167
31 167 44T158 70Z" />
<glyph unicode="z" horiz-adv-x="359" d="M25 18Q33 78 61 138T128 260Q154 303 180 340T230 404Q234 408 234 410T228 414H54Q50 414 48 416T46 422V464Q46 470 48 471T55 472H322Q329 472 330 470T331 461V428Q331 423 327 416T316 402Q294 383 270 354T225
293T184 231Q157 184 135 143T103 71Q102 67 103 62T112 57H322Q327 57 328 56T329 49V7Q329 3 327 2T319 0H35Q30 0 28 3T25 18Z" />
<glyph unicode="{" horiz-adv-x="420" d="M337 -101Q337 -108 335 -111T323 -115H262Q215 -115 193 -97T164 -53T157 -2V188Q157 215 146 237T118 273Q109 280 95 286T59 293Q52 293 51 297T50 306V348Q50 352 53 354T62 356Q105 356 131 385T157 459V634Q157
659 163 685T192 728T262 746H330Q334 746 335 745T337 740V704Q337 702 336 700T330 698H280Q247 698 238 681T229 634V459Q229 431 218 404T187 357T139 327Q136 326 135 325T133 322Q137 321 145 317T159 308Q191 290 210 257T229 188V-2Q229 -30 238 -47T280
-65H323Q331 -65 334 -67T337 -78V-101Z" />
<glyph unicode="|" horiz-adv-x="273" d="M165 707Q171 707 172 705T174 697V-107Q174 -110 172 -112T165 -115H109Q105 -115 103 -113T100 -102V698Q100 703 102 705T109 707H165Z" />
<glyph unicode="}" horiz-adv-x="420" d="M83 -101V-78Q83 -70 86 -68T97 -65H140Q174 -65 182 -48T191 -2V188Q191 223 210 256T261 308Q267 312 275 316T287 322Q287 323 286 324T281 327Q254 337 234 357T202 404T191 459V634Q191 663 183 680T140 698H91Q86
698 85 700T83 704V740Q83 743 84 744T91 746H158Q206 746 228 729T256 685T263 634V459Q263 414 289 385T358 356Q364 356 367 354T370 348V306Q370 301 369 297T361 293Q339 293 325 287T302 273Q285 260 274 238T263 188V-2Q263 -27 257 -53T228 -97T158 -115H97Q88
-115 86 -112T83 -101Z" />
<glyph unicode="~" horiz-adv-x="492" d="M437 596Q416 575 389 560T328 544Q303 544 282 552T240 571T202 590T164 599Q150 599 135 590T107 569T86 546Q84 542 82 543T76 546L53 569Q50 572 50 575T52 581Q62 595 78 611T116 640T160 652Q181 652 201 645T239
629T275 611T312 601Q324 599 340 603T374 615T403 635Q405 637 407 638T414 636L440 611Q444 607 443 603T437 596Z" />
<glyph unicode="&#xa0;" horiz-adv-x="242" />
<glyph unicode="&#xa1;" horiz-adv-x="234" d="M140 252Q143 252 144 251T146 244L155 -187Q155 -190 154 -192T148 -195H84Q77 -195 77 -188L86 244Q87 249 88 250T95 252H140ZM79 452Q79 469 86 478T118 487Q141 487 150 478T159 452Q159 435 150 427T118 418Q94
418 87 426T79 452Z" />
<glyph unicode="&#xa2;" horiz-adv-x="472" d="M267 73Q207 73 168 91T106 143T76 221T67 315Q67 362 76 406T107 484T168 539T266 559Q308 559 338 551T390 524Q395 519 396 517T398 508V465Q398 459 394 459T386 462Q366 482 335 490T273 499Q234 499 208 483T167
439T145 380T138 314Q138 258 151 217T193 153T271 130Q302 130 327 136T375 154Q385 160 389 150L404 118Q406 113 405 111T400 105Q376 89 341 81T267 73ZM299 106V-86Q299 -89 298 -91T291 -94H234Q230 -94 228 -92T225 -81V106H299ZM225 520V698Q225 703 227
705T234 707H291Q296 707 297 705T299 697V520H225Z" />
<glyph unicode="&#xa3;" horiz-adv-x="526" d="M356 -13Q320 -13 287 -4T216 15Q191 21 168 23T121 21Q107 19 89 16T55 8Q49 6 46 7T42 14Q42 24 42 33T42 53Q42 58 44 61T52 68Q98 86 123 115T158 183T162 265Q139 265 116 265T68 265Q63 265 60 266T57 272Q57
281 57 289T57 307Q57 314 59 316T65 318Q86 318 107 318T150 318Q128 381 115 432T101 517Q101 557 122 593T183 652T283 675Q299 675 320 672T361 664T397 652Q401 651 402 646T404 638Q404 629 404 619T404 598Q404 592 402 591T392 593Q369 603 339 610T289
618Q250 618 225 604T187 567T175 517Q175 481 188 433T221 318Q251 318 280 318T339 318Q344 318 345 316T346 307Q346 299 346 291T346 273Q346 268 345 267T338 265Q311 265 284 265T230 265Q230 259 230 254T232 243Q234 196 222 154T177 76Q213 74 242 66T300
51T357 44Q384 44 409 51T449 66Q459 70 459 60V27Q459 19 457 15T453 10Q435 -2 411 -7T356 -13Z" />
<glyph unicode="&#xa4;" horiz-adv-x="529" d="M96 149L70 174Q67 178 67 180T69 185L152 266Q143 282 137 299T131 336Q131 355 136 373T153 407L80 477Q78 479 79 482T82 487L109 514Q113 517 114 517T119 514L190 444Q206 455 224 461T264 467Q305 467 338
444L410 514Q413 516 415 516T420 514L447 487Q450 485 451 482T449 477L375 406Q386 391 391 373T397 336Q397 298 376 266L460 185Q463 183 463 181T459 174L433 149Q429 146 427 146T421 149L338 228Q306 206 264 206Q222 206 190 228L108 149Q105 146 102 146T96
149ZM180 336Q180 300 203 277T264 253Q300 253 324 276T348 336Q348 371 324 395T264 419Q227 419 204 395T180 336Z" />
<glyph unicode="&#xa5;" horiz-adv-x="533" d="M316 302Q310 294 308 280T305 254V7Q305 4 303 2T297 0H239Q232 0 232 7V252Q232 270 225 288T210 318Q201 330 189 348T165 386T142 423T127 450Q99 503 80 548T51 623T39 660Q37 667 40 670T49 673H104Q111 673
114 662Q118 651 129 622T157 556T192 482Q205 456 221 429T256 375Q262 367 266 366T277 374Q288 388 299 406T322 443T342 479Q360 514 376 552T403 621T418 663Q420 669 422 671T429 673H486Q490 673 493 670T494 660Q493 654 484 625T456 551T410 454Q404 441
393 422T368 380T342 338T316 302ZM95 242Q90 242 89 244T88 249V279Q88 284 89 285T96 287H435Q439 287 440 286T442 280V248Q442 245 441 244T434 242H95ZM95 143Q90 143 89 145T88 150V180Q88 185 89 186T96 188H435Q439 188 440 187T442 180V149Q442 146 441
145T434 143H95Z" />
<glyph unicode="&#xa6;" horiz-adv-x="273" d="M174 281V-107Q174 -110 172 -112T165 -115H109Q105 -115 103 -113T100 -102V281H174ZM100 366V698Q100 703 102 705T109 707H165Q171 707 172 705T174 697V366H100Z" />
<glyph unicode="&#xa7;" horiz-adv-x="512" d="M67 -197V-153Q67 -148 70 -148T78 -151Q96 -157 118 -162T161 -171T199 -174Q261 -174 293 -140T325 -50Q325 -9 309 14T267 49T211 71Q186 77 158 86T106 112T66 157T51 234Q51 289 77 330T146 393T242 415Q255
415 278 412T327 403T370 389Q375 388 377 385T379 377V334Q379 319 361 328Q349 334 328 340T284 351T246 356Q210 356 180 342T131 302T113 243Q114 209 127 188T161 155T205 136T253 122Q280 114 305 103T350 74T381 28T393 -46Q393 -105 370 -145T303 -207T199
-229Q173 -229 139 -223T76 -207Q72 -206 70 -204T67 -197ZM173 98V142Q173 145 178 146T190 146T199 144Q225 130 253 125T307 119Q360 121 391 149T423 240Q423 276 408 296T366 327T311 347Q285 353 258 362T206 387T168 433T153 508Q153 562 178 596T244 647T333
663Q346 663 368 661T413 653T454 640Q458 638 460 636T463 630V592Q463 579 447 587Q433 593 412 599T371 608T337 612Q284 612 251 586T218 512Q218 480 231 460T264 429T308 410T356 396Q391 386 421 370T471 325T490 243Q490 180 466 141T402 85T310 68Q278
68 248 72T183 88Q178 90 176 92T173 98Z" />
<glyph unicode="&#xa8;" horiz-adv-x="223" d="M80 573Q80 557 72 549T41 540Q20 540 12 548T3 573Q3 590 11 598T41 607Q64 607 72 599T80 573ZM219 573Q219 557 212 549T181 540Q159 540 151 548T143 573Q143 590 151 598T181 607Q205 607 212 599T219 573Z" />
<glyph unicode="&#xa9;" horiz-adv-x="867" d="M67 333Q67 406 95 470T174 584T290 661T434 689Q510 689 576 661T693 584T772 471T801 333Q801 259 773 194T694 80T577 3T434 -25Q357 -25 291 3T174 80T96 194T67 333ZM125 333Q125 270 149 215T215 118T314 52T434
28Q498 28 553 52T651 117T718 214T742 333Q742 395 718 450T652 546T554 611T434 635Q370 635 314 612T216 547T149 450T125 333ZM259 337Q259 402 284 444T355 508T457 529Q476 529 499 527T543 519Q548 518 551 517T555 511V479Q555 472 542 477Q523 483 503
486T464 490Q422 490 390 474T339 424T321 339Q321 284 340 243T400 182T497 173Q510 174 523 178T543 185Q552 189 554 188T557 183V156Q557 151 555 149T547 144Q538 141 523 139T496 134Q427 122 373 143T289 214T259 337Z" />
<glyph unicode="&#xaa;" horiz-adv-x="481" d="M232 -8Q183 -8 142 3T75 46T50 138Q50 189 67 221T112 271T172 296T233 303Q263 303 292 300T339 293Q353 290 353 313Q353 373 324 397T231 422Q192 422 158 411T102 386Q96 382 93 383T90 389L84 427Q83 433 84
435T90 441Q114 458 150 467T232 477Q296 477 334 462T391 422T416 365T423 296Q424 247 424 205T421 123T415 39Q414 32 410 27T391 15Q376 10 356 6T314 -2T271 -6T232 -8ZM237 41Q246 41 262 42T297 47T328 57T343 74Q347 104 349 144T350 219Q350 239 336 243Q323
247 294 250T231 254Q216 254 197 249T160 232T132 197T120 138Q120 104 135 83T176 51T237 41Z" />
<glyph unicode="&#xab;" horiz-adv-x="561" d="M411 162Q406 162 403 166Q368 206 334 246T264 327Q255 337 264 346Q299 386 333 426T403 507Q405 509 407 509T411 510Q424 510 443 510T473 510Q479 510 478 508T475 503Q474 502 460 485T424 443T383 394T348
353T334 336Q334 336 348 320T382 279T424 230T459 188T475 169Q477 168 478 165T473 162Q463 162 444 162T411 162ZM202 162Q197 162 194 166Q159 206 125 246T55 327Q46 337 55 346Q90 386 124 426T194 507Q196 509 198 509T202 510Q215 510 234 510T264 510Q270
510 269 508T266 503Q265 502 251 485T215 443T174 394T139 353T125 336Q125 336 139 320T173 279T215 230T250 188T266 169Q268 168 269 165T264 162Q254 162 235 162T202 162Z" />
<glyph unicode="&#xac;" horiz-adv-x="667" d="M576 104Q572 104 571 105T569 110V289H57Q52 289 51 291T50 296V332Q50 336 51 337T58 339H610Q614 339 615 338T617 333V110Q617 106 616 105T610 104H576Z" />
<glyph unicode="&#xad;" horiz-adv-x="413" d="M74 251Q69 251 68 253T67 258V298Q67 302 68 303T74 305H340Q344 305 345 304T347 298V257Q347 254 346 253T340 251H74Z" />
<glyph unicode="&#xae;" horiz-adv-x="709" d="M355 189Q299 189 250 209T163 264T105 345T83 445Q83 498 104 544T163 625T250 680T355 700Q430 700 491 666T589 574T626 445Q626 392 605 346T547 264T460 209T355 189ZM355 230Q418 230 469 259T550 337T581
445Q581 504 551 552T469 629T355 658Q293 658 241 630T159 553T128 445Q128 386 158 338T241 260T355 230ZM276 311Q272 311 272 314V581Q272 584 276 584H345Q398 584 423 565T449 498Q449 471 436 452T396 424Q391 421 390 419T390 411Q397 395 405 381T425
359Q434 352 447 348T470 344Q474 344 475 344T476 341V316Q476 314 475 314T466 313Q446 313 432 317T404 330Q385 343 370 363T350 406Q349 408 348 410T342 412H315Q312 412 312 408V314Q312 311 308 311H276ZM312 445Q312 441 315 441H349Q379 441 394 454T410
498Q410 532 395 544T344 557H315Q312 557 312 553V445Z" />
<glyph unicode="&#xaf;" horiz-adv-x="213" d="M213 546Q213 544 212 543T207 542H6Q2 542 1 543T0 547V585Q0 589 1 590T6 591H207Q211 591 212 590T213 585V546Z" />
<glyph unicode="&#xb0;" horiz-adv-x="399" d="M67 695Q67 731 85 760T133 808T199 826Q236 826 266 808T314 761T332 695Q332 659 315 630T267 583T199 565Q163 565 133 582T85 629T67 695ZM115 695Q115 659 139 635T199 611Q235 611 259 635T283 695Q283 730
259 753T199 777Q163 777 139 754T115 695Z" />
<glyph unicode="&#xb1;" horiz-adv-x="450" d="M204 151Q199 151 197 152T195 158V289H57Q53 289 52 291T50 296V332Q50 336 51 337T57 339H195V470Q195 474 197 475T203 477H245Q248 477 249 476T251 469V339L394 338Q397 338 398 337T400 331V294Q400 292 399
291T393 289H251V158Q251 154 249 153T243 151H204ZM59 50Q53 50 52 52T50 58V92Q50 97 51 98T59 100H391Q396 100 398 99T400 93V56Q400 53 398 52T390 50H59Z" />
<glyph unicode="&#xb2;" horiz-adv-x="341" d="M40 250Q36 250 35 251T33 256V289Q33 296 38 300Q72 321 108 349T176 409T228 479T248 554Q248 596 222 618T154 640Q131 640 110 634T75 620T52 609Q43 606 43 612V651Q43 655 44 657T52 662Q65 669 95 680T161
691Q197 691 230 678T284 634T306 556Q306 516 291 481T249 413T191 354T125 302Q122 300 123 298T125 296H302Q307 296 307 292V256Q307 252 307 251T301 250H40Z" />
<glyph unicode="&#xb3;" horiz-adv-x="332" d="M148 247Q113 247 81 260T27 296Q24 299 24 302T27 307L48 333Q53 340 60 334Q78 316 100 307T147 298Q176 298 195 309T225 339T236 376Q236 404 212 430T138 457Q134 457 130 457T121 457Q114 457 114 465V497Q114
505 121 505Q126 505 134 505T147 505Q184 506 205 528T227 576Q227 601 208 621T148 641Q126 641 102 632T60 607Q52 601 47 609L29 641Q27 644 28 647T32 652Q60 673 93 682T152 691Q194 691 223 676T267 635T282 582Q282 550 265 524T218 484Q213 482 212 482T210
481Q210 480 212 480T219 477Q253 466 272 441T292 377Q292 345 276 315T227 266T148 247Z" />
<glyph unicode="&#xb4;" horiz-adv-x="127" d="M6 529Q0 529 0 531T3 538L58 626Q61 632 71 632H123Q126 632 127 630T125 624L54 534Q52 531 50 530T42 529H6Z" />
<glyph unicode="&#xb5;" horiz-adv-x="525" d="M83 -113Q77 -113 75 -111T71 -100Q71 -63 71 -20T70 66T70 140Q69 162 68 183T67 220Q67 266 69 312T73 396T77 458Q77 467 80 469T92 472H137Q144 472 146 470T148 460Q147 451 146 426T143 364T140 285T139 202Q139
127 167 91T263 55Q309 55 333 69T358 102V463Q358 468 359 470T365 472H421Q425 472 427 470T429 463V110Q429 78 439 65T469 52Q479 52 488 55T502 62Q512 68 516 59L527 26Q530 17 518 11Q504 4 491 0T457 -4Q442 -4 424 2T393 22T376 58L400 52Q375 24 338
10T259 -4Q209 -4 171 16T114 77L134 84Q136 61 137 37T139 -12Q140 -27 141 -45T142 -79T143 -101Q143 -108 141 -110T132 -113H83Z" />
<glyph unicode="&#xb6;" horiz-adv-x="512" d="M243 314Q234 314 226 314T209 315Q170 316 141 333T91 377T60 435T50 498Q50 546 68 585T127 649T229 673Q289 673 348 673T466 673Q471 673 473 672T475 665V630Q475 624 474 622T468 620Q459 620 450 620T431
620Q431 544 431 455T431 274T431 93T431 -73Q431 -78 430 -79T425 -80H379Q374 -80 373 -79T371 -73Q371 3 371 91T371 271T371 451T371 616Q371 619 365 620Q352 620 337 620T308 620Q303 620 303 615V-73Q303 -78 303 -79T298 -80H248Q245 -80 244 -79T243 -73V314Z"
/>
<glyph unicode="&#xb7;" horiz-adv-x="295" d="M168 277Q168 259 161 251T127 242Q105 242 96 250T87 277Q87 294 96 302T127 311Q153 311 160 303T168 277Z" />
<glyph unicode="&#xb8;" horiz-adv-x="193" d="M170 -122Q170 -150 147 -172T83 -194Q57 -194 36 -184T4 -158Q0 -153 0 -149T5 -142L23 -133Q30 -130 32 -130T36 -135Q43 -144 55 -151T80 -158Q102 -158 112 -146T123 -121Q123 -105 112 -97T84 -86T50 -82Q44
-82 42 -77T43 -66L79 -6Q82 -1 85 0T92 1H113Q123 1 118 -7L89 -70L78 -54Q118 -56 144 -72T170 -122Z" />
<glyph unicode="&#xb9;" horiz-adv-x="179" d="M81 250Q75 250 75 256V617Q75 623 69 619L-4 580Q-6 579 -8 579T-13 582L-30 612Q-34 618 -28 622L84 684Q88 686 90 686T97 687H128Q134 687 134 681V256Q134 250 128 250H81Z" />
<glyph unicode="&#xba;" horiz-adv-x="493" d="M246 -6Q165 -6 120 25T58 111T40 237Q40 307 59 361T124 447T246 478Q324 478 369 447T433 362T453 237Q453 167 436 112T374 26T246 -6ZM246 51Q321 51 350 99T380 236Q380 324 348 371T246 418Q177 418 145 371T112
236Q112 147 142 99T246 51Z" />
<glyph unicode="&#xbb;" horiz-adv-x="569" d="M305 162Q299 162 300 165T303 169Q304 170 319 187T355 229T396 278T430 319T444 336Q444 336 430 352T396 393T355 443T319 485T303 503Q302 505 301 507T305 510Q315 510 335 510T368 510Q370 510 371 510T376
507Q410 467 444 427T514 346Q524 337 514 327Q479 287 445 247T376 166Q372 162 368 162Q355 162 335 162T305 162ZM88 162Q82 162 83 165T86 169Q87 170 102 187T137 229T178 278T213 319T227 336Q227 336 213 352T179 393T138 443T102 485T86 503Q85 505 84
507T88 510Q98 510 118 510T151 510Q153 510 154 510T159 507Q193 467 227 427T297 346Q307 337 297 327Q262 287 228 247T159 166Q155 162 151 162Q138 162 118 162T88 162Z" />
<glyph unicode="&#xbc;" horiz-adv-x="771" d="M181 245Q176 245 176 250V638Q176 644 170 641L92 596Q86 593 84 598L69 623Q66 628 71 631L182 695Q186 697 188 698T194 699H220Q226 699 226 693V250Q226 245 220 245H181ZM598 -2Q593 -2 593 3V118Q593 125
586 125H401Q396 125 396 130V155Q396 159 398 162T401 168L593 453Q595 457 597 458T602 460H635Q640 460 640 454V171Q640 164 647 164H693Q697 164 697 160V129Q697 125 693 125H647Q640 125 640 118V3Q640 -2 636 -2H598ZM458 164H586Q593 164 593 171V376Q593
379 592 379T589 377L454 172Q452 168 452 166T458 164ZM170 0Q163 0 163 3T165 10L562 692Q565 698 567 699T574 700H607Q613 700 614 698T610 684L219 10Q216 6 213 3T204 0H170Z" />
<glyph unicode="&#xbd;" horiz-adv-x="832" d="M163 0Q156 0 156 3T159 10L555 692Q558 698 560 699T567 700H600Q606 700 607 698T604 684L212 10Q209 6 206 3T198 0H163ZM181 245Q176 245 176 250V638Q176 644 170 641L92 596Q86 593 84 598L69 623Q66 628 71
631L182 695Q186 697 188 698T194 699H220Q226 699 226 693V250Q226 245 220 245H181ZM490 0Q486 0 485 1T484 5V34Q484 40 488 42Q522 65 559 94T628 158T681 231T701 312Q701 344 688 364T653 395T604 405Q581 405 561 399T528 385T507 376Q496 372 496 377V409Q496
413 497 415T504 419Q511 424 527 431T564 443T608 448Q643 448 675 434T727 391T748 314Q748 271 732 233T689 161T628 98T558 44Q557 42 557 41T561 39H746Q750 39 750 35V5Q750 1 749 1T745 0H490Z" />
<glyph unicode="&#xbe;" horiz-adv-x="798" d="M625 -2Q620 -2 620 3V118Q620 125 613 125H429Q423 125 423 130V155Q423 159 425 162T429 168L621 453Q623 457 625 458T630 460H662Q667 460 667 454V171Q667 164 674 164H720Q724 164 724 160V129Q724 125 720
125H674Q667 125 667 118V3Q667 -2 663 -2H625ZM485 164H613Q620 164 620 171V376Q620 379 619 379T616 377L481 172Q479 168 479 166T485 164ZM167 253Q146 253 125 258T85 274T53 298Q51 301 51 303T53 308L70 329Q75 335 79 330Q97 312 119 303T166 294Q195
294 215 307T247 340T258 380Q258 401 247 421T213 454T158 467Q154 467 151 467T144 467Q141 467 140 468T138 474V501Q138 507 144 507Q147 507 152 507T165 507Q192 508 211 520T239 550T249 586Q249 605 240 621T213 647T167 658Q146 658 122 648T80 625Q74
619 70 626L55 652Q53 654 54 656T56 660Q74 673 94 681T133 694T170 698Q210 698 237 683T279 643T293 590Q293 559 277 533T231 491Q223 489 223 488Q223 487 232 483Q266 470 284 444T303 381Q303 349 287 320T241 272T167 253ZM193 0Q186 0 186 3T188 10L585
692Q588 698 589 699T596 700H630Q636 700 637 698T633 684L242 10Q239 6 236 3T227 0H193Z" />
<glyph unicode="&#xbf;" horiz-adv-x="448" d="M320 303Q327 303 327 300T328 291Q328 240 321 205T299 146T263 103T213 64Q199 54 183 42T154 16T133 -14T126 -51Q127 -91 157 -113T238 -136Q276 -136 309 -127T363 -109Q371 -105 373 -105T377 -111L389 -151Q391
-156 388 -159T379 -166Q353 -181 314 -188T241 -196Q158 -196 108 -156T58 -49Q58 -1 76 27T119 73T168 106Q205 130 226 155T256 213T265 293Q265 299 266 301T271 303H320ZM336 452Q336 435 327 427T296 418Q272 418 265 426T257 452Q257 469 264 478T296 487Q318
487 327 478T336 452Z" />
<glyph unicode="&#xc0;" horiz-adv-x="553" d="M45 0Q40 0 39 3T39 17Q46 64 60 130T93 271T133 420T178 557T222 663Q225 668 228 670T235 673H317Q322 672 325 670T332 662Q352 622 374 558T419 419T460 268T494 127T514 17Q516 7 515 4T508 0H451Q447 0 446
2T441 14Q437 41 430 77T415 152Q414 158 412 160T402 162H150Q144 161 142 160T138 151Q130 114 123 78T111 13Q110 5 109 3T102 0H45ZM165 220H386Q391 220 393 223T394 235Q372 320 350 406T295 570Q293 576 286 576H267Q261 576 259 569Q243 530 225 474T189
354T158 231Q157 227 158 224T165 220ZM280 719Q276 719 274 721T267 726L182 799Q180 801 181 803T185 806H243Q248 806 250 805T257 799L321 728Q324 725 324 722T319 719H280Z" />
<glyph unicode="&#xc1;" horiz-adv-x="553" d="M45 0Q40 0 39 3T39 17Q46 64 60 130T93 271T133 420T178 557T222 663Q225 668 228 670T235 673H317Q322 672 325 670T332 662Q352 622 374 558T419 419T460 268T494 127T514 17Q516 7 515 4T508 0H451Q447 0 446
2T441 14Q437 41 430 77T415 152Q414 158 412 160T402 162H150Q144 161 142 160T138 151Q130 114 123 78T111 13Q110 5 109 3T102 0H45ZM165 220H386Q391 220 393 223T394 235Q372 320 350 406T295 570Q293 576 286 576H267Q261 576 259 569Q243 530 225 474T189
354T158 231Q157 227 158 224T165 220ZM270 719H232Q227 719 227 722T230 728L294 799Q298 803 300 804T308 806H366Q369 806 370 804T369 799L284 726Q280 723 277 721T270 719Z" />
<glyph unicode="&#xc2;" horiz-adv-x="553" d="M45 0Q40 0 39 3T39 17Q46 64 60 130T93 271T133 420T178 557T222 663Q225 668 228 670T235 673H317Q322 672 325 670T332 662Q352 622 374 558T419 419T460 268T494 127T514 17Q516 7 515 4T508 0H451Q447 0 446
2T441 14Q437 41 430 77T415 152Q414 158 412 160T402 162H150Q144 161 142 160T138 151Q130 114 123 78T111 13Q110 5 109 3T102 0H45ZM165 220H386Q391 220 393 223T394 235Q372 320 350 406T295 570Q293 576 286 576H267Q261 576 259 569Q243 530 225 474T189
354T158 231Q157 227 158 224T165 220ZM183 718Q179 718 179 720T179 725L247 803Q250 807 254 807H299Q304 807 307 803L374 725Q376 723 376 721T371 718H338Q334 718 332 719T326 723L282 764Q278 767 273 764L227 722Q225 721 223 720T217 718H183Z" />
<glyph unicode="&#xc3;" horiz-adv-x="553" d="M45 0Q40 0 39 3T39 17Q46 64 60 130T93 271T133 420T178 557T222 663Q225 668 228 670T235 673H317Q322 672 325 670T332 662Q352 622 374 558T419 419T460 268T494 127T514 17Q516 7 515 4T508 0H451Q447 0 446
2T441 14Q437 41 430 77T415 152Q414 158 412 160T402 162H150Q144 161 142 160T138 151Q130 114 123 78T111 13Q110 5 109 3T102 0H45ZM165 220H386Q391 220 393 223T394 235Q372 320 350 406T295 570Q293 576 286 576H267Q261 576 259 569Q243 530 225 474T189
354T158 231Q157 227 158 224T165 220ZM186 720Q181 720 181 725Q181 756 196 775T238 794Q252 794 266 785T294 766T316 756Q322 756 327 763T332 781Q332 788 336 788H367Q372 788 372 782Q372 756 357 735T316 714Q299 714 285 724T259 743T238 752Q230 752
226 745T221 726Q221 720 216 720H186Z" />
<glyph unicode="&#xc4;" horiz-adv-x="553" d="M45 0Q40 0 39 3T39 17Q46 64 60 130T93 271T133 420T178 557T222 663Q225 668 228 670T235 673H317Q322 672 325 670T332 662Q352 622 374 558T419 419T460 268T494 127T514 17Q516 7 515 4T508 0H451Q447 0 446
2T441 14Q437 41 430 77T415 152Q414 158 412 160T402 162H150Q144 161 142 160T138 151Q130 114 123 78T111 13Q110 5 109 3T102 0H45ZM165 220H386Q391 220 393 223T394 235Q372 320 350 406T295 570Q293 576 286 576H267Q261 576 259 569Q243 530 225 474T189
354T158 231Q157 227 158 224T165 220ZM246 773Q246 757 238 749T207 740Q186 740 178 748T169 773Q169 790 177 798T207 807Q230 807 238 799T246 773ZM385 773Q385 757 378 749T347 740Q325 740 317 748T309 773Q309 790 317 798T347 807Q371 807 378 799T385
773Z" />
<glyph unicode="&#xc5;" horiz-adv-x="553" d="M45 0Q40 0 39 3T39 17Q46 64 60 130T93 271T133 420T178 557T222 663Q225 668 228 670T235 673H317Q322 672 325 670T332 662Q352 622 374 558T419 419T460 268T494 127T514 17Q516 7 515 4T508 0H451Q447 0 446
2T441 14Q437 41 430 77T415 152Q414 158 412 160T402 162H150Q144 161 142 160T138 151Q130 114 123 78T111 13Q110 5 109 3T102 0H45ZM165 220H386Q391 220 393 223T394 235Q372 320 350 406T295 570Q293 576 286 576H267Q261 576 259 569Q243 530 225 474T189
354T158 231Q157 227 158 224T165 220ZM360 790Q360 755 341 734T277 712Q231 712 212 733T193 790Q193 824 212 845T277 866Q321 866 340 845T360 790ZM323 792Q323 808 315 818T278 829Q248 829 240 819T231 792Q231 778 239 764T278 750Q310 750 316 764T323
792Z" />
<glyph unicode="&#xc6;" horiz-adv-x="771" d="M397 0Q390 0 390 7V162H156Q151 161 149 160T143 151Q131 114 121 78T106 13Q105 5 104 3T97 0H40Q35 0 34 3T34 17Q41 64 62 129T113 268T178 415T249 553T316 663Q319 668 323 670T331 673H712Q718 673 719 672T721
665V623Q721 617 720 616T712 614H470Q465 614 464 613T462 607V376Q462 372 464 370T470 368H668Q674 368 675 367T677 358V320Q677 314 676 312T668 310H470Q465 310 464 309T462 303V67Q462 63 463 61T470 58H711Q718 58 719 57T721 49V10Q721 3 719 2T711 0H397ZM390
220V593Q388 598 385 598H360Q357 598 355 597T350 591Q325 552 293 492T229 363T170 230Q169 229 170 225T176 220H390Z" />
<glyph unicode="&#xc7;" horiz-adv-x="450" d="M415 21Q415 8 399 3Q385 -2 366 -4T328 -8T300 -9Q188 -9 120 77T51 335Q51 507 117 593T300 680Q310 680 328 679T365 675T399 668Q407 666 411 662T415 653V605Q415 589 400 598Q386 607 362 614T307 621Q254
621 219 599T164 538T135 451T126 349Q126 313 130 273T144 193T175 121T228 69T307 49Q339 49 363 56T399 70Q408 76 411 75T415 64V21ZM367 -122Q367 -150 344 -172T280 -194Q254 -194 233 -184T201 -158Q197 -153 197 -149T202 -142L220 -133Q227 -130 229 -130T233
-135Q240 -144 252 -151T277 -158Q299 -158 309 -146T320 -121Q320 -105 309 -97T281 -86T247 -82Q241 -82 239 -77T240 -66L276 -6Q279 -1 282 0T289 1H310Q320 1 315 -7L286 -70L275 -54Q315 -56 341 -72T367 -122Z" />
<glyph unicode="&#xc8;" horiz-adv-x="446" d="M88 0Q80 0 80 7V665Q80 673 88 673H403Q409 673 410 672T411 665V623Q411 617 410 616T403 614H160Q155 614 154 613T153 607V376Q153 372 155 370T160 368H358Q364 368 365 367T367 358V320Q367 314 366 312T358
310H160Q155 310 154 309T153 303V67Q153 63 154 61T160 58H402Q409 58 410 57T411 49V10Q411 3 410 2T402 0H88ZM244 719Q240 719 238 721T231 726L146 799Q144 801 145 803T149 806H207Q212 806 214 805T221 799L285 728Q288 725 288 722T283 719H244Z" />
<glyph unicode="&#xc9;" horiz-adv-x="446" d="M88 0Q80 0 80 7V665Q80 673 88 673H403Q409 673 410 672T411 665V623Q411 617 410 616T403 614H160Q155 614 154 613T153 607V376Q153 372 155 370T160 368H358Q364 368 365 367T367 358V320Q367 314 366 312T358
310H160Q155 310 154 309T153 303V67Q153 63 154 61T160 58H402Q409 58 410 57T411 49V10Q411 3 410 2T402 0H88ZM234 719H196Q191 719 191 722T194 728L258 799Q262 803 264 804T272 806H330Q333 806 334 804T333 799L248 726Q244 723 241 721T234 719Z" />
<glyph unicode="&#xca;" horiz-adv-x="446" d="M88 0Q80 0 80 7V665Q80 673 88 673H403Q409 673 410 672T411 665V623Q411 617 410 616T403 614H160Q155 614 154 613T153 607V376Q153 372 155 370T160 368H358Q364 368 365 367T367 358V320Q367 314 366 312T358
310H160Q155 310 154 309T153 303V67Q153 63 154 61T160 58H402Q409 58 410 57T411 49V10Q411 3 410 2T402 0H88ZM147 718Q143 718 143 720T143 725L211 803Q214 807 218 807H263Q268 807 271 803L338 725Q340 723 340 721T335 718H302Q298 718 296 719T290 723L246
764Q242 767 237 764L191 722Q189 721 187 720T181 718H147Z" />
<glyph unicode="&#xcb;" horiz-adv-x="446" d="M88 0Q80 0 80 7V665Q80 673 88 673H403Q409 673 410 672T411 665V623Q411 617 410 616T403 614H160Q155 614 154 613T153 607V376Q153 372 155 370T160 368H358Q364 368 365 367T367 358V320Q367 314 366 312T358
310H160Q155 310 154 309T153 303V67Q153 63 154 61T160 58H402Q409 58 410 57T411 49V10Q411 3 410 2T402 0H88ZM209 773Q209 757 201 749T170 740Q149 740 141 748T132 773Q132 790 140 798T170 807Q193 807 201 799T209 773ZM348 773Q348 757 341 749T310 740Q288
740 280 748T272 773Q272 790 280 798T310 807Q334 807 341 799T348 773Z" />
<glyph unicode="&#xcc;" horiz-adv-x="232" d="M153 7Q153 0 145 0H87Q80 0 80 7V665Q80 673 87 673H145Q153 673 153 665V7ZM120 719Q116 719 114 721T107 726L22 799Q20 801 21 803T25 806H83Q88 806 90 805T97 799L161 728Q164 725 164 722T159 719H120Z" />
<glyph unicode="&#xcd;" horiz-adv-x="232" d="M153 7Q153 0 145 0H87Q80 0 80 7V665Q80 673 87 673H145Q153 673 153 665V7ZM110 719H72Q67 719 67 722T70 728L134 799Q138 803 140 804T148 806H206Q209 806 210 804T209 799L124 726Q120 723 117 721T110 719Z" />
<glyph unicode="&#xce;" horiz-adv-x="232" d="M153 7Q153 0 145 0H87Q80 0 80 7V665Q80 673 87 673H145Q153 673 153 665V7ZM23 718Q19 718 19 720T19 725L87 803Q90 807 94 807H139Q144 807 147 803L214 725Q216 723 216 721T211 718H178Q174 718 172 719T166
723L122 764Q118 767 113 764L67 722Q65 721 63 720T57 718H23Z" />
<glyph unicode="&#xcf;" horiz-adv-x="232" d="M153 7Q153 0 145 0H87Q80 0 80 7V665Q80 673 87 673H145Q153 673 153 665V7ZM85 773Q85 757 77 749T46 740Q25 740 17 748T8 773Q8 790 16 798T46 807Q69 807 77 799T85 773ZM224 773Q224 757 217 749T186 740Q164
740 156 748T148 773Q148 790 156 798T186 807Q210 807 217 799T224 773Z" />
<glyph unicode="&#xd0;" horiz-adv-x="566" d="M546 347Q546 259 530 198T486 98T427 38T364 8T306 0H107Q99 0 99 7V665Q99 673 107 673H306Q337 673 370 667T435 643T492 588T531 494T546 347ZM474 347Q474 440 458 494T416 574T361 607T307 614H179Q174 614
173 613T172 608V65Q172 61 173 60T178 58H290Q317 58 348 68T408 109T455 196T474 347ZM275 298Q270 298 269 300T268 305V345Q268 349 269 350T275 352H541Q545 352 546 351T548 345V304Q548 301 547 300T541 298H275Z" />
<glyph unicode="&#xd1;" horiz-adv-x="641" d="M475 157Q477 153 481 153T486 160Q489 195 490 244T492 349T492 462T488 571T479 664Q478 673 484 673H542Q545 673 548 671T551 665Q557 630 560 578T565 462T566 333T563 205T558 92T551 7Q550 3 547 2T539 0H500Q495
0 491 9L164 519Q163 523 160 523T155 518Q153 473 151 420T149 308T149 195T153 91T161 9Q161 0 156 0H99Q95 0 92 1T88 7Q84 41 81 93T77 207T75 336T77 464T82 579T91 665Q91 669 94 671T100 673H140Q145 673 148 666L475 157ZM227 720Q222 720 222 725Q222
756 237 775T279 794Q293 794 307 785T335 766T357 756Q363 756 368 763T373 781Q373 788 377 788H408Q413 788 413 782Q413 756 398 735T357 714Q340 714 326 724T300 743T279 752Q271 752 267 745T262 726Q262 720 257 720H227Z" />
<glyph unicode="&#xd2;" horiz-adv-x="628" d="M51 334Q51 445 73 521T153 637T313 676Q393 676 444 654T525 588T565 481T576 334Q576 251 565 188T525 81T445 15T313 -7Q210 -7 153 32T74 147T51 334ZM127 334Q127 225 146 165T206 80T311 56Q376 56 417 80T480
164T501 334Q501 444 480 505T418 590T311 615Q247 615 207 590T147 505T127 334ZM317 719Q313 719 311 721T304 726L219 799Q217 801 218 803T222 806H280Q285 806 287 805T294 799L358 728Q361 725 361 722T356 719H317Z" />
<glyph unicode="&#xd3;" horiz-adv-x="628" d="M51 334Q51 445 73 521T153 637T313 676Q393 676 444 654T525 588T565 481T576 334Q576 251 565 188T525 81T445 15T313 -7Q210 -7 153 32T74 147T51 334ZM127 334Q127 225 146 165T206 80T311 56Q376 56 417 80T480
164T501 334Q501 444 480 505T418 590T311 615Q247 615 207 590T147 505T127 334ZM308 719H270Q265 719 265 722T268 728L332 799Q336 803 338 804T346 806H404Q407 806 408 804T407 799L322 726Q318 723 315 721T308 719Z" />
<glyph unicode="&#xd4;" horiz-adv-x="628" d="M51 334Q51 445 73 521T153 637T313 676Q393 676 444 654T525 588T565 481T576 334Q576 251 565 188T525 81T445 15T313 -7Q210 -7 153 32T74 147T51 334ZM127 334Q127 225 146 165T206 80T311 56Q376 56 417 80T480
164T501 334Q501 444 480 505T418 590T311 615Q247 615 207 590T147 505T127 334ZM221 718Q217 718 217 720T217 725L285 803Q288 807 292 807H337Q342 807 345 803L412 725Q414 723 414 721T409 718H376Q372 718 370 719T364 723L320 764Q316 767 311 764L265
722Q263 721 261 720T255 718H221Z" />
<glyph unicode="&#xd5;" horiz-adv-x="628" d="M51 334Q51 445 73 521T153 637T313 676Q393 676 444 654T525 588T565 481T576 334Q576 251 565 188T525 81T445 15T313 -7Q210 -7 153 32T74 147T51 334ZM127 334Q127 225 146 165T206 80T311 56Q376 56 417 80T480
164T501 334Q501 444 480 505T418 590T311 615Q247 615 207 590T147 505T127 334ZM224 720Q219 720 219 725Q219 756 234 775T276 794Q290 794 304 785T332 766T354 756Q360 756 365 763T370 781Q370 788 374 788H405Q410 788 410 782Q410 756 395 735T354 714Q337
714 323 724T297 743T276 752Q268 752 264 745T259 726Q259 720 254 720H224Z" />
<glyph unicode="&#xd6;" horiz-adv-x="628" d="M51 334Q51 445 73 521T153 637T313 676Q393 676 444 654T525 588T565 481T576 334Q576 251 565 188T525 81T445 15T313 -7Q210 -7 153 32T74 147T51 334ZM127 334Q127 225 146 165T206 80T311 56Q376 56 417 80T480
164T501 334Q501 444 480 505T418 590T311 615Q247 615 207 590T147 505T127 334ZM283 773Q283 757 275 749T244 740Q223 740 215 748T206 773Q206 790 214 798T244 807Q267 807 275 799T283 773ZM422 773Q422 757 415 749T384 740Q362 740 354 748T346 773Q346
790 354 798T384 807Q408 807 415 799T422 773Z" />
<glyph unicode="&#xd7;" horiz-adv-x="476" d="M43 145Q41 149 40 151T42 156L199 307L54 448Q51 450 52 453T56 457L83 485Q86 487 88 487T92 485L238 343L384 485Q387 487 388 487T393 485L421 457Q424 456 424 453T423 448L278 307L434 156Q437 153 437 151T432
145L406 120Q403 117 401 117T395 120L238 271L81 120Q78 117 76 117T69 120L43 145Z" />
<glyph unicode="&#xd8;" horiz-adv-x="628" d="M143 -42Q141 -46 139 -48T131 -50H79Q76 -50 76 -48T77 -42L475 708Q477 712 479 713T485 714H535Q540 714 540 712T536 700L143 -42ZM51 334Q51 445 73 521T153 637T313 676Q393 676 444 654T525 588T565 481T576
334Q576 251 565 188T525 81T445 15T313 -7Q210 -7 153 32T74 147T51 334ZM127 334Q127 225 146 165T206 80T311 56Q376 56 417 80T480 164T501 334Q501 444 480 505T418 590T311 615Q247 615 207 590T147 505T127 334Z" />
<glyph unicode="&#xd9;" horiz-adv-x="634" d="M317 -6Q235 -6 188 13T118 61T88 120T77 173Q73 215 71 264T70 362Q71 411 73 464T79 568T90 663Q90 667 92 670T99 673Q113 673 126 673T153 673Q158 673 159 671T160 661Q156 621 153 577T147 486Q143 406 143
328T149 181Q151 161 157 139T179 97T228 65T315 52Q370 52 402 64T452 96T475 138T484 181Q490 248 490 324T486 480Q484 528 481 574T473 661Q472 669 473 671T479 673Q494 673 507 673T536 673Q540 673 542 670T544 663Q551 619 555 569T561 466T564 365Q565
316 564 266T557 173Q555 155 550 132T533 84T494 40T425 7T317 -6ZM320 719Q316 719 314 721T307 726L222 799Q220 801 221 803T225 806H283Q288 806 290 805T297 799L361 728Q364 725 364 722T359 719H320Z" />
<glyph unicode="&#xda;" horiz-adv-x="634" d="M317 -6Q235 -6 188 13T118 61T88 120T77 173Q73 215 71 264T70 362Q71 411 73 464T79 568T90 663Q90 667 92 670T99 673Q113 673 126 673T153 673Q158 673 159 671T160 661Q156 621 153 577T147 486Q143 406 143
328T149 181Q151 161 157 139T179 97T228 65T315 52Q370 52 402 64T452 96T475 138T484 181Q490 248 490 324T486 480Q484 528 481 574T473 661Q472 669 473 671T479 673Q494 673 507 673T536 673Q540 673 542 670T544 663Q551 619 555 569T561 466T564 365Q565
316 564 266T557 173Q555 155 550 132T533 84T494 40T425 7T317 -6ZM311 719H273Q268 719 268 722T271 728L335 799Q339 803 341 804T349 806H407Q410 806 411 804T410 799L325 726Q321 723 318 721T311 719Z" />
<glyph unicode="&#xdb;" horiz-adv-x="634" d="M317 -6Q235 -6 188 13T118 61T88 120T77 173Q73 215 71 264T70 362Q71 411 73 464T79 568T90 663Q90 667 92 670T99 673Q113 673 126 673T153 673Q158 673 159 671T160 661Q156 621 153 577T147 486Q143 406 143
328T149 181Q151 161 157 139T179 97T228 65T315 52Q370 52 402 64T452 96T475 138T484 181Q490 248 490 324T486 480Q484 528 481 574T473 661Q472 669 473 671T479 673Q494 673 507 673T536 673Q540 673 542 670T544 663Q551 619 555 569T561 466T564 365Q565
316 564 266T557 173Q555 155 550 132T533 84T494 40T425 7T317 -6ZM224 718Q220 718 220 720T220 725L288 803Q291 807 295 807H340Q345 807 348 803L415 725Q417 723 417 721T412 718H379Q375 718 373 719T367 723L323 764Q319 767 314 764L268 722Q266 721 264
720T258 718H224Z" />
<glyph unicode="&#xdc;" horiz-adv-x="634" d="M317 -6Q235 -6 188 13T118 61T88 120T77 173Q73 215 71 264T70 362Q71 411 73 464T79 568T90 663Q90 667 92 670T99 673Q113 673 126 673T153 673Q158 673 159 671T160 661Q156 621 153 577T147 486Q143 406 143
328T149 181Q151 161 157 139T179 97T228 65T315 52Q370 52 402 64T452 96T475 138T484 181Q490 248 490 324T486 480Q484 528 481 574T473 661Q472 669 473 671T479 673Q494 673 507 673T536 673Q540 673 542 670T544 663Q551 619 555 569T561 466T564 365Q565
316 564 266T557 173Q555 155 550 132T533 84T494 40T425 7T317 -6ZM286 773Q286 757 278 749T247 740Q226 740 218 748T209 773Q209 790 217 798T247 807Q270 807 278 799T286 773ZM425 773Q425 757 418 749T387 740Q365 740 357 748T349 773Q349 790 357 798T387
807Q411 807 418 799T425 773Z" />
<glyph unicode="&#xdd;" horiz-adv-x="487" d="M293 302Q287 294 285 280T282 254V7Q282 4 280 2T274 0H216Q209 0 209 7V252Q209 270 202 288T187 318Q178 330 166 348T142 386T119 423T104 450Q76 503 57 548T28 623T16 660Q14 667 17 670T26 673H81Q88 673
91 662Q95 651 106 622T134 556T169 482Q182 456 198 429T233 375Q239 367 243 366T254 374Q265 388 276 406T299 443T319 479Q337 514 353 552T380 621T395 663Q397 669 399 671T406 673H463Q467 673 470 670T471 660Q470 654 461 625T433 551T387 454Q381 441
370 422T345 380T319 338T293 302ZM237 719H199Q194 719 194 722T197 728L261 799Q265 803 267 804T275 806H333Q336 806 337 804T336 799L251 726Q247 723 244 721T237 719Z" />
<glyph unicode="&#xde;" horiz-adv-x="464" d="M422 380Q422 316 400 264T335 180T228 148H140Q133 148 133 142V7Q133 0 125 0H68Q60 0 60 7V701Q60 708 68 708H124Q129 708 131 707T133 700V601Q133 598 133 595T136 591H217Q326 591 374 540T422 380ZM351 379Q351
465 318 500T217 536H139Q135 536 134 535T133 530V210Q133 204 139 204H220Q283 204 317 251T351 379Z" />
<glyph unicode="&#xdf;" horiz-adv-x="607" d="M31 -107Q13 -107 4 -106T-9 -101Q-11 -97 -11 -92T-12 -82Q-12 -75 -12 -69T-9 -57Q1 -53 11 -52T30 -48Q53 -42 68 -26T92 21T104 99T108 218Q108 259 108 312T108 423T108 544Q108 578 118 608T150 661T205 696T282
709Q304 709 329 704T378 688T421 659T452 615T464 554Q464 527 457 506T435 468Q421 454 401 444T358 425Q338 416 333 404T333 379T356 360Q387 347 421 330T485 290Q516 268 532 234T549 161Q549 110 525 72T460 14T365 -7Q336 -7 298 1T231 29Q228 31 226 34T224
42Q226 52 228 62T232 83Q233 90 236 90T245 87Q258 78 277 71T318 60T355 56Q390 56 411 70T445 104Q458 120 461 142T456 189Q453 225 432 246T373 285T286 326Q267 334 256 349T245 382T257 417T299 445Q316 451 332 457T362 478Q373 490 383 508T393 556Q392
604 362 627T289 650Q238 650 209 621T179 533Q179 504 179 467T179 388T179 304T179 221T179 145T179 82Q179 -14 142 -60T31 -107Z" />
<glyph unicode="&#xe0;" horiz-adv-x="481" d="M232 -8Q183 -8 142 3T75 46T50 138Q50 189 67 221T112 271T172 296T233 303Q263 303 292 300T339 293Q353 290 353 313Q353 373 324 397T231 422Q192 422 158 411T102 386Q96 382 93 383T90 389L84 427Q83 433 84
435T90 441Q114 458 150 467T232 477Q296 477 334 462T391 422T416 365T423 296Q424 247 424 205T421 123T415 39Q414 32 410 27T391 15Q376 10 356 6T314 -2T271 -6T232 -8ZM237 41Q246 41 262 42T297 47T328 57T343 74Q347 104 349 144T350 219Q350 239 336 243Q323
247 294 250T231 254Q216 254 197 249T160 232T132 197T120 138Q120 104 135 83T176 51T237 41ZM247 530Q240 530 233 536L162 624Q160 627 161 629T165 632H223Q228 632 231 631T237 625L286 538Q291 530 284 530H247Z" />
<glyph unicode="&#xe1;" horiz-adv-x="481" d="M232 -8Q183 -8 142 3T75 46T50 138Q50 189 67 221T112 271T172 296T233 303Q263 303 292 300T339 293Q353 290 353 313Q353 373 324 397T231 422Q192 422 158 411T102 386Q96 382 93 383T90 389L84 427Q83 433 84
435T90 441Q114 458 150 467T232 477Q296 477 334 462T391 422T416 365T423 296Q424 247 424 205T421 123T415 39Q414 32 410 27T391 15Q376 10 356 6T314 -2T271 -6T232 -8ZM237 41Q246 41 262 42T297 47T328 57T343 74Q347 104 349 144T350 219Q350 239 336 243Q323
247 294 250T231 254Q216 254 197 249T160 232T132 197T120 138Q120 104 135 83T176 51T237 41ZM212 529Q206 529 206 531T209 538L264 626Q267 632 277 632H329Q332 632 333 630T331 624L260 534Q258 531 256 530T248 529H212Z" />
<glyph unicode="&#xe2;" horiz-adv-x="481" d="M232 -8Q183 -8 142 3T75 46T50 138Q50 189 67 221T112 271T172 296T233 303Q263 303 292 300T339 293Q353 290 353 313Q353 373 324 397T231 422Q192 422 158 411T102 386Q96 382 93 383T90 389L84 427Q83 433 84
435T90 441Q114 458 150 467T232 477Q296 477 334 462T391 422T416 365T423 296Q424 247 424 205T421 123T415 39Q414 32 410 27T391 15Q376 10 356 6T314 -2T271 -6T232 -8ZM237 41Q246 41 262 42T297 47T328 57T343 74Q347 104 349 144T350 219Q350 239 336 243Q323
247 294 250T231 254Q216 254 197 249T160 232T132 197T120 138Q120 104 135 83T176 51T237 41ZM155 529Q152 529 152 531T152 536L218 626Q221 629 225 629H267Q272 629 274 626L340 536Q342 533 342 531T337 529H302Q297 529 295 532L249 583Q245 587 241 583L197
532Q195 529 190 529H155Z" />
<glyph unicode="&#xe3;" horiz-adv-x="481" d="M232 -8Q183 -8 142 3T75 46T50 138Q50 189 67 221T112 271T172 296T233 303Q263 303 292 300T339 293Q353 290 353 313Q353 373 324 397T231 422Q192 422 158 411T102 386Q96 382 93 383T90 389L84 427Q83 433 84
435T90 441Q114 458 150 467T232 477Q296 477 334 462T391 422T416 365T423 296Q424 247 424 205T421 123T415 39Q414 32 410 27T391 15Q376 10 356 6T314 -2T271 -6T232 -8ZM237 41Q246 41 262 42T297 47T328 57T343 74Q347 104 349 144T350 219Q350 239 336 243Q323
247 294 250T231 254Q216 254 197 249T160 232T132 197T120 138Q120 104 135 83T176 51T237 41ZM154 533Q149 533 149 539Q149 568 165 586T208 604Q223 604 238 596T266 579T288 570Q295 570 300 576T305 592Q305 599 309 599H342Q347 599 347 593Q347 567 331
548T289 528Q271 528 256 537T229 554T208 563Q200 563 195 556T190 539Q190 533 186 533H154Z" />
<glyph unicode="&#xe4;" horiz-adv-x="481" d="M232 -8Q183 -8 142 3T75 46T50 138Q50 189 67 221T112 271T172 296T233 303Q263 303 292 300T339 293Q353 290 353 313Q353 373 324 397T231 422Q192 422 158 411T102 386Q96 382 93 383T90 389L84 427Q83 433 84
435T90 441Q114 458 150 467T232 477Q296 477 334 462T391 422T416 365T423 296Q424 247 424 205T421 123T415 39Q414 32 410 27T391 15Q376 10 356 6T314 -2T271 -6T232 -8ZM237 41Q246 41 262 42T297 47T328 57T343 74Q347 104 349 144T350 219Q350 239 336 243Q323
247 294 250T231 254Q216 254 197 249T160 232T132 197T120 138Q120 104 135 83T176 51T237 41ZM217 573Q217 557 209 549T178 540Q157 540 149 548T140 573Q140 590 148 598T178 607Q201 607 209 599T217 573ZM356 573Q356 557 349 549T318 540Q296 540 288 548T280
573Q280 590 288 598T318 607Q342 607 349 599T356 573Z" />
<glyph unicode="&#xe5;" horiz-adv-x="481" d="M232 -8Q183 -8 142 3T75 46T50 138Q50 189 67 221T112 271T172 296T233 303Q263 303 292 300T339 293Q353 290 353 313Q353 373 324 397T231 422Q192 422 158 411T102 386Q96 382 93 383T90 389L84 427Q83 433 84
435T90 441Q114 458 150 467T232 477Q296 477 334 462T391 422T416 365T423 296Q424 247 424 205T421 123T415 39Q414 32 410 27T391 15Q376 10 356 6T314 -2T271 -6T232 -8ZM237 41Q246 41 262 42T297 47T328 57T343 74Q347 104 349 144T350 219Q350 239 336 243Q323
247 294 250T231 254Q216 254 197 249T160 232T132 197T120 138Q120 104 135 83T176 51T237 41ZM331 590Q331 555 312 534T248 512Q202 512 183 533T164 590Q164 624 183 645T248 666Q292 666 311 645T331 590ZM294 592Q294 608 286 618T249 629Q219 629 211 619T202
592Q202 578 210 564T249 550Q281 550 287 564T294 592Z" />
<glyph unicode="&#xe6;" horiz-adv-x="779" d="M232 -8Q183 -8 142 3T75 46T50 138Q50 189 67 221T112 271T172 296T233 303Q263 303 292 300T339 293Q353 290 353 313Q353 373 324 397T231 422Q192 422 158 411T102 386Q96 382 93 383T90 389Q88 399 87 408T84
427Q83 433 84 435T90 441Q114 458 150 467T232 477Q282 477 314 467T366 440T397 400Q419 436 456 458T552 481Q614 481 650 463T706 415T731 348T737 274Q737 237 730 228T707 219Q640 219 572 219T436 219Q433 219 430 217T426 209Q430 129 463 90T566 50Q601
50 639 58T701 82Q707 86 713 87T724 79L737 54Q740 48 738 46T731 39Q699 15 652 5T554 -5Q499 -5 464 11T409 57Q408 50 407 43T405 28Q404 24 400 21T386 13Q365 6 338 2T282 -5T232 -8ZM349 230Q349 241 332 246T287 252T231 254Q216 254 197 249T160 232T132
197T120 138Q120 104 135 83T176 51T237 41Q246 41 263 42T298 47T330 57T344 75Q346 102 347 146T349 230ZM648 264Q658 264 661 267T665 284Q665 320 656 352T622 404T551 424Q516 424 493 411T455 376T434 331T425 283Q425 273 426 270T434 266Q488 265 541
265T648 264Z" />
<glyph unicode="&#xe7;" horiz-adv-x="395" d="M237 -6Q177 -6 138 12T76 64T46 140T37 235Q37 282 46 325T77 403T138 458T236 478Q278 478 308 470T360 443Q365 438 366 436T368 427V383Q368 377 364 377T356 380Q336 400 305 409T243 418Q205 418 179 402T137
359T115 300T108 234Q108 179 121 138T163 74T241 51Q272 51 297 57T345 75Q355 80 359 71L374 39Q377 34 376 32T370 26Q346 10 311 2T237 -6ZM310 -122Q310 -150 287 -172T223 -194Q197 -194 176 -184T144 -158Q140 -153 140 -149T145 -142L163 -133Q170 -130
172 -130T176 -135Q183 -144 195 -151T220 -158Q242 -158 252 -146T263 -121Q263 -105 252 -97T224 -86T190 -82Q184 -82 182 -77T183 -66L219 -6Q222 -1 225 0T232 1H253Q263 1 258 -7L229 -70L218 -54Q258 -56 284 -72T310 -122Z" />
<glyph unicode="&#xe8;" horiz-adv-x="460" d="M40 237Q40 284 49 327T81 404T141 458T240 478Q301 478 338 460T393 412T418 346T425 274Q425 237 418 228T395 219H122Q119 219 116 217T112 206Q112 160 127 125T173 69T253 49Q286 49 322 57T382 78Q390 83 395
84T404 76L417 51Q420 45 419 43T411 36Q379 15 334 5T241 -6Q179 -6 140 12T79 64T49 142T40 237ZM352 286Q352 322 343 352T310 402T238 421Q204 421 180 408T142 375T121 330T112 283Q112 273 113 270T123 266H335Q345 266 349 269T352 286ZM238 530Q231 530
224 536L153 624Q151 627 152 629T156 632H214Q219 632 222 631T228 625L277 538Q282 530 275 530H238Z" />
<glyph unicode="&#xe9;" horiz-adv-x="460" d="M40 237Q40 284 49 327T81 404T141 458T240 478Q301 478 338 460T393 412T418 346T425 274Q425 237 418 228T395 219H122Q119 219 116 217T112 206Q112 160 127 125T173 69T253 49Q286 49 322 57T382 78Q390 83 395
84T404 76L417 51Q420 45 419 43T411 36Q379 15 334 5T241 -6Q179 -6 140 12T79 64T49 142T40 237ZM352 286Q352 322 343 352T310 402T238 421Q204 421 180 408T142 375T121 330T112 283Q112 273 113 270T123 266H335Q345 266 349 269T352 286ZM202 529Q196 529
196 531T199 538L254 626Q257 632 267 632H319Q322 632 323 630T321 624L250 534Q248 531 246 530T238 529H202Z" />
<glyph unicode="&#xea;" horiz-adv-x="460" d="M40 237Q40 284 49 327T81 404T141 458T240 478Q301 478 338 460T393 412T418 346T425 274Q425 237 418 228T395 219H122Q119 219 116 217T112 206Q112 160 127 125T173 69T253 49Q286 49 322 57T382 78Q390 83 395
84T404 76L417 51Q420 45 419 43T411 36Q379 15 334 5T241 -6Q179 -6 140 12T79 64T49 142T40 237ZM352 286Q352 322 343 352T310 402T238 421Q204 421 180 408T142 375T121 330T112 283Q112 273 113 270T123 266H335Q345 266 349 269T352 286ZM145 529Q142 529
142 531T142 536L208 626Q211 629 215 629H257Q262 629 264 626L330 536Q332 533 332 531T327 529H292Q287 529 285 532L239 583Q235 587 231 583L187 532Q185 529 180 529H145Z" />
<glyph unicode="&#xeb;" horiz-adv-x="460" d="M40 237Q40 284 49 327T81 404T141 458T240 478Q301 478 338 460T393 412T418 346T425 274Q425 237 418 228T395 219H122Q119 219 116 217T112 206Q112 160 127 125T173 69T253 49Q286 49 322 57T382 78Q390 83 395
84T404 76L417 51Q420 45 419 43T411 36Q379 15 334 5T241 -6Q179 -6 140 12T79 64T49 142T40 237ZM352 286Q352 322 343 352T310 402T238 421Q204 421 180 408T142 375T121 330T112 283Q112 273 113 270T123 266H335Q345 266 349 269T352 286ZM207 573Q207 557
199 549T168 540Q147 540 139 548T130 573Q130 590 138 598T168 607Q191 607 199 599T207 573ZM346 573Q346 557 339 549T308 540Q286 540 278 548T270 573Q270 590 278 598T308 607Q332 607 339 599T346 573Z" />
<glyph unicode="&#xec;" horiz-adv-x="204" d="M138 7Q138 0 131 0H74Q67 0 67 7V465Q67 472 74 472H131Q138 472 138 465V7ZM101 530Q94 530 87 536L16 624Q14 627 15 629T19 632H77Q82 632 85 631T91 625L140 538Q145 530 138 530H101Z" />
<glyph unicode="&#xed;" horiz-adv-x="204" d="M138 7Q138 0 131 0H74Q67 0 67 7V465Q67 472 74 472H131Q138 472 138 465V7ZM66 529Q60 529 60 531T63 538L118 626Q121 632 131 632H183Q186 632 187 630T185 624L114 534Q112 531 110 530T102 529H66Z" />
<glyph unicode="&#xee;" horiz-adv-x="204" d="M138 7Q138 0 131 0H74Q67 0 67 7V465Q67 472 74 472H131Q138 472 138 465V7ZM9 529Q6 529 6 531T6 536L72 626Q75 629 79 629H121Q126 629 128 626L194 536Q196 533 196 531T191 529H156Q151 529 149 532L103 583Q99
587 95 583L51 532Q49 529 44 529H9Z" />
<glyph unicode="&#xef;" horiz-adv-x="204" d="M138 7Q138 0 131 0H74Q67 0 67 7V465Q67 472 74 472H131Q138 472 138 465V7ZM326 573Q326 557 318 549T287 540Q266 540 258 548T249 573Q249 590 257 598T287 607Q310 607 318 599T326 573ZM465 573Q465 557 458
549T427 540Q405 540 397 548T389 573Q389 590 397 598T427 607Q451 607 458 599T465 573Z" />
<glyph unicode="&#xf0;" horiz-adv-x="513" d="M463 239Q463 173 445 117T382 27T256 -7Q179 -7 134 24T69 111T50 238Q50 309 70 364T135 450T256 481Q278 481 296 477T330 465Q311 490 288 513T237 558Q213 576 187 592T133 622Q129 625 128 627T129 634Q133
641 139 651T151 669Q153 672 156 672T166 670Q178 664 189 658T213 644Q293 600 348 538T433 401T463 239ZM390 237Q390 325 359 373T256 421Q185 421 154 374T122 237Q122 147 153 99T256 50Q328 50 359 99T390 237ZM140 509Q137 507 136 507T133 509L117 534Q116
537 116 538T121 542L324 667Q328 669 329 669T332 666L348 640Q349 638 349 637T344 634L140 509Z" />
<glyph unicode="&#xf1;" horiz-adv-x="486" d="M75 0Q67 0 67 8Q67 114 67 220T67 433Q67 439 71 443T89 453Q102 457 127 462T182 473T237 478Q314 478 355 448T413 367T429 253Q429 207 427 161T423 75T418 13Q417 4 415 2T403 0H360Q352 0 349 2T347 12Q347
18 348 44T352 106T355 182T357 255Q357 309 344 345T305 399T236 417Q214 417 193 413T155 403Q149 402 144 397T138 378Q138 322 138 260T138 135T138 8Q138 0 131 0H75ZM154 533Q149 533 149 539Q149 568 165 586T208 604Q223 604 238 596T266 579T288 570Q295
570 300 576T305 592Q305 599 309 599H342Q347 599 347 593Q347 567 331 548T289 528Q271 528 256 537T229 554T208 563Q200 563 195 556T190 539Q190 533 186 533H154Z" />
<glyph unicode="&#xf2;" horiz-adv-x="493" d="M246 -6Q165 -6 120 25T58 111T40 237Q40 307 59 361T124 447T246 478Q324 478 369 447T433 362T453 237Q453 167 436 112T374 26T246 -6ZM246 51Q321 51 350 99T380 236Q380 324 348 371T246 418Q177 418 145 371T112
236Q112 147 142 99T246 51ZM246 530Q239 530 232 536L161 624Q159 627 160 629T164 632H222Q227 632 230 631T236 625L285 538Q290 530 283 530H246Z" />
<glyph unicode="&#xf3;" horiz-adv-x="493" d="M246 -6Q165 -6 120 25T58 111T40 237Q40 307 59 361T124 447T246 478Q324 478 369 447T433 362T453 237Q453 167 436 112T374 26T246 -6ZM246 51Q321 51 350 99T380 236Q380 324 348 371T246 418Q177 418 145 371T112
236Q112 147 142 99T246 51ZM211 529Q205 529 205 531T208 538L263 626Q266 632 276 632H328Q331 632 332 630T330 624L259 534Q257 531 255 530T247 529H211Z" />
<glyph unicode="&#xf4;" horiz-adv-x="493" d="M246 -6Q165 -6 120 25T58 111T40 237Q40 307 59 361T124 447T246 478Q324 478 369 447T433 362T453 237Q453 167 436 112T374 26T246 -6ZM246 51Q321 51 350 99T380 236Q380 324 348 371T246 418Q177 418 145 371T112
236Q112 147 142 99T246 51ZM154 529Q151 529 151 531T151 536L217 626Q220 629 224 629H266Q271 629 273 626L339 536Q341 533 341 531T336 529H301Q296 529 294 532L248 583Q244 587 240 583L196 532Q194 529 189 529H154Z" />
<glyph unicode="&#xf5;" horiz-adv-x="493" d="M246 -6Q165 -6 120 25T58 111T40 237Q40 307 59 361T124 447T246 478Q324 478 369 447T433 362T453 237Q453 167 436 112T374 26T246 -6ZM246 51Q321 51 350 99T380 236Q380 324 348 371T246 418Q177 418 145 371T112
236Q112 147 142 99T246 51ZM153 533Q148 533 148 539Q148 568 164 586T207 604Q222 604 237 596T265 579T287 570Q294 570 299 576T304 592Q304 599 308 599H341Q346 599 346 593Q346 567 330 548T288 528Q270 528 255 537T228 554T207 563Q199 563 194 556T189
539Q189 533 185 533H153Z" />
<glyph unicode="&#xf6;" horiz-adv-x="493" d="M246 -6Q165 -6 120 25T58 111T40 237Q40 307 59 361T124 447T246 478Q324 478 369 447T433 362T453 237Q453 167 436 112T374 26T246 -6ZM246 51Q321 51 350 99T380 236Q380 324 348 371T246 418Q177 418 145 371T112
236Q112 147 142 99T246 51ZM215 573Q215 557 207 549T176 540Q155 540 147 548T138 573Q138 590 146 598T176 607Q199 607 207 599T215 573ZM354 573Q354 557 347 549T316 540Q294 540 286 548T278 573Q278 590 286 598T316 607Q340 607 347 599T354 573Z" />
<glyph unicode="&#xf7;" horiz-adv-x="468" d="M277 174Q277 156 269 148T235 139Q212 139 204 147T195 174Q195 191 203 200T235 209Q260 209 268 200T277 174ZM277 430Q277 413 269 405T235 396Q212 396 204 404T195 430Q195 448 203 457T235 466Q260 466 268
457T277 430ZM59 277Q53 277 52 279T50 284V323Q50 327 51 328T59 330H410Q415 330 416 329T418 323V283Q418 280 417 279T409 277H59Z" />
<glyph unicode="&#xf8;" horiz-adv-x="486" d="M246 -6Q165 -6 120 25T58 111T40 237Q40 307 59 361T124 447T246 478Q324 478 369 447T433 362T453 237Q453 167 436 112T374 26T246 -6ZM246 51Q321 51 350 99T380 236Q380 324 348 371T246 418Q177 418 145 371T112
236Q112 147 142 99T246 51ZM115 -68Q112 -76 105 -76H67Q65 -76 65 -74T67 -68L378 531Q380 535 382 536T387 538H424Q427 538 427 536T423 524L115 -68Z" />
<glyph unicode="&#xf9;" horiz-adv-x="487" d="M250 -4Q174 -4 133 26T75 107T58 220Q58 266 60 312T64 397T68 459Q70 468 73 470T84 472H127Q135 472 138 471T140 460Q140 454 139 429T135 368T132 292T131 216Q131 141 158 98T250 55Q258 55 274 56T308 62T338
72T350 89V463Q350 466 351 469T355 472H412Q415 472 417 471T420 464V49Q420 37 414 32T389 19Q380 16 357 11T304 1T250 -4ZM244 530Q237 530 230 536L159 624Q157 627 158 629T162 632H220Q225 632 228 631T234 625L283 538Q288 530 281 530H244Z" />
<glyph unicode="&#xfa;" horiz-adv-x="487" d="M250 -4Q174 -4 133 26T75 107T58 220Q58 266 60 312T64 397T68 459Q70 468 73 470T84 472H127Q135 472 138 471T140 460Q140 454 139 429T135 368T132 292T131 216Q131 141 158 98T250 55Q258 55 274 56T308 62T338
72T350 89V463Q350 466 351 469T355 472H412Q415 472 417 471T420 464V49Q420 37 414 32T389 19Q380 16 357 11T304 1T250 -4ZM209 529Q203 529 203 531T206 538L261 626Q264 632 274 632H326Q329 632 330 630T328 624L257 534Q255 531 253 530T245 529H209Z" />
<glyph unicode="&#xfb;" horiz-adv-x="487" d="M250 -4Q174 -4 133 26T75 107T58 220Q58 266 60 312T64 397T68 459Q70 468 73 470T84 472H127Q135 472 138 471T140 460Q140 454 139 429T135 368T132 292T131 216Q131 141 158 98T250 55Q258 55 274 56T308 62T338
72T350 89V463Q350 466 351 469T355 472H412Q415 472 417 471T420 464V49Q420 37 414 32T389 19Q380 16 357 11T304 1T250 -4ZM151 529Q148 529 148 531T148 536L214 626Q217 629 221 629H263Q268 629 270 626L336 536Q338 533 338 531T333 529H298Q293 529 291
532L245 583Q241 587 237 583L193 532Q191 529 186 529H151Z" />
<glyph unicode="&#xfc;" horiz-adv-x="487" d="M250 -4Q174 -4 133 26T75 107T58 220Q58 266 60 312T64 397T68 459Q70 468 73 470T84 472H127Q135 472 138 471T140 460Q140 454 139 429T135 368T132 292T131 216Q131 141 158 98T250 55Q258 55 274 56T308 62T338
72T350 89V463Q350 466 351 469T355 472H412Q415 472 417 471T420 464V49Q420 37 414 32T389 19Q380 16 357 11T304 1T250 -4ZM213 573Q213 557 205 549T174 540Q153 540 145 548T136 573Q136 590 144 598T174 607Q197 607 205 599T213 573ZM352 573Q352 557 345
549T314 540Q292 540 284 548T276 573Q276 590 284 598T314 607Q338 607 345 599T352 573Z" />
<glyph unicode="&#xfd;" horiz-adv-x="411" d="M158 70Q135 104 114 152T75 256T45 364T26 460Q24 472 34 472H89Q95 472 98 469T103 457Q105 432 112 397T131 322T154 245T179 176T203 128Q207 121 211 121T216 125Q230 150 245 191T275 280T301 375T316 461Q316
468 319 470T329 472H378Q383 472 386 470T388 459Q383 424 375 390T358 321T336 248Q324 214 308 167T267 69T211 -25T137 -96T40 -123Q25 -123 12 -122T-12 -117Q-24 -112 -20 -102L-6 -71Q-3 -66 0 -66T8 -67Q33 -71 61 -62T111 -36Q131 -22 141 -10T162 20Q167
31 167 44T158 70ZM175 529Q169 529 169 531T172 538L227 626Q230 632 240 632H292Q295 632 296 630T294 624L223 534Q221 531 219 530T211 529H175Z" />
<glyph unicode="&#xfe;" horiz-adv-x="499" d="M450 244Q450 182 436 138T397 64T343 20T285 0Q253 -4 218 1T159 20Q154 20 151 21T147 19Q144 -5 141 -29T137 -76Q137 -85 136 -93T134 -109Q130 -111 125 -112T113 -113Q101 -113 91 -113T71 -111Q69 8 68 127T67
367Q67 425 67 481T69 594Q73 597 79 598T92 599Q103 599 113 599T134 597Q136 569 137 539T139 477Q139 469 140 460T143 444Q160 457 188 468T258 480Q353 480 401 419T450 244ZM378 245Q378 337 347 380T257 423Q236 423 211 417T168 398T141 364Q137 357 137
345Q137 291 137 236T136 127Q136 120 137 116T140 107Q150 81 183 70T251 58Q270 58 292 67T333 96T365 153T378 245Z" />
<glyph unicode="&#xff;" horiz-adv-x="411" d="M158 70Q135 104 114 152T75 256T45 364T26 460Q24 472 34 472H89Q95 472 98 469T103 457Q105 432 112 397T131 322T154 245T179 176T203 128Q207 121 211 121T216 125Q230 150 245 191T275 280T301 375T316 461Q316
468 319 470T329 472H378Q383 472 386 470T388 459Q383 424 375 390T358 321T336 248Q324 214 308 167T267 69T211 -25T137 -96T40 -123Q25 -123 12 -122T-12 -117Q-24 -112 -20 -102L-6 -71Q-3 -66 0 -66T8 -67Q33 -71 61 -62T111 -36Q131 -22 141 -10T162 20Q167
31 167 44T158 70ZM179 573Q179 557 171 549T140 540Q119 540 111 548T102 573Q102 590 110 598T140 607Q163 607 171 599T179 573ZM318 573Q318 557 311 549T280 540Q258 540 250 548T242 573Q242 590 250 598T280 607Q304 607 311 599T318 573Z" />
<glyph unicode="&#x2013;" horiz-adv-x="592" d="M74 251Q69 251 68 253T67 258V298Q67 302 68 303T74 305H519Q523 305 524 304T526 298V257Q526 254 525 253T519 251H74Z" />
<glyph unicode="&#x2014;" horiz-adv-x="794" d="M74 251Q69 251 68 253T67 258V298Q67 302 68 303T74 305H721Q725 305 726 304T728 298V257Q728 254 727 253T721 251H74Z" />
<glyph unicode="&#x2018;" horiz-adv-x="219" d="M58 478Q52 478 51 482T53 494L111 694Q113 698 115 699T122 701H165Q168 701 169 698T168 687L117 485Q116 482 114 480T107 478H58Z" />
<glyph unicode="&#x2019;" horiz-adv-x="219" d="M55 478Q52 478 51 481T51 491L101 693Q103 697 105 699T112 701H162Q168 701 168 697T167 683L109 484Q106 481 104 480T98 478H55Z" />
<glyph unicode="&#x201a;" horiz-adv-x="191" d="M123 -97Q122 -103 119 -106T108 -109H81Q74 -109 72 -106T69 -96L67 123Q67 129 69 132T80 136H112Q120 136 122 133T125 123L123 -97Z" />
<glyph unicode="&#x201c;" horiz-adv-x="363" d="M58 478Q52 478 51 482T53 494L111 694Q113 698 115 699T122 701H165Q168 701 169 698T168 687L117 485Q116 482 114 480T107 478H58ZM201 478Q195 478 195 482T197 494L255 694Q257 698 259 699T266 701H308Q312
701 313 698T312 687L261 485Q260 482 258 480T252 478H201Z" />
<glyph unicode="&#x201d;" horiz-adv-x="371" d="M260 484Q258 481 257 480T250 478H207Q204 478 203 481T203 491L253 693Q255 697 257 699T264 701H313Q320 701 321 697T318 683L260 484ZM109 484Q106 481 104 480T98 478H55Q52 478 51 481T51 491L101 693Q103
697 105 699T112 701H162Q168 701 168 697T167 683L109 484Z" />
<glyph unicode="&#x201e;" horiz-adv-x="352" d="M126 -103Q125 -107 123 -109T117 -111H77Q74 -111 73 -109T71 -102L67 123Q66 130 68 132T76 135H120Q127 135 128 133T130 126L126 -103ZM281 -103Q281 -107 279 -109T272 -111H233Q230 -111 228 -109T226 -102L222
123Q222 130 224 132T232 135H276Q283 135 284 133T285 126L281 -103Z" />
<glyph unicode="&#x2022;" horiz-adv-x="538" d="M100 301Q100 348 123 386T184 448T270 470Q317 471 355 448T416 387T439 301Q439 255 416 217T355 155T270 132Q223 132 185 155T123 216T100 301Z" />
<glyph unicode="&#x2039;" horiz-adv-x="352" d="M202 162Q197 162 194 166Q159 206 125 246T55 327Q46 337 55 346Q90 386 124 426T194 507Q196 509 198 509T202 510Q215 510 234 510T264 510Q270 510 269 508T266 503Q265 502 251 485T215 443T174 394T139 353T125
336Q125 336 139 320T173 279T215 230T250 188T266 169Q268 168 269 165T264 162Q254 162 235 162T202 162Z" />
<glyph unicode="&#x203a;" horiz-adv-x="365" d="M85 162Q80 162 81 165T84 169Q85 170 99 187T135 229T176 278T211 319T225 336Q225 336 211 352T177 393T135 443T100 485T84 503Q83 505 82 507T85 510Q96 510 115 510T148 510Q150 510 152 510T156 507Q191
467 225 427T295 346Q305 337 295 327Q260 287 226 247T156 166Q153 162 148 162Q135 162 116 162T85 162Z" />
</font>
</defs>
</svg>
