<?xml version="1.0" standalone="no"?>
<!DOCTYPE svg PUBLIC "-//W3C//DTD SVG 1.1//EN" "http://www.w3.org/Graphics/SVG/1.1/DTD/svg11.dtd">
<svg xmlns="http://www.w3.org/2000/svg">
<defs >
<font id="Average" horiz-adv-x="534" ><font-face
    font-family="Average"
    units-per-em="1000"
    panose-1="0 0 0 0 0 0 0 0 0 0"
    ascent="953"
    descent="-263"
    alphabetic="0" />
<glyph unicode=" " glyph-name="space" horiz-adv-x="250" />
<glyph unicode="!" glyph-name="exclam" horiz-adv-x="236" d="M172 691L139 168L101 159L64 664Q64 664 69 670T96 683T172 691ZM118 -9Q96 -9 81 6T65 46Q65 69 80 84T118 99Q140 99 155 84T171 46Q171 22 156 7T118 -9Z" />
<glyph unicode="&quot;" glyph-name="quotedbl" horiz-adv-x="290" d="M127 683L95 451Q95 451 91 445T55 438L36 659Q36 659 41 665T66 677T127 683ZM266 683L234 451Q234 451 230 445T194 438L175 659Q175 659 180 665T204 677T266 683Z" />
<glyph unicode="#" glyph-name="numbersign" horiz-adv-x="523" d="M24 223V284H120L146 385H65V446H162L221 674H286L227 446H355L414 674H479L420 446H499V385H404L378 284H460V223H363L303 -9H238L298 223H170L110 -9H45L105 223H24ZM211 385L185 284H313L339
385H211Z" />
<glyph unicode="$" glyph-name="dollar" horiz-adv-x="523" d="M274 641L289 762H334L318 635Q332 633 344 631T372 628Q380 628 390 629T411 633V620Q411 593 414 556T422 493L398 481Q384 533 363 558T312 591L285 374Q300 364 315 354T343 335Q399 296 426
258T453 166Q453 85 399 38T256 -9H238L224 -121H179L193 -4Q161 0 130 7T74 25Q77 39 80 61T86 108T89 152Q89 157 89 161T88 170L112 181Q123 118 142 86T199 44L230 294Q220 302 210 309T190 323Q155 348 132 370T98 419T87 487Q87 558 136 599T265 641H274ZM172
519Q172 474 194 448T244 402L268 597H266Q224 597 198 573T172 519ZM244 39H245Q303 39 329 65T355 139Q355 186 336 208T291 251Q286 254 282 257T272 265L244 39Z" />
<glyph unicode="%" glyph-name="percent" horiz-adv-x="784" d="M146 -1L558 679H606L194 -1H146ZM314 509Q314 464 301 427T263 368T197 346Q158 346 132 368T93 427T80 509Q80 554 93 591T132 651T197 673Q237 673 262 651T301 592T314 509ZM197 638Q175 638
163 601T151 510Q151 455 163 419T197 382Q220 382 231 418T243 510Q243 563 232 600T197 638ZM664 154Q664 109 651 72T613 13T547 -9Q507 -9 482 13T443 72T430 154Q430 199 443 236T481 296T547 318Q587 318 612 296T651 237T664 154ZM547 283Q525 283 513 246T501
155Q501 100 513 64T547 27Q570 27 581 63T593 155Q593 208 582 245T547 283Z" />
<glyph unicode="&amp;" glyph-name="ampersand" horiz-adv-x="739" d="M610 303Q591 254 567 212T516 135Q538 115 565 99T634 73T736 62L739 33Q739 33 716 28T658 16T590 0T536 -13Q517 6 497 27T456 71Q404 28 350 9T245 -10Q184 -10 141 12T74 73T50 159Q50
226 92 277T219 379H218Q186 433 167 479T147 559Q147 598 166 632T224 686T315 707Q354 707 391 695T452 657T476 587Q476 556 460 528T419 476T367 431T315 395Q313 393 313 393Q354 329 401 268T486 167Q507 200 519 236T532 309Q532 326 513 336T446 355L449
384Q478 381 514 380T587 378Q619 378 648 379T702 384L705 355Q660 346 639 333T610 303ZM233 578Q233 549 249 509T293 423Q349 462 368 501T387 578Q387 623 361 644T306 666Q278 666 256 646T233 578ZM284 46Q323 46 360 62T428 103Q378 161 328 225T241 345Q204
316 174 276T143 180Q143 127 163 98T216 58T284 46Z" />
<glyph unicode="&apos;" glyph-name="quotesingle" horiz-adv-x="152" d="M128 683L96 451Q96 451 92 445T56 438L36 659Q36 659 41 665T66 677T128 683Z" />
<glyph unicode="(" glyph-name="parenleft" horiz-adv-x="397" d="M164 291Q164 226 180 156T230 16T317 -116L286 -145Q203 -77 156 -1T89 151T70 291Q70 355 89 425T155 568T286 709L317 681Q238 587 201 487T164 291Z" />
<glyph unicode=")" glyph-name="parenright" horiz-adv-x="397" d="M233 291Q233 387 197 487T80 681L111 709Q195 641 242 569T308 426T327 291Q327 227 308 152T242 0T111 -145L80 -116Q133 -54 167 15T217 155T233 291Z" />
<glyph unicode="*" glyph-name="asterisk" horiz-adv-x="457" d="M321 348H251Q251 348 247 370T236 425T216 494Q170 437 140 404T110 370L76 380L53 446Q53 446 73 456T123 485T183 524Q113 552 72 570T30 588L31 623L86 664Q86 664 102 648T145 609T201 564Q206
639 210 684T214 730L248 742L303 701Q303 701 293 681T270 628T244 561Q317 580 361 589T406 599L427 571L406 505Q406 505 384 508T327 514T255 518Q295 455 317 416T340 377L321 348Z" />
<glyph unicode="+" glyph-name="plus" horiz-adv-x="523" d="M231 541H292V334H499V273H292V66H231V273H24V334H231V541Z" />
<glyph unicode="," glyph-name="comma" horiz-adv-x="214" d="M112 91Q144 91 164 66T185 5Q185 -35 152 -78T39 -147L30 -125Q75 -105 106 -72T138 7Q130 -2 121 -5T104 -8Q85 -8 71 6T57 41Q57 65 74 78T112 91Z" />
<glyph unicode="-" glyph-name="hyphen" horiz-adv-x="314" d="M148 235Q91 231 59 224T26 216L18 232L57 284Q57 284 63 284T91 285T154 289Q228 294 258 301T288 308L296 293L257 241Q257 241 234 241T148 235Z" />
<glyph unicode="." glyph-name="period" horiz-adv-x="165" d="M82 -9Q60 -9 45 6T30 46Q30 69 45 83T82 98Q104 98 119 84T135 46Q135 21 120 6T82 -9Z" />
<glyph unicode="/" glyph-name="slash" horiz-adv-x="290" d="M20 -140L205 701H270L85 -140H20Z" />
<glyph unicode="0" glyph-name="zero" horiz-adv-x="523" d="M485 332Q485 238 461 161T388 37T261 -9Q185 -9 135 37T61 160T37 332Q37 426 61 503T135 627T261 673Q338 673 387 627T461 504T485 332ZM261 628Q217 628 189 588T146 481T132 332Q132 250 146 183T188
76T261 36Q305 36 333 76T376 183T390 332Q390 414 376 481T334 588T261 628Z" />
<glyph unicode="1" glyph-name="one" horiz-adv-x="403" d="M242 673L263 663Q263 663 261 583T259 342Q259 234 261 175T265 93T267 69Q269 50 291 43T358 26L355 -3Q295 0 222 0Q177 0 133 0T49 -3L46 26Q76 32 102 37T146 49T165 69Q165 69 167 92T170 175T172
342Q172 423 171 473T169 549T166 586T165 596L44 617L41 653Q112 653 163 659T242 673Z" />
<glyph unicode="2" glyph-name="two" horiz-adv-x="517" d="M444 492Q444 443 425 395T374 303T305 220T233 152T169 101T129 71L131 66Q221 66 277 68T364 81T412 112T441 171L468 159Q462 141 457 110T449 49T444 0H42L30 40Q30 40 53 59T112 112T189 189T266
282T326 382T349 479Q349 528 331 555T283 593T219 605Q173 605 130 592T63 566L49 594Q86 625 134 649T249 673Q300 673 344 653T416 593T444 492Z" />
<glyph unicode="3" glyph-name="three" horiz-adv-x="480" d="M247 375V370Q346 356 388 309T430 203Q430 159 409 116T346 36T247 -21T116 -43Q94 -43 72 -41T25 -33L28 15Q73 6 110 6Q185 6 235 33T310 103T335 190Q335 227 318 258T267 309T181 329Q145 329
106 319L109 358Q180 374 222 406T284 473T304 535Q304 569 281 591T215 614Q188 614 154 603T78 566L64 594Q111 637 158 655T247 674Q290 674 323 658T376 615T396 552Q396 511 362 464T247 375Z" />
<glyph unicode="4" glyph-name="four" horiz-adv-x="523" d="M407 450Q407 366 407 318T408 242H489L495 227L457 181Q457 181 451 182T409 185Q411 117 413 93T415 69Q417 50 435 43T499 26L496 -3Q433 0 359 0Q322 0 276 0T197 -3L194 26Q224 32 250 37T294
49T313 69Q313 69 315 92T319 186H32L20 225L275 706L366 697L92 241H320V426Q320 426 323 431T344 442T407 450Z" />
<glyph unicode="5" glyph-name="five" horiz-adv-x="489" d="M65 414L112 657L417 690L424 675L383 598Q383 598 365 601T310 604Q302 604 289 604T244 601T148 592L120 439Q232 436 302 403T406 320T439 214Q439 167 418 122T356 39T258 -21T129 -43Q107 -43
84 -41T36 -33L39 12Q57 10 73 9T106 7Q184 7 237 34T317 103T344 191Q344 239 315 281T227 349T77 375L65 414Z" />
<glyph unicode="6" glyph-name="six" horiz-adv-x="486" d="M187 285L183 325Q209 334 231 337T273 341Q330 341 368 317T426 255T446 174Q446 129 425 87T359 18T247 -9Q183 -9 134 23T58 111T30 234Q30 309 68 391T190 552T411 692L427 657Q346 620 290 568T197
457T145 338T128 224Q128 173 142 132T181 67T243 42Q278 42 301 60T335 108T347 170Q347 223 320 260T242 297Q217 297 187 285Z" />
<glyph unicode="7" glyph-name="seven" horiz-adv-x="477" d="M477 638L195 -33L104 -24L392 577Q390 592 371 596T321 600Q257 600 214 599T144 589T101 559T72 496L45 508Q49 528 51 557T55 616T57 670Q81 669 123 668T217 667T318 666Q375 666 418 666T474
667L477 638Z" />
<glyph unicode="8" glyph-name="eight" horiz-adv-x="505" d="M460 170Q460 121 432 80T354 15T241 -9Q177 -9 134 14T68 75T45 156Q45 209 81 260T193 336Q140 368 112 400T73 462T62 514Q62 559 88 595T158 652T259 673Q317 673 357 653T417 601T438 530Q438
485 408 438T309 364Q389 323 424 274T460 170ZM250 629Q207 629 181 602T154 534Q154 498 173 469T220 419T273 383Q314 406 335 446T357 523Q357 566 331 597T250 629ZM251 41Q283 41 309 57T350 102T366 162Q366 203 336 244T231 318Q182 294 157 252T132 164Q132
115 161 78T251 41Z" />
<glyph unicode="9" glyph-name="nine" horiz-adv-x="503" d="M304 344L308 307Q265 295 228 295Q167 295 125 322T62 393T40 483Q40 531 62 574T130 645T245 673Q312 673 363 639T444 547T473 417Q473 338 433 251T306 81T74 -66L58 -30Q143 9 203 64T302 181T359
307T377 428Q377 483 362 526T317 595T249 621Q211 621 185 601T145 548T131 479Q131 444 145 412T187 359T257 338Q279 338 304 344Z" />
<glyph unicode=":" glyph-name="colon" horiz-adv-x="196" d="M113 295Q91 295 76 310T60 350Q60 373 75 388T113 403Q135 403 150 388T166 350Q166 326 151 311T113 295ZM113 -9Q91 -9 76 6T60 46Q60 69 75 84T113 99Q135 99 150 84T166 46Q166 22 151 7T113 -9Z" />
<glyph unicode=";" glyph-name="semicolon" horiz-adv-x="211" d="M113 295Q91 295 76 310T60 350Q60 373 75 388T113 403Q135 403 150 388T166 350Q166 326 151 311T113 295ZM109 91Q141 91 161 66T182 5Q182 -35 149 -78T36 -147L27 -125Q72 -105 103 -72T135
7Q127 -2 118 -5T101 -8Q82 -8 68 6T54 41Q54 65 71 78T109 91Z" />
<glyph unicode="&lt;" glyph-name="less" horiz-adv-x="523" d="M487 56L37 303L487 550V481L151 303L487 125V56Z" />
<glyph unicode="=" glyph-name="equal" horiz-adv-x="523" d="M24 354V415H499V354H24ZM24 192V253H499V192H24Z" />
<glyph unicode="&gt;" glyph-name="greater" horiz-adv-x="523" d="M487 303L37 56V125L373 303L37 481V550L487 303Z" />
<glyph unicode="?" glyph-name="question" horiz-adv-x="343" d="M68 584Q61 592 56 611T50 642Q50 656 54 669T72 693Q194 639 243 582T293 470Q293 440 279 418T244 378T202 340T167 298T153 243Q153 226 155 208T168 168L130 159Q99 205 88 239T77 299Q77 324
94 344T136 383T187 420T229 457T246 498Q246 533 201 557T68 584ZM148 -9Q126 -9 111 6T95 46Q95 69 110 84T148 99Q170 99 185 84T201 46Q201 22 186 7T148 -9Z" />
<glyph unicode="@" glyph-name="at" horiz-adv-x="781" d="M624 58L640 35Q582 -11 510 -39T365 -68Q304 -68 246 -48T141 14T68 120T40 270Q40 336 65 401T141 519T264 605T434 638Q513 638 570 616T666 557T722 474T741 378Q741 314 711 256T621 160T475 123Q442
123 430 136T417 175Q417 189 420 205T427 240H425Q391 191 365 166T320 133T290 124Q257 124 238 151T219 229Q219 286 246 339T324 426T444 460Q456 460 474 458T505 450L535 472H550Q530 408 515 345T492 231T484 153Q540 153 580 182T643 259T665 360Q665 403
650 445T603 521T522 576T403 597Q340 597 289 572T201 504T145 403T125 283Q125 226 142 171T192 73T274 3T388 -23Q439 -23 494 -8T624 58ZM438 288L474 429Q459 434 447 434Q410 434 383 414T338 363T311 297T302 235Q302 210 308 195T327 179Q340 179 367 207T438
288Z" />
<glyph unicode="A" glyph-name="A" horiz-adv-x="694" d="M3 -3L0 26Q47 35 67 45T93 75L292 684L376 694L609 69Q616 52 632 43T694 26L691 -3Q658 -1 626 -1T558 0Q479 0 417 -3L414 26Q466 36 484 44T502 64L447 242H221L167 64Q167 52 186 44T253 26L250 -3Q217
-1 185 -1T117 0Q86 0 64 0T3 -3ZM235 288H431L330 590H326L235 288Z" />
<glyph unicode="B" glyph-name="B" horiz-adv-x="626" d="M32 -3L29 26Q82 37 99 45T118 69Q120 85 122 126T125 225T126 342Q126 450 124 509T120 592T118 616Q116 633 101 641T36 659L39 688Q71 687 103 686T173 685H341Q428 685 480 642T533 525Q533 479 505
438T428 372Q505 354 541 311T577 194Q577 141 548 97T468 26T357 0H173Q94 0 32 -3ZM215 368Q224 370 244 372T288 375T332 378T364 380Q439 428 439 525Q439 583 400 613T287 643Q251 643 241 639T226 621Q224 610 221 573T217 482T215 368ZM327 36Q372 36 407
56T462 112T482 193Q482 338 278 338Q248 338 215 335Q215 271 216 213T221 116T226 68Q231 53 258 45T327 36Z" />
<glyph unicode="C" glyph-name="C" horiz-adv-x="700" d="M404 -12Q292 -12 213 29T91 148T48 334Q48 440 93 521T218 648T403 694Q465 694 505 687T577 679Q604 679 629 685Q629 649 632 605T641 529L614 517Q594 581 540 614T402 648Q327 648 271 611T184 508T153
351Q153 257 185 187T274 77T407 37Q497 37 558 74T641 180L668 168Q659 136 653 100T645 34Q519 -12 404 -12Z" />
<glyph unicode="D" glyph-name="D" horiz-adv-x="769" d="M173 685H351Q417 685 482 668T602 613T688 514T720 365Q720 263 678 180T551 49T334 0H173Q95 0 32 -3L29 26Q74 35 95 42T118 69Q118 69 120 92T124 175T126 342Q126 450 124 509T120 592T118 616Q116
635 99 642T36 659L39 688Q71 687 103 686T173 685ZM227 60Q254 54 278 51T330 48Q407 48 459 71T542 131T589 209T610 288T615 350Q615 400 603 451T556 546T457 616T289 643Q252 643 241 639T227 622Q227 622 225 597T219 511T216 343Q216 235 219 174T224 86T227
60Z" />
<glyph unicode="E" glyph-name="E" horiz-adv-x="608" d="M453 236L418 231Q408 281 401 298T375 319Q363 322 337 323T279 326T215 327Q215 224 218 168T223 90T226 68Q231 50 263 43T327 36Q379 36 421 43T495 78T547 171L574 159Q568 141 563 110T555 49T550
0H150Q113 0 88 0T30 -3L27 26Q72 35 93 42T116 69Q116 69 118 92T122 175T125 342Q125 450 123 509T119 592T117 616Q115 635 98 642T35 659L38 688Q70 687 92 686T151 685Q216 685 288 685T425 686T531 691V676Q531 655 532 627T537 573T543 529L516 517Q503
559 489 584T453 622T399 639T318 643Q282 643 256 640T226 621Q226 621 224 597T219 518T215 367Q247 367 279 368T337 370T375 375Q394 380 401 396T418 463L453 459Q449 432 447 404T445 348Q445 320 447 292T453 236Z" />
<glyph unicode="F" glyph-name="F" horiz-adv-x="554" d="M216 327Q216 227 218 171T222 92T224 69Q226 50 245 43T309 26L306 -3Q275 -1 243 -1T173 0Q95 0 32 -3L29 26Q74 35 95 42T118 69Q118 69 120 92T124 175T126 342Q126 450 124 509T120 592T118 616Q116
635 99 642T36 659L39 688Q60 687 73 687T100 686T139 685Q204 685 276 685T413 686T519 691V676Q519 655 520 627T525 573T531 529L504 517Q491 559 477 584T441 622T387 639T306 643Q270 643 249 641T225 621Q225 621 223 598T219 519T216 367Q248 367 282 368T344
370T384 375Q403 380 410 396T427 463L462 459Q458 432 456 404T454 348Q454 320 456 292T462 236L427 231Q417 281 410 298T384 319Q372 322 344 323T282 326T216 327Z" />
<glyph unicode="G" glyph-name="G" horiz-adv-x="759" d="M407 37Q460 37 509 48T585 73Q584 145 581 190T578 235Q576 254 559 261T496 278L499 307Q531 306 563 305T633 304Q658 304 673 304T701 305T736 307L739 278Q709 272 699 267T687 255T684 235L677 55Q598
21 533 5T404 -12Q297 -12 217 27T93 143T48 334Q48 406 72 470T143 585T259 665T418 694Q483 694 525 687T604 679Q628 679 653 685V670Q653 650 654 624T659 572T665 529L637 517Q621 568 586 596T507 636T414 648Q347 648 288 617T191 520T153 351Q153 296 167
240T211 139T289 65T407 37Z" />
<glyph unicode="H" glyph-name="H" horiz-adv-x="803" d="M587 384Q587 477 585 527T581 596T579 616Q577 635 560 642T497 659L500 688Q532 687 564 686T634 685Q672 685 702 686T764 688L767 659Q722 650 705 643T685 616Q685 616 683 593T679 510T677 342Q677
234 679 175T683 93T685 69Q687 50 706 43T770 26L767 -3Q736 -1 704 -1T634 0Q556 0 493 -3L490 26Q535 35 556 42T579 69Q579 69 581 91T585 169T587 328Q587 328 571 329T515 332T401 333Q328 333 288 332T232 330T216 328Q216 225 218 169T222 91T224 69Q226
50 245 43T309 26L306 -3Q275 -1 243 -1T173 0Q95 0 32 -3L29 26Q74 35 95 42T118 69Q118 69 120 92T124 175T126 342Q126 450 124 509T120 592T118 616Q116 635 99 642T36 659L39 688Q71 687 103 686T173 685Q211 685 241 686T303 688L306 659Q261 650 244 643T224
616Q224 616 222 597T219 527T216 384Q216 384 232 383T288 381T401 379Q475 379 515 380T571 383T587 384Z" />
<glyph unicode="I" glyph-name="I" horiz-adv-x="342" d="M216 342Q216 234 218 175T222 93T224 69Q226 50 245 43T309 26L306 -3Q275 -1 243 -1T173 0Q95 0 32 -3L29 26Q74 35 95 42T118 69Q118 69 120 92T124 175T126 342Q126 450 124 509T120 592T118 616Q116
635 99 642T36 659L39 688Q71 687 103 686T173 685Q211 685 241 686T303 688L306 659Q261 650 244 643T224 616Q224 616 222 593T218 510T216 342Z" />
<glyph unicode="J" glyph-name="J" horiz-adv-x="352" d="M29 -178Q24 -178 11 -167T-15 -139T-33 -105L-17 -85Q-7 -92 13 -98T52 -105Q70 -105 85 -98T111 -68T131 -1T143 116T147 299Q147 460 143 538T139 616Q137 635 120 642T57 659L60 688Q92 687 124 686T194
685Q232 685 262 686T324 688L327 659Q282 650 263 643T242 616Q242 616 241 584T240 496T238 368T237 215Q237 118 215 44T160 -79T92 -153T29 -178Z" />
<glyph unicode="K" glyph-name="K" horiz-adv-x="696" d="M224 69Q226 50 245 43T309 26L306 -3Q275 -1 243 -1T173 0Q95 0 32 -3L29 26Q74 35 95 42T118 69Q118 69 120 92T124 175T126 342Q126 450 124 509T120 592T118 616Q116 635 99 642T36 659L39 688Q71
687 103 686T173 685Q211 685 241 686T303 688L306 659Q261 650 244 643T224 616Q224 616 222 594T218 518T216 365L480 618Q484 621 484 625Q484 644 410 659L413 688Q445 687 477 686T546 685Q584 685 606 686T660 688L663 659Q618 650 591 638T549 611L334 407L612
43Q612 43 631 37T695 26L692 -3Q668 -3 640 -4T585 -6T542 -8T525 -9L269 346L216 296Q217 208 218 159T222 89T224 69Z" />
<glyph unicode="L" glyph-name="L" horiz-adv-x="580" d="M224 69Q225 59 240 52T277 40T321 36Q373 36 415 43T489 78T541 171L568 159Q562 141 557 110T549 49T544 0H151Q114 0 89 0T31 -3L28 26Q73 35 94 42T117 69Q117 69 119 92T123 175T126 342Q126 450
124 509T120 592T118 616Q116 635 99 642T36 659L39 688Q71 687 103 686T173 685Q211 685 241 686T303 688L306 659Q261 650 244 643T224 616Q224 616 222 593T218 510T216 342Q216 234 218 175T222 93T224 69Z" />
<glyph unicode="M" glyph-name="M" horiz-adv-x="922" d="M695 526H689L475 1L413 -10L199 526H195Q193 438 189 350T185 174Q185 119 186 94T188 69Q190 50 213 43T282 26L279 -3Q248 -1 212 -1T137 0Q112 0 95 0T63 0T26 -3L23 26Q68 35 87 43T109 69Q118 138
122 203T127 337T129 483Q129 557 127 586T125 616Q123 635 106 642T43 659L46 688Q67 687 98 687T162 686T220 685L458 95L696 685Q721 685 754 685T820 686T873 688L876 659Q831 650 814 643T794 616Q794 616 792 597T790 522Q790 516 790 492T792 438T794 381T795
342Q799 258 802 205T808 122T811 81T813 69Q815 50 834 43T898 26L895 -3Q864 -1 832 -1T762 0Q684 0 621 -3L618 26Q663 35 685 42T707 69Q707 69 707 92T708 158Q708 191 707 238T704 339T700 441T695 526Z" />
<glyph unicode="N" glyph-name="N" horiz-adv-x="785" d="M603 132H608Q610 174 610 228T610 342Q610 450 608 509T603 592T601 616Q599 635 576 642T507 659L510 688Q542 687 578 686T652 685Q677 685 693 685T723 686T759 688L762 659Q717 650 700 643T680 616Q680
616 678 593T673 510T670 342Q670 181 675 91T681 0L601 -9L195 537H190Q189 504 188 455T186 342Q186 234 189 175T194 93T197 69Q199 50 222 43T291 26L288 -3Q257 -1 221 -1T146 0Q109 0 83 0T24 -3L21 26Q66 34 91 42T118 69Q118 69 120 92T124 175T126 342Q126
450 124 509T120 592T118 616Q116 635 99 642T36 659L39 688Q71 687 111 686T188 685L603 132Z" />
<glyph unicode="O" glyph-name="O" horiz-adv-x="786" d="M737 369Q737 297 717 228T653 104T540 17T372 -16Q259 -16 188 26T83 142T49 314Q49 386 69 454T133 578T246 665T414 698Q528 698 599 657T703 541T737 369ZM632 312Q632 377 622 437T587 545T516 622T398
650Q337 650 295 628T225 570T182 493T160 414T154 350Q154 288 165 231T204 129T276 58T388 32Q443 32 484 51T554 103T599 172T624 246T632 312Z" />
<glyph unicode="P" glyph-name="P" horiz-adv-x="576" d="M173 685H325Q403 685 453 659T527 592T551 502Q551 449 520 398T431 314T287 280Q254 280 216 286Q216 205 217 161T220 97T223 73T224 69Q226 50 245 43T309 26L306 -3Q275 -1 243 -1T173 0Q95 0 32
-3L29 26Q74 35 95 42T118 69Q118 69 120 92T124 175T126 342Q126 450 124 509T120 592T118 616Q116 635 99 642T36 659L39 688Q71 687 103 686T173 685ZM216 325Q245 322 271 322Q354 322 404 361T455 489Q455 574 412 608T287 643Q252 643 241 639T226 609Q226
609 225 597T221 554T218 468T216 325Z" />
<glyph unicode="Q" glyph-name="Q" horiz-adv-x="792" d="M737 369Q737 288 712 213T632 80T489 -1L800 -156V-178L717 -217Q717 -217 695 -203T637 -164T556 -113T466 -60T381 -16H382Q377 -16 372 -16Q259 -16 188 26T83 142T49 314Q49 386 69 454T133 578T246
665T414 698Q528 698 599 657T703 541T737 369ZM632 312Q632 377 622 437T587 545T516 622T398 650Q337 650 295 628T225 570T182 493T160 414T154 350Q154 288 165 231T204 129T276 58T388 32Q443 32 484 51T554 103T599 172T624 246T632 312Z" />
<glyph unicode="R" glyph-name="R" horiz-adv-x="668" d="M227 69Q229 50 248 43T314 26L311 -3Q279 -1 246 -1T174 0Q95 0 32 -3L29 26Q74 35 95 42T118 69Q118 69 120 92T124 175T126 342Q126 450 124 509T120 592T118 616Q116 635 99 642T36 659L39 688Q71
687 103 686T173 685H346Q414 685 458 663T523 604T544 525Q544 474 515 424T409 336L585 43Q585 43 604 37T668 26L665 -3Q641 -3 612 -4T557 -6T513 -8T496 -9L319 322Q306 321 286 321T216 320Q216 239 217 190T221 114T225 79T227 69ZM373 369Q410 392 431
432T453 525Q453 582 412 612T287 643Q251 643 241 639T226 621Q226 621 224 598T219 517T216 359Q326 359 373 369Z" />
<glyph unicode="S" glyph-name="S" horiz-adv-x="528" d="M443 529L416 517Q395 594 359 619T266 644Q208 644 180 616T151 549Q151 520 168 491T218 440L376 337Q480 269 480 176Q480 131 455 88T380 18T254 -10Q202 -10 145 0T48 26Q53 53 58 89T64 173L91 185Q101
131 118 100T164 55T241 41Q287 41 316 57T361 99T376 152Q376 213 311 255L151 360Q104 391 82 431T59 514Q59 560 84 601T155 668T265 694Q293 694 312 691T349 683T386 679Q406 679 431 685V670Q431 650 433 624T437 572T443 529Z" />
<glyph unicode="T" glyph-name="T" horiz-adv-x="642" d="M322 685Q419 685 488 686T619 691V676Q619 655 620 627T625 573T631 529L604 517Q591 559 577 584T541 622T487 639T406 643Q394 643 385 639T373 616Q373 616 371 593T367 510T365 342Q365 234 367 175T371
93T373 69Q375 50 394 43T458 26L455 -3Q424 -1 392 -1T322 0Q244 0 181 -3L178 26Q223 35 244 42T267 69Q267 69 269 92T273 175T275 342Q275 450 273 509T269 592T267 616Q265 635 256 639T236 643Q188 643 156 639T102 623T66 585T38 517L11 529Q14 546 17 572T21
627T23 676V691Q85 687 155 686T322 685Z" />
<glyph unicode="U" glyph-name="U" horiz-adv-x="760" d="M584 616Q582 635 559 642T490 659L493 688Q525 687 561 686T635 685Q660 685 676 685T706 686T742 688L745 659Q700 650 682 643T663 616Q659 524 657 432T652 247Q650 176 624 117T538 23T380 -12Q296
-12 237 8T145 81T111 236Q110 331 108 426T104 616Q104 635 86 642T22 659L25 688Q57 687 89 686T159 685Q197 685 227 686T289 688L292 659Q247 650 230 643T210 616Q210 616 208 590T203 501T201 322Q201 258 204 207T224 119T277 64T380 45Q448 45 489 66T553
126T584 219T592 339Q592 447 590 507T586 591T584 616Z" />
<glyph unicode="V" glyph-name="V" horiz-adv-x="689" d="M356 87H361Q381 151 404 222T449 363T489 489T517 581T527 621Q527 635 505 643T441 659L444 688Q476 687 508 686T577 685Q615 685 637 686T691 688L694 659Q649 650 631 640T604 610Q604 610 593 579T564
495T522 377T476 243T431 111T395 0L297 -9L83 616Q76 633 60 641T-2 659L1 688Q33 687 65 686T134 685Q172 685 203 686T266 688L269 659Q229 651 205 644T181 622Q181 618 192 581T223 486T266 358T313 218T356 87Z" />
<glyph unicode="W" glyph-name="W" horiz-adv-x="990" d="M491 531H487L338 0L246 -9L83 616Q76 633 60 641T-2 659L1 688Q33 687 65 686T134 685Q206 685 269 688L272 659Q232 651 208 644T184 622Q184 619 194 576T221 460T261 298T306 109H311Q336 191 359
273T403 429T438 561T461 652T470 685H535L711 109H716Q729 165 744 230T775 360T803 480T822 573T830 621Q830 635 808 643T744 659L747 688Q779 687 811 686T880 685Q918 685 940 686T994 688L997 659Q952 650 932 640T907 610Q907 610 900 580T879 498T850 382T815
248T780 115T749 0L657 -9L491 531Z" />
<glyph unicode="X" glyph-name="X" horiz-adv-x="700" d="M366 409Q411 468 446 514T501 590T522 623Q522 634 498 642T435 659L438 688Q470 687 502 686T571 685Q609 685 631 686T685 688L688 659Q643 650 627 639T598 610L403 358L611 69Q619 59 627 52T650
38T696 26L693 -3Q662 -1 630 -1T560 0Q482 0 419 -3L416 26Q456 34 480 42T505 63Q505 68 483 98T425 179T343 293Q299 234 260 183T197 100T173 62Q173 52 197 43T260 26L257 -3Q226 -1 194 -1T124 0Q87 0 65 0T10 -3L7 26Q52 35 68 47T97 75L305 344L111 616Q104
627 96 634T72 647T26 659L29 688Q61 687 93 686T162 685Q240 685 303 688L306 659Q266 652 242 644T217 623Q217 620 237 590T292 513T366 409Z" />
<glyph unicode="Y" glyph-name="Y" horiz-adv-x="641" d="M336 331Q381 414 409 467T454 552T477 597T485 616T487 623Q487 635 461 643T395 659L398 688Q430 687 462 686T531 685Q569 685 591 686T645 688L648 659Q603 650 586 639T558 610L365 263Q366 186 367
144T371 86T373 69Q375 50 394 43T458 26L455 -3Q424 -1 392 -1T322 0Q244 0 181 -3L178 26Q223 35 244 42T267 69Q267 69 268 86T272 145T274 262L81 616Q72 633 57 641T-4 659L-1 688Q31 687 63 686T132 685Q210 685 273 688L276 659Q236 652 212 644T187 623Q187
621 187 619T189 615L336 331Z" />
<glyph unicode="Z" glyph-name="Z" horiz-adv-x="640" d="M598 652L151 53H267Q350 53 406 56T497 70T553 105T587 171L614 159Q608 141 603 110T595 49T590 0H54L30 35L478 631Q373 631 306 630T198 624T137 606T105 573T83 517L56 529Q59 546 62 572T66 627T68
676V691Q109 688 173 687T311 685T448 685H580L598 652Z" />
<glyph unicode="[" glyph-name="bracketleft" horiz-adv-x="427" d="M124 291Q124 372 121 445T112 574T104 664T100 697L121 707Q140 702 175 698T255 690T347 687L344 651L192 635Q192 635 198 544T205 291Q205 184 202 102T196 -26T192 -72L344 -88L347 -124Q300
-124 256 -127T176 -134T121 -144L100 -134Q100 -134 103 -99T112 -3T120 134T124 291Z" />
<glyph unicode="\" glyph-name="backslash" horiz-adv-x="290" d="M85 701L270 -140H205L20 701H85Z" />
<glyph unicode="]" glyph-name="bracketright" horiz-adv-x="427" d="M303 273Q303 192 306 119T315 -10T323 -100T327 -133L306 -143Q287 -138 252 -134T172 -126T80 -123L83 -87L235 -71Q235 -71 229 20T222 273Q222 381 225 462T232 590T235 636L83 652L80
688Q127 688 171 691T251 698T306 708L327 698Q327 698 324 663T315 567T307 430T303 273Z" />
<glyph unicode="^" glyph-name="asciicircum" horiz-adv-x="523" d="M235 664H286L486 265H417L261 601L105 265H36L235 664Z" />
<glyph unicode="_" glyph-name="underscore" horiz-adv-x="462" d="M44 -16Q85 -18 111 -19T164 -20T231 -21Q278 -21 310 -21T376 -19T455 -16L462 -31L418 -79Q378 -77 352 -77T299 -76T231 -75Q185 -75 152 -75T87 -77T7 -80L0 -64L44 -16Z" />
<glyph unicode="`" glyph-name="grave" horiz-adv-x="0" d="M32 518L-141 680Q-139 697 -118 709T-72 722L62 523L32 518Z" />
<glyph unicode="a" glyph-name="a" horiz-adv-x="457" d="M437 52L447 26Q409 -9 364 -9Q339 -9 319 6T294 56Q257 28 221 10T142 -9Q102 -9 71 16T39 95Q39 131 62 165T140 224T291 255V348Q291 377 270 391T218 406Q174 406 153 385T132 333Q132 321 135 306L113
296Q92 307 75 326T58 354Q58 361 70 378T108 414T169 446T252 460Q283 460 308 451T349 419T364 353Q364 343 364 317T366 257T367 189T369 128T370 92Q371 65 381 55T406 44Q412 44 420 46T437 52ZM291 94V210Q203 208 163 177T123 111Q123 81 141 66T188 51Q210
51 236 61T291 94Z" />
<glyph unicode="b" glyph-name="b" horiz-adv-x="536" d="M265 -9Q210 -9 160 1T74 25Q74 25 76 57T80 165T82 369Q82 466 81 525T78 615T75 656T74 667L10 686L8 712Q26 712 50 714T99 721T140 730L159 721Q159 721 158 640T157 402Q195 431 237 445T319 460Q366
460 406 438T470 368T495 243Q495 157 463 101T378 18T265 -9ZM248 44Q310 44 345 72T395 145T410 237Q410 308 382 352T280 397Q245 397 209 387T156 366Q156 260 157 196T161 101T164 61Q187 52 208 48T248 44Z" />
<glyph unicode="c" glyph-name="c" horiz-adv-x="443" d="M409 90L421 57Q387 30 344 11T244 -9Q174 -9 128 20T59 101T36 215Q36 260 50 303T93 382T164 439T264 460Q307 460 341 446T395 415T415 392Q415 379 409 358T391 319H367Q361 336 347 356T310 391T253
406Q209 406 180 379T138 309T124 222Q124 131 165 91T270 50Q302 50 340 60T409 90Z" />
<glyph unicode="d" glyph-name="d" horiz-adv-x="544" d="M377 56Q342 23 302 7T223 -9Q173 -9 131 16T64 92T39 217Q39 297 69 351T148 433T256 461Q288 461 315 454T376 426Q376 504 375 552T372 624T369 658T368 667L304 686L302 712Q320 712 344 714T393 721T434
730L453 721Q453 721 452 628T451 352Q451 231 452 171T454 85Q455 67 467 58T496 47T530 43L527 14Q500 12 472 7T418 -4Q418 -4 402 8T377 56ZM376 382Q350 391 328 395T282 400Q226 400 192 374T143 307T128 219Q128 149 159 102T258 54Q293 54 324 68T371 94Q372
110 373 153T375 257T376 382Z" />
<glyph unicode="e" glyph-name="e" horiz-adv-x="459" d="M403 83L415 53Q384 28 343 10T251 -9Q177 -9 130 20T60 99T37 207Q37 255 50 300T92 381T166 438T276 460Q312 460 347 443T405 389T428 289L394 248Q390 249 381 249T357 249Q332 249 298 249T229 247T165
245T122 242V233Q122 139 161 95T264 51Q301 51 334 59T403 83ZM338 320Q338 354 325 373T292 402T254 411Q205 411 172 373T128 283L335 291Q338 306 338 320Z" />
<glyph unicode="f" glyph-name="f" horiz-adv-x="316" d="M187 48Q188 43 202 38T235 30T263 26L260 -3Q236 -1 199 -1T135 0Q110 0 79 0T23 -3L26 26Q37 27 52 30T80 38T94 48Q94 48 95 64T98 119T101 229T102 406Q69 405 51 405T33 405L30 416L53 455Q53 455
64 454T101 451Q101 520 123 569T178 649T245 698T307 723T342 730Q347 730 357 720T378 693T393 660L378 641Q365 647 342 653T292 660Q264 660 238 645T194 585T177 452Q239 452 273 452T307 453L312 441L281 402Q281 402 256 403T177 406Q177 301 178 233T181
125T185 68T187 48Z" />
<glyph unicode="g" glyph-name="g" horiz-adv-x="490" d="M354 429Q360 438 373 454T403 483T434 496Q439 496 449 486T470 459T485 426L470 407Q463 411 452 413T426 416Q416 416 404 414T380 405Q397 385 406 357T415 288Q415 249 397 211T338 148T233 123Q210
123 189 126Q172 104 162 88T152 60Q152 47 167 42T217 37H292Q388 37 434 5T481 -85Q481 -126 449 -167T355 -236T203 -263Q158 -263 117 -253T48 -222T21 -169Q21 -141 46 -103T124 -22Q93 -15 77 -2T61 27Q61 47 87 75T151 133Q103 148 77 186T50 294Q50 333
69 371T128 434T233 459Q269 459 300 453T354 429ZM329 278Q329 311 322 343T295 396T234 418Q203 418 183 404T153 370T139 329T135 294Q135 264 143 234T173 184T230 164Q269 164 290 184T319 231T329 278ZM105 -136Q105 -173 133 -198T219 -223Q273 -223 313
-203T375 -152T397 -93Q397 -65 373 -45T290 -25H155Q130 -53 118 -81T105 -136Z" />
<glyph unicode="h" glyph-name="h" horiz-adv-x="558" d="M166 362Q166 263 167 202T171 107T175 62T177 48Q178 43 189 38T216 30T241 26L238 -3Q214 -1 185 -1T130 0Q105 0 74 0T18 -3L21 26Q32 27 46 30T71 38T84 48Q84 48 85 62T87 112T90 210T91 369Q91 466
90 525T87 615T84 656T83 667L19 686L17 712Q35 712 59 714T108 721T149 730L168 721Q168 721 167 638T166 402Q187 414 221 427T293 450T366 460Q409 460 438 440T468 365V229Q468 156 470 117T475 63T478 48Q479 43 490 38T517 30T542 26L539 -3Q515 -1 486 -1T431
0Q406 0 375 0T319 -3L322 26Q333 27 347 30T372 38T385 48Q385 48 387 63T391 117T393 229V334Q393 371 372 384T318 398Q293 398 264 392T208 377T166 362Z" />
<glyph unicode="i" glyph-name="i" horiz-adv-x="275" d="M161 459L180 450Q180 437 180 410T179 351T179 286T178 229Q178 156 180 117T185 63T188 48Q189 43 202 38T232 30T259 26L256 -3Q232 -1 200 -1T141 0Q116 0 81 0T22 -3L25 26Q36 27 52 30T81 38T95
48Q95 48 97 63T101 117T103 229Q103 302 101 337T97 384T95 396L31 415L29 441Q47 441 71 443T120 450T161 459ZM138 563Q116 563 101 578T86 617Q86 639 101 654T138 669Q160 669 175 654T190 617Q190 594 175 579T138 563Z" />
<glyph unicode="j" glyph-name="j" horiz-adv-x="258" d="M105 15Q105 152 103 236T99 358T97 396L33 415L31 441Q49 441 73 443T122 450T163 459L182 450Q182 450 182 402T181 265T180 54Q180 -25 165 -80T128 -171T81 -227T39 -255T15 -263Q10 -263 0 -253T-21
-226T-36 -193L-21 -174Q-11 -180 5 -186T39 -193Q55 -193 70 -178T95 -117T105 15ZM141 563Q119 563 104 578T89 617Q89 639 104 654T141 669Q163 669 178 654T193 617Q193 594 178 579T141 563Z" />
<glyph unicode="k" glyph-name="k" horiz-adv-x="517" d="M517 26L514 -3Q497 -3 471 -4T421 -6T385 -9L200 249L169 226Q171 128 174 89T177 48Q178 43 189 38T216 30T241 26L238 -3Q214 -1 185 -1T130 0Q105 0 74 0T18 -3L21 26Q32 27 46 30T71 38T84 48Q84
48 85 62T88 112T91 210T93 369Q93 466 92 525T89 615T86 656T85 667L21 686L19 712Q37 712 61 714T110 721T151 730L170 721Q170 721 169 628T168 352V272L328 392Q335 398 335 404Q335 412 321 419T275 427L278 456Q299 455 312 455T339 454T378 453Q415 453
436 454T489 456L492 427Q451 421 427 409T386 386L262 294L450 43Q459 30 480 29T517 26Z" />
<glyph unicode="l" glyph-name="l" horiz-adv-x="272" d="M173 352Q173 262 174 205T178 115T181 68T184 48Q185 43 198 38T227 30T254 26L251 -3Q227 -1 195 -1T137 0Q112 0 78 0T19 -3L22 26Q33 27 48 30T77 38T91 48Q91 48 92 62T94 112T97 210T98 370Q98 466
97 525T94 615T91 656T90 667L26 686L24 712Q42 712 66 714T115 721T156 730L175 721Q175 721 174 628T173 352Z" />
<glyph unicode="m" glyph-name="m" horiz-adv-x="838" d="M821 26L818 -3Q794 -1 765 -1T710 0Q685 0 654 0T598 -3L601 26Q612 27 626 30T651 38T664 48Q664 48 666 63T670 117T672 229V334Q672 371 651 384T597 398Q562 398 523 386T459 364V229Q459 156 461
117T466 63T469 48Q470 43 481 38T508 30T533 26L530 -3Q506 -1 477 -1T422 0Q397 0 366 0T310 -3L313 26Q324 27 338 30T363 38T376 48Q376 48 378 63T382 117T384 229V334Q384 371 363 384T309 398Q286 398 260 392T210 377T172 362V229Q172 156 175 117T180
63T183 48Q184 43 195 38T222 30T247 26L244 -3Q220 -1 191 -1T136 0Q111 0 80 0T24 -3L27 26Q38 27 52 30T77 38T90 48Q90 48 92 63T95 117T97 229Q97 302 95 337T91 384T89 396L25 415L23 441Q41 441 65 443T114 450T155 459L174 450Q174 450 174 435T173 402Q193
414 224 427T290 450T357 460Q391 460 417 447T454 402Q474 414 506 427T575 450T645 460Q688 460 717 440T747 365V229Q747 156 749 117T754 63T757 48Q758 43 769 38T796 30T821 26Z" />
<glyph unicode="n" glyph-name="n" horiz-adv-x="560" d="M155 459L174 450V402Q195 414 227 427T296 450T367 460Q410 460 439 440T469 365V229Q469 156 471 117T476 63T479 48Q480 43 491 38T518 30T543 26L540 -3Q516 -1 487 -1T432 0Q407 0 376 0T320 -3L323
26Q334 27 348 30T373 38T386 48Q386 48 388 63T392 117T394 229V334Q394 371 373 384T319 398Q294 398 267 392T214 377T173 362Q173 337 173 305T172 229Q172 156 174 117T179 63T182 48Q183 43 194 38T221 30T246 26L243 -3Q219 -1 190 -1T135 0Q110 0 79 0T23
-3L26 26Q37 27 51 30T76 38T89 48Q89 48 91 63T95 117T97 229Q97 302 95 337T91 384T89 396L25 415L23 441Q41 441 65 443T114 450T155 459Z" />
<glyph unicode="o" glyph-name="o" horiz-adv-x="529" d="M490 243Q490 195 477 150T435 69T362 12T251 -9Q139 -9 89 50T39 206Q39 254 52 299T94 380T168 438T278 460Q353 460 399 433T468 356T490 243ZM404 206Q404 257 393 304T352 381T267 411Q223 411 195
391T152 340T131 280T125 230Q125 181 138 138T181 67T262 39Q302 39 329 56T373 101T397 156T404 206Z" />
<glyph unicode="p" glyph-name="p" horiz-adv-x="546" d="M164 23Q165 -71 166 -122T168 -193T170 -215Q171 -220 184 -224T213 -230T240 -234L237 -263Q213 -261 181 -261T123 -260Q98 -260 64 -260T5 -263L8 -234Q19 -233 34 -231T63 -224T77 -215Q77 -215 79
-202T83 -155T87 -60T89 98Q89 195 88 254T85 344T82 385T81 396L17 415L15 441Q42 441 81 446T146 459L165 450V401Q203 430 245 445T328 460Q376 460 416 438T480 368T505 243Q505 157 476 101T398 18T288 -9Q257 -9 226 -1T164 23ZM164 366V61Q190 52 213 48T256
44Q319 44 354 72T405 145T420 237Q420 308 391 352T288 397Q253 397 217 387T164 366Z" />
<glyph unicode="q" glyph-name="q" horiz-adv-x="536" d="M393 430L435 467L454 458Q454 458 453 367T452 89Q452 -1 453 -58T457 -148T460 -195T463 -215Q464 -220 475 -224T502 -230T527 -234L524 -263Q500 -261 471 -261T416 -260Q391 -260 357 -260T298 -263L301
-234Q312 -233 327 -231T356 -224T370 -215Q370 -215 372 -194T376 -116T378 44Q335 14 300 2T219 -10Q162 -10 122 21T62 103T41 211Q41 283 71 339T153 428T266 461Q297 461 330 454T393 430ZM379 81Q379 185 377 249T373 347T370 389Q347 398 326 402T286 406Q235
406 201 377T148 304T130 211Q130 170 144 133T187 73T262 50Q294 50 320 57T379 81Z" />
<glyph unicode="r" glyph-name="r" horiz-adv-x="377" d="M160 459L179 450Q178 439 178 417T177 368Q199 405 228 426T283 456T319 466Q324 466 334 456T355 429T370 396L355 377Q342 382 324 386T286 391Q260 391 235 379T194 337T177 254Q177 172 178 130T182
71T186 49Q188 41 216 35T272 26L269 -3Q253 -2 229 -2T181 -1T140 0Q115 0 83 0T26 -3L29 26Q40 27 54 30T81 38T94 48Q94 48 96 63T100 117T102 229Q102 302 100 337T96 384T94 396L30 415L28 441Q46 441 70 443T119 450T160 459Z" />
<glyph unicode="s" glyph-name="s" horiz-adv-x="382" d="M193 460Q255 460 289 448T324 435Q324 413 325 385T330 336L304 327Q291 380 267 399T205 418Q171 418 151 399T130 354Q130 336 141 317T182 280L284 224Q315 207 332 181T350 117Q350 87 334 58T283
10T190 -9Q160 -9 122 -3T40 16Q43 31 45 52T50 95T52 131L78 140Q87 105 96 80T124 41T184 28Q227 28 249 49T271 96Q271 115 260 133T224 164L116 224Q82 242 66 271T50 331Q50 363 66 392T115 441T193 460Z" />
<glyph unicode="t" glyph-name="t" horiz-adv-x="327" d="M311 71L323 38Q289 16 258 4T195 -9Q152 -9 122 12T91 91Q91 91 91 115T92 175T92 243Q92 293 92 334T90 406Q60 405 43 405T26 405L23 416L46 455Q46 455 56 454T88 451Q88 471 87 492T85 528T84 543L150
602L169 593Q169 593 169 572T168 518T167 452Q235 452 274 452T314 453L319 441L283 401Q283 401 256 403T167 406V272Q167 212 167 173T170 93Q172 68 187 58T223 48Q246 48 270 56T311 71Z" />
<glyph unicode="u" glyph-name="u" horiz-adv-x="550" d="M458 85Q459 67 470 58T499 47T534 43L531 14Q504 12 476 7T422 -4Q422 -4 406 8T381 56Q341 29 289 10T187 -9Q143 -9 114 13T85 95V229Q85 302 84 337T80 384T78 396L19 415L17 441Q44 441 81 446T144
459L163 450Q163 450 163 420T162 341T161 234T160 120Q160 83 180 68T241 53Q278 53 316 67T376 95Q378 115 379 143T380 229Q380 302 378 337T374 384T372 396L309 415L307 441Q325 441 349 443T398 450T439 459L458 450Q458 450 457 391T455 202Q455 139 456
112T458 85Z" />
<glyph unicode="v" glyph-name="v" horiz-adv-x="479" d="M142 397Q142 393 171 310T250 66Q303 228 331 310T359 398Q359 420 304 427L301 456Q301 456 323 455T373 453Q392 453 415 454T457 455T475 456L478 427Q443 422 431 413T414 387L278 0L203 -9L66 386Q62
397 50 409T5 427L2 456Q2 456 20 456T62 454T104 453Q123 453 146 454T185 455T202 456L205 427Q172 423 157 414T142 397Z" />
<glyph unicode="w" glyph-name="w" horiz-adv-x="725" d="M604 396Q604 407 587 415T541 427L538 456Q538 456 564 455T618 453Q637 453 660 454T702 455T720 456L723 427Q691 423 678 414T660 390L549 0L470 -9L360 279L257 0L179 -9L67 386Q64 397 52 409T6
427L3 456Q3 456 21 456T63 454T105 453Q124 453 150 454T197 455T217 456L220 427Q182 422 168 412T153 393Q153 391 158 367T173 307T192 227T213 142T232 66L368 450H390L522 66Q530 100 540 142T562 227T583 307T598 369T604 396Z" />
<glyph unicode="x" glyph-name="x" horiz-adv-x="496" d="M234 183L148 70Q132 50 132 44Q132 38 146 34T194 26L188 -3Q188 -3 175 -2T143 -1T104 0Q86 0 63 0T24 -2T7 -3L10 26Q39 29 51 35T73 54L207 222L85 399Q78 409 67 416T27 427L24 456Q24 456 45 456T94
454T141 453Q160 453 179 454T212 455T226 456L229 427Q195 424 184 419T173 407Q173 399 189 377L263 275L338 376Q344 384 348 391T352 406Q352 415 342 419T304 427L301 456Q301 456 315 456T349 454T388 453Q416 453 443 454T470 456L473 427Q454 426 438 415T412
393L291 236L422 57Q429 47 443 38T490 26L487 -3Q487 -3 466 -2T417 -1T370 0Q351 0 329 0T290 -2T274 -3L277 26Q309 29 319 34T330 47Q330 52 318 68L234 183Z" />
<glyph unicode="y" glyph-name="y" horiz-adv-x="482" d="M228 0L193 21L63 386Q59 397 47 409T2 427L-1 456Q-1 456 17 456T59 454T101 453Q120 453 143 454T182 455T199 456L202 427Q169 423 156 414T142 397Q142 393 171 309T252 64Q308 222 336 305T364 398Q364
420 309 427L306 456Q306 456 328 455T378 453Q396 453 420 454T462 455T480 456L483 427Q452 423 440 416T423 394T408 354L275 0Q239 -96 207 -150T150 -228T105 -257T75 -263Q70 -263 60 -253T39 -226T24 -193L39 -174Q58 -183 84 -183Q100 -183 122 -169T171
-116T228 0Z" />
<glyph unicode="z" glyph-name="z" horiz-adv-x="444" d="M398 0H46L26 30L313 410Q237 410 194 409T128 399T94 374T73 324L47 333Q50 352 53 384T56 442V455Q79 453 121 452T214 451T313 450T398 450L413 422L130 45Q219 45 271 51T351 79T393 147L419 138Q414
123 410 96T402 43T398 0Z" />
<glyph unicode="{" glyph-name="braceleft" horiz-adv-x="353" d="M60 263V297Q61 297 71 298T95 305T119 325T129 364Q129 370 124 396T112 458T98 534T85 607T80 660Q80 677 100 686T154 700T227 706T303 707L300 671Q275 671 243 667T188 655T164 635Q164 635
168 618T179 571T190 507T195 435Q195 401 192 370T176 316T137 280Q163 269 175 245T191 191T195 126Q195 78 188 32T172 -45T164 -75Q164 -86 187 -94T243 -106T300 -111L303 -147Q266 -147 227 -146T155 -141T101 -127T80 -100Q80 -81 85 -48T97 25T112 101T124
164T129 196Q129 222 119 235T96 255T72 262T60 263Z" />
<glyph unicode="|" glyph-name="bar" horiz-adv-x="289" d="M112 -140V701H177V-140H112Z" />
<glyph unicode="}" glyph-name="braceright" horiz-adv-x="353" d="M293 297V263Q292 263 282 262T258 255T234 236T224 196Q224 190 229 164T241 102T256 26T268 -47T273 -100Q273 -117 253 -126T199 -140T126 -146T50 -147L53 -111Q79 -110 110 -106T165 -94T189
-75Q189 -75 185 -58T174 -11T163 53T158 125Q158 159 161 190T177 245T216 280Q190 292 178 315T162 370T158 434Q158 483 166 529T181 605T189 635Q189 647 166 654T111 666T53 671L50 707Q87 707 126 706T198 701T252 687T273 660Q273 641 268 608T256 535T242
459T229 396T224 364Q224 339 234 325T257 305T281 298T293 297Z" />
<glyph unicode="~" glyph-name="asciitilde" horiz-adv-x="523" d="M468 334L499 303Q469 269 440 255T381 241Q351 241 321 251T262 273T202 296T142 306Q113 306 92 296T56 274L25 305Q55 340 84 353T143 367Q173 367 203 357T262 335T322 312T382 302Q411 302
432 312T468 334Z" />
<glyph unicode="&#xa0;" glyph-name="uni00A0" horiz-adv-x="250" />
<glyph unicode="&#xa1;" glyph-name="exclamdown" horiz-adv-x="236" d="M118 461Q140 461 155 446T171 406Q171 384 156 369T118 353Q96 353 81 368T65 406Q65 430 80 445T118 461ZM64 -239L97 284L135 293L172 -212Q172 -212 167 -218T140 -231T64 -239Z" />
<glyph unicode="&#xa2;" glyph-name="cent" horiz-adv-x="523" d="M257 553L268 641H313L302 553Q328 551 346 546T388 541Q396 541 406 542T427 546V533Q427 506 430 469T438 409L414 398Q397 460 365 483T296 509L252 153Q275 147 301 147Q328 147 360 154T426
177L440 148Q406 121 364 104T265 86Q260 86 255 86T244 87L232 -9H187L200 94Q151 108 118 140T69 217T53 308Q53 365 76 419T144 510T257 553ZM139 328Q139 282 155 240T209 172L251 507Q209 499 185 472T150 406T139 328Z" />
<glyph unicode="&#xa3;" glyph-name="sterling" horiz-adv-x="523" d="M128 50Q164 46 195 44T251 42Q312 42 349 53T409 89T446 151L469 140Q464 124 460 97T452 43T448 0H46L31 24L76 54Q95 86 107 127T126 212T134 289H40L46 332H134Q133 384 126 424T119 490Q119
573 168 607T296 641Q333 641 354 635T403 628Q411 628 421 629T442 633Q442 616 443 591T447 540T453 496L429 485Q410 553 378 575T297 597Q258 597 239 577T213 522T207 447Q207 422 208 396T210 341V332H366L360 289H208Q204 219 185 153T128 50Z" />
<glyph unicode="&#xa4;" glyph-name="currency" horiz-adv-x="523" d="M33 148L115 213Q79 262 79 323Q79 382 115 432L35 495L86 551L152 468Q175 485 202 494T261 504Q291 504 318 495T370 468L434 549L489 496L407 431Q423 408 433 381T443 323Q443 292 433
264T407 213L487 151L436 95L370 177Q320 141 261 141Q200 141 151 177L89 97L33 148ZM146 323Q146 274 179 241T261 207Q311 207 343 240T376 323Q376 371 344 404T261 438Q212 438 179 405T146 323Z" />
<glyph unicode="&#xa5;" glyph-name="yen" horiz-adv-x="523" d="M162 584Q162 582 171 556T196 487T231 394T271 295L393 569Q395 572 395 575T395 580Q395 591 385 598T349 612L352 641Q372 640 388 639T426 638Q452 638 503 641L506 612Q481 608 470 599T448
569L363 379H471L465 336H343L320 284H471L465 241H308Q309 144 311 107T313 69Q315 50 334 43T398 26L395 -3Q364 -1 334 -1T265 0Q190 0 127 -3L124 26Q169 35 190 42T213 69Q213 69 214 105T217 241H54L60 284H201L180 336H54L60 379H163L87 570Q80 590 64 598T22
612L25 641Q49 640 72 639T113 638Q146 638 169 639T206 641L209 612Q186 608 174 602T162 584Z" />
<glyph unicode="&#xa6;" glyph-name="brokenbar" horiz-adv-x="289" d="M112 366V701H177V366H112ZM112 -140V195H177V-140H112Z" />
<glyph unicode="&#xa7;" glyph-name="section" horiz-adv-x="501" d="M474 707Q485 697 489 683T494 655Q494 633 485 614T461 584Q435 594 408 594Q349 594 313 569T258 499T233 399T226 283V174Q226 123 222 77T205 -4T166 -60T96 -81Q90 -81 84 -81T72 -79Q107
-61 125 -37T152 25T162 121T164 266Q164 340 175 410T217 541T310 645T474 707ZM27 -229Q17 -218 12 -205T7 -177Q7 -155 16 -136T40 -106Q66 -116 93 -116Q152 -116 188 -91T243 -21T268 79T275 195V304Q275 355 279 401T296 482T335 538T405 559Q411 559 417
559T429 557Q395 539 376 515T349 453T339 357T337 212Q337 139 326 68T284 -63T191 -167T27 -229Z" />
<glyph unicode="&#xa8;" glyph-name="dieresis" horiz-adv-x="0" d="M90 563Q68 563 53 578T38 617Q38 639 53 654T90 669Q112 669 127 654T142 617Q142 594 127 579T90 563ZM-90 563Q-112 563 -127 578T-142 617Q-142 639 -127 654T-90 669Q-68 669 -53 654T-38
617Q-38 594 -53 579T-90 563Z" />
<glyph unicode="&#xa9;" glyph-name="copyright" horiz-adv-x="600" d="M18 479Q18 537 40 588T100 677T190 738T299 760Q358 760 409 738T498 678T559 588T581 479Q581 421 559 370T499 280T409 219T299 197Q241 197 190 219T101 279T40 369T18 479ZM55 479Q55
412 88 357T176 268T299 235Q367 235 422 268T510 356T543 479Q543 546 510 601T422 690T299 723Q232 723 177 690T88 602T55 479ZM302 339Q345 339 372 358T409 408L431 399Q427 385 425 369T420 336Q389 325 359 319T300 312Q252 312 213 328T150 380T126 469Q126
515 144 556T202 624T306 651Q323 651 342 648T381 644Q389 644 397 645T412 649Q412 627 413 605T417 570L396 561Q385 599 358 613T299 627Q271 627 245 612T203 566T186 487Q186 452 197 418T234 361T302 339Z" />
<glyph unicode="&#xaa;" glyph-name="ordfeminine" horiz-adv-x="286" d="M273 406L282 384Q269 374 255 367T226 360Q210 360 198 369T180 398Q158 382 136 371T89 360Q63 360 42 374T21 422Q21 457 59 488T177 530V584Q177 601 165 609T135 617Q111 617 99 605T87
574Q87 570 87 567T90 556L71 548Q56 556 45 569T33 588Q33 594 47 610T89 641T157 656Q187 656 208 642T230 587Q230 579 230 557T232 507T233 457T234 426Q234 410 239 405T252 400Q255 400 260 401T273 406ZM177 422V496Q128 495 105 476T82 435Q82 419 92 412T118
404Q131 404 146 408T177 422ZM37 317Q61 315 76 314T106 313T145 313Q172 313 191 313T228 314T274 317L278 305L253 266Q230 268 215 268T184 269T145 269Q119 269 100 269T62 268T16 265L12 278L37 317Z" />
<glyph unicode="&#xab;" glyph-name="guillemotleft" horiz-adv-x="517" d="M397 389L417 372L313 223L417 74L397 57L240 208Q236 216 236 223Q236 230 240 238L397 389ZM251 389L271 372L167 223L271 74L251 57L94 208Q90 216 90 223Q90 230 94 238L251 389Z" />
<glyph unicode="&#xac;" glyph-name="logicalnot" horiz-adv-x="523" d="M24 273V334H499V66H438V273H24Z" />
<glyph unicode="&#xae;" glyph-name="registered" horiz-adv-x="600" d="M18 479Q18 537 40 588T100 677T190 738T299 760Q358 760 409 738T498 678T559 588T581 479Q581 421 559 370T499 280T409 219T299 197Q241 197 190 219T101 279T40 369T18 479ZM55 479Q55
412 88 357T176 268T299 235Q367 235 422 268T510 356T543 479Q543 546 510 601T422 690T299 723Q232 723 177 690T88 602T55 479ZM258 352Q259 344 268 341T299 332L298 316Q282 317 264 317T227 318Q210 318 190 318T154 316L152 332Q175 337 185 340T196 352Q196
352 198 379T200 483Q200 559 198 586T196 613Q195 621 187 624T156 632L157 648Q173 647 191 647T227 647H309Q359 647 383 624T407 572Q407 546 390 522T341 483Q363 446 382 411T424 341Q435 336 463 332L462 316Q447 316 427 316T392 314T377 313L294 473Q284
472 274 472T252 472Q252 422 253 396T256 361T258 352ZM319 496Q355 517 355 569Q355 624 281 624Q268 624 264 623T258 615Q258 615 255 590T252 491Q267 491 287 491T319 496Z" />
<glyph unicode="&#xaf;" glyph-name="overscore" horiz-adv-x="0" d="M160 618L121 572Q87 574 53 575T-17 576Q-51 576 -85 575T-154 572L-162 588L-123 634Q-85 632 -48 631T26 629Q58 629 89 630T152 633L160 618Z" />
<glyph unicode="&#xb0;" glyph-name="degree" horiz-adv-x="281" d="M10 554Q10 590 27 620T74 667T140 685Q176 685 205 668T253 620T271 554Q271 518 253 489T206 442T140 424Q104 424 75 441T28 488T10 554ZM52 554Q52 517 77 492T140 466Q177 466 203 491T230
554Q230 591 204 617T140 644Q103 644 78 618T52 554Z" />
<glyph unicode="&#xb1;" glyph-name="plusminus" horiz-adv-x="523" d="M231 541H292V334H499V273H292V66H231V273H24V334H231V541ZM24 -60V1H499V-60H24Z" />
<glyph unicode="&#xb2;" glyph-name="uni00B2" horiz-adv-x="320" d="M286 562Q286 525 268 490T222 423T166 367T118 327T95 310L97 307Q158 307 192 311T245 329T272 374L302 367Q299 356 296 337T292 298T289 267H25L18 297Q18 297 37 313T85 355T141 415T189
485T209 554Q209 592 188 607T138 622Q113 622 89 614T52 599L37 623Q60 642 90 656T163 671Q195 671 223 659T268 623T286 562Z" />
<glyph unicode="&#xb3;" glyph-name="uni00B3" horiz-adv-x="320" d="M266 596Q266 565 244 534T177 484V480Q229 473 257 442T285 371Q285 340 265 310T203 261T94 241Q65 241 30 247L32 284Q53 279 91 279Q132 279 159 293T199 330T212 375Q212 407 189 431T121
456Q111 456 101 455T78 450L80 486Q144 497 170 524T196 577Q196 603 181 613T143 624Q122 624 101 617T63 599L49 624Q75 645 105 658T172 671Q220 671 243 649T266 596Z" />
<glyph unicode="&#xb4;" glyph-name="acute" horiz-adv-x="0" d="M147 680L-26 518L-56 523L78 722Q103 722 124 710T147 680Z" />
<glyph unicode="&#xb5;" glyph-name="uni00B5" horiz-adv-x="550" d="M217 -9Q189 -9 166 1T134 37H130V-21Q130 -61 136 -96T157 -154T202 -176Q216 -176 216 -189Q216 -205 208 -221T188 -248T165 -259Q150 -259 136 -248T111 -204T92 -103T85 78Q85 155 84
211T82 312T78 396L19 415L17 441Q44 441 81 446T144 459L163 450Q163 450 163 423T162 349T161 248T160 138Q160 86 182 72T240 58Q277 58 316 70T376 95Q378 115 379 143T380 229Q380 302 378 337T374 384T372 396L309 415L307 441Q325 441 349 443T398 450T439
459L458 450Q458 450 457 391T455 202Q455 139 456 116T458 92Q459 65 469 55T493 44Q510 44 531 56L534 26Q516 10 494 0T451 -10Q426 -10 406 6T381 56Q365 40 337 25T278 1T217 -9Z" />
<glyph unicode="&#xb6;" glyph-name="paragraph" horiz-adv-x="524" d="M186 -229Q172 -218 166 -203T160 -172Q160 -158 166 -137T180 -106Q207 -116 234 -116Q290 -116 326 -60T363 125Q363 144 362 163T358 204Q294 172 233 172Q183 172 141 192T75 253T50
350Q50 431 104 485T250 567T460 594L467 557Q429 557 412 536T394 471Q394 440 399 394T411 298T423 202T428 121Q428 28 405 -38T344 -147T264 -209T186 -229Z" />
<glyph unicode="&#xb7;" glyph-name="middot" horiz-adv-x="165" d="M82 209Q60 209 45 224T30 264Q30 287 45 301T82 316Q104 316 119 302T135 264Q135 239 120 224T82 209Z" />
<glyph unicode="&#xb8;" glyph-name="cedilla" horiz-adv-x="443" d="M221 11H247Q238 -3 236 -10T234 -24Q234 -36 246 -47T273 -69T300 -93T312 -125Q312 -159 273 -194T154 -259Q138 -246 138 -226Q138 -213 144 -201T161 -180Q207 -178 232 -169T258 -145Q258
-133 248 -124T225 -105T201 -83T191 -53Q191 -41 198 -25T221 11Z" />
<glyph unicode="&#xb9;" glyph-name="uni00B9" horiz-adv-x="320" d="M194 671L208 665Q208 665 207 617T206 472Q206 411 207 377T209 329T210 315Q212 305 224 301T261 291L259 265Q240 266 219 266T174 267Q146 267 118 267T64 265L62 291Q88 295 108 300T130
315Q130 315 131 328T133 376T134 472Q134 534 133 565T131 606T130 617L61 630L59 659Q106 659 140 663T194 671Z" />
<glyph unicode="&#xba;" glyph-name="ordmasculine" horiz-adv-x="331" d="M308 519Q308 479 293 443T245 383T156 360Q85 360 53 397T21 496Q21 536 36 572T84 632T173 656Q244 656 276 618T308 519ZM245 496Q245 526 239 555T216 603T166 623Q140 623 124 611T99
580T87 542T84 511Q84 483 91 456T115 412T163 394Q195 394 212 412T237 454T245 496ZM51 317Q75 315 90 314T120 313T159 313Q186 313 205 313T243 314T288 317L292 305L267 266Q244 268 229 268T198 269T159 269Q133 269 114 269T76 268T30 265L26 278L51 317Z"
/>
<glyph unicode="&#xbb;" glyph-name="guillemotright" horiz-adv-x="517" d="M100 372L120 389L277 238Q281 230 281 223Q281 216 277 208L120 57L100 74L204 223L100 372ZM246 372L266 389L423 238Q427 230 427 223Q427 216 423 208L266 57L246 74L350 223L246 372Z" />
<glyph unicode="&#xbc;" glyph-name="onequarter" horiz-adv-x="750" d="M146 -1L558 679H606L194 -1H146ZM194 671L208 665Q208 665 207 617T206 472Q206 411 207 377T209 329T210 315Q212 305 224 301T261 291L259 265Q240 266 219 266T174 267Q146 267 118
267T64 265L62 291Q88 295 108 300T130 315Q130 315 131 328T133 376T134 472Q134 534 133 565T131 606T130 617L61 630L59 659Q106 659 140 663T194 671ZM642 270V145H688L692 134L669 100L643 102Q644 66 645 58T646 49Q648 39 660 34T697 24L695 -2Q655 1 606
1Q581 1 553 1T505 -2L503 24Q530 29 549 34T570 49Q570 49 571 57T573 103H401L391 134L561 429L631 423L454 144H573V256Q573 256 577 259T595 266T642 270Z" />
<glyph unicode="&#xbd;" glyph-name="onehalf" horiz-adv-x="750" d="M137 -1L549 679H597L185 -1H137ZM194 671L208 665Q208 665 207 617T206 472Q206 411 207 377T209 329T210 315Q212 305 224 301T261 291L259 265Q240 266 219 266T174 267Q146 267 118 267T64
265L62 291Q88 295 108 300T130 315Q130 315 131 328T133 376T134 472Q134 534 133 565T131 606T130 617L61 630L59 659Q106 659 140 663T194 671ZM687 295Q687 258 669 223T623 156T567 100T519 60T496 43L498 40Q559 40 593 44T646 62T673 107L703 100Q700 89
697 70T693 31T690 0H426L419 30Q419 30 438 46T486 88T542 148T590 218T610 287Q610 325 589 340T539 355Q514 355 490 347T453 332L438 356Q461 375 491 389T564 404Q596 404 624 392T669 356T687 295Z" />
<glyph unicode="&#xbe;" glyph-name="threequarters" horiz-adv-x="750" d="M167 -1L579 679H627L215 -1H167ZM279 596Q279 565 257 534T190 484V480Q242 473 270 442T298 371Q298 340 278 310T216 261T107 241Q78 241 43 247L45 284Q66 279 104 279Q145 279 172
293T212 330T225 375Q225 407 202 431T134 456Q124 456 114 455T91 450L93 486Q157 497 183 524T209 577Q209 603 194 613T156 624Q135 624 114 617T76 599L62 624Q88 645 118 658T185 671Q233 671 256 649T279 596ZM661 270V145H707L711 134L688 100L662 102Q663
66 664 58T665 49Q667 39 679 34T716 24L714 -2Q674 1 625 1Q600 1 572 1T524 -2L522 24Q549 29 568 34T589 49Q589 49 590 57T592 103H420L410 134L580 429L650 423L473 144H592V256Q592 256 596 259T614 266T661 270Z" />
<glyph unicode="&#xbf;" glyph-name="questiondown" horiz-adv-x="343" d="M195 461Q217 461 232 446T248 406Q248 384 233 369T195 353Q173 353 158 368T142 406Q142 430 157 445T195 461ZM275 -132Q282 -140 287 -159T293 -190Q293 -204 289 -217T271 -241Q149
-187 100 -130T50 -18Q50 12 64 34T99 74T141 112T176 154T190 209Q190 226 188 244T175 284L213 293Q244 247 255 213T266 153Q266 128 249 108T207 69T157 32T114 -5T97 -46Q97 -81 142 -105T275 -132Z" />
<glyph unicode="&#xc0;" glyph-name="Agrave" horiz-adv-x="694" d="M3 -3L0 26Q47 35 67 45T93 75L292 684L376 694L609 69Q616 52 632 43T694 26L691 -3Q658 -1 626 -1T558 0Q479 0 417 -3L414 26Q466 36 484 44T502 64L447 242H221L167 64Q167 52 186 44T253
26L250 -3Q217 -1 185 -1T117 0Q86 0 64 0T3 -3ZM235 288H431L330 590H326L235 288ZM362 747L189 909Q191 926 212 938T258 951L392 752L362 747Z" />
<glyph unicode="&#xc1;" glyph-name="Aacute" horiz-adv-x="694" d="M3 -3L0 26Q47 35 67 45T93 75L292 684L376 694L609 69Q616 52 632 43T694 26L691 -3Q658 -1 626 -1T558 0Q479 0 417 -3L414 26Q466 36 484 44T502 64L447 242H221L167 64Q167 52 186 44T253
26L250 -3Q217 -1 185 -1T117 0Q86 0 64 0T3 -3ZM235 288H431L330 590H326L235 288ZM478 909L305 747L275 752L409 951Q434 951 455 939T478 909Z" />
<glyph unicode="&#xc2;" glyph-name="Acircumflex" horiz-adv-x="694" d="M3 -3L0 26Q47 35 67 45T93 75L292 684L376 694L609 69Q616 52 632 43T694 26L691 -3Q658 -1 626 -1T558 0Q479 0 417 -3L414 26Q466 36 484 44T502 64L447 242H221L167 64Q167 52 186
44T253 26L250 -3Q217 -1 185 -1T117 0Q86 0 64 0T3 -3ZM235 288H431L330 590H326L235 288ZM329 946H366L460 752L430 747L347 851L265 747L235 752L329 946Z" />
<glyph unicode="&#xc3;" glyph-name="Atilde" horiz-adv-x="694" d="M3 -3L0 26Q47 35 67 45T93 75L292 684L376 694L609 69Q616 52 632 43T694 26L691 -3Q658 -1 626 -1T558 0Q479 0 417 -3L414 26Q466 36 484 44T502 64L447 242H221L167 64Q167 52 186 44T253
26L250 -3Q217 -1 185 -1T117 0Q86 0 64 0T3 -3ZM235 288H431L330 590H326L235 288ZM485 893L511 885Q496 835 477 813T437 786T392 788T345 805T298 820T252 820T209 785L183 793Q198 843 217 865T257 892T302 890T349 873T396 858T442 858T485 893Z" />
<glyph unicode="&#xc4;" glyph-name="Adieresis" horiz-adv-x="694" d="M3 -3L0 26Q47 35 67 45T93 75L292 684L376 694L609 69Q616 52 632 43T694 26L691 -3Q658 -1 626 -1T558 0Q479 0 417 -3L414 26Q466 36 484 44T502 64L447 242H221L167 64Q167 52 186 44T253
26L250 -3Q217 -1 185 -1T117 0Q86 0 64 0T3 -3ZM235 288H431L330 590H326L235 288ZM437 792Q415 792 400 807T385 846Q385 868 400 883T437 898Q459 898 474 883T489 846Q489 823 474 808T437 792ZM257 792Q235 792 220 807T205 846Q205 868 220 883T257 898Q279
898 294 883T309 846Q309 823 294 808T257 792Z" />
<glyph unicode="&#xc5;" glyph-name="Aring" horiz-adv-x="694" d="M3 -3L0 26Q47 35 67 45T93 75L292 684L376 694L609 69Q616 52 632 43T694 26L691 -3Q658 -1 626 -1T558 0Q479 0 417 -3L414 26Q466 36 484 44T502 64L447 242H221L167 64Q167 52 186 44T253
26L250 -3Q217 -1 185 -1T117 0Q86 0 64 0T3 -3ZM235 288H431L330 590H326L235 288ZM242 848Q242 892 273 922T347 953Q391 953 421 923T451 848Q451 805 421 775T347 744Q304 744 273 774T242 848ZM344 923Q324 923 309 909T294 853Q294 823 306 799T346 774Q366
774 380 789T395 844Q395 875 384 899T344 923Z" />
<glyph unicode="&#xc6;" glyph-name="AE" horiz-adv-x="967" d="M475 69Q475 69 477 91T481 170T484 327H277Q248 260 222 203T180 108T163 63Q168 50 190 42T254 26L251 -3Q220 -1 188 -1T118 0Q81 0 58 0T3 -3L0 26Q45 35 63 45T90 75L371 685H588Q674 685 755
687T890 691V680Q890 657 891 629T896 574T902 529L875 517Q861 564 845 590T803 627T738 641T637 644Q615 644 601 640T585 621Q585 621 583 597T578 518T574 367Q606 367 638 368T696 370T734 375Q753 380 760 396T777 463L812 459Q808 432 806 404T804 348Q804
320 806 292T812 236L777 231Q767 281 760 298T734 319Q722 322 696 323T638 326T574 327Q574 224 577 168T582 90T585 68Q590 50 622 43T686 36Q738 36 780 43T854 78T906 171L933 159Q927 141 922 110T914 49T909 0H509Q472 0 447 0T389 -3L386 26Q431 35 452
42T475 69ZM420 646L295 367H484Q484 464 483 518T480 594T479 616Q477 635 463 640T420 646Z" />
<glyph unicode="&#xc7;" glyph-name="Ccedilla" horiz-adv-x="700" d="M404 -12Q292 -12 213 29T91 148T48 334Q48 440 93 521T218 648T403 694Q465 694 505 687T577 679Q604 679 629 685Q629 649 632 605T641 529L614 517Q594 581 540 614T402 648Q327 648 271
611T184 508T153 351Q153 257 185 187T274 77T407 37Q497 37 558 74T641 180L668 168Q659 136 653 100T645 34Q519 -12 404 -12ZM344 11H370Q361 -3 359 -10T357 -24Q357 -36 369 -47T396 -69T423 -93T435 -125Q435 -159 396 -194T277 -259Q261 -246 261 -226Q261
-213 267 -201T284 -180Q330 -178 355 -169T381 -145Q381 -133 371 -124T348 -105T324 -83T314 -53Q314 -41 321 -25T344 11Z" />
<glyph unicode="&#xc8;" glyph-name="Egrave" horiz-adv-x="608" d="M453 236L418 231Q408 281 401 298T375 319Q363 322 337 323T279 326T215 327Q215 224 218 168T223 90T226 68Q231 50 263 43T327 36Q379 36 421 43T495 78T547 171L574 159Q568 141 563 110T555
49T550 0H150Q113 0 88 0T30 -3L27 26Q72 35 93 42T116 69Q116 69 118 92T122 175T125 342Q125 450 123 509T119 592T117 616Q115 635 98 642T35 659L38 688Q70 687 92 686T151 685Q216 685 288 685T425 686T531 691V676Q531 655 532 627T537 573T543 529L516 517Q503
559 489 584T453 622T399 639T318 643Q282 643 256 640T226 621Q226 621 224 597T219 518T215 367Q247 367 279 368T337 370T375 375Q394 380 401 396T418 463L453 459Q449 432 447 404T445 348Q445 320 447 292T453 236ZM319 747L146 909Q148 926 169 938T215
951L349 752L319 747Z" />
<glyph unicode="&#xc9;" glyph-name="Eacute" horiz-adv-x="608" d="M453 236L418 231Q408 281 401 298T375 319Q363 322 337 323T279 326T215 327Q215 224 218 168T223 90T226 68Q231 50 263 43T327 36Q379 36 421 43T495 78T547 171L574 159Q568 141 563 110T555
49T550 0H150Q113 0 88 0T30 -3L27 26Q72 35 93 42T116 69Q116 69 118 92T122 175T125 342Q125 450 123 509T119 592T117 616Q115 635 98 642T35 659L38 688Q70 687 92 686T151 685Q216 685 288 685T425 686T531 691V676Q531 655 532 627T537 573T543 529L516 517Q503
559 489 584T453 622T399 639T318 643Q282 643 256 640T226 621Q226 621 224 597T219 518T215 367Q247 367 279 368T337 370T375 375Q394 380 401 396T418 463L453 459Q449 432 447 404T445 348Q445 320 447 292T453 236ZM435 909L262 747L232 752L366 951Q391
951 412 939T435 909Z" />
<glyph unicode="&#xca;" glyph-name="Ecircumflex" horiz-adv-x="608" d="M453 236L418 231Q408 281 401 298T375 319Q363 322 337 323T279 326T215 327Q215 224 218 168T223 90T226 68Q231 50 263 43T327 36Q379 36 421 43T495 78T547 171L574 159Q568 141 563
110T555 49T550 0H150Q113 0 88 0T30 -3L27 26Q72 35 93 42T116 69Q116 69 118 92T122 175T125 342Q125 450 123 509T119 592T117 616Q115 635 98 642T35 659L38 688Q70 687 92 686T151 685Q216 685 288 685T425 686T531 691V676Q531 655 532 627T537 573T543 529L516
517Q503 559 489 584T453 622T399 639T318 643Q282 643 256 640T226 621Q226 621 224 597T219 518T215 367Q247 367 279 368T337 370T375 375Q394 380 401 396T418 463L453 459Q449 432 447 404T445 348Q445 320 447 292T453 236ZM286 946H323L417 752L387 747L304
851L222 747L192 752L286 946Z" />
<glyph unicode="&#xcb;" glyph-name="Edieresis" horiz-adv-x="608" d="M453 236L418 231Q408 281 401 298T375 319Q363 322 337 323T279 326T215 327Q215 224 218 168T223 90T226 68Q231 50 263 43T327 36Q379 36 421 43T495 78T547 171L574 159Q568 141 563
110T555 49T550 0H150Q113 0 88 0T30 -3L27 26Q72 35 93 42T116 69Q116 69 118 92T122 175T125 342Q125 450 123 509T119 592T117 616Q115 635 98 642T35 659L38 688Q70 687 92 686T151 685Q216 685 288 685T425 686T531 691V676Q531 655 532 627T537 573T543 529L516
517Q503 559 489 584T453 622T399 639T318 643Q282 643 256 640T226 621Q226 621 224 597T219 518T215 367Q247 367 279 368T337 370T375 375Q394 380 401 396T418 463L453 459Q449 432 447 404T445 348Q445 320 447 292T453 236ZM394 792Q372 792 357 807T342
846Q342 868 357 883T394 898Q416 898 431 883T446 846Q446 823 431 808T394 792ZM214 792Q192 792 177 807T162 846Q162 868 177 883T214 898Q236 898 251 883T266 846Q266 823 251 808T214 792Z" />
<glyph unicode="&#xcc;" glyph-name="Igrave" horiz-adv-x="342" d="M216 342Q216 234 218 175T222 93T224 69Q226 50 245 43T309 26L306 -3Q275 -1 243 -1T173 0Q95 0 32 -3L29 26Q74 35 95 42T118 69Q118 69 120 92T124 175T126 342Q126 450 124 509T120 592T118
616Q116 635 99 642T36 659L39 688Q71 687 103 686T173 685Q211 685 241 686T303 688L306 659Q261 650 244 643T224 616Q224 616 222 593T218 510T216 342ZM186 747L13 909Q15 926 36 938T82 951L216 752L186 747Z" />
<glyph unicode="&#xcd;" glyph-name="Iacute" horiz-adv-x="342" d="M216 342Q216 234 218 175T222 93T224 69Q226 50 245 43T309 26L306 -3Q275 -1 243 -1T173 0Q95 0 32 -3L29 26Q74 35 95 42T118 69Q118 69 120 92T124 175T126 342Q126 450 124 509T120 592T118
616Q116 635 99 642T36 659L39 688Q71 687 103 686T173 685Q211 685 241 686T303 688L306 659Q261 650 244 643T224 616Q224 616 222 593T218 510T216 342ZM302 909L129 747L99 752L233 951Q258 951 279 939T302 909Z" />
<glyph unicode="&#xce;" glyph-name="Icircumflex" horiz-adv-x="342" d="M216 342Q216 234 218 175T222 93T224 69Q226 50 245 43T309 26L306 -3Q275 -1 243 -1T173 0Q95 0 32 -3L29 26Q74 35 95 42T118 69Q118 69 120 92T124 175T126 342Q126 450 124 509T120
592T118 616Q116 635 99 642T36 659L39 688Q71 687 103 686T173 685Q211 685 241 686T303 688L306 659Q261 650 244 643T224 616Q224 616 222 593T218 510T216 342ZM153 946H190L284 752L254 747L171 851L89 747L59 752L153 946Z" />
<glyph unicode="&#xcf;" glyph-name="Idieresis" horiz-adv-x="342" d="M216 342Q216 234 218 175T222 93T224 69Q226 50 245 43T309 26L306 -3Q275 -1 243 -1T173 0Q95 0 32 -3L29 26Q74 35 95 42T118 69Q118 69 120 92T124 175T126 342Q126 450 124 509T120
592T118 616Q116 635 99 642T36 659L39 688Q71 687 103 686T173 685Q211 685 241 686T303 688L306 659Q261 650 244 643T224 616Q224 616 222 593T218 510T216 342ZM261 792Q239 792 224 807T209 846Q209 868 224 883T261 898Q283 898 298 883T313 846Q313 823
298 808T261 792ZM81 792Q59 792 44 807T29 846Q29 868 44 883T81 898Q103 898 118 883T133 846Q133 823 118 808T81 792Z" />
<glyph unicode="&#xd0;" glyph-name="Eth" horiz-adv-x="769" d="M173 685H351Q417 685 482 668T602 613T688 514T720 365Q720 263 678 180T551 49T334 0H173Q95 0 32 -3L29 26Q74 35 95 42T118 69Q118 69 120 90T124 165T126 316H38V369H126Q126 466 124 519T120
594T118 616Q116 635 99 642T36 659L39 688Q71 687 103 686T173 685ZM227 60Q254 54 278 51T330 48Q407 48 459 71T542 131T589 209T610 288T615 350Q615 400 603 451T556 546T457 616T289 643Q252 643 241 639T227 622Q227 622 225 599T219 521T216 369H420V315L216
316Q217 219 219 163T224 84T227 60Z" />
<glyph unicode="&#xd1;" glyph-name="Ntilde" horiz-adv-x="785" d="M603 132H608Q610 174 610 228T610 342Q610 450 608 509T603 592T601 616Q599 635 576 642T507 659L510 688Q542 687 578 686T652 685Q677 685 693 685T723 686T759 688L762 659Q717 650 700
643T680 616Q680 616 678 593T673 510T670 342Q670 181 675 91T681 0L601 -9L195 537H190Q189 504 188 455T186 342Q186 234 189 175T194 93T197 69Q199 50 222 43T291 26L288 -3Q257 -1 221 -1T146 0Q109 0 83 0T24 -3L21 26Q66 34 91 42T118 69Q118 69 120 92T124
175T126 342Q126 450 124 509T120 592T118 616Q116 635 99 642T36 659L39 688Q71 687 111 686T188 685L603 132ZM551 893L577 885Q562 835 543 813T503 786T458 788T411 805T364 820T318 820T275 785L249 793Q264 843 283 865T323 892T368 890T415 873T462 858T508
858T551 893Z" />
<glyph unicode="&#xd2;" glyph-name="Ograve" horiz-adv-x="786" d="M737 369Q737 297 717 228T653 104T540 17T372 -16Q259 -16 188 26T83 142T49 314Q49 386 69 454T133 578T246 665T414 698Q528 698 599 657T703 541T737 369ZM632 312Q632 377 622 437T587
545T516 622T398 650Q337 650 295 628T225 570T182 493T160 414T154 350Q154 288 165 231T204 129T276 58T388 32Q443 32 484 51T554 103T599 172T624 246T632 312ZM408 747L235 909Q237 926 258 938T304 951L438 752L408 747Z" />
<glyph unicode="&#xd3;" glyph-name="Oacute" horiz-adv-x="786" d="M737 369Q737 297 717 228T653 104T540 17T372 -16Q259 -16 188 26T83 142T49 314Q49 386 69 454T133 578T246 665T414 698Q528 698 599 657T703 541T737 369ZM632 312Q632 377 622 437T587
545T516 622T398 650Q337 650 295 628T225 570T182 493T160 414T154 350Q154 288 165 231T204 129T276 58T388 32Q443 32 484 51T554 103T599 172T624 246T632 312ZM524 909L351 747L321 752L455 951Q480 951 501 939T524 909Z" />
<glyph unicode="&#xd4;" glyph-name="Ocircumflex" horiz-adv-x="786" d="M737 369Q737 297 717 228T653 104T540 17T372 -16Q259 -16 188 26T83 142T49 314Q49 386 69 454T133 578T246 665T414 698Q528 698 599 657T703 541T737 369ZM632 312Q632 377 622 437T587
545T516 622T398 650Q337 650 295 628T225 570T182 493T160 414T154 350Q154 288 165 231T204 129T276 58T388 32Q443 32 484 51T554 103T599 172T624 246T632 312ZM375 946H412L506 752L476 747L393 851L311 747L281 752L375 946Z" />
<glyph unicode="&#xd5;" glyph-name="Otilde" horiz-adv-x="786" d="M737 369Q737 297 717 228T653 104T540 17T372 -16Q259 -16 188 26T83 142T49 314Q49 386 69 454T133 578T246 665T414 698Q528 698 599 657T703 541T737 369ZM632 312Q632 377 622 437T587
545T516 622T398 650Q337 650 295 628T225 570T182 493T160 414T154 350Q154 288 165 231T204 129T276 58T388 32Q443 32 484 51T554 103T599 172T624 246T632 312ZM531 893L557 885Q542 835 523 813T483 786T438 788T391 805T344 820T298 820T255 785L229 793Q244
843 263 865T303 892T348 890T395 873T442 858T488 858T531 893Z" />
<glyph unicode="&#xd6;" glyph-name="Odieresis" horiz-adv-x="786" d="M737 369Q737 297 717 228T653 104T540 17T372 -16Q259 -16 188 26T83 142T49 314Q49 386 69 454T133 578T246 665T414 698Q528 698 599 657T703 541T737 369ZM632 312Q632 377 622 437T587
545T516 622T398 650Q337 650 295 628T225 570T182 493T160 414T154 350Q154 288 165 231T204 129T276 58T388 32Q443 32 484 51T554 103T599 172T624 246T632 312ZM483 792Q461 792 446 807T431 846Q431 868 446 883T483 898Q505 898 520 883T535 846Q535 823
520 808T483 792ZM303 792Q281 792 266 807T251 846Q251 868 266 883T303 898Q325 898 340 883T355 846Q355 823 340 808T303 792Z" />
<glyph unicode="&#xd7;" glyph-name="multiply" horiz-adv-x="523" d="M443 529L487 486L305 304L486 123L443 79L261 260L81 80L37 123L218 304L37 485L80 529L261 347L443 529Z" />
<glyph unicode="&#xd8;" glyph-name="Oslash" horiz-adv-x="786" d="M737 369Q737 297 717 228T653 104T540 17T372 -16Q259 -16 188 26T83 142T49 314Q49 386 69 454T133 578T246 665T414 698Q528 698 599 657T703 541T737 369ZM632 312Q632 377 622 437T587
545T516 622T398 650Q337 650 295 628T225 570T182 493T160 414T154 350Q154 288 165 231T204 129T276 58T388 32Q443 32 484 51T554 103T599 172T624 246T632 312ZM268 -80L453 761H518L333 -80H268Z" />
<glyph unicode="&#xd9;" glyph-name="Ugrave" horiz-adv-x="760" d="M584 616Q582 635 559 642T490 659L493 688Q525 687 561 686T635 685Q660 685 676 685T706 686T742 688L745 659Q700 650 682 643T663 616Q659 524 657 432T652 247Q650 176 624 117T538 23T380
-12Q296 -12 237 8T145 81T111 236Q110 331 108 426T104 616Q104 635 86 642T22 659L25 688Q57 687 89 686T159 685Q197 685 227 686T289 688L292 659Q247 650 230 643T210 616Q210 616 208 590T203 501T201 322Q201 258 204 207T224 119T277 64T380 45Q448 45
489 66T553 126T584 219T592 339Q592 447 590 507T586 591T584 616ZM417 747L244 909Q246 926 267 938T313 951L447 752L417 747Z" />
<glyph unicode="&#xda;" glyph-name="Uacute" horiz-adv-x="760" d="M584 616Q582 635 559 642T490 659L493 688Q525 687 561 686T635 685Q660 685 676 685T706 686T742 688L745 659Q700 650 682 643T663 616Q659 524 657 432T652 247Q650 176 624 117T538 23T380
-12Q296 -12 237 8T145 81T111 236Q110 331 108 426T104 616Q104 635 86 642T22 659L25 688Q57 687 89 686T159 685Q197 685 227 686T289 688L292 659Q247 650 230 643T210 616Q210 616 208 590T203 501T201 322Q201 258 204 207T224 119T277 64T380 45Q448 45
489 66T553 126T584 219T592 339Q592 447 590 507T586 591T584 616ZM533 909L360 747L330 752L464 951Q489 951 510 939T533 909Z" />
<glyph unicode="&#xdb;" glyph-name="Ucircumflex" horiz-adv-x="760" d="M584 616Q582 635 559 642T490 659L493 688Q525 687 561 686T635 685Q660 685 676 685T706 686T742 688L745 659Q700 650 682 643T663 616Q659 524 657 432T652 247Q650 176 624 117T538
23T380 -12Q296 -12 237 8T145 81T111 236Q110 331 108 426T104 616Q104 635 86 642T22 659L25 688Q57 687 89 686T159 685Q197 685 227 686T289 688L292 659Q247 650 230 643T210 616Q210 616 208 590T203 501T201 322Q201 258 204 207T224 119T277 64T380 45Q448
45 489 66T553 126T584 219T592 339Q592 447 590 507T586 591T584 616ZM384 946H421L515 752L485 747L402 851L320 747L290 752L384 946Z" />
<glyph unicode="&#xdc;" glyph-name="Udieresis" horiz-adv-x="760" d="M584 616Q582 635 559 642T490 659L493 688Q525 687 561 686T635 685Q660 685 676 685T706 686T742 688L745 659Q700 650 682 643T663 616Q659 524 657 432T652 247Q650 176 624 117T538
23T380 -12Q296 -12 237 8T145 81T111 236Q110 331 108 426T104 616Q104 635 86 642T22 659L25 688Q57 687 89 686T159 685Q197 685 227 686T289 688L292 659Q247 650 230 643T210 616Q210 616 208 590T203 501T201 322Q201 258 204 207T224 119T277 64T380 45Q448
45 489 66T553 126T584 219T592 339Q592 447 590 507T586 591T584 616ZM492 792Q470 792 455 807T440 846Q440 868 455 883T492 898Q514 898 529 883T544 846Q544 823 529 808T492 792ZM312 792Q290 792 275 807T260 846Q260 868 275 883T312 898Q334 898 349 883T364
846Q364 823 349 808T312 792Z" />
<glyph unicode="&#xdd;" glyph-name="Yacute" horiz-adv-x="641" d="M336 331Q381 414 409 467T454 552T477 597T485 616T487 623Q487 635 461 643T395 659L398 688Q430 687 462 686T531 685Q569 685 591 686T645 688L648 659Q603 650 586 639T558 610L365 263Q366
186 367 144T371 86T373 69Q375 50 394 43T458 26L455 -3Q424 -1 392 -1T322 0Q244 0 181 -3L178 26Q223 35 244 42T267 69Q267 69 268 86T272 145T274 262L81 616Q72 633 57 641T-4 659L-1 688Q31 687 63 686T132 685Q210 685 273 688L276 659Q236 652 212 644T187
623Q187 621 187 619T189 615L336 331ZM468 909L295 747L265 752L399 951Q424 951 445 939T468 909Z" />
<glyph unicode="&#xde;" glyph-name="Thorn" horiz-adv-x="576" d="M224 69Q226 50 245 43T309 26L306 -3Q275 -1 243 -1T173 0Q95 0 32 -3L29 26Q74 35 95 42T118 69Q118 69 120 92T124 175T126 342Q126 450 124 509T120 592T118 616Q116 635 99 642T36 659L39
688Q71 687 103 686T173 685Q211 685 241 686T303 688L306 659Q261 650 244 643T224 616Q224 616 223 608T221 580H325Q403 580 453 554T527 487T551 397Q551 344 520 293T431 209T287 175Q271 175 254 176T218 180Q220 119 222 94T224 69ZM216 220Q245 217 271
217Q354 217 404 256T455 384Q455 469 412 503T287 538Q252 538 241 534T226 504Q226 504 225 492T221 449T218 363T216 220Z" />
<glyph unicode="&#xdf;" glyph-name="germandbls" horiz-adv-x="576" d="M231 16L244 87Q259 74 283 61T334 40T386 31Q415 31 434 45T453 97Q453 123 433 143T382 185T321 229T270 284T249 357Q249 399 267 425T311 469T363 505T408 546T426 608Q426 642 397
664T325 686Q286 686 253 665T200 594T180 456Q180 327 182 229T187 71T190 0Q148 0 101 0T23 -3L26 26Q37 27 52 30T80 38T94 48Q94 48 95 64T98 119T101 229T102 406Q69 405 51 405T33 405L30 416L53 455Q53 455 64 454T101 451Q101 523 127 586T209 690T347
730Q399 730 431 718T481 688T504 652T510 620Q510 578 492 553T446 509T392 474T346 432T327 369Q327 339 348 316T400 273T463 231T515 182T536 117Q536 87 521 58T471 10T378 -9Q341 -9 301 -2T231 16Z" />
<glyph unicode="&#xe0;" glyph-name="agrave" horiz-adv-x="457" d="M437 52L447 26Q409 -9 364 -9Q339 -9 319 6T294 56Q257 28 221 10T142 -9Q102 -9 71 16T39 95Q39 131 62 165T140 224T291 255V348Q291 377 270 391T218 406Q174 406 153 385T132 333Q132 321
135 306L113 296Q92 307 75 326T58 354Q58 361 70 378T108 414T169 446T252 460Q283 460 308 451T349 419T364 353Q364 343 364 317T366 257T367 189T369 128T370 92Q371 65 381 55T406 44Q412 44 420 46T437 52ZM291 94V210Q203 208 163 177T123 111Q123 81 141
66T188 51Q210 51 236 61T291 94ZM261 518L88 680Q90 697 111 709T157 722L291 523L261 518Z" />
<glyph unicode="&#xe1;" glyph-name="aacute" horiz-adv-x="457" d="M437 52L447 26Q409 -9 364 -9Q339 -9 319 6T294 56Q257 28 221 10T142 -9Q102 -9 71 16T39 95Q39 131 62 165T140 224T291 255V348Q291 377 270 391T218 406Q174 406 153 385T132 333Q132 321
135 306L113 296Q92 307 75 326T58 354Q58 361 70 378T108 414T169 446T252 460Q283 460 308 451T349 419T364 353Q364 343 364 317T366 257T367 189T369 128T370 92Q371 65 381 55T406 44Q412 44 420 46T437 52ZM291 94V210Q203 208 163 177T123 111Q123 81 141
66T188 51Q210 51 236 61T291 94ZM375 680L202 518L172 523L306 722Q331 722 352 710T375 680Z" />
<glyph unicode="&#xe2;" glyph-name="acircumflex" horiz-adv-x="457" d="M437 52L447 26Q409 -9 364 -9Q339 -9 319 6T294 56Q257 28 221 10T142 -9Q102 -9 71 16T39 95Q39 131 62 165T140 224T291 255V348Q291 377 270 391T218 406Q174 406 153 385T132 333Q132
321 135 306L113 296Q92 307 75 326T58 354Q58 361 70 378T108 414T169 446T252 460Q283 460 308 451T349 419T364 353Q364 343 364 317T366 257T367 189T369 128T370 92Q371 65 381 55T406 44Q412 44 420 46T437 52ZM291 94V210Q203 208 163 177T123 111Q123 81
141 66T188 51Q210 51 236 61T291 94ZM210 717H247L341 523L311 518L228 622L146 518L116 523L210 717Z" />
<glyph unicode="&#xe3;" glyph-name="atilde" horiz-adv-x="457" d="M437 52L447 26Q409 -9 364 -9Q339 -9 319 6T294 56Q257 28 221 10T142 -9Q102 -9 71 16T39 95Q39 131 62 165T140 224T291 255V348Q291 377 270 391T218 406Q174 406 153 385T132 333Q132 321
135 306L113 296Q92 307 75 326T58 354Q58 361 70 378T108 414T169 446T252 460Q283 460 308 451T349 419T364 353Q364 343 364 317T366 257T367 189T369 128T370 92Q371 65 381 55T406 44Q412 44 420 46T437 52ZM291 94V210Q203 208 163 177T123 111Q123 81 141
66T188 51Q210 51 236 61T291 94ZM370 664L396 656Q381 606 362 584T322 557T277 559T230 576T183 591T137 591T94 556L68 564Q83 614 102 636T142 663T187 661T234 644T281 629T327 629T370 664Z" />
<glyph unicode="&#xe4;" glyph-name="adieresis" horiz-adv-x="457" d="M437 52L447 26Q409 -9 364 -9Q339 -9 319 6T294 56Q257 28 221 10T142 -9Q102 -9 71 16T39 95Q39 131 62 165T140 224T291 255V348Q291 377 270 391T218 406Q174 406 153 385T132 333Q132
321 135 306L113 296Q92 307 75 326T58 354Q58 361 70 378T108 414T169 446T252 460Q283 460 308 451T349 419T364 353Q364 343 364 317T366 257T367 189T369 128T370 92Q371 65 381 55T406 44Q412 44 420 46T437 52ZM291 94V210Q203 208 163 177T123 111Q123 81
141 66T188 51Q210 51 236 61T291 94ZM319 563Q297 563 282 578T267 617Q267 639 282 654T319 669Q341 669 356 654T371 617Q371 594 356 579T319 563ZM139 563Q117 563 102 578T87 617Q87 639 102 654T139 669Q161 669 176 654T191 617Q191 594 176 579T139 563Z"
/>
<glyph unicode="&#xe5;" glyph-name="aring" horiz-adv-x="457" d="M437 52L447 26Q409 -9 364 -9Q339 -9 319 6T294 56Q257 28 221 10T142 -9Q102 -9 71 16T39 95Q39 131 62 165T140 224T291 255V348Q291 377 270 391T218 406Q174 406 153 385T132 333Q132 321
135 306L113 296Q92 307 75 326T58 354Q58 361 70 378T108 414T169 446T252 460Q283 460 308 451T349 419T364 353Q364 343 364 317T366 257T367 189T369 128T370 92Q371 65 381 55T406 44Q412 44 420 46T437 52ZM291 94V210Q203 208 163 177T123 111Q123 81 141
66T188 51Q210 51 236 61T291 94ZM124 619Q124 663 155 693T229 724Q273 724 303 694T333 619Q333 576 303 546T229 515Q186 515 155 545T124 619ZM226 694Q206 694 191 680T176 624Q176 594 188 570T228 545Q248 545 262 560T277 615Q277 646 266 670T226 694Z"
/>
<glyph unicode="&#xe6;" glyph-name="ae" horiz-adv-x="700" d="M284 255V351Q284 381 263 394T211 407Q167 407 146 387T125 334Q125 321 128 306L106 296Q85 307 68 326T51 354Q51 361 63 378T101 414T162 446T245 460Q283 460 313 451T354 403Q383 429 423
444T517 460Q553 460 588 442T646 386T669 285L635 244Q580 238 536 234T452 227T366 220Q366 176 378 138T423 76T516 53Q554 53 588 63T644 83L656 53Q625 27 584 9T492 -9Q432 -9 390 10T322 63Q273 22 230 7T142 -9Q102 -9 71 16T39 95Q39 131 61 165T137 224T284
255ZM579 316Q579 350 566 370T533 401T495 411Q446 411 414 372T371 262Q433 269 479 274T576 287Q579 302 579 316ZM284 213Q198 206 161 176T123 111Q123 81 141 66T188 51Q210 51 242 61T303 90Q294 119 289 148T284 213Z" />
<glyph unicode="&#xe7;" glyph-name="ccedilla" horiz-adv-x="443" d="M409 90L421 57Q387 30 344 11T244 -9Q174 -9 128 20T59 101T36 215Q36 260 50 303T93 382T164 439T264 460Q307 460 341 446T395 415T415 392Q415 379 409 358T391 319H367Q361 336 347 356T310
391T253 406Q209 406 180 379T138 309T124 222Q124 131 165 91T270 50Q302 50 340 60T409 90ZM221 11H247Q238 -3 236 -10T234 -24Q234 -36 246 -47T273 -69T300 -93T312 -125Q312 -159 273 -194T154 -259Q138 -246 138 -226Q138 -213 144 -201T161 -180Q207 -178
232 -169T258 -145Q258 -133 248 -124T225 -105T201 -83T191 -53Q191 -41 198 -25T221 11Z" />
<glyph unicode="&#xe8;" glyph-name="egrave" horiz-adv-x="459" d="M403 83L415 53Q384 28 343 10T251 -9Q177 -9 130 20T60 99T37 207Q37 255 50 300T92 381T166 438T276 460Q312 460 347 443T405 389T428 289L394 248Q390 249 381 249T357 249Q332 249 298
249T229 247T165 245T122 242V233Q122 139 161 95T264 51Q301 51 334 59T403 83ZM338 320Q338 354 325 373T292 402T254 411Q205 411 172 373T128 283L335 291Q338 306 338 320ZM285 518L112 680Q114 697 135 709T181 722L315 523L285 518Z" />
<glyph unicode="&#xe9;" glyph-name="eacute" horiz-adv-x="459" d="M403 83L415 53Q384 28 343 10T251 -9Q177 -9 130 20T60 99T37 207Q37 255 50 300T92 381T166 438T276 460Q312 460 347 443T405 389T428 289L394 248Q390 249 381 249T357 249Q332 249 298
249T229 247T165 245T122 242V233Q122 139 161 95T264 51Q301 51 334 59T403 83ZM338 320Q338 354 325 373T292 402T254 411Q205 411 172 373T128 283L335 291Q338 306 338 320ZM399 680L226 518L196 523L330 722Q355 722 376 710T399 680Z" />
<glyph unicode="&#xea;" glyph-name="ecircumflex" horiz-adv-x="459" d="M403 83L415 53Q384 28 343 10T251 -9Q177 -9 130 20T60 99T37 207Q37 255 50 300T92 381T166 438T276 460Q312 460 347 443T405 389T428 289L394 248Q390 249 381 249T357 249Q332 249
298 249T229 247T165 245T122 242V233Q122 139 161 95T264 51Q301 51 334 59T403 83ZM338 320Q338 354 325 373T292 402T254 411Q205 411 172 373T128 283L335 291Q338 306 338 320ZM234 717H271L365 523L335 518L252 622L170 518L140 523L234 717Z" />
<glyph unicode="&#xeb;" glyph-name="edieresis" horiz-adv-x="459" d="M403 83L415 53Q384 28 343 10T251 -9Q177 -9 130 20T60 99T37 207Q37 255 50 300T92 381T166 438T276 460Q312 460 347 443T405 389T428 289L394 248Q390 249 381 249T357 249Q332 249 298
249T229 247T165 245T122 242V233Q122 139 161 95T264 51Q301 51 334 59T403 83ZM338 320Q338 354 325 373T292 402T254 411Q205 411 172 373T128 283L335 291Q338 306 338 320ZM343 563Q321 563 306 578T291 617Q291 639 306 654T343 669Q365 669 380 654T395
617Q395 594 380 579T343 563ZM163 563Q141 563 126 578T111 617Q111 639 126 654T163 669Q185 669 200 654T215 617Q215 594 200 579T163 563Z" />
<glyph unicode="&#xec;" glyph-name="igrave" horiz-adv-x="275" d="M161 459L180 450Q180 437 180 410T179 351T179 286T178 229Q178 156 180 117T185 63T188 48Q189 43 202 38T232 30T259 26L256 -3Q232 -1 200 -1T141 0Q116 0 81 0T22 -3L25 26Q36 27 52 30T81
38T95 48Q95 48 97 63T101 117T103 229Q103 302 101 337T97 384T95 396L31 415L29 441Q47 441 71 443T120 450T161 459ZM170 518L-3 680Q-1 697 20 709T66 722L200 523L170 518Z" />
<glyph unicode="&#xed;" glyph-name="iacute" horiz-adv-x="275" d="M161 459L180 450Q180 437 180 410T179 351T179 286T178 229Q178 156 180 117T185 63T188 48Q189 43 202 38T232 30T259 26L256 -3Q232 -1 200 -1T141 0Q116 0 81 0T22 -3L25 26Q36 27 52 30T81
38T95 48Q95 48 97 63T101 117T103 229Q103 302 101 337T97 384T95 396L31 415L29 441Q47 441 71 443T120 450T161 459ZM284 680L111 518L81 523L215 722Q240 722 261 710T284 680Z" />
<glyph unicode="&#xee;" glyph-name="icircumflex" horiz-adv-x="275" d="M161 459L180 450Q180 437 180 410T179 351T179 286T178 229Q178 156 180 117T185 63T188 48Q189 43 202 38T232 30T259 26L256 -3Q232 -1 200 -1T141 0Q116 0 81 0T22 -3L25 26Q36 27
52 30T81 38T95 48Q95 48 97 63T101 117T103 229Q103 302 101 337T97 384T95 396L31 415L29 441Q47 441 71 443T120 450T161 459ZM119 717H156L250 523L220 518L137 622L55 518L25 523L119 717Z" />
<glyph unicode="&#xef;" glyph-name="idieresis" horiz-adv-x="275" d="M161 459L180 450Q180 437 180 410T179 351T179 286T178 229Q178 156 180 117T185 63T188 48Q189 43 202 38T232 30T259 26L256 -3Q232 -1 200 -1T141 0Q116 0 81 0T22 -3L25 26Q36 27 52
30T81 38T95 48Q95 48 97 63T101 117T103 229Q103 302 101 337T97 384T95 396L31 415L29 441Q47 441 71 443T120 450T161 459ZM228 563Q206 563 191 578T176 617Q176 639 191 654T228 669Q250 669 265 654T280 617Q280 594 265 579T228 563ZM48 563Q26 563 11 578T-4
617Q-4 639 11 654T48 669Q70 669 85 654T100 617Q100 594 85 579T48 563Z" />
<glyph unicode="&#xf0;" glyph-name="eth" horiz-adv-x="529" d="M226 600L103 510V567L188 629Q141 664 76 695L92 730Q119 719 153 701T225 656L328 731V674L265 628Q322 585 373 527T457 398T490 243Q490 195 477 150T435 69T362 12T251 -9Q139 -9 89 50T39
206Q39 254 52 299T94 380T168 437T278 459Q296 459 312 455T344 443Q328 478 301 518T226 600ZM402 206Q402 243 397 280T377 349T336 400T267 419Q222 419 195 398T153 346T133 283T127 230Q127 183 139 137T180 61T262 31Q303 31 330 49T372 96T394 153T402
206Z" />
<glyph unicode="&#xf1;" glyph-name="ntilde" horiz-adv-x="560" d="M155 459L174 450V402Q195 414 227 427T296 450T367 460Q410 460 439 440T469 365V229Q469 156 471 117T476 63T479 48Q480 43 491 38T518 30T543 26L540 -3Q516 -1 487 -1T432 0Q407 0 376
0T320 -3L323 26Q334 27 348 30T373 38T386 48Q386 48 388 63T392 117T394 229V334Q394 371 373 384T319 398Q294 398 267 392T214 377T173 362Q173 337 173 305T172 229Q172 156 174 117T179 63T182 48Q183 43 194 38T221 30T246 26L243 -3Q219 -1 190 -1T135
0Q110 0 79 0T23 -3L26 26Q37 27 51 30T76 38T89 48Q89 48 91 63T95 117T97 229Q97 302 95 337T91 384T89 396L25 415L23 441Q41 441 65 443T114 450T155 459ZM421 664L447 656Q432 606 413 584T373 557T328 559T281 576T234 591T188 591T145 556L119 564Q134 614
153 636T193 663T238 661T285 644T332 629T378 629T421 664Z" />
<glyph unicode="&#xf2;" glyph-name="ograve" horiz-adv-x="529" d="M490 243Q490 195 477 150T435 69T362 12T251 -9Q139 -9 89 50T39 206Q39 254 52 299T94 380T168 438T278 460Q353 460 399 433T468 356T490 243ZM404 206Q404 257 393 304T352 381T267 411Q223
411 195 391T152 340T131 280T125 230Q125 181 138 138T181 67T262 39Q302 39 329 56T373 101T397 156T404 206ZM306 518L133 680Q135 697 156 709T202 722L336 523L306 518Z" />
<glyph unicode="&#xf3;" glyph-name="oacute" horiz-adv-x="529" d="M490 243Q490 195 477 150T435 69T362 12T251 -9Q139 -9 89 50T39 206Q39 254 52 299T94 380T168 438T278 460Q353 460 399 433T468 356T490 243ZM404 206Q404 257 393 304T352 381T267 411Q223
411 195 391T152 340T131 280T125 230Q125 181 138 138T181 67T262 39Q302 39 329 56T373 101T397 156T404 206ZM420 680L247 518L217 523L351 722Q376 722 397 710T420 680Z" />
<glyph unicode="&#xf4;" glyph-name="ocircumflex" horiz-adv-x="529" d="M490 243Q490 195 477 150T435 69T362 12T251 -9Q139 -9 89 50T39 206Q39 254 52 299T94 380T168 438T278 460Q353 460 399 433T468 356T490 243ZM404 206Q404 257 393 304T352 381T267
411Q223 411 195 391T152 340T131 280T125 230Q125 181 138 138T181 67T262 39Q302 39 329 56T373 101T397 156T404 206ZM255 717H292L386 523L356 518L273 622L191 518L161 523L255 717Z" />
<glyph unicode="&#xf5;" glyph-name="otilde" horiz-adv-x="529" d="M490 243Q490 195 477 150T435 69T362 12T251 -9Q139 -9 89 50T39 206Q39 254 52 299T94 380T168 438T278 460Q353 460 399 433T468 356T490 243ZM404 206Q404 257 393 304T352 381T267 411Q223
411 195 391T152 340T131 280T125 230Q125 181 138 138T181 67T262 39Q302 39 329 56T373 101T397 156T404 206ZM415 664L441 656Q426 606 407 584T367 557T322 559T275 576T228 591T182 591T139 556L113 564Q128 614 147 636T187 663T232 661T279 644T326 629T372
629T415 664Z" />
<glyph unicode="&#xf6;" glyph-name="odieresis" horiz-adv-x="529" d="M490 243Q490 195 477 150T435 69T362 12T251 -9Q139 -9 89 50T39 206Q39 254 52 299T94 380T168 438T278 460Q353 460 399 433T468 356T490 243ZM404 206Q404 257 393 304T352 381T267 411Q223
411 195 391T152 340T131 280T125 230Q125 181 138 138T181 67T262 39Q302 39 329 56T373 101T397 156T404 206ZM364 563Q342 563 327 578T312 617Q312 639 327 654T364 669Q386 669 401 654T416 617Q416 594 401 579T364 563ZM184 563Q162 563 147 578T132 617Q132
639 147 654T184 669Q206 669 221 654T236 617Q236 594 221 579T184 563Z" />
<glyph unicode="&#xf7;" glyph-name="divide" horiz-adv-x="523" d="M261 398Q239 398 224 413T209 453Q209 476 224 490T261 505Q283 505 298 491T314 453Q314 428 299 413T261 398ZM24 273V334H499V273H24ZM261 101Q239 101 224 116T209 156Q209 179 224 193T261
208Q283 208 298 194T314 156Q314 131 299 116T261 101Z" />
<glyph unicode="&#xf8;" glyph-name="oslash" horiz-adv-x="529" d="M490 243Q490 195 477 150T435 69T362 12T251 -9Q139 -9 89 50T39 206Q39 254 52 299T94 380T168 438T278 460Q353 460 399 433T468 356T490 243ZM404 206Q404 257 393 304T352 381T267 411Q223
411 195 391T152 340T131 280T125 230Q125 181 138 138T181 67T262 39Q302 39 329 56T373 101T397 156T404 206ZM170 -90L309 541H358L219 -90H170Z" />
<glyph unicode="&#xf9;" glyph-name="ugrave" horiz-adv-x="550" d="M458 85Q459 67 470 58T499 47T534 43L531 14Q504 12 476 7T422 -4Q422 -4 406 8T381 56Q341 29 289 10T187 -9Q143 -9 114 13T85 95V229Q85 302 84 337T80 384T78 396L19 415L17 441Q44 441
81 446T144 459L163 450Q163 450 163 420T162 341T161 234T160 120Q160 83 180 68T241 53Q278 53 316 67T376 95Q378 115 379 143T380 229Q380 302 378 337T374 384T372 396L309 415L307 441Q325 441 349 443T398 450T439 459L458 450Q458 450 457 391T455 202Q455
139 456 112T458 85ZM307 518L134 680Q136 697 157 709T203 722L337 523L307 518Z" />
<glyph unicode="&#xfa;" glyph-name="uacute" horiz-adv-x="550" d="M458 85Q459 67 470 58T499 47T534 43L531 14Q504 12 476 7T422 -4Q422 -4 406 8T381 56Q341 29 289 10T187 -9Q143 -9 114 13T85 95V229Q85 302 84 337T80 384T78 396L19 415L17 441Q44 441
81 446T144 459L163 450Q163 450 163 420T162 341T161 234T160 120Q160 83 180 68T241 53Q278 53 316 67T376 95Q378 115 379 143T380 229Q380 302 378 337T374 384T372 396L309 415L307 441Q325 441 349 443T398 450T439 459L458 450Q458 450 457 391T455 202Q455
139 456 112T458 85ZM421 680L248 518L218 523L352 722Q377 722 398 710T421 680Z" />
<glyph unicode="&#xfb;" glyph-name="ucircumflex" horiz-adv-x="550" d="M458 85Q459 67 470 58T499 47T534 43L531 14Q504 12 476 7T422 -4Q422 -4 406 8T381 56Q341 29 289 10T187 -9Q143 -9 114 13T85 95V229Q85 302 84 337T80 384T78 396L19 415L17 441Q44
441 81 446T144 459L163 450Q163 450 163 420T162 341T161 234T160 120Q160 83 180 68T241 53Q278 53 316 67T376 95Q378 115 379 143T380 229Q380 302 378 337T374 384T372 396L309 415L307 441Q325 441 349 443T398 450T439 459L458 450Q458 450 457 391T455
202Q455 139 456 112T458 85ZM256 717H293L387 523L357 518L274 622L192 518L162 523L256 717Z" />
<glyph unicode="&#xfc;" glyph-name="udieresis" horiz-adv-x="550" d="M458 85Q459 67 470 58T499 47T534 43L531 14Q504 12 476 7T422 -4Q422 -4 406 8T381 56Q341 29 289 10T187 -9Q143 -9 114 13T85 95V229Q85 302 84 337T80 384T78 396L19 415L17 441Q44
441 81 446T144 459L163 450Q163 450 163 420T162 341T161 234T160 120Q160 83 180 68T241 53Q278 53 316 67T376 95Q378 115 379 143T380 229Q380 302 378 337T374 384T372 396L309 415L307 441Q325 441 349 443T398 450T439 459L458 450Q458 450 457 391T455
202Q455 139 456 112T458 85ZM365 563Q343 563 328 578T313 617Q313 639 328 654T365 669Q387 669 402 654T417 617Q417 594 402 579T365 563ZM185 563Q163 563 148 578T133 617Q133 639 148 654T185 669Q207 669 222 654T237 617Q237 594 222 579T185 563Z" />
<glyph unicode="&#xfd;" glyph-name="yacute" horiz-adv-x="482" d="M228 0L193 21L63 386Q59 397 47 409T2 427L-1 456Q-1 456 17 456T59 454T101 453Q120 453 143 454T182 455T199 456L202 427Q169 423 156 414T142 397Q142 393 171 309T252 64Q308 222 336
305T364 398Q364 420 309 427L306 456Q306 456 328 455T378 453Q396 453 420 454T462 455T480 456L483 427Q452 423 440 416T423 394T408 354L275 0Q239 -96 207 -150T150 -228T105 -257T75 -263Q70 -263 60 -253T39 -226T24 -193L39 -174Q58 -183 84 -183Q100
-183 122 -169T171 -116T228 0ZM401 680L228 518L198 523L332 722Q357 722 378 710T401 680Z" />
<glyph unicode="&#xfe;" glyph-name="thorn" horiz-adv-x="546" d="M164 23Q165 -71 166 -122T168 -193T170 -215Q171 -220 184 -224T213 -230T240 -234L237 -263Q213 -261 181 -261T123 -260Q98 -260 64 -260T5 -263L8 -234Q19 -233 34 -231T63 -224T77 -215Q77
-215 79 -182T83 -87T87 56T89 234Q89 363 87 460T83 613T81 668L17 687L15 713Q33 713 57 715T106 722T147 731L165 722V401Q203 430 245 445T328 460Q376 460 416 438T480 368T505 243Q505 157 476 101T398 18T288 -9Q257 -9 226 -1T164 23ZM164 366V61Q190 52
213 48T256 44Q319 44 354 72T405 145T420 237Q420 308 391 352T288 397Q253 397 217 387T164 366Z" />
<glyph unicode="&#xff;" glyph-name="ydieresis" horiz-adv-x="482" d="M228 0L193 21L63 386Q59 397 47 409T2 427L-1 456Q-1 456 17 456T59 454T101 453Q120 453 143 454T182 455T199 456L202 427Q169 423 156 414T142 397Q142 393 171 309T252 64Q308 222 336
305T364 398Q364 420 309 427L306 456Q306 456 328 455T378 453Q396 453 420 454T462 455T480 456L483 427Q452 423 440 416T423 394T408 354L275 0Q239 -96 207 -150T150 -228T105 -257T75 -263Q70 -263 60 -253T39 -226T24 -193L39 -174Q58 -183 84 -183Q100
-183 122 -169T171 -116T228 0ZM345 563Q323 563 308 578T293 617Q293 639 308 654T345 669Q367 669 382 654T397 617Q397 594 382 579T345 563ZM165 563Q143 563 128 578T113 617Q113 639 128 654T165 669Q187 669 202 654T217 617Q217 594 202 579T165 563Z"
/>
<glyph unicode="&#x2013;" glyph-name="endash" horiz-adv-x="560" d="M37 294Q98 291 158 290T280 289Q351 289 420 290T560 294L567 279L523 231Q462 233 402 234T280 235Q210 235 140 234T0 230L-7 246L37 294Z" />
<glyph unicode="&#x2014;" glyph-name="emdash" horiz-adv-x="838" d="M37 294Q128 292 218 290T399 288Q509 288 619 290T838 294L845 279L801 231Q711 233 621 233T440 233Q331 233 221 233T0 230L-7 246L37 294Z" />
<glyph unicode="&#x2018;" glyph-name="quoteleft" horiz-adv-x="215" d="M103 442Q72 442 51 467T30 528Q30 568 63 611T176 680L185 658Q140 638 109 605T77 526Q85 535 94 538T111 541Q131 541 144 527T158 492Q158 468 141 455T103 442Z" />
<glyph unicode="&#x2019;" glyph-name="quoteright" horiz-adv-x="215" d="M112 682Q144 682 164 657T185 596Q185 556 152 513T39 444L30 466Q75 486 106 519T138 598Q130 589 121 586T104 583Q85 583 71 597T57 632Q57 656 74 669T112 682Z" />
<glyph unicode="&#x201a;" glyph-name="quotesinglbase" horiz-adv-x="214" d="M112 91Q144 91 164 66T185 5Q185 -35 152 -78T39 -147L30 -125Q75 -105 106 -72T138 7Q130 -2 121 -5T104 -8Q85 -8 71 6T57 41Q57 65 74 78T112 91Z" />
<glyph unicode="&#x201c;" glyph-name="quotedblleft" horiz-adv-x="378" d="M103 442Q72 442 51 467T30 528Q30 568 63 611T176 680L185 658Q140 638 109 605T77 526Q85 535 94 538T111 541Q131 541 144 527T158 492Q158 468 141 455T103 442ZM266 442Q235 442
214 467T193 528Q193 568 226 611T339 680L348 658Q303 638 272 605T240 526Q248 535 257 538T274 541Q294 541 307 527T321 492Q321 468 304 455T266 442Z" />
<glyph unicode="&#x201d;" glyph-name="quotedblright" horiz-adv-x="378" d="M275 682Q307 682 327 657T348 596Q348 556 315 513T202 444L193 466Q238 486 269 519T301 598Q293 589 284 586T267 583Q248 583 234 597T220 632Q220 656 237 669T275 682ZM112 682Q144
682 164 657T185 596Q185 556 152 513T39 444L30 466Q75 486 106 519T138 598Q130 589 121 586T104 583Q85 583 71 597T57 632Q57 656 74 669T112 682Z" />
<glyph unicode="&#x201e;" glyph-name="quotedblbase" horiz-adv-x="378" d="M275 91Q307 91 327 66T348 5Q348 -35 315 -78T202 -147L193 -125Q238 -105 269 -72T301 7Q293 -2 284 -5T267 -8Q248 -8 234 6T220 41Q220 65 237 78T275 91ZM112 91Q144 91 164 66T185
5Q185 -35 152 -78T39 -147L30 -125Q75 -105 106 -72T138 7Q130 -2 121 -5T104 -8Q85 -8 71 6T57 41Q57 65 74 78T112 91Z" />
<glyph unicode="&#x2022;" glyph-name="bullet" horiz-adv-x="398" d="M70 356Q70 392 87 421T134 467T199 485Q235 485 264 468T310 421T328 356Q328 321 311 292T264 245T199 227Q164 227 135 244T88 291T70 356Z" />
<glyph unicode="&#x2039;" glyph-name="guilsinglleft" horiz-adv-x="371" d="M251 389L271 372L167 223L271 74L251 57L94 208Q90 216 90 223Q90 230 94 238L251 389Z" />
<glyph unicode="&#x203a;" glyph-name="guilsinglright" horiz-adv-x="371" d="M100 372L120 389L277 238Q281 230 281 223Q281 216 277 208L120 57L100 74L204 223L100 372Z" />
</font>
</defs>
</svg>
