<?xml version="1.0" standalone="no"?>
<!DOCTYPE svg PUBLIC "-//W3C//DTD SVG 1.1//EN" "http://www.w3.org/Graphics/SVG/1.1/DTD/svg11.dtd">
<svg xmlns="http://www.w3.org/2000/svg">
<defs >
<font id="Bevan" horiz-adv-x="1469" ><font-face
    font-family="Bevan"
    units-per-em="2048"
    panose-1="0 0 0 0 0 0 0 0 0 0"
    ascent="2366"
    descent="-925"
    alphabetic="0" />
<glyph unicode=" " glyph-name="space" horiz-adv-x="421" />
<glyph unicode="!" glyph-name="exclam" horiz-adv-x="818" d="M218 545L105 1192V1592H713V1192L600 547L218 545ZM409 -27Q282 -27 205 42T128 228Q128 344 205 411T409 478Q537 478 613 411T690 228Q690 111 613 42T409 -27Z" />
<glyph unicode="&quot;" glyph-name="quotedbl" horiz-adv-x="1135" d="M685 842L595 1592H1085L995 842H685ZM140 842L50 1592H540L450 842H140Z" />
<glyph unicode="#" glyph-name="numbersign" horiz-adv-x="1354" d="M95 0L167 316H30L93 615H235L317 977H181L244 1276H385L457 1592H781L709 1276H863L935 1592H1259L1187 1276H1324L1261 977H1119L1037 615H1173L1110 316H969L897 0H573L645 316H491L419 0H95ZM559
615H713L795 977H641L559 615Z" />
<glyph unicode="$" glyph-name="dollar" horiz-adv-x="1381" d="M594 -200V-5Q513 14 453 49T352 131L307 0H66V451H393Q405 376 458 321T594 242V480Q505 497 412 522T240 595T111 727T62 946Q62 1137 203 1254T593 1372H594V1552H792V1347Q861 1328 913 1294T1004
1213L1049 1352H1289V909H956Q938 979 895 1027T792 1098V875Q880 857 972 830T1143 752T1270 619T1319 405Q1319 203 1181 88T799 -27Q795 -27 792 -27V-200H594ZM497 1016Q497 981 523 959T594 921V1111Q497 1092 497 1016ZM884 330Q884 368 859 392T792 434V234Q842
245 863 269T884 330Z" />
<glyph unicode="%" glyph-name="percent" horiz-adv-x="1846" d="M423 608Q307 608 222 657T90 792T43 989Q43 1100 89 1186T221 1322T423 1372Q539 1372 624 1323T756 1187T803 989Q803 879 757 793T625 657T423 608ZM356 0L1170 1352H1490L676 0H356ZM423 820Q460
820 481 864T503 991Q503 1073 482 1116T423 1160Q386 1160 365 1117T343 991Q343 909 364 865T423 820ZM1423 -26Q1307 -26 1222 23T1090 158T1043 355Q1043 466 1089 552T1221 688T1423 738Q1539 738 1624 689T1756 553T1803 355Q1803 244 1757 158T1625 23T1423
-26ZM1423 186Q1460 186 1481 230T1503 357Q1503 439 1482 482T1423 526Q1386 526 1365 483T1343 357Q1343 275 1364 231T1423 186Z" />
<glyph unicode="&amp;" glyph-name="ampersand" horiz-adv-x="1736" d="M516 -27Q304 -27 179 81T53 375Q53 661 389 805Q328 880 298 955T268 1119Q268 1254 327 1352T496 1505T751 1559Q947 1559 1061 1459T1176 1188Q1176 964 980 840L1166 634L1290 752H1220V1072H1670V752H1605L1316
467L1449 320H1670V0H1108L982 141Q880 54 766 14T516 -27ZM802 1038L829 1008Q878 1038 899 1073T920 1158Q920 1207 891 1238T815 1269Q775 1269 749 1243T722 1177Q722 1144 738 1117T802 1038ZM531 448Q531 381 578 337T695 292Q759 292 818 324L581 588Q531
533 531 448Z" />
<glyph unicode="&apos;" glyph-name="quotesingle" horiz-adv-x="590" d="M140 842L50 1592H540L450 842H140Z" />
<glyph unicode="(" glyph-name="parenleft" horiz-adv-x="1034" d="M984 -408Q590 -392 379 -133T168 597Q168 1068 378 1327T984 1602V1292Q885 1272 825 1197T736 977T708 597Q708 363 736 218T824 -2T984 -98V-408Z" />
<glyph unicode=")" glyph-name="parenright" horiz-adv-x="1034" d="M50 -408V-98Q149 -77 209 -3T298 217T326 597Q326 831 298 976T210 1197T50 1292V1602Q445 1586 655 1327T866 597Q866 127 656 -132T50 -408Z" />
<glyph unicode="*" glyph-name="asterisk" horiz-adv-x="1058" d="M529 614Q477 614 442 654T407 755Q407 784 411 818T431 894L483 1031L392 911Q348 853 295 824T197 794Q146 794 108 831T70 919Q70 972 106 1008T199 1069T317 1107L388 1124L317 1140Q256 1154
200 1178T107 1239T70 1328Q70 1378 108 1415T197 1453Q241 1453 294 1424T392 1336L483 1216L431 1353Q415 1394 411 1428T407 1492Q407 1552 442 1592T529 1633Q581 1633 616 1593T651 1492Q651 1463 647 1429T627 1353L575 1216L666 1336Q710 1395 764 1424T861
1453Q912 1453 950 1416T988 1328Q988 1276 952 1239T860 1178T741 1140L668 1124L741 1107Q803 1094 859 1070T952 1009T988 919Q988 869 950 832T861 794Q818 794 764 823T666 911L575 1031L627 894Q643 853 647 819T651 755Q651 695 616 655T529 614Z" />
<glyph unicode="+" glyph-name="plus" horiz-adv-x="1200" d="M100 366V706H423V1036H777V706H1100V366H777V36H423V366H100Z" />
<glyph unicode="," glyph-name="comma" horiz-adv-x="622" d="M57 -438V-208Q159 -206 209 -162T266 -24Q156 -9 93 57T30 228Q30 340 102 409T291 478Q438 478 515 383T592 103Q592 -149 453 -293T57 -438Z" />
<glyph unicode="-" glyph-name="hyphen" horiz-adv-x="824" d="M100 391V691H724V391H100Z" />
<glyph unicode="." glyph-name="period" horiz-adv-x="622" d="M311 -27Q184 -27 107 42T30 228Q30 344 107 411T311 478Q439 478 515 411T592 228Q592 111 515 42T311 -27Z" />
<glyph unicode="/" glyph-name="slash" horiz-adv-x="871" d="M20 0L361 1592H851L510 0H20Z" />
<glyph unicode="0" glyph-name="zero" horiz-adv-x="1384" d="M692 -26Q501 -26 362 58T148 299T73 671Q73 888 148 1045T361 1287T692 1372Q884 1372 1023 1287T1236 1045T1311 671Q1311 455 1236 299T1023 59T692 -26ZM692 294Q857 294 857 674Q857 1054 692
1054Q527 1054 527 674Q527 294 692 294Z" />
<glyph unicode="1" glyph-name="one" horiz-adv-x="972" d="M99 0V320H289V910H79V1203L764 1372V320H919V0H99Z" />
<glyph unicode="2" glyph-name="two" horiz-adv-x="1264" d="M97 0V285Q390 399 548 553T707 876Q707 971 667 1028T547 1085Q464 1085 421 1030T377 886Q377 837 389 796T429 705L174 604Q125 653 95 734T65 905Q65 1057 140 1161T344 1318T633 1372Q798 1372
921 1320T1113 1166T1182 921Q1182 745 1056 595T675 345H1215L1220 0H97Z" />
<glyph unicode="3" glyph-name="three" horiz-adv-x="1284" d="M572 -28Q484 -28 393 -14T224 25T95 84V384L122 396Q186 348 279 316T502 284Q602 284 673 316T744 428Q744 508 674 541T508 574Q473 574 428 570T340 554L313 566V720L691 1007H94V1352H1165V1077L802
804Q996 778 1107 682T1219 419Q1219 214 1054 93T572 -28Z" />
<glyph unicode="4" glyph-name="four" horiz-adv-x="1345" d="M630 0V309H45V609L650 1352H1085V630H1322V310H1085V0H630ZM339 632L630 631V992L339 632Z" />
<glyph unicode="5" glyph-name="five" horiz-adv-x="1284" d="M571 -28Q483 -28 392 -14T223 25T94 84V374L121 386Q185 346 278 315T501 284Q602 284 672 316T743 428Q743 508 672 541T491 574Q406 574 315 557T141 506L114 518L174 1352H1144V1007H448L435 859Q527
876 621 876Q899 876 1058 758T1218 427Q1218 215 1053 94T571 -28Z" />
<glyph unicode="6" glyph-name="six" horiz-adv-x="1357" d="M734 -26Q527 -26 379 57T152 296T73 668Q73 900 166 1056T417 1292T768 1372Q917 1372 1032 1327T1213 1195T1279 986Q1279 961 1278 940T1272 896L965 907V944Q965 1024 917 1062T793 1100Q680 1100
605 1015T530 746Q530 726 531 709Q589 776 675 810T860 844Q993 844 1092 792T1246 643T1301 418Q1301 284 1227 184T1025 29T734 -26ZM719 248Q790 248 835 295T881 419Q881 496 836 542T719 588Q651 588 604 542T557 419Q557 343 603 296T719 248Z" />
<glyph unicode="7" glyph-name="seven" horiz-adv-x="1249" d="M133 0L665 1027H345L320 797L50 798V1352H1223V1067L703 0H133Z" />
<glyph unicode="8" glyph-name="eight" horiz-adv-x="1384" d="M692 -28Q395 -28 230 80T65 375Q65 486 120 563T277 687Q125 782 125 969Q125 1092 194 1182T391 1322T692 1372Q865 1372 992 1323T1189 1183T1259 969Q1259 782 1107 687Q1209 641 1264 564T1319
375Q1319 189 1154 81T692 -28ZM692 778Q760 778 802 822T844 938Q844 1010 802 1054T692 1098Q624 1098 582 1054T540 938Q540 866 582 822T692 778ZM692 246Q784 246 839 289T894 406Q894 478 839 522T692 566Q601 566 546 522T490 406Q490 333 545 290T692 246Z"
/>
<glyph unicode="9" glyph-name="nine" horiz-adv-x="1357" d="M623 1372Q831 1372 978 1289T1205 1050T1284 678Q1284 446 1191 290T940 54T589 -26Q441 -26 326 19T144 151T78 360Q78 386 79 407T85 450L392 439V402Q392 323 440 285T564 246Q677 246 752 331T827
600Q827 620 826 637Q768 570 682 536T497 502Q365 502 266 555T111 703T56 928Q56 1062 130 1162T332 1317T623 1372ZM638 1098Q568 1098 522 1051T476 927Q476 851 522 805T638 758Q706 758 753 804T800 927Q800 1004 755 1051T638 1098Z" />
<glyph unicode=":" glyph-name="colon" horiz-adv-x="622" d="M311 596Q184 596 107 665T30 851Q30 967 107 1034T311 1101Q439 1101 515 1034T592 851Q592 734 515 665T311 596ZM311 -27Q184 -27 107 42T30 228Q30 344 107 411T311 478Q439 478 515 411T592 228Q592
111 515 42T311 -27Z" />
<glyph unicode=";" glyph-name="semicolon" horiz-adv-x="622" d="M311 596Q184 596 107 665T30 851Q30 967 107 1034T311 1101Q439 1101 515 1034T592 851Q592 734 515 665T311 596ZM57 -438V-208Q159 -206 209 -162T266 -24Q156 -9 93 57T30 228Q30 340 102
409T291 478Q438 478 515 383T592 103Q592 -149 453 -293T57 -438Z" />
<glyph unicode="&lt;" glyph-name="less" horiz-adv-x="1200" d="M1100 1L100 340V732L1100 1071V721L516 536L1100 351V1Z" />
<glyph unicode="=" glyph-name="equal" horiz-adv-x="1200" d="M100 606V926H1100V606H100ZM100 146V466H1100V146H100Z" />
<glyph unicode="&gt;" glyph-name="greater" horiz-adv-x="1200" d="M100 1V351L684 536L100 721V1071L1100 732V340L100 1Z" />
<glyph unicode="?" glyph-name="question" horiz-adv-x="1268" d="M382 548V833Q569 896 647 986T726 1180Q726 1250 697 1285T617 1321Q500 1321 500 1159H30Q30 1283 98 1388T301 1557T633 1621Q823 1621 958 1562T1165 1398T1238 1159Q1238 998 1127 883T764
686V548H382ZM573 -27Q446 -27 369 42T292 228Q292 343 368 410T573 478Q702 478 778 411T854 228Q854 112 778 43T573 -27Z" />
<glyph unicode="@" glyph-name="at" horiz-adv-x="2333" d="M1194 -418Q851 -418 600 -299T211 37T73 543Q73 772 153 959T383 1280T739 1487T1200 1560Q1439 1560 1634 1500T1969 1328T2184 1061T2260 715Q2260 520 2185 379T1974 162T1654 86Q1384 86 1294 239Q1168
86 966 86Q788 86 681 201T574 510Q574 674 645 804T839 1009T1118 1084Q1189 1084 1267 1063T1409 1003L1454 1068H1795L1696 527Q1663 350 1802 350Q1856 350 1901 397T1973 526T2000 715Q2000 1011 1792 1171T1200 1332Q941 1332 752 1236T459 963T356 543Q356
320 458 157T753 -95T1214 -184Q1338 -184 1463 -162T1674 -103L1701 -115V-339Q1470 -418 1194 -418ZM1003 514Q1003 355 1118 355Q1210 355 1254 454L1313 790Q1258 815 1206 815Q1114 815 1059 733T1003 514Z" />
<glyph unicode="A" glyph-name="A" horiz-adv-x="1771" d="M14 0V345H159L458 1247H243V1592H1231L1605 345H1750V0H853V345H1018L972 520H560L508 345H673V0H14ZM634 770H906L779 1256L634 770Z" />
<glyph unicode="B" glyph-name="B" horiz-adv-x="1671" d="M64 0V345H224V1247H64V1592H927Q1247 1592 1410 1482T1574 1154Q1574 1039 1518 950T1354 814Q1469 768 1535 676T1601 454Q1601 235 1441 118T983 0H64ZM866 1257H732V951H866Q1052 951 1052 1104Q1052
1257 866 1257ZM732 335H887Q1079 335 1079 504Q1079 673 887 673H732V335Z" />
<glyph unicode="C" glyph-name="C" horiz-adv-x="1652" d="M957 -29Q686 -29 488 75T181 372T73 831Q73 1022 129 1169T285 1417T514 1569T788 1621Q940 1621 1051 1573T1234 1433L1285 1592H1560V930H1195Q1187 1122 1120 1195T943 1268Q863 1268 794 1223T682
1085T639 847Q639 633 750 520T1064 406Q1183 406 1297 446T1509 569L1536 557V135Q1420 50 1263 11T957 -29Z" />
<glyph unicode="D" glyph-name="D" horiz-adv-x="1758" d="M54 0V345H214V1247H54V1592H780Q1223 1592 1454 1389T1685 794Q1685 404 1455 202T779 0H54ZM734 335H789Q965 335 1041 441T1117 797Q1117 1045 1041 1151T789 1257H734V335Z" />
<glyph unicode="E" glyph-name="E" horiz-adv-x="1602" d="M64 0V345H224V1247H64V1592H1480V959H1150L1115 1252H732V982H1002V642H732V340H1115L1150 677H1480V0H64Z" />
<glyph unicode="F" glyph-name="F" horiz-adv-x="1495" d="M64 0V345H224V1247H64V1592H1460V930H1130L1095 1252H732V982H992V642H732V345H1022V0H64Z" />
<glyph unicode="G" glyph-name="G" horiz-adv-x="1754" d="M1017 -29Q726 -29 515 76T188 374T73 831Q73 1068 165 1245T424 1522T813 1621Q980 1621 1095 1574T1284 1435L1335 1592H1610V1013H1240Q1221 1147 1158 1207T978 1268Q885 1268 808 1222T685 1079T639
832Q639 609 745 491T1049 373Q1131 373 1194 394V556H1004V856H1644V112Q1568 71 1464 39T1245 -11T1017 -29Z" />
<glyph unicode="H" glyph-name="H" horiz-adv-x="1884" d="M64 0V345H224V1247H64V1592H867V1247H732V967H1152V1247H1017V1592H1820V1247H1660V345H1820V0H1017V345H1152V639H732V345H867V0H64Z" />
<glyph unicode="I" glyph-name="I" horiz-adv-x="968" d="M54 0V345H224V1247H54V1592H914V1247H744V345H914V0H54Z" />
<glyph unicode="J" glyph-name="J" horiz-adv-x="1323" d="M684 -30Q573 -30 479 12T335 133L295 0H20V662H310V585Q310 434 353 379T454 324Q515 324 552 376T590 565V1247H280V1592H1270V1247H1110V475Q1110 242 1001 106T684 -30Z" />
<glyph unicode="K" glyph-name="K" horiz-adv-x="1752" d="M64 0V345H224V1247H64V1592H853V1247H732V873L1124 1247H1003V1592H1661V1247H1526L1130 882H1168Q1350 882 1439 794T1532 534L1534 451Q1536 398 1557 372T1631 345H1737V0H1389Q1198 0 1107 88T1013
348L1011 481Q1008 641 863 641H732V345H867V0H64Z" />
<glyph unicode="L" glyph-name="L" horiz-adv-x="1485" d="M64 0V345H224V1247H64V1592H964V1247H744V340H1070L1110 713H1440V0H64Z" />
<glyph unicode="M" glyph-name="M" horiz-adv-x="2357" d="M64 0V345H224V1247H64V1592H875L1212 722L1560 1592H2293V1247H2133V345H2293V0H1490V345H1630V1007L1232 0H948L550 1007V345H690V0H64Z" />
<glyph unicode="N" glyph-name="N" horiz-adv-x="1878" d="M1097 -1L550 910V345H710V0H64V345H224V1247H64V1592H779L1328 681V1247H1168V1592H1814V1247H1654V0L1097 -1Z" />
<glyph unicode="O" glyph-name="O" horiz-adv-x="1746" d="M873 -29Q626 -29 447 70T170 355T73 794Q73 1050 170 1235T446 1521T873 1621Q1121 1621 1300 1521T1576 1236T1673 794Q1673 540 1576 355T1300 71T873 -29ZM873 316Q985 316 1045 438T1105 797Q1105
1034 1045 1156T873 1278Q761 1278 701 1156T641 797Q641 560 701 438T873 316Z" />
<glyph unicode="P" glyph-name="P" horiz-adv-x="1625" d="M64 0V345H224V1247H64V1592H923Q1249 1592 1415 1466T1581 1087Q1581 843 1416 718T933 592H732V345H1022V0H64ZM865 1257H732V897H855Q957 897 1008 940T1059 1077Q1059 1172 1010 1214T865 1257Z" />
<glyph unicode="Q" glyph-name="Q" horiz-adv-x="1786" d="M863 -29Q621 -29 444 70T170 355T73 794Q73 1050 170 1235T446 1521T873 1621Q1121 1621 1300 1521T1576 1236T1673 794Q1673 666 1643 553T1556 345H1736V0H1508Q1344 0 1233 51Q1064 -29 863 -29ZM638
797Q638 744 642 695Q682 767 757 809T930 852Q1037 852 1110 799Q1110 1035 1048 1156T873 1278Q760 1278 699 1156T638 797ZM700 466Q700 396 750 354T876 311Q953 311 1003 356L974 473Q955 553 924 587T839 622Q778 622 739 580T700 466Z" />
<glyph unicode="R" glyph-name="R" horiz-adv-x="1752" d="M64 0V345H224V1247H64V1592H983Q1281 1592 1441 1481T1601 1154Q1601 1015 1532 923T1345 792Q1439 761 1484 695T1532 534L1534 451Q1536 398 1557 372T1631 345H1737V0H1389Q1198 0 1107 88T1013 348L1011
481Q1008 641 863 641H732V345H867V0H64ZM887 1257H732V919H887Q1079 919 1079 1088Q1079 1257 887 1257Z" />
<glyph unicode="S" glyph-name="S" horiz-adv-x="1561" d="M905 -29Q715 -29 591 21T393 157L342 0H67V536H440Q459 420 556 346T801 271Q882 271 926 303T970 393Q970 455 921 487T791 537T613 572T419 619T241 707T111 864T62 1120Q62 1271 134 1384T343 1560T669
1623Q839 1623 953 1574T1139 1435L1190 1592H1465V1076H1084Q1055 1195 969 1259T768 1323Q687 1323 639 1293T591 1203Q591 1148 640 1119T770 1072T948 1035T1142 983T1320 891T1450 732T1499 481Q1499 243 1341 107T905 -29Z" />
<glyph unicode="T" glyph-name="T" horiz-adv-x="1710" d="M305 0V345H595V1267H416L376 930H46V1592H1664V930H1334L1294 1267H1115V345H1405V0H305Z" />
<glyph unicode="U" glyph-name="U" horiz-adv-x="1780" d="M916 -29Q579 -29 394 141T208 685V1247H48V1592H893V1247H728V684Q728 368 990 368Q1115 368 1176 450T1238 684V1247H1073V1592H1732V1247H1572V645Q1572 -29 916 -29Z" />
<glyph unicode="V" glyph-name="V" horiz-adv-x="1772" d="M553 0L159 1247H14V1592H913V1247H748L1003 354L1258 1247H1093V1592H1758V1247H1613L1220 0H553Z" />
<glyph unicode="W" glyph-name="W" horiz-adv-x="2692" d="M542 0L164 1247H19V1592H913V1247H748L950 491L1268 1592H1661L1967 480L2177 1247H2011V1592H2673V1247H2528L2150 0H1576L1353 749L1126 0H542Z" />
<glyph unicode="X" glyph-name="X" horiz-adv-x="1853" d="M14 0V345H159L556 860L201 1248H56V1593H969V1248H866L1061 1036L1217 1248H1114V1593H1757V1248H1612L1271 806L1694 345H1839V0H864V345H1029L765 633L555 345H720V0H14Z" />
<glyph unicode="Y" glyph-name="Y" horiz-adv-x="1728" d="M320 0V345H610V705L146 1248H1V1593H905V1248H795L991 1011L1159 1248H1049V1593H1683V1248H1538L1118 684V345H1408V0H320Z" />
<glyph unicode="Z" glyph-name="Z" horiz-adv-x="1570" d="M75 0V320L815 1267H455L415 930H85V1592H1485V1272L745 325H1125L1165 662H1495V0H75Z" />
<glyph unicode="[" glyph-name="bracketleft" horiz-adv-x="951" d="M224 -398V1592H901V1292H704V-98H866V-398H224Z" />
<glyph unicode="\" glyph-name="backslash" horiz-adv-x="871" d="M361 0L20 1592H510L851 0H361Z" />
<glyph unicode="]" glyph-name="bracketright" horiz-adv-x="951" d="M85 -398V-98H247V1292H50V1592H727V-398H85Z" />
<glyph unicode="^" glyph-name="asciicircum" horiz-adv-x="1200" d="M65 352L404 1352H796L1135 352H785L600 936L415 352H65Z" />
<glyph unicode="_" glyph-name="underscore" horiz-adv-x="1273" d="M40 -266V-1H1233V-266H40Z" />
<glyph unicode="`" glyph-name="grave" horiz-adv-x="0" d="M225 1160L-329 1473L-145 1738L329 1301L225 1160Z" />
<glyph unicode="a" glyph-name="a" horiz-adv-x="1399" d="M421 -18Q318 -18 238 23T112 138T66 306Q66 454 180 542T484 630Q550 630 610 622T732 595V617Q732 708 677 749T499 790Q411 790 321 767T157 703L130 715V1007Q235 1048 368 1069T637 1090Q936 1090
1074 990T1212 669V300H1342V0H796L747 157Q700 75 614 29T421 -18ZM630 238Q657 238 686 247T732 273V440Q707 451 682 455T634 459Q583 459 549 429T514 349Q514 298 546 268T630 238Z" />
<glyph unicode="b" glyph-name="b" horiz-adv-x="1478" d="M913 -19Q831 -19 748 7T590 86L550 -1L172 0V1222H42V1495L652 1560V965Q806 1090 978 1090Q1111 1090 1210 1022T1365 830T1420 538Q1420 367 1359 242T1185 49T913 -19ZM788 280Q866 280 906 348T947
537Q947 657 908 724T798 791Q761 791 720 778T652 745V319Q711 280 788 280Z" />
<glyph unicode="c" glyph-name="c" horiz-adv-x="1197" d="M664 -18Q380 -18 217 131T53 546Q53 712 122 834T308 1023T565 1090Q667 1090 744 1055T875 957L915 1072H1136V628H848Q840 714 801 756T703 799Q636 799 584 742T531 550Q531 411 604 352T789 292Q873
292 951 325T1087 406L1114 394V97Q1067 64 993 38T833 -3T664 -18Z" />
<glyph unicode="d" glyph-name="d" horiz-adv-x="1493" d="M525 -18Q380 -18 275 51T114 245T58 538Q58 706 113 830T267 1022T500 1090Q672 1090 826 965V1222H651V1495L1306 1560V300H1446V0H836V112Q774 53 692 18T525 -18ZM680 281Q718 281 758 293T826 324V745Q799
765 759 778T680 791Q610 791 571 724T531 537Q531 417 570 349T680 281Z" />
<glyph unicode="e" glyph-name="e" horiz-adv-x="1236" d="M687 -18Q390 -18 222 131T53 546Q53 713 126 835T332 1023T639 1090Q810 1090 932 1028T1118 854T1183 596Q1183 562 1180 531T1173 473H530Q547 371 622 327T807 282Q899 282 982 314T1124 396L1151
384V97Q1103 64 1027 38T863 -3T687 -18ZM665 844Q598 844 564 792T526 647H804Q800 740 767 792T665 844Z" />
<glyph unicode="f" glyph-name="f" horiz-adv-x="962" d="M65 0V300H220V772H55V1045L220 1061V1135Q220 1337 350 1447T725 1558Q794 1558 852 1551T967 1530V1244L940 1232Q918 1239 893 1245T829 1252Q762 1252 731 1219T700 1125V1072H942V772H700V300H942V0H65Z" />
<glyph unicode="g" glyph-name="g" horiz-adv-x="1367" d="M934 275Q1129 275 1228 196T1328 -29Q1328 -156 1242 -243T1000 -374T638 -418Q433 -418 305 -382T117 -285T57 -153Q57 -99 97 -55T201 9Q129 67 129 161Q129 244 188 300T358 384Q224 423 136 506T47
717Q47 885 202 987T655 1090Q812 1090 936 1050L1352 1091V781H1226Q1233 750 1233 717Q1233 549 1073 448T617 346Q545 346 545 311Q545 275 617 275H934ZM655 878Q594 879 552 837T510 719Q510 643 551 600T655 558Q717 559 758 601T800 719Q800 793 759 835T655
878ZM361 -97Q361 -157 423 -191T608 -226Q742 -226 801 -195T860 -116Q860 -66 788 -66H481Q420 -66 368 -58Q361 -77 361 -97Z" />
<glyph unicode="h" glyph-name="h" horiz-adv-x="1549" d="M42 0V300H187V1228H42V1501L667 1560V960Q798 1090 1012 1090Q1193 1090 1277 988T1362 679V300H1502V0H882V679Q882 737 857 763T791 790Q757 790 724 770T667 715V300H757V0H42Z" />
<glyph unicode="i" glyph-name="i" horiz-adv-x="887" d="M65 0V300H220V759H65V1032L700 1091V300H855V0H65ZM460 1158Q329 1158 251 1221T172 1388Q172 1492 250 1552T461 1613Q597 1613 672 1554T748 1388Q748 1282 671 1220T460 1158Z" />
<glyph unicode="j" glyph-name="j" horiz-adv-x="797" d="M27 -408V-108Q119 -108 153 -77T187 40V759H32V1032L667 1091V101Q667 -84 604 -196T401 -358T27 -408ZM683 1158Q552 1158 474 1221T395 1388Q395 1492 473 1552T684 1613Q820 1613 895 1554T971 1388Q971
1282 894 1220T683 1158Z" />
<glyph unicode="k" glyph-name="k" horiz-adv-x="1481" d="M42 0V300H187V1222H42V1495L667 1560V566L912 772H758V1072H1434V772H1244L1070 626L1305 300H1455V0H947L667 397V0H42Z" />
<glyph unicode="l" glyph-name="l" horiz-adv-x="854" d="M32 0V300H187V1222H32V1495L667 1560V300H822V0H32Z" />
<glyph unicode="m" glyph-name="m" horiz-adv-x="2257" d="M75 0V300H220V759H75V1032L690 1091V960Q752 1023 844 1057T1040 1091Q1250 1091 1332 945Q1409 1015 1507 1053T1705 1091Q1897 1091 1983 990T2070 684V300H2210V0H1590V684Q1590 740 1566 765T1504
791Q1474 791 1441 773T1385 721V300H1475V0H905V684Q905 740 881 765T819 791Q789 791 756 773T700 721V300H790V0H75Z" />
<glyph unicode="n" glyph-name="n" horiz-adv-x="1582" d="M75 0V300H220V759H75V1032L690 1091V955Q752 1020 845 1055T1045 1091Q1226 1091 1310 989T1395 680V300H1535V0H915V680Q915 738 890 764T824 791Q790 791 757 771T700 716V300H790V0H75Z" />
<glyph unicode="o" glyph-name="o" horiz-adv-x="1322" d="M661 -18Q473 -18 337 49T127 240T53 535Q53 707 126 831T336 1022T661 1090Q849 1090 985 1023T1195 831T1269 535Q1269 364 1196 240T986 49T661 -18ZM661 273Q796 273 796 536Q796 799 661 799Q526
799 526 536Q526 273 661 273Z" />
<glyph unicode="p" glyph-name="p" horiz-adv-x="1493" d="M42 -398V-98H187V759H42V1032L657 1091V961Q719 1020 801 1055T968 1091Q1114 1091 1218 1022T1379 828T1435 535Q1435 368 1380 244T1226 51T993 -17Q821 -17 667 108V-98H812V-398H42ZM813 282Q884
282 923 349T962 536Q962 656 923 724T813 792Q776 792 735 781T667 749V328Q694 309 735 296T813 282Z" />
<glyph unicode="q" glyph-name="q" horiz-adv-x="1451" d="M681 -398V-98H826V107Q672 -18 500 -18Q367 -18 268 50T113 242T58 534Q58 705 119 829T294 1022T565 1090Q647 1090 730 1064T888 985L928 1072H1306V-98H1451V-398H681ZM680 281Q718 281 758 294T826
327V752Q768 791 690 791Q612 791 572 723T531 535Q531 415 570 348T680 281Z" />
<glyph unicode="r" glyph-name="r" horiz-adv-x="1092" d="M75 0V300H220V759H75V1032L690 1091V886Q749 995 853 1045T1052 1095V665Q962 696 887 696Q837 696 782 679T700 631V300H930V0H75Z" />
<glyph unicode="s" glyph-name="s" horiz-adv-x="1173" d="M686 -18Q584 -18 488 6T318 75L287 0H67V376H323Q346 298 403 253T527 208Q615 208 615 274Q615 322 576 348T474 392T341 431T209 488T107 588T67 755Q67 848 116 924T266 1045T519 1091Q617 1091 700
1071T857 1005L881 1072H1101V728H845Q819 804 771 839T666 875Q568 875 568 815Q568 773 608 749T712 706T847 665T981 603T1085 499T1126 330Q1126 171 1012 77T686 -18Z" />
<glyph unicode="t" glyph-name="t" horiz-adv-x="947" d="M672 -18Q435 -18 306 90T177 405V772H12V1045L177 1061V1301L657 1406V1072H899V772H657V415Q657 355 686 322T776 288Q811 288 835 294T882 308L909 296V10Q852 -3 795 -10T672 -18Z" />
<glyph unicode="u" glyph-name="u" horiz-adv-x="1541" d="M552 -19Q182 -19 182 397V759H42V1032L662 1091V396Q662 335 689 308T758 281Q833 281 874 358V759H784V1032L1354 1091V300H1494V0H884V117Q824 53 742 17T552 -19Z" />
<glyph unicode="v" glyph-name="v" horiz-adv-x="1413" d="M433 0L124 772H29V1072H752V772H632L806 282L997 772H877V1072H1384V772H1289L980 0H433Z" />
<glyph unicode="w" glyph-name="w" horiz-adv-x="2116" d="M406 0L137 772H42V1072H765V772H645L765 358L997 1072H1315L1537 309L1687 772H1567V1072H2074V772H1979L1710 0H1195L1058 405L921 0H406Z" />
<glyph unicode="x" glyph-name="x" horiz-adv-x="1276" d="M45 0V300H190L337 551L196 772H66V1072H598L771 804L900 1072H1210V772H1075L940 542L1096 300H1231V0H689L511 279L376 0H45Z" />
<glyph unicode="y" glyph-name="y" horiz-adv-x="1413" d="M297 -398V-98H544L580 -27L104 772H9V1072H732V772H612L804 424L977 772H857V1072H1364V772H1269L836 -98H981V-398H297Z" />
<glyph unicode="z" glyph-name="z" horiz-adv-x="1245" d="M85 0V260L565 837H325L305 672H85V1072H1160V812L690 235H940L960 440H1180V0H85Z" />
<glyph unicode="{" glyph-name="braceleft" horiz-adv-x="1041" d="M849 -398Q601 -398 460 -280T319 38V284Q319 373 281 410T150 447H110V747H150Q242 747 280 784T319 910V1156Q319 1356 460 1474T849 1592H991V1292H961Q799 1292 799 1146V880Q799 774 736
695T551 598Q673 580 736 501T799 314V48Q799 -98 961 -98H991V-398H849Z" />
<glyph unicode="|" glyph-name="bar" horiz-adv-x="908" d="M214 -398V1592H694V-398H214Z" />
<glyph unicode="}" glyph-name="braceright" horiz-adv-x="1041" d="M50 -398V-98H80Q242 -98 242 48V314Q242 421 305 500T490 598Q369 615 306 694T242 880V1146Q242 1292 80 1292H50V1592H192Q440 1592 581 1474T722 1156V910Q722 821 760 784T891 747H931V447H891Q799
447 761 410T722 284V38Q722 -161 581 -279T192 -398H50Z" />
<glyph unicode="~" glyph-name="asciitilde" horiz-adv-x="1200" d="M822 327Q749 327 667 350T513 397T393 421Q295 421 214 347L90 594Q113 627 158 661T262 718T378 741Q452 741 533 718T687 671T807 647Q905 647 986 721L1110 474Q1087 441 1042 407T939 350T822
327Z" />
<glyph unicode="&#xa0;" glyph-name="uni00A0" horiz-adv-x="421" />
<glyph unicode="&#xa1;" glyph-name="exclamdown" horiz-adv-x="818" d="M409 716Q282 716 205 783T128 966Q128 1083 205 1152T409 1221Q536 1221 613 1152T690 966Q690 851 614 784T409 716ZM105 -398V2L218 647L600 645L713 2V-398H105Z" />
<glyph unicode="&#xa2;" glyph-name="cent" horiz-adv-x="1197" d="M586 -200V-15Q337 6 195 153T53 546Q53 712 122 834T308 1023T565 1090Q576 1090 586 1090V1272H784V1033Q835 1003 875 957L915 1072H1136V628H868Q848 740 784 778V292Q878 295 955 327T1087
406L1114 394V97Q1060 59 971 31T784 -10V-200H586ZM481 550Q481 470 509 417T586 334V773Q538 747 510 693T481 550Z" />
<glyph unicode="&#xa3;" glyph-name="sterling" horiz-adv-x="1460" d="M79 0V300H224V574H114V757H224V841Q224 1006 307 1125T544 1308T913 1372Q1049 1372 1154 1354T1353 1297V976L1336 969Q1251 1004 1172 1019T994 1034Q704 1034 704 814V757H968V574H704V295H1067L1100
560H1412V0H79Z" />
<glyph unicode="&#xa4;" glyph-name="currency" horiz-adv-x="1248" d="M624 -16Q431 -16 282 82L201 1L98 104L172 178Q50 324 50 541V542Q50 753 165 895L98 963L201 1066L272 994Q425 1099 624 1099Q828 1099 982 989L1059 1066L1162 963L1088 889Q1198 746
1198 541Q1198 328 1081 185L1162 104L1059 1L973 87Q822 -16 624 -16ZM623 145Q693 145 762 171Q831 197 884 244Q938 292 971 370Q1004 448 1004 543Q1004 638 971 714L968 712Q937 789 882 838Q829 885 761 911Q692 937 622 937Q549 937 483 912Q415 886 362
839Q308 791 275 713Q242 635 242 541Q242 447 275 369Q308 291 362 243Q415 196 484 170Q550 145 623 145Z" />
<glyph unicode="&#xa5;" glyph-name="yen" horiz-adv-x="1692" d="M302 0V300H592V420H211V603H592V610L484 723H211V906H309L170 1052H25V1352H911V1052H819L979 863L1143 1052H1051V1352H1667V1052H1522L1392 906H1481V723H1228L1121 603H1481V420H1100V300H1390V0H302Z"
/>
<glyph unicode="&#xa6;" glyph-name="brokenbar" horiz-adv-x="908" d="M214 797V1592H694V797H214ZM214 -398V397H694V-398H214Z" />
<glyph unicode="&#xa7;" glyph-name="section" horiz-adv-x="1193" d="M686 -18Q584 -18 488 6T318 75L287 0H67V376H323Q346 298 403 253T527 208Q635 208 635 278Q635 325 594 352T489 397T351 437T214 492T108 584T67 735Q67 821 116 892T263 1005Q190 1043
141 1106T92 1276Q92 1369 143 1445T293 1566T534 1612Q625 1612 707 1592T862 1526L886 1593H1106V1241H850Q824 1317 776 1352T671 1388Q573 1388 573 1322Q573 1283 611 1259T709 1217T837 1176T964 1119T1063 1027T1101 881Q1101 797 1055 726T925 611Q1005
570 1060 502T1116 320Q1116 169 1007 76T686 -18ZM458 825Q458 780 508 755T632 708V709Q720 724 720 795Q720 843 673 868T555 913Q503 904 481 878T458 825Z" />
<glyph unicode="&#xa8;" glyph-name="dieresis" horiz-adv-x="0" d="M-267 1202Q-355 1202 -410 1260T-465 1405Q-465 1491 -409 1546T-268 1602Q-181 1602 -126 1546T-71 1403Q-71 1318 -126 1260T-267 1202ZM269 1201Q181 1201 126 1259T71 1404Q71 1490 127
1545T268 1601Q355 1601 410 1545T465 1402Q465 1317 410 1259T269 1201Z" />
<glyph unicode="&#xa9;" glyph-name="copyright" horiz-adv-x="1766" d="M883 -15Q704 -15 556 46T299 218T132 476T73 795Q73 966 132 1113T299 1371T555 1543T883 1605Q1062 1605 1210 1544T1467 1372T1634 1114T1693 795Q1693 624 1634 477T1467 219T1211 47T883
-15ZM883 150Q1068 150 1207 234T1425 464T1503 795Q1503 980 1425 1126T1208 1356T883 1440Q698 1440 559 1356T341 1126T263 795Q263 610 341 464T558 234T883 150ZM917 371Q770 371 660 424T489 577T427 814Q427 945 483 1036T629 1174T825 1221Q987 1221 1067
1124L1095 1206H1254V865H1045Q1041 964 1003 1001T909 1039Q846 1039 795 987T744 822Q744 721 804 664T975 607Q1121 607 1226 691L1240 685V455Q1177 412 1091 392T917 371Z" />
<glyph unicode="&#xaa;" glyph-name="ordfeminine" horiz-adv-x="1080" d="M332 807Q214 807 139 873T63 1045Q63 1154 149 1219T380 1284Q430 1284 475 1278T568 1258V1274Q568 1334 526 1363T391 1392Q325 1392 257 1375T139 1325L112 1337V1562Q192 1592 292
1607T496 1623Q730 1623 836 1550T942 1313V1060H1040V820H617L579 935Q544 874 478 841T332 807ZM500 1005Q518 1005 538 1011T568 1028V1136Q551 1143 534 1145T503 1148Q469 1148 446 1130T423 1077Q423 1044 444 1025T500 1005Z" />
<glyph unicode="&#xab;" glyph-name="guillemotleft" horiz-adv-x="1301" d="M1042 32L655 406V676L1042 1050L1266 826L981 541L1266 256L1042 32ZM482 32L95 406V676L482 1050L706 826L421 541L706 256L482 32Z" />
<glyph unicode="&#xac;" glyph-name="logicalnot" horiz-adv-x="1200" d="M747 246V606H100V926H1100V246H747Z" />
<glyph unicode="&#xad;" glyph-name="uni00AD" horiz-adv-x="824" d="M100 391V691H724V391H100Z" />
<glyph unicode="&#xae;" glyph-name="registered" horiz-adv-x="1766" d="M883 -15Q704 -15 556 46T299 218T132 476T73 795Q73 966 132 1113T299 1371T555 1543T883 1605Q1062 1605 1210 1544T1467 1372T1634 1114T1693 795Q1693 624 1634 477T1467 219T1211
47T883 -15ZM883 150Q1068 150 1207 234T1425 464T1503 795Q1503 980 1425 1126T1208 1356T883 1440Q698 1440 559 1356T341 1126T263 795Q263 610 341 464T558 234T883 150ZM450 396V579H532V1013H450V1196H963Q1116 1196 1198 1140T1281 976Q1281 903 1246 856T1150
789Q1246 759 1246 664V633Q1246 579 1296 579H1331V396H1147Q1053 396 1006 445T958 581V628Q958 708 881 708H814V579H883V396H450ZM894 1018H814V858H894Q992 858 992 938Q992 1018 894 1018Z" />
<glyph unicode="&#xaf;" glyph-name="overscore" horiz-adv-x="0" d="M-443 1213V1512H444V1213H-443Z" />
<glyph unicode="&#xb0;" glyph-name="degree" horiz-adv-x="910" d="M455 821Q335 821 242 873T94 1015T40 1221Q40 1337 94 1427T241 1569T455 1621Q575 1621 669 1569T816 1427T870 1221Q870 1106 817 1016T669 873T455 821ZM455 1015Q544 1015 599 1072T654
1221Q654 1313 599 1370T455 1427Q367 1427 312 1370T256 1221Q256 1129 311 1072T455 1015Z" />
<glyph unicode="&#xb1;" glyph-name="plusminus" horiz-adv-x="1200" d="M423 410V606H100V926H423V1122H777V926H1100V606H777V410H423ZM100 0V320H1100V0H100Z" />
<glyph unicode="&#xb2;" glyph-name="uni00B2" horiz-adv-x="786" d="M51 788V971Q230 1033 334 1125T438 1321Q438 1371 414 1403T341 1436Q290 1436 264 1405T237 1327Q237 1297 245 1272T269 1217L98 1155Q32 1221 32 1339Q32 1478 134 1550T393 1623Q554 1623
648 1552T742 1348Q742 1248 673 1161T462 1013H764V788H51Z" />
<glyph unicode="&#xb3;" glyph-name="uni00B3" horiz-adv-x="786" d="M353 757Q262 757 179 775T50 825V1011L66 1019Q105 990 162 971T306 951Q370 951 413 970T457 1033Q457 1077 414 1096T310 1116Q285 1116 257 1114T203 1104L187 1111V1206L396 1367H49V1592H712V1426L497
1260Q622 1245 691 1187T761 1027Q761 903 659 830T353 757Z" />
<glyph unicode="&#xb4;" glyph-name="acute" horiz-adv-x="0" d="M-225 1160L-329 1301L145 1738L329 1473L-225 1160Z" />
<glyph unicode="&#xb5;" glyph-name="uni00B5" horiz-adv-x="1546" d="M182 -398V759H42V1032L662 1091V466Q662 389 694 355T768 321Q809 321 841 355T874 466V759H784V1032L1354 1091V300H1499V0H894V138Q879 59 845 20T773 -19Q692 -19 662 138V-398H182Z" />
<glyph unicode="&#xb6;" glyph-name="paragraph" horiz-adv-x="1741" d="M402 0V345H692V592Q374 592 209 717T44 1087Q44 1339 210 1465T702 1592H1677V1247H1517V345H1677V0H1167V1248H1042V0H402Z" />
<glyph unicode="&#xb7;" glyph-name="middot" horiz-adv-x="675" d="M333 293Q209 293 132 362T55 544Q55 655 131 722T333 789Q461 789 540 722T620 544Q620 433 540 363T333 293Z" />
<glyph unicode="&#xb8;" glyph-name="cedilla" horiz-adv-x="0" d="M-49 -468Q-132 -468 -203 -454V-263Q-152 -269 -100 -269Q-33 -269 -3 -253T27 -209Q27 -149 -93 -149V40H86V-66Q177 -90 216 -139T256 -255Q256 -312 230 -360T137 -438T-49 -468Z" />
<glyph unicode="&#xb9;" glyph-name="uni00B9" horiz-adv-x="593" d="M52 788V998H168V1327H40V1520L472 1623V998H566V788H52Z" />
<glyph unicode="&#xba;" glyph-name="ordmasculine" horiz-adv-x="988" d="M494 806Q282 806 160 915T37 1214Q37 1404 159 1513T493 1623Q705 1623 828 1514T951 1214Q951 1024 829 915T494 806ZM494 1017Q597 1017 597 1214Q597 1412 493 1412Q390 1412 390
1214Q390 1017 494 1017Z" />
<glyph unicode="&#xbb;" glyph-name="guillemotright" horiz-adv-x="1301" d="M819 32L595 256L880 541L595 826L819 1050L1206 676V406L819 32ZM259 32L35 256L320 541L35 826L259 1050L646 676V406L259 32Z" />
<glyph unicode="&#xbc;" glyph-name="onequarter" horiz-adv-x="1719" d="M233 0L1073 1592H1393L553 0H233ZM52 788V998H168V1327H40V1520L472 1623V998H566V788H52ZM1281 -15V155H920V347L1293 789H1566V360H1707V155H1566V-15H1281ZM1108 361H1281V567L1108 361Z" />
<glyph unicode="&#xbd;" glyph-name="onehalf" horiz-adv-x="1754" d="M233 0L1073 1592H1393L553 0H233ZM52 788V998H168V1327H40V1520L472 1623V998H566V788H52ZM1019 4V187Q1198 249 1302 341T1406 537Q1406 587 1382 619T1309 652Q1258 652 1232 621T1205
543Q1205 513 1213 488T1237 433L1066 371Q1000 437 1000 555Q1000 694 1102 766T1361 839Q1522 839 1616 768T1710 564Q1710 464 1641 377T1430 229H1732V4H1019Z" />
<glyph unicode="&#xbe;" glyph-name="threequarters" horiz-adv-x="1874" d="M388 0L1228 1592H1548L708 0H388ZM353 757Q262 757 179 775T50 825V1011L66 1019Q105 990 162 971T306 951Q370 951 413 970T457 1033Q457 1077 414 1096T310 1116Q285 1116 257 1114T203
1104L187 1111V1206L396 1367H49V1592H712V1426L497 1260Q622 1245 691 1187T761 1027Q761 903 659 830T353 757ZM1436 -15V155H1075V347L1448 789H1721V360H1862V155H1721V-15H1436ZM1263 361H1436V567L1263 361Z" />
<glyph unicode="&#xbf;" glyph-name="questiondown" horiz-adv-x="1268" d="M695 716Q566 716 490 783T414 966Q414 1082 491 1151T695 1221Q823 1221 899 1152T976 966Q976 851 900 784T695 716ZM635 -427Q446 -427 311 -368T103 -204T30 35Q30 196 142 311T504
508V646H886V361Q699 298 621 208T542 14Q542 -56 572 -91T651 -127Q768 -127 768 35H1238Q1238 -89 1170 -194T967 -363T635 -427Z" />
<glyph unicode="&#xc0;" glyph-name="Agrave" horiz-adv-x="1771" d="M14 0V345H159L458 1247H243V1592H1231L1605 345H1750V0H853V345H1018L972 520H560L508 345H673V0H14ZM634 770H906L779 1256L634 770ZM1002 1680L448 1873L582 2148L1106 1821L1002 1680Z" />
<glyph unicode="&#xc1;" glyph-name="Aacute" horiz-adv-x="1771" d="M14 0V345H159L458 1247H243V1592H1231L1605 345H1750V0H853V345H1018L972 520H560L508 345H673V0H14ZM634 770H906L779 1256L634 770ZM552 1680L462 1830L972 2148L1106 1873L552 1680Z" />
<glyph unicode="&#xc2;" glyph-name="Acircumflex" horiz-adv-x="1771" d="M14 0V345H159L458 1247H243V1592H1231L1605 345H1750V0H853V345H1018L972 520H560L508 345H673V0H14ZM634 770H906L779 1256L634 770ZM522 1680L368 1781L641 2097H912L1186 1781L1032
1680L777 1895L522 1680Z" />
<glyph unicode="&#xc3;" glyph-name="Atilde" horiz-adv-x="1771" d="M14 0V345H159L458 1247H243V1592H1231L1605 345H1750V0H853V345H1018L972 520H560L508 345H673V0H14ZM634 770H906L779 1256L634 770ZM947 1723Q883 1723 826 1754T719 1815T621 1846Q581
1846 542 1823T445 1737L332 1831Q357 1889 393 1950T481 2053T604 2096Q670 2096 725 2065T831 2004T937 1973Q988 1973 1023 2001T1108 2085L1222 1990Q1198 1934 1161 1872T1071 1767T947 1723Z" />
<glyph unicode="&#xc4;" glyph-name="Adieresis" horiz-adv-x="1771" d="M14 0V345H159L458 1247H243V1592H1231L1605 345H1750V0H853V345H1018L972 520H560L508 345H673V0H14ZM634 770H906L779 1256L634 770ZM1085 1687Q984 1687 921 1749T858 1904Q858 1997
922 2058T1084 2119Q1184 2119 1247 2058T1310 1902Q1310 1811 1247 1749T1085 1687ZM470 1687Q369 1687 306 1749T243 1905Q243 1997 307 2058T469 2119Q569 2119 632 2058T695 1903Q695 1812 632 1750T470 1687Z" />
<glyph unicode="&#xc5;" glyph-name="Aring" horiz-adv-x="1771" d="M14 0V345H159L458 1247H243V1592H1231L1605 345H1750V0H853V345H1018L972 520H560L508 345H673V0H14ZM634 770H906L779 1256L634 770ZM777 1693Q648 1693 575 1766T501 1940Q501 2041 574 2114T777
2187Q906 2187 979 2114T1053 1940Q1053 1840 980 1767T777 1693ZM777 1798Q848 1798 887 1839T927 1940Q927 2000 888 2041T777 2083Q707 2083 667 2042T627 1940Q627 1880 667 1839T777 1798Z" />
<glyph unicode="&#xc6;" glyph-name="AE" horiz-adv-x="2399" d="M0 0V345H145L659 1247H444V1592H2277V959H1947L1912 1252H1529V982H1799V642H1529V340H1912L1947 677H2277V0H861V345H1021V520H611L516 345H681V0H0ZM747 770H1021V1276L747 770Z" />
<glyph unicode="&#xc7;" glyph-name="Ccedilla" horiz-adv-x="1652" d="M957 -29Q686 -29 488 75T181 372T73 831Q73 1022 129 1169T285 1417T514 1569T788 1621Q940 1621 1051 1573T1234 1433L1285 1592H1560V930H1195Q1187 1122 1120 1195T943 1268Q863 1268
794 1223T682 1085T639 847Q639 633 750 520T1064 406Q1183 406 1297 446T1509 569L1536 557V135Q1420 50 1263 11T957 -29ZM854 -468Q771 -468 700 -454V-263Q751 -269 803 -269Q870 -269 900 -253T930 -209Q930 -149 810 -149V40H989V-66Q1080 -90 1119 -139T1159
-255Q1159 -312 1133 -360T1040 -438T854 -468Z" />
<glyph unicode="&#xc8;" glyph-name="Egrave" horiz-adv-x="1602" d="M64 0V345H224V1247H64V1592H1480V959H1150L1115 1252H732V982H1002V642H732V340H1115L1150 677H1480V0H64ZM997 1680L443 1873L577 2148L1101 1821L997 1680Z" />
<glyph unicode="&#xc9;" glyph-name="Eacute" horiz-adv-x="1602" d="M64 0V345H224V1247H64V1592H1480V959H1150L1115 1252H732V982H1002V642H732V340H1115L1150 677H1480V0H64ZM547 1680L457 1830L967 2148L1101 1873L547 1680Z" />
<glyph unicode="&#xca;" glyph-name="Ecircumflex" horiz-adv-x="1602" d="M64 0V345H224V1247H64V1592H1480V959H1150L1115 1252H732V982H1002V642H732V340H1115L1150 677H1480V0H64ZM517 1680L363 1781L636 2097H907L1181 1781L1027 1680L772 1895L517 1680Z" />
<glyph unicode="&#xcb;" glyph-name="Edieresis" horiz-adv-x="1602" d="M64 0V345H224V1247H64V1592H1480V959H1150L1115 1252H732V982H1002V642H732V340H1115L1150 677H1480V0H64ZM1080 1687Q979 1687 916 1749T853 1904Q853 1997 917 2058T1079 2119Q1179 2119
1242 2058T1305 1902Q1305 1811 1242 1749T1080 1687ZM465 1687Q364 1687 301 1749T238 1905Q238 1997 302 2058T464 2119Q564 2119 627 2058T690 1903Q690 1812 627 1750T465 1687Z" />
<glyph unicode="&#xcc;" glyph-name="Igrave" horiz-adv-x="968" d="M54 0V345H224V1247H54V1592H914V1247H744V345H914V0H54ZM709 1680L155 1873L289 2148L813 1821L709 1680Z" />
<glyph unicode="&#xcd;" glyph-name="Iacute" horiz-adv-x="968" d="M54 0V345H224V1247H54V1592H914V1247H744V345H914V0H54ZM259 1680L169 1830L679 2148L813 1873L259 1680Z" />
<glyph unicode="&#xce;" glyph-name="Icircumflex" horiz-adv-x="968" d="M54 0V345H224V1247H54V1592H914V1247H744V345H914V0H54ZM229 1680L75 1781L348 2097H619L893 1781L739 1680L484 1895L229 1680Z" />
<glyph unicode="&#xcf;" glyph-name="Idieresis" horiz-adv-x="968" d="M54 0V345H224V1247H54V1592H914V1247H744V345H914V0H54ZM792 1687Q691 1687 628 1749T565 1904Q565 1997 629 2058T791 2119Q891 2119 954 2058T1017 1902Q1017 1811 954 1749T792 1687ZM177
1687Q76 1687 13 1749T-50 1905Q-50 1997 14 2058T176 2119Q276 2119 339 2058T402 1903Q402 1812 339 1750T177 1687Z" />
<glyph unicode="&#xd0;" glyph-name="Eth" horiz-adv-x="1758" d="M54 0V345H214V1247H54V1592H780Q1223 1592 1454 1389T1685 794Q1685 404 1455 202T779 0H54ZM734 335H789Q965 335 1041 441T1117 797Q1117 1045 1041 1151T789 1257H734V335ZM340 960V1143H1190V960H340Z"
/>
<glyph unicode="&#xd1;" glyph-name="Ntilde" horiz-adv-x="1878" d="M1097 -1L550 910V345H710V0H64V345H224V1247H64V1592H779L1328 681V1247H1168V1592H1814V1247H1654V0L1097 -1ZM1109 1723Q1045 1723 988 1754T881 1815T783 1846Q743 1846 704 1823T607 1737L494
1831Q519 1889 555 1950T643 2053T766 2096Q832 2096 887 2065T993 2004T1099 1973Q1150 1973 1185 2001T1270 2085L1384 1990Q1360 1934 1323 1872T1233 1767T1109 1723Z" />
<glyph unicode="&#xd2;" glyph-name="Ograve" horiz-adv-x="1746" d="M873 -29Q626 -29 447 70T170 355T73 794Q73 1050 170 1235T446 1521T873 1621Q1121 1621 1300 1521T1576 1236T1673 794Q1673 540 1576 355T1300 71T873 -29ZM873 316Q985 316 1045 438T1105
797Q1105 1034 1045 1156T873 1278Q761 1278 701 1156T641 797Q641 560 701 438T873 316ZM1098 1680L544 1873L678 2148L1202 1821L1098 1680Z" />
<glyph unicode="&#xd3;" glyph-name="Oacute" horiz-adv-x="1746" d="M873 -29Q626 -29 447 70T170 355T73 794Q73 1050 170 1235T446 1521T873 1621Q1121 1621 1300 1521T1576 1236T1673 794Q1673 540 1576 355T1300 71T873 -29ZM873 316Q985 316 1045 438T1105
797Q1105 1034 1045 1156T873 1278Q761 1278 701 1156T641 797Q641 560 701 438T873 316ZM648 1680L558 1830L1068 2148L1202 1873L648 1680Z" />
<glyph unicode="&#xd4;" glyph-name="Ocircumflex" horiz-adv-x="1746" d="M873 -29Q626 -29 447 70T170 355T73 794Q73 1050 170 1235T446 1521T873 1621Q1121 1621 1300 1521T1576 1236T1673 794Q1673 540 1576 355T1300 71T873 -29ZM873 316Q985 316 1045 438T1105
797Q1105 1034 1045 1156T873 1278Q761 1278 701 1156T641 797Q641 560 701 438T873 316ZM618 1680L464 1781L737 2097H1008L1282 1781L1128 1680L873 1895L618 1680Z" />
<glyph unicode="&#xd5;" glyph-name="Otilde" horiz-adv-x="1746" d="M873 -29Q626 -29 447 70T170 355T73 794Q73 1050 170 1235T446 1521T873 1621Q1121 1621 1300 1521T1576 1236T1673 794Q1673 540 1576 355T1300 71T873 -29ZM873 316Q985 316 1045 438T1105
797Q1105 1034 1045 1156T873 1278Q761 1278 701 1156T641 797Q641 560 701 438T873 316ZM1043 1723Q979 1723 922 1754T815 1815T717 1846Q677 1846 638 1823T541 1737L428 1831Q453 1889 489 1950T577 2053T700 2096Q766 2096 821 2065T927 2004T1033 1973Q1084
1973 1119 2001T1204 2085L1318 1990Q1294 1934 1257 1872T1167 1767T1043 1723Z" />
<glyph unicode="&#xd6;" glyph-name="Odieresis" horiz-adv-x="1746" d="M873 -29Q626 -29 447 70T170 355T73 794Q73 1050 170 1235T446 1521T873 1621Q1121 1621 1300 1521T1576 1236T1673 794Q1673 540 1576 355T1300 71T873 -29ZM873 316Q985 316 1045 438T1105
797Q1105 1034 1045 1156T873 1278Q761 1278 701 1156T641 797Q641 560 701 438T873 316ZM1181 1687Q1080 1687 1017 1749T954 1904Q954 1997 1018 2058T1180 2119Q1280 2119 1343 2058T1406 1902Q1406 1811 1343 1749T1181 1687ZM566 1687Q465 1687 402 1749T339
1905Q339 1997 403 2058T565 2119Q665 2119 728 2058T791 1903Q791 1812 728 1750T566 1687Z" />
<glyph unicode="&#xd7;" glyph-name="multiply" horiz-adv-x="1200" d="M363 57L121 300L358 536L121 773L363 1015L601 778L838 1015L1080 773L843 536L1080 300L838 57L601 294L363 57Z" />
<glyph unicode="&#xd8;" glyph-name="Oslash" horiz-adv-x="1746" d="M873 -29Q626 -29 447 70T170 355T73 794Q73 1050 170 1235T446 1521T873 1621Q1121 1621 1300 1521T1576 1236T1673 794Q1673 540 1576 355T1300 71T873 -29ZM873 316Q985 316 1045 438T1105
797Q1105 1034 1045 1156T873 1278Q761 1278 701 1156T641 797Q641 560 701 438T873 316ZM977 -198L796 -158L1281 1790L1462 1750L977 -198Z" />
<glyph unicode="&#xd9;" glyph-name="Ugrave" horiz-adv-x="1780" d="M916 -29Q579 -29 394 141T208 685V1247H48V1592H893V1247H728V684Q728 368 990 368Q1115 368 1176 450T1238 684V1247H1073V1592H1732V1247H1572V645Q1572 -29 916 -29ZM1140 1680L586 1873L720
2148L1244 1821L1140 1680Z" />
<glyph unicode="&#xda;" glyph-name="Uacute" horiz-adv-x="1780" d="M916 -29Q579 -29 394 141T208 685V1247H48V1592H893V1247H728V684Q728 368 990 368Q1115 368 1176 450T1238 684V1247H1073V1592H1732V1247H1572V645Q1572 -29 916 -29ZM690 1680L600 1830L1110
2148L1244 1873L690 1680Z" />
<glyph unicode="&#xdb;" glyph-name="Ucircumflex" horiz-adv-x="1780" d="M916 -29Q579 -29 394 141T208 685V1247H48V1592H893V1247H728V684Q728 368 990 368Q1115 368 1176 450T1238 684V1247H1073V1592H1732V1247H1572V645Q1572 -29 916 -29ZM660 1680L506
1781L779 2097H1050L1324 1781L1170 1680L915 1895L660 1680Z" />
<glyph unicode="&#xdc;" glyph-name="Udieresis" horiz-adv-x="1780" d="M916 -29Q579 -29 394 141T208 685V1247H48V1592H893V1247H728V684Q728 368 990 368Q1115 368 1176 450T1238 684V1247H1073V1592H1732V1247H1572V645Q1572 -29 916 -29ZM1223 1687Q1122
1687 1059 1749T996 1904Q996 1997 1060 2058T1222 2119Q1322 2119 1385 2058T1448 1902Q1448 1811 1385 1749T1223 1687ZM608 1687Q507 1687 444 1749T381 1905Q381 1997 445 2058T607 2119Q707 2119 770 2058T833 1903Q833 1812 770 1750T608 1687Z" />
<glyph unicode="&#xdd;" glyph-name="Yacute" horiz-adv-x="1728" d="M320 0V345H610V705L146 1248H1V1593H905V1248H795L991 1011L1159 1248H1049V1593H1683V1248H1538L1118 684V345H1408V0H320ZM639 1680L549 1830L1059 2148L1193 1873L639 1680Z" />
<glyph unicode="&#xde;" glyph-name="Thorn" horiz-adv-x="1731" d="M64 0V345H224V1247H64V1592H1022V1247H732V1157H1133Q1414 1157 1552 1070T1691 817Q1691 650 1554 562T1143 474H732V345H1022V0H64ZM1027 902H732V729H1017Q1089 729 1129 748T1169 815Q1169
863 1131 882T1027 902Z" />
<glyph unicode="&#xdf;" glyph-name="germandbls" horiz-adv-x="1625" d="M42 0V310H187V972Q187 1168 269 1298T494 1493T814 1558Q985 1558 1105 1507T1289 1366T1352 1160Q1352 973 1216 889Q1388 850 1483 747T1578 474Q1578 240 1421 120T982 0H897V300H929Q1002
300 1053 343T1105 477Q1105 567 1050 610T902 653H787V953H834Q921 953 965 997T1010 1122Q1010 1193 967 1233T849 1274Q763 1274 715 1219T667 1051V300H757V0H42Z" />
<glyph unicode="&#xe0;" glyph-name="agrave" horiz-adv-x="1399" d="M421 -18Q318 -18 238 23T112 138T66 306Q66 454 180 542T484 630Q550 630 610 622T732 595V617Q732 708 677 749T499 790Q411 790 321 767T157 703L130 715V1007Q235 1048 368 1069T637 1090Q936
1090 1074 990T1212 669V300H1342V0H796L747 157Q700 75 614 29T421 -18ZM630 238Q657 238 686 247T732 273V440Q707 451 682 455T634 459Q583 459 549 429T514 349Q514 298 546 268T630 238ZM885 1160L331 1473L515 1738L989 1301L885 1160Z" />
<glyph unicode="&#xe1;" glyph-name="aacute" horiz-adv-x="1399" d="M421 -18Q318 -18 238 23T112 138T66 306Q66 454 180 542T484 630Q550 630 610 622T732 595V617Q732 708 677 749T499 790Q411 790 321 767T157 703L130 715V1007Q235 1048 368 1069T637 1090Q936
1090 1074 990T1212 669V300H1342V0H796L747 157Q700 75 614 29T421 -18ZM630 238Q657 238 686 247T732 273V440Q707 451 682 455T634 459Q583 459 549 429T514 349Q514 298 546 268T630 238ZM435 1160L331 1301L805 1738L989 1473L435 1160Z" />
<glyph unicode="&#xe2;" glyph-name="acircumflex" horiz-adv-x="1399" d="M421 -18Q318 -18 238 23T112 138T66 306Q66 454 180 542T484 630Q550 630 610 622T732 595V617Q732 708 677 749T499 790Q411 790 321 767T157 703L130 715V1007Q235 1048 368 1069T637
1090Q936 1090 1074 990T1212 669V300H1342V0H796L747 157Q700 75 614 29T421 -18ZM630 238Q657 238 686 247T732 273V440Q707 451 682 455T634 459Q583 459 549 429T514 349Q514 298 546 268T630 238ZM405 1158L251 1259L524 1635H795L1069 1259L915 1158L660
1403L405 1158Z" />
<glyph unicode="&#xe3;" glyph-name="atilde" horiz-adv-x="1399" d="M421 -18Q318 -18 238 23T112 138T66 306Q66 454 180 542T484 630Q550 630 610 622T732 595V617Q732 708 677 749T499 790Q411 790 321 767T157 703L130 715V1007Q235 1048 368 1069T637 1090Q936
1090 1074 990T1212 669V300H1342V0H796L747 157Q700 75 614 29T421 -18ZM630 238Q657 238 686 247T732 273V440Q707 451 682 455T634 459Q583 459 549 429T514 349Q514 298 546 268T630 238ZM830 1200Q766 1200 709 1231T602 1292T504 1323Q464 1323 425 1300T328
1214L215 1308Q240 1366 276 1427T364 1530T487 1573Q553 1573 608 1543T714 1481T820 1450Q871 1450 906 1478T991 1562L1105 1467Q1081 1411 1044 1349T954 1244T830 1200Z" />
<glyph unicode="&#xe4;" glyph-name="adieresis" horiz-adv-x="1399" d="M421 -18Q318 -18 238 23T112 138T66 306Q66 454 180 542T484 630Q550 630 610 622T732 595V617Q732 708 677 749T499 790Q411 790 321 767T157 703L130 715V1007Q235 1048 368 1069T637
1090Q936 1090 1074 990T1212 669V300H1342V0H796L747 157Q700 75 614 29T421 -18ZM630 238Q657 238 686 247T732 273V440Q707 451 682 455T634 459Q583 459 549 429T514 349Q514 298 546 268T630 238ZM393 1202Q305 1202 250 1260T195 1405Q195 1491 251 1546T392
1602Q479 1602 534 1546T589 1403Q589 1318 534 1260T393 1202ZM929 1201Q841 1201 786 1259T731 1404Q731 1490 787 1545T928 1601Q1015 1601 1070 1545T1125 1402Q1125 1317 1070 1259T929 1201Z" />
<glyph unicode="&#xe5;" glyph-name="aring" horiz-adv-x="1399" d="M421 -18Q318 -18 238 23T112 138T66 306Q66 454 180 542T484 630Q550 630 610 622T732 595V617Q732 708 677 749T499 790Q411 790 321 767T157 703L130 715V1007Q235 1048 368 1069T637 1090Q936
1090 1074 990T1212 669V300H1342V0H796L747 157Q700 75 614 29T421 -18ZM630 238Q657 238 686 247T732 273V440Q707 451 682 455T634 459Q583 459 549 429T514 349Q514 298 546 268T630 238ZM660 1171Q531 1171 458 1244T384 1418Q384 1519 457 1592T660 1665Q789
1665 862 1592T936 1418Q936 1318 863 1245T660 1171ZM660 1276Q731 1276 770 1317T810 1418Q810 1478 771 1519T660 1561Q590 1561 550 1520T510 1418Q510 1358 550 1317T660 1276Z" />
<glyph unicode="&#xe6;" glyph-name="ae" horiz-adv-x="1931" d="M570 -18Q332 -18 209 74T85 314Q85 456 199 543T503 630Q569 630 629 622T751 595V617Q751 708 696 749T518 790Q430 790 340 767T176 703L149 715V1007Q254 1048 375 1069T616 1090Q746 1090
849 1063T1022 978Q1162 1090 1354 1090Q1515 1090 1632 1028T1814 854T1878 596Q1878 562 1875 531T1868 473H1225Q1242 371 1317 327T1502 282Q1594 282 1677 314T1819 396L1846 384V97Q1773 47 1655 15T1422 -18Q1303 -18 1202 15T1022 112Q949 50 836 16T570
-18ZM1360 844Q1293 844 1259 792T1221 647H1499Q1495 740 1462 792T1360 844ZM649 228Q676 228 705 236T751 259V440Q726 451 701 455T653 459Q602 459 568 428T533 344Q533 289 565 259T649 228Z" />
<glyph unicode="&#xe7;" glyph-name="ccedilla" horiz-adv-x="1197" d="M664 -18Q380 -18 217 131T53 546Q53 712 122 834T308 1023T565 1090Q667 1090 744 1055T875 957L915 1072H1136V628H848Q840 714 801 756T703 799Q636 799 584 742T531 550Q531 411 604
352T789 292Q873 292 951 325T1087 406L1114 394V97Q1067 64 993 38T833 -3T664 -18ZM610 -468Q527 -468 456 -454V-263Q507 -269 559 -269Q626 -269 656 -253T686 -209Q686 -149 566 -149V40H745V-66Q836 -90 875 -139T915 -255Q915 -312 889 -360T796 -438T610
-468Z" />
<glyph unicode="&#xe8;" glyph-name="egrave" horiz-adv-x="1236" d="M687 -18Q390 -18 222 131T53 546Q53 713 126 835T332 1023T639 1090Q810 1090 932 1028T1118 854T1183 596Q1183 562 1180 531T1173 473H530Q547 371 622 327T807 282Q899 282 982 314T1124
396L1151 384V97Q1103 64 1027 38T863 -3T687 -18ZM665 844Q598 844 564 792T526 647H804Q800 740 767 792T665 844ZM865 1160L311 1473L495 1738L969 1301L865 1160Z" />
<glyph unicode="&#xe9;" glyph-name="eacute" horiz-adv-x="1236" d="M687 -18Q390 -18 222 131T53 546Q53 713 126 835T332 1023T639 1090Q810 1090 932 1028T1118 854T1183 596Q1183 562 1180 531T1173 473H530Q547 371 622 327T807 282Q899 282 982 314T1124
396L1151 384V97Q1103 64 1027 38T863 -3T687 -18ZM665 844Q598 844 564 792T526 647H804Q800 740 767 792T665 844ZM415 1160L311 1301L785 1738L969 1473L415 1160Z" />
<glyph unicode="&#xea;" glyph-name="ecircumflex" horiz-adv-x="1236" d="M687 -18Q390 -18 222 131T53 546Q53 713 126 835T332 1023T639 1090Q810 1090 932 1028T1118 854T1183 596Q1183 562 1180 531T1173 473H530Q547 371 622 327T807 282Q899 282 982 314T1124
396L1151 384V97Q1103 64 1027 38T863 -3T687 -18ZM665 844Q598 844 564 792T526 647H804Q800 740 767 792T665 844ZM385 1158L231 1259L504 1635H775L1049 1259L895 1158L640 1403L385 1158Z" />
<glyph unicode="&#xeb;" glyph-name="edieresis" horiz-adv-x="1236" d="M687 -18Q390 -18 222 131T53 546Q53 713 126 835T332 1023T639 1090Q810 1090 932 1028T1118 854T1183 596Q1183 562 1180 531T1173 473H530Q547 371 622 327T807 282Q899 282 982 314T1124
396L1151 384V97Q1103 64 1027 38T863 -3T687 -18ZM665 844Q598 844 564 792T526 647H804Q800 740 767 792T665 844ZM373 1202Q285 1202 230 1260T175 1405Q175 1491 231 1546T372 1602Q459 1602 514 1546T569 1403Q569 1318 514 1260T373 1202ZM909 1201Q821 1201
766 1259T711 1404Q711 1490 767 1545T908 1601Q995 1601 1050 1545T1105 1402Q1105 1317 1050 1259T909 1201Z" />
<glyph unicode="&#xec;" glyph-name="igrave" horiz-adv-x="887" d="M65 0V300H220V759H65V1032L700 1091V300H855V0H65ZM685 1160L131 1473L315 1738L789 1301L685 1160Z" />
<glyph unicode="&#xed;" glyph-name="iacute" horiz-adv-x="887" d="M65 0V300H220V759H65V1032L700 1091V300H855V0H65ZM235 1160L131 1301L605 1738L789 1473L235 1160Z" />
<glyph unicode="&#xee;" glyph-name="icircumflex" horiz-adv-x="887" d="M65 0V300H220V759H65V1032L700 1091V300H855V0H65ZM205 1158L51 1259L324 1635H595L869 1259L715 1158L460 1403L205 1158Z" />
<glyph unicode="&#xef;" glyph-name="idieresis" horiz-adv-x="887" d="M65 0V300H220V759H65V1032L700 1091V300H855V0H65ZM193 1202Q105 1202 50 1260T-5 1405Q-5 1491 51 1546T192 1602Q279 1602 334 1546T389 1403Q389 1318 334 1260T193 1202ZM729 1201Q641
1201 586 1259T531 1404Q531 1490 587 1545T728 1601Q815 1601 870 1545T925 1402Q925 1317 870 1259T729 1201Z" />
<glyph unicode="&#xf0;" glyph-name="eth" horiz-adv-x="1349" d="M649 -18Q468 -17 335 47T127 227T53 501Q53 651 118 764T294 942T546 1006Q637 1006 700 981T804 912Q787 1004 747 1069T637 1174L315 1002L251 1118L459 1229Q399 1237 326 1237H222L242 1537Q299
1545 347 1548T439 1551Q697 1551 886 1458L1064 1553L1128 1437L1015 1376Q1152 1268 1224 1098T1296 707Q1296 352 1124 167T649 -18ZM662 273Q797 273 797 494Q797 715 662 715Q527 715 527 494Q527 273 662 273Z" />
<glyph unicode="&#xf1;" glyph-name="ntilde" horiz-adv-x="1582" d="M75 0V300H220V759H75V1032L690 1091V955Q752 1020 845 1055T1045 1091Q1226 1091 1310 989T1395 680V300H1535V0H915V680Q915 738 890 764T824 791Q790 791 757 771T700 716V300H790V0H75ZM975
1200Q911 1200 854 1231T747 1292T649 1323Q609 1323 570 1300T473 1214L360 1308Q385 1366 421 1427T509 1530T632 1573Q698 1573 753 1543T859 1481T965 1450Q1016 1450 1051 1478T1136 1562L1250 1467Q1226 1411 1189 1349T1099 1244T975 1200Z" />
<glyph unicode="&#xf2;" glyph-name="ograve" horiz-adv-x="1322" d="M661 -18Q473 -18 337 49T127 240T53 535Q53 707 126 831T336 1022T661 1090Q849 1090 985 1023T1195 831T1269 535Q1269 364 1196 240T986 49T661 -18ZM661 273Q796 273 796 536Q796 799 661
799Q526 799 526 536Q526 273 661 273ZM886 1160L332 1473L516 1738L990 1301L886 1160Z" />
<glyph unicode="&#xf3;" glyph-name="oacute" horiz-adv-x="1322" d="M661 -18Q473 -18 337 49T127 240T53 535Q53 707 126 831T336 1022T661 1090Q849 1090 985 1023T1195 831T1269 535Q1269 364 1196 240T986 49T661 -18ZM661 273Q796 273 796 536Q796 799 661
799Q526 799 526 536Q526 273 661 273ZM436 1160L332 1301L806 1738L990 1473L436 1160Z" />
<glyph unicode="&#xf4;" glyph-name="ocircumflex" horiz-adv-x="1322" d="M661 -18Q473 -18 337 49T127 240T53 535Q53 707 126 831T336 1022T661 1090Q849 1090 985 1023T1195 831T1269 535Q1269 364 1196 240T986 49T661 -18ZM661 273Q796 273 796 536Q796
799 661 799Q526 799 526 536Q526 273 661 273ZM406 1158L252 1259L525 1635H796L1070 1259L916 1158L661 1403L406 1158Z" />
<glyph unicode="&#xf5;" glyph-name="otilde" horiz-adv-x="1322" d="M661 -18Q473 -18 337 49T127 240T53 535Q53 707 126 831T336 1022T661 1090Q849 1090 985 1023T1195 831T1269 535Q1269 364 1196 240T986 49T661 -18ZM661 273Q796 273 796 536Q796 799 661
799Q526 799 526 536Q526 273 661 273ZM831 1200Q767 1200 710 1231T603 1292T505 1323Q465 1323 426 1300T329 1214L216 1308Q241 1366 277 1427T365 1530T488 1573Q554 1573 609 1543T715 1481T821 1450Q872 1450 907 1478T992 1562L1106 1467Q1082 1411 1045
1349T955 1244T831 1200Z" />
<glyph unicode="&#xf6;" glyph-name="odieresis" horiz-adv-x="1322" d="M661 -18Q473 -18 337 49T127 240T53 535Q53 707 126 831T336 1022T661 1090Q849 1090 985 1023T1195 831T1269 535Q1269 364 1196 240T986 49T661 -18ZM661 273Q796 273 796 536Q796 799
661 799Q526 799 526 536Q526 273 661 273ZM394 1202Q306 1202 251 1260T196 1405Q196 1491 252 1546T393 1602Q480 1602 535 1546T590 1403Q590 1318 535 1260T394 1202ZM930 1201Q842 1201 787 1259T732 1404Q732 1490 788 1545T929 1601Q1016 1601 1071 1545T1126
1402Q1126 1317 1071 1259T930 1201Z" />
<glyph unicode="&#xf7;" glyph-name="divide" horiz-adv-x="1200" d="M600 735Q498 735 437 784T375 916Q375 999 436 1048T600 1097Q702 1097 763 1048T824 916Q823 834 763 785T600 735ZM100 376V696H1100V376H100ZM600 -25Q498 -25 437 24T375 156Q375 239
436 288T600 337Q702 337 763 288T824 156Q823 74 763 25T600 -25Z" />
<glyph unicode="&#xf8;" glyph-name="oslash" horiz-adv-x="1322" d="M661 -18Q473 -18 337 49T127 240T53 535Q53 707 126 831T336 1022T661 1090Q849 1090 985 1023T1195 831T1269 535Q1269 364 1196 240T986 49T661 -18ZM661 273Q796 273 796 536Q796 799 661
799Q526 799 526 536Q526 273 661 273ZM628 -118L474 -29L595 172L698 315L1005 832L1085 989L1206 1190L1360 1101L1239 900L1136 757L829 240L749 83L628 -118Z" />
<glyph unicode="&#xf9;" glyph-name="ugrave" horiz-adv-x="1541" d="M552 -19Q182 -19 182 397V759H42V1032L662 1091V396Q662 335 689 308T758 281Q833 281 874 358V759H784V1032L1354 1091V300H1494V0H884V117Q824 53 742 17T552 -19ZM993 1160L439 1473L623
1738L1097 1301L993 1160Z" />
<glyph unicode="&#xfa;" glyph-name="uacute" horiz-adv-x="1541" d="M552 -19Q182 -19 182 397V759H42V1032L662 1091V396Q662 335 689 308T758 281Q833 281 874 358V759H784V1032L1354 1091V300H1494V0H884V117Q824 53 742 17T552 -19ZM543 1160L439 1301L913
1738L1097 1473L543 1160Z" />
<glyph unicode="&#xfb;" glyph-name="ucircumflex" horiz-adv-x="1541" d="M552 -19Q182 -19 182 397V759H42V1032L662 1091V396Q662 335 689 308T758 281Q833 281 874 358V759H784V1032L1354 1091V300H1494V0H884V117Q824 53 742 17T552 -19ZM513 1158L359 1259L632
1635H903L1177 1259L1023 1158L768 1403L513 1158Z" />
<glyph unicode="&#xfc;" glyph-name="udieresis" horiz-adv-x="1541" d="M552 -19Q182 -19 182 397V759H42V1032L662 1091V396Q662 335 689 308T758 281Q833 281 874 358V759H784V1032L1354 1091V300H1494V0H884V117Q824 53 742 17T552 -19ZM501 1202Q413 1202
358 1260T303 1405Q303 1491 359 1546T500 1602Q587 1602 642 1546T697 1403Q697 1318 642 1260T501 1202ZM1037 1201Q949 1201 894 1259T839 1404Q839 1490 895 1545T1036 1601Q1123 1601 1178 1545T1233 1402Q1233 1317 1178 1259T1037 1201Z" />
<glyph unicode="&#xfd;" glyph-name="yacute" horiz-adv-x="1413" d="M297 -398V-98H544L580 -27L104 772H9V1072H732V772H612L804 424L977 772H857V1072H1364V772H1269L836 -98H981V-398H297ZM503 1160L399 1301L873 1738L1057 1473L503 1160Z" />
<glyph unicode="&#xfe;" glyph-name="thorn" horiz-adv-x="1493" d="M42 -398V-98H187V1230H42V1503L657 1560V961Q719 1020 801 1055T968 1091Q1114 1091 1218 1022T1379 828T1435 535Q1435 368 1380 244T1226 51T993 -17Q821 -17 667 108V-98H812V-398H42ZM813
282Q884 282 923 349T962 536Q962 656 923 724T813 792Q776 792 735 781T667 749V328Q694 309 735 296T813 282Z" />
<glyph unicode="&#xff;" glyph-name="ydieresis" horiz-adv-x="1413" d="M297 -398V-98H544L580 -27L104 772H9V1072H732V772H612L804 424L977 772H857V1072H1364V772H1269L836 -98H981V-398H297ZM461 1202Q373 1202 318 1260T263 1405Q263 1491 319 1546T460
1602Q547 1602 602 1546T657 1403Q657 1318 602 1260T461 1202ZM997 1201Q909 1201 854 1259T799 1404Q799 1490 855 1545T996 1601Q1083 1601 1138 1545T1193 1402Q1193 1317 1138 1259T997 1201Z" />
<glyph unicode="&#x2013;" glyph-name="endash" horiz-adv-x="1024" d="M100 441V641H924V441H100Z" />
<glyph unicode="&#x2014;" glyph-name="emdash" horiz-adv-x="2048" d="M100 441V641H1948V441H100Z" />
<glyph unicode="&#x2018;" glyph-name="quoteleft" horiz-adv-x="622" d="M331 725Q184 725 107 820T30 1100Q30 1352 169 1496T565 1641V1411Q463 1409 413 1365T356 1227Q466 1212 529 1146T592 975Q592 863 520 794T331 725Z" />
<glyph unicode="&#x2019;" glyph-name="quoteright" horiz-adv-x="622" d="M57 705V935Q159 937 209 981T266 1119Q156 1134 93 1200T30 1371Q30 1483 102 1552T291 1621Q438 1621 515 1526T592 1246Q592 994 453 850T57 705Z" />
<glyph unicode="&#x201a;" glyph-name="quotesinglbase" horiz-adv-x="622" d="M57 -438V-208Q159 -206 209 -162T266 -24Q156 -9 93 57T30 228Q30 340 102 409T291 478Q438 478 515 383T592 103Q592 -149 453 -293T57 -438Z" />
<glyph unicode="&#x201c;" glyph-name="quotedblleft" horiz-adv-x="1242" d="M331 725Q184 725 107 820T30 1100Q30 1352 169 1496T565 1641V1411Q463 1409 413 1365T356 1227Q466 1212 529 1146T592 975Q592 863 520 794T331 725ZM951 725Q804 725 727 820T650
1100Q650 1352 789 1496T1185 1641V1411Q1083 1409 1033 1365T976 1227Q1086 1212 1149 1146T1212 975Q1212 863 1140 794T951 725Z" />
<glyph unicode="&#x201d;" glyph-name="quotedblright" horiz-adv-x="1242" d="M57 705V935Q159 937 209 981T266 1119Q156 1134 93 1200T30 1371Q30 1483 102 1552T291 1621Q438 1621 515 1526T592 1246Q592 994 453 850T57 705ZM677 705V935Q779 937 829 981T886
1119Q776 1134 713 1200T650 1371Q650 1483 722 1552T911 1621Q1058 1621 1135 1526T1212 1246Q1212 994 1073 850T677 705Z" />
<glyph unicode="&#x201e;" glyph-name="quotedblbase" horiz-adv-x="1242" d="M57 -438V-208Q159 -206 209 -162T266 -24Q156 -9 93 57T30 228Q30 340 102 409T291 478Q438 478 515 383T592 103Q592 -149 453 -293T57 -438ZM677 -438V-208Q779 -206 829 -162T886
-24Q776 -9 713 57T650 228Q650 340 722 409T911 478Q1058 478 1135 383T1212 103Q1212 -149 1073 -293T677 -438Z" />
<glyph unicode="&#x2022;" glyph-name="bullet" horiz-adv-x="910" d="M455 152Q341 152 251 201T108 339T55 543Q55 659 107 746T250 881T455 930Q570 930 660 882T802 746T855 543Q855 428 803 340T660 202T455 152Z" />
<glyph unicode="&#x2039;" glyph-name="guilsinglleft" horiz-adv-x="741" d="M482 32L95 406V676L482 1050L706 826L421 541L706 256L482 32Z" />
<glyph unicode="&#x203a;" glyph-name="guilsinglright" horiz-adv-x="741" d="M259 32L35 256L320 541L35 826L259 1050L646 676V406L259 32Z" />
</font>
</defs>
</svg>
