<?xml version="1.0" standalone="no"?>
<!DOCTYPE svg PUBLIC "-//W3C//DTD SVG 1.1//EN" "http://www.w3.org/Graphics/SVG/1.1/DTD/svg11.dtd">
<svg xmlns="http://www.w3.org/2000/svg">
<defs >
<font id="EduQLDBeginner" horiz-adv-x="486" ><font-face
    font-family="Edu QLD Beginner"
    units-per-em="1000"
    panose-1="0 0 0 0 0 0 0 0 0 0"
    ascent="1016"
    descent="-244"
    alphabetic="0" />
<glyph unicode=" " horiz-adv-x="278" />
<glyph unicode="!" horiz-adv-x="292" d="M238 747L147 240Q145 223 134 215T112 208Q101 209 93 217T87 240L177 747Q180 760 191 766T214 772Q225 772 232 766T238 747ZM84 -7Q65 -7 52 8T39 42Q39 59 52 73T84 88Q105 88 119 75T134 42Q134 23 120 8T84 -7Z" />
<glyph unicode="&quot;" horiz-adv-x="404" d="M175 594Q163 594 155 602T149 627L169 741Q171 757 182 764T203 772Q215 772 224 763T229 737L209 623Q207 609 197 602T175 594ZM304 594Q296 594 289 597T279 608T277 627L298 746Q301 759 310 765T330 772Q343
772 351 763T358 737L337 619Q336 606 326 600T304 594Z" />
<glyph unicode="#" horiz-adv-x="925" d="M240 0Q230 0 223 8T217 33L326 645Q328 660 339 667T361 675Q373 675 381 667T386 645L278 33Q274 16 263 8T240 0ZM75 202Q75 212 82 220T106 228H753Q770 228 777 220T784 202Q784 192 776 184T753 175H106Q91 175
83 183T75 202ZM546 0Q535 -1 527 8T522 33L630 645Q632 660 643 667T666 675Q677 674 685 667T690 645L582 33Q580 17 569 9T546 0ZM124 482Q124 492 132 501T156 510H802Q818 510 826 501T834 482Q834 472 826 464T802 456H156Q140 456 132 464T124 482Z" />
<glyph unicode="$" horiz-adv-x="543" d="M131 0H8Q-8 0 -16 9T-24 29Q-24 40 -15 49T8 59H131Q154 59 187 61T257 69T324 89T374 124T394 181Q394 213 376 234T324 274T245 320Q210 340 177 359T118 398T77 443T61 499Q61 549 98 589T200 652T342 676H506Q523
676 530 667T538 647Q538 636 532 627T511 617H341Q307 617 269 609T196 587T141 552T120 505Q120 479 142 457T201 415T276 371Q327 341 367 317T431 262T454 182Q454 133 432 101T374 48T295 18T209 4T131 0ZM362 734L221 -64Q218 -79 209 -87T189 -95Q179 -95
172 -87T168 -62L309 739Q311 756 321 764T341 772Q352 772 359 763T362 734Z" />
<glyph unicode="%" horiz-adv-x="594" d="M481 625L140 24Q133 11 125 6T107 0Q98 0 90 4T78 17T81 37L422 638Q430 652 438 658T456 665Q465 665 473 660T484 646T481 625ZM374 -5Q357 -5 344 3T323 30T316 80Q316 126 329 164T353 223Q368 249 394 270T457 291Q502
291 525 271T548 211Q548 180 533 143T493 72T437 17T374 -5ZM384 48Q399 48 418 64T454 106T483 157T494 202Q494 222 486 230T455 238Q438 238 426 230T403 202Q389 173 379 145T368 89Q368 71 370 60T384 48ZM108 374Q90 374 77 382T57 409T50 459Q50 505 63
543T87 602Q102 628 128 649T191 670Q236 670 259 650T282 590Q282 559 267 522T227 451T171 396T108 374ZM118 426Q133 426 152 442T188 484T217 535T228 581Q228 601 219 609T188 617Q171 617 160 609T137 581Q123 552 113 524T102 468Q102 450 104 438T118 426Z"
/>
<glyph unicode="&amp;" horiz-adv-x="657" d="M225 -5Q169 -5 130 23T70 94T50 183Q50 236 77 284T150 373T245 446L270 460Q358 516 407 562T456 649Q456 674 437 692T373 710Q315 710 276 683T232 618Q230 597 242 566T272 504T299 455L523 56Q530 43 531 27T520
1Q512 -5 502 -3T484 8T469 26L248 419Q236 441 216 474T182 546T171 618Q177 657 204 692T278 749T383 770Q419 770 450 757T500 719T519 661Q519 622 498 584T435 508T326 431L271 399Q232 376 196 342T138 268T115 185Q115 127 150 91T241 55Q292 55 331 78T407
147T484 257Q495 271 508 276T535 272Q547 263 546 249T535 221Q485 141 440 91T344 18T225 -5Z" />
<glyph unicode="&apos;" horiz-adv-x="276" d="M176 594Q168 594 161 597T151 608T149 627L170 746Q172 759 182 765T202 772Q215 772 223 763T229 737L209 619Q208 606 198 600T176 594Z" />
<glyph unicode="(" horiz-adv-x="437" d="M233 -353Q223 -358 211 -354T191 -336Q138 -228 109 -119T74 88T80 260Q88 309 113 370T176 498T265 630T374 752Q392 768 407 771T429 767Q435 761 433 750T413 721Q301 608 234 491T146 260Q124 133 141 -8T234 -310Q242
-325 241 -336T233 -353Z" />
<glyph unicode=")" horiz-adv-x="437" d="M-49 -326Q-54 -319 -51 -308T-36 -285Q92 -160 156 -33T242 221Q262 335 239 467T149 745Q139 765 140 777T150 794Q160 799 172 791T196 760Q232 687 257 609T295 455T311 313T305 198Q292 124 252 35T148 -148T-4 -324Q-15
-335 -28 -335T-49 -326Z" />
<glyph unicode="*" horiz-adv-x="418" d="M347 682L185 582Q171 574 161 575T146 583Q141 591 145 602T164 623L326 722Q339 730 349 729T364 721Q369 713 366 702T347 682ZM304 584L177 684Q166 693 165 703T170 720Q175 727 185 728T206 720L334 619Q345 610
346 601T343 584Q337 577 327 577T304 584ZM293 740L263 564Q260 548 251 540T232 532Q224 534 219 541T216 564L247 740Q250 757 259 764T277 772Q285 772 290 765T293 740Z" />
<glyph unicode="+" horiz-adv-x="545" d="M296 361L249 95Q247 81 239 75T222 68Q212 68 204 77T197 103L244 369Q246 383 254 390T271 397Q282 397 290 388T296 361ZM381 208H112Q96 208 88 216T80 235Q80 245 88 253T112 261H381Q398 261 405 253T413 235Q413
225 406 217T381 208Z" />
<glyph unicode="," horiz-adv-x="240" d="M46 -120Q36 -118 29 -109T24 -84L44 33Q47 48 57 54T78 59Q90 58 98 50T103 25L82 -93Q79 -109 68 -115T46 -120Z" />
<glyph unicode="-" horiz-adv-x="451" d="M287 208H112Q96 208 88 216T80 235Q80 246 87 256T112 267H287Q304 267 312 258T320 238Q320 227 312 218T287 208Z" />
<glyph unicode="." horiz-adv-x="240" d="M70 -14Q51 -14 39 0T26 32Q26 50 38 63T70 76Q88 76 101 63T115 32Q115 13 102 0T70 -14Z" />
<glyph unicode="/" horiz-adv-x="457" d="M410 732L105 24Q99 11 90 6T71 0Q57 0 48 10T45 37L350 745Q357 760 366 766T385 772Q394 772 402 767T413 754T410 732Z" />
<glyph unicode="0" horiz-adv-x="529" d="M156 -5Q123 -5 99 12T58 57T34 120T26 190Q26 226 34 275T58 379T100 486T160 581T241 649T342 675Q389 675 420 657T470 610T495 546T503 478Q503 416 482 349T423 219T341 106T248 25T156 -5ZM154 56Q177 56 213 78T288
139T362 232T419 349T441 481Q441 516 433 546T405 595T345 614Q296 614 256 584T184 505T132 399T99 285T88 184Q88 121 107 89T154 56Z" />
<glyph unicode="1" horiz-adv-x="381" d="M266 645L157 27Q154 12 145 6T124 0Q112 0 104 8T97 33L206 645Q208 661 219 668T241 675Q253 675 261 668T266 645Z" />
<glyph unicode="2" horiz-adv-x="451" d="M7 0Q-9 0 -18 10T-27 35T-13 65L280 394Q315 433 342 477T369 556Q369 584 346 600Q320 614 282 614Q241 614 196 600T119 560Q97 542 83 542T61 550Q54 558 54 570T75 600Q113 632 170 653T282 675Q307 675 330 670T373
652Q402 634 417 613T432 562Q432 522 401 466T305 330Q301 325 281 303T232 250T171 183T109 115T58 58L7 0ZM7 0V59H309Q327 59 333 50T340 30Q340 19 334 10T309 0H7Z" />
<glyph unicode="3" horiz-adv-x="480" d="M-10 78Q-2 89 11 90T38 80Q56 67 75 62T115 56Q154 56 197 72T277 117T337 184T360 267Q360 292 351 314T320 351T264 366Q239 366 207 361T128 329L100 377Q141 395 165 404T205 416T232 420T260 421Q334 421 376 379T419
268Q419 211 391 162T318 75T219 16T114 -5Q84 -5 57 4T7 30Q-12 45 -14 56T-10 78ZM80 558Q76 566 76 579T97 607Q151 643 203 659T298 675Q351 675 383 653T416 593Q416 565 393 533T329 466T237 396T128 329Q114 321 101 323T83 335Q78 346 81 357T100 377Q144
402 189 432T271 492T332 547T356 588Q356 620 305 620Q272 620 224 604T121 551Q110 544 98 546T80 558Z" />
<glyph unicode="4" horiz-adv-x="480" d="M32 192L135 646Q139 663 149 669T170 675Q181 675 190 667T195 642L91 190Q89 180 83 170T61 160Q45 160 38 169T32 192ZM261 0Q250 1 242 10T238 37L297 367Q300 382 310 388T333 393Q344 392 351 383T356 359L297 31Q293
13 283 6T261 0ZM472 188Q472 177 464 169T441 160H61V214H441Q455 214 463 207T472 188Z" />
<glyph unicode="5" horiz-adv-x="478" d="M126 -4Q89 -4 56 11T4 46Q-6 56 -10 70T-5 95Q7 109 19 106T42 93Q55 79 77 68T126 56Q176 56 216 74T284 121T328 185T343 251Q343 301 311 331T225 361Q185 361 153 356T91 340L97 398Q129 409 156 415T221 421Q275
421 316 401T380 344T403 261Q403 206 381 158T321 74T233 17T126 -4ZM64 368L125 643Q127 657 139 666T165 675L185 643L122 368L91 340Q85 338 78 341T67 352T64 368ZM473 647Q473 637 467 629T442 621H165V675H442Q460 675 466 667T473 647Z" />
<glyph unicode="6" horiz-adv-x="473" d="M403 669Q410 659 406 647T387 624Q357 602 320 572T245 505T177 425Q149 386 129 346T97 261T86 160L25 135Q25 192 38 248T76 358T131 454Q164 500 206 544T288 622T354 671Q368 679 382 679T403 669ZM164 0Q99 0 62
39T25 135L65 290Q86 327 117 356T189 402T283 419Q347 419 380 391T413 305Q413 257 392 204T334 105T254 29T164 0ZM162 59Q193 59 226 83T289 144T336 222T354 298Q354 332 336 346T280 360Q219 360 176 330T109 254T86 160Q86 115 106 87T162 59Z" />
<glyph unicode="7" horiz-adv-x="397" d="M203 0Q192 0 184 10T179 39L301 652L330 675Q364 675 358 640L238 31Q234 15 224 8T203 0ZM6 649Q6 659 14 667T38 675H330V621H38Q22 621 14 629T6 649Z" />
<glyph unicode="8" horiz-adv-x="434" d="M170 53Q125 53 98 87T71 165Q71 188 82 216T122 279T207 352Q252 384 291 414T360 472T406 528T423 580Q423 604 409 622T371 651T319 669T265 675Q232 675 199 666T137 639T92 592T75 525Q75 492 91 463T131 407T176
359L214 318Q234 296 252 270T281 220T292 177Q292 151 276 122T232 73T170 53ZM163 -5Q209 -5 244 12T304 57T340 116T353 177Q353 206 339 238T300 303T245 367L209 404Q191 424 174 443T146 484T135 531Q135 565 154 583T201 608T253 615Q275 615 301 611T347
599T367 580Q367 568 348 547T299 500T236 449T176 404Q109 357 74 313T26 229T13 157Q13 131 20 103T45 51T91 11T163 -5Z" />
<glyph unicode="9" horiz-adv-x="484" d="M48 346Q48 381 56 426T79 515T113 587Q136 621 165 640T228 667T296 675H407V615H394H296Q265 615 226 603T159 550Q144 527 132 489T114 413T107 352Q107 334 110 325T124 315Q134 315 151 326T193 360T248 421T314
509T390 627H436Q401 556 369 500T306 403T249 334T198 288T152 262T110 254Q81 254 65 277T48 346ZM304 0Q294 0 286 7T279 29L384 569V675H441Q452 675 457 668T460 649L339 29Q336 15 326 8T304 0Z" />
<glyph unicode=":" horiz-adv-x="291" d="M84 -13Q65 -13 53 1T40 33Q40 51 52 64T84 77Q103 77 117 64T131 33Q131 14 117 1T84 -13ZM131 279Q112 279 100 294T87 326Q87 343 99 356T131 369Q148 369 162 357T176 326Q176 308 162 294T131 279Z" />
<glyph unicode=";" horiz-adv-x="291" d="M65 -121Q54 -120 46 -111T39 -84L59 33Q62 48 72 54T94 59Q105 58 113 50T119 25L97 -93Q95 -108 85 -115T65 -121ZM131 279Q112 279 100 294T87 326Q87 343 99 356T131 369Q148 369 162 357T176 326Q176 308 162 294T131 279Z" />
<glyph unicode="&lt;" horiz-adv-x="511" d="M124 210L93 254L361 396Q378 404 388 399T402 384Q405 374 401 364T379 345L124 210ZM304 75L94 209Q81 218 80 227T86 246Q92 255 102 258T125 252L336 118Q350 109 353 98T348 76Q341 67 330 67T304 75Z" />
<glyph unicode="=" horiz-adv-x="546" d="M397 295H127Q111 295 103 304T95 324Q95 334 103 344T127 354H397Q413 354 421 344T429 324Q429 314 421 305T397 295ZM366 115H96Q80 115 72 125T64 145Q64 155 72 165T96 175H366Q382 175 390 165T398 145Q398 135
390 125T366 115Z" />
<glyph unicode="&gt;" horiz-adv-x="511" d="M366 213L97 71Q81 62 71 68T57 83Q53 93 57 103T80 122L335 257L366 213ZM334 215L122 349Q109 358 106 369T110 391Q118 400 129 400T154 392L365 258Q379 249 380 240T373 221Q367 212 358 209T334 215Z" />
<glyph unicode="?" horiz-adv-x="579" d="M151 543Q141 545 137 557T137 588Q152 673 209 725T369 777Q424 777 465 751T527 680T538 579Q525 506 492 448T398 357T245 323L249 383Q311 383 353 402T421 451T461 518T480 588Q487 632 471 660T424 703T353 718Q303
718 270 697T219 643T195 576Q191 557 177 549T151 543ZM202 -7Q183 -7 170 7T157 38Q157 58 170 73T202 88Q222 88 237 73T252 38Q252 20 237 7T202 -7ZM222 208Q212 210 205 218T198 240L220 360Q222 370 230 376T249 383L280 360L259 240Q255 221 245 214T222
208Z" />
<glyph unicode="@" horiz-adv-x="890" d="M266 0Q237 0 219 20T200 86Q200 120 208 165T231 255T265 327Q299 377 348 396T448 415H560V355H448Q417 355 378 343T311 290Q296 267 284 229T266 153T259 91Q259 77 261 66T276 55Q287 55 305 67T351 108T415 181Q451
227 481 271T536 356H577Q553 302 520 244T443 132Q418 101 390 71T332 20T266 0ZM268 -140Q203 -140 158 -120T87 -61T53 30T53 147Q61 209 81 276T137 401T225 497Q259 521 307 536T410 558T518 565Q611 565 672 536T760 444T777 283Q773 239 751 190T696 97T627
27T557 0Q525 0 510 23T494 89Q494 107 496 129T503 173L545 415H581Q595 415 599 409T601 388L561 157Q560 150 557 128T554 93Q554 86 554 78T555 63T563 57Q578 57 602 78T652 134T697 214T721 304Q733 414 679 460T516 506Q466 506 417 500T325 480T255 446Q220
420 196 382T155 301T129 218T114 146Q97 40 131 -20T264 -81Q297 -81 335 -72T413 -34Q432 -22 444 -19T463 -26Q473 -39 465 -58T422 -100Q393 -119 355 -129T268 -140Z" />
<glyph unicode="A" horiz-adv-x="569" d="M-1 0Q-14 0 -22 10T-21 38L346 743Q352 755 357 763T381 772Q398 772 405 763T409 743L391 735L330 599L39 30Q32 14 25 7T-1 0ZM182 361L208 412H409L415 361H182ZM444 0Q425 0 420 10T413 29L368 594V728L410 750L472
31Q473 18 467 9T444 0Z" />
<glyph unicode="B" horiz-adv-x="565" d="M533 567Q527 521 508 487T446 431T326 399T124 388L133 426Q240 426 305 435T406 462T455 506T474 569Q479 610 461 638T405 684T312 710T185 718L175 772Q366 772 456 722T533 567ZM489 194Q482 145 458 109T383 48T249
12T39 0L69 55Q177 55 255 67T379 111T431 201Q438 248 408 289T307 355T124 380L128 426Q222 426 293 409T410 361T477 288T489 194ZM17 37L140 740Q144 758 151 765T175 772L200 735L76 34L45 0Q30 0 22 11T17 37Z" />
<glyph unicode="C" horiz-adv-x="573" d="M202 -5Q144 -5 111 20T64 85T50 164Q50 193 53 230T62 303T72 366T78 402Q88 459 103 513T146 614T217 696T329 752T494 772Q531 772 549 771T576 769T589 763Q599 756 598 741T587 721Q581 718 574 716T549 714T493
713Q408 713 351 696T256 649T196 581T162 500T141 415Q137 392 130 349T116 256T109 163Q109 141 116 116T144 73T201 55Q256 55 311 95T436 235Q451 258 461 267T485 276Q496 276 503 270T511 252Q511 247 508 238T485 201Q412 92 343 44T202 -5Z" />
<glyph unicode="D" horiz-adv-x="594" d="M542 409Q525 277 468 186T322 48T119 0H44L56 55H119Q215 55 292 95T418 216T482 417Q494 513 465 578T374 676T220 709H168L176 772H217Q300 772 365 749T473 679T535 566T542 409ZM15 32L140 740Q143 754 150 763T176
772Q195 772 198 762T200 735L76 30Q75 21 69 11T43 0Q27 0 20 9T15 32Z" />
<glyph unicode="E" horiz-adv-x="518" d="M15 32L140 740Q143 754 150 763T176 772Q195 772 198 762T200 735L76 30Q75 21 69 11T43 0Q27 0 20 9T15 32ZM442 29Q442 18 436 9T411 0H44L53 55H411Q429 55 435 48T442 29ZM466 388Q466 378 460 370T435 361H101L110
416H435Q453 416 459 408T466 388ZM563 745Q563 735 557 727T532 718H168L176 772H532Q550 772 556 764T563 745Z" />
<glyph unicode="F" horiz-adv-x="500" d="M15 32L140 740Q143 754 150 763T176 772Q195 772 198 762T200 735L76 30Q75 21 69 11T43 0Q27 0 20 9T15 32ZM461 388Q461 378 455 370T430 361H110L119 416H430Q448 416 454 408T461 388ZM550 745Q550 735 544 727T519
718H168L176 772H519Q537 772 543 764T550 745Z" />
<glyph unicode="G" horiz-adv-x="598" d="M159 -5Q119 -5 96 20T61 85T50 166Q50 194 53 230T62 303T72 366T78 402Q88 459 104 513T149 614T222 696T337 752T503 772H573Q584 772 591 764T598 745Q598 733 590 726T568 718H501Q417 718 358 701T261 653T200 586T165
509T144 432Q138 400 130 351T115 251T109 160Q109 133 113 108T130 67T163 50Q188 50 216 69T273 119T328 185T376 251T411 303Q437 342 452 365T476 398T494 412T512 416L498 327Q457 264 415 205T329 98T244 23T159 -5ZM437 0Q419 1 415 11T412 32L474 384Q477
401 486 408T513 416Q528 416 532 408T535 384L473 32Q471 22 465 11T437 0Z" />
<glyph unicode="H" horiz-adv-x="614" d="M43 0Q27 0 20 9T15 32L140 740Q143 754 151 763T176 772Q191 772 196 762T200 735L76 30Q75 21 69 11T43 0ZM109 361L119 416H516L506 361H109ZM442 0Q422 0 418 11T415 32L539 746Q541 755 548 763T571 772Q589 772
595 763T599 738L474 26Q473 18 466 9T442 0Z" />
<glyph unicode="I" horiz-adv-x="317" d="M71 30L195 737H255L132 30H71ZM15 27Q15 38 22 46T46 55H152Q170 55 176 47T183 27Q183 17 177 9T152 0H46Q29 0 22 8T15 27ZM144 746Q144 757 150 764T175 772H280Q298 772 304 765T311 746Q311 736 305 727T280 718H175Q157
718 151 727T144 746Z" />
<glyph unicode="J" horiz-adv-x="494" d="M-53 29Q-53 41 -44 48T-24 55Q-13 55 3 55T37 55T71 56T99 58Q153 64 183 95T231 184T263 322L336 738H397L320 305Q302 203 277 140T211 44T103 4Q92 3 69 2T21 1T-24 0Q-34 0 -43 8T-53 29ZM179 745Q179 756 186 764T210
772H524Q542 772 548 764T555 745Q555 735 549 727T524 718H210Q193 718 186 726T179 745Z" />
<glyph unicode="K" horiz-adv-x="535" d="M568 746Q568 738 562 729T544 712L203 410L140 413V425L194 469L506 754Q514 762 524 767T543 772Q556 772 562 764T568 746ZM446 0Q434 0 426 7T411 23L183 350L141 410L140 423L207 421L465 50Q471 41 473 34T473 20Q470
10 462 5T446 0ZM44 0Q28 0 21 12T17 38L141 740Q144 754 151 763T177 772Q194 772 198 762T201 735L77 37Q76 25 70 13T44 0Z" />
<glyph unicode="L" horiz-adv-x="470" d="M15 32L140 740Q143 754 150 763T176 772Q194 772 198 762T200 735L75 30Q73 21 68 11T43 0Q27 0 20 9T15 32ZM426 29Q426 18 419 9T396 0H43V55H396Q412 55 419 48T426 29Z" />
<glyph unicode="M" horiz-adv-x="979" d="M1 0Q-6 0 -12 3T-21 12Q-25 17 -24 26T-17 45L335 743Q341 755 347 763T369 772V704L330 606L39 30Q32 14 22 7T1 0ZM392 42L352 601V694L368 772Q385 772 391 764T399 744L438 183L442 72L424 0Q405 0 399 11T392 42ZM467
38Q460 25 451 13T424 0L430 72L476 177L760 741Q765 751 772 761T792 772L798 699L752 607L467 38ZM849 0Q830 0 825 10T817 33L782 606L778 722L791 772Q817 772 823 763T830 739L877 36Q878 19 871 10T849 0Z" />
<glyph unicode="N" horiz-adv-x="614" d="M413 21L197 614L176 701V772Q192 772 200 764T211 748L417 177L440 80L446 0Q433 0 425 6T413 21ZM43 0Q27 0 20 9T15 32L140 740Q143 754 150 763T176 772L190 727L178 613L76 33Q75 23 69 12T43 0ZM576 772Q593 772
597 762T599 735L475 30Q474 21 469 11T444 0L432 57L442 177L541 740Q543 754 550 763T576 772Z" />
<glyph unicode="O" horiz-adv-x="590" d="M194 -13Q154 -13 126 14T80 90T56 202T56 339T81 487Q103 578 139 643T229 743T354 779Q417 780 459 760T526 703T560 620T564 522Q558 453 536 379T479 234T399 109T302 20T194 -13ZM198 42Q238 42 279 71T358 151T428
263T480 390T505 514Q508 559 503 597T482 663T433 707T350 722Q293 721 252 691T184 605T138 465Q124 405 119 345T115 230T128 133T155 67T198 42Z" />
<glyph unicode="P" horiz-adv-x="555" d="M569 565Q561 504 525 465T429 403T287 371T108 361L116 416Q200 416 269 424T390 450T472 498T508 571Q516 625 483 657T373 704T170 718L176 772Q303 773 394 754T532 689T569 565ZM43 -5Q27 -5 20 7T15 32L140 740Q143
754 150 763T176 772Q195 772 198 762T200 735L75 30Q73 21 68 8T43 -5Z" />
<glyph unicode="Q" horiz-adv-x="590" d="M396 -53Q384 -60 371 -54T349 -34L226 146Q216 160 215 171T225 190Q237 201 251 197T274 179L403 -7Q410 -17 409 -31T396 -53ZM194 -7Q154 -7 125 20T78 96T54 207T53 343T77 491Q99 582 137 646T230 744T361 779Q422
780 463 759T529 701T563 617T567 518Q561 449 539 376T481 234T400 111T303 25T194 -7ZM198 48Q238 48 279 77T359 154T430 263T482 388T507 511Q511 556 506 594T484 662T437 707T358 722Q297 721 254 692T182 607T134 468Q121 408 116 348T113 234T126 138T155
72T198 48Z" />
<glyph unicode="R" horiz-adv-x="555" d="M552 565Q543 503 508 464T415 404T282 374T118 365L126 416Q233 416 312 432T438 483T493 571Q501 623 465 655T356 703T176 718V772Q295 772 383 753T518 689T552 565ZM444 0Q437 0 430 5T415 21L173 312L134 377L185
391L467 51Q472 44 473 35T472 18Q469 11 461 6T444 0ZM43 0Q27 0 21 12T17 39L140 740Q143 754 150 763T176 772Q195 772 198 762T200 735L77 37Q75 24 69 12T43 0Z" />
<glyph unicode="S" horiz-adv-x="469" d="M93 0H-2Q-3 0 -10 1T-24 7T-31 26Q-31 40 -23 47T-2 55H100Q162 55 209 67T288 101T336 152T352 216Q352 273 317 315T228 393L191 418Q153 444 126 472T85 530T71 590Q71 646 105 687T201 750T349 772H459Q461 772 468
771T481 765T487 746Q487 733 479 726T460 718H358Q295 718 244 706T163 667T133 594Q133 558 159 526T246 455L282 431Q319 406 348 375T395 305T413 217Q413 182 400 150T360 90T294 42T205 11T93 0Z" />
<glyph unicode="T" horiz-adv-x="529" d="M198 0Q182 0 176 9T171 32L293 738H354L230 30Q229 21 224 11T198 0ZM44 745Q44 756 50 764T75 772H579Q596 772 602 764T609 745Q609 735 603 727T579 718H75Q57 718 51 726T44 745Z" />
<glyph unicode="U" horiz-adv-x="607" d="M120 -5Q68 -5 44 48T40 217L134 737Q137 751 146 761T170 772Q184 771 190 762T195 739L100 214Q93 176 90 138T94 75T129 50Q157 50 187 72T247 129T304 204T354 282T393 346Q409 372 426 400T459 462T489 533T511 618H551L519
453L482 402Q445 329 404 257T316 126T221 31T120 -5ZM435 -1Q422 -1 414 7T407 32L532 744Q534 755 541 763T564 772Q582 772 588 764T593 741L467 26Q464 13 455 6T435 -1Z" />
<glyph unicode="V" horiz-adv-x="523" d="M209 30Q203 17 197 9T173 0L163 46L213 170L497 744Q505 761 518 768T543 771Q554 766 557 754T551 721L209 30ZM141 39L102 741Q101 755 107 763T129 772Q149 772 155 763T162 744L192 175L194 44L173 0Q157 0 150 11T141 39Z" />
<glyph unicode="W" horiz-adv-x="927" d="M615 30Q609 17 602 9T577 0L562 37L625 184L902 745Q910 761 922 768T947 770Q954 767 958 761T963 744T956 721L615 30ZM141 34L102 741Q101 755 107 763T129 772Q149 772 155 763T162 744L192 179L191 44L175 0Q159
0 151 10T141 34ZM211 31Q206 21 199 11T175 0L158 48L216 175L495 744Q500 754 508 763T533 772L546 735L494 606L211 31ZM549 26L516 607L517 733L533 772Q553 772 559 764T567 744L600 187L595 36L577 0Q563 0 557 7T549 26Z" />
<glyph unicode="X" horiz-adv-x="523" d="M-24 7Q-31 13 -32 24T-26 45L242 412L259 422L503 757Q513 771 527 772T550 766Q558 760 559 749T550 723L285 359L267 347L25 13Q19 4 10 1T-8 0T-24 7ZM406 2Q396 -3 382 3T359 33L100 728Q93 745 97 756T112 771Q123
776 137 772T157 750L419 52Q427 31 422 19T406 2Z" />
<glyph unicode="Y" horiz-adv-x="522" d="M546 767Q557 760 558 748T550 723L272 346L241 396L303 487L501 757Q509 768 522 771T546 767ZM204 0Q188 0 181 9T177 32L245 416H305L238 30Q236 21 230 11T204 0ZM119 770Q130 775 143 770T162 748L260 488L282 415L244
365L106 728Q101 742 104 754T119 770Z" />
<glyph unicode="Z" horiz-adv-x="544" d="M-1 48L513 751Q521 762 528 767T545 772Q556 772 563 764T572 745T565 722L55 24Q46 12 39 6T18 0Q6 0 0 8T-7 28T-1 48ZM448 27Q448 17 442 9T417 0H18V53L110 55H417Q435 55 441 47T448 27ZM116 745Q116 756 123 764T147
772H545V719L457 718H147Q130 718 123 726T116 745Z" />
<glyph unicode="[" horiz-adv-x="398" d="M228 734L42 -324Q40 -333 36 -344T11 -356Q-7 -356 -14 -347T-19 -324L169 740Q171 754 179 763T207 772Q226 772 228 762T228 734ZM7 -356L14 -303H179Q196 -303 203 -311T210 -329Q210 -339 203 -347T179 -356H7ZM198
719L204 772H368Q385 772 393 764T400 745Q399 735 391 727T368 719H198Z" />
<glyph unicode="\" horiz-adv-x="457" d="M126 745L431 37Q439 21 430 11T406 0Q396 0 387 5T372 24L67 732Q59 751 68 761T91 772Q102 772 111 766T126 745Z" />
<glyph unicode="]" horiz-adv-x="398" d="M352 740L164 -324Q161 -338 154 -347T126 -356Q107 -356 105 -345T105 -318L291 741Q293 750 298 761T322 772Q340 772 347 763T352 740ZM129 -356H-34Q-51 -356 -59 -348T-67 -329Q-67 -319 -59 -311T-34 -303H138L129
-356ZM317 719H154Q138 719 130 727T122 745Q122 755 130 763T154 772H327L317 719Z" />
<glyph unicode="^" horiz-adv-x="488" d="M126 349Q112 338 101 340T82 350Q75 358 75 369T86 390L244 522Q256 533 269 532T290 522L400 391Q409 381 408 369T397 348Q389 341 377 341T355 352L239 491L289 486L126 349Z" />
<glyph unicode="_" horiz-adv-x="620" d="M403 -91H59Q44 -91 36 -83T27 -65Q27 -54 35 -46T59 -38H403Q419 -38 427 -46T435 -64Q435 -74 427 -82T403 -91Z" />
<glyph unicode="`" horiz-adv-x="353" d="M287 664Q280 660 270 663T251 680L187 789Q179 802 181 812T191 827T208 833Q218 833 228 828T244 811L293 697Q305 673 287 664Z" />
<glyph unicode="a" horiz-adv-x="469" d="M51 -5Q22 -5 5 18T-12 87Q-12 122 -2 167T25 256T61 328Q95 379 144 397T244 416H348V356H244Q213 356 174 344T107 291Q92 268 79 230T57 154T48 93Q48 79 50 68T64 56Q81 56 115 85T203 182Q240 229 269 272T324 356H361Q350
318 332 279T292 206T253 150Q218 105 185 70T119 15T51 -5ZM301 0Q281 0 277 10T274 27L324 265V416H365Q385 416 393 406T397 375L335 27Q334 23 329 12T301 0Z" />
<glyph unicode="b" horiz-adv-x="456" d="M150 0H38V55H150Q205 55 241 80T299 145T330 230T340 317Q340 337 337 348T317 360Q305 360 282 342T230 291T170 220T111 138T62 55H38V102Q56 139 82 182T138 268T201 344T266 400T329 421Q361 421 379 398T398 329Q398
273 386 215T345 109T269 30T150 0ZM7 0Q-3 0 -8 8T-12 26L114 738Q118 756 128 764T151 772Q162 772 169 764T173 738L62 115V0H7Z" />
<glyph unicode="c" horiz-adv-x="358" d="M80 -5Q37 -5 14 20T-10 102Q-10 129 -2 171T22 257T56 328Q91 380 155 405T308 411Q323 407 328 400T334 379Q334 371 327 360T308 352Q227 372 181 355T103 291Q91 274 82 248T65 195T54 145T50 112Q50 82 59 69T89
56Q112 56 135 69T179 103T215 144T238 179Q243 189 253 195T277 196Q287 192 292 182T292 160Q275 122 241 84T165 21T80 -5Z" />
<glyph unicode="d" horiz-adv-x="530" d="M348 0Q322 4 309 28T294 89T301 173L402 740Q404 755 415 763T438 772Q450 772 457 765T462 740L359 157Q356 139 354 115T354 73T364 55Q376 55 387 65T412 97L419 109Q428 124 436 131T454 139Q464 139 471 132T479
112Q479 105 471 91T453 59Q434 29 410 12T348 0ZM51 -5Q22 -5 5 17T-12 86Q-12 120 -3 165T21 253T56 326Q90 376 138 396T236 416H362L348 355H236Q206 355 168 342T102 289Q87 266 75 228T55 152T48 91Q48 77 50 66T64 55Q81 55 117 87T208 190Q242 233 269
273T320 356H364Q348 318 329 279T288 203T241 134Q213 99 182 67T119 15T51 -5Z" />
<glyph unicode="e" horiz-adv-x="361" d="M99 -5Q66 -5 40 8T1 51T-8 127Q-5 163 6 201T33 276T67 337Q93 377 133 397T216 417Q239 417 261 411T299 392T314 359Q314 337 299 310T251 255T169 200Q146 188 116 173T60 145T25 128L37 188Q50 195 68 204T107 225T151
252Q207 287 229 307T252 342Q252 350 241 355T214 360Q192 360 165 350T115 308Q98 283 84 248T61 178T50 116Q49 86 60 70T100 53Q127 53 149 65T187 92T209 115Q226 138 239 140T263 134Q271 128 272 115T254 76Q248 68 228 48T175 12T99 -5Z" />
<glyph unicode="f" horiz-adv-x="273" d="M63 0Q47 0 40 11T33 33L138 626Q148 679 169 711T219 757T278 772H378Q393 772 400 762T407 743Q407 733 400 723T378 713H278Q259 713 242 699T212 662T196 615L94 32Q92 22 85 11T63 0ZM-18 390Q-18 401 -12 408T13
416H244Q261 416 267 409T274 390Q274 379 268 371T244 362H13Q-5 362 -11 370T-18 390Z" />
<glyph unicode="g" horiz-adv-x="476" d="M-69 -327Q-69 -314 -58 -305T-29 -296Q-22 -296 -5 -295T34 -293T76 -289T106 -286Q147 -281 172 -264T214 -220Q240 -178 249 -119T270 1L315 235L353 416H371Q388 416 395 406T398 374L331 1Q318 -74 306 -139T264
-252Q242 -289 207 -313T122 -345Q107 -347 86 -348T43 -351T2 -354T-24 -355Q-46 -355 -57 -348T-69 -327ZM-11 87Q-11 122 -3 167T21 256T55 328Q78 362 107 381T170 408T238 416H371V356H238Q207 356 168 344T101 291Q86 268 74 230T56 154T49 93Q49 74 53 65T65
56Q77 56 96 69T143 111T209 189Q241 230 270 273T326 358H361Q338 303 308 241T242 134Q213 97 183 65T121 14T52 -5Q23 -5 6 18T-11 87Z" />
<glyph unicode="h" horiz-adv-x="469" d="M11 1Q-5 5 -9 14T-10 43L113 740Q115 757 126 764T149 772Q160 772 168 765T173 740L45 18Q40 8 33 3T11 1ZM316 0Q297 0 293 8T290 27L336 278Q339 294 341 313T339 347T320 362Q302 362 276 340T220 279T159 196T98
104T45 18L34 116Q55 147 80 187T135 268T197 343T262 399T329 421Q363 421 380 400T400 345T397 278L350 27Q349 23 344 12T316 0Z" />
<glyph unicode="i" horiz-adv-x="206" d="M32 0Q21 0 12 8T6 33L68 384Q70 400 82 408T106 416Q117 416 125 407T131 380L69 33Q66 17 55 9T32 0ZM128 507Q112 507 101 520T89 550Q89 566 100 579T128 592Q145 592 157 580T169 550Q169 533 157 520T128 507Z" />
<glyph unicode="j" horiz-adv-x="217" d="M-314 -329Q-314 -316 -302 -307T-267 -297Q-259 -297 -246 -297T-218 -296T-189 -294T-166 -292Q-123 -287 -98 -269T-56 -225Q-31 -183 -20 -124T1 -4L67 380Q70 399 81 407T102 416Q115 416 124 406T129 377L62 -4Q53
-53 45 -99T25 -186T-7 -258Q-29 -293 -64 -317T-147 -349Q-162 -351 -179 -352T-214 -354T-245 -355T-268 -356Q-290 -356 -302 -349T-314 -329ZM129 506Q113 506 102 519T90 550Q90 569 101 581T129 593Q146 593 158 581T170 550Q170 532 158 519T129 506Z" />
<glyph unicode="k" horiz-adv-x="425" d="M13 0Q2 0 -5 8T-11 31L114 739Q117 754 125 763T146 772Q160 772 169 765T175 738L50 31Q47 14 37 7T13 0ZM312 -1Q301 -1 292 6T277 21L171 172Q157 193 165 206T189 228Q233 253 257 270T290 303T299 339Q299 347 294
354T278 361Q268 361 239 343T171 286T94 188T27 46L58 223Q96 281 137 325T219 395T296 421Q320 421 334 411T354 384T360 348Q360 304 332 267T234 191L333 49Q339 40 340 33T340 19Q337 9 329 4T312 -1Z" />
<glyph unicode="l" horiz-adv-x="198" d="M36 0Q23 0 13 8T6 32L132 747Q134 761 143 766T163 772Q175 772 185 764T192 741L67 26Q64 13 55 7T36 0Z" />
<glyph unicode="m" horiz-adv-x="739" d="M14 0Q-5 3 -8 13T-8 43L51 384Q53 395 57 402T69 412T88 416Q103 416 108 408T112 384L43 13Q39 8 34 4T14 0ZM299 0Q280 0 278 12T279 43L320 277Q323 293 325 312T323 346T303 361Q290 361 270 342T223 288T166 210T105
115T43 13L50 129Q83 187 117 239T184 331T249 395T311 419Q348 419 364 398T382 344T378 277L327 17Q323 10 318 5T299 0ZM586 0Q567 0 563 11T562 36L606 278Q609 294 611 313T609 347T589 362Q573 362 550 342T500 286T442 206T383 113T327 17L333 129Q366 186
399 238T466 331T533 397T598 421Q634 421 651 400T670 345T666 278L620 27Q619 17 612 9T586 0Z" />
<glyph unicode="n" horiz-adv-x="470" d="M317 0Q298 0 295 11T293 36L337 278Q340 294 342 313T340 347T321 362Q303 362 277 340T221 279T159 195T98 102T43 13L50 135Q85 192 120 243T190 335T260 398T330 421Q366 421 382 400T402 345T398 278L352 27Q350
17 343 9T317 0ZM14 0Q-5 3 -8 13T-8 43L51 384Q53 395 57 402T68 412T88 416Q103 416 108 408T112 384L43 13Q38 6 33 3T14 0Z" />
<glyph unicode="o" horiz-adv-x="393" d="M90 -8Q63 -8 41 7T4 51T-10 126Q-10 180 5 232T49 325T116 392T201 417Q240 417 271 402T319 360T337 298Q337 260 323 218T284 136T227 64T160 12T90 -8ZM105 53Q127 53 156 76T212 135T258 212T276 291Q276 319 259
339T206 360Q179 360 151 341T100 290T62 216T48 131Q48 88 63 71T105 53Z" />
<glyph unicode="p" horiz-adv-x="456" d="M-49 -356Q-60 -356 -68 -349T-75 -328L52 388Q55 402 65 409T87 416Q98 416 106 409T113 388L-14 -329Q-17 -342 -27 -349T-49 -356ZM399 329Q399 258 382 198T332 94T252 25T144 0H26L34 58H144Q197 58 241 86T313 173T340
323Q340 337 338 348T318 360Q305 360 280 340T223 285T160 211T103 130T64 58H21Q40 109 67 161T128 259T196 342T265 400T329 421Q364 421 381 398T399 329Z" />
<glyph unicode="q" horiz-adv-x="469" d="M-11 87Q-11 122 -3 167T21 256T55 328Q89 379 138 397T238 416H349V356H238Q207 356 168 344T101 291Q86 268 74 230T56 154T49 93Q49 79 51 68T65 56Q82 56 116 85T204 182Q241 229 271 272T326 356H373Q356 322 335
282T290 204T242 135Q212 98 182 66T119 15T52 -5Q23 -5 6 18T-11 87ZM402 -192Q409 -200 407 -214T391 -239L270 -339L249 -279L353 -195Q367 -183 381 -183T402 -192ZM235 -356Q225 -356 218 -348T213 -324L346 416H369Q389 416 395 407T398 378L270 -339Q262
-345 253 -350T235 -356Z" />
<glyph unicode="r" horiz-adv-x="371" d="M331 283Q318 282 309 290T299 310Q299 326 294 342T277 358Q264 358 231 332T148 243T31 65L51 191Q105 279 147 329T223 400T286 421Q308 421 324 406T350 367T360 315Q360 305 354 295T331 283ZM14 0Q3 0 -5 8T-11
32L51 384Q54 400 64 408T86 416Q97 416 105 407T110 380L50 32Q47 16 37 8T14 0Z" />
<glyph unicode="s" horiz-adv-x="360" d="M119 0H0Q-13 0 -24 6T-36 30Q-36 47 -25 53T1 59H131Q173 59 190 73T208 106Q208 121 198 132T175 153L87 213Q61 230 41 254T21 316Q21 344 36 366T81 402T154 416H255Q281 416 294 412T307 386Q307 371 296 364T273
356H150Q109 356 95 345T81 316Q81 303 93 291T120 268L214 203Q239 187 255 165T272 108Q272 82 255 57T205 16T119 0Z" />
<glyph unicode="t" horiz-adv-x="286" d="M68 0Q56 0 47 7T40 29L151 650Q153 662 161 668T179 675Q192 675 202 667T209 642L102 27Q100 13 90 7T68 0ZM-10 390Q-10 401 -3 408T21 416H263Q280 416 286 409T293 390Q293 379 287 371T263 362H21Q4 362 -3 370T-10 390Z" />
<glyph unicode="u" horiz-adv-x="485" d="M70 -5Q36 -5 20 16T2 71T5 138L48 383Q50 400 61 408T84 416Q95 416 103 407T108 381L65 138Q62 122 61 102T63 68T82 53Q100 53 126 75T182 135T244 219T305 312T360 400L366 309Q347 277 321 236T265 152T202 75T136
17T70 -5ZM316 -1Q303 -1 295 9T290 37L360 400Q365 408 371 412T391 416Q406 416 410 408T412 384L350 37Q348 23 343 15T330 3T316 -1Z" />
<glyph unicode="v" horiz-adv-x="465" d="M63 -5Q35 -5 20 10T1 58T7 139L51 384Q54 400 65 408T87 416Q98 416 106 407T112 380L67 139Q58 92 61 74T81 55Q98 55 128 83T196 157T268 260T330 374Q339 394 348 405T373 416Q383 416 388 412T394 405L397 383Q364
308 323 239T237 114T148 27T63 -5ZM463 255Q453 247 438 251T412 272L350 361L394 405L461 309Q472 292 473 278T463 255Z" />
<glyph unicode="w" horiz-adv-x="752" d="M349 -5Q307 -5 295 29T292 121L329 321L374 416Q386 416 394 407T399 380L350 121Q343 82 346 69T364 56Q382 56 409 79T466 139T525 219T579 303T618 374Q628 395 636 405T661 416Q669 416 672 414T680 407L669 342Q656
319 633 278T578 188T509 95T432 23T349 -5ZM62 -5Q21 -5 8 29T7 139L51 384Q54 400 65 408T87 416Q98 416 106 407T112 380L67 139Q59 96 61 76T77 55Q95 55 127 83T196 157T269 260T331 373Q340 393 349 404T374 416L361 317Q347 289 323 248T268 163T203 81T132
19T62 -5ZM751 255Q741 247 726 251T700 272L636 364L680 407L748 309Q760 292 761 278T751 255Z" />
<glyph unicode="x" horiz-adv-x="388" d="M-45 10Q-53 18 -53 30T-39 55L137 229L147 234L318 405Q331 418 344 418T366 409Q373 402 373 390T361 366L183 191L169 179L0 12Q-13 -1 -25 0T-45 10ZM299 5Q289 -4 277 -1T255 15L138 188L18 362Q8 378 8 388T20 409Q31
418 43 415T65 398L183 227L303 51Q312 38 312 27T299 5Z" />
<glyph unicode="y" horiz-adv-x="489" d="M-77 -329Q-77 -316 -66 -307T-31 -297Q-22 -297 -2 -297T41 -296T85 -294T115 -292Q158 -287 184 -269T226 -225Q251 -183 261 -124T283 -4L361 400Q366 408 372 412T390 416Q398 416 407 408T413 384L343 -4Q330 -78
318 -144T274 -258Q252 -293 217 -317T134 -349Q119 -351 95 -352T45 -354T-3 -355T-32 -356Q-54 -356 -65 -349T-77 -329ZM71 -5Q37 -5 21 16T3 71T6 138L49 383Q51 400 62 408T86 416Q97 416 104 407T109 381L67 138Q64 122 62 102T64 68T83 53Q101 53 127 75T183
136T245 220T307 313T361 400L367 310Q348 277 323 236T267 152T203 75T137 17T71 -5Z" />
<glyph unicode="z" horiz-adv-x="407" d="M-42 29Q-42 45 -29 58L334 405L353 416Q365 416 374 409T384 388Q384 380 381 376T373 366L7 12L-13 0Q-25 0 -33 8T-42 29ZM317 30Q317 19 311 10T286 0H-13L11 59H286Q304 59 310 50T317 30ZM25 386Q25 397 31 406T56
416H353L327 356H56Q38 356 32 366T25 386Z" />
<glyph unicode="{" horiz-adv-x="416" d="M51 244Q53 258 65 266T93 285Q123 307 142 329T168 377Q174 399 174 434T174 511T178 589T198 653Q216 683 248 706T315 744T373 767Q393 774 412 768T432 748Q434 736 423 725T396 708Q356 698 314 682T252 634Q237
610 233 575T230 501T233 428T229 369Q219 330 200 300T131 234Q164 187 170 151T170 75Q166 51 153 18T124 -52T98 -124T88 -188Q90 -220 102 -240T134 -275T176 -307Q188 -315 191 -330T184 -354Q174 -363 160 -362T132 -349Q112 -333 89 -309T48 -254T27 -190Q26
-161 36 -124T61 -49T90 24T108 84Q115 133 76 192Q66 206 58 217T51 244Z" />
<glyph unicode="|" horiz-adv-x="274" d="M239 794L42 -327Q40 -336 35 -346T10 -356Q-6 -356 -14 -347T-19 -324L179 798Q182 815 193 823T215 832Q226 832 234 823T239 794Z" />
<glyph unicode="}" horiz-adv-x="409" d="M293 203Q292 189 280 181T252 162Q221 140 203 118T177 70Q171 48 171 7T169 -83T162 -174T141 -244Q124 -273 92 -296T25 -334T-33 -358Q-54 -364 -72 -358T-93 -339Q-94 -326 -83 -314T-56 -298Q-15 -288 27 -272T88
-225Q103 -200 107 -160T112 -73T111 13T115 77Q125 116 144 147T214 213Q181 260 175 296T175 372Q178 396 190 423T218 480T243 540T252 598Q250 630 238 650T206 685T164 716Q151 725 149 740T156 764Q166 773 180 772T208 759Q228 743 251 719T292 665T312
600Q314 571 305 540T281 477T254 417T236 362Q233 337 241 310T268 254Q279 240 287 229T293 203Z" />
<glyph unicode="~" horiz-adv-x="546" d="M297 188Q281 188 260 199T217 221T176 233Q156 233 142 225T114 210Q104 206 97 210T85 224T81 240Q81 250 89 255T113 267Q129 274 145 280T185 286Q204 286 225 275T268 252T307 241Q333 241 348 250T380 267Q390 272
398 268T410 255T415 240Q415 230 408 224T384 210Q365 203 346 196T297 188Z" />
<glyph unicode="&#xa0;" horiz-adv-x="278" />
<glyph unicode="&#xa1;" horiz-adv-x="292" d="M195 504L107 25Q104 12 94 6T72 0Q61 -1 53 5T46 25L134 504Q137 521 148 529T170 536Q181 535 189 527T195 504ZM208 695Q192 695 180 706T168 733Q168 748 180 760T208 772Q224 772 234 760T245 733Q245 719 235
707T208 695Z" />
<glyph unicode="&#xa2;" horiz-adv-x="340" d="M89 -187Q73 -187 65 -177T58 -154L187 538Q189 555 199 563T220 571Q231 571 240 562T246 533L119 -157Q117 -166 113 -176T89 -187ZM80 -5Q37 -5 14 20T-10 102Q-10 129 -2 171T22 257T56 328Q91 380 155 405T308
411Q323 407 328 400T334 379Q334 371 327 360T308 352Q227 372 181 355T103 291Q91 274 82 248T65 195T54 145T50 112Q50 82 59 69T89 56Q112 56 135 69T179 103T215 144T238 179Q243 189 253 195T277 196Q287 192 292 182T292 160Q275 122 241 84T165 21T80 -5Z"
/>
<glyph unicode="&#xa3;" horiz-adv-x="501" d="M51 390Q52 401 58 408T82 416H335Q353 416 360 409T366 390Q365 379 359 371T335 362H82Q64 362 57 370T51 390ZM2 0Q-13 0 -19 6T-24 22T-13 45Q-11 48 9 69T58 124T114 197T159 277Q173 307 176 345T177 415T164
459Q137 496 119 529T94 591T88 645Q90 678 108 705T163 751Q183 762 206 767T253 772Q309 772 365 750T456 695Q474 678 473 666T463 645Q456 637 442 637T406 655Q378 681 333 696T246 712Q208 712 183 699Q155 683 153 651Q151 617 172 573T220 489Q233 470
238 441T243 378T236 312T217 253Q195 205 163 159T98 73T37 0H2ZM7 0L32 59H329Q347 59 353 50T360 30Q360 19 354 10T329 0H7Z" />
<glyph unicode="&#xa5;" horiz-adv-x="580" d="M402 354H132Q116 354 108 362T97 381Q96 391 104 399T128 407H398Q414 407 422 399T431 381Q432 371 425 363T402 354ZM383 222H113Q97 222 89 230T80 249Q79 260 86 268T109 276H379Q395 276 403 268T413 249Q413
239 406 231T383 222ZM546 767Q557 760 558 748T550 723L272 346L241 396L303 487L501 757Q509 768 522 771T546 767ZM204 0Q188 0 181 9T177 32L245 416H305L238 30Q236 21 230 11T204 0ZM119 770Q130 775 143 770T162 748L260 488L282 415L244 365L106 728Q101
742 104 754T119 770Z" />
<glyph unicode="&#xa6;" horiz-adv-x="274" d="M127 160L42 -327Q40 -336 35 -346T10 -356Q-6 -356 -14 -347T-19 -324L67 160Q69 176 80 184T103 192Q114 192 122 184T127 160ZM239 794L154 316Q152 301 141 293T119 284Q107 283 99 292T94 316L179 798Q182 815
193 823T215 832Q226 832 234 823T239 794Z" />
<glyph unicode="&#xa9;" horiz-adv-x="1086" d="M512 -95Q416 -95 333 -59T185 41T85 188T49 368Q49 464 85 548T185 696T332 796T512 832Q608 832 691 796T839 696T939 548T975 368Q975 272 939 189T839 41T692 -59T512 -95ZM512 -36Q595 -36 668 -5T797 83T884
212T916 369Q916 452 885 525T797 653T668 740T512 772Q429 772 356 741T227 654T140 525T108 369Q108 285 139 212T226 83T355 -4T512 -36ZM428 143Q389 143 369 160T341 202T334 253Q334 276 337 305T344 359T349 391Q356 432 368 471T405 543T476 594T594 613Q623
613 633 612T650 606Q658 601 659 591T658 571T647 557Q640 553 631 553T594 554Q538 554 504 541T452 504T425 451T410 391Q407 374 403 348T396 296T393 252Q393 233 398 218T426 202Q455 202 481 224T546 302Q558 318 565 324T586 330Q597 330 604 322T611 303Q611
299 609 292T594 265Q551 201 512 172T428 143Z" />
<glyph unicode="&#xae;" horiz-adv-x="684" d="M311 485Q300 485 295 491T290 506L331 737Q333 745 337 748T349 752Q358 752 370 748T380 733L340 504Q339 497 332 491T311 485ZM438 485Q434 485 427 487T417 494L322 632L385 628L461 518Q465 505 459 497Q455
493 450 489T438 485ZM337 612L342 659Q369 659 390 660T425 665T441 678Q443 692 416 697T345 703L349 752Q397 752 429 745T477 721T488 677Q484 651 469 637T433 618T387 613T337 612ZM391 343Q334 343 285 364T198 423T139 510T118 617Q118 673 139 722T197
809T284 868T391 890Q448 890 497 869T584 810T643 723T664 617Q664 560 643 511T585 424T498 365T391 343ZM391 400Q451 400 499 429T577 508T606 617Q606 676 577 725T500 803T391 832Q331 832 282 803T204 725T175 617Q175 557 204 508T282 430T391 400Z" />
<glyph unicode="&#xb0;" horiz-adv-x="368" d="M194 514Q178 514 166 521T148 544T141 589Q141 631 153 665T175 718Q188 741 211 759T267 778Q308 778 328 760T348 707Q348 679 335 646T300 582T250 533T194 514ZM202 561Q216 561 233 575T265 612T291 658T301
699Q301 717 293 724T265 731Q250 731 240 724T219 699Q206 673 197 648T188 598Q188 582 190 572T202 561Z" />
<glyph unicode="&#xb1;" horiz-adv-x="511" d="M289 410L255 225Q253 211 245 204T228 197Q218 197 210 206T203 233L236 418Q239 432 247 439T264 446Q275 446 283 437T289 410ZM330 115H96Q80 115 72 124T64 143Q64 153 72 161T96 169H330Q347 169 354 161T362
143Q362 132 355 124T330 115ZM361 295H127Q111 295 103 303T95 322Q95 332 103 340T127 348H361Q378 348 385 340T393 322Q393 312 386 304T361 295Z" />
<glyph unicode="&#xb7;" horiz-adv-x="302" d="M120 164Q101 164 89 179T76 210Q76 228 88 241T120 254Q138 254 151 242T165 210Q165 193 152 179T120 164Z" />
<glyph unicode="&#xbf;" horiz-adv-x="580" d="M361 454L355 394Q297 394 258 377T194 333T155 276T135 218T125 175Q119 139 135 113T183 73T254 59Q305 59 337 80T388 134T412 201Q416 221 430 229T456 234Q466 231 470 220T470 189Q455 104 398 52T238 0Q184
0 142 25T78 92T65 179Q80 262 114 324T208 420T361 454ZM409 537L387 417Q386 407 377 401T358 394Q340 394 333 402T327 417L348 537Q352 557 362 564T385 569Q396 566 403 558T409 537ZM415 695Q398 695 386 707T374 735Q374 749 386 760T415 772Q430 772 440
761T451 735Q451 719 441 707T415 695Z" />
<glyph unicode="&#xd7;" horiz-adv-x="546" d="M425 345L112 80Q98 68 85 70T64 80Q57 88 57 99T67 120L383 386Q395 397 408 396T429 386Q437 379 437 368T425 345ZM159 381L381 121Q391 110 389 98T378 78Q370 71 358 71T336 82L112 346Q103 357 105 369T115
388Q123 396 135 396T159 381Z" />
<glyph unicode="&#xf7;" horiz-adv-x="545" d="M381 208H112Q96 208 88 216T80 234T88 253T112 261H381Q398 261 405 253T413 235T405 216T381 208ZM222 68Q206 68 196 80T185 107Q185 121 195 133T222 145Q237 145 250 134T263 107Q263 92 251 80T222 68ZM268
324Q252 324 241 337T230 364Q230 378 241 390T268 402Q284 402 296 391T308 364Q308 348 296 336T268 324Z" />
<glyph unicode="&#x2013;" horiz-adv-x="546" d="M383 208H113Q97 208 89 217T81 236Q81 246 89 253T113 261H383Q399 261 407 254T415 236Q415 226 407 217T383 208Z" />
<glyph unicode="&#x2014;" horiz-adv-x="668" d="M499 208H115Q99 208 90 217T80 236Q80 245 88 253T115 261H499Q518 261 527 253T536 236Q536 226 527 217T499 208Z" />
<glyph unicode="&#x2018;" horiz-adv-x="276" d="M176 594Q168 594 161 597T151 608T149 627L170 746Q172 759 182 765T202 772Q215 772 223 763T229 737L209 619Q208 606 198 600T176 594Z" />
<glyph unicode="&#x2019;" horiz-adv-x="276" d="M176 594Q168 594 161 597T151 608T149 627L170 746Q172 759 182 765T202 772Q215 772 223 763T229 737L209 619Q208 606 198 600T176 594Z" />
<glyph unicode="&#x201c;" horiz-adv-x="404" d="M175 594Q163 594 155 602T149 627L169 741Q171 757 182 764T203 772Q215 772 224 763T229 737L209 623Q207 609 197 602T175 594ZM304 594Q296 594 289 597T279 608T277 627L298 746Q301 759 310 765T330 772Q343
772 351 763T358 737L337 619Q336 606 326 600T304 594Z" />
<glyph unicode="&#x201d;" horiz-adv-x="404" d="M175 594Q163 594 155 602T149 627L169 741Q171 757 182 764T203 772Q215 772 224 763T229 737L209 623Q207 609 197 602T175 594ZM304 594Q296 594 289 597T279 608T277 627L298 746Q301 759 310 765T330 772Q343
772 351 763T358 737L337 619Q336 606 326 600T304 594Z" />
<glyph unicode="&#x2022;" horiz-adv-x="392" d="M201 330Q176 330 157 343T126 377T114 422Q114 446 125 466T157 498T202 511Q226 511 246 499T279 466T292 422Q292 398 279 377T246 343T201 330Z" />
</font>
</defs>
</svg>
