<?xml version="1.0" standalone="no"?>
<!DOCTYPE svg PUBLIC "-//W3C//DTD SVG 1.1//EN" "http://www.w3.org/Graphics/SVG/1.1/DTD/svg11.dtd">
<svg xmlns="http://www.w3.org/2000/svg">
<defs >
<font id="Michroma" horiz-adv-x="1674" ><font-face
    font-family="Michroma"
    units-per-em="2048"
    panose-1="0 0 0 0 0 0 0 0 0 0"
    ascent="2368"
    descent="-544"
    alphabetic="0" />
<glyph unicode=" " glyph-name="space" horiz-adv-x="582" />
<glyph unicode="!" glyph-name="exclam" horiz-adv-x="568" d="M236 448L188 1536H380L332 448H236ZM188 0V192H380V0H188Z" />
<glyph unicode="&quot;" glyph-name="quotedbl" horiz-adv-x="768" d="M480 1152L448 1536H640L608 1152H480ZM160 1152L128 1536H320L288 1152H160Z" />
<glyph unicode="#" glyph-name="numbersign" horiz-adv-x="1536" d="M212 -104L342 448H105V588H374L474 1012H209V1152H507L597 1536H767L676 1152H1127L1217 1536H1387L1296 1152H1525V1012H1263L1162 588H1421V448H1129L998 -104H832L962 448H509L378 -104H212ZM542
588H994L1094 1012H643L542 588Z" />
<glyph unicode="$" glyph-name="dollar" horiz-adv-x="2142" d="M1006 -228V-32H853Q648 -32 509 -14T288 58T169 221T133 509H325Q325 368 348 291T428 181T589 141T853 134H1006V706L760 710Q554 713 429 735T240 804T155 932T133 1132Q133 1263 162 1348T269
1481T489 1548T856 1568H1006V1754H1168V1568H1284Q1488 1568 1624 1555T1840 1495T1954 1349T1989 1077H1797Q1797 1211 1772 1279T1688 1373T1530 1400T1284 1402H1168V876L1392 873Q1602 870 1727 849T1915 779T1998 650T2019 444Q2019 309 1994 218T1895 71T1684
-8T1321 -32H1168V-228H1006ZM796 881L1006 878V1402H866Q687 1402 580 1395T417 1363T344 1283T325 1132Q325 1051 338 1002T396 928T537 893T796 881ZM1827 444Q1827 533 1813 584T1750 659T1598 691T1316 702L1168 704V134H1311Q1490 134 1594 145T1748 189T1812
283T1827 444Z" />
<glyph unicode="%" glyph-name="percent" horiz-adv-x="3869" d="M798 454Q619 454 495 472T293 546T181 713T146 1012Q146 1197 181 1308T293 1475T494 1549T798 1568Q977 1568 1101 1550T1302 1475T1414 1308T1449 1012Q1449 825 1414 714T1302 546T1101 472T798
454ZM1521 0L2225 1536H2417L1713 0H1521ZM798 602Q963 602 1058 615T1199 670T1258 793T1272 1012Q1272 1147 1259 1228T1200 1351T1059 1407T798 1421Q633 1421 538 1407T396 1352T337 1229T324 1012Q324 875 337 793T396 670T537 616T798 602ZM3071 -32Q2893
-32 2769 -14T2567 60T2455 227T2420 526Q2420 711 2455 821T2567 988T2768 1063T3071 1082Q3250 1082 3374 1064T3576 989T3688 822T3723 526Q3723 339 3688 228T3576 60T3375 -14T3071 -32ZM3071 115Q3236 115 3331 128T3473 183T3532 307T3545 526Q3545 661
3532 742T3473 865T3332 920T3071 934Q2906 934 2811 920T2670 865T2611 743T2597 526Q2597 389 2610 307T2669 184T2810 129T3071 115Z" />
<glyph unicode="&amp;" glyph-name="ampersand" horiz-adv-x="2432" d="M1028 -32Q884 -32 751 -30T504 -7T307 69T175 231T128 512Q128 651 180 742T314 883T484 942Q403 983 357 1056T320 1244Q330 1376 392 1446T561 1542T814 1569H1066V1568H1204Q1410 1568
1545 1552T1759 1484T1871 1328T1904 1047H1712Q1712 1180 1695 1253T1626 1357T1473 1395T1204 1402H782Q658 1402 590 1373T512 1239Q504 1153 541 1106T684 1004L1809 435Q1818 496 1821 573T1825 748V788L2017 748Q2017 624 2010 525T1985 346L2302 186L2227
42L1929 190Q1880 101 1796 53T1583 -13T1274 -32H1028ZM320 515Q320 373 360 295T486 182T705 141T1028 134H1274Q1412 134 1508 143T1665 182T1761 274L640 833Q485 833 403 753T320 515Z" />
<glyph unicode="&apos;" glyph-name="quotesingle" horiz-adv-x="448" d="M160 1152L128 1536H320L288 1152H160Z" />
<glyph unicode="(" glyph-name="parenleft" horiz-adv-x="768" d="M640 -232Q296 -232 192 40Q136 189 130 405Q129 438 129 490T128 595T128 680Q128 767 129 857T135 1020T144 1130Q161 1237 191 1318T280 1462Q403 1592 640 1592V1432Q484 1432 414 1358Q326
1266 322 966Q322 935 322 882T321 773T320 680Q320 484 322 384T330 240Q342 140 371 70T464 -36T640 -72V-232Z" />
<glyph unicode=")" glyph-name="parenright" horiz-adv-x="768" d="M128 -232V-72Q240 -72 303 -36T397 70T438 240Q443 284 445 384T448 680Q448 718 448 773T447 881T446 966Q442 1266 354 1358Q284 1432 128 1432V1592Q365 1592 488 1462Q547 1400 577 1319T624
1130Q630 1094 633 1021T638 857T640 680Q640 648 640 596T640 491T638 405Q632 189 576 40Q472 -232 128 -232Z" />
<glyph unicode="*" glyph-name="asterisk" horiz-adv-x="1415" d="M420 384L264 495L628 896L128 1072L228 1250L660 992L612 1536H804L756 992L1187 1250L1287 1072L788 896L1152 495L996 384L708 834L420 384Z" />
<glyph unicode="+" glyph-name="plus" horiz-adv-x="1400" d="M604 169V633H156V793H604V1257H796V793H1244V633H796V169H604Z" />
<glyph unicode="," glyph-name="comma" horiz-adv-x="448" d="M64 -256L128 128H320L192 -256H64Z" />
<glyph unicode="-" glyph-name="hyphen" horiz-adv-x="1024" d="M128 512V672H896V512H128Z" />
<glyph unicode="." glyph-name="period" horiz-adv-x="448" d="M128 0V192H320V0H128Z" />
<glyph unicode="/" glyph-name="slash" horiz-adv-x="1023" d="M64 0L768 1536H960L256 0H64Z" />
<glyph unicode="0" glyph-name="zero" horiz-adv-x="1948" d="M1628 788Q1628 964 1616 1078T1572 1258T1478 1354T1318 1393T1077 1402H871Q728 1402 630 1394T471 1355T377 1258T332 1078T320 788V748Q320 578 332 466T376 287T470 187T630 144T871 134H1077Q1220
134 1318 144T1477 187T1571 287T1616 466T1628 748V788ZM128 748V788Q128 992 148 1130T217 1356T350 1489T563 1551T871 1568H1077Q1257 1568 1385 1552T1597 1489T1731 1356T1800 1131T1820 788V748Q1820 501 1788 347T1674 111T1447 -1T1077 -32H871Q646 -32
501 -2T275 111T161 347T128 748Z" />
<glyph unicode="1" glyph-name="one" horiz-adv-x="1948" d="M388 0V160H1002V1374L429 1183L368 1331L988 1536H1194V160H1730V0H388Z" />
<glyph unicode="2" glyph-name="two" horiz-adv-x="1948" d="M166 371Q166 505 191 596T287 742T493 821T849 847H1207Q1363 847 1450 857T1578 897T1627 983T1637 1132Q1637 1228 1619 1283T1548 1363T1392 1395T1117 1402H899Q720 1402 613 1395T450 1363T377
1283T358 1132H166Q166 1263 195 1348T302 1481T522 1548T889 1568H1127Q1344 1568 1482 1549T1695 1481T1800 1348T1829 1132Q1829 964 1785 867T1629 728T1314 686H874Q695 686 591 674T437 629T373 533T358 371V160H1768V0H166V371Z" />
<glyph unicode="3" glyph-name="three" horiz-adv-x="1948" d="M830 -32Q605 -32 467 -8T256 71T158 217T132 444H324Q324 344 338 283T403 190T557 146T840 134H1108Q1287 134 1391 145T1545 189T1609 283T1624 444Q1624 533 1610 587T1547 669T1395 706T1113
716H815V877H1153Q1317 877 1412 887T1552 923T1611 1000T1624 1132Q1624 1228 1606 1283T1532 1363T1370 1395T1083 1402H865Q686 1402 579 1395T416 1363T343 1283T324 1132H132Q132 1263 161 1348T268 1481T488 1548T855 1568H1093Q1318 1568 1460 1549T1679
1481T1786 1348T1816 1132Q1816 977 1758 895T1607 796Q1700 777 1758 691T1816 444Q1816 309 1791 218T1692 71T1481 -8T1118 -32H830Z" />
<glyph unicode="4" glyph-name="four" horiz-adv-x="2048" d="M1472 0V320H128V512L1408 1536H1664V480H1920V320H1664V0H1472ZM320 480H1472V1408L320 480Z" />
<glyph unicode="5" glyph-name="five" horiz-adv-x="1948" d="M203 735V1536H1752V1376H395V873Q485 977 725 977H1187Q1396 977 1522 954T1712 879T1798 745T1820 544V444Q1820 309 1795 217T1696 71T1485 -8T1122 -32H875Q650 -32 512 -8T301 71T203 217T177
444H369Q369 344 383 283T448 190T602 146T885 134H1112Q1291 134 1395 145T1549 188T1613 282T1628 444V544Q1628 633 1614 687T1551 769T1399 806T1117 816H905Q682 816 576 801T430 735H203Z" />
<glyph unicode="6" glyph-name="six" horiz-adv-x="1948" d="M853 -32Q628 -32 490 -8T279 71T181 217T155 444V1122Q155 1253 184 1339T291 1476T511 1547T878 1568H1116Q1337 1568 1473 1549T1682 1481T1779 1348T1805 1132H1613Q1613 1228 1599 1283T1535 1363T1383
1395T1106 1402H888Q709 1402 602 1394T439 1358T366 1275T347 1122V772Q438 877 678 877H1206Q1415 877 1541 854T1731 779T1817 645T1839 444Q1839 309 1814 218T1715 71T1504 -8T1141 -32H853ZM1647 444Q1647 533 1633 587T1570 669T1418 706T1136 716H858Q679
716 576 707T424 669T361 587T347 444Q347 344 361 283T426 190T580 146T863 134H1131Q1310 134 1414 145T1568 189T1632 283T1647 444Z" />
<glyph unicode="7" glyph-name="seven" horiz-adv-x="1984" d="M448 0L1632 1376H128V1536H1856V1344L704 0H448Z" />
<glyph unicode="8" glyph-name="eight" horiz-adv-x="1948" d="M1624 1132Q1624 1228 1606 1283T1532 1363T1370 1395T1083 1402H865Q686 1402 579 1395T416 1363T343 1283T324 1132Q324 1051 337 1001T395 924T536 887T795 877H1153Q1317 877 1412 887T1552 923T1611
1000T1624 1132ZM132 444Q132 605 190 691T341 796Q249 813 191 895T132 1132Q132 1263 161 1348T268 1481T488 1548T855 1568H1093Q1318 1568 1460 1549T1679 1481T1786 1348T1816 1132Q1816 977 1758 895T1607 796Q1700 777 1758 691T1816 444Q1816 309 1791
218T1692 71T1481 -8T1118 -32H830Q605 -32 467 -8T256 71T158 217T132 444ZM1624 444Q1624 533 1610 587T1547 669T1395 706T1113 716H835Q656 716 553 707T401 669T338 587T324 444Q324 344 338 283T403 190T557 146T840 134H1108Q1287 134 1391 145T1545 189T1609
283T1624 444Z" />
<glyph unicode="9" glyph-name="nine" horiz-adv-x="1984" d="M855 -32Q630 -32 492 -13T282 55T183 188T157 404H349Q349 308 363 253T428 173T583 141T865 134H1083Q1262 134 1369 144T1532 183T1605 270T1624 424V764Q1533 659 1293 659H765Q556 659 430 682T240
757T154 891T132 1092Q132 1227 157 1318T256 1465T467 1544T830 1568H1118Q1343 1568 1481 1544T1692 1465T1790 1319T1816 1092V424Q1816 293 1787 205T1680 65T1460 -9T1093 -32H855ZM1624 1092Q1624 1192 1610 1253T1545 1346T1391 1390T1108 1402H840Q661
1402 557 1391T403 1347T339 1253T324 1092Q324 1003 338 949T401 867T553 830T835 820H1113Q1292 820 1395 829T1547 867T1610 949T1624 1092Z" />
<glyph unicode=":" glyph-name="colon" horiz-adv-x="448" d="M128 768V960H320V768H128ZM128 192V384H320V192H128Z" />
<glyph unicode=";" glyph-name="semicolon" horiz-adv-x="448" d="M128 768V960H320V768H128ZM64 128L128 512H320L192 128H64Z" />
<glyph unicode="&lt;" glyph-name="less" horiz-adv-x="1400" d="M1148 192L272 736V928L1148 1472V1216L416 832L1148 448V192Z" />
<glyph unicode="=" glyph-name="equal" horiz-adv-x="1400" d="M197 893V1053H1203V893H197ZM197 460V620H1203V460H197Z" />
<glyph unicode="&gt;" glyph-name="greater" horiz-adv-x="1400" d="M252 192V448L984 832L252 1216V1472L1148 928V736L252 192Z" />
<glyph unicode="?" glyph-name="question" horiz-adv-x="1856" d="M684 321V474Q684 610 696 693T747 820T861 879T1063 895H1214Q1319 895 1373 916T1446 992T1465 1153Q1465 1243 1443 1294T1366 1370T1220 1401T988 1408Q789 1408 673 1399T500 1362T427 1277T410
1122H218Q218 1286 262 1377T400 1509T639 1559T988 1568Q1143 1568 1266 1557T1477 1507T1610 1383T1657 1153Q1657 1054 1643 977T1584 846T1451 764T1214 736H1063Q995 736 957 729T902 697T881 619T876 474V321H684ZM684 0V192H876V0H684Z" />
<glyph unicode="@" glyph-name="at" horiz-adv-x="2240" d="M1152 -224Q710 -224 488 -138Q274 -56 194 127Q128 277 128 576Q128 918 194 1068Q271 1243 488 1310Q698 1376 1152 1376Q1720 1376 1920 1240Q1993 1191 2034 1124Q2076 1056 2112 480Q2112 279 2053
208Q1987 128 1791 128Q1688 128 1628 174T1567 320Q1545 273 1508 242T1428 188Q1369 157 1290 143T1120 128Q993 128 880 138T682 186T556 307Q512 397 512 576Q512 755 557 849T734 984Q860 1024 1117 1024Q1322 1024 1435 944Q1483 910 1504 864V992H1696V480Q1696
356 1708 329Q1721 302 1739 295T1796 288Q1856 288 1882 306T1914 367T1920 480V768Q1920 903 1895 986T1808 1115T1635 1185Q1490 1216 1232 1216Q1104 1216 1008 1215T846 1211Q677 1204 556 1166T380 1012Q321 886 321 576Q321 278 380 154Q433 42 556 -2T846
-56Q911 -60 1147 -62T1791 -64V-224H1152ZM1082 288H1123Q1212 288 1289 294T1418 332Q1504 385 1504 573Q1504 715 1459 779T1298 856Q1261 860 1217 862T1123 864H1080Q1010 864 952 861T840 846Q779 832 750 802T713 717T704 576Q704 438 722 397Q740 357 766
337T840 306Q893 294 952 291T1082 288Z" />
<glyph unicode="A" glyph-name="A" horiz-adv-x="2176" d="M64 0L960 1536H1216L2112 0H1888L1696 352H480L288 0H64ZM576 512H1600L1088 1408L576 512Z" />
<glyph unicode="B" glyph-name="B" horiz-adv-x="2112" d="M192 0V1536H1416Q1590 1536 1701 1504T1866 1389T1920 1155Q1920 1019 1857 930T1664 832Q1834 815 1909 711T1984 448Q1984 311 1953 223T1847 87T1647 19T1331 0H192ZM384 896H1279Q1434 896 1533
907T1680 972T1728 1155Q1728 1256 1700 1303T1603 1363T1416 1376H384V896ZM384 160H1331Q1468 160 1557 167T1698 201T1771 286T1792 448Q1792 554 1753 613T1643 698T1479 730T1279 736H384V160Z" />
<glyph unicode="C" glyph-name="C" horiz-adv-x="2145" d="M128 748V788Q128 992 148 1130T217 1356T350 1489T563 1551T871 1568H1274Q1480 1568 1621 1549T1849 1472T1975 1303T2014 1007H1822Q1822 1152 1796 1232T1709 1349T1541 1393T1274 1402H871Q728 1402
630 1394T471 1355T377 1258T332 1078T320 788V748Q320 578 332 466T376 287T470 187T630 144T871 134H1274Q1435 134 1541 141T1708 182T1796 295T1822 519H2014Q2014 335 1975 225T1850 60T1622 -14T1274 -32H871Q646 -32 501 -2T275 111T161 347T128 748Z" />
<glyph unicode="D" glyph-name="D" horiz-adv-x="2207" d="M196 0V1536H1336Q1561 1536 1706 1509T1932 1405T2046 1179T2079 788V748Q2079 513 2047 366T1933 139T1706 30T1336 0H196ZM388 166H1336Q1515 166 1624 183T1790 257T1867 431T1887 748V788Q1887 954
1875 1062T1831 1232T1737 1324T1577 1362T1336 1370H388V166Z" />
<glyph unicode="E" glyph-name="E" horiz-adv-x="1792" d="M192 0V1536H1700V1376H384V864H1645V704H384V160H1728V0H192Z" />
<glyph unicode="F" glyph-name="F" horiz-adv-x="1728" d="M192 0V1536H1640V1376H384V864H1583V704H384V0H192Z" />
<glyph unicode="G" glyph-name="G" horiz-adv-x="2177" d="M128 748V788Q128 992 148 1130T217 1356T350 1489T563 1551T871 1568H1247Q1483 1568 1630 1550T1857 1481T1967 1333T1997 1077H1805Q1805 1196 1784 1262T1705 1358T1537 1395T1247 1402H871Q728 1402
630 1394T471 1355T377 1258T332 1078T320 788V748Q320 578 332 466T376 287T470 187T630 144T871 134H1314Q1479 134 1580 147T1733 205T1804 341T1822 589V648H1087V808H2014V589Q2014 394 1981 272T1870 84T1656 -7T1314 -32H871Q646 -32 501 -2T275 111T161
347T128 748Z" />
<glyph unicode="H" glyph-name="H" horiz-adv-x="2184" d="M196 0V1536H388V864H1796V1536H1988V0H1796V704H388V0H196Z" />
<glyph unicode="I" glyph-name="I" horiz-adv-x="576" d="M192 0V1536H384V0H192Z" />
<glyph unicode="J" glyph-name="J" horiz-adv-x="1715" d="M576 0Q385 0 278 55T144 270Q128 365 128 512V576H320V512Q320 284 376 214Q407 176 456 166T576 156H1024Q1197 156 1270 217T1344 448V1536H1536V448Q1536 204 1424 104Q1308 0 1024 0H576Z" />
<glyph unicode="K" glyph-name="K" horiz-adv-x="2016" d="M192 0V1536H384V864H639L1632 1536H1920L832 784L1952 0H1664L640 704H384V0H192Z" />
<glyph unicode="L" glyph-name="L" horiz-adv-x="1664" d="M192 0V1536H384V160H1600V0H192Z" />
<glyph unicode="M" glyph-name="M" horiz-adv-x="2808" d="M196 0V1536H482L1411 283L2326 1536H2612V0H2420V1362L1503 101H1329L388 1362V0H196Z" />
<glyph unicode="N" glyph-name="N" horiz-adv-x="2321" d="M192 0V1536H392L1935 237H1937V1536H2129V0H1929L386 1310H384V0H192Z" />
<glyph unicode="O" glyph-name="O" horiz-adv-x="2145" d="M871 -32Q646 -32 501 -2T275 111T161 347T128 748V788Q128 992 148 1130T217 1356T350 1489T563 1551T871 1568H1274Q1454 1568 1582 1552T1794 1489T1928 1356T1997 1131T2017 788V748Q2017 501 1985
347T1871 111T1644 -1T1274 -32H871ZM871 134H1274Q1417 134 1515 144T1674 187T1768 287T1813 466T1825 748V788Q1825 964 1813 1078T1769 1258T1675 1354T1515 1393T1274 1402H871Q728 1402 630 1394T471 1355T377 1258T332 1078T320 788V748Q320 578 332 466T376
287T470 187T630 144T871 134Z" />
<glyph unicode="P" glyph-name="P" horiz-adv-x="1991" d="M196 0V1536H1224Q1449 1536 1586 1514T1795 1441T1891 1302T1916 1084V1044Q1916 920 1891 834T1792 694T1581 617T1218 592H388V0H196ZM1724 1084Q1724 1179 1706 1236T1634 1322T1473 1360T1187 1370H388V758H1187Q1366
758 1473 769T1634 811T1706 898T1724 1044V1084Z" />
<glyph unicode="Q" glyph-name="Q" horiz-adv-x="2145" d="M871 -32Q646 -32 501 -2T275 111T161 347T128 748V788Q128 992 148 1130T217 1356T350 1489T563 1551T871 1568H1274Q1454 1568 1582 1552T1794 1489T1928 1356T1997 1131T2017 788V748Q2017 505 1987
354T1877 117L2145 -93L2048 -212L1742 27Q1659 -7 1544 -19T1274 -32H871ZM871 134H1274Q1371 134 1447 138T1581 154L1107 525L1204 644L1731 231Q1788 294 1806 416T1825 748V788Q1825 964 1813 1078T1769 1258T1675 1354T1515 1393T1274 1402H871Q728 1402
630 1394T471 1355T377 1258T332 1078T320 788V748Q320 578 332 466T376 287T470 187T630 144T871 134Z" />
<glyph unicode="R" glyph-name="R" horiz-adv-x="2087" d="M196 1536H1224Q1449 1536 1586 1516T1795 1447T1891 1313T1916 1098V1058Q1916 938 1888 852T1778 712T1538 636L1872 0H1680L1353 622Q1333 621 1312 621T1267 621H388V0H196V1536ZM388 787H1237Q1408
787 1506 798T1651 839T1711 921T1724 1058V1098Q1724 1193 1706 1248T1634 1329T1473 1362T1187 1370H388V787Z" />
<glyph unicode="S" glyph-name="S" horiz-adv-x="2142" d="M1827 444Q1827 533 1813 584T1750 659T1598 691T1316 702L760 710Q554 713 429 735T240 804T155 932T133 1132Q133 1263 162 1348T269 1481T489 1548T856 1568H1284Q1488 1568 1624 1555T1840 1495T1954
1349T1989 1077H1797Q1797 1211 1772 1279T1688 1373T1530 1400T1284 1402H866Q687 1402 580 1395T417 1363T344 1283T325 1132Q325 1051 338 1002T396 928T537 893T796 881L1392 873Q1602 870 1727 849T1915 779T1998 650T2019 444Q2019 309 1994 218T1895 71T1684
-8T1321 -32H853Q648 -32 509 -14T288 58T169 221T133 509H325Q325 368 348 291T428 181T589 141T853 134H1311Q1490 134 1594 145T1748 189T1812 283T1827 444Z" />
<glyph unicode="T" glyph-name="T" horiz-adv-x="1916" d="M862 0V1376H94V1536H1822V1376H1054V0H862Z" />
<glyph unicode="U" glyph-name="U" horiz-adv-x="2120" d="M879 -32Q654 -32 509 -2T283 111T169 347T136 748V1536H328V748Q328 578 340 466T385 287T479 187T639 144T879 134H1241Q1384 134 1481 144T1640 187T1735 287T1780 466T1792 748V1536H1984V748Q1984
501 1952 347T1838 111T1611 -1T1241 -32H879Z" />
<glyph unicode="V" glyph-name="V" horiz-adv-x="2048" d="M896 0L68 1536H288L1024 136L1760 1536H1977L1152 0H896Z" />
<glyph unicode="W" glyph-name="W" horiz-adv-x="3328" d="M832 0L77 1536H298L960 163L1584 1536H1808L2432 163L3030 1536H3251L2560 0H2304L1696 1343L1088 0H832Z" />
<glyph unicode="X" glyph-name="X" horiz-adv-x="2176" d="M64 0L937 810L128 1536H400L1070 934L1719 1536H1991L1209 810L2112 0H1840L1075 686L336 0H64Z" />
<glyph unicode="Y" glyph-name="Y" horiz-adv-x="2176" d="M992 0V640L128 1536H384L1088 784L1792 1536H2048L1184 640V0H992Z" />
<glyph unicode="Z" glyph-name="Z" horiz-adv-x="2046" d="M128 0V160L1614 1376H192V1536H1888V1376L394 160H1920V0H128Z" />
<glyph unicode="[" glyph-name="bracketleft" horiz-adv-x="832" d="M128 -202V1592H704V1432H320V-42H704V-202H128Z" />
<glyph unicode="\" glyph-name="backslash" horiz-adv-x="1023" d="M768 0L64 1536H256L960 0H768Z" />
<glyph unicode="]" glyph-name="bracketright" horiz-adv-x="832" d="M704 -202H128V-42H512V1432H128V1592H704V-202Z" />
<glyph unicode="^" glyph-name="asciicircum" horiz-adv-x="1088" d="M192 896L64 992L448 1536H640L1024 992L896 896L544 1408L192 896Z" />
<glyph unicode="_" glyph-name="underscore" horiz-adv-x="1088" d="M0 -160V0H1088V-160H0Z" />
<glyph unicode="`" glyph-name="grave" horiz-adv-x="960" d="M768 1280L138 1684L256 1856L832 1376L768 1280Z" />
<glyph unicode="a" glyph-name="a" horiz-adv-x="1560" d="M736 -22Q529 -22 395 -1T195 94T129 321Q129 478 190 551T385 647T736 669Q912 669 1031 661T1244 633Q1242 766 1226 842T1166 956T1038 1003T813 1014Q653 1014 563 1007T431 982T380 930T369 842H177Q177
950 206 1016T307 1116T501 1162T813 1174Q1015 1174 1138 1148T1326 1055T1413 866T1436 554V0H1244V79Q1210 43 1150 21T991 -11T736 -22ZM736 134Q907 134 1009 138T1161 160T1228 218T1244 330V507L736 513Q601 515 519 510T393 486T336 428T321 321Q321 256
335 218T393 162T518 139T736 134Z" />
<glyph unicode="b" glyph-name="b" horiz-adv-x="1638" d="M837 -22Q652 -22 525 6T324 132V0H132V1536H324V1021Q397 1118 524 1146T837 1174Q1031 1174 1165 1154T1383 1074T1504 896T1542 582Q1542 380 1504 259T1383 78T1166 -2T837 -22ZM1350 582Q1350 725
1336 811T1272 940T1120 999T837 1014Q674 1014 573 999T418 941T344 811T324 582Q324 434 344 345T418 212T573 153T837 138Q1016 138 1119 152T1272 211T1335 345T1350 582Z" />
<glyph unicode="c" glyph-name="c" horiz-adv-x="1571" d="M801 -22Q608 -22 473 -3T255 77T134 259T96 582Q96 778 134 896T255 1074T473 1154T801 1174Q1032 1174 1181 1148T1403 1039T1475 789H1291Q1291 886 1251 934T1105 998T801 1014Q623 1014 519 999T366
941T303 811T288 582Q288 434 302 345T366 212T519 153T801 138Q952 138 1048 146T1197 180T1270 254T1291 384H1475Q1475 250 1435 169T1313 47T1104 -8T801 -22Z" />
<glyph unicode="d" glyph-name="d" horiz-adv-x="1638" d="M801 -22Q608 -22 473 -3T255 77T134 259T96 582Q96 778 134 896T255 1074T473 1154T801 1174Q986 1174 1113 1146T1314 1021V1536H1506V0H1314V132Q1241 34 1114 6T801 -22ZM1314 582Q1314 725 1294
811T1220 940T1065 999T801 1014Q623 1014 519 999T366 941T303 811T288 582Q288 434 302 345T366 212T519 153T801 138Q964 138 1065 152T1220 211T1294 345T1314 582Z" />
<glyph unicode="e" glyph-name="e" horiz-adv-x="1567" d="M1447 342Q1447 213 1409 139T1291 31T1090 -12T798 -22Q605 -22 471 -3T254 77T134 259T96 582Q96 778 132 896T251 1074T466 1154T793 1174Q1014 1174 1159 1143T1375 1025T1447 770V523H289Q290 395
307 318T375 202T527 151T798 138Q950 138 1043 144T1185 170T1251 232T1268 342H1447ZM793 1014Q630 1014 531 1002T379 956T309 853T289 674H1263V770Q1263 842 1247 889T1182 964T1041 1003T793 1014Z" />
<glyph unicode="f" glyph-name="f" horiz-adv-x="1056" d="M320 0V1006H128V1152H320V1202Q320 1366 373 1454T540 1575T833 1608H1056V1452H832Q689 1452 621 1434T533 1363T512 1202V1152H1056V1006H512V0H320Z" />
<glyph unicode="g" glyph-name="g" horiz-adv-x="1612" d="M835 -439Q682 -439 557 -432T341 -396T202 -306T153 -137H345Q345 -207 399 -237T563 -273T835 -279Q956 -279 1042 -272T1182 -228T1262 -108T1288 130V157Q1218 67 1096 38T792 9Q605 9 473 30T259
112T138 286T100 584Q100 780 138 898T258 1075T473 1154T792 1174Q973 1174 1095 1148T1288 1030V1152H1480V122Q1476 -68 1432 -180T1307 -348T1107 -421T835 -439ZM1288 584Q1288 727 1271 812T1203 941T1054 999T792 1014Q620 1014 520 1000T370 942T307 813T292
584Q292 454 306 372T369 246T519 186T792 169Q955 169 1053 185T1202 246T1270 372T1288 584Z" />
<glyph unicode="h" glyph-name="h" horiz-adv-x="1603" d="M132 0V1536H324V999Q367 1057 430 1096T600 1154T880 1174Q1106 1174 1236 1130T1422 973T1477 653V0H1284V653Q1284 771 1264 843T1196 952T1062 1001T846 1014Q646 1014 532 981T371 878T324 694V0H132Z" />
<glyph unicode="i" glyph-name="i" horiz-adv-x="448" d="M128 0V1088H320V0H128ZM128 1344V1536H320V1344H128Z" />
<glyph unicode="j" glyph-name="j" horiz-adv-x="672" d="M288 1344V1536H480V1344H288ZM-37 -384V-224H108Q205 -224 246 -188T288 -24V1152H480V-24Q480 -205 397 -294T108 -384H-37Z" />
<glyph unicode="k" glyph-name="k" horiz-adv-x="1414" d="M134 0V1536H326V649L1091 1152H1382L569 611L1414 0H1128L326 591V0H134Z" />
<glyph unicode="l" glyph-name="l" horiz-adv-x="576" d="M192 0V1536H384V0H192Z" />
<glyph unicode="m" glyph-name="m" horiz-adv-x="2474" d="M132 0V1152H324V1009Q367 1067 427 1106T580 1164T820 1184Q1001 1184 1115 1135T1283 966Q1332 1042 1401 1090T1574 1161T1832 1184Q2014 1184 2128 1135T2295 966T2349 640V0H2157V640Q2157 798 2124
880T2015 993T1808 1024Q1553 1024 1445 949T1336 704V705Q1337 674 1337 640V0H1145V640Q1145 798 1112 880T1003 993T796 1024Q541 1024 433 949T324 704V0H132Z" />
<glyph unicode="n" glyph-name="n" horiz-adv-x="1601" d="M132 0V1152H324V999Q367 1057 430 1096T600 1154T880 1174Q1106 1174 1236 1130T1422 973T1477 653V0H1284V653Q1284 771 1264 843T1196 952T1062 1001T846 1014Q646 1014 532 981T371 878T324 694V0H132Z" />
<glyph unicode="o" glyph-name="o" horiz-adv-x="1602" d="M801 -22Q608 -22 473 -3T255 77T134 259T96 582Q96 778 134 896T255 1074T473 1154T801 1174Q995 1174 1129 1154T1347 1074T1468 896T1506 582Q1506 380 1468 259T1347 78T1130 -2T801 -22ZM1314 582Q1314
725 1300 811T1236 940T1084 999T801 1014Q623 1014 519 999T366 941T303 811T288 582Q288 434 302 345T366 212T519 153T801 138Q980 138 1083 152T1236 211T1299 345T1314 582Z" />
<glyph unicode="p" glyph-name="p" horiz-adv-x="1638" d="M1350 582Q1350 725 1336 811T1272 940T1120 999T837 1014Q674 1014 573 999T418 941T344 811T324 582Q324 434 344 345T418 212T573 153T837 138Q1016 138 1119 152T1272 211T1335 345T1350 582ZM132
-384V1152H324V1021Q397 1118 524 1146T837 1174Q1031 1174 1165 1154T1383 1074T1504 896T1542 582Q1542 380 1504 259T1383 78T1166 -2T837 -22Q652 -22 525 6T324 132V-384H132Z" />
<glyph unicode="q" glyph-name="q" horiz-adv-x="1638" d="M1314 582Q1314 725 1294 811T1220 940T1065 999T801 1014Q623 1014 519 999T366 941T303 811T288 582Q288 434 302 345T366 212T519 153T801 138Q964 138 1065 152T1220 211T1294 345T1314 582ZM96 582Q96
778 134 896T255 1074T473 1154T801 1174Q986 1174 1113 1146T1314 1021V1152H1506V-384H1314V132Q1241 34 1114 6T801 -22Q608 -22 473 -3T255 77T134 259T96 582Z" />
<glyph unicode="r" glyph-name="r" horiz-adv-x="986" d="M148 0V1152H340V993Q372 1044 404 1078T489 1132T632 1160T869 1169V1008Q671 1008 563 994T407 947T350 854T340 704V0H148Z" />
<glyph unicode="s" glyph-name="s" horiz-adv-x="1589" d="M779 -22Q569 -22 442 -8T249 44T161 152T138 334H322Q322 271 331 233T382 174T518 146T784 138Q965 138 1065 145T1210 173T1263 233T1273 336Q1273 414 1259 453T1193 505T1027 520L569 525Q392 527
299 555T172 653T138 854Q138 975 175 1041T293 1135T501 1168T810 1174Q1023 1174 1148 1161T1336 1112T1418 1008T1438 829H1254Q1254 894 1245 931T1197 986T1069 1009T820 1014Q638 1014 537 1010T391 991T336 944T326 854Q326 796 332 763T367 712T458 690T636
683L1031 679Q1209 677 1301 650T1427 549T1461 336Q1461 211 1425 139T1308 33T1098 -12T779 -22Z" />
<glyph unicode="t" glyph-name="t" horiz-adv-x="1297" d="M661 0Q485 0 379 35T226 161T178 416V1467H370V1152H1079V994H370V416Q370 304 390 249T473 177T661 160Q772 160 835 167T929 204T967 305T975 502H1145Q1145 336 1125 236T1052 85T905 17T661 0Z" />
<glyph unicode="u" glyph-name="u" horiz-adv-x="1601" d="M720 -22Q494 -22 364 27T179 193T124 512V1152H317V512Q317 398 335 325T401 211T533 154T754 138Q954 138 1068 171T1229 274T1277 458V1152H1469V0H1277V153Q1235 95 1171 56T1000 -2T720 -22Z" />
<glyph unicode="v" glyph-name="v" horiz-adv-x="1588" d="M666 0L64 1152H290L794 144H796L1310 1152H1524L922 0H666Z" />
<glyph unicode="w" glyph-name="w" horiz-adv-x="2240" d="M512 0L70 1152H288L639 155H641L1024 1152H1216L1595 155H1597L1952 1152H2170L1728 0H1472L1121 933H1119L768 0H512Z" />
<glyph unicode="x" glyph-name="x" horiz-adv-x="1628" d="M96 0L686 586L124 1152H380L819 707L1248 1152H1504L942 587L1532 0H1276L814 482L352 0H96Z" />
<glyph unicode="y" glyph-name="y" horiz-adv-x="1568" d="M308 -384V-224Q411 -224 478 -220T591 -195T673 -128T750 0H686L46 1152H266L814 143L1275 1152H1500L916 -64Q877 -145 836 -205T732 -305T568 -364T308 -384Z" />
<glyph unicode="z" glyph-name="z" horiz-adv-x="1472" d="M128 0V160L1101 1004H192V1152H1344V992L385 150H1344V0H128Z" />
<glyph unicode="{" glyph-name="braceleft" horiz-adv-x="960" d="M832 -232Q684 -232 585 -221T428 -174T345 -67T320 123V505Q320 553 310 573T259 596T128 600V760Q218 760 258 764T309 787T320 855V1237Q320 1356 344 1427T427 1533T585 1580T832 1592V1432Q718
1432 653 1428T557 1405T518 1342T510 1217V852Q510 781 488 731T384 680Q466 680 488 630T510 508V143Q510 63 518 19T556 -45T652 -68T832 -72V-232Z" />
<glyph unicode="|" glyph-name="bar" horiz-adv-x="448" d="M128 -128V1600H320V-128H128Z" />
<glyph unicode="}" glyph-name="braceright" horiz-adv-x="960" d="M128 -232V-72Q242 -72 307 -68T403 -45T442 18T450 143V508Q450 579 472 629T576 680Q494 680 472 730T450 852V1217Q450 1297 442 1341T404 1405T308 1428T128 1432V1592Q277 1592 375 1581T532
1534T615 1427T640 1237V855Q640 807 650 788T701 764T832 760V600Q742 600 702 597T651 573T640 505V123Q640 4 616 -67T533 -173T376 -220T128 -232Z" />
<glyph unicode="~" glyph-name="asciitilde" horiz-adv-x="1400" d="M252 832Q252 956 325 1022T508 1088Q613 1088 727 1040Q760 1026 799 1009T878 992Q926 992 941 1010T956 1088H1148Q1148 955 1056 886Q984 832 892 832Q787 832 673 880Q640 894 601 911T522
928Q471 928 458 910T444 832H252Z" />
<glyph unicode="&#xa0;" glyph-name="uni00A0" horiz-adv-x="582" />
<glyph unicode="&#xa1;" glyph-name="exclamdown" horiz-adv-x="568" d="M236 801H332L380 -287H188L236 801ZM188 1249H380V1057H188V1249Z" />
<glyph unicode="&#xa2;" glyph-name="cent" horiz-adv-x="1601" d="M783 -32Q637 -32 518 -14T313 53T182 196Q128 310 128 544Q128 778 182 892Q242 1019 394 1070Q542 1120 833 1120Q1205 1120 1345 1020Q1414 971 1443 895T1473 704H1281Q1281 787 1268 830T1221
895T1121 937Q1043 960 833 960Q580 960 473 924Q418 905 387 874T338 786Q321 730 321 544Q321 355 340 294Q366 209 439 178T618 136Q662 132 726 130T875 128Q1046 128 1148 159Q1199 175 1225 196Q1263 227 1272 264T1281 384H1473Q1473 275 1445 198Q1413
109 1336 62T1149 -8Q1025 -32 783 -32Z" />
<glyph unicode="&#xa3;" glyph-name="sterling" horiz-adv-x="1663" d="M256 0V640H64V800H256V958Q256 1115 277 1225T355 1407T522 1517Q666 1569 960 1569Q1293 1569 1419 1474Q1536 1387 1536 1173H1344Q1344 1249 1336 1283T1294 1346Q1269 1368 1228 1381Q1144
1409 987 1409Q831 1409 744 1400Q635 1389 564 1355T467 1231Q448 1165 448 958V800H1280V640H448V160H1472V0H256Z" />
<glyph unicode="&#xa4;" glyph-name="currency" horiz-adv-x="1280" d="M196 47L112 144L256 268Q192 366 192 512Q192 658 256 756L112 880L196 977L346 848Q462 928 640 928Q818 928 934 848L1084 977L1168 880L1023 756Q1088 658 1088 514Q1088 369 1023 268L1168
144L1084 47L933 175Q821 96 639 96Q458 96 346 176L196 47ZM640 256Q896 256 896 512Q896 640 830 704T640 768Q384 768 384 512Q384 256 640 256Z" />
<glyph unicode="&#xa5;" glyph-name="yen" horiz-adv-x="2048" d="M928 0V256H416V416H928V640H416V800H773L64 1536H320L1024 768L1728 1536H1984L1274 800H1632V640H1120V416H1632V256H1120V0H928Z" />
<glyph unicode="&#xa6;" glyph-name="brokenbar" horiz-adv-x="448" d="M128 896V1600H320V896H128ZM128 -128V576H320V-128H128Z" />
<glyph unicode="&#xa7;" glyph-name="section" horiz-adv-x="1504" d="M672 -32Q371 -32 250 48Q132 126 132 320H324Q324 222 369 184T503 136Q537 132 595 130T738 128Q822 128 892 133T1018 148Q1075 159 1108 175Q1155 198 1169 232T1184 337Q1184 410 1140
433T1028 466Q959 476 904 478T775 480H639Q463 480 329 507Q265 520 226 540Q182 562 155 595T128 699Q128 775 220 887Q171 923 150 977T129 1116Q129 1231 164 1294T266 1391T432 1446Q550 1472 833 1472Q1134 1472 1255 1392Q1373 1314 1373 1120H1181Q1181
1218 1136 1256T1002 1304Q968 1308 910 1310T767 1312Q683 1312 613 1308T487 1292Q408 1278 365 1244T321 1120Q321 1067 335 1039T392 994Q478 960 800 960Q1374 960 1374 757Q1374 673 1286 551Q1336 516 1356 462T1376 324Q1376 210 1341 146T1239 49T1073
-6Q955 -32 672 -32ZM1153 607Q1186 673 1186 712Q1186 736 1166 754Q1146 773 1082 786Q1015 800 801 800Q494 800 352 832Q342 807 332 783T321 728Q321 691 344 678T409 654Q470 640 704 640Q1012 640 1153 607Z" />
<glyph unicode="&#xa8;" glyph-name="dieresis" horiz-adv-x="1088" d="M802 1344V1536H994V1344H802ZM94 1344V1536H286V1344H94Z" />
<glyph unicode="&#xa9;" glyph-name="copyright" horiz-adv-x="1920" d="M960 64Q614 64 432 150Q256 233 187 415Q128 571 128 864Q128 1000 140 1112Q165 1340 280 1468Q455 1664 960 1664Q1306 1664 1488 1578Q1664 1495 1733 1313Q1792 1157 1792 864Q1792
729 1780 616Q1755 388 1640 260Q1465 64 960 64ZM960 224Q1234 224 1354 262Q1494 307 1548 442Q1600 571 1600 864Q1600 1157 1548 1286Q1517 1365 1468 1405T1330 1474Q1236 1504 960 1504Q686 1504 566 1466Q426 1421 372 1286Q320 1157 320 864Q320 571 372
442Q404 363 453 323T590 254Q685 224 960 224ZM956 410Q799 410 702 432Q598 456 543 515T468 668T448 893Q448 1033 469 1126Q493 1232 558 1285T724 1356T959 1375Q1254 1375 1368 1292Q1472 1216 1472 1027H1312Q1312 1116 1291 1156T1204 1216Q1147 1234 1094
1237T959 1241H916Q788 1241 714 1210Q674 1194 654 1168T622 1097Q610 1052 610 893Q610 776 620 705T674 598T812 551Q842 547 889 546T999 544Q1123 544 1204 570Q1269 591 1290 629T1312 759H1472Q1472 570 1368 494Q1298 442 1194 426T956 410Z" />
<glyph unicode="&#xaa;" glyph-name="ordfeminine" horiz-adv-x="1560" d="M713 416Q514 416 385 437T192 528T129 746Q129 897 188 968T375 1060T713 1081Q882 1081 996 1073T1202 1047Q1200 1174 1185 1248T1127 1357T1003 1402T787 1413Q633 1413 546 1407T420
1382T370 1332T360 1247H175Q175 1351 203 1414T300 1511T487 1555T787 1567Q982 1567 1101 1542T1282 1452T1365 1270T1387 970V437H1202V513Q1169 478 1112 457T958 426T713 416ZM713 566Q878 566 976 570T1122 591T1186 647T1202 755V925L713 931Q583 933 504
928T383 905T328 849T314 746Q314 683 328 647T383 593T503 571T713 566Z" />
<glyph unicode="&#xab;" glyph-name="guillemotleft" horiz-adv-x="1344" d="M1120 128L576 512V704L1120 1088L1216 960L704 608L1216 256L1120 128ZM672 128L128 512V704L672 1088L768 960L256 608L768 256L672 128Z" />
<glyph unicode="&#xac;" glyph-name="logicalnot" horiz-adv-x="1400" d="M988 640V928H220V1088H1180V640H988Z" />
<glyph unicode="&#xae;" glyph-name="registered" horiz-adv-x="1920" d="M960 64Q614 64 432 150Q256 233 187 415Q128 571 128 864Q128 1000 140 1112Q164 1338 280 1468Q455 1664 960 1664Q1306 1664 1488 1578Q1664 1495 1733 1313Q1792 1157 1792 864Q1792
729 1780 616Q1755 388 1640 260Q1465 64 960 64ZM960 224Q1234 224 1354 262Q1494 307 1548 442Q1600 571 1600 864Q1600 1157 1548 1286Q1517 1365 1468 1405T1330 1474Q1236 1504 960 1504Q686 1504 566 1466Q426 1421 372 1286Q320 1157 320 864Q320 571 372
442Q404 363 453 323T590 254Q685 224 960 224ZM573 384V1376H860Q1177 1376 1299 1302Q1355 1268 1379 1216T1404 1078Q1404 971 1336 919T1160 860Q1256 848 1309 814T1383 712T1405 536V384H1244V597Q1244 673 1213 715T1131 775T1020 796T903 800H733V384H573ZM733
928H860Q1095 928 1172 962Q1210 979 1227 1007T1244 1087Q1244 1138 1227 1166T1172 1212Q1093 1248 860 1248H733V928Z" />
<glyph unicode="&#xaf;" glyph-name="overscore" horiz-adv-x="1024" d="M128 1305V1465H896V1305H128Z" />
<glyph unicode="&#xb0;" glyph-name="degree" horiz-adv-x="1280" d="M640 96Q434 96 313 203T192 512Q192 621 226 698Q325 928 640 928Q846 928 967 822T1088 512Q1088 403 1054 326Q955 96 640 96ZM640 256Q896 256 896 512Q896 640 830 704T640 768Q384 768
384 512Q384 256 640 256Z" />
<glyph unicode="&#xb1;" glyph-name="plusminus" horiz-adv-x="1400" d="M604 540V840H187V1000H604V1300H796V1000H1213V840H796V540H604ZM187 172V332H1213V172H187Z" />
<glyph unicode="&#xb2;" glyph-name="uni00B2" horiz-adv-x="1344" d="M128 449V673Q128 778 167 834T278 917T448 963L834 1036Q903 1049 944 1068T1005 1127T1024 1243Q1024 1338 979 1369T842 1405Q808 1407 756 1408T632 1409Q491 1409 420 1397Q354 1387
337 1361T320 1249H128Q128 1390 178 1458T325 1548T565 1570Q597 1570 630 1570T697 1569Q803 1569 907 1563T1082 1523Q1160 1486 1188 1416T1216 1221Q1216 1063 1135 990T898 885L640 834Q463 799 416 783Q374 770 354 754T327 705T320 609H1186V449H128Z"
/>
<glyph unicode="&#xb3;" glyph-name="uni00B3" horiz-adv-x="1403" d="M537 447Q261 447 174 522Q100 585 100 735H292Q292 654 323 637T427 614Q480 610 527 609T603 608Q742 608 851 609T1006 626Q1053 642 1067 676T1082 778Q1082 868 1036 898T891 928H500V1088H891Q997
1088 1039 1122T1082 1258Q1082 1350 1039 1379T903 1409Q857 1409 796 1409T637 1408Q578 1408 521 1407T427 1402Q351 1395 322 1370T292 1250H100Q100 1417 174 1488Q228 1540 319 1554T516 1569Q558 1569 589 1569T662 1569T771 1568Q821 1568 888 1567T1022
1559T1136 1531Q1217 1498 1246 1427T1275 1236Q1275 1136 1236 1085T1115 1008Q1181 982 1215 953T1262 875T1275 738Q1275 629 1231 570T1109 485T932 454T723 448Q656 448 622 448T537 447Z" />
<glyph unicode="&#xb4;" glyph-name="acute" horiz-adv-x="960" d="M192 1342L128 1438L704 1918L822 1746L192 1342Z" />
<glyph unicode="&#xb5;" glyph-name="uni00B5" horiz-adv-x="1601" d="M129 -384V1088H321V512Q321 411 335 336T401 213Q490 128 769 128Q1191 128 1260 317Q1281 376 1281 448V1088H1473V0H1281V191Q1251 131 1199 91T1076 24Q926 -32 690 -32Q454 -32 321 33V-384H129Z"
/>
<glyph unicode="&#xb6;" glyph-name="paragraph" horiz-adv-x="1984" d="M896 0V608H833Q523 608 365 663Q285 691 240 730Q173 788 151 875T128 1086Q128 1205 149 1287T240 1424Q382 1536 833 1536H1856V1376H1664V0H1472V1376H1088V0H896Z" />
<glyph unicode="&#xb7;" glyph-name="middot" horiz-adv-x="448" d="M128 704V896H320V704H128Z" />
<glyph unicode="&#xb8;" glyph-name="cedilla" horiz-adv-x="640" d="M128 -544V-384Q174 -384 218 -379T291 -356T320 -300Q320 -253 267 -239T128 -224V64H256V-128Q384 -128 448 -171T512 -318Q512 -405 464 -454T329 -524T128 -544Z" />
<glyph unicode="&#xb9;" glyph-name="uni00B9" horiz-adv-x="938" d="M576 448V1376L160 992L64 1120L512 1536H768V448H576Z" />
<glyph unicode="&#xba;" glyph-name="ordmasculine" horiz-adv-x="1664" d="M832 416Q663 416 528 439T301 526T166 713Q128 825 128 992Q128 1237 216 1369T506 1541Q640 1568 832 1568Q1001 1568 1136 1545T1363 1458T1498 1271Q1536 1159 1536 992Q1536 748
1449 616T1158 443Q1025 416 832 416ZM788 576Q882 576 953 579T1074 587Q1183 599 1241 647T1321 782T1344 992Q1344 1117 1322 1202T1242 1336T1074 1397Q1025 1402 965 1405T832 1408Q709 1408 610 1399T443 1351T346 1219Q320 1135 320 1020Q320 893 331 800T408
652Q444 622 500 606Q601 576 788 576Z" />
<glyph unicode="&#xbb;" glyph-name="guillemotright" horiz-adv-x="1344" d="M672 128L576 256L1088 608L576 960L672 1088L1216 704V512L672 128ZM224 128L128 256L640 608L128 960L224 1088L768 704V512L224 128Z" />
<glyph unicode="&#xbc;" glyph-name="onequarter" horiz-adv-x="2918" d="M576 447V1375L160 991L64 1119L512 1535H768V447H576ZM868 0L1572 1536H1764L1060 0H868ZM2406 0V242H1574V434L2342 1121H2598V402H2840V242H2598V0H2406ZM1766 402H2406V973L1766 402Z" />
<glyph unicode="&#xbd;" glyph-name="onehalf" horiz-adv-x="3038" d="M576 447V1375L160 991L64 1119L512 1535H768V447H576ZM868 0L1572 1536H1764L1060 0H868ZM1822 0V224Q1822 329 1861 385T1972 468T2142 514L2528 587Q2597 600 2638 619T2699 678T2718 794Q2718
889 2673 920T2536 956Q2502 958 2450 959T2326 960Q2185 960 2114 948Q2048 938 2031 912T2014 800H1822Q1822 941 1872 1009T2019 1099T2259 1121Q2291 1121 2324 1121T2391 1120Q2497 1120 2601 1114T2776 1074Q2854 1037 2882 967T2910 772Q2910 614 2829 541T2592
436L2334 385Q2157 350 2110 334Q2068 321 2048 305T2021 256T2014 160H2880V0H1822Z" />
<glyph unicode="&#xbe;" glyph-name="threequarters" horiz-adv-x="3472" d="M537 447Q261 447 174 522Q100 585 100 735H292Q292 654 323 637T427 614Q480 610 527 609T603 608Q742 608 851 609T1006 626Q1053 642 1067 676T1082 778Q1082 868 1036 898T891 928H500V1088H891Q997
1088 1039 1122T1082 1258Q1082 1350 1039 1379T903 1409Q857 1409 796 1409T637 1408Q578 1408 521 1407T427 1402Q351 1395 322 1370T292 1250H100Q100 1417 174 1488Q228 1540 319 1554T516 1569Q558 1569 589 1569T662 1569T771 1568Q821 1568 888 1567T1022
1559T1136 1531Q1217 1498 1246 1427T1275 1236Q1275 1136 1236 1085T1115 1008Q1181 982 1215 953T1262 875T1275 738Q1275 629 1231 570T1109 485T932 454T723 448Q656 448 622 448T537 447ZM1333 0L2037 1536H2229L1525 0H1333ZM2960 0V242H2128V434L2896 1121H3152V402H3394V242H3152V0H2960ZM2320
402H2960V973L2320 402Z" />
<glyph unicode="&#xbf;" glyph-name="questiondown" horiz-adv-x="1856" d="M1191 890V737Q1191 601 1179 518T1128 391T1014 332T812 316H661Q557 316 503 296T429 219T410 58Q410 -32 432 -83T509 -159T655 -190T887 -197Q1086 -197 1202 -188T1375 -151T1448
-66T1465 89H1657Q1657 -75 1613 -166T1475 -298T1236 -348T887 -357Q733 -357 609 -346T398 -296T265 -172T218 58Q218 157 232 234T291 365T424 447T661 475H812Q880 475 918 482T973 514T994 592T999 737V890H1191ZM1191 1211V1019H999V1211H1191Z" />
<glyph unicode="&#xc0;" glyph-name="Agrave" horiz-adv-x="2176" d="M64 0L960 1536H1216L2112 0H1888L1696 352H480L288 0H64ZM576 512H1600L1088 1408L576 512ZM1438 1724L808 2128L926 2300L1502 1820L1438 1724Z" />
<glyph unicode="&#xc1;" glyph-name="Aacute" horiz-adv-x="2176" d="M64 0L960 1536H1216L2112 0H1888L1696 352H480L288 0H64ZM576 512H1600L1088 1408L576 512ZM864 1726L800 1822L1376 2302L1494 2130L864 1726Z" />
<glyph unicode="&#xc2;" glyph-name="Acircumflex" horiz-adv-x="2176" d="M64 0L960 1536H1216L2112 0H1888L1696 352H480L288 0H64ZM576 512H1600L1088 1408L576 512ZM800 1694L672 1790L992 2270H1184L1504 1790L1376 1694L1088 2142L800 1694Z" />
<glyph unicode="&#xc3;" glyph-name="Atilde" horiz-adv-x="2176" d="M64 0L960 1536H1216L2112 0H1888L1696 352H480L288 0H64ZM576 512H1600L1088 1408L576 512ZM640 1726Q640 1850 713 1916T896 1983Q1000 1983 1115 1934Q1148 1920 1187 1903T1266 1886Q1314
1886 1329 1904T1344 1982H1536Q1536 1849 1444 1780Q1372 1726 1280 1726Q1175 1726 1061 1774Q1028 1788 989 1805T910 1822Q859 1822 846 1804T832 1726H640Z" />
<glyph unicode="&#xc4;" glyph-name="Adieresis" horiz-adv-x="2176" d="M64 0L960 1536H1216L2112 0H1888L1696 352H480L288 0H64ZM576 512H1600L1088 1408L576 512ZM1346 1728V1920H1538V1728H1346ZM638 1728V1920H830V1728H638Z" />
<glyph unicode="&#xc5;" glyph-name="Aring" horiz-adv-x="2176" d="M64 0L960 1536H1216L2112 0H1888L1696 352H480L288 0H64ZM576 512H1600L1088 1408L576 512ZM1088 1724Q922 1724 829 1810T736 2044Q736 2198 833 2281T1088 2364Q1254 2364 1347 2278T1440
2044Q1440 1890 1343 1807T1088 1724ZM1088 1852Q1197 1852 1252 1922Q1280 1957 1280 2044Q1280 2140 1235 2188T1088 2236Q979 2236 924 2166Q896 2131 896 2044Q896 1948 942 1900T1088 1852Z" />
<glyph unicode="&#xc6;" glyph-name="AE" horiz-adv-x="3072" d="M0 0L1408 1536H2944V1376H1664V864H2880V704H1664V160H2944V0H1472V352H582L256 0H0ZM704 512H1472V1376L704 512Z" />
<glyph unicode="&#xc7;" glyph-name="Ccedilla" horiz-adv-x="2145" d="M128 748V788Q128 992 148 1130T217 1356T350 1489T563 1551T871 1568H1274Q1480 1568 1621 1549T1849 1472T1975 1303T2014 1007H1822Q1822 1152 1796 1232T1709 1349T1541 1393T1274 1402H871Q728
1402 630 1394T471 1355T377 1258T332 1078T320 788V748Q320 578 332 466T376 287T470 187T630 144T871 134H1274Q1435 134 1541 141T1708 182T1796 295T1822 519H2014Q2014 335 1975 225T1850 60T1622 -14T1274 -32H871Q646 -32 501 -2T275 111T161 347T128 748ZM963
-544V-384Q1009 -384 1053 -379T1126 -356T1155 -300Q1155 -253 1102 -239T963 -224V64H1091V-128Q1219 -128 1283 -171T1347 -318Q1347 -405 1299 -454T1164 -524T963 -544Z" />
<glyph unicode="&#xc8;" glyph-name="Egrave" horiz-adv-x="1792" d="M192 0V1536H1700V1376H384V864H1645V704H384V160H1728V0H192ZM1306 1724L676 2128L794 2300L1370 1820L1306 1724Z" />
<glyph unicode="&#xc9;" glyph-name="Eacute" horiz-adv-x="1792" d="M192 0V1536H1700V1376H384V864H1645V704H384V160H1728V0H192ZM732 1726L668 1822L1244 2302L1362 2130L732 1726Z" />
<glyph unicode="&#xca;" glyph-name="Ecircumflex" horiz-adv-x="1792" d="M192 0V1536H1700V1376H384V864H1645V704H384V160H1728V0H192ZM668 1694L540 1790L860 2270H1052L1372 1790L1244 1694L956 2142L668 1694Z" />
<glyph unicode="&#xcb;" glyph-name="Edieresis" horiz-adv-x="1792" d="M192 0V1536H1700V1376H384V864H1645V704H384V160H1728V0H192ZM1214 1728V1920H1406V1728H1214ZM506 1728V1920H698V1728H506Z" />
<glyph unicode="&#xcc;" glyph-name="Igrave" horiz-adv-x="576" d="M192 0V1536H384V0H192ZM638 1724L8 2128L126 2300L702 1820L638 1724Z" />
<glyph unicode="&#xcd;" glyph-name="Iacute" horiz-adv-x="576" d="M192 0V1536H384V0H192ZM64 1726L0 1822L576 2302L694 2130L64 1726Z" />
<glyph unicode="&#xce;" glyph-name="Icircumflex" horiz-adv-x="576" d="M192 0V1536H384V0H192ZM0 1694L-128 1790L192 2270H384L704 1790L576 1694L288 2142L0 1694Z" />
<glyph unicode="&#xcf;" glyph-name="Idieresis" horiz-adv-x="576" d="M192 0V1536H384V0H192ZM546 1728V1920H738V1728H546ZM-162 1728V1920H30V1728H-162Z" />
<glyph unicode="&#xd0;" glyph-name="Eth" horiz-adv-x="2112" d="M128 0V704H0V864H128V1536H1279Q1619 1536 1774 1453Q1855 1409 1896 1348Q1960 1254 1972 1116T1984 820V768Q1984 703 1983 644T1980 530Q1975 367 1930 255T1774 83Q1619 0 1279 0H128ZM320
160H1279Q1545 160 1639 196Q1701 219 1730 261T1775 378Q1792 460 1792 768Q1792 1076 1772 1170Q1756 1245 1724 1283T1620 1348Q1546 1376 1279 1376H320V864H768V704H320V160Z" />
<glyph unicode="&#xd1;" glyph-name="Ntilde" horiz-adv-x="2321" d="M192 0V1536H392L1935 237H1937V1536H2129V0H1929L386 1310H384V0H192ZM713 1726Q713 1850 786 1916T969 1983Q1073 1983 1188 1934Q1221 1920 1260 1903T1339 1886Q1387 1886 1402 1904T1417
1982H1609Q1609 1849 1517 1780Q1445 1726 1353 1726Q1248 1726 1134 1774Q1101 1788 1062 1805T983 1822Q932 1822 919 1804T905 1726H713Z" />
<glyph unicode="&#xd2;" glyph-name="Ograve" horiz-adv-x="2145" d="M871 -32Q646 -32 501 -2T275 111T161 347T128 748V788Q128 992 148 1130T217 1356T350 1489T563 1551T871 1568H1274Q1454 1568 1582 1552T1794 1489T1928 1356T1997 1131T2017 788V748Q2017
501 1985 347T1871 111T1644 -1T1274 -32H871ZM871 134H1274Q1417 134 1515 144T1674 187T1768 287T1813 466T1825 748V788Q1825 964 1813 1078T1769 1258T1675 1354T1515 1393T1274 1402H871Q728 1402 630 1394T471 1355T377 1258T332 1078T320 788V748Q320 578
332 466T376 287T470 187T630 144T871 134ZM1423 1724L793 2128L911 2300L1487 1820L1423 1724Z" />
<glyph unicode="&#xd3;" glyph-name="Oacute" horiz-adv-x="2145" d="M871 -32Q646 -32 501 -2T275 111T161 347T128 748V788Q128 992 148 1130T217 1356T350 1489T563 1551T871 1568H1274Q1454 1568 1582 1552T1794 1489T1928 1356T1997 1131T2017 788V748Q2017
501 1985 347T1871 111T1644 -1T1274 -32H871ZM871 134H1274Q1417 134 1515 144T1674 187T1768 287T1813 466T1825 748V788Q1825 964 1813 1078T1769 1258T1675 1354T1515 1393T1274 1402H871Q728 1402 630 1394T471 1355T377 1258T332 1078T320 788V748Q320 578
332 466T376 287T470 187T630 144T871 134ZM849 1726L785 1822L1361 2302L1479 2130L849 1726Z" />
<glyph unicode="&#xd4;" glyph-name="Ocircumflex" horiz-adv-x="2145" d="M871 -32Q646 -32 501 -2T275 111T161 347T128 748V788Q128 992 148 1130T217 1356T350 1489T563 1551T871 1568H1274Q1454 1568 1582 1552T1794 1489T1928 1356T1997 1131T2017 788V748Q2017
501 1985 347T1871 111T1644 -1T1274 -32H871ZM871 134H1274Q1417 134 1515 144T1674 187T1768 287T1813 466T1825 748V788Q1825 964 1813 1078T1769 1258T1675 1354T1515 1393T1274 1402H871Q728 1402 630 1394T471 1355T377 1258T332 1078T320 788V748Q320 578
332 466T376 287T470 187T630 144T871 134ZM785 1694L657 1790L977 2270H1169L1489 1790L1361 1694L1073 2142L785 1694Z" />
<glyph unicode="&#xd5;" glyph-name="Otilde" horiz-adv-x="2145" d="M871 -32Q646 -32 501 -2T275 111T161 347T128 748V788Q128 992 148 1130T217 1356T350 1489T563 1551T871 1568H1274Q1454 1568 1582 1552T1794 1489T1928 1356T1997 1131T2017 788V748Q2017
501 1985 347T1871 111T1644 -1T1274 -32H871ZM871 134H1274Q1417 134 1515 144T1674 187T1768 287T1813 466T1825 748V788Q1825 964 1813 1078T1769 1258T1675 1354T1515 1393T1274 1402H871Q728 1402 630 1394T471 1355T377 1258T332 1078T320 788V748Q320 578
332 466T376 287T470 187T630 144T871 134ZM625 1726Q625 1850 698 1916T881 1983Q985 1983 1100 1934Q1133 1920 1172 1903T1251 1886Q1299 1886 1314 1904T1329 1982H1521Q1521 1849 1429 1780Q1357 1726 1265 1726Q1160 1726 1046 1774Q1013 1788 974 1805T895
1822Q844 1822 831 1804T817 1726H625Z" />
<glyph unicode="&#xd6;" glyph-name="Odieresis" horiz-adv-x="2145" d="M871 -32Q646 -32 501 -2T275 111T161 347T128 748V788Q128 992 148 1130T217 1356T350 1489T563 1551T871 1568H1274Q1454 1568 1582 1552T1794 1489T1928 1356T1997 1131T2017 788V748Q2017
501 1985 347T1871 111T1644 -1T1274 -32H871ZM871 134H1274Q1417 134 1515 144T1674 187T1768 287T1813 466T1825 748V788Q1825 964 1813 1078T1769 1258T1675 1354T1515 1393T1274 1402H871Q728 1402 630 1394T471 1355T377 1258T332 1078T320 788V748Q320 578
332 466T376 287T470 187T630 144T871 134ZM1331 1728V1920H1523V1728H1331ZM623 1728V1920H815V1728H623Z" />
<glyph unicode="&#xd7;" glyph-name="multiply" horiz-adv-x="1400" d="M383 341L247 477L564 794L247 1111L383 1247L700 930L1017 1247L1153 1111L836 794L1153 477L1017 341L700 658L383 341Z" />
<glyph unicode="&#xd8;" glyph-name="Oslash" horiz-adv-x="2145" d="M664 -254L538 -202L626 -22Q478 -7 381 37T229 169T151 397T128 748V788Q128 992 148 1130T217 1356T350 1489T563 1551T871 1568H1274Q1348 1568 1407 1566L1518 1792L1644 1740L1553 1556Q1691
1540 1781 1496T1922 1366T1995 1138T2017 788V748Q2017 501 1985 347T1871 111T1644 -1T1274 -32H871Q819 -32 774 -31L664 -254ZM320 748Q320 563 334 447T389 265T505 172T705 137L1326 1402Q1303 1402 1274 1402H871Q728 1402 630 1394T471 1355T377 1258T332
1078T320 788V748ZM871 134H1274Q1417 134 1515 144T1674 187T1768 287T1813 466T1825 748V788Q1825 972 1812 1088T1762 1269T1656 1362T1476 1398L855 134Q862 134 871 134Z" />
<glyph unicode="&#xd9;" glyph-name="Ugrave" horiz-adv-x="2120" d="M879 -32Q654 -32 509 -2T283 111T169 347T136 748V1536H328V748Q328 578 340 466T385 287T479 187T639 144T879 134H1241Q1384 134 1481 144T1640 187T1735 287T1780 466T1792 748V1536H1984V748Q1984
501 1952 347T1838 111T1611 -1T1241 -32H879ZM1410 1724L780 2128L898 2300L1474 1820L1410 1724Z" />
<glyph unicode="&#xda;" glyph-name="Uacute" horiz-adv-x="2120" d="M879 -32Q654 -32 509 -2T283 111T169 347T136 748V1536H328V748Q328 578 340 466T385 287T479 187T639 144T879 134H1241Q1384 134 1481 144T1640 187T1735 287T1780 466T1792 748V1536H1984V748Q1984
501 1952 347T1838 111T1611 -1T1241 -32H879ZM836 1726L772 1822L1348 2302L1466 2130L836 1726Z" />
<glyph unicode="&#xdb;" glyph-name="Ucircumflex" horiz-adv-x="2120" d="M879 -32Q654 -32 509 -2T283 111T169 347T136 748V1536H328V748Q328 578 340 466T385 287T479 187T639 144T879 134H1241Q1384 134 1481 144T1640 187T1735 287T1780 466T1792 748V1536H1984V748Q1984
501 1952 347T1838 111T1611 -1T1241 -32H879ZM772 1694L644 1790L964 2270H1156L1476 1790L1348 1694L1060 2142L772 1694Z" />
<glyph unicode="&#xdc;" glyph-name="Udieresis" horiz-adv-x="2120" d="M879 -32Q654 -32 509 -2T283 111T169 347T136 748V1536H328V748Q328 578 340 466T385 287T479 187T639 144T879 134H1241Q1384 134 1481 144T1640 187T1735 287T1780 466T1792 748V1536H1984V748Q1984
501 1952 347T1838 111T1611 -1T1241 -32H879ZM1318 1728V1920H1510V1728H1318ZM610 1728V1920H802V1728H610Z" />
<glyph unicode="&#xdd;" glyph-name="Yacute" horiz-adv-x="2176" d="M992 0V640L128 1536H384L1088 784L1792 1536H2048L1184 640V0H992ZM864 1726L800 1822L1376 2302L1494 2130L864 1726Z" />
<glyph unicode="&#xde;" glyph-name="Thorn" horiz-adv-x="1920" d="M128 0V1536H320V1344H1282Q1557 1344 1686 1294Q1750 1269 1784 1232Q1837 1176 1846 1090T1856 894Q1856 856 1855 821T1852 752Q1844 610 1768 538Q1640 416 1151 416H320V0H128ZM320 576H1151Q1412
576 1511 597Q1585 613 1621 652T1662 776Q1664 802 1664 841T1664 935Q1664 1021 1651 1067T1602 1135T1495 1170Q1419 1184 1151 1184H320V576Z" />
<glyph unicode="&#xdf;" glyph-name="germandbls" horiz-adv-x="2048" d="M128 -128V1058Q128 1180 148 1269T232 1417Q360 1536 769 1536H1280Q1560 1536 1680 1444Q1733 1404 1762 1339T1792 1186Q1792 1148 1791 1117T1784 1061Q1747 846 1600 832Q1735 825
1827 738T1920 471Q1920 353 1899 265T1816 119Q1688 0 1279 0H512V160H1215Q1296 160 1377 162T1528 175T1640 212Q1702 250 1715 322T1728 501Q1728 595 1694 646Q1669 684 1630 697T1528 722Q1449 736 1215 736H512V896H1223Q1321 896 1400 902T1530 946Q1573
977 1586 1032T1600 1162Q1600 1245 1574 1282T1487 1347Q1421 1376 1216 1376H833Q592 1376 500 1358Q440 1346 406 1324T346 1255Q320 1209 320 1058V-128H128Z" />
<glyph unicode="&#xe0;" glyph-name="agrave" horiz-adv-x="1560" d="M736 -22Q529 -22 395 -1T195 94T129 321Q129 478 190 551T385 647T736 669Q912 669 1031 661T1244 633Q1242 766 1226 842T1166 956T1038 1003T813 1014Q653 1014 563 1007T431 982T380 930T369
842H177Q177 950 206 1016T307 1116T501 1162T813 1174Q1015 1174 1138 1148T1326 1055T1413 866T1436 554V0H1244V79Q1210 43 1150 21T991 -11T736 -22ZM736 134Q907 134 1009 138T1161 160T1228 218T1244 330V507L736 513Q601 515 519 510T393 486T336 428T321
321Q321 256 335 218T393 162T518 139T736 134ZM1154 1340L524 1744L642 1916L1218 1436L1154 1340Z" />
<glyph unicode="&#xe1;" glyph-name="aacute" horiz-adv-x="1560" d="M736 -22Q529 -22 395 -1T195 94T129 321Q129 478 190 551T385 647T736 669Q912 669 1031 661T1244 633Q1242 766 1226 842T1166 956T1038 1003T813 1014Q653 1014 563 1007T431 982T380 930T369
842H177Q177 950 206 1016T307 1116T501 1162T813 1174Q1015 1174 1138 1148T1326 1055T1413 866T1436 554V0H1244V79Q1210 43 1150 21T991 -11T736 -22ZM736 134Q907 134 1009 138T1161 160T1228 218T1244 330V507L736 513Q601 515 519 510T393 486T336 428T321
321Q321 256 335 218T393 162T518 139T736 134ZM580 1342L516 1438L1092 1918L1210 1746L580 1342Z" />
<glyph unicode="&#xe2;" glyph-name="acircumflex" horiz-adv-x="1560" d="M736 -22Q529 -22 395 -1T195 94T129 321Q129 478 190 551T385 647T736 669Q912 669 1031 661T1244 633Q1242 766 1226 842T1166 956T1038 1003T813 1014Q653 1014 563 1007T431 982T380
930T369 842H177Q177 950 206 1016T307 1116T501 1162T813 1174Q1015 1174 1138 1148T1326 1055T1413 866T1436 554V0H1244V79Q1210 43 1150 21T991 -11T736 -22ZM736 134Q907 134 1009 138T1161 160T1228 218T1244 330V507L736 513Q601 515 519 510T393 486T336
428T321 321Q321 256 335 218T393 162T518 139T736 134ZM516 1310L388 1406L708 1886H900L1220 1406L1092 1310L804 1758L516 1310Z" />
<glyph unicode="&#xe3;" glyph-name="atilde" horiz-adv-x="1560" d="M736 -22Q529 -22 395 -1T195 94T129 321Q129 478 190 551T385 647T736 669Q912 669 1031 661T1244 633Q1242 766 1226 842T1166 956T1038 1003T813 1014Q653 1014 563 1007T431 982T380 930T369
842H177Q177 950 206 1016T307 1116T501 1162T813 1174Q1015 1174 1138 1148T1326 1055T1413 866T1436 554V0H1244V79Q1210 43 1150 21T991 -11T736 -22ZM736 134Q907 134 1009 138T1161 160T1228 218T1244 330V507L736 513Q601 515 519 510T393 486T336 428T321
321Q321 256 335 218T393 162T518 139T736 134ZM356 1342Q356 1466 429 1532T612 1599Q716 1599 831 1550Q864 1536 903 1519T982 1502Q1030 1502 1045 1520T1060 1598H1252Q1252 1465 1160 1396Q1088 1342 996 1342Q891 1342 777 1390Q744 1404 705 1421T626 1438Q575
1438 562 1420T548 1342H356Z" />
<glyph unicode="&#xe4;" glyph-name="adieresis" horiz-adv-x="1560" d="M736 -22Q529 -22 395 -1T195 94T129 321Q129 478 190 551T385 647T736 669Q912 669 1031 661T1244 633Q1242 766 1226 842T1166 956T1038 1003T813 1014Q653 1014 563 1007T431 982T380
930T369 842H177Q177 950 206 1016T307 1116T501 1162T813 1174Q1015 1174 1138 1148T1326 1055T1413 866T1436 554V0H1244V79Q1210 43 1150 21T991 -11T736 -22ZM736 134Q907 134 1009 138T1161 160T1228 218T1244 330V507L736 513Q601 515 519 510T393 486T336
428T321 321Q321 256 335 218T393 162T518 139T736 134ZM1062 1344V1536H1254V1344H1062ZM354 1344V1536H546V1344H354Z" />
<glyph unicode="&#xe5;" glyph-name="aring" horiz-adv-x="1560" d="M736 -22Q529 -22 395 -1T195 94T129 321Q129 478 190 551T385 647T736 669Q912 669 1031 661T1244 633Q1242 766 1226 842T1166 956T1038 1003T813 1014Q653 1014 563 1007T431 982T380 930T369
842H177Q177 950 206 1016T307 1116T501 1162T813 1174Q1015 1174 1138 1148T1326 1055T1413 866T1436 554V0H1244V79Q1210 43 1150 21T991 -11T736 -22ZM736 134Q907 134 1009 138T1161 160T1228 218T1244 330V507L736 513Q601 515 519 510T393 486T336 428T321
321Q321 256 335 218T393 162T518 139T736 134ZM804 1340Q638 1340 545 1426T452 1660Q452 1814 549 1897T804 1980Q970 1980 1063 1894T1156 1660Q1156 1506 1059 1423T804 1340ZM804 1468Q913 1468 968 1538Q996 1573 996 1660Q996 1756 951 1804T804 1852Q695
1852 640 1782Q612 1747 612 1660Q612 1564 658 1516T804 1468Z" />
<glyph unicode="&#xe6;" glyph-name="ae" horiz-adv-x="2752" d="M762 -36Q648 -36 536 -24T332 24T184 128T128 309Q128 562 304 637Q408 682 542 687Q674 693 763 693Q861 693 967 683T1160 646T1280 572Q1280 745 1248 851T1100 993Q1027 1016 863 1016Q783
1016 721 1014T615 1008Q512 998 448 959T384 807H192Q192 1012 332 1092Q476 1176 834 1176Q1060 1176 1153 1142Q1240 1109 1291 1065T1382 941Q1444 1079 1584 1127T1925 1176Q2124 1176 2222 1157Q2431 1117 2527 992T2624 606L2608 539H1472V511Q1474 394
1498 311T1590 187Q1660 144 1760 136T1980 128Q2048 128 2103 130T2202 136Q2306 146 2369 185T2432 337H2624Q2624 135 2484 52Q2339 -32 2016 -32Q1874 -32 1752 -19T1536 34T1382 154Q1281 15 984 -26Q944 -31 889 -33T762 -36ZM1472 673H2432Q2432 771 2406
842T2328 949Q2233 1016 1972 1016Q1864 1016 1767 1008T1600 965T1498 853Q1472 786 1472 673ZM814 128Q935 128 1023 135T1184 178Q1232 202 1256 243T1280 337Q1280 440 1170 480Q1056 522 770 522Q480 522 414 498Q359 476 340 444T320 337Q320 268 339 227T409
166Q459 145 564 136Q615 132 678 130T814 128Z" />
<glyph unicode="&#xe7;" glyph-name="ccedilla" horiz-adv-x="1571" d="M801 -22Q608 -22 473 -3T255 77T134 259T96 582Q96 778 134 896T255 1074T473 1154T801 1174Q1032 1174 1181 1148T1403 1039T1475 789H1291Q1291 886 1251 934T1105 998T801 1014Q623 1014
519 999T366 941T303 811T288 582Q288 434 302 345T366 212T519 153T801 138Q952 138 1048 146T1197 180T1270 254T1291 384H1475Q1475 250 1435 169T1313 47T1104 -8T801 -22ZM707 -544V-384Q753 -384 797 -379T870 -356T899 -300Q899 -253 846 -239T707 -224V64H835V-128Q963
-128 1027 -171T1091 -318Q1091 -405 1043 -454T908 -524T707 -544Z" />
<glyph unicode="&#xe8;" glyph-name="egrave" horiz-adv-x="1567" d="M1447 342Q1447 213 1409 139T1291 31T1090 -12T798 -22Q605 -22 471 -3T254 77T134 259T96 582Q96 778 132 896T251 1074T466 1154T793 1174Q1014 1174 1159 1143T1375 1025T1447 770V523H289Q290
395 307 318T375 202T527 151T798 138Q950 138 1043 144T1185 170T1251 232T1268 342H1447ZM793 1014Q630 1014 531 1002T379 956T309 853T289 674H1263V770Q1263 842 1247 889T1182 964T1041 1003T793 1014ZM1134 1340L504 1744L622 1916L1198 1436L1134 1340Z"
/>
<glyph unicode="&#xe9;" glyph-name="eacute" horiz-adv-x="1567" d="M1447 342Q1447 213 1409 139T1291 31T1090 -12T798 -22Q605 -22 471 -3T254 77T134 259T96 582Q96 778 132 896T251 1074T466 1154T793 1174Q1014 1174 1159 1143T1375 1025T1447 770V523H289Q290
395 307 318T375 202T527 151T798 138Q950 138 1043 144T1185 170T1251 232T1268 342H1447ZM793 1014Q630 1014 531 1002T379 956T309 853T289 674H1263V770Q1263 842 1247 889T1182 964T1041 1003T793 1014ZM560 1342L496 1438L1072 1918L1190 1746L560 1342Z"
/>
<glyph unicode="&#xea;" glyph-name="ecircumflex" horiz-adv-x="1567" d="M1447 342Q1447 213 1409 139T1291 31T1090 -12T798 -22Q605 -22 471 -3T254 77T134 259T96 582Q96 778 132 896T251 1074T466 1154T793 1174Q1014 1174 1159 1143T1375 1025T1447 770V523H289Q290
395 307 318T375 202T527 151T798 138Q950 138 1043 144T1185 170T1251 232T1268 342H1447ZM793 1014Q630 1014 531 1002T379 956T309 853T289 674H1263V770Q1263 842 1247 889T1182 964T1041 1003T793 1014ZM496 1310L368 1406L688 1886H880L1200 1406L1072 1310L784
1758L496 1310Z" />
<glyph unicode="&#xeb;" glyph-name="edieresis" horiz-adv-x="1567" d="M1447 342Q1447 213 1409 139T1291 31T1090 -12T798 -22Q605 -22 471 -3T254 77T134 259T96 582Q96 778 132 896T251 1074T466 1154T793 1174Q1014 1174 1159 1143T1375 1025T1447 770V523H289Q290
395 307 318T375 202T527 151T798 138Q950 138 1043 144T1185 170T1251 232T1268 342H1447ZM793 1014Q630 1014 531 1002T379 956T309 853T289 674H1263V770Q1263 842 1247 889T1182 964T1041 1003T793 1014ZM1042 1344V1536H1234V1344H1042ZM334 1344V1536H526V1344H334Z"
/>
<glyph unicode="&#xec;" glyph-name="igrave" horiz-adv-x="448" d="M128 0V1088H320V0H128ZM574 1340L-56 1744L62 1916L638 1436L574 1340Z" />
<glyph unicode="&#xed;" glyph-name="iacute" horiz-adv-x="448" d="M128 0V1088H320V0H128ZM0 1342L-64 1438L512 1918L630 1746L0 1342Z" />
<glyph unicode="&#xee;" glyph-name="icircumflex" horiz-adv-x="448" d="M128 0V1088H320V0H128ZM-64 1310L-192 1406L128 1886H320L640 1406L512 1310L224 1758L-64 1310Z" />
<glyph unicode="&#xef;" glyph-name="idieresis" horiz-adv-x="448" d="M128 0V1088H320V0H128ZM482 1344V1536H674V1344H482ZM-226 1344V1536H-34V1344H-226Z" />
<glyph unicode="&#xf0;" glyph-name="eth" horiz-adv-x="1984" d="M831 -32Q419 -32 264 88Q190 146 159 233T128 448Q128 566 157 658Q192 767 286 825T512 906T794 928Q883 928 955 928T1083 926Q1530 915 1664 832Q1664 1021 1631 1136L1324 1026L1281 1146L1579
1253Q1539 1312 1487 1340T1351 1388Q1260 1408 1024 1408Q719 1408 566 1369Q492 1350 448 1324Q397 1293 375 1251T352 1120H193Q193 1276 252 1364Q314 1456 432 1499T700 1555T1006 1568Q1166 1568 1278 1553Q1605 1510 1739 1311L2004 1406L2047 1286L1796
1196Q1856 1037 1856 768Q1856 700 1855 638T1852 520Q1847 353 1802 234T1648 54Q1494 -32 1152 -32H831ZM831 128H1152Q1284 128 1390 138T1566 200Q1628 246 1646 324T1664 514Q1664 636 1613 682Q1574 718 1514 732T1376 754Q1269 765 1136 766T876 768H821Q720
768 648 765T500 742Q442 728 407 704T346 632Q320 586 320 448Q320 346 337 288T399 199T524 148Q607 128 831 128Z" />
<glyph unicode="&#xf1;" glyph-name="ntilde" horiz-adv-x="1601" d="M132 0V1152H324V999Q367 1057 430 1096T600 1154T880 1174Q1106 1174 1236 1130T1422 973T1477 653V0H1284V653Q1284 771 1264 843T1196 952T1062 1001T846 1014Q646 1014 532 981T371 878T324
694V0H132ZM353 1342Q353 1466 426 1532T609 1599Q713 1599 828 1550Q861 1536 900 1519T979 1502Q1027 1502 1042 1520T1057 1598H1249Q1249 1465 1157 1396Q1085 1342 993 1342Q888 1342 774 1390Q741 1404 702 1421T623 1438Q572 1438 559 1420T545 1342H353Z"
/>
<glyph unicode="&#xf2;" glyph-name="ograve" horiz-adv-x="1602" d="M801 -22Q608 -22 473 -3T255 77T134 259T96 582Q96 778 134 896T255 1074T473 1154T801 1174Q995 1174 1129 1154T1347 1074T1468 896T1506 582Q1506 380 1468 259T1347 78T1130 -2T801 -22ZM1314
582Q1314 725 1300 811T1236 940T1084 999T801 1014Q623 1014 519 999T366 941T303 811T288 582Q288 434 302 345T366 212T519 153T801 138Q980 138 1083 152T1236 211T1299 345T1314 582ZM1151 1340L521 1744L639 1916L1215 1436L1151 1340Z" />
<glyph unicode="&#xf3;" glyph-name="oacute" horiz-adv-x="1602" d="M801 -22Q608 -22 473 -3T255 77T134 259T96 582Q96 778 134 896T255 1074T473 1154T801 1174Q995 1174 1129 1154T1347 1074T1468 896T1506 582Q1506 380 1468 259T1347 78T1130 -2T801 -22ZM1314
582Q1314 725 1300 811T1236 940T1084 999T801 1014Q623 1014 519 999T366 941T303 811T288 582Q288 434 302 345T366 212T519 153T801 138Q980 138 1083 152T1236 211T1299 345T1314 582ZM577 1342L513 1438L1089 1918L1207 1746L577 1342Z" />
<glyph unicode="&#xf4;" glyph-name="ocircumflex" horiz-adv-x="1602" d="M801 -22Q608 -22 473 -3T255 77T134 259T96 582Q96 778 134 896T255 1074T473 1154T801 1174Q995 1174 1129 1154T1347 1074T1468 896T1506 582Q1506 380 1468 259T1347 78T1130 -2T801
-22ZM1314 582Q1314 725 1300 811T1236 940T1084 999T801 1014Q623 1014 519 999T366 941T303 811T288 582Q288 434 302 345T366 212T519 153T801 138Q980 138 1083 152T1236 211T1299 345T1314 582ZM513 1310L385 1406L705 1886H897L1217 1406L1089 1310L801 1758L513
1310Z" />
<glyph unicode="&#xf5;" glyph-name="otilde" horiz-adv-x="1602" d="M801 -22Q608 -22 473 -3T255 77T134 259T96 582Q96 778 134 896T255 1074T473 1154T801 1174Q995 1174 1129 1154T1347 1074T1468 896T1506 582Q1506 380 1468 259T1347 78T1130 -2T801 -22ZM1314
582Q1314 725 1300 811T1236 940T1084 999T801 1014Q623 1014 519 999T366 941T303 811T288 582Q288 434 302 345T366 212T519 153T801 138Q980 138 1083 152T1236 211T1299 345T1314 582ZM353 1342Q353 1466 426 1532T609 1599Q713 1599 828 1550Q861 1536 900
1519T979 1502Q1027 1502 1042 1520T1057 1598H1249Q1249 1465 1157 1396Q1085 1342 993 1342Q888 1342 774 1390Q741 1404 702 1421T623 1438Q572 1438 559 1420T545 1342H353Z" />
<glyph unicode="&#xf6;" glyph-name="odieresis" horiz-adv-x="1602" d="M801 -22Q608 -22 473 -3T255 77T134 259T96 582Q96 778 134 896T255 1074T473 1154T801 1174Q995 1174 1129 1154T1347 1074T1468 896T1506 582Q1506 380 1468 259T1347 78T1130 -2T801
-22ZM1314 582Q1314 725 1300 811T1236 940T1084 999T801 1014Q623 1014 519 999T366 941T303 811T288 582Q288 434 302 345T366 212T519 153T801 138Q980 138 1083 152T1236 211T1299 345T1314 582ZM1059 1344V1536H1251V1344H1059ZM351 1344V1536H543V1344H351Z"
/>
<glyph unicode="&#xf7;" glyph-name="divide" horiz-adv-x="1400" d="M604 982V1174H796V982H604ZM188 633V793H1212V633H188ZM604 253V445H796V253H604Z" />
<glyph unicode="&#xf8;" glyph-name="oslash" horiz-adv-x="1602" d="M515 -233L398 -190L482 -5Q343 16 258 76T135 257T96 582Q96 778 134 896T255 1074T473 1154T801 1174Q860 1174 913 1173T1014 1168L1116 1392L1233 1349L1144 1152Q1274 1129 1353 1069T1469
891T1506 582Q1506 380 1468 259T1347 78T1130 -2T801 -22Q750 -22 703 -21T613 -18L515 -233ZM288 582Q288 426 303 336T375 204T551 148L943 1012Q912 1013 876 1013T801 1014Q623 1014 519 999T366 941T303 811T288 582ZM1314 582Q1314 726 1300 812T1235 941T1075
1001L684 139Q734 138 801 138Q980 138 1083 152T1236 211T1299 345T1314 582Z" />
<glyph unicode="&#xf9;" glyph-name="ugrave" horiz-adv-x="1601" d="M720 -22Q494 -22 364 27T179 193T124 512V1152H317V512Q317 398 335 325T401 211T533 154T754 138Q954 138 1068 171T1229 274T1277 458V1152H1469V0H1277V153Q1235 95 1171 56T1000 -2T720
-22ZM1151 1340L521 1744L639 1916L1215 1436L1151 1340Z" />
<glyph unicode="&#xfa;" glyph-name="uacute" horiz-adv-x="1601" d="M720 -22Q494 -22 364 27T179 193T124 512V1152H317V512Q317 398 335 325T401 211T533 154T754 138Q954 138 1068 171T1229 274T1277 458V1152H1469V0H1277V153Q1235 95 1171 56T1000 -2T720
-22ZM577 1342L513 1438L1089 1918L1207 1746L577 1342Z" />
<glyph unicode="&#xfb;" glyph-name="ucircumflex" horiz-adv-x="1601" d="M720 -22Q494 -22 364 27T179 193T124 512V1152H317V512Q317 398 335 325T401 211T533 154T754 138Q954 138 1068 171T1229 274T1277 458V1152H1469V0H1277V153Q1235 95 1171 56T1000
-2T720 -22ZM513 1310L385 1406L705 1886H897L1217 1406L1089 1310L801 1758L513 1310Z" />
<glyph unicode="&#xfc;" glyph-name="udieresis" horiz-adv-x="1601" d="M720 -22Q494 -22 364 27T179 193T124 512V1152H317V512Q317 398 335 325T401 211T533 154T754 138Q954 138 1068 171T1229 274T1277 458V1152H1469V0H1277V153Q1235 95 1171 56T1000 -2T720
-22ZM1059 1344V1536H1251V1344H1059ZM351 1344V1536H543V1344H351Z" />
<glyph unicode="&#xfd;" glyph-name="yacute" horiz-adv-x="1568" d="M308 -384V-224Q411 -224 478 -220T591 -195T673 -128T750 0H686L46 1152H266L814 143L1275 1152H1500L916 -64Q877 -145 836 -205T732 -305T568 -364T308 -384ZM560 1342L496 1438L1072 1918L1190
1746L560 1342Z" />
<glyph unicode="&#xfe;" glyph-name="thorn" horiz-adv-x="1600" d="M128 -384V1536H320V961Q358 1027 445 1061T649 1108T886 1120Q1025 1120 1158 1093Q1361 1053 1448 921T1536 544Q1536 383 1500 270T1376 88Q1296 25 1162 -3T886 -32Q817 -32 766 -31T682
-25Q387 7 320 128V-384H128ZM786 128H900Q1064 128 1164 158Q1226 177 1259 206T1318 295Q1344 358 1344 544Q1344 732 1312 808Q1281 882 1210 913T1043 952T840 960Q788 960 744 959T661 956Q434 944 368 824Q320 737 320 547Q320 356 368 266Q403 202 463 173T606
136T786 128Z" />
<glyph unicode="&#xff;" glyph-name="ydieresis" horiz-adv-x="1568" d="M308 -384V-224Q411 -224 478 -220T591 -195T673 -128T750 0H686L46 1152H266L814 143L1275 1152H1500L916 -64Q877 -145 836 -205T732 -305T568 -364T308 -384ZM1042 1344V1536H1234V1344H1042ZM334
1344V1536H526V1344H334Z" />
<glyph unicode="&#x2013;" glyph-name="endash" horiz-adv-x="1088" d="M128 512V672H960V512H128Z" />
<glyph unicode="&#x2014;" glyph-name="emdash" horiz-adv-x="1088" d="M0 512V672H1088V512H0Z" />
<glyph unicode="&#x2018;" glyph-name="quoteleft" horiz-adv-x="512" d="M128 1152L192 1536H384L256 1152H128Z" />
<glyph unicode="&#x2019;" glyph-name="quoteright" horiz-adv-x="512" d="M128 1152L192 1536H384L256 1152H128Z" />
<glyph unicode="&#x201a;" glyph-name="quotesinglbase" horiz-adv-x="448" d="M64 -256L128 128H320L192 -256H64Z" />
<glyph unicode="&#x201c;" glyph-name="quotedblleft" horiz-adv-x="768" d="M384 1152L448 1536H640L512 1152H384ZM128 1152L192 1536H384L256 1152H128Z" />
<glyph unicode="&#x201d;" glyph-name="quotedblright" horiz-adv-x="832" d="M448 1152L512 1536H704L576 1152H448ZM128 1152L192 1536H384L256 1152H128Z" />
<glyph unicode="&#x201e;" glyph-name="quotedblbase" horiz-adv-x="832" d="M448 -192L512 192H704L576 -192H448ZM128 -192L192 192H384L256 -192H128Z" />
<glyph unicode="&#x2022;" glyph-name="bullet" horiz-adv-x="1280" d="M640 256Q384 256 384 512Q384 768 640 768Q896 768 896 512Q896 385 830 321T640 256Z" />
<glyph unicode="&#x2039;" glyph-name="guilsinglleft" horiz-adv-x="896" d="M672 128L128 512V704L672 1088L768 960L256 608L768 256L672 128Z" />
<glyph unicode="&#x203a;" glyph-name="guilsinglright" horiz-adv-x="896" d="M224 128L128 256L640 608L128 960L224 1088L768 704V512L224 128Z" />
</font>
</defs>
</svg>
