<?xml version="1.0" standalone="no"?>
<!DOCTYPE svg PUBLIC "-//W3C//DTD SVG 1.1//EN" "http://www.w3.org/Graphics/SVG/1.1/DTD/svg11.dtd">
<svg xmlns="http://www.w3.org/2000/svg">
<defs >
<font id="Fahkwang" horiz-adv-x="628" ><font-face
    font-family="Fahkwang"
    units-per-em="1000"
    panose-1="0 0 5 0 0 0 0 0 0 0"
    ascent="1008"
    descent="-292"
    alphabetic="0" />
<glyph unicode=" " glyph-name="space" horiz-adv-x="266" />
<glyph unicode="!" glyph-name="exclam" horiz-adv-x="248" d="M107 214T93 354Q72 566 74 658Q75 689 88 705T124 722Q148 722 161 706T174 658Q174 587 166 485T155 364Q144 247 138 150H110Q107 214 93 354ZM99 -10T84 5T68 46Q68 70 83 85T124 101Q149 101
164 86T180 46Q180 21 165 6T124 -10Q99 -10 84 5Z" />
<glyph unicode="&quot;" glyph-name="quotedbl" horiz-adv-x="353" d="M70 476T61 563Q52 649 52 665Q52 686 62 698T91 710Q109 710 119 698T130 664Q130 649 121 564Q112 476 104 382H78Q70 476 61 563ZM241 476T232 563Q223 649 223 665Q223 686 233 698T262
710Q280 710 290 698T301 664Q301 649 292 564Q283 476 275 382H249Q241 476 232 563Z" />
<glyph unicode="#" glyph-name="numbersign" horiz-adv-x="641" d="M474 416L451 255H561V213H446L416 0H356L386 213H231L201 0H141L171 213H52V255H176L199 416H80V458H204L234 671H294L264 458H419L449 671H509L479 458H589V416H474ZM414 416H259L236 255H391L414
416Z" />
<glyph unicode="$" glyph-name="dollar" horiz-adv-x="764" d="M706 98T625 45T405 -10V-116H352V-9Q219 -1 143 57T58 217H148Q155 125 214 82T390 38Q493 38 547 74T602 177Q602 217 581 244T510 292T368 331Q223 359 150 403T76 529Q76 615 151 660T352 709V819H405V710Q533
706 604 657T687 523H598Q583 596 528 629T374 662Q279 662 230 631T180 545Q180 512 199 489T265 447T401 410Q509 388 574 362T673 295T706 189Q706 98 625 45Z" />
<glyph unicode="%" glyph-name="percent" horiz-adv-x="1006" d="M147 285T96 340T44 498Q44 599 95 654T241 710Q335 710 386 655T437 498Q437 396 386 341T241 285Q147 285 96 340ZM260 0L672 700H751L339 0H260ZM292 327T319 371T347 498Q347 581 320 625T241
669Q190 669 162 625T134 498Q134 415 162 371T241 327Q292 327 319 371ZM671 -10T620 45T569 202Q569 304 620 359T765 415Q859 415 910 360T962 202Q962 101 911 46T765 -10Q671 -10 620 45ZM816 31T844 75T872 202Q872 285 844 329T765 373Q714 373 687 329T659
202Q659 119 686 75T765 31Q816 31 844 75Z" />
<glyph unicode="&amp;" glyph-name="ampersand" horiz-adv-x="758" d="M623 0Q589 24 545 62Q498 28 438 9T312 -10Q188 -10 118 40T48 178Q48 250 91 303T226 395Q188 441 170 476T152 553Q152 625 199 667T328 710Q406 710 452 677T498 585Q498 522 454 482T323
400Q437 262 560 149Q594 203 594 272Q594 314 583 350H668Q671 326 671 310Q671 254 653 204T600 114Q678 45 748 0H623ZM279 672T256 644T232 567Q232 535 246 505T294 432Q344 461 372 499T401 578Q401 622 380 647T320 672Q279 672 256 644ZM434 32T510 92Q378
210 253 361Q153 299 153 186Q153 113 197 73T320 32Q434 32 510 92Z" />
<glyph unicode="&apos;" glyph-name="quotesingle" horiz-adv-x="182" d="M70 476T61 563Q52 649 52 665Q52 686 62 698T91 710Q109 710 119 698T130 664Q130 649 121 564Q112 476 104 382H78Q70 476 61 563Z" />
<glyph unicode="(" glyph-name="parenleft" horiz-adv-x="301" d="M128 -23T87 83T45 309Q45 428 86 531T220 750H268Q203 638 175 536T147 309Q147 180 176 73T268 -139H220Q128 -23 87 83Z" />
<glyph unicode=")" glyph-name="parenright" horiz-adv-x="301" d="M33 -139Q96 -34 125 73T154 309Q154 434 126 536T33 750H81Q174 635 215 532T256 309Q256 189 215 83T81 -139H33Z" />
<glyph unicode="*" glyph-name="asterisk" horiz-adv-x="465" d="M92 391L208 505L51 532L78 609L217 535L190 700H272L246 534L389 609L414 532L255 505L374 391L307 338L232 489L158 338L92 391Z" />
<glyph unicode="+" glyph-name="plus" horiz-adv-x="660" d="M289 256H44V314H289V570H371V314H616V256H371V0H289V256Z" />
<glyph unicode="," glyph-name="comma" horiz-adv-x="208" d="M61 -128Q87 -107 103 -72T119 1Q109 -5 97 -5Q75 -5 61 9T47 45Q47 68 61 82T101 97Q129 97 145 77T161 19Q161 -28 137 -73T76 -140L61 -128Z" />
<glyph unicode="-" glyph-name="hyphen" horiz-adv-x="461" d="M52 277H409V235H52V277Z" />
<glyph unicode="." glyph-name="period" horiz-adv-x="207" d="M78 -10T63 5T47 45Q47 68 63 83T103 99Q128 99 144 84T160 45Q160 21 144 6T103 -10Q78 -10 63 5Z" />
<glyph unicode="/" glyph-name="slash" horiz-adv-x="329" d="M281 721H333L48 -22H-4L281 721Z" />
<glyph unicode="0" glyph-name="zero" horiz-adv-x="695" d="M192 -10T108 83T23 350Q23 523 107 616T348 710Q503 710 587 617T672 350Q672 177 588 84T348 -10Q192 -10 108 83ZM452 32T509 115T567 350Q567 502 510 585T348 668Q244 668 187 585T129 350Q129
198 186 115T348 32Q452 32 509 115Z" />
<glyph unicode="1" glyph-name="one" horiz-adv-x="696" d="M337 546H155V585Q229 587 282 616T359 700H439V0H337V546Z" />
<glyph unicode="2" glyph-name="two" horiz-adv-x="695" d="M59 74T121 137T314 268Q393 310 438 345T503 416T523 499Q523 579 475 621T337 664Q244 664 191 618T135 490H45Q57 592 137 651T342 710Q427 710 491 684T592 610T628 500Q628 449 603 407T521 321T361
224Q292 187 254 160T197 107T172 46H642V0H51Q59 74 121 137Z" />
<glyph unicode="3" glyph-name="three" horiz-adv-x="695" d="M214 -10T133 42T47 186H136Q140 113 196 73T350 33Q448 33 500 75T552 198Q552 276 501 313T341 350Q271 350 213 339V396Q248 390 308 390Q403 390 461 429T519 534Q519 596 471 631T339 667Q248
667 192 626T131 514H41Q43 572 81 616T186 685T339 710Q422 710 487 688T588 625T624 533Q624 478 582 436T465 375Q657 347 657 199Q657 101 576 46T352 -10Q214 -10 133 42Z" />
<glyph unicode="4" glyph-name="four" horiz-adv-x="695" d="M449 119H38V154L506 710H553V164H663V119H553V0H449V119ZM449 164V554L124 164H449Z" />
<glyph unicode="5" glyph-name="five" horiz-adv-x="695" d="M206 -10T131 41T51 186H156Q160 114 209 74T340 33Q436 33 490 81T544 217Q544 305 489 355T335 405Q237 405 159 347H68L105 700H615V655H205L178 408Q251 450 354 450Q443 450 510 422T613 342T649
222Q649 113 567 52T340 -10Q206 -10 131 41Z" />
<glyph unicode="6" glyph-name="six" horiz-adv-x="696" d="M463 475T527 446T627 364T663 239Q663 166 625 110T518 22T359 -10Q204 -10 118 80T32 336Q32 451 73 535T190 665T370 710Q440 710 498 688T594 627T645 535H556Q534 600 486 633T368 667Q298 667
246 630T164 526T135 370V353Q167 411 231 443T377 475Q463 475 527 446ZM450 33T504 86T558 231Q558 322 504 376T359 431Q269 431 216 377T162 231Q162 139 215 86T359 33Q450 33 504 86Z" />
<glyph unicode="7" glyph-name="seven" horiz-adv-x="695" d="M189 79T211 151T284 304T421 486Q478 553 500 590T524 655H49V700H640Q640 660 614 615T512 482Q393 341 344 233T294 0H189Q189 79 211 151Z" />
<glyph unicode="8" glyph-name="eight" horiz-adv-x="696" d="M562 351T616 304T671 193Q671 132 631 86T516 15T342 -10Q245 -10 174 14T64 82T25 186Q25 256 78 307T224 380Q143 413 105 451T67 538Q67 617 144 663T353 710Q434 710 496 690T592 634T626 549Q626
497 577 456T443 392Q562 351 616 304ZM172 511T218 479T378 413Q446 438 483 476T521 556Q521 605 472 636T345 667Q267 667 220 637T172 556Q172 511 218 479ZM447 33T506 74T565 184Q565 219 543 245T470 295T333 343L295 355Q215 336 173 296T130 197Q130 123
190 78T349 33Q447 33 506 74Z" />
<glyph unicode="9" glyph-name="nine" horiz-adv-x="696" d="M491 710T577 620T663 364Q663 249 622 165T505 35T325 -10Q256 -10 198 12T101 73T50 165H139Q161 101 209 67T327 33Q397 33 450 70T531 174T560 330V339Q528 286 463 256T318 225Q232 225 168 254T68
336T32 461Q32 534 70 590T177 678T336 710Q491 710 577 620ZM427 269T480 323T533 469Q533 561 480 614T336 667Q245 667 191 614T137 469Q137 378 191 324T336 269Q427 269 480 323Z" />
<glyph unicode=":" glyph-name="colon" horiz-adv-x="207" d="M78 -10T63 5T47 45Q47 68 63 83T103 99Q128 99 144 84T160 45Q160 21 144 6T103 -10Q78 -10 63 5ZM78 390T63 405T47 445Q47 468 63 483T103 499Q128 499 144 484T160 445Q160 421 144 406T103 390Q78
390 63 405Z" />
<glyph unicode=";" glyph-name="semicolon" horiz-adv-x="208" d="M80 390T65 405T49 445Q49 468 65 483T105 499Q130 499 146 484T162 445Q162 421 146 406T105 390Q80 390 65 405ZM61 -128Q87 -107 103 -72T119 1Q109 -5 97 -5Q75 -5 61 9T47 45Q47 68 61 82T101
97Q129 97 145 77T161 19Q161 -28 137 -73T76 -140L61 -128Z" />
<glyph unicode="&lt;" glyph-name="less" horiz-adv-x="660" d="M49 264V320L611 583V512L135 292L611 72V1L49 264Z" />
<glyph unicode="=" glyph-name="equal" horiz-adv-x="660" d="M44 412H616V355H44V412ZM44 215H616V158H44V215Z" />
<glyph unicode="&gt;" glyph-name="greater" horiz-adv-x="660" d="M49 72L525 292L49 512V583L611 320V264L49 1V72Z" />
<glyph unicode="?" glyph-name="question" horiz-adv-x="542" d="M256 231T274 283T337 383Q368 417 385 451T402 527Q402 591 367 628T271 666Q207 666 170 627T126 513H39Q47 605 108 657T270 710Q379 710 441 661T503 524Q503 474 478 437T398 353Q345 308
319 263T292 153H256Q256 231 274 283ZM250 -10T235 5T219 46Q219 70 234 85T274 101Q299 101 314 86T330 46Q330 21 315 6T274 -10Q250 -10 235 5Z" />
<glyph unicode="@" glyph-name="at" horiz-adv-x="861" d="M255 -114T152 -27T48 226Q48 343 98 431T239 566T454 614Q565 614 646 576T770 467T813 297Q813 224 789 169T722 84T621 54Q575 54 546 74T510 132Q489 96 457 77T384 58Q326 58 292 92T258 195Q258
264 281 318T348 403T447 434Q481 434 506 417T540 370L575 422H628L612 370Q594 312 579 246T563 148Q563 119 577 106T622 92Q682 92 717 148T753 301Q753 381 716 442T611 538T454 572Q356 572 284 531T172 411T132 226Q132 83 212 4T443 -76Q500 -76 570 -62T680
-26L688 -58Q647 -82 577 -98T447 -114Q255 -114 152 -27ZM434 100T461 132T503 212T517 303Q517 340 501 366T455 392Q423 392 396 364T354 289T338 189Q338 141 355 121T397 100Q434 100 461 132Z" />
<glyph unicode="A" glyph-name="A" horiz-adv-x="779" d="M573 182H170L79 0H9L373 710H427L770 0H658L573 182ZM550 230L378 598L194 230H550Z" />
<glyph unicode="B" glyph-name="B" horiz-adv-x="750" d="M74 700H400Q526 700 600 656T674 536Q674 471 621 425T482 365Q596 354 656 313T716 188Q716 97 641 49T424 0H74V700ZM362 387Q463 387 517 423T571 530Q571 592 520 622T365 652H178V387H362ZM434 48Q518
48 565 86T612 193Q612 266 548 302T356 339H178V48H434Z" />
<glyph unicode="C" glyph-name="C" horiz-adv-x="807" d="M247 -10T151 84T55 353Q55 524 150 617T424 710Q569 710 660 649T768 479H678Q661 565 595 613T429 662Q299 662 230 582T160 353Q160 201 230 120T431 38Q531 38 596 86T678 221H768Q751 112 660 51T426
-10Q247 -10 151 84Z" />
<glyph unicode="D" glyph-name="D" horiz-adv-x="803" d="M75 700H347Q543 700 645 614T747 362Q747 189 645 95T353 0H75V700ZM367 48Q500 48 571 129T643 362Q643 505 573 578T367 652H179V48H367Z" />
<glyph unicode="E" glyph-name="E" horiz-adv-x="695" d="M74 700H667V652H178V399H610V352H178V48H667V0H74V700Z" />
<glyph unicode="F" glyph-name="F" horiz-adv-x="656" d="M74 700H648V652H178V399H581V352H178V0H74V700Z" />
<glyph unicode="G" glyph-name="G" horiz-adv-x="831" d="M321 -10T234 32T101 156T55 349Q55 461 100 542T230 666T432 710Q574 710 665 649T776 479H686Q668 567 603 614T435 662Q306 662 233 580T160 350Q160 201 234 120T444 38Q507 38 559 51T658 94V321H413V366H762V87Q703
40 622 15T443 -10Q321 -10 234 32Z" />
<glyph unicode="H" glyph-name="H" horiz-adv-x="805" d="M74 700H178V399H627V700H731V0H627V352H178V0H74V700Z" />
<glyph unicode="I" glyph-name="I" horiz-adv-x="334" d="M115 700H219V0H115V700Z" />
<glyph unicode="J" glyph-name="J" horiz-adv-x="571" d="M143 -10T83 35T18 165H113Q115 100 151 69T254 37Q322 37 357 76T393 192V700H497V212Q497 104 435 47T253 -10Q143 -10 83 35Z" />
<glyph unicode="K" glyph-name="K" horiz-adv-x="705" d="M302 344L178 220V0H74V700H178V313L569 700H659L372 414L690 0H567L302 344Z" />
<glyph unicode="L" glyph-name="L" horiz-adv-x="636" d="M74 700H178V48H618V0H74V700Z" />
<glyph unicode="M" glyph-name="M" horiz-adv-x="928" d="M853 700V0H749V588L477 0H428L136 596V0H74V700H193L472 124L739 700H853Z" />
<glyph unicode="N" glyph-name="N" horiz-adv-x="767" d="M74 700H179L605 157V700H693V0H641L162 609V0H74V700Z" />
<glyph unicode="O" glyph-name="O" horiz-adv-x="865" d="M315 -10T230 33T100 157T55 353Q55 465 100 545T230 668T433 710Q551 710 635 668T765 546T810 353Q810 239 765 158T636 33T433 -10Q315 -10 230 33ZM563 38T634 120T705 353Q705 501 635 581T433 662Q302
662 231 582T160 353Q160 202 231 120T433 38Q563 38 634 120Z" />
<glyph unicode="P" glyph-name="P" horiz-adv-x="664" d="M74 700H339Q483 700 562 647T641 485Q641 377 563 324T339 271H178V0H74V700ZM341 319Q537 319 537 485Q537 652 341 652H178V319H341Z" />
<glyph unicode="Q" glyph-name="Q" horiz-adv-x="865" d="M477 -72T538 -108T686 -145Q704 -145 722 -142L713 -172Q677 -178 644 -178Q579 -178 521 -157T421 -96T364 -6Q217 12 136 105T55 353Q55 465 100 545T230 668T433 710Q551 710 635 668T765 546T810
353Q810 188 718 94T461 -9Q477 -72 538 -108ZM160 202T231 120T433 38Q563 38 634 120T705 353Q705 501 635 581T433 662Q302 662 231 582T160 353Q160 202 231 120Z" />
<glyph unicode="R" glyph-name="R" horiz-adv-x="701" d="M631 89T650 55T689 8V0H580Q563 19 549 48T517 122Q489 196 460 236T389 290H363H178V0H74V700H363Q507 700 585 650T664 495Q664 340 489 302Q527 283 555 247T608 147Q631 89 650 55ZM365 337Q561 337
561 495Q561 652 365 652H178V337H365Z" />
<glyph unicode="S" glyph-name="S" horiz-adv-x="764" d="M241 -10T154 49T58 217H148Q155 125 214 82T390 38Q493 38 547 74T602 177Q602 217 581 244T510 292T368 331Q223 359 150 403T76 529Q76 619 160 664T381 710Q520 710 597 661T687 523H598Q583 596 528
629T374 662Q279 662 230 631T180 545Q180 512 199 489T265 447T401 410Q509 388 574 362T673 295T706 189Q706 95 622 43T392 -10Q241 -10 154 49Z" />
<glyph unicode="T" glyph-name="T" horiz-adv-x="713" d="M305 652H9V700H704V652H409V0H305V652Z" />
<glyph unicode="U" glyph-name="U" horiz-adv-x="805" d="M229 -10T152 67T74 291V700H178V268Q178 156 231 97T403 38Q520 38 573 96T627 268V700H731V291Q731 145 654 68T403 -10Q229 -10 152 67Z" />
<glyph unicode="V" glyph-name="V" horiz-adv-x="770" d="M4 700H119L398 109L698 700H766L405 -10H351L4 700Z" />
<glyph unicode="W" glyph-name="W" horiz-adv-x="994" d="M6 700H114L293 170L483 700H544L737 149L928 700H989L745 -10H691L493 554L296 -10H251L6 700Z" />
<glyph unicode="X" glyph-name="X" horiz-adv-x="689" d="M563 0L331 296L79 0H4L296 342L16 700H138L359 417L601 700H675L395 371L685 0H563Z" />
<glyph unicode="Y" glyph-name="Y" horiz-adv-x="724" d="M304 304L4 700H117L372 365L647 700H720L408 319V0H304V304Z" />
<glyph unicode="Z" glyph-name="Z" horiz-adv-x="655" d="M18 9L504 652H53V700H637V691L151 48H617V0H18V9Z" />
<glyph unicode="[" glyph-name="bracketleft" horiz-adv-x="308" d="M166 -164T121 -116T76 38V524Q76 629 121 677T266 725V702Q226 697 207 679T182 633T176 555V6Q176 -43 181 -71T206 -118T266 -141V-164Q166 -164 121 -116Z" />
<glyph unicode="\" glyph-name="backslash" horiz-adv-x="320" d="M-10 721H42L330 -22H278L-10 721Z" />
<glyph unicode="]" glyph-name="bracketright" horiz-adv-x="308" d="M42 -141Q82 -136 101 -118T126 -72T132 6V555Q132 604 127 632T102 679T42 702V725Q142 725 187 677T232 524V38Q232 -68 187 -116T42 -164V-141Z" />
<glyph unicode="^" glyph-name="asciicircum" horiz-adv-x="671" d="M308 675H366L568 270H492L337 591L180 270H104L308 675Z" />
<glyph unicode="_" glyph-name="underscore" horiz-adv-x="547" d="M0 -102H547V-144H0V-102Z" />
<glyph unicode="`" glyph-name="grave" horiz-adv-x="500" d="M170 667Q131 693 131 714Q131 725 140 732T163 740Q192 740 217 714L358 560H323L170 667Z" />
<glyph unicode="a" glyph-name="a" horiz-adv-x="611" d="M158 -10T108 29T57 140Q57 217 118 257T296 298H442V334Q442 395 405 427T298 459Q232 459 192 429T145 342H73Q83 418 143 459T303 500Q415 500 474 455T533 323V161Q533 75 548 0H462Q451 45 448 86Q388
-10 255 -10Q158 -10 108 29ZM324 29T361 50T420 108T442 188V257H321Q233 257 191 229T148 141Q148 86 181 58T278 29Q324 29 361 50Z" />
<glyph unicode="b" glyph-name="b" horiz-adv-x="659" d="M290 -10T240 16T161 92V0H69V683H161V396Q189 445 242 472T363 500Q477 500 543 432T610 246Q610 170 579 112T490 22T357 -10Q290 -10 240 16ZM421 30T469 90T518 248Q518 346 471 403T343 460Q289 460
248 433T184 357T161 244Q161 147 210 89T340 30Q421 30 469 90Z" />
<glyph unicode="c" glyph-name="c" horiz-adv-x="633" d="M244 -10T181 21T83 109T49 245Q49 323 83 380T180 469T328 500Q432 500 499 457T583 336H508Q494 393 447 426T332 459Q244 459 193 402T141 245Q141 146 192 89T332 31Q398 31 446 64T508 154H583Q567
77 499 34T329 -10Q244 -10 181 21Z" />
<glyph unicode="d" glyph-name="d" horiz-adv-x="659" d="M231 -10T173 22T82 113T49 245Q49 321 80 378T167 468T298 500Q365 500 417 474T498 399V683H590V0H498V89Q470 41 421 16T306 -10Q231 -10 173 22ZM372 30T412 56T475 131T498 243Q498 308 476 357T412
433T316 460Q236 460 189 403T141 247Q141 182 163 133T225 57T319 30Q372 30 412 56Z" />
<glyph unicode="e" glyph-name="e" horiz-adv-x="629" d="M393 31T439 64T499 154H574Q555 77 487 34T321 -10Q239 -10 178 21T83 109T49 243Q49 321 82 379T176 468T319 500Q441 500 509 434T581 248H141V243Q141 144 189 88T325 31Q393 31 439 64ZM246 459T200
415T144 289H494Q483 371 439 415T321 459Q246 459 200 415Z" />
<glyph unicode="f" glyph-name="f" horiz-adv-x="341" d="M115 449H14L26 490H115V543Q115 609 153 644T264 679Q318 679 352 661L339 619Q318 638 286 638Q249 638 228 616T207 553V490H343L332 449H207V0H115V449Z" />
<glyph unicode="g" glyph-name="g" horiz-adv-x="644" d="M562 493T519 493Q472 493 439 480Q491 460 519 423T547 334Q547 262 490 214T316 161Q272 159 242 149T212 123Q212 110 231 104T281 97H324Q448 97 515 63T583 -36Q583 -84 549 -119T451 -174T303 -194Q223
-194 164 -178T72 -132T39 -63Q39 -21 79 7T203 47Q157 53 135 70T113 112Q113 136 140 155T211 179Q144 197 112 237T79 335Q79 410 143 455T313 500Q359 500 393 493Q420 518 455 531T529 544Q569 544 595 535V478Q562 493 519 493ZM382 203T419 235T456 331Q456
393 419 426T313 459Q245 459 208 426T171 331Q171 268 207 236T313 203Q382 203 419 235ZM228 41T169 15T110 -58Q110 -102 163 -129T304 -157Q396 -157 451 -125T507 -43Q507 -1 460 20T333 41Q228 41 169 15Z" />
<glyph unicode="h" glyph-name="h" horiz-adv-x="617" d="M69 683H161V396Q187 445 238 472T355 500Q451 500 504 453T558 320V0H466V329Q466 391 432 425T335 459Q256 459 209 407T161 270V0H69V683Z" />
<glyph unicode="i" glyph-name="i" horiz-adv-x="276" d="M108 551T89 568T70 613Q70 641 89 658T138 675Q168 675 187 658T206 613Q206 585 187 568T138 551Q108 551 89 568ZM92 490H184V0H92V490Z" />
<glyph unicode="j" glyph-name="j" horiz-adv-x="292" d="M124 551T105 568T86 613Q86 641 105 658T154 675Q184 675 203 658T222 613Q222 585 203 568T154 551Q124 551 105 568ZM-30 -184T-71 -149L-43 -100Q-17 -141 26 -141Q68 -141 87 -101T107 26V490H199V46Q199
-67 158 -125T37 -184Q-30 -184 -71 -149Z" />
<glyph unicode="k" glyph-name="k" horiz-adv-x="575" d="M459 0L249 265L161 188V0H69V683H161V254L436 490H507L308 317L559 0H459Z" />
<glyph unicode="l" glyph-name="l" horiz-adv-x="284" d="M96 683H188V0H96V683Z" />
<glyph unicode="m" glyph-name="m" horiz-adv-x="954" d="M70 490H160V407Q182 451 227 475T332 500Q403 500 449 470T515 383Q538 442 584 471T696 500Q792 500 843 453T894 317V0H802V326Q802 387 768 423T675 459Q607 459 567 403T527 247V0H437V283Q437 368
403 413T304 459Q239 459 201 411T162 279V0H70V490Z" />
<glyph unicode="n" glyph-name="n" horiz-adv-x="619" d="M70 490H162V404Q186 448 236 474T350 500Q447 500 503 450T559 313V0H467V323Q467 388 431 423T329 459Q253 459 208 410T162 279V0H70V490Z" />
<glyph unicode="o" glyph-name="o" horiz-adv-x="665" d="M247 -10T183 21T84 111T49 245Q49 321 84 379T183 468T332 500Q417 500 481 469T581 379T616 245Q616 169 581 111T482 22T332 -10Q247 -10 183 21ZM421 31T472 88T523 245Q523 345 472 402T332 459Q243
459 193 402T142 245Q142 145 192 88T332 31Q421 31 472 88Z" />
<glyph unicode="p" glyph-name="p" horiz-adv-x="659" d="M69 490H161V399Q189 446 241 473T360 500Q477 500 543 433T610 247Q610 127 543 59T360 -10Q292 -10 241 17T161 95V-190H69V490ZM392 30T433 57T496 134T518 249Q518 347 471 403T342 460Q289 460 248
433T184 357T161 244Q161 146 209 88T339 30Q392 30 433 57Z" />
<glyph unicode="q" glyph-name="q" horiz-adv-x="659" d="M498 95Q469 44 418 17T299 -10Q183 -10 116 58T49 247Q49 365 115 432T299 500Q365 500 417 473T498 399V490H590V-190H498V95ZM401 30T449 88T498 244Q498 308 476 357T412 433T317 460Q236 460 189
404T141 249Q141 184 163 135T226 58T320 30Q401 30 449 88Z" />
<glyph unicode="r" glyph-name="r" horiz-adv-x="363" d="M67 490H159V385Q178 440 219 470T320 500Q343 500 354 496L345 432Q330 440 303 440Q235 440 197 383T159 239V0H67V490Z" />
<glyph unicode="s" glyph-name="s" horiz-adv-x="590" d="M190 -10T127 30T50 142H126Q134 90 178 61T296 31Q365 31 406 59T448 133Q448 170 412 191T292 227Q208 241 159 258T87 301T65 365Q65 427 124 463T291 500Q395 500 459 461T534 350H458Q449 401 406
430T297 459Q234 459 196 437T157 376Q157 353 170 339T217 314T320 291Q436 271 488 236T540 139Q540 69 475 30T293 -10Q190 -10 127 30Z" />
<glyph unicode="t" glyph-name="t" horiz-adv-x="357" d="M165 -10T133 26T101 137V449H13L27 490H102L138 628H193V490H330L317 449H193V123Q193 32 261 32Q297 32 331 51V8Q289 -10 230 -10Q165 -10 133 26Z" />
<glyph unicode="u" glyph-name="u" horiz-adv-x="617" d="M169 -10T114 40T58 180V490H150V170Q150 103 185 67T287 31Q363 31 409 80T456 211V490H548V0H456V86Q432 41 382 16T267 -10Q169 -10 114 40Z" />
<glyph unicode="v" glyph-name="v" horiz-adv-x="575" d="M8 490H108L312 95L512 490H566L316 -10H273L8 490Z" />
<glyph unicode="w" glyph-name="w" horiz-adv-x="837" d="M11 490H108L264 127L406 500H451L609 118L770 490H826L611 -10H568L412 363L270 -10H229L11 490Z" />
<glyph unicode="x" glyph-name="x" horiz-adv-x="532" d="M419 0L250 201L75 0H8L217 241L8 490H113L274 298L437 490H502L306 259L522 0H419Z" />
<glyph unicode="y" glyph-name="y" horiz-adv-x="571" d="M85 -193T58 -185T12 -163L40 -114Q51 -129 71 -138T111 -147Q144 -147 177 -126T232 -70T253 -1Q253 33 237 62L8 490H110L312 95L504 490H562L317 -15Q230 -193 116 -193Q85 -193 58 -185Z" />
<glyph unicode="z" glyph-name="z" horiz-adv-x="544" d="M393 449H63L77 490H516L152 41H509L494 0H28L393 449Z" />
<glyph unicode="{" glyph-name="braceleft" horiz-adv-x="346" d="M227 -164T187 -142T135 -88T122 -12Q122 15 126 69Q130 117 130 135Q130 197 113 227T52 270V291Q95 304 112 334T130 426Q130 444 126 492Q122 546 122 573Q122 619 134 651T187 704T304 725V702Q255
702 238 671T221 577Q221 553 224 521Q225 508 226 491T227 451Q227 373 210 334T147 281V280Q192 267 209 228T227 110Q227 87 226 68T224 36Q221 5 221 -16Q221 -86 239 -113T304 -141V-164Q227 -164 187 -142Z" />
<glyph unicode="|" glyph-name="bar" horiz-adv-x="222" d="M68 737H154V-192H68V737Z" />
<glyph unicode="}" glyph-name="braceright" horiz-adv-x="346" d="M42 -141Q88 -141 106 -114T125 -16Q125 5 122 36Q121 49 120 68T119 110Q119 188 136 227T199 280V281Q154 294 137 333T119 451Q119 473 120 490T122 521Q125 553 125 577Q125 639 108 670T42
702V725Q119 725 159 705T211 652T224 573Q224 546 220 492Q216 444 216 426Q216 364 233 334T294 291V270Q251 257 234 227T216 135Q216 117 220 69Q224 15 224 -12Q224 -55 212 -87T159 -142T42 -164V-141Z" />
<glyph unicode="~" glyph-name="asciitilde" horiz-adv-x="671" d="M421 214T392 223T324 256Q287 279 263 287T217 296Q134 296 89 217L46 257Q70 303 115 330T218 358Q251 358 282 348T351 314Q384 293 407 285T451 276Q486 276 518 298T569 356L614 314Q591
272 545 243T451 214Q421 214 392 223Z" />
<glyph unicode="&#xa0;" glyph-name="uni00A0" horiz-adv-x="266" />
<glyph unicode="&#xa1;" glyph-name="exclamdown" horiz-adv-x="248" d="M149 587T164 572T180 531Q180 507 165 492T124 476Q99 476 84 491T68 531Q68 556 83 571T124 587Q149 587 164 572ZM138 427Q144 330 155 213Q157 194 165 92T174 -81Q174 -112 161 -128T124
-145Q101 -145 88 -129T74 -81Q72 11 93 223Q107 363 110 427H138Z" />
<glyph unicode="&#xa2;" glyph-name="cent" horiz-adv-x="633" d="M398 131T446 164T508 254H583Q568 182 507 139T353 91V-17H305V91Q186 97 118 164T49 345Q49 458 117 525T305 599V708H353V599Q446 594 506 551T583 436H508Q494 493 447 526T332 559Q244 559
193 502T141 345Q141 246 192 189T332 131Q398 131 446 164Z" />
<glyph unicode="&#xa3;" glyph-name="sterling" horiz-adv-x="724" d="M683 123Q665 65 624 30T521 -5Q472 -5 439 14T373 73L365 82Q341 40 295 18T186 -5Q121 -5 80 20T38 92Q38 141 87 169T216 197Q253 197 290 189Q280 249 248 333L246 339H124V383H231Q207
462 207 502Q207 588 265 638T422 688Q498 688 545 660T621 577L565 554Q549 595 516 619T432 644Q375 644 342 612T308 524Q308 488 315 456T337 383H557V339H355Q374 292 382 258T391 186Q391 165 388 145Q408 132 424 116Q458 85 482 70T538 54Q580 54 609 74T661
132L683 123ZM241 40T266 67T293 141Q253 162 210 162Q173 162 150 146T127 99Q127 71 146 56T199 40Q241 40 266 67Z" />
<glyph unicode="&#xa4;" glyph-name="currency" horiz-adv-x="706" d="M305 72T261 86T184 128L125 72L87 110L146 165Q87 234 87 336Q87 438 146 507L87 562L125 600L184 544Q217 571 261 585T353 600Q453 600 523 544L582 600L619 562L561 507Q619 439 619 336Q619
233 561 165L619 110L582 72L523 128Q489 101 445 87T353 72Q305 72 261 86ZM414 126T462 152T536 227T563 336Q563 397 537 445T462 519T353 546Q292 546 244 520T170 445T143 336Q143 275 169 227T244 153T353 126Q414 126 462 152Z" />
<glyph unicode="&#xa5;" glyph-name="yen" horiz-adv-x="724" d="M414 326H570V286H408V209H570V168H408V0H304V168H140V209H304V286H140V326H287L4 700H117L372 365L647 700H720L414 326Z" />
<glyph unicode="&#xa6;" glyph-name="brokenbar" horiz-adv-x="222" d="M68 737H154V353H68V737ZM68 194H154V-192H68V194Z" />
<glyph unicode="&#xa7;" glyph-name="section" horiz-adv-x="600" d="M197 -46T129 -5T51 115H131Q139 59 184 28T296 -4Q354 -4 397 18T441 86Q441 125 398 145T273 179Q162 196 105 235T48 334Q48 381 88 415T193 464Q131 480 98 506T65 574Q65 642 132 676T298
710Q403 710 471 669T549 549H469Q461 605 416 636T304 668Q246 668 203 646T159 578Q159 539 202 519T327 485Q438 468 495 429T552 332Q552 284 513 250T407 200Q469 184 502 158T535 90Q535 22 468 -12T302 -46Q197 -46 129 -5ZM375 229T416 256T458 328Q458
376 412 405T292 435Q225 435 184 409T142 338Q142 289 188 259T308 229Q375 229 416 256Z" />
<glyph unicode="&#xa8;" glyph-name="dieresis" horiz-adv-x="500" d="M115 560T101 574T86 610Q86 632 101 646T138 661Q160 661 175 647T190 610Q190 588 176 574T138 560Q115 560 101 574ZM339 560T325 574T310 610Q310 632 325 646T362 661Q384 661 399 647T414
610Q414 588 400 574T362 560Q339 560 325 574Z" />
<glyph unicode="&#xa9;" glyph-name="copyright" horiz-adv-x="866" d="M318 -30T230 18T93 152T44 350Q44 462 93 548T230 682T433 730Q548 730 636 682T773 548T822 350Q822 238 773 152T636 18T433 -30Q318 -30 230 18ZM532 18T608 59T727 176T769 350Q769
448 727 523T609 640T433 682Q334 682 258 641T140 524T98 350Q98 252 140 177T258 60T433 18Q532 18 608 59ZM371 132T319 160T239 238T210 355Q210 419 238 468T319 545T438 573Q518 573 575 533T645 426H575Q564 470 527 496T438 523Q366 523 323 478T280 355Q280
276 323 229T438 182Q488 182 526 209T577 280H644Q634 214 577 173T438 132Q371 132 319 160Z" />
<glyph unicode="&#xaa;" glyph-name="ordfeminine" horiz-adv-x="406" d="M102 346T65 374T28 453Q28 508 75 538T210 569H300V591Q300 632 276 653T205 675Q160 675 132 655T98 599H42Q49 652 92 681T208 710Q285 710 328 677T372 584V470Q372 408 381 354H317Q311
376 309 414Q289 381 252 364T167 346Q102 346 65 374ZM234 381T267 414T300 501V536H211Q159 536 130 515T100 456Q100 421 122 401T181 381Q234 381 267 414Z" />
<glyph unicode="&#xab;" glyph-name="guillemotleft" horiz-adv-x="480" d="M42 285L186 498L246 455L102 285L246 114L186 71L42 285ZM224 285L368 498L428 455L284 285L428 114L368 71L224 285Z" />
<glyph unicode="&#xac;" glyph-name="logicalnot" horiz-adv-x="629" d="M510 362H13V419H588V124H510V362Z" />
<glyph unicode="&#xad;" glyph-name="uni00AD" horiz-adv-x="404" d="M52 277H352V235H52V277Z" />
<glyph unicode="&#xae;" glyph-name="registered" horiz-adv-x="866" d="M548 730T636 682T773 548T822 350Q822 238 773 152T636 18T433 -30Q318 -30 230 18T93 152T44 350Q44 462 93 548T230 682T433 730Q548 730 636 682ZM532 18T608 59T727 176T769 350Q769
448 727 523T609 640T433 682Q334 682 258 641T140 524T98 350Q98 252 140 177T258 60T433 18Q532 18 608 59ZM600 204T610 185T635 151V145H563Q542 172 524 219Q511 255 498 274T457 303H448H347V145H277V565H448Q524 565 567 532T610 438Q610 395 589 364T529
317Q552 303 566 283T590 231Q600 204 610 185ZM347 353H448Q492 353 516 375T540 438Q540 475 516 495T448 515H347V353Z" />
<glyph unicode="&#xaf;" glyph-name="overscore" horiz-adv-x="500" d="M96 624H404V580H96V624Z" />
<glyph unicode="&#xb0;" glyph-name="degree" horiz-adv-x="422" d="M140 393T95 437T50 551Q50 621 95 665T211 710Q282 710 327 666T372 551Q372 481 327 437T211 393Q140 393 95 437ZM263 430T295 464T328 551Q328 605 296 638T211 672Q159 672 127 639T94
551Q94 498 126 464T211 430Q263 430 295 464Z" />
<glyph unicode="&#xb1;" glyph-name="plusminus" horiz-adv-x="660" d="M289 326H44V383H289V590H371V383H616V326H371V118H289V326ZM44 57H616V0H44V57Z" />
<glyph unicode="&#xb2;" glyph-name="uni00B2" horiz-adv-x="451" d="M55 331T96 377T218 461Q273 487 298 515T323 579Q323 623 297 646T222 670Q175 670 146 645T110 574H40Q49 637 98 672T226 708Q308 708 355 674T402 579Q402 533 371 501T258 430Q199 402
170 374T136 312H411V272H50Q55 331 96 377Z" />
<glyph unicode="&#xb3;" glyph-name="uni00B3" horiz-adv-x="456" d="M147 266T98 298T44 385H114Q117 347 146 326T225 304Q278 304 308 327T338 394Q338 436 308 459T223 482Q185 482 146 475V519Q168 517 203 517Q258 517 287 538T317 600Q317 633 291 651T218
670Q169 670 141 649T110 589H40Q44 644 93 676T222 708Q301 708 348 679T395 600Q395 563 368 538T293 502Q416 489 416 394Q416 335 365 301T228 266Q147 266 98 298Z" />
<glyph unicode="&#xb4;" glyph-name="acute" horiz-adv-x="500" d="M281 714Q306 740 335 740Q349 740 358 733T367 714Q367 693 328 667L175 560H140L281 714Z" />
<glyph unicode="&#xb5;" glyph-name="uni00B5" horiz-adv-x="617" d="M548 490V0H456V86Q432 41 382 16T267 -10Q198 -10 146 17V-200H58V490H150V170Q150 103 185 67T287 31Q363 31 409 80T456 211V490H548Z" />
<glyph unicode="&#xb6;" glyph-name="paragraph" horiz-adv-x="570" d="M455 -147H401L400 662H324V-147H268V256Q164 256 108 319T52 487Q52 550 80 599T158 674T271 701H544V662H454L455 -147Z" />
<glyph unicode="&#xb7;" glyph-name="middot" horiz-adv-x="207" d="M78 204T63 219T47 259Q47 282 63 297T103 313Q128 313 144 298T160 259Q160 235 144 220T103 204Q78 204 63 219Z" />
<glyph unicode="&#xb8;" glyph-name="cedilla" horiz-adv-x="500" d="M171 -248T128 -213L150 -181Q190 -205 227 -205Q254 -205 270 -193T286 -157Q286 -101 185 -105L178 -83L231 7H283L239 -70Q287 -72 316 -94T346 -156Q346 -201 314 -224T234 -248Q171 -248
128 -213Z" />
<glyph unicode="&#xb9;" glyph-name="uni00B9" horiz-adv-x="272" d="M124 604H30V630Q80 631 106 646T149 702H202V272H124V604Z" />
<glyph unicode="&#xba;" glyph-name="ordmasculine" horiz-adv-x="472" d="M143 346T87 395T31 528Q31 611 87 660T236 710Q328 710 384 660T441 528Q441 446 385 396T236 346Q143 346 87 395ZM298 380T333 419T369 528Q369 598 334 637T236 676Q173 676 138 637T103
528Q103 458 138 419T236 380Q298 380 333 419Z" />
<glyph unicode="&#xbb;" glyph-name="guillemotright" horiz-adv-x="480" d="M52 114L196 285L52 455L112 498L256 285L112 71L52 114ZM234 114L378 285L234 455L294 498L438 285L294 71L234 114Z" />
<glyph unicode="&#xbc;" glyph-name="onequarter" horiz-adv-x="810" d="M633 78H389V96L683 436H711V115H770V78H711V1H633V78ZM635 115V316L461 115H635ZM134 604H40V630Q90 631 116 646T159 702H212V272H134V604ZM602 704H656L169 -4H115L602 704Z" />
<glyph unicode="&#xbd;" glyph-name="onehalf" horiz-adv-x="915" d="M134 604H40V630Q90 631 116 646T159 702H212V272H134V604ZM519 57T560 103T682 187Q737 213 762 241T787 305Q787 349 761 372T686 396Q639 396 610 371T574 300H504Q513 363 562 398T690
434Q772 434 819 400T866 305Q866 259 835 227T722 156Q663 128 634 100T600 38H875V-2H514Q519 57 560 103ZM591 704H645L158 -4H104L591 704Z" />
<glyph unicode="&#xbe;" glyph-name="threequarters" horiz-adv-x="947" d="M147 270T98 302T44 389H114Q117 351 146 330T225 308Q278 308 308 331T338 398Q338 440 308 463T223 486Q185 486 146 479V523Q168 521 203 521Q258 521 287 542T317 604Q317 637 291
655T218 674Q169 674 141 653T110 593H40Q44 648 93 680T222 712Q301 712 348 683T395 604Q395 567 368 542T293 506Q416 493 416 398Q416 339 365 305T228 270Q147 270 98 302ZM754 704H808L321 -4H267L754 704ZM770 78H526V96L820 436H848V115H907V78H848V1H770V78ZM772
115V316L598 115H772Z" />
<glyph unicode="&#xbf;" glyph-name="questiondown" horiz-adv-x="542" d="M292 586T307 571T323 530Q323 506 308 491T268 475Q243 475 228 490T212 530Q212 555 227 570T268 586Q292 586 307 571ZM286 345T268 293T205 193Q174 159 157 125T140 49Q140 -15 175
-52T271 -90Q335 -90 372 -51T416 63H503Q495 -29 434 -81T272 -134Q163 -134 101 -85T39 52Q39 102 64 139T144 223Q197 268 223 313T250 423H286Q286 345 268 293Z" />
<glyph unicode="&#xc0;" glyph-name="Agrave" horiz-adv-x="779" d="M573 182H170L79 0H9L373 710H427L770 0H658L573 182ZM550 230L378 598L194 230H550ZM222 877Q184 903 184 924Q184 935 192 942T216 950Q246 950 269 924L410 770H375L222 877Z" />
<glyph unicode="&#xc1;" glyph-name="Aacute" horiz-adv-x="779" d="M573 182H170L79 0H9L373 710H427L770 0H658L573 182ZM550 230L378 598L194 230H550ZM519 924Q542 950 572 950Q587 950 595 943T604 924Q604 903 566 877L413 770H378L519 924Z" />
<glyph unicode="&#xc2;" glyph-name="Acircumflex" horiz-adv-x="779" d="M573 182H170L79 0H9L373 710H427L770 0H658L573 182ZM550 230L378 598L194 230H550ZM359 923H429L553 770H504L394 876L284 770H235L359 923Z" />
<glyph unicode="&#xc3;" glyph-name="Atilde" horiz-adv-x="779" d="M573 182H170L79 0H9L373 710H427L770 0H658L573 182ZM550 230L378 598L194 230H550ZM220 820T248 851T323 882Q351 882 372 872T418 842Q435 828 449 820T477 812Q503 812 521 831T542 882H568Q568
833 540 802T466 770Q437 770 418 779T375 807Q359 820 347 826T319 833Q288 833 268 816T247 770H220Q220 820 248 851Z" />
<glyph unicode="&#xc4;" glyph-name="Adieresis" horiz-adv-x="779" d="M573 182H170L79 0H9L373 710H427L770 0H658L573 182ZM550 230L378 598L194 230H550ZM259 770T245 784T230 820Q230 842 245 856T282 871Q304 871 319 857T334 820Q334 798 320 784T282 770Q259
770 245 784ZM483 770T469 784T454 820Q454 842 469 856T506 871Q528 871 543 857T558 820Q558 798 544 784T506 770Q483 770 469 784Z" />
<glyph unicode="&#xc5;" glyph-name="Aring" horiz-adv-x="779" d="M573 182H170L79 0H9L373 710H427L770 0H658L573 182ZM550 230L378 598L194 230H550ZM348 743T319 770T289 841Q289 884 318 912T394 940Q440 940 469 912T499 841Q499 798 470 771T394 743Q348
743 319 770ZM422 777T439 795T457 841Q457 869 440 887T394 905Q366 905 349 887T331 841Q331 813 348 795T394 777Q422 777 439 795Z" />
<glyph unicode="&#xc6;" glyph-name="AE" horiz-adv-x="991" d="M621 654V397H906V354H621V44H963V0H523V183H213L94 0H8L465 700H963V654H621ZM523 226V654H520L241 226H523Z" />
<glyph unicode="&#xc7;" glyph-name="Ccedilla" horiz-adv-x="807" d="M531 38T596 86T678 221H768Q752 118 668 57T452 -9L417 -70Q465 -72 494 -94T524 -156Q524 -201 492 -224T412 -248Q349 -248 306 -213L328 -181Q368 -205 405 -205Q432 -205 448 -193T464
-157Q464 -101 363 -105L356 -83L399 -9Q233 -2 144 91T55 353Q55 524 150 617T424 710Q569 710 660 649T768 479H678Q661 565 595 613T429 662Q299 662 230 582T160 353Q160 201 230 120T431 38Q531 38 596 86Z" />
<glyph unicode="&#xc8;" glyph-name="Egrave" horiz-adv-x="695" d="M74 700H667V652H178V399H610V352H178V48H667V0H74V700ZM207 877Q169 903 169 924Q169 935 177 942T201 950Q231 950 254 924L395 770H360L207 877Z" />
<glyph unicode="&#xc9;" glyph-name="Eacute" horiz-adv-x="695" d="M74 700H667V652H178V399H610V352H178V48H667V0H74V700ZM504 924Q527 950 557 950Q572 950 580 943T589 924Q589 903 551 877L398 770H363L504 924Z" />
<glyph unicode="&#xca;" glyph-name="Ecircumflex" horiz-adv-x="695" d="M74 700H667V652H178V399H610V352H178V48H667V0H74V700ZM344 923H414L538 770H489L379 876L269 770H220L344 923Z" />
<glyph unicode="&#xcb;" glyph-name="Edieresis" horiz-adv-x="695" d="M74 700H667V652H178V399H610V352H178V48H667V0H74V700ZM244 770T230 784T215 820Q215 842 230 856T267 871Q289 871 304 857T319 820Q319 798 305 784T267 770Q244 770 230 784ZM468 770T454
784T439 820Q439 842 454 856T491 871Q513 871 528 857T543 820Q543 798 529 784T491 770Q468 770 454 784Z" />
<glyph unicode="&#xcc;" glyph-name="Igrave" horiz-adv-x="334" d="M115 700H219V0H115V700ZM-5 877Q-43 903 -43 924Q-43 935 -35 942T-11 950Q19 950 42 924L183 770H148L-5 877Z" />
<glyph unicode="&#xcd;" glyph-name="Iacute" horiz-adv-x="334" d="M115 700H219V0H115V700ZM292 924Q315 950 345 950Q360 950 368 943T377 924Q377 903 339 877L186 770H151L292 924Z" />
<glyph unicode="&#xce;" glyph-name="Icircumflex" horiz-adv-x="334" d="M115 700H219V0H115V700ZM132 923H202L326 770H277L167 876L57 770H8L132 923Z" />
<glyph unicode="&#xcf;" glyph-name="Idieresis" horiz-adv-x="334" d="M115 700H219V0H115V700ZM32 770T18 784T3 820Q3 842 18 856T55 871Q77 871 92 857T107 820Q107 798 93 784T55 770Q32 770 18 784ZM256 770T242 784T227 820Q227 842 242 856T279 871Q301
871 316 857T331 820Q331 798 317 784T279 770Q256 770 242 784Z" />
<glyph unicode="&#xd0;" glyph-name="Eth" horiz-adv-x="803" d="M543 700T645 614T747 362Q747 189 645 95T353 0H75V348H-2V392H75V700H347Q543 700 645 614ZM500 48T571 129T643 362Q643 505 573 578T367 652H179V392H391V348H179V48H367Q500 48 571 129Z" />
<glyph unicode="&#xd1;" glyph-name="Ntilde" horiz-adv-x="767" d="M74 700H179L605 157V700H693V0H641L162 609V0H74V700ZM210 820T238 851T313 882Q341 882 362 872T408 842Q425 828 439 820T467 812Q493 812 511 831T532 882H558Q558 833 530 802T456 770Q427
770 408 779T365 807Q349 820 337 826T309 833Q278 833 258 816T237 770H210Q210 820 238 851Z" />
<glyph unicode="&#xd2;" glyph-name="Ograve" horiz-adv-x="865" d="M315 -10T230 33T100 157T55 353Q55 465 100 545T230 668T433 710Q551 710 635 668T765 546T810 353Q810 239 765 158T636 33T433 -10Q315 -10 230 33ZM563 38T634 120T705 353Q705 501 635
581T433 662Q302 662 231 582T160 353Q160 202 231 120T433 38Q563 38 634 120ZM261 877Q223 903 223 924Q223 935 231 942T255 950Q285 950 308 924L449 770H414L261 877Z" />
<glyph unicode="&#xd3;" glyph-name="Oacute" horiz-adv-x="865" d="M315 -10T230 33T100 157T55 353Q55 465 100 545T230 668T433 710Q551 710 635 668T765 546T810 353Q810 239 765 158T636 33T433 -10Q315 -10 230 33ZM563 38T634 120T705 353Q705 501 635
581T433 662Q302 662 231 582T160 353Q160 202 231 120T433 38Q563 38 634 120ZM558 924Q581 950 611 950Q626 950 634 943T643 924Q643 903 605 877L452 770H417L558 924Z" />
<glyph unicode="&#xd4;" glyph-name="Ocircumflex" horiz-adv-x="865" d="M315 -10T230 33T100 157T55 353Q55 465 100 545T230 668T433 710Q551 710 635 668T765 546T810 353Q810 239 765 158T636 33T433 -10Q315 -10 230 33ZM563 38T634 120T705 353Q705 501
635 581T433 662Q302 662 231 582T160 353Q160 202 231 120T433 38Q563 38 634 120ZM398 923H468L592 770H543L433 876L323 770H274L398 923Z" />
<glyph unicode="&#xd5;" glyph-name="Otilde" horiz-adv-x="865" d="M315 -10T230 33T100 157T55 353Q55 465 100 545T230 668T433 710Q551 710 635 668T765 546T810 353Q810 239 765 158T636 33T433 -10Q315 -10 230 33ZM563 38T634 120T705 353Q705 501 635
581T433 662Q302 662 231 582T160 353Q160 202 231 120T433 38Q563 38 634 120ZM259 820T287 851T362 882Q390 882 411 872T457 842Q474 828 488 820T516 812Q542 812 560 831T581 882H607Q607 833 579 802T505 770Q476 770 457 779T414 807Q398 820 386 826T358
833Q327 833 307 816T286 770H259Q259 820 287 851Z" />
<glyph unicode="&#xd6;" glyph-name="Odieresis" horiz-adv-x="865" d="M315 -10T230 33T100 157T55 353Q55 465 100 545T230 668T433 710Q551 710 635 668T765 546T810 353Q810 239 765 158T636 33T433 -10Q315 -10 230 33ZM563 38T634 120T705 353Q705 501 635
581T433 662Q302 662 231 582T160 353Q160 202 231 120T433 38Q563 38 634 120ZM298 770T284 784T269 820Q269 842 284 856T321 871Q343 871 358 857T373 820Q373 798 359 784T321 770Q298 770 284 784ZM522 770T508 784T493 820Q493 842 508 856T545 871Q567 871
582 857T597 820Q597 798 583 784T545 770Q522 770 508 784Z" />
<glyph unicode="&#xd7;" glyph-name="multiply" horiz-adv-x="660" d="M44 51L282 291L44 530L94 579L331 341L566 579L616 530L380 291L616 51L566 2L331 240L94 2L44 51Z" />
<glyph unicode="&#xd8;" glyph-name="Oslash" horiz-adv-x="865" d="M740 600T775 526T810 353Q810 239 765 158T636 33T433 -10Q317 -10 231 32L171 -50H112L189 57Q124 103 90 178T55 353Q55 465 100 545T230 668T433 710Q548 710 633 669L684 740H743L674 645Q740
600 775 526ZM160 277T178 218T233 118L595 617Q531 662 433 662Q302 662 231 582T160 353Q160 277 178 218ZM563 38T634 120T705 353Q705 505 631 585L269 85Q334 38 433 38Q563 38 634 120Z" />
<glyph unicode="&#xd9;" glyph-name="Ugrave" horiz-adv-x="805" d="M229 -10T152 67T74 291V700H178V268Q178 156 231 97T403 38Q520 38 573 96T627 268V700H731V291Q731 145 654 68T403 -10Q229 -10 152 67ZM231 877Q193 903 193 924Q193 935 201 942T225 950Q255
950 278 924L419 770H384L231 877Z" />
<glyph unicode="&#xda;" glyph-name="Uacute" horiz-adv-x="805" d="M229 -10T152 67T74 291V700H178V268Q178 156 231 97T403 38Q520 38 573 96T627 268V700H731V291Q731 145 654 68T403 -10Q229 -10 152 67ZM528 924Q551 950 581 950Q596 950 604 943T613 924Q613
903 575 877L422 770H387L528 924Z" />
<glyph unicode="&#xdb;" glyph-name="Ucircumflex" horiz-adv-x="805" d="M229 -10T152 67T74 291V700H178V268Q178 156 231 97T403 38Q520 38 573 96T627 268V700H731V291Q731 145 654 68T403 -10Q229 -10 152 67ZM368 923H438L562 770H513L403 876L293 770H244L368
923Z" />
<glyph unicode="&#xdc;" glyph-name="Udieresis" horiz-adv-x="805" d="M229 -10T152 67T74 291V700H178V268Q178 156 231 97T403 38Q520 38 573 96T627 268V700H731V291Q731 145 654 68T403 -10Q229 -10 152 67ZM268 770T254 784T239 820Q239 842 254 856T291
871Q313 871 328 857T343 820Q343 798 329 784T291 770Q268 770 254 784ZM492 770T478 784T463 820Q463 842 478 856T515 871Q537 871 552 857T567 820Q567 798 553 784T515 770Q492 770 478 784Z" />
<glyph unicode="&#xdd;" glyph-name="Yacute" horiz-adv-x="724" d="M304 304L4 700H117L372 365L647 700H720L408 319V0H304V304ZM487 924Q510 950 540 950Q555 950 563 943T572 924Q572 903 534 877L381 770H346L487 924Z" />
<glyph unicode="&#xde;" glyph-name="Thorn" horiz-adv-x="647" d="M57 750H161V609H322Q465 609 544 553T624 395Q624 293 545 237T322 180H161V0H57V750ZM324 227Q420 227 470 270T520 395Q520 477 470 520T324 563H161V227H324Z" />
<glyph unicode="&#xdf;" glyph-name="germandbls" horiz-adv-x="674" d="M336 -10T301 3T239 41L263 78Q286 56 314 44T384 32Q457 32 489 76T522 188Q522 259 484 303T386 348H305V390H383Q425 390 450 430T475 530Q475 602 437 635T331 669Q251 669 214 618T176
459V0H83V456Q83 583 146 646T331 710Q437 710 502 663T567 528Q567 473 538 432T440 372Q523 360 569 312T616 188Q616 99 556 45T388 -10Q336 -10 301 3Z" />
<glyph unicode="&#xe0;" glyph-name="agrave" horiz-adv-x="611" d="M158 -10T108 29T57 140Q57 217 118 257T296 298H442V334Q442 395 405 427T298 459Q232 459 192 429T145 342H73Q83 418 143 459T303 500Q415 500 474 455T533 323V161Q533 75 548 0H462Q451
45 448 86Q388 -10 255 -10Q158 -10 108 29ZM324 29T361 50T420 108T442 188V257H321Q233 257 191 229T148 141Q148 86 181 58T278 29Q324 29 361 50ZM133 667Q95 693 95 714Q95 725 103 732T127 740Q157 740 180 714L321 560H286L133 667Z" />
<glyph unicode="&#xe1;" glyph-name="aacute" horiz-adv-x="611" d="M158 -10T108 29T57 140Q57 217 118 257T296 298H442V334Q442 395 405 427T298 459Q232 459 192 429T145 342H73Q83 418 143 459T303 500Q415 500 474 455T533 323V161Q533 75 548 0H462Q451
45 448 86Q388 -10 255 -10Q158 -10 108 29ZM324 29T361 50T420 108T442 188V257H321Q233 257 191 229T148 141Q148 86 181 58T278 29Q324 29 361 50ZM430 714Q453 740 483 740Q498 740 506 733T515 714Q515 693 477 667L324 560H289L430 714Z" />
<glyph unicode="&#xe2;" glyph-name="acircumflex" horiz-adv-x="611" d="M158 -10T108 29T57 140Q57 217 118 257T296 298H442V334Q442 395 405 427T298 459Q232 459 192 429T145 342H73Q83 418 143 459T303 500Q415 500 474 455T533 323V161Q533 75 548 0H462Q451
45 448 86Q388 -10 255 -10Q158 -10 108 29ZM324 29T361 50T420 108T442 188V257H321Q233 257 191 229T148 141Q148 86 181 58T278 29Q324 29 361 50ZM270 713H340L464 560H415L305 666L195 560H146L270 713Z" />
<glyph unicode="&#xe3;" glyph-name="atilde" horiz-adv-x="611" d="M158 -10T108 29T57 140Q57 217 118 257T296 298H442V334Q442 395 405 427T298 459Q232 459 192 429T145 342H73Q83 418 143 459T303 500Q415 500 474 455T533 323V161Q533 75 548 0H462Q451
45 448 86Q388 -10 255 -10Q158 -10 108 29ZM324 29T361 50T420 108T442 188V257H321Q233 257 191 229T148 141Q148 86 181 58T278 29Q324 29 361 50ZM131 610T159 641T234 672Q262 672 283 662T329 632Q346 618 360 610T388 602Q414 602 432 621T453 672H479Q479
623 451 592T377 560Q348 560 329 569T286 597Q270 610 258 616T230 623Q199 623 179 606T158 560H131Q131 610 159 641Z" />
<glyph unicode="&#xe4;" glyph-name="adieresis" horiz-adv-x="611" d="M158 -10T108 29T57 140Q57 217 118 257T296 298H442V334Q442 395 405 427T298 459Q232 459 192 429T145 342H73Q83 418 143 459T303 500Q415 500 474 455T533 323V161Q533 75 548 0H462Q451
45 448 86Q388 -10 255 -10Q158 -10 108 29ZM324 29T361 50T420 108T442 188V257H321Q233 257 191 229T148 141Q148 86 181 58T278 29Q324 29 361 50ZM170 560T156 574T141 610Q141 632 156 646T193 661Q215 661 230 647T245 610Q245 588 231 574T193 560Q170 560
156 574ZM394 560T380 574T365 610Q365 632 380 646T417 661Q439 661 454 647T469 610Q469 588 455 574T417 560Q394 560 380 574Z" />
<glyph unicode="&#xe5;" glyph-name="aring" horiz-adv-x="611" d="M158 -10T108 29T57 140Q57 217 118 257T296 298H442V334Q442 395 405 427T298 459Q232 459 192 429T145 342H73Q83 418 143 459T303 500Q415 500 474 455T533 323V161Q533 75 548 0H462Q451
45 448 86Q388 -10 255 -10Q158 -10 108 29ZM324 29T361 50T420 108T442 188V257H321Q233 257 191 229T148 141Q148 86 181 58T278 29Q324 29 361 50ZM259 533T230 560T200 631Q200 674 229 702T305 730Q351 730 380 702T410 631Q410 588 381 561T305 533Q259 533
230 560ZM333 567T350 585T368 631Q368 659 351 677T305 695Q277 695 260 677T242 631Q242 603 259 585T305 567Q333 567 350 585Z" />
<glyph unicode="&#xe6;" glyph-name="ae" horiz-adv-x="956" d="M146 -10T96 29T45 140Q45 288 286 288H415V334Q415 394 381 426T281 459Q216 459 179 429T134 342H62Q73 418 130 459T284 500Q355 500 403 473T470 395Q498 444 552 472T672 500Q787 500 851 434T919
248H498V247Q498 147 545 89T672 31Q735 31 779 64T837 154H912Q894 77 831 34T674 -10Q602 -10 546 21T463 108Q436 50 378 20T239 -10Q146 -10 96 29ZM831 289Q824 371 782 415T668 459Q598 459 554 414T501 289H831ZM325 29T370 70T415 179V247H300Q214 247
176 222T137 140Q137 87 167 58T253 29Q325 29 370 70Z" />
<glyph unicode="&#xe7;" glyph-name="ccedilla" horiz-adv-x="633" d="M398 31T446 64T508 154H583Q568 80 504 37T342 -10L308 -70Q356 -72 385 -94T415 -156Q415 -201 383 -224T303 -248Q240 -248 197 -213L219 -181Q259 -205 296 -205Q323 -205 339 -193T355
-157Q355 -101 254 -105L247 -83L291 -8Q178 2 114 69T49 245Q49 323 83 380T180 469T328 500Q432 500 499 457T583 336H508Q494 393 447 426T332 459Q244 459 193 402T141 245Q141 146 192 89T332 31Q398 31 446 64Z" />
<glyph unicode="&#xe8;" glyph-name="egrave" horiz-adv-x="629" d="M393 31T439 64T499 154H574Q555 77 487 34T321 -10Q239 -10 178 21T83 109T49 243Q49 321 82 379T176 468T319 500Q441 500 509 434T581 248H141V243Q141 144 189 88T325 31Q393 31 439 64ZM246
459T200 415T144 289H494Q483 371 439 415T321 459Q246 459 200 415ZM143 667Q105 693 105 714Q105 725 113 732T137 740Q167 740 190 714L331 560H296L143 667Z" />
<glyph unicode="&#xe9;" glyph-name="eacute" horiz-adv-x="629" d="M393 31T439 64T499 154H574Q555 77 487 34T321 -10Q239 -10 178 21T83 109T49 243Q49 321 82 379T176 468T319 500Q441 500 509 434T581 248H141V243Q141 144 189 88T325 31Q393 31 439 64ZM246
459T200 415T144 289H494Q483 371 439 415T321 459Q246 459 200 415ZM440 714Q463 740 493 740Q508 740 516 733T525 714Q525 693 487 667L334 560H299L440 714Z" />
<glyph unicode="&#xea;" glyph-name="ecircumflex" horiz-adv-x="629" d="M393 31T439 64T499 154H574Q555 77 487 34T321 -10Q239 -10 178 21T83 109T49 243Q49 321 82 379T176 468T319 500Q441 500 509 434T581 248H141V243Q141 144 189 88T325 31Q393 31 439
64ZM246 459T200 415T144 289H494Q483 371 439 415T321 459Q246 459 200 415ZM280 713H350L474 560H425L315 666L205 560H156L280 713Z" />
<glyph unicode="&#xeb;" glyph-name="edieresis" horiz-adv-x="629" d="M393 31T439 64T499 154H574Q555 77 487 34T321 -10Q239 -10 178 21T83 109T49 243Q49 321 82 379T176 468T319 500Q441 500 509 434T581 248H141V243Q141 144 189 88T325 31Q393 31 439
64ZM246 459T200 415T144 289H494Q483 371 439 415T321 459Q246 459 200 415ZM180 560T166 574T151 610Q151 632 166 646T203 661Q225 661 240 647T255 610Q255 588 241 574T203 560Q180 560 166 574ZM404 560T390 574T375 610Q375 632 390 646T427 661Q449 661
464 647T479 610Q479 588 465 574T427 560Q404 560 390 574Z" />
<glyph unicode="&#xec;" glyph-name="igrave" horiz-adv-x="284" d="M96 490H188V0H96V490ZM-30 667Q-68 693 -68 714Q-68 725 -60 732T-36 740Q-6 740 17 714L158 560H123L-30 667Z" />
<glyph unicode="&#xed;" glyph-name="iacute" horiz-adv-x="284" d="M96 490H188V0H96V490ZM267 714Q290 740 320 740Q335 740 343 733T352 714Q352 693 314 667L161 560H126L267 714Z" />
<glyph unicode="&#xee;" glyph-name="icircumflex" horiz-adv-x="284" d="M96 490H188V0H96V490ZM107 713H177L301 560H252L142 666L32 560H-17L107 713Z" />
<glyph unicode="&#xef;" glyph-name="idieresis" horiz-adv-x="284" d="M96 490H188V0H96V490ZM7 560T-7 574T-22 610Q-22 632 -7 646T30 661Q52 661 67 647T82 610Q82 588 68 574T30 560Q7 560 -7 574ZM231 560T217 574T202 610Q202 632 217 646T254 661Q276
661 291 647T306 610Q306 588 292 574T254 560Q231 560 217 574Z" />
<glyph unicode="&#xf0;" glyph-name="eth" horiz-adv-x="665" d="M616 245Q616 169 581 111T482 22T332 -10Q247 -10 183 21T84 111T49 245Q49 321 84 379T183 468T332 500Q402 500 460 478Q406 563 315 626L161 557V604L272 654Q218 684 154 708L174 750Q263
718 330 680L464 740V693L374 653Q489 578 552 476T616 246V245ZM421 31T472 88T523 245Q523 345 472 402T332 459Q243 459 193 402T142 245Q142 145 192 88T332 31Q421 31 472 88Z" />
<glyph unicode="&#xf1;" glyph-name="ntilde" horiz-adv-x="619" d="M70 490H162V404Q186 448 236 474T350 500Q447 500 503 450T559 313V0H467V323Q467 388 431 423T329 459Q253 459 208 410T162 279V0H70V490ZM135 610T163 641T238 672Q266 672 287 662T333
632Q350 618 364 610T392 602Q418 602 436 621T457 672H483Q483 623 455 592T381 560Q352 560 333 569T290 597Q274 610 262 616T234 623Q203 623 183 606T162 560H135Q135 610 163 641Z" />
<glyph unicode="&#xf2;" glyph-name="ograve" horiz-adv-x="665" d="M247 -10T183 21T84 111T49 245Q49 321 84 379T183 468T332 500Q417 500 481 469T581 379T616 245Q616 169 581 111T482 22T332 -10Q247 -10 183 21ZM421 31T472 88T523 245Q523 345 472 402T332
459Q243 459 193 402T142 245Q142 145 192 88T332 31Q421 31 472 88ZM160 667Q122 693 122 714Q122 725 130 732T154 740Q184 740 207 714L348 560H313L160 667Z" />
<glyph unicode="&#xf3;" glyph-name="oacute" horiz-adv-x="665" d="M247 -10T183 21T84 111T49 245Q49 321 84 379T183 468T332 500Q417 500 481 469T581 379T616 245Q616 169 581 111T482 22T332 -10Q247 -10 183 21ZM421 31T472 88T523 245Q523 345 472 402T332
459Q243 459 193 402T142 245Q142 145 192 88T332 31Q421 31 472 88ZM457 714Q480 740 510 740Q525 740 533 733T542 714Q542 693 504 667L351 560H316L457 714Z" />
<glyph unicode="&#xf4;" glyph-name="ocircumflex" horiz-adv-x="665" d="M247 -10T183 21T84 111T49 245Q49 321 84 379T183 468T332 500Q417 500 481 469T581 379T616 245Q616 169 581 111T482 22T332 -10Q247 -10 183 21ZM421 31T472 88T523 245Q523 345 472
402T332 459Q243 459 193 402T142 245Q142 145 192 88T332 31Q421 31 472 88ZM297 713H367L491 560H442L332 666L222 560H173L297 713Z" />
<glyph unicode="&#xf5;" glyph-name="otilde" horiz-adv-x="665" d="M247 -10T183 21T84 111T49 245Q49 321 84 379T183 468T332 500Q417 500 481 469T581 379T616 245Q616 169 581 111T482 22T332 -10Q247 -10 183 21ZM421 31T472 88T523 245Q523 345 472 402T332
459Q243 459 193 402T142 245Q142 145 192 88T332 31Q421 31 472 88ZM158 610T186 641T261 672Q289 672 310 662T356 632Q373 618 387 610T415 602Q441 602 459 621T480 672H506Q506 623 478 592T404 560Q375 560 356 569T313 597Q297 610 285 616T257 623Q226
623 206 606T185 560H158Q158 610 186 641Z" />
<glyph unicode="&#xf6;" glyph-name="odieresis" horiz-adv-x="665" d="M247 -10T183 21T84 111T49 245Q49 321 84 379T183 468T332 500Q417 500 481 469T581 379T616 245Q616 169 581 111T482 22T332 -10Q247 -10 183 21ZM421 31T472 88T523 245Q523 345 472
402T332 459Q243 459 193 402T142 245Q142 145 192 88T332 31Q421 31 472 88ZM197 560T183 574T168 610Q168 632 183 646T220 661Q242 661 257 647T272 610Q272 588 258 574T220 560Q197 560 183 574ZM421 560T407 574T392 610Q392 632 407 646T444 661Q466 661
481 647T496 610Q496 588 482 574T444 560Q421 560 407 574Z" />
<glyph unicode="&#xf7;" glyph-name="divide" horiz-adv-x="660" d="M298 436T278 454T257 503Q257 532 277 551T330 570Q362 570 382 551T403 503Q403 473 383 455T330 436Q298 436 278 454ZM44 314H616V256H44V314ZM298 0T278 18T257 67Q257 96 277 115T330
134Q362 134 382 115T403 67Q403 37 383 19T330 0Q298 0 278 18Z" />
<glyph unicode="&#xf8;" glyph-name="oslash" horiz-adv-x="665" d="M569 408T592 358T616 245Q616 169 581 111T482 22T332 -10Q267 -10 212 9L169 -50H114L170 28Q112 61 81 116T49 245Q49 321 84 379T183 468T332 500Q421 500 487 466L532 528H587L525 442Q569
408 592 358ZM142 133T205 76L453 419Q405 459 332 459Q243 459 193 402T142 245Q142 133 205 76ZM421 31T472 88T523 245Q523 330 484 386L242 51Q282 31 332 31Q421 31 472 88Z" />
<glyph unicode="&#xf9;" glyph-name="ugrave" horiz-adv-x="617" d="M169 -10T114 40T58 180V490H150V170Q150 103 185 67T287 31Q363 31 409 80T456 211V490H548V0H456V86Q432 41 382 16T267 -10Q169 -10 114 40ZM136 667Q98 693 98 714Q98 725 106 732T130 740Q160
740 183 714L324 560H289L136 667Z" />
<glyph unicode="&#xfa;" glyph-name="uacute" horiz-adv-x="617" d="M169 -10T114 40T58 180V490H150V170Q150 103 185 67T287 31Q363 31 409 80T456 211V490H548V0H456V86Q432 41 382 16T267 -10Q169 -10 114 40ZM433 714Q456 740 486 740Q501 740 509 733T518
714Q518 693 480 667L327 560H292L433 714Z" />
<glyph unicode="&#xfb;" glyph-name="ucircumflex" horiz-adv-x="617" d="M169 -10T114 40T58 180V490H150V170Q150 103 185 67T287 31Q363 31 409 80T456 211V490H548V0H456V86Q432 41 382 16T267 -10Q169 -10 114 40ZM273 713H343L467 560H418L308 666L198 560H149L273
713Z" />
<glyph unicode="&#xfc;" glyph-name="udieresis" horiz-adv-x="617" d="M169 -10T114 40T58 180V490H150V170Q150 103 185 67T287 31Q363 31 409 80T456 211V490H548V0H456V86Q432 41 382 16T267 -10Q169 -10 114 40ZM173 560T159 574T144 610Q144 632 159 646T196
661Q218 661 233 647T248 610Q248 588 234 574T196 560Q173 560 159 574ZM397 560T383 574T368 610Q368 632 383 646T420 661Q442 661 457 647T472 610Q472 588 458 574T420 560Q397 560 383 574Z" />
<glyph unicode="&#xfd;" glyph-name="yacute" horiz-adv-x="571" d="M85 -193T58 -185T12 -163L40 -114Q51 -129 71 -138T111 -147Q144 -147 177 -126T232 -70T253 -1Q253 33 237 62L8 490H110L312 95L504 490H562L317 -15Q230 -193 116 -193Q85 -193 58 -185ZM410
714Q433 740 463 740Q478 740 486 733T495 714Q495 693 457 667L304 560H269L410 714Z" />
<glyph unicode="&#xfe;" glyph-name="thorn" horiz-adv-x="659" d="M69 700H161V399Q189 446 241 473T360 500Q477 500 543 433T610 247Q610 127 543 59T360 -10Q292 -10 241 17T161 95V-190H69V700ZM392 30T433 57T496 134T518 249Q518 347 471 403T342 460Q289
460 248 433T184 357T161 244Q161 146 209 88T339 30Q392 30 433 57Z" />
<glyph unicode="&#xff;" glyph-name="ydieresis" horiz-adv-x="571" d="M85 -193T58 -185T12 -163L40 -114Q51 -129 71 -138T111 -147Q144 -147 177 -126T232 -70T253 -1Q253 33 237 62L8 490H110L312 95L504 490H562L317 -15Q230 -193 116 -193Q85 -193 58 -185ZM150
560T136 574T121 610Q121 632 136 646T173 661Q195 661 210 647T225 610Q225 588 211 574T173 560Q150 560 136 574ZM374 560T360 574T345 610Q345 632 360 646T397 661Q419 661 434 647T449 610Q449 588 435 574T397 560Q374 560 360 574Z" />
<glyph unicode="&#x2013;" glyph-name="endash" horiz-adv-x="678" d="M52 277H626V235H52V277Z" />
<glyph unicode="&#x2014;" glyph-name="emdash" horiz-adv-x="839" d="M52 277H787V235H52V277Z" />
<glyph unicode="&#x2018;" glyph-name="quoteleft" horiz-adv-x="200" d="M143 708Q117 687 101 652T85 579Q95 585 107 585Q130 585 143 572T157 535Q157 512 143 498T103 483Q75 483 59 503T43 561Q43 608 67 653T128 720L143 708Z" />
<glyph unicode="&#x2019;" glyph-name="quoteright" horiz-adv-x="200" d="M57 485Q83 506 99 541T115 614Q105 608 93 608Q71 608 57 622T43 658Q43 681 57 695T97 710Q125 710 141 690T157 632Q157 585 133 540T72 473L57 485Z" />
<glyph unicode="&#x201a;" glyph-name="quotesinglbase" horiz-adv-x="200" d="M313 -128Q339 -107 355 -72T371 1Q361 -5 349 -5Q327 -5 313 9T299 45Q299 68 313 82T353 97Q381 97 397 77T413 19Q413 -28 389 -73T328 -140L313 -128Z" />
<glyph unicode="&#x201c;" glyph-name="quotedblleft" horiz-adv-x="369" d="M143 708Q117 687 101 652T85 579Q95 585 107 585Q130 585 143 572T157 535Q157 512 143 498T103 483Q75 483 59 503T43 561Q43 608 67 653T128 720L143 708ZM312 708Q286 687 270 652T254
579Q264 585 276 585Q299 585 312 572T326 535Q326 512 312 498T272 483Q244 483 228 503T212 561Q212 608 236 653T297 720L312 708Z" />
<glyph unicode="&#x201d;" glyph-name="quotedblright" horiz-adv-x="369" d="M57 485Q83 506 99 541T115 614Q105 608 93 608Q71 608 57 622T43 658Q43 681 57 695T97 710Q125 710 141 690T157 632Q157 585 133 540T72 473L57 485ZM226 485Q252 506 268 541T284
614Q274 608 262 608Q240 608 226 622T212 658Q212 681 226 695T266 710Q294 710 310 690T326 632Q326 585 302 540T241 473L226 485Z" />
<glyph unicode="&#x201e;" glyph-name="quotedblbase" horiz-adv-x="369" d="M313 -128Q339 -107 355 -72T371 1Q361 -5 349 -5Q327 -5 313 9T299 45Q299 68 313 82T353 97Q381 97 397 77T413 19Q413 -28 389 -73T328 -140L313 -128ZM226 -128Q252 -107 268 -72T284
1Q274 -5 262 -5Q240 -5 226 9T212 45Q212 68 226 82T266 97Q294 97 310 77T326 19Q326 -28 302 -73T241 -140L226 -128Z" />
<glyph unicode="&#x2022;" glyph-name="bullet" horiz-adv-x="481" d="M185 81T143 105T76 171T52 269Q52 324 76 366T142 433T240 457Q295 457 338 433T405 367T429 269Q429 214 405 172T338 105T240 81Q185 81 143 105Z" />
<glyph unicode="&#x2039;" glyph-name="guilsinglleft" horiz-adv-x="298" d="M42 285L186 498L246 455L102 285L246 114L186 71L42 285Z" />
<glyph unicode="&#x203a;" glyph-name="guilsinglright" horiz-adv-x="298" d="M48 114L192 285L48 455L108 498L252 285L108 71L48 114Z" />
</font>
</defs>
</svg>
