<?xml version="1.0" standalone="no"?>
<!DOCTYPE svg PUBLIC "-//W3C//DTD SVG 1.1//EN" "http://www.w3.org/Graphics/SVG/1.1/DTD/svg11.dtd">
<svg xmlns="http://www.w3.org/2000/svg">
<defs >
<font id="SlacksideOne" horiz-adv-x="524" ><font-face
    font-family="Slackside One"
    units-per-em="1000"
    panose-1="0 0 0 0 0 0 0 0 0 0"
    ascent="1160"
    descent="-288"
    alphabetic="0" />
<glyph unicode=" " glyph-name="space" horiz-adv-x="250" />
<glyph unicode="!" glyph-name="exclam" horiz-adv-x="265" d="M191 424Q191 411 188 396T184 366Q184 353 186 337T184 303Q178 271 175 236T165 168Q164 162 162 158T158 149Q157 148 157 147T155 145Q154 142 152 139T149 133Q144 114 124 114Q120 115 115
116T105 119Q82 126 80 150V181Q79 185 79 188T81 195V211Q88 285 96 356T114 500Q115 510 123 515T140 518Q155 514 167 505T184 485Q189 474 189 455T191 424ZM141 26Q144 14 141 1Q139 -9 130 -15T109 -20Q102 -19 97 -16T84 -9Q66 4 64 24Q64 25 64 26T63 29Q61
40 67 48T83 58Q98 61 114 56Q138 51 141 26Z" />
<glyph unicode="&quot;" glyph-name="quotedbl" horiz-adv-x="351" d="M168 549Q171 533 158 523Q147 516 143 504T133 481T114 463Q110 462 107 462T100 461Q81 466 71 483Q63 502 63 529T66 579Q68 588 75 594T93 600Q104 599 113 597T131 590Q138 587 144 583T155
571Q154 571 158 569Q162 565 164 560T168 549ZM295 555Q301 546 301 535T294 514Q286 501 281 488Q279 477 271 470T251 460H244Q219 460 210 484Q201 508 205 542T224 596H226Q226 594 228 594Q233 593 236 592T244 590Q260 588 271 579Q278 573 284 568T295
555Z" />
<glyph unicode="#" glyph-name="numbersign" horiz-adv-x="553" d="M491 215Q499 208 497 197T484 181Q465 173 439 172T388 166Q367 163 360 140Q355 116 349 90T335 35Q332 19 320 9Q316 5 315 -1T309 -11Q306 -12 296 -10T273 -3Q253 9 256 30Q261 52 264 76T274
124Q275 132 269 138T255 143Q252 143 250 142T245 141Q236 140 229 134T219 118Q213 101 210 82T203 43Q200 23 183 9Q179 6 175 3T165 -1Q160 -1 158 0Q146 5 144 11Q143 13 142 15T139 19Q123 35 128 56Q130 70 133 83T139 110Q141 118 137 126T123 138Q102
144 87 156T60 183Q53 191 58 199Q61 206 70 206Q86 205 100 209T133 215Q153 217 160 238Q164 250 165 262T169 286Q171 307 151 314Q131 319 115 327T85 351Q77 357 79 368Q79 377 89 379Q109 384 128 386T168 390Q178 391 186 398T196 415Q201 433 204 450T216
481Q220 490 228 492T245 493Q264 486 270 469Q274 459 275 449T275 428Q274 418 280 412T296 408Q299 408 302 408T310 410Q331 412 336 433Q341 450 346 468T356 501Q360 510 370 512T386 506Q403 490 408 469T414 423Q414 410 426 408Q441 405 446 395Q451 388
456 382T464 368Q469 358 464 349T448 338Q441 337 435 337T423 336Q400 336 394 314Q392 303 391 292T388 269Q386 262 391 256T404 248Q413 248 422 247T443 244Q461 242 475 230Q479 226 483 223T491 215ZM309 300Q310 308 304 315T289 321Q285 320 279 320Q256
317 251 294Q250 284 248 272T244 249Q242 242 247 236T261 230Q264 230 267 230T274 231Q283 233 291 240T300 256Q302 267 304 278T309 300Z" />
<glyph unicode="$" glyph-name="dollar" horiz-adv-x="470" d="M414 430Q414 419 406 413T386 409Q385 410 385 410T383 411Q363 418 353 439Q351 442 349 445T344 451Q338 459 329 458T316 446Q307 418 302 388T291 329Q288 309 299 295Q302 288 311 284Q328
274 345 257T369 230Q376 220 378 208T385 183Q389 173 388 163Q388 158 389 153T390 141Q389 121 381 103T368 71Q367 70 365 68T361 66Q358 66 355 63Q345 49 330 42T298 31T270 21Q258 17 250 17T234 18Q224 20 216 14T206 -1Q205 -7 204 -13T201 -25Q200 -35
191 -39T171 -40Q170 -40 169 -40T166 -39Q157 -37 149 -28Q142 -20 144 -8Q145 -2 145 4T146 15Q151 36 130 46Q108 57 90 72T58 110Q54 117 60 122T71 120Q74 119 77 116T83 111Q94 108 104 98Q114 85 133 80Q142 77 151 81T163 95Q173 130 180 169T194 249Q197
271 178 281Q169 286 160 291T140 303Q130 308 124 318Q117 327 112 337T100 355Q90 369 89 384Q85 437 109 475T176 529Q187 533 199 538T231 544Q253 544 258 565Q260 576 262 585T266 608Q268 617 277 621T295 621Q303 619 310 615T324 605Q342 590 340 568Q339
557 336 547T330 526Q329 524 331 519Q333 516 335 514Q343 508 357 503T380 489Q382 487 384 482T390 473Q398 464 406 454T414 430ZM233 448Q235 456 229 460T215 459Q212 457 210 455T204 451Q183 443 175 425Q171 416 168 405T164 380Q162 356 185 348Q186
348 188 346Q196 344 205 348T215 361Q221 383 225 405T233 448ZM286 218Q282 223 276 222T269 214Q265 184 253 160T234 106Q232 98 238 94T251 93Q270 105 282 127T296 174T286 218Z" />
<glyph unicode="%" glyph-name="percent" horiz-adv-x="600" d="M449 439Q435 405 421 372T389 306Q388 305 387 302T385 296Q384 296 384 295Q376 287 373 279Q366 262 355 246T338 210Q335 204 330 203Q326 199 325 196Q322 180 312 164T294 130Q292 126 290
123T285 118Q266 96 255 67T226 15Q220 7 210 2T189 -3Q177 -3 168 3Q158 8 155 17T155 36Q162 53 169 72T185 109Q189 116 195 121T204 133Q207 138 208 145T211 158Q213 162 217 164T223 170Q250 215 268 265T318 358Q320 362 318 365Q317 366 317 368T318 371Q339
397 354 429T385 493Q390 502 400 505T420 504Q428 500 435 494T446 480Q459 461 449 439ZM251 385Q250 375 245 364Q237 348 240 330Q244 310 234 294T205 266T168 248Q148 242 129 251Q126 251 126 253Q110 256 99 270Q80 292 65 317T60 371Q65 385 75 402T100
435T128 456Q137 460 150 460T173 461Q196 460 210 451T240 425Q255 406 251 385ZM191 388Q194 396 189 401T176 404Q153 397 141 379T123 336Q121 329 127 325T139 325Q150 335 158 346T178 366Q183 371 186 376T191 388ZM551 138Q546 77 509 43Q495 29 478 28Q473
27 469 25T459 23Q443 24 421 34T381 61T360 100Q359 110 361 119T364 138Q365 143 367 149T373 160Q387 182 406 201T451 228T508 223Q513 221 517 217T528 209Q549 195 550 175Q552 166 551 161T551 154Q554 147 551 138ZM481 160Q483 167 478 171T468 174Q446
164 431 146T413 105Q411 97 418 91T434 89Q456 98 465 119T481 160Z" />
<glyph unicode="&amp;" glyph-name="ampersand" horiz-adv-x="455" d="M405 179Q403 177 403 171Q400 155 389 144Q381 134 372 125T353 106Q346 99 346 89T353 71Q361 62 370 52T381 30Q383 20 377 12T359 1Q343 0 329 10T303 33Q296 39 287 41T270 38Q244 21
208 4T130 -9Q100 -6 83 10T58 47T50 88Q49 126 59 150T84 194T113 231Q125 251 115 270Q97 306 87 355T90 444Q98 466 116 475Q152 495 189 496T259 484T313 442T339 376Q339 369 338 361T333 346Q328 336 323 325T309 303Q295 283 278 266T246 230Q240 223 239
213T245 194Q251 187 256 181T269 168Q274 161 283 161T299 165Q319 183 343 200T391 209Q401 205 404 197T405 179ZM235 403Q237 413 230 421T213 428Q191 426 181 402T175 350Q177 343 184 342T198 345Q209 359 220 372T235 403ZM215 130Q214 132 212 134T208
139Q201 146 192 146T178 138Q168 125 159 112T148 83Q147 74 154 70T168 69Q179 77 189 84T211 99Q219 104 220 113T215 130Z" />
<glyph unicode="&apos;" glyph-name="quotesingle" horiz-adv-x="208" d="M160 429Q162 407 146 391Q136 381 116 376Q110 376 104 376T91 376Q81 378 75 385T68 403Q67 424 64 453T64 508T85 550Q98 563 108 561Q126 561 136 545Q153 521 155 490T160 429Z" />
<glyph unicode="(" glyph-name="parenleft" horiz-adv-x="330" d="M273 468Q271 454 257 447T226 432T200 410Q191 396 188 375Q187 370 185 364T179 353Q175 348 175 339Q175 314 167 285T154 225Q152 205 153 180T159 131T174 93Q182 81 196 75T226 64T253 46Q259
40 258 31T249 15Q233 2 209 5Q172 11 148 29T100 66Q86 77 81 98Q77 125 68 144Q63 153 59 167T51 196Q48 209 53 224Q54 228 54 232T54 240Q52 253 55 264Q60 282 65 305T70 348Q70 357 73 364Q88 412 113 449T180 509Q191 516 205 516H225Q245 519 259 500Q264
492 269 486T273 468Z" />
<glyph unicode=")" glyph-name="parenright" horiz-adv-x="325" d="M265 320Q264 317 264 314T264 306Q265 271 261 225T243 133T203 53Q192 40 180 35Q173 32 168 29T158 21Q141 7 116 10Q101 12 89 20T68 39Q62 47 63 56T71 73Q82 82 95 90T118 109Q135 129
145 161T161 231T169 305T173 371Q173 394 165 418Q161 427 150 432T126 444T104 461T96 495Q98 496 98 499Q98 505 101 506Q110 510 119 510Q145 507 167 500T206 473Q208 470 215 469T224 464Q247 442 261 405T265 320Z" />
<glyph unicode="*" glyph-name="asterisk" horiz-adv-x="488" d="M420 479Q420 478 420 478T419 476Q412 466 403 464Q400 463 397 462T391 459Q390 458 388 458T384 456Q382 455 380 453T374 449Q360 442 353 437T335 424Q328 420 329 412T336 400Q354 391 372
382T410 363Q420 358 420 346Q419 340 414 336T403 333Q379 338 352 344T296 361Q288 364 280 360T270 348Q266 326 261 299T253 260Q253 259 251 258T248 260Q248 263 245 260Q240 257 238 250Q234 243 228 241Q222 240 218 241Q214 244 209 244T201 248Q200 250
198 252T193 255Q186 261 185 284T185 328Q186 336 180 339T169 340Q151 332 131 327T93 323T66 339Q61 347 63 357T75 371Q93 380 109 389T145 408Q151 410 151 417T145 426Q127 436 112 447T89 476Q85 485 91 492T105 498Q127 495 141 489T175 474Q183 471 190
475T198 486Q200 503 202 522T205 545Q205 546 205 547T206 550Q209 561 219 565T239 564Q240 564 240 564T241 563Q260 555 268 536Q278 516 281 496Q283 488 290 484T305 481Q317 485 326 487T346 500Q348 501 350 501L351 500Q354 498 356 500Q362 506 370 509T386
515Q405 521 420 506Q426 501 426 493T420 479Z" />
<glyph unicode="+" glyph-name="plus" horiz-adv-x="443" d="M373 229Q381 215 370 201Q358 191 344 191Q331 193 317 192T289 188Q266 183 263 160Q261 148 261 135T259 106Q257 93 243 84Q229 76 214 84Q181 100 181 153Q181 161 175 167T160 171Q131 170 103
179T64 213Q60 221 64 230T79 240Q128 249 170 255Q192 257 195 280Q199 302 203 320T218 358Q220 364 230 366Q240 366 246 361Q254 356 262 349T278 333Q291 312 283 291Q283 290 282 290T281 289Q279 279 283 271T298 261Q309 260 320 258T343 253Q361 249 373
229Z" />
<glyph unicode="," glyph-name="comma" horiz-adv-x="230" d="M173 4Q172 -10 163 -18T146 -36Q145 -38 146 -42T146 -48Q142 -57 135 -62T121 -74Q114 -81 104 -83T84 -83Q74 -79 71 -70T71 -50Q73 -47 75 -45T79 -40Q91 -23 79 -6Q66 10 63 29Q61 40 66 49T81
63Q103 71 124 66T160 44T173 4Z" />
<glyph unicode="-" glyph-name="hyphen" horiz-adv-x="439" d="M368 194Q383 178 380 165T363 144T335 135Q315 138 303 138T278 137T245 139Q237 141 231 139Q206 135 188 131T146 130Q131 132 118 140T90 151Q76 154 68 163Q61 168 62 176T73 188Q74 189 78
190Q90 200 105 200Q134 202 162 203T223 205Q247 206 261 207T293 208Q308 208 333 206T368 194Z" />
<glyph unicode="." glyph-name="period" horiz-adv-x="245" d="M174 29Q172 23 171 18T166 8Q158 -16 133 -14Q116 -14 101 -3T73 23Q58 40 64 61Q65 65 66 68T68 75Q70 86 79 92T98 100Q124 102 146 91Q167 81 173 60Q177 46 174 29Z" />
<glyph unicode="/" glyph-name="slash" horiz-adv-x="488" d="M444 488Q441 477 430 468T410 445Q401 431 396 416T385 390Q383 386 378 386Q372 386 370 383Q358 362 347 343T324 303Q323 300 322 297T318 291Q316 290 315 290Q307 283 300 273Q256 199 211 131T118
-8Q111 -16 102 -17T84 -13L81 -11Q63 0 63 24V29Q62 37 64 46T71 63Q119 137 172 216T274 374Q291 402 309 433T346 494Q353 503 362 512T376 531Q382 539 391 541T409 539Q424 529 435 515T444 488Z" />
<glyph unicode="0" glyph-name="zero" horiz-adv-x="553" d="M483 391Q500 335 495 277T466 164Q461 150 458 138T448 111Q445 105 442 99T433 85Q429 80 424 76T414 65Q412 61 411 57T406 49Q404 45 401 42T393 36Q383 31 373 27T354 18Q350 15 346 13T338 8Q337
7 333 1T328 -5Q321 -5 314 -5T301 -8Q292 -12 283 -13T266 -16Q256 -21 248 -21Q220 -22 199 -20T158 -7T116 29Q85 71 73 116T63 198Q67 240 74 286T100 375T152 455T245 514Q251 517 257 517T270 518Q278 517 285 516T299 513Q310 512 315 502T316 481Q312 472
301 464T278 451Q274 450 271 449T265 444Q212 407 185 350T153 228T158 104Q160 93 173 80T199 55Q216 41 239 46Q284 58 311 81T355 131T388 181Q394 191 396 205Q398 222 406 245T415 290V291Q424 309 421 323V325Q420 333 418 345T413 365Q409 381 401 392T384
416Q380 423 377 429T370 441Q369 443 362 454T365 479Q367 482 371 483T380 485Q390 487 397 486T413 479Q422 475 432 468T449 453Q460 439 469 424T483 391Z" />
<glyph unicode="1" glyph-name="one" horiz-adv-x="425" d="M330 451Q331 432 326 410T316 368Q312 347 303 325T288 280Q285 267 284 254T280 229Q279 225 273 205T259 163T248 126Q242 103 238 75T226 25T195 -5Q174 -13 155 3Q137 17 134 35T135 84Q143 125
156 170T180 263Q186 291 193 317T208 371Q210 381 214 394T216 418Q215 427 206 427T189 429Q178 430 171 443T161 466Q160 470 160 479Q160 503 183 506Q189 508 195 509T203 510Q207 511 210 512T216 514Q233 518 249 518T284 510Q302 503 315 488T330 451Z"
/>
<glyph unicode="2" glyph-name="two" horiz-adv-x="553" d="M479 11Q473 -5 458 -6Q419 -10 382 -5T307 6T229 10Q213 9 197 8T168 1Q158 -2 147 -12T124 -21Q114 -21 107 -15T91 -4Q87 0 83 5T76 16Q71 34 83 45Q107 68 133 90T185 134Q192 137 196 145Q205 157
216 167T236 189Q238 193 240 196T245 200Q254 209 272 231T310 285T348 351T374 421Q376 431 370 438T354 443Q346 440 339 441Q324 444 308 436Q288 427 269 417T233 395Q213 381 193 390Q187 392 182 395T171 403Q163 411 161 421T163 441Q177 475 210 492T286
512T366 508Q376 506 384 502T403 495Q417 492 428 483Q449 466 464 446T479 394Q479 365 466 338T435 286T403 238Q400 233 400 228T396 218Q387 203 372 191T344 163Q337 154 333 144T323 126Q312 115 300 106T278 88Q271 83 273 76T283 66Q308 62 335 62T383
66Q389 68 396 67T410 64Q416 62 422 61T434 58Q451 54 465 40Q466 37 471 35Q486 27 479 11Z" />
<glyph unicode="3" glyph-name="three" horiz-adv-x="470" d="M413 411Q412 401 410 392T406 373Q403 358 394 348Q380 331 369 317T341 289Q336 285 336 278T341 265Q361 247 367 217T371 161Q371 153 368 149T364 133Q363 120 355 109Q342 89 320 69T274 33T228
11Q220 9 214 5Q199 -5 173 -9T121 -9Q99 -4 89 16Q87 21 84 24T79 31Q73 40 76 48T89 60Q127 68 165 84T228 123Q248 140 260 168T266 220Q265 231 257 237T238 243Q217 242 202 254T179 289Q176 298 180 307T194 321Q213 330 230 340T264 364Q273 372 281 382T296
403Q300 411 302 423T293 439Q289 441 284 441T273 441Q249 446 229 453Q214 458 201 468T181 493Q177 501 181 509T195 519Q225 524 262 520T334 505T385 476Q391 470 394 463T401 450Q415 433 413 411Z" />
<glyph unicode="4" glyph-name="four" horiz-adv-x="525" d="M461 185Q461 174 454 167T435 158Q412 156 394 155T356 151Q333 147 328 126Q317 94 312 59T294 -6Q286 -28 265 -28Q240 -30 230 -9Q229 -2 225 3Q210 20 214 40Q217 58 221 79T231 119Q233 127 228
133T214 139Q204 138 192 137T168 138Q157 141 145 138Q129 135 110 143T76 161Q57 175 64 195Q65 198 65 201T65 206Q62 220 65 234Q77 281 108 321T169 400Q193 433 214 464T263 523Q281 537 301 531Q318 527 326 518T340 491Q348 470 336 450Q328 437 317 426T294
403Q289 398 288 395Q286 394 285 393T281 390Q277 389 275 386T268 378Q267 376 265 374T261 370Q253 362 245 351Q242 347 240 344T235 336Q234 335 233 333T230 328Q229 326 227 325T224 321Q218 315 213 309T203 296Q197 289 194 281Q188 270 180 259T163 236Q158
231 162 224T173 218Q187 218 201 220T231 225Q254 227 260 249Q269 279 275 309Q279 325 283 341T291 373Q293 375 293 378T295 383Q296 386 303 391Q307 394 311 396T319 400Q321 400 323 400T326 401Q331 404 334 404H348Q353 404 356 401Q358 400 360 399T364
396Q365 395 365 395T366 394Q370 393 370 386Q371 384 371 378V363Q369 335 365 308T354 251Q352 243 359 238T374 236Q393 249 414 239Q431 231 445 217T461 185Z" />
<glyph unicode="5" glyph-name="five" horiz-adv-x="443" d="M314 76Q314 75 310 66T301 47T291 30Q286 23 281 17T271 5Q260 -6 235 -19T184 -37T141 -28Q139 -26 142 -24T144 -20Q140 -15 129 -9T108 6Q101 12 104 20T116 29Q164 28 192 48T224 120Q224 139
213 156Q203 170 189 177T160 178Q139 168 118 176Q103 182 93 189Q73 201 68 221Q61 250 64 282T74 349Q83 391 93 434T116 516Q123 538 145 540Q158 541 166 540Q177 539 183 531T191 511Q193 470 186 436T169 370T155 299Q154 289 159 283T173 274Q201 270 228
257T277 225T308 186Q320 159 321 131T314 76ZM373 450Q376 427 364 415T333 399T293 396T256 403Q244 407 231 414T211 434Q206 446 211 456Q215 468 228 471Q242 477 257 481T289 486Q303 488 318 488T346 484Q360 480 365 473T373 450Z" />
<glyph unicode="6" glyph-name="six" horiz-adv-x="425" d="M361 119Q363 113 362 107T358 96Q354 85 349 75T334 51Q328 41 312 28T277 4T240 -10Q228 -13 217 -12T194 -11Q187 -12 182 -11T170 -9Q128 8 105 36T68 105Q59 158 65 199T87 273T120 335Q137 364
161 391T205 443Q221 462 241 480T285 513Q304 522 325 519Q355 512 356 485Q356 463 338 449Q272 406 231 344T150 213Q146 206 144 195T140 175Q139 165 139 153T138 130Q138 115 147 101T174 79Q185 73 192 72T211 74Q221 77 227 78T241 85Q249 91 255 97T265
113Q269 119 273 130T276 150Q276 157 271 160Q261 169 251 170Q246 172 241 174T230 178Q225 180 217 182T203 188Q200 191 201 201T205 222T211 235Q216 240 226 240T243 240Q264 240 285 234T324 213Q355 188 357 167T361 119Z" />
<glyph unicode="7" glyph-name="seven" horiz-adv-x="473" d="M406 444Q412 422 403 395T383 341Q380 337 380 329Q373 275 356 225T321 127T289 30Q287 23 284 17T276 6Q275 5 274 3T271 -1Q267 -11 257 -15T236 -19Q235 -19 233 -19T229 -18Q222 -15 215 -11T203
-1Q199 3 195 3T189 13Q188 28 193 52T208 100T224 141Q229 155 237 179T249 216Q266 272 282 322T310 428Q311 437 306 445T291 456Q276 461 251 467T203 482T171 500Q165 507 168 516T180 528Q203 534 238 530T308 516T366 496Q382 489 393 471Q397 465 401 459T406
444ZM158 446Q155 430 146 412T131 374Q130 367 129 357T125 335Q124 326 116 320T96 315Q86 317 78 322T65 338Q49 370 59 408T84 479Q88 488 97 492T115 494Q134 488 147 476T158 446Z" />
<glyph unicode="8" glyph-name="eight" horiz-adv-x="448" d="M389 385Q389 369 373 366Q361 365 350 370Q339 376 329 383T313 403Q310 409 306 415T295 425Q269 447 228 441Q203 437 195 424T180 396Q172 376 181 356Q185 348 190 341T199 328Q204 321 213 320T229
325Q237 333 244 340T261 351Q270 355 278 351T289 336Q295 298 266 263Q254 246 264 228Q286 187 297 140T291 43Q272 6 225 -9T123 -14Q106 -9 95 1Q76 20 69 37T63 74Q67 120 84 150T124 203T164 245Q171 253 171 263T165 281Q154 298 141 312T113 339Q108 344
108 351Q108 355 104 361Q90 380 93 401T109 444T135 481Q143 493 160 500Q204 516 241 506T319 480Q332 474 341 465Q348 458 355 452T369 438Q379 427 383 414Q385 407 387 400T389 385ZM219 189Q215 196 207 196T194 190Q184 177 175 166T158 153Q156 153 149
137T136 105T129 84Q126 74 128 64T140 49Q143 47 157 46T178 46Q181 50 188 50Q216 57 226 80T235 133T219 189Z" />
<glyph unicode="9" glyph-name="nine" horiz-adv-x="440" d="M364 364Q375 348 372 329T361 293Q357 286 356 278T350 264Q349 261 344 260T336 254Q330 242 328 226T316 199Q315 197 311 195T305 191Q302 183 302 175T300 160Q299 159 295 156T289 149Q285 142
277 130T266 110Q265 106 266 101T266 91Q265 87 262 87T255 84Q247 70 243 51T230 18Q226 11 222 5T213 -6Q201 -25 178 -23Q162 -21 153 -14T135 5Q121 22 129 45Q152 109 190 168T256 286Q258 289 255 291T249 290Q245 281 235 278Q195 263 156 268T90 308Q82
318 80 330Q79 335 78 338T74 345Q64 358 64 373Q61 399 67 425T90 471Q94 475 97 478T105 484Q116 491 128 497T150 513Q157 520 168 523Q199 533 222 526T275 505Q280 504 282 501T289 494Q293 491 299 490T309 485Q312 482 314 480T319 474Q324 470 333 463T343
448Q345 442 342 431T334 416Q327 411 316 409T296 405Q283 404 276 411T260 426Q253 433 244 439Q240 442 234 443T223 444Q205 445 191 444T164 428Q154 415 141 399T131 364Q133 358 134 350T139 336Q144 332 151 331T165 329Q171 329 176 328T185 329Q188 330
191 332T196 336Q200 338 203 337T209 336Q228 335 240 344T269 358Q276 360 282 360T295 361Q302 363 304 367T311 375Q317 385 329 384Q340 381 349 377T364 364Z" />
<glyph unicode=":" glyph-name="colon" horiz-adv-x="250" d="M174 290Q184 267 173 249Q170 246 168 243T161 235Q156 228 147 225T128 224Q113 227 104 239Q102 241 101 242T98 245Q79 259 81 280Q81 285 81 289T80 298Q79 307 84 315T99 326Q121 333 142 322T174
290ZM173 105Q173 104 172 104T171 101Q167 97 165 93T161 84Q159 73 151 66T134 56Q122 55 115 60T100 70Q90 78 84 91Q82 97 78 102T71 114Q67 125 70 135T84 150Q107 161 134 156T171 130Q177 120 173 105Z" />
<glyph unicode=";" glyph-name="semicolon" horiz-adv-x="243" d="M163 269Q158 257 148 249T123 239Q101 237 91 247T71 279Q67 290 65 294Q64 299 63 304T64 314Q67 323 78 328Q86 330 93 331T108 331Q129 331 145 313Q146 311 148 310T151 306Q171 292 163
269ZM166 135Q173 119 171 102T154 71Q150 67 145 64T134 59Q127 56 113 51T83 43Q73 41 68 48T65 64Q68 71 71 77T79 91Q89 112 79 131Q78 133 77 136T75 140Q72 151 78 159T94 169Q105 170 115 168T135 163Q157 157 166 135Z" />
<glyph unicode="&lt;" glyph-name="less" horiz-adv-x="338" d="M283 360Q285 341 273 328Q248 297 222 267T168 209Q161 202 162 192T170 175Q173 174 176 171T184 166Q194 162 201 153Q205 148 210 144T223 136Q227 135 229 132T235 126Q237 124 239 122T244
118Q252 111 257 102T264 81Q265 75 264 68T259 54Q251 40 235 43Q208 45 194 58T160 88Q150 96 138 102T118 115Q118 116 119 117T120 120Q112 127 105 135T91 151Q87 155 85 160T80 169Q79 171 79 172T76 175Q72 181 69 188T64 201Q64 205 64 208T63 214Q60 237
79 251Q90 260 100 271T116 294Q119 298 122 301T129 309Q149 325 165 344T201 378Q203 379 205 378T208 378Q221 387 229 394Q237 402 247 402T264 395Q264 395 268 393Q280 380 283 360Z" />
<glyph unicode="=" glyph-name="equal" horiz-adv-x="353" d="M294 288Q302 278 298 268T283 254Q272 250 257 252T226 254Q220 254 214 252T201 248Q197 247 195 250T189 253Q177 253 160 250T126 248Q100 248 86 256T65 274Q61 283 65 292T79 304Q102 309 130
310T186 315Q199 317 211 316T233 315Q242 317 251 316T268 310Q284 301 294 288ZM290 160Q297 153 296 143T286 125Q271 115 248 113T200 113T151 114Q144 113 135 116T116 120Q112 121 107 123T98 126Q94 129 90 130Q77 136 69 148Q62 156 65 165T79 175Q102
179 120 178T161 175Q183 172 205 179T248 184Q263 183 272 176T290 160Z" />
<glyph unicode="&gt;" glyph-name="greater" horiz-adv-x="363" d="M300 231Q302 222 299 215Q295 210 290 206Q289 205 286 205T281 203Q273 199 264 190Q246 171 222 149T176 108T139 76T121 63Q119 63 118 61H115Q91 56 75 71Q74 73 73 74T70 78Q55 96 68 116Q88
153 124 180T188 238Q194 246 195 256T189 274Q173 294 154 311T118 347T93 391Q91 399 96 406T109 413Q127 415 140 408Q148 404 154 400T166 391Q171 389 175 384T184 374Q194 357 209 344T239 318T261 289Q263 285 266 282T271 274Q289 257 300 231Z" />
<glyph unicode="?" glyph-name="question" horiz-adv-x="460" d="M399 391Q399 384 395 375T388 356Q387 352 389 349T390 343Q385 323 372 303T343 270Q340 267 338 265T333 259Q327 251 320 243T304 228Q296 222 295 216Q294 212 291 210T285 205Q285 205 283
203Q274 196 269 188Q268 187 267 186T266 184Q264 180 261 176T255 168Q241 156 238 139Q235 129 233 120T226 99Q222 89 213 86T195 88Q177 99 178 119T190 162T206 206Q208 210 210 213T214 221Q218 225 220 237T229 259Q240 281 259 304T289 351Q297 368 303
393T305 429Q298 445 282 448T249 459Q228 467 209 458Q183 445 164 422T121 380Q105 368 88 373Q67 376 64 395Q58 421 78 447T125 495Q135 503 149 511T175 524Q186 527 204 527T236 529Q251 531 264 525Q297 513 327 497T379 448Q384 438 391 422T399 391ZM233
-20Q217 -36 193 -31T158 -4Q153 6 157 15T170 29Q186 34 203 31T231 18Q239 11 240 0T233 -20Z" />
<glyph unicode="@" glyph-name="at" horiz-adv-x="750" d="M671 186Q670 185 670 183T668 179Q653 142 626 116T554 89Q526 90 502 102T456 131Q452 134 451 138T448 146Q447 150 443 151T436 150Q419 135 398 123T356 96Q351 92 345 90T331 86Q299 82 278 95T233
123Q226 128 220 136T211 154Q207 171 204 192T205 241Q208 256 217 274T235 303Q246 319 260 332T291 354Q314 365 335 364T374 359Q391 357 406 347T434 326Q441 321 448 323T459 333Q463 343 467 352T475 369Q479 376 489 374Q493 372 496 370T500 365Q510 351
521 337T526 303Q525 298 525 293T525 283Q529 255 522 230T515 175Q516 165 523 158T541 151Q568 151 584 171T609 222T618 284T618 336Q611 390 579 421T500 466T402 479T305 468Q292 464 283 456Q279 454 275 451T266 446Q221 430 197 393T150 314Q145 306 143
295V294Q142 290 141 287T138 280Q136 276 135 272T131 263Q129 257 127 251T125 238Q125 197 141 152T183 80Q200 61 223 54T269 36Q273 35 276 34T284 31Q312 26 338 24T393 18Q398 18 404 18T416 20Q430 25 445 30T475 39Q486 43 496 41T515 34Q517 33 518 32T520
31Q536 22 530 6Q528 -7 515 -10Q508 -12 504 -17T493 -26Q468 -40 443 -39T383 -44H368Q282 -36 220 -9T105 73Q104 74 104 76T106 79Q108 80 107 81T105 83Q98 86 94 94Q87 106 80 124T68 158Q65 172 64 194T63 238T71 270Q74 274 70 274Q68 276 69 279Q83 332
109 381T163 460Q202 495 256 515T369 539T485 530T588 486Q596 481 603 473Q607 466 618 460Q630 451 638 438Q640 433 643 428T651 419Q660 412 665 404Q683 374 690 335T694 257T671 186ZM409 248Q414 256 412 266T401 283Q386 293 371 293T336 279Q325 271
313 255T291 223T278 198Q277 196 277 190T275 179Q275 175 276 170T281 161Q289 153 300 158Q315 166 330 173T360 188Q372 196 381 206Q388 217 395 227T409 248Z" />
<glyph unicode="A" glyph-name="A" horiz-adv-x="641" d="M580 321Q579 317 579 310T576 298Q571 285 571 273Q575 219 563 174T540 79Q539 76 538 72T535 63Q529 53 529 41Q529 35 527 29T523 18Q516 3 501 -5Q489 -11 473 -8Q469 -8 466 -7T459 -5Q436 2 436
25Q438 58 443 78T451 130Q454 142 458 150Q462 157 461 165T463 181Q466 192 466 203Q465 234 467 270T471 342T469 408Q468 416 460 420T444 421Q416 409 392 388T349 345Q347 344 345 342T340 340Q334 340 331 334Q329 327 326 321T316 309Q306 302 299 288Q296
282 294 278T288 269Q283 265 280 261T275 250Q274 246 271 242T264 235Q260 231 257 227T250 218Q228 173 197 136T141 53Q139 47 135 43T125 34Q120 30 115 25T105 18Q101 18 99 17T94 13Q89 8 85 6Q84 5 82 4T78 1Q71 -3 66 1T61 13Q89 120 135 207T240 375Q242
377 244 379T248 384Q271 405 296 428T352 469T416 495T490 493Q540 472 562 426T580 321ZM418 198Q422 184 414 176Q397 159 374 155T324 158Q308 161 296 174Q294 176 291 178T284 183Q276 185 276 193Q276 199 284 203Q304 208 330 219T378 228Q386 227 391
222T404 213Q411 208 418 198Z" />
<glyph unicode="B" glyph-name="B" d="M450 345Q446 340 445 331T440 316Q439 315 436 315T431 313Q425 304 421 293T413 275Q411 272 408 270T401 265Q394 260 393 251T396 233Q415 208 409 179T388 122T361 74Q360 73 359 71H358Q354 71 351 66Q345 49 331 37T306
10Q299 1 288 -5Q283 -8 280 -13T274 -19Q270 -20 269 -20T268 -20Q268 -20 268 -20T266 -21Q259 -28 250 -29T230 -29Q225 -29 219 -27T208 -23Q207 -21 205 -22T201 -23Q200 -24 200 -23T199 -20Q201 -18 198 -18Q194 -19 193 -18Q180 -11 189 0Q215 33 244 61T298
124T334 205Q337 219 331 231Q330 235 328 236Q324 241 321 246T315 256Q314 258 314 259T313 261Q302 281 313 300Q324 321 338 339T360 380Q362 384 364 392T368 404Q372 430 359 445T325 470T283 489T249 513Q247 515 247 519T249 526Q255 534 264 534H280Q296
537 309 530Q335 520 368 505T419 473Q423 469 424 466H425Q432 462 438 457T448 445Q479 392 450 345ZM243 459Q241 434 235 406T220 351Q213 326 206 292T192 221T177 152T160 98Q159 93 158 89T156 79Q155 62 152 49T146 19Q146 11 143 3T135 -11Q131 -14 128
-16T119 -20Q112 -21 106 -18T94 -13Q82 -7 75 0Q73 1 70 4Q58 12 61 25Q63 28 63 31T63 38V39Q74 87 86 148T111 273T140 397T175 500Q179 510 189 513T209 510Q212 509 214 507T219 503Q228 497 234 488Q243 476 243 459Z" />
<glyph unicode="C" glyph-name="C" horiz-adv-x="554" d="M491 449Q497 439 491 430T474 421Q464 423 454 427T434 434Q420 437 402 437T370 436Q359 435 348 428T324 415Q321 414 318 415T311 415Q307 412 305 408T298 401Q292 399 286 398T274 394Q267 390 261
382T244 369Q235 363 228 356Q196 320 175 277T143 183Q140 173 143 161Q145 154 144 147T143 131Q147 109 167 92T204 69Q229 60 255 64T306 77T353 88Q362 89 370 83T380 66Q380 64 381 63Q387 43 375 28Q371 22 365 18T351 11Q280 -19 204 -5Q163 3 135 21T89
76Q86 82 83 88T78 101Q75 108 72 120T66 139Q55 184 62 229T83 313Q96 349 117 383T166 444Q169 447 172 449T180 454Q211 469 244 492T314 521Q364 528 401 512T471 473Q483 466 490 451Q491 450 491 449Z" />
<glyph unicode="D" glyph-name="D" horiz-adv-x="571" d="M501 255Q492 228 481 203T448 155Q441 147 431 130T409 99Q406 95 401 93T391 86Q384 76 373 66T349 45Q347 44 344 44T339 43Q324 33 309 19T283 -1Q277 -5 271 -5T258 -9Q235 -17 220 -1Q213 6 210
10Q203 18 204 28T211 46Q222 56 234 65T253 80Q265 90 274 95T296 114Q318 135 335 150T367 183T395 231Q404 250 410 276T413 332T386 390Q366 425 338 439T283 461T239 481Q231 487 232 497T244 509Q264 514 302 512T391 494Q412 487 419 481T443 460Q449 455
453 449T463 438Q465 435 470 428T479 418Q507 384 510 339T501 255ZM211 438Q214 425 211 414Q187 309 169 206T131 6Q129 -4 120 -9T101 -10Q98 -10 94 -8Q84 -4 77 3T65 20Q64 26 62 32T60 45Q65 77 72 111T86 176Q95 215 103 259T120 344T135 419Q137 431 138
445T141 470Q144 481 153 485T173 484Q175 484 178 481Q192 477 200 465Q209 454 211 438Z" />
<glyph unicode="E" glyph-name="E" horiz-adv-x="500" d="M459 458Q459 439 440 432T396 424T351 420Q332 419 313 414T276 406Q265 404 258 406T241 409Q236 410 231 412T221 415Q217 418 212 419T204 423Q197 428 191 426Q182 424 179 431Q171 445 183 459Q206
485 244 495T328 509Q356 513 384 511T430 498Q437 495 440 490T448 480Q459 472 459 458ZM286 35Q289 28 286 22T276 13Q251 1 220 -4T156 -8T98 7T60 43Q44 72 47 113T63 196T86 270Q96 297 105 334T128 396Q132 406 141 408T156 405Q161 401 165 398T173 390Q186
373 184 353Q180 311 167 263T141 168T124 81Q123 72 129 65T145 59Q171 60 196 69T241 75Q252 74 257 67T271 54Q283 46 286 35ZM309 218Q309 215 309 213T308 208Q306 195 296 188T273 181Q252 183 238 197T216 229Q212 240 217 251T234 266Q239 269 245 271T255
276Q266 282 278 280T295 266Q296 265 297 264T299 261Q312 243 309 218Z" />
<glyph unicode="F" glyph-name="F" horiz-adv-x="553" d="M515 459Q512 445 495 441Q459 438 415 434T327 424T248 413Q229 409 211 419Q204 424 198 429T183 438Q172 442 166 454Q162 459 164 465T173 476Q193 491 224 495T283 504Q311 509 342 514T405 520T460
510Q465 509 469 510Q470 511 473 511Q475 511 476 510Q484 506 492 502T506 490Q520 479 515 459ZM200 359Q200 353 199 349Q195 326 186 292T171 234Q164 203 159 181T150 139T140 93Q136 73 134 52T126 9Q124 -1 115 -8T95 -14Q91 -13 87 -12T78 -9Q57 -2 49
16Q48 19 46 19Q44 24 42 30T40 43Q39 44 39 48Q35 59 38 74Q55 152 69 228T116 375Q121 385 131 389T150 389Q155 387 159 386T170 384Q182 386 190 378T200 359ZM394 234Q394 217 373 210Q355 205 337 202T304 194Q298 192 298 198Q298 201 294 201Q267 203 251
213T224 235Q218 243 222 252T238 264Q259 271 285 277T334 281Q364 281 380 263Q380 262 380 262T381 260Q395 249 394 234Z" />
<glyph unicode="G" glyph-name="G" horiz-adv-x="525" d="M464 206Q462 195 450 190Q446 189 443 189T434 188Q413 185 408 164Q405 154 400 146T394 129Q393 116 384 104Q376 92 368 79T348 54Q339 47 330 39T311 25Q295 15 277 4T240 -10Q211 -14 176 -5T114
24T83 75Q83 79 78 81Q73 84 73 89Q66 131 63 166T64 236T83 316Q101 371 138 419T223 495T323 516Q343 515 372 499T421 468Q431 461 426 445T414 426Q404 425 393 427T369 431Q366 433 364 433T359 435H358Q353 431 341 429Q319 423 298 412T260 389Q255 385
249 378Q236 361 226 341T201 306Q197 304 195 301T191 293Q178 263 168 229T146 163Q145 158 145 154T144 144Q145 125 149 116T160 95Q166 88 172 83T188 75Q223 63 249 74T298 109T340 158Q346 164 345 172T335 185Q323 193 312 203T296 230Q294 240 298 247T313
256Q333 260 356 266T391 269Q400 268 405 262T416 253Q424 249 432 249T448 245Q453 241 456 236T460 226Q464 218 464 206Z" />
<glyph unicode="H" glyph-name="H" horiz-adv-x="683" d="M613 398Q595 342 582 287T550 179Q549 175 549 172T548 163Q547 137 541 113T530 60Q530 56 526 56Q523 56 524 53Q526 32 522 15T516 -5Q514 -5 514 -8Q507 -16 498 -16T478 -11Q457 -4 449 16Q446 23
443 29T438 39Q426 57 431 79Q456 183 485 296T555 513Q557 519 563 521T576 521Q584 516 590 509Q599 496 609 481T623 451T613 418Q608 411 613 408Q615 403 613 398ZM260 446Q259 442 259 439T259 431V429Q237 362 218 293T178 158Q175 152 175 146Q171 115
164 76T145 5Q141 -5 132 -10T113 -14Q100 -11 92 -4T75 11Q60 29 60 51Q61 65 65 80T71 115Q78 155 89 202T114 297T140 385Q150 417 160 445T180 500Q183 508 192 512T209 513Q224 506 235 496T255 473Q264 461 260 446ZM444 279Q449 271 446 262T435 249Q376
222 316 231Q297 236 284 249Q277 256 269 260T254 271Q246 279 248 289T261 301Q294 310 331 313T399 311Q415 309 425 300T444 279Z" />
<glyph unicode="I" glyph-name="I" horiz-adv-x="321" d="M259 446Q259 438 256 430T251 411Q250 401 248 391T244 373Q242 360 240 350T236 326Q236 322 235 320T231 313Q231 309 231 306T230 299Q229 295 228 287T225 276Q214 230 207 191T186 119Q183 112 183
103Q181 87 177 66T166 26Q164 17 163 8T153 -6Q135 -18 116 -8Q115 -6 113 -5T109 -3Q97 6 93 19Q90 27 87 32T80 44Q77 53 79 66T85 89Q99 137 113 193T141 305Q148 328 150 351T159 400Q162 411 163 422T166 446Q168 453 169 462T170 479Q171 497 179 503T195
510Q210 513 218 510T238 498Q259 483 259 473T259 446Z" />
<glyph unicode="J" glyph-name="J" horiz-adv-x="506" d="M446 415Q444 396 441 377T436 336Q436 327 433 318Q427 305 426 291T423 261Q420 252 416 244Q414 240 412 235T410 224Q407 205 403 186T388 149Q386 146 382 144T374 138Q363 123 353 104T329 71Q288
27 238 11Q213 3 177 1T109 6Q92 11 80 24Q80 24 76 26Q64 39 60 58Q59 66 65 72T79 78Q164 73 220 114T305 227T340 388Q342 411 349 437T360 488V498Q359 508 366 513T384 516Q399 510 410 500T431 478Q436 471 439 463T443 446Q443 443 444 440Q446 435 447
429T446 415Z" />
<glyph unicode="K" glyph-name="K" horiz-adv-x="604" d="M269 438Q267 419 261 406T254 376Q254 374 251 375Q246 375 246 373Q246 351 240 332T225 293Q224 289 222 285T220 276Q219 261 217 246T209 215Q205 201 198 189T188 161Q187 152 185 140T179 118Q173
101 169 79T156 41Q154 36 152 31T149 20Q149 16 148 13T144 5Q136 -12 115 -10Q98 -7 88 8H86Q78 15 71 25Q67 33 63 42T61 69Q65 91 72 114T86 160Q108 241 131 333T188 504Q193 516 208 516Q219 515 230 504Q236 497 243 492T255 478Q271 459 269 438ZM544 436Q545
423 535 413T512 394T493 373Q487 362 480 358Q459 339 443 315Q440 311 437 308T430 301Q412 288 399 270T381 229Q376 202 386 170T409 107T421 49Q421 27 401 19Q392 14 385 15Q378 17 374 23T363 36Q348 49 341 57T326 94Q322 113 314 139T299 193T290 246T295
290Q321 354 364 399T449 489Q465 505 486 495Q506 487 524 470T544 436Z" />
<glyph unicode="L" glyph-name="L" horiz-adv-x="485" d="M425 10Q425 1 419 -5Q412 -9 404 -9Q354 -7 307 -10T211 -15T110 -9Q91 -4 81 11Q77 17 74 22T68 33Q67 35 68 40T68 49Q66 57 63 57T60 63Q60 72 64 88T73 122T81 148Q91 178 97 210T111 278Q125 336
142 389T184 494Q189 502 189 514Q190 516 191 518T193 521Q198 533 211 533Q228 530 235 521Q238 519 241 517T246 513Q253 508 258 503T268 489Q270 482 275 475T281 460Q283 449 275 438T264 416Q254 388 247 351T225 288Q221 282 220 277T216 264Q216 254 213
244T209 220Q209 216 205 216Q202 216 200 211Q197 184 192 155T178 101Q174 93 178 86T191 78Q227 74 266 76T340 77T399 53Q407 46 408 42T414 34Q423 25 425 10Z" />
<glyph unicode="M" glyph-name="M" horiz-adv-x="859" d="M785 339Q785 330 782 301T774 230T764 145T753 60T745 -9Q744 -18 736 -23T718 -26Q694 -21 683 -8Q681 -6 682 -2T681 4Q677 11 671 18T663 30Q660 43 662 69T668 123T675 166Q682 228 686 283T694 393Q694
399 688 403T675 404Q648 386 623 356T576 293Q572 287 570 286T563 280Q554 270 540 255T511 227T484 213Q477 213 464 217T445 224Q429 233 423 256T405 296Q402 301 400 306T396 316Q390 349 383 379T365 436Q362 444 355 446T340 444Q323 427 314 404T296 356T273
311Q270 307 268 305T265 298Q245 232 222 170T176 43Q168 24 153 15Q149 14 146 13T139 9Q123 -1 104 1Q103 3 100 3Q91 4 85 11T80 28Q94 93 114 147T150 264Q150 269 154 273Q175 317 194 367T237 460T299 526Q309 533 319 534Q342 538 360 534T398 520Q404
516 409 512T419 501Q458 449 473 365Q474 358 481 356T493 358Q508 374 523 395T555 435Q601 484 654 508Q670 516 700 516T756 491Q775 475 780 449T786 394T785 339Z" />
<glyph unicode="N" glyph-name="N" horiz-adv-x="796" d="M714 446Q687 378 668 306T631 164T586 29Q584 22 575 13Q567 4 557 -2T514 -4Q478 2 450 32T398 107T356 203T318 303T281 391Q279 398 272 398T261 393Q240 344 227 280T202 149T175 26Q172 12 161 3Q160
2 158 0T154 -4Q139 -18 115 -13Q111 -11 108 -11T103 -9Q93 -6 86 3T79 23Q80 68 88 102T103 174Q111 210 121 257T142 353T168 444Q173 460 179 476T198 505T238 520Q265 522 286 508T329 457T381 359T456 205Q467 182 476 163T493 129Q495 123 501 123T509 129Q526
175 537 209T557 279T576 364Q581 384 593 411T609 464Q610 468 611 472T614 480Q618 488 618 491Q623 513 645 519Q652 520 659 520T673 521Q684 520 693 514T708 499Q709 493 713 488Q723 465 714 446Z" />
<glyph unicode="O" glyph-name="O" horiz-adv-x="629" d="M566 355Q576 271 554 210T489 104T396 21Q392 19 387 17T376 13Q327 0 290 -7T208 -10Q193 -10 183 -3Q163 10 144 19T108 49Q86 77 79 106T61 169Q60 174 60 178T60 186Q61 203 61 218T65 256Q69 278
82 310T108 365Q123 393 146 425T197 483T256 515T318 499Q329 491 329 476Q329 464 321 454Q320 453 320 452T318 449Q313 441 303 433Q252 396 215 338T163 213Q159 196 157 171T159 116Q160 110 161 105T165 95Q174 75 195 73Q214 70 232 70T271 75Q278 77 284
82T298 90Q303 92 308 91T318 90Q353 102 383 132T434 201T466 280T470 353Q465 381 453 398T421 433Q416 437 410 440T398 444Q392 445 386 451Q381 460 385 469T401 480Q415 480 428 480T453 478Q459 477 465 475T476 470Q483 466 488 462T503 455Q511 453 519
444Q536 429 544 411T563 369Q566 363 566 355Z" />
<glyph unicode="P" glyph-name="P" horiz-adv-x="593" d="M531 398V390Q528 383 528 373Q527 368 526 363T523 354Q516 344 515 334Q514 313 502 297T481 263Q478 256 473 253Q466 249 463 244Q441 213 403 193T320 168Q303 165 285 175Q281 179 277 183T269 193Q267
195 266 197T263 201Q256 208 257 217T268 231Q298 248 330 264T385 305Q408 331 423 357T421 421Q417 429 413 435T401 445Q379 462 354 468T308 480Q302 481 299 485T293 494Q291 499 293 505T301 513Q320 519 358 518T438 505T510 469Q510 468 511 468Q513 462
514 457T520 446Q528 435 530 425T531 398ZM265 391Q261 376 254 362T239 330Q233 314 232 295T226 260Q220 244 213 226T199 183Q196 172 193 161T186 138Q180 117 175 99T161 65Q159 60 157 54T155 41Q155 28 149 15T133 -10Q117 -29 94 -19Q87 -15 82 -10T71
1Q58 21 61 43Q70 98 82 146T110 244Q129 300 144 358T188 460Q193 468 203 470T221 468Q232 461 240 452T256 433Q271 413 265 391Z" />
<glyph unicode="Q" glyph-name="Q" horiz-adv-x="570" d="M510 333Q507 316 509 298T512 262T505 229Q504 225 502 221T500 211Q496 187 484 167T459 129Q452 122 452 112T459 94Q464 87 469 82T476 74Q481 70 484 65T489 54V46Q490 36 483 29T465 23Q455 24 444
28T419 44Q412 52 402 52T385 44Q381 37 376 31T364 21Q360 17 353 16T340 10Q331 1 316 -4Q295 -11 274 -19T229 -24Q195 -20 162 -4T105 41T70 116Q58 171 58 229T74 340T121 437T206 504Q231 515 262 517T318 520Q331 521 347 518T376 510Q400 502 421 488Q427
484 432 482T443 475Q449 471 454 465T464 454Q481 435 494 408T505 354Q505 347 508 344Q511 337 510 333ZM425 256Q435 296 432 342T408 415Q402 423 395 429T380 443Q376 448 374 450T364 453Q360 453 355 452T345 453Q341 454 340 455T333 456H324Q318 458
314 457T304 455Q299 455 293 453Q286 451 280 448T268 443Q259 442 256 441T245 434Q241 430 236 429T226 425Q213 418 201 409T180 385Q169 363 157 343T141 298Q140 285 137 272T134 245Q134 227 134 210T136 174Q138 161 137 147T141 121Q144 115 148 109T155
96Q160 83 173 74T200 64Q211 64 230 60T259 59Q298 75 319 91T340 108Q321 127 302 150T274 199Q269 216 274 220T288 222T308 213T325 203Q333 197 339 191T351 178Q359 172 366 168T380 159Q383 157 390 170T405 202T419 237T425 256Z" />
<glyph unicode="R" glyph-name="R" horiz-adv-x="553" d="M273 456Q278 432 272 409T256 365T243 323Q243 318 239 310Q218 264 207 212T176 115Q173 106 173 96V94Q170 84 166 78Q164 72 162 65T159 50Q158 46 157 43T154 35Q153 32 152 29T149 21Q148 15 145
10T138 -1Q131 -9 120 -8Q112 -5 109 1Q104 8 101 9Q100 10 98 12T95 14Q88 17 79 24Q75 29 72 35T66 48Q62 74 68 102T83 158Q91 186 101 214T120 268Q126 289 130 312T145 355Q148 359 149 363T151 373Q155 397 162 410T174 445Q175 450 177 454T180 463Q182
465 182 466T184 469Q188 471 185 476Q183 479 185 484Q191 488 193 494T199 506Q201 513 208 516T221 515Q234 508 241 499Q244 495 249 491Q267 478 273 456ZM488 325Q488 318 486 311T479 299Q471 288 466 274T445 255Q434 252 426 244Q420 238 414 232T400
220Q384 209 389 185Q401 135 411 86T406 -5Q404 -13 396 -15T379 -14Q372 -9 367 -5T355 4Q337 21 335 41Q331 80 331 125T319 209Q312 232 311 260T330 304Q348 318 367 322T398 343Q411 361 403 384Q394 410 375 426T334 454T299 474Q291 481 291 490T301 503Q330
512 355 512T393 504Q395 502 396 498T400 491Q402 490 405 490T410 489Q413 486 415 481T419 474Q426 470 434 467T448 458Q450 454 455 445T465 428Q476 411 483 383T488 325Z" />
<glyph unicode="S" glyph-name="S" horiz-adv-x="450" d="M388 440Q393 432 390 423T376 409Q364 405 349 405T314 404Q303 404 293 400T275 395Q256 394 245 400T218 399Q214 396 209 391T198 381Q185 373 181 360Q176 343 188 333Q196 324 204 316T220 299Q226
291 234 290Q238 290 245 285Q260 272 277 259T304 231Q306 229 308 226T314 220Q335 201 342 169T342 105T308 49Q298 39 287 29T260 13Q259 12 256 13T251 14Q231 10 212 3T168 -3Q157 -3 146 -1T123 3Q106 4 94 16Q93 18 92 18T90 19Q83 24 79 30T71 43Q69 51
65 58T60 75Q59 85 67 89T83 88Q94 79 106 79Q147 73 179 82T239 113Q248 120 254 133Q256 137 258 139T261 145Q268 154 270 164Q275 183 261 198Q242 218 217 232T166 261Q156 267 148 279Q142 287 137 295T124 313Q114 323 111 336Q105 365 103 391T113 440Q119
454 135 469T165 491Q178 499 207 503T269 508T323 499Q331 495 339 490T354 481Q370 474 380 455Q381 451 383 448T388 440Z" />
<glyph unicode="T" glyph-name="T" d="M463 450Q463 447 459 443Q450 434 439 434Q387 434 334 430T225 423T109 429Q90 432 78 445Q74 449 71 453T64 461Q60 469 63 477T74 486Q130 497 182 499T286 509Q305 512 336 515T393 514Q399 514 416 503T448 478T463
450ZM278 284Q275 247 270 216T261 168Q261 162 263 160T266 153Q260 129 257 101T249 45T230 -6Q226 -16 216 -18T196 -16Q195 -15 195 -15T193 -14Q180 -8 171 3Q165 12 159 21T151 44Q150 60 157 77T168 111Q183 179 194 252T225 390Q226 395 229 398T236 403Q246
405 253 401Q272 391 277 368T281 320T278 284Z" />
<glyph unicode="U" glyph-name="U" horiz-adv-x="546" d="M485 435Q482 420 480 400T474 365Q468 345 461 325T449 288Q445 271 443 255T436 223Q430 203 420 187T404 153Q402 149 400 146T396 138Q395 136 394 135Q386 125 385 116Q381 97 372 83T350 58Q346
54 348 50Q349 45 345 41Q337 34 328 27T311 13Q302 1 289 -3Q264 -12 243 -11T198 -6Q192 -5 187 -3T176 3Q164 11 151 18T130 39Q129 42 126 44T121 49Q84 84 72 137T62 251T74 369Q83 403 91 436T113 510Q116 518 123 521Q131 526 139 521Q163 509 184 491T208
444Q210 415 199 387T188 330Q188 326 187 323T185 315Q175 278 167 237T158 156T171 84Q175 74 184 69T205 65Q211 66 216 68T228 73Q236 74 245 83Q248 83 248 85Q252 96 259 103Q282 129 298 168T336 239Q340 246 343 253Q363 313 376 373T414 485Q420 496 434
496Q445 494 453 486Q462 481 466 471Q470 469 470 469Q487 457 485 435Z" />
<glyph unicode="V" glyph-name="V" horiz-adv-x="631" d="M574 430Q573 429 573 426T571 421Q570 404 554 390Q547 383 543 373T536 353Q536 347 534 343T529 333Q518 315 508 294T484 255Q483 253 483 249Q485 236 479 228Q462 200 443 175T410 118Q407 110 401
104Q377 76 351 51T299 0Q293 -4 287 -7T273 -13Q264 -14 257 -15T243 -19Q223 -26 203 -18Q196 -14 189 -11T174 -4Q167 -1 163 3T153 11Q110 60 93 129T65 271Q64 282 65 294T65 318Q61 353 59 401T63 493Q65 511 84 511H91Q111 515 129 506T161 480T179 446Q184
425 180 402T174 358Q174 352 175 346T176 334Q176 309 176 293T179 250Q181 237 181 224T181 196Q183 180 188 166T194 138Q195 125 195 113T199 86Q201 78 209 75T225 76Q269 104 302 144T364 231T420 328T476 423Q479 428 481 432T485 443Q490 469 514 472T558
464Q577 454 574 430Z" />
<glyph unicode="W" glyph-name="W" horiz-adv-x="830" d="M768 410Q766 405 765 401T761 390Q759 381 754 374Q754 372 751 370Q749 367 746 364T741 355Q705 283 662 210T564 64Q561 61 559 59T554 54Q547 47 543 35T533 19Q530 18 528 17T524 13Q517 6 504 4Q500
3 499 2T490 4Q479 8 463 23T439 48Q429 62 414 79T393 109Q383 132 381 159T379 211Q379 218 373 220T363 216Q353 203 342 186T319 155Q311 145 309 134Q305 119 295 105T273 81Q272 80 271 79T268 75Q263 71 253 61T238 38Q234 31 229 25T218 15Q202 6 190 -4Q177
-13 163 -13Q146 -10 140 4Q140 4 140 4T138 5Q125 11 119 19Q95 45 82 84T65 169T60 258Q60 271 60 283T63 306Q65 312 63 316T60 326Q64 370 72 412T91 501Q94 511 102 516T120 519Q153 511 167 486T180 426Q179 421 176 417T171 406Q170 401 172 395T174 383Q173
357 167 331T159 278Q156 242 157 207T159 133Q159 127 165 125T175 126Q243 191 294 274T398 440Q403 448 413 451T434 451Q442 449 451 440Q470 429 468 405Q465 327 469 264T484 146Q485 140 490 139T499 143Q539 204 572 254T635 353T693 455Q703 472 721 474Q728
475 728 473T731 470Q747 464 756 453Q758 452 758 451T760 449Q776 430 768 410Z" />
<glyph unicode="X" glyph-name="X" horiz-adv-x="546" d="M484 426Q477 407 463 391T430 361Q426 357 423 354T415 345Q414 341 409 338T400 331Q394 328 388 321Q372 304 362 289T338 255Q324 238 333 216Q352 175 376 134T420 54Q432 34 421 13Q420 9 418 5T413
-5Q411 -8 408 -10T403 -14Q397 -16 390 -14Q386 -12 382 -11T374 -9Q353 -3 343 18Q327 49 309 81T275 143Q271 151 263 153T246 150Q246 149 244 149Q239 144 239 140Q238 139 237 136T234 131Q207 105 181 68T124 3Q109 -10 93 -6Q76 -3 69 14Q66 21 65 28T61
43Q60 65 73 83Q88 100 102 121T133 161Q142 172 154 182T174 203Q176 205 176 209T178 216Q187 229 203 241T218 268Q218 274 208 287T194 306Q189 324 174 348T145 398T124 445Q119 460 124 485Q126 497 136 503T156 504Q177 496 202 456T263 355Q268 348 275
347T289 353Q321 388 351 425T415 494Q423 501 433 501T451 495Q454 494 454 493Q465 485 473 474Q474 469 478 465Q490 446 484 426Z" />
<glyph unicode="Y" glyph-name="Y" horiz-adv-x="536" d="M226 329Q226 322 227 314T220 294Q208 279 194 284T167 305T143 336Q126 362 108 394T75 450Q70 458 68 470Q68 474 67 477T63 485Q59 496 63 505T78 519Q100 527 117 510T158 455T218 359Q223 352 224
345T226 329ZM466 434Q465 431 459 428T448 420Q441 413 435 404T423 393Q421 391 416 391T410 390Q406 386 404 381T396 371Q395 370 391 369T385 366Q381 362 380 356T373 348Q370 345 365 345T356 340Q354 339 353 334T350 326Q346 322 343 320T335 314Q330
308 328 302T323 291Q320 287 319 283T316 274Q314 256 312 239T306 198Q299 151 288 109T269 13Q264 -6 249 -11Q230 -18 216 0T196 45Q194 55 196 65Q200 87 205 114T214 166Q215 170 216 173T219 181Q219 183 219 184T220 186Q225 194 225 204Q228 224 234 241T246
278Q252 293 252 310T258 340Q262 350 271 363T286 385Q303 408 320 425T354 461Q361 470 368 474Q370 476 371 477T374 481Q380 492 389 496Q392 499 394 502T400 508Q416 527 438 516Q459 505 471 481T466 434Z" />
<glyph unicode="Z" glyph-name="Z" horiz-adv-x="529" d="M469 39Q471 33 466 21Q464 12 456 6T436 1Q405 4 363 6T277 10T194 12T128 6Q119 5 112 3T98 0Q87 -1 78 5T65 23Q60 42 60 61Q59 83 74 100Q145 174 211 251T345 406Q350 412 347 419T336 428Q311 431
275 431T206 427T153 413Q144 408 131 412T110 421Q92 435 83 455Q80 463 76 478T76 500Q81 506 91 505T108 504Q113 504 119 504T129 505Q134 506 139 507T150 510Q161 512 172 511T193 509Q205 509 216 511T240 514H250Q279 514 307 512T363 505Q377 502 390
499T416 489Q426 483 439 473Q442 470 450 462T458 449Q456 410 441 383T403 333T359 289Q350 282 346 270Q340 255 332 243T311 223Q302 216 298 208Q288 194 277 181T253 158Q247 154 243 149T235 138Q231 128 224 121T208 108Q202 104 204 99T213 93Q237 92
271 91T339 88T388 85Q393 85 397 87T408 89Q423 85 444 70T469 39Z" />
<glyph unicode="[" glyph-name="bracketleft" horiz-adv-x="324" d="M261 479Q266 469 264 458T253 440Q246 435 236 432T215 424Q192 417 189 395Q174 317 168 241T150 88Q149 81 154 75T168 68Q184 68 206 63Q226 57 236 38Q241 29 239 20T228 5L223 3Q216 -2
207 -4T190 -6Q178 -5 166 -6T141 -3Q122 3 109 14T84 36Q70 48 65 66Q58 96 60 130T67 196T78 254Q78 257 78 259T78 266Q77 304 86 343T99 418Q100 430 100 440T101 461Q106 483 124 496Q125 496 126 497T128 499Q134 506 143 509T161 514Q167 514 173 514T184
516Q192 518 200 517T215 513Q229 507 241 500T261 479Z" />
<glyph unicode="\" glyph-name="backslash" horiz-adv-x="449" d="M386 26Q393 15 386 3Q384 -1 380 -4T366 -8Q341 -8 322 9T287 51T259 102T236 144Q207 192 186 244T144 345T93 435Q86 444 84 454Q81 463 74 471T61 490Q57 501 66 506Q73 512 85 510Q92 509
99 506T113 501Q126 498 135 490Q139 486 144 485T153 479Q165 468 171 452T184 420Q189 408 201 390T218 359Q222 345 234 332T250 308Q252 306 251 301T250 293Q255 282 266 263T284 229Q292 213 302 197T323 169Q326 165 323 161Q320 160 323 155Q343 128 357
94T386 26Z" />
<glyph unicode="]" glyph-name="bracketright" horiz-adv-x="331" d="M270 460Q271 421 269 381T253 305Q248 295 253 285Q254 282 254 279T254 273Q246 219 231 159T213 43Q213 31 206 19Q205 17 205 16T203 13Q190 -9 169 -10Q162 -10 151 -13Q143 -14 134 -14T116
-10Q99 -2 84 9T63 36Q59 47 64 56T79 69Q83 70 87 71T95 73Q106 74 113 81T123 98Q128 117 128 136T133 175Q139 220 149 263T165 348Q165 353 164 358T163 363Q165 379 172 397T181 435Q183 446 177 454T161 466Q142 473 124 481T96 505Q92 513 97 521T111 531Q151
534 189 528T253 498Q270 483 270 460Z" />
<glyph unicode="^" glyph-name="asciicircum" horiz-adv-x="553" d="M500 330Q504 325 501 319T491 313Q469 312 443 326T390 364T340 409T299 445Q286 458 271 449Q240 432 216 408T169 358T121 308Q109 295 93 298Q86 299 81 300T68 306Q52 315 59 331Q75 371
104 404T165 463Q187 482 211 496T263 515T329 505Q343 500 357 489T386 465Q400 455 422 431T466 379T500 330Z" />
<glyph unicode="_" glyph-name="underscore" horiz-adv-x="445" d="M381 15Q376 1 360 1Q326 -1 299 -1T244 -1T180 -3Q175 -3 170 -2T160 0Q157 1 154 1T146 1Q135 -2 124 1Q113 3 101 4T81 15Q80 17 78 18T75 21Q72 23 70 26T65 31Q58 39 60 48T73 61Q89 69
108 69T149 68Q154 68 159 68T169 70Q176 73 184 71T200 69Q205 70 210 70T219 70Q239 67 262 68T308 71T350 66T381 41Q389 28 381 15Z" />
<glyph unicode="`" glyph-name="grave" horiz-adv-x="241" d="M180 471Q185 460 179 450T161 439Q132 435 108 465Q101 473 97 485T86 508Q82 514 76 518T68 529Q67 530 66 535T63 543Q62 547 61 551T59 560Q59 570 66 576T84 579Q101 575 117 564T143 540Q151
531 156 516T169 491Q172 486 175 481T180 471Z" />
<glyph unicode="a" glyph-name="a" horiz-adv-x="485" d="M425 44Q424 34 417 27T399 21Q377 23 357 34T323 58Q319 63 314 62T305 55Q304 50 295 45Q291 42 288 39T280 31Q273 23 265 17T249 1Q236 -17 214 -19Q197 -22 179 -21T145 -16Q131 -13 119 -3Q117 -1
115 1T110 4Q97 12 89 25Q76 48 66 74T63 131Q68 154 80 180T104 225Q127 261 165 281T248 294Q286 287 314 268T364 218Q369 211 367 204T356 195Q340 192 329 201Q304 224 269 224T205 208Q201 206 199 204T194 199Q182 188 170 172T149 130Q145 117 140 101T135
71Q135 61 143 55T161 49Q195 54 217 71T257 110T298 148Q307 154 318 153T336 144Q346 136 351 121T360 90Q363 80 371 74T391 68H401Q412 69 419 62T425 44Z" />
<glyph unicode="b" glyph-name="b" horiz-adv-x="508" d="M224 450Q226 438 221 426T214 401Q208 359 199 310T180 209T159 111T140 28Q138 21 131 21Q125 21 125 15Q125 2 111 -6Q99 -13 92 -10T75 1Q58 16 60 38Q63 96 77 163T107 295T130 413Q132 422 138 440T150
476T158 504Q160 520 176 520Q190 520 203 509Q213 498 217 486T224 450ZM448 139Q448 112 439 92T415 50Q411 43 404 37T389 28Q360 17 334 4T271 -14Q251 -16 233 -4Q228 0 222 3T210 11Q201 17 202 28T213 43Q232 51 257 56T299 75Q302 77 304 81T310 88Q313
90 318 91T325 93Q328 96 335 108T350 137T359 167T354 189Q352 190 347 192T336 198Q320 206 303 201Q293 200 283 198T266 196Q262 198 260 201T253 205Q249 206 246 206T239 205Q229 204 223 213T221 231Q225 235 226 239Q238 254 256 260Q285 268 313 263T366
248Q377 244 386 235Q386 235 387 235T389 233Q392 230 394 228T401 223Q415 214 424 198T441 165Q448 153 448 139Z" />
<glyph unicode="c" glyph-name="c" horiz-adv-x="391" d="M329 238Q334 228 329 219T313 208Q292 205 265 210T214 210Q184 204 163 184T135 136T135 84Q143 62 166 60Q186 59 206 59T244 64Q247 65 254 68T269 74Q278 78 287 75T301 61Q303 59 305 51Q313 30
294 14Q273 -1 245 -5T188 -11Q185 -11 182 -11T174 -9Q169 -9 168 -8Q158 -4 150 -4Q125 -1 106 20T74 64Q71 69 70 74T66 86Q64 112 61 135T63 181Q68 204 83 218T113 248Q120 257 129 261Q149 272 173 277T219 286Q235 291 249 285Q275 277 297 268T329 238Z"
/>
<glyph unicode="d" glyph-name="d" horiz-adv-x="546" d="M485 443Q484 437 480 432T474 419Q464 377 459 327T445 223T418 120Q416 116 416 112T414 104Q413 79 402 59T381 16Q378 7 370 -1Q368 -5 365 -5Q351 -7 343 -6T328 0Q308 14 313 36Q339 156 360 279T405
504Q410 520 426 520Q438 520 449 511Q462 502 472 496T486 478T485 443ZM303 184Q303 174 297 169T280 165Q264 169 243 174T209 175Q199 171 190 170T169 165Q146 159 140 136Q135 118 133 89Q133 83 141 73T153 60Q166 51 184 52T223 58Q232 60 241 56T255 43Q256
40 257 37T260 30Q264 21 261 11T248 -4Q231 -12 215 -11T179 -11Q167 -14 158 -10Q122 0 102 25T66 81Q61 94 61 106Q61 115 60 124T59 143Q59 153 64 168Q77 195 101 211T156 240Q170 246 185 244Q211 241 238 236T283 220Q303 208 303 184Z" />
<glyph unicode="e" glyph-name="e" horiz-adv-x="421" d="M355 219Q369 198 353 180Q352 180 352 180T350 179Q342 171 339 161Q331 145 315 139T280 130T244 125Q233 122 224 119T205 113Q181 107 165 123Q161 127 157 130T149 138Q143 143 136 141T129 130Q127
111 137 92T161 64Q180 55 205 56T256 63T303 73Q311 75 320 72T335 61Q336 60 337 58T339 54Q344 44 341 34T328 19Q328 18 327 18T325 16Q321 12 315 10T304 5Q287 1 272 -1T236 -6Q228 -9 220 -6Q195 -2 168 1T119 14T83 51Q82 53 81 55T78 60Q62 82 61 115T70
182T95 234Q106 247 120 252T150 268Q183 287 223 286T299 267T355 219ZM290 221Q289 224 286 225T280 228Q265 228 245 227T221 223Q219 221 213 219Q200 213 187 210T163 199Q156 195 158 187T169 178Q195 174 223 179T273 195Q282 201 290 209Q295 216 290 221Z"
/>
<glyph unicode="f" glyph-name="f" horiz-adv-x="408" d="M364 476Q365 468 359 461T343 455Q326 456 305 455T278 444Q261 422 257 397T244 334Q242 324 247 318T263 313Q283 314 296 316T324 314Q332 310 338 302T348 286Q357 265 336 250Q329 246 321 243T305
239Q293 238 279 238T248 236Q238 236 231 230T221 214Q216 182 209 138T191 24Q188 0 165 -10Q152 -16 141 -13T120 -3Q103 9 103 34Q105 80 115 121T130 209Q132 233 113 241Q102 246 90 249T69 258Q61 263 61 272T69 288Q81 296 96 296T126 295Q136 294 143
300T153 315Q162 367 173 418T219 506Q242 532 270 532T323 525Q334 524 344 516T358 500Q363 487 364 476Z" />
<glyph unicode="g" glyph-name="g" horiz-adv-x="478" d="M419 151Q426 126 409 107T370 86Q366 86 365 82T368 76Q376 71 376 60Q378 46 383 34T389 8Q390 0 387 -6T381 -21Q379 -43 378 -60T368 -94Q366 -95 363 -96T358 -99Q356 -100 356 -104T355 -111Q350
-121 339 -131T318 -150Q316 -153 300 -163T266 -181Q253 -188 230 -193T185 -196Q174 -195 160 -192T136 -184Q121 -177 103 -163T72 -131T56 -98Q55 -88 62 -82T79 -78Q83 -80 84 -81Q89 -87 95 -91T108 -98Q114 -100 120 -103T133 -111Q149 -125 170 -124Q244
-120 274 -83T313 21Q314 29 308 35T294 39Q276 36 261 35T225 38Q192 43 161 60T111 103Q98 122 96 145T95 181Q100 231 133 260T209 291Q221 291 233 288Q249 281 265 281T304 278Q308 277 312 275T320 271Q340 261 363 248T402 216T416 168Q416 164 417 160T419
151ZM319 175Q319 182 318 189T314 203Q312 207 310 210T304 215Q298 220 289 218Q278 213 262 214T235 211Q228 208 220 208Q217 205 213 205Q207 203 206 203Q189 196 181 182T166 151Q161 125 180 114Q193 105 212 106T252 112T294 121Q299 123 301 127T300
136Q299 139 298 142T298 149Q300 155 306 155H308Q321 162 319 175Z" />
<glyph unicode="h" glyph-name="h" horiz-adv-x="453" d="M371 19Q369 9 361 4T343 -1H333Q322 0 311 8Q300 14 299 20T298 45Q300 73 308 100T319 159T311 231Q311 234 299 234T278 235Q260 237 246 231Q226 222 200 193T155 99Q154 95 148 74T134 33Q127 12
108 0Q100 -5 90 -5Q74 -6 63 2T55 24Q59 53 66 84T78 140Q79 141 79 145Q81 152 88 181T106 252T128 339T150 426T169 496Q176 519 199 521Q210 523 219 519T239 506Q255 493 250 469Q245 442 237 409T221 342T209 283Q208 278 212 276T220 278Q228 285 240 288Q276
296 297 295T338 283Q340 282 341 281T344 279Q371 270 383 247T397 192T396 128T384 67T371 19Z" />
<glyph unicode="i" glyph-name="i" horiz-adv-x="271" d="M211 325Q211 324 211 321T210 316Q209 314 207 312T201 308Q173 294 144 300Q129 301 118 311Q112 315 107 318T95 325Q86 332 84 343T89 364Q97 375 108 380T133 388Q153 390 169 380Q172 379 174 378T179
375Q198 367 206 348Q211 339 211 325ZM170 230Q168 211 166 182T161 120T154 60T143 13Q134 -11 111 -6Q105 -5 100 -5T89 -4Q66 3 64 25Q62 36 61 46T60 65Q62 74 66 99T77 154T88 208T94 241V244Q94 255 101 262T118 270Q128 270 136 270T151 265Q175 255 170
230Z" />
<glyph unicode="j" glyph-name="j" horiz-adv-x="391" d="M346 368Q354 361 353 351T344 331Q333 321 317 317T284 314Q257 319 248 335T240 371Q240 382 247 388T264 395Q290 395 310 390T346 368ZM321 228Q320 207 313 174T304 118Q303 103 297 74T283 10T264
-61T244 -122T224 -160Q195 -197 148 -211Q119 -221 93 -216T43 -195Q37 -190 38 -182T46 -170Q76 -155 105 -143T154 -106Q168 -89 179 -55T199 23T216 113T230 200T243 269Q243 270 243 272T244 275Q244 275 244 276T245 278Q247 281 253 281Q270 283 283 278T306
264Q324 250 321 228Z" />
<glyph unicode="k" glyph-name="k" horiz-adv-x="438" d="M204 436Q203 432 202 428T201 420Q202 403 200 376T193 319T183 264T174 225Q170 211 170 194T166 160Q162 138 156 118T145 80Q144 64 144 49T139 21Q132 -3 109 -5Q98 -7 88 -2T73 14Q71 18 70 21T66
29Q59 45 60 63Q65 97 73 141T91 232T109 322T124 399Q129 429 132 458T149 506Q156 516 167 516T185 509Q188 505 190 502T194 498Q202 487 204 467T204 436ZM378 273Q378 266 363 251T326 214T290 163T275 99Q276 80 283 63T293 28Q295 17 288 9T270 1Q258 1
248 7T228 21Q215 34 209 51Q203 80 198 109T198 168T224 225Q232 236 242 245T263 264Q271 273 280 285T303 305Q320 319 341 309Q355 301 366 295T378 273Z" />
<glyph unicode="l" glyph-name="l" horiz-adv-x="285" d="M221 421Q213 380 200 325T174 213T151 106T136 23Q135 9 125 -5Q115 -20 99 -15Q95 -14 92 -13T85 -10Q66 -3 60 18Q59 20 59 23T56 29Q49 45 54 65Q64 107 77 166T104 288T131 410T156 509Q159 518 166
526T183 535Q218 541 229 514T221 421Z" />
<glyph unicode="m" glyph-name="m" horiz-adv-x="685" d="M625 164Q627 154 626 126T622 67T615 16Q614 11 611 7T604 0Q597 -6 586 -4Q556 -2 549 11V14Q546 22 546 43T545 90T544 136T536 161Q528 169 513 182T475 191Q455 189 436 173T406 133Q399 119 396
101T388 61Q384 42 377 25T353 3Q342 0 335 -1T319 5Q308 16 306 35T306 77T308 121T301 156Q291 178 275 181T243 178T218 164Q197 147 188 128T164 85Q158 76 150 58T134 24T115 4Q107 0 94 3T73 10Q62 18 60 36T61 76T69 120T78 155Q86 190 94 228T113 303Q115
312 123 317T140 319Q160 315 175 300T190 249Q190 243 195 240T205 241Q235 267 272 267T331 244Q340 237 345 230T355 216Q358 210 365 209T378 214Q405 246 446 254T523 261Q528 260 531 260T539 258Q577 244 598 223T625 164Z" />
<glyph unicode="n" glyph-name="n" horiz-adv-x="514" d="M434 180Q449 125 449 81T438 13T409 -6Q404 -4 392 -4T370 3T358 26Q357 38 357 46T357 68T355 109Q353 143 334 166T282 192T209 169Q189 155 174 131T147 83T129 40Q123 27 115 16T89 6Q78 6 64 4T50
14Q54 77 64 141T84 255Q86 265 93 270T109 274Q132 270 144 260T154 211Q153 206 158 204T168 205Q196 231 239 248T338 254Q369 247 391 234T429 191Q433 186 434 180Z" />
<glyph unicode="o" glyph-name="o" horiz-adv-x="436" d="M394 169Q394 159 388 150T376 128Q375 125 376 122T376 115Q364 91 353 79T328 54Q316 44 306 40Q294 36 282 31T259 19Q253 14 243 11Q230 7 201 4T133 14Q128 17 124 19T114 26Q111 29 108 32T100 36Q87
42 79 54Q75 59 70 65T60 75Q56 80 53 85T48 98Q39 134 45 171T71 240T125 290Q156 307 192 303T256 276Q270 266 274 246Q276 239 270 234T256 233Q247 238 237 243T218 249Q215 250 201 247T169 235T138 206Q131 197 121 181T111 151Q113 142 116 133T124 115Q136
90 162 85T215 85T260 96Q274 101 283 109T300 123Q322 139 325 162T319 213Q317 219 322 224T335 225Q340 222 345 220T354 214Q359 211 364 208T373 200Q381 193 388 185T394 169Z" />
<glyph unicode="p" glyph-name="p" horiz-adv-x="550" d="M489 185Q491 168 488 144T476 99T454 65Q447 60 438 55Q432 52 426 50T414 46Q406 45 398 42T384 34Q380 30 374 27T363 21Q335 12 304 9T246 19Q231 26 223 43Q221 44 219 49Q215 57 218 64T228 74Q240
78 252 80T278 86Q296 90 318 98Q328 102 336 104T354 108Q359 109 364 111T374 116Q383 122 392 130T408 148Q413 156 414 168T415 190Q414 195 412 198T408 206Q402 216 390 220T366 226Q356 226 345 223T323 221Q315 223 303 230T281 247T271 265Q272 280 286
289T320 302T351 306Q369 306 385 299T414 285Q419 282 424 279T433 271Q437 267 441 265T450 258Q467 246 471 230Q476 219 481 208T489 185ZM230 200Q226 178 220 159T209 116Q209 112 208 108T204 100Q199 93 199 83Q198 78 197 73T195 63Q192 54 189 44T180
28Q174 17 171 5Q165 -40 155 -79T138 -163Q137 -168 135 -173T129 -184Q129 -185 129 -185T128 -188Q123 -197 113 -199T93 -196Q83 -190 78 -180T66 -156Q64 -150 62 -142T61 -126Q72 -23 100 76T153 265Q155 275 164 279T183 281Q193 277 199 271T213 256Q223
246 226 235Q226 233 228 231Q230 224 231 216T230 200Z" />
<glyph unicode="q" glyph-name="q" horiz-adv-x="450" d="M289 238Q282 231 270 223Q267 221 255 224T239 228Q224 229 208 228Q193 227 179 221T154 204Q142 192 133 174T123 138Q122 121 134 112T164 100T194 95Q228 92 234 63Q237 40 219 25Q205 14 188 11Q163
10 145 19T113 44T83 71Q70 82 66 96Q54 134 64 175T104 251Q106 254 110 253T116 255Q125 263 133 274T154 291Q168 300 186 306T224 308Q243 303 255 292T284 271Q293 267 295 257T289 238ZM388 179Q386 172 381 165T375 150Q366 110 354 61T329 -38T306 -128Q305
-132 305 -136T305 -144Q305 -151 304 -157T299 -168Q296 -172 294 -177T290 -188Q290 -191 289 -194Q286 -204 276 -207T255 -204Q250 -199 246 -191T236 -173Q234 -166 233 -159T233 -144Q242 -65 258 2T292 133T326 264Q328 273 336 277T354 278Q380 268 387
241T388 179Z" />
<glyph unicode="r" glyph-name="r" horiz-adv-x="433" d="M371 218Q376 208 370 199T353 191Q342 193 330 195T309 195Q308 194 296 184T273 169Q252 158 237 141T205 108Q201 103 197 99T188 89Q184 82 178 78T166 68Q161 64 157 59T149 48Q143 37 136 29T120
11Q115 4 106 2T88 3Q82 6 75 6Q61 9 60 35T64 101T78 183T94 261Q96 272 94 281Q92 290 98 297T113 303Q131 301 144 293T162 264T163 200Q162 193 168 191T179 194Q210 233 239 247T293 265Q310 269 329 259Q343 252 354 242T371 218Z" />
<glyph unicode="s" glyph-name="s" horiz-adv-x="396" d="M335 90Q340 66 321 53Q317 49 314 46T308 38Q303 29 296 24T280 14Q243 -1 206 -7T128 -3Q118 0 102 11T76 34Q74 38 70 44T61 58Q59 66 64 73T79 78Q93 75 104 70T125 60Q137 54 149 54Q179 53 207 61T250
90Q256 98 252 107T240 118Q215 123 190 124T135 140Q112 153 108 173Q107 175 106 178T103 185Q99 193 98 203T100 223Q105 240 114 254T134 283Q145 298 161 304Q181 312 202 311T241 310Q252 310 263 306Q277 301 291 296T316 280Q323 273 325 258T324 233T303
229Q292 234 285 240T264 249Q254 250 235 251T206 251Q189 248 176 234Q175 232 175 222T175 201T178 190Q187 185 208 185T246 186Q250 186 253 183Q254 179 260 179Q283 176 296 163T321 135Q332 122 334 104Q334 100 334 97T335 90Z" />
<glyph unicode="t" glyph-name="t" horiz-adv-x="461" d="M409 335Q411 325 406 316T389 304Q370 298 345 301T294 305Q284 305 276 299T264 283Q257 262 251 235T241 183T239 145Q239 139 234 139Q229 139 229 134Q231 109 222 76T205 9Q203 -6 190 -14Q179 -22
165 -15Q138 4 139 45Q139 53 144 65T153 89Q155 100 158 122T166 172T176 223T188 260Q189 265 189 269T190 278Q188 289 178 291Q165 293 151 296T123 303Q110 304 98 315Q93 320 86 323T75 334Q68 342 73 352T88 363Q111 367 135 368T188 371Q198 371 206 378T216
395Q222 416 226 433T236 466Q240 475 248 477T264 474Q278 460 284 439T288 395Q287 387 292 381T306 375Q332 377 356 374T393 353Q395 347 401 349Q408 349 408 343Q408 341 408 339T409 335Z" />
<glyph unicode="u" glyph-name="u" horiz-adv-x="504" d="M444 38Q445 27 440 27T426 28Q414 29 405 30T384 40Q371 49 363 63Q359 71 351 72T336 68Q331 63 326 59T315 49Q299 32 277 19T226 -3Q215 -6 199 -4Q189 -1 180 2T163 5Q156 5 150 7T139 11Q104 30
85 71T61 163T66 256Q69 267 77 273T96 279Q102 279 108 278T121 273Q128 269 137 264T150 253Q157 244 154 235T150 216Q150 209 150 197T149 176Q149 160 150 145T155 114Q159 96 171 81Q173 80 173 80T174 78Q181 71 193 71T214 74Q238 83 253 96Q273 113 286
134T315 174Q327 187 334 202T350 229Q356 237 366 240T385 239Q401 232 407 220T409 186Q406 171 406 156T405 126Q404 116 404 105T410 84Q413 81 416 79T423 74Q425 70 427 69T431 65Q437 61 440 54T444 38Z" />
<glyph unicode="v" glyph-name="v" horiz-adv-x="596" d="M531 258Q537 248 535 238T525 220Q507 205 485 186T443 146T408 109Q396 96 381 91Q366 86 357 76T339 54T319 36Q315 34 311 31T303 23Q297 16 289 10T273 -1Q253 -13 233 -5Q224 -2 219 0Q211 0 211
6Q209 13 206 14Q179 29 155 60T112 130T79 209T61 281Q60 291 66 297T83 300Q95 296 107 290T126 278Q129 277 134 278T141 278Q143 278 146 271T154 260Q159 256 164 254T174 245Q177 241 177 235T179 223Q183 218 185 213T188 201Q193 177 204 147T225 94Q228
84 237 81T254 83Q289 100 319 133T378 201T433 261Q443 269 453 273Q459 275 463 276Q471 282 481 282T501 279Q511 275 519 271T531 258Z" />
<glyph unicode="w" glyph-name="w" horiz-adv-x="710" d="M648 211Q647 206 641 200T626 188Q620 183 615 178T605 164Q594 139 576 119T541 79Q523 54 512 38T489 14T454 9Q426 14 410 40T385 101T368 165Q367 173 360 173T348 169Q342 159 335 147T318 120Q299
98 278 72T234 24Q218 8 195 11Q165 16 144 37T108 90T84 156T69 221Q65 240 63 252T60 278Q60 286 67 292T83 295Q115 286 135 257T168 192T190 121Q192 114 199 112T213 115Q242 141 265 174T306 244Q309 252 314 257T326 268L333 271Q341 277 351 278T371 278Q379
276 386 274T401 269Q423 261 426 236Q429 214 435 185T445 131Q447 124 454 122T468 125Q489 147 506 176T540 233Q544 241 549 246T561 255Q580 265 600 259Q611 255 623 253T644 243Q651 237 650 227T648 211Z" />
<glyph unicode="x" glyph-name="x" horiz-adv-x="468" d="M396 40Q401 29 389 20Q377 13 365 20Q343 34 311 54T256 89Q239 100 220 88Q196 69 171 45T120 3Q101 -12 81 -3Q69 4 61 13T53 36Q52 55 66 71T100 103T138 132T165 159Q165 159 155 167T132 188T108
210T95 223Q88 232 82 242T74 266Q74 270 73 278T73 290Q78 302 92 296T126 276T163 244T195 216T210 208Q220 218 236 232T270 262T300 291Q317 308 336 303Q354 298 364 288T379 260Q386 237 366 221Q353 208 334 190T300 158Q293 151 293 143T300 131Q317 120
336 105T373 74T396 40Z" />
<glyph unicode="y" glyph-name="y" horiz-adv-x="549" d="M488 229Q487 226 480 212T461 191Q451 186 445 176Q411 130 369 92T289 6Q286 4 283 1T276 -5Q246 -25 225 -52T183 -108T133 -158Q116 -168 100 -168Q82 -171 69 -161Q62 -156 60 -147T64 -130Q87 -99
112 -70T163 -11Q176 4 189 19T216 49Q221 54 224 60T234 71Q239 77 245 81T258 89Q267 97 274 107T290 128Q298 137 307 144T326 161Q335 171 342 181T356 201Q371 220 385 239T414 275Q430 293 451 285Q469 280 481 267T488 229ZM246 113Q242 101 231 96Q227
95 220 92T208 89Q198 91 194 102T185 120Q178 131 172 142T159 164Q146 184 133 206T109 251Q105 258 102 265T105 279Q111 284 119 284T135 283Q140 281 142 277T149 270Q154 267 158 265T166 260Q176 253 184 243T199 223Q210 208 218 192T236 159Q242 149 247
136T246 113Z" />
<glyph unicode="z" glyph-name="z" horiz-adv-x="431" d="M361 38Q363 28 357 20T339 9Q302 2 268 2T198 6Q174 9 153 6T111 4Q99 6 91 14T76 31Q70 40 69 51T75 71Q83 82 94 92T116 113Q118 114 121 113T125 113Q135 122 145 131T165 151Q176 162 195 177T228
208Q233 213 231 219T220 226Q204 226 183 226T145 224Q133 224 119 230Q105 238 92 246T71 269Q69 277 73 285T88 294Q138 298 200 302T313 301Q335 301 346 283Q356 268 358 255T343 219Q336 211 322 201T303 185Q297 181 297 181T291 173Q291 172 283 164T268
147T260 139Q256 138 239 124T208 96Q203 92 205 86T214 79Q230 80 247 83T280 88Q297 90 311 84Q328 76 343 66T361 38Z" />
<glyph unicode="{" glyph-name="braceleft" horiz-adv-x="396" d="M335 474Q333 463 324 463Q316 462 304 461T280 456Q270 454 262 446T251 428Q247 409 243 392T231 360Q230 356 228 350T226 339Q226 292 223 252T213 175Q211 162 214 144T215 111Q214 109 214
106T214 98Q215 95 215 92T215 86Q216 76 223 70T241 61Q286 61 310 34Q315 30 315 23T313 10Q305 1 293 -4Q287 -5 283 -6T273 -5Q267 -3 262 -2T250 -3Q234 -4 216 -2T181 5Q160 10 150 30Q145 42 140 57T134 83Q130 126 134 154T140 213Q140 218 135 221T125
221Q113 216 100 221Q78 232 65 251Q58 260 61 270T74 284Q85 289 99 292T129 298Q140 300 146 307T153 324Q157 362 165 400T184 471Q187 489 204 501Q236 525 279 528Q300 528 316 515Q319 513 323 509Q340 495 335 474Z" />
<glyph unicode="|" glyph-name="bar" horiz-adv-x="228" d="M168 469Q170 381 167 285T153 95Q152 91 152 87T154 78Q157 65 155 53T149 29Q144 8 126 3Q106 -7 89 4Q88 4 87 4T85 5Q66 14 66 34Q62 106 60 177T63 318Q64 343 67 368T68 418Q67 430 67 441T66
464Q66 469 66 475T69 485Q71 490 71 495T71 506Q71 517 78 523T96 530Q128 530 153 505Q165 490 168 469Z" />
<glyph unicode="}" glyph-name="braceright" horiz-adv-x="431" d="M371 268Q371 266 371 264T369 260Q358 249 345 248Q332 246 318 243T280 236Q260 234 255 213Q249 167 242 128T214 58T150 9Q138 3 124 5Q105 6 90 17T64 41Q57 49 60 58T74 69Q81 70 88 71T100
75Q121 86 134 114T149 163Q149 165 149 167T150 171Q151 173 151 175Q158 185 159 195Q167 252 175 308T189 428Q192 450 171 460Q163 465 155 469T136 478Q128 481 123 486Q112 494 108 504Q103 513 105 521Q109 530 118 533Q152 538 176 532T226 515Q246 508
256 485Q265 465 268 437T272 380T270 328Q270 319 276 314T290 308Q307 308 326 305T358 293T371 268Z" />
<glyph unicode="~" glyph-name="asciitilde" horiz-adv-x="599" d="M533 278Q541 271 541 260T531 244Q526 240 519 237T503 229Q487 219 474 213T444 195Q434 189 420 180T388 164T353 160Q332 165 312 186T275 228Q270 236 261 236T243 231Q218 212 192 193T140
154Q122 139 100 148Q81 156 68 173T61 210Q63 213 74 223T97 243T113 256Q144 277 179 292T249 315Q271 319 290 305Q296 302 296 296V295Q296 295 296 295T298 295Q304 297 308 290Q312 263 329 240Q341 221 365 230Q390 240 416 255T465 285Q472 289 478 295T494
301Q505 301 514 294T533 278Z" />
<glyph unicode="&#xa0;" glyph-name="uni00A0" horiz-adv-x="250" />
<glyph unicode="&#xa1;" glyph-name="exclamdown" horiz-adv-x="250" d="M189 460Q191 450 184 443T166 436Q121 439 100 478Q96 486 100 495T114 508Q140 513 163 500T189 460ZM180 253Q171 213 170 175T160 104Q156 91 153 69T145 23Q144 12 135 3Q126 -8 111
-4Q109 -3 106 -2T100 0Q79 5 69 23Q66 28 64 32T61 43Q60 54 65 66T71 89Q73 93 71 96T68 103Q68 115 71 129T75 156Q81 211 89 268T105 375Q106 385 114 389T131 391Q139 390 149 385Q168 375 176 354Q183 332 183 308T176 265Q174 263 176 263V260Q182 259 180
253Z" />
<glyph unicode="&#xa2;" glyph-name="cent" horiz-adv-x="399" d="M338 248Q341 239 338 229Q333 219 323 219Q314 218 308 221T294 229Q282 237 275 254Q272 262 264 262T253 253Q246 216 239 174T226 93Q225 84 232 80T246 79Q260 87 272 99T298 123Q304 128
312 127T324 118Q330 99 326 84V80Q324 66 319 55Q318 54 317 52T315 48Q305 29 288 21Q260 9 231 9Q221 10 213 4T203 -13Q201 -21 200 -29T196 -46Q192 -56 182 -60T163 -58Q160 -56 158 -54Q139 -38 144 -15Q145 -11 146 -7T148 3Q150 25 130 36Q108 49 93 68T66
109Q65 113 64 117T61 126Q56 168 66 210T102 284T173 326Q194 333 199 355Q201 363 201 370T204 386Q207 397 216 401T235 400Q242 397 246 393T254 384Q261 373 260 358T259 330T270 308Q274 306 280 305T290 301Q324 285 338 248ZM178 215Q179 222 173 225T163
223Q156 213 148 204T134 184Q131 180 130 174T129 163Q127 146 127 130T131 99Q135 90 146 85Q154 82 158 91Q166 124 169 152T178 215Z" />
<glyph unicode="&#xa3;" glyph-name="sterling" horiz-adv-x="566" d="M508 365Q511 344 503 329Q502 326 501 323T499 318Q497 308 489 301T470 295Q451 298 431 310T406 336Q402 348 404 363T407 392T404 417T381 429Q371 430 361 426T343 416Q318 403 299 373T266
313Q264 306 268 299T280 290Q305 288 332 281T378 262T401 229Q403 219 397 212T380 205Q357 207 325 210T254 211Q244 210 237 204T228 188Q224 166 223 145T216 101Q215 93 220 87T234 80Q265 81 297 79T360 75Q378 74 397 74T430 68Q436 65 439 60T448 53Q460
41 465 28Q466 26 466 24T468 20Q470 16 469 10T463 1Q459 -3 454 -4T444 -5Q389 -3 331 1T205 10Q185 12 170 0Q152 -14 131 -13T92 1T61 31Q56 41 59 51T71 66Q75 68 78 70T86 73Q108 81 116 100Q123 116 129 132T140 165Q147 187 125 195Q112 202 99 210T74
231Q68 240 70 250T81 265Q95 273 112 277T149 284Q171 287 179 309Q197 357 214 406T263 489Q278 506 301 506Q357 508 411 480T498 405Q508 388 508 371Q507 370 507 369T508 365Z" />
<glyph unicode="&#xa4;" glyph-name="currency" horiz-adv-x="519" d="M456 376Q464 354 450 338Q436 321 420 306T386 276Q369 262 374 241Q375 236 375 231T375 220Q372 198 385 183Q400 165 412 145T436 104Q443 95 434 86Q430 84 425 82T414 81Q389 85 372
99T339 129Q332 137 323 137T306 128Q302 122 298 117T283 110Q274 110 251 114T206 125T175 134Q167 138 163 142T154 146Q147 145 144 138T139 123Q137 113 129 107T110 103Q94 105 81 113T63 134Q58 142 61 152T74 168Q83 173 92 182T108 199Q113 206 113 211V215Q106
226 106 240Q105 258 108 272T121 300Q126 308 125 317T116 330Q103 340 91 348T76 374Q75 383 82 390T99 396Q113 395 124 386T151 366Q158 362 165 361T178 355Q186 351 193 349T209 348Q229 348 248 346T285 338Q307 332 325 344Q347 358 376 373T425 398Q439
403 445 395T456 376ZM290 261Q290 272 284 280T266 290Q232 295 208 276T179 225Q177 202 199 195Q207 194 216 192T234 189Q256 187 270 205Q278 217 284 231T290 261Z" />
<glyph unicode="&#xa5;" glyph-name="yen" horiz-adv-x="528" d="M468 466Q467 453 452 440T420 413T390 385Q385 378 388 369T401 360Q405 359 409 359T418 359Q427 359 435 354T448 339Q449 337 450 336T453 333Q457 330 458 325T458 315Q454 304 445 304Q416
298 392 295T341 289Q333 288 329 281T328 265Q329 262 329 259T331 251Q333 243 340 238T356 233Q391 234 415 221T446 181Q449 172 444 164T428 154Q408 151 386 151T343 148Q333 147 325 140T315 121Q311 102 311 80T303 38Q301 33 298 27T294 13Q293 9 292
6T288 0Q282 -5 275 -3Q271 -1 268 0T263 4Q241 10 235 31Q230 49 230 69T234 110Q235 118 229 125T214 133Q204 133 195 133T178 129Q175 128 172 127T165 125Q143 124 126 127T90 140Q85 144 80 148T71 160Q70 161 69 162T66 165Q59 173 60 182T71 196Q78 200
88 200Q98 200 106 204Q134 215 166 217T224 221Q248 224 250 248V253Q250 261 244 267T229 273Q202 271 173 274T120 295Q112 302 112 312T121 330Q132 338 150 341T186 345Q193 346 195 353T193 364Q168 390 148 424T123 494Q122 502 129 507T143 509Q160 502
174 492T198 465Q211 443 225 420T253 378Q256 371 256 364Q256 360 259 358T266 358Q277 363 281 371Q307 408 333 444T394 514Q399 519 400 525Q405 536 416 534Q427 531 435 524T444 514Q445 513 445 512T446 509Q456 497 462 491T468 466Z" />
<glyph unicode="&#xa6;" glyph-name="brokenbar" horiz-adv-x="289" d="M228 476Q234 457 230 435T216 391Q215 387 214 383T211 374Q210 351 203 329T189 281Q186 272 181 264T166 251Q162 250 158 247T149 244Q138 244 130 251T115 265Q98 279 103 303Q105 312
108 321T114 340Q122 378 127 418T145 496Q148 506 157 511T176 514Q181 512 186 510T198 506Q220 497 228 476ZM166 143Q162 129 162 112T160 80Q156 64 151 50T140 25Q133 8 120 1Q104 -9 88 1Q84 3 81 5T74 10Q55 24 58 46Q60 78 67 116T84 186Q91 210 115 208Q138
205 155 186T166 143Z" />
<glyph unicode="&#xa7;" glyph-name="section" horiz-adv-x="441" d="M380 428Q379 422 380 416Q382 404 375 394Q372 386 364 383Q341 375 325 386T301 417T289 458Q288 468 281 474T263 481H251Q230 481 214 463Q204 450 197 434T189 400Q191 376 214 371Q247
365 276 352T323 315T340 256Q340 247 336 239Q325 207 306 183Q289 166 261 168T211 176Q200 181 191 188T170 201Q159 207 156 218Q155 223 150 223T143 218Q140 207 144 195T160 178Q175 171 190 162T220 150Q226 149 231 150T240 150Q249 148 264 139T294 119T313
99Q321 83 317 58T298 16Q292 11 290 3Q290 -7 283 -13Q259 -36 227 -40T162 -36T99 -15Q79 -7 71 11Q69 15 68 18Q65 24 64 30T63 44Q63 46 62 47T61 49Q58 66 68 76Q73 81 79 80T89 74Q91 71 93 68T96 61Q108 41 130 38Q161 32 188 37T230 68Q235 76 232 85T219
98Q179 113 142 134T85 189T71 276Q71 281 73 285T76 293Q85 312 94 330T118 360Q126 366 127 375T125 391Q110 426 117 465T146 531Q161 548 184 548Q217 547 251 544T313 524Q318 519 328 521Q332 521 336 520T343 515Q359 497 372 477T380 428ZM270 275Q274
286 269 295T253 308Q243 310 232 311T211 315Q202 317 194 314T180 303Q175 296 170 287T160 270Q156 263 159 254T171 243Q190 237 210 237T248 246T270 275Z" />
<glyph unicode="&#xa8;" glyph-name="dieresis" horiz-adv-x="384" d="M318 454Q308 438 296 424T263 414Q254 416 250 422T239 435Q230 445 225 458Q219 473 224 491Q227 498 230 505T238 516Q246 524 257 525T276 521Q287 515 297 509T315 493Q329 474 318 454ZM174
463Q174 440 154 425Q148 421 143 419T131 414Q111 406 89 416Q87 418 85 419T80 421Q72 428 67 437T61 458Q61 473 69 486Q72 493 76 499T88 510Q89 510 89 511Q107 524 128 516Q147 510 160 497T174 463Z" />
<glyph unicode="&#xa9;" glyph-name="copyright" horiz-adv-x="705" d="M645 326Q644 294 645 254T636 185Q634 176 629 168T620 149Q615 132 610 119T599 88Q598 79 591 71Q567 40 539 12T473 -36Q459 -43 448 -43Q427 -43 404 -47T360 -39Q352 -34 344 -25T333
-4Q330 4 336 9T349 13Q360 8 371 10Q396 14 421 26T465 55Q476 65 489 79T510 105Q524 126 542 157T564 215Q569 249 568 283T559 349Q557 357 554 362T545 374Q540 381 534 389T523 405Q519 411 514 415T501 424Q478 436 456 447T404 461Q349 459 301 434T217
367T164 276T153 175Q154 171 157 168T163 159Q165 149 166 138T171 119Q174 113 179 108T186 95Q191 87 196 80Q199 76 202 73T206 68Q219 52 236 48Q247 45 257 43T279 39Q296 39 308 25Q320 10 308 -3Q295 -14 280 -13Q253 -11 223 0T171 29Q170 32 167 34T160
38Q159 39 157 40T153 43Q146 45 146 50Q144 56 141 58Q130 67 121 76T103 99Q101 102 99 104T94 109Q69 131 63 164T62 233T81 304T108 363Q110 365 111 367T114 371Q139 400 166 428T225 478T295 506Q300 506 303 508Q331 516 358 518T416 520Q429 520 438 516Q472
501 505 484T566 445Q574 440 582 436T596 424Q600 420 602 413T609 400Q611 397 615 396T620 391Q621 390 621 385T623 378Q625 373 628 369T635 360Q641 353 643 344T645 326ZM518 285Q512 271 496 266Q481 265 464 273T432 293T409 318Q407 320 405 322T398
325Q394 327 390 327T383 324Q376 320 370 314T359 303Q352 299 344 289Q340 285 335 281T328 269Q325 265 321 265Q316 265 316 260Q307 233 299 212T295 165Q300 141 323 138Q355 132 384 149T441 183Q450 188 459 185T473 171Q475 162 475 153T469 140Q464 137
466 130Q469 123 463 116Q454 109 445 103T428 88Q413 76 398 75Q385 74 374 74T348 74Q343 75 331 75T313 79Q312 80 312 83T310 86Q302 90 292 90T273 95Q263 101 249 118T226 151Q219 165 214 175T208 199Q204 243 220 286T269 360Q283 372 300 374Q306 375
312 377T323 381Q335 388 346 388Q378 389 410 382T469 360T505 320Q507 317 509 315T513 310Q523 300 518 285Z" />
<glyph unicode="&#xaa;" glyph-name="ordfeminine" horiz-adv-x="361" d="M300 553Q301 547 299 543T296 533Q294 507 295 478T295 421Q294 411 290 402T276 385Q271 381 265 377T255 374Q254 375 253 375T251 373Q251 369 248 370Q241 371 234 371T224 374Q219
375 215 371Q214 370 212 370T208 371Q197 390 196 413T196 461T198 508Q195 532 195 555Q195 578 176 588Q170 592 163 594T145 599Q130 600 125 614Q123 632 140 640Q157 648 181 645T225 636Q241 633 254 620Q268 605 283 592T300 553ZM179 398Q179 381 164
379Q142 375 129 378T100 390Q90 397 83 408Q73 422 67 438T61 473Q64 499 79 515T116 536T158 526Q167 520 169 509T164 489Q160 483 153 478T140 466Q132 460 132 449T140 431Q153 419 168 415Q179 412 179 398Z" />
<glyph unicode="&#xab;" glyph-name="guillemotleft" horiz-adv-x="510" d="M300 79Q306 71 302 62T286 50Q273 49 257 55T224 69Q221 71 218 73T211 76Q180 100 148 121T88 170Q88 171 86 171Q76 178 69 190Q65 198 62 205T60 221Q61 231 74 250T100 283Q115
302 128 320T154 353Q172 377 187 396T219 436Q226 446 236 450T256 453Q265 452 271 449T285 440Q302 424 295 405Q282 367 259 335T211 272T163 209Q149 190 166 173Q186 153 211 141T260 116T300 79ZM450 119Q452 104 441 96Q440 95 440 95T439 94Q437 88 431
94Q430 96 428 96T423 96Q405 91 387 102T351 128T311 151Q305 154 302 159T293 168Q286 172 279 173T266 178Q262 180 260 185T254 193Q246 201 240 214Q240 215 240 216T239 219Q235 228 243 236Q243 238 243 238T244 238Q254 246 259 254Q279 287 306 314T351
379Q353 383 356 386T361 393Q363 395 365 397T368 401Q374 410 384 412T404 410Q411 406 418 402T430 394Q442 386 444 373Q447 359 439 349Q427 335 418 318T393 290Q386 287 383 280Q373 268 364 255T343 231Q335 227 335 219Q333 212 339 209Q342 205 350 203Q355
201 360 198T369 191Q372 190 375 188T381 185Q387 182 392 180T401 173Q410 166 418 158T436 143Q449 132 450 119Z" />
<glyph unicode="&#xac;" glyph-name="logicalnot" horiz-adv-x="493" d="M433 573Q433 564 425 561Q415 557 418 549Q420 534 421 520T419 491Q416 480 409 473T398 456Q390 443 378 448Q364 452 364 465Q362 479 361 490T361 510Q363 518 358 524T345 530Q326
532 308 533T269 536Q254 538 239 537T208 536Q197 538 183 541T153 541Q147 540 141 540T129 543Q121 545 108 543T81 541Q71 541 65 549T61 568Q63 576 66 582T74 594Q84 611 105 611Q187 611 269 604T421 585Q433 583 433 573Z" />
<glyph unicode="&#xad;" glyph-name="uni00AD" horiz-adv-x="625" />
<glyph unicode="&#xae;" glyph-name="registered" horiz-adv-x="739" d="M675 250Q668 207 654 176T626 101Q625 96 622 91T616 81Q616 81 614 79Q609 74 609 68Q607 62 604 58T596 50Q586 42 577 34T559 14Q555 7 549 3T536 -5Q508 -17 482 -30T426 -43Q404 -43
391 -26Q385 -18 387 -10T399 3Q407 7 417 9T434 16Q468 37 501 72T551 161Q553 170 553 178T556 193Q566 225 577 252T589 314Q589 340 574 373T539 429Q520 452 487 463T413 478Q373 480 337 466T272 430T219 386Q212 381 209 373Q191 341 174 305T149 230T148
151Q152 132 160 115T179 81Q182 77 185 73T193 65Q207 55 222 44T253 28Q261 26 268 27T280 23Q285 19 289 23Q292 26 298 24Q311 18 322 12T343 -4Q349 -17 341 -26Q332 -35 321 -36Q290 -39 262 -30T206 -4Q154 28 117 69T63 175Q60 187 60 203T63 235Q71 286
92 333T143 415Q154 429 163 443T183 466Q197 477 213 486T244 506Q249 510 255 513T266 518Q286 523 305 527T345 533Q392 536 439 529T527 504T598 453Q600 450 602 447T605 440Q631 409 648 384T675 319Q679 304 679 286T675 250ZM519 313Q523 288 510 264T479
220Q463 203 468 183Q470 167 471 153T471 123Q470 113 462 107T444 103H440Q428 104 416 113Q410 118 406 125T399 139Q392 163 391 188T385 238Q382 260 399 270Q410 277 417 284T429 301Q433 312 429 321T415 333Q402 337 390 340T369 351Q362 359 365 369T378
383Q383 384 386 384T394 386Q409 391 424 386Q441 382 458 376T488 358Q490 357 491 354T496 348Q506 341 511 332T519 313ZM330 316Q329 289 327 260T323 221Q320 217 320 210Q316 176 312 148T296 91Q288 72 265 75Q257 78 249 81T236 88Q235 90 233 91T228
94Q222 97 219 104T213 118Q208 133 211 151Q214 160 216 168T218 186Q218 195 221 204Q235 243 242 287T269 369Q273 377 283 379T300 376Q308 370 314 361T325 343Q328 337 329 331T330 316Z" />
<glyph unicode="&#xaf;" glyph-name="overscore" horiz-adv-x="434" d="M373 455Q368 437 353 431Q328 422 305 424Q286 427 256 426T200 418Q190 415 181 416Q165 418 147 417T113 421Q109 423 107 428T101 436Q95 440 86 443T68 450Q58 457 60 468T73 481Q84
485 96 485T121 490Q125 491 128 492T135 493Q171 495 208 496T270 503Q278 506 291 504Q309 501 329 499T364 483Q378 472 373 455Z" />
<glyph unicode="&#xb0;" glyph-name="degree" horiz-adv-x="293" d="M231 563Q236 544 229 521T206 477T171 448Q153 436 129 446Q118 452 108 459T86 474Q78 479 73 488T64 506Q57 532 61 561T85 609Q97 622 121 622T161 610Q169 602 181 600Q186 599 191 597T203
593Q213 590 221 582T231 563ZM174 541Q175 549 169 552T156 550Q144 538 139 525Q137 517 144 512T159 513Q164 518 168 526T174 541Z" />
<glyph unicode="&#xb1;" glyph-name="plusminus" horiz-adv-x="403" d="M336 339Q343 328 335 318Q326 308 313 308Q300 307 287 305T263 298Q241 292 239 269Q237 236 236 218T227 191T198 179Q183 178 176 186T169 205V214Q167 225 167 236T165 256Q163 280
141 280Q129 281 118 283T96 294Q95 296 94 300T90 305Q85 310 78 313T66 320Q58 326 60 336T71 349Q90 354 109 356T150 361Q173 364 178 385Q182 399 183 412T186 440Q188 451 195 455T213 458Q233 452 242 435T255 398Q260 376 279 373Q296 370 311 362T336
339ZM340 75Q334 66 327 63T307 59T268 59T199 54Q180 52 161 51T119 49Q112 49 107 49T96 48Q86 46 77 52T65 68Q65 70 65 72T63 78Q59 86 64 94T79 104Q132 111 187 113T288 119Q304 119 320 111Q321 110 323 110Q331 107 338 99Q348 89 340 75Z" />
<glyph unicode="&#xb2;" glyph-name="uni00B2" horiz-adv-x="270" d="M208 658Q212 633 200 613T174 575Q168 568 169 561T176 548Q182 545 186 540T194 530Q199 522 196 513T181 500Q165 496 147 500T109 505Q85 507 71 524Q47 552 71 588Q73 590 77 591T83 594Q95
610 105 627T123 661Q125 671 122 680T109 693Q94 698 84 705Q76 711 77 721T89 735Q107 741 126 738T161 728Q170 725 176 720T188 708Q196 697 201 685T208 658Z" />
<glyph unicode="&#xb3;" glyph-name="uni00B3" horiz-adv-x="296" d="M236 685Q236 669 228 655T205 631Q198 626 196 617T196 599Q205 577 208 554T194 515Q180 502 171 499T148 491Q128 484 103 493T64 520Q58 528 61 537T73 548Q89 553 104 557T129 570Q137
577 139 587T134 608Q127 618 120 627T109 646Q105 657 109 666T123 680Q128 682 131 684T139 688Q147 693 148 702T141 716Q134 722 126 730T113 749Q109 757 114 763T128 769Q156 766 178 754T220 724Q236 709 236 685Z" />
<glyph unicode="&#xb4;" glyph-name="acute" horiz-adv-x="248" d="M179 528Q175 523 171 518T164 508Q157 494 147 480T129 451Q122 439 110 435Q99 432 86 438Q85 440 83 441T78 444Q57 454 60 478Q63 506 81 529T116 576Q130 596 153 588Q173 579 184 560T179 528Z" />
<glyph unicode="&#xb5;" glyph-name="uni00B5" horiz-adv-x="518" d="M250 266Q243 247 238 219T224 161Q214 124 203 80T181 -6Q180 -17 174 -28T165 -50Q165 -53 167 -57T168 -64Q165 -86 158 -105T146 -141V-146Q148 -156 142 -165T124 -176Q116 -178 107 -177T90
-173Q67 -166 64 -143Q63 -143 63 -140Q60 -133 60 -127T60 -114Q67 -59 77 -17T95 75Q97 84 103 94Q113 112 118 134T126 181Q128 184 128 187T130 193Q141 223 149 248T165 308Q167 317 174 321Q183 328 190 328Q207 326 222 316T246 292T250 266ZM458 258Q448
219 438 184T416 108Q412 88 394 75Q377 63 354 55T307 46T266 63Q262 67 260 74T253 86Q247 92 251 100Q256 106 263 106Q268 106 272 107T281 106Q296 103 310 109Q330 115 338 135Q352 171 366 209T390 285Q396 306 419 306H429Q447 304 455 288Q461 273 458
258Z" />
<glyph unicode="&#xb6;" glyph-name="paragraph" horiz-adv-x="434" d="M368 410Q367 349 361 297T343 198Q340 183 325 178Q313 173 301 180Q299 182 296 184T290 188Q272 201 274 225Q283 311 288 394T301 558Q301 563 298 565T289 565Q277 561 283 550Q284
543 284 538T284 525Q274 460 262 384T239 236Q238 234 239 220T241 191Q240 181 233 175T214 170Q210 171 208 172T203 174Q182 184 176 208Q172 220 173 232T175 263Q175 276 177 299T180 335Q180 345 182 353T185 369Q186 380 180 387T163 395Q145 397 127 401T94
418Q92 419 92 422T91 426Q85 434 77 439T65 455Q57 484 63 521T88 589T131 629Q144 634 156 633T175 633Q180 634 185 634T194 634Q211 632 227 632T263 634Q268 634 273 634T284 631Q286 631 288 632T295 631Q299 630 301 627T308 621Q317 619 328 618T349 613T364
594Q373 570 373 536T372 467T368 410ZM208 528Q209 534 204 538T191 540Q190 539 188 539T183 536Q162 531 153 511Q148 504 145 496T140 479Q139 469 145 463T160 458Q163 458 166 458T173 460Q193 465 198 485Q200 496 203 507T208 528Z" />
<glyph unicode="&#xb7;" glyph-name="middot" horiz-adv-x="255" d="M194 234Q192 209 170 201Q163 197 157 195T144 190Q123 181 103 189Q94 193 86 197T71 208Q55 224 63 248Q72 272 102 289T165 298Q186 292 193 269Q194 259 194 251T194 234Z" />
<glyph unicode="&#xb8;" glyph-name="cedilla" horiz-adv-x="289" d="M228 40Q230 32 226 24T213 13Q197 6 178 5T140 0Q131 -1 122 0T104 6Q102 6 99 9Q79 18 71 39Q69 47 66 54T61 70Q58 88 64 103Q69 114 69 127T74 151T91 163Q100 164 113 153T138 126T151
94Q151 86 157 80T173 73Q181 73 188 73T203 71Q224 66 228 43V40Z" />
<glyph unicode="&#xb9;" glyph-name="uni00B9" horiz-adv-x="250" d="M189 665Q190 649 177 627T155 585Q154 581 154 576T154 566Q148 553 143 537T130 505Q126 496 117 492T99 490Q96 491 93 492T88 494Q67 505 64 524Q60 539 64 554Q72 580 78 602T91 651Q98
674 84 691Q78 699 82 708T96 718Q128 720 157 706T189 665Z" />
<glyph unicode="&#xba;" glyph-name="ordmasculine" horiz-adv-x="336" d="M261 618Q278 599 276 571T267 514T259 465Q259 461 258 459T255 454Q247 446 244 435Q242 428 238 424T228 415Q221 407 211 401Q185 388 162 388T113 399Q100 405 93 414Q71 440 64
477T66 554Q72 577 81 594T106 628Q112 633 116 639T123 646Q133 652 153 655T192 656T221 645Q228 638 237 639T258 623Q260 619 261 618ZM213 568Q215 577 208 583T193 586Q183 584 173 578T153 564Q144 560 138 552T129 534Q123 515 119 495T121 459Q125 449
135 445T155 444Q178 453 188 472T203 516T213 568Z" />
<glyph unicode="&#xbb;" glyph-name="guillemotright" horiz-adv-x="579" d="M506 295Q524 255 518 219T490 153T440 97T386 55Q380 53 375 46Q368 38 354 24T323 -6T295 -29Q290 -33 282 -32T271 -24Q267 -13 269 1Q272 14 273 26T279 51Q282 68 294 78Q312 95
335 117T383 163T424 205Q439 222 429 244Q423 255 415 265T399 285Q363 322 322 359T244 429Q219 452 218 476T229 519T259 539Q263 540 273 531T295 509T318 485T335 468Q339 465 339 462T344 454Q352 444 363 438T381 421Q384 417 388 417T393 415Q397 411 402
404T414 394Q417 392 419 390T424 384Q430 375 439 369Q456 359 467 343T491 315Q501 308 506 295ZM355 245Q354 241 353 237T351 229Q350 207 336 191T305 162T276 134Q269 122 256 118Q248 113 243 104T229 90Q223 87 219 84T210 76Q194 59 171 41T128 11Q121
7 113 11T103 25Q101 42 105 57T111 91Q116 115 133 126Q163 148 196 170T256 216Q264 222 264 231T258 246Q218 281 176 311T88 371Q71 382 66 405V408Q56 427 64 446Q64 448 64 449T66 453Q74 475 100 473Q101 471 105 471Q138 458 165 434T219 383T279 339Q289
332 294 326Q304 315 320 302T349 275T355 245Z" />
<glyph unicode="&#xbc;" glyph-name="onequarter" horiz-adv-x="650" d="M178 628Q165 592 160 554T136 488Q131 478 121 475T100 474Q81 479 71 495T61 530Q61 541 68 554T80 583Q88 607 90 630T98 676Q99 687 107 692T125 696Q153 691 170 668Q183 650 178 628ZM439
636Q439 630 438 624T434 613Q432 610 431 607T428 603Q422 597 419 590Q415 582 406 575T391 559Q387 552 386 545T380 530Q377 526 373 524T366 519Q365 517 364 510T356 498Q355 497 353 498T350 498Q343 491 336 480T321 460Q311 447 299 434T275 406Q268 397
263 388T249 370Q245 367 242 365T236 358Q236 356 234 354Q231 351 228 348T223 343Q199 327 181 306T145 263Q138 253 128 248Q125 246 122 244T116 240Q109 233 99 233T80 241Q63 258 71 278Q78 298 92 316T120 351Q153 398 192 444T270 535Q287 556 304 581T338
631Q342 637 345 642T350 651Q356 664 364 670Q365 671 366 672T368 674Q386 690 404 678Q414 672 424 664Q437 652 439 636ZM589 321Q587 304 570 303T535 304Q512 307 505 285Q502 274 501 262T494 240Q490 229 478 228T459 236Q455 244 455 255T456 278Q458
286 453 292T440 299Q416 300 392 306T353 328T340 375Q340 376 341 376Q343 379 345 381T349 386Q360 400 374 414T401 441Q411 451 423 464T447 488T474 498T503 484Q505 482 507 482T510 484Q514 486 518 485Q535 469 536 440T530 388Q527 378 532 370T546 360Q561
357 576 350T589 321ZM478 373Q480 377 477 379T469 379Q466 377 463 375T456 370Q454 369 454 365T459 360Q473 360 478 373Z" />
<glyph unicode="&#xbd;" glyph-name="onehalf" d="M216 641Q215 640 211 637T205 631Q197 614 194 600T179 570Q176 566 171 558T160 540Q145 521 125 520Q121 520 117 520T109 519Q99 520 93 527T88 545Q92 574 99 602T114 659Q117 674 114 689V694Q116 710 131
710Q150 711 163 707T189 696Q207 686 214 670Q217 665 219 658T216 641ZM423 645Q423 638 415 622T396 591T374 566Q367 559 361 550Q348 525 327 506T291 461Q287 452 279 446Q276 445 274 440Q266 434 260 426Q247 405 229 388Q226 385 224 382T220 376Q201
345 176 319T131 265Q127 258 119 253Q103 240 84 250Q82 251 81 252T78 254Q58 260 61 284Q65 300 74 316T94 345Q125 386 167 432T240 519Q245 526 247 533T256 545Q262 550 269 560Q274 568 280 575T294 590Q297 592 299 594T304 601Q318 621 331 642T358 685Q363
693 373 695T391 693Q405 684 414 672T423 645ZM459 383Q447 357 430 336T396 294Q391 287 393 279T403 266Q413 261 422 256T436 240Q441 231 437 221T421 208Q406 204 388 211T351 224T316 219Q295 209 276 220Q275 221 275 222T273 224Q258 234 260 254Q265
272 278 281Q306 303 332 325T374 383Q377 388 372 392T361 394Q348 386 333 381T304 379Q294 382 288 391T285 410Q293 439 318 449T368 470Q389 478 410 468Q418 464 425 459T439 449Q451 441 458 424Q458 424 458 424T459 423Q463 413 463 403T459 383Z" />
<glyph unicode="&#xbe;" glyph-name="threequarters" horiz-adv-x="738" d="M530 643Q507 603 481 563T424 485Q420 480 417 474T411 460Q411 460 411 460T410 458Q390 430 369 403T330 345Q327 338 319 333Q293 308 273 276T231 213Q224 202 209 200Q195 199
185 210T168 234Q163 243 164 253T170 273Q185 296 199 317T226 364Q228 368 230 371T234 376Q295 443 349 516T459 660Q464 668 470 678T484 695Q492 703 503 702T521 691Q523 690 525 687T529 681Q544 663 530 643ZM275 605Q277 588 266 574Q262 567 258 560T248
548Q236 538 233 524Q222 488 198 466T135 438Q115 435 96 446Q86 453 77 459T61 476Q57 484 63 490Q68 497 76 494Q82 493 86 493T96 494Q112 492 125 499Q143 507 159 519T178 551Q179 562 174 571T166 590Q165 603 176 610Q182 612 183 618T180 628Q171 636
160 642T140 658Q140 658 140 658T139 660Q135 668 138 677T151 689Q180 694 212 684T258 653Q260 649 265 647T271 643Q276 636 276 626T275 605ZM675 315Q669 304 656 304Q646 304 635 303T611 300Q589 300 578 280Q569 267 562 254T548 228Q544 218 535 216T518
220Q509 227 507 237T509 256Q511 261 513 266T518 276Q520 284 516 291T504 299Q483 300 465 307T436 333Q430 345 424 351T424 375Q432 399 454 422T503 467T548 505Q558 515 571 513Q576 511 581 508T590 500Q592 497 594 495T599 490Q602 485 606 481T616 473Q618
472 619 471T621 469Q634 461 639 449Q648 431 640 414Q637 407 635 399T629 383Q625 376 629 369T640 359Q662 354 674 336Q682 326 675 315ZM550 373Q554 379 548 384T536 384Q532 380 530 377T523 370Q517 366 521 359T533 356Q542 360 550 373Z" />
<glyph unicode="&#xbf;" glyph-name="questiondown" horiz-adv-x="408" d="M299 463Q292 454 281 454T261 460Q249 471 240 483T226 510Q222 521 228 530T245 540Q263 543 280 529T304 496T299 463ZM333 66Q325 63 328 54Q330 45 324 38Q309 18 295 4T249 -19Q245
-20 242 -20T233 -20Q175 -19 131 12T65 91Q62 99 60 110Q59 139 62 168T78 224Q83 235 91 243Q102 251 106 259Q111 268 121 276Q155 302 183 337T228 416Q230 424 238 426T254 421Q273 405 279 380T274 326Q267 307 252 293T228 263Q221 251 215 246Q197 230
177 210T143 165T130 109Q130 105 132 100T135 89Q145 67 168 65Q195 62 221 69T266 89Q282 100 288 119Q296 141 304 156Q309 165 318 165T331 156Q339 143 344 126T348 93T333 66Z" />
<glyph unicode="&#xc0;" glyph-name="Agrave" horiz-adv-x="518" d="M409 461Q413 451 408 443T391 434Q369 434 347 447T314 476Q310 480 308 486Q303 495 308 503T324 509Q350 505 375 495T409 461ZM458 240Q453 202 450 170T444 93Q444 91 443 90Q440 81 440
71Q441 59 437 46T429 20Q422 -4 400 -4Q385 -6 373 -1Q363 1 357 9T351 26Q357 104 365 174T364 318Q364 325 355 325Q348 325 344 323Q326 313 309 303T280 273Q276 263 268 258Q253 245 242 227T213 195Q205 192 200 183Q197 175 191 169Q186 162 180 155T169
140Q161 129 160 115Q159 108 149 94T128 67T114 49Q110 42 108 35T104 23Q98 2 75 4Q67 5 63 13T63 29Q64 32 65 34T69 39Q71 42 72 46T75 54Q95 118 122 167T183 271Q188 279 195 286Q199 288 201 291T205 298Q220 324 245 345T291 379Q302 385 314 385Q322 386
328 388T344 390Q367 389 386 378T424 353Q438 342 443 325Q451 296 456 254Q458 251 458 248T458 240ZM323 145Q329 136 326 126T313 110Q291 103 268 108T233 130Q227 138 230 146T243 155Q266 159 289 159T323 145Z" />
<glyph unicode="&#xc1;" glyph-name="Aacute" horiz-adv-x="519" d="M433 549Q433 545 429 540T425 530Q424 523 426 518T426 508Q425 501 420 496T410 485Q403 478 393 473Q383 469 378 461Q375 459 372 457T365 454Q356 452 350 458Q340 468 339 478Q334 496
343 515Q351 530 361 546T379 578Q386 588 395 588Q408 588 413 594Q418 598 424 596T431 589Q434 581 434 571T433 549ZM454 265Q457 211 458 149T451 30Q450 19 441 12T421 3Q419 3 416 3T409 4Q398 5 390 15Q384 23 384 34Q384 113 387 190T379 344Q378 352
371 355T358 353Q332 331 313 304T270 251Q269 249 267 246T263 240Q248 210 230 184T198 126Q187 101 178 79T156 34Q147 15 139 2T113 -15Q89 -20 75 0Q71 6 67 11T61 25Q60 48 74 69T94 110Q94 114 95 117T98 123Q140 206 188 281T310 409Q327 423 350 416Q354
415 357 415T365 414Q379 412 389 406Q427 384 439 347T454 265ZM358 149Q358 144 356 143Q346 128 328 128T293 136T264 158Q257 166 259 175T271 189Q309 203 340 180Q355 170 358 149Z" />
<glyph unicode="&#xc2;" glyph-name="Acircumflex" horiz-adv-x="586" d="M524 428Q529 418 523 409T505 401Q485 403 471 421T445 459Q433 479 413 479Q404 479 400 478Q395 477 389 477T376 478Q364 480 354 472T333 451T313 430T288 420Q271 420 258 435Q251
443 250 453T254 471Q263 484 273 494T293 516Q307 533 331 533Q337 532 342 532T354 531Q377 533 401 535T450 529Q465 523 474 510Q480 501 488 493Q492 489 495 485T500 476Q502 474 503 471T506 466Q513 458 516 445Q518 441 520 437T524 428ZM490 296Q489
272 488 238T481 181Q480 177 480 173T480 165Q480 160 480 155T478 145Q471 121 471 96T460 48Q459 43 458 38T456 28Q456 21 453 13Q448 4 441 0Q430 -10 419 -5Q413 -5 409 -3Q388 6 391 30Q401 75 405 134T413 251Q414 275 416 298T413 339Q410 350 401 356T381
361Q359 360 344 347T318 317T291 286Q283 280 278 269Q276 263 272 260T265 251Q262 242 253 235Q242 226 239 213Q237 209 235 206T230 198Q217 181 207 161T188 120Q186 116 184 114T180 109Q175 102 163 79T138 28T113 -21Q108 -31 98 -34T78 -31Q77 -31 76
-31T75 -30Q54 -15 63 6Q80 55 102 99T139 183Q140 185 142 188T145 195Q172 233 196 273T249 348T320 406Q326 409 331 411T344 413Q382 414 414 404T468 370Q477 361 484 339T490 296ZM363 141Q368 131 364 121T346 109Q331 106 316 113T291 135Q287 142 289
150T300 161Q312 165 323 169T341 160Q345 157 346 158Q351 160 353 156Q355 152 358 148T363 141Z" />
<glyph unicode="&#xc3;" glyph-name="Atilde" horiz-adv-x="598" d="M536 499Q535 488 529 481T515 468Q502 457 483 455Q468 455 452 455T423 459Q410 463 401 472T381 490Q370 498 349 494T309 482T283 466Q277 462 271 457T260 445Q256 441 253 438T244 433Q241
431 239 430T234 426Q218 415 199 415Q193 416 189 416T179 414Q172 413 167 420T165 434Q185 469 213 499T284 539Q297 543 312 546T340 550Q391 551 429 519Q445 503 468 510Q480 514 491 518T513 524Q524 525 531 518T536 499ZM469 259Q465 204 458 155T440
44Q437 29 425 25Q415 18 400 23Q396 25 393 26T385 29Q365 39 365 61Q368 101 374 149T383 247T378 343Q376 351 368 355T351 355Q339 350 328 341T306 324Q300 318 291 303T270 279Q266 275 261 274T251 269Q240 259 232 244T216 215Q215 211 213 208T208 201Q204
197 200 189T193 174Q192 168 190 163T184 153Q165 127 149 98T121 36Q120 35 119 33T116 28Q112 21 104 8T83 -14Q74 -18 67 -13T61 3Q74 50 90 96T124 190Q125 193 128 199Q148 232 166 268T207 335T260 390T331 420Q335 421 338 422T344 424Q351 427 366 425Q382
425 393 418Q401 414 409 409T425 399Q440 391 448 376Q453 366 458 356T466 335Q469 320 467 305T468 275Q469 271 469 267T469 259ZM311 139Q317 131 314 121T299 109Q285 106 270 112T240 125Q235 128 233 134Q233 137 229 139Q224 139 224 146Q228 154 234
154Q254 157 276 157T311 139Z" />
<glyph unicode="&#xc4;" glyph-name="Adieresis" horiz-adv-x="523" d="M354 494Q354 490 352 486T346 479Q339 471 328 470T309 475Q299 483 293 496T290 523Q292 535 304 535Q314 537 321 531Q332 525 344 517T354 494ZM459 503Q466 493 462 482T449 466Q432
459 415 465T393 498Q391 509 398 517T416 526Q429 526 441 520T459 503ZM448 231Q445 212 440 194T434 159Q434 145 429 135Q415 105 413 70T399 4Q395 -6 386 -9T366 -9Q357 -3 349 4T340 16Q337 27 343 38T350 60Q354 78 354 97T355 134Q355 142 349 147T335
150Q334 150 332 148T328 145Q311 144 300 152T278 165Q278 165 271 165T261 174Q260 183 274 190T299 198Q317 201 338 193Q346 190 352 194T360 206Q366 240 366 277T360 344Q359 353 349 356T333 351Q331 350 329 348T324 343Q318 339 314 339T305 333Q298 326
295 321T284 310Q283 309 281 308T278 305Q276 304 278 303T278 299Q274 295 267 290T255 279Q252 275 250 271T246 263Q241 252 233 245Q233 245 233 245T231 244Q229 237 224 233Q196 200 172 163T115 96Q106 87 100 74Q96 59 90 48T76 23Q72 16 66 19T60 29Q61
32 62 34T63 39Q65 51 67 64T71 85Q78 108 88 132T109 180Q123 216 143 249T183 314Q188 323 195 335T210 355Q211 357 215 357T220 359Q231 371 240 382T260 404Q269 413 284 416Q289 418 294 420T306 424Q323 426 341 421T375 411Q391 408 401 395Q427 367 440
323T448 231Z" />
<glyph unicode="&#xc5;" glyph-name="Aring" horiz-adv-x="549" d="M480 508Q487 491 479 471Q478 470 478 468T475 464Q472 461 469 460T464 454Q458 445 446 438Q423 423 403 428Q394 429 387 432T371 441Q357 451 346 465Q344 471 338 482T334 500Q340 524
360 536T405 550T452 541T480 508ZM430 490Q435 498 429 506T413 510Q395 504 389 490Q385 481 393 474T410 471Q422 478 430 490ZM489 250Q485 225 482 200T475 150Q475 142 471 138Q471 135 470 134Q466 125 465 118Q462 103 457 90T449 60Q448 50 439 38Q433
29 432 18T428 -5Q427 -12 420 -17T405 -20Q387 -16 384 1Q380 23 386 47T394 103Q397 156 403 209T406 298Q405 309 403 319T391 333Q368 341 347 333T311 310Q307 307 305 304T300 298Q293 291 285 285T268 273Q255 263 242 247T218 213Q204 191 190 170T164
126Q158 114 153 107T141 91Q137 86 135 80T130 69Q129 65 128 62T124 56Q118 48 106 30T76 -3Q71 -7 65 -4T60 6Q70 55 90 97T131 180Q145 209 162 233T195 283Q201 291 204 301T214 320Q226 337 249 359T295 393Q301 395 307 397T319 399Q343 400 366 397T409
389Q424 384 431 378Q448 364 460 346T480 308Q485 298 485 285Q485 281 485 279T486 274Q491 262 489 250ZM340 124Q338 117 330 115Q303 110 287 123T253 151Q248 155 250 163Q251 167 258 169Q281 172 305 166T340 136Q345 131 340 124Z" />
<glyph unicode="&#xc6;" glyph-name="AE" horiz-adv-x="801" d="M734 480Q743 473 742 462T730 445Q721 441 709 440T688 434Q676 428 664 430Q650 430 640 424T616 415Q609 414 603 412T590 405Q565 386 547 358T516 298Q514 291 519 285T531 279Q563 284 598
296T660 303Q671 301 677 293T683 274Q683 270 682 267T681 260Q679 238 659 228Q622 208 583 201T515 216Q510 221 503 219T494 210Q488 181 488 149T490 91Q490 88 495 85Q499 84 503 82T513 80Q552 81 587 81T658 85Q673 87 685 88T710 86Q728 81 731 61Q736
45 720 35Q720 34 720 34T719 34Q706 24 694 23Q655 16 611 11T524 9T449 35Q446 37 444 39T439 44Q435 49 421 68T401 126Q400 136 393 142T376 146Q346 145 318 152T279 188Q276 193 270 194T260 190Q235 149 211 107T161 23Q156 13 147 8T128 1Q113 0 100 1T74
6Q66 10 62 19T61 36Q72 59 84 80T106 124Q108 128 109 130T113 135Q152 190 185 250T254 371T335 481Q351 497 374 494Q401 489 418 469Q424 462 425 452T420 431Q389 379 352 333T285 234Q282 227 286 221T298 215Q318 217 335 218T374 224Q383 225 390 232T398
249Q399 261 401 272T409 294Q411 298 412 301T414 308Q421 344 437 383T479 453T546 489Q556 491 566 491T583 495Q593 500 604 500Q630 502 650 503T698 499Q703 497 709 495T719 489Q723 486 726 485T734 480Z" />
<glyph unicode="&#xc7;" glyph-name="Ccedilla" horiz-adv-x="490" d="M421 373Q417 367 406 369Q390 370 379 381T359 406T340 429Q324 446 302 447T256 448Q234 446 227 441T204 420Q192 407 187 390T171 360Q158 344 157 316T151 268Q150 259 149 252T146 239Q145
187 171 155T250 131Q261 133 276 142T304 159Q335 180 364 199Q372 204 379 201T389 190Q391 186 391 185Q397 177 399 167T399 148Q398 137 390 126Q383 116 377 107T356 90Q352 89 350 86T344 80Q337 73 327 69T304 61Q294 60 289 53T284 38Q284 33 283 31Q283
12 299 4Q325 -7 348 -26T368 -79Q364 -109 341 -133T286 -164T225 -151Q222 -149 220 -148T213 -145Q212 -145 211 -145T210 -144Q205 -140 198 -139Q192 -138 185 -129Q180 -123 181 -115T191 -104Q214 -96 239 -93T278 -70Q283 -62 278 -53T264 -44Q253 -44
246 -48Q234 -55 216 -50Q210 -47 204 -43T194 -31Q187 -21 178 -14T164 3Q163 5 165 7T170 8Q174 6 176 10Q178 21 181 29T186 48Q191 69 173 79Q112 113 80 178T66 328Q77 375 103 421T164 493Q179 502 195 512T236 524Q277 526 308 520T373 498Q384 493 396
476T418 438T430 399T421 373Z" />
<glyph unicode="&#xc8;" glyph-name="Egrave" horiz-adv-x="443" d="M295 501Q299 491 293 483T275 476Q256 478 243 495T225 534Q222 545 230 550T249 550Q253 547 256 545T263 539Q264 535 270 535Q275 535 279 531Q284 525 289 518T295 501ZM379 385Q384 378
381 369T368 358Q338 354 308 348T252 330T213 295Q207 286 205 275T195 253Q194 249 192 245T189 235Q187 228 183 222T180 210Q181 205 178 200Q173 197 173 191Q166 159 155 130T144 70Q144 60 151 52T169 43Q189 40 215 44T266 51T311 51T339 29Q340 28 340
27T341 25Q343 21 342 16T338 8Q337 7 337 7T335 5Q328 -4 304 -8T249 -12T191 -14Q156 -14 125 3T78 45Q73 53 66 72T61 104V116Q60 124 61 131Q68 163 78 194T96 258Q98 266 104 276T114 298Q122 325 140 356T183 398Q199 403 222 403T268 405Q291 408 310 407T351
401Q369 399 379 385ZM308 178Q302 167 293 164Q286 161 277 158T260 154Q255 153 250 153T240 153Q225 153 211 161Q207 164 203 167T194 174Q186 181 189 190T204 200Q209 200 216 200T230 201Q238 203 244 204T256 206Q278 212 296 199Q299 197 300 196Q305
195 307 189T308 178Z" />
<glyph unicode="&#xc9;" glyph-name="Eacute" horiz-adv-x="386" d="M273 535Q279 528 279 518T271 499Q269 495 264 493Q257 486 247 482T226 476H209Q199 478 193 486T188 506Q192 523 201 535T220 558Q223 560 227 562T235 563Q243 563 248 556Q254 551 260
546T273 535ZM321 414Q327 406 324 397T313 384Q295 376 275 372T238 360Q219 353 207 339T183 311Q180 307 178 302T173 291Q168 276 162 252T141 180Q140 176 140 172T140 164Q141 138 133 117T129 68Q130 58 137 51T155 44Q177 44 200 46T244 47T280 30Q284
26 284 20T280 10Q276 6 273 5T264 1Q252 0 241 -6T214 -14Q181 -17 149 -8T93 16Q79 26 71 44Q55 88 63 135T83 233Q88 256 96 278T108 321Q110 331 113 337T118 351Q121 361 129 373Q156 405 198 421T289 434Q309 433 321 414ZM258 173Q247 160 229 159T193 166T168
190Q164 198 168 205T181 214Q188 214 196 215T211 218Q233 223 251 210L253 209Q262 202 263 192T258 173Z" />
<glyph unicode="&#xca;" glyph-name="Ecircumflex" horiz-adv-x="413" d="M318 490Q322 486 321 480T314 470Q302 464 290 471Q286 473 283 476T278 480Q259 496 240 481Q230 475 220 466T199 450Q179 439 158 450Q151 454 149 462T153 478Q162 489 174 499T198
520Q208 533 228 536H236Q259 539 275 523Q285 513 298 507T318 490ZM334 350Q319 345 297 346T258 339Q254 335 248 335Q239 335 231 330Q227 329 224 328T216 325Q197 318 186 295Q176 269 169 242T155 185Q155 184 155 181T154 176V175Q151 171 150 165T146
154Q145 135 143 113T144 71Q146 62 154 56T173 51Q201 56 226 58T276 63Q286 64 296 61Q312 56 319 45Q326 37 324 27T311 11Q295 3 271 1T226 -5Q192 -12 164 -9T109 9Q103 13 98 17T89 29Q89 29 89 29T86 31Q84 35 81 40T76 49Q74 53 73 54Q61 69 61 85Q56 157
76 231T128 366Q133 375 140 381T155 391Q181 403 208 408Q212 408 218 410Q242 420 272 417T324 406Q336 403 345 392T353 369T334 350ZM286 190Q288 180 283 172T270 158Q251 148 227 155T188 178Q179 187 188 196Q193 202 200 205Q213 210 228 215T256 220T276
203Q280 199 283 199Q286 199 286 195V190Z" />
<glyph unicode="&#xcb;" glyph-name="Edieresis" horiz-adv-x="418" d="M249 528Q257 519 256 508T246 489Q236 479 222 478T194 481Q184 485 180 495T179 515Q183 526 188 534Q193 543 202 546T221 548Q238 542 249 528ZM354 489Q348 476 334 476Q322 475 314
477T298 484Q277 494 284 516Q285 519 286 522T288 529Q291 543 305 546Q319 552 329 541Q340 531 351 517T354 489ZM355 386Q361 379 354 370Q347 363 339 363Q317 361 298 359T261 351Q242 346 219 340T184 319Q177 309 171 294T160 264Q153 239 153 206T145
145Q142 135 141 122T141 95Q143 86 145 78T154 63Q158 59 155 59Q177 52 211 56T273 66Q290 70 297 69T314 59Q316 57 317 56T320 53Q331 39 320 28Q313 17 299 14Q271 8 239 3T178 1Q161 4 143 5T107 12T79 34T64 83Q57 130 62 179T78 273Q88 319 108 356T170
406Q180 409 188 408Q202 408 215 414Q221 416 226 417T239 418Q259 416 277 415T315 411Q331 409 343 399Q347 396 350 393T355 386ZM259 179Q251 163 233 165Q223 166 216 170T203 179Q192 185 189 195Q186 201 188 208T196 218Q207 223 217 226T239 224Q242
223 241 221T243 216Q245 215 247 216T251 216Q253 214 254 211T259 203Q265 190 259 179Z" />
<glyph unicode="&#xcc;" glyph-name="Igrave" horiz-adv-x="243" d="M171 454Q176 444 169 436T151 429Q125 434 110 454T78 491Q72 497 70 506Q69 512 72 516T80 520Q101 519 115 512T139 490Q142 487 144 485T149 480Q156 476 162 469T171 454ZM183 315Q180
248 163 180T133 41Q128 19 108 10Q105 9 102 8T93 6Q87 8 83 12T74 20Q67 27 63 35T60 54Q62 109 71 158T89 257T104 364Q105 373 113 378T129 381Q143 377 153 370T171 351Q184 334 183 315Z" />
<glyph unicode="&#xcd;" glyph-name="Iacute" horiz-adv-x="289" d="M228 476Q224 457 205 446T171 419Q156 402 133 405H130Q120 408 116 417T115 435Q125 455 134 473T155 510Q161 518 171 521T190 523Q208 517 219 504T228 476ZM184 291Q168 218 161 151T130
18Q127 8 116 0Q101 -8 83 -3Q59 7 61 30Q63 85 70 141T84 251Q87 275 89 299T96 346Q98 356 106 361T124 365Q133 364 142 359T158 346Q162 340 166 336Q168 335 173 330Q181 323 183 313T184 291Z" />
<glyph unicode="&#xce;" glyph-name="Icircumflex" horiz-adv-x="349" d="M289 448Q292 438 285 430T268 421Q248 423 236 436T210 461Q203 469 192 470T173 464Q160 454 152 442T133 419Q118 404 94 414H93Q81 419 73 431Q72 431 72 432T70 433Q62 438 60 448Q56
461 64 470Q81 496 105 511T161 535Q184 542 203 530Q213 525 223 519T238 508Q240 506 242 502T248 493Q260 480 272 471T289 448ZM226 349Q225 315 223 287T218 228T211 158Q211 147 205 138Q192 112 190 80T180 21Q176 11 167 6T148 4Q118 12 119 50Q120 88
125 123T134 190Q139 251 142 301T149 394Q150 405 158 410T176 414Q197 408 214 388Q221 381 223 371T226 349Z" />
<glyph unicode="&#xcf;" glyph-name="Idieresis" horiz-adv-x="370" d="M310 493Q307 471 285 458Q268 444 246 453Q225 458 225 481Q225 487 221 491Q217 502 220 512T234 526Q242 531 253 532T276 534Q281 534 281 529Q281 525 286 525Q299 525 305 515T310
493ZM134 465Q138 453 128 446Q121 442 110 442T89 448Q85 450 78 456T70 463Q70 463 65 470Q53 488 68 508Q79 522 86 525Q97 528 109 523T130 507T134 483Q129 475 134 465ZM225 343Q210 295 205 245T185 144Q184 143 184 138Q182 124 176 108Q176 106 176 105T175
101Q174 96 168 80T154 46T138 13Q133 7 128 5Q120 3 116 4Q111 5 108 7T100 13Q83 27 83 48Q82 84 89 124T103 203Q111 259 117 311T133 409Q134 415 139 418L140 419H143Q153 422 163 420T184 414Q202 408 214 393Q216 391 217 389T220 384Q232 365 225 343Z"
/>
<glyph unicode="&#xd0;" glyph-name="Eth" horiz-adv-x="574" d="M513 294Q511 282 507 271T500 245Q493 214 489 180T468 126Q466 124 455 107T430 72T404 44Q397 39 379 32T339 19T303 14Q298 15 294 15T285 13Q272 10 245 11T190 16T141 26Q131 29 124 37T114
55Q107 89 115 125T126 198Q128 207 123 216T109 230Q98 236 88 242T68 258Q61 264 61 274T70 289Q81 296 95 298T125 304Q136 306 142 313T150 331Q156 366 161 401T168 474Q168 483 175 489T191 496Q226 494 246 471Q260 455 260 433Q259 408 259 388T255 344Q254
325 265 306Q267 305 269 303T274 299Q283 295 285 284T281 265Q276 258 267 252T246 241Q226 232 224 211Q218 172 212 137T198 54Q198 47 204 44H206Q217 54 228 56Q278 71 323 103T394 184Q407 210 416 252T429 329Q431 347 425 364T413 399Q409 408 402 416T384
428Q365 437 346 444T313 462T294 493Q292 501 298 508T314 513Q352 508 390 502T455 476Q461 472 472 458T490 429Q505 399 510 364T513 294Z" />
<glyph unicode="&#xd1;" glyph-name="Ntilde" horiz-adv-x="600" d="M475 470Q474 469 473 467T469 463Q460 456 449 456Q439 457 428 452T406 442T380 440Q369 444 361 451T345 466Q330 481 313 469L309 466Q291 453 269 456Q253 459 241 466Q234 473 233 483T239
501Q255 517 277 528T323 540T363 523Q366 519 370 519Q375 519 378 515Q388 500 404 503Q427 506 441 501Q461 498 471 479Q473 476 474 474T475 470ZM540 419Q540 412 539 406T539 396Q541 387 539 376Q537 366 538 356T539 333Q539 308 531 282T521 229Q520
215 515 201T508 173Q508 167 507 163T504 153Q496 131 491 108T474 64Q471 60 470 54T466 43Q465 32 460 21T446 1Q431 -14 413 -16T373 -15Q369 -14 365 -12T356 -9Q352 -6 348 -4T338 1Q323 7 314 21Q301 42 297 67T286 118Q285 126 282 134T276 153Q270 198
268 245T254 336Q252 344 244 345T231 339Q230 333 227 328T221 316Q219 312 217 307T214 295Q214 291 212 286T208 276Q192 251 186 221T174 159T156 99Q153 87 153 74Q154 60 152 43T148 12T144 -6Q142 -12 132 -19T115 -29Q100 -30 79 -20Q69 -16 64 -7T60 11Q63
33 65 57T73 104Q81 128 90 167T106 234Q117 268 129 308T160 370Q199 417 261 406Q275 405 290 393Q318 368 331 331T351 252T361 167T375 86Q377 80 383 80T391 85Q417 145 444 206T486 331Q488 334 488 337T490 343Q496 354 501 366T510 389Q514 397 515 406T518
423Q520 432 530 431T540 419Z" />
<glyph unicode="&#xd2;" glyph-name="Ograve" horiz-adv-x="400" d="M241 468Q244 455 231 450Q222 449 213 450Q180 462 160 498Q156 506 161 512T174 518Q194 515 215 503T241 468ZM340 275V264Q336 232 332 197T319 130Q315 117 309 104T301 76Q299 56 284
41Q277 35 269 29T253 18Q245 10 233 8Q223 5 211 3T185 0Q175 1 166 2T149 5Q142 7 137 9T125 15Q118 22 110 28T94 41Q90 45 86 50T79 60Q60 97 60 144T68 234Q73 269 77 293T94 344Q99 355 108 369T128 394T151 408Q160 410 168 409T185 405Q192 404 197 401T209
394Q210 393 211 392T214 390Q219 387 221 380T219 368Q216 363 212 360T203 354Q193 350 187 344T174 330Q162 321 159 306Q143 257 136 206T126 104Q124 80 145 68Q164 56 185 62T224 85T246 123Q251 138 256 151T266 176Q272 194 272 212T275 248Q278 268 278
288T268 326Q261 335 261 344Q261 349 266 352T275 355Q281 354 286 353T298 349Q303 344 306 344Q327 334 334 314Q338 306 339 296T340 275Z" />
<glyph unicode="&#xd3;" glyph-name="Oacute" horiz-adv-x="405" d="M266 521Q270 508 264 500T251 481Q243 471 234 468Q234 467 234 467T233 466Q216 454 199 456Q195 458 190 459T183 465Q177 471 179 481Q183 494 187 505T198 525Q209 546 233 541Q244 540
254 536T266 521ZM344 286Q348 274 345 258T340 238Q333 206 331 185T324 134Q323 130 322 126T318 118Q311 105 307 91T294 65Q291 61 289 57T285 48Q285 46 284 44T281 40Q273 26 261 19Q239 5 209 0Q176 -4 150 11T104 44Q92 52 88 66Q86 68 85 71T81 76Q75
84 74 90Q62 122 60 171T68 270Q76 306 90 341T119 391Q132 405 156 404T193 390Q201 382 200 371T190 353Q166 334 159 304T141 241Q140 237 140 233T138 225Q137 184 134 148T150 73Q150 70 155 70Q173 60 190 71Q192 73 194 74T198 76Q202 80 205 83T211 91Q234
126 248 169T274 259Q275 262 275 265T275 271Q276 289 279 305T278 339Q275 347 269 355T258 373Q254 379 259 385T271 389Q299 379 320 357T340 306Q340 295 344 286Z" />
<glyph unicode="&#xd4;" glyph-name="Ocircumflex" horiz-adv-x="421" d="M334 486Q330 479 323 478Q310 477 301 482T283 494Q273 501 263 500T244 490Q230 476 219 459T186 446Q177 448 172 453T160 460Q152 462 148 469Q142 477 148 485Q158 500 174 515T206
543Q226 556 246 553Q272 547 293 533T331 501Q338 496 334 486ZM361 306Q361 276 358 247T341 188V184Q341 182 342 181T343 179Q346 174 345 171Q327 130 308 91T253 28Q250 26 248 24T244 19Q234 6 220 3Q206 0 190 0T161 5Q160 6 158 6T153 8Q133 12 114 33T83
80Q83 83 80 86Q71 99 68 110Q49 193 73 270T150 398Q166 412 189 409Q197 408 205 406T220 401Q232 397 235 388Q241 378 235 366Q231 361 227 356T218 345Q207 337 203 329Q201 325 196 320Q192 316 190 313T184 304Q182 301 181 298T176 293Q172 289 170 284T165
274Q164 270 163 267T159 260Q154 250 153 241Q150 222 143 209T135 176Q135 168 134 164Q130 149 130 132T130 100Q132 91 143 77T168 63Q178 64 190 76T216 107T238 139Q255 165 270 194T289 251Q294 274 297 305T288 359Q284 367 289 372T301 376Q305 375 310
373T319 369Q324 367 330 363T340 353Q347 347 351 339Q361 326 361 306Z" />
<glyph unicode="&#xd5;" glyph-name="Otilde" horiz-adv-x="454" d="M394 554Q393 550 392 547T390 541Q390 532 384 521Q380 517 378 509Q375 495 362 489T339 473Q333 466 325 461Q321 460 318 458T310 456Q307 455 304 454T296 454Q281 456 268 469T244 493T218
496Q213 494 208 490T198 481Q188 475 181 471T168 460Q164 456 160 453T150 448Q147 447 145 446T141 444Q136 446 127 449T110 454Q100 456 95 464Q89 473 95 481Q103 494 117 506T145 529Q152 534 155 535T165 540Q172 543 178 547T195 554Q217 556 233 547T265
524Q272 517 282 517T300 520Q320 531 340 540T380 563Q384 566 390 563Q394 559 394 554ZM368 219Q368 217 366 215T363 210Q361 199 361 189T360 173Q359 170 357 168T353 164Q353 161 354 155T353 143Q351 136 347 129T339 116Q337 114 336 112T333 106Q332
105 331 102T329 96Q325 92 323 83Q321 74 315 69T305 56Q302 52 299 48T291 39Q279 27 267 17T239 0Q225 -6 209 -4Q205 -4 203 -5Q198 -6 194 -6T185 -6Q172 -6 151 0T109 31Q96 47 85 73T67 129T60 181Q61 225 78 268T124 346Q135 360 150 374T180 399T206 411Q215
413 223 411T238 405Q255 402 266 386L268 385Q281 374 274 359Q267 346 255 343Q230 335 212 316T179 275T151 233Q149 228 147 224T143 214Q139 199 137 184T133 149Q132 130 132 111T140 78Q145 68 155 63T175 59Q189 61 200 67T221 80Q236 91 254 116T283 160Q289
174 292 188T299 215Q300 218 302 221T306 226Q308 234 308 246T310 269Q311 272 312 276T313 281Q312 298 306 313T295 342T296 371Q298 374 301 374T306 370Q310 366 311 366Q317 369 319 364Q320 362 322 361T325 359Q341 352 349 341Q366 319 371 288T368 219Z"
/>
<glyph unicode="&#xd6;" glyph-name="Odieresis" horiz-adv-x="399" d="M303 486Q299 467 283 464T250 476Q243 483 237 496T234 516Q239 529 254 529T284 521Q295 517 300 507T303 486ZM170 483Q163 461 143 461Q130 461 119 471T104 495Q101 506 108 515T126
523Q134 523 142 520T156 513Q175 502 170 483ZM339 315Q339 311 339 308T339 301Q343 256 337 204T316 113Q315 109 318 106Q321 105 319 100Q315 93 311 83T304 65Q302 45 286 34Q265 13 232 3T167 -5T121 14Q98 40 77 70T60 139V148Q58 184 62 226T78 309T110
379T160 420Q162 421 168 423T180 424Q183 423 186 422T191 421Q199 420 208 417T225 406Q233 400 232 390T221 375Q197 362 176 343Q167 333 163 323Q149 286 135 241T115 153Q115 151 117 149T119 145Q119 141 117 137T114 128Q113 115 116 104T124 81Q130 65
146 55Q168 43 188 49Q205 55 218 68Q240 88 254 122T275 196T284 273Q285 288 283 300T279 323Q275 337 267 347T255 371Q252 380 259 386T273 388Q279 385 285 382T298 375Q303 372 307 369T316 361Q318 361 318 361T319 360Q328 352 334 341Q337 336 339 330T339
315Z" />
<glyph unicode="&#xd7;" glyph-name="multiply" horiz-adv-x="396" d="M336 320Q335 313 329 309T318 296Q312 286 307 282T294 273T274 254Q267 247 267 237T274 219Q287 204 302 184T321 146T306 120Q293 115 281 122T259 142T238 166Q231 173 222 173T204 168Q185
153 168 138T135 104Q127 93 110 88Q92 82 76 96Q75 99 71 100Q54 115 63 136Q72 159 97 180T144 223Q151 229 151 238T144 255Q128 270 112 287T85 321Q81 329 85 337T98 345Q124 345 149 332T190 301Q197 295 206 294T223 300Q239 315 253 334T289 363Q298 367
308 364T324 353Q329 344 333 336T336 320Z" />
<glyph unicode="&#xd8;" glyph-name="Oslash" horiz-adv-x="611" d="M551 525Q553 509 547 502T535 485Q534 481 534 477T533 470Q530 467 526 463T518 454Q516 451 513 448T508 443Q493 426 499 405Q512 362 512 311T501 211T466 121Q464 117 462 114T459 105Q459
103 458 100Q453 90 446 83Q437 73 429 62T410 41Q400 32 383 23T354 8Q324 -9 286 -3T216 23Q208 28 199 26T184 16Q172 0 162 -17T140 -51Q132 -67 115 -69Q101 -70 85 -60Q75 -52 68 -43T60 -18Q61 -7 69 3T84 25Q86 28 86 32T86 39Q94 50 103 61T119 83Q133
99 128 121Q117 173 123 231T145 335Q153 358 164 382T185 421Q197 440 215 457T256 485T306 489Q308 488 310 487T314 485Q317 484 319 483T325 480Q326 479 328 479Q333 477 338 474T348 466Q349 465 353 463Q361 455 356 444Q353 434 341 434Q326 434 313 424Q296
412 276 401T240 375T223 341Q223 337 222 333T218 324Q208 299 204 272T201 218Q201 211 208 209T219 213Q262 260 305 315T393 419Q399 427 399 437T391 454Q389 458 385 461T378 466Q369 471 371 481Q376 490 384 488Q392 486 400 483T416 478Q438 469 453 486Q469
503 482 522T515 554Q523 559 532 555T541 541Q541 540 546 533T551 525ZM420 308Q420 314 414 315T404 311Q370 258 326 203T241 93Q237 86 240 78T251 69Q277 65 307 74T350 95Q357 101 359 109T366 124Q373 131 380 135T393 146Q416 176 420 222T420 308Z" />
<glyph unicode="&#xd9;" glyph-name="Ugrave" horiz-adv-x="426" d="M260 471Q262 462 255 455T238 449Q217 453 205 472T185 514Q184 522 190 527T203 530Q226 523 241 508T260 471ZM365 361Q365 355 365 350T365 339Q362 326 359 319T354 300Q353 291 351 285T346
274Q345 264 344 257T339 243Q333 233 333 221Q331 204 326 186T321 168Q323 169 319 160T315 145Q315 137 311 130Q298 93 283 58T236 3Q219 -9 204 -6Q167 -5 142 8T93 43Q84 52 80 63Q79 65 79 66T76 69Q74 73 72 77T69 88Q65 101 62 116T63 140Q65 145 65 149T66
158Q66 182 72 213T85 274Q91 303 97 332T114 385Q119 393 128 395T145 393Q146 391 148 390Q166 375 164 353Q162 316 160 280T150 210Q150 209 149 208Q148 204 147 200T145 191Q142 165 138 142T133 95Q135 78 144 64Q149 57 156 54T176 53Q180 54 187 59T199
68Q215 83 230 109T259 164T279 219Q286 242 290 258T298 296Q300 309 305 321T310 346Q311 357 311 370T316 395Q318 400 324 404Q331 406 335 404Q339 402 342 401T346 398Q367 385 365 361Z" />
<glyph unicode="&#xda;" glyph-name="Uacute" horiz-adv-x="450" d="M330 541Q337 532 337 522T328 503Q318 492 305 483T281 468Q280 466 279 466Q275 468 270 468T259 468Q258 468 258 467T256 466Q246 465 240 473T236 491Q248 522 273 545Q289 561 310 554Q324
549 330 541ZM390 383Q391 358 378 330T359 274Q356 258 356 242T351 210Q347 191 339 166T324 120Q320 111 319 101T314 83Q311 76 305 70T294 55Q291 48 289 44T284 34Q278 21 269 14Q268 13 267 12T265 10Q256 1 241 -4Q233 -5 225 -8T206 -13Q196 -16 181 -14Q171
-12 161 -10T140 -3Q135 -1 130 2T121 10Q117 13 114 16T106 21Q95 28 88 38Q74 58 67 79T60 128Q62 159 68 187T76 245Q78 249 78 253T80 261Q92 298 98 338T115 418Q115 420 115 421T116 424V426Q119 429 123 429Q137 426 147 417T164 396Q177 380 174 356Q171
336 165 313T155 270Q155 269 156 266T158 263Q157 259 154 256T150 249Q146 227 143 202T135 146Q134 142 132 140T129 134Q129 130 131 126T133 116Q133 103 131 91T131 68Q134 64 135 60Q150 45 170 48Q181 48 190 51Q203 55 215 65Q221 72 226 79T238 94Q242
98 244 102T248 110Q252 121 255 131T264 149Q269 156 271 166Q276 183 281 198T291 229Q294 238 295 247T299 266Q304 283 310 300T321 339Q325 354 325 370T330 403Q332 413 341 418T360 419Q362 418 364 418T368 416Q390 406 390 383Z" />
<glyph unicode="&#xdb;" glyph-name="Ucircumflex" horiz-adv-x="454" d="M336 483Q339 479 339 474T333 466Q324 462 311 464Q298 469 289 477T270 494Q263 501 254 501T238 493Q229 484 221 475T205 456Q198 449 187 448T168 454Q161 457 158 464Q144 480 159
495Q172 507 184 520T209 545Q225 563 248 558Q271 554 286 536T320 504Q330 496 334 486Q335 485 335 485T336 483ZM395 371Q394 358 389 343T379 309Q378 307 379 305T380 300Q379 296 379 294T376 285Q375 272 370 258T365 230Q365 211 360 189T349 149Q345
138 340 117T323 68Q314 55 305 41T285 16Q282 12 278 9T270 3Q269 2 269 2T268 1Q257 -8 243 -11Q239 -11 238 -13Q234 -13 231 -13T223 -14Q210 -13 198 -15T173 -16Q125 -8 100 28T61 110Q60 114 60 118T59 126Q60 185 69 249T93 375Q95 385 103 389T121 390Q130
386 137 382T150 370Q166 354 164 331Q160 288 151 245T136 161T134 80Q135 76 136 71T140 61Q145 55 152 51T168 46Q178 45 188 46T210 51Q218 55 227 64T241 81Q252 94 260 113T278 154Q288 178 293 200T305 251Q311 273 320 295T331 340Q333 351 334 359T340
375Q344 380 344 388Q344 399 355 401Q359 403 363 402T371 401Q382 400 389 391T395 371Z" />
<glyph unicode="&#xdc;" glyph-name="Udieresis" horiz-adv-x="438" d="M316 505Q324 497 320 487T305 475Q292 473 279 479Q258 485 258 508Q258 513 258 518T259 526Q265 538 275 535T296 523T316 505ZM178 496Q183 486 177 476T160 465Q156 464 153 464T144
466Q134 469 127 477T118 496Q117 498 117 501T116 505Q115 516 122 522T139 525Q166 517 178 496ZM378 371Q379 360 376 348T369 324Q364 315 366 303Q368 296 364 287T358 269Q358 265 359 258T360 246Q359 234 354 226T346 204Q342 187 340 170T333 135Q331
130 329 125T323 115Q322 114 323 111T325 105Q324 102 322 100T319 94Q315 82 314 74T308 54Q303 47 298 43T289 33Q289 32 289 31T288 29Q285 18 278 11Q267 3 255 3Q249 3 245 1Q241 0 235 -1T224 -3Q187 -1 153 8T94 43T60 126Q59 196 65 260T80 384Q81 395
91 398T108 395Q118 387 127 374T134 351Q133 347 133 344T133 336Q134 327 132 318T130 300Q132 291 130 283Q126 259 126 240T126 200Q129 195 126 190Q124 160 126 134T141 86Q154 66 176 63Q208 56 221 66T238 83Q240 89 243 91Q268 129 278 183T298 286Q300
291 300 296T300 305Q300 317 304 328Q308 340 308 339Q312 347 312 361T314 388T331 403Q337 404 341 402T351 399Q362 398 369 390T378 371Z" />
<glyph unicode="&#xdd;" glyph-name="Yacute" horiz-adv-x="454" d="M269 508Q266 483 246 466T200 448Q190 448 185 456T180 474Q184 486 189 499T199 523Q203 532 212 536T230 538Q241 534 248 529T260 515Q262 511 265 511Q269 511 269 508ZM394 400Q394 395
390 394Q389 390 387 387T383 380Q379 372 371 364Q367 360 364 356T358 345Q351 331 340 321T323 296Q321 294 319 291T313 285Q306 282 303 275Q296 265 286 256T268 239Q252 223 255 201Q257 187 249 175Q244 165 244 155Q242 133 235 113T226 73Q226 64 221
54Q214 38 210 23T190 -1Q183 -6 175 -5T159 3Q148 13 148 33Q150 56 153 81T158 125Q158 134 159 138Q162 146 165 163T171 200Q174 223 158 239Q157 241 155 243T151 246Q142 254 139 264Q136 269 133 273T126 281Q124 285 122 288T118 296Q111 313 102 327T85
354Q79 362 78 374Q76 385 70 392T61 410Q59 420 66 426T81 428Q88 424 98 421Q109 418 121 408Q144 387 157 357T186 300Q191 292 199 290T215 295Q240 317 263 344T311 395Q319 403 325 414T341 430Q347 435 353 434T366 430Q383 423 390 411Q394 407 394 400Z"
/>
<glyph unicode="&#xde;" glyph-name="Thorn" horiz-adv-x="443" d="M230 455Q227 415 219 371T201 284T189 204Q185 157 171 111T146 19Q144 9 136 3T119 -6Q101 -10 86 -8Q76 -8 69 0T60 19Q56 105 71 187T109 351T145 513Q147 522 156 527T175 531Q189 527 200
516T220 491Q226 483 228 474T230 455ZM376 244Q367 207 349 177T300 134Q295 131 289 130T275 129Q259 130 244 130T220 139Q216 144 211 147T200 154Q191 157 191 166T199 180Q211 186 226 190T250 204Q252 208 256 208Q259 208 264 213Q272 230 281 255T291
300Q293 310 293 321T291 341Q289 351 281 356T266 365Q257 372 260 383T275 394Q283 395 290 393T308 390Q323 390 334 383Q402 345 376 244Z" />
<glyph unicode="&#xdf;" glyph-name="germandbls" horiz-adv-x="464" d="M403 384Q397 357 387 331T360 283Q350 266 364 251Q390 228 393 193T388 118T368 43Q361 23 346 14Q333 4 319 -2T285 -8Q265 -8 248 9Q242 16 236 21T224 33Q217 41 220 50T234 61Q239
61 244 62T254 64Q265 66 273 73T283 91Q287 115 293 141T303 193Q304 202 299 211T285 224Q269 232 255 240T231 263Q226 271 229 280T241 293Q244 294 247 294T253 296Q261 299 268 304T281 316Q295 334 304 358T315 409Q317 433 298 445Q288 451 276 456T253
465Q247 467 243 464T238 455Q238 451 237 448T235 441Q211 391 199 336T180 226T163 121Q159 99 159 76T154 33Q152 28 149 22T141 10Q131 -9 106 -11Q102 -11 98 -11T88 -10Q73 -10 64 6Q60 16 61 28Q72 120 93 221T141 421Q150 441 154 458T165 490Q175 511
199 511Q243 512 283 503T354 472T399 415Q403 408 403 400T403 384Z" />
<glyph unicode="&#xe0;" glyph-name="agrave" horiz-adv-x="434" d="M231 310Q234 295 219 293Q206 289 193 298Q183 303 175 310T159 326Q151 339 145 347T135 366Q131 375 136 381T151 386Q180 382 203 363T231 310ZM373 11Q373 -2 358 -6Q330 -12 306 4T268
46Q264 53 257 53T244 49Q228 31 209 17T165 -4Q155 -7 141 -5Q122 -1 106 10T76 36Q66 47 65 60Q57 102 67 145T106 220T178 259Q201 263 215 258T242 245T269 228Q276 225 281 222T290 213L291 209Q300 200 295 190Q292 180 281 180T255 183T226 185Q200 182
182 173T153 143Q150 139 147 136T141 128Q137 124 135 117T129 104Q126 100 125 95T121 84Q121 80 121 77T120 69Q119 59 127 52T145 48Q160 52 171 65T193 90Q199 97 206 102T216 111Q223 121 230 130T243 148Q248 157 258 160T278 160Q298 153 307 129T321 80Q326
58 343 48Q348 45 353 42T364 34Q375 25 373 11Z" />
<glyph unicode="&#xe1;" glyph-name="aacute" horiz-adv-x="448" d="M275 356Q271 338 255 323T219 301T179 300Q169 303 166 312T166 330Q186 366 210 395Q217 403 227 404T246 401Q250 400 253 398T259 394Q280 378 275 356ZM385 19Q381 7 369 5Q338 -1 316
18T281 63Q277 69 271 70T259 65Q242 45 222 28T171 8Q169 7 166 7T161 4Q153 0 144 3Q121 8 106 20T76 48Q67 57 64 73Q57 106 64 139T90 202T134 248Q139 250 144 252T155 256Q187 262 225 256T284 226Q291 219 288 206Q283 197 274 195Q252 192 229 193T190
183Q177 175 163 157T138 117T126 76V74Q126 64 134 58T153 56Q180 69 198 89T234 131T270 174Q285 189 304 180Q324 172 324 150Q324 132 324 115T328 83Q333 61 355 58Q363 57 369 52T383 39Q385 35 386 30T385 19Z" />
<glyph unicode="&#xe2;" glyph-name="acircumflex" horiz-adv-x="441" d="M300 330Q298 323 290 323Q268 321 253 334T224 363Q217 371 207 371T189 365Q182 360 177 353T165 338Q160 331 152 327T134 323Q122 323 118 333Q114 340 119 349Q131 366 140 387T166
419Q177 426 193 427T223 424Q231 421 241 413T258 398Q269 388 278 372T296 344Q299 341 299 338T300 330ZM379 24Q382 11 371 8Q357 1 340 7T306 25T280 50Q276 57 268 57T255 51Q239 32 220 15T175 1Q172 1 169 1T163 0Q144 -6 130 -1Q126 0 122 1T114 4Q95
10 84 25Q71 45 65 69T65 119Q68 132 70 148T79 176Q87 187 92 206T106 239Q116 252 128 257T155 268Q168 271 179 270Q194 267 210 268T246 266Q260 263 273 254T296 235T305 216Q304 197 289 199T260 209Q242 219 225 216Q225 215 225 215T224 215Q208 217 194
209Q171 195 155 175Q149 166 146 156Q140 134 130 109T121 61Q123 51 131 45T150 40Q172 44 183 60T210 98Q218 108 227 115T241 131Q245 138 248 143T254 154Q258 163 267 167T285 170Q306 167 313 144Q313 140 316 135Q319 134 316 131Q314 130 314 128Q316
115 317 104T321 81Q328 59 349 50Q354 47 359 44T368 39Q372 36 375 33T379 24Z" />
<glyph unicode="&#xe3;" glyph-name="atilde" horiz-adv-x="464" d="M318 378Q322 366 316 356V354Q313 338 304 328Q294 317 282 308T254 299Q240 300 229 308T208 325Q201 333 190 332T171 320Q166 312 156 307T135 304Q124 307 113 312T91 323Q84 324 84 334Q84
342 90 346Q106 360 122 373T161 389Q184 392 203 379Q208 375 213 372T224 364Q241 351 260 361Q271 367 281 373T300 384Q306 387 311 385Q314 384 318 378ZM393 15Q389 14 380 12T365 11Q343 13 322 29T290 63Q286 71 278 71T264 64Q261 60 258 54Q254 50 249
45T239 38Q216 24 189 13T131 5Q129 5 125 7T116 11Q99 17 86 33Q70 56 66 84Q66 87 66 89T64 95Q57 118 67 145T85 199Q91 213 101 223Q107 228 112 234T124 245Q141 260 163 260Q184 259 203 257T241 251Q252 249 258 246Q272 238 290 232T318 211Q323 202 318
193T303 184Q283 185 262 190T221 194Q209 193 201 188T184 176Q180 174 175 171T168 163Q161 154 154 146T144 128Q143 123 142 119T138 110Q133 102 131 94T129 75Q129 66 136 61T151 56Q197 69 224 106Q229 115 232 125T241 140Q243 142 246 142T251 144Q255
149 256 155T264 166Q271 170 277 170T290 169Q306 164 315 154Q320 150 323 144T328 130Q330 114 335 102T346 74Q353 59 368 61Q382 64 390 51Q398 43 402 33T393 15Z" />
<glyph unicode="&#xe4;" glyph-name="adieresis" horiz-adv-x="454" d="M220 348Q223 338 217 331T201 325Q189 328 180 334T166 355Q165 366 172 373T190 376Q200 374 208 366T220 348ZM301 345Q305 336 299 329T283 323Q258 326 248 349Q243 358 249 365T265
371Q276 370 286 363T301 345ZM393 19Q393 16 392 16T390 14Q373 8 355 14Q335 22 323 36T301 69Q297 76 290 76T278 70Q271 59 263 48T245 25Q240 20 236 9Q235 5 225 1T209 -5Q199 -7 188 -5T168 0Q165 1 162 2T156 3Q151 3 141 6T124 13Q103 23 91 43T68 85Q63
95 63 104Q59 140 72 177T111 243T170 285Q182 290 203 290T247 286T281 274Q284 272 288 267T296 260Q308 253 309 243Q309 228 295 228Q287 228 281 228T268 229Q261 231 254 231T240 228Q208 217 180 192T138 135T138 69Q142 59 152 56T171 58Q201 78 221 108T268
164Q272 168 274 172T280 181Q281 184 283 185T286 188Q295 194 306 193T324 184Q334 173 338 155T345 118T353 81T371 54Q383 45 389 30Q390 27 391 25T393 19Z" />
<glyph unicode="&#xe5;" glyph-name="aring" horiz-adv-x="448" d="M281 371Q281 356 270 344T245 324Q223 315 203 324Q179 335 169 359T169 408Q178 429 203 429Q215 429 225 421Q230 417 235 415T246 410Q267 404 276 385Q278 381 279 378T281 371ZM238 383Q237
385 233 390T224 395Q221 395 217 389T209 376Q205 368 212 363T226 363Q231 367 235 372T238 383ZM384 43Q389 36 388 28T379 15Q361 4 340 11Q324 18 309 30T284 60Q281 67 275 67T263 63Q256 56 249 48T233 31Q225 25 213 20Q198 16 185 10T160 3Q152 3 144
7T128 14Q123 16 119 18T111 24Q110 25 108 26T105 28Q92 36 84 46Q65 75 61 107T70 174Q71 177 74 178T78 183Q84 201 98 224T131 267T175 296T228 293Q230 291 233 290T241 288Q260 285 277 281T304 266Q311 259 307 250T294 238Q290 238 287 238T280 238Q276
238 271 237T260 235Q256 234 253 234T246 233Q234 233 221 228Q185 212 160 177T126 104Q124 92 125 75T145 56Q159 55 177 67T204 86Q226 107 243 137T271 194Q277 212 298 210Q316 208 325 191Q337 170 339 144T344 91Q347 69 365 58Q376 52 384 43Z" />
<glyph unicode="&#xe6;" glyph-name="ae" horiz-adv-x="521" d="M461 231Q460 224 457 218T449 205Q442 198 437 191T424 176Q416 166 400 161Q384 156 367 152T333 146Q310 144 305 123Q299 105 298 86Q297 77 304 71T319 65Q339 68 360 72T400 81Q411 84 421
81T436 68Q440 63 443 53Q445 43 440 33T424 20Q412 16 394 13T360 5Q356 4 352 4T343 4Q318 4 301 -2T253 -10Q222 -12 189 -10T126 3T79 40T60 108Q60 122 64 142T84 176Q100 189 120 190T163 189T208 185Q217 185 225 191T234 208Q236 218 237 228T240 249Q240
257 234 263T220 270Q195 269 173 272T128 285Q117 290 111 299Q109 304 110 309T116 315Q141 327 173 330T234 331Q275 331 318 327T398 307T455 258Q459 252 460 245T461 231ZM376 236Q380 246 375 255T359 266Q352 269 340 269Q332 270 325 264T315 249Q314
243 314 236T313 223Q313 213 320 207T336 201L338 203Q349 204 357 210T371 225Q373 228 374 231T376 236ZM220 118Q220 126 214 132T200 138Q184 138 170 137T145 124Q138 117 137 100T140 74Q148 63 163 62T195 61Q206 61 212 68T220 85V118Z" />
<glyph unicode="&#xe7;" glyph-name="ccedilla" horiz-adv-x="400" d="M340 -60Q342 -77 335 -92T316 -119Q312 -124 306 -129T291 -136Q263 -146 234 -135T183 -108Q178 -103 180 -96T189 -89Q209 -88 228 -86T255 -66Q259 -57 255 -48T239 -38Q236 -36 231 -36Q224
-36 218 -35T204 -30Q201 -29 198 -26Q187 -23 189 -13Q191 -1 180 1Q126 18 93 54T60 145Q60 174 72 196T101 244Q104 247 107 250T114 256Q122 262 130 268T149 275Q154 274 158 274T168 276Q202 287 236 287T299 274Q316 268 323 248Q324 243 324 237T321 226Q317
214 301 211Q286 211 281 218T270 233T249 240Q236 240 226 233Q220 228 213 228T198 225Q171 217 153 192T130 137T140 81Q154 61 175 59Q204 57 239 67T299 88Q308 92 317 89T331 75Q338 58 326 46Q319 38 310 30T290 15Q285 12 285 7T290 -1Q310 -10 324 -23T340
-60Z" />
<glyph unicode="&#xe8;" glyph-name="egrave" horiz-adv-x="396" d="M249 380Q251 376 248 369Q240 359 226 361Q225 363 223 363Q202 365 189 378Q168 400 154 428Q150 437 155 445T170 451Q176 451 179 450Q206 445 224 424T249 380ZM334 190Q333 189 331 188T328
184Q325 177 323 169T315 156Q311 152 306 151T295 146Q282 139 269 139Q242 138 213 133T154 131Q146 131 140 125Q135 119 135 110Q136 103 136 97T138 84Q138 61 159 53Q171 47 185 44T214 44Q231 47 244 57T271 75Q280 81 290 77T301 63Q301 60 302 57T303
51Q300 28 281 16Q280 15 276 13Q270 6 262 3T245 -3Q231 -4 217 -4T193 -1Q188 1 183 2T173 3Q147 3 123 17T82 57T61 114Q57 152 70 189T98 260Q118 298 150 305T224 308Q228 307 231 306T239 304Q255 298 268 290T295 271Q300 267 304 263T311 253Q320 238 331
225T334 190ZM255 225Q254 227 254 229T253 233Q250 243 241 249T221 254Q204 252 190 239T165 209Q161 202 165 196T176 190Q190 192 204 193T231 196Q242 198 249 206T255 225Z" />
<glyph unicode="&#xe9;" glyph-name="eacute" horiz-adv-x="396" d="M274 433Q273 416 260 403Q249 390 236 384T203 384Q200 386 197 386T190 384Q184 379 173 381Q169 383 168 386T169 394Q181 411 193 427T219 460Q224 468 233 470T251 469Q255 467 258 465T265
459Q271 455 273 448T274 433ZM331 254Q342 231 330 210Q327 203 323 197T313 180Q303 164 283 155T240 140Q222 136 201 133T161 139Q154 143 147 140T138 128Q133 109 136 93Q141 69 165 66Q202 62 232 77T288 113Q293 118 300 115T309 105Q309 100 310 99Q314
85 311 68Q308 44 289 33Q279 26 268 22T245 11Q235 7 223 5Q176 3 136 23T75 80T64 165Q65 169 68 172T73 179Q75 190 76 201T83 221Q84 224 87 225T93 231Q101 248 109 263T130 291Q132 294 134 296T139 300Q147 307 157 313T180 321Q198 323 222 323T269 319T304
301Q305 300 305 298T304 295Q315 286 320 277T331 254ZM256 248Q258 258 251 264T234 269Q213 263 198 249T171 215Q167 208 172 202T184 196Q213 199 233 212T256 248Z" />
<glyph unicode="&#xea;" glyph-name="ecircumflex" horiz-adv-x="386" d="M291 353Q297 344 294 337T289 328H285Q272 325 265 331T253 346T243 361T226 364Q216 362 210 350T193 330Q186 326 180 323T168 318Q150 306 128 313Q125 314 122 315T115 318Q106 323
104 333T108 351Q127 379 152 400T216 413H219Q226 412 232 410T245 404Q257 397 269 389T285 368Q286 364 288 361T291 353ZM321 30Q313 16 300 10Q266 -5 227 -2T150 18Q146 20 143 22T135 28Q110 51 87 82T61 148Q60 173 68 195T93 236Q101 247 116 253Q155
267 203 260T285 234Q306 224 311 203Q314 193 316 185T318 166Q318 156 312 148T294 136Q265 129 231 129T165 134Q157 135 151 129T144 115Q146 95 156 83Q159 80 162 78T166 73Q183 56 203 55Q226 54 246 60T286 74Q297 78 307 74T321 60Q329 46 321 30ZM238
186Q246 188 246 195T236 204Q223 206 208 201Q201 200 201 192T209 184Q217 184 224 184T238 186Z" />
<glyph unicode="&#xeb;" glyph-name="edieresis" horiz-adv-x="396" d="M198 396Q206 388 204 378T194 359Q179 347 156 352T125 376Q121 386 125 400T140 420Q141 421 142 422T145 424Q147 426 149 424Q157 419 166 419Q177 417 184 411T198 396ZM331 376Q333
366 327 358T309 350Q297 351 286 356T264 366Q244 377 253 399Q254 401 254 403T256 406Q269 428 290 419Q323 404 331 376ZM335 208Q334 203 334 198T331 188Q326 165 304 159Q297 156 288 155T268 153Q258 151 249 147T231 141Q226 141 220 143T208 146Q194
146 183 146T160 150Q152 154 144 150T134 136Q130 124 131 110T136 81Q144 59 166 56Q204 55 233 65T290 85Q310 93 324 75Q329 68 328 58T319 43Q316 41 313 39T308 34Q303 30 298 27T286 20Q252 10 217 4T143 9Q135 10 124 19Q105 34 88 59T64 116Q57 145 65
177T91 238T129 283Q134 287 145 293T161 300Q172 304 182 302T201 300Q212 302 221 300Q253 293 278 279T323 246Q340 229 335 208ZM256 228Q258 233 255 238T245 245Q227 249 212 240T180 220Q173 216 176 208T186 201Q215 206 243 213Q254 215 256 228Z" />
<glyph unicode="&#xec;" glyph-name="igrave" horiz-adv-x="234" d="M170 334Q170 328 168 325Q166 324 164 323T159 321Q153 321 148 322T138 325Q119 330 109 344Q96 360 80 377T60 413Q59 422 66 428T83 433Q115 423 138 398T170 334ZM174 219Q175 213 175
208T173 196Q170 185 171 170T171 141Q170 134 169 127T166 109Q166 88 159 58T139 9Q132 0 122 -1T103 5Q102 6 100 7T96 10Q80 23 78 45Q77 76 83 113T91 181Q93 188 92 195T91 210Q93 229 97 246T103 280Q103 292 114 296Q125 301 136 291Q147 281 155 271Q167
261 170 241Q171 236 172 230T174 219Z" />
<glyph unicode="&#xed;" glyph-name="iacute" horiz-adv-x="239" d="M176 396Q169 369 143 360Q138 359 133 359T123 358H121Q101 355 86 364L84 365Q76 370 73 379T71 399Q77 413 84 426T98 453Q106 471 126 466Q142 463 154 450Q157 446 160 443T166 436Q182
418 176 396ZM141 255Q140 192 141 142T136 46Q134 38 136 30Q138 25 136 22T131 14Q123 5 111 3Q98 0 89 9Q77 18 70 29Q57 45 63 68Q64 73 64 79T64 90Q66 95 67 100T66 111Q65 152 69 195T75 276Q75 286 83 292T101 298Q110 297 118 293T134 280Q141 270 141
255Z" />
<glyph unicode="&#xee;" glyph-name="icircumflex" horiz-adv-x="331" d="M270 366Q272 355 264 348T244 344Q232 349 223 359T207 380T188 391Q174 393 164 380T144 353Q132 333 109 335Q91 338 76 345T61 368Q61 375 70 389T93 417T118 438Q126 443 134 444T150
448Q172 456 190 448Q191 448 192 447T194 446Q201 444 207 439T218 429Q231 413 249 399T270 366ZM214 214Q208 178 204 138T193 65Q190 49 187 36T179 13Q173 3 163 1T143 4Q131 11 123 23Q108 39 113 61Q122 115 125 173T143 281Q145 290 153 292T168 288Q177
281 185 272T203 253Q215 234 214 214Z" />
<glyph unicode="&#xef;" glyph-name="idieresis" horiz-adv-x="358" d="M140 346Q136 335 131 327T114 315Q97 311 89 318T73 336Q68 341 65 346T60 359Q58 375 64 388Q72 403 89 403Q112 403 129 386Q146 370 140 346ZM293 356Q299 347 298 337T289 318Q281 309
269 306T248 304Q235 306 228 316T211 334Q201 341 198 351Q194 366 205 379Q214 388 225 389Q243 394 264 383Q272 378 279 371T293 356ZM200 248Q206 219 203 187T195 131Q192 118 192 105T190 79Q188 64 187 46T183 15T171 1Q156 0 139 3Q129 4 123 11T116 28Q116
87 123 145T135 261Q136 270 142 275T158 279Q163 279 167 278T175 274Q183 270 189 269T200 248Z" />
<glyph unicode="&#xf0;" glyph-name="eth" horiz-adv-x="468" d="M406 391Q406 385 398 385Q393 385 393 381Q392 380 388 381T379 380Q373 379 369 375T358 369Q340 364 335 343V330Q335 318 331 310Q329 302 329 293T328 275Q324 266 324 253Q325 225 320 193T308
136T294 99Q291 93 290 88T288 78Q285 56 268 38T231 5Q214 -9 193 -6Q169 -3 139 4Q124 7 113 18Q81 47 66 95T69 198Q73 209 81 217T95 235Q116 273 149 299T229 329Q239 329 241 340Q243 345 240 349T231 353Q212 355 190 361T151 379Q146 382 140 390Q139 393
135 397T128 406Q123 415 127 422T141 430Q167 430 194 433Q201 434 202 440T198 449Q179 462 163 477T138 514Q135 520 139 524Q141 528 146 528Q182 525 210 511T260 475Q266 471 269 471Q275 471 276 468Q278 464 282 461T291 454Q307 441 326 441Q344 444 360
441Q376 441 386 434Q392 430 396 425T404 414Q410 402 406 391ZM228 246Q229 253 223 257T210 256Q196 247 184 237T158 211Q136 185 129 148T128 75Q128 65 138 63Q148 58 158 64Q184 80 197 111T216 178T228 246Z" />
<glyph unicode="&#xf1;" glyph-name="ntilde" horiz-adv-x="460" d="M390 451Q398 432 381 413Q380 413 380 412T379 410Q375 405 371 400T359 393Q353 389 349 387T336 384Q321 384 310 391T290 402T270 400Q265 396 261 391T250 381Q235 362 213 369Q196 373
182 379T161 398Q156 406 157 416T168 434Q188 451 212 461T263 470Q282 468 295 455Q307 444 324 451T355 465Q365 471 375 467T390 451ZM386 248Q405 209 402 174T387 103T370 24Q368 10 360 -3L359 -4Q355 -14 347 -19T328 -23Q326 -23 323 -23T318 -21Q303
-18 295 -5Q287 9 289 23Q295 56 301 85T311 147T313 223Q313 234 306 241T288 250Q279 251 270 250T250 249Q228 249 213 231Q195 210 189 181T174 119Q170 104 164 89T155 58Q154 48 154 39T154 20Q152 10 144 3T125 -5Q112 -4 100 2T78 16Q71 21 67 28T61 43Q58
57 63 69Q77 111 87 152T115 229T163 294Q173 303 193 308Q209 310 223 310T248 315Q249 315 249 315T249 316Q249 316 249 316T250 315Q253 314 256 314T264 314Q301 313 325 299T371 266Q382 259 386 248Z" />
<glyph unicode="&#xf2;" glyph-name="ograve" horiz-adv-x="416" d="M259 355Q246 344 230 349T199 369T172 399T158 424Q158 428 159 429Q166 438 175 438Q189 438 200 433T225 423Q237 418 248 405Q256 394 264 381T259 355ZM356 163Q351 101 336 70T303 27T269
9Q265 8 262 7T256 6Q243 4 228 1T196 1Q192 3 185 4T171 6Q164 8 151 11T127 19T111 25Q98 35 85 56T66 94Q56 130 61 169T85 242T136 296Q149 303 161 304Q183 306 201 301T231 279Q242 265 234 250Q228 237 215 231Q214 230 212 230T208 228Q198 223 196 221T190
215Q186 210 179 207T165 199Q146 180 143 153T140 93Q141 83 148 74T165 63Q185 59 207 66T247 88T273 121Q275 125 280 133T286 145Q291 159 292 165T294 178Q296 199 287 217T273 254Q271 262 277 266T291 266Q316 250 332 230T355 181Q356 177 357 173T356
163Z" />
<glyph unicode="&#xf3;" glyph-name="oacute" horiz-adv-x="386" d="M278 411Q283 402 281 392T270 375Q266 371 263 368T256 361Q251 355 244 351T229 344Q222 342 217 340T204 335Q187 332 175 341Q163 350 168 365Q172 381 181 399T201 433T223 450Q240 454
254 442T278 411ZM328 210Q330 190 327 172T325 133Q329 108 318 87T294 43Q286 27 270 19Q258 12 247 5T223 -5Q195 -12 170 -3T119 20Q106 26 99 38Q91 51 78 61T63 89Q54 132 64 173T96 247T145 295Q155 300 165 301T186 300Q195 297 204 294T221 286Q236 278
241 263Q243 256 240 249T228 240Q211 236 195 231T168 209Q155 187 146 173T131 135Q129 123 132 107T143 77T164 60Q175 58 191 64T221 80T241 100Q248 111 252 122T263 143Q270 151 273 165Q278 188 279 215T260 256Q254 263 260 269Q266 275 275 273Q296 267
311 250T328 210Z" />
<glyph unicode="&#xf4;" glyph-name="ocircumflex" horiz-adv-x="421" d="M340 359Q342 355 340 350Q339 345 331 341Q309 334 292 347T258 371Q239 384 218 374Q193 363 168 353T120 353Q111 357 109 366T113 381Q136 409 168 427T235 443Q242 443 247 441T259
436Q283 421 307 406T340 359ZM358 193Q363 171 360 152T349 110Q343 95 333 83T316 58Q312 52 312 47T309 38Q305 31 294 25T271 14Q259 7 253 1T236 -8Q227 -9 218 -8T199 -6Q187 -6 175 -3Q115 24 78 70Q75 75 73 80T69 90Q59 128 62 167T80 240Q87 253 96 260Q105
267 111 277T128 295Q139 305 166 310T218 308Q242 297 246 278Q249 268 245 259T229 245Q216 241 208 234T189 219Q180 213 173 206Q170 202 167 199T161 191Q155 181 149 170T138 146Q132 127 136 110Q139 105 140 99Q145 78 160 66Q177 54 196 60Q237 71 264
100T293 171Q294 194 282 209T268 241Q267 251 275 254T290 253Q299 244 308 243Q313 242 317 240T325 234Q329 230 332 227T339 221Q351 211 358 193Z" />
<glyph unicode="&#xf5;" glyph-name="otilde" horiz-adv-x="424" d="M363 409Q367 399 363 389T350 374Q334 364 319 354T284 345Q262 346 246 357T214 381Q196 396 176 379Q166 370 157 357T138 336T110 328Q97 329 87 339T68 363Q62 371 64 380T74 395Q86 403
97 412T120 430Q134 443 151 444Q168 446 184 443T216 434Q231 429 240 420Q241 419 242 419T245 416Q264 402 284 410Q296 415 307 420T329 430Q341 436 348 430Q358 427 361 415Q361 414 362 413T363 409ZM361 148Q360 141 356 132T349 115Q347 96 340 73T316
39Q312 36 310 33T305 25Q304 21 300 17T290 9Q256 -8 218 -9T146 4T89 46T60 115Q57 149 67 185T97 250T143 293Q160 302 185 302T230 298Q253 291 266 265Q271 257 277 251T293 240Q319 227 341 205T361 148ZM293 148Q297 167 292 182T278 213Q270 231 250 231Q243
234 235 234Q228 235 221 235T208 231Q184 223 171 209T153 184Q150 180 149 176T146 166Q145 165 144 162T141 156Q133 141 135 123Q136 117 137 110T139 94Q142 72 165 65Q192 58 219 67T267 97T293 148Z" />
<glyph unicode="&#xf6;" glyph-name="odieresis" horiz-adv-x="404" d="M183 363Q183 344 169 333Q166 331 163 328T158 323Q153 319 147 317T135 314Q119 312 108 323Q94 337 88 356T87 392T115 416Q134 420 148 412T173 391Q183 380 183 363ZM343 346Q338 321
314 319Q302 318 292 322T269 331Q259 335 253 345T249 366Q250 373 252 380T259 395Q263 405 272 409T291 410Q313 403 329 386T343 346ZM343 163Q343 153 343 144T341 126Q341 109 334 98Q328 89 324 81T318 63Q317 57 315 51T308 40Q291 20 272 5T221 -13Q176
-18 138 1T83 55Q81 57 82 61T83 66Q78 80 71 93T61 125Q59 166 76 203T122 266T184 294T246 271Q263 257 256 235Q253 221 239 216Q230 213 221 206Q217 204 214 203T206 199Q192 194 183 181Q168 162 157 138T148 84Q148 74 155 67T173 61Q190 63 207 68T238
84Q272 107 276 144T278 224Q278 233 286 237T301 234Q305 230 308 226T315 218Q323 211 330 199Q330 198 330 197T331 195Q343 182 343 163Z" />
<glyph unicode="&#xf7;" glyph-name="divide" horiz-adv-x="481" d="M279 318Q270 303 254 308Q221 316 208 350Q204 358 210 365T225 370Q241 366 256 361T279 343Q288 329 279 318ZM420 213Q415 204 403 201Q353 197 296 191T185 186Q182 186 179 186T173 185Q142
180 111 185T61 220Q57 228 60 236T73 246Q75 248 77 248T81 250Q87 254 93 255T106 258Q169 259 233 265T353 271Q370 271 381 263Q392 257 402 250T419 233Q426 223 420 213ZM299 108Q299 105 290 96T275 84Q257 78 235 90T203 124Q198 132 203 140T218 149Q226
150 236 149T259 143Q270 138 284 124T299 108Z" />
<glyph unicode="&#xf8;" glyph-name="oslash" horiz-adv-x="594" d="M530 423Q540 402 525 384Q506 361 485 340T440 299Q424 283 426 263Q428 247 424 230T420 200Q420 195 420 190T418 179Q409 156 398 131T370 86Q367 84 362 81T351 73Q342 62 328 51T295 38Q291
37 287 36T278 33Q267 28 254 30T231 39Q227 43 222 45T211 49Q205 51 203 55Q196 62 187 62T170 55Q158 43 148 29T126 6T95 -3Q71 0 63 23Q52 50 86 79Q97 90 112 104T140 131Q155 147 153 169Q146 215 164 260T204 335Q219 356 234 370T279 385Q296 386 307
382T334 373Q353 368 361 354Q361 353 364 350Q366 345 371 343T381 344Q400 357 419 376T453 410Q455 414 458 418T465 426Q471 433 478 438T494 445Q517 452 528 429Q528 427 530 423ZM318 290Q324 296 319 302T308 305Q278 288 260 264Q255 258 260 253T273
251Q284 261 295 271T318 290ZM356 203Q359 208 354 212T343 213Q327 200 307 187T274 159Q267 150 257 141T240 123T238 103Q240 96 247 93T261 91Q301 105 321 135T356 203Z" />
<glyph unicode="&#xf9;" glyph-name="ugrave" horiz-adv-x="425" d="M251 356Q254 346 248 338T230 331Q226 331 223 332T216 334Q203 337 194 346Q177 361 157 375T129 411Q126 421 132 428T149 434Q173 431 195 421T225 396Q228 392 231 390T236 384Q248 372
251 356ZM365 244Q367 214 361 190T351 139Q349 131 344 128Q336 122 336 116Q331 85 310 62T266 19Q254 7 235 4Q179 -3 142 19T85 81T61 171T65 269Q67 280 75 285T93 289Q117 288 138 276Q158 267 160 241Q161 216 154 188T145 135Q145 120 153 106Q155 102
157 98T160 88Q165 78 174 75T194 76Q218 90 231 113T251 164T266 220T285 273Q290 282 299 286T319 288Q326 285 332 282T344 276Q365 266 365 244Z" />
<glyph unicode="&#xfa;" glyph-name="uacute" horiz-adv-x="433" d="M281 371Q277 366 273 362T260 354Q256 352 253 350T246 345Q230 332 210 328T171 323Q163 322 159 329T158 343Q166 362 176 381T199 418Q204 426 213 430T233 431Q262 426 279 409Q296 391
281 371ZM371 201Q367 147 351 105T301 28Q291 16 274 13Q264 10 255 6T238 4Q233 6 228 7T218 6Q188 5 154 12T90 56Q67 101 64 155T61 255Q61 266 68 273T86 280Q101 280 116 275T143 260Q160 245 158 221Q156 202 157 183T158 144Q158 127 157 107T165 74T204
68Q219 71 234 88T260 129T275 170Q281 193 283 219T295 266Q300 276 309 280T329 283Q346 279 358 272T371 250Q371 245 369 238T369 224Q371 218 372 213T371 201Z" />
<glyph unicode="&#xfb;" glyph-name="ucircumflex" horiz-adv-x="399" d="M291 354Q293 347 288 342T274 338Q263 340 252 346T230 357T208 358Q197 353 185 345T163 326Q148 310 124 313Q113 315 102 321T81 334Q74 342 73 352T78 370Q98 397 127 411T190 429Q211
431 225 421Q239 412 251 402T276 381Q291 369 291 354ZM341 264Q343 250 341 240T338 214Q338 207 337 194T335 173Q334 153 329 135T318 100Q308 71 294 45Q287 34 278 28Q265 18 250 13T220 4Q209 2 198 4Q182 7 165 0T131 0Q130 2 130 5T128 10Q125 12 121
12T115 13Q90 33 77 65T59 130Q58 134 58 137T58 144Q59 163 59 190T58 245Q58 255 65 261T81 266Q113 263 124 245T136 200T138 144T145 89Q152 67 175 70Q207 75 226 96T257 149T279 213T301 273Q308 285 319 286Q327 286 331 283Q340 275 341 264Z" />
<glyph unicode="&#xfc;" glyph-name="udieresis" horiz-adv-x="459" d="M195 363Q196 353 190 344T173 334Q151 331 129 342T105 376Q104 387 111 395T128 404Q154 405 172 394T195 363ZM339 364Q344 354 341 344T328 330Q298 320 269 334Q259 339 255 349T253
369Q254 370 254 371T255 374Q258 382 265 387T283 391Q300 390 316 383T339 364ZM396 221Q405 199 396 178T379 129Q373 110 371 90T364 58Q362 54 360 52T355 48Q347 37 336 33Q321 26 307 21T278 8Q272 6 267 5T254 3Q218 3 187 7T124 33Q121 35 114 39T104
48Q77 77 67 115T59 194T70 271Q72 281 80 286T99 289Q101 288 103 288T108 286Q121 284 130 275Q141 268 150 262T163 240Q165 233 161 222T155 201Q154 184 154 165T151 131Q150 125 150 118T153 104Q159 85 167 74T200 63Q211 63 237 72T278 98Q284 104 291
119T306 150T316 176Q322 191 325 207T335 235Q341 245 351 248T370 245Q378 241 385 235T396 221Z" />
<glyph unicode="&#xfd;" glyph-name="yacute" horiz-adv-x="496" d="M338 336Q336 335 333 335T328 334Q319 327 312 313T293 290Q286 285 280 282T269 275Q256 268 243 268Q236 268 230 266T218 261Q212 260 207 264T205 274Q213 296 227 317T250 358Q254 366
257 373T263 388Q267 397 276 402T296 403Q311 399 324 388T342 364T338 336ZM433 179Q438 169 436 159T428 140Q411 116 397 92T364 46Q357 37 354 29Q349 19 343 13Q336 8 333 3Q326 -6 320 -14T308 -33Q305 -37 302 -40T295 -48Q273 -65 258 -88T221 -131Q212
-138 206 -151Q205 -154 203 -156T199 -161Q191 -169 186 -179Q179 -197 165 -215T139 -244Q135 -247 132 -250T124 -256Q116 -263 105 -263T85 -255Q82 -252 80 -250T74 -244Q62 -231 60 -215Q60 -207 61 -199T68 -184Q99 -133 137 -90T209 3Q214 11 214 21T205
38Q200 43 193 49T180 58Q171 63 165 70Q143 95 123 123T79 173Q71 179 70 188Q68 194 74 200Q77 204 84 204Q99 205 108 206T125 204Q137 200 151 184T199 128Q210 117 223 107T246 86Q253 82 261 82T275 90Q296 119 315 148T355 205Q370 223 393 218Q407 214
417 204T433 179Z" />
<glyph unicode="&#xfe;" glyph-name="thorn" horiz-adv-x="550" d="M223 535Q258 541 269 514T261 421Q254 386 244 340T222 245L175 19Q175 15 174 12T171 6V5Q164 -41 154 -79T138 -163Q137 -168 135 -173T129 -184Q129 -185 129 -185T128 -188Q123 -197 113
-199T93 -196Q83 -190 78 -180T66 -156Q64 -150 62 -142T61 -126Q66 -83 74 -41T92 44Q95 60 103 102T124 199T149 313T174 424T196 509Q199 518 206 526T223 535ZM489 185Q491 168 488 144T476 99T454 65Q447 60 438 55Q432 52 426 50T414 46Q406 45 398 42T384
34Q380 30 374 27T363 21Q335 12 304 9T246 19Q231 26 223 43Q221 44 219 49Q215 57 218 64T228 74Q240 78 252 80T278 86Q296 90 318 98Q328 102 336 104T354 108Q359 109 364 111T374 116Q383 122 392 130T408 148Q413 156 414 168T415 190Q414 195 412 198T408
206Q402 216 390 220T366 226Q356 226 345 223T323 221Q315 223 303 230T281 247T271 265Q272 280 286 289T320 302T351 306Q369 306 385 299T414 285Q419 282 424 279T433 271Q437 267 441 265T450 258Q467 246 471 230Q476 219 481 208T489 185Z" />
<glyph unicode="&#xff;" glyph-name="ydieresis" horiz-adv-x="454" d="M220 324Q217 317 214 310T211 296Q211 292 214 289T216 280Q212 268 202 265T177 261Q157 259 140 271Q130 278 123 286T114 308Q112 331 129 346Q139 356 155 364Q165 368 175 368T195
361Q198 360 200 360T205 358Q216 354 220 345T220 324ZM345 334Q349 323 344 312T336 289Q335 279 326 273T306 269Q299 270 294 273T284 281Q280 286 275 289T265 295Q247 302 248 318T262 348T289 363Q303 362 322 357T345 334ZM391 169Q398 150 388 132Q372
108 354 80T323 25Q317 15 309 9Q307 5 305 3Q297 -3 294 -11Q272 -54 246 -92T205 -179Q202 -186 196 -194Q185 -210 176 -227T155 -265Q154 -270 149 -274T139 -280Q128 -286 118 -280H115Q98 -274 89 -260Q87 -257 85 -254T81 -250Q67 -231 77 -210Q81 -202
85 -195T93 -180Q95 -172 100 -165Q101 -164 102 -162T105 -159Q108 -155 111 -151T115 -142Q127 -110 143 -82T174 -23Q176 -19 178 -16T181 -9Q183 -9 183 -8T184 -6Q187 8 179 19Q165 35 149 52T124 84Q114 98 101 116T72 150Q68 155 65 161T60 174Q58 183 64
193Q66 195 68 197T74 200Q90 209 103 202T140 167T214 82Q219 76 228 77T242 85Q253 103 262 124T280 161Q285 170 295 182T316 204T334 213Q346 212 358 204T379 188Q388 181 391 169Z" />
<glyph unicode="&#x2013;" glyph-name="endash" horiz-adv-x="383" d="M321 230Q318 213 299 213Q250 207 193 210T81 225Q73 226 65 234Q60 239 60 245T65 256Q84 273 108 275T161 275T221 270Q245 269 269 269T311 259Q328 249 321 230Z" />
<glyph unicode="&#x2014;" glyph-name="emdash" horiz-adv-x="463" d="M390 300Q405 284 402 271T385 250T358 241Q327 245 304 243T250 245Q243 247 235 245Q211 241 189 238T144 236Q129 238 116 246T89 258Q74 260 65 269Q60 274 61 282T70 294Q71 295 72 295T75
296Q86 306 103 306Q132 308 163 309T226 311Q251 313 275 314T315 314Q331 314 355 312T390 300Z" />
<glyph unicode="&#x2018;" glyph-name="quoteleft" horiz-adv-x="254" d="M194 561Q191 545 174 530T141 493Q136 486 137 476T145 459Q151 453 156 446T165 426Q172 405 162 388T125 363Q103 361 90 372T68 400Q63 408 61 417T60 434Q63 460 75 483T101 525Q106
532 118 541Q132 550 141 563T169 583Q180 587 188 580T194 561Z" />
<glyph unicode="&#x2019;" glyph-name="quoteright" horiz-adv-x="241" d="M181 513Q185 496 177 473T154 428T125 398Q117 392 115 388T109 381T95 379Q90 380 84 381T71 384Q63 387 60 395T63 410Q71 421 79 429T94 448Q99 454 97 462T88 473Q70 482 64 500T64
537T88 563Q105 569 121 568T154 553Q163 546 171 537T181 513Z" />
<glyph unicode="&#x201a;" glyph-name="quotesinglbase" horiz-adv-x="288" d="M225 35Q219 25 208 20Q199 17 194 11T185 -3Q177 -16 161 -24Q159 -25 156 -28T150 -34Q146 -39 140 -43T125 -50Q124 -51 123 -51Q114 -56 101 -56Q94 -59 84 -59Q83 -58 81 -58Q72
-58 66 -50T61 -33Q69 7 82 37T106 99Q109 108 117 113T136 116Q165 112 190 97T220 56Q220 56 220 56T221 55Q229 47 225 35Z" />
<glyph unicode="&#x201c;" glyph-name="quotedblleft" horiz-adv-x="445" d="M159 398Q130 396 112 405T79 438Q72 450 67 462T60 489Q60 500 65 513T75 536Q83 553 97 566T125 591Q131 597 138 593T144 581Q143 577 142 573T140 566Q139 560 138 554T138 541Q139
532 136 522T131 503Q130 493 134 485T149 475Q165 472 179 461T198 436T196 411T159 398ZM384 426Q382 406 365 402T326 401T288 410Q275 416 268 421T254 439Q244 457 249 475V483Q249 488 249 492T250 500Q256 529 275 548T311 584Q313 584 313 584T314 585Q321
592 329 590T340 579Q341 575 342 571T341 563V545Q343 536 339 525T330 503Q326 493 331 484T346 473Q360 469 374 459T384 426Z" />
<glyph unicode="&#x201d;" glyph-name="quotedblright" horiz-adv-x="394" d="M335 541Q336 536 334 522T328 495T323 478Q320 471 313 468T298 456Q292 452 289 446T280 438Q279 437 275 437T266 435Q261 431 259 432T248 429Q243 426 243 428T241 429Q235 426
230 431T225 443Q230 462 235 483T241 523T230 553Q227 557 225 561T220 570Q217 578 221 584T234 593Q239 594 243 594T254 594Q266 593 279 586Q281 585 284 585T290 583Q305 580 316 570Q323 565 328 558T335 541ZM184 506Q184 496 173 494Q166 493 161 486Q153
477 143 469T125 453Q111 434 88 439Q85 440 83 440T78 441Q68 443 63 451T60 469Q63 482 68 495T76 523Q81 541 71 555Q67 563 71 571T84 583Q92 585 100 585T115 583Q142 576 165 558T184 506Z" />
<glyph unicode="&#x201e;" glyph-name="quotedblbase" horiz-adv-x="430" d="M183 79Q184 54 174 29T148 -16Q134 -30 116 -30Q99 -28 88 -16Q86 -15 84 -14T80 -11Q61 3 61 25Q60 50 71 73T90 115Q94 125 103 130T123 134Q145 133 163 113Q180 102 183 79ZM368
51Q364 35 356 20T340 -11Q332 -28 310 -36Q306 -37 303 -38T295 -40Q291 -40 289 -39T285 -33Q284 -31 283 -31T280 -33Q279 -34 276 -34Q255 -22 254 0T261 49T279 96Q283 106 292 110T310 113Q314 112 317 111T321 109Q328 108 333 105T343 98Q345 96 348 94T355
89Q373 74 368 51Z" />
<glyph unicode="&#x2022;" glyph-name="bullet" horiz-adv-x="463" d="M404 280Q404 276 403 275Q403 274 403 273T403 269Q408 254 400 242T388 213Q387 210 386 207T383 201Q381 200 380 196Q379 194 378 191T374 185Q368 178 363 169T356 158Q355 156 353 155T349
151Q346 148 345 146Q339 140 329 135Q318 131 313 125Q308 121 303 120T293 115Q287 111 282 110T270 109Q266 109 261 109T250 111Q244 111 246 106Q248 102 246 99T240 94Q232 90 222 93T204 99Q189 104 172 110T139 124Q135 126 132 129T125 134Q124 135 123
134T120 134Q104 145 91 161T74 194Q74 195 73 196Q65 205 64 214Q53 267 66 316T121 390Q123 390 123 390T125 391Q131 397 139 400Q163 408 188 415T245 420Q276 417 304 405T353 375Q355 374 357 372T360 366Q374 346 385 324T404 280Z" />
<glyph unicode="&#x2039;" glyph-name="guilsinglleft" horiz-adv-x="396" d="M338 43Q337 36 336 29T330 15Q326 8 322 3T311 -5Q303 -7 295 -13Q289 -17 275 -15Q265 -14 256 -9T240 4Q180 75 116 140Q114 143 111 143T106 139Q105 136 102 136T96 138Q77 168
65 199T63 273Q71 299 88 323T116 360Q130 377 152 395T198 429T240 458Q256 468 275 476T309 499Q317 505 325 508Q336 508 336 498Q335 473 328 451T310 405Q302 389 286 381Q260 368 232 348T171 295Q163 288 161 278T163 258Q169 243 178 229T194 205Q226 167
258 141T325 80Q341 65 338 43Z" />
<glyph unicode="&#x203a;" glyph-name="guilsinglright" horiz-adv-x="360" d="M304 250Q307 242 304 234Q302 231 300 229T294 225Q290 224 286 221Q282 220 278 217T269 209Q251 189 227 167T181 126T143 95T126 81Q124 81 123 80H119Q96 74 80 90Q79 92 78
93T75 96Q61 115 71 135Q92 172 128 198T193 256Q206 272 194 293Q178 313 159 330T123 366T98 410Q95 418 99 424T113 431Q129 434 145 426Q152 422 158 418T171 410Q182 404 188 393Q204 368 229 350T266 308Q268 304 271 301T276 293Q285 284 291 273T304 250Z"
/>
</font>
</defs>
</svg>
