<?xml version="1.0" standalone="no"?>
<!DOCTYPE svg PUBLIC "-//W3C//DTD SVG 1.1//EN" "http://www.w3.org/Graphics/SVG/1.1/DTD/svg11.dtd">
<svg xmlns="http://www.w3.org/2000/svg">
<defs >
<font id="Kosugi" horiz-adv-x="1013" ><font-face
    font-family="Kosugi"
    units-per-em="1024"
    panose-1="0 0 0 0 0 0 0 0 0 0"
    ascent="901"
    descent="-123"
    alphabetic="0" />
<glyph unicode=" " glyph-name="space" horiz-adv-x="512" />
<glyph unicode="!" glyph-name="exclam" horiz-adv-x="512" d="M224 179L197 774H315L288 179H224ZM203 4V112H311V4H203Z" />
<glyph unicode="&quot;" glyph-name="quotedbl" horiz-adv-x="512" d="M135 555L109 774H214L188 555H135ZM325 555L299 774H403L378 555H325Z" />
<glyph unicode="#" glyph-name="numbersign" horiz-adv-x="512" d="M110 4L121 214H38L42 295H126L138 509H50L55 590H143L153 774H225L215 590H322L332 774H404L394 590H475L471 509H389L377 295H463L458 214H372L360 4H289L300 214H193L182 4H110ZM198 295H305L317
509H210L198 295Z" />
<glyph unicode="$" glyph-name="dollar" horiz-adv-x="512" d="M224 -82V0Q159 9 119 43T60 128T34 239H123Q126 187 148 142T224 78V385Q179 406 138 431T70 495T44 589Q44 675 93 723T224 780V860H290V779Q378 767 420 712T466 571H381Q378 600 368 627T340
676T290 704V441Q330 421 364 403T425 361T465 303T480 217Q480 124 433 65T290 -3V-82H224ZM224 474V706Q176 699 150 672T124 594Q124 568 139 543T177 500T224 474ZM290 71Q351 78 375 117T400 213Q400 247 384 273T343 318T290 352V71Z" />
<glyph unicode="%" glyph-name="percent" horiz-adv-x="512" d="M135 389Q98 389 78 408T49 458T39 522T37 582Q37 610 38 644T48 709T77 761T137 781Q174 781 194 761T222 709T231 645T233 585Q233 558 232 525T222 460T194 409T135 389ZM68 4L381 774H444L131
4H68ZM134 447Q145 447 152 464T162 504T167 547T168 574Q168 582 168 600T166 639T162 679T157 704Q154 712 150 717T135 723Q123 723 116 705T107 662T104 615T103 586Q103 579 103 557T106 510T115 466T134 447ZM378 -3Q341 -3 321 16T292 66T282 130T280 190Q280
217 281 251T291 316T319 368T379 389Q417 389 436 369T464 318T474 254T475 193Q475 166 474 133T465 68T436 17T378 -3ZM377 55Q388 55 394 72T404 112T409 155T410 181Q410 190 410 213T408 264T398 311T377 331Q365 331 359 313T350 270T347 223T346 194Q346
187 346 165T349 118T358 74T377 55Z" />
<glyph unicode="&amp;" glyph-name="ampersand" horiz-adv-x="512" d="M221 -3Q168 -3 125 19T57 81T31 177Q31 223 49 266T96 349T154 421Q136 453 117 486T85 556T72 629Q72 706 111 743T227 781Q374 781 374 633Q374 594 353 553T301 474T245 409L359 214Q370
266 372 319T375 425H448Q448 384 445 331T434 225T406 135L482 4H398L363 65Q335 34 300 16T221 -3ZM208 472Q225 491 246 517T282 574T298 630Q298 705 226 705Q148 705 148 629Q148 586 167 548T208 472ZM219 76Q251 76 277 93T322 135L193 355Q162 321 138
279T113 189Q113 142 141 109T219 76Z" />
<glyph unicode="&apos;" glyph-name="quotesingle" horiz-adv-x="512" d="M230 555L201 774H312L283 555H230Z" />
<glyph unicode="(" glyph-name="parenleft" horiz-adv-x="512" d="M419 -82Q313 11 248 128T182 389Q182 533 247 650T419 860L471 808Q370 728 312 624T254 389Q254 258 312 154T471 -30L419 -82Z" />
<glyph unicode=")" glyph-name="parenright" horiz-adv-x="512" d="M93 -82L41 -30Q142 50 200 154T258 389Q258 520 200 624T41 808L93 860Q199 767 264 650T330 389Q330 245 265 128T93 -82Z" />
<glyph unicode="*" glyph-name="asterisk" horiz-adv-x="512" d="M213 115L239 357L87 219L38 289L228 389L38 489L87 559L239 421L213 664H299L272 421L424 559L473 489L283 389L473 289L424 219L272 357L299 115H213Z" />
<glyph unicode="+" glyph-name="plus" horiz-adv-x="512" d="M220 84V353H59V425H220V694H292V425H453V353H292V84H220Z" />
<glyph unicode="," glyph-name="comma" horiz-adv-x="512" d="M92 -82L67 -46Q81 -39 98 -26T127 5T140 38Q140 46 133 46H129L123 44Q89 44 72 60T54 111Q54 181 123 181Q166 181 182 155T198 90Q198 33 168 -9T92 -82Z" />
<glyph unicode="-" glyph-name="hyphen" horiz-adv-x="512" d="M59 353V425H452V353H59Z" />
<glyph unicode="." glyph-name="period" horiz-adv-x="512" d="M126 -36Q96 -36 75 -15T54 37Q54 68 76 88T128 109Q157 109 178 88T199 37Q199 6 178 -15T126 -36Z" />
<glyph unicode="/" glyph-name="slash" horiz-adv-x="512" d="M108 -82L40 -54L405 860L472 834L108 -82Z" />
<glyph unicode="0" glyph-name="zero" horiz-adv-x="512" d="M258 -3Q200 -3 161 23T99 92T64 187T48 291T44 386Q44 423 47 469T58 564T83 656T125 728Q153 758 187 769T262 781Q319 781 356 754T416 683T450 586T464 482T468 389Q468 347 465 295T450 191T415
94T354 24T258 -3ZM255 78Q290 78 311 102T345 165T363 246T370 326T371 386Q371 408 370 446T364 528T346 611T311 675T253 700Q219 700 198 675T165 612T148 530T142 449T141 390Q141 368 142 331T148 250T166 167T199 103T255 78Z" />
<glyph unicode="1" glyph-name="one" horiz-adv-x="512" d="M235 4V634Q212 607 182 587T116 561V657Q164 667 193 698T237 774H332V4H235Z" />
<glyph unicode="2" glyph-name="two" horiz-adv-x="512" d="M48 11V91Q112 165 176 241T294 398Q321 439 342 486T363 583Q363 613 352 639T320 683T265 700Q225 700 204 675T174 614T163 546H57Q62 613 83 666T150 750T268 781Q323 781 367 758T438 694T465 595Q465
546 443 491T386 381T309 272T226 173T153 91H465V11H48Z" />
<glyph unicode="3" glyph-name="three" horiz-adv-x="512" d="M252 -3Q145 -3 98 58T45 219H149Q151 186 159 152T190 96T253 73Q294 73 320 95T360 152T373 223Q373 290 343 329T241 368Q225 368 209 367T175 364V453Q192 451 209 450T242 449Q307 449 334 485T361
582Q361 616 353 644T323 689T264 706Q228 706 208 684T178 629T166 567H68Q72 630 93 678T156 754T266 782Q352 782 404 730T456 591Q456 527 429 480T341 407Q407 384 437 336T468 218Q468 118 411 58T252 -3Z" />
<glyph unicode="4" glyph-name="four" horiz-adv-x="512" d="M310 4V185H31V267L301 774H398V265H481V185H398V4H310ZM118 265H310V627L118 265Z" />
<glyph unicode="5" glyph-name="five" horiz-adv-x="512" d="M247 -4Q178 -4 135 23T71 99T45 212H148Q150 180 158 149T188 97T249 77Q288 77 312 94T350 140T367 201T372 266Q372 290 369 320T357 378T328 424T276 442Q216 442 190 404T156 312H68V767H435V687H156V444Q182
478 216 497T293 517Q344 517 378 494T431 432T459 350T467 263Q467 188 447 128T379 32T247 -4Z" />
<glyph unicode="6" glyph-name="six" horiz-adv-x="512" d="M261 -3Q203 -3 164 21T101 84T65 172T49 271T44 366Q44 415 48 471T66 583T106 683T176 755T285 782Q345 782 381 755T437 682T464 584H368Q366 609 358 637T332 686T282 706Q247 706 223 687T184 636T161
568T149 497T143 437Q172 475 210 498T298 521Q348 521 381 498T433 436T460 353T468 268Q468 219 457 171T422 84T358 21T261 -3ZM259 73Q297 73 319 92T352 140T367 202T371 264Q371 288 369 318T357 378T329 426T277 445Q245 445 220 429T175 388T141 337Q141
314 142 281T150 211T168 144T203 93T259 73Z" />
<glyph unicode="7" glyph-name="seven" horiz-adv-x="512" d="M105 4L373 679H59V767H466V666L213 4H105Z" />
<glyph unicode="8" glyph-name="eight" horiz-adv-x="512" d="M256 -3Q190 -3 143 25T70 102T44 217Q44 287 75 337T172 415Q57 462 57 586Q57 645 82 689T153 757T256 781Q314 781 358 757T429 688T455 586Q455 462 340 415Q405 388 436 338T468 217Q468 119
413 58T256 -3ZM256 459Q309 459 337 496T365 582Q365 638 339 670T254 702Q196 702 172 669T147 581Q147 532 175 496T256 459ZM258 76Q304 76 329 97T364 152T374 225Q374 262 361 296T322 352T254 374Q213 374 187 351T150 292T138 221Q138 160 164 118T258
76Z" />
<glyph unicode="9" glyph-name="nine" horiz-adv-x="512" d="M228 -3Q169 -3 132 24T76 97T48 195H144Q147 170 155 142T182 93T231 73Q266 73 289 92T328 144T351 212T364 283T369 342Q340 306 301 283T214 259Q164 259 131 282T79 344T52 426T44 511Q44 560
55 608T90 695T154 758T251 782Q309 782 348 758T411 695T447 607T463 508T468 413Q468 364 464 308T446 197T406 97T336 24T228 -3ZM234 335Q266 335 291 351T337 392T371 442Q371 466 370 499T362 569T343 636T308 686T251 706Q214 706 192 687T158 639T143 577T139
515Q139 491 142 461T154 402T182 354T234 335Z" />
<glyph unicode=":" glyph-name="colon" horiz-adv-x="512" d="M256 406Q227 406 207 427T186 477Q186 506 207 526T257 546Q286 546 306 526T326 476Q326 447 306 427T256 406ZM256 -3Q227 -3 207 18T186 68Q186 97 207 117T257 137Q286 137 306 117T326 67Q326
38 306 18T256 -3Z" />
<glyph unicode=";" glyph-name="semicolon" horiz-adv-x="512" d="M256 406Q227 406 207 427T186 477Q186 506 207 526T257 546Q286 546 306 526T326 476Q326 447 306 427T256 406ZM225 -115L199 -78Q212 -70 227 -58T255 -30T267 2Q267 4 266 6T263 9V10H262L261
8L254 9Q253 9 249 8T244 6Q222 6 203 28T184 72Q184 100 205 118T253 137Q294 137 310 112T327 49Q327 -6 298 -46T225 -115Z" />
<glyph unicode="&lt;" glyph-name="less" horiz-adv-x="512" d="M465 41L33 389L465 737V645L148 389L465 134V41Z" />
<glyph unicode="=" glyph-name="equal" horiz-adv-x="512" d="M59 448V520H452V448H59ZM59 258V330H452V258H59Z" />
<glyph unicode="&gt;" glyph-name="greater" horiz-adv-x="512" d="M47 41V134L364 389L47 645V737L479 389L47 41Z" />
<glyph unicode="?" glyph-name="question" horiz-adv-x="512" d="M216 199V239Q216 307 232 353T272 430T320 487T360 537T377 596Q377 651 346 673T263 696Q211 696 184 677T147 624T136 544H44Q46 616 68 669T137 752T260 781Q318 781 365 760T440 698T468 595Q468
556 456 529T424 481T382 440T341 394T309 332T296 241V199H216ZM201 4V112H309V4H201Z" />
<glyph unicode="@" glyph-name="at" horiz-adv-x="512" d="M257 -3Q201 -3 162 23T98 91T59 184T40 286T34 380Q34 428 39 481T58 586T100 678Q130 723 172 752T270 782Q320 782 357 756T422 689Q455 640 466 578T478 457Q478 406 471 350T442 247Q433 228 420
206T389 169T345 153Q327 153 318 164T305 192T300 223Q287 200 267 179T217 158Q189 158 173 172T148 209T137 256T134 302Q134 326 136 365T145 449T166 534T202 599T258 625Q287 625 300 604T318 559L321 609H374L342 260Q342 257 341 253T340 245Q340 236 344
230T358 223Q371 223 381 243T397 294T408 357T414 416T416 453Q416 497 410 546T381 633Q363 665 336 691T269 717Q223 717 192 692T142 627T113 540T100 448T96 370Q96 340 100 300T114 219T143 142T191 84T260 62Q287 62 310 78T353 118T386 161L434 123Q415
92 389 63T330 16T257 -3ZM221 229Q241 229 254 251T276 306T289 377T295 444T297 489Q297 503 295 519T284 548T257 560Q240 560 229 541T210 491T199 428T194 368T192 329Q192 321 192 305T194 271T202 241T221 229Z" />
<glyph unicode="A" glyph-name="A" horiz-adv-x="512" d="M27 4L211 781H301L485 4H395L347 227H165L117 4H27ZM182 306H330L256 647L182 306Z" />
<glyph unicode="B" glyph-name="B" horiz-adv-x="512" d="M40 11V767H209Q238 767 273 764T342 752T398 721Q459 666 459 583Q459 451 333 405Q478 365 478 214Q478 143 447 98T362 32T244 11H40ZM129 444H212Q257 444 293 456T349 498T370 576Q370 625 350 648T295
678T220 685H129V444ZM129 93H228Q273 93 309 104T367 144T389 223Q389 277 366 307T305 349T218 362H129V93Z" />
<glyph unicode="C" glyph-name="C" horiz-adv-x="512" d="M273 -3Q210 -3 168 21T99 86T58 178T39 282T34 385Q34 432 39 486T59 592T101 687T169 756T272 782Q339 782 379 751T439 670T465 560H370Q367 589 358 621T328 675T271 697Q229 697 202 674T160 613T137
532T127 449T125 379Q125 351 127 313T136 235T158 160T199 104T265 82Q305 82 328 107T365 167T384 235H479Q472 192 458 150T420 73T360 18T273 -3Z" />
<glyph unicode="D" glyph-name="D" horiz-adv-x="512" d="M40 11V767H189Q275 767 331 737T420 653T465 532T478 389Q478 320 466 253T423 131T339 44T203 11H40ZM129 96H197Q262 96 300 122T356 192T381 288T387 392Q387 441 380 492T352 586T294 655T195 682H129V96Z" />
<glyph unicode="E" glyph-name="E" horiz-adv-x="512" d="M40 11V767H478V682H129V440H422V355H129V96H478V11H40Z" />
<glyph unicode="F" glyph-name="F" horiz-adv-x="512" d="M40 4V767H478V687H129V430H431V350H129V4H40Z" />
<glyph unicode="G" glyph-name="G" horiz-adv-x="512" d="M278 -3Q214 -3 171 22T100 89T59 184T39 291T34 396Q34 445 40 498T63 602T107 693T179 758T284 782Q347 782 387 755T448 681T478 577H382Q379 609 368 636T335 680T277 697Q235 697 207 676T163 621T138
546T128 467T125 397Q125 367 127 326T136 242T160 162T204 101T275 78Q337 78 363 113T389 207V332H268V416H478V178Q478 125 449 84T374 20T278 -3Z" />
<glyph unicode="H" glyph-name="H" horiz-adv-x="512" d="M40 4V774H129V439H383V774H472V4H383V354H129V4H40Z" />
<glyph unicode="I" glyph-name="I" horiz-adv-x="512" d="M210 4V774H301V4H210Z" />
<glyph unicode="J" glyph-name="J" horiz-adv-x="512" d="M249 -3Q173 -3 129 26T61 106T27 223H127Q132 164 161 123T255 82Q308 82 335 108T373 176T383 262V774H472V257Q472 181 451 123T381 31T249 -3Z" />
<glyph unicode="K" glyph-name="K" horiz-adv-x="512" d="M40 4V774H129V411L354 774H459L262 477L485 4H377L206 393L129 276V4H40Z" />
<glyph unicode="L" glyph-name="L" horiz-adv-x="512" d="M40 11V774H131V99H485V11H40Z" />
<glyph unicode="M" glyph-name="M" horiz-adv-x="512" d="M37 4V774H172L256 178L340 774H475V4H396V705L294 4H218L116 705V4H37Z" />
<glyph unicode="N" glyph-name="N" horiz-adv-x="512" d="M40 4V774H145L383 170V774H472V4H367L129 608V4H40Z" />
<glyph unicode="O" glyph-name="O" horiz-adv-x="512" d="M256 -3Q196 -3 156 22T92 90T55 184T38 288T34 386Q34 432 38 485T55 591T93 686T158 755T260 781Q319 781 358 755T422 686T458 590T474 486T478 389Q478 344 474 291T458 187T421 92T356 23T256 -3ZM256
82Q294 82 318 105T357 164T377 241T385 321T387 385Q387 411 386 450T378 531T357 611T318 672T254 696Q216 696 192 673T154 612T134 532T127 452T125 388Q125 363 126 325T134 244T155 165T193 105T256 82Z" />
<glyph unicode="P" glyph-name="P" horiz-adv-x="512" d="M40 4V767H231Q260 767 295 764T364 750T419 717Q481 655 481 566Q481 497 461 455T407 390T327 360T232 351T129 350V4H40ZM129 432H226Q270 432 307 443T367 482T390 560Q390 613 370 639T315 675T234
685H129V432Z" />
<glyph unicode="Q" glyph-name="Q" horiz-adv-x="512" d="M256 -3Q196 -3 156 23T92 92T55 186T38 291T34 389Q34 434 38 487T54 591T91 686T156 755T256 781Q316 781 356 755T421 686T457 591T474 485T478 387Q478 323 470 255T436 127L492 60L445 -3L396 58Q369
27 333 12T256 -3ZM256 82Q310 82 341 126L233 261L278 318L372 205Q381 249 384 294T387 385Q387 410 386 449T378 530T357 611T319 672T256 696Q218 696 194 673T155 613T135 534T127 454T125 389Q125 364 126 325T134 244T155 165T193 105T256 82Z" />
<glyph unicode="R" glyph-name="R" horiz-adv-x="512" d="M40 4V767H246Q314 767 365 748T444 685T473 569Q473 490 428 447T310 387Q336 378 358 363T395 324Q412 297 424 256T445 169T462 80T478 4H380Q372 48 366 92T351 179Q345 217 329 257T285 326T210 354H129V4H40ZM129
435H212Q258 435 296 447T358 488T382 569Q382 615 361 640T306 676T232 686H129V435Z" />
<glyph unicode="S" glyph-name="S" horiz-adv-x="512" d="M258 -3Q183 -3 136 29T65 115T34 239H135Q138 199 150 162T190 102T264 79Q320 79 354 115T388 207Q388 252 370 281T320 331T253 367T179 400T111 442T62 501T43 589Q43 649 72 692T149 758T254 781Q356
781 404 724T462 571H365Q358 623 331 661T245 699Q192 699 162 674T132 593Q132 556 151 531T200 488T268 455T343 421T410 376T460 312T479 217Q479 114 421 56T258 -3Z" />
<glyph unicode="T" glyph-name="T" horiz-adv-x="512" d="M210 4V682H27V767H485V682H301V4H210Z" />
<glyph unicode="U" glyph-name="U" horiz-adv-x="512" d="M256 -4Q147 -4 94 52T40 217V774H129V222Q129 158 158 120T256 81Q324 81 353 119T383 222V774H472V217Q472 109 419 53T256 -4Z" />
<glyph unicode="V" glyph-name="V" horiz-adv-x="512" d="M208 4L27 774H119L256 138L393 774H485L304 4H208Z" />
<glyph unicode="W" glyph-name="W" horiz-adv-x="512" d="M101 4L20 774H100L143 229L223 774H288L368 229L411 774H491L410 4H342L256 582L169 4H101Z" />
<glyph unicode="X" glyph-name="X" horiz-adv-x="512" d="M27 4L211 411L48 774H142L256 502L370 774H464L301 411L485 4H388L256 318L124 4H27Z" />
<glyph unicode="Y" glyph-name="Y" horiz-adv-x="512" d="M211 4V339L27 774H120L256 429L391 774H485L301 339V4H211Z" />
<glyph unicode="Z" glyph-name="Z" horiz-adv-x="512" d="M34 11V103L375 682H45V767H475V675L129 96H478V11H34Z" />
<glyph unicode="[" glyph-name="bracketleft" horiz-adv-x="512" d="M193 -69V847H472V775H265V3H472V-69H193Z" />
<glyph unicode="\" glyph-name="backslash" horiz-adv-x="512" d="M213 4V182H37V254H213V339L197 377H37V449H166L27 774H117L255 429L394 774H485L345 449H475V377H314L298 339V254H475V182H298V4H213Z" />
<glyph unicode="]" glyph-name="bracketright" horiz-adv-x="512" d="M41 -69V3H248V775H41V847H320V-69H41Z" />
<glyph unicode="^" glyph-name="asciicircum" horiz-adv-x="512" d="M133 769L102 805L202 901H310L411 805L380 769L256 845L133 769Z" />
<glyph unicode="_" glyph-name="underscore" horiz-adv-x="512" d="M0 -123V-51H512V-123H0Z" />
<glyph unicode="`" glyph-name="grave" horiz-adv-x="512" d="M374 751L119 827L163 901L394 793L374 751Z" />
<glyph unicode="a" glyph-name="a" horiz-adv-x="512" d="M203 -3Q159 -3 121 14T60 65T37 145Q37 200 60 235T121 290T204 320T296 332T383 335Q383 379 376 408T344 453T268 468Q231 468 205 453T169 399H63Q72 455 101 487T173 533T268 547Q362 547 413 503T465
361V4H383V85Q347 45 303 21T203 -3ZM205 71Q273 71 327 117Q344 132 363 154T383 202V274Q357 273 323 272T254 265T189 246T141 210T122 149Q122 109 144 90T205 71Z" />
<glyph unicode="b" glyph-name="b" horiz-adv-x="512" d="M283 -3Q234 -3 197 19T132 81V4H47V774H132V455Q158 496 194 521T281 546Q335 546 372 523T432 461T465 376T475 283Q475 234 468 184T440 91T382 23T283 -3ZM273 74Q311 74 333 93T367 141T383 204T387
267Q387 297 383 332T367 398T332 449T268 469Q224 469 194 445T148 384T132 306V221Q132 181 150 148T200 94T273 74Z" />
<glyph unicode="c" glyph-name="c" horiz-adv-x="512" d="M267 3Q184 3 134 42T62 146T40 284Q40 355 63 416T136 515T264 553Q352 553 400 506T466 375H374Q362 416 336 445T263 474Q220 474 194 457T153 410T134 345T128 275Q128 227 139 183T181 111T268 82Q304
82 326 100T362 146T381 205H472Q463 146 440 100T374 29T267 3Z" />
<glyph unicode="d" glyph-name="d" horiz-adv-x="512" d="M228 -3Q167 -3 130 23T72 91T45 183T37 283Q37 329 47 375T80 460T140 522T231 546Q281 546 317 521T380 455V774H465V4H380V81Q352 41 315 19T228 -3ZM239 74Q280 74 312 94T362 147T380 221V306Q380
347 365 384T318 445T242 469Q203 469 180 449T144 398T129 332T125 267Q125 238 129 205T144 142T178 93T239 74Z" />
<glyph unicode="e" glyph-name="e" horiz-adv-x="512" d="M271 -4Q188 -4 137 34T63 135T40 274Q40 326 51 375T88 463T155 526T256 550Q321 550 368 523T443 436Q454 415 459 382T466 314T470 256H125Q128 211 140 168T181 95T265 66Q320 66 347 99T382 182H472Q459
94 411 45T271 -4ZM129 332H379Q375 369 363 401T325 454T256 474Q214 474 188 454T149 401T129 332Z" />
<glyph unicode="f" glyph-name="f" horiz-adv-x="512" d="M210 4V452H86V531H210V655Q210 713 238 740T325 767H421V688Q402 688 380 689T339 688T308 673T295 634V531H426V452H295V4H210Z" />
<glyph unicode="g" glyph-name="g" horiz-adv-x="512" d="M252 -123Q221 -123 184 -120T112 -104T56 -68T34 -2Q34 45 65 73T137 116Q119 124 100 139T81 177Q81 204 104 221T149 248Q111 270 89 302T66 379Q66 433 93 470T165 526T259 546Q332 546 385 499Q408
519 435 531T492 546V461Q475 461 458 459T423 449Q431 432 436 414T441 375Q441 322 415 287T346 235T256 218Q243 218 231 220T205 223Q194 223 178 215T161 192Q161 179 183 172T241 157T316 141T391 115T449 72T472 4Q472 -39 450 -64T394 -102T322 -119T252
-123ZM255 289Q302 289 331 310T361 382Q361 432 333 453T257 475Q215 475 181 450T146 379Q146 333 180 311T255 289ZM242 -52Q257 -52 282 -51T332 -44T374 -25T392 10Q392 39 367 54T319 76Q309 79 293 84T260 92T232 96Q210 96 183 87T135 59T114 13Q114 -9
127 -22T162 -42T204 -50T242 -52Z" />
<glyph unicode="h" glyph-name="h" horiz-adv-x="512" d="M47 4V774H132V448Q164 491 207 518T306 546Q393 546 429 497T465 366V4H380V357Q380 401 362 434T294 467Q252 467 215 446T155 389T132 310V4H47Z" />
<glyph unicode="i" glyph-name="i" horiz-adv-x="512" d="M205 672V774H307V672H205ZM212 4V539H300V4H212Z" />
<glyph unicode="j" glyph-name="j" horiz-adv-x="512" d="M271 672V774H373V672H271ZM147 -123V-44Q157 -44 181 -44T230 -42T263 -33Q272 -25 275 -5T278 27V539H366V26Q366 -34 353 -66T307 -110T215 -123H147Z" />
<glyph unicode="k" glyph-name="k" horiz-adv-x="512" d="M47 4V774H132V311L344 539H463L262 342L479 4H369L205 287L132 216V4H47Z" />
<glyph unicode="l" glyph-name="l" horiz-adv-x="512" d="M212 4V774H300V4H212Z" />
<glyph unicode="m" glyph-name="m" horiz-adv-x="512" d="M34 4V539H116V477Q132 503 156 524T213 546Q243 546 259 527T283 480Q299 506 323 526T379 546Q420 546 441 525T470 472T478 406V4H396V411Q396 422 395 436T387 462T365 474Q346 474 331 458T306 421T297
382V4H215V401Q215 410 214 427T208 459T188 474Q170 474 154 457T127 416T116 376V4H34Z" />
<glyph unicode="n" glyph-name="n" horiz-adv-x="512" d="M47 4V539H132V447Q164 491 207 518T306 546Q393 546 429 497T465 366V4H380V357Q380 401 362 434T294 467Q252 467 215 445T155 388T132 309V4H47Z" />
<glyph unicode="o" glyph-name="o" horiz-adv-x="512" d="M256 -3Q192 -3 150 19T83 80T48 169T37 276Q37 353 57 414T126 510T260 546Q320 546 361 523T427 461T463 373T475 272Q475 218 464 169T427 81T359 20T256 -3ZM256 76Q297 76 323 93T363 140T382 203T387
271Q387 305 382 339T363 403T322 449T254 467Q213 467 188 449T149 402T130 339T125 271Q125 237 130 203T149 140T189 94T256 76Z" />
<glyph unicode="p" glyph-name="p" horiz-adv-x="512" d="M47 -123V539H132V462Q159 501 195 523T281 546Q333 546 370 524T430 466T464 385T475 295Q475 246 467 198T439 109T381 46T283 22Q236 22 199 42T132 100V-123H47ZM274 99Q311 99 333 116T367 160T383
219T387 280Q387 310 383 343T366 404T331 451T268 469Q226 469 196 447T149 389T132 313V239Q132 199 151 168T202 118T274 99Z" />
<glyph unicode="q" glyph-name="q" horiz-adv-x="512" d="M380 -123V100Q352 63 314 43T229 22Q169 22 132 45T74 109T45 197T37 295Q37 340 48 384T82 465T142 524T231 546Q280 546 316 524T380 462V539H465V-123H380ZM238 99Q278 99 310 117T361 167T380 239V313Q380
353 364 388T317 446T244 469Q205 469 182 451T146 405T130 343T125 280Q125 251 129 220T144 161T178 116T238 99Z" />
<glyph unicode="r" glyph-name="r" horiz-adv-x="512" d="M124 4V539H209V464Q244 506 289 525T388 546V459H377Q344 459 312 452T255 427T217 374Q215 367 212 356T209 337V4H124Z" />
<glyph unicode="s" glyph-name="s" horiz-adv-x="512" d="M270 -3Q176 -3 126 34T53 164H156Q163 115 194 94T273 73Q311 73 340 88T369 146Q369 172 347 190T291 223T218 253T145 288T89 335T67 401Q67 452 94 484T164 531T251 546Q411 546 446 387H347Q340 430
314 450T246 470Q213 470 185 457T157 405Q157 384 178 366T229 334T288 309T330 292Q366 277 395 260T442 217T459 146Q459 93 431 60T360 12T270 -3Z" />
<glyph unicode="t" glyph-name="t" horiz-adv-x="512" d="M327 11Q278 11 252 21T217 57T208 132V452H95V531H208V712H293V531H417V452H293V154Q293 145 294 125T304 99Q313 93 334 91T377 89T408 90V11H327Z" />
<glyph unicode="u" glyph-name="u" horiz-adv-x="512" d="M206 -3Q119 -3 83 46T47 177V539H132V185Q132 141 150 109T218 76Q260 76 297 97T357 154T380 233V539H465V4H380V95Q348 52 305 25T206 -3Z" />
<glyph unicode="v" glyph-name="v" horiz-adv-x="512" d="M208 4L34 539H126L256 106L387 539H479L305 4H208Z" />
<glyph unicode="w" glyph-name="w" horiz-adv-x="512" d="M104 4L20 539H101L149 152L210 539H301L362 152L410 539H491L407 4H326L256 442L185 4H104Z" />
<glyph unicode="x" glyph-name="x" horiz-adv-x="512" d="M37 4L207 287L56 539H152L256 352L360 539H455L304 287L475 4H374L256 220L139 4H37Z" />
<glyph unicode="y" glyph-name="y" horiz-adv-x="512" d="M135 -122L220 91L33 539H129L262 201L385 539H480L227 -122H135Z" />
<glyph unicode="z" glyph-name="z" horiz-adv-x="512" d="M59 11V88L342 452H69V531H450V458L164 90H452V11H59Z" />
<glyph unicode="{" glyph-name="braceleft" horiz-adv-x="512" d="M450 -82Q412 -73 375 -56T314 -8T290 67V270Q290 314 265 336T198 363V416Q241 420 265 442T290 508V705Q290 754 312 784T371 833T450 860L472 812Q445 804 420 791T378 756T362 701V499Q362
458 345 429T285 389Q329 379 345 350T362 279V77Q362 45 378 24T419 -11T472 -34L450 -82Z" />
<glyph unicode="|" glyph-name="bar" horiz-adv-x="512" d="M220 -82V860H292V-82H220Z" />
<glyph unicode="}" glyph-name="braceright" horiz-adv-x="512" d="M63 -82L41 -34Q69 -25 94 -12T135 23T151 77V279Q151 320 168 349T228 389Q186 400 169 429T151 499V701Q151 734 135 755T94 790T41 812L63 860Q102 851 139 834T199 787T223 711V508Q223 464
247 442T315 416V363Q273 359 248 337T223 270V73Q223 25 201 -6T142 -54T63 -82Z" />
<glyph unicode="~" glyph-name="asciitilde" horiz-adv-x="512" d="M336 647Q305 647 276 660T218 687T158 701Q135 701 116 688T83 658L51 682Q64 705 82 728T124 766T177 781Q209 781 237 768T294 741T354 727Q377 727 396 740T430 770L462 745Q449 722 431
700T389 662T336 647Z" />
<glyph unicode="&#xa7;" glyph-name="section" horiz-adv-x="1024" d="M528 -37Q420 -37 351 12T260 171H360Q372 101 420 72T535 42Q562 42 594 49T649 76T673 129Q673 159 646 179T575 214T483 245T391 279T320 329T292 403Q292 442 313 468T366 512T430 540Q407
551 378 569T327 612T305 667Q305 709 325 737T379 782T449 807T521 815Q616 815 676 771T755 631H661Q652 688 615 712T522 736Q499 736 469 732T417 714T395 667Q395 648 419 631T476 599T540 574T584 560Q620 549 659 531T725 482T753 408Q753 375 737 347T694
300T636 273Q667 261 696 242T745 195T764 130Q764 83 742 51T685 0T609 -28T528 -37ZM535 311Q565 313 595 320T644 348T664 404Q664 416 661 427T647 446Q635 456 613 466T568 485T530 499Q509 498 484 494T435 481T396 455T381 410Q381 388 396 374Q410 362
436 350T490 328T535 311Z" />
<glyph unicode="&#xa8;" glyph-name="dieresis" horiz-adv-x="1024" d="M572 807V901H666V807H572ZM357 807V901H451V807H357Z" />
<glyph unicode="&#xb0;" glyph-name="degree" horiz-adv-x="1024" d="M195 553Q152 553 117 574T62 630T41 708Q41 751 62 785T119 839T197 860Q239 860 273 839T327 783T348 707Q348 665 328 630T273 574T195 553ZM195 613Q234 613 261 640T288 707Q288 747 260
773T193 800Q156 800 129 773T101 707Q101 667 128 640T195 613Z" />
<glyph unicode="&#xb1;" glyph-name="plusminus" horiz-adv-x="1024" d="M476 230V485H170V557H476V810H548V557H854V485H548V230H476ZM170 73V145H854V73H170Z" />
<glyph unicode="&#xb2;" glyph-name="uni00B2" horiz-adv-x="1024" />
<glyph unicode="&#xb3;" glyph-name="uni00B3" horiz-adv-x="1024" />
<glyph unicode="&#xb4;" glyph-name="acute" horiz-adv-x="1024" d="M394 751L375 793L605 901L650 827L394 751Z" />
<glyph unicode="&#xb5;" glyph-name="uni00B5" horiz-adv-x="1024" />
<glyph unicode="&#xb6;" glyph-name="paragraph" horiz-adv-x="1024" d="M470 -54V366Q360 379 311 435T261 602Q261 677 293 728T381 806T509 833H775V759H725V-54H649V759H546V-54H470Z" />
<glyph unicode="&#xd7;" glyph-name="multiply" horiz-adv-x="1024" d="M254 79L202 131L461 389L202 648L254 699L512 441L771 699L822 648L564 389L822 131L771 79L512 338L254 79Z" />
<glyph unicode="&#xe5;" glyph-name="aring" horiz-adv-x="1024" d="M512 647Q477 647 448 664T402 710T385 775Q385 811 402 839T449 884T514 901Q549 901 577 884T622 837T639 774Q639 739 622 710T576 664T512 647ZM512 705Q541 705 561 725T581 774Q581 843
511 843Q483 843 463 823T443 774Q443 746 463 726T512 705ZM138 -55L456 602H568L886 -55H781L696 126H328L243 -55H138ZM365 208H659L512 520L365 208Z" />
<glyph unicode="&#xf7;" glyph-name="divide" horiz-adv-x="1024" d="M511 531Q445 531 445 598Q445 663 512 663Q539 663 558 644T577 597Q577 531 511 531ZM170 353V425H854V353H170ZM511 115Q445 115 445 182Q445 247 512 247Q539 247 558 228T577 181Q577
115 511 115Z" />
<glyph unicode="&#x2018;" glyph-name="quoteleft" horiz-adv-x="1024" d="M902 608Q860 608 845 634T829 697Q829 751 858 791T930 860L956 822Q943 814 928 802T901 775T889 743Q889 735 896 735L902 737Q969 737 969 672Q969 608 902 608Z" />
<glyph unicode="&#x2019;" glyph-name="quoteright" horiz-adv-x="1024" d="M93 609L67 646Q80 654 95 666T122 694T134 726Q134 733 127 733L121 731H119Q88 729 71 747T54 795Q54 860 121 860Q163 860 178 835T194 772Q194 718 165 678T93 609Z" />
<glyph unicode="&#x201c;" glyph-name="quotedblleft" horiz-adv-x="1024" d="M902 608Q860 608 845 633T829 696Q829 750 858 791T931 860L957 822Q945 814 929 802T901 775T889 742Q889 735 896 735L902 737H904Q936 739 953 721T970 672Q970 638 952 623T902
608ZM711 608Q669 608 654 633T638 696Q638 750 667 790T739 860L766 822Q754 814 738 802T710 774T698 742Q698 735 705 735L711 737Q744 737 761 722T779 672Q779 638 761 623T711 608Z" />
<glyph unicode="&#x201d;" glyph-name="quotedblright" horiz-adv-x="1024" d="M283 609L257 646Q270 654 285 666T312 694T324 726Q324 733 317 733L311 731H309Q278 729 261 747T244 795Q244 860 311 860Q353 860 368 835T384 772Q384 718 355 678T283 609ZM93
609L67 646Q80 654 95 666T122 694T134 726Q134 733 126 733L120 731H117Q90 730 72 750T54 796Q54 860 121 860Q163 860 178 835T194 772Q194 718 165 678T93 609Z" />
</font>
</defs>
</svg>
