<?xml version="1.0" standalone="no"?>
<!DOCTYPE svg PUBLIC "-//W3C//DTD SVG 1.1//EN" "http://www.w3.org/Graphics/SVG/1.1/DTD/svg11.dtd">
<svg xmlns="http://www.w3.org/2000/svg">
<defs >
<font id="ShantellSans" horiz-adv-x="1492" ><font-face
    font-family="Shantell Sans Light"
    units-per-em="1000"
    panose-1="0 0 0 0 0 0 0 0 0 0"
    ascent="1020"
    descent="-320"
    alphabetic="0" />
<glyph unicode=" " horiz-adv-x="341" />
<glyph unicode="!" horiz-adv-x="274" d="M140 223Q125 223 114 234T98 265Q88 321 85 363T82 453Q82 505 85 541T90 607T93 668Q93 686 101 699T128 713Q150 713 165 696T181 642Q181 614 178 589T173 532T170 447Q170 411 171 387T174 345T177 311T179 276Q179
247 167 235T140 223ZM150 -11Q114 -11 90 8T66 64Q66 91 83 107T124 123Q169 123 188 99T208 44Q208 23 195 6T150 -11Z" />
<glyph unicode="&quot;" horiz-adv-x="445" d="M318 409Q296 409 282 423T273 466Q282 510 288 562T290 666Q289 687 299 702T331 717Q349 717 362 707T377 681Q386 621 380 558T358 442Q354 427 343 418T318 409ZM99 409Q85 409 73 418T55 442T56 476Q67 516
74 566T71 666Q69 680 73 691T88 710T112 717Q130 717 143 707T159 681Q168 643 167 601T157 518T137 442Q127 409 99 409Z" />
<glyph unicode="#" horiz-adv-x="950" d="M215 -104Q195 -103 180 -88T165 -43Q165 7 180 75T218 221T268 378T318 532T357 668T373 770Q373 790 382 801T411 814Q434 814 448 798T463 758Q463 718 448 657T410 520T360 364T310 204T271 57T256 -64Q256 -81 244
-93T215 -104ZM107 154Q82 154 68 162T47 184T41 211Q42 229 54 238T86 248Q210 248 341 251T603 257T852 260Q871 260 882 251T894 223Q894 211 887 199T864 180T826 171Q742 171 649 169T461 163T275 157T107 154ZM556 -156Q533 -155 519 -141T505 -99Q505 -29
520 46T558 198T608 349T658 492T697 617T712 718Q712 736 721 748T749 761Q771 762 787 747T803 697Q803 658 788 603T750 482T700 341T650 190T612 35T597 -116Q597 -134 585 -145T556 -156ZM842 445Q663 445 501 444T176 451Q150 452 135 459T114 478T108 502Q108
520 120 530T154 540Q173 540 195 540T250 538T332 535T452 533T625 530T861 529Q903 529 905 497Q906 475 889 460T842 445Z" />
<glyph unicode="$" horiz-adv-x="700" d="M253 -9Q194 -9 154 1T93 28T72 66Q72 81 81 90T111 99Q128 99 141 94T176 84T241 79Q318 79 377 88T476 116T538 163Q533 190 506 209T438 242T350 269T257 297T173 330T112 376T89 441Q89 485 114 521T180 588T273 640T378
679T481 702T566 710Q586 710 598 704T617 688T623 665Q623 648 611 636T569 621Q448 608 361 580T228 516T182 445Q182 428 206 414T269 387T356 362T451 333T537 294T600 241T625 169Q625 115 577 75T446 13T253 -9ZM345 -150Q322 -150 310 -139T295 -114Q284
-53 281 1T280 107T291 208T308 309Q311 325 319 333T341 342Q359 342 372 327T382 279Q375 226 370 164T366 36T381 -101Q385 -123 378 -136T345 -150ZM362 285Q341 285 327 301T316 349Q325 411 332 477T339 616T321 765Q319 779 322 790T335 809T364 816Q381
816 393 807T408 782Q428 692 427 613T414 462T389 317Q386 302 381 294T362 285Z" />
<glyph unicode="%" horiz-adv-x="924" d="M198 -21Q180 -21 169 -10T156 20T166 56Q222 144 282 226T408 387T545 540T698 686Q716 703 729 710T760 717Q776 717 785 707T796 682T790 650T764 616Q650 516 559 419T390 222T243 11Q232 -5 221 -13T198 -21ZM247
392Q186 392 144 412T81 467T59 551Q59 595 80 633T138 694T217 718Q236 718 245 708T254 679Q254 667 246 658T218 640Q180 625 166 602T152 548Q152 512 174 493T240 474Q283 474 304 492T326 544Q326 578 305 604T253 630Q232 630 217 639T202 669Q202 692 217
701T248 711Q300 711 338 690T396 630T417 543Q417 500 395 466T336 412T247 392ZM659 -11Q598 -11 556 9T493 67T471 153Q471 194 492 227T548 282T628 303Q648 303 657 294T666 268Q666 254 659 243T633 229Q593 222 578 200T563 147Q563 113 588 92T651 70Q696
70 721 96T746 165Q746 202 722 228T658 255Q635 255 623 266T611 296Q611 318 624 327T657 336Q712 336 752 313T814 250T837 165Q837 114 814 75T752 12T659 -11Z" />
<glyph unicode="&amp;" horiz-adv-x="623" d="M566 -127Q548 -127 539 -117T529 -91Q529 -81 532 -75T538 -62T544 -49T547 -33Q547 -17 536 1T495 46T410 115T266 221Q196 271 152 310T83 383T50 448T40 512Q40 563 66 608T147 682T293 711Q357 711 404 696T489
659Q509 647 516 636T523 611Q523 593 512 581T482 569Q469 569 454 577T419 597T368 616T294 625Q216 625 173 594T130 513Q130 487 139 464T170 416T230 360T328 287Q424 220 485 172T578 90T624 29T637 -25Q637 -40 633 -57T620 -91T597 -117T566 -127ZM218
-20Q174 -20 135 5T71 72T47 168Q47 225 71 270T134 345Q148 356 164 356T193 342Q201 334 200 320T190 297Q159 267 148 240T136 173Q136 145 148 120T180 80T223 64Q277 64 326 100T428 210T546 400Q556 418 564 425T584 433Q603 433 615 418T627 383Q627 375
625 366T612 340Q553 237 502 168T403 58T311 -2T218 -20Z" />
<glyph unicode="&apos;" horiz-adv-x="263" d="M120 409Q107 409 95 418T77 442T77 476Q88 516 95 566T93 667Q90 681 95 692T110 710T135 717Q152 717 164 707T180 682Q189 643 188 601T178 518T158 442Q148 409 120 409Z" />
<glyph unicode="(" horiz-adv-x="437" d="M368 -261Q356 -261 346 -259T315 -248Q248 -221 196 -167T113 -27T83 178Q83 299 115 408T200 612T314 787Q325 800 335 805T355 811Q369 811 379 805T395 788T401 765Q401 757 397 749T383 728Q329 658 282 572T205
387T175 178Q175 35 225 -52T369 -176Q391 -184 400 -194T409 -218Q409 -230 403 -239T388 -255T368 -261Z" />
<glyph unicode=")" horiz-adv-x="408" d="M76 -260Q65 -260 55 -255T39 -240T33 -219Q33 -209 38 -200T57 -179Q119 -129 164 -63T235 85T261 256Q261 358 236 448T167 608T66 718Q44 734 36 746T28 770Q28 789 42 799T71 810Q83 810 92 807T122 790Q169 758 210
705T284 582T334 430T352 256Q352 153 324 60T243 -109T121 -239Q106 -251 95 -255T76 -260Z" />
<glyph unicode="*" horiz-adv-x="487" d="M99 344Q84 344 73 356T62 381Q62 388 64 395T72 409Q98 441 140 472T227 533T311 593T369 653Q376 663 383 669T404 676Q420 676 429 665T439 641Q439 633 436 624T425 602Q409 577 372 550T289 491T200 428T130 360Q124
352 117 348T99 344ZM266 246Q249 246 239 255T225 281Q217 325 217 374T218 472T220 556Q220 600 214 626T200 669T186 697T180 723Q180 737 188 745T212 754Q233 754 252 730T282 662T294 559Q294 523 292 478T289 386T299 294Q304 270 293 258T266 246ZM414
378Q406 378 398 381T371 398Q335 424 293 448T209 494T128 536T61 573Q42 583 37 596T31 622Q31 634 38 642T58 650Q70 650 78 647T102 636Q141 614 195 587T311 525T431 448Q449 436 449 415Q449 399 438 389T414 378Z" />
<glyph unicode="+" horiz-adv-x="700" d="M132 254Q107 250 94 262T80 293Q81 313 92 327T146 348Q209 360 277 369T413 383T541 389Q569 389 586 376T604 342Q604 326 595 318T562 308Q482 306 420 300T309 287T217 272T132 254ZM342 38Q326 38 315 53T300 105Q296
166 297 227T301 348T306 461T309 555Q309 573 317 586T344 600Q366 600 381 582T397 525Q397 479 395 421T389 303T384 187T381 92Q381 62 369 50T342 38Z" />
<glyph unicode="," horiz-adv-x="252" d="M50 -170Q36 -170 28 -162T19 -141Q19 -130 24 -116T40 -80Q54 -51 62 -22T73 37T77 99Q77 128 88 143T120 158Q147 158 162 141T177 88Q177 57 170 19T148 -58T115 -129Q103 -148 87 -159T50 -170Z" />
<glyph unicode="-" horiz-adv-x="483" d="M136 205Q109 205 90 211T62 228T53 249Q53 259 59 269T85 281Q150 292 209 299T331 306Q367 306 389 298T420 278T430 257Q430 241 417 232T380 223Q303 223 256 219T180 210T136 205Z" />
<glyph unicode="." horiz-adv-x="257" d="M145 -11Q107 -11 81 14T55 77Q55 103 71 119T112 135Q141 135 161 121T192 87T202 46Q202 24 189 7T145 -11Z" />
<glyph unicode="/" horiz-adv-x="355" d="M59 -201Q33 -201 20 -183T11 -132Q32 -18 60 97T125 326T209 547T316 758Q332 786 346 798T377 811Q393 811 405 799T419 765T406 716Q320 568 264 425T171 139T107 -150Q103 -176 91 -188T59 -201Z" />
<glyph unicode="0" horiz-adv-x="700" d="M317 -11Q249 -11 194 19T107 111T74 273Q74 352 95 418T150 533T217 609T276 636Q293 636 301 629T309 602Q309 588 303 576T282 552Q248 525 221 482T178 386T162 273Q162 217 178 172T228 102T318 76Q377 76 426 115T506
230T537 417Q537 477 523 524T479 598T400 625Q361 625 327 612T263 575T209 515Q202 506 191 499T162 492Q147 492 137 503T127 531Q127 553 147 583T205 643T292 691T400 711Q476 711 526 675T600 574T625 417Q625 309 599 229T528 95T428 16T317 -11Z" />
<glyph unicode="1" horiz-adv-x="417" d="M281 34Q281 13 272 1T243 -12Q220 -12 207 2T193 42Q193 136 198 237T213 439T238 628L265 610Q226 581 197 565T146 543T108 537Q84 537 70 550T56 584Q56 599 65 607T92 619Q126 626 158 643T229 690Q243 701 255 705T281
709Q298 709 310 701T327 679T331 646Q327 618 319 561T302 424T287 245T281 34Z" />
<glyph unicode="2" horiz-adv-x="700" d="M192 -20Q146 -20 122 -2T98 52Q98 68 106 82T131 106Q233 172 303 228T416 334T477 429T496 515Q496 567 467 596T378 626Q327 626 290 614T226 585T180 556T147 544Q130 544 118 556T106 584Q106 596 113 606T135 627Q185
665 248 689T378 713Q452 713 497 688T563 618T584 515Q584 470 567 419T506 309T385 186T187 49L169 79Q184 72 199 70T229 68Q267 68 316 73T423 83T545 88Q594 88 611 72T628 36Q628 19 615 10T575 0Q501 0 444 -3T343 -10T263 -17T192 -20Z" />
<glyph unicode="3" horiz-adv-x="700" d="M305 -12Q235 -12 190 4T122 43T100 90Q100 108 108 120T134 132Q147 132 156 124T180 104T219 85T289 76Q356 76 411 93T499 141T532 214Q532 253 504 274T424 305T301 315Q273 315 258 332T243 369Q243 382 250 392T275
406Q328 419 372 438T443 485T470 554Q470 585 456 600T421 621T374 627Q310 627 271 616T207 590T168 564T136 553Q124 553 114 558T99 571T93 591Q93 607 116 627T178 667T267 699T372 712Q436 712 477 693T539 638T560 556Q560 528 551 498T517 441T449 393T339
360V382Q414 382 467 371T554 337T604 284T620 212Q620 161 598 120T533 49T433 4T305 -12Z" />
<glyph unicode="4" horiz-adv-x="700" d="M480 -11Q450 -11 437 29T424 157Q424 221 435 284T458 413T470 546Q470 580 467 605T456 652L489 638Q406 598 339 535T223 392T146 225L117 269Q142 259 153 256T179 253Q227 253 273 261T367 279T469 297T589 305Q614
305 630 298T656 279T666 251Q666 236 654 226T615 216Q544 216 485 208T374 191T270 173T161 165Q133 165 113 175T81 204T69 244Q69 267 75 290T100 351Q136 429 186 495T293 611T401 687T489 715Q515 715 530 697T553 642T560 552Q560 498 553 450T537 354T520
256T512 148Q512 106 517 83T522 37Q522 14 511 2T480 -11Z" />
<glyph unicode="5" horiz-adv-x="613" d="M212 -12Q161 -12 128 1T77 36T60 86Q60 104 70 116T99 128Q113 128 120 120T135 101T157 83T200 74Q253 74 300 85T384 117T442 170T463 240Q463 269 442 288T383 320T293 344Q217 359 173 372T108 400T80 436T73 486Q73
514 80 553T102 642Q112 673 126 686T165 700Q216 700 254 702T324 708T387 713T457 716Q502 716 520 700T539 663Q539 646 527 638T491 629Q442 629 403 627T325 621T243 615T140 614L203 648Q179 595 171 557T162 493Q162 481 165 473T184 458T232 442T325 421Q394
408 438 390T508 350T543 302T553 244Q553 173 511 115T392 22T212 -12Z" />
<glyph unicode="6" horiz-adv-x="700" d="M352 -10Q279 -10 226 7T140 56T90 135T73 239Q73 312 108 387T210 536T374 679Q400 697 412 704T440 711Q451 711 458 706T471 692T476 672Q476 656 468 645T436 616Q352 555 291 493T196 368T163 240Q163 178 187 143T254
92T353 76Q402 76 444 88T512 129T538 203Q538 228 524 253T476 294T384 310Q333 310 302 305T250 294T216 283T185 278Q169 278 163 286T157 308Q157 326 185 345T266 378T396 391Q472 391 523 365T601 294T627 193Q627 140 596 94T503 19T352 -10Z" />
<glyph unicode="7" horiz-adv-x="700" d="M357 -9Q342 -9 330 -2T311 19T304 56Q304 112 323 170T372 282T430 387T479 478T499 551Q499 588 476 606T383 624Q327 624 286 615T215 593T163 572T125 563Q113 563 103 569T86 585T79 608Q79 620 86 630T106 647Q148
666 192 680T282 702T376 710Q453 710 499 691T567 637T588 557Q588 514 569 467T520 370T461 268T412 162T392 53Q392 17 384 4T357 -9ZM250 265Q221 265 201 282T181 317Q181 333 190 341T212 350Q264 350 315 357T426 371T564 378Q601 378 621 362T642 321Q642
308 632 301T603 293Q529 293 477 289T385 279T314 269T250 265Z" />
<glyph unicode="8" horiz-adv-x="700" d="M300 -12Q229 -12 186 9T124 64T105 134Q105 161 112 186T141 242T207 309T328 396Q384 431 420 461T477 525T511 598Q518 622 526 633T550 644Q569 644 581 631T593 597Q593 561 573 519T509 431T394 340Q332 302 293
272T231 217T201 171T193 130Q193 109 201 89T227 44L166 112Q194 91 226 83T300 74Q356 74 405 87T486 129T517 199Q517 225 504 247T453 289T344 334Q258 363 206 388T126 438T90 487T81 543Q83 622 156 666T389 711Q424 711 442 705T469 688T477 661Q477 645
465 635T432 626Q341 628 283 619T197 591T169 540Q169 526 177 512T209 483T273 450T382 408Q459 380 504 355T572 304T600 252T607 196Q607 143 576 96T477 18T300 -12Z" />
<glyph unicode="9" horiz-adv-x="700" d="M570 -9Q545 -9 529 6T509 47Q498 117 499 215T501 439L542 448Q519 391 479 352T386 291T276 270Q210 270 167 293T102 358T80 455Q80 502 99 547T156 629T247 688T369 710Q439 710 478 687T517 621Q517 604 511 590T489
576Q477 576 469 583T452 600T423 616T369 624Q309 624 264 602T194 541T169 456Q169 407 196 381T276 355Q334 355 384 380T466 459T498 603Q498 630 507 644T532 659Q558 659 574 646T594 602T588 516Q587 439 588 376T589 281Q589 204 592 158T599 83T602 30Q602
11 594 1T570 -9Z" />
<glyph unicode=":" horiz-adv-x="280" d="M146 356Q112 356 90 379T67 441Q67 469 83 485T131 502Q159 502 178 489T206 456T215 415Q215 393 199 375T146 356ZM148 -11Q113 -11 90 12T67 69Q67 100 87 117T134 135Q161 135 179 122T206 89T215 49Q215 26 200 8T148 -11Z" />
<glyph unicode=";" horiz-adv-x="280" d="M144 361Q111 361 89 382T67 435Q67 466 89 484T141 502Q177 502 196 475T215 420Q215 397 199 379T144 361ZM79 -170Q65 -170 57 -162T48 -141Q48 -130 53 -116T68 -80Q83 -51 91 -22T102 37T106 99Q106 128 117 143T149
158Q176 158 191 141T206 88Q206 57 199 19T177 -58T144 -129Q132 -148 116 -159T79 -170Z" />
<glyph unicode="&lt;" horiz-adv-x="700" d="M561 76Q549 76 537 78T495 84Q435 94 376 112T264 153T173 201T112 251Q90 276 90 301Q90 312 94 322T114 345Q141 368 183 392T275 438T373 479T462 507Q489 515 501 516T524 518Q549 518 561 504T574 471Q574 461
570 454T557 441T529 430Q472 414 408 391T281 338T170 272L175 315Q210 280 271 250T407 197T565 161Q588 158 598 149T609 124Q609 101 594 89T561 76Z" />
<glyph unicode="=" horiz-adv-x="700" d="M163 153Q121 143 103 155T84 188Q84 205 96 220T150 245Q242 268 335 280T517 293Q552 293 571 281T590 248Q590 231 580 222T543 213Q485 213 439 209T354 200T283 187T221 171T163 153ZM166 397Q124 390 106 402T87
438Q87 456 103 468T163 487Q224 498 285 503T402 509T500 511Q561 511 585 499T610 465Q610 448 599 439T562 429Q486 429 430 427T329 420T245 410T166 397Z" />
<glyph unicode="&gt;" horiz-adv-x="700" d="M168 76Q145 76 133 91T121 125Q121 139 130 149T165 166Q222 182 286 205T413 259T524 324L519 281Q495 306 454 329T361 373T250 409T129 435Q107 438 96 447T85 472Q85 495 100 507T134 519Q146 519 158 518T199
512Q259 502 319 484T433 443T527 393T587 341Q598 326 601 315T605 294Q605 284 602 275T582 253Q556 231 513 207T420 160T321 118T232 89Q205 81 192 79T168 76Z" />
<glyph unicode="?" horiz-adv-x="462" d="M258 219Q232 219 209 234T172 273T158 327Q158 341 161 356T175 388T210 426T274 475Q304 495 319 510T340 538T345 566Q345 598 318 615T228 632Q183 632 154 624T106 607T68 598Q49 598 37 610T24 641Q24 654 30 664T48
681Q81 699 132 709T225 720Q298 720 344 700T413 646T436 568Q436 540 427 515T396 465T330 412Q294 388 276 373T253 348T248 325Q248 312 254 303T270 287T286 272T293 250Q293 238 284 229T258 219ZM251 -11Q216 -11 193 8T169 64Q169 91 186 107T227 123Q272
123 291 100T311 46Q311 24 297 7T251 -11Z" />
<glyph unicode="@" horiz-adv-x="863" d="M461 -116Q380 -116 309 -94T182 -27T95 83T63 234Q63 295 85 354T145 464T235 555T347 616T470 639Q541 639 595 617T689 556T752 472T788 377T800 286Q800 222 782 182T734 125T672 107Q645 107 625 117T591 143T567
178Q554 204 543 218T510 243L549 245Q536 229 524 205T497 156T459 116T398 99Q352 99 317 129T282 221Q282 261 301 296T350 359T417 401T489 417Q518 417 532 404T547 371Q547 360 542 352T529 339T507 332Q462 328 431 310T384 267T368 216Q368 205 370 191T385
150L331 205Q356 190 369 186T392 182Q413 182 425 195T451 239Q472 287 491 301T536 316Q559 316 579 304T618 254Q632 227 640 214T655 198T670 195Q686 195 695 209T708 245T712 286Q712 326 699 372T657 458T582 524T470 550Q409 550 352 524T249 452T178 351T151
234Q151 168 176 119T246 37T345 -11T461 -28Q527 -28 566 -20T629 1T666 21T695 30Q712 30 720 21T728 -6Q728 -22 720 -37T693 -64Q671 -78 641 -90T567 -109T461 -116Z" />
<glyph unicode="A" horiz-adv-x="726" d="M618 -9Q596 -9 582 9T550 72Q535 109 521 162T496 274T479 386Q472 451 466 497T453 570T436 611T407 624Q380 624 347 582T280 461T218 274T171 31Q168 12 161 2T138 -8Q115 -8 103 7T90 63Q90 121 101 178T129 294T158
411T174 531Q175 548 182 557T204 567Q218 567 231 559T255 534L218 524Q264 617 309 663T409 710Q467 710 496 676T539 572T565 389Q575 306 589 246T617 144T641 74T651 25Q651 9 643 0T618 -9ZM83 187Q61 187 51 196T40 222Q40 235 48 243T75 259Q183 300 323
319T625 338Q660 338 672 328T685 299Q685 279 666 266T610 252Q495 252 417 246T287 230T199 210T138 194T83 187Z" />
<glyph unicode="B" horiz-adv-x="590" d="M245 -12Q205 -12 174 16T120 92T87 202T75 331Q75 371 77 405T83 472T94 543T111 632Q115 650 123 656T148 663Q161 663 171 653T187 625T189 585Q179 531 174 491T166 414T163 333Q163 278 170 232T190 151T219 96T254
76Q283 76 314 87T371 117T414 156T431 198Q431 213 411 230T356 261T274 284T175 292Q147 291 130 301T112 336Q112 352 128 361T187 380Q222 387 259 399T331 425T394 456T438 489T455 521Q455 545 435 563T379 594T297 614T199 621Q164 621 130 621T80 620Q64
620 54 630T44 654Q44 682 73 697T163 712Q243 712 313 702T435 669T517 611T547 525Q547 495 521 461T433 392T263 329L260 358Q337 350 388 334T468 295T509 248T521 199Q521 156 496 118T429 51T339 5T245 -12Z" />
<glyph unicode="C" horiz-adv-x="613" d="M331 -10Q236 -10 176 30T88 138T59 292Q59 373 85 448T157 583T267 676T404 711Q454 711 484 697T527 656T541 594Q541 574 535 556T517 527T486 516Q471 516 466 524T459 544T458 572Q458 585 454 596T437 615T397 622Q342
622 296 594T217 519T166 413T148 291Q148 187 198 131T333 75Q379 75 408 85T456 111T487 142T509 168T534 178Q551 178 558 168T566 143Q566 123 551 97T507 47T433 6T331 -10Z" />
<glyph unicode="D" horiz-adv-x="660" d="M199 -9Q170 -9 147 11T111 68T97 154Q97 262 103 363T121 569Q124 598 134 610T165 623Q181 623 192 608T203 570Q204 523 199 467T189 340T184 173Q184 131 192 104T223 54L158 70Q237 70 303 100T418 181T495 299T522
440Q522 496 503 537T444 600T337 622Q280 622 240 615T171 597T120 580T75 572Q59 572 48 578T32 594T26 616Q26 627 32 637T52 652Q74 659 106 669T177 688T259 703T344 709Q428 709 488 676T580 583T613 443Q613 368 590 300T527 176T434 79T321 14T199 -9Z"
/>
<glyph unicode="E" horiz-adv-x="626" d="M356 -7Q287 -7 233 15T143 78T87 174T68 293Q68 339 77 387T103 479T140 560Q158 592 179 615T227 638Q241 638 250 634T260 619T251 590Q226 550 205 502T172 401T158 294Q158 230 182 182T250 106T353 79Q405 79 438
85T492 99T525 113T548 119Q565 119 572 110T580 85Q580 63 556 42T482 7T356 -7ZM164 273Q143 268 131 273T113 290T107 314Q107 331 124 344T174 363Q206 369 242 374T316 383T388 390T450 393Q481 393 492 384T504 360Q504 333 481 322T426 308Q391 305 355
302T284 294T219 284T164 273ZM137 594Q109 594 95 606T80 635Q80 646 87 657T112 673Q176 685 251 693T399 705T526 709Q553 709 566 699T579 670Q579 650 567 637T528 623Q441 623 379 619T272 609T195 599T137 594Z" />
<glyph unicode="F" horiz-adv-x="566" d="M211 -11Q191 -11 174 5T135 61Q122 88 112 119T97 192T92 294Q92 336 96 380T108 470T125 556Q135 601 151 620T193 639Q212 639 216 625T219 588Q214 559 207 521T194 440T184 354T181 270Q182 220 188 184T204 124T223
83T238 53T244 27Q244 11 236 0T211 -11ZM191 279Q160 272 144 277T122 292T116 311Q116 326 122 336T140 354T174 365Q212 372 256 377T344 385T430 389Q462 389 474 382T487 356Q487 329 465 317T395 301Q347 298 311 295T246 288T191 279ZM97 589Q78 589 65
595T45 611T38 632Q38 647 45 657T71 671Q121 682 186 691T321 705T449 710Q472 710 489 704T515 685T525 657Q525 641 514 633T474 624Q370 624 294 616T168 598T97 589Z" />
<glyph unicode="G" horiz-adv-x="755" d="M666 -101Q643 -101 628 -87T598 -44Q588 -23 576 15T553 114T540 258L573 252Q530 149 482 92T382 13T278 -10Q230 -10 190 5T120 51T74 128T58 238Q58 311 82 380T150 508T249 613T368 683T496 708Q532 708 554 698T586
669T596 629Q596 599 588 576T564 540T531 527Q517 527 515 536T513 559T515 585T509 607T480 616Q433 616 386 595T297 535T221 449T169 347T150 240Q150 158 186 117T279 76Q329 76 371 102T449 177T517 297Q529 323 545 333T587 343Q605 343 614 331T624 295Q624
231 630 178T649 82T678 2Q686 -17 691 -30T697 -51T699 -69Q699 -84 690 -92T666 -101ZM366 268Q344 268 333 279T321 308Q321 323 334 335T384 356Q453 373 521 383T659 393Q688 393 703 388T724 373T730 349Q730 334 718 321T677 307Q612 307 562 301T474 288T411
274T366 268Z" />
<glyph unicode="H" horiz-adv-x="732" d="M600 -10Q569 -10 552 18T527 113T519 293Q519 368 521 435T525 558T527 657Q527 681 537 692T564 704Q587 704 601 678T616 602Q616 541 615 474T612 344T610 233Q610 202 613 172T620 109T629 39Q633 16 624 3T600 -10ZM169
-12Q147 -12 130 9T113 84Q113 136 113 186T114 289T114 399T115 521T115 662Q115 685 125 697T155 709Q177 709 192 684T207 604Q207 522 206 442T205 288T205 147T204 27Q204 10 194 -1T169 -12ZM124 294Q96 294 80 300T58 317T51 340Q51 351 57 361T83 373Q173
387 258 395T428 406T599 410Q628 410 645 403T671 384T680 362Q680 346 669 337T637 327Q516 327 430 322T286 311T189 299T124 294Z" />
<glyph unicode="I" horiz-adv-x="551" d="M80 596Q57 596 45 607T32 636Q32 650 43 662T80 679Q128 687 192 693T325 702T460 706Q493 706 506 699T519 673Q519 647 491 632T414 617Q349 617 303 615T224 610T168 604T124 598T80 596ZM283 56Q258 56 242 77T226
133Q226 220 230 303T239 462T243 600Q243 624 250 636T276 649Q299 649 315 628T332 575Q332 530 328 458T320 294T315 93Q315 56 283 56ZM97 -11Q63 -11 48 1T32 34Q32 48 40 58T68 70Q105 74 141 76T214 81T290 84T370 85T457 86Q482 86 495 81T513 69T519 50Q519
30 500 15T435 0Q358 0 292 -2T176 -8T97 -11Z" />
<glyph unicode="J" horiz-adv-x="597" d="M282 -12Q218 -12 170 9T95 69T67 163Q67 186 74 208T95 249T124 279T158 291Q172 291 179 285T186 264Q186 251 179 240T163 214T155 179Q155 133 185 104T282 75Q368 75 401 107T435 208Q435 246 427 297T406 405T376
516T342 613Q333 637 337 656T361 676Q393 676 410 663T439 616Q456 572 471 517T499 404T518 292T525 198Q525 90 463 39T282 -12ZM160 612Q144 612 126 616T93 628T68 650T58 681Q58 696 66 704T90 713Q106 713 117 710T142 704T175 700Q225 700 268 703T361
709T480 712Q497 712 513 708T539 694T550 662Q550 626 496 626Q431 626 369 623T254 616T160 612Z" />
<glyph unicode="K" horiz-adv-x="646" d="M583 -11Q548 -11 504 1T412 37T319 90T238 155T181 229T159 305Q159 349 180 396T240 492T329 584T443 667Q474 687 494 697T533 707Q551 707 561 698T571 671Q571 652 555 637T505 602Q439 563 390 523T307 445T258
373T241 314Q241 289 264 257T328 191T428 128T555 80Q599 68 612 57T626 26Q626 9 617 -1T583 -11ZM141 -11Q117 -11 103 8T83 70T77 187Q77 266 83 335T95 460T101 549Q101 582 98 601T92 637T89 671Q89 691 98 700T125 710Q146 710 159 695T179 656T188 604T190
552Q190 509 184 453T172 337T165 219Q165 168 167 138T171 91T175 60T177 26Q177 9 167 -1T141 -11Z" />
<glyph unicode="L" horiz-adv-x="552" d="M287 -9Q216 -9 167 21T94 109T69 251Q69 329 81 396T106 525T119 652Q119 680 125 695T156 710Q174 710 186 701T203 675T209 634Q209 583 202 535T184 439T166 343T158 243Q158 167 188 123T291 78Q341 78 374 85T428
101T465 117T493 125Q508 125 516 115T525 91Q525 75 517 61T493 36Q450 13 398 2T287 -9Z" />
<glyph unicode="M" horiz-adv-x="959" d="M138 -12Q127 -12 118 -7T100 11T88 47T83 108Q83 176 85 225T91 315T94 392Q94 447 89 482T78 541T66 580T61 610Q61 627 70 637T97 647Q117 647 133 628T161 573T178 488L153 487Q172 561 194 610T241 684T292 709Q318
709 337 684T371 611T396 501T417 361Q425 310 434 264T457 176T487 98L452 94Q475 148 496 212T536 342T574 466T611 567Q631 614 649 644T688 690T732 706Q752 706 767 695T796 656T819 577T836 447Q842 376 851 309T876 179T915 60Q925 38 924 23T913 -1T886
-9Q865 -9 848 7T813 65Q800 96 789 138T769 229T754 328T745 425Q742 472 738 504T728 563T710 618L731 609Q701 563 678 501T633 363T586 205T525 36Q514 11 504 1T474 -9Q455 -9 443 0T416 31Q384 83 362 170T326 370Q317 448 306 505T271 609H292Q231 515 205
371T178 33Q177 9 167 -1T138 -12Z" />
<glyph unicode="N" horiz-adv-x="763" d="M120 -10Q101 -10 89 2T77 44Q77 64 82 84T95 136T108 217T114 342Q114 385 112 431T106 520T101 594T98 638Q98 668 112 689T153 710Q191 710 224 685T287 615T342 516T392 403T439 289T485 189T532 116T583 85L544 66Q559
85 567 106T580 158T584 235Q584 294 582 349T578 458T580 560T594 657Q600 684 610 695T640 707Q658 707 669 695T683 665T683 627Q673 579 670 534T668 443T671 348T673 242Q673 169 666 112T636 22T570 -11Q529 -11 498 14T440 82T391 179T346 293T298 411T242
520T172 606L187 610Q194 553 197 506T202 419T204 342Q204 248 195 171T166 31Q162 13 150 2T120 -10Z" />
<glyph unicode="O" horiz-adv-x="720" d="M344 -10Q276 -10 224 13T135 78T79 174T59 290Q59 357 77 411T123 508T181 580T237 624T274 640Q284 640 292 637T309 621Q324 599 314 582T282 551Q252 531 222 496T171 410T150 290Q150 233 171 184T236 106T344 76Q409
76 460 104T540 182T570 300Q570 357 557 414T516 519T451 595T361 624Q338 624 329 608T320 566Q320 545 310 534T284 522Q271 522 260 529T241 550T233 585Q233 619 246 647T287 693T351 711Q425 711 482 679T580 589T640 458T661 300Q661 235 639 179T574 81T473
14T344 -10Z" />
<glyph unicode="P" horiz-adv-x="581" d="M171 -10Q151 -10 137 8T123 65Q123 130 114 183T94 283T73 374T63 466Q63 538 88 592T166 677T303 708Q352 708 394 693T469 649T520 577T539 480Q539 432 518 387T460 307T373 252T262 231Q225 231 196 241T150 268T133
303Q133 318 141 326T161 334Q175 334 186 330T213 321T258 316Q315 316 358 339T425 400T450 480Q450 528 430 559T375 605T303 621Q227 621 190 581T152 466Q152 421 161 377T182 283T203 175T212 39Q212 17 203 4T171 -10Z" />
<glyph unicode="Q" horiz-adv-x="722" d="M363 -9Q280 -9 222 17T129 88T77 192T61 313Q61 378 74 431T109 526T154 596T201 639T240 654Q254 654 263 649T278 635T284 616Q284 601 273 592T237 562Q209 538 190 497T160 408T149 313Q149 252 170 199T238 112T363
78Q411 78 449 97T514 151T556 227T570 315Q570 373 558 427T523 525T465 594T387 620Q348 620 308 590T240 506Q228 483 216 474T186 465Q177 465 171 469T162 480T159 499Q159 532 179 569T235 637T313 689T402 709Q454 709 500 681T582 600T638 479T659 327Q659
259 639 199T581 92T488 18T363 -9ZM614 -110Q597 -110 582 -103T543 -71Q517 -42 492 1T443 91T397 181T354 254Q339 276 338 293T345 322T373 333Q396 333 410 320T448 271Q458 255 475 222T514 146T565 58T630 -29Q649 -50 651 -69T643 -99T614 -110Z" />
<glyph unicode="R" horiz-adv-x="687" d="M118 -13Q90 -13 76 19T62 110Q62 162 74 228T113 379Q111 412 107 440T94 501T70 574Q57 607 63 624T97 641Q129 641 152 603T185 474L160 468Q198 552 246 605T352 684T471 710Q514 710 546 697T598 662T627 609T637
544Q637 505 621 465T567 385T462 306T296 232Q344 192 422 150T597 77Q634 66 646 55T658 31Q658 10 644 -1T600 -12Q577 -12 536 1T447 36T350 86T261 146T196 208Q185 224 184 240T193 269T224 289Q316 320 378 353T477 419T530 483T546 542Q546 576 527 600T461
624Q419 624 380 604T307 547T244 459T196 346T164 213T152 67Q152 34 149 17T139 -7T118 -13Z" />
<glyph unicode="S" horiz-adv-x="555" d="M180 -9Q112 -9 79 11T45 61Q45 76 52 84T77 92Q89 92 97 90T115 86T138 81T171 79Q231 79 278 85T358 103T413 131Q408 159 381 180T313 218T229 253T147 294T85 348T61 423Q61 474 89 518T164 598T263 658T367 696T455
710Q474 710 485 704T502 688T508 665Q508 648 498 637T461 621Q363 602 294 571T188 502T152 425Q152 398 177 378T243 340T329 303T414 261T480 207T506 135Q506 99 480 72T409 27T305 0T180 -9Z" />
<glyph unicode="T" horiz-adv-x="617" d="M324 -13Q303 -13 286 8T260 88Q255 120 252 166T247 274T249 418T262 606Q264 629 273 642T299 656Q330 656 340 630T347 538Q340 428 339 349T341 214T348 123T356 64T360 27Q360 6 350 -3T324 -13ZM468 614Q413 614
368 614T282 615T202 617T114 620Q75 621 54 629T26 648T18 674Q18 688 28 697T61 707Q119 707 164 706T248 704T328 701T415 700Q459 700 483 703T524 708T561 711Q581 711 590 702T599 678Q599 656 580 642T531 621T468 614Z" />
<glyph unicode="U" horiz-adv-x="668" d="M352 -13Q256 -13 196 30T107 153T79 338Q79 379 81 420T84 488Q84 534 81 562T74 607T66 638T62 670Q62 693 72 703T103 713Q121 713 138 695T165 636T176 523Q176 496 175 465T171 400T169 338Q169 239 191 182T254
100T345 75Q428 75 465 130T502 305Q502 365 501 412T497 504T495 607Q495 656 512 684T560 712Q578 712 587 704T597 675Q597 657 595 638T589 591T586 513Q586 460 589 408T592 298Q592 206 567 136T488 27T352 -13Z" />
<glyph unicode="V" horiz-adv-x="675" d="M347 -11Q332 -11 320 -6T294 15T261 64Q229 117 208 175T171 293T143 407T116 505T84 578Q62 613 52 632T41 671Q41 687 50 697T77 707Q99 707 117 691T157 636Q181 594 198 543T228 434T257 319T293 206T345 103L315
86Q357 247 413 384T548 644Q567 674 579 687T600 705T619 709Q636 709 644 698T653 672Q653 658 650 645T640 618T624 588Q580 514 547 451T487 327T438 200T394 53Q384 14 373 2T347 -11Z" />
<glyph unicode="W" horiz-adv-x="959" d="M716 -12Q700 -12 685 -7T654 13T618 60Q599 89 587 130T565 221T548 322T531 420T508 506T474 569L502 563Q466 526 439 468T392 340T357 194T330 45Q326 20 311 6T273 -8Q261 -8 249 -3T224 16T197 56Q178 95 160 149T124
268T93 399T69 533T55 657Q54 679 63 695T97 712Q126 712 137 691T151 629Q154 581 164 517T191 383T229 242T275 108L256 107Q272 210 292 301T340 464T399 583Q420 613 444 633T497 653Q530 653 554 621T602 507Q615 462 622 408T638 296T662 187T707 99L687
95Q706 136 719 192T743 311T764 438T786 559T815 658Q829 691 841 701T874 712Q888 712 896 705T908 684T909 652T898 609Q882 566 870 509T848 389T827 263T803 143T771 42Q758 11 745 0T716 -12Z" />
<glyph unicode="X" horiz-adv-x="644" d="M71 -11Q58 -11 49 -4T37 18T37 53T57 97Q81 137 115 186T189 290T273 400T359 508T442 603T515 678Q535 697 545 703T565 709Q577 709 586 700T599 676T596 642T568 602Q533 568 491 523T402 422T309 303T215 172T125
33Q109 6 97 -2T71 -11ZM553 -7Q540 -7 526 4T491 51Q466 98 423 151T328 260T228 372T139 481T82 582Q64 630 62 658T69 698T99 710Q118 710 131 699T153 660Q174 600 215 539T306 418T408 302T501 198T564 111Q589 69 590 43T581 5T553 -7Z" />
<glyph unicode="Y" horiz-adv-x="604" d="M220 -14Q203 -14 193 -4T180 27T185 82Q199 152 226 231T294 390T384 545T494 681Q514 701 527 707T552 713Q562 713 569 708T582 694T587 671Q587 658 584 648T572 627T544 596Q493 543 450 480T372 347T312 202T271
49Q264 11 253 -1T220 -14ZM281 296Q267 296 256 304T237 325Q204 380 178 417T131 483T89 539T48 602Q32 630 26 643T20 673Q20 690 30 701T56 712Q72 712 84 704T107 675Q130 634 149 605T187 551T225 501T264 443T308 365Q313 356 314 344T313 321T303 303T281
296Z" />
<glyph unicode="Z" horiz-adv-x="607" d="M167 -8Q121 -8 94 3T54 35T42 85Q42 111 52 140T89 204T161 285T278 386Q335 431 370 465T426 527T451 577T453 622L470 592Q459 601 445 607T409 617T351 621Q293 621 249 616T173 606T116 601Q101 601 88 606T67 621T59
647Q59 662 70 673T106 688Q171 698 234 704T361 710Q424 710 464 697T524 659T544 597Q544 566 535 538T503 480T438 409T326 313Q263 260 224 223T165 158T139 106T136 57L109 109Q122 95 138 88T181 80Q233 80 287 84T401 89Q464 89 503 83T560 64T579 28Q579
11 566 2T528 -7Q506 -7 488 -5T447 -2T384 0Q325 0 270 -4T167 -8Z" />
<glyph unicode="[" horiz-adv-x="464" d="M165 -265Q151 -265 142 -259T126 -242Q106 -205 96 -156T82 -52T78 58T82 161T86 243Q88 277 88 327T86 437T84 556T85 670T94 766Q96 783 111 793T143 804Q171 804 210 807T291 814T368 817Q399 817 417 809T436 779Q436
766 430 754T412 733T386 725Q377 725 369 726T351 727Q319 727 278 723T199 716T135 713L184 751Q178 711 176 658T174 546T176 428T178 321T177 238Q176 200 173 146T169 29T178 -91T205 -195L152 -178Q183 -169 225 -170T311 -171Q336 -171 360 -169T398 -166Q415
-166 424 -176T433 -201Q433 -231 408 -245T336 -259Q311 -259 286 -258T238 -257Q215 -258 198 -261T165 -265Z" />
<glyph unicode="\" horiz-adv-x="355" d="M324 -217Q310 -217 297 -207T275 -178Q226 -72 183 38T106 262T47 492T11 726Q3 811 55 811Q75 811 90 794T109 741Q124 571 160 422T249 135T365 -138Q377 -163 373 -180T356 -207T324 -217Z" />
<glyph unicode="]" horiz-adv-x="465" d="M95 -265Q78 -265 63 -259T38 -239T28 -210Q28 -195 37 -185T67 -174Q89 -174 122 -171T191 -163T261 -152T315 -137L285 -173Q301 -78 296 31T279 259T260 506T261 765L311 713Q279 710 242 713T166 720T89 724Q72 724
58 732T36 753T28 784Q28 798 37 807T68 816Q107 815 154 810T246 804Q261 804 276 806T305 809Q327 809 340 795T352 759Q343 625 350 497T370 248T386 18T375 -189Q374 -201 366 -210T345 -225Q324 -232 291 -239T221 -252T151 -261T95 -265Z" />
<glyph unicode="^" horiz-adv-x="610" d="M506 442Q484 442 464 451T422 481T369 539T293 634H322Q261 569 225 531T168 475T135 451T112 445Q99 445 88 451T70 466T63 484Q63 493 67 503T84 529T126 571T202 638Q233 664 249 680T278 702T312 709Q335 709 351
700T390 658Q430 605 459 575T508 529T538 503T548 477Q548 463 537 453T506 442Z" />
<glyph unicode="_" horiz-adv-x="700" d="M136 -175Q109 -175 90 -169T62 -152T52 -131Q52 -121 58 -111T85 -99Q206 -89 319 -86T548 -83Q585 -83 606 -91T637 -111T647 -131Q647 -147 634 -156T597 -165Q487 -165 410 -166T281 -170T195 -173T136 -175Z" />
<glyph unicode="`" horiz-adv-x="358" d="M280 477Q267 477 252 482T219 498Q189 519 156 552T94 625T43 705Q24 745 25 767T42 799T78 809Q104 809 123 793T158 739Q178 694 200 664T245 611T290 566Q318 538 322 518T314 488T280 477Z" />
<glyph unicode="a" horiz-adv-x="622" d="M202 -10Q157 -10 124 11T72 70T54 159Q54 207 69 256T111 349T175 427T258 480T354 500Q377 500 392 488T407 452Q407 440 400 432T377 421Q307 412 255 372T173 275T144 156Q144 127 149 104T171 43L119 112Q142 89
157 82T200 75Q264 75 314 151T388 372Q392 391 402 401T429 412Q453 412 470 394T491 345Q500 287 510 242T541 156T595 70Q604 60 605 47T602 22T588 1T565 -7Q551 -7 542 -1T525 14Q506 41 489 67T458 128T434 210T420 323L453 324Q439 232 413 168T352 65T279
8T202 -10Z" />
<glyph unicode="b" horiz-adv-x="589" d="M188 -10Q167 -10 146 -7T107 4T79 24T68 54Q68 71 78 79T104 88Q118 88 137 83T176 77Q229 77 277 91T363 132T422 202T444 298Q444 328 437 354T412 396T359 412Q311 412 275 372T214 259T171 94Q167 76 159 69T140
61Q126 61 115 78T99 126Q89 180 83 234T73 336T70 416Q70 474 72 516T78 592T83 653T86 712Q85 731 93 745T120 759Q135 759 147 751T166 725T174 683Q174 654 172 627T166 570T161 501T158 406Q158 367 160 321T167 218L146 251Q163 339 198 394T276 474T360
500Q410 500 449 478T510 410T533 289Q533 219 505 164T427 70T316 11T188 -10Z" />
<glyph unicode="c" horiz-adv-x="504" d="M282 -9Q211 -9 160 19T82 99T54 220Q54 279 77 330T142 419T237 479T351 501Q371 501 388 496T416 477T427 440Q427 422 419 410T393 398Q382 398 376 401T362 408T337 412Q282 412 239 386T170 315T144 212Q144 171
160 141T208 94T282 77Q326 77 349 86T385 108T406 130T429 140Q443 140 451 131T459 106Q459 72 436 47T372 6T282 -9Z" />
<glyph unicode="d" horiz-adv-x="634" d="M271 -9Q224 -9 185 14T117 77T72 169T56 279Q56 346 83 396T161 474T276 501Q326 501 362 488T417 450T437 395Q437 382 430 375T414 367Q401 367 392 374T372 390T340 407T286 414Q218 414 182 378T146 279Q146 224
163 178T208 105T266 78Q319 78 359 150T424 362T448 701Q448 734 459 747T489 760Q513 760 526 737T538 668Q537 594 533 537T524 425T519 305Q519 241 527 199T548 131T572 89T592 60T601 31Q601 21 596 11T581 -4T555 -10Q532 -10 510 14T471 80T446 175T439
288L485 301Q465 189 432 121T357 22T271 -9Z" />
<glyph unicode="e" horiz-adv-x="566" d="M272 -10Q215 -10 175 6T108 52T69 122T56 210Q56 261 74 312T128 406T212 475T322 501Q369 501 404 484T458 434T478 349Q478 308 459 277T407 225T328 192T231 180Q171 180 147 196T123 233Q123 245 129 250T149 256Q160
256 176 253T224 249Q274 249 311 261T371 297T393 350Q393 384 376 401T320 418Q281 418 249 400T193 351T156 281T143 198Q143 162 155 134T194 88T267 70Q321 70 357 83T418 112T458 141T489 154Q503 154 508 146T513 120Q513 100 494 78T440 35T363 3T272 -10Z"
/>
<glyph unicode="f" horiz-adv-x="363" d="M141 -12Q116 -12 102 7T87 62Q87 112 85 151T80 224T74 289T69 356T67 436Q67 514 88 573T145 675T228 738T327 760Q344 760 360 751T377 721Q377 707 368 697T340 681Q281 668 245 643T189 582T164 500T157 395Q157
360 160 324T167 247T174 156T177 44Q177 11 169 0T141 -12ZM136 399Q122 399 112 406T102 427Q102 445 112 461T146 482Q180 490 214 494T284 498Q302 498 314 492T333 475T339 451Q339 438 330 430T300 420Q259 420 232 416T188 409T159 402T136 399Z" />
<glyph unicode="g" horiz-adv-x="614" d="M381 -260Q307 -260 255 -243T173 -198T128 -139T114 -80Q114 -54 128 -36T163 -18Q180 -18 187 -26T194 -51Q194 -88 217 -116T280 -159T373 -175Q433 -175 455 -141T477 -42Q477 13 470 58T453 143T433 222T419 305L457
295Q448 239 428 199T379 132T313 94T236 81Q180 81 138 102T74 163T51 262Q51 310 70 353T122 429T198 482T286 501Q337 501 366 486T409 446T422 397Q422 383 414 370T395 357Q381 357 374 366T359 386T338 407T300 416Q268 416 239 403T188 368T153 318T140
261Q140 215 163 191T236 166Q283 166 321 191T382 273T405 420Q405 443 412 453T441 464Q461 464 473 453T493 425T501 389Q506 327 516 278T538 181T557 78T565 -52Q565 -149 517 -204T381 -260Z" />
<glyph unicode="h" horiz-adv-x="625" d="M129 -9Q112 -9 99 3T77 40T69 103Q69 208 81 291T107 442T128 568Q131 598 131 624T130 673T131 717Q133 734 142 747T171 760Q193 760 205 743T221 689T219 587Q212 524 198 451T172 297T162 128L140 145Q190 277 232
355T315 467T395 502Q439 502 462 474T497 394T515 268Q522 204 528 166T543 105T560 65Q565 57 568 48T571 29Q571 12 560 1T530 -10Q505 -10 485 18T452 94T434 197Q429 260 423 300T410 365T390 410Q369 408 334 362T258 232T180 31Q172 7 160 -1T129 -9Z" />
<glyph unicode="i" horiz-adv-x="284" d="M142 -11Q125 -11 114 -3T98 22T92 62Q92 140 92 195T92 290T91 366T91 440Q91 458 96 471T112 492T140 500Q162 500 176 485T192 439Q192 417 191 377T189 287T186 189T184 98T183 33Q183 14 173 2T142 -11ZM151 585Q114
585 89 607T64 660Q64 687 83 704T133 722Q158 722 176 710T204 680T213 641Q213 622 199 604T151 585Z" />
<glyph unicode="j" horiz-adv-x="266" d="M65 -260Q31 -260 7 -250T-30 -224T-43 -190Q-43 -173 -34 -164T-9 -155Q0 -155 7 -157T21 -164T36 -171T55 -174Q84 -174 100 -146T116 -63Q116 52 109 135T92 277T75 376T67 446Q67 475 80 488T110 502Q128 502 140
491T159 444Q174 354 184 274T199 113T204 -56Q204 -157 166 -208T65 -260ZM126 585Q89 585 64 607T39 660Q39 687 58 704T108 722Q133 722 151 710T179 680T188 641Q188 622 174 604T126 585Z" />
<glyph unicode="k" horiz-adv-x="574" d="M486 -7Q455 -7 415 7T332 45T255 100T198 163T176 229Q176 262 198 299T254 372T329 437T406 484T467 501Q489 501 501 492T514 463Q514 444 502 432T464 410Q427 396 393 373T330 324T285 274T268 235Q268 219 288 192T352
136T462 87Q502 75 514 61T527 30Q527 13 517 3T486 -7ZM131 -10Q116 -10 102 1T80 40T71 121Q71 161 78 227T97 375T118 540Q124 588 126 616T130 662T131 692T134 721Q135 739 146 749T175 759Q195 759 205 741T216 676T207 544Q198 478 191 429T177 342T168
274T162 212T160 145Q160 111 162 86T165 33Q165 11 156 1T131 -10Z" />
<glyph unicode="l" horiz-adv-x="301" d="M209 -11Q186 -11 165 -5T126 21T95 76T75 171T67 317Q67 401 70 465T80 584T96 692Q103 730 113 745T140 760Q160 760 172 743T184 686Q184 658 180 625T171 548T161 444T157 297Q157 232 161 189T173 120T192 85T214
74Q228 74 236 77T249 82T262 85Q280 85 286 75T292 51Q292 33 280 19T249 -3T209 -11Z" />
<glyph unicode="m" horiz-adv-x="862" d="M127 -9Q107 -9 96 9T80 57T75 120Q75 153 77 188T81 259T84 327Q84 354 80 377T75 424Q75 436 84 445T111 455Q131 455 142 441T158 402T164 340L148 322Q164 385 183 424T228 481T281 500Q317 500 341 470T382 385T409
254Q419 189 427 156T445 104L417 109Q444 225 479 313T556 450T640 500Q702 500 729 441T769 258Q775 191 784 153T801 94T814 60T819 27Q819 8 807 0T775 -9Q754 -9 737 13T709 83T687 207Q680 269 675 306T663 366T648 401T628 426L650 429Q606 388 577 331T525
199T479 36Q473 14 460 3T429 -9Q403 -9 385 15T355 83T335 189Q328 239 321 277T306 343T287 392T260 428L287 421Q257 396 236 354T201 258T179 149T166 39Q164 12 153 2T127 -9Z" />
<glyph unicode="n" horiz-adv-x="612" d="M530 -9Q500 -9 477 18T442 108T429 272Q429 320 427 349T421 395T408 422T388 443Q408 444 422 439T444 419T452 380Q438 401 429 408T405 415Q385 415 359 390T305 318T251 209T205 69Q195 25 182 8T147 -9Q110 -9 91
36T72 151Q72 202 76 240T86 311T96 379T101 459Q101 478 110 488T137 499Q160 499 172 483T185 428Q185 395 180 364T168 297T158 214T157 102L139 107Q173 236 217 324T311 457T409 502Q444 502 467 483T503 430T515 348Q515 270 516 214T526 122T557 67Q567
59 571 50T575 27Q575 14 565 3T530 -9Z" />
<glyph unicode="o" horiz-adv-x="606" d="M318 -12Q242 -12 183 20T90 110T56 242Q56 298 76 343T128 422T190 472T244 490Q255 490 262 487T275 478T280 460Q280 440 272 424T237 394Q205 375 185 353T155 304T145 246Q145 165 191 117T315 68Q381 68 421 118T461
253Q461 330 427 373T332 417Q300 417 281 405T242 373Q226 358 219 346T203 328T182 321Q168 321 160 329T151 359Q151 382 165 406T204 451T259 485T322 498Q393 498 444 468T522 382T550 250Q550 176 520 117T437 23T318 -12Z" />
<glyph unicode="p" horiz-adv-x="562" d="M304 -10Q255 -10 217 4T157 39T134 86Q134 98 140 107T160 116Q170 116 179 110T201 97T235 83T294 77Q350 77 385 105T420 203Q420 251 403 289T356 356T286 399T202 414Q179 414 157 409T119 404Q107 404 98 409T83
425T78 445Q78 472 106 486T198 501Q264 501 320 480T419 419T486 321T510 193Q510 147 495 110T453 45T387 4T304 -10ZM122 -261Q110 -261 100 -257T85 -242T80 -217Q80 -202 84 -189T95 -158T105 -112T110 -40Q110 15 102 69T83 179T64 291T54 406Q54 423 58
434T70 450T91 456Q107 456 119 446T139 418T147 379Q147 319 155 266T174 161T193 59T201 -46Q201 -95 196 -135T182 -203T157 -246T122 -261Z" />
<glyph unicode="q" horiz-adv-x="583" d="M471 -260Q459 -260 449 -253T433 -234T426 -205Q426 -152 425 -115T423 -48T420 10T419 72T421 154L443 135Q419 89 384 57T307 7T221 -10Q164 -10 126 13T68 78T49 176Q49 235 72 292T136 397T225 472T325 501Q370 501
404 482T457 433T476 376Q476 361 465 350T438 339Q428 339 419 345T403 363Q385 390 370 402T325 414Q293 414 260 392T199 334T155 255T138 167Q138 122 159 99T221 76Q272 76 315 107T392 197T442 335Q445 351 454 359T480 368Q501 368 512 353T524 316Q524
287 519 263T506 213Q504 152 504 108T506 24T510 -59T512 -162L495 -158Q534 -132 556 -116T592 -92T620 -84Q634 -84 643 -94T652 -120Q652 -135 645 -149T619 -179Q596 -197 575 -212T536 -238T501 -254T471 -260Z" />
<glyph unicode="r" horiz-adv-x="474" d="M157 -12Q142 -12 131 -3T114 23T108 61Q108 126 106 189T99 305T83 392Q77 415 75 428T72 454Q72 472 81 483T111 495Q129 495 143 479T168 422T182 309T184 127L152 156Q159 253 183 319T242 426T316 484T393 502Q418
502 427 490T437 461Q437 447 428 435T397 416Q345 404 311 374T256 298T223 194T206 68Q204 36 199 19T183 -5T157 -12Z" />
<glyph unicode="s" horiz-adv-x="495" d="M179 -10Q135 -10 105 1T61 29T46 64Q46 79 55 89T81 99Q91 99 97 95T112 86T136 78T177 74Q241 74 289 89T356 143Q349 165 326 178T269 200T201 220T135 245T86 283T66 344Q66 379 88 408T146 459T227 492T316 503Q343
503 361 494T388 473T398 447Q398 432 390 423T364 414Q358 414 352 415T338 416T317 417Q257 417 213 399T146 343Q151 323 174 310T231 288T301 269T368 244T420 205T440 144Q440 104 419 75T362 27T278 -1T179 -10Z" />
<glyph unicode="t" horiz-adv-x="437" d="M279 -13Q202 -13 156 24T90 128T69 284Q69 338 74 381T87 463T98 541Q103 588 104 617T108 672Q110 686 118 697T145 708Q177 708 187 671T189 557Q184 517 179 486T169 426T161 364T157 288Q157 208 171 161T213 94T282
74Q307 74 320 79T342 88T364 93Q378 93 386 84T394 60Q394 32 365 10T279 -13ZM158 375Q132 363 118 373T103 402Q103 423 113 439T165 470Q189 479 217 486T275 497T330 501Q350 501 362 496T382 480T389 455Q389 438 379 430T349 420Q307 417 275 411T215 396T158
375Z" />
<glyph unicode="u" horiz-adv-x="578" d="M300 -10Q238 -10 193 16T118 87T75 186T61 294Q61 342 68 383T90 462Q96 477 105 484T130 492Q149 492 160 480T172 446Q172 430 169 417T161 387T153 349T149 293Q149 244 159 204T189 135T237 90T298 74Q339 74 368
104T412 195T427 344Q427 372 426 390T423 423T421 454Q421 474 428 484T453 495Q473 495 486 482T507 438T515 350Q515 229 489 149T414 30T300 -10Z" />
<glyph unicode="v" horiz-adv-x="555" d="M276 -10Q259 -10 246 1T215 35Q200 59 183 99T149 188T115 279Q94 334 79 365T53 414T37 442T32 469Q32 482 41 492T70 502Q98 502 116 484T148 437T175 375Q193 330 210 279T247 179T290 92L256 91Q283 147 302 199T341
300T382 392T438 475Q450 488 459 494T485 500Q496 500 505 494T520 479T526 458Q526 446 522 436T511 417Q474 371 451 328T409 239T372 142T324 28Q314 7 304 -1T276 -10Z" />
<glyph unicode="w" horiz-adv-x="869" d="M229 -15Q200 -15 178 13T138 114Q125 166 114 223T86 334T44 429Q29 453 29 468T39 493T67 502Q87 502 104 490T142 435Q163 395 175 347T196 249T217 154T247 75L218 72Q234 96 246 132T270 212T294 297T320 375Q345
440 366 469T418 499Q445 499 466 482T506 430T548 338Q560 306 571 270T596 198T624 132T659 82L638 77Q656 110 665 151T681 236T693 324T712 405Q722 433 735 454T766 488T804 501Q814 501 822 497T836 484T841 464Q841 448 834 434T814 407Q800 392 791 364T775
300T763 228T751 159Q738 88 725 51T696 1T658 -13Q631 -13 611 4T560 69Q538 108 520 156T486 253T454 342T416 406L435 411Q416 387 401 349T373 262T344 162T309 61Q298 32 287 16T262 -8T229 -15Z" />
<glyph unicode="x" horiz-adv-x="521" d="M72 -14Q60 -14 51 -8T40 11T42 45Q46 67 63 102T108 179T172 266T252 357T346 440Q378 467 399 480T434 498T460 503Q475 503 484 493T494 464Q494 449 486 437T459 414Q387 371 325 308T211 172T119 22Q108 3 96 -5T72
-14ZM446 -12Q431 -12 418 -3T388 32Q357 78 319 129T239 230T157 322T82 395Q57 415 44 431T31 467Q31 476 34 484T45 497T64 502Q84 502 100 492T145 455Q166 436 195 405T258 335T325 257T386 181T434 119Q463 77 472 56T481 20Q481 5 472 -3T446 -12Z" />
<glyph unicode="y" horiz-adv-x="575" d="M292 -261Q232 -261 189 -251T124 -221T101 -175Q101 -159 110 -150T138 -140Q151 -140 161 -145T186 -156T225 -167T289 -172Q338 -172 365 -152T404 -93T416 -5Q416 24 414 52T408 112T402 186T398 287L432 258Q414
189 391 146T341 79T289 47T242 38Q186 38 146 70T84 169T62 343Q62 410 69 444T88 490T116 502Q132 502 142 495T156 470T158 424Q155 361 156 306T167 211T193 148T237 125Q279 125 310 168T362 286T393 454Q396 482 403 491T429 501Q440 501 450 496T468 480T479
449T480 400Q475 349 476 311T481 240T490 172T499 95T503 -5Q503 -72 488 -120T444 -200T377 -246T292 -261Z" />
<glyph unicode="z" horiz-adv-x="607" d="M215 -10Q158 -10 126 5T81 44T68 92Q68 116 79 134T115 162Q219 205 290 247T397 331T433 413L455 365Q441 384 424 394T382 410T325 415Q270 415 229 407T159 391T110 383Q102 383 93 390T79 409T73 434Q73 449 79 457T103
470Q151 484 208 493T317 502Q374 502 412 492T473 466T505 429T515 387Q515 358 496 324T434 251T318 172T139 89L157 111Q166 89 182 83T229 76Q265 76 303 79T382 85T461 89Q499 89 521 74T544 36Q544 21 534 11T502 0Q464 0 414 -2T313 -7T215 -10Z" />
<glyph unicode="{" horiz-adv-x="520" d="M464 -264Q437 -264 400 -250T327 -209T268 -148T244 -71Q244 -36 253 -15T272 27T282 77Q282 107 259 128T191 164T83 188Q64 190 54 204T44 240Q44 252 51 261T75 276Q123 290 163 311T227 356T251 405Q251 429 246
451T233 496T221 541T215 591Q215 630 233 664T280 724T341 769T404 798T455 808Q481 808 496 792T512 753Q512 738 501 730T467 716Q418 706 382 687T326 641T306 585Q306 562 311 542T324 499T337 453T343 397Q343 365 321 332T259 271T161 223V258Q224 247 265
228T329 186T363 135T374 79Q374 47 365 26T346 -16T336 -67Q336 -88 355 -109T409 -148T486 -177Q507 -183 516 -192T525 -216Q525 -236 508 -250T464 -264Z" />
<glyph unicode="|" horiz-adv-x="288" d="M162 -161Q146 -161 134 -149T118 -113Q106 -28 102 41T98 177T97 316Q97 390 99 454T103 573T108 677T109 769Q109 787 117 800T144 813Q166 813 181 795T197 738Q197 684 194 622T188 483T185 309Q185 220 186 160T191
59T196 -9T200 -58T202 -108Q202 -137 190 -149T162 -161Z" />
<glyph unicode="}" horiz-adv-x="521" d="M112 -262Q90 -262 73 -255T47 -235T38 -206Q38 -189 48 -180T78 -171Q110 -171 141 -165T197 -146T238 -114T254 -68Q254 -44 246 -23T228 18T209 63T200 117Q200 154 225 189T295 253T404 301L408 264Q326 277 279 304T211
366T191 433Q191 472 202 498T224 547T235 600Q235 631 217 655T162 697T73 724Q48 729 34 741T20 776Q20 793 31 803T65 813Q114 813 161 797T245 753T304 687T327 606Q327 569 316 544T294 495T283 442Q283 413 306 392T374 356T482 331Q501 328 508 314T516
284Q516 272 511 260T490 243Q437 229 392 210T320 167T292 111Q292 88 300 69T318 29T337 -18T346 -80Q346 -121 326 -155T272 -213T197 -249T112 -262Z" />
<glyph unicode="~" horiz-adv-x="700" d="M478 122Q438 122 409 140T357 185T314 239T271 284T221 303Q197 303 186 290T169 257T160 219T147 186T119 172Q105 172 95 180T78 203T72 236Q72 278 86 314T131 374T215 398Q254 398 282 385T332 351T372 308T406 264T439
230T477 216Q504 216 518 230T537 266T547 307T559 342T587 357Q605 357 616 345T628 302Q628 218 589 170T478 122Z" />
<glyph unicode="&#xa0;" horiz-adv-x="341" />
<glyph unicode="&#xa1;" horiz-adv-x="274" d="M145 -260Q124 -260 109 -242T93 -189Q93 -164 95 -141T98 -93T102 -34T104 45Q104 81 103 105T99 147T96 181T95 216Q95 245 107 257T133 269Q149 269 160 258T176 227Q185 172 188 129T192 39Q192 -22 189 -65T184
-143T181 -215Q181 -233 173 -246T145 -260ZM150 369Q106 369 86 393T66 448Q66 469 79 486T123 503Q160 503 184 484T208 428Q208 401 191 385T150 369Z" />
<glyph unicode="&#xa2;" horiz-adv-x="565" d="M282 -9Q211 -9 159 18T79 95T50 212Q50 273 73 325T138 416T233 478T347 501Q388 501 419 490T468 459T486 410Q486 393 477 380T450 366Q435 366 429 373T414 390T388 407T336 415Q293 415 257 398T194 350T152
283T137 204Q137 165 154 136T203 91T280 75Q324 75 351 83T395 102T421 124T439 143T460 151Q488 151 488 116Q488 81 461 53T388 8T282 -9ZM172 -156Q149 -156 139 -141T134 -95Q152 -6 177 81T235 254H322Q286 165 261 76T217 -108Q213 -132 201 -144T172 -156ZM235
254Q268 341 309 424T397 587Q427 636 455 636Q468 636 478 625T488 596T474 553Q426 476 389 402T322 254H235Z" />
<glyph unicode="&#xa3;" horiz-adv-x="700" d="M459 -15Q418 -15 383 -1T317 33T259 74T206 109T155 123Q134 123 125 117T115 100Q115 91 126 83T153 74Q181 74 206 96T248 153T264 224Q264 268 247 304T204 371T153 431T110 491T92 558Q92 599 114 633T183 687T304
708Q358 708 396 698T457 669T491 629T502 584Q502 544 485 518T438 491Q419 491 409 501T399 525Q399 538 405 547T412 575Q412 596 381 608T304 620Q272 620 245 615T202 595T185 556Q185 534 202 510T244 459T293 397T335 319T353 222Q353 179 337 139T292 65T227
13T154 -7Q117 -7 89 8T46 50T30 103Q30 141 61 170T151 200Q187 200 219 187T281 156T340 120T398 88T459 75Q491 75 510 84T543 106T568 128T595 138Q611 138 621 124T632 91Q632 69 611 44T551 2T459 -15ZM152 267Q133 267 117 280T100 317Q100 331 110 339T141
352Q174 358 220 363T316 373T414 380T501 383Q555 383 575 373T596 345Q596 325 578 310T531 295Q518 295 503 296T457 297Q414 297 367 292T276 282T200 272T152 267Z" />
<glyph unicode="&#xa4;" horiz-adv-x="700" d="M343 143Q290 143 249 160T185 214T160 308Q160 357 176 394T218 459T268 499T311 513Q332 513 341 505T351 476Q351 467 346 458T328 439Q292 417 272 385T251 311Q251 274 273 251T342 228Q378 228 409 246T461
301T480 389Q480 427 462 452T398 477Q358 477 337 468T303 448T279 428T247 419Q230 419 218 428T206 453Q206 474 230 499T298 544T400 563Q459 563 497 543T554 484T572 392Q573 309 540 254T454 171T343 143ZM156 52Q145 52 137 58T125 77T127 110Q133 136
157 178T220 268L279 208Q258 179 239 149T203 88Q192 69 180 61T156 52ZM571 57Q558 57 545 65T515 101Q496 129 474 158T428 216L487 280Q509 254 528 231T560 188Q590 146 599 125T608 90Q608 57 571 57ZM247 434Q226 456 206 475T168 510Q144 530 131 546T117
582Q117 596 125 606T150 617Q170 617 186 607T232 570Q247 556 267 536T311 491L247 434ZM504 451L447 510Q457 520 467 528T489 545Q521 571 542 584T577 602T602 607Q618 607 626 597T635 569Q635 554 628 543T602 520Q577 505 552 488T504 451Z" />
<glyph unicode="&#xa5;" horiz-adv-x="700" d="M364 -15Q338 -15 316 13T281 98T267 236Q267 292 281 349T330 463T422 579T568 693Q583 703 591 706T609 709Q628 709 639 696T651 664Q651 652 646 641T629 624Q529 559 470 494T384 365T358 236Q358 176 365 141T380
86T396 54T403 26Q403 7 392 -4T364 -15ZM136 86Q112 86 98 100T84 133Q84 147 94 157T127 169Q196 177 255 187T369 205T479 213Q536 213 565 208T604 193T615 168Q615 145 599 135T563 125Q543 125 525 127T470 129Q432 129 386 123T293 108T204 93T136 86ZM106
240Q84 240 70 253T55 287Q55 300 64 309T94 324Q149 340 213 352T346 371T480 378Q528 378 564 372T621 354T642 323Q642 309 631 296T598 282Q585 282 573 284T545 288T504 293T439 295Q377 295 323 287T226 268T153 249T106 240ZM348 375Q338 375 328 380T305
403Q280 436 249 463T186 514T125 563T77 619Q64 639 60 650T56 671Q56 691 67 704T96 718Q107 718 118 711T144 682Q166 649 196 622T259 568T325 513T384 448Q392 438 392 426T387 402T371 383T348 375Z" />
<glyph unicode="&#xa6;" horiz-adv-x="308" d="M166 -160Q141 -160 127 -144T113 -89Q113 -66 114 -45T115 3T116 71Q116 106 115 129T112 170T109 202T107 236Q107 265 117 277T146 289Q162 289 173 279T188 247Q200 178 202 114T203 -8T201 -114Q202 -133 194
-146T166 -160ZM161 364Q144 364 132 375T116 406Q105 478 105 542T107 662T111 764Q111 786 120 799T148 812Q171 812 185 795T199 742Q199 719 197 699T191 653T188 586Q188 550 189 526T193 485T196 453T197 418Q197 388 187 376T161 364Z" />
<glyph unicode="&#xa7;" horiz-adv-x="569" d="M316 18L226 74Q301 75 351 93T427 145Q421 171 393 190T325 226T240 260T156 299T93 351T69 423Q69 475 96 519T168 598T267 659T372 697T466 710Q492 710 504 698T516 665Q516 648 506 637T469 622Q372 605 303
574T197 503T160 425Q160 402 185 383T251 348T337 313T422 273T488 223T514 155Q514 98 460 62T316 18ZM206 -259Q149 -259 114 -250T63 -224T46 -189Q46 -174 54 -166T80 -158Q95 -158 106 -161T138 -168T195 -171Q244 -171 286 -165T361 -147T415 -119Q409 -91
382 -71T315 -33T231 3T149 44T87 98T63 173Q63 227 102 265T215 323L283 279Q213 260 182 236T150 176Q150 149 176 128T243 89T329 52T415 10T482 -43T508 -115Q508 -151 483 -178T414 -223T317 -250T206 -259Z" />
<glyph unicode="&#xa8;" horiz-adv-x="573" d="M408 583Q377 583 355 607T332 662Q332 688 351 705T397 723Q422 723 440 710T467 677T477 638Q477 619 462 601T408 583ZM173 575Q151 575 134 586T106 615T96 656Q96 683 112 701T157 719Q185 719 203 706T232
672T242 631Q242 606 226 591T173 575Z" />
<glyph unicode="&#xa9;" horiz-adv-x="936" d="M443 -43Q365 -43 299 -25T183 33T107 132T80 277Q80 352 101 414T155 525T226 607T299 657T357 674Q370 674 376 670T382 652Q382 637 371 623T328 590Q269 554 232 506T178 400T161 281Q161 230 178 185T229 106T313
52T431 32Q547 32 627 74T749 198T792 393Q792 478 764 539T676 635T516 668Q438 668 386 651T297 606T222 549Q211 541 201 537T180 532Q164 532 158 540T152 563Q152 585 177 615T249 675T362 724T509 743Q603 743 672 719T785 650T852 543T874 404Q874 291 840
207T746 68T609 -15T443 -43ZM469 134Q406 134 363 156T299 219T278 309Q278 358 298 403T352 484T431 541T527 562Q567 562 591 550T627 516T638 465Q638 448 633 432T616 407T588 397Q579 397 575 404T570 431Q570 451 560 464T514 478Q470 478 435 454T380 391T360
310Q360 264 390 240T472 215Q509 215 533 225T572 249T597 272T615 282Q624 282 629 273T635 250Q635 221 617 195T562 152T469 134Z" />
<glyph unicode="&#xaa;" horiz-adv-x="573" d="M194 282Q155 282 126 299T82 346T66 419Q66 459 78 500T114 579T169 646T237 691T314 708Q336 708 351 695T367 657Q367 646 361 640T341 631Q286 622 244 589T178 510T154 413Q154 393 157 376T172 331L125 396Q144
378 158 373T193 367Q245 367 285 430T345 616Q348 633 358 642T382 652Q405 652 422 636T443 595Q452 547 461 508T486 434T532 362Q540 353 541 340T537 314T523 293T500 284Q487 284 479 289T464 303Q442 332 425 364T395 443T376 560L409 561Q391 458 357 397T279
309T194 282Z" />
<glyph unicode="&#xab;" horiz-adv-x="633" d="M551 24Q542 24 534 26T509 34Q471 49 429 77T354 141T307 213Q299 236 299 251T311 284Q328 308 351 334T400 387T452 433T496 466Q512 476 521 479T536 482Q554 482 565 469T576 437Q576 425 571 416T550 397Q521
379 489 351T426 290T371 218L377 268Q389 234 419 202T489 144T568 107Q582 102 589 93T596 71Q596 48 582 36T551 24ZM265 18Q256 18 248 20T225 29Q194 45 158 74T91 139T45 213Q37 236 37 251T50 285Q69 315 99 347T162 408T218 450Q234 460 243 463T258 466Q276
466 287 453T298 421Q298 409 293 400T272 381Q245 364 216 340T159 284T109 218L114 270Q128 231 156 198T218 139T284 99Q297 94 303 85T309 62Q309 39 295 29T265 18Z" />
<glyph unicode="&#xac;" horiz-adv-x="700" d="M166 347Q124 340 106 352T87 388Q87 406 103 418T163 437Q224 448 285 453T402 459T500 461Q557 461 579 449T602 415Q602 398 591 389T553 379Q479 379 424 377T326 370T244 360T166 347ZM562 166Q547 166 536
181T521 233Q519 270 521 308T526 380T530 440Q530 458 538 471T565 484Q586 484 602 466T618 409Q618 383 614 347T606 277T602 220Q602 190 590 178T562 166Z" />
<glyph unicode="&#xad;" horiz-adv-x="483" d="M136 205Q109 205 90 211T62 228T53 249Q53 259 59 269T85 281Q150 292 209 299T331 306Q367 306 389 298T420 278T430 257Q430 241 417 232T380 223Q303 223 256 219T180 210T136 205Z" />
<glyph unicode="&#xae;" horiz-adv-x="818" d="M378 157Q285 157 212 187T96 282T53 449Q53 518 72 574T121 672T185 744T250 787T301 801Q313 801 319 797T325 779Q325 764 315 753T277 725Q227 694 195 651T147 556T132 451Q132 391 158 341T238 261T369 231Q470
231 541 268T649 377T687 550Q687 625 662 679T583 764T442 793Q378 793 333 778T252 739T183 688Q174 681 166 678T148 674Q137 674 128 683T119 706Q119 726 141 753T204 807T305 850T436 867Q521 867 583 846T686 784T745 687T765 560Q765 459 735 384T650 258T527
182T378 157ZM287 298Q263 298 246 318T229 374Q229 400 236 432T259 504Q258 533 255 556T242 609Q236 628 242 641T270 654Q292 654 307 641T328 596L311 595Q331 635 358 662T418 704T486 718Q523 718 547 705T582 668T593 615Q593 563 552 518T418 442Q437
428 464 417T523 397Q545 392 555 384T565 363Q565 351 558 341T537 325T504 319Q491 319 467 327T415 350T360 383T316 422Q309 431 308 444T313 468T331 483Q397 502 436 525T491 570T508 608Q508 620 502 628T479 636Q455 636 427 618T373 562T331 470T315 341Q315
315 309 307T287 298Z" />
<glyph unicode="&#xaf;" horiz-adv-x="481" d="M117 622Q86 622 69 637T52 671Q52 681 59 692T92 706Q137 712 178 715T260 719T344 721Q375 721 393 713T419 693T427 672Q427 654 414 643T377 632Q295 632 245 630T165 625T117 622Z" />
<glyph unicode="&#xb0;" horiz-adv-x="565" d="M288 280Q223 280 173 307T93 383T64 494Q65 539 82 576T126 642T182 685T233 701Q248 701 259 695T270 671Q270 650 262 635T228 607Q203 593 186 576T161 540T152 496Q151 436 187 399T285 362Q342 362 377 400T414
500Q414 556 384 589T301 622Q277 622 263 613T231 586Q212 568 204 557T178 546Q170 546 164 550T153 562T149 585Q148 605 160 625T193 664T239 694T292 705Q391 705 446 650T501 499Q502 437 474 388T397 309T288 280Z" />
<glyph unicode="&#xb1;" horiz-adv-x="700" d="M163 50Q121 39 103 51T84 85Q84 101 96 116T150 142Q242 164 335 176T517 189Q552 189 571 177T590 145Q590 128 580 119T543 109Q485 109 439 106T354 96T283 83T221 67T163 50ZM132 308Q107 304 94 316T80 347Q81
367 92 381T146 402Q209 414 277 423T413 437T541 443Q569 443 586 430T604 396Q604 380 595 372T562 362Q482 360 420 354T309 341T217 326T132 308ZM344 212Q328 212 317 227T302 279Q299 324 301 370T306 457T309 529Q309 547 317 560T344 574Q366 574 381 556T397
499Q397 466 394 423T387 338T383 266Q383 236 371 224T344 212Z" />
<glyph unicode="&#xb2;" horiz-adv-x="460" d="M122 398Q92 398 78 413T63 455Q63 471 68 479T81 492Q140 530 179 560T242 615T276 662T287 704Q287 745 243 745Q207 745 182 733T138 707T106 694Q90 694 79 706T67 735Q67 747 71 754T87 771Q124 798 163 812T243
827Q311 827 340 794T369 707Q369 675 353 639T293 560T165 465L148 488Q158 484 168 483T189 482Q216 482 255 486T343 491Q381 491 395 478T411 444Q411 429 401 419T368 409Q272 409 215 404T122 398Z" />
<glyph unicode="&#xb3;" horiz-adv-x="460" d="M205 425Q163 425 136 435T95 461T81 497Q81 508 90 518T117 529Q129 529 136 522T157 508T202 501Q234 501 260 508T303 528T319 560Q319 578 306 587T267 600T205 604Q184 604 172 612T160 636Q160 652 167 661T190
674Q228 681 253 698T278 743Q278 762 266 767T238 773Q200 773 180 764T146 746T117 737Q98 737 90 746T81 771Q81 788 102 805T161 833T245 845Q301 845 328 821T355 755Q355 730 345 705T306 659T225 631L227 661Q285 662 321 650T373 613T390 556Q390 516 367
487T302 441T205 425Z" />
<glyph unicode="&#xb4;" horiz-adv-x="276" d="M112 569Q93 569 82 577T71 599Q71 614 82 624T112 649Q138 670 148 687T166 733Q175 761 186 771T213 781Q239 781 251 768T263 731Q263 690 240 653T182 592T112 569Z" />
<glyph unicode="&#xb5;" horiz-adv-x="700" d="M127 -240Q116 -240 106 -234T90 -207T83 -148Q83 -69 84 11T88 164Q75 197 67 234T59 322Q59 416 78 458T126 500Q151 500 165 481T180 425Q180 368 180 306T177 182Q199 138 232 108T297 77Q342 77 374 103T423
181T440 308Q440 347 440 371T438 416T437 461Q437 478 444 488T469 499Q494 499 511 479T529 423Q530 329 541 265T574 156T627 70Q635 60 637 47T635 22T621 1T596 -7Q583 -7 574 -1T557 15Q536 40 519 67T489 130Q468 63 420 27T309 -10Q269 -10 235 6T173 48Q171
-26 169 -87T167 -187Q167 -217 155 -228T127 -240Z" />
<glyph unicode="&#xb6;" horiz-adv-x="787" d="M409 -267Q396 -267 384 -258T366 -236Q347 -182 350 -118T365 27T389 207T401 431Q401 495 398 532T387 588T367 611T338 617Q303 617 268 598T202 546T154 475T135 400Q135 371 166 342T260 289T413 249Q425 247
434 239T448 220T449 198Q446 180 431 171T398 165Q283 185 204 218T85 296T44 396Q44 450 70 504T139 604T238 678T352 706Q392 706 419 694T463 651T485 566T492 424Q492 307 480 213T454 44T438 -93T452 -206Q457 -220 454 -234T439 -257T409 -267ZM622 -254Q599
-254 586 -241T569 -198Q562 -133 569 -70T588 63T611 218T623 412T608 663Q606 680 609 692T620 710T645 717Q668 717 682 702T700 661Q715 521 714 414T702 223T679 70T661 -63T661 -194Q663 -211 660 -224T649 -246T622 -254Z" />
<glyph unicode="&#xb7;" horiz-adv-x="281" d="M149 193Q111 193 85 218T59 281Q59 307 75 323T116 339Q145 339 165 325T196 291T206 250Q206 228 193 211T149 193Z" />
<glyph unicode="&#xb8;" horiz-adv-x="573" d="M232 -219Q199 -219 181 -207T162 -172Q162 -153 172 -144T212 -132Q275 -128 297 -110T320 -61Q320 -39 313 -28T296 -11T279 1T272 17Q272 28 281 35T309 43Q352 43 381 8T410 -82Q410 -143 363 -181T232 -219Z" />
<glyph unicode="&#xb9;" horiz-adv-x="460" d="M254 445Q230 445 217 461T202 501Q202 560 209 622T227 739L245 729Q218 707 183 695T115 683Q92 683 80 696T67 727Q67 740 75 748T101 759Q134 761 167 773T227 806Q235 812 244 816T266 820Q291 820 304 802T313
758Q308 729 303 696T294 627T287 554T284 478Q284 463 276 454T254 445ZM160 392Q126 392 104 398T72 416T62 440Q62 456 74 464T116 472Q137 472 165 473T222 476T281 479T337 480Q370 480 395 469T420 435Q419 421 408 411T375 401Q336 401 297 399T222 395T160
392Z" />
<glyph unicode="&#xba;" horiz-adv-x="539" d="M280 280Q218 280 169 307T92 383T64 494Q64 539 81 577T124 643T179 686T231 701Q246 701 257 695T268 671Q268 657 265 645T252 624T226 607Q190 586 171 559T152 496Q151 435 185 399T277 362Q328 362 358 399T388
500Q388 556 363 589T293 622Q269 622 254 613T223 587Q204 568 196 558T171 547Q158 547 149 555T139 583Q139 604 151 625T184 664T231 693T284 705Q344 705 387 680T452 609T475 499Q475 436 450 387T380 309T280 280Z" />
<glyph unicode="&#xbb;" horiz-adv-x="633" d="M96 18Q78 18 67 31T56 63Q56 75 62 85T83 104Q111 122 143 149T207 211T262 282L255 233Q243 267 213 299T144 356T65 394Q51 398 44 407T36 429Q36 453 51 464T82 476Q91 476 99 474T123 466Q162 451 203 423T278
360T325 288Q334 264 333 249T321 216Q305 192 282 166T232 113T181 67T136 34Q120 24 112 21T96 18ZM374 34Q356 34 345 47T334 79Q334 91 340 101T361 120Q387 136 416 161T474 216T524 282L519 231Q504 269 476 302T414 361T348 402Q336 408 330 416T323 438Q323
461 337 471T368 482Q377 482 385 480T407 471Q438 455 474 426T542 361T587 288Q596 264 595 249T583 215Q563 186 532 153T470 93T414 50Q398 40 390 37T374 34Z" />
<glyph unicode="&#xbc;" horiz-adv-x="1172" d="M254 339Q230 339 217 355T202 394Q202 453 209 515T227 632L245 622Q218 600 183 589T115 577Q92 577 80 590T67 621Q67 633 75 642T101 652Q134 655 167 667T227 699Q235 706 244 710T266 714Q291 714 304 695T313
651Q308 622 303 589T294 521T287 447T284 372Q284 357 276 348T254 339ZM160 286Q126 286 104 292T72 309T62 334Q62 350 74 358T116 366Q137 366 165 367T222 369T281 372T337 374Q370 374 395 363T420 329Q419 315 408 305T375 294Q336 294 297 292T222 288T160
286ZM337 -39Q322 -39 312 -27T300 3T310 39Q361 113 417 186T533 329T659 465T794 591T939 706Q958 719 972 725T1002 732Q1012 732 1022 725T1036 706T1032 677T996 639Q862 538 754 433T554 218T381 -10Q370 -24 360 -31T337 -39ZM1005 -6Q980 -6 969 17T958
92Q958 157 970 214T983 320Q983 335 982 346T975 368L1002 345Q934 320 890 267T821 148L796 183Q811 177 817 175T834 173Q874 173 913 180T995 194T1093 201Q1115 201 1128 186T1143 150Q1143 137 1136 128T1110 119Q1047 119 998 112T903 98T809 91Q781 91
764 108T746 146Q746 165 751 185T773 236Q796 279 827 313T891 371T953 407T1002 420Q1036 420 1051 396T1067 334Q1067 289 1061 251T1047 173T1040 87Q1041 65 1043 53T1046 26Q1046 11 1035 3T1005 -6Z" />
<glyph unicode="&#xbd;" horiz-adv-x="1172" d="M254 339Q230 339 217 355T202 394Q202 453 209 515T227 632L245 622Q218 600 183 589T115 577Q92 577 80 590T67 621Q67 633 75 642T101 652Q134 655 167 667T227 699Q235 706 244 710T266 714Q291 714 304 695T313
651Q308 622 303 589T294 521T287 447T284 372Q284 357 276 348T254 339ZM160 286Q126 286 104 292T72 309T62 334Q62 350 74 358T116 366Q137 366 165 367T222 369T281 372T337 374Q370 374 395 363T420 329Q419 315 408 305T375 294Q336 294 297 292T222 288T160
286ZM337 -39Q322 -39 312 -27T300 3T310 39Q361 113 417 186T533 329T659 465T794 591T939 706Q958 719 972 725T1002 732Q1012 732 1022 725T1036 706T1032 677T996 639Q862 538 754 433T554 218T381 -10Q370 -24 360 -31T337 -39ZM834 -11Q804 -11 790 4T775
46Q775 62 780 70T793 83Q852 121 891 151T954 206T988 253T999 295Q999 336 955 336Q919 336 894 324T850 298T818 285Q802 285 791 297T779 326Q779 338 783 345T799 362Q836 389 875 403T955 418Q1023 418 1052 385T1081 298Q1081 266 1065 230T1005 151T877
56L860 79Q870 75 880 74T901 73Q928 73 967 77T1055 82Q1093 82 1107 69T1123 35Q1123 20 1113 10T1080 0Q984 0 927 -5T834 -11Z" />
<glyph unicode="&#xbe;" horiz-adv-x="1172" d="M205 288Q163 288 136 297T95 323T81 361Q81 372 90 382T117 393Q129 393 136 386T157 371T202 364Q234 364 260 371T303 392T319 423Q319 441 306 450T267 464T205 468Q184 468 172 476T160 499Q160 515 167 524T190
537Q228 544 253 561T278 607Q278 626 266 631T238 636Q200 636 180 628T146 610T117 601Q98 601 90 610T81 635Q81 652 102 668T161 697T245 709Q301 709 328 684T355 618Q355 594 345 569T306 523T225 494L227 525Q285 525 321 513T373 477T390 419Q390 379 367
350T302 305T205 288ZM337 -39Q322 -39 312 -27T300 3T310 39Q361 113 417 186T533 329T659 465T794 591T939 706Q958 719 972 725T1002 732Q1012 732 1022 725T1036 706T1032 677T996 639Q862 538 754 433T554 218T381 -10Q370 -24 360 -31T337 -39ZM1005 -6Q980
-6 969 17T958 92Q958 157 970 214T983 320Q983 335 982 346T975 368L1002 345Q934 320 890 267T821 148L796 183Q811 177 817 175T834 173Q874 173 913 180T995 194T1093 201Q1115 201 1128 186T1143 150Q1143 137 1136 128T1110 119Q1047 119 998 112T903 98T809
91Q781 91 764 108T746 146Q746 165 751 185T773 236Q796 279 827 313T891 371T953 407T1002 420Q1036 420 1051 396T1067 334Q1067 289 1061 251T1047 173T1040 87Q1041 65 1043 53T1046 26Q1046 11 1035 3T1005 -6Z" />
<glyph unicode="&#xbf;" horiz-adv-x="332" d="M201 -262Q127 -262 80 -240T9 -179T-14 -93Q-14 -62 -5 -35T27 19T96 77Q133 102 150 117T173 143T178 165Q178 179 172 187T156 203T140 218T133 240Q133 252 142 261T168 271Q194 271 217 256T254 217T268 163Q268
150 265 135T251 103T217 64T153 16Q120 -6 104 -23T83 -57T77 -91Q77 -130 105 -151T198 -173Q244 -173 272 -165T321 -149T359 -141Q378 -141 390 -152T402 -184Q402 -197 395 -207T376 -224Q354 -236 324 -244T262 -257T201 -262ZM199 367Q170 367 152 378T124
406T115 444Q115 466 129 483T175 501Q210 501 233 482T257 426Q257 399 240 383T199 367Z" />
<glyph unicode="&#xc0;" horiz-adv-x="726" d="M618 -9Q596 -9 582 9T550 72Q535 109 521 162T496 274T479 386Q472 451 466 497T453 570T436 611T407 624Q380 624 347 582T280 461T218 274T171 31Q168 12 161 2T138 -8Q115 -8 103 7T90 63Q90 121 101 178T129
294T158 411T174 531Q175 548 182 557T204 567Q218 567 231 559T255 534L218 524Q264 617 309 663T409 710Q467 710 496 676T539 572T565 389Q575 306 589 246T617 144T641 74T651 25Q651 9 643 0T618 -9ZM83 187Q61 187 51 196T40 222Q40 235 48 243T75 259Q183
300 323 319T625 338Q660 338 672 328T685 299Q685 279 666 266T610 252Q495 252 417 246T287 230T199 210T138 194T83 187ZM413 777Q385 777 358 792T307 831T270 883T256 936Q256 959 268 972T305 986Q326 986 338 975T365 928Q375 897 390 880T419 853T443 835T453
813Q453 797 444 787T413 777Z" />
<glyph unicode="&#xc1;" horiz-adv-x="726" d="M618 -9Q596 -9 582 9T550 72Q535 109 521 162T496 274T479 386Q472 451 466 497T453 570T436 611T407 624Q380 624 347 582T280 461T218 274T171 31Q168 12 161 2T138 -8Q115 -8 103 7T90 63Q90 121 101 178T129
294T158 411T174 531Q175 548 182 557T204 567Q218 567 231 559T255 534L218 524Q264 617 309 663T409 710Q467 710 496 676T539 572T565 389Q575 306 589 246T617 144T641 74T651 25Q651 9 643 0T618 -9ZM83 187Q61 187 51 196T40 222Q40 235 48 243T75 259Q183
300 323 319T625 338Q660 338 672 328T685 299Q685 279 666 266T610 252Q495 252 417 246T287 230T199 210T138 194T83 187ZM387 778Q368 778 357 786T346 808Q346 823 357 833T387 858Q413 879 423 896T441 942Q450 970 461 980T488 990Q514 990 526 977T538 940Q538
899 515 862T457 801T387 778Z" />
<glyph unicode="&#xc2;" horiz-adv-x="726" d="M618 -9Q596 -9 582 9T550 72Q535 109 521 162T496 274T479 386Q472 451 466 497T453 570T436 611T407 624Q380 624 347 582T280 461T218 274T171 31Q168 12 161 2T138 -8Q115 -8 103 7T90 63Q90 121 101 178T129
294T158 411T174 531Q175 548 182 557T204 567Q218 567 231 559T255 534L218 524Q264 617 309 663T409 710Q467 710 496 676T539 572T565 389Q575 306 589 246T617 144T641 74T651 25Q651 9 643 0T618 -9ZM83 187Q61 187 51 196T40 222Q40 235 48 243T75 259Q183
300 323 319T625 338Q660 338 672 328T685 299Q685 279 666 266T610 252Q495 252 417 246T287 230T199 210T138 194T83 187ZM266 775Q253 775 243 780T226 795T220 813Q220 820 225 828T247 854T302 903Q332 929 348 945T378 969T411 977Q434 977 450 967T486 927Q509
894 528 875T563 844T586 824T594 802Q594 791 584 784T554 776Q530 776 508 785T459 821T393 901H421Q379 856 353 831T310 793T284 778T266 775Z" />
<glyph unicode="&#xc3;" horiz-adv-x="726" d="M618 -9Q596 -9 582 9T550 72Q535 109 521 162T496 274T479 386Q472 451 466 497T453 570T436 611T407 624Q380 624 347 582T280 461T218 274T171 31Q168 12 161 2T138 -8Q115 -8 103 7T90 63Q90 121 101 178T129
294T158 411T174 531Q175 548 182 557T204 567Q218 567 231 559T255 534L218 524Q264 617 309 663T409 710Q467 710 496 676T539 572T565 389Q575 306 589 246T617 144T641 74T651 25Q651 9 643 0T618 -9ZM83 187Q61 187 51 196T40 222Q40 235 48 243T75 259Q183
300 323 319T625 338Q660 338 672 328T685 299Q685 279 666 266T610 252Q495 252 417 246T287 230T199 210T138 194T83 187ZM250 804Q230 804 217 820T204 861Q204 888 215 915T250 959T317 977Q353 977 378 963T421 931T454 898T487 884Q507 884 517 893T531 916T539
944T548 967T568 976Q585 976 596 964T608 922Q608 866 577 831T491 796Q460 796 438 809T398 841T363 872T325 886Q302 886 294 874T282 845T273 816T250 804Z" />
<glyph unicode="&#xc4;" horiz-adv-x="726" d="M618 -9Q596 -9 582 9T550 72Q535 109 521 162T496 274T479 386Q472 451 466 497T453 570T436 611T407 624Q380 624 347 582T280 461T218 274T171 31Q168 12 161 2T138 -8Q115 -8 103 7T90 63Q90 121 101 178T129
294T158 411T174 531Q175 548 182 557T204 567Q218 567 231 559T255 534L218 524Q264 617 309 663T409 710Q467 710 496 676T539 572T565 389Q575 306 589 246T617 144T641 74T651 25Q651 9 643 0T618 -9ZM83 187Q61 187 51 196T40 222Q40 235 48 243T75 259Q183
300 323 319T625 338Q660 338 672 328T685 299Q685 279 666 266T610 252Q495 252 417 246T287 230T199 210T138 194T83 187ZM527 792Q496 792 474 816T451 871Q451 897 470 914T516 932Q541 932 559 919T586 886T596 847Q596 828 581 810T527 792ZM292 784Q270
784 253 795T225 824T215 865Q215 892 231 910T276 928Q304 928 322 915T351 881T361 840Q361 815 345 800T292 784Z" />
<glyph unicode="&#xc5;" horiz-adv-x="726" d="M618 -9Q596 -9 582 9T550 72Q535 109 521 162T496 274T479 386Q472 451 466 497T453 570T436 611T407 624Q380 624 347 582T280 461T218 274T171 31Q168 12 161 2T138 -8Q115 -8 103 7T90 63Q90 121 101 178T129
294T158 411T174 531Q175 548 182 557T204 567Q218 567 231 559T255 534L218 524Q264 617 309 663T409 710Q467 710 496 676T539 572T565 389Q575 306 589 246T617 144T641 74T651 25Q651 9 643 0T618 -9ZM83 187Q61 187 51 196T40 222Q40 235 48 243T75 259Q183
300 323 319T625 338Q660 338 672 328T685 299Q685 279 666 266T610 252Q495 252 417 246T287 230T199 210T138 194T83 187ZM410 645Q352 645 310 666T245 724T222 812Q222 843 235 871T270 922T321 958T380 971Q399 971 408 961T417 932Q417 920 409 911T381 894Q343
879 329 858T314 804Q314 768 339 747T403 726Q446 726 468 748T490 813Q490 844 470 864T416 884Q385 884 369 874T344 854T321 844Q302 844 294 850T285 875Q285 912 318 938T411 964Q465 964 502 945T560 892T580 812Q580 765 558 727T497 667T410 645Z" />
<glyph unicode="&#xc6;" horiz-adv-x="1049" d="M138 -8Q125 -8 114 -1T97 22T90 63Q90 120 103 179T133 297T164 413T177 525Q177 541 184 551T207 561Q221 561 233 553T257 528L218 519Q264 616 310 663T409 710Q453 710 479 691T521 632T547 530T566 380Q577
278 599 212T664 113T778 80Q828 80 861 87T916 103T952 120T979 127Q995 127 1001 118T1008 93Q1008 69 984 46T909 8T781 -7Q698 -7 643 21T555 99T505 216T480 363Q473 437 467 487T454 567T436 610T407 624Q380 624 347 582T280 461T218 274T171 31Q168 12
161 2T138 -8ZM99 183Q80 183 66 187T45 200T38 222Q38 235 46 242T79 257Q132 270 202 285T352 316T512 346T668 371T804 388T905 395Q937 395 948 387T959 361Q959 334 935 323T874 309Q771 302 672 287T482 255T317 221T185 194T99 183ZM519 593Q486 593 469
606T451 639Q451 653 458 661T489 674Q543 683 603 689T723 699T836 706T930 709Q968 709 984 697T1000 666Q1000 648 990 636T952 623Q855 623 784 619T661 608T576 598T519 593Z" />
<glyph unicode="&#xc7;" horiz-adv-x="613" d="M331 -10Q236 -10 176 30T88 138T59 292Q59 373 85 448T157 583T267 676T404 711Q454 711 484 697T527 656T541 594Q541 574 535 556T517 527T486 516Q471 516 466 524T459 544T458 572Q458 585 454 596T437 615T397
622Q342 622 296 594T217 519T166 413T148 291Q148 187 198 131T333 75Q379 75 408 85T456 111T487 142T509 168T534 178Q551 178 558 168T566 143Q566 123 551 97T507 47T433 6T331 -10ZM254 -219Q221 -219 203 -207T184 -172Q184 -153 194 -144T234 -132Q297
-128 319 -110T342 -61Q342 -39 335 -28T318 -11T301 1T294 17Q294 28 303 35T331 43Q374 43 403 8T432 -82Q432 -143 385 -181T254 -219Z" />
<glyph unicode="&#xc8;" horiz-adv-x="626" d="M356 -7Q287 -7 233 15T143 78T87 174T68 293Q68 339 77 387T103 479T140 560Q158 592 179 615T227 638Q241 638 250 634T260 619T251 590Q226 550 205 502T172 401T158 294Q158 230 182 182T250 106T353 79Q405
79 438 85T492 99T525 113T548 119Q565 119 572 110T580 85Q580 63 556 42T482 7T356 -7ZM164 273Q143 268 131 273T113 290T107 314Q107 331 124 344T174 363Q206 369 242 374T316 383T388 390T450 393Q481 393 492 384T504 360Q504 333 481 322T426 308Q391 305
355 302T284 294T219 284T164 273ZM137 594Q109 594 95 606T80 635Q80 646 87 657T112 673Q176 685 251 693T399 705T526 709Q553 709 566 699T579 670Q579 650 567 637T528 623Q441 623 379 619T272 609T195 599T137 594ZM376 777Q348 777 321 792T270 831T233
883T219 936Q219 959 231 972T268 986Q289 986 301 975T328 928Q338 897 353 880T382 853T406 835T416 813Q416 797 407 787T376 777Z" />
<glyph unicode="&#xc9;" horiz-adv-x="626" d="M356 -7Q287 -7 233 15T143 78T87 174T68 293Q68 339 77 387T103 479T140 560Q158 592 179 615T227 638Q241 638 250 634T260 619T251 590Q226 550 205 502T172 401T158 294Q158 230 182 182T250 106T353 79Q405
79 438 85T492 99T525 113T548 119Q565 119 572 110T580 85Q580 63 556 42T482 7T356 -7ZM164 273Q143 268 131 273T113 290T107 314Q107 331 124 344T174 363Q206 369 242 374T316 383T388 390T450 393Q481 393 492 384T504 360Q504 333 481 322T426 308Q391 305
355 302T284 294T219 284T164 273ZM137 594Q109 594 95 606T80 635Q80 646 87 657T112 673Q176 685 251 693T399 705T526 709Q553 709 566 699T579 670Q579 650 567 637T528 623Q441 623 379 619T272 609T195 599T137 594ZM350 778Q331 778 320 786T309 808Q309
823 320 833T350 858Q376 879 386 896T404 942Q413 970 424 980T451 990Q477 990 489 977T501 940Q501 899 478 862T420 801T350 778Z" />
<glyph unicode="&#xca;" horiz-adv-x="626" d="M356 -7Q287 -7 233 15T143 78T87 174T68 293Q68 339 77 387T103 479T140 560Q158 592 179 615T227 638Q241 638 250 634T260 619T251 590Q226 550 205 502T172 401T158 294Q158 230 182 182T250 106T353 79Q405
79 438 85T492 99T525 113T548 119Q565 119 572 110T580 85Q580 63 556 42T482 7T356 -7ZM164 273Q143 268 131 273T113 290T107 314Q107 331 124 344T174 363Q206 369 242 374T316 383T388 390T450 393Q481 393 492 384T504 360Q504 333 481 322T426 308Q391 305
355 302T284 294T219 284T164 273ZM137 594Q109 594 95 606T80 635Q80 646 87 657T112 673Q176 685 251 693T399 705T526 709Q553 709 566 699T579 670Q579 650 567 637T528 623Q441 623 379 619T272 609T195 599T137 594ZM229 775Q216 775 206 780T189 795T183
813Q183 820 188 828T210 854T265 903Q295 929 311 945T341 969T374 977Q397 977 413 967T449 927Q472 894 491 875T526 844T549 824T557 802Q557 791 547 784T517 776Q493 776 471 785T422 821T356 901H384Q342 856 316 831T273 793T247 778T229 775Z" />
<glyph unicode="&#xcb;" horiz-adv-x="626" d="M356 -7Q287 -7 233 15T143 78T87 174T68 293Q68 339 77 387T103 479T140 560Q158 592 179 615T227 638Q241 638 250 634T260 619T251 590Q226 550 205 502T172 401T158 294Q158 230 182 182T250 106T353 79Q405
79 438 85T492 99T525 113T548 119Q565 119 572 110T580 85Q580 63 556 42T482 7T356 -7ZM164 273Q143 268 131 273T113 290T107 314Q107 331 124 344T174 363Q206 369 242 374T316 383T388 390T450 393Q481 393 492 384T504 360Q504 333 481 322T426 308Q391 305
355 302T284 294T219 284T164 273ZM137 594Q109 594 95 606T80 635Q80 646 87 657T112 673Q176 685 251 693T399 705T526 709Q553 709 566 699T579 670Q579 650 567 637T528 623Q441 623 379 619T272 609T195 599T137 594ZM490 792Q459 792 437 816T414 871Q414
897 433 914T479 932Q504 932 522 919T549 886T559 847Q559 828 544 810T490 792ZM255 784Q233 784 216 795T188 824T178 865Q178 892 194 910T239 928Q267 928 285 915T314 881T324 840Q324 815 308 800T255 784Z" />
<glyph unicode="&#xcc;" horiz-adv-x="551" d="M80 596Q57 596 45 607T32 636Q32 650 43 662T80 679Q128 687 192 693T325 702T460 706Q493 706 506 699T519 673Q519 647 491 632T414 617Q349 617 303 615T224 610T168 604T124 598T80 596ZM283 56Q258 56 242
77T226 133Q226 220 230 303T239 462T243 600Q243 624 250 636T276 649Q299 649 315 628T332 575Q332 530 328 458T320 294T315 93Q315 56 283 56ZM97 -11Q63 -11 48 1T32 34Q32 48 40 58T68 70Q105 74 141 76T214 81T290 84T370 85T457 86Q482 86 495 81T513 69T519
50Q519 30 500 15T435 0Q358 0 292 -2T176 -8T97 -11ZM287 777Q259 777 232 792T181 831T144 883T130 936Q130 959 142 972T179 986Q200 986 212 975T239 928Q249 897 264 880T293 853T317 835T327 813Q327 797 318 787T287 777Z" />
<glyph unicode="&#xcd;" horiz-adv-x="551" d="M80 596Q57 596 45 607T32 636Q32 650 43 662T80 679Q128 687 192 693T325 702T460 706Q493 706 506 699T519 673Q519 647 491 632T414 617Q349 617 303 615T224 610T168 604T124 598T80 596ZM283 56Q258 56 242
77T226 133Q226 220 230 303T239 462T243 600Q243 624 250 636T276 649Q299 649 315 628T332 575Q332 530 328 458T320 294T315 93Q315 56 283 56ZM97 -11Q63 -11 48 1T32 34Q32 48 40 58T68 70Q105 74 141 76T214 81T290 84T370 85T457 86Q482 86 495 81T513 69T519
50Q519 30 500 15T435 0Q358 0 292 -2T176 -8T97 -11ZM261 778Q242 778 231 786T220 808Q220 823 231 833T261 858Q287 879 297 896T315 942Q324 970 335 980T362 990Q388 990 400 977T412 940Q412 899 389 862T331 801T261 778Z" />
<glyph unicode="&#xce;" horiz-adv-x="551" d="M80 596Q57 596 45 607T32 636Q32 650 43 662T80 679Q128 687 192 693T325 702T460 706Q493 706 506 699T519 673Q519 647 491 632T414 617Q349 617 303 615T224 610T168 604T124 598T80 596ZM283 56Q258 56 242
77T226 133Q226 220 230 303T239 462T243 600Q243 624 250 636T276 649Q299 649 315 628T332 575Q332 530 328 458T320 294T315 93Q315 56 283 56ZM97 -11Q63 -11 48 1T32 34Q32 48 40 58T68 70Q105 74 141 76T214 81T290 84T370 85T457 86Q482 86 495 81T513 69T519
50Q519 30 500 15T435 0Q358 0 292 -2T176 -8T97 -11ZM140 775Q127 775 117 780T100 795T94 813Q94 820 99 828T121 854T176 903Q206 929 222 945T252 969T285 977Q308 977 324 967T360 927Q383 894 402 875T437 844T460 824T468 802Q468 791 458 784T428 776Q404
776 382 785T333 821T267 901H295Q253 856 227 831T184 793T158 778T140 775Z" />
<glyph unicode="&#xcf;" horiz-adv-x="551" d="M80 596Q57 596 45 607T32 636Q32 650 43 662T80 679Q128 687 192 693T325 702T460 706Q493 706 506 699T519 673Q519 647 491 632T414 617Q349 617 303 615T224 610T168 604T124 598T80 596ZM283 56Q258 56 242
77T226 133Q226 220 230 303T239 462T243 600Q243 624 250 636T276 649Q299 649 315 628T332 575Q332 530 328 458T320 294T315 93Q315 56 283 56ZM97 -11Q63 -11 48 1T32 34Q32 48 40 58T68 70Q105 74 141 76T214 81T290 84T370 85T457 86Q482 86 495 81T513 69T519
50Q519 30 500 15T435 0Q358 0 292 -2T176 -8T97 -11ZM401 792Q370 792 348 816T325 871Q325 897 344 914T390 932Q415 932 433 919T460 886T470 847Q470 828 455 810T401 792ZM166 784Q144 784 127 795T99 824T89 865Q89 892 105 910T150 928Q178 928 196 915T225
881T235 840Q235 815 219 800T166 784Z" />
<glyph unicode="&#xd0;" horiz-adv-x="663" d="M93 303Q57 303 39 316T21 346Q21 356 27 365T53 378Q117 388 173 391T290 395Q326 395 347 387T378 369T387 350Q387 335 374 326T336 317Q259 317 212 314T138 307T93 303ZM215 -9Q186 -9 163 11T127 68T113 154Q113
262 119 363T137 569Q140 598 150 610T181 623Q197 623 208 608T219 570Q220 523 215 467T205 340T200 173Q200 131 208 104T239 54L174 70Q253 70 319 100T434 181T511 299T538 440Q538 496 519 537T460 600T353 622Q296 622 256 615T187 597T136 580T91 572Q75
572 64 578T48 594T42 616Q42 627 48 637T68 652Q90 659 122 669T193 688T275 703T360 709Q444 709 504 676T596 583T629 443Q629 368 606 300T543 176T450 79T337 14T215 -9Z" />
<glyph unicode="&#xd1;" horiz-adv-x="763" d="M120 -10Q101 -10 89 2T77 44Q77 64 82 84T95 136T108 217T114 342Q114 385 112 431T106 520T101 594T98 638Q98 668 112 689T153 710Q191 710 224 685T287 615T342 516T392 403T439 289T485 189T532 116T583 85L544
66Q559 85 567 106T580 158T584 235Q584 294 582 349T578 458T580 560T594 657Q600 684 610 695T640 707Q658 707 669 695T683 665T683 627Q673 579 670 534T668 443T671 348T673 242Q673 169 666 112T636 22T570 -11Q529 -11 498 14T440 82T391 179T346 293T298
411T242 520T172 606L187 610Q194 553 197 506T202 419T204 342Q204 248 195 171T166 31Q162 13 150 2T120 -10ZM229 804Q209 804 196 820T183 861Q183 888 194 915T229 959T296 977Q332 977 357 963T400 931T433 898T466 884Q486 884 496 893T510 916T518 944T527
967T547 976Q564 976 575 964T587 922Q587 866 556 831T470 796Q439 796 417 809T377 841T342 872T304 886Q281 886 273 874T261 845T252 816T229 804Z" />
<glyph unicode="&#xd2;" horiz-adv-x="720" d="M344 -10Q276 -10 224 13T135 78T79 174T59 290Q59 357 77 411T123 508T181 580T237 624T274 640Q284 640 292 637T309 621Q324 599 314 582T282 551Q252 531 222 496T171 410T150 290Q150 233 171 184T236 106T344
76Q409 76 460 104T540 182T570 300Q570 357 557 414T516 519T451 595T361 624Q338 624 329 608T320 566Q320 545 310 534T284 522Q271 522 260 529T241 550T233 585Q233 619 246 647T287 693T351 711Q425 711 482 679T580 589T640 458T661 300Q661 235 639 179T574
81T473 14T344 -10ZM362 777Q334 777 307 792T256 831T219 883T205 936Q205 959 217 972T254 986Q275 986 287 975T314 928Q324 897 339 880T368 853T392 835T402 813Q402 797 393 787T362 777Z" />
<glyph unicode="&#xd3;" horiz-adv-x="720" d="M344 -10Q276 -10 224 13T135 78T79 174T59 290Q59 357 77 411T123 508T181 580T237 624T274 640Q284 640 292 637T309 621Q324 599 314 582T282 551Q252 531 222 496T171 410T150 290Q150 233 171 184T236 106T344
76Q409 76 460 104T540 182T570 300Q570 357 557 414T516 519T451 595T361 624Q338 624 329 608T320 566Q320 545 310 534T284 522Q271 522 260 529T241 550T233 585Q233 619 246 647T287 693T351 711Q425 711 482 679T580 589T640 458T661 300Q661 235 639 179T574
81T473 14T344 -10ZM336 778Q317 778 306 786T295 808Q295 823 306 833T336 858Q362 879 372 896T390 942Q399 970 410 980T437 990Q463 990 475 977T487 940Q487 899 464 862T406 801T336 778Z" />
<glyph unicode="&#xd4;" horiz-adv-x="720" d="M344 -10Q276 -10 224 13T135 78T79 174T59 290Q59 357 77 411T123 508T181 580T237 624T274 640Q284 640 292 637T309 621Q324 599 314 582T282 551Q252 531 222 496T171 410T150 290Q150 233 171 184T236 106T344
76Q409 76 460 104T540 182T570 300Q570 357 557 414T516 519T451 595T361 624Q338 624 329 608T320 566Q320 545 310 534T284 522Q271 522 260 529T241 550T233 585Q233 619 246 647T287 693T351 711Q425 711 482 679T580 589T640 458T661 300Q661 235 639 179T574
81T473 14T344 -10ZM215 775Q202 775 192 780T175 795T169 813Q169 820 174 828T196 854T251 903Q281 929 297 945T327 969T360 977Q383 977 399 967T435 927Q458 894 477 875T512 844T535 824T543 802Q543 791 533 784T503 776Q479 776 457 785T408 821T342 901H370Q328
856 302 831T259 793T233 778T215 775Z" />
<glyph unicode="&#xd5;" horiz-adv-x="720" d="M344 -10Q276 -10 224 13T135 78T79 174T59 290Q59 357 77 411T123 508T181 580T237 624T274 640Q284 640 292 637T309 621Q324 599 314 582T282 551Q252 531 222 496T171 410T150 290Q150 233 171 184T236 106T344
76Q409 76 460 104T540 182T570 300Q570 357 557 414T516 519T451 595T361 624Q338 624 329 608T320 566Q320 545 310 534T284 522Q271 522 260 529T241 550T233 585Q233 619 246 647T287 693T351 711Q425 711 482 679T580 589T640 458T661 300Q661 235 639 179T574
81T473 14T344 -10ZM199 804Q179 804 166 820T153 861Q153 888 164 915T199 959T266 977Q302 977 327 963T370 931T403 898T436 884Q456 884 466 893T480 916T488 944T497 967T517 976Q534 976 545 964T557 922Q557 866 526 831T440 796Q409 796 387 809T347 841T312
872T274 886Q251 886 243 874T231 845T222 816T199 804Z" />
<glyph unicode="&#xd6;" horiz-adv-x="720" d="M344 -10Q276 -10 224 13T135 78T79 174T59 290Q59 357 77 411T123 508T181 580T237 624T274 640Q284 640 292 637T309 621Q324 599 314 582T282 551Q252 531 222 496T171 410T150 290Q150 233 171 184T236 106T344
76Q409 76 460 104T540 182T570 300Q570 357 557 414T516 519T451 595T361 624Q338 624 329 608T320 566Q320 545 310 534T284 522Q271 522 260 529T241 550T233 585Q233 619 246 647T287 693T351 711Q425 711 482 679T580 589T640 458T661 300Q661 235 639 179T574
81T473 14T344 -10ZM476 792Q445 792 423 816T400 871Q400 897 419 914T465 932Q490 932 508 919T535 886T545 847Q545 828 530 810T476 792ZM241 784Q219 784 202 795T174 824T164 865Q164 892 180 910T225 928Q253 928 271 915T300 881T310 840Q310 815 294 800T241
784Z" />
<glyph unicode="&#xd7;" horiz-adv-x="700" d="M160 69Q143 69 134 82T132 127Q137 153 162 196T227 290T323 396T443 500Q478 528 499 541T533 559T559 564Q574 564 582 554T591 526Q591 511 584 500T558 477Q485 432 419 374T300 247T207 105Q197 86 185 78T160
69ZM544 72Q531 72 518 80T487 116Q458 160 421 206T343 297T264 382T192 449Q168 469 155 485T141 521Q141 535 150 545T178 556Q196 556 211 546T256 509Q276 492 304 463T364 399T429 328T488 260T533 203Q562 161 571 140T581 105Q581 89 572 81T544 72Z" />
<glyph unicode="&#xd8;" horiz-adv-x="734" d="M86 -68Q67 -68 56 -57T44 -27T53 9Q113 102 176 190T308 361T452 523T612 677Q631 694 644 700T674 707Q691 707 700 698T711 673T704 640T678 607Q559 501 463 398T286 188T130 -35Q109 -68 86 -68ZM351 -10Q284
-10 231 13T142 78T86 174T66 290Q66 359 86 416T135 518T197 592T254 637T289 653Q310 653 321 644T334 620T330 590T306 564Q282 547 256 522T207 464T170 388T156 290Q156 233 177 185T242 108T351 78Q416 78 467 105T548 183T578 300Q578 356 564 413T523 517T455
594T363 623Q339 623 325 618T300 606T275 600Q259 600 249 610T239 640Q239 665 271 688T367 711Q424 711 471 690T555 630T617 540T655 428T668 300Q668 235 645 179T580 81T480 14T351 -10Z" />
<glyph unicode="&#xd9;" horiz-adv-x="668" d="M352 -13Q256 -13 196 30T107 153T79 338Q79 379 81 420T84 488Q84 534 81 562T74 607T66 638T62 670Q62 693 72 703T103 713Q121 713 138 695T165 636T176 523Q176 496 175 465T171 400T169 338Q169 239 191 182T254
100T345 75Q428 75 465 130T502 305Q502 365 501 412T497 504T495 607Q495 656 512 684T560 712Q578 712 587 704T597 675Q597 657 595 638T589 591T586 513Q586 460 589 408T592 298Q592 206 567 136T488 27T352 -13ZM348 777Q320 777 293 792T242 831T205 883T191
936Q191 959 203 972T240 986Q261 986 273 975T300 928Q310 897 325 880T354 853T378 835T388 813Q388 797 379 787T348 777Z" />
<glyph unicode="&#xda;" horiz-adv-x="668" d="M352 -13Q256 -13 196 30T107 153T79 338Q79 379 81 420T84 488Q84 534 81 562T74 607T66 638T62 670Q62 693 72 703T103 713Q121 713 138 695T165 636T176 523Q176 496 175 465T171 400T169 338Q169 239 191 182T254
100T345 75Q428 75 465 130T502 305Q502 365 501 412T497 504T495 607Q495 656 512 684T560 712Q578 712 587 704T597 675Q597 657 595 638T589 591T586 513Q586 460 589 408T592 298Q592 206 567 136T488 27T352 -13ZM322 778Q303 778 292 786T281 808Q281 823
292 833T322 858Q348 879 358 896T376 942Q385 970 396 980T423 990Q449 990 461 977T473 940Q473 899 450 862T392 801T322 778Z" />
<glyph unicode="&#xdb;" horiz-adv-x="668" d="M352 -13Q256 -13 196 30T107 153T79 338Q79 379 81 420T84 488Q84 534 81 562T74 607T66 638T62 670Q62 693 72 703T103 713Q121 713 138 695T165 636T176 523Q176 496 175 465T171 400T169 338Q169 239 191 182T254
100T345 75Q428 75 465 130T502 305Q502 365 501 412T497 504T495 607Q495 656 512 684T560 712Q578 712 587 704T597 675Q597 657 595 638T589 591T586 513Q586 460 589 408T592 298Q592 206 567 136T488 27T352 -13ZM201 775Q188 775 178 780T161 795T155 813Q155
820 160 828T182 854T237 903Q267 929 283 945T313 969T346 977Q369 977 385 967T421 927Q444 894 463 875T498 844T521 824T529 802Q529 791 519 784T489 776Q465 776 443 785T394 821T328 901H356Q314 856 288 831T245 793T219 778T201 775Z" />
<glyph unicode="&#xdc;" horiz-adv-x="668" d="M352 -13Q256 -13 196 30T107 153T79 338Q79 379 81 420T84 488Q84 534 81 562T74 607T66 638T62 670Q62 693 72 703T103 713Q121 713 138 695T165 636T176 523Q176 496 175 465T171 400T169 338Q169 239 191 182T254
100T345 75Q428 75 465 130T502 305Q502 365 501 412T497 504T495 607Q495 656 512 684T560 712Q578 712 587 704T597 675Q597 657 595 638T589 591T586 513Q586 460 589 408T592 298Q592 206 567 136T488 27T352 -13ZM462 792Q431 792 409 816T386 871Q386 897
405 914T451 932Q476 932 494 919T521 886T531 847Q531 828 516 810T462 792ZM227 784Q205 784 188 795T160 824T150 865Q150 892 166 910T211 928Q239 928 257 915T286 881T296 840Q296 815 280 800T227 784Z" />
<glyph unicode="&#xdd;" horiz-adv-x="604" d="M220 -14Q203 -14 193 -4T180 27T185 82Q199 152 226 231T294 390T384 545T494 681Q514 701 527 707T552 713Q562 713 569 708T582 694T587 671Q587 658 584 648T572 627T544 596Q493 543 450 480T372 347T312 202T271
49Q264 11 253 -1T220 -14ZM281 296Q267 296 256 304T237 325Q204 380 178 417T131 483T89 539T48 602Q32 630 26 643T20 673Q20 690 30 701T56 712Q72 712 84 704T107 675Q130 634 149 605T187 551T225 501T264 443T308 365Q313 356 314 344T313 321T303 303T281
296ZM278 778Q259 778 248 786T237 808Q237 823 248 833T278 858Q304 879 314 896T332 942Q341 970 352 980T379 990Q405 990 417 977T429 940Q429 899 406 862T348 801T278 778Z" />
<glyph unicode="&#xde;" horiz-adv-x="590" d="M267 139Q228 139 197 150T149 181T131 221Q131 236 139 244T158 252Q173 252 184 246T214 233T264 226Q320 226 363 248T431 307T456 384Q456 426 436 453T385 494T318 508Q278 508 250 496T204 458Q199 449 190
445T167 441Q155 441 146 450T135 475T142 505Q167 549 210 572T319 595Q380 595 431 570T513 498T544 384Q544 338 524 294T466 216T378 160T267 139ZM141 -11Q117 -11 103 8T83 70T77 187Q77 268 82 340T92 469T97 561Q97 590 96 608T92 640T89 670Q89 691 98
700T125 710Q145 710 157 696T175 660T184 614T186 566Q186 522 181 464T170 341T165 219Q165 168 167 138T171 91T175 60T177 26Q177 9 167 -1T141 -11Z" />
<glyph unicode="&#xdf;" horiz-adv-x="656" d="M377 -19Q310 -19 276 4T242 60Q242 75 251 86T279 97Q288 97 294 93T309 82T333 72T376 67Q430 67 473 83T533 136Q527 159 504 174T450 200T385 221T322 247T274 287T256 348Q256 380 275 400T323 435T381 464T430
498T454 547Q451 609 414 640T320 671Q231 671 183 605T135 422Q135 365 140 310T151 192T156 44Q156 11 147 0T120 -12Q99 -12 82 8T65 66Q65 129 62 175T55 260T49 342T46 440Q46 542 82 613T178 722T312 760Q378 760 430 737T513 667T544 554Q544 510 526 481T481
433T425 400T373 376T339 351Q345 330 367 317T421 294T487 274T550 247T598 206T617 143Q617 87 583 51T494 -2T377 -19Z" />
<glyph unicode="&#xe0;" horiz-adv-x="622" d="M202 -10Q157 -10 124 11T72 70T54 159Q54 207 69 256T111 349T175 427T258 480T354 500Q377 500 392 488T407 452Q407 440 400 432T377 421Q307 412 255 372T173 275T144 156Q144 127 149 104T171 43L119 112Q142
89 157 82T200 75Q264 75 314 151T388 372Q392 391 402 401T429 412Q453 412 470 394T491 345Q500 287 510 242T541 156T595 70Q604 60 605 47T602 22T588 1T565 -7Q551 -7 542 -1T525 14Q506 41 489 67T458 128T434 210T420 323L453 324Q439 232 413 168T352 65T279
8T202 -10ZM327 568Q299 568 272 583T221 622T184 674T170 727Q170 750 182 763T219 777Q240 777 252 766T279 719Q289 688 304 671T333 644T357 626T367 604Q367 588 358 578T327 568Z" />
<glyph unicode="&#xe1;" horiz-adv-x="622" d="M202 -10Q157 -10 124 11T72 70T54 159Q54 207 69 256T111 349T175 427T258 480T354 500Q377 500 392 488T407 452Q407 440 400 432T377 421Q307 412 255 372T173 275T144 156Q144 127 149 104T171 43L119 112Q142
89 157 82T200 75Q264 75 314 151T388 372Q392 391 402 401T429 412Q453 412 470 394T491 345Q500 287 510 242T541 156T595 70Q604 60 605 47T602 22T588 1T565 -7Q551 -7 542 -1T525 14Q506 41 489 67T458 128T434 210T420 323L453 324Q439 232 413 168T352 65T279
8T202 -10ZM301 569Q282 569 271 577T260 599Q260 614 271 624T301 649Q327 670 337 687T355 733Q364 761 375 771T402 781Q428 781 440 768T452 731Q452 690 429 653T371 592T301 569Z" />
<glyph unicode="&#xe2;" horiz-adv-x="622" d="M202 -10Q157 -10 124 11T72 70T54 159Q54 207 69 256T111 349T175 427T258 480T354 500Q377 500 392 488T407 452Q407 440 400 432T377 421Q307 412 255 372T173 275T144 156Q144 127 149 104T171 43L119 112Q142
89 157 82T200 75Q264 75 314 151T388 372Q392 391 402 401T429 412Q453 412 470 394T491 345Q500 287 510 242T541 156T595 70Q604 60 605 47T602 22T588 1T565 -7Q551 -7 542 -1T525 14Q506 41 489 67T458 128T434 210T420 323L453 324Q439 232 413 168T352 65T279
8T202 -10ZM180 566Q167 566 157 571T140 586T134 604Q134 611 139 619T161 645T216 694Q246 720 262 736T292 760T325 768Q348 768 364 758T400 718Q423 685 442 666T477 635T500 615T508 593Q508 582 498 575T468 567Q444 567 422 576T373 612T307 692H335Q293
647 267 622T224 584T198 569T180 566Z" />
<glyph unicode="&#xe3;" horiz-adv-x="622" d="M202 -10Q157 -10 124 11T72 70T54 159Q54 207 69 256T111 349T175 427T258 480T354 500Q377 500 392 488T407 452Q407 440 400 432T377 421Q307 412 255 372T173 275T144 156Q144 127 149 104T171 43L119 112Q142
89 157 82T200 75Q264 75 314 151T388 372Q392 391 402 401T429 412Q453 412 470 394T491 345Q500 287 510 242T541 156T595 70Q604 60 605 47T602 22T588 1T565 -7Q551 -7 542 -1T525 14Q506 41 489 67T458 128T434 210T420 323L453 324Q439 232 413 168T352 65T279
8T202 -10ZM164 595Q144 595 131 611T118 652Q118 679 129 706T164 750T231 768Q267 768 292 754T335 722T368 689T401 675Q421 675 431 684T445 707T453 735T462 758T482 767Q499 767 510 755T522 713Q522 657 491 622T405 587Q374 587 352 600T312 632T277 663T239
677Q216 677 208 665T196 636T187 607T164 595Z" />
<glyph unicode="&#xe4;" horiz-adv-x="622" d="M202 -10Q157 -10 124 11T72 70T54 159Q54 207 69 256T111 349T175 427T258 480T354 500Q377 500 392 488T407 452Q407 440 400 432T377 421Q307 412 255 372T173 275T144 156Q144 127 149 104T171 43L119 112Q142
89 157 82T200 75Q264 75 314 151T388 372Q392 391 402 401T429 412Q453 412 470 394T491 345Q500 287 510 242T541 156T595 70Q604 60 605 47T602 22T588 1T565 -7Q551 -7 542 -1T525 14Q506 41 489 67T458 128T434 210T420 323L453 324Q439 232 413 168T352 65T279
8T202 -10ZM441 583Q410 583 388 607T365 662Q365 688 384 705T430 723Q455 723 473 710T500 677T510 638Q510 619 495 601T441 583ZM206 575Q184 575 167 586T139 615T129 656Q129 683 145 701T190 719Q218 719 236 706T265 672T275 631Q275 606 259 591T206 575Z"
/>
<glyph unicode="&#xe5;" horiz-adv-x="622" d="M202 -10Q157 -10 124 11T72 70T54 159Q54 207 69 256T111 349T175 427T258 480T354 500Q377 500 392 488T407 452Q407 440 400 432T377 421Q307 412 255 372T173 275T144 156Q144 127 149 104T171 43L119 112Q142
89 157 82T200 75Q264 75 314 151T388 372Q392 391 402 401T429 412Q453 412 470 394T491 345Q500 287 510 242T541 156T595 70Q604 60 605 47T602 22T588 1T565 -7Q551 -7 542 -1T525 14Q506 41 489 67T458 128T434 210T420 323L453 324Q439 232 413 168T352 65T279
8T202 -10ZM325 554Q266 554 224 575T160 633T137 721Q137 752 149 780T184 831T235 867T294 880Q313 880 322 870T332 841Q332 829 324 820T296 803Q257 788 243 767T228 713Q228 677 253 656T317 635Q360 635 382 657T404 722Q404 753 384 773T330 793Q299 793
284 783T259 763T236 753Q216 753 208 759T200 784Q200 821 232 847T325 873Q379 873 416 854T474 801T494 721Q494 674 472 636T412 576T325 554Z" />
<glyph unicode="&#xe6;" horiz-adv-x="886" d="M584 -10Q514 -10 469 16T402 89T380 196Q380 250 398 303T451 402T534 474T644 501Q713 501 754 464T796 353Q796 298 764 260T675 201T549 180Q488 180 459 198T429 235Q429 247 435 253T455 259Q469 259 487 254T542
249Q593 249 630 262T689 298T711 350Q711 383 695 399T640 416Q589 416 549 386T485 305T461 198Q461 163 473 134T512 88T584 71Q638 71 674 84T735 113T776 141T808 154Q820 154 825 147T831 126Q831 103 812 80T758 36T679 3T584 -10ZM197 -10Q150 -10 115
6T61 54T41 135Q41 190 74 229T163 288T291 309Q352 309 381 291T410 255Q410 243 405 237T384 230Q372 230 353 235T298 241Q219 241 173 213T126 140Q126 108 143 91T200 74Q253 74 293 104T356 185T379 291Q379 327 369 355T336 401T275 418Q232 418 204 411T156
394T124 377T98 369Q83 369 76 378T68 403Q68 424 96 447T171 485T272 501Q337 501 378 475T439 402T459 295Q459 241 441 188T389 89T306 17T197 -10Z" />
<glyph unicode="&#xe7;" horiz-adv-x="504" d="M282 -9Q211 -9 160 19T82 99T54 220Q54 279 77 330T142 419T237 479T351 501Q371 501 388 496T416 477T427 440Q427 422 419 410T393 398Q382 398 376 401T362 408T337 412Q282 412 239 386T170 315T144 212Q144
171 160 141T208 94T282 77Q326 77 349 86T385 108T406 130T429 140Q443 140 451 131T459 106Q459 72 436 47T372 6T282 -9ZM208 -219Q175 -219 157 -207T138 -172Q138 -153 148 -144T188 -132Q251 -128 273 -110T296 -61Q296 -39 289 -28T272 -11T255 1T248 17Q248
28 257 35T285 43Q328 43 357 8T386 -82Q386 -143 339 -181T208 -219Z" />
<glyph unicode="&#xe8;" horiz-adv-x="566" d="M272 -10Q215 -10 175 6T108 52T69 122T56 210Q56 261 74 312T128 406T212 475T322 501Q369 501 404 484T458 434T478 349Q478 308 459 277T407 225T328 192T231 180Q171 180 147 196T123 233Q123 245 129 250T149
256Q160 256 176 253T224 249Q274 249 311 261T371 297T393 350Q393 384 376 401T320 418Q281 418 249 400T193 351T156 281T143 198Q143 162 155 134T194 88T267 70Q321 70 357 83T418 112T458 141T489 154Q503 154 508 146T513 120Q513 100 494 78T440 35T363
3T272 -10ZM305 568Q277 568 250 583T199 622T162 674T148 727Q148 750 160 763T197 777Q218 777 230 766T257 719Q267 688 282 671T311 644T335 626T345 604Q345 588 336 578T305 568Z" />
<glyph unicode="&#xe9;" horiz-adv-x="566" d="M272 -10Q215 -10 175 6T108 52T69 122T56 210Q56 261 74 312T128 406T212 475T322 501Q369 501 404 484T458 434T478 349Q478 308 459 277T407 225T328 192T231 180Q171 180 147 196T123 233Q123 245 129 250T149
256Q160 256 176 253T224 249Q274 249 311 261T371 297T393 350Q393 384 376 401T320 418Q281 418 249 400T193 351T156 281T143 198Q143 162 155 134T194 88T267 70Q321 70 357 83T418 112T458 141T489 154Q503 154 508 146T513 120Q513 100 494 78T440 35T363
3T272 -10ZM279 569Q260 569 249 577T238 599Q238 614 249 624T279 649Q305 670 315 687T333 733Q342 761 353 771T380 781Q406 781 418 768T430 731Q430 690 407 653T349 592T279 569Z" />
<glyph unicode="&#xea;" horiz-adv-x="566" d="M272 -10Q215 -10 175 6T108 52T69 122T56 210Q56 261 74 312T128 406T212 475T322 501Q369 501 404 484T458 434T478 349Q478 308 459 277T407 225T328 192T231 180Q171 180 147 196T123 233Q123 245 129 250T149
256Q160 256 176 253T224 249Q274 249 311 261T371 297T393 350Q393 384 376 401T320 418Q281 418 249 400T193 351T156 281T143 198Q143 162 155 134T194 88T267 70Q321 70 357 83T418 112T458 141T489 154Q503 154 508 146T513 120Q513 100 494 78T440 35T363
3T272 -10ZM158 566Q145 566 135 571T118 586T112 604Q112 611 117 619T139 645T194 694Q224 720 240 736T270 760T303 768Q326 768 342 758T378 718Q401 685 420 666T455 635T478 615T486 593Q486 582 476 575T446 567Q422 567 400 576T351 612T285 692H313Q271
647 245 622T202 584T176 569T158 566Z" />
<glyph unicode="&#xeb;" horiz-adv-x="566" d="M272 -10Q215 -10 175 6T108 52T69 122T56 210Q56 261 74 312T128 406T212 475T322 501Q369 501 404 484T458 434T478 349Q478 308 459 277T407 225T328 192T231 180Q171 180 147 196T123 233Q123 245 129 250T149
256Q160 256 176 253T224 249Q274 249 311 261T371 297T393 350Q393 384 376 401T320 418Q281 418 249 400T193 351T156 281T143 198Q143 162 155 134T194 88T267 70Q321 70 357 83T418 112T458 141T489 154Q503 154 508 146T513 120Q513 100 494 78T440 35T363
3T272 -10ZM419 583Q388 583 366 607T343 662Q343 688 362 705T408 723Q433 723 451 710T478 677T488 638Q488 619 473 601T419 583ZM184 575Q162 575 145 586T117 615T107 656Q107 683 123 701T168 719Q196 719 214 706T243 672T253 631Q253 606 237 591T184 575Z"
/>
<glyph unicode="&#xec;" horiz-adv-x="284" d="M142 -11Q125 -11 114 -3T98 22T92 62Q92 140 92 195T92 290T91 366T91 440Q91 458 96 471T112 492T140 500Q162 500 176 485T192 439Q192 417 191 377T189 287T186 189T184 98T183 33Q183 14 173 2T142 -11ZM148
568Q120 568 93 583T42 622T5 674T-9 727Q-9 750 3 763T40 777Q61 777 73 766T100 719Q110 688 125 671T154 644T178 626T188 604Q188 588 179 578T148 568Z" />
<glyph unicode="&#xed;" horiz-adv-x="284" d="M142 -11Q125 -11 114 -3T98 22T92 62Q92 140 92 195T92 290T91 366T91 440Q91 458 96 471T112 492T140 500Q162 500 176 485T192 439Q192 417 191 377T189 287T186 189T184 98T183 33Q183 14 173 2T142 -11ZM122
569Q103 569 92 577T81 599Q81 614 92 624T122 649Q148 670 158 687T176 733Q185 761 196 771T223 781Q249 781 261 768T273 731Q273 690 250 653T192 592T122 569Z" />
<glyph unicode="&#xee;" horiz-adv-x="284" d="M142 -11Q125 -11 114 -3T98 22T92 62Q92 140 92 195T92 290T91 366T91 440Q91 458 96 471T112 492T140 500Q162 500 176 485T192 439Q192 417 191 377T189 287T186 189T184 98T183 33Q183 14 173 2T142 -11ZM1 566Q-12
566 -22 571T-39 586T-45 604Q-45 611 -40 619T-18 645T37 694Q67 720 83 736T113 760T146 768Q169 768 185 758T221 718Q244 685 263 666T298 635T321 615T329 593Q329 582 319 575T289 567Q265 567 243 576T194 612T128 692H156Q114 647 88 622T45 584T19 569T1
566Z" />
<glyph unicode="&#xef;" horiz-adv-x="284" d="M142 -11Q125 -11 114 -3T98 22T92 62Q92 140 92 195T92 290T91 366T91 440Q91 458 96 471T112 492T140 500Q162 500 176 485T192 439Q192 417 191 377T189 287T186 189T184 98T183 33Q183 14 173 2T142 -11ZM262
583Q231 583 209 607T186 662Q186 688 205 705T251 723Q276 723 294 710T321 677T331 638Q331 619 316 601T262 583ZM27 575Q5 575 -12 586T-40 615T-50 656Q-50 683 -34 701T11 719Q39 719 57 706T86 672T96 631Q96 606 80 591T27 575Z" />
<glyph unicode="&#xf0;" horiz-adv-x="599" d="M294 -10Q237 -10 194 8T120 56T75 124T59 205Q59 266 81 315T148 394T259 423Q322 423 366 406T434 363T458 314Q458 300 452 292T429 284Q417 284 406 292T378 312T337 332T271 341Q225 341 199 322T161 274T149
215Q149 165 169 135T222 90T293 75Q338 75 372 90T427 142T447 240Q447 302 413 374T318 521T175 662Q145 686 137 697T129 723Q129 741 140 750T168 760Q177 760 186 757T208 745T240 720Q333 641 399 558T501 393T536 239Q536 162 511 106T433 20T294 -10ZM138
513Q112 502 96 509T79 536Q79 556 91 571T148 601Q228 629 307 646T458 663Q483 663 500 651T517 621Q517 605 509 598T480 589Q403 583 346 574T241 549T138 513Z" />
<glyph unicode="&#xf1;" horiz-adv-x="612" d="M530 -9Q500 -9 477 18T442 108T429 272Q429 320 427 349T421 395T408 422T388 443Q408 444 422 439T444 419T452 380Q438 401 429 408T405 415Q385 415 359 390T305 318T251 209T205 69Q195 25 182 8T147 -9Q110
-9 91 36T72 151Q72 202 76 240T86 311T96 379T101 459Q101 478 110 488T137 499Q160 499 172 483T185 428Q185 395 180 364T168 297T158 214T157 102L139 107Q173 236 217 324T311 457T409 502Q444 502 467 483T503 430T515 348Q515 270 516 214T526 122T557 67Q567
59 571 50T575 27Q575 14 565 3T530 -9ZM154 595Q134 595 121 611T108 652Q108 679 119 706T154 750T221 768Q257 768 282 754T325 722T358 689T391 675Q411 675 421 684T435 707T443 735T452 758T472 767Q489 767 500 755T512 713Q512 657 481 622T395 587Q364
587 342 600T302 632T267 663T229 677Q206 677 198 665T186 636T177 607T154 595Z" />
<glyph unicode="&#xf2;" horiz-adv-x="606" d="M318 -12Q242 -12 183 20T90 110T56 242Q56 298 76 343T128 422T190 472T244 490Q255 490 262 487T275 478T280 460Q280 440 272 424T237 394Q205 375 185 353T155 304T145 246Q145 165 191 117T315 68Q381 68 421
118T461 253Q461 330 427 373T332 417Q300 417 281 405T242 373Q226 358 219 346T203 328T182 321Q168 321 160 329T151 359Q151 382 165 406T204 451T259 485T322 498Q393 498 444 468T522 382T550 250Q550 176 520 117T437 23T318 -12ZM330 568Q302 568 275 583T224
622T187 674T173 727Q173 750 185 763T222 777Q243 777 255 766T282 719Q292 688 307 671T336 644T360 626T370 604Q370 588 361 578T330 568Z" />
<glyph unicode="&#xf3;" horiz-adv-x="606" d="M318 -12Q242 -12 183 20T90 110T56 242Q56 298 76 343T128 422T190 472T244 490Q255 490 262 487T275 478T280 460Q280 440 272 424T237 394Q205 375 185 353T155 304T145 246Q145 165 191 117T315 68Q381 68 421
118T461 253Q461 330 427 373T332 417Q300 417 281 405T242 373Q226 358 219 346T203 328T182 321Q168 321 160 329T151 359Q151 382 165 406T204 451T259 485T322 498Q393 498 444 468T522 382T550 250Q550 176 520 117T437 23T318 -12ZM304 569Q285 569 274 577T263
599Q263 614 274 624T304 649Q330 670 340 687T358 733Q367 761 378 771T405 781Q431 781 443 768T455 731Q455 690 432 653T374 592T304 569Z" />
<glyph unicode="&#xf4;" horiz-adv-x="606" d="M318 -12Q242 -12 183 20T90 110T56 242Q56 298 76 343T128 422T190 472T244 490Q255 490 262 487T275 478T280 460Q280 440 272 424T237 394Q205 375 185 353T155 304T145 246Q145 165 191 117T315 68Q381 68 421
118T461 253Q461 330 427 373T332 417Q300 417 281 405T242 373Q226 358 219 346T203 328T182 321Q168 321 160 329T151 359Q151 382 165 406T204 451T259 485T322 498Q393 498 444 468T522 382T550 250Q550 176 520 117T437 23T318 -12ZM183 566Q170 566 160 571T143
586T137 604Q137 611 142 619T164 645T219 694Q249 720 265 736T295 760T328 768Q351 768 367 758T403 718Q426 685 445 666T480 635T503 615T511 593Q511 582 501 575T471 567Q447 567 425 576T376 612T310 692H338Q296 647 270 622T227 584T201 569T183 566Z"
/>
<glyph unicode="&#xf5;" horiz-adv-x="606" d="M318 -12Q242 -12 183 20T90 110T56 242Q56 298 76 343T128 422T190 472T244 490Q255 490 262 487T275 478T280 460Q280 440 272 424T237 394Q205 375 185 353T155 304T145 246Q145 165 191 117T315 68Q381 68 421
118T461 253Q461 330 427 373T332 417Q300 417 281 405T242 373Q226 358 219 346T203 328T182 321Q168 321 160 329T151 359Q151 382 165 406T204 451T259 485T322 498Q393 498 444 468T522 382T550 250Q550 176 520 117T437 23T318 -12ZM167 595Q147 595 134 611T121
652Q121 679 132 706T167 750T234 768Q270 768 295 754T338 722T371 689T404 675Q424 675 434 684T448 707T456 735T465 758T485 767Q502 767 513 755T525 713Q525 657 494 622T408 587Q377 587 355 600T315 632T280 663T242 677Q219 677 211 665T199 636T190 607T167
595Z" />
<glyph unicode="&#xf6;" horiz-adv-x="606" d="M318 -12Q242 -12 183 20T90 110T56 242Q56 298 76 343T128 422T190 472T244 490Q255 490 262 487T275 478T280 460Q280 440 272 424T237 394Q205 375 185 353T155 304T145 246Q145 165 191 117T315 68Q381 68 421
118T461 253Q461 330 427 373T332 417Q300 417 281 405T242 373Q226 358 219 346T203 328T182 321Q168 321 160 329T151 359Q151 382 165 406T204 451T259 485T322 498Q393 498 444 468T522 382T550 250Q550 176 520 117T437 23T318 -12ZM444 583Q413 583 391 607T368
662Q368 688 387 705T433 723Q458 723 476 710T503 677T513 638Q513 619 498 601T444 583ZM209 575Q187 575 170 586T142 615T132 656Q132 683 148 701T193 719Q221 719 239 706T268 672T278 631Q278 606 262 591T209 575Z" />
<glyph unicode="&#xf7;" horiz-adv-x="700" d="M134 257Q109 252 96 264T82 295Q83 316 94 329T148 351Q211 362 279 371T415 385T543 391Q571 391 588 378T606 345Q606 329 597 321T564 311Q484 308 422 303T311 290T219 274T134 257ZM358 38Q319 38 293 64T267
126Q267 152 283 168T324 184Q354 184 374 171T404 137T415 95Q415 73 402 56T358 38ZM363 465Q325 465 299 490T273 553Q273 579 289 595T330 611Q359 611 379 597T410 563T420 522Q420 500 407 483T363 465Z" />
<glyph unicode="&#xf8;" horiz-adv-x="616" d="M321 -12Q245 -12 186 20T93 110T59 242Q59 298 79 343T131 421T193 471T247 489Q258 489 266 486T278 477T283 460Q283 439 275 424T240 396Q208 376 188 354T157 305T147 246Q147 166 193 118T318 69Q385 69 425
119T465 253Q465 331 430 376T334 421Q303 421 283 410T243 379Q228 364 220 352T205 334T183 327Q169 327 161 335T152 365Q152 387 166 410T206 454T261 487T325 500Q396 500 447 470T525 383T553 250Q553 176 523 117T440 23T321 -12ZM198 78Q187 78 179 85T170
104Q170 119 176 136T202 180T257 249T351 357T496 517Q518 541 534 550T569 559Q589 559 598 545T602 508T570 459Q478 366 417 301T319 192T259 124T224 89T198 78ZM82 -99Q64 -99 53 -88T40 -58T50 -22Q80 23 99 50T133 90T162 102Q183 102 194 92T206 60Q206
52 197 37T169 -4T127 -66Q116 -82 105 -90T82 -99Z" />
<glyph unicode="&#xf9;" horiz-adv-x="578" d="M300 -10Q238 -10 193 16T118 87T75 186T61 294Q61 342 68 383T90 462Q96 477 105 484T130 492Q149 492 160 480T172 446Q172 430 169 417T161 387T153 349T149 293Q149 244 159 204T189 135T237 90T298 74Q339 74
368 104T412 195T427 344Q427 372 426 390T423 423T421 454Q421 474 428 484T453 495Q473 495 486 482T507 438T515 350Q515 229 489 149T414 30T300 -10ZM305 568Q277 568 250 583T199 622T162 674T148 727Q148 750 160 763T197 777Q218 777 230 766T257 719Q267
688 282 671T311 644T335 626T345 604Q345 588 336 578T305 568Z" />
<glyph unicode="&#xfa;" horiz-adv-x="578" d="M300 -10Q238 -10 193 16T118 87T75 186T61 294Q61 342 68 383T90 462Q96 477 105 484T130 492Q149 492 160 480T172 446Q172 430 169 417T161 387T153 349T149 293Q149 244 159 204T189 135T237 90T298 74Q339 74
368 104T412 195T427 344Q427 372 426 390T423 423T421 454Q421 474 428 484T453 495Q473 495 486 482T507 438T515 350Q515 229 489 149T414 30T300 -10ZM279 569Q260 569 249 577T238 599Q238 614 249 624T279 649Q305 670 315 687T333 733Q342 761 353 771T380
781Q406 781 418 768T430 731Q430 690 407 653T349 592T279 569Z" />
<glyph unicode="&#xfb;" horiz-adv-x="578" d="M300 -10Q238 -10 193 16T118 87T75 186T61 294Q61 342 68 383T90 462Q96 477 105 484T130 492Q149 492 160 480T172 446Q172 430 169 417T161 387T153 349T149 293Q149 244 159 204T189 135T237 90T298 74Q339 74
368 104T412 195T427 344Q427 372 426 390T423 423T421 454Q421 474 428 484T453 495Q473 495 486 482T507 438T515 350Q515 229 489 149T414 30T300 -10ZM158 566Q145 566 135 571T118 586T112 604Q112 611 117 619T139 645T194 694Q224 720 240 736T270 760T303
768Q326 768 342 758T378 718Q401 685 420 666T455 635T478 615T486 593Q486 582 476 575T446 567Q422 567 400 576T351 612T285 692H313Q271 647 245 622T202 584T176 569T158 566Z" />
<glyph unicode="&#xfc;" horiz-adv-x="578" d="M300 -10Q238 -10 193 16T118 87T75 186T61 294Q61 342 68 383T90 462Q96 477 105 484T130 492Q149 492 160 480T172 446Q172 430 169 417T161 387T153 349T149 293Q149 244 159 204T189 135T237 90T298 74Q339 74
368 104T412 195T427 344Q427 372 426 390T423 423T421 454Q421 474 428 484T453 495Q473 495 486 482T507 438T515 350Q515 229 489 149T414 30T300 -10ZM419 583Q388 583 366 607T343 662Q343 688 362 705T408 723Q433 723 451 710T478 677T488 638Q488 619 473
601T419 583ZM184 575Q162 575 145 586T117 615T107 656Q107 683 123 701T168 719Q196 719 214 706T243 672T253 631Q253 606 237 591T184 575Z" />
<glyph unicode="&#xfd;" horiz-adv-x="575" d="M292 -261Q232 -261 189 -251T124 -221T101 -175Q101 -159 110 -150T138 -140Q151 -140 161 -145T186 -156T225 -167T289 -172Q338 -172 365 -152T404 -93T416 -5Q416 24 414 52T408 112T402 186T398 287L432 258Q414
189 391 146T341 79T289 47T242 38Q186 38 146 70T84 169T62 343Q62 410 69 444T88 490T116 502Q132 502 142 495T156 470T158 424Q155 361 156 306T167 211T193 148T237 125Q279 125 310 168T362 286T393 454Q396 482 403 491T429 501Q440 501 450 496T468 480T479
449T480 400Q475 349 476 311T481 240T490 172T499 95T503 -5Q503 -72 488 -120T444 -200T377 -246T292 -261ZM257 569Q238 569 227 577T216 599Q216 614 227 624T257 649Q283 670 293 687T311 733Q320 761 331 771T358 781Q384 781 396 768T408 731Q408 690 385
653T327 592T257 569Z" />
<glyph unicode="&#xfe;" horiz-adv-x="602" d="M322 -10Q266 -10 222 7T153 49T128 99Q128 113 134 122T158 132Q171 132 182 124T207 105T247 85T313 77Q377 77 417 105T458 203Q458 266 431 313T356 387T247 413Q211 413 194 408T161 403Q151 403 142 408T129
422T124 442Q124 469 151 484T242 500Q307 500 363 479T461 418T527 321T551 193Q551 130 522 85T442 15T322 -10ZM147 -260Q131 -260 116 -249T89 -211T70 -141T63 -37Q63 92 69 194T83 380T90 536Q90 576 88 603T83 650T78 684T75 716Q75 737 84 748T108 760Q128
760 144 741T170 677T180 556Q180 478 174 388T161 197T155 -14Q155 -71 159 -104T170 -157T180 -191T184 -223Q184 -241 174 -250T147 -260Z" />
<glyph unicode="&#xff;" horiz-adv-x="575" d="M292 -261Q232 -261 189 -251T124 -221T101 -175Q101 -159 110 -150T138 -140Q151 -140 161 -145T186 -156T225 -167T289 -172Q338 -172 365 -152T404 -93T416 -5Q416 24 414 52T408 112T402 186T398 287L432 258Q414
189 391 146T341 79T289 47T242 38Q186 38 146 70T84 169T62 343Q62 410 69 444T88 490T116 502Q132 502 142 495T156 470T158 424Q155 361 156 306T167 211T193 148T237 125Q279 125 310 168T362 286T393 454Q396 482 403 491T429 501Q440 501 450 496T468 480T479
449T480 400Q475 349 476 311T481 240T490 172T499 95T503 -5Q503 -72 488 -120T444 -200T377 -246T292 -261ZM397 583Q366 583 344 607T321 662Q321 688 340 705T386 723Q411 723 429 710T456 677T466 638Q466 619 451 601T397 583ZM162 575Q140 575 123 586T95
615T85 656Q85 683 101 701T146 719Q174 719 192 706T221 672T231 631Q231 606 215 591T162 575Z" />
<glyph unicode="&#x2013;" horiz-adv-x="700" d="M136 205Q109 205 90 211T62 228T52 249Q52 259 58 269T85 281Q206 291 319 294T548 297Q585 297 606 289T637 269T647 249Q647 233 634 224T597 215Q487 215 410 214T281 210T195 207T136 205Z" />
<glyph unicode="&#x2014;" horiz-adv-x="1000" d="M130 205Q105 205 88 211T61 226T52 246Q52 257 60 268T91 281Q290 291 475 294T854 297Q888 297 909 290T939 272T948 252Q948 235 933 225T892 215Q711 215 584 214T371 210T227 207T130 205Z" />
<glyph unicode="&#x2018;" horiz-adv-x="224" d="M95 466Q82 466 72 475T57 500T51 534Q51 588 74 650T138 765Q160 794 174 802T204 810Q217 810 226 802T240 782T245 758Q245 750 241 741T222 714Q182 665 163 617T137 526Q131 492 122 479T95 466Z" />
<glyph unicode="&#x2019;" horiz-adv-x="234" d="M66 435Q46 435 36 452T38 492Q60 527 77 566T107 653T124 758Q127 786 138 799T173 812Q190 812 202 805T222 785T230 752Q230 719 222 680T199 600T166 526T129 472Q108 450 95 443T66 435Z" />
<glyph unicode="&#x201a;" horiz-adv-x="266" d="M26 -210Q6 -210 -4 -193T-2 -153Q20 -118 37 -79T67 8T84 113Q87 141 98 154T133 167Q150 167 162 160T182 140T190 107Q190 74 182 35T159 -45T126 -119T89 -173Q68 -195 55 -202T26 -210Z" />
<glyph unicode="&#x201c;" horiz-adv-x="489" d="M103 459Q91 459 82 469T67 497T61 534Q61 588 84 650T148 765Q170 794 184 802T214 810Q228 810 237 802T252 781T257 757Q257 748 253 739T234 711Q194 663 176 617T148 528Q140 489 130 474T103 459ZM338 413Q326
413 317 423T303 449T297 485Q297 528 312 580T356 672Q376 700 390 708T420 716Q434 716 443 709T458 692T463 672Q463 662 459 651T439 619Q411 583 400 548T381 482Q372 443 363 428T338 413Z" />
<glyph unicode="&#x201d;" horiz-adv-x="496" d="M91 434Q75 434 65 443T55 468Q55 488 66 512T92 568T121 639T141 731Q145 776 157 794T192 812Q216 812 231 796T247 758Q247 730 240 694T218 619T187 544T149 477Q133 455 120 445T91 434ZM346 423Q330 423
321 431T311 454Q311 472 319 490T340 532T363 590T379 672Q384 714 396 726T424 739Q447 739 461 725T476 681Q476 635 459 578T403 463Q389 441 375 432T346 423Z" />
<glyph unicode="&#x201e;" horiz-adv-x="477" d="M23 -202Q7 -202 -3 -193T-13 -168Q-13 -148 -2 -124T24 -68T53 3T73 95Q77 140 89 158T124 176Q148 176 163 160T179 122Q179 94 172 58T150 -17T119 -92T81 -159Q65 -181 52 -191T23 -202ZM278 -213Q262 -213
253 -205T243 -182Q243 -164 251 -146T272 -104T295 -46T311 36Q316 78 328 90T356 103Q379 103 393 89T408 45Q408 -1 391 -58T335 -173Q321 -195 307 -204T278 -213Z" />
<glyph unicode="&#x2022;" horiz-adv-x="500" d="M251 133Q213 133 184 147T138 188T121 253Q121 285 133 312T163 355T197 371Q210 371 216 365Q226 376 238 379T274 383Q326 383 352 350T378 257Q377 200 341 167T251 133Z" />
<glyph unicode="&#x2039;" horiz-adv-x="347" d="M265 18Q256 18 248 20T225 29Q194 45 158 74T91 139T45 213Q37 236 37 251T49 284Q69 314 99 346T162 407T218 450Q234 460 243 463T258 466Q276 466 287 453T298 421Q298 409 293 400T272 381Q245 364 216 339T158
283T109 218L113 266Q127 231 155 199T218 140T285 100Q298 96 304 87T310 63Q310 39 296 29T265 18Z" />
<glyph unicode="&#x203a;" horiz-adv-x="371" d="M97 18Q79 18 68 31T57 63Q57 75 63 85T84 104Q112 122 144 149T208 211T263 282L256 233Q244 267 214 299T145 356T66 394Q52 398 45 407T37 429Q37 453 52 464T83 476Q92 476 100 474T124 466Q163 451 204 423T279
360T326 288Q335 264 334 249T322 216Q306 192 283 166T233 113T182 67T137 34Q121 24 113 21T97 18Z" />
</font>
</defs>
</svg>
