<?xml version="1.0" standalone="no"?>
<!DOCTYPE svg PUBLIC "-//W3C//DTD SVG 1.1//EN" "http://www.w3.org/Graphics/SVG/1.1/DTD/svg11.dtd">
<svg xmlns="http://www.w3.org/2000/svg">
<defs >
<font id="DavidLibre" horiz-adv-x="1025" ><font-face
    font-family="David Libre"
    units-per-em="2048"
    panose-1="0 0 0 0 0 0 0 0 0 0"
    ascent="1599"
    descent="-449"
    alphabetic="0" />
<glyph unicode=" " glyph-name="space" horiz-adv-x="420" />
<glyph unicode="!" glyph-name="exclam" horiz-adv-x="736" d="M364 362Q353 362 349 380T342 414Q337 471 330 551T316 717T302 882T291 1014T287 1084Q287 1114 298 1131Q326 1179 350 1213T403 1271Q414 1279 421 1279Q436 1279 436 1260Q436 1240 437 1182T440
1057T441 944V525Q441 518 441 509T438 489Q428 457 410 424T382 376Q378 371 375 367T364 362ZM400 -43Q393 -43 387 -39Q368 -28 334 5T279 61Q270 74 270 82Q270 91 276 97Q302 123 326 151T364 199Q370 208 380 208Q385 208 388 206T396 200Q407 193 428 173T470
133T500 108Q515 97 515 86Q515 81 513 77T506 65Q500 54 483 32T445 -10T412 -39Q406 -43 400 -43Z" />
<glyph unicode="&quot;" glyph-name="quotedbl" horiz-adv-x="1009" d="M724 459Q719 459 711 465T703 489L641 939Q641 952 642 965T650 987Q670 1010 704 1048T765 1113Q775 1122 785 1122Q792 1122 799 1113Q805 1103 806 1093T810 1062Q812 1044 814 999T816
925Q816 909 813 884T807 837Q803 807 794 749T775 622T753 487Q748 459 724 459ZM303 459Q298 459 290 465T282 489L221 939Q221 952 222 965T229 987Q249 1010 283 1048T344 1113Q353 1122 364 1122Q373 1122 378 1113Q383 1103 384 1093T389 1062Q390 1044 392
999T395 925Q395 909 392 884T385 837Q382 807 373 749T354 622T332 487Q327 459 303 459Z" />
<glyph unicode="#" glyph-name="numbersign" horiz-adv-x="1022" d="M137 -118Q116 -118 116 -101Q116 -95 122 -71T135 -29Q158 52 181 135T224 306Q224 319 214 319H17Q-9 319 -9 335Q-9 343 -5 349Q17 384 45 418T88 468Q99 477 108 479T125 482H255Q269 482
269 493Q284 558 297 625T325 760Q325 771 315 771H129Q102 771 102 787Q102 793 106 801Q128 836 156 870T199 920Q210 929 219 931T236 934H346Q360 934 362 948L414 1236Q416 1253 421 1266T439 1286L486 1319Q495 1325 503 1330T518 1335Q530 1335 530 1320Q530
1309 523 1284T511 1235Q480 1103 466 1041T447 960T443 941Q443 934 455 934H665Q676 934 681 948Q695 1021 707 1094T732 1236Q734 1253 739 1266T756 1286L803 1319Q813 1325 820 1330T835 1335Q848 1335 848 1320Q848 1309 841 1284T828 1235Q798 1102 784
1040T765 960T760 941Q760 934 769 934H975Q1002 934 1002 916Q1002 907 993 893Q973 861 952 835T910 785Q899 771 865 771H737Q718 771 717 756L662 491Q662 482 670 482H864Q891 482 891 464Q891 457 882 441Q862 409 841 384T799 333Q787 319 754 319H636Q626
319 624 314T620 306Q605 234 593 164T566 29Q557 -17 541 -38Q541 -38 523 -58T489 -95Q468 -118 460 -118Q441 -118 441 -101Q441 -95 447 -71T459 -29Q469 9 484 65T513 176T537 270T547 312Q547 319 536 319H317Q305 319 301 305L242 29Q238 9 232 -9T217 -38Q217
-38 199 -58T165 -95Q142 -118 137 -118ZM355 482H568Q588 482 588 494Q588 495 596 534T615 624T634 716T643 761Q643 771 631 771H417Q404 771 402 756L342 489Q342 482 355 482Z" />
<glyph unicode="$" glyph-name="dollar" horiz-adv-x="1020" d="M443 -371Q434 -371 431 -363T428 -347Q428 -276 432 -201T436 -52Q436 -40 433 -36T416 -31Q378 -31 316 -26T193 -9T99 22Q86 29 86 39Q86 44 89 49T95 61Q114 90 141 122T188 174Q195 181 200
181Q208 181 226 176Q250 168 287 157T362 139T423 131Q438 131 438 151Q438 245 438 347T439 543Q439 555 428 559Q407 569 363 592T272 643T195 694Q164 717 142 756T120 860Q120 916 136 968T192 1072Q233 1127 272 1166T403 1238Q419 1244 419 1257V1292Q419
1312 428 1327Q439 1344 450 1359T479 1394Q484 1399 487 1399Q501 1399 501 1371Q501 1351 502 1324T503 1269Q503 1264 513 1264Q598 1264 663 1253T795 1217Q807 1211 807 1199Q807 1191 799 1180Q785 1154 756 1116T713 1065Q703 1054 690 1054Q680 1054 672
1057Q633 1071 598 1083T520 1096Q503 1096 503 1081V749Q503 730 522 720Q557 701 593 681T676 638Q755 599 807 542T860 395Q860 341 820 261T705 105T532 -14Q523 -18 520 -20T516 -31Q516 -80 518 -134T520 -240Q520 -257 518 -265T511 -285Q503 -304 487 -327T459
-364Q451 -371 443 -371ZM421 774Q432 774 432 788Q432 804 431 842T428 925T425 1011T424 1074Q424 1096 407 1096Q338 1096 291 1056T244 956Q244 903 272 871T340 817T416 776Q417 774 421 774ZM529 127Q550 127 585 137T645 169Q665 187 683 221T701 292Q701
341 684 377T643 431Q624 445 586 469T523 506Q522 508 518 508Q508 508 508 496Q508 476 509 427T510 320T512 213T513 145Q513 127 529 127Z" />
<glyph unicode="%" glyph-name="percent" horiz-adv-x="1020" d="M312 667Q265 667 226 692T169 747Q154 770 135 815T115 949Q115 1021 130 1058T156 1113Q170 1136 197 1168T259 1232T323 1281Q337 1289 356 1295T398 1301Q423 1301 439 1295T472 1278Q528 1238
548 1180T568 1050Q568 987 545 921T501 817Q488 792 463 757T399 694T312 667ZM137 0Q116 0 116 18Q116 26 122 36Q168 122 249 265T436 586Q515 717 584 843T701 1063T763 1190Q777 1220 797 1235Q824 1254 842 1265T880 1289Q893 1296 905 1296Q916 1296 916
1285Q916 1278 914 1272T908 1257Q904 1244 879 1198T817 1085T739 946T658 806T590 690T550 624Q531 592 494 530T415 393T335 249T277 135Q251 67 231 52Q183 14 149 2Q145 0 137 0ZM351 816Q402 816 422 847T443 948Q443 989 437 1035T423 1096Q404 1136 376
1149T315 1163Q271 1163 254 1112T236 1002Q236 932 263 874T351 816ZM662 -4Q613 -4 576 22T518 77Q505 95 484 142T462 287Q464 354 480 391T508 445Q531 480 577 530T674 609Q689 617 707 624T747 631Q765 631 784 625T828 602Q879 568 898 504T918 380Q918
317 895 251T851 147Q838 122 812 87T749 24T662 -4ZM699 145Q752 145 773 176T794 277Q794 318 787 364T773 424Q755 464 725 478T663 493Q620 493 603 441T586 325Q586 256 613 201T699 145Z" />
<glyph unicode="&amp;" glyph-name="ampersand" horiz-adv-x="1357" d="M1005 -2Q999 -2 995 1T989 5Q978 17 955 44T910 97T884 131Q847 106 796 76T680 23T539 0Q486 0 426 21T313 86T227 200T193 369Q193 447 222 511T291 624T368 701T417 740Q406 759 390
787T355 865Q345 891 342 920T339 975Q339 1057 395 1135T525 1255Q589 1291 647 1291Q709 1290 762 1241T816 1082Q816 1023 780 966T694 862T604 783Q700 654 786 539T961 315Q987 347 1006 395T1025 489Q1025 548 1008 589T980 650Q977 659 977 663Q977 673
985 681Q997 694 1021 717T1069 764T1104 797Q1112 805 1115 805Q1122 805 1129 792Q1141 769 1154 715T1168 606Q1168 500 1127 417T1019 249Q1048 212 1079 175T1147 99Q1151 95 1155 90T1159 82Q1159 80 1154 77Q1142 70 1104 48T1029 5Q1015 -2 1005 -2ZM557
858Q607 897 638 940T670 1045Q670 1095 633 1132T554 1170Q525 1170 492 1154T459 1093Q459 1030 492 972T557 858ZM640 127Q713 127 764 155T831 199Q814 218 776 266T689 375T595 497T515 604T472 665Q454 653 424 621T369 537T344 414Q344 335 382 270T486
166T640 127Z" />
<glyph unicode="&apos;" glyph-name="quotesingle" horiz-adv-x="556" d="M303 459Q298 459 290 465T282 489L221 939Q221 952 222 965T229 987Q249 1010 283 1048T344 1113Q353 1122 364 1122Q373 1122 378 1113Q383 1103 384 1093T389 1062Q390 1044 392 999T395
925Q395 909 392 882T385 837Q380 807 372 749T353 622T332 487Q327 459 303 459Z" />
<glyph unicode="(" glyph-name="parenleft" horiz-adv-x="736" d="M473 -310Q463 -310 455 -299Q411 -240 352 -150T248 52Q207 150 188 262T169 448Q169 579 203 674T274 846Q290 877 317 927T370 1020T402 1075Q413 1096 425 1115T453 1156Q458 1161 488 1191T545
1243Q555 1251 563 1251Q575 1251 575 1235Q575 1232 554 1191T505 1096T453 997T424 941Q378 839 348 738T317 536Q317 463 334 363T385 176Q422 80 466 7T552 -127Q564 -146 564 -159Q564 -172 561 -179Q524 -254 491 -299Q483 -310 473 -310Z" />
<glyph unicode=")" glyph-name="parenright" horiz-adv-x="736" d="M181 -310Q169 -310 169 -294Q169 -291 190 -250T239 -155T290 -56T319 0Q366 103 396 204T426 405Q426 477 409 578T359 765Q322 861 278 934T192 1068Q187 1076 183 1083T179 1100Q179 1113
183 1120Q222 1198 253 1240Q261 1251 270 1251Q281 1251 289 1240Q333 1181 392 1091T496 889Q537 791 556 679T575 493Q575 363 542 265T470 91Q454 60 428 11T378 -80T346 -135Q322 -175 291 -215Q287 -220 257 -250T199 -303Q185 -310 181 -310Z" />
<glyph unicode="*" glyph-name="asterisk" horiz-adv-x="736" d="M258 1068Q244 1068 244 1082Q244 1091 252 1112T268 1152T276 1178Q276 1193 270 1199Q254 1213 228 1230T195 1251Q188 1257 188 1264Q188 1276 202 1276H292Q312 1276 317 1292Q323 1309 335
1346T351 1389Q354 1399 364 1399Q375 1399 376 1389Q377 1386 384 1367T400 1326T412 1292Q417 1276 438 1276H523Q537 1276 537 1264Q537 1257 527 1249Q520 1245 498 1229T459 1199Q453 1193 453 1178Q453 1167 467 1133T482 1084Q482 1068 470 1068Q470 1068
468 1069T464 1070Q459 1073 439 1086T399 1113T375 1129Q369 1132 364 1132Q361 1132 355 1129Q351 1127 331 1114T291 1087T265 1070Q263 1068 258 1068Z" />
<glyph unicode="+" glyph-name="plus" horiz-adv-x="1022" d="M468 171Q439 171 439 199Q439 199 440 248T442 369T445 506Q382 505 313 504T195 501T147 500Q129 500 124 507T118 527V604Q118 618 123 625T147 633Q147 633 194 632T311 630T445 627Q444 684 443
754T440 875T439 927Q439 935 444 943T468 951H545Q571 951 571 923Q571 923 570 892T569 813T567 715T566 627Q608 627 660 628T761 630T842 632T874 633Q887 633 893 628T900 604V527Q900 500 871 500Q871 500 838 500T755 502T654 504T566 506Q567 442 568 371T570
249T571 199Q571 171 545 171H468Z" />
<glyph unicode="," glyph-name="comma" horiz-adv-x="736" d="M248 -390Q242 -390 236 -388T229 -378Q229 -369 241 -325T269 -221T298 -106T310 -22Q310 22 301 55T285 108Q284 112 283 115T282 122Q282 130 287 138Q301 159 332 198T387 265Q395 272 403 272Q413
272 417 263Q430 242 452 190T475 81Q475 34 464 -6T441 -72Q436 -85 417 -121T373 -202T321 -291T275 -362T248 -390Z" />
<glyph unicode="-" glyph-name="hyphen" horiz-adv-x="734" d="M104 420Q77 420 77 435Q77 444 81 450Q102 485 130 522T174 574Q186 585 195 586T215 588H636Q663 588 663 570Q663 560 652 545Q633 514 613 486T571 434Q562 424 552 422T527 420H104Z" />
<glyph unicode="." glyph-name="period" horiz-adv-x="736" d="M373 -43Q367 -43 361 -39Q340 -28 306 5T253 61Q244 74 244 82Q244 90 249 97Q306 152 337 199Q343 208 353 208Q359 208 362 206T369 200Q380 193 401 173T443 133T473 108Q487 96 487 86Q487 81
479 65Q474 54 456 32T418 -10T385 -39Q379 -43 373 -43Z" />
<glyph unicode="/" glyph-name="slash" horiz-adv-x="736" d="M61 -163Q41 -163 41 -145Q41 -140 43 -133T48 -118Q86 -26 155 133T301 479Q359 623 409 751T494 971T541 1096Q553 1128 571 1145L638 1201Q646 1207 656 1213T674 1219Q686 1219 686 1206Q686 1193
677 1170Q657 1120 621 1032T544 844T466 654T407 508Q349 362 298 234T199 -7Q184 -41 173 -65T151 -101Q130 -119 114 -133T81 -156Q68 -163 61 -163Z" />
<glyph unicode="0" glyph-name="zero" horiz-adv-x="1022" d="M491 -29Q404 -29 339 14T224 138Q197 183 177 261T146 432T135 609Q135 678 144 766T177 939T248 1084Q308 1162 370 1214T523 1267Q626 1267 707 1206T830 1074Q865 1014 881 937T903 779T908 629Q908
585 904 529T884 407Q875 372 855 315T800 195T708 77Q669 41 620 6T491 -29ZM561 147Q588 147 619 156T667 185Q689 212 703 261T725 362Q734 418 740 479T747 619Q747 702 738 772T713 901Q691 993 623 1046T466 1100Q421 1100 395 1081T355 1037T337 993Q314
920 304 835T294 656Q294 554 309 454T344 292Q362 241 418 194T561 147Z" />
<glyph unicode="1" glyph-name="one" horiz-adv-x="1022" d="M135 -2Q119 -2 105 0T91 12Q91 19 97 29Q135 94 171 144Q177 155 186 160T219 166H375Q401 166 421 187T443 246Q443 275 444 306T445 368Q445 501 440 638T421 887Q414 950 389 986T310 1023H235Q222
1023 206 1028T190 1050Q190 1060 197 1068Q230 1098 285 1137T403 1215T515 1279Q524 1286 541 1286Q575 1286 581 1249Q586 1212 590 1155T596 1041T599 945T600 903Q600 879 601 812T604 657T607 479T610 322T611 228Q611 200 622 183T665 166H864Q870 166 877
161T884 147Q884 143 876 131Q857 101 838 79T790 22Q776 4 767 1T737 -2H135Z" />
<glyph unicode="2" glyph-name="two" horiz-adv-x="1022" d="M192 2Q161 2 161 24Q161 27 165 41Q192 116 237 189T328 325T400 424Q439 481 493 552T588 699T629 844Q629 897 594 958T487 1045Q443 1062 366 1072T233 1082Q202 1082 202 1098Q202 1102 205 1106T210
1115Q224 1139 254 1177T310 1247Q314 1252 325 1259T351 1267Q368 1267 388 1266T416 1264Q508 1253 598 1224T747 1124Q783 1081 803 1038T824 918Q824 842 776 761T658 595Q625 555 583 494T502 369T437 256T410 190Q410 172 423 172H882Q901 172 901 159Q901
150 896 144Q886 125 859 81T810 14Q797 2 780 2H192Z" />
<glyph unicode="3" glyph-name="three" horiz-adv-x="1022" d="M416 -27Q345 -27 271 -12T158 22Q138 31 138 38Q138 40 140 43T144 50Q160 77 187 112T226 159Q233 167 238 174T249 181Q251 181 253 180T256 179Q306 163 360 151T460 138Q527 138 574 155T652
204Q675 228 691 268T708 342Q708 401 688 441T624 516Q599 537 550 553T443 578T335 588Q325 588 325 599Q325 605 328 609Q348 638 367 666T405 715Q421 732 459 742Q490 750 531 773T603 834T634 921Q634 983 600 1008T539 1043Q490 1065 414 1078T249 1091Q228
1091 228 1108Q228 1116 233 1125Q245 1143 273 1177T339 1255Q351 1267 366 1267Q381 1267 422 1264T515 1250T617 1223T704 1178Q757 1138 774 1095T792 1002Q792 946 758 878T629 746Q622 740 622 735Q622 725 640 718Q749 684 810 606T871 438Q871 334 813
231T674 65Q610 13 541 -7T416 -27Z" />
<glyph unicode="4" glyph-name="four" horiz-adv-x="1022" d="M588 -45Q568 -45 568 -16Q568 32 567 91T566 208T564 305T563 355Q563 380 530 380H171Q125 380 108 422T91 506Q91 550 108 610T151 731T199 841T233 908Q302 1030 389 1121T600 1279Q611 1286 626
1286Q663 1286 669 1249Q676 1186 681 1103T689 933T693 768T696 637T697 571Q699 557 704 554T717 550H916Q934 550 934 537Q934 529 930 523Q925 515 911 492T882 444T855 403Q848 393 841 388T816 382H718Q701 382 701 366Q701 356 701 317T702 229T703 144Q703
120 694 101Q681 76 658 35T606 -36Q595 -45 588 -45ZM251 550H541Q557 550 557 571Q557 605 554 680T543 846T523 1019Q522 1043 501 1043Q492 1043 480 1036Q429 1011 396 976T340 910Q316 874 286 813T234 693T212 607Q212 550 251 550Z" />
<glyph unicode="5" glyph-name="five" horiz-adv-x="1022" d="M403 -29Q347 -29 274 -16T152 20Q135 29 135 39Q135 48 142 60Q194 134 226 172Q234 183 248 183Q251 183 265 179Q307 164 375 154T486 144Q524 144 558 152T620 185Q654 213 676 260T699 357Q699
407 674 450T611 523Q572 553 509 564T368 575H294Q252 575 235 593T215 634Q209 738 208 839T207 1041Q207 1049 205 1062T202 1091Q202 1118 210 1134Q233 1180 250 1215T291 1278Q296 1286 308 1286Q326 1286 332 1276Q340 1263 352 1243T369 1215Q376 1207
384 1206T402 1204H812Q843 1204 843 1185Q843 1182 839 1174T833 1163Q820 1143 797 1105T760 1048Q746 1033 717 1033H376Q344 1033 344 1005Q344 1005 345 977T346 911T348 841T349 799Q349 777 363 762T393 746H503Q548 746 607 730T722 676T814 579T851 432Q851
369 830 315T786 228T761 190Q700 96 607 34T403 -29Z" />
<glyph unicode="6" glyph-name="six" horiz-adv-x="1022" d="M473 -29Q379 -29 298 26T168 166T118 342Q118 425 143 491T199 619Q226 675 274 752T378 912T490 1068T588 1190Q600 1204 613 1211T633 1224Q646 1231 675 1245T733 1271T774 1283Q790 1283 790 1271Q790
1261 769 1233T724 1172Q712 1156 678 1108T601 998T516 877T448 775T421 727Q421 722 426 722Q427 722 449 737T509 766T593 781Q674 781 730 751T821 684Q867 639 892 572T918 414Q918 323 867 234T744 82Q683 29 616 0T473 -29ZM541 135Q639 135 702 201T765
369Q765 403 756 446T722 522Q686 572 631 601T509 631Q447 631 393 603T306 524T272 405Q272 330 308 269T405 172T541 135Z" />
<glyph unicode="7" glyph-name="seven" horiz-adv-x="1022" d="M219 -41Q204 -41 204 -25Q204 35 216 88T244 183Q274 261 341 377T486 624Q530 698 573 775T646 915T676 1012Q676 1031 648 1031H127Q111 1031 100 1042T88 1068Q88 1073 90 1075T93 1082Q125 1139
163 1191T231 1274Q243 1286 251 1286Q268 1286 274 1264Q285 1223 302 1214T373 1204H900Q923 1204 927 1196T932 1180Q932 1166 923 1141T898 1084Q879 1041 845 984T771 866T698 754T643 672Q606 616 565 547T489 407T436 277Q426 248 418 216T409 171Q409 157
404 144T390 120Q367 86 327 45T248 -25Q242 -30 233 -35T219 -41Z" />
<glyph unicode="8" glyph-name="eight" horiz-adv-x="1022" d="M480 -29Q427 -29 350 0T217 88Q116 192 116 326Q116 409 147 467T226 565T323 633Q333 637 333 645Q333 649 330 652Q300 668 265 700T204 784T179 910Q179 939 189 980T222 1052Q249 1094 296 1142T378
1213Q404 1232 442 1249T539 1267Q618 1267 682 1232T785 1135T824 997Q824 914 780 844T676 730Q664 720 654 714T638 701Q636 699 636 694Q636 685 641 683Q666 670 704 644T774 593Q822 556 852 499T882 376Q882 320 856 255T780 133Q747 94 697 57T590 -4T480
-29ZM523 753Q533 753 537 756Q591 785 630 831T670 937Q670 982 641 1022T564 1086T464 1111Q420 1111 393 1085T353 1021T340 946Q340 876 390 832T486 767Q492 764 504 759T523 753ZM545 137Q634 137 675 190T717 335Q717 386 692 426T631 489Q594 514 550 536T452
586Q448 588 443 588Q438 588 434 586Q416 580 379 555T309 487T277 380Q277 278 352 208T545 137Z" />
<glyph unicode="9" glyph-name="nine" horiz-adv-x="1022" d="M285 -45Q275 -45 271 -37T267 -22Q267 -12 274 0Q283 13 317 62T396 177T484 306T557 412T586 457Q586 466 579 466Q575 466 539 455T453 443Q395 443 336 466T228 537Q176 590 146 658T116 814Q116
900 144 967T221 1098Q272 1167 356 1217T536 1267Q638 1267 726 1214T868 1073T923 884Q923 790 890 703T810 537Q786 498 749 441T672 324T598 215T545 140Q533 124 521 110T500 88Q489 78 460 57T395 12T329 -28T285 -45ZM537 595Q589 595 622 608T683 650Q712
680 734 728T756 844Q756 926 716 984T610 1073T470 1104Q414 1104 368 1076T292 1002Q273 973 268 939T262 872Q262 796 286 746T349 660Q384 629 436 612T537 595Z" />
<glyph unicode=":" glyph-name="colon" horiz-adv-x="736" d="M373 383Q367 383 361 387Q340 399 306 432T253 487Q244 500 244 509Q244 518 249 523Q275 549 299 577T337 626Q343 634 353 634Q360 634 369 627Q380 620 401 600T443 560T473 534Q487 524 487 513Q487
507 479 491Q474 481 456 459T418 416T385 387Q379 383 373 383ZM373 -43Q367 -43 361 -39Q340 -28 306 5T253 61Q244 74 244 82Q244 90 249 97Q306 152 337 199Q343 208 353 208Q359 208 362 206T369 200Q380 193 401 173T443 133T473 108Q487 96 487 86Q487 81
479 65Q474 54 456 32T418 -10T385 -39Q379 -43 373 -43Z" />
<glyph unicode=";" glyph-name="semicolon" horiz-adv-x="736" d="M368 460Q363 460 355 464Q335 476 301 509T248 564Q238 576 238 586Q238 596 244 600Q269 626 293 654T332 703Q338 711 347 711Q355 711 364 704Q375 697 396 677T438 637T468 611Q482 601 482
590Q482 585 473 568Q468 558 450 536T413 493T380 464Q372 460 368 460ZM248 -390Q242 -390 236 -388T229 -378Q229 -369 241 -325T269 -221T298 -106T310 -22Q310 22 301 55T285 108Q284 112 283 115T282 122Q282 130 287 138Q301 159 332 198T387 265Q395 272
403 272Q413 272 417 263Q430 242 452 190T475 81Q475 34 464 -6T441 -72Q436 -85 417 -121T373 -202T321 -291T275 -362T248 -390Z" />
<glyph unicode="&lt;" glyph-name="less" horiz-adv-x="1022" d="M819 145Q812 145 803 151Q803 151 771 169T691 216T595 272T513 319Q513 319 482 335T404 377T306 429T216 477T163 506Q154 511 145 516T135 537V597Q135 612 142 618T165 631Q271 684 353 729T511
816Q544 834 592 862T689 918T769 965T801 984Q811 989 817 989Q827 989 837 971L874 903Q880 897 880 889Q880 876 864 867Q864 867 830 849T745 805T646 752T571 711L317 568Q359 544 408 516T502 463T573 423Q600 408 648 383T746 331T830 286T865 267Q882 259
882 246Q882 239 876 231L838 163Q828 145 819 145Z" />
<glyph unicode="=" glyph-name="equal" horiz-adv-x="1022" d="M147 703Q129 703 124 710T118 730V807Q118 820 123 827T147 835Q147 835 190 834T298 833T428 831T537 830Q576 830 632 831T744 832T837 834T874 835Q887 835 893 830T900 807V730Q900 703 871
703Q871 703 832 704T737 705T627 707T541 708Q504 708 440 707T308 706T194 704T147 703ZM147 313Q129 313 124 321T118 340V417Q118 431 123 438T147 446Q147 446 190 445T298 444T428 442T537 441Q576 441 632 442T744 443T837 445T874 446Q883 446 891 442T900
417V340Q900 313 871 313Q871 313 832 314T737 316T627 318T541 319Q504 319 440 318T308 316T194 314T147 313Z" />
<glyph unicode="&gt;" glyph-name="greater" horiz-adv-x="1022" d="M183 127Q175 127 165 142L122 210Q116 218 116 226Q116 235 121 241T131 249Q131 249 171 269T269 320T383 379T473 428Q520 455 588 495T715 570L473 710Q446 725 392 753T279 812T179 863T138
884Q122 897 122 907Q122 915 127 921L165 993Q174 1009 188 1009Q196 1009 202 1005Q202 1005 241 982T338 925T452 859T541 807Q582 784 647 749T774 681T869 631Q883 624 891 617T900 597V537Q900 526 892 519T869 503L547 333Q519 318 463 286T346 219T244
158T202 133Q192 127 183 127Z" />
<glyph unicode="?" glyph-name="question" horiz-adv-x="736" d="M346 337Q338 337 330 342Q296 368 264 413T231 511Q231 551 248 582T282 636Q318 685 358 734T426 837T455 946Q455 1026 410 1065T294 1121T149 1147Q129 1150 129 1165Q129 1174 149 1200T193
1251T226 1285Q233 1292 240 1293T255 1294Q284 1294 354 1280T479 1233Q532 1202 569 1148T606 1025Q606 921 545 831T416 663Q396 641 388 618T380 573Q380 557 389 532T423 479Q434 469 434 457Q434 452 433 449T428 436Q423 420 400 388T366 346Q357 337 346
337ZM359 -39Q351 -39 346 -36Q326 -24 292 9T238 65Q229 78 229 86Q229 95 235 101Q261 127 285 155T323 202Q329 212 339 212Q344 212 347 210T355 204Q366 197 387 177T429 137T459 111Q473 101 473 89Q473 85 464 68Q459 57 441 35T404 -7T371 -36Q367 -39
359 -39Z" />
<glyph unicode="@" glyph-name="at" horiz-adv-x="1653" d="M854 -375Q625 -375 448 -272T171 20T70 465Q70 635 136 791T321 1069T593 1262T924 1333Q1123 1333 1271 1244T1501 980T1583 549Q1583 419 1541 313T1434 130T1295 12T1157 -30Q1108 -30 1071 14T1020
162Q966 86 926 45T847 -13T754 -30Q686 -30 618 26T505 189T460 444Q460 530 490 620T577 788T712 912T889 960Q935 960 969 944T1055 868Q1109 901 1163 960L1194 930Q1184 899 1174 842T1164 723V285Q1164 196 1194 153T1272 109Q1306 109 1350 163T1429 308T1463
512Q1463 737 1389 893T1185 1131T885 1213Q732 1213 609 1157T400 1004T267 783T220 524Q220 343 275 199T425 -46T644 -201T903 -255Q1016 -255 1119 -226T1303 -157T1423 -82L1450 -137Q1402 -187 1317 -242T1115 -336T854 -375ZM825 100Q864 100 901 130T1014
250V731Q986 787 952 818T858 850Q748 850 679 757T610 475Q610 362 644 278T728 147T825 100Z" />
<glyph unicode="A" glyph-name="A" horiz-adv-x="1219" d="M0 0V43Q68 55 108 68T158 111L530 1237Q553 1262 587 1282T647 1317L1067 111Q1077 83 1105 67T1198 43V0H776V43Q853 48 883 63T903 111L789 445H381L270 111Q260 80 297 66T416 43V0H0ZM411 535H758L582
1049L411 535Z" />
<glyph unicode="B" glyph-name="B" horiz-adv-x="1126" d="M559 -14Q515 -14 443 -12T298 -7T174 -2T123 0H50V43Q118 57 156 74T195 104V1190Q157 1186 121 1180T50 1168L41 1230Q93 1245 165 1258T317 1281T469 1290Q670 1290 787 1218T905 1020Q905 913 854
835T715 723Q800 707 868 655T976 526T1016 356Q1016 242 958 159T797 31T559 -14ZM355 725H389Q541 725 618 762T723 857T750 971Q750 1038 720 1091T616 1175T413 1206Q400 1206 385 1206T355 1204V725ZM537 70Q681 70 766 140T852 322Q852 396 818 471T710 598T520
650Q472 650 432 646T355 635V104Q355 97 364 89Q399 78 448 74T537 70Z" />
<glyph unicode="C" glyph-name="C" horiz-adv-x="1098" d="M571 -30Q478 -30 389 11T228 132T113 326T70 586Q70 746 118 875T250 1097T443 1240T676 1290Q783 1290 865 1261T999 1190Q1007 1184 990 1160T949 1110T909 1067L874 1073Q824 1120 754 1150T592 1180Q541
1180 478 1151T357 1057T262 886T225 623Q225 490 263 390T363 224T498 124T643 90Q697 90 784 127T981 256Q992 252 1002 235T1018 211Q891 75 783 23T571 -30Z" />
<glyph unicode="D" glyph-name="D" horiz-adv-x="1214" d="M50 0V43Q118 57 156 74T195 104V1189Q156 1184 120 1179T50 1168L41 1230Q100 1247 181 1260T350 1282T518 1290Q704 1290 839 1217T1049 1007T1123 676Q1123 489 1069 360T930 151T746 36T559 0H50ZM537
84Q606 84 679 117T814 219T914 392T953 637Q953 903 824 1054T453 1206Q403 1206 355 1203V154Q355 123 382 109T452 89T537 84Z" />
<glyph unicode="E" glyph-name="E" horiz-adv-x="1016" d="M50 0V43Q118 57 156 74T195 104V1155Q195 1167 159 1185T50 1217V1260H856L889 1235Q886 1184 873 1116T848 1010H803Q799 1102 779 1136T721 1170H355V735H760L786 707Q770 679 743 646T694 596Q663
625 622 638T496 651H355V154Q355 135 369 121T427 98T559 90H688Q750 90 788 100T855 147T911 262L954 244Q947 158 934 94T913 0H50Z" />
<glyph unicode="F" glyph-name="F" horiz-adv-x="979" d="M50 0V43Q118 57 156 74T195 104V1155Q195 1167 159 1185T50 1217V1260H866L897 1235Q896 1184 883 1116T858 1010H811Q808 1102 788 1136T729 1170H355V735H729L758 707Q739 679 712 646T664 596Q635
625 593 638T467 651H355V104Q355 92 393 77T530 43V0H50Z" />
<glyph unicode="G" glyph-name="G" horiz-adv-x="1194" d="M618 -30Q518 -30 421 7T244 121T117 313T70 582Q70 804 160 962T402 1205T737 1290Q803 1290 890 1264T1042 1188Q1052 1181 1035 1159T991 1112T946 1071L913 1077Q847 1140 772 1160T598 1180Q561
1180 499 1153T374 1065T268 898T225 637Q225 452 287 331T447 150T645 90Q789 90 890 146V485Q890 507 848 527T684 567V610H1145V567Q1088 554 1064 531T1040 485V154Q941 73 869 34T738 -17T618 -30Z" />
<glyph unicode="H" glyph-name="H" horiz-adv-x="1339" d="M50 0V43Q118 57 156 74T195 104V1155Q195 1167 159 1185T50 1217V1260H500V1217Q433 1203 394 1186T355 1155V705H965V1155Q965 1167 929 1185T820 1217V1260H1270V1217Q1203 1203 1164 1186T1125 1155V104Q1125
92 1161 75T1270 43V0H820V43Q888 57 926 74T965 104V615H355V104Q355 92 391 75T500 43V0H50Z" />
<glyph unicode="I" glyph-name="I" horiz-adv-x="610" d="M70 0V43Q138 57 176 74T215 104V1155Q215 1167 179 1185T70 1217V1260H520V1217Q453 1203 414 1186T375 1155V104Q375 92 411 75T520 43V0H70Z" />
<glyph unicode="J" glyph-name="J" horiz-adv-x="625" d="M-25 -380Q-65 -380 -103 -365T-165 -331T-190 -300Q-190 -289 -169 -268T-120 -227T-74 -200Q-18 -237 14 -247T84 -257Q119 -257 157 -225T223 -108T250 133V1155Q250 1167 213 1183T55 1217V1260H555V1217Q488
1203 449 1186T410 1155V205Q410 47 382 -45T309 -192T211 -288Q158 -331 86 -355T-25 -380Z" />
<glyph unicode="K" glyph-name="K" horiz-adv-x="1184" d="M948 -14Q919 -14 897 -5T854 29L355 639V104Q355 92 391 75T500 43V0H50V43Q118 57 156 74T195 104V1155Q195 1167 159 1185T50 1217V1260H500V1217Q433 1203 394 1186T355 1155V646L764 1128Q810 1182
790 1196T690 1217V1260H1110V1217Q1046 1209 1009 1199T940 1155L502 671L985 127Q1020 87 1067 81T1167 80L1174 37Q1116 18 1056 2T948 -14Z" />
<glyph unicode="L" glyph-name="L" horiz-adv-x="975" d="M50 0V43Q118 57 156 74T195 104V1155Q195 1167 159 1185T50 1217V1260H500V1217Q433 1203 394 1186T355 1155V164Q355 129 393 110T541 90H684Q746 90 783 100T846 147T901 262L944 244Q937 158 924 94T903
0H50Z" />
<glyph unicode="M" glyph-name="M" horiz-adv-x="1651" d="M60 0V43Q128 57 166 74T205 104L215 1177Q178 1199 139 1208T70 1217V1260H356Q376 1260 386 1245T420 1176L818 274L1200 1176Q1226 1236 1235 1248T1264 1260H1550V1217Q1492 1217 1415 1181L1425
104Q1425 92 1461 75T1570 43V0H1115V43Q1183 57 1226 74T1270 104L1261 1040L823 0H774L329 1033L320 104Q320 92 356 75T465 43V0H60Z" />
<glyph unicode="N" glyph-name="N" horiz-adv-x="1329" d="M1135 -30Q1086 -24 1057 -10T1016 21L315 993V104Q315 92 349 73T460 43V0H50V43Q124 52 159 71T195 104V1149Q162 1180 126 1195T50 1217V1260H262Q291 1260 306 1247T358 1182L1015 276V1155Q1015
1167 983 1186T870 1217V1260H1280V1217Q1208 1207 1172 1188T1135 1155V-30Z" />
<glyph unicode="O" glyph-name="O" horiz-adv-x="1229" d="M575 -30Q455 -30 361 22T202 165T104 370T70 612Q70 748 113 870T234 1087T413 1236T633 1290Q757 1290 851 1236T1009 1091T1105 884T1138 647Q1138 511 1094 389T971 173T791 24T575 -30ZM604 90Q770
90 876 227T983 629Q983 733 956 830T879 1005T759 1129T604 1175Q426 1175 326 1031T225 641Q225 492 277 367T415 166T604 90Z" />
<glyph unicode="P" glyph-name="P" horiz-adv-x="1071" d="M50 0V43Q118 57 156 74T195 104V1190Q158 1186 122 1180T50 1168L41 1230Q138 1256 263 1273T510 1290Q725 1290 853 1199T982 936Q982 832 941 757T836 632T702 559T573 535Q480 535 412 565L389 640Q430
621 469 616T543 610Q605 610 670 642T781 737T827 895Q827 1005 777 1073T641 1174T453 1206Q428 1206 404 1206T355 1204V104Q355 92 390 76T530 43V0H50Z" />
<glyph unicode="Q" glyph-name="Q" horiz-adv-x="1229" d="M1102 -305Q1040 -305 979 -276T859 -201T740 -109T620 -27Q598 -30 575 -30Q428 -30 314 57T135 290T70 612Q70 748 113 870T234 1087T413 1236T633 1290Q757 1290 851 1236T1009 1091T1105 884T1138
647Q1138 505 1090 379T957 157T765 12Q827 -20 887 -60T1003 -130T1108 -160Q1133 -160 1164 -143T1255 -82L1282 -117Q1235 -204 1184 -254T1102 -305ZM604 90Q770 90 876 227T983 629Q983 733 956 830T879 1005T759 1129T604 1175Q426 1175 326 1031T225 641Q225
492 277 367T415 166T604 90Z" />
<glyph unicode="R" glyph-name="R" horiz-adv-x="1149" d="M915 -14Q887 -14 859 2T817 41L514 602Q501 601 488 601T461 600Q436 600 410 602T355 611V104Q355 92 391 75T500 43V0H50V43Q118 57 156 74T195 104V1189Q160 1185 124 1179T50 1168L41 1230Q135 1253
236 1271T469 1290Q701 1290 814 1203T927 987Q927 844 849 754T645 625L948 139Q978 96 1019 85T1128 80L1139 37Q1073 15 1014 1T915 -14ZM444 684Q602 684 687 754T772 956Q772 1066 692 1136T432 1206Q394 1206 355 1203V691Q382 687 402 686T444 684Z" />
<glyph unicode="S" glyph-name="S" horiz-adv-x="975" d="M440 -30Q374 -30 288 -4T131 68Q124 72 121 101T117 172T120 255T131 324L172 319Q218 201 306 146T496 90Q556 90 614 122T711 207T750 324Q750 405 705 458T589 550T439 622T288 700T172 806T127 967Q127
1014 148 1069T217 1175T340 1258T526 1290Q617 1290 701 1264T823 1198Q833 1190 820 1164T784 1109T745 1065L709 1071Q654 1137 589 1163T467 1190Q393 1190 347 1162T279 1093T257 1014Q257 951 302 906T419 824T571 749T722 662T839 545T885 377Q885 310 858
239T776 107T637 8T440 -30Z" />
<glyph unicode="T" glyph-name="T" horiz-adv-x="1128" d="M307 0V43Q399 62 435 81T471 115V1170H172Q152 1170 136 1159T102 1111T53 995L10 1014Q15 1073 24 1140T43 1260H1053L1083 1235Q1082 1184 1074 1124T1053 1000H1008Q989 1093 974 1131T915 1170H631V115Q631
102 667 82T795 43V0H307Z" />
<glyph unicode="U" glyph-name="U" horiz-adv-x="1339" d="M666 -30Q529 -30 423 21T256 177T195 444V1155Q195 1167 159 1185T50 1217V1260H500V1217Q433 1203 394 1186T355 1155V494Q355 302 444 194T705 85Q800 85 866 143T966 292T1000 483V1155Q1000 1167
964 1185T855 1217V1260H1275V1217Q1208 1203 1169 1186T1130 1155V524Q1130 262 1006 116T666 -30Z" />
<glyph unicode="V" glyph-name="V" horiz-adv-x="1331" d="M602 -30L162 1151Q143 1201 20 1217V1260H455V1217Q376 1211 347 1197T327 1153L680 203L1016 1151Q1027 1180 992 1193T874 1217V1260H1290V1217Q1223 1204 1184 1192T1135 1151L752 59Q742 30 713
12T652 -16T602 -30Z" />
<glyph unicode="W" glyph-name="W" horiz-adv-x="1741" d="M418 -30L158 1147Q153 1172 122 1188T20 1217V1260H449V1217Q352 1207 331 1188T313 1147L512 250L836 1260H891L1245 250L1432 1155Q1437 1178 1392 1192T1278 1217V1260H1702V1217Q1614 1199 1584
1185T1550 1155L1321 59Q1315 31 1290 13T1234 -15T1182 -30L856 944L569 59Q555 16 507 -2T418 -30Z" />
<glyph unicode="X" glyph-name="X" horiz-adv-x="1260" d="M31 0V43Q96 48 142 67T213 127L530 644L197 1133Q166 1177 137 1192T41 1217V1260H492V1217Q407 1209 381 1193T385 1133L632 770L858 1133Q886 1179 851 1194T727 1217V1260H1180V1217Q1107 1209 1065
1193T997 1133L706 662L1071 127Q1100 84 1135 68T1229 43V0H778V43Q866 52 888 69T883 127L604 535L352 127Q324 83 356 66T481 43V0H31Z" />
<glyph unicode="Y" glyph-name="Y" horiz-adv-x="1217" d="M360 0V43Q451 62 487 81T524 115V537Q475 645 410 763T280 984T168 1151Q149 1173 118 1189T4 1206L0 1249Q59 1257 118 1263T219 1270Q266 1270 297 1231Q347 1167 405 1075T520 879T623 680L891 1151Q906
1177 882 1192T780 1217V1260H1176V1217Q1108 1204 1071 1191T1020 1151L684 541V115Q684 102 720 82T850 43V0H360Z" />
<glyph unicode="Z" glyph-name="Z" horiz-adv-x="1071" d="M88 0L59 45L770 1160H311Q279 1160 240 1114T178 963L121 975L150 1276Q205 1264 243 1262T340 1260H956L981 1217L276 100H799Q842 100 870 142T936 307L991 293Q988 229 985 144T979 0H88Z" />
<glyph unicode="[" glyph-name="bracketleft" horiz-adv-x="736" d="M296 -246Q278 -246 243 -242T185 -221Q142 -185 142 -125Q142 45 147 214T152 552Q152 621 150 703T144 865T138 1007T135 1096Q135 1152 162 1197T248 1242H629Q647 1242 647 1236Q647 1233
641 1228Q625 1206 605 1185T564 1151Q547 1138 534 1138H335Q318 1138 298 1123T276 1077Q275 1056 274 1003T272 880T271 741T270 617T270 541Q270 522 271 463T273 325T276 165T279 17T282 -81Q282 -144 340 -144H617Q645 -144 645 -152Q645 -155 634 -171Q623
-185 605 -205T566 -238Q559 -244 551 -245T532 -246H296Z" />
<glyph unicode="\" glyph-name="backslash" horiz-adv-x="736" d="M613 -163Q601 -163 588 -133L335 508Q276 658 236 752T166 912T106 1040Q99 1053 90 1070T81 1098Q81 1108 83 1116T86 1131Q91 1151 96 1163T109 1195Q119 1219 131 1219Q142 1219 149 1204Q165
1164 194 1092T258 931T331 749T402 573Q453 443 512 296T636 14Q639 9 643 -3T648 -29Q648 -43 643 -82T633 -138Q632 -146 625 -154T613 -163Z" />
<glyph unicode="]" glyph-name="bracketright" horiz-adv-x="734" d="M197 -246Q188 -246 180 -245T163 -238Q154 -231 131 -207T93 -169Q84 -155 84 -152Q84 -144 113 -144H389Q448 -144 448 -81Q449 -49 450 17T452 164T455 325T458 463T459 541Q459 563 459
617T459 740T457 879T455 1002T453 1077Q452 1108 432 1123T395 1138H195Q182 1138 165 1151Q146 1164 126 1185T88 1228Q82 1233 82 1236Q82 1242 101 1242H482Q541 1242 568 1197T595 1096Q595 1069 593 1007T586 866T580 704T577 552Q577 383 582 214T588 -125Q588
-184 545 -221Q523 -238 487 -242T434 -246H197Z" />
<glyph unicode="^" glyph-name="asciicircum" horiz-adv-x="1022" d="M851 470Q841 470 836 475T828 484Q828 484 807 524T755 623T693 738T643 828Q616 875 580 942T508 1068L375 831Q359 804 330 749T269 635T215 533T193 491Q181 475 171 475Q164 475 156 480L84
520Q68 529 68 543Q68 551 72 557Q72 557 95 596T152 693T219 805T270 894Q294 935 328 1000T396 1127T446 1222Q453 1236 460 1244T480 1253H539Q552 1253 559 1245T573 1222L744 900Q759 872 791 816T858 700T919 598T944 556Q949 547 949 536Q949 526 935 518L867
475Q859 470 851 470Z" />
<glyph unicode="_" glyph-name="underscore" horiz-adv-x="802" d="M0 -246L-25 -219Q-20 -199 -12 -175T6 -131H808L831 -156Q821 -203 802 -246H0Z" />
<glyph unicode="`" glyph-name="grave" horiz-adv-x="653" d="M382 1047L30 1424L52 1465Q65 1468 93 1473T152 1483T198 1489L438 1078Q429 1071 414 1062T382 1047Z" />
<glyph unicode="a" glyph-name="a" horiz-adv-x="940" d="M293 -30Q245 -30 196 -9T114 61T80 186Q80 263 106 313T170 401Q202 433 248 461T382 514T623 561V702Q623 770 588 816T455 860Q391 859 339 822T292 724Q294 712 258 697T181 673T122 667L108 706Q139
773 210 830T370 924T544 960Q654 960 713 903T773 742V178Q773 100 813 100Q827 100 849 105T911 127L926 82Q841 24 786 -3T702 -30Q669 -30 647 16T623 143Q533 52 445 11T293 -30ZM352 100Q411 100 479 131T623 227V486Q511 468 450 451T356 414T302 372Q277
345 261 311T244 229Q244 176 263 148T309 110T352 100Z" />
<glyph unicode="b" glyph-name="b" horiz-adv-x="1040" d="M469 -30Q431 -30 340 3T140 96V1296Q140 1358 130 1383T93 1416T10 1430V1470Q76 1486 136 1502T253 1550Q261 1543 275 1530T290 1516V727Q390 847 485 903T637 960Q774 960 862 836T950 492Q950 405
917 314T820 144T669 18T469 -30ZM567 100Q648 100 703 145T787 260T815 408Q815 541 780 634T689 776T567 825Q532 825 453 780T290 610V203Q370 143 451 122T567 100Z" />
<glyph unicode="c" glyph-name="c" horiz-adv-x="895" d="M465 -30Q368 -30 280 26T136 189T80 444Q80 588 147 705T331 891T590 960Q656 960 723 938T825 881Q828 865 819 833T795 769T768 717L731 727Q715 762 659 806T500 850Q430 850 369 809T269 684T230
475Q230 362 273 278T387 147T537 100Q575 100 607 106T683 140T801 231L840 190Q753 88 693 42T580 -17T465 -30Z" />
<glyph unicode="d" glyph-name="d" horiz-adv-x="1065" d="M416 -30Q342 -30 264 26T133 189T80 444Q80 530 114 620T211 788T360 912T551 960Q598 960 644 949T745 897V1274Q745 1348 738 1382T701 1429T600 1446V1485Q682 1496 747 1515T864 1550L895 1520V254Q895
184 901 152T918 106Q927 96 952 100T1038 127L1051 84Q959 23 908 -3T829 -30Q796 -30 775 15T747 169Q671 77 595 24T416 -30ZM487 100Q555 100 619 150T745 261V730Q712 787 652 818T520 850Q393 850 312 757T230 475Q230 362 271 278T372 147T487 100Z" />
<glyph unicode="e" glyph-name="e" horiz-adv-x="946" d="M465 -30Q363 -30 275 27T134 189T80 434Q80 569 138 689T301 881Q345 912 408 936T524 960Q622 960 688 922T793 822T849 691T866 557Q848 537 818 520T756 490H230Q231 387 267 298T369 155T526 100Q568
100 607 108T698 146T823 236Q836 229 846 216T860 195Q771 98 708 50T590 -14T465 -30ZM236 580H664Q687 580 694 587T702 616Q702 643 694 683T665 762T602 828T496 855Q393 855 324 779T236 580Z" />
<glyph unicode="f" glyph-name="f" horiz-adv-x="637" d="M60 0V43Q128 55 164 72T200 102V835H66L45 863L123 930H200V961Q200 1119 227 1212T300 1360T399 1458Q453 1502 522 1526T629 1550Q670 1550 713 1531T787 1489T817 1454Q817 1443 794 1420T740 1375T690
1343Q643 1385 595 1405T520 1425Q486 1425 446 1392T378 1270T350 1016V930H608L637 901Q618 873 588 841T539 800Q516 812 473 823T350 835V102Q350 90 396 78T559 43V0H60Z" />
<glyph unicode="g" glyph-name="g" horiz-adv-x="999" d="M467 -500Q397 -500 321 -485T179 -438T72 -354T30 -229Q30 -194 49 -155T126 -67T297 42Q233 65 208 94T182 153Q182 170 208 207T326 309Q225 337 163 413T100 602Q100 700 156 781T300 911T485 960Q603
960 693 895Q798 906 863 925T969 960L989 930Q977 902 966 879T932 830Q895 823 858 819T775 813Q830 734 830 641Q830 539 772 461T623 339T434 295H430Q383 255 365 229T346 196Q346 180 366 165T442 137T602 110Q748 94 827 58T938 -26T970 -120Q970 -202 925
-271T807 -392T644 -471T467 -500ZM514 400Q553 400 594 422T662 489T690 600Q690 707 621 783T416 860Q383 860 342 838T271 770T240 659Q240 553 306 477T514 400ZM522 -395Q657 -395 738 -328T820 -157Q820 -120 795 -91T705 -39T518 -4Q481 0 449 5T388 16Q293
-35 249 -73T192 -140T180 -190Q180 -246 227 -292T353 -367T522 -395Z" />
<glyph unicode="h" glyph-name="h" horiz-adv-x="1130" d="M55 0V43Q121 60 158 74T195 104V1298Q195 1354 187 1379T150 1413T55 1430V1470Q140 1486 195 1503T308 1550L345 1516V684Q403 769 475 831T617 926T739 960Q825 960 892 907T960 741V104Q960 91 990
77T1100 43V0H670V43Q810 79 810 104V633Q810 755 779 792T682 830Q613 830 522 760T345 549V104Q345 89 383 73T485 43V0H55Z" />
<glyph unicode="i" glyph-name="i" horiz-adv-x="555" d="M274 1124Q190 1124 190 1220Q190 1277 224 1316T305 1356Q390 1356 390 1261Q390 1205 357 1165T274 1124ZM70 0V43Q210 71 210 104V670Q210 739 205 773T170 820T70 840V880Q133 892 204 913T326 960H360V104Q360
92 393 75T500 43V0H70Z" />
<glyph unicode="j" glyph-name="j" horiz-adv-x="530" d="M270 1124Q185 1124 185 1220Q185 1277 218 1316T300 1356Q385 1356 385 1261Q385 1205 352 1165T270 1124ZM-54 -500Q-95 -500 -133 -488T-195 -459T-220 -431Q-220 -419 -197 -396T-143 -351T-93 -320Q-61
-348 -27 -356T45 -365Q84 -365 120 -331T181 -207T205 43V670Q205 739 199 772T164 819T65 840V880Q148 895 201 914T318 960H355V99Q355 -54 330 -148T262 -300T165 -400Q112 -443 48 -471T-54 -500Z" />
<glyph unicode="k" glyph-name="k" horiz-adv-x="1024" d="M840 -10Q798 -10 773 2T725 43L345 522V104Q345 89 363 78T455 43V0H55V43Q121 60 158 73T195 104V1296Q195 1358 184 1383T143 1416T55 1430V1470Q124 1484 191 1502T308 1550L345 1516V530L653 799Q697
838 697 857T671 881T610 887V930H989V887Q945 883 908 871T829 825L488 552L864 111Q892 79 926 68T1018 61L1024 18Q966 5 914 -2T840 -10Z" />
<glyph unicode="l" glyph-name="l" horiz-adv-x="555" d="M60 0V43Q146 58 178 73T210 104V1296Q210 1357 199 1382T157 1416T70 1430V1470Q142 1484 202 1501T324 1550L360 1516V104Q360 89 394 73T510 43V0H60Z" />
<glyph unicode="m" glyph-name="m" horiz-adv-x="1645" d="M55 0V43Q121 60 158 74T195 104V711Q195 764 187 788T150 823T55 840V880Q131 892 186 913T295 960L330 925L341 696Q430 829 523 894T688 960Q783 960 846 910T910 725V704Q994 829 1087 894T1253 960Q1348
960 1411 907T1475 741V104Q1475 91 1506 77T1616 43V0H1186V43Q1325 79 1325 104V633Q1325 756 1299 798T1212 840Q1146 840 1066 769T910 573V104Q910 91 941 77T1051 43V0H621V43Q760 79 760 104V633Q760 756 735 798T647 840Q580 840 505 770T345 573V104Q345
89 383 73T485 43V0H55Z" />
<glyph unicode="n" glyph-name="n" horiz-adv-x="1130" d="M55 0V43Q121 60 158 74T195 104V711Q195 763 188 788T152 823T55 840V880Q123 891 181 911T295 960L330 925L341 676Q400 765 472 828T616 926T739 960Q825 960 892 907T960 741V104Q960 91 990 77T1100
43V0H670V43Q810 79 810 104V633Q810 755 782 792T682 830Q621 830 532 767T345 549V104Q345 89 383 73T485 43V0H55Z" />
<glyph unicode="o" glyph-name="o" horiz-adv-x="1030" d="M496 -30Q370 -30 277 32T132 201T80 444Q80 543 115 635T213 801T358 917T535 960Q661 960 754 898T898 729T950 485Q950 385 914 293T814 128T669 13T496 -30ZM524 80Q666 80 730 182T795 455Q795 561
752 650T642 795T506 850Q405 850 346 800T261 665T235 473Q235 368 281 279T395 135T524 80Z" />
<glyph unicode="p" glyph-name="p" horiz-adv-x="1085" d="M55 -480V-437Q121 -421 158 -407T195 -375V711Q195 761 187 788T149 826T55 840V880Q124 895 180 913T295 960L330 925L339 727Q439 847 536 903T690 960Q827 960 916 836T1005 492Q1005 405 973 314T887
144T765 18T623 -30Q565 -30 491 3T345 98V-375Q345 -391 382 -407T514 -437V-480H55ZM621 100Q728 100 799 183T870 426Q870 543 835 635T744 781T623 835Q587 835 510 787T345 610V213Q434 146 500 123T621 100Z" />
<glyph unicode="q" glyph-name="q" horiz-adv-x="1055" d="M575 -480V-437Q669 -423 707 -408T745 -375V166Q669 75 594 23T416 -30Q342 -30 264 26T133 189T80 444Q80 561 126 653T235 807T344 895Q401 926 457 943T551 960Q605 960 660 943T782 867Q812 886
844 913T895 960L926 930Q926 930 911 869T895 717V-375Q895 -391 926 -407T1034 -437V-480H575ZM487 100Q555 100 619 150T745 261V730Q712 787 652 818T520 850Q446 850 380 809T272 684T230 475Q230 362 271 278T372 147T487 100Z" />
<glyph unicode="r" glyph-name="r" horiz-adv-x="811" d="M55 0V43Q121 58 158 73T195 104V686Q195 752 188 778T172 813Q159 827 135 832T55 840V880Q120 897 183 914T295 960L330 925L343 698Q397 809 469 884T627 960Q659 960 696 952T770 923Q783 916 778
870T759 768T727 676H684Q672 757 642 788T573 820Q529 820 461 743T345 496V104Q345 89 382 73T514 43V0H55Z" />
<glyph unicode="s" glyph-name="s" horiz-adv-x="791" d="M356 -30Q309 -30 241 -12T106 43Q99 46 97 74T95 143T101 222T113 283L156 272Q161 188 232 129T406 70Q478 70 524 113T570 227Q570 281 534 318T440 386T322 449Q267 478 217 511T136 591T104 700Q104
783 147 841T258 929T401 960Q443 960 494 951T591 924T664 883Q672 876 663 844T638 778T614 733L575 741Q528 812 476 841T375 870Q309 870 272 831T234 750Q234 707 266 675T349 616T455 559Q513 530 569 495T663 409T700 283Q700 177 659 114T558 20T442 -20T356
-30Z" />
<glyph unicode="t" glyph-name="t" horiz-adv-x="705" d="M344 -30Q275 -30 223 26T170 221V835H41L20 863L98 930H170V1176L289 1280L320 1255V930H647L676 901Q657 873 626 841T575 800Q551 812 502 823T372 835H320V307Q320 187 344 144T428 100Q463 100 516
114T647 168L676 117Q578 44 488 7T344 -30Z" />
<glyph unicode="u" glyph-name="u" horiz-adv-x="1085" d="M408 -30Q346 -30 292 -5T204 87T170 279V711Q170 775 164 802T130 839T41 854V894Q113 903 169 918T292 960L320 921V334Q320 194 360 142T473 90Q538 90 607 129T765 262V711Q765 771 756 800T717 840T625
854V894Q697 903 763 922T885 960L915 921V254Q915 193 920 154T938 104Q950 97 979 101T1059 127L1069 82Q996 34 936 2T850 -30Q815 -30 793 16T765 166Q682 83 618 41T502 -15T408 -30Z" />
<glyph unicode="v" glyph-name="v" horiz-adv-x="1010" d="M461 -30L131 819Q122 847 96 861T20 887V930H406V887Q329 877 305 864T293 819L539 178L770 819Q781 850 761 863T666 887V930H989V887Q929 873 910 861T879 819L596 59Q579 15 533 -4T461 -30Z" />
<glyph unicode="w" glyph-name="w" horiz-adv-x="1446" d="M391 -30L129 825Q120 864 20 887V930H406V887Q341 881 314 871T282 850T281 825L469 190L715 930H784L1044 190L1217 825Q1223 848 1196 862T1100 887V930H1425V887Q1364 873 1348 861T1325 825L1104
59Q1096 30 1070 12T1014 -16T967 -30L729 648L524 59Q509 13 463 -5T391 -30Z" />
<glyph unicode="x" glyph-name="x" horiz-adv-x="1030" d="M20 0V43Q100 55 135 80T193 137L436 475L201 797Q175 834 144 857T31 887V930H451V887Q390 881 364 864T373 799L534 577L688 799Q723 848 700 864T614 887V930H995V887Q914 881 870 858T799 797L589
502L856 137Q879 108 914 80T1016 43V0H614V43Q647 46 674 53T708 77T688 131L490 400L301 131Q276 95 289 78T335 53T399 43V0H20Z" />
<glyph unicode="y" glyph-name="y" horiz-adv-x="1010" d="M127 -500Q51 -500 2 -483T-47 -447Q-47 -439 -27 -412T21 -355T70 -312Q117 -340 165 -342T250 -330Q287 -318 341 -248T430 -92L459 -23L131 819Q122 847 96 861T20 887V930H406V887Q329 877 305 864T293
819L539 182L770 819Q781 850 755 863T655 887V930H989V887Q929 873 910 861T879 819L545 -82Q490 -229 418 -321T270 -457T127 -500Z" />
<glyph unicode="z" glyph-name="z" horiz-adv-x="905" d="M102 0L76 45L631 840H285Q253 840 221 811T168 690L119 702L137 946Q181 934 215 932T313 930H805L827 887L270 90H692Q717 90 738 128T782 258L829 248Q829 185 826 110T817 0H102Z" />
<glyph unicode="{" glyph-name="braceleft" horiz-adv-x="732" d="M489 -279Q480 -279 461 -273T419 -256Q309 -210 269 -141T228 55V339Q228 383 218 418T149 480Q129 490 129 506Q129 522 149 532Q208 559 218 593T228 672V930Q228 1056 267 1127T419 1242Q445
1253 482 1264T543 1283Q567 1291 571 1291Q586 1291 586 1279Q586 1272 581 1264Q574 1248 568 1237T552 1209Q548 1203 543 1197T530 1187Q517 1180 498 1172T470 1161Q406 1136 389 1082T371 982V713Q371 637 343 601T262 523Q262 523 257 519T251 506Q251 496
256 492T262 487Q315 447 343 411T371 298V4Q371 -39 387 -91T460 -171L575 -224Q586 -229 586 -236Q586 -241 571 -249Q550 -262 518 -274Q501 -279 489 -279Z" />
<glyph unicode="|" glyph-name="bar" horiz-adv-x="589" d="M270 -308Q254 -308 250 -298T246 -277Q244 -174 242 -54T237 181T234 387T233 520Q233 575 234 669T236 874T240 1094T246 1289Q246 1300 250 1309T270 1319H313Q328 1319 334 1311T340 1291Q342 1203
344 1094T347 873T350 669T351 520Q351 477 351 393T349 198T345 -36T340 -279Q340 -308 313 -308H270Z" />
<glyph unicode="}" glyph-name="braceright" horiz-adv-x="732" d="M163 -279Q149 -279 149 -269Q149 -260 154 -253Q161 -238 167 -227T183 -199Q187 -192 191 -186T204 -176Q218 -168 238 -161T265 -151Q328 -125 346 -71T364 29V298Q364 375 392 411T473 487Q473
487 478 492T484 506Q484 515 479 519T473 523Q421 564 393 600T364 713V1007Q364 1051 347 1102T274 1181L159 1235Q149 1239 149 1247Q149 1252 163 1260Q185 1274 217 1285Q234 1291 246 1291Q255 1291 274 1284T315 1267Q425 1221 466 1152T508 956V672Q508
628 518 593T586 530Q606 520 606 506Q606 489 586 479Q528 452 518 418T508 339V81Q508 -46 468 -116T315 -231Q290 -242 253 -253T192 -272Q167 -279 163 -279Z" />
<glyph unicode="~" glyph-name="asciitilde" horiz-adv-x="999" d="M102 475L49 502Q78 568 124 636T230 752T352 799Q398 799 446 775T542 719T635 663T721 639Q816 639 897 799L950 774Q923 709 876 640T770 524T647 477Q605 477 558 501T463 557T367 613T276
637Q184 637 102 475Z" />
<glyph unicode="&#xa0;" glyph-name="uni00A0" horiz-adv-x="420" />
<glyph unicode="&#xa1;" glyph-name="exclamdown" horiz-adv-x="736" d="M364 583Q371 583 374 579T382 569Q392 554 410 521T438 456Q440 446 440 437T441 420V1Q441 -45 440 -111T438 -236T436 -315Q436 -334 421 -334Q414 -334 403 -326Q375 -303 351 -269T298
-186Q287 -169 287 -139Q287 -124 291 -70T301 63T315 227T330 394T342 531Q344 547 348 565T364 583ZM400 988Q406 988 412 984Q425 977 445 956T482 913T506 880Q510 873 512 869T515 859Q515 848 500 837Q491 832 470 813T428 773T396 745Q392 742 389 740T380
737Q370 737 364 746Q351 766 327 794T276 848Q270 854 270 863Q270 871 279 884Q299 907 333 940T387 984Q393 988 400 988Z" />
<glyph unicode="&#xa2;" glyph-name="cent" horiz-adv-x="961" d="M500 -41L475 -16V129Q381 133 296 186T158 340T104 586Q104 704 151 801T283 966T475 1062V1214Q494 1226 499 1230T512 1237T539 1245L565 1223V1077Q589 1079 614 1079Q680 1079 748 1058T850
999Q853 984 844 952T820 888T793 838L758 848Q741 880 695 919T565 969V262Q602 262 634 268T710 302T825 391L864 350Q762 230 696 186T565 133V-8Q547 -24 536 -28T500 -41ZM256 616Q256 476 319 389T475 275V966Q386 949 321 865T256 616Z" />
<glyph unicode="&#xa3;" glyph-name="sterling" horiz-adv-x="1022" d="M641 -29Q603 -29 555 -25T450 -9Q380 3 325 9T228 16Q203 16 177 14T127 11Q111 11 111 27Q111 39 128 66T171 140Q185 166 214 181Q245 201 267 218T303 255Q330 288 330 355Q330 371 328
392T321 438Q314 482 305 525T284 611Q281 622 270 622Q246 622 228 622T188 620Q166 620 154 620T138 619Q122 619 122 633Q122 639 129 648Q161 684 186 713T231 763Q235 771 235 783Q234 788 234 790T233 792L217 857Q210 886 206 910T202 951Q202 1064 282
1180Q308 1217 371 1272Q400 1297 425 1315T470 1344Q560 1396 643 1396Q697 1396 742 1382T826 1344Q841 1336 841 1322Q841 1321 840 1317T837 1306Q830 1289 756 1188Q747 1175 732 1175Q726 1175 721 1177T708 1181Q574 1240 473 1240Q416 1240 380 1192Q355
1158 355 1104Q355 1053 416 794Q421 785 423 785Q445 785 492 785T609 783Q680 782 726 782T792 781Q809 781 809 767Q809 761 801 751Q773 723 745 698T690 655Q680 646 666 642T634 634L464 626Q455 626 455 620Q469 568 476 523T484 441Q484 418 480 393T464
339Q443 287 427 250T400 190Q400 186 402 186T405 185Q476 185 534 177T663 158Q692 154 717 153T763 152Q824 154 868 171T920 188Q930 188 930 179Q930 176 925 163Q905 124 884 93T837 27Q822 9 790 -2Q714 -29 641 -29Z" />
<glyph unicode="&#xa4;" glyph-name="currency" horiz-adv-x="1147" d="M263 99Q257 93 251 93T233 102L190 145Q183 153 182 160T190 178L310 292Q256 368 256 462Q256 583 323 674L190 803Q176 818 190 835L233 879Q244 890 250 889T263 880Q263 880 283 860T332
809T390 747Q437 783 495 803T622 823Q705 823 778 771Q818 811 851 845T884 880Q891 887 897 888T914 879L957 835Q964 827 965 820T957 803L848 699Q872 661 886 614T901 511Q901 456 881 403T826 303L957 178Q967 167 966 160T957 145L914 102Q904 92 898 92T884
99Q884 99 864 119T815 171T756 233Q708 197 653 180T541 163Q495 163 454 179T378 221Q337 178 300 139T263 99ZM613 274Q688 274 733 334T778 470Q778 572 717 647T543 722Q491 722 454 690T396 608T375 508Q375 400 433 337T613 274Z" />
<glyph unicode="&#xa5;" glyph-name="yen" horiz-adv-x="961" d="M236 0V43Q327 62 363 81T400 115V436H128L106 461Q111 476 116 493T128 527H400V580Q331 727 250 868T101 1095Q83 1118 52 1134T-63 1150L-67 1193Q-8 1201 51 1207T152 1214Q199 1214 230 1175Q305
1078 367 969T499 716L713 1095Q728 1121 704 1136T602 1161V1204H998V1161Q930 1148 893 1135T842 1095L560 578V527H831L856 504L831 436H560V115Q560 102 596 82T726 43V0H236Z" />
<glyph unicode="&#xa7;" glyph-name="section" horiz-adv-x="874" d="M330 -312Q276 -312 222 -294T127 -248Q116 -241 116 -233Q116 -226 122 -214Q127 -200 143 -170T172 -115Q182 -97 188 -97Q190 -97 199 -104Q247 -153 312 -172T445 -192Q462 -192 489 -186T529
-171Q560 -151 573 -117T586 -50Q586 51 491 91Q427 126 353 149T210 197Q106 248 106 361Q106 453 163 526T299 652L276 662Q222 685 197 726T171 821Q171 901 212 966T316 1079T446 1158Q476 1167 506 1172T568 1178Q591 1178 625 1171T690 1156T732 1142Q744
1133 744 1127Q744 1126 744 1123T740 1108Q735 1088 725 1056T704 1000Q699 984 690 984Q685 984 674 993Q622 1028 573 1048T455 1068Q373 1068 336 1021T299 893Q299 851 331 821T398 778Q454 755 511 735T624 694Q687 672 736 632T785 515Q785 475 771 432T727
357Q702 322 666 287T585 222Q641 200 679 160T717 53Q717 13 706 -31T665 -111Q628 -156 573 -202T455 -280T330 -312ZM511 291Q525 291 553 300T599 317Q627 337 639 368T652 434Q652 527 557 570L473 609Q453 615 433 617T390 619Q307 619 270 573T233 446Q233
402 266 374T333 332L364 321Q398 310 437 301T511 291Z" />
<glyph unicode="&#xa8;" glyph-name="dieresis" horiz-adv-x="801" d="M584 1124Q500 1124 500 1220Q500 1277 534 1316T615 1356Q700 1356 700 1261Q700 1205 667 1165T584 1124ZM184 1124Q100 1124 100 1220Q100 1277 134 1316T215 1356Q300 1356 300 1261Q300
1205 267 1165T184 1124Z" />
<glyph unicode="&#xa9;" glyph-name="copyright" horiz-adv-x="1540" d="M769 -30Q633 -30 518 21T318 164T187 374T140 631Q140 768 186 887T318 1097T518 1239T769 1290Q906 1290 1021 1239T1221 1097T1353 887T1400 631Q1400 494 1353 375T1221 164T1021 22T769
-30ZM769 56Q928 56 1051 133T1244 341T1314 631Q1314 789 1244 919T1051 1126T769 1204Q612 1204 489 1127T296 919T226 631Q226 472 296 342T489 134T769 56ZM747 217Q661 217 581 263T450 395T398 602Q398 736 456 835T610 989T820 1044Q896 1044 952 1026T1046
981Q1051 977 1040 957T1011 914T982 883L958 887Q922 915 878 939T771 963Q728 963 671 933T572 830T529 627Q529 521 578 449T696 341T820 305Q864 305 909 323T1031 397Q1039 394 1046 383T1058 369Q969 283 894 250T747 217Z" />
<glyph unicode="&#xaa;" glyph-name="ordfeminine" horiz-adv-x="524" d="M166 711Q126 711 88 736T49 825Q49 887 97 934T246 1010L338 1034V1051Q338 1113 322 1145T252 1178Q223 1178 193 1152T178 1083Q180 1077 158 1070T109 1058T74 1055L66 1075Q72 1117
115 1153T211 1212T299 1235Q371 1235 400 1192T430 1038V842Q430 814 434 802T444 782Q449 779 464 780T508 793L514 768Q468 737 438 724T391 711Q377 711 363 731T341 794Q293 749 247 730T166 711ZM199 780Q265 780 338 840V992L295 981Q207 956 177 924T147
848Q147 807 166 794T199 780ZM51 586V659H485V586H51Z" />
<glyph unicode="&#xab;" glyph-name="guillemotleft" horiz-adv-x="736" d="M545 267Q539 267 527 276Q491 307 451 352T390 431Q375 455 375 472Q375 486 382 498Q398 532 426 574T477 643Q489 660 500 666T522 677Q528 682 555 694T593 711Q598 714 602 714T609
715Q626 715 626 703Q626 694 620 683Q604 649 585 612T549 543Q545 536 544 531T543 522Q543 511 552 500L633 417Q640 410 640 398Q640 391 635 380T629 369Q620 353 603 328T563 276Q554 267 545 267ZM242 267Q236 267 224 276Q188 307 148 352T88 431Q72 454
72 472Q72 486 79 498Q96 532 124 574T174 643Q186 660 198 666T219 677Q226 682 253 694T291 711Q298 715 306 715Q323 715 323 703Q323 694 317 683Q301 649 282 612T246 543Q242 536 241 531T240 522Q240 511 249 500L330 417Q337 410 337 398Q337 391 332 380T326
369Q316 353 300 328T260 276Q253 267 242 267Z" />
<glyph unicode="&#xac;" glyph-name="logicalnot" horiz-adv-x="1022" d="M781 174Q752 174 752 202Q752 202 752 234T754 318T756 427T758 534Q699 536 633 536T530 537Q493 537 433 536T312 535T209 533T167 532Q149 532 144 539T138 559V636Q138 650 143 657T167
665Q167 665 206 664T303 663T422 661T527 660Q565 660 620 661T729 662T819 664T855 665Q867 665 873 661T880 636V559Q880 514 881 454T882 336T884 240T885 202Q885 174 858 174H781Z" />
<glyph unicode="&#xae;" glyph-name="registered" horiz-adv-x="810" d="M404 738Q309 738 235 784T118 910T75 1084Q75 1180 117 1258T234 1383T404 1430Q500 1430 575 1384T693 1259T736 1084Q736 989 693 910T575 785T404 738ZM404 797Q484 797 545 835T642
939T677 1084Q677 1163 642 1228T546 1332T404 1371Q326 1371 265 1332T168 1228T133 1084Q133 1005 168 940T264 836T404 797ZM522 881Q502 881 491 899L386 1070H384Q370 1070 353 1073V924Q353 914 396 905V887H254V905Q298 914 298 924V1250L254 1244L252 1273Q281
1280 313 1285T387 1291Q462 1291 500 1264T539 1196Q539 1150 511 1119T439 1077L542 934Q553 916 594 919L596 898Q576 892 555 887T522 881ZM380 1107Q478 1107 478 1187Q478 1216 456 1236T376 1256Q361 1256 353 1255V1109Q363 1107 380 1107Z" />
<glyph unicode="&#xaf;" glyph-name="overscore" horiz-adv-x="1010" d="M189 1175L167 1200Q172 1222 185 1254T208 1305H821L843 1281Q839 1259 826 1227T804 1175H189Z" />
<glyph unicode="&#xb0;" glyph-name="degree" horiz-adv-x="522" d="M190 778Q121 778 80 814T19 904T0 1012Q2 1073 20 1104T46 1151Q67 1182 105 1213T190 1271Q223 1291 263 1291Q323 1290 363 1259T423 1183T445 1095Q445 971 376 884Q344 849 300 814T190
778ZM221 907Q328 907 328 1011Q328 1071 291 1120T192 1170Q156 1170 137 1133T118 1045Q118 991 147 949T221 907Z" />
<glyph unicode="&#xb1;" glyph-name="plusminus" horiz-adv-x="1022" d="M472 215Q443 215 443 244Q443 244 444 290T446 405T448 539Q386 538 319 537T207 535T161 534Q133 534 133 561V638Q133 667 161 667Q161 667 206 666T317 664T448 662Q447 718 446 785T444
902T443 951Q443 960 448 968T472 977H549Q575 977 575 948Q575 948 574 918T573 842T571 748T570 662Q626 662 693 663T809 666T858 667Q870 667 877 662T884 638V561Q884 549 879 542T855 534Q855 534 825 534T749 536T655 537T570 539Q571 476 572 408T574 292T575
244Q575 215 549 215H472ZM161 4Q133 4 133 31V108Q133 137 161 137Q161 137 197 136T290 134T405 132T508 131Q546 131 604 132T721 134T818 136T858 137Q866 137 875 132T884 108V31Q884 18 879 11T855 4Q855 4 814 5T714 6T599 8T511 9Q474 9 416 8T299 7T201
5T161 4Z" />
<glyph unicode="&#xb4;" glyph-name="acute" horiz-adv-x="653" d="M274 1047Q256 1051 243 1058T217 1075L451 1489Q475 1488 524 1480T596 1466L619 1427L274 1047Z" />
<glyph unicode="&#xb6;" glyph-name="paragraph" horiz-adv-x="973" d="M547 -368Q532 -368 532 -351Q532 -346 544 -306T569 -216T583 -131Q585 -60 585 27T586 214V780Q586 851 586 917T585 1045Q585 1056 570 1059Q511 1072 438 1072Q364 1072 312 999T260
816Q260 753 292 705T374 628T482 600Q496 600 510 599T525 588Q525 583 513 566Q486 529 471 511T439 472Q431 462 424 457T405 452Q390 452 371 459Q234 505 170 588T106 795Q106 864 148 940T272 1075Q333 1118 394 1149T527 1181Q602 1181 689 1169T889 1138Q901
1136 901 1127Q901 1121 893 1113Q880 1100 863 1069T846 985V60Q846 53 846 30T847 -16T848 -46Q848 -57 846 -68T838 -86Q806 -135 780 -161Q769 -174 760 -174Q749 -174 749 -161Q749 -138 751 -112T753 -39V1014Q753 1026 746 1031Q741 1033 720 1036T688 1040Q679
1040 679 1033V-84Q679 -112 681 -136T683 -165Q683 -187 680 -205T658 -251Q639 -278 622 -300T564 -361Q557 -368 547 -368Z" />
<glyph unicode="&#xb7;" glyph-name="middot" horiz-adv-x="659" d="M328 460Q324 460 315 466Q283 489 249 522T204 566Q203 568 200 570T197 579Q197 589 207 595Q218 606 243 633T298 697Q306 708 313 708Q315 708 328 699Q340 688 375 654T438 602Q448 598
448 586Q448 582 443 575Q432 563 412 540T372 495T344 468Q337 460 328 460Z" />
<glyph unicode="&#xb8;" glyph-name="cedilla" horiz-adv-x="469" d="M100 -444L78 -395Q182 -377 226 -343T270 -276Q270 -242 244 -229T156 -209L229 14L307 12L268 -104Q321 -115 364 -144T408 -229Q408 -303 336 -361T100 -444Z" />
<glyph unicode="&#xba;" glyph-name="ordmasculine" horiz-adv-x="578" d="M272 711Q172 711 111 782T49 963Q49 1033 83 1095T176 1196T305 1235Q402 1235 465 1164T528 983Q528 915 490 853T394 751T272 711ZM305 768Q359 768 396 825T434 967Q434 1051 386
1113T272 1176Q213 1176 178 1119T143 977Q143 921 166 873T227 797T305 768ZM61 586V659H516V586H61Z" />
<glyph unicode="&#xbb;" glyph-name="guillemotright" horiz-adv-x="736" d="M410 267Q395 267 395 279Q395 290 400 299Q416 333 436 370T472 439Q476 446 476 451T477 460Q477 473 468 482L387 564Q380 572 380 585Q380 591 385 602T390 613Q400 629 417 655T457
706Q466 715 475 715Q481 715 493 706Q529 675 569 631T629 552Q645 525 645 511Q645 504 643 497T638 484Q619 450 592 408T543 339Q531 323 520 317T498 305Q491 301 468 291T431 272Q414 267 410 267ZM109 267Q93 267 93 279Q93 289 99 299Q115 333 135 370T171
439Q175 446 175 451T176 460Q176 474 166 482L86 564Q79 572 79 585Q79 591 84 602T89 613Q99 629 116 655T156 706Q165 715 174 715Q180 715 192 706Q228 675 268 631T328 552Q344 525 344 511Q344 504 342 497T337 484Q318 450 291 408T242 339Q230 323 219
317T197 305Q190 301 167 291T129 272Q114 267 109 267Z" />
<glyph unicode="&#xbf;" glyph-name="questiondown" horiz-adv-x="736" d="M389 611Q398 611 405 606Q439 581 471 536T504 437Q504 397 487 366T453 312Q418 264 378 214T309 112T280 2Q280 -78 325 -117T441 -173T586 -199Q606 -202 606 -217Q606 -226 586 -252T542
-303T509 -337Q502 -344 495 -345T480 -346Q451 -346 382 -332T256 -285Q203 -254 166 -199T129 -77Q129 27 190 118T319 285Q339 308 347 330T355 375Q355 391 346 416T312 469Q301 479 301 491Q301 496 302 499T307 512Q312 529 335 560T369 602Q378 611 389
611ZM376 987Q385 987 389 984Q409 972 443 939T497 883Q506 870 506 862Q506 853 500 847Q475 822 451 794T412 746Q406 736 396 736Q391 736 388 738T380 744Q370 751 349 771T306 812T276 837Q262 847 262 859Q262 864 271 880Q277 891 294 913T332 955T364
984Q369 987 376 987Z" />
<glyph unicode="&#xc0;" glyph-name="Agrave" horiz-adv-x="1219" d="M0 0V43Q68 55 108 68T158 111L530 1237Q553 1262 587 1282T647 1317L1067 111Q1077 83 1105 67T1198 43V0H776V43Q853 48 883 63T903 111L789 445H381L270 111Q260 80 297 66T416 43V0H0ZM411
535H758L582 1049L411 535ZM731 1367L262 1610L270 1655Q285 1671 326 1694T389 1729L776 1412Q762 1393 755 1384T731 1367Z" />
<glyph unicode="&#xc1;" glyph-name="Aacute" horiz-adv-x="1219" d="M0 0V43Q68 55 108 68T158 111L530 1237Q553 1262 587 1282T647 1317L1067 111Q1077 83 1105 67T1198 43V0H776V43Q853 48 883 63T903 111L789 445H381L270 111Q260 80 297 66T416 43V0H0ZM411
535H758L582 1049L411 535ZM467 1367Q450 1375 443 1384T422 1412L809 1729Q830 1717 871 1694T927 1655L936 1610L467 1367Z" />
<glyph unicode="&#xc2;" glyph-name="Acircumflex" horiz-adv-x="1219" d="M0 0V43Q68 55 108 68T158 111L530 1237Q553 1262 587 1282T647 1317L1067 111Q1077 83 1105 67T1198 43V0H776V43Q853 48 883 63T903 111L789 445H381L270 111Q260 80 297 66T416 43V0H0ZM411
535H758L582 1049L411 535ZM327 1367Q311 1375 304 1384T282 1412L546 1721H653L915 1412Q903 1393 896 1384T872 1367L598 1575L327 1367Z" />
<glyph unicode="&#xc3;" glyph-name="Atilde" horiz-adv-x="1219" d="M0 0V43Q68 55 108 68T158 111L530 1237Q553 1262 587 1282T647 1317L1067 111Q1077 83 1105 67T1198 43V0H776V43Q853 48 883 63T903 111L789 445H381L270 111Q260 80 297 66T416 43V0H0ZM411
535H758L582 1049L411 535ZM311 1393L258 1413Q282 1468 318 1519T399 1605T497 1639Q548 1639 591 1611T671 1555T741 1526Q779 1526 815 1558T886 1649L940 1626Q917 1572 881 1520T798 1435T700 1401Q654 1401 613 1429T532 1486T454 1514Q414 1514 381 1482T311
1393Z" />
<glyph unicode="&#xc4;" glyph-name="Adieresis" horiz-adv-x="1219" d="M0 0V43Q68 55 108 68T158 111L530 1237Q553 1262 587 1282T647 1317L1067 111Q1077 83 1105 67T1198 43V0H776V43Q853 48 883 63T903 111L789 445H381L270 111Q260 80 297 66T416 43V0H0ZM411
535H758L582 1049L411 535ZM783 1404Q699 1404 699 1500Q699 1557 733 1596T814 1636Q899 1636 899 1541Q899 1485 866 1445T783 1404ZM383 1404Q299 1404 299 1500Q299 1557 333 1596T414 1636Q499 1636 499 1541Q499 1485 466 1445T383 1404Z" />
<glyph unicode="&#xc5;" glyph-name="Aring" horiz-adv-x="1219" d="M0 0V43Q68 55 108 68T158 111L530 1237Q553 1262 587 1282T647 1317L1067 111Q1077 83 1105 67T1198 43V0H776V43Q853 48 883 63T903 111L789 445H381L270 111Q260 80 297 66T416 43V0H0ZM411
535H758L582 1049L411 535ZM568 1370Q501 1370 457 1415T413 1524Q413 1593 446 1646T529 1729T630 1760Q695 1760 740 1714T785 1604Q785 1537 752 1484T669 1401T568 1370ZM589 1446Q629 1446 662 1476T695 1563Q695 1611 672 1647T609 1684Q568 1684 536 1652T503
1565Q503 1519 526 1483T589 1446Z" />
<glyph unicode="&#xc6;" glyph-name="AE" horiz-adv-x="1595" d="M0 0V43Q68 55 106 68T158 111L571 1133Q585 1167 532 1182T381 1217V1260H1438L1468 1235Q1465 1184 1453 1116T1427 1010H1382Q1378 1102 1359 1136T1300 1170H934V735H1339L1366 707Q1349 679
1323 646T1274 596Q1245 625 1203 638T1075 651H934V154Q934 135 949 121T1008 98T1141 90H1270Q1332 90 1370 100T1435 147T1491 262L1536 244Q1527 158 1514 94T1493 0H631V43Q699 57 736 74T774 104V651H505L285 111Q272 82 303 67T416 43V0H0ZM539 735H774V1148Q774
1170 742 1168T696 1131L539 735Z" />
<glyph unicode="&#xc7;" glyph-name="Ccedilla" horiz-adv-x="1098" d="M571 -30Q478 -30 389 11T228 132T113 326T70 586Q70 746 118 875T250 1097T443 1240T676 1290Q783 1290 865 1261T999 1190Q1007 1184 990 1160T949 1110T909 1067L874 1073Q824 1120 754
1150T592 1180Q541 1180 478 1151T357 1057T262 886T225 623Q225 490 263 390T363 224T498 124T643 90Q697 90 784 127T981 256Q992 252 1002 235T1018 211Q891 75 783 23T571 -30ZM441 -444L419 -395Q523 -377 567 -343T611 -276Q611 -242 585 -229T497 -209L570
14L648 12L609 -104Q662 -115 705 -144T749 -229Q749 -303 677 -361T441 -444Z" />
<glyph unicode="&#xc8;" glyph-name="Egrave" horiz-adv-x="1016" d="M50 0V43Q118 57 156 74T195 104V1155Q195 1167 159 1185T50 1217V1260H856L889 1235Q886 1184 873 1116T848 1010H803Q799 1102 779 1136T721 1170H355V735H760L786 707Q770 679 743 646T694
596Q663 625 622 638T496 651H355V154Q355 135 369 121T427 98T559 90H688Q750 90 788 100T855 147T911 262L954 244Q947 158 934 94T913 0H50ZM634 1367L165 1610L173 1655Q188 1671 229 1694T292 1729L679 1412Q665 1393 658 1384T634 1367Z" />
<glyph unicode="&#xc9;" glyph-name="Eacute" horiz-adv-x="1016" d="M50 0V43Q118 57 156 74T195 104V1155Q195 1167 159 1185T50 1217V1260H856L889 1235Q886 1184 873 1116T848 1010H803Q799 1102 779 1136T721 1170H355V735H760L786 707Q770 679 743 646T694
596Q663 625 622 638T496 651H355V154Q355 135 369 121T427 98T559 90H688Q750 90 788 100T855 147T911 262L954 244Q947 158 934 94T913 0H50ZM370 1367Q353 1375 346 1384T325 1412L712 1729Q733 1717 774 1694T830 1655L839 1610L370 1367Z" />
<glyph unicode="&#xca;" glyph-name="Ecircumflex" horiz-adv-x="1016" d="M50 0V43Q118 57 156 74T195 104V1155Q195 1167 159 1185T50 1217V1260H856L889 1235Q886 1184 873 1116T848 1010H803Q799 1102 779 1136T721 1170H355V735H760L786 707Q770 679 743
646T694 596Q663 625 622 638T496 651H355V154Q355 135 369 121T427 98T559 90H688Q750 90 788 100T855 147T911 262L954 244Q947 158 934 94T913 0H50ZM230 1367Q214 1375 207 1384T185 1412L449 1721H556L818 1412Q806 1393 799 1384T775 1367L501 1575L230 1367Z"
/>
<glyph unicode="&#xcb;" glyph-name="Edieresis" horiz-adv-x="1016" d="M50 0V43Q118 57 156 74T195 104V1155Q195 1167 159 1185T50 1217V1260H856L889 1235Q886 1184 873 1116T848 1010H803Q799 1102 779 1136T721 1170H355V735H760L786 707Q770 679 743 646T694
596Q663 625 622 638T496 651H355V154Q355 135 369 121T427 98T559 90H688Q750 90 788 100T855 147T911 262L954 244Q947 158 934 94T913 0H50ZM686 1404Q602 1404 602 1500Q602 1557 636 1596T717 1636Q802 1636 802 1541Q802 1485 769 1445T686 1404ZM286 1404Q202
1404 202 1500Q202 1557 236 1596T317 1636Q402 1636 402 1541Q402 1485 369 1445T286 1404Z" />
<glyph unicode="&#xcc;" glyph-name="Igrave" horiz-adv-x="610" d="M70 0V43Q138 57 176 74T215 104V1155Q215 1167 179 1185T70 1217V1260H520V1217Q453 1203 414 1186T375 1155V104Q375 92 411 75T520 43V0H70ZM427 1367L-42 1610L-34 1655Q-19 1671 22 1694T85
1729L472 1412Q458 1393 451 1384T427 1367Z" />
<glyph unicode="&#xcd;" glyph-name="Iacute" horiz-adv-x="610" d="M70 0V43Q138 57 176 74T215 104V1155Q215 1167 179 1185T70 1217V1260H520V1217Q453 1203 414 1186T375 1155V104Q375 92 411 75T520 43V0H70ZM163 1367Q146 1375 139 1384T118 1412L505 1729Q526
1717 567 1694T623 1655L632 1610L163 1367Z" />
<glyph unicode="&#xce;" glyph-name="Icircumflex" horiz-adv-x="610" d="M70 0V43Q138 57 176 74T215 104V1155Q215 1167 179 1185T70 1217V1260H520V1217Q453 1203 414 1186T375 1155V104Q375 92 411 75T520 43V0H70ZM23 1367Q7 1375 0 1384T-22 1412L242 1721H349L611
1412Q599 1393 592 1384T568 1367L294 1575L23 1367Z" />
<glyph unicode="&#xcf;" glyph-name="Idieresis" horiz-adv-x="610" d="M70 0V43Q138 57 176 74T215 104V1155Q215 1167 179 1185T70 1217V1260H520V1217Q453 1203 414 1186T375 1155V104Q375 92 411 75T520 43V0H70ZM479 1404Q395 1404 395 1500Q395 1557 429
1596T510 1636Q595 1636 595 1541Q595 1485 562 1445T479 1404ZM79 1404Q-5 1404 -5 1500Q-5 1557 29 1596T110 1636Q195 1636 195 1541Q195 1485 162 1445T79 1404Z" />
<glyph unicode="&#xd0;" glyph-name="Eth" horiz-adv-x="1214" d="M50 0V43Q118 57 156 74T195 104V615H49L27 640Q37 674 49 705H195V1189Q156 1184 120 1179T50 1168L41 1230Q100 1247 181 1260T350 1282T518 1290Q704 1290 839 1217T1049 1007T1123 676Q1123
489 1069 360T930 151T746 36T559 0H50ZM537 84Q606 84 679 117T814 219T914 392T953 637Q953 903 824 1054T453 1206Q403 1206 355 1203V705H614L639 682L614 615H355V154Q355 123 382 109T452 89T537 84Z" />
<glyph unicode="&#xd1;" glyph-name="Ntilde" horiz-adv-x="1329" d="M1135 -30Q1086 -24 1057 -10T1016 21L315 993V104Q315 92 349 73T460 43V0H50V43Q124 52 159 71T195 104V1149Q162 1180 126 1195T50 1217V1260H262Q291 1260 306 1247T358 1182L1015 276V1155Q1015
1167 983 1186T870 1217V1260H1280V1217Q1208 1207 1172 1188T1135 1155V-30ZM377 1393L324 1413Q348 1468 384 1519T465 1605T563 1639Q614 1639 657 1611T737 1555T807 1526Q845 1526 881 1558T952 1649L1006 1626Q983 1572 947 1520T864 1435T766 1401Q720 1401
679 1429T598 1486T520 1514Q480 1514 447 1482T377 1393Z" />
<glyph unicode="&#xd2;" glyph-name="Ograve" horiz-adv-x="1229" d="M575 -30Q455 -30 361 22T202 165T104 370T70 612Q70 748 113 870T234 1087T413 1236T633 1290Q757 1290 851 1236T1009 1091T1105 884T1138 647Q1138 511 1094 389T971 173T791 24T575 -30ZM604
90Q770 90 876 227T983 629Q983 733 956 830T879 1005T759 1129T604 1175Q426 1175 326 1031T225 641Q225 492 277 367T415 166T604 90ZM747 1367L278 1610L286 1655Q301 1671 342 1694T405 1729L792 1412Q778 1393 771 1384T747 1367Z" />
<glyph unicode="&#xd3;" glyph-name="Oacute" horiz-adv-x="1229" d="M575 -30Q455 -30 361 22T202 165T104 370T70 612Q70 748 113 870T234 1087T413 1236T633 1290Q757 1290 851 1236T1009 1091T1105 884T1138 647Q1138 511 1094 389T971 173T791 24T575 -30ZM604
90Q770 90 876 227T983 629Q983 733 956 830T879 1005T759 1129T604 1175Q426 1175 326 1031T225 641Q225 492 277 367T415 166T604 90ZM483 1367Q466 1375 459 1384T438 1412L825 1729Q846 1717 887 1694T943 1655L952 1610L483 1367Z" />
<glyph unicode="&#xd4;" glyph-name="Ocircumflex" horiz-adv-x="1229" d="M575 -30Q455 -30 361 22T202 165T104 370T70 612Q70 748 113 870T234 1087T413 1236T633 1290Q757 1290 851 1236T1009 1091T1105 884T1138 647Q1138 511 1094 389T971 173T791 24T575
-30ZM604 90Q770 90 876 227T983 629Q983 733 956 830T879 1005T759 1129T604 1175Q426 1175 326 1031T225 641Q225 492 277 367T415 166T604 90ZM343 1367Q327 1375 320 1384T298 1412L562 1721H669L931 1412Q919 1393 912 1384T888 1367L614 1575L343 1367Z"
/>
<glyph unicode="&#xd5;" glyph-name="Otilde" horiz-adv-x="1229" d="M575 -30Q455 -30 361 22T202 165T104 370T70 612Q70 748 113 870T234 1087T413 1236T633 1290Q757 1290 851 1236T1009 1091T1105 884T1138 647Q1138 511 1094 389T971 173T791 24T575 -30ZM604
90Q770 90 876 227T983 629Q983 733 956 830T879 1005T759 1129T604 1175Q426 1175 326 1031T225 641Q225 492 277 367T415 166T604 90ZM327 1393L274 1413Q298 1468 334 1519T415 1605T513 1639Q564 1639 607 1611T687 1555T757 1526Q795 1526 831 1558T902 1649L956
1626Q933 1572 897 1520T814 1435T716 1401Q670 1401 629 1429T548 1486T470 1514Q430 1514 397 1482T327 1393Z" />
<glyph unicode="&#xd6;" glyph-name="Odieresis" horiz-adv-x="1229" d="M575 -30Q455 -30 361 22T202 165T104 370T70 612Q70 748 113 870T234 1087T413 1236T633 1290Q757 1290 851 1236T1009 1091T1105 884T1138 647Q1138 511 1094 389T971 173T791 24T575
-30ZM604 90Q770 90 876 227T983 629Q983 733 956 830T879 1005T759 1129T604 1175Q426 1175 326 1031T225 641Q225 492 277 367T415 166T604 90ZM799 1404Q715 1404 715 1500Q715 1557 749 1596T830 1636Q915 1636 915 1541Q915 1485 882 1445T799 1404ZM399 1404Q315
1404 315 1500Q315 1557 349 1596T430 1636Q515 1636 515 1541Q515 1485 482 1445T399 1404Z" />
<glyph unicode="&#xd7;" glyph-name="multiply" horiz-adv-x="1022" d="M202 171Q194 171 183 179L129 235Q118 246 118 255Q118 263 129 274Q129 274 162 305T243 383T342 478T426 559Q396 589 349 635T253 728T173 806T140 838Q138 842 136 846T133 855Q133
865 144 876L197 930Q205 941 217 941Q225 941 236 930Q236 930 268 897T348 814T441 718T513 645Q543 675 589 723T681 819T758 901T790 935Q798 944 807 944Q816 944 828 932L884 879Q893 865 893 858Q893 851 882 838Q882 838 849 805T767 724T673 630T600 559Q634
526 682 479T778 386T857 310T889 279Q900 268 900 260Q900 249 889 240L835 186Q825 176 814 176Q803 176 794 186Q794 186 764 216T688 293T595 388T513 473Q480 439 432 390T335 293T255 213T222 181Q212 171 202 171Z" />
<glyph unicode="&#xd8;" glyph-name="Oslash" horiz-adv-x="1229" d="M104 -53L76 -20L204 162Q138 251 104 368T70 612Q70 748 113 870T234 1087T413 1236T633 1290Q719 1290 791 1263T921 1187L975 1264Q1003 1281 1037 1293T1102 1313L1130 1280L1003 1099Q1070
1008 1104 890T1138 647Q1138 511 1094 389T971 173T791 24T575 -30Q489 -30 417 -3T286 74L233 -2Q215 -18 172 -31T104 -53ZM305 307L834 1063Q788 1115 730 1145T604 1175Q426 1175 326 1031T225 641Q225 547 246 462T305 307ZM604 90Q770 90 876 227T983 629Q983
811 905 959L377 203Q425 150 483 120T604 90Z" />
<glyph unicode="&#xd9;" glyph-name="Ugrave" horiz-adv-x="1339" d="M666 -30Q529 -30 423 21T256 177T195 444V1155Q195 1167 159 1185T50 1217V1260H500V1217Q433 1203 394 1186T355 1155V494Q355 302 444 194T705 85Q800 85 866 143T966 292T1000 483V1155Q1000
1167 964 1185T855 1217V1260H1275V1217Q1208 1203 1169 1186T1130 1155V524Q1130 262 1006 116T666 -30ZM809 1367L340 1610L348 1655Q363 1671 404 1694T467 1729L854 1412Q840 1393 833 1384T809 1367Z" />
<glyph unicode="&#xda;" glyph-name="Uacute" horiz-adv-x="1339" d="M666 -30Q529 -30 423 21T256 177T195 444V1155Q195 1167 159 1185T50 1217V1260H500V1217Q433 1203 394 1186T355 1155V494Q355 302 444 194T705 85Q800 85 866 143T966 292T1000 483V1155Q1000
1167 964 1185T855 1217V1260H1275V1217Q1208 1203 1169 1186T1130 1155V524Q1130 262 1006 116T666 -30ZM545 1367Q528 1375 521 1384T500 1412L887 1729Q908 1717 949 1694T1005 1655L1014 1610L545 1367Z" />
<glyph unicode="&#xdb;" glyph-name="Ucircumflex" horiz-adv-x="1339" d="M666 -30Q529 -30 423 21T256 177T195 444V1155Q195 1167 159 1185T50 1217V1260H500V1217Q433 1203 394 1186T355 1155V494Q355 302 444 194T705 85Q800 85 866 143T966 292T1000 483V1155Q1000
1167 964 1185T855 1217V1260H1275V1217Q1208 1203 1169 1186T1130 1155V524Q1130 262 1006 116T666 -30ZM405 1367Q389 1375 382 1384T360 1412L624 1721H731L993 1412Q981 1393 974 1384T950 1367L676 1575L405 1367Z" />
<glyph unicode="&#xdc;" glyph-name="Udieresis" horiz-adv-x="1339" d="M666 -30Q529 -30 423 21T256 177T195 444V1155Q195 1167 159 1185T50 1217V1260H500V1217Q433 1203 394 1186T355 1155V494Q355 302 444 194T705 85Q800 85 866 143T966 292T1000 483V1155Q1000
1167 964 1185T855 1217V1260H1275V1217Q1208 1203 1169 1186T1130 1155V524Q1130 262 1006 116T666 -30ZM861 1404Q777 1404 777 1500Q777 1557 811 1596T892 1636Q977 1636 977 1541Q977 1485 944 1445T861 1404ZM461 1404Q377 1404 377 1500Q377 1557 411 1596T492
1636Q577 1636 577 1541Q577 1485 544 1445T461 1404Z" />
<glyph unicode="&#xdd;" glyph-name="Yacute" horiz-adv-x="1217" d="M360 0V43Q451 62 487 81T524 115V537Q475 645 410 763T280 984T168 1151Q149 1173 118 1189T4 1206L0 1249Q59 1257 118 1263T219 1270Q266 1270 297 1231Q347 1167 405 1075T520 879T623
680L891 1151Q906 1177 882 1192T780 1217V1260H1176V1217Q1108 1204 1071 1191T1020 1151L684 541V115Q684 102 720 82T850 43V0H360ZM472 1367Q455 1375 448 1384T427 1412L814 1729Q835 1717 876 1694T932 1655L941 1610L472 1367Z" />
<glyph unicode="&#xde;" glyph-name="Thorn" horiz-adv-x="1071" d="M49 0V43Q117 57 156 74T195 104V1155Q195 1167 158 1185T49 1217V1260H530V1217Q427 1200 391 1185T355 1155V1014Q418 1020 510 1020Q725 1020 853 929T982 666Q982 562 941 487T836 362T702
289T573 265Q477 265 412 298L389 369Q430 350 469 345T543 340Q605 340 670 372T781 467T827 625Q827 736 777 804T641 904T453 936Q403 936 355 933V104Q355 92 390 76T530 43V0H49Z" />
<glyph unicode="&#xdf;" glyph-name="germandbls" horiz-adv-x="1157" d="M729 -30Q692 -30 635 -18T528 13T469 47Q465 54 464 87T464 162T471 238T483 283L522 270Q532 199 571 155T663 90T768 70Q839 70 888 110T937 217Q937 286 904 332T820 412T710 475T601
537T516 615T483 729Q483 810 516 856T599 929T698 978T781 1032T815 1122Q815 1190 790 1260T710 1377T565 1425Q501 1425 451 1392T373 1270T345 1016V0H55V43Q123 55 159 72T195 102V961Q195 1122 223 1214T296 1361T393 1458Q447 1502 514 1526T653 1550Q739
1550 799 1515T896 1425T950 1308T967 1190Q967 1092 933 1035T847 946T744 893T658 845T623 770Q623 727 655 696T737 640T845 586T952 518T1035 423T1067 283Q1067 205 1033 134T924 16T729 -30Z" />
<glyph unicode="&#xe0;" glyph-name="agrave" horiz-adv-x="940" d="M293 -30Q245 -30 196 -9T114 61T80 186Q80 263 106 313T170 401Q202 433 248 461T382 514T623 561V702Q623 770 588 816T455 860Q391 859 339 822T292 724Q294 712 258 697T181 673T122 667L108
706Q139 773 210 830T370 924T544 960Q654 960 713 903T773 742V178Q773 100 813 100Q827 100 849 105T911 127L926 82Q841 24 786 -3T702 -30Q669 -30 647 16T623 143Q533 52 445 11T293 -30ZM352 100Q411 100 479 131T623 227V486Q511 468 450 451T356 414T302
372Q277 345 261 311T244 229Q244 176 263 148T309 110T352 100ZM538 1047L186 1424L208 1465Q221 1469 249 1474T308 1483T354 1489L594 1078Q572 1057 538 1047Z" />
<glyph unicode="&#xe1;" glyph-name="aacute" horiz-adv-x="940" d="M293 -30Q245 -30 196 -9T114 61T80 186Q80 263 106 313T170 401Q202 433 248 461T382 514T623 561V702Q623 770 588 816T455 860Q391 859 339 822T292 724Q294 712 258 697T181 673T122 667L108
706Q139 773 210 830T370 924T544 960Q654 960 713 903T773 742V178Q773 100 813 100Q827 100 849 105T911 127L926 82Q841 24 786 -3T702 -30Q669 -30 647 16T623 143Q533 52 445 11T293 -30ZM352 100Q411 100 479 131T623 227V486Q511 468 450 451T356 414T302
372Q277 345 261 311T244 229Q244 176 263 148T309 110T352 100ZM437 1047Q419 1050 405 1058T380 1075L614 1489Q637 1488 687 1481T759 1466L782 1427L437 1047Z" />
<glyph unicode="&#xe2;" glyph-name="acircumflex" horiz-adv-x="940" d="M293 -30Q245 -30 196 -9T114 61T80 186Q80 263 106 313T170 401Q202 433 248 461T382 514T623 561V702Q623 770 588 816T455 860Q391 859 339 822T292 724Q294 712 258 697T181 673T122
667L108 706Q139 773 210 830T370 924T544 960Q654 960 713 903T773 742V178Q773 100 813 100Q827 100 849 105T911 127L926 82Q841 24 786 -3T702 -30Q669 -30 647 16T623 143Q533 52 445 11T293 -30ZM352 100Q411 100 479 131T623 227V486Q511 468 450 451T356
414T302 372Q277 345 261 311T244 229Q244 176 263 148T309 110T352 100ZM208 1047Q192 1055 185 1064T163 1092L427 1471H534L796 1092Q784 1073 777 1064T753 1047L479 1315L208 1047Z" />
<glyph unicode="&#xe3;" glyph-name="atilde" horiz-adv-x="940" d="M293 -30Q245 -30 196 -9T114 61T80 186Q80 263 106 313T170 401Q202 433 248 461T382 514T623 561V702Q623 770 588 816T455 860Q391 859 339 822T292 724Q294 712 258 697T181 673T122 667L108
706Q139 773 210 830T370 924T544 960Q654 960 713 903T773 742V178Q773 100 813 100Q827 100 849 105T911 127L926 82Q841 24 786 -3T702 -30Q669 -30 647 16T623 143Q533 52 445 11T293 -30ZM352 100Q411 100 479 131T623 227V486Q511 468 450 451T356 414T302
372Q277 345 261 311T244 229Q244 176 263 148T309 110T352 100ZM192 1113L139 1133Q163 1188 199 1239T280 1325T378 1359Q429 1359 472 1331T552 1275T622 1246Q660 1246 696 1278T767 1369L821 1346Q798 1292 762 1240T679 1155T581 1121Q535 1121 494 1149T413
1206T335 1234Q295 1234 262 1202T192 1113Z" />
<glyph unicode="&#xe4;" glyph-name="adieresis" horiz-adv-x="940" d="M293 -30Q245 -30 196 -9T114 61T80 186Q80 263 106 313T170 401Q202 433 248 461T382 514T623 561V702Q623 770 588 816T455 860Q391 859 339 822T292 724Q294 712 258 697T181 673T122
667L108 706Q139 773 210 830T370 924T544 960Q654 960 713 903T773 742V178Q773 100 813 100Q827 100 849 105T911 127L926 82Q841 24 786 -3T702 -30Q669 -30 647 16T623 143Q533 52 445 11T293 -30ZM352 100Q411 100 479 131T623 227V486Q511 468 450 451T356
414T302 372Q277 345 261 311T244 229Q244 176 263 148T309 110T352 100ZM664 1124Q580 1124 580 1220Q580 1277 614 1316T695 1356Q780 1356 780 1261Q780 1205 747 1165T664 1124ZM264 1124Q180 1124 180 1220Q180 1277 214 1316T295 1356Q380 1356 380 1261Q380
1205 347 1165T264 1124Z" />
<glyph unicode="&#xe5;" glyph-name="aring" horiz-adv-x="940" d="M293 -30Q245 -30 196 -9T114 61T80 186Q80 263 106 313T170 401Q202 433 248 461T382 514T623 561V702Q623 770 588 816T455 860Q391 859 339 822T292 724Q294 712 258 697T181 673T122 667L108
706Q139 773 210 830T370 924T544 960Q654 960 713 903T773 742V178Q773 100 813 100Q827 100 849 105T911 127L926 82Q841 24 786 -3T702 -30Q669 -30 647 16T623 143Q533 52 445 11T293 -30ZM352 100Q411 100 479 131T623 227V486Q511 468 450 451T356 414T302
372Q277 345 261 311T244 229Q244 176 263 148T309 110T352 100ZM449 1050Q382 1050 338 1095T294 1204Q294 1273 327 1326T410 1409T511 1440Q576 1440 621 1394T666 1284Q666 1217 633 1164T550 1081T449 1050ZM470 1126Q510 1126 543 1156T576 1243Q576 1291
553 1327T490 1364Q449 1364 417 1332T384 1245Q384 1199 407 1163T470 1126Z" />
<glyph unicode="&#xe6;" glyph-name="ae" horiz-adv-x="1417" d="M293 -30Q245 -30 196 -9T114 61T80 186Q80 305 174 401T463 553Q496 562 538 567T623 576V662Q623 714 612 759T567 832T467 860Q425 860 377 835T301 768T292 676Q295 667 274 656T222 636T163
623T122 621L108 657Q116 716 163 770T277 867T413 935T535 960Q623 960 674 924T749 816Q814 897 890 928T1024 960Q1116 960 1176 923T1272 826T1322 696T1337 557Q1318 537 1288 520T1225 489H776Q775 472 775 455T774 418Q774 341 801 269T881 149T1008 102Q1050
102 1088 110T1174 146T1292 236Q1305 229 1315 216T1329 195Q1249 100 1186 52T1065 -13T944 -30Q856 -30 778 25T658 179Q601 110 532 64T399 -6T293 -30ZM785 580H1133Q1171 580 1171 616Q1171 711 1130 785T995 860Q965 860 923 839T842 757T785 580ZM352 100Q406
100 485 135T637 243Q623 302 623 365V485Q590 483 564 480T526 473Q376 436 310 374T244 229Q244 176 263 148T309 110T352 100Z" />
<glyph unicode="&#xe7;" glyph-name="ccedilla" horiz-adv-x="895" d="M465 -30Q368 -30 280 26T136 189T80 444Q80 588 147 705T331 891T590 960Q656 960 723 938T825 881Q828 865 819 833T795 769T768 717L731 727Q715 762 659 806T500 850Q430 850 369 809T269
684T230 475Q230 362 273 278T387 147T537 100Q575 100 607 106T683 140T801 231L840 190Q753 88 693 42T580 -17T465 -30ZM347 -444L325 -395Q429 -377 473 -343T517 -276Q517 -242 491 -229T403 -209L476 14L554 12L515 -104Q568 -115 611 -144T655 -229Q655
-303 583 -361T347 -444Z" />
<glyph unicode="&#xe8;" glyph-name="egrave" horiz-adv-x="946" d="M465 -30Q363 -30 275 27T134 189T80 434Q80 569 138 689T301 881Q345 912 408 936T524 960Q622 960 688 922T793 822T849 691T866 557Q848 537 818 520T756 490H230Q231 387 267 298T369 155T526
100Q568 100 607 108T698 146T823 236Q836 229 846 216T860 195Q771 98 708 50T590 -14T465 -30ZM236 580H664Q687 580 694 587T702 616Q702 643 694 683T665 762T602 828T496 855Q393 855 324 779T236 580ZM568 1047L216 1424L238 1465Q251 1469 279 1474T338
1483T384 1489L624 1078Q602 1057 568 1047Z" />
<glyph unicode="&#xe9;" glyph-name="eacute" horiz-adv-x="946" d="M465 -30Q363 -30 275 27T134 189T80 434Q80 569 138 689T301 881Q345 912 408 936T524 960Q622 960 688 922T793 822T849 691T866 557Q848 537 818 520T756 490H230Q231 387 267 298T369 155T526
100Q568 100 607 108T698 146T823 236Q836 229 846 216T860 195Q771 98 708 50T590 -14T465 -30ZM236 580H664Q687 580 694 587T702 616Q702 643 694 683T665 762T602 828T496 855Q393 855 324 779T236 580ZM467 1047Q449 1050 435 1058T410 1075L644 1489Q667
1488 717 1481T789 1466L812 1427L467 1047Z" />
<glyph unicode="&#xea;" glyph-name="ecircumflex" horiz-adv-x="946" d="M465 -30Q363 -30 275 27T134 189T80 434Q80 569 138 689T301 881Q345 912 408 936T524 960Q622 960 688 922T793 822T849 691T866 557Q848 537 818 520T756 490H230Q231 387 267 298T369
155T526 100Q568 100 607 108T698 146T823 236Q836 229 846 216T860 195Q771 98 708 50T590 -14T465 -30ZM236 580H664Q687 580 694 587T702 616Q702 643 694 683T665 762T602 828T496 855Q393 855 324 779T236 580ZM238 1047Q222 1055 215 1064T193 1092L457 1471H564L826
1092Q814 1073 807 1064T783 1047L509 1315L238 1047Z" />
<glyph unicode="&#xeb;" glyph-name="edieresis" horiz-adv-x="946" d="M465 -30Q363 -30 275 27T134 189T80 434Q80 569 138 689T301 881Q345 912 408 936T524 960Q622 960 688 922T793 822T849 691T866 557Q848 537 818 520T756 490H230Q231 387 267 298T369
155T526 100Q568 100 607 108T698 146T823 236Q836 229 846 216T860 195Q771 98 708 50T590 -14T465 -30ZM236 580H664Q687 580 694 587T702 616Q702 643 694 683T665 762T602 828T496 855Q393 855 324 779T236 580ZM694 1124Q610 1124 610 1220Q610 1277 644 1316T725
1356Q810 1356 810 1261Q810 1205 777 1165T694 1124ZM294 1124Q210 1124 210 1220Q210 1277 244 1316T325 1356Q410 1356 410 1261Q410 1205 377 1165T294 1124Z" />
<glyph unicode="&#xec;" glyph-name="igrave" horiz-adv-x="555" d="M70 0V43Q210 71 210 104V670Q210 739 205 773T170 820T70 840V880Q133 892 204 913T326 960H360V104Q360 92 393 75T500 43V0H70ZM343 1047L-9 1424L13 1465Q26 1469 54 1474T113 1483T159
1489L399 1078Q377 1057 343 1047Z" />
<glyph unicode="&#xed;" glyph-name="iacute" horiz-adv-x="555" d="M70 0V43Q210 71 210 104V670Q210 739 205 773T170 820T70 840V880Q133 892 204 913T326 960H360V104Q360 92 393 75T500 43V0H70ZM242 1047Q224 1050 210 1058T185 1075L419 1489Q442 1488
492 1481T564 1466L587 1427L242 1047Z" />
<glyph unicode="&#xee;" glyph-name="icircumflex" horiz-adv-x="555" d="M70 0V43Q210 71 210 104V670Q210 739 205 773T170 820T70 840V880Q133 892 204 913T326 960H360V104Q360 92 393 75T500 43V0H70ZM13 1047Q-3 1055 -10 1064T-32 1092L232 1471H339L601
1092Q589 1073 582 1064T558 1047L284 1315L13 1047Z" />
<glyph unicode="&#xef;" glyph-name="idieresis" horiz-adv-x="555" d="M70 0V43Q210 71 210 104V670Q210 739 205 773T170 820T70 840V880Q133 892 204 913T326 960H360V104Q360 92 393 75T500 43V0H70ZM469 1124Q385 1124 385 1220Q385 1277 419 1316T500 1356Q585
1356 585 1261Q585 1205 552 1165T469 1124ZM69 1124Q-15 1124 -15 1220Q-15 1277 19 1316T100 1356Q185 1356 185 1261Q185 1205 152 1165T69 1124Z" />
<glyph unicode="&#xf0;" glyph-name="eth" horiz-adv-x="1020" d="M496 -30Q366 -30 273 32T130 201T80 444Q80 543 115 635T211 801T348 917T506 960Q565 960 632 922T750 829Q722 930 672 1011T550 1165L324 1067Q287 1072 278 1073T233 1085L223 1122L478 1233Q423
1280 359 1309T211 1327L205 1368L406 1440Q519 1365 603 1287L811 1378Q858 1371 868 1368T905 1356L911 1321L673 1218Q812 1069 873 909T935 592Q935 418 889 299T772 108T628 3T496 -30ZM506 80Q580 80 643 129T746 283T785 551Q785 560 785 569T785 586Q760
663 709 722T595 816T475 850Q396 850 343 800T262 665T235 473Q235 368 279 279T386 135T506 80Z" />
<glyph unicode="&#xf1;" glyph-name="ntilde" horiz-adv-x="1130" d="M55 0V43Q121 60 158 74T195 104V711Q195 763 188 788T152 823T55 840V880Q123 891 181 911T295 960L330 925L341 676Q400 765 472 828T616 926T739 960Q825 960 892 907T960 741V104Q960 91
990 77T1100 43V0H670V43Q810 79 810 104V633Q810 755 782 792T682 830Q621 830 532 767T345 549V104Q345 89 383 73T485 43V0H55ZM289 1113L236 1133Q260 1188 296 1239T377 1325T475 1359Q526 1359 569 1331T649 1275T719 1246Q757 1246 793 1278T864 1369L918
1346Q895 1292 859 1240T776 1155T678 1121Q632 1121 591 1149T510 1206T432 1234Q392 1234 359 1202T289 1113Z" />
<glyph unicode="&#xf2;" glyph-name="ograve" horiz-adv-x="1030" d="M496 -30Q370 -30 277 32T132 201T80 444Q80 543 115 635T213 801T358 917T535 960Q661 960 754 898T898 729T950 485Q950 385 914 293T814 128T669 13T496 -30ZM524 80Q666 80 730 182T795
455Q795 561 752 650T642 795T506 850Q405 850 346 800T261 665T235 473Q235 368 281 279T395 135T524 80ZM593 1047L241 1424L263 1465Q276 1469 304 1474T363 1483T409 1489L649 1078Q627 1057 593 1047Z" />
<glyph unicode="&#xf3;" glyph-name="oacute" horiz-adv-x="1030" d="M496 -30Q370 -30 277 32T132 201T80 444Q80 543 115 635T213 801T358 917T535 960Q661 960 754 898T898 729T950 485Q950 385 914 293T814 128T669 13T496 -30ZM524 80Q666 80 730 182T795
455Q795 561 752 650T642 795T506 850Q405 850 346 800T261 665T235 473Q235 368 281 279T395 135T524 80ZM492 1047Q474 1050 460 1058T435 1075L669 1489Q692 1488 742 1481T814 1466L837 1427L492 1047Z" />
<glyph unicode="&#xf4;" glyph-name="ocircumflex" horiz-adv-x="1030" d="M496 -30Q370 -30 277 32T132 201T80 444Q80 543 115 635T213 801T358 917T535 960Q661 960 754 898T898 729T950 485Q950 385 914 293T814 128T669 13T496 -30ZM524 80Q666 80 730 182T795
455Q795 561 752 650T642 795T506 850Q405 850 346 800T261 665T235 473Q235 368 281 279T395 135T524 80ZM263 1047Q247 1055 240 1064T218 1092L482 1471H589L851 1092Q839 1073 832 1064T808 1047L534 1315L263 1047Z" />
<glyph unicode="&#xf5;" glyph-name="otilde" horiz-adv-x="1030" d="M496 -30Q370 -30 277 32T132 201T80 444Q80 543 115 635T213 801T358 917T535 960Q661 960 754 898T898 729T950 485Q950 385 914 293T814 128T669 13T496 -30ZM524 80Q666 80 730 182T795
455Q795 561 752 650T642 795T506 850Q405 850 346 800T261 665T235 473Q235 368 281 279T395 135T524 80ZM247 1113L194 1133Q218 1188 254 1239T335 1325T433 1359Q484 1359 527 1331T607 1275T677 1246Q715 1246 751 1278T822 1369L876 1346Q853 1292 817 1240T734
1155T636 1121Q590 1121 549 1149T468 1206T390 1234Q350 1234 317 1202T247 1113Z" />
<glyph unicode="&#xf6;" glyph-name="odieresis" horiz-adv-x="1030" d="M496 -30Q370 -30 277 32T132 201T80 444Q80 543 115 635T213 801T358 917T535 960Q661 960 754 898T898 729T950 485Q950 385 914 293T814 128T669 13T496 -30ZM524 80Q666 80 730 182T795
455Q795 561 752 650T642 795T506 850Q405 850 346 800T261 665T235 473Q235 368 281 279T395 135T524 80ZM719 1124Q635 1124 635 1220Q635 1277 669 1316T750 1356Q835 1356 835 1261Q835 1205 802 1165T719 1124ZM319 1124Q235 1124 235 1220Q235 1277 269 1316T350
1356Q435 1356 435 1261Q435 1205 402 1165T319 1124Z" />
<glyph unicode="&#xf7;" glyph-name="divide" horiz-adv-x="1022" d="M513 749Q475 749 449 774T423 835Q423 872 449 897T513 923Q548 923 574 898T600 835Q600 800 574 775T513 749ZM147 506Q129 506 124 513T118 532V609Q118 623 123 630T147 638Q147 638 190
637T298 636T428 634T537 633Q579 633 637 634T750 635T840 637T874 638Q883 638 891 633T900 609V532Q900 506 871 506Q871 506 832 507T737 508T627 510T541 511Q504 511 440 510T308 509T194 507T147 506ZM511 212Q473 212 447 237T421 298Q421 334 447 359T511
385Q546 385 572 360T599 298Q599 263 573 238T511 212Z" />
<glyph unicode="&#xf8;" glyph-name="oslash" horiz-adv-x="1030" d="M117 -53L88 -20L188 112Q80 243 80 444Q80 543 115 635T213 801T358 917T535 960Q670 960 772 885L793 913Q820 930 853 953T915 983L946 950L844 815Q950 684 950 485Q950 385 914 293T814
128T669 13T496 -30Q428 -30 369 -11T261 43L242 18Q223 3 183 -21T117 -53ZM294 253L678 761Q639 802 595 826T506 850Q405 850 345 800T259 665T233 473Q233 412 249 356T294 253ZM524 80Q666 80 731 182T797 455Q797 515 781 571T739 676L356 169Q396 128 440
104T524 80Z" />
<glyph unicode="&#xf9;" glyph-name="ugrave" horiz-adv-x="1085" d="M408 -30Q346 -30 292 -5T204 87T170 279V711Q170 775 164 802T130 839T41 854V894Q113 903 169 918T292 960L320 921V334Q320 194 360 142T473 90Q538 90 607 129T765 262V711Q765 771 756
800T717 840T625 854V894Q697 903 763 922T885 960L915 921V254Q915 193 920 154T938 104Q950 97 979 101T1059 127L1069 82Q996 34 936 2T850 -30Q815 -30 793 16T765 166Q682 83 618 41T502 -15T408 -30ZM603 1047L251 1424L273 1465Q286 1469 314 1474T373 1483T419
1489L659 1078Q637 1057 603 1047Z" />
<glyph unicode="&#xfa;" glyph-name="uacute" horiz-adv-x="1085" d="M408 -30Q346 -30 292 -5T204 87T170 279V711Q170 775 164 802T130 839T41 854V894Q113 903 169 918T292 960L320 921V334Q320 194 360 142T473 90Q538 90 607 129T765 262V711Q765 771 756
800T717 840T625 854V894Q697 903 763 922T885 960L915 921V254Q915 193 920 154T938 104Q950 97 979 101T1059 127L1069 82Q996 34 936 2T850 -30Q815 -30 793 16T765 166Q682 83 618 41T502 -15T408 -30ZM502 1047Q484 1050 470 1058T445 1075L679 1489Q702 1488
752 1481T824 1466L847 1427L502 1047Z" />
<glyph unicode="&#xfb;" glyph-name="ucircumflex" horiz-adv-x="1085" d="M408 -30Q346 -30 292 -5T204 87T170 279V711Q170 775 164 802T130 839T41 854V894Q113 903 169 918T292 960L320 921V334Q320 194 360 142T473 90Q538 90 607 129T765 262V711Q765 771
756 800T717 840T625 854V894Q697 903 763 922T885 960L915 921V254Q915 193 920 154T938 104Q950 97 979 101T1059 127L1069 82Q996 34 936 2T850 -30Q815 -30 793 16T765 166Q682 83 618 41T502 -15T408 -30ZM273 1047Q257 1055 250 1064T228 1092L492 1471H599L861
1092Q849 1073 842 1064T818 1047L544 1315L273 1047Z" />
<glyph unicode="&#xfc;" glyph-name="udieresis" horiz-adv-x="1085" d="M408 -30Q346 -30 292 -5T204 87T170 279V711Q170 775 164 802T130 839T41 854V894Q113 903 169 918T292 960L320 921V334Q320 194 360 142T473 90Q538 90 607 129T765 262V711Q765 771
756 800T717 840T625 854V894Q697 903 763 922T885 960L915 921V254Q915 193 920 154T938 104Q950 97 979 101T1059 127L1069 82Q996 34 936 2T850 -30Q815 -30 793 16T765 166Q682 83 618 41T502 -15T408 -30ZM729 1124Q645 1124 645 1220Q645 1277 679 1316T760
1356Q845 1356 845 1261Q845 1205 812 1165T729 1124ZM329 1124Q245 1124 245 1220Q245 1277 279 1316T360 1356Q445 1356 445 1261Q445 1205 412 1165T329 1124Z" />
<glyph unicode="&#xfd;" glyph-name="yacute" horiz-adv-x="1010" d="M127 -500Q51 -500 2 -483T-47 -447Q-47 -439 -27 -412T21 -355T70 -312Q117 -340 165 -342T250 -330Q287 -318 341 -248T430 -92L459 -23L131 819Q122 847 96 861T20 887V930H406V887Q329
877 305 864T293 819L539 182L770 819Q781 850 755 863T655 887V930H989V887Q929 873 910 861T879 819L545 -82Q490 -229 418 -321T270 -457T127 -500ZM487 1047Q469 1050 455 1058T430 1075L664 1489Q687 1488 737 1481T809 1466L832 1427L487 1047Z" />
<glyph unicode="&#xfe;" glyph-name="thorn" horiz-adv-x="1085" d="M55 -480V-437Q121 -421 158 -407T195 -375V1296Q195 1357 184 1382T142 1416T55 1430V1470Q126 1484 187 1501T308 1550L345 1516V733Q448 855 540 907T690 960Q827 960 916 836T1005 492Q1005
405 972 314T879 144T742 18T573 -30Q541 -30 479 -7T345 74V-375Q345 -391 383 -407T515 -437V-480H55ZM631 90Q707 90 760 136T841 255T870 408Q870 540 835 635T744 783T623 835Q587 835 510 787T345 610V213Q422 153 492 122T631 90Z" />
<glyph unicode="&#xff;" glyph-name="ydieresis" horiz-adv-x="1010" d="M127 -500Q51 -500 2 -483T-47 -447Q-47 -439 -27 -412T21 -355T70 -312Q117 -340 165 -342T250 -330Q287 -318 341 -248T430 -92L459 -23L131 819Q122 847 96 861T20 887V930H406V887Q329
877 305 864T293 819L539 182L770 819Q781 850 755 863T655 887V930H989V887Q929 873 910 861T879 819L545 -82Q490 -229 418 -321T270 -457T127 -500ZM714 1124Q630 1124 630 1220Q630 1277 664 1316T745 1356Q830 1356 830 1261Q830 1205 797 1165T714 1124ZM314
1124Q230 1124 230 1220Q230 1277 264 1316T345 1356Q430 1356 430 1261Q430 1205 397 1165T314 1124Z" />
<glyph unicode="&#x2013;" glyph-name="endash" horiz-adv-x="972" d="M161 431Q135 431 135 446Q135 451 136 454T138 460Q159 496 174 514T204 547Q217 558 226 559T246 561H810Q837 561 837 543Q837 533 826 518Q806 487 800 478T773 445Q763 435 753 433T727
431H161Z" />
<glyph unicode="&#x2014;" glyph-name="emdash" horiz-adv-x="1197" d="M161 431Q135 431 135 446Q135 451 136 454T138 460Q159 496 174 514T204 547Q217 558 226 559T246 561H1036Q1062 561 1062 543Q1062 532 1052 518Q1032 487 1026 478T998 445Q988 435 978
433T954 431H161Z" />
<glyph unicode="&#x2018;" glyph-name="quoteleft" horiz-adv-x="556" d="M240 459Q231 459 226 468Q214 489 192 541T169 650Q169 697 180 737T202 803Q208 816 227 852T271 933T322 1022T368 1093T396 1122Q401 1122 407 1119T414 1110Q414 1101 402 1056T374
952T345 837T333 753Q333 710 342 676T359 624Q362 617 362 609Q362 601 357 593Q342 571 312 533T256 466Q250 459 240 459Z" />
<glyph unicode="&#x2019;" glyph-name="quoteright" horiz-adv-x="556" d="M159 459Q142 459 142 472Q142 480 154 525T182 629T210 744T222 828Q222 872 214 905T197 957Q196 962 195 964T193 971Q193 980 199 987Q214 1009 244 1048T299 1115Q307 1122 315 1122Q323
1122 330 1113Q342 1091 364 1039T387 930Q387 883 376 844T353 778Q348 765 329 729T285 648T233 559T187 488T159 459Z" />
<glyph unicode="&#x201a;" glyph-name="quotesinglbase" horiz-adv-x="469" d="M176 -272L131 -238Q174 -193 194 -132T215 -31Q215 14 188 47T104 84L88 129Q100 145 144 166T237 204T309 219Q341 188 359 153T377 61Q377 -17 324 -113T176 -272Z" />
<glyph unicode="&#x201c;" glyph-name="quotedblleft" horiz-adv-x="1007" d="M692 459Q683 459 677 468Q666 489 643 541T620 650Q620 697 632 737T655 803Q660 816 679 852T723 933T774 1022T820 1093T848 1122Q865 1122 865 1110Q865 1101 853 1056T825 952T797
837T785 753Q785 710 794 676T810 624Q814 614 814 609Q814 603 809 593Q793 571 763 533T708 466Q702 459 692 459ZM240 459Q231 459 226 468Q214 489 192 541T169 650Q169 697 180 737T202 803Q208 816 227 852T271 933T322 1022T368 1093T396 1122Q401 1122
407 1119T414 1110Q414 1101 402 1056T374 952T345 837T333 753Q333 710 342 676T359 624Q362 617 362 609Q362 601 357 593Q342 571 312 533T256 466Q250 459 240 459Z" />
<glyph unicode="&#x201d;" glyph-name="quotedblright" horiz-adv-x="1007" d="M611 459Q606 459 600 462T593 472Q593 480 605 525T633 629T662 744T674 828Q674 872 665 905T648 957Q647 962 646 964T645 971Q645 979 650 987Q665 1009 695 1048T751 1115Q758
1122 767 1122Q776 1122 781 1113Q793 1091 815 1039T838 930Q838 883 827 844T805 778Q800 765 781 729T737 648T685 559T639 488T611 459ZM159 459Q142 459 142 472Q142 480 154 525T182 629T210 744T222 828Q222 872 214 905T197 957Q196 962 195 964T193 971Q193
980 199 987Q214 1009 244 1048T299 1115Q307 1122 315 1122Q323 1122 330 1113Q342 1091 364 1039T387 930Q387 883 376 844T353 778Q348 765 329 729T285 648T233 559T187 488T159 459Z" />
<glyph unicode="&#x201e;" glyph-name="quotedblbase" horiz-adv-x="1011" d="M638 -390Q633 -390 627 -388T620 -378Q620 -369 632 -325T660 -221T689 -106T701 -22Q701 22 692 55T676 108Q672 118 672 122Q672 130 677 138Q692 159 723 198T778 265Q785 272
794 272Q803 272 809 263Q820 242 842 190T865 81Q865 34 854 -6T831 -72Q826 -85 807 -121T763 -202T712 -291T666 -362T638 -390ZM186 -390Q169 -390 169 -378Q169 -369 181 -325T209 -221T237 -106T249 -22Q249 22 240 55T224 108Q221 116 221 122Q221 132 226
138Q241 159 271 198T326 265Q334 272 342 272Q351 272 357 263Q369 242 391 190T414 81Q414 34 403 -6T380 -72Q375 -85 356 -121T312 -202T260 -291T214 -362T186 -390Z" />
<glyph unicode="&#x2022;" glyph-name="bullet" horiz-adv-x="654" d="M359 195Q352 195 346 199Q320 213 282 240T211 293T172 326Q171 328 169 331T166 339Q166 342 174 355L274 496Q283 508 296 508Q308 508 317 496Q347 462 392 434T466 390Q473 388 477 379T482
361Q482 353 480 351Q461 323 430 279T382 208Q372 195 359 195Z" />
<glyph unicode="&#x2039;" glyph-name="guilsinglleft" horiz-adv-x="418" d="M242 267Q236 267 224 276Q188 307 148 352T88 431Q72 454 72 472Q72 486 79 498Q96 532 124 574T174 643Q186 660 198 666T219 677Q226 682 253 694T291 711Q298 715 306 715Q321
715 321 703Q321 690 317 683Q301 649 282 612T246 543Q242 536 241 531T240 522Q240 511 249 500L330 417Q337 410 337 398Q337 391 332 380T326 369Q316 353 300 328T260 276Q253 267 242 267Z" />
<glyph unicode="&#x203a;" glyph-name="guilsinglright" horiz-adv-x="418" d="M108 267Q93 267 93 279Q93 292 97 299Q113 333 133 370T169 439Q173 446 173 451T174 460Q174 475 165 482L84 564Q77 572 77 585Q77 591 82 602T88 613Q98 629 114 655T154 706Q163
715 172 715Q178 715 190 706Q226 675 266 631T326 552Q342 527 342 511Q342 496 335 484Q319 450 291 408T240 339Q228 323 217 317T195 305Q188 301 161 288T123 270Q116 267 108 267Z" />
</font>
</defs>
</svg>
