<?xml version="1.0" standalone="no"?>
<!DOCTYPE svg PUBLIC "-//W3C//DTD SVG 1.1//EN" "http://www.w3.org/Graphics/SVG/1.1/DTD/svg11.dtd">
<svg xmlns="http://www.w3.org/2000/svg">
<defs >
<font id="Aboreto" horiz-adv-x="569" ><font-face
    font-family="Aboreto"
    units-per-em="1000"
    panose-1="0 0 0 0 0 0 0 0 0 0"
    ascent="930"
    descent="-230"
    alphabetic="0" />
<glyph unicode=" " glyph-name="space" horiz-adv-x="270" />
<glyph unicode="!" glyph-name="exclam" horiz-adv-x="330" d="M155 173L123 700H207L175 173H155ZM113 42Q113 65 128 79T165 94Q188 94 202 80T217 42Q217 20 203 5T165 -10Q143 -10 128 5T113 42Z" />
<glyph unicode="&quot;" glyph-name="quotedbl" horiz-adv-x="391" d="M151 640L123 472H105L77 640Q75 652 75 663Q75 680 83 695T114 710Q137 710 145 695T153 663Q153 657 153 651T151 640ZM314 640L286 472H268L240 640Q238 652 238 663Q238 680 246 695T277
710Q300 710 308 695T316 663Q316 657 316 651T314 640Z" />
<glyph unicode="#" glyph-name="numbersign" horiz-adv-x="598" d="M111 0L147 203H35V259H157L192 455H80V511H202L235 700H260L227 511H426L459 700H484L451 511H563V455H441L406 259H518V203H396L360 0H335L371 203H172L136 0H111ZM182 259H381L416 455H217L182 259Z" />
<glyph unicode="$" glyph-name="dollar" horiz-adv-x="513" d="M54 22L60 82H66Q102 50 149 31T243 10V337Q196 364 156 392T90 457T64 545Q64 617 114 663T246 713V790H272V714Q311 713 354 705T421 684L416 629H410Q383 658 348 673T272 690V403Q320 376 363
346T433 275T461 175Q461 95 408 43T269 -14V-98H243V-14Q203 -13 151 -3T54 22ZM120 570Q120 533 138 506T185 457T246 417V689Q189 685 155 653T120 570ZM403 148Q403 196 373 236T269 322V11Q330 15 366 52T403 148Z" />
<glyph unicode="%" glyph-name="percent" horiz-adv-x="770" d="M44 527Q44 609 84 659T190 709Q255 709 295 659T336 527Q336 445 296 395T190 345Q125 345 85 395T44 527ZM173 0L565 700H597L205 0H173ZM102 527Q102 450 125 408T190 365Q231 365 254 407T278
527Q278 604 255 646T190 689Q148 689 125 647T102 527ZM434 172Q434 254 474 304T580 354Q645 354 685 304T726 172Q726 90 686 40T580 -10Q515 -10 475 40T434 172ZM492 172Q492 95 515 53T580 10Q621 10 644 52T668 172Q668 249 645 291T580 334Q539 334 516
292T492 172Z" />
<glyph unicode="&amp;" glyph-name="ampersand" horiz-adv-x="697" d="M582 0L488 102Q447 41 400 14T287 -14Q222 -14 173 9T97 75T70 174Q70 243 111 296T231 381L223 390Q177 440 157 480T137 564Q137 632 180 673T293 714Q361 714 402 677T444 577Q444 521
408 473T309 393L505 180L575 366H643L521 163L671 0H582ZM268 437L295 408Q381 465 381 570Q381 627 358 658T293 690Q252 690 225 660T197 579Q197 545 214 512T268 437ZM135 182Q135 105 180 58T299 10Q399 10 472 120L246 366Q135 307 135 182Z" />
<glyph unicode="&apos;" glyph-name="quotesingle" horiz-adv-x="228" d="M151 640L123 472H105L77 640Q75 652 75 663Q75 680 83 695T114 710Q137 710 145 695T153 663Q153 657 153 651T151 640Z" />
<glyph unicode="(" glyph-name="parenleft" horiz-adv-x="341" d="M90 350Q90 431 113 509T179 658T281 782L295 771Q253 718 222 650T175 505T158 350Q158 273 174 196T222 51T295 -71L281 -82Q222 -28 179 42T113 191T90 350Z" />
<glyph unicode=")" glyph-name="parenright" horiz-adv-x="341" d="M251 350Q251 270 228 191T163 42T60 -82L46 -71Q89 -17 119 51T166 196T183 350Q183 428 167 504T120 649T46 771L60 782Q120 728 162 658T228 510T251 350Z" />
<glyph unicode="*" glyph-name="asterisk" horiz-adv-x="456" d="M380 432L235 537L254 360H202L221 537L76 432L50 477L214 550L50 623L76 668L221 563L202 740H254L235 563L380 668L406 623L242 550L406 477L380 432Z" />
<glyph unicode="+" glyph-name="plus" horiz-adv-x="582" d="M59 313V343H275V556H307V343H523V313H307V92H275V313H59Z" />
<glyph unicode="," glyph-name="comma" horiz-adv-x="264" d="M75 42Q75 65 90 79T129 94Q157 94 171 74T186 15Q186 -34 162 -76T93 -149L83 -134Q152 -82 156 12Q144 -7 121 -7Q100 -7 88 7T75 42Z" />
<glyph unicode="-" glyph-name="hyphen" horiz-adv-x="330" d="M40 335V379H290V335H40Z" />
<glyph unicode="." glyph-name="period" horiz-adv-x="264" d="M80 42Q80 65 95 79T132 94Q155 94 169 80T184 42Q184 20 170 5T132 -10Q110 -10 95 5T80 42Z" />
<glyph unicode="/" glyph-name="slash" horiz-adv-x="362" d="M50 0L278 700H312L84 0H50Z" />
<glyph unicode="0" glyph-name="zero" horiz-adv-x="642" d="M80 350Q80 460 110 541T194 668T321 714Q394 714 448 669T532 542T562 350Q562 241 532 159T448 32T321 -14Q249 -14 195 31T110 159T80 350ZM154 350Q154 187 198 99T321 10Q401 10 444 98T488 350Q488
513 444 601T321 690Q242 690 198 602T154 350Z" />
<glyph unicode="1" glyph-name="one" horiz-adv-x="389" d="M191 0V642L46 574L38 590L239 714H259V0H191Z" />
<glyph unicode="2" glyph-name="two" horiz-adv-x="536" d="M46 0V18L297 342Q383 453 383 545Q383 612 347 651T252 690Q211 690 168 671T91 617H85L80 671Q115 691 160 702T252 714Q344 714 400 670T457 551Q457 505 429 450T332 315L110 60H476V0H46Z" />
<glyph unicode="3" glyph-name="three" horiz-adv-x="533" d="M196 372H174V396H192Q267 396 310 433T354 544Q354 611 319 650T224 690Q185 690 143 673T72 627H66L61 680Q93 695 137 704T224 714Q316 714 371 669T426 549Q426 489 388 447T278 388V382Q363 366
410 315T458 187Q458 126 429 81T347 11T224 -14Q181 -14 136 -4T56 22L50 82H56Q93 47 136 29T224 10Q297 10 340 59T384 190Q384 273 333 322T196 372Z" />
<glyph unicode="4" glyph-name="four" horiz-adv-x="568" d="M34 196V216L300 700H376L64 220H346V430H412V220H534V196H412V0H346V196H34Z" />
<glyph unicode="5" glyph-name="five" horiz-adv-x="521" d="M61 82Q100 51 146 31T240 10Q311 10 354 57T398 181Q398 258 352 312T222 382L95 406L124 700H428V640H143L126 467L240 445Q343 426 399 362T456 205Q456 140 429 91T354 14T241 -14Q201 -14 155
-4T61 22L55 82H61Z" />
<glyph unicode="6" glyph-name="six" horiz-adv-x="589" d="M312 -14Q239 -14 186 21T103 123T74 279Q74 368 101 444T177 578T294 671T442 714L444 696Q359 686 292 633T187 491T148 284Q148 157 192 84T312 10Q375 10 414 60T453 192Q453 277 414 327T309 377Q260
377 212 352L203 368Q268 405 334 405Q392 405 435 380T502 308T527 200Q527 136 500 88T425 13T312 -14Z" />
<glyph unicode="7" glyph-name="seven" horiz-adv-x="514" d="M34 640V700H464V680L195 0H121L420 640H34Z" />
<glyph unicode="8" glyph-name="eight" horiz-adv-x="600" d="M525 169Q525 114 497 73T419 9T300 -14Q198 -14 137 33T75 157Q75 225 123 280T253 362Q173 410 138 453T103 551Q103 625 157 669T300 714Q359 714 403 695T472 642T497 562Q497 507 460 461T356
385Q422 345 458 310T510 240T525 169ZM163 573Q163 538 181 511T237 458T335 397Q381 420 407 461T434 558Q434 621 398 655T300 690Q239 690 201 658T163 573ZM140 161Q140 91 183 51T300 10Q373 10 418 47T463 148Q463 183 446 213T388 276T276 349Q211 322
176 274T140 161Z" />
<glyph unicode="9" glyph-name="nine" horiz-adv-x="586" d="M164 -14L162 4Q247 15 309 72T404 219T438 416Q438 543 394 616T276 690Q213 690 175 642T136 513Q136 431 174 382T278 333Q326 333 374 358L383 342Q318 305 253 305Q196 305 153 330T86 400T62
505Q62 568 89 615T164 688T276 714Q349 714 402 679T483 578T512 421Q512 340 488 265T419 130T309 31T164 -14Z" />
<glyph unicode=":" glyph-name="colon" horiz-adv-x="264" d="M80 42Q80 65 95 79T132 94Q155 94 169 80T184 42Q184 20 170 5T132 -10Q110 -10 95 5T80 42ZM80 440Q80 463 95 477T132 492Q155 492 169 478T184 440Q184 418 170 403T132 388Q110 388 95 403T80 440Z" />
<glyph unicode=";" glyph-name="semicolon" horiz-adv-x="264" d="M328 42Q328 65 343 79T382 94Q410 94 424 74T439 15Q439 -34 415 -76T346 -149L336 -134Q405 -82 409 12Q397 -7 374 -7Q353 -7 341 7T328 42ZM76 440Q76 463 91 477T128 492Q151 492 165 478T180
440Q180 418 166 403T128 388Q106 388 91 403T76 440Z" />
<glyph unicode="&lt;" glyph-name="less" horiz-adv-x="582" d="M59 300V332L523 525V492L97 316L523 140V107L59 300Z" />
<glyph unicode="=" glyph-name="equal" horiz-adv-x="582" d="M59 375V405H523V375H59ZM59 205V235H523V205H59Z" />
<glyph unicode="&gt;" glyph-name="greater" horiz-adv-x="582" d="M523 300L59 107V140L485 316L59 492V525L523 332V300Z" />
<glyph unicode="?" glyph-name="question" horiz-adv-x="488" d="M310 375L207 308L200 173H180L174 312L274 401Q344 462 344 552Q344 615 311 652T223 690Q186 690 145 673T71 624H65L60 678Q95 695 138 704T223 714Q311 714 364 671T418 557Q418 506 389 457T310
375ZM138 42Q138 65 153 79T190 94Q213 94 227 80T242 42Q242 20 228 5T190 -10Q168 -10 153 5T138 42Z" />
<glyph unicode="@" glyph-name="at" horiz-adv-x="1001" d="M555 583Q593 583 628 572T689 541L649 318Q645 295 645 275Q645 228 666 203T724 177Q764 177 794 205T841 285T859 404Q859 509 818 587T703 709T532 753Q450 753 380 723T259 637T179 506T150 340Q150
223 200 136T340 1T552 -47Q645 -47 723 -16T875 81L887 68Q811 -8 729 -42T539 -77Q403 -77 302 -27T146 116T90 334Q90 430 123 511T215 651T356 744T534 777Q648 777 732 732T864 607T911 417Q911 338 886 278T818 183T716 148Q618 148 607 247H601Q581 198
544 173T458 148Q389 148 347 194T305 319Q305 372 324 419T379 504T459 562T555 583ZM362 333Q362 265 394 223T477 180Q522 180 553 216T597 318L637 540Q619 550 599 554T558 559Q505 559 460 528T389 446T362 333Z" />
<glyph unicode="A" glyph-name="A" horiz-adv-x="658" d="M26 0L295 700H357L626 0H553L429 328H202L99 0H26ZM302 648L209 352H420L308 648H302Z" />
<glyph unicode="B" glyph-name="B" horiz-adv-x="617" d="M130 0V700H269Q377 700 437 655T497 530Q497 471 462 430T364 373V367Q450 356 498 308T547 185Q547 98 480 49T292 0H130ZM270 676H198V376H269Q427 376 427 526Q427 676 270 676ZM292 352H198V24H292Q475
24 475 188Q475 352 292 352Z" />
<glyph unicode="C" glyph-name="C" horiz-adv-x="758" d="M688 86L682 25Q654 13 614 4T533 -9T460 -14Q379 -14 310 13T190 90T109 205T80 350Q80 428 109 494T189 610T310 686T460 714Q493 714 534 709T614 696T680 676L675 620H669Q632 654 576 672T460 690Q370
690 302 648T195 529T156 350Q156 247 194 171T301 53T460 10Q528 10 586 32T682 86H688Z" />
<glyph unicode="D" glyph-name="D" horiz-adv-x="814" d="M130 0V700H350Q466 700 552 656T686 534T734 350Q734 245 686 167T552 44T350 0H130ZM350 676H198V24H350Q495 24 576 110T658 350Q658 504 577 590T350 676Z" />
<glyph unicode="E" glyph-name="E" horiz-adv-x="518" d="M130 0V700H435V651L260 674Q214 680 198 680V375Q211 375 260 378L424 388V342L260 352Q211 355 198 355V20Q216 20 261 26L438 49V0H130Z" />
<glyph unicode="F" glyph-name="F" horiz-adv-x="489" d="M130 0V700H424V651L258 674Q213 680 198 680V367Q214 367 260 370L413 380V334L260 344Q214 347 198 347V0H130Z" />
<glyph unicode="G" glyph-name="G" horiz-adv-x="832" d="M479 332V356H732V84Q686 38 620 12T471 -14Q387 -14 316 13T192 90T110 206T80 350Q80 428 109 494T192 609T316 686T471 714Q507 714 549 709T631 696T697 675L692 619H686Q646 654 590 672T471 690Q377
690 306 648T196 529T156 350Q156 248 195 172T306 53T471 10Q529 10 578 26T664 72V332H479Z" />
<glyph unicode="H" glyph-name="H" horiz-adv-x="816" d="M130 0V700H198V376H618V700H686V0H618V352H198V0H130Z" />
<glyph unicode="I" glyph-name="I" horiz-adv-x="328" d="M130 0V700H198V0H130Z" />
<glyph unicode="J" glyph-name="J" horiz-adv-x="328" d="M130 62V700H198V68Q198 -58 163 -128T56 -230L53 -225Q93 -197 111 -131T130 62Z" />
<glyph unicode="K" glyph-name="K" horiz-adv-x="672" d="M562 0L234 359L538 700H624L295 387L652 0H562ZM130 0V700H198V0H130Z" />
<glyph unicode="L" glyph-name="L" horiz-adv-x="461" d="M130 700H198V20Q217 20 258 26L424 51V0H130V700Z" />
<glyph unicode="M" glyph-name="M" horiz-adv-x="919" d="M789 700V0H721V642H715L473 178H442L167 587H161L183 0H115L140 714H160L475 246H481L717 700H789Z" />
<glyph unicode="N" glyph-name="N" horiz-adv-x="822" d="M115 0L140 714H152L655 106H661L639 700H707L682 -14H670L167 594H161L183 0H115Z" />
<glyph unicode="O" glyph-name="O" horiz-adv-x="888" d="M80 350Q80 427 107 493T184 609T300 686T444 714Q521 714 587 687T703 610T780 494T808 350Q808 273 781 207T704 91T588 14T444 -14Q367 -14 301 13T185 90T108 206T80 350ZM156 350Q156 248 192 172T293
53T444 10Q530 10 595 52T696 172T732 350Q732 451 696 527T595 647T444 690Q358 690 294 648T193 529T156 350Z" />
<glyph unicode="P" glyph-name="P" horiz-adv-x="570" d="M130 0V700H255Q376 700 443 649T510 505Q510 413 443 362T255 310H198V0H130ZM255 676H198V334H255Q438 334 438 505Q438 676 255 676Z" />
<glyph unicode="Q" glyph-name="Q" horiz-adv-x="888" d="M80 350Q80 427 107 493T184 609T300 686T444 714Q521 714 587 687T703 610T780 494T808 350Q808 274 782 209T707 95T595 17V11Q643 11 676 0T735 -35T787 -97Q818 -143 841 -168T904 -205V-211H857Q818
-211 794 -199T755 -167T724 -125Q707 -98 686 -73T636 -31T560 -14H444Q367 -14 301 13T185 90T108 206T80 350ZM156 350Q156 248 192 172T293 53T444 10Q530 10 595 52T696 172T732 350Q732 451 696 527T595 647T444 690Q358 690 294 648T193 529T156 350Z" />
<glyph unicode="R" glyph-name="R" horiz-adv-x="642" d="M130 700H264Q370 700 428 656T487 531Q487 469 451 428T345 373V367Q411 354 453 305T516 184Q535 118 553 82T594 29T648 6V0H607Q563 0 535 16T486 70T448 175Q419 278 371 321T254 364H248V382H254Q415
382 415 530Q415 676 264 676H198V0H130V700Z" />
<glyph unicode="S" glyph-name="S" horiz-adv-x="543" d="M69 22L75 82H81Q120 48 169 29T266 10Q334 10 376 47T418 148Q418 183 403 213T352 274T254 341Q211 366 172 393T108 457T83 545Q83 621 138 667T283 714Q323 714 369 706T440 684L435 628H429Q372 690
283 690Q219 690 180 658T141 570Q141 529 162 500T218 447T291 401Q336 375 378 346T448 277T476 175Q476 119 450 77T377 10T266 -14Q226 -14 172 -4T69 22Z" />
<glyph unicode="T" glyph-name="T" horiz-adv-x="648" d="M290 0V680Q275 680 228 674L32 649V700H616V649L420 674Q373 680 358 680V0H290Z" />
<glyph unicode="U" glyph-name="U" horiz-adv-x="798" d="M120 700H188V278Q188 157 247 90T415 22Q483 22 533 48T611 122T637 230L620 700H688L671 230Q667 110 600 48T407 -14Q272 -14 196 64T120 280V700Z" />
<glyph unicode="V" glyph-name="V" horiz-adv-x="716" d="M32 700H107L380 78H386L615 700H690L372 -14H350L32 700Z" />
<glyph unicode="W" glyph-name="W" horiz-adv-x="1053" d="M32 700H105L350 88H356L516 484L429 700H502L746 90H752L954 700H1027L739 -14H717L530 451L342 -14H320L32 700Z" />
<glyph unicode="X" glyph-name="X" horiz-adv-x="632" d="M32 0L290 349L52 700H132L329 409H335L506 700H586L346 383L606 0H526L307 323H301L112 0H32Z" />
<glyph unicode="Y" glyph-name="Y" horiz-adv-x="617" d="M280 0V296L32 700H108L331 334H337L515 700H591L352 310V0H280Z" />
<glyph unicode="Z" glyph-name="Z" horiz-adv-x="631" d="M575 0H45V20L491 680Q475 680 418 676L71 651V700H571V680L125 20Q142 20 198 24L575 51V0Z" />
<glyph unicode="[" glyph-name="bracketleft" horiz-adv-x="372" d="M130 -68V768H317V750H192V-50H317V-68H130Z" />
<glyph unicode="\" glyph-name="backslash" horiz-adv-x="362" d="M312 0H278L50 700H84L312 0Z" />
<glyph unicode="]" glyph-name="bracketright" horiz-adv-x="372" d="M242 -68H55V-50H180V750H55V768H242V-68Z" />
<glyph unicode="^" glyph-name="asciicircum" horiz-adv-x="582" d="M269 700H310L511 313H477L290 678L105 313H71L269 700Z" />
<glyph unicode="_" glyph-name="underscore" horiz-adv-x="500" d="M0 -120V-90H500V-120H0Z" />
<glyph unicode="`" glyph-name="grave" horiz-adv-x="285" d="M205 775L192 763L18 891V897H108L205 775Z" />
<glyph unicode="a" glyph-name="A" horiz-adv-x="658" d="M26 0L295 700H357L626 0H553L429 328H202L99 0H26ZM302 648L209 352H420L308 648H302Z" />
<glyph unicode="b" glyph-name="B" horiz-adv-x="617" d="M130 0V700H269Q377 700 437 655T497 530Q497 471 462 430T364 373V367Q450 356 498 308T547 185Q547 98 480 49T292 0H130ZM270 676H198V376H269Q427 376 427 526Q427 676 270 676ZM292 352H198V24H292Q475
24 475 188Q475 352 292 352Z" />
<glyph unicode="c" glyph-name="C" horiz-adv-x="758" d="M688 86L682 25Q654 13 614 4T533 -9T460 -14Q379 -14 310 13T190 90T109 205T80 350Q80 428 109 494T189 610T310 686T460 714Q493 714 534 709T614 696T680 676L675 620H669Q632 654 576 672T460 690Q370
690 302 648T195 529T156 350Q156 247 194 171T301 53T460 10Q528 10 586 32T682 86H688Z" />
<glyph unicode="d" glyph-name="D" horiz-adv-x="814" d="M130 0V700H350Q466 700 552 656T686 534T734 350Q734 245 686 167T552 44T350 0H130ZM350 676H198V24H350Q495 24 576 110T658 350Q658 504 577 590T350 676Z" />
<glyph unicode="e" glyph-name="E" horiz-adv-x="518" d="M130 0V700H435V651L260 674Q214 680 198 680V375Q211 375 260 378L424 388V342L260 352Q211 355 198 355V20Q216 20 261 26L438 49V0H130Z" />
<glyph unicode="f" glyph-name="F" horiz-adv-x="489" d="M130 0V700H424V651L258 674Q213 680 198 680V367Q214 367 260 370L413 380V334L260 344Q214 347 198 347V0H130Z" />
<glyph unicode="g" glyph-name="G" horiz-adv-x="832" d="M479 332V356H732V84Q686 38 620 12T471 -14Q387 -14 316 13T192 90T110 206T80 350Q80 428 109 494T192 609T316 686T471 714Q507 714 549 709T631 696T697 675L692 619H686Q646 654 590 672T471 690Q377
690 306 648T196 529T156 350Q156 248 195 172T306 53T471 10Q529 10 578 26T664 72V332H479Z" />
<glyph unicode="h" glyph-name="H" horiz-adv-x="816" d="M130 0V700H198V376H618V700H686V0H618V352H198V0H130Z" />
<glyph unicode="i" glyph-name="i" horiz-adv-x="328" d="M130 0V700H198V0H130Z" />
<glyph unicode="j" glyph-name="J" horiz-adv-x="328" d="M130 62V700H198V68Q198 -58 163 -128T56 -230L53 -225Q93 -197 111 -131T130 62Z" />
<glyph unicode="k" glyph-name="K" horiz-adv-x="672" d="M562 0L234 359L538 700H624L295 387L652 0H562ZM130 0V700H198V0H130Z" />
<glyph unicode="l" glyph-name="L" horiz-adv-x="461" d="M130 700H198V20Q217 20 258 26L424 51V0H130V700Z" />
<glyph unicode="m" glyph-name="M" horiz-adv-x="919" d="M789 700V0H721V642H715L473 178H442L167 587H161L183 0H115L140 714H160L475 246H481L717 700H789Z" />
<glyph unicode="n" glyph-name="N" horiz-adv-x="822" d="M115 0L140 714H152L655 106H661L639 700H707L682 -14H670L167 594H161L183 0H115Z" />
<glyph unicode="o" glyph-name="O" horiz-adv-x="888" d="M80 350Q80 427 107 493T184 609T300 686T444 714Q521 714 587 687T703 610T780 494T808 350Q808 273 781 207T704 91T588 14T444 -14Q367 -14 301 13T185 90T108 206T80 350ZM156 350Q156 248 192 172T293
53T444 10Q530 10 595 52T696 172T732 350Q732 451 696 527T595 647T444 690Q358 690 294 648T193 529T156 350Z" />
<glyph unicode="p" glyph-name="P" horiz-adv-x="570" d="M130 0V700H255Q376 700 443 649T510 505Q510 413 443 362T255 310H198V0H130ZM255 676H198V334H255Q438 334 438 505Q438 676 255 676Z" />
<glyph unicode="q" glyph-name="Q" horiz-adv-x="888" d="M80 350Q80 427 107 493T184 609T300 686T444 714Q521 714 587 687T703 610T780 494T808 350Q808 274 782 209T707 95T595 17V11Q643 11 676 0T735 -35T787 -97Q818 -143 841 -168T904 -205V-211H857Q818
-211 794 -199T755 -167T724 -125Q707 -98 686 -73T636 -31T560 -14H444Q367 -14 301 13T185 90T108 206T80 350ZM156 350Q156 248 192 172T293 53T444 10Q530 10 595 52T696 172T732 350Q732 451 696 527T595 647T444 690Q358 690 294 648T193 529T156 350Z" />
<glyph unicode="r" glyph-name="R" horiz-adv-x="642" d="M130 700H264Q370 700 428 656T487 531Q487 469 451 428T345 373V367Q411 354 453 305T516 184Q535 118 553 82T594 29T648 6V0H607Q563 0 535 16T486 70T448 175Q419 278 371 321T254 364H248V382H254Q415
382 415 530Q415 676 264 676H198V0H130V700Z" />
<glyph unicode="s" glyph-name="S" horiz-adv-x="543" d="M69 22L75 82H81Q120 48 169 29T266 10Q334 10 376 47T418 148Q418 183 403 213T352 274T254 341Q211 366 172 393T108 457T83 545Q83 621 138 667T283 714Q323 714 369 706T440 684L435 628H429Q372 690
283 690Q219 690 180 658T141 570Q141 529 162 500T218 447T291 401Q336 375 378 346T448 277T476 175Q476 119 450 77T377 10T266 -14Q226 -14 172 -4T69 22Z" />
<glyph unicode="t" glyph-name="T" horiz-adv-x="648" d="M290 0V680Q275 680 228 674L32 649V700H616V649L420 674Q373 680 358 680V0H290Z" />
<glyph unicode="u" glyph-name="U" horiz-adv-x="798" d="M120 700H188V278Q188 157 247 90T415 22Q483 22 533 48T611 122T637 230L620 700H688L671 230Q667 110 600 48T407 -14Q272 -14 196 64T120 280V700Z" />
<glyph unicode="v" glyph-name="V" horiz-adv-x="716" d="M32 700H107L380 78H386L615 700H690L372 -14H350L32 700Z" />
<glyph unicode="w" glyph-name="W" horiz-adv-x="1053" d="M32 700H105L350 88H356L516 484L429 700H502L746 90H752L954 700H1027L739 -14H717L530 451L342 -14H320L32 700Z" />
<glyph unicode="x" glyph-name="X" horiz-adv-x="632" d="M32 0L290 349L52 700H132L329 409H335L506 700H586L346 383L606 0H526L307 323H301L112 0H32Z" />
<glyph unicode="y" glyph-name="Y" horiz-adv-x="617" d="M280 0V296L32 700H108L331 334H337L515 700H591L352 310V0H280Z" />
<glyph unicode="z" glyph-name="Z" horiz-adv-x="631" d="M575 0H45V20L491 680Q475 680 418 676L71 651V700H571V680L125 20Q142 20 198 24L575 51V0Z" />
<glyph unicode="{" glyph-name="braceleft" horiz-adv-x="316" d="M130 468Q130 482 129 497T122 540Q118 566 116 580T114 605Q114 646 134 678T186 736T253 781L264 767Q226 742 200 712T174 630Q174 617 176 603T182 562Q185 546 187 528T190 492Q190 437 166
406T111 362V356Q142 343 166 310T190 220Q190 207 189 191T182 146Q178 118 176 104T174 76Q174 37 185 12T217 -32T264 -69L253 -83Q217 -62 186 -37T134 21T114 101Q114 114 116 128T122 172Q125 189 127 208T130 246Q130 307 107 328T52 350H42V368H52Q84 368
107 388T130 468Z" />
<glyph unicode="|" glyph-name="bar" horiz-adv-x="292" d="M130 -68V768H162V-68H130Z" />
<glyph unicode="}" glyph-name="braceright" horiz-adv-x="316" d="M186 468Q186 409 209 389T264 368H274V350H264Q232 350 209 329T186 246Q186 227 188 208T194 172Q199 143 200 129T202 101Q202 55 183 22T131 -37T63 -83L52 -69Q78 -51 98 -33T130 11T142
76Q142 89 141 103T134 146Q130 175 128 191T126 220Q126 277 150 310T205 356V362Q174 375 150 406T126 492Q126 509 128 527T134 562Q139 589 140 603T142 630Q142 682 116 712T52 767L63 781Q99 762 130 737T182 679T202 605Q202 594 201 580T194 540Q190 512
188 497T186 468Z" />
<glyph unicode="~" glyph-name="asciitilde" horiz-adv-x="582" d="M49 304Q87 349 120 365T184 381Q207 381 231 373T294 342Q333 320 357 311T404 302Q435 302 458 317T513 366L533 349Q495 304 462 288T398 272Q375 272 351 280T288 311Q249 334 225 342T178
351Q147 351 124 336T69 287L49 304Z" />
<glyph unicode="&#xa0;" glyph-name="uni00A0" horiz-adv-x="270" />
<glyph unicode="&#xa1;" glyph-name="exclamdown" horiz-adv-x="330" d="M217 658Q217 636 203 621T165 606Q143 606 128 621T113 658Q113 681 128 695T165 710Q188 710 202 696T217 658ZM175 527L207 0H123L155 527H175Z" />
<glyph unicode="&#xa2;" glyph-name="cent" horiz-adv-x="559" d="M312 -98V-13Q242 -7 188 27T102 117T70 242Q70 311 101 366T187 456T312 497V582H338V498Q376 498 415 490T494 465L490 416H485Q456 443 419 458T338 474V10Q383 10 422 25T494 69H499L494 16Q467
3 422 -5T338 -14V-98H312ZM140 242Q140 144 186 82T312 11V473Q234 464 187 402T140 242Z" />
<glyph unicode="&#xa3;" glyph-name="sterling" horiz-adv-x="545" d="M57 0V18Q125 109 156 172T188 288Q188 308 183 327H63V351H175Q167 372 152 402Q130 445 121 476T112 538Q112 618 165 666T305 714Q330 714 359 710T415 700T459 684L454 629H448Q417 661
381 675T305 690Q244 690 206 657T168 569Q168 544 178 516T214 438Q239 388 246 351H403V327H249Q250 318 250 309Q250 272 238 237T198 161T118 60H487V0H57Z" />
<glyph unicode="&#xa4;" glyph-name="currency" horiz-adv-x="582" d="M95 324Q95 363 106 395T139 454L77 516L99 538L161 476Q187 497 219 508T291 520Q330 520 362 509T421 476L483 538L505 516L443 454Q464 428 475 396T487 324Q487 285 476 253T443 194L505
132L483 110L421 172Q395 151 363 140T291 128Q252 128 220 139T161 172L99 110L77 132L139 194Q118 220 107 252T95 324ZM291 156Q339 156 375 177T432 237T453 324Q453 374 433 411T376 470T291 492Q243 492 207 471T150 412T129 324Q129 275 149 237T206 178T291
156Z" />
<glyph unicode="&#xa5;" glyph-name="yen" horiz-adv-x="617" d="M102 156V180H280V262H102V286H280V296L32 700H108L331 334H337L515 700H591L352 310V286H506V262H352V180H506V156H352V0H280V156H102Z" />
<glyph unicode="&#xa6;" glyph-name="brokenbar" horiz-adv-x="290" d="M130 436V768H160V436H130ZM160 264V-68H130V264H160Z" />
<glyph unicode="&#xa7;" glyph-name="section" horiz-adv-x="504" d="M98 -57L103 -3H109Q141 -32 177 -47T247 -62Q294 -62 323 -35T352 38Q352 79 324 107T221 166Q186 181 152 198T96 245T74 320Q74 368 100 402T176 456Q144 474 122 501T100 574Q100 637 143
675T259 714Q290 714 324 707T387 689L383 639H377Q322 692 259 692Q211 692 182 664T152 589Q152 549 180 523T281 468Q364 436 397 404T430 323Q430 275 402 238T323 182Q367 156 385 127T404 59Q404 -5 361 -44T247 -84Q218 -84 177 -77T98 -57ZM255 215Q281
204 301 194Q336 210 357 238T378 302Q378 338 350 367T247 425Q235 430 223 434T198 445Q126 408 126 338Q126 301 154 273T255 215Z" />
<glyph unicode="&#xa8;" glyph-name="dieresis" horiz-adv-x="436" d="M276 845Q276 865 289 877T321 890Q341 890 353 878T366 845Q366 826 354 813T321 800Q302 800 289 813T276 845ZM70 845Q70 865 83 877T115 890Q135 890 147 878T160 845Q160 826 148 813T115
800Q96 800 83 813T70 845Z" />
<glyph unicode="&#xa9;" glyph-name="copyright" horiz-adv-x="888" d="M80 350Q80 429 107 495T183 611T298 687T444 714Q523 714 589 687T705 611T781 496T808 350Q808 271 781 205T705 89T590 13T444 -14Q365 -14 299 13T183 89T107 204T80 350ZM108 350Q108
276 133 214T203 107T310 36T444 10Q517 10 578 35T684 106T755 214T780 350Q780 424 755 486T685 593T578 664T444 690Q347 690 271 646T152 525T108 350ZM594 209L590 166Q568 156 531 149T461 141Q399 141 349 169T270 244T241 352Q241 412 270 459T349 535T461
563Q491 563 524 557T589 537L586 497H582Q557 520 528 532T461 545Q384 545 342 494T299 352Q299 261 342 210T461 159Q502 159 533 173T590 209H594Z" />
<glyph unicode="&#xaa;" glyph-name="ordfeminine" horiz-adv-x="400" d="M34 348L176 700H224L366 348H312L253 498H132L88 348H34ZM182 669L137 515H246L185 669H182Z" />
<glyph unicode="&#xab;" glyph-name="guillemotleft" horiz-adv-x="480" d="M407 154L222 342V358L407 546L420 534L294 350L420 166L407 154ZM245 154L60 342V358L245 546L258 534L132 350L258 166L245 154Z" />
<glyph unicode="&#xac;" glyph-name="logicalnot" horiz-adv-x="582" d="M59 313V343H523V112H491V313H59Z" />
<glyph unicode="&#xad;" glyph-name="uni00AD" horiz-adv-x="0" />
<glyph unicode="&#xae;" glyph-name="registered" horiz-adv-x="472" d="M50 524Q50 579 73 621T139 686T236 710Q291 710 333 687T398 621T422 524Q422 469 399 427T333 362T236 338Q181 338 139 361T74 427T50 524ZM76 524Q76 451 121 405T236 358Q307 358 351
404T396 524Q396 598 352 644T236 690Q166 690 121 644T76 524ZM171 628H222Q258 628 278 615T299 575Q299 538 256 531V529Q272 525 281 514T300 474Q308 450 315 440T334 426V424H325Q295 424 283 441T265 477Q256 506 248 516T220 527H218V535H220Q244 535 255
544T266 575Q266 598 256 608T222 618H203V424H171V628Z" />
<glyph unicode="&#xaf;" glyph-name="overscore" horiz-adv-x="368" d="M50 819V859H318V819H50Z" />
<glyph unicode="&#xb0;" glyph-name="degree" horiz-adv-x="352" d="M45 579Q45 636 82 673T176 710Q233 710 270 673T307 579Q307 522 270 485T176 448Q119 448 82 485T45 579ZM77 579Q77 534 105 505T176 476Q219 476 247 505T275 579Q275 624 247 653T176 682Q133
682 105 653T77 579Z" />
<glyph unicode="&#xb1;" glyph-name="plusminus" horiz-adv-x="582" d="M60 313V343H276V556H308V343H524V313H308V92H276V313H60ZM59 0V30H523V0H59Z" />
<glyph unicode="&#xb2;" glyph-name="uni00B2" horiz-adv-x="368" d="M42 362V378L193 568Q222 604 234 629T246 682Q246 723 226 746T170 770Q121 770 71 726H67L64 765Q117 790 170 790Q231 790 267 762T304 687Q304 659 287 631T221 550L91 408H311V362H42Z" />
<glyph unicode="&#xb3;" glyph-name="uni00B3" horiz-adv-x="363" d="M136 578H113V598H134Q180 598 204 620T229 686Q229 724 209 747T156 770Q133 770 106 760T62 731H58L55 770Q75 779 103 784T156 790Q214 790 249 762T285 688Q285 652 261 627T189 591V587Q244
578 274 548T305 471Q305 417 264 385T156 352Q99 352 52 373L48 416H52Q75 394 102 383T156 372Q197 372 222 399T247 473Q247 523 218 550T136 578Z" />
<glyph unicode="&#xb4;" glyph-name="acute" horiz-adv-x="247" d="M30 775L127 897H217V891L43 763L30 775Z" />
<glyph unicode="&#xb5;" glyph-name="uni03BC" horiz-adv-x="629" d="M105 -220V492H167V180Q167 107 201 67T298 26Q341 26 377 47T446 115V492H508V87Q508 22 544 22Q574 22 590 63L607 56Q593 18 575 2T528 -14Q451 -14 446 80Q403 29 362 8T271 -14Q170 -14
129 62V26L181 -220H105Z" />
<glyph unicode="&#xb6;" glyph-name="paragraph" horiz-adv-x="629" d="M289 -94V327H277Q186 327 131 378T75 514Q75 570 100 612T171 677T277 700H577V676H483V-94H433V676H339V-94H289Z" />
<glyph unicode="&#xb7;" glyph-name="middot" horiz-adv-x="264" d="M80 362Q80 385 95 399T132 414Q155 414 169 400T184 362Q184 340 170 325T132 310Q110 310 95 325T80 362Z" />
<glyph unicode="&#xb8;" glyph-name="cedilla" horiz-adv-x="285" d="M95 -76L127 4H149L127 -52Q221 -70 221 -136Q221 -174 195 -197T125 -220Q110 -220 95 -217T51 -204L56 -187Q83 -196 105 -196Q131 -196 146 -182T161 -142Q161 -88 95 -76Z" />
<glyph unicode="&#xb9;" glyph-name="uni00B9" horiz-adv-x="293" d="M139 362V739L43 697L37 710L175 790H191V362H139Z" />
<glyph unicode="&#xba;" glyph-name="ordmasculine" horiz-adv-x="472" d="M50 524Q50 577 74 619T141 685T236 710Q289 710 331 686T397 619T422 524Q422 471 398 429T331 363T236 338Q183 338 141 362T75 429T50 524ZM106 524Q106 448 142 402T236 355Q294 355
330 401T366 524Q366 601 330 647T236 693Q177 693 142 647T106 524Z" />
<glyph unicode="&#xbb;" glyph-name="guillemotright" horiz-adv-x="480" d="M73 154L60 166L186 350L60 534L73 546L258 358V342L73 154ZM235 154L222 166L348 350L222 534L235 546L420 358V342L235 154Z" />
<glyph unicode="&#xbc;" glyph-name="onequarter" horiz-adv-x="813" d="M139 538V915L43 873L37 886L175 966H191V538H139ZM153 0L545 700H577L185 0H153ZM648 0V115H457V131L581 418H643L481 135H648V280H698V135H773V115H698V0H648Z" />
<glyph unicode="&#xbd;" glyph-name="onehalf" horiz-adv-x="815" d="M139 538V915L43 873L37 886L175 966H191V538H139ZM153 0L545 700H577L185 0H153ZM489 0V16L640 206Q669 242 681 267T693 320Q693 361 673 384T617 408Q568 408 518 364H514L511 403Q564 428
617 428Q678 428 714 400T751 325Q751 297 734 269T668 188L538 46H758V0H489Z" />
<glyph unicode="&#xbe;" glyph-name="threequarters" horiz-adv-x="883" d="M136 754H113V774H134Q180 774 204 796T229 862Q229 900 209 923T156 946Q133 946 106 936T62 907H58L55 946Q75 955 103 960T156 966Q214 966 249 938T285 864Q285 828 261 803T189
767V763Q244 754 274 724T305 647Q305 593 264 561T156 528Q99 528 52 549L48 592H52Q75 570 102 559T156 548Q197 548 222 575T247 649Q247 699 218 726T136 754ZM223 0L615 700H647L255 0H223ZM718 0V115H527V131L651 418H713L551 135H718V280H768V135H843V115H768V0H718Z"
/>
<glyph unicode="&#xbf;" glyph-name="questiondown" horiz-adv-x="488" d="M350 658Q350 636 336 621T298 606Q276 606 261 621T246 658Q246 681 261 695T298 710Q321 710 335 696T350 658ZM178 325L281 392L288 527H308L314 388L214 299Q144 238 144 148Q144
85 177 48T265 10Q303 10 344 27T417 76H423L428 22Q394 6 350 -4T265 -14Q177 -14 124 29T70 143Q70 194 99 243T178 325Z" />
<glyph unicode="&#xc0;" glyph-name="Agrave" horiz-adv-x="658" d="M26 0L295 700H357L626 0H553L429 328H202L99 0H26ZM302 648L209 352H420L308 648H302ZM386 775L373 763L199 891V897H289L386 775Z" />
<glyph unicode="&#xc1;" glyph-name="Aacute" horiz-adv-x="658" d="M26 0L295 700H357L626 0H553L429 328H202L99 0H26ZM302 648L209 352H420L308 648H302ZM268 775L365 897H455V891L281 763L268 775Z" />
<glyph unicode="&#xc2;" glyph-name="Acircumflex" horiz-adv-x="658" d="M26 0L295 700H357L626 0H553L429 328H202L99 0H26ZM302 648L209 352H420L308 648H302ZM342 905L463 775L450 763L329 843L208 763L195 775L316 905H342Z" />
<glyph unicode="&#xc3;" glyph-name="Atilde" horiz-adv-x="658" d="M26 0L295 700H357L626 0H553L429 328H202L99 0H26ZM302 648L209 352H420L308 648H302ZM338 873Q353 863 369 855T404 846Q420 846 436 856T473 894L488 884Q462 832 440 812T390 792Q369 792
352 800T318 819Q303 829 287 837T252 846Q236 846 220 837T183 798L168 808Q194 860 216 880T266 900Q287 900 304 892T338 873Z" />
<glyph unicode="&#xc4;" glyph-name="Adieresis" horiz-adv-x="658" d="M26 0L295 700H357L626 0H553L429 328H202L99 0H26ZM302 648L209 352H420L308 648H302ZM387 845Q387 865 400 877T432 890Q452 890 464 878T477 845Q477 826 465 813T432 800Q413 800 400
813T387 845ZM181 845Q181 865 194 877T226 890Q246 890 258 878T271 845Q271 826 259 813T226 800Q207 800 194 813T181 845Z" />
<glyph unicode="&#xc5;" glyph-name="Aring" horiz-adv-x="658" d="M26 0L295 700H357L626 0H553L429 328H202L99 0H26ZM302 648L209 352H420L308 648H302ZM235 836Q235 874 261 899T329 924Q370 924 396 899T423 836Q423 798 397 773T329 748Q288 748 262 773T235
836ZM329 906Q308 906 295 887T281 836Q281 805 294 786T329 766Q349 766 363 785T377 836Q377 867 363 886T329 906Z" />
<glyph unicode="&#xc6;" glyph-name="AE" horiz-adv-x="815" d="M10 0L424 700H732V651L557 674Q511 680 495 680V375Q508 375 557 378L721 388V342L557 352Q508 355 495 355V20Q513 20 558 26L735 49V0H427V298H241L86 0H10ZM421 646L253 322H427V646H421Z" />
<glyph unicode="&#xc7;" glyph-name="Ccedilla" horiz-adv-x="758" d="M688 86L682 25Q654 13 614 4T533 -9T460 -14Q379 -14 310 13T190 90T109 205T80 350Q80 428 109 494T189 610T310 686T460 714Q493 714 534 709T614 696T680 676L675 620H669Q632 654 576
672T460 690Q370 690 302 648T195 529T156 350Q156 247 194 171T301 53T460 10Q528 10 586 32T682 86H688ZM415 -76L447 4H469L447 -52Q541 -70 541 -136Q541 -174 515 -197T445 -220Q430 -220 415 -217T371 -204L376 -187Q403 -196 425 -196Q451 -196 466 -182T481
-142Q481 -88 415 -76Z" />
<glyph unicode="&#xc8;" glyph-name="Egrave" horiz-adv-x="518" d="M130 0V700H435V651L260 674Q214 680 198 680V375Q211 375 260 378L424 388V342L260 352Q211 355 198 355V20Q216 20 261 26L438 49V0H130ZM336 775L323 763L149 891V897H239L336 775Z" />
<glyph unicode="&#xc9;" glyph-name="Eacute" horiz-adv-x="518" d="M130 0V700H435V651L260 674Q214 680 198 680V375Q211 375 260 378L424 388V342L260 352Q211 355 198 355V20Q216 20 261 26L438 49V0H130ZM218 775L315 897H405V891L231 763L218 775Z" />
<glyph unicode="&#xca;" glyph-name="Ecircumflex" horiz-adv-x="518" d="M130 0V700H435V651L260 674Q214 680 198 680V375Q211 375 260 378L424 388V342L260 352Q211 355 198 355V20Q216 20 261 26L438 49V0H130ZM292 905L413 775L400 763L279 843L158 763L145
775L266 905H292Z" />
<glyph unicode="&#xcb;" glyph-name="Edieresis" horiz-adv-x="518" d="M130 0V700H435V651L260 674Q214 680 198 680V375Q211 375 260 378L424 388V342L260 352Q211 355 198 355V20Q216 20 261 26L438 49V0H130ZM337 845Q337 865 350 877T382 890Q402 890 414
878T427 845Q427 826 415 813T382 800Q363 800 350 813T337 845ZM131 845Q131 865 144 877T176 890Q196 890 208 878T221 845Q221 826 209 813T176 800Q157 800 144 813T131 845Z" />
<glyph unicode="&#xcc;" glyph-name="Igrave" horiz-adv-x="328" d="M130 0V700H198V0H130ZM221 775L208 763L34 891V897H124L221 775Z" />
<glyph unicode="&#xcd;" glyph-name="Iacute" horiz-adv-x="328" d="M130 0V700H198V0H130ZM103 775L200 897H290V891L116 763L103 775Z" />
<glyph unicode="&#xce;" glyph-name="Icircumflex" horiz-adv-x="328" d="M130 0V700H198V0H130ZM433 905L554 775L541 763L420 843L299 763L286 775L407 905H433Z" />
<glyph unicode="&#xcf;" glyph-name="Idieresis" horiz-adv-x="328" d="M130 0V700H198V0H130ZM478 845Q478 865 491 877T523 890Q543 890 555 878T568 845Q568 826 556 813T523 800Q504 800 491 813T478 845ZM272 845Q272 865 285 877T317 890Q337 890 349 878T362
845Q362 826 350 813T317 800Q298 800 285 813T272 845Z" />
<glyph unicode="&#xd0;" glyph-name="Eth" horiz-adv-x="814" d="M130 0V352H38V376H130V700H350Q466 700 552 656T686 534T734 350Q734 245 686 167T552 44T350 0H130ZM372 352H198V24H350Q495 24 576 110T658 350Q658 504 577 590T350 676H198V376H372V352Z" />
<glyph unicode="&#xd1;" glyph-name="Ntilde" horiz-adv-x="822" d="M115 0L140 714H152L655 106H661L639 700H707L682 -14H670L167 594H161L183 0H115ZM420 873Q435 863 451 855T486 846Q502 846 518 856T555 894L570 884Q544 832 522 812T472 792Q451 792 434
800T400 819Q385 829 369 837T334 846Q318 846 302 837T265 798L250 808Q276 860 298 880T348 900Q369 900 386 892T420 873Z" />
<glyph unicode="&#xd2;" glyph-name="Ograve" horiz-adv-x="888" d="M80 350Q80 427 107 493T184 609T300 686T444 714Q521 714 587 687T703 610T780 494T808 350Q808 273 781 207T704 91T588 14T444 -14Q367 -14 301 13T185 90T108 206T80 350ZM156 350Q156 248
192 172T293 53T444 10Q530 10 595 52T696 172T732 350Q732 451 696 527T595 647T444 690Q358 690 294 648T193 529T156 350ZM501 775L488 763L314 891V897H404L501 775Z" />
<glyph unicode="&#xd3;" glyph-name="Oacute" horiz-adv-x="888" d="M80 350Q80 427 107 493T184 609T300 686T444 714Q521 714 587 687T703 610T780 494T808 350Q808 273 781 207T704 91T588 14T444 -14Q367 -14 301 13T185 90T108 206T80 350ZM156 350Q156 248
192 172T293 53T444 10Q530 10 595 52T696 172T732 350Q732 451 696 527T595 647T444 690Q358 690 294 648T193 529T156 350ZM383 775L480 897H570V891L396 763L383 775Z" />
<glyph unicode="&#xd4;" glyph-name="Ocircumflex" horiz-adv-x="888" d="M80 350Q80 427 107 493T184 609T300 686T444 714Q521 714 587 687T703 610T780 494T808 350Q808 273 781 207T704 91T588 14T444 -14Q367 -14 301 13T185 90T108 206T80 350ZM156 350Q156
248 192 172T293 53T444 10Q530 10 595 52T696 172T732 350Q732 451 696 527T595 647T444 690Q358 690 294 648T193 529T156 350ZM457 905L578 775L565 763L444 843L323 763L310 775L431 905H457Z" />
<glyph unicode="&#xd5;" glyph-name="Otilde" horiz-adv-x="888" d="M80 350Q80 427 107 493T184 609T300 686T444 714Q521 714 587 687T703 610T780 494T808 350Q808 273 781 207T704 91T588 14T444 -14Q367 -14 301 13T185 90T108 206T80 350ZM156 350Q156 248
192 172T293 53T444 10Q530 10 595 52T696 172T732 350Q732 451 696 527T595 647T444 690Q358 690 294 648T193 529T156 350ZM453 873Q468 863 484 855T519 846Q535 846 551 856T588 894L603 884Q577 832 555 812T505 792Q484 792 467 800T433 819Q418 829 402
837T367 846Q351 846 335 837T298 798L283 808Q309 860 331 880T381 900Q402 900 419 892T453 873Z" />
<glyph unicode="&#xd6;" glyph-name="Odieresis" horiz-adv-x="888" d="M80 350Q80 427 107 493T184 609T300 686T444 714Q521 714 587 687T703 610T780 494T808 350Q808 273 781 207T704 91T588 14T444 -14Q367 -14 301 13T185 90T108 206T80 350ZM156 350Q156
248 192 172T293 53T444 10Q530 10 595 52T696 172T732 350Q732 451 696 527T595 647T444 690Q358 690 294 648T193 529T156 350ZM502 845Q502 865 515 877T547 890Q567 890 579 878T592 845Q592 826 580 813T547 800Q528 800 515 813T502 845ZM296 845Q296 865
309 877T341 890Q361 890 373 878T386 845Q386 826 374 813T341 800Q322 800 309 813T296 845Z" />
<glyph unicode="&#xd7;" glyph-name="multiply" horiz-adv-x="582" d="M116 128L95 149L270 324L95 499L116 520L291 345L466 520L487 499L312 324L487 149L466 128L291 303L116 128Z" />
<glyph unicode="&#xd8;" glyph-name="Oslash" horiz-adv-x="888" d="M191 -63L250 39Q173 87 127 168T80 350Q80 427 107 493T184 609T300 686T444 714Q491 714 534 704T616 673L669 766L691 754L637 661Q715 614 761 533T808 350Q808 273 781 207T704 91T588
14T444 -14Q397 -14 354 -4T272 27L213 -75L191 -63ZM156 350Q156 258 185 187T268 71L599 644Q532 690 444 690Q358 690 294 648T193 529T156 350ZM732 350Q732 441 702 513T619 629L288 56Q356 10 444 10Q530 10 595 52T696 172T732 350Z" />
<glyph unicode="&#xd9;" glyph-name="Ugrave" horiz-adv-x="798" d="M120 700H188V278Q188 157 247 90T415 22Q483 22 533 48T611 122T637 230L620 700H688L671 230Q667 110 600 48T407 -14Q272 -14 196 64T120 280V700ZM460 775L447 763L273 891V897H363L460 775Z" />
<glyph unicode="&#xda;" glyph-name="Uacute" horiz-adv-x="798" d="M120 700H188V278Q188 157 247 90T415 22Q483 22 533 48T611 122T637 230L620 700H688L671 230Q667 110 600 48T407 -14Q272 -14 196 64T120 280V700ZM342 775L439 897H529V891L355 763L342 775Z" />
<glyph unicode="&#xdb;" glyph-name="Ucircumflex" horiz-adv-x="798" d="M120 700H188V278Q188 157 247 90T415 22Q483 22 533 48T611 122T637 230L620 700H688L671 230Q667 110 600 48T407 -14Q272 -14 196 64T120 280V700ZM416 905L537 775L524 763L403 843L282
763L269 775L390 905H416Z" />
<glyph unicode="&#xdc;" glyph-name="Udieresis" horiz-adv-x="798" d="M120 700H188V278Q188 157 247 90T415 22Q483 22 533 48T611 122T637 230L620 700H688L671 230Q667 110 600 48T407 -14Q272 -14 196 64T120 280V700ZM461 845Q461 865 474 877T506 890Q526
890 538 878T551 845Q551 826 539 813T506 800Q487 800 474 813T461 845ZM255 845Q255 865 268 877T300 890Q320 890 332 878T345 845Q345 826 333 813T300 800Q281 800 268 813T255 845Z" />
<glyph unicode="&#xdd;" glyph-name="Yacute" horiz-adv-x="617" d="M280 0V296L32 700H108L331 334H337L515 700H591L352 310V0H280ZM251 775L348 897H438V891L264 763L251 775Z" />
<glyph unicode="&#xde;" glyph-name="Thorn" horiz-adv-x="570" d="M130 0V700H198V554H255Q376 554 443 503T510 359Q510 267 443 216T255 164H198V0H130ZM255 530H198V188H255Q438 188 438 359Q438 530 255 530Z" />
<glyph unicode="&#xdf;" glyph-name="uni1E9E" horiz-adv-x="739" d="M120 0V420Q120 511 153 576T247 678T390 714Q459 714 517 689T606 620L437 384Q545 379 607 325T669 181Q669 123 642 80T566 11T451 -14Q410 -14 365 -4T287 22L293 79H299Q331 43 372 26T451
8Q516 8 555 56T595 181Q595 270 545 316T396 363H365L356 381L528 622Q511 654 474 673T390 692Q329 692 284 659T213 567T188 426V0H120Z" />
<glyph unicode="&#xe0;" glyph-name="Agrave" horiz-adv-x="658" d="M26 0L295 700H357L626 0H553L429 328H202L99 0H26ZM302 648L209 352H420L308 648H302ZM386 775L373 763L199 891V897H289L386 775Z" />
<glyph unicode="&#xe1;" glyph-name="Aacute" horiz-adv-x="658" d="M26 0L295 700H357L626 0H553L429 328H202L99 0H26ZM302 648L209 352H420L308 648H302ZM268 775L365 897H455V891L281 763L268 775Z" />
<glyph unicode="&#xe2;" glyph-name="Acircumflex" horiz-adv-x="658" d="M26 0L295 700H357L626 0H553L429 328H202L99 0H26ZM302 648L209 352H420L308 648H302ZM342 905L463 775L450 763L329 843L208 763L195 775L316 905H342Z" />
<glyph unicode="&#xe3;" glyph-name="Atilde" horiz-adv-x="658" d="M26 0L295 700H357L626 0H553L429 328H202L99 0H26ZM302 648L209 352H420L308 648H302ZM338 873Q353 863 369 855T404 846Q420 846 436 856T473 894L488 884Q462 832 440 812T390 792Q369 792
352 800T318 819Q303 829 287 837T252 846Q236 846 220 837T183 798L168 808Q194 860 216 880T266 900Q287 900 304 892T338 873Z" />
<glyph unicode="&#xe4;" glyph-name="Adieresis" horiz-adv-x="658" d="M26 0L295 700H357L626 0H553L429 328H202L99 0H26ZM302 648L209 352H420L308 648H302ZM387 845Q387 865 400 877T432 890Q452 890 464 878T477 845Q477 826 465 813T432 800Q413 800 400
813T387 845ZM181 845Q181 865 194 877T226 890Q246 890 258 878T271 845Q271 826 259 813T226 800Q207 800 194 813T181 845Z" />
<glyph unicode="&#xe5;" glyph-name="Aring" horiz-adv-x="658" d="M26 0L295 700H357L626 0H553L429 328H202L99 0H26ZM302 648L209 352H420L308 648H302ZM235 836Q235 874 261 899T329 924Q370 924 396 899T423 836Q423 798 397 773T329 748Q288 748 262 773T235
836ZM329 906Q308 906 295 887T281 836Q281 805 294 786T329 766Q349 766 363 785T377 836Q377 867 363 886T329 906Z" />
<glyph unicode="&#xe6;" glyph-name="AE" horiz-adv-x="815" d="M10 0L424 700H732V651L557 674Q511 680 495 680V375Q508 375 557 378L721 388V342L557 352Q508 355 495 355V20Q513 20 558 26L735 49V0H427V298H241L86 0H10ZM421 646L253 322H427V646H421Z" />
<glyph unicode="&#xe7;" glyph-name="Ccedilla" horiz-adv-x="758" d="M688 86L682 25Q654 13 614 4T533 -9T460 -14Q379 -14 310 13T190 90T109 205T80 350Q80 428 109 494T189 610T310 686T460 714Q493 714 534 709T614 696T680 676L675 620H669Q632 654 576
672T460 690Q370 690 302 648T195 529T156 350Q156 247 194 171T301 53T460 10Q528 10 586 32T682 86H688ZM415 -76L447 4H469L447 -52Q541 -70 541 -136Q541 -174 515 -197T445 -220Q430 -220 415 -217T371 -204L376 -187Q403 -196 425 -196Q451 -196 466 -182T481
-142Q481 -88 415 -76Z" />
<glyph unicode="&#xe8;" glyph-name="Egrave" horiz-adv-x="518" d="M130 0V700H435V651L260 674Q214 680 198 680V375Q211 375 260 378L424 388V342L260 352Q211 355 198 355V20Q216 20 261 26L438 49V0H130ZM336 775L323 763L149 891V897H239L336 775Z" />
<glyph unicode="&#xe9;" glyph-name="Eacute" horiz-adv-x="518" d="M130 0V700H435V651L260 674Q214 680 198 680V375Q211 375 260 378L424 388V342L260 352Q211 355 198 355V20Q216 20 261 26L438 49V0H130ZM218 775L315 897H405V891L231 763L218 775Z" />
<glyph unicode="&#xea;" glyph-name="Ecircumflex" horiz-adv-x="518" d="M130 0V700H435V651L260 674Q214 680 198 680V375Q211 375 260 378L424 388V342L260 352Q211 355 198 355V20Q216 20 261 26L438 49V0H130ZM292 905L413 775L400 763L279 843L158 763L145
775L266 905H292Z" />
<glyph unicode="&#xeb;" glyph-name="Edieresis" horiz-adv-x="518" d="M130 0V700H435V651L260 674Q214 680 198 680V375Q211 375 260 378L424 388V342L260 352Q211 355 198 355V20Q216 20 261 26L438 49V0H130ZM337 845Q337 865 350 877T382 890Q402 890 414
878T427 845Q427 826 415 813T382 800Q363 800 350 813T337 845ZM131 845Q131 865 144 877T176 890Q196 890 208 878T221 845Q221 826 209 813T176 800Q157 800 144 813T131 845Z" />
<glyph unicode="&#xec;" glyph-name="Igrave" horiz-adv-x="328" d="M130 0V700H198V0H130ZM221 775L208 763L34 891V897H124L221 775Z" />
<glyph unicode="&#xed;" glyph-name="Iacute" horiz-adv-x="328" d="M130 0V700H198V0H130ZM103 775L200 897H290V891L116 763L103 775Z" />
<glyph unicode="&#xee;" glyph-name="Icircumflex" horiz-adv-x="328" d="M130 0V700H198V0H130ZM433 905L554 775L541 763L420 843L299 763L286 775L407 905H433Z" />
<glyph unicode="&#xef;" glyph-name="Idieresis" horiz-adv-x="328" d="M130 0V700H198V0H130ZM478 845Q478 865 491 877T523 890Q543 890 555 878T568 845Q568 826 556 813T523 800Q504 800 491 813T478 845ZM272 845Q272 865 285 877T317 890Q337 890 349 878T362
845Q362 826 350 813T317 800Q298 800 285 813T272 845Z" />
<glyph unicode="&#xf0;" glyph-name="Eth" horiz-adv-x="814" d="M130 0V352H38V376H130V700H350Q466 700 552 656T686 534T734 350Q734 245 686 167T552 44T350 0H130ZM372 352H198V24H350Q495 24 576 110T658 350Q658 504 577 590T350 676H198V376H372V352Z" />
<glyph unicode="&#xf1;" glyph-name="Ntilde" horiz-adv-x="822" d="M115 0L140 714H152L655 106H661L639 700H707L682 -14H670L167 594H161L183 0H115ZM420 873Q435 863 451 855T486 846Q502 846 518 856T555 894L570 884Q544 832 522 812T472 792Q451 792 434
800T400 819Q385 829 369 837T334 846Q318 846 302 837T265 798L250 808Q276 860 298 880T348 900Q369 900 386 892T420 873Z" />
<glyph unicode="&#xf2;" glyph-name="Ograve" horiz-adv-x="888" d="M80 350Q80 427 107 493T184 609T300 686T444 714Q521 714 587 687T703 610T780 494T808 350Q808 273 781 207T704 91T588 14T444 -14Q367 -14 301 13T185 90T108 206T80 350ZM156 350Q156 248
192 172T293 53T444 10Q530 10 595 52T696 172T732 350Q732 451 696 527T595 647T444 690Q358 690 294 648T193 529T156 350ZM501 775L488 763L314 891V897H404L501 775Z" />
<glyph unicode="&#xf3;" glyph-name="Oacute" horiz-adv-x="888" d="M80 350Q80 427 107 493T184 609T300 686T444 714Q521 714 587 687T703 610T780 494T808 350Q808 273 781 207T704 91T588 14T444 -14Q367 -14 301 13T185 90T108 206T80 350ZM156 350Q156 248
192 172T293 53T444 10Q530 10 595 52T696 172T732 350Q732 451 696 527T595 647T444 690Q358 690 294 648T193 529T156 350ZM383 775L480 897H570V891L396 763L383 775Z" />
<glyph unicode="&#xf4;" glyph-name="Ocircumflex" horiz-adv-x="888" d="M80 350Q80 427 107 493T184 609T300 686T444 714Q521 714 587 687T703 610T780 494T808 350Q808 273 781 207T704 91T588 14T444 -14Q367 -14 301 13T185 90T108 206T80 350ZM156 350Q156
248 192 172T293 53T444 10Q530 10 595 52T696 172T732 350Q732 451 696 527T595 647T444 690Q358 690 294 648T193 529T156 350ZM457 905L578 775L565 763L444 843L323 763L310 775L431 905H457Z" />
<glyph unicode="&#xf5;" glyph-name="Otilde" horiz-adv-x="888" d="M80 350Q80 427 107 493T184 609T300 686T444 714Q521 714 587 687T703 610T780 494T808 350Q808 273 781 207T704 91T588 14T444 -14Q367 -14 301 13T185 90T108 206T80 350ZM156 350Q156 248
192 172T293 53T444 10Q530 10 595 52T696 172T732 350Q732 451 696 527T595 647T444 690Q358 690 294 648T193 529T156 350ZM453 873Q468 863 484 855T519 846Q535 846 551 856T588 894L603 884Q577 832 555 812T505 792Q484 792 467 800T433 819Q418 829 402
837T367 846Q351 846 335 837T298 798L283 808Q309 860 331 880T381 900Q402 900 419 892T453 873Z" />
<glyph unicode="&#xf6;" glyph-name="Odieresis" horiz-adv-x="888" d="M80 350Q80 427 107 493T184 609T300 686T444 714Q521 714 587 687T703 610T780 494T808 350Q808 273 781 207T704 91T588 14T444 -14Q367 -14 301 13T185 90T108 206T80 350ZM156 350Q156
248 192 172T293 53T444 10Q530 10 595 52T696 172T732 350Q732 451 696 527T595 647T444 690Q358 690 294 648T193 529T156 350ZM502 845Q502 865 515 877T547 890Q567 890 579 878T592 845Q592 826 580 813T547 800Q528 800 515 813T502 845ZM296 845Q296 865
309 877T341 890Q361 890 373 878T386 845Q386 826 374 813T341 800Q322 800 309 813T296 845Z" />
<glyph unicode="&#xf7;" glyph-name="divide" horiz-adv-x="582" d="M248 488Q248 507 260 519T291 531Q310 531 322 519T334 488Q334 469 322 457T291 445Q272 445 260 457T248 488ZM59 313V343H523V313H59ZM248 168Q248 187 260 199T291 211Q310 211 322 199T334
168Q334 149 322 137T291 125Q272 125 260 137T248 168Z" />
<glyph unicode="&#xf8;" glyph-name="Oslash" horiz-adv-x="888" d="M191 -63L250 39Q173 87 127 168T80 350Q80 427 107 493T184 609T300 686T444 714Q491 714 534 704T616 673L669 766L691 754L637 661Q715 614 761 533T808 350Q808 273 781 207T704 91T588
14T444 -14Q397 -14 354 -4T272 27L213 -75L191 -63ZM156 350Q156 258 185 187T268 71L599 644Q532 690 444 690Q358 690 294 648T193 529T156 350ZM732 350Q732 441 702 513T619 629L288 56Q356 10 444 10Q530 10 595 52T696 172T732 350Z" />
<glyph unicode="&#xf9;" glyph-name="Ugrave" horiz-adv-x="798" d="M120 700H188V278Q188 157 247 90T415 22Q483 22 533 48T611 122T637 230L620 700H688L671 230Q667 110 600 48T407 -14Q272 -14 196 64T120 280V700ZM460 775L447 763L273 891V897H363L460 775Z" />
<glyph unicode="&#xfa;" glyph-name="Uacute" horiz-adv-x="798" d="M120 700H188V278Q188 157 247 90T415 22Q483 22 533 48T611 122T637 230L620 700H688L671 230Q667 110 600 48T407 -14Q272 -14 196 64T120 280V700ZM342 775L439 897H529V891L355 763L342 775Z" />
<glyph unicode="&#xfb;" glyph-name="Ucircumflex" horiz-adv-x="798" d="M120 700H188V278Q188 157 247 90T415 22Q483 22 533 48T611 122T637 230L620 700H688L671 230Q667 110 600 48T407 -14Q272 -14 196 64T120 280V700ZM416 905L537 775L524 763L403 843L282
763L269 775L390 905H416Z" />
<glyph unicode="&#xfc;" glyph-name="Udieresis" horiz-adv-x="798" d="M120 700H188V278Q188 157 247 90T415 22Q483 22 533 48T611 122T637 230L620 700H688L671 230Q667 110 600 48T407 -14Q272 -14 196 64T120 280V700ZM461 845Q461 865 474 877T506 890Q526
890 538 878T551 845Q551 826 539 813T506 800Q487 800 474 813T461 845ZM255 845Q255 865 268 877T300 890Q320 890 332 878T345 845Q345 826 333 813T300 800Q281 800 268 813T255 845Z" />
<glyph unicode="&#xfd;" glyph-name="Yacute" horiz-adv-x="617" d="M280 0V296L32 700H108L331 334H337L515 700H591L352 310V0H280ZM251 775L348 897H438V891L264 763L251 775Z" />
<glyph unicode="&#xfe;" glyph-name="Thorn" horiz-adv-x="570" d="M130 0V700H198V554H255Q376 554 443 503T510 359Q510 267 443 216T255 164H198V0H130ZM255 530H198V188H255Q438 188 438 359Q438 530 255 530Z" />
<glyph unicode="&#xff;" glyph-name="Ydieresis" horiz-adv-x="617" d="M280 0V296L32 700H108L331 334H337L515 700H591L352 310V0H280ZM370 845Q370 865 383 877T415 890Q435 890 447 878T460 845Q460 826 448 813T415 800Q396 800 383 813T370 845ZM164 845Q164
865 177 877T209 890Q229 890 241 878T254 845Q254 826 242 813T209 800Q190 800 177 813T164 845Z" />
<glyph unicode="&#x2013;" glyph-name="endash" horiz-adv-x="580" d="M40 342V372H540V342H40Z" />
<glyph unicode="&#x2014;" glyph-name="emdash" horiz-adv-x="1080" d="M40 342V372H1040V342H40Z" />
<glyph unicode="&#x2018;" glyph-name="quoteleft" horiz-adv-x="264" d="M189 523Q189 500 174 486T135 471Q107 471 93 492T78 550Q78 599 102 641T171 714L181 699Q112 647 108 553Q120 572 143 572Q164 572 176 558T189 523Z" />
<glyph unicode="&#x2019;" glyph-name="quoteright" horiz-adv-x="264" d="M75 658Q75 681 90 695T129 710Q157 710 171 690T186 631Q186 582 162 540T93 467L83 482Q152 534 156 628Q144 609 121 609Q100 609 88 623T75 658Z" />
<glyph unicode="&#x201a;" glyph-name="quotesinglbase" horiz-adv-x="264" d="M75 42Q75 65 90 79T129 94Q157 94 171 74T186 15Q186 -34 162 -76T93 -149L83 -134Q152 -82 156 12Q144 -7 121 -7Q100 -7 88 7T75 42Z" />
<glyph unicode="&#x201c;" glyph-name="quotedblleft" horiz-adv-x="438" d="M363 523Q363 500 348 486T309 471Q281 471 267 492T252 550Q252 599 276 641T345 714L355 699Q286 647 282 553Q294 572 317 572Q338 572 350 558T363 523ZM189 523Q189 500 174 486T135
471Q107 471 93 492T78 550Q78 599 102 641T171 714L181 699Q112 647 108 553Q120 572 143 572Q164 572 176 558T189 523Z" />
<glyph unicode="&#x201d;" glyph-name="quotedblright" horiz-adv-x="438" d="M75 658Q75 681 90 695T129 710Q157 710 171 690T186 631Q186 582 162 540T93 467L83 482Q152 534 156 628Q144 609 121 609Q100 609 88 623T75 658ZM249 658Q249 681 264 695T303
710Q331 710 345 690T360 631Q360 582 336 540T267 467L257 482Q326 534 330 628Q318 609 295 609Q274 609 262 623T249 658Z" />
<glyph unicode="&#x201e;" glyph-name="quotedblbase" horiz-adv-x="438" d="M75 42Q75 65 90 79T129 94Q157 94 171 74T186 15Q186 -34 162 -76T93 -149L83 -134Q152 -82 156 12Q144 -7 121 -7Q100 -7 88 7T75 42ZM249 42Q249 65 264 79T303 94Q331 94 345 74T360
15Q360 -34 336 -76T267 -149L257 -134Q326 -82 330 12Q318 -7 295 -7Q274 -7 262 7T249 42Z" />
<glyph unicode="&#x2022;" glyph-name="bullet" horiz-adv-x="412" d="M90 363Q90 414 122 446T206 479Q257 479 289 447T322 363Q322 312 290 280T206 247Q155 247 123 279T90 363Z" />
<glyph unicode="&#x2039;" glyph-name="guilsinglleft" horiz-adv-x="318" d="M245 154L60 342V358L245 546L258 534L132 350L258 166L245 154Z" />
<glyph unicode="&#x203a;" glyph-name="guilsinglright" horiz-adv-x="318" d="M73 154L60 166L186 350L60 534L73 546L258 358V342L73 154Z" />
</font>
</defs>
</svg>
