<?xml version="1.0" standalone="no"?>
<!DOCTYPE svg PUBLIC "-//W3C//DTD SVG 1.1//EN" "http://www.w3.org/Graphics/SVG/1.1/DTD/svg11.dtd">
<svg xmlns="http://www.w3.org/2000/svg">
<defs >
<font id="Lalezar" horiz-adv-x="627" ><font-face
    font-family="Lalezar"
    units-per-em="1000"
    panose-1="0 0 5 0 0 0 0 0 0 0"
    ascent="979"
    descent="-588"
    alphabetic="0" />
<glyph unicode=" " glyph-name="space" horiz-adv-x="150" />
<glyph unicode="!" glyph-name="exclam" horiz-adv-x="263" d="M67 226Q65 308 53 558L50 627L212 636Q213 616 213 577Q213 473 203 331Q199 267 198 249Q150 222 72 221L67 226ZM97 -6T76 15T54 74Q54 106 76 128T132 150Q164 150 185 128T207 74Q207 37 186
16T130 -6Q97 -6 76 15Z" />
<glyph unicode="&quot;" glyph-name="quotedbl" horiz-adv-x="349" d="M31 501T34 607Q59 611 93 611Q128 611 153 607Q156 506 138 364Q108 362 93 362Q78 362 50 364Q31 501 34 607ZM195 506T198 607Q223 611 257 611Q292 611 317 607Q320 506 302 364Q270 362
256 362Q241 362 213 364Q195 506 198 607Z" />
<glyph unicode="#" glyph-name="numbersign" horiz-adv-x="646" d="M588 240L571 154H476L448 -4H318L346 154H255L227 -4H97L126 154H22L39 240H141L159 346H59L76 432H175L200 574H330L305 432H396L421 574H550L525 432H625L609 346H510L491 240H588ZM271 240H362L380
346H288L271 240Z" />
<glyph unicode="$" glyph-name="dollar" horiz-adv-x="515" d="M484 18T313 -6L284 -100H125L154 -5Q86 2 40 14Q42 35 48 75T61 136Q96 131 166 124T273 117Q294 117 298 120Q304 124 307 133T311 150Q311 170 292 180T227 206Q172 223 136 241T73 297T46 397Q46
441 66 483T107 541Q117 548 147 555T212 568L237 650H396L370 567Q420 561 450 551Q449 531 444 496T432 432L409 433Q279 442 243 442Q228 442 226 441Q222 439 219 432T216 416Q216 395 237 383T305 357Q360 339 395 322T457 269T484 175Q484 18 313 -6Z" />
<glyph unicode="%" glyph-name="percent" horiz-adv-x="693" d="M195 601T224 590T270 544T287 444Q287 354 253 321T151 288Q87 288 54 322T20 438Q20 521 52 561T151 601Q195 601 224 590ZM472 600H595L226 0H103L472 600ZM180 356T188 377T196 443Q196 488
188 510T155 533H150Q132 533 126 527Q121 522 118 496T114 441Q114 394 123 375T154 356Q180 356 188 377ZM581 311T610 300T656 254T673 154Q673 64 639 31T537 -2Q473 -2 440 32T406 148Q406 231 438 271T537 311Q581 311 610 300ZM566 66T574 87T582 153Q582
198 574 220T541 243H536Q518 243 512 237Q507 232 504 206T500 151Q500 104 509 85T540 66Q566 66 574 87Z" />
<glyph unicode="&amp;" glyph-name="ampersand" horiz-adv-x="666" d="M559 144T591 122T666 81V63Q647 38 617 14T571 -10Q556 -10 524 6T464 44Q440 22 387 5T281 -13Q212 -13 156 7T66 69T33 167Q33 264 140 329Q103 372 103 421Q103 465 131 500T208 556T317
577Q397 577 443 542T490 444Q490 395 460 359T371 300Q396 277 475 210L480 213Q477 233 477 250Q477 270 481 304H620Q617 259 598 216T554 147Q559 144 591 122ZM295 475T283 464T270 433Q270 415 281 396T314 360Q335 379 347 399T360 439Q360 455 347 465T317
475Q295 475 283 464ZM192 166T224 139T309 111Q339 111 366 119Q323 149 283 184T215 252Q192 231 192 204Q192 166 224 139Z" />
<glyph unicode="&apos;" glyph-name="quotesingle" horiz-adv-x="190" d="M34 504T35 607Q62 611 96 611Q130 611 155 607Q156 497 140 364Q110 362 95 362Q79 362 51 364Q34 504 35 607Z" />
<glyph unicode="(" glyph-name="parenleft" horiz-adv-x="288" d="M102 -229T61 -79T19 209Q19 471 152 713L280 666Q218 530 188 412T158 180Q158 67 188 -48T280 -292L165 -340Q102 -229 61 -79Z" />
<glyph unicode=")" glyph-name="parenright" horiz-adv-x="288" d="M4 -292Q66 -164 96 -49T126 180Q126 294 96 412T4 666L132 713Q265 471 265 209Q265 72 224 -78T119 -340L4 -292Z" />
<glyph unicode="*" glyph-name="asterisk" horiz-adv-x="383" d="M142 422L20 452L44 529L156 484L143 600H238L229 484L339 528L364 451L242 422L323 331L252 279L189 374L130 280L56 328L142 422Z" />
<glyph unicode="+" glyph-name="plus" horiz-adv-x="460" d="M436 133H291V-12H169V133H24V254H169V399H291V254H436V133Z" />
<glyph unicode="," glyph-name="comma" horiz-adv-x="296" d="M198 196T230 165T263 78Q263 25 227 -32T141 -140L73 -82Q110 -30 137 18Q77 35 50 54Q47 69 47 82Q47 131 75 163T155 196Q198 196 230 165Z" />
<glyph unicode="-" glyph-name="hyphen" horiz-adv-x="368" d="M34 329H334V186H34V329Z" />
<glyph unicode="." glyph-name="period" horiz-adv-x="271" d="M93 -8T67 19T40 92Q40 132 67 159T137 187Q177 187 204 160T231 92Q231 46 205 19T134 -8Q93 -8 67 19Z" />
<glyph unicode="/" glyph-name="slash" horiz-adv-x="492" d="M349 668H482L143 -156H10L349 668Z" />
<glyph unicode="0" glyph-name="zero" horiz-adv-x="568" d="M362 577T417 556T504 470T536 282Q536 164 505 100T419 11T280 -13Q160 -13 96 50T32 269Q32 425 94 501T279 577Q362 577 417 556ZM335 116T350 155T365 280Q365 367 347 408T279 450Q244 450 232
438Q223 428 217 378T210 276Q210 188 227 152T285 116Q335 116 350 155Z" />
<glyph unicode="1" glyph-name="one" horiz-adv-x="389" d="M319 570V0H144V426L20 400L1 505L178 570H319Z" />
<glyph unicode="2" glyph-name="two" horiz-adv-x="500" d="M470 133V0H31V111Q82 152 128 190T231 281Q259 306 272 335T285 390Q285 417 272 432Q261 443 156 443L89 442Q76 441 57 441Q54 455 51 496T47 557Q160 577 235 577Q337 577 397 539T458 406Q458 361
435 314T345 214Q300 179 227 131L470 133Z" />
<glyph unicode="3" glyph-name="three" horiz-adv-x="479" d="M384 286T415 251T446 164Q446 89 390 39T211 -12Q128 -12 26 4L46 114Q136 110 164 110Q219 110 244 124T270 179Q270 208 252 222T199 241T102 245V338Q165 338 197 341T247 358T265 399Q265 423
264 437T257 455Q249 460 186 460Q129 460 47 456L37 562Q146 577 212 577Q308 577 369 540T431 420Q431 378 404 341T313 294V291Q384 286 415 251Z" />
<glyph unicode="4" glyph-name="four" horiz-adv-x="530" d="M515 118H429V0H254V118H41L7 220Q50 298 119 394T254 570H429V234H515V118ZM200 329T142 234H257V411Q200 329 142 234Z" />
<glyph unicode="5" glyph-name="five" horiz-adv-x="489" d="M368 356T416 305T464 172Q464 -12 209 -12Q127 -12 22 4L44 114Q127 105 168 105Q229 105 261 122T293 180Q293 194 289 209T275 229Q271 231 254 233T212 235Q138 235 67 223L62 228L103 570H441V437L227
438L216 353Q243 356 266 356Q368 356 416 305Z" />
<glyph unicode="6" glyph-name="six" horiz-adv-x="523" d="M427 370T463 313T500 188Q500 96 444 42T271 -13Q145 -13 88 57T30 269Q30 421 96 498T283 575Q332 575 375 570T442 557L423 451Q369 455 347 455Q276 455 240 430T197 335Q227 352 261 361T322 370Q427
370 463 313ZM335 110T335 186Q335 221 322 239Q313 249 272 249Q235 249 201 241Q199 223 199 212Q199 170 216 140T267 110Q335 110 335 186Z" />
<glyph unicode="7" glyph-name="seven" horiz-adv-x="458" d="M455 570V463Q396 356 336 228T241 -9L78 27Q150 226 283 439H12V570H455Z" />
<glyph unicode="8" glyph-name="eight" horiz-adv-x="544" d="M452 286T481 248T510 156Q510 75 441 32T267 -11Q164 -11 100 25T35 135Q35 176 65 216T152 281Q104 309 79 348T53 426Q53 501 117 539T275 577Q486 577 486 439Q486 375 388 315Q452 286 481 248ZM247
480T233 467T218 425Q218 400 239 384T298 352Q347 386 347 422Q347 452 330 466T276 480Q247 480 233 467ZM296 85T316 100T336 144Q336 171 317 188T252 228Q225 209 210 189T194 144Q194 117 217 101T269 85Q296 85 316 100Z" />
<glyph unicode="9" glyph-name="nine" horiz-adv-x="523" d="M391 577T448 507T506 295Q506 143 440 66T253 -11Q204 -11 161 -6T94 7L113 113Q167 109 189 109Q260 109 296 134T339 229Q309 212 275 203T214 194Q109 194 73 251T36 376Q36 468 92 522T265 577Q391
577 448 507ZM337 341T337 352Q337 394 320 424T269 454Q201 454 201 378Q201 343 214 325Q223 315 264 315Q301 315 335 323Q337 341 337 352Z" />
<glyph unicode=":" glyph-name="colon" horiz-adv-x="254" d="M88 268T64 292T40 358Q40 395 65 420T128 445Q165 445 189 420T214 358Q214 317 190 293T126 268Q88 268 64 292ZM88 -2T64 22T40 88Q40 125 65 150T128 175Q165 175 189 150T214 88Q214 47 190 23T126
-2Q88 -2 64 22Z" />
<glyph unicode=";" glyph-name="semicolon" horiz-adv-x="280" d="M94 335T70 360T45 422Q45 463 69 487T133 512Q171 512 195 488T219 422Q219 385 194 360T131 335Q94 335 70 360ZM186 254T215 226T245 147Q245 99 213 48T134 -50L73 2Q107 49 131 93Q79 108
52 126Q50 135 50 152Q50 196 75 225T147 254Q186 254 215 226Z" />
<glyph unicode="&lt;" glyph-name="less" horiz-adv-x="371" d="M24 299L331 501V363L151 251L331 134V-5L24 202V299Z" />
<glyph unicode="=" glyph-name="equal" horiz-adv-x="530" d="M40 327H490V214H40V327ZM40 157H490V44H40V157Z" />
<glyph unicode="&gt;" glyph-name="greater" horiz-adv-x="373" d="M42 -5V134L222 251L42 363V501L349 299V202L42 -5Z" />
<glyph unicode="?" glyph-name="question" horiz-adv-x="346" d="M113 202T55 229Q55 274 51 330T35 437L43 441Q98 430 146 430Q185 430 208 437T231 460Q231 475 205 482T135 489Q110 489 62 485L40 607Q63 629 85 636T134 644Q195 644 238 616T304 543T326
449Q326 373 292 330T192 277L193 206L188 201Q113 202 55 229ZM92 -6T71 15T50 74Q50 106 71 128T125 150Q158 150 180 128T203 74Q203 37 182 16T127 -6Q92 -6 71 15Z" />
<glyph unicode="@" glyph-name="at" horiz-adv-x="722" d="M457 564T532 522T649 405T692 235Q692 168 670 116T609 35T520 6Q464 6 435 43T400 141Q385 114 365 101T313 88Q269 88 241 113T213 183Q213 222 234 241T296 267Q337 273 387 273Q387 317 383 319Q378
322 359 322Q326 322 290 318T246 313Q238 349 238 390Q319 407 378 407Q431 407 457 390T492 346T500 279Q500 259 499 236T497 201Q494 171 494 145Q494 81 533 81Q569 81 588 126T608 235Q608 310 576 369T488 461T363 494Q294 494 237 461T147 372T114 246Q114
132 178 64T359 -4Q396 -4 438 4L453 -60Q401 -74 359 -74Q257 -74 183 -35T70 77T30 246Q30 336 73 408T193 522T363 564Q457 564 532 522ZM369 163T387 170V218H382Q333 218 328 213Q321 207 321 191Q321 175 328 169T351 163Q369 163 387 170Z" />
<glyph unicode="A" glyph-name="A" horiz-adv-x="595" d="M380 125H214L184 0H0L184 570H419L595 0H410L380 125ZM296 447L237 236H356L300 447H296Z" />
<glyph unicode="B" glyph-name="B" horiz-adv-x="571" d="M488 293T517 256T546 165Q546 132 536 103T512 53T488 26Q448 0 244 0H50V570H285Q365 570 414 562T495 524T526 434Q526 382 501 350T420 306V301Q488 293 517 256ZM330 459T317 461T274 464Q245 464
230 463V341H240Q245 341 282 341T331 346Q340 350 347 367T355 404Q355 434 340 449Q330 459 317 461ZM364 121T368 137T373 171Q373 192 368 210T353 237Q344 246 328 249T272 252Q247 252 230 251V106Q277 105 314 107T357 115Q364 121 368 137Z" />
<glyph unicode="C" glyph-name="C" horiz-adv-x="513" d="M497 19Q460 3 411 -4T320 -11Q184 -11 107 60T30 278Q30 428 111 502T339 577Q409 577 485 558Q485 538 481 499T473 443H410Q341 443 302 441T254 431Q239 417 231 375T223 293Q223 225 240 189T283
140Q308 128 366 128Q412 128 486 136L497 19Z" />
<glyph unicode="D" glyph-name="D" horiz-adv-x="629" d="M367 570T441 548T557 465T599 290Q599 168 555 105T437 21T250 0H50V570H250Q367 570 441 548ZM396 148T401 198T406 290Q406 343 399 374T372 425Q342 458 269 458Q256 458 230 456V124Q247 122 283
122Q320 122 348 125T384 136Q396 148 401 198Z" />
<glyph unicode="E" glyph-name="E" horiz-adv-x="486" d="M45 570H460V450H225V346H423V238H225V122H459V0H45V570Z" />
<glyph unicode="F" glyph-name="F" horiz-adv-x="468" d="M48 570H457V446H228V333H417V224H228V0H48V570Z" />
<glyph unicode="G" glyph-name="G" horiz-adv-x="583" d="M548 316V31Q481 9 421 -1T320 -11Q184 -11 107 60T30 278Q30 428 111 502T339 577Q416 577 524 554Q524 534 520 495T512 439L476 440Q410 442 373 442Q262 442 252 429Q236 410 230 370T223 293Q223
226 238 189T284 137T368 122H372V316H548Z" />
<glyph unicode="H" glyph-name="H" horiz-adv-x="619" d="M51 570H232V361H387V570H568V0H387V246H232V0H51V570Z" />
<glyph unicode="I" glyph-name="I" horiz-adv-x="282" d="M51 570H231V0H51V570Z" />
<glyph unicode="J" glyph-name="J" horiz-adv-x="362" d="M314 570V205Q314 129 300 82T251 11T151 -13Q83 -13 8 0L23 115Q51 114 87 116T128 124Q134 134 134 172T134 215V570H314Z" />
<glyph unicode="K" glyph-name="K" horiz-adv-x="576" d="M582 0H385L274 213Q271 218 259 241T231 285V0H51V570H231V311Q248 330 260 352T275 379L382 570H572L458 379Q455 375 445 358T424 327T399 300Q417 283 428 267T455 223L582 0Z" />
<glyph unicode="L" glyph-name="L" horiz-adv-x="476" d="M48 570H228V132H461V0H48V570Z" />
<glyph unicode="M" glyph-name="M" horiz-adv-x="823" d="M785 0H617L604 314Q601 407 597 455H594Q582 417 566 337L561 312L492 0H324L266 281L256 331Q235 424 227 455H224Q220 405 217 292Q216 285 216 270L207 0H38L62 570H348L397 324L409 258Q417 289 424
327L470 570H762L785 0Z" />
<glyph unicode="N" glyph-name="N" horiz-adv-x="640" d="M217 230V0H50V570H219L370 340Q404 289 422 254H425V350V570H591V0H421L266 240L221 308H218L217 230Z" />
<glyph unicode="O" glyph-name="O" horiz-adv-x="643" d="M179 -13T105 57T30 284Q30 437 112 507T329 577Q613 577 613 294Q613 151 544 69T328 -13Q179 -13 105 57ZM352 105T371 114T401 148Q422 189 422 282Q422 373 401 414Q380 456 324 458Q303 458 281 454T252
441Q240 427 234 382T227 282Q227 198 243 159Q254 130 274 118T324 105Q352 105 371 114Z" />
<glyph unicode="P" glyph-name="P" horiz-adv-x="554" d="M361 573T417 558T506 501T540 379Q540 344 530 308T504 244T476 209Q462 199 414 194T301 188Q278 188 230 190V0H50V570Q155 573 280 573Q361 573 417 558ZM365 329T365 368Q365 419 344 440T269 461Q251
461 230 458V306Q240 305 269 305Q346 305 355 316Q365 329 365 368Z" />
<glyph unicode="Q" glyph-name="Q" horiz-adv-x="647" d="M559 -138L407 -6Q365 -13 328 -13Q179 -13 105 57T30 284Q30 437 112 507T329 577Q613 577 613 294Q613 139 535 60L646 -17L559 -138ZM352 105T371 114T401 148Q422 189 422 282Q422 373 401 414Q380
456 324 458Q303 458 281 454T252 441Q240 427 234 382T227 282Q227 198 243 159Q254 130 274 118T324 105Q352 105 371 114Z" />
<glyph unicode="R" glyph-name="R" horiz-adv-x="580" d="M569 0H380L346 144Q344 152 340 171T329 200T312 213Q284 212 230 212V0H50V565Q171 574 276 574Q371 574 430 559T518 506T548 403Q548 342 520 308T430 266V260Q465 257 488 238T520 188L569 0ZM239
324T265 324Q342 324 355 337Q367 349 367 393Q367 434 346 449T275 464Q264 464 230 462V325Q239 324 265 324Z" />
<glyph unicode="S" glyph-name="S" horiz-adv-x="515" d="M214 395T235 383T303 357Q358 339 393 322T455 269T482 175Q482 -11 240 -11Q200 -11 143 -4T38 14Q40 35 46 75T59 136Q94 131 164 124T271 117Q292 117 296 120Q302 124 305 133T309 150Q309 170 290
180T225 206Q170 223 134 241T71 297T44 397Q44 441 64 483T105 541Q121 552 171 562T265 572Q377 572 448 551Q447 531 442 496T430 432L407 433Q277 442 241 442Q226 442 224 441Q220 439 217 432T214 416Q214 395 235 383Z" />
<glyph unicode="T" glyph-name="T" horiz-adv-x="518" d="M349 0H169V445H8V570H510V445H349V0Z" />
<glyph unicode="U" glyph-name="U" horiz-adv-x="628" d="M583 570V251Q583 152 562 97T481 15T309 -11Q226 -11 169 6T79 73T45 211V570H225V249Q225 196 230 169T256 127T317 112Q342 112 364 117T394 132Q403 144 403 219V570H583Z" />
<glyph unicode="V" glyph-name="V" horiz-adv-x="570" d="M380 570H570L416 0H155L0 570H191L283 124H288L380 570Z" />
<glyph unicode="W" glyph-name="W" horiz-adv-x="917" d="M386 0H161L14 570H206L282 151H287L368 570H556L639 151H642L719 570H903L756 0H532L464 364H458L386 0Z" />
<glyph unicode="X" glyph-name="X" horiz-adv-x="566" d="M143 292L9 570H193L285 346L380 570H559L427 292L568 -1H384L285 241L183 -1H-2L143 292Z" />
<glyph unicode="Y" glyph-name="Y" horiz-adv-x="548" d="M365 182V0H185V180L-7 570H176L252 385Q264 357 274 326H276Q287 360 298 387L373 570H555L365 182Z" />
<glyph unicode="Z" glyph-name="Z" horiz-adv-x="515" d="M489 109V0H27V114L298 460H35V570H481V455L214 109H489Z" />
<glyph unicode="[" glyph-name="bracketleft" horiz-adv-x="331" d="M175 563V-134H292V-247H42V-134V645V676H292V563H175Z" />
<glyph unicode="\" glyph-name="backslash" horiz-adv-x="492" d="M339 -156L0 668H133L472 -156H339Z" />
<glyph unicode="]" glyph-name="bracketright" horiz-adv-x="331" d="M272 676V563V-241V-247H22V-134H139V563H22V676H272Z" />
<glyph unicode="^" glyph-name="asciicircum" horiz-adv-x="562" d="M534 279H395L278 459L166 279H28L230 586H327L534 279Z" />
<glyph unicode="_" glyph-name="underscore" horiz-adv-x="590" d="M30 -63H560V-176H30V-63Z" />
<glyph unicode="`" glyph-name="grave" horiz-adv-x="0" d="M35 594Q-4 617 -57 650T-142 705L-89 783Q-42 751 5 714T75 652L35 594Z" />
<glyph unicode="a" glyph-name="a" horiz-adv-x="491" d="M315 0L299 63Q253 -12 171 -12Q104 -12 62 25T19 131Q19 173 43 204T111 249Q167 265 284 267Q284 333 278 337Q273 341 246 341Q229 341 199 339Q151 337 69 328Q61 382 57 444Q110 455 168 462T272
470Q352 470 392 444T444 374T455 265L454 118L457 0H315ZM255 100T284 110V184H276Q202 184 194 176Q189 171 187 161T184 142Q184 118 195 109T229 100Q255 100 284 110Z" />
<glyph unicode="b" glyph-name="b" horiz-adv-x="538" d="M428 470T470 423T513 257Q513 170 496 109T456 30Q430 9 379 -1T263 -11Q213 -11 151 -4T40 20V600L213 607V513Q213 505 213 476T210 428T204 398L210 391Q233 426 268 448T350 470Q428 470 470 423ZM328
119T332 156T337 227Q337 267 334 290T317 326T275 340Q250 340 211 333V107Q248 101 288 101Q317 101 322 109Q328 119 332 156Z" />
<glyph unicode="c" glyph-name="c" horiz-adv-x="444" d="M428 14Q347 -13 247 -13Q135 -13 80 43T24 220Q24 279 40 336T74 414Q95 437 156 453T284 469Q353 469 423 457Q421 432 417 399T407 339Q345 343 290 343Q236 343 221 337Q213 334 207 296T200 225Q200
181 212 158T252 125T325 116Q345 116 413 120L428 14Z" />
<glyph unicode="d" glyph-name="d" horiz-adv-x="540" d="M499 607V0H358L344 77Q324 38 285 15T197 -8Q119 -8 73 48T26 216Q26 301 46 356T93 435Q110 450 162 460T256 470Q292 470 330 463Q327 511 327 516V600L499 607ZM299 126T328 135V352Q299 356 264 356Q234
356 226 351Q215 343 209 306T202 227Q202 166 220 146T272 126Q299 126 328 135Z" />
<glyph unicode="e" glyph-name="e" horiz-adv-x="492" d="M345 120T413 125Q422 125 446 127L461 24Q384 -12 261 -12Q146 -12 85 46T23 221Q23 281 38 337T74 415Q95 437 152 453T265 469Q355 469 400 437T459 349T473 197Q405 193 340 193H198Q198 161 211 145T250
125T320 120Q345 120 413 125ZM202 347T199 324T195 272H247Q294 272 315 273Q315 321 302 341T255 361Q228 361 208 350Q202 347 199 324Z" />
<glyph unicode="f" glyph-name="f" horiz-adv-x="360" d="M252 505T252 469V460H358V362H252V0H81V362H6V451L81 460V475Q81 519 93 559T115 607Q146 633 247 633Q302 633 370 625Q370 613 367 577T360 516L317 517Q264 517 259 512Q252 505 252 469Z" />
<glyph unicode="g" glyph-name="g" horiz-adv-x="538" d="M328 468T379 462T498 444V46Q498 -97 403 -176Q391 -186 349 -193T254 -200Q139 -200 72 -170Q71 -148 75 -112T85 -55Q157 -66 226 -66Q261 -66 285 -63T316 -52Q324 -44 328 8Q329 22 329 49V74Q304
37 265 21T195 5Q111 5 68 60T25 221Q25 291 44 352T98 438Q120 453 169 460T281 468Q328 468 379 462ZM297 130T327 142V351Q316 353 294 355Q284 356 264 356Q233 356 225 350Q214 342 208 306T201 229Q201 174 213 152T260 130Q297 130 327 142Z" />
<glyph unicode="h" glyph-name="h" horiz-adv-x="542" d="M495 420T499 376T504 242V0H333V240Q333 244 333 279T328 323Q325 327 314 329T287 331L270 330Q242 329 212 317V0H41V600L212 607V490Q212 418 207 394L208 393Q276 470 371 470Q407 470 438 460T486
431Q495 420 499 376Z" />
<glyph unicode="i" glyph-name="i" horiz-adv-x="259" d="M96 517T72 540T47 595Q47 627 71 650T130 673Q164 673 188 650T212 595Q212 563 188 540T130 517Q96 517 72 540ZM44 460H215V0H44V460Z" />
<glyph unicode="j" glyph-name="j" horiz-adv-x="258" d="M96 517T72 540T47 595Q47 627 71 650T130 673Q164 673 188 650T212 595Q212 563 188 540T130 517Q96 517 72 540ZM43 -48T43 -24T43 4V460H214V62Q214 -6 200 -61T159 -149Q144 -168 110 -177T33 -186Q-18
-186 -57 -176Q-62 -138 -62 -105Q-62 -82 -61 -70Q30 -67 38 -56Q43 -48 43 -24Z" />
<glyph unicode="k" glyph-name="k" horiz-adv-x="525" d="M530 0H344L249 187Q235 216 212 224V0H41V600L212 607V266Q236 276 253 307L338 460L525 461L428 305Q405 268 378 246Q401 221 430 170L530 0Z" />
<glyph unicode="l" glyph-name="l" horiz-adv-x="259" d="M44 600L215 607V0H44V600Z" />
<glyph unicode="m" glyph-name="m" horiz-adv-x="814" d="M776 404T776 242V0H605V225V279Q605 316 598 323Q590 331 564 331L552 330Q521 328 493 316Q494 295 494 242V0H323V225V285Q323 316 316 323Q308 331 282 331L270 330Q242 329 212 317V0H41V460H180L198
385Q231 429 274 449T361 470Q398 470 431 459T478 428Q484 419 488 395Q520 434 561 452T643 470Q680 470 713 459T760 428Q776 404 776 242Z" />
<glyph unicode="n" glyph-name="n" horiz-adv-x="542" d="M495 420T499 376T504 242V0H333V240V281Q333 313 328 321Q320 331 291 331Q277 331 270 330Q242 329 212 317V0H41V460H180L199 383Q271 470 371 470Q407 470 438 460T486 431Q495 420 499 376Z" />
<glyph unicode="o" glyph-name="o" horiz-adv-x="530" d="M143 -13T84 43T24 222Q24 289 36 339T67 410Q90 436 151 453T267 470Q396 470 451 415T506 239Q506 109 447 48T263 -13Q143 -13 84 43ZM305 104T317 131T329 229Q329 278 324 304T306 343T264 356Q224
356 218 349Q210 342 205 305T200 228Q200 160 213 132T266 104Q305 104 317 131Z" />
<glyph unicode="p" glyph-name="p" horiz-adv-x="540" d="M429 470T471 423T514 257Q514 169 497 114T458 40Q436 22 382 11T269 0Q252 0 212 2V-140L41 -147V460H181L198 389Q224 426 264 448T357 470Q429 470 471 423ZM328 130T333 167T338 239Q338 295 324
322T268 349Q238 349 212 343V121L240 118Q253 117 277 117Q311 117 317 122Q328 130 333 167Z" />
<glyph unicode="q" glyph-name="q" horiz-adv-x="538" d="M384 469T498 439V-140L327 -147V-15Q327 23 342 74L339 76Q314 31 274 13T199 -6Q121 -6 73 49T25 217Q25 292 44 353T90 432Q119 451 169 460T277 469Q384 469 498 439ZM295 133T327 142V351Q315 353
291 355Q282 356 264 356Q225 356 220 348Q211 334 206 297Q201 262 201 229Q201 177 218 155T271 133Q295 133 327 142Z" />
<glyph unicode="r" glyph-name="r" horiz-adv-x="379" d="M339 470T353 467T375 460Q375 438 370 388T361 316Q351 317 324 317Q261 317 212 310V0H41V460H184L204 386H205Q234 424 267 447T326 470Q339 470 353 467Z" />
<glyph unicode="s" glyph-name="s" horiz-adv-x="429" d="M413 67T357 28T196 -11Q123 -11 28 10Q30 30 37 67T50 125Q86 119 130 116T205 112Q232 112 238 115Q239 116 240 120T242 130Q242 150 217 157Q209 159 156 174T70 228T36 327Q36 358 50 396T80 444Q92
452 138 460T223 469Q306 469 390 457Q390 439 385 397T376 343Q291 354 239 354Q212 354 204 351Q202 350 200 346T198 334Q198 320 207 314Q216 307 254 297Q299 284 331 270T388 228T413 156Q413 67 357 28Z" />
<glyph unicode="t" glyph-name="t" horiz-adv-x="369" d="M253 189Q253 171 254 152T260 127Q267 120 309 120L343 121Q352 73 352 10Q333 3 297 -3T227 -9Q158 -9 121 21T83 116V362H8V453L83 460L128 570L253 577V460H359V362H253V189Z" />
<glyph unicode="u" glyph-name="u" horiz-adv-x="542" d="M501 460V0H362L343 77Q271 -10 171 -10Q135 -10 104 0T56 29Q47 40 43 84T38 218V460H209V220Q209 200 210 173T216 139Q223 129 256 129L272 130Q300 131 330 143V460H501Z" />
<glyph unicode="v" glyph-name="v" horiz-adv-x="515" d="M337 460H516L376 0H139L-1 460H178L253 107H263L337 460Z" />
<glyph unicode="w" glyph-name="w" horiz-adv-x="747" d="M324 0H108L6 460H181L226 118H229L280 460H465L519 119H523L565 460H741L639 0H422L374 278H371L324 0Z" />
<glyph unicode="x" glyph-name="x" horiz-adv-x="518" d="M125 235L10 460H176L259 282L343 460H508L394 235L519 0H352L259 190L166 0H-1L125 235Z" />
<glyph unicode="y" glyph-name="y" horiz-adv-x="516" d="M517 460L397 75Q362 -36 334 -86T278 -157Q262 -168 228 -174T153 -180Q93 -180 57 -169Q56 -145 59 -111T67 -52Q109 -54 149 -54Q179 -54 194 -53Q209 -24 222 8L153 12L-1 460H180L260 138L261 119H264L336
460H517Z" />
<glyph unicode="z" glyph-name="z" horiz-adv-x="467" d="M440 112V0H27V115L249 351H33V460H435V346L214 112H440Z" />
<glyph unicode="{" glyph-name="braceleft" horiz-adv-x="384" d="M342 563H225V520Q225 415 210 352Q185 248 125 220V214Q180 188 206 93Q227 7 225 -134H342V-247Q227 -247 160 -212T92 -84Q92 2 77 69T8 137Q1 181 1 212Q1 243 8 287Q54 287 73 344T92 489Q92
571 111 609T181 662T342 676V563Z" />
<glyph unicode="|" glyph-name="bar" horiz-adv-x="230" d="M63 644H167V-32H63V644Z" />
<glyph unicode="}" glyph-name="braceright" horiz-adv-x="384" d="M364 252T364 212Q364 172 357 137Q303 137 288 70T273 -84Q273 -177 206 -212T23 -247V-134H140Q138 7 159 93Q185 188 240 214V220Q180 248 155 352Q140 415 140 520V563H23V676Q132 676 183
662T254 610T273 489Q273 401 292 344T357 287Q364 252 364 212Z" />
<glyph unicode="~" glyph-name="asciitilde" horiz-adv-x="464" d="M424 242T424 224Q424 175 394 142T312 108Q289 108 263 115T197 136Q170 145 166 146Q153 150 138 150Q117 150 105 141T92 115H43Q40 130 40 145Q40 197 72 230T162 264Q187 264 203 260T245
248Q283 235 307 230Q319 228 325 228Q363 228 376 258H420Q424 242 424 224Z" />
<glyph unicode="&#xa0;" glyph-name="uni00A0" horiz-adv-x="265" />
<glyph unicode="&#xa1;" glyph-name="exclamdown" horiz-adv-x="263" d="M165 661T186 640T207 581Q207 549 186 527T132 505Q99 505 77 527T54 581Q54 618 75 639T130 661Q165 661 186 640ZM150 433T198 406Q199 389 203 324Q213 182 213 78Q213 39 212 19L50
28L53 97Q65 347 67 429L72 434Q150 433 198 406Z" />
<glyph unicode="&#xa2;" glyph-name="cent" horiz-adv-x="444" d="M364 71T290 66L270 0H111L137 83Q24 128 24 294Q24 352 40 408T74 484Q87 498 119 510T192 530L213 600H372L352 535Q386 532 423 526Q421 501 417 468T407 410Q345 414 290 414Q236 414 221
408Q213 405 207 368T200 299Q200 237 228 215T325 192Q345 192 413 196L428 92Q364 71 290 66Z" />
<glyph unicode="&#xa3;" glyph-name="sterling" horiz-adv-x="506" d="M480 130V0H41V113Q145 154 145 210Q145 217 143 231H33V330H88Q70 357 61 382T51 434Q51 440 53 456Q75 599 286 599Q366 599 464 580Q464 560 461 519T454 464L311 465Q242 465 236 457Q229
447 229 431Q229 398 253 366Q267 348 277 330H417V231H296Q283 176 210 130H480Z" />
<glyph unicode="&#xa4;" glyph-name="currency" horiz-adv-x="547" d="M481 339T481 276Q481 212 449 160L516 99L445 30L384 98Q338 69 273 69Q208 69 160 97L100 30L28 99L97 161Q62 209 62 275Q62 340 95 390L28 452L100 520L161 452Q215 485 273 485Q332 485
384 452L445 520L516 452L449 391Q481 339 481 276ZM317 168T343 198T369 276Q369 328 344 356T273 385Q227 385 200 356T173 278Q173 226 199 197T273 168Q317 168 343 198Z" />
<glyph unicode="&#xa5;" glyph-name="yen" horiz-adv-x="594" d="M455 320H513V251H81V320H139L16 570H199L275 385Q280 374 290 320H305Q315 371 321 387L396 570H578L455 320ZM81 227H513V158H388V0H208V158H81V227Z" />
<glyph unicode="&#xa6;" glyph-name="brokenbar" horiz-adv-x="224" d="M60 644H164V370H60V644ZM164 -32H60V247H164V-32Z" />
<glyph unicode="&#xa7;" glyph-name="section" horiz-adv-x="458" d="M428 267T417 237T388 185Q410 157 410 109Q410 76 396 43T365 -3Q346 -16 302 -24T206 -32Q114 -32 35 -17Q35 -6 42 35T55 97Q99 91 160 85T253 79Q269 79 273 81Q278 84 278 91Q278 99 271
105Q268 108 251 113T211 124Q199 127 175 134T132 147Q80 164 55 199T29 284Q29 315 41 343T78 396Q57 428 57 477Q57 507 66 535T93 574Q115 588 162 596T259 605Q344 605 423 587Q423 568 418 535T409 490Q289 500 244 500Q221 500 218 497Q212 491 212 478Q212
461 230 451T287 430Q330 418 358 405T407 366T428 297Q428 267 417 237ZM180 274T230 259Q298 240 322 230Q330 244 330 254Q330 267 318 275T281 295Q254 306 216 318T149 339Q141 329 141 317Q141 305 149 294T174 276Q180 274 230 259Z" />
<glyph unicode="&#xa8;" glyph-name="dieresis" horiz-adv-x="0" d="M-26 651T-45 631T-97 611Q-130 611 -149 630T-168 684Q-168 719 -149 739T-97 759Q-63 759 -45 740T-26 686Q-26 651 -45 631ZM170 652T151 632T98 611Q65 611 47 630T28 684Q28 719 46 739T98
759Q131 759 150 740T170 686Q170 652 151 632Z" />
<glyph unicode="&#xa9;" glyph-name="copyright" horiz-adv-x="672" d="M426 604T498 564T611 453T652 295Q652 207 613 137T502 26T337 -14Q242 -14 170 26T59 136T20 295Q20 382 61 452T175 563T337 604Q426 604 498 564ZM271 538T217 506T132 419T100 295Q100
227 129 172T213 84T337 52Q407 52 460 83T543 170T572 295Q572 363 541 418T457 506T337 538Q271 538 217 506ZM451 153Q394 135 330 135Q256 135 219 173T182 290Q182 329 192 367T215 419Q229 435 270 445T355 456Q397 456 447 448Q446 431 443 409T437 369Q410
372 372 372Q354 373 338 372T317 368Q311 366 307 341T303 294Q303 251 321 236T385 221Q409 221 442 224L451 153Z" />
<glyph unicode="&#xab;" glyph-name="guillemotleft" horiz-adv-x="455" d="M-7 72T-7 218Q-7 288 23 356T115 487L191 411Q110 313 110 217Q110 114 198 0L124 -65Q-7 72 -7 218ZM197 86T197 218Q197 281 227 342T319 460L395 383Q313 299 313 215Q313 123 403
27L327 -38Q197 86 197 218Z" />
<glyph unicode="&#xac;" glyph-name="logicalnot" horiz-adv-x="635" d="M590 337V224V94H470V224H40V337H590Z" />
<glyph unicode="&#xae;" glyph-name="registered" horiz-adv-x="425" d="M265 604T309 578T379 508T405 412Q405 359 379 315T309 245T213 219Q160 219 116 245T46 315T20 412Q20 464 46 508T116 578T213 604Q265 604 309 578ZM253 262T287 282T341 336T362 412Q362
453 342 487T287 541T213 561Q173 561 139 541T84 487T63 412Q63 371 83 337T138 282T213 262Q253 262 287 282ZM280 405T285 385L300 327H242L231 372Q230 375 229 381T226 390T218 393H217H216H195V327H140V502Q170 505 210 505Q254 505 274 493T294 451Q294
413 257 409V408Q280 405 285 385ZM209 427Q230 427 234 431Q238 436 238 449Q238 462 231 466T209 471Q201 471 195 470V428L209 427Z" />
<glyph unicode="&#xaf;" glyph-name="overscore" horiz-adv-x="0" d="M-143 702H143V617H-143V702Z" />
<glyph unicode="&#xb0;" glyph-name="degree" horiz-adv-x="239" d="M211 452T186 427T118 403Q77 402 53 427T28 495Q28 540 54 565T123 589Q165 590 188 566T211 496Q211 452 186 427ZM159 540T120 540Q100 540 90 528T80 494Q80 473 91 462T121 451Q139 451
149 463T159 495Q159 540 120 540Z" />
<glyph unicode="&#xb1;" glyph-name="plusminus" horiz-adv-x="524" d="M482 367V254H319V160H206V254H42V367H206V460H319V367H482ZM42 127H482V14H42V127Z" />
<glyph unicode="&#xb4;" glyph-name="acute" horiz-adv-x="0" d="M-55 676T-8 713T86 782L139 704Q107 682 54 649T-38 593L-78 651Q-55 676 -8 713Z" />
<glyph unicode="&#xb6;" glyph-name="paragraph" horiz-adv-x="550" d="M174 164T127 189T49 264T18 382Q18 496 104 551T326 607Q402 607 485 590V-147H385V531H323V-147H223V164Q174 164 127 189Z" />
<glyph unicode="&#xb7;" glyph-name="middot" horiz-adv-x="291" d="M103 136T77 163T50 236Q50 276 77 303T147 331Q187 331 214 304T241 236Q241 190 215 163T144 136Q103 136 77 163Z" />
<glyph unicode="&#xb8;" glyph-name="cedilla" horiz-adv-x="0" d="M-26 7H36L15 -54Q63 -54 88 -78T114 -145Q114 -196 71 -224T-35 -252Q-63 -252 -90 -246L-83 -185Q-24 -185 -3 -179T19 -147Q19 -128 4 -121T-40 -113L-63 -114L-67 -105L-26 7Z" />
<glyph unicode="&#xbb;" glyph-name="guillemotright" horiz-adv-x="455" d="M231 0Q319 114 319 217Q319 313 238 411L314 487Q375 425 405 357T436 218Q436 72 305 -65L231 0ZM26 27Q116 123 116 215Q116 299 34 383L110 460Q171 404 201 343T232 218Q232 86
102 -38L26 27Z" />
<glyph unicode="&#xbf;" glyph-name="questiondown" horiz-adv-x="338" d="M153 663T174 642T196 583Q196 551 174 529T118 507Q86 507 65 529T43 583Q43 620 64 641T120 663Q153 663 174 642ZM186 451L185 380Q250 371 284 328T319 208Q319 159 297 114T232 41T127
13Q101 13 79 20T33 50L55 172Q103 168 128 168Q171 168 197 175T224 197Q224 212 201 219T139 227Q91 227 36 216L28 220Q39 270 43 326T48 428Q106 455 181 456L186 451Z" />
<glyph unicode="&#xc0;" glyph-name="Agrave" horiz-adv-x="595" d="M380 125H214L184 0H0L184 570H419L595 0H410L380 125ZM296 447L237 236H356L300 447H296ZM333 594Q294 617 241 650T156 705L209 783Q256 751 303 714T373 652L333 594Z" />
<glyph unicode="&#xc1;" glyph-name="Aacute" horiz-adv-x="595" d="M380 125H214L184 0H0L184 570H419L595 0H410L380 125ZM296 447L237 236H356L300 447H296ZM243 676T290 713T384 782L437 704Q405 682 352 649T260 593L220 651Q243 676 290 713Z" />
<glyph unicode="&#xc2;" glyph-name="Acircumflex" horiz-adv-x="595" d="M380 125H214L184 0H0L184 570H419L595 0H410L380 125ZM296 447L237 236H356L300 447H296ZM422 599L300 688L176 599L133 651L258 771H336L463 652L422 599Z" />
<glyph unicode="&#xc3;" glyph-name="Atilde" horiz-adv-x="595" d="M380 125H214L184 0H0L184 570H419L595 0H410L380 125ZM296 447L237 236H356L300 447H296ZM449 709T449 699Q449 663 427 637T364 611Q347 611 331 615T291 628Q254 643 234 643Q217 643 211
636T205 616H147L146 628Q146 663 167 691T231 719Q247 719 261 716T297 704Q336 689 361 689Q390 689 390 714H448Q449 709 449 699Z" />
<glyph unicode="&#xc4;" glyph-name="Adieresis" horiz-adv-x="595" d="M380 125H214L184 0H0L184 570H419L595 0H410L380 125ZM296 447L237 236H356L300 447H296ZM272 651T253 631T201 611Q168 611 149 630T130 684Q130 719 149 739T201 759Q235 759 253 740T272
686Q272 651 253 631ZM468 652T449 632T396 611Q363 611 345 630T326 684Q326 719 344 739T396 759Q429 759 448 740T468 686Q468 652 449 632Z" />
<glyph unicode="&#xc5;" glyph-name="Aring" horiz-adv-x="595" d="M380 125H214L184 0H0L184 570H419L595 0H410L380 125ZM296 447L237 236H356L300 447H296ZM393 667T366 640T298 612Q257 612 231 638T204 706Q204 747 231 773T300 800Q341 800 367 774T393
706Q393 667 366 640ZM343 729T331 741T298 753Q279 753 267 740T254 706Q254 685 266 672T300 659Q319 659 331 673T343 707Q343 729 331 741Z" />
<glyph unicode="&#xc6;" glyph-name="AE" horiz-adv-x="912" d="M647 450V346H845V238H647V122H881V0H467V125H279L200 0H0L365 570H558H882V450H647ZM467 236V425L348 236H467Z" />
<glyph unicode="&#xc7;" glyph-name="Ccedilla" horiz-adv-x="513" d="M383 -54T408 -78T434 -145Q434 -196 391 -224T285 -252Q257 -252 230 -246L237 -185Q296 -185 317 -179T339 -147Q339 -128 324 -121T280 -113L257 -114L253 -105L288 -10Q166 -2 98 69T30
278Q30 428 111 502T339 577Q409 577 485 558Q485 538 481 499T473 443H410Q341 443 302 441T254 431Q239 417 231 375T223 293Q223 225 240 189T283 140Q308 128 366 128Q412 128 486 136L497 19Q439 -6 350 -10L335 -54Q383 -54 408 -78Z" />
<glyph unicode="&#xc8;" glyph-name="Egrave" horiz-adv-x="486" d="M45 570H460V450H225V346H423V238H225V122H459V0H45V570ZM291 594Q252 617 199 650T114 705L167 783Q214 751 261 714T331 652L291 594Z" />
<glyph unicode="&#xc9;" glyph-name="Eacute" horiz-adv-x="486" d="M45 570H460V450H225V346H423V238H225V122H459V0H45V570ZM201 676T248 713T342 782L395 704Q363 682 310 649T218 593L178 651Q201 676 248 713Z" />
<glyph unicode="&#xca;" glyph-name="Ecircumflex" horiz-adv-x="486" d="M45 570H460V450H225V346H423V238H225V122H459V0H45V570ZM380 599L258 688L134 599L91 651L216 771H294L421 652L380 599Z" />
<glyph unicode="&#xcb;" glyph-name="Edieresis" horiz-adv-x="486" d="M45 570H460V450H225V346H423V238H225V122H459V0H45V570ZM230 651T211 631T159 611Q126 611 107 630T88 684Q88 719 107 739T159 759Q193 759 211 740T230 686Q230 651 211 631ZM426 652T407
632T354 611Q321 611 303 630T284 684Q284 719 302 739T354 759Q387 759 406 740T426 686Q426 652 407 632Z" />
<glyph unicode="&#xcc;" glyph-name="Igrave" horiz-adv-x="282" d="M51 570H231V0H51V570ZM176 602Q137 625 84 658T-1 713L52 791Q99 759 146 722T216 660L176 602Z" />
<glyph unicode="&#xcd;" glyph-name="Iacute" horiz-adv-x="282" d="M51 570H231V0H51V570ZM86 684T133 721T227 790L280 712Q248 690 195 657T103 601L63 659Q86 684 133 721Z" />
<glyph unicode="&#xce;" glyph-name="Icircumflex" horiz-adv-x="282" d="M51 570H231V0H51V570ZM241 733T308 672L267 619Q193 668 145 697Q70 651 21 619L-22 671Q32 722 102 779H182Q241 733 308 672Z" />
<glyph unicode="&#xcf;" glyph-name="Idieresis" horiz-adv-x="282" d="M51 570H231V0H51V570ZM115 659T96 639T44 619Q11 619 -8 638T-27 692Q-27 727 -8 747T44 767Q78 767 96 748T115 694Q115 659 96 639ZM311 660T292 640T239 619Q206 619 188 638T169 692Q169
727 187 747T239 767Q272 767 291 748T311 694Q311 660 292 640Z" />
<glyph unicode="&#xd0;" glyph-name="Eth" horiz-adv-x="629" d="M367 570T441 548T557 465T599 290Q599 168 555 105T437 21T250 0H50V570H250Q367 570 441 548ZM396 148T401 198T406 290Q406 343 399 374T372 425Q342 458 269 458Q256 458 230 456V124Q247 122
283 122Q320 122 348 125T384 136Q396 148 401 198ZM324 330V261H2V330H324Z" />
<glyph unicode="&#xd1;" glyph-name="Ntilde" horiz-adv-x="640" d="M217 230V0H50V570H219L370 340Q404 289 422 254H425V350V570H591V0H421L266 240L221 308H218L217 230ZM473 709T473 699Q473 663 451 637T388 611Q371 611 355 615T315 628Q278 643 258 643Q241
643 235 636T229 616H171L170 628Q170 663 191 691T255 719Q271 719 285 716T321 704Q360 689 385 689Q414 689 414 714H472Q473 709 473 699Z" />
<glyph unicode="&#xd2;" glyph-name="Ograve" horiz-adv-x="643" d="M179 -13T105 57T30 284Q30 437 112 507T329 577Q613 577 613 294Q613 151 544 69T328 -13Q179 -13 105 57ZM352 105T371 114T401 148Q422 189 422 282Q422 373 401 414Q380 456 324 458Q303
458 281 454T252 441Q240 427 234 382T227 282Q227 198 243 159Q254 130 274 118T324 105Q352 105 371 114ZM361 594Q322 617 269 650T184 705L237 783Q284 751 331 714T401 652L361 594Z" />
<glyph unicode="&#xd3;" glyph-name="Oacute" horiz-adv-x="643" d="M179 -13T105 57T30 284Q30 437 112 507T329 577Q613 577 613 294Q613 151 544 69T328 -13Q179 -13 105 57ZM352 105T371 114T401 148Q422 189 422 282Q422 373 401 414Q380 456 324 458Q303
458 281 454T252 441Q240 427 234 382T227 282Q227 198 243 159Q254 130 274 118T324 105Q352 105 371 114ZM271 676T318 713T412 782L465 704Q433 682 380 649T288 593L248 651Q271 676 318 713Z" />
<glyph unicode="&#xd4;" glyph-name="Ocircumflex" horiz-adv-x="643" d="M179 -13T105 57T30 284Q30 437 112 507T329 577Q613 577 613 294Q613 151 544 69T328 -13Q179 -13 105 57ZM352 105T371 114T401 148Q422 189 422 282Q422 373 401 414Q380 456 324 458Q303
458 281 454T252 441Q240 427 234 382T227 282Q227 198 243 159Q254 130 274 118T324 105Q352 105 371 114ZM450 599L328 688L204 599L161 651L286 771H364L491 652L450 599Z" />
<glyph unicode="&#xd5;" glyph-name="Otilde" horiz-adv-x="643" d="M179 -13T105 57T30 284Q30 437 112 507T329 577Q613 577 613 294Q613 151 544 69T328 -13Q179 -13 105 57ZM352 105T371 114T401 148Q422 189 422 282Q422 373 401 414Q380 456 324 458Q303
458 281 454T252 441Q240 427 234 382T227 282Q227 198 243 159Q254 130 274 118T324 105Q352 105 371 114ZM477 709T477 699Q477 663 455 637T392 611Q375 611 359 615T319 628Q282 643 262 643Q245 643 239 636T233 616H175L174 628Q174 663 195 691T259 719Q275
719 289 716T325 704Q364 689 389 689Q418 689 418 714H476Q477 709 477 699Z" />
<glyph unicode="&#xd6;" glyph-name="Odieresis" horiz-adv-x="643" d="M179 -13T105 57T30 284Q30 437 112 507T329 577Q613 577 613 294Q613 151 544 69T328 -13Q179 -13 105 57ZM352 105T371 114T401 148Q422 189 422 282Q422 373 401 414Q380 456 324 458Q303
458 281 454T252 441Q240 427 234 382T227 282Q227 198 243 159Q254 130 274 118T324 105Q352 105 371 114ZM300 651T281 631T229 611Q196 611 177 630T158 684Q158 719 177 739T229 759Q263 759 281 740T300 686Q300 651 281 631ZM496 652T477 632T424 611Q391
611 373 630T354 684Q354 719 372 739T424 759Q457 759 476 740T496 686Q496 652 477 632Z" />
<glyph unicode="&#xd7;" glyph-name="multiply" horiz-adv-x="491" d="M317 281L471 126L401 56L246 210L91 55L21 126L175 280L20 435L92 506L246 351L401 506L471 435L317 281Z" />
<glyph unicode="&#xd8;" glyph-name="Oslash" horiz-adv-x="647" d="M613 447T613 294Q613 151 544 69T328 -13Q286 -13 257 -9L217 -97L78 -36L115 48Q30 119 30 284Q30 437 112 507T329 577Q364 577 389 573L429 664L568 603L530 517Q613 447 613 294ZM422 189T422
282Q422 373 401 414Q380 456 324 458Q303 458 281 454T252 441Q240 427 234 382T227 282Q227 198 243 159Q254 130 274 118T324 105Q352 105 371 114T401 148Q422 189 422 282Z" />
<glyph unicode="&#xd9;" glyph-name="Ugrave" horiz-adv-x="628" d="M583 570V251Q583 152 562 97T481 15T309 -11Q226 -11 169 6T79 73T45 211V570H225V249Q225 196 230 169T256 127T317 112Q342 112 364 117T394 132Q403 144 403 219V570H583ZM349 594Q310 617
257 650T172 705L225 783Q272 751 319 714T389 652L349 594Z" />
<glyph unicode="&#xda;" glyph-name="Uacute" horiz-adv-x="628" d="M583 570V251Q583 152 562 97T481 15T309 -11Q226 -11 169 6T79 73T45 211V570H225V249Q225 196 230 169T256 127T317 112Q342 112 364 117T394 132Q403 144 403 219V570H583ZM259 676T306 713T400
782L453 704Q421 682 368 649T276 593L236 651Q259 676 306 713Z" />
<glyph unicode="&#xdb;" glyph-name="Ucircumflex" horiz-adv-x="628" d="M583 570V251Q583 152 562 97T481 15T309 -11Q226 -11 169 6T79 73T45 211V570H225V249Q225 196 230 169T256 127T317 112Q342 112 364 117T394 132Q403 144 403 219V570H583ZM414 725T481
664L440 611Q366 660 318 689Q243 643 194 611L151 663Q205 714 275 771H355Q414 725 481 664Z" />
<glyph unicode="&#xdc;" glyph-name="Udieresis" horiz-adv-x="628" d="M583 570V251Q583 152 562 97T481 15T309 -11Q226 -11 169 6T79 73T45 211V570H225V249Q225 196 230 169T256 127T317 112Q342 112 364 117T394 132Q403 144 403 219V570H583ZM288 651T269
631T217 611Q184 611 165 630T146 684Q146 719 165 739T217 759Q251 759 269 740T288 686Q288 651 269 631ZM484 652T465 632T412 611Q379 611 361 630T342 684Q342 719 360 739T412 759Q445 759 464 740T484 686Q484 652 465 632Z" />
<glyph unicode="&#xdd;" glyph-name="Yacute" horiz-adv-x="548" d="M365 182V0H185V180L-7 570H176L252 385Q264 357 274 326H276Q287 360 298 387L373 570H555L365 182ZM218 676T265 713T359 782L412 704Q380 682 327 649T235 593L195 651Q218 676 265 713Z" />
<glyph unicode="&#xde;" glyph-name="Thorn" horiz-adv-x="558" d="M363 470T419 455T508 398T542 276Q542 226 524 181T481 102Q459 94 412 90T311 85Q271 85 232 88V0H52V467V570H232V470H282Q363 470 419 455ZM242 202T267 202Q321 202 360 209Q367 237 367
265Q367 314 343 336T271 358Q253 358 232 355V203Q242 202 267 202Z" />
<glyph unicode="&#xdf;" glyph-name="germandbls" horiz-adv-x="584" d="M430 298T442 285T479 252Q516 223 536 196T557 126Q557 69 514 30T382 -9Q324 -9 248 10L267 123Q300 113 325 113Q349 113 362 121T376 146Q376 163 364 176T327 208Q298 230 283 248T267
291Q267 314 277 331T307 371Q326 392 335 407T345 443Q345 469 329 489T292 510Q254 510 238 468T221 320V0H50V320Q50 398 61 451T104 540Q160 607 298 607Q410 607 464 564Q504 533 504 484Q504 447 482 408Q470 389 458 372Q443 352 437 340T430 315Q430 298
442 285Z" />
<glyph unicode="&#xe0;" glyph-name="agrave" horiz-adv-x="491" d="M315 0L299 63Q253 -12 171 -12Q104 -12 62 25T19 131Q19 173 43 204T111 249Q167 265 284 267Q284 333 278 337Q273 341 246 341Q229 341 199 339Q151 337 69 328Q61 382 57 444Q110 455 168
462T272 470Q352 470 392 444T444 374T455 265L454 118L457 0H315ZM255 100T284 110V184H276Q202 184 194 176Q189 171 187 161T184 142Q184 118 195 109T229 100Q255 100 284 110ZM288 494Q249 517 196 550T111 605L164 683Q211 651 258 614T328 552L288 494Z"
/>
<glyph unicode="&#xe1;" glyph-name="aacute" horiz-adv-x="491" d="M315 0L299 63Q253 -12 171 -12Q104 -12 62 25T19 131Q19 173 43 204T111 249Q167 265 284 267Q284 333 278 337Q273 341 246 341Q229 341 199 339Q151 337 69 328Q61 382 57 444Q110 455 168
462T272 470Q352 470 392 444T444 374T455 265L454 118L457 0H315ZM255 100T284 110V184H276Q202 184 194 176Q189 171 187 161T184 142Q184 118 195 109T229 100Q255 100 284 110ZM198 576T245 613T339 682L392 604Q360 582 307 549T215 493L175 551Q198 576 245
613Z" />
<glyph unicode="&#xe2;" glyph-name="acircumflex" horiz-adv-x="491" d="M315 0L299 63Q253 -12 171 -12Q104 -12 62 25T19 131Q19 173 43 204T111 249Q167 265 284 267Q284 333 278 337Q273 341 246 341Q229 341 199 339Q151 337 69 328Q61 382 57 444Q110 455
168 462T272 470Q352 470 392 444T444 374T455 265L454 118L457 0H315ZM255 100T284 110V184H276Q202 184 194 176Q189 171 187 161T184 142Q184 118 195 109T229 100Q255 100 284 110ZM377 499L255 588L131 499L88 551L213 671H291L418 552L377 499Z" />
<glyph unicode="&#xe3;" glyph-name="atilde" horiz-adv-x="491" d="M315 0L299 63Q253 -12 171 -12Q104 -12 62 25T19 131Q19 173 43 204T111 249Q167 265 284 267Q284 333 278 337Q273 341 246 341Q229 341 199 339Q151 337 69 328Q61 382 57 444Q110 455 168
462T272 470Q352 470 392 444T444 374T455 265L454 118L457 0H315ZM255 100T284 110V184H276Q202 184 194 176Q189 171 187 161T184 142Q184 118 195 109T229 100Q255 100 284 110ZM404 609T404 599Q404 563 382 537T319 511Q302 511 286 515T246 528Q209 543 189
543Q172 543 166 536T160 516H102L101 528Q101 563 122 591T186 619Q202 619 216 616T252 604Q291 589 316 589Q345 589 345 614H403Q404 609 404 599Z" />
<glyph unicode="&#xe4;" glyph-name="adieresis" horiz-adv-x="491" d="M315 0L299 63Q253 -12 171 -12Q104 -12 62 25T19 131Q19 173 43 204T111 249Q167 265 284 267Q284 333 278 337Q273 341 246 341Q229 341 199 339Q151 337 69 328Q61 382 57 444Q110 455
168 462T272 470Q352 470 392 444T444 374T455 265L454 118L457 0H315ZM255 100T284 110V184H276Q202 184 194 176Q189 171 187 161T184 142Q184 118 195 109T229 100Q255 100 284 110ZM227 551T208 531T156 511Q123 511 104 530T85 584Q85 619 104 639T156 659Q190
659 208 640T227 586Q227 551 208 531ZM423 552T404 532T351 511Q318 511 300 530T281 584Q281 619 299 639T351 659Q384 659 403 640T423 586Q423 552 404 532Z" />
<glyph unicode="&#xe5;" glyph-name="aring" horiz-adv-x="491" d="M315 0L299 63Q253 -12 171 -12Q104 -12 62 25T19 131Q19 173 43 204T111 249Q167 265 284 267Q284 333 278 337Q273 341 246 341Q229 341 199 339Q151 337 69 328Q61 382 57 444Q110 455 168
462T272 470Q352 470 392 444T444 374T455 265L454 118L457 0H315ZM255 100T284 110V184H276Q202 184 194 176Q189 171 187 161T184 142Q184 118 195 109T229 100Q255 100 284 110ZM348 567T321 540T253 512Q212 512 186 538T159 606Q159 647 186 673T255 700Q296
700 322 674T348 606Q348 567 321 540ZM298 629T286 641T253 653Q234 653 222 640T209 606Q209 585 221 572T255 559Q274 559 286 573T298 607Q298 629 286 641Z" />
<glyph unicode="&#xe6;" glyph-name="ae" horiz-adv-x="748" d="M599 120T669 125L698 127L719 24Q638 -12 515 -12Q368 -12 311 79Q288 32 256 10T173 -13Q106 -13 64 24T21 131Q21 189 53 217T147 257Q194 265 286 267Q286 306 282 341Q205 342 71 328Q59 390
59 444Q112 455 170 462T274 470Q340 470 386 436Q412 452 447 460T519 469Q609 469 654 437T713 349T727 197Q659 193 594 193H459Q459 161 471 145T507 125T574 120Q599 120 669 125ZM571 324T558 342T515 361Q499 361 471 354Q464 337 460 312Q457 291 457 279V272H501Q551
272 571 274Q571 324 558 342ZM263 100T294 114Q283 144 278 184Q218 184 194 178Q186 161 186 142Q186 118 197 109T231 100Q263 100 294 114Z" />
<glyph unicode="&#xe7;" glyph-name="ccedilla" horiz-adv-x="444" d="M311 -54T336 -78T362 -145Q362 -196 319 -224T213 -252Q185 -252 158 -246L165 -185Q224 -185 245 -179T267 -147Q267 -128 252 -121T208 -113L185 -114L181 -105L215 -12Q119 -4 72 52T24
220Q24 279 40 336T74 414Q95 437 156 453T284 469Q353 469 423 457Q421 432 417 399T407 339Q345 343 290 343Q236 343 221 337Q213 334 207 296T200 225Q200 181 212 158T252 125T325 116Q345 116 413 120L428 14Q355 -10 277 -12L263 -54Q311 -54 336 -78Z"
/>
<glyph unicode="&#xe8;" glyph-name="egrave" horiz-adv-x="492" d="M345 120T413 125Q422 125 446 127L461 24Q384 -12 261 -12Q146 -12 85 46T23 221Q23 281 38 337T74 415Q95 437 152 453T265 469Q355 469 400 437T459 349T473 197Q405 193 340 193H198Q198
161 211 145T250 125T320 120Q345 120 413 125ZM202 347T199 324T195 272H247Q294 272 315 273Q315 321 302 341T255 361Q228 361 208 350Q202 347 199 324ZM288 494Q249 517 196 550T111 605L164 683Q211 651 258 614T328 552L288 494Z" />
<glyph unicode="&#xe9;" glyph-name="eacute" horiz-adv-x="492" d="M345 120T413 125Q422 125 446 127L461 24Q384 -12 261 -12Q146 -12 85 46T23 221Q23 281 38 337T74 415Q95 437 152 453T265 469Q355 469 400 437T459 349T473 197Q405 193 340 193H198Q198
161 211 145T250 125T320 120Q345 120 413 125ZM202 347T199 324T195 272H247Q294 272 315 273Q315 321 302 341T255 361Q228 361 208 350Q202 347 199 324ZM198 576T245 613T339 682L392 604Q360 582 307 549T215 493L175 551Q198 576 245 613Z" />
<glyph unicode="&#xea;" glyph-name="ecircumflex" horiz-adv-x="492" d="M345 120T413 125Q422 125 446 127L461 24Q384 -12 261 -12Q146 -12 85 46T23 221Q23 281 38 337T74 415Q95 437 152 453T265 469Q355 469 400 437T459 349T473 197Q405 193 340 193H198Q198
161 211 145T250 125T320 120Q345 120 413 125ZM202 347T199 324T195 272H247Q294 272 315 273Q315 321 302 341T255 361Q228 361 208 350Q202 347 199 324ZM377 499L255 588L131 499L88 551L213 671H291L418 552L377 499Z" />
<glyph unicode="&#xeb;" glyph-name="edieresis" horiz-adv-x="492" d="M345 120T413 125Q422 125 446 127L461 24Q384 -12 261 -12Q146 -12 85 46T23 221Q23 281 38 337T74 415Q95 437 152 453T265 469Q355 469 400 437T459 349T473 197Q405 193 340 193H198Q198
161 211 145T250 125T320 120Q345 120 413 125ZM202 347T199 324T195 272H247Q294 272 315 273Q315 321 302 341T255 361Q228 361 208 350Q202 347 199 324ZM227 551T208 531T156 511Q123 511 104 530T85 584Q85 619 104 639T156 659Q190 659 208 640T227 586Q227
551 208 531ZM423 552T404 532T351 511Q318 511 300 530T281 584Q281 619 299 639T351 659Q384 659 403 640T423 586Q423 552 404 532Z" />
<glyph unicode="&#xec;" glyph-name="igrave" horiz-adv-x="259" d="M44 460H215V0H44V460ZM164 484Q125 507 72 540T-13 595L40 673Q87 641 134 604T204 542L164 484Z" />
<glyph unicode="&#xed;" glyph-name="iacute" horiz-adv-x="259" d="M44 460H215V0H44V460ZM74 566T121 603T215 672L268 594Q236 572 183 539T91 483L51 541Q74 566 121 603Z" />
<glyph unicode="&#xee;" glyph-name="icircumflex" horiz-adv-x="259" d="M44 460H215V0H44V460ZM253 489L131 578L7 489L-36 541L89 661H167L294 542L253 489Z" />
<glyph unicode="&#xef;" glyph-name="idieresis" horiz-adv-x="259" d="M44 460H215V0H44V460ZM103 541T84 521T32 501Q-1 501 -20 520T-39 574Q-39 609 -20 629T32 649Q66 649 84 630T103 576Q103 541 84 521ZM299 542T280 522T227 501Q194 501 176 520T157 574Q157
609 175 629T227 649Q260 649 279 630T299 576Q299 542 280 522Z" />
<glyph unicode="&#xf0;" glyph-name="eth" horiz-adv-x="540" d="M515 439T515 269Q515 127 457 57T269 -13Q150 -13 93 41T35 188Q35 256 72 313T218 370Q245 370 279 361T344 335Q340 412 305 443T197 477L234 600H243Q292 600 336 589L369 664L488 613L446
520Q515 439 515 269ZM304 110T321 135T339 205Q339 223 336 242Q307 250 266 250Q235 250 212 246Q205 215 205 186Q205 150 219 130T265 110Q304 110 321 135Z" />
<glyph unicode="&#xf1;" glyph-name="ntilde" horiz-adv-x="542" d="M495 420T499 376T504 242V0H333V240V281Q333 313 328 321Q320 331 291 331Q277 331 270 330Q242 329 212 317V0H41V460H180L199 383Q271 470 371 470Q407 470 438 460T486 431Q495 420 499
376ZM429 609T429 599Q429 563 407 537T344 511Q327 511 311 515T271 528Q234 543 214 543Q197 543 191 536T185 516H127L126 528Q126 563 147 591T211 619Q227 619 241 616T277 604Q316 589 341 589Q370 589 370 614H428Q429 609 429 599Z" />
<glyph unicode="&#xf2;" glyph-name="ograve" horiz-adv-x="530" d="M143 -13T84 43T24 222Q24 289 36 339T67 410Q90 436 151 453T267 470Q396 470 451 415T506 239Q506 109 447 48T263 -13Q143 -13 84 43ZM305 104T317 131T329 229Q329 278 324 304T306 343T264
356Q224 356 218 349Q210 342 205 305T200 228Q200 160 213 132T266 104Q305 104 317 131ZM300 494Q261 517 208 550T123 605L176 683Q223 651 270 614T340 552L300 494Z" />
<glyph unicode="&#xf3;" glyph-name="oacute" horiz-adv-x="530" d="M143 -13T84 43T24 222Q24 289 36 339T67 410Q90 436 151 453T267 470Q396 470 451 415T506 239Q506 109 447 48T263 -13Q143 -13 84 43ZM305 104T317 131T329 229Q329 278 324 304T306 343T264
356Q224 356 218 349Q210 342 205 305T200 228Q200 160 213 132T266 104Q305 104 317 131ZM210 576T257 613T351 682L404 604Q372 582 319 549T227 493L187 551Q210 576 257 613Z" />
<glyph unicode="&#xf4;" glyph-name="ocircumflex" horiz-adv-x="530" d="M143 -13T84 43T24 222Q24 289 36 339T67 410Q90 436 151 453T267 470Q396 470 451 415T506 239Q506 109 447 48T263 -13Q143 -13 84 43ZM305 104T317 131T329 229Q329 278 324 304T306
343T264 356Q224 356 218 349Q210 342 205 305T200 228Q200 160 213 132T266 104Q305 104 317 131ZM389 499L267 588L143 499L100 551L225 671H303L430 552L389 499Z" />
<glyph unicode="&#xf5;" glyph-name="otilde" horiz-adv-x="530" d="M143 -13T84 43T24 222Q24 289 36 339T67 410Q90 436 151 453T267 470Q396 470 451 415T506 239Q506 109 447 48T263 -13Q143 -13 84 43ZM305 104T317 131T329 229Q329 278 324 304T306 343T264
356Q224 356 218 349Q210 342 205 305T200 228Q200 160 213 132T266 104Q305 104 317 131ZM416 609T416 599Q416 563 394 537T331 511Q314 511 298 515T258 528Q221 543 201 543Q184 543 178 536T172 516H114L113 528Q113 563 134 591T198 619Q214 619 228 616T264
604Q303 589 328 589Q357 589 357 614H415Q416 609 416 599Z" />
<glyph unicode="&#xf6;" glyph-name="odieresis" horiz-adv-x="530" d="M143 -13T84 43T24 222Q24 289 36 339T67 410Q90 436 151 453T267 470Q396 470 451 415T506 239Q506 109 447 48T263 -13Q143 -13 84 43ZM305 104T317 131T329 229Q329 278 324 304T306 343T264
356Q224 356 218 349Q210 342 205 305T200 228Q200 160 213 132T266 104Q305 104 317 131ZM239 551T220 531T168 511Q135 511 116 530T97 584Q97 619 116 639T168 659Q202 659 220 640T239 586Q239 551 220 531ZM435 552T416 532T363 511Q330 511 312 530T293 584Q293
619 311 639T363 659Q396 659 415 640T435 586Q435 552 416 532Z" />
<glyph unicode="&#xf7;" glyph-name="divide" horiz-adv-x="500" d="M211 318T187 342T163 408Q163 445 188 470T251 495Q288 495 312 470T337 408Q337 367 313 343T249 318Q211 318 187 342ZM25 267H475V154H25V267ZM211 -72T187 -48T163 18Q163 55 188 80T251
105Q288 105 312 80T337 18Q337 -23 313 -47T249 -72Q211 -72 187 -48Z" />
<glyph unicode="&#xf8;" glyph-name="oslash" horiz-adv-x="534" d="M480 387T493 344T506 239Q506 109 447 48T263 -13H255L217 -97L78 -36L105 26Q24 81 24 222Q24 289 36 339T67 410Q90 436 151 453T267 470Q283 470 309 468L347 554L486 493L451 415Q480 387
493 344ZM305 104T317 131T329 229Q329 278 324 304T306 343T264 356Q224 356 218 349Q210 342 205 305T200 228Q200 160 213 132T266 104Q305 104 317 131Z" />
<glyph unicode="&#xf9;" glyph-name="ugrave" horiz-adv-x="542" d="M501 460V0H362L343 77Q271 -10 171 -10Q135 -10 104 0T56 29Q47 40 43 84T38 218V460H209V220Q209 200 210 173T216 139Q223 129 256 129L272 130Q300 131 330 143V460H501ZM306 494Q267 517
214 550T129 605L182 683Q229 651 276 614T346 552L306 494Z" />
<glyph unicode="&#xfa;" glyph-name="uacute" horiz-adv-x="542" d="M501 460V0H362L343 77Q271 -10 171 -10Q135 -10 104 0T56 29Q47 40 43 84T38 218V460H209V220Q209 200 210 173T216 139Q223 129 256 129L272 130Q300 131 330 143V460H501ZM216 576T263 613T357
682L410 604Q378 582 325 549T233 493L193 551Q216 576 263 613Z" />
<glyph unicode="&#xfb;" glyph-name="ucircumflex" horiz-adv-x="542" d="M501 460V0H362L343 77Q271 -10 171 -10Q135 -10 104 0T56 29Q47 40 43 84T38 218V460H209V220Q209 200 210 173T216 139Q223 129 256 129L272 130Q300 131 330 143V460H501ZM395 499L273
588L149 499L106 551L231 671H309L436 552L395 499Z" />
<glyph unicode="&#xfc;" glyph-name="udieresis" horiz-adv-x="542" d="M501 460V0H362L343 77Q271 -10 171 -10Q135 -10 104 0T56 29Q47 40 43 84T38 218V460H209V220Q209 200 210 173T216 139Q223 129 256 129L272 130Q300 131 330 143V460H501ZM245 551T226
531T174 511Q141 511 122 530T103 584Q103 619 122 639T174 659Q208 659 226 640T245 586Q245 551 226 531ZM441 552T422 532T369 511Q336 511 318 530T299 584Q299 619 317 639T369 659Q402 659 421 640T441 586Q441 552 422 532Z" />
<glyph unicode="&#xfd;" glyph-name="yacute" horiz-adv-x="516" d="M517 460L397 75Q362 -36 334 -86T278 -157Q262 -168 228 -174T153 -180Q93 -180 57 -169Q56 -145 59 -111T67 -52Q109 -54 149 -54Q179 -54 194 -53Q209 -24 222 8L153 12L-1 460H180L260 138L261
119H264L336 460H517ZM203 576T250 613T344 682L397 604Q365 582 312 549T220 493L180 551Q203 576 250 613Z" />
<glyph unicode="&#xfe;" glyph-name="thorn" horiz-adv-x="544" d="M429 470T471 423T514 257Q514 169 497 114T458 40Q436 22 382 11T269 0Q252 0 212 2V-140L41 -147V460V600L212 607V407Q238 437 275 453T357 470Q429 470 471 423ZM328 130T333 167T338 239Q338
295 324 322T268 349Q238 349 212 343V121L240 118Q253 117 277 117Q311 117 317 122Q328 130 333 167Z" />
<glyph unicode="&#xff;" glyph-name="ydieresis" horiz-adv-x="516" d="M517 460L397 75Q362 -36 334 -86T278 -157Q262 -168 228 -174T153 -180Q93 -180 57 -169Q56 -145 59 -111T67 -52Q109 -54 149 -54Q179 -54 194 -53Q209 -24 222 8L153 12L-1 460H180L260
138L261 119H264L336 460H517ZM232 551T213 531T161 511Q128 511 109 530T90 584Q90 619 109 639T161 659Q195 659 213 640T232 586Q232 551 213 531ZM428 552T409 532T356 511Q323 511 305 530T286 584Q286 619 304 639T356 659Q389 659 408 640T428 586Q428 552
409 532Z" />
<glyph unicode="&#x2013;" glyph-name="endash" horiz-adv-x="530" d="M40 337H490V224H40V337Z" />
<glyph unicode="&#x2014;" glyph-name="emdash" horiz-adv-x="680" d="M40 337H640V224H40V337Z" />
<glyph unicode="&#x2018;" glyph-name="quoteleft" horiz-adv-x="182" d="M148 512T146 373Q139 372 124 372Q98 372 73 379T30 400Q35 450 50 511T93 606Q112 607 134 601T172 586Q148 512 146 373Z" />
<glyph unicode="&#x2019;" glyph-name="quoteright" horiz-adv-x="182" d="M34 465T36 604Q43 605 58 605Q84 605 109 598T152 577Q147 527 132 466T89 371Q70 370 48 376T10 391Q34 465 36 604Z" />
<glyph unicode="&#x201a;" glyph-name="quotesinglbase" horiz-adv-x="288" d="M199 196T231 165T264 78Q264 25 228 -32T142 -140L74 -82Q111 -30 138 18Q78 35 51 54Q48 69 48 82Q48 131 76 163T156 196Q199 196 231 165Z" />
<glyph unicode="&#x201c;" glyph-name="quotedblleft" horiz-adv-x="337" d="M148 514T146 375Q139 374 124 374Q98 374 73 381T30 402Q35 452 50 513T93 608Q112 609 134 603T172 588Q148 514 146 375ZM303 514T301 375Q294 374 279 374Q253 374 228 381T185
402Q190 452 205 513T248 608Q267 609 289 603T327 588Q303 514 301 375Z" />
<glyph unicode="&#x201d;" glyph-name="quotedblright" horiz-adv-x="337" d="M34 466T36 605Q43 606 58 606Q84 606 109 599T152 578Q147 528 132 467T89 372Q70 371 48 377T10 392Q34 466 36 605ZM189 466T191 605Q198 606 213 606Q239 606 264 599T307 578Q302
528 287 467T244 372Q225 371 203 377T165 392Q189 466 191 605Z" />
<glyph unicode="&#x201e;" glyph-name="quotedblbase" horiz-adv-x="530" d="M445 196T477 165T510 78Q510 25 474 -32T388 -140L320 -82Q357 -30 384 18Q324 35 297 54Q294 69 294 82Q294 131 322 163T402 196Q445 196 477 165ZM440 196T472 165T505 78Q505 25
469 -32T383 -140L315 -82Q352 -30 379 18Q319 35 292 54Q289 69 289 82Q289 131 317 163T397 196Q440 196 472 165Z" />
<glyph unicode="&#x2022;" glyph-name="bullet" horiz-adv-x="387" d="M143 61T106 82T46 144T24 238Q24 285 46 323T108 383T196 406Q243 406 281 384T340 323T362 238Q362 157 316 109T190 61Q143 61 106 82Z" />
<glyph unicode="&#x2039;" glyph-name="guilsinglleft" horiz-adv-x="251" d="M-7 86T-7 218Q-7 281 23 342T115 460L191 383Q109 299 109 215Q109 123 199 27L123 -38Q-7 86 -7 218Z" />
<glyph unicode="&#x203a;" glyph-name="guilsinglright" horiz-adv-x="251" d="M26 27Q116 123 116 215Q116 299 34 383L110 460Q171 404 201 343T232 218Q232 86 102 -38L26 27Z" />
</font>
</defs>
</svg>
