<?xml version="1.0" standalone="no"?>
<!DOCTYPE svg PUBLIC "-//W3C//DTD SVG 1.1//EN" "http://www.w3.org/Graphics/SVG/1.1/DTD/svg11.dtd">
<svg xmlns="http://www.w3.org/2000/svg">
<defs >
<font id="YujiHentaiganaAkebono" horiz-adv-x="799" ><font-face
    font-family="Yuji Hentaigana Akebono"
    units-per-em="1000"
    panose-1="2 11 6 0 0 0 0 0 0 0"
    ascent="1160"
    descent="-288"
    alphabetic="0" />
<glyph unicode=" " glyph-name="space" horiz-adv-x="250" />
<glyph unicode="!" glyph-name="exclam" horiz-adv-x="490" d="M240 187Q220 183 212 192T203 216T202 245Q202 246 202 246V261Q199 307 198 368T198 493T210 616T237 714T284 764L301 760Q309 702 300 643T276 524Q257 430 255 335Q255 325 256 314T259 291Q264
254 259 230T240 187ZM214 -5Q193 1 188 22T188 68T210 110T248 127Q273 114 280 90T281 41T256 2T214 -5Z" />
<glyph unicode="&quot;" glyph-name="quotedbl" horiz-adv-x="500" d="M163 569Q151 596 150 628T148 691Q149 719 148 744T137 786Q131 798 143 803T173 808T199 799Q215 783 215 766T210 730Q208 722 207 714T204 697Q202 678 198 651T186 601T163 569ZM323
569Q311 596 310 628T308 691Q309 719 308 744T297 786Q291 798 303 803T333 808T359 799Q375 783 375 766T370 730Q368 722 367 714T364 697Q362 678 358 651T346 601T323 569Z" />
<glyph unicode="#" glyph-name="numbersign" horiz-adv-x="613" d="M121 123Q104 123 100 134T98 162T106 196Q107 201 108 204Q110 214 116 238T129 285Q136 310 130 318T103 327Q101 327 97 327Q83 328 71 331T58 349Q58 369 75 372T110 374Q111 374 112 374Q123
373 132 373T148 377Q165 413 175 455T195 540Q199 560 200 570T198 586Q195 590 186 591T161 593Q127 595 116 601T108 629Q115 644 135 644T175 642H176Q179 642 184 641Q193 641 201 641T215 642Q223 656 227 675T235 715Q240 738 248 767T266 803Q290 804 297
794T301 766T290 727Q288 721 287 715T283 703Q282 699 281 696T278 688Q274 677 272 667T272 649Q275 643 295 640T341 636T390 637T423 643Q431 656 434 673T441 709Q447 756 454 771T481 797Q506 784 503 759T491 707V707Q487 692 483 678T480 650Q486 646 497
646T522 647Q553 649 561 648T582 639Q585 618 575 610T550 600T518 598Q516 598 511 598Q500 598 491 598T475 594Q466 575 458 544T443 479T431 417T424 376Q432 373 445 373T471 374Q508 376 521 373T541 357Q541 338 530 331T500 323T464 323Q463 323 462 323H461Q449
324 438 324T416 323Q406 313 402 296T392 256Q391 250 389 238T384 216T382 204Q379 188 375 170T362 139T339 127Q323 129 322 149T326 198T341 252Q342 255 342 256V257Q347 276 351 296T349 318Q324 326 287 325T214 321Q191 319 184 303T167 238Q167 235 166
229Q162 205 157 181T143 140T121 123ZM302 374Q335 376 365 374Q381 422 392 476T412 590Q379 595 337 594T262 589Q256 573 247 543T230 479T215 417T210 377Q221 372 240 372T280 373Q286 373 291 373T302 374Z" />
<glyph unicode="$" glyph-name="dollar" horiz-adv-x="700" d="M330 -70Q322 -74 314 -65T302 -36Q229 -28 175 1T93 77T71 181Q73 201 84 224T114 268T158 296T215 291Q221 266 210 256T170 235Q158 231 152 227T141 214Q126 190 132 152T160 85Q184 57 221 41T303
21Q312 99 317 190T330 377Q277 390 229 405T146 445T99 510Q80 577 111 626T201 703Q234 719 272 728T350 739Q349 752 355 762T376 776Q387 779 396 770T409 737Q443 733 474 723T530 694Q548 682 563 664T589 627T599 596Q598 582 588 569T567 544Q559 536 554
530T542 513Q524 488 513 485T484 488Q474 508 479 523T507 560Q518 570 525 578T532 600Q532 620 514 636T468 663T410 680Q407 638 401 569T388 420Q432 408 480 392T569 351T637 294Q663 261 667 217T643 113Q625 74 585 42T493 -11T385 -37Q364 -39 344 -38Q342
-51 339 -59T330 -70ZM351 19Q403 20 453 35T540 78T593 145Q613 196 596 241T531 315Q501 332 463 343T383 365Q377 300 371 236T360 115T351 19ZM334 434Q336 466 339 498T345 562L355 685Q318 684 280 675T211 647T163 600T154 532Q159 505 188 487T257 456T334
434Z" />
<glyph unicode="%" glyph-name="percent" horiz-adv-x="920" d="M231 -58Q214 -37 222 -12T240 33Q242 36 243 39T246 45Q304 164 376 289T518 528Q537 559 556 589T593 650Q564 651 535 648T475 638H473Q451 634 428 631T382 625Q378 571 366 526T324 443Q306
421 277 398T213 361T141 348Q86 351 65 390T47 478Q50 517 66 554T109 617T169 643Q180 622 177 609T144 570Q135 562 127 554T112 534Q102 515 98 486T100 433T133 403Q153 398 175 404T218 423T252 446Q284 473 306 518T320 616Q297 612 271 619T227 641T211
670T245 696Q268 704 287 700T324 690Q327 688 328 688Q343 681 354 680Q374 677 413 680T498 690T582 707T640 725Q649 728 656 734T670 746V746Q685 760 702 768T747 756Q750 725 737 712T686 683Q583 532 484 365T300 25Q286 -10 276 -27T257 -50T231 -58ZM671
78Q634 80 603 102T560 155Q546 193 554 232T583 305T632 364T681 402Q697 410 710 413T749 419Q791 424 825 409T875 363Q897 322 895 281T873 202T820 136T749 92T671 78ZM704 133Q731 135 757 152T803 195T832 252T837 311Q833 342 806 357T741 364Q701 357
666 327T619 258Q603 203 627 167T704 133Z" />
<glyph unicode="&amp;" glyph-name="ampersand" horiz-adv-x="789" d="M369 -30Q268 -30 202 9T108 111T95 247Q106 300 137 335T201 395Q219 408 218 418T199 445Q172 472 161 510T153 588T176 663Q197 701 234 730T315 766Q365 774 403 763T466 730T504 678T517
621Q517 592 503 566T464 523T408 506Q374 506 350 525T321 576Q318 604 328 616T357 630Q362 630 367 624T372 610Q370 586 384 572T418 557Q430 557 441 564T457 586Q471 626 454 657T400 705T321 714Q285 708 257 685T214 627T203 554Q207 520 231 491T292 450Q312
444 331 431T354 403Q357 389 346 384T317 381Q291 386 262 373T209 338T173 297Q155 266 153 226T166 146T216 78T306 38Q373 26 428 39T519 83T567 151T560 228T482 298Q457 312 443 311T407 297Q388 286 383 264T383 224T406 205Q430 205 440 215T453 236Q455
244 465 246T483 242T489 215Q488 204 478 188T449 159T403 146Q366 146 341 168T315 231Q315 255 326 281T362 330Q413 375 472 392T610 398Q634 395 657 400T691 422Q702 439 709 454T731 469Q747 469 754 454T751 417Q732 376 700 359T610 353Q579 360 556 362T513
359Q496 355 497 350T512 337Q583 302 613 255T640 158T600 66T506 -3T369 -30Z" />
<glyph unicode="&apos;" glyph-name="quotesingle" horiz-adv-x="372" d="M178 543Q162 561 160 596T159 667Q159 683 159 698T158 726Q157 732 156 737T154 748Q151 765 151 780T166 807Q177 815 193 814T216 805Q225 794 222 781T214 755Q213 750 212 746T209
738Q206 722 205 705T204 671Q203 637 200 604T178 543Z" />
<glyph unicode="(" glyph-name="parenleft" horiz-adv-x="586" d="M385 -89Q357 -92 334 -71T292 -18T261 42Q230 109 217 185T207 339T227 490T274 623Q294 662 321 694T377 749Q385 751 391 747T397 734Q378 688 350 650T299 563Q272 502 261 430T253 285T275
143T324 22Q335 4 348 -12T373 -45T385 -89Z" />
<glyph unicode=")" glyph-name="parenright" horiz-adv-x="581" d="M123 -93Q127 -60 147 -35T184 18Q215 71 233 139T255 280T248 426T209 559Q187 607 159 645T111 730Q111 738 117 743T131 745Q165 718 194 678T246 590Q275 530 290 459T306 313T292 168T246
38Q234 10 216 -21T174 -74T123 -93Z" />
<glyph unicode="*" glyph-name="asterisk" horiz-adv-x="500" d="M270 523Q254 509 238 515T216 534Q213 547 217 561T227 591Q231 604 234 615T237 637Q220 634 204 616T170 586Q158 578 145 575T115 582Q113 602 120 613T141 632Q161 641 186 646T228 664Q212
674 190 679T148 690T115 711Q114 732 124 742T150 750Q163 748 177 735T205 706T232 682Q234 690 232 701T228 726Q226 737 224 748T222 769Q222 792 231 804T270 805Q278 785 275 765T266 725Q263 714 261 704T257 682Q272 687 288 703T320 732Q334 743 349 746T380
733Q386 726 385 715T373 698Q345 688 320 680T266 661Q289 651 318 642T371 626Q378 619 381 610T381 592Q374 581 367 577T352 573Q336 573 323 588T293 618Q281 629 270 637T252 649Q254 637 256 626T261 604Q266 584 269 565T270 523Z" />
<glyph unicode="+" glyph-name="plus" horiz-adv-x="687" d="M347 60Q329 66 319 83T309 116Q311 170 311 218T312 315Q300 315 287 314T259 312Q222 310 181 309T103 314Q92 316 90 327T90 350T100 360Q125 359 164 359T245 361T313 363Q318 417 318 465T309
546Q304 569 317 574T346 567T368 519Q370 507 369 484T367 435Q366 416 366 398T365 363Q376 363 390 364T422 366Q457 369 495 371T560 367Q567 366 577 360T593 344T591 318Q542 321 494 319T400 314Q391 314 383 314T365 312Q361 233 362 138Q362 135 362 132T362
125Q363 108 362 89T347 60Z" />
<glyph unicode="," glyph-name="comma" horiz-adv-x="416" d="M165 -88Q168 -70 180 -61T204 -42Q214 -33 220 -22T225 10Q220 17 205 19T179 31Q160 60 169 80T197 109Q220 118 246 111T280 74Q282 61 282 41T278 5Q271 -21 254 -45T214 -82T165 -88Z" />
<glyph unicode="-" glyph-name="hyphen" horiz-adv-x="496" d="M156 298Q125 299 111 303T89 313T77 328T60 346Q72 347 93 347T141 347Q178 346 223 346T314 348T401 354Q408 355 418 350T434 335T432 309Q349 298 279 298T168 298Q160 298 156 298Z" />
<glyph unicode="." glyph-name="period" horiz-adv-x="422" d="M208 1Q196 11 188 21T175 44Q170 61 176 79Q184 105 206 110T250 107Q266 100 277 87T288 54Q288 48 287 44Q282 22 261 11T208 1Z" />
<glyph unicode="/" glyph-name="slash" horiz-adv-x="647" d="M129 -34Q116 -34 116 -11T131 46Q164 118 206 201T296 371T390 542L460 676Q460 699 470 715T503 727Q518 725 520 703T498 632Q483 603 458 557T402 456T338 341T275 223T219 116T180 30Q169 5 155
-14T129 -34Z" />
<glyph unicode="0" glyph-name="zero" horiz-adv-x="690" d="M173 30Q128 70 102 126T69 246T70 377T103 505Q127 566 165 616T253 697T364 733Q365 733 366 733Q390 735 420 733T474 706V701Q461 676 442 674T402 675Q401 675 400 675Q391 677 382 678T364 678Q295
671 243 621T159 498Q133 435 125 364T129 224T180 103Q201 74 238 53T322 30T419 55Q454 75 484 113T535 203T565 311T568 424T535 530Q525 549 505 574T453 605Q434 609 418 606T387 598Q386 598 384 597Q367 593 350 592T316 602Q322 640 360 653T451 659Q474
656 499 643T534 622Q579 584 601 525T624 396T610 258T564 131T493 38Q448 -1 389 -15T273 -18T173 30Z" />
<glyph unicode="1" glyph-name="one" horiz-adv-x="600" d="M327 -41Q302 -45 292 -29T281 11T280 58Q280 59 280 59V82Q276 207 287 328T319 547Q303 541 289 531T260 509Q246 496 231 486Q224 481 214 473Q213 472 212 471Q193 457 170 445T123 449L121 453Q121
478 138 492T173 516Q178 519 183 521T192 527Q251 567 307 620T412 722Q413 723 416 726Q422 732 430 736T454 731L457 728Q462 706 453 689T431 655L430 654Q425 647 420 641T411 627Q382 569 366 491T343 324T334 142T331 -36L327 -41Z" />
<glyph unicode="2" glyph-name="two" horiz-adv-x="700" d="M638 -17Q611 -27 583 -18T529 3Q519 8 509 12T487 20H486Q453 31 410 43T319 59T225 52Q209 48 195 40T165 22Q141 6 115 -6T54 -5L51 1Q57 32 71 48T104 73T145 87Q156 90 167 94T189 103Q231 123
272 158T351 239T420 332T472 427Q472 428 473 430Q486 459 501 501T512 583Q508 623 484 645T423 675T346 677T268 655T206 612T176 554Q169 517 186 492T237 462Q245 461 253 463T268 468Q279 472 291 473T316 465L318 462Q323 441 314 430T289 413T255 407T228
407Q183 411 158 437T126 501T127 577T162 644Q188 672 228 692T316 723T410 731T493 708T551 649T567 547Q562 477 531 415T464 299Q441 263 414 232T358 170Q346 157 334 145T311 118Q380 107 449 90T576 46Q579 45 582 44T589 41Q590 41 591 40Q608 34 626 23T641
-13L638 -17Z" />
<glyph unicode="3" glyph-name="three" horiz-adv-x="700" d="M348 -25Q305 -29 259 -22T175 6T114 61T98 144Q102 177 125 203T180 243T243 250L247 244Q243 217 228 205T196 184Q180 176 168 167T153 134Q149 97 183 67T271 30Q317 24 363 32T448 61T512 113T543
185Q550 245 521 287T443 353T336 379Q325 380 313 379T286 376Q285 376 284 376Q258 373 231 372T182 379T151 410L152 415Q176 442 209 442T276 438Q279 438 282 438T289 437Q301 435 311 434T332 434Q369 436 406 451T470 493T502 552T478 622Q456 652 411 667T316
677Q289 674 264 663T222 635T202 603Q200 593 202 587T206 573Q207 572 207 572Q211 564 212 555T205 532L202 530Q178 523 161 540T143 588Q142 626 163 654T221 701T299 728T381 732Q433 726 470 700T529 637T550 557T530 476T461 409Q505 389 537 353T585 271T598
180Q593 128 559 84T470 11T348 -25Z" />
<glyph unicode="4" glyph-name="four" horiz-adv-x="700" d="M458 -49Q436 -52 428 -41T419 -12T419 23V24Q420 30 420 35T420 46V160Q369 169 314 163T204 148Q201 147 199 147Q156 140 116 135T41 131L36 136Q38 183 62 226T111 310Q158 390 209 462T328 601Q352
625 380 651T442 697T511 720L515 718Q537 681 532 637T517 546Q516 544 516 543Q512 528 509 513T503 482Q493 418 488 355T483 229Q499 222 522 220T571 218Q572 218 575 218Q604 217 631 214T675 199T691 160L687 155Q668 151 644 153T594 160Q591 160 586 161Q559
165 533 167T485 165Q474 149 474 124T475 71Q475 66 475 64Q475 62 475 58Q477 28 476 -1T461 -47L458 -49ZM119 195Q163 202 208 206T299 215Q359 219 420 227Q422 246 424 265T429 304Q433 339 436 374T444 443L453 500Q460 538 464 573T466 641Q224 458 119
195Z" />
<glyph unicode="5" glyph-name="five" horiz-adv-x="700" d="M312 -45Q277 -45 241 -33T181 7T156 79Q156 115 174 144T219 187T277 194L281 189Q280 168 269 156T246 135Q232 125 222 114T211 79Q212 45 232 30T282 13T346 19T408 39T452 62Q486 87 508 122T536
194Q545 259 528 305T478 377T401 411T313 407T230 364Q223 358 217 352T203 337Q190 321 174 307T130 286L125 288Q104 322 108 366T120 454Q122 465 124 475T128 496Q130 506 131 516T134 537Q140 581 148 622T174 694L179 696Q193 695 209 692T243 686H245Q288
679 337 672T433 665T517 676T573 717Q578 728 592 728T617 719L619 714Q614 673 587 650T518 619T428 610T333 616T248 628Q238 629 230 630T213 633Q193 584 185 523T171 397Q186 405 199 412T224 427Q257 447 290 461T378 475Q435 474 477 450T547 386T586 294T591
188Q585 137 560 95T495 21T408 -27T312 -45Z" />
<glyph unicode="6" glyph-name="six" horiz-adv-x="700" d="M285 -43Q240 -37 205 -10T144 58T103 145T85 235Q76 358 114 457T231 622T424 713Q432 715 447 712T472 702T480 685T447 662Q432 657 419 653T392 646Q379 643 366 640T341 630Q310 615 293 603T263
579T237 550Q215 525 193 483T155 387T140 276Q140 244 148 202T175 118T223 48T295 11Q345 3 388 15T464 49T510 87Q532 111 547 153T568 242T566 334T532 408T460 442Q413 447 375 429T313 375T287 292Q287 282 289 271T295 249Q295 248 295 247Q301 227 302
208T288 181H286Q265 180 254 195T238 230T232 262Q227 308 241 351T285 428T359 481T457 497Q535 492 580 435T630 280Q632 228 619 180T584 94T534 31Q491 -9 431 -32T285 -43Z" />
<glyph unicode="7" glyph-name="seven" horiz-adv-x="700" d="M330 -49Q315 -52 308 -41T298 -12T295 24T296 54Q296 57 296 58Q298 153 314 238T357 379Q389 447 436 496T536 592Q565 616 593 643Q508 659 433 646T295 599T185 516T109 411Q108 408 107 405T105
398Q101 385 93 371T64 359L60 361Q44 383 49 418T63 488V490Q65 499 67 507T71 524Q73 532 75 540T78 557Q85 593 92 627T108 691Q107 702 113 705T133 708H142L147 705Q157 683 154 659T144 611Q140 596 137 581T134 551Q148 556 159 565T180 584Q185 588 190
592T200 601Q318 693 468 704Q566 710 623 702T685 667Q692 632 585 563Q579 559 575 557T569 552Q466 467 413 358T351 103Q351 99 351 92T352 73Q354 12 350 -17T330 -49Z" />
<glyph unicode="8" glyph-name="eight" horiz-adv-x="700" d="M624 127Q616 78 583 43T500 -13T395 -40T285 -39T185 -8T114 55T88 148Q89 200 111 234T166 292T235 337Q248 345 260 352T284 368Q271 378 256 386T223 402Q192 417 163 435T116 482T104 561Q109
606 140 640T216 696T313 721T410 712T489 661Q493 657 501 643T512 611T508 581T469 563L464 565Q456 574 454 583T452 599Q452 610 448 619Q435 641 398 655T317 669Q275 669 237 649T177 598T159 533Q165 488 242 450Q258 442 280 433T325 416T366 410Q388 411
415 426T469 466T512 520T533 577Q534 584 533 591T531 607Q530 609 530 610Q526 627 526 645T543 678L547 679Q571 675 579 657T588 616T588 577Q588 574 588 572Q584 526 563 493T513 435T456 389L498 359H499Q526 340 551 320T596 274T624 212T624 127ZM143
144Q143 102 168 73T233 29T321 11T415 18T499 52T556 110T569 192Q565 217 546 245T497 297T435 334T370 343H367Q365 344 365 344T364 343Q256 300 199 250T143 144Z" />
<glyph unicode="9" glyph-name="nine" horiz-adv-x="700" d="M451 -62L446 -61Q427 -50 426 -27T427 20Q428 28 428 31Q430 46 433 61T439 92Q444 113 447 130T447 158Q431 160 421 157T402 150Q395 147 388 145T372 140Q293 130 237 155T145 228T96 338T89 461Q95
508 116 551T168 631T237 690T315 718Q385 726 442 698T522 617Q535 586 534 552T519 487T485 438T436 418L431 422Q426 445 433 461T450 491Q450 492 451 493Q462 509 470 527T473 577Q467 611 441 633T376 662T297 655Q249 639 216 601T164 514T145 411T161 312T215
234T309 195Q360 189 394 201T449 239T482 299T505 371Q509 385 512 400T520 428Q527 449 533 475T552 526T588 562L594 561Q610 545 611 522T606 474T590 424Q586 409 581 397Q574 374 567 353T552 310Q534 258 518 205T493 83Q492 75 492 64T491 41Q491 21 489
0T478 -38T451 -62Z" />
<glyph unicode=":" glyph-name="colon" horiz-adv-x="380" d="M196 118Q177 117 159 128T135 155Q129 182 141 199T171 223Q194 230 212 222T238 197Q245 184 245 169T235 138Q223 118 196 118ZM194 409Q177 409 161 418T140 446Q139 448 139 451Q135 476 147
493T189 515Q211 517 227 507T246 474Q248 466 248 459T245 446Q241 427 226 418T194 409Z" />
<glyph unicode=";" glyph-name="semicolon" horiz-adv-x="424" d="M155 30Q158 49 170 58T195 78Q205 87 211 98T216 130Q211 138 196 140T169 152Q150 181 159 202T188 231Q211 241 237 233T273 196Q275 183 275 163T270 126Q263 99 246 75T205 37T155 30ZM194
408Q182 418 174 428T161 452Q156 469 162 486Q170 512 192 517T235 514Q252 507 263 494T273 462V452Q268 430 247 419T194 408Z" />
<glyph unicode="&lt;" glyph-name="less" horiz-adv-x="620" d="M475 61Q399 88 329 126T207 206T135 287Q142 309 159 327T199 362T240 391Q266 410 303 432T381 475T461 513T533 540Q545 523 534 509T503 484Q501 483 493 479Q477 469 446 452T379 412T310 366T257
323T237 289Q239 268 265 244T332 194T417 146T502 103Q524 93 535 88T550 72Q547 60 533 57T503 55T475 61Z" />
<glyph unicode="=" glyph-name="equal" horiz-adv-x="640" d="M542 359Q497 364 444 365T335 365T231 362Q215 362 201 362T172 361Q155 361 135 366T99 380T83 395T103 405Q129 409 171 411T264 414T364 416T459 414T531 410Q550 408 559 396T566 371T542 359ZM542
179Q497 184 444 185T335 185T231 182Q215 182 201 182T172 181Q155 181 135 186T99 200T83 215T103 225Q129 229 171 231T264 234T364 236T459 234T531 230Q551 228 551 218T546 196Q545 191 544 187T542 179Z" />
<glyph unicode="&gt;" glyph-name="greater" horiz-adv-x="642" d="M187 58Q176 54 160 53T129 54T112 69Q117 80 127 85T160 100Q200 120 245 143T330 191T396 240T425 286Q426 299 406 319T353 363T284 408T216 448T169 476Q161 480 159 481Q140 492 129 506T129
537Q161 528 200 511T281 472T359 429T422 388Q441 375 463 359T503 325T527 284Q508 245 456 203T334 123T187 58Z" />
<glyph unicode="?" glyph-name="question" horiz-adv-x="622" d="M308 124Q287 122 278 130T266 152T266 179T270 202Q271 206 271 207Q278 248 295 277T335 328T381 370Q405 390 426 410T463 457Q487 500 485 537T461 603T405 650T332 672T256 665T190 623Q171
602 160 573T148 513T159 460T199 429T270 435Q280 438 288 443T305 455Q331 475 344 477T370 472Q378 444 361 423T312 390T243 376T173 380T121 406Q86 441 81 482T92 565T139 642T207 701T279 729Q353 739 412 717T506 648T542 537Q543 486 526 451T482 390T427
341Q399 319 375 296T338 241Q334 231 333 219T329 194Q327 160 323 145T308 124ZM276 -38Q272 -36 268 -34T264 -28Q248 -4 250 19T266 59T299 78T337 63Q348 51 350 33T344 -4T319 -32T276 -38Z" />
<glyph unicode="@" glyph-name="at" horiz-adv-x="920" d="M465 -50Q348 -51 265 -10T127 115Q93 168 84 231T82 356T110 466Q139 535 188 587T301 671T437 712Q542 724 627 694T765 601T830 446Q841 360 818 296T733 169Q693 142 643 125T534 123Q516 128 503
174Q492 161 469 143T413 117T342 120Q283 140 262 245Q255 279 261 324T284 412T323 482Q355 523 389 541T455 561T507 554T533 531Q543 506 539 497T524 489T504 500Q487 501 463 498T414 484T371 450Q340 412 325 368T310 282T325 210T372 169Q414 156 456 191T522
298Q530 320 535 339T544 377Q546 388 550 409T559 444Q564 461 566 477T578 507Q587 521 605 524T645 517Q651 504 650 495T636 465Q629 455 624 444Q598 366 582 304T562 206T566 168Q607 161 645 174T715 217T764 288T784 377Q784 440 759 493T688 586T582 645T454
661Q409 659 362 639T272 584T198 507T151 417Q125 335 137 254T196 115Q241 60 309 32T464 3Q515 3 578 16T706 63T828 152H834Q850 138 839 122T816 92Q812 89 811 87Q777 50 731 24T637 -19T543 -42T465 -50Z" />
<glyph unicode="A" glyph-name="A" horiz-adv-x="880" d="M133 -33Q117 -29 113 -11T109 29T114 68Q115 76 115 79Q125 167 149 236T201 373Q191 375 182 376T161 379Q141 381 121 384T86 398T66 428Q60 456 71 470T97 485Q110 485 121 474T130 437Q134 436 141
435Q165 431 191 428T239 434Q250 439 267 460T302 501Q313 515 319 521T331 534Q405 608 492 655T684 745Q692 748 706 745T727 731Q727 702 723 671T712 607Q705 566 700 521T698 435Q706 430 719 429T759 430Q782 432 804 431T830 409Q833 391 822 385T791 378T753
378Q752 378 751 378Q734 380 719 380T693 377Q675 263 702 108Q704 98 706 88T712 66Q724 21 724 2T717 -29Q694 -36 682 -26T664 4T654 41Q654 42 654 43Q653 48 653 53T651 62Q638 122 632 203T630 368Q598 372 552 374T455 378T357 377Q338 376 319 376T283
375Q255 341 231 288T191 172T171 49Q170 44 170 38T170 25Q170 10 169 -5T160 -28T133 -33ZM331 437Q374 431 427 430T535 430T631 438Q634 476 641 516Q647 556 651 595T655 670Q546 631 466 572T331 437Z" />
<glyph unicode="B" glyph-name="B" horiz-adv-x="795" d="M146 -12Q142 -11 138 -11T131 -10Q106 -7 95 -2T86 23Q87 44 116 44T196 41Q200 40 204 40T213 39Q279 34 346 37T473 53T579 92T651 160Q660 174 667 196T675 244T667 292Q658 317 634 339T579 375T521
388Q508 387 495 383T467 372Q449 365 429 359T384 355Q350 359 335 377T329 424Q340 433 354 432T381 420Q386 416 390 414T403 410Q437 407 467 421T519 462T550 520T550 582T509 636Q485 653 447 663T366 678T286 681Q251 679 216 667T158 636T133 592T159 541Q161
545 163 559Q163 559 163 560Q165 570 169 579T192 588Q212 587 217 565T220 490Q220 483 220 476T219 463V183Q219 176 219 169T220 154Q222 101 217 80T192 59Q170 59 165 103T163 239Q163 247 163 252T164 261Q164 331 164 368T163 426T160 469Q156 471 153
474T141 481Q122 495 104 511T76 551T73 612Q82 656 121 684T219 726T339 737Q394 734 446 719T539 676T600 605T611 507Q608 491 598 470T579 436L581 435Q623 412 660 386T719 322T734 224Q731 191 712 156T666 92T616 46Q581 24 527 9T409 -13T277 -21T146 -12Z"
/>
<glyph unicode="C" glyph-name="C" horiz-adv-x="804" d="M370 -26Q287 -20 222 21T117 133T72 292Q65 381 85 457T147 592T252 686T391 729Q486 739 557 708T654 615Q670 575 664 535T634 464T577 416T502 406Q475 411 450 436T421 489Q419 505 422 528T438 568T478
582Q489 574 490 561T487 520Q483 499 484 483T509 461Q534 455 557 470T593 512T603 571Q599 605 570 630T495 667T396 675Q312 667 250 615T156 481T131 296Q135 243 154 193T210 104T300 45T424 29Q508 36 576 77T687 191Q691 199 694 207T699 224Q705 243 714
261T747 292Q766 278 771 264T769 228T739 170Q709 115 657 68T533 -5T370 -26Z" />
<glyph unicode="D" glyph-name="D" horiz-adv-x="905" d="M204 9Q164 23 152 32T144 67Q159 81 174 81T211 66Q222 59 232 55Q296 37 367 37T507 54T633 105T729 187T774 296Q785 383 763 448T695 558T587 629T454 666Q402 673 344 671T234 653T150 598Q126 570
125 542T141 493T189 461T262 458Q269 469 268 506Q267 524 270 540T296 557Q318 557 321 541T323 507Q323 506 323 505Q322 494 322 482T326 461Q339 455 357 457T396 465Q397 465 397 465Q415 470 432 472T462 471T478 451Q482 434 467 425T428 413T381 408Q366
407 353 406T330 401Q323 377 323 344T323 274V274Q323 248 323 223T325 192Q327 149 326 128T316 96T292 75Q273 89 268 114T266 194Q267 203 267 230T268 276Q269 309 269 340T265 397Q226 402 186 410T116 435T71 482T68 561Q85 627 149 671T303 724Q416 735
516 713T691 636T805 498T833 299Q826 224 783 165T673 65T526 4T362 -17T204 9Z" />
<glyph unicode="E" glyph-name="E" horiz-adv-x="751" d="M383 -25Q308 -22 241 3T129 78T78 199Q69 316 186 399Q179 404 172 410T154 424Q126 445 102 469T74 537Q69 589 100 632T188 703T317 734Q372 736 430 724T538 688T616 634Q628 622 639 601T653 558T647
519T608 496L603 497Q590 507 588 515T590 538Q594 556 592 565Q587 590 559 611T491 647T409 670T334 679Q300 679 265 670T199 643T150 603T131 552T155 495Q186 460 245 442T366 420Q372 419 379 419T392 421Q397 422 400 422Q418 424 437 424T472 411Q467 375
440 367T345 369Q342 369 339 369T332 371Q322 372 313 373T297 373Q252 372 217 352T160 299T137 223Q135 156 170 113T263 50T386 28Q437 28 486 39T577 71T643 124Q644 126 647 131T655 150Q669 182 679 194T701 208Q727 209 730 189T715 131Q708 116 695 99T669
68Q620 19 542 -4T383 -25Z" />
<glyph unicode="F" glyph-name="F" horiz-adv-x="854" d="M273 -31Q229 -27 192 -4T148 51Q142 84 149 110T176 148T223 152Q228 139 226 129T216 105Q206 88 207 73Q209 54 228 40T275 24Q323 20 358 39T418 94T458 174T481 264T491 353Q471 362 448 361T400
357H398Q372 354 345 353T291 362Q271 371 259 389T245 425T250 456T279 466Q296 465 299 456T304 439Q305 424 310 416Q336 413 365 413T426 413Q464 415 501 413Q530 474 561 536T639 643Q623 644 603 645T559 647Q498 651 426 654T285 657T166 651Q152 649 133
643T99 627T86 603Q88 587 99 585T127 583Q153 583 165 579T184 561Q181 542 168 534T137 524T103 526T77 532Q45 545 35 574T36 635T80 684Q111 702 165 707T284 713T413 709Q445 708 488 707T578 706T667 705T738 707Q764 708 790 708T836 702T856 680Q858 658
843 655T810 653Q807 653 802 653Q794 653 786 653T768 651Q732 645 702 621T647 563T604 491T574 417Q579 413 591 412T631 414V414Q650 416 670 416T703 409T715 384Q714 367 701 361T668 355T628 358Q625 358 619 359Q601 360 586 360T561 356Q558 342 555 328T548
297Q538 252 526 204T495 113T447 35T376 -17T273 -31Z" />
<glyph unicode="G" glyph-name="G" horiz-adv-x="765" d="M359 -110Q334 -108 309 -98T275 -79Q247 -55 238 -24T240 32T285 65Q296 55 297 43T297 17V16Q296 8 296 1T299 -14Q308 -43 340 -54T413 -56Q449 -47 471 -22T506 39T525 116T536 198Q539 215 541 231T546
263Q535 259 525 246T510 229Q485 203 447 181T364 147T274 142T188 178Q128 222 103 285T84 427Q89 495 121 553T206 654T325 718T464 734T611 689Q723 632 710 571L699 565Q671 566 656 579T627 607Q621 615 615 622T600 634Q568 655 528 665T443 676Q357 677
289 640T182 538T142 390Q142 296 193 244T332 195Q375 197 413 219T483 273T536 341T566 407Q569 418 570 428T571 447Q571 455 571 459Q571 501 579 519T614 531Q631 527 632 509T631 474Q630 466 630 463Q626 417 619 362T604 253Q603 244 602 234T599 214Q592
169 584 121T561 29T521 -48T456 -99T359 -110Z" />
<glyph unicode="H" glyph-name="H" horiz-adv-x="914" d="M93 -32Q87 -9 97 6T121 35Q122 36 122 37Q136 51 143 62Q182 127 203 209T235 388Q222 396 205 397T167 398Q142 398 117 401T77 423Q63 441 64 458T76 488T98 503T121 495T131 454Q154 448 182 448T235
451Q243 546 224 609T163 682Q154 685 137 682Q105 677 85 690Q76 713 88 724T121 737T162 738T191 733Q226 722 247 692T279 622T295 538T303 455Q347 449 400 448T507 447T613 451Q620 451 626 451T640 452Q654 543 671 604T719 702T803 754Q829 744 829 731T816
705T789 680L788 679Q742 642 727 586T702 460Q710 450 726 448T777 448Q803 450 826 449T853 427Q856 409 844 403T812 396T770 396Q767 396 765 396Q747 398 731 398T706 395Q700 327 709 254T729 109Q730 99 731 89T735 68Q736 64 736 61T737 52Q745 9 741 -10T717
-32Q702 -33 693 -19T678 32T664 132Q662 150 658 184T650 259T642 334T639 390Q594 396 541 397T433 398T328 394Q321 394 315 394T302 393Q289 331 275 266T240 140T187 28Q168 -3 155 -19T128 -37T93 -32Z" />
<glyph unicode="I" glyph-name="I" horiz-adv-x="563" d="M318 10Q280 -18 241 -19T166 -2T104 47T63 110Q45 151 44 177T56 221Q82 220 92 209T112 160Q115 143 120 130Q131 105 152 82T198 46T250 39T297 78Q263 108 238 160T197 277T179 413T184 550T217 672T280
762Q313 791 341 791T391 770T430 718T455 649T467 578Q473 499 466 413T440 247T390 104T318 10ZM328 130Q359 181 379 252T407 406T409 574Q408 590 403 618T388 675T366 720T334 725Q298 704 276 660T244 559T235 439T248 316T279 208T328 130Z" />
<glyph unicode="J" glyph-name="J" horiz-adv-x="736" d="M284 30Q346 37 381 68T433 148T454 259T462 388Q464 456 469 518T493 637Q473 645 439 645T365 644H363Q341 643 318 643T273 643Q129 650 189 749L194 751Q217 756 223 744T230 721Q233 705 236 702Q287
698 362 698T514 698Q571 698 604 698T641 699Q642 699 644 699Q662 700 681 700T715 694T732 677Q735 659 721 653T684 646T638 646Q634 646 632 646Q631 646 629 646Q608 648 591 648T564 645Q536 588 529 519T519 372Q517 306 512 243T489 128T432 37Q395 1
345 -14T241 -27T142 -1T66 59T33 152Q28 231 83 301Q121 351 148 364T206 365Q210 341 196 328T167 304Q166 304 166 304Q156 297 152 294T143 287Q89 227 92 156Q95 89 146 55T284 30Z" />
<glyph unicode="K" glyph-name="K" horiz-adv-x="844" d="M588 0Q552 20 537 54T519 131T515 217Q515 255 514 289T503 352T473 396Q452 413 430 415T385 401Q375 393 362 387T328 387Q308 403 309 422T326 456T367 474Q422 530 485 583T624 676T786 735Q827 716
813 700T736 666Q714 659 709 656Q664 637 617 607T527 543T452 473Q462 463 471 458T490 447Q502 440 515 432T540 407Q566 370 570 320T574 219Q574 174 576 135T595 70T649 38Q678 34 713 43T780 66Q818 83 833 81T864 64Q860 36 837 26T792 8Q730 -11 680 -16T588
0ZM55 -18Q46 -1 51 14T79 55Q87 63 90 68T96 77Q129 130 154 202T192 358T197 530Q192 592 173 634T124 685Q117 687 111 687T96 684Q95 684 94 684Q71 680 62 683T42 693Q36 716 47 727T78 740T121 738T163 726T192 710Q226 678 241 626T258 509T252 380T229
256T198 157Q188 130 176 101T149 46Q118 -2 99 -13T55 -18Z" />
<glyph unicode="L" glyph-name="L" d="M437 -15Q394 -13 343 -13T246 -12Q244 -12 230 -12Q212 -11 181 -11T115 -11T50 -12Q31 -13 11 -10T-10 13Q-10 24 4 30T38 39T78 44Q105 47 117 49T137 54Q175 74 196 121T229 233T250 366Q259 435 271 501T306 622T369
707Q397 729 435 733T512 724T575 682T604 605Q607 550 585 510T529 440T458 389Q414 362 394 357T353 367Q351 387 368 401T405 423Q415 426 420 428T430 433Q453 448 480 472T527 529T545 601Q544 639 524 657T475 677T419 666T375 626Q347 580 334 508T309 358Q300
292 289 228T256 113Q249 95 237 80T222 47H223Q278 43 344 39T476 35T600 39Q696 45 707 114Q712 140 717 151T735 165Q758 169 764 155T768 120T758 78T746 51Q720 14 674 0T567 -16T437 -15Z" />
<glyph unicode="M" glyph-name="M" horiz-adv-x="1163" d="M15 -113L8 -110Q1 -89 8 -79T29 -56Q32 -53 35 -50T43 -43Q99 10 129 84T172 249T187 444T188 662Q188 674 188 685T188 708Q191 720 205 725H207Q250 723 285 698T348 634T397 556T434 482Q454 440
470 398T502 314Q516 278 529 244T556 177Q562 198 567 221T578 269Q593 331 610 396T651 520T709 626T792 696Q810 706 842 711T909 713T966 692L969 688Q968 660 965 628T958 559Q958 556 957 551Q949 464 943 363T945 166Q948 138 951 110T963 62T989 36Q1016
26 1036 35T1077 58Q1094 69 1112 78T1155 85L1161 82Q1168 63 1156 46T1121 15T1075 -8T1036 -19Q985 -26 954 -8T906 48T885 135T879 237T882 339V341Q884 388 888 434T896 523Q900 561 902 593T906 652Q862 664 826 649T756 591Q717 541 691 470T649 319T618
156Q617 149 616 141T614 124Q607 59 599 32T575 1Q555 -3 538 32T499 147Q496 157 494 164T490 176Q460 262 428 350T353 515T251 645Q251 561 248 470T235 289T204 122T144 -13Q142 -16 138 -22Q124 -43 107 -64T68 -100T15 -113Z" />
<glyph unicode="N" glyph-name="N" horiz-adv-x="845" d="M81 -119Q30 -137 -5 -136T-42 -110Q-43 -97 -29 -90T7 -78T44 -72Q45 -72 45 -72Q56 -70 59 -70T64 -68Q87 -60 105 -45T134 -13Q155 22 162 76T167 196T161 330V331Q157 394 155 455T158 569T179 663Q216
756 278 728Q286 713 283 704T258 674L257 673Q247 665 240 656T233 633Q234 612 257 587T305 538Q314 529 323 521T337 505Q356 484 372 465T403 426Q414 413 424 400T443 375Q466 347 487 322T527 270Q558 233 586 197T643 129Q638 398 683 574T822 825Q844 844
867 821L869 817Q868 798 857 784T833 757Q824 748 820 743T811 732Q768 672 742 573T707 344T710 66Q711 61 711 55T713 43Q718 6 716 -13T700 -47L694 -49Q669 -44 658 -24T628 26Q546 166 441 294T226 538Q211 484 212 417T219 279Q219 277 219 274Q223 210
224 148T215 33T174 -56Q171 -60 157 -72T122 -98T81 -119Z" />
<glyph unicode="O" glyph-name="O" horiz-adv-x="852" d="M383 -32Q313 -27 257 4T159 87T93 201T63 332T73 468T128 593Q136 605 152 625T190 665T235 699T283 716T327 703Q330 704 334 707Q357 720 379 729T428 742T498 741Q589 732 655 675T756 527T782 324Q776
243 743 176T656 60T532 -13T383 -32ZM376 23Q453 15 514 37T620 104T691 205T723 324Q732 421 705 499T623 628T492 687Q431 694 383 670T310 601T296 501Q303 467 328 442T378 402Q383 400 388 398T404 393Q422 389 440 380T463 346L460 341Q443 327 421 328T379
339T343 357Q320 371 298 394T263 436Q238 478 238 532T264 644Q204 615 170 560T125 437T126 300T170 170T255 70T376 23Z" />
<glyph unicode="P" glyph-name="P" horiz-adv-x="846" d="M316 -52Q295 -50 290 -17T288 91Q289 104 289 145T290 251Q291 360 291 470T282 673Q250 666 215 650T151 610T105 557T91 493Q93 479 98 471T115 454Q159 422 145 402Q127 390 108 393T73 411T45 442T32
474Q25 517 40 552T81 615T133 663Q188 707 272 728T444 744Q510 741 572 724T684 674T764 594T796 483Q798 431 778 384T722 300T638 242T536 221Q424 221 403 291L406 296Q425 310 442 305T474 291H475Q484 286 493 282T513 276Q569 270 616 292T695 354T735
445T722 547Q688 625 595 660T352 687Q348 602 348 510T347 322Q347 308 347 295T347 267Q348 194 348 149T349 89Q353 13 346 -20T316 -52Z" />
<glyph unicode="Q" glyph-name="Q" horiz-adv-x="861" d="M202 -60Q154 -56 130 -33T105 19T129 71T202 97Q243 100 277 90T341 69Q343 68 344 68Q345 68 348 67Q369 59 388 53T424 48Q446 49 472 63T523 99T569 141T601 177Q640 227 659 287T677 409T657 528T600
628T507 695T380 711Q303 704 248 664T163 566T129 443Q126 392 140 341T184 248T261 184T370 170Q397 175 425 193T469 238Q471 241 473 244T477 251Q490 276 501 286T536 286Q550 262 538 231T494 170Q463 140 418 126T321 116Q249 121 193 162T103 270T70 418Q70
513 107 588T212 710T370 766Q459 775 527 749T642 672T713 552T737 410Q738 315 707 244T625 119T516 24Q557 6 618 -2T737 -5Q747 -4 756 -2T775 3Q795 8 814 10T849 -2L851 -6Q850 -29 832 -40T791 -54T747 -60Q688 -65 632 -58T528 -40Q518 -38 508 -35T488
-28Q486 -27 481 -26Q465 -21 452 -18T428 -15Q412 -16 393 -21T351 -34Q349 -35 345 -36Q313 -46 277 -55T202 -60ZM163 15Q174 3 194 -2T239 -6T285 1T320 18Q304 26 281 33T233 42T190 39T163 15Z" />
<glyph unicode="R" glyph-name="R" horiz-adv-x="813" d="M779 -72Q658 -40 567 20T396 154Q376 173 354 192T314 235T292 287Q299 301 314 305T362 311Q370 312 377 312T392 314Q427 320 468 334T548 371T614 425T651 496T640 584Q624 622 582 648T483 688T366
701T253 684T166 635Q140 610 124 572T106 496Q105 469 112 453T128 420V420Q145 388 150 373T145 348Q112 345 89 368T56 433T52 530Q59 592 96 640T193 719T331 754Q393 759 458 749T581 713T673 645T710 541Q712 471 685 423T611 342T506 288T387 252Q437 193
496 141T629 48T795 -17Q817 -22 842 -29T869 -50Q873 -68 864 -75T840 -83T810 -80T784 -73Q780 -72 779 -72ZM246 -23Q225 -23 220 4T218 93Q219 103 219 132T219 197T219 268Q219 288 219 308T218 349V350Q217 417 218 475T227 571Q231 576 234 578T244 583Q268
580 273 554T275 466Q275 457 275 448T274 431Q274 374 274 316T274 210T274 129T275 92Q277 30 272 4T246 -23Z" />
<glyph unicode="S" glyph-name="S" horiz-adv-x="729" d="M385 -37Q291 -44 218 -17T104 61T71 181Q73 201 84 224T114 268T158 296T215 291Q221 266 210 256T170 235Q158 231 152 227T141 214Q126 190 132 152T160 85Q189 51 236 35T339 19T446 33T538 76T593
145Q613 196 596 241T531 315Q496 335 450 348T353 372Q297 385 244 400T151 441T99 510Q80 577 111 626T201 703Q252 728 313 736T432 734T530 694Q548 682 563 664T589 627T599 596Q598 582 588 569T567 544Q559 536 554 530T542 513Q524 488 513 485T484 488Q474
508 479 523T507 560Q518 570 525 578T532 600Q532 626 504 645T436 674T359 685Q322 685 283 676T212 649T164 601T154 532Q158 509 181 492T236 463T303 442T365 426Q411 414 463 397T562 355T637 294Q663 261 667 217T643 113Q625 74 585 42T493 -11T385 -37Z"
/>
<glyph unicode="T" glyph-name="T" horiz-adv-x="911" d="M311 -45Q264 -41 229 -19T174 39T155 115T180 196Q181 197 183 200Q188 208 200 223T228 245T260 237Q270 227 265 213T238 169Q228 156 221 146T213 126Q209 88 227 60T280 19T360 10Q403 15 443 40T506
102Q540 154 547 226T556 380Q558 446 562 514T585 645Q563 645 538 647T483 650H480Q429 653 374 655T269 655T180 641T120 605T103 540Q107 511 128 489T184 456T259 447Q273 448 286 452T313 462Q346 474 360 474T385 466Q386 444 374 430T343 408T305 397T273
392Q229 389 185 401T107 436T58 489Q33 539 41 578T79 645T151 689T238 708Q318 714 415 715T614 714T811 709Q823 709 835 709T859 708Q862 708 865 708T871 708Q892 708 911 705T931 682Q933 665 916 659T875 652T831 652Q828 653 813 653T782 654T756 655Q731
657 710 657T673 653Q650 647 639 621T624 562T617 499Q616 470 615 442T613 384Q611 294 603 214T555 71Q536 41 502 13T419 -33T311 -45Z" />
<glyph unicode="U" glyph-name="U" horiz-adv-x="853" d="M702 6Q674 28 660 70T635 155Q622 146 613 134T595 108Q586 94 581 87T568 72Q522 25 464 3T346 -16T236 15T155 97T123 230Q123 275 129 321T144 412Q154 466 160 517T160 613Q154 655 130 671Q122 676
98 673Q86 672 73 672T55 685Q48 693 51 706T67 721Q103 735 136 728T193 695T223 631Q230 586 223 532T206 421V419Q206 417 205 411Q195 354 189 297T189 191T222 103Q250 63 292 49T380 40T469 70T542 127Q560 149 578 178T610 241T629 305Q631 318 631 333T630
365V366Q629 377 629 388T629 410Q630 431 632 453T635 497Q637 522 639 547T642 597Q642 598 642 604Q641 616 641 637T644 680T656 715T684 725Q704 720 706 676T701 532Q700 503 698 478T694 430Q692 403 691 380T689 336Q689 288 691 239T699 148T719 77T754
39Q759 37 764 37T780 35Q794 35 810 32T827 10Q828 -10 812 -15T772 -18T729 -7T702 6Z" />
<glyph unicode="V" glyph-name="V" horiz-adv-x="956" d="M534 -33Q515 -33 499 -10T461 69Q457 77 455 84T450 96Q427 149 410 196T379 296T355 411Q353 425 352 438T348 465Q343 512 335 551T311 620T262 664Q231 679 198 678T138 661T93 622T76 567T99 505Q105
497 112 491T135 475Q164 459 171 449T181 423Q174 402 151 404T93 429Q48 460 31 501T21 586T55 664T127 719T229 732Q283 726 316 701T367 636T394 549T410 448Q415 414 420 378T435 307Q455 230 481 166T535 56Q569 97 607 152T684 268T756 383Q762 392 767
399T776 414Q795 443 806 462T820 499T821 542Q817 569 803 593T774 634Q767 641 760 646T737 661Q704 681 696 692T683 721Q694 729 716 729T768 715T827 668Q874 620 881 563T866 451Q859 433 846 412T818 370Q811 359 804 348T789 324Q747 257 711 201T630 79Q601
35 583 11T555 -23T534 -33Z" />
<glyph unicode="W" glyph-name="W" horiz-adv-x="1295" d="M882 -38Q760 -3 714 144T697 537Q659 521 630 489T575 425Q502 334 444 238T330 23Q326 12 320 -2T302 -24T271 -30L266 -27Q257 -10 259 7T278 55Q287 72 290 83Q302 117 314 168T334 278T345 397T340
510T310 602T249 656Q211 671 175 665T113 638T77 586T79 520Q87 498 104 482T141 455Q165 441 173 431T177 410Q170 390 154 390T117 401T77 430T43 463T25 487Q6 531 11 571T40 643T97 695T169 719Q238 726 283 703T355 633T393 527T403 400T394 268Q407 274
413 289T433 325Q477 397 536 469T668 595Q697 617 711 625T737 634T765 628Q766 599 763 567T756 500Q755 495 755 493Q755 492 755 489Q749 445 745 397T744 297Q750 203 778 138T852 45Q869 93 882 147T909 260Q927 337 948 414T997 561T1064 688T1159 781T1291
825Q1323 828 1358 825T1426 810T1477 781T1495 734L1489 729Q1466 727 1450 733T1419 749Q1388 767 1364 770T1301 770Q1234 763 1186 729T1102 640T1041 517T998 374T962 225Q946 152 930 85T890 -35L882 -38Z" />
<glyph unicode="X" glyph-name="X" horiz-adv-x="957" d="M162 3Q141 0 116 1T66 8T26 31T7 77Q26 97 80 76Q83 75 86 74T93 70Q106 64 122 59T160 58Q193 63 218 82T264 130T305 189Q322 215 335 232T362 266T396 306Q419 333 437 356T460 397Q464 414 459 449T443
524T420 597T398 646Q379 675 351 684T292 687T236 661T194 614Q190 607 187 598T181 581Q177 565 169 552T141 542Q122 546 120 561T124 597T144 638T166 672T178 689Q206 717 247 733T326 748Q374 745 404 725T453 672T481 601T501 521Q504 507 507 494T513 466Q530
476 548 494T581 531T605 558Q634 589 673 628T760 703T860 765T968 796Q1029 804 1037 776Q1032 759 1019 753T988 744T953 738Q907 728 861 702T770 639T685 563T611 487Q599 473 580 453T546 412T527 378Q523 357 528 327T544 266T564 210Q615 70 705 58Q750
52 779 69T835 111Q853 128 872 142T904 155Q923 137 919 121T900 90T869 65Q862 59 859 57Q822 29 787 17T720 6Q671 8 629 35T554 105T500 201T473 307Q444 285 420 252T371 181Q345 142 316 104T250 38T162 3Z" />
<glyph unicode="Y" glyph-name="Y" horiz-adv-x="857" d="M486 -171Q379 -171 336 -80Q331 -70 331 -50T334 -10T351 23T382 31Q400 27 400 12T398 -20Q396 -31 395 -42T395 -63Q403 -99 431 -112T494 -122T560 -97T604 -44Q619 -13 626 28T638 114Q641 140 644
165T653 215Q634 207 613 186T576 155Q536 130 489 119T397 111T315 138T258 201T243 304Q245 333 252 363T269 424Q274 440 278 456T286 489Q287 494 288 498T291 508Q298 536 304 566T310 624T297 671Q278 700 245 702T178 693Q154 684 133 663T98 613T79 555T81
499Q89 473 105 461T145 437Q156 431 169 424T196 408Q183 381 157 378T101 389T48 434Q21 469 19 513T32 601T78 682Q109 719 149 741T234 763T323 727Q361 697 367 653T361 556T334 451L333 449Q323 415 314 382T301 319Q292 237 329 196T444 164Q527 173 589
229T679 375Q695 423 702 472T717 573Q722 614 728 655T744 740Q748 757 765 762T786 757Q801 723 796 683T782 601V600Q779 585 776 570T771 538Q764 493 757 450T742 365Q733 311 724 256T705 137Q696 82 686 28T655 -72T594 -144T486 -171Z" />
<glyph unicode="Z" glyph-name="Z" horiz-adv-x="981" d="M670 -1Q653 0 636 0T601 1H112Q108 1 104 1T94 0Q58 -3 45 2T23 24Q30 43 46 50T85 58T127 58Q128 58 129 58Q144 57 157 57T179 60Q203 67 227 89T274 138T314 188Q354 240 392 296T467 410Q508 475
550 537T638 654Q616 656 593 657T546 659Q463 664 378 666T223 662Q187 658 169 643T150 609T166 576T219 558Q224 557 230 557T245 559Q247 559 248 559Q262 561 278 561T305 556T318 536Q319 521 303 514T262 504T215 503T179 507Q132 518 107 551T88 627Q94
662 122 681T193 708T285 717T383 717H385Q412 716 437 716T487 717Q528 719 587 719T706 718Q735 717 762 717T813 717Q818 717 822 717T831 717Q862 718 883 715T906 691Q907 674 888 667T840 659T787 659H785Q769 660 758 660T742 658Q719 652 698 633T658 590T626
546Q620 538 617 534T611 525Q576 479 543 428T476 327Q431 257 386 190T288 60Q339 62 393 60T503 55Q581 51 656 50T796 56Q823 59 845 78T878 122T881 171T840 205Q834 207 820 207T787 204Q782 204 780 204Q757 202 732 201T689 203T668 217Q664 234 680 244T724
260T780 266T831 264Q881 257 906 230T936 167T925 96T880 34T806 1Q777 -4 746 -4T682 -2Q679 -1 676 -1T670 -1Z" />
<glyph unicode="[" glyph-name="bracketleft" horiz-adv-x="663" d="M377 -44Q346 -41 330 -37T308 -17T304 32Q306 62 306 122T306 258T304 413Q303 467 303 518T302 615Q302 669 309 689T348 713Q378 718 418 717T488 713Q505 711 516 707T525 693Q512 675 484
673T429 669Q383 666 371 642T357 567Q357 556 357 521T357 437T359 334T361 227T363 134T365 72Q367 42 372 31T397 12Q416 6 438 2T477 -8T499 -27Q494 -36 474 -40T428 -45T377 -44Z" />
<glyph unicode="\" glyph-name="backslash" horiz-adv-x="647" d="M544 -39Q532 -37 520 -21T500 21Q472 62 435 117T356 236T273 364T196 484T132 583T92 645Q84 656 78 670T78 704L80 706Q98 719 116 708L117 706Q134 678 152 650T190 593Q201 576 213 559T236
524Q265 479 294 434T354 343Q397 278 439 213T525 80Q527 77 530 73T536 64Q546 50 556 34T571 2T572 -25T546 -39H544Z" />
<glyph unicode="]" glyph-name="bracketright" horiz-adv-x="679" d="M307 -42Q276 -46 245 -46T191 -41T164 -27Q169 -10 197 -3T251 8Q275 11 286 24T298 67Q299 90 300 132T302 227T303 335T304 440T305 523T306 569Q306 609 296 634T258 666Q248 668 237 669T214
670Q191 671 170 674T138 693Q140 703 155 709T193 716Q222 717 255 717T314 713Q345 709 353 690T361 623Q361 564 361 499T359 371Q359 296 359 230T358 114T358 42Q359 12 357 -5T344 -31T307 -42Z" />
<glyph unicode="^" glyph-name="asciicircum" horiz-adv-x="511" d="M112 645Q123 662 139 688T171 741T200 790Q202 795 205 802T213 818Q220 836 229 847T251 859Q269 859 279 845T295 816Q298 810 300 805T305 795Q328 761 354 724T406 659Q400 641 386 641T366
645Q361 649 347 664T314 699T281 740T257 774Q241 750 221 724T184 677T160 650Q151 641 137 640T112 645Z" />
<glyph unicode="_" glyph-name="underscore" horiz-adv-x="550" d="M38 -101Q38 -83 48 -71T84 -58Q111 -58 142 -58T208 -57Q263 -56 322 -56T439 -57Q469 -57 495 -66T522 -95Q499 -100 477 -100T430 -99Q423 -98 419 -98Q316 -93 215 -94T38 -101Z" />
<glyph unicode="`" glyph-name="grave" horiz-adv-x="390" d="M234 657Q217 670 201 682T167 706Q151 717 136 729T120 755Q120 765 132 777T157 788Q179 787 191 773T216 738Q225 723 234 708T251 676Q259 661 255 654T234 657Z" />
<glyph unicode="a" glyph-name="a" horiz-adv-x="717" d="M95 -24Q80 -20 76 -3T73 34T77 68Q78 72 78 73Q86 146 105 203T147 314Q140 316 133 316T118 318Q93 321 69 328T37 362Q33 384 41 399T65 414Q79 414 86 403T94 375Q98 374 106 373Q125 369 145 367T182
372Q193 377 215 406T265 468Q303 511 379 560T554 644Q562 647 573 644T593 629Q593 604 589 578T580 525Q579 521 579 516T577 507Q572 475 568 438T566 372Q571 368 581 368T614 369Q646 371 659 367T675 348Q678 331 668 325T642 318T609 318H608H606Q593 319
581 319T561 317Q554 271 556 216T569 98Q571 90 573 81T577 64Q588 27 589 9T581 -19L580 -20Q560 -26 550 -17T534 9T525 41Q525 42 525 43Q524 47 524 51T523 59Q512 108 507 174T505 309Q479 312 441 314T362 318T281 317Q265 316 249 316T219 315Q197 286
178 243T145 149T128 49Q127 43 127 29Q127 17 126 3T118 -19T95 -24ZM265 374Q300 370 343 369T429 368T506 375Q508 392 510 410T517 451Q522 483 526 514T529 573Q446 543 379 490T265 374Z" />
<glyph unicode="b" glyph-name="b" horiz-adv-x="662" d="M122 8Q119 8 116 8T109 10Q89 12 79 16T71 41Q72 61 97 62T166 59Q169 59 172 59T178 58Q315 48 410 73T540 157Q551 174 557 205T553 263Q546 283 526 301T481 330T434 340Q424 339 413 336T390 327Q374
320 357 315T320 312Q290 316 278 333T272 375L273 377Q292 393 319 373Q322 371 325 369T336 366Q371 363 400 381T446 430T459 492T423 547Q397 565 345 575T239 583Q210 581 183 572T136 548T115 515T133 475Q134 477 134 479T135 486Q136 495 140 505T161 514Q178
513 183 493T186 429Q186 420 185 416V174Q185 168 185 162T186 150Q188 104 183 86T161 67Q141 67 136 105T135 220V238Q135 295 135 325T135 374T132 408L117 418V418Q101 429 86 443T62 478T60 531Q67 565 97 590T176 628T283 638Q329 636 372 623T450 586T501
526T510 442Q508 429 501 413T486 386Q521 367 552 345T600 291T613 208Q610 180 594 150T556 95T514 57Q484 38 439 26T341 7T231 1T122 8Z" />
<glyph unicode="c" glyph-name="c" horiz-adv-x="653" d="M308 -14Q239 -9 184 26T96 120T58 254Q51 354 82 434T176 563T326 621Q405 629 465 603T547 523Q561 489 556 455T531 395T482 354T418 345Q394 349 373 371T348 417Q346 431 348 451T362 486T398 499L400
498Q410 491 411 479T409 442Q405 425 406 414T425 398Q445 394 463 405T491 439T499 485Q495 512 471 532T411 562T330 568Q261 561 210 519T133 410T113 258Q117 200 144 148T224 65T353 40Q421 45 477 79T569 172Q575 186 578 199Q583 216 592 232T620 258L623
257Q648 238 646 217T618 151Q592 105 549 66T445 4T308 -14Z" />
<glyph unicode="d" glyph-name="d" horiz-adv-x="761" d="M176 13Q142 24 131 32T124 66L125 68Q139 80 152 80T184 68Q188 65 192 63T201 59Q254 44 312 44T427 58T531 100T610 166T647 256Q656 327 638 380T583 470T494 529T384 559Q297 569 232 555T134 503Q109
473 115 445T150 402T223 394Q228 402 227 430Q226 445 229 460T253 476Q273 476 276 461T278 431Q278 430 278 429Q278 421 278 412T280 395Q290 391 303 393T333 399Q335 400 336 400Q337 400 337 400Q359 406 380 407T407 385Q411 368 398 360T365 349T325 344H324Q312
343 302 343T283 340Q279 322 279 300T278 252Q278 248 278 245T278 237Q278 215 278 195T280 169Q282 134 281 116T273 88T252 69H248Q232 80 228 102T225 171Q226 179 226 201T227 239Q228 265 228 290T224 335Q192 339 159 346T100 368T63 409T61 476Q75 533
129 570T259 615Q353 624 436 605T583 541T678 424T702 258Q696 195 660 145T568 61T445 9T308 -8T176 13Z" />
<glyph unicode="e" glyph-name="e" horiz-adv-x="665" d="M326 -21Q264 -18 207 3T113 66T70 169Q62 266 157 335Q156 336 155 337T153 339Q149 342 145 345T134 353Q111 370 91 391T67 450Q63 494 88 531T162 591T271 617Q318 619 366 609T456 579T522 533Q532
523 541 505T553 467T548 432T513 412H508Q496 421 494 429T495 451Q498 466 497 472Q493 492 470 508T415 537T348 556T286 563Q252 563 216 552T154 520T121 474T139 418Q161 393 207 377T312 356Q319 356 326 356T340 358Q382 365 402 348L403 344Q399 313 376
306T295 306Q294 306 293 306Q282 308 273 309T255 309Q200 308 164 274T125 189Q123 135 151 100T227 49T329 31Q394 30 452 51T540 110Q541 111 543 115T549 130Q562 158 571 169T590 180Q613 181 617 163T605 111Q588 79 566 57Q527 18 464 -2T326 -21Z" />
<glyph unicode="f" glyph-name="f" horiz-adv-x="728" d="M244 -28Q206 -25 175 -5T137 43Q128 87 148 114T203 132L205 129Q212 108 200 87Q191 73 192 62Q194 48 209 38T246 26Q294 22 326 46T378 112T409 201T426 292Q410 298 391 298T353 295Q350 294 348
294Q326 292 303 292T258 298Q240 306 230 322T217 356T223 384T249 393Q266 392 269 383T273 366Q273 356 276 351Q293 349 312 349T351 349Q356 349 361 349T371 349H438Q461 397 486 447T546 534Q540 534 527 534T500 536T481 537Q431 540 371 542T254 545T155
540Q128 536 110 525T92 502Q94 482 123 484Q126 484 131 484Q149 484 158 482T173 469V466Q169 444 151 438T112 433T80 439Q52 451 43 477T44 530T83 573Q108 588 152 593T249 597T355 594H360Q387 593 423 593T497 592T571 591T630 593Q631 593 633 593Q654
594 676 593T714 587T731 566Q732 546 720 544T694 542Q691 542 690 542H683Q676 542 670 542T656 540Q617 533 586 502T533 430T498 350Q504 346 541 349Q557 351 574 351T603 344T614 321Q613 305 601 299T572 293T539 295V295Q538 295 535 295Q519 297 507 297T485
294Q482 283 480 272T475 247Q464 200 451 150T413 58T349 -8T244 -28Z" />
<glyph unicode="g" glyph-name="g" horiz-adv-x="612" d="M289 -85Q270 -83 249 -76T218 -59Q193 -37 186 -10T188 39T227 68L230 67Q239 58 240 47T241 24Q241 23 241 22Q240 15 240 10T242 -1Q249 -23 274 -31T333 -33Q372 -23 391 9T419 85T433 175Q434 181
434 186T436 198Q437 204 438 210T440 221Q436 219 432 215T425 206Q423 203 421 201T417 197Q396 175 364 157T294 129T218 124T145 155Q47 227 58 364Q64 437 105 496T211 589Q273 621 348 623T499 586Q596 536 583 481L571 475Q547 476 534 487T510 511Q504
519 499 524T487 533Q434 567 359 567Q289 568 233 538T145 454T112 334Q112 258 153 215T267 176Q302 178 333 195T390 240T433 296T458 349Q462 365 462 380V391Q462 430 471 445T502 455Q519 450 519 433T518 401Q517 396 517 394Q515 368 512 339T504 279Q502
264 500 249T496 219Q495 211 494 204T492 187Q485 140 475 90T445 -3T388 -68T289 -85Z" />
<glyph unicode="h" glyph-name="h" horiz-adv-x="793" d="M609 -31Q589 -32 581 -2T562 108Q560 123 557 150T551 210T545 272T542 320Q489 327 423 326T297 323Q289 323 282 323T267 322Q251 246 232 165T173 21Q154 -8 142 -21T119 -35T88 -28Q84 -7 93 8T114
34Q126 46 130 53Q162 106 179 173T206 319Q196 324 182 325T153 326Q133 326 112 329T76 348Q60 370 67 391T88 419Q101 426 113 418T126 380Q161 372 206 378Q212 455 197 504T149 562Q142 565 128 562Q107 559 99 562T82 572Q74 593 84 603T112 616T149 617T174
612Q203 603 220 578T248 520T262 450T269 381Q321 374 386 375T512 378Q520 378 527 378T543 379Q555 454 569 505T610 586T680 630Q708 620 707 604T670 560Q633 530 621 485T600 383Q605 376 618 375T659 376Q660 376 661 376Q682 378 701 376T725 355Q728 338
717 332T687 325T650 325H649Q648 325 647 325Q633 326 622 326T603 325Q598 269 605 210T621 93Q623 84 624 75T627 57Q635 25 634 -1T609 -31Z" />
<glyph unicode="i" glyph-name="i" horiz-adv-x="459" d="M260 -8Q228 -32 195 -33T131 -18T78 23T44 76Q29 111 27 134T39 172L41 174Q64 173 73 163T90 121Q92 114 93 108T97 97Q106 76 122 57T159 28T201 20T239 48Q211 74 190 118T157 217T141 331T145 446T173
548T225 622Q253 647 277 647T320 630T353 586T375 527T385 467Q390 401 384 329T362 190T321 70T260 -8ZM268 98Q293 140 308 198T330 325T332 463Q331 476 327 499T315 545T297 581T274 586Q239 565 220 519T196 412T197 291T223 179T268 98Z" />
<glyph unicode="j" glyph-name="j" horiz-adv-x="606" d="M376 10Q345 -21 303 -34T215 -44T131 -22T67 29T40 108Q35 175 82 234Q114 276 136 288T187 289Q191 270 186 258T157 231Q143 222 138 217Q94 168 97 111Q99 57 140 30T251 11Q297 16 324 41T366 107T386
197T394 304Q396 360 401 411T420 508Q404 514 377 514T319 512H317H292Q287 512 283 512T274 512Q265 512 257 512T242 512Q117 518 170 608L175 609Q206 615 209 581Q210 576 211 573T213 568Q256 565 317 565T442 565Q480 565 505 565T540 566H547Q588 568 605
564T626 545Q629 527 616 521T582 514T541 514H540Q498 517 485 514Q463 467 457 411T449 291Q447 236 443 184T424 87T376 10Z" />
<glyph unicode="k" glyph-name="k" horiz-adv-x="724" d="M494 -12Q464 5 451 34T435 100T432 172Q432 219 428 258T398 318Q363 347 329 322Q311 309 300 308T278 310Q261 324 261 341T274 372T311 389Q406 484 489 536T661 606Q699 588 685 572T619 541Q613
539 609 537Q600 534 597 533Q542 509 485 468T387 384Q402 378 421 366T457 332Q480 301 484 258T487 174Q487 137 489 105T503 53T546 27Q567 24 595 30T654 51Q683 64 697 64T726 48Q724 23 711 14T666 -6Q614 -22 572 -26T494 -12ZM52 -27L50 -25Q43 -11 47
3T71 40Q82 53 84 58Q112 102 132 161T163 289T168 432Q165 466 157 495T131 542T85 556Q66 552 58 555T41 564H40Q35 585 47 597T82 611T127 607T169 584Q197 557 210 513T224 416T219 307T200 204T175 121Q159 81 151 62T134 28Q108 -11 92 -22T52 -27Z" />
<glyph unicode="l" glyph-name="l" horiz-adv-x="666" d="M376 -17Q340 -15 298 -15T217 -14H204Q189 -13 163 -13T108 -13T55 -14Q39 -15 21 -12T2 10Q2 24 20 30T78 40Q101 43 110 44T126 49Q156 65 173 103T200 194T218 304Q226 361 235 417T264 519T317 590Q341
608 374 611T439 604T493 568T517 502Q520 456 501 421T453 362T395 320Q355 295 339 292T304 301L303 304Q300 336 348 355Q353 357 357 358T365 361Q414 391 439 426T462 499Q461 529 445 543T406 559T361 549T327 517Q304 479 293 420T273 296Q266 241 256 188T229
91Q223 80 215 68Q211 61 207 55T201 43Q247 40 301 37T409 33T511 36Q588 40 597 95Q604 137 622 141Q643 145 649 133T654 101T645 64T634 40Q612 8 573 -4T484 -18T376 -17Z" />
<glyph unicode="m" glyph-name="m" horiz-adv-x="922" d="M-7 -125L-14 -122Q-21 -101 -15 -92T2 -72Q3 -71 3 -71Q6 -68 9 -66T15 -60Q61 -17 86 44T121 181T133 344T134 526Q134 535 134 543T134 561Q139 575 151 578H153Q189 576 218 555T271 502T313 436T344
375Q361 340 374 305T401 234Q412 207 422 181T442 129Q450 156 458 197Q470 249 484 303T519 407T568 495T637 554Q652 562 680 566T737 568T785 550L788 545Q787 522 785 495T779 437Q779 434 779 431T778 424Q771 352 766 270T768 110Q772 75 777 45T803 7Q825
-1 841 6T873 24L874 25Q888 34 904 42T941 47L947 44Q955 26 945 11T915 -17T875 -37T841 -47Q805 -52 781 -41T741 -8Q721 21 714 66T707 161T710 256Q712 287 714 317T719 376Q720 384 720 392T722 407Q725 437 727 463T730 511Q696 519 667 508T611 461Q579
419 558 361T522 236T497 101Q496 96 496 90T494 76Q487 18 480 -5T459 -30Q441 -34 427 -6T392 94Q388 105 387 110T385 118Q361 188 334 259T273 393T192 500Q192 431 190 356T179 208T152 71T103 -40Q101 -43 97 -48Q86 -66 72 -84T38 -114T-7 -125Z" />
<glyph unicode="n" glyph-name="n" horiz-adv-x="721" d="M66 -110Q20 -126 -9 -124T-40 -99Q-43 -72 35 -63Q58 -59 77 -47T106 -16Q124 12 129 55T134 151T129 258Q129 264 129 267Q124 346 124 420T144 545Q176 625 230 601Q238 585 236 577T214 549Q206 542
200 536T194 518Q195 502 214 482T253 442Q280 415 317 373T393 283T469 189T529 110Q525 331 563 475T678 680Q699 698 720 677Q721 670 721 666T720 658Q719 651 713 644T691 618Q656 576 634 512T600 369T586 209T590 48Q591 44 591 39T593 29Q598 -7 595 -22T576
-51Q559 -48 550 -40T526 -4Q523 1 521 4T516 12Q458 108 375 215T187 432Q176 389 177 335T183 224Q187 170 188 118T180 20T145 -57Q142 -60 130 -70T101 -92T66 -110Z" />
<glyph unicode="o" glyph-name="o" horiz-adv-x="726" d="M331 -55Q271 -51 222 -23T137 51T81 151Q53 228 61 314T117 470Q126 483 145 504T188 545T237 572T285 563Q286 564 289 565Q309 576 326 584T367 595T426 595Q503 587 559 539T643 415T665 245Q660 177
633 120T560 23T456 -38T331 -55ZM325 -1Q388 -8 438 10T525 65T582 147T607 245Q614 325 593 389T528 494T421 542Q372 548 333 529T273 473T262 393Q267 371 285 349T328 313Q332 311 333 311Q338 310 341 309T349 306Q364 302 380 294T400 262L397 256Q365 228
296 269Q279 279 260 297T228 336Q209 369 208 412T225 502Q170 472 144 417T117 296T137 169Q160 103 207 55T325 -1Z" />
<glyph unicode="p" glyph-name="p" horiz-adv-x="726" d="M275 -74Q257 -73 250 -45T249 48Q252 74 252 107T251 163Q251 168 251 173T251 181Q251 189 251 196T251 212Q252 293 252 374T246 526Q211 518 175 498T114 448T94 382Q95 364 113 353Q153 324 137 304V303Q117
289 95 298T58 328T39 365Q33 402 45 432T80 486T123 526Q168 562 237 580T384 594Q439 592 491 578T585 536T652 468T679 374Q681 315 652 265T572 184T460 152Q364 152 347 215L350 221Q368 234 383 230T411 217V217Q418 213 426 210T441 206Q487 201 525 218T589
269T622 343T611 425Q556 553 310 539Q307 471 307 397T306 245Q306 233 306 220T306 194Q307 170 307 140T308 84T310 47Q313 -20 304 -47T275 -74Z" />
<glyph unicode="q" glyph-name="q" horiz-adv-x="671" d="M167 -63Q126 -60 106 -41T85 3T105 47T167 69Q201 72 229 64T281 46Q284 45 289 43Q305 38 318 34T344 31Q367 32 394 50T446 93T482 132Q519 179 533 237T540 353T503 458T425 531T308 551Q248 546 205
515T139 438T112 341Q110 301 121 261T155 188T215 139T300 128Q322 132 343 146T376 180Q378 183 379 186T382 191Q394 211 404 221T435 220L436 218Q448 199 439 173T403 121Q378 96 341 85T262 77Q203 81 157 114T84 201T57 322Q57 399 87 459T172 558T301 603Q373
610 428 589T521 526T578 430T598 315Q599 240 574 184T510 85T425 9Q459 -4 504 -9T594 -11Q601 -11 608 -9T622 -5Q623 -5 626 -4Q641 -1 657 0T686 -11L688 -15Q688 -36 673 -46T637 -59T601 -63Q555 -67 509 -62T425 -48Q422 -47 414 -45Q410 -43 405 -41T394
-38Q386 -36 383 -35Q381 -34 377 -33Q368 -31 360 -29T347 -28Q334 -29 319 -33T286 -43Q261 -51 230 -58T167 -63ZM140 1Q151 -8 172 -11T215 -11T253 2Q236 9 213 14T169 18T140 1Z" />
<glyph unicode="r" glyph-name="r" horiz-adv-x="682" d="M655 -81Q555 -55 479 -4T336 108Q332 111 329 114T320 122Q298 142 278 163T253 216Q260 230 269 235T315 241Q320 241 327 241T339 243Q367 251 400 264T464 296T517 339T546 395T537 465Q524 496 490
517T409 550T313 561T220 547T149 507Q127 486 114 456T100 394Q99 372 104 360T118 333Q135 302 137 289T129 268Q87 264 65 308T49 423Q55 475 86 516T168 582T284 613Q335 616 390 608T492 578T570 520T601 432Q603 374 581 333T521 265T435 221T337 190Q398
117 477 60T670 -27Q704 -35 718 -42T733 -58Q737 -75 729 -82T708 -89T681 -87T658 -82Q656 -81 655 -81ZM213 -40Q195 -40 188 -18T184 60Q184 65 184 86T185 135T185 192T185 243T184 272Q183 328 184 377T192 458Q194 465 201 468T212 471Q234 468 238 445T240
369V59Q242 4 237 -18T213 -40Z" />
<glyph unicode="s" glyph-name="s" horiz-adv-x="616" d="M325 -54Q246 -60 184 -37T89 30T61 131Q63 148 72 168T98 206T136 230T185 226Q191 204 185 194T147 172Q130 165 125 156Q113 137 118 107T140 54Q163 26 202 13T286 0T374 12T449 47T494 102Q510 143
497 179T444 239Q416 256 377 266T297 285Q251 296 206 309T128 344T84 403Q70 454 93 497T171 568Q216 590 267 596T367 593T447 560Q470 544 487 518T505 475Q504 462 496 451T478 429Q466 417 457 404Q440 380 430 379T404 384Q395 402 399 416T424 448Q433
456 438 463T444 479Q444 496 424 511T371 535T303 545Q273 545 241 538T183 516T144 478T136 423Q139 405 157 392T202 369T257 352T309 338Q347 328 390 314T472 279T536 227Q585 164 542 72Q526 39 493 12T416 -33T325 -54Z" />
<glyph unicode="t" glyph-name="t" horiz-adv-x="745" d="M260 -49Q220 -46 190 -26T144 24T128 89T148 157Q149 158 150 160Q155 168 166 181T191 200T220 192Q230 183 226 170T202 131Q183 106 182 97Q176 52 210 25T301 5Q335 9 367 29T419 79Q447 122 453
181T461 308Q462 361 465 416T484 524Q474 524 465 524T444 526Q434 527 424 527T403 528Q401 528 397 528Q344 532 289 533T187 529T114 502T91 441Q95 408 131 387T217 368Q229 369 240 372T261 380Q286 389 300 389T324 382L325 379Q326 353 308 340T267 321T229
314Q192 311 155 321T88 352T47 397Q26 440 33 473T65 531T127 568T200 584Q264 589 342 589T503 589T663 585Q676 585 689 585T715 584Q717 584 722 584Q740 584 758 581T778 559Q782 524 692 530Q689 531 677 531T652 531T630 532Q609 534 591 534T562 531Q544
527 535 506T523 458T517 407Q516 391 516 375T515 343Q515 335 515 327T514 311Q512 237 506 170T466 50Q450 25 421 1T351 -38T260 -49Z" />
<glyph unicode="u" glyph-name="u" horiz-adv-x="733" d="M303 -44Q254 -42 211 -19T140 50T112 164Q112 201 117 240T130 316Q130 317 131 320Q138 363 143 404T143 480Q139 511 128 520T94 527Q94 527 93 527Q84 526 73 527T57 538Q48 547 52 560T68 575Q99
587 127 581T176 552T201 497Q207 459 201 414T187 321V319Q187 318 186 316Q179 268 174 221T172 133T199 60Q222 28 256 17T329 10T402 34T461 81Q483 108 505 149T532 227Q534 237 534 249T533 275V276Q532 285 532 294T532 313Q533 330 534 348T537 385Q539
399 539 413T541 440Q542 447 542 454T543 468Q543 469 543 474Q542 484 542 502T545 539T556 570T582 578Q600 574 602 536T598 414Q597 407 597 402T597 390Q596 374 595 359T592 330Q591 308 590 289T588 252Q588 199 591 146T606 56T640 9Q642 8 645 8T654
6H660Q672 6 687 3T703 -19Q703 -38 689 -43T655 -46T618 -37T594 -25Q571 -8 559 26T538 95Q529 88 523 79T510 60Q495 38 487 29Q449 -9 401 -27T303 -44Z" />
<glyph unicode="v" glyph-name="v" horiz-adv-x="758" d="M417 -59Q401 -59 387 -39T354 28Q314 109 294 189T260 358Q253 417 242 459T191 520Q151 540 116 530T61 496Q39 469 42 433T88 370Q111 357 118 348T127 323Q121 303 100 304T49 326Q12 352 -3 386T-13
456T14 521Q37 553 75 571T164 584Q211 579 238 558T281 503T303 430T317 346Q331 259 338 229Q354 167 375 115T418 25Q447 59 478 104T541 199T599 293Q603 299 606 304T614 315Q630 341 639 357T652 387T653 422Q647 457 629 479T584 518Q564 531 555 538T544
554T539 574Q553 585 589 578T663 530Q700 492 708 443T696 345Q689 329 676 309T651 270T632 240Q597 185 567 138T499 36Q462 -19 446 -39T417 -59Z" />
<glyph unicode="w" glyph-name="w" horiz-adv-x="1037" d="M723 -42Q622 -13 582 108T566 433Q536 419 514 394T470 343Q412 270 364 191T268 11Q268 11 268 10Q262 -5 252 -22T215 -35L210 -32Q201 -16 203 -1T219 41Q224 49 226 54T229 64Q240 98 252 150T270
263T274 379T253 477T197 534Q166 546 137 542T87 521T58 480T60 426Q68 399 110 374Q148 354 141 333Q134 315 120 314T88 323T54 347T25 375T9 396Q-7 434 -3 468T22 529T71 573T131 594Q188 600 226 581T287 524T318 437T328 332T322 223Q327 227 330 232T337
245Q339 250 341 255T347 265Q393 339 442 396T544 491Q568 509 580 516T603 524T627 519L629 515Q630 491 628 463T621 405V403Q621 400 620 395Q616 358 613 320T612 240Q617 166 638 113T697 36Q711 75 721 119T743 210Q758 274 775 338T816 461T872 567T952
645T1063 682Q1089 685 1119 682T1177 669T1221 643T1235 601L1228 595Q1208 593 1194 598T1167 612Q1142 626 1123 629T1071 629Q1003 622 957 580T881 474T830 333T793 179Q779 118 765 62T732 -38L723 -42Z" />
<glyph unicode="x" glyph-name="x" horiz-adv-x="805" d="M146 -29Q123 -32 93 -30T40 -12T14 37L15 40Q31 57 78 40Q80 39 83 38T89 35Q100 30 113 26T144 25Q185 31 210 62T261 132Q276 154 286 168T309 197T338 230Q358 253 372 271T390 303Q393 317 389 345T376
407T357 467T339 507Q318 538 286 541T223 528T175 480Q174 477 173 474T169 466Q166 460 164 454V454Q160 440 153 428T127 419Q110 423 108 436T111 467T127 503T146 533T157 548Q182 572 216 586T282 598Q336 595 364 566T407 494T430 406Q432 399 433 393T435
380Q437 376 437 373T439 365Q454 376 470 394T499 425Q503 430 506 433T511 439Q535 465 568 497T640 560T724 612T815 637Q868 645 875 618V616Q870 597 854 592T820 584Q816 583 812 583T803 581Q753 571 702 537T604 458T520 374Q510 363 495 346T467 313T452
285Q449 268 453 244T465 195T482 148Q523 34 596 25Q633 20 656 33T702 68Q725 90 738 98T762 105L763 104Q781 87 778 72T760 44T734 23Q728 19 726 17Q667 -29 609 -26Q568 -24 533 -2T471 55T426 134T402 222Q379 203 360 177T322 121Q300 88 276 56T220 0T146
-29Z" />
<glyph unicode="y" glyph-name="y" horiz-adv-x="746" d="M428 -105Q338 -105 301 -28Q297 -19 297 -2T300 34T315 63T343 70Q360 66 360 52T358 23Q358 21 357 18Q356 10 355 3T356 -11Q362 -37 384 -48T434 -56T487 -37T523 6Q536 31 542 65T552 135Q554 155
556 174T562 212Q555 208 546 201T529 186Q522 180 516 175T505 166Q471 145 432 136T354 129T285 151T237 205T224 293Q226 318 232 343T245 394Q249 407 252 420T259 448Q260 452 261 456T263 465Q272 499 278 536T269 596Q256 616 231 619T174 612Q148 603 127
576T97 516T95 456Q101 436 114 427T146 407Q160 400 170 395T190 382L191 377Q180 355 158 351T110 359T63 399Q40 429 38 466T49 542T88 610Q133 665 189 675T295 647Q328 622 333 584T328 502T305 414L304 412Q296 384 288 357T278 305Q271 238 301 206T394
181Q462 189 512 234T586 353Q599 393 605 434T617 516Q621 551 626 586T640 656Q644 671 659 676T680 671Q693 642 689 608T677 538Q675 525 673 513T668 486Q662 449 656 414T644 343Q642 331 640 319T636 295Q630 261 624 226T613 153Q606 107 598 62T572 -21T520
-82T428 -105Z" />
<glyph unicode="z" glyph-name="z" horiz-adv-x="794" d="M547 28Q533 29 519 29T490 30Q487 30 484 30T477 30Q423 32 351 33T205 35T69 29Q35 26 26 31T7 54Q16 79 42 82T95 85Q96 85 97 85Q98 85 99 85Q111 84 121 84T139 86Q159 92 179 109T217 149T250 191Q277
227 303 265T354 341Q360 350 365 358T376 375Q409 427 443 477T514 572Q498 573 480 574T444 576Q375 580 305 582T176 578Q139 574 126 556T124 521T173 500Q177 499 182 499T194 501Q196 501 197 501Q209 502 222 502T246 497T258 478Q259 464 245 457T210 448T170
446T139 450Q99 458 77 487T61 554Q66 584 89 600T148 623T225 631T306 632H309Q333 631 369 630T447 627T527 626Q542 626 571 627T627 630T666 632Q669 632 672 632T679 632Q706 632 725 629T746 606Q747 590 730 584T689 576T644 576H643Q630 576 621 576T608
575Q580 567 555 538T513 484Q502 469 480 437T433 367T389 302Q352 246 316 191T238 86Q279 88 322 87T409 82Q474 79 536 78T652 83Q679 86 700 108T722 154Q724 177 712 187T681 198T638 198Q588 194 567 196T543 212Q539 227 553 237T590 252T638 257T681 256Q728
249 749 223T771 163Q772 134 759 106T720 56T660 30Q633 26 605 26T547 28Z" />
<glyph unicode="{" glyph-name="braceleft" horiz-adv-x="602" d="M368 -59Q341 -50 328 -27T310 29T305 101Q305 117 305 134T307 168Q308 201 308 232T305 289Q294 297 281 298T255 299Q239 299 225 302T200 319Q205 334 221 337T256 343Q274 345 289 350T308
371Q310 390 310 411T308 454Q307 481 306 509T304 565Q304 623 313 656T346 705T417 723Q440 725 466 725T502 713Q498 699 487 687T460 676Q417 680 395 669T368 621T367 508Q368 495 368 482T369 454Q370 412 361 378T323 330Q332 316 342 309T362 291T372 256Q373
246 372 233T368 203Q366 184 365 164T364 123Q365 111 365 99T365 75Q365 48 366 25T375 -7Q384 -18 399 -21T432 -24T467 -26T498 -37Q493 -57 469 -63T416 -67T368 -59Z" />
<glyph unicode="|" glyph-name="bar" horiz-adv-x="400" d="M179 -171L177 -169Q172 -164 171 -144T169 -74V-24Q168 38 168 105T169 240Q169 273 169 305T169 368Q170 417 170 461T170 542Q170 553 170 566T171 596Q172 633 173 673T174 744T171 782V783Q171
828 191 839L194 840Q219 841 226 812V811Q224 785 224 755T225 685Q225 678 225 674Q225 646 225 614T226 542V308Q227 161 226 12Q226 7 226 2T226 -8Q226 -64 224 -104T213 -163T179 -171Z" />
<glyph unicode="}" glyph-name="braceright" horiz-adv-x="593" d="M115 -55Q120 -36 135 -33T168 -29Q180 -29 191 -28T211 -21Q224 -13 229 10T234 66T232 134V135Q232 137 232 141Q230 183 230 221T238 289T267 330Q242 349 234 380T225 454V498Q225 504 225
510T226 523Q227 560 227 594T221 653T203 687Q191 695 179 695T152 692Q139 690 126 689T100 694Q98 700 102 707T115 724Q152 726 189 725T252 712Q271 704 279 679T285 620Q283 596 284 569T288 514Q289 499 289 484T291 454Q293 411 288 372Q298 358 315 355T353
349T393 335Q390 319 378 316T350 313Q347 313 341 313Q328 313 317 312T297 302Q287 271 287 231T290 148Q291 130 291 113T292 79Q292 31 282 -6T237 -55Q219 -61 201 -61T163 -58Q152 -57 140 -56T115 -55Z" />
<glyph unicode="~" glyph-name="asciitilde" horiz-adv-x="745" d="M514 253Q477 253 442 271T369 318Q344 337 317 355T264 386T221 398Q198 398 180 387T146 360T118 333T91 319Q81 340 91 356T114 384Q119 389 121 391Q153 423 179 440T250 457Q271 457 297
445T352 413T409 375T462 344T507 331Q528 331 544 334T573 348Q590 360 609 380T645 419Q658 411 658 401T654 380Q653 378 653 377Q643 348 624 319T578 272T514 253Z" />
<glyph unicode="&#xa0;" glyph-name="nbspace" horiz-adv-x="250" />
<glyph unicode="&#xa1;" glyph-name="exclamdown" horiz-adv-x="490" d="M182 345Q196 326 201 303T201 241Q200 229 199 218T197 197Q199 103 218 8Q232 -51 241 -110T243 -228L226 -232Q197 -221 180 -182T153 -84T141 38T139 164T144 271V286Q144 286 144 287Q143
300 144 315T154 340T182 345ZM156 537Q180 545 198 531T222 492T222 443T190 405Q168 404 153 421T131 463T129 509T156 537Z" />
<glyph unicode="&#xa2;" glyph-name="cent" horiz-adv-x="653" d="M288 -78Q276 -84 267 -64T256 -5Q256 19 256 44Q172 67 119 136T58 304Q51 395 77 470T157 596T285 665L287 705Q277 725 279 744T304 769Q320 774 331 755T340 682Q340 677 340 672Q414 677
470 651T547 573Q561 539 556 505T531 445T482 404T418 395Q394 399 373 421T348 467Q346 481 348 501T362 536T398 549L400 548Q410 541 411 529T409 492Q405 475 406 464T425 448Q445 444 463 455T491 488T499 535Q495 561 473 581T415 611T337 619Q335 584 333
541T326 451Q320 360 314 264T306 90Q328 88 353 90Q421 95 477 129T569 222Q575 236 578 249Q583 266 592 282T620 308L623 307Q648 288 646 267T618 201Q592 155 549 116T445 54T308 36Q307 36 305 36Q305 17 306 1Q307 -26 303 -49T288 -78ZM257 101Q259 205
266 322T281 555L283 608Q228 591 188 548T128 444T113 308Q116 264 132 222T180 148T257 101Z" />
<glyph unicode="&#xa3;" glyph-name="sterling" horiz-adv-x="784" d="M470 -54Q427 -51 388 -42T315 -24Q287 -16 264 -11T226 -7Q195 -9 178 -17T147 -33T111 -44Q75 -48 50 -40T20 -8Q17 20 39 38T88 61Q102 64 114 64T139 64Q154 64 170 64T208 69Q222 72
235 93T257 146T272 215T275 290Q241 289 221 288T175 286Q156 289 159 307T175 339Q185 343 198 343T229 343Q238 342 249 342T271 342Q271 349 271 355T269 369Q264 430 262 487T272 590T319 666Q327 673 344 680T380 693T414 700Q468 705 506 690T568 648T601
589T604 525Q597 492 575 471T524 461Q523 469 525 477T529 496Q533 513 536 534T535 582Q530 611 504 628T443 648T378 636T333 585Q319 549 319 493T322 374Q323 365 323 357T324 340Q338 340 352 340T381 341Q405 341 430 341T485 340Q502 339 516 335T540 318Q535
301 518 295T479 289Q437 289 403 289T325 290Q326 250 324 214T312 150Q309 142 306 134T298 117Q290 100 284 84T281 52Q285 32 313 20T380 2T458 -5T521 -6Q571 -4 606 10T666 45Q680 57 689 70T710 93T742 107Q749 82 739 57T709 10T670 -23Q634 -46 583 -52T470
-54Z" />
<glyph unicode="&#xa4;" glyph-name="currency" horiz-adv-x="694" d="M546 146Q534 150 524 162T504 187T481 199Q414 165 341 165T212 206Q190 181 166 168T111 180Q123 200 141 215T172 253Q156 277 146 306T134 367Q130 411 142 445T179 511Q173 517 167 522T156
532Q136 549 125 563T123 590Q129 598 137 604T157 613Q171 605 183 586T221 553Q250 576 282 586T348 595Q405 593 434 578T476 553Q495 557 505 568T527 590T559 601Q573 581 570 567T556 541T533 521Q528 518 524 515T517 508Q537 480 549 445T560 377Q559 338
546 302T520 242Q537 227 548 216T565 194Q571 184 566 171T546 146ZM339 220Q376 220 411 233T460 262Q476 282 491 315T508 377Q510 405 501 429T478 474T454 506Q440 524 413 534T356 546T298 538Q256 522 231 491T197 421T199 341Q210 283 246 252T339 220Z"
/>
<glyph unicode="&#xa5;" glyph-name="yen" horiz-adv-x="767" d="M428 -55Q338 -55 301 22Q297 31 297 48T300 84T315 113T343 120Q360 116 360 102T358 73Q358 71 357 68Q356 60 355 53T356 39Q361 16 379 5T422 -6T470 4T510 34Q487 41 474 55T454 83Q460 95
479 103Q492 108 508 114T544 129Q546 138 547 149Q519 151 492 144T449 120Q429 113 424 121T418 143Q447 166 480 179T553 192Q555 210 557 227T562 262Q555 258 546 251T529 236Q522 230 516 225T505 216Q471 195 432 186T354 179T285 201T237 255T224 343Q226
368 232 393T245 444Q249 457 252 470T259 498Q260 502 261 506T263 515Q272 549 278 586T269 646Q256 666 231 669T174 662Q148 653 127 626T97 566T95 506Q101 486 114 477T146 457Q160 450 170 445T190 432L191 427Q180 405 158 401T110 409T63 449Q40 479 38
516T49 592T88 660Q133 715 189 725T295 697Q328 672 333 634T328 552T305 464L304 462Q296 434 288 407T278 355Q271 288 301 256T394 231Q462 239 512 284T586 403Q599 443 605 484T617 566Q621 601 626 636T640 706Q644 721 659 726T680 721Q693 692 689 658T677
588Q675 575 673 563T668 536Q662 499 656 464T644 393Q642 381 640 369T636 345Q630 311 624 276T613 203Q609 176 605 149T594 96Q611 90 624 90T651 90Q661 90 671 90T692 88Q710 81 710 71Q710 60 700 50Q673 41 638 34T570 27Q552 -9 519 -32T428 -55Z" />
<glyph unicode="&#xa6;" glyph-name="brokenbar" horiz-adv-x="503" d="M267 -5Q241 -1 237 24T234 78Q234 84 234 89T234 101Q233 137 233 170T233 233Q233 243 233 252T233 270Q245 282 261 285T285 278Q284 246 283 200T282 113Q282 106 282 99T283 84Q284
57 283 33T267 -5ZM285 385Q277 375 263 378T233 393Q234 410 234 425T234 454Q234 464 234 473T234 492Q234 510 234 527T234 562Q234 569 234 576T234 590Q233 617 236 639T267 668Q287 646 287 619T284 563Q283 560 283 557T282 550Q279 522 280 498T282 454Q282
452 283 447Q284 429 285 414T285 385Z" />
<glyph unicode="&#xa7;" glyph-name="section" horiz-adv-x="520" d="M269 -6Q207 -10 159 8T84 61T61 142Q63 161 76 183T112 219T164 220L167 216Q172 197 166 188T134 169Q127 167 124 165T119 159Q112 146 115 125T131 86Q152 61 191 52T273 48T350 73T395
122Q407 151 397 177T358 221Q337 233 308 241T247 256Q211 265 176 275T114 303T79 351Q59 421 123 468Q110 477 101 488T88 515Q77 556 95 590T158 647Q194 664 234 669T312 667T375 641Q394 628 408 607T421 571Q421 555 400 532Q396 528 394 526T388 518Q385
515 384 513Q371 495 362 492T337 496L335 499Q327 514 331 526T352 554Q358 561 361 565T365 574Q365 585 350 595T311 613T261 620Q231 620 200 611T151 582T137 532Q140 515 162 504T214 485T267 471Q297 463 330 452T395 424T445 383Q484 333 450 258Q442 242
429 227Q433 223 436 219Q475 170 442 94Q422 55 374 27T269 -6ZM386 259Q398 272 404 286Q416 315 406 341T367 385Q346 397 317 405T256 420Q236 425 216 430T177 441Q120 416 129 368Q132 351 154 340T205 321T258 306Q288 298 322 287T386 259Z" />
<glyph unicode="&#xa8;" glyph-name="dieresis" horiz-adv-x="503" d="M154 675Q135 676 119 688T100 720T114 767Q140 787 165 777T203 743Q206 706 190 690T154 675ZM354 675Q335 676 319 688T300 720T314 767Q340 787 365 777T403 743Q406 706 390 690T354 675Z" />
<glyph unicode="&#xa9;" glyph-name="copyright" horiz-adv-x="579" d="M193 333Q161 347 142 365T103 408Q69 450 57 506T57 619Q65 654 89 688T148 746Q182 772 219 783T295 793Q325 792 339 791T365 786Q387 779 406 769T439 746Q479 712 503 663T528 567Q529
506 504 453T440 370Q383 325 318 318T193 333ZM364 357Q417 380 453 429T498 535Q504 576 492 612T460 678T421 723Q394 746 348 757T258 763Q206 756 167 728T105 660T78 574T90 485Q116 426 159 389T256 343T364 357ZM271 405Q219 408 185 444T147 536Q143 585
158 624T205 688T279 717Q319 721 349 708T389 668Q398 645 391 623T365 587T323 577Q310 579 299 590T286 615Q286 622 287 632T295 651T315 658Q323 656 324 648T323 627V627Q321 619 321 615T328 609Q340 606 350 619T359 648Q357 666 335 676T282 685Q233 680
205 639T180 539Q184 490 215 462T292 437Q359 442 393 499Q397 507 403 523T420 541Q454 538 423 485Q400 445 359 423T271 405Z" />
<glyph unicode="&#xaa;" glyph-name="ordfeminine" horiz-adv-x="488" d="M74 298Q63 300 61 312T59 338T62 360Q62 363 62 364Q68 413 81 452T109 528Q102 529 89 530Q72 532 56 537T34 560Q31 575 36 585T53 596Q62 596 67 588T73 569Q75 569 81 568Q94 565
107 564T133 567Q140 570 155 590T189 632Q215 661 266 694T386 752Q391 754 398 752T412 742Q412 724 410 707T403 671Q403 668 403 665T401 659Q398 637 395 612T394 567Q400 562 427 565Q448 566 457 564T468 551Q472 533 456 531T423 530H422H421Q412 531 404
531T390 530Q386 498 387 461T396 381Q397 375 398 369T401 358Q409 333 409 320T404 301L403 300Q383 294 376 310T366 342Q366 343 366 343Q365 350 365 354Q357 387 354 432T352 524Q325 527 282 529T200 530Q189 529 179 529T158 528Q135 499 118 448T96 347Q95
343 95 334Q95 321 93 308T74 298ZM189 568Q225 564 271 564T353 569Q355 581 356 593T361 621Q364 642 366 663T369 704Q312 683 267 647T189 568Z" />
<glyph unicode="&#xab;" glyph-name="guillemetleft" horiz-adv-x="622" d="M562 67Q540 51 518 60T476 86Q432 122 403 150T355 209T318 281Q334 304 356 330T407 381Q440 409 474 430T549 468Q560 452 556 436T543 411Q538 406 528 399T506 384Q483 368 457
349T414 310T397 272Q399 252 416 228T460 178T513 129Q536 110 545 96T562 67ZM362 67Q340 51 318 60T276 86Q232 122 203 150T155 209T118 281Q134 304 156 330T207 381Q240 409 274 430T349 468Q360 452 356 436T343 411Q338 406 328 399T306 384Q283 368 257
349T214 310T197 272Q199 252 216 228T260 178T313 129Q336 110 345 96T362 67Z" />
<glyph unicode="&#xac;" glyph-name="logicalnot" horiz-adv-x="649" d="M507 117Q491 138 489 179T487 264Q487 291 487 315T483 359Q436 367 387 367T290 365Q234 363 181 363T80 376Q82 406 96 415T133 426Q187 430 245 430T365 429Q411 428 458 428T550 429Q554
396 554 357T553 282Q553 259 553 239T553 203Q553 199 554 192Q555 175 554 160T543 133T507 117Z" />
<glyph unicode="&#xad;" glyph-name="softhyphen" horiz-adv-x="496" d="M156 298Q125 299 111 303T89 313T77 328T60 346Q72 347 93 347T141 347Q178 346 223 346T314 348T401 354Q408 355 418 350T434 335T432 309Q349 298 279 298T168 298Q160 298 156 298Z" />
<glyph unicode="&#xae;" glyph-name="registered" horiz-adv-x="579" d="M193 333Q161 347 142 365T103 408Q69 450 57 506T57 619Q65 654 89 688T148 746Q182 772 219 783T295 793Q325 792 339 791T365 786Q387 779 406 769T439 746Q479 712 503 663T528 567Q529
506 504 453T440 370Q383 325 318 318T193 333ZM234 394Q224 394 221 405T218 445Q219 451 219 473T219 515V547V549Q218 576 218 599T222 638Q227 646 234 646Q246 646 249 635T251 594V529Q257 536 280 537Q282 536 289 538Q291 539 292 539Q315 543 342 555T384
588T387 640Q380 658 357 668T305 682T249 680T206 658Q185 638 183 606Q183 596 185 591T192 578Q200 562 201 556T195 542Q173 540 161 563T152 621Q156 659 188 685T268 714Q302 717 338 709T399 680T425 624Q426 587 408 564T361 528T300 506Q360 435 438 411Q462
437 477 469T498 535Q504 576 492 612T460 678T421 723Q394 746 348 757T258 763Q206 756 167 728T105 660T78 574T90 485Q116 426 159 389T256 343T364 357Q388 368 410 385Q379 396 349 418T291 466Q289 468 287 470T283 473Q256 496 251 508V445Q252 417 249
406T234 394ZM428 379Q439 376 447 382T457 397T455 406Q446 408 438 411Q425 397 410 385Q419 381 428 379ZM251 529Q249 528 248 525Q248 516 251 508V529Z" />
<glyph unicode="&#xaf;" glyph-name="overscore" horiz-adv-x="408" d="M303 702Q287 699 259 698T201 697T145 700T105 706Q98 720 101 736T115 753Q127 755 141 755T172 753Q179 753 186 753T202 752Q210 752 217 752T233 752Q248 752 262 752T287 749Q296 747
305 736T303 702Z" />
<glyph unicode="&#xb0;" glyph-name="degree" horiz-adv-x="428" d="M207 496Q194 497 182 498T155 504Q141 515 124 526T95 561T82 628Q82 672 110 705T177 748Q196 753 229 752T296 732Q317 714 334 680T344 593Q334 548 302 520T207 496ZM206 543Q228 543 247
555T279 588T292 629Q292 646 283 663T260 694Q218 708 190 699T148 669T133 623Q133 594 151 570T206 543Z" />
<glyph unicode="&#xb1;" glyph-name="plusminus" horiz-adv-x="639" d="M325 90Q307 96 297 113T287 146Q289 200 289 248T290 345Q278 345 265 344T237 342Q200 340 159 339T81 344Q70 346 68 357T68 380T78 390Q103 389 142 389T223 391T291 393Q296 447 296
495T287 576Q282 599 295 604T324 597T346 549Q348 537 347 514T345 465Q344 446 344 428T343 393Q354 393 368 394T400 396Q435 399 473 401T538 397Q545 396 555 390T571 374T569 348Q520 351 472 349T378 344Q369 344 361 344T343 342Q339 263 340 168Q340 165
340 162T340 155Q341 138 340 119T325 90ZM166 8Q125 8 105 15T77 33T70 56Q82 57 110 57T178 57Q232 56 296 56T420 58T521 64Q528 65 538 60T554 45T552 19Q514 11 468 8T374 4T284 4T210 7Q195 7 184 7T166 8Z" />
<glyph unicode="&#xb2;" glyph-name="twosuperior" horiz-adv-x="400" d="M362 441Q346 435 329 440T297 452L291 455Q287 457 283 458T274 461Q273 461 270 462Q242 471 205 479T133 479Q125 477 118 473T102 463Q89 454 73 447T34 448L31 455Q36 484 52 493T86
508Q99 511 110 516Q141 530 170 559T223 623T263 692Q264 694 266 698Q273 714 280 734T285 775Q283 800 266 812T223 825T174 818T131 794T110 759Q106 740 114 728T139 714Q141 714 145 714T154 717Q160 719 168 720T185 714L188 711Q193 692 178 682T133 674Q107
676 92 691T73 729T73 774T93 813Q110 832 140 845T203 861T265 855T311 822T325 755Q322 716 305 681T267 617Q254 597 239 580T209 545Q204 540 199 535T189 523Q271 510 327 485L333 482Q344 478 356 471T365 446L362 441Z" />
<glyph unicode="&#xb3;" glyph-name="threesuperior" horiz-adv-x="400" d="M209 440Q177 437 142 446T85 478T66 539Q69 559 82 574T115 598T154 601L158 594Q157 577 147 569T127 556Q118 552 113 548T106 532Q105 514 122 499T167 480Q202 476 233 485T286
515T311 561Q316 603 285 631T202 662Q196 663 189 663T174 661Q152 658 128 659T95 684L96 690Q110 707 130 707T169 705Q171 705 173 705T177 704Q183 703 189 703T199 703Q226 704 251 717T286 752T276 798Q265 814 241 822T191 826Q171 824 153 813T133 790Q132
784 135 776Q135 776 135 775Q138 770 139 764T133 748L130 746Q114 741 103 752T91 782Q90 812 111 832T165 861T227 867Q265 863 289 842T321 792T321 734T281 684Q315 666 334 631T351 558Q347 512 306 479T209 440Z" />
<glyph unicode="&#xb4;" glyph-name="acute" horiz-adv-x="390" d="M156 657Q140 647 136 654T139 676Q147 693 156 708T174 738Q186 758 198 772T233 788Q247 789 258 777T270 755Q270 742 255 730T223 706Q205 694 189 682T156 657Z" />
<glyph unicode="&#xb5;" glyph-name="micro" horiz-adv-x="733" d="M303 -44Q260 -42 221 -24T154 29Q150 -10 148 -48T145 -119Q145 -142 132 -153T107 -155T94 -107Q94 -41 98 22T112 164Q112 201 117 240T130 316Q130 317 131 320Q138 363 143 404T143 480Q139
511 128 520T94 527Q94 527 93 527Q84 526 73 527T57 538Q48 547 52 560T68 575Q99 587 127 581T176 552T201 497Q207 459 201 414T187 321V319Q187 318 186 316Q179 268 174 221T172 133T199 60Q222 28 256 17T329 10T402 34T461 81Q483 108 505 149T532 227Q534
237 534 249T533 275V276Q532 285 532 294T532 313Q533 330 534 348T537 385Q539 399 539 413T541 440Q542 447 542 454T543 468Q543 469 543 474Q542 484 542 502T545 539T556 570T582 578Q600 574 602 536T598 414Q597 407 597 402T597 390Q596 374 595 359T592
330Q591 308 590 289T588 252Q588 199 591 146T606 56T640 9Q642 8 645 8T654 6H660Q672 6 687 3T703 -19Q703 -38 689 -43T655 -46T618 -37T594 -25Q571 -8 559 26T538 95Q529 88 523 79T510 60Q495 38 487 29Q449 -9 401 -27T303 -44Z" />
<glyph unicode="&#xb6;" glyph-name="paragraph" horiz-adv-x="646" d="M326 13Q307 18 298 30T287 60Q285 75 286 92T289 127Q290 136 291 144T292 161Q292 178 292 196T292 232Q292 249 292 267T292 302Q240 315 204 352T159 440Q153 482 162 514T192 569Q215
595 249 609T322 628Q343 630 371 629T429 627Q442 626 454 626T477 625Q482 625 487 625T496 625Q520 625 533 622T544 603Q541 588 532 586T508 584Q502 585 496 585T481 584Q478 517 478 446T480 300Q481 249 481 198T481 95Q481 92 481 88T481 81Q482 62 480
43T462 13Q443 15 437 26T430 52Q430 61 431 71T434 93Q435 102 436 111T437 128Q437 162 436 197T434 269Q431 343 430 420T433 573Q425 584 407 586T369 588T333 584Q334 535 335 472T336 340T337 206Q337 193 337 181T338 156Q339 116 338 80T326 13Z" />
<glyph unicode="&#xb7;" glyph-name="middot" horiz-adv-x="420" d="M214 305Q188 306 166 323T139 369T158 434Q195 460 230 447T282 400Q286 348 264 326T214 305Z" />
<glyph unicode="&#xb8;" glyph-name="cedilla" horiz-adv-x="400" d="M193 -190Q168 -190 145 -180T107 -160Q103 -155 103 -147T113 -139Q155 -154 190 -154Q210 -154 227 -142T245 -112Q245 -98 236 -86T213 -71Q206 -73 188 -73T163 -64Q166 -51 171 -46T181
-33Q192 -18 200 -3T217 27Q233 35 244 22Q244 11 236 -4T223 -37Q252 -44 270 -63T289 -112Q289 -148 270 -157Q263 -176 239 -183T193 -190Z" />
<glyph unicode="&#xb9;" glyph-name="onesuperior" horiz-adv-x="400" d="M218 426Q200 423 193 433T185 458T184 486V498Q182 563 187 628T203 745Q198 742 193 738T181 729Q174 722 165 716Q159 712 156 709Q155 709 154 707Q143 699 129 693T99 697L97 701Q96
716 106 725T125 739Q127 740 128 741Q134 745 138 747Q170 769 200 798T258 854Q267 863 275 863T291 856Q295 841 289 830T275 810Q271 806 269 803T265 796Q245 754 236 693T225 563T222 431L218 426Z" />
<glyph unicode="&#xba;" glyph-name="ordmasculine" horiz-adv-x="469" d="M213 282Q151 286 107 326T43 422Q24 474 29 532T68 639Q74 647 86 662T115 690T149 708T182 702Q183 702 185 703Q204 715 223 721T278 724Q330 718 368 686T425 601T440 486Q436 424
405 377T323 304T213 282ZM209 318Q266 312 307 335T373 399T401 486Q408 567 373 623T274 688Q241 692 214 679T174 641T166 586Q169 571 181 557T211 532Q214 530 214 530Q221 528 225 527Q236 525 247 519T260 497L258 493Q236 474 189 502Q162 517 143 547Q115
595 141 660Q104 640 86 603T68 520T81 434Q97 389 129 356T209 318Z" />
<glyph unicode="&#xbb;" glyph-name="guillemetright" horiz-adv-x="622" d="M260 67Q268 82 277 96T309 129Q336 152 362 177T406 227T425 272Q426 290 409 309T365 348T316 384Q304 392 294 399T279 411Q270 419 266 435T273 468Q314 451 348 430T415 381Q444
357 466 331T504 281Q488 240 468 210T420 151T346 86Q326 70 304 61T260 67ZM60 67Q68 82 77 96T109 129Q136 152 162 177T206 227T225 272Q226 290 209 309T165 348T116 384Q104 392 94 399T79 411Q70 419 66 435T73 468Q114 451 148 430T215 381Q244 357 266
331T304 281Q288 240 268 210T220 151T146 86Q126 70 104 61T60 67Z" />
<glyph unicode="&#xbc;" glyph-name="onequarter" horiz-adv-x="814" d="M636 -10Q620 -12 614 -5T607 14T607 35V36Q608 40 608 47V106Q582 109 555 106T500 99Q495 98 492 98Q468 94 445 91T402 89L397 95Q397 122 411 147T439 195Q465 239 493 279T559 356Q579
376 606 398T664 423L669 421Q682 400 680 375T672 325Q671 321 671 319Q669 311 667 303T664 286Q659 252 656 218T653 151Q661 148 672 148T696 147H697Q713 146 730 144T757 134T767 108L763 103Q752 100 738 101T708 105Q693 107 679 108T652 108Q648 100 648
87T648 58V57Q648 55 648 52Q649 35 648 19T639 -8L636 -10ZM112 32Q99 34 103 55T127 108Q172 174 227 249T342 404T461 560Q484 589 513 630T565 705Q565 728 581 741T615 748Q632 743 626 717T593 654Q566 615 523 559T429 437T329 306T238 183T172 87Q158 63
141 47T112 32ZM198 356Q180 353 173 363T165 388T164 416V428Q162 493 167 558T183 675Q178 672 173 668T161 659Q154 652 145 646Q139 642 136 639Q135 639 134 637Q123 629 109 623T79 627L77 631Q76 646 86 655T105 669Q107 670 108 671Q114 675 118 677Q150
699 180 728T238 784Q247 793 255 793T271 786Q275 771 269 760T255 740Q251 736 249 733T245 726Q225 684 216 623T205 493T202 361L198 356ZM455 135Q473 138 491 140T527 143Q532 144 537 144T546 145L609 151Q610 161 611 170T613 190Q614 196 614 202T616
216Q617 229 618 241T621 266Q623 275 624 283T626 298Q630 316 632 332T634 365Q512 270 455 135Z" />
<glyph unicode="&#xbd;" glyph-name="onehalf" horiz-adv-x="861" d="M805 3Q789 -3 772 2T740 14L734 17Q730 19 726 20T717 23Q716 23 713 24Q685 33 648 41T576 41Q568 39 561 35T545 25Q532 16 516 9T477 10L474 17Q479 46 495 55T529 70Q542 73 553 78Q584
92 613 121T666 185T706 254Q707 256 709 260Q716 276 723 296T728 337Q726 362 709 374T666 387T617 380T574 356T553 321Q549 302 557 290T582 276Q584 276 588 276T597 279Q603 281 611 282T628 276L631 273Q636 254 621 244T576 236Q550 238 535 253T516 291T516
336T536 375Q553 394 583 407T646 423T708 417T754 384T768 317Q765 278 748 243T710 179Q697 159 682 142T652 107Q647 102 642 97T632 85Q714 72 770 47L776 44Q787 40 799 33T808 8L805 3ZM132 32Q119 34 123 55T147 108Q192 174 247 249T362 404T481 560Q504
589 533 630T585 705Q585 728 601 741T635 748Q652 743 646 717T613 654Q586 615 543 559T449 437T349 306T258 183T192 87Q178 63 161 47T132 32ZM198 356Q180 353 173 363T165 388T164 416V428Q162 493 167 558T183 675Q178 672 173 668T161 659Q154 652 145
646Q139 642 136 639Q135 639 134 637Q123 629 109 623T79 627L77 631Q76 646 86 655T105 669Q107 670 108 671Q114 675 118 677Q150 699 180 728T238 784Q247 793 255 793T271 786Q275 771 269 760T255 740Q251 736 249 733T245 726Q225 684 216 623T205 493T202
361L198 356Z" />
<glyph unicode="&#xbe;" glyph-name="threequarters" horiz-adv-x="917" d="M736 -10Q720 -12 714 -5T707 14T707 35V36Q708 40 708 47V106Q680 110 651 106T592 97H590Q566 93 544 91T502 89L497 95Q497 122 511 147T538 195Q564 239 592 279T659 356Q679 376
706 398T764 423L769 421Q782 399 779 373T771 321Q770 319 770 319Q769 311 767 303T763 286Q759 252 756 218T753 151Q761 148 772 148T796 147H797Q813 146 830 144T857 134T867 108L863 103Q852 100 838 101T808 105Q793 107 779 108T752 108Q748 100 748 87T748
58V57Q748 55 748 52Q749 35 748 19T739 -8L736 -10ZM219 370Q187 367 152 376T95 408T76 469Q79 489 92 504T125 528T164 531L168 524Q167 507 157 499T137 486Q128 482 123 478T116 462Q115 444 132 429T177 410Q212 406 243 415T296 445T320 491Q325 533 295
561T212 593Q206 593 199 593T184 591Q162 588 138 589T105 614L106 620Q120 637 140 637T179 635Q181 635 183 635T187 634Q193 633 199 633T209 633Q236 634 261 647T296 682T287 728Q275 744 251 752T201 756Q181 754 163 743T143 720Q142 714 145 706Q145 706
145 705Q148 700 149 694T143 678L140 676Q124 671 113 682T100 712Q99 742 121 762T175 791T237 796Q275 792 299 771T331 722T331 664T291 614Q325 596 344 561T360 488Q356 442 316 409T219 370ZM230 32Q217 34 221 55T245 108Q290 174 345 249T460 404T579
560Q602 589 631 630T683 705Q683 728 699 741T733 748Q750 743 744 717T711 654Q684 615 641 559T547 437T447 306T356 183T290 87Q276 63 259 47T230 32ZM555 135Q573 138 591 140T627 143Q632 144 637 144T646 145L709 151Q710 161 711 170T713 190Q714 196
714 202T716 216Q717 229 718 241T721 266Q723 275 724 283T727 298Q730 316 732 332T734 365Q612 270 555 135Z" />
<glyph unicode="&#xbf;" glyph-name="questiondown" horiz-adv-x="800" d="M492 400Q513 402 522 394T534 372T534 345T530 322Q529 318 529 317Q523 277 506 248T466 196T419 154Q395 135 374 114T337 67Q313 24 315 -13T339 -79T395 -126T468 -148T544 -141T610
-99Q629 -78 640 -49T652 11T641 64T601 95T530 89Q520 86 512 81T495 69Q469 49 456 47T430 52Q422 80 439 101T488 134T557 148T627 144T679 118Q714 84 719 42T708 -41T661 -118T593 -177T521 -205Q448 -214 389 -192T294 -123T258 -13Q258 38 275 73T318 135T373
183Q401 206 425 229T462 283Q467 293 468 305T471 330Q473 364 477 379T492 400ZM524 562Q529 561 532 559T536 552Q552 528 550 505T534 465T501 446T463 461Q452 473 450 491T456 528T481 556T524 562Z" />
<glyph unicode="&#xc0;" glyph-name="Agrave" horiz-adv-x="880" d="M133 -33Q117 -29 113 -11T109 29T114 68Q115 76 115 79Q125 167 149 236T201 373Q191 375 182 376T161 379Q141 381 121 384T86 398T66 428Q60 456 71 470T97 485Q110 485 121 474T130 437Q134
436 141 435Q165 431 191 428T239 434Q250 439 267 460T302 501Q313 515 319 521T331 534Q405 608 492 655T684 745Q692 748 706 745T727 731Q727 702 723 671T712 607Q705 566 700 521T698 435Q706 430 719 429T759 430Q782 432 804 431T830 409Q833 391 822 385T791
378T753 378Q752 378 751 378Q734 380 719 380T693 377Q675 263 702 108Q704 98 706 88T712 66Q724 21 724 2T717 -29Q694 -36 682 -26T664 4T654 41Q654 42 654 43Q653 48 653 53T651 62Q638 122 632 203T630 368Q598 372 552 374T455 378T357 377Q338 376 319
376T283 375Q255 341 231 288T191 172T171 49Q170 44 170 38T170 25Q170 10 169 -5T160 -28T133 -33ZM331 437Q374 431 427 430T535 430T631 438Q634 476 641 516Q647 556 651 595T655 670Q546 631 466 572T331 437ZM724 777Q707 790 691 802T657 826Q641 837 626
849T610 875Q610 885 622 897T647 908Q669 907 681 893T706 858Q715 843 724 828T741 796Q749 781 745 774T724 777Z" />
<glyph unicode="&#xc1;" glyph-name="Aacute" horiz-adv-x="880" d="M133 -33Q117 -29 113 -11T109 29T114 68Q115 76 115 79Q125 167 149 236T201 373Q191 375 182 376T161 379Q141 381 121 384T86 398T66 428Q60 456 71 470T97 485Q110 485 121 474T130 437Q134
436 141 435Q165 431 191 428T239 434Q250 439 267 460T302 501Q313 515 319 521T331 534Q405 608 492 655T684 745Q692 748 706 745T727 731Q727 702 723 671T712 607Q705 566 700 521T698 435Q706 430 719 429T759 430Q782 432 804 431T830 409Q833 391 822 385T791
378T753 378Q752 378 751 378Q734 380 719 380T693 377Q675 263 702 108Q704 98 706 88T712 66Q724 21 724 2T717 -29Q694 -36 682 -26T664 4T654 41Q654 42 654 43Q653 48 653 53T651 62Q638 122 632 203T630 368Q598 372 552 374T455 378T357 377Q338 376 319
376T283 375Q255 341 231 288T191 172T171 49Q170 44 170 38T170 25Q170 10 169 -5T160 -28T133 -33ZM331 437Q374 431 427 430T535 430T631 438Q634 476 641 516Q647 556 651 595T655 670Q546 631 466 572T331 437ZM666 775Q650 765 646 772T649 794Q657 811 666
826T684 856Q696 876 708 890T743 906Q757 907 768 895T780 873Q780 860 765 848T733 824Q715 812 699 800T666 775Z" />
<glyph unicode="&#xc2;" glyph-name="Acircumflex" horiz-adv-x="880" d="M133 -33Q117 -29 113 -11T109 29T114 68Q115 76 115 79Q125 167 149 236T201 373Q191 375 182 376T161 379Q141 381 121 384T86 398T66 428Q60 456 71 470T97 485Q110 485 121 474T130
437Q134 436 141 435Q165 431 191 428T239 434Q250 439 267 460T302 501Q313 515 319 521T331 534Q405 608 492 655T684 745Q692 748 706 745T727 731Q727 702 723 671T712 607Q705 566 700 521T698 435Q706 430 719 429T759 430Q782 432 804 431T830 409Q833 391
822 385T791 378T753 378Q752 378 751 378Q734 380 719 380T693 377Q675 263 702 108Q704 98 706 88T712 66Q724 21 724 2T717 -29Q694 -36 682 -26T664 4T654 41Q654 42 654 43Q653 48 653 53T651 62Q638 122 632 203T630 368Q598 372 552 374T455 378T357 377Q338
376 319 376T283 375Q255 341 231 288T191 172T171 49Q170 44 170 38T170 25Q170 10 169 -5T160 -28T133 -33ZM331 437Q374 431 427 430T535 430T631 438Q634 476 641 516Q647 556 651 595T655 670Q546 631 466 572T331 437ZM539 758Q553 780 577 812T617 872Q619
876 622 882T628 896Q634 912 642 921T661 931Q677 931 686 920T699 895Q701 890 703 886T707 877Q727 847 751 821T796 770Q791 754 779 754T762 758Q758 761 745 772T716 799T686 831T666 859Q653 838 635 818T601 783T580 762Q573 755 561 754T539 758Z" />
<glyph unicode="&#xc3;" glyph-name="Atilde" horiz-adv-x="880" d="M133 -33Q117 -29 113 -11T109 29T114 68Q115 76 115 79Q125 167 149 236T201 373Q191 375 182 376T161 379Q141 381 121 384T86 398T66 428Q60 456 71 470T97 485Q110 485 121 474T130 437Q134
436 141 435Q165 431 191 428T239 434Q250 439 267 460T302 501Q313 515 319 521T331 534Q405 608 492 655T684 745Q692 748 706 745T727 731Q727 702 723 671T712 607Q705 566 700 521T698 435Q706 430 719 429T759 430Q782 432 804 431T830 409Q833 391 822 385T791
378T753 378Q752 378 751 378Q734 380 719 380T693 377Q675 263 702 108Q704 98 706 88T712 66Q724 21 724 2T717 -29Q694 -36 682 -26T664 4T654 41Q654 42 654 43Q653 48 653 53T651 62Q638 122 632 203T630 368Q598 372 552 374T455 378T357 377Q338 376 319
376T283 375Q255 341 231 288T191 172T171 49Q170 44 170 38T170 25Q170 10 169 -5T160 -28T133 -33ZM331 437Q374 431 427 430T535 430T631 438Q634 476 641 516Q647 556 651 595T655 670Q546 631 466 572T331 437ZM749 779Q736 777 712 783T670 799Q648 813 632
823T599 835Q577 836 565 824T544 798Q537 811 543 827T563 857T596 874Q621 878 641 870T680 851Q695 842 710 835T743 830Q756 832 774 842T800 871Q813 862 812 841T796 802T749 779Z" />
<glyph unicode="&#xc4;" glyph-name="Adieresis" horiz-adv-x="880" d="M133 -33Q117 -29 113 -11T109 29T114 68Q115 76 115 79Q125 167 149 236T201 373Q191 375 182 376T161 379Q141 381 121 384T86 398T66 428Q60 456 71 470T97 485Q110 485 121 474T130 437Q134
436 141 435Q165 431 191 428T239 434Q250 439 267 460T302 501Q313 515 319 521T331 534Q405 608 492 655T684 745Q692 748 706 745T727 731Q727 702 723 671T712 607Q705 566 700 521T698 435Q706 430 719 429T759 430Q782 432 804 431T830 409Q833 391 822 385T791
378T753 378Q752 378 751 378Q734 380 719 380T693 377Q675 263 702 108Q704 98 706 88T712 66Q724 21 724 2T717 -29Q694 -36 682 -26T664 4T654 41Q654 42 654 43Q653 48 653 53T651 62Q638 122 632 203T630 368Q598 372 552 374T455 378T357 377Q338 376 319
376T283 375Q255 341 231 288T191 172T171 49Q170 44 170 38T170 25Q170 10 169 -5T160 -28T133 -33ZM331 437Q374 431 427 430T535 430T631 438Q634 476 641 516Q647 556 651 595T655 670Q546 631 466 572T331 437ZM574 775Q555 776 539 788T520 820T534 867Q560
887 585 877T623 843Q626 806 610 790T574 775ZM774 775Q755 776 739 788T720 820T734 867Q760 887 785 877T823 843Q826 806 810 790T774 775Z" />
<glyph unicode="&#xc5;" glyph-name="Aring" horiz-adv-x="880" d="M133 -33Q117 -29 113 -11T109 29T114 68Q115 76 115 79Q125 167 149 236T201 373Q191 375 182 376T161 379Q141 381 121 384T86 398T66 428Q60 456 71 470T97 485Q110 485 121 474T130 437Q134
436 141 435Q165 431 191 428T239 434Q250 439 267 460T302 501Q313 515 319 521T331 534Q405 608 492 655T684 745Q692 748 706 745T727 731Q727 702 723 671T712 607Q705 566 700 521T698 435Q706 430 719 429T759 430Q782 432 804 431T830 409Q833 391 822 385T791
378T753 378Q752 378 751 378Q734 380 719 380T693 377Q675 263 702 108Q704 98 706 88T712 66Q724 21 724 2T717 -29Q694 -36 682 -26T664 4T654 41Q654 42 654 43Q653 48 653 53T651 62Q638 122 632 203T630 368Q598 372 552 374T455 378T357 377Q338 376 319
376T283 375Q255 341 231 288T191 172T171 49Q170 44 170 38T170 25Q170 10 169 -5T160 -28T133 -33ZM331 437Q374 431 427 430T535 430T631 438Q634 476 641 516Q647 556 651 595T655 670Q546 631 466 572T331 437ZM699 734Q658 737 635 760T612 827Q612 857 631
880T679 910Q716 921 744 908T786 867T795 802Q787 768 762 750T699 734ZM699 772Q719 771 736 789T754 827Q754 838 748 849T734 869Q694 882 673 864T652 823Q652 805 663 789T699 772Z" />
<glyph unicode="&#xc6;" glyph-name="AE" horiz-adv-x="1326" d="M133 -33Q117 -29 113 -11T109 29T114 68Q115 76 115 79Q125 167 149 236T201 373Q191 375 182 376T161 379Q141 381 121 384T86 398T66 428Q60 456 71 470T97 485Q110 485 121 474T130 437Q134
436 141 435Q165 431 191 428T239 434Q250 439 267 460T302 501Q313 515 319 521T331 534Q405 608 492 655T684 745Q692 748 706 745T727 731Q727 708 724 680Q756 703 799 717T892 734Q947 736 1005 724T1113 688T1191 634Q1203 622 1214 601T1228 558T1222 519T1183
496L1178 497Q1165 507 1163 515T1165 538Q1169 556 1167 565Q1162 590 1134 611T1066 647T984 670T909 679Q875 679 840 670T774 643T725 603T706 552T730 495Q761 460 820 442T941 420Q947 419 954 419T967 421Q972 422 975 422Q993 424 1012 424T1047 411Q1042
375 1015 367T920 369Q917 369 914 369T907 371Q897 372 888 373T872 373Q828 372 792 352T735 299T712 223Q710 156 745 113T838 50T961 28Q1012 28 1061 39T1152 71T1218 124Q1219 126 1222 131T1230 150Q1244 182 1254 194T1276 208Q1302 209 1305 189T1290
131Q1283 116 1270 99T1244 68Q1195 19 1117 -4T958 -25Q886 -22 820 2T711 71Q711 68 712 66Q724 21 724 2T717 -29Q694 -36 682 -26T664 4T654 41Q654 42 654 43Q653 48 653 53T651 62Q638 122 632 203T630 368Q598 372 552 374T455 378T357 377Q338 376 319
376T283 375Q255 341 231 288T191 172T171 49Q170 44 170 38T170 25Q170 10 169 -5T160 -28T133 -33ZM331 437Q374 431 427 430T535 430T631 438Q634 476 641 516Q647 556 651 595T655 670Q546 631 466 572T331 437ZM689 329Q715 367 761 399Q754 404 747 410T729
424Q720 431 711 437T694 451Q692 422 691 391T689 329Z" />
<glyph unicode="&#xc7;" glyph-name="Ccedilla" horiz-adv-x="804" d="M370 -26Q287 -20 222 21T117 133T72 292Q65 381 85 457T147 592T252 686T391 729Q486 739 557 708T654 615Q670 575 664 535T634 464T577 416T502 406Q475 411 450 436T421 489Q419 505 422
528T438 568T478 582Q489 574 490 561T487 520Q483 499 484 483T509 461Q534 455 557 470T593 512T603 571Q599 605 570 630T495 667T396 675Q312 667 250 615T156 481T131 296Q135 243 154 193T210 104T300 45T424 29Q508 36 576 77T687 191Q691 199 694 207T699
224Q705 243 714 261T747 292Q766 278 771 264T769 228T739 170Q709 115 657 68T533 -5T370 -26ZM393 -200Q368 -200 345 -190T307 -170Q303 -165 303 -157T313 -149Q355 -164 390 -164Q410 -164 427 -152T445 -122Q445 -108 436 -96T413 -81Q406 -83 388 -83T363
-74Q366 -61 371 -56T381 -43Q392 -28 400 -13T417 17Q433 25 444 12Q444 1 436 -14T423 -47Q452 -54 470 -73T489 -122Q489 -158 470 -167Q463 -186 439 -193T393 -200Z" />
<glyph unicode="&#xc8;" glyph-name="Egrave" horiz-adv-x="751" d="M383 -25Q308 -22 241 3T129 78T78 199Q69 316 186 399Q179 404 172 410T154 424Q126 445 102 469T74 537Q69 589 100 632T188 703T317 734Q372 736 430 724T538 688T616 634Q628 622 639 601T653
558T647 519T608 496L603 497Q590 507 588 515T590 538Q594 556 592 565Q587 590 559 611T491 647T409 670T334 679Q300 679 265 670T199 643T150 603T131 552T155 495Q186 460 245 442T366 420Q372 419 379 419T392 421Q397 422 400 422Q418 424 437 424T472 411Q467
375 440 367T345 369Q342 369 339 369T332 371Q322 372 313 373T297 373Q252 372 217 352T160 299T137 223Q135 156 170 113T263 50T386 28Q437 28 486 39T577 71T643 124Q644 126 647 131T655 150Q669 182 679 194T701 208Q727 209 730 189T715 131Q708 116 695
99T669 68Q620 19 542 -4T383 -25ZM374 757Q357 770 341 782T307 806Q291 817 276 829T260 855Q260 865 272 877T297 888Q319 887 331 873T356 838Q365 823 374 808T391 776Q399 761 395 754T374 757Z" />
<glyph unicode="&#xc9;" glyph-name="Eacute" horiz-adv-x="751" d="M383 -25Q308 -22 241 3T129 78T78 199Q69 316 186 399Q179 404 172 410T154 424Q126 445 102 469T74 537Q69 589 100 632T188 703T317 734Q372 736 430 724T538 688T616 634Q628 622 639 601T653
558T647 519T608 496L603 497Q590 507 588 515T590 538Q594 556 592 565Q587 590 559 611T491 647T409 670T334 679Q300 679 265 670T199 643T150 603T131 552T155 495Q186 460 245 442T366 420Q372 419 379 419T392 421Q397 422 400 422Q418 424 437 424T472 411Q467
375 440 367T345 369Q342 369 339 369T332 371Q322 372 313 373T297 373Q252 372 217 352T160 299T137 223Q135 156 170 113T263 50T386 28Q437 28 486 39T577 71T643 124Q644 126 647 131T655 150Q669 182 679 194T701 208Q727 209 730 189T715 131Q708 116 695
99T669 68Q620 19 542 -4T383 -25ZM336 755Q320 745 316 752T319 774Q327 791 336 806T354 836Q366 856 378 870T413 886Q427 887 438 875T450 853Q450 840 435 828T403 804Q385 792 369 780T336 755Z" />
<glyph unicode="&#xca;" glyph-name="Ecircumflex" horiz-adv-x="751" d="M383 -25Q308 -22 241 3T129 78T78 199Q69 316 186 399Q179 404 172 410T154 424Q126 445 102 469T74 537Q69 589 100 632T188 703T317 734Q372 736 430 724T538 688T616 634Q628 622 639
601T653 558T647 519T608 496L603 497Q590 507 588 515T590 538Q594 556 592 565Q587 590 559 611T491 647T409 670T334 679Q300 679 265 670T199 643T150 603T131 552T155 495Q186 460 245 442T366 420Q372 419 379 419T392 421Q397 422 400 422Q418 424 437 424T472
411Q467 375 440 367T345 369Q342 369 339 369T332 371Q322 372 313 373T297 373Q252 372 217 352T160 299T137 223Q135 156 170 113T263 50T386 28Q437 28 486 39T577 71T643 124Q644 126 647 131T655 150Q669 182 679 194T701 208Q727 209 730 189T715 131Q708
116 695 99T669 68Q620 19 542 -4T383 -25ZM237 748Q251 770 275 802T315 862Q317 866 320 872T326 886Q332 902 340 911T359 921Q375 921 384 910T397 885Q399 880 401 876T405 867Q425 837 449 811T494 760Q489 744 477 744T460 748Q456 751 443 762T414 789T384
821T364 849Q351 828 333 808T299 773T278 752Q271 745 259 744T237 748Z" />
<glyph unicode="&#xcb;" glyph-name="Edieresis" horiz-adv-x="751" d="M383 -25Q308 -22 241 3T129 78T78 199Q69 316 186 399Q179 404 172 410T154 424Q126 445 102 469T74 537Q69 589 100 632T188 703T317 734Q372 736 430 724T538 688T616 634Q628 622 639
601T653 558T647 519T608 496L603 497Q590 507 588 515T590 538Q594 556 592 565Q587 590 559 611T491 647T409 670T334 679Q300 679 265 670T199 643T150 603T131 552T155 495Q186 460 245 442T366 420Q372 419 379 419T392 421Q397 422 400 422Q418 424 437 424T472
411Q467 375 440 367T345 369Q342 369 339 369T332 371Q322 372 313 373T297 373Q252 372 217 352T160 299T137 223Q135 156 170 113T263 50T386 28Q437 28 486 39T577 71T643 124Q644 126 647 131T655 150Q669 182 679 194T701 208Q727 209 730 189T715 131Q708
116 695 99T669 68Q620 19 542 -4T383 -25ZM264 755Q245 756 229 768T210 800T224 847Q250 867 275 857T313 823Q316 786 300 770T264 755ZM464 755Q445 756 429 768T410 800T424 847Q450 867 475 857T513 823Q516 786 500 770T464 755Z" />
<glyph unicode="&#xcc;" glyph-name="Igrave" horiz-adv-x="563" d="M318 10Q280 -18 241 -19T166 -2T104 47T63 110Q45 151 44 177T56 221Q82 220 92 209T112 160Q115 143 120 130Q131 105 152 82T198 46T250 39T297 78Q263 108 238 160T197 277T179 413T184
550T217 672T280 762Q313 791 341 791T391 770T430 718T455 649T467 578Q473 499 466 413T440 247T390 104T318 10ZM328 130Q359 181 379 252T407 406T409 574Q408 590 403 618T388 675T366 720T334 725Q298 704 276 660T244 559T235 439T248 316T279 208T328 130ZM354
817Q337 830 321 842T287 866Q271 877 256 889T240 915Q240 925 252 937T277 948Q299 947 311 933T336 898Q345 883 354 868T371 836Q379 821 375 814T354 817Z" />
<glyph unicode="&#xcd;" glyph-name="Iacute" horiz-adv-x="563" d="M318 10Q280 -18 241 -19T166 -2T104 47T63 110Q45 151 44 177T56 221Q82 220 92 209T112 160Q115 143 120 130Q131 105 152 82T198 46T250 39T297 78Q263 108 238 160T197 277T179 413T184
550T217 672T280 762Q313 791 341 791T391 770T430 718T455 649T467 578Q473 499 466 413T440 247T390 104T318 10ZM328 130Q359 181 379 252T407 406T409 574Q408 590 403 618T388 675T366 720T334 725Q298 704 276 660T244 559T235 439T248 316T279 208T328 130ZM326
817Q310 807 306 814T309 836Q317 853 326 868T344 898Q356 918 368 932T403 948Q417 949 428 937T440 915Q440 902 425 890T393 866Q375 854 359 842T326 817Z" />
<glyph unicode="&#xce;" glyph-name="Icircumflex" horiz-adv-x="563" d="M318 10Q280 -18 241 -19T166 -2T104 47T63 110Q45 151 44 177T56 221Q82 220 92 209T112 160Q115 143 120 130Q131 105 152 82T198 46T250 39T297 78Q263 108 238 160T197 277T179 413T184
550T217 672T280 762Q313 791 341 791T391 770T430 718T455 649T467 578Q473 499 466 413T440 247T390 104T318 10ZM328 130Q359 181 379 252T407 406T409 574Q408 590 403 618T388 675T366 720T334 725Q298 704 276 660T244 559T235 439T248 316T279 208T328 130ZM199
797Q213 819 237 851T277 911Q279 915 282 921T288 935Q294 951 302 960T321 970Q337 970 346 959T359 934Q361 929 363 925T367 916Q387 886 411 860T456 809Q451 793 439 793T422 797Q418 800 405 811T376 838T346 870T326 898Q313 877 295 857T261 822T240 801Q233
794 221 793T199 797Z" />
<glyph unicode="&#xcf;" glyph-name="Idieresis" horiz-adv-x="563" d="M318 10Q280 -18 241 -19T166 -2T104 47T63 110Q45 151 44 177T56 221Q82 220 92 209T112 160Q115 143 120 130Q131 105 152 82T198 46T250 39T297 78Q263 108 238 160T197 277T179 413T184
550T217 672T280 762Q313 791 341 791T391 770T430 718T455 649T467 578Q473 499 466 413T440 247T390 104T318 10ZM328 130Q359 181 379 252T407 406T409 574Q408 590 403 618T388 675T366 720T334 725Q298 704 276 660T244 559T235 439T248 316T279 208T328 130ZM221
835Q202 836 186 848T167 880T181 927Q207 947 232 937T270 903Q273 866 257 850T221 835ZM421 835Q402 836 386 848T367 880T381 927Q407 947 432 937T470 903Q473 866 457 850T421 835Z" />
<glyph unicode="&#xd0;" glyph-name="Eth" horiz-adv-x="905" d="M98 219Q99 241 109 256T151 277Q175 282 206 286T268 293Q269 321 269 348T265 397Q226 402 186 410T116 435T71 482T68 561Q85 627 149 671T303 724Q416 735 516 713T691 636T805 498T833 299Q826
224 783 165T673 65T526 4T362 -17T204 9Q164 23 152 32T144 67Q159 81 174 81T211 66Q222 59 232 55Q296 37 367 37T507 54T633 105T729 187T774 296Q785 383 763 448T695 558T587 629T454 666Q402 673 344 671T234 653T150 598Q126 570 125 542T141 493T189 461T262
458Q269 469 268 506Q267 524 270 540T296 557Q318 557 321 541T323 507Q323 506 323 505Q322 494 322 482T326 461Q339 455 357 457T396 465Q397 465 397 465Q415 470 432 472T462 471T478 451Q482 434 467 425T428 413T381 408Q366 407 353 406T330 401Q324 381
323 354T323 298Q345 300 363 301T393 304Q407 305 426 305T461 302T481 293Q486 275 469 267T426 255T377 251Q370 250 364 250T352 249Q338 248 323 246Q323 227 323 212T325 192Q327 149 326 128T316 96T292 75Q273 89 268 114T266 194Q266 199 266 211T268
239Q223 233 180 228T98 219Z" />
<glyph unicode="&#xd1;" glyph-name="Ntilde" horiz-adv-x="845" d="M81 -119Q30 -137 -5 -136T-42 -110Q-43 -97 -29 -90T7 -78T44 -72Q45 -72 45 -72Q56 -70 59 -70T64 -68Q87 -60 105 -45T134 -13Q155 22 162 76T167 196T161 330V331Q157 394 155 455T158 569T179
663Q216 756 278 728Q286 713 283 704T258 674L257 673Q247 665 240 656T233 633Q234 612 257 587T305 538Q314 529 323 521T337 505Q356 484 372 465T403 426Q414 413 424 400T443 375Q466 347 487 322T527 270Q558 233 586 197T643 129Q638 398 683 574T822 825Q844
844 867 821L869 817Q868 798 857 784T833 757Q824 748 820 743T811 732Q768 672 742 573T707 344T710 66Q711 61 711 55T713 43Q718 6 716 -13T700 -47L694 -49Q669 -44 658 -24T628 26Q546 166 441 294T226 538Q211 484 212 417T219 279Q219 277 219 274Q223
210 224 148T215 33T174 -56Q171 -60 157 -72T122 -98T81 -119ZM589 749Q576 747 552 753T510 769Q488 783 472 793T439 805Q417 806 405 794T384 768Q377 781 383 797T403 827T436 844Q461 848 481 840T520 821Q535 812 550 805T583 800Q596 802 614 812T640 841Q653
832 652 811T636 772T589 749Z" />
<glyph unicode="&#xd2;" glyph-name="Ograve" horiz-adv-x="852" d="M383 -32Q313 -27 257 4T159 87T93 201T63 332T73 468T128 593Q136 605 152 625T190 665T235 699T283 716T327 703Q330 704 334 707Q357 720 379 729T428 742T498 741Q589 732 655 675T756 527T782
324Q776 243 743 176T656 60T532 -13T383 -32ZM376 23Q453 15 514 37T620 104T691 205T723 324Q732 421 705 499T623 628T492 687Q431 694 383 670T310 601T296 501Q303 467 328 442T378 402Q383 400 388 398T404 393Q422 389 440 380T463 346L460 341Q443 327
421 328T379 339T343 357Q320 371 298 394T263 436Q238 478 238 532T264 644Q204 615 170 560T125 437T126 300T170 170T255 70T376 23ZM454 777Q437 790 421 802T387 826Q371 837 356 849T340 875Q340 885 352 897T377 908Q399 907 411 893T436 858Q445 843 454
828T471 796Q479 781 475 774T454 777Z" />
<glyph unicode="&#xd3;" glyph-name="Oacute" horiz-adv-x="852" d="M383 -32Q313 -27 257 4T159 87T93 201T63 332T73 468T128 593Q136 605 152 625T190 665T235 699T283 716T327 703Q330 704 334 707Q357 720 379 729T428 742T498 741Q589 732 655 675T756 527T782
324Q776 243 743 176T656 60T532 -13T383 -32ZM376 23Q453 15 514 37T620 104T691 205T723 324Q732 421 705 499T623 628T492 687Q431 694 383 670T310 601T296 501Q303 467 328 442T378 402Q383 400 388 398T404 393Q422 389 440 380T463 346L460 341Q443 327
421 328T379 339T343 357Q320 371 298 394T263 436Q238 478 238 532T264 644Q204 615 170 560T125 437T126 300T170 170T255 70T376 23ZM416 777Q400 767 396 774T399 796Q407 813 416 828T434 858Q446 878 458 892T493 908Q507 909 518 897T530 875Q530 862 515
850T483 826Q465 814 449 802T416 777Z" />
<glyph unicode="&#xd4;" glyph-name="Ocircumflex" horiz-adv-x="852" d="M383 -32Q313 -27 257 4T159 87T93 201T63 332T73 468T128 593Q136 605 152 625T190 665T235 699T283 716T327 703Q330 704 334 707Q357 720 379 729T428 742T498 741Q589 732 655 675T756
527T782 324Q776 243 743 176T656 60T532 -13T383 -32ZM376 23Q453 15 514 37T620 104T691 205T723 324Q732 421 705 499T623 628T492 687Q431 694 383 670T310 601T296 501Q303 467 328 442T378 402Q383 400 388 398T404 393Q422 389 440 380T463 346L460 341Q443
327 421 328T379 339T343 357Q320 371 298 394T263 436Q238 478 238 532T264 644Q204 615 170 560T125 437T126 300T170 170T255 70T376 23ZM299 757Q313 779 337 811T377 871Q379 875 382 881T388 895Q394 911 402 920T421 930Q437 930 446 919T459 894Q461 889
463 885T467 876Q487 846 511 820T556 769Q551 753 539 753T522 757Q518 760 505 771T476 798T446 830T426 858Q413 837 395 817T361 782T340 761Q333 754 321 753T299 757Z" />
<glyph unicode="&#xd5;" glyph-name="Otilde" horiz-adv-x="852" d="M383 -32Q313 -27 257 4T159 87T93 201T63 332T73 468T128 593Q136 605 152 625T190 665T235 699T283 716T327 703Q330 704 334 707Q357 720 379 729T428 742T498 741Q589 732 655 675T756 527T782
324Q776 243 743 176T656 60T532 -13T383 -32ZM376 23Q453 15 514 37T620 104T691 205T723 324Q732 421 705 499T623 628T492 687Q431 694 383 670T310 601T296 501Q303 467 328 442T378 402Q383 400 388 398T404 393Q422 389 440 380T463 346L460 341Q443 327
421 328T379 339T343 357Q320 371 298 394T263 436Q238 478 238 532T264 644Q204 615 170 560T125 437T126 300T170 170T255 70T376 23ZM499 799Q486 797 462 803T420 819Q398 833 382 843T349 855Q327 856 315 844T294 818Q287 831 293 847T313 877T346 894Q371
898 391 890T430 871Q445 862 460 855T493 850Q506 852 524 862T550 891Q563 882 562 861T546 822T499 799Z" />
<glyph unicode="&#xd6;" glyph-name="Odieresis" horiz-adv-x="852" d="M383 -32Q313 -27 257 4T159 87T93 201T63 332T73 468T128 593Q136 605 152 625T190 665T235 699T283 716T327 703Q330 704 334 707Q357 720 379 729T428 742T498 741Q589 732 655 675T756
527T782 324Q776 243 743 176T656 60T532 -13T383 -32ZM376 23Q453 15 514 37T620 104T691 205T723 324Q732 421 705 499T623 628T492 687Q431 694 383 670T310 601T296 501Q303 467 328 442T378 402Q383 400 388 398T404 393Q422 389 440 380T463 346L460 341Q443
327 421 328T379 339T343 357Q320 371 298 394T263 436Q238 478 238 532T264 644Q204 615 170 560T125 437T126 300T170 170T255 70T376 23ZM324 795Q305 796 289 808T270 840T284 887Q310 907 335 897T373 863Q376 826 360 810T324 795ZM524 795Q505 796 489 808T470
840T484 887Q510 907 535 897T573 863Q576 826 560 810T524 795Z" />
<glyph unicode="&#xd7;" glyph-name="multiply" horiz-adv-x="578" d="M118 138Q102 143 96 156T93 178Q137 218 172 258T250 332Q237 346 220 363T185 396Q178 404 170 411T156 425Q139 441 125 459T110 494T132 524Q158 502 180 480T223 435Q240 418 255 401T286
369Q303 379 320 399T351 433Q367 453 384 473T424 507Q430 511 441 514T463 515T480 495Q443 448 405 412T322 333Q351 306 380 274T443 208Q447 204 450 201T458 194Q472 181 480 171T486 144Q475 138 467 139T451 142Q447 143 442 144T431 145Q386 192 353 229T283
297Q247 259 211 215T118 138Z" />
<glyph unicode="&#xd8;" glyph-name="Oslash" horiz-adv-x="852" d="M249 -33Q239 -34 237 -21T240 14Q187 47 149 98T88 212T63 340T74 472T128 593Q136 605 152 625T190 665T235 699T283 716T327 703Q330 704 334 707Q357 720 379 729T428 742T498 741Q547 736
591 716Q602 730 623 727Q633 726 638 716T639 687Q712 634 751 539T782 324Q776 243 743 176T656 60T532 -13T383 -32Q328 -28 279 -7Q272 -18 264 -25T249 -33ZM376 23Q453 15 514 37T620 104T691 205T723 324Q732 423 704 503T618 632Q618 632 618 632T618 632Q604
603 580 559T525 460T463 349Q463 347 463 346L460 341Q459 340 457 339Q426 283 397 229T344 126T304 42Q338 27 376 23ZM261 66Q289 127 323 194T396 333Q381 337 367 344T343 357Q320 371 298 394T263 436Q238 478 238 532T264 644Q203 614 169 559T124 434T127
295T174 164T261 66ZM425 387Q446 426 467 465T510 542L573 662Q535 682 492 687Q431 694 383 670T310 601T296 501Q303 467 328 442T378 402Q383 400 388 398T404 393Q409 392 414 391T425 387Z" />
<glyph unicode="&#xd9;" glyph-name="Ugrave" horiz-adv-x="853" d="M702 6Q674 28 660 70T635 155Q622 146 613 134T595 108Q586 94 581 87T568 72Q522 25 464 3T346 -16T236 15T155 97T123 230Q123 275 129 321T144 412Q154 466 160 517T160 613Q154 655 130
671Q122 676 98 673Q86 672 73 672T55 685Q48 693 51 706T67 721Q103 735 136 728T193 695T223 631Q230 586 223 532T206 421V419Q206 417 205 411Q195 354 189 297T189 191T222 103Q250 63 292 49T380 40T469 70T542 127Q560 149 578 178T610 241T629 305Q631
318 631 333T630 365V366Q629 377 629 388T629 410Q630 431 632 453T635 497Q637 522 639 547T642 597Q642 598 642 604Q641 616 641 637T644 680T656 715T684 725Q704 720 706 676T701 532Q700 503 698 478T694 430Q692 403 691 380T689 336Q689 288 691 239T699
148T719 77T754 39Q759 37 764 37T780 35Q794 35 810 32T827 10Q828 -10 812 -15T772 -18T729 -7T702 6ZM444 747Q427 760 411 772T377 796Q361 807 346 819T330 845Q330 855 342 867T367 878Q389 877 401 863T426 828Q435 813 444 798T461 766Q469 751 465 744T444
747Z" />
<glyph unicode="&#xda;" glyph-name="Uacute" horiz-adv-x="853" d="M702 6Q674 28 660 70T635 155Q622 146 613 134T595 108Q586 94 581 87T568 72Q522 25 464 3T346 -16T236 15T155 97T123 230Q123 275 129 321T144 412Q154 466 160 517T160 613Q154 655 130
671Q122 676 98 673Q86 672 73 672T55 685Q48 693 51 706T67 721Q103 735 136 728T193 695T223 631Q230 586 223 532T206 421V419Q206 417 205 411Q195 354 189 297T189 191T222 103Q250 63 292 49T380 40T469 70T542 127Q560 149 578 178T610 241T629 305Q631
318 631 333T630 365V366Q629 377 629 388T629 410Q630 431 632 453T635 497Q637 522 639 547T642 597Q642 598 642 604Q641 616 641 637T644 680T656 715T684 725Q704 720 706 676T701 532Q700 503 698 478T694 430Q692 403 691 380T689 336Q689 288 691 239T699
148T719 77T754 39Q759 37 764 37T780 35Q794 35 810 32T827 10Q828 -10 812 -15T772 -18T729 -7T702 6ZM394 747Q378 737 374 744T377 766Q385 783 394 798T412 828Q424 848 436 862T471 878Q485 879 496 867T508 845Q508 832 493 820T461 796Q443 784 427 772T394
747Z" />
<glyph unicode="&#xdb;" glyph-name="Ucircumflex" horiz-adv-x="853" d="M702 6Q674 28 660 70T635 155Q622 146 613 134T595 108Q586 94 581 87T568 72Q522 25 464 3T346 -16T236 15T155 97T123 230Q123 275 129 321T144 412Q154 466 160 517T160 613Q154 655
130 671Q122 676 98 673Q86 672 73 672T55 685Q48 693 51 706T67 721Q103 735 136 728T193 695T223 631Q230 586 223 532T206 421V419Q206 417 205 411Q195 354 189 297T189 191T222 103Q250 63 292 49T380 40T469 70T542 127Q560 149 578 178T610 241T629 305Q631
318 631 333T630 365V366Q629 377 629 388T629 410Q630 431 632 453T635 497Q637 522 639 547T642 597Q642 598 642 604Q641 616 641 637T644 680T656 715T684 725Q704 720 706 676T701 532Q700 503 698 478T694 430Q692 403 691 380T689 336Q689 288 691 239T699
148T719 77T754 39Q759 37 764 37T780 35Q794 35 810 32T827 10Q828 -10 812 -15T772 -18T729 -7T702 6ZM285 733Q299 755 323 787T363 847Q365 851 368 857T374 871Q380 887 388 896T407 906Q423 906 432 895T445 870Q447 865 449 861T453 852Q473 822 497 796T542
745Q537 729 525 729T508 733Q504 736 491 747T462 774T432 806T412 834Q399 813 381 793T347 758T326 737Q319 730 307 729T285 733Z" />
<glyph unicode="&#xdc;" glyph-name="Udieresis" horiz-adv-x="853" d="M702 6Q674 28 660 70T635 155Q622 146 613 134T595 108Q586 94 581 87T568 72Q522 25 464 3T346 -16T236 15T155 97T123 230Q123 275 129 321T144 412Q154 466 160 517T160 613Q154 655
130 671Q122 676 98 673Q86 672 73 672T55 685Q48 693 51 706T67 721Q103 735 136 728T193 695T223 631Q230 586 223 532T206 421V419Q206 417 205 411Q195 354 189 297T189 191T222 103Q250 63 292 49T380 40T469 70T542 127Q560 149 578 178T610 241T629 305Q631
318 631 333T630 365V366Q629 377 629 388T629 410Q630 431 632 453T635 497Q637 522 639 547T642 597Q642 598 642 604Q641 616 641 637T644 680T656 715T684 725Q704 720 706 676T701 532Q700 503 698 478T694 430Q692 403 691 380T689 336Q689 288 691 239T699
148T719 77T754 39Q759 37 764 37T780 35Q794 35 810 32T827 10Q828 -10 812 -15T772 -18T729 -7T702 6ZM324 760Q305 761 289 773T270 805T284 852Q310 872 335 862T373 828Q376 791 360 775T324 760ZM524 760Q505 761 489 773T470 805T484 852Q510 872 535 862T573
828Q576 791 560 775T524 760Z" />
<glyph unicode="&#xdd;" glyph-name="Yacute" horiz-adv-x="857" d="M486 -171Q379 -171 336 -80Q331 -70 331 -50T334 -10T351 23T382 31Q400 27 400 12T398 -20Q396 -31 395 -42T395 -63Q403 -99 431 -112T494 -122T560 -97T604 -44Q619 -13 626 28T638 114Q641
140 644 165T653 215Q634 207 613 186T576 155Q536 130 489 119T397 111T315 138T258 201T243 304Q245 333 252 363T269 424Q274 440 278 456T286 489Q287 494 288 498T291 508Q298 536 304 566T310 624T297 671Q278 700 245 702T178 693Q154 684 133 663T98 613T79
555T81 499Q89 473 105 461T145 437Q156 431 169 424T196 408Q183 381 157 378T101 389T48 434Q21 469 19 513T32 601T78 682Q109 719 149 741T234 763T323 727Q361 697 367 653T361 556T334 451L333 449Q323 415 314 382T301 319Q292 237 329 196T444 164Q527
173 589 229T679 375Q695 423 702 472T717 573Q722 614 728 655T744 740Q748 757 765 762T786 757Q801 723 796 683T782 601V600Q779 585 776 570T771 538Q764 493 757 450T742 365Q733 311 724 256T705 137Q696 82 686 28T655 -72T594 -144T486 -171ZM488 747Q472
737 468 744T471 766Q479 783 488 798T506 828Q518 848 530 862T565 878Q579 879 590 867T602 845Q602 832 587 820T555 796Q537 784 521 772T488 747Z" />
<glyph unicode="&#xde;" glyph-name="Thorn" horiz-adv-x="761" d="M322 7Q294 10 261 10T202 8Q198 8 194 8T186 7Q162 5 144 5T110 8Q109 31 127 40T169 56Q174 58 178 59T187 62Q203 67 214 81T226 123Q226 145 226 193T225 301T224 421T223 526Q223 580 219
613T195 654Q187 657 179 658T162 660Q148 662 137 665T117 681Q117 697 130 703T161 710T197 712Q199 712 200 712Q212 712 226 712T257 714Q288 715 320 716T377 715T411 704Q411 690 396 681T360 668T324 659Q300 654 291 639T279 578Q276 511 276 432T277 274T284
128Q286 107 289 88T316 63Q333 59 356 55T399 44T429 23Q426 10 410 6T373 3T332 6Q325 7 322 7ZM328 192Q292 196 286 207T290 227T318 236Q369 232 419 234T512 250T581 299T609 394Q611 454 578 491T483 535T337 515Q324 511 311 501T281 490Q274 509 287 528T341
560Q411 582 472 579T580 552T650 484T670 382Q665 316 632 276T550 216T442 192T328 192Z" />
<glyph unicode="&#xdf;" glyph-name="germandbls" horiz-adv-x="771" d="M404 -29Q384 -29 371 -19T358 14Q364 84 402 95Q419 100 428 92T437 65Q437 48 450 48Q481 48 508 71T555 130T587 206T599 282Q599 313 587 339T544 370Q524 374 487 363T414 331Q397
321 374 317T329 317T296 339Q315 358 339 366T386 380T423 391Q446 402 471 425T512 479T528 538T496 588Q481 599 454 604T398 608Q346 605 307 575T250 494T239 374Q240 370 241 362Q246 317 251 259T250 126Q248 102 241 74T220 21T189 -17T147 -26Q144 -11
150 6T165 43Q175 64 185 90T197 150Q202 224 199 282T187 383Q179 429 189 475T225 560T290 624T381 653Q479 660 535 627T587 538Q586 520 579 496T559 449T525 410Q566 415 592 404T636 370Q647 354 654 331T661 281Q661 235 645 182T597 80T517 2T404 -29Z"
/>
<glyph unicode="&#xe0;" glyph-name="agrave" horiz-adv-x="717" d="M95 -24Q80 -20 76 -3T73 34T77 68Q78 72 78 73Q86 146 105 203T147 314Q140 316 133 316T118 318Q93 321 69 328T37 362Q33 384 41 399T65 414Q79 414 86 403T94 375Q98 374 106 373Q125 369
145 367T182 372Q193 377 215 406T265 468Q303 511 379 560T554 644Q562 647 573 644T593 629Q593 604 589 578T580 525Q579 521 579 516T577 507Q572 475 568 438T566 372Q571 368 581 368T614 369Q646 371 659 367T675 348Q678 331 668 325T642 318T609 318H608H606Q593
319 581 319T561 317Q554 271 556 216T569 98Q571 90 573 81T577 64Q588 27 589 9T581 -19L580 -20Q560 -26 550 -17T534 9T525 41Q525 42 525 43Q524 47 524 51T523 59Q512 108 507 174T505 309Q479 312 441 314T362 318T281 317Q265 316 249 316T219 315Q197
286 178 243T145 149T128 49Q127 43 127 29Q127 17 126 3T118 -19T95 -24ZM265 374Q300 370 343 369T429 368T506 375Q508 392 510 410T517 451Q522 483 526 514T529 573Q446 543 379 490T265 374ZM581 677Q564 690 548 702T514 726Q498 737 483 749T467 775Q467
785 479 797T504 808Q526 807 538 793T563 758Q572 743 581 728T598 696Q606 681 602 674T581 677Z" />
<glyph unicode="&#xe1;" glyph-name="aacute" horiz-adv-x="717" d="M95 -24Q80 -20 76 -3T73 34T77 68Q78 72 78 73Q86 146 105 203T147 314Q140 316 133 316T118 318Q93 321 69 328T37 362Q33 384 41 399T65 414Q79 414 86 403T94 375Q98 374 106 373Q125 369
145 367T182 372Q193 377 215 406T265 468Q303 511 379 560T554 644Q562 647 573 644T593 629Q593 604 589 578T580 525Q579 521 579 516T577 507Q572 475 568 438T566 372Q571 368 581 368T614 369Q646 371 659 367T675 348Q678 331 668 325T642 318T609 318H608H606Q593
319 581 319T561 317Q554 271 556 216T569 98Q571 90 573 81T577 64Q588 27 589 9T581 -19L580 -20Q560 -26 550 -17T534 9T525 41Q525 42 525 43Q524 47 524 51T523 59Q512 108 507 174T505 309Q479 312 441 314T362 318T281 317Q265 316 249 316T219 315Q197
286 178 243T145 149T128 49Q127 43 127 29Q127 17 126 3T118 -19T95 -24ZM265 374Q300 370 343 369T429 368T506 375Q508 392 510 410T517 451Q522 483 526 514T529 573Q446 543 379 490T265 374ZM538 677Q522 667 518 674T521 696Q529 713 538 728T556 758Q568
778 580 792T615 808Q629 809 640 797T652 775Q652 762 637 750T605 726Q587 714 571 702T538 677Z" />
<glyph unicode="&#xe2;" glyph-name="acircumflex" horiz-adv-x="717" d="M95 -24Q80 -20 76 -3T73 34T77 68Q78 72 78 73Q86 146 105 203T147 314Q140 316 133 316T118 318Q93 321 69 328T37 362Q33 384 41 399T65 414Q79 414 86 403T94 375Q98 374 106 373Q125
369 145 367T182 372Q193 377 215 406T265 468Q303 511 379 560T554 644Q562 647 573 644T593 629Q593 604 589 578T580 525Q579 521 579 516T577 507Q572 475 568 438T566 372Q571 368 581 368T614 369Q646 371 659 367T675 348Q678 331 668 325T642 318T609 318H608H606Q593
319 581 319T561 317Q554 271 556 216T569 98Q571 90 573 81T577 64Q588 27 589 9T581 -19L580 -20Q560 -26 550 -17T534 9T525 41Q525 42 525 43Q524 47 524 51T523 59Q512 108 507 174T505 309Q479 312 441 314T362 318T281 317Q265 316 249 316T219 315Q197
286 178 243T145 149T128 49Q127 43 127 29Q127 17 126 3T118 -19T95 -24ZM265 374Q300 370 343 369T429 368T506 375Q508 392 510 410T517 451Q522 483 526 514T529 573Q446 543 379 490T265 374ZM401 657Q415 679 439 711T479 771Q481 775 484 781T490 795Q496
811 504 820T523 830Q539 830 548 819T561 794Q563 789 565 785T569 776Q589 746 613 720T658 669Q653 653 641 653T624 657Q620 660 607 671T578 698T548 730T528 758Q515 737 497 717T463 682T442 661Q435 654 423 653T401 657Z" />
<glyph unicode="&#xe3;" glyph-name="atilde" horiz-adv-x="717" d="M95 -24Q80 -20 76 -3T73 34T77 68Q78 72 78 73Q86 146 105 203T147 314Q140 316 133 316T118 318Q93 321 69 328T37 362Q33 384 41 399T65 414Q79 414 86 403T94 375Q98 374 106 373Q125 369
145 367T182 372Q193 377 215 406T265 468Q303 511 379 560T554 644Q562 647 573 644T593 629Q593 604 589 578T580 525Q579 521 579 516T577 507Q572 475 568 438T566 372Q571 368 581 368T614 369Q646 371 659 367T675 348Q678 331 668 325T642 318T609 318H608H606Q593
319 581 319T561 317Q554 271 556 216T569 98Q571 90 573 81T577 64Q588 27 589 9T581 -19L580 -20Q560 -26 550 -17T534 9T525 41Q525 42 525 43Q524 47 524 51T523 59Q512 108 507 174T505 309Q479 312 441 314T362 318T281 317Q265 316 249 316T219 315Q197
286 178 243T145 149T128 49Q127 43 127 29Q127 17 126 3T118 -19T95 -24ZM265 374Q300 370 343 369T429 368T506 375Q508 392 510 410T517 451Q522 483 526 514T529 573Q446 543 379 490T265 374ZM599 699Q586 697 562 703T520 719Q498 733 482 743T449 755Q427
756 415 744T394 718Q387 731 393 747T413 777T446 794Q471 798 491 790T530 771Q545 762 560 755T593 750Q606 752 624 762T650 791Q663 782 662 761T646 722T599 699Z" />
<glyph unicode="&#xe4;" glyph-name="adieresis" horiz-adv-x="717" d="M95 -24Q80 -20 76 -3T73 34T77 68Q78 72 78 73Q86 146 105 203T147 314Q140 316 133 316T118 318Q93 321 69 328T37 362Q33 384 41 399T65 414Q79 414 86 403T94 375Q98 374 106 373Q125
369 145 367T182 372Q193 377 215 406T265 468Q303 511 379 560T554 644Q562 647 573 644T593 629Q593 604 589 578T580 525Q579 521 579 516T577 507Q572 475 568 438T566 372Q571 368 581 368T614 369Q646 371 659 367T675 348Q678 331 668 325T642 318T609 318H608H606Q593
319 581 319T561 317Q554 271 556 216T569 98Q571 90 573 81T577 64Q588 27 589 9T581 -19L580 -20Q560 -26 550 -17T534 9T525 41Q525 42 525 43Q524 47 524 51T523 59Q512 108 507 174T505 309Q479 312 441 314T362 318T281 317Q265 316 249 316T219 315Q197
286 178 243T145 149T128 49Q127 43 127 29Q127 17 126 3T118 -19T95 -24ZM265 374Q300 370 343 369T429 368T506 375Q508 392 510 410T517 451Q522 483 526 514T529 573Q446 543 379 490T265 374ZM418 695Q399 696 383 708T364 740T378 787Q404 807 429 797T467
763Q470 726 454 710T418 695ZM618 695Q599 696 583 708T564 740T578 787Q604 807 629 797T667 763Q670 726 654 710T618 695Z" />
<glyph unicode="&#xe5;" glyph-name="aring" horiz-adv-x="717" d="M95 -24Q80 -20 76 -3T73 34T77 68Q78 72 78 73Q86 146 105 203T147 314Q140 316 133 316T118 318Q93 321 69 328T37 362Q33 384 41 399T65 414Q79 414 86 403T94 375Q98 374 106 373Q125 369
145 367T182 372Q193 377 215 406T265 468Q303 511 379 560T554 644Q562 647 573 644T593 629Q593 604 589 578T580 525Q579 521 579 516T577 507Q572 475 568 438T566 372Q571 368 581 368T614 369Q646 371 659 367T675 348Q678 331 668 325T642 318T609 318H608H606Q593
319 581 319T561 317Q554 271 556 216T569 98Q571 90 573 81T577 64Q588 27 589 9T581 -19L580 -20Q560 -26 550 -17T534 9T525 41Q525 42 525 43Q524 47 524 51T523 59Q512 108 507 174T505 309Q479 312 441 314T362 318T281 317Q265 316 249 316T219 315Q197
286 178 243T145 149T128 49Q127 43 127 29Q127 17 126 3T118 -19T95 -24ZM265 374Q300 370 343 369T429 368T506 375Q508 392 510 410T517 451Q522 483 526 514T529 573Q446 543 379 490T265 374ZM554 627Q513 630 490 653T467 720Q467 750 486 773T534 803Q571
814 599 801T641 760T650 695Q642 661 617 643T554 627ZM554 665Q574 664 591 682T609 720Q609 731 603 742T589 762Q549 775 528 757T507 716Q507 698 518 682T554 665Z" />
<glyph unicode="&#xe6;" glyph-name="ae" horiz-adv-x="1121" d="M95 -24Q80 -20 76 -3T73 34T77 68Q78 72 78 73Q86 146 105 203T147 314Q140 316 133 316T118 318Q93 321 69 328T37 362Q33 384 41 399T65 414Q79 414 86 403T94 375Q98 374 106 373Q125 369 145
367T182 372Q193 377 215 406T265 468Q303 511 379 560T554 644Q562 647 573 644T593 629Q593 615 592 602T589 574Q616 593 651 604T727 617Q774 619 822 609T912 579T978 533Q988 523 997 505T1009 467T1004 432T969 412H964Q952 421 950 429T951 451Q954 466
953 472Q949 492 926 508T871 537T804 556T742 563Q708 563 672 552T610 520T577 474T595 418Q617 393 663 377T768 357Q775 356 782 356T796 358Q838 365 858 348L859 344Q855 313 832 306T751 306Q740 308 730 309T711 310Q656 309 620 274T581 189Q579 135 607
100T683 49T785 31Q850 30 908 51T996 110Q997 111 999 115T1006 130Q1018 158 1027 169T1046 180Q1069 181 1073 163T1060 111Q1053 97 1043 82T1022 57Q983 18 920 -2T782 -20Q724 -18 670 0T580 55Q588 23 588 6T581 -19L580 -20Q560 -26 550 -17T534 9T525
41Q525 42 525 43Q524 47 524 51T523 59Q512 108 507 174T505 309Q479 312 441 314T362 318T281 317Q265 316 249 316T219 315Q197 286 178 243T145 149T128 49Q127 43 127 29Q127 17 126 3T118 -19T95 -24ZM265 374Q300 370 343 369T429 368T506 375Q508 392 510
410T517 451Q522 483 526 514T529 573Q446 543 379 490T265 374ZM559 282Q580 311 613 335Q612 336 611 337T609 339Q605 342 601 345T590 353Q583 358 577 363T563 374Q560 327 559 282Z" />
<glyph unicode="&#xe7;" glyph-name="ccedilla" horiz-adv-x="653" d="M308 -14Q239 -9 184 26T96 120T58 254Q51 354 82 434T176 563T326 621Q405 629 465 603T547 523Q561 489 556 455T531 395T482 354T418 345Q394 349 373 371T348 417Q346 431 348 451T362
486T398 499L400 498Q410 491 411 479T409 442Q405 425 406 414T425 398Q445 394 463 405T491 439T499 485Q495 512 471 532T411 562T330 568Q261 561 210 519T133 410T113 258Q117 200 144 148T224 65T353 40Q421 45 477 79T569 172Q575 186 578 199Q583 216 592
232T620 258L623 257Q648 238 646 217T618 151Q592 105 549 66T445 4T308 -14ZM291 -190Q266 -190 243 -180T205 -160Q201 -155 201 -147T211 -139Q253 -154 288 -154Q308 -154 325 -142T343 -112Q343 -98 334 -86T311 -71Q304 -73 286 -73T261 -64Q264 -51 269
-46T279 -33Q290 -18 298 -3T315 27Q331 35 342 22Q342 11 334 -4T321 -37Q350 -44 368 -63T387 -112Q387 -148 368 -157Q361 -176 337 -183T291 -190Z" />
<glyph unicode="&#xe8;" glyph-name="egrave" horiz-adv-x="665" d="M326 -21Q264 -18 207 3T113 66T70 169Q62 266 157 335Q156 336 155 337T153 339Q149 342 145 345T134 353Q111 370 91 391T67 450Q63 494 88 531T162 591T271 617Q318 619 366 609T456 579T522
533Q532 523 541 505T553 467T548 432T513 412H508Q496 421 494 429T495 451Q498 466 497 472Q493 492 470 508T415 537T348 556T286 563Q252 563 216 552T154 520T121 474T139 418Q161 393 207 377T312 356Q319 356 326 356T340 358Q382 365 402 348L403 344Q399
313 376 306T295 306Q294 306 293 306Q282 308 273 309T255 309Q200 308 164 274T125 189Q123 135 151 100T227 49T329 31Q394 30 452 51T540 110Q541 111 543 115T549 130Q562 158 571 169T590 180Q613 181 617 163T605 111Q588 79 566 57Q527 18 464 -2T326 -21ZM351
657Q334 670 318 682T284 706Q268 717 253 729T237 755Q237 765 249 777T274 788Q296 787 308 773T333 738Q342 723 351 708T368 676Q376 661 372 654T351 657Z" />
<glyph unicode="&#xe9;" glyph-name="eacute" horiz-adv-x="665" d="M326 -21Q264 -18 207 3T113 66T70 169Q62 266 157 335Q156 336 155 337T153 339Q149 342 145 345T134 353Q111 370 91 391T67 450Q63 494 88 531T162 591T271 617Q318 619 366 609T456 579T522
533Q532 523 541 505T553 467T548 432T513 412H508Q496 421 494 429T495 451Q498 466 497 472Q493 492 470 508T415 537T348 556T286 563Q252 563 216 552T154 520T121 474T139 418Q161 393 207 377T312 356Q319 356 326 356T340 358Q382 365 402 348L403 344Q399
313 376 306T295 306Q294 306 293 306Q282 308 273 309T255 309Q200 308 164 274T125 189Q123 135 151 100T227 49T329 31Q394 30 452 51T540 110Q541 111 543 115T549 130Q562 158 571 169T590 180Q613 181 617 163T605 111Q588 79 566 57Q527 18 464 -2T326 -21ZM308
657Q292 647 288 654T291 676Q299 693 308 708T326 738Q338 758 350 772T385 788Q399 789 410 777T422 755Q422 742 407 730T375 706Q357 694 341 682T308 657Z" />
<glyph unicode="&#xea;" glyph-name="ecircumflex" horiz-adv-x="665" d="M326 -21Q264 -18 207 3T113 66T70 169Q62 266 157 335Q156 336 155 337T153 339Q149 342 145 345T134 353Q111 370 91 391T67 450Q63 494 88 531T162 591T271 617Q318 619 366 609T456
579T522 533Q532 523 541 505T553 467T548 432T513 412H508Q496 421 494 429T495 451Q498 466 497 472Q493 492 470 508T415 537T348 556T286 563Q252 563 216 552T154 520T121 474T139 418Q161 393 207 377T312 356Q319 356 326 356T340 358Q382 365 402 348L403
344Q399 313 376 306T295 306Q294 306 293 306Q282 308 273 309T255 309Q200 308 164 274T125 189Q123 135 151 100T227 49T329 31Q394 30 452 51T540 110Q541 111 543 115T549 130Q562 158 571 169T590 180Q613 181 617 163T605 111Q588 79 566 57Q527 18 464
-2T326 -21ZM201 637Q215 659 239 691T279 751Q281 755 284 761T290 775Q296 791 304 800T323 810Q339 810 348 799T361 774Q363 769 365 765T369 756Q389 726 413 700T458 649Q453 633 441 633T424 637Q420 640 407 651T378 678T348 710T328 738Q315 717 297 697T263
662T242 641Q235 634 223 633T201 637Z" />
<glyph unicode="&#xeb;" glyph-name="edieresis" horiz-adv-x="665" d="M326 -21Q264 -18 207 3T113 66T70 169Q62 266 157 335Q156 336 155 337T153 339Q149 342 145 345T134 353Q111 370 91 391T67 450Q63 494 88 531T162 591T271 617Q318 619 366 609T456 579T522
533Q532 523 541 505T553 467T548 432T513 412H508Q496 421 494 429T495 451Q498 466 497 472Q493 492 470 508T415 537T348 556T286 563Q252 563 216 552T154 520T121 474T139 418Q161 393 207 377T312 356Q319 356 326 356T340 358Q382 365 402 348L403 344Q399
313 376 306T295 306Q294 306 293 306Q282 308 273 309T255 309Q200 308 164 274T125 189Q123 135 151 100T227 49T329 31Q394 30 452 51T540 110Q541 111 543 115T549 130Q562 158 571 169T590 180Q613 181 617 163T605 111Q588 79 566 57Q527 18 464 -2T326 -21ZM228
675Q209 676 193 688T174 720T188 767Q214 787 239 777T277 743Q280 706 264 690T228 675ZM428 675Q409 676 393 688T374 720T388 767Q414 787 439 777T477 743Q480 706 464 690T428 675Z" />
<glyph unicode="&#xec;" glyph-name="igrave" horiz-adv-x="459" d="M260 -8Q228 -32 195 -33T131 -18T78 23T44 76Q29 111 27 134T39 172L41 174Q64 173 73 163T90 121Q92 114 93 108T97 97Q106 76 122 57T159 28T201 20T239 48Q211 74 190 118T157 217T141 331T145
446T173 548T225 622Q253 647 277 647T320 630T353 586T375 527T385 467Q390 401 384 329T362 190T321 70T260 -8ZM268 98Q293 140 308 198T330 325T332 463Q331 476 327 499T315 545T297 581T274 586Q239 565 220 519T196 412T197 291T223 179T268 98ZM309 667Q292
680 276 692T242 716Q226 727 211 739T195 765Q195 775 207 787T232 798Q254 797 266 783T291 748Q300 733 309 718T326 686Q334 671 330 664T309 667Z" />
<glyph unicode="&#xed;" glyph-name="iacute" horiz-adv-x="459" d="M260 -8Q228 -32 195 -33T131 -18T78 23T44 76Q29 111 27 134T39 172L41 174Q64 173 73 163T90 121Q92 114 93 108T97 97Q106 76 122 57T159 28T201 20T239 48Q211 74 190 118T157 217T141 331T145
446T173 548T225 622Q253 647 277 647T320 630T353 586T375 527T385 467Q390 401 384 329T362 190T321 70T260 -8ZM268 98Q293 140 308 198T330 325T332 463Q331 476 327 499T315 545T297 581T274 586Q239 565 220 519T196 412T197 291T223 179T268 98ZM246 667Q230
657 226 664T229 686Q237 703 246 718T264 748Q276 768 288 782T323 798Q337 799 348 787T360 765Q360 752 345 740T313 716Q295 704 279 692T246 667Z" />
<glyph unicode="&#xee;" glyph-name="icircumflex" horiz-adv-x="459" d="M260 -8Q228 -32 195 -33T131 -18T78 23T44 76Q29 111 27 134T39 172L41 174Q64 173 73 163T90 121Q92 114 93 108T97 97Q106 76 122 57T159 28T201 20T239 48Q211 74 190 118T157 217T141
331T145 446T173 548T225 622Q253 647 277 647T320 630T353 586T375 527T385 467Q390 401 384 329T362 190T321 70T260 -8ZM268 98Q293 140 308 198T330 325T332 463Q331 476 327 499T315 545T297 581T274 586Q239 565 220 519T196 412T197 291T223 179T268 98ZM130
647Q144 669 168 701T208 761Q210 765 213 771T219 785Q225 801 233 810T252 820Q268 820 277 809T290 784Q292 779 294 775T298 766Q318 736 342 710T387 659Q382 643 370 643T353 647Q349 650 336 661T307 688T277 720T257 748Q244 727 226 707T192 672T171 651Q164
644 152 643T130 647Z" />
<glyph unicode="&#xef;" glyph-name="idieresis" horiz-adv-x="459" d="M260 -8Q228 -32 195 -33T131 -18T78 23T44 76Q29 111 27 134T39 172L41 174Q64 173 73 163T90 121Q92 114 93 108T97 97Q106 76 122 57T159 28T201 20T239 48Q211 74 190 118T157 217T141
331T145 446T173 548T225 622Q253 647 277 647T320 630T353 586T375 527T385 467Q390 401 384 329T362 190T321 70T260 -8ZM268 98Q293 140 308 198T330 325T332 463Q331 476 327 499T315 545T297 581T274 586Q239 565 220 519T196 412T197 291T223 179T268 98ZM394
675Q375 676 359 688T340 720T354 767Q380 787 405 777T443 743Q446 706 430 690T394 675ZM594 675Q575 676 559 688T540 720T554 767Q580 787 605 777T643 743Q646 706 630 690T594 675Z" />
<glyph unicode="&#xf0;" glyph-name="eth" horiz-adv-x="697" d="M330 519Q319 523 323 538T349 573Q361 584 375 597T405 624Q403 624 402 625Q391 633 379 638T354 648Q342 653 329 658T301 672Q274 688 272 698T281 714T308 721T331 719Q394 696 444 660Q464
678 481 695T510 726Q524 746 538 755T569 758Q583 752 577 730T530 671Q518 660 507 650T483 629Q566 552 597 441T601 199Q591 156 570 112T518 32T448 -27T364 -49Q277 -50 221 -18T128 59Q105 87 88 128T65 218T67 319Q86 416 138 465T269 510Q323 506 363
481T429 418T462 335T459 246Q455 234 448 215T428 183T394 173H392Q377 183 381 201T394 240Q394 241 395 242Q399 252 403 262T408 283Q413 330 395 368T341 430T258 456Q211 458 182 432T139 364T123 273T131 182T159 111Q171 93 199 68T269 23T361 6Q404 7
437 32T495 96T533 174T552 247Q560 304 553 358T529 458T494 532Q482 550 472 564T444 594Q426 578 412 565T388 542Q371 525 356 520T330 519Z" />
<glyph unicode="&#xf1;" glyph-name="ntilde" horiz-adv-x="721" d="M66 -110Q20 -126 -9 -124T-40 -99Q-43 -72 35 -63Q58 -59 77 -47T106 -16Q124 12 129 55T134 151T129 258Q129 264 129 267Q124 346 124 420T144 545Q176 625 230 601Q238 585 236 577T214
549Q206 542 200 536T194 518Q195 502 214 482T253 442Q280 415 317 373T393 283T469 189T529 110Q525 331 563 475T678 680Q699 698 720 677Q721 670 721 666T720 658Q719 651 713 644T691 618Q656 576 634 512T600 369T586 209T590 48Q591 44 591 39T593 29Q598
-7 595 -22T576 -51Q559 -48 550 -40T526 -4Q523 1 521 4T516 12Q458 108 375 215T187 432Q176 389 177 335T183 224Q187 170 188 118T180 20T145 -57Q142 -60 130 -70T101 -92T66 -110ZM489 619Q476 617 452 623T410 639Q388 653 372 663T339 675Q317 676 305
664T284 638Q277 651 283 667T303 697T336 714Q361 718 381 710T420 691Q435 682 450 675T483 670Q496 672 514 682T540 711Q553 702 552 681T536 642T489 619Z" />
<glyph unicode="&#xf2;" glyph-name="ograve" horiz-adv-x="726" d="M331 -55Q271 -51 222 -23T137 51T81 151Q53 228 61 314T117 470Q126 483 145 504T188 545T237 572T285 563Q286 564 289 565Q309 576 326 584T367 595T426 595Q503 587 559 539T643 415T665
245Q660 177 633 120T560 23T456 -38T331 -55ZM325 -1Q388 -8 438 10T525 65T582 147T607 245Q614 325 593 389T528 494T421 542Q372 548 333 529T273 473T262 393Q267 371 285 349T328 313Q332 311 333 311Q338 310 341 309T349 306Q364 302 380 294T400 262L397
256Q365 228 296 269Q279 279 260 297T228 336Q209 369 208 412T225 502Q170 472 144 417T117 296T137 169Q160 103 207 55T325 -1ZM421 637Q404 650 388 662T354 686Q338 697 323 709T307 735Q307 745 319 757T344 768Q366 767 378 753T403 718Q412 703 421 688T438
656Q446 641 442 634T421 637Z" />
<glyph unicode="&#xf3;" glyph-name="oacute" horiz-adv-x="726" d="M331 -55Q271 -51 222 -23T137 51T81 151Q53 228 61 314T117 470Q126 483 145 504T188 545T237 572T285 563Q286 564 289 565Q309 576 326 584T367 595T426 595Q503 587 559 539T643 415T665
245Q660 177 633 120T560 23T456 -38T331 -55ZM325 -1Q388 -8 438 10T525 65T582 147T607 245Q614 325 593 389T528 494T421 542Q372 548 333 529T273 473T262 393Q267 371 285 349T328 313Q332 311 333 311Q338 310 341 309T349 306Q364 302 380 294T400 262L397
256Q365 228 296 269Q279 279 260 297T228 336Q209 369 208 412T225 502Q170 472 144 417T117 296T137 169Q160 103 207 55T325 -1ZM326 637Q310 627 306 634T309 656Q317 673 326 688T344 718Q356 738 368 752T403 768Q417 769 428 757T440 735Q440 722 425 710T393
686Q375 674 359 662T326 637Z" />
<glyph unicode="&#xf4;" glyph-name="ocircumflex" horiz-adv-x="726" d="M331 -55Q271 -51 222 -23T137 51T81 151Q53 228 61 314T117 470Q126 483 145 504T188 545T237 572T285 563Q286 564 289 565Q309 576 326 584T367 595T426 595Q503 587 559 539T643 415T665
245Q660 177 633 120T560 23T456 -38T331 -55ZM325 -1Q388 -8 438 10T525 65T582 147T607 245Q614 325 593 389T528 494T421 542Q372 548 333 529T273 473T262 393Q267 371 285 349T328 313Q332 311 333 311Q338 310 341 309T349 306Q364 302 380 294T400 262L397
256Q365 228 296 269Q279 279 260 297T228 336Q209 369 208 412T225 502Q170 472 144 417T117 296T137 169Q160 103 207 55T325 -1ZM241 617Q255 639 279 671T319 731Q321 735 324 741T330 755Q336 771 344 780T363 790Q379 790 388 779T401 754Q403 749 405 745T409
736Q429 706 453 680T498 629Q493 613 481 613T464 617Q460 620 447 631T418 658T388 690T368 718Q355 697 337 677T303 642T282 621Q275 614 263 613T241 617Z" />
<glyph unicode="&#xf5;" glyph-name="otilde" horiz-adv-x="726" d="M331 -55Q271 -51 222 -23T137 51T81 151Q53 228 61 314T117 470Q126 483 145 504T188 545T237 572T285 563Q286 564 289 565Q309 576 326 584T367 595T426 595Q503 587 559 539T643 415T665
245Q660 177 633 120T560 23T456 -38T331 -55ZM325 -1Q388 -8 438 10T525 65T582 147T607 245Q614 325 593 389T528 494T421 542Q372 548 333 529T273 473T262 393Q267 371 285 349T328 313Q332 311 333 311Q338 310 341 309T349 306Q364 302 380 294T400 262L397
256Q365 228 296 269Q279 279 260 297T228 336Q209 369 208 412T225 502Q170 472 144 417T117 296T137 169Q160 103 207 55T325 -1ZM438 659Q425 657 401 663T359 679Q337 693 321 703T288 715Q266 716 254 704T233 678Q226 691 232 707T252 737T285 754Q310 758
330 750T369 731Q384 722 399 715T432 710Q445 712 463 722T489 751Q502 742 501 721T485 682T438 659Z" />
<glyph unicode="&#xf6;" glyph-name="odieresis" horiz-adv-x="726" d="M331 -55Q271 -51 222 -23T137 51T81 151Q53 228 61 314T117 470Q126 483 145 504T188 545T237 572T285 563Q286 564 289 565Q309 576 326 584T367 595T426 595Q503 587 559 539T643 415T665
245Q660 177 633 120T560 23T456 -38T331 -55ZM325 -1Q388 -8 438 10T525 65T582 147T607 245Q614 325 593 389T528 494T421 542Q372 548 333 529T273 473T262 393Q267 371 285 349T328 313Q332 311 333 311Q338 310 341 309T349 306Q364 302 380 294T400 262L397
256Q365 228 296 269Q279 279 260 297T228 336Q209 369 208 412T225 502Q170 472 144 417T117 296T137 169Q160 103 207 55T325 -1ZM258 911Q239 912 223 924T204 956T218 1003Q244 1023 269 1013T307 979Q310 942 294 926T258 911ZM458 911Q439 912 423 924T404
956T418 1003Q444 1023 469 1013T507 979Q510 942 494 926T458 911Z" />
<glyph unicode="&#xf7;" glyph-name="divide" horiz-adv-x="678" d="M292 318Q270 318 251 318T214 316Q181 314 153 314T98 322Q88 336 93 352T111 369Q148 371 181 371T251 369Q282 368 316 368T391 368Q408 368 423 369T450 370Q481 371 502 371T545 368Q553
367 565 362T584 346T581 320Q524 314 463 314T349 316Q334 317 320 317T292 318ZM351 114Q314 111 298 127T283 163Q284 182 296 198T328 217T375 203Q395 177 385 152T351 114ZM336 462Q317 463 301 475T282 507T296 554Q322 574 347 564T385 530Q388 493 372
477T336 462Z" />
<glyph unicode="&#xf8;" glyph-name="oslash" horiz-adv-x="726" d="M149 -29Q138 -27 137 -10T151 33Q105 83 81 151Q53 228 61 314T117 470Q126 483 145 504T188 545T237 572T285 563Q286 564 289 565Q309 576 326 584T367 595T426 595Q497 588 553 544Q559
559 570 567T599 568Q611 563 612 547T595 501Q633 454 651 388T665 245Q660 177 633 120T560 23T456 -38T331 -55Q290 -52 255 -38T189 -2Q177 -15 167 -22T149 -29ZM325 -1Q388 -8 438 10T525 65T582 147T607 245Q613 308 601 362T560 456Q529 417 486 365T397
254T305 141T224 40Q245 23 270 13T325 -1ZM186 79Q220 121 256 164T329 253Q314 258 296 269Q279 279 260 297T228 336Q209 369 208 412T225 502Q170 472 144 417T117 296T137 169Q155 117 186 79ZM368 300Q398 337 428 375T490 453L524 497Q480 534 421 542Q372
548 333 529T273 473T262 393Q267 371 285 349T328 313Q332 311 333 311Q338 310 341 309T349 306Q354 305 358 304T368 300Z" />
<glyph unicode="&#xf9;" glyph-name="ugrave" horiz-adv-x="733" d="M404 607Q387 620 371 632T337 656Q321 667 306 679T290 705Q290 715 302 727T327 738Q349 737 361 723T386 688Q395 673 404 658T421 626Q429 611 425 604T404 607ZM303 -44Q254 -42 211 -19T140
50T112 164Q112 201 117 240T130 316Q130 317 131 320Q138 363 143 404T143 480Q139 511 128 520T94 527Q94 527 93 527Q84 526 73 527T57 538Q48 547 52 560T68 575Q99 587 127 581T176 552T201 497Q207 459 201 414T187 321V319Q187 318 186 316Q179 268 174
221T172 133T199 60Q222 28 256 17T329 10T402 34T461 81Q483 108 505 149T532 227Q534 237 534 249T533 275V276Q532 285 532 294T532 313Q533 330 534 348T537 385Q539 399 539 413T541 440Q542 447 542 454T543 468Q543 469 543 474Q542 484 542 502T545 539T556
570T582 578Q600 574 602 536T598 414Q597 407 597 402T597 390Q596 374 595 359T592 330Q591 308 590 289T588 252Q588 199 591 146T606 56T640 9Q642 8 645 8T654 6H660Q672 6 687 3T703 -19Q703 -38 689 -43T655 -46T618 -37T594 -25Q571 -8 559 26T538 95Q529
88 523 79T510 60Q495 38 487 29Q449 -9 401 -27T303 -44Z" />
<glyph unicode="&#xfa;" glyph-name="uacute" horiz-adv-x="733" d="M303 -44Q254 -42 211 -19T140 50T112 164Q112 201 117 240T130 316Q130 317 131 320Q138 363 143 404T143 480Q139 511 128 520T94 527Q94 527 93 527Q84 526 73 527T57 538Q48 547 52 560T68
575Q99 587 127 581T176 552T201 497Q207 459 201 414T187 321V319Q187 318 186 316Q179 268 174 221T172 133T199 60Q222 28 256 17T329 10T402 34T461 81Q483 108 505 149T532 227Q534 237 534 249T533 275V276Q532 285 532 294T532 313Q533 330 534 348T537
385Q539 399 539 413T541 440Q542 447 542 454T543 468Q543 469 543 474Q542 484 542 502T545 539T556 570T582 578Q600 574 602 536T598 414Q597 407 597 402T597 390Q596 374 595 359T592 330Q591 308 590 289T588 252Q588 199 591 146T606 56T640 9Q642 8 645
8T654 6H660Q672 6 687 3T703 -19Q703 -38 689 -43T655 -46T618 -37T594 -25Q571 -8 559 26T538 95Q529 88 523 79T510 60Q495 38 487 29Q449 -9 401 -27T303 -44ZM346 607Q330 597 326 604T329 626Q337 643 346 658T364 688Q376 708 388 722T423 738Q437 739 448
727T460 705Q460 692 445 680T413 656Q395 644 379 632T346 607Z" />
<glyph unicode="&#xfb;" glyph-name="ucircumflex" horiz-adv-x="733" d="M303 -44Q254 -42 211 -19T140 50T112 164Q112 201 117 240T130 316Q130 317 131 320Q138 363 143 404T143 480Q139 511 128 520T94 527Q94 527 93 527Q84 526 73 527T57 538Q48 547 52
560T68 575Q99 587 127 581T176 552T201 497Q207 459 201 414T187 321V319Q187 318 186 316Q179 268 174 221T172 133T199 60Q222 28 256 17T329 10T402 34T461 81Q483 108 505 149T532 227Q534 237 534 249T533 275V276Q532 285 532 294T532 313Q533 330 534 348T537
385Q539 399 539 413T541 440Q542 447 542 454T543 468Q543 469 543 474Q542 484 542 502T545 539T556 570T582 578Q600 574 602 536T598 414Q597 407 597 402T597 390Q596 374 595 359T592 330Q591 308 590 289T588 252Q588 199 591 146T606 56T640 9Q642 8 645
8T654 6H660Q672 6 687 3T703 -19Q703 -38 689 -43T655 -46T618 -37T594 -25Q571 -8 559 26T538 95Q529 88 523 79T510 60Q495 38 487 29Q449 -9 401 -27T303 -44ZM231 617Q245 639 269 671T309 731Q311 735 314 741T320 755Q326 771 334 780T353 790Q369 790 378
779T391 754Q393 749 395 745T399 736Q419 706 443 680T488 629Q483 613 471 613T454 617Q450 620 437 631T408 658T378 690T358 718Q345 697 327 677T293 642T272 621Q265 614 253 613T231 617Z" />
<glyph unicode="&#xfc;" glyph-name="udieresis" horiz-adv-x="733" d="M303 -44Q254 -42 211 -19T140 50T112 164Q112 201 117 240T130 316Q130 317 131 320Q138 363 143 404T143 480Q139 511 128 520T94 527Q94 527 93 527Q84 526 73 527T57 538Q48 547 52 560T68
575Q99 587 127 581T176 552T201 497Q207 459 201 414T187 321V319Q187 318 186 316Q179 268 174 221T172 133T199 60Q222 28 256 17T329 10T402 34T461 81Q483 108 505 149T532 227Q534 237 534 249T533 275V276Q532 285 532 294T532 313Q533 330 534 348T537
385Q539 399 539 413T541 440Q542 447 542 454T543 468Q543 469 543 474Q542 484 542 502T545 539T556 570T582 578Q600 574 602 536T598 414Q597 407 597 402T597 390Q596 374 595 359T592 330Q591 308 590 289T588 252Q588 199 591 146T606 56T640 9Q642 8 645
8T654 6H660Q672 6 687 3T703 -19Q703 -38 689 -43T655 -46T618 -37T594 -25Q571 -8 559 26T538 95Q529 88 523 79T510 60Q495 38 487 29Q449 -9 401 -27T303 -44ZM269 911Q250 912 234 924T215 956T229 1003Q255 1023 280 1013T318 979Q321 942 305 926T269 911ZM469
911Q450 912 434 924T415 956T429 1003Q455 1023 480 1013T518 979Q521 942 505 926T469 911Z" />
<glyph unicode="&#xfd;" glyph-name="yacute" horiz-adv-x="746" d="M428 -105Q338 -105 301 -28Q297 -19 297 -2T300 34T315 63T343 70Q360 66 360 52T358 23Q358 21 357 18Q356 10 355 3T356 -11Q362 -37 384 -48T434 -56T487 -37T523 6Q536 31 542 65T552 135Q554
155 556 174T562 212Q555 208 546 201T529 186Q522 180 516 175T505 166Q471 145 432 136T354 129T285 151T237 205T224 293Q226 318 232 343T245 394Q249 407 252 420T259 448Q260 452 261 456T263 465Q272 499 278 536T269 596Q256 616 231 619T174 612Q148 603
127 576T97 516T95 456Q101 436 114 427T146 407Q160 400 170 395T190 382L191 377Q180 355 158 351T110 359T63 399Q40 429 38 466T49 542T88 610Q133 665 189 675T295 647Q328 622 333 584T328 502T305 414L304 412Q296 384 288 357T278 305Q271 238 301 206T394
181Q462 189 512 234T586 353Q599 393 605 434T617 516Q621 551 626 586T640 656Q644 671 659 676T680 671Q693 642 689 608T677 538Q675 525 673 513T668 486Q662 449 656 414T644 343Q642 331 640 319T636 295Q630 261 624 226T613 153Q606 107 598 62T572 -21T520
-82T428 -105ZM456 657Q440 647 436 654T439 676Q447 693 456 708T474 738Q486 758 498 772T533 788Q547 789 558 777T570 755Q570 742 555 730T523 706Q505 694 489 682T456 657Z" />
<glyph unicode="&#xfe;" glyph-name="thorn" horiz-adv-x="591" d="M40 -162Q40 -142 61 -133T115 -114Q135 -109 144 -87T154 -36Q154 -10 154 40T155 151T156 273T157 386T158 466Q159 514 157 549T147 594Q140 603 127 600T99 589Q91 585 81 586T67 597Q78
614 99 629T147 652Q171 658 186 650T208 627T214 598Q209 527 208 425T209 203T216 -42Q217 -63 222 -84T255 -113Q274 -117 295 -121T329 -147Q317 -161 302 -162T265 -163Q262 -163 259 -163T252 -162Q219 -160 189 -159T132 -161Q102 -165 80 -166T40 -162ZM258
52Q227 58 219 69T220 90T248 96Q273 92 309 94T382 110T442 159T469 254Q471 299 454 331T407 380T341 397T267 375Q254 368 243 359T215 350Q208 369 221 385T271 420Q315 443 362 440T449 412T512 344T530 242Q526 190 505 154T451 96T384 63T315 50T258 52Z"
/>
<glyph unicode="&#xff;" glyph-name="ydieresis" horiz-adv-x="746" d="M428 -105Q338 -105 301 -28Q297 -19 297 -2T300 34T315 63T343 70Q360 66 360 52T358 23Q358 21 357 18Q356 10 355 3T356 -11Q362 -37 384 -48T434 -56T487 -37T523 6Q536 31 542 65T552
135Q554 155 556 174T562 212Q555 208 546 201T529 186Q522 180 516 175T505 166Q471 145 432 136T354 129T285 151T237 205T224 293Q226 318 232 343T245 394Q249 407 252 420T259 448Q260 452 261 456T263 465Q272 499 278 536T269 596Q256 616 231 619T174 612Q148
603 127 576T97 516T95 456Q101 436 114 427T146 407Q160 400 170 395T190 382L191 377Q180 355 158 351T110 359T63 399Q40 429 38 466T49 542T88 610Q133 665 189 675T295 647Q328 622 333 584T328 502T305 414L304 412Q296 384 288 357T278 305Q271 238 301
206T394 181Q462 189 512 234T586 353Q599 393 605 434T617 516Q621 551 626 586T640 656Q644 671 659 676T680 671Q693 642 689 608T677 538Q675 525 673 513T668 486Q662 449 656 414T644 343Q642 331 640 319T636 295Q630 261 624 226T613 153Q606 107 598 62T572
-21T520 -82T428 -105ZM368 675Q349 676 333 688T314 720T328 767Q354 787 379 777T417 743Q420 706 404 690T368 675ZM568 675Q549 676 533 688T514 720T528 767Q554 787 579 777T617 743Q620 706 604 690T568 675Z" />
<glyph unicode="&#x2013;" glyph-name="endash" horiz-adv-x="606" d="M156 288Q125 288 111 292T89 302T77 318T60 336Q72 337 100 337T168 337Q222 336 286 336T410 338T511 344Q518 345 528 340T544 325T542 299Q504 291 458 288T364 284T274 284T200 287Q185
287 174 287T156 288Z" />
<glyph unicode="&#x2014;" glyph-name="emdash" horiz-adv-x="1000" d="M0 287V339Q78 339 172 339T362 339T547 339T702 339T803 338Q829 338 859 338T917 339Q943 339 964 339T1000 339V287H769Q599 287 484 287T288 286Q226 286 178 286T87 285T0 287Z" />
<glyph unicode="&#x2018;" glyph-name="quoteleft" horiz-adv-x="435" d="M224 567Q204 563 185 571T152 595T135 630Q129 673 147 707T193 767T247 803Q262 807 268 803T266 790Q262 785 257 780T245 770Q226 753 210 732T205 682Q234 683 249 665T264 624Q265
605 255 589T224 567Z" />
<glyph unicode="&#x2019;" glyph-name="quoteright" horiz-adv-x="432" d="M165 567Q176 582 194 596T224 629Q230 640 232 651T228 676Q212 684 194 689T168 711Q167 754 185 771T226 787Q250 786 271 769T297 726Q301 701 293 674T270 624T239 587Q229 579 216
571T189 560T165 567Z" />
<glyph unicode="&#x201a;" glyph-name="quotesinglbase" horiz-adv-x="416" d="M165 -88Q168 -70 180 -61T204 -42Q214 -33 220 -22T225 10Q220 17 205 19T179 31Q160 60 169 80T197 109Q220 118 246 111T280 74Q282 61 282 41T278 5Q271 -21 254 -45T214 -82T165 -88Z" />
<glyph unicode="&#x201c;" glyph-name="quotedblleft" horiz-adv-x="718" d="M252 579Q243 591 239 606T235 637Q234 666 246 693T274 742Q291 763 314 774T369 781Q366 764 350 753T318 727Q308 717 302 705T295 676Q318 675 336 662T361 627T353 579Q331 565
302 562T252 579ZM470 562Q436 561 421 583T405 637Q405 669 419 702T458 758T517 781Q519 764 511 753T490 731Q486 728 483 725T476 718Q468 709 463 698T458 669Q483 673 498 664T520 638Q526 623 524 605T513 571Q489 562 470 562Z" />
<glyph unicode="&#x201d;" glyph-name="quotedblright" horiz-adv-x="588" d="M320 562Q323 579 339 590T371 616Q381 626 387 638T394 667Q371 669 353 682T328 717T336 764Q358 778 388 781T437 764Q446 752 450 737T454 706Q455 678 444 650T415 601Q399 580
375 569T320 562ZM172 562Q170 579 178 590T199 612Q203 615 206 618T213 625Q221 634 227 645T231 674Q206 670 191 679T169 705Q163 720 165 738T176 772Q200 781 219 781Q254 782 269 760T284 706Q284 674 270 641T231 585T172 562Z" />
<glyph unicode="&#x201e;" glyph-name="quotedblbase" horiz-adv-x="588" d="M320 -88Q323 -71 339 -60T371 -34Q381 -24 387 -12T394 17Q371 19 353 32T328 67T336 114Q358 128 388 131T437 114Q446 102 450 87T454 56Q455 28 444 0T415 -49Q399 -70 375 -81T320
-88ZM172 -88Q170 -71 178 -60T199 -38Q203 -35 206 -32T213 -25Q221 -16 227 -5T231 24Q206 20 191 29T169 55Q163 70 165 88T176 122Q200 131 219 131Q254 132 269 110T284 56Q284 24 270 -9T231 -65T172 -88Z" />
<glyph unicode="&#x2022;" glyph-name="bullet" horiz-adv-x="500" d="M283 277Q264 273 245 274T208 283Q195 288 187 296T170 315Q157 331 151 355T150 406Q158 438 189 460Q203 470 219 476T253 481Q258 481 265 481T275 477Q277 478 283 478Q287 477 299 472T316
458Q328 454 332 439Q344 429 349 413T354 379Q353 356 344 335T317 301Q315 297 312 294Q303 291 297 286T283 277Z" />
<glyph unicode="&#x2039;" glyph-name="guilsinglleft" horiz-adv-x="422" d="M362 67Q340 51 318 60T276 86Q232 122 203 150T155 209T118 281Q134 304 156 330T207 381Q240 409 274 430T349 468Q360 452 356 436T343 411Q338 406 328 399T306 384Q283 368 257
349T214 310T197 272Q199 252 216 228T260 178T313 129Q336 110 345 96T362 67Z" />
<glyph unicode="&#x203a;" glyph-name="guilsinglright" horiz-adv-x="422" d="M60 67Q68 82 77 96T109 129Q136 152 162 177T206 227T225 272Q226 290 209 309T165 348T116 384Q104 392 94 399T79 411Q70 419 66 435T73 468Q114 451 148 430T215 381Q244 357
266 331T304 281Q288 240 268 210T220 151T146 86Q126 70 104 61T60 67Z" />
</font>
</defs>
</svg>
