<?xml version="1.0" standalone="no"?>
<!DOCTYPE svg PUBLIC "-//W3C//DTD SVG 1.1//EN" "http://www.w3.org/Graphics/SVG/1.1/DTD/svg11.dtd">
<svg xmlns="http://www.w3.org/2000/svg">
<defs >
<font id="AlumniSansInlineOne" horiz-adv-x="398" ><font-face
    font-family="Alumni Sans Inline One"
    units-per-em="1000"
    panose-1="0 0 0 0 0 0 0 0 0 0"
    ascent="900"
    descent="-300"
    alphabetic="0" />
<glyph unicode=" " glyph-name="space" horiz-adv-x="150" />
<glyph unicode="!" glyph-name="exclam" horiz-adv-x="253" d="M75 188L48 377L40 630H210L202 380L175 188H75ZM123 224H127L132 407L128 604H124L119 407L123 224ZM130 -8Q95 -8 71 14T47 68Q47 99 71 121T130 144Q165 144 189 122T213 68Q213 36 189 14T130
-8ZM129 30Q166 30 166 67Q166 104 129 104Q92 104 92 67Q92 30 129 30ZM129 32Q115 32 106 42T97 67Q97 82 106 91T129 101Q143 101 151 92T160 67Q160 53 152 43T129 32Z" />
<glyph unicode="&quot;" glyph-name="quotedbl" horiz-adv-x="403" d="M239 416L219 630H343L324 416H239ZM80 416L60 630H184L165 416H80ZM120 450H125V603H120V450ZM279 450H284V603H279V450Z" />
<glyph unicode="#" glyph-name="numbersign" horiz-adv-x="740" d="M124 0L175 162H25L55 257H205L236 354L83 355L113 450H266L305 574H405L365 450H472L512 574H612L572 450H715L685 354H542L512 257H657L627 161H482L431 0H331L382 161L275 162L224 0H124ZM180
23H184L278 311L348 547H344L267 311L180 23ZM385 23H389L483 311L553 547H549L472 311L385 23ZM305 257H412L442 354H335L305 257Z" />
<glyph unicode="$" glyph-name="dollar" horiz-adv-x="394" d="M165 -67V45Q83 51 53 89T22 202V236H179V167Q179 148 182 137Q185 126 196 126Q206 126 209 134T213 153V199Q213 225 203 237T173 256T130 273Q92 287 64 314T35 393V421Q35 483 63 518T165 561V650H261V560Q329
550 354 515T380 411V379H229V442Q229 462 226 472Q223 481 212 481Q201 481 198 474T195 455V408Q195 385 208 374T242 356T284 342Q323 329 351 303T380 228V192Q380 130 355 95T261 48V-67H165ZM212 -49H214L216 90L238 93Q270 100 284 127T298 203Q298 245
281 268T228 305L203 314L177 326Q142 340 132 365T121 427Q121 471 132 492T174 520Q181 522 192 522T212 523Q220 523 227 523T244 520Q274 514 287 493T300 427H302Q305 475 291 496T241 523Q234 524 228 524T214 525L212 631H210L208 525Q200 525 190 525T174
523Q140 517 125 495T109 427Q109 388 125 362T176 322L203 312L227 302Q262 288 274 266T287 203Q287 158 277 130T237 96Q230 94 218 93T197 91Q189 91 177 92T158 95Q126 101 114 128T101 204H98Q96 153 109 125T157 92Q163 91 176 91T197 90H210L212 -49Z"
/>
<glyph unicode="%" glyph-name="percent" horiz-adv-x="597" d="M78 0L402 591H514L189 0H78ZM139 296Q105 296 83 303T51 333T40 398V517Q40 559 65 575T139 591Q187 591 212 575T238 517V399Q238 356 227 334T195 304T139 296ZM139 342Q149 342 149 359V528Q149
545 139 545Q129 545 129 528V359Q129 342 139 342ZM168 59H169L304 304L425 532H424L299 306L168 59ZM85 369H86Q86 375 86 381T87 394L88 419V472Q87 477 87 482T87 493V514H86Q85 510 85 505T85 494Q84 490 84 485T84 474V395Q84 388 84 382T85 369ZM192 369H193V390L194
411V464Q193 471 193 477T193 489Q192 496 192 502T192 514H191Q190 507 190 501T190 488V409Q190 404 190 399T191 389Q191 384 191 379T192 369ZM458 -4Q424 -4 402 3T370 33T359 98V217Q359 259 384 275T458 291Q506 291 531 275T557 217V99Q557 56 546 34T514
4T458 -4ZM458 42Q468 42 468 59V228Q468 245 458 245Q448 245 448 228V59Q448 42 458 42ZM404 69H405Q405 75 405 81T406 94L407 119V172Q406 177 406 182T406 193V214H405Q404 210 404 205T404 194Q403 190 403 185T403 174V95Q403 88 403 82T404 69ZM511 69H512V90L513
111V164Q512 171 512 177T512 189Q511 196 511 202T511 214H510Q509 207 509 201T509 188V109Q509 104 509 99T510 89Q510 84 510 79T511 69Z" />
<glyph unicode="&amp;" glyph-name="ampersand" horiz-adv-x="508" d="M205 -11Q118 -11 69 26T20 129Q20 174 39 209T105 260Q87 283 76 312T65 387Q65 448 104 476T202 505Q247 505 279 495T330 460T348 385Q348 345 321 310T249 246L313 176Q322 203 322 236V286H487V204H433Q434
189 428 166T411 123T392 97L488 0H334L312 21Q298 7 268 -2T205 -11ZM381 34H383Q364 54 345 74T308 113L244 181Q228 198 215 213T190 242Q165 269 150 289T129 330T122 379Q122 410 137 436T174 463V465Q148 465 132 439T115 379Q115 356 128 322T183 240Q204
214 237 179T303 112Q322 93 341 74T381 34ZM224 297Q242 303 263 323T284 378V395Q284 435 267 450T228 465V463Q245 463 261 448T277 395V378Q277 344 259 325T224 299V297ZM197 329Q209 340 219 353T229 386Q229 424 204 424Q191 424 184 413T176 384Q176 372
181 357Q184 350 188 343T197 329ZM360 145H362Q367 156 371 172T378 204Q380 213 380 222T382 242L452 243V245L374 246Q374 236 374 227T373 209Q371 193 369 176T360 145ZM222 38V42Q215 41 208 41T194 40Q143 40 117 65T90 127Q90 164 99 183T123 209V211Q109
208 96 189Q82 169 82 127Q82 89 109 63T192 36Q199 36 206 36T222 38ZM209 81Q232 81 252 92L173 172Q167 169 160 157T153 130Q153 104 169 93T209 81Z" />
<glyph unicode="&apos;" glyph-name="quotesingle" horiz-adv-x="244" d="M80 416L60 630H184L165 416H80ZM120 450H125V603H120V450Z" />
<glyph unicode="(" glyph-name="parenleft" horiz-adv-x="333" d="M312 -118Q256 -118 208 -87T123 -4Q87 48 66 114T45 251Q45 327 68 401T129 534Q167 592 217 628T323 664V577Q287 568 262 537T220 460T196 363T188 261Q188 211 195 161T218 67T257 -3T312
-32V-118ZM237 -49V-46Q224 -39 205 -18T167 41Q149 79 137 133T124 263Q124 338 140 396T179 497Q201 539 223 565T258 600V603Q246 594 221 568T171 500Q146 457 127 398T108 263Q108 187 123 132T159 38Q180 0 202 -21T237 -49Z" />
<glyph unicode=")" glyph-name="parenright" horiz-adv-x="333" d="M10 -118V-31Q46 -22 71 9T113 86T137 183T145 285Q145 335 138 385T115 479T76 549T21 578V664Q77 664 125 633T210 550Q246 498 267 432T288 295Q288 270 286 245T278 194Q257 90 204 12Q178
-27 148 -56Q117 -85 82 -101T10 -118ZM75 -57Q87 -48 112 -22T162 47Q187 89 206 148T225 283Q225 359 210 414T174 508Q153 546 131 567T96 595V592Q109 585 128 565T166 506Q184 469 196 414T209 283Q209 208 193 150T154 49Q132 7 110 -19T75 -54V-57Z" />
<glyph unicode="*" glyph-name="asterisk" horiz-adv-x="583" d="M176 85L97 143L229 290L132 310Q107 315 83 319T35 328L66 423L246 339L223 536H323L300 340L480 423L511 328L317 290L451 144L370 87L274 258Q263 237 251 216T225 172Q212 150 200 128T176 85Z" />
<glyph unicode="+" glyph-name="plus" horiz-adv-x="536" d="M186 43V180H50V343H186V479H349V343H486V180H349V43H186ZM261 143H263L265 260L382 263V265L265 267L262 384H260L258 267L141 264V262L258 260L261 143Z" />
<glyph unicode="," glyph-name="comma" horiz-adv-x="254" d="M51 -170L80 -104Q85 -87 89 -72T94 -41Q94 -30 91 -20T78 -1Q68 9 59 24T50 53Q50 84 72 105T129 127Q163 127 183 105T204 49Q204 31 199 9T188 -32Q178 -60 167 -84T144 -128Q138 -139 132 -149T118
-170H51ZM116 -94H119Q127 -77 136 -49T145 12Q145 30 141 43T125 63Q121 65 119 62T121 56Q139 45 139 12Q139 -18 132 -47T116 -94Z" />
<glyph unicode="-" glyph-name="hyphen" horiz-adv-x="272" d="M30 239V342H242V239H30ZM135 289L205 292V294L135 296L64 293V291L135 289Z" />
<glyph unicode="." glyph-name="period" horiz-adv-x="254" d="M126 -11Q94 -11 72 10T50 62Q50 93 72 114T126 136Q158 136 181 115T204 62Q204 32 181 11T126 -11ZM126 25Q163 25 163 62Q163 99 126 99Q89 99 89 62Q89 25 126 25ZM126 27Q112 27 103 37T94 62Q94
77 103 86T126 96Q140 96 148 87T157 62Q157 48 149 38T126 27Z" />
<glyph unicode="/" glyph-name="slash" horiz-adv-x="508" d="M30 -44L371 630H478L136 -44H30ZM107 0H109L265 306L405 591H403L259 309L107 0Z" />
<glyph unicode="0" glyph-name="zero" horiz-adv-x="388" d="M194 -12Q107 -12 63 37T18 198V438Q18 513 66 555T194 598Q274 598 322 556T370 438V199Q370 87 326 38T194 -12ZM164 45V47Q145 47 131 61T110 97T102 139L107 301L102 473Q102 502 120 524T170 546V549Q138
549 118 527T98 473L94 300L98 139Q98 117 106 96T129 60T164 45ZM227 45Q248 45 262 59T285 95T293 139L297 300L293 473Q293 504 273 526T221 549V546Q252 546 270 524T289 473L284 301L289 139Q289 118 282 97T261 62T227 47V45ZM194 80Q202 80 206 86T211 110V473Q211
490 207 496T194 503Q186 503 182 497T177 473V110Q177 93 181 87T194 80Z" />
<glyph unicode="1" glyph-name="one" horiz-adv-x="297" d="M113 0V405H7V495Q42 495 79 520T132 591H272V0H113ZM191 47H195L200 300L196 547H192L187 300L191 47Z" />
<glyph unicode="2" glyph-name="two" d="M12 0V125Q12 181 23 214T62 269T136 315Q158 326 176 337T207 365T219 410V427Q219 449 216 465T199 481Q183 481 181 461Q178 440 178 399V364H19V449Q19 593 201 593Q269 593 309 577T366 524T384 422Q384 352 365 311T290
238Q260 221 235 207T195 176T177 128H384V0H12ZM93 60L332 63V64L101 66V161Q101 189 113 208T143 244Q162 262 184 273T228 297T271 330Q282 341 289 357T297 395V465Q297 505 276 523T228 541V539Q252 539 270 521T289 465V395Q287 356 268 334Q257 320 233
305T184 276T140 248Q120 233 107 213T93 161V60ZM94 410H101V462Q101 495 118 517T178 539V541Q132 541 113 520T94 462V410Z" />
<glyph unicode="3" glyph-name="three" horiz-adv-x="386" d="M190 -6Q8 -6 8 138V213H167V188Q167 147 170 127Q172 106 188 106Q201 106 204 122T208 160V219Q208 243 191 249T136 256H97V340H137Q182 340 195 353Q208 365 208 381V427Q208 449 205 465T188
481Q172 481 170 461Q167 440 167 399V384H8V449Q8 593 190 593Q288 593 330 562T373 463V406Q373 356 348 326T270 293Q318 293 345 265T373 185V138Q373 54 329 24T190 -6ZM86 432H94V476Q95 511 112 529T152 547V549Q128 549 108 531T86 476V432ZM219 323Q243
323 263 342T285 399V475Q285 515 268 532T231 549V547Q250 547 263 530T276 475V399Q275 364 257 345T219 325V323ZM219 48Q245 48 265 68T285 124V194Q285 234 272 250T239 266V264Q258 264 266 248T275 194V124Q275 90 257 70T219 50V48ZM146 48V50Q126 50 108
70T90 124V177H81V124Q81 89 102 69T146 48Z" />
<glyph unicode="4" glyph-name="four" horiz-adv-x="408" d="M181 0V113H3V202L181 591H340V218H402V113H340V0H181ZM257 47H261L266 300L262 547H258L253 300L257 47ZM60 165L181 168V170H129L91 171H68V204L152 398H151L60 207V165ZM126 218H181V354L126 218Z" />
<glyph unicode="5" glyph-name="five" horiz-adv-x="391" d="M195 -6Q13 -6 13 138V213H172V188Q172 147 175 127Q177 106 193 106Q206 106 209 122T213 160V284Q213 299 210 311T190 323Q172 323 172 291V273H13V591H368V480H170V373Q175 384 193 397T249 411H275Q325
411 351 388T378 307V138Q378 54 334 24T195 -6ZM88 324H90L93 537L312 538V540L85 541L88 324ZM230 53Q252 53 274 74T296 129V295Q296 335 283 351T250 367V365Q269 365 277 349T286 295V129Q285 94 267 75T230 55V53ZM151 48V50Q131 50 113 70T95 124V177H86V124Q86
89 107 69T151 48Z" />
<glyph unicode="6" glyph-name="six" horiz-adv-x="392" d="M194 -12Q114 -12 66 28T18 156V455Q18 529 66 563T194 598Q274 598 317 564T360 455V421H211V473Q211 490 207 496T194 503Q186 503 182 497T177 473V349Q191 368 216 375T266 383Q314 383 345 362T377
293V136Q377 63 326 26T194 -12ZM160 44V46Q125 46 113 71T101 137L103 295L100 468Q100 506 120 526T192 547Q243 547 262 528T281 475V463H283V468L284 474V480Q284 512 265 531T192 551Q138 551 117 530T96 468L91 295L97 134Q99 94 110 69T160 44ZM236 44Q258
44 280 65T302 120V259Q302 299 289 315T256 331V329Q275 329 283 313T292 259V120Q291 85 273 66T236 46V44ZM198 80Q206 80 212 86T218 110V266Q218 281 209 283T195 286Q189 286 184 283T177 277V110Q177 93 183 87T198 80Z" />
<glyph unicode="7" glyph-name="seven" horiz-adv-x="349" d="M21 0L180 480H5V591H339V478L180 0H21ZM114 47H117L206 304L269 540L57 538V536L263 534L193 307L114 47Z" />
<glyph unicode="8" glyph-name="eight" horiz-adv-x="385" d="M195 -6Q107 -6 60 29T13 138V200Q13 214 17 234T34 271Q46 288 67 295T112 305Q92 307 74 312T44 333Q29 351 25 372T20 413V468Q20 539 60 566T195 593Q290 593 330 566T370 468V413Q370 394 366
373T346 333Q333 318 315 313T276 305Q296 304 317 298T352 272Q364 255 368 235T372 201V138Q372 54 330 24T195 -6ZM131 336V338Q112 338 104 354T95 408V478Q96 513 112 532T151 552V554Q127 554 108 535T87 478V408Q87 368 99 352T131 336ZM248 336Q268 336
280 352T292 408V478Q291 515 272 534T228 554V552Q251 552 267 533T284 478V408Q284 370 276 354T248 338V336ZM193 350Q199 350 207 358Q213 366 213 389V458Q213 479 210 494T193 510Q177 510 175 494T172 459V392Q172 366 178 358Q184 350 193 350ZM151 48V50Q132
58 114 75T95 124V194Q95 232 103 248T131 264V266Q111 266 99 250T87 194V124Q87 91 108 73T151 48ZM229 48Q249 55 271 73T293 124V194Q293 234 281 250T249 266V264Q268 264 276 248T285 194V124Q285 93 267 76T229 50V48ZM193 80Q206 80 209 91T213 110V219Q213
233 211 242T192 252Q176 252 174 240T172 218V110Q172 103 176 92T193 80Z" />
<glyph unicode="9" glyph-name="nine" horiz-adv-x="390" d="M196 -12Q116 -12 73 22T30 131V165H179V113Q179 96 183 90T196 83Q204 83 208 89T213 113V237Q199 218 174 211T124 203Q71 203 42 234T13 338V450Q13 523 65 560T196 598Q276 598 324 558T372 430V131Q372
57 324 23T196 -12ZM132 257V259Q113 259 105 275T96 329V468Q97 503 115 522T152 542V544Q130 544 108 523T86 468V329Q86 289 99 273T132 257ZM197 39Q251 39 272 60T293 122L298 295L292 453Q290 492 279 517T229 543V541Q264 541 276 516T288 450L286 295L289
122Q289 84 269 64T197 43Q146 43 127 62T108 115V127H106Q105 125 105 121V110Q105 78 124 59T197 39ZM195 300Q201 300 206 303T213 309V476Q213 493 207 499T192 506Q184 506 178 500T172 476V320Q172 305 181 303T195 300Z" />
<glyph unicode=":" glyph-name="colon" horiz-adv-x="254" d="M126 273Q94 273 72 294T50 346Q50 377 72 398T126 420Q158 420 181 399T204 346Q204 316 181 295T126 273ZM126 309Q163 309 163 346Q163 383 126 383Q89 383 89 346Q89 309 126 309ZM126 311Q112
311 103 321T94 346Q94 361 103 370T126 380Q140 380 148 371T157 346Q157 332 149 322T126 311ZM126 -11Q94 -11 72 10T50 62Q50 93 72 114T126 136Q158 136 181 115T204 62Q204 32 181 11T126 -11ZM126 25Q163 25 163 62Q163 99 126 99Q89 99 89 62Q89 25 126
25ZM126 27Q112 27 103 37T94 62Q94 77 103 86T126 96Q140 96 148 87T157 62Q157 48 149 38T126 27Z" />
<glyph unicode=";" glyph-name="semicolon" horiz-adv-x="258" d="M130 273Q98 273 76 294T54 346Q54 377 76 398T130 420Q162 420 185 399T208 346Q208 316 185 295T130 273ZM130 309Q167 309 167 346Q167 383 130 383Q93 383 93 346Q93 309 130 309ZM130 311Q116
311 107 321T98 346Q98 361 107 370T130 380Q144 380 152 371T161 346Q161 332 153 322T130 311ZM51 -170L80 -104Q85 -87 89 -72T94 -41Q94 -30 91 -20T78 -1Q68 9 59 24T50 53Q50 84 72 105T129 127Q163 127 183 105T204 49Q204 31 199 9T188 -32Q178 -60 167
-84T144 -128Q138 -139 132 -149T118 -170H51ZM116 -94H119Q127 -77 136 -49T145 12Q145 30 141 43T125 63Q121 65 119 62T121 56Q139 45 139 12Q139 -18 132 -47T116 -94Z" />
<glyph unicode="&lt;" glyph-name="less" horiz-adv-x="307" d="M277 120L30 288V370L277 539V401L157 327L277 254V120ZM235 211V215L86 331L235 446V449L73 331L235 211Z" />
<glyph unicode="=" glyph-name="equal" horiz-adv-x="423" d="M50 316V419H373V316H50ZM211 367L327 370V372L211 374L81 371V369L211 367ZM50 119V222H373V119H50ZM211 169L327 172V174L211 176L81 173V171L211 169Z" />
<glyph unicode="&gt;" glyph-name="greater" horiz-adv-x="307" d="M30 120V254L150 327L30 401V539L277 370V288L30 120ZM72 211L234 331L72 449V446L221 331L72 215V211Z" />
<glyph unicode="?" glyph-name="question" horiz-adv-x="415" d="M104 167V291Q132 291 157 302T198 334T215 384V427Q215 449 212 465T195 481Q179 481 177 461Q174 440 174 399V364H15V449Q15 593 197 593Q265 593 305 577T362 524T380 422Q380 388 373 354T348
293T295 254Q284 249 266 247T241 245V167H104ZM91 408H99V472Q100 507 117 525T157 543V545Q133 545 113 527T91 472V408ZM223 289Q249 296 269 315T290 374V467Q290 503 270 523T224 543V541Q244 541 262 521T280 467V374Q280 336 266 319T223 290V289ZM174 190H175L177
269H172L174 190ZM170 -11Q138 -11 116 10T94 62Q94 93 116 114T170 136Q202 136 225 115T248 62Q248 32 225 11T170 -11ZM170 25Q207 25 207 62Q207 99 170 99Q133 99 133 62Q133 25 170 25ZM170 27Q156 27 147 37T138 62Q138 77 147 86T170 96Q184 96 192 87T201
62Q201 48 193 38T170 27Z" />
<glyph unicode="@" glyph-name="at" horiz-adv-x="758" d="M361 -69Q239 -69 171 -32T74 77T46 251Q46 415 123 504T372 593Q468 593 542 563T660 467T703 296Q703 209 682 157T626 81T553 57Q520 57 488 71T438 118Q409 71 341 71Q292 71 263 97T233 185Q233
212 238 233T266 273T347 305Q372 311 386 323T401 344V368Q401 389 397 395T375 402Q359 402 353 394T347 362V332H243V368Q243 404 252 425T289 455T373 464Q434 464 465 453T507 418T518 356V189Q518 146 533 130T572 114Q587 114 600 128T620 177T628 277Q628
397 566 465T375 533Q289 533 233 507T150 418T123 250Q123 170 141 120T192 42T271 4T375 -9Q395 -10 430 -7T504 1T575 15T621 32V-24Q602 -32 563 -43T473 -61T361 -69ZM564 83Q593 83 613 104T645 157T662 227T667 296Q667 387 630 445T535 533V531Q591 502
626 444T661 296Q661 264 656 228T640 159T610 106T564 85V83ZM214 -9V-7Q153 19 121 80T88 241Q88 348 113 415T184 516V519Q138 485 110 418T82 241Q82 140 116 79T214 -9ZM375 151Q400 151 404 166T408 190V261Q389 261 376 257T355 246Q348 239 344 229T339
199Q339 177 343 164T375 151Z" />
<glyph unicode="A" glyph-name="A" horiz-adv-x="409" d="M3 0L88 591H323L406 0H227L219 86H182L176 0H3ZM85 47H89L92 68Q94 79 95 92L98 123L201 124L303 123L311 47H316L292 299L261 549L204 547L152 549L113 301L85 47ZM201 125L99 127L124 300L156 545L204
546L257 545L280 299L302 127L201 125ZM183 163H219L201 466L183 163Z" />
<glyph unicode="B" glyph-name="B" horiz-adv-x="412" d="M25 0V591H257Q323 591 352 563T382 490V426Q382 384 362 354T294 318V316Q337 316 367 289T397 202V125Q397 54 358 27T248 0H25ZM235 45Q267 45 290 77T313 178V204Q313 242 297 273T241 304Q262 304
282 336Q301 367 301 438Q301 484 296 507T273 540T221 549L189 548V546L221 545Q254 545 269 537T289 505T293 438Q293 381 280 343T231 304H191V302H231Q277 302 290 275T304 204V178Q304 111 285 80T235 49L191 48V46L235 45ZM108 45H111L113 305L112 547H108L103
305L108 45ZM191 348H203Q214 348 219 371Q221 382 222 396T224 427Q224 444 224 458T222 484Q220 507 206 507H191V348ZM191 81H206Q217 81 221 106Q224 130 224 165Q224 182 224 197T222 225Q221 249 206 249H191V81Z" />
<glyph unicode="C" glyph-name="C" horiz-adv-x="395" d="M202 -12Q142 -12 102 3T41 58T20 173V465Q20 539 70 569T202 600Q284 600 330 570T377 465V327H218V473Q218 490 214 497Q210 503 202 503Q195 503 190 497Q186 490 186 473V110Q186 92 190 87Q194 80
202 80Q210 80 214 87Q218 92 218 110V248H377V174Q377 99 359 59T301 4T202 -12ZM202 44Q214 44 224 44T244 48Q274 57 287 80T300 156L298 216H296L295 156Q295 108 283 85T242 52Q226 46 202 46Q178 46 160 52Q134 60 122 84T110 156L114 294L110 466Q110 496
122 515T163 541Q172 543 182 544T202 546Q223 546 238 542Q268 535 281 517T294 473L295 378H297L299 473Q299 501 285 519T239 546Q236 547 232 547T223 548H202Q191 548 181 548T163 545Q132 538 119 518T106 466L101 294L106 156Q106 105 119 81T158 48Q167
45 178 45T202 44Z" />
<glyph unicode="D" glyph-name="D" horiz-adv-x="402" d="M25 0V591H257Q323 591 352 563T382 490V125Q382 54 343 27T233 0H25ZM103 47H107L110 298L107 549H103L100 298L103 47ZM204 45H234Q300 45 300 114L303 300L300 493Q300 524 280 536T228 549L194 548V546L228
545Q259 545 277 534T296 493L293 301L296 114Q296 49 234 49H218Q214 48 211 48T204 48H191V46Q195 45 204 45ZM191 80H206Q214 80 218 86T223 110V473Q223 490 219 496T206 503H191V80Z" />
<glyph unicode="E" glyph-name="E" horiz-adv-x="328" d="M25 0V591H311V480H191V365H301V240H191V108H311V0H25ZM105 55L270 56V58L110 59L114 298L245 299V301L114 302L110 532L270 533V535L105 536L101 300L105 55Z" />
<glyph unicode="F" glyph-name="F" horiz-adv-x="326" d="M25 0V591H311V480H191V365H301V240H191V0H25ZM105 55H110L114 298L245 299V301L114 302L110 532L270 533V535L105 536L101 300L105 55Z" />
<glyph unicode="G" glyph-name="G" horiz-adv-x="395" d="M149 -10Q91 -10 56 25T20 151V463Q20 537 68 567T196 598Q276 598 326 568T377 463V373H223V473Q223 490 217 496T201 503Q191 503 185 497T179 473V110Q179 93 185 87T201 80Q211 80 217 86T223 110V222H198V311H377V0H257L243
62Q235 38 213 14T149 -10ZM170 45V47Q137 44 124 70T111 138L113 293L110 466Q109 504 129 524T202 545Q253 545 271 526T290 473L291 409H293L294 473Q295 508 276 528T202 549Q148 549 128 528T106 466L101 293L107 135Q109 95 121 68T170 45ZM306 47H310L313
268L239 267V265L268 264H304L306 47Z" />
<glyph unicode="H" glyph-name="H" horiz-adv-x="404" d="M25 0V591H184V362H220V591H379V0H220V245H184V0H25ZM100 47H104L109 298L200 299L291 298L296 47H300L304 300L299 547H295L291 302L200 301L109 302L105 547H101L96 300L100 47Z" />
<glyph unicode="I" glyph-name="I" horiz-adv-x="209" d="M25 0V591H184V0H25ZM100 47H104L109 300L105 547H101L96 300L100 47Z" />
<glyph unicode="J" glyph-name="J" horiz-adv-x="264" d="M59 -1L5 0V108H34Q63 108 71 117T80 156V591H239V159Q239 65 197 32T59 -1ZM80 60Q102 61 121 74Q137 85 149 108T163 177L166 300L161 547H157L152 300L154 175Q155 133 143 111T117 77Q100 65 80 63V60Z" />
<glyph unicode="K" glyph-name="K" horiz-adv-x="409" d="M25 0V591H184V350L234 591H417L317 307L419 0H242L184 266V0H25ZM100 47H104L109 300L105 547H101L96 300L100 47ZM313 47H317L283 173Q280 186 274 207T262 250T251 287T247 304L311 547H306Q301 528
296 510T285 474L267 409Q257 375 249 349L233 304L249 259Q257 231 268 195T289 125Q300 86 313 47Z" />
<glyph unicode="L" glyph-name="L" horiz-adv-x="301" d="M25 0V591H182V108H291V0H25ZM100 55L245 56V58L105 59L109 300L105 547H100L96 300L100 55Z" />
<glyph unicode="M" glyph-name="M" horiz-adv-x="540" d="M25 0V591H227L270 289L313 591H515V0H376V412L323 0H217L164 412V0H25ZM93 47H97L102 300L98 547H94L89 300L93 47ZM444 47H448L453 300L449 547H445L440 300L444 47ZM270 47L284 119Q287 135 290 153T298
192L314 278Q322 324 330 369T345 452L360 534H358L304 279L270 61L259 130Q254 161 248 199T234 278Q226 323 218 368T201 451L183 535H181L195 452Q201 415 208 369T224 277Q231 234 239 194T254 121Q260 96 265 74T270 47Z" />
<glyph unicode="N" glyph-name="N" horiz-adv-x="399" d="M25 0V591H163L235 316V591H374V0H237L164 245V0H25ZM93 47H98L101 300L98 534L185 305L301 47H304L307 300L304 547H299L296 300L300 57L199 299L96 547H93L90 300L93 47Z" />
<glyph unicode="O" glyph-name="O" horiz-adv-x="397" d="M202 -12Q142 -12 102 3T41 58T20 173V465Q20 539 70 569T202 600Q284 600 330 570T377 465V174Q377 99 359 59T301 4T202 -12ZM166 45H193Q199 45 202 46Q204 45 209 45H233Q297 45 299 114L303 300L299
493Q298 524 279 537T227 549L202 548L172 549Q140 550 121 537T100 493L96 300L100 114Q102 45 166 45ZM193 48L181 49H166Q103 51 104 114L109 301L104 493Q103 522 122 533T172 545L202 546L227 545Q258 544 277 533T295 493L290 301L295 114Q296 51 233 49H219L209
48H193ZM202 80Q210 80 214 87Q218 92 218 110V473Q218 490 214 497Q210 503 202 503Q195 503 190 497Q186 490 186 473V110Q186 92 190 87Q194 80 202 80Z" />
<glyph unicode="P" glyph-name="P" d="M25 0V591H257Q323 591 352 563T382 490V392Q382 346 372 308T336 247T265 224H191V0H25ZM194 266H234Q264 266 280 289T301 349T307 428Q307 465 304 491T283 533T224 549L192 548V546L224 545Q262 545 276 532T293 491T296
422Q296 388 293 353T277 293T234 269L194 268V266ZM106 47H110L115 300L111 547H107L102 300L106 47ZM191 310H203Q215 310 219 332Q221 343 222 361T224 408Q224 436 224 455T222 485Q221 507 206 507H191V310Z" />
<glyph unicode="Q" glyph-name="Q" horiz-adv-x="401" d="M277 -129L209 -12H202Q142 -12 102 3T41 58T20 173V465Q20 539 70 569T202 600Q284 600 330 570T377 465V174Q377 113 365 77T330 20L381 -68L277 -129ZM166 45H193Q199 45 202 46Q204 45 209 45H233Q299
45 299 114L303 300L299 493Q299 524 279 536T227 549L202 548L172 549Q140 549 120 537T100 493L96 300L100 114Q100 45 166 45ZM193 48L181 49H166Q104 49 104 114L109 301L104 493Q104 522 122 533T172 545L202 546L227 545Q258 545 276 534T295 493L290 301L295
114Q295 49 233 49H219Q215 48 209 48H193ZM202 80Q210 80 214 87Q218 92 218 110V473Q218 490 214 497Q210 503 202 503Q195 503 190 497Q186 490 186 473V110Q186 92 190 87Q194 80 202 80Z" />
<glyph unicode="R" glyph-name="R" horiz-adv-x="412" d="M25 0V591H257Q323 591 352 563T382 490V400Q382 357 365 323T299 278Q323 276 337 263T364 215L419 0H242L191 262V0H25ZM215 290H237Q268 290 284 312T307 368T314 438Q314 502 296 526T231 549L199
548V546L231 545Q263 544 278 534T298 501T303 438Q303 409 299 376T281 319T237 293L215 292V290ZM106 47H110L115 300L111 547H107L102 300L106 47ZM191 320H203Q217 320 220 342T224 408Q224 436 224 455T222 485Q221 507 206 507H191V320ZM315 47H323Q319 62
312 93T296 159T275 224T247 265H246Q261 253 271 227T288 168T301 103T315 47Z" />
<glyph unicode="S" glyph-name="S" horiz-adv-x="405" d="M196 -8Q134 -8 94 7T34 61T14 169V188H181V144Q181 110 185 96T202 81Q214 81 218 91Q222 100 222 136Q222 169 211 187T177 217T115 246Q59 271 39 312T19 422Q19 486 36 523T94 577T202 593Q384 593
384 449V383H225V399Q225 419 225 435T223 461Q220 481 204 481Q191 481 188 465T184 427Q184 399 194 385T224 362T266 345Q313 328 340 310T379 260T391 171Q391 73 340 33T196 -8ZM201 39Q212 39 225 40T247 43Q282 51 297 77T313 160Q313 208 295 236T236 279L205
290L176 304Q138 323 124 350T109 421Q109 472 121 497T168 530Q176 532 185 533T205 534Q223 534 236 531Q273 525 287 500T302 421H305Q308 478 293 503T236 534Q229 535 221 535T205 536Q183 536 168 533Q130 526 113 501T96 421Q96 332 174 300L204 288L234
275Q273 258 287 232T301 160Q301 106 290 80T246 46Q238 44 225 43T201 41Q193 41 181 42T161 45Q125 52 112 78T98 161H95Q92 101 106 75T160 42Q167 41 180 40T201 39Z" />
<glyph unicode="T" glyph-name="T" horiz-adv-x="345" d="M93 0V480H8V591H337V480H252V0H93ZM169 47H174L178 300L174 536L289 538V540L172 542L61 540V538L169 536L165 300L169 47Z" />
<glyph unicode="U" glyph-name="U" horiz-adv-x="402" d="M201 -12Q142 -12 103 0T44 51T25 163V591H184V115Q184 98 188 92T201 85Q209 85 213 91T218 115V591H377V164Q377 90 358 52T300 1T201 -12ZM169 45H196Q202 45 205 46Q207 45 212 45H236Q300 45 302
114L308 300L302 547H298L294 301L298 114Q299 51 236 49H222Q218 48 212 48H196L184 49H169Q105 49 107 114L111 301L107 547H103L97 300L103 114Q105 45 169 45Z" />
<glyph unicode="V" glyph-name="V" horiz-adv-x="419" d="M94 0L8 591H173L210 157L252 591H411L323 0H94ZM162 47L211 49L261 47L303 314L326 547H322L290 314L257 51L211 50L166 51L131 313L95 547H91L118 312L162 47Z" />
<glyph unicode="W" glyph-name="W" horiz-adv-x="637" d="M94 0L8 591H173L214 200L252 591H385L423 200L464 591H629L543 0H357L318 258L280 0H94ZM168 47H170L136 297L94 547H90L125 294L168 47ZM464 47H466L509 294L544 547H540L498 297L464 47ZM234 47H236L252
125Q260 160 268 204T283 294L296 373Q299 392 302 409T307 442L316 511L350 293L398 47H400L388 125Q383 160 376 204T360 294L344 380Q340 400 337 418T330 453L316 525Q316 521 312 499T302 451Q299 433 294 406T283 349T273 295Q265 249 258 205T246 125L234
47Z" />
<glyph unicode="X" glyph-name="X" horiz-adv-x="404" d="M5 0L86 307L7 591H166L201 436L230 591H399L322 307L397 0H238L203 154L174 0H5ZM100 47H103L174 305L202 307L230 305L302 47H305L239 307Q239 307 243 322T253 358T266 399T275 429L310 547H307L231
310L202 308L174 310L98 547H95Q105 514 113 485T130 429Q133 417 139 398T151 358T161 323T166 307L100 47Z" />
<glyph unicode="Y" glyph-name="Y" horiz-adv-x="354" d="M96 0V245L-15 591H142L174 467L183 415L192 467L225 591H369L255 236V0H96ZM176 47H178L183 238Q183 240 189 258T203 303T220 354T233 395Q244 429 256 466T282 547H279L177 252L77 547H74L122 395Q127
380 135 355T151 303T165 258T171 238L176 47Z" />
<glyph unicode="Z" glyph-name="Z" horiz-adv-x="308" d="M10 0V98L117 480H20V591H298V516L183 111H298V0H10ZM76 50L246 52V54L81 55L156 304L216 540L67 538V536L211 535L143 307L76 50Z" />
<glyph unicode="[" glyph-name="bracketleft" horiz-adv-x="333" d="M70 -57V630H323V550H217V23H323V-57H70ZM140 47H144L149 300L145 547H141L136 300L140 47Z" />
<glyph unicode="\" glyph-name="backslash" horiz-adv-x="620" d="M371 -44L30 630H156L498 -44H371ZM408 0H410L258 309L114 591H112L252 306L408 0Z" />
<glyph unicode="]" glyph-name="bracketright" horiz-adv-x="333" d="M10 -57V23H116V550H10V630H263V-57H10ZM185 47H189L194 300L190 547H186L181 300L185 47Z" />
<glyph unicode="^" glyph-name="asciicircum" horiz-adv-x="441" d="M30 405L184 629H258L411 405H289L223 514L155 405H30Z" />
<glyph unicode="_" glyph-name="underscore" horiz-adv-x="703" d="M30 -149V-69H673V-149H30ZM352 -113L607 -109V-105L352 -100L95 -104V-108L352 -113Z" />
<glyph unicode="`" glyph-name="grave" horiz-adv-x="241" d="M116 550L10 656H146L204 550H116Z" />
<glyph unicode="a" glyph-name="a" horiz-adv-x="378" d="M112 -7Q91 -7 68 -1T30 25T14 89V170Q14 212 34 235T85 272T150 297Q181 307 190 321T199 365V397Q199 408 196 415T182 423Q171 423 168 414Q165 404 165 384V321H24V386Q24 446 58 475T183 505Q247
505 285 497T340 463T358 386V0H202V49Q196 30 176 12T112 -7ZM86 366H94V395Q94 426 119 447T180 469V471Q145 471 116 450T86 395V366ZM274 47H278L283 240L279 429H275L270 240L274 47ZM130 39V41Q111 41 103 57T94 111V181Q94 215 113 232T150 255V257Q130
250 107 232T84 181V111Q84 71 97 55T130 39ZM182 80Q195 80 197 93T199 127V246Q184 237 175 223T165 186V121Q165 104 167 92T182 80Z" />
<glyph unicode="b" glyph-name="b" horiz-adv-x="391" d="M246 -7Q201 -7 175 6T140 30Q140 29 135 18T127 0H25V630H181V460Q191 477 209 490T260 503Q290 503 315 494T356 461T371 391V154Q371 88 357 53T315 6T246 -7ZM101 47H105L110 333L106 591H102L97 333L101
47ZM194 38Q209 32 224 32Q253 32 273 55T295 122L299 245L295 383Q294 412 280 431T238 451Q232 451 225 450T209 446V444Q217 446 223 447T235 449Q261 449 274 430T287 383L284 245L287 125Q289 84 270 60T221 35Q214 35 208 36T194 40V38ZM198 80Q206 80 210
86T215 110V378Q215 395 211 401T198 408Q190 408 186 402T181 378V110Q181 93 185 87T198 80Z" />
<glyph unicode="c" glyph-name="c" horiz-adv-x="381" d="M193 -12Q134 -12 96 1T39 53T20 166V373Q20 447 65 475T193 503Q276 503 321 475T366 373V294H210V393Q210 410 206 416T193 423Q185 423 181 417T176 393V98Q176 81 180 75T193 68Q201 68 205 74T210
98V213H366V167Q366 93 348 54T291 2T193 -12ZM283 334H291V382Q290 415 273 436T220 458V456Q255 456 268 435T283 382V334ZM156 33V35Q134 35 117 54T99 102L102 245L99 389Q99 418 122 436T173 455V457Q138 457 115 439T91 383L88 245L91 103Q91 72 112 53T156
33ZM212 33Q248 33 269 56T291 113V185H283V113Q282 82 265 59T212 35V33Z" />
<glyph unicode="d" glyph-name="d" horiz-adv-x="391" d="M156 -7Q110 -7 80 5T35 51T20 154V391Q20 434 36 457T76 490T125 500Q165 500 183 487T210 460V630H366V0H261L245 47Q235 31 215 12T156 -7ZM287 47H291L295 333L290 591H286L282 333L287 47ZM197 38V40Q190
37 184 36T170 35Q142 35 123 59T104 125L107 245L104 383Q103 411 117 430T156 449Q162 449 168 448T182 444V446Q174 449 167 450T153 451Q125 451 111 432T96 383L92 245L96 122Q98 79 118 56T167 32Q182 32 197 38ZM193 80Q201 80 205 86T210 110V405L205 406Q202
407 199 407T193 408Q185 408 181 402T176 378V110Q176 93 180 87T193 80Z" />
<glyph unicode="e" glyph-name="e" horiz-adv-x="381" d="M193 -12Q134 -12 96 1T39 53T20 166V373Q20 447 65 475T193 503Q276 503 321 475T366 373V233H176V98Q176 81 180 75T193 68Q201 68 205 74T210 98V188H366V167Q366 93 348 54T291 2T193 -12ZM283 267H291V382Q291
415 274 436T220 458V456Q255 456 269 435T283 382V267ZM156 33V35Q134 35 116 54T99 102L102 245L99 389Q98 418 121 436T173 455V457Q138 457 115 439T91 383L88 245L91 103Q92 72 113 53T156 33ZM176 300H210V393Q210 410 206 416T193 423Q185 423 181 417T176
393V300ZM212 33Q248 33 269 56T291 113V164H283V113Q283 82 265 59T212 35V33Z" />
<glyph unicode="f" glyph-name="f" horiz-adv-x="288" d="M42 0V389H10V476H42V512Q42 563 58 588T103 622T166 630Q181 630 205 629T251 626T278 624V554Q274 554 270 554T261 555Q253 556 244 556T225 557Q208 557 203 543T198 513V476H278V389H198V0H42ZM117
47H121L125 314L122 430L235 433V435L122 437L121 523Q121 558 136 576T178 596V597Q146 597 131 575T115 526L113 437L46 435V433L113 430L112 314L117 47Z" />
<glyph unicode="g" glyph-name="g" horiz-adv-x="386" d="M202 -114Q167 -114 134 -109T82 -99V-19L105 -24Q115 -26 125 -27T144 -28Q170 -28 190 -18T210 24V89Q200 72 192 59T169 39T122 31Q85 31 63 45T30 94T20 196V391Q20 434 36 457T76 490T125 500Q165
500 183 487T210 460L226 495H366V106Q366 64 361 25T340 -45T291 -95T202 -114ZM212 -61Q239 -63 256 -51T282 -19T291 21L294 204L289 471H285L281 204L284 25Q285 -11 268 -35T212 -60V-61ZM179 86V88Q162 78 145 78Q125 78 113 94T101 140L103 268L101 374Q100
412 115 429T156 447Q171 447 192 439V441Q170 450 151 450Q126 450 110 433T93 377L89 268L92 140Q94 109 107 92T141 75Q160 75 179 86ZM193 122Q201 122 205 128T210 152V405L205 406Q202 407 199 407T193 408Q185 408 181 402T176 378V152Q176 135 180 129T193
122Z" />
<glyph unicode="h" glyph-name="h" horiz-adv-x="391" d="M25 0V630H170V430Q175 465 202 483T261 502Q327 502 349 469T371 371V0H215V370Q215 398 198 398Q194 398 189 398T181 395V0H25ZM97 47H101L106 333L102 591H98L93 333L97 47ZM289 47H293L298 245L295
399Q294 422 283 435T251 449Q226 449 208 434V432Q228 447 251 447Q273 447 281 430T289 399L285 245L289 47Z" />
<glyph unicode="i" glyph-name="i" horiz-adv-x="206" d="M102 548Q70 548 48 569T26 621Q26 652 48 673T102 695Q134 695 157 674T180 621Q180 591 157 570T102 548ZM103 584Q140 584 140 621Q140 658 103 658Q66 658 66 621Q66 584 103 584ZM103 586Q89 586
80 596T71 621Q71 636 80 645T103 655Q117 655 125 646T134 621Q134 607 126 597T103 586ZM25 0V495H181V0H25ZM100 47H104L109 240L105 429H101L96 240L100 47Z" />
<glyph unicode="j" glyph-name="j" horiz-adv-x="195" d="M91 548Q59 548 37 569T15 621Q15 652 37 673T91 695Q123 695 146 674T169 621Q169 591 146 570T91 548ZM92 584Q129 584 129 621Q129 658 92 658Q55 658 55 621Q55 584 92 584ZM92 586Q78 586 69 596T60
621Q60 636 69 645T92 655Q106 655 114 646T123 621Q123 607 115 597T92 586ZM-66 -109V-32H-30Q-13 -32 0 -19T14 9V495H170V66Q170 0 148 -40T88 -98T0 -116Q-16 -116 -32 -114T-66 -109ZM17 -61Q44 -63 61 -51T87 -19T96 21L99 204L94 471H90L86 204L89 25Q90
-11 73 -35T17 -60V-61Z" />
<glyph unicode="k" glyph-name="k" horiz-adv-x="410" d="M25 0V630H181V0H25ZM98 47H102L107 333L103 591H99L94 333L98 47ZM239 0L183 287L260 495H414L324 300L411 0H239ZM313 47H317L287 164Q284 175 279 194T268 234T259 269T255 285L326 474H321L241 285Q255
240 268 198T291 121Q296 101 302 83T313 47Z" />
<glyph unicode="l" glyph-name="l" horiz-adv-x="206" d="M25 0V630H181V0H25ZM99 47H103L108 333L104 591H100L95 333L99 47Z" />
<glyph unicode="m" glyph-name="m" horiz-adv-x="581" d="M25 0V495H158L170 430Q179 461 204 481T261 502Q306 502 329 486T363 439Q374 466 397 484T451 502Q517 502 539 469T561 371V0H405V365Q405 393 388 393Q384 393 379 393T371 390V0H215V365Q215 393
198 393Q194 393 189 393T181 390V0H25ZM286 47H290L295 245L292 399Q291 422 280 435T248 449Q223 449 205 434V432Q225 447 248 447Q270 447 278 430T286 399L282 245L286 47ZM482 47H486L491 245L488 399Q487 422 476 435T444 449Q419 449 401 434V432Q421 447
444 447Q466 447 474 430T482 399L478 245L482 47ZM101 47H105L110 240L106 429H102L97 240L101 47Z" />
<glyph unicode="n" glyph-name="n" horiz-adv-x="391" d="M25 0V495H158L170 430Q179 461 204 481T261 502Q327 502 349 469T371 371V0H215V365Q215 393 198 393Q194 393 189 393T181 390V0H25ZM290 47H294L299 245L296 399Q295 422 284 435T252 449Q227 449 209
434V432Q229 447 252 447Q274 447 282 430T290 399L286 245L290 47ZM101 47H105L110 240L106 429H102L97 240L101 47Z" />
<glyph unicode="o" glyph-name="o" horiz-adv-x="386" d="M193 -12Q134 -12 96 1T39 53T20 166V373Q20 447 65 475T193 503Q276 503 321 475T366 373V167Q366 93 348 54T291 2T193 -12ZM167 28V30Q137 32 120 56T104 125L107 245L104 383Q103 413 115 434T163
455V457Q125 457 111 436T96 383L92 245L96 122Q98 75 117 53T167 28ZM218 28Q248 30 268 52T289 122L293 245L289 383Q288 414 274 435T222 457V455Q258 455 270 434T281 383L278 245L281 125Q283 80 266 56T218 30V28ZM193 68Q201 68 205 74T210 98V393Q210 410
206 416T193 423Q185 423 181 417T176 393V98Q176 81 180 75T193 68Z" />
<glyph unicode="p" glyph-name="p" horiz-adv-x="391" d="M25 -116V495H181V460Q191 477 209 490T260 503Q290 503 315 494T356 461T371 391V154Q371 67 343 31T261 -6Q227 -6 209 6T181 36V-116H25ZM99 -78H103L107 180L102 466H98L94 180L99 -78ZM202 47Q219
40 235 40Q260 40 276 59T293 122L297 245L293 383Q292 412 278 430T238 449Q224 449 207 443V441Q215 444 221 445T234 446Q260 446 272 428T285 383L282 245L285 125Q287 84 272 64T232 43Q219 43 202 49V47ZM198 80Q206 80 210 86T215 110V378Q215 395 211 401T198
408Q195 408 192 408T186 406L181 405V110Q181 93 185 87T198 80Z" />
<glyph unicode="q" glyph-name="q" horiz-adv-x="391" d="M210 -116V41Q202 22 184 8T127 -7Q94 -7 70 6T33 55T20 154V391Q20 434 36 457T76 490T125 500Q165 500 183 487T210 460V495H366V-116H210ZM286 -78H290L295 180L291 466H287L282 180L286 -78ZM187 47V49Q171
43 157 43Q132 43 118 63T104 125L107 245L104 383Q104 410 117 428T155 446Q161 446 168 445T182 441V443Q166 449 151 449Q125 449 111 431T96 383L92 245L96 122Q98 79 113 60T154 40Q170 40 187 47ZM193 80Q201 80 205 86T210 110V405L205 406Q202 407 199
407T193 408Q185 408 181 402T176 378V110Q176 93 180 87T193 80Z" />
<glyph unicode="r" glyph-name="r" horiz-adv-x="301" d="M25 0V495H158L170 431Q183 464 211 481T273 499Q286 499 299 496V377Q281 380 264 380Q250 380 235 377T209 366Q192 353 187 331T181 279V0H25ZM185 402Q191 414 212 425T259 437V445Q233 445 212 432T185
405V402ZM100 47H104L109 240L105 429H101L96 240L100 47Z" />
<glyph unicode="s" glyph-name="s" horiz-adv-x="386" d="M190 -14Q90 -14 52 23T14 144V178H171V109Q171 90 174 79Q177 68 188 68Q198 68 201 76T205 95V141Q205 167 195 179T165 198T122 215Q84 229 56 256T27 335V363Q27 439 67 472T203 505Q299 505 335 469T372
353V321H221V384Q221 404 218 414Q215 423 204 423Q193 423 190 416T187 397V350Q187 327 200 316T234 298T276 284Q315 271 343 245T372 170V134Q372 54 330 20T190 -14ZM191 29Q200 29 212 29T232 32Q264 39 278 66T292 142Q292 184 275 207T222 244L197 253L171
265Q137 281 126 305T115 366Q115 410 126 431T168 459Q175 461 184 461T201 462H216Q220 462 223 462T229 460Q262 455 275 433T289 366H291Q294 414 280 435T229 462Q223 463 216 463T201 464Q193 464 184 464T168 462Q134 456 119 434T103 366Q103 327 119 301T170
261L197 251L221 241Q256 227 268 205T281 142Q281 97 271 69T231 35Q224 33 212 32T191 30Q183 30 171 31T152 34Q120 40 108 67T95 143H92Q90 92 103 64T151 31Q157 30 170 30T191 29Z" />
<glyph unicode="t" glyph-name="t" horiz-adv-x="303" d="M201 -10Q162 -10 128 -2T73 33T51 110V405H2V472L65 495L86 585H207V495H291V405H207V137Q207 122 213 108T244 93H258Q262 93 265 93T273 94L291 96V4Q284 2 278 1T263 -3Q250 -6 234 -8T201 -10ZM185
42V43Q159 45 143 63T128 116L132 295L129 444L245 447V449L129 451L128 520H124L122 451L38 449V447L122 444L119 295L122 113Q123 87 138 65T185 42Z" />
<glyph unicode="u" glyph-name="u" horiz-adv-x="396" d="M135 -7Q69 -7 47 26T25 124V495H181V130Q181 102 198 102Q202 102 207 102T215 105V495H371V0H238L226 65Q217 34 192 14T135 -7ZM147 47Q172 47 190 62V64Q171 49 147 49Q125 49 117 66T109 97L113 251L109
449H105L100 251L103 97Q104 74 115 61T147 47ZM293 43H297L302 256L298 449H294L289 256L293 43Z" />
<glyph unicode="v" glyph-name="v" horiz-adv-x="384" d="M99 0L0 495H161L202 184L236 495H384L286 0H99ZM158 47H161L128 270L93 466H89L116 269L158 47ZM236 47H239L280 270L302 466H298L267 270L236 47Z" />
<glyph unicode="w" glyph-name="w" horiz-adv-x="601" d="M90 0L-8 495H140L182 184L225 495H376L427 184L461 495H609L511 0H331L300 198L270 0H90ZM150 47H153L120 270L85 466H81L108 269L150 47ZM205 47H208L251 240L290 466H287L239 241L205 47ZM384 47H387L352
241L305 466H302L340 240L384 47ZM462 47H465L507 269L534 466H530L495 270L462 47Z" />
<glyph unicode="x" glyph-name="x" horiz-adv-x="368" d="M-5 0L84 254L13 495H161L189 369L230 495H373L289 254L365 0H217L188 126L148 0H-5ZM88 48H91L162 252L190 254L218 252L290 48H293L230 254Q230 255 234 268T244 300T256 337T265 366L298 473H295L219
257L190 255L162 257L86 473H83L116 366Q119 356 124 338T136 301T147 269T151 254L88 48Z" />
<glyph unicode="y" glyph-name="y" horiz-adv-x="374" d="M125 -116Q90 -116 57 -111T5 -101V-21L20 -24Q32 -27 44 -27Q64 -27 78 -23T92 2Q92 5 92 8T90 16L-5 495H156L192 177L193 154L194 177L231 495H379L293 62Q274 -35 234 -75T125 -116ZM121 -63Q126 -64
130 -64T139 -65Q171 -65 188 -43T211 6L263 251L299 471H295L250 254L205 11Q199 -20 183 -41T135 -63Q132 -63 129 -63T121 -62V-63ZM153 47H156L123 270L88 466H84L111 269L153 47Z" />
<glyph unicode="z" glyph-name="z" horiz-adv-x="308" d="M7 0V60L125 396H22V495H301V429L189 105H301V0H7ZM78 50L248 52V54L83 55L161 248L224 449L71 447V445L219 444L148 251L78 50Z" />
<glyph unicode="{" glyph-name="braceleft" horiz-adv-x="352" d="M315 -136Q309 -135 305 -135T297 -135Q232 -132 181 -115T100 -63T70 20Q70 35 73 51Q78 76 90 95T117 130T142 162T153 193Q153 212 136 227T87 243V286Q118 286 135 301T153 336Q153 352 143
367T118 398T91 434T73 478Q70 495 70 509Q70 558 99 591T180 644T298 665H332V586Q295 582 271 561T247 494Q247 464 255 444T269 413Q293 367 293 331Q293 306 280 289T237 265Q266 258 279 241T293 198Q293 163 269 116Q264 106 256 86T247 35Q247 -11 271 -31T332
-57V-136H315ZM181 290Q192 291 206 303T221 341Q221 367 211 389T190 433Q179 454 170 476T160 523Q160 556 186 584T256 613V616Q210 616 182 586T154 519Q154 491 163 469T184 425Q195 404 204 382T214 337Q214 315 202 305T181 294V290ZM256 -88V-85Q213 -85
187 -57T160 5Q160 30 169 52T190 95Q201 116 211 138T221 187Q221 213 207 225T181 238V234Q190 233 202 223T214 191Q214 168 205 146T184 103Q173 82 164 60T154 9Q154 -27 182 -57T256 -88Z" />
<glyph unicode="|" glyph-name="bar" horiz-adv-x="335" d="M100 -237V630H235V-237H100ZM165 -184H169L174 333L170 591H166L161 333L165 -184Z" />
<glyph unicode="}" glyph-name="braceright" horiz-adv-x="352" d="M20 -136V-57Q57 -52 81 -32T105 35Q105 65 97 85T83 116Q59 163 59 198Q59 223 72 240T115 264Q86 271 73 288T59 331Q59 367 83 413Q88 423 96 443T105 494Q105 540 81 561T20 586V665H37Q43
664 47 664T55 664Q121 662 172 644T252 592T282 509Q282 495 279 478Q274 453 262 434T235 399T210 367T199 336Q199 317 216 302T265 286V243Q234 243 217 228T199 193Q199 177 209 162T234 131T261 95T279 51Q282 35 282 20Q282 -29 253 -63T172 -115T54 -136H20ZM171
291V295Q162 296 150 306T138 338Q138 361 147 383T168 426Q179 447 188 469T198 520Q198 556 171 586T96 617V614Q139 614 165 586T192 524Q192 499 183 477T162 434Q151 413 141 391T131 342Q131 316 145 304T171 291ZM96 -87Q143 -87 170 -57T198 10Q198 38
189 60T168 104Q157 125 148 147T138 192Q138 214 150 224T171 235V239Q160 238 146 226T131 188Q131 162 141 140T162 96Q173 75 182 53T192 6Q192 -27 166 -55T96 -84V-87Z" />
<glyph unicode="~" glyph-name="asciitilde" horiz-adv-x="478" d="M329 505Q302 505 275 512T224 528T178 538Q161 539 151 530T139 508H30Q30 556 62 587T153 616Q171 615 198 608T252 593T294 586Q319 584 327 593T338 612H448Q448 579 431 555T386 518T329 505Z" />
<glyph unicode="&#xa0;" glyph-name="uni00A0" horiz-adv-x="150" />
<glyph unicode="&#xa1;" glyph-name="exclamdown" horiz-adv-x="253" d="M123 361Q88 361 64 383T40 437Q40 469 64 491T123 513Q158 513 182 491T206 437Q206 406 182 384T123 361ZM124 401Q161 401 161 438Q161 475 124 475Q87 475 87 438Q87 401 124 401ZM124
404Q110 404 102 413T93 438Q93 452 101 462T124 473Q138 473 147 463T156 438Q156 423 147 414T124 404ZM43 -125L51 125L78 317H178L205 128L213 -125H43ZM125 -99H129L134 98L130 281H126L121 98L125 -99Z" />
<glyph unicode="&#xa2;" glyph-name="cent" horiz-adv-x="382" d="M146 -67V49Q86 56 58 89T30 203V447Q30 501 61 527T146 559V650H242V555Q290 547 321 521T352 447V333H216V456Q216 470 207 475T191 481Q185 481 176 476T167 456V151Q167 136 176 131T191 125Q198
125 207 130T216 151V267H352V204Q352 133 323 97T242 53V-67H146ZM284 389H292V437Q291 470 274 491T221 513V511Q256 511 269 490T284 437V389ZM157 88V90Q135 90 118 109T100 157L103 300L100 444Q100 473 123 491T174 510V512Q139 512 116 494T92 438L89 300L92
158Q92 127 113 108T157 88ZM213 88Q249 88 270 111T292 168V240H284V168Q283 137 266 114T213 90V88Z" />
<glyph unicode="&#xa3;" glyph-name="sterling" horiz-adv-x="422" d="M20 0V60Q49 101 67 147T89 249H20V342H80Q75 359 70 377T58 412Q45 445 45 486Q45 528 70 552T134 587T216 598Q296 598 344 568T392 463V414H255V464Q255 498 242 513T213 529Q200 529 191
519T181 490Q181 476 189 455Q197 435 205 406T218 342H284V249H214Q209 220 197 190T171 135T149 100H195Q232 100 245 106T258 143V185H392V132Q392 65 375 38T328 5Q315 2 297 2Q267 2 232 7T163 19T101 25Q68 25 49 16T20 0ZM319 442H327V486Q326 523 306 541T261
559V557Q284 557 301 539T319 486V442ZM82 70Q96 82 110 107T133 161Q144 196 151 231T160 292L243 295V296L160 299Q158 337 147 370Q140 387 135 403T125 433Q120 445 116 461T112 492Q112 512 124 531T159 556V558Q133 553 121 533T108 492Q108 475 111 459T120
431Q129 402 140 364T151 299L68 295V294L151 292Q150 267 145 231T129 160Q120 133 108 111T82 77V70ZM265 52Q300 52 312 69T324 120V131Q323 134 323 137T323 142V155H321Q320 151 320 148T320 142V120Q320 91 309 77T278 60Q272 59 267 59T255 59Q237 59 219
61T182 65V63L233 55Q250 52 265 52Z" />
<glyph unicode="&#xa4;" glyph-name="currency" horiz-adv-x="566" d="M101 51L32 120L142 231Q124 263 124 302Q124 340 141 372L30 483L99 552L212 440Q245 456 283 456Q321 456 352 441L465 555L534 486L423 374Q442 342 442 302Q442 263 424 231L536 121L467
52L353 165Q320 149 283 149Q245 149 213 164L101 51ZM283 249Q304 249 319 264T334 301Q334 324 319 339T283 354Q262 354 247 339T232 301Q232 279 247 264T283 249Z" />
<glyph unicode="&#xa5;" glyph-name="yen" horiz-adv-x="404" d="M121 0V119H33V192H121V232H33V305H102L10 591H167L208 446L250 591H394L302 305H356V232H280V192H356V119H280V0H121ZM206 47H208L213 238Q213 240 219 258T233 303T250 354T263 395Q274 429 286
466T312 547H309L207 252L107 547H104L152 395Q157 380 165 355T181 303T195 258T201 238L206 47Z" />
<glyph unicode="&#xa6;" glyph-name="brokenbar" horiz-adv-x="235" d="M50 267V585H185V267H50ZM116 305H120L124 428L119 545H115L111 428L116 305ZM50 -165V181H185V-165H50ZM116 -128H120L124 3L119 148H115L111 3L116 -128Z" />
<glyph unicode="&#xa7;" glyph-name="section" horiz-adv-x="446" d="M204 -133Q104 -133 66 -96T28 25V59H185V-10Q185 -30 188 -41Q191 -51 202 -51Q212 -51 215 -43T219 -24V22Q219 48 209 60T179 79T136 96Q107 106 79 126T33 178T15 256Q15 298 27 327T69
374Q67 379 66 386T64 401Q63 409 63 421T62 449Q62 525 102 558T238 591Q334 591 370 555T407 439V407H256V470Q256 490 253 500Q250 509 239 509Q228 509 225 502T222 483V436Q222 411 241 394T289 365T347 339Q397 317 414 285T431 208Q431 157 417 128T382
81Q384 73 385 62Q386 56 386 44T386 15Q386 -65 344 -99T204 -133ZM344 142Q350 146 357 165T364 202Q364 244 347 267T294 304L251 321L207 341Q172 355 161 385T150 452Q150 496 161 517T203 545Q210 547 220 547T238 548H253Q257 548 260 548T266 546Q299 541
312 519T326 452H328Q331 500 317 521T266 548Q260 549 253 549T238 550Q230 550 220 550T203 548Q169 542 154 520T138 452Q138 413 154 382T206 337L251 319L293 301Q328 287 341 265T355 203Q355 185 350 168T340 146L344 142ZM201 -88Q209 -88 219 -88T236
-86Q270 -80 285 -58T301 10Q301 49 285 80T233 125L188 143L146 161Q111 175 98 197T84 259Q84 297 106 325L102 329Q88 318 82 298T75 260Q75 218 92 195T145 158L188 141L232 121Q267 107 278 77T289 10Q289 -34 278 -55T236 -83Q229 -85 219 -85T201 -86H186Q182
-86 179 -86T173 -84Q140 -79 127 -57T113 10H111Q108 -38 122 -59T173 -86Q179 -87 186 -87T201 -88ZM290 165Q296 174 296 190Q296 201 293 208Q281 236 252 254T185 289L171 295Q168 297 165 298T159 301Q154 294 153 287T152 274Q152 252 171 233T216 200T265
177Q269 176 272 175T278 172L290 165Z" />
<glyph unicode="&#xa8;" glyph-name="dieresis" horiz-adv-x="277" d="M198 543Q173 543 156 559T139 600Q139 624 156 640T198 656Q224 656 240 640T257 600Q257 576 241 560T198 543ZM59 543Q34 543 17 559T0 600Q0 624 17 640T59 656Q85 656 101 640T118 600Q118
576 102 560T59 543Z" />
<glyph unicode="&#xa9;" glyph-name="copyright" horiz-adv-x="600" d="M306 30Q248 30 197 51T107 112T47 202T25 311Q25 369 46 420T107 509T197 569T306 591Q364 591 415 570T504 510T564 420T586 311Q586 253 565 202T505 112T415 52T306 30ZM306 86Q368 86
418 116T498 198T528 311Q528 373 498 423T418 504T306 534Q245 534 195 504T114 423T83 311Q83 250 113 199T194 117T306 86ZM303 167Q254 167 232 187T205 240T199 316Q199 358 204 391T232 445T303 465Q366 465 387 433T408 351L362 352Q362 382 352 400T304
419Q276 419 264 406T248 370T245 317Q245 287 247 263T262 224T303 210Q337 210 349 229T362 278H408Q408 249 399 224T368 183T303 167Z" />
<glyph unicode="&#xaa;" glyph-name="ordfeminine" horiz-adv-x="244" d="M78 288Q65 288 52 291T29 307T20 345V393Q20 418 32 432T63 454T101 468Q119 474 124 482T130 508V527Q130 543 119 543Q109 543 109 519V482H20V521Q20 551 40 571T120 591Q180 591 202
577T224 521V292H131V321Q128 310 116 299T78 288ZM119 339Q127 339 128 347T130 367V438Q121 433 115 425T109 402V364Q109 353 110 346T119 339Z" />
<glyph unicode="&#xab;" glyph-name="guillemotleft" horiz-adv-x="532" d="M386 99L249 295L385 491H522L386 295L522 99H386ZM429 138H433Q420 157 407 177T381 217Q368 237 355 256T329 295L433 456H430L318 295L429 138ZM187 99L50 295L186 491H323L187 295L323
99H187ZM230 138H234Q221 157 208 177T182 217Q169 237 156 256T130 295L234 456H231L119 295L230 138Z" />
<glyph unicode="&#xac;" glyph-name="logicalnot" horiz-adv-x="558" d="M429 95V296H36V409H528V95H429ZM478 147H480L481 362L279 365L75 361V358L279 354L477 357L478 147Z" />
<glyph unicode="&#xad;" glyph-name="uni00AD" horiz-adv-x="212" d="M256 239V342H468V239H256ZM361 289L431 292V294L361 296L290 293V291L361 289Z" />
<glyph unicode="&#xae;" glyph-name="registered" horiz-adv-x="621" d="M311 30Q253 30 202 51T112 112T52 202T30 311Q30 369 51 420T112 509T202 569T311 591Q369 591 420 570T509 510T569 420T591 311Q591 253 570 202T510 112T420 52T311 30ZM311 86Q373
86 423 116T503 198T533 311Q533 373 503 423T423 504T311 534Q250 534 200 504T119 423T88 311Q88 250 118 199T199 117T311 86ZM216 172V458H322Q372 458 389 441T406 385Q406 353 396 330T354 302Q358 300 359 296L425 172H356L297 296H274V172H216ZM274 330H311Q332
330 342 344T352 381Q352 397 345 409T313 422H274V330Z" />
<glyph unicode="&#xaf;" glyph-name="overscore" horiz-adv-x="242" d="M10 556V633H232V556H10Z" />
<glyph unicode="&#xb0;" glyph-name="degree" horiz-adv-x="333" d="M166 312Q99 312 65 349T30 444Q30 504 62 541T168 578Q239 578 271 542T303 446Q303 387 270 350T166 312ZM167 380Q193 380 209 398T225 445Q225 471 210 491T166 511Q140 511 124 491T108
444Q108 417 124 399T167 380Z" />
<glyph unicode="&#xb1;" glyph-name="plusminus" horiz-adv-x="436" d="M166 160V297H30V400H166V536H269V400H406V297H269V160H166ZM30 0V96H406V0H30Z" />
<glyph unicode="&#xb2;" glyph-name="uni00B2" horiz-adv-x="255" d="M18 235V310Q18 345 25 364T48 397T93 425Q113 433 128 445T143 483V493Q143 506 141 515T131 525Q122 525 120 513Q119 506 119 497T118 476V455H22V506Q22 593 132 593Q196 593 219 570T243
490Q243 445 231 421T186 379Q157 362 138 350T118 312H243V235H18ZM67 271L212 273V274L72 275V332Q72 349 79 361T97 382Q105 389 115 395T136 407Q159 418 175 434Q181 441 185 450T190 473V516Q190 540 177 551T149 562V560Q163 560 174 550T186 516V473Q184
450 173 437Q161 422 138 411Q127 405 117 399T96 385Q84 376 76 364T67 332V271ZM68 483H72V514Q73 533 81 546T118 560V562Q89 562 79 548T68 514V483Z" />
<glyph unicode="&#xb3;" glyph-name="uni00B3" horiz-adv-x="241" d="M118 233Q9 233 9 320V365H104V350Q104 338 104 329T106 314Q107 301 117 301Q125 301 127 310T129 333V369Q129 383 119 387T86 391H62V441H86Q113 441 121 449Q129 457 129 466V494Q129 507
127 516T117 526Q108 526 106 514Q105 507 105 498T104 477V468H9V507Q9 593 118 593Q178 593 203 575T228 515V481Q228 451 213 433T166 413Q195 413 211 396T228 348V320Q228 270 203 252T118 233ZM56 497H61V523Q61 544 71 555T95 566V567Q81 567 69 557T56
523V497ZM136 431Q150 431 162 442T175 477V522Q175 546 165 556T143 567V566Q154 566 162 556T170 522V477Q169 456 159 444T136 432V431ZM136 266Q149 266 162 277T175 312V354Q175 377 168 387T148 397V396Q160 396 164 387Q169 375 169 354V312Q169 289 158
278T136 267V266ZM92 266V267Q82 267 70 278T58 312V343H53V312Q53 287 67 277T92 266Z" />
<glyph unicode="&#xb4;" glyph-name="acute" horiz-adv-x="224" d="M0 550L58 656H194L88 550H0Z" />
<glyph unicode="&#xb5;" glyph-name="uni00B5" horiz-adv-x="406" d="M30 -129V495H186V105Q189 103 194 103T203 102Q220 102 220 130V495H376V124Q376 59 354 26T266 -7Q234 -7 209 13T175 65L163 -129H30ZM99 -81H103L108 205L104 463H100L95 205L99 -81ZM259
47Q280 47 291 60T303 97L306 251L301 449H297L293 251L297 97Q298 83 290 66T259 49Q236 49 216 64V62Q234 47 259 47Z" />
<glyph unicode="&#xb6;" glyph-name="paragraph" horiz-adv-x="662" d="M178 -59V205Q132 205 101 229T55 294T40 386Q40 503 118 552Q150 572 201 578T338 585H468V-59H344V481H304V-59H178Z" />
<glyph unicode="&#xb7;" glyph-name="middot" horiz-adv-x="266" d="M133 206Q98 206 74 228T50 282Q50 313 74 335T133 358Q168 358 192 336T216 282Q216 250 192 228T133 206Z" />
<glyph unicode="&#xb8;" glyph-name="cedilla" horiz-adv-x="243" d="M67 -174Q45 -174 26 -166T0 -153L18 -106Q25 -112 37 -116T60 -121Q87 -121 87 -96Q87 -88 82 -84T70 -80Q64 -80 61 -82T55 -86L14 -64L45 0H101L79 -44Q85 -42 92 -41T108 -39Q138 -39 154
-58T171 -99Q171 -129 144 -151T67 -174Z" />
<glyph unicode="&#xb9;" glyph-name="uni00B9" horiz-adv-x="196" d="M75 232V478H10V533Q30 533 52 546T86 591H171V232H75ZM122 261H124L127 414L125 564H123L120 414L122 261Z" />
<glyph unicode="&#xba;" glyph-name="ordmasculine" horiz-adv-x="233" d="M116 289Q82 289 60 296T26 326T15 393V515Q15 559 41 575T116 591Q165 591 191 575T218 515V394Q218 350 207 328T174 297T116 289ZM116 336Q126 336 126 353V526Q126 535 124 541Q121
544 116 544Q111 544 109 541Q106 537 106 526V353Q106 336 116 336Z" />
<glyph unicode="&#xbb;" glyph-name="guillemotright" horiz-adv-x="531" d="M208 99L344 295L208 491H345L481 295L344 99H208ZM302 138H306L417 295L305 456H302L406 295Q393 276 381 257T354 217Q341 197 329 177T302 138ZM10 99L146 295L10 491H147L283 295L146
99H10ZM104 138H108L219 295L107 456H104L208 295Q195 276 183 257T156 217Q143 197 131 177T104 138Z" />
<glyph unicode="&#xbc;" glyph-name="onequarter" horiz-adv-x="658" d="M90 232V478H25V533Q45 533 67 546T101 591H186V232H90ZM32 0L523 585H633L142 0H32ZM137 261H139L142 414L140 564H138L135 414L137 261ZM120 39L341 301L543 547H541L336 306L118 40L120
39ZM484 0V67H378V120L484 352H579V130H616V67H579V0H484ZM529 28H532L535 179L532 326H530L527 179L529 28ZM412 98L484 100V101H453L430 102H417V122L467 237H466L412 123V98ZM451 130H484V211L451 130Z" />
<glyph unicode="&#xbd;" glyph-name="onehalf" horiz-adv-x="683" d="M97 232V478H32V533Q52 533 74 546T108 591H193V232H97ZM25 0L516 585H626L135 0H25ZM144 261H146L149 414L147 564H145L142 414L144 261ZM113 39L334 301L536 547H534L329 306L111 40L113
39ZM431 0V75Q431 110 438 129T461 162T506 190Q526 198 541 210T556 248V258Q556 271 554 280T544 290Q535 290 533 278Q532 271 532 262T531 241V220H435V271Q435 358 545 358Q609 358 632 335T656 255Q656 210 644 186T599 144Q570 127 551 115T531 77H656V0H431ZM480
36L625 38V39L485 40V97Q485 114 492 126T510 147Q518 154 528 160T549 172Q572 183 588 199Q594 206 598 215T603 238V281Q603 305 590 316T562 327V325Q576 325 587 315T599 281V238Q597 215 586 202Q574 187 551 176Q540 170 530 164T509 150Q497 141 489 129T480
97V36ZM481 248H485V279Q486 298 494 311T531 325V327Q502 327 492 313T481 279V248Z" />
<glyph unicode="&#xbe;" glyph-name="threequarters" horiz-adv-x="628" d="M129 233Q20 233 20 320V365H115V350Q115 338 115 329T117 314Q118 301 128 301Q136 301 138 310T140 333V369Q140 383 130 387T97 391H73V441H97Q124 441 132 449Q140 457 140 466V494Q140
507 138 516T128 526Q119 526 117 514Q116 507 116 498T115 477V468H20V507Q20 593 129 593Q189 593 214 575T239 515V481Q239 451 224 433T177 413Q206 413 222 396T239 348V320Q239 270 214 252T129 233ZM63 0L554 585H664L173 0H63ZM67 497H72V523Q72 544 82
555T106 566V567Q92 567 80 557T67 523V497ZM147 431Q161 431 173 442T186 477V522Q186 546 176 556T154 567V566Q165 566 173 556T181 522V477Q180 456 170 444T147 432V431ZM151 39L372 301L574 547H572L367 306L149 40L151 39ZM147 266Q160 266 173 277T186
312V354Q186 377 179 387T159 397V396Q171 396 175 387Q180 375 180 354V312Q180 289 169 278T147 267V266ZM524 0V67H418V120L524 352H619V130H656V67H619V0H524ZM103 266V267Q93 267 81 278T69 312V343H64V312Q64 287 78 277T103 266ZM569 28H572L575 179L572
326H570L567 179L569 28ZM452 98L524 100V101H493L470 102H457V122L507 237H506L452 123V98ZM491 130H524V211L491 130Z" />
<glyph unicode="&#xbf;" glyph-name="questiondown" horiz-adv-x="415" d="M245 366Q213 366 190 387T167 440Q167 470 190 491T245 513Q277 513 299 492T321 440Q321 409 299 388T245 366ZM245 403Q282 403 282 440Q282 477 245 477Q208 477 208 440Q208 403
245 403ZM245 406Q231 406 223 415T214 440Q214 454 222 464T245 475Q259 475 268 465T277 440Q277 425 268 416T245 406ZM218 -91Q150 -91 110 -75T52 -22T35 80Q35 115 42 149T67 210T120 248Q131 253 149 255T174 257V335H311V211Q284 211 259 200T217 168T200
118V75Q200 53 203 37T220 21Q236 21 239 41Q240 52 240 67T241 103V138H400V53Q400 -91 218 -91ZM238 233H243L241 312H240L238 233ZM191 -41V-39Q171 -39 153 -19T135 35V128Q135 166 149 183T192 212V213Q166 206 146 187T125 128V35Q125 -1 145 -21T191 -41ZM258
-43Q282 -43 303 -25T324 30V94H316V30Q316 -5 299 -23T258 -41V-43Z" />
<glyph unicode="&#xc0;" glyph-name="Agrave" horiz-adv-x="409" d="M3 0L88 591H323L406 0H227L219 86H182L176 0H3ZM85 47H89L92 68Q94 79 95 92L98 123L201 124L303 123L311 47H316L292 299L261 549L204 547L152 549L113 301L85 47ZM201 125L99 127L124 300L156
545L204 546L257 545L280 299L302 127L201 125ZM183 163H219L201 466L183 163ZM176 635L57 733H198L271 635H176Z" />
<glyph unicode="&#xc1;" glyph-name="Aacute" horiz-adv-x="409" d="M3 0L88 591H323L406 0H227L219 86H182L176 0H3ZM85 47H89L92 68Q94 79 95 92L98 123L201 124L303 123L311 47H316L292 299L261 549L204 547L152 549L113 301L85 47ZM201 125L99 127L124 300L156
545L204 546L257 545L280 299L302 127L201 125ZM183 163H219L201 466L183 163ZM135 635L212 738H350L220 635H135Z" />
<glyph unicode="&#xc2;" glyph-name="Acircumflex" horiz-adv-x="409" d="M3 0L88 591H323L406 0H227L219 86H182L176 0H3ZM85 47H89L92 68Q94 79 95 92L98 123L201 124L303 123L311 47H316L292 299L261 549L204 547L152 549L113 301L85 47ZM201 125L99 127L124
300L156 545L204 546L257 545L280 299L302 127L201 125ZM183 163H219L201 466L183 163ZM62 632L163 741H246L348 633H243L206 665L169 632H62Z" />
<glyph unicode="&#xc3;" glyph-name="Atilde" horiz-adv-x="409" d="M3 0L88 591H323L406 0H227L219 86H182L176 0H3ZM85 47H89L92 68Q94 79 95 92L98 123L201 124L303 123L311 47H316L292 299L261 549L204 547L152 549L113 301L85 47ZM201 125L99 127L124 300L156
545L204 546L257 545L280 299L302 127L201 125ZM183 163H219L201 466L183 163ZM249 635Q232 635 217 642T188 656Q176 663 165 667T141 672Q128 672 121 662T113 636H72Q72 683 91 712T143 741Q161 741 176 736T204 723Q216 717 227 712T250 707Q266 707 272 716T281
738H327Q327 704 315 681T284 647T249 635Z" />
<glyph unicode="&#xc4;" glyph-name="Adieresis" horiz-adv-x="409" d="M3 0L88 591H323L406 0H227L219 86H182L176 0H3ZM85 47H89L92 68Q94 79 95 92L98 123L201 124L303 123L311 47H316L292 299L261 549L204 547L152 549L113 301L85 47ZM201 125L99 127L124
300L156 545L204 546L257 545L280 299L302 127L201 125ZM183 163H219L201 466L183 163ZM274 630Q249 630 232 646T215 687Q215 711 232 727T274 743Q300 743 316 727T333 687Q333 663 317 647T274 630ZM135 630Q110 630 93 646T76 687Q76 711 93 727T135 743Q161
743 177 727T194 687Q194 663 178 647T135 630Z" />
<glyph unicode="&#xc5;" glyph-name="Aring" horiz-adv-x="409" d="M3 0L88 591H323L406 0H227L219 86H182L176 0H3ZM85 47H89L92 68Q94 79 95 92L98 123L201 124L303 123L311 47H316L292 299L261 549L204 547L152 549L113 301L85 47ZM201 125L99 127L124 300L156
545L204 546L257 545L280 299L302 127L201 125ZM183 163H219L201 466L183 163ZM207 603Q167 603 141 628T114 690Q114 728 140 753T207 779Q245 779 272 753T300 690Q300 654 273 629T207 603ZM207 662Q220 662 229 670T238 690Q238 704 229 712T207 721Q194 721
185 713T176 690Q176 678 185 670T207 662Z" />
<glyph unicode="&#xc6;" glyph-name="AE" horiz-adv-x="523" d="M-5 0L80 591H506V480H330L346 365H496V240H364L382 108H506V0H219L211 86H174L168 0H-5ZM87 47H91L94 68Q96 79 97 92L100 123L203 124L305 123L313 47H464V48L317 52L294 296H464V297L294 301L263
544H464V545L263 549L206 547L154 549L115 301L87 47ZM203 125L101 127L126 300L158 545L206 546L259 545L282 299L304 127L203 125ZM175 163H211L193 466L175 163Z" />
<glyph unicode="&#xc7;" glyph-name="Ccedilla" horiz-adv-x="395" d="M202 -12Q142 -12 102 3T41 58T20 173V465Q20 539 70 569T202 600Q284 600 330 570T377 465V327H218V473Q218 490 214 497Q210 503 202 503Q195 503 190 497Q186 490 186 473V110Q186 92 190
87Q194 80 202 80Q210 80 214 87Q218 92 218 110V248H377V174Q377 99 359 59T301 4T202 -12ZM202 44Q214 44 224 44T244 48Q274 57 287 80T300 156L298 216H296L295 156Q295 108 283 85T242 52Q226 46 202 46Q178 46 160 52Q134 60 122 84T110 156L114 294L110
466Q110 496 122 515T163 541Q172 543 182 544T202 546Q223 546 238 542Q268 535 281 517T294 473L295 378H297L299 473Q299 501 285 519T239 546Q236 547 232 547T223 548H202Q191 548 181 548T163 545Q132 538 119 518T106 466L101 294L106 156Q106 105 119 81T158
48Q167 45 178 45T202 44ZM196 -174Q174 -174 155 -166T129 -153L147 -106Q154 -112 166 -116T189 -121Q216 -121 216 -96Q216 -88 211 -84T199 -80Q193 -80 190 -82T184 -86L143 -64L174 0H230L208 -44Q214 -42 221 -41T237 -39Q267 -39 283 -58T300 -99Q300 -129
273 -151T196 -174Z" />
<glyph unicode="&#xc8;" glyph-name="Egrave" horiz-adv-x="328" d="M25 0V591H311V480H191V365H301V240H191V108H311V0H25ZM105 55L270 56V58L110 59L114 298L245 299V301L114 302L110 532L270 533V535L105 536L101 300L105 55ZM137 635L18 733H159L232 635H137Z" />
<glyph unicode="&#xc9;" glyph-name="Eacute" horiz-adv-x="328" d="M25 0V591H311V480H191V365H301V240H191V108H311V0H25ZM105 55L270 56V58L110 59L114 298L245 299V301L114 302L110 532L270 533V535L105 536L101 300L105 55ZM96 635L173 738H311L181 635H96Z" />
<glyph unicode="&#xca;" glyph-name="Ecircumflex" horiz-adv-x="328" d="M25 0V591H311V480H191V365H301V240H191V108H311V0H25ZM105 55L270 56V58L110 59L114 298L245 299V301L114 302L110 532L270 533V535L105 536L101 300L105 55ZM23 632L124 741H207L309
633H204L167 665L130 632H23Z" />
<glyph unicode="&#xcb;" glyph-name="Edieresis" horiz-adv-x="328" d="M25 0V591H311V480H191V365H301V240H191V108H311V0H25ZM105 55L270 56V58L110 59L114 298L245 299V301L114 302L110 532L270 533V535L105 536L101 300L105 55ZM235 630Q210 630 193 646T176
687Q176 711 193 727T235 743Q261 743 277 727T294 687Q294 663 278 647T235 630ZM96 630Q71 630 54 646T37 687Q37 711 54 727T96 743Q122 743 138 727T155 687Q155 663 139 647T96 630Z" />
<glyph unicode="&#xcc;" glyph-name="Igrave" horiz-adv-x="209" d="M25 0V591H184V0H25ZM100 47H104L109 300L105 547H101L96 300L100 47ZM332 635L213 733H354L427 635H332Z" />
<glyph unicode="&#xcd;" glyph-name="Iacute" horiz-adv-x="209" d="M25 0V591H184V0H25ZM100 47H104L109 300L105 547H101L96 300L100 47ZM35 635L112 738H250L120 635H35Z" />
<glyph unicode="&#xce;" glyph-name="Icircumflex" horiz-adv-x="209" d="M25 0V591H184V0H25ZM100 47H104L109 300L105 547H101L96 300L100 47ZM218 632L319 741H402L504 633H399L362 665L325 632H218Z" />
<glyph unicode="&#xcf;" glyph-name="Idieresis" horiz-adv-x="209" d="M25 0V591H184V0H25ZM100 47H104L109 300L105 547H101L96 300L100 47ZM430 630Q405 630 388 646T371 687Q371 711 388 727T430 743Q456 743 472 727T489 687Q489 663 473 647T430 630ZM291
630Q266 630 249 646T232 687Q232 711 249 727T291 743Q317 743 333 727T350 687Q350 663 334 647T291 630Z" />
<glyph unicode="&#xd0;" glyph-name="Eth" horiz-adv-x="443" d="M43 0V244H7V335H43V591H269Q325 591 356 581T402 548T419 486T423 389V226Q423 165 419 122T399 52T351 13T261 0H43ZM245 45H275Q339 45 341 114L344 300L341 493Q340 524 321 537T269 549L235
548V546L269 545Q300 544 319 533T337 493L334 301L337 114Q338 51 275 49H259Q255 48 252 48T245 48H232V46Q236 45 245 45ZM130 47H134L137 298L134 549H130L127 298L130 47ZM211 81H234Q245 81 252 87T259 112V297L260 478Q260 495 253 501T234 508H211V335H231V244H211V81Z"
/>
<glyph unicode="&#xd1;" glyph-name="Ntilde" horiz-adv-x="399" d="M25 0V591H163L235 316V591H374V0H237L164 245V0H25ZM93 47H98L101 300L98 534L185 305L301 47H304L307 300L304 547H299L296 300L300 57L199 299L96 547H93L90 300L93 47ZM243 635Q226 635
211 642T182 656Q170 663 159 667T135 672Q122 672 115 662T107 636H66Q66 683 85 712T137 741Q155 741 170 736T198 723Q210 717 221 712T244 707Q260 707 266 716T275 738H321Q321 704 309 681T278 647T243 635Z" />
<glyph unicode="&#xd2;" glyph-name="Ograve" horiz-adv-x="397" d="M202 -12Q142 -12 102 3T41 58T20 173V465Q20 539 70 569T202 600Q284 600 330 570T377 465V174Q377 99 359 59T301 4T202 -12ZM166 45H193Q199 45 202 46Q204 45 209 45H233Q297 45 299 114L303
300L299 493Q298 524 279 537T227 549L202 548L172 549Q140 550 121 537T100 493L96 300L100 114Q102 45 166 45ZM193 48L181 49H166Q103 51 104 114L109 301L104 493Q103 522 122 533T172 545L202 546L227 545Q258 544 277 533T295 493L290 301L295 114Q296 51
233 49H219L209 48H193ZM202 80Q210 80 214 87Q218 92 218 110V473Q218 490 214 497Q210 503 202 503Q195 503 190 497Q186 490 186 473V110Q186 92 190 87Q194 80 202 80ZM173 635L54 733H195L268 635H173Z" />
<glyph unicode="&#xd3;" glyph-name="Oacute" horiz-adv-x="397" d="M202 -12Q142 -12 102 3T41 58T20 173V465Q20 539 70 569T202 600Q284 600 330 570T377 465V174Q377 99 359 59T301 4T202 -12ZM166 45H193Q199 45 202 46Q204 45 209 45H233Q297 45 299 114L303
300L299 493Q298 524 279 537T227 549L202 548L172 549Q140 550 121 537T100 493L96 300L100 114Q102 45 166 45ZM193 48L181 49H166Q103 51 104 114L109 301L104 493Q103 522 122 533T172 545L202 546L227 545Q258 544 277 533T295 493L290 301L295 114Q296 51
233 49H219L209 48H193ZM202 80Q210 80 214 87Q218 92 218 110V473Q218 490 214 497Q210 503 202 503Q195 503 190 497Q186 490 186 473V110Q186 92 190 87Q194 80 202 80ZM132 635L209 738H347L217 635H132Z" />
<glyph unicode="&#xd4;" glyph-name="Ocircumflex" horiz-adv-x="397" d="M202 -12Q142 -12 102 3T41 58T20 173V465Q20 539 70 569T202 600Q284 600 330 570T377 465V174Q377 99 359 59T301 4T202 -12ZM166 45H193Q199 45 202 46Q204 45 209 45H233Q297 45 299
114L303 300L299 493Q298 524 279 537T227 549L202 548L172 549Q140 550 121 537T100 493L96 300L100 114Q102 45 166 45ZM193 48L181 49H166Q103 51 104 114L109 301L104 493Q103 522 122 533T172 545L202 546L227 545Q258 544 277 533T295 493L290 301L295 114Q296
51 233 49H219L209 48H193ZM202 80Q210 80 214 87Q218 92 218 110V473Q218 490 214 497Q210 503 202 503Q195 503 190 497Q186 490 186 473V110Q186 92 190 87Q194 80 202 80ZM59 632L160 741H243L345 633H240L203 665L166 632H59Z" />
<glyph unicode="&#xd5;" glyph-name="Otilde" horiz-adv-x="397" d="M202 -12Q142 -12 102 3T41 58T20 173V465Q20 539 70 569T202 600Q284 600 330 570T377 465V174Q377 99 359 59T301 4T202 -12ZM166 45H193Q199 45 202 46Q204 45 209 45H233Q297 45 299 114L303
300L299 493Q298 524 279 537T227 549L202 548L172 549Q140 550 121 537T100 493L96 300L100 114Q102 45 166 45ZM193 48L181 49H166Q103 51 104 114L109 301L104 493Q103 522 122 533T172 545L202 546L227 545Q258 544 277 533T295 493L290 301L295 114Q296 51
233 49H219L209 48H193ZM202 80Q210 80 214 87Q218 92 218 110V473Q218 490 214 497Q210 503 202 503Q195 503 190 497Q186 490 186 473V110Q186 92 190 87Q194 80 202 80ZM246 635Q229 635 214 642T185 656Q173 663 162 667T138 672Q125 672 118 662T110 636H69Q69
683 88 712T140 741Q158 741 173 736T201 723Q213 717 224 712T247 707Q263 707 269 716T278 738H324Q324 704 312 681T281 647T246 635Z" />
<glyph unicode="&#xd6;" glyph-name="Odieresis" horiz-adv-x="397" d="M202 -12Q142 -12 102 3T41 58T20 173V465Q20 539 70 569T202 600Q284 600 330 570T377 465V174Q377 99 359 59T301 4T202 -12ZM166 45H193Q199 45 202 46Q204 45 209 45H233Q297 45 299
114L303 300L299 493Q298 524 279 537T227 549L202 548L172 549Q140 550 121 537T100 493L96 300L100 114Q102 45 166 45ZM193 48L181 49H166Q103 51 104 114L109 301L104 493Q103 522 122 533T172 545L202 546L227 545Q258 544 277 533T295 493L290 301L295 114Q296
51 233 49H219L209 48H193ZM202 80Q210 80 214 87Q218 92 218 110V473Q218 490 214 497Q210 503 202 503Q195 503 190 497Q186 490 186 473V110Q186 92 190 87Q194 80 202 80ZM271 630Q246 630 229 646T212 687Q212 711 229 727T271 743Q297 743 313 727T330 687Q330
663 314 647T271 630ZM132 630Q107 630 90 646T73 687Q73 711 90 727T132 743Q158 743 174 727T191 687Q191 663 175 647T132 630Z" />
<glyph unicode="&#xd7;" glyph-name="multiply" horiz-adv-x="412" d="M310 85L206 188L103 86L30 158L134 261L30 364L103 437L206 334L310 438L382 365L279 261L382 157L310 85ZM143 198L206 257L270 198V200L212 262L270 324V326L206 268L143 326V324L200 262L143
200V198Z" />
<glyph unicode="&#xd8;" glyph-name="Oslash" horiz-adv-x="416" d="M9 -44L59 54Q48 75 42 104T36 173V465Q36 539 86 569T218 600Q286 600 325 581L350 630H418L373 542Q393 510 393 465V174Q393 99 375 59T317 4T218 -12Q183 -12 155 -8T103 9L76 -44H9ZM187
45H214Q220 45 223 46Q225 45 230 45H254Q318 45 320 114L324 300L320 493Q319 524 300 537T248 549L223 548L193 549Q161 550 142 537T121 493L117 300L121 114Q123 45 187 45ZM214 48L202 49H187Q124 51 125 114L130 301L125 493Q124 522 143 533T193 545L223
546L248 545Q279 544 298 533T316 493L311 301L316 114Q317 51 254 49H240L230 48H214ZM202 317L234 380V473Q234 490 230 497Q226 503 218 503Q211 503 206 497Q202 490 202 473V317ZM218 80Q226 80 230 87Q234 92 234 110V287L202 224V110Q202 92 206 87Q210
80 218 80Z" />
<glyph unicode="&#xd9;" glyph-name="Ugrave" horiz-adv-x="402" d="M201 -12Q142 -12 103 0T44 51T25 163V591H184V115Q184 98 188 92T201 85Q209 85 213 91T218 115V591H377V164Q377 90 358 52T300 1T201 -12ZM169 45H196Q202 45 205 46Q207 45 212 45H236Q300
45 302 114L308 300L302 547H298L294 301L298 114Q299 51 236 49H222Q218 48 212 48H196L184 49H169Q105 49 107 114L111 301L107 547H103L97 300L103 114Q105 45 169 45ZM172 635L53 733H194L267 635H172Z" />
<glyph unicode="&#xda;" glyph-name="Uacute" horiz-adv-x="402" d="M201 -12Q142 -12 103 0T44 51T25 163V591H184V115Q184 98 188 92T201 85Q209 85 213 91T218 115V591H377V164Q377 90 358 52T300 1T201 -12ZM169 45H196Q202 45 205 46Q207 45 212 45H236Q300
45 302 114L308 300L302 547H298L294 301L298 114Q299 51 236 49H222Q218 48 212 48H196L184 49H169Q105 49 107 114L111 301L107 547H103L97 300L103 114Q105 45 169 45ZM131 635L208 738H346L216 635H131Z" />
<glyph unicode="&#xdb;" glyph-name="Ucircumflex" horiz-adv-x="402" d="M201 -12Q142 -12 103 0T44 51T25 163V591H184V115Q184 98 188 92T201 85Q209 85 213 91T218 115V591H377V164Q377 90 358 52T300 1T201 -12ZM169 45H196Q202 45 205 46Q207 45 212 45H236Q300
45 302 114L308 300L302 547H298L294 301L298 114Q299 51 236 49H222Q218 48 212 48H196L184 49H169Q105 49 107 114L111 301L107 547H103L97 300L103 114Q105 45 169 45ZM58 632L159 741H242L344 633H239L202 665L165 632H58Z" />
<glyph unicode="&#xdc;" glyph-name="Udieresis" horiz-adv-x="402" d="M201 -12Q142 -12 103 0T44 51T25 163V591H184V115Q184 98 188 92T201 85Q209 85 213 91T218 115V591H377V164Q377 90 358 52T300 1T201 -12ZM169 45H196Q202 45 205 46Q207 45 212 45H236Q300
45 302 114L308 300L302 547H298L294 301L298 114Q299 51 236 49H222Q218 48 212 48H196L184 49H169Q105 49 107 114L111 301L107 547H103L97 300L103 114Q105 45 169 45ZM270 630Q245 630 228 646T211 687Q211 711 228 727T270 743Q296 743 312 727T329 687Q329
663 313 647T270 630ZM131 630Q106 630 89 646T72 687Q72 711 89 727T131 743Q157 743 173 727T190 687Q190 663 174 647T131 630Z" />
<glyph unicode="&#xdd;" glyph-name="Yacute" horiz-adv-x="354" d="M96 0V245L-15 591H142L174 467L183 415L192 467L225 591H369L255 236V0H96ZM176 47H178L183 238Q183 240 189 258T203 303T220 354T233 395Q244 429 256 466T282 547H279L177 252L77 547H74L122
395Q127 380 135 355T151 303T165 258T171 238L176 47ZM113 635L190 738H328L198 635H113Z" />
<glyph unicode="&#xde;" glyph-name="Thorn" horiz-adv-x="407" d="M25 0V591H192V494H257Q323 494 352 466T382 393V295Q382 249 372 211T336 150T265 127H191V0H25ZM106 21H110L114 279L109 565H105L101 279L106 21ZM257 185Q277 185 290 201T303 257V374Q302
411 287 430T237 450V448Q269 448 280 429T293 374V257Q293 219 285 203T257 187V185ZM191 213H203Q215 213 219 235Q221 246 222 264T224 311Q224 339 224 358T222 388Q221 410 206 410H191V213Z" />
<glyph unicode="&#xdf;" glyph-name="germandbls" horiz-adv-x="499" d="M15 -147Q4 -147 -17 -146T-47 -143V-55Q-43 -56 -40 -56T-33 -57Q-28 -58 -21 -58T-3 -59Q34 -59 46 -38T58 12V389H15V495H58V522Q58 560 72 584T130 619T256 631Q353 631 404 610T456
533V438Q456 396 430 370T371 342V338Q395 336 418 325T458 294T474 244V121Q474 69 451 43T385 9T285 0H241V78H261Q280 78 288 86T298 117T301 186V239Q301 262 296 277T256 293H238L239 373H276Q293 373 297 389T302 435V483Q302 524 297 541T258 558Q230 558
222 543T214 498L215 38Q215 -23 196 -60T147 -115T82 -140T15 -147ZM57 -88Q85 -90 102 -78T128 -46T136 -6L141 271L139 517Q139 552 155 569T196 589V591Q164 591 149 569T133 520L132 448L52 446V444L132 441L128 271L129 -2Q129 -38 112 -62T57 -87V-88ZM334
359Q372 359 380 391T388 479Q388 525 383 548T360 580T308 589H276V587L308 586Q342 585 357 576T376 543T380 470Q380 418 374 390T334 361V359ZM308 40Q343 39 360 53T382 99T388 187Q388 243 380 275T334 307V305Q368 305 374 277T380 196Q380 140 376 107T357
60T308 44L276 43V41L308 40Z" />
<glyph unicode="&#xe0;" glyph-name="agrave" horiz-adv-x="378" d="M112 -7Q91 -7 68 -1T30 25T14 89V170Q14 212 34 235T85 272T150 297Q181 307 190 321T199 365V397Q199 408 196 415T182 423Q171 423 168 414Q165 404 165 384V321H24V386Q24 446 58 475T183
505Q247 505 285 497T340 463T358 386V0H202V49Q196 30 176 12T112 -7ZM86 366H94V395Q94 426 119 447T180 469V471Q145 471 116 450T86 395V366ZM274 47H278L283 240L279 429H275L270 240L274 47ZM130 39V41Q111 41 103 57T94 111V181Q94 215 113 232T150 255V257Q130
250 107 232T84 181V111Q84 71 97 55T130 39ZM182 80Q195 80 197 93T199 127V246Q184 237 175 223T165 186V121Q165 104 167 92T182 80ZM162 550L56 656H192L250 550H162Z" />
<glyph unicode="&#xe1;" glyph-name="aacute" horiz-adv-x="378" d="M112 -7Q91 -7 68 -1T30 25T14 89V170Q14 212 34 235T85 272T150 297Q181 307 190 321T199 365V397Q199 408 196 415T182 423Q171 423 168 414Q165 404 165 384V321H24V386Q24 446 58 475T183
505Q247 505 285 497T340 463T358 386V0H202V49Q196 30 176 12T112 -7ZM86 366H94V395Q94 426 119 447T180 469V471Q145 471 116 450T86 395V366ZM274 47H278L283 240L279 429H275L270 240L274 47ZM130 39V41Q111 41 103 57T94 111V181Q94 215 113 232T150 255V257Q130
250 107 232T84 181V111Q84 71 97 55T130 39ZM182 80Q195 80 197 93T199 127V246Q184 237 175 223T165 186V121Q165 104 167 92T182 80ZM140 550L198 656H334L228 550H140Z" />
<glyph unicode="&#xe2;" glyph-name="acircumflex" horiz-adv-x="378" d="M112 -7Q91 -7 68 -1T30 25T14 89V170Q14 212 34 235T85 272T150 297Q181 307 190 321T199 365V397Q199 408 196 415T182 423Q171 423 168 414Q165 404 165 384V321H24V386Q24 446 58 475T183
505Q247 505 285 497T340 463T358 386V0H202V49Q196 30 176 12T112 -7ZM86 366H94V395Q94 426 119 447T180 469V471Q145 471 116 450T86 395V366ZM274 47H278L283 240L279 429H275L270 240L274 47ZM130 39V41Q111 41 103 57T94 111V181Q94 215 113 232T150 255V257Q130
250 107 232T84 181V111Q84 71 97 55T130 39ZM182 80Q195 80 197 93T199 127V246Q184 237 175 223T165 186V121Q165 104 167 92T182 80ZM51 545L150 661H233L333 545H233L193 587L153 545H51Z" />
<glyph unicode="&#xe3;" glyph-name="atilde" horiz-adv-x="378" d="M112 -7Q91 -7 68 -1T30 25T14 89V170Q14 212 34 235T85 272T150 297Q181 307 190 321T199 365V397Q199 408 196 415T182 423Q171 423 168 414Q165 404 165 384V321H24V386Q24 446 58 475T183
505Q247 505 285 497T340 463T358 386V0H202V49Q196 30 176 12T112 -7ZM86 366H94V395Q94 426 119 447T180 469V471Q145 471 116 450T86 395V366ZM274 47H278L283 240L279 429H275L270 240L274 47ZM130 39V41Q111 41 103 57T94 111V181Q94 215 113 232T150 255V257Q130
250 107 232T84 181V111Q84 71 97 55T130 39ZM182 80Q195 80 197 93T199 127V246Q184 237 175 223T165 186V121Q165 104 167 92T182 80ZM241 548Q224 548 209 555T180 569Q168 576 157 580T133 585Q120 585 113 575T105 549H64Q64 596 83 625T135 654Q153 654 168
649T196 636Q208 630 219 625T242 620Q258 620 264 629T273 651H319Q319 617 307 594T276 560T241 548Z" />
<glyph unicode="&#xe4;" glyph-name="adieresis" horiz-adv-x="378" d="M112 -7Q91 -7 68 -1T30 25T14 89V170Q14 212 34 235T85 272T150 297Q181 307 190 321T199 365V397Q199 408 196 415T182 423Q171 423 168 414Q165 404 165 384V321H24V386Q24 446 58 475T183
505Q247 505 285 497T340 463T358 386V0H202V49Q196 30 176 12T112 -7ZM86 366H94V395Q94 426 119 447T180 469V471Q145 471 116 450T86 395V366ZM274 47H278L283 240L279 429H275L270 240L274 47ZM130 39V41Q111 41 103 57T94 111V181Q94 215 113 232T150 255V257Q130
250 107 232T84 181V111Q84 71 97 55T130 39ZM182 80Q195 80 197 93T199 127V246Q184 237 175 223T165 186V121Q165 104 167 92T182 80ZM261 543Q236 543 219 559T202 600Q202 624 219 640T261 656Q287 656 303 640T320 600Q320 576 304 560T261 543ZM122 543Q97
543 80 559T63 600Q63 624 80 640T122 656Q148 656 164 640T181 600Q181 576 165 560T122 543Z" />
<glyph unicode="&#xe5;" glyph-name="aring" horiz-adv-x="378" d="M112 -7Q91 -7 68 -1T30 25T14 89V170Q14 212 34 235T85 272T150 297Q181 307 190 321T199 365V397Q199 408 196 415T182 423Q171 423 168 414Q165 404 165 384V321H24V386Q24 446 58 475T183
505Q247 505 285 497T340 463T358 386V0H202V49Q196 30 176 12T112 -7ZM86 366H94V395Q94 426 119 447T180 469V471Q145 471 116 450T86 395V366ZM274 47H278L283 240L279 429H275L270 240L274 47ZM130 39V41Q111 41 103 57T94 111V181Q94 215 113 232T150 255V257Q130
250 107 232T84 181V111Q84 71 97 55T130 39ZM182 80Q195 80 197 93T199 127V246Q184 237 175 223T165 186V121Q165 104 167 92T182 80ZM192 539Q152 539 126 564T99 626Q99 664 125 689T192 715Q230 715 257 689T285 626Q285 590 258 565T192 539ZM192 598Q205
598 214 606T223 626Q223 640 214 648T192 657Q179 657 170 649T161 626Q161 614 170 606T192 598Z" />
<glyph unicode="&#xe6;" glyph-name="ae" horiz-adv-x="561" d="M373 -12Q345 -12 321 -10T277 0H202V49Q196 30 176 12T112 -7Q91 -7 68 -1T30 25T14 89V170Q14 212 34 235T85 272T150 297Q181 307 190 321T199 365V397Q199 408 196 415T182 423Q171 423 168
414Q165 404 165 384V321H14V386Q14 445 53 475T183 505Q218 505 244 503T291 494Q326 503 373 503Q456 503 501 475T546 373V233H358V80Q363 68 373 68Q381 68 385 74T390 98V188H546V167Q546 93 528 54T471 2T373 -12ZM84 366H92V395Q92 426 117 447T178 469V471Q143
471 114 450T84 395V366ZM470 267H478V382Q478 415 461 436T407 458V456Q442 456 456 435T470 382V267ZM272 47H276L281 240L277 429H273L268 240L272 47ZM358 300H390V393Q390 410 386 416T373 423Q361 423 357 407Q358 405 358 402T358 397V300ZM128 39V41Q109
41 101 57T92 111V181Q92 215 111 232T148 255V257Q128 250 105 232T82 181V111Q82 71 95 55T128 39ZM182 80Q195 80 197 93T199 127V246Q184 237 175 223T165 186V121Q165 104 167 92T182 80ZM399 33Q435 33 456 56T478 113V164H470V113Q470 82 452 59T399 35V33Z"
/>
<glyph unicode="&#xe7;" glyph-name="ccedilla" horiz-adv-x="381" d="M193 -12Q134 -12 96 1T39 53T20 166V373Q20 447 65 475T193 503Q276 503 321 475T366 373V294H210V393Q210 410 206 416T193 423Q185 423 181 417T176 393V98Q176 81 180 75T193 68Q201 68
205 74T210 98V213H366V167Q366 93 348 54T291 2T193 -12ZM283 334H291V382Q290 415 273 436T220 458V456Q255 456 268 435T283 382V334ZM156 33V35Q134 35 117 54T99 102L102 245L99 389Q99 418 122 436T173 455V457Q138 457 115 439T91 383L88 245L91 103Q91
72 112 53T156 33ZM212 33Q248 33 269 56T291 113V185H283V113Q282 82 265 59T212 35V33ZM188 -174Q166 -174 147 -166T121 -153L139 -106Q146 -112 158 -116T181 -121Q208 -121 208 -96Q208 -88 203 -84T191 -80Q185 -80 182 -82T176 -86L135 -64L166 0H222L200
-44Q206 -42 213 -41T229 -39Q259 -39 275 -58T292 -99Q292 -129 265 -151T188 -174Z" />
<glyph unicode="&#xe8;" glyph-name="egrave" horiz-adv-x="381" d="M193 -12Q134 -12 96 1T39 53T20 166V373Q20 447 65 475T193 503Q276 503 321 475T366 373V233H176V98Q176 81 180 75T193 68Q201 68 205 74T210 98V188H366V167Q366 93 348 54T291 2T193 -12ZM283
267H291V382Q291 415 274 436T220 458V456Q255 456 269 435T283 382V267ZM156 33V35Q134 35 116 54T99 102L102 245L99 389Q98 418 121 436T173 455V457Q138 457 115 439T91 383L88 245L91 103Q92 72 113 53T156 33ZM176 300H210V393Q210 410 206 416T193 423Q185
423 181 417T176 393V300ZM212 33Q248 33 269 56T291 113V164H283V113Q283 82 265 59T212 35V33ZM163 550L57 656H193L251 550H163Z" />
<glyph unicode="&#xe9;" glyph-name="eacute" horiz-adv-x="381" d="M193 -12Q134 -12 96 1T39 53T20 166V373Q20 447 65 475T193 503Q276 503 321 475T366 373V233H176V98Q176 81 180 75T193 68Q201 68 205 74T210 98V188H366V167Q366 93 348 54T291 2T193 -12ZM283
267H291V382Q291 415 274 436T220 458V456Q255 456 269 435T283 382V267ZM156 33V35Q134 35 116 54T99 102L102 245L99 389Q98 418 121 436T173 455V457Q138 457 115 439T91 383L88 245L91 103Q92 72 113 53T156 33ZM176 300H210V393Q210 410 206 416T193 423Q185
423 181 417T176 393V300ZM212 33Q248 33 269 56T291 113V164H283V113Q283 82 265 59T212 35V33ZM141 550L199 656H335L229 550H141Z" />
<glyph unicode="&#xea;" glyph-name="ecircumflex" horiz-adv-x="381" d="M193 -12Q134 -12 96 1T39 53T20 166V373Q20 447 65 475T193 503Q276 503 321 475T366 373V233H176V98Q176 81 180 75T193 68Q201 68 205 74T210 98V188H366V167Q366 93 348 54T291 2T193
-12ZM283 267H291V382Q291 415 274 436T220 458V456Q255 456 269 435T283 382V267ZM156 33V35Q134 35 116 54T99 102L102 245L99 389Q98 418 121 436T173 455V457Q138 457 115 439T91 383L88 245L91 103Q92 72 113 53T156 33ZM176 300H210V393Q210 410 206 416T193
423Q185 423 181 417T176 393V300ZM212 33Q248 33 269 56T291 113V164H283V113Q283 82 265 59T212 35V33ZM52 545L151 661H234L334 545H234L194 587L154 545H52Z" />
<glyph unicode="&#xeb;" glyph-name="edieresis" horiz-adv-x="381" d="M193 -12Q134 -12 96 1T39 53T20 166V373Q20 447 65 475T193 503Q276 503 321 475T366 373V233H176V98Q176 81 180 75T193 68Q201 68 205 74T210 98V188H366V167Q366 93 348 54T291 2T193
-12ZM283 267H291V382Q291 415 274 436T220 458V456Q255 456 269 435T283 382V267ZM156 33V35Q134 35 116 54T99 102L102 245L99 389Q98 418 121 436T173 455V457Q138 457 115 439T91 383L88 245L91 103Q92 72 113 53T156 33ZM176 300H210V393Q210 410 206 416T193
423Q185 423 181 417T176 393V300ZM212 33Q248 33 269 56T291 113V164H283V113Q283 82 265 59T212 35V33ZM262 543Q237 543 220 559T203 600Q203 624 220 640T262 656Q288 656 304 640T321 600Q321 576 305 560T262 543ZM123 543Q98 543 81 559T64 600Q64 624 81
640T123 656Q149 656 165 640T182 600Q182 576 166 560T123 543Z" />
<glyph unicode="&#xec;" glyph-name="igrave" horiz-adv-x="206" d="M25 0V495H181V0H25ZM103 47H107L112 240L108 429H104L99 240L103 47ZM329 550L223 656H359L417 550H329Z" />
<glyph unicode="&#xed;" glyph-name="iacute" horiz-adv-x="206" d="M25 0V495H181V0H25ZM103 47H107L112 240L108 429H104L99 240L103 47ZM51 550L109 656H245L139 550H51Z" />
<glyph unicode="&#xee;" glyph-name="icircumflex" horiz-adv-x="206" d="M25 0V495H181V0H25ZM103 47H107L112 240L108 429H104L99 240L103 47ZM218 545L317 661H400L500 545H400L360 587L320 545H218Z" />
<glyph unicode="&#xef;" glyph-name="idieresis" horiz-adv-x="206" d="M25 0V495H181V0H25ZM103 47H107L112 240L108 429H104L99 240L103 47ZM428 543Q403 543 386 559T369 600Q369 624 386 640T428 656Q454 656 470 640T487 600Q487 576 471 560T428 543ZM289
543Q264 543 247 559T230 600Q230 624 247 640T289 656Q315 656 331 640T348 600Q348 576 332 560T289 543Z" />
<glyph unicode="&#xf0;" glyph-name="eth" horiz-adv-x="386" d="M193 -12Q134 -12 96 1T39 53T20 166V349Q20 423 65 451T193 479H208Q206 499 199 519T177 551L149 500H83L116 561Q103 560 92 559T73 556L56 553V652Q55 654 80 658Q92 660 113 661T166 662H171L196
707H262L235 657Q269 652 293 636T334 587Q350 553 357 498T366 358V167Q366 93 348 54T291 2T193 -12ZM190 23Q244 23 265 44T287 105L292 300L286 494Q285 523 276 550T246 596T191 614V612Q222 612 242 594T272 547T282 491L280 300L283 105Q283 67 263 46T190
25Q145 25 122 48T101 125L104 245L99 363Q99 393 112 413T155 434Q160 434 164 434T173 432V434Q167 436 162 436T152 436Q121 436 107 416T91 363L89 245L93 122Q95 65 120 44T190 23ZM193 68Q201 68 205 74T210 98V369Q210 386 206 392T193 399Q185 399 181
393T176 369V98Q176 81 180 75T193 68Z" />
<glyph unicode="&#xf1;" glyph-name="ntilde" horiz-adv-x="391" d="M25 0V495H158L170 430Q179 461 204 481T261 502Q327 502 349 469T371 371V0H215V365Q215 393 198 393Q194 393 189 393T181 390V0H25ZM290 47H294L299 245L296 399Q295 422 284 435T252 449Q227
449 209 434V432Q229 447 252 447Q274 447 282 430T290 399L286 245L290 47ZM101 47H105L110 240L106 429H102L97 240L101 47ZM247 548Q230 548 215 555T186 569Q174 576 163 580T139 585Q126 585 119 575T111 549H70Q70 596 89 625T141 654Q159 654 174 649T202
636Q214 630 225 625T248 620Q264 620 270 629T279 651H325Q325 617 313 594T282 560T247 548Z" />
<glyph unicode="&#xf2;" glyph-name="ograve" horiz-adv-x="386" d="M193 -12Q134 -12 96 1T39 53T20 166V373Q20 447 65 475T193 503Q276 503 321 475T366 373V167Q366 93 348 54T291 2T193 -12ZM167 28V30Q137 32 120 56T104 125L107 245L104 383Q103 413 115
434T163 455V457Q125 457 111 436T96 383L92 245L96 122Q98 75 117 53T167 28ZM218 28Q248 30 268 52T289 122L293 245L289 383Q288 414 274 435T222 457V455Q258 455 270 434T281 383L278 245L281 125Q283 80 266 56T218 30V28ZM193 68Q201 68 205 74T210 98V393Q210
410 206 416T193 423Q185 423 181 417T176 393V98Q176 81 180 75T193 68ZM163 550L57 656H193L251 550H163Z" />
<glyph unicode="&#xf3;" glyph-name="oacute" horiz-adv-x="386" d="M193 -12Q134 -12 96 1T39 53T20 166V373Q20 447 65 475T193 503Q276 503 321 475T366 373V167Q366 93 348 54T291 2T193 -12ZM167 28V30Q137 32 120 56T104 125L107 245L104 383Q103 413 115
434T163 455V457Q125 457 111 436T96 383L92 245L96 122Q98 75 117 53T167 28ZM218 28Q248 30 268 52T289 122L293 245L289 383Q288 414 274 435T222 457V455Q258 455 270 434T281 383L278 245L281 125Q283 80 266 56T218 30V28ZM193 68Q201 68 205 74T210 98V393Q210
410 206 416T193 423Q185 423 181 417T176 393V98Q176 81 180 75T193 68ZM141 550L199 656H335L229 550H141Z" />
<glyph unicode="&#xf4;" glyph-name="ocircumflex" horiz-adv-x="386" d="M193 -12Q134 -12 96 1T39 53T20 166V373Q20 447 65 475T193 503Q276 503 321 475T366 373V167Q366 93 348 54T291 2T193 -12ZM167 28V30Q137 32 120 56T104 125L107 245L104 383Q103 413
115 434T163 455V457Q125 457 111 436T96 383L92 245L96 122Q98 75 117 53T167 28ZM218 28Q248 30 268 52T289 122L293 245L289 383Q288 414 274 435T222 457V455Q258 455 270 434T281 383L278 245L281 125Q283 80 266 56T218 30V28ZM193 68Q201 68 205 74T210
98V393Q210 410 206 416T193 423Q185 423 181 417T176 393V98Q176 81 180 75T193 68ZM52 545L151 661H234L334 545H234L194 587L154 545H52Z" />
<glyph unicode="&#xf5;" glyph-name="otilde" horiz-adv-x="386" d="M193 -12Q134 -12 96 1T39 53T20 166V373Q20 447 65 475T193 503Q276 503 321 475T366 373V167Q366 93 348 54T291 2T193 -12ZM167 28V30Q137 32 120 56T104 125L107 245L104 383Q103 413 115
434T163 455V457Q125 457 111 436T96 383L92 245L96 122Q98 75 117 53T167 28ZM218 28Q248 30 268 52T289 122L293 245L289 383Q288 414 274 435T222 457V455Q258 455 270 434T281 383L278 245L281 125Q283 80 266 56T218 30V28ZM193 68Q201 68 205 74T210 98V393Q210
410 206 416T193 423Q185 423 181 417T176 393V98Q176 81 180 75T193 68ZM242 548Q225 548 210 555T181 569Q169 576 158 580T134 585Q121 585 114 575T106 549H65Q65 596 84 625T136 654Q154 654 169 649T197 636Q209 630 220 625T243 620Q259 620 265 629T274
651H320Q320 617 308 594T277 560T242 548Z" />
<glyph unicode="&#xf6;" glyph-name="odieresis" horiz-adv-x="386" d="M193 -12Q134 -12 96 1T39 53T20 166V373Q20 447 65 475T193 503Q276 503 321 475T366 373V167Q366 93 348 54T291 2T193 -12ZM167 28V30Q137 32 120 56T104 125L107 245L104 383Q103 413
115 434T163 455V457Q125 457 111 436T96 383L92 245L96 122Q98 75 117 53T167 28ZM218 28Q248 30 268 52T289 122L293 245L289 383Q288 414 274 435T222 457V455Q258 455 270 434T281 383L278 245L281 125Q283 80 266 56T218 30V28ZM193 68Q201 68 205 74T210
98V393Q210 410 206 416T193 423Q185 423 181 417T176 393V98Q176 81 180 75T193 68ZM262 543Q237 543 220 559T203 600Q203 624 220 640T262 656Q288 656 304 640T321 600Q321 576 305 560T262 543ZM123 543Q98 543 81 559T64 600Q64 624 81 640T123 656Q149 656
165 640T182 600Q182 576 166 560T123 543Z" />
<glyph unicode="&#xf7;" glyph-name="divide" horiz-adv-x="403" d="M201 382Q172 382 152 402T131 449Q131 478 151 497T201 517Q230 517 251 498T272 449Q272 422 251 402T201 382ZM201 415Q235 415 235 449Q235 483 201 483Q167 483 167 449Q167 415 201 415ZM201
417Q188 417 180 426T172 449Q172 463 180 471T201 480Q229 480 229 449Q229 436 222 427T201 417ZM40 234V337H363V234H40ZM199 282L307 285V287L199 289L94 286V284L199 282ZM201 56Q172 56 152 76T131 123Q131 152 151 171T201 191Q230 191 251 172T272 123Q272
96 251 76T201 56ZM201 89Q235 89 235 123Q235 157 201 157Q167 157 167 123Q167 89 201 89ZM201 91Q188 91 180 100T172 123Q172 137 180 145T201 154Q229 154 229 123Q229 110 222 101T201 91Z" />
<glyph unicode="&#xf8;" glyph-name="oslash" horiz-adv-x="383" d="M10 -44L50 35Q20 74 20 166V373Q20 447 65 475T193 503Q248 503 282 493L316 560H383L334 464Q366 432 366 373V167Q366 93 348 54T291 2T193 -12Q165 -12 142 -10T98 0L76 -44H10ZM167 28V30Q137
32 120 56T104 125L107 245L104 383Q104 413 115 434T163 455V457Q125 457 111 436T96 383L92 245L96 122Q98 75 117 53T167 28ZM222 28Q252 30 271 52T293 122L297 245L293 383Q292 414 278 435T226 457V455Q262 455 273 434T285 383L282 245L285 125Q287 80 270
56T222 30V28ZM176 268L210 335V393Q210 410 206 416T193 423Q185 423 181 417T176 393V268ZM193 68Q201 68 205 74T210 98V230L176 163V98Q176 81 180 75T193 68Z" />
<glyph unicode="&#xf9;" glyph-name="ugrave" horiz-adv-x="396" d="M135 -7Q69 -7 47 26T25 124V495H181V130Q181 102 198 102Q202 102 207 102T215 105V495H371V0H238L226 65Q217 34 192 14T135 -7ZM147 47Q172 47 190 62V64Q171 49 147 49Q125 49 117 66T109
97L113 251L109 449H105L100 251L103 97Q104 74 115 61T147 47ZM293 43H297L302 256L298 449H294L289 256L293 43ZM168 550L62 656H198L256 550H168Z" />
<glyph unicode="&#xfa;" glyph-name="uacute" horiz-adv-x="396" d="M135 -7Q69 -7 47 26T25 124V495H181V130Q181 102 198 102Q202 102 207 102T215 105V495H371V0H238L226 65Q217 34 192 14T135 -7ZM147 47Q172 47 190 62V64Q171 49 147 49Q125 49 117 66T109
97L113 251L109 449H105L100 251L103 97Q104 74 115 61T147 47ZM293 43H297L302 256L298 449H294L289 256L293 43ZM146 550L204 656H340L234 550H146Z" />
<glyph unicode="&#xfb;" glyph-name="ucircumflex" horiz-adv-x="396" d="M135 -7Q69 -7 47 26T25 124V495H181V130Q181 102 198 102Q202 102 207 102T215 105V495H371V0H238L226 65Q217 34 192 14T135 -7ZM147 47Q172 47 190 62V64Q171 49 147 49Q125 49 117
66T109 97L113 251L109 449H105L100 251L103 97Q104 74 115 61T147 47ZM293 43H297L302 256L298 449H294L289 256L293 43ZM57 545L156 661H239L339 545H239L199 587L159 545H57Z" />
<glyph unicode="&#xfc;" glyph-name="udieresis" horiz-adv-x="396" d="M135 -7Q69 -7 47 26T25 124V495H181V130Q181 102 198 102Q202 102 207 102T215 105V495H371V0H238L226 65Q217 34 192 14T135 -7ZM147 47Q172 47 190 62V64Q171 49 147 49Q125 49 117 66T109
97L113 251L109 449H105L100 251L103 97Q104 74 115 61T147 47ZM293 43H297L302 256L298 449H294L289 256L293 43ZM267 543Q242 543 225 559T208 600Q208 624 225 640T267 656Q293 656 309 640T326 600Q326 576 310 560T267 543ZM128 543Q103 543 86 559T69 600Q69
624 86 640T128 656Q154 656 170 640T187 600Q187 576 171 560T128 543Z" />
<glyph unicode="&#xfd;" glyph-name="yacute" horiz-adv-x="374" d="M125 -116Q90 -116 57 -111T5 -101V-21L20 -24Q32 -27 44 -27Q64 -27 78 -23T92 2Q92 5 92 8T90 16L-5 495H156L192 177L193 154L194 177L231 495H379L293 62Q274 -35 234 -75T125 -116ZM121
-63Q126 -64 130 -64T139 -65Q171 -65 188 -43T211 6L263 251L299 471H295L250 254L205 11Q199 -20 183 -41T135 -63Q132 -63 129 -63T121 -62V-63ZM153 47H156L123 270L88 466H84L111 269L153 47ZM140 550L198 656H334L228 550H140Z" />
<glyph unicode="&#xfe;" glyph-name="thorn" horiz-adv-x="391" d="M25 -116V630H181V460Q191 477 209 490T260 503Q290 503 315 494T356 461T371 391V154Q371 67 343 31T261 -6Q227 -6 209 6T181 36V-116H25ZM98 -67H102L106 279L101 591H97L93 279L98 -67ZM254
57Q274 57 287 73T300 129V369Q299 406 284 425T234 445V443Q266 443 277 424T290 369V129Q290 91 282 75T254 59V57ZM198 80Q206 80 210 86T215 110V378Q215 395 211 401T198 408Q195 408 192 408T186 406L181 405V110Q181 93 185 87T198 80Z" />
<glyph unicode="&#xff;" glyph-name="ydieresis" horiz-adv-x="374" d="M125 -116Q90 -116 57 -111T5 -101V-21L20 -24Q32 -27 44 -27Q64 -27 78 -23T92 2Q92 5 92 8T90 16L-5 495H156L192 177L193 154L194 177L231 495H379L293 62Q274 -35 234 -75T125 -116ZM121
-63Q126 -64 130 -64T139 -65Q171 -65 188 -43T211 6L263 251L299 471H295L250 254L205 11Q199 -20 183 -41T135 -63Q132 -63 129 -63T121 -62V-63ZM153 47H156L123 270L88 466H84L111 269L153 47ZM261 543Q236 543 219 559T202 600Q202 624 219 640T261 656Q287
656 303 640T320 600Q320 576 304 560T261 543ZM122 543Q97 543 80 559T63 600Q63 624 80 640T122 656Q148 656 164 640T181 600Q181 576 165 560T122 543Z" />
<glyph unicode="&#x2013;" glyph-name="endash" horiz-adv-x="478" d="M30 239V342H448V239H30ZM239 284L394 288V292L239 297L82 293V289L239 284Z" />
<glyph unicode="&#x2014;" glyph-name="emdash" horiz-adv-x="625" d="M30 239V342H595V239H30ZM312 284L537 288V292L312 297L85 293V289L312 284Z" />
<glyph unicode="&#x2018;" glyph-name="quoteleft" horiz-adv-x="216" d="M50 416L126 630H211L174 416H50ZM117 443H122L162 596H157L117 443Z" />
<glyph unicode="&#x2019;" glyph-name="quoteright" horiz-adv-x="216" d="M166 630L90 416H5L42 630H166ZM99 603H94L54 450H59L99 603Z" />
<glyph unicode="&#x201a;" glyph-name="quotesinglbase" horiz-adv-x="255" d="M85 -119Q66 -119 50 -111Q71 -97 87 -70T105 -17Q105 0 94 11T72 35T61 64Q61 88 79 105T132 123Q169 123 187 104T205 56Q206 32 198 2T173 -55T135 -101T85 -119ZM113 -82H116Q126
-71 138 -44T151 16Q151 34 147 47T131 67Q127 69 125 66T127 60Q145 49 145 16Q145 -14 135 -41T113 -82Z" />
<glyph unicode="&#x201c;" glyph-name="quotedblleft" horiz-adv-x="352" d="M262 630H347L310 416H186L262 630ZM126 630H211L174 416H50L126 630ZM293 596L253 443H258L298 596H293ZM157 596L117 443H122L162 596H157Z" />
<glyph unicode="&#x201d;" glyph-name="quotedblright" horiz-adv-x="352" d="M90 416H5L42 630H166L90 416ZM226 416H141L178 630H302L226 416ZM59 450L99 603H94L54 450H59ZM195 450L235 603H230L190 450H195Z" />
<glyph unicode="&#x201e;" glyph-name="quotedblbase" horiz-adv-x="420" d="M252 -118Q244 -118 235 -117T218 -110Q238 -96 254 -71T272 -19Q272 -2 262 9T240 32T229 60Q229 84 246 101T298 118Q336 118 353 98T370 47Q370 23 362 -5T337 -59T300 -101T252
-118ZM84 -118Q76 -118 67 -117T50 -110Q70 -96 86 -71T104 -19Q104 -2 94 9T72 32T61 60Q61 84 78 101T130 118Q168 118 185 98T202 47Q202 23 194 -5T169 -59T132 -101T84 -118ZM112 -77H115Q125 -66 137 -39T150 21Q150 39 146 52T130 72Q126 74 124 71T126
65Q144 54 144 21Q144 -9 134 -36T112 -77ZM280 -77H283Q293 -66 305 -39T318 21Q318 39 314 52T298 72Q294 74 292 71T294 65Q312 54 312 21Q312 -9 302 -36T280 -77Z" />
<glyph unicode="&#x2022;" glyph-name="bullet" horiz-adv-x="298" d="M148 176Q103 176 72 207T40 285Q40 331 71 363T149 395Q194 395 226 363T258 285Q258 239 227 208T148 176Z" />
<glyph unicode="&#x2039;" glyph-name="guilsinglleft" horiz-adv-x="333" d="M187 99L50 295L186 491H323L187 295L323 99H187ZM230 138H234Q221 157 208 177T182 217Q169 237 156 256T130 295L234 456H231L119 295L230 138Z" />
<glyph unicode="&#x203a;" glyph-name="guilsinglright" horiz-adv-x="333" d="M10 99L146 295L10 491H147L283 295L146 99H10ZM104 138H108L219 295L107 456H104L208 295Q195 276 183 257T156 217Q143 197 131 177T104 138Z" />
</font>
</defs>
</svg>
