<?xml version="1.0" standalone="no"?>
<!DOCTYPE svg PUBLIC "-//W3C//DTD SVG 1.1//EN" "http://www.w3.org/Graphics/SVG/1.1/DTD/svg11.dtd">
<svg xmlns="http://www.w3.org/2000/svg">
<defs >
<font id="SmoochSans" horiz-adv-x="351" ><font-face
    font-family="Smooch Sans Thin"
    units-per-em="1000"
    panose-1="0 0 0 0 0 0 0 0 0 0"
    ascent="900"
    descent="-300"
    alphabetic="0" />
<glyph unicode=" " horiz-adv-x="165" />
<glyph unicode="!" horiz-adv-x="225" d="M95 188L80 620H132L117 188H95ZM105 4Q87 4 85 10T82 28Q82 41 84 47T105 54Q123 54 126 48T130 28Q130 16 127 10T105 4Z" />
<glyph unicode="&quot;" horiz-adv-x="336" d="M76 407L67 621H119L112 407H76ZM224 407L215 621H267L260 407H224Z" />
<glyph unicode="#" horiz-adv-x="569" d="M84 0L151 218H16L25 242H160L199 368H63L71 393H208L265 574H296L239 393H369L426 574H459L401 393H533L524 368H393L354 242H487L479 218H346L278 0H245L314 218H184L115 0H84ZM321 242L361 368H231L191 242H321Z" />
<glyph unicode="$" horiz-adv-x="347" d="M180 -4Q137 -3 104 3T52 27T33 76V205L84 212V94Q84 67 104 52T177 37Q213 37 231 44T257 68T264 111V202Q264 239 246 260T194 292L116 313Q72 327 53 348T33 414V524Q33 568 51 589T103 616T180 623Q222 623 252 616T298
592T315 543V414L264 405V521Q264 555 247 569T177 584Q125 584 105 567T84 507V423Q84 391 102 373T148 346L229 323Q275 310 295 286T315 216V98Q315 55 299 33T253 4T180 -4ZM98 -93L111 23L146 19L132 -93H98ZM217 599L184 606L198 717H233L217 599Z" />
<glyph unicode="%" horiz-adv-x="537" d="M66 -44L406 630H442L100 -44H66ZM403 7Q368 7 350 15T325 37T318 63V203Q318 217 325 230T351 252T409 261Q445 261 464 253T490 232T497 204V70Q497 53 490 39T463 16T403 7ZM403 32Q435 32 451 40T467 73V198Q467 220
452 228T409 237Q381 237 365 229T349 198V69Q349 48 364 40T403 32ZM125 365Q90 365 72 373T47 395T40 422V563Q40 577 46 590T72 611T130 620Q166 620 185 612T212 590T219 563V429Q219 412 212 398T184 374T125 365ZM125 391Q157 391 173 400T189 431V558Q189
578 174 586T130 595Q103 595 87 587T70 558V428Q70 408 85 400T125 391Z" />
<glyph unicode="&amp;" horiz-adv-x="477" d="M222 3Q156 3 126 18T87 60T78 120V232Q78 265 85 289T116 328T193 343Q145 345 121 356T89 389T81 444V531Q81 573 93 594T135 622T221 629Q278 629 308 622T349 593T360 531V426L310 410V517Q310 542 304 556T279
576T218 582Q181 582 162 576T137 557T131 521V448Q131 411 137 391T168 363T241 355H306V333H241Q193 333 169 323T137 292T128 233V128Q128 114 129 99T138 72T163 53T217 45Q254 45 273 52T300 72T309 99T310 128V312H434L421 273H361V140Q361 111 358 86T342
43T301 14T222 3Z" />
<glyph unicode="&apos;" horiz-adv-x="189" d="M77 407L68 621H120L113 407H77Z" />
<glyph unicode="(" horiz-adv-x="377" d="M301 -119Q240 -116 192 -84T109 0T57 117T38 253Q38 331 58 405T115 538T202 633T312 672V647Q267 644 231 619T168 553T123 462T95 359T86 255Q86 195 98 136T137 27T204 -56T301 -95V-119Z" />
<glyph unicode=")" horiz-adv-x="377" d="M76 673Q137 669 185 638T268 554T320 437T338 301Q338 223 318 149T262 16T175 -79T65 -118V-93Q109 -90 145 -65T208 1T254 92T281 195T291 298Q291 359 278 418T239 527T173 610T76 649V673Z" />
<glyph unicode="*" horiz-adv-x="429" d="M134 315L105 336L204 451L58 486L67 516L210 465L198 613H233L223 465L362 520L372 491L228 451L325 336L297 316L216 444L134 315Z" />
<glyph unicode="+" horiz-adv-x="403" d="M54 295V324H349V295H54ZM214 155H185V450H214V155ZM54 295V324H349V295H54Z" />
<glyph unicode="," horiz-adv-x="191" d="M42 -109Q58 -79 66 -51T74 6Q60 6 57 12T54 27Q54 36 55 42T61 51T80 54Q97 54 100 48T104 28Q104 5 99 -21T86 -70T68 -109H42Z" />
<glyph unicode="-" horiz-adv-x="390" d="M65 283V324H326V283H65Z" />
<glyph unicode="." horiz-adv-x="164" d="M76 4Q58 4 55 10T52 28Q52 41 55 47T76 54Q94 54 97 48T101 28Q101 16 97 10T76 4Z" />
<glyph unicode="/" horiz-adv-x="450" d="M38 -44L378 630H412L70 -44H38Z" />
<glyph unicode="0" horiz-adv-x="378" d="M43 177V492Q43 535 55 560T89 600T136 618T188 623Q215 623 241 619T289 600T322 560T335 491V177H284V482Q284 526 270 547T234 574T188 581Q167 581 146 574T110 546T95 483V177H43ZM188 -6Q161 -6 136 -2T90 17T56
57T43 125V440H95V134Q95 93 109 72T145 44T188 36Q211 36 233 43T270 71T284 135V440H335V126Q335 83 323 57T289 17T242 -1T188 -6Z" />
<glyph unicode="1" horiz-adv-x="269" d="M161 0V550L44 411L15 438L161 620H211V0H161Z" />
<glyph unicode="2" d="M35 0V31Q36 91 43 131T65 198T102 247T153 289Q163 296 173 302T192 316Q232 348 249 377T267 454V489Q267 539 247 560T191 582H168Q136 582 119 568T96 533T90 494V395L39 404V493Q39 541 53 569T96 608T168 620H198Q238 620 264 608T304
570T317 501V447Q317 392 292 356T222 284Q211 274 198 264T172 245Q132 213 114 178T90 108T85 41H317L306 0H35Z" />
<glyph unicode="3" horiz-adv-x="363" d="M169 -1Q121 -1 93 13T52 56T40 131V217L90 210V146Q90 95 107 68T168 41H194Q238 41 254 69T271 144V196Q271 239 260 261T230 292T185 301H116V337H179Q205 337 225 346T258 378T271 446V492Q271 545 254 563T196 582H165Q135
582 119 569T96 536T90 492V411L40 422V494Q40 557 70 588T156 620H204Q241 620 267 610T307 571T321 490V448Q321 416 312 392T288 351T254 326T220 318V317Q236 317 254 311T287 292T312 258T321 206L322 132Q322 63 289 31T197 -1H169Z" />
<glyph unicode="4" horiz-adv-x="413" d="M255 0L257 128H26L9 154L249 620H310L309 169H408L397 128H310V0H255ZM68 169H259V552L68 169Z" />
<glyph unicode="5" horiz-adv-x="364" d="M164 -2Q119 -2 93 13T56 58T45 134V217L97 206V138Q97 94 111 67T167 39H200Q237 39 258 66T279 138V239Q279 291 271 318T245 355T201 365H182Q155 365 137 353T109 325T97 301L47 311V620H317V579H97V355Q100 359 112
370T146 392T195 402H221Q248 402 268 395T301 370T322 322T329 245V141Q329 97 317 69T286 26T247 4T208 -2H164Z" />
<glyph unicode="6" horiz-adv-x="364" d="M181 -4Q152 -4 127 2T83 24T54 72T43 154V497Q43 539 56 567T101 609T185 624Q233 624 263 611T309 572T324 508V448L274 440V494Q274 537 254 559T185 581Q136 581 115 559T93 494V330Q99 357 126 375T203 393Q252 393
278 375T314 327T324 265V154Q324 104 314 73T286 25T241 2T181 -4ZM180 38Q210 38 231 47T263 84T274 166V258Q274 283 268 306T242 344T184 359Q136 359 115 332T93 258V166Q93 112 105 85T137 48T180 38Z" />
<glyph unicode="7" horiz-adv-x="342" d="M26 0L269 579H18L27 620H342L84 0H26Z" />
<glyph unicode="8" horiz-adv-x="368" d="M171 -2Q126 -2 97 12T55 58T41 146V191Q41 235 51 262T81 302T123 318Q101 325 83 338T55 376T44 446V483Q44 533 57 563T98 608T171 622H199Q264 622 294 591T324 485V446Q324 404 313 378T284 339T242 318Q267 316
286 302T316 261T327 191V162Q327 99 313 64T268 13T189 -2H171ZM181 39Q210 39 231 47T264 82T276 162V203Q276 236 269 258T243 292T184 304Q146 304 126 292T99 258T91 203V152Q91 104 104 80T137 47T181 39ZM184 343Q213 343 233 351T264 381T275 445V482Q275
513 269 536T243 571T184 584Q146 584 126 572T100 537T93 485V444Q93 403 103 381T134 351T184 343Z" />
<glyph unicode="9" horiz-adv-x="364" d="M180 -5Q132 -5 101 8T56 48T41 111V184L90 177V125Q90 82 111 60T180 38Q229 38 250 60T271 125V289Q265 262 238 244T163 226Q113 226 87 244T50 292T40 354V465Q40 515 50 546T79 594T124 617T183 623Q212 623 237
617T282 595T311 547T321 465V122Q321 80 308 52T264 10T180 -5ZM181 260Q229 260 250 287T271 361V453Q271 507 259 534T228 571T184 581Q155 581 134 572T101 535T90 453V361Q90 336 96 313T123 275T181 260Z" />
<glyph unicode=":" horiz-adv-x="175" d="M76 354Q58 354 55 360T52 378Q52 391 55 397T76 404Q94 404 97 398T101 378Q101 366 97 360T76 354ZM76 4Q58 4 55 10T52 28Q52 41 55 47T76 54Q94 54 97 48T101 28Q101 16 97 10T76 4Z" />
<glyph unicode=";" horiz-adv-x="196" d="M42 -109Q58 -79 66 -51T74 6Q61 6 58 12T55 27Q55 36 55 42T62 51T80 54Q96 54 99 48T103 28Q103 5 98 -21T86 -70T68 -109H42ZM76 354Q58 354 55 360T52 378Q52 391 55 397T76 404Q94 404 97 398T101 378Q101 366 97
360T76 354Z" />
<glyph unicode="&lt;" horiz-adv-x="385" d="M295 122L48 310V343L295 532V490L79 326L295 164V122Z" />
<glyph unicode="=" horiz-adv-x="384" d="M54 295V324H341V295H54ZM54 103V133H341V103H54Z" />
<glyph unicode="&gt;" horiz-adv-x="385" d="M92 122V164L308 326L92 490V532L339 343V310L92 122Z" />
<glyph unicode="?" horiz-adv-x="385" d="M113 146L110 320H213Q246 320 259 329T274 355T277 393V492Q277 538 255 558T202 579H173Q143 579 126 565T103 531T96 492V388L46 395V489Q46 559 80 590T178 622H204Q262 622 294 590T327 497V387Q327 330 305 307T226
282H155L147 146H113ZM130 0Q115 0 111 5T107 23Q107 38 111 43T130 49Q147 49 151 44T155 23Q155 10 151 5T130 0Z" />
<glyph unicode="@" horiz-adv-x="591" d="M296 -73Q208 -72 151 -43T67 54T39 231Q39 321 55 379T103 471T184 518T299 532Q378 532 434 507T521 425T552 268Q552 241 550 210T541 148T520 92T483 51T426 35Q394 35 379 52T364 117Q358 100 346 91T309 82H272Q241
82 226 93T206 123T201 167V187Q201 229 212 251T259 274H349V326Q348 351 341 364T307 378H285Q246 378 246 326V302H209V328Q209 363 225 381T274 400H304Q338 400 356 391T381 365T388 322V160Q388 118 391 98T402 71T425 64Q447 64 462 80T486 124T498 188T502
261Q502 308 494 352T465 429T405 482T300 502Q224 502 178 476T110 391T89 231Q89 145 106 84T169 -10T300 -43Q321 -43 346 -40T393 -30T426 -17L437 -38Q416 -54 376 -63T296 -73ZM304 106Q325 106 337 119T349 158V251H278Q257 251 248 240T239 197V163Q239
129 251 118T285 106H304Z" />
<glyph unicode="A" horiz-adv-x="376" d="M18 0L150 620H226L356 0H303L271 151L282 141H91L100 151L70 0H18ZM101 176L96 182H278L271 176L198 555L196 562H179L177 555L101 176Z" />
<glyph unicode="B" horiz-adv-x="388" d="M58 0V620H220Q262 620 286 612T321 582T332 518V463Q332 428 321 403T294 364T260 347L261 346Q290 342 307 328T333 291T341 239V121Q341 76 333 50T299 12T227 0H58ZM110 41H212Q238 41 255 46T280 70T288 127V245Q288
287 262 304T197 322H110V41ZM110 363H208Q225 363 242 371T270 401T281 461V497Q281 529 277 547T258 574T209 582H110V363Z" />
<glyph unicode="C" horiz-adv-x="371" d="M188 -6Q119 -6 84 20T49 98V516Q49 572 81 600T185 628Q259 628 293 601T328 515V383L277 375V504Q277 541 259 563T187 585Q136 585 118 563T100 505V108Q100 77 120 57T187 36Q235 36 256 56T277 109V231L328 239V98Q328
46 292 20T188 -6Z" />
<glyph unicode="D" horiz-adv-x="388" d="M58 620H255Q302 620 320 596T339 524V97Q339 45 322 23T249 0H58V620ZM220 41Q260 41 274 55T288 111V510Q288 545 273 562T228 579H109V41H220Z" />
<glyph unicode="E" horiz-adv-x="364" d="M58 620H334V579H109V369H318L310 329H109V40H334V0H58V620Z" />
<glyph unicode="F" horiz-adv-x="360" d="M58 620H334V579H109V369H318L310 329H109V0H58V620Z" />
<glyph unicode="G" horiz-adv-x="377" d="M193 -3Q147 -3 115 4T66 32T49 90V531Q49 587 86 605T193 624Q260 624 295 605T331 530V424L280 419V521Q280 559 258 571T193 583Q151 583 126 572T100 522V97Q100 71 111 59T144 43T193 39Q220 39 239 42T270 58T281
97V290H171L177 333H331V90Q331 53 315 33T268 5T193 -3Z" />
<glyph unicode="H" horiz-adv-x="397" d="M58 620H109V369H288V620H339V0H288V329H109V0H58V620Z" />
<glyph unicode="I" horiz-adv-x="168" d="M58 620H109V0H58V620Z" />
<glyph unicode="J" horiz-adv-x="194" d="M8 0L0 41H51Q70 41 78 46T87 66T89 112V620H139V98Q139 57 136 36T116 7T61 0H8Z" />
<glyph unicode="K" horiz-adv-x="362" d="M306 -9L126 334L295 625L334 601L179 337L352 14L306 -9ZM58 620H110V0H58V620Z" />
<glyph unicode="L" horiz-adv-x="324" d="M58 620H109V40H310V0H58V620Z" />
<glyph unicode="M" horiz-adv-x="550" d="M58 0V620H123L273 141L274 137H275L276 141L426 620H492V0H441V514V516L439 503L296 62H254L111 499V509L109 511V0H58Z" />
<glyph unicode="N" horiz-adv-x="406" d="M58 0V620H110L295 112L296 107L297 106V620H348V0H294L112 488L109 495V495V0H58Z" />
<glyph unicode="O" horiz-adv-x="379" d="M189 -3Q120 -3 85 22T49 93V534Q49 575 81 602T189 628Q264 627 297 601T331 533V94Q331 48 296 23T189 -3ZM189 39Q237 39 259 58T281 106V522Q281 547 262 566T187 586Q137 586 118 567T99 523V105Q99 76 120 58T189 39Z" />
<glyph unicode="P" horiz-adv-x="372" d="M58 620H246Q289 620 309 610T336 578T343 524V368Q343 332 337 301T306 250T224 230H109V0H58V620ZM211 271Q251 271 271 291T292 359V504Q292 547 278 563T224 579H109V271H211Z" />
<glyph unicode="Q" horiz-adv-x="376" d="M190 -6Q121 -6 85 20T49 98V516Q49 573 82 600T189 628Q262 627 296 600T331 515V98Q331 46 294 20T190 -6ZM189 36Q237 36 258 55T280 107V505Q280 543 262 564T189 585Q137 585 119 564T100 506V104Q100 73 121 55T189
36ZM328 -116L216 0L250 35L365 -81L328 -116Z" />
<glyph unicode="R" horiz-adv-x="390" d="M58 620H246Q289 620 309 610T336 578T343 524V412Q343 376 337 345T306 294T224 274H109V0H58V620ZM318 -13L203 277L239 281L253 277L256 270L365 5L318 -13ZM211 315Q251 315 271 335T292 403V504Q292 547 278 563T224
579H109V315H211Z" />
<glyph unicode="S" horiz-adv-x="368" d="M190 -4Q147 -3 114 3T62 27T42 76V205L93 212V94Q93 67 113 52T187 37Q223 37 241 44T266 68T273 111V202Q273 239 256 260T204 292L126 313Q82 327 62 348T42 414V524Q42 568 61 589T113 616T189 623Q232 623 261 616T307
592T324 543V414L273 405V521Q273 555 256 569T187 584Q134 584 114 567T93 507V423Q93 391 111 373T158 346L239 323Q285 310 304 286T324 216V98Q324 55 308 33T263 4T190 -4Z" />
<glyph unicode="T" horiz-adv-x="311" d="M129 579H19V620H292V579H180V0H129V579Z" />
<glyph unicode="U" horiz-adv-x="389" d="M194 -5Q156 -5 124 4T73 33T54 89V620H105V106Q105 88 112 72T139 46T194 36Q233 36 252 46T277 72T284 106V620H335V89Q335 54 317 34T267 4T194 -5Z" />
<glyph unicode="V" horiz-adv-x="359" d="M152 0L21 620H72L178 80L179 66H180L181 80L285 620H338L207 0H152Z" />
<glyph unicode="W" horiz-adv-x="559" d="M140 0L22 620H73L166 103L167 89H168V103L264 588H304L392 103L393 89H394L395 103L485 620H537L421 0H369L286 467V478H285L284 467L192 0H140Z" />
<glyph unicode="X" horiz-adv-x="365" d="M20 0L146 325L26 620H78L180 364L182 347H183L186 364L287 620H339L219 325L346 0H292L185 277L183 297H182L179 277L72 0H20Z" />
<glyph unicode="Y" horiz-adv-x="345" d="M147 0V253L11 620H58L171 319L173 305H174L175 319L286 620H334L197 253V0H147Z" />
<glyph unicode="Z" horiz-adv-x="297" d="M11 0L208 579H27V620H273L75 41H278V0H11Z" />
<glyph unicode="[" horiz-adv-x="217" d="M36 630H178V608H86V-35H178V-57H36V630Z" />
<glyph unicode="\" horiz-adv-x="450" d="M380 -44L38 630H72L412 -44H380Z" />
<glyph unicode="]" horiz-adv-x="217" d="M39 -35H130V608H39V630H180V-57H39V-35Z" />
<glyph unicode="^" horiz-adv-x="301" d="M38 648L126 741H176L264 648H230L151 721L72 648H38Z" />
<glyph unicode="_" horiz-adv-x="630" d="M0 -107V-65H642V-107H0Z" />
<glyph unicode="`" horiz-adv-x="136" d="M103 534L0 629H50L136 534H103Z" />
<glyph unicode="a" horiz-adv-x="396" d="M128 0Q93 0 77 10T58 47T55 127V377Q55 416 63 436T94 463T162 470H336V0H286V429H159Q131 429 120 422T107 399T105 353V115Q105 84 108 68T121 47T152 41H255L248 0H128Z" />
<glyph unicode="b" horiz-adv-x="395" d="M60 0V629H110V470H234Q279 470 302 463T333 436T341 377V131Q341 77 338 49T318 10T263 0H60ZM110 41H242Q264 41 274 46T287 68T291 115V353Q291 382 289 398T276 422T237 429H110V41Z" />
<glyph unicode="c" horiz-adv-x="379" d="M185 -4Q129 -4 100 12T61 53T51 103V368Q51 394 61 418T101 459T192 475Q249 475 279 460T320 420T332 368V300L282 293V360Q282 398 258 417T191 436Q150 436 126 417T101 360V112Q101 74 125 56T185 37Q232 37 257
56T282 119V178L332 184V115Q332 83 320 56T277 13T185 -4Z" />
<glyph unicode="d" horiz-adv-x="396" d="M131 0Q100 0 83 6T61 36T55 106V379Q55 416 63 436T92 463T156 470H286V629H336V0H131ZM286 41V429H161Q126 429 116 419T105 374V99Q105 61 115 51T153 41H286Z" />
<glyph unicode="e" horiz-adv-x="383" d="M185 -4Q129 -4 100 12T61 53T51 103V368Q51 394 61 418T101 459T192 475Q249 475 279 460T320 420T332 368V254L282 252V360Q282 398 258 417T191 436Q150 436 126 417T101 360V112Q101 74 125 56T185 37Q232 37 257
56T282 119V169L332 174V115Q332 83 320 56T277 13T185 -4ZM59 230V259H332V230H59Z" />
<glyph unicode="f" horiz-adv-x="216" d="M70 441H27V470H70V549Q70 590 88 606T156 622H237V593H177Q144 593 132 582T120 541V470H207L202 441H120V0H70V441Z" />
<glyph unicode="g" horiz-adv-x="396" d="M108 -173L101 -133H240Q269 -133 277 -119T286 -72V429H159Q131 429 120 422T107 399T105 353V115Q105 84 108 68T121 47T152 41H255L248 0H128Q93 0 77 10T58 47T55 127V377Q55 416 63 436T94 463T162 470H336V-84Q336
-130 319 -151T257 -173H108Z" />
<glyph unicode="h" horiz-adv-x="395" d="M60 629H110V423Q126 448 152 461T220 475Q272 475 297 459T332 420T341 374V0H291V357Q291 399 267 417T200 435Q163 435 143 421T110 385V0H60V629Z" />
<glyph unicode="i" horiz-adv-x="169" d="M59 0V470H109V0H59ZM84 535Q65 535 60 540T54 561Q54 577 59 582T84 588Q103 588 108 583T114 561Q114 546 109 541T84 535Z" />
<glyph unicode="j" horiz-adv-x="185" d="M-38 -173L-45 -133H30Q58 -133 66 -119T75 -72V470H125V-84Q125 -130 109 -151T47 -173H-38ZM100 535Q81 535 76 540T70 561Q70 577 75 582T100 588Q120 588 125 583T130 561Q130 546 125 541T100 535Z" />
<glyph unicode="k" horiz-adv-x="349" d="M60 0V628H110V0H60ZM295 0L143 222H88V260H143L275 482L322 464L188 246L353 0H295Z" />
<glyph unicode="l" horiz-adv-x="169" d="M60 628H110V0H60V628Z" />
<glyph unicode="m" horiz-adv-x="626" d="M60 0V472H100L105 423Q121 448 149 462T220 477Q261 477 285 466T323 438T339 401L327 392Q333 424 352 442T399 469T452 477Q504 477 529 461T563 421T572 375V0H522V358Q522 400 497 418T432 436Q394 436 368 418T341
358V0H291V359Q291 400 266 418T200 436Q163 436 143 422T110 385V0H60Z" />
<glyph unicode="n" horiz-adv-x="395" d="M60 472H100L105 423Q121 447 149 462T220 477Q280 477 310 451T341 375V0H291V358Q291 399 267 417T200 436Q165 436 144 422T110 385V0H60V472Z" />
<glyph unicode="o" horiz-adv-x="383" d="M185 -4Q129 -4 100 12T61 53T51 103V368Q51 394 61 418T101 459T192 475Q249 475 279 460T320 420T332 368V115Q332 83 320 56T277 13T185 -4ZM185 37Q232 37 257 56T282 119V360Q282 398 258 417T191 436Q150 436 126
417T101 360V112Q101 74 125 56T185 37Z" />
<glyph unicode="p" horiz-adv-x="395" d="M60 470H263Q302 470 318 460T337 422T341 339V93Q341 54 333 34T302 7T234 0H110V-159H60V470ZM110 429V41H237Q265 41 276 48T289 72T291 117V355Q291 386 288 402T274 423T242 429H110Z" />
<glyph unicode="q" horiz-adv-x="395" d="M336 470V-159H286V0H161Q117 0 94 7T63 34T55 93V339Q55 393 58 421T77 460T132 470H336ZM286 429H153Q132 429 122 424T108 402T105 355V117Q105 89 106 72T119 48T159 41H286V429Z" />
<glyph unicode="r" horiz-adv-x="274" d="M60 0V470H100L105 421Q121 447 147 461T203 476Q227 476 240 473T264 465L262 421Q249 426 235 429T200 432Q168 432 145 416T110 371V0H60Z" />
<glyph unicode="s" horiz-adv-x="360" d="M176 -6Q105 -6 75 23T45 106V174L90 181V108Q90 89 97 71T122 42T176 30Q219 30 243 45T268 108Q268 150 256 170T207 208Q201 211 187 217T157 229T128 241T108 250Q84 263 70 276T51 308T45 353V365Q45 422 77 448T182
475Q253 475 283 450T314 369V299L268 293V364Q268 408 246 423T180 439Q139 439 120 427T96 396T91 362Q91 325 99 310T133 281Q146 274 164 267T202 251T237 235Q281 215 297 191T314 119V110Q314 53 285 24T176 -6Z" />
<glyph unicode="t" horiz-adv-x="219" d="M164 0Q126 0 103 9T70 41T60 102V432H27V470H66L74 558H110V470H195L184 432H110V113Q110 70 128 56T178 41H207V0H164Z" />
<glyph unicode="u" horiz-adv-x="396" d="M175 0Q124 0 98 15T64 52T55 97V470H105V117Q105 76 129 59T195 41H286V470H336V0H175Z" />
<glyph unicode="v" horiz-adv-x="315" d="M139 0L12 470H60L159 91L164 115L253 470H302L174 0H139Z" />
<glyph unicode="w" horiz-adv-x="553" d="M10 470H60L164 99L254 470H295L386 104L490 470H540L408 0H374L275 390L176 0H142L10 470Z" />
<glyph unicode="x" horiz-adv-x="310" d="M253 0L160 241L251 470H295L205 241L297 0H253ZM13 0L106 241L15 470H60L151 241L58 0H13ZM123 218V259H189V218H123Z" />
<glyph unicode="y" horiz-adv-x="327" d="M-8 -170L-3 -137H34Q70 -137 92 -121T125 -55L141 6L12 470H61L163 85L164 73H161L162 85L264 470H314L166 -67Q150 -123 125 -146T44 -170H-8Z" />
<glyph unicode="z" horiz-adv-x="293" d="M20 9L210 429H23L33 470H265V443L83 41H274L257 0H20V9Z" />
<glyph unicode="{" horiz-adv-x="313" d="M259 -135Q194 -135 156 -121T97 -86T70 -44T63 -7Q63 30 71 62T86 123T94 182Q94 220 79 240T34 261V269Q63 269 78 290T94 348Q94 380 87 408T71 467T63 537Q63 552 70 573T97 616T155 651T259 665V633Q213 633 185
622T142 595T121 561T115 528Q115 500 122 474T135 420T142 359Q142 321 126 297T73 265Q110 258 126 234T142 171Q142 140 136 113T122 60T115 2Q115 -13 121 -31T142 -65T185 -92T259 -103V-135Z" />
<glyph unicode="|" horiz-adv-x="218" d="M88 649H130V-73H88V649Z" />
<glyph unicode="}" horiz-adv-x="313" d="M54 -135V-103Q100 -103 128 -92T171 -65T191 -31T197 2Q197 33 191 59T177 113T170 171Q170 210 186 234T240 265Q203 273 187 297T170 359Q170 392 177 419T190 473T197 528Q197 543 192 561T171 595T128 622T54 633V665Q119
665 157 651T216 616T243 574T250 537Q250 498 243 468T227 409T219 348Q219 311 234 290T279 269V261Q250 261 235 241T219 182Q219 153 227 124T242 62T250 -7Q250 -22 243 -43T216 -86T158 -121T54 -135Z" />
<glyph unicode="~" horiz-adv-x="417" d="M52 621Q52 663 75 682T136 702Q167 702 189 691T232 669T277 658Q307 658 319 672T332 701H366Q366 659 341 642T282 624Q251 624 229 635T187 658T143 670Q118 670 103 657T88 621H52Z" />
<glyph unicode="&#xa0;" horiz-adv-x="165" />
<glyph unicode="&#xa1;" horiz-adv-x="225" d="M114 475Q132 475 135 469T139 451Q139 437 136 431T114 425Q97 425 94 431T91 451Q91 463 94 469T114 475ZM104 291H126L141 -141H89L104 291Z" />
<glyph unicode="&#xa2;" horiz-adv-x="347" d="M167 92Q111 92 83 108T44 149T33 199V462Q33 489 43 513T84 554T175 570Q231 570 261 554T303 514T315 463V393L265 387V454Q265 492 240 511T174 530Q133 530 108 511T83 454V208Q83 169 107 151T167 133Q214 133
239 152T265 215V274L315 279V211Q315 179 303 152T260 108T167 92ZM137 -85L186 680H202L152 -85H137Z" />
<glyph unicode="&#xa3;" horiz-adv-x="431" d="M293 -2Q273 -2 240 2T170 11T108 15Q89 15 75 13T52 4V24Q94 68 111 119T128 248Q128 302 117 348T95 433T84 506Q84 571 120 600T216 629Q278 629 313 599T349 494V451H297V488Q297 551 273 574T214 597Q178 597
156 575T134 511Q134 478 144 439T166 353T177 245Q177 165 159 118T111 47Q116 47 122 47T134 47Q154 47 177 44T222 37T262 33Q289 33 307 49T326 114V173L380 183V121Q380 87 375 59T350 15T293 -2ZM53 268L59 293H272L265 268H53Z" />
<glyph unicode="&#xa4;" horiz-adv-x="350" d="M178 235Q143 235 115 252T70 297T53 360Q53 395 70 423T115 468T178 485Q212 485 240 468T285 423T302 360Q302 326 285 298T240 252T178 235ZM177 272Q212 273 238 298T264 360Q264 396 239 422T177 448Q140 448
115 422T89 360Q89 324 114 298T177 272ZM53 214L32 235L90 293L112 275L53 214ZM298 217L240 276L262 295L320 239L298 217ZM262 425L242 446L302 504L323 483L262 425ZM93 423L29 485L50 507L112 446L93 423Z" />
<glyph unicode="&#xa5;" horiz-adv-x="362" d="M155 0V253L19 620H67L180 319L181 305H182L184 319L294 620H342L206 253V0H155ZM34 149L40 178H322L316 149H34ZM34 273L40 303H322L316 273H34Z" />
<glyph unicode="&#xa6;" horiz-adv-x="218" d="M88 -73V243H130V-73H88ZM88 349V649H130V349H88Z" />
<glyph unicode="&#xa7;" horiz-adv-x="415" d="M200 -257Q149 -256 117 -249T68 -224T52 -175V-52L102 -46V-157Q102 -186 122 -200T195 -215Q232 -215 250 -208T275 -183T282 -139V-58Q282 -16 263 4T213 32L135 54Q90 68 64 90T38 165V230Q38 261 45 283T76
317T148 331Q115 345 98 365T81 422V522Q81 563 96 584T143 614T226 622Q277 622 307 614T349 588T362 538V420L311 410V521Q311 553 295 568T226 584Q172 584 152 567T132 507V418Q132 384 151 368T197 344L282 323Q326 313 351 289T377 221V142Q377 105 365 81T334
46T292 31Q309 22 318 10T329 -17T332 -53V-155Q332 -195 318 -217T275 -248T200 -257ZM270 52Q293 54 310 77T328 137V201Q328 236 304 254T252 279Q233 284 224 287T210 291T200 293T179 298Q136 298 117 288T93 260T89 220V168Q89 142 100 127T129 103T162 89Q200
79 219 74T249 64T270 52Z" />
<glyph unicode="&#xa8;" horiz-adv-x="187" d="M142 530Q125 530 122 536T119 554Q119 568 122 573T142 579Q160 579 163 574T167 554Q167 543 164 537T142 530ZM43 530Q26 530 23 536T20 554Q20 568 23 573T43 579Q61 579 64 574T67 554Q67 543 64 537T43 530Z" />
<glyph unicode="&#xa9;" horiz-adv-x="767" d="M386 -3Q313 -3 252 21T146 89T75 188T50 307Q50 374 75 432T145 534T252 602T386 627Q453 627 513 603T619 534T691 432T717 307Q717 244 691 188T619 89T513 22T386 -3ZM386 24Q445 24 499 46T595 108T662 198T687
306Q687 367 663 420T596 513T499 576T386 599Q323 599 268 576T171 513T105 420T81 306Q81 249 104 198T170 108T268 47T386 24ZM378 121Q334 121 311 133T280 165T271 205V411Q271 432 280 451T313 482T385 495Q429 495 453 483T486 452T495 412V358L455 353V404Q455
434 436 449T384 465Q352 465 332 450T312 404V213Q312 183 331 169T378 154Q415 154 435 169T455 217V264L495 268V214Q495 189 486 168T452 134T378 121Z" />
<glyph unicode="&#xaa;" horiz-adv-x="279" d="M96 350Q70 350 59 357T46 382T43 432V595Q43 619 48 632T69 650T117 655H237V350H197V626H119Q91 626 87 616T83 579V425Q83 397 88 388T115 379H178L174 350H96Z" />
<glyph unicode="&#xab;" horiz-adv-x="523" d="M405 52L276 237L409 430H454L321 237L449 52H405ZM197 52L68 237L202 430H247L114 237L242 52H197Z" />
<glyph unicode="&#xac;" horiz-adv-x="605" d="M511 63V294H44V330H561V63H511Z" />
<glyph unicode="&#xad;" horiz-adv-x="127" />
<glyph unicode="&#xae;" horiz-adv-x="600" d="M263 297Q207 297 162 323T90 395T64 497Q64 551 90 595T161 665T262 691Q317 691 361 665T432 595T459 497Q459 440 433 395T362 324T263 297ZM262 321Q311 322 349 345T411 408T434 497Q434 543 411 581T350 643T263
666Q213 666 174 643T112 582T89 497Q89 449 112 409T174 345T262 321ZM314 356L268 472L227 474V362H202V620H283Q313 620 320 610T327 580V533Q327 510 321 495T291 477L337 365L314 356ZM227 497H270Q286 497 294 503T303 529V568Q303 586 297 592T274 599H227V497Z"
/>
<glyph unicode="&#xaf;" horiz-adv-x="214" d="M0 540V573H214V540H0Z" />
<glyph unicode="&#xb0;" horiz-adv-x="281" d="M141 552Q112 552 90 564T55 597T42 643Q42 669 55 690T90 724T141 737Q167 737 189 725T224 691T238 643Q238 618 225 598T189 565T141 552ZM141 579Q168 579 187 597T207 642Q207 669 188 688T141 708Q112 708
93 689T74 642Q74 615 93 597T141 579Z" />
<glyph unicode="&#xb1;" horiz-adv-x="403" d="M186 449H214V148H186V449ZM69 -9V22H337V-9H69ZM54 295V324H349V295H54Z" />
<glyph unicode="&#xb2;" horiz-adv-x="266" d="M30 226Q30 272 34 302T49 352T73 386T108 415Q115 419 120 423T131 431Q155 446 167 459T184 487T189 520V543Q189 575 177 587T141 600H125Q105 600 95 592T81 572T77 547V482L33 489V546Q33 593 53 611T117 629H155Q194
629 214 611T235 551V516Q235 480 217 454T160 404Q154 399 147 394T133 382Q105 360 93 339T77 297T74 261L233 262L226 226H30Z" />
<glyph unicode="&#xb3;" horiz-adv-x="273" d="M120 225Q76 225 55 245T33 311V368L77 362V320Q77 287 87 272T125 256H142Q170 256 181 273T192 319V353Q192 393 177 405T137 417H92V446H132Q158 446 175 460T192 515V546Q192 579 181 589T144 600H123Q95 600
86 584T77 546V491L33 500V550Q33 589 51 609T105 629H160Q196 629 217 613T239 545V518Q239 490 228 472T203 444T177 432L158 431L177 430Q189 429 203 422T228 400T239 360V312Q239 267 216 246T154 225H120Z" />
<glyph unicode="&#xb4;" horiz-adv-x="136" d="M0 534L87 629H136L33 534H0Z" />
<glyph unicode="&#xb5;" horiz-adv-x="364" d="M158 0Q107 0 81 15T47 52T38 97V470H88V117Q88 76 112 59T178 41H269V470H319V0H158ZM116 -173Q71 -173 55 -152T38 -84V470H88V-72Q88 -104 96 -118T132 -133H142L135 -173H116Z" />
<glyph unicode="&#xb6;" horiz-adv-x="406" d="M196 -115V230H119Q62 230 37 249T6 300T0 368V524Q0 556 6 577T34 609T97 620H247V-115H196ZM301 620H342V-115H301V620ZM143 585V620H315V585H143Z" />
<glyph unicode="&#xb7;" horiz-adv-x="154" d="M76 232Q58 232 55 238T52 256Q52 269 55 275T76 282Q94 282 97 276T101 256Q101 244 97 238T76 232Z" />
<glyph unicode="&#xb8;" horiz-adv-x="169" d="M70 -176Q49 -176 33 -168T5 -152L20 -131Q25 -138 38 -145T67 -153Q91 -153 104 -137T118 -102Q118 -87 107 -73T72 -58Q56 -58 43 -64T22 -81L3 -65L55 0H79L37 -52Q58 -38 81 -38Q118 -38 134 -57T151 -100Q151
-126 130 -151T70 -176Z" />
<glyph unicode="&#xb9;" horiz-adv-x="204" d="M110 224V578L36 490L17 509L111 627H154L155 224H110Z" />
<glyph unicode="&#xba;" horiz-adv-x="274" d="M132 345Q94 345 75 355T50 382T43 414V586Q43 603 49 618T76 644T137 655Q176 655 196 645T224 619T232 586V422Q232 401 224 384T194 356T132 345ZM133 374Q165 374 180 385T195 426V580Q195 605 180 616T137 627Q110
627 95 616T79 580V421Q79 396 94 385T133 374Z" />
<glyph unicode="&#xbb;" horiz-adv-x="489" d="M265 52L393 237L260 430H303L437 237L308 52H265ZM57 52L185 237L52 430H96L229 237L100 52H57Z" />
<glyph unicode="&#xbc;" horiz-adv-x="634" d="M110 224V578L36 490L17 509L111 627H154L155 224H110ZM81 -44L462 630H505L122 -44H81ZM527 5V85H366L348 115L520 408H577L576 115H632L625 85H577V5H527ZM395 115H528V351L395 115Z" />
<glyph unicode="&#xbd;" horiz-adv-x="661" d="M110 224V578L36 490L17 509L111 627H154L155 224H110ZM81 -44L462 630H505L122 -44H81ZM425 1Q425 47 429 77T444 127T468 161T503 190Q510 194 515 198T526 206Q550 221 562 234T579 262T584 295V318Q584 350 572
362T536 375H520Q500 375 490 367T476 347T472 322V257L428 264V321Q428 368 448 386T512 404H550Q589 404 609 386T630 326V291Q630 255 612 229T555 179Q549 174 542 169T528 157Q500 135 488 114T472 72T469 36L628 37L621 1H425Z" />
<glyph unicode="&#xbe;" horiz-adv-x="621" d="M120 225Q76 225 55 245T33 311V368L77 362V320Q77 287 87 272T125 256H142Q170 256 181 273T192 319V353Q192 393 177 405T137 417H92V446H132Q158 446 175 460T192 515V546Q192 579 181 589T144 600H123Q95 600
86 584T77 546V491L33 500V550Q33 589 51 609T105 629H160Q196 629 217 613T239 545V518Q239 490 228 472T203 444T177 432L158 431L177 430Q189 429 203 422T228 400T239 360V312Q239 267 216 246T154 225H120ZM118 -44L499 630H542L159 -44H118ZM514 2V82H353L335
112L507 405H564L563 112H619L612 82H564V2H514ZM382 112H515V348L382 112Z" />
<glyph unicode="&#xbf;" horiz-adv-x="385" d="M252 326L255 152H153Q121 152 107 143T91 117T89 79V-20Q89 -66 110 -86T163 -107H193Q224 -107 240 -93T263 -59T270 -20V84L320 77V-17Q320 -86 286 -118T188 -150H162Q103 -150 71 -117T39 -25V85Q39 142 62
165T139 190H210L219 326H252ZM235 472Q251 472 255 467T259 449Q259 434 255 429T235 423Q219 423 215 428T211 449Q211 462 215 467T235 472Z" />
<glyph unicode="&#xc0;" horiz-adv-x="376" d="M18 0L150 620H226L356 0H303L271 151L282 141H91L100 151L70 0H18ZM101 176L96 182H278L271 176L198 555L196 562H179L177 555L101 176ZM186 684L75 771H125L219 684H186Z" />
<glyph unicode="&#xc1;" horiz-adv-x="376" d="M18 0L150 620H226L356 0H303L271 151L282 141H91L100 151L70 0H18ZM101 176L96 182H278L271 176L198 555L196 562H179L177 555L101 176ZM138 684L232 771H282L171 684H138Z" />
<glyph unicode="&#xc2;" horiz-adv-x="376" d="M18 0L150 620H226L356 0H303L271 151L282 141H91L100 151L70 0H18ZM101 176L96 182H278L271 176L198 555L196 562H179L177 555L101 176ZM76 684L161 773H211L295 684H260L187 748L113 684H76Z" />
<glyph unicode="&#xc3;" horiz-adv-x="376" d="M18 0L150 620H226L356 0H303L271 151L282 141H91L100 151L70 0H18ZM101 176L96 182H278L271 176L198 555L196 562H179L177 555L101 176ZM85 679Q85 720 100 738T139 757Q160 757 174 747T202 725T230 714Q250 714
256 728T263 756H289Q289 715 272 699T235 682Q214 682 200 693T173 715T145 726Q129 726 121 714T112 679H85Z" />
<glyph unicode="&#xc4;" horiz-adv-x="376" d="M18 0L150 620H226L356 0H303L271 151L282 141H91L100 151L70 0H18ZM101 176L96 182H278L271 176L198 555L196 562H179L177 555L101 176ZM235 680Q218 680 215 686T212 704Q212 718 215 723T235 729Q253 729 256
724T260 704Q260 693 257 687T235 680ZM136 680Q119 680 116 686T113 704Q113 718 116 723T136 729Q154 729 157 724T160 704Q160 693 157 687T136 680Z" />
<glyph unicode="&#xc5;" horiz-adv-x="376" d="M18 0L150 620H226L356 0H303L271 151L282 141H91L100 151L70 0H18ZM101 176L96 182H278L271 176L198 555L196 562H179L177 555L101 176ZM187 679Q155 679 134 699T112 748Q112 777 133 798T187 819Q218 819 239
798T261 748Q261 720 240 700T187 679ZM187 701Q207 701 221 715T236 747Q236 768 222 782T187 797Q166 797 152 783T137 747Q137 729 151 715T187 701Z" />
<glyph unicode="&#xc6;" horiz-adv-x="586" d="M273 620H556V579H325V369H539L531 329H325V40H556V0H273V620ZM70 141V182H288V141H70ZM18 0L165 620H210L69 0H18ZM173 579V620H286V579H173Z" />
<glyph unicode="&#xc7;" horiz-adv-x="371" d="M188 -6Q119 -6 84 20T49 98V516Q49 572 81 600T185 628Q259 628 293 601T328 515V383L277 375V504Q277 541 259 563T187 585Q136 585 118 563T100 505V108Q100 77 120 57T187 36Q235 36 256 56T277 109V231L328
239V98Q328 46 292 20T188 -6ZM193 -176Q172 -176 156 -168T128 -152L143 -131Q148 -138 161 -145T190 -153Q214 -153 227 -137T241 -102Q241 -87 230 -73T195 -58Q179 -58 166 -64T145 -81L126 -65L178 0H202L160 -52Q181 -38 204 -38Q241 -38 257 -57T274 -100Q274
-126 253 -151T193 -176Z" />
<glyph unicode="&#xc8;" horiz-adv-x="364" d="M58 620H334V579H109V369H318L310 329H109V40H334V0H58V620ZM183 684L72 771H122L216 684H183Z" />
<glyph unicode="&#xc9;" horiz-adv-x="364" d="M58 620H334V579H109V369H318L310 329H109V40H334V0H58V620ZM135 684L229 771H279L168 684H135Z" />
<glyph unicode="&#xca;" horiz-adv-x="364" d="M58 620H334V579H109V369H318L310 329H109V40H334V0H58V620ZM73 684L158 773H208L292 684H257L184 748L110 684H73Z" />
<glyph unicode="&#xcb;" horiz-adv-x="364" d="M58 620H334V579H109V369H318L310 329H109V40H334V0H58V620ZM232 680Q215 680 212 686T209 704Q209 718 212 723T232 729Q250 729 253 724T257 704Q257 693 254 687T232 680ZM133 680Q116 680 113 686T110 704Q110
718 113 723T133 729Q151 729 154 724T157 704Q157 693 154 687T133 680Z" />
<glyph unicode="&#xcc;" horiz-adv-x="168" d="M58 620H109V0H58V620ZM83 684L-28 771H22L116 684H83Z" />
<glyph unicode="&#xcd;" horiz-adv-x="168" d="M58 620H109V0H58V620ZM35 684L129 771H179L68 684H35Z" />
<glyph unicode="&#xce;" horiz-adv-x="168" d="M58 620H109V0H58V620ZM-27 684L58 773H108L192 684H157L84 748L10 684H-27Z" />
<glyph unicode="&#xcf;" horiz-adv-x="168" d="M58 620H109V0H58V620ZM132 680Q115 680 112 686T109 704Q109 718 112 723T132 729Q150 729 153 724T157 704Q157 693 154 687T132 680ZM33 680Q16 680 13 686T10 704Q10 718 13 723T33 729Q51 729 54 724T57 704Q57
693 54 687T33 680Z" />
<glyph unicode="&#xd0;" horiz-adv-x="389" d="M66 620H265Q312 620 331 596T351 524V97Q351 45 334 23T260 0H66V620ZM6 184V214H215V184H6ZM232 41Q272 41 286 55T300 111V510Q300 545 284 562T239 579H118V41H232Z" />
<glyph unicode="&#xd1;" horiz-adv-x="406" d="M58 0V620H110L295 112L296 107L297 106V620H348V0H294L112 488L109 495V495V0H58ZM102 679Q102 720 117 738T156 757Q177 757 191 747T219 725T247 714Q267 714 273 728T280 756H306Q306 715 289 699T252 682Q231
682 217 693T190 715T162 726Q146 726 138 714T129 679H102Z" />
<glyph unicode="&#xd2;" horiz-adv-x="379" d="M189 -3Q120 -3 85 22T49 93V534Q49 575 81 602T189 628Q264 627 297 601T331 533V94Q331 48 296 23T189 -3ZM189 39Q237 39 259 58T281 106V522Q281 547 262 566T187 586Q137 586 118 567T99 523V105Q99 76 120
58T189 39ZM189 684L78 771H128L222 684H189Z" />
<glyph unicode="&#xd3;" horiz-adv-x="379" d="M189 -3Q120 -3 85 22T49 93V534Q49 575 81 602T189 628Q264 627 297 601T331 533V94Q331 48 296 23T189 -3ZM189 39Q237 39 259 58T281 106V522Q281 547 262 566T187 586Q137 586 118 567T99 523V105Q99 76 120
58T189 39ZM140 684L234 771H284L173 684H140Z" />
<glyph unicode="&#xd4;" horiz-adv-x="379" d="M189 -3Q120 -3 85 22T49 93V534Q49 575 81 602T189 628Q264 627 297 601T331 533V94Q331 48 296 23T189 -3ZM189 39Q237 39 259 58T281 106V522Q281 547 262 566T187 586Q137 586 118 567T99 523V105Q99 76 120
58T189 39ZM79 684L164 773H214L298 684H263L190 748L116 684H79Z" />
<glyph unicode="&#xd5;" horiz-adv-x="379" d="M189 -3Q120 -3 85 22T49 93V534Q49 575 81 602T189 628Q264 627 297 601T331 533V94Q331 48 296 23T189 -3ZM189 39Q237 39 259 58T281 106V522Q281 547 262 566T187 586Q137 586 118 567T99 523V105Q99 76 120
58T189 39ZM88 679Q88 720 103 738T142 757Q163 757 177 747T205 725T233 714Q253 714 259 728T266 756H292Q292 715 275 699T238 682Q217 682 203 693T176 715T148 726Q132 726 124 714T115 679H88Z" />
<glyph unicode="&#xd6;" horiz-adv-x="379" d="M189 -3Q120 -3 85 22T49 93V534Q49 575 81 602T189 628Q264 627 297 601T331 533V94Q331 48 296 23T189 -3ZM189 39Q237 39 259 58T281 106V522Q281 547 262 566T187 586Q137 586 118 567T99 523V105Q99 76 120
58T189 39ZM238 680Q221 680 218 686T215 704Q215 718 218 723T238 729Q256 729 259 724T263 704Q263 693 260 687T238 680ZM139 680Q122 680 119 686T116 704Q116 718 119 723T139 729Q157 729 160 724T163 704Q163 693 160 687T139 680Z" />
<glyph unicode="&#xd7;" horiz-adv-x="358" d="M68 401L89 423L298 213L276 193L68 401ZM82 189L62 209L270 419L291 398L82 189Z" />
<glyph unicode="&#xd8;" horiz-adv-x="379" d="M189 -3Q120 -3 84 22T48 93V530Q48 577 81 602T187 628Q262 627 296 602T330 529V94Q330 48 293 23T189 -3ZM187 39Q237 39 258 58T280 105V517Q280 535 272 551T244 576T186 585Q134 585 116 564T98 518V104Q98
77 119 58T187 39ZM61 -44L284 634H309L84 -44H61Z" />
<glyph unicode="&#xd9;" horiz-adv-x="389" d="M194 -5Q156 -5 124 4T73 33T54 89V620H105V106Q105 88 112 72T139 46T194 36Q233 36 252 46T277 72T284 106V620H335V89Q335 54 317 34T267 4T194 -5ZM194 684L83 771H133L227 684H194Z" />
<glyph unicode="&#xda;" horiz-adv-x="389" d="M194 -5Q156 -5 124 4T73 33T54 89V620H105V106Q105 88 112 72T139 46T194 36Q233 36 252 46T277 72T284 106V620H335V89Q335 54 317 34T267 4T194 -5ZM145 684L239 771H289L178 684H145Z" />
<glyph unicode="&#xdb;" horiz-adv-x="389" d="M194 -5Q156 -5 124 4T73 33T54 89V620H105V106Q105 88 112 72T139 46T194 36Q233 36 252 46T277 72T284 106V620H335V89Q335 54 317 34T267 4T194 -5ZM84 684L169 773H219L303 684H268L195 748L121 684H84Z" />
<glyph unicode="&#xdc;" horiz-adv-x="389" d="M194 -5Q156 -5 124 4T73 33T54 89V620H105V106Q105 88 112 72T139 46T194 36Q233 36 252 46T277 72T284 106V620H335V89Q335 54 317 34T267 4T194 -5ZM243 680Q226 680 223 686T220 704Q220 718 223 723T243 729Q261
729 264 724T268 704Q268 693 265 687T243 680ZM144 680Q127 680 124 686T121 704Q121 718 124 723T144 729Q162 729 165 724T168 704Q168 693 165 687T144 680Z" />
<glyph unicode="&#xdd;" horiz-adv-x="345" d="M147 0V253L11 620H58L171 319L173 305H174L175 319L286 620H334L197 253V0H147ZM123 684L217 771H267L156 684H123Z" />
<glyph unicode="&#xde;" horiz-adv-x="383" d="M33 679H83V581H220Q263 581 283 571T310 539T317 485V329Q317 293 311 262T280 211T198 191H84V0H33V679ZM186 232Q226 232 246 252T266 320V465Q266 508 253 524T198 540H84V232H186Z" />
<glyph unicode="&#xdf;" horiz-adv-x="462" d="M-28 -173L-39 -133H24Q52 -133 61 -119T70 -72V441H27V470H70V538Q70 586 90 604T171 622H226Q263 622 285 614T316 586T326 528V478Q326 465 321 460T302 449Q275 446 261 433T241 400T236 359Q236 325 243 308T278
277Q306 261 322 252T352 236Q382 220 396 204T415 168T420 119V110Q420 53 391 24T282 -6Q213 -6 183 23T152 106V174L198 181V108Q198 88 205 70T230 40T284 29Q326 29 350 44T375 108Q375 137 372 154T358 185T322 211Q309 219 287 230T247 252Q225 264 213
277T195 309T190 359Q190 413 210 442T276 476L275 530Q275 569 260 581T204 593H193Q147 593 134 581T120 530V-84Q120 -130 103 -151T41 -173H-28Z" />
<glyph unicode="&#xe0;" horiz-adv-x="396" d="M128 0Q93 0 77 10T58 47T55 127V377Q55 416 63 436T94 463T162 470H336V0H286V429H159Q131 429 120 422T107 399T105 353V115Q105 84 108 68T121 47T152 41H255L248 0H128ZM200 534L97 629H147L233 534H200Z" />
<glyph unicode="&#xe1;" horiz-adv-x="396" d="M128 0Q93 0 77 10T58 47T55 127V377Q55 416 63 436T94 463T162 470H336V0H286V429H159Q131 429 120 422T107 399T105 353V115Q105 84 108 68T121 47T152 41H255L248 0H128ZM151 534L238 629H287L184 534H151Z" />
<glyph unicode="&#xe2;" horiz-adv-x="396" d="M128 0Q93 0 77 10T58 47T55 127V377Q55 416 63 436T94 463T162 470H336V0H286V429H159Q131 429 120 422T107 399T105 353V115Q105 84 108 68T121 47T152 41H255L248 0H128ZM90 534L175 623H225L309 534H274L201
598L127 534H90Z" />
<glyph unicode="&#xe3;" horiz-adv-x="396" d="M128 0Q93 0 77 10T58 47T55 127V377Q55 416 63 436T94 463T162 470H336V0H286V429H159Q131 429 120 422T107 399T105 353V115Q105 84 108 68T121 47T152 41H255L248 0H128ZM99 529Q99 570 114 588T153 607Q174 607
188 597T216 575T244 564Q264 564 270 578T277 606H303Q303 565 286 549T249 532Q228 532 214 543T187 565T159 576Q143 576 135 564T126 529H99Z" />
<glyph unicode="&#xe4;" horiz-adv-x="396" d="M128 0Q93 0 77 10T58 47T55 127V377Q55 416 63 436T94 463T162 470H336V0H286V429H159Q131 429 120 422T107 399T105 353V115Q105 84 108 68T121 47T152 41H255L248 0H128ZM249 530Q232 530 229 536T226 554Q226
568 229 573T249 579Q267 579 270 574T274 554Q274 543 271 537T249 530ZM150 530Q133 530 130 536T127 554Q127 568 130 573T150 579Q168 579 171 574T174 554Q174 543 171 537T150 530Z" />
<glyph unicode="&#xe5;" horiz-adv-x="396" d="M128 0Q93 0 77 10T58 47T55 127V377Q55 416 63 436T94 463T162 470H336V0H286V429H159Q131 429 120 422T107 399T105 353V115Q105 84 108 68T121 47T152 41H255L248 0H128ZM201 529Q169 529 148 549T126 598Q126
627 147 648T201 669Q232 669 253 648T275 598Q275 570 254 550T201 529ZM201 551Q221 551 235 565T250 597Q250 618 236 632T201 647Q180 647 166 633T151 597Q151 579 165 565T201 551Z" />
<glyph unicode="&#xe6;" horiz-adv-x="581" d="M128 0Q93 0 77 10T58 47T55 127V377Q55 416 63 436T94 463T162 470H336V0H286V429H159Q131 429 120 422T107 399T105 353V115Q105 84 108 68T121 47T152 41H255L248 0H128ZM419 -1Q363 -1 334 15T295 56T285 106V371Q285
397 295 421T335 462T426 478Q483 478 513 463T554 423T566 371V257L516 255V363Q516 401 492 420T425 439Q384 439 360 420T335 363V115Q335 77 359 59T419 40Q466 40 491 59T516 122V172L566 177V118Q566 86 554 59T511 16T419 -1ZM293 233V262H566V233H293Z"
/>
<glyph unicode="&#xe7;" horiz-adv-x="379" d="M185 -4Q129 -4 100 12T61 53T51 103V368Q51 394 61 418T101 459T192 475Q249 475 279 460T320 420T332 368V300L282 293V360Q282 398 258 417T191 436Q150 436 126 417T101 360V112Q101 74 125 56T185 37Q232 37
257 56T282 119V178L332 184V115Q332 83 320 56T277 13T185 -4ZM196 -176Q175 -176 159 -168T131 -152L146 -131Q151 -138 164 -145T193 -153Q217 -153 230 -137T244 -102Q244 -87 233 -73T198 -58Q182 -58 169 -64T148 -81L129 -65L181 0H205L163 -52Q184 -38
207 -38Q244 -38 260 -57T277 -100Q277 -126 256 -151T196 -176Z" />
<glyph unicode="&#xe8;" horiz-adv-x="383" d="M185 -4Q129 -4 100 12T61 53T51 103V368Q51 394 61 418T101 459T192 475Q249 475 279 460T320 420T332 368V254L282 252V360Q282 398 258 417T191 436Q150 436 126 417T101 360V112Q101 74 125 56T185 37Q232 37
257 56T282 119V169L332 174V115Q332 83 320 56T277 13T185 -4ZM59 230V259H332V230H59ZM191 534L88 629H138L224 534H191Z" />
<glyph unicode="&#xe9;" horiz-adv-x="383" d="M185 -4Q129 -4 100 12T61 53T51 103V368Q51 394 61 418T101 459T192 475Q249 475 279 460T320 420T332 368V254L282 252V360Q282 398 258 417T191 436Q150 436 126 417T101 360V112Q101 74 125 56T185 37Q232 37
257 56T282 119V169L332 174V115Q332 83 320 56T277 13T185 -4ZM59 230V259H332V230H59ZM142 534L229 629H278L175 534H142Z" />
<glyph unicode="&#xea;" horiz-adv-x="383" d="M185 -4Q129 -4 100 12T61 53T51 103V368Q51 394 61 418T101 459T192 475Q249 475 279 460T320 420T332 368V254L282 252V360Q282 398 258 417T191 436Q150 436 126 417T101 360V112Q101 74 125 56T185 37Q232 37
257 56T282 119V169L332 174V115Q332 83 320 56T277 13T185 -4ZM59 230V259H332V230H59ZM81 534L166 623H216L300 534H265L192 598L118 534H81Z" />
<glyph unicode="&#xeb;" horiz-adv-x="383" d="M185 -4Q129 -4 100 12T61 53T51 103V368Q51 394 61 418T101 459T192 475Q249 475 279 460T320 420T332 368V254L282 252V360Q282 398 258 417T191 436Q150 436 126 417T101 360V112Q101 74 125 56T185 37Q232 37
257 56T282 119V169L332 174V115Q332 83 320 56T277 13T185 -4ZM59 230V259H332V230H59ZM240 530Q223 530 220 536T217 554Q217 568 220 573T240 579Q258 579 261 574T265 554Q265 543 262 537T240 530ZM141 530Q124 530 121 536T118 554Q118 568 121 573T141 579Q159
579 162 574T165 554Q165 543 162 537T141 530Z" />
<glyph unicode="&#xec;" horiz-adv-x="169" d="M60 470H110V0H60V470ZM340 534L237 629H287L373 534H340Z" />
<glyph unicode="&#xed;" horiz-adv-x="169" d="M60 470H110V0H60V470ZM35 534L122 629H171L68 534H35Z" />
<glyph unicode="&#xee;" horiz-adv-x="169" d="M60 470H110V0H60V470ZM230 534L315 623H365L449 534H414L341 598L267 534H230Z" />
<glyph unicode="&#xef;" horiz-adv-x="169" d="M60 470H110V0H60V470ZM389 530Q372 530 369 536T366 554Q366 568 369 573T389 579Q407 579 410 574T414 554Q414 543 411 537T389 530ZM290 530Q273 530 270 536T267 554Q267 568 270 573T290 579Q308 579 311 574T314
554Q314 543 311 537T290 530Z" />
<glyph unicode="&#xf0;" horiz-adv-x="390" d="M192 -1Q137 -1 107 10T65 56T54 155V326Q54 403 81 436T181 470Q218 470 241 461T280 434L274 430Q269 498 235 544T129 590H66V620H151Q202 620 243 594T310 509T335 350V127Q335 89 329 64T308 25T264 5T192 -1ZM192
42Q247 42 266 60T285 126V361Q285 394 266 414T195 435Q166 435 146 427T115 397T104 330V143Q104 101 113 79T141 50T192 42ZM108 512L92 524L195 660L210 648L108 512Z" />
<glyph unicode="&#xf1;" horiz-adv-x="395" d="M60 472H100L105 423Q121 447 149 462T220 477Q280 477 310 451T341 375V0H291V358Q291 399 267 417T200 436Q165 436 144 422T110 385V0H60V472ZM97 529Q97 570 112 588T151 607Q172 607 186 597T214 575T242 564Q262
564 268 578T275 606H301Q301 565 284 549T247 532Q226 532 212 543T185 565T157 576Q141 576 133 564T124 529H97Z" />
<glyph unicode="&#xf2;" horiz-adv-x="383" d="M185 -4Q129 -4 100 12T61 53T51 103V368Q51 394 61 418T101 459T192 475Q249 475 279 460T320 420T332 368V115Q332 83 320 56T277 13T185 -4ZM185 37Q232 37 257 56T282 119V360Q282 398 258 417T191 436Q150 436
126 417T101 360V112Q101 74 125 56T185 37ZM191 534L88 629H138L224 534H191Z" />
<glyph unicode="&#xf3;" horiz-adv-x="383" d="M185 -4Q129 -4 100 12T61 53T51 103V368Q51 394 61 418T101 459T192 475Q249 475 279 460T320 420T332 368V115Q332 83 320 56T277 13T185 -4ZM185 37Q232 37 257 56T282 119V360Q282 398 258 417T191 436Q150 436
126 417T101 360V112Q101 74 125 56T185 37ZM142 534L229 629H278L175 534H142Z" />
<glyph unicode="&#xf4;" horiz-adv-x="383" d="M185 -4Q129 -4 100 12T61 53T51 103V368Q51 394 61 418T101 459T192 475Q249 475 279 460T320 420T332 368V115Q332 83 320 56T277 13T185 -4ZM185 37Q232 37 257 56T282 119V360Q282 398 258 417T191 436Q150 436
126 417T101 360V112Q101 74 125 56T185 37ZM81 534L166 623H216L300 534H265L192 598L118 534H81Z" />
<glyph unicode="&#xf5;" horiz-adv-x="383" d="M185 -4Q129 -4 100 12T61 53T51 103V368Q51 394 61 418T101 459T192 475Q249 475 279 460T320 420T332 368V115Q332 83 320 56T277 13T185 -4ZM185 37Q232 37 257 56T282 119V360Q282 398 258 417T191 436Q150 436
126 417T101 360V112Q101 74 125 56T185 37ZM89 529Q89 570 104 588T143 607Q164 607 178 597T206 575T234 564Q254 564 260 578T267 606H293Q293 565 276 549T239 532Q218 532 204 543T177 565T149 576Q133 576 125 564T116 529H89Z" />
<glyph unicode="&#xf6;" horiz-adv-x="383" d="M185 -4Q129 -4 100 12T61 53T51 103V368Q51 394 61 418T101 459T192 475Q249 475 279 460T320 420T332 368V115Q332 83 320 56T277 13T185 -4ZM185 37Q232 37 257 56T282 119V360Q282 398 258 417T191 436Q150 436
126 417T101 360V112Q101 74 125 56T185 37ZM240 530Q223 530 220 536T217 554Q217 568 220 573T240 579Q258 579 261 574T265 554Q265 543 262 537T240 530ZM141 530Q124 530 121 536T118 554Q118 568 121 573T141 579Q159 579 162 574T165 554Q165 543 162 537T141
530Z" />
<glyph unicode="&#xf7;" horiz-adv-x="403" d="M54 449V478H349V449H54ZM199 354Q181 354 178 360T175 378Q175 391 178 397T199 404Q217 404 220 398T224 378Q224 366 220 360T199 354ZM199 4Q181 4 178 10T175 28Q175 41 178 47T199 54Q217 54 220 48T224 28Q224
16 220 10T199 4Z" />
<glyph unicode="&#xf8;" horiz-adv-x="355" d="M171 -4Q115 -4 87 12T48 53T37 103V366Q37 393 47 417T88 458T179 474Q236 474 266 458T307 418T319 367V115Q319 83 308 56T264 13T171 -4ZM171 37Q218 37 243 56T269 119V358Q269 396 245 415T179 435Q138 435
113 416T87 358V112Q87 74 111 56T171 37ZM28 -96L11 -94L331 572L348 570L28 -96Z" />
<glyph unicode="&#xf9;" horiz-adv-x="396" d="M175 0Q124 0 98 15T64 52T55 97V470H105V117Q105 76 129 59T195 41H286V470H336V0H175ZM197 534L94 629H144L230 534H197Z" />
<glyph unicode="&#xfa;" horiz-adv-x="396" d="M175 0Q124 0 98 15T64 52T55 97V470H105V117Q105 76 129 59T195 41H286V470H336V0H175ZM148 534L235 629H284L181 534H148Z" />
<glyph unicode="&#xfb;" horiz-adv-x="396" d="M175 0Q124 0 98 15T64 52T55 97V470H105V117Q105 76 129 59T195 41H286V470H336V0H175ZM87 534L172 623H222L306 534H271L198 598L124 534H87Z" />
<glyph unicode="&#xfc;" horiz-adv-x="396" d="M175 0Q124 0 98 15T64 52T55 97V470H105V117Q105 76 129 59T195 41H286V470H336V0H175ZM246 530Q229 530 226 536T223 554Q223 568 226 573T246 579Q264 579 267 574T271 554Q271 543 268 537T246 530ZM147 530Q130
530 127 536T124 554Q124 568 127 573T147 579Q165 579 168 574T171 554Q171 543 168 537T147 530Z" />
<glyph unicode="&#xfd;" horiz-adv-x="327" d="M-8 -170L-3 -137H34Q70 -137 92 -121T125 -55L141 6L12 470H61L163 85L164 73H161L162 85L264 470H314L166 -67Q150 -123 125 -146T44 -170H-8ZM116 534L203 629H252L149 534H116Z" />
<glyph unicode="&#xfe;" d="M37 -157V613H85V470H241Q280 470 296 460T315 422T318 339V93Q318 54 310 34T279 7T211 0H87V-157H37ZM87 41H214Q242 41 253 48T266 72T268 117V355Q268 386 265 402T252 423T220 429H87V41Z" />
<glyph unicode="&#xff;" horiz-adv-x="327" d="M-8 -170L-3 -137H34Q70 -137 92 -121T125 -55L141 6L12 470H61L163 85L164 73H161L162 85L264 470H314L166 -67Q150 -123 125 -146T44 -170H-8ZM214 530Q197 530 194 536T191 554Q191 568 194 573T214 579Q232 579
235 574T239 554Q239 543 236 537T214 530ZM115 530Q98 530 95 536T92 554Q92 568 95 573T115 579Q133 579 136 574T139 554Q139 543 136 537T115 530Z" />
<glyph unicode="&#x2013;" horiz-adv-x="456" d="M65 283V324H392V283H65Z" />
<glyph unicode="&#x2014;" horiz-adv-x="635" d="M65 283V324H571V283H65Z" />
<glyph unicode="&#x2018;" horiz-adv-x="197" d="M128 634Q114 605 105 577T96 519Q111 519 114 513T117 498Q117 490 116 484T110 474T91 471Q74 471 71 477T67 497Q67 520 72 546T86 595T102 634H128Z" />
<glyph unicode="&#x2019;" horiz-adv-x="197" d="M68 475Q84 505 92 533T100 590Q86 590 83 596T80 611Q80 620 81 626T87 635T106 638Q123 638 126 632T130 612Q130 589 125 563T112 514T94 475H68Z" />
<glyph unicode="&#x201a;" horiz-adv-x="189" d="M77 -133L68 81H120L113 -133H77Z" />
<glyph unicode="&#x201c;" horiz-adv-x="297" d="M229 634Q214 605 205 577T196 519Q211 519 214 513T217 498Q217 490 216 484T210 474T191 471Q174 471 171 477T167 497Q167 520 172 546T186 595T203 634H229ZM128 634Q114 605 105 577T96 519Q111 519 114 513T117
498Q117 490 116 484T110 474T91 471Q74 471 71 477T67 497Q67 520 72 546T86 595T102 634H128Z" />
<glyph unicode="&#x201d;" horiz-adv-x="298" d="M68 475Q84 505 92 533T100 590Q86 590 83 596T80 611Q80 620 81 626T87 635T106 638Q123 638 126 632T130 612Q130 589 125 563T112 514T94 475H68ZM169 475Q185 505 193 533T201 590Q187 590 184 596T181 611Q181
620 182 626T188 635T207 638Q224 638 227 632T231 612Q231 589 226 563T213 514T195 475H169Z" />
<glyph unicode="&#x201e;" horiz-adv-x="350" d="M208 -133L230 81H282L243 -133H208ZM68 -133L90 81H142L104 -133H68Z" />
<glyph unicode="&#x2022;" horiz-adv-x="305" d="M151 176Q112 176 85 204T58 273Q58 313 85 339T152 366Q191 366 218 339T246 271Q246 231 219 204T151 176Z" />
<glyph unicode="&#x2039;" horiz-adv-x="315" d="M197 52L68 237L202 430H247L114 237L242 52H197Z" />
<glyph unicode="&#x203a;" horiz-adv-x="315" d="M73 52L201 237L68 430H114L247 237L118 52H73Z" />
</font>
</defs>
</svg>
