<?xml version="1.0" standalone="no"?>
<!DOCTYPE svg PUBLIC "-//W3C//DTD SVG 1.1//EN" "http://www.w3.org/Graphics/SVG/1.1/DTD/svg11.dtd">
<svg xmlns="http://www.w3.org/2000/svg">
<defs >
<font id="BalooTamma2" horiz-adv-x="457" ><font-face
    font-family="Baloo Tamma 2"
    units-per-em="1000"
    panose-1="0 0 0 0 0 0 0 0 0 0"
    ascent="1078"
    descent="-673"
    alphabetic="0" />
<glyph unicode=" " horiz-adv-x="300" />
<glyph unicode="!" horiz-adv-x="248" d="M161 630V630Q161 608 161 568T159 478T157 375T155 273T152 185Q146 181 138 179T120 176Q107 176 98 182T88 200Q87 225 86 268T83 365T82 474T81 577T80 659Q100 672 123 672Q161 672 161 630ZM66 44V44Q66 67 81 83T121
99Q147 99 161 83T176 44Q176 21 162 5T121 -11Q96 -11 81 5T66 44Z" />
<glyph unicode="&quot;" horiz-adv-x="265" d="M99 466V466Q92 464 85 463T69 461Q54 461 46 468T37 489L31 662Q39 667 48 669T69 672Q86 672 95 663T104 633Q104 617 103 586T101 523T99 466ZM229 466V466Q222 464 214 463T198 461Q183 461 176 468T167 489L161
662Q169 667 178 669T199 672Q216 672 225 663T234 632Q234 616 233 586T231 523T229 466Z" />
<glyph unicode="#" horiz-adv-x="667" d="M566 162H49Q47 168 45 175T43 191Q43 208 51 216T76 224H594Q596 218 598 211T600 194Q600 178 592 170T566 162ZM596 396H79Q77 402 75 409T72 425Q72 442 81 450T106 458H624Q626 452 628 445T630 428Q630 412 622
404T596 396ZM307 532L195 -3Q190 -4 184 -4T170 -5Q154 -5 145 3T135 27Q135 37 138 51T144 76L256 611Q261 612 268 612T281 613Q297 613 306 606T316 581Q316 571 313 557T307 532ZM523 532L411 -3Q406 -4 400 -4T386 -5Q370 -5 361 3T351 27Q351 37 354 51T359
76L472 611Q477 612 484 612T497 613Q513 613 522 606T532 581Q532 571 529 557T523 532Z" />
<glyph unicode="$" horiz-adv-x="520" d="M222 41H292V-71Q288 -72 280 -74T261 -76Q242 -76 232 -68T222 -44V41ZM292 588H222V715Q226 717 234 718T253 720Q272 720 282 712T292 688V588ZM257 71V71Q325 71 360 102T395 182Q395 224 368 251T283 295L195 321Q153
334 123 354T77 405T60 476Q60 552 115 595T263 639Q317 639 359 628T426 599T451 561Q451 548 444 538T426 522Q401 542 359 557T266 573Q207 573 173 547T138 476Q138 440 163 418T244 379L305 361Q383 339 428 297T474 182Q474 103 418 54T257 5Q196 5 151 18T80
52T54 92Q54 109 64 120T89 136Q112 114 154 93T257 71Z" />
<glyph unicode="%" horiz-adv-x="771" d="M334 528V528Q334 463 294 425T194 386Q136 386 95 424T54 528Q54 593 95 631T194 669Q253 669 293 631T334 528ZM123 528V528Q123 488 143 467T194 445Q226 445 245 466T265 528Q265 567 246 588T194 610Q163 610 143
589T123 528ZM186 63L564 669Q587 666 600 658T613 636Q613 626 609 617T598 597L220 -7Q199 -5 185 4T171 27Q171 35 175 43T186 63ZM717 134V134Q717 69 677 31T577 -8Q519 -8 478 30T437 134Q437 199 478 237T577 275Q636 275 676 237T717 134ZM506 134V134Q506
94 526 73T577 51Q609 51 628 72T648 134Q648 173 629 194T577 216Q546 216 526 195T506 134Z" />
<glyph unicode="&amp;" horiz-adv-x="637" d="M509 102L480 68Q446 31 397 8T279 -15Q210 -15 159 10T79 80T50 187Q50 238 70 276T126 341T204 378L239 319Q212 313 188 297T147 253T131 186Q131 126 170 90T280 53Q318 53 358 69T433 124L455 156Q473 189 483
239T494 353Q503 357 512 359T531 362Q551 362 561 351T571 317Q571 261 555 202T509 102ZM565 -14V-14Q545 -14 525 9L219 329L194 357Q163 389 148 419T133 485Q133 526 151 556T205 604T292 621Q345 621 372 606T400 568Q400 556 394 547T379 532Q363 541 342
547T297 553Q259 553 237 535T215 484Q215 453 231 429T277 374L609 29Q606 9 595 -2T565 -14Z" />
<glyph unicode="&apos;" horiz-adv-x="136" d="M101 466V466Q94 464 86 463T69 461Q54 461 46 468T37 489L31 662Q39 667 48 669T70 672Q88 672 97 663T106 632Q106 616 105 586T103 523T101 466Z" />
<glyph unicode="(" horiz-adv-x="252" d="M203 -65V-65Q188 -65 176 -54T149 -24Q104 41 80 126T55 324Q55 436 83 523T149 666Q162 686 175 696T203 707Q217 707 227 699T242 679Q188 610 158 521T128 324Q128 218 154 132T242 -37Q237 -49 227 -57T203 -65Z" />
<glyph unicode=")" horiz-adv-x="252" d="M49 -65V-65Q64 -65 77 -54T103 -24Q148 41 172 126T197 324Q197 436 169 523T103 666Q90 686 77 696T49 707Q35 707 25 699T10 679Q64 610 94 521T124 324Q124 218 98 132T10 -37Q15 -49 25 -57T49 -65Z" />
<glyph unicode="*" horiz-adv-x="297" d="M146 582L167 527L23 575Q20 586 20 595Q20 609 28 617T49 626Q54 626 59 624T70 620L146 582ZM179 558L99 440Q95 439 92 439T86 439Q67 439 58 447T49 467Q49 475 52 481T61 493L113 552L179 558ZM135 538L160 583L256
469Q254 456 244 448T222 439Q212 439 203 447T187 464L135 538ZM123 562L253 635Q262 631 269 622T277 601Q277 590 271 584T253 573L168 532L123 562ZM174 567L126 540L121 687Q126 690 133 693T151 696Q164 696 172 690T180 671Q180 665 179 644T176 600T174
567Z" />
<glyph unicode="+" horiz-adv-x="548" d="M462 266H58Q55 273 53 280T51 298Q51 315 60 323T86 332H490Q492 326 494 318T497 301Q497 285 488 276T462 266ZM312 488V73Q305 70 297 68T278 66Q258 66 249 75T239 106V521Q247 524 255 526T276 528Q295 528 303
519T312 488Z" />
<glyph unicode="," horiz-adv-x="145" d="M68 -94V-94Q52 -121 29 -121Q7 -121 -7 -104Q2 -78 13 -43T35 30T50 94Q58 98 67 100T88 103Q106 103 116 95T126 66Q126 44 116 12T91 -50T68 -94Z" />
<glyph unicode="-" horiz-adv-x="389" d="M300 228H61Q58 235 56 242T54 260Q54 277 63 285T89 294H328Q330 288 332 280T335 263Q335 247 326 238T300 228Z" />
<glyph unicode="." horiz-adv-x="141" d="M16 42V42Q16 66 30 82T71 98Q97 98 111 82T125 42Q125 19 111 3T71 -13Q45 -13 31 3T16 42Z" />
<glyph unicode="/" horiz-adv-x="304" d="M272 664L87 -65Q82 -66 76 -66T62 -67Q44 -67 35 -58T25 -32Q25 -21 28 -7T34 16L219 745Q225 746 231 746T244 747Q261 747 271 739T281 712Q281 702 278 689T272 664Z" />
<glyph unicode="0" horiz-adv-x="579" d="M450 304V304Q450 396 428 451T370 532T290 557Q247 557 210 531T151 450T129 304Q129 182 171 116T290 50Q366 50 408 116T450 304ZM290 -13V-13Q220 -13 167 21T85 126T55 304Q55 420 89 489T176 589T290 620Q350 620
403 589T490 488T524 304Q524 198 495 128T413 22T290 -13Z" />
<glyph unicode="1" horiz-adv-x="352" d="M247 231H175V537L44 475Q31 479 23 488T15 512Q15 537 48 552L190 615H208Q226 615 236 604T247 575V231ZM175 264H247V-1Q243 -3 234 -5T213 -8Q194 -8 185 0T175 25V264Z" />
<glyph unicode="2" horiz-adv-x="506" d="M57 547V547Q57 564 80 581T141 609T225 620Q288 620 333 599T404 538T429 446Q429 391 399 338T293 215L128 61H429Q432 57 435 49T438 31Q438 18 431 9T409 0H56Q48 7 43 16T38 35Q38 49 43 61T60 85L244 261Q306 320
330 361T354 447Q354 496 321 526T221 557Q177 557 142 542T84 510Q74 514 66 523T57 547Z" />
<glyph unicode="3" horiz-adv-x="504" d="M215 621V621Q308 621 367 580T426 455Q426 415 409 387T369 342T328 321Q355 313 381 294T426 244T444 170Q444 110 415 70T336 10T218 -11Q164 -11 122 0T56 29T32 66Q32 80 39 89T58 104Q84 84 122 68T220 52Q288 52
330 81T372 171Q372 224 333 256T220 289H137Q133 294 131 302T128 320Q128 330 130 338T137 351H212Q288 351 321 380T354 455Q354 506 317 532T216 558Q168 558 131 543T70 511Q61 516 53 526T45 549Q45 566 67 582T129 610T215 621Z" />
<glyph unicode="4" horiz-adv-x="543" d="M30 217L326 609Q335 611 345 612T364 614Q377 614 388 610T406 597T413 569V211H515Q518 207 520 199T523 182Q523 168 516 159T495 150H413V-2Q409 -3 401 -5T382 -8Q363 -8 353 0T343 24V150H50Q40 155 34 166T27 193Q27
202 28 207T30 217ZM343 211L345 537H343L113 211H343Z" />
<glyph unicode="5" horiz-adv-x="537" d="M200 608L172 552L155 358Q172 368 203 377T269 386Q328 386 376 364T453 299T482 190Q482 132 456 86T379 14T257 -13Q201 -13 158 -1T92 31T68 67Q68 81 78 92T98 108Q120 89 160 69T259 49Q330 49 369 89T409 190Q409
254 369 289T263 324Q226 324 197 313T141 287Q116 289 101 302T85 337Q85 343 85 353T87 371L104 566Q106 586 116 597T146 608H200ZM160 545V608H453Q456 604 459 596T462 579Q462 564 455 555T433 545H160Z" />
<glyph unicode="6" horiz-adv-x="548" d="M452 563V563Q452 552 446 543T429 528Q409 539 381 547T320 556Q267 556 224 531T156 452T129 316Q148 336 190 359T296 383Q384 383 441 334T498 186Q498 124 472 79T398 11T287 -13Q221 -13 169 17T86 112T55 285Q55
380 77 444T138 547T223 603T320 620Q354 620 384 613T433 594T452 563ZM287 49V49Q347 49 385 85T424 189Q424 255 385 288T289 321Q231 321 190 297T124 237L127 246Q127 158 169 104T287 49Z" />
<glyph unicode="7" horiz-adv-x="455" d="M53 608H414Q424 602 429 593T435 571Q435 553 424 531L169 -4Q165 -5 160 -5T149 -5Q131 -5 119 4T106 28Q106 39 110 50T122 74L353 545H33Q30 550 27 557T24 575Q24 589 31 598T53 608Z" />
<glyph unicode="8" horiz-adv-x="567" d="M212 326L271 336Q346 350 383 378T420 454Q420 503 384 530T284 558Q223 558 186 530T148 455Q148 416 169 392T225 357T304 341L343 328Q385 320 422 300T483 245T507 160Q507 106 479 67T400 8T284 -13Q216 -13 166
7T88 67T60 161Q60 210 82 244T140 298T212 326ZM344 307L278 295Q214 285 174 251T133 160Q133 108 173 79T284 49Q352 49 393 78T434 161Q434 222 385 256T253 296L202 309Q144 325 110 361T75 455Q75 506 101 543T175 600T284 620Q381 620 437 576T493 453Q493
390 450 354T344 307Z" />
<glyph unicode="9" horiz-adv-x="550" d="M82 47V47Q82 58 88 68T104 83Q123 72 154 62T228 51Q281 51 324 74T394 149T421 288Q413 278 393 263T340 236T265 224Q209 224 161 243T82 305T52 418Q52 482 80 527T156 596T261 620Q329 620 381 589T464 493T495 323Q495
200 461 126T367 20T227 -13Q168 -13 125 3T82 47ZM274 286V286Q328 286 369 313T423 372L422 359Q422 451 380 504T261 558Q203 558 165 522T126 420Q126 349 169 318T274 286Z" />
<glyph unicode=":" horiz-adv-x="189" d="M40 392V392Q40 416 54 432T94 448Q120 448 134 432T149 392Q149 368 135 353T94 337Q69 337 55 352T40 392ZM40 42V42Q40 66 54 82T94 98Q120 98 134 82T149 42Q149 19 135 3T94 -13Q68 -13 54 3T40 42Z" />
<glyph unicode=";" horiz-adv-x="202" d="M46 392V392Q46 416 60 432T100 448Q126 448 140 432T155 392Q155 368 141 353T100 337Q74 337 60 352T46 392ZM89 -94V-94Q73 -121 50 -121Q28 -121 14 -104Q23 -78 34 -43T56 30T71 94Q79 98 88 100T109 103Q127 103
137 95T147 66Q147 44 137 12T112 -50T89 -94Z" />
<glyph unicode="&lt;" horiz-adv-x="473" d="M132 301L440 141Q441 136 441 132T441 123Q441 108 431 98T404 88Q397 88 388 91T369 101L64 267Q54 282 54 300Q54 315 59 324T71 338L405 509Q422 503 430 493T438 471Q438 455 428 445T402 425L132 301Z" />
<glyph unicode="=" horiz-adv-x="518" d="M431 363H58Q55 369 53 377T51 394Q51 411 60 419T86 428H460Q462 422 464 415T466 397Q466 381 457 372T431 363ZM431 161H58Q55 167 53 174T51 192Q51 209 60 217T86 226H460Q462 220 464 212T466 195Q466 179 457 170T431
161Z" />
<glyph unicode="&gt;" horiz-adv-x="460" d="M331 302L33 459Q32 464 32 468T32 477Q32 491 42 501T68 512Q76 512 84 509T103 500L399 334Q409 319 409 300Q409 285 405 276T392 262L68 92Q51 97 43 107T35 130Q35 146 45 156T71 175L331 302Z" />
<glyph unicode="?" horiz-adv-x="458" d="M211 237L114 207Q106 216 101 226T95 249Q95 263 102 271T130 286L199 307Q270 330 304 366T339 467Q339 523 301 563T185 603Q148 603 112 591T49 555Q39 563 33 573T27 597Q27 616 47 633T103 661T187 672Q258 672
310 646T390 573T418 468Q418 407 396 363T327 289T211 237ZM104 44V44Q104 67 119 83T159 99Q185 99 199 83T214 44Q214 21 200 5T159 -11Q134 -11 119 5T104 44Z" />
<glyph unicode="@" horiz-adv-x="1000" d="M380 200V200Q380 136 412 101T503 66Q538 66 566 81T620 127L632 53Q611 31 577 16T492 0Q405 0 352 53T298 200Q298 272 327 323T407 402T528 429Q563 429 596 421T652 401Q693 381 693 352Q693 345 693 337T691 322L665
60H586L614 344Q598 352 575 357T523 363Q459 363 420 321T380 200ZM608 37V37Q613 52 619 64T633 84T650 91Q662 81 680 71T726 61Q791 61 824 118T857 267Q857 362 815 434T697 546T516 587Q400 587 314 539T181 405T134 204Q134 95 178 14T301 -111T486 -156Q524
-156 553 -152T602 -141Q608 -147 611 -155T615 -172Q615 -187 603 -198T561 -215T480 -221Q404 -221 339 -202T221 -147T131 -58T75 60T55 204Q55 305 87 387T180 529T325 620T515 652Q613 652 691 625T823 546T907 424T936 266Q936 137 883 66T726 -5Q695 -5
664 6T608 37Z" />
<glyph unicode="A" horiz-adv-x="592" d="M298 545H294Q279 503 259 445T217 326T176 211L171 196Q165 178 156 151T137 95T118 40T104 -2Q97 -5 90 -6T71 -8Q55 -8 43 0T30 28Q30 37 33 46T40 67Q52 101 69 150T108 257T152 376T197 495T238 601Q246 605 262
609T295 613Q315 613 333 607T357 587Q381 529 408 456T464 303T517 148T563 12Q556 3 545 -2T519 -8Q500 -8 490 0T473 29L418 192L410 220Q390 281 369 343T329 458T298 545ZM132 162L158 229H437L453 162H132Z" />
<glyph unicode="B" horiz-adv-x="599" d="M420 349V283H145V349H420ZM305 283L337 333Q405 333 450 311T517 251T540 168Q540 77 475 33T288 -11Q261 -11 234 -10T181 -4T131 6Q89 18 89 52V564Q89 580 97 589T122 602Q156 612 194 615T277 619Q390 619 453 579T516
455Q516 413 496 378T430 321T308 299L299 349Q365 349 399 376T433 453Q433 503 394 527T277 552Q243 552 217 550T169 543V67Q193 62 224 59T288 56Q371 56 414 84T457 170Q457 222 419 252T305 283Z" />
<glyph unicode="C" horiz-adv-x="588" d="M533 541V541Q533 528 525 518T505 502Q480 520 445 536T353 552Q292 552 244 524T167 441T138 303Q138 180 198 118T356 56Q408 56 447 71T511 105Q521 101 530 91T539 66Q539 56 534 47T515 28Q492 12 452 0T350 -13Q267
-13 200 22T93 128T54 303Q54 408 94 479T201 585T347 621Q402 621 444 609T509 579T533 541Z" />
<glyph unicode="D" horiz-adv-x="652" d="M515 311V311Q515 186 455 122T278 57Q249 57 222 59T170 67V543Q190 547 214 549T269 551Q337 551 392 527T481 450T515 311ZM598 311V311Q598 414 557 482T442 584T270 619Q231 619 192 616T122 603Q106 598 98 590T89
565V51Q89 18 131 5Q167 -6 207 -8T279 -11Q376 -11 447 24T558 130T598 311Z" />
<glyph unicode="E" horiz-adv-x="531" d="M89 366H170V8Q166 7 155 4T133 0Q113 0 101 12T89 44V366ZM170 248L89 249V564Q89 584 101 596T133 608Q144 608 155 605T170 600V248ZM133 278V346H434Q437 342 440 333T443 314Q443 298 435 288T412 278H133ZM133 0V68H470Q473
64 476 56T479 36Q479 20 471 10T448 0H133ZM133 539V608H465Q468 604 471 595T474 576Q474 560 466 550T443 539H133Z" />
<glyph unicode="F" horiz-adv-x="517" d="M170 246L89 247V564Q89 584 101 596T133 608Q144 608 155 605T170 600V246ZM133 262V331H430Q433 326 436 318T439 299Q439 283 431 273T408 262H133ZM133 539V608H465Q468 604 471 595T474 576Q474 560 466 550T443
539H133ZM89 356H171V1Q166 0 156 -2T134 -5Q112 -5 101 4T89 31V356Z" />
<glyph unicode="G" horiz-adv-x="639" d="M570 287V70Q570 52 560 40T528 17Q503 4 459 -4T370 -13Q277 -13 206 21T94 125T54 303Q54 410 95 480T206 586T357 621Q414 621 457 609T524 579T548 542Q548 529 540 519T521 503Q494 521 457 536T362 552Q299 552
248 524T168 441T138 303Q138 217 168 163T252 82T371 56Q407 56 439 62T489 77V261H338Q335 266 332 274T329 293Q329 310 337 319T360 329H527Q545 329 557 318T570 287Z" />
<glyph unicode="H" horiz-adv-x="654" d="M89 362H171V2Q165 0 155 -2T133 -5Q111 -5 100 4T89 32V362ZM171 295H89V606Q94 608 104 610T127 613Q149 613 160 605T171 576V295ZM483 362H565V2Q559 0 549 -2T527 -5Q505 -5 494 4T483 32V362ZM565 295H483V606Q488
608 498 610T521 613Q543 613 554 605T565 576V295ZM526 274H138V342H526V274Z" />
<glyph unicode="I" horiz-adv-x="262" d="M90 363H171V2Q166 0 156 -2T134 -5Q112 -5 101 4T90 32V363ZM171 296H90V606Q95 608 105 610T128 613Q150 613 160 605T171 576V296Z" />
<glyph unicode="J" horiz-adv-x="385" d="M215 289H296V148Q296 88 274 53T214 4T134 -11Q78 -11 52 2T25 38Q25 52 31 62T42 77Q57 70 78 64T122 58Q167 58 191 80T215 152V289ZM296 265H215V606Q220 608 230 610T252 613Q274 613 285 605T296 576V265Z" />
<glyph unicode="K" horiz-adv-x="566" d="M152 310L215 350Q321 248 397 168T527 40Q526 18 514 6T484 -7Q467 -7 454 3T426 26L152 310ZM226 282L145 300L446 612Q472 611 485 599T498 571Q498 558 492 547T471 523L226 282ZM89 367H171V1Q165 -1 155 -3T133
-6Q111 -6 100 3T89 31V367ZM171 300H89V606Q94 608 104 610T127 613Q149 613 160 605T171 576V300Z" />
<glyph unicode="L" horiz-adv-x="501" d="M89 355H171V8L133 0Q114 0 102 12T89 44V355ZM133 0V70H458Q463 66 466 57T469 37Q469 20 460 10T436 0H133ZM171 295H89V606Q94 608 104 610T127 613Q149 613 160 605T171 576V295Z" />
<glyph unicode="M" horiz-adv-x="780" d="M435 158V158Q428 153 417 149T391 145Q375 145 363 150T345 166Q292 278 253 371T189 525H185Q182 450 179 385T171 260T164 136T155 0Q149 -2 140 -4T119 -6Q97 -6 88 3T79 29Q79 41 81 84T87 191T96 325T106 466T117
592Q125 599 140 605T174 611Q197 611 213 602T238 574Q264 523 290 463T341 343T389 230H393Q437 336 480 434T554 601Q563 606 577 608T603 611Q626 611 639 604T657 579Q661 562 666 521T676 425T685 308T694 188T701 82T706 6Q697 0 687 -3T664 -6Q649 -6 638
1T624 29Q618 126 613 220T603 394T596 523H592Q570 468 532 382T435 158Z" />
<glyph unicode="N" horiz-adv-x="660" d="M89 539L157 545Q161 514 164 472T168 386T170 301V2Q165 0 155 -2T133 -5Q111 -5 100 3T89 31V539ZM571 69L502 63Q492 147 491 234T489 404V606Q495 608 505 610T527 613Q549 613 560 605T571 577V69ZM571 99V103V11Q562
4 548 -1T517 -6Q493 -6 476 3T445 38L255 358Q240 385 222 417T188 479T163 528L89 509V596Q97 604 111 609T143 614Q167 614 184 605T215 570L406 250Q422 223 439 191T472 129T496 80L571 99Z" />
<glyph unicode="O" horiz-adv-x="689" d="M634 304V304Q634 200 596 130T493 23T344 -13Q262 -13 196 23T92 129T54 304Q54 408 93 478T197 585T344 621Q426 621 491 585T595 479T634 304ZM551 304V304Q551 423 495 487T344 552Q251 552 195 488T138 304Q138 185
194 121T344 56Q439 56 495 120T551 304Z" />
<glyph unicode="P" horiz-adv-x="567" d="M170 285H267Q347 285 391 318T435 420Q435 488 393 519T271 551Q244 551 218 549T170 542V285ZM272 217H89V564Q89 580 97 588T122 602Q151 611 192 615T273 619Q400 619 458 566T517 421Q517 359 491 313T410 242T272
217ZM89 256H171V2Q165 0 155 -2T133 -5Q111 -5 100 4T89 32V256Z" />
<glyph unicode="Q" horiz-adv-x="690" d="M330 0L407 24Q470 -12 512 -33T587 -68T658 -96Q660 -103 660 -107T660 -116Q660 -135 649 -146T616 -158Q584 -158 532 -131T415 -58L330 0ZM634 304V304Q634 200 596 130T493 23T344 -13Q262 -13 196 23T92 129T54
304Q54 408 93 478T197 585T344 621Q426 621 491 585T595 479T634 304ZM551 304V304Q551 423 495 487T344 552Q251 552 195 488T138 304Q138 185 194 121T344 56Q439 56 495 120T551 304Z" />
<glyph unicode="R" horiz-adv-x="589" d="M170 298H285Q359 298 401 330T443 425Q443 487 399 519T273 551Q246 551 219 549T170 542V298ZM285 230H89V564Q89 580 97 588T122 602Q151 611 193 615T276 619Q401 619 463 568T525 425Q525 366 498 322T418 254T285
230ZM287 256L347 286Q375 251 405 213T463 139T513 75T547 30Q543 13 530 3T502 -7Q485 -7 474 1T451 26L287 256ZM89 252H171V2Q165 0 155 -2T133 -5Q111 -5 100 4T89 32V252Z" />
<glyph unicode="S" horiz-adv-x="523" d="M257 55V55Q324 55 358 85T393 164Q393 205 367 232T283 275L196 301Q154 314 123 334T76 385T59 457Q59 534 115 577T264 621Q318 621 360 610T427 580T452 542Q452 529 445 519T427 502Q402 522 360 537T267 552Q209
552 175 527T141 457Q141 422 165 400T245 362L306 344Q385 322 430 280T476 164Q476 85 419 36T257 -13Q196 -13 151 0T80 34T54 75Q54 92 64 103T89 120Q112 98 154 77T257 55Z" />
<glyph unicode="T" horiz-adv-x="523" d="M261 539L256 608H489Q492 604 495 595T498 576Q498 560 490 550T467 539H261ZM263 608L268 539H34Q31 544 28 553T25 572Q25 589 33 598T56 608H263ZM221 566H302V2Q297 0 287 -2T265 -5Q243 -5 232 4T221 32V566Z" />
<glyph unicode="U" horiz-adv-x="649" d="M324 -13V-13Q249 -13 196 14T116 92T88 210V292H169V217Q169 137 213 97T324 56Q390 56 434 96T479 217V292H561V210Q561 143 534 93T453 15T324 -13ZM169 251H88V606Q93 608 103 610T126 613Q148 613 158 605T169 576V251ZM561
251H479V606Q484 608 494 610T517 613Q539 613 550 605T561 576V251Z" />
<glyph unicode="V" horiz-adv-x="583" d="M347 8V8Q342 4 328 0T297 -5Q278 -5 263 0T243 17Q227 48 206 100T160 216T111 348T67 479T31 592Q37 600 49 607T76 614Q95 614 104 605T119 578Q163 448 204 325T295 77H299Q328 153 359 241T420 424T473 607Q480 611
488 612T507 614Q525 614 536 605T547 578Q547 563 536 522T507 425T466 307T421 186T379 80T347 8Z" />
<glyph unicode="W" horiz-adv-x="803" d="M359 457V457Q367 461 379 464T404 467Q424 467 437 461T455 441Q480 369 500 308T539 189T577 70H581Q600 160 618 245T653 419T684 607Q698 614 718 614Q737 614 748 606T759 580Q759 561 754 523T739 433T717 324T690
209T662 100T635 11Q626 6 612 2T580 -3Q558 -3 543 4T523 23Q509 58 489 115T448 241T406 377Q387 311 365 240T323 108T286 10Q279 6 265 2T232 -3Q210 -3 196 4T176 23Q166 48 152 98T121 212T90 346T61 480T39 595Q46 602 58 608T84 614Q102 614 112 606T126
577Q139 514 151 455T175 336T202 211T233 70H237Q251 115 264 156T291 240T321 336T359 457Z" />
<glyph unicode="X" horiz-adv-x="591" d="M268 289L254 295L49 574Q54 591 66 602T97 614Q113 614 124 605T147 578L311 343L334 323L544 32Q540 15 529 4T498 -7Q482 -7 472 1T449 27L268 289ZM336 301L314 281L109 -5Q105 -6 100 -6T89 -7Q69 -7 57 3T45 29Q45
42 51 53T68 78L255 323L282 348L472 611Q477 612 482 612T493 613Q514 613 524 603T535 578Q535 568 530 557T516 535Q473 477 428 419T336 301Z" />
<glyph unicode="Y" horiz-adv-x="550" d="M314 218H243Q215 260 185 306T125 401T69 495T21 582Q25 593 36 603T65 614Q84 614 94 604T116 574Q129 551 145 523T180 463T216 400T249 342T277 295H281Q316 353 345 405T401 507T454 607Q460 611 469 612T485 614Q504
614 513 605T523 580Q523 570 508 538T464 457T398 347T314 218ZM238 257H319V2Q314 0 304 -2T282 -5Q260 -5 249 4T238 32V257Z" />
<glyph unicode="Z" horiz-adv-x="557" d="M71 88L451 608H483Q502 592 502 570Q502 556 497 545T481 520L102 0H69Q61 7 56 17T50 38Q50 52 55 63T71 88ZM90 0L93 69H499Q503 64 506 56T509 36Q509 20 501 10T478 0H90ZM464 608L462 539H67Q64 544 61 553T57 572Q57
589 65 598T89 608H464Z" />
<glyph unicode="[" horiz-adv-x="267" d="M70 -11V649H140V-11H70ZM70 2H251Q253 -4 255 -11T257 -27Q257 -43 249 -51T223 -59H110Q91 -59 81 -49T70 -20V2ZM110 701H251Q253 695 255 688T257 672Q257 656 249 648T223 640H70V662Q70 680 80 690T110 701Z" />
<glyph unicode="\" horiz-adv-x="341" d="M110 639L300 -46Q293 -53 281 -58T258 -64Q245 -64 236 -58T223 -38L33 647Q41 655 52 660T75 665Q88 665 97 659T110 639Z" />
<glyph unicode="]" horiz-adv-x="267" d="M197 653V-7H127V653H197ZM197 640H16Q14 646 12 653T10 669Q10 685 19 693T44 701H157Q177 701 187 691T197 662V640ZM157 -59H16Q14 -53 12 -46T10 -30Q10 -14 19 -6T44 2H197V-20Q197 -38 187 -48T157 -59Z" />
<glyph unicode="^" horiz-adv-x="463" d="M194 646V646Q199 650 209 652T230 655Q260 655 267 641Q281 616 300 578T340 497T379 414T409 343Q404 336 394 330T372 324Q356 324 347 331T329 357L232 573H225Q221 564 209 538T181 475T150 402T123 332Q116 328
108 326T88 323Q75 323 65 330T54 353Q54 362 66 391T98 460T137 539T173 608T194 646Z" />
<glyph unicode="_" horiz-adv-x="465" d="M430 -123H6Q4 -117 2 -110T0 -92Q0 -75 9 -67T35 -58H458Q460 -64 462 -72T465 -89Q465 -105 456 -114T430 -123Z" />
<glyph unicode="`" horiz-adv-x="302" d="M153 534L59 634Q58 638 58 641T57 647Q57 663 68 673T95 683Q106 683 114 679T130 666L220 553Q219 537 210 528T187 518Q176 518 169 522T153 534Z" />
<glyph unicode="a" horiz-adv-x="499" d="M240 52V52Q282 52 309 60T349 77V222L225 209Q173 205 148 186T123 131Q123 94 152 73T240 52ZM239 475V475Q326 475 377 436T428 313V76Q428 54 420 43T394 21Q370 8 330 -3T240 -14Q146 -14 95 23T43 130Q43 195 86
229T207 271L349 285V313Q349 363 319 386T238 409Q197 409 160 397T93 370Q85 377 79 386T72 406Q72 432 101 446Q128 460 163 467T239 475Z" />
<glyph unicode="b" horiz-adv-x="549" d="M281 475V475Q343 475 392 449T470 368T499 231Q499 147 470 93T388 13T267 -13Q218 -13 179 -1T114 25Q93 39 85 51T77 84V417H157V84Q172 73 201 63T267 53Q335 53 376 96T418 231Q418 324 376 366T269 409Q229 409
198 394T147 358L132 423Q154 440 191 457T281 475ZM157 401H77V648Q82 650 92 652T115 655Q136 655 146 647T157 619V401Z" />
<glyph unicode="c" horiz-adv-x="478" d="M289 408V408Q221 408 176 362T131 230Q131 145 174 99T289 53Q331 53 359 64T409 91Q420 85 427 76T434 54Q434 26 393 7T289 -13Q220 -13 166 13T80 94T49 230Q49 311 81 365T167 447T287 475Q349 475 389 454T430 406Q430
394 423 385T405 371Q383 386 357 397T289 408Z" />
<glyph unicode="d" horiz-adv-x="547" d="M390 79V415L470 416V76Q470 57 462 46T435 23Q415 10 378 -1T293 -13Q221 -13 166 12T80 90T49 229Q49 316 79 370T162 449T276 475Q315 475 350 464T405 437V363Q386 382 356 395T284 409Q243 409 208 392T152 334T131
227Q131 136 175 95T292 53Q327 53 349 60T390 79ZM470 396L390 395V648Q395 650 405 652T427 655Q449 655 459 647T470 619V396Z" />
<glyph unicode="e" horiz-adv-x="519" d="M104 180L100 243L402 284Q398 339 364 374T270 410Q208 410 168 366T127 238V216Q134 136 179 95T304 53Q346 53 380 67T434 97Q445 90 451 81T458 59Q458 40 437 24T380 -3T300 -13Q223 -13 167 15T80 98T49 234Q49
291 65 335T111 411T182 458T271 475Q332 475 378 449T451 377T478 270Q478 248 468 239T440 227L104 180Z" />
<glyph unicode="f" horiz-adv-x="399" d="M142 371V436H354Q357 432 360 424T363 404Q363 388 355 380T332 371H142ZM156 499V382H77V503Q77 562 98 598T160 652T257 670Q314 670 346 655T379 618Q379 607 375 598T362 581Q344 591 317 597T265 604Q204 604 180
579T156 499ZM77 426H157V2Q152 0 142 -2T120 -5Q99 -5 88 3T77 31V426Z" />
<glyph unicode="g" horiz-adv-x="537" d="M267 14V14Q209 14 160 36T81 110T51 245Q51 321 80 372T162 449T281 475Q327 475 365 464T430 435Q445 425 454 413T464 382V73H384V381Q367 392 342 400T281 409Q214 409 173 368T132 246Q132 156 173 118T276 80Q320
80 347 95T390 128L394 57Q379 41 347 28T267 14ZM384 -15V90H464V-20Q464 -86 436 -126T358 -184T246 -202Q196 -202 160 -191T111 -173Q81 -156 81 -130Q81 -116 87 -107T104 -92Q125 -108 163 -121T246 -135Q313 -135 348 -106T384 -15Z" />
<glyph unicode="h" horiz-adv-x="551" d="M476 199H396V291Q396 351 363 380T276 409Q237 409 204 394T147 358L132 423Q156 440 195 457T287 475Q370 475 423 430T476 293V199ZM77 264H157V2Q152 0 142 -2T120 -5Q99 -5 88 3T77 31V264ZM396 263L476 262V2Q471
0 461 -2T439 -5Q417 -5 407 3T396 31V263ZM157 225H77V648Q82 650 92 652T115 655Q136 655 146 647T157 619V225Z" />
<glyph unicode="i" horiz-adv-x="241" d="M68 608V608Q68 629 83 643T120 658Q143 658 157 644T171 608Q171 587 157 573T120 558Q98 558 83 572T68 608ZM80 264H160V2Q155 0 145 -2T123 -5Q102 -5 91 3T80 31V264ZM160 225H80V460Q85 462 95 464T118 467Q139
467 149 459T160 430V225Z" />
<glyph unicode="j" horiz-adv-x="243" d="M6 -146V-146Q30 -135 47 -123T73 -90T83 -30V303H163V-45Q163 -103 143 -135T97 -181T52 -195Q27 -195 18 -181T6 -146ZM71 608V608Q71 629 86 643T123 658Q146 658 160 644T174 608Q174 587 160 573T123 558Q101 558
86 572T71 608ZM163 214L83 225V460Q88 462 98 464T121 467Q142 467 152 459T163 430V214Z" />
<glyph unicode="k" horiz-adv-x="487" d="M198 211L148 250L376 471Q400 470 413 460T427 432Q427 418 419 407T394 383L198 211ZM146 237L202 270L456 42Q454 20 443 7T412 -6Q397 -6 385 2T359 23L146 237ZM77 268L157 256V2Q152 0 142 -2T120 -5Q99 -5 88 3T77
31V268ZM157 217L77 229V648Q82 650 92 652T115 655Q136 655 146 647T157 619V217Z" />
<glyph unicode="l" horiz-adv-x="246" d="M83 264L163 252V2Q158 0 148 -2T126 -5Q105 -5 94 3T83 31V264ZM163 214L83 225V648Q88 650 98 652T120 655Q142 655 152 647T163 619V214Z" />
<glyph unicode="m" horiz-adv-x="816" d="M448 320V205H368V314Q368 363 340 386T264 409Q233 409 204 399T155 376V205H75V372Q75 392 83 406T113 433Q140 450 181 462T265 475Q316 475 355 460T413 417Q419 411 423 406T431 393Q438 381 443 362T448 320ZM741
318V205H661V314Q661 363 633 386T558 409Q523 409 491 395T432 353L400 411Q426 437 468 456T564 475Q618 475 657 458T719 406T741 318ZM75 258H155V2Q150 0 140 -2T118 -5Q97 -5 86 3T75 31V258ZM368 258H448V2Q443 0 433 -2T411 -5Q389 -5 379 3T368 31V258ZM661
258H741V2Q736 0 726 -2T704 -5Q682 -5 672 3T661 31V258Z" />
<glyph unicode="n" horiz-adv-x="550" d="M475 305V203H395V301Q395 357 364 383T279 409Q239 409 208 399T155 376V203H75V372Q75 393 83 406T113 433Q139 448 182 461T279 475Q370 475 422 434T475 305ZM75 258H155V2Q150 0 140 -2T118 -5Q97 -5 86 3T75 31V258ZM395
258H475V2Q470 0 460 -2T438 -5Q416 -5 406 3T395 31V258Z" />
<glyph unicode="o" horiz-adv-x="553" d="M504 231V231Q504 157 476 102T397 17T277 -13Q208 -13 157 17T77 102T49 231Q49 306 77 360T157 445T277 475Q345 475 396 445T475 361T504 231ZM277 409V409Q210 409 171 362T131 231Q131 147 169 100T277 53Q345 53
383 100T422 231Q422 314 384 361T277 409Z" />
<glyph unicode="p" horiz-adv-x="546" d="M272 -13V-13Q338 -13 389 14T468 95T497 232Q497 317 466 370T381 449T261 475Q213 475 176 463T111 435Q89 422 82 410T75 378V48H155V380Q175 391 200 400T261 409Q302 409 337 392T394 337T416 232Q416 138 374 96T261
53Q218 53 188 67T137 101V27Q154 12 191 0T272 -13ZM155 75L75 77V-150Q75 -169 86 -178T118 -187Q130 -187 140 -185T155 -180V75Z" />
<glyph unicode="q" horiz-adv-x="546" d="M471 63L391 64V381Q374 392 349 400T288 409Q245 409 210 391T153 333T131 228Q131 136 174 95T287 53Q323 53 353 65T400 95V22Q380 8 350 -2T275 -13Q210 -13 159 12T78 90T49 228Q49 312 80 367T165 448T286 475Q334
475 373 463T438 435Q453 426 462 413T471 382V63ZM391 78L471 80V-183Q466 -185 456 -187T434 -190Q412 -190 402 -181T391 -153V78Z" />
<glyph unicode="r" horiz-adv-x="382" d="M155 376V218H75V370Q75 393 83 406T112 433Q138 450 183 462T283 475Q363 475 363 435Q363 425 360 417T352 402Q342 404 326 406T294 408Q248 408 213 399T155 376ZM75 264L155 252V2Q150 0 140 -2T118 -5Q97 -5 86
3T75 31V264Z" />
<glyph unicode="s" horiz-adv-x="447" d="M401 123V123Q401 59 354 23T218 -13Q142 -13 94 10T46 62Q46 74 52 85T72 104Q99 85 135 69T217 53Q321 53 321 123Q321 152 304 170T252 197L169 219Q108 234 80 265T52 344Q52 397 95 436T226 475Q273 475 308 466T362
441T382 407Q382 394 376 384T358 369Q346 377 328 386T284 402T229 409Q185 409 158 392T131 344Q131 322 146 306T196 281L265 264Q333 248 367 214T401 123Z" />
<glyph unicode="t" horiz-adv-x="372" d="M76 264H156V126Q156 86 179 70T242 53Q259 53 280 59T315 73Q321 67 326 58T331 37Q331 15 305 1T233 -13Q163 -13 120 18T76 121V264ZM117 386V452H320Q323 448 326 439T329 420Q329 404 321 395T299 386H117ZM156 234H76V596Q81
598 91 600T114 603Q135 603 145 595T156 567V234Z" />
<glyph unicode="u" horiz-adv-x="550" d="M75 169V260H155V173Q155 109 189 81T283 53Q323 53 351 61T395 79V260H475V82Q475 61 470 49T443 24Q421 11 380 -1T282 -13Q216 -13 170 6T99 66T75 169ZM475 208H395V460Q400 462 410 464T432 467Q454 467 464 459T475
430V208ZM155 208H75V460Q80 462 90 464T113 467Q134 467 144 459T155 430V208Z" />
<glyph unicode="v" horiz-adv-x="495" d="M421 471V471Q438 471 448 462T459 436Q459 423 448 387T419 301T380 197T336 92T294 4Q289 0 277 -3T250 -6Q233 -6 220 -1T202 15Q191 35 174 73T136 161T96 262T58 363T30 449Q37 459 49 465T73 471Q91 471 101 462T118
432L180 253Q188 230 201 196T227 128T248 71H252Q292 172 327 270T387 463Q400 471 421 471Z" />
<glyph unicode="w" horiz-adv-x="729" d="M366 344V344Q348 281 328 218T288 100T253 5Q245 0 235 -3T208 -6Q192 -6 179 -1T160 17Q150 37 138 75T112 162T84 263T59 365T39 452Q46 459 56 465T82 471Q101 471 110 461T124 427Q133 385 144 332T168 227T191 134T207
72H211Q219 96 236 150T276 275T324 417Q332 422 343 424T367 427Q385 427 397 421T413 401Q437 332 458 266T495 148T518 71H523Q546 160 573 262T617 462Q631 471 651 471Q668 471 678 463T688 438Q688 427 682 396T664 323T640 234T612 142T586 61T564 5Q559
1 548 -2T521 -6Q480 -6 473 13Q459 49 441 102T404 218T366 344Z" />
<glyph unicode="x" horiz-adv-x="482" d="M214 261L229 268Q270 321 306 367T380 468Q384 469 386 469T391 469Q412 469 424 460T436 434Q436 423 432 413T417 390Q383 348 348 305T278 221L252 199Q215 150 176 98T101 -5Q100 -5 95 -5T87 -5Q64 -5 53 5T41 30Q41
38 44 47T61 72Q97 120 137 166T214 261ZM263 259L281 247Q322 193 363 141T446 35Q444 16 433 5T404 -6Q388 -6 377 2T352 29Q322 71 289 118T225 206L202 227Q158 280 120 328T42 427Q46 447 57 458T84 469Q101 469 111 461T131 438Q161 398 194 351T263 259Z"
/>
<glyph unicode="y" horiz-adv-x="489" d="M169 103V103Q152 135 128 189T79 311T30 449Q37 459 48 465T73 471Q90 471 101 462T119 432Q149 348 182 265T255 93H259Q280 135 303 198T347 331T382 463Q389 466 397 468T416 471Q433 471 444 463T455 437Q455 421
446 384T422 297T386 192T342 83T294 -14Q248 -99 210 -144T140 -190Q117 -190 105 -178T89 -150Q111 -131 138 -100T191 -32T233 38Q216 43 202 56T169 103Z" />
<glyph unicode="z" horiz-adv-x="469" d="M93 0H61Q54 6 50 15T45 35Q45 47 50 57T63 78L370 462H401Q409 455 413 446T418 426Q418 415 413 405T399 384L93 0ZM390 462V396H60Q57 401 54 410T51 429Q51 446 59 454T81 462H390ZM67 0V65H416Q419 61 422 53T425
33Q425 17 417 9T394 0H67Z" />
<glyph unicode="{" horiz-adv-x="279" d="M119 325V325Q152 308 171 273T190 185V54Q190 18 203 4T246 -11Q248 -17 248 -22T249 -34Q249 -47 241 -55T215 -64Q173 -64 147 -35T121 55V179Q121 232 102 260T44 295Q40 300 39 309T37 325Q37 332 39 341T44 355Q83
361 102 390T121 471V587Q121 647 147 676T215 706Q232 706 240 698T249 676Q249 670 249 665T246 653Q216 653 203 639T190 588V465Q190 412 171 377T119 325Z" />
<glyph unicode="|" horiz-adv-x="250" d="M160 692V-130Q153 -133 145 -135T126 -137Q107 -137 99 -128T90 -98V724Q98 727 105 729T124 731Q143 731 151 722T160 692Z" />
<glyph unicode="}" horiz-adv-x="279" d="M160 325V325Q127 308 108 273T89 185V54Q89 18 76 4T33 -11Q32 -17 31 -22T30 -34Q30 -47 38 -55T64 -64Q106 -64 132 -35T158 55V179Q158 232 177 260T235 295Q239 300 240 309T242 325Q242 332 240 341T235 355Q196
361 177 390T158 471V587Q158 647 132 676T64 706Q47 706 39 698T30 676Q30 670 31 665T33 653Q63 653 76 639T89 588V465Q89 412 108 377T160 325Z" />
<glyph unicode="~" horiz-adv-x="448" d="M312 282V282Q339 282 350 296T370 327Q392 327 407 315T423 283Q423 252 397 233T329 213Q289 213 255 223T192 244T136 254Q109 254 98 240T78 209Q56 209 41 221T25 253Q25 274 37 290T70 314T119 323Q160 323 194
313T257 293T312 282Z" />
<glyph unicode="&#xa0;" horiz-adv-x="300" />
<glyph unicode="&#xa1;" horiz-adv-x="250" d="M89 -174V-174Q89 -152 89 -112T91 -22T93 81T95 183T98 271Q104 276 112 278T130 280Q144 280 152 274T162 256Q163 231 164 188T167 91T168 -18T169 -121T170 -203Q151 -216 127 -216Q89 -216 89 -174ZM184 412V412Q184
389 170 373T129 357Q104 357 89 373T74 412Q74 435 89 451T129 467Q155 467 169 451T184 412Z" />
<glyph unicode="&#xa2;" horiz-adv-x="476" d="M233 28H306V-108Q302 -109 293 -111T274 -113Q255 -113 244 -105T233 -80V28ZM306 422H233V571Q238 573 247 574T266 576Q286 576 296 568T306 543V422ZM289 408V408Q221 408 176 362T131 230Q131 145 174 99T289
53Q331 53 359 64T409 91Q420 85 427 76T434 54Q434 26 393 7T288 -13Q219 -13 165 13T80 94T49 230Q49 311 81 365T167 447T287 475Q349 475 389 454T430 406Q430 394 423 385T404 371Q383 386 357 397T289 408Z" />
<glyph unicode="&#xa3;" horiz-adv-x="504" d="M384 263H85Q74 263 66 270T57 296Q57 306 60 313T65 328H405Q408 321 410 314T413 296Q413 278 405 271T384 263ZM145 219V219Q145 242 142 278T134 352T130 418Q130 490 157 534T231 600T332 621Q397 621 428 601T459
560Q459 552 454 541T436 522Q414 537 392 545T337 553Q273 553 242 517T210 407Q210 381 213 344T220 273T223 217Q223 164 209 127T168 66H461Q465 59 467 52T469 33Q469 17 461 9T440 0H100Q81 0 68 11T54 45Q54 54 55 60Q100 83 122 116T145 219Z" />
<glyph unicode="&#xa4;" horiz-adv-x="525" d="M145 382L206 420L152 485Q142 497 131 508T107 519Q94 519 81 510T60 483L145 382ZM373 298V298Q373 240 343 209T262 178Q212 178 181 209T150 298Q150 355 181 386T262 418Q312 418 342 387T373 298ZM326 423L378
372L430 436Q441 449 447 460T454 485Q454 503 440 513T407 527L326 423ZM447 298V298Q447 357 422 397T355 459T262 480Q211 480 169 459T102 398T77 298Q77 238 102 198T169 136T262 115Q313 115 355 136T422 197T447 298ZM380 210L320 171L373 107Q383 94 394
83T418 72Q432 72 444 81T465 109L380 210ZM202 168L150 219L97 155Q87 143 80 131T73 107Q73 89 87 79T121 64L202 168Z" />
<glyph unicode="&#xa5;" horiz-adv-x="546" d="M345 319L205 323Q174 369 142 418T83 512T37 592Q44 601 55 609T81 618Q98 618 108 609T130 578L273 345H278Q310 395 333 435T379 516T432 610Q441 615 448 616T466 618Q484 618 492 609T501 586Q501 577 488 551T451
486T401 405T345 319ZM234 193H316V1Q311 0 301 -2T279 -5Q257 -5 246 4T234 31V193ZM244 280L264 342H489Q492 335 494 327T497 310Q497 296 490 288T472 280H244ZM291 342L307 280H59Q55 285 52 293T49 312Q49 329 56 335T74 342H291ZM471 148H59Q55 153 52 161T49
180Q49 198 56 204T73 210H487Q490 205 492 196T495 178Q495 164 488 156T471 148Z" />
<glyph unicode="&#xa6;" horiz-adv-x="293" d="M162 642V310Q155 307 147 305T127 303Q108 303 99 312T89 343V675Q97 678 105 680T124 682Q144 682 153 673T162 642ZM162 152V-180Q155 -183 147 -185T127 -187Q108 -187 99 -178T89 -147V185Q97 188 105 190T124
192Q144 192 153 183T162 152Z" />
<glyph unicode="&#xa7;" horiz-adv-x="504" d="M444 85V85Q444 24 394 -10T248 -45Q194 -45 152 -35T85 -7T60 30Q60 44 67 54T85 71Q119 50 159 35T248 20Q304 20 334 36T365 85Q365 112 346 125T282 149L191 169Q137 180 100 209T63 298Q63 345 90 374T154 416L212
386Q182 375 162 354T141 300Q141 272 161 256T215 232L307 212Q369 199 406 171T444 85ZM444 283V283Q444 249 429 224T391 183T343 157L292 195Q324 206 344 227T365 282Q365 311 345 326T281 352L191 370Q157 378 129 391T84 429T67 494Q67 555 114 588T245
621Q294 621 332 612T392 589T414 555Q414 542 408 533T393 518Q375 527 353 536T304 550T247 556Q200 556 173 541T146 494Q146 466 164 453T216 433L306 415Q368 399 406 371T444 283Z" />
<glyph unicode="&#xa8;" horiz-adv-x="374" d="M154 606V606Q154 587 140 573T104 558Q83 558 70 572T56 606Q56 626 69 640T104 654Q126 654 140 640T154 606ZM327 606V606Q327 587 313 573T277 558Q257 558 243 572T228 606Q228 626 242 640T277 654Q298 654
312 640T327 606Z" />
<glyph unicode="&#xa9;" horiz-adv-x="713" d="M54 298V298Q54 385 92 455T197 567T355 609Q445 609 513 568T620 456T659 298Q659 214 621 146T514 38T355 -2Q265 -2 198 38T92 146T54 298ZM355 555V555Q281 555 227 522T145 432T116 298Q116 226 144 171T227
84T355 52Q430 52 483 83T565 170T594 298Q594 374 566 431T484 522T355 555ZM377 420V420Q335 420 302 393T269 303Q269 246 300 217T380 187Q408 187 424 194T453 209Q473 198 473 177Q473 161 449 145T375 128Q326 128 286 148T222 207T198 303Q198 365 223
404T288 461T367 480Q411 480 440 465T469 425Q469 418 463 410T448 398Q434 406 417 413T377 420Z" />
<glyph unicode="&#xaa;" horiz-adv-x="352" d="M174 358V358Q195 358 213 362T240 372V452L172 445Q136 441 120 432T104 404Q104 382 121 370T174 358ZM171 620V620Q227 620 264 597T301 510V355Q301 346 295 339T277 326Q233 305 174 305Q113 305 78 328T42
400Q42 444 72 467T159 495L240 503V510Q240 543 223 555T167 567Q142 567 116 559T73 540Q66 544 61 552T55 570Q55 581 60 587T76 600Q91 608 117 614T171 620Z" />
<glyph unicode="&#xab;" horiz-adv-x="469" d="M101 225L239 82Q239 67 230 55T201 42Q188 42 177 50T156 69L45 192Q41 199 38 207T35 226Q35 242 39 250T50 265L195 416Q215 412 224 403T234 380Q234 368 228 359T207 334L101 225ZM292 225L429 82Q429 67 420
55T392 42Q379 42 368 50T347 69L235 192Q231 199 228 207T225 226Q225 242 229 250T240 265L385 416Q405 412 414 403T424 380Q424 368 418 359T397 334L292 225Z" />
<glyph unicode="&#xac;" horiz-adv-x="542" d="M86 383H452Q469 383 479 374T490 346V182Q483 179 474 177T454 175Q434 175 425 184T415 215V318H58Q55 324 53 332T51 349Q51 366 60 374T86 383Z" />
<glyph unicode="&#xad;" horiz-adv-x="389" d="M300 228H61Q58 235 56 242T54 260Q54 277 63 285T89 294H328Q330 288 332 280T335 263Q335 247 326 238T300 228Z" />
<glyph unicode="&#xae;" horiz-adv-x="619" d="M59 439V439Q59 507 90 563T177 653T309 687Q383 687 439 653T528 563T560 439Q560 372 528 316T440 226T309 192Q234 192 178 225T90 315T59 439ZM113 439V439Q113 382 137 337T206 266T309 240Q368 240 412 266T481
337T506 439Q506 496 482 541T413 613T309 639Q250 639 206 613T138 542T113 439ZM305 413H279V332Q275 331 268 331T253 330Q241 330 234 334T227 353V538Q227 552 250 556Q264 559 275 560T301 561Q349 561 376 542T403 486Q403 461 389 444T352 419L410 349Q408
341 400 335T381 329Q371 329 364 334T349 349L305 413ZM279 453H311Q349 453 349 488Q349 503 337 511T305 520Q298 520 292 520T279 518V453Z" />
<glyph unicode="&#xaf;" horiz-adv-x="328" d="M267 570H40Q36 576 33 584T29 602Q29 619 38 627T61 635H289Q293 629 296 621T299 603Q299 586 291 578T267 570Z" />
<glyph unicode="&#xb0;" horiz-adv-x="360" d="M320 565V565Q320 525 301 496T251 450T181 434Q119 434 80 471T40 565Q40 605 59 634T111 679T180 695Q218 695 249 679T300 634T320 565ZM180 637V637Q153 637 131 619T108 565Q108 529 130 510T180 491Q209 491
230 510T252 565Q252 600 230 618T180 637Z" />
<glyph unicode="&#xb1;" horiz-adv-x="548" d="M446 318H72Q70 324 68 332T66 349Q66 366 75 374T101 383H475Q477 377 479 370T481 352Q481 336 472 327T446 318ZM446 0H72Q70 6 68 14T66 31Q66 48 75 56T101 65H475Q477 59 479 52T481 34Q481 18 472 9T446 0ZM312
514V150Q305 148 297 146T278 143Q258 143 249 152T239 184V547Q247 550 255 552T275 554Q294 554 303 545T312 514Z" />
<glyph unicode="&#xb2;" horiz-adv-x="276" d="M123 697V697Q176 697 206 671T236 598Q236 567 220 539T160 476L90 420H238Q241 415 242 409T244 395Q244 385 239 378T218 371H36Q30 377 27 385T23 403Q23 417 27 425T39 440L126 517Q150 538 164 558T178 598Q178
623 161 635T120 647Q101 647 83 640T51 622Q44 626 39 632T34 650Q34 670 61 683T123 697Z" />
<glyph unicode="&#xb3;" horiz-adv-x="272" d="M77 559H134Q154 559 167 570T180 600Q180 622 163 634T115 647Q93 647 74 640T43 625Q36 630 32 637T27 654Q27 673 55 685T121 697Q177 697 207 672T238 606Q238 582 225 563T189 536Q213 528 227 507T242 459Q242
409 207 386T120 363Q77 363 47 377T17 412Q17 423 22 431T37 443Q49 433 68 423T118 413Q147 413 165 426T184 464Q184 484 171 497T134 510H77Q73 515 71 521T69 535Q69 551 77 559Z" />
<glyph unicode="&#xb4;" horiz-adv-x="298" d="M90 578L187 687Q209 686 222 675T236 649Q236 636 230 627T210 605L119 516Q100 516 88 526T75 550Q75 559 80 565T90 578Z" />
<glyph unicode="&#xb5;" horiz-adv-x="552" d="M77 223H157L147 65Q151 37 154 -13T157 -115V-184Q153 -185 143 -187T121 -190Q99 -190 88 -181T77 -154V223ZM119 140V259L157 260V173Q157 109 192 81T285 53Q325 53 353 61T397 79V260H477V82Q477 61 472 49T445
24Q424 12 386 0T294 -13Q246 -13 206 1T143 48T119 140ZM477 208H397V460Q402 462 412 464T434 467Q455 467 466 459T477 430V208ZM157 208H77V460Q82 462 92 464T114 467Q136 467 146 459T157 430V208Z" />
<glyph unicode="&#xb6;" horiz-adv-x="441" d="M213 613H328Q348 613 359 606T371 575V-69Q367 -70 357 -72T335 -75Q314 -75 303 -67T291 -38V544H225V276Q225 264 212 256T170 248Q133 248 97 267T38 325T15 426Q15 490 43 531T116 592T213 613Z" />
<glyph unicode="&#xb7;" horiz-adv-x="141" d="M16 252V252Q16 276 30 292T71 308Q97 308 111 292T125 252Q125 229 111 213T71 197Q45 197 31 213T16 252Z" />
<glyph unicode="&#xb8;" horiz-adv-x="195" d="M61 2L111 17Q139 -2 151 -28T163 -85Q163 -133 133 -161T55 -189Q30 -189 17 -180T3 -153Q3 -139 9 -129H24Q60 -129 76 -114T93 -72Q93 -55 86 -35T61 2Z" />
<glyph unicode="&#xb9;" horiz-adv-x="211" d="M100 395V628L39 599Q31 603 24 611T16 630Q16 640 22 647T40 659L114 692H126Q142 692 149 684T157 659V373Q151 370 144 369T130 367Q116 367 108 373T100 395Z" />
<glyph unicode="&#xba;" horiz-adv-x="378" d="M333 462V462Q333 386 294 346T189 305Q125 305 85 345T44 463Q44 540 85 580T189 620Q254 620 293 580T333 462ZM189 566V566Q152 566 130 539T107 463Q107 414 129 387T189 360Q226 360 248 386T270 462Q270 511
249 538T189 566Z" />
<glyph unicode="&#xbb;" horiz-adv-x="469" d="M367 233L230 376Q230 391 239 403T267 416Q281 416 292 408T312 389L424 266Q429 259 431 251T434 232Q434 216 430 208T419 193L273 42Q254 47 245 56T235 78Q235 90 241 99T262 124L367 233ZM177 233L40 376Q40
391 49 403T77 416Q91 416 102 408T122 389L234 266Q239 259 241 251T244 232Q244 216 240 208T228 193L83 42Q64 47 55 56T45 78Q45 90 51 99T72 124L177 233Z" />
<glyph unicode="&#xbc;" horiz-adv-x="602" d="M92 315V548L31 519Q23 523 16 531T8 550Q8 560 14 567T32 579L106 612H118Q134 612 141 604T149 579V293Q143 290 136 289T122 287Q108 287 100 293T92 315ZM537 290V121H585Q587 117 588 112T590 99Q590 86 583
80T566 73H338Q330 77 325 85T319 104Q319 112 321 119T329 133L465 316Q472 318 480 319T497 321Q514 321 525 313T537 290ZM483 121V187Q483 202 483 222T485 260L388 121H483ZM481 24V94H537V2Q531 -1 525 -2T510 -4Q496 -4 489 2T481 24ZM89 63L456 609Q475
608 485 601T495 580Q495 570 492 562T480 542L113 -5Q94 -4 84 3T73 24Q73 34 77 42T89 63Z" />
<glyph unicode="&#xbd;" horiz-adv-x="621" d="M92 315V548L31 519Q23 523 16 531T8 550Q8 560 14 567T32 579L106 612H118Q134 612 141 604T149 579V293Q143 290 136 289T122 287Q108 287 100 293T92 315ZM473 326V326Q526 326 556 300T586 227Q586 196 570 168T510
105L440 49H588Q591 44 592 38T594 24Q594 14 589 7T568 0H386Q380 6 377 14T373 32Q373 46 377 54T389 69L476 146Q500 167 514 187T528 227Q528 252 511 264T470 276Q451 276 433 269T401 251Q394 255 389 261T384 279Q384 299 411 312T473 326ZM89 63L456 609Q475
608 485 601T495 580Q495 570 492 562T480 542L113 -5Q94 -4 84 3T73 24Q73 34 77 42T89 63Z" />
<glyph unicode="&#xbe;" horiz-adv-x="647" d="M77 479H134Q154 479 167 490T180 520Q180 542 163 554T115 567Q93 567 74 560T43 545Q36 550 32 557T27 574Q27 593 55 605T121 617Q177 617 207 592T238 526Q238 502 225 483T189 456Q213 448 227 427T242 379Q242
329 207 306T120 283Q77 283 47 297T17 332Q17 343 22 351T37 363Q49 353 68 343T118 333Q147 333 165 346T184 384Q184 404 171 417T134 430H77Q73 435 71 441T69 455Q69 471 77 479ZM583 290V121H631Q633 117 634 112T636 99Q636 86 629 80T612 73H384Q376 77
371 85T365 104Q365 112 367 119T375 133L511 316Q518 318 526 319T543 321Q560 321 571 313T583 290ZM529 121V187Q529 202 529 222T531 260L434 121H529ZM527 24V94H583V2Q577 -1 571 -2T556 -4Q542 -4 535 2T527 24ZM139 63L506 609Q525 608 535 601T545 580Q545
570 542 562T530 542L163 -5Q144 -4 134 3T123 24Q123 34 127 42T139 63Z" />
<glyph unicode="&#xbf;" horiz-adv-x="459" d="M248 219L345 249Q353 240 358 230T364 207Q364 194 357 185T329 170L260 149Q190 127 155 90T120 -11Q120 -67 158 -107T274 -147Q311 -147 347 -134T410 -99Q421 -107 426 -117T432 -141Q432 -160 412 -177T356
-205T272 -216Q201 -216 149 -190T69 -117T41 -12Q41 50 63 93T132 167T248 219ZM355 412V412Q355 389 341 373T300 357Q275 357 260 373T245 412Q245 435 260 451T300 467Q326 467 340 451T355 412Z" />
<glyph unicode="&#xc0;" horiz-adv-x="592" d="M298 545H294Q279 503 259 445T217 326T176 211L171 196Q165 178 156 151T137 95T118 40T104 -2Q97 -5 90 -6T71 -8Q55 -8 43 0T30 28Q30 37 33 46T40 67Q52 101 69 150T108 257T152 376T197 495T238 601Q246 605
262 609T295 613Q315 613 333 607T357 587Q381 529 408 456T464 303T517 148T563 12Q556 3 545 -2T519 -8Q500 -8 490 0T473 29L418 192L410 220Q390 281 369 343T329 458T298 545ZM132 162L158 229H437L453 162H132ZM260 680L172 768Q171 772 171 775T171 780Q171
796 180 806T205 817Q228 817 241 799L325 698Q324 682 316 673T293 664Q283 664 276 668T260 680Z" />
<glyph unicode="&#xc1;" horiz-adv-x="592" d="M298 545H294Q279 503 259 445T217 326T176 211L171 196Q165 178 156 151T137 95T118 40T104 -2Q97 -5 90 -6T71 -8Q55 -8 43 0T30 28Q30 37 33 46T40 67Q52 101 69 150T108 257T152 376T197 495T238 601Q246 605
262 609T295 613Q315 613 333 607T357 587Q381 529 408 456T464 303T517 148T563 12Q556 3 545 -2T519 -8Q500 -8 490 0T473 29L418 192L410 220Q390 281 369 343T329 458T298 545ZM132 162L158 229H437L453 162H132ZM285 724L376 820Q398 819 409 809T421 784Q421
770 416 761T396 740L311 664Q292 666 282 674T271 694Q271 704 275 711T285 724Z" />
<glyph unicode="&#xc2;" horiz-adv-x="592" d="M298 751V751Q282 734 259 710T206 659Q189 661 178 669T167 692Q167 704 174 713T193 733L252 792Q274 814 299 814Q315 814 326 808T349 788L431 695Q431 680 422 671T397 661Q386 661 376 667T352 689L298 751ZM298
545H294Q279 503 259 445T217 326T176 211L171 196Q165 178 156 151T137 95T118 40T104 -2Q97 -5 90 -6T71 -8Q55 -8 43 0T30 28Q30 37 33 46T40 67Q52 101 69 150T108 257T152 376T197 495T238 601Q246 605 262 609T295 613Q315 613 333 607T357 587Q381 529 408
456T464 303T517 148T563 12Q556 3 545 -2T519 -8Q500 -8 490 0T473 29L418 192L410 220Q390 281 369 343T329 458T298 545ZM132 162L158 229H437L453 162H132Z" />
<glyph unicode="&#xc3;" horiz-adv-x="592" d="M298 545H294Q279 503 259 445T217 326T176 211L171 196Q165 178 156 151T137 95T118 40T104 -2Q97 -5 90 -6T71 -8Q55 -8 43 0T30 28Q30 37 33 46T40 67Q52 101 69 150T108 257T152 376T197 495T238 601Q246 605
262 609T295 613Q315 613 333 607T357 587Q381 529 408 456T464 303T517 148T563 12Q556 3 545 -2T519 -8Q500 -8 490 0T473 29L418 192L410 220Q390 281 369 343T329 458T298 545ZM132 162L158 229H437L453 162H132ZM230 786V786Q258 786 280 778T322 761T359
752Q377 752 385 763T398 790H404Q422 790 436 782T450 752Q450 724 430 707T377 690Q349 690 325 699T281 716T245 725Q227 725 219 714T207 686H201Q183 686 169 695T155 724Q155 744 165 757T193 778T230 786Z" />
<glyph unicode="&#xc4;" horiz-adv-x="592" d="M298 545H294Q279 503 259 445T217 326T176 211L171 196Q165 178 156 151T137 95T118 40T104 -2Q97 -5 90 -6T71 -8Q55 -8 43 0T30 28Q30 37 33 46T40 67Q52 101 69 150T108 257T152 376T197 495T238 601Q246 605
262 609T295 613Q315 613 333 607T357 587Q381 529 408 456T464 303T517 148T563 12Q556 3 545 -2T519 -8Q500 -8 490 0T473 29L418 192L410 220Q390 281 369 343T329 458T298 545ZM132 162L158 229H437L453 162H132ZM259 738V738Q259 719 245 705T209 690Q188
690 175 704T161 738Q161 758 174 772T209 786Q231 786 245 772T259 738ZM432 738V738Q432 719 418 705T382 690Q362 690 348 704T333 738Q333 758 347 772T382 786Q403 786 417 772T432 738Z" />
<glyph unicode="&#xc5;" horiz-adv-x="592" d="M298 545H294Q279 503 259 445T217 326T176 211L171 196Q165 178 156 151T137 95T118 40T104 -2Q97 -5 90 -6T71 -8Q55 -8 43 0T30 28Q30 37 33 46T40 67Q52 101 69 150T108 257T152 376T197 495T238 601Q246 605
262 609T295 613Q315 613 333 607T357 587Q381 529 408 456T464 303T517 148T563 12Q556 3 545 -2T519 -8Q500 -8 490 0T473 29L418 192L410 220Q390 281 369 343T329 458T298 545ZM132 162L158 229H437L453 162H132ZM191 744V744Q191 783 219 809T297 835Q347
835 375 809T403 744Q403 706 375 680T297 654Q248 654 220 680T191 744ZM251 744V744Q251 725 264 714T297 703Q317 703 330 714T344 744Q344 764 331 775T297 786Q277 786 264 775T251 744Z" />
<glyph unicode="&#xc6;" horiz-adv-x="844" d="M457 541H398L222 214L199 172L108 -3Q101 -5 96 -6T79 -8Q59 -8 49 0T39 24Q39 33 43 43T54 67Q65 88 88 131T143 233T210 356T281 484T346 601Q354 606 367 609T397 613Q411 613 423 610T444 602T456 588L457 541ZM138
162L165 229H433L449 162H138ZM404 549H484V8Q480 7 469 4T446 0Q427 0 416 12T404 44V549ZM446 278V346H747Q751 342 754 333T757 314Q757 298 749 288T726 278H446ZM446 0V68H783Q786 64 789 56T793 36Q793 20 785 10T762 0H446ZM435 539V571Q436 588 448 598T483
608H778Q782 604 785 595T788 576Q788 560 780 550T757 539H435Z" />
<glyph unicode="&#xc7;" horiz-adv-x="588" d="M533 541V541Q533 528 525 518T505 502Q480 520 445 536T353 552Q292 552 244 524T167 441T138 303Q138 180 198 118T356 56Q408 56 447 71T511 105Q521 101 530 91T539 66Q539 56 534 47T515 28Q492 12 452 0T350
-13Q267 -13 200 22T93 128T54 303Q54 408 94 479T201 585T347 621Q402 621 444 609T509 579T533 541ZM307 2L357 17Q385 -2 397 -28T409 -85Q409 -133 379 -161T301 -189Q276 -189 263 -180T249 -153Q249 -139 255 -129H270Q306 -129 322 -114T339 -72Q339 -55
332 -35T307 2Z" />
<glyph unicode="&#xc8;" horiz-adv-x="542" d="M101 366H182V8Q178 7 167 4T145 0Q125 0 113 12T101 44V366ZM182 248L101 249V564Q101 584 113 596T145 608Q156 608 167 605T182 600V248ZM145 278V346H446Q449 342 452 333T455 314Q455 298 447 288T424 278H145ZM145
0V68H482Q485 64 488 56T491 36Q491 20 483 10T460 0H145ZM145 539V608H477Q480 604 483 595T486 576Q486 560 478 550T455 539H145ZM279 680L191 768Q190 772 190 775T190 780Q190 796 199 806T224 817Q247 817 260 799L344 698Q343 682 335 673T312 664Q302 664
295 668T279 680Z" />
<glyph unicode="&#xc9;" horiz-adv-x="542" d="M101 366H182V8Q178 7 167 4T145 0Q125 0 113 12T101 44V366ZM182 248L101 249V564Q101 584 113 596T145 608Q156 608 167 605T182 600V248ZM145 278V346H446Q449 342 452 333T455 314Q455 298 447 288T424 278H145ZM145
0V68H482Q485 64 488 56T491 36Q491 20 483 10T460 0H145ZM145 539V608H477Q480 604 483 595T486 576Q486 560 478 550T455 539H145ZM279 724L370 820Q392 819 403 809T415 784Q415 770 410 761T390 740L305 664Q286 666 276 674T265 694Q265 704 269 711T279 724Z"
/>
<glyph unicode="&#xca;" horiz-adv-x="542" d="M101 366H182V8Q178 7 167 4T145 0Q125 0 113 12T101 44V366ZM182 248L101 249V564Q101 584 113 596T145 608Q156 608 167 605T182 600V248ZM145 278V346H446Q449 342 452 333T455 314Q455 298 447 288T424 278H145ZM145
0V68H482Q485 64 488 56T491 36Q491 20 483 10T460 0H145ZM145 539V608H477Q480 604 483 595T486 576Q486 560 478 550T455 539H145ZM296 751V751Q280 734 257 710T204 659Q187 661 176 669T165 692Q165 704 172 713T191 733L250 792Q272 814 297 814Q313 814 324
808T347 788L429 695Q429 680 420 671T395 661Q384 661 374 667T350 689L296 751Z" />
<glyph unicode="&#xcb;" horiz-adv-x="542" d="M101 366H182V8Q178 7 167 4T145 0Q125 0 113 12T101 44V366ZM182 248L101 249V564Q101 584 113 596T145 608Q156 608 167 605T182 600V248ZM145 278V346H446Q449 342 452 333T455 314Q455 298 447 288T424 278H145ZM145
0V68H482Q485 64 488 56T491 36Q491 20 483 10T460 0H145ZM145 539V608H477Q480 604 483 595T486 576Q486 560 478 550T455 539H145ZM264 729V729Q264 710 250 696T214 681Q193 681 180 695T166 729Q166 749 179 763T214 777Q236 777 250 763T264 729ZM437 729V729Q437
710 423 696T387 681Q367 681 353 695T338 729Q338 749 352 763T387 777Q408 777 422 763T437 729Z" />
<glyph unicode="&#xcc;" horiz-adv-x="262" d="M90 363H171V2Q166 0 156 -2T134 -5Q112 -5 101 4T90 32V363ZM171 296H90V606Q95 608 105 610T128 613Q150 613 160 605T171 576V296ZM348 680L260 768Q259 772 259 775T259 780Q259 796 268 806T293 817Q316 817
329 799L413 698Q412 682 404 673T381 664Q371 664 364 668T348 680Z" />
<glyph unicode="&#xcd;" horiz-adv-x="262" d="M90 363H171V2Q166 0 156 -2T134 -5Q112 -5 101 4T90 32V363ZM171 296H90V606Q95 608 105 610T128 613Q150 613 160 605T171 576V296ZM113 724L204 820Q226 819 237 809T249 784Q249 770 244 761T224 740L139 664Q120
666 110 674T99 694Q99 704 103 711T113 724Z" />
<glyph unicode="&#xce;" horiz-adv-x="262" d="M90 363H171V2Q166 0 156 -2T134 -5Q112 -5 101 4T90 32V363ZM171 296H90V606Q95 608 105 610T128 613Q150 613 160 605T171 576V296ZM388 751V751Q372 734 349 710T296 659Q279 661 268 669T257 692Q257 704 264
713T283 733L342 792Q364 814 389 814Q405 814 416 808T439 788L521 695Q521 680 512 671T487 661Q476 661 466 667T442 689L388 751Z" />
<glyph unicode="&#xcf;" horiz-adv-x="262" d="M90 363H171V2Q166 0 156 -2T134 -5Q112 -5 101 4T90 32V363ZM171 296H90V606Q95 608 105 610T128 613Q150 613 160 605T171 576V296ZM350 729V729Q350 710 336 696T300 681Q279 681 266 695T252 729Q252 749 265
763T300 777Q322 777 336 763T350 729ZM523 729V729Q523 710 509 696T473 681Q453 681 439 695T424 729Q424 749 438 763T473 777Q494 777 508 763T523 729Z" />
<glyph unicode="&#xd0;" horiz-adv-x="682" d="M150 338V270H331Q345 270 353 280T362 306Q362 317 359 325T353 338H150ZM213 270V338H41Q27 338 19 329T10 302Q10 292 13 284T20 270H213ZM544 311V311Q544 186 484 122T307 57Q278 57 251 59T199 67V543Q219
547 243 549T298 551Q366 551 421 527T510 450T544 311ZM627 311V311Q627 414 586 482T471 584T299 619Q260 619 221 616T151 603Q135 598 127 590T118 565V51Q118 18 160 5Q196 -6 236 -8T308 -11Q405 -11 476 24T587 130T627 311Z" />
<glyph unicode="&#xd1;" horiz-adv-x="660" d="M89 539L157 545Q161 514 164 472T168 386T170 301V2Q165 0 155 -2T133 -5Q111 -5 100 3T89 31V539ZM571 69L502 63Q492 147 491 234T489 404V606Q495 608 505 610T527 613Q549 613 560 605T571 577V69ZM571 99V103V11Q562
4 548 -1T517 -6Q493 -6 476 3T445 38L255 358Q240 385 222 417T188 479T163 528L89 509V596Q97 604 111 609T143 614Q167 614 184 605T215 570L406 250Q422 223 439 191T472 129T496 80L571 99ZM250 786V786Q278 786 300 778T342 761T379 752Q397 752 405 763T418
790H424Q442 790 456 782T470 752Q470 724 450 707T397 690Q369 690 345 699T301 716T265 725Q247 725 239 714T227 686H221Q203 686 189 695T175 724Q175 744 185 757T213 778T250 786Z" />
<glyph unicode="&#xd2;" horiz-adv-x="689" d="M634 304V304Q634 200 596 130T493 23T344 -13Q262 -13 196 23T92 129T54 304Q54 408 93 478T197 585T344 621Q426 621 491 585T595 479T634 304ZM551 304V304Q551 423 495 487T344 552Q251 552 195 488T138 304Q138
185 194 121T344 56Q439 56 495 120T551 304ZM311 680L223 768Q222 772 222 775T222 780Q222 796 231 806T256 817Q279 817 292 799L376 698Q375 682 367 673T344 664Q334 664 327 668T311 680Z" />
<glyph unicode="&#xd3;" horiz-adv-x="689" d="M634 304V304Q634 200 596 130T493 23T344 -13Q262 -13 196 23T92 129T54 304Q54 408 93 478T197 585T344 621Q426 621 491 585T595 479T634 304ZM551 304V304Q551 423 495 487T344 552Q251 552 195 488T138 304Q138
185 194 121T344 56Q439 56 495 120T551 304ZM331 724L422 820Q444 819 455 809T467 784Q467 770 462 761T442 740L357 664Q338 666 328 674T317 694Q317 704 321 711T331 724Z" />
<glyph unicode="&#xd4;" horiz-adv-x="689" d="M634 304V304Q634 200 596 130T493 23T344 -13Q262 -13 196 23T92 129T54 304Q54 408 93 478T197 585T344 621Q426 621 491 585T595 479T634 304ZM551 304V304Q551 423 495 487T344 552Q251 552 195 488T138 304Q138
185 194 121T344 56Q439 56 495 120T551 304ZM343 751V751Q327 734 304 710T251 659Q234 661 223 669T212 692Q212 704 219 713T238 733L297 792Q319 814 344 814Q360 814 371 808T394 788L476 695Q476 680 467 671T442 661Q431 661 421 667T397 689L343 751Z"
/>
<glyph unicode="&#xd5;" horiz-adv-x="689" d="M634 304V304Q634 200 596 130T493 23T344 -13Q262 -13 196 23T92 129T54 304Q54 408 93 478T197 585T344 621Q426 621 491 585T595 479T634 304ZM551 304V304Q551 423 495 487T344 552Q251 552 195 488T138 304Q138
185 194 121T344 56Q439 56 495 120T551 304ZM272 786V786Q300 786 322 778T364 761T401 752Q419 752 427 763T440 790H446Q464 790 478 782T492 752Q492 724 472 707T419 690Q391 690 367 699T323 716T287 725Q269 725 261 714T249 686H243Q225 686 211 695T197
724Q197 744 207 757T235 778T272 786Z" />
<glyph unicode="&#xd6;" horiz-adv-x="689" d="M634 304V304Q634 200 596 130T493 23T344 -13Q262 -13 196 23T92 129T54 304Q54 408 93 478T197 585T344 621Q426 621 491 585T595 479T634 304ZM551 304V304Q551 423 495 487T344 552Q251 552 195 488T138 304Q138
185 194 121T344 56Q439 56 495 120T551 304ZM306 729V729Q306 710 292 696T256 681Q235 681 222 695T208 729Q208 749 221 763T256 777Q278 777 292 763T306 729ZM479 729V729Q479 710 465 696T429 681Q409 681 395 695T380 729Q380 749 394 763T429 777Q450 777
464 763T479 729Z" />
<glyph unicode="&#xd7;" horiz-adv-x="495" d="M284 305L436 141Q432 128 422 117T395 106Q386 106 378 110T365 121L237 264L214 282L62 444Q66 457 76 469T101 481Q111 481 119 476T132 464L261 324L284 305ZM410 408L288 279L256 256L101 102Q88 107 74 116T60
141Q60 150 66 158T80 174L211 302L240 321L391 479Q403 475 415 466T427 440Q427 431 422 423T410 408Z" />
<glyph unicode="&#xd8;" horiz-adv-x="689" d="M181 76L96 -16Q71 -11 60 1T49 25Q49 38 56 47T75 70L125 121L181 76ZM603 541L547 480L501 537L581 626Q601 622 614 612T628 587Q628 578 623 568T603 541ZM533 466L169 62L135 129L486 521L533 466ZM634 304V304Q634
200 596 130T493 23T344 -13Q262 -13 196 24T92 132T54 304Q54 408 93 478T197 585T344 621Q426 621 491 584T595 476T634 304ZM552 304V304Q552 420 495 486T344 552Q251 552 194 488T137 304Q137 189 193 123T344 56Q439 56 495 120T552 304Z" />
<glyph unicode="&#xd9;" horiz-adv-x="649" d="M324 -13V-13Q249 -13 196 14T116 92T88 210V292H169V217Q169 137 213 97T324 56Q390 56 434 96T479 217V292H561V210Q561 143 534 93T453 15T324 -13ZM169 251H88V606Q93 608 103 610T126 613Q148 613 158 605T169
576V251ZM561 251H479V606Q484 608 494 610T517 613Q539 613 550 605T561 576V251ZM286 680L198 768Q197 772 197 775T197 780Q197 796 206 806T231 817Q254 817 267 799L351 698Q350 682 342 673T319 664Q309 664 302 668T286 680Z" />
<glyph unicode="&#xda;" horiz-adv-x="649" d="M324 -13V-13Q249 -13 196 14T116 92T88 210V292H169V217Q169 137 213 97T324 56Q390 56 434 96T479 217V292H561V210Q561 143 534 93T453 15T324 -13ZM169 251H88V606Q93 608 103 610T126 613Q148 613 158 605T169
576V251ZM561 251H479V606Q484 608 494 610T517 613Q539 613 550 605T561 576V251ZM310 724L401 820Q423 819 434 809T446 784Q446 770 441 761T421 740L336 664Q317 666 307 674T296 694Q296 704 300 711T310 724Z" />
<glyph unicode="&#xdb;" horiz-adv-x="649" d="M324 -13V-13Q249 -13 196 14T116 92T88 210V292H169V217Q169 137 213 97T324 56Q390 56 434 96T479 217V292H561V210Q561 143 534 93T453 15T324 -13ZM169 251H88V606Q93 608 103 610T126 613Q148 613 158 605T169
576V251ZM561 251H479V606Q484 608 494 610T517 613Q539 613 550 605T561 576V251ZM329 751V751Q313 734 290 710T237 659Q220 661 209 669T198 692Q198 704 205 713T224 733L283 792Q305 814 330 814Q346 814 357 808T380 788L462 695Q462 680 453 671T428 661Q417
661 407 667T383 689L329 751Z" />
<glyph unicode="&#xdc;" horiz-adv-x="649" d="M324 -13V-13Q249 -13 196 14T116 92T88 210V292H169V217Q169 137 213 97T324 56Q390 56 434 96T479 217V292H561V210Q561 143 534 93T453 15T324 -13ZM169 251H88V606Q93 608 103 610T126 613Q148 613 158 605T169
576V251ZM561 251H479V606Q484 608 494 610T517 613Q539 613 550 605T561 576V251ZM286 729V729Q286 710 272 696T236 681Q215 681 202 695T188 729Q188 749 201 763T236 777Q258 777 272 763T286 729ZM459 729V729Q459 710 445 696T409 681Q389 681 375 695T360
729Q360 749 374 763T409 777Q430 777 444 763T459 729Z" />
<glyph unicode="&#xdd;" horiz-adv-x="550" d="M314 218H243Q215 260 185 306T125 401T69 495T21 582Q25 593 36 603T65 614Q84 614 94 604T116 574Q129 551 145 523T180 463T216 400T249 342T277 295H281Q316 353 345 405T401 507T454 607Q460 611 469 612T485
614Q504 614 513 605T523 580Q523 570 508 538T464 457T398 347T314 218ZM238 257H319V2Q314 0 304 -2T282 -5Q260 -5 249 4T238 32V257ZM254 724L345 820Q367 819 378 809T390 784Q390 770 385 761T365 740L280 664Q261 666 251 674T240 694Q240 704 244 711T254
724Z" />
<glyph unicode="&#xde;" horiz-adv-x="575" d="M170 182V428H279Q355 428 398 398T441 305Q441 242 398 212T279 182H170ZM89 497V113H298Q411 113 466 166T522 305Q522 394 467 445T298 497H89ZM170 161H89V31Q89 13 100 4T134 -5Q145 -5 155 -3T170 1V161ZM89
458H170V577Q170 595 159 604T126 613Q115 613 105 611T89 607V458Z" />
<glyph unicode="&#xdf;" horiz-adv-x="577" d="M160 285H80V475Q80 538 106 581T176 647T277 670Q334 670 379 648T450 579T477 463Q477 429 442 415L398 398Q372 385 362 373T351 340Q351 320 363 306T407 271Q449 247 477 226T520 179T535 116Q535 49 489 16T370
-17Q312 -17 280 1T247 45Q247 57 253 69T273 86Q292 71 316 61T373 51Q409 51 431 69T454 117Q454 144 437 163T370 210Q321 236 295 266T269 341Q269 382 290 409T354 454L397 472Q397 528 364 565T276 602Q230 602 195 572T160 474V285ZM80 372H160V-2Q156 -3
146 -5T125 -8Q103 -8 92 1T80 29V372Z" />
<glyph unicode="&#xe0;" horiz-adv-x="499" d="M240 52V52Q282 52 309 60T349 77V222L225 209Q173 205 148 186T123 131Q123 94 152 73T240 52ZM239 475V475Q326 475 377 436T428 313V76Q428 54 420 43T394 21Q370 8 330 -3T240 -14Q146 -14 95 23T43 130Q43 195
86 229T207 271L349 285V313Q349 363 319 386T238 409Q197 409 160 397T93 370Q85 377 79 386T72 406Q72 432 101 446Q128 460 163 467T239 475ZM212 534L118 634Q117 638 117 641T116 647Q116 663 127 673T154 683Q165 683 173 679T189 666L279 553Q278 537 269
528T246 518Q235 518 228 522T212 534Z" />
<glyph unicode="&#xe1;" horiz-adv-x="499" d="M240 52V52Q282 52 309 60T349 77V222L225 209Q173 205 148 186T123 131Q123 94 152 73T240 52ZM239 475V475Q326 475 377 436T428 313V76Q428 54 420 43T394 21Q370 8 330 -3T240 -14Q146 -14 95 23T43 130Q43 195
86 229T207 271L349 285V313Q349 363 319 386T238 409Q197 409 160 397T93 370Q85 377 79 386T72 406Q72 432 101 446Q128 460 163 467T239 475ZM218 578L315 687Q337 686 350 675T364 649Q364 636 358 627T338 605L247 516Q228 516 216 526T203 550Q203 559 208
565T218 578Z" />
<glyph unicode="&#xe2;" horiz-adv-x="499" d="M240 52V52Q282 52 309 60T349 77V222L225 209Q173 205 148 186T123 131Q123 94 152 73T240 52ZM239 475V475Q326 475 377 436T428 313V76Q428 54 420 43T394 21Q370 8 330 -3T240 -14Q146 -14 95 23T43 130Q43 195
86 229T207 271L349 285V313Q349 363 319 386T238 409Q197 409 160 397T93 370Q85 377 79 386T72 406Q72 432 101 446Q128 460 163 467T239 475ZM308 541L243 618Q220 590 198 567T155 520Q137 522 125 531T113 553Q113 564 119 572T135 591L196 657Q209 668 219
674T243 680Q259 680 269 674T290 656L374 556Q374 543 367 533T343 522Q331 522 324 527T308 541Z" />
<glyph unicode="&#xe3;" horiz-adv-x="499" d="M240 52V52Q282 52 309 60T349 77V222L225 209Q173 205 148 186T123 131Q123 94 152 73T240 52ZM239 475V475Q326 475 377 436T428 313V76Q428 54 420 43T394 21Q370 8 330 -3T240 -14Q146 -14 95 23T43 130Q43 195
86 229T207 271L349 285V313Q349 363 319 386T238 409Q197 409 160 397T93 370Q85 377 79 386T72 406Q72 432 101 446Q128 460 163 467T239 475ZM167 651V651Q195 651 217 643T259 626T296 617Q314 617 322 628T335 655H341Q359 655 373 647T387 617Q387 589 367
572T314 555Q286 555 262 564T218 581T182 590Q164 590 156 579T144 551H138Q120 551 106 560T92 589Q92 609 102 622T130 643T167 651Z" />
<glyph unicode="&#xe4;" horiz-adv-x="499" d="M240 52V52Q282 52 309 60T349 77V222L225 209Q173 205 148 186T123 131Q123 94 152 73T240 52ZM239 475V475Q326 475 377 436T428 313V76Q428 54 420 43T394 21Q370 8 330 -3T240 -14Q146 -14 95 23T43 130Q43 195
86 229T207 271L349 285V313Q349 363 319 386T238 409Q197 409 160 397T93 370Q85 377 79 386T72 406Q72 432 101 446Q128 460 163 467T239 475ZM211 857V857Q211 838 197 824T161 809Q140 809 127 823T113 857Q113 877 126 891T161 905Q183 905 197 891T211 857ZM384
857V857Q384 838 370 824T334 809Q314 809 300 823T285 857Q285 877 299 891T334 905Q355 905 369 891T384 857Z" />
<glyph unicode="&#xe5;" horiz-adv-x="499" d="M240 52V52Q282 52 309 60T349 77V222L225 209Q173 205 148 186T123 131Q123 94 152 73T240 52ZM239 475V475Q326 475 377 436T428 313V76Q428 54 420 43T394 21Q370 8 330 -3T240 -14Q146 -14 95 23T43 130Q43 195
86 229T207 271L349 285V313Q349 363 319 386T238 409Q197 409 160 397T93 370Q85 377 79 386T72 406Q72 432 101 446Q128 460 163 467T239 475ZM147 612V612Q147 651 174 678T251 705Q301 705 328 678T355 612Q355 573 328 546T251 519Q202 519 175 546T147 612ZM205
612V612Q205 590 218 578T251 566Q271 566 284 578T298 612Q298 634 285 646T251 658Q231 658 218 646T205 612Z" />
<glyph unicode="&#xe6;" horiz-adv-x="811" d="M396 180L392 243L694 284Q689 339 656 374T562 410Q499 410 459 366T419 238V216Q425 136 470 95T595 53Q637 53 671 67T726 97Q737 90 743 81T750 59Q750 40 729 24T672 -3T592 -13Q483 -13 425 46T367 202Q367
207 362 217T356 234Q356 310 382 363T454 446T563 475Q624 475 670 449T743 377T770 270Q770 248 760 239T732 227L396 180ZM240 52V52Q282 52 309 60T349 77V222L225 209Q173 205 148 186T123 131Q123 94 152 73T240 52ZM239 475V475Q321 475 367 436T413 313V70Q413
48 403 34T375 12Q353 2 322 -6T240 -14Q146 -14 95 23T43 130Q43 195 86 229T207 271L349 285V313Q349 363 319 386T238 409Q197 409 160 397T93 370Q85 377 79 386T72 406Q72 432 101 446Q128 460 163 467T239 475Z" />
<glyph unicode="&#xe7;" horiz-adv-x="478" d="M289 408V408Q221 408 176 362T131 230Q131 145 174 99T289 53Q331 53 359 64T409 91Q420 85 427 76T434 54Q434 26 393 7T289 -13Q220 -13 166 13T80 94T49 230Q49 311 81 365T167 447T287 475Q349 475 389 454T430
406Q430 394 423 385T405 371Q383 386 357 397T289 408ZM250 2L300 17Q328 -2 340 -28T352 -85Q352 -133 322 -161T244 -189Q219 -189 206 -180T192 -153Q192 -139 198 -129H213Q249 -129 265 -114T282 -72Q282 -55 275 -35T250 2Z" />
<glyph unicode="&#xe8;" horiz-adv-x="519" d="M104 180L100 243L402 284Q398 339 364 374T270 410Q208 410 168 366T127 238V216Q134 136 179 95T304 53Q346 53 380 67T434 97Q445 90 451 81T458 59Q458 40 437 24T380 -3T300 -13Q223 -13 167 15T80 98T49 234Q49
291 65 335T111 411T182 458T271 475Q332 475 378 449T451 377T478 270Q478 248 468 239T440 227L104 180ZM235 534L141 634Q140 638 140 641T139 647Q139 663 150 673T177 683Q188 683 196 679T212 666L302 553Q301 537 292 528T269 518Q258 518 251 522T235 534Z"
/>
<glyph unicode="&#xe9;" horiz-adv-x="519" d="M104 180L100 243L402 284Q398 339 364 374T270 410Q208 410 168 366T127 238V216Q134 136 179 95T304 53Q346 53 380 67T434 97Q445 90 451 81T458 59Q458 40 437 24T380 -3T300 -13Q223 -13 167 15T80 98T49 234Q49
291 65 335T111 411T182 458T271 475Q332 475 378 449T451 377T478 270Q478 248 468 239T440 227L104 180ZM258 578L355 687Q377 686 390 675T404 649Q404 636 398 627T378 605L287 516Q268 516 256 526T243 550Q243 559 248 565T258 578Z" />
<glyph unicode="&#xea;" horiz-adv-x="519" d="M104 180L100 243L402 284Q398 339 364 374T270 410Q208 410 168 366T127 238V216Q134 136 179 95T304 53Q346 53 380 67T434 97Q445 90 451 81T458 59Q458 40 437 24T380 -3T300 -13Q223 -13 167 15T80 98T49 234Q49
291 65 335T111 411T182 458T271 475Q332 475 378 449T451 377T478 270Q478 248 468 239T440 227L104 180ZM337 541L272 618Q249 590 227 567T184 520Q166 522 154 531T142 553Q142 564 148 572T164 591L225 657Q238 668 248 674T272 680Q288 680 298 674T319 656L403
556Q403 543 396 533T372 522Q360 522 353 527T337 541Z" />
<glyph unicode="&#xeb;" horiz-adv-x="519" d="M104 180L100 243L402 284Q398 339 364 374T270 410Q208 410 168 366T127 238V216Q134 136 179 95T304 53Q346 53 380 67T434 97Q445 90 451 81T458 59Q458 40 437 24T380 -3T300 -13Q223 -13 167 15T80 98T49 234Q49
291 65 335T111 411T182 458T271 475Q332 475 378 449T451 377T478 270Q478 248 468 239T440 227L104 180ZM232 857V857Q232 838 218 824T182 809Q161 809 148 823T134 857Q134 877 147 891T182 905Q204 905 218 891T232 857ZM405 857V857Q405 838 391 824T355
809Q335 809 321 823T306 857Q306 877 320 891T355 905Q376 905 390 891T405 857Z" />
<glyph unicode="&#xec;" horiz-adv-x="241" d="M80 343H160V-2Q156 -3 146 -5T125 -8Q103 -8 92 1T80 29V343ZM160 292H80V459Q85 461 95 463T116 465Q138 465 149 456T160 428V292ZM84 534L-10 634Q-11 638 -11 641T-12 647Q-12 663 -1 673T26 683Q37 683 45
679T61 666L151 553Q150 537 141 528T118 518Q107 518 100 522T84 534Z" />
<glyph unicode="&#xed;" horiz-adv-x="241" d="M80 343H160V-2Q156 -3 146 -5T125 -8Q103 -8 92 1T80 29V343ZM160 292H80V459Q85 461 95 463T116 465Q138 465 149 456T160 428V292ZM104 578L201 687Q223 686 236 675T250 649Q250 636 244 627T224 605L133 516Q114
516 102 526T89 550Q89 559 94 565T104 578Z" />
<glyph unicode="&#xee;" horiz-adv-x="241" d="M80 343H160V-2Q156 -3 146 -5T125 -8Q103 -8 92 1T80 29V343ZM160 292H80V459Q85 461 95 463T116 465Q138 465 149 456T160 428V292ZM188 541L123 618Q100 590 78 567T35 520Q17 522 5 531T-7 553Q-7 564 -1 572T15
591L76 657Q89 668 99 674T123 680Q139 680 149 674T170 656L254 556Q254 543 247 533T223 522Q211 522 204 527T188 541Z" />
<glyph unicode="&#xef;" horiz-adv-x="241" d="M80 343H160V-2Q156 -3 146 -5T125 -8Q103 -8 92 1T80 29V343ZM160 292H80V459Q85 461 95 463T116 465Q138 465 149 456T160 428V292ZM83 601V601Q83 582 69 568T33 553Q12 553 -1 567T-15 601Q-15 621 -2 635T33
649Q55 649 69 635T83 601ZM256 601V601Q256 582 242 568T206 553Q186 553 172 567T157 601Q157 621 171 635T206 649Q227 649 241 635T256 601Z" />
<glyph unicode="&#xf0;" horiz-adv-x="537" d="M362 539L337 530L185 476Q175 482 168 492T161 516Q161 537 186 546L279 581L303 587L423 634Q433 627 440 618T448 594Q448 580 442 574T423 562L362 539ZM421 352L408 289Q386 327 351 348T273 370Q202 370 167
328T131 214Q131 141 169 97T272 53Q339 53 372 98T406 220Q406 254 404 281T396 335Q394 351 394 356T392 364T387 377Q368 423 344 462T284 531Q275 539 271 544T258 557Q232 577 204 589T145 611Q145 630 155 644T187 659Q217 659 254 641T329 592Q336 586 337
585T346 577Q383 540 415 488T467 373T487 239Q487 156 461 100T387 16T271 -13Q170 -13 110 47T49 214Q49 291 79 340T157 412T259 436Q315 436 355 413T421 352Z" />
<glyph unicode="&#xf1;" horiz-adv-x="560" d="M485 305V203H405V301Q405 357 374 383T289 409Q249 409 218 399T165 376V203H85V372Q85 393 93 406T123 433Q149 448 192 461T289 475Q380 475 432 434T485 305ZM85 258H165V2Q160 0 150 -2T128 -5Q107 -5 96 3T85
31V258ZM405 258H485V2Q480 0 470 -2T448 -5Q426 -5 416 3T405 31V258ZM203 651V651Q231 651 253 643T295 626T332 617Q350 617 358 628T371 655H377Q395 655 409 647T423 617Q423 589 403 572T350 555Q322 555 298 564T254 581T218 590Q200 590 192 579T180 551H174Q156
551 142 560T128 589Q128 609 138 622T166 643T203 651Z" />
<glyph unicode="&#xf2;" horiz-adv-x="553" d="M504 231V231Q504 157 476 102T397 17T277 -13Q208 -13 157 17T77 102T49 231Q49 306 77 360T157 445T277 475Q345 475 396 445T475 361T504 231ZM277 409V409Q210 409 171 362T131 231Q131 147 169 100T277 53Q345
53 383 100T422 231Q422 314 384 361T277 409ZM243 534L149 634Q148 638 148 641T147 647Q147 663 158 673T185 683Q196 683 204 679T220 666L310 553Q309 537 300 528T277 518Q266 518 259 522T243 534Z" />
<glyph unicode="&#xf3;" horiz-adv-x="553" d="M504 231V231Q504 157 476 102T397 17T277 -13Q208 -13 157 17T77 102T49 231Q49 306 77 360T157 445T277 475Q345 475 396 445T475 361T504 231ZM277 409V409Q210 409 171 362T131 231Q131 147 169 100T277 53Q345
53 383 100T422 231Q422 314 384 361T277 409ZM274 578L371 687Q393 686 406 675T420 649Q420 636 414 627T394 605L303 516Q284 516 272 526T259 550Q259 559 264 565T274 578Z" />
<glyph unicode="&#xf4;" horiz-adv-x="553" d="M504 231V231Q504 157 476 102T397 17T277 -13Q208 -13 157 17T77 102T49 231Q49 306 77 360T157 445T277 475Q345 475 396 445T475 361T504 231ZM277 409V409Q210 409 171 362T131 231Q131 147 169 100T277 53Q345
53 383 100T422 231Q422 314 384 361T277 409ZM342 541L277 618Q254 590 232 567T189 520Q171 522 159 531T147 553Q147 564 153 572T169 591L230 657Q243 668 253 674T277 680Q293 680 303 674T324 656L408 556Q408 543 401 533T377 522Q365 522 358 527T342 541Z"
/>
<glyph unicode="&#xf5;" horiz-adv-x="553" d="M504 231V231Q504 157 476 102T397 17T277 -13Q208 -13 157 17T77 102T49 231Q49 306 77 360T157 445T277 475Q345 475 396 445T475 361T504 231ZM277 409V409Q210 409 171 362T131 231Q131 147 169 100T277 53Q345
53 383 100T422 231Q422 314 384 361T277 409ZM206 651V651Q234 651 256 643T298 626T335 617Q353 617 361 628T374 655H380Q398 655 412 647T426 617Q426 589 406 572T353 555Q325 555 301 564T257 581T221 590Q203 590 195 579T183 551H177Q159 551 145 560T131
589Q131 609 141 622T169 643T206 651Z" />
<glyph unicode="&#xf6;" horiz-adv-x="553" d="M504 231V231Q504 157 476 102T397 17T277 -13Q208 -13 157 17T77 102T49 231Q49 306 77 360T157 445T277 475Q345 475 396 445T475 361T504 231ZM277 409V409Q210 409 171 362T131 231Q131 147 169 100T277 53Q345
53 383 100T422 231Q422 314 384 361T277 409ZM240 857V857Q240 838 226 824T190 809Q169 809 156 823T142 857Q142 877 155 891T190 905Q212 905 226 891T240 857ZM413 857V857Q413 838 399 824T363 809Q343 809 329 823T314 857Q314 877 328 891T363 905Q384
905 398 891T413 857Z" />
<glyph unicode="&#xf7;" horiz-adv-x="522" d="M436 266H58Q55 273 53 280T51 298Q51 315 60 323T86 332H464Q467 326 469 318T471 301Q471 285 462 276T436 266ZM210 135V135Q210 158 224 173T263 188Q287 188 301 173T316 135Q316 113 302 98T263 82Q239 82
225 97T210 135ZM210 459V459Q210 482 224 497T263 512Q287 512 301 497T316 459Q316 436 302 421T263 406Q239 406 225 421T210 459Z" />
<glyph unicode="&#xf8;" horiz-adv-x="553" d="M425 399L377 443L430 523Q444 523 455 519T472 507T479 487Q479 480 473 471L425 399ZM179 25L121 -61Q106 -61 95 -57T77 -44T71 -26Q71 -17 77 -8L120 54L179 25ZM195 47L157 104L347 399L403 373L195 47ZM504
231V231Q504 157 476 102T397 17T277 -13Q208 -13 157 17T77 102T49 231Q49 306 77 360T157 445T277 475Q345 475 396 445T475 361T504 231ZM277 409V409Q210 409 170 362T129 231Q129 147 168 100T277 53Q345 53 384 100T424 231Q424 314 385 361T277 409Z" />
<glyph unicode="&#xf9;" horiz-adv-x="550" d="M75 169V260H155V173Q155 109 189 81T283 53Q323 53 351 61T395 79V260H475V82Q475 61 470 49T443 24Q421 11 380 -1T282 -13Q216 -13 170 6T99 66T75 169ZM475 208H395V460Q400 462 410 464T432 467Q454 467 464
459T475 430V208ZM155 208H75V460Q80 462 90 464T113 467Q134 467 144 459T155 430V208ZM238 534L144 634Q143 638 143 641T142 647Q142 663 153 673T180 683Q191 683 199 679T215 666L305 553Q304 537 295 528T272 518Q261 518 254 522T238 534Z" />
<glyph unicode="&#xfa;" horiz-adv-x="550" d="M75 169V260H155V173Q155 109 189 81T283 53Q323 53 351 61T395 79V260H475V82Q475 61 470 49T443 24Q421 11 380 -1T282 -13Q216 -13 170 6T99 66T75 169ZM475 208H395V460Q400 462 410 464T432 467Q454 467 464
459T475 430V208ZM155 208H75V460Q80 462 90 464T113 467Q134 467 144 459T155 430V208ZM259 578L356 687Q378 686 391 675T405 649Q405 636 399 627T379 605L288 516Q269 516 257 526T244 550Q244 559 249 565T259 578Z" />
<glyph unicode="&#xfb;" horiz-adv-x="550" d="M75 169V260H155V173Q155 109 189 81T283 53Q323 53 351 61T395 79V260H475V82Q475 61 470 49T443 24Q421 11 380 -1T282 -13Q216 -13 170 6T99 66T75 169ZM475 208H395V460Q400 462 410 464T432 467Q454 467 464
459T475 430V208ZM155 208H75V460Q80 462 90 464T113 467Q134 467 144 459T155 430V208ZM343 541L278 618Q255 590 233 567T190 520Q172 522 160 531T148 553Q148 564 154 572T170 591L231 657Q244 668 254 674T278 680Q294 680 304 674T325 656L409 556Q409 543
402 533T378 522Q366 522 359 527T343 541Z" />
<glyph unicode="&#xfc;" horiz-adv-x="550" d="M75 169V260H155V173Q155 109 189 81T283 53Q323 53 351 61T395 79V260H475V82Q475 61 470 49T443 24Q421 11 380 -1T282 -13Q216 -13 170 6T99 66T75 169ZM475 208H395V460Q400 462 410 464T432 467Q454 467 464
459T475 430V208ZM155 208H75V460Q80 462 90 464T113 467Q134 467 144 459T155 430V208ZM236 857V857Q236 838 222 824T186 809Q165 809 152 823T138 857Q138 877 151 891T186 905Q208 905 222 891T236 857ZM409 857V857Q409 838 395 824T359 809Q339 809 325 823T310
857Q310 877 324 891T359 905Q380 905 394 891T409 857Z" />
<glyph unicode="&#xfd;" horiz-adv-x="489" d="M169 103V103Q152 135 128 189T79 311T30 449Q37 459 48 465T73 471Q90 471 101 462T119 432Q149 348 182 265T255 93H259Q280 135 303 198T347 331T382 463Q389 466 397 468T416 471Q433 471 444 463T455 437Q455
421 446 384T422 297T386 192T342 83T294 -14Q248 -99 210 -144T140 -190Q117 -190 105 -178T89 -150Q111 -131 138 -100T191 -32T233 38Q216 43 202 56T169 103ZM232 578L329 687Q351 686 364 675T378 649Q378 636 372 627T352 605L261 516Q242 516 230 526T217
550Q217 559 222 565T232 578Z" />
<glyph unicode="&#xfe;" horiz-adv-x="553" d="M77 52H157V619Q157 636 147 645T114 655Q103 655 93 653T77 649V52ZM274 -13V-13Q340 -13 391 14T470 95T499 232Q499 317 468 370T385 449T269 475Q222 475 184 462T126 435L153 379Q173 391 200 400T263 409Q304
409 339 392T396 337T418 232Q418 138 376 96T263 53Q220 53 190 67T139 101V27Q156 12 193 0T274 -13ZM157 75L77 77V-150Q77 -169 88 -178T120 -187Q132 -187 142 -185T157 -180V75Z" />
<glyph unicode="&#xff;" horiz-adv-x="489" d="M169 103V103Q152 135 128 189T79 311T30 449Q37 459 48 465T73 471Q90 471 101 462T119 432Q149 348 182 265T255 93H259Q280 135 303 198T347 331T382 463Q389 466 397 468T416 471Q433 471 444 463T455 437Q455
421 446 384T422 297T386 192T342 83T294 -14Q248 -99 210 -144T140 -190Q117 -190 105 -178T89 -150Q111 -131 138 -100T191 -32T233 38Q216 43 202 56T169 103ZM208 857V857Q208 838 194 824T158 809Q137 809 124 823T110 857Q110 877 123 891T158 905Q180 905
194 891T208 857ZM381 857V857Q381 838 367 824T331 809Q311 809 297 823T282 857Q282 877 296 891T331 905Q352 905 366 891T381 857Z" />
<glyph unicode="&#x2013;" horiz-adv-x="534" d="M446 228H60Q58 235 56 242T54 260Q54 277 63 285T89 294H474Q476 288 478 280T480 263Q480 247 472 238T446 228Z" />
<glyph unicode="&#x2014;" horiz-adv-x="767" d="M678 231H61Q58 238 56 245T54 263Q54 280 63 288T89 297H707Q709 291 711 283T713 266Q713 250 704 241T678 231Z" />
<glyph unicode="&#x2018;" horiz-adv-x="126" d="M50 645V645Q56 659 64 665T86 672Q94 672 102 669T116 661Q112 637 106 602T96 530T89 463Q80 460 72 459T53 457Q36 457 26 466T16 495Q16 515 22 545T36 603T50 645Z" />
<glyph unicode="&#x2019;" horiz-adv-x="124" d="M76 486V486Q70 472 62 466T40 459Q32 459 24 462T10 470Q15 495 20 529T30 599T37 666Q46 669 54 670T73 672Q90 672 100 663T110 634Q110 615 104 585T90 528T76 486Z" />
<glyph unicode="&#x201a;" horiz-adv-x="131" d="M76 -72V-72Q70 -86 62 -92T40 -99Q32 -99 24 -96T10 -88Q15 -63 20 -29T30 41T37 108Q46 111 54 112T73 114Q90 114 100 105T110 76Q110 57 104 27T90 -30T76 -72Z" />
<glyph unicode="&#x201c;" horiz-adv-x="257" d="M183 645V645Q189 659 197 665T218 672Q226 672 234 669T247 661Q243 637 237 602T227 530T220 463Q211 460 204 459T185 457Q168 457 159 466T150 495Q150 515 156 545T169 603T183 645ZM49 645V645Q55 659 63
665T84 672Q92 672 100 669T113 661Q109 637 103 602T93 530T86 463Q77 460 70 459T51 457Q34 457 25 466T16 495Q16 515 21 545T35 603T49 645Z" />
<glyph unicode="&#x201d;" horiz-adv-x="257" d="M74 486V486Q68 472 61 466T39 459Q31 459 23 462T10 470Q15 495 20 529T30 599T37 666Q46 669 54 670T72 672Q89 672 98 663T107 634Q107 615 102 585T88 528T74 486ZM208 486V486Q202 472 195 466T173 459Q165
459 157 462T144 470Q149 495 154 529T164 599T171 666Q180 669 188 670T206 672Q223 672 232 663T241 634Q241 615 236 585T222 528T208 486Z" />
<glyph unicode="&#x201e;" horiz-adv-x="263" d="M74 -72V-72Q68 -86 61 -92T39 -99Q31 -99 23 -96T10 -88Q15 -63 20 -29T30 41T37 108Q46 111 54 112T72 114Q89 114 98 105T107 76Q107 57 102 27T88 -30T74 -72ZM208 -72V-72Q202 -86 195 -92T173 -99Q165 -99
157 -96T144 -88Q149 -63 154 -29T164 41T171 108Q180 111 188 112T206 114Q223 114 232 105T241 76Q241 57 236 27T222 -30T208 -72Z" />
<glyph unicode="&#x2022;" horiz-adv-x="263" d="M49 282V282Q49 315 71 339T131 364Q168 364 190 340T213 282Q213 249 191 225T131 201Q94 201 72 225T49 282Z" />
<glyph unicode="&#x2039;" horiz-adv-x="279" d="M101 225L239 82Q239 67 230 55T201 42Q188 42 177 50T156 69L45 192Q41 199 38 207T35 226Q35 242 39 250T50 265L195 416Q215 412 224 403T234 380Q234 368 228 359T207 334L101 225Z" />
<glyph unicode="&#x203a;" horiz-adv-x="279" d="M177 233L40 376Q40 391 49 403T77 416Q91 416 102 408T122 389L234 266Q239 259 241 251T244 232Q244 216 240 208T228 193L83 42Q64 47 55 56T45 78Q45 90 51 99T72 124L177 233Z" />
</font>
</defs>
</svg>
