<?xml version="1.0" standalone="no"?>
<!DOCTYPE svg PUBLIC "-//W3C//DTD SVG 1.1//EN" "http://www.w3.org/Graphics/SVG/1.1/DTD/svg11.dtd">
<svg xmlns="http://www.w3.org/2000/svg">
<defs >
<font id="Livvic" horiz-adv-x="554" ><font-face
    font-family="Livvic"
    units-per-em="1000"
    panose-1="0 0 0 0 0 0 0 0 0 0"
    ascent="1005"
    descent="-250"
    alphabetic="0" />
<glyph unicode=" " glyph-name="space" horiz-adv-x="228" />
<glyph unicode="!" glyph-name="exclam" horiz-adv-x="190" d="M70 172L60 740H142L119 172H70ZM94 -8Q72 -8 58 6T43 42Q43 64 57 79T94 94Q117 94 131 79T146 42Q146 21 132 7T94 -8Z" />
<glyph unicode="&quot;" glyph-name="quotedbl" horiz-adv-x="347" d="M84 470L70 710H148L134 470H84ZM213 470L199 710H277L263 470H213Z" />
<glyph unicode="#" glyph-name="numbersign" horiz-adv-x="600" d="M83 0L126 204H21L34 267H139L176 442H71L84 505H190L233 710H299L256 505H408L451 710H517L474 505H579L566 442H460L423 267H529L516 204H410L367 0H301L344 204H192L149 0H83ZM205 267H357L394
442H242L205 267Z" />
<glyph unicode="$" glyph-name="dollar" horiz-adv-x="600" d="M273 -120V-6Q181 3 127 57T61 210L133 220Q148 135 192 98T316 60Q382 60 422 93T463 186Q463 228 443 251T390 287T317 309T238 329T165 361T112 418T91 515Q91 568 115 611T180 682T273 717V830H327V719Q405
714 456 665T519 531L452 519Q438 588 402 620T308 653Q247 653 208 616T168 518Q168 472 188 446T241 406T314 382T393 362T466 332T520 279T540 187Q540 132 513 90T437 22T327 -7V-120H273Z" />
<glyph unicode="%" glyph-name="percent" horiz-adv-x="731" d="M203 420Q134 420 93 459T51 561Q51 607 72 642T129 698T214 719Q282 719 323 681T364 579Q364 534 343 498T286 441T203 420ZM115 0L550 710H616L182 0H115ZM204 471Q249 471 278 501T307 577Q307
619 282 644T214 670Q167 670 138 639T108 561Q108 520 134 496T204 471ZM519 -7Q451 -7 410 32T368 134Q368 180 388 215T446 271T531 292Q598 292 639 254T680 152Q680 107 659 71T602 14T519 -7ZM521 43Q566 43 595 73T624 150Q624 192 599 217T530 242Q483
242 454 212T424 134Q424 93 450 68T521 43Z" />
<glyph unicode="&amp;" glyph-name="ampersand" horiz-adv-x="778" d="M300 -8Q228 -8 174 17T89 88T58 196Q58 251 77 289T126 355T192 405L185 413Q145 457 129 492T112 570Q112 615 133 650T191 704T278 724Q348 724 390 687T433 587Q433 534 413 500T360 442T291
397L512 157Q537 193 552 240T571 347H462V408H736V347H633Q629 275 608 216T554 113Q584 82 609 70T666 56Q697 56 726 75L748 23Q710 -6 657 -6Q615 -6 580 10T507 64Q421 -8 300 -8ZM247 445L252 440Q283 459 310 478T353 523T369 581Q369 623 345 645T279 668Q236
668 209 642T182 572Q182 540 196 513T247 445ZM133 204Q133 134 181 94T309 54Q402 54 467 107L231 362Q191 336 162 300T133 204Z" />
<glyph unicode="&apos;" glyph-name="quotesingle" horiz-adv-x="218" d="M84 470L70 710H148L134 470H84Z" />
<glyph unicode="(" glyph-name="parenleft" horiz-adv-x="292" d="M280 -210Q171 -115 121 5T70 269Q70 413 120 534T280 748L313 710Q235 641 191 525T147 269Q147 130 191 14T313 -172L280 -210Z" />
<glyph unicode=")" glyph-name="parenright" horiz-adv-x="292" d="M12 -210L-21 -172Q57 -103 101 13T145 269Q145 409 101 525T-21 710L12 748Q121 656 171 535T222 269Q222 126 172 6T12 -210Z" />
<glyph unicode="*" glyph-name="asterisk" horiz-adv-x="466" d="M380 511Q416 489 399 461Q391 447 377 445T347 452Q327 463 307 482T250 528Q254 481 260 456T267 406Q267 387 258 376T233 365Q217 365 208 376T199 406Q199 430 205 455T216 528Q179 501 159
482T119 452Q103 443 89 445T67 461Q50 489 85 511Q106 522 131 530T200 556Q157 575 132 583T85 602Q51 624 67 653Q84 682 119 661Q139 650 159 631T216 586Q212 631 206 657T199 707Q199 725 208 736T233 748Q248 748 257 737T267 707Q267 684 261 658T250 586Q287
612 307 631T347 661Q382 682 399 653Q415 624 380 602Q360 591 335 583T266 556Q309 538 334 530T380 511Z" />
<glyph unicode="+" glyph-name="plus" horiz-adv-x="600" d="M266 497H335V282H544V215H335V0H266V215H56V282H266V497Z" />
<glyph unicode="," glyph-name="comma" horiz-adv-x="178" d="M38 -114Q56 -69 56 -37Q56 -9 48 9T39 51Q39 73 53 86T90 100Q141 100 141 41Q141 8 123 -36T77 -114H38Z" />
<glyph unicode="-" glyph-name="hyphen" horiz-adv-x="393" d="M60 221V287H333V221H60Z" />
<glyph unicode="." glyph-name="period" horiz-adv-x="178" d="M89 -8Q65 -8 50 7T35 46Q35 69 50 84T89 100Q114 100 128 85T143 46Q143 23 129 8T89 -8Z" />
<glyph unicode="/" glyph-name="slash" horiz-adv-x="314" d="M0 -200L250 740H321L71 -200H0Z" />
<glyph unicode="0" glyph-name="zero" horiz-adv-x="600" d="M297 -8Q181 -8 118 79T54 342Q54 456 86 541T176 673T311 720Q420 720 483 629T546 369Q546 251 515 167T427 37T297 -8ZM297 61Q376 61 424 138T472 371Q472 507 429 579T311 652Q229 652 179 571T129
342Q129 199 173 130T297 61Z" />
<glyph unicode="1" glyph-name="one" horiz-adv-x="600" d="M126 0V62H285V610L140 512L104 565L318 710H360V62H514V0H126Z" />
<glyph unicode="2" glyph-name="two" horiz-adv-x="600" d="M98 0V50Q199 133 264 200T366 324T419 428T434 518Q434 580 398 616T301 652Q175 652 130 514L72 542Q95 620 155 670T304 720Q363 720 409 697T482 630T510 523Q511 455 480 384T381 234T198 62H529V0H98Z" />
<glyph unicode="3" glyph-name="three" horiz-adv-x="600" d="M271 -8Q211 -8 159 6T73 43L97 108Q130 87 175 74T277 61Q352 61 400 95T448 198Q448 265 403 297T287 329H246V393H270Q348 393 391 429T435 534Q435 586 399 619T302 652Q237 652 195 618T130 514L72
542Q95 620 155 670T305 720Q370 720 416 696T486 630T511 538Q511 477 479 432T390 366Q454 348 489 305T524 195Q524 101 457 47T271 -8Z" />
<glyph unicode="4" glyph-name="four" horiz-adv-x="600" d="M384 0V209H51V260L406 712H457V271H557V209H457V0H384ZM132 271H384V591L132 271Z" />
<glyph unicode="5" glyph-name="five" horiz-adv-x="600" d="M271 -8Q212 -8 159 6T73 43L97 110Q130 88 175 75T277 61Q352 61 400 98T448 211Q448 281 393 319T216 360L118 363L143 710H490V648H212L196 426L227 425Q383 420 453 363T524 212Q524 108 456 50T271 -8Z" />
<glyph unicode="6" glyph-name="six" horiz-adv-x="600" d="M323 -8Q201 -8 139 77T76 326Q76 443 108 532T201 670T351 720Q506 720 559 562L495 533Q473 597 437 624T346 652Q262 652 207 575T151 336V325Q177 381 228 413T346 446Q407 446 454 419T529 344T556
233Q556 163 526 109T443 23T323 -8ZM321 56Q392 56 436 102T480 226Q480 297 440 339T333 382Q286 382 249 361T190 303T168 215Q168 142 209 99T321 56Z" />
<glyph unicode="7" glyph-name="seven" horiz-adv-x="600" d="M212 0H135L449 648H83V710H529V656L212 0Z" />
<glyph unicode="8" glyph-name="eight" horiz-adv-x="600" d="M300 -8Q188 -8 123 43T57 182Q57 244 94 292T192 361Q137 381 105 424T73 524Q73 580 101 624T181 694T300 720Q368 720 419 695T498 625T527 524Q527 468 495 424T408 361Q468 341 505 293T543 182Q543
95 478 44T300 -8ZM300 389Q369 389 410 424T452 519Q452 582 410 619T300 656Q233 656 191 619T148 519Q148 460 190 425T300 389ZM300 56Q378 56 422 91T467 188Q467 250 421 289T300 329Q225 329 179 290T133 188Q133 127 177 92T300 56Z" />
<glyph unicode="9" glyph-name="nine" horiz-adv-x="600" d="M277 720Q399 720 461 635T524 386Q524 269 492 180T399 42T249 -8Q94 -8 41 150L105 179Q127 115 163 88T254 60Q338 60 393 137T449 376V387Q423 331 372 299T254 266Q193 266 146 293T71 368T44
479Q44 549 74 603T157 689T277 720ZM279 656Q208 656 164 610T120 486Q120 415 160 373T267 330Q314 330 351 351T410 409T432 497Q432 570 391 613T279 656Z" />
<glyph unicode=":" glyph-name="colon" horiz-adv-x="178" d="M89 -8Q65 -8 50 7T35 46Q35 69 50 84T89 100Q114 100 128 85T143 46Q143 23 129 8T89 -8ZM89 397Q65 397 50 412T35 451Q35 474 50 489T89 505Q114 505 128 490T143 451Q143 428 129 413T89 397Z" />
<glyph unicode=";" glyph-name="semicolon" horiz-adv-x="178" d="M38 -114Q56 -69 56 -37Q56 -9 48 9T39 51Q39 73 53 86T90 100Q141 100 141 41Q141 8 123 -36T77 -114H38ZM89 397Q65 397 50 412T35 451Q35 474 50 489T89 505Q114 505 128 490T143 451Q143 428
129 413T89 397Z" />
<glyph unicode="&lt;" glyph-name="less" horiz-adv-x="600" d="M66 220V277L534 499V427L154 249L534 70V-1L66 220Z" />
<glyph unicode="=" glyph-name="equal" horiz-adv-x="600" d="M544 380V317H56V380H544ZM544 181V118H56V181H544Z" />
<glyph unicode="&gt;" glyph-name="greater" horiz-adv-x="600" d="M534 220L66 -1V70L446 249L66 427V499L534 277V220Z" />
<glyph unicode="?" glyph-name="question" horiz-adv-x="511" d="M230 169L175 171Q173 241 195 290T276 388Q314 422 334 446T363 492T372 543Q372 596 336 624T242 652Q116 652 72 514L14 542Q39 625 100 672T247 720Q305 720 350 699T421 638T447 546Q447 487
419 442T324 341Q276 301 255 262T230 169ZM200 -8Q178 -8 164 6T149 42Q149 64 163 79T200 94Q223 94 237 79T252 42Q252 21 238 7T200 -8Z" />
<glyph unicode="@" glyph-name="at" horiz-adv-x="969" d="M501 -212Q362 -212 263 -157T111 1T58 249Q58 355 90 442T181 592T321 690T501 725Q626 725 718 679T860 548T910 348Q910 255 884 184T812 73T708 32Q655 32 627 62T599 145Q567 94 517 63T414 32Q341
32 300 76T259 199Q259 263 280 319T339 417T425 482T530 506Q569 506 606 494T661 461L675 497L722 493L667 194Q658 145 671 118T716 91Q753 91 783 125T830 217T848 348Q848 443 805 514T684 624T501 664Q389 664 304 612T172 467T125 249Q125 58 224 -46T504
-151Q578 -151 646 -126T758 -59L798 -108Q748 -156 668 -184T501 -212ZM424 95Q469 95 508 119T576 186T616 283L640 404Q601 444 527 444Q473 444 429 412T357 324T330 201Q330 95 424 95Z" />
<glyph unicode="A" glyph-name="A" horiz-adv-x="673" d="M12 0L307 710H374L657 0H579L505 190H168L91 0H12ZM194 255H480L340 615L194 255Z" />
<glyph unicode="B" glyph-name="B" horiz-adv-x="611" d="M82 0V710H267Q416 710 484 662T553 522Q553 466 522 423T432 360Q492 342 526 298T561 195Q561 100 498 50T325 0H82ZM267 646H158V390H286Q381 390 428 421T476 521Q476 587 426 616T267 646ZM158 64H322Q397
64 440 94T484 193Q484 325 313 325H158V64Z" />
<glyph unicode="C" glyph-name="C" horiz-adv-x="648" d="M646 136Q607 66 539 29T382 -8Q281 -8 209 34T97 154T58 342Q58 454 101 539T221 672T399 720Q482 720 545 686T647 586L587 541Q527 649 397 649Q320 649 262 610T170 502T137 342Q137 210 201 137T382
63Q524 63 587 181L646 136Z" />
<glyph unicode="D" glyph-name="D" horiz-adv-x="733" d="M82 0V710H262Q674 710 674 359Q674 247 628 167T496 43T290 0H82ZM159 68H286Q439 68 517 141T596 354Q596 499 517 570T274 642H159V68Z" />
<glyph unicode="E" glyph-name="E" horiz-adv-x="542" d="M493 644H158V394H484V328H158V66H507L501 0H82V710H493V644Z" />
<glyph unicode="F" glyph-name="F" horiz-adv-x="484" d="M473 644H158V383H464V317H158V0H82V710H473V644Z" />
<glyph unicode="G" glyph-name="G" horiz-adv-x="727" d="M418 344H665V0H606L596 95Q527 -8 374 -8Q278 -8 207 34T97 154T58 342Q58 454 102 539T224 672T410 720Q582 720 659 586L599 541Q540 648 405 648Q325 648 265 610T172 502T138 342Q138 208 202 136T380
63Q477 63 534 112T592 247V281H418V344Z" />
<glyph unicode="H" glyph-name="H" horiz-adv-x="717" d="M82 0V710H159V395H558V710H635V0H558V327H159V0H82Z" />
<glyph unicode="I" glyph-name="I" horiz-adv-x="241" d="M82 0V710H159V0H82Z" />
<glyph unicode="J" glyph-name="J" horiz-adv-x="448" d="M176 -8Q101 -8 49 29T-17 128L46 156Q62 106 94 84T179 61Q236 61 263 95T290 205V710H368V208Q368 102 321 47T176 -8Z" />
<glyph unicode="K" glyph-name="K" horiz-adv-x="562" d="M82 0V710H159V379L487 710H582L230 357Q269 338 299 294L409 130Q437 88 457 75T510 61Q538 61 563 77L580 17Q550 -6 498 -6Q455 -6 421 14T353 82L221 277Q210 293 196 304T159 319V0H82Z" />
<glyph unicode="L" glyph-name="L" horiz-adv-x="484" d="M82 0V710H159V67H491L484 0H82Z" />
<glyph unicode="M" glyph-name="M" horiz-adv-x="914" d="M75 0L106 710H181L458 93L736 710H811L837 0H765L743 562L488 0H423L172 560L147 0H75Z" />
<glyph unicode="N" glyph-name="N" horiz-adv-x="717" d="M561 710H635V0H569L156 580V0H82V710H148L561 130V710Z" />
<glyph unicode="O" glyph-name="O" horiz-adv-x="769" d="M380 -8Q281 -8 209 33T97 153T58 342Q58 453 101 538T221 672T399 720Q492 720 562 676T672 554T711 369Q711 254 668 170T551 39T380 -8ZM380 63Q455 63 511 99T600 205T632 371Q632 456 604 518T523
615T400 649Q323 649 264 611T171 503T137 342Q137 208 202 136T380 63Z" />
<glyph unicode="P" glyph-name="P" horiz-adv-x="598" d="M158 0H82V710H312Q435 710 503 657T572 503Q572 402 502 345T285 287H158V0ZM304 646H158V352H289Q400 352 448 390T496 503Q496 577 449 611T304 646Z" />
<glyph unicode="Q" glyph-name="Q" horiz-adv-x="769" d="M670 -77Q661 -139 620 -173T513 -208Q426 -208 379 -159T331 -11V-5Q203 10 131 100T58 342Q58 453 101 538T221 672T399 720Q492 720 562 676T672 553T711 369Q711 259 672 177T563 47T405 -7V-13Q405
-83 431 -114T514 -145Q553 -145 578 -125T607 -70L670 -77ZM380 63Q455 63 511 99T600 205T632 371Q632 456 604 518T523 615T400 649Q323 649 264 611T171 503T137 342Q137 208 202 136T380 63Z" />
<glyph unicode="R" glyph-name="R" horiz-adv-x="582" d="M594 77L611 17Q580 -6 529 -6Q486 -6 451 14T383 82L250 278Q237 297 219 309T182 322H158V0H82V710H282Q401 710 464 659T528 518Q528 454 497 411T412 346T295 324H289Q317 310 346 267L439 131Q458
102 472 87T502 67T541 61Q556 61 569 65T594 77ZM276 646H158V384H267Q355 384 403 415T451 516Q451 577 409 611T276 646Z" />
<glyph unicode="S" glyph-name="S" horiz-adv-x="566" d="M290 -8Q54 -8 30 210L102 220Q117 135 162 98T295 60Q369 60 410 93T452 186Q452 224 435 247T382 284T292 311Q226 326 177 347T101 407T74 515Q74 574 103 620T184 693T302 720Q394 720 452 670T522
531L455 519Q441 588 404 620T300 652Q232 652 192 616T151 518Q151 453 193 424T321 377Q387 363 433 343T504 286T529 187Q529 129 499 85T414 17T290 -8Z" />
<glyph unicode="T" glyph-name="T" horiz-adv-x="546" d="M546 710L539 643H312V0H234V643H2V710H546Z" />
<glyph unicode="U" glyph-name="U" horiz-adv-x="722" d="M565 710H642L643 341Q643 171 572 82T356 -8Q216 -8 148 67T79 303V710H158V307Q158 179 205 121T356 63Q467 63 517 131T566 342L565 710Z" />
<glyph unicode="V" glyph-name="V" horiz-adv-x="586" d="M523 710H600L334 0H231L10 710H90L286 63L523 710Z" />
<glyph unicode="W" glyph-name="W" horiz-adv-x="935" d="M844 710H918L712 0H622L474 602L299 0H209L33 710H111L258 91L438 710H521L671 93L844 710Z" />
<glyph unicode="X" glyph-name="X" horiz-adv-x="578" d="M86 0H-1L247 363L16 710H103L292 426L484 710H567L332 364L577 0H489L289 301L86 0Z" />
<glyph unicode="Y" glyph-name="Y" horiz-adv-x="548" d="M569 710L313 321V0H236V320L-23 710H64L278 388L488 710H569Z" />
<glyph unicode="Z" glyph-name="Z" horiz-adv-x="597" d="M40 0V56L464 643H55V710H563V654L139 67H575L568 0H40Z" />
<glyph unicode="[" glyph-name="bracketleft" horiz-adv-x="262" d="M247 -200H82V740H247V684H153V-144H247V-200Z" />
<glyph unicode="\" glyph-name="backslash" horiz-adv-x="314" d="M314 -200H243L-7 740H64L314 -200Z" />
<glyph unicode="]" glyph-name="bracketright" horiz-adv-x="262" d="M16 -200V-144H109V684H16V740H180V-200H16Z" />
<glyph unicode="^" glyph-name="asciicircum" horiz-adv-x="600" d="M327 587L550 119H479L300 502L121 119H50L271 587H327Z" />
<glyph unicode="_" glyph-name="underscore" horiz-adv-x="465" d="M30 -62V0H434V-62H30Z" />
<glyph unicode="`" glyph-name="grave" horiz-adv-x="642" d="M301 573L176 728L254 750L368 573H301Z" />
<glyph unicode="a" glyph-name="a" horiz-adv-x="576" d="M501 497V0H427L430 117Q402 59 355 26T248 -8Q185 -8 142 21T76 103T53 225Q53 308 83 371T167 470T292 506Q342 506 380 483T436 424L446 497H501ZM294 440Q219 440 174 383T129 231Q129 150 163 105T258
59Q307 59 346 88T407 168T429 285Q429 357 393 398T294 440Z" />
<glyph unicode="b" glyph-name="b" horiz-adv-x="576" d="M75 0V740H148V498L145 378Q172 437 219 471T328 506Q391 506 434 477T500 395T523 274Q523 191 493 128T409 28T284 -8Q234 -8 196 15T141 76L130 0H75ZM282 59Q357 59 402 116T447 269Q447 349 413 394T318
440Q269 440 231 411T170 331T147 215Q147 142 183 101T282 59Z" />
<glyph unicode="c" glyph-name="c" horiz-adv-x="487" d="M286 -8Q177 -8 115 57T53 240Q53 319 84 379T170 472T298 506Q418 506 474 410L418 368Q378 439 296 439Q221 439 176 385T130 240Q130 152 171 106T289 60Q330 60 364 77T420 131L474 89Q414 -8 286 -8Z" />
<glyph unicode="d" glyph-name="d" horiz-adv-x="576" d="M501 740V0H427L430 117Q402 59 355 26T248 -8Q185 -8 142 21T76 103T53 225Q53 308 83 371T167 470T292 506Q337 506 373 487T430 435L428 497V740H501ZM294 440Q219 440 174 383T129 231Q129 150 163
105T258 59Q307 59 346 88T407 168T429 285Q429 357 393 398T294 440Z" />
<glyph unicode="e" glyph-name="e" horiz-adv-x="535" d="M299 -8Q184 -8 119 58T53 242Q53 319 84 379T168 472T290 506Q392 506 447 435T487 223H128Q131 143 176 101T304 59Q344 59 381 76T444 131L490 89Q423 -8 299 -8ZM291 447Q245 447 211 425T155 366T129
282H423Q427 369 389 408T291 447Z" />
<glyph unicode="f" glyph-name="f" horiz-adv-x="336" d="M96 0V435H-4V497H96V543Q96 639 146 694T280 750Q349 750 388 716T434 620L372 612Q363 687 279 687Q227 687 197 652T167 551V497H338V435H168V0H96Z" />
<glyph unicode="g" glyph-name="g" horiz-adv-x="580" d="M252 -210Q210 -210 166 -202T89 -175L109 -109Q142 -126 180 -134T254 -143Q350 -143 390 -96T433 56L435 129Q407 70 359 36T249 1Q154 1 104 65T53 230Q53 311 83 373T168 470T294 506Q345 506 383
483T440 424L450 497H505V67Q505 -210 252 -210ZM296 440Q246 440 209 414T150 342T129 236Q129 156 164 112T260 68Q309 68 348 97T410 176T433 289Q433 360 397 400T296 440Z" />
<glyph unicode="h" glyph-name="h" horiz-adv-x="571" d="M75 0V740H148L149 497L143 327Q168 414 220 460T344 506Q420 506 461 453T502 300L500 0H427L429 291Q429 364 405 401T326 438Q275 438 235 398T171 261T147 0H75Z" />
<glyph unicode="i" glyph-name="i" horiz-adv-x="222" d="M147 497V0H75V497H147ZM113 610Q89 610 76 625T63 660Q63 680 76 695T113 710Q136 710 149 695T163 660Q163 640 150 625T113 610Z" />
<glyph unicode="j" glyph-name="j" horiz-adv-x="237" d="M-26 -211Q-52 -211 -78 -206T-123 -191L-106 -129Q-70 -145 -28 -145Q35 -145 62 -107T89 -2V497H162V-6Q162 -103 111 -157T-26 -211ZM127 610Q103 610 90 625T77 660Q77 680 90 695T127 710Q150 710
163 695T177 660Q177 640 164 625T127 610Z" />
<glyph unicode="k" glyph-name="k" horiz-adv-x="461" d="M75 0V740H148V285L363 496H455L213 259Q234 245 254 217L329 109Q350 79 370 68T419 57Q444 57 466 70L484 15Q467 4 448 -1T407 -6Q324 -6 273 68L197 175Q170 214 148 229V0H75Z" />
<glyph unicode="l" glyph-name="l" horiz-adv-x="265" d="M197 -8Q135 -8 105 26T75 116V740H148V125Q148 92 162 75T208 58Q223 58 237 62T259 72L279 17Q265 5 243 -1T197 -8Z" />
<glyph unicode="m" glyph-name="m" horiz-adv-x="909" d="M75 0V497H149L143 326Q170 418 221 462T336 506Q401 506 441 467T490 349Q518 428 570 467T684 506Q760 506 800 453T840 300L838 0H765L767 291Q769 438 666 438Q632 438 601 417T546 347T507 212T493
0H421V291Q421 365 398 401T322 438Q287 438 256 417T201 347T162 212T147 0H75Z" />
<glyph unicode="n" glyph-name="n" horiz-adv-x="571" d="M75 0V497H149L143 327Q168 414 220 460T344 506Q420 506 461 453T502 300L500 0H427L429 291Q429 364 405 401T326 438Q275 438 235 398T171 261T147 0H75Z" />
<glyph unicode="o" glyph-name="o" horiz-adv-x="567" d="M292 506Q395 506 454 440T514 259Q514 183 485 123T402 27T278 -8Q173 -8 113 58T53 240Q53 316 82 376T166 471T292 506ZM278 59Q350 59 394 114T438 259Q438 346 400 393T293 440Q243 440 207 415T150
344T129 240Q129 152 168 106T278 59Z" />
<glyph unicode="p" glyph-name="p" horiz-adv-x="576" d="M75 -200V497H149L146 381Q173 439 220 472T328 506Q391 506 434 477T500 395T523 274Q523 191 493 128T409 28T284 -8Q238 -8 202 12T147 65L148 0V-200H75ZM282 59Q357 59 402 116T447 269Q447 349 413
394T318 440Q269 440 231 411T170 331T147 215Q147 142 183 101T282 59Z" />
<glyph unicode="q" glyph-name="q" horiz-adv-x="576" d="M501 497V-200H428V0L432 121Q405 62 357 27T248 -8Q185 -8 142 21T76 103T53 225Q53 308 83 371T167 470T292 506Q342 506 380 483T436 424L446 497H501ZM294 440Q219 440 174 383T129 231Q129 150 163
105T258 59Q307 59 346 88T407 168T429 285Q429 357 393 398T294 440Z" />
<glyph unicode="r" glyph-name="r" horiz-adv-x="376" d="M357 428Q347 431 337 432T315 433Q228 433 188 331T148 0H76V319L75 497H148L143 320Q167 421 215 463T318 506Q334 506 346 505T368 499L357 428Z" />
<glyph unicode="s" glyph-name="s" horiz-adv-x="452" d="M235 -8Q142 -8 91 30T32 140L96 155Q103 102 136 77T235 52Q290 52 318 74T347 133Q347 167 318 183T227 212Q175 222 138 237T81 281T61 356Q61 398 84 432T147 485T239 505Q309 505 353 472T408 379L346
363Q331 445 238 445Q190 445 162 422T133 358Q133 325 158 306T248 272Q301 261 339 247T397 207T419 138Q419 96 396 63T332 11T235 -8Z" />
<glyph unicode="t" glyph-name="t" horiz-adv-x="368" d="M264 -8Q179 -8 136 37T94 159L97 435H9V497H98L99 601H172L171 497H344V435H170L167 164Q167 116 191 87T268 58Q291 58 311 63T353 86L377 28Q355 9 325 1T264 -8Z" />
<glyph unicode="u" glyph-name="u" horiz-adv-x="561" d="M224 -8Q149 -8 109 44T69 188L72 497H145L142 197Q141 132 165 96T241 60Q292 60 331 101T392 237T416 497H486V0H412L418 163Q390 75 339 34T224 -8Z" />
<glyph unicode="v" glyph-name="v" horiz-adv-x="491" d="M417 497H490L296 0H194L33 497H111L249 59L417 497Z" />
<glyph unicode="w" glyph-name="w" horiz-adv-x="836" d="M756 497H830L644 0H559L432 403L279 0H194L37 497H114L240 77L396 497H473L602 75L756 497Z" />
<glyph unicode="x" glyph-name="x" horiz-adv-x="477" d="M95 0H11L195 251L19 497H108L240 312L374 497H458L281 254L462 0H374L236 194L95 0Z" />
<glyph unicode="y" glyph-name="y" horiz-adv-x="566" d="M241 -210Q198 -210 154 -202T78 -175L98 -110Q130 -126 168 -134T243 -143Q339 -143 379 -96T422 56L425 178Q397 87 345 44T225 1Q149 1 109 53T69 197L72 497H145L142 206Q141 141 165 106T242 70Q295
70 335 110T398 243T421 497H491V67Q491 -210 241 -210Z" />
<glyph unicode="z" glyph-name="z" horiz-adv-x="453" d="M39 0V51L321 435H51V497H413V446L131 62H411V0H39Z" />
<glyph unicode="{" glyph-name="braceleft" horiz-adv-x="336" d="M186 -64Q186 -107 214 -132T290 -159L280 -206Q209 -201 160 -164T111 -54Q111 -20 124 18T150 93T164 156Q164 194 137 218T51 242V300Q109 300 136 324T164 386Q164 413 151 449T124 523T111
596Q111 668 160 705T280 748L290 701Q243 699 215 674T186 606Q186 568 199 533T226 464T240 395Q240 344 208 313T128 271Q176 260 208 229T240 147Q240 112 227 78T200 9T186 -64Z" />
<glyph unicode="|" glyph-name="bar" horiz-adv-x="256" d="M92 -200V740H164V-200H92Z" />
<glyph unicode="}" glyph-name="braceright" horiz-adv-x="336" d="M150 -64Q150 -26 137 9T110 78T96 147Q96 198 128 229T208 271Q160 282 128 313T96 395Q96 430 109 464T136 533T150 606Q150 649 122 674T46 701L56 748Q127 743 176 706T226 596Q226 562 213
524T186 449T172 386Q172 348 199 324T285 300V242Q227 242 200 218T172 156Q172 129 185 93T212 19T226 -54Q226 -126 177 -163T56 -206L46 -159Q93 -157 121 -132T150 -64Z" />
<glyph unicode="~" glyph-name="asciitilde" horiz-adv-x="600" d="M407 189Q389 189 360 197T299 215T238 234T188 242Q160 242 140 228T105 187L64 223Q84 262 116 285T193 309Q211 309 240 301T301 283T362 265T412 257Q440 257 460 271T495 311L536 276Q516
236 484 213T407 189Z" />
<glyph unicode="&#xa0;" glyph-name="uni00A0" horiz-adv-x="228" />
<glyph unicode="&#xa1;" glyph-name="exclamdown" horiz-adv-x="190" d="M94 404Q72 404 58 418T43 454Q43 476 57 490T94 505Q117 505 131 491T146 454Q146 433 132 419T94 404ZM46 -200L71 326H120L128 -200H46Z" />
<glyph unicode="&#xa2;" glyph-name="cent" horiz-adv-x="600" d="M291 -120V-6Q197 3 144 67T91 240Q91 310 116 366T186 457T291 503V617H346V506Q458 502 511 410L456 368Q416 439 334 439Q259 439 214 385T168 240Q168 152 209 106T327 60Q367 60 401 77T458
131L511 89Q457 1 346 -7V-120H291Z" />
<glyph unicode="&#xa3;" glyph-name="sterling" horiz-adv-x="600" d="M92 -11L60 37Q121 69 147 105T173 192Q173 224 165 258T145 329H21V381H129Q122 410 117 438T111 496Q111 563 139 613T219 692T339 720Q425 720 482 674T555 542L496 519Q468 654 340 654Q265
654 224 613T183 498Q183 468 189 439T203 381H404V329H218Q228 296 235 264T242 198Q242 130 202 89Q218 94 232 94Q266 94 305 85T380 65T443 55Q497 55 526 110L570 77Q552 36 517 13T438 -10Q413 -10 372 0T286 20T204 30Q141 30 92 -11Z" />
<glyph unicode="&#xa4;" glyph-name="currency" horiz-adv-x="600" d="M95 99L57 138L110 193Q85 225 71 265T57 349Q57 394 71 434T111 506L57 562L95 601L148 545Q179 571 218 585T300 600Q343 600 381 586T451 546L504 601L543 561L490 506Q515 474 529 434T543
349Q543 305 529 265T490 193L544 138L504 100L452 154Q420 128 382 114T300 99Q257 99 219 113T148 154L95 99ZM301 158Q351 158 392 183T457 252T482 349Q482 403 458 446T392 515T301 541Q250 541 209 516T143 447T118 349Q118 296 142 253T208 184T301 158Z"
/>
<glyph unicode="&#xa5;" glyph-name="yen" horiz-adv-x="600" d="M89 165V218H262V314H89V367H241L13 710H100L304 402L505 710H587L361 367H511V314H340V218H511V165H340V0H262V165H89Z" />
<glyph unicode="&#xa6;" glyph-name="brokenbar" horiz-adv-x="256" d="M92 380V740H164V380H92ZM164 160V-200H92V160H164Z" />
<glyph unicode="&#xa7;" glyph-name="section" horiz-adv-x="499" d="M421 140Q421 97 398 63T334 10T240 -10Q169 -10 124 23T69 116L132 132Q140 94 167 74T241 53Q291 53 320 76T349 137Q349 169 328 186T274 212T204 230T133 252T79 289T58 357Q58 394 78
421T131 464Q108 480 93 505T78 570Q78 613 101 647T165 700T259 720Q330 720 375 687T430 593L367 578Q360 616 333 636T258 657Q208 657 179 634T150 573Q150 541 171 524T225 498T296 480T366 459T420 421T441 354Q441 317 421 290T368 246Q392 230 406 205T421
140ZM130 368Q130 343 145 328T186 305T243 290T304 274Q333 280 351 298T369 342Q369 368 354 383T313 406T257 421T196 436Q167 431 149 413T130 368Z" />
<glyph unicode="&#xa8;" glyph-name="dieresis" horiz-adv-x="670" d="M250 568Q228 568 215 581T202 614Q202 632 215 645T250 659Q272 659 284 646T297 614Q297 595 285 582T250 568ZM422 568Q399 568 386 581T373 614Q373 632 386 645T422 659Q443 659 455
646T468 614Q468 595 456 582T422 568Z" />
<glyph unicode="&#xa9;" glyph-name="copyright" horiz-adv-x="810" d="M405 -8Q329 -8 264 19T149 95T73 208T45 349Q45 425 72 490T149 603T263 679T405 706Q481 706 546 679T661 604T737 490T765 349Q765 273 738 209T661 96T547 20T405 -8ZM405 29Q473 29
531 53T632 121T700 223T724 350Q724 418 700 476T633 577T531 645T405 669Q337 669 279 645T178 578T110 476T86 350Q86 282 110 224T178 122T279 54T405 29ZM561 230Q538 191 499 170T409 149Q321 149 272 200T222 342Q222 403 246 450T315 523T418 550Q514 550
562 473L514 440Q498 468 474 481T417 495Q359 495 323 453T286 343Q286 277 318 241T410 204Q443 204 470 219T515 265L561 230Z" />
<glyph unicode="&#xaa;" glyph-name="ordfeminine" horiz-adv-x="341" d="M296 470H237L239 523Q206 465 143 465Q89 465 61 501T32 595Q32 664 70 707T168 750Q195 750 215 739T246 707L253 745H296V470ZM172 700Q135 700 114 672T92 598Q92 559 108 537T154
515Q189 515 213 545T238 624Q238 659 220 679T172 700Z" />
<glyph unicode="&#xab;" glyph-name="guillemotleft" horiz-adv-x="428" d="M158 70L33 238V268L158 436H238L103 253L238 70H158ZM334 70L209 238V268L334 436H414L279 253L414 70H334Z" />
<glyph unicode="&#xac;" glyph-name="logicalnot" horiz-adv-x="600" d="M66 282H534V0H465V215H66V282Z" />
<glyph unicode="&#xad;" glyph-name="uni00AD" horiz-adv-x="393" d="M60 221V287H333V221H60Z" />
<glyph unicode="&#xae;" glyph-name="registered" horiz-adv-x="810" d="M405 -8Q329 -8 264 19T149 95T73 209T45 349Q45 425 72 489T148 602T263 678T405 706Q482 706 547 679T661 603T737 490T765 349Q765 273 738 208T661 95T547 20T405 -8ZM405 29Q473 29
531 53T632 121T700 223T724 350Q724 418 700 476T633 577T531 645T405 669Q337 669 279 645T178 578T110 476T86 350Q86 282 110 224T178 122T279 54T405 29ZM535 152Q500 152 477 169T437 212T408 262T378 305T337 323V156H276V547H395Q458 547 494 517T531 434Q531
391 500 361T418 325Q438 314 452 294T479 254T507 219T544 205Q561 205 577 214L591 167Q570 152 535 152ZM391 501H337V365H376Q469 365 469 434Q469 465 448 483T391 501Z" />
<glyph unicode="&#xaf;" glyph-name="overscore" horiz-adv-x="626" d="M163 653H467V600H163V653Z" />
<glyph unicode="&#xb0;" glyph-name="degree" horiz-adv-x="365" d="M183 430Q143 430 111 449T59 500T40 574Q40 615 59 647T110 698T183 717Q223 717 255 698T306 647T325 574Q325 533 306 501T255 449T183 430ZM183 477Q224 477 250 504T276 574Q276 616 250
643T183 671Q142 671 116 644T90 574Q90 531 116 504T183 477Z" />
<glyph unicode="&#xb1;" glyph-name="plusminus" horiz-adv-x="600" d="M267 497H333V344H495V281H333V127H267V281H105V344H267V497ZM66 0V63H534V0H66Z" />
<glyph unicode="&#xb2;" glyph-name="uni00B2" horiz-adv-x="330" d="M47 359Q148 439 186 497T224 599Q224 629 207 646T159 664Q100 664 78 596L33 617Q46 661 81 688T166 715Q218 715 251 685T284 602Q284 549 247 492T120 366H294V319H47V359Z" />
<glyph unicode="&#xb3;" glyph-name="uni00B3" horiz-adv-x="330" d="M144 314Q116 314 85 322T36 341L52 391Q93 366 148 366Q186 366 209 384T232 432Q232 464 210 480T145 497H116V541H144Q182 541 203 559T224 608Q224 633 207 648T163 664Q106 664 82 606L40
631Q56 670 90 692T170 715Q222 715 253 688T284 614Q284 583 268 558T221 522Q292 503 292 430Q292 379 251 347T144 314Z" />
<glyph unicode="&#xb4;" glyph-name="acute" horiz-adv-x="642" d="M297 573L411 750L489 728L364 573H297Z" />
<glyph unicode="&#xb5;" glyph-name="uni00B5" horiz-adv-x="561" d="M414 497H484V0H413L419 179Q395 86 346 39T236 -8Q203 -8 179 1T138 34L140 -200H69V497H143L140 197Q140 129 163 95T240 60Q290 60 329 101T391 237T414 497Z" />
<glyph unicode="&#xb6;" glyph-name="paragraph" horiz-adv-x="621" d="M26 500Q26 598 95 654T300 711H392V0H316V288H290Q162 288 94 345T26 500ZM464 710H540V0H464V710Z" />
<glyph unicode="&#xb7;" glyph-name="middot" horiz-adv-x="188" d="M94 215Q70 215 55 230T40 269Q40 292 55 307T94 323Q119 323 133 308T148 269Q148 246 134 231T94 215Z" />
<glyph unicode="&#xb8;" glyph-name="cedilla" horiz-adv-x="618" d="M275 -223Q243 -223 220 -217T176 -200L196 -158Q214 -167 233 -172T274 -177Q298 -177 314 -166T330 -134Q330 -97 272 -97H231L289 18H344L308 -55Q347 -61 369 -81T391 -134Q391 -174 358
-198T275 -223Z" />
<glyph unicode="&#xb9;" glyph-name="uni00B9" horiz-adv-x="330" d="M61 366H149V631L78 583L50 624L176 710H210V366H294V319H61V366Z" />
<glyph unicode="&#xba;" glyph-name="ordmasculine" horiz-adv-x="332" d="M171 750Q231 750 265 712T300 613Q300 548 262 507T161 465Q101 465 67 503T32 601Q32 667 71 708T171 750ZM163 514Q199 514 221 541T243 613Q243 655 223 678T170 701Q133 701 111
674T89 601Q89 560 109 537T163 514Z" />
<glyph unicode="&#xbb;" glyph-name="guillemotright" horiz-adv-x="428" d="M95 70H14L150 253L14 436H95L219 268V238L95 70ZM271 70H190L326 253L190 436H271L395 268V238L271 70Z" />
<glyph unicode="&#xbc;" glyph-name="onequarter" horiz-adv-x="797" d="M61 366H149V631L78 583L50 624L176 710H210V366H294V319H61V366ZM192 0L542 710H605L255 0H192ZM777 106H726V0H674V106H494V142L684 392H726V146H777V106ZM544 146H674V314L544 146Z" />
<glyph unicode="&#xbd;" glyph-name="onehalf" horiz-adv-x="797" d="M61 366H149V631L78 583L50 624L176 710H210V366H294V319H61V366ZM192 0L542 710H605L255 0H192ZM514 40Q615 120 653 178T691 280Q691 310 674 327T626 345Q567 345 545 277L500 298Q513 342
548 369T633 396Q685 396 718 366T751 283Q751 230 714 173T587 47H761V0H514V40Z" />
<glyph unicode="&#xbe;" glyph-name="threequarters" horiz-adv-x="797" d="M144 314Q116 314 85 322T36 341L52 391Q93 366 148 366Q186 366 209 384T232 432Q232 464 210 480T145 497H116V541H144Q182 541 203 559T224 608Q224 633 207 648T163 664Q106 664
82 606L40 631Q56 670 90 692T170 715Q222 715 253 688T284 614Q284 583 268 558T221 522Q292 503 292 430Q292 379 251 347T144 314ZM192 0L542 710H605L255 0H192ZM777 106H726V0H674V106H494V142L684 392H726V146H777V106ZM544 146H674V314L544 146Z" />
<glyph unicode="&#xbf;" glyph-name="questiondown" horiz-adv-x="511" d="M311 404Q288 404 274 418T259 455Q259 476 273 490T311 505Q333 505 347 491T362 455Q362 433 348 419T311 404ZM264 -212Q206 -212 161 -191T90 -132T64 -41Q64 16 92 60T187 160Q235
199 256 237T281 329L336 326Q338 258 315 211T235 115Q197 82 177 58T148 12T139 -37Q139 -89 175 -116T269 -144Q395 -144 439 -9L497 -37Q472 -119 411 -165T264 -212Z" />
<glyph unicode="&#xc0;" glyph-name="Agrave" horiz-adv-x="674" d="M12 0L307 710H374L657 0H579L505 190H168L91 0H12ZM194 255H480L340 615L194 255ZM304 786L179 941L257 963L371 786H304Z" />
<glyph unicode="&#xc1;" glyph-name="Aacute" horiz-adv-x="674" d="M12 0L307 710H374L657 0H579L505 190H168L91 0H12ZM194 255H480L340 615L194 255ZM299 786L413 963L491 941L366 786H299Z" />
<glyph unicode="&#xc2;" glyph-name="Acircumflex" horiz-adv-x="674" d="M12 0L307 710H374L657 0H579L505 190H168L91 0H12ZM194 255H480L340 615L194 255ZM496 786H424L337 903L250 786H178L304 953H370L496 786Z" />
<glyph unicode="&#xc3;" glyph-name="Atilde" horiz-adv-x="674" d="M12 0L307 710H374L657 0H579L505 190H168L91 0H12ZM194 255H480L340 615L194 255ZM418 781Q399 781 377 790T332 812T289 834T253 843Q232 843 217 828T194 784L160 807Q169 851 194 876T256
901Q275 901 297 892T342 870T385 848T421 838Q442 838 457 854T480 898L514 875Q505 830 480 806T418 781Z" />
<glyph unicode="&#xc4;" glyph-name="Adieresis" horiz-adv-x="674" d="M12 0L307 710H374L657 0H579L505 190H168L91 0H12ZM194 255H480L340 615L194 255ZM252 781Q230 781 217 794T204 827Q204 845 217 858T252 872Q274 872 286 859T299 827Q299 808 287 795T252
781ZM424 781Q401 781 388 794T375 827Q375 845 388 858T424 872Q445 872 457 859T470 827Q470 808 458 795T424 781Z" />
<glyph unicode="&#xc5;" glyph-name="Aring" horiz-adv-x="674" d="M12 0L307 710H374L657 0H579L505 190H168L91 0H12ZM194 255H480L340 615L194 255ZM336 781Q292 781 263 809T233 880Q233 923 264 952T340 982Q384 982 412 954T441 884Q441 840 411 811T336
781ZM337 818Q365 818 382 836T400 884Q400 911 383 927T339 944Q310 944 292 926T274 880Q274 853 292 836T337 818Z" />
<glyph unicode="&#xc6;" glyph-name="AE" horiz-adv-x="896" d="M12 0L307 710H847V644H522V394H838V328H522V66H862L855 0H446V190H168L91 0H12ZM194 255H446V644H351L194 255Z" />
<glyph unicode="&#xc7;" glyph-name="Ccedilla" horiz-adv-x="648" d="M646 136Q607 66 539 29T382 -8Q281 -8 209 34T97 154T58 342Q58 454 101 539T221 672T399 720Q482 720 545 686T647 586L587 541Q527 649 397 649Q320 649 262 610T170 502T137 342Q137 210
201 137T382 63Q524 63 587 181L646 136ZM363 -223Q331 -223 308 -217T264 -200L284 -158Q302 -167 321 -172T362 -177Q386 -177 402 -166T418 -134Q418 -97 360 -97H319L377 18H432L396 -55Q435 -61 457 -81T479 -134Q479 -174 446 -198T363 -223Z" />
<glyph unicode="&#xc8;" glyph-name="Egrave" horiz-adv-x="542" d="M493 644H158V394H484V328H158V66H507L501 0H82V710H493V644ZM510 786L385 941L463 963L577 786H510Z" />
<glyph unicode="&#xc9;" glyph-name="Eacute" horiz-adv-x="542" d="M493 644H158V394H484V328H158V66H507L501 0H82V710H493V644ZM506 786L620 963L698 941L573 786H506Z" />
<glyph unicode="&#xca;" glyph-name="Ecircumflex" horiz-adv-x="542" d="M493 644H158V394H484V328H158V66H507L501 0H82V710H493V644ZM703 786H631L544 903L457 786H385L511 953H577L703 786Z" />
<glyph unicode="&#xcb;" glyph-name="Edieresis" horiz-adv-x="542" d="M493 644H158V394H484V328H158V66H507L501 0H82V710H493V644ZM459 781Q437 781 424 794T411 827Q411 845 424 858T459 872Q481 872 493 859T506 827Q506 808 494 795T459 781ZM631 781Q608
781 595 794T582 827Q582 845 595 858T631 872Q652 872 664 859T677 827Q677 808 665 795T631 781Z" />
<glyph unicode="&#xcc;" glyph-name="Igrave" horiz-adv-x="241" d="M82 0V710H159V0H82ZM88 786L-37 941L41 963L155 786H88Z" />
<glyph unicode="&#xcd;" glyph-name="Iacute" horiz-adv-x="241" d="M82 0V710H159V0H82ZM83 786L197 963L275 941L150 786H83Z" />
<glyph unicode="&#xce;" glyph-name="Icircumflex" horiz-adv-x="241" d="M82 0V710H159V0H82ZM280 786H208L121 903L34 786H-38L88 953H154L280 786Z" />
<glyph unicode="&#xcf;" glyph-name="Idieresis" horiz-adv-x="241" d="M82 0V710H159V0H82ZM36 781Q14 781 1 794T-12 827Q-12 845 1 858T36 872Q58 872 70 859T83 827Q83 808 71 795T36 781ZM208 781Q185 781 172 794T159 827Q159 845 172 858T208 872Q229 872
241 859T254 827Q254 808 242 795T208 781Z" />
<glyph unicode="&#xd0;" glyph-name="Eth" horiz-adv-x="733" d="M82 0V710H262Q674 710 674 359Q674 247 628 167T496 43T290 0H82ZM159 68H286Q439 68 517 141T596 354Q596 499 517 570T274 642H159V68ZM5 332V388H369V332H5Z" />
<glyph unicode="&#xd1;" glyph-name="Ntilde" horiz-adv-x="717" d="M561 710H635V0H569L156 580V0H82V710H148L561 130V710ZM440 781Q421 781 399 790T354 812T311 834T275 843Q254 843 239 828T216 784L182 807Q191 851 216 876T278 901Q297 901 319 892T364
870T407 848T443 838Q464 838 479 854T502 898L536 875Q527 830 502 806T440 781Z" />
<glyph unicode="&#xd2;" glyph-name="Ograve" horiz-adv-x="769" d="M380 -8Q281 -8 209 33T97 153T58 342Q58 453 101 538T221 672T399 720Q492 720 562 676T672 554T711 369Q711 254 668 170T551 39T380 -8ZM380 63Q455 63 511 99T600 205T632 371Q632 456 604
518T523 615T400 649Q323 649 264 611T171 503T137 342Q137 208 202 136T380 63ZM351 786L226 941L304 963L418 786H351Z" />
<glyph unicode="&#xd3;" glyph-name="Oacute" horiz-adv-x="769" d="M380 -8Q281 -8 209 33T97 153T58 342Q58 453 101 538T221 672T399 720Q492 720 562 676T672 554T711 369Q711 254 668 170T551 39T380 -8ZM380 63Q455 63 511 99T600 205T632 371Q632 456 604
518T523 615T400 649Q323 649 264 611T171 503T137 342Q137 208 202 136T380 63ZM347 786L461 963L539 941L414 786H347Z" />
<glyph unicode="&#xd4;" glyph-name="Ocircumflex" horiz-adv-x="769" d="M380 -8Q281 -8 209 33T97 153T58 342Q58 453 101 538T221 672T399 720Q492 720 562 676T672 554T711 369Q711 254 668 170T551 39T380 -8ZM380 63Q455 63 511 99T600 205T632 371Q632
456 604 518T523 615T400 649Q323 649 264 611T171 503T137 342Q137 208 202 136T380 63ZM544 786H472L385 903L298 786H226L352 953H418L544 786Z" />
<glyph unicode="&#xd5;" glyph-name="Otilde" horiz-adv-x="769" d="M380 -8Q281 -8 209 33T97 153T58 342Q58 453 101 538T221 672T399 720Q492 720 562 676T672 554T711 369Q711 254 668 170T551 39T380 -8ZM380 63Q455 63 511 99T600 205T632 371Q632 456 604
518T523 615T400 649Q323 649 264 611T171 503T137 342Q137 208 202 136T380 63ZM466 781Q447 781 425 790T380 812T337 834T301 843Q280 843 265 828T242 784L208 807Q217 851 242 876T304 901Q323 901 345 892T390 870T433 848T469 838Q490 838 505 854T528 898L562
875Q553 830 528 806T466 781Z" />
<glyph unicode="&#xd6;" glyph-name="Odieresis" horiz-adv-x="769" d="M380 -8Q281 -8 209 33T97 153T58 342Q58 453 101 538T221 672T399 720Q492 720 562 676T672 554T711 369Q711 254 668 170T551 39T380 -8ZM380 63Q455 63 511 99T600 205T632 371Q632 456
604 518T523 615T400 649Q323 649 264 611T171 503T137 342Q137 208 202 136T380 63ZM300 781Q278 781 265 794T252 827Q252 845 265 858T300 872Q322 872 334 859T347 827Q347 808 335 795T300 781ZM472 781Q449 781 436 794T423 827Q423 845 436 858T472 872Q493
872 505 859T518 827Q518 808 506 795T472 781Z" />
<glyph unicode="&#xd7;" glyph-name="multiply" horiz-adv-x="600" d="M489 107L442 59L300 201L158 59L111 107L252 249L111 390L158 438L300 296L442 438L489 390L348 249L489 107Z" />
<glyph unicode="&#xd8;" glyph-name="Oslash" horiz-adv-x="769" d="M380 -8Q281 -8 209 33T97 153T58 342Q58 453 101 538T221 672T399 720Q492 720 562 676T672 554T711 369Q711 254 668 170T551 39T380 -8ZM380 63Q455 63 511 99T600 205T632 371Q632 456 604
518T523 615T400 649Q323 649 264 611T171 503T137 342Q137 208 202 136T380 63ZM162 -30L111 3L608 740L659 707L162 -30Z" />
<glyph unicode="&#xd9;" glyph-name="Ugrave" horiz-adv-x="722" d="M565 710H642L643 341Q643 171 572 82T356 -8Q216 -8 148 67T79 303V710H158V307Q158 179 205 121T356 63Q467 63 517 131T566 342L565 710ZM328 786L203 941L281 963L395 786H328Z" />
<glyph unicode="&#xda;" glyph-name="Uacute" horiz-adv-x="722" d="M565 710H642L643 341Q643 171 572 82T356 -8Q216 -8 148 67T79 303V710H158V307Q158 179 205 121T356 63Q467 63 517 131T566 342L565 710ZM324 786L438 963L516 941L391 786H324Z" />
<glyph unicode="&#xdb;" glyph-name="Ucircumflex" horiz-adv-x="722" d="M565 710H642L643 341Q643 171 572 82T356 -8Q216 -8 148 67T79 303V710H158V307Q158 179 205 121T356 63Q467 63 517 131T566 342L565 710ZM521 786H449L362 903L275 786H203L329 953H395L521
786Z" />
<glyph unicode="&#xdc;" glyph-name="Udieresis" horiz-adv-x="722" d="M565 710H642L643 341Q643 171 572 82T356 -8Q216 -8 148 67T79 303V710H158V307Q158 179 205 121T356 63Q467 63 517 131T566 342L565 710ZM277 781Q255 781 242 794T229 827Q229 845 242
858T277 872Q299 872 311 859T324 827Q324 808 312 795T277 781ZM449 781Q426 781 413 794T400 827Q400 845 413 858T449 872Q470 872 482 859T495 827Q495 808 483 795T449 781Z" />
<glyph unicode="&#xdd;" glyph-name="Yacute" horiz-adv-x="548" d="M569 710L313 321V0H236V320L-23 710H64L278 388L488 710H569ZM494 786L608 963L686 941L561 786H494Z" />
<glyph unicode="&#xde;" glyph-name="Thorn" horiz-adv-x="605" d="M158 710V592H312Q435 592 503 539T572 384Q572 283 502 226T285 168H158V0H82V711L158 710ZM304 528H158V233H289Q400 233 448 271T496 384Q496 458 449 493T304 528Z" />
<glyph unicode="&#xdf;" glyph-name="germandbls" horiz-adv-x="640" d="M-4 436V497H96Q99 614 163 682T337 750Q414 750 461 713T508 616Q508 577 492 550T452 501T405 460T365 421T349 372Q349 343 368 326T419 297T486 274T552 248T603 206T623 136Q623 92
599 60T535 10T442 -8Q361 -8 309 30T250 141L315 155Q322 105 355 80T442 54Q497 54 524 75T551 129Q551 159 532 176T481 204T416 225T350 251T300 292T280 361Q280 400 296 428T337 477T386 519T427 562T444 617Q444 649 416 669T337 690Q255 690 212 638T168
491V0H95V436H-4Z" />
<glyph unicode="&#xe0;" glyph-name="agrave" horiz-adv-x="576" d="M501 497V0H427L430 117Q402 59 355 26T248 -8Q185 -8 142 21T76 103T53 225Q53 308 83 371T167 470T292 506Q342 506 380 483T436 424L446 497H501ZM294 440Q219 440 174 383T129 231Q129 150
163 105T258 59Q307 59 346 88T407 168T429 285Q429 357 393 398T294 440ZM532 573L407 728L485 750L599 573H532Z" />
<glyph unicode="&#xe1;" glyph-name="aacute" horiz-adv-x="576" d="M501 497V0H427L430 117Q402 59 355 26T248 -8Q185 -8 142 21T76 103T53 225Q53 308 83 371T167 470T292 506Q342 506 380 483T436 424L446 497H501ZM294 440Q219 440 174 383T129 231Q129 150
163 105T258 59Q307 59 346 88T407 168T429 285Q429 357 393 398T294 440ZM527 573L641 750L719 728L594 573H527Z" />
<glyph unicode="&#xe2;" glyph-name="acircumflex" horiz-adv-x="576" d="M501 497V0H427L430 117Q402 59 355 26T248 -8Q185 -8 142 21T76 103T53 225Q53 308 83 371T167 470T292 506Q342 506 380 483T436 424L446 497H501ZM294 440Q219 440 174 383T129 231Q129
150 163 105T258 59Q307 59 346 88T407 168T429 285Q429 357 393 398T294 440ZM724 573H652L565 690L478 573H406L532 740H598L724 573Z" />
<glyph unicode="&#xe3;" glyph-name="atilde" horiz-adv-x="576" d="M501 497V0H427L430 117Q402 59 355 26T248 -8Q185 -8 142 21T76 103T53 225Q53 308 83 371T167 470T292 506Q342 506 380 483T436 424L446 497H501ZM294 440Q219 440 174 383T129 231Q129 150
163 105T258 59Q307 59 346 88T407 168T429 285Q429 357 393 398T294 440ZM646 568Q627 568 605 577T560 599T517 621T481 631Q460 631 445 615T422 571L388 594Q397 638 422 663T484 688Q503 688 525 679T570 657T613 635T649 625Q670 625 685 641T708 685L742
662Q733 618 708 593T646 568Z" />
<glyph unicode="&#xe4;" glyph-name="adieresis" horiz-adv-x="576" d="M501 497V0H427L430 117Q402 59 355 26T248 -8Q185 -8 142 21T76 103T53 225Q53 308 83 371T167 470T292 506Q342 506 380 483T436 424L446 497H501ZM294 440Q219 440 174 383T129 231Q129
150 163 105T258 59Q307 59 346 88T407 168T429 285Q429 357 393 398T294 440ZM480 568Q458 568 445 581T432 614Q432 632 445 645T480 659Q502 659 514 646T527 614Q527 595 515 582T480 568ZM652 568Q629 568 616 581T603 614Q603 632 616 645T652 659Q673 659
685 646T698 614Q698 595 686 582T652 568Z" />
<glyph unicode="&#xe5;" glyph-name="aring" horiz-adv-x="576" d="M501 497V0H427L430 117Q402 59 355 26T248 -8Q185 -8 142 21T76 103T53 225Q53 308 83 371T167 470T292 506Q342 506 380 483T436 424L446 497H501ZM294 440Q219 440 174 383T129 231Q129 150
163 105T258 59Q307 59 346 88T407 168T429 285Q429 357 393 398T294 440ZM564 568Q520 568 491 596T461 667Q461 710 492 739T568 769Q612 769 640 742T669 671Q669 627 639 598T564 568ZM565 606Q593 606 610 624T628 671Q628 698 611 715T567 732Q538 732 520
714T502 667Q502 640 520 623T565 606Z" />
<glyph unicode="&#xe6;" glyph-name="ae" horiz-adv-x="864" d="M224 -8Q172 -8 132 10T68 61T45 135Q45 203 95 242T240 282H384V306Q384 443 261 443Q204 443 169 415T123 334L57 346Q65 390 91 426T160 484T262 506Q398 506 436 396Q464 448 513 477T617 506Q720
506 775 435T816 223H460Q462 144 507 102T632 59Q673 59 709 76T772 131L819 89Q752 -8 628 -8Q474 -8 420 114Q396 58 344 25T224 -8ZM619 447Q573 447 539 425T485 365T461 282H751Q755 369 717 408T619 447ZM232 53Q301 53 342 98T384 218V222H240Q180 222
150 200T120 138Q120 100 150 77T232 53Z" />
<glyph unicode="&#xe7;" glyph-name="ccedilla" horiz-adv-x="487" d="M286 -8Q177 -8 115 57T53 240Q53 319 84 379T170 472T298 506Q418 506 474 410L418 368Q378 439 296 439Q221 439 176 385T130 240Q130 152 171 106T289 60Q330 60 364 77T420 131L474 89Q414
-8 286 -8ZM512 -223Q480 -223 457 -217T413 -200L433 -158Q451 -167 470 -172T511 -177Q535 -177 551 -166T567 -134Q567 -97 509 -97H468L526 18H581L545 -55Q584 -61 606 -81T628 -134Q628 -174 595 -198T512 -223Z" />
<glyph unicode="&#xe8;" glyph-name="egrave" horiz-adv-x="535" d="M299 -8Q184 -8 119 58T53 242Q53 319 84 379T168 472T290 506Q392 506 447 435T487 223H128Q131 143 176 101T304 59Q344 59 381 76T444 131L490 89Q423 -8 299 -8ZM291 447Q245 447 211 425T155
366T129 282H423Q427 369 389 408T291 447ZM511 573L386 728L464 750L578 573H511Z" />
<glyph unicode="&#xe9;" glyph-name="eacute" horiz-adv-x="535" d="M299 -8Q184 -8 119 58T53 242Q53 319 84 379T168 472T290 506Q392 506 447 435T487 223H128Q131 143 176 101T304 59Q344 59 381 76T444 131L490 89Q423 -8 299 -8ZM291 447Q245 447 211 425T155
366T129 282H423Q427 369 389 408T291 447ZM507 573L621 750L699 728L574 573H507Z" />
<glyph unicode="&#xea;" glyph-name="ecircumflex" horiz-adv-x="535" d="M299 -8Q184 -8 119 58T53 242Q53 319 84 379T168 472T290 506Q392 506 447 435T487 223H128Q131 143 176 101T304 59Q344 59 381 76T444 131L490 89Q423 -8 299 -8ZM291 447Q245 447 211
425T155 366T129 282H423Q427 369 389 408T291 447ZM704 573H632L545 690L458 573H386L512 740H578L704 573Z" />
<glyph unicode="&#xeb;" glyph-name="edieresis" horiz-adv-x="535" d="M299 -8Q184 -8 119 58T53 242Q53 319 84 379T168 472T290 506Q392 506 447 435T487 223H128Q131 143 176 101T304 59Q344 59 381 76T444 131L490 89Q423 -8 299 -8ZM291 447Q245 447 211
425T155 366T129 282H423Q427 369 389 408T291 447ZM460 568Q438 568 425 581T412 614Q412 632 425 645T460 659Q482 659 494 646T507 614Q507 595 495 582T460 568ZM632 568Q609 568 596 581T583 614Q583 632 596 645T632 659Q653 659 665 646T678 614Q678 595
666 582T632 568Z" />
<glyph unicode="&#xec;" glyph-name="igrave" horiz-adv-x="222" d="M147 497V0H75V497H147ZM78 573L-47 728L31 750L145 573H78Z" />
<glyph unicode="&#xed;" glyph-name="iacute" horiz-adv-x="222" d="M147 497V0H75V497H147ZM74 573L188 750L266 728L141 573H74Z" />
<glyph unicode="&#xee;" glyph-name="icircumflex" horiz-adv-x="222" d="M147 497V0H75V497H147ZM271 573H199L112 690L25 573H-47L79 740H145L271 573Z" />
<glyph unicode="&#xef;" glyph-name="idieresis" horiz-adv-x="222" d="M147 497V0H75V497H147ZM27 568Q5 568 -8 581T-21 614Q-21 632 -8 645T27 659Q49 659 61 646T74 614Q74 595 62 582T27 568ZM199 568Q176 568 163 581T150 614Q150 632 163 645T199 659Q220
659 232 646T245 614Q245 595 233 582T199 568Z" />
<glyph unicode="&#xf0;" glyph-name="eth" horiz-adv-x="553" d="M269 -8Q169 -8 111 52T52 218Q52 291 82 347T164 437T278 470Q373 470 422 400Q400 517 323 595L155 528L138 574L282 631Q229 670 158 695L182 752Q283 716 352 659L467 704L483 659L390 622Q504
498 504 281Q504 198 476 133T394 30T269 -8ZM273 59Q317 59 351 82T406 147T427 241Q427 319 390 362T287 405Q242 405 206 382T149 317T127 218Q127 145 163 102T273 59Z" />
<glyph unicode="&#xf1;" glyph-name="ntilde" horiz-adv-x="571" d="M75 0V497H149L143 327Q168 414 220 460T344 506Q420 506 461 453T502 300L500 0H427L429 291Q429 364 405 401T326 438Q275 438 235 398T171 261T147 0H75ZM623 568Q604 568 582 577T537 599T494
621T458 631Q437 631 422 615T399 571L365 594Q374 638 399 663T461 688Q480 688 502 679T547 657T590 635T626 625Q647 625 662 641T685 685L719 662Q710 618 685 593T623 568Z" />
<glyph unicode="&#xf2;" glyph-name="ograve" horiz-adv-x="567" d="M292 506Q395 506 454 440T514 259Q514 183 485 123T402 27T278 -8Q173 -8 113 58T53 240Q53 316 82 376T166 471T292 506ZM278 59Q350 59 394 114T438 259Q438 346 400 393T293 440Q243 440
207 415T150 344T129 240Q129 152 168 106T278 59ZM507 573L382 728L460 750L574 573H507Z" />
<glyph unicode="&#xf3;" glyph-name="oacute" horiz-adv-x="567" d="M292 506Q395 506 454 440T514 259Q514 183 485 123T402 27T278 -8Q173 -8 113 58T53 240Q53 316 82 376T166 471T292 506ZM278 59Q350 59 394 114T438 259Q438 346 400 393T293 440Q243 440
207 415T150 344T129 240Q129 152 168 106T278 59ZM502 573L616 750L694 728L569 573H502Z" />
<glyph unicode="&#xf4;" glyph-name="ocircumflex" horiz-adv-x="567" d="M292 506Q395 506 454 440T514 259Q514 183 485 123T402 27T278 -8Q173 -8 113 58T53 240Q53 316 82 376T166 471T292 506ZM278 59Q350 59 394 114T438 259Q438 346 400 393T293 440Q243
440 207 415T150 344T129 240Q129 152 168 106T278 59ZM699 573H627L540 690L453 573H381L507 740H573L699 573Z" />
<glyph unicode="&#xf5;" glyph-name="otilde" horiz-adv-x="567" d="M292 506Q395 506 454 440T514 259Q514 183 485 123T402 27T278 -8Q173 -8 113 58T53 240Q53 316 82 376T166 471T292 506ZM278 59Q350 59 394 114T438 259Q438 346 400 393T293 440Q243 440
207 415T150 344T129 240Q129 152 168 106T278 59ZM621 568Q602 568 580 577T535 599T492 621T456 631Q435 631 420 615T397 571L363 594Q372 638 397 663T459 688Q478 688 500 679T545 657T588 635T624 625Q645 625 660 641T683 685L717 662Q708 618 683 593T621
568Z" />
<glyph unicode="&#xf6;" glyph-name="odieresis" horiz-adv-x="567" d="M292 506Q395 506 454 440T514 259Q514 183 485 123T402 27T278 -8Q173 -8 113 58T53 240Q53 316 82 376T166 471T292 506ZM278 59Q350 59 394 114T438 259Q438 346 400 393T293 440Q243
440 207 415T150 344T129 240Q129 152 168 106T278 59ZM455 568Q433 568 420 581T407 614Q407 632 420 645T455 659Q477 659 489 646T502 614Q502 595 490 582T455 568ZM627 568Q604 568 591 581T578 614Q578 632 591 645T627 659Q648 659 660 646T673 614Q673
595 661 582T627 568Z" />
<glyph unicode="&#xf7;" glyph-name="divide" horiz-adv-x="600" d="M300 426Q281 426 270 438T258 467Q258 484 269 495T300 507Q320 507 331 496T343 467Q343 450 332 438T300 426ZM544 281V218H56V281H544ZM300 -8Q281 -8 270 4T258 33Q258 50 269 61T300 73Q320
73 331 62T343 33Q343 16 332 4T300 -8Z" />
<glyph unicode="&#xf8;" glyph-name="oslash" horiz-adv-x="567" d="M292 506Q395 506 454 440T514 259Q514 183 485 123T402 27T278 -8Q173 -8 113 58T53 240Q53 316 82 376T166 471T292 506ZM278 59Q350 59 394 114T438 259Q438 346 400 393T293 440Q243 440
207 415T150 344T129 240Q129 152 168 106T278 59ZM383 -34L336 -5L382 63L410 100L631 428L651 464L697 532L743 502L697 434L670 398L448 69L429 34L383 -34Z" />
<glyph unicode="&#xf9;" glyph-name="ugrave" horiz-adv-x="561" d="M224 -8Q149 -8 109 44T69 188L72 497H145L142 197Q141 132 165 96T241 60Q292 60 331 101T392 237T416 497H486V0H412L418 163Q390 75 339 34T224 -8ZM503 573L378 728L456 750L570 573H503Z" />
<glyph unicode="&#xfa;" glyph-name="uacute" horiz-adv-x="561" d="M224 -8Q149 -8 109 44T69 188L72 497H145L142 197Q141 132 165 96T241 60Q292 60 331 101T392 237T416 497H486V0H412L418 163Q390 75 339 34T224 -8ZM499 573L613 750L691 728L566 573H499Z" />
<glyph unicode="&#xfb;" glyph-name="ucircumflex" horiz-adv-x="561" d="M224 -8Q149 -8 109 44T69 188L72 497H145L142 197Q141 132 165 96T241 60Q292 60 331 101T392 237T416 497H486V0H412L418 163Q390 75 339 34T224 -8ZM696 573H624L537 690L450 573H378L504
740H570L696 573Z" />
<glyph unicode="&#xfc;" glyph-name="udieresis" horiz-adv-x="561" d="M224 -8Q149 -8 109 44T69 188L72 497H145L142 197Q141 132 165 96T241 60Q292 60 331 101T392 237T416 497H486V0H412L418 163Q390 75 339 34T224 -8ZM452 568Q430 568 417 581T404 614Q404
632 417 645T452 659Q474 659 486 646T499 614Q499 595 487 582T452 568ZM624 568Q601 568 588 581T575 614Q575 632 588 645T624 659Q645 659 657 646T670 614Q670 595 658 582T624 568Z" />
<glyph unicode="&#xfd;" glyph-name="yacute" horiz-adv-x="566" d="M241 -210Q198 -210 154 -202T78 -175L98 -110Q130 -126 168 -134T243 -143Q339 -143 379 -96T422 56L425 178Q397 87 345 44T225 1Q149 1 109 53T69 197L72 497H145L142 206Q141 141 165 106T242
70Q295 70 335 110T398 243T421 497H491V67Q491 -210 241 -210ZM502 573L616 750L694 728L569 573H502Z" />
<glyph unicode="&#xfe;" glyph-name="thorn" horiz-adv-x="576" d="M75 -200V740H148V498L146 380Q173 438 220 472T328 506Q391 506 434 477T500 395T523 274Q523 191 493 128T409 28T284 -8Q238 -8 202 12T147 65L148 0V-200H75ZM282 59Q357 59 402 116T447
269Q447 349 413 394T318 440Q269 440 231 411T170 331T147 215Q147 142 183 101T282 59Z" />
<glyph unicode="&#xff;" glyph-name="ydieresis" horiz-adv-x="566" d="M241 -210Q198 -210 154 -202T78 -175L98 -110Q130 -126 168 -134T243 -143Q339 -143 379 -96T422 56L425 178Q397 87 345 44T225 1Q149 1 109 53T69 197L72 497H145L142 206Q141 141 165
106T242 70Q295 70 335 110T398 243T421 497H491V67Q491 -210 241 -210ZM455 568Q433 568 420 581T407 614Q407 632 420 645T455 659Q477 659 489 646T502 614Q502 595 490 582T455 568ZM627 568Q604 568 591 581T578 614Q578 632 591 645T627 659Q648 659 660
646T673 614Q673 595 661 582T627 568Z" />
<glyph unicode="&#x2013;" glyph-name="endash" horiz-adv-x="500" d="M20 226V288H480V226H20Z" />
<glyph unicode="&#x2014;" glyph-name="emdash" horiz-adv-x="1000" d="M20 226V288H980V226H20Z" />
<glyph unicode="&#x2018;" glyph-name="quoteleft" horiz-adv-x="188" d="M142 750Q125 705 125 673Q125 644 133 626T142 585Q142 563 128 550T92 536Q42 536 42 594Q42 628 60 672T105 750H142Z" />
<glyph unicode="&#x2019;" glyph-name="quoteright" horiz-adv-x="188" d="M43 536Q61 581 61 613Q61 641 53 659T44 700Q44 723 58 736T94 750Q118 750 131 735T144 691Q144 657 126 613T81 536H43Z" />
<glyph unicode="&#x201a;" glyph-name="quotesinglbase" horiz-adv-x="188" d="M43 -114Q61 -69 61 -37Q61 -9 53 9T44 51Q44 73 58 86T95 100Q146 100 146 41Q146 8 128 -36T82 -114H43Z" />
<glyph unicode="&#x201c;" glyph-name="quotedblleft" horiz-adv-x="326" d="M282 750Q265 705 265 673Q265 644 273 626T282 585Q282 563 268 550T232 536Q182 536 182 594Q182 628 200 672T245 750H282ZM143 750Q126 705 126 673Q126 644 134 626T143 585Q143
563 129 550T93 536Q43 536 43 594Q43 628 61 672T106 750H143Z" />
<glyph unicode="&#x201d;" glyph-name="quotedblright" horiz-adv-x="326" d="M182 536Q200 581 200 613Q200 641 192 659T183 700Q183 723 197 736T233 750Q257 750 270 735T283 691Q283 657 265 613T220 536H182ZM43 536Q61 581 61 613Q61 641 53 659T44 700Q44
723 58 736T94 750Q118 750 131 735T144 691Q144 657 126 613T81 536H43Z" />
<glyph unicode="&#x201e;" glyph-name="quotedblbase" horiz-adv-x="321" d="M176 -114Q194 -69 194 -37Q194 -9 186 9T177 51Q177 73 191 86T228 100Q279 100 279 41Q279 8 261 -36T215 -114H176ZM43 -114Q61 -69 61 -37Q61 -9 53 9T44 51Q44 73 58 86T95 100Q146
100 146 41Q146 8 128 -36T82 -114H43Z" />
<glyph unicode="&#x2022;" glyph-name="bullet" horiz-adv-x="452" d="M225 85Q177 85 139 107T78 168T55 256Q55 305 77 344T138 405T225 427Q273 427 312 405T373 344T396 256Q396 207 374 169T312 108T225 85Z" />
<glyph unicode="&#x2039;" glyph-name="guilsinglleft" horiz-adv-x="252" d="M158 70L33 238V268L158 436H238L103 253L238 70H158Z" />
<glyph unicode="&#x203a;" glyph-name="guilsinglright" horiz-adv-x="252" d="M95 70H14L150 253L14 436H95L219 268V238L95 70Z" />
</font>
</defs>
</svg>
